0, 0, Header, 0, 1, 480
1, 0, Start_track
1, 0, Title_t, "Hollywood"
1, 0, Instrument_name_t, " Dispositivo GM"
1, 0, Time_signature, 4, 2, 24, 8
1, 0, Key_signature, 0, "major"
1, 0, SMPTE_offset, 33, 0, 0, 0, 0
1, 0, Tempo, 454545
1, 0, Lyric_t, "All "
1, 0, Lyric_t, "rights"
1, 0, Lyric_t, " re"
1, 0, Lyric_t, "served "
1, 0, Lyric_t, "\015"
1, 4, System_exclusive, 5, 126, 127, 9, 1, 247
1, 32, System_exclusive, 10, 65, 16, 66, 18, 64, 0, 127, 0, 65, 247
1, 152, System_exclusive, 26, 65, 16, 66, 18, 64, 1, 0, 40, 99, 41, 32, 81, 85, 65, 78, 84, 85, 77, 32, 74, 85, 77, 80, 32, 68, 247
1, 480, Control_c, 1, 121, 0
1, 480, System_exclusive, 10, 65, 16, 66, 18, 64, 0, 4, 127, 61, 247
1, 484, Text_t, "QUANTUM JUMP"
1, 485, Control_c, 1, 10, 64
1, 490, Control_c, 1, 93, 25
1, 495, Control_c, 1, 91, 4
1, 500, Control_c, 1, 11, 127
1, 505, Control_c, 1, 7, 100
1, 510, Pitch_bend_c, 1, 8192
1, 515, Control_c, 1, 0, 0
1, 520, Program_c, 1, 39
1, 525, Control_c, 2, 121, 0
1, 528, System_exclusive, 10, 65, 16, 66, 18, 64, 1, 48, 4, 11, 247
1, 530, Control_c, 2, 10, 56
1, 535, Control_c, 2, 93, 32
1, 540, Control_c, 2, 91, 61
1, 545, Control_c, 2, 11, 127
1, 550, Control_c, 2, 7, 68
1, 550, System_exclusive, 10, 65, 16, 66, 18, 64, 1, 51, 76, 64, 247
1, 555, Pitch_bend_c, 2, 8192
1, 560, Control_c, 2, 0, 0
1, 565, Program_c, 2, 49
1, 570, Control_c, 3, 121, 0
1, 575, Control_c, 3, 10, 62
1, 575, System_exclusive, 10, 65, 16, 66, 18, 64, 1, 52, 80, 59, 247
1, 580, Control_c, 3, 93, 14
1, 585, Control_c, 3, 91, 80
1, 590, Control_c, 3, 11, 127
1, 595, Control_c, 3, 7, 112
1, 600, Pitch_bend_c, 3, 8192
1, 600, System_exclusive, 10, 65, 16, 66, 18, 64, 1, 56, 2, 5, 247
1, 605, Control_c, 3, 0, 0
1, 610, Program_c, 3, 75
1, 623, System_exclusive, 10, 65, 16, 66, 18, 64, 1, 58, 96, 37, 247
1, 648, System_exclusive, 10, 65, 16, 66, 18, 64, 1, 59, 12, 120, 247
1, 660, Control_c, 4, 121, 0
1, 665, Control_c, 4, 10, 75
1, 670, Control_c, 4, 93, 8
1, 670, System_exclusive, 10, 65, 16, 66, 18, 64, 1, 61, 2, 0, 247
1, 675, Control_c, 4, 91, 92
1, 680, Control_c, 4, 11, 127
1, 685, Control_c, 4, 7, 82
1, 690, Pitch_bend_c, 4, 8192
1, 695, Control_c, 4, 0, 0
1, 695, System_exclusive, 10, 65, 16, 66, 18, 64, 1, 62, 24, 105, 247
1, 700, Program_c, 4, 52
1, 705, Control_c, 6, 121, 0
1, 710, Control_c, 6, 10, 70
1, 715, Control_c, 6, 93, 25
1, 720, Control_c, 6, 91, 75
1, 725, Control_c, 6, 11, 127
1, 730, Control_c, 6, 7, 83
1, 735, Pitch_bend_c, 6, 8192
1, 740, Control_c, 6, 0, 0
1, 745, Program_c, 6, 30
1, 750, Control_c, 7, 121, 0
1, 750, Control_c, 8, 121, 0
1, 751, Control_c, 12, 121, 0
1, 751, Control_c, 13, 121, 0
1, 755, Control_c, 7, 10, 56
1, 755, Control_c, 8, 10, 86
1, 756, Control_c, 12, 10, 33
1, 756, Control_c, 13, 10, 107
1, 760, Control_c, 7, 93, 32
1, 760, Control_c, 8, 93, 28
1, 761, Control_c, 12, 93, 17
1, 761, Control_c, 13, 93, 18
1, 765, Control_c, 7, 91, 76
1, 765, Control_c, 8, 91, 89
1, 766, Control_c, 12, 91, 78
1, 766, Control_c, 13, 91, 71
1, 770, Control_c, 7, 11, 127
1, 770, Control_c, 8, 11, 127
1, 771, Control_c, 12, 11, 127
1, 771, Control_c, 13, 11, 127
1, 775, Control_c, 7, 7, 106
1, 775, Control_c, 8, 7, 91
1, 776, Control_c, 12, 7, 69
1, 776, Control_c, 13, 7, 77
1, 780, Pitch_bend_c, 7, 8192
1, 780, Pitch_bend_c, 8, 8192
1, 780, Pitch_bend_c, 12, 8192
1, 780, Pitch_bend_c, 13, 8192
1, 785, Control_c, 7, 0, 0
1, 785, Control_c, 8, 0, 0
1, 786, Control_c, 12, 0, 0
1, 786, Control_c, 13, 0, 0
1, 790, Program_c, 7, 61
1, 790, Program_c, 8, 67
1, 790, Program_c, 12, 25
1, 790, Program_c, 13, 26
1, 795, Control_c, 11, 121, 0
1, 800, Control_c, 11, 10, 88
1, 805, Control_c, 11, 93, 12
1, 810, Control_c, 11, 91, 86
1, 815, Control_c, 11, 11, 127
1, 820, Control_c, 11, 7, 90
1, 825, Pitch_bend_c, 11, 8192
1, 830, Control_c, 11, 0, 0
1, 835, Program_c, 11, 0
1, 840, Control_c, 9, 121, 0
1, 850, Control_c, 9, 93, 24
1, 855, Control_c, 9, 91, 66
1, 860, Control_c, 9, 11, 127
1, 865, Control_c, 9, 7, 117
1, 870, Pitch_bend_c, 9, 8192
1, 880, Program_c, 9, 0
1, 885, Control_c, 10, 121, 0
1, 885, Control_c, 14, 121, 0
1, 890, Control_c, 10, 10, 95
1, 890, Control_c, 14, 10, 61
1, 895, Control_c, 10, 93, 44
1, 895, Control_c, 14, 93, 24
1, 900, Control_c, 10, 91, 75
1, 900, Control_c, 14, 91, 97
1, 905, Control_c, 10, 11, 127
1, 905, Control_c, 14, 11, 127
1, 910, Control_c, 10, 7, 79
1, 910, Control_c, 14, 7, 73
1, 915, Pitch_bend_c, 10, 8192
1, 915, Pitch_bend_c, 14, 8192
1, 920, Control_c, 9, 99, 24
1, 920, Control_c, 10, 0, 0
1, 921, Control_c, 14, 0, 0
1, 925, Program_c, 10, 29
1, 925, Program_c, 14, 27
1, 925, Control_c, 9, 98, 99
1, 930, Control_c, 9, 6, 64
1, 960, Control_c, 9, 98, 40
1, 965, Control_c, 9, 6, 62
1, 975, Control_c, 5, 121, 0
1, 980, Control_c, 5, 10, 83
1, 985, Control_c, 5, 93, 26
1, 990, Control_c, 5, 91, 84
1, 995, Control_c, 5, 11, 127
1, 1000, Control_c, 5, 7, 61
1, 1005, Control_c, 9, 98, 39
1, 1005, Pitch_bend_c, 5, 8192
1, 1010, Control_c, 5, 0, 0
1, 1010, Control_c, 9, 6, 67
1, 1015, Program_c, 5, 48
1, 1046, Control_c, 9, 98, 46
1, 1051, Control_c, 9, 6, 61
1, 1461, Control_c, 1, 99, 1
1, 1461, Control_c, 2, 99, 1
1, 1462, Control_c, 6, 99, 1
1, 1462, Control_c, 10, 99, 1
1, 1463, Control_c, 14, 99, 1
1, 1485, Control_c, 1, 98, 33
1, 1485, Control_c, 2, 98, 99
1, 1486, Control_c, 1, 6, 41
1, 1486, Control_c, 6, 98, 32
1, 1486, Control_c, 2, 6, 59
1, 1486, Control_c, 10, 98, 33
1, 1487, Control_c, 6, 6, 64
1, 1487, Control_c, 14, 98, 102
1, 1487, Control_c, 10, 6, 69
1, 1488, Control_c, 14, 6, 64
1, 1920, Note_on_c, 9, 44, 90
1, 2076, Note_on_c, 9, 44, 0
1, 2400, Note_on_c, 9, 44, 90
1, 2556, Note_on_c, 9, 44, 0
1, 2880, Note_on_c, 9, 40, 118
1, 2906, Note_on_c, 9, 40, 118
1, 3036, Note_on_c, 9, 40, 0
1, 3062, Note_on_c, 9, 40, 0
1, 3120, Note_on_c, 9, 35, 118
1, 3276, Note_on_c, 9, 35, 0
1, 3360, Note_on_c, 9, 40, 118
1, 3360, Note_on_c, 9, 49, 90
1, 3516, Note_on_c, 9, 40, 0
1, 3516, Note_on_c, 9, 49, 0
1, 3600, Note_on_c, 9, 35, 118
1, 3756, Note_on_c, 9, 35, 0
1, 3840, Note_on_c, 1, 29, 127
1, 3840, Note_on_c, 4, 57, 114
1, 3840, Note_on_c, 4, 69, 124
1, 3840, Note_on_c, 5, 57, 114
1, 3840, Note_on_c, 5, 69, 124
1, 3840, Note_on_c, 6, 41, 110
1, 3840, Note_on_c, 6, 48, 119
1, 3840, Note_on_c, 9, 35, 118
1, 3840, Note_on_c, 9, 49, 91
1, 3840, Note_on_c, 12, 41, 127
1, 3880, Note_on_c, 9, 35, 0
1, 3880, Note_on_c, 9, 49, 0
1, 4076, Note_on_c, 6, 41, 0
1, 4076, Note_on_c, 6, 48, 0
1, 4080, Note_on_c, 6, 41, 110
1, 4080, Note_on_c, 6, 48, 119
1, 4080, Note_on_c, 6, 53, 60
1, 4080, Note_on_c, 9, 42, 76
1, 4120, Note_on_c, 9, 42, 0
1, 4215, Note_on_c, 12, 41, 0
1, 4247, Note_on_c, 1, 29, 0
1, 4297, Note_on_c, 4, 69, 0
1, 4297, Note_on_c, 5, 69, 0
1, 4308, Note_on_c, 4, 57, 0
1, 4308, Note_on_c, 5, 57, 0
1, 4316, Note_on_c, 6, 41, 0
1, 4316, Note_on_c, 6, 48, 0
1, 4316, Note_on_c, 6, 53, 0
1, 4320, Note_on_c, 1, 29, 119
1, 4320, Note_on_c, 4, 60, 110
1, 4320, Note_on_c, 4, 72, 127
1, 4320, Note_on_c, 5, 60, 110
1, 4320, Note_on_c, 5, 72, 127
1, 4320, Note_on_c, 6, 41, 119
1, 4320, Note_on_c, 6, 48, 127
1, 4320, Note_on_c, 6, 53, 94
1, 4320, Note_on_c, 9, 40, 118
1, 4320, Note_on_c, 9, 42, 76
1, 4320, Note_on_c, 12, 41, 94
1, 4320, Note_on_c, 12, 48, 127
1, 4320, Note_on_c, 12, 57, 119
1, 4320, Note_on_c, 12, 60, 127
1, 4320, Note_on_c, 12, 65, 127
1, 4360, Note_on_c, 9, 40, 0
1, 4360, Note_on_c, 9, 42, 0
1, 4399, Note_on_c, 12, 60, 0
1, 4556, Note_on_c, 6, 41, 0
1, 4556, Note_on_c, 6, 48, 0
1, 4556, Note_on_c, 6, 53, 0
1, 4560, Note_on_c, 6, 41, 119
1, 4560, Note_on_c, 6, 48, 127
1, 4560, Note_on_c, 6, 53, 91
1, 4560, Note_on_c, 9, 42, 76
1, 4560, Note_on_c, 12, 60, 45
1, 4600, Note_on_c, 9, 42, 0
1, 4651, Note_on_c, 12, 57, 0
1, 4732, Note_on_c, 4, 72, 0
1, 4732, Note_on_c, 5, 72, 0
1, 4745, Note_on_c, 1, 29, 0
1, 4754, Note_on_c, 4, 60, 0
1, 4754, Note_on_c, 5, 60, 0
1, 4796, Note_on_c, 6, 41, 0
1, 4796, Note_on_c, 6, 48, 0
1, 4796, Note_on_c, 6, 53, 0
1, 4800, Note_on_c, 1, 29, 119
1, 4800, Note_on_c, 4, 62, 119
1, 4800, Note_on_c, 4, 74, 119
1, 4800, Note_on_c, 5, 62, 119
1, 4800, Note_on_c, 5, 74, 119
1, 4800, Note_on_c, 6, 41, 106
1, 4800, Note_on_c, 6, 48, 110
1, 4800, Note_on_c, 9, 35, 118
1, 4800, Note_on_c, 9, 42, 76
1, 4800, Note_on_c, 12, 57, 106
1, 4825, Note_on_c, 12, 65, 0
1, 4840, Note_on_c, 9, 35, 0
1, 4840, Note_on_c, 9, 42, 0
1, 4884, Note_on_c, 1, 29, 0
1, 4916, Note_on_c, 12, 57, 0
1, 4975, Note_on_c, 12, 60, 0
1, 5029, Note_on_c, 4, 74, 0
1, 5029, Note_on_c, 5, 74, 0
1, 5031, Note_on_c, 4, 62, 0
1, 5031, Note_on_c, 5, 62, 0
1, 5036, Note_on_c, 6, 41, 0
1, 5036, Note_on_c, 6, 48, 0
1, 5040, Note_on_c, 1, 29, 124
1, 5040, Note_on_c, 4, 64, 114
1, 5040, Note_on_c, 4, 76, 102
1, 5040, Note_on_c, 5, 64, 114
1, 5040, Note_on_c, 5, 76, 102
1, 5040, Note_on_c, 6, 41, 114
1, 5040, Note_on_c, 6, 48, 110
1, 5040, Note_on_c, 9, 35, 118
1, 5040, Note_on_c, 9, 42, 76
1, 5040, Note_on_c, 12, 57, 110
1, 5040, Note_on_c, 12, 60, 127
1, 5040, Note_on_c, 12, 65, 127
1, 5080, Note_on_c, 9, 35, 0
1, 5080, Note_on_c, 9, 42, 0
1, 5117, Note_on_c, 12, 41, 0
1, 5125, Note_on_c, 12, 48, 0
1, 5252, Note_on_c, 4, 64, 0
1, 5252, Note_on_c, 5, 64, 0
1, 5254, Note_on_c, 4, 76, 0
1, 5254, Note_on_c, 5, 76, 0
1, 5276, Note_on_c, 6, 41, 0
1, 5276, Note_on_c, 6, 48, 0
1, 5280, Note_on_c, 4, 62, 110
1, 5280, Note_on_c, 4, 74, 119
1, 5280, Note_on_c, 5, 62, 110
1, 5280, Note_on_c, 5, 74, 119
1, 5280, Note_on_c, 6, 41, 119
1, 5280, Note_on_c, 6, 48, 127
1, 5280, Note_on_c, 6, 53, 127
1, 5280, Note_on_c, 9, 40, 118
1, 5280, Note_on_c, 9, 42, 76
1, 5280, Note_on_c, 12, 41, 114
1, 5280, Note_on_c, 12, 48, 114
1, 5320, Note_on_c, 9, 40, 0
1, 5320, Note_on_c, 9, 42, 0
1, 5354, Note_on_c, 12, 57, 0
1, 5408, Note_on_c, 1, 29, 0
1, 5494, Note_on_c, 4, 74, 0
1, 5494, Note_on_c, 5, 74, 0
1, 5496, Note_on_c, 4, 62, 0
1, 5496, Note_on_c, 5, 62, 0
1, 5516, Note_on_c, 6, 41, 0
1, 5516, Note_on_c, 6, 48, 0
1, 5516, Note_on_c, 6, 53, 0
1, 5520, Note_on_c, 1, 29, 124
1, 5520, Note_on_c, 4, 60, 119
1, 5520, Note_on_c, 4, 72, 127
1, 5520, Note_on_c, 5, 60, 119
1, 5520, Note_on_c, 5, 72, 127
1, 5520, Note_on_c, 6, 41, 99
1, 5520, Note_on_c, 6, 48, 110
1, 5520, Note_on_c, 6, 53, 110
1, 5520, Note_on_c, 9, 42, 76
1, 5520, Note_on_c, 12, 57, 106
1, 5522, Note_on_c, 12, 41, 0
1, 5552, Note_on_c, 12, 48, 0
1, 5560, Note_on_c, 9, 42, 0
1, 5646, Note_on_c, 1, 29, 0
1, 5756, Note_on_c, 6, 41, 0
1, 5756, Note_on_c, 6, 48, 0
1, 5756, Note_on_c, 6, 53, 0
1, 5760, Note_on_c, 1, 29, 119
1, 5760, Note_on_c, 6, 41, 114
1, 5760, Note_on_c, 6, 48, 119
1, 5760, Note_on_c, 9, 35, 118
1, 5760, Note_on_c, 9, 42, 76
1, 5760, Note_on_c, 12, 41, 127
1, 5760, Note_on_c, 12, 48, 127
1, 5800, Note_on_c, 9, 35, 0
1, 5800, Note_on_c, 9, 42, 0
1, 5996, Note_on_c, 6, 41, 0
1, 5996, Note_on_c, 6, 48, 0
1, 6000, Note_on_c, 6, 41, 114
1, 6000, Note_on_c, 6, 48, 119
1, 6000, Note_on_c, 9, 42, 76
1, 6040, Note_on_c, 9, 42, 0
1, 6087, Note_on_c, 12, 65, 0
1, 6092, Note_on_c, 12, 57, 0
1, 6100, Note_on_c, 12, 60, 0
1, 6107, Note_on_c, 12, 41, 0
1, 6118, Note_on_c, 12, 48, 0
1, 6171, Note_on_c, 4, 60, 0
1, 6171, Note_on_c, 5, 60, 0
1, 6236, Note_on_c, 6, 41, 0
1, 6236, Note_on_c, 6, 48, 0
1, 6240, Note_on_c, 4, 57, 119
1, 6240, Note_on_c, 4, 69, 114
1, 6240, Note_on_c, 5, 57, 119
1, 6240, Note_on_c, 5, 69, 114
1, 6240, Note_on_c, 6, 41, 110
1, 6240, Note_on_c, 6, 48, 119
1, 6240, Note_on_c, 6, 53, 127
1, 6240, Note_on_c, 9, 40, 118
1, 6240, Note_on_c, 9, 42, 76
1, 6240, Note_on_c, 12, 41, 127
1, 6240, Note_on_c, 12, 48, 127
1, 6240, Note_on_c, 12, 57, 110
1, 6240, Note_on_c, 12, 60, 124
1, 6240, Note_on_c, 12, 65, 124
1, 6255, Note_on_c, 4, 72, 0
1, 6255, Note_on_c, 5, 72, 0
1, 6280, Note_on_c, 9, 40, 0
1, 6280, Note_on_c, 9, 42, 0
1, 6476, Note_on_c, 6, 41, 0
1, 6476, Note_on_c, 6, 48, 0
1, 6476, Note_on_c, 6, 53, 0
1, 6480, Note_on_c, 6, 41, 65
1, 6480, Note_on_c, 6, 48, 94
1, 6480, Note_on_c, 6, 53, 91
1, 6480, Note_on_c, 9, 42, 76
1, 6520, Note_on_c, 9, 42, 0
1, 6556, Note_on_c, 12, 57, 0
1, 6607, Note_on_c, 4, 57, 0
1, 6607, Note_on_c, 5, 57, 0
1, 6620, Note_on_c, 1, 29, 0
1, 6679, Note_on_c, 4, 69, 0
1, 6679, Note_on_c, 5, 69, 0
1, 6716, Note_on_c, 6, 41, 0
1, 6716, Note_on_c, 6, 48, 0
1, 6716, Note_on_c, 6, 53, 0
1, 6720, Note_on_c, 1, 29, 114
1, 6720, Note_on_c, 4, 62, 119
1, 6720, Note_on_c, 4, 74, 119
1, 6720, Note_on_c, 5, 62, 119
1, 6720, Note_on_c, 5, 74, 119
1, 6720, Note_on_c, 6, 41, 106
1, 6720, Note_on_c, 6, 48, 114
1, 6720, Note_on_c, 9, 35, 118
1, 6720, Note_on_c, 9, 42, 76
1, 6720, Note_on_c, 12, 57, 94
1, 6760, Note_on_c, 9, 35, 0
1, 6760, Note_on_c, 9, 42, 0
1, 6773, Note_on_c, 12, 65, 0
1, 6797, Note_on_c, 12, 60, 0
1, 6822, Note_on_c, 12, 57, 0
1, 6837, Note_on_c, 1, 29, 0
1, 6949, Note_on_c, 4, 74, 0
1, 6949, Note_on_c, 5, 74, 0
1, 6951, Note_on_c, 4, 62, 0
1, 6951, Note_on_c, 5, 62, 0
1, 6956, Note_on_c, 6, 41, 0
1, 6956, Note_on_c, 6, 48, 0
1, 6960, Note_on_c, 1, 29, 124
1, 6960, Note_on_c, 4, 64, 114
1, 6960, Note_on_c, 4, 76, 102
1, 6960, Note_on_c, 5, 64, 114
1, 6960, Note_on_c, 5, 76, 102
1, 6960, Note_on_c, 6, 41, 102
1, 6960, Note_on_c, 6, 48, 106
1, 6960, Note_on_c, 9, 35, 118
1, 6960, Note_on_c, 9, 42, 76
1, 6960, Note_on_c, 12, 57, 114
1, 6960, Note_on_c, 12, 60, 127
1, 6960, Note_on_c, 12, 65, 127
1, 6996, Note_on_c, 12, 41, 0
1, 7000, Note_on_c, 9, 35, 0
1, 7000, Note_on_c, 9, 42, 0
1, 7016, Note_on_c, 12, 48, 0
1, 7172, Note_on_c, 4, 64, 0
1, 7172, Note_on_c, 5, 64, 0
1, 7174, Note_on_c, 4, 76, 0
1, 7174, Note_on_c, 5, 76, 0
1, 7177, Note_on_c, 1, 29, 0
1, 7196, Note_on_c, 6, 41, 0
1, 7196, Note_on_c, 6, 48, 0
1, 7200, Note_on_c, 1, 29, 119
1, 7200, Note_on_c, 4, 62, 110
1, 7200, Note_on_c, 4, 74, 119
1, 7200, Note_on_c, 5, 62, 110
1, 7200, Note_on_c, 5, 74, 119
1, 7200, Note_on_c, 6, 41, 106
1, 7200, Note_on_c, 6, 48, 119
1, 7200, Note_on_c, 6, 53, 124
1, 7200, Note_on_c, 9, 40, 118
1, 7200, Note_on_c, 9, 42, 76
1, 7200, Note_on_c, 12, 41, 114
1, 7200, Note_on_c, 12, 48, 127
1, 7226, Note_on_c, 12, 57, 0
1, 7240, Note_on_c, 9, 40, 0
1, 7240, Note_on_c, 9, 42, 0
1, 7366, Note_on_c, 1, 29, 0
1, 7414, Note_on_c, 4, 74, 0
1, 7414, Note_on_c, 5, 74, 0
1, 7416, Note_on_c, 4, 62, 0
1, 7416, Note_on_c, 5, 62, 0
1, 7436, Note_on_c, 6, 41, 0
1, 7436, Note_on_c, 6, 48, 0
1, 7436, Note_on_c, 6, 53, 0
1, 7440, Note_on_c, 1, 29, 127
1, 7440, Note_on_c, 4, 60, 119
1, 7440, Note_on_c, 4, 72, 127
1, 7440, Note_on_c, 5, 60, 119
1, 7440, Note_on_c, 5, 72, 127
1, 7440, Note_on_c, 6, 53, 99
1, 7440, Note_on_c, 9, 42, 76
1, 7440, Note_on_c, 12, 57, 106
1, 7480, Note_on_c, 9, 42, 0
1, 7504, Note_on_c, 12, 41, 0
1, 7575, Note_on_c, 12, 48, 0
1, 7635, Note_on_c, 1, 29, 0
1, 7676, Note_on_c, 6, 53, 0
1, 7680, Note_on_c, 1, 29, 127
1, 7680, Note_on_c, 6, 41, 127
1, 7680, Note_on_c, 9, 35, 118
1, 7680, Note_on_c, 9, 42, 76
1, 7680, Note_on_c, 10, 41, 115
1, 7680, Note_on_c, 12, 41, 127
1, 7680, Note_on_c, 12, 48, 127
1, 7720, Note_on_c, 9, 35, 0
1, 7720, Note_on_c, 9, 42, 0
1, 7749, Note_on_c, 12, 60, 0
1, 7774, Note_on_c, 12, 57, 0
1, 7816, Note_on_c, 12, 65, 0
1, 7907, Note_on_c, 1, 29, 0
1, 7907, Note_on_c, 6, 41, 0
1, 7907, Note_on_c, 10, 41, 0
1, 7920, Note_on_c, 1, 31, 124
1, 7920, Note_on_c, 6, 43, 127
1, 7920, Note_on_c, 9, 42, 76
1, 7920, Note_on_c, 10, 43, 115
1, 7960, Note_on_c, 9, 42, 0
1, 8027, Note_on_c, 12, 41, 0
1, 8038, Note_on_c, 12, 48, 0
1, 8091, Note_on_c, 4, 60, 0
1, 8091, Note_on_c, 5, 60, 0
1, 8160, Note_on_c, 4, 56, 119
1, 8160, Note_on_c, 4, 68, 114
1, 8160, Note_on_c, 5, 56, 119
1, 8160, Note_on_c, 5, 68, 114
1, 8160, Note_on_c, 9, 40, 118
1, 8160, Note_on_c, 9, 42, 76
1, 8160, Note_on_c, 12, 41, 127
1, 8160, Note_on_c, 12, 48, 127
1, 8160, Note_on_c, 12, 56, 110
1, 8160, Note_on_c, 12, 60, 124
1, 8160, Note_on_c, 12, 65, 124
1, 8175, Note_on_c, 4, 72, 0
1, 8175, Note_on_c, 5, 72, 0
1, 8200, Note_on_c, 9, 40, 0
1, 8200, Note_on_c, 9, 42, 0
1, 8385, Note_on_c, 1, 31, 0
1, 8390, Note_on_c, 6, 43, 0
1, 8390, Note_on_c, 10, 43, 0
1, 8400, Note_on_c, 1, 32, 127
1, 8400, Note_on_c, 6, 44, 127
1, 8400, Note_on_c, 9, 42, 76
1, 8400, Note_on_c, 10, 44, 115
1, 8440, Note_on_c, 9, 42, 0
1, 8476, Note_on_c, 12, 56, 0
1, 8527, Note_on_c, 4, 56, 0
1, 8527, Note_on_c, 5, 56, 0
1, 8599, Note_on_c, 4, 68, 0
1, 8599, Note_on_c, 5, 68, 0
1, 8640, Note_on_c, 4, 62, 119
1, 8640, Note_on_c, 4, 74, 119
1, 8640, Note_on_c, 5, 62, 119
1, 8640, Note_on_c, 5, 74, 119
1, 8640, Note_on_c, 9, 35, 118
1, 8640, Note_on_c, 9, 42, 76
1, 8640, Note_on_c, 12, 56, 94
1, 8680, Note_on_c, 9, 35, 0
1, 8680, Note_on_c, 9, 42, 0
1, 8693, Note_on_c, 12, 65, 0
1, 8717, Note_on_c, 12, 60, 0
1, 8742, Note_on_c, 12, 56, 0
1, 8850, Note_on_c, 6, 44, 0
1, 8850, Note_on_c, 10, 44, 0
1, 8869, Note_on_c, 4, 74, 0
1, 8869, Note_on_c, 5, 74, 0
1, 8870, Note_on_c, 1, 32, 0
1, 8871, Note_on_c, 4, 62, 0
1, 8871, Note_on_c, 5, 62, 0
1, 8880, Note_on_c, 1, 34, 124
1, 8880, Note_on_c, 4, 64, 114
1, 8880, Note_on_c, 4, 76, 102
1, 8880, Note_on_c, 5, 64, 114
1, 8880, Note_on_c, 5, 76, 102
1, 8880, Note_on_c, 6, 46, 127
1, 8880, Note_on_c, 9, 35, 118
1, 8880, Note_on_c, 9, 42, 76
1, 8880, Note_on_c, 10, 46, 115
1, 8880, Note_on_c, 12, 56, 114
1, 8880, Note_on_c, 12, 60, 127
1, 8880, Note_on_c, 12, 65, 127
1, 8916, Note_on_c, 12, 41, 0
1, 8920, Note_on_c, 9, 35, 0
1, 8920, Note_on_c, 9, 42, 0
1, 8936, Note_on_c, 12, 48, 0
1, 9092, Note_on_c, 4, 64, 0
1, 9092, Note_on_c, 5, 64, 0
1, 9094, Note_on_c, 4, 76, 0
1, 9094, Note_on_c, 5, 76, 0
1, 9120, Note_on_c, 4, 62, 110
1, 9120, Note_on_c, 4, 74, 119
1, 9120, Note_on_c, 5, 62, 110
1, 9120, Note_on_c, 5, 74, 119
1, 9120, Note_on_c, 9, 40, 118
1, 9120, Note_on_c, 9, 42, 76
1, 9120, Note_on_c, 12, 41, 114
1, 9120, Note_on_c, 12, 48, 127
1, 9146, Note_on_c, 12, 56, 0
1, 9160, Note_on_c, 9, 40, 0
1, 9160, Note_on_c, 9, 42, 0
1, 9269, Note_on_c, 6, 46, 0
1, 9269, Note_on_c, 10, 46, 0
1, 9283, Note_on_c, 1, 34, 0
1, 9334, Note_on_c, 4, 74, 0
1, 9334, Note_on_c, 5, 74, 0
1, 9336, Note_on_c, 4, 62, 0
1, 9336, Note_on_c, 5, 62, 0
1, 9360, Note_on_c, 1, 35, 120
1, 9360, Note_on_c, 4, 60, 119
1, 9360, Note_on_c, 4, 72, 127
1, 9360, Note_on_c, 5, 60, 119
1, 9360, Note_on_c, 5, 72, 127
1, 9360, Note_on_c, 6, 47, 102
1, 9360, Note_on_c, 9, 42, 76
1, 9360, Note_on_c, 10, 47, 90
1, 9360, Note_on_c, 12, 56, 106
1, 9400, Note_on_c, 9, 42, 0
1, 9424, Note_on_c, 12, 41, 0
1, 9495, Note_on_c, 12, 48, 0
1, 9549, Note_on_c, 12, 60, 0
1, 9596, Note_on_c, 12, 56, 0
1, 9600, Note_on_c, 1, 36, 127
1, 9600, Note_on_c, 6, 48, 127
1, 9600, Note_on_c, 9, 35, 118
1, 9600, Note_on_c, 9, 42, 76
1, 9600, Note_on_c, 10, 48, 115
1, 9600, Note_on_c, 12, 48, 124
1, 9600, Note_on_c, 12, 55, 94
1, 9600, Note_on_c, 12, 60, 124
1, 9600, Note_on_c, 12, 64, 124
1, 9610, Note_on_c, 1, 35, 0
1, 9616, Note_on_c, 12, 65, 0
1, 9623, Note_on_c, 6, 47, 0
1, 9623, Note_on_c, 10, 47, 0
1, 9640, Note_on_c, 9, 35, 0
1, 9640, Note_on_c, 9, 42, 0
1, 9840, Note_on_c, 9, 42, 76
1, 9880, Note_on_c, 9, 42, 0
1, 9926, Note_on_c, 12, 48, 0
1, 9930, Note_on_c, 12, 55, 0
1, 9948, Note_on_c, 12, 64, 0
1, 9952, Note_on_c, 12, 60, 0
1, 9979, Note_on_c, 6, 48, 0
1, 9979, Note_on_c, 10, 48, 0
1, 10007, Note_on_c, 1, 36, 0
1, 10080, Note_on_c, 1, 36, 119
1, 10080, Note_on_c, 6, 48, 46
1, 10080, Note_on_c, 6, 55, 102
1, 10080, Note_on_c, 9, 40, 118
1, 10080, Note_on_c, 9, 42, 76
1, 10080, Note_on_c, 12, 48, 110
1, 10120, Note_on_c, 9, 40, 0
1, 10120, Note_on_c, 9, 42, 0
1, 10161, Note_on_c, 12, 48, 0
1, 10316, Note_on_c, 6, 48, 0
1, 10316, Note_on_c, 6, 55, 0
1, 10320, Note_on_c, 6, 48, 87
1, 10320, Note_on_c, 6, 55, 102
1, 10320, Note_on_c, 9, 42, 76
1, 10320, Note_on_c, 12, 48, 127
1, 10320, Note_on_c, 12, 55, 94
1, 10320, Note_on_c, 12, 60, 124
1, 10320, Note_on_c, 12, 64, 124
1, 10360, Note_on_c, 9, 42, 0
1, 10505, Note_on_c, 1, 36, 0
1, 10556, Note_on_c, 6, 48, 0
1, 10556, Note_on_c, 6, 55, 0
1, 10560, Note_on_c, 1, 36, 119
1, 10560, Note_on_c, 6, 48, 114
1, 10560, Note_on_c, 6, 55, 114
1, 10560, Note_on_c, 9, 35, 118
1, 10560, Note_on_c, 9, 42, 76
1, 10600, Note_on_c, 9, 35, 0
1, 10600, Note_on_c, 9, 42, 0
1, 10644, Note_on_c, 1, 36, 0
1, 10650, Note_on_c, 12, 55, 0
1, 10668, Note_on_c, 12, 64, 0
1, 10672, Note_on_c, 12, 60, 0
1, 10796, Note_on_c, 6, 48, 0
1, 10796, Note_on_c, 6, 55, 0
1, 10800, Note_on_c, 1, 36, 124
1, 10800, Note_on_c, 6, 48, 119
1, 10800, Note_on_c, 6, 55, 119
1, 10800, Note_on_c, 9, 35, 118
1, 10800, Note_on_c, 9, 42, 76
1, 10800, Note_on_c, 12, 55, 110
1, 10800, Note_on_c, 12, 60, 114
1, 10800, Note_on_c, 12, 64, 114
1, 10816, Note_on_c, 12, 48, 0
1, 10840, Note_on_c, 9, 35, 0
1, 10840, Note_on_c, 9, 42, 0
1, 11006, Note_on_c, 12, 55, 0
1, 11036, Note_on_c, 6, 48, 0
1, 11036, Note_on_c, 6, 55, 0
1, 11040, Note_on_c, 6, 48, 110
1, 11040, Note_on_c, 6, 55, 124
1, 11040, Note_on_c, 9, 40, 118
1, 11040, Note_on_c, 9, 42, 76
1, 11040, Note_on_c, 12, 48, 127
1, 11058, Note_on_c, 12, 60, 0
1, 11080, Note_on_c, 9, 40, 0
1, 11080, Note_on_c, 9, 42, 0
1, 11090, Note_on_c, 12, 64, 0
1, 11168, Note_on_c, 1, 36, 0
1, 11276, Note_on_c, 6, 48, 0
1, 11276, Note_on_c, 6, 55, 0
1, 11280, Note_on_c, 1, 36, 124
1, 11280, Note_on_c, 6, 48, 127
1, 11280, Note_on_c, 6, 55, 127
1, 11280, Note_on_c, 9, 42, 76
1, 11280, Note_on_c, 12, 60, 91
1, 11280, Note_on_c, 12, 67, 58
1, 11294, Note_on_c, 12, 48, 0
1, 11320, Note_on_c, 9, 42, 0
1, 11327, Note_on_c, 12, 67, 0
1, 11391, Note_on_c, 12, 60, 0
1, 11406, Note_on_c, 1, 36, 0
1, 11451, Note_on_c, 4, 60, 0
1, 11451, Note_on_c, 5, 60, 0
1, 11516, Note_on_c, 6, 48, 0
1, 11516, Note_on_c, 6, 55, 0
1, 11520, Note_on_c, 1, 36, 127
1, 11520, Note_on_c, 6, 48, 127
1, 11520, Note_on_c, 6, 55, 127
1, 11520, Note_on_c, 9, 40, 118
1, 11520, Note_on_c, 12, 48, 127
1, 11520, Note_on_c, 12, 60, 127
1, 11520, Note_on_c, 12, 64, 127
1, 11520, Note_on_c, 12, 67, 127
1, 11535, Note_on_c, 4, 72, 0
1, 11535, Note_on_c, 5, 72, 0
1, 11555, Note_on_c, 7, 72, 127
1, 11560, Note_on_c, 9, 40, 0
1, 11564, Note_on_c, 7, 84, 127
1, 11735, Note_on_c, 12, 60, 0
1, 11748, Note_on_c, 12, 64, 0
1, 11764, Note_on_c, 12, 48, 0
1, 11766, Note_on_c, 12, 67, 0
1, 11783, Note_on_c, 6, 55, 0
1, 11792, Note_on_c, 6, 48, 0
1, 11803, Note_on_c, 7, 84, 0
1, 11818, Note_on_c, 7, 72, 0
1, 11927, Note_on_c, 1, 36, 0
1, 12000, Lyric_t, "COULD "
1, 12000, Note_on_c, 3, 64, 115
1, 12203, Note_on_c, 3, 64, 0
1, 12240, Lyric_t, "YOU "
1, 12240, Note_on_c, 3, 65, 113
1, 12472, Note_on_c, 3, 65, 0
1, 12480, Lyric_t, "BE "
1, 12480, Note_on_c, 3, 67, 115
1, 12692, Note_on_c, 3, 67, 0
1, 12720, Lyric_t, "A "
1, 12720, Note_on_c, 3, 69, 115
1, 12943, Note_on_c, 3, 69, 0
1, 12960, Lyric_t, "TEEN"
1, 12960, Note_on_c, 3, 71, 113
1, 13189, Note_on_c, 3, 71, 0
1, 13200, Lyric_t, "AGE "
1, 13200, Note_on_c, 3, 72, 115
1, 13440, Lyric_t, "I"
1, 13440, Note_on_c, 1, 36, 127
1, 13440, Note_on_c, 3, 69, 115
1, 13440, Note_on_c, 9, 35, 118
1, 13440, Note_on_c, 9, 49, 91
1, 13440, Note_on_c, 11, 48, 124
1, 13440, Note_on_c, 11, 55, 110
1, 13440, Note_on_c, 11, 60, 110
1, 13440, Note_on_c, 12, 48, 110
1, 13440, Note_on_c, 12, 55, 110
1, 13455, Note_on_c, 3, 72, 0
1, 13480, Note_on_c, 9, 35, 0
1, 13480, Note_on_c, 9, 49, 0
1, 13611, Note_on_c, 11, 55, 0
1, 13611, Note_on_c, 11, 60, 0
1, 13660, Note_on_c, 11, 48, 0
1, 13680, Note_on_c, 9, 42, 76
1, 13720, Note_on_c, 9, 42, 0
1, 13779, Note_on_c, 12, 55, 0
1, 13785, Note_on_c, 12, 48, 0
1, 13855, Note_on_c, 3, 69, 0
1, 13920, Lyric_t, "DOL"
1, 13920, Lyric_t, "\015"
1, 13920, Note_on_c, 3, 67, 111
1, 13920, Note_on_c, 9, 39, 83
1, 13920, Note_on_c, 9, 40, 118
1, 13920, Note_on_c, 9, 42, 76
1, 13920, Note_on_c, 11, 55, 45
1, 13920, Note_on_c, 12, 48, 124
1, 13920, Note_on_c, 12, 55, 119
1, 13920, Note_on_c, 12, 60, 119
1, 13920, Note_on_c, 12, 64, 114
1, 13920, Note_on_c, 12, 67, 119
1, 13938, Note_on_c, 11, 55, 0
1, 13960, Note_on_c, 9, 39, 0
1, 13960, Note_on_c, 9, 40, 0
1, 13960, Note_on_c, 9, 42, 0
1, 13967, Note_on_c, 1, 36, 0
1, 14160, Note_on_c, 1, 36, 124
1, 14160, Note_on_c, 9, 39, 83
1, 14160, Note_on_c, 9, 42, 76
1, 14160, Note_on_c, 11, 48, 127
1, 14160, Note_on_c, 11, 55, 124
1, 14160, Note_on_c, 11, 60, 114
1, 14200, Note_on_c, 9, 39, 0
1, 14200, Note_on_c, 9, 42, 0
1, 14216, Note_on_c, 12, 60, 0
1, 14358, Note_on_c, 1, 36, 0
1, 14400, Note_on_c, 1, 36, 106
1, 14400, Note_on_c, 9, 35, 118
1, 14400, Note_on_c, 9, 42, 76
1, 14400, Note_on_c, 12, 60, 94
1, 14440, Note_on_c, 9, 35, 0
1, 14440, Note_on_c, 9, 42, 0
1, 14462, Note_on_c, 11, 55, 0
1, 14463, Note_on_c, 11, 60, 0
1, 14479, Note_on_c, 12, 67, 0
1, 14483, Note_on_c, 12, 64, 0
1, 14520, Note_on_c, 12, 60, 0
1, 14640, Note_on_c, 9, 35, 118
1, 14640, Note_on_c, 9, 42, 76
1, 14640, Note_on_c, 11, 52, 53
1, 14640, Note_on_c, 12, 60, 119
1, 14640, Note_on_c, 12, 64, 119
1, 14640, Note_on_c, 12, 67, 124
1, 14643, Note_on_c, 3, 67, 0
1, 14668, Note_on_c, 11, 52, 0
1, 14680, Note_on_c, 9, 35, 0
1, 14680, Note_on_c, 9, 42, 0
1, 14734, Note_on_c, 11, 48, 0
1, 14740, Note_on_c, 12, 48, 0
1, 14746, Note_on_c, 12, 55, 0
1, 14880, Note_on_c, 9, 39, 83
1, 14880, Note_on_c, 9, 40, 118
1, 14880, Note_on_c, 9, 42, 76
1, 14880, Note_on_c, 11, 52, 119
1, 14880, Note_on_c, 11, 55, 119
1, 14880, Note_on_c, 11, 60, 124
1, 14880, Note_on_c, 12, 48, 99
1, 14880, Note_on_c, 12, 55, 81
1, 14920, Note_on_c, 9, 39, 0
1, 14920, Note_on_c, 9, 40, 0
1, 14920, Note_on_c, 9, 42, 0
1, 14960, Note_on_c, 12, 60, 0
1, 14962, Note_on_c, 11, 55, 0
1, 15055, Note_on_c, 11, 60, 0
1, 15057, Note_on_c, 1, 36, 0
1, 15069, Note_on_c, 11, 52, 0
1, 15120, Note_on_c, 1, 31, 91
1, 15120, Note_on_c, 9, 42, 76
1, 15120, Note_on_c, 11, 55, 26
1, 15120, Note_on_c, 12, 60, 110
1, 15160, Note_on_c, 9, 42, 0
1, 15171, Note_on_c, 11, 55, 0
1, 15201, Note_on_c, 12, 48, 0
1, 15202, Note_on_c, 12, 55, 0
1, 15343, Note_on_c, 1, 31, 0
1, 15360, Note_on_c, 1, 36, 124
1, 15360, Note_on_c, 9, 35, 118
1, 15360, Note_on_c, 9, 42, 76
1, 15360, Note_on_c, 11, 48, 114
1, 15360, Note_on_c, 12, 48, 119
1, 15360, Note_on_c, 12, 55, 124
1, 15400, Note_on_c, 9, 35, 0
1, 15400, Note_on_c, 9, 42, 0
1, 15600, Note_on_c, 9, 42, 76
1, 15601, Note_on_c, 11, 48, 0
1, 15640, Note_on_c, 9, 42, 0
1, 15731, Note_on_c, 12, 55, 0
1, 15738, Note_on_c, 12, 48, 0
1, 15748, Note_on_c, 12, 60, 0
1, 15767, Note_on_c, 12, 64, 0
1, 15774, Note_on_c, 12, 67, 0
1, 15837, Note_on_c, 1, 36, 0
1, 15840, Lyric_t, "COULD "
1, 15840, Note_on_c, 3, 64, 113
1, 15840, Note_on_c, 9, 39, 83
1, 15840, Note_on_c, 9, 40, 118
1, 15840, Note_on_c, 9, 42, 76
1, 15840, Note_on_c, 12, 48, 124
1, 15840, Note_on_c, 12, 55, 110
1, 15840, Note_on_c, 12, 60, 110
1, 15840, Note_on_c, 12, 64, 114
1, 15840, Note_on_c, 12, 67, 110
1, 15880, Note_on_c, 9, 39, 0
1, 15880, Note_on_c, 9, 40, 0
1, 15880, Note_on_c, 9, 42, 0
1, 16058, Note_on_c, 3, 64, 0
1, 16080, Lyric_t, "YOU "
1, 16080, Note_on_c, 1, 36, 124
1, 16080, Note_on_c, 3, 65, 112
1, 16080, Note_on_c, 9, 39, 83
1, 16080, Note_on_c, 9, 42, 76
1, 16080, Note_on_c, 11, 52, 114
1, 16080, Note_on_c, 11, 55, 119
1, 16080, Note_on_c, 11, 60, 124
1, 16120, Note_on_c, 9, 39, 0
1, 16120, Note_on_c, 9, 42, 0
1, 16155, Note_on_c, 12, 60, 0
1, 16301, Note_on_c, 3, 65, 0
1, 16320, Lyric_t, "BE "
1, 16320, Note_on_c, 3, 67, 113
1, 16320, Note_on_c, 9, 35, 118
1, 16320, Note_on_c, 9, 42, 76
1, 16320, Note_on_c, 12, 60, 81
1, 16360, Note_on_c, 9, 35, 0
1, 16360, Note_on_c, 9, 42, 0
1, 16383, Note_on_c, 11, 52, 0
1, 16405, Note_on_c, 11, 55, 0
1, 16435, Note_on_c, 12, 67, 0
1, 16439, Note_on_c, 12, 64, 0
1, 16445, Note_on_c, 11, 60, 0
1, 16462, Note_on_c, 12, 60, 0
1, 16474, Note_on_c, 1, 36, 0
1, 16515, Note_on_c, 3, 67, 0
1, 16560, Lyric_t, "A "
1, 16560, Note_on_c, 1, 31, 114
1, 16560, Note_on_c, 3, 69, 115
1, 16560, Note_on_c, 9, 35, 118
1, 16560, Note_on_c, 9, 42, 76
1, 16560, Note_on_c, 11, 48, 106
1, 16560, Note_on_c, 12, 60, 110
1, 16560, Note_on_c, 12, 64, 119
1, 16560, Note_on_c, 12, 67, 119
1, 16600, Note_on_c, 9, 35, 0
1, 16600, Note_on_c, 9, 42, 0
1, 16621, Note_on_c, 12, 55, 0
1, 16629, Note_on_c, 12, 48, 0
1, 16679, Note_on_c, 11, 48, 0
1, 16762, Note_on_c, 1, 31, 0
1, 16763, Note_on_c, 3, 69, 0
1, 16800, Lyric_t, "MO"
1, 16800, Note_on_c, 1, 36, 119
1, 16800, Note_on_c, 3, 71, 110
1, 16800, Note_on_c, 9, 39, 83
1, 16800, Note_on_c, 9, 40, 118
1, 16800, Note_on_c, 9, 42, 76
1, 16800, Note_on_c, 11, 52, 127
1, 16800, Note_on_c, 11, 55, 127
1, 16800, Note_on_c, 11, 60, 127
1, 16800, Note_on_c, 12, 48, 119
1, 16800, Note_on_c, 12, 55, 119
1, 16840, Note_on_c, 9, 39, 0
1, 16840, Note_on_c, 9, 40, 0
1, 16840, Note_on_c, 9, 42, 0
1, 16860, Note_on_c, 12, 60, 0
1, 16993, Note_on_c, 1, 36, 0
1, 17021, Note_on_c, 11, 55, 0
1, 17028, Note_on_c, 11, 52, 0
1, 17029, Note_on_c, 3, 71, 0
1, 17040, Lyric_t, "VIE "
1, 17040, Note_on_c, 1, 37, 127
1, 17040, Note_on_c, 3, 72, 112
1, 17040, Note_on_c, 9, 42, 76
1, 17040, Note_on_c, 11, 48, 114
1, 17040, Note_on_c, 12, 60, 114
1, 17051, Note_on_c, 11, 60, 0
1, 17080, Note_on_c, 9, 42, 0
1, 17149, Note_on_c, 11, 48, 0
1, 17203, Note_on_c, 12, 64, 0
1, 17245, Note_on_c, 1, 37, 0
1, 17246, Note_on_c, 12, 48, 0
1, 17271, Note_on_c, 12, 55, 0
1, 17276, Note_on_c, 3, 72, 0
1, 17280, Lyric_t, "STAR"
1, 17280, Lyric_t, "\015"
1, 17280, Note_on_c, 1, 38, 119
1, 17280, Note_on_c, 3, 69, 112
1, 17280, Note_on_c, 9, 35, 118
1, 17280, Note_on_c, 9, 42, 76
1, 17280, Note_on_c, 11, 50, 124
1, 17280, Note_on_c, 12, 50, 127
1, 17307, Note_on_c, 12, 67, 0
1, 17312, Note_on_c, 12, 60, 0
1, 17320, Note_on_c, 9, 35, 0
1, 17320, Note_on_c, 9, 42, 0
1, 17510, Note_on_c, 11, 50, 0
1, 17520, Note_on_c, 9, 42, 76
1, 17560, Note_on_c, 9, 42, 0
1, 17641, Note_on_c, 12, 50, 0
1, 17760, Note_on_c, 9, 39, 83
1, 17760, Note_on_c, 9, 40, 118
1, 17760, Note_on_c, 9, 42, 76
1, 17760, Note_on_c, 12, 50, 106
1, 17760, Note_on_c, 12, 57, 106
1, 17760, Note_on_c, 12, 60, 124
1, 17760, Note_on_c, 12, 66, 120
1, 17791, Note_on_c, 1, 38, 0
1, 17800, Note_on_c, 9, 39, 0
1, 17800, Note_on_c, 9, 40, 0
1, 17800, Note_on_c, 9, 42, 0
1, 18000, Note_on_c, 1, 38, 124
1, 18000, Note_on_c, 9, 39, 83
1, 18000, Note_on_c, 9, 42, 76
1, 18000, Note_on_c, 11, 54, 120
1, 18000, Note_on_c, 11, 57, 119
1, 18000, Note_on_c, 11, 60, 127
1, 18040, Note_on_c, 9, 39, 0
1, 18040, Note_on_c, 9, 42, 0
1, 18044, Note_on_c, 12, 57, 0
1, 18091, Note_on_c, 11, 54, 0
1, 18105, Note_on_c, 11, 57, 0
1, 18121, Note_on_c, 11, 60, 0
1, 18184, Note_on_c, 12, 60, 0
1, 18240, Note_on_c, 9, 35, 118
1, 18240, Note_on_c, 9, 42, 76
1, 18240, Note_on_c, 12, 57, 67
1, 18240, Note_on_c, 12, 60, 31
1, 18280, Note_on_c, 9, 35, 0
1, 18280, Note_on_c, 9, 42, 0
1, 18363, Note_on_c, 12, 60, 0
1, 18379, Note_on_c, 12, 66, 0
1, 18381, Note_on_c, 12, 57, 0
1, 18480, Note_on_c, 9, 35, 118
1, 18480, Note_on_c, 9, 42, 76
1, 18480, Note_on_c, 12, 57, 106
1, 18480, Note_on_c, 12, 60, 119
1, 18480, Note_on_c, 12, 66, 120
1, 18493, Note_on_c, 3, 69, 0
1, 18520, Note_on_c, 9, 35, 0
1, 18520, Note_on_c, 9, 42, 0
1, 18566, Note_on_c, 12, 50, 0
1, 18720, Note_on_c, 9, 39, 83
1, 18720, Note_on_c, 9, 40, 118
1, 18720, Note_on_c, 9, 42, 76
1, 18720, Note_on_c, 11, 54, 101
1, 18720, Note_on_c, 11, 57, 124
1, 18720, Note_on_c, 11, 60, 124
1, 18720, Note_on_c, 12, 50, 91
1, 18760, Note_on_c, 9, 39, 0
1, 18760, Note_on_c, 9, 40, 0
1, 18760, Note_on_c, 9, 42, 0
1, 18817, Note_on_c, 12, 57, 0
1, 18898, Note_on_c, 1, 38, 0
1, 18899, Note_on_c, 12, 60, 0
1, 18901, Note_on_c, 12, 66, 0
1, 18922, Note_on_c, 11, 54, 0
1, 18958, Note_on_c, 12, 50, 0
1, 18960, Note_on_c, 1, 33, 110
1, 18960, Note_on_c, 9, 42, 76
1, 18960, Note_on_c, 11, 54, 87
1, 18960, Note_on_c, 12, 57, 94
1, 18960, Note_on_c, 12, 60, 91
1, 18960, Note_on_c, 12, 66, 90
1, 19000, Note_on_c, 9, 42, 0
1, 19066, Note_on_c, 11, 54, 0
1, 19107, Note_on_c, 11, 57, 0
1, 19107, Note_on_c, 11, 60, 0
1, 19185, Note_on_c, 1, 33, 0
1, 19200, Note_on_c, 1, 38, 106
1, 19200, Note_on_c, 9, 35, 118
1, 19200, Note_on_c, 9, 42, 76
1, 19200, Note_on_c, 11, 50, 114
1, 19200, Note_on_c, 12, 50, 124
1, 19240, Note_on_c, 9, 35, 0
1, 19240, Note_on_c, 9, 42, 0
1, 19440, Note_on_c, 9, 42, 76
1, 19475, Note_on_c, 11, 50, 0
1, 19480, Note_on_c, 9, 42, 0
1, 19552, Note_on_c, 12, 50, 0
1, 19565, Note_on_c, 12, 57, 0
1, 19567, Note_on_c, 12, 66, 0
1, 19583, Note_on_c, 12, 60, 0
1, 19680, Note_on_c, 9, 39, 83
1, 19680, Note_on_c, 9, 40, 118
1, 19680, Note_on_c, 9, 42, 76
1, 19680, Note_on_c, 12, 50, 119
1, 19680, Note_on_c, 12, 57, 102
1, 19680, Note_on_c, 12, 60, 119
1, 19680, Note_on_c, 12, 66, 115
1, 19720, Note_on_c, 9, 39, 0
1, 19720, Note_on_c, 9, 40, 0
1, 19720, Note_on_c, 9, 42, 0
1, 19758, Note_on_c, 1, 38, 0
1, 19920, Note_on_c, 1, 38, 119
1, 19920, Note_on_c, 9, 39, 83
1, 19920, Note_on_c, 9, 42, 76
1, 19920, Note_on_c, 11, 54, 120
1, 19920, Note_on_c, 11, 57, 106
1, 19920, Note_on_c, 11, 60, 114
1, 19960, Note_on_c, 9, 39, 0
1, 19960, Note_on_c, 9, 42, 0
1, 20022, Note_on_c, 11, 54, 0
1, 20057, Note_on_c, 12, 57, 0
1, 20062, Note_on_c, 11, 57, 0
1, 20078, Note_on_c, 11, 60, 0
1, 20160, Note_on_c, 9, 35, 118
1, 20160, Note_on_c, 9, 42, 76
1, 20160, Note_on_c, 12, 57, 72
1, 20200, Note_on_c, 9, 35, 0
1, 20200, Note_on_c, 9, 42, 0
1, 20275, Note_on_c, 1, 38, 0
1, 20277, Note_on_c, 12, 57, 0
1, 20334, Note_on_c, 12, 66, 0
1, 20342, Note_on_c, 12, 60, 0
1, 20400, Lyric_t, "WHEN "
1, 20400, Note_on_c, 1, 38, 110
1, 20400, Note_on_c, 3, 69, 115
1, 20400, Note_on_c, 9, 35, 118
1, 20400, Note_on_c, 9, 42, 76
1, 20400, Note_on_c, 11, 50, 106
1, 20400, Note_on_c, 12, 57, 110
1, 20400, Note_on_c, 12, 60, 110
1, 20400, Note_on_c, 12, 66, 101
1, 20440, Note_on_c, 9, 35, 0
1, 20440, Note_on_c, 9, 42, 0
1, 20537, Note_on_c, 12, 50, 0
1, 20608, Note_on_c, 1, 38, 0
1, 20616, Note_on_c, 3, 69, 0
1, 20633, Note_on_c, 11, 50, 0
1, 20640, Lyric_t, "I "
1, 20640, Note_on_c, 1, 33, 106
1, 20640, Note_on_c, 3, 72, 112
1, 20640, Note_on_c, 9, 39, 83
1, 20640, Note_on_c, 9, 40, 118
1, 20640, Note_on_c, 9, 42, 76
1, 20640, Note_on_c, 11, 54, 120
1, 20640, Note_on_c, 11, 57, 114
1, 20640, Note_on_c, 11, 60, 119
1, 20640, Note_on_c, 12, 50, 114
1, 20680, Note_on_c, 9, 39, 0
1, 20680, Note_on_c, 9, 40, 0
1, 20680, Note_on_c, 9, 42, 0
1, 20729, Note_on_c, 12, 57, 0
1, 20768, Note_on_c, 1, 33, 0
1, 20802, Note_on_c, 11, 54, 0
1, 20845, Note_on_c, 3, 72, 0
1, 20868, Note_on_c, 11, 57, 0
1, 20880, Lyric_t, "TURN "
1, 20880, Note_on_c, 1, 31, 110
1, 20880, Note_on_c, 3, 75, 115
1, 20880, Note_on_c, 9, 42, 76
1, 20880, Note_on_c, 11, 50, 102
1, 20880, Note_on_c, 12, 57, 106
1, 20891, Note_on_c, 11, 60, 0
1, 20920, Note_on_c, 9, 42, 0
1, 20964, Note_on_c, 11, 50, 0
1, 21049, Note_on_c, 12, 57, 0
1, 21069, Note_on_c, 12, 60, 0
1, 21074, Note_on_c, 1, 31, 0
1, 21075, Note_on_c, 12, 66, 0
1, 21087, Note_on_c, 12, 50, 0
1, 21120, Note_on_c, 1, 29, 124
1, 21120, Note_on_c, 9, 35, 118
1, 21120, Note_on_c, 9, 42, 76
1, 21120, Note_on_c, 11, 41, 127
1, 21120, Note_on_c, 12, 41, 102
1, 21120, Note_on_c, 12, 53, 110
1, 21160, Note_on_c, 9, 35, 0
1, 21160, Note_on_c, 9, 42, 0
1, 21251, Note_on_c, 3, 75, 0
1, 21360, Lyric_t, "ON "
1, 21360, Note_on_c, 3, 75, 115
1, 21360, Note_on_c, 9, 42, 76
1, 21400, Note_on_c, 9, 42, 0
1, 21486, Note_on_c, 3, 75, 0
1, 21506, Note_on_c, 12, 41, 0
1, 21532, Note_on_c, 12, 53, 0
1, 21598, Note_on_c, 11, 41, 0
1, 21600, Lyric_t, "MY "
1, 21600, Note_on_c, 3, 74, 113
1, 21600, Note_on_c, 9, 39, 83
1, 21600, Note_on_c, 9, 40, 118
1, 21600, Note_on_c, 9, 42, 76
1, 21600, Note_on_c, 11, 53, 114
1, 21600, Note_on_c, 11, 57, 119
1, 21600, Note_on_c, 11, 60, 124
1, 21600, Note_on_c, 12, 41, 114
1, 21600, Note_on_c, 12, 53, 78
1, 21600, Note_on_c, 12, 57, 106
1, 21600, Note_on_c, 12, 60, 119
1, 21600, Note_on_c, 12, 65, 119
1, 21636, Note_on_c, 1, 29, 0
1, 21640, Note_on_c, 9, 39, 0
1, 21640, Note_on_c, 9, 40, 0
1, 21640, Note_on_c, 9, 42, 0
1, 21698, Note_on_c, 11, 53, 0
1, 21700, Note_on_c, 11, 57, 0
1, 21725, Note_on_c, 11, 60, 0
1, 21806, Note_on_c, 3, 74, 0
1, 21840, Lyric_t, "T"
1, 21840, Note_on_c, 1, 29, 106
1, 21840, Note_on_c, 3, 72, 115
1, 21840, Note_on_c, 9, 39, 83
1, 21840, Note_on_c, 9, 42, 76
1, 21840, Note_on_c, 11, 57, 45
1, 21840, Note_on_c, 11, 60, 50
1, 21874, Note_on_c, 11, 57, 0
1, 21880, Note_on_c, 9, 39, 0
1, 21880, Note_on_c, 9, 42, 0
1, 21901, Note_on_c, 11, 60, 0
1, 21917, Note_on_c, 12, 57, 0
1, 21923, Note_on_c, 3, 72, 0
1, 22080, Lyric_t, "V"
1, 22080, Lyric_t, "\015"
1, 22080, Note_on_c, 3, 72, 113
1, 22080, Note_on_c, 9, 35, 118
1, 22080, Note_on_c, 9, 42, 76
1, 22080, Note_on_c, 12, 57, 84
1, 22120, Note_on_c, 9, 35, 0
1, 22120, Note_on_c, 9, 42, 0
1, 22185, Note_on_c, 12, 60, 0
1, 22189, Note_on_c, 12, 65, 0
1, 22213, Note_on_c, 12, 57, 0
1, 22316, Note_on_c, 3, 72, 0
1, 22320, Note_on_c, 1, 36, 102
1, 22320, Note_on_c, 9, 35, 118
1, 22320, Note_on_c, 9, 42, 76
1, 22320, Note_on_c, 11, 53, 110
1, 22320, Note_on_c, 11, 57, 114
1, 22320, Note_on_c, 11, 60, 124
1, 22320, Note_on_c, 12, 57, 114
1, 22320, Note_on_c, 12, 60, 119
1, 22320, Note_on_c, 12, 65, 119
1, 22360, Note_on_c, 9, 35, 0
1, 22360, Note_on_c, 9, 42, 0
1, 22392, Note_on_c, 12, 41, 0
1, 22419, Note_on_c, 1, 29, 0
1, 22441, Note_on_c, 12, 53, 0
1, 22468, Note_on_c, 1, 36, 0
1, 22560, Lyric_t, "WILL "
1, 22560, Note_on_c, 1, 41, 87
1, 22560, Note_on_c, 3, 69, 111
1, 22560, Note_on_c, 9, 39, 83
1, 22560, Note_on_c, 9, 40, 118
1, 22560, Note_on_c, 9, 42, 76
1, 22560, Note_on_c, 11, 41, 106
1, 22560, Note_on_c, 12, 41, 114
1, 22560, Note_on_c, 12, 53, 110
1, 22569, Note_on_c, 11, 53, 0
1, 22600, Note_on_c, 9, 39, 0
1, 22600, Note_on_c, 9, 40, 0
1, 22600, Note_on_c, 9, 42, 0
1, 22616, Note_on_c, 12, 57, 0
1, 22628, Note_on_c, 1, 41, 0
1, 22716, Note_on_c, 11, 57, 0
1, 22737, Note_on_c, 12, 60, 0
1, 22780, Note_on_c, 3, 69, 0
1, 22789, Note_on_c, 11, 41, 0
1, 22800, Lyric_t, "YOU "
1, 22800, Note_on_c, 1, 41, 114
1, 22800, Note_on_c, 3, 72, 115
1, 22800, Note_on_c, 9, 42, 76
1, 22800, Note_on_c, 11, 53, 67
1, 22800, Note_on_c, 12, 57, 94
1, 22800, Note_on_c, 12, 60, 54
1, 22840, Note_on_c, 9, 42, 0
1, 22902, Note_on_c, 12, 57, 0
1, 22920, Note_on_c, 12, 41, 0
1, 22922, Note_on_c, 11, 60, 0
1, 22923, Note_on_c, 11, 53, 0
1, 22927, Note_on_c, 12, 60, 0
1, 22955, Note_on_c, 12, 53, 0
1, 22957, Note_on_c, 3, 72, 0
1, 22997, Note_on_c, 12, 65, 0
1, 23040, Lyric_t, "SMILE "
1, 23040, Note_on_c, 3, 75, 115
1, 23040, Note_on_c, 9, 35, 118
1, 23040, Note_on_c, 9, 42, 76
1, 23040, Note_on_c, 11, 53, 87
1, 23040, Note_on_c, 11, 56, 109
1, 23040, Note_on_c, 11, 60, 102
1, 23040, Note_on_c, 12, 41, 114
1, 23040, Note_on_c, 12, 53, 99
1, 23040, Note_on_c, 12, 56, 97
1, 23040, Note_on_c, 12, 60, 106
1, 23040, Note_on_c, 12, 65, 91
1, 23080, Note_on_c, 9, 35, 0
1, 23080, Note_on_c, 9, 42, 0
1, 23114, Note_on_c, 11, 56, 0
1, 23123, Note_on_c, 3, 75, 0
1, 23175, Note_on_c, 11, 60, 0
1, 23210, Note_on_c, 11, 53, 0
1, 23280, Lyric_t, "AND "
1, 23280, Note_on_c, 3, 75, 115
1, 23280, Note_on_c, 9, 42, 76
1, 23320, Note_on_c, 9, 42, 0
1, 23394, Note_on_c, 12, 60, 0
1, 23395, Note_on_c, 12, 56, 0
1, 23399, Note_on_c, 12, 41, 0
1, 23411, Note_on_c, 12, 53, 0
1, 23421, Note_on_c, 12, 65, 0
1, 23489, Note_on_c, 3, 75, 0
1, 23520, Lyric_t, "WAVE "
1, 23520, Note_on_c, 3, 74, 112
1, 23520, Note_on_c, 9, 39, 83
1, 23520, Note_on_c, 9, 40, 118
1, 23520, Note_on_c, 9, 42, 76
1, 23520, Note_on_c, 12, 41, 114
1, 23520, Note_on_c, 12, 53, 94
1, 23520, Note_on_c, 12, 56, 115
1, 23520, Note_on_c, 12, 60, 119
1, 23520, Note_on_c, 12, 65, 114
1, 23524, Note_on_c, 1, 41, 0
1, 23560, Note_on_c, 9, 39, 0
1, 23560, Note_on_c, 9, 40, 0
1, 23560, Note_on_c, 9, 42, 0
1, 23727, Note_on_c, 3, 74, 0
1, 23760, Lyric_t, "AT "
1, 23760, Note_on_c, 1, 41, 114
1, 23760, Note_on_c, 3, 72, 110
1, 23760, Note_on_c, 9, 39, 83
1, 23760, Note_on_c, 9, 42, 76
1, 23760, Note_on_c, 11, 53, 102
1, 23760, Note_on_c, 11, 56, 127
1, 23760, Note_on_c, 11, 60, 124
1, 23800, Note_on_c, 9, 39, 0
1, 23800, Note_on_c, 9, 42, 0
1, 23834, Note_on_c, 1, 41, 0
1, 23846, Note_on_c, 3, 72, 0
1, 23852, Note_on_c, 12, 56, 0
1, 23941, Note_on_c, 12, 60, 0
1, 24000, Lyric_t, "ME"
1, 24000, Lyric_t, "\015"
1, 24000, Note_on_c, 1, 41, 119
1, 24000, Note_on_c, 3, 72, 113
1, 24000, Note_on_c, 9, 35, 118
1, 24000, Note_on_c, 9, 42, 76
1, 24000, Note_on_c, 12, 56, 101
1, 24031, Note_on_c, 11, 53, 0
1, 24040, Note_on_c, 9, 35, 0
1, 24040, Note_on_c, 9, 42, 0
1, 24085, Note_on_c, 11, 56, 0
1, 24092, Note_on_c, 12, 65, 0
1, 24112, Note_on_c, 12, 56, 0
1, 24158, Note_on_c, 11, 60, 0
1, 24185, Note_on_c, 1, 41, 0
1, 24240, Note_on_c, 1, 36, 119
1, 24240, Note_on_c, 9, 35, 118
1, 24240, Note_on_c, 9, 42, 76
1, 24240, Note_on_c, 11, 53, 87
1, 24240, Note_on_c, 12, 56, 120
1, 24240, Note_on_c, 12, 60, 127
1, 24240, Note_on_c, 12, 65, 114
1, 24277, Note_on_c, 12, 41, 0
1, 24280, Note_on_c, 9, 35, 0
1, 24280, Note_on_c, 9, 42, 0
1, 24304, Note_on_c, 12, 53, 0
1, 24318, Note_on_c, 11, 53, 0
1, 24389, Note_on_c, 3, 72, 0
1, 24466, Note_on_c, 1, 36, 0
1, 24480, Lyric_t, "TEL"
1, 24480, Note_on_c, 1, 29, 119
1, 24480, Note_on_c, 3, 69, 112
1, 24480, Note_on_c, 9, 39, 83
1, 24480, Note_on_c, 9, 40, 118
1, 24480, Note_on_c, 9, 42, 76
1, 24480, Note_on_c, 11, 53, 94
1, 24480, Note_on_c, 11, 56, 127
1, 24480, Note_on_c, 11, 60, 114
1, 24480, Note_on_c, 12, 41, 114
1, 24480, Note_on_c, 12, 53, 124
1, 24520, Note_on_c, 9, 39, 0
1, 24520, Note_on_c, 9, 40, 0
1, 24520, Note_on_c, 9, 42, 0
1, 24582, Note_on_c, 11, 53, 0
1, 24597, Note_on_c, 12, 56, 0
1, 24673, Note_on_c, 12, 60, 0
1, 24677, Note_on_c, 3, 69, 0
1, 24720, Lyric_t, "LING "
1, 24720, Note_on_c, 3, 72, 115
1, 24720, Note_on_c, 9, 42, 76
1, 24720, Note_on_c, 11, 53, 60
1, 24720, Note_on_c, 12, 56, 105
1, 24720, Note_on_c, 12, 60, 43
1, 24733, Note_on_c, 11, 56, 0
1, 24760, Note_on_c, 9, 42, 0
1, 24796, Note_on_c, 12, 60, 0
1, 24811, Note_on_c, 11, 60, 0
1, 24814, Note_on_c, 12, 56, 0
1, 24829, Note_on_c, 1, 29, 0
1, 24846, Note_on_c, 11, 53, 0
1, 24870, Note_on_c, 12, 41, 0
1, 24897, Note_on_c, 3, 72, 0
1, 24902, Note_on_c, 12, 53, 0
1, 24916, Note_on_c, 12, 65, 0
1, 24960, Lyric_t, "O"
1, 24960, Note_on_c, 1, 36, 127
1, 24960, Note_on_c, 3, 76, 115
1, 24960, Note_on_c, 9, 35, 118
1, 24960, Note_on_c, 9, 42, 76
1, 24960, Note_on_c, 11, 48, 119
1, 24960, Note_on_c, 12, 48, 110
1, 24960, Note_on_c, 12, 55, 110
1, 25000, Note_on_c, 9, 35, 0
1, 25000, Note_on_c, 9, 42, 0
1, 25048, Note_on_c, 3, 76, 0
1, 25196, Note_on_c, 11, 48, 0
1, 25200, Lyric_t, "PRAH "
1, 25200, Note_on_c, 3, 76, 115
1, 25200, Note_on_c, 9, 42, 76
1, 25240, Note_on_c, 9, 42, 0
1, 25299, Note_on_c, 12, 55, 0
1, 25305, Note_on_c, 12, 48, 0
1, 25402, Note_on_c, 3, 76, 0
1, 25440, Lyric_t, "WHO "
1, 25440, Note_on_c, 3, 74, 112
1, 25440, Note_on_c, 9, 39, 83
1, 25440, Note_on_c, 9, 40, 118
1, 25440, Note_on_c, 9, 42, 76
1, 25440, Note_on_c, 11, 52, 119
1, 25440, Note_on_c, 11, 55, 127
1, 25440, Note_on_c, 11, 60, 127
1, 25440, Note_on_c, 12, 48, 124
1, 25440, Note_on_c, 12, 55, 119
1, 25440, Note_on_c, 12, 60, 119
1, 25440, Note_on_c, 12, 64, 114
1, 25440, Note_on_c, 12, 67, 119
1, 25444, Note_on_c, 1, 36, 0
1, 25480, Note_on_c, 9, 39, 0
1, 25480, Note_on_c, 9, 40, 0
1, 25480, Note_on_c, 9, 42, 0
1, 25577, Note_on_c, 11, 52, 0
1, 25656, Note_on_c, 3, 74, 0
1, 25680, Lyric_t, "YOU "
1, 25680, Note_on_c, 1, 36, 127
1, 25680, Note_on_c, 3, 72, 115
1, 25680, Note_on_c, 9, 39, 83
1, 25680, Note_on_c, 9, 42, 76
1, 25680, Note_on_c, 11, 52, 64
1, 25720, Note_on_c, 9, 39, 0
1, 25720, Note_on_c, 9, 42, 0
1, 25736, Note_on_c, 12, 60, 0
1, 25753, Note_on_c, 11, 52, 0
1, 25755, Note_on_c, 11, 55, 0
1, 25767, Note_on_c, 11, 60, 0
1, 25839, Note_on_c, 1, 36, 0
1, 25920, Lyric_t, "A"
1, 25920, Note_on_c, 1, 36, 124
1, 25920, Note_on_c, 3, 72, 115
1, 25920, Note_on_c, 9, 35, 118
1, 25920, Note_on_c, 9, 42, 76
1, 25920, Note_on_c, 12, 60, 94
1, 25924, Note_on_c, 3, 72, 0
1, 25960, Note_on_c, 9, 35, 0
1, 25960, Note_on_c, 9, 42, 0
1, 25999, Note_on_c, 12, 67, 0
1, 26003, Note_on_c, 12, 64, 0
1, 26020, Note_on_c, 1, 36, 0
1, 26040, Note_on_c, 12, 60, 0
1, 26160, Note_on_c, 1, 36, 119
1, 26160, Note_on_c, 9, 35, 118
1, 26160, Note_on_c, 9, 42, 76
1, 26160, Note_on_c, 11, 52, 114
1, 26160, Note_on_c, 11, 55, 124
1, 26160, Note_on_c, 11, 60, 127
1, 26160, Note_on_c, 12, 60, 119
1, 26160, Note_on_c, 12, 64, 119
1, 26160, Note_on_c, 12, 67, 124
1, 26200, Note_on_c, 9, 35, 0
1, 26200, Note_on_c, 9, 42, 0
1, 26260, Note_on_c, 12, 48, 0
1, 26266, Note_on_c, 12, 55, 0
1, 26365, Note_on_c, 11, 52, 0
1, 26396, Note_on_c, 3, 72, 0
1, 26400, Note_on_c, 1, 31, 114
1, 26400, Note_on_c, 9, 39, 83
1, 26400, Note_on_c, 9, 40, 118
1, 26400, Note_on_c, 9, 42, 76
1, 26400, Note_on_c, 11, 48, 127
1, 26400, Note_on_c, 12, 48, 99
1, 26400, Note_on_c, 12, 55, 81
1, 26409, Note_on_c, 1, 36, 0
1, 26432, Lyric_t, "RE"
1, 26432, Lyric_t, "\015"
1, 26432, Note_on_c, 3, 69, 115
1, 26440, Note_on_c, 9, 39, 0
1, 26440, Note_on_c, 9, 40, 0
1, 26440, Note_on_c, 9, 42, 0
1, 26480, Note_on_c, 12, 60, 0
1, 26567, Note_on_c, 11, 55, 0
1, 26595, Note_on_c, 1, 31, 0
1, 26611, Note_on_c, 11, 60, 0
1, 26617, Note_on_c, 11, 48, 0
1, 26640, Note_on_c, 1, 33, 119
1, 26640, Note_on_c, 9, 42, 76
1, 26640, Note_on_c, 11, 52, 110
1, 26640, Note_on_c, 12, 60, 110
1, 26678, Note_on_c, 3, 69, 0
1, 26680, Note_on_c, 9, 42, 0
1, 26721, Note_on_c, 12, 48, 0
1, 26722, Note_on_c, 12, 55, 0
1, 26744, Note_on_c, 11, 52, 0
1, 26788, Note_on_c, 12, 60, 0
1, 26807, Note_on_c, 12, 64, 0
1, 26814, Note_on_c, 12, 67, 0
1, 26847, Note_on_c, 1, 33, 0
1, 26880, Note_on_c, 1, 36, 127
1, 26880, Note_on_c, 9, 40, 118
1, 26880, Note_on_c, 9, 42, 76
1, 26880, Note_on_c, 11, 48, 127
1, 26880, Note_on_c, 11, 52, 124
1, 26880, Note_on_c, 11, 55, 127
1, 26880, Note_on_c, 11, 60, 127
1, 26880, Note_on_c, 12, 48, 119
1, 26880, Note_on_c, 12, 55, 124
1, 26880, Note_on_c, 12, 60, 124
1, 26880, Note_on_c, 12, 64, 124
1, 26920, Note_on_c, 9, 40, 0
1, 26920, Note_on_c, 9, 42, 0
1, 27088, Note_on_c, 11, 52, 0
1, 27106, Note_on_c, 11, 55, 0
1, 27109, Note_on_c, 11, 60, 0
1, 27113, Note_on_c, 11, 48, 0
1, 27143, Note_on_c, 1, 36, 0
1, 27251, Note_on_c, 12, 55, 0
1, 27251, Note_on_c, 12, 60, 0
1, 27251, Note_on_c, 12, 64, 0
1, 27258, Note_on_c, 12, 48, 0
1, 27360, Lyric_t, "SO "
1, 27360, Note_on_c, 3, 64, 115
1, 27563, Note_on_c, 3, 64, 0
1, 27600, Lyric_t, "YOU "
1, 27600, Note_on_c, 3, 65, 113
1, 27832, Note_on_c, 3, 65, 0
1, 27840, Lyric_t, "WANT "
1, 27840, Note_on_c, 3, 67, 115
1, 28052, Note_on_c, 3, 67, 0
1, 28080, Lyric_t, "TO "
1, 28080, Note_on_c, 3, 69, 115
1, 28303, Note_on_c, 3, 69, 0
1, 28320, Lyric_t, "BE "
1, 28320, Note_on_c, 3, 71, 113
1, 28549, Note_on_c, 3, 71, 0
1, 28560, Lyric_t, "A "
1, 28560, Note_on_c, 3, 72, 115
1, 28800, Lyric_t, "ROCK"
1, 28800, Note_on_c, 1, 36, 127
1, 28800, Note_on_c, 3, 69, 115
1, 28800, Note_on_c, 9, 35, 118
1, 28800, Note_on_c, 9, 49, 91
1, 28800, Note_on_c, 11, 48, 124
1, 28800, Note_on_c, 11, 55, 110
1, 28800, Note_on_c, 11, 60, 110
1, 28800, Note_on_c, 12, 48, 110
1, 28800, Note_on_c, 12, 55, 110
1, 28815, Note_on_c, 3, 72, 0
1, 28840, Note_on_c, 9, 35, 0
1, 28840, Note_on_c, 9, 49, 0
1, 28971, Note_on_c, 11, 55, 0
1, 28971, Note_on_c, 11, 60, 0
1, 29020, Note_on_c, 11, 48, 0
1, 29040, Note_on_c, 9, 42, 76
1, 29080, Note_on_c, 9, 42, 0
1, 29139, Note_on_c, 12, 55, 0
1, 29145, Note_on_c, 12, 48, 0
1, 29215, Note_on_c, 3, 69, 0
1, 29280, Lyric_t, "STAR"
1, 29280, Lyric_t, "\015"
1, 29280, Note_on_c, 3, 67, 111
1, 29280, Note_on_c, 9, 39, 83
1, 29280, Note_on_c, 9, 40, 118
1, 29280, Note_on_c, 9, 42, 76
1, 29280, Note_on_c, 11, 55, 45
1, 29280, Note_on_c, 12, 48, 124
1, 29280, Note_on_c, 12, 55, 119
1, 29280, Note_on_c, 12, 60, 119
1, 29280, Note_on_c, 12, 64, 114
1, 29280, Note_on_c, 12, 67, 119
1, 29280, Note_on_c, 13, 64, 99
1, 29280, Note_on_c, 13, 67, 106
1, 29280, Note_on_c, 14, 60, 119
1, 29280, Note_on_c, 14, 64, 110
1, 29280, Note_on_c, 14, 67, 114
1, 29298, Note_on_c, 11, 55, 0
1, 29320, Note_on_c, 9, 39, 0
1, 29320, Note_on_c, 9, 40, 0
1, 29320, Note_on_c, 9, 42, 0
1, 29327, Note_on_c, 1, 36, 0
1, 29369, Note_on_c, 13, 64, 0
1, 29372, Note_on_c, 13, 67, 0
1, 29515, Note_on_c, 14, 60, 0
1, 29519, Note_on_c, 14, 64, 0
1, 29520, Note_on_c, 1, 36, 124
1, 29520, Note_on_c, 9, 39, 83
1, 29520, Note_on_c, 9, 42, 76
1, 29520, Note_on_c, 11, 48, 127
1, 29520, Note_on_c, 11, 55, 124
1, 29520, Note_on_c, 11, 60, 114
1, 29535, Note_on_c, 14, 67, 0
1, 29560, Note_on_c, 9, 39, 0
1, 29560, Note_on_c, 9, 42, 0
1, 29576, Note_on_c, 12, 60, 0
1, 29718, Note_on_c, 1, 36, 0
1, 29760, Note_on_c, 1, 36, 106
1, 29760, Note_on_c, 9, 35, 118
1, 29760, Note_on_c, 9, 42, 76
1, 29760, Note_on_c, 12, 60, 94
1, 29800, Note_on_c, 9, 35, 0
1, 29800, Note_on_c, 9, 42, 0
1, 29822, Note_on_c, 11, 55, 0
1, 29823, Note_on_c, 11, 60, 0
1, 29839, Note_on_c, 12, 67, 0
1, 29843, Note_on_c, 12, 64, 0
1, 29880, Note_on_c, 12, 60, 0
1, 30000, Note_on_c, 9, 35, 118
1, 30000, Note_on_c, 9, 42, 76
1, 30000, Note_on_c, 11, 52, 53
1, 30000, Note_on_c, 12, 60, 119
1, 30000, Note_on_c, 12, 64, 119
1, 30000, Note_on_c, 12, 67, 124
1, 30000, Note_on_c, 13, 63, 109
1, 30000, Note_on_c, 13, 66, 115
1, 30003, Note_on_c, 3, 67, 0
1, 30028, Note_on_c, 11, 52, 0
1, 30040, Note_on_c, 9, 35, 0
1, 30040, Note_on_c, 9, 42, 0
1, 30094, Note_on_c, 11, 48, 0
1, 30100, Note_on_c, 12, 48, 0
1, 30106, Note_on_c, 12, 55, 0
1, 30223, Note_on_c, 13, 63, 0
1, 30229, Note_on_c, 13, 66, 0
1, 30240, Note_on_c, 9, 39, 83
1, 30240, Note_on_c, 9, 40, 118
1, 30240, Note_on_c, 9, 42, 76
1, 30240, Note_on_c, 11, 52, 119
1, 30240, Note_on_c, 11, 55, 119
1, 30240, Note_on_c, 11, 60, 124
1, 30240, Note_on_c, 12, 48, 99
1, 30240, Note_on_c, 12, 55, 81
1, 30240, Note_on_c, 13, 64, 67
1, 30240, Note_on_c, 13, 67, 75
1, 30240, Note_on_c, 14, 60, 124
1, 30240, Note_on_c, 14, 64, 119
1, 30240, Note_on_c, 14, 67, 124
1, 30280, Note_on_c, 9, 39, 0
1, 30280, Note_on_c, 9, 40, 0
1, 30280, Note_on_c, 9, 42, 0
1, 30320, Note_on_c, 12, 60, 0
1, 30322, Note_on_c, 11, 55, 0
1, 30412, Note_on_c, 14, 60, 0
1, 30415, Note_on_c, 11, 60, 0
1, 30417, Note_on_c, 1, 36, 0
1, 30427, Note_on_c, 14, 64, 0
1, 30429, Note_on_c, 11, 52, 0
1, 30450, Note_on_c, 14, 67, 0
1, 30480, Note_on_c, 1, 31, 91
1, 30480, Note_on_c, 9, 42, 76
1, 30480, Note_on_c, 11, 55, 26
1, 30480, Note_on_c, 12, 60, 110
1, 30520, Note_on_c, 9, 42, 0
1, 30531, Note_on_c, 11, 55, 0
1, 30561, Note_on_c, 12, 48, 0
1, 30562, Note_on_c, 12, 55, 0
1, 30703, Note_on_c, 1, 31, 0
1, 30716, Note_on_c, 13, 64, 0
1, 30716, Note_on_c, 13, 67, 0
1, 30720, Note_on_c, 1, 36, 124
1, 30720, Note_on_c, 9, 35, 118
1, 30720, Note_on_c, 9, 42, 76
1, 30720, Note_on_c, 11, 48, 114
1, 30720, Note_on_c, 12, 48, 119
1, 30720, Note_on_c, 12, 55, 124
1, 30720, Note_on_c, 13, 60, 99
1, 30720, Note_on_c, 13, 64, 94
1, 30760, Note_on_c, 9, 35, 0
1, 30760, Note_on_c, 9, 42, 0
1, 30832, Note_on_c, 13, 64, 0
1, 30848, Note_on_c, 13, 60, 0
1, 30960, Lyric_t, "WITH "
1, 30960, Note_on_c, 3, 64, 113
1, 30960, Note_on_c, 9, 42, 76
1, 30961, Note_on_c, 11, 48, 0
1, 31000, Note_on_c, 9, 42, 0
1, 31091, Note_on_c, 12, 55, 0
1, 31098, Note_on_c, 12, 48, 0
1, 31108, Note_on_c, 12, 60, 0
1, 31127, Note_on_c, 12, 64, 0
1, 31134, Note_on_c, 12, 67, 0
1, 31178, Note_on_c, 3, 64, 0
1, 31197, Note_on_c, 1, 36, 0
1, 31200, Lyric_t, "BLUE "
1, 31200, Note_on_c, 3, 64, 113
1, 31200, Note_on_c, 9, 39, 83
1, 31200, Note_on_c, 9, 40, 118
1, 31200, Note_on_c, 9, 42, 76
1, 31200, Note_on_c, 12, 48, 124
1, 31200, Note_on_c, 12, 55, 110
1, 31200, Note_on_c, 12, 60, 110
1, 31200, Note_on_c, 12, 64, 114
1, 31200, Note_on_c, 12, 67, 110
1, 31200, Note_on_c, 14, 60, 127
1, 31200, Note_on_c, 14, 64, 124
1, 31200, Note_on_c, 14, 67, 124
1, 31240, Note_on_c, 9, 39, 0
1, 31240, Note_on_c, 9, 40, 0
1, 31240, Note_on_c, 9, 42, 0
1, 31295, Note_on_c, 14, 60, 0
1, 31306, Note_on_c, 14, 64, 0
1, 31352, Note_on_c, 14, 67, 0
1, 31418, Note_on_c, 3, 64, 0
1, 31440, Lyric_t, "EYED "
1, 31440, Note_on_c, 1, 36, 124
1, 31440, Note_on_c, 3, 65, 112
1, 31440, Note_on_c, 9, 39, 83
1, 31440, Note_on_c, 9, 42, 76
1, 31440, Note_on_c, 11, 52, 114
1, 31440, Note_on_c, 11, 55, 119
1, 31440, Note_on_c, 11, 60, 124
1, 31440, Note_on_c, 13, 60, 119
1, 31440, Note_on_c, 13, 64, 119
1, 31480, Note_on_c, 9, 39, 0
1, 31480, Note_on_c, 9, 42, 0
1, 31515, Note_on_c, 12, 60, 0
1, 31526, Note_on_c, 13, 64, 0
1, 31557, Note_on_c, 13, 60, 0
1, 31661, Note_on_c, 3, 65, 0
1, 31680, Lyric_t, "BUN"
1, 31680, Note_on_c, 3, 67, 113
1, 31680, Note_on_c, 9, 35, 118
1, 31680, Note_on_c, 9, 42, 76
1, 31680, Note_on_c, 12, 60, 81
1, 31720, Note_on_c, 9, 35, 0
1, 31720, Note_on_c, 9, 42, 0
1, 31743, Note_on_c, 11, 52, 0
1, 31765, Note_on_c, 11, 55, 0
1, 31795, Note_on_c, 12, 67, 0
1, 31799, Note_on_c, 12, 64, 0
1, 31805, Note_on_c, 11, 60, 0
1, 31822, Note_on_c, 12, 60, 0
1, 31834, Note_on_c, 1, 36, 0
1, 31875, Note_on_c, 3, 67, 0
1, 31920, Lyric_t, "NIES "
1, 31920, Note_on_c, 1, 31, 114
1, 31920, Note_on_c, 3, 69, 115
1, 31920, Note_on_c, 9, 35, 118
1, 31920, Note_on_c, 9, 42, 76
1, 31920, Note_on_c, 11, 48, 106
1, 31920, Note_on_c, 12, 60, 110
1, 31920, Note_on_c, 12, 64, 119
1, 31920, Note_on_c, 12, 67, 119
1, 31960, Note_on_c, 9, 35, 0
1, 31960, Note_on_c, 9, 42, 0
1, 31981, Note_on_c, 12, 55, 0
1, 31989, Note_on_c, 12, 48, 0
1, 32039, Note_on_c, 11, 48, 0
1, 32122, Note_on_c, 1, 31, 0
1, 32123, Note_on_c, 3, 69, 0
1, 32160, Lyric_t, "IN "
1, 32160, Note_on_c, 1, 36, 119
1, 32160, Note_on_c, 3, 71, 110
1, 32160, Note_on_c, 9, 39, 83
1, 32160, Note_on_c, 9, 40, 118
1, 32160, Note_on_c, 9, 42, 76
1, 32160, Note_on_c, 11, 52, 127
1, 32160, Note_on_c, 11, 55, 127
1, 32160, Note_on_c, 11, 60, 127
1, 32160, Note_on_c, 12, 48, 119
1, 32160, Note_on_c, 12, 55, 119
1, 32160, Note_on_c, 14, 60, 119
1, 32160, Note_on_c, 14, 64, 119
1, 32160, Note_on_c, 14, 67, 119
1, 32200, Note_on_c, 9, 39, 0
1, 32200, Note_on_c, 9, 40, 0
1, 32200, Note_on_c, 9, 42, 0
1, 32220, Note_on_c, 12, 60, 0
1, 32267, Note_on_c, 14, 60, 0
1, 32272, Note_on_c, 14, 64, 0
1, 32309, Note_on_c, 14, 67, 0
1, 32353, Note_on_c, 1, 36, 0
1, 32381, Note_on_c, 11, 55, 0
1, 32388, Note_on_c, 11, 52, 0
1, 32389, Note_on_c, 3, 71, 0
1, 32400, Lyric_t, "YOUR "
1, 32400, Note_on_c, 1, 37, 127
1, 32400, Note_on_c, 3, 72, 112
1, 32400, Note_on_c, 9, 42, 76
1, 32400, Note_on_c, 11, 48, 114
1, 32400, Note_on_c, 12, 60, 114
1, 32411, Note_on_c, 11, 60, 0
1, 32440, Note_on_c, 9, 42, 0
1, 32509, Note_on_c, 11, 48, 0
1, 32563, Note_on_c, 12, 64, 0
1, 32605, Note_on_c, 1, 37, 0
1, 32606, Note_on_c, 12, 48, 0
1, 32631, Note_on_c, 12, 55, 0
1, 32636, Note_on_c, 3, 72, 0
1, 32640, Lyric_t, "BED"
1, 32640, Lyric_t, "\015"
1, 32640, Note_on_c, 1, 38, 119
1, 32640, Note_on_c, 3, 69, 112
1, 32640, Note_on_c, 9, 35, 118
1, 32640, Note_on_c, 9, 42, 76
1, 32640, Note_on_c, 11, 50, 124
1, 32640, Note_on_c, 12, 50, 127
1, 32667, Note_on_c, 12, 67, 0
1, 32672, Note_on_c, 12, 60, 0
1, 32680, Note_on_c, 9, 35, 0
1, 32680, Note_on_c, 9, 42, 0
1, 32870, Note_on_c, 11, 50, 0
1, 32880, Note_on_c, 9, 42, 76
1, 32920, Note_on_c, 9, 42, 0
1, 33001, Note_on_c, 12, 50, 0
1, 33120, Note_on_c, 9, 39, 83
1, 33120, Note_on_c, 9, 40, 118
1, 33120, Note_on_c, 9, 42, 76
1, 33120, Note_on_c, 12, 50, 106
1, 33120, Note_on_c, 12, 57, 106
1, 33120, Note_on_c, 12, 60, 124
1, 33120, Note_on_c, 12, 66, 120
1, 33120, Note_on_c, 13, 60, 124
1, 33120, Note_on_c, 13, 64, 114
1, 33120, Note_on_c, 14, 60, 124
1, 33120, Note_on_c, 14, 66, 127
1, 33120, Note_on_c, 14, 69, 114
1, 33151, Note_on_c, 1, 38, 0
1, 33160, Note_on_c, 9, 39, 0
1, 33160, Note_on_c, 9, 40, 0
1, 33160, Note_on_c, 9, 42, 0
1, 33192, Note_on_c, 14, 66, 0
1, 33199, Note_on_c, 13, 64, 0
1, 33201, Note_on_c, 13, 60, 0
1, 33214, Note_on_c, 14, 60, 0
1, 33227, Note_on_c, 14, 69, 0
1, 33360, Note_on_c, 1, 38, 124
1, 33360, Note_on_c, 9, 39, 83
1, 33360, Note_on_c, 9, 42, 76
1, 33360, Note_on_c, 11, 54, 120
1, 33360, Note_on_c, 11, 57, 119
1, 33360, Note_on_c, 11, 60, 127
1, 33373, Note_on_c, 3, 69, 0
1, 33400, Note_on_c, 9, 39, 0
1, 33400, Note_on_c, 9, 42, 0
1, 33404, Note_on_c, 12, 57, 0
1, 33451, Note_on_c, 11, 54, 0
1, 33465, Note_on_c, 11, 57, 0
1, 33481, Note_on_c, 11, 60, 0
1, 33544, Note_on_c, 12, 60, 0
1, 33600, Note_on_c, 9, 35, 118
1, 33600, Note_on_c, 9, 42, 76
1, 33600, Note_on_c, 12, 57, 67
1, 33600, Note_on_c, 12, 60, 31
1, 33640, Note_on_c, 9, 35, 0
1, 33640, Note_on_c, 9, 42, 0
1, 33723, Note_on_c, 12, 60, 0
1, 33739, Note_on_c, 12, 66, 0
1, 33741, Note_on_c, 12, 57, 0
1, 33840, Note_on_c, 9, 35, 118
1, 33840, Note_on_c, 9, 42, 76
1, 33840, Note_on_c, 12, 57, 106
1, 33840, Note_on_c, 12, 60, 119
1, 33840, Note_on_c, 12, 66, 120
1, 33840, Note_on_c, 13, 60, 99
1, 33840, Note_on_c, 13, 64, 91
1, 33880, Note_on_c, 9, 35, 0
1, 33880, Note_on_c, 9, 42, 0
1, 33909, Note_on_c, 13, 64, 0
1, 33913, Note_on_c, 13, 60, 0
1, 33926, Note_on_c, 12, 50, 0
1, 34080, Note_on_c, 9, 39, 83
1, 34080, Note_on_c, 9, 40, 118
1, 34080, Note_on_c, 9, 42, 76
1, 34080, Note_on_c, 11, 54, 101
1, 34080, Note_on_c, 11, 57, 124
1, 34080, Note_on_c, 11, 60, 124
1, 34080, Note_on_c, 12, 50, 91
1, 34080, Note_on_c, 14, 60, 119
1, 34080, Note_on_c, 14, 66, 127
1, 34080, Note_on_c, 14, 69, 114
1, 34120, Note_on_c, 9, 39, 0
1, 34120, Note_on_c, 9, 40, 0
1, 34120, Note_on_c, 9, 42, 0
1, 34173, Note_on_c, 14, 60, 0
1, 34177, Note_on_c, 12, 57, 0
1, 34183, Note_on_c, 14, 66, 0
1, 34197, Note_on_c, 14, 69, 0
1, 34258, Note_on_c, 1, 38, 0
1, 34259, Note_on_c, 12, 60, 0
1, 34261, Note_on_c, 12, 66, 0
1, 34282, Note_on_c, 11, 54, 0
1, 34318, Note_on_c, 12, 50, 0
1, 34320, Note_on_c, 1, 33, 110
1, 34320, Note_on_c, 9, 42, 76
1, 34320, Note_on_c, 11, 54, 87
1, 34320, Note_on_c, 12, 57, 94
1, 34320, Note_on_c, 12, 60, 91
1, 34320, Note_on_c, 12, 66, 90
1, 34320, Note_on_c, 13, 59, 106
1, 34320, Note_on_c, 13, 63, 120
1, 34360, Note_on_c, 9, 42, 0
1, 34426, Note_on_c, 11, 54, 0
1, 34467, Note_on_c, 11, 57, 0
1, 34467, Note_on_c, 11, 60, 0
1, 34525, Note_on_c, 13, 59, 0
1, 34545, Note_on_c, 1, 33, 0
1, 34560, Note_on_c, 1, 38, 106
1, 34560, Note_on_c, 9, 35, 118
1, 34560, Note_on_c, 9, 42, 76
1, 34560, Note_on_c, 11, 50, 114
1, 34560, Note_on_c, 12, 50, 124
1, 34560, Note_on_c, 13, 60, 81
1, 34560, Note_on_c, 13, 64, 81
1, 34600, Note_on_c, 9, 35, 0
1, 34600, Note_on_c, 9, 42, 0
1, 34622, Note_on_c, 13, 63, 0
1, 34800, Note_on_c, 9, 42, 76
1, 34835, Note_on_c, 11, 50, 0
1, 34840, Note_on_c, 9, 42, 0
1, 34870, Note_on_c, 13, 60, 0
1, 34889, Note_on_c, 13, 64, 0
1, 34912, Note_on_c, 12, 50, 0
1, 34925, Note_on_c, 12, 57, 0
1, 34927, Note_on_c, 12, 66, 0
1, 34943, Note_on_c, 12, 60, 0
1, 35040, Note_on_c, 9, 39, 83
1, 35040, Note_on_c, 9, 40, 118
1, 35040, Note_on_c, 9, 42, 76
1, 35040, Note_on_c, 12, 50, 119
1, 35040, Note_on_c, 12, 57, 102
1, 35040, Note_on_c, 12, 60, 119
1, 35040, Note_on_c, 12, 66, 115
1, 35040, Note_on_c, 14, 60, 110
1, 35040, Note_on_c, 14, 66, 127
1, 35040, Note_on_c, 14, 69, 114
1, 35080, Note_on_c, 9, 39, 0
1, 35080, Note_on_c, 9, 40, 0
1, 35080, Note_on_c, 9, 42, 0
1, 35118, Note_on_c, 1, 38, 0
1, 35139, Note_on_c, 14, 66, 0
1, 35147, Note_on_c, 14, 60, 0
1, 35150, Note_on_c, 14, 69, 0
1, 35280, Note_on_c, 1, 38, 119
1, 35280, Note_on_c, 9, 39, 83
1, 35280, Note_on_c, 9, 42, 76
1, 35280, Note_on_c, 11, 54, 120
1, 35280, Note_on_c, 11, 57, 106
1, 35280, Note_on_c, 11, 60, 114
1, 35280, Note_on_c, 13, 60, 102
1, 35280, Note_on_c, 13, 64, 110
1, 35320, Note_on_c, 9, 39, 0
1, 35320, Note_on_c, 9, 42, 0
1, 35382, Note_on_c, 11, 54, 0
1, 35417, Note_on_c, 12, 57, 0
1, 35422, Note_on_c, 11, 57, 0
1, 35438, Note_on_c, 11, 60, 0
1, 35520, Note_on_c, 9, 35, 118
1, 35520, Note_on_c, 9, 42, 76
1, 35520, Note_on_c, 12, 57, 72
1, 35560, Note_on_c, 9, 35, 0
1, 35560, Note_on_c, 9, 42, 0
1, 35635, Note_on_c, 1, 38, 0
1, 35637, Note_on_c, 12, 57, 0
1, 35694, Note_on_c, 12, 66, 0
1, 35702, Note_on_c, 12, 60, 0
1, 35760, Lyric_t, "WELL "
1, 35760, Note_on_c, 1, 38, 110
1, 35760, Note_on_c, 3, 69, 115
1, 35760, Note_on_c, 9, 35, 118
1, 35760, Note_on_c, 9, 42, 76
1, 35760, Note_on_c, 11, 50, 106
1, 35760, Note_on_c, 12, 57, 110
1, 35760, Note_on_c, 12, 60, 110
1, 35760, Note_on_c, 12, 66, 101
1, 35800, Note_on_c, 9, 35, 0
1, 35800, Note_on_c, 9, 42, 0
1, 35815, Note_on_c, 13, 60, 0
1, 35836, Note_on_c, 13, 64, 0
1, 35897, Note_on_c, 12, 50, 0
1, 35968, Note_on_c, 1, 38, 0
1, 35976, Note_on_c, 3, 69, 0
1, 35993, Note_on_c, 11, 50, 0
1, 36000, Lyric_t, "RE"
1, 36000, Note_on_c, 1, 33, 106
1, 36000, Note_on_c, 3, 72, 112
1, 36000, Note_on_c, 9, 39, 83
1, 36000, Note_on_c, 9, 40, 118
1, 36000, Note_on_c, 9, 42, 76
1, 36000, Note_on_c, 11, 54, 120
1, 36000, Note_on_c, 11, 57, 114
1, 36000, Note_on_c, 11, 60, 119
1, 36000, Note_on_c, 12, 50, 114
1, 36000, Note_on_c, 13, 60, 102
1, 36000, Note_on_c, 13, 64, 102
1, 36000, Note_on_c, 14, 60, 110
1, 36000, Note_on_c, 14, 66, 127
1, 36000, Note_on_c, 14, 69, 114
1, 36040, Note_on_c, 9, 39, 0
1, 36040, Note_on_c, 9, 40, 0
1, 36040, Note_on_c, 9, 42, 0
1, 36089, Note_on_c, 12, 57, 0
1, 36096, Note_on_c, 14, 60, 0
1, 36098, Note_on_c, 13, 60, 0
1, 36107, Note_on_c, 14, 66, 0
1, 36107, Note_on_c, 14, 69, 0
1, 36128, Note_on_c, 1, 33, 0
1, 36133, Note_on_c, 13, 64, 0
1, 36162, Note_on_c, 11, 54, 0
1, 36205, Note_on_c, 3, 72, 0
1, 36228, Note_on_c, 11, 57, 0
1, 36240, Lyric_t, "MEM"
1, 36240, Note_on_c, 1, 31, 110
1, 36240, Note_on_c, 3, 75, 115
1, 36240, Note_on_c, 9, 42, 76
1, 36240, Note_on_c, 11, 50, 102
1, 36240, Note_on_c, 12, 57, 106
1, 36251, Note_on_c, 11, 60, 0
1, 36280, Note_on_c, 9, 42, 0
1, 36324, Note_on_c, 11, 50, 0
1, 36409, Note_on_c, 12, 57, 0
1, 36429, Note_on_c, 12, 60, 0
1, 36434, Note_on_c, 1, 31, 0
1, 36435, Note_on_c, 12, 66, 0
1, 36447, Note_on_c, 12, 50, 0
1, 36480, Note_on_c, 1, 29, 124
1, 36480, Note_on_c, 9, 35, 118
1, 36480, Note_on_c, 9, 42, 76
1, 36480, Note_on_c, 11, 41, 127
1, 36480, Note_on_c, 12, 41, 102
1, 36480, Note_on_c, 12, 53, 110
1, 36520, Note_on_c, 9, 35, 0
1, 36520, Note_on_c, 9, 42, 0
1, 36611, Note_on_c, 3, 75, 0
1, 36720, Lyric_t, "BER "
1, 36720, Note_on_c, 3, 75, 115
1, 36720, Note_on_c, 9, 42, 76
1, 36760, Note_on_c, 9, 42, 0
1, 36846, Note_on_c, 3, 75, 0
1, 36866, Note_on_c, 12, 41, 0
1, 36892, Note_on_c, 12, 53, 0
1, 36958, Note_on_c, 11, 41, 0
1, 36960, Lyric_t, "WHEN "
1, 36960, Note_on_c, 3, 74, 113
1, 36960, Note_on_c, 9, 39, 83
1, 36960, Note_on_c, 9, 40, 118
1, 36960, Note_on_c, 9, 42, 76
1, 36960, Note_on_c, 11, 53, 114
1, 36960, Note_on_c, 11, 57, 119
1, 36960, Note_on_c, 11, 60, 124
1, 36960, Note_on_c, 12, 41, 114
1, 36960, Note_on_c, 12, 53, 78
1, 36960, Note_on_c, 12, 57, 106
1, 36960, Note_on_c, 12, 60, 119
1, 36960, Note_on_c, 12, 65, 119
1, 36960, Note_on_c, 13, 57, 81
1, 36960, Note_on_c, 13, 60, 102
1, 36960, Note_on_c, 13, 65, 106
1, 36960, Note_on_c, 14, 60, 114
1, 36960, Note_on_c, 14, 65, 114
1, 36960, Note_on_c, 14, 69, 119
1, 36996, Note_on_c, 1, 29, 0
1, 37000, Note_on_c, 9, 39, 0
1, 37000, Note_on_c, 9, 40, 0
1, 37000, Note_on_c, 9, 42, 0
1, 37041, Note_on_c, 14, 65, 0
1, 37045, Note_on_c, 14, 60, 0
1, 37058, Note_on_c, 11, 53, 0
1, 37060, Note_on_c, 11, 57, 0
1, 37074, Note_on_c, 14, 69, 0
1, 37085, Note_on_c, 11, 60, 0
1, 37166, Note_on_c, 3, 74, 0
1, 37200, Lyric_t, "YOU'RE "
1, 37200, Note_on_c, 1, 29, 106
1, 37200, Note_on_c, 3, 72, 115
1, 37200, Note_on_c, 9, 39, 83
1, 37200, Note_on_c, 9, 42, 76
1, 37200, Note_on_c, 11, 57, 45
1, 37200, Note_on_c, 11, 60, 50
1, 37234, Note_on_c, 11, 57, 0
1, 37240, Note_on_c, 9, 39, 0
1, 37240, Note_on_c, 9, 42, 0
1, 37261, Note_on_c, 11, 60, 0
1, 37277, Note_on_c, 12, 57, 0
1, 37283, Note_on_c, 3, 72, 0
1, 37440, Lyric_t, "RICH"
1, 37440, Lyric_t, "\015"
1, 37440, Note_on_c, 3, 72, 113
1, 37440, Note_on_c, 9, 35, 118
1, 37440, Note_on_c, 9, 42, 76
1, 37440, Note_on_c, 12, 57, 84
1, 37480, Note_on_c, 9, 35, 0
1, 37480, Note_on_c, 9, 42, 0
1, 37545, Note_on_c, 12, 60, 0
1, 37549, Note_on_c, 12, 65, 0
1, 37573, Note_on_c, 12, 57, 0
1, 37676, Note_on_c, 3, 72, 0
1, 37680, Note_on_c, 1, 36, 102
1, 37680, Note_on_c, 9, 35, 118
1, 37680, Note_on_c, 9, 42, 76
1, 37680, Note_on_c, 11, 53, 110
1, 37680, Note_on_c, 11, 57, 114
1, 37680, Note_on_c, 11, 60, 124
1, 37680, Note_on_c, 12, 57, 114
1, 37680, Note_on_c, 12, 60, 119
1, 37680, Note_on_c, 12, 65, 119
1, 37720, Note_on_c, 9, 35, 0
1, 37720, Note_on_c, 9, 42, 0
1, 37752, Note_on_c, 12, 41, 0
1, 37768, Note_on_c, 13, 57, 0
1, 37779, Note_on_c, 1, 29, 0
1, 37801, Note_on_c, 12, 53, 0
1, 37807, Note_on_c, 13, 60, 0
1, 37818, Note_on_c, 13, 65, 0
1, 37828, Note_on_c, 1, 36, 0
1, 37920, Lyric_t, "THAT "
1, 37920, Note_on_c, 1, 41, 87
1, 37920, Note_on_c, 3, 69, 111
1, 37920, Note_on_c, 9, 39, 83
1, 37920, Note_on_c, 9, 40, 118
1, 37920, Note_on_c, 9, 42, 76
1, 37920, Note_on_c, 11, 41, 106
1, 37920, Note_on_c, 12, 41, 114
1, 37920, Note_on_c, 12, 53, 110
1, 37920, Note_on_c, 13, 57, 72
1, 37920, Note_on_c, 13, 60, 87
1, 37920, Note_on_c, 13, 65, 75
1, 37920, Note_on_c, 14, 60, 114
1, 37920, Note_on_c, 14, 65, 119
1, 37920, Note_on_c, 14, 69, 114
1, 37929, Note_on_c, 11, 53, 0
1, 37960, Note_on_c, 9, 39, 0
1, 37960, Note_on_c, 9, 40, 0
1, 37960, Note_on_c, 9, 42, 0
1, 37976, Note_on_c, 12, 57, 0
1, 37988, Note_on_c, 1, 41, 0
1, 38001, Note_on_c, 14, 65, 0
1, 38006, Note_on_c, 14, 60, 0
1, 38014, Note_on_c, 13, 57, 0
1, 38058, Note_on_c, 14, 69, 0
1, 38076, Note_on_c, 11, 57, 0
1, 38097, Note_on_c, 12, 60, 0
1, 38140, Note_on_c, 3, 69, 0
1, 38149, Note_on_c, 11, 41, 0
1, 38160, Lyric_t, "YOU "
1, 38160, Note_on_c, 1, 41, 114
1, 38160, Note_on_c, 3, 72, 115
1, 38160, Note_on_c, 9, 42, 76
1, 38160, Note_on_c, 11, 53, 67
1, 38160, Note_on_c, 12, 57, 94
1, 38160, Note_on_c, 12, 60, 54
1, 38160, Note_on_c, 13, 57, 81
1, 38166, Note_on_c, 13, 65, 0
1, 38174, Note_on_c, 13, 60, 0
1, 38200, Note_on_c, 9, 42, 0
1, 38262, Note_on_c, 12, 57, 0
1, 38275, Note_on_c, 13, 57, 0
1, 38280, Note_on_c, 12, 41, 0
1, 38282, Note_on_c, 11, 60, 0
1, 38283, Note_on_c, 11, 53, 0
1, 38287, Note_on_c, 12, 60, 0
1, 38315, Note_on_c, 12, 53, 0
1, 38317, Note_on_c, 3, 72, 0
1, 38357, Note_on_c, 12, 65, 0
1, 38400, Lyric_t, "SOLD "
1, 38400, Note_on_c, 3, 75, 115
1, 38400, Note_on_c, 9, 35, 118
1, 38400, Note_on_c, 9, 42, 76
1, 38400, Note_on_c, 11, 53, 87
1, 38400, Note_on_c, 11, 56, 109
1, 38400, Note_on_c, 11, 60, 102
1, 38400, Note_on_c, 12, 41, 114
1, 38400, Note_on_c, 12, 53, 99
1, 38400, Note_on_c, 12, 56, 97
1, 38400, Note_on_c, 12, 60, 106
1, 38400, Note_on_c, 12, 65, 91
1, 38400, Note_on_c, 13, 53, 65
1, 38400, Note_on_c, 13, 56, 85
1, 38400, Note_on_c, 13, 60, 91
1, 38440, Note_on_c, 9, 35, 0
1, 38440, Note_on_c, 9, 42, 0
1, 38474, Note_on_c, 11, 56, 0
1, 38483, Note_on_c, 3, 75, 0
1, 38535, Note_on_c, 11, 60, 0
1, 38570, Note_on_c, 11, 53, 0
1, 38640, Lyric_t, "YOUR"
1, 38640, Note_on_c, 3, 75, 115
1, 38640, Note_on_c, 9, 42, 76
1, 38680, Note_on_c, 9, 42, 0
1, 38754, Note_on_c, 12, 60, 0
1, 38755, Note_on_c, 12, 56, 0
1, 38759, Note_on_c, 12, 41, 0
1, 38771, Note_on_c, 12, 53, 0
1, 38781, Note_on_c, 12, 65, 0
1, 38849, Note_on_c, 3, 75, 0
1, 38880, Lyric_t, "SELF "
1, 38880, Note_on_c, 3, 74, 112
1, 38880, Note_on_c, 9, 39, 83
1, 38880, Note_on_c, 9, 40, 118
1, 38880, Note_on_c, 9, 42, 76
1, 38880, Note_on_c, 12, 41, 114
1, 38880, Note_on_c, 12, 53, 94
1, 38880, Note_on_c, 12, 56, 115
1, 38880, Note_on_c, 12, 60, 119
1, 38880, Note_on_c, 12, 65, 114
1, 38880, Note_on_c, 14, 60, 110
1, 38880, Note_on_c, 14, 65, 119
1, 38880, Note_on_c, 14, 68, 127
1, 38884, Note_on_c, 1, 41, 0
1, 38920, Note_on_c, 9, 39, 0
1, 38920, Note_on_c, 9, 40, 0
1, 38920, Note_on_c, 9, 42, 0
1, 38953, Note_on_c, 14, 68, 0
1, 38969, Note_on_c, 14, 60, 0
1, 38969, Note_on_c, 14, 65, 0
1, 39087, Note_on_c, 3, 74, 0
1, 39120, Lyric_t, "FOR "
1, 39120, Note_on_c, 1, 41, 114
1, 39120, Note_on_c, 3, 72, 110
1, 39120, Note_on_c, 9, 39, 83
1, 39120, Note_on_c, 9, 42, 76
1, 39120, Note_on_c, 11, 53, 102
1, 39120, Note_on_c, 11, 56, 127
1, 39120, Note_on_c, 11, 60, 124
1, 39160, Note_on_c, 9, 39, 0
1, 39160, Note_on_c, 9, 42, 0
1, 39194, Note_on_c, 1, 41, 0
1, 39206, Note_on_c, 3, 72, 0
1, 39212, Note_on_c, 12, 56, 0
1, 39301, Note_on_c, 12, 60, 0
1, 39360, Lyric_t, "THIS"
1, 39360, Lyric_t, "\015"
1, 39360, Note_on_c, 1, 41, 119
1, 39360, Note_on_c, 3, 72, 113
1, 39360, Note_on_c, 9, 35, 118
1, 39360, Note_on_c, 9, 42, 76
1, 39360, Note_on_c, 12, 56, 101
1, 39391, Note_on_c, 11, 53, 0
1, 39400, Note_on_c, 9, 35, 0
1, 39400, Note_on_c, 9, 42, 0
1, 39445, Note_on_c, 11, 56, 0
1, 39452, Note_on_c, 12, 65, 0
1, 39472, Note_on_c, 12, 56, 0
1, 39518, Note_on_c, 11, 60, 0
1, 39545, Note_on_c, 1, 41, 0
1, 39600, Note_on_c, 1, 36, 119
1, 39600, Note_on_c, 9, 35, 118
1, 39600, Note_on_c, 9, 42, 76
1, 39600, Note_on_c, 11, 53, 87
1, 39600, Note_on_c, 12, 56, 120
1, 39600, Note_on_c, 12, 60, 127
1, 39600, Note_on_c, 12, 65, 114
1, 39637, Note_on_c, 12, 41, 0
1, 39640, Note_on_c, 9, 35, 0
1, 39640, Note_on_c, 9, 42, 0
1, 39664, Note_on_c, 12, 53, 0
1, 39678, Note_on_c, 11, 53, 0
1, 39749, Note_on_c, 3, 72, 0
1, 39826, Note_on_c, 1, 36, 0
1, 39840, Lyric_t, "YOU'LL "
1, 39840, Note_on_c, 1, 29, 119
1, 39840, Note_on_c, 3, 69, 112
1, 39840, Note_on_c, 9, 39, 83
1, 39840, Note_on_c, 9, 40, 118
1, 39840, Note_on_c, 9, 42, 76
1, 39840, Note_on_c, 11, 53, 94
1, 39840, Note_on_c, 11, 56, 127
1, 39840, Note_on_c, 11, 60, 114
1, 39840, Note_on_c, 12, 41, 114
1, 39840, Note_on_c, 12, 53, 124
1, 39840, Note_on_c, 14, 60, 106
1, 39840, Note_on_c, 14, 65, 114
1, 39840, Note_on_c, 14, 68, 127
1, 39880, Note_on_c, 9, 39, 0
1, 39880, Note_on_c, 9, 40, 0
1, 39880, Note_on_c, 9, 42, 0
1, 39922, Note_on_c, 14, 68, 0
1, 39931, Note_on_c, 14, 65, 0
1, 39942, Note_on_c, 11, 53, 0
1, 39948, Note_on_c, 14, 60, 0
1, 39957, Note_on_c, 12, 56, 0
1, 40033, Note_on_c, 12, 60, 0
1, 40037, Note_on_c, 3, 69, 0
1, 40080, Lyric_t, "BE "
1, 40080, Note_on_c, 3, 72, 115
1, 40080, Note_on_c, 9, 42, 76
1, 40080, Note_on_c, 11, 53, 60
1, 40080, Note_on_c, 12, 56, 105
1, 40080, Note_on_c, 12, 60, 43
1, 40093, Note_on_c, 11, 56, 0
1, 40120, Note_on_c, 9, 42, 0
1, 40156, Note_on_c, 12, 60, 0
1, 40171, Note_on_c, 11, 60, 0
1, 40174, Note_on_c, 12, 56, 0
1, 40189, Note_on_c, 1, 29, 0
1, 40206, Note_on_c, 11, 53, 0
1, 40214, Note_on_c, 13, 56, 0
1, 40214, Note_on_c, 13, 60, 0
1, 40219, Note_on_c, 13, 53, 0
1, 40230, Note_on_c, 12, 41, 0
1, 40257, Note_on_c, 3, 72, 0
1, 40262, Note_on_c, 12, 53, 0
1, 40276, Note_on_c, 12, 65, 0
1, 40320, Lyric_t, "FA"
1, 40320, Note_on_c, 1, 36, 127
1, 40320, Note_on_c, 3, 76, 115
1, 40320, Note_on_c, 9, 35, 118
1, 40320, Note_on_c, 9, 42, 76
1, 40320, Note_on_c, 11, 48, 119
1, 40320, Note_on_c, 12, 48, 110
1, 40320, Note_on_c, 12, 55, 110
1, 40360, Note_on_c, 9, 35, 0
1, 40360, Note_on_c, 9, 42, 0
1, 40381, Note_on_c, 13, 51, 127
1, 40408, Note_on_c, 3, 76, 0
1, 40429, Note_on_c, 13, 51, 0
1, 40433, Note_on_c, 13, 52, 94
1, 40556, Note_on_c, 11, 48, 0
1, 40560, Lyric_t, "MOUS "
1, 40560, Note_on_c, 3, 76, 115
1, 40560, Note_on_c, 9, 42, 76
1, 40600, Note_on_c, 9, 42, 0
1, 40659, Note_on_c, 12, 55, 0
1, 40665, Note_on_c, 12, 48, 0
1, 40762, Note_on_c, 3, 76, 0
1, 40800, Lyric_t, "CAUSE "
1, 40800, Note_on_c, 3, 74, 112
1, 40800, Note_on_c, 9, 39, 83
1, 40800, Note_on_c, 9, 40, 118
1, 40800, Note_on_c, 9, 42, 76
1, 40800, Note_on_c, 11, 52, 119
1, 40800, Note_on_c, 11, 55, 127
1, 40800, Note_on_c, 11, 60, 127
1, 40800, Note_on_c, 12, 48, 124
1, 40800, Note_on_c, 12, 55, 119
1, 40800, Note_on_c, 12, 60, 119
1, 40800, Note_on_c, 12, 64, 114
1, 40800, Note_on_c, 12, 67, 119
1, 40800, Note_on_c, 14, 60, 119
1, 40800, Note_on_c, 14, 64, 124
1, 40800, Note_on_c, 14, 67, 127
1, 40804, Note_on_c, 1, 36, 0
1, 40814, Note_on_c, 13, 52, 0
1, 40822, Note_on_c, 13, 55, 106
1, 40840, Note_on_c, 9, 39, 0
1, 40840, Note_on_c, 9, 40, 0
1, 40840, Note_on_c, 9, 42, 0
1, 40873, Note_on_c, 14, 64, 0
1, 40889, Note_on_c, 14, 60, 0
1, 40899, Note_on_c, 14, 67, 0
1, 40937, Note_on_c, 11, 52, 0
1, 41016, Note_on_c, 3, 74, 0
1, 41040, Lyric_t, "YOU'RE "
1, 41040, Note_on_c, 1, 36, 127
1, 41040, Note_on_c, 3, 72, 115
1, 41040, Note_on_c, 9, 39, 83
1, 41040, Note_on_c, 9, 42, 76
1, 41040, Note_on_c, 11, 52, 64
1, 41080, Note_on_c, 9, 39, 0
1, 41080, Note_on_c, 9, 42, 0
1, 41096, Note_on_c, 12, 60, 0
1, 41113, Note_on_c, 11, 52, 0
1, 41115, Note_on_c, 11, 55, 0
1, 41127, Note_on_c, 11, 60, 0
1, 41199, Note_on_c, 1, 36, 0
1, 41280, Lyric_t, "DEA"
1, 41280, Note_on_c, 1, 36, 124
1, 41280, Note_on_c, 3, 72, 115
1, 41280, Note_on_c, 9, 35, 118
1, 41280, Note_on_c, 9, 42, 76
1, 41280, Note_on_c, 12, 60, 94
1, 41284, Note_on_c, 3, 72, 0
1, 41320, Note_on_c, 9, 35, 0
1, 41320, Note_on_c, 9, 42, 0
1, 41359, Note_on_c, 12, 67, 0
1, 41363, Note_on_c, 12, 64, 0
1, 41380, Note_on_c, 1, 36, 0
1, 41400, Note_on_c, 12, 60, 0
1, 41520, Note_on_c, 1, 36, 119
1, 41520, Note_on_c, 9, 35, 118
1, 41520, Note_on_c, 9, 42, 76
1, 41520, Note_on_c, 11, 52, 114
1, 41520, Note_on_c, 11, 55, 124
1, 41520, Note_on_c, 11, 60, 127
1, 41520, Note_on_c, 12, 60, 119
1, 41520, Note_on_c, 12, 64, 119
1, 41520, Note_on_c, 12, 67, 124
1, 41560, Note_on_c, 9, 35, 0
1, 41560, Note_on_c, 9, 42, 0
1, 41620, Note_on_c, 12, 48, 0
1, 41626, Note_on_c, 12, 55, 0
1, 41725, Note_on_c, 11, 52, 0
1, 41756, Note_on_c, 3, 72, 0
1, 41760, Lyric_t, "D"
1, 41760, Lyric_t, "\015"
1, 41760, Note_on_c, 1, 31, 114
1, 41760, Note_on_c, 3, 69, 115
1, 41760, Note_on_c, 9, 39, 83
1, 41760, Note_on_c, 9, 40, 118
1, 41760, Note_on_c, 9, 42, 76
1, 41760, Note_on_c, 11, 48, 127
1, 41760, Note_on_c, 12, 48, 99
1, 41760, Note_on_c, 12, 55, 81
1, 41760, Note_on_c, 14, 60, 114
1, 41760, Note_on_c, 14, 64, 124
1, 41760, Note_on_c, 14, 67, 127
1, 41769, Note_on_c, 1, 36, 0
1, 41800, Note_on_c, 9, 39, 0
1, 41800, Note_on_c, 9, 40, 0
1, 41800, Note_on_c, 9, 42, 0
1, 41840, Note_on_c, 12, 60, 0
1, 41882, Note_on_c, 14, 60, 0
1, 41891, Note_on_c, 14, 64, 0
1, 41907, Note_on_c, 14, 67, 0
1, 41927, Note_on_c, 11, 55, 0
1, 41952, Note_on_c, 13, 55, 0
1, 41955, Note_on_c, 1, 31, 0
1, 41971, Note_on_c, 11, 60, 0
1, 41977, Note_on_c, 11, 48, 0
1, 42000, Note_on_c, 1, 33, 119
1, 42000, Note_on_c, 9, 42, 76
1, 42000, Note_on_c, 11, 52, 110
1, 42000, Note_on_c, 12, 60, 110
1, 42000, Note_on_c, 13, 55, 87
1, 42006, Note_on_c, 3, 69, 0
1, 42040, Note_on_c, 9, 42, 0
1, 42041, Note_on_c, 13, 55, 0
1, 42081, Note_on_c, 12, 48, 0
1, 42082, Note_on_c, 12, 55, 0
1, 42104, Note_on_c, 11, 52, 0
1, 42148, Note_on_c, 12, 60, 0
1, 42167, Note_on_c, 12, 64, 0
1, 42174, Note_on_c, 12, 67, 0
1, 42207, Note_on_c, 1, 33, 0
1, 42240, Note_on_c, 1, 36, 127
1, 42240, Note_on_c, 9, 40, 118
1, 42240, Note_on_c, 9, 42, 76
1, 42240, Note_on_c, 11, 48, 127
1, 42240, Note_on_c, 11, 52, 124
1, 42240, Note_on_c, 11, 55, 127
1, 42240, Note_on_c, 11, 60, 127
1, 42240, Note_on_c, 12, 48, 119
1, 42240, Note_on_c, 12, 55, 124
1, 42240, Note_on_c, 12, 60, 124
1, 42240, Note_on_c, 12, 64, 124
1, 42240, Note_on_c, 13, 55, 124
1, 42240, Note_on_c, 13, 60, 127
1, 42240, Note_on_c, 14, 60, 124
1, 42240, Note_on_c, 14, 64, 119
1, 42240, Note_on_c, 14, 67, 124
1, 42280, Note_on_c, 9, 40, 0
1, 42280, Note_on_c, 9, 42, 0
1, 42301, Note_on_c, 13, 60, 0
1, 42334, Note_on_c, 14, 60, 0
1, 42343, Note_on_c, 14, 64, 0
1, 42348, Note_on_c, 14, 67, 0
1, 42409, Note_on_c, 13, 55, 0
1, 42448, Note_on_c, 11, 52, 0
1, 42466, Note_on_c, 11, 55, 0
1, 42469, Note_on_c, 11, 60, 0
1, 42473, Note_on_c, 11, 48, 0
1, 42503, Note_on_c, 1, 36, 0
1, 42611, Note_on_c, 12, 55, 0
1, 42611, Note_on_c, 12, 60, 0
1, 42611, Note_on_c, 12, 64, 0
1, 42618, Note_on_c, 12, 48, 0
1, 42720, Note_on_c, 1, 36, 127
1, 42720, Note_on_c, 9, 40, 118
1, 42720, Note_on_c, 9, 42, 76
1, 42720, Note_on_c, 11, 48, 127
1, 42720, Note_on_c, 11, 52, 124
1, 42720, Note_on_c, 11, 55, 127
1, 42720, Note_on_c, 11, 60, 127
1, 42720, Note_on_c, 12, 48, 119
1, 42720, Note_on_c, 12, 55, 124
1, 42720, Note_on_c, 12, 60, 124
1, 42720, Note_on_c, 12, 64, 124
1, 42720, Note_on_c, 13, 55, 127
1, 42720, Note_on_c, 13, 60, 127
1, 42760, Note_on_c, 9, 40, 0
1, 42760, Note_on_c, 9, 42, 0
1, 42895, Note_on_c, 13, 55, 0
1, 42897, Note_on_c, 13, 60, 0
1, 42928, Note_on_c, 11, 52, 0
1, 42946, Note_on_c, 11, 55, 0
1, 42949, Note_on_c, 11, 60, 0
1, 42953, Note_on_c, 11, 48, 0
1, 42960, Lyric_t, "SO "
1, 42960, Note_on_c, 3, 64, 115
1, 42983, Note_on_c, 1, 36, 0
1, 43037, Note_on_c, 3, 64, 0
1, 43091, Note_on_c, 12, 55, 0
1, 43091, Note_on_c, 12, 60, 0
1, 43091, Note_on_c, 12, 64, 0
1, 43098, Note_on_c, 12, 48, 0
1, 43200, Lyric_t, "DON'T "
1, 43200, Note_on_c, 3, 64, 115
1, 43427, Note_on_c, 3, 64, 0
1, 43440, Lyric_t, "GO "
1, 43440, Note_on_c, 3, 67, 115
1, 43920, Lyric_t, "HIGH"
1, 43920, Note_on_c, 3, 71, 115
1, 43920, Note_on_c, 4, 59, 106
1, 43920, Note_on_c, 4, 62, 110
1, 43920, Note_on_c, 4, 64, 114
1, 43920, Note_on_c, 4, 67, 110
1, 43921, Note_on_c, 3, 67, 0
1, 44160, Note_on_c, 1, 28, 127
1, 44160, Note_on_c, 2, 62, 97
1, 44160, Note_on_c, 2, 67, 97
1, 44160, Note_on_c, 2, 71, 97
1, 44160, Note_on_c, 6, 40, 127
1, 44160, Note_on_c, 6, 47, 124
1, 44160, Note_on_c, 9, 35, 118
1, 44160, Note_on_c, 9, 49, 91
1, 44160, Note_on_c, 11, 40, 119
1, 44160, Note_on_c, 11, 59, 110
1, 44160, Note_on_c, 11, 62, 119
1, 44160, Note_on_c, 11, 67, 119
1, 44160, Note_on_c, 12, 52, 127
1, 44160, Note_on_c, 12, 59, 119
1, 44160, Note_on_c, 12, 62, 106
1, 44200, Note_on_c, 9, 35, 0
1, 44200, Note_on_c, 9, 49, 0
1, 44400, Note_on_c, 9, 42, 76
1, 44440, Note_on_c, 9, 42, 0
1, 44489, Note_on_c, 11, 59, 0
1, 44504, Note_on_c, 6, 47, 0
1, 44521, Note_on_c, 6, 40, 0
1, 44560, Note_on_c, 12, 59, 0
1, 44588, Note_on_c, 11, 62, 0
1, 44630, Note_on_c, 11, 67, 0
1, 44640, Note_on_c, 6, 40, 87
1, 44640, Note_on_c, 6, 47, 124
1, 44640, Note_on_c, 9, 40, 118
1, 44640, Note_on_c, 9, 42, 76
1, 44640, Note_on_c, 11, 52, 50
1, 44640, Note_on_c, 11, 59, 94
1, 44640, Note_on_c, 11, 62, 60
1, 44640, Note_on_c, 11, 67, 33
1, 44640, Note_on_c, 12, 59, 87
1, 44643, Note_on_c, 1, 28, 0
1, 44662, Note_on_c, 6, 40, 0
1, 44680, Note_on_c, 9, 40, 0
1, 44680, Note_on_c, 9, 42, 0
1, 44698, Note_on_c, 11, 52, 0
1, 44704, Note_on_c, 6, 47, 0
1, 44706, Note_on_c, 11, 62, 0
1, 44722, Note_on_c, 11, 67, 0
1, 44722, Note_on_c, 12, 52, 0
1, 44728, Note_on_c, 11, 59, 0
1, 44735, Note_on_c, 12, 62, 0
1, 44737, Note_on_c, 12, 59, 0
1, 44778, Note_on_c, 11, 40, 0
1, 44880, Note_on_c, 1, 28, 124
1, 44880, Note_on_c, 6, 40, 127
1, 44880, Note_on_c, 6, 47, 127
1, 44880, Note_on_c, 9, 42, 76
1, 44880, Note_on_c, 11, 40, 114
1, 44880, Note_on_c, 11, 52, 114
1, 44880, Note_on_c, 11, 59, 119
1, 44880, Note_on_c, 11, 62, 119
1, 44880, Note_on_c, 11, 67, 124
1, 44880, Note_on_c, 12, 52, 127
1, 44880, Note_on_c, 12, 59, 119
1, 44880, Note_on_c, 12, 62, 124
1, 44920, Note_on_c, 9, 42, 0
1, 45120, Note_on_c, 9, 35, 118
1, 45120, Note_on_c, 9, 42, 76
1, 45131, Note_on_c, 6, 47, 0
1, 45136, Note_on_c, 11, 59, 0
1, 45158, Note_on_c, 6, 40, 0
1, 45160, Note_on_c, 9, 35, 0
1, 45160, Note_on_c, 9, 42, 0
1, 45168, Note_on_c, 1, 28, 0
1, 45248, Note_on_c, 12, 59, 0
1, 45267, Note_on_c, 12, 62, 0
1, 45334, Note_on_c, 11, 67, 0
1, 45360, Note_on_c, 1, 28, 106
1, 45360, Note_on_c, 6, 47, 114
1, 45360, Note_on_c, 9, 35, 118
1, 45360, Note_on_c, 9, 42, 76
1, 45360, Note_on_c, 11, 59, 84
1, 45360, Note_on_c, 12, 59, 119
1, 45360, Note_on_c, 12, 62, 119
1, 45362, Note_on_c, 11, 62, 0
1, 45400, Note_on_c, 9, 35, 0
1, 45400, Note_on_c, 9, 42, 0
1, 45423, Note_on_c, 6, 47, 0
1, 45425, Note_on_c, 12, 52, 0
1, 45458, Note_on_c, 11, 59, 0
1, 45585, Note_on_c, 1, 28, 0
1, 45600, Note_on_c, 1, 31, 119
1, 45600, Note_on_c, 6, 47, 127
1, 45600, Note_on_c, 6, 52, 127
1, 45600, Note_on_c, 9, 40, 118
1, 45600, Note_on_c, 9, 42, 76
1, 45600, Note_on_c, 11, 59, 114
1, 45600, Note_on_c, 11, 62, 124
1, 45600, Note_on_c, 11, 67, 127
1, 45600, Note_on_c, 12, 52, 124
1, 45640, Note_on_c, 9, 40, 0
1, 45640, Note_on_c, 9, 42, 0
1, 45641, Note_on_c, 11, 52, 0
1, 45649, Note_on_c, 12, 59, 0
1, 45668, Note_on_c, 11, 40, 0
1, 45786, Note_on_c, 1, 31, 0
1, 45829, Note_on_c, 6, 52, 0
1, 45838, Note_on_c, 6, 47, 0
1, 45839, Note_on_c, 3, 71, 0
1, 45840, Lyric_t, "ER"
1, 45840, Lyric_t, "\015"
1, 45840, Note_on_c, 1, 32, 127
1, 45840, Note_on_c, 3, 67, 115
1, 45840, Note_on_c, 6, 40, 119
1, 45840, Note_on_c, 9, 42, 76
1, 45840, Note_on_c, 11, 52, 119
1, 45840, Note_on_c, 12, 59, 91
1, 45879, Note_on_c, 11, 67, 0
1, 45880, Note_on_c, 9, 42, 0
1, 45883, Note_on_c, 11, 62, 0
1, 45884, Note_on_c, 11, 59, 0
1, 45897, Note_on_c, 12, 62, 0
1, 45910, Note_on_c, 12, 52, 0
1, 45919, Note_on_c, 6, 40, 0
1, 45956, Note_on_c, 12, 59, 0
1, 46008, Note_on_c, 11, 52, 0
1, 46056, Note_on_c, 2, 62, 0
1, 46056, Note_on_c, 2, 67, 0
1, 46056, Note_on_c, 2, 71, 0
1, 46069, Note_on_c, 1, 32, 0
1, 46076, Note_on_c, 4, 59, 0
1, 46076, Note_on_c, 4, 62, 0
1, 46076, Note_on_c, 4, 64, 0
1, 46076, Note_on_c, 4, 67, 0
1, 46080, Note_on_c, 1, 33, 106
1, 46080, Note_on_c, 2, 64, 97
1, 46080, Note_on_c, 2, 67, 97
1, 46080, Note_on_c, 2, 72, 97
1, 46080, Note_on_c, 4, 57, 110
1, 46080, Note_on_c, 4, 60, 110
1, 46080, Note_on_c, 4, 64, 119
1, 46080, Note_on_c, 6, 45, 124
1, 46080, Note_on_c, 6, 52, 127
1, 46080, Note_on_c, 9, 35, 118
1, 46080, Note_on_c, 9, 42, 76
1, 46080, Note_on_c, 11, 45, 106
1, 46080, Note_on_c, 11, 55, 119
1, 46080, Note_on_c, 11, 60, 124
1, 46080, Note_on_c, 11, 64, 110
1, 46080, Note_on_c, 12, 45, 119
1, 46080, Note_on_c, 12, 60, 124
1, 46080, Note_on_c, 12, 64, 119
1, 46120, Note_on_c, 9, 35, 0
1, 46120, Note_on_c, 9, 42, 0
1, 46313, Note_on_c, 6, 45, 0
1, 46320, Note_on_c, 9, 42, 76
1, 46326, Note_on_c, 6, 52, 0
1, 46360, Note_on_c, 9, 42, 0
1, 46390, Note_on_c, 11, 55, 0
1, 46409, Note_on_c, 12, 60, 0
1, 46478, Note_on_c, 11, 60, 0
1, 46483, Note_on_c, 12, 64, 0
1, 46488, Note_on_c, 4, 60, 0
1, 46488, Note_on_c, 11, 64, 0
1, 46498, Note_on_c, 4, 57, 0
1, 46516, Note_on_c, 4, 64, 0
1, 46543, Note_on_c, 1, 33, 0
1, 46560, Note_on_c, 6, 45, 110
1, 46560, Note_on_c, 6, 52, 110
1, 46560, Note_on_c, 9, 40, 118
1, 46560, Note_on_c, 9, 42, 76
1, 46560, Note_on_c, 11, 55, 71
1, 46560, Note_on_c, 11, 60, 50
1, 46560, Note_on_c, 12, 60, 99
1, 46560, Note_on_c, 12, 64, 72
1, 46585, Note_on_c, 11, 45, 0
1, 46600, Note_on_c, 9, 40, 0
1, 46600, Note_on_c, 9, 42, 0
1, 46600, Note_on_c, 12, 45, 0
1, 46603, Note_on_c, 6, 45, 0
1, 46603, Note_on_c, 11, 60, 0
1, 46608, Note_on_c, 6, 52, 0
1, 46614, Note_on_c, 3, 67, 0
1, 46621, Note_on_c, 12, 64, 0
1, 46637, Note_on_c, 11, 55, 0
1, 46638, Note_on_c, 12, 60, 0
1, 46800, Note_on_c, 1, 33, 114
1, 46800, Note_on_c, 6, 45, 127
1, 46800, Note_on_c, 6, 52, 119
1, 46800, Note_on_c, 9, 42, 76
1, 46800, Note_on_c, 11, 45, 124
1, 46800, Note_on_c, 11, 55, 106
1, 46800, Note_on_c, 11, 60, 119
1, 46800, Note_on_c, 11, 64, 119
1, 46800, Note_on_c, 12, 45, 127
1, 46800, Note_on_c, 12, 60, 124
1, 46800, Note_on_c, 12, 64, 127
1, 46840, Note_on_c, 9, 42, 0
1, 47038, Note_on_c, 6, 45, 0
1, 47040, Lyric_t, "FOR "
1, 47040, Note_on_c, 3, 64, 115
1, 47040, Note_on_c, 9, 35, 118
1, 47040, Note_on_c, 9, 42, 76
1, 47043, Note_on_c, 6, 52, 0
1, 47061, Note_on_c, 11, 55, 0
1, 47065, Note_on_c, 4, 57, 99
1, 47066, Note_on_c, 4, 60, 99
1, 47068, Note_on_c, 4, 64, 106
1, 47080, Note_on_c, 9, 35, 0
1, 47080, Note_on_c, 9, 42, 0
1, 47132, Note_on_c, 12, 60, 0
1, 47147, Note_on_c, 11, 60, 0
1, 47161, Note_on_c, 4, 60, 0
1, 47165, Note_on_c, 4, 64, 0
1, 47166, Note_on_c, 12, 64, 0
1, 47168, Note_on_c, 4, 57, 0
1, 47185, Note_on_c, 1, 33, 0
1, 47213, Note_on_c, 11, 64, 0
1, 47251, Note_on_c, 3, 64, 0
1, 47280, Lyric_t, "DE"
1, 47280, Note_on_c, 1, 33, 110
1, 47280, Note_on_c, 3, 67, 115
1, 47280, Note_on_c, 6, 45, 127
1, 47280, Note_on_c, 6, 52, 127
1, 47280, Note_on_c, 9, 35, 118
1, 47280, Note_on_c, 9, 42, 76
1, 47280, Note_on_c, 11, 55, 102
1, 47280, Note_on_c, 12, 60, 119
1, 47280, Note_on_c, 12, 64, 119
1, 47298, Note_on_c, 4, 64, 106
1, 47300, Note_on_c, 4, 60, 114
1, 47302, Note_on_c, 4, 57, 119
1, 47320, Note_on_c, 9, 35, 0
1, 47320, Note_on_c, 9, 42, 0
1, 47334, Note_on_c, 12, 45, 0
1, 47421, Note_on_c, 11, 55, 0
1, 47488, Note_on_c, 1, 33, 0
1, 47520, Note_on_c, 1, 33, 119
1, 47520, Note_on_c, 9, 40, 118
1, 47520, Note_on_c, 9, 42, 76
1, 47520, Note_on_c, 11, 55, 99
1, 47520, Note_on_c, 11, 60, 127
1, 47520, Note_on_c, 11, 64, 124
1, 47520, Note_on_c, 12, 45, 127
1, 47560, Note_on_c, 9, 40, 0
1, 47560, Note_on_c, 9, 42, 0
1, 47575, Note_on_c, 11, 45, 0
1, 47606, Note_on_c, 6, 45, 0
1, 47612, Note_on_c, 12, 60, 0
1, 47658, Note_on_c, 6, 52, 0
1, 47672, Note_on_c, 1, 33, 0
1, 47738, Note_on_c, 3, 67, 0
1, 47760, Lyric_t, "SI"
1, 47760, Note_on_c, 1, 33, 106
1, 47760, Note_on_c, 3, 71, 115
1, 47760, Note_on_c, 6, 45, 114
1, 47760, Note_on_c, 6, 52, 114
1, 47760, Note_on_c, 9, 42, 76
1, 47760, Note_on_c, 11, 45, 114
1, 47760, Note_on_c, 12, 60, 81
1, 47765, Note_on_c, 4, 57, 0
1, 47766, Note_on_c, 11, 55, 0
1, 47773, Note_on_c, 11, 60, 0
1, 47775, Note_on_c, 4, 64, 0
1, 47779, Note_on_c, 4, 60, 0
1, 47800, Note_on_c, 9, 42, 0
1, 47806, Note_on_c, 11, 64, 0
1, 47837, Note_on_c, 6, 52, 0
1, 47841, Note_on_c, 6, 45, 0
1, 47852, Note_on_c, 11, 45, 0
1, 47855, Note_on_c, 12, 60, 0
1, 47857, Note_on_c, 12, 64, 0
1, 47867, Note_on_c, 1, 33, 0
1, 47891, Note_on_c, 12, 45, 0
1, 47976, Note_on_c, 2, 64, 0
1, 47976, Note_on_c, 2, 67, 0
1, 47976, Note_on_c, 2, 72, 0
1, 48000, Note_on_c, 1, 41, 114
1, 48000, Note_on_c, 2, 65, 97
1, 48000, Note_on_c, 2, 69, 97
1, 48000, Note_on_c, 2, 72, 97
1, 48000, Note_on_c, 6, 41, 119
1, 48000, Note_on_c, 6, 48, 119
1, 48000, Note_on_c, 9, 35, 118
1, 48000, Note_on_c, 9, 42, 76
1, 48000, Note_on_c, 11, 57, 114
1, 48000, Note_on_c, 11, 60, 127
1, 48000, Note_on_c, 11, 65, 124
1, 48000, Note_on_c, 12, 60, 127
1, 48000, Note_on_c, 12, 65, 119
1, 48034, Note_on_c, 4, 62, 110
1, 48040, Note_on_c, 9, 35, 0
1, 48040, Note_on_c, 9, 42, 0
1, 48043, Note_on_c, 4, 65, 110
1, 48240, Note_on_c, 3, 72, 113
1, 48240, Note_on_c, 4, 65, 0
1, 48240, Note_on_c, 9, 42, 76
1, 48243, Note_on_c, 4, 62, 0
1, 48255, Note_on_c, 3, 71, 0
1, 48272, Note_on_c, 6, 48, 0
1, 48280, Note_on_c, 9, 42, 0
1, 48282, Note_on_c, 4, 67, 114
1, 48282, Note_on_c, 6, 41, 0
1, 48288, Note_on_c, 11, 57, 0
1, 48289, Note_on_c, 4, 64, 114
1, 48351, Note_on_c, 12, 60, 0
1, 48415, Note_on_c, 12, 65, 0
1, 48447, Note_on_c, 3, 72, 0
1, 48463, Note_on_c, 4, 64, 0
1, 48480, Note_on_c, 3, 71, 110
1, 48480, Note_on_c, 6, 41, 102
1, 48480, Note_on_c, 6, 48, 114
1, 48480, Note_on_c, 9, 40, 118
1, 48480, Note_on_c, 9, 42, 76
1, 48480, Note_on_c, 11, 57, 81
1, 48480, Note_on_c, 12, 60, 106
1, 48480, Note_on_c, 12, 65, 94
1, 48485, Note_on_c, 4, 67, 0
1, 48498, Note_on_c, 1, 41, 0
1, 48498, Note_on_c, 11, 60, 0
1, 48508, Note_on_c, 11, 65, 0
1, 48520, Note_on_c, 9, 40, 0
1, 48520, Note_on_c, 9, 42, 0
1, 48524, Note_on_c, 4, 62, 99
1, 48529, Note_on_c, 4, 65, 94
1, 48529, Note_on_c, 6, 48, 0
1, 48542, Note_on_c, 6, 41, 0
1, 48542, Note_on_c, 11, 57, 0
1, 48581, Note_on_c, 12, 65, 0
1, 48584, Note_on_c, 12, 60, 0
1, 48714, Note_on_c, 4, 65, 0
1, 48720, Note_on_c, 1, 41, 114
1, 48720, Note_on_c, 3, 72, 115
1, 48720, Note_on_c, 6, 41, 110
1, 48720, Note_on_c, 6, 48, 127
1, 48720, Note_on_c, 9, 42, 76
1, 48720, Note_on_c, 11, 41, 119
1, 48720, Note_on_c, 11, 57, 102
1, 48720, Note_on_c, 11, 60, 124
1, 48720, Note_on_c, 11, 65, 114
1, 48720, Note_on_c, 12, 53, 114
1, 48720, Note_on_c, 12, 60, 124
1, 48720, Note_on_c, 12, 65, 124
1, 48724, Note_on_c, 4, 62, 0
1, 48726, Note_on_c, 4, 67, 114
1, 48732, Note_on_c, 4, 64, 114
1, 48743, Note_on_c, 3, 71, 0
1, 48760, Note_on_c, 9, 42, 0
1, 48819, Note_on_c, 1, 41, 0
1, 48896, Note_on_c, 4, 64, 0
1, 48931, Note_on_c, 4, 67, 0
1, 48950, Note_on_c, 3, 72, 0
1, 48960, Note_on_c, 1, 36, 114
1, 48960, Note_on_c, 3, 71, 109
1, 48960, Note_on_c, 9, 35, 118
1, 48960, Note_on_c, 9, 42, 76
1, 48979, Note_on_c, 4, 62, 94
1, 48985, Note_on_c, 4, 65, 94
1, 48997, Note_on_c, 11, 57, 0
1, 49000, Note_on_c, 9, 35, 0
1, 49000, Note_on_c, 9, 42, 0
1, 49056, Note_on_c, 12, 60, 0
1, 49075, Note_on_c, 12, 65, 0
1, 49076, Note_on_c, 6, 41, 0
1, 49080, Note_on_c, 11, 60, 0
1, 49089, Note_on_c, 11, 65, 0
1, 49140, Note_on_c, 1, 36, 0
1, 49158, Note_on_c, 4, 65, 0
1, 49163, Note_on_c, 4, 62, 0
1, 49176, Note_on_c, 6, 48, 0
1, 49182, Note_on_c, 4, 67, 119
1, 49190, Note_on_c, 4, 64, 119
1, 49196, Note_on_c, 3, 71, 0
1, 49200, Note_on_c, 1, 36, 81
1, 49200, Note_on_c, 3, 72, 113
1, 49200, Note_on_c, 6, 41, 94
1, 49200, Note_on_c, 9, 35, 118
1, 49200, Note_on_c, 9, 42, 76
1, 49200, Note_on_c, 11, 57, 114
1, 49200, Note_on_c, 11, 60, 124
1, 49200, Note_on_c, 11, 65, 119
1, 49200, Note_on_c, 12, 60, 119
1, 49200, Note_on_c, 12, 65, 124
1, 49203, Note_on_c, 11, 41, 0
1, 49240, Note_on_c, 9, 35, 0
1, 49240, Note_on_c, 9, 42, 0
1, 49245, Note_on_c, 12, 53, 0
1, 49310, Note_on_c, 6, 41, 0
1, 49403, Note_on_c, 4, 64, 0
1, 49414, Note_on_c, 1, 36, 0
1, 49415, Note_on_c, 11, 57, 0
1, 49436, Note_on_c, 3, 72, 0
1, 49440, Note_on_c, 1, 41, 106
1, 49440, Note_on_c, 3, 71, 110
1, 49440, Note_on_c, 6, 41, 102
1, 49440, Note_on_c, 6, 48, 127
1, 49440, Note_on_c, 9, 40, 118
1, 49440, Note_on_c, 9, 42, 76
1, 49440, Note_on_c, 11, 41, 124
1, 49440, Note_on_c, 12, 53, 119
1, 49445, Note_on_c, 4, 62, 99
1, 49455, Note_on_c, 4, 65, 102
1, 49474, Note_on_c, 4, 67, 0
1, 49480, Note_on_c, 9, 40, 0
1, 49480, Note_on_c, 9, 42, 0
1, 49541, Note_on_c, 11, 60, 0
1, 49553, Note_on_c, 12, 60, 0
1, 49670, Note_on_c, 6, 41, 0
1, 49680, Note_on_c, 1, 36, 124
1, 49680, Note_on_c, 9, 42, 76
1, 49680, Note_on_c, 11, 57, 110
1, 49680, Note_on_c, 12, 60, 99
1, 49684, Note_on_c, 1, 41, 0
1, 49688, Note_on_c, 12, 53, 0
1, 49716, Note_on_c, 4, 62, 0
1, 49720, Note_on_c, 9, 42, 0
1, 49721, Note_on_c, 4, 65, 0
1, 49727, Note_on_c, 6, 48, 0
1, 49797, Note_on_c, 12, 65, 0
1, 49799, Note_on_c, 12, 60, 0
1, 49807, Note_on_c, 11, 65, 0
1, 49847, Note_on_c, 11, 57, 0
1, 49881, Note_on_c, 11, 41, 0
1, 49896, Note_on_c, 1, 36, 0
1, 49896, Note_on_c, 2, 65, 0
1, 49896, Note_on_c, 2, 69, 0
1, 49896, Note_on_c, 2, 72, 0
1, 49916, Note_on_c, 3, 71, 0
1, 49920, Lyric_t, "RE"
1, 49920, Lyric_t, "\015"
1, 49920, Note_on_c, 1, 36, 127
1, 49920, Note_on_c, 2, 64, 97
1, 49920, Note_on_c, 2, 67, 97
1, 49920, Note_on_c, 2, 72, 97
1, 49920, Note_on_c, 3, 67, 115
1, 49920, Note_on_c, 6, 48, 124
1, 49920, Note_on_c, 6, 55, 119
1, 49920, Note_on_c, 9, 35, 118
1, 49920, Note_on_c, 9, 42, 76
1, 49920, Note_on_c, 11, 48, 124
1, 49920, Note_on_c, 11, 55, 102
1, 49920, Note_on_c, 11, 60, 124
1, 49920, Note_on_c, 11, 64, 99
1, 49920, Note_on_c, 12, 48, 124
1, 49920, Note_on_c, 12, 60, 110
1, 49920, Note_on_c, 12, 64, 119
1, 49957, Note_on_c, 4, 64, 114
1, 49960, Note_on_c, 9, 35, 0
1, 49960, Note_on_c, 9, 42, 0
1, 49965, Note_on_c, 4, 60, 124
1, 50155, Note_on_c, 6, 48, 0
1, 50158, Note_on_c, 6, 55, 0
1, 50160, Note_on_c, 9, 42, 76
1, 50200, Note_on_c, 9, 42, 0
1, 50233, Note_on_c, 12, 60, 0
1, 50234, Note_on_c, 11, 55, 0
1, 50293, Note_on_c, 12, 64, 0
1, 50324, Note_on_c, 4, 60, 0
1, 50335, Note_on_c, 4, 64, 0
1, 50347, Note_on_c, 11, 60, 0
1, 50353, Note_on_c, 12, 48, 0
1, 50360, Note_on_c, 11, 64, 0
1, 50392, Note_on_c, 1, 36, 0
1, 50400, Note_on_c, 6, 48, 102
1, 50400, Note_on_c, 6, 55, 99
1, 50400, Note_on_c, 9, 40, 118
1, 50400, Note_on_c, 9, 42, 76
1, 50400, Note_on_c, 11, 55, 75
1, 50400, Note_on_c, 11, 60, 67
1, 50400, Note_on_c, 11, 64, 41
1, 50400, Note_on_c, 12, 60, 114
1, 50400, Note_on_c, 12, 64, 87
1, 50440, Note_on_c, 6, 48, 0
1, 50440, Note_on_c, 9, 40, 0
1, 50440, Note_on_c, 9, 42, 0
1, 50446, Note_on_c, 6, 55, 0
1, 50464, Note_on_c, 11, 64, 0
1, 50473, Note_on_c, 11, 60, 0
1, 50475, Note_on_c, 12, 64, 0
1, 50496, Note_on_c, 3, 67, 0
1, 50501, Note_on_c, 12, 60, 0
1, 50502, Note_on_c, 11, 55, 0
1, 50640, Note_on_c, 1, 36, 127
1, 50640, Note_on_c, 6, 48, 124
1, 50640, Note_on_c, 6, 55, 119
1, 50640, Note_on_c, 9, 42, 76
1, 50640, Note_on_c, 11, 55, 114
1, 50640, Note_on_c, 11, 60, 124
1, 50640, Note_on_c, 11, 64, 114
1, 50640, Note_on_c, 12, 48, 124
1, 50640, Note_on_c, 12, 60, 124
1, 50640, Note_on_c, 12, 64, 124
1, 50680, Note_on_c, 9, 42, 0
1, 50752, Note_on_c, 11, 48, 0
1, 50837, Note_on_c, 1, 36, 0
1, 50880, Lyric_t, "PUT "
1, 50880, Note_on_c, 1, 31, 114
1, 50880, Note_on_c, 3, 74, 112
1, 50880, Note_on_c, 9, 35, 118
1, 50880, Note_on_c, 9, 42, 76
1, 50920, Note_on_c, 9, 35, 0
1, 50920, Note_on_c, 9, 42, 0
1, 50960, Note_on_c, 12, 60, 0
1, 51004, Note_on_c, 12, 64, 0
1, 51005, Note_on_c, 6, 48, 0
1, 51020, Note_on_c, 6, 55, 0
1, 51027, Note_on_c, 1, 31, 0
1, 51041, Note_on_c, 3, 74, 0
1, 51053, Note_on_c, 11, 55, 0
1, 51120, Lyric_t, "IT "
1, 51120, Note_on_c, 1, 33, 124
1, 51120, Note_on_c, 3, 76, 111
1, 51120, Note_on_c, 6, 48, 114
1, 51120, Note_on_c, 6, 55, 119
1, 51120, Note_on_c, 9, 35, 118
1, 51120, Note_on_c, 9, 42, 76
1, 51120, Note_on_c, 11, 48, 127
1, 51120, Note_on_c, 12, 60, 124
1, 51120, Note_on_c, 12, 64, 106
1, 51153, Note_on_c, 11, 60, 0
1, 51160, Note_on_c, 9, 35, 0
1, 51160, Note_on_c, 9, 42, 0
1, 51164, Note_on_c, 11, 64, 0
1, 51186, Note_on_c, 12, 48, 0
1, 51292, Note_on_c, 3, 76, 0
1, 51298, Note_on_c, 1, 33, 0
1, 51360, Lyric_t, "IN "
1, 51360, Note_on_c, 1, 36, 124
1, 51360, Note_on_c, 3, 74, 115
1, 51360, Note_on_c, 9, 40, 118
1, 51360, Note_on_c, 9, 42, 76
1, 51360, Note_on_c, 9, 57, 76
1, 51360, Note_on_c, 11, 55, 110
1, 51360, Note_on_c, 11, 64, 102
1, 51360, Note_on_c, 12, 48, 127
1, 51400, Note_on_c, 9, 40, 0
1, 51400, Note_on_c, 9, 42, 0
1, 51400, Note_on_c, 9, 57, 0
1, 51574, Note_on_c, 1, 36, 0
1, 51596, Note_on_c, 3, 74, 0
1, 51600, Lyric_t, "YOUR "
1, 51600, Note_on_c, 1, 35, 114
1, 51600, Note_on_c, 3, 72, 115
1, 51600, Note_on_c, 9, 42, 76
1, 51603, Note_on_c, 6, 55, 0
1, 51625, Note_on_c, 12, 64, 0
1, 51640, Note_on_c, 9, 42, 0
1, 51644, Note_on_c, 6, 48, 0
1, 51662, Note_on_c, 12, 60, 0
1, 51689, Note_on_c, 12, 48, 0
1, 51691, Note_on_c, 11, 55, 0
1, 51715, Note_on_c, 3, 72, 0
1, 51731, Note_on_c, 11, 64, 0
1, 51809, Note_on_c, 11, 48, 0
1, 51815, Note_on_c, 1, 35, 0
1, 51816, Note_on_c, 2, 64, 0
1, 51816, Note_on_c, 2, 67, 0
1, 51816, Note_on_c, 2, 72, 0
1, 51840, Lyric_t, "HEAD"
1, 51840, Lyric_t, "\015"
1, 51840, Note_on_c, 1, 33, 127
1, 51840, Note_on_c, 2, 69, 119
1, 51840, Note_on_c, 2, 72, 106
1, 51840, Note_on_c, 2, 76, 106
1, 51840, Note_on_c, 3, 72, 115
1, 51840, Note_on_c, 4, 57, 114
1, 51840, Note_on_c, 4, 64, 78
1, 51840, Note_on_c, 4, 69, 102
1, 51840, Note_on_c, 4, 72, 102
1, 51840, Note_on_c, 6, 45, 119
1, 51840, Note_on_c, 6, 52, 127
1, 51840, Note_on_c, 9, 35, 118
1, 51840, Note_on_c, 9, 49, 76
1, 51840, Note_on_c, 11, 45, 127
1, 51840, Note_on_c, 11, 60, 114
1, 51840, Note_on_c, 11, 64, 119
1, 51840, Note_on_c, 11, 69, 119
1, 51840, Note_on_c, 12, 45, 119
1, 51840, Note_on_c, 12, 57, 106
1, 51840, Note_on_c, 12, 60, 119
1, 51840, Note_on_c, 12, 64, 119
1, 51880, Note_on_c, 9, 35, 0
1, 51880, Note_on_c, 9, 49, 0
1, 52080, Note_on_c, 9, 42, 76
1, 52103, Note_on_c, 12, 57, 0
1, 52120, Note_on_c, 9, 42, 0
1, 52216, Note_on_c, 11, 60, 0
1, 52240, Note_on_c, 6, 45, 0
1, 52267, Note_on_c, 12, 60, 0
1, 52275, Note_on_c, 12, 64, 0
1, 52278, Note_on_c, 3, 72, 0
1, 52302, Note_on_c, 1, 33, 0
1, 52305, Note_on_c, 12, 45, 0
1, 52320, Lyric_t, "BA"
1, 52320, Note_on_c, 3, 69, 113
1, 52320, Note_on_c, 6, 45, 124
1, 52320, Note_on_c, 9, 40, 118
1, 52320, Note_on_c, 9, 42, 76
1, 52320, Note_on_c, 11, 60, 102
1, 52320, Note_on_c, 12, 57, 106
1, 52320, Note_on_c, 12, 60, 102
1, 52320, Note_on_c, 12, 64, 65
1, 52360, Note_on_c, 9, 40, 0
1, 52360, Note_on_c, 9, 42, 0
1, 52389, Note_on_c, 6, 52, 0
1, 52393, Note_on_c, 11, 64, 0
1, 52408, Note_on_c, 11, 45, 0
1, 52504, Note_on_c, 3, 69, 0
1, 52560, Lyric_t, "BY "
1, 52560, Note_on_c, 1, 33, 127
1, 52560, Note_on_c, 3, 72, 115
1, 52560, Note_on_c, 9, 42, 76
1, 52560, Note_on_c, 11, 45, 114
1, 52560, Note_on_c, 11, 64, 94
1, 52560, Note_on_c, 12, 45, 124
1, 52600, Note_on_c, 9, 42, 0
1, 52605, Note_on_c, 11, 69, 0
1, 52650, Note_on_c, 11, 60, 0
1, 52665, Note_on_c, 3, 72, 0
1, 52675, Note_on_c, 11, 64, 0
1, 52701, Note_on_c, 12, 57, 0
1, 52715, Note_on_c, 12, 60, 0
1, 52716, Note_on_c, 11, 45, 0
1, 52739, Note_on_c, 6, 45, 0
1, 52748, Note_on_c, 12, 64, 0
1, 52756, Note_on_c, 12, 45, 0
1, 52758, Note_on_c, 1, 33, 0
1, 52774, Note_on_c, 4, 57, 0
1, 52784, Note_on_c, 2, 69, 0
1, 52800, Lyric_t, "HOL"
1, 52800, Note_on_c, 1, 31, 119
1, 52800, Note_on_c, 2, 67, 119
1, 52800, Note_on_c, 3, 74, 115
1, 52800, Note_on_c, 4, 55, 106
1, 52800, Note_on_c, 6, 43, 127
1, 52800, Note_on_c, 9, 35, 118
1, 52800, Note_on_c, 9, 42, 76
1, 52800, Note_on_c, 11, 43, 127
1, 52800, Note_on_c, 11, 60, 119
1, 52800, Note_on_c, 11, 64, 119
1, 52800, Note_on_c, 11, 69, 124
1, 52800, Note_on_c, 12, 43, 127
1, 52800, Note_on_c, 12, 57, 106
1, 52800, Note_on_c, 12, 60, 119
1, 52800, Note_on_c, 12, 64, 119
1, 52840, Note_on_c, 9, 35, 0
1, 52840, Note_on_c, 9, 42, 0
1, 53000, Note_on_c, 3, 74, 0
1, 53040, Lyric_t, "LY"
1, 53040, Note_on_c, 3, 76, 112
1, 53040, Note_on_c, 9, 35, 118
1, 53040, Note_on_c, 9, 42, 76
1, 53063, Note_on_c, 12, 57, 0
1, 53080, Note_on_c, 9, 35, 0
1, 53080, Note_on_c, 9, 42, 0
1, 53151, Note_on_c, 11, 60, 0
1, 53213, Note_on_c, 3, 76, 0
1, 53227, Note_on_c, 12, 60, 0
1, 53235, Note_on_c, 12, 64, 0
1, 53280, Lyric_t, "WOOD "
1, 53280, Note_on_c, 3, 74, 113
1, 53280, Note_on_c, 9, 40, 118
1, 53280, Note_on_c, 9, 42, 76
1, 53280, Note_on_c, 11, 60, 106
1, 53280, Note_on_c, 12, 57, 106
1, 53280, Note_on_c, 12, 60, 102
1, 53280, Note_on_c, 12, 64, 65
1, 53306, Note_on_c, 1, 31, 0
1, 53310, Note_on_c, 12, 43, 0
1, 53320, Note_on_c, 9, 40, 0
1, 53320, Note_on_c, 9, 42, 0
1, 53491, Note_on_c, 11, 43, 0
1, 53499, Note_on_c, 3, 74, 0
1, 53520, Lyric_t, "IS "
1, 53520, Note_on_c, 1, 31, 110
1, 53520, Note_on_c, 3, 72, 115
1, 53520, Note_on_c, 9, 42, 76
1, 53520, Note_on_c, 11, 43, 87
1, 53520, Note_on_c, 12, 43, 119
1, 53552, Note_on_c, 11, 60, 0
1, 53560, Note_on_c, 9, 42, 0
1, 53573, Note_on_c, 11, 64, 0
1, 53599, Note_on_c, 11, 69, 0
1, 53620, Note_on_c, 3, 72, 0
1, 53661, Note_on_c, 12, 57, 0
1, 53675, Note_on_c, 12, 60, 0
1, 53676, Note_on_c, 11, 43, 0
1, 53702, Note_on_c, 12, 43, 0
1, 53708, Note_on_c, 12, 64, 0
1, 53716, Note_on_c, 6, 43, 0
1, 53735, Note_on_c, 2, 67, 0
1, 53741, Note_on_c, 1, 31, 0
1, 53760, Lyric_t, "DEAD"
1, 53760, Lyric_t, "\015"
1, 53760, Note_on_c, 1, 30, 109
1, 53760, Note_on_c, 2, 66, 120
1, 53760, Note_on_c, 3, 72, 115
1, 53760, Note_on_c, 4, 54, 109
1, 53760, Note_on_c, 6, 42, 127
1, 53760, Note_on_c, 9, 35, 118
1, 53760, Note_on_c, 9, 42, 76
1, 53760, Note_on_c, 11, 42, 127
1, 53760, Note_on_c, 11, 60, 114
1, 53760, Note_on_c, 11, 64, 119
1, 53760, Note_on_c, 11, 69, 119
1, 53760, Note_on_c, 12, 42, 127
1, 53760, Note_on_c, 12, 60, 102
1, 53760, Note_on_c, 12, 64, 114
1, 53760, Note_on_c, 12, 69, 114
1, 53771, Note_on_c, 4, 55, 0
1, 53800, Note_on_c, 9, 35, 0
1, 53800, Note_on_c, 9, 42, 0
1, 54000, Note_on_c, 9, 42, 76
1, 54040, Note_on_c, 9, 42, 0
1, 54085, Note_on_c, 12, 60, 0
1, 54101, Note_on_c, 3, 72, 0
1, 54136, Note_on_c, 11, 60, 0
1, 54174, Note_on_c, 12, 64, 0
1, 54240, Lyric_t, "YOU "
1, 54240, Note_on_c, 3, 69, 107
1, 54240, Note_on_c, 9, 40, 118
1, 54240, Note_on_c, 9, 42, 76
1, 54240, Note_on_c, 11, 60, 102
1, 54240, Note_on_c, 12, 60, 106
1, 54280, Note_on_c, 9, 40, 0
1, 54280, Note_on_c, 9, 42, 0
1, 54313, Note_on_c, 11, 64, 0
1, 54331, Note_on_c, 1, 30, 0
1, 54351, Note_on_c, 12, 69, 0
1, 54403, Note_on_c, 3, 69, 0
1, 54480, Lyric_t, "CAN "
1, 54480, Note_on_c, 1, 30, 120
1, 54480, Note_on_c, 3, 72, 115
1, 54480, Note_on_c, 9, 42, 76
1, 54480, Note_on_c, 11, 64, 94
1, 54480, Note_on_c, 12, 64, 99
1, 54520, Note_on_c, 9, 42, 0
1, 54525, Note_on_c, 11, 69, 0
1, 54552, Note_on_c, 12, 42, 0
1, 54570, Note_on_c, 11, 60, 0
1, 54582, Note_on_c, 12, 64, 0
1, 54595, Note_on_c, 11, 64, 0
1, 54627, Note_on_c, 11, 42, 0
1, 54629, Note_on_c, 12, 60, 0
1, 54632, Note_on_c, 2, 76, 0
1, 54643, Note_on_c, 4, 64, 0
1, 54676, Note_on_c, 1, 30, 0
1, 54677, Note_on_c, 4, 72, 0
1, 54679, Note_on_c, 4, 69, 0
1, 54687, Note_on_c, 4, 54, 0
1, 54687, Note_on_c, 6, 42, 0
1, 54703, Note_on_c, 3, 72, 0
1, 54707, Note_on_c, 2, 66, 0
1, 54720, Lyric_t, "FIND "
1, 54720, Note_on_c, 1, 29, 109
1, 54720, Note_on_c, 2, 65, 110
1, 54720, Note_on_c, 2, 68, 101
1, 54720, Note_on_c, 3, 74, 110
1, 54720, Note_on_c, 4, 53, 106
1, 54720, Note_on_c, 4, 65, 87
1, 54720, Note_on_c, 4, 68, 109
1, 54720, Note_on_c, 4, 72, 99
1, 54720, Note_on_c, 6, 41, 124
1, 54720, Note_on_c, 9, 35, 118
1, 54720, Note_on_c, 9, 42, 76
1, 54720, Note_on_c, 11, 41, 127
1, 54720, Note_on_c, 11, 60, 119
1, 54720, Note_on_c, 11, 65, 119
1, 54720, Note_on_c, 11, 68, 124
1, 54720, Note_on_c, 12, 41, 127
1, 54720, Note_on_c, 12, 56, 110
1, 54720, Note_on_c, 12, 60, 91
1, 54720, Note_on_c, 12, 65, 127
1, 54760, Note_on_c, 9, 35, 0
1, 54760, Note_on_c, 9, 42, 0
1, 54915, Note_on_c, 3, 74, 0
1, 54960, Lyric_t, "IT "
1, 54960, Note_on_c, 3, 76, 113
1, 54960, Note_on_c, 9, 35, 118
1, 54960, Note_on_c, 9, 42, 76
1, 55000, Note_on_c, 9, 35, 0
1, 55000, Note_on_c, 9, 42, 0
1, 55071, Note_on_c, 11, 60, 0
1, 55084, Note_on_c, 12, 60, 0
1, 55117, Note_on_c, 12, 65, 0
1, 55132, Note_on_c, 12, 56, 0
1, 55200, Lyric_t, "IN "
1, 55200, Note_on_c, 3, 74, 112
1, 55200, Note_on_c, 9, 40, 118
1, 55200, Note_on_c, 9, 42, 76
1, 55200, Note_on_c, 11, 60, 106
1, 55200, Note_on_c, 12, 56, 94
1, 55200, Note_on_c, 12, 60, 94
1, 55200, Note_on_c, 12, 65, 99
1, 55211, Note_on_c, 3, 76, 0
1, 55240, Note_on_c, 9, 40, 0
1, 55240, Note_on_c, 9, 42, 0
1, 55272, Note_on_c, 12, 41, 0
1, 55291, Note_on_c, 1, 29, 0
1, 55406, Note_on_c, 3, 74, 0
1, 55413, Note_on_c, 12, 60, 0
1, 55422, Note_on_c, 12, 56, 0
1, 55432, Note_on_c, 12, 65, 0
1, 55440, Lyric_t, "YOUR"
1, 55440, Note_on_c, 1, 29, 120
1, 55440, Note_on_c, 3, 72, 115
1, 55440, Note_on_c, 9, 42, 76
1, 55440, Note_on_c, 12, 41, 127
1, 55472, Note_on_c, 11, 60, 0
1, 55480, Note_on_c, 9, 42, 0
1, 55493, Note_on_c, 11, 65, 0
1, 55513, Note_on_c, 2, 68, 0
1, 55519, Note_on_c, 11, 68, 0
1, 55558, Note_on_c, 11, 41, 0
1, 55562, Note_on_c, 12, 41, 0
1, 55572, Note_on_c, 3, 72, 0
1, 55592, Note_on_c, 4, 68, 0
1, 55608, Note_on_c, 4, 65, 0
1, 55612, Note_on_c, 4, 72, 0
1, 55627, Note_on_c, 6, 41, 0
1, 55629, Note_on_c, 2, 72, 0
1, 55636, Note_on_c, 1, 29, 0
1, 55641, Note_on_c, 2, 65, 0
1, 55648, Note_on_c, 4, 53, 0
1, 55680, Lyric_t, "SEL"
1, 55680, Note_on_c, 1, 36, 127
1, 55680, Note_on_c, 2, 64, 114
1, 55680, Note_on_c, 2, 72, 124
1, 55680, Note_on_c, 3, 72, 115
1, 55680, Note_on_c, 4, 60, 106
1, 55680, Note_on_c, 4, 64, 114
1, 55680, Note_on_c, 4, 67, 106
1, 55680, Note_on_c, 6, 48, 127
1, 55680, Note_on_c, 9, 35, 118
1, 55680, Note_on_c, 9, 42, 76
1, 55680, Note_on_c, 11, 48, 119
1, 55680, Note_on_c, 11, 55, 106
1, 55680, Note_on_c, 11, 60, 110
1, 55680, Note_on_c, 11, 64, 99
1, 55680, Note_on_c, 12, 48, 127
1, 55680, Note_on_c, 12, 60, 124
1, 55680, Note_on_c, 12, 64, 119
1, 55680, Note_on_c, 12, 67, 124
1, 55720, Note_on_c, 9, 35, 0
1, 55720, Note_on_c, 9, 42, 0
1, 55900, Note_on_c, 3, 72, 0
1, 55920, Note_on_c, 3, 67, 112
1, 55920, Note_on_c, 9, 42, 76
1, 55960, Note_on_c, 9, 42, 0
1, 55963, Note_on_c, 6, 48, 0
1, 55983, Note_on_c, 12, 60, 0
1, 55986, Note_on_c, 11, 55, 0
1, 56016, Note_on_c, 12, 64, 0
1, 56028, Note_on_c, 12, 67, 0
1, 56058, Note_on_c, 4, 60, 0
1, 56060, Note_on_c, 11, 60, 0
1, 56088, Note_on_c, 11, 64, 0
1, 56097, Note_on_c, 4, 64, 0
1, 56103, Note_on_c, 4, 67, 0
1, 56142, Note_on_c, 1, 36, 0
1, 56153, Note_on_c, 3, 67, 0
1, 56160, Lyric_t, "F"
1, 56160, Lyric_t, "\015"
1, 56160, Note_on_c, 1, 40, 94
1, 56160, Note_on_c, 3, 69, 112
1, 56160, Note_on_c, 6, 48, 124
1, 56160, Note_on_c, 9, 40, 118
1, 56160, Note_on_c, 9, 42, 76
1, 56160, Note_on_c, 11, 55, 81
1, 56160, Note_on_c, 11, 60, 60
1, 56160, Note_on_c, 11, 64, 41
1, 56160, Note_on_c, 12, 60, 94
1, 56160, Note_on_c, 12, 64, 94
1, 56160, Note_on_c, 12, 67, 94
1, 56200, Note_on_c, 9, 40, 0
1, 56200, Note_on_c, 9, 42, 0
1, 56202, Note_on_c, 11, 64, 0
1, 56220, Note_on_c, 6, 48, 0
1, 56228, Note_on_c, 11, 60, 0
1, 56252, Note_on_c, 12, 67, 0
1, 56255, Note_on_c, 12, 64, 0
1, 56261, Note_on_c, 12, 60, 0
1, 56280, Note_on_c, 11, 55, 0
1, 56292, Note_on_c, 1, 40, 0
1, 56400, Note_on_c, 1, 43, 99
1, 56400, Note_on_c, 6, 43, 124
1, 56400, Note_on_c, 6, 48, 127
1, 56400, Note_on_c, 9, 42, 76
1, 56400, Note_on_c, 11, 55, 110
1, 56400, Note_on_c, 11, 60, 127
1, 56400, Note_on_c, 11, 64, 119
1, 56400, Note_on_c, 12, 60, 119
1, 56400, Note_on_c, 12, 64, 119
1, 56400, Note_on_c, 12, 67, 124
1, 56413, Note_on_c, 3, 69, 0
1, 56440, Note_on_c, 9, 42, 0
1, 56567, Note_on_c, 6, 48, 0
1, 56570, Note_on_c, 6, 43, 0
1, 56640, Note_on_c, 9, 35, 118
1, 56640, Note_on_c, 9, 42, 76
1, 56680, Note_on_c, 9, 35, 0
1, 56680, Note_on_c, 9, 42, 0
1, 56698, Note_on_c, 12, 64, 0
1, 56701, Note_on_c, 11, 48, 0
1, 56702, Note_on_c, 12, 67, 0
1, 56705, Note_on_c, 12, 60, 0
1, 56819, Note_on_c, 1, 43, 0
1, 56823, Note_on_c, 11, 55, 0
1, 56851, Note_on_c, 11, 60, 0
1, 56880, Note_on_c, 1, 45, 102
1, 56880, Note_on_c, 6, 43, 127
1, 56880, Note_on_c, 6, 48, 127
1, 56880, Note_on_c, 9, 35, 118
1, 56880, Note_on_c, 9, 42, 76
1, 56880, Note_on_c, 11, 48, 110
1, 56880, Note_on_c, 12, 60, 110
1, 56880, Note_on_c, 12, 64, 124
1, 56880, Note_on_c, 12, 67, 127
1, 56887, Note_on_c, 11, 64, 0
1, 56899, Note_on_c, 12, 48, 0
1, 56920, Note_on_c, 9, 35, 0
1, 56920, Note_on_c, 9, 42, 0
1, 57070, Note_on_c, 1, 45, 0
1, 57120, Note_on_c, 1, 43, 119
1, 57120, Note_on_c, 9, 40, 118
1, 57120, Note_on_c, 9, 42, 76
1, 57120, Note_on_c, 11, 60, 119
1, 57120, Note_on_c, 11, 64, 124
1, 57120, Note_on_c, 11, 67, 119
1, 57120, Note_on_c, 12, 48, 124
1, 57145, Note_on_c, 6, 43, 0
1, 57150, Note_on_c, 6, 48, 0
1, 57153, Note_on_c, 11, 48, 0
1, 57160, Note_on_c, 9, 40, 0
1, 57160, Note_on_c, 9, 42, 0
1, 57209, Note_on_c, 12, 60, 0
1, 57311, Note_on_c, 12, 64, 0
1, 57327, Note_on_c, 11, 60, 0
1, 57335, Note_on_c, 11, 64, 0
1, 57338, Note_on_c, 11, 67, 0
1, 57342, Note_on_c, 1, 43, 0
1, 57360, Note_on_c, 1, 40, 94
1, 57360, Note_on_c, 6, 43, 119
1, 57360, Note_on_c, 6, 48, 124
1, 57360, Note_on_c, 9, 42, 76
1, 57360, Note_on_c, 11, 48, 124
1, 57360, Note_on_c, 12, 60, 87
1, 57360, Note_on_c, 12, 64, 52
1, 57391, Note_on_c, 6, 43, 0
1, 57400, Note_on_c, 9, 42, 0
1, 57408, Note_on_c, 6, 48, 0
1, 57414, Note_on_c, 2, 72, 0
1, 57424, Note_on_c, 2, 64, 0
1, 57459, Note_on_c, 12, 60, 0
1, 57471, Note_on_c, 12, 64, 0
1, 57476, Note_on_c, 12, 67, 0
1, 57481, Note_on_c, 12, 48, 0
1, 57511, Note_on_c, 11, 48, 0
1, 57571, Note_on_c, 1, 40, 0
1, 57600, Note_on_c, 1, 36, 127
1, 57600, Note_on_c, 2, 64, 127
1, 57600, Note_on_c, 2, 72, 114
1, 57600, Note_on_c, 2, 76, 110
1, 57600, Note_on_c, 6, 43, 127
1, 57600, Note_on_c, 6, 48, 127
1, 57600, Note_on_c, 9, 35, 118
1, 57600, Note_on_c, 9, 40, 118
1, 57600, Note_on_c, 9, 42, 76
1, 57600, Note_on_c, 11, 48, 124
1, 57600, Note_on_c, 11, 55, 124
1, 57600, Note_on_c, 11, 60, 127
1, 57600, Note_on_c, 11, 64, 124
1, 57600, Note_on_c, 12, 48, 127
1, 57600, Note_on_c, 12, 60, 127
1, 57600, Note_on_c, 12, 64, 124
1, 57600, Note_on_c, 12, 67, 127
1, 57640, Note_on_c, 9, 35, 0
1, 57640, Note_on_c, 9, 40, 0
1, 57640, Note_on_c, 9, 42, 0
1, 57807, Note_on_c, 6, 48, 0
1, 57817, Note_on_c, 11, 55, 0
1, 57818, Note_on_c, 12, 48, 0
1, 57823, Note_on_c, 11, 60, 0
1, 57824, Note_on_c, 6, 43, 0
1, 57828, Note_on_c, 11, 48, 0
1, 57838, Note_on_c, 11, 64, 0
1, 57843, Note_on_c, 2, 72, 0
1, 57843, Note_on_c, 12, 60, 0
1, 57848, Note_on_c, 12, 64, 0
1, 57849, Note_on_c, 12, 67, 0
1, 57864, Note_on_c, 2, 76, 0
1, 57908, Note_on_c, 2, 64, 0
1, 57918, Note_on_c, 1, 36, 0
1, 58080, Lyric_t, "I "
1, 58080, Note_on_c, 3, 64, 115
1, 58283, Note_on_c, 3, 64, 0
1, 58320, Lyric_t, "DON'T "
1, 58320, Note_on_c, 3, 65, 113
1, 58552, Note_on_c, 3, 65, 0
1, 58560, Lyric_t, "WANT "
1, 58560, Note_on_c, 3, 67, 115
1, 58772, Note_on_c, 3, 67, 0
1, 58800, Lyric_t, "TO "
1, 58800, Note_on_c, 3, 69, 115
1, 59023, Note_on_c, 3, 69, 0
1, 59040, Lyric_t, "TAKE "
1, 59040, Note_on_c, 3, 71, 113
1, 59269, Note_on_c, 3, 71, 0
1, 59280, Lyric_t, "YOU "
1, 59280, Note_on_c, 3, 72, 115
1, 59520, Lyric_t, "DAN"
1, 59520, Note_on_c, 1, 36, 127
1, 59520, Note_on_c, 3, 69, 115
1, 59520, Note_on_c, 9, 35, 118
1, 59520, Note_on_c, 9, 49, 91
1, 59520, Note_on_c, 11, 48, 124
1, 59520, Note_on_c, 11, 55, 110
1, 59520, Note_on_c, 11, 60, 110
1, 59520, Note_on_c, 12, 48, 110
1, 59520, Note_on_c, 12, 55, 110
1, 59535, Note_on_c, 3, 72, 0
1, 59560, Note_on_c, 9, 35, 0
1, 59560, Note_on_c, 9, 49, 0
1, 59691, Note_on_c, 11, 55, 0
1, 59691, Note_on_c, 11, 60, 0
1, 59740, Note_on_c, 11, 48, 0
1, 59760, Note_on_c, 9, 42, 76
1, 59800, Note_on_c, 9, 42, 0
1, 59859, Note_on_c, 12, 55, 0
1, 59865, Note_on_c, 12, 48, 0
1, 59935, Note_on_c, 3, 69, 0
1, 60000, Lyric_t, "CING"
1, 60000, Lyric_t, "\015"
1, 60000, Note_on_c, 3, 67, 111
1, 60000, Note_on_c, 9, 39, 83
1, 60000, Note_on_c, 9, 40, 118
1, 60000, Note_on_c, 9, 42, 76
1, 60000, Note_on_c, 11, 55, 45
1, 60000, Note_on_c, 12, 48, 124
1, 60000, Note_on_c, 12, 55, 119
1, 60000, Note_on_c, 12, 60, 119
1, 60000, Note_on_c, 12, 64, 114
1, 60000, Note_on_c, 12, 67, 119
1, 60018, Note_on_c, 11, 55, 0
1, 60040, Note_on_c, 9, 39, 0
1, 60040, Note_on_c, 9, 40, 0
1, 60040, Note_on_c, 9, 42, 0
1, 60047, Note_on_c, 1, 36, 0
1, 60240, Note_on_c, 1, 36, 124
1, 60240, Note_on_c, 9, 39, 83
1, 60240, Note_on_c, 9, 42, 76
1, 60240, Note_on_c, 11, 48, 127
1, 60240, Note_on_c, 11, 55, 124
1, 60240, Note_on_c, 11, 60, 114
1, 60280, Note_on_c, 9, 39, 0
1, 60280, Note_on_c, 9, 42, 0
1, 60296, Note_on_c, 12, 60, 0
1, 60438, Note_on_c, 1, 36, 0
1, 60480, Note_on_c, 1, 36, 106
1, 60480, Note_on_c, 9, 35, 118
1, 60480, Note_on_c, 9, 42, 76
1, 60480, Note_on_c, 12, 60, 94
1, 60520, Note_on_c, 9, 35, 0
1, 60520, Note_on_c, 9, 42, 0
1, 60542, Note_on_c, 11, 55, 0
1, 60543, Note_on_c, 11, 60, 0
1, 60559, Note_on_c, 12, 67, 0
1, 60563, Note_on_c, 12, 64, 0
1, 60600, Note_on_c, 12, 60, 0
1, 60720, Note_on_c, 9, 35, 118
1, 60720, Note_on_c, 9, 42, 76
1, 60720, Note_on_c, 11, 52, 53
1, 60720, Note_on_c, 12, 60, 119
1, 60720, Note_on_c, 12, 64, 119
1, 60720, Note_on_c, 12, 67, 124
1, 60723, Note_on_c, 3, 67, 0
1, 60748, Note_on_c, 11, 52, 0
1, 60760, Note_on_c, 9, 35, 0
1, 60760, Note_on_c, 9, 42, 0
1, 60814, Note_on_c, 11, 48, 0
1, 60820, Note_on_c, 12, 48, 0
1, 60826, Note_on_c, 12, 55, 0
1, 60960, Note_on_c, 9, 39, 83
1, 60960, Note_on_c, 9, 40, 118
1, 60960, Note_on_c, 9, 42, 76
1, 60960, Note_on_c, 11, 52, 119
1, 60960, Note_on_c, 11, 55, 119
1, 60960, Note_on_c, 11, 60, 124
1, 60960, Note_on_c, 12, 48, 99
1, 60960, Note_on_c, 12, 55, 81
1, 61000, Note_on_c, 9, 39, 0
1, 61000, Note_on_c, 9, 40, 0
1, 61000, Note_on_c, 9, 42, 0
1, 61040, Note_on_c, 12, 60, 0
1, 61042, Note_on_c, 11, 55, 0
1, 61135, Note_on_c, 11, 60, 0
1, 61137, Note_on_c, 1, 36, 0
1, 61149, Note_on_c, 11, 52, 0
1, 61200, Note_on_c, 1, 31, 91
1, 61200, Note_on_c, 9, 42, 76
1, 61200, Note_on_c, 11, 55, 26
1, 61200, Note_on_c, 12, 60, 110
1, 61240, Note_on_c, 9, 42, 0
1, 61251, Note_on_c, 11, 55, 0
1, 61281, Note_on_c, 12, 48, 0
1, 61282, Note_on_c, 12, 55, 0
1, 61423, Note_on_c, 1, 31, 0
1, 61440, Note_on_c, 1, 36, 124
1, 61440, Note_on_c, 9, 35, 118
1, 61440, Note_on_c, 9, 42, 76
1, 61440, Note_on_c, 11, 48, 114
1, 61440, Note_on_c, 12, 48, 119
1, 61440, Note_on_c, 12, 55, 124
1, 61480, Note_on_c, 9, 35, 0
1, 61480, Note_on_c, 9, 42, 0
1, 61680, Lyric_t, "WHEN "
1, 61680, Note_on_c, 3, 64, 113
1, 61680, Note_on_c, 9, 42, 76
1, 61681, Note_on_c, 11, 48, 0
1, 61720, Note_on_c, 9, 42, 0
1, 61811, Note_on_c, 12, 55, 0
1, 61818, Note_on_c, 12, 48, 0
1, 61828, Note_on_c, 12, 60, 0
1, 61847, Note_on_c, 12, 64, 0
1, 61854, Note_on_c, 12, 67, 0
1, 61898, Note_on_c, 3, 64, 0
1, 61917, Note_on_c, 1, 36, 0
1, 61920, Lyric_t, "YOU'"
1, 61920, Note_on_c, 3, 64, 113
1, 61920, Note_on_c, 9, 39, 83
1, 61920, Note_on_c, 9, 40, 118
1, 61920, Note_on_c, 9, 42, 76
1, 61920, Note_on_c, 12, 48, 124
1, 61920, Note_on_c, 12, 55, 110
1, 61920, Note_on_c, 12, 60, 110
1, 61920, Note_on_c, 12, 64, 114
1, 61920, Note_on_c, 12, 67, 110
1, 61960, Note_on_c, 9, 39, 0
1, 61960, Note_on_c, 9, 40, 0
1, 61960, Note_on_c, 9, 42, 0
1, 62138, Note_on_c, 3, 64, 0
1, 62160, Lyric_t, "RE "
1, 62160, Note_on_c, 1, 36, 124
1, 62160, Note_on_c, 3, 65, 112
1, 62160, Note_on_c, 9, 39, 83
1, 62160, Note_on_c, 9, 42, 76
1, 62160, Note_on_c, 11, 52, 114
1, 62160, Note_on_c, 11, 55, 119
1, 62160, Note_on_c, 11, 60, 124
1, 62200, Note_on_c, 9, 39, 0
1, 62200, Note_on_c, 9, 42, 0
1, 62235, Note_on_c, 12, 60, 0
1, 62381, Note_on_c, 3, 65, 0
1, 62400, Lyric_t, "DAN"
1, 62400, Note_on_c, 3, 67, 113
1, 62400, Note_on_c, 9, 35, 118
1, 62400, Note_on_c, 9, 42, 76
1, 62400, Note_on_c, 12, 60, 81
1, 62440, Note_on_c, 9, 35, 0
1, 62440, Note_on_c, 9, 42, 0
1, 62463, Note_on_c, 11, 52, 0
1, 62485, Note_on_c, 11, 55, 0
1, 62515, Note_on_c, 12, 67, 0
1, 62519, Note_on_c, 12, 64, 0
1, 62525, Note_on_c, 11, 60, 0
1, 62542, Note_on_c, 12, 60, 0
1, 62554, Note_on_c, 1, 36, 0
1, 62595, Note_on_c, 3, 67, 0
1, 62640, Lyric_t, "CING"
1, 62640, Lyric_t, "\015"
1, 62640, Note_on_c, 1, 31, 114
1, 62640, Note_on_c, 3, 69, 115
1, 62640, Note_on_c, 9, 35, 118
1, 62640, Note_on_c, 9, 42, 76
1, 62640, Note_on_c, 11, 48, 106
1, 62640, Note_on_c, 12, 60, 110
1, 62640, Note_on_c, 12, 64, 119
1, 62640, Note_on_c, 12, 67, 119
1, 62680, Note_on_c, 9, 35, 0
1, 62680, Note_on_c, 9, 42, 0
1, 62701, Note_on_c, 12, 55, 0
1, 62709, Note_on_c, 12, 48, 0
1, 62759, Note_on_c, 11, 48, 0
1, 62842, Note_on_c, 1, 31, 0
1, 62843, Note_on_c, 3, 69, 0
1, 62880, Lyric_t, "WITH "
1, 62880, Note_on_c, 1, 36, 119
1, 62880, Note_on_c, 3, 71, 110
1, 62880, Note_on_c, 9, 39, 83
1, 62880, Note_on_c, 9, 40, 118
1, 62880, Note_on_c, 9, 42, 76
1, 62880, Note_on_c, 11, 52, 127
1, 62880, Note_on_c, 11, 55, 127
1, 62880, Note_on_c, 11, 60, 127
1, 62880, Note_on_c, 12, 48, 119
1, 62880, Note_on_c, 12, 55, 119
1, 62920, Note_on_c, 9, 39, 0
1, 62920, Note_on_c, 9, 40, 0
1, 62920, Note_on_c, 9, 42, 0
1, 62940, Note_on_c, 12, 60, 0
1, 63073, Note_on_c, 1, 36, 0
1, 63101, Note_on_c, 11, 55, 0
1, 63108, Note_on_c, 11, 52, 0
1, 63109, Note_on_c, 3, 71, 0
1, 63120, Lyric_t, "THE "
1, 63120, Note_on_c, 1, 37, 127
1, 63120, Note_on_c, 3, 72, 112
1, 63120, Note_on_c, 9, 42, 76
1, 63120, Note_on_c, 11, 48, 114
1, 63120, Note_on_c, 12, 60, 114
1, 63131, Note_on_c, 11, 60, 0
1, 63160, Note_on_c, 9, 42, 0
1, 63229, Note_on_c, 11, 48, 0
1, 63283, Note_on_c, 12, 64, 0
1, 63325, Note_on_c, 1, 37, 0
1, 63326, Note_on_c, 12, 48, 0
1, 63351, Note_on_c, 12, 55, 0
1, 63356, Note_on_c, 3, 72, 0
1, 63360, Lyric_t, "WORLD"
1, 63360, Lyric_t, "\015"
1, 63360, Note_on_c, 1, 38, 119
1, 63360, Note_on_c, 3, 69, 112
1, 63360, Note_on_c, 9, 35, 118
1, 63360, Note_on_c, 9, 42, 76
1, 63360, Note_on_c, 11, 50, 124
1, 63360, Note_on_c, 12, 50, 127
1, 63387, Note_on_c, 12, 67, 0
1, 63392, Note_on_c, 12, 60, 0
1, 63400, Note_on_c, 9, 35, 0
1, 63400, Note_on_c, 9, 42, 0
1, 63590, Note_on_c, 11, 50, 0
1, 63600, Note_on_c, 9, 42, 76
1, 63640, Note_on_c, 9, 42, 0
1, 63721, Note_on_c, 12, 50, 0
1, 63840, Note_on_c, 9, 39, 83
1, 63840, Note_on_c, 9, 40, 118
1, 63840, Note_on_c, 9, 42, 76
1, 63840, Note_on_c, 12, 50, 106
1, 63840, Note_on_c, 12, 57, 106
1, 63840, Note_on_c, 12, 60, 124
1, 63840, Note_on_c, 12, 66, 120
1, 63871, Note_on_c, 1, 38, 0
1, 63880, Note_on_c, 9, 39, 0
1, 63880, Note_on_c, 9, 40, 0
1, 63880, Note_on_c, 9, 42, 0
1, 64080, Note_on_c, 1, 38, 124
1, 64080, Note_on_c, 9, 39, 83
1, 64080, Note_on_c, 9, 42, 76
1, 64080, Note_on_c, 11, 54, 120
1, 64080, Note_on_c, 11, 57, 119
1, 64080, Note_on_c, 11, 60, 127
1, 64093, Note_on_c, 3, 69, 0
1, 64120, Note_on_c, 9, 39, 0
1, 64120, Note_on_c, 9, 42, 0
1, 64124, Note_on_c, 12, 57, 0
1, 64171, Note_on_c, 11, 54, 0
1, 64185, Note_on_c, 11, 57, 0
1, 64201, Note_on_c, 11, 60, 0
1, 64264, Note_on_c, 12, 60, 0
1, 64320, Note_on_c, 9, 35, 118
1, 64320, Note_on_c, 9, 42, 76
1, 64320, Note_on_c, 12, 57, 67
1, 64320, Note_on_c, 12, 60, 31
1, 64360, Note_on_c, 9, 35, 0
1, 64360, Note_on_c, 9, 42, 0
1, 64443, Note_on_c, 12, 60, 0
1, 64459, Note_on_c, 12, 66, 0
1, 64461, Note_on_c, 12, 57, 0
1, 64560, Note_on_c, 9, 35, 118
1, 64560, Note_on_c, 9, 42, 76
1, 64560, Note_on_c, 12, 57, 106
1, 64560, Note_on_c, 12, 60, 119
1, 64560, Note_on_c, 12, 66, 120
1, 64600, Note_on_c, 9, 35, 0
1, 64600, Note_on_c, 9, 42, 0
1, 64646, Note_on_c, 12, 50, 0
1, 64800, Note_on_c, 9, 39, 83
1, 64800, Note_on_c, 9, 40, 118
1, 64800, Note_on_c, 9, 42, 76
1, 64800, Note_on_c, 11, 54, 101
1, 64800, Note_on_c, 11, 57, 124
1, 64800, Note_on_c, 11, 60, 124
1, 64800, Note_on_c, 12, 50, 91
1, 64840, Note_on_c, 9, 39, 0
1, 64840, Note_on_c, 9, 40, 0
1, 64840, Note_on_c, 9, 42, 0
1, 64897, Note_on_c, 12, 57, 0
1, 64978, Note_on_c, 1, 38, 0
1, 64979, Note_on_c, 12, 60, 0
1, 64981, Note_on_c, 12, 66, 0
1, 65002, Note_on_c, 11, 54, 0
1, 65038, Note_on_c, 12, 50, 0
1, 65040, Note_on_c, 1, 33, 110
1, 65040, Note_on_c, 9, 42, 76
1, 65040, Note_on_c, 11, 54, 87
1, 65040, Note_on_c, 12, 57, 94
1, 65040, Note_on_c, 12, 60, 91
1, 65040, Note_on_c, 12, 66, 90
1, 65080, Note_on_c, 9, 42, 0
1, 65146, Note_on_c, 11, 54, 0
1, 65187, Note_on_c, 11, 57, 0
1, 65187, Note_on_c, 11, 60, 0
1, 65265, Note_on_c, 1, 33, 0
1, 65280, Note_on_c, 1, 38, 106
1, 65280, Note_on_c, 9, 35, 118
1, 65280, Note_on_c, 9, 42, 76
1, 65280, Note_on_c, 11, 50, 114
1, 65280, Note_on_c, 12, 50, 124
1, 65320, Note_on_c, 9, 35, 0
1, 65320, Note_on_c, 9, 42, 0
1, 65520, Note_on_c, 9, 42, 76
1, 65555, Note_on_c, 11, 50, 0
1, 65560, Note_on_c, 9, 42, 0
1, 65632, Note_on_c, 12, 50, 0
1, 65645, Note_on_c, 12, 57, 0
1, 65647, Note_on_c, 12, 66, 0
1, 65663, Note_on_c, 12, 60, 0
1, 65760, Note_on_c, 9, 39, 83
1, 65760, Note_on_c, 9, 40, 118
1, 65760, Note_on_c, 9, 42, 76
1, 65760, Note_on_c, 12, 50, 119
1, 65760, Note_on_c, 12, 57, 102
1, 65760, Note_on_c, 12, 60, 119
1, 65760, Note_on_c, 12, 66, 115
1, 65800, Note_on_c, 9, 39, 0
1, 65800, Note_on_c, 9, 40, 0
1, 65800, Note_on_c, 9, 42, 0
1, 65838, Note_on_c, 1, 38, 0
1, 66000, Note_on_c, 1, 38, 119
1, 66000, Note_on_c, 9, 39, 83
1, 66000, Note_on_c, 9, 42, 76
1, 66000, Note_on_c, 11, 54, 120
1, 66000, Note_on_c, 11, 57, 106
1, 66000, Note_on_c, 11, 60, 114
1, 66040, Note_on_c, 9, 39, 0
1, 66040, Note_on_c, 9, 42, 0
1, 66102, Note_on_c, 11, 54, 0
1, 66137, Note_on_c, 12, 57, 0
1, 66142, Note_on_c, 11, 57, 0
1, 66158, Note_on_c, 11, 60, 0
1, 66240, Note_on_c, 9, 35, 118
1, 66240, Note_on_c, 9, 42, 76
1, 66240, Note_on_c, 12, 57, 72
1, 66280, Note_on_c, 9, 35, 0
1, 66280, Note_on_c, 9, 42, 0
1, 66355, Note_on_c, 1, 38, 0
1, 66357, Note_on_c, 12, 57, 0
1, 66414, Note_on_c, 12, 66, 0
1, 66422, Note_on_c, 12, 60, 0
1, 66480, Lyric_t, "YOU "
1, 66480, Note_on_c, 1, 38, 110
1, 66480, Note_on_c, 3, 69, 115
1, 66480, Note_on_c, 9, 35, 118
1, 66480, Note_on_c, 9, 42, 76
1, 66480, Note_on_c, 11, 50, 106
1, 66480, Note_on_c, 12, 57, 110
1, 66480, Note_on_c, 12, 60, 110
1, 66480, Note_on_c, 12, 66, 101
1, 66520, Note_on_c, 9, 35, 0
1, 66520, Note_on_c, 9, 42, 0
1, 66617, Note_on_c, 12, 50, 0
1, 66688, Note_on_c, 1, 38, 0
1, 66713, Note_on_c, 11, 50, 0
1, 66716, Note_on_c, 3, 69, 0
1, 66720, Note_on_c, 1, 33, 106
1, 66720, Note_on_c, 3, 69, 115
1, 66720, Note_on_c, 9, 39, 83
1, 66720, Note_on_c, 9, 40, 118
1, 66720, Note_on_c, 9, 42, 76
1, 66720, Note_on_c, 11, 54, 120
1, 66720, Note_on_c, 11, 57, 114
1, 66720, Note_on_c, 11, 60, 119
1, 66720, Note_on_c, 12, 50, 114
1, 66760, Note_on_c, 9, 39, 0
1, 66760, Note_on_c, 9, 40, 0
1, 66760, Note_on_c, 9, 42, 0
1, 66809, Note_on_c, 12, 57, 0
1, 66848, Note_on_c, 1, 33, 0
1, 66882, Note_on_c, 11, 54, 0
1, 66948, Note_on_c, 11, 57, 0
1, 66956, Note_on_c, 3, 69, 0
1, 66960, Lyric_t, "CAN "
1, 66960, Note_on_c, 1, 31, 110
1, 66960, Note_on_c, 3, 72, 112
1, 66960, Note_on_c, 9, 42, 76
1, 66960, Note_on_c, 11, 50, 102
1, 66960, Note_on_c, 12, 57, 106
1, 66971, Note_on_c, 11, 60, 0
1, 67000, Note_on_c, 9, 42, 0
1, 67044, Note_on_c, 11, 50, 0
1, 67129, Note_on_c, 12, 57, 0
1, 67149, Note_on_c, 12, 60, 0
1, 67154, Note_on_c, 1, 31, 0
1, 67155, Note_on_c, 12, 66, 0
1, 67167, Note_on_c, 12, 50, 0
1, 67196, Note_on_c, 3, 72, 0
1, 67200, Lyric_t, "FLASH "
1, 67200, Note_on_c, 1, 29, 124
1, 67200, Note_on_c, 3, 75, 115
1, 67200, Note_on_c, 7, 65, 75
1, 67200, Note_on_c, 7, 69, 75
1, 67200, Note_on_c, 9, 35, 118
1, 67200, Note_on_c, 9, 42, 76
1, 67200, Note_on_c, 11, 41, 127
1, 67200, Note_on_c, 12, 41, 102
1, 67200, Note_on_c, 12, 53, 110
1, 67240, Note_on_c, 9, 35, 0
1, 67240, Note_on_c, 9, 42, 0
1, 67436, Note_on_c, 3, 75, 0
1, 67440, Lyric_t, "YOUR "
1, 67440, Note_on_c, 3, 75, 115
1, 67440, Note_on_c, 9, 42, 76
1, 67480, Note_on_c, 9, 42, 0
1, 67586, Note_on_c, 12, 41, 0
1, 67612, Note_on_c, 12, 53, 0
1, 67676, Note_on_c, 3, 75, 0
1, 67678, Note_on_c, 11, 41, 0
1, 67680, Lyric_t, "CA"
1, 67680, Note_on_c, 3, 74, 113
1, 67680, Note_on_c, 9, 39, 83
1, 67680, Note_on_c, 9, 40, 118
1, 67680, Note_on_c, 9, 42, 76
1, 67680, Note_on_c, 11, 53, 114
1, 67680, Note_on_c, 11, 57, 119
1, 67680, Note_on_c, 11, 60, 124
1, 67680, Note_on_c, 12, 41, 114
1, 67680, Note_on_c, 12, 53, 78
1, 67680, Note_on_c, 12, 57, 106
1, 67680, Note_on_c, 12, 60, 119
1, 67680, Note_on_c, 12, 65, 119
1, 67716, Note_on_c, 1, 29, 0
1, 67720, Note_on_c, 9, 39, 0
1, 67720, Note_on_c, 9, 40, 0
1, 67720, Note_on_c, 9, 42, 0
1, 67778, Note_on_c, 11, 53, 0
1, 67780, Note_on_c, 11, 57, 0
1, 67805, Note_on_c, 11, 60, 0
1, 67886, Note_on_c, 3, 74, 0
1, 67920, Lyric_t, "VI"
1, 67920, Note_on_c, 1, 29, 106
1, 67920, Note_on_c, 3, 72, 115
1, 67920, Note_on_c, 9, 39, 83
1, 67920, Note_on_c, 9, 42, 76
1, 67920, Note_on_c, 11, 57, 45
1, 67920, Note_on_c, 11, 60, 50
1, 67954, Note_on_c, 11, 57, 0
1, 67960, Note_on_c, 9, 39, 0
1, 67960, Note_on_c, 9, 42, 0
1, 67981, Note_on_c, 11, 60, 0
1, 67997, Note_on_c, 12, 57, 0
1, 68003, Note_on_c, 3, 72, 0
1, 68160, Lyric_t, "AR"
1, 68160, Lyric_t, "\015"
1, 68160, Note_on_c, 3, 72, 113
1, 68160, Note_on_c, 9, 35, 118
1, 68160, Note_on_c, 9, 42, 76
1, 68160, Note_on_c, 12, 57, 84
1, 68200, Note_on_c, 9, 35, 0
1, 68200, Note_on_c, 9, 42, 0
1, 68265, Note_on_c, 12, 60, 0
1, 68269, Note_on_c, 12, 65, 0
1, 68293, Note_on_c, 12, 57, 0
1, 68396, Note_on_c, 3, 72, 0
1, 68400, Note_on_c, 1, 36, 102
1, 68400, Note_on_c, 9, 35, 118
1, 68400, Note_on_c, 9, 42, 76
1, 68400, Note_on_c, 11, 53, 110
1, 68400, Note_on_c, 11, 57, 114
1, 68400, Note_on_c, 11, 60, 124
1, 68400, Note_on_c, 12, 57, 114
1, 68400, Note_on_c, 12, 60, 119
1, 68400, Note_on_c, 12, 65, 119
1, 68440, Note_on_c, 9, 35, 0
1, 68440, Note_on_c, 9, 42, 0
1, 68472, Note_on_c, 12, 41, 0
1, 68499, Note_on_c, 1, 29, 0
1, 68521, Note_on_c, 12, 53, 0
1, 68548, Note_on_c, 1, 36, 0
1, 68640, Note_on_c, 1, 41, 87
1, 68640, Note_on_c, 9, 39, 83
1, 68640, Note_on_c, 9, 40, 118
1, 68640, Note_on_c, 9, 42, 76
1, 68640, Note_on_c, 11, 41, 106
1, 68640, Note_on_c, 12, 41, 114
1, 68640, Note_on_c, 12, 53, 110
1, 68649, Note_on_c, 11, 53, 0
1, 68680, Note_on_c, 9, 39, 0
1, 68680, Note_on_c, 9, 40, 0
1, 68680, Note_on_c, 9, 42, 0
1, 68696, Lyric_t, "AND "
1, 68696, Note_on_c, 3, 69, 111
1, 68696, Note_on_c, 12, 57, 0
1, 68708, Note_on_c, 1, 41, 0
1, 68796, Note_on_c, 11, 57, 0
1, 68817, Note_on_c, 12, 60, 0
1, 68869, Note_on_c, 11, 41, 0
1, 68880, Note_on_c, 1, 41, 114
1, 68880, Note_on_c, 9, 42, 76
1, 68880, Note_on_c, 11, 53, 67
1, 68880, Note_on_c, 12, 57, 94
1, 68880, Note_on_c, 12, 60, 54
1, 68916, Note_on_c, 3, 69, 0
1, 68920, Note_on_c, 9, 42, 0
1, 68931, Lyric_t, "YOUR "
1, 68931, Note_on_c, 3, 72, 115
1, 68982, Note_on_c, 12, 57, 0
1, 69000, Note_on_c, 12, 41, 0
1, 69002, Note_on_c, 11, 60, 0
1, 69003, Note_on_c, 11, 53, 0
1, 69007, Note_on_c, 12, 60, 0
1, 69035, Note_on_c, 12, 53, 0
1, 69077, Note_on_c, 12, 65, 0
1, 69088, Note_on_c, 3, 72, 0
1, 69116, Note_on_c, 7, 65, 0
1, 69116, Note_on_c, 7, 69, 0
1, 69120, Note_on_c, 7, 65, 65
1, 69120, Note_on_c, 7, 68, 90
1, 69120, Note_on_c, 9, 35, 118
1, 69120, Note_on_c, 9, 42, 76
1, 69120, Note_on_c, 11, 53, 87
1, 69120, Note_on_c, 11, 56, 109
1, 69120, Note_on_c, 11, 60, 102
1, 69120, Note_on_c, 12, 41, 114
1, 69120, Note_on_c, 12, 53, 99
1, 69120, Note_on_c, 12, 56, 97
1, 69120, Note_on_c, 12, 60, 106
1, 69120, Note_on_c, 12, 65, 91
1, 69143, Lyric_t, "MIL"
1, 69143, Note_on_c, 3, 75, 115
1, 69160, Note_on_c, 9, 35, 0
1, 69160, Note_on_c, 9, 42, 0
1, 69194, Note_on_c, 11, 56, 0
1, 69226, Note_on_c, 3, 75, 0
1, 69255, Note_on_c, 11, 60, 0
1, 69290, Note_on_c, 11, 53, 0
1, 69360, Note_on_c, 9, 42, 76
1, 69375, Lyric_t, "LION "
1, 69375, Note_on_c, 3, 75, 115
1, 69400, Note_on_c, 9, 42, 0
1, 69474, Note_on_c, 12, 60, 0
1, 69475, Note_on_c, 12, 56, 0
1, 69479, Note_on_c, 12, 41, 0
1, 69491, Note_on_c, 12, 53, 0
1, 69501, Note_on_c, 12, 65, 0
1, 69584, Note_on_c, 3, 75, 0
1, 69600, Note_on_c, 9, 39, 83
1, 69600, Note_on_c, 9, 40, 118
1, 69600, Note_on_c, 9, 42, 76
1, 69600, Note_on_c, 12, 41, 114
1, 69600, Note_on_c, 12, 53, 94
1, 69600, Note_on_c, 12, 56, 115
1, 69600, Note_on_c, 12, 60, 119
1, 69600, Note_on_c, 12, 65, 114
1, 69604, Note_on_c, 1, 41, 0
1, 69610, Lyric_t, "DOL"
1, 69610, Note_on_c, 3, 74, 112
1, 69640, Note_on_c, 9, 39, 0
1, 69640, Note_on_c, 9, 40, 0
1, 69640, Note_on_c, 9, 42, 0
1, 69817, Note_on_c, 3, 74, 0
1, 69840, Note_on_c, 1, 41, 114
1, 69840, Note_on_c, 9, 39, 83
1, 69840, Note_on_c, 9, 42, 76
1, 69840, Note_on_c, 11, 53, 102
1, 69840, Note_on_c, 11, 56, 127
1, 69840, Note_on_c, 11, 60, 124
1, 69848, Lyric_t, "LAR "
1, 69848, Note_on_c, 3, 72, 110
1, 69880, Note_on_c, 9, 39, 0
1, 69880, Note_on_c, 9, 42, 0
1, 69914, Note_on_c, 1, 41, 0
1, 69932, Note_on_c, 12, 56, 0
1, 69935, Note_on_c, 3, 72, 0
1, 70021, Note_on_c, 12, 60, 0
1, 70080, Note_on_c, 1, 41, 119
1, 70080, Note_on_c, 9, 35, 118
1, 70080, Note_on_c, 9, 42, 76
1, 70080, Note_on_c, 12, 56, 101
1, 70095, Lyric_t, "CAR"
1, 70095, Lyric_t, "\015"
1, 70095, Note_on_c, 3, 72, 113
1, 70111, Note_on_c, 11, 53, 0
1, 70120, Note_on_c, 9, 35, 0
1, 70120, Note_on_c, 9, 42, 0
1, 70165, Note_on_c, 11, 56, 0
1, 70172, Note_on_c, 12, 65, 0
1, 70192, Note_on_c, 12, 56, 0
1, 70238, Note_on_c, 11, 60, 0
1, 70265, Note_on_c, 1, 41, 0
1, 70320, Note_on_c, 1, 36, 119
1, 70320, Note_on_c, 9, 35, 118
1, 70320, Note_on_c, 9, 42, 76
1, 70320, Note_on_c, 11, 53, 87
1, 70320, Note_on_c, 12, 56, 120
1, 70320, Note_on_c, 12, 60, 127
1, 70320, Note_on_c, 12, 65, 114
1, 70357, Note_on_c, 12, 41, 0
1, 70360, Note_on_c, 9, 35, 0
1, 70360, Note_on_c, 9, 42, 0
1, 70384, Note_on_c, 12, 53, 0
1, 70398, Note_on_c, 11, 53, 0
1, 70485, Note_on_c, 3, 72, 0
1, 70546, Note_on_c, 1, 36, 0
1, 70560, Note_on_c, 1, 29, 119
1, 70560, Note_on_c, 9, 39, 83
1, 70560, Note_on_c, 9, 40, 118
1, 70560, Note_on_c, 9, 42, 76
1, 70560, Note_on_c, 11, 53, 94
1, 70560, Note_on_c, 11, 56, 127
1, 70560, Note_on_c, 11, 60, 114
1, 70560, Note_on_c, 12, 41, 114
1, 70560, Note_on_c, 12, 53, 124
1, 70600, Note_on_c, 9, 39, 0
1, 70600, Note_on_c, 9, 40, 0
1, 70600, Note_on_c, 9, 42, 0
1, 70612, Lyric_t, "I "
1, 70612, Note_on_c, 3, 69, 112
1, 70662, Note_on_c, 11, 53, 0
1, 70677, Note_on_c, 12, 56, 0
1, 70753, Note_on_c, 12, 60, 0
1, 70800, Note_on_c, 9, 42, 76
1, 70800, Note_on_c, 11, 53, 60
1, 70800, Note_on_c, 12, 56, 105
1, 70800, Note_on_c, 12, 60, 43
1, 70810, Note_on_c, 3, 69, 0
1, 70813, Note_on_c, 11, 56, 0
1, 70834, Lyric_t, "DON'T "
1, 70834, Note_on_c, 3, 72, 115
1, 70840, Note_on_c, 9, 42, 0
1, 70876, Note_on_c, 12, 60, 0
1, 70891, Note_on_c, 11, 60, 0
1, 70894, Note_on_c, 12, 56, 0
1, 70909, Note_on_c, 1, 29, 0
1, 70926, Note_on_c, 11, 53, 0
1, 70950, Note_on_c, 12, 41, 0
1, 70982, Note_on_c, 12, 53, 0
1, 70996, Note_on_c, 12, 65, 0
1, 71011, Note_on_c, 3, 72, 0
1, 71036, Note_on_c, 7, 65, 0
1, 71036, Note_on_c, 7, 68, 0
1, 71040, Note_on_c, 1, 36, 127
1, 71040, Note_on_c, 7, 64, 84
1, 71040, Note_on_c, 7, 67, 99
1, 71040, Note_on_c, 9, 35, 118
1, 71040, Note_on_c, 9, 42, 76
1, 71040, Note_on_c, 11, 48, 119
1, 71040, Note_on_c, 12, 48, 110
1, 71040, Note_on_c, 12, 55, 110
1, 71069, Lyric_t, "NEED "
1, 71069, Note_on_c, 3, 76, 115
1, 71080, Note_on_c, 9, 35, 0
1, 71080, Note_on_c, 9, 42, 0
1, 71157, Note_on_c, 3, 76, 0
1, 71276, Note_on_c, 11, 48, 0
1, 71280, Note_on_c, 9, 42, 76
1, 71301, Lyric_t, "THAT "
1, 71301, Note_on_c, 3, 76, 115
1, 71320, Note_on_c, 9, 42, 0
1, 71379, Note_on_c, 12, 55, 0
1, 71385, Note_on_c, 12, 48, 0
1, 71503, Note_on_c, 3, 76, 0
1, 71520, Note_on_c, 9, 39, 83
1, 71520, Note_on_c, 9, 40, 118
1, 71520, Note_on_c, 9, 42, 76
1, 71520, Note_on_c, 11, 52, 119
1, 71520, Note_on_c, 11, 55, 127
1, 71520, Note_on_c, 11, 60, 127
1, 71520, Note_on_c, 12, 48, 124
1, 71520, Note_on_c, 12, 55, 119
1, 71520, Note_on_c, 12, 60, 119
1, 71520, Note_on_c, 12, 64, 114
1, 71520, Note_on_c, 12, 67, 119
1, 71524, Note_on_c, 1, 36, 0
1, 71532, Lyric_t, "KIND "
1, 71532, Note_on_c, 3, 74, 112
1, 71560, Note_on_c, 9, 39, 0
1, 71560, Note_on_c, 9, 40, 0
1, 71560, Note_on_c, 9, 42, 0
1, 71657, Note_on_c, 11, 52, 0
1, 71748, Note_on_c, 3, 74, 0
1, 71760, Note_on_c, 1, 36, 127
1, 71760, Note_on_c, 9, 39, 83
1, 71760, Note_on_c, 9, 42, 76
1, 71760, Note_on_c, 11, 52, 64
1, 71784, Lyric_t, "OF "
1, 71784, Note_on_c, 3, 72, 115
1, 71800, Note_on_c, 9, 39, 0
1, 71800, Note_on_c, 9, 42, 0
1, 71816, Note_on_c, 12, 60, 0
1, 71833, Note_on_c, 11, 52, 0
1, 71835, Note_on_c, 11, 55, 0
1, 71847, Note_on_c, 11, 60, 0
1, 71919, Note_on_c, 1, 36, 0
1, 72000, Note_on_c, 1, 36, 124
1, 72000, Note_on_c, 9, 35, 118
1, 72000, Note_on_c, 9, 42, 76
1, 72000, Note_on_c, 12, 60, 94
1, 72028, Note_on_c, 3, 72, 0
1, 72032, Lyric_t, "GIR"
1, 72032, Note_on_c, 3, 72, 115
1, 72040, Note_on_c, 9, 35, 0
1, 72040, Note_on_c, 9, 42, 0
1, 72079, Note_on_c, 12, 67, 0
1, 72083, Note_on_c, 12, 64, 0
1, 72100, Note_on_c, 1, 36, 0
1, 72120, Note_on_c, 12, 60, 0
1, 72240, Note_on_c, 1, 36, 119
1, 72240, Note_on_c, 9, 35, 118
1, 72240, Note_on_c, 9, 42, 76
1, 72240, Note_on_c, 11, 52, 114
1, 72240, Note_on_c, 11, 55, 124
1, 72240, Note_on_c, 11, 60, 127
1, 72240, Note_on_c, 12, 60, 119
1, 72240, Note_on_c, 12, 64, 119
1, 72240, Note_on_c, 12, 67, 124
1, 72280, Note_on_c, 9, 35, 0
1, 72280, Note_on_c, 9, 42, 0
1, 72340, Note_on_c, 12, 48, 0
1, 72346, Note_on_c, 12, 55, 0
1, 72445, Note_on_c, 11, 52, 0
1, 72480, Note_on_c, 1, 31, 114
1, 72480, Note_on_c, 9, 39, 83
1, 72480, Note_on_c, 9, 40, 118
1, 72480, Note_on_c, 9, 42, 76
1, 72480, Note_on_c, 11, 48, 127
1, 72480, Note_on_c, 12, 48, 99
1, 72480, Note_on_c, 12, 55, 81
1, 72489, Note_on_c, 1, 36, 0
1, 72508, Note_on_c, 3, 72, 0
1, 72512, Lyric_t, "L"
1, 72512, Lyric_t, "\015"
1, 72512, Note_on_c, 3, 69, 115
1, 72520, Note_on_c, 9, 39, 0
1, 72520, Note_on_c, 9, 40, 0
1, 72520, Note_on_c, 9, 42, 0
1, 72560, Note_on_c, 12, 60, 0
1, 72647, Note_on_c, 11, 55, 0
1, 72675, Note_on_c, 1, 31, 0
1, 72691, Note_on_c, 11, 60, 0
1, 72697, Note_on_c, 11, 48, 0
1, 72720, Note_on_c, 1, 33, 119
1, 72720, Note_on_c, 9, 42, 76
1, 72720, Note_on_c, 11, 52, 110
1, 72720, Note_on_c, 12, 60, 110
1, 72758, Note_on_c, 3, 69, 0
1, 72760, Note_on_c, 9, 42, 0
1, 72801, Note_on_c, 12, 48, 0
1, 72802, Note_on_c, 12, 55, 0
1, 72824, Note_on_c, 11, 52, 0
1, 72927, Note_on_c, 1, 33, 0
1, 72960, Note_on_c, 1, 36, 127
1, 72960, Note_on_c, 9, 35, 118
1, 72960, Note_on_c, 9, 42, 76
1, 72960, Note_on_c, 11, 48, 119
1, 72960, Note_on_c, 12, 48, 110
1, 72960, Note_on_c, 12, 55, 110
1, 73000, Note_on_c, 9, 35, 0
1, 73000, Note_on_c, 9, 42, 0
1, 73019, Note_on_c, 7, 67, 0
1, 73023, Note_on_c, 7, 64, 0
1, 73196, Note_on_c, 11, 48, 0
1, 73200, Lyric_t, "BUT "
1, 73200, Note_on_c, 3, 76, 110
1, 73200, Note_on_c, 9, 42, 76
1, 73228, Note_on_c, 12, 60, 0
1, 73240, Note_on_c, 9, 42, 0
1, 73247, Note_on_c, 12, 64, 0
1, 73254, Note_on_c, 12, 67, 0
1, 73261, Note_on_c, 3, 76, 0
1, 73299, Note_on_c, 12, 55, 0
1, 73305, Note_on_c, 12, 48, 0
1, 73440, Lyric_t, "COULD "
1, 73440, Note_on_c, 3, 79, 111
1, 73440, Note_on_c, 9, 39, 83
1, 73440, Note_on_c, 9, 40, 118
1, 73440, Note_on_c, 9, 42, 76
1, 73440, Note_on_c, 11, 52, 119
1, 73440, Note_on_c, 11, 55, 127
1, 73440, Note_on_c, 11, 60, 127
1, 73440, Note_on_c, 12, 48, 124
1, 73440, Note_on_c, 12, 55, 119
1, 73440, Note_on_c, 12, 60, 119
1, 73440, Note_on_c, 12, 64, 114
1, 73440, Note_on_c, 12, 67, 119
1, 73444, Note_on_c, 1, 36, 0
1, 73480, Note_on_c, 9, 39, 0
1, 73480, Note_on_c, 9, 40, 0
1, 73480, Note_on_c, 9, 42, 0
1, 73577, Note_on_c, 11, 52, 0
1, 73664, Note_on_c, 3, 79, 0
1, 73680, Lyric_t, "YOU "
1, 73680, Note_on_c, 1, 36, 127
1, 73680, Note_on_c, 3, 76, 109
1, 73680, Note_on_c, 9, 39, 83
1, 73680, Note_on_c, 9, 42, 76
1, 73680, Note_on_c, 11, 52, 64
1, 73720, Note_on_c, 9, 39, 0
1, 73720, Note_on_c, 9, 42, 0
1, 73736, Note_on_c, 12, 60, 0
1, 73753, Note_on_c, 11, 52, 0
1, 73755, Note_on_c, 11, 55, 0
1, 73767, Note_on_c, 11, 60, 0
1, 73811, Note_on_c, 3, 76, 0
1, 73839, Note_on_c, 1, 36, 0
1, 73920, Lyric_t, "BE "
1, 73920, Note_on_c, 1, 36, 124
1, 73920, Note_on_c, 3, 74, 104
1, 73920, Note_on_c, 9, 35, 118
1, 73920, Note_on_c, 9, 42, 76
1, 73920, Note_on_c, 12, 60, 94
1, 73960, Note_on_c, 9, 35, 0
1, 73960, Note_on_c, 9, 42, 0
1, 73999, Note_on_c, 12, 67, 0
1, 74003, Note_on_c, 12, 64, 0
1, 74016, Control_c, 7, 11, 38
1, 74020, Note_on_c, 1, 36, 0
1, 74040, Note_on_c, 12, 60, 0
1, 74076, Control_c, 7, 11, 39
1, 74136, Control_c, 7, 11, 40
1, 74138, Note_on_c, 3, 74, 0
1, 74160, Lyric_t, "THE "
1, 74160, Note_on_c, 1, 36, 119
1, 74160, Note_on_c, 3, 72, 110
1, 74160, Note_on_c, 9, 35, 118
1, 74160, Note_on_c, 9, 42, 76
1, 74160, Note_on_c, 11, 52, 114
1, 74160, Note_on_c, 11, 55, 124
1, 74160, Note_on_c, 11, 60, 127
1, 74160, Note_on_c, 12, 60, 119
1, 74160, Note_on_c, 12, 64, 119
1, 74160, Note_on_c, 12, 67, 124
1, 74196, Control_c, 7, 11, 42
1, 74200, Note_on_c, 9, 35, 0
1, 74200, Note_on_c, 9, 42, 0
1, 74256, Control_c, 7, 11, 43
1, 74260, Note_on_c, 12, 48, 0
1, 74266, Note_on_c, 12, 55, 0
1, 74281, Note_on_c, 3, 72, 0
1, 74316, Control_c, 7, 11, 45
1, 74365, Note_on_c, 11, 52, 0
1, 74376, Control_c, 7, 11, 46
1, 74400, Lyric_t, "NEXT "
1, 74400, Note_on_c, 3, 72, 111
1, 74400, Note_on_c, 9, 39, 83
1, 74400, Note_on_c, 9, 40, 118
1, 74400, Note_on_c, 9, 42, 76
1, 74400, Note_on_c, 11, 48, 127
1, 74400, Note_on_c, 12, 48, 99
1, 74400, Note_on_c, 12, 55, 81
1, 74409, Note_on_c, 1, 36, 0
1, 74436, Control_c, 7, 11, 47
1, 74440, Note_on_c, 9, 39, 0
1, 74440, Note_on_c, 9, 40, 0
1, 74440, Note_on_c, 9, 42, 0
1, 74480, Note_on_c, 12, 60, 0
1, 74496, Control_c, 7, 11, 49
1, 74556, Control_c, 7, 11, 50
1, 74560, Note_on_c, 3, 72, 0
1, 74567, Note_on_c, 11, 55, 0
1, 74611, Note_on_c, 11, 60, 0
1, 74616, Control_c, 7, 11, 52
1, 74617, Note_on_c, 11, 48, 0
1, 74640, Lyric_t, "SEN"
1, 74640, Note_on_c, 3, 72, 105
1, 74640, Note_on_c, 9, 42, 76
1, 74640, Note_on_c, 11, 52, 110
1, 74640, Note_on_c, 12, 60, 110
1, 74676, Control_c, 7, 11, 53
1, 74680, Note_on_c, 9, 42, 0
1, 74721, Note_on_c, 12, 48, 0
1, 74722, Note_on_c, 12, 55, 0
1, 74736, Control_c, 7, 11, 55
1, 74744, Note_on_c, 11, 52, 0
1, 74780, Note_on_c, 3, 72, 0
1, 74788, Note_on_c, 12, 60, 0
1, 74796, Control_c, 7, 11, 56
1, 74807, Note_on_c, 12, 64, 0
1, 74814, Note_on_c, 12, 67, 0
1, 74856, Control_c, 7, 11, 57
1, 74880, Lyric_t, "SA"
1, 74880, Note_on_c, 1, 36, 127
1, 74880, Note_on_c, 3, 74, 110
1, 74880, Note_on_c, 7, 60, 113
1, 74880, Note_on_c, 7, 72, 113
1, 74880, Note_on_c, 9, 35, 118
1, 74880, Note_on_c, 9, 49, 91
1, 74880, Note_on_c, 11, 48, 124
1, 74880, Note_on_c, 11, 55, 110
1, 74880, Note_on_c, 11, 60, 110
1, 74880, Note_on_c, 12, 48, 110
1, 74880, Note_on_c, 12, 55, 110
1, 74916, Control_c, 7, 11, 59
1, 74920, Note_on_c, 9, 35, 0
1, 74920, Note_on_c, 9, 49, 0
1, 74976, Control_c, 7, 11, 60
1, 75036, Control_c, 7, 11, 62
1, 75051, Note_on_c, 11, 55, 0
1, 75051, Note_on_c, 11, 60, 0
1, 75096, Control_c, 7, 11, 63
1, 75100, Note_on_c, 11, 48, 0
1, 75120, Note_on_c, 9, 42, 76
1, 75156, Control_c, 7, 11, 65
1, 75160, Note_on_c, 9, 42, 0
1, 75216, Control_c, 7, 11, 66
1, 75219, Note_on_c, 12, 55, 0
1, 75225, Note_on_c, 12, 48, 0
1, 75276, Control_c, 7, 11, 67
1, 75305, Note_on_c, 3, 74, 0
1, 75336, Control_c, 7, 11, 69
1, 75360, Lyric_t, "TION"
1, 75360, Lyric_t, "\015"
1, 75360, Note_on_c, 3, 76, 107
1, 75360, Note_on_c, 9, 39, 83
1, 75360, Note_on_c, 9, 40, 118
1, 75360, Note_on_c, 9, 42, 76
1, 75360, Note_on_c, 11, 55, 45
1, 75360, Note_on_c, 12, 48, 124
1, 75360, Note_on_c, 12, 55, 119
1, 75360, Note_on_c, 12, 60, 119
1, 75360, Note_on_c, 12, 64, 114
1, 75360, Note_on_c, 12, 67, 119
1, 75360, Note_on_c, 14, 60, 119
1, 75360, Note_on_c, 14, 64, 110
1, 75360, Note_on_c, 14, 67, 114
1, 75378, Note_on_c, 11, 55, 0
1, 75396, Control_c, 7, 11, 70
1, 75400, Note_on_c, 9, 39, 0
1, 75400, Note_on_c, 9, 40, 0
1, 75400, Note_on_c, 9, 42, 0
1, 75407, Note_on_c, 1, 36, 0
1, 75456, Control_c, 7, 11, 72
1, 75516, Control_c, 7, 11, 73
1, 75576, Control_c, 7, 11, 75
1, 75595, Note_on_c, 14, 60, 0
1, 75599, Note_on_c, 14, 64, 0
1, 75600, Note_on_c, 1, 36, 124
1, 75600, Note_on_c, 6, 67, 106
1, 75600, Note_on_c, 9, 39, 83
1, 75600, Note_on_c, 9, 42, 76
1, 75600, Note_on_c, 11, 48, 127
1, 75600, Note_on_c, 11, 55, 124
1, 75600, Note_on_c, 11, 60, 114
1, 75615, Note_on_c, 14, 67, 0
1, 75636, Control_c, 7, 11, 76
1, 75640, Note_on_c, 9, 39, 0
1, 75640, Note_on_c, 9, 42, 0
1, 75656, Note_on_c, 12, 60, 0
1, 75696, Control_c, 7, 11, 77
1, 75756, Control_c, 7, 11, 79
1, 75798, Note_on_c, 1, 36, 0
1, 75816, Control_c, 7, 11, 80
1, 75840, Note_on_c, 1, 36, 106
1, 75840, Note_on_c, 9, 35, 118
1, 75840, Note_on_c, 9, 42, 76
1, 75840, Note_on_c, 12, 60, 94
1, 75876, Control_c, 7, 11, 82
1, 75880, Note_on_c, 9, 35, 0
1, 75880, Note_on_c, 9, 42, 0
1, 75902, Note_on_c, 11, 55, 0
1, 75903, Note_on_c, 11, 60, 0
1, 75919, Note_on_c, 12, 67, 0
1, 75923, Note_on_c, 12, 64, 0
1, 75936, Control_c, 7, 11, 83
1, 75960, Note_on_c, 12, 60, 0
1, 75996, Control_c, 7, 11, 85
1, 76056, Control_c, 7, 11, 86
1, 76080, Note_on_c, 6, 64, 78
1, 76080, Note_on_c, 9, 35, 118
1, 76080, Note_on_c, 9, 42, 76
1, 76080, Note_on_c, 11, 52, 53
1, 76080, Note_on_c, 12, 60, 119
1, 76080, Note_on_c, 12, 64, 119
1, 76080, Note_on_c, 12, 67, 124
1, 76108, Note_on_c, 11, 52, 0
1, 76116, Control_c, 7, 11, 87
1, 76120, Note_on_c, 9, 35, 0
1, 76120, Note_on_c, 9, 42, 0
1, 76174, Note_on_c, 11, 48, 0
1, 76176, Control_c, 7, 11, 89
1, 76180, Note_on_c, 12, 48, 0
1, 76186, Note_on_c, 12, 55, 0
1, 76236, Control_c, 7, 11, 90
1, 76296, Control_c, 7, 11, 92
1, 76320, Note_on_c, 9, 39, 83
1, 76320, Note_on_c, 9, 40, 118
1, 76320, Note_on_c, 9, 42, 76
1, 76320, Note_on_c, 11, 52, 119
1, 76320, Note_on_c, 11, 55, 119
1, 76320, Note_on_c, 11, 60, 124
1, 76320, Note_on_c, 12, 48, 99
1, 76320, Note_on_c, 12, 55, 81
1, 76320, Note_on_c, 14, 60, 124
1, 76320, Note_on_c, 14, 64, 119
1, 76320, Note_on_c, 14, 67, 124
1, 76356, Control_c, 7, 11, 93
1, 76360, Note_on_c, 9, 39, 0
1, 76360, Note_on_c, 9, 40, 0
1, 76360, Note_on_c, 9, 42, 0
1, 76400, Note_on_c, 12, 60, 0
1, 76402, Note_on_c, 11, 55, 0
1, 76416, Control_c, 7, 11, 95
1, 76428, Note_on_c, 3, 76, 0
1, 76476, Control_c, 7, 11, 96
1, 76492, Note_on_c, 14, 60, 0
1, 76495, Note_on_c, 11, 60, 0
1, 76497, Note_on_c, 1, 36, 0
1, 76507, Note_on_c, 14, 64, 0
1, 76509, Note_on_c, 11, 52, 0
1, 76530, Note_on_c, 14, 67, 0
1, 76536, Control_c, 7, 11, 97
1, 76560, Note_on_c, 1, 31, 91
1, 76560, Note_on_c, 6, 72, 97
1, 76560, Note_on_c, 9, 42, 76
1, 76560, Note_on_c, 11, 55, 26
1, 76560, Note_on_c, 12, 60, 110
1, 76596, Control_c, 7, 11, 99
1, 76600, Note_on_c, 9, 42, 0
1, 76611, Note_on_c, 11, 55, 0
1, 76641, Note_on_c, 12, 48, 0
1, 76642, Note_on_c, 12, 55, 0
1, 76656, Control_c, 7, 11, 100
1, 76716, Control_c, 7, 11, 102
1, 76776, Control_c, 7, 11, 103
1, 76783, Note_on_c, 1, 31, 0
1, 76800, Note_on_c, 1, 36, 124
1, 76800, Note_on_c, 9, 35, 118
1, 76800, Note_on_c, 9, 42, 76
1, 76800, Note_on_c, 11, 48, 114
1, 76800, Note_on_c, 12, 48, 119
1, 76800, Note_on_c, 12, 55, 124
1, 76836, Control_c, 7, 11, 105
1, 76840, Note_on_c, 9, 35, 0
1, 76840, Note_on_c, 9, 42, 0
1, 76896, Control_c, 7, 11, 106
1, 76956, Control_c, 7, 11, 107
1, 77016, Control_c, 7, 11, 109
1, 77040, Note_on_c, 9, 42, 76
1, 77041, Note_on_c, 11, 48, 0
1, 77069, Lyric_t, "OH "
1, 77069, Note_on_c, 3, 76, 109
1, 77076, Control_c, 7, 11, 110
1, 77080, Note_on_c, 9, 42, 0
1, 77132, Note_on_c, 3, 76, 0
1, 77136, Control_c, 7, 11, 112
1, 77171, Note_on_c, 12, 55, 0
1, 77178, Note_on_c, 12, 48, 0
1, 77188, Note_on_c, 12, 60, 0
1, 77196, Control_c, 7, 11, 113
1, 77207, Note_on_c, 12, 64, 0
1, 77210, Control_c, 6, 1, 2
1, 77214, Note_on_c, 12, 67, 0
1, 77248, Control_c, 6, 1, 7
1, 77256, Control_c, 7, 11, 115
1, 77277, Note_on_c, 1, 36, 0
1, 77280, Note_on_c, 9, 39, 83
1, 77280, Note_on_c, 9, 40, 118
1, 77280, Note_on_c, 9, 42, 76
1, 77280, Note_on_c, 12, 48, 124
1, 77280, Note_on_c, 12, 55, 110
1, 77280, Note_on_c, 12, 60, 110
1, 77280, Note_on_c, 12, 64, 114
1, 77280, Note_on_c, 12, 67, 110
1, 77280, Note_on_c, 14, 60, 127
1, 77280, Note_on_c, 14, 64, 124
1, 77280, Note_on_c, 14, 67, 124
1, 77286, Control_c, 6, 1, 12
1, 77309, Lyric_t, "WILL "
1, 77309, Note_on_c, 3, 79, 110
1, 77316, Control_c, 7, 11, 116
1, 77320, Note_on_c, 9, 39, 0
1, 77320, Note_on_c, 9, 40, 0
1, 77320, Note_on_c, 9, 42, 0
1, 77320, Control_c, 6, 1, 17
1, 77373, Control_c, 6, 1, 22
1, 77375, Note_on_c, 14, 60, 0
1, 77376, Control_c, 7, 11, 117
1, 77386, Note_on_c, 14, 64, 0
1, 77419, Control_c, 6, 1, 27
1, 77432, Note_on_c, 14, 67, 0
1, 77436, Control_c, 7, 11, 119
1, 77476, Control_c, 6, 1, 33
1, 77496, Control_c, 7, 11, 120
1, 77520, Note_on_c, 1, 36, 124
1, 77520, Note_on_c, 9, 39, 83
1, 77520, Note_on_c, 9, 42, 76
1, 77520, Note_on_c, 11, 52, 114
1, 77520, Note_on_c, 11, 55, 119
1, 77520, Note_on_c, 11, 60, 124
1, 77544, Control_c, 6, 1, 38
1, 77555, Note_on_c, 3, 79, 0
1, 77556, Control_c, 7, 11, 122
1, 77557, Lyric_t, "YOU "
1, 77557, Note_on_c, 3, 76, 109
1, 77560, Note_on_c, 9, 39, 0
1, 77560, Note_on_c, 9, 42, 0
1, 77590, Control_c, 6, 1, 43
1, 77595, Note_on_c, 12, 60, 0
1, 77616, Control_c, 7, 11, 123
1, 77647, Control_c, 6, 1, 48
1, 77676, Control_c, 7, 11, 125
1, 77685, Control_c, 6, 1, 53
1, 77687, Note_on_c, 3, 76, 0
1, 77736, Control_c, 7, 11, 126
1, 77757, Control_c, 6, 1, 56
1, 77760, Note_on_c, 9, 35, 118
1, 77760, Note_on_c, 9, 42, 76
1, 77760, Note_on_c, 12, 60, 81
1, 77760, Control_c, 7, 11, 127
1, 77788, Lyric_t, "SET "
1, 77788, Note_on_c, 3, 74, 110
1, 77800, Note_on_c, 9, 35, 0
1, 77800, Note_on_c, 9, 42, 0
1, 77823, Note_on_c, 11, 52, 0
1, 77845, Note_on_c, 11, 55, 0
1, 77875, Note_on_c, 12, 67, 0
1, 77879, Note_on_c, 12, 64, 0
1, 77885, Note_on_c, 11, 60, 0
1, 77902, Note_on_c, 12, 60, 0
1, 77914, Note_on_c, 1, 36, 0
1, 78000, Note_on_c, 1, 31, 114
1, 78000, Note_on_c, 9, 35, 118
1, 78000, Note_on_c, 9, 42, 76
1, 78000, Note_on_c, 11, 48, 106
1, 78000, Note_on_c, 12, 60, 110
1, 78000, Note_on_c, 12, 64, 119
1, 78000, Note_on_c, 12, 67, 119
1, 78014, Note_on_c, 3, 74, 0
1, 78033, Lyric_t, "THE "
1, 78033, Note_on_c, 3, 72, 110
1, 78040, Note_on_c, 9, 35, 0
1, 78040, Note_on_c, 9, 42, 0
1, 78061, Note_on_c, 12, 55, 0
1, 78069, Note_on_c, 12, 48, 0
1, 78119, Note_on_c, 11, 48, 0
1, 78134, Note_on_c, 3, 72, 0
1, 78165, Control_c, 6, 1, 43
1, 78172, Note_on_c, 6, 67, 0
1, 78178, Note_on_c, 6, 64, 0
1, 78196, Control_c, 6, 1, 0
1, 78202, Note_on_c, 1, 31, 0
1, 78210, Note_on_c, 6, 72, 0
1, 78240, Note_on_c, 1, 36, 119
1, 78240, Note_on_c, 9, 39, 83
1, 78240, Note_on_c, 9, 40, 118
1, 78240, Note_on_c, 9, 42, 76
1, 78240, Note_on_c, 11, 52, 127
1, 78240, Note_on_c, 11, 55, 127
1, 78240, Note_on_c, 11, 60, 127
1, 78240, Note_on_c, 12, 48, 119
1, 78240, Note_on_c, 12, 55, 119
1, 78240, Note_on_c, 14, 60, 119
1, 78240, Note_on_c, 14, 64, 119
1, 78240, Note_on_c, 14, 67, 119
1, 78262, Lyric_t, "LA"
1, 78262, Note_on_c, 3, 72, 111
1, 78280, Note_on_c, 9, 39, 0
1, 78280, Note_on_c, 9, 40, 0
1, 78280, Note_on_c, 9, 42, 0
1, 78300, Note_on_c, 12, 60, 0
1, 78347, Note_on_c, 14, 60, 0
1, 78352, Note_on_c, 14, 64, 0
1, 78389, Note_on_c, 14, 67, 0
1, 78411, Note_on_c, 3, 72, 0
1, 78433, Note_on_c, 1, 36, 0
1, 78461, Note_on_c, 11, 55, 0
1, 78468, Note_on_c, 11, 52, 0
1, 78480, Note_on_c, 1, 37, 127
1, 78480, Note_on_c, 9, 42, 76
1, 78480, Note_on_c, 11, 48, 114
1, 78480, Note_on_c, 12, 60, 114
1, 78491, Note_on_c, 11, 60, 0
1, 78507, Lyric_t, "TEST "
1, 78507, Note_on_c, 3, 69, 109
1, 78520, Note_on_c, 9, 42, 0
1, 78589, Note_on_c, 11, 48, 0
1, 78643, Note_on_c, 12, 64, 0
1, 78657, Note_on_c, 3, 69, 0
1, 78685, Note_on_c, 1, 37, 0
1, 78686, Note_on_c, 12, 48, 0
1, 78711, Note_on_c, 12, 55, 0
1, 78716, Note_on_c, 7, 60, 0
1, 78716, Note_on_c, 7, 72, 0
1, 78720, Note_on_c, 1, 38, 119
1, 78720, Note_on_c, 7, 62, 113
1, 78720, Note_on_c, 7, 74, 113
1, 78720, Note_on_c, 9, 35, 118
1, 78720, Note_on_c, 9, 42, 76
1, 78720, Note_on_c, 11, 50, 124
1, 78720, Note_on_c, 12, 50, 127
1, 78747, Note_on_c, 12, 67, 0
1, 78750, Lyric_t, "STY"
1, 78750, Note_on_c, 3, 72, 111
1, 78752, Note_on_c, 12, 60, 0
1, 78760, Note_on_c, 9, 35, 0
1, 78760, Note_on_c, 9, 42, 0
1, 78950, Note_on_c, 11, 50, 0
1, 78960, Note_on_c, 9, 42, 76
1, 79000, Note_on_c, 9, 42, 0
1, 79081, Note_on_c, 12, 50, 0
1, 79149, Note_on_c, 3, 72, 0
1, 79200, Note_on_c, 6, 62, 28
1, 79200, Note_on_c, 9, 39, 83
1, 79200, Note_on_c, 9, 40, 118
1, 79200, Note_on_c, 9, 42, 76
1, 79200, Note_on_c, 12, 50, 106
1, 79200, Note_on_c, 12, 57, 106
1, 79200, Note_on_c, 12, 60, 124
1, 79200, Note_on_c, 12, 66, 120
1, 79200, Note_on_c, 14, 60, 124
1, 79200, Note_on_c, 14, 66, 127
1, 79200, Note_on_c, 14, 69, 114
1, 79208, Lyric_t, "LE"
1, 79208, Lyric_t, "\015"
1, 79208, Note_on_c, 3, 69, 110
1, 79231, Note_on_c, 1, 38, 0
1, 79240, Note_on_c, 9, 39, 0
1, 79240, Note_on_c, 9, 40, 0
1, 79240, Note_on_c, 9, 42, 0
1, 79272, Note_on_c, 14, 66, 0
1, 79294, Note_on_c, 14, 60, 0
1, 79307, Note_on_c, 14, 69, 0
1, 79440, Note_on_c, 1, 38, 124
1, 79440, Note_on_c, 6, 69, 86
1, 79440, Note_on_c, 9, 39, 83
1, 79440, Note_on_c, 9, 42, 76
1, 79440, Note_on_c, 11, 54, 120
1, 79440, Note_on_c, 11, 57, 119
1, 79440, Note_on_c, 11, 60, 127
1, 79480, Note_on_c, 9, 39, 0
1, 79480, Note_on_c, 9, 42, 0
1, 79484, Note_on_c, 12, 57, 0
1, 79488, Control_c, 7, 11, 127
1, 79531, Note_on_c, 11, 54, 0
1, 79545, Note_on_c, 11, 57, 0
1, 79548, Control_c, 7, 11, 126
1, 79561, Note_on_c, 11, 60, 0
1, 79608, Control_c, 7, 11, 125
1, 79624, Note_on_c, 12, 60, 0
1, 79668, Control_c, 7, 11, 123
1, 79680, Note_on_c, 9, 35, 118
1, 79680, Note_on_c, 9, 42, 76
1, 79680, Note_on_c, 12, 57, 67
1, 79680, Note_on_c, 12, 60, 31
1, 79720, Note_on_c, 9, 35, 0
1, 79720, Note_on_c, 9, 42, 0
1, 79728, Control_c, 7, 11, 122
1, 79788, Control_c, 7, 11, 120
1, 79803, Note_on_c, 12, 60, 0
1, 79819, Note_on_c, 12, 66, 0
1, 79821, Note_on_c, 12, 57, 0
1, 79848, Control_c, 7, 11, 119
1, 79908, Control_c, 7, 11, 117
1, 79920, Note_on_c, 6, 67, 106
1, 79920, Note_on_c, 9, 35, 118
1, 79920, Note_on_c, 9, 42, 76
1, 79920, Note_on_c, 12, 57, 106
1, 79920, Note_on_c, 12, 60, 119
1, 79920, Note_on_c, 12, 66, 120
1, 79960, Note_on_c, 9, 35, 0
1, 79960, Note_on_c, 9, 42, 0
1, 79968, Control_c, 7, 11, 116
1, 80006, Note_on_c, 12, 50, 0
1, 80028, Control_c, 7, 11, 114
1, 80088, Control_c, 7, 11, 113
1, 80108, Note_on_c, 3, 69, 0
1, 80148, Control_c, 7, 11, 111
1, 80160, Note_on_c, 9, 39, 83
1, 80160, Note_on_c, 9, 40, 118
1, 80160, Note_on_c, 9, 42, 76
1, 80160, Note_on_c, 11, 54, 101
1, 80160, Note_on_c, 11, 57, 124
1, 80160, Note_on_c, 11, 60, 124
1, 80160, Note_on_c, 12, 50, 91
1, 80160, Note_on_c, 14, 60, 119
1, 80160, Note_on_c, 14, 66, 127
1, 80160, Note_on_c, 14, 69, 114
1, 80200, Note_on_c, 9, 39, 0
1, 80200, Note_on_c, 9, 40, 0
1, 80200, Note_on_c, 9, 42, 0
1, 80208, Control_c, 7, 11, 110
1, 80253, Note_on_c, 14, 60, 0
1, 80257, Note_on_c, 12, 57, 0
1, 80263, Note_on_c, 14, 66, 0
1, 80268, Control_c, 7, 11, 108
1, 80277, Note_on_c, 14, 69, 0
1, 80328, Control_c, 7, 11, 107
1, 80338, Note_on_c, 1, 38, 0
1, 80339, Note_on_c, 12, 60, 0
1, 80341, Note_on_c, 12, 66, 0
1, 80359, Note_on_c, 6, 67, 0
1, 80362, Note_on_c, 11, 54, 0
1, 80367, Note_on_c, 6, 62, 0
1, 80388, Control_c, 7, 11, 105
1, 80398, Note_on_c, 12, 50, 0
1, 80400, Note_on_c, 1, 33, 110
1, 80400, Note_on_c, 6, 66, 114
1, 80400, Note_on_c, 9, 42, 76
1, 80400, Note_on_c, 11, 54, 87
1, 80400, Note_on_c, 12, 57, 94
1, 80400, Note_on_c, 12, 60, 91
1, 80400, Note_on_c, 12, 66, 90
1, 80433, Note_on_c, 6, 69, 0
1, 80440, Note_on_c, 9, 42, 0
1, 80448, Control_c, 7, 11, 104
1, 80506, Note_on_c, 11, 54, 0
1, 80508, Control_c, 7, 11, 102
1, 80547, Note_on_c, 11, 57, 0
1, 80547, Note_on_c, 11, 60, 0
1, 80568, Control_c, 7, 11, 101
1, 80625, Note_on_c, 1, 33, 0
1, 80628, Control_c, 7, 11, 99
1, 80640, Note_on_c, 1, 38, 106
1, 80640, Note_on_c, 9, 35, 118
1, 80640, Note_on_c, 9, 42, 76
1, 80640, Note_on_c, 11, 50, 114
1, 80640, Note_on_c, 12, 50, 124
1, 80680, Note_on_c, 9, 35, 0
1, 80680, Note_on_c, 9, 42, 0
1, 80688, Control_c, 7, 11, 98
1, 80748, Control_c, 7, 11, 96
1, 80808, Control_c, 7, 11, 95
1, 80868, Control_c, 7, 11, 93
1, 80873, Note_on_c, 6, 66, 0
1, 80880, Note_on_c, 6, 62, 97
1, 80880, Note_on_c, 9, 42, 76
1, 80915, Note_on_c, 11, 50, 0
1, 80920, Note_on_c, 9, 42, 0
1, 80928, Control_c, 7, 11, 92
1, 80988, Control_c, 7, 11, 90
1, 80992, Note_on_c, 12, 50, 0
1, 81005, Note_on_c, 12, 57, 0
1, 81007, Note_on_c, 12, 66, 0
1, 81023, Note_on_c, 12, 60, 0
1, 81024, Control_c, 7, 11, 89
1, 81120, Note_on_c, 9, 39, 83
1, 81120, Note_on_c, 9, 40, 118
1, 81120, Note_on_c, 9, 42, 76
1, 81120, Note_on_c, 12, 50, 119
1, 81120, Note_on_c, 12, 57, 102
1, 81120, Note_on_c, 12, 60, 119
1, 81120, Note_on_c, 12, 66, 115
1, 81120, Note_on_c, 14, 60, 110
1, 81120, Note_on_c, 14, 66, 127
1, 81120, Note_on_c, 14, 69, 114
1, 81160, Note_on_c, 9, 39, 0
1, 81160, Note_on_c, 9, 40, 0
1, 81160, Note_on_c, 9, 42, 0
1, 81198, Note_on_c, 1, 38, 0
1, 81219, Note_on_c, 14, 66, 0
1, 81227, Note_on_c, 14, 60, 0
1, 81230, Note_on_c, 14, 69, 0
1, 81344, Note_on_c, 6, 62, 0
1, 81360, Lyric_t, "YOU "
1, 81360, Note_on_c, 1, 38, 119
1, 81360, Note_on_c, 3, 79, 111
1, 81360, Note_on_c, 6, 60, 97
1, 81360, Note_on_c, 9, 39, 83
1, 81360, Note_on_c, 9, 42, 76
1, 81360, Note_on_c, 11, 54, 120
1, 81360, Note_on_c, 11, 57, 106
1, 81360, Note_on_c, 11, 60, 114
1, 81400, Note_on_c, 9, 39, 0
1, 81400, Note_on_c, 9, 42, 0
1, 81462, Note_on_c, 11, 54, 0
1, 81497, Note_on_c, 12, 57, 0
1, 81502, Note_on_c, 11, 57, 0
1, 81504, Control_c, 7, 11, 90
1, 81518, Note_on_c, 11, 60, 0
1, 81600, Note_on_c, 9, 35, 118
1, 81600, Note_on_c, 9, 42, 76
1, 81600, Note_on_c, 12, 57, 72
1, 81640, Note_on_c, 9, 35, 0
1, 81640, Note_on_c, 9, 42, 0
1, 81715, Note_on_c, 1, 38, 0
1, 81717, Note_on_c, 12, 57, 0
1, 81774, Note_on_c, 12, 66, 0
1, 81782, Note_on_c, 12, 60, 0
1, 81800, Control_c, 6, 1, 5
1, 81832, Note_on_c, 3, 79, 0
1, 81832, Control_c, 6, 1, 10
1, 81840, Lyric_t, "DON'T "
1, 81840, Note_on_c, 1, 38, 110
1, 81840, Note_on_c, 3, 74, 110
1, 81840, Note_on_c, 9, 35, 118
1, 81840, Note_on_c, 9, 42, 76
1, 81840, Note_on_c, 11, 50, 106
1, 81840, Note_on_c, 12, 57, 110
1, 81840, Note_on_c, 12, 60, 110
1, 81840, Note_on_c, 12, 66, 101
1, 81870, Control_c, 6, 1, 15
1, 81880, Note_on_c, 9, 35, 0
1, 81880, Note_on_c, 9, 42, 0
1, 81908, Control_c, 6, 1, 20
1, 81946, Control_c, 6, 1, 28
1, 81977, Note_on_c, 12, 50, 0
1, 81982, Control_c, 6, 1, 36
1, 81984, Control_c, 7, 11, 91
1, 82018, Control_c, 6, 1, 44
1, 82048, Note_on_c, 1, 38, 0
1, 82060, Control_c, 6, 1, 52
1, 82073, Note_on_c, 11, 50, 0
1, 82080, Note_on_c, 1, 33, 106
1, 82080, Note_on_c, 9, 39, 83
1, 82080, Note_on_c, 9, 40, 118
1, 82080, Note_on_c, 9, 42, 76
1, 82080, Note_on_c, 11, 54, 120
1, 82080, Note_on_c, 11, 57, 114
1, 82080, Note_on_c, 11, 60, 119
1, 82080, Note_on_c, 12, 50, 114
1, 82080, Note_on_c, 14, 60, 110
1, 82080, Note_on_c, 14, 66, 127
1, 82080, Note_on_c, 14, 69, 114
1, 82090, Control_c, 6, 1, 57
1, 82120, Note_on_c, 9, 39, 0
1, 82120, Note_on_c, 9, 40, 0
1, 82120, Note_on_c, 9, 42, 0
1, 82123, Control_c, 6, 1, 62
1, 82169, Note_on_c, 12, 57, 0
1, 82172, Control_c, 6, 1, 67
1, 82176, Note_on_c, 14, 60, 0
1, 82187, Note_on_c, 14, 66, 0
1, 82187, Note_on_c, 14, 69, 0
1, 82208, Note_on_c, 1, 33, 0
1, 82242, Note_on_c, 11, 54, 0
1, 82308, Note_on_c, 11, 57, 0
1, 82320, Lyric_t, "NEED "
1, 82320, Note_on_c, 1, 31, 110
1, 82320, Note_on_c, 3, 75, 111
1, 82320, Note_on_c, 9, 42, 76
1, 82320, Note_on_c, 11, 50, 102
1, 82320, Note_on_c, 12, 57, 106
1, 82321, Note_on_c, 6, 60, 0
1, 82331, Note_on_c, 11, 60, 0
1, 82335, Control_c, 6, 1, 53
1, 82351, Note_on_c, 3, 74, 0
1, 82360, Note_on_c, 9, 42, 0
1, 82365, Control_c, 6, 1, 0
1, 82404, Note_on_c, 11, 50, 0
1, 82464, Control_c, 7, 11, 92
1, 82489, Note_on_c, 12, 57, 0
1, 82509, Note_on_c, 12, 60, 0
1, 82514, Note_on_c, 1, 31, 0
1, 82515, Note_on_c, 12, 66, 0
1, 82527, Note_on_c, 12, 50, 0
1, 82556, Note_on_c, 7, 62, 0
1, 82556, Note_on_c, 7, 74, 0
1, 82560, Note_on_c, 1, 29, 124
1, 82560, Note_on_c, 6, 60, 78
1, 82560, Note_on_c, 7, 60, 113
1, 82560, Note_on_c, 7, 72, 113
1, 82560, Note_on_c, 9, 35, 118
1, 82560, Note_on_c, 9, 42, 76
1, 82560, Note_on_c, 11, 41, 127
1, 82560, Note_on_c, 12, 41, 102
1, 82560, Note_on_c, 12, 53, 110
1, 82600, Note_on_c, 9, 35, 0
1, 82600, Note_on_c, 9, 42, 0
1, 82726, Note_on_c, 3, 75, 0
1, 82800, Lyric_t, "A "
1, 82800, Note_on_c, 3, 75, 115
1, 82800, Note_on_c, 9, 42, 76
1, 82840, Note_on_c, 9, 42, 0
1, 82926, Note_on_c, 3, 75, 0
1, 82944, Control_c, 7, 11, 93
1, 82946, Note_on_c, 12, 41, 0
1, 82972, Note_on_c, 12, 53, 0
1, 83038, Note_on_c, 11, 41, 0
1, 83040, Lyric_t, "CAT"
1, 83040, Note_on_c, 3, 74, 113
1, 83040, Note_on_c, 6, 65, 39
1, 83040, Note_on_c, 9, 39, 83
1, 83040, Note_on_c, 9, 40, 118
1, 83040, Note_on_c, 9, 42, 76
1, 83040, Note_on_c, 11, 53, 114
1, 83040, Note_on_c, 11, 57, 119
1, 83040, Note_on_c, 11, 60, 124
1, 83040, Note_on_c, 12, 41, 114
1, 83040, Note_on_c, 12, 53, 78
1, 83040, Note_on_c, 12, 57, 106
1, 83040, Note_on_c, 12, 60, 119
1, 83040, Note_on_c, 12, 65, 119
1, 83040, Note_on_c, 14, 60, 114
1, 83040, Note_on_c, 14, 65, 114
1, 83040, Note_on_c, 14, 69, 119
1, 83076, Note_on_c, 1, 29, 0
1, 83080, Note_on_c, 9, 39, 0
1, 83080, Note_on_c, 9, 40, 0
1, 83080, Note_on_c, 9, 42, 0
1, 83121, Note_on_c, 14, 65, 0
1, 83125, Note_on_c, 14, 60, 0
1, 83138, Note_on_c, 11, 53, 0
1, 83140, Note_on_c, 11, 57, 0
1, 83154, Note_on_c, 14, 69, 0
1, 83165, Note_on_c, 11, 60, 0
1, 83246, Note_on_c, 3, 74, 0
1, 83280, Lyric_t, "CHY "
1, 83280, Note_on_c, 1, 29, 106
1, 83280, Note_on_c, 3, 72, 115
1, 83280, Note_on_c, 6, 69, 101
1, 83280, Note_on_c, 9, 39, 83
1, 83280, Note_on_c, 9, 42, 76
1, 83280, Note_on_c, 11, 57, 45
1, 83280, Note_on_c, 11, 60, 50
1, 83314, Note_on_c, 11, 57, 0
1, 83320, Note_on_c, 9, 39, 0
1, 83320, Note_on_c, 9, 42, 0
1, 83341, Note_on_c, 11, 60, 0
1, 83357, Note_on_c, 12, 57, 0
1, 83363, Note_on_c, 3, 72, 0
1, 83424, Control_c, 7, 11, 94
1, 83484, Control_c, 7, 11, 95
1, 83520, Lyric_t, "SONG"
1, 83520, Lyric_t, "\015"
1, 83520, Note_on_c, 3, 72, 113
1, 83520, Note_on_c, 9, 35, 118
1, 83520, Note_on_c, 9, 42, 76
1, 83520, Note_on_c, 12, 57, 84
1, 83544, Control_c, 7, 11, 97
1, 83560, Note_on_c, 9, 35, 0
1, 83560, Note_on_c, 9, 42, 0
1, 83604, Control_c, 7, 11, 99
1, 83625, Note_on_c, 12, 60, 0
1, 83627, Note_on_c, 6, 65, 0
1, 83629, Note_on_c, 12, 65, 0
1, 83653, Note_on_c, 12, 57, 0
1, 83664, Control_c, 7, 11, 101
1, 83724, Control_c, 7, 11, 103
1, 83756, Note_on_c, 3, 72, 0
1, 83760, Note_on_c, 1, 36, 102
1, 83760, Note_on_c, 6, 65, 65
1, 83760, Note_on_c, 9, 35, 118
1, 83760, Note_on_c, 9, 42, 76
1, 83760, Note_on_c, 11, 53, 110
1, 83760, Note_on_c, 11, 57, 114
1, 83760, Note_on_c, 11, 60, 124
1, 83760, Note_on_c, 12, 57, 114
1, 83760, Note_on_c, 12, 60, 119
1, 83760, Note_on_c, 12, 65, 119
1, 83784, Control_c, 7, 11, 105
1, 83800, Note_on_c, 9, 35, 0
1, 83800, Note_on_c, 9, 42, 0
1, 83832, Note_on_c, 12, 41, 0
1, 83844, Control_c, 7, 11, 107
1, 83859, Note_on_c, 1, 29, 0
1, 83881, Note_on_c, 12, 53, 0
1, 83904, Control_c, 7, 11, 109
1, 83908, Note_on_c, 1, 36, 0
1, 83964, Control_c, 7, 11, 110
1, 84000, Note_on_c, 1, 41, 87
1, 84000, Note_on_c, 9, 39, 83
1, 84000, Note_on_c, 9, 40, 118
1, 84000, Note_on_c, 9, 42, 76
1, 84000, Note_on_c, 11, 41, 106
1, 84000, Note_on_c, 12, 41, 114
1, 84000, Note_on_c, 12, 53, 110
1, 84000, Note_on_c, 14, 60, 114
1, 84000, Note_on_c, 14, 65, 119
1, 84000, Note_on_c, 14, 69, 114
1, 84009, Note_on_c, 11, 53, 0
1, 84024, Control_c, 7, 11, 112
1, 84040, Note_on_c, 9, 39, 0
1, 84040, Note_on_c, 9, 40, 0
1, 84040, Note_on_c, 9, 42, 0
1, 84056, Lyric_t, "CAUSE "
1, 84056, Note_on_c, 3, 69, 111
1, 84056, Note_on_c, 12, 57, 0
1, 84068, Note_on_c, 1, 41, 0
1, 84081, Note_on_c, 14, 65, 0
1, 84084, Control_c, 7, 11, 114
1, 84086, Note_on_c, 14, 60, 0
1, 84138, Note_on_c, 14, 69, 0
1, 84144, Control_c, 7, 11, 116
1, 84156, Note_on_c, 11, 57, 0
1, 84177, Note_on_c, 12, 60, 0
1, 84204, Control_c, 7, 11, 118
1, 84229, Note_on_c, 11, 41, 0
1, 84240, Note_on_c, 1, 41, 114
1, 84240, Note_on_c, 9, 42, 76
1, 84240, Note_on_c, 11, 53, 67
1, 84240, Note_on_c, 12, 57, 94
1, 84240, Note_on_c, 12, 60, 54
1, 84264, Control_c, 7, 11, 120
1, 84276, Note_on_c, 3, 69, 0
1, 84280, Note_on_c, 6, 60, 0
1, 84280, Note_on_c, 9, 42, 0
1, 84291, Lyric_t, "THE "
1, 84291, Note_on_c, 3, 72, 115
1, 84324, Control_c, 7, 11, 122
1, 84327, Note_on_c, 6, 69, 0
1, 84342, Note_on_c, 12, 57, 0
1, 84353, Note_on_c, 6, 65, 0
1, 84360, Note_on_c, 12, 41, 0
1, 84362, Note_on_c, 11, 60, 0
1, 84363, Note_on_c, 11, 53, 0
1, 84367, Note_on_c, 12, 60, 0
1, 84384, Control_c, 7, 11, 124
1, 84395, Note_on_c, 12, 53, 0
1, 84437, Note_on_c, 12, 65, 0
1, 84444, Control_c, 7, 11, 125
1, 84448, Note_on_c, 3, 72, 0
1, 84480, Note_on_c, 6, 60, 89
1, 84480, Note_on_c, 9, 35, 118
1, 84480, Note_on_c, 9, 42, 76
1, 84480, Note_on_c, 11, 53, 87
1, 84480, Note_on_c, 11, 56, 109
1, 84480, Note_on_c, 11, 60, 102
1, 84480, Note_on_c, 12, 41, 114
1, 84480, Note_on_c, 12, 53, 99
1, 84480, Note_on_c, 12, 56, 97
1, 84480, Note_on_c, 12, 60, 106
1, 84480, Note_on_c, 12, 65, 91
1, 84480, Control_c, 7, 11, 127
1, 84503, Lyric_t, "KIDS "
1, 84503, Note_on_c, 3, 75, 115
1, 84520, Note_on_c, 9, 35, 0
1, 84520, Note_on_c, 9, 42, 0
1, 84554, Note_on_c, 11, 56, 0
1, 84586, Note_on_c, 3, 75, 0
1, 84615, Note_on_c, 11, 60, 0
1, 84650, Note_on_c, 11, 53, 0
1, 84720, Note_on_c, 9, 42, 76
1, 84735, Lyric_t, "WILL "
1, 84735, Note_on_c, 3, 75, 115
1, 84760, Note_on_c, 9, 42, 0
1, 84834, Note_on_c, 12, 60, 0
1, 84835, Note_on_c, 12, 56, 0
1, 84839, Note_on_c, 12, 41, 0
1, 84851, Note_on_c, 12, 53, 0
1, 84861, Note_on_c, 12, 65, 0
1, 84944, Note_on_c, 3, 75, 0
1, 84960, Note_on_c, 6, 65, 39
1, 84960, Note_on_c, 9, 39, 83
1, 84960, Note_on_c, 9, 40, 118
1, 84960, Note_on_c, 9, 42, 76
1, 84960, Note_on_c, 12, 41, 114
1, 84960, Note_on_c, 12, 53, 94
1, 84960, Note_on_c, 12, 56, 115
1, 84960, Note_on_c, 12, 60, 119
1, 84960, Note_on_c, 12, 65, 114
1, 84960, Note_on_c, 14, 60, 110
1, 84960, Note_on_c, 14, 65, 119
1, 84960, Note_on_c, 14, 68, 127
1, 84964, Note_on_c, 1, 41, 0
1, 84970, Lyric_t, "SING "
1, 84970, Note_on_c, 3, 74, 112
1, 85000, Note_on_c, 9, 39, 0
1, 85000, Note_on_c, 9, 40, 0
1, 85000, Note_on_c, 9, 42, 0
1, 85033, Note_on_c, 14, 68, 0
1, 85049, Note_on_c, 14, 60, 0
1, 85049, Note_on_c, 14, 65, 0
1, 85177, Note_on_c, 3, 74, 0
1, 85200, Note_on_c, 1, 41, 114
1, 85200, Note_on_c, 6, 68, 96
1, 85200, Note_on_c, 9, 39, 83
1, 85200, Note_on_c, 9, 42, 76
1, 85200, Note_on_c, 11, 53, 102
1, 85200, Note_on_c, 11, 56, 127
1, 85200, Note_on_c, 11, 60, 124
1, 85208, Lyric_t, "A"
1, 85208, Note_on_c, 3, 72, 110
1, 85240, Note_on_c, 9, 39, 0
1, 85240, Note_on_c, 9, 42, 0
1, 85274, Note_on_c, 1, 41, 0
1, 85292, Note_on_c, 12, 56, 0
1, 85295, Note_on_c, 3, 72, 0
1, 85381, Note_on_c, 12, 60, 0
1, 85440, Note_on_c, 1, 41, 119
1, 85440, Note_on_c, 9, 35, 118
1, 85440, Note_on_c, 9, 42, 76
1, 85440, Note_on_c, 12, 56, 101
1, 85455, Lyric_t, "LONG"
1, 85455, Lyric_t, "\015"
1, 85455, Note_on_c, 3, 72, 113
1, 85471, Note_on_c, 11, 53, 0
1, 85480, Note_on_c, 9, 35, 0
1, 85480, Note_on_c, 9, 42, 0
1, 85525, Note_on_c, 11, 56, 0
1, 85532, Note_on_c, 12, 65, 0
1, 85547, Note_on_c, 6, 65, 0
1, 85552, Note_on_c, 12, 56, 0
1, 85598, Note_on_c, 11, 60, 0
1, 85625, Note_on_c, 1, 41, 0
1, 85680, Note_on_c, 1, 36, 119
1, 85680, Note_on_c, 6, 65, 58
1, 85680, Note_on_c, 9, 35, 118
1, 85680, Note_on_c, 9, 42, 76
1, 85680, Note_on_c, 11, 53, 87
1, 85680, Note_on_c, 12, 56, 120
1, 85680, Note_on_c, 12, 60, 127
1, 85680, Note_on_c, 12, 65, 114
1, 85717, Note_on_c, 12, 41, 0
1, 85720, Note_on_c, 9, 35, 0
1, 85720, Note_on_c, 9, 42, 0
1, 85744, Note_on_c, 12, 53, 0
1, 85758, Note_on_c, 11, 53, 0
1, 85845, Note_on_c, 3, 72, 0
1, 85906, Note_on_c, 1, 36, 0
1, 85920, Note_on_c, 1, 29, 119
1, 85920, Note_on_c, 9, 39, 83
1, 85920, Note_on_c, 9, 40, 118
1, 85920, Note_on_c, 9, 42, 76
1, 85920, Note_on_c, 11, 53, 94
1, 85920, Note_on_c, 11, 56, 127
1, 85920, Note_on_c, 11, 60, 114
1, 85920, Note_on_c, 12, 41, 114
1, 85920, Note_on_c, 12, 53, 124
1, 85920, Note_on_c, 14, 60, 106
1, 85920, Note_on_c, 14, 65, 114
1, 85920, Note_on_c, 14, 68, 127
1, 85960, Note_on_c, 9, 39, 0
1, 85960, Note_on_c, 9, 40, 0
1, 85960, Note_on_c, 9, 42, 0
1, 85972, Lyric_t, "WHEN "
1, 85972, Note_on_c, 3, 68, 112
1, 86002, Note_on_c, 14, 68, 0
1, 86011, Note_on_c, 14, 65, 0
1, 86022, Note_on_c, 11, 53, 0
1, 86028, Note_on_c, 14, 60, 0
1, 86037, Note_on_c, 12, 56, 0
1, 86113, Note_on_c, 12, 60, 0
1, 86160, Note_on_c, 9, 42, 76
1, 86160, Note_on_c, 11, 53, 60
1, 86160, Note_on_c, 12, 56, 105
1, 86160, Note_on_c, 12, 60, 43
1, 86170, Note_on_c, 3, 68, 0
1, 86173, Note_on_c, 11, 56, 0
1, 86194, Lyric_t, "YOU "
1, 86194, Note_on_c, 3, 72, 115
1, 86200, Note_on_c, 9, 42, 0
1, 86236, Note_on_c, 12, 60, 0
1, 86248, Note_on_c, 6, 60, 0
1, 86251, Note_on_c, 11, 60, 0
1, 86254, Note_on_c, 12, 56, 0
1, 86269, Note_on_c, 1, 29, 0
1, 86273, Note_on_c, 6, 68, 0
1, 86286, Note_on_c, 11, 53, 0
1, 86310, Note_on_c, 12, 41, 0
1, 86314, Note_on_c, 6, 65, 0
1, 86342, Note_on_c, 12, 53, 0
1, 86356, Note_on_c, 12, 65, 0
1, 86371, Note_on_c, 3, 72, 0
1, 86400, Note_on_c, 1, 36, 127
1, 86400, Note_on_c, 6, 64, 45
1, 86400, Note_on_c, 6, 67, 74
1, 86400, Note_on_c, 6, 72, 47
1, 86400, Note_on_c, 9, 35, 118
1, 86400, Note_on_c, 9, 42, 76
1, 86400, Note_on_c, 11, 48, 119
1, 86400, Note_on_c, 12, 48, 110
1, 86400, Note_on_c, 12, 55, 110
1, 86429, Lyric_t, "SELL "
1, 86429, Note_on_c, 3, 76, 115
1, 86440, Note_on_c, 9, 35, 0
1, 86440, Note_on_c, 9, 42, 0
1, 86517, Note_on_c, 3, 76, 0
1, 86636, Note_on_c, 11, 48, 0
1, 86640, Note_on_c, 9, 42, 76
1, 86661, Lyric_t, "IT "
1, 86661, Note_on_c, 3, 76, 115
1, 86680, Note_on_c, 9, 42, 0
1, 86739, Note_on_c, 12, 55, 0
1, 86745, Note_on_c, 12, 48, 0
1, 86757, Note_on_c, 6, 72, 0
1, 86784, Note_on_c, 6, 64, 0
1, 86788, Note_on_c, 6, 67, 0
1, 86863, Note_on_c, 3, 76, 0
1, 86880, Note_on_c, 6, 64, 65
1, 86880, Note_on_c, 6, 67, 65
1, 86880, Note_on_c, 6, 72, 58
1, 86880, Note_on_c, 9, 39, 83
1, 86880, Note_on_c, 9, 40, 118
1, 86880, Note_on_c, 9, 42, 76
1, 86880, Note_on_c, 11, 52, 119
1, 86880, Note_on_c, 11, 55, 127
1, 86880, Note_on_c, 11, 60, 127
1, 86880, Note_on_c, 12, 48, 124
1, 86880, Note_on_c, 12, 55, 119
1, 86880, Note_on_c, 12, 60, 119
1, 86880, Note_on_c, 12, 64, 114
1, 86880, Note_on_c, 12, 67, 119
1, 86880, Note_on_c, 14, 60, 119
1, 86880, Note_on_c, 14, 64, 124
1, 86880, Note_on_c, 14, 67, 127
1, 86884, Note_on_c, 1, 36, 0
1, 86892, Lyric_t, "WITH "
1, 86892, Note_on_c, 3, 74, 112
1, 86920, Note_on_c, 9, 39, 0
1, 86920, Note_on_c, 9, 40, 0
1, 86920, Note_on_c, 9, 42, 0
1, 86953, Note_on_c, 14, 64, 0
1, 86969, Note_on_c, 14, 60, 0
1, 86979, Note_on_c, 14, 67, 0
1, 87017, Note_on_c, 11, 52, 0
1, 87080, Note_on_c, 6, 64, 0
1, 87081, Note_on_c, 6, 67, 0
1, 87081, Note_on_c, 6, 72, 0
1, 87108, Note_on_c, 3, 74, 0
1, 87120, Note_on_c, 1, 36, 127
1, 87120, Note_on_c, 6, 64, 89
1, 87120, Note_on_c, 6, 67, 81
1, 87120, Note_on_c, 6, 72, 81
1, 87120, Note_on_c, 9, 39, 83
1, 87120, Note_on_c, 9, 42, 76
1, 87120, Note_on_c, 11, 52, 64
1, 87144, Lyric_t, "A "
1, 87144, Note_on_c, 3, 72, 115
1, 87160, Note_on_c, 9, 39, 0
1, 87160, Note_on_c, 9, 42, 0
1, 87176, Note_on_c, 12, 60, 0
1, 87193, Note_on_c, 11, 52, 0
1, 87195, Note_on_c, 11, 55, 0
1, 87207, Note_on_c, 11, 60, 0
1, 87279, Note_on_c, 1, 36, 0
1, 87360, Note_on_c, 1, 36, 124
1, 87360, Note_on_c, 9, 35, 118
1, 87360, Note_on_c, 9, 42, 76
1, 87360, Note_on_c, 12, 60, 94
1, 87388, Note_on_c, 3, 72, 0
1, 87392, Lyric_t, "SMI"
1, 87392, Note_on_c, 3, 72, 115
1, 87400, Note_on_c, 9, 35, 0
1, 87400, Note_on_c, 9, 42, 0
1, 87439, Note_on_c, 12, 67, 0
1, 87443, Note_on_c, 12, 64, 0
1, 87460, Note_on_c, 1, 36, 0
1, 87480, Note_on_c, 12, 60, 0
1, 87510, Note_on_c, 6, 72, 0
1, 87512, Note_on_c, 6, 64, 0
1, 87530, Note_on_c, 6, 67, 0
1, 87600, Note_on_c, 1, 36, 119
1, 87600, Note_on_c, 6, 64, 93
1, 87600, Note_on_c, 6, 67, 89
1, 87600, Note_on_c, 6, 72, 71
1, 87600, Note_on_c, 9, 35, 118
1, 87600, Note_on_c, 9, 42, 76
1, 87600, Note_on_c, 11, 52, 114
1, 87600, Note_on_c, 11, 55, 124
1, 87600, Note_on_c, 11, 60, 127
1, 87600, Note_on_c, 12, 60, 119
1, 87600, Note_on_c, 12, 64, 119
1, 87600, Note_on_c, 12, 67, 124
1, 87640, Note_on_c, 9, 35, 0
1, 87640, Note_on_c, 9, 42, 0
1, 87700, Note_on_c, 12, 48, 0
1, 87706, Note_on_c, 12, 55, 0
1, 87805, Note_on_c, 11, 52, 0
1, 87840, Note_on_c, 1, 31, 114
1, 87840, Note_on_c, 9, 39, 83
1, 87840, Note_on_c, 9, 40, 118
1, 87840, Note_on_c, 9, 42, 76
1, 87840, Note_on_c, 11, 48, 127
1, 87840, Note_on_c, 12, 48, 99
1, 87840, Note_on_c, 12, 55, 81
1, 87840, Note_on_c, 14, 60, 114
1, 87840, Note_on_c, 14, 64, 124
1, 87840, Note_on_c, 14, 67, 127
1, 87849, Note_on_c, 1, 36, 0
1, 87868, Note_on_c, 3, 72, 0
1, 87872, Lyric_t, "LE"
1, 87872, Lyric_t, "\015"
1, 87872, Note_on_c, 3, 69, 115
1, 87880, Note_on_c, 9, 39, 0
1, 87880, Note_on_c, 9, 40, 0
1, 87880, Note_on_c, 9, 42, 0
1, 87920, Note_on_c, 12, 60, 0
1, 87962, Note_on_c, 14, 60, 0
1, 87971, Note_on_c, 14, 64, 0
1, 87987, Note_on_c, 14, 67, 0
1, 87994, Note_on_c, 6, 72, 0
1, 88007, Note_on_c, 11, 55, 0
1, 88010, Note_on_c, 6, 64, 0
1, 88035, Note_on_c, 1, 31, 0
1, 88051, Note_on_c, 11, 60, 0
1, 88057, Note_on_c, 11, 48, 0
1, 88080, Note_on_c, 1, 33, 119
1, 88080, Note_on_c, 6, 64, 71
1, 88080, Note_on_c, 6, 72, 34
1, 88080, Note_on_c, 9, 42, 76
1, 88080, Note_on_c, 11, 52, 110
1, 88080, Note_on_c, 12, 60, 110
1, 88118, Note_on_c, 3, 69, 0
1, 88120, Note_on_c, 9, 42, 0
1, 88161, Note_on_c, 12, 48, 0
1, 88162, Note_on_c, 12, 55, 0
1, 88184, Note_on_c, 11, 52, 0
1, 88228, Note_on_c, 12, 60, 0
1, 88244, Note_on_c, 6, 64, 0
1, 88247, Note_on_c, 12, 64, 0
1, 88254, Note_on_c, 7, 60, 0
1, 88254, Note_on_c, 7, 72, 0
1, 88254, Note_on_c, 12, 67, 0
1, 88266, Note_on_c, 6, 67, 0
1, 88275, Note_on_c, 6, 72, 0
1, 88287, Note_on_c, 1, 33, 0
1, 88320, Note_on_c, 1, 36, 127
1, 88320, Note_on_c, 6, 64, 111
1, 88320, Note_on_c, 6, 67, 106
1, 88320, Note_on_c, 6, 72, 106
1, 88320, Note_on_c, 9, 40, 118
1, 88320, Note_on_c, 9, 42, 76
1, 88320, Note_on_c, 11, 48, 127
1, 88320, Note_on_c, 11, 52, 124
1, 88320, Note_on_c, 11, 55, 127
1, 88320, Note_on_c, 11, 60, 127
1, 88320, Note_on_c, 12, 48, 119
1, 88320, Note_on_c, 12, 55, 124
1, 88320, Note_on_c, 12, 60, 124
1, 88320, Note_on_c, 12, 64, 124
1, 88320, Note_on_c, 14, 60, 124
1, 88320, Note_on_c, 14, 64, 119
1, 88320, Note_on_c, 14, 67, 124
1, 88327, Note_on_c, 7, 72, 127
1, 88333, Note_on_c, 7, 60, 127
1, 88360, Note_on_c, 9, 40, 0
1, 88360, Note_on_c, 9, 42, 0
1, 88414, Note_on_c, 14, 60, 0
1, 88423, Note_on_c, 14, 64, 0
1, 88428, Note_on_c, 14, 67, 0
1, 88525, Note_on_c, 7, 60, 0
1, 88528, Note_on_c, 11, 52, 0
1, 88534, Note_on_c, 7, 72, 0
1, 88545, Note_on_c, 6, 64, 0
1, 88546, Note_on_c, 11, 55, 0
1, 88549, Note_on_c, 11, 60, 0
1, 88553, Note_on_c, 11, 48, 0
1, 88555, Note_on_c, 6, 67, 0
1, 88563, Note_on_c, 6, 72, 0
1, 88583, Note_on_c, 1, 36, 0
1, 88691, Note_on_c, 12, 55, 0
1, 88691, Note_on_c, 12, 60, 0
1, 88691, Note_on_c, 12, 64, 0
1, 88698, Note_on_c, 12, 48, 0
1, 88786, Note_on_c, 7, 72, 127
1, 88788, Note_on_c, 7, 60, 127
1, 88800, Note_on_c, 1, 36, 127
1, 88800, Note_on_c, 6, 64, 101
1, 88800, Note_on_c, 6, 67, 106
1, 88800, Note_on_c, 6, 72, 101
1, 88800, Note_on_c, 9, 40, 118
1, 88800, Note_on_c, 9, 42, 76
1, 88800, Note_on_c, 11, 48, 127
1, 88800, Note_on_c, 11, 52, 124
1, 88800, Note_on_c, 11, 55, 127
1, 88800, Note_on_c, 11, 60, 127
1, 88800, Note_on_c, 12, 48, 119
1, 88800, Note_on_c, 12, 55, 124
1, 88800, Note_on_c, 12, 60, 124
1, 88800, Note_on_c, 12, 64, 124
1, 88840, Note_on_c, 9, 40, 0
1, 88840, Note_on_c, 9, 42, 0
1, 89008, Note_on_c, 11, 52, 0
1, 89025, Note_on_c, 6, 64, 0
1, 89026, Note_on_c, 11, 55, 0
1, 89027, Note_on_c, 7, 60, 0
1, 89029, Note_on_c, 11, 60, 0
1, 89033, Note_on_c, 6, 72, 0
1, 89033, Note_on_c, 11, 48, 0
1, 89040, Lyric_t, "SO "
1, 89040, Note_on_c, 3, 64, 115
1, 89040, Note_on_c, 7, 72, 0
1, 89041, Note_on_c, 6, 67, 0
1, 89063, Note_on_c, 1, 36, 0
1, 89117, Note_on_c, 3, 64, 0
1, 89171, Note_on_c, 12, 55, 0
1, 89171, Note_on_c, 12, 60, 0
1, 89171, Note_on_c, 12, 64, 0
1, 89178, Note_on_c, 12, 48, 0
1, 89280, Lyric_t, "DON'T "
1, 89280, Note_on_c, 3, 64, 115
1, 89507, Note_on_c, 3, 64, 0
1, 89520, Lyric_t, "GO "
1, 89520, Note_on_c, 3, 67, 115
1, 90000, Lyric_t, "HIGH"
1, 90000, Note_on_c, 3, 71, 115
1, 90000, Note_on_c, 4, 59, 106
1, 90000, Note_on_c, 4, 62, 110
1, 90000, Note_on_c, 4, 64, 114
1, 90000, Note_on_c, 4, 67, 110
1, 90001, Note_on_c, 3, 67, 0
1, 90240, Note_on_c, 1, 28, 127
1, 90240, Note_on_c, 2, 62, 97
1, 90240, Note_on_c, 2, 67, 97
1, 90240, Note_on_c, 2, 71, 97
1, 90240, Note_on_c, 6, 40, 127
1, 90240, Note_on_c, 6, 47, 124
1, 90240, Note_on_c, 9, 35, 118
1, 90240, Note_on_c, 9, 49, 91
1, 90240, Note_on_c, 11, 40, 119
1, 90240, Note_on_c, 11, 59, 110
1, 90240, Note_on_c, 11, 62, 119
1, 90240, Note_on_c, 11, 67, 119
1, 90240, Note_on_c, 12, 52, 127
1, 90240, Note_on_c, 12, 59, 119
1, 90240, Note_on_c, 12, 62, 106
1, 90240, Note_on_c, 13, 71, 72
1, 90280, Note_on_c, 9, 35, 0
1, 90280, Note_on_c, 9, 49, 0
1, 90480, Note_on_c, 9, 42, 76
1, 90480, Note_on_c, 13, 76, 75
1, 90485, Note_on_c, 13, 71, 0
1, 90520, Note_on_c, 9, 42, 0
1, 90569, Note_on_c, 11, 59, 0
1, 90584, Note_on_c, 6, 47, 0
1, 90601, Note_on_c, 6, 40, 0
1, 90640, Note_on_c, 12, 59, 0
1, 90668, Note_on_c, 11, 62, 0
1, 90710, Note_on_c, 11, 67, 0
1, 90720, Note_on_c, 6, 40, 87
1, 90720, Note_on_c, 6, 47, 124
1, 90720, Note_on_c, 9, 40, 118
1, 90720, Note_on_c, 9, 42, 76
1, 90720, Note_on_c, 11, 52, 50
1, 90720, Note_on_c, 11, 59, 94
1, 90720, Note_on_c, 11, 62, 60
1, 90720, Note_on_c, 11, 67, 33
1, 90720, Note_on_c, 12, 59, 87
1, 90720, Note_on_c, 13, 71, 81
1, 90723, Note_on_c, 1, 28, 0
1, 90742, Note_on_c, 6, 40, 0
1, 90760, Note_on_c, 9, 40, 0
1, 90760, Note_on_c, 9, 42, 0
1, 90778, Note_on_c, 11, 52, 0
1, 90784, Note_on_c, 6, 47, 0
1, 90786, Note_on_c, 11, 62, 0
1, 90802, Note_on_c, 11, 67, 0
1, 90802, Note_on_c, 12, 52, 0
1, 90808, Note_on_c, 11, 59, 0
1, 90815, Note_on_c, 12, 62, 0
1, 90817, Note_on_c, 12, 59, 0
1, 90858, Note_on_c, 11, 40, 0
1, 90885, Note_on_c, 13, 76, 0
1, 90960, Note_on_c, 1, 28, 124
1, 90960, Note_on_c, 6, 40, 127
1, 90960, Note_on_c, 6, 47, 127
1, 90960, Note_on_c, 9, 42, 76
1, 90960, Note_on_c, 11, 40, 114
1, 90960, Note_on_c, 11, 52, 114
1, 90960, Note_on_c, 11, 59, 119
1, 90960, Note_on_c, 11, 62, 119
1, 90960, Note_on_c, 11, 67, 124
1, 90960, Note_on_c, 12, 52, 127
1, 90960, Note_on_c, 12, 59, 119
1, 90960, Note_on_c, 12, 62, 124
1, 90960, Note_on_c, 13, 79, 110
1, 91000, Note_on_c, 9, 42, 0
1, 91004, Note_on_c, 13, 71, 0
1, 91200, Note_on_c, 9, 35, 118
1, 91200, Note_on_c, 9, 42, 76
1, 91200, Note_on_c, 13, 71, 87
1, 91211, Note_on_c, 6, 47, 0
1, 91216, Note_on_c, 11, 59, 0
1, 91238, Note_on_c, 6, 40, 0
1, 91240, Note_on_c, 9, 35, 0
1, 91240, Note_on_c, 9, 42, 0
1, 91248, Note_on_c, 1, 28, 0
1, 91328, Note_on_c, 12, 59, 0
1, 91347, Note_on_c, 12, 62, 0
1, 91350, Note_on_c, 13, 79, 0
1, 91414, Note_on_c, 11, 67, 0
1, 91440, Note_on_c, 1, 28, 106
1, 91440, Note_on_c, 6, 47, 114
1, 91440, Note_on_c, 9, 35, 118
1, 91440, Note_on_c, 9, 42, 76
1, 91440, Note_on_c, 11, 59, 84
1, 91440, Note_on_c, 12, 59, 119
1, 91440, Note_on_c, 12, 62, 119
1, 91440, Note_on_c, 13, 76, 91
1, 91442, Note_on_c, 11, 62, 0
1, 91456, Note_on_c, 13, 71, 0
1, 91480, Note_on_c, 9, 35, 0
1, 91480, Note_on_c, 9, 42, 0
1, 91503, Note_on_c, 6, 47, 0
1, 91505, Note_on_c, 12, 52, 0
1, 91538, Note_on_c, 11, 59, 0
1, 91665, Note_on_c, 1, 28, 0
1, 91680, Note_on_c, 1, 31, 119
1, 91680, Note_on_c, 6, 47, 127
1, 91680, Note_on_c, 6, 52, 127
1, 91680, Note_on_c, 9, 40, 118
1, 91680, Note_on_c, 9, 42, 76
1, 91680, Note_on_c, 11, 59, 114
1, 91680, Note_on_c, 11, 62, 124
1, 91680, Note_on_c, 11, 67, 127
1, 91680, Note_on_c, 12, 52, 124
1, 91680, Note_on_c, 13, 71, 81
1, 91720, Note_on_c, 9, 40, 0
1, 91720, Note_on_c, 9, 42, 0
1, 91721, Note_on_c, 11, 52, 0
1, 91729, Note_on_c, 12, 59, 0
1, 91748, Note_on_c, 11, 40, 0
1, 91766, Note_on_c, 13, 76, 0
1, 91866, Note_on_c, 1, 31, 0
1, 91883, Note_on_c, 13, 71, 0
1, 91909, Note_on_c, 6, 52, 0
1, 91918, Note_on_c, 6, 47, 0
1, 91919, Note_on_c, 3, 71, 0
1, 91920, Lyric_t, "ER"
1, 91920, Lyric_t, "\015"
1, 91920, Note_on_c, 1, 32, 127
1, 91920, Note_on_c, 3, 67, 115
1, 91920, Note_on_c, 6, 40, 119
1, 91920, Note_on_c, 9, 42, 76
1, 91920, Note_on_c, 11, 52, 119
1, 91920, Note_on_c, 12, 59, 91
1, 91920, Note_on_c, 13, 76, 72
1, 91959, Note_on_c, 11, 67, 0
1, 91960, Note_on_c, 9, 42, 0
1, 91963, Note_on_c, 11, 62, 0
1, 91964, Note_on_c, 11, 59, 0
1, 91977, Note_on_c, 12, 62, 0
1, 91990, Note_on_c, 12, 52, 0
1, 91999, Note_on_c, 6, 40, 0
1, 92036, Note_on_c, 12, 59, 0
1, 92088, Note_on_c, 11, 52, 0
1, 92136, Note_on_c, 2, 62, 0
1, 92136, Note_on_c, 2, 67, 0
1, 92136, Note_on_c, 2, 71, 0
1, 92149, Note_on_c, 1, 32, 0
1, 92156, Note_on_c, 4, 59, 0
1, 92156, Note_on_c, 4, 62, 0
1, 92156, Note_on_c, 4, 64, 0
1, 92156, Note_on_c, 4, 67, 0
1, 92160, Note_on_c, 1, 33, 106
1, 92160, Note_on_c, 2, 64, 97
1, 92160, Note_on_c, 2, 67, 97
1, 92160, Note_on_c, 2, 72, 97
1, 92160, Note_on_c, 4, 57, 110
1, 92160, Note_on_c, 4, 60, 110
1, 92160, Note_on_c, 4, 64, 119
1, 92160, Note_on_c, 6, 45, 124
1, 92160, Note_on_c, 6, 52, 127
1, 92160, Note_on_c, 9, 35, 118
1, 92160, Note_on_c, 9, 42, 76
1, 92160, Note_on_c, 11, 45, 106
1, 92160, Note_on_c, 11, 55, 119
1, 92160, Note_on_c, 11, 60, 124
1, 92160, Note_on_c, 11, 64, 110
1, 92160, Note_on_c, 12, 45, 119
1, 92160, Note_on_c, 12, 60, 124
1, 92160, Note_on_c, 12, 64, 119
1, 92160, Note_on_c, 13, 72, 75
1, 92175, Note_on_c, 13, 76, 0
1, 92200, Note_on_c, 9, 35, 0
1, 92200, Note_on_c, 9, 42, 0
1, 92393, Note_on_c, 6, 45, 0
1, 92400, Note_on_c, 9, 42, 76
1, 92400, Note_on_c, 13, 76, 78
1, 92406, Note_on_c, 6, 52, 0
1, 92408, Note_on_c, 13, 72, 0
1, 92440, Note_on_c, 9, 42, 0
1, 92470, Note_on_c, 11, 55, 0
1, 92489, Note_on_c, 12, 60, 0
1, 92558, Note_on_c, 11, 60, 0
1, 92563, Note_on_c, 12, 64, 0
1, 92568, Note_on_c, 4, 60, 0
1, 92568, Note_on_c, 11, 64, 0
1, 92578, Note_on_c, 4, 57, 0
1, 92596, Note_on_c, 4, 64, 0
1, 92623, Note_on_c, 1, 33, 0
1, 92640, Note_on_c, 6, 45, 110
1, 92640, Note_on_c, 6, 52, 110
1, 92640, Note_on_c, 9, 40, 118
1, 92640, Note_on_c, 9, 42, 76
1, 92640, Note_on_c, 11, 55, 71
1, 92640, Note_on_c, 11, 60, 50
1, 92640, Note_on_c, 12, 60, 99
1, 92640, Note_on_c, 12, 64, 72
1, 92640, Note_on_c, 13, 72, 78
1, 92665, Note_on_c, 11, 45, 0
1, 92680, Note_on_c, 9, 40, 0
1, 92680, Note_on_c, 9, 42, 0
1, 92680, Note_on_c, 12, 45, 0
1, 92680, Note_on_c, 13, 76, 0
1, 92683, Note_on_c, 6, 45, 0
1, 92683, Note_on_c, 11, 60, 0
1, 92688, Note_on_c, 6, 52, 0
1, 92694, Note_on_c, 3, 67, 0
1, 92701, Note_on_c, 12, 64, 0
1, 92717, Note_on_c, 11, 55, 0
1, 92718, Note_on_c, 12, 60, 0
1, 92880, Note_on_c, 1, 33, 114
1, 92880, Note_on_c, 6, 45, 127
1, 92880, Note_on_c, 6, 52, 119
1, 92880, Note_on_c, 9, 42, 76
1, 92880, Note_on_c, 11, 45, 124
1, 92880, Note_on_c, 11, 55, 106
1, 92880, Note_on_c, 11, 60, 119
1, 92880, Note_on_c, 11, 64, 119
1, 92880, Note_on_c, 12, 45, 127
1, 92880, Note_on_c, 12, 60, 124
1, 92880, Note_on_c, 12, 64, 127
1, 92880, Note_on_c, 13, 79, 106
1, 92884, Note_on_c, 13, 72, 0
1, 92920, Note_on_c, 9, 42, 0
1, 93118, Note_on_c, 6, 45, 0
1, 93120, Lyric_t, "FOR "
1, 93120, Note_on_c, 3, 64, 115
1, 93120, Note_on_c, 9, 35, 118
1, 93120, Note_on_c, 9, 42, 76
1, 93120, Note_on_c, 13, 72, 75
1, 93123, Note_on_c, 6, 52, 0
1, 93141, Note_on_c, 11, 55, 0
1, 93145, Note_on_c, 4, 57, 99
1, 93146, Note_on_c, 4, 60, 99
1, 93148, Note_on_c, 4, 64, 106
1, 93160, Note_on_c, 9, 35, 0
1, 93160, Note_on_c, 9, 42, 0
1, 93200, Note_on_c, 13, 79, 0
1, 93212, Note_on_c, 12, 60, 0
1, 93227, Note_on_c, 11, 60, 0
1, 93241, Note_on_c, 4, 60, 0
1, 93245, Note_on_c, 4, 64, 0
1, 93246, Note_on_c, 12, 64, 0
1, 93248, Note_on_c, 4, 57, 0
1, 93265, Note_on_c, 1, 33, 0
1, 93293, Note_on_c, 11, 64, 0
1, 93331, Note_on_c, 3, 64, 0
1, 93357, Note_on_c, 13, 72, 0
1, 93360, Lyric_t, "DE"
1, 93360, Note_on_c, 1, 33, 110
1, 93360, Note_on_c, 3, 67, 115
1, 93360, Note_on_c, 6, 45, 127
1, 93360, Note_on_c, 6, 52, 127
1, 93360, Note_on_c, 9, 35, 118
1, 93360, Note_on_c, 9, 42, 76
1, 93360, Note_on_c, 11, 55, 102
1, 93360, Note_on_c, 12, 60, 119
1, 93360, Note_on_c, 12, 64, 119
1, 93360, Note_on_c, 13, 76, 94
1, 93378, Note_on_c, 4, 64, 106
1, 93380, Note_on_c, 4, 60, 114
1, 93382, Note_on_c, 4, 57, 119
1, 93400, Note_on_c, 9, 35, 0
1, 93400, Note_on_c, 9, 42, 0
1, 93414, Note_on_c, 12, 45, 0
1, 93501, Note_on_c, 11, 55, 0
1, 93568, Note_on_c, 1, 33, 0
1, 93600, Note_on_c, 1, 33, 119
1, 93600, Note_on_c, 9, 40, 118
1, 93600, Note_on_c, 9, 42, 76
1, 93600, Note_on_c, 11, 55, 99
1, 93600, Note_on_c, 11, 60, 127
1, 93600, Note_on_c, 11, 64, 124
1, 93600, Note_on_c, 12, 45, 127
1, 93600, Note_on_c, 13, 72, 52
1, 93640, Note_on_c, 9, 40, 0
1, 93640, Note_on_c, 9, 42, 0
1, 93655, Note_on_c, 11, 45, 0
1, 93674, Note_on_c, 13, 76, 0
1, 93686, Note_on_c, 6, 45, 0
1, 93692, Note_on_c, 12, 60, 0
1, 93738, Note_on_c, 6, 52, 0
1, 93752, Note_on_c, 1, 33, 0
1, 93818, Note_on_c, 3, 67, 0
1, 93840, Lyric_t, "SI"
1, 93840, Note_on_c, 1, 33, 106
1, 93840, Note_on_c, 3, 71, 115
1, 93840, Note_on_c, 6, 45, 114
1, 93840, Note_on_c, 6, 52, 114
1, 93840, Note_on_c, 9, 42, 76
1, 93840, Note_on_c, 11, 45, 114
1, 93840, Note_on_c, 12, 60, 81
1, 93840, Note_on_c, 13, 76, 67
1, 93845, Note_on_c, 4, 57, 0
1, 93846, Note_on_c, 11, 55, 0
1, 93847, Note_on_c, 13, 72, 0
1, 93853, Note_on_c, 11, 60, 0
1, 93855, Note_on_c, 4, 64, 0
1, 93859, Note_on_c, 4, 60, 0
1, 93880, Note_on_c, 9, 42, 0
1, 93886, Note_on_c, 11, 64, 0
1, 93917, Note_on_c, 6, 52, 0
1, 93921, Note_on_c, 6, 45, 0
1, 93932, Note_on_c, 11, 45, 0
1, 93935, Note_on_c, 12, 60, 0
1, 93937, Note_on_c, 12, 64, 0
1, 93947, Note_on_c, 1, 33, 0
1, 93971, Note_on_c, 12, 45, 0
1, 94056, Note_on_c, 2, 64, 0
1, 94056, Note_on_c, 2, 67, 0
1, 94056, Note_on_c, 2, 72, 0
1, 94080, Note_on_c, 1, 41, 114
1, 94080, Note_on_c, 2, 65, 97
1, 94080, Note_on_c, 2, 69, 97
1, 94080, Note_on_c, 2, 72, 97
1, 94080, Note_on_c, 6, 41, 119
1, 94080, Note_on_c, 6, 48, 119
1, 94080, Note_on_c, 9, 35, 118
1, 94080, Note_on_c, 9, 42, 76
1, 94080, Note_on_c, 11, 57, 114
1, 94080, Note_on_c, 11, 60, 127
1, 94080, Note_on_c, 11, 65, 124
1, 94080, Note_on_c, 12, 60, 127
1, 94080, Note_on_c, 12, 65, 119
1, 94080, Note_on_c, 13, 72, 81
1, 94114, Note_on_c, 4, 62, 110
1, 94120, Note_on_c, 9, 35, 0
1, 94120, Note_on_c, 9, 42, 0
1, 94123, Note_on_c, 4, 65, 110
1, 94125, Note_on_c, 13, 76, 0
1, 94320, Note_on_c, 3, 72, 113
1, 94320, Note_on_c, 4, 65, 0
1, 94320, Note_on_c, 9, 42, 76
1, 94320, Note_on_c, 13, 72, 0
1, 94320, Note_on_c, 13, 76, 81
1, 94323, Note_on_c, 4, 62, 0
1, 94335, Note_on_c, 3, 71, 0
1, 94352, Note_on_c, 6, 48, 0
1, 94360, Note_on_c, 9, 42, 0
1, 94362, Note_on_c, 4, 67, 114
1, 94362, Note_on_c, 6, 41, 0
1, 94368, Note_on_c, 11, 57, 0
1, 94369, Note_on_c, 4, 64, 114
1, 94431, Note_on_c, 12, 60, 0
1, 94495, Note_on_c, 12, 65, 0
1, 94527, Note_on_c, 3, 72, 0
1, 94543, Note_on_c, 4, 64, 0
1, 94560, Note_on_c, 3, 71, 110
1, 94560, Note_on_c, 6, 41, 102
1, 94560, Note_on_c, 6, 48, 114
1, 94560, Note_on_c, 9, 40, 118
1, 94560, Note_on_c, 9, 42, 76
1, 94560, Note_on_c, 11, 57, 81
1, 94560, Note_on_c, 12, 60, 106
1, 94560, Note_on_c, 12, 65, 94
1, 94560, Note_on_c, 13, 72, 71
1, 94565, Note_on_c, 4, 67, 0
1, 94571, Note_on_c, 13, 76, 0
1, 94578, Note_on_c, 1, 41, 0
1, 94578, Note_on_c, 11, 60, 0
1, 94588, Note_on_c, 11, 65, 0
1, 94600, Note_on_c, 9, 40, 0
1, 94600, Note_on_c, 9, 42, 0
1, 94604, Note_on_c, 4, 62, 99
1, 94609, Note_on_c, 4, 65, 94
1, 94609, Note_on_c, 6, 48, 0
1, 94622, Note_on_c, 6, 41, 0
1, 94622, Note_on_c, 11, 57, 0
1, 94661, Note_on_c, 12, 65, 0
1, 94664, Note_on_c, 12, 60, 0
1, 94794, Note_on_c, 4, 65, 0
1, 94795, Note_on_c, 13, 72, 0
1, 94800, Note_on_c, 1, 41, 114
1, 94800, Note_on_c, 3, 72, 115
1, 94800, Note_on_c, 6, 41, 110
1, 94800, Note_on_c, 6, 48, 127
1, 94800, Note_on_c, 9, 42, 76
1, 94800, Note_on_c, 11, 41, 119
1, 94800, Note_on_c, 11, 57, 102
1, 94800, Note_on_c, 11, 60, 124
1, 94800, Note_on_c, 11, 65, 114
1, 94800, Note_on_c, 12, 53, 114
1, 94800, Note_on_c, 12, 60, 124
1, 94800, Note_on_c, 12, 65, 124
1, 94800, Note_on_c, 13, 79, 114
1, 94804, Note_on_c, 4, 62, 0
1, 94806, Note_on_c, 4, 67, 114
1, 94812, Note_on_c, 4, 64, 114
1, 94823, Note_on_c, 3, 71, 0
1, 94840, Note_on_c, 9, 42, 0
1, 94899, Note_on_c, 1, 41, 0
1, 94976, Note_on_c, 4, 64, 0
1, 95011, Note_on_c, 4, 67, 0
1, 95030, Note_on_c, 3, 72, 0
1, 95040, Note_on_c, 1, 36, 114
1, 95040, Note_on_c, 3, 71, 109
1, 95040, Note_on_c, 9, 35, 118
1, 95040, Note_on_c, 9, 42, 76
1, 95040, Note_on_c, 13, 72, 75
1, 95059, Note_on_c, 4, 62, 94
1, 95065, Note_on_c, 4, 65, 94
1, 95077, Note_on_c, 11, 57, 0
1, 95080, Note_on_c, 9, 35, 0
1, 95080, Note_on_c, 9, 42, 0
1, 95135, Note_on_c, 13, 79, 0
1, 95136, Note_on_c, 12, 60, 0
1, 95155, Note_on_c, 12, 65, 0
1, 95156, Note_on_c, 6, 41, 0
1, 95160, Note_on_c, 11, 60, 0
1, 95169, Note_on_c, 11, 65, 0
1, 95220, Note_on_c, 1, 36, 0
1, 95238, Note_on_c, 4, 65, 0
1, 95243, Note_on_c, 4, 62, 0
1, 95256, Note_on_c, 6, 48, 0
1, 95262, Note_on_c, 4, 67, 119
1, 95270, Note_on_c, 4, 64, 119
1, 95276, Note_on_c, 3, 71, 0
1, 95280, Note_on_c, 1, 36, 81
1, 95280, Note_on_c, 3, 72, 113
1, 95280, Note_on_c, 6, 41, 94
1, 95280, Note_on_c, 9, 35, 118
1, 95280, Note_on_c, 9, 42, 76
1, 95280, Note_on_c, 11, 57, 114
1, 95280, Note_on_c, 11, 60, 124
1, 95280, Note_on_c, 11, 65, 119
1, 95280, Note_on_c, 12, 60, 119
1, 95280, Note_on_c, 12, 65, 124
1, 95280, Note_on_c, 13, 76, 110
1, 95282, Note_on_c, 13, 72, 0
1, 95283, Note_on_c, 11, 41, 0
1, 95320, Note_on_c, 9, 35, 0
1, 95320, Note_on_c, 9, 42, 0
1, 95325, Note_on_c, 12, 53, 0
1, 95390, Note_on_c, 6, 41, 0
1, 95483, Note_on_c, 4, 64, 0
1, 95494, Note_on_c, 1, 36, 0
1, 95495, Note_on_c, 11, 57, 0
1, 95516, Note_on_c, 3, 72, 0
1, 95520, Note_on_c, 1, 41, 106
1, 95520, Note_on_c, 3, 71, 110
1, 95520, Note_on_c, 6, 41, 102
1, 95520, Note_on_c, 6, 48, 127
1, 95520, Note_on_c, 9, 40, 118
1, 95520, Note_on_c, 9, 42, 76
1, 95520, Note_on_c, 11, 41, 124
1, 95520, Note_on_c, 12, 53, 119
1, 95520, Note_on_c, 13, 72, 72
1, 95525, Note_on_c, 4, 62, 99
1, 95535, Note_on_c, 4, 65, 102
1, 95554, Note_on_c, 4, 67, 0
1, 95560, Note_on_c, 9, 40, 0
1, 95560, Note_on_c, 9, 42, 0
1, 95619, Note_on_c, 13, 76, 0
1, 95621, Note_on_c, 11, 60, 0
1, 95633, Note_on_c, 12, 60, 0
1, 95750, Note_on_c, 6, 41, 0
1, 95760, Note_on_c, 1, 36, 124
1, 95760, Note_on_c, 9, 42, 76
1, 95760, Note_on_c, 11, 57, 110
1, 95760, Note_on_c, 12, 60, 99
1, 95760, Note_on_c, 13, 76, 75
1, 95764, Note_on_c, 1, 41, 0
1, 95768, Note_on_c, 12, 53, 0
1, 95773, Note_on_c, 13, 72, 0
1, 95796, Note_on_c, 4, 62, 0
1, 95800, Note_on_c, 9, 42, 0
1, 95801, Note_on_c, 4, 65, 0
1, 95807, Note_on_c, 6, 48, 0
1, 95877, Note_on_c, 12, 65, 0
1, 95879, Note_on_c, 12, 60, 0
1, 95887, Note_on_c, 11, 65, 0
1, 95927, Note_on_c, 11, 57, 0
1, 95961, Note_on_c, 11, 41, 0
1, 95976, Note_on_c, 1, 36, 0
1, 95976, Note_on_c, 2, 65, 0
1, 95976, Note_on_c, 2, 69, 0
1, 95976, Note_on_c, 2, 72, 0
1, 95996, Note_on_c, 3, 71, 0
1, 96000, Lyric_t, "RE"
1, 96000, Lyric_t, "\015"
1, 96000, Note_on_c, 1, 36, 127
1, 96000, Note_on_c, 2, 64, 97
1, 96000, Note_on_c, 2, 67, 97
1, 96000, Note_on_c, 2, 72, 97
1, 96000, Note_on_c, 3, 67, 115
1, 96000, Note_on_c, 6, 48, 124
1, 96000, Note_on_c, 6, 55, 119
1, 96000, Note_on_c, 9, 35, 118
1, 96000, Note_on_c, 9, 42, 76
1, 96000, Note_on_c, 11, 48, 124
1, 96000, Note_on_c, 11, 55, 102
1, 96000, Note_on_c, 11, 60, 124
1, 96000, Note_on_c, 11, 64, 99
1, 96000, Note_on_c, 12, 48, 124
1, 96000, Note_on_c, 12, 60, 110
1, 96000, Note_on_c, 12, 64, 119
1, 96037, Note_on_c, 4, 64, 114
1, 96040, Note_on_c, 9, 35, 0
1, 96040, Note_on_c, 9, 42, 0
1, 96045, Note_on_c, 4, 60, 124
1, 96051, Note_on_c, 13, 76, 0
1, 96235, Note_on_c, 6, 48, 0
1, 96238, Note_on_c, 6, 55, 0
1, 96240, Note_on_c, 9, 42, 76
1, 96240, Note_on_c, 13, 76, 106
1, 96280, Note_on_c, 9, 42, 0
1, 96313, Note_on_c, 12, 60, 0
1, 96314, Note_on_c, 11, 55, 0
1, 96373, Note_on_c, 12, 64, 0
1, 96404, Note_on_c, 4, 60, 0
1, 96415, Note_on_c, 4, 64, 0
1, 96427, Note_on_c, 11, 60, 0
1, 96433, Note_on_c, 12, 48, 0
1, 96434, Note_on_c, 13, 76, 0
1, 96440, Note_on_c, 11, 64, 0
1, 96472, Note_on_c, 1, 36, 0
1, 96480, Note_on_c, 6, 48, 102
1, 96480, Note_on_c, 6, 55, 99
1, 96480, Note_on_c, 9, 40, 118
1, 96480, Note_on_c, 9, 42, 76
1, 96480, Note_on_c, 11, 55, 75
1, 96480, Note_on_c, 11, 60, 67
1, 96480, Note_on_c, 11, 64, 41
1, 96480, Note_on_c, 12, 60, 114
1, 96480, Note_on_c, 12, 64, 87
1, 96480, Note_on_c, 13, 72, 84
1, 96520, Note_on_c, 6, 48, 0
1, 96520, Note_on_c, 9, 40, 0
1, 96520, Note_on_c, 9, 42, 0
1, 96526, Note_on_c, 6, 55, 0
1, 96544, Note_on_c, 11, 64, 0
1, 96553, Note_on_c, 11, 60, 0
1, 96555, Note_on_c, 12, 64, 0
1, 96576, Note_on_c, 3, 67, 0
1, 96581, Note_on_c, 12, 60, 0
1, 96582, Note_on_c, 11, 55, 0
1, 96673, Note_on_c, 13, 72, 0
1, 96720, Note_on_c, 1, 36, 127
1, 96720, Note_on_c, 6, 48, 124
1, 96720, Note_on_c, 6, 55, 119
1, 96720, Note_on_c, 9, 42, 76
1, 96720, Note_on_c, 11, 55, 114
1, 96720, Note_on_c, 11, 60, 124
1, 96720, Note_on_c, 11, 64, 114
1, 96720, Note_on_c, 12, 48, 124
1, 96720, Note_on_c, 12, 60, 124
1, 96720, Note_on_c, 12, 64, 124
1, 96720, Note_on_c, 13, 76, 110
1, 96760, Note_on_c, 9, 42, 0
1, 96832, Note_on_c, 11, 48, 0
1, 96917, Note_on_c, 1, 36, 0
1, 96959, Note_on_c, 13, 76, 0
1, 96960, Lyric_t, "PUT "
1, 96960, Note_on_c, 1, 31, 114
1, 96960, Note_on_c, 3, 74, 112
1, 96960, Note_on_c, 9, 35, 118
1, 96960, Note_on_c, 9, 42, 76
1, 96960, Note_on_c, 13, 74, 84
1, 97000, Note_on_c, 9, 35, 0
1, 97000, Note_on_c, 9, 42, 0
1, 97040, Note_on_c, 12, 60, 0
1, 97084, Note_on_c, 12, 64, 0
1, 97085, Note_on_c, 6, 48, 0
1, 97100, Note_on_c, 6, 55, 0
1, 97107, Note_on_c, 1, 31, 0
1, 97121, Note_on_c, 3, 74, 0
1, 97133, Note_on_c, 11, 55, 0
1, 97187, Note_on_c, 13, 74, 0
1, 97200, Lyric_t, "IT "
1, 97200, Note_on_c, 1, 33, 124
1, 97200, Note_on_c, 3, 76, 111
1, 97200, Note_on_c, 6, 48, 114
1, 97200, Note_on_c, 6, 55, 119
1, 97200, Note_on_c, 9, 35, 118
1, 97200, Note_on_c, 9, 42, 76
1, 97200, Note_on_c, 11, 48, 127
1, 97200, Note_on_c, 12, 60, 124
1, 97200, Note_on_c, 12, 64, 106
1, 97200, Note_on_c, 13, 76, 119
1, 97233, Note_on_c, 11, 60, 0
1, 97240, Note_on_c, 9, 35, 0
1, 97240, Note_on_c, 9, 42, 0
1, 97244, Note_on_c, 11, 64, 0
1, 97266, Note_on_c, 12, 48, 0
1, 97372, Note_on_c, 3, 76, 0
1, 97378, Note_on_c, 1, 33, 0
1, 97422, Note_on_c, 13, 76, 0
1, 97440, Lyric_t, "IN "
1, 97440, Note_on_c, 1, 36, 124
1, 97440, Note_on_c, 3, 74, 115
1, 97440, Note_on_c, 9, 40, 118
1, 97440, Note_on_c, 9, 42, 76
1, 97440, Note_on_c, 9, 57, 76
1, 97440, Note_on_c, 11, 55, 110
1, 97440, Note_on_c, 11, 64, 102
1, 97440, Note_on_c, 12, 48, 127
1, 97440, Note_on_c, 13, 74, 102
1, 97480, Note_on_c, 9, 40, 0
1, 97480, Note_on_c, 9, 42, 0
1, 97480, Note_on_c, 9, 57, 0
1, 97654, Note_on_c, 1, 36, 0
1, 97672, Note_on_c, 13, 74, 0
1, 97680, Lyric_t, "YOUR "
1, 97680, Note_on_c, 1, 35, 114
1, 97680, Note_on_c, 3, 72, 115
1, 97680, Note_on_c, 9, 42, 76
1, 97680, Note_on_c, 13, 72, 94
1, 97683, Note_on_c, 6, 55, 0
1, 97705, Note_on_c, 12, 64, 0
1, 97709, Note_on_c, 3, 74, 0
1, 97720, Note_on_c, 9, 42, 0
1, 97724, Note_on_c, 6, 48, 0
1, 97742, Note_on_c, 12, 60, 0
1, 97769, Note_on_c, 12, 48, 0
1, 97771, Note_on_c, 11, 55, 0
1, 97795, Note_on_c, 3, 72, 0
1, 97811, Note_on_c, 11, 64, 0
1, 97813, Note_on_c, 13, 72, 0
1, 97889, Note_on_c, 11, 48, 0
1, 97895, Note_on_c, 1, 35, 0
1, 97896, Note_on_c, 2, 64, 0
1, 97896, Note_on_c, 2, 67, 0
1, 97896, Note_on_c, 2, 72, 0
1, 97920, Lyric_t, "HEAD"
1, 97920, Lyric_t, "\015"
1, 97920, Note_on_c, 1, 33, 127
1, 97920, Note_on_c, 2, 69, 119
1, 97920, Note_on_c, 2, 72, 106
1, 97920, Note_on_c, 2, 76, 106
1, 97920, Note_on_c, 3, 72, 115
1, 97920, Note_on_c, 4, 57, 114
1, 97920, Note_on_c, 4, 64, 78
1, 97920, Note_on_c, 4, 69, 102
1, 97920, Note_on_c, 4, 72, 102
1, 97920, Note_on_c, 6, 45, 119
1, 97920, Note_on_c, 6, 52, 127
1, 97920, Note_on_c, 9, 35, 118
1, 97920, Note_on_c, 9, 49, 76
1, 97920, Note_on_c, 11, 45, 127
1, 97920, Note_on_c, 11, 60, 114
1, 97920, Note_on_c, 11, 64, 119
1, 97920, Note_on_c, 11, 69, 119
1, 97920, Note_on_c, 12, 45, 119
1, 97920, Note_on_c, 12, 57, 106
1, 97920, Note_on_c, 12, 60, 119
1, 97920, Note_on_c, 12, 64, 119
1, 97920, Note_on_c, 13, 72, 124
1, 97960, Note_on_c, 9, 35, 0
1, 97960, Note_on_c, 9, 49, 0
1, 98156, Note_on_c, 13, 72, 0
1, 98160, Note_on_c, 9, 42, 76
1, 98160, Note_on_c, 13, 72, 106
1, 98183, Note_on_c, 12, 57, 0
1, 98200, Note_on_c, 9, 42, 0
1, 98296, Note_on_c, 11, 60, 0
1, 98347, Note_on_c, 12, 60, 0
1, 98355, Note_on_c, 12, 64, 0
1, 98358, Note_on_c, 3, 72, 0
1, 98382, Note_on_c, 1, 33, 0
1, 98385, Note_on_c, 12, 45, 0
1, 98396, Note_on_c, 6, 45, 0
1, 98396, Note_on_c, 6, 52, 0
1, 98396, Note_on_c, 13, 72, 0
1, 98400, Lyric_t, "BA"
1, 98400, Note_on_c, 3, 69, 113
1, 98400, Note_on_c, 6, 45, 124
1, 98400, Note_on_c, 9, 40, 118
1, 98400, Note_on_c, 9, 42, 76
1, 98400, Note_on_c, 11, 60, 102
1, 98400, Note_on_c, 12, 57, 106
1, 98400, Note_on_c, 12, 60, 102
1, 98400, Note_on_c, 12, 64, 65
1, 98400, Note_on_c, 13, 72, 91
1, 98440, Note_on_c, 9, 40, 0
1, 98440, Note_on_c, 9, 42, 0
1, 98473, Note_on_c, 11, 64, 0
1, 98488, Note_on_c, 11, 45, 0
1, 98584, Note_on_c, 3, 69, 0
1, 98636, Note_on_c, 13, 72, 0
1, 98640, Lyric_t, "BY "
1, 98640, Note_on_c, 1, 33, 127
1, 98640, Note_on_c, 3, 72, 115
1, 98640, Note_on_c, 9, 42, 76
1, 98640, Note_on_c, 11, 45, 114
1, 98640, Note_on_c, 11, 64, 94
1, 98640, Note_on_c, 12, 45, 124
1, 98640, Note_on_c, 13, 72, 114
1, 98680, Note_on_c, 9, 42, 0
1, 98685, Note_on_c, 11, 69, 0
1, 98730, Note_on_c, 11, 60, 0
1, 98745, Note_on_c, 3, 72, 0
1, 98755, Note_on_c, 11, 64, 0
1, 98781, Note_on_c, 12, 57, 0
1, 98795, Note_on_c, 12, 60, 0
1, 98796, Note_on_c, 11, 45, 0
1, 98819, Note_on_c, 6, 45, 0
1, 98828, Note_on_c, 12, 64, 0
1, 98836, Note_on_c, 12, 45, 0
1, 98838, Note_on_c, 1, 33, 0
1, 98854, Note_on_c, 4, 57, 0
1, 98864, Note_on_c, 2, 69, 0
1, 98880, Lyric_t, "HOL"
1, 98880, Note_on_c, 1, 31, 119
1, 98880, Note_on_c, 2, 67, 119
1, 98880, Note_on_c, 3, 74, 115
1, 98880, Note_on_c, 4, 55, 106
1, 98880, Note_on_c, 6, 43, 127
1, 98880, Note_on_c, 9, 35, 118
1, 98880, Note_on_c, 9, 42, 76
1, 98880, Note_on_c, 11, 43, 127
1, 98880, Note_on_c, 11, 60, 119
1, 98880, Note_on_c, 11, 64, 119
1, 98880, Note_on_c, 11, 69, 124
1, 98880, Note_on_c, 12, 43, 127
1, 98880, Note_on_c, 12, 57, 106
1, 98880, Note_on_c, 12, 60, 119
1, 98880, Note_on_c, 12, 64, 119
1, 98920, Note_on_c, 9, 35, 0
1, 98920, Note_on_c, 9, 42, 0
1, 99080, Note_on_c, 3, 74, 0
1, 99116, Note_on_c, 13, 72, 0
1, 99120, Lyric_t, "LY"
1, 99120, Note_on_c, 3, 76, 112
1, 99120, Note_on_c, 9, 35, 118
1, 99120, Note_on_c, 9, 42, 76
1, 99120, Note_on_c, 13, 72, 114
1, 99143, Note_on_c, 12, 57, 0
1, 99160, Note_on_c, 9, 35, 0
1, 99160, Note_on_c, 9, 42, 0
1, 99231, Note_on_c, 11, 60, 0
1, 99293, Note_on_c, 3, 76, 0
1, 99307, Note_on_c, 12, 60, 0
1, 99315, Note_on_c, 12, 64, 0
1, 99356, Note_on_c, 6, 43, 0
1, 99360, Lyric_t, "WOOD "
1, 99360, Note_on_c, 3, 74, 113
1, 99360, Note_on_c, 6, 43, 127
1, 99360, Note_on_c, 9, 40, 118
1, 99360, Note_on_c, 9, 42, 76
1, 99360, Note_on_c, 11, 60, 106
1, 99360, Note_on_c, 12, 57, 106
1, 99360, Note_on_c, 12, 60, 102
1, 99360, Note_on_c, 12, 64, 65
1, 99386, Note_on_c, 1, 31, 0
1, 99390, Note_on_c, 12, 43, 0
1, 99400, Note_on_c, 9, 40, 0
1, 99400, Note_on_c, 9, 42, 0
1, 99571, Note_on_c, 11, 43, 0
1, 99579, Note_on_c, 3, 74, 0
1, 99596, Note_on_c, 13, 72, 0
1, 99600, Lyric_t, "IS "
1, 99600, Note_on_c, 1, 31, 110
1, 99600, Note_on_c, 3, 72, 115
1, 99600, Note_on_c, 9, 42, 76
1, 99600, Note_on_c, 11, 43, 87
1, 99600, Note_on_c, 12, 43, 119
1, 99600, Note_on_c, 13, 72, 106
1, 99632, Note_on_c, 11, 60, 0
1, 99640, Note_on_c, 9, 42, 0
1, 99653, Note_on_c, 11, 64, 0
1, 99679, Note_on_c, 11, 69, 0
1, 99700, Note_on_c, 3, 72, 0
1, 99741, Note_on_c, 12, 57, 0
1, 99755, Note_on_c, 12, 60, 0
1, 99756, Note_on_c, 11, 43, 0
1, 99782, Note_on_c, 12, 43, 0
1, 99788, Note_on_c, 12, 64, 0
1, 99815, Note_on_c, 2, 67, 0
1, 99821, Note_on_c, 1, 31, 0
1, 99836, Note_on_c, 6, 43, 0
1, 99836, Note_on_c, 13, 72, 0
1, 99840, Lyric_t, "DEAD"
1, 99840, Lyric_t, "\015"
1, 99840, Note_on_c, 1, 30, 109
1, 99840, Note_on_c, 2, 66, 120
1, 99840, Note_on_c, 3, 74, 115
1, 99840, Note_on_c, 4, 54, 109
1, 99840, Note_on_c, 6, 42, 127
1, 99840, Note_on_c, 9, 35, 118
1, 99840, Note_on_c, 9, 42, 76
1, 99840, Note_on_c, 11, 42, 127
1, 99840, Note_on_c, 11, 60, 114
1, 99840, Note_on_c, 11, 64, 119
1, 99840, Note_on_c, 11, 69, 119
1, 99840, Note_on_c, 12, 42, 127
1, 99840, Note_on_c, 12, 60, 102
1, 99840, Note_on_c, 12, 64, 114
1, 99840, Note_on_c, 12, 69, 114
1, 99840, Note_on_c, 13, 72, 114
1, 99851, Note_on_c, 4, 55, 0
1, 99880, Note_on_c, 9, 35, 0
1, 99880, Note_on_c, 9, 42, 0
1, 100076, Note_on_c, 13, 72, 0
1, 100080, Note_on_c, 9, 42, 76
1, 100080, Note_on_c, 13, 72, 91
1, 100120, Note_on_c, 9, 42, 0
1, 100165, Note_on_c, 12, 60, 0
1, 100181, Note_on_c, 3, 74, 0
1, 100216, Note_on_c, 11, 60, 0
1, 100254, Note_on_c, 12, 64, 0
1, 100316, Note_on_c, 6, 42, 0
1, 100316, Note_on_c, 13, 72, 0
1, 100320, Lyric_t, "YOU "
1, 100320, Note_on_c, 3, 69, 107
1, 100320, Note_on_c, 6, 42, 127
1, 100320, Note_on_c, 9, 40, 118
1, 100320, Note_on_c, 9, 42, 76
1, 100320, Note_on_c, 11, 60, 102
1, 100320, Note_on_c, 12, 60, 106
1, 100320, Note_on_c, 13, 72, 99
1, 100360, Note_on_c, 9, 40, 0
1, 100360, Note_on_c, 9, 42, 0
1, 100393, Note_on_c, 11, 64, 0
1, 100411, Note_on_c, 1, 30, 0
1, 100431, Note_on_c, 12, 69, 0
1, 100483, Note_on_c, 3, 69, 0
1, 100556, Note_on_c, 13, 72, 0
1, 100560, Lyric_t, "CAN "
1, 100560, Note_on_c, 1, 30, 120
1, 100560, Note_on_c, 3, 72, 115
1, 100560, Note_on_c, 9, 42, 76
1, 100560, Note_on_c, 11, 64, 94
1, 100560, Note_on_c, 12, 64, 99
1, 100560, Note_on_c, 13, 72, 110
1, 100600, Note_on_c, 9, 42, 0
1, 100605, Note_on_c, 11, 69, 0
1, 100632, Note_on_c, 12, 42, 0
1, 100650, Note_on_c, 11, 60, 0
1, 100662, Note_on_c, 12, 64, 0
1, 100675, Note_on_c, 11, 64, 0
1, 100707, Note_on_c, 11, 42, 0
1, 100709, Note_on_c, 12, 60, 0
1, 100712, Note_on_c, 2, 76, 0
1, 100723, Note_on_c, 4, 64, 0
1, 100756, Note_on_c, 1, 30, 0
1, 100757, Note_on_c, 4, 72, 0
1, 100759, Note_on_c, 4, 69, 0
1, 100767, Note_on_c, 4, 54, 0
1, 100783, Note_on_c, 3, 72, 0
1, 100787, Note_on_c, 2, 66, 0
1, 100796, Note_on_c, 6, 42, 0
1, 100800, Lyric_t, "FIND "
1, 100800, Note_on_c, 1, 29, 109
1, 100800, Note_on_c, 2, 65, 110
1, 100800, Note_on_c, 2, 68, 101
1, 100800, Note_on_c, 3, 74, 110
1, 100800, Note_on_c, 4, 53, 106
1, 100800, Note_on_c, 4, 65, 87
1, 100800, Note_on_c, 4, 68, 109
1, 100800, Note_on_c, 4, 72, 99
1, 100800, Note_on_c, 6, 41, 124
1, 100800, Note_on_c, 9, 35, 118
1, 100800, Note_on_c, 9, 42, 76
1, 100800, Note_on_c, 11, 41, 127
1, 100800, Note_on_c, 11, 60, 119
1, 100800, Note_on_c, 11, 65, 119
1, 100800, Note_on_c, 11, 68, 124
1, 100800, Note_on_c, 12, 41, 127
1, 100800, Note_on_c, 12, 56, 110
1, 100800, Note_on_c, 12, 60, 91
1, 100800, Note_on_c, 12, 65, 127
1, 100840, Note_on_c, 9, 35, 0
1, 100840, Note_on_c, 9, 42, 0
1, 100995, Note_on_c, 3, 74, 0
1, 101036, Note_on_c, 13, 72, 0
1, 101040, Lyric_t, "IT "
1, 101040, Note_on_c, 3, 76, 113
1, 101040, Note_on_c, 9, 35, 118
1, 101040, Note_on_c, 9, 42, 76
1, 101040, Note_on_c, 13, 72, 119
1, 101080, Note_on_c, 9, 35, 0
1, 101080, Note_on_c, 9, 42, 0
1, 101151, Note_on_c, 11, 60, 0
1, 101164, Note_on_c, 12, 60, 0
1, 101197, Note_on_c, 12, 65, 0
1, 101212, Note_on_c, 12, 56, 0
1, 101276, Note_on_c, 6, 41, 0
1, 101276, Note_on_c, 13, 72, 0
1, 101280, Lyric_t, "IN "
1, 101280, Note_on_c, 3, 74, 112
1, 101280, Note_on_c, 6, 41, 124
1, 101280, Note_on_c, 9, 40, 118
1, 101280, Note_on_c, 9, 42, 76
1, 101280, Note_on_c, 11, 60, 106
1, 101280, Note_on_c, 12, 56, 94
1, 101280, Note_on_c, 12, 60, 94
1, 101280, Note_on_c, 12, 65, 99
1, 101280, Note_on_c, 13, 72, 114
1, 101291, Note_on_c, 3, 76, 0
1, 101320, Note_on_c, 9, 40, 0
1, 101320, Note_on_c, 9, 42, 0
1, 101352, Note_on_c, 12, 41, 0
1, 101371, Note_on_c, 1, 29, 0
1, 101486, Note_on_c, 3, 74, 0
1, 101493, Note_on_c, 12, 60, 0
1, 101502, Note_on_c, 12, 56, 0
1, 101512, Note_on_c, 12, 65, 0
1, 101516, Note_on_c, 13, 72, 0
1, 101520, Lyric_t, "YOUR"
1, 101520, Note_on_c, 1, 29, 120
1, 101520, Note_on_c, 3, 72, 115
1, 101520, Note_on_c, 9, 42, 76
1, 101520, Note_on_c, 12, 41, 127
1, 101520, Note_on_c, 13, 72, 110
1, 101552, Note_on_c, 11, 60, 0
1, 101560, Note_on_c, 9, 42, 0
1, 101573, Note_on_c, 11, 65, 0
1, 101599, Note_on_c, 11, 68, 0
1, 101638, Note_on_c, 11, 41, 0
1, 101642, Note_on_c, 12, 41, 0
1, 101652, Note_on_c, 3, 72, 0
1, 101672, Note_on_c, 4, 68, 0
1, 101688, Note_on_c, 4, 65, 0
1, 101692, Note_on_c, 4, 72, 0
1, 101709, Note_on_c, 2, 72, 0
1, 101716, Note_on_c, 1, 29, 0
1, 101721, Note_on_c, 2, 65, 0
1, 101728, Note_on_c, 4, 53, 0
1, 101756, Note_on_c, 2, 68, 0
1, 101756, Note_on_c, 6, 41, 0
1, 101756, Note_on_c, 13, 72, 0
1, 101760, Lyric_t, "SEL"
1, 101760, Note_on_c, 1, 36, 119
1, 101760, Note_on_c, 2, 64, 114
1, 101760, Note_on_c, 2, 72, 124
1, 101760, Note_on_c, 3, 72, 115
1, 101760, Note_on_c, 4, 60, 106
1, 101760, Note_on_c, 4, 64, 114
1, 101760, Note_on_c, 4, 67, 106
1, 101760, Note_on_c, 9, 35, 118
1, 101760, Note_on_c, 9, 42, 76
1, 101760, Note_on_c, 11, 48, 119
1, 101760, Note_on_c, 11, 55, 106
1, 101760, Note_on_c, 11, 60, 110
1, 101760, Note_on_c, 11, 64, 99
1, 101760, Note_on_c, 12, 48, 127
1, 101760, Note_on_c, 12, 60, 124
1, 101760, Note_on_c, 12, 64, 119
1, 101760, Note_on_c, 12, 67, 124
1, 101800, Note_on_c, 9, 35, 0
1, 101800, Note_on_c, 9, 42, 0
1, 101980, Note_on_c, 3, 72, 0
1, 102000, Note_on_c, 3, 67, 112
1, 102000, Note_on_c, 9, 42, 76
1, 102040, Note_on_c, 9, 42, 0
1, 102063, Note_on_c, 12, 60, 0
1, 102066, Note_on_c, 11, 55, 0
1, 102096, Note_on_c, 12, 64, 0
1, 102108, Note_on_c, 12, 67, 0
1, 102138, Note_on_c, 4, 60, 0
1, 102140, Note_on_c, 11, 60, 0
1, 102168, Note_on_c, 11, 64, 0
1, 102177, Note_on_c, 4, 64, 0
1, 102183, Note_on_c, 4, 67, 0
1, 102185, Note_on_c, 1, 36, 0
1, 102233, Note_on_c, 3, 67, 0
1, 102240, Lyric_t, "F"
1, 102240, Lyric_t, "\015"
1, 102240, Note_on_c, 1, 36, 114
1, 102240, Note_on_c, 3, 69, 112
1, 102240, Note_on_c, 6, 69, 113
1, 102240, Note_on_c, 6, 72, 115
1, 102240, Note_on_c, 6, 77, 113
1, 102240, Note_on_c, 9, 40, 118
1, 102240, Note_on_c, 9, 42, 76
1, 102240, Note_on_c, 11, 55, 81
1, 102240, Note_on_c, 11, 60, 60
1, 102240, Note_on_c, 11, 64, 41
1, 102240, Note_on_c, 12, 60, 94
1, 102240, Note_on_c, 12, 64, 94
1, 102240, Note_on_c, 12, 67, 94
1, 102280, Note_on_c, 9, 40, 0
1, 102280, Note_on_c, 9, 42, 0
1, 102282, Note_on_c, 11, 64, 0
1, 102308, Note_on_c, 11, 60, 0
1, 102332, Note_on_c, 12, 67, 0
1, 102335, Note_on_c, 12, 64, 0
1, 102341, Note_on_c, 12, 60, 0
1, 102356, Note_on_c, 6, 69, 0
1, 102356, Note_on_c, 6, 72, 0
1, 102356, Note_on_c, 6, 77, 0
1, 102360, Note_on_c, 6, 69, 98
1, 102360, Note_on_c, 6, 72, 98
1, 102360, Note_on_c, 6, 77, 98
1, 102360, Note_on_c, 11, 55, 0
1, 102428, Note_on_c, 1, 36, 0
1, 102476, Note_on_c, 6, 69, 0
1, 102476, Note_on_c, 6, 72, 0
1, 102476, Note_on_c, 6, 77, 0
1, 102480, Note_on_c, 1, 36, 114
1, 102480, Note_on_c, 6, 69, 113
1, 102480, Note_on_c, 6, 72, 117
1, 102480, Note_on_c, 6, 77, 113
1, 102480, Note_on_c, 9, 42, 76
1, 102480, Note_on_c, 11, 55, 110
1, 102480, Note_on_c, 11, 60, 127
1, 102480, Note_on_c, 11, 64, 119
1, 102480, Note_on_c, 12, 60, 119
1, 102480, Note_on_c, 12, 64, 119
1, 102480, Note_on_c, 12, 67, 124
1, 102493, Note_on_c, 3, 69, 0
1, 102520, Note_on_c, 9, 42, 0
1, 102596, Note_on_c, 6, 69, 0
1, 102596, Note_on_c, 6, 72, 0
1, 102596, Note_on_c, 6, 77, 0
1, 102600, Note_on_c, 6, 69, 98
1, 102600, Note_on_c, 6, 72, 98
1, 102600, Note_on_c, 6, 77, 98
1, 102640, Note_on_c, 1, 36, 0
1, 102716, Note_on_c, 6, 69, 0
1, 102716, Note_on_c, 6, 72, 0
1, 102716, Note_on_c, 6, 77, 0
1, 102720, Note_on_c, 1, 36, 78
1, 102720, Note_on_c, 6, 69, 124
1, 102720, Note_on_c, 6, 72, 124
1, 102720, Note_on_c, 6, 77, 124
1, 102720, Note_on_c, 9, 35, 118
1, 102720, Note_on_c, 9, 42, 76
1, 102760, Note_on_c, 9, 35, 0
1, 102760, Note_on_c, 9, 42, 0
1, 102778, Note_on_c, 12, 64, 0
1, 102781, Note_on_c, 11, 48, 0
1, 102782, Note_on_c, 12, 67, 0
1, 102785, Note_on_c, 12, 60, 0
1, 102903, Note_on_c, 11, 55, 0
1, 102913, Note_on_c, 6, 77, 0
1, 102915, Note_on_c, 6, 69, 0
1, 102922, Note_on_c, 6, 72, 0
1, 102924, Note_on_c, 1, 36, 0
1, 102931, Note_on_c, 11, 60, 0
1, 102960, Note_on_c, 1, 43, 75
1, 102960, Note_on_c, 6, 67, 127
1, 102960, Note_on_c, 6, 72, 119
1, 102960, Note_on_c, 6, 76, 119
1, 102960, Note_on_c, 9, 35, 118
1, 102960, Note_on_c, 9, 42, 76
1, 102960, Note_on_c, 11, 48, 110
1, 102960, Note_on_c, 12, 60, 110
1, 102960, Note_on_c, 12, 64, 124
1, 102960, Note_on_c, 12, 67, 127
1, 102967, Note_on_c, 11, 64, 0
1, 102979, Note_on_c, 12, 48, 0
1, 103000, Note_on_c, 9, 35, 0
1, 103000, Note_on_c, 9, 42, 0
1, 103076, Note_on_c, 6, 67, 0
1, 103076, Note_on_c, 6, 72, 0
1, 103076, Note_on_c, 6, 76, 0
1, 103158, Note_on_c, 1, 43, 0
1, 103200, Note_on_c, 1, 45, 106
1, 103200, Note_on_c, 9, 40, 118
1, 103200, Note_on_c, 9, 42, 76
1, 103200, Note_on_c, 11, 60, 119
1, 103200, Note_on_c, 11, 64, 124
1, 103200, Note_on_c, 11, 67, 119
1, 103200, Note_on_c, 12, 48, 124
1, 103233, Note_on_c, 11, 48, 0
1, 103240, Note_on_c, 9, 40, 0
1, 103240, Note_on_c, 9, 42, 0
1, 103289, Note_on_c, 12, 60, 0
1, 103391, Note_on_c, 12, 64, 0
1, 103407, Note_on_c, 11, 60, 0
1, 103415, Note_on_c, 11, 64, 0
1, 103418, Note_on_c, 11, 67, 0
1, 103435, Note_on_c, 1, 45, 0
1, 103440, Note_on_c, 1, 43, 119
1, 103440, Note_on_c, 6, 67, 127
1, 103440, Note_on_c, 6, 72, 119
1, 103440, Note_on_c, 6, 76, 119
1, 103440, Note_on_c, 9, 42, 76
1, 103440, Note_on_c, 11, 48, 124
1, 103440, Note_on_c, 12, 60, 87
1, 103440, Note_on_c, 12, 64, 52
1, 103480, Note_on_c, 9, 42, 0
1, 103539, Note_on_c, 12, 60, 0
1, 103551, Note_on_c, 12, 64, 0
1, 103556, Note_on_c, 6, 67, 0
1, 103556, Note_on_c, 6, 72, 0
1, 103556, Note_on_c, 6, 76, 0
1, 103556, Note_on_c, 12, 67, 0
1, 103561, Note_on_c, 12, 48, 0
1, 103591, Note_on_c, 11, 48, 0
1, 103594, Note_on_c, 1, 43, 0
1, 103680, Note_on_c, 1, 48, 110
1, 103680, Note_on_c, 9, 35, 118
1, 103680, Note_on_c, 9, 42, 76
1, 103680, Note_on_c, 11, 48, 119
1, 103680, Note_on_c, 11, 55, 106
1, 103680, Note_on_c, 11, 60, 110
1, 103680, Note_on_c, 11, 64, 99
1, 103680, Note_on_c, 12, 48, 127
1, 103680, Note_on_c, 12, 60, 124
1, 103680, Note_on_c, 12, 64, 119
1, 103680, Note_on_c, 12, 67, 124
1, 103720, Note_on_c, 9, 35, 0
1, 103720, Note_on_c, 9, 42, 0
1, 103800, Note_on_c, 6, 69, 98
1, 103800, Note_on_c, 6, 72, 98
1, 103800, Note_on_c, 6, 77, 98
1, 103916, Note_on_c, 1, 48, 0
1, 103916, Note_on_c, 6, 69, 0
1, 103916, Note_on_c, 6, 72, 0
1, 103916, Note_on_c, 6, 77, 0
1, 103920, Note_on_c, 1, 48, 94
1, 103920, Note_on_c, 6, 69, 113
1, 103920, Note_on_c, 6, 72, 115
1, 103920, Note_on_c, 6, 77, 113
1, 103920, Note_on_c, 9, 42, 76
1, 103960, Note_on_c, 9, 42, 0
1, 103983, Note_on_c, 12, 60, 0
1, 103986, Note_on_c, 11, 55, 0
1, 104016, Note_on_c, 12, 64, 0
1, 104028, Note_on_c, 12, 67, 0
1, 104036, Note_on_c, 6, 69, 0
1, 104036, Note_on_c, 6, 72, 0
1, 104036, Note_on_c, 6, 77, 0
1, 104040, Note_on_c, 6, 69, 98
1, 104040, Note_on_c, 6, 72, 98
1, 104040, Note_on_c, 6, 77, 98
1, 104060, Note_on_c, 11, 60, 0
1, 104088, Note_on_c, 11, 64, 0
1, 104156, Note_on_c, 1, 48, 0
1, 104156, Note_on_c, 6, 69, 0
1, 104156, Note_on_c, 6, 72, 0
1, 104156, Note_on_c, 6, 77, 0
1, 104160, Note_on_c, 1, 48, 110
1, 104160, Note_on_c, 6, 69, 113
1, 104160, Note_on_c, 6, 72, 115
1, 104160, Note_on_c, 6, 77, 113
1, 104160, Note_on_c, 9, 40, 118
1, 104160, Note_on_c, 9, 42, 76
1, 104160, Note_on_c, 11, 55, 81
1, 104160, Note_on_c, 11, 60, 60
1, 104160, Note_on_c, 11, 64, 41
1, 104160, Note_on_c, 12, 60, 94
1, 104160, Note_on_c, 12, 64, 94
1, 104160, Note_on_c, 12, 67, 94
1, 104200, Note_on_c, 9, 40, 0
1, 104200, Note_on_c, 9, 42, 0
1, 104202, Note_on_c, 11, 64, 0
1, 104228, Note_on_c, 11, 60, 0
1, 104252, Note_on_c, 12, 67, 0
1, 104255, Note_on_c, 12, 64, 0
1, 104261, Note_on_c, 12, 60, 0
1, 104276, Note_on_c, 6, 69, 0
1, 104276, Note_on_c, 6, 72, 0
1, 104276, Note_on_c, 6, 77, 0
1, 104280, Note_on_c, 6, 69, 98
1, 104280, Note_on_c, 6, 72, 98
1, 104280, Note_on_c, 6, 77, 98
1, 104280, Note_on_c, 11, 55, 0
1, 104396, Note_on_c, 1, 48, 0
1, 104396, Note_on_c, 6, 69, 0
1, 104396, Note_on_c, 6, 72, 0
1, 104396, Note_on_c, 6, 77, 0
1, 104400, Lyric_t, "SO "
1, 104400, Note_on_c, 1, 45, 106
1, 104400, Note_on_c, 3, 64, 115
1, 104400, Note_on_c, 6, 69, 113
1, 104400, Note_on_c, 6, 72, 117
1, 104400, Note_on_c, 6, 77, 113
1, 104400, Note_on_c, 9, 42, 76
1, 104400, Note_on_c, 11, 55, 110
1, 104400, Note_on_c, 11, 60, 127
1, 104400, Note_on_c, 11, 64, 119
1, 104400, Note_on_c, 12, 60, 119
1, 104400, Note_on_c, 12, 64, 119
1, 104400, Note_on_c, 12, 67, 124
1, 104440, Note_on_c, 9, 42, 0
1, 104477, Note_on_c, 3, 64, 0
1, 104516, Note_on_c, 6, 69, 0
1, 104516, Note_on_c, 6, 72, 0
1, 104516, Note_on_c, 6, 77, 0
1, 104520, Note_on_c, 6, 69, 98
1, 104520, Note_on_c, 6, 72, 98
1, 104520, Note_on_c, 6, 77, 98
1, 104636, Note_on_c, 1, 45, 0
1, 104636, Note_on_c, 6, 69, 0
1, 104636, Note_on_c, 6, 72, 0
1, 104636, Note_on_c, 6, 77, 0
1, 104640, Lyric_t, "DON'T "
1, 104640, Note_on_c, 1, 43, 114
1, 104640, Note_on_c, 3, 64, 115
1, 104640, Note_on_c, 6, 69, 124
1, 104640, Note_on_c, 6, 72, 124
1, 104640, Note_on_c, 6, 77, 124
1, 104640, Note_on_c, 9, 35, 118
1, 104640, Note_on_c, 9, 42, 76
1, 104680, Note_on_c, 9, 35, 0
1, 104680, Note_on_c, 9, 42, 0
1, 104698, Note_on_c, 12, 64, 0
1, 104701, Note_on_c, 11, 48, 0
1, 104702, Note_on_c, 12, 67, 0
1, 104705, Note_on_c, 12, 60, 0
1, 104823, Note_on_c, 11, 55, 0
1, 104833, Note_on_c, 6, 77, 0
1, 104835, Note_on_c, 6, 69, 0
1, 104842, Note_on_c, 6, 72, 0
1, 104851, Note_on_c, 11, 60, 0
1, 104867, Note_on_c, 3, 64, 0
1, 104876, Note_on_c, 1, 43, 0
1, 104880, Lyric_t, "GO "
1, 104880, Note_on_c, 1, 40, 114
1, 104880, Note_on_c, 3, 67, 115
1, 104880, Note_on_c, 6, 67, 127
1, 104880, Note_on_c, 6, 72, 119
1, 104880, Note_on_c, 6, 76, 119
1, 104880, Note_on_c, 9, 35, 118
1, 104880, Note_on_c, 9, 40, 76
1, 104880, Note_on_c, 9, 42, 76
1, 104880, Note_on_c, 11, 48, 110
1, 104880, Note_on_c, 12, 60, 110
1, 104880, Note_on_c, 12, 64, 124
1, 104880, Note_on_c, 12, 67, 127
1, 104887, Note_on_c, 11, 64, 0
1, 104899, Note_on_c, 12, 48, 0
1, 104920, Note_on_c, 9, 35, 0
1, 104920, Note_on_c, 9, 40, 0
1, 104920, Note_on_c, 9, 42, 0
1, 104996, Note_on_c, 6, 67, 0
1, 104996, Note_on_c, 6, 72, 0
1, 104996, Note_on_c, 6, 76, 0
1, 105000, Note_on_c, 9, 40, 76
1, 105040, Note_on_c, 9, 40, 0
1, 105116, Note_on_c, 1, 40, 0
1, 105120, Note_on_c, 1, 38, 106
1, 105120, Note_on_c, 9, 40, 118
1, 105120, Note_on_c, 9, 42, 76
1, 105120, Note_on_c, 11, 60, 119
1, 105120, Note_on_c, 11, 64, 124
1, 105120, Note_on_c, 11, 67, 119
1, 105120, Note_on_c, 12, 48, 124
1, 105153, Note_on_c, 11, 48, 0
1, 105160, Note_on_c, 9, 40, 0
1, 105160, Note_on_c, 9, 42, 0
1, 105209, Note_on_c, 12, 60, 0
1, 105311, Note_on_c, 12, 64, 0
1, 105327, Note_on_c, 11, 60, 0
1, 105335, Note_on_c, 11, 64, 0
1, 105338, Note_on_c, 11, 67, 0
1, 105356, Note_on_c, 1, 38, 0
1, 105360, Lyric_t, "HIGH"
1, 105360, Note_on_c, 1, 36, 124
1, 105360, Note_on_c, 3, 71, 115
1, 105360, Note_on_c, 4, 59, 106
1, 105360, Note_on_c, 4, 62, 110
1, 105360, Note_on_c, 4, 64, 114
1, 105360, Note_on_c, 4, 67, 110
1, 105360, Note_on_c, 9, 42, 76
1, 105360, Note_on_c, 9, 45, 118
1, 105360, Note_on_c, 11, 48, 124
1, 105360, Note_on_c, 12, 60, 87
1, 105360, Note_on_c, 12, 64, 52
1, 105361, Note_on_c, 3, 67, 0
1, 105400, Note_on_c, 9, 42, 0
1, 105400, Note_on_c, 9, 45, 0
1, 105459, Note_on_c, 12, 60, 0
1, 105471, Note_on_c, 12, 64, 0
1, 105476, Note_on_c, 12, 67, 0
1, 105481, Note_on_c, 12, 48, 0
1, 105511, Note_on_c, 11, 48, 0
1, 105534, Note_on_c, 2, 72, 0
1, 105544, Note_on_c, 2, 64, 0
1, 105596, Note_on_c, 1, 36, 0
1, 105600, Note_on_c, 1, 28, 127
1, 105600, Note_on_c, 2, 62, 97
1, 105600, Note_on_c, 2, 67, 97
1, 105600, Note_on_c, 2, 71, 97
1, 105600, Note_on_c, 6, 40, 127
1, 105600, Note_on_c, 6, 47, 124
1, 105600, Note_on_c, 9, 35, 118
1, 105600, Note_on_c, 9, 49, 91
1, 105600, Note_on_c, 11, 40, 119
1, 105600, Note_on_c, 11, 59, 110
1, 105600, Note_on_c, 11, 62, 119
1, 105600, Note_on_c, 11, 67, 119
1, 105600, Note_on_c, 12, 52, 127
1, 105600, Note_on_c, 12, 59, 119
1, 105600, Note_on_c, 12, 62, 106
1, 105600, Note_on_c, 13, 71, 72
1, 105640, Note_on_c, 9, 35, 0
1, 105640, Note_on_c, 9, 49, 0
1, 105840, Note_on_c, 9, 42, 76
1, 105840, Note_on_c, 13, 76, 75
1, 105845, Note_on_c, 13, 71, 0
1, 105880, Note_on_c, 9, 42, 0
1, 105929, Note_on_c, 11, 59, 0
1, 105944, Note_on_c, 6, 47, 0
1, 105961, Note_on_c, 6, 40, 0
1, 106000, Note_on_c, 12, 59, 0
1, 106028, Note_on_c, 11, 62, 0
1, 106070, Note_on_c, 11, 67, 0
1, 106080, Note_on_c, 6, 40, 87
1, 106080, Note_on_c, 6, 47, 124
1, 106080, Note_on_c, 9, 40, 118
1, 106080, Note_on_c, 9, 42, 76
1, 106080, Note_on_c, 11, 52, 50
1, 106080, Note_on_c, 11, 59, 94
1, 106080, Note_on_c, 11, 62, 60
1, 106080, Note_on_c, 11, 67, 33
1, 106080, Note_on_c, 12, 59, 87
1, 106080, Note_on_c, 13, 71, 81
1, 106083, Note_on_c, 1, 28, 0
1, 106102, Note_on_c, 6, 40, 0
1, 106120, Note_on_c, 9, 40, 0
1, 106120, Note_on_c, 9, 42, 0
1, 106138, Note_on_c, 11, 52, 0
1, 106144, Note_on_c, 6, 47, 0
1, 106146, Note_on_c, 11, 62, 0
1, 106162, Note_on_c, 11, 67, 0
1, 106162, Note_on_c, 12, 52, 0
1, 106168, Note_on_c, 11, 59, 0
1, 106175, Note_on_c, 12, 62, 0
1, 106177, Note_on_c, 12, 59, 0
1, 106218, Note_on_c, 11, 40, 0
1, 106245, Note_on_c, 13, 76, 0
1, 106320, Note_on_c, 1, 28, 124
1, 106320, Note_on_c, 6, 40, 127
1, 106320, Note_on_c, 6, 47, 127
1, 106320, Note_on_c, 9, 42, 76
1, 106320, Note_on_c, 11, 40, 114
1, 106320, Note_on_c, 11, 52, 114
1, 106320, Note_on_c, 11, 59, 119
1, 106320, Note_on_c, 11, 62, 119
1, 106320, Note_on_c, 11, 67, 124
1, 106320, Note_on_c, 12, 52, 127
1, 106320, Note_on_c, 12, 59, 119
1, 106320, Note_on_c, 12, 62, 124
1, 106320, Note_on_c, 13, 79, 110
1, 106360, Note_on_c, 9, 42, 0
1, 106364, Note_on_c, 13, 71, 0
1, 106560, Note_on_c, 9, 35, 118
1, 106560, Note_on_c, 9, 42, 76
1, 106560, Note_on_c, 13, 71, 87
1, 106571, Note_on_c, 6, 47, 0
1, 106576, Note_on_c, 11, 59, 0
1, 106598, Note_on_c, 6, 40, 0
1, 106600, Note_on_c, 9, 35, 0
1, 106600, Note_on_c, 9, 42, 0
1, 106608, Note_on_c, 1, 28, 0
1, 106688, Note_on_c, 12, 59, 0
1, 106707, Note_on_c, 12, 62, 0
1, 106710, Note_on_c, 13, 79, 0
1, 106774, Note_on_c, 11, 67, 0
1, 106800, Note_on_c, 1, 28, 106
1, 106800, Note_on_c, 6, 47, 114
1, 106800, Note_on_c, 9, 35, 118
1, 106800, Note_on_c, 9, 42, 76
1, 106800, Note_on_c, 11, 59, 84
1, 106800, Note_on_c, 12, 59, 119
1, 106800, Note_on_c, 12, 62, 119
1, 106800, Note_on_c, 13, 76, 91
1, 106802, Note_on_c, 11, 62, 0
1, 106816, Note_on_c, 13, 71, 0
1, 106840, Note_on_c, 9, 35, 0
1, 106840, Note_on_c, 9, 42, 0
1, 106863, Note_on_c, 6, 47, 0
1, 106865, Note_on_c, 12, 52, 0
1, 106898, Note_on_c, 11, 59, 0
1, 107025, Note_on_c, 1, 28, 0
1, 107040, Note_on_c, 1, 31, 119
1, 107040, Note_on_c, 6, 47, 127
1, 107040, Note_on_c, 6, 52, 127
1, 107040, Note_on_c, 9, 40, 118
1, 107040, Note_on_c, 9, 42, 76
1, 107040, Note_on_c, 11, 59, 114
1, 107040, Note_on_c, 11, 62, 124
1, 107040, Note_on_c, 11, 67, 127
1, 107040, Note_on_c, 12, 52, 124
1, 107040, Note_on_c, 13, 71, 81
1, 107080, Note_on_c, 9, 40, 0
1, 107080, Note_on_c, 9, 42, 0
1, 107081, Note_on_c, 11, 52, 0
1, 107089, Note_on_c, 12, 59, 0
1, 107108, Note_on_c, 11, 40, 0
1, 107126, Note_on_c, 13, 76, 0
1, 107226, Note_on_c, 1, 31, 0
1, 107243, Note_on_c, 13, 71, 0
1, 107269, Note_on_c, 6, 52, 0
1, 107278, Note_on_c, 6, 47, 0
1, 107279, Note_on_c, 3, 71, 0
1, 107280, Lyric_t, "ER"
1, 107280, Lyric_t, "\015"
1, 107280, Note_on_c, 1, 32, 127
1, 107280, Note_on_c, 3, 67, 115
1, 107280, Note_on_c, 6, 40, 119
1, 107280, Note_on_c, 9, 42, 76
1, 107280, Note_on_c, 11, 52, 119
1, 107280, Note_on_c, 12, 59, 91
1, 107280, Note_on_c, 13, 76, 72
1, 107319, Note_on_c, 11, 67, 0
1, 107320, Note_on_c, 9, 42, 0
1, 107323, Note_on_c, 11, 62, 0
1, 107324, Note_on_c, 11, 59, 0
1, 107337, Note_on_c, 12, 62, 0
1, 107350, Note_on_c, 12, 52, 0
1, 107359, Note_on_c, 6, 40, 0
1, 107396, Note_on_c, 12, 59, 0
1, 107448, Note_on_c, 11, 52, 0
1, 107496, Note_on_c, 2, 62, 0
1, 107496, Note_on_c, 2, 67, 0
1, 107496, Note_on_c, 2, 71, 0
1, 107509, Note_on_c, 1, 32, 0
1, 107516, Note_on_c, 4, 59, 0
1, 107516, Note_on_c, 4, 62, 0
1, 107516, Note_on_c, 4, 64, 0
1, 107516, Note_on_c, 4, 67, 0
1, 107520, Note_on_c, 1, 33, 106
1, 107520, Note_on_c, 2, 64, 97
1, 107520, Note_on_c, 2, 67, 97
1, 107520, Note_on_c, 2, 72, 97
1, 107520, Note_on_c, 4, 57, 110
1, 107520, Note_on_c, 4, 60, 110
1, 107520, Note_on_c, 4, 64, 119
1, 107520, Note_on_c, 6, 45, 124
1, 107520, Note_on_c, 6, 52, 127
1, 107520, Note_on_c, 9, 35, 118
1, 107520, Note_on_c, 9, 42, 76
1, 107520, Note_on_c, 11, 45, 106
1, 107520, Note_on_c, 11, 55, 119
1, 107520, Note_on_c, 11, 60, 124
1, 107520, Note_on_c, 11, 64, 110
1, 107520, Note_on_c, 12, 45, 119
1, 107520, Note_on_c, 12, 60, 124
1, 107520, Note_on_c, 12, 64, 119
1, 107520, Note_on_c, 13, 72, 75
1, 107535, Note_on_c, 13, 76, 0
1, 107560, Note_on_c, 9, 35, 0
1, 107560, Note_on_c, 9, 42, 0
1, 107753, Note_on_c, 6, 45, 0
1, 107760, Note_on_c, 9, 42, 76
1, 107760, Note_on_c, 13, 76, 78
1, 107766, Note_on_c, 6, 52, 0
1, 107768, Note_on_c, 13, 72, 0
1, 107800, Note_on_c, 9, 42, 0
1, 107830, Note_on_c, 11, 55, 0
1, 107849, Note_on_c, 12, 60, 0
1, 107918, Note_on_c, 11, 60, 0
1, 107923, Note_on_c, 12, 64, 0
1, 107928, Note_on_c, 4, 60, 0
1, 107928, Note_on_c, 11, 64, 0
1, 107938, Note_on_c, 4, 57, 0
1, 107956, Note_on_c, 4, 64, 0
1, 107983, Note_on_c, 1, 33, 0
1, 108000, Note_on_c, 6, 45, 110
1, 108000, Note_on_c, 6, 52, 110
1, 108000, Note_on_c, 9, 40, 118
1, 108000, Note_on_c, 9, 42, 76
1, 108000, Note_on_c, 11, 55, 71
1, 108000, Note_on_c, 11, 60, 50
1, 108000, Note_on_c, 12, 60, 99
1, 108000, Note_on_c, 12, 64, 72
1, 108000, Note_on_c, 13, 72, 78
1, 108025, Note_on_c, 11, 45, 0
1, 108040, Note_on_c, 9, 40, 0
1, 108040, Note_on_c, 9, 42, 0
1, 108040, Note_on_c, 12, 45, 0
1, 108040, Note_on_c, 13, 76, 0
1, 108043, Note_on_c, 6, 45, 0
1, 108043, Note_on_c, 11, 60, 0
1, 108048, Note_on_c, 6, 52, 0
1, 108054, Note_on_c, 3, 67, 0
1, 108061, Note_on_c, 12, 64, 0
1, 108077, Note_on_c, 11, 55, 0
1, 108078, Note_on_c, 12, 60, 0
1, 108240, Note_on_c, 1, 33, 114
1, 108240, Note_on_c, 6, 45, 127
1, 108240, Note_on_c, 6, 52, 119
1, 108240, Note_on_c, 9, 42, 76
1, 108240, Note_on_c, 11, 45, 124
1, 108240, Note_on_c, 11, 55, 106
1, 108240, Note_on_c, 11, 60, 119
1, 108240, Note_on_c, 11, 64, 119
1, 108240, Note_on_c, 12, 45, 127
1, 108240, Note_on_c, 12, 60, 124
1, 108240, Note_on_c, 12, 64, 127
1, 108240, Note_on_c, 13, 79, 106
1, 108244, Note_on_c, 13, 72, 0
1, 108280, Note_on_c, 9, 42, 0
1, 108478, Note_on_c, 6, 45, 0
1, 108480, Lyric_t, "FOR "
1, 108480, Note_on_c, 3, 64, 115
1, 108480, Note_on_c, 9, 35, 118
1, 108480, Note_on_c, 9, 42, 76
1, 108480, Note_on_c, 13, 72, 75
1, 108483, Note_on_c, 6, 52, 0
1, 108501, Note_on_c, 11, 55, 0
1, 108505, Note_on_c, 4, 57, 99
1, 108506, Note_on_c, 4, 60, 99
1, 108508, Note_on_c, 4, 64, 106
1, 108520, Note_on_c, 9, 35, 0
1, 108520, Note_on_c, 9, 42, 0
1, 108560, Note_on_c, 13, 79, 0
1, 108572, Note_on_c, 12, 60, 0
1, 108587, Note_on_c, 11, 60, 0
1, 108601, Note_on_c, 4, 60, 0
1, 108605, Note_on_c, 4, 64, 0
1, 108606, Note_on_c, 12, 64, 0
1, 108608, Note_on_c, 4, 57, 0
1, 108625, Note_on_c, 1, 33, 0
1, 108653, Note_on_c, 11, 64, 0
1, 108691, Note_on_c, 3, 64, 0
1, 108717, Note_on_c, 13, 72, 0
1, 108720, Lyric_t, "YOUR "
1, 108720, Note_on_c, 1, 33, 110
1, 108720, Note_on_c, 3, 67, 115
1, 108720, Note_on_c, 6, 45, 127
1, 108720, Note_on_c, 6, 52, 127
1, 108720, Note_on_c, 9, 35, 118
1, 108720, Note_on_c, 9, 42, 76
1, 108720, Note_on_c, 11, 55, 102
1, 108720, Note_on_c, 12, 60, 119
1, 108720, Note_on_c, 12, 64, 119
1, 108720, Note_on_c, 13, 76, 94
1, 108738, Note_on_c, 4, 64, 106
1, 108740, Note_on_c, 4, 60, 114
1, 108742, Note_on_c, 4, 57, 119
1, 108760, Note_on_c, 9, 35, 0
1, 108760, Note_on_c, 9, 42, 0
1, 108774, Note_on_c, 12, 45, 0
1, 108861, Note_on_c, 11, 55, 0
1, 108928, Note_on_c, 1, 33, 0
1, 108960, Note_on_c, 1, 33, 119
1, 108960, Note_on_c, 9, 40, 118
1, 108960, Note_on_c, 9, 42, 76
1, 108960, Note_on_c, 11, 55, 99
1, 108960, Note_on_c, 11, 60, 127
1, 108960, Note_on_c, 11, 64, 124
1, 108960, Note_on_c, 12, 45, 127
1, 108960, Note_on_c, 13, 72, 52
1, 109000, Note_on_c, 9, 40, 0
1, 109000, Note_on_c, 9, 42, 0
1, 109015, Note_on_c, 11, 45, 0
1, 109034, Note_on_c, 13, 76, 0
1, 109046, Note_on_c, 6, 45, 0
1, 109052, Note_on_c, 12, 60, 0
1, 109098, Note_on_c, 6, 52, 0
1, 109112, Note_on_c, 1, 33, 0
1, 109178, Note_on_c, 3, 67, 0
1, 109200, Lyric_t, "FI"
1, 109200, Note_on_c, 1, 33, 106
1, 109200, Note_on_c, 3, 71, 115
1, 109200, Note_on_c, 6, 45, 114
1, 109200, Note_on_c, 6, 52, 114
1, 109200, Note_on_c, 9, 42, 76
1, 109200, Note_on_c, 11, 45, 114
1, 109200, Note_on_c, 12, 60, 81
1, 109200, Note_on_c, 13, 76, 67
1, 109205, Note_on_c, 4, 57, 0
1, 109206, Note_on_c, 11, 55, 0
1, 109207, Note_on_c, 13, 72, 0
1, 109213, Note_on_c, 11, 60, 0
1, 109215, Note_on_c, 4, 64, 0
1, 109219, Note_on_c, 4, 60, 0
1, 109240, Note_on_c, 9, 42, 0
1, 109246, Note_on_c, 11, 64, 0
1, 109277, Note_on_c, 6, 52, 0
1, 109281, Note_on_c, 6, 45, 0
1, 109292, Note_on_c, 11, 45, 0
1, 109295, Note_on_c, 12, 60, 0
1, 109297, Note_on_c, 12, 64, 0
1, 109307, Note_on_c, 1, 33, 0
1, 109331, Note_on_c, 12, 45, 0
1, 109416, Note_on_c, 2, 64, 0
1, 109416, Note_on_c, 2, 67, 0
1, 109416, Note_on_c, 2, 72, 0
1, 109440, Note_on_c, 1, 41, 114
1, 109440, Note_on_c, 2, 65, 97
1, 109440, Note_on_c, 2, 69, 97
1, 109440, Note_on_c, 2, 72, 97
1, 109440, Note_on_c, 6, 41, 119
1, 109440, Note_on_c, 6, 48, 119
1, 109440, Note_on_c, 9, 35, 118
1, 109440, Note_on_c, 9, 42, 76
1, 109440, Note_on_c, 11, 57, 114
1, 109440, Note_on_c, 11, 60, 127
1, 109440, Note_on_c, 11, 65, 124
1, 109440, Note_on_c, 12, 60, 127
1, 109440, Note_on_c, 12, 65, 119
1, 109440, Note_on_c, 13, 72, 81
1, 109474, Note_on_c, 4, 62, 110
1, 109480, Note_on_c, 9, 35, 0
1, 109480, Note_on_c, 9, 42, 0
1, 109483, Note_on_c, 4, 65, 110
1, 109485, Note_on_c, 13, 76, 0
1, 109680, Note_on_c, 3, 72, 113
1, 109680, Note_on_c, 4, 65, 0
1, 109680, Note_on_c, 9, 42, 76
1, 109680, Note_on_c, 13, 72, 0
1, 109680, Note_on_c, 13, 76, 81
1, 109683, Note_on_c, 4, 62, 0
1, 109695, Note_on_c, 3, 71, 0
1, 109712, Note_on_c, 6, 48, 0
1, 109720, Note_on_c, 9, 42, 0
1, 109722, Note_on_c, 4, 67, 114
1, 109722, Note_on_c, 6, 41, 0
1, 109728, Note_on_c, 11, 57, 0
1, 109729, Note_on_c, 4, 64, 114
1, 109791, Note_on_c, 12, 60, 0
1, 109855, Note_on_c, 12, 65, 0
1, 109887, Note_on_c, 3, 72, 0
1, 109903, Note_on_c, 4, 64, 0
1, 109920, Note_on_c, 3, 71, 110
1, 109920, Note_on_c, 6, 41, 102
1, 109920, Note_on_c, 6, 48, 114
1, 109920, Note_on_c, 9, 40, 118
1, 109920, Note_on_c, 9, 42, 76
1, 109920, Note_on_c, 11, 57, 81
1, 109920, Note_on_c, 12, 60, 106
1, 109920, Note_on_c, 12, 65, 94
1, 109920, Note_on_c, 13, 72, 71
1, 109925, Note_on_c, 4, 67, 0
1, 109931, Note_on_c, 13, 76, 0
1, 109938, Note_on_c, 1, 41, 0
1, 109938, Note_on_c, 11, 60, 0
1, 109948, Note_on_c, 11, 65, 0
1, 109960, Note_on_c, 9, 40, 0
1, 109960, Note_on_c, 9, 42, 0
1, 109964, Note_on_c, 4, 62, 99
1, 109969, Note_on_c, 4, 65, 94
1, 109969, Note_on_c, 6, 48, 0
1, 109982, Note_on_c, 6, 41, 0
1, 109982, Note_on_c, 11, 57, 0
1, 110021, Note_on_c, 12, 65, 0
1, 110024, Note_on_c, 12, 60, 0
1, 110154, Note_on_c, 4, 65, 0
1, 110155, Note_on_c, 13, 72, 0
1, 110160, Note_on_c, 1, 41, 114
1, 110160, Note_on_c, 3, 72, 115
1, 110160, Note_on_c, 6, 41, 110
1, 110160, Note_on_c, 6, 48, 127
1, 110160, Note_on_c, 9, 42, 76
1, 110160, Note_on_c, 11, 41, 119
1, 110160, Note_on_c, 11, 57, 102
1, 110160, Note_on_c, 11, 60, 124
1, 110160, Note_on_c, 11, 65, 114
1, 110160, Note_on_c, 12, 53, 114
1, 110160, Note_on_c, 12, 60, 124
1, 110160, Note_on_c, 12, 65, 124
1, 110160, Note_on_c, 13, 79, 114
1, 110164, Note_on_c, 4, 62, 0
1, 110166, Note_on_c, 4, 67, 114
1, 110172, Note_on_c, 4, 64, 114
1, 110183, Note_on_c, 3, 71, 0
1, 110200, Note_on_c, 9, 42, 0
1, 110259, Note_on_c, 1, 41, 0
1, 110336, Note_on_c, 4, 64, 0
1, 110371, Note_on_c, 4, 67, 0
1, 110390, Note_on_c, 3, 72, 0
1, 110400, Note_on_c, 1, 36, 114
1, 110400, Note_on_c, 3, 71, 109
1, 110400, Note_on_c, 9, 35, 118
1, 110400, Note_on_c, 9, 42, 76
1, 110400, Note_on_c, 13, 72, 75
1, 110419, Note_on_c, 4, 62, 94
1, 110425, Note_on_c, 4, 65, 94
1, 110437, Note_on_c, 11, 57, 0
1, 110440, Note_on_c, 9, 35, 0
1, 110440, Note_on_c, 9, 42, 0
1, 110495, Note_on_c, 13, 79, 0
1, 110496, Note_on_c, 12, 60, 0
1, 110515, Note_on_c, 12, 65, 0
1, 110516, Note_on_c, 6, 41, 0
1, 110520, Note_on_c, 11, 60, 0
1, 110529, Note_on_c, 11, 65, 0
1, 110580, Note_on_c, 1, 36, 0
1, 110598, Note_on_c, 4, 65, 0
1, 110603, Note_on_c, 4, 62, 0
1, 110616, Note_on_c, 6, 48, 0
1, 110622, Note_on_c, 4, 67, 119
1, 110630, Note_on_c, 4, 64, 119
1, 110636, Note_on_c, 3, 71, 0
1, 110640, Note_on_c, 1, 36, 81
1, 110640, Note_on_c, 3, 72, 113
1, 110640, Note_on_c, 6, 41, 94
1, 110640, Note_on_c, 9, 35, 118
1, 110640, Note_on_c, 9, 42, 76
1, 110640, Note_on_c, 11, 57, 114
1, 110640, Note_on_c, 11, 60, 124
1, 110640, Note_on_c, 11, 65, 119
1, 110640, Note_on_c, 12, 60, 119
1, 110640, Note_on_c, 12, 65, 124
1, 110640, Note_on_c, 13, 76, 110
1, 110642, Note_on_c, 13, 72, 0
1, 110643, Note_on_c, 11, 41, 0
1, 110680, Note_on_c, 9, 35, 0
1, 110680, Note_on_c, 9, 42, 0
1, 110685, Note_on_c, 12, 53, 0
1, 110750, Note_on_c, 6, 41, 0
1, 110843, Note_on_c, 4, 64, 0
1, 110854, Note_on_c, 1, 36, 0
1, 110855, Note_on_c, 11, 57, 0
1, 110876, Note_on_c, 3, 72, 0
1, 110880, Note_on_c, 1, 41, 106
1, 110880, Note_on_c, 3, 71, 110
1, 110880, Note_on_c, 6, 41, 102
1, 110880, Note_on_c, 6, 48, 127
1, 110880, Note_on_c, 9, 40, 118
1, 110880, Note_on_c, 9, 42, 76
1, 110880, Note_on_c, 11, 41, 124
1, 110880, Note_on_c, 12, 53, 119
1, 110880, Note_on_c, 13, 72, 72
1, 110885, Note_on_c, 4, 62, 99
1, 110895, Note_on_c, 4, 65, 102
1, 110914, Note_on_c, 4, 67, 0
1, 110920, Note_on_c, 9, 40, 0
1, 110920, Note_on_c, 9, 42, 0
1, 110979, Note_on_c, 13, 76, 0
1, 110981, Note_on_c, 11, 60, 0
1, 110993, Note_on_c, 12, 60, 0
1, 111110, Note_on_c, 6, 41, 0
1, 111120, Note_on_c, 1, 36, 124
1, 111120, Note_on_c, 9, 42, 76
1, 111120, Note_on_c, 11, 57, 110
1, 111120, Note_on_c, 12, 60, 99
1, 111120, Note_on_c, 13, 76, 75
1, 111124, Note_on_c, 1, 41, 0
1, 111128, Note_on_c, 12, 53, 0
1, 111133, Note_on_c, 13, 72, 0
1, 111156, Note_on_c, 4, 62, 0
1, 111160, Note_on_c, 9, 42, 0
1, 111161, Note_on_c, 4, 65, 0
1, 111167, Note_on_c, 6, 48, 0
1, 111237, Note_on_c, 12, 65, 0
1, 111239, Note_on_c, 12, 60, 0
1, 111247, Note_on_c, 11, 65, 0
1, 111287, Note_on_c, 11, 57, 0
1, 111321, Note_on_c, 11, 41, 0
1, 111336, Note_on_c, 1, 36, 0
1, 111336, Note_on_c, 2, 65, 0
1, 111336, Note_on_c, 2, 69, 0
1, 111336, Note_on_c, 2, 72, 0
1, 111356, Note_on_c, 3, 71, 0
1, 111360, Lyric_t, "RE"
1, 111360, Lyric_t, "\015"
1, 111360, Note_on_c, 1, 36, 127
1, 111360, Note_on_c, 2, 64, 97
1, 111360, Note_on_c, 2, 67, 97
1, 111360, Note_on_c, 2, 72, 97
1, 111360, Note_on_c, 3, 67, 115
1, 111360, Note_on_c, 6, 48, 124
1, 111360, Note_on_c, 6, 55, 119
1, 111360, Note_on_c, 9, 35, 118
1, 111360, Note_on_c, 9, 42, 76
1, 111360, Note_on_c, 11, 48, 124
1, 111360, Note_on_c, 11, 55, 102
1, 111360, Note_on_c, 11, 60, 124
1, 111360, Note_on_c, 11, 64, 99
1, 111360, Note_on_c, 12, 48, 124
1, 111360, Note_on_c, 12, 60, 110
1, 111360, Note_on_c, 12, 64, 119
1, 111397, Note_on_c, 4, 64, 114
1, 111400, Note_on_c, 9, 35, 0
1, 111400, Note_on_c, 9, 42, 0
1, 111405, Note_on_c, 4, 60, 124
1, 111411, Note_on_c, 13, 76, 0
1, 111595, Note_on_c, 6, 48, 0
1, 111598, Note_on_c, 6, 55, 0
1, 111600, Note_on_c, 9, 42, 76
1, 111600, Note_on_c, 13, 76, 106
1, 111640, Note_on_c, 9, 42, 0
1, 111673, Note_on_c, 12, 60, 0
1, 111674, Note_on_c, 11, 55, 0
1, 111733, Note_on_c, 12, 64, 0
1, 111764, Note_on_c, 4, 60, 0
1, 111775, Note_on_c, 4, 64, 0
1, 111787, Note_on_c, 11, 60, 0
1, 111793, Note_on_c, 12, 48, 0
1, 111794, Note_on_c, 13, 76, 0
1, 111800, Note_on_c, 11, 64, 0
1, 111832, Note_on_c, 1, 36, 0
1, 111840, Note_on_c, 6, 48, 102
1, 111840, Note_on_c, 6, 55, 99
1, 111840, Note_on_c, 9, 40, 118
1, 111840, Note_on_c, 9, 42, 76
1, 111840, Note_on_c, 11, 55, 75
1, 111840, Note_on_c, 11, 60, 67
1, 111840, Note_on_c, 11, 64, 41
1, 111840, Note_on_c, 12, 60, 114
1, 111840, Note_on_c, 12, 64, 87
1, 111840, Note_on_c, 13, 72, 84
1, 111880, Note_on_c, 6, 48, 0
1, 111880, Note_on_c, 9, 40, 0
1, 111880, Note_on_c, 9, 42, 0
1, 111886, Note_on_c, 6, 55, 0
1, 111904, Note_on_c, 11, 64, 0
1, 111913, Note_on_c, 11, 60, 0
1, 111915, Note_on_c, 12, 64, 0
1, 111936, Note_on_c, 3, 67, 0
1, 111941, Note_on_c, 12, 60, 0
1, 111942, Note_on_c, 11, 55, 0
1, 112033, Note_on_c, 13, 72, 0
1, 112080, Note_on_c, 1, 36, 127
1, 112080, Note_on_c, 6, 48, 124
1, 112080, Note_on_c, 6, 55, 119
1, 112080, Note_on_c, 9, 42, 76
1, 112080, Note_on_c, 11, 55, 114
1, 112080, Note_on_c, 11, 60, 124
1, 112080, Note_on_c, 11, 64, 114
1, 112080, Note_on_c, 12, 48, 124
1, 112080, Note_on_c, 12, 60, 124
1, 112080, Note_on_c, 12, 64, 124
1, 112080, Note_on_c, 13, 76, 110
1, 112120, Note_on_c, 9, 42, 0
1, 112192, Note_on_c, 11, 48, 0
1, 112277, Note_on_c, 1, 36, 0
1, 112319, Note_on_c, 13, 76, 0
1, 112320, Lyric_t, "PUT "
1, 112320, Note_on_c, 1, 31, 114
1, 112320, Note_on_c, 3, 74, 112
1, 112320, Note_on_c, 9, 35, 118
1, 112320, Note_on_c, 9, 42, 76
1, 112320, Note_on_c, 13, 74, 84
1, 112360, Note_on_c, 9, 35, 0
1, 112360, Note_on_c, 9, 42, 0
1, 112400, Note_on_c, 12, 60, 0
1, 112444, Note_on_c, 12, 64, 0
1, 112445, Note_on_c, 6, 48, 0
1, 112460, Note_on_c, 6, 55, 0
1, 112467, Note_on_c, 1, 31, 0
1, 112481, Note_on_c, 3, 74, 0
1, 112493, Note_on_c, 11, 55, 0
1, 112547, Note_on_c, 13, 74, 0
1, 112560, Lyric_t, "IT "
1, 112560, Note_on_c, 1, 33, 124
1, 112560, Note_on_c, 3, 76, 111
1, 112560, Note_on_c, 6, 48, 114
1, 112560, Note_on_c, 6, 55, 119
1, 112560, Note_on_c, 9, 35, 118
1, 112560, Note_on_c, 9, 42, 76
1, 112560, Note_on_c, 11, 48, 127
1, 112560, Note_on_c, 12, 60, 124
1, 112560, Note_on_c, 12, 64, 106
1, 112560, Note_on_c, 13, 76, 119
1, 112593, Note_on_c, 11, 60, 0
1, 112600, Note_on_c, 9, 35, 0
1, 112600, Note_on_c, 9, 42, 0
1, 112604, Note_on_c, 11, 64, 0
1, 112626, Note_on_c, 12, 48, 0
1, 112732, Note_on_c, 3, 76, 0
1, 112738, Note_on_c, 1, 33, 0
1, 112782, Note_on_c, 13, 76, 0
1, 112800, Lyric_t, "IN "
1, 112800, Note_on_c, 1, 36, 124
1, 112800, Note_on_c, 3, 74, 115
1, 112800, Note_on_c, 9, 40, 118
1, 112800, Note_on_c, 9, 42, 76
1, 112800, Note_on_c, 9, 57, 76
1, 112800, Note_on_c, 11, 55, 110
1, 112800, Note_on_c, 11, 64, 102
1, 112800, Note_on_c, 12, 48, 127
1, 112800, Note_on_c, 13, 74, 102
1, 112840, Note_on_c, 9, 40, 0
1, 112840, Note_on_c, 9, 42, 0
1, 112840, Note_on_c, 9, 57, 0
1, 113014, Note_on_c, 1, 36, 0
1, 113032, Note_on_c, 13, 74, 0
1, 113040, Lyric_t, "YOUR "
1, 113040, Note_on_c, 1, 35, 114
1, 113040, Note_on_c, 3, 72, 115
1, 113040, Note_on_c, 9, 42, 76
1, 113040, Note_on_c, 13, 72, 94
1, 113043, Note_on_c, 6, 55, 0
1, 113065, Note_on_c, 12, 64, 0
1, 113069, Note_on_c, 3, 74, 0
1, 113080, Note_on_c, 9, 42, 0
1, 113084, Note_on_c, 6, 48, 0
1, 113102, Note_on_c, 12, 60, 0
1, 113129, Note_on_c, 12, 48, 0
1, 113131, Note_on_c, 11, 55, 0
1, 113155, Note_on_c, 3, 72, 0
1, 113171, Note_on_c, 11, 64, 0
1, 113173, Note_on_c, 13, 72, 0
1, 113249, Note_on_c, 11, 48, 0
1, 113255, Note_on_c, 1, 35, 0
1, 113256, Note_on_c, 2, 64, 0
1, 113256, Note_on_c, 2, 67, 0
1, 113256, Note_on_c, 2, 72, 0
1, 113280, Lyric_t, "HEAD"
1, 113280, Lyric_t, "\015"
1, 113280, Note_on_c, 1, 33, 127
1, 113280, Note_on_c, 2, 69, 119
1, 113280, Note_on_c, 2, 72, 106
1, 113280, Note_on_c, 2, 76, 106
1, 113280, Note_on_c, 3, 72, 115
1, 113280, Note_on_c, 4, 57, 114
1, 113280, Note_on_c, 4, 64, 78
1, 113280, Note_on_c, 4, 69, 102
1, 113280, Note_on_c, 4, 72, 102
1, 113280, Note_on_c, 6, 45, 119
1, 113280, Note_on_c, 6, 52, 127
1, 113280, Note_on_c, 9, 35, 118
1, 113280, Note_on_c, 9, 49, 76
1, 113280, Note_on_c, 11, 45, 127
1, 113280, Note_on_c, 11, 60, 114
1, 113280, Note_on_c, 11, 64, 119
1, 113280, Note_on_c, 11, 69, 119
1, 113280, Note_on_c, 12, 45, 119
1, 113280, Note_on_c, 12, 57, 106
1, 113280, Note_on_c, 12, 60, 119
1, 113280, Note_on_c, 12, 64, 119
1, 113280, Note_on_c, 13, 72, 124
1, 113320, Note_on_c, 9, 35, 0
1, 113320, Note_on_c, 9, 49, 0
1, 113516, Note_on_c, 13, 72, 0
1, 113520, Note_on_c, 9, 42, 76
1, 113520, Note_on_c, 13, 72, 106
1, 113543, Note_on_c, 12, 57, 0
1, 113560, Note_on_c, 9, 42, 0
1, 113656, Note_on_c, 11, 60, 0
1, 113707, Note_on_c, 12, 60, 0
1, 113715, Note_on_c, 12, 64, 0
1, 113718, Note_on_c, 3, 72, 0
1, 113742, Note_on_c, 1, 33, 0
1, 113745, Note_on_c, 12, 45, 0
1, 113756, Note_on_c, 6, 45, 0
1, 113756, Note_on_c, 6, 52, 0
1, 113756, Note_on_c, 13, 72, 0
1, 113760, Lyric_t, "BA"
1, 113760, Note_on_c, 3, 69, 113
1, 113760, Note_on_c, 6, 45, 124
1, 113760, Note_on_c, 9, 40, 118
1, 113760, Note_on_c, 9, 42, 76
1, 113760, Note_on_c, 11, 60, 102
1, 113760, Note_on_c, 12, 57, 106
1, 113760, Note_on_c, 12, 60, 102
1, 113760, Note_on_c, 12, 64, 65
1, 113760, Note_on_c, 13, 72, 91
1, 113800, Note_on_c, 9, 40, 0
1, 113800, Note_on_c, 9, 42, 0
1, 113833, Note_on_c, 11, 64, 0
1, 113848, Note_on_c, 11, 45, 0
1, 113944, Note_on_c, 3, 69, 0
1, 113996, Note_on_c, 13, 72, 0
1, 114000, Lyric_t, "BY "
1, 114000, Note_on_c, 1, 33, 127
1, 114000, Note_on_c, 3, 72, 115
1, 114000, Note_on_c, 9, 42, 76
1, 114000, Note_on_c, 11, 45, 114
1, 114000, Note_on_c, 11, 64, 94
1, 114000, Note_on_c, 12, 45, 124
1, 114000, Note_on_c, 13, 72, 114
1, 114040, Note_on_c, 9, 42, 0
1, 114045, Note_on_c, 11, 69, 0
1, 114090, Note_on_c, 11, 60, 0
1, 114105, Note_on_c, 3, 72, 0
1, 114115, Note_on_c, 11, 64, 0
1, 114141, Note_on_c, 12, 57, 0
1, 114155, Note_on_c, 12, 60, 0
1, 114156, Note_on_c, 11, 45, 0
1, 114179, Note_on_c, 6, 45, 0
1, 114188, Note_on_c, 12, 64, 0
1, 114196, Note_on_c, 12, 45, 0
1, 114198, Note_on_c, 1, 33, 0
1, 114214, Note_on_c, 4, 57, 0
1, 114224, Note_on_c, 2, 69, 0
1, 114240, Lyric_t, "HOL"
1, 114240, Note_on_c, 1, 31, 119
1, 114240, Note_on_c, 2, 67, 119
1, 114240, Note_on_c, 3, 74, 115
1, 114240, Note_on_c, 4, 55, 106
1, 114240, Note_on_c, 6, 43, 127
1, 114240, Note_on_c, 9, 35, 118
1, 114240, Note_on_c, 9, 42, 76
1, 114240, Note_on_c, 11, 43, 127
1, 114240, Note_on_c, 11, 60, 119
1, 114240, Note_on_c, 11, 64, 119
1, 114240, Note_on_c, 11, 69, 124
1, 114240, Note_on_c, 12, 43, 127
1, 114240, Note_on_c, 12, 57, 106
1, 114240, Note_on_c, 12, 60, 119
1, 114240, Note_on_c, 12, 64, 119
1, 114280, Note_on_c, 9, 35, 0
1, 114280, Note_on_c, 9, 42, 0
1, 114440, Note_on_c, 3, 74, 0
1, 114476, Note_on_c, 13, 72, 0
1, 114480, Lyric_t, "LY"
1, 114480, Note_on_c, 3, 76, 112
1, 114480, Note_on_c, 9, 35, 118
1, 114480, Note_on_c, 9, 42, 76
1, 114480, Note_on_c, 13, 72, 114
1, 114503, Note_on_c, 12, 57, 0
1, 114520, Note_on_c, 9, 35, 0
1, 114520, Note_on_c, 9, 42, 0
1, 114591, Note_on_c, 11, 60, 0
1, 114653, Note_on_c, 3, 76, 0
1, 114667, Note_on_c, 12, 60, 0
1, 114675, Note_on_c, 12, 64, 0
1, 114716, Note_on_c, 6, 43, 0
1, 114720, Lyric_t, "WOOD "
1, 114720, Note_on_c, 3, 74, 113
1, 114720, Note_on_c, 6, 43, 127
1, 114720, Note_on_c, 9, 40, 118
1, 114720, Note_on_c, 9, 42, 76
1, 114720, Note_on_c, 11, 60, 106
1, 114720, Note_on_c, 12, 57, 106
1, 114720, Note_on_c, 12, 60, 102
1, 114720, Note_on_c, 12, 64, 65
1, 114746, Note_on_c, 1, 31, 0
1, 114750, Note_on_c, 12, 43, 0
1, 114760, Note_on_c, 9, 40, 0
1, 114760, Note_on_c, 9, 42, 0
1, 114931, Note_on_c, 11, 43, 0
1, 114939, Note_on_c, 3, 74, 0
1, 114956, Note_on_c, 13, 72, 0
1, 114960, Lyric_t, "IS "
1, 114960, Note_on_c, 1, 31, 110
1, 114960, Note_on_c, 3, 72, 115
1, 114960, Note_on_c, 9, 42, 76
1, 114960, Note_on_c, 11, 43, 87
1, 114960, Note_on_c, 12, 43, 119
1, 114960, Note_on_c, 13, 72, 106
1, 114992, Note_on_c, 11, 60, 0
1, 115000, Note_on_c, 9, 42, 0
1, 115013, Note_on_c, 11, 64, 0
1, 115039, Note_on_c, 11, 69, 0
1, 115060, Note_on_c, 3, 72, 0
1, 115101, Note_on_c, 12, 57, 0
1, 115115, Note_on_c, 12, 60, 0
1, 115116, Note_on_c, 11, 43, 0
1, 115142, Note_on_c, 12, 43, 0
1, 115148, Note_on_c, 12, 64, 0
1, 115175, Note_on_c, 2, 67, 0
1, 115181, Note_on_c, 1, 31, 0
1, 115196, Note_on_c, 6, 43, 0
1, 115196, Note_on_c, 13, 72, 0
1, 115200, Lyric_t, "DEAD"
1, 115200, Lyric_t, "\015"
1, 115200, Note_on_c, 1, 30, 109
1, 115200, Note_on_c, 2, 66, 120
1, 115200, Note_on_c, 3, 74, 115
1, 115200, Note_on_c, 4, 54, 109
1, 115200, Note_on_c, 6, 42, 127
1, 115200, Note_on_c, 9, 35, 118
1, 115200, Note_on_c, 9, 42, 76
1, 115200, Note_on_c, 11, 42, 127
1, 115200, Note_on_c, 11, 60, 114
1, 115200, Note_on_c, 11, 64, 119
1, 115200, Note_on_c, 11, 69, 119
1, 115200, Note_on_c, 12, 42, 127
1, 115200, Note_on_c, 12, 60, 102
1, 115200, Note_on_c, 12, 64, 114
1, 115200, Note_on_c, 12, 69, 114
1, 115200, Note_on_c, 13, 72, 114
1, 115211, Note_on_c, 4, 55, 0
1, 115240, Note_on_c, 9, 35, 0
1, 115240, Note_on_c, 9, 42, 0
1, 115436, Note_on_c, 13, 72, 0
1, 115440, Note_on_c, 9, 42, 76
1, 115440, Note_on_c, 13, 72, 91
1, 115480, Note_on_c, 9, 42, 0
1, 115525, Note_on_c, 12, 60, 0
1, 115541, Note_on_c, 3, 74, 0
1, 115576, Note_on_c, 11, 60, 0
1, 115614, Note_on_c, 12, 64, 0
1, 115676, Note_on_c, 6, 42, 0
1, 115676, Note_on_c, 13, 72, 0
1, 115680, Lyric_t, "YOU "
1, 115680, Note_on_c, 3, 69, 107
1, 115680, Note_on_c, 6, 42, 127
1, 115680, Note_on_c, 9, 40, 118
1, 115680, Note_on_c, 9, 42, 76
1, 115680, Note_on_c, 11, 60, 102
1, 115680, Note_on_c, 12, 60, 106
1, 115680, Note_on_c, 13, 72, 99
1, 115720, Note_on_c, 9, 40, 0
1, 115720, Note_on_c, 9, 42, 0
1, 115753, Note_on_c, 11, 64, 0
1, 115771, Note_on_c, 1, 30, 0
1, 115791, Note_on_c, 12, 69, 0
1, 115843, Note_on_c, 3, 69, 0
1, 115916, Note_on_c, 13, 72, 0
1, 115920, Lyric_t, "CAN "
1, 115920, Note_on_c, 1, 30, 120
1, 115920, Note_on_c, 3, 72, 115
1, 115920, Note_on_c, 9, 42, 76
1, 115920, Note_on_c, 11, 64, 94
1, 115920, Note_on_c, 12, 64, 99
1, 115920, Note_on_c, 13, 72, 110
1, 115960, Note_on_c, 9, 42, 0
1, 115965, Note_on_c, 11, 69, 0
1, 115992, Note_on_c, 12, 42, 0
1, 116010, Note_on_c, 11, 60, 0
1, 116022, Note_on_c, 12, 64, 0
1, 116035, Note_on_c, 11, 64, 0
1, 116067, Note_on_c, 11, 42, 0
1, 116069, Note_on_c, 12, 60, 0
1, 116072, Note_on_c, 2, 76, 0
1, 116083, Note_on_c, 4, 64, 0
1, 116116, Note_on_c, 1, 30, 0
1, 116117, Note_on_c, 4, 72, 0
1, 116119, Note_on_c, 4, 69, 0
1, 116127, Note_on_c, 4, 54, 0
1, 116143, Note_on_c, 3, 72, 0
1, 116147, Note_on_c, 2, 66, 0
1, 116156, Note_on_c, 6, 42, 0
1, 116160, Lyric_t, "FIND "
1, 116160, Note_on_c, 1, 29, 109
1, 116160, Note_on_c, 2, 65, 110
1, 116160, Note_on_c, 2, 68, 101
1, 116160, Note_on_c, 3, 74, 110
1, 116160, Note_on_c, 4, 53, 106
1, 116160, Note_on_c, 4, 65, 87
1, 116160, Note_on_c, 4, 68, 109
1, 116160, Note_on_c, 4, 72, 99
1, 116160, Note_on_c, 6, 41, 124
1, 116160, Note_on_c, 9, 35, 118
1, 116160, Note_on_c, 9, 42, 76
1, 116160, Note_on_c, 11, 41, 127
1, 116160, Note_on_c, 11, 60, 119
1, 116160, Note_on_c, 11, 65, 119
1, 116160, Note_on_c, 11, 68, 124
1, 116160, Note_on_c, 12, 41, 127
1, 116160, Note_on_c, 12, 56, 110
1, 116160, Note_on_c, 12, 60, 91
1, 116160, Note_on_c, 12, 65, 127
1, 116200, Note_on_c, 9, 35, 0
1, 116200, Note_on_c, 9, 42, 0
1, 116355, Note_on_c, 3, 74, 0
1, 116396, Note_on_c, 13, 72, 0
1, 116400, Lyric_t, "IT "
1, 116400, Note_on_c, 3, 76, 113
1, 116400, Note_on_c, 9, 35, 118
1, 116400, Note_on_c, 9, 42, 76
1, 116400, Note_on_c, 13, 72, 119
1, 116440, Note_on_c, 9, 35, 0
1, 116440, Note_on_c, 9, 42, 0
1, 116511, Note_on_c, 11, 60, 0
1, 116524, Note_on_c, 12, 60, 0
1, 116557, Note_on_c, 12, 65, 0
1, 116572, Note_on_c, 12, 56, 0
1, 116636, Note_on_c, 6, 41, 0
1, 116636, Note_on_c, 13, 72, 0
1, 116640, Lyric_t, "IN "
1, 116640, Note_on_c, 3, 74, 112
1, 116640, Note_on_c, 6, 41, 124
1, 116640, Note_on_c, 9, 40, 118
1, 116640, Note_on_c, 9, 42, 76
1, 116640, Note_on_c, 11, 60, 106
1, 116640, Note_on_c, 12, 56, 94
1, 116640, Note_on_c, 12, 60, 94
1, 116640, Note_on_c, 12, 65, 99
1, 116640, Note_on_c, 13, 72, 114
1, 116651, Note_on_c, 3, 76, 0
1, 116680, Note_on_c, 9, 40, 0
1, 116680, Note_on_c, 9, 42, 0
1, 116712, Note_on_c, 12, 41, 0
1, 116731, Note_on_c, 1, 29, 0
1, 116846, Note_on_c, 3, 74, 0
1, 116853, Note_on_c, 12, 60, 0
1, 116862, Note_on_c, 12, 56, 0
1, 116872, Note_on_c, 12, 65, 0
1, 116876, Note_on_c, 13, 72, 0
1, 116880, Lyric_t, "YOUR"
1, 116880, Note_on_c, 1, 29, 120
1, 116880, Note_on_c, 3, 72, 115
1, 116880, Note_on_c, 9, 42, 76
1, 116880, Note_on_c, 12, 41, 127
1, 116880, Note_on_c, 13, 72, 110
1, 116912, Note_on_c, 11, 60, 0
1, 116920, Note_on_c, 9, 42, 0
1, 116933, Note_on_c, 11, 65, 0
1, 116959, Note_on_c, 11, 68, 0
1, 116998, Note_on_c, 11, 41, 0
1, 117002, Note_on_c, 12, 41, 0
1, 117012, Note_on_c, 3, 72, 0
1, 117032, Note_on_c, 4, 68, 0
1, 117048, Note_on_c, 4, 65, 0
1, 117052, Note_on_c, 4, 72, 0
1, 117069, Note_on_c, 2, 72, 0
1, 117076, Note_on_c, 1, 29, 0
1, 117081, Note_on_c, 2, 65, 0
1, 117088, Note_on_c, 4, 53, 0
1, 117116, Note_on_c, 2, 68, 0
1, 117116, Note_on_c, 6, 41, 0
1, 117116, Note_on_c, 13, 72, 0
1, 117120, Lyric_t, "SEL"
1, 117120, Note_on_c, 1, 36, 119
1, 117120, Note_on_c, 2, 64, 114
1, 117120, Note_on_c, 2, 72, 124
1, 117120, Note_on_c, 3, 72, 115
1, 117120, Note_on_c, 4, 60, 106
1, 117120, Note_on_c, 4, 64, 114
1, 117120, Note_on_c, 4, 67, 106
1, 117120, Note_on_c, 9, 35, 118
1, 117120, Note_on_c, 9, 42, 76
1, 117120, Note_on_c, 11, 48, 119
1, 117120, Note_on_c, 11, 55, 106
1, 117120, Note_on_c, 11, 60, 110
1, 117120, Note_on_c, 11, 64, 99
1, 117120, Note_on_c, 12, 48, 127
1, 117120, Note_on_c, 12, 60, 124
1, 117120, Note_on_c, 12, 64, 119
1, 117120, Note_on_c, 12, 67, 124
1, 117160, Note_on_c, 9, 35, 0
1, 117160, Note_on_c, 9, 42, 0
1, 117340, Note_on_c, 3, 72, 0
1, 117360, Note_on_c, 3, 67, 112
1, 117360, Note_on_c, 9, 42, 76
1, 117400, Note_on_c, 9, 42, 0
1, 117423, Note_on_c, 12, 60, 0
1, 117426, Note_on_c, 11, 55, 0
1, 117456, Note_on_c, 12, 64, 0
1, 117468, Note_on_c, 12, 67, 0
1, 117498, Note_on_c, 4, 60, 0
1, 117500, Note_on_c, 11, 60, 0
1, 117528, Note_on_c, 11, 64, 0
1, 117537, Note_on_c, 4, 64, 0
1, 117543, Note_on_c, 4, 67, 0
1, 117545, Note_on_c, 1, 36, 0
1, 117593, Note_on_c, 3, 67, 0
1, 117600, Lyric_t, "F"
1, 117600, Lyric_t, "\015"
1, 117600, Note_on_c, 1, 36, 114
1, 117600, Note_on_c, 3, 69, 112
1, 117600, Note_on_c, 6, 69, 113
1, 117600, Note_on_c, 6, 72, 115
1, 117600, Note_on_c, 6, 77, 113
1, 117600, Note_on_c, 9, 40, 118
1, 117600, Note_on_c, 9, 42, 76
1, 117600, Note_on_c, 11, 55, 81
1, 117600, Note_on_c, 11, 60, 60
1, 117600, Note_on_c, 11, 64, 41
1, 117600, Note_on_c, 12, 60, 94
1, 117600, Note_on_c, 12, 64, 94
1, 117600, Note_on_c, 12, 67, 94
1, 117640, Note_on_c, 9, 40, 0
1, 117640, Note_on_c, 9, 42, 0
1, 117642, Note_on_c, 11, 64, 0
1, 117668, Note_on_c, 11, 60, 0
1, 117692, Note_on_c, 12, 67, 0
1, 117695, Note_on_c, 12, 64, 0
1, 117701, Note_on_c, 12, 60, 0
1, 117716, Note_on_c, 6, 69, 0
1, 117716, Note_on_c, 6, 72, 0
1, 117716, Note_on_c, 6, 77, 0
1, 117720, Note_on_c, 6, 69, 98
1, 117720, Note_on_c, 6, 72, 98
1, 117720, Note_on_c, 6, 77, 98
1, 117720, Note_on_c, 11, 55, 0
1, 117788, Note_on_c, 1, 36, 0
1, 117836, Note_on_c, 6, 69, 0
1, 117836, Note_on_c, 6, 72, 0
1, 117836, Note_on_c, 6, 77, 0
1, 117840, Note_on_c, 1, 36, 114
1, 117840, Note_on_c, 6, 69, 113
1, 117840, Note_on_c, 6, 72, 117
1, 117840, Note_on_c, 6, 77, 113
1, 117840, Note_on_c, 9, 42, 76
1, 117840, Note_on_c, 11, 55, 110
1, 117840, Note_on_c, 11, 60, 127
1, 117840, Note_on_c, 11, 64, 119
1, 117840, Note_on_c, 12, 60, 119
1, 117840, Note_on_c, 12, 64, 119
1, 117840, Note_on_c, 12, 67, 124
1, 117853, Note_on_c, 3, 69, 0
1, 117880, Note_on_c, 9, 42, 0
1, 117956, Note_on_c, 6, 69, 0
1, 117956, Note_on_c, 6, 72, 0
1, 117956, Note_on_c, 6, 77, 0
1, 117960, Note_on_c, 6, 69, 98
1, 117960, Note_on_c, 6, 72, 98
1, 117960, Note_on_c, 6, 77, 98
1, 118000, Note_on_c, 1, 36, 0
1, 118076, Note_on_c, 6, 69, 0
1, 118076, Note_on_c, 6, 72, 0
1, 118076, Note_on_c, 6, 77, 0
1, 118080, Note_on_c, 1, 36, 78
1, 118080, Note_on_c, 6, 69, 124
1, 118080, Note_on_c, 6, 72, 124
1, 118080, Note_on_c, 6, 77, 124
1, 118080, Note_on_c, 9, 35, 118
1, 118080, Note_on_c, 9, 42, 76
1, 118120, Note_on_c, 9, 35, 0
1, 118120, Note_on_c, 9, 42, 0
1, 118138, Note_on_c, 12, 64, 0
1, 118141, Note_on_c, 11, 48, 0
1, 118142, Note_on_c, 12, 67, 0
1, 118145, Note_on_c, 12, 60, 0
1, 118263, Note_on_c, 11, 55, 0
1, 118273, Note_on_c, 6, 77, 0
1, 118275, Note_on_c, 6, 69, 0
1, 118282, Note_on_c, 6, 72, 0
1, 118284, Note_on_c, 1, 36, 0
1, 118291, Note_on_c, 11, 60, 0
1, 118320, Note_on_c, 1, 43, 75
1, 118320, Note_on_c, 6, 67, 127
1, 118320, Note_on_c, 6, 72, 119
1, 118320, Note_on_c, 6, 76, 119
1, 118320, Note_on_c, 9, 35, 118
1, 118320, Note_on_c, 9, 42, 76
1, 118320, Note_on_c, 11, 48, 110
1, 118320, Note_on_c, 12, 60, 110
1, 118320, Note_on_c, 12, 64, 124
1, 118320, Note_on_c, 12, 67, 127
1, 118327, Note_on_c, 11, 64, 0
1, 118339, Note_on_c, 12, 48, 0
1, 118360, Note_on_c, 9, 35, 0
1, 118360, Note_on_c, 9, 42, 0
1, 118436, Note_on_c, 6, 67, 0
1, 118436, Note_on_c, 6, 72, 0
1, 118436, Note_on_c, 6, 76, 0
1, 118518, Note_on_c, 1, 43, 0
1, 118560, Note_on_c, 1, 45, 106
1, 118560, Note_on_c, 9, 40, 118
1, 118560, Note_on_c, 9, 42, 76
1, 118560, Note_on_c, 11, 60, 119
1, 118560, Note_on_c, 11, 64, 124
1, 118560, Note_on_c, 11, 67, 119
1, 118560, Note_on_c, 12, 48, 124
1, 118593, Note_on_c, 11, 48, 0
1, 118600, Note_on_c, 9, 40, 0
1, 118600, Note_on_c, 9, 42, 0
1, 118649, Note_on_c, 12, 60, 0
1, 118751, Note_on_c, 12, 64, 0
1, 118767, Note_on_c, 11, 60, 0
1, 118775, Note_on_c, 11, 64, 0
1, 118778, Note_on_c, 11, 67, 0
1, 118795, Note_on_c, 1, 45, 0
1, 118800, Note_on_c, 1, 43, 119
1, 118800, Note_on_c, 6, 67, 127
1, 118800, Note_on_c, 6, 72, 119
1, 118800, Note_on_c, 6, 76, 119
1, 118800, Note_on_c, 9, 42, 76
1, 118800, Note_on_c, 11, 48, 124
1, 118800, Note_on_c, 12, 60, 87
1, 118800, Note_on_c, 12, 64, 52
1, 118840, Note_on_c, 9, 42, 0
1, 118899, Note_on_c, 12, 60, 0
1, 118911, Note_on_c, 12, 64, 0
1, 118916, Note_on_c, 6, 67, 0
1, 118916, Note_on_c, 6, 72, 0
1, 118916, Note_on_c, 6, 76, 0
1, 118916, Note_on_c, 12, 67, 0
1, 118921, Note_on_c, 12, 48, 0
1, 118951, Note_on_c, 11, 48, 0
1, 118954, Note_on_c, 1, 43, 0
1, 119040, Note_on_c, 1, 48, 110
1, 119040, Note_on_c, 9, 35, 118
1, 119040, Note_on_c, 9, 42, 76
1, 119040, Note_on_c, 11, 48, 119
1, 119040, Note_on_c, 11, 55, 106
1, 119040, Note_on_c, 11, 60, 110
1, 119040, Note_on_c, 11, 64, 99
1, 119040, Note_on_c, 12, 48, 127
1, 119040, Note_on_c, 12, 60, 124
1, 119040, Note_on_c, 12, 64, 119
1, 119040, Note_on_c, 12, 67, 124
1, 119080, Note_on_c, 9, 35, 0
1, 119080, Note_on_c, 9, 42, 0
1, 119160, Note_on_c, 6, 69, 98
1, 119160, Note_on_c, 6, 72, 98
1, 119160, Note_on_c, 6, 77, 98
1, 119276, Note_on_c, 1, 48, 0
1, 119276, Note_on_c, 6, 69, 0
1, 119276, Note_on_c, 6, 72, 0
1, 119276, Note_on_c, 6, 77, 0
1, 119280, Note_on_c, 1, 48, 94
1, 119280, Note_on_c, 6, 69, 113
1, 119280, Note_on_c, 6, 72, 115
1, 119280, Note_on_c, 6, 77, 113
1, 119280, Note_on_c, 9, 42, 76
1, 119320, Note_on_c, 9, 42, 0
1, 119343, Note_on_c, 12, 60, 0
1, 119346, Note_on_c, 11, 55, 0
1, 119376, Note_on_c, 12, 64, 0
1, 119388, Note_on_c, 12, 67, 0
1, 119396, Note_on_c, 6, 69, 0
1, 119396, Note_on_c, 6, 72, 0
1, 119396, Note_on_c, 6, 77, 0
1, 119400, Note_on_c, 6, 69, 98
1, 119400, Note_on_c, 6, 72, 98
1, 119400, Note_on_c, 6, 77, 98
1, 119420, Note_on_c, 11, 60, 0
1, 119448, Note_on_c, 11, 64, 0
1, 119516, Note_on_c, 1, 48, 0
1, 119516, Note_on_c, 6, 69, 0
1, 119516, Note_on_c, 6, 72, 0
1, 119516, Note_on_c, 6, 77, 0
1, 119520, Note_on_c, 1, 48, 110
1, 119520, Note_on_c, 6, 69, 113
1, 119520, Note_on_c, 6, 72, 115
1, 119520, Note_on_c, 6, 77, 113
1, 119520, Note_on_c, 9, 40, 118
1, 119520, Note_on_c, 9, 42, 76
1, 119520, Note_on_c, 9, 49, 99
1, 119520, Note_on_c, 11, 55, 81
1, 119520, Note_on_c, 11, 60, 60
1, 119520, Note_on_c, 11, 64, 41
1, 119520, Note_on_c, 12, 60, 94
1, 119520, Note_on_c, 12, 64, 94
1, 119520, Note_on_c, 12, 67, 94
1, 119560, Note_on_c, 9, 40, 0
1, 119560, Note_on_c, 9, 42, 0
1, 119560, Note_on_c, 9, 49, 0
1, 119562, Note_on_c, 11, 64, 0
1, 119588, Note_on_c, 11, 60, 0
1, 119612, Note_on_c, 12, 67, 0
1, 119615, Note_on_c, 12, 64, 0
1, 119621, Note_on_c, 12, 60, 0
1, 119636, Note_on_c, 6, 69, 0
1, 119636, Note_on_c, 6, 72, 0
1, 119636, Note_on_c, 6, 77, 0
1, 119640, Note_on_c, 6, 69, 98
1, 119640, Note_on_c, 6, 72, 98
1, 119640, Note_on_c, 6, 77, 98
1, 119640, Note_on_c, 11, 55, 0
1, 119756, Note_on_c, 1, 48, 0
1, 119756, Note_on_c, 6, 69, 0
1, 119756, Note_on_c, 6, 72, 0
1, 119756, Note_on_c, 6, 77, 0
1, 119760, Note_on_c, 1, 45, 106
1, 119760, Note_on_c, 6, 69, 113
1, 119760, Note_on_c, 6, 72, 117
1, 119760, Note_on_c, 6, 77, 113
1, 119760, Note_on_c, 9, 40, 76
1, 119760, Note_on_c, 9, 42, 76
1, 119760, Note_on_c, 11, 55, 110
1, 119760, Note_on_c, 11, 60, 127
1, 119760, Note_on_c, 11, 64, 119
1, 119760, Note_on_c, 12, 60, 119
1, 119760, Note_on_c, 12, 64, 119
1, 119760, Note_on_c, 12, 67, 124
1, 119800, Note_on_c, 9, 40, 0
1, 119800, Note_on_c, 9, 42, 0
1, 119876, Note_on_c, 6, 69, 0
1, 119876, Note_on_c, 6, 72, 0
1, 119876, Note_on_c, 6, 77, 0
1, 119880, Note_on_c, 6, 69, 98
1, 119880, Note_on_c, 6, 72, 98
1, 119880, Note_on_c, 6, 77, 98
1, 119880, Note_on_c, 9, 40, 76
1, 119920, Note_on_c, 9, 40, 0
1, 119996, Note_on_c, 1, 45, 0
1, 119996, Note_on_c, 6, 69, 0
1, 119996, Note_on_c, 6, 72, 0
1, 119996, Note_on_c, 6, 77, 0
1, 120000, Note_on_c, 1, 43, 114
1, 120000, Note_on_c, 6, 69, 124
1, 120000, Note_on_c, 6, 72, 124
1, 120000, Note_on_c, 6, 77, 124
1, 120000, Note_on_c, 9, 35, 118
1, 120000, Note_on_c, 9, 42, 76
1, 120040, Note_on_c, 9, 35, 0
1, 120040, Note_on_c, 9, 42, 0
1, 120058, Note_on_c, 12, 64, 0
1, 120061, Note_on_c, 11, 48, 0
1, 120062, Note_on_c, 12, 67, 0
1, 120065, Note_on_c, 12, 60, 0
1, 120183, Note_on_c, 11, 55, 0
1, 120193, Note_on_c, 6, 77, 0
1, 120195, Note_on_c, 6, 69, 0
1, 120202, Note_on_c, 6, 72, 0
1, 120211, Note_on_c, 11, 60, 0
1, 120236, Note_on_c, 1, 43, 0
1, 120240, Note_on_c, 1, 40, 114
1, 120240, Note_on_c, 6, 67, 127
1, 120240, Note_on_c, 6, 72, 119
1, 120240, Note_on_c, 6, 76, 119
1, 120240, Note_on_c, 9, 35, 118
1, 120240, Note_on_c, 9, 40, 76
1, 120240, Note_on_c, 9, 42, 76
1, 120240, Note_on_c, 11, 48, 110
1, 120240, Note_on_c, 12, 60, 110
1, 120240, Note_on_c, 12, 64, 124
1, 120240, Note_on_c, 12, 67, 127
1, 120247, Note_on_c, 11, 64, 0
1, 120259, Note_on_c, 12, 48, 0
1, 120280, Note_on_c, 9, 35, 0
1, 120280, Note_on_c, 9, 40, 0
1, 120280, Note_on_c, 9, 42, 0
1, 120356, Note_on_c, 6, 67, 0
1, 120356, Note_on_c, 6, 72, 0
1, 120356, Note_on_c, 6, 76, 0
1, 120360, Note_on_c, 9, 40, 76
1, 120400, Note_on_c, 9, 40, 0
1, 120476, Note_on_c, 1, 40, 0
1, 120480, Note_on_c, 1, 38, 106
1, 120480, Note_on_c, 9, 40, 118
1, 120480, Note_on_c, 9, 42, 76
1, 120480, Note_on_c, 11, 60, 119
1, 120480, Note_on_c, 11, 64, 124
1, 120480, Note_on_c, 11, 67, 119
1, 120480, Note_on_c, 12, 48, 124
1, 120513, Note_on_c, 11, 48, 0
1, 120520, Note_on_c, 9, 40, 0
1, 120520, Note_on_c, 9, 42, 0
1, 120569, Note_on_c, 12, 60, 0
1, 120600, Note_on_c, 9, 47, 76
1, 120640, Note_on_c, 9, 47, 0
1, 120671, Note_on_c, 12, 64, 0
1, 120687, Note_on_c, 11, 60, 0
1, 120695, Note_on_c, 11, 64, 0
1, 120698, Note_on_c, 11, 67, 0
1, 120716, Note_on_c, 1, 38, 0
1, 120720, Note_on_c, 1, 36, 124
1, 120720, Note_on_c, 9, 42, 76
1, 120720, Note_on_c, 9, 45, 118
1, 120720, Note_on_c, 11, 48, 124
1, 120720, Note_on_c, 12, 60, 87
1, 120720, Note_on_c, 12, 64, 52
1, 120760, Note_on_c, 9, 42, 0
1, 120760, Note_on_c, 9, 45, 0
1, 120819, Note_on_c, 12, 60, 0
1, 120831, Note_on_c, 12, 64, 0
1, 120836, Note_on_c, 12, 67, 0
1, 120840, Note_on_c, 9, 43, 118
1, 120841, Note_on_c, 12, 48, 0
1, 120871, Note_on_c, 11, 48, 0
1, 120880, Note_on_c, 9, 43, 0
1, 120894, Note_on_c, 2, 72, 0
1, 120904, Note_on_c, 2, 64, 0
1, 120956, Note_on_c, 1, 36, 0
1, 120960, Note_on_c, 1, 29, 127
1, 120960, Note_on_c, 4, 57, 114
1, 120960, Note_on_c, 4, 69, 124
1, 120960, Note_on_c, 5, 57, 114
1, 120960, Note_on_c, 5, 69, 124
1, 120960, Note_on_c, 6, 41, 110
1, 120960, Note_on_c, 6, 48, 119
1, 120960, Note_on_c, 9, 35, 118
1, 120960, Note_on_c, 9, 49, 91
1, 120960, Note_on_c, 12, 41, 127
1, 121000, Note_on_c, 9, 35, 0
1, 121000, Note_on_c, 9, 49, 0
1, 121196, Note_on_c, 6, 41, 0
1, 121196, Note_on_c, 6, 48, 0
1, 121200, Note_on_c, 6, 41, 110
1, 121200, Note_on_c, 6, 48, 119
1, 121200, Note_on_c, 6, 53, 60
1, 121200, Note_on_c, 9, 42, 76
1, 121240, Note_on_c, 9, 42, 0
1, 121335, Note_on_c, 12, 41, 0
1, 121367, Note_on_c, 1, 29, 0
1, 121417, Note_on_c, 4, 69, 0
1, 121417, Note_on_c, 5, 69, 0
1, 121428, Note_on_c, 4, 57, 0
1, 121428, Note_on_c, 5, 57, 0
1, 121436, Note_on_c, 6, 41, 0
1, 121436, Note_on_c, 6, 48, 0
1, 121436, Note_on_c, 6, 53, 0
1, 121440, Note_on_c, 1, 29, 119
1, 121440, Note_on_c, 4, 60, 110
1, 121440, Note_on_c, 4, 72, 127
1, 121440, Note_on_c, 5, 60, 110
1, 121440, Note_on_c, 5, 72, 127
1, 121440, Note_on_c, 6, 41, 119
1, 121440, Note_on_c, 6, 48, 127
1, 121440, Note_on_c, 6, 53, 94
1, 121440, Note_on_c, 9, 40, 118
1, 121440, Note_on_c, 9, 42, 76
1, 121440, Note_on_c, 12, 41, 94
1, 121440, Note_on_c, 12, 48, 127
1, 121440, Note_on_c, 12, 57, 119
1, 121440, Note_on_c, 12, 60, 127
1, 121440, Note_on_c, 12, 65, 127
1, 121480, Note_on_c, 9, 40, 0
1, 121480, Note_on_c, 9, 42, 0
1, 121519, Note_on_c, 12, 60, 0
1, 121676, Note_on_c, 6, 41, 0
1, 121676, Note_on_c, 6, 48, 0
1, 121676, Note_on_c, 6, 53, 0
1, 121680, Note_on_c, 6, 41, 119
1, 121680, Note_on_c, 6, 48, 127
1, 121680, Note_on_c, 6, 53, 91
1, 121680, Note_on_c, 9, 42, 76
1, 121680, Note_on_c, 12, 60, 45
1, 121720, Note_on_c, 9, 42, 0
1, 121771, Note_on_c, 12, 57, 0
1, 121852, Note_on_c, 4, 72, 0
1, 121852, Note_on_c, 5, 72, 0
1, 121865, Note_on_c, 1, 29, 0
1, 121874, Note_on_c, 4, 60, 0
1, 121874, Note_on_c, 5, 60, 0
1, 121916, Note_on_c, 6, 41, 0
1, 121916, Note_on_c, 6, 48, 0
1, 121916, Note_on_c, 6, 53, 0
1, 121920, Note_on_c, 1, 29, 119
1, 121920, Note_on_c, 4, 62, 119
1, 121920, Note_on_c, 4, 74, 119
1, 121920, Note_on_c, 5, 62, 119
1, 121920, Note_on_c, 5, 74, 119
1, 121920, Note_on_c, 6, 41, 106
1, 121920, Note_on_c, 6, 48, 110
1, 121920, Note_on_c, 9, 35, 118
1, 121920, Note_on_c, 9, 42, 76
1, 121920, Note_on_c, 12, 57, 106
1, 121945, Note_on_c, 12, 65, 0
1, 121960, Note_on_c, 9, 35, 0
1, 121960, Note_on_c, 9, 42, 0
1, 122004, Note_on_c, 1, 29, 0
1, 122036, Note_on_c, 12, 57, 0
1, 122095, Note_on_c, 12, 60, 0
1, 122149, Note_on_c, 4, 74, 0
1, 122149, Note_on_c, 5, 74, 0
1, 122151, Note_on_c, 4, 62, 0
1, 122151, Note_on_c, 5, 62, 0
1, 122156, Note_on_c, 6, 41, 0
1, 122156, Note_on_c, 6, 48, 0
1, 122160, Note_on_c, 1, 29, 124
1, 122160, Note_on_c, 4, 64, 114
1, 122160, Note_on_c, 4, 76, 102
1, 122160, Note_on_c, 5, 64, 114
1, 122160, Note_on_c, 5, 76, 102
1, 122160, Note_on_c, 6, 41, 114
1, 122160, Note_on_c, 6, 48, 110
1, 122160, Note_on_c, 9, 35, 118
1, 122160, Note_on_c, 9, 42, 76
1, 122160, Note_on_c, 12, 57, 110
1, 122160, Note_on_c, 12, 60, 127
1, 122160, Note_on_c, 12, 65, 127
1, 122200, Note_on_c, 9, 35, 0
1, 122200, Note_on_c, 9, 42, 0
1, 122237, Note_on_c, 12, 41, 0
1, 122245, Note_on_c, 12, 48, 0
1, 122372, Note_on_c, 4, 64, 0
1, 122372, Note_on_c, 5, 64, 0
1, 122374, Note_on_c, 4, 76, 0
1, 122374, Note_on_c, 5, 76, 0
1, 122396, Note_on_c, 6, 41, 0
1, 122396, Note_on_c, 6, 48, 0
1, 122400, Note_on_c, 4, 62, 110
1, 122400, Note_on_c, 4, 74, 119
1, 122400, Note_on_c, 5, 62, 110
1, 122400, Note_on_c, 5, 74, 119
1, 122400, Note_on_c, 6, 41, 119
1, 122400, Note_on_c, 6, 48, 127
1, 122400, Note_on_c, 6, 53, 127
1, 122400, Note_on_c, 9, 40, 118
1, 122400, Note_on_c, 9, 42, 76
1, 122400, Note_on_c, 12, 41, 114
1, 122400, Note_on_c, 12, 48, 114
1, 122440, Note_on_c, 9, 40, 0
1, 122440, Note_on_c, 9, 42, 0
1, 122474, Note_on_c, 12, 57, 0
1, 122528, Note_on_c, 1, 29, 0
1, 122614, Note_on_c, 4, 74, 0
1, 122614, Note_on_c, 5, 74, 0
1, 122616, Note_on_c, 4, 62, 0
1, 122616, Note_on_c, 5, 62, 0
1, 122636, Note_on_c, 6, 41, 0
1, 122636, Note_on_c, 6, 48, 0
1, 122636, Note_on_c, 6, 53, 0
1, 122640, Note_on_c, 1, 29, 124
1, 122640, Note_on_c, 4, 60, 119
1, 122640, Note_on_c, 4, 72, 127
1, 122640, Note_on_c, 5, 60, 119
1, 122640, Note_on_c, 5, 72, 127
1, 122640, Note_on_c, 6, 41, 99
1, 122640, Note_on_c, 6, 48, 110
1, 122640, Note_on_c, 6, 53, 110
1, 122640, Note_on_c, 9, 42, 76
1, 122640, Note_on_c, 12, 57, 106
1, 122642, Note_on_c, 12, 41, 0
1, 122672, Note_on_c, 12, 48, 0
1, 122680, Note_on_c, 9, 42, 0
1, 122766, Note_on_c, 1, 29, 0
1, 122876, Note_on_c, 6, 41, 0
1, 122876, Note_on_c, 6, 48, 0
1, 122876, Note_on_c, 6, 53, 0
1, 122880, Note_on_c, 1, 29, 119
1, 122880, Note_on_c, 6, 41, 114
1, 122880, Note_on_c, 6, 48, 119
1, 122880, Note_on_c, 9, 35, 118
1, 122880, Note_on_c, 9, 42, 76
1, 122880, Note_on_c, 12, 41, 127
1, 122880, Note_on_c, 12, 48, 127
1, 122920, Note_on_c, 9, 35, 0
1, 122920, Note_on_c, 9, 42, 0
1, 123116, Note_on_c, 6, 41, 0
1, 123116, Note_on_c, 6, 48, 0
1, 123120, Note_on_c, 6, 41, 114
1, 123120, Note_on_c, 6, 48, 119
1, 123120, Note_on_c, 9, 42, 76
1, 123155, Lyric_t, "KEEP "
1, 123155, Note_on_c, 3, 79, 111
1, 123160, Note_on_c, 9, 42, 0
1, 123207, Note_on_c, 12, 65, 0
1, 123212, Note_on_c, 12, 57, 0
1, 123220, Note_on_c, 12, 60, 0
1, 123227, Note_on_c, 12, 41, 0
1, 123238, Note_on_c, 12, 48, 0
1, 123291, Note_on_c, 4, 60, 0
1, 123291, Note_on_c, 5, 60, 0
1, 123354, Note_on_c, 3, 79, 0
1, 123356, Note_on_c, 6, 41, 0
1, 123356, Note_on_c, 6, 48, 0
1, 123358, Lyric_t, "IT "
1, 123358, Note_on_c, 3, 76, 105
1, 123360, Note_on_c, 4, 57, 119
1, 123360, Note_on_c, 4, 69, 114
1, 123360, Note_on_c, 5, 57, 119
1, 123360, Note_on_c, 5, 69, 114
1, 123360, Note_on_c, 6, 41, 110
1, 123360, Note_on_c, 6, 48, 119
1, 123360, Note_on_c, 6, 53, 127
1, 123360, Note_on_c, 9, 40, 118
1, 123360, Note_on_c, 9, 42, 76
1, 123360, Note_on_c, 12, 41, 127
1, 123360, Note_on_c, 12, 48, 127
1, 123360, Note_on_c, 12, 57, 110
1, 123360, Note_on_c, 12, 60, 124
1, 123360, Note_on_c, 12, 65, 124
1, 123375, Note_on_c, 4, 72, 0
1, 123375, Note_on_c, 5, 72, 0
1, 123400, Note_on_c, 9, 40, 0
1, 123400, Note_on_c, 9, 42, 0
1, 123596, Note_on_c, 6, 41, 0
1, 123596, Note_on_c, 6, 48, 0
1, 123596, Note_on_c, 6, 53, 0
1, 123597, Note_on_c, 3, 76, 0
1, 123600, Note_on_c, 6, 41, 65
1, 123600, Note_on_c, 6, 48, 94
1, 123600, Note_on_c, 6, 53, 91
1, 123600, Note_on_c, 9, 42, 76
1, 123601, Lyric_t, "IN "
1, 123601, Note_on_c, 3, 74, 104
1, 123640, Note_on_c, 9, 42, 0
1, 123676, Note_on_c, 12, 57, 0
1, 123727, Note_on_c, 4, 57, 0
1, 123727, Note_on_c, 5, 57, 0
1, 123740, Note_on_c, 1, 29, 0
1, 123799, Note_on_c, 4, 69, 0
1, 123799, Note_on_c, 5, 69, 0
1, 123836, Note_on_c, 6, 41, 0
1, 123836, Note_on_c, 6, 48, 0
1, 123836, Note_on_c, 6, 53, 0
1, 123840, Note_on_c, 1, 29, 114
1, 123840, Note_on_c, 4, 62, 119
1, 123840, Note_on_c, 4, 74, 119
1, 123840, Note_on_c, 5, 62, 119
1, 123840, Note_on_c, 5, 74, 119
1, 123840, Note_on_c, 6, 41, 106
1, 123840, Note_on_c, 6, 48, 114
1, 123840, Note_on_c, 9, 35, 118
1, 123840, Note_on_c, 9, 42, 76
1, 123840, Note_on_c, 12, 57, 94
1, 123867, Note_on_c, 3, 74, 0
1, 123871, Lyric_t, "YOUR "
1, 123871, Note_on_c, 3, 72, 106
1, 123880, Note_on_c, 9, 35, 0
1, 123880, Note_on_c, 9, 42, 0
1, 123893, Note_on_c, 12, 65, 0
1, 123917, Note_on_c, 12, 60, 0
1, 123942, Note_on_c, 12, 57, 0
1, 123957, Note_on_c, 1, 29, 0
1, 124069, Note_on_c, 4, 74, 0
1, 124069, Note_on_c, 5, 74, 0
1, 124071, Note_on_c, 4, 62, 0
1, 124071, Note_on_c, 5, 62, 0
1, 124076, Note_on_c, 6, 41, 0
1, 124076, Note_on_c, 6, 48, 0
1, 124080, Note_on_c, 1, 29, 124
1, 124080, Note_on_c, 4, 64, 114
1, 124080, Note_on_c, 4, 76, 102
1, 124080, Note_on_c, 5, 64, 114
1, 124080, Note_on_c, 5, 76, 102
1, 124080, Note_on_c, 6, 41, 102
1, 124080, Note_on_c, 6, 48, 106
1, 124080, Note_on_c, 9, 35, 118
1, 124080, Note_on_c, 9, 42, 76
1, 124080, Note_on_c, 12, 57, 114
1, 124080, Note_on_c, 12, 60, 127
1, 124080, Note_on_c, 12, 65, 127
1, 124107, Note_on_c, 3, 72, 0
1, 124111, Lyric_t, "HEAD"
1, 124111, Lyric_t, "\015"
1, 124111, Note_on_c, 3, 72, 106
1, 124116, Note_on_c, 12, 41, 0
1, 124120, Note_on_c, 9, 35, 0
1, 124120, Note_on_c, 9, 42, 0
1, 124136, Note_on_c, 12, 48, 0
1, 124292, Note_on_c, 4, 64, 0
1, 124292, Note_on_c, 5, 64, 0
1, 124294, Note_on_c, 4, 76, 0
1, 124294, Note_on_c, 5, 76, 0
1, 124297, Note_on_c, 1, 29, 0
1, 124316, Note_on_c, 6, 41, 0
1, 124316, Note_on_c, 6, 48, 0
1, 124320, Note_on_c, 1, 29, 119
1, 124320, Note_on_c, 4, 62, 110
1, 124320, Note_on_c, 4, 74, 119
1, 124320, Note_on_c, 5, 62, 110
1, 124320, Note_on_c, 5, 74, 119
1, 124320, Note_on_c, 6, 41, 106
1, 124320, Note_on_c, 6, 48, 119
1, 124320, Note_on_c, 6, 53, 124
1, 124320, Note_on_c, 9, 40, 118
1, 124320, Note_on_c, 9, 42, 76
1, 124320, Note_on_c, 12, 41, 114
1, 124320, Note_on_c, 12, 48, 127
1, 124346, Note_on_c, 12, 57, 0
1, 124360, Note_on_c, 9, 40, 0
1, 124360, Note_on_c, 9, 42, 0
1, 124486, Note_on_c, 1, 29, 0
1, 124534, Note_on_c, 4, 74, 0
1, 124534, Note_on_c, 5, 74, 0
1, 124536, Note_on_c, 4, 62, 0
1, 124536, Note_on_c, 5, 62, 0
1, 124556, Note_on_c, 6, 41, 0
1, 124556, Note_on_c, 6, 48, 0
1, 124556, Note_on_c, 6, 53, 0
1, 124560, Note_on_c, 1, 29, 127
1, 124560, Note_on_c, 4, 60, 119
1, 124560, Note_on_c, 4, 72, 127
1, 124560, Note_on_c, 5, 60, 119
1, 124560, Note_on_c, 5, 72, 127
1, 124560, Note_on_c, 6, 53, 99
1, 124560, Note_on_c, 9, 42, 76
1, 124560, Note_on_c, 12, 57, 106
1, 124600, Note_on_c, 9, 42, 0
1, 124624, Note_on_c, 12, 41, 0
1, 124695, Note_on_c, 12, 48, 0
1, 124707, Note_on_c, 3, 72, 0
1, 124755, Note_on_c, 1, 29, 0
1, 124796, Note_on_c, 6, 53, 0
1, 124800, Note_on_c, 1, 29, 127
1, 124800, Note_on_c, 6, 41, 127
1, 124800, Note_on_c, 9, 35, 118
1, 124800, Note_on_c, 9, 42, 76
1, 124800, Note_on_c, 10, 41, 115
1, 124800, Note_on_c, 12, 41, 127
1, 124800, Note_on_c, 12, 48, 127
1, 124840, Note_on_c, 9, 35, 0
1, 124840, Note_on_c, 9, 42, 0
1, 124869, Note_on_c, 12, 60, 0
1, 124894, Note_on_c, 12, 57, 0
1, 124936, Note_on_c, 12, 65, 0
1, 125027, Note_on_c, 1, 29, 0
1, 125027, Note_on_c, 6, 41, 0
1, 125027, Note_on_c, 10, 41, 0
1, 125040, Note_on_c, 1, 31, 124
1, 125040, Note_on_c, 6, 43, 127
1, 125040, Note_on_c, 9, 42, 76
1, 125040, Note_on_c, 10, 43, 115
1, 125075, Lyric_t, "HOL"
1, 125075, Note_on_c, 3, 79, 111
1, 125080, Note_on_c, 9, 42, 0
1, 125147, Note_on_c, 12, 41, 0
1, 125158, Note_on_c, 12, 48, 0
1, 125211, Note_on_c, 4, 60, 0
1, 125211, Note_on_c, 5, 60, 0
1, 125274, Note_on_c, 3, 79, 0
1, 125278, Lyric_t, "LY"
1, 125278, Note_on_c, 3, 76, 105
1, 125280, Note_on_c, 4, 56, 119
1, 125280, Note_on_c, 4, 68, 114
1, 125280, Note_on_c, 5, 56, 119
1, 125280, Note_on_c, 5, 68, 114
1, 125280, Note_on_c, 9, 40, 118
1, 125280, Note_on_c, 9, 42, 76
1, 125280, Note_on_c, 12, 41, 127
1, 125280, Note_on_c, 12, 48, 127
1, 125280, Note_on_c, 12, 56, 110
1, 125280, Note_on_c, 12, 60, 124
1, 125280, Note_on_c, 12, 65, 124
1, 125295, Note_on_c, 4, 72, 0
1, 125295, Note_on_c, 5, 72, 0
1, 125320, Note_on_c, 9, 40, 0
1, 125320, Note_on_c, 9, 42, 0
1, 125505, Note_on_c, 1, 31, 0
1, 125510, Note_on_c, 6, 43, 0
1, 125510, Note_on_c, 10, 43, 0
1, 125517, Note_on_c, 3, 76, 0
1, 125520, Note_on_c, 1, 32, 127
1, 125520, Note_on_c, 6, 44, 127
1, 125520, Note_on_c, 9, 42, 76
1, 125520, Note_on_c, 10, 44, 115
1, 125521, Lyric_t, "WOOD "
1, 125521, Note_on_c, 3, 74, 104
1, 125560, Note_on_c, 9, 42, 0
1, 125596, Note_on_c, 12, 56, 0
1, 125647, Note_on_c, 4, 56, 0
1, 125647, Note_on_c, 5, 56, 0
1, 125719, Note_on_c, 4, 68, 0
1, 125719, Note_on_c, 5, 68, 0
1, 125760, Note_on_c, 4, 62, 119
1, 125760, Note_on_c, 4, 74, 119
1, 125760, Note_on_c, 5, 62, 119
1, 125760, Note_on_c, 5, 74, 119
1, 125760, Note_on_c, 9, 35, 118
1, 125760, Note_on_c, 9, 42, 76
1, 125760, Note_on_c, 12, 56, 94
1, 125787, Note_on_c, 3, 74, 0
1, 125791, Lyric_t, "IS "
1, 125791, Note_on_c, 3, 72, 106
1, 125800, Note_on_c, 9, 35, 0
1, 125800, Note_on_c, 9, 42, 0
1, 125813, Note_on_c, 12, 65, 0
1, 125837, Note_on_c, 12, 60, 0
1, 125862, Note_on_c, 12, 56, 0
1, 125970, Note_on_c, 6, 44, 0
1, 125970, Note_on_c, 10, 44, 0
1, 125989, Note_on_c, 4, 74, 0
1, 125989, Note_on_c, 5, 74, 0
1, 125990, Note_on_c, 1, 32, 0
1, 125991, Note_on_c, 4, 62, 0
1, 125991, Note_on_c, 5, 62, 0
1, 126000, Note_on_c, 1, 34, 124
1, 126000, Note_on_c, 4, 64, 114
1, 126000, Note_on_c, 4, 76, 102
1, 126000, Note_on_c, 5, 64, 114
1, 126000, Note_on_c, 5, 76, 102
1, 126000, Note_on_c, 6, 46, 127
1, 126000, Note_on_c, 9, 35, 118
1, 126000, Note_on_c, 9, 42, 76
1, 126000, Note_on_c, 10, 46, 115
1, 126000, Note_on_c, 12, 56, 114
1, 126000, Note_on_c, 12, 60, 127
1, 126000, Note_on_c, 12, 65, 127
1, 126027, Note_on_c, 3, 72, 0
1, 126031, Lyric_t, "DEAD"
1, 126031, Lyric_t, "\015"
1, 126031, Note_on_c, 3, 72, 106
1, 126036, Note_on_c, 12, 41, 0
1, 126040, Note_on_c, 9, 35, 0
1, 126040, Note_on_c, 9, 42, 0
1, 126056, Note_on_c, 12, 48, 0
1, 126212, Note_on_c, 4, 64, 0
1, 126212, Note_on_c, 5, 64, 0
1, 126214, Note_on_c, 4, 76, 0
1, 126214, Note_on_c, 5, 76, 0
1, 126240, Note_on_c, 4, 62, 110
1, 126240, Note_on_c, 4, 74, 119
1, 126240, Note_on_c, 5, 62, 110
1, 126240, Note_on_c, 5, 74, 119
1, 126240, Note_on_c, 9, 40, 118
1, 126240, Note_on_c, 9, 42, 76
1, 126240, Note_on_c, 12, 41, 114
1, 126240, Note_on_c, 12, 48, 127
1, 126266, Note_on_c, 12, 56, 0
1, 126280, Note_on_c, 9, 40, 0
1, 126280, Note_on_c, 9, 42, 0
1, 126389, Note_on_c, 6, 46, 0
1, 126389, Note_on_c, 10, 46, 0
1, 126403, Note_on_c, 1, 34, 0
1, 126454, Note_on_c, 4, 74, 0
1, 126454, Note_on_c, 5, 74, 0
1, 126456, Note_on_c, 4, 62, 0
1, 126456, Note_on_c, 5, 62, 0
1, 126480, Note_on_c, 1, 35, 120
1, 126480, Note_on_c, 4, 60, 119
1, 126480, Note_on_c, 4, 72, 127
1, 126480, Note_on_c, 5, 60, 119
1, 126480, Note_on_c, 5, 72, 127
1, 126480, Note_on_c, 6, 47, 102
1, 126480, Note_on_c, 9, 42, 76
1, 126480, Note_on_c, 10, 47, 90
1, 126480, Note_on_c, 12, 56, 106
1, 126520, Note_on_c, 9, 42, 0
1, 126544, Note_on_c, 12, 41, 0
1, 126615, Note_on_c, 12, 48, 0
1, 126627, Note_on_c, 3, 72, 0
1, 126669, Note_on_c, 12, 60, 0
1, 126716, Note_on_c, 12, 56, 0
1, 126720, Note_on_c, 1, 36, 127
1, 126720, Note_on_c, 6, 48, 127
1, 126720, Note_on_c, 9, 35, 118
1, 126720, Note_on_c, 9, 42, 76
1, 126720, Note_on_c, 10, 48, 115
1, 126720, Note_on_c, 12, 48, 124
1, 126720, Note_on_c, 12, 55, 94
1, 126720, Note_on_c, 12, 60, 124
1, 126720, Note_on_c, 12, 64, 124
1, 126730, Note_on_c, 1, 35, 0
1, 126736, Note_on_c, 12, 65, 0
1, 126743, Note_on_c, 6, 47, 0
1, 126743, Note_on_c, 10, 47, 0
1, 126760, Note_on_c, 9, 35, 0
1, 126760, Note_on_c, 9, 42, 0
1, 126960, Note_on_c, 9, 42, 76
1, 127000, Note_on_c, 9, 42, 0
1, 127046, Note_on_c, 12, 48, 0
1, 127050, Note_on_c, 12, 55, 0
1, 127068, Note_on_c, 12, 64, 0
1, 127072, Note_on_c, 12, 60, 0
1, 127099, Note_on_c, 6, 48, 0
1, 127099, Note_on_c, 10, 48, 0
1, 127127, Note_on_c, 1, 36, 0
1, 127200, Note_on_c, 1, 36, 119
1, 127200, Note_on_c, 6, 48, 46
1, 127200, Note_on_c, 6, 55, 102
1, 127200, Note_on_c, 9, 40, 118
1, 127200, Note_on_c, 9, 42, 76
1, 127200, Note_on_c, 12, 48, 110
1, 127240, Note_on_c, 9, 40, 0
1, 127240, Note_on_c, 9, 42, 0
1, 127281, Note_on_c, 12, 48, 0
1, 127436, Note_on_c, 6, 48, 0
1, 127436, Note_on_c, 6, 55, 0
1, 127440, Note_on_c, 6, 48, 87
1, 127440, Note_on_c, 6, 55, 102
1, 127440, Note_on_c, 9, 42, 76
1, 127440, Note_on_c, 12, 48, 127
1, 127440, Note_on_c, 12, 55, 94
1, 127440, Note_on_c, 12, 60, 124
1, 127440, Note_on_c, 12, 64, 124
1, 127480, Note_on_c, 9, 42, 0
1, 127625, Note_on_c, 1, 36, 0
1, 127676, Note_on_c, 6, 48, 0
1, 127676, Note_on_c, 6, 55, 0
1, 127680, Note_on_c, 1, 36, 119
1, 127680, Note_on_c, 6, 48, 114
1, 127680, Note_on_c, 6, 55, 114
1, 127680, Note_on_c, 9, 35, 118
1, 127680, Note_on_c, 9, 42, 76
1, 127720, Note_on_c, 9, 35, 0
1, 127720, Note_on_c, 9, 42, 0
1, 127764, Note_on_c, 1, 36, 0
1, 127770, Note_on_c, 12, 55, 0
1, 127788, Note_on_c, 12, 64, 0
1, 127792, Note_on_c, 12, 60, 0
1, 127916, Note_on_c, 6, 48, 0
1, 127916, Note_on_c, 6, 55, 0
1, 127920, Note_on_c, 1, 36, 124
1, 127920, Note_on_c, 6, 48, 119
1, 127920, Note_on_c, 6, 55, 119
1, 127920, Note_on_c, 9, 35, 118
1, 127920, Note_on_c, 9, 42, 76
1, 127920, Note_on_c, 12, 55, 110
1, 127920, Note_on_c, 12, 60, 114
1, 127920, Note_on_c, 12, 64, 114
1, 127936, Note_on_c, 12, 48, 0
1, 127960, Note_on_c, 9, 35, 0
1, 127960, Note_on_c, 9, 42, 0
1, 128126, Note_on_c, 12, 55, 0
1, 128156, Note_on_c, 6, 48, 0
1, 128156, Note_on_c, 6, 55, 0
1, 128160, Note_on_c, 6, 48, 110
1, 128160, Note_on_c, 6, 55, 124
1, 128160, Note_on_c, 9, 40, 118
1, 128160, Note_on_c, 9, 42, 76
1, 128160, Note_on_c, 12, 48, 127
1, 128178, Note_on_c, 12, 60, 0
1, 128200, Note_on_c, 9, 40, 0
1, 128200, Note_on_c, 9, 42, 0
1, 128210, Note_on_c, 12, 64, 0
1, 128288, Note_on_c, 1, 36, 0
1, 128396, Note_on_c, 6, 48, 0
1, 128396, Note_on_c, 6, 55, 0
1, 128400, Note_on_c, 1, 36, 124
1, 128400, Note_on_c, 6, 48, 127
1, 128400, Note_on_c, 6, 55, 127
1, 128400, Note_on_c, 9, 42, 76
1, 128400, Note_on_c, 12, 60, 91
1, 128400, Note_on_c, 12, 67, 58
1, 128414, Note_on_c, 12, 48, 0
1, 128440, Note_on_c, 9, 42, 0
1, 128447, Note_on_c, 12, 67, 0
1, 128511, Note_on_c, 12, 60, 0
1, 128526, Note_on_c, 1, 36, 0
1, 128571, Note_on_c, 4, 60, 0
1, 128571, Note_on_c, 5, 60, 0
1, 128636, Note_on_c, 6, 48, 0
1, 128636, Note_on_c, 6, 55, 0
1, 128640, Note_on_c, 1, 36, 127
1, 128640, Note_on_c, 6, 48, 127
1, 128640, Note_on_c, 6, 55, 127
1, 128640, Note_on_c, 9, 40, 118
1, 128640, Note_on_c, 12, 48, 127
1, 128640, Note_on_c, 12, 60, 127
1, 128640, Note_on_c, 12, 64, 127
1, 128640, Note_on_c, 12, 67, 127
1, 128655, Note_on_c, 4, 72, 0
1, 128655, Note_on_c, 5, 72, 0
1, 128675, Note_on_c, 7, 72, 127
1, 128680, Note_on_c, 9, 40, 0
1, 128684, Note_on_c, 7, 84, 127
1, 128855, Note_on_c, 12, 60, 0
1, 128868, Note_on_c, 12, 64, 0
1, 128884, Note_on_c, 12, 48, 0
1, 128886, Note_on_c, 12, 67, 0
1, 128903, Note_on_c, 6, 55, 0
1, 128912, Note_on_c, 6, 48, 0
1, 128923, Note_on_c, 7, 84, 0
1, 128924, Lyric_t, "WELL "
1, 128924, Note_on_c, 3, 69, 107
1, 128938, Note_on_c, 7, 72, 0
1, 128980, Note_on_c, 3, 69, 0
1, 129047, Note_on_c, 1, 36, 0
1, 129120, Note_on_c, 9, 35, 118
1, 129134, Lyric_t, "YOU "
1, 129134, Note_on_c, 3, 72, 111
1, 129160, Note_on_c, 9, 35, 0
1, 129315, Note_on_c, 3, 72, 0
1, 129360, Note_on_c, 9, 35, 118
1, 129400, Note_on_c, 9, 35, 0
1, 129401, Lyric_t, "CAN "
1, 129401, Note_on_c, 3, 69, 102
1, 129459, Note_on_c, 3, 69, 0
1, 129600, Note_on_c, 9, 35, 118
1, 129602, Lyric_t, "DO "
1, 129602, Note_on_c, 3, 72, 112
1, 129640, Note_on_c, 9, 35, 0
1, 129785, Note_on_c, 3, 72, 0
1, 129840, Note_on_c, 9, 35, 118
1, 129851, Lyric_t, "THE "
1, 129851, Note_on_c, 3, 69, 106
1, 129880, Note_on_c, 9, 35, 0
1, 129945, Note_on_c, 3, 69, 0
1, 130080, Lyric_t, "MO"
1, 130080, Note_on_c, 3, 72, 112
1, 130080, Note_on_c, 9, 35, 118
1, 130120, Note_on_c, 9, 35, 0
1, 130303, Note_on_c, 3, 72, 0
1, 130320, Note_on_c, 4, 67, 102
1, 130320, Note_on_c, 4, 72, 114
1, 130347, Lyric_t, "NEY "
1, 130347, Note_on_c, 3, 69, 107
1, 130401, Note_on_c, 4, 72, 0
1, 130414, Note_on_c, 4, 67, 0
1, 130440, Note_on_c, 4, 74, 124
1, 130511, Note_on_c, 3, 69, 0
1, 130535, Note_on_c, 4, 74, 0
1, 130560, Note_on_c, 1, 36, 127
1, 130560, Note_on_c, 4, 67, 99
1, 130560, Note_on_c, 4, 72, 119
1, 130560, Note_on_c, 9, 35, 118
1, 130560, Note_on_c, 9, 49, 91
1, 130560, Note_on_c, 11, 48, 124
1, 130560, Note_on_c, 11, 55, 110
1, 130560, Note_on_c, 11, 60, 110
1, 130560, Note_on_c, 12, 48, 110
1, 130560, Note_on_c, 12, 55, 110
1, 130587, Lyric_t, "TAN"
1, 130587, Note_on_c, 3, 76, 110
1, 130600, Note_on_c, 9, 35, 0
1, 130600, Note_on_c, 9, 49, 0
1, 130634, Note_on_c, 4, 67, 0
1, 130636, Note_on_c, 4, 72, 0
1, 130731, Note_on_c, 11, 55, 0
1, 130731, Note_on_c, 11, 60, 0
1, 130780, Note_on_c, 11, 48, 0
1, 130793, Note_on_c, 3, 76, 0
1, 130800, Note_on_c, 9, 42, 76
1, 130840, Note_on_c, 9, 42, 0
1, 130899, Note_on_c, 12, 55, 0
1, 130905, Note_on_c, 12, 48, 0
1, 131040, Note_on_c, 4, 67, 106
1, 131040, Note_on_c, 4, 72, 114
1, 131040, Note_on_c, 9, 39, 83
1, 131040, Note_on_c, 9, 40, 118
1, 131040, Note_on_c, 9, 42, 76
1, 131040, Note_on_c, 11, 55, 45
1, 131040, Note_on_c, 12, 48, 124
1, 131040, Note_on_c, 12, 55, 119
1, 131040, Note_on_c, 12, 60, 119
1, 131040, Note_on_c, 12, 64, 114
1, 131040, Note_on_c, 12, 67, 119
1, 131058, Note_on_c, 11, 55, 0
1, 131070, Lyric_t, "GO"
1, 131070, Lyric_t, "\015"
1, 131070, Note_on_c, 3, 76, 110
1, 131080, Note_on_c, 9, 39, 0
1, 131080, Note_on_c, 9, 40, 0
1, 131080, Note_on_c, 9, 42, 0
1, 131087, Note_on_c, 1, 36, 0
1, 131117, Note_on_c, 4, 72, 0
1, 131128, Note_on_c, 4, 67, 0
1, 131280, Note_on_c, 1, 36, 124
1, 131280, Note_on_c, 4, 67, 102
1, 131280, Note_on_c, 4, 72, 119
1, 131280, Note_on_c, 9, 39, 83
1, 131280, Note_on_c, 9, 42, 76
1, 131280, Note_on_c, 11, 48, 127
1, 131280, Note_on_c, 11, 55, 124
1, 131280, Note_on_c, 11, 60, 114
1, 131320, Note_on_c, 9, 39, 0
1, 131320, Note_on_c, 9, 42, 0
1, 131336, Note_on_c, 12, 60, 0
1, 131364, Note_on_c, 4, 72, 0
1, 131378, Note_on_c, 4, 67, 0
1, 131478, Note_on_c, 1, 36, 0
1, 131520, Note_on_c, 1, 36, 106
1, 131520, Note_on_c, 4, 67, 102
1, 131520, Note_on_c, 4, 72, 110
1, 131520, Note_on_c, 9, 35, 118
1, 131520, Note_on_c, 9, 42, 76
1, 131520, Note_on_c, 12, 60, 94
1, 131560, Note_on_c, 9, 35, 0
1, 131560, Note_on_c, 9, 42, 0
1, 131562, Note_on_c, 3, 76, 0
1, 131582, Note_on_c, 11, 55, 0
1, 131583, Note_on_c, 11, 60, 0
1, 131599, Note_on_c, 12, 67, 0
1, 131603, Note_on_c, 12, 64, 0
1, 131606, Note_on_c, 4, 72, 0
1, 131621, Note_on_c, 4, 67, 0
1, 131640, Note_on_c, 12, 60, 0
1, 131760, Note_on_c, 4, 67, 99
1, 131760, Note_on_c, 4, 72, 110
1, 131760, Note_on_c, 9, 35, 118
1, 131760, Note_on_c, 9, 42, 76
1, 131760, Note_on_c, 11, 52, 53
1, 131760, Note_on_c, 12, 60, 119
1, 131760, Note_on_c, 12, 64, 119
1, 131760, Note_on_c, 12, 67, 124
1, 131788, Note_on_c, 11, 52, 0
1, 131800, Note_on_c, 9, 35, 0
1, 131800, Note_on_c, 9, 42, 0
1, 131851, Note_on_c, 4, 72, 0
1, 131854, Note_on_c, 11, 48, 0
1, 131860, Note_on_c, 12, 48, 0
1, 131861, Note_on_c, 4, 67, 0
1, 131866, Note_on_c, 12, 55, 0
1, 132000, Note_on_c, 9, 39, 83
1, 132000, Note_on_c, 9, 40, 118
1, 132000, Note_on_c, 9, 42, 76
1, 132000, Note_on_c, 11, 52, 119
1, 132000, Note_on_c, 11, 55, 119
1, 132000, Note_on_c, 11, 60, 124
1, 132000, Note_on_c, 12, 48, 99
1, 132000, Note_on_c, 12, 55, 81
1, 132040, Note_on_c, 9, 39, 0
1, 132040, Note_on_c, 9, 40, 0
1, 132040, Note_on_c, 9, 42, 0
1, 132080, Note_on_c, 12, 60, 0
1, 132082, Note_on_c, 11, 55, 0
1, 132175, Note_on_c, 11, 60, 0
1, 132177, Note_on_c, 1, 36, 0
1, 132189, Note_on_c, 11, 52, 0
1, 132240, Note_on_c, 1, 31, 91
1, 132240, Note_on_c, 4, 67, 102
1, 132240, Note_on_c, 4, 72, 114
1, 132240, Note_on_c, 9, 42, 76
1, 132240, Note_on_c, 11, 55, 26
1, 132240, Note_on_c, 12, 60, 110
1, 132280, Note_on_c, 9, 42, 0
1, 132291, Note_on_c, 11, 55, 0
1, 132321, Note_on_c, 4, 72, 0
1, 132321, Note_on_c, 12, 48, 0
1, 132322, Note_on_c, 12, 55, 0
1, 132334, Note_on_c, 4, 67, 0
1, 132360, Note_on_c, 4, 74, 124
1, 132455, Note_on_c, 4, 74, 0
1, 132463, Note_on_c, 1, 31, 0
1, 132480, Note_on_c, 1, 36, 124
1, 132480, Note_on_c, 4, 67, 99
1, 132480, Note_on_c, 4, 72, 119
1, 132480, Note_on_c, 9, 35, 118
1, 132480, Note_on_c, 9, 42, 76
1, 132480, Note_on_c, 11, 48, 114
1, 132480, Note_on_c, 12, 48, 119
1, 132480, Note_on_c, 12, 55, 124
1, 132520, Note_on_c, 9, 35, 0
1, 132520, Note_on_c, 9, 42, 0
1, 132554, Note_on_c, 4, 67, 0
1, 132556, Note_on_c, 4, 72, 0
1, 132720, Lyric_t, "YOU "
1, 132720, Note_on_c, 3, 76, 106
1, 132720, Note_on_c, 9, 42, 76
1, 132721, Note_on_c, 11, 48, 0
1, 132760, Note_on_c, 9, 42, 0
1, 132809, Note_on_c, 3, 76, 0
1, 132851, Note_on_c, 12, 55, 0
1, 132858, Note_on_c, 12, 48, 0
1, 132868, Note_on_c, 12, 60, 0
1, 132887, Note_on_c, 12, 64, 0
1, 132894, Note_on_c, 12, 67, 0
1, 132957, Note_on_c, 1, 36, 0
1, 132960, Lyric_t, "CAN "
1, 132960, Note_on_c, 3, 79, 112
1, 132960, Note_on_c, 4, 67, 106
1, 132960, Note_on_c, 4, 72, 114
1, 132960, Note_on_c, 9, 39, 83
1, 132960, Note_on_c, 9, 40, 118
1, 132960, Note_on_c, 9, 42, 76
1, 132960, Note_on_c, 12, 48, 124
1, 132960, Note_on_c, 12, 55, 110
1, 132960, Note_on_c, 12, 60, 110
1, 132960, Note_on_c, 12, 64, 114
1, 132960, Note_on_c, 12, 67, 110
1, 133000, Note_on_c, 9, 39, 0
1, 133000, Note_on_c, 9, 40, 0
1, 133000, Note_on_c, 9, 42, 0
1, 133035, Note_on_c, 4, 72, 0
1, 133041, Note_on_c, 4, 67, 0
1, 133171, Note_on_c, 3, 79, 0
1, 133200, Lyric_t, "START "
1, 133200, Note_on_c, 1, 36, 124
1, 133200, Note_on_c, 3, 76, 109
1, 133200, Note_on_c, 4, 67, 106
1, 133200, Note_on_c, 4, 72, 114
1, 133200, Note_on_c, 9, 39, 83
1, 133200, Note_on_c, 9, 42, 76
1, 133200, Note_on_c, 11, 52, 114
1, 133200, Note_on_c, 11, 55, 119
1, 133200, Note_on_c, 11, 60, 124
1, 133240, Note_on_c, 9, 39, 0
1, 133240, Note_on_c, 9, 42, 0
1, 133275, Note_on_c, 12, 60, 0
1, 133285, Note_on_c, 4, 72, 0
1, 133294, Note_on_c, 4, 67, 0
1, 133403, Note_on_c, 3, 76, 0
1, 133440, Lyric_t, "YOUR "
1, 133440, Note_on_c, 3, 74, 106
1, 133440, Note_on_c, 4, 67, 102
1, 133440, Note_on_c, 4, 72, 119
1, 133440, Note_on_c, 9, 35, 118
1, 133440, Note_on_c, 9, 42, 76
1, 133440, Note_on_c, 12, 60, 81
1, 133480, Note_on_c, 9, 35, 0
1, 133480, Note_on_c, 9, 42, 0
1, 133503, Note_on_c, 11, 52, 0
1, 133525, Note_on_c, 11, 55, 0
1, 133528, Note_on_c, 4, 72, 0
1, 133540, Note_on_c, 4, 67, 0
1, 133555, Note_on_c, 12, 67, 0
1, 133559, Note_on_c, 12, 64, 0
1, 133565, Note_on_c, 11, 60, 0
1, 133582, Note_on_c, 12, 60, 0
1, 133594, Note_on_c, 1, 36, 0
1, 133665, Note_on_c, 3, 74, 0
1, 133680, Lyric_t, "LIT"
1, 133680, Note_on_c, 1, 31, 114
1, 133680, Note_on_c, 3, 72, 106
1, 133680, Note_on_c, 4, 67, 102
1, 133680, Note_on_c, 4, 72, 119
1, 133680, Note_on_c, 9, 35, 118
1, 133680, Note_on_c, 9, 42, 76
1, 133680, Note_on_c, 11, 48, 106
1, 133680, Note_on_c, 12, 60, 110
1, 133680, Note_on_c, 12, 64, 119
1, 133680, Note_on_c, 12, 67, 119
1, 133720, Note_on_c, 9, 35, 0
1, 133720, Note_on_c, 9, 42, 0
1, 133741, Note_on_c, 12, 55, 0
1, 133749, Note_on_c, 12, 48, 0
1, 133778, Note_on_c, 4, 72, 0
1, 133797, Note_on_c, 4, 67, 0
1, 133799, Note_on_c, 11, 48, 0
1, 133836, Note_on_c, 3, 72, 0
1, 133882, Note_on_c, 1, 31, 0
1, 133920, Note_on_c, 1, 36, 119
1, 133920, Note_on_c, 3, 72, 110
1, 133920, Note_on_c, 9, 39, 83
1, 133920, Note_on_c, 9, 40, 118
1, 133920, Note_on_c, 9, 42, 76
1, 133920, Note_on_c, 11, 52, 127
1, 133920, Note_on_c, 11, 55, 127
1, 133920, Note_on_c, 11, 60, 127
1, 133920, Note_on_c, 12, 48, 119
1, 133920, Note_on_c, 12, 55, 119
1, 133960, Note_on_c, 9, 39, 0
1, 133960, Note_on_c, 9, 40, 0
1, 133960, Note_on_c, 9, 42, 0
1, 133980, Note_on_c, 12, 60, 0
1, 134113, Note_on_c, 1, 36, 0
1, 134141, Note_on_c, 11, 55, 0
1, 134148, Note_on_c, 11, 52, 0
1, 134160, Note_on_c, 1, 37, 127
1, 134160, Note_on_c, 3, 74, 107
1, 134160, Note_on_c, 4, 67, 102
1, 134160, Note_on_c, 4, 72, 114
1, 134160, Note_on_c, 9, 42, 76
1, 134160, Note_on_c, 11, 48, 114
1, 134160, Note_on_c, 12, 60, 114
1, 134171, Note_on_c, 11, 60, 0
1, 134181, Note_on_c, 3, 72, 0
1, 134200, Note_on_c, 9, 42, 0
1, 134241, Note_on_c, 4, 72, 0
1, 134254, Note_on_c, 4, 67, 0
1, 134269, Note_on_c, 11, 48, 0
1, 134280, Note_on_c, 4, 74, 124
1, 134323, Note_on_c, 12, 64, 0
1, 134365, Note_on_c, 1, 37, 0
1, 134366, Note_on_c, 12, 48, 0
1, 134375, Note_on_c, 4, 74, 0
1, 134391, Note_on_c, 12, 55, 0
1, 134400, Note_on_c, 1, 38, 119
1, 134400, Note_on_c, 4, 67, 99
1, 134400, Note_on_c, 4, 72, 119
1, 134400, Note_on_c, 9, 35, 118
1, 134400, Note_on_c, 9, 42, 76
1, 134400, Note_on_c, 11, 50, 124
1, 134400, Note_on_c, 12, 50, 127
1, 134427, Note_on_c, 12, 67, 0
1, 134432, Note_on_c, 12, 60, 0
1, 134440, Note_on_c, 9, 35, 0
1, 134440, Note_on_c, 9, 42, 0
1, 134474, Note_on_c, 4, 67, 0
1, 134476, Note_on_c, 4, 72, 0
1, 134630, Note_on_c, 11, 50, 0
1, 134640, Note_on_c, 9, 42, 76
1, 134680, Note_on_c, 9, 42, 0
1, 134761, Note_on_c, 12, 50, 0
1, 134880, Note_on_c, 4, 67, 106
1, 134880, Note_on_c, 4, 72, 114
1, 134880, Note_on_c, 9, 39, 83
1, 134880, Note_on_c, 9, 40, 118
1, 134880, Note_on_c, 9, 42, 76
1, 134880, Note_on_c, 12, 50, 106
1, 134880, Note_on_c, 12, 57, 106
1, 134880, Note_on_c, 12, 60, 124
1, 134880, Note_on_c, 12, 66, 120
1, 134911, Note_on_c, 1, 38, 0
1, 134920, Note_on_c, 9, 39, 0
1, 134920, Note_on_c, 9, 40, 0
1, 134920, Note_on_c, 9, 42, 0
1, 134957, Note_on_c, 4, 72, 0
1, 134968, Note_on_c, 4, 67, 0
1, 135120, Note_on_c, 1, 38, 124
1, 135120, Note_on_c, 4, 67, 102
1, 135120, Note_on_c, 4, 72, 119
1, 135120, Note_on_c, 9, 39, 83
1, 135120, Note_on_c, 9, 42, 76
1, 135120, Note_on_c, 11, 54, 120
1, 135120, Note_on_c, 11, 57, 119
1, 135120, Note_on_c, 11, 60, 127
1, 135160, Note_on_c, 9, 39, 0
1, 135160, Note_on_c, 9, 42, 0
1, 135164, Note_on_c, 12, 57, 0
1, 135204, Note_on_c, 4, 72, 0
1, 135211, Note_on_c, 11, 54, 0
1, 135218, Note_on_c, 4, 67, 0
1, 135225, Note_on_c, 11, 57, 0
1, 135241, Note_on_c, 11, 60, 0
1, 135304, Note_on_c, 12, 60, 0
1, 135360, Note_on_c, 4, 67, 102
1, 135360, Note_on_c, 4, 72, 110
1, 135360, Note_on_c, 9, 35, 118
1, 135360, Note_on_c, 9, 42, 76
1, 135360, Note_on_c, 12, 57, 67
1, 135360, Note_on_c, 12, 60, 31
1, 135400, Note_on_c, 9, 35, 0
1, 135400, Note_on_c, 9, 42, 0
1, 135446, Note_on_c, 4, 72, 0
1, 135461, Note_on_c, 4, 67, 0
1, 135483, Note_on_c, 12, 60, 0
1, 135499, Note_on_c, 12, 66, 0
1, 135501, Note_on_c, 12, 57, 0
1, 135521, Note_on_c, 3, 74, 0
1, 135600, Note_on_c, 4, 67, 99
1, 135600, Note_on_c, 4, 72, 110
1, 135600, Note_on_c, 9, 35, 118
1, 135600, Note_on_c, 9, 42, 76
1, 135600, Note_on_c, 12, 57, 106
1, 135600, Note_on_c, 12, 60, 119
1, 135600, Note_on_c, 12, 66, 120
1, 135611, Lyric_t, "TLE "
1, 135611, Note_on_c, 3, 76, 110
1, 135640, Note_on_c, 9, 35, 0
1, 135640, Note_on_c, 9, 42, 0
1, 135686, Note_on_c, 12, 50, 0
1, 135691, Note_on_c, 4, 72, 0
1, 135701, Note_on_c, 4, 67, 0
1, 135832, Note_on_c, 3, 76, 0
1, 135840, Note_on_c, 9, 39, 83
1, 135840, Note_on_c, 9, 40, 118
1, 135840, Note_on_c, 9, 42, 76
1, 135840, Note_on_c, 11, 54, 101
1, 135840, Note_on_c, 11, 57, 124
1, 135840, Note_on_c, 11, 60, 124
1, 135840, Note_on_c, 12, 50, 91
1, 135872, Lyric_t, "BAN"
1, 135872, Note_on_c, 3, 74, 104
1, 135880, Note_on_c, 9, 39, 0
1, 135880, Note_on_c, 9, 40, 0
1, 135880, Note_on_c, 9, 42, 0
1, 135937, Note_on_c, 12, 57, 0
1, 136018, Note_on_c, 1, 38, 0
1, 136019, Note_on_c, 12, 60, 0
1, 136021, Note_on_c, 12, 66, 0
1, 136042, Note_on_c, 11, 54, 0
1, 136078, Note_on_c, 12, 50, 0
1, 136080, Note_on_c, 1, 33, 110
1, 136080, Note_on_c, 4, 67, 102
1, 136080, Note_on_c, 4, 72, 114
1, 136080, Note_on_c, 9, 42, 76
1, 136080, Note_on_c, 11, 54, 87
1, 136080, Note_on_c, 12, 57, 94
1, 136080, Note_on_c, 12, 60, 91
1, 136080, Note_on_c, 12, 66, 90
1, 136091, Note_on_c, 3, 74, 0
1, 136110, Lyric_t, "D"
1, 136110, Lyric_t, "\015"
1, 136110, Note_on_c, 3, 72, 106
1, 136120, Note_on_c, 9, 42, 0
1, 136161, Note_on_c, 4, 72, 0
1, 136174, Note_on_c, 4, 67, 0
1, 136186, Note_on_c, 11, 54, 0
1, 136200, Note_on_c, 4, 74, 124
1, 136227, Note_on_c, 11, 57, 0
1, 136227, Note_on_c, 11, 60, 0
1, 136295, Note_on_c, 4, 74, 0
1, 136305, Note_on_c, 1, 33, 0
1, 136320, Note_on_c, 1, 38, 106
1, 136320, Note_on_c, 4, 67, 99
1, 136320, Note_on_c, 4, 72, 119
1, 136320, Note_on_c, 9, 35, 118
1, 136320, Note_on_c, 9, 42, 76
1, 136320, Note_on_c, 11, 50, 114
1, 136320, Note_on_c, 12, 50, 124
1, 136360, Note_on_c, 9, 35, 0
1, 136360, Note_on_c, 9, 42, 0
1, 136391, Note_on_c, 3, 72, 0
1, 136394, Note_on_c, 4, 67, 0
1, 136396, Note_on_c, 4, 72, 0
1, 136560, Note_on_c, 9, 42, 76
1, 136595, Note_on_c, 11, 50, 0
1, 136600, Note_on_c, 9, 42, 0
1, 136672, Note_on_c, 12, 50, 0
1, 136685, Note_on_c, 12, 57, 0
1, 136687, Note_on_c, 12, 66, 0
1, 136703, Note_on_c, 12, 60, 0
1, 136800, Note_on_c, 4, 67, 106
1, 136800, Note_on_c, 4, 72, 114
1, 136800, Note_on_c, 9, 39, 83
1, 136800, Note_on_c, 9, 40, 118
1, 136800, Note_on_c, 9, 42, 76
1, 136800, Note_on_c, 12, 50, 119
1, 136800, Note_on_c, 12, 57, 102
1, 136800, Note_on_c, 12, 60, 119
1, 136800, Note_on_c, 12, 66, 115
1, 136840, Note_on_c, 9, 39, 0
1, 136840, Note_on_c, 9, 40, 0
1, 136840, Note_on_c, 9, 42, 0
1, 136875, Note_on_c, 4, 72, 0
1, 136878, Note_on_c, 1, 38, 0
1, 136881, Note_on_c, 4, 67, 0
1, 137040, Note_on_c, 1, 38, 119
1, 137040, Note_on_c, 4, 67, 106
1, 137040, Note_on_c, 4, 72, 114
1, 137040, Note_on_c, 9, 39, 83
1, 137040, Note_on_c, 9, 42, 76
1, 137040, Note_on_c, 11, 54, 120
1, 137040, Note_on_c, 11, 57, 106
1, 137040, Note_on_c, 11, 60, 114
1, 137080, Note_on_c, 9, 39, 0
1, 137080, Note_on_c, 9, 42, 0
1, 137125, Note_on_c, 4, 72, 0
1, 137134, Note_on_c, 4, 67, 0
1, 137142, Note_on_c, 11, 54, 0
1, 137177, Note_on_c, 12, 57, 0
1, 137182, Note_on_c, 11, 57, 0
1, 137198, Note_on_c, 11, 60, 0
1, 137280, Note_on_c, 4, 67, 102
1, 137280, Note_on_c, 4, 72, 119
1, 137280, Note_on_c, 9, 35, 118
1, 137280, Note_on_c, 9, 42, 76
1, 137280, Note_on_c, 12, 57, 72
1, 137320, Note_on_c, 9, 35, 0
1, 137320, Note_on_c, 9, 42, 0
1, 137368, Note_on_c, 4, 72, 0
1, 137380, Note_on_c, 4, 67, 0
1, 137395, Note_on_c, 1, 38, 0
1, 137397, Note_on_c, 12, 57, 0
1, 137454, Note_on_c, 12, 66, 0
1, 137462, Note_on_c, 12, 60, 0
1, 137520, Lyric_t, "YOU "
1, 137520, Note_on_c, 1, 38, 110
1, 137520, Note_on_c, 3, 69, 115
1, 137520, Note_on_c, 4, 67, 102
1, 137520, Note_on_c, 4, 72, 119
1, 137520, Note_on_c, 9, 35, 118
1, 137520, Note_on_c, 9, 42, 76
1, 137520, Note_on_c, 11, 50, 106
1, 137520, Note_on_c, 12, 57, 110
1, 137520, Note_on_c, 12, 60, 110
1, 137520, Note_on_c, 12, 66, 101
1, 137560, Note_on_c, 9, 35, 0
1, 137560, Note_on_c, 9, 42, 0
1, 137618, Note_on_c, 4, 72, 0
1, 137637, Note_on_c, 4, 67, 0
1, 137657, Note_on_c, 12, 50, 0
1, 137728, Note_on_c, 1, 38, 0
1, 137736, Note_on_c, 3, 69, 0
1, 137753, Note_on_c, 11, 50, 0
1, 137760, Lyric_t, "CAN "
1, 137760, Note_on_c, 1, 33, 106
1, 137760, Note_on_c, 3, 72, 112
1, 137760, Note_on_c, 9, 39, 83
1, 137760, Note_on_c, 9, 40, 118
1, 137760, Note_on_c, 9, 42, 76
1, 137760, Note_on_c, 11, 54, 120
1, 137760, Note_on_c, 11, 57, 114
1, 137760, Note_on_c, 11, 60, 119
1, 137760, Note_on_c, 12, 50, 114
1, 137800, Note_on_c, 9, 39, 0
1, 137800, Note_on_c, 9, 40, 0
1, 137800, Note_on_c, 9, 42, 0
1, 137849, Note_on_c, 12, 57, 0
1, 137888, Note_on_c, 1, 33, 0
1, 137922, Note_on_c, 11, 54, 0
1, 137965, Note_on_c, 3, 72, 0
1, 137988, Note_on_c, 11, 57, 0
1, 138000, Lyric_t, "SWING "
1, 138000, Note_on_c, 1, 31, 110
1, 138000, Note_on_c, 3, 75, 115
1, 138000, Note_on_c, 4, 65, 102
1, 138000, Note_on_c, 4, 72, 114
1, 138000, Note_on_c, 9, 42, 76
1, 138000, Note_on_c, 11, 50, 102
1, 138000, Note_on_c, 12, 57, 106
1, 138011, Note_on_c, 11, 60, 0
1, 138040, Note_on_c, 9, 42, 0
1, 138081, Note_on_c, 4, 72, 0
1, 138084, Note_on_c, 11, 50, 0
1, 138094, Note_on_c, 4, 65, 0
1, 138120, Note_on_c, 4, 74, 124
1, 138169, Note_on_c, 12, 57, 0
1, 138189, Note_on_c, 12, 60, 0
1, 138194, Note_on_c, 1, 31, 0
1, 138195, Note_on_c, 12, 66, 0
1, 138207, Note_on_c, 12, 50, 0
1, 138215, Note_on_c, 4, 74, 0
1, 138240, Note_on_c, 1, 29, 124
1, 138240, Note_on_c, 4, 65, 99
1, 138240, Note_on_c, 4, 72, 119
1, 138240, Note_on_c, 9, 35, 118
1, 138240, Note_on_c, 9, 42, 76
1, 138240, Note_on_c, 11, 41, 127
1, 138240, Note_on_c, 12, 41, 102
1, 138240, Note_on_c, 12, 53, 110
1, 138280, Note_on_c, 9, 35, 0
1, 138280, Note_on_c, 9, 42, 0
1, 138314, Note_on_c, 4, 65, 0
1, 138316, Note_on_c, 4, 72, 0
1, 138371, Note_on_c, 3, 75, 0
1, 138480, Lyric_t, "FROM "
1, 138480, Note_on_c, 3, 75, 115
1, 138480, Note_on_c, 9, 42, 76
1, 138520, Note_on_c, 9, 42, 0
1, 138606, Note_on_c, 3, 75, 0
1, 138626, Note_on_c, 12, 41, 0
1, 138652, Note_on_c, 12, 53, 0
1, 138718, Note_on_c, 11, 41, 0
1, 138720, Lyric_t, "VINE "
1, 138720, Note_on_c, 3, 74, 113
1, 138720, Note_on_c, 4, 65, 106
1, 138720, Note_on_c, 4, 72, 114
1, 138720, Note_on_c, 9, 39, 83
1, 138720, Note_on_c, 9, 40, 118
1, 138720, Note_on_c, 9, 42, 76
1, 138720, Note_on_c, 11, 53, 114
1, 138720, Note_on_c, 11, 57, 119
1, 138720, Note_on_c, 11, 60, 124
1, 138720, Note_on_c, 12, 41, 114
1, 138720, Note_on_c, 12, 53, 78
1, 138720, Note_on_c, 12, 57, 106
1, 138720, Note_on_c, 12, 60, 119
1, 138720, Note_on_c, 12, 65, 119
1, 138756, Note_on_c, 1, 29, 0
1, 138760, Note_on_c, 9, 39, 0
1, 138760, Note_on_c, 9, 40, 0
1, 138760, Note_on_c, 9, 42, 0
1, 138797, Note_on_c, 4, 72, 0
1, 138808, Note_on_c, 4, 65, 0
1, 138818, Note_on_c, 11, 53, 0
1, 138820, Note_on_c, 11, 57, 0
1, 138845, Note_on_c, 11, 60, 0
1, 138926, Note_on_c, 3, 74, 0
1, 138960, Lyric_t, "TO "
1, 138960, Note_on_c, 1, 29, 106
1, 138960, Note_on_c, 3, 72, 115
1, 138960, Note_on_c, 4, 65, 102
1, 138960, Note_on_c, 4, 72, 119
1, 138960, Note_on_c, 9, 39, 83
1, 138960, Note_on_c, 9, 42, 76
1, 138960, Note_on_c, 11, 57, 45
1, 138960, Note_on_c, 11, 60, 50
1, 138994, Note_on_c, 11, 57, 0
1, 139000, Note_on_c, 9, 39, 0
1, 139000, Note_on_c, 9, 42, 0
1, 139021, Note_on_c, 11, 60, 0
1, 139037, Note_on_c, 12, 57, 0
1, 139043, Note_on_c, 3, 72, 0
1, 139044, Note_on_c, 4, 72, 0
1, 139058, Note_on_c, 4, 65, 0
1, 139200, Lyric_t, "VINE"
1, 139200, Lyric_t, "\015"
1, 139200, Note_on_c, 3, 72, 113
1, 139200, Note_on_c, 4, 65, 102
1, 139200, Note_on_c, 4, 72, 110
1, 139200, Note_on_c, 9, 35, 118
1, 139200, Note_on_c, 9, 42, 76
1, 139200, Note_on_c, 12, 57, 84
1, 139240, Note_on_c, 9, 35, 0
1, 139240, Note_on_c, 9, 42, 0
1, 139286, Note_on_c, 4, 72, 0
1, 139301, Note_on_c, 4, 65, 0
1, 139305, Note_on_c, 12, 60, 0
1, 139309, Note_on_c, 12, 65, 0
1, 139333, Note_on_c, 12, 57, 0
1, 139436, Note_on_c, 3, 72, 0
1, 139440, Note_on_c, 1, 36, 102
1, 139440, Note_on_c, 4, 65, 99
1, 139440, Note_on_c, 4, 72, 110
1, 139440, Note_on_c, 9, 35, 118
1, 139440, Note_on_c, 9, 42, 76
1, 139440, Note_on_c, 11, 53, 110
1, 139440, Note_on_c, 11, 57, 114
1, 139440, Note_on_c, 11, 60, 124
1, 139440, Note_on_c, 12, 57, 114
1, 139440, Note_on_c, 12, 60, 119
1, 139440, Note_on_c, 12, 65, 119
1, 139480, Note_on_c, 9, 35, 0
1, 139480, Note_on_c, 9, 42, 0
1, 139512, Note_on_c, 12, 41, 0
1, 139531, Note_on_c, 4, 72, 0
1, 139539, Note_on_c, 1, 29, 0
1, 139541, Note_on_c, 4, 65, 0
1, 139561, Note_on_c, 12, 53, 0
1, 139588, Note_on_c, 1, 36, 0
1, 139680, Note_on_c, 1, 41, 87
1, 139680, Note_on_c, 9, 39, 83
1, 139680, Note_on_c, 9, 40, 118
1, 139680, Note_on_c, 9, 42, 76
1, 139680, Note_on_c, 11, 41, 106
1, 139680, Note_on_c, 12, 41, 114
1, 139680, Note_on_c, 12, 53, 110
1, 139689, Note_on_c, 11, 53, 0
1, 139720, Note_on_c, 9, 39, 0
1, 139720, Note_on_c, 9, 40, 0
1, 139720, Note_on_c, 9, 42, 0
1, 139736, Lyric_t, "WHILE "
1, 139736, Note_on_c, 3, 69, 111
1, 139736, Note_on_c, 12, 57, 0
1, 139748, Note_on_c, 1, 41, 0
1, 139836, Note_on_c, 11, 57, 0
1, 139857, Note_on_c, 12, 60, 0
1, 139909, Note_on_c, 11, 41, 0
1, 139920, Note_on_c, 1, 41, 114
1, 139920, Note_on_c, 4, 65, 102
1, 139920, Note_on_c, 4, 72, 114
1, 139920, Note_on_c, 9, 42, 76
1, 139920, Note_on_c, 11, 53, 67
1, 139920, Note_on_c, 12, 57, 94
1, 139920, Note_on_c, 12, 60, 54
1, 139956, Note_on_c, 3, 69, 0
1, 139960, Note_on_c, 9, 42, 0
1, 139971, Lyric_t, "THE "
1, 139971, Note_on_c, 3, 72, 115
1, 140001, Note_on_c, 4, 72, 0
1, 140014, Note_on_c, 4, 65, 0
1, 140022, Note_on_c, 12, 57, 0
1, 140040, Note_on_c, 4, 74, 124
1, 140040, Note_on_c, 12, 41, 0
1, 140042, Note_on_c, 11, 60, 0
1, 140043, Note_on_c, 11, 53, 0
1, 140047, Note_on_c, 12, 60, 0
1, 140075, Note_on_c, 12, 53, 0
1, 140117, Note_on_c, 12, 65, 0
1, 140128, Note_on_c, 3, 72, 0
1, 140135, Note_on_c, 4, 74, 0
1, 140160, Note_on_c, 4, 65, 99
1, 140160, Note_on_c, 4, 72, 119
1, 140160, Note_on_c, 9, 35, 118
1, 140160, Note_on_c, 9, 42, 76
1, 140160, Note_on_c, 11, 53, 87
1, 140160, Note_on_c, 11, 56, 109
1, 140160, Note_on_c, 11, 60, 102
1, 140160, Note_on_c, 12, 41, 114
1, 140160, Note_on_c, 12, 53, 99
1, 140160, Note_on_c, 12, 56, 97
1, 140160, Note_on_c, 12, 60, 106
1, 140160, Note_on_c, 12, 65, 91
1, 140183, Lyric_t, "KID"
1, 140183, Note_on_c, 3, 75, 115
1, 140200, Note_on_c, 9, 35, 0
1, 140200, Note_on_c, 9, 42, 0
1, 140234, Note_on_c, 4, 65, 0
1, 140234, Note_on_c, 11, 56, 0
1, 140236, Note_on_c, 4, 72, 0
1, 140266, Note_on_c, 3, 75, 0
1, 140295, Note_on_c, 11, 60, 0
1, 140330, Note_on_c, 11, 53, 0
1, 140400, Note_on_c, 9, 42, 76
1, 140415, Lyric_t, "DIES "
1, 140415, Note_on_c, 3, 75, 115
1, 140440, Note_on_c, 9, 42, 0
1, 140514, Note_on_c, 12, 60, 0
1, 140515, Note_on_c, 12, 56, 0
1, 140519, Note_on_c, 12, 41, 0
1, 140531, Note_on_c, 12, 53, 0
1, 140541, Note_on_c, 12, 65, 0
1, 140624, Note_on_c, 3, 75, 0
1, 140640, Note_on_c, 4, 65, 106
1, 140640, Note_on_c, 4, 72, 114
1, 140640, Note_on_c, 9, 39, 83
1, 140640, Note_on_c, 9, 40, 118
1, 140640, Note_on_c, 9, 42, 76
1, 140640, Note_on_c, 12, 41, 114
1, 140640, Note_on_c, 12, 53, 94
1, 140640, Note_on_c, 12, 56, 115
1, 140640, Note_on_c, 12, 60, 119
1, 140640, Note_on_c, 12, 65, 114
1, 140644, Note_on_c, 1, 41, 0
1, 140650, Lyric_t, "WAIT "
1, 140650, Note_on_c, 3, 74, 112
1, 140680, Note_on_c, 9, 39, 0
1, 140680, Note_on_c, 9, 40, 0
1, 140680, Note_on_c, 9, 42, 0
1, 140715, Note_on_c, 4, 72, 0
1, 140721, Note_on_c, 4, 65, 0
1, 140857, Note_on_c, 3, 74, 0
1, 140880, Note_on_c, 1, 41, 114
1, 140880, Note_on_c, 4, 65, 106
1, 140880, Note_on_c, 4, 72, 114
1, 140880, Note_on_c, 9, 39, 83
1, 140880, Note_on_c, 9, 42, 76
1, 140880, Note_on_c, 11, 53, 102
1, 140880, Note_on_c, 11, 56, 127
1, 140880, Note_on_c, 11, 60, 124
1, 140888, Lyric_t, "IN "
1, 140888, Note_on_c, 3, 72, 110
1, 140920, Note_on_c, 9, 39, 0
1, 140920, Note_on_c, 9, 42, 0
1, 140954, Note_on_c, 1, 41, 0
1, 140965, Note_on_c, 4, 72, 0
1, 140972, Note_on_c, 12, 56, 0
1, 140974, Note_on_c, 4, 65, 0
1, 140975, Note_on_c, 3, 72, 0
1, 141061, Note_on_c, 12, 60, 0
1, 141120, Note_on_c, 1, 41, 119
1, 141120, Note_on_c, 4, 65, 102
1, 141120, Note_on_c, 4, 72, 119
1, 141120, Note_on_c, 9, 35, 118
1, 141120, Note_on_c, 9, 42, 76
1, 141120, Note_on_c, 12, 56, 101
1, 141135, Lyric_t, "LINE"
1, 141135, Lyric_t, "\015"
1, 141135, Note_on_c, 3, 72, 113
1, 141151, Note_on_c, 11, 53, 0
1, 141160, Note_on_c, 9, 35, 0
1, 141160, Note_on_c, 9, 42, 0
1, 141205, Note_on_c, 11, 56, 0
1, 141208, Note_on_c, 4, 72, 0
1, 141212, Note_on_c, 12, 65, 0
1, 141220, Note_on_c, 4, 65, 0
1, 141232, Note_on_c, 12, 56, 0
1, 141278, Note_on_c, 11, 60, 0
1, 141305, Note_on_c, 1, 41, 0
1, 141360, Note_on_c, 1, 36, 119
1, 141360, Note_on_c, 4, 65, 102
1, 141360, Note_on_c, 4, 72, 119
1, 141360, Note_on_c, 9, 35, 118
1, 141360, Note_on_c, 9, 42, 76
1, 141360, Note_on_c, 11, 53, 87
1, 141360, Note_on_c, 12, 56, 120
1, 141360, Note_on_c, 12, 60, 127
1, 141360, Note_on_c, 12, 65, 114
1, 141397, Note_on_c, 12, 41, 0
1, 141400, Note_on_c, 9, 35, 0
1, 141400, Note_on_c, 9, 42, 0
1, 141424, Note_on_c, 12, 53, 0
1, 141438, Note_on_c, 11, 53, 0
1, 141458, Note_on_c, 4, 72, 0
1, 141477, Note_on_c, 4, 65, 0
1, 141525, Note_on_c, 3, 72, 0
1, 141586, Note_on_c, 1, 36, 0
1, 141600, Note_on_c, 1, 29, 119
1, 141600, Note_on_c, 9, 39, 83
1, 141600, Note_on_c, 9, 40, 118
1, 141600, Note_on_c, 9, 42, 76
1, 141600, Note_on_c, 11, 53, 94
1, 141600, Note_on_c, 11, 56, 127
1, 141600, Note_on_c, 11, 60, 114
1, 141600, Note_on_c, 12, 41, 114
1, 141600, Note_on_c, 12, 53, 124
1, 141640, Note_on_c, 9, 39, 0
1, 141640, Note_on_c, 9, 40, 0
1, 141640, Note_on_c, 9, 42, 0
1, 141652, Lyric_t, "WITH "
1, 141652, Note_on_c, 3, 69, 112
1, 141702, Note_on_c, 11, 53, 0
1, 141717, Note_on_c, 12, 56, 0
1, 141793, Note_on_c, 12, 60, 0
1, 141840, Note_on_c, 4, 67, 102
1, 141840, Note_on_c, 4, 72, 114
1, 141840, Note_on_c, 9, 42, 76
1, 141840, Note_on_c, 11, 53, 60
1, 141840, Note_on_c, 12, 56, 105
1, 141840, Note_on_c, 12, 60, 43
1, 141850, Note_on_c, 3, 69, 0
1, 141853, Note_on_c, 11, 56, 0
1, 141874, Lyric_t, "THE "
1, 141874, Note_on_c, 3, 72, 115
1, 141880, Note_on_c, 9, 42, 0
1, 141916, Note_on_c, 12, 60, 0
1, 141921, Note_on_c, 4, 72, 0
1, 141931, Note_on_c, 11, 60, 0
1, 141934, Note_on_c, 4, 67, 0
1, 141934, Note_on_c, 12, 56, 0
1, 141949, Note_on_c, 1, 29, 0
1, 141960, Note_on_c, 4, 74, 124
1, 141966, Note_on_c, 11, 53, 0
1, 141990, Note_on_c, 12, 41, 0
1, 142022, Note_on_c, 12, 53, 0
1, 142036, Note_on_c, 12, 65, 0
1, 142051, Note_on_c, 3, 72, 0
1, 142055, Note_on_c, 4, 74, 0
1, 142080, Note_on_c, 1, 36, 127
1, 142080, Note_on_c, 4, 67, 99
1, 142080, Note_on_c, 4, 72, 119
1, 142080, Note_on_c, 9, 35, 118
1, 142080, Note_on_c, 9, 42, 76
1, 142080, Note_on_c, 11, 48, 119
1, 142080, Note_on_c, 12, 48, 110
1, 142080, Note_on_c, 12, 55, 110
1, 142109, Lyric_t, "MO"
1, 142109, Note_on_c, 3, 76, 115
1, 142120, Note_on_c, 9, 35, 0
1, 142120, Note_on_c, 9, 42, 0
1, 142154, Note_on_c, 4, 67, 0
1, 142156, Note_on_c, 4, 72, 0
1, 142197, Note_on_c, 3, 76, 0
1, 142316, Note_on_c, 11, 48, 0
1, 142320, Note_on_c, 9, 42, 76
1, 142341, Lyric_t, "NEY "
1, 142341, Note_on_c, 3, 76, 115
1, 142360, Note_on_c, 9, 42, 0
1, 142419, Note_on_c, 12, 55, 0
1, 142425, Note_on_c, 12, 48, 0
1, 142543, Note_on_c, 3, 76, 0
1, 142560, Note_on_c, 4, 67, 106
1, 142560, Note_on_c, 4, 72, 114
1, 142560, Note_on_c, 9, 39, 83
1, 142560, Note_on_c, 9, 40, 118
1, 142560, Note_on_c, 9, 42, 76
1, 142560, Note_on_c, 11, 52, 119
1, 142560, Note_on_c, 11, 55, 127
1, 142560, Note_on_c, 11, 60, 127
1, 142560, Note_on_c, 12, 48, 124
1, 142560, Note_on_c, 12, 55, 119
1, 142560, Note_on_c, 12, 60, 119
1, 142560, Note_on_c, 12, 64, 114
1, 142560, Note_on_c, 12, 67, 119
1, 142564, Note_on_c, 1, 36, 0
1, 142572, Lyric_t, "IN "
1, 142572, Note_on_c, 3, 74, 112
1, 142600, Note_on_c, 9, 39, 0
1, 142600, Note_on_c, 9, 40, 0
1, 142600, Note_on_c, 9, 42, 0
1, 142635, Note_on_c, 4, 72, 0
1, 142641, Note_on_c, 4, 67, 0
1, 142697, Note_on_c, 11, 52, 0
1, 142788, Note_on_c, 3, 74, 0
1, 142800, Note_on_c, 1, 36, 127
1, 142800, Note_on_c, 4, 67, 106
1, 142800, Note_on_c, 4, 72, 114
1, 142800, Note_on_c, 9, 39, 83
1, 142800, Note_on_c, 9, 42, 76
1, 142800, Note_on_c, 11, 52, 64
1, 142824, Lyric_t, "THEIR "
1, 142824, Note_on_c, 3, 72, 115
1, 142840, Note_on_c, 9, 39, 0
1, 142840, Note_on_c, 9, 42, 0
1, 142856, Note_on_c, 12, 60, 0
1, 142873, Note_on_c, 11, 52, 0
1, 142875, Note_on_c, 11, 55, 0
1, 142885, Note_on_c, 4, 72, 0
1, 142887, Note_on_c, 11, 60, 0
1, 142894, Note_on_c, 4, 67, 0
1, 142959, Note_on_c, 1, 36, 0
1, 143040, Note_on_c, 1, 36, 124
1, 143040, Note_on_c, 4, 67, 102
1, 143040, Note_on_c, 4, 72, 119
1, 143040, Note_on_c, 9, 35, 118
1, 143040, Note_on_c, 9, 42, 76
1, 143040, Note_on_c, 12, 60, 94
1, 143068, Note_on_c, 3, 72, 0
1, 143072, Lyric_t, "HAN"
1, 143072, Note_on_c, 3, 72, 115
1, 143080, Note_on_c, 9, 35, 0
1, 143080, Note_on_c, 9, 42, 0
1, 143119, Note_on_c, 12, 67, 0
1, 143123, Note_on_c, 12, 64, 0
1, 143128, Note_on_c, 4, 72, 0
1, 143140, Note_on_c, 1, 36, 0
1, 143140, Note_on_c, 4, 67, 0
1, 143160, Note_on_c, 12, 60, 0
1, 143280, Note_on_c, 1, 36, 119
1, 143280, Note_on_c, 4, 67, 102
1, 143280, Note_on_c, 4, 72, 119
1, 143280, Note_on_c, 9, 35, 118
1, 143280, Note_on_c, 9, 42, 76
1, 143280, Note_on_c, 11, 52, 114
1, 143280, Note_on_c, 11, 55, 124
1, 143280, Note_on_c, 11, 60, 127
1, 143280, Note_on_c, 12, 60, 119
1, 143280, Note_on_c, 12, 64, 119
1, 143280, Note_on_c, 12, 67, 124
1, 143320, Note_on_c, 9, 35, 0
1, 143320, Note_on_c, 9, 42, 0
1, 143378, Note_on_c, 4, 72, 0
1, 143380, Note_on_c, 12, 48, 0
1, 143386, Note_on_c, 12, 55, 0
1, 143397, Note_on_c, 4, 67, 0
1, 143485, Note_on_c, 11, 52, 0
1, 143520, Note_on_c, 1, 31, 114
1, 143520, Note_on_c, 9, 39, 83
1, 143520, Note_on_c, 9, 40, 118
1, 143520, Note_on_c, 9, 42, 76
1, 143520, Note_on_c, 11, 48, 127
1, 143520, Note_on_c, 12, 48, 99
1, 143520, Note_on_c, 12, 55, 81
1, 143529, Note_on_c, 1, 36, 0
1, 143548, Note_on_c, 3, 72, 0
1, 143552, Lyric_t, "D"
1, 143552, Lyric_t, "\015"
1, 143552, Note_on_c, 3, 69, 115
1, 143560, Note_on_c, 9, 39, 0
1, 143560, Note_on_c, 9, 40, 0
1, 143560, Note_on_c, 9, 42, 0
1, 143600, Note_on_c, 12, 60, 0
1, 143687, Note_on_c, 11, 55, 0
1, 143715, Note_on_c, 1, 31, 0
1, 143731, Note_on_c, 11, 60, 0
1, 143737, Note_on_c, 11, 48, 0
1, 143760, Note_on_c, 1, 33, 119
1, 143760, Note_on_c, 4, 67, 102
1, 143760, Note_on_c, 4, 72, 114
1, 143760, Note_on_c, 9, 42, 76
1, 143760, Note_on_c, 11, 52, 110
1, 143760, Note_on_c, 12, 60, 110
1, 143798, Note_on_c, 3, 69, 0
1, 143800, Note_on_c, 9, 42, 0
1, 143841, Note_on_c, 4, 72, 0
1, 143841, Note_on_c, 12, 48, 0
1, 143842, Note_on_c, 12, 55, 0
1, 143854, Note_on_c, 4, 67, 0
1, 143864, Note_on_c, 11, 52, 0
1, 143880, Note_on_c, 4, 74, 124
1, 143908, Note_on_c, 12, 60, 0
1, 143927, Note_on_c, 12, 64, 0
1, 143934, Note_on_c, 12, 67, 0
1, 143967, Note_on_c, 1, 33, 0
1, 143975, Note_on_c, 4, 74, 0
1, 144000, Note_on_c, 1, 36, 127
1, 144000, Note_on_c, 4, 67, 99
1, 144000, Note_on_c, 4, 72, 119
1, 144000, Note_on_c, 9, 35, 118
1, 144000, Note_on_c, 9, 42, 76
1, 144000, Note_on_c, 11, 48, 119
1, 144000, Note_on_c, 12, 48, 110
1, 144000, Note_on_c, 12, 55, 110
1, 144040, Note_on_c, 9, 35, 0
1, 144040, Note_on_c, 9, 42, 0
1, 144074, Note_on_c, 4, 67, 0
1, 144076, Note_on_c, 4, 72, 0
1, 144236, Note_on_c, 11, 48, 0
1, 144240, Note_on_c, 9, 42, 76
1, 144262, Lyric_t, "BUT "
1, 144262, Note_on_c, 3, 76, 110
1, 144280, Note_on_c, 9, 42, 0
1, 144324, Note_on_c, 3, 76, 0
1, 144339, Note_on_c, 12, 55, 0
1, 144345, Note_on_c, 12, 48, 0
1, 144480, Note_on_c, 9, 39, 83
1, 144480, Note_on_c, 9, 40, 118
1, 144480, Note_on_c, 9, 42, 76
1, 144480, Note_on_c, 11, 52, 119
1, 144480, Note_on_c, 11, 55, 127
1, 144480, Note_on_c, 11, 60, 127
1, 144480, Note_on_c, 12, 48, 124
1, 144480, Note_on_c, 12, 55, 119
1, 144480, Note_on_c, 12, 60, 119
1, 144480, Note_on_c, 12, 64, 114
1, 144480, Note_on_c, 12, 67, 119
1, 144484, Note_on_c, 1, 36, 0
1, 144511, Lyric_t, "IF "
1, 144511, Note_on_c, 3, 79, 110
1, 144520, Note_on_c, 9, 39, 0
1, 144520, Note_on_c, 9, 40, 0
1, 144520, Note_on_c, 9, 42, 0
1, 144617, Note_on_c, 11, 52, 0
1, 144705, Note_on_c, 3, 79, 0
1, 144720, Note_on_c, 1, 36, 127
1, 144720, Note_on_c, 9, 39, 83
1, 144720, Note_on_c, 9, 42, 76
1, 144720, Note_on_c, 11, 52, 64
1, 144760, Note_on_c, 9, 39, 0
1, 144760, Note_on_c, 9, 42, 0
1, 144767, Lyric_t, "YOU "
1, 144767, Note_on_c, 3, 76, 107
1, 144776, Note_on_c, 12, 60, 0
1, 144793, Note_on_c, 11, 52, 0
1, 144795, Note_on_c, 11, 55, 0
1, 144807, Note_on_c, 11, 60, 0
1, 144857, Note_on_c, 3, 76, 0
1, 144879, Note_on_c, 1, 36, 0
1, 144960, Note_on_c, 1, 36, 124
1, 144960, Note_on_c, 9, 35, 118
1, 144960, Note_on_c, 9, 42, 76
1, 144960, Note_on_c, 12, 60, 94
1, 144996, Lyric_t, "GET IT "
1, 144996, Note_on_c, 3, 79, 111
1, 145000, Note_on_c, 9, 35, 0
1, 145000, Note_on_c, 9, 42, 0
1, 145039, Note_on_c, 12, 67, 0
1, 145043, Note_on_c, 12, 64, 0
1, 145060, Note_on_c, 1, 36, 0
1, 145080, Note_on_c, 12, 60, 0
1, 145189, Note_on_c, 3, 79, 0
1, 145200, Note_on_c, 1, 36, 119
1, 145200, Note_on_c, 9, 40, 118
1, 145200, Note_on_c, 9, 57, 89
1, 145200, Note_on_c, 11, 52, 114
1, 145200, Note_on_c, 11, 55, 124
1, 145200, Note_on_c, 11, 60, 127
1, 145200, Note_on_c, 12, 60, 119
1, 145200, Note_on_c, 12, 64, 119
1, 145200, Note_on_c, 12, 67, 124
1, 145236, Lyric_t, "TO "
1, 145236, Note_on_c, 3, 76, 105
1, 145240, Note_on_c, 9, 40, 0
1, 145240, Note_on_c, 9, 57, 0
1, 145300, Note_on_c, 12, 48, 0
1, 145306, Note_on_c, 12, 55, 0
1, 145405, Note_on_c, 11, 52, 0
1, 145440, Note_on_c, 1, 31, 114
1, 145440, Note_on_c, 9, 35, 118
1, 145440, Note_on_c, 9, 42, 76
1, 145440, Note_on_c, 11, 48, 127
1, 145440, Note_on_c, 12, 48, 99
1, 145440, Note_on_c, 12, 55, 81
1, 145444, Note_on_c, 3, 76, 0
1, 145449, Note_on_c, 1, 36, 0
1, 145479, Lyric_t, "CA"
1, 145479, Note_on_c, 3, 79, 109
1, 145480, Note_on_c, 9, 35, 0
1, 145480, Note_on_c, 9, 42, 0
1, 145520, Note_on_c, 12, 60, 0
1, 145607, Note_on_c, 11, 55, 0
1, 145635, Note_on_c, 1, 31, 0
1, 145651, Note_on_c, 11, 60, 0
1, 145654, Note_on_c, 3, 79, 0
1, 145657, Note_on_c, 11, 48, 0
1, 145680, Note_on_c, 1, 33, 119
1, 145680, Note_on_c, 4, 67, 102
1, 145680, Note_on_c, 4, 72, 114
1, 145680, Note_on_c, 9, 40, 118
1, 145680, Note_on_c, 9, 42, 76
1, 145680, Note_on_c, 9, 57, 89
1, 145680, Note_on_c, 11, 52, 110
1, 145680, Note_on_c, 12, 60, 110
1, 145700, Lyric_t, "LI"
1, 145700, Note_on_c, 3, 76, 106
1, 145720, Note_on_c, 9, 40, 0
1, 145720, Note_on_c, 9, 42, 0
1, 145720, Note_on_c, 9, 57, 0
1, 145761, Note_on_c, 4, 72, 0
1, 145761, Note_on_c, 12, 48, 0
1, 145762, Note_on_c, 12, 55, 0
1, 145774, Note_on_c, 4, 67, 0
1, 145784, Note_on_c, 11, 52, 0
1, 145800, Note_on_c, 4, 74, 124
1, 145828, Note_on_c, 12, 60, 0
1, 145847, Note_on_c, 12, 64, 0
1, 145854, Note_on_c, 12, 67, 0
1, 145887, Note_on_c, 1, 33, 0
1, 145895, Note_on_c, 4, 74, 0
1, 145920, Note_on_c, 1, 36, 127
1, 145920, Note_on_c, 4, 67, 99
1, 145920, Note_on_c, 4, 72, 119
1, 145920, Note_on_c, 9, 35, 118
1, 145920, Note_on_c, 9, 49, 91
1, 145920, Note_on_c, 11, 48, 124
1, 145920, Note_on_c, 11, 55, 110
1, 145920, Note_on_c, 11, 60, 110
1, 145920, Note_on_c, 12, 48, 110
1, 145920, Note_on_c, 12, 55, 110
1, 145940, Note_on_c, 3, 76, 0
1, 145960, Note_on_c, 9, 35, 0
1, 145960, Note_on_c, 9, 49, 0
1, 145964, Lyric_t, "FOR"
1, 145964, Note_on_c, 3, 79, 111
1, 145994, Note_on_c, 4, 67, 0
1, 145996, Note_on_c, 4, 72, 0
1, 146091, Note_on_c, 11, 55, 0
1, 146091, Note_on_c, 11, 60, 0
1, 146140, Note_on_c, 11, 48, 0
1, 146160, Note_on_c, 9, 42, 76
1, 146163, Note_on_c, 3, 79, 0
1, 146193, Lyric_t, "NI"
1, 146193, Note_on_c, 3, 74, 107
1, 146200, Note_on_c, 9, 42, 0
1, 146259, Note_on_c, 12, 55, 0
1, 146265, Note_on_c, 12, 48, 0
1, 146400, Note_on_c, 4, 67, 106
1, 146400, Note_on_c, 4, 72, 114
1, 146400, Note_on_c, 9, 39, 83
1, 146400, Note_on_c, 9, 40, 118
1, 146400, Note_on_c, 9, 42, 76
1, 146400, Note_on_c, 11, 55, 45
1, 146400, Note_on_c, 12, 48, 124
1, 146400, Note_on_c, 12, 55, 119
1, 146400, Note_on_c, 12, 60, 119
1, 146400, Note_on_c, 12, 64, 114
1, 146400, Note_on_c, 12, 67, 119
1, 146400, Note_on_c, 14, 60, 119
1, 146400, Note_on_c, 14, 64, 110
1, 146400, Note_on_c, 14, 67, 114
1, 146410, Note_on_c, 3, 74, 0
1, 146418, Note_on_c, 11, 55, 0
1, 146436, Lyric_t, "A"
1, 146436, Lyric_t, "\015"
1, 146436, Note_on_c, 3, 76, 105
1, 146440, Note_on_c, 9, 39, 0
1, 146440, Note_on_c, 9, 40, 0
1, 146440, Note_on_c, 9, 42, 0
1, 146447, Note_on_c, 1, 36, 0
1, 146477, Note_on_c, 4, 72, 0
1, 146488, Note_on_c, 4, 67, 0
1, 146635, Note_on_c, 14, 60, 0
1, 146639, Note_on_c, 14, 64, 0
1, 146640, Note_on_c, 1, 36, 124
1, 146640, Note_on_c, 4, 67, 102
1, 146640, Note_on_c, 4, 72, 119
1, 146640, Note_on_c, 9, 39, 83
1, 146640, Note_on_c, 9, 42, 76
1, 146640, Note_on_c, 11, 48, 127
1, 146640, Note_on_c, 11, 55, 124
1, 146640, Note_on_c, 11, 60, 114
1, 146655, Note_on_c, 14, 67, 0
1, 146680, Note_on_c, 9, 39, 0
1, 146680, Note_on_c, 9, 42, 0
1, 146696, Note_on_c, 12, 60, 0
1, 146724, Note_on_c, 4, 72, 0
1, 146738, Note_on_c, 4, 67, 0
1, 146838, Note_on_c, 1, 36, 0
1, 146880, Note_on_c, 1, 36, 106
1, 146880, Note_on_c, 4, 67, 102
1, 146880, Note_on_c, 4, 72, 110
1, 146880, Note_on_c, 7, 62, 119
1, 146880, Note_on_c, 7, 74, 106
1, 146880, Note_on_c, 8, 50, 119
1, 146880, Note_on_c, 9, 35, 118
1, 146880, Note_on_c, 9, 42, 76
1, 146880, Note_on_c, 12, 60, 94
1, 146920, Note_on_c, 9, 35, 0
1, 146920, Note_on_c, 9, 42, 0
1, 146942, Note_on_c, 11, 55, 0
1, 146943, Note_on_c, 11, 60, 0
1, 146959, Note_on_c, 12, 67, 0
1, 146963, Note_on_c, 12, 64, 0
1, 146966, Note_on_c, 4, 72, 0
1, 146981, Note_on_c, 4, 67, 0
1, 147000, Note_on_c, 12, 60, 0
1, 147066, Note_on_c, 7, 62, 0
1, 147066, Note_on_c, 8, 50, 0
1, 147107, Note_on_c, 7, 74, 0
1, 147120, Note_on_c, 4, 67, 99
1, 147120, Note_on_c, 4, 72, 110
1, 147120, Note_on_c, 7, 64, 114
1, 147120, Note_on_c, 7, 76, 110
1, 147120, Note_on_c, 8, 52, 114
1, 147120, Note_on_c, 9, 35, 118
1, 147120, Note_on_c, 9, 42, 76
1, 147120, Note_on_c, 11, 52, 53
1, 147120, Note_on_c, 12, 60, 119
1, 147120, Note_on_c, 12, 64, 119
1, 147120, Note_on_c, 12, 67, 124
1, 147148, Note_on_c, 11, 52, 0
1, 147160, Note_on_c, 9, 35, 0
1, 147160, Note_on_c, 9, 42, 0
1, 147207, Note_on_c, 7, 76, 0
1, 147211, Note_on_c, 4, 72, 0
1, 147212, Note_on_c, 7, 64, 0
1, 147212, Note_on_c, 8, 52, 0
1, 147214, Note_on_c, 11, 48, 0
1, 147220, Note_on_c, 3, 76, 0
1, 147220, Note_on_c, 12, 48, 0
1, 147221, Note_on_c, 4, 67, 0
1, 147226, Note_on_c, 12, 55, 0
1, 147360, Note_on_c, 7, 62, 127
1, 147360, Note_on_c, 7, 74, 106
1, 147360, Note_on_c, 8, 50, 127
1, 147360, Note_on_c, 9, 39, 83
1, 147360, Note_on_c, 9, 40, 118
1, 147360, Note_on_c, 9, 42, 76
1, 147360, Note_on_c, 11, 52, 119
1, 147360, Note_on_c, 11, 55, 119
1, 147360, Note_on_c, 11, 60, 124
1, 147360, Note_on_c, 12, 48, 99
1, 147360, Note_on_c, 12, 55, 81
1, 147360, Note_on_c, 14, 60, 124
1, 147360, Note_on_c, 14, 64, 119
1, 147360, Note_on_c, 14, 67, 124
1, 147400, Note_on_c, 9, 39, 0
1, 147400, Note_on_c, 9, 40, 0
1, 147400, Note_on_c, 9, 42, 0
1, 147432, Note_on_c, 7, 62, 0
1, 147432, Note_on_c, 7, 74, 0
1, 147432, Note_on_c, 8, 50, 0
1, 147440, Note_on_c, 12, 60, 0
1, 147442, Note_on_c, 11, 55, 0
1, 147532, Note_on_c, 14, 60, 0
1, 147535, Note_on_c, 11, 60, 0
1, 147537, Note_on_c, 1, 36, 0
1, 147547, Note_on_c, 14, 64, 0
1, 147549, Note_on_c, 11, 52, 0
1, 147570, Note_on_c, 14, 67, 0
1, 147600, Note_on_c, 1, 31, 91
1, 147600, Note_on_c, 4, 67, 102
1, 147600, Note_on_c, 4, 72, 114
1, 147600, Note_on_c, 7, 60, 119
1, 147600, Note_on_c, 7, 72, 127
1, 147600, Note_on_c, 8, 48, 119
1, 147600, Note_on_c, 9, 42, 76
1, 147600, Note_on_c, 11, 55, 26
1, 147600, Note_on_c, 12, 60, 110
1, 147640, Note_on_c, 9, 42, 0
1, 147651, Note_on_c, 11, 55, 0
1, 147681, Note_on_c, 4, 72, 0
1, 147681, Note_on_c, 12, 48, 0
1, 147682, Note_on_c, 12, 55, 0
1, 147694, Note_on_c, 4, 67, 0
1, 147720, Note_on_c, 4, 74, 124
1, 147815, Note_on_c, 4, 74, 0
1, 147823, Note_on_c, 1, 31, 0
1, 147840, Note_on_c, 1, 36, 124
1, 147840, Note_on_c, 4, 67, 99
1, 147840, Note_on_c, 4, 72, 119
1, 147840, Note_on_c, 9, 35, 118
1, 147840, Note_on_c, 9, 42, 76
1, 147840, Note_on_c, 11, 48, 114
1, 147840, Note_on_c, 12, 48, 119
1, 147840, Note_on_c, 12, 55, 124
1, 147880, Note_on_c, 9, 35, 0
1, 147880, Note_on_c, 9, 42, 0
1, 147914, Note_on_c, 4, 67, 0
1, 147916, Note_on_c, 4, 72, 0
1, 148080, Note_on_c, 9, 42, 76
1, 148081, Note_on_c, 11, 48, 0
1, 148120, Note_on_c, 9, 42, 0
1, 148211, Note_on_c, 12, 55, 0
1, 148218, Note_on_c, 12, 48, 0
1, 148228, Note_on_c, 12, 60, 0
1, 148247, Note_on_c, 7, 60, 0
1, 148247, Note_on_c, 8, 48, 0
1, 148247, Note_on_c, 12, 64, 0
1, 148254, Note_on_c, 12, 67, 0
1, 148264, Note_on_c, 7, 72, 0
1, 148317, Note_on_c, 1, 36, 0
1, 148320, Note_on_c, 4, 67, 106
1, 148320, Note_on_c, 4, 72, 114
1, 148320, Note_on_c, 7, 57, 114
1, 148320, Note_on_c, 7, 69, 124
1, 148320, Note_on_c, 8, 45, 114
1, 148320, Note_on_c, 9, 39, 83
1, 148320, Note_on_c, 9, 40, 118
1, 148320, Note_on_c, 9, 42, 76
1, 148320, Note_on_c, 12, 48, 124
1, 148320, Note_on_c, 12, 55, 110
1, 148320, Note_on_c, 12, 60, 110
1, 148320, Note_on_c, 12, 64, 114
1, 148320, Note_on_c, 12, 67, 110
1, 148320, Note_on_c, 14, 60, 127
1, 148320, Note_on_c, 14, 64, 124
1, 148320, Note_on_c, 14, 67, 124
1, 148345, Lyric_t, "SAVE "
1, 148345, Note_on_c, 3, 79, 112
1, 148360, Note_on_c, 9, 39, 0
1, 148360, Note_on_c, 9, 40, 0
1, 148360, Note_on_c, 9, 42, 0
1, 148395, Note_on_c, 4, 72, 0
1, 148401, Note_on_c, 4, 67, 0
1, 148415, Note_on_c, 14, 60, 0
1, 148426, Note_on_c, 14, 64, 0
1, 148472, Note_on_c, 14, 67, 0
1, 148479, Note_on_c, 7, 69, 0
1, 148528, Note_on_c, 7, 57, 0
1, 148528, Note_on_c, 8, 45, 0
1, 148560, Note_on_c, 1, 36, 124
1, 148560, Note_on_c, 4, 67, 106
1, 148560, Note_on_c, 4, 72, 114
1, 148560, Note_on_c, 9, 39, 83
1, 148560, Note_on_c, 9, 42, 76
1, 148560, Note_on_c, 11, 52, 114
1, 148560, Note_on_c, 11, 55, 119
1, 148560, Note_on_c, 11, 60, 124
1, 148570, Note_on_c, 3, 79, 0
1, 148593, Lyric_t, "A "
1, 148593, Note_on_c, 3, 76, 110
1, 148600, Note_on_c, 9, 39, 0
1, 148600, Note_on_c, 9, 42, 0
1, 148635, Note_on_c, 12, 60, 0
1, 148645, Note_on_c, 4, 72, 0
1, 148654, Note_on_c, 4, 67, 0
1, 148739, Note_on_c, 3, 76, 0
1, 148800, Note_on_c, 4, 67, 102
1, 148800, Note_on_c, 4, 72, 119
1, 148800, Note_on_c, 9, 35, 118
1, 148800, Note_on_c, 9, 42, 76
1, 148800, Note_on_c, 12, 60, 81
1, 148836, Lyric_t, "PIECE "
1, 148836, Note_on_c, 3, 74, 109
1, 148840, Note_on_c, 9, 35, 0
1, 148840, Note_on_c, 9, 42, 0
1, 148863, Note_on_c, 11, 52, 0
1, 148885, Note_on_c, 11, 55, 0
1, 148888, Note_on_c, 4, 72, 0
1, 148900, Note_on_c, 4, 67, 0
1, 148915, Note_on_c, 12, 67, 0
1, 148919, Note_on_c, 12, 64, 0
1, 148925, Note_on_c, 11, 60, 0
1, 148942, Note_on_c, 12, 60, 0
1, 148954, Note_on_c, 1, 36, 0
1, 149040, Note_on_c, 1, 31, 114
1, 149040, Note_on_c, 4, 67, 102
1, 149040, Note_on_c, 4, 72, 119
1, 149040, Note_on_c, 9, 35, 118
1, 149040, Note_on_c, 9, 42, 76
1, 149040, Note_on_c, 11, 48, 106
1, 149040, Note_on_c, 12, 60, 110
1, 149040, Note_on_c, 12, 64, 119
1, 149040, Note_on_c, 12, 67, 119
1, 149067, Lyric_t, "OF "
1, 149067, Note_on_c, 3, 72, 111
1, 149080, Note_on_c, 9, 35, 0
1, 149080, Note_on_c, 9, 42, 0
1, 149099, Note_on_c, 3, 74, 0
1, 149101, Note_on_c, 12, 55, 0
1, 149109, Note_on_c, 12, 48, 0
1, 149138, Note_on_c, 4, 72, 0
1, 149157, Note_on_c, 4, 67, 0
1, 149159, Note_on_c, 11, 48, 0
1, 149194, Note_on_c, 3, 72, 0
1, 149242, Note_on_c, 1, 31, 0
1, 149280, Note_on_c, 1, 36, 119
1, 149280, Note_on_c, 9, 39, 83
1, 149280, Note_on_c, 9, 40, 118
1, 149280, Note_on_c, 9, 42, 76
1, 149280, Note_on_c, 11, 52, 127
1, 149280, Note_on_c, 11, 55, 127
1, 149280, Note_on_c, 11, 60, 127
1, 149280, Note_on_c, 12, 48, 119
1, 149280, Note_on_c, 12, 55, 119
1, 149280, Note_on_c, 14, 60, 119
1, 149280, Note_on_c, 14, 64, 119
1, 149280, Note_on_c, 14, 67, 119
1, 149308, Lyric_t, "GOLD "
1, 149308, Note_on_c, 3, 72, 110
1, 149320, Note_on_c, 9, 39, 0
1, 149320, Note_on_c, 9, 40, 0
1, 149320, Note_on_c, 9, 42, 0
1, 149340, Note_on_c, 12, 60, 0
1, 149387, Note_on_c, 14, 60, 0
1, 149392, Note_on_c, 14, 64, 0
1, 149429, Note_on_c, 14, 67, 0
1, 149473, Note_on_c, 1, 36, 0
1, 149501, Note_on_c, 11, 55, 0
1, 149508, Note_on_c, 11, 52, 0
1, 149520, Note_on_c, 1, 37, 127
1, 149520, Note_on_c, 4, 67, 102
1, 149520, Note_on_c, 4, 72, 114
1, 149520, Note_on_c, 9, 42, 76
1, 149520, Note_on_c, 11, 48, 114
1, 149520, Note_on_c, 12, 60, 114
1, 149531, Note_on_c, 11, 60, 0
1, 149550, Note_on_c, 3, 72, 0
1, 149551, Lyric_t, "TO "
1, 149551, Note_on_c, 3, 69, 107
1, 149560, Note_on_c, 9, 42, 0
1, 149601, Note_on_c, 4, 72, 0
1, 149614, Note_on_c, 4, 67, 0
1, 149629, Note_on_c, 11, 48, 0
1, 149640, Note_on_c, 4, 74, 124
1, 149683, Note_on_c, 12, 64, 0
1, 149725, Note_on_c, 1, 37, 0
1, 149726, Note_on_c, 12, 48, 0
1, 149735, Note_on_c, 4, 74, 0
1, 149751, Note_on_c, 12, 55, 0
1, 149760, Note_on_c, 1, 38, 119
1, 149760, Note_on_c, 4, 67, 99
1, 149760, Note_on_c, 4, 72, 119
1, 149760, Note_on_c, 9, 35, 118
1, 149760, Note_on_c, 9, 42, 76
1, 149760, Note_on_c, 11, 50, 124
1, 149760, Note_on_c, 12, 50, 127
1, 149787, Note_on_c, 12, 67, 0
1, 149792, Note_on_c, 12, 60, 0
1, 149800, Note_on_c, 9, 35, 0
1, 149800, Note_on_c, 9, 42, 0
1, 149803, Lyric_t, "ME"
1, 149803, Lyric_t, "\015"
1, 149803, Note_on_c, 3, 72, 109
1, 149813, Note_on_c, 3, 69, 0
1, 149834, Note_on_c, 4, 67, 0
1, 149836, Note_on_c, 4, 72, 0
1, 149990, Note_on_c, 11, 50, 0
1, 150000, Note_on_c, 9, 42, 76
1, 150040, Note_on_c, 9, 42, 0
1, 150121, Note_on_c, 12, 50, 0
1, 150240, Note_on_c, 4, 67, 106
1, 150240, Note_on_c, 4, 72, 114
1, 150240, Note_on_c, 9, 39, 83
1, 150240, Note_on_c, 9, 40, 118
1, 150240, Note_on_c, 9, 42, 76
1, 150240, Note_on_c, 12, 50, 106
1, 150240, Note_on_c, 12, 57, 106
1, 150240, Note_on_c, 12, 60, 124
1, 150240, Note_on_c, 12, 66, 120
1, 150240, Note_on_c, 14, 60, 124
1, 150240, Note_on_c, 14, 66, 127
1, 150240, Note_on_c, 14, 69, 114
1, 150271, Note_on_c, 1, 38, 0
1, 150280, Note_on_c, 9, 39, 0
1, 150280, Note_on_c, 9, 40, 0
1, 150280, Note_on_c, 9, 42, 0
1, 150312, Note_on_c, 14, 66, 0
1, 150317, Note_on_c, 4, 72, 0
1, 150328, Note_on_c, 4, 67, 0
1, 150334, Note_on_c, 14, 60, 0
1, 150347, Note_on_c, 14, 69, 0
1, 150480, Note_on_c, 1, 38, 124
1, 150480, Note_on_c, 4, 67, 102
1, 150480, Note_on_c, 4, 72, 119
1, 150480, Note_on_c, 9, 39, 83
1, 150480, Note_on_c, 9, 42, 76
1, 150480, Note_on_c, 11, 54, 120
1, 150480, Note_on_c, 11, 57, 119
1, 150480, Note_on_c, 11, 60, 127
1, 150520, Note_on_c, 9, 39, 0
1, 150520, Note_on_c, 9, 42, 0
1, 150524, Note_on_c, 12, 57, 0
1, 150564, Note_on_c, 4, 72, 0
1, 150571, Note_on_c, 11, 54, 0
1, 150578, Note_on_c, 4, 67, 0
1, 150585, Note_on_c, 11, 57, 0
1, 150601, Note_on_c, 11, 60, 0
1, 150664, Note_on_c, 12, 60, 0
1, 150703, Note_on_c, 3, 72, 0
1, 150720, Note_on_c, 4, 67, 102
1, 150720, Note_on_c, 4, 72, 110
1, 150720, Note_on_c, 7, 62, 119
1, 150720, Note_on_c, 7, 74, 106
1, 150720, Note_on_c, 8, 50, 119
1, 150720, Note_on_c, 9, 35, 118
1, 150720, Note_on_c, 9, 42, 76
1, 150720, Note_on_c, 12, 57, 67
1, 150720, Note_on_c, 12, 60, 31
1, 150760, Note_on_c, 9, 35, 0
1, 150760, Note_on_c, 9, 42, 0
1, 150806, Note_on_c, 4, 72, 0
1, 150821, Note_on_c, 4, 67, 0
1, 150843, Note_on_c, 12, 60, 0
1, 150859, Note_on_c, 12, 66, 0
1, 150861, Note_on_c, 12, 57, 0
1, 150906, Note_on_c, 7, 62, 0
1, 150906, Note_on_c, 8, 50, 0
1, 150947, Note_on_c, 7, 74, 0
1, 150960, Note_on_c, 4, 67, 99
1, 150960, Note_on_c, 4, 72, 110
1, 150960, Note_on_c, 7, 64, 114
1, 150960, Note_on_c, 7, 76, 110
1, 150960, Note_on_c, 8, 52, 114
1, 150960, Note_on_c, 9, 35, 118
1, 150960, Note_on_c, 9, 42, 76
1, 150960, Note_on_c, 12, 57, 106
1, 150960, Note_on_c, 12, 60, 119
1, 150960, Note_on_c, 12, 66, 120
1, 151000, Note_on_c, 9, 35, 0
1, 151000, Note_on_c, 9, 42, 0
1, 151046, Note_on_c, 12, 50, 0
1, 151047, Note_on_c, 7, 76, 0
1, 151051, Note_on_c, 4, 72, 0
1, 151052, Note_on_c, 7, 64, 0
1, 151052, Note_on_c, 8, 52, 0
1, 151061, Note_on_c, 4, 67, 0
1, 151200, Note_on_c, 7, 62, 127
1, 151200, Note_on_c, 7, 74, 106
1, 151200, Note_on_c, 8, 50, 127
1, 151200, Note_on_c, 9, 39, 83
1, 151200, Note_on_c, 9, 40, 118
1, 151200, Note_on_c, 9, 42, 76
1, 151200, Note_on_c, 11, 54, 101
1, 151200, Note_on_c, 11, 57, 124
1, 151200, Note_on_c, 11, 60, 124
1, 151200, Note_on_c, 12, 50, 91
1, 151200, Note_on_c, 14, 60, 119
1, 151200, Note_on_c, 14, 66, 127
1, 151200, Note_on_c, 14, 69, 114
1, 151240, Note_on_c, 9, 39, 0
1, 151240, Note_on_c, 9, 40, 0
1, 151240, Note_on_c, 9, 42, 0
1, 151272, Note_on_c, 7, 62, 0
1, 151272, Note_on_c, 7, 74, 0
1, 151272, Note_on_c, 8, 50, 0
1, 151293, Note_on_c, 14, 60, 0
1, 151297, Note_on_c, 12, 57, 0
1, 151303, Note_on_c, 14, 66, 0
1, 151317, Note_on_c, 14, 69, 0
1, 151378, Note_on_c, 1, 38, 0
1, 151379, Note_on_c, 12, 60, 0
1, 151381, Note_on_c, 12, 66, 0
1, 151402, Note_on_c, 11, 54, 0
1, 151438, Note_on_c, 12, 50, 0
1, 151440, Note_on_c, 1, 33, 110
1, 151440, Note_on_c, 4, 67, 102
1, 151440, Note_on_c, 4, 72, 114
1, 151440, Note_on_c, 7, 60, 119
1, 151440, Note_on_c, 7, 72, 127
1, 151440, Note_on_c, 8, 48, 119
1, 151440, Note_on_c, 9, 42, 76
1, 151440, Note_on_c, 11, 54, 87
1, 151440, Note_on_c, 12, 57, 94
1, 151440, Note_on_c, 12, 60, 91
1, 151440, Note_on_c, 12, 66, 90
1, 151480, Note_on_c, 9, 42, 0
1, 151521, Note_on_c, 4, 72, 0
1, 151534, Note_on_c, 4, 67, 0
1, 151546, Note_on_c, 11, 54, 0
1, 151560, Note_on_c, 4, 74, 124
1, 151587, Note_on_c, 11, 57, 0
1, 151587, Note_on_c, 11, 60, 0
1, 151655, Note_on_c, 4, 74, 0
1, 151665, Note_on_c, 1, 33, 0
1, 151680, Note_on_c, 1, 38, 106
1, 151680, Note_on_c, 4, 67, 99
1, 151680, Note_on_c, 4, 72, 119
1, 151680, Note_on_c, 9, 35, 118
1, 151680, Note_on_c, 9, 42, 76
1, 151680, Note_on_c, 11, 50, 114
1, 151680, Note_on_c, 12, 50, 124
1, 151720, Note_on_c, 9, 35, 0
1, 151720, Note_on_c, 9, 42, 0
1, 151754, Note_on_c, 4, 67, 0
1, 151756, Note_on_c, 4, 72, 0
1, 151920, Note_on_c, 9, 42, 76
1, 151955, Note_on_c, 11, 50, 0
1, 151960, Note_on_c, 9, 42, 0
1, 152032, Note_on_c, 12, 50, 0
1, 152045, Note_on_c, 12, 57, 0
1, 152047, Note_on_c, 12, 66, 0
1, 152063, Note_on_c, 12, 60, 0
1, 152087, Note_on_c, 7, 60, 0
1, 152087, Note_on_c, 8, 48, 0
1, 152104, Note_on_c, 7, 72, 0
1, 152160, Note_on_c, 4, 67, 106
1, 152160, Note_on_c, 4, 72, 114
1, 152160, Note_on_c, 7, 57, 114
1, 152160, Note_on_c, 7, 69, 124
1, 152160, Note_on_c, 8, 45, 114
1, 152160, Note_on_c, 9, 39, 83
1, 152160, Note_on_c, 9, 40, 118
1, 152160, Note_on_c, 9, 42, 76
1, 152160, Note_on_c, 12, 50, 119
1, 152160, Note_on_c, 12, 57, 102
1, 152160, Note_on_c, 12, 60, 119
1, 152160, Note_on_c, 12, 66, 115
1, 152160, Note_on_c, 14, 60, 110
1, 152160, Note_on_c, 14, 66, 127
1, 152160, Note_on_c, 14, 69, 114
1, 152200, Note_on_c, 9, 39, 0
1, 152200, Note_on_c, 9, 40, 0
1, 152200, Note_on_c, 9, 42, 0
1, 152235, Note_on_c, 4, 72, 0
1, 152238, Note_on_c, 1, 38, 0
1, 152241, Note_on_c, 4, 67, 0
1, 152259, Note_on_c, 14, 66, 0
1, 152267, Note_on_c, 14, 60, 0
1, 152270, Note_on_c, 14, 69, 0
1, 152319, Note_on_c, 7, 69, 0
1, 152368, Note_on_c, 7, 57, 0
1, 152368, Note_on_c, 8, 45, 0
1, 152400, Note_on_c, 1, 38, 119
1, 152400, Note_on_c, 4, 67, 106
1, 152400, Note_on_c, 4, 72, 114
1, 152400, Note_on_c, 9, 39, 83
1, 152400, Note_on_c, 9, 42, 76
1, 152400, Note_on_c, 11, 54, 120
1, 152400, Note_on_c, 11, 57, 106
1, 152400, Note_on_c, 11, 60, 114
1, 152440, Note_on_c, 9, 39, 0
1, 152440, Note_on_c, 9, 42, 0
1, 152485, Note_on_c, 4, 72, 0
1, 152494, Note_on_c, 4, 67, 0
1, 152502, Note_on_c, 11, 54, 0
1, 152537, Note_on_c, 12, 57, 0
1, 152542, Note_on_c, 11, 57, 0
1, 152558, Note_on_c, 11, 60, 0
1, 152640, Note_on_c, 4, 67, 102
1, 152640, Note_on_c, 4, 72, 119
1, 152640, Note_on_c, 9, 35, 118
1, 152640, Note_on_c, 9, 42, 76
1, 152640, Note_on_c, 12, 57, 72
1, 152680, Note_on_c, 9, 35, 0
1, 152680, Note_on_c, 9, 42, 0
1, 152728, Note_on_c, 4, 72, 0
1, 152740, Note_on_c, 4, 67, 0
1, 152755, Note_on_c, 1, 38, 0
1, 152757, Note_on_c, 12, 57, 0
1, 152814, Note_on_c, 12, 66, 0
1, 152822, Note_on_c, 12, 60, 0
1, 152880, Lyric_t, "AND IF "
1, 152880, Note_on_c, 1, 38, 110
1, 152880, Note_on_c, 3, 69, 115
1, 152880, Note_on_c, 4, 67, 102
1, 152880, Note_on_c, 4, 72, 119
1, 152880, Note_on_c, 9, 35, 118
1, 152880, Note_on_c, 9, 42, 76
1, 152880, Note_on_c, 11, 50, 106
1, 152880, Note_on_c, 12, 57, 110
1, 152880, Note_on_c, 12, 60, 110
1, 152880, Note_on_c, 12, 66, 101
1, 152920, Note_on_c, 9, 35, 0
1, 152920, Note_on_c, 9, 42, 0
1, 152978, Note_on_c, 4, 72, 0
1, 152997, Note_on_c, 4, 67, 0
1, 153017, Note_on_c, 12, 50, 0
1, 153088, Note_on_c, 1, 38, 0
1, 153113, Note_on_c, 11, 50, 0
1, 153116, Note_on_c, 3, 69, 0
1, 153120, Lyric_t, "IT'S "
1, 153120, Note_on_c, 1, 33, 106
1, 153120, Note_on_c, 3, 69, 115
1, 153120, Note_on_c, 9, 39, 83
1, 153120, Note_on_c, 9, 40, 118
1, 153120, Note_on_c, 9, 42, 76
1, 153120, Note_on_c, 11, 54, 120
1, 153120, Note_on_c, 11, 57, 114
1, 153120, Note_on_c, 11, 60, 119
1, 153120, Note_on_c, 12, 50, 114
1, 153120, Note_on_c, 14, 60, 110
1, 153120, Note_on_c, 14, 66, 127
1, 153120, Note_on_c, 14, 69, 114
1, 153160, Note_on_c, 9, 39, 0
1, 153160, Note_on_c, 9, 40, 0
1, 153160, Note_on_c, 9, 42, 0
1, 153209, Note_on_c, 12, 57, 0
1, 153216, Note_on_c, 14, 60, 0
1, 153227, Note_on_c, 14, 66, 0
1, 153227, Note_on_c, 14, 69, 0
1, 153248, Note_on_c, 1, 33, 0
1, 153282, Note_on_c, 11, 54, 0
1, 153348, Note_on_c, 11, 57, 0
1, 153356, Note_on_c, 3, 69, 0
1, 153360, Lyric_t, "THE "
1, 153360, Note_on_c, 1, 31, 110
1, 153360, Note_on_c, 3, 72, 112
1, 153360, Note_on_c, 4, 65, 102
1, 153360, Note_on_c, 4, 72, 114
1, 153360, Note_on_c, 9, 42, 76
1, 153360, Note_on_c, 11, 50, 102
1, 153360, Note_on_c, 12, 57, 106
1, 153371, Note_on_c, 11, 60, 0
1, 153400, Note_on_c, 9, 42, 0
1, 153441, Note_on_c, 4, 72, 0
1, 153444, Note_on_c, 11, 50, 0
1, 153454, Note_on_c, 4, 65, 0
1, 153480, Note_on_c, 4, 74, 124
1, 153529, Note_on_c, 12, 57, 0
1, 153549, Note_on_c, 12, 60, 0
1, 153554, Note_on_c, 1, 31, 0
1, 153555, Note_on_c, 12, 66, 0
1, 153567, Note_on_c, 12, 50, 0
1, 153575, Note_on_c, 4, 74, 0
1, 153596, Note_on_c, 3, 72, 0
1, 153600, Lyric_t, "ON"
1, 153600, Note_on_c, 1, 29, 124
1, 153600, Note_on_c, 3, 75, 115
1, 153600, Note_on_c, 4, 65, 99
1, 153600, Note_on_c, 4, 72, 119
1, 153600, Note_on_c, 7, 65, 87
1, 153600, Note_on_c, 7, 69, 91
1, 153600, Note_on_c, 7, 72, 102
1, 153600, Note_on_c, 9, 35, 118
1, 153600, Note_on_c, 9, 42, 76
1, 153600, Note_on_c, 11, 41, 127
1, 153600, Note_on_c, 12, 41, 102
1, 153600, Note_on_c, 12, 53, 110
1, 153640, Note_on_c, 9, 35, 0
1, 153640, Note_on_c, 9, 42, 0
1, 153674, Note_on_c, 4, 65, 0
1, 153676, Note_on_c, 4, 72, 0
1, 153836, Note_on_c, 3, 75, 0
1, 153840, Lyric_t, "LY "
1, 153840, Note_on_c, 3, 75, 115
1, 153840, Note_on_c, 9, 42, 76
1, 153880, Note_on_c, 9, 42, 0
1, 153966, Note_on_c, 3, 75, 0
1, 153986, Note_on_c, 12, 41, 0
1, 154012, Note_on_c, 12, 53, 0
1, 154078, Note_on_c, 11, 41, 0
1, 154080, Lyric_t, "THING "
1, 154080, Note_on_c, 3, 74, 113
1, 154080, Note_on_c, 4, 65, 106
1, 154080, Note_on_c, 4, 72, 114
1, 154080, Note_on_c, 9, 39, 83
1, 154080, Note_on_c, 9, 40, 118
1, 154080, Note_on_c, 9, 42, 76
1, 154080, Note_on_c, 11, 53, 114
1, 154080, Note_on_c, 11, 57, 119
1, 154080, Note_on_c, 11, 60, 124
1, 154080, Note_on_c, 12, 41, 114
1, 154080, Note_on_c, 12, 53, 78
1, 154080, Note_on_c, 12, 57, 106
1, 154080, Note_on_c, 12, 60, 119
1, 154080, Note_on_c, 12, 65, 119
1, 154080, Note_on_c, 14, 60, 114
1, 154080, Note_on_c, 14, 65, 114
1, 154080, Note_on_c, 14, 69, 119
1, 154116, Note_on_c, 1, 29, 0
1, 154120, Note_on_c, 9, 39, 0
1, 154120, Note_on_c, 9, 40, 0
1, 154120, Note_on_c, 9, 42, 0
1, 154157, Note_on_c, 4, 72, 0
1, 154161, Note_on_c, 14, 65, 0
1, 154165, Note_on_c, 14, 60, 0
1, 154168, Note_on_c, 4, 65, 0
1, 154178, Note_on_c, 11, 53, 0
1, 154180, Note_on_c, 11, 57, 0
1, 154194, Note_on_c, 14, 69, 0
1, 154205, Note_on_c, 11, 60, 0
1, 154286, Note_on_c, 3, 74, 0
1, 154320, Lyric_t, "YOU "
1, 154320, Note_on_c, 1, 29, 106
1, 154320, Note_on_c, 3, 72, 115
1, 154320, Note_on_c, 4, 65, 102
1, 154320, Note_on_c, 4, 72, 119
1, 154320, Note_on_c, 9, 39, 83
1, 154320, Note_on_c, 9, 42, 76
1, 154320, Note_on_c, 11, 57, 45
1, 154320, Note_on_c, 11, 60, 50
1, 154354, Note_on_c, 11, 57, 0
1, 154360, Note_on_c, 9, 39, 0
1, 154360, Note_on_c, 9, 42, 0
1, 154381, Note_on_c, 11, 60, 0
1, 154397, Note_on_c, 12, 57, 0
1, 154403, Note_on_c, 3, 72, 0
1, 154404, Note_on_c, 4, 72, 0
1, 154418, Note_on_c, 4, 65, 0
1, 154560, Lyric_t, "SAVE"
1, 154560, Lyric_t, "\015"
1, 154560, Note_on_c, 3, 72, 113
1, 154560, Note_on_c, 4, 65, 102
1, 154560, Note_on_c, 4, 72, 110
1, 154560, Note_on_c, 9, 35, 118
1, 154560, Note_on_c, 9, 42, 76
1, 154560, Note_on_c, 12, 57, 84
1, 154600, Note_on_c, 9, 35, 0
1, 154600, Note_on_c, 9, 42, 0
1, 154646, Note_on_c, 4, 72, 0
1, 154661, Note_on_c, 4, 65, 0
1, 154665, Note_on_c, 12, 60, 0
1, 154669, Note_on_c, 12, 65, 0
1, 154693, Note_on_c, 12, 57, 0
1, 154796, Note_on_c, 3, 72, 0
1, 154800, Note_on_c, 1, 36, 102
1, 154800, Note_on_c, 4, 65, 99
1, 154800, Note_on_c, 4, 72, 110
1, 154800, Note_on_c, 9, 35, 118
1, 154800, Note_on_c, 9, 42, 76
1, 154800, Note_on_c, 11, 53, 110
1, 154800, Note_on_c, 11, 57, 114
1, 154800, Note_on_c, 11, 60, 124
1, 154800, Note_on_c, 12, 57, 114
1, 154800, Note_on_c, 12, 60, 119
1, 154800, Note_on_c, 12, 65, 119
1, 154840, Note_on_c, 9, 35, 0
1, 154840, Note_on_c, 9, 42, 0
1, 154872, Note_on_c, 12, 41, 0
1, 154891, Note_on_c, 4, 72, 0
1, 154899, Note_on_c, 1, 29, 0
1, 154901, Note_on_c, 4, 65, 0
1, 154921, Note_on_c, 12, 53, 0
1, 154948, Note_on_c, 1, 36, 0
1, 155040, Note_on_c, 1, 41, 87
1, 155040, Note_on_c, 9, 39, 83
1, 155040, Note_on_c, 9, 40, 118
1, 155040, Note_on_c, 9, 42, 76
1, 155040, Note_on_c, 11, 41, 106
1, 155040, Note_on_c, 12, 41, 114
1, 155040, Note_on_c, 12, 53, 110
1, 155040, Note_on_c, 14, 60, 114
1, 155040, Note_on_c, 14, 65, 119
1, 155040, Note_on_c, 14, 69, 114
1, 155049, Note_on_c, 11, 53, 0
1, 155080, Note_on_c, 9, 39, 0
1, 155080, Note_on_c, 9, 40, 0
1, 155080, Note_on_c, 9, 42, 0
1, 155096, Lyric_t, "THEN "
1, 155096, Note_on_c, 3, 69, 111
1, 155096, Note_on_c, 12, 57, 0
1, 155108, Note_on_c, 1, 41, 0
1, 155121, Note_on_c, 14, 65, 0
1, 155126, Note_on_c, 14, 60, 0
1, 155178, Note_on_c, 14, 69, 0
1, 155196, Note_on_c, 11, 57, 0
1, 155217, Note_on_c, 12, 60, 0
1, 155269, Note_on_c, 11, 41, 0
1, 155280, Note_on_c, 1, 41, 114
1, 155280, Note_on_c, 4, 65, 102
1, 155280, Note_on_c, 4, 72, 114
1, 155280, Note_on_c, 9, 42, 76
1, 155280, Note_on_c, 11, 53, 67
1, 155280, Note_on_c, 12, 57, 94
1, 155280, Note_on_c, 12, 60, 54
1, 155316, Note_on_c, 3, 69, 0
1, 155320, Note_on_c, 9, 42, 0
1, 155331, Lyric_t, "I'LL "
1, 155331, Note_on_c, 3, 72, 115
1, 155361, Note_on_c, 4, 72, 0
1, 155374, Note_on_c, 4, 65, 0
1, 155382, Note_on_c, 12, 57, 0
1, 155400, Note_on_c, 4, 74, 124
1, 155400, Note_on_c, 12, 41, 0
1, 155402, Note_on_c, 11, 60, 0
1, 155403, Note_on_c, 11, 53, 0
1, 155407, Note_on_c, 12, 60, 0
1, 155435, Note_on_c, 12, 53, 0
1, 155477, Note_on_c, 12, 65, 0
1, 155488, Note_on_c, 3, 72, 0
1, 155495, Note_on_c, 4, 74, 0
1, 155516, Note_on_c, 7, 69, 0
1, 155520, Note_on_c, 4, 65, 99
1, 155520, Note_on_c, 4, 72, 119
1, 155520, Note_on_c, 7, 68, 82
1, 155520, Note_on_c, 9, 35, 118
1, 155520, Note_on_c, 9, 42, 76
1, 155520, Note_on_c, 11, 53, 87
1, 155520, Note_on_c, 11, 56, 109
1, 155520, Note_on_c, 11, 60, 102
1, 155520, Note_on_c, 12, 41, 114
1, 155520, Note_on_c, 12, 53, 99
1, 155520, Note_on_c, 12, 56, 97
1, 155520, Note_on_c, 12, 60, 106
1, 155520, Note_on_c, 12, 65, 91
1, 155543, Lyric_t, "BET "
1, 155543, Note_on_c, 3, 75, 115
1, 155560, Note_on_c, 9, 35, 0
1, 155560, Note_on_c, 9, 42, 0
1, 155594, Note_on_c, 4, 65, 0
1, 155594, Note_on_c, 11, 56, 0
1, 155596, Note_on_c, 4, 72, 0
1, 155626, Note_on_c, 3, 75, 0
1, 155655, Note_on_c, 11, 60, 0
1, 155690, Note_on_c, 11, 53, 0
1, 155760, Note_on_c, 9, 42, 76
1, 155775, Lyric_t, "YOU "
1, 155775, Note_on_c, 3, 75, 115
1, 155800, Note_on_c, 9, 42, 0
1, 155874, Note_on_c, 12, 60, 0
1, 155875, Note_on_c, 12, 56, 0
1, 155879, Note_on_c, 12, 41, 0
1, 155891, Note_on_c, 12, 53, 0
1, 155901, Note_on_c, 12, 65, 0
1, 155984, Note_on_c, 3, 75, 0
1, 156000, Note_on_c, 4, 65, 106
1, 156000, Note_on_c, 4, 72, 114
1, 156000, Note_on_c, 9, 39, 83
1, 156000, Note_on_c, 9, 40, 118
1, 156000, Note_on_c, 9, 42, 76
1, 156000, Note_on_c, 12, 41, 114
1, 156000, Note_on_c, 12, 53, 94
1, 156000, Note_on_c, 12, 56, 115
1, 156000, Note_on_c, 12, 60, 119
1, 156000, Note_on_c, 12, 65, 114
1, 156000, Note_on_c, 14, 60, 110
1, 156000, Note_on_c, 14, 65, 119
1, 156000, Note_on_c, 14, 68, 127
1, 156004, Note_on_c, 1, 41, 0
1, 156010, Lyric_t, "NE"
1, 156010, Note_on_c, 3, 74, 112
1, 156040, Note_on_c, 9, 39, 0
1, 156040, Note_on_c, 9, 40, 0
1, 156040, Note_on_c, 9, 42, 0
1, 156073, Note_on_c, 14, 68, 0
1, 156075, Note_on_c, 4, 72, 0
1, 156081, Note_on_c, 4, 65, 0
1, 156089, Note_on_c, 14, 60, 0
1, 156089, Note_on_c, 14, 65, 0
1, 156217, Note_on_c, 3, 74, 0
1, 156240, Note_on_c, 1, 41, 114
1, 156240, Note_on_c, 4, 65, 106
1, 156240, Note_on_c, 4, 72, 114
1, 156240, Note_on_c, 9, 39, 83
1, 156240, Note_on_c, 9, 42, 76
1, 156240, Note_on_c, 11, 53, 102
1, 156240, Note_on_c, 11, 56, 127
1, 156240, Note_on_c, 11, 60, 124
1, 156248, Lyric_t, "VER "
1, 156248, Note_on_c, 3, 72, 110
1, 156280, Note_on_c, 9, 39, 0
1, 156280, Note_on_c, 9, 42, 0
1, 156314, Note_on_c, 1, 41, 0
1, 156325, Note_on_c, 4, 72, 0
1, 156332, Note_on_c, 12, 56, 0
1, 156334, Note_on_c, 4, 65, 0
1, 156335, Note_on_c, 3, 72, 0
1, 156421, Note_on_c, 12, 60, 0
1, 156480, Note_on_c, 1, 41, 119
1, 156480, Note_on_c, 4, 65, 102
1, 156480, Note_on_c, 4, 72, 119
1, 156480, Note_on_c, 9, 35, 118
1, 156480, Note_on_c, 9, 42, 76
1, 156480, Note_on_c, 12, 56, 101
1, 156495, Lyric_t, "WAVE"
1, 156495, Lyric_t, "\015"
1, 156495, Note_on_c, 3, 72, 113
1, 156511, Note_on_c, 11, 53, 0
1, 156520, Note_on_c, 9, 35, 0
1, 156520, Note_on_c, 9, 42, 0
1, 156565, Note_on_c, 11, 56, 0
1, 156568, Note_on_c, 4, 72, 0
1, 156572, Note_on_c, 12, 65, 0
1, 156580, Note_on_c, 4, 65, 0
1, 156592, Note_on_c, 12, 56, 0
1, 156638, Note_on_c, 11, 60, 0
1, 156665, Note_on_c, 1, 41, 0
1, 156720, Note_on_c, 1, 36, 119
1, 156720, Note_on_c, 4, 65, 102
1, 156720, Note_on_c, 4, 72, 119
1, 156720, Note_on_c, 9, 35, 118
1, 156720, Note_on_c, 9, 42, 76
1, 156720, Note_on_c, 11, 53, 87
1, 156720, Note_on_c, 12, 56, 120
1, 156720, Note_on_c, 12, 60, 127
1, 156720, Note_on_c, 12, 65, 114
1, 156757, Note_on_c, 12, 41, 0
1, 156760, Note_on_c, 9, 35, 0
1, 156760, Note_on_c, 9, 42, 0
1, 156784, Note_on_c, 12, 53, 0
1, 156798, Note_on_c, 11, 53, 0
1, 156818, Note_on_c, 4, 72, 0
1, 156837, Note_on_c, 4, 65, 0
1, 156885, Note_on_c, 3, 72, 0
1, 156946, Note_on_c, 1, 36, 0
1, 156960, Note_on_c, 1, 29, 119
1, 156960, Note_on_c, 9, 39, 83
1, 156960, Note_on_c, 9, 40, 118
1, 156960, Note_on_c, 9, 42, 76
1, 156960, Note_on_c, 11, 53, 94
1, 156960, Note_on_c, 11, 56, 127
1, 156960, Note_on_c, 11, 60, 114
1, 156960, Note_on_c, 12, 41, 114
1, 156960, Note_on_c, 12, 53, 124
1, 156960, Note_on_c, 14, 60, 106
1, 156960, Note_on_c, 14, 65, 114
1, 156960, Note_on_c, 14, 68, 127
1, 157000, Note_on_c, 9, 39, 0
1, 157000, Note_on_c, 9, 40, 0
1, 157000, Note_on_c, 9, 42, 0
1, 157012, Lyric_t, "WHEN "
1, 157012, Note_on_c, 3, 69, 112
1, 157042, Note_on_c, 14, 68, 0
1, 157051, Note_on_c, 14, 65, 0
1, 157062, Note_on_c, 11, 53, 0
1, 157068, Note_on_c, 14, 60, 0
1, 157077, Note_on_c, 12, 56, 0
1, 157153, Note_on_c, 12, 60, 0
1, 157200, Note_on_c, 4, 67, 102
1, 157200, Note_on_c, 4, 72, 114
1, 157200, Note_on_c, 9, 42, 76
1, 157200, Note_on_c, 11, 53, 60
1, 157200, Note_on_c, 12, 56, 105
1, 157200, Note_on_c, 12, 60, 43
1, 157210, Note_on_c, 3, 69, 0
1, 157213, Note_on_c, 11, 56, 0
1, 157234, Lyric_t, "I "
1, 157234, Note_on_c, 3, 72, 115
1, 157240, Note_on_c, 9, 42, 0
1, 157276, Note_on_c, 12, 60, 0
1, 157281, Note_on_c, 4, 72, 0
1, 157291, Note_on_c, 11, 60, 0
1, 157294, Note_on_c, 4, 67, 0
1, 157294, Note_on_c, 12, 56, 0
1, 157309, Note_on_c, 1, 29, 0
1, 157320, Note_on_c, 4, 74, 124
1, 157326, Note_on_c, 11, 53, 0
1, 157350, Note_on_c, 12, 41, 0
1, 157382, Note_on_c, 12, 53, 0
1, 157396, Note_on_c, 12, 65, 0
1, 157411, Note_on_c, 3, 72, 0
1, 157415, Note_on_c, 4, 74, 0
1, 157431, Note_on_c, 7, 65, 0
1, 157436, Note_on_c, 7, 68, 0
1, 157436, Note_on_c, 7, 72, 0
1, 157440, Note_on_c, 1, 36, 127
1, 157440, Note_on_c, 4, 67, 99
1, 157440, Note_on_c, 4, 72, 119
1, 157440, Note_on_c, 7, 64, 94
1, 157440, Note_on_c, 7, 67, 94
1, 157440, Note_on_c, 7, 72, 99
1, 157440, Note_on_c, 9, 35, 118
1, 157440, Note_on_c, 9, 42, 76
1, 157440, Note_on_c, 11, 48, 119
1, 157440, Note_on_c, 12, 48, 110
1, 157440, Note_on_c, 12, 55, 110
1, 157469, Lyric_t, "WATCH "
1, 157469, Note_on_c, 3, 76, 115
1, 157480, Note_on_c, 9, 35, 0
1, 157480, Note_on_c, 9, 42, 0
1, 157514, Note_on_c, 4, 67, 0
1, 157516, Note_on_c, 4, 72, 0
1, 157557, Note_on_c, 3, 76, 0
1, 157676, Note_on_c, 11, 48, 0
1, 157680, Note_on_c, 9, 42, 76
1, 157701, Lyric_t, "YOU "
1, 157701, Note_on_c, 3, 76, 115
1, 157720, Note_on_c, 9, 42, 0
1, 157779, Note_on_c, 12, 55, 0
1, 157785, Note_on_c, 12, 48, 0
1, 157903, Note_on_c, 3, 76, 0
1, 157920, Note_on_c, 4, 67, 106
1, 157920, Note_on_c, 4, 72, 114
1, 157920, Note_on_c, 9, 39, 83
1, 157920, Note_on_c, 9, 40, 118
1, 157920, Note_on_c, 9, 42, 76
1, 157920, Note_on_c, 11, 52, 119
1, 157920, Note_on_c, 11, 55, 127
1, 157920, Note_on_c, 11, 60, 127
1, 157920, Note_on_c, 12, 48, 124
1, 157920, Note_on_c, 12, 55, 119
1, 157920, Note_on_c, 12, 60, 119
1, 157920, Note_on_c, 12, 64, 114
1, 157920, Note_on_c, 12, 67, 119
1, 157920, Note_on_c, 14, 60, 119
1, 157920, Note_on_c, 14, 64, 124
1, 157920, Note_on_c, 14, 67, 127
1, 157924, Note_on_c, 1, 36, 0
1, 157932, Lyric_t, "ON "
1, 157932, Note_on_c, 3, 74, 112
1, 157960, Note_on_c, 9, 39, 0
1, 157960, Note_on_c, 9, 40, 0
1, 157960, Note_on_c, 9, 42, 0
1, 157993, Note_on_c, 14, 64, 0
1, 157995, Note_on_c, 4, 72, 0
1, 158001, Note_on_c, 4, 67, 0
1, 158009, Note_on_c, 14, 60, 0
1, 158019, Note_on_c, 14, 67, 0
1, 158057, Note_on_c, 11, 52, 0
1, 158148, Note_on_c, 3, 74, 0
1, 158160, Note_on_c, 1, 36, 127
1, 158160, Note_on_c, 4, 67, 106
1, 158160, Note_on_c, 4, 72, 114
1, 158160, Note_on_c, 9, 39, 83
1, 158160, Note_on_c, 9, 42, 76
1, 158160, Note_on_c, 11, 52, 64
1, 158184, Lyric_t, "T"
1, 158184, Note_on_c, 3, 72, 115
1, 158200, Note_on_c, 9, 39, 0
1, 158200, Note_on_c, 9, 42, 0
1, 158216, Note_on_c, 12, 60, 0
1, 158233, Note_on_c, 11, 52, 0
1, 158235, Note_on_c, 11, 55, 0
1, 158245, Note_on_c, 4, 72, 0
1, 158247, Note_on_c, 11, 60, 0
1, 158254, Note_on_c, 4, 67, 0
1, 158319, Note_on_c, 1, 36, 0
1, 158400, Note_on_c, 1, 36, 124
1, 158400, Note_on_c, 4, 67, 102
1, 158400, Note_on_c, 4, 72, 119
1, 158400, Note_on_c, 9, 35, 118
1, 158400, Note_on_c, 9, 42, 76
1, 158400, Note_on_c, 12, 60, 94
1, 158428, Note_on_c, 3, 72, 0
1, 158432, Lyric_t, "V"
1, 158432, Note_on_c, 3, 72, 115
1, 158440, Note_on_c, 9, 35, 0
1, 158440, Note_on_c, 9, 42, 0
1, 158479, Note_on_c, 12, 67, 0
1, 158483, Note_on_c, 12, 64, 0
1, 158488, Note_on_c, 4, 72, 0
1, 158500, Note_on_c, 1, 36, 0
1, 158500, Note_on_c, 4, 67, 0
1, 158520, Note_on_c, 12, 60, 0
1, 158640, Note_on_c, 1, 36, 119
1, 158640, Note_on_c, 4, 67, 102
1, 158640, Note_on_c, 4, 72, 119
1, 158640, Note_on_c, 9, 35, 118
1, 158640, Note_on_c, 9, 42, 76
1, 158640, Note_on_c, 11, 52, 114
1, 158640, Note_on_c, 11, 55, 124
1, 158640, Note_on_c, 11, 60, 127
1, 158640, Note_on_c, 12, 60, 119
1, 158640, Note_on_c, 12, 64, 119
1, 158640, Note_on_c, 12, 67, 124
1, 158680, Note_on_c, 9, 35, 0
1, 158680, Note_on_c, 9, 42, 0
1, 158738, Note_on_c, 4, 72, 0
1, 158740, Note_on_c, 12, 48, 0
1, 158746, Note_on_c, 12, 55, 0
1, 158757, Note_on_c, 4, 67, 0
1, 158845, Note_on_c, 11, 52, 0
1, 158880, Note_on_c, 1, 31, 114
1, 158880, Note_on_c, 9, 39, 83
1, 158880, Note_on_c, 9, 40, 118
1, 158880, Note_on_c, 9, 42, 76
1, 158880, Note_on_c, 11, 48, 127
1, 158880, Note_on_c, 12, 48, 99
1, 158880, Note_on_c, 12, 55, 81
1, 158880, Note_on_c, 14, 60, 114
1, 158880, Note_on_c, 14, 64, 124
1, 158880, Note_on_c, 14, 67, 127
1, 158889, Note_on_c, 1, 36, 0
1, 158908, Note_on_c, 3, 72, 0
1, 158912, Lyric_t, "..."
1, 158912, Lyric_t, "\015"
1, 158912, Note_on_c, 3, 69, 115
1, 158920, Note_on_c, 9, 39, 0
1, 158920, Note_on_c, 9, 40, 0
1, 158920, Note_on_c, 9, 42, 0
1, 158960, Note_on_c, 12, 60, 0
1, 159002, Note_on_c, 14, 60, 0
1, 159011, Note_on_c, 14, 64, 0
1, 159027, Note_on_c, 14, 67, 0
1, 159047, Note_on_c, 11, 55, 0
1, 159075, Note_on_c, 1, 31, 0
1, 159091, Note_on_c, 11, 60, 0
1, 159097, Note_on_c, 11, 48, 0
1, 159120, Note_on_c, 1, 33, 119
1, 159120, Note_on_c, 4, 67, 102
1, 159120, Note_on_c, 4, 72, 114
1, 159120, Note_on_c, 9, 42, 76
1, 159120, Note_on_c, 11, 52, 110
1, 159120, Note_on_c, 12, 60, 110
1, 159158, Note_on_c, 3, 69, 0
1, 159160, Note_on_c, 9, 42, 0
1, 159201, Note_on_c, 4, 72, 0
1, 159201, Note_on_c, 12, 48, 0
1, 159202, Note_on_c, 12, 55, 0
1, 159214, Note_on_c, 4, 67, 0
1, 159224, Note_on_c, 11, 52, 0
1, 159240, Note_on_c, 4, 74, 124
1, 159268, Note_on_c, 12, 60, 0
1, 159287, Note_on_c, 12, 64, 0
1, 159294, Note_on_c, 12, 67, 0
1, 159327, Note_on_c, 1, 33, 0
1, 159335, Note_on_c, 4, 74, 0
1, 159356, Note_on_c, 7, 64, 0
1, 159356, Note_on_c, 7, 67, 0
1, 159356, Note_on_c, 7, 72, 0
1, 159360, Note_on_c, 1, 36, 127
1, 159360, Note_on_c, 4, 67, 99
1, 159360, Note_on_c, 4, 72, 119
1, 159360, Note_on_c, 7, 60, 119
1, 159360, Note_on_c, 7, 72, 114
1, 159360, Note_on_c, 8, 48, 119
1, 159360, Note_on_c, 9, 40, 118
1, 159360, Note_on_c, 9, 42, 76
1, 159360, Note_on_c, 11, 48, 127
1, 159360, Note_on_c, 11, 52, 124
1, 159360, Note_on_c, 11, 55, 127
1, 159360, Note_on_c, 11, 60, 127
1, 159360, Note_on_c, 12, 48, 119
1, 159360, Note_on_c, 12, 55, 124
1, 159360, Note_on_c, 12, 60, 124
1, 159360, Note_on_c, 12, 64, 124
1, 159360, Note_on_c, 14, 60, 124
1, 159360, Note_on_c, 14, 64, 119
1, 159360, Note_on_c, 14, 67, 124
1, 159400, Note_on_c, 9, 40, 0
1, 159400, Note_on_c, 9, 42, 0
1, 159434, Note_on_c, 4, 67, 0
1, 159436, Note_on_c, 4, 72, 0
1, 159454, Note_on_c, 14, 60, 0
1, 159463, Note_on_c, 14, 64, 0
1, 159468, Note_on_c, 14, 67, 0
1, 159568, Note_on_c, 11, 52, 0
1, 159581, Note_on_c, 7, 72, 0
1, 159586, Note_on_c, 11, 55, 0
1, 159589, Note_on_c, 11, 60, 0
1, 159593, Note_on_c, 11, 48, 0
1, 159596, Note_on_c, 7, 60, 0
1, 159596, Note_on_c, 8, 48, 0
1, 159623, Note_on_c, 1, 36, 0
1, 159731, Note_on_c, 12, 55, 0
1, 159731, Note_on_c, 12, 60, 0
1, 159731, Note_on_c, 12, 64, 0
1, 159738, Note_on_c, 12, 48, 0
1, 159840, Note_on_c, 1, 36, 127
1, 159840, Note_on_c, 7, 60, 127
1, 159840, Note_on_c, 7, 72, 124
1, 159840, Note_on_c, 8, 48, 127
1, 159840, Note_on_c, 9, 40, 118
1, 159840, Note_on_c, 9, 42, 76
1, 159840, Note_on_c, 11, 48, 127
1, 159840, Note_on_c, 11, 52, 124
1, 159840, Note_on_c, 11, 55, 127
1, 159840, Note_on_c, 11, 60, 127
1, 159840, Note_on_c, 12, 48, 119
1, 159840, Note_on_c, 12, 55, 124
1, 159840, Note_on_c, 12, 60, 124
1, 159840, Note_on_c, 12, 64, 124
1, 159880, Note_on_c, 9, 40, 0
1, 159880, Note_on_c, 9, 42, 0
1, 160048, Note_on_c, 11, 52, 0
1, 160052, Note_on_c, 7, 60, 0
1, 160052, Note_on_c, 8, 48, 0
1, 160066, Note_on_c, 11, 55, 0
1, 160069, Note_on_c, 11, 60, 0
1, 160070, Note_on_c, 7, 72, 0
1, 160073, Note_on_c, 11, 48, 0
1, 160080, Lyric_t, "SO "
1, 160080, Note_on_c, 3, 64, 115
1, 160103, Note_on_c, 1, 36, 0
1, 160157, Note_on_c, 3, 64, 0
1, 160211, Note_on_c, 12, 55, 0
1, 160211, Note_on_c, 12, 60, 0
1, 160211, Note_on_c, 12, 64, 0
1, 160218, Note_on_c, 12, 48, 0
1, 160320, Lyric_t, "DON'T "
1, 160320, Note_on_c, 3, 64, 115
1, 160547, Note_on_c, 3, 64, 0
1, 160560, Lyric_t, "GO "
1, 160560, Note_on_c, 3, 67, 115
1, 161040, Lyric_t, "HIGH"
1, 161040, Note_on_c, 3, 71, 115
1, 161040, Note_on_c, 4, 59, 106
1, 161040, Note_on_c, 4, 62, 110
1, 161040, Note_on_c, 4, 64, 114
1, 161040, Note_on_c, 4, 67, 110
1, 161041, Note_on_c, 3, 67, 0
1, 161280, Note_on_c, 1, 28, 127
1, 161280, Note_on_c, 2, 62, 97
1, 161280, Note_on_c, 2, 67, 97
1, 161280, Note_on_c, 2, 71, 97
1, 161280, Note_on_c, 6, 40, 127
1, 161280, Note_on_c, 6, 47, 124
1, 161280, Note_on_c, 9, 35, 118
1, 161280, Note_on_c, 9, 49, 91
1, 161280, Note_on_c, 11, 40, 119
1, 161280, Note_on_c, 11, 59, 110
1, 161280, Note_on_c, 11, 62, 119
1, 161280, Note_on_c, 11, 67, 119
1, 161280, Note_on_c, 12, 52, 127
1, 161280, Note_on_c, 12, 59, 119
1, 161280, Note_on_c, 12, 62, 106
1, 161280, Note_on_c, 13, 71, 72
1, 161320, Note_on_c, 9, 35, 0
1, 161320, Note_on_c, 9, 49, 0
1, 161520, Note_on_c, 9, 42, 76
1, 161520, Note_on_c, 13, 76, 75
1, 161525, Note_on_c, 13, 71, 0
1, 161560, Note_on_c, 9, 42, 0
1, 161609, Note_on_c, 11, 59, 0
1, 161624, Note_on_c, 6, 47, 0
1, 161641, Note_on_c, 6, 40, 0
1, 161680, Note_on_c, 12, 59, 0
1, 161708, Note_on_c, 11, 62, 0
1, 161750, Note_on_c, 11, 67, 0
1, 161760, Note_on_c, 6, 40, 87
1, 161760, Note_on_c, 6, 47, 124
1, 161760, Note_on_c, 9, 40, 118
1, 161760, Note_on_c, 9, 42, 76
1, 161760, Note_on_c, 11, 52, 50
1, 161760, Note_on_c, 11, 59, 94
1, 161760, Note_on_c, 11, 62, 60
1, 161760, Note_on_c, 11, 67, 33
1, 161760, Note_on_c, 12, 59, 87
1, 161760, Note_on_c, 13, 71, 81
1, 161763, Note_on_c, 1, 28, 0
1, 161782, Note_on_c, 6, 40, 0
1, 161800, Note_on_c, 9, 40, 0
1, 161800, Note_on_c, 9, 42, 0
1, 161818, Note_on_c, 11, 52, 0
1, 161824, Note_on_c, 6, 47, 0
1, 161826, Note_on_c, 11, 62, 0
1, 161842, Note_on_c, 11, 67, 0
1, 161842, Note_on_c, 12, 52, 0
1, 161848, Note_on_c, 11, 59, 0
1, 161855, Note_on_c, 12, 62, 0
1, 161857, Note_on_c, 12, 59, 0
1, 161898, Note_on_c, 11, 40, 0
1, 161925, Note_on_c, 13, 76, 0
1, 162000, Note_on_c, 1, 28, 124
1, 162000, Note_on_c, 6, 40, 127
1, 162000, Note_on_c, 6, 47, 127
1, 162000, Note_on_c, 9, 42, 76
1, 162000, Note_on_c, 11, 40, 114
1, 162000, Note_on_c, 11, 52, 114
1, 162000, Note_on_c, 11, 59, 119
1, 162000, Note_on_c, 11, 62, 119
1, 162000, Note_on_c, 11, 67, 124
1, 162000, Note_on_c, 12, 52, 127
1, 162000, Note_on_c, 12, 59, 119
1, 162000, Note_on_c, 12, 62, 124
1, 162000, Note_on_c, 13, 79, 110
1, 162040, Note_on_c, 9, 42, 0
1, 162044, Note_on_c, 13, 71, 0
1, 162240, Note_on_c, 9, 35, 118
1, 162240, Note_on_c, 9, 42, 76
1, 162240, Note_on_c, 13, 71, 87
1, 162251, Note_on_c, 6, 47, 0
1, 162256, Note_on_c, 11, 59, 0
1, 162278, Note_on_c, 6, 40, 0
1, 162280, Note_on_c, 9, 35, 0
1, 162280, Note_on_c, 9, 42, 0
1, 162288, Note_on_c, 1, 28, 0
1, 162368, Note_on_c, 12, 59, 0
1, 162387, Note_on_c, 12, 62, 0
1, 162390, Note_on_c, 13, 79, 0
1, 162454, Note_on_c, 11, 67, 0
1, 162480, Note_on_c, 1, 28, 106
1, 162480, Note_on_c, 6, 47, 114
1, 162480, Note_on_c, 9, 35, 118
1, 162480, Note_on_c, 9, 42, 76
1, 162480, Note_on_c, 11, 59, 84
1, 162480, Note_on_c, 12, 59, 119
1, 162480, Note_on_c, 12, 62, 119
1, 162480, Note_on_c, 13, 76, 91
1, 162482, Note_on_c, 11, 62, 0
1, 162496, Note_on_c, 13, 71, 0
1, 162520, Note_on_c, 9, 35, 0
1, 162520, Note_on_c, 9, 42, 0
1, 162543, Note_on_c, 6, 47, 0
1, 162545, Note_on_c, 12, 52, 0
1, 162578, Note_on_c, 11, 59, 0
1, 162705, Note_on_c, 1, 28, 0
1, 162720, Note_on_c, 1, 31, 119
1, 162720, Note_on_c, 6, 47, 127
1, 162720, Note_on_c, 6, 52, 127
1, 162720, Note_on_c, 9, 40, 118
1, 162720, Note_on_c, 9, 42, 76
1, 162720, Note_on_c, 11, 59, 114
1, 162720, Note_on_c, 11, 62, 124
1, 162720, Note_on_c, 11, 67, 127
1, 162720, Note_on_c, 12, 52, 124
1, 162720, Note_on_c, 13, 71, 81
1, 162760, Note_on_c, 9, 40, 0
1, 162760, Note_on_c, 9, 42, 0
1, 162761, Note_on_c, 11, 52, 0
1, 162769, Note_on_c, 12, 59, 0
1, 162788, Note_on_c, 11, 40, 0
1, 162806, Note_on_c, 13, 76, 0
1, 162906, Note_on_c, 1, 31, 0
1, 162923, Note_on_c, 13, 71, 0
1, 162949, Note_on_c, 6, 52, 0
1, 162958, Note_on_c, 6, 47, 0
1, 162959, Note_on_c, 3, 71, 0
1, 162960, Lyric_t, "ER"
1, 162960, Lyric_t, "\015"
1, 162960, Note_on_c, 1, 32, 127
1, 162960, Note_on_c, 3, 67, 115
1, 162960, Note_on_c, 6, 40, 119
1, 162960, Note_on_c, 9, 42, 76
1, 162960, Note_on_c, 11, 52, 119
1, 162960, Note_on_c, 12, 59, 91
1, 162960, Note_on_c, 13, 76, 72
1, 162999, Note_on_c, 11, 67, 0
1, 163000, Note_on_c, 9, 42, 0
1, 163003, Note_on_c, 11, 62, 0
1, 163004, Note_on_c, 11, 59, 0
1, 163017, Note_on_c, 12, 62, 0
1, 163030, Note_on_c, 12, 52, 0
1, 163039, Note_on_c, 6, 40, 0
1, 163076, Note_on_c, 12, 59, 0
1, 163128, Note_on_c, 11, 52, 0
1, 163176, Note_on_c, 2, 62, 0
1, 163176, Note_on_c, 2, 67, 0
1, 163176, Note_on_c, 2, 71, 0
1, 163189, Note_on_c, 1, 32, 0
1, 163196, Note_on_c, 4, 59, 0
1, 163196, Note_on_c, 4, 62, 0
1, 163196, Note_on_c, 4, 64, 0
1, 163196, Note_on_c, 4, 67, 0
1, 163200, Note_on_c, 1, 33, 106
1, 163200, Note_on_c, 2, 64, 97
1, 163200, Note_on_c, 2, 67, 97
1, 163200, Note_on_c, 2, 72, 97
1, 163200, Note_on_c, 4, 57, 110
1, 163200, Note_on_c, 4, 60, 110
1, 163200, Note_on_c, 4, 64, 119
1, 163200, Note_on_c, 6, 45, 124
1, 163200, Note_on_c, 6, 52, 127
1, 163200, Note_on_c, 9, 35, 118
1, 163200, Note_on_c, 9, 42, 76
1, 163200, Note_on_c, 11, 45, 106
1, 163200, Note_on_c, 11, 55, 119
1, 163200, Note_on_c, 11, 60, 124
1, 163200, Note_on_c, 11, 64, 110
1, 163200, Note_on_c, 12, 45, 119
1, 163200, Note_on_c, 12, 60, 124
1, 163200, Note_on_c, 12, 64, 119
1, 163200, Note_on_c, 13, 72, 75
1, 163215, Note_on_c, 13, 76, 0
1, 163240, Note_on_c, 9, 35, 0
1, 163240, Note_on_c, 9, 42, 0
1, 163433, Note_on_c, 6, 45, 0
1, 163440, Note_on_c, 9, 42, 76
1, 163440, Note_on_c, 13, 76, 78
1, 163446, Note_on_c, 6, 52, 0
1, 163448, Note_on_c, 13, 72, 0
1, 163480, Note_on_c, 9, 42, 0
1, 163510, Note_on_c, 11, 55, 0
1, 163529, Note_on_c, 12, 60, 0
1, 163598, Note_on_c, 11, 60, 0
1, 163603, Note_on_c, 12, 64, 0
1, 163608, Note_on_c, 4, 60, 0
1, 163608, Note_on_c, 11, 64, 0
1, 163618, Note_on_c, 4, 57, 0
1, 163636, Note_on_c, 4, 64, 0
1, 163663, Note_on_c, 1, 33, 0
1, 163680, Note_on_c, 6, 45, 110
1, 163680, Note_on_c, 6, 52, 110
1, 163680, Note_on_c, 9, 40, 118
1, 163680, Note_on_c, 9, 42, 76
1, 163680, Note_on_c, 11, 55, 71
1, 163680, Note_on_c, 11, 60, 50
1, 163680, Note_on_c, 12, 60, 99
1, 163680, Note_on_c, 12, 64, 72
1, 163680, Note_on_c, 13, 72, 78
1, 163705, Note_on_c, 11, 45, 0
1, 163720, Note_on_c, 9, 40, 0
1, 163720, Note_on_c, 9, 42, 0
1, 163720, Note_on_c, 12, 45, 0
1, 163720, Note_on_c, 13, 76, 0
1, 163723, Note_on_c, 6, 45, 0
1, 163723, Note_on_c, 11, 60, 0
1, 163728, Note_on_c, 6, 52, 0
1, 163734, Note_on_c, 3, 67, 0
1, 163741, Note_on_c, 12, 64, 0
1, 163757, Note_on_c, 11, 55, 0
1, 163758, Note_on_c, 12, 60, 0
1, 163920, Note_on_c, 1, 33, 114
1, 163920, Note_on_c, 6, 45, 127
1, 163920, Note_on_c, 6, 52, 119
1, 163920, Note_on_c, 9, 42, 76
1, 163920, Note_on_c, 11, 45, 124
1, 163920, Note_on_c, 11, 55, 106
1, 163920, Note_on_c, 11, 60, 119
1, 163920, Note_on_c, 11, 64, 119
1, 163920, Note_on_c, 12, 45, 127
1, 163920, Note_on_c, 12, 60, 124
1, 163920, Note_on_c, 12, 64, 127
1, 163920, Note_on_c, 13, 79, 106
1, 163924, Note_on_c, 13, 72, 0
1, 163960, Note_on_c, 9, 42, 0
1, 164158, Note_on_c, 6, 45, 0
1, 164160, Lyric_t, "FOR "
1, 164160, Note_on_c, 3, 64, 115
1, 164160, Note_on_c, 9, 35, 118
1, 164160, Note_on_c, 9, 42, 76
1, 164160, Note_on_c, 13, 72, 75
1, 164163, Note_on_c, 6, 52, 0
1, 164181, Note_on_c, 11, 55, 0
1, 164185, Note_on_c, 4, 57, 99
1, 164186, Note_on_c, 4, 60, 99
1, 164188, Note_on_c, 4, 64, 106
1, 164200, Note_on_c, 9, 35, 0
1, 164200, Note_on_c, 9, 42, 0
1, 164240, Note_on_c, 13, 79, 0
1, 164252, Note_on_c, 12, 60, 0
1, 164267, Note_on_c, 11, 60, 0
1, 164281, Note_on_c, 4, 60, 0
1, 164285, Note_on_c, 4, 64, 0
1, 164286, Note_on_c, 12, 64, 0
1, 164288, Note_on_c, 4, 57, 0
1, 164305, Note_on_c, 1, 33, 0
1, 164333, Note_on_c, 11, 64, 0
1, 164371, Note_on_c, 3, 64, 0
1, 164397, Note_on_c, 13, 72, 0
1, 164400, Lyric_t, "DE"
1, 164400, Note_on_c, 1, 33, 110
1, 164400, Note_on_c, 3, 67, 115
1, 164400, Note_on_c, 6, 45, 127
1, 164400, Note_on_c, 6, 52, 127
1, 164400, Note_on_c, 9, 35, 118
1, 164400, Note_on_c, 9, 42, 76
1, 164400, Note_on_c, 11, 55, 102
1, 164400, Note_on_c, 12, 60, 119
1, 164400, Note_on_c, 12, 64, 119
1, 164400, Note_on_c, 13, 76, 94
1, 164418, Note_on_c, 4, 64, 106
1, 164420, Note_on_c, 4, 60, 114
1, 164422, Note_on_c, 4, 57, 119
1, 164440, Note_on_c, 9, 35, 0
1, 164440, Note_on_c, 9, 42, 0
1, 164454, Note_on_c, 12, 45, 0
1, 164541, Note_on_c, 11, 55, 0
1, 164608, Note_on_c, 1, 33, 0
1, 164640, Note_on_c, 1, 33, 119
1, 164640, Note_on_c, 9, 40, 118
1, 164640, Note_on_c, 9, 42, 76
1, 164640, Note_on_c, 11, 55, 99
1, 164640, Note_on_c, 11, 60, 127
1, 164640, Note_on_c, 11, 64, 124
1, 164640, Note_on_c, 12, 45, 127
1, 164640, Note_on_c, 13, 72, 52
1, 164680, Note_on_c, 9, 40, 0
1, 164680, Note_on_c, 9, 42, 0
1, 164695, Note_on_c, 11, 45, 0
1, 164714, Note_on_c, 13, 76, 0
1, 164726, Note_on_c, 6, 45, 0
1, 164732, Note_on_c, 12, 60, 0
1, 164778, Note_on_c, 6, 52, 0
1, 164792, Note_on_c, 1, 33, 0
1, 164858, Note_on_c, 3, 67, 0
1, 164880, Lyric_t, "SI"
1, 164880, Note_on_c, 1, 33, 106
1, 164880, Note_on_c, 3, 71, 115
1, 164880, Note_on_c, 6, 45, 114
1, 164880, Note_on_c, 6, 52, 114
1, 164880, Note_on_c, 9, 42, 76
1, 164880, Note_on_c, 11, 45, 114
1, 164880, Note_on_c, 12, 60, 81
1, 164880, Note_on_c, 13, 76, 67
1, 164885, Note_on_c, 4, 57, 0
1, 164886, Note_on_c, 11, 55, 0
1, 164887, Note_on_c, 13, 72, 0
1, 164893, Note_on_c, 11, 60, 0
1, 164895, Note_on_c, 4, 64, 0
1, 164899, Note_on_c, 4, 60, 0
1, 164920, Note_on_c, 9, 42, 0
1, 164926, Note_on_c, 11, 64, 0
1, 164957, Note_on_c, 6, 52, 0
1, 164961, Note_on_c, 6, 45, 0
1, 164972, Note_on_c, 11, 45, 0
1, 164975, Note_on_c, 12, 60, 0
1, 164977, Note_on_c, 12, 64, 0
1, 164987, Note_on_c, 1, 33, 0
1, 165011, Note_on_c, 12, 45, 0
1, 165096, Note_on_c, 2, 64, 0
1, 165096, Note_on_c, 2, 67, 0
1, 165096, Note_on_c, 2, 72, 0
1, 165120, Note_on_c, 1, 41, 114
1, 165120, Note_on_c, 2, 65, 97
1, 165120, Note_on_c, 2, 69, 97
1, 165120, Note_on_c, 2, 72, 97
1, 165120, Note_on_c, 6, 41, 119
1, 165120, Note_on_c, 6, 48, 119
1, 165120, Note_on_c, 9, 35, 118
1, 165120, Note_on_c, 9, 42, 76
1, 165120, Note_on_c, 11, 57, 114
1, 165120, Note_on_c, 11, 60, 127
1, 165120, Note_on_c, 11, 65, 124
1, 165120, Note_on_c, 12, 60, 127
1, 165120, Note_on_c, 12, 65, 119
1, 165120, Note_on_c, 13, 72, 81
1, 165154, Note_on_c, 4, 62, 110
1, 165160, Note_on_c, 9, 35, 0
1, 165160, Note_on_c, 9, 42, 0
1, 165163, Note_on_c, 4, 65, 110
1, 165165, Note_on_c, 13, 76, 0
1, 165360, Note_on_c, 3, 72, 113
1, 165360, Note_on_c, 4, 65, 0
1, 165360, Note_on_c, 9, 42, 76
1, 165360, Note_on_c, 13, 72, 0
1, 165360, Note_on_c, 13, 76, 81
1, 165363, Note_on_c, 4, 62, 0
1, 165375, Note_on_c, 3, 71, 0
1, 165392, Note_on_c, 6, 48, 0
1, 165400, Note_on_c, 9, 42, 0
1, 165402, Note_on_c, 4, 67, 114
1, 165402, Note_on_c, 6, 41, 0
1, 165408, Note_on_c, 11, 57, 0
1, 165409, Note_on_c, 4, 64, 114
1, 165471, Note_on_c, 12, 60, 0
1, 165535, Note_on_c, 12, 65, 0
1, 165567, Note_on_c, 3, 72, 0
1, 165583, Note_on_c, 4, 64, 0
1, 165600, Note_on_c, 3, 71, 110
1, 165600, Note_on_c, 6, 41, 102
1, 165600, Note_on_c, 6, 48, 114
1, 165600, Note_on_c, 9, 40, 118
1, 165600, Note_on_c, 9, 42, 76
1, 165600, Note_on_c, 11, 57, 81
1, 165600, Note_on_c, 12, 60, 106
1, 165600, Note_on_c, 12, 65, 94
1, 165600, Note_on_c, 13, 72, 71
1, 165605, Note_on_c, 4, 67, 0
1, 165611, Note_on_c, 13, 76, 0
1, 165618, Note_on_c, 1, 41, 0
1, 165618, Note_on_c, 11, 60, 0
1, 165628, Note_on_c, 11, 65, 0
1, 165640, Note_on_c, 9, 40, 0
1, 165640, Note_on_c, 9, 42, 0
1, 165644, Note_on_c, 4, 62, 99
1, 165649, Note_on_c, 4, 65, 94
1, 165649, Note_on_c, 6, 48, 0
1, 165662, Note_on_c, 6, 41, 0
1, 165662, Note_on_c, 11, 57, 0
1, 165701, Note_on_c, 12, 65, 0
1, 165704, Note_on_c, 12, 60, 0
1, 165834, Note_on_c, 4, 65, 0
1, 165835, Note_on_c, 13, 72, 0
1, 165840, Note_on_c, 1, 41, 114
1, 165840, Note_on_c, 3, 72, 115
1, 165840, Note_on_c, 6, 41, 110
1, 165840, Note_on_c, 6, 48, 127
1, 165840, Note_on_c, 9, 42, 76
1, 165840, Note_on_c, 11, 41, 119
1, 165840, Note_on_c, 11, 57, 102
1, 165840, Note_on_c, 11, 60, 124
1, 165840, Note_on_c, 11, 65, 114
1, 165840, Note_on_c, 12, 53, 114
1, 165840, Note_on_c, 12, 60, 124
1, 165840, Note_on_c, 12, 65, 124
1, 165840, Note_on_c, 13, 79, 114
1, 165844, Note_on_c, 4, 62, 0
1, 165846, Note_on_c, 4, 67, 114
1, 165852, Note_on_c, 4, 64, 114
1, 165863, Note_on_c, 3, 71, 0
1, 165880, Note_on_c, 9, 42, 0
1, 165939, Note_on_c, 1, 41, 0
1, 166016, Note_on_c, 4, 64, 0
1, 166051, Note_on_c, 4, 67, 0
1, 166070, Note_on_c, 3, 72, 0
1, 166080, Note_on_c, 1, 36, 114
1, 166080, Note_on_c, 3, 71, 109
1, 166080, Note_on_c, 9, 35, 118
1, 166080, Note_on_c, 9, 42, 76
1, 166080, Note_on_c, 13, 72, 75
1, 166099, Note_on_c, 4, 62, 94
1, 166105, Note_on_c, 4, 65, 94
1, 166117, Note_on_c, 11, 57, 0
1, 166120, Note_on_c, 9, 35, 0
1, 166120, Note_on_c, 9, 42, 0
1, 166175, Note_on_c, 13, 79, 0
1, 166176, Note_on_c, 12, 60, 0
1, 166195, Note_on_c, 12, 65, 0
1, 166196, Note_on_c, 6, 41, 0
1, 166200, Note_on_c, 11, 60, 0
1, 166209, Note_on_c, 11, 65, 0
1, 166260, Note_on_c, 1, 36, 0
1, 166278, Note_on_c, 4, 65, 0
1, 166283, Note_on_c, 4, 62, 0
1, 166296, Note_on_c, 6, 48, 0
1, 166302, Note_on_c, 4, 67, 119
1, 166310, Note_on_c, 4, 64, 119
1, 166316, Note_on_c, 3, 71, 0
1, 166320, Note_on_c, 1, 36, 81
1, 166320, Note_on_c, 3, 72, 113
1, 166320, Note_on_c, 6, 41, 94
1, 166320, Note_on_c, 9, 35, 118
1, 166320, Note_on_c, 9, 42, 76
1, 166320, Note_on_c, 11, 57, 114
1, 166320, Note_on_c, 11, 60, 124
1, 166320, Note_on_c, 11, 65, 119
1, 166320, Note_on_c, 12, 60, 119
1, 166320, Note_on_c, 12, 65, 124
1, 166320, Note_on_c, 13, 76, 110
1, 166322, Note_on_c, 13, 72, 0
1, 166323, Note_on_c, 11, 41, 0
1, 166360, Note_on_c, 9, 35, 0
1, 166360, Note_on_c, 9, 42, 0
1, 166365, Note_on_c, 12, 53, 0
1, 166430, Note_on_c, 6, 41, 0
1, 166523, Note_on_c, 4, 64, 0
1, 166534, Note_on_c, 1, 36, 0
1, 166535, Note_on_c, 11, 57, 0
1, 166556, Note_on_c, 3, 72, 0
1, 166560, Note_on_c, 1, 41, 106
1, 166560, Note_on_c, 3, 71, 110
1, 166560, Note_on_c, 6, 41, 102
1, 166560, Note_on_c, 6, 48, 127
1, 166560, Note_on_c, 9, 40, 118
1, 166560, Note_on_c, 9, 42, 76
1, 166560, Note_on_c, 11, 41, 124
1, 166560, Note_on_c, 12, 53, 119
1, 166560, Note_on_c, 13, 72, 72
1, 166565, Note_on_c, 4, 62, 99
1, 166575, Note_on_c, 4, 65, 102
1, 166594, Note_on_c, 4, 67, 0
1, 166600, Note_on_c, 9, 40, 0
1, 166600, Note_on_c, 9, 42, 0
1, 166659, Note_on_c, 13, 76, 0
1, 166661, Note_on_c, 11, 60, 0
1, 166673, Note_on_c, 12, 60, 0
1, 166790, Note_on_c, 6, 41, 0
1, 166800, Note_on_c, 1, 36, 124
1, 166800, Note_on_c, 9, 42, 76
1, 166800, Note_on_c, 11, 57, 110
1, 166800, Note_on_c, 12, 60, 99
1, 166800, Note_on_c, 13, 76, 75
1, 166804, Note_on_c, 1, 41, 0
1, 166808, Note_on_c, 12, 53, 0
1, 166813, Note_on_c, 13, 72, 0
1, 166836, Note_on_c, 4, 62, 0
1, 166840, Note_on_c, 9, 42, 0
1, 166841, Note_on_c, 4, 65, 0
1, 166847, Note_on_c, 6, 48, 0
1, 166917, Note_on_c, 12, 65, 0
1, 166919, Note_on_c, 12, 60, 0
1, 166927, Note_on_c, 11, 65, 0
1, 166967, Note_on_c, 11, 57, 0
1, 167001, Note_on_c, 11, 41, 0
1, 167016, Note_on_c, 1, 36, 0
1, 167016, Note_on_c, 2, 65, 0
1, 167016, Note_on_c, 2, 69, 0
1, 167016, Note_on_c, 2, 72, 0
1, 167036, Note_on_c, 3, 71, 0
1, 167040, Lyric_t, "RE"
1, 167040, Lyric_t, "\015"
1, 167040, Note_on_c, 1, 36, 127
1, 167040, Note_on_c, 2, 64, 97
1, 167040, Note_on_c, 2, 67, 97
1, 167040, Note_on_c, 2, 72, 97
1, 167040, Note_on_c, 3, 67, 115
1, 167040, Note_on_c, 6, 48, 124
1, 167040, Note_on_c, 6, 55, 119
1, 167040, Note_on_c, 9, 35, 118
1, 167040, Note_on_c, 9, 42, 76
1, 167040, Note_on_c, 11, 48, 124
1, 167040, Note_on_c, 11, 55, 102
1, 167040, Note_on_c, 11, 60, 124
1, 167040, Note_on_c, 11, 64, 99
1, 167040, Note_on_c, 12, 48, 124
1, 167040, Note_on_c, 12, 60, 110
1, 167040, Note_on_c, 12, 64, 119
1, 167077, Note_on_c, 4, 64, 114
1, 167080, Note_on_c, 9, 35, 0
1, 167080, Note_on_c, 9, 42, 0
1, 167085, Note_on_c, 4, 60, 124
1, 167091, Note_on_c, 13, 76, 0
1, 167275, Note_on_c, 6, 48, 0
1, 167278, Note_on_c, 6, 55, 0
1, 167280, Note_on_c, 9, 42, 76
1, 167280, Note_on_c, 13, 76, 106
1, 167320, Note_on_c, 9, 42, 0
1, 167353, Note_on_c, 12, 60, 0
1, 167354, Note_on_c, 11, 55, 0
1, 167413, Note_on_c, 12, 64, 0
1, 167444, Note_on_c, 4, 60, 0
1, 167455, Note_on_c, 4, 64, 0
1, 167467, Note_on_c, 11, 60, 0
1, 167473, Note_on_c, 12, 48, 0
1, 167474, Note_on_c, 13, 76, 0
1, 167480, Note_on_c, 11, 64, 0
1, 167512, Note_on_c, 1, 36, 0
1, 167520, Note_on_c, 6, 48, 102
1, 167520, Note_on_c, 6, 55, 99
1, 167520, Note_on_c, 9, 40, 118
1, 167520, Note_on_c, 9, 42, 76
1, 167520, Note_on_c, 11, 55, 75
1, 167520, Note_on_c, 11, 60, 67
1, 167520, Note_on_c, 11, 64, 41
1, 167520, Note_on_c, 12, 60, 114
1, 167520, Note_on_c, 12, 64, 87
1, 167520, Note_on_c, 13, 72, 84
1, 167560, Note_on_c, 6, 48, 0
1, 167560, Note_on_c, 9, 40, 0
1, 167560, Note_on_c, 9, 42, 0
1, 167566, Note_on_c, 6, 55, 0
1, 167584, Note_on_c, 11, 64, 0
1, 167593, Note_on_c, 11, 60, 0
1, 167595, Note_on_c, 12, 64, 0
1, 167616, Note_on_c, 3, 67, 0
1, 167621, Note_on_c, 12, 60, 0
1, 167622, Note_on_c, 11, 55, 0
1, 167713, Note_on_c, 13, 72, 0
1, 167760, Note_on_c, 1, 36, 127
1, 167760, Note_on_c, 6, 48, 124
1, 167760, Note_on_c, 6, 55, 119
1, 167760, Note_on_c, 9, 42, 76
1, 167760, Note_on_c, 11, 55, 114
1, 167760, Note_on_c, 11, 60, 124
1, 167760, Note_on_c, 11, 64, 114
1, 167760, Note_on_c, 12, 48, 124
1, 167760, Note_on_c, 12, 60, 124
1, 167760, Note_on_c, 12, 64, 124
1, 167760, Note_on_c, 13, 76, 110
1, 167800, Note_on_c, 9, 42, 0
1, 167872, Note_on_c, 11, 48, 0
1, 167957, Note_on_c, 1, 36, 0
1, 167999, Note_on_c, 13, 76, 0
1, 168000, Lyric_t, "PUT "
1, 168000, Note_on_c, 1, 31, 114
1, 168000, Note_on_c, 3, 74, 112
1, 168000, Note_on_c, 9, 35, 118
1, 168000, Note_on_c, 9, 42, 76
1, 168000, Note_on_c, 13, 74, 84
1, 168040, Note_on_c, 9, 35, 0
1, 168040, Note_on_c, 9, 42, 0
1, 168080, Note_on_c, 12, 60, 0
1, 168124, Note_on_c, 12, 64, 0
1, 168125, Note_on_c, 6, 48, 0
1, 168140, Note_on_c, 6, 55, 0
1, 168147, Note_on_c, 1, 31, 0
1, 168161, Note_on_c, 3, 74, 0
1, 168173, Note_on_c, 11, 55, 0
1, 168227, Note_on_c, 13, 74, 0
1, 168240, Lyric_t, "IT "
1, 168240, Note_on_c, 1, 33, 124
1, 168240, Note_on_c, 3, 76, 111
1, 168240, Note_on_c, 6, 48, 114
1, 168240, Note_on_c, 6, 55, 119
1, 168240, Note_on_c, 9, 35, 118
1, 168240, Note_on_c, 9, 42, 76
1, 168240, Note_on_c, 11, 48, 127
1, 168240, Note_on_c, 12, 60, 124
1, 168240, Note_on_c, 12, 64, 106
1, 168240, Note_on_c, 13, 76, 119
1, 168273, Note_on_c, 11, 60, 0
1, 168280, Note_on_c, 9, 35, 0
1, 168280, Note_on_c, 9, 42, 0
1, 168284, Note_on_c, 11, 64, 0
1, 168306, Note_on_c, 12, 48, 0
1, 168412, Note_on_c, 3, 76, 0
1, 168418, Note_on_c, 1, 33, 0
1, 168462, Note_on_c, 13, 76, 0
1, 168480, Lyric_t, "IN "
1, 168480, Note_on_c, 1, 36, 124
1, 168480, Note_on_c, 3, 74, 115
1, 168480, Note_on_c, 9, 40, 118
1, 168480, Note_on_c, 9, 42, 76
1, 168480, Note_on_c, 9, 57, 76
1, 168480, Note_on_c, 11, 55, 110
1, 168480, Note_on_c, 11, 64, 102
1, 168480, Note_on_c, 12, 48, 127
1, 168480, Note_on_c, 13, 74, 102
1, 168520, Note_on_c, 9, 40, 0
1, 168520, Note_on_c, 9, 42, 0
1, 168520, Note_on_c, 9, 57, 0
1, 168694, Note_on_c, 1, 36, 0
1, 168712, Note_on_c, 13, 74, 0
1, 168720, Lyric_t, "YOUR "
1, 168720, Note_on_c, 1, 35, 114
1, 168720, Note_on_c, 3, 72, 115
1, 168720, Note_on_c, 9, 42, 76
1, 168720, Note_on_c, 13, 72, 94
1, 168723, Note_on_c, 6, 55, 0
1, 168745, Note_on_c, 12, 64, 0
1, 168749, Note_on_c, 3, 74, 0
1, 168760, Note_on_c, 9, 42, 0
1, 168764, Note_on_c, 6, 48, 0
1, 168782, Note_on_c, 12, 60, 0
1, 168809, Note_on_c, 12, 48, 0
1, 168811, Note_on_c, 11, 55, 0
1, 168835, Note_on_c, 3, 72, 0
1, 168851, Note_on_c, 11, 64, 0
1, 168853, Note_on_c, 13, 72, 0
1, 168929, Note_on_c, 11, 48, 0
1, 168935, Note_on_c, 1, 35, 0
1, 168936, Note_on_c, 2, 64, 0
1, 168936, Note_on_c, 2, 67, 0
1, 168936, Note_on_c, 2, 72, 0
1, 168960, Lyric_t, "HEAD"
1, 168960, Lyric_t, "\015"
1, 168960, Note_on_c, 1, 33, 127
1, 168960, Note_on_c, 2, 69, 119
1, 168960, Note_on_c, 2, 72, 106
1, 168960, Note_on_c, 2, 76, 106
1, 168960, Note_on_c, 3, 72, 115
1, 168960, Note_on_c, 4, 57, 114
1, 168960, Note_on_c, 4, 64, 78
1, 168960, Note_on_c, 4, 69, 102
1, 168960, Note_on_c, 4, 72, 102
1, 168960, Note_on_c, 6, 45, 119
1, 168960, Note_on_c, 6, 52, 127
1, 168960, Note_on_c, 9, 35, 118
1, 168960, Note_on_c, 9, 49, 76
1, 168960, Note_on_c, 11, 45, 127
1, 168960, Note_on_c, 11, 60, 114
1, 168960, Note_on_c, 11, 64, 119
1, 168960, Note_on_c, 11, 69, 119
1, 168960, Note_on_c, 12, 45, 119
1, 168960, Note_on_c, 12, 57, 106
1, 168960, Note_on_c, 12, 60, 119
1, 168960, Note_on_c, 12, 64, 119
1, 168960, Note_on_c, 13, 72, 124
1, 169000, Note_on_c, 9, 35, 0
1, 169000, Note_on_c, 9, 49, 0
1, 169196, Note_on_c, 13, 72, 0
1, 169200, Note_on_c, 9, 42, 76
1, 169200, Note_on_c, 13, 72, 106
1, 169223, Note_on_c, 12, 57, 0
1, 169240, Note_on_c, 9, 42, 0
1, 169336, Note_on_c, 11, 60, 0
1, 169387, Note_on_c, 12, 60, 0
1, 169395, Note_on_c, 12, 64, 0
1, 169398, Note_on_c, 3, 72, 0
1, 169422, Note_on_c, 1, 33, 0
1, 169425, Note_on_c, 12, 45, 0
1, 169436, Note_on_c, 6, 45, 0
1, 169436, Note_on_c, 6, 52, 0
1, 169436, Note_on_c, 13, 72, 0
1, 169440, Lyric_t, "BA"
1, 169440, Note_on_c, 3, 69, 113
1, 169440, Note_on_c, 6, 45, 124
1, 169440, Note_on_c, 9, 40, 118
1, 169440, Note_on_c, 9, 42, 76
1, 169440, Note_on_c, 11, 60, 102
1, 169440, Note_on_c, 12, 57, 106
1, 169440, Note_on_c, 12, 60, 102
1, 169440, Note_on_c, 12, 64, 65
1, 169440, Note_on_c, 13, 72, 91
1, 169480, Note_on_c, 9, 40, 0
1, 169480, Note_on_c, 9, 42, 0
1, 169513, Note_on_c, 11, 64, 0
1, 169528, Note_on_c, 11, 45, 0
1, 169624, Note_on_c, 3, 69, 0
1, 169676, Note_on_c, 13, 72, 0
1, 169680, Lyric_t, "BY "
1, 169680, Note_on_c, 1, 33, 127
1, 169680, Note_on_c, 3, 72, 115
1, 169680, Note_on_c, 9, 42, 76
1, 169680, Note_on_c, 11, 45, 114
1, 169680, Note_on_c, 11, 64, 94
1, 169680, Note_on_c, 12, 45, 124
1, 169680, Note_on_c, 13, 72, 114
1, 169720, Note_on_c, 9, 42, 0
1, 169725, Note_on_c, 11, 69, 0
1, 169770, Note_on_c, 11, 60, 0
1, 169785, Note_on_c, 3, 72, 0
1, 169795, Note_on_c, 11, 64, 0
1, 169821, Note_on_c, 12, 57, 0
1, 169835, Note_on_c, 12, 60, 0
1, 169836, Note_on_c, 11, 45, 0
1, 169859, Note_on_c, 6, 45, 0
1, 169868, Note_on_c, 12, 64, 0
1, 169876, Note_on_c, 12, 45, 0
1, 169878, Note_on_c, 1, 33, 0
1, 169894, Note_on_c, 4, 57, 0
1, 169904, Note_on_c, 2, 69, 0
1, 169920, Lyric_t, "HOL"
1, 169920, Note_on_c, 1, 31, 119
1, 169920, Note_on_c, 2, 67, 119
1, 169920, Note_on_c, 3, 74, 115
1, 169920, Note_on_c, 4, 55, 106
1, 169920, Note_on_c, 6, 43, 127
1, 169920, Note_on_c, 9, 35, 118
1, 169920, Note_on_c, 9, 42, 76
1, 169920, Note_on_c, 11, 43, 127
1, 169920, Note_on_c, 11, 60, 119
1, 169920, Note_on_c, 11, 64, 119
1, 169920, Note_on_c, 11, 69, 124
1, 169920, Note_on_c, 12, 43, 127
1, 169920, Note_on_c, 12, 57, 106
1, 169920, Note_on_c, 12, 60, 119
1, 169920, Note_on_c, 12, 64, 119
1, 169960, Note_on_c, 9, 35, 0
1, 169960, Note_on_c, 9, 42, 0
1, 170120, Note_on_c, 3, 74, 0
1, 170156, Note_on_c, 13, 72, 0
1, 170160, Lyric_t, "LY"
1, 170160, Note_on_c, 3, 76, 112
1, 170160, Note_on_c, 9, 35, 118
1, 170160, Note_on_c, 9, 42, 76
1, 170160, Note_on_c, 13, 72, 114
1, 170183, Note_on_c, 12, 57, 0
1, 170200, Note_on_c, 9, 35, 0
1, 170200, Note_on_c, 9, 42, 0
1, 170271, Note_on_c, 11, 60, 0
1, 170333, Note_on_c, 3, 76, 0
1, 170347, Note_on_c, 12, 60, 0
1, 170355, Note_on_c, 12, 64, 0
1, 170396, Note_on_c, 6, 43, 0
1, 170400, Lyric_t, "WOOD "
1, 170400, Note_on_c, 3, 74, 113
1, 170400, Note_on_c, 6, 43, 127
1, 170400, Note_on_c, 9, 40, 118
1, 170400, Note_on_c, 9, 42, 76
1, 170400, Note_on_c, 11, 60, 106
1, 170400, Note_on_c, 12, 57, 106
1, 170400, Note_on_c, 12, 60, 102
1, 170400, Note_on_c, 12, 64, 65
1, 170426, Note_on_c, 1, 31, 0
1, 170430, Note_on_c, 12, 43, 0
1, 170440, Note_on_c, 9, 40, 0
1, 170440, Note_on_c, 9, 42, 0
1, 170611, Note_on_c, 11, 43, 0
1, 170619, Note_on_c, 3, 74, 0
1, 170636, Note_on_c, 13, 72, 0
1, 170640, Lyric_t, "IS "
1, 170640, Note_on_c, 1, 31, 110
1, 170640, Note_on_c, 3, 72, 115
1, 170640, Note_on_c, 9, 42, 76
1, 170640, Note_on_c, 11, 43, 87
1, 170640, Note_on_c, 12, 43, 119
1, 170640, Note_on_c, 13, 72, 106
1, 170672, Note_on_c, 11, 60, 0
1, 170680, Note_on_c, 9, 42, 0
1, 170693, Note_on_c, 11, 64, 0
1, 170719, Note_on_c, 11, 69, 0
1, 170740, Note_on_c, 3, 72, 0
1, 170781, Note_on_c, 12, 57, 0
1, 170795, Note_on_c, 12, 60, 0
1, 170796, Note_on_c, 11, 43, 0
1, 170822, Note_on_c, 12, 43, 0
1, 170828, Note_on_c, 12, 64, 0
1, 170855, Note_on_c, 2, 67, 0
1, 170861, Note_on_c, 1, 31, 0
1, 170876, Note_on_c, 6, 43, 0
1, 170876, Note_on_c, 13, 72, 0
1, 170880, Lyric_t, "DEAD"
1, 170880, Lyric_t, "\015"
1, 170880, Note_on_c, 1, 30, 109
1, 170880, Note_on_c, 2, 66, 120
1, 170880, Note_on_c, 3, 74, 115
1, 170880, Note_on_c, 4, 54, 109
1, 170880, Note_on_c, 6, 42, 127
1, 170880, Note_on_c, 9, 35, 118
1, 170880, Note_on_c, 9, 42, 76
1, 170880, Note_on_c, 11, 42, 127
1, 170880, Note_on_c, 11, 60, 114
1, 170880, Note_on_c, 11, 64, 119
1, 170880, Note_on_c, 11, 69, 119
1, 170880, Note_on_c, 12, 42, 127
1, 170880, Note_on_c, 12, 60, 102
1, 170880, Note_on_c, 12, 64, 114
1, 170880, Note_on_c, 12, 69, 114
1, 170880, Note_on_c, 13, 72, 114
1, 170891, Note_on_c, 4, 55, 0
1, 170920, Note_on_c, 9, 35, 0
1, 170920, Note_on_c, 9, 42, 0
1, 171116, Note_on_c, 13, 72, 0
1, 171120, Note_on_c, 9, 42, 76
1, 171120, Note_on_c, 13, 72, 91
1, 171160, Note_on_c, 9, 42, 0
1, 171205, Note_on_c, 12, 60, 0
1, 171221, Note_on_c, 3, 74, 0
1, 171256, Note_on_c, 11, 60, 0
1, 171294, Note_on_c, 12, 64, 0
1, 171356, Note_on_c, 6, 42, 0
1, 171356, Note_on_c, 13, 72, 0
1, 171360, Lyric_t, "YOU "
1, 171360, Note_on_c, 3, 69, 107
1, 171360, Note_on_c, 6, 42, 127
1, 171360, Note_on_c, 9, 40, 118
1, 171360, Note_on_c, 9, 42, 76
1, 171360, Note_on_c, 11, 60, 102
1, 171360, Note_on_c, 12, 60, 106
1, 171360, Note_on_c, 13, 72, 99
1, 171400, Note_on_c, 9, 40, 0
1, 171400, Note_on_c, 9, 42, 0
1, 171433, Note_on_c, 11, 64, 0
1, 171451, Note_on_c, 1, 30, 0
1, 171471, Note_on_c, 12, 69, 0
1, 171523, Note_on_c, 3, 69, 0
1, 171596, Note_on_c, 13, 72, 0
1, 171600, Lyric_t, "CAN "
1, 171600, Note_on_c, 1, 30, 120
1, 171600, Note_on_c, 3, 72, 115
1, 171600, Note_on_c, 9, 42, 76
1, 171600, Note_on_c, 11, 64, 94
1, 171600, Note_on_c, 12, 64, 99
1, 171600, Note_on_c, 13, 72, 110
1, 171640, Note_on_c, 9, 42, 0
1, 171645, Note_on_c, 11, 69, 0
1, 171672, Note_on_c, 12, 42, 0
1, 171690, Note_on_c, 11, 60, 0
1, 171702, Note_on_c, 12, 64, 0
1, 171715, Note_on_c, 11, 64, 0
1, 171747, Note_on_c, 11, 42, 0
1, 171749, Note_on_c, 12, 60, 0
1, 171752, Note_on_c, 2, 76, 0
1, 171763, Note_on_c, 4, 64, 0
1, 171796, Note_on_c, 1, 30, 0
1, 171797, Note_on_c, 4, 72, 0
1, 171799, Note_on_c, 4, 69, 0
1, 171807, Note_on_c, 4, 54, 0
1, 171823, Note_on_c, 3, 72, 0
1, 171827, Note_on_c, 2, 66, 0
1, 171836, Note_on_c, 6, 42, 0
1, 171840, Lyric_t, "FIND "
1, 171840, Note_on_c, 1, 29, 109
1, 171840, Note_on_c, 2, 65, 110
1, 171840, Note_on_c, 2, 68, 101
1, 171840, Note_on_c, 3, 74, 110
1, 171840, Note_on_c, 4, 53, 106
1, 171840, Note_on_c, 4, 65, 87
1, 171840, Note_on_c, 4, 68, 109
1, 171840, Note_on_c, 4, 72, 99
1, 171840, Note_on_c, 6, 41, 124
1, 171840, Note_on_c, 9, 35, 118
1, 171840, Note_on_c, 9, 42, 76
1, 171840, Note_on_c, 11, 41, 127
1, 171840, Note_on_c, 11, 60, 119
1, 171840, Note_on_c, 11, 65, 119
1, 171840, Note_on_c, 11, 68, 124
1, 171840, Note_on_c, 12, 41, 127
1, 171840, Note_on_c, 12, 56, 110
1, 171840, Note_on_c, 12, 60, 91
1, 171840, Note_on_c, 12, 65, 127
1, 171880, Note_on_c, 9, 35, 0
1, 171880, Note_on_c, 9, 42, 0
1, 172035, Note_on_c, 3, 74, 0
1, 172076, Note_on_c, 13, 72, 0
1, 172080, Lyric_t, "IT "
1, 172080, Note_on_c, 3, 76, 113
1, 172080, Note_on_c, 9, 35, 118
1, 172080, Note_on_c, 9, 42, 76
1, 172080, Note_on_c, 13, 72, 119
1, 172120, Note_on_c, 9, 35, 0
1, 172120, Note_on_c, 9, 42, 0
1, 172191, Note_on_c, 11, 60, 0
1, 172204, Note_on_c, 12, 60, 0
1, 172237, Note_on_c, 12, 65, 0
1, 172252, Note_on_c, 12, 56, 0
1, 172316, Note_on_c, 6, 41, 0
1, 172316, Note_on_c, 13, 72, 0
1, 172320, Lyric_t, "IN "
1, 172320, Note_on_c, 3, 74, 112
1, 172320, Note_on_c, 6, 41, 124
1, 172320, Note_on_c, 9, 40, 118
1, 172320, Note_on_c, 9, 42, 76
1, 172320, Note_on_c, 11, 60, 106
1, 172320, Note_on_c, 12, 56, 94
1, 172320, Note_on_c, 12, 60, 94
1, 172320, Note_on_c, 12, 65, 99
1, 172320, Note_on_c, 13, 72, 114
1, 172331, Note_on_c, 3, 76, 0
1, 172360, Note_on_c, 9, 40, 0
1, 172360, Note_on_c, 9, 42, 0
1, 172392, Note_on_c, 12, 41, 0
1, 172411, Note_on_c, 1, 29, 0
1, 172526, Note_on_c, 3, 74, 0
1, 172533, Note_on_c, 12, 60, 0
1, 172542, Note_on_c, 12, 56, 0
1, 172552, Note_on_c, 12, 65, 0
1, 172556, Note_on_c, 13, 72, 0
1, 172560, Lyric_t, "YOUR"
1, 172560, Note_on_c, 1, 29, 120
1, 172560, Note_on_c, 3, 72, 115
1, 172560, Note_on_c, 9, 42, 76
1, 172560, Note_on_c, 12, 41, 127
1, 172560, Note_on_c, 13, 72, 110
1, 172592, Note_on_c, 11, 60, 0
1, 172600, Note_on_c, 9, 42, 0
1, 172613, Note_on_c, 11, 65, 0
1, 172639, Note_on_c, 11, 68, 0
1, 172678, Note_on_c, 11, 41, 0
1, 172682, Note_on_c, 12, 41, 0
1, 172692, Note_on_c, 3, 72, 0
1, 172712, Note_on_c, 4, 68, 0
1, 172728, Note_on_c, 4, 65, 0
1, 172732, Note_on_c, 4, 72, 0
1, 172749, Note_on_c, 2, 72, 0
1, 172756, Note_on_c, 1, 29, 0
1, 172761, Note_on_c, 2, 65, 0
1, 172768, Note_on_c, 4, 53, 0
1, 172796, Note_on_c, 2, 68, 0
1, 172796, Note_on_c, 6, 41, 0
1, 172796, Note_on_c, 13, 72, 0
1, 172800, Lyric_t, "SEL"
1, 172800, Note_on_c, 1, 36, 119
1, 172800, Note_on_c, 2, 64, 114
1, 172800, Note_on_c, 2, 72, 124
1, 172800, Note_on_c, 3, 72, 115
1, 172800, Note_on_c, 4, 60, 106
1, 172800, Note_on_c, 4, 64, 114
1, 172800, Note_on_c, 4, 67, 106
1, 172800, Note_on_c, 9, 35, 118
1, 172800, Note_on_c, 9, 42, 76
1, 172800, Note_on_c, 11, 48, 119
1, 172800, Note_on_c, 11, 55, 106
1, 172800, Note_on_c, 11, 60, 110
1, 172800, Note_on_c, 11, 64, 99
1, 172800, Note_on_c, 12, 48, 127
1, 172800, Note_on_c, 12, 60, 124
1, 172800, Note_on_c, 12, 64, 119
1, 172800, Note_on_c, 12, 67, 124
1, 172840, Note_on_c, 9, 35, 0
1, 172840, Note_on_c, 9, 42, 0
1, 173020, Note_on_c, 3, 72, 0
1, 173040, Note_on_c, 3, 67, 112
1, 173040, Note_on_c, 9, 42, 76
1, 173080, Note_on_c, 9, 42, 0
1, 173103, Note_on_c, 12, 60, 0
1, 173106, Note_on_c, 11, 55, 0
1, 173136, Note_on_c, 12, 64, 0
1, 173148, Note_on_c, 12, 67, 0
1, 173178, Note_on_c, 4, 60, 0
1, 173180, Note_on_c, 11, 60, 0
1, 173208, Note_on_c, 11, 64, 0
1, 173217, Note_on_c, 4, 64, 0
1, 173223, Note_on_c, 4, 67, 0
1, 173225, Note_on_c, 1, 36, 0
1, 173273, Note_on_c, 3, 67, 0
1, 173280, Lyric_t, "F"
1, 173280, Lyric_t, "\015"
1, 173280, Note_on_c, 1, 36, 114
1, 173280, Note_on_c, 3, 69, 112
1, 173280, Note_on_c, 6, 69, 113
1, 173280, Note_on_c, 6, 72, 115
1, 173280, Note_on_c, 6, 77, 113
1, 173280, Note_on_c, 9, 40, 118
1, 173280, Note_on_c, 9, 42, 76
1, 173280, Note_on_c, 11, 55, 81
1, 173280, Note_on_c, 11, 60, 60
1, 173280, Note_on_c, 11, 64, 41
1, 173280, Note_on_c, 12, 60, 94
1, 173280, Note_on_c, 12, 64, 94
1, 173280, Note_on_c, 12, 67, 94
1, 173320, Note_on_c, 9, 40, 0
1, 173320, Note_on_c, 9, 42, 0
1, 173322, Note_on_c, 11, 64, 0
1, 173348, Note_on_c, 11, 60, 0
1, 173372, Note_on_c, 12, 67, 0
1, 173375, Note_on_c, 12, 64, 0
1, 173381, Note_on_c, 12, 60, 0
1, 173396, Note_on_c, 6, 69, 0
1, 173396, Note_on_c, 6, 72, 0
1, 173396, Note_on_c, 6, 77, 0
1, 173400, Note_on_c, 6, 69, 98
1, 173400, Note_on_c, 6, 72, 98
1, 173400, Note_on_c, 6, 77, 98
1, 173400, Note_on_c, 11, 55, 0
1, 173468, Note_on_c, 1, 36, 0
1, 173516, Note_on_c, 6, 69, 0
1, 173516, Note_on_c, 6, 72, 0
1, 173516, Note_on_c, 6, 77, 0
1, 173520, Note_on_c, 1, 36, 114
1, 173520, Note_on_c, 6, 69, 113
1, 173520, Note_on_c, 6, 72, 117
1, 173520, Note_on_c, 6, 77, 113
1, 173520, Note_on_c, 9, 42, 76
1, 173520, Note_on_c, 11, 55, 110
1, 173520, Note_on_c, 11, 60, 127
1, 173520, Note_on_c, 11, 64, 119
1, 173520, Note_on_c, 12, 60, 119
1, 173520, Note_on_c, 12, 64, 119
1, 173520, Note_on_c, 12, 67, 124
1, 173533, Note_on_c, 3, 69, 0
1, 173560, Note_on_c, 9, 42, 0
1, 173636, Note_on_c, 6, 69, 0
1, 173636, Note_on_c, 6, 72, 0
1, 173636, Note_on_c, 6, 77, 0
1, 173640, Note_on_c, 6, 69, 98
1, 173640, Note_on_c, 6, 72, 98
1, 173640, Note_on_c, 6, 77, 98
1, 173680, Note_on_c, 1, 36, 0
1, 173756, Note_on_c, 6, 69, 0
1, 173756, Note_on_c, 6, 72, 0
1, 173756, Note_on_c, 6, 77, 0
1, 173760, Note_on_c, 1, 36, 78
1, 173760, Note_on_c, 6, 69, 124
1, 173760, Note_on_c, 6, 72, 124
1, 173760, Note_on_c, 6, 77, 124
1, 173760, Note_on_c, 9, 35, 118
1, 173760, Note_on_c, 9, 42, 76
1, 173800, Note_on_c, 9, 35, 0
1, 173800, Note_on_c, 9, 42, 0
1, 173818, Note_on_c, 12, 64, 0
1, 173821, Note_on_c, 11, 48, 0
1, 173822, Note_on_c, 12, 67, 0
1, 173825, Note_on_c, 12, 60, 0
1, 173943, Note_on_c, 11, 55, 0
1, 173953, Note_on_c, 6, 77, 0
1, 173955, Note_on_c, 6, 69, 0
1, 173962, Note_on_c, 6, 72, 0
1, 173964, Note_on_c, 1, 36, 0
1, 173971, Note_on_c, 11, 60, 0
1, 174000, Note_on_c, 1, 43, 75
1, 174000, Note_on_c, 6, 67, 127
1, 174000, Note_on_c, 6, 72, 119
1, 174000, Note_on_c, 6, 76, 119
1, 174000, Note_on_c, 9, 35, 118
1, 174000, Note_on_c, 9, 42, 76
1, 174000, Note_on_c, 11, 48, 110
1, 174000, Note_on_c, 12, 60, 110
1, 174000, Note_on_c, 12, 64, 124
1, 174000, Note_on_c, 12, 67, 127
1, 174007, Note_on_c, 11, 64, 0
1, 174019, Note_on_c, 12, 48, 0
1, 174040, Note_on_c, 9, 35, 0
1, 174040, Note_on_c, 9, 42, 0
1, 174116, Note_on_c, 6, 67, 0
1, 174116, Note_on_c, 6, 72, 0
1, 174116, Note_on_c, 6, 76, 0
1, 174198, Note_on_c, 1, 43, 0
1, 174240, Note_on_c, 1, 45, 106
1, 174240, Note_on_c, 9, 40, 118
1, 174240, Note_on_c, 9, 42, 76
1, 174240, Note_on_c, 11, 60, 119
1, 174240, Note_on_c, 11, 64, 124
1, 174240, Note_on_c, 11, 67, 119
1, 174240, Note_on_c, 12, 48, 124
1, 174273, Note_on_c, 11, 48, 0
1, 174280, Note_on_c, 9, 40, 0
1, 174280, Note_on_c, 9, 42, 0
1, 174329, Note_on_c, 12, 60, 0
1, 174431, Note_on_c, 12, 64, 0
1, 174447, Note_on_c, 11, 60, 0
1, 174455, Note_on_c, 11, 64, 0
1, 174458, Note_on_c, 11, 67, 0
1, 174475, Note_on_c, 1, 45, 0
1, 174480, Note_on_c, 1, 43, 119
1, 174480, Note_on_c, 6, 67, 127
1, 174480, Note_on_c, 6, 72, 119
1, 174480, Note_on_c, 6, 76, 119
1, 174480, Note_on_c, 9, 42, 76
1, 174480, Note_on_c, 11, 48, 124
1, 174480, Note_on_c, 12, 60, 87
1, 174480, Note_on_c, 12, 64, 52
1, 174520, Note_on_c, 9, 42, 0
1, 174579, Note_on_c, 12, 60, 0
1, 174591, Note_on_c, 12, 64, 0
1, 174596, Note_on_c, 6, 67, 0
1, 174596, Note_on_c, 6, 72, 0
1, 174596, Note_on_c, 6, 76, 0
1, 174596, Note_on_c, 12, 67, 0
1, 174601, Note_on_c, 12, 48, 0
1, 174631, Note_on_c, 11, 48, 0
1, 174634, Note_on_c, 1, 43, 0
1, 174720, Note_on_c, 1, 48, 110
1, 174720, Note_on_c, 9, 35, 118
1, 174720, Note_on_c, 9, 42, 76
1, 174720, Note_on_c, 11, 48, 119
1, 174720, Note_on_c, 11, 55, 106
1, 174720, Note_on_c, 11, 60, 110
1, 174720, Note_on_c, 11, 64, 99
1, 174720, Note_on_c, 12, 48, 127
1, 174720, Note_on_c, 12, 60, 124
1, 174720, Note_on_c, 12, 64, 119
1, 174720, Note_on_c, 12, 67, 124
1, 174760, Note_on_c, 9, 35, 0
1, 174760, Note_on_c, 9, 42, 0
1, 174840, Note_on_c, 6, 69, 98
1, 174840, Note_on_c, 6, 72, 98
1, 174840, Note_on_c, 6, 77, 98
1, 174956, Note_on_c, 1, 48, 0
1, 174956, Note_on_c, 6, 69, 0
1, 174956, Note_on_c, 6, 72, 0
1, 174956, Note_on_c, 6, 77, 0
1, 174960, Note_on_c, 1, 48, 94
1, 174960, Note_on_c, 6, 69, 113
1, 174960, Note_on_c, 6, 72, 115
1, 174960, Note_on_c, 6, 77, 113
1, 174960, Note_on_c, 9, 42, 76
1, 175000, Note_on_c, 9, 42, 0
1, 175023, Note_on_c, 12, 60, 0
1, 175026, Note_on_c, 11, 55, 0
1, 175056, Note_on_c, 12, 64, 0
1, 175068, Note_on_c, 12, 67, 0
1, 175076, Note_on_c, 6, 69, 0
1, 175076, Note_on_c, 6, 72, 0
1, 175076, Note_on_c, 6, 77, 0
1, 175080, Note_on_c, 6, 69, 98
1, 175080, Note_on_c, 6, 72, 98
1, 175080, Note_on_c, 6, 77, 98
1, 175100, Note_on_c, 11, 60, 0
1, 175128, Note_on_c, 11, 64, 0
1, 175196, Note_on_c, 1, 48, 0
1, 175196, Note_on_c, 6, 69, 0
1, 175196, Note_on_c, 6, 72, 0
1, 175196, Note_on_c, 6, 77, 0
1, 175200, Note_on_c, 1, 48, 110
1, 175200, Note_on_c, 6, 69, 113
1, 175200, Note_on_c, 6, 72, 115
1, 175200, Note_on_c, 6, 77, 113
1, 175200, Note_on_c, 9, 40, 118
1, 175200, Note_on_c, 9, 42, 76
1, 175200, Note_on_c, 11, 55, 81
1, 175200, Note_on_c, 11, 60, 60
1, 175200, Note_on_c, 11, 64, 41
1, 175200, Note_on_c, 12, 60, 94
1, 175200, Note_on_c, 12, 64, 94
1, 175200, Note_on_c, 12, 67, 94
1, 175240, Note_on_c, 9, 40, 0
1, 175240, Note_on_c, 9, 42, 0
1, 175242, Note_on_c, 11, 64, 0
1, 175268, Note_on_c, 11, 60, 0
1, 175292, Note_on_c, 12, 67, 0
1, 175295, Note_on_c, 12, 64, 0
1, 175301, Note_on_c, 12, 60, 0
1, 175316, Note_on_c, 6, 69, 0
1, 175316, Note_on_c, 6, 72, 0
1, 175316, Note_on_c, 6, 77, 0
1, 175320, Note_on_c, 6, 69, 98
1, 175320, Note_on_c, 6, 72, 98
1, 175320, Note_on_c, 6, 77, 98
1, 175320, Note_on_c, 11, 55, 0
1, 175436, Note_on_c, 1, 48, 0
1, 175436, Note_on_c, 6, 69, 0
1, 175436, Note_on_c, 6, 72, 0
1, 175436, Note_on_c, 6, 77, 0
1, 175440, Lyric_t, "SO "
1, 175440, Note_on_c, 1, 45, 106
1, 175440, Note_on_c, 3, 64, 115
1, 175440, Note_on_c, 6, 69, 113
1, 175440, Note_on_c, 6, 72, 117
1, 175440, Note_on_c, 6, 77, 113
1, 175440, Note_on_c, 9, 42, 76
1, 175440, Note_on_c, 11, 55, 110
1, 175440, Note_on_c, 11, 60, 127
1, 175440, Note_on_c, 11, 64, 119
1, 175440, Note_on_c, 12, 60, 119
1, 175440, Note_on_c, 12, 64, 119
1, 175440, Note_on_c, 12, 67, 124
1, 175480, Note_on_c, 9, 42, 0
1, 175517, Note_on_c, 3, 64, 0
1, 175556, Note_on_c, 6, 69, 0
1, 175556, Note_on_c, 6, 72, 0
1, 175556, Note_on_c, 6, 77, 0
1, 175560, Note_on_c, 6, 69, 98
1, 175560, Note_on_c, 6, 72, 98
1, 175560, Note_on_c, 6, 77, 98
1, 175676, Note_on_c, 1, 45, 0
1, 175676, Note_on_c, 6, 69, 0
1, 175676, Note_on_c, 6, 72, 0
1, 175676, Note_on_c, 6, 77, 0
1, 175680, Lyric_t, "DON'T "
1, 175680, Note_on_c, 1, 43, 114
1, 175680, Note_on_c, 3, 64, 115
1, 175680, Note_on_c, 6, 69, 124
1, 175680, Note_on_c, 6, 72, 124
1, 175680, Note_on_c, 6, 77, 124
1, 175680, Note_on_c, 9, 35, 118
1, 175680, Note_on_c, 9, 42, 76
1, 175720, Note_on_c, 9, 35, 0
1, 175720, Note_on_c, 9, 42, 0
1, 175738, Note_on_c, 12, 64, 0
1, 175741, Note_on_c, 11, 48, 0
1, 175742, Note_on_c, 12, 67, 0
1, 175745, Note_on_c, 12, 60, 0
1, 175863, Note_on_c, 11, 55, 0
1, 175873, Note_on_c, 6, 77, 0
1, 175875, Note_on_c, 6, 69, 0
1, 175882, Note_on_c, 6, 72, 0
1, 175891, Note_on_c, 11, 60, 0
1, 175907, Note_on_c, 3, 64, 0
1, 175916, Note_on_c, 1, 43, 0
1, 175920, Lyric_t, "FLY "
1, 175920, Note_on_c, 1, 40, 114
1, 175920, Note_on_c, 3, 67, 115
1, 175920, Note_on_c, 6, 67, 127
1, 175920, Note_on_c, 6, 72, 119
1, 175920, Note_on_c, 6, 76, 119
1, 175920, Note_on_c, 9, 35, 118
1, 175920, Note_on_c, 9, 40, 76
1, 175920, Note_on_c, 9, 42, 76
1, 175920, Note_on_c, 11, 48, 110
1, 175920, Note_on_c, 12, 60, 110
1, 175920, Note_on_c, 12, 64, 124
1, 175920, Note_on_c, 12, 67, 127
1, 175927, Note_on_c, 11, 64, 0
1, 175939, Note_on_c, 12, 48, 0
1, 175960, Note_on_c, 9, 35, 0
1, 175960, Note_on_c, 9, 40, 0
1, 175960, Note_on_c, 9, 42, 0
1, 176036, Note_on_c, 6, 67, 0
1, 176036, Note_on_c, 6, 72, 0
1, 176036, Note_on_c, 6, 76, 0
1, 176040, Note_on_c, 9, 40, 76
1, 176080, Note_on_c, 9, 40, 0
1, 176156, Note_on_c, 1, 40, 0
1, 176160, Note_on_c, 1, 38, 106
1, 176160, Note_on_c, 9, 40, 118
1, 176160, Note_on_c, 9, 42, 76
1, 176160, Note_on_c, 11, 60, 119
1, 176160, Note_on_c, 11, 64, 124
1, 176160, Note_on_c, 11, 67, 119
1, 176160, Note_on_c, 12, 48, 124
1, 176193, Note_on_c, 11, 48, 0
1, 176200, Note_on_c, 9, 40, 0
1, 176200, Note_on_c, 9, 42, 0
1, 176249, Note_on_c, 12, 60, 0
1, 176351, Note_on_c, 12, 64, 0
1, 176367, Note_on_c, 11, 60, 0
1, 176375, Note_on_c, 11, 64, 0
1, 176378, Note_on_c, 11, 67, 0
1, 176396, Note_on_c, 1, 38, 0
1, 176400, Lyric_t, "HIGH"
1, 176400, Note_on_c, 1, 36, 124
1, 176400, Note_on_c, 3, 71, 115
1, 176400, Note_on_c, 4, 59, 106
1, 176400, Note_on_c, 4, 62, 110
1, 176400, Note_on_c, 4, 64, 114
1, 176400, Note_on_c, 4, 67, 110
1, 176400, Note_on_c, 9, 42, 76
1, 176400, Note_on_c, 9, 45, 118
1, 176400, Note_on_c, 11, 48, 124
1, 176400, Note_on_c, 12, 60, 87
1, 176400, Note_on_c, 12, 64, 52
1, 176401, Note_on_c, 3, 67, 0
1, 176440, Note_on_c, 9, 42, 0
1, 176440, Note_on_c, 9, 45, 0
1, 176499, Note_on_c, 12, 60, 0
1, 176511, Note_on_c, 12, 64, 0
1, 176516, Note_on_c, 12, 67, 0
1, 176521, Note_on_c, 12, 48, 0
1, 176551, Note_on_c, 11, 48, 0
1, 176574, Note_on_c, 2, 72, 0
1, 176584, Note_on_c, 2, 64, 0
1, 176636, Note_on_c, 1, 36, 0
1, 176640, Note_on_c, 1, 28, 127
1, 176640, Note_on_c, 2, 62, 97
1, 176640, Note_on_c, 2, 67, 97
1, 176640, Note_on_c, 2, 71, 97
1, 176640, Note_on_c, 6, 40, 127
1, 176640, Note_on_c, 6, 47, 124
1, 176640, Note_on_c, 9, 35, 118
1, 176640, Note_on_c, 9, 49, 91
1, 176640, Note_on_c, 11, 40, 119
1, 176640, Note_on_c, 11, 59, 110
1, 176640, Note_on_c, 11, 62, 119
1, 176640, Note_on_c, 11, 67, 119
1, 176640, Note_on_c, 12, 52, 127
1, 176640, Note_on_c, 12, 59, 119
1, 176640, Note_on_c, 12, 62, 106
1, 176640, Note_on_c, 13, 71, 72
1, 176680, Note_on_c, 9, 35, 0
1, 176680, Note_on_c, 9, 49, 0
1, 176880, Note_on_c, 9, 42, 76
1, 176880, Note_on_c, 13, 76, 75
1, 176885, Note_on_c, 13, 71, 0
1, 176920, Note_on_c, 9, 42, 0
1, 176969, Note_on_c, 11, 59, 0
1, 176984, Note_on_c, 6, 47, 0
1, 177001, Note_on_c, 6, 40, 0
1, 177040, Note_on_c, 12, 59, 0
1, 177068, Note_on_c, 11, 62, 0
1, 177110, Note_on_c, 11, 67, 0
1, 177120, Note_on_c, 6, 40, 87
1, 177120, Note_on_c, 6, 47, 124
1, 177120, Note_on_c, 9, 40, 118
1, 177120, Note_on_c, 9, 42, 76
1, 177120, Note_on_c, 11, 52, 50
1, 177120, Note_on_c, 11, 59, 94
1, 177120, Note_on_c, 11, 62, 60
1, 177120, Note_on_c, 11, 67, 33
1, 177120, Note_on_c, 12, 59, 87
1, 177120, Note_on_c, 13, 71, 81
1, 177123, Note_on_c, 1, 28, 0
1, 177142, Note_on_c, 6, 40, 0
1, 177160, Note_on_c, 9, 40, 0
1, 177160, Note_on_c, 9, 42, 0
1, 177178, Note_on_c, 11, 52, 0
1, 177184, Note_on_c, 6, 47, 0
1, 177186, Note_on_c, 11, 62, 0
1, 177202, Note_on_c, 11, 67, 0
1, 177202, Note_on_c, 12, 52, 0
1, 177208, Note_on_c, 11, 59, 0
1, 177215, Note_on_c, 12, 62, 0
1, 177217, Note_on_c, 12, 59, 0
1, 177258, Note_on_c, 11, 40, 0
1, 177285, Note_on_c, 13, 76, 0
1, 177360, Note_on_c, 1, 28, 124
1, 177360, Note_on_c, 6, 40, 127
1, 177360, Note_on_c, 6, 47, 127
1, 177360, Note_on_c, 9, 42, 76
1, 177360, Note_on_c, 11, 40, 114
1, 177360, Note_on_c, 11, 52, 114
1, 177360, Note_on_c, 11, 59, 119
1, 177360, Note_on_c, 11, 62, 119
1, 177360, Note_on_c, 11, 67, 124
1, 177360, Note_on_c, 12, 52, 127
1, 177360, Note_on_c, 12, 59, 119
1, 177360, Note_on_c, 12, 62, 124
1, 177360, Note_on_c, 13, 79, 110
1, 177400, Note_on_c, 9, 42, 0
1, 177404, Note_on_c, 13, 71, 0
1, 177600, Note_on_c, 9, 35, 118
1, 177600, Note_on_c, 9, 42, 76
1, 177600, Note_on_c, 13, 71, 87
1, 177611, Note_on_c, 6, 47, 0
1, 177616, Note_on_c, 11, 59, 0
1, 177638, Note_on_c, 6, 40, 0
1, 177640, Note_on_c, 9, 35, 0
1, 177640, Note_on_c, 9, 42, 0
1, 177648, Note_on_c, 1, 28, 0
1, 177728, Note_on_c, 12, 59, 0
1, 177747, Note_on_c, 12, 62, 0
1, 177750, Note_on_c, 13, 79, 0
1, 177814, Note_on_c, 11, 67, 0
1, 177840, Note_on_c, 1, 28, 106
1, 177840, Note_on_c, 6, 47, 114
1, 177840, Note_on_c, 9, 35, 118
1, 177840, Note_on_c, 9, 42, 76
1, 177840, Note_on_c, 11, 59, 84
1, 177840, Note_on_c, 12, 59, 119
1, 177840, Note_on_c, 12, 62, 119
1, 177840, Note_on_c, 13, 76, 91
1, 177842, Note_on_c, 11, 62, 0
1, 177856, Note_on_c, 13, 71, 0
1, 177880, Note_on_c, 9, 35, 0
1, 177880, Note_on_c, 9, 42, 0
1, 177903, Note_on_c, 6, 47, 0
1, 177905, Note_on_c, 12, 52, 0
1, 177938, Note_on_c, 11, 59, 0
1, 178065, Note_on_c, 1, 28, 0
1, 178080, Note_on_c, 1, 31, 119
1, 178080, Note_on_c, 6, 47, 127
1, 178080, Note_on_c, 6, 52, 127
1, 178080, Note_on_c, 9, 40, 118
1, 178080, Note_on_c, 9, 42, 76
1, 178080, Note_on_c, 11, 59, 114
1, 178080, Note_on_c, 11, 62, 124
1, 178080, Note_on_c, 11, 67, 127
1, 178080, Note_on_c, 12, 52, 124
1, 178080, Note_on_c, 13, 71, 81
1, 178120, Note_on_c, 9, 40, 0
1, 178120, Note_on_c, 9, 42, 0
1, 178121, Note_on_c, 11, 52, 0
1, 178129, Note_on_c, 12, 59, 0
1, 178148, Note_on_c, 11, 40, 0
1, 178166, Note_on_c, 13, 76, 0
1, 178266, Note_on_c, 1, 31, 0
1, 178283, Note_on_c, 13, 71, 0
1, 178309, Note_on_c, 6, 52, 0
1, 178318, Note_on_c, 6, 47, 0
1, 178319, Note_on_c, 3, 71, 0
1, 178320, Lyric_t, "ER"
1, 178320, Lyric_t, "\015"
1, 178320, Note_on_c, 1, 32, 127
1, 178320, Note_on_c, 3, 67, 115
1, 178320, Note_on_c, 6, 40, 119
1, 178320, Note_on_c, 9, 42, 76
1, 178320, Note_on_c, 11, 52, 119
1, 178320, Note_on_c, 12, 59, 91
1, 178320, Note_on_c, 13, 76, 72
1, 178359, Note_on_c, 11, 67, 0
1, 178360, Note_on_c, 9, 42, 0
1, 178363, Note_on_c, 11, 62, 0
1, 178364, Note_on_c, 11, 59, 0
1, 178377, Note_on_c, 12, 62, 0
1, 178390, Note_on_c, 12, 52, 0
1, 178399, Note_on_c, 6, 40, 0
1, 178436, Note_on_c, 12, 59, 0
1, 178488, Note_on_c, 11, 52, 0
1, 178536, Note_on_c, 2, 62, 0
1, 178536, Note_on_c, 2, 67, 0
1, 178536, Note_on_c, 2, 71, 0
1, 178549, Note_on_c, 1, 32, 0
1, 178556, Note_on_c, 4, 59, 0
1, 178556, Note_on_c, 4, 62, 0
1, 178556, Note_on_c, 4, 64, 0
1, 178556, Note_on_c, 4, 67, 0
1, 178560, Note_on_c, 1, 33, 106
1, 178560, Note_on_c, 2, 64, 97
1, 178560, Note_on_c, 2, 67, 97
1, 178560, Note_on_c, 2, 72, 97
1, 178560, Note_on_c, 4, 57, 110
1, 178560, Note_on_c, 4, 60, 110
1, 178560, Note_on_c, 4, 64, 119
1, 178560, Note_on_c, 6, 45, 124
1, 178560, Note_on_c, 6, 52, 127
1, 178560, Note_on_c, 9, 35, 118
1, 178560, Note_on_c, 9, 42, 76
1, 178560, Note_on_c, 11, 45, 106
1, 178560, Note_on_c, 11, 55, 119
1, 178560, Note_on_c, 11, 60, 124
1, 178560, Note_on_c, 11, 64, 110
1, 178560, Note_on_c, 12, 45, 119
1, 178560, Note_on_c, 12, 60, 124
1, 178560, Note_on_c, 12, 64, 119
1, 178560, Note_on_c, 13, 72, 75
1, 178575, Note_on_c, 13, 76, 0
1, 178600, Note_on_c, 9, 35, 0
1, 178600, Note_on_c, 9, 42, 0
1, 178793, Note_on_c, 6, 45, 0
1, 178800, Note_on_c, 9, 42, 76
1, 178800, Note_on_c, 13, 76, 78
1, 178806, Note_on_c, 6, 52, 0
1, 178808, Note_on_c, 13, 72, 0
1, 178840, Note_on_c, 9, 42, 0
1, 178870, Note_on_c, 11, 55, 0
1, 178889, Note_on_c, 12, 60, 0
1, 178958, Note_on_c, 11, 60, 0
1, 178963, Note_on_c, 12, 64, 0
1, 178968, Note_on_c, 4, 60, 0
1, 178968, Note_on_c, 11, 64, 0
1, 178978, Note_on_c, 4, 57, 0
1, 178996, Note_on_c, 4, 64, 0
1, 179023, Note_on_c, 1, 33, 0
1, 179040, Note_on_c, 6, 45, 110
1, 179040, Note_on_c, 6, 52, 110
1, 179040, Note_on_c, 9, 40, 118
1, 179040, Note_on_c, 9, 42, 76
1, 179040, Note_on_c, 11, 55, 71
1, 179040, Note_on_c, 11, 60, 50
1, 179040, Note_on_c, 12, 60, 99
1, 179040, Note_on_c, 12, 64, 72
1, 179040, Note_on_c, 13, 72, 78
1, 179065, Note_on_c, 11, 45, 0
1, 179080, Note_on_c, 9, 40, 0
1, 179080, Note_on_c, 9, 42, 0
1, 179080, Note_on_c, 12, 45, 0
1, 179080, Note_on_c, 13, 76, 0
1, 179083, Note_on_c, 6, 45, 0
1, 179083, Note_on_c, 11, 60, 0
1, 179088, Note_on_c, 6, 52, 0
1, 179094, Note_on_c, 3, 67, 0
1, 179101, Note_on_c, 12, 64, 0
1, 179117, Note_on_c, 11, 55, 0
1, 179118, Note_on_c, 12, 60, 0
1, 179280, Note_on_c, 1, 33, 114
1, 179280, Note_on_c, 6, 45, 127
1, 179280, Note_on_c, 6, 52, 119
1, 179280, Note_on_c, 9, 42, 76
1, 179280, Note_on_c, 11, 45, 124
1, 179280, Note_on_c, 11, 55, 106
1, 179280, Note_on_c, 11, 60, 119
1, 179280, Note_on_c, 11, 64, 119
1, 179280, Note_on_c, 12, 45, 127
1, 179280, Note_on_c, 12, 60, 124
1, 179280, Note_on_c, 12, 64, 127
1, 179280, Note_on_c, 13, 79, 106
1, 179284, Note_on_c, 13, 72, 0
1, 179320, Note_on_c, 9, 42, 0
1, 179518, Note_on_c, 6, 45, 0
1, 179520, Lyric_t, "FOR "
1, 179520, Note_on_c, 3, 64, 115
1, 179520, Note_on_c, 9, 35, 118
1, 179520, Note_on_c, 9, 42, 76
1, 179520, Note_on_c, 13, 72, 75
1, 179523, Note_on_c, 6, 52, 0
1, 179541, Note_on_c, 11, 55, 0
1, 179545, Note_on_c, 4, 57, 99
1, 179546, Note_on_c, 4, 60, 99
1, 179548, Note_on_c, 4, 64, 106
1, 179560, Note_on_c, 9, 35, 0
1, 179560, Note_on_c, 9, 42, 0
1, 179600, Note_on_c, 13, 79, 0
1, 179612, Note_on_c, 12, 60, 0
1, 179627, Note_on_c, 11, 60, 0
1, 179641, Note_on_c, 4, 60, 0
1, 179645, Note_on_c, 4, 64, 0
1, 179646, Note_on_c, 12, 64, 0
1, 179648, Note_on_c, 4, 57, 0
1, 179665, Note_on_c, 1, 33, 0
1, 179693, Note_on_c, 11, 64, 0
1, 179731, Note_on_c, 3, 64, 0
1, 179757, Note_on_c, 13, 72, 0
1, 179760, Lyric_t, "YOUR "
1, 179760, Note_on_c, 1, 33, 110
1, 179760, Note_on_c, 3, 67, 115
1, 179760, Note_on_c, 6, 45, 127
1, 179760, Note_on_c, 6, 52, 127
1, 179760, Note_on_c, 9, 35, 118
1, 179760, Note_on_c, 9, 42, 76
1, 179760, Note_on_c, 11, 55, 102
1, 179760, Note_on_c, 12, 60, 119
1, 179760, Note_on_c, 12, 64, 119
1, 179760, Note_on_c, 13, 76, 94
1, 179778, Note_on_c, 4, 64, 106
1, 179780, Note_on_c, 4, 60, 114
1, 179782, Note_on_c, 4, 57, 119
1, 179800, Note_on_c, 9, 35, 0
1, 179800, Note_on_c, 9, 42, 0
1, 179814, Note_on_c, 12, 45, 0
1, 179901, Note_on_c, 11, 55, 0
1, 179968, Note_on_c, 1, 33, 0
1, 180000, Note_on_c, 1, 33, 119
1, 180000, Note_on_c, 9, 40, 118
1, 180000, Note_on_c, 9, 42, 76
1, 180000, Note_on_c, 11, 55, 99
1, 180000, Note_on_c, 11, 60, 127
1, 180000, Note_on_c, 11, 64, 124
1, 180000, Note_on_c, 12, 45, 127
1, 180000, Note_on_c, 13, 72, 52
1, 180040, Note_on_c, 9, 40, 0
1, 180040, Note_on_c, 9, 42, 0
1, 180055, Note_on_c, 11, 45, 0
1, 180074, Note_on_c, 13, 76, 0
1, 180086, Note_on_c, 6, 45, 0
1, 180092, Note_on_c, 12, 60, 0
1, 180138, Note_on_c, 6, 52, 0
1, 180152, Note_on_c, 1, 33, 0
1, 180218, Note_on_c, 3, 67, 0
1, 180240, Lyric_t, "FI"
1, 180240, Note_on_c, 1, 33, 106
1, 180240, Note_on_c, 3, 71, 115
1, 180240, Note_on_c, 6, 45, 114
1, 180240, Note_on_c, 6, 52, 114
1, 180240, Note_on_c, 9, 42, 76
1, 180240, Note_on_c, 11, 45, 114
1, 180240, Note_on_c, 12, 60, 81
1, 180240, Note_on_c, 13, 76, 67
1, 180245, Note_on_c, 4, 57, 0
1, 180246, Note_on_c, 11, 55, 0
1, 180247, Note_on_c, 13, 72, 0
1, 180253, Note_on_c, 11, 60, 0
1, 180255, Note_on_c, 4, 64, 0
1, 180259, Note_on_c, 4, 60, 0
1, 180280, Note_on_c, 9, 42, 0
1, 180286, Note_on_c, 11, 64, 0
1, 180317, Note_on_c, 6, 52, 0
1, 180321, Note_on_c, 6, 45, 0
1, 180332, Note_on_c, 11, 45, 0
1, 180335, Note_on_c, 12, 60, 0
1, 180337, Note_on_c, 12, 64, 0
1, 180347, Note_on_c, 1, 33, 0
1, 180371, Note_on_c, 12, 45, 0
1, 180456, Note_on_c, 2, 64, 0
1, 180456, Note_on_c, 2, 67, 0
1, 180456, Note_on_c, 2, 72, 0
1, 180480, Note_on_c, 1, 41, 114
1, 180480, Note_on_c, 2, 65, 97
1, 180480, Note_on_c, 2, 69, 97
1, 180480, Note_on_c, 2, 72, 97
1, 180480, Note_on_c, 6, 41, 119
1, 180480, Note_on_c, 6, 48, 119
1, 180480, Note_on_c, 9, 35, 118
1, 180480, Note_on_c, 9, 42, 76
1, 180480, Note_on_c, 11, 57, 114
1, 180480, Note_on_c, 11, 60, 127
1, 180480, Note_on_c, 11, 65, 124
1, 180480, Note_on_c, 12, 60, 127
1, 180480, Note_on_c, 12, 65, 119
1, 180480, Note_on_c, 13, 72, 81
1, 180514, Note_on_c, 4, 62, 110
1, 180520, Note_on_c, 9, 35, 0
1, 180520, Note_on_c, 9, 42, 0
1, 180523, Note_on_c, 4, 65, 110
1, 180525, Note_on_c, 13, 76, 0
1, 180720, Note_on_c, 3, 72, 113
1, 180720, Note_on_c, 4, 65, 0
1, 180720, Note_on_c, 9, 42, 76
1, 180720, Note_on_c, 13, 72, 0
1, 180720, Note_on_c, 13, 76, 81
1, 180723, Note_on_c, 4, 62, 0
1, 180735, Note_on_c, 3, 71, 0
1, 180752, Note_on_c, 6, 48, 0
1, 180760, Note_on_c, 9, 42, 0
1, 180762, Note_on_c, 4, 67, 114
1, 180762, Note_on_c, 6, 41, 0
1, 180768, Note_on_c, 11, 57, 0
1, 180769, Note_on_c, 4, 64, 114
1, 180831, Note_on_c, 12, 60, 0
1, 180895, Note_on_c, 12, 65, 0
1, 180927, Note_on_c, 3, 72, 0
1, 180943, Note_on_c, 4, 64, 0
1, 180960, Note_on_c, 3, 71, 110
1, 180960, Note_on_c, 6, 41, 102
1, 180960, Note_on_c, 6, 48, 114
1, 180960, Note_on_c, 9, 40, 118
1, 180960, Note_on_c, 9, 42, 76
1, 180960, Note_on_c, 11, 57, 81
1, 180960, Note_on_c, 12, 60, 106
1, 180960, Note_on_c, 12, 65, 94
1, 180960, Note_on_c, 13, 72, 71
1, 180965, Note_on_c, 4, 67, 0
1, 180971, Note_on_c, 13, 76, 0
1, 180978, Note_on_c, 1, 41, 0
1, 180978, Note_on_c, 11, 60, 0
1, 180988, Note_on_c, 11, 65, 0
1, 181000, Note_on_c, 9, 40, 0
1, 181000, Note_on_c, 9, 42, 0
1, 181004, Note_on_c, 4, 62, 99
1, 181009, Note_on_c, 4, 65, 94
1, 181009, Note_on_c, 6, 48, 0
1, 181022, Note_on_c, 6, 41, 0
1, 181022, Note_on_c, 11, 57, 0
1, 181061, Note_on_c, 12, 65, 0
1, 181064, Note_on_c, 12, 60, 0
1, 181194, Note_on_c, 4, 65, 0
1, 181195, Note_on_c, 13, 72, 0
1, 181200, Note_on_c, 1, 41, 114
1, 181200, Note_on_c, 3, 72, 115
1, 181200, Note_on_c, 6, 41, 110
1, 181200, Note_on_c, 6, 48, 127
1, 181200, Note_on_c, 9, 42, 76
1, 181200, Note_on_c, 11, 41, 119
1, 181200, Note_on_c, 11, 57, 102
1, 181200, Note_on_c, 11, 60, 124
1, 181200, Note_on_c, 11, 65, 114
1, 181200, Note_on_c, 12, 53, 114
1, 181200, Note_on_c, 12, 60, 124
1, 181200, Note_on_c, 12, 65, 124
1, 181200, Note_on_c, 13, 79, 114
1, 181204, Note_on_c, 4, 62, 0
1, 181206, Note_on_c, 4, 67, 114
1, 181212, Note_on_c, 4, 64, 114
1, 181223, Note_on_c, 3, 71, 0
1, 181240, Note_on_c, 9, 42, 0
1, 181299, Note_on_c, 1, 41, 0
1, 181376, Note_on_c, 4, 64, 0
1, 181411, Note_on_c, 4, 67, 0
1, 181430, Note_on_c, 3, 72, 0
1, 181440, Note_on_c, 1, 36, 114
1, 181440, Note_on_c, 3, 71, 109
1, 181440, Note_on_c, 9, 35, 118
1, 181440, Note_on_c, 9, 42, 76
1, 181440, Note_on_c, 13, 72, 75
1, 181459, Note_on_c, 4, 62, 94
1, 181465, Note_on_c, 4, 65, 94
1, 181477, Note_on_c, 11, 57, 0
1, 181480, Note_on_c, 9, 35, 0
1, 181480, Note_on_c, 9, 42, 0
1, 181535, Note_on_c, 13, 79, 0
1, 181536, Note_on_c, 12, 60, 0
1, 181555, Note_on_c, 12, 65, 0
1, 181556, Note_on_c, 6, 41, 0
1, 181560, Note_on_c, 11, 60, 0
1, 181569, Note_on_c, 11, 65, 0
1, 181620, Note_on_c, 1, 36, 0
1, 181638, Note_on_c, 4, 65, 0
1, 181643, Note_on_c, 4, 62, 0
1, 181656, Note_on_c, 6, 48, 0
1, 181662, Note_on_c, 4, 67, 119
1, 181670, Note_on_c, 4, 64, 119
1, 181676, Note_on_c, 3, 71, 0
1, 181680, Note_on_c, 1, 36, 81
1, 181680, Note_on_c, 3, 72, 113
1, 181680, Note_on_c, 6, 41, 94
1, 181680, Note_on_c, 9, 35, 118
1, 181680, Note_on_c, 9, 42, 76
1, 181680, Note_on_c, 11, 57, 114
1, 181680, Note_on_c, 11, 60, 124
1, 181680, Note_on_c, 11, 65, 119
1, 181680, Note_on_c, 12, 60, 119
1, 181680, Note_on_c, 12, 65, 124
1, 181680, Note_on_c, 13, 76, 110
1, 181682, Note_on_c, 13, 72, 0
1, 181683, Note_on_c, 11, 41, 0
1, 181720, Note_on_c, 9, 35, 0
1, 181720, Note_on_c, 9, 42, 0
1, 181725, Note_on_c, 12, 53, 0
1, 181790, Note_on_c, 6, 41, 0
1, 181883, Note_on_c, 4, 64, 0
1, 181894, Note_on_c, 1, 36, 0
1, 181895, Note_on_c, 11, 57, 0
1, 181916, Note_on_c, 3, 72, 0
1, 181920, Note_on_c, 1, 41, 106
1, 181920, Note_on_c, 3, 71, 110
1, 181920, Note_on_c, 6, 41, 102
1, 181920, Note_on_c, 6, 48, 127
1, 181920, Note_on_c, 9, 40, 118
1, 181920, Note_on_c, 9, 42, 76
1, 181920, Note_on_c, 11, 41, 124
1, 181920, Note_on_c, 12, 53, 119
1, 181920, Note_on_c, 13, 72, 72
1, 181925, Note_on_c, 4, 62, 99
1, 181935, Note_on_c, 4, 65, 102
1, 181954, Note_on_c, 4, 67, 0
1, 181960, Note_on_c, 9, 40, 0
1, 181960, Note_on_c, 9, 42, 0
1, 182019, Note_on_c, 13, 76, 0
1, 182021, Note_on_c, 11, 60, 0
1, 182033, Note_on_c, 12, 60, 0
1, 182150, Note_on_c, 6, 41, 0
1, 182160, Note_on_c, 1, 36, 124
1, 182160, Note_on_c, 9, 42, 76
1, 182160, Note_on_c, 11, 57, 110
1, 182160, Note_on_c, 12, 60, 99
1, 182160, Note_on_c, 13, 76, 75
1, 182164, Note_on_c, 1, 41, 0
1, 182168, Note_on_c, 12, 53, 0
1, 182173, Note_on_c, 13, 72, 0
1, 182196, Note_on_c, 4, 62, 0
1, 182200, Note_on_c, 9, 42, 0
1, 182201, Note_on_c, 4, 65, 0
1, 182207, Note_on_c, 6, 48, 0
1, 182277, Note_on_c, 12, 65, 0
1, 182279, Note_on_c, 12, 60, 0
1, 182287, Note_on_c, 11, 65, 0
1, 182327, Note_on_c, 11, 57, 0
1, 182361, Note_on_c, 11, 41, 0
1, 182376, Note_on_c, 1, 36, 0
1, 182376, Note_on_c, 2, 65, 0
1, 182376, Note_on_c, 2, 69, 0
1, 182376, Note_on_c, 2, 72, 0
1, 182396, Note_on_c, 3, 71, 0
1, 182400, Lyric_t, "RE"
1, 182400, Lyric_t, "\015"
1, 182400, Note_on_c, 1, 36, 127
1, 182400, Note_on_c, 2, 64, 97
1, 182400, Note_on_c, 2, 67, 97
1, 182400, Note_on_c, 2, 72, 97
1, 182400, Note_on_c, 3, 67, 115
1, 182400, Note_on_c, 6, 48, 124
1, 182400, Note_on_c, 6, 55, 119
1, 182400, Note_on_c, 9, 35, 118
1, 182400, Note_on_c, 9, 42, 76
1, 182400, Note_on_c, 11, 48, 124
1, 182400, Note_on_c, 11, 55, 102
1, 182400, Note_on_c, 11, 60, 124
1, 182400, Note_on_c, 11, 64, 99
1, 182400, Note_on_c, 12, 48, 124
1, 182400, Note_on_c, 12, 60, 110
1, 182400, Note_on_c, 12, 64, 119
1, 182437, Note_on_c, 4, 64, 114
1, 182440, Note_on_c, 9, 35, 0
1, 182440, Note_on_c, 9, 42, 0
1, 182445, Note_on_c, 4, 60, 124
1, 182451, Note_on_c, 13, 76, 0
1, 182635, Note_on_c, 6, 48, 0
1, 182638, Note_on_c, 6, 55, 0
1, 182640, Note_on_c, 9, 42, 76
1, 182640, Note_on_c, 13, 76, 106
1, 182680, Note_on_c, 9, 42, 0
1, 182713, Note_on_c, 12, 60, 0
1, 182714, Note_on_c, 11, 55, 0
1, 182773, Note_on_c, 12, 64, 0
1, 182804, Note_on_c, 4, 60, 0
1, 182815, Note_on_c, 4, 64, 0
1, 182827, Note_on_c, 11, 60, 0
1, 182833, Note_on_c, 12, 48, 0
1, 182834, Note_on_c, 13, 76, 0
1, 182840, Note_on_c, 11, 64, 0
1, 182872, Note_on_c, 1, 36, 0
1, 182880, Note_on_c, 6, 48, 102
1, 182880, Note_on_c, 6, 55, 99
1, 182880, Note_on_c, 9, 40, 118
1, 182880, Note_on_c, 9, 42, 76
1, 182880, Note_on_c, 11, 55, 75
1, 182880, Note_on_c, 11, 60, 67
1, 182880, Note_on_c, 11, 64, 41
1, 182880, Note_on_c, 12, 60, 114
1, 182880, Note_on_c, 12, 64, 87
1, 182880, Note_on_c, 13, 72, 84
1, 182920, Note_on_c, 6, 48, 0
1, 182920, Note_on_c, 9, 40, 0
1, 182920, Note_on_c, 9, 42, 0
1, 182926, Note_on_c, 6, 55, 0
1, 182944, Note_on_c, 11, 64, 0
1, 182953, Note_on_c, 11, 60, 0
1, 182955, Note_on_c, 12, 64, 0
1, 182976, Note_on_c, 3, 67, 0
1, 182981, Note_on_c, 12, 60, 0
1, 182982, Note_on_c, 11, 55, 0
1, 183073, Note_on_c, 13, 72, 0
1, 183120, Note_on_c, 1, 36, 127
1, 183120, Note_on_c, 6, 48, 124
1, 183120, Note_on_c, 6, 55, 119
1, 183120, Note_on_c, 9, 42, 76
1, 183120, Note_on_c, 11, 55, 114
1, 183120, Note_on_c, 11, 60, 124
1, 183120, Note_on_c, 11, 64, 114
1, 183120, Note_on_c, 12, 48, 124
1, 183120, Note_on_c, 12, 60, 124
1, 183120, Note_on_c, 12, 64, 124
1, 183120, Note_on_c, 13, 76, 110
1, 183160, Note_on_c, 9, 42, 0
1, 183232, Note_on_c, 11, 48, 0
1, 183317, Note_on_c, 1, 36, 0
1, 183359, Note_on_c, 13, 76, 0
1, 183360, Lyric_t, "PUT "
1, 183360, Note_on_c, 1, 31, 114
1, 183360, Note_on_c, 3, 74, 112
1, 183360, Note_on_c, 9, 35, 118
1, 183360, Note_on_c, 9, 42, 76
1, 183360, Note_on_c, 13, 74, 84
1, 183400, Note_on_c, 9, 35, 0
1, 183400, Note_on_c, 9, 42, 0
1, 183440, Note_on_c, 12, 60, 0
1, 183484, Note_on_c, 12, 64, 0
1, 183485, Note_on_c, 6, 48, 0
1, 183500, Note_on_c, 6, 55, 0
1, 183507, Note_on_c, 1, 31, 0
1, 183521, Note_on_c, 3, 74, 0
1, 183533, Note_on_c, 11, 55, 0
1, 183587, Note_on_c, 13, 74, 0
1, 183600, Lyric_t, "IT "
1, 183600, Note_on_c, 1, 33, 124
1, 183600, Note_on_c, 3, 76, 111
1, 183600, Note_on_c, 6, 48, 114
1, 183600, Note_on_c, 6, 55, 119
1, 183600, Note_on_c, 9, 35, 118
1, 183600, Note_on_c, 9, 42, 76
1, 183600, Note_on_c, 11, 48, 127
1, 183600, Note_on_c, 12, 60, 124
1, 183600, Note_on_c, 12, 64, 106
1, 183600, Note_on_c, 13, 76, 119
1, 183633, Note_on_c, 11, 60, 0
1, 183640, Note_on_c, 9, 35, 0
1, 183640, Note_on_c, 9, 42, 0
1, 183644, Note_on_c, 11, 64, 0
1, 183666, Note_on_c, 12, 48, 0
1, 183772, Note_on_c, 3, 76, 0
1, 183778, Note_on_c, 1, 33, 0
1, 183822, Note_on_c, 13, 76, 0
1, 183840, Lyric_t, "IN "
1, 183840, Note_on_c, 1, 36, 124
1, 183840, Note_on_c, 3, 74, 115
1, 183840, Note_on_c, 9, 40, 118
1, 183840, Note_on_c, 9, 42, 76
1, 183840, Note_on_c, 9, 57, 76
1, 183840, Note_on_c, 11, 55, 110
1, 183840, Note_on_c, 11, 64, 102
1, 183840, Note_on_c, 12, 48, 127
1, 183840, Note_on_c, 13, 74, 102
1, 183880, Note_on_c, 9, 40, 0
1, 183880, Note_on_c, 9, 42, 0
1, 183880, Note_on_c, 9, 57, 0
1, 184054, Note_on_c, 1, 36, 0
1, 184072, Note_on_c, 13, 74, 0
1, 184080, Lyric_t, "YOUR "
1, 184080, Note_on_c, 1, 35, 114
1, 184080, Note_on_c, 3, 72, 115
1, 184080, Note_on_c, 9, 42, 76
1, 184080, Note_on_c, 13, 72, 94
1, 184083, Note_on_c, 6, 55, 0
1, 184105, Note_on_c, 12, 64, 0
1, 184109, Note_on_c, 3, 74, 0
1, 184120, Note_on_c, 9, 42, 0
1, 184124, Note_on_c, 6, 48, 0
1, 184142, Note_on_c, 12, 60, 0
1, 184169, Note_on_c, 12, 48, 0
1, 184171, Note_on_c, 11, 55, 0
1, 184195, Note_on_c, 3, 72, 0
1, 184211, Note_on_c, 11, 64, 0
1, 184213, Note_on_c, 13, 72, 0
1, 184289, Note_on_c, 11, 48, 0
1, 184295, Note_on_c, 1, 35, 0
1, 184296, Note_on_c, 2, 64, 0
1, 184296, Note_on_c, 2, 67, 0
1, 184296, Note_on_c, 2, 72, 0
1, 184320, Lyric_t, "HEAD"
1, 184320, Lyric_t, "\015"
1, 184320, Note_on_c, 1, 33, 127
1, 184320, Note_on_c, 2, 69, 119
1, 184320, Note_on_c, 2, 72, 106
1, 184320, Note_on_c, 2, 76, 106
1, 184320, Note_on_c, 3, 72, 115
1, 184320, Note_on_c, 4, 57, 114
1, 184320, Note_on_c, 4, 64, 78
1, 184320, Note_on_c, 4, 69, 102
1, 184320, Note_on_c, 4, 72, 102
1, 184320, Note_on_c, 6, 45, 119
1, 184320, Note_on_c, 6, 52, 127
1, 184320, Note_on_c, 9, 35, 118
1, 184320, Note_on_c, 9, 49, 76
1, 184320, Note_on_c, 11, 45, 127
1, 184320, Note_on_c, 11, 60, 114
1, 184320, Note_on_c, 11, 64, 119
1, 184320, Note_on_c, 11, 69, 119
1, 184320, Note_on_c, 12, 45, 119
1, 184320, Note_on_c, 12, 57, 106
1, 184320, Note_on_c, 12, 60, 119
1, 184320, Note_on_c, 12, 64, 119
1, 184320, Note_on_c, 13, 72, 124
1, 184360, Note_on_c, 9, 35, 0
1, 184360, Note_on_c, 9, 49, 0
1, 184556, Note_on_c, 13, 72, 0
1, 184560, Note_on_c, 9, 42, 76
1, 184560, Note_on_c, 13, 72, 106
1, 184583, Note_on_c, 12, 57, 0
1, 184600, Note_on_c, 9, 42, 0
1, 184696, Note_on_c, 11, 60, 0
1, 184747, Note_on_c, 12, 60, 0
1, 184755, Note_on_c, 12, 64, 0
1, 184758, Note_on_c, 3, 72, 0
1, 184782, Note_on_c, 1, 33, 0
1, 184785, Note_on_c, 12, 45, 0
1, 184796, Note_on_c, 6, 45, 0
1, 184796, Note_on_c, 6, 52, 0
1, 184796, Note_on_c, 13, 72, 0
1, 184800, Lyric_t, "BA"
1, 184800, Note_on_c, 3, 69, 113
1, 184800, Note_on_c, 6, 45, 124
1, 184800, Note_on_c, 9, 40, 118
1, 184800, Note_on_c, 9, 42, 76
1, 184800, Note_on_c, 11, 60, 102
1, 184800, Note_on_c, 12, 57, 106
1, 184800, Note_on_c, 12, 60, 102
1, 184800, Note_on_c, 12, 64, 65
1, 184800, Note_on_c, 13, 72, 91
1, 184840, Note_on_c, 9, 40, 0
1, 184840, Note_on_c, 9, 42, 0
1, 184873, Note_on_c, 11, 64, 0
1, 184888, Note_on_c, 11, 45, 0
1, 184984, Note_on_c, 3, 69, 0
1, 185036, Note_on_c, 13, 72, 0
1, 185040, Lyric_t, "BY "
1, 185040, Note_on_c, 1, 33, 127
1, 185040, Note_on_c, 3, 72, 115
1, 185040, Note_on_c, 9, 42, 76
1, 185040, Note_on_c, 11, 45, 114
1, 185040, Note_on_c, 11, 64, 94
1, 185040, Note_on_c, 12, 45, 124
1, 185040, Note_on_c, 13, 72, 114
1, 185080, Note_on_c, 9, 42, 0
1, 185085, Note_on_c, 11, 69, 0
1, 185130, Note_on_c, 11, 60, 0
1, 185145, Note_on_c, 3, 72, 0
1, 185155, Note_on_c, 11, 64, 0
1, 185181, Note_on_c, 12, 57, 0
1, 185195, Note_on_c, 12, 60, 0
1, 185196, Note_on_c, 11, 45, 0
1, 185219, Note_on_c, 6, 45, 0
1, 185228, Note_on_c, 12, 64, 0
1, 185236, Note_on_c, 12, 45, 0
1, 185238, Note_on_c, 1, 33, 0
1, 185254, Note_on_c, 4, 57, 0
1, 185264, Note_on_c, 2, 69, 0
1, 185280, Lyric_t, "HOL"
1, 185280, Note_on_c, 1, 31, 119
1, 185280, Note_on_c, 2, 67, 119
1, 185280, Note_on_c, 3, 74, 115
1, 185280, Note_on_c, 4, 55, 106
1, 185280, Note_on_c, 6, 43, 127
1, 185280, Note_on_c, 9, 35, 118
1, 185280, Note_on_c, 9, 42, 76
1, 185280, Note_on_c, 11, 43, 127
1, 185280, Note_on_c, 11, 60, 119
1, 185280, Note_on_c, 11, 64, 119
1, 185280, Note_on_c, 11, 69, 124
1, 185280, Note_on_c, 12, 43, 127
1, 185280, Note_on_c, 12, 57, 106
1, 185280, Note_on_c, 12, 60, 119
1, 185280, Note_on_c, 12, 64, 119
1, 185320, Note_on_c, 9, 35, 0
1, 185320, Note_on_c, 9, 42, 0
1, 185480, Note_on_c, 3, 74, 0
1, 185516, Note_on_c, 13, 72, 0
1, 185520, Lyric_t, "LY"
1, 185520, Note_on_c, 3, 76, 112
1, 185520, Note_on_c, 9, 35, 118
1, 185520, Note_on_c, 9, 42, 76
1, 185520, Note_on_c, 13, 72, 114
1, 185543, Note_on_c, 12, 57, 0
1, 185560, Note_on_c, 9, 35, 0
1, 185560, Note_on_c, 9, 42, 0
1, 185631, Note_on_c, 11, 60, 0
1, 185693, Note_on_c, 3, 76, 0
1, 185707, Note_on_c, 12, 60, 0
1, 185715, Note_on_c, 12, 64, 0
1, 185756, Note_on_c, 6, 43, 0
1, 185760, Lyric_t, "WOOD "
1, 185760, Note_on_c, 3, 74, 113
1, 185760, Note_on_c, 6, 43, 127
1, 185760, Note_on_c, 9, 40, 118
1, 185760, Note_on_c, 9, 42, 76
1, 185760, Note_on_c, 11, 60, 106
1, 185760, Note_on_c, 12, 57, 106
1, 185760, Note_on_c, 12, 60, 102
1, 185760, Note_on_c, 12, 64, 65
1, 185786, Note_on_c, 1, 31, 0
1, 185790, Note_on_c, 12, 43, 0
1, 185800, Note_on_c, 9, 40, 0
1, 185800, Note_on_c, 9, 42, 0
1, 185971, Note_on_c, 11, 43, 0
1, 185979, Note_on_c, 3, 74, 0
1, 185996, Note_on_c, 13, 72, 0
1, 186000, Lyric_t, "IS "
1, 186000, Note_on_c, 1, 31, 110
1, 186000, Note_on_c, 3, 72, 115
1, 186000, Note_on_c, 9, 42, 76
1, 186000, Note_on_c, 11, 43, 87
1, 186000, Note_on_c, 12, 43, 119
1, 186000, Note_on_c, 13, 72, 106
1, 186032, Note_on_c, 11, 60, 0
1, 186040, Note_on_c, 9, 42, 0
1, 186053, Note_on_c, 11, 64, 0
1, 186079, Note_on_c, 11, 69, 0
1, 186100, Note_on_c, 3, 72, 0
1, 186141, Note_on_c, 12, 57, 0
1, 186155, Note_on_c, 12, 60, 0
1, 186156, Note_on_c, 11, 43, 0
1, 186182, Note_on_c, 12, 43, 0
1, 186188, Note_on_c, 12, 64, 0
1, 186215, Note_on_c, 2, 67, 0
1, 186221, Note_on_c, 1, 31, 0
1, 186236, Note_on_c, 6, 43, 0
1, 186236, Note_on_c, 13, 72, 0
1, 186240, Lyric_t, "DEAD"
1, 186240, Lyric_t, "\015"
1, 186240, Note_on_c, 1, 30, 109
1, 186240, Note_on_c, 2, 66, 120
1, 186240, Note_on_c, 3, 74, 115
1, 186240, Note_on_c, 4, 54, 109
1, 186240, Note_on_c, 6, 42, 127
1, 186240, Note_on_c, 9, 35, 118
1, 186240, Note_on_c, 9, 42, 76
1, 186240, Note_on_c, 11, 42, 127
1, 186240, Note_on_c, 11, 60, 114
1, 186240, Note_on_c, 11, 64, 119
1, 186240, Note_on_c, 11, 69, 119
1, 186240, Note_on_c, 12, 42, 127
1, 186240, Note_on_c, 12, 60, 102
1, 186240, Note_on_c, 12, 64, 114
1, 186240, Note_on_c, 12, 69, 114
1, 186240, Note_on_c, 13, 72, 114
1, 186251, Note_on_c, 4, 55, 0
1, 186280, Note_on_c, 9, 35, 0
1, 186280, Note_on_c, 9, 42, 0
1, 186476, Note_on_c, 13, 72, 0
1, 186480, Note_on_c, 9, 42, 76
1, 186480, Note_on_c, 13, 72, 91
1, 186520, Note_on_c, 9, 42, 0
1, 186565, Note_on_c, 12, 60, 0
1, 186581, Note_on_c, 3, 74, 0
1, 186616, Note_on_c, 11, 60, 0
1, 186654, Note_on_c, 12, 64, 0
1, 186716, Note_on_c, 6, 42, 0
1, 186716, Note_on_c, 13, 72, 0
1, 186720, Lyric_t, "YOU "
1, 186720, Note_on_c, 3, 69, 107
1, 186720, Note_on_c, 6, 42, 127
1, 186720, Note_on_c, 9, 40, 118
1, 186720, Note_on_c, 9, 42, 76
1, 186720, Note_on_c, 11, 60, 102
1, 186720, Note_on_c, 12, 60, 106
1, 186720, Note_on_c, 13, 72, 99
1, 186760, Note_on_c, 9, 40, 0
1, 186760, Note_on_c, 9, 42, 0
1, 186793, Note_on_c, 11, 64, 0
1, 186811, Note_on_c, 1, 30, 0
1, 186831, Note_on_c, 12, 69, 0
1, 186883, Note_on_c, 3, 69, 0
1, 186956, Note_on_c, 13, 72, 0
1, 186960, Lyric_t, "CAN "
1, 186960, Note_on_c, 1, 30, 120
1, 186960, Note_on_c, 3, 72, 115
1, 186960, Note_on_c, 9, 42, 76
1, 186960, Note_on_c, 11, 64, 94
1, 186960, Note_on_c, 12, 64, 99
1, 186960, Note_on_c, 13, 72, 110
1, 187000, Note_on_c, 9, 42, 0
1, 187005, Note_on_c, 11, 69, 0
1, 187032, Note_on_c, 12, 42, 0
1, 187050, Note_on_c, 11, 60, 0
1, 187062, Note_on_c, 12, 64, 0
1, 187075, Note_on_c, 11, 64, 0
1, 187107, Note_on_c, 11, 42, 0
1, 187109, Note_on_c, 12, 60, 0
1, 187112, Note_on_c, 2, 76, 0
1, 187123, Note_on_c, 4, 64, 0
1, 187156, Note_on_c, 1, 30, 0
1, 187157, Note_on_c, 4, 72, 0
1, 187159, Note_on_c, 4, 69, 0
1, 187167, Note_on_c, 4, 54, 0
1, 187183, Note_on_c, 3, 72, 0
1, 187187, Note_on_c, 2, 66, 0
1, 187196, Note_on_c, 6, 42, 0
1, 187200, Lyric_t, "FIND "
1, 187200, Note_on_c, 1, 29, 109
1, 187200, Note_on_c, 2, 65, 110
1, 187200, Note_on_c, 2, 68, 101
1, 187200, Note_on_c, 3, 74, 110
1, 187200, Note_on_c, 4, 53, 106
1, 187200, Note_on_c, 4, 65, 87
1, 187200, Note_on_c, 4, 68, 109
1, 187200, Note_on_c, 4, 72, 99
1, 187200, Note_on_c, 6, 41, 124
1, 187200, Note_on_c, 9, 35, 118
1, 187200, Note_on_c, 9, 42, 76
1, 187200, Note_on_c, 11, 41, 127
1, 187200, Note_on_c, 11, 60, 119
1, 187200, Note_on_c, 11, 65, 119
1, 187200, Note_on_c, 11, 68, 124
1, 187200, Note_on_c, 12, 41, 127
1, 187200, Note_on_c, 12, 56, 110
1, 187200, Note_on_c, 12, 60, 91
1, 187200, Note_on_c, 12, 65, 127
1, 187240, Note_on_c, 9, 35, 0
1, 187240, Note_on_c, 9, 42, 0
1, 187395, Note_on_c, 3, 74, 0
1, 187436, Note_on_c, 13, 72, 0
1, 187440, Lyric_t, "IT "
1, 187440, Note_on_c, 3, 76, 113
1, 187440, Note_on_c, 9, 35, 118
1, 187440, Note_on_c, 9, 42, 76
1, 187440, Note_on_c, 13, 72, 119
1, 187480, Note_on_c, 9, 35, 0
1, 187480, Note_on_c, 9, 42, 0
1, 187551, Note_on_c, 11, 60, 0
1, 187564, Note_on_c, 12, 60, 0
1, 187597, Note_on_c, 12, 65, 0
1, 187612, Note_on_c, 12, 56, 0
1, 187676, Note_on_c, 6, 41, 0
1, 187676, Note_on_c, 13, 72, 0
1, 187680, Lyric_t, "IN "
1, 187680, Note_on_c, 3, 74, 112
1, 187680, Note_on_c, 6, 41, 124
1, 187680, Note_on_c, 9, 40, 118
1, 187680, Note_on_c, 9, 42, 76
1, 187680, Note_on_c, 11, 60, 106
1, 187680, Note_on_c, 12, 56, 94
1, 187680, Note_on_c, 12, 60, 94
1, 187680, Note_on_c, 12, 65, 99
1, 187680, Note_on_c, 13, 72, 114
1, 187691, Note_on_c, 3, 76, 0
1, 187720, Note_on_c, 9, 40, 0
1, 187720, Note_on_c, 9, 42, 0
1, 187752, Note_on_c, 12, 41, 0
1, 187771, Note_on_c, 1, 29, 0
1, 187886, Note_on_c, 3, 74, 0
1, 187893, Note_on_c, 12, 60, 0
1, 187902, Note_on_c, 12, 56, 0
1, 187912, Note_on_c, 12, 65, 0
1, 187916, Note_on_c, 13, 72, 0
1, 187920, Lyric_t, "YOUR"
1, 187920, Note_on_c, 1, 29, 120
1, 187920, Note_on_c, 3, 72, 115
1, 187920, Note_on_c, 9, 42, 76
1, 187920, Note_on_c, 12, 41, 127
1, 187920, Note_on_c, 13, 72, 110
1, 187952, Note_on_c, 11, 60, 0
1, 187960, Note_on_c, 9, 42, 0
1, 187973, Note_on_c, 11, 65, 0
1, 187999, Note_on_c, 11, 68, 0
1, 188038, Note_on_c, 11, 41, 0
1, 188042, Note_on_c, 12, 41, 0
1, 188052, Note_on_c, 3, 72, 0
1, 188072, Note_on_c, 4, 68, 0
1, 188088, Note_on_c, 4, 65, 0
1, 188092, Note_on_c, 4, 72, 0
1, 188109, Note_on_c, 2, 72, 0
1, 188116, Note_on_c, 1, 29, 0
1, 188121, Note_on_c, 2, 65, 0
1, 188128, Note_on_c, 4, 53, 0
1, 188156, Note_on_c, 2, 68, 0
1, 188156, Note_on_c, 6, 41, 0
1, 188156, Note_on_c, 13, 72, 0
1, 188160, Lyric_t, "SEL"
1, 188160, Note_on_c, 1, 36, 119
1, 188160, Note_on_c, 2, 64, 114
1, 188160, Note_on_c, 2, 72, 124
1, 188160, Note_on_c, 3, 72, 115
1, 188160, Note_on_c, 4, 60, 106
1, 188160, Note_on_c, 4, 64, 114
1, 188160, Note_on_c, 4, 67, 106
1, 188160, Note_on_c, 9, 35, 118
1, 188160, Note_on_c, 9, 42, 76
1, 188160, Note_on_c, 11, 48, 119
1, 188160, Note_on_c, 11, 55, 106
1, 188160, Note_on_c, 11, 60, 110
1, 188160, Note_on_c, 11, 64, 99
1, 188160, Note_on_c, 12, 48, 127
1, 188160, Note_on_c, 12, 60, 124
1, 188160, Note_on_c, 12, 64, 119
1, 188160, Note_on_c, 12, 67, 124
1, 188200, Note_on_c, 9, 35, 0
1, 188200, Note_on_c, 9, 42, 0
1, 188380, Note_on_c, 3, 72, 0
1, 188400, Note_on_c, 3, 67, 112
1, 188400, Note_on_c, 9, 42, 76
1, 188440, Note_on_c, 9, 42, 0
1, 188463, Note_on_c, 12, 60, 0
1, 188466, Note_on_c, 11, 55, 0
1, 188496, Note_on_c, 12, 64, 0
1, 188508, Note_on_c, 12, 67, 0
1, 188538, Note_on_c, 4, 60, 0
1, 188540, Note_on_c, 11, 60, 0
1, 188568, Note_on_c, 11, 64, 0
1, 188577, Note_on_c, 4, 64, 0
1, 188583, Note_on_c, 4, 67, 0
1, 188585, Note_on_c, 1, 36, 0
1, 188633, Note_on_c, 3, 67, 0
1, 188640, Lyric_t, "F"
1, 188640, Lyric_t, "\015"
1, 188640, Note_on_c, 1, 36, 114
1, 188640, Note_on_c, 3, 69, 112
1, 188640, Note_on_c, 6, 69, 113
1, 188640, Note_on_c, 6, 72, 115
1, 188640, Note_on_c, 6, 77, 113
1, 188640, Note_on_c, 9, 40, 118
1, 188640, Note_on_c, 9, 42, 76
1, 188640, Note_on_c, 11, 55, 81
1, 188640, Note_on_c, 11, 60, 60
1, 188640, Note_on_c, 11, 64, 41
1, 188640, Note_on_c, 12, 60, 94
1, 188640, Note_on_c, 12, 64, 94
1, 188640, Note_on_c, 12, 67, 94
1, 188680, Note_on_c, 9, 40, 0
1, 188680, Note_on_c, 9, 42, 0
1, 188682, Note_on_c, 11, 64, 0
1, 188708, Note_on_c, 11, 60, 0
1, 188732, Note_on_c, 12, 67, 0
1, 188735, Note_on_c, 12, 64, 0
1, 188741, Note_on_c, 12, 60, 0
1, 188756, Note_on_c, 6, 69, 0
1, 188756, Note_on_c, 6, 72, 0
1, 188756, Note_on_c, 6, 77, 0
1, 188760, Note_on_c, 6, 69, 98
1, 188760, Note_on_c, 6, 72, 98
1, 188760, Note_on_c, 6, 77, 98
1, 188760, Note_on_c, 11, 55, 0
1, 188828, Note_on_c, 1, 36, 0
1, 188876, Note_on_c, 6, 69, 0
1, 188876, Note_on_c, 6, 72, 0
1, 188876, Note_on_c, 6, 77, 0
1, 188880, Note_on_c, 1, 36, 114
1, 188880, Note_on_c, 6, 69, 113
1, 188880, Note_on_c, 6, 72, 117
1, 188880, Note_on_c, 6, 77, 113
1, 188880, Note_on_c, 9, 42, 76
1, 188880, Note_on_c, 11, 55, 110
1, 188880, Note_on_c, 11, 60, 127
1, 188880, Note_on_c, 11, 64, 119
1, 188880, Note_on_c, 12, 60, 119
1, 188880, Note_on_c, 12, 64, 119
1, 188880, Note_on_c, 12, 67, 124
1, 188893, Note_on_c, 3, 69, 0
1, 188920, Note_on_c, 9, 42, 0
1, 188996, Note_on_c, 6, 69, 0
1, 188996, Note_on_c, 6, 72, 0
1, 188996, Note_on_c, 6, 77, 0
1, 189000, Note_on_c, 6, 69, 98
1, 189000, Note_on_c, 6, 72, 98
1, 189000, Note_on_c, 6, 77, 98
1, 189040, Note_on_c, 1, 36, 0
1, 189116, Note_on_c, 6, 69, 0
1, 189116, Note_on_c, 6, 72, 0
1, 189116, Note_on_c, 6, 77, 0
1, 189120, Note_on_c, 1, 36, 78
1, 189120, Note_on_c, 6, 69, 124
1, 189120, Note_on_c, 6, 72, 124
1, 189120, Note_on_c, 6, 77, 124
1, 189120, Note_on_c, 9, 35, 118
1, 189120, Note_on_c, 9, 42, 76
1, 189160, Note_on_c, 9, 35, 0
1, 189160, Note_on_c, 9, 42, 0
1, 189178, Note_on_c, 12, 64, 0
1, 189181, Note_on_c, 11, 48, 0
1, 189182, Note_on_c, 12, 67, 0
1, 189185, Note_on_c, 12, 60, 0
1, 189303, Note_on_c, 11, 55, 0
1, 189313, Note_on_c, 6, 77, 0
1, 189315, Note_on_c, 6, 69, 0
1, 189322, Note_on_c, 6, 72, 0
1, 189324, Note_on_c, 1, 36, 0
1, 189331, Note_on_c, 11, 60, 0
1, 189360, Note_on_c, 1, 43, 75
1, 189360, Note_on_c, 6, 67, 127
1, 189360, Note_on_c, 6, 72, 119
1, 189360, Note_on_c, 6, 76, 119
1, 189360, Note_on_c, 9, 35, 118
1, 189360, Note_on_c, 9, 42, 76
1, 189360, Note_on_c, 11, 48, 110
1, 189360, Note_on_c, 12, 60, 110
1, 189360, Note_on_c, 12, 64, 124
1, 189360, Note_on_c, 12, 67, 127
1, 189367, Note_on_c, 11, 64, 0
1, 189379, Note_on_c, 12, 48, 0
1, 189400, Note_on_c, 9, 35, 0
1, 189400, Note_on_c, 9, 42, 0
1, 189476, Note_on_c, 6, 67, 0
1, 189476, Note_on_c, 6, 72, 0
1, 189476, Note_on_c, 6, 76, 0
1, 189558, Note_on_c, 1, 43, 0
1, 189600, Note_on_c, 1, 45, 106
1, 189600, Note_on_c, 9, 40, 118
1, 189600, Note_on_c, 9, 42, 76
1, 189600, Note_on_c, 11, 60, 119
1, 189600, Note_on_c, 11, 64, 124
1, 189600, Note_on_c, 11, 67, 119
1, 189600, Note_on_c, 12, 48, 124
1, 189633, Note_on_c, 11, 48, 0
1, 189640, Note_on_c, 9, 40, 0
1, 189640, Note_on_c, 9, 42, 0
1, 189689, Note_on_c, 12, 60, 0
1, 189791, Note_on_c, 12, 64, 0
1, 189807, Note_on_c, 11, 60, 0
1, 189815, Note_on_c, 11, 64, 0
1, 189818, Note_on_c, 11, 67, 0
1, 189835, Note_on_c, 1, 45, 0
1, 189840, Note_on_c, 1, 43, 119
1, 189840, Note_on_c, 6, 67, 127
1, 189840, Note_on_c, 6, 72, 119
1, 189840, Note_on_c, 6, 76, 119
1, 189840, Note_on_c, 9, 42, 76
1, 189840, Note_on_c, 11, 48, 124
1, 189840, Note_on_c, 12, 60, 87
1, 189840, Note_on_c, 12, 64, 52
1, 189880, Note_on_c, 9, 42, 0
1, 189939, Note_on_c, 12, 60, 0
1, 189951, Note_on_c, 12, 64, 0
1, 189956, Note_on_c, 6, 67, 0
1, 189956, Note_on_c, 6, 72, 0
1, 189956, Note_on_c, 6, 76, 0
1, 189956, Note_on_c, 12, 67, 0
1, 189961, Note_on_c, 12, 48, 0
1, 189991, Note_on_c, 11, 48, 0
1, 189994, Note_on_c, 1, 43, 0
1, 190080, Note_on_c, 1, 48, 110
1, 190080, Note_on_c, 9, 35, 118
1, 190080, Note_on_c, 9, 42, 76
1, 190080, Note_on_c, 11, 48, 119
1, 190080, Note_on_c, 11, 55, 106
1, 190080, Note_on_c, 11, 60, 110
1, 190080, Note_on_c, 11, 64, 99
1, 190080, Note_on_c, 12, 48, 127
1, 190080, Note_on_c, 12, 60, 124
1, 190080, Note_on_c, 12, 64, 119
1, 190080, Note_on_c, 12, 67, 124
1, 190120, Note_on_c, 9, 35, 0
1, 190120, Note_on_c, 9, 42, 0
1, 190200, Note_on_c, 6, 69, 98
1, 190200, Note_on_c, 6, 72, 98
1, 190200, Note_on_c, 6, 77, 98
1, 190316, Note_on_c, 1, 48, 0
1, 190316, Note_on_c, 6, 69, 0
1, 190316, Note_on_c, 6, 72, 0
1, 190316, Note_on_c, 6, 77, 0
1, 190320, Note_on_c, 1, 48, 94
1, 190320, Note_on_c, 6, 69, 113
1, 190320, Note_on_c, 6, 72, 115
1, 190320, Note_on_c, 6, 77, 113
1, 190320, Note_on_c, 9, 42, 76
1, 190359, Lyric_t, "KEEP "
1, 190359, Note_on_c, 3, 69, 102
1, 190360, Note_on_c, 9, 42, 0
1, 190383, Note_on_c, 12, 60, 0
1, 190386, Note_on_c, 11, 55, 0
1, 190416, Note_on_c, 12, 64, 0
1, 190428, Note_on_c, 12, 67, 0
1, 190436, Note_on_c, 6, 69, 0
1, 190436, Note_on_c, 6, 72, 0
1, 190436, Note_on_c, 6, 77, 0
1, 190440, Note_on_c, 6, 69, 98
1, 190440, Note_on_c, 6, 72, 98
1, 190440, Note_on_c, 6, 77, 98
1, 190460, Note_on_c, 11, 60, 0
1, 190488, Note_on_c, 11, 64, 0
1, 190556, Note_on_c, 1, 48, 0
1, 190556, Note_on_c, 6, 69, 0
1, 190556, Note_on_c, 6, 72, 0
1, 190556, Note_on_c, 6, 77, 0
1, 190560, Note_on_c, 1, 48, 110
1, 190560, Note_on_c, 6, 69, 113
1, 190560, Note_on_c, 6, 72, 115
1, 190560, Note_on_c, 6, 77, 113
1, 190560, Note_on_c, 9, 40, 118
1, 190560, Note_on_c, 9, 42, 76
1, 190560, Note_on_c, 11, 55, 81
1, 190560, Note_on_c, 11, 60, 60
1, 190560, Note_on_c, 11, 64, 41
1, 190560, Note_on_c, 12, 60, 94
1, 190560, Note_on_c, 12, 64, 94
1, 190560, Note_on_c, 12, 67, 94
1, 190600, Note_on_c, 9, 40, 0
1, 190600, Note_on_c, 9, 42, 0
1, 190602, Note_on_c, 11, 64, 0
1, 190609, Lyric_t, "ON "
1, 190609, Note_on_c, 3, 72, 110
1, 190617, Note_on_c, 3, 69, 0
1, 190628, Note_on_c, 11, 60, 0
1, 190652, Note_on_c, 12, 67, 0
1, 190655, Note_on_c, 12, 64, 0
1, 190661, Note_on_c, 12, 60, 0
1, 190676, Note_on_c, 6, 69, 0
1, 190676, Note_on_c, 6, 72, 0
1, 190676, Note_on_c, 6, 77, 0
1, 190680, Note_on_c, 6, 69, 98
1, 190680, Note_on_c, 6, 72, 98
1, 190680, Note_on_c, 6, 77, 98
1, 190680, Note_on_c, 11, 55, 0
1, 190796, Note_on_c, 1, 48, 0
1, 190796, Note_on_c, 6, 69, 0
1, 190796, Note_on_c, 6, 72, 0
1, 190796, Note_on_c, 6, 77, 0
1, 190800, Note_on_c, 1, 45, 106
1, 190800, Note_on_c, 6, 69, 113
1, 190800, Note_on_c, 6, 72, 117
1, 190800, Note_on_c, 6, 77, 113
1, 190800, Note_on_c, 9, 42, 76
1, 190800, Note_on_c, 11, 55, 110
1, 190800, Note_on_c, 11, 60, 127
1, 190800, Note_on_c, 11, 64, 119
1, 190800, Note_on_c, 12, 60, 119
1, 190800, Note_on_c, 12, 64, 119
1, 190800, Note_on_c, 12, 67, 124
1, 190840, Note_on_c, 9, 42, 0
1, 190851, Note_on_c, 3, 72, 0
1, 190862, Lyric_t, "LO"
1, 190862, Note_on_c, 3, 76, 111
1, 190916, Note_on_c, 6, 69, 0
1, 190916, Note_on_c, 6, 72, 0
1, 190916, Note_on_c, 6, 77, 0
1, 190920, Note_on_c, 6, 69, 98
1, 190920, Note_on_c, 6, 72, 98
1, 190920, Note_on_c, 6, 77, 98
1, 191036, Note_on_c, 1, 45, 0
1, 191036, Note_on_c, 6, 69, 0
1, 191036, Note_on_c, 6, 72, 0
1, 191036, Note_on_c, 6, 77, 0
1, 191040, Note_on_c, 1, 43, 114
1, 191040, Note_on_c, 6, 69, 124
1, 191040, Note_on_c, 6, 72, 124
1, 191040, Note_on_c, 6, 77, 124
1, 191040, Note_on_c, 9, 35, 118
1, 191040, Note_on_c, 9, 42, 76
1, 191080, Note_on_c, 9, 35, 0
1, 191080, Note_on_c, 9, 42, 0
1, 191098, Note_on_c, 12, 64, 0
1, 191101, Note_on_c, 11, 48, 0
1, 191102, Note_on_c, 12, 67, 0
1, 191105, Note_on_c, 12, 60, 0
1, 191182, Note_on_c, 3, 76, 0
1, 191223, Note_on_c, 11, 55, 0
1, 191233, Note_on_c, 6, 77, 0
1, 191235, Note_on_c, 6, 69, 0
1, 191242, Note_on_c, 6, 72, 0
1, 191251, Note_on_c, 11, 60, 0
1, 191276, Note_on_c, 1, 43, 0
1, 191280, Note_on_c, 1, 40, 114
1, 191280, Note_on_c, 6, 67, 127
1, 191280, Note_on_c, 6, 72, 119
1, 191280, Note_on_c, 6, 76, 119
1, 191280, Note_on_c, 9, 35, 118
1, 191280, Note_on_c, 9, 40, 76
1, 191280, Note_on_c, 9, 42, 76
1, 191280, Note_on_c, 11, 48, 110
1, 191280, Note_on_c, 12, 60, 110
1, 191280, Note_on_c, 12, 64, 124
1, 191280, Note_on_c, 12, 67, 127
1, 191287, Note_on_c, 11, 64, 0
1, 191299, Note_on_c, 12, 48, 0
1, 191312, Lyric_t, "VING "
1, 191312, Note_on_c, 3, 76, 111
1, 191320, Note_on_c, 9, 35, 0
1, 191320, Note_on_c, 9, 40, 0
1, 191320, Note_on_c, 9, 42, 0
1, 191396, Note_on_c, 6, 67, 0
1, 191396, Note_on_c, 6, 72, 0
1, 191396, Note_on_c, 6, 76, 0
1, 191400, Note_on_c, 9, 40, 76
1, 191440, Note_on_c, 9, 40, 0
1, 191508, Note_on_c, 3, 76, 0
1, 191516, Note_on_c, 1, 40, 0
1, 191520, Note_on_c, 1, 38, 106
1, 191520, Note_on_c, 9, 40, 118
1, 191520, Note_on_c, 9, 42, 76
1, 191520, Note_on_c, 11, 60, 119
1, 191520, Note_on_c, 11, 64, 124
1, 191520, Note_on_c, 11, 67, 119
1, 191520, Note_on_c, 12, 48, 124
1, 191553, Note_on_c, 11, 48, 0
1, 191554, Lyric_t, "WHAT "
1, 191554, Note_on_c, 3, 74, 106
1, 191560, Note_on_c, 9, 40, 0
1, 191560, Note_on_c, 9, 42, 0
1, 191609, Note_on_c, 12, 60, 0
1, 191711, Note_on_c, 12, 64, 0
1, 191727, Note_on_c, 11, 60, 0
1, 191735, Note_on_c, 11, 64, 0
1, 191738, Note_on_c, 11, 67, 0
1, 191756, Note_on_c, 1, 38, 0
1, 191760, Note_on_c, 1, 36, 124
1, 191760, Note_on_c, 9, 42, 76
1, 191760, Note_on_c, 9, 45, 118
1, 191760, Note_on_c, 11, 48, 124
1, 191760, Note_on_c, 12, 60, 87
1, 191760, Note_on_c, 12, 64, 52
1, 191768, Lyric_t, "IS "
1, 191768, Note_on_c, 3, 72, 112
1, 191773, Note_on_c, 3, 74, 0
1, 191800, Note_on_c, 9, 42, 0
1, 191800, Note_on_c, 9, 45, 0
1, 191859, Note_on_c, 12, 60, 0
1, 191871, Note_on_c, 12, 64, 0
1, 191876, Note_on_c, 12, 67, 0
1, 191881, Note_on_c, 12, 48, 0
1, 191886, Note_on_c, 3, 72, 0
1, 191911, Note_on_c, 11, 48, 0
1, 191934, Note_on_c, 2, 72, 0
1, 191944, Note_on_c, 2, 64, 0
1, 191996, Note_on_c, 1, 36, 0
1, 192000, Lyric_t, "TRUE"
1, 192000, Lyric_t, "\015"
1, 192000, Note_on_c, 1, 33, 127
1, 192000, Note_on_c, 2, 69, 119
1, 192000, Note_on_c, 2, 72, 106
1, 192000, Note_on_c, 2, 76, 106
1, 192000, Note_on_c, 3, 72, 115
1, 192000, Note_on_c, 4, 57, 114
1, 192000, Note_on_c, 4, 64, 78
1, 192000, Note_on_c, 4, 69, 102
1, 192000, Note_on_c, 4, 72, 102
1, 192000, Note_on_c, 6, 45, 119
1, 192000, Note_on_c, 6, 52, 127
1, 192000, Note_on_c, 9, 35, 118
1, 192000, Note_on_c, 9, 49, 91
1, 192000, Note_on_c, 11, 45, 127
1, 192000, Note_on_c, 11, 60, 114
1, 192000, Note_on_c, 11, 64, 119
1, 192000, Note_on_c, 11, 69, 119
1, 192000, Note_on_c, 12, 45, 119
1, 192000, Note_on_c, 12, 57, 106
1, 192000, Note_on_c, 12, 60, 119
1, 192000, Note_on_c, 12, 64, 119
1, 192000, Note_on_c, 13, 72, 124
1, 192040, Note_on_c, 9, 35, 0
1, 192040, Note_on_c, 9, 49, 0
1, 192236, Note_on_c, 13, 72, 0
1, 192240, Note_on_c, 9, 42, 76
1, 192240, Note_on_c, 13, 72, 106
1, 192263, Note_on_c, 12, 57, 0
1, 192280, Note_on_c, 9, 42, 0
1, 192376, Note_on_c, 11, 60, 0
1, 192427, Note_on_c, 12, 60, 0
1, 192435, Note_on_c, 12, 64, 0
1, 192438, Note_on_c, 3, 72, 0
1, 192462, Note_on_c, 1, 33, 0
1, 192465, Note_on_c, 12, 45, 0
1, 192476, Note_on_c, 6, 45, 0
1, 192476, Note_on_c, 6, 52, 0
1, 192476, Note_on_c, 13, 72, 0
1, 192480, Lyric_t, "AND "
1, 192480, Note_on_c, 3, 69, 113
1, 192480, Note_on_c, 6, 45, 124
1, 192480, Note_on_c, 9, 40, 118
1, 192480, Note_on_c, 9, 42, 76
1, 192480, Note_on_c, 11, 60, 102
1, 192480, Note_on_c, 12, 57, 106
1, 192480, Note_on_c, 12, 60, 102
1, 192480, Note_on_c, 12, 64, 65
1, 192480, Note_on_c, 13, 72, 91
1, 192520, Note_on_c, 9, 40, 0
1, 192520, Note_on_c, 9, 42, 0
1, 192553, Note_on_c, 11, 64, 0
1, 192568, Note_on_c, 11, 45, 0
1, 192664, Note_on_c, 3, 69, 0
1, 192716, Note_on_c, 13, 72, 0
1, 192720, Lyric_t, "THE "
1, 192720, Note_on_c, 1, 33, 127
1, 192720, Note_on_c, 3, 72, 115
1, 192720, Note_on_c, 9, 42, 76
1, 192720, Note_on_c, 11, 45, 114
1, 192720, Note_on_c, 11, 64, 94
1, 192720, Note_on_c, 12, 45, 124
1, 192720, Note_on_c, 13, 72, 114
1, 192760, Note_on_c, 9, 42, 0
1, 192765, Note_on_c, 11, 69, 0
1, 192810, Note_on_c, 11, 60, 0
1, 192825, Note_on_c, 3, 72, 0
1, 192835, Note_on_c, 11, 64, 0
1, 192861, Note_on_c, 12, 57, 0
1, 192875, Note_on_c, 12, 60, 0
1, 192876, Note_on_c, 11, 45, 0
1, 192899, Note_on_c, 6, 45, 0
1, 192908, Note_on_c, 12, 64, 0
1, 192916, Note_on_c, 12, 45, 0
1, 192918, Note_on_c, 1, 33, 0
1, 192934, Note_on_c, 4, 57, 0
1, 192944, Note_on_c, 2, 69, 0
1, 192960, Lyric_t, "WORLD "
1, 192960, Note_on_c, 1, 31, 119
1, 192960, Note_on_c, 2, 67, 119
1, 192960, Note_on_c, 3, 74, 115
1, 192960, Note_on_c, 4, 55, 106
1, 192960, Note_on_c, 6, 43, 127
1, 192960, Note_on_c, 9, 35, 118
1, 192960, Note_on_c, 9, 42, 76
1, 192960, Note_on_c, 11, 43, 127
1, 192960, Note_on_c, 11, 60, 119
1, 192960, Note_on_c, 11, 64, 119
1, 192960, Note_on_c, 11, 69, 124
1, 192960, Note_on_c, 12, 43, 127
1, 192960, Note_on_c, 12, 57, 106
1, 192960, Note_on_c, 12, 60, 119
1, 192960, Note_on_c, 12, 64, 119
1, 193000, Note_on_c, 9, 35, 0
1, 193000, Note_on_c, 9, 42, 0
1, 193160, Note_on_c, 3, 74, 0
1, 193196, Note_on_c, 13, 72, 0
1, 193200, Lyric_t, "WILL "
1, 193200, Note_on_c, 3, 76, 112
1, 193200, Note_on_c, 9, 35, 118
1, 193200, Note_on_c, 9, 42, 76
1, 193200, Note_on_c, 13, 72, 114
1, 193223, Note_on_c, 12, 57, 0
1, 193240, Note_on_c, 9, 35, 0
1, 193240, Note_on_c, 9, 42, 0
1, 193311, Note_on_c, 11, 60, 0
1, 193373, Note_on_c, 3, 76, 0
1, 193387, Note_on_c, 12, 60, 0
1, 193395, Note_on_c, 12, 64, 0
1, 193436, Note_on_c, 6, 43, 0
1, 193440, Lyric_t, "COME "
1, 193440, Note_on_c, 3, 74, 113
1, 193440, Note_on_c, 6, 43, 127
1, 193440, Note_on_c, 9, 40, 118
1, 193440, Note_on_c, 9, 42, 76
1, 193440, Note_on_c, 11, 60, 106
1, 193440, Note_on_c, 12, 57, 106
1, 193440, Note_on_c, 12, 60, 102
1, 193440, Note_on_c, 12, 64, 65
1, 193466, Note_on_c, 1, 31, 0
1, 193470, Note_on_c, 12, 43, 0
1, 193480, Note_on_c, 9, 40, 0
1, 193480, Note_on_c, 9, 42, 0
1, 193651, Note_on_c, 11, 43, 0
1, 193659, Note_on_c, 3, 74, 0
1, 193676, Note_on_c, 13, 72, 0
1, 193680, Lyric_t, "TO "
1, 193680, Note_on_c, 1, 31, 110
1, 193680, Note_on_c, 3, 72, 115
1, 193680, Note_on_c, 9, 42, 76
1, 193680, Note_on_c, 11, 43, 87
1, 193680, Note_on_c, 12, 43, 119
1, 193680, Note_on_c, 13, 72, 106
1, 193712, Note_on_c, 11, 60, 0
1, 193720, Note_on_c, 9, 42, 0
1, 193733, Note_on_c, 11, 64, 0
1, 193759, Note_on_c, 11, 69, 0
1, 193780, Note_on_c, 3, 72, 0
1, 193821, Note_on_c, 12, 57, 0
1, 193835, Note_on_c, 12, 60, 0
1, 193836, Note_on_c, 11, 43, 0
1, 193862, Note_on_c, 12, 43, 0
1, 193868, Note_on_c, 12, 64, 0
1, 193895, Note_on_c, 2, 67, 0
1, 193901, Note_on_c, 1, 31, 0
1, 193916, Note_on_c, 6, 43, 0
1, 193916, Note_on_c, 13, 72, 0
1, 193920, Lyric_t, "YOU"
1, 193920, Lyric_t, "\015"
1, 193920, Note_on_c, 1, 30, 109
1, 193920, Note_on_c, 2, 66, 120
1, 193920, Note_on_c, 3, 74, 115
1, 193920, Note_on_c, 4, 54, 109
1, 193920, Note_on_c, 6, 42, 127
1, 193920, Note_on_c, 9, 35, 118
1, 193920, Note_on_c, 9, 42, 76
1, 193920, Note_on_c, 11, 42, 127
1, 193920, Note_on_c, 11, 60, 114
1, 193920, Note_on_c, 11, 64, 119
1, 193920, Note_on_c, 11, 69, 119
1, 193920, Note_on_c, 12, 42, 127
1, 193920, Note_on_c, 12, 60, 102
1, 193920, Note_on_c, 12, 64, 114
1, 193920, Note_on_c, 12, 69, 114
1, 193920, Note_on_c, 13, 72, 114
1, 193931, Note_on_c, 4, 55, 0
1, 193960, Note_on_c, 9, 35, 0
1, 193960, Note_on_c, 9, 42, 0
1, 194156, Note_on_c, 13, 72, 0
1, 194160, Note_on_c, 9, 42, 76
1, 194160, Note_on_c, 13, 72, 91
1, 194200, Note_on_c, 9, 42, 0
1, 194245, Note_on_c, 12, 60, 0
1, 194261, Note_on_c, 3, 74, 0
1, 194296, Note_on_c, 11, 60, 0
1, 194334, Note_on_c, 12, 64, 0
1, 194396, Note_on_c, 6, 42, 0
1, 194396, Note_on_c, 13, 72, 0
1, 194400, Lyric_t, "YOU "
1, 194400, Note_on_c, 3, 69, 107
1, 194400, Note_on_c, 6, 42, 127
1, 194400, Note_on_c, 9, 40, 118
1, 194400, Note_on_c, 9, 42, 76
1, 194400, Note_on_c, 11, 60, 102
1, 194400, Note_on_c, 12, 60, 106
1, 194400, Note_on_c, 13, 72, 99
1, 194440, Note_on_c, 9, 40, 0
1, 194440, Note_on_c, 9, 42, 0
1, 194473, Note_on_c, 11, 64, 0
1, 194491, Note_on_c, 1, 30, 0
1, 194511, Note_on_c, 12, 69, 0
1, 194563, Note_on_c, 3, 69, 0
1, 194636, Note_on_c, 13, 72, 0
1, 194640, Lyric_t, "CAN "
1, 194640, Note_on_c, 1, 30, 120
1, 194640, Note_on_c, 3, 72, 115
1, 194640, Note_on_c, 9, 42, 76
1, 194640, Note_on_c, 11, 64, 94
1, 194640, Note_on_c, 12, 64, 99
1, 194640, Note_on_c, 13, 72, 110
1, 194680, Note_on_c, 9, 42, 0
1, 194685, Note_on_c, 11, 69, 0
1, 194712, Note_on_c, 12, 42, 0
1, 194730, Note_on_c, 11, 60, 0
1, 194742, Note_on_c, 12, 64, 0
1, 194755, Note_on_c, 11, 64, 0
1, 194787, Note_on_c, 11, 42, 0
1, 194789, Note_on_c, 12, 60, 0
1, 194792, Note_on_c, 2, 76, 0
1, 194803, Note_on_c, 4, 64, 0
1, 194836, Note_on_c, 1, 30, 0
1, 194837, Note_on_c, 4, 72, 0
1, 194839, Note_on_c, 4, 69, 0
1, 194847, Note_on_c, 4, 54, 0
1, 194863, Note_on_c, 3, 72, 0
1, 194867, Note_on_c, 2, 66, 0
1, 194876, Note_on_c, 6, 42, 0
1, 194880, Lyric_t, "FIND "
1, 194880, Note_on_c, 1, 29, 109
1, 194880, Note_on_c, 2, 65, 110
1, 194880, Note_on_c, 2, 68, 101
1, 194880, Note_on_c, 3, 74, 110
1, 194880, Note_on_c, 4, 53, 106
1, 194880, Note_on_c, 4, 65, 87
1, 194880, Note_on_c, 4, 68, 109
1, 194880, Note_on_c, 4, 72, 99
1, 194880, Note_on_c, 6, 41, 124
1, 194880, Note_on_c, 9, 35, 118
1, 194880, Note_on_c, 9, 42, 76
1, 194880, Note_on_c, 11, 41, 127
1, 194880, Note_on_c, 11, 60, 119
1, 194880, Note_on_c, 11, 65, 119
1, 194880, Note_on_c, 11, 68, 124
1, 194880, Note_on_c, 12, 41, 127
1, 194880, Note_on_c, 12, 56, 110
1, 194880, Note_on_c, 12, 60, 91
1, 194880, Note_on_c, 12, 65, 127
1, 194920, Note_on_c, 9, 35, 0
1, 194920, Note_on_c, 9, 42, 0
1, 195075, Note_on_c, 3, 74, 0
1, 195116, Note_on_c, 13, 72, 0
1, 195120, Lyric_t, "IT "
1, 195120, Note_on_c, 3, 76, 113
1, 195120, Note_on_c, 9, 35, 118
1, 195120, Note_on_c, 9, 42, 76
1, 195120, Note_on_c, 13, 72, 119
1, 195160, Note_on_c, 9, 35, 0
1, 195160, Note_on_c, 9, 42, 0
1, 195231, Note_on_c, 11, 60, 0
1, 195244, Note_on_c, 12, 60, 0
1, 195277, Note_on_c, 12, 65, 0
1, 195292, Note_on_c, 12, 56, 0
1, 195356, Note_on_c, 6, 41, 0
1, 195356, Note_on_c, 13, 72, 0
1, 195360, Lyric_t, "IN "
1, 195360, Note_on_c, 3, 74, 112
1, 195360, Note_on_c, 6, 41, 124
1, 195360, Note_on_c, 9, 40, 118
1, 195360, Note_on_c, 9, 42, 76
1, 195360, Note_on_c, 11, 60, 106
1, 195360, Note_on_c, 12, 56, 94
1, 195360, Note_on_c, 12, 60, 94
1, 195360, Note_on_c, 12, 65, 99
1, 195360, Note_on_c, 13, 72, 114
1, 195371, Note_on_c, 3, 76, 0
1, 195400, Note_on_c, 9, 40, 0
1, 195400, Note_on_c, 9, 42, 0
1, 195432, Note_on_c, 12, 41, 0
1, 195451, Note_on_c, 1, 29, 0
1, 195566, Note_on_c, 3, 74, 0
1, 195573, Note_on_c, 12, 60, 0
1, 195582, Note_on_c, 12, 56, 0
1, 195592, Note_on_c, 12, 65, 0
1, 195596, Note_on_c, 13, 72, 0
1, 195600, Lyric_t, "YOUR"
1, 195600, Note_on_c, 1, 29, 120
1, 195600, Note_on_c, 3, 72, 115
1, 195600, Note_on_c, 9, 42, 76
1, 195600, Note_on_c, 12, 41, 127
1, 195600, Note_on_c, 13, 72, 110
1, 195632, Note_on_c, 11, 60, 0
1, 195640, Note_on_c, 9, 42, 0
1, 195653, Note_on_c, 11, 65, 0
1, 195679, Note_on_c, 11, 68, 0
1, 195718, Note_on_c, 11, 41, 0
1, 195722, Note_on_c, 12, 41, 0
1, 195732, Note_on_c, 3, 72, 0
1, 195752, Note_on_c, 4, 68, 0
1, 195768, Note_on_c, 4, 65, 0
1, 195772, Note_on_c, 4, 72, 0
1, 195789, Note_on_c, 2, 72, 0
1, 195796, Note_on_c, 1, 29, 0
1, 195801, Note_on_c, 2, 65, 0
1, 195808, Note_on_c, 4, 53, 0
1, 195836, Note_on_c, 2, 68, 0
1, 195836, Note_on_c, 6, 41, 0
1, 195836, Note_on_c, 13, 72, 0
1, 195840, Lyric_t, "SEL"
1, 195840, Note_on_c, 1, 36, 119
1, 195840, Note_on_c, 2, 64, 114
1, 195840, Note_on_c, 2, 72, 124
1, 195840, Note_on_c, 3, 72, 115
1, 195840, Note_on_c, 4, 60, 106
1, 195840, Note_on_c, 4, 64, 114
1, 195840, Note_on_c, 4, 67, 106
1, 195840, Note_on_c, 9, 35, 118
1, 195840, Note_on_c, 9, 49, 76
1, 195840, Note_on_c, 11, 48, 119
1, 195840, Note_on_c, 11, 55, 106
1, 195840, Note_on_c, 11, 60, 110
1, 195840, Note_on_c, 11, 64, 99
1, 195840, Note_on_c, 12, 48, 127
1, 195840, Note_on_c, 12, 60, 124
1, 195840, Note_on_c, 12, 64, 119
1, 195840, Note_on_c, 12, 67, 124
1, 195880, Note_on_c, 9, 35, 0
1, 195880, Note_on_c, 9, 49, 0
1, 196060, Note_on_c, 3, 72, 0
1, 196080, Note_on_c, 3, 67, 112
1, 196080, Note_on_c, 9, 42, 76
1, 196120, Note_on_c, 9, 42, 0
1, 196143, Note_on_c, 12, 60, 0
1, 196146, Note_on_c, 11, 55, 0
1, 196176, Note_on_c, 12, 64, 0
1, 196188, Note_on_c, 12, 67, 0
1, 196218, Note_on_c, 4, 60, 0
1, 196220, Note_on_c, 11, 60, 0
1, 196248, Note_on_c, 11, 64, 0
1, 196257, Note_on_c, 4, 64, 0
1, 196263, Note_on_c, 4, 67, 0
1, 196265, Note_on_c, 1, 36, 0
1, 196313, Note_on_c, 3, 67, 0
1, 196320, Lyric_t, "F"
1, 196320, Lyric_t, "\015"
1, 196320, Note_on_c, 1, 36, 114
1, 196320, Note_on_c, 3, 69, 112
1, 196320, Note_on_c, 6, 69, 113
1, 196320, Note_on_c, 6, 72, 115
1, 196320, Note_on_c, 6, 77, 113
1, 196320, Note_on_c, 9, 40, 118
1, 196320, Note_on_c, 9, 42, 76
1, 196320, Note_on_c, 11, 55, 81
1, 196320, Note_on_c, 11, 60, 60
1, 196320, Note_on_c, 11, 64, 41
1, 196320, Note_on_c, 12, 60, 94
1, 196320, Note_on_c, 12, 64, 94
1, 196320, Note_on_c, 12, 67, 94
1, 196360, Note_on_c, 9, 40, 0
1, 196360, Note_on_c, 9, 42, 0
1, 196362, Note_on_c, 11, 64, 0
1, 196388, Note_on_c, 11, 60, 0
1, 196412, Note_on_c, 12, 67, 0
1, 196415, Note_on_c, 12, 64, 0
1, 196421, Note_on_c, 12, 60, 0
1, 196436, Note_on_c, 6, 69, 0
1, 196436, Note_on_c, 6, 72, 0
1, 196436, Note_on_c, 6, 77, 0
1, 196440, Note_on_c, 6, 69, 98
1, 196440, Note_on_c, 6, 72, 98
1, 196440, Note_on_c, 6, 77, 98
1, 196440, Note_on_c, 11, 55, 0
1, 196508, Note_on_c, 1, 36, 0
1, 196556, Note_on_c, 6, 69, 0
1, 196556, Note_on_c, 6, 72, 0
1, 196556, Note_on_c, 6, 77, 0
1, 196560, Note_on_c, 1, 36, 114
1, 196560, Note_on_c, 6, 69, 113
1, 196560, Note_on_c, 6, 72, 117
1, 196560, Note_on_c, 6, 77, 113
1, 196560, Note_on_c, 9, 42, 76
1, 196560, Note_on_c, 11, 55, 110
1, 196560, Note_on_c, 11, 60, 127
1, 196560, Note_on_c, 11, 64, 119
1, 196560, Note_on_c, 12, 60, 119
1, 196560, Note_on_c, 12, 64, 119
1, 196560, Note_on_c, 12, 67, 124
1, 196573, Note_on_c, 3, 69, 0
1, 196600, Note_on_c, 9, 42, 0
1, 196676, Note_on_c, 6, 69, 0
1, 196676, Note_on_c, 6, 72, 0
1, 196676, Note_on_c, 6, 77, 0
1, 196680, Note_on_c, 6, 69, 98
1, 196680, Note_on_c, 6, 72, 98
1, 196680, Note_on_c, 6, 77, 98
1, 196720, Note_on_c, 1, 36, 0
1, 196796, Note_on_c, 6, 69, 0
1, 196796, Note_on_c, 6, 72, 0
1, 196796, Note_on_c, 6, 77, 0
1, 196800, Note_on_c, 1, 36, 78
1, 196800, Note_on_c, 6, 69, 124
1, 196800, Note_on_c, 6, 72, 124
1, 196800, Note_on_c, 6, 77, 124
1, 196800, Note_on_c, 9, 35, 118
1, 196800, Note_on_c, 9, 42, 76
1, 196840, Note_on_c, 9, 35, 0
1, 196840, Note_on_c, 9, 42, 0
1, 196858, Note_on_c, 12, 64, 0
1, 196861, Note_on_c, 11, 48, 0
1, 196862, Note_on_c, 12, 67, 0
1, 196865, Note_on_c, 12, 60, 0
1, 196983, Note_on_c, 11, 55, 0
1, 196993, Note_on_c, 6, 77, 0
1, 196995, Note_on_c, 6, 69, 0
1, 197002, Note_on_c, 6, 72, 0
1, 197004, Note_on_c, 1, 36, 0
1, 197011, Note_on_c, 11, 60, 0
1, 197040, Note_on_c, 1, 43, 75
1, 197040, Note_on_c, 6, 67, 127
1, 197040, Note_on_c, 6, 72, 119
1, 197040, Note_on_c, 6, 76, 119
1, 197040, Note_on_c, 9, 35, 118
1, 197040, Note_on_c, 9, 42, 76
1, 197040, Note_on_c, 11, 48, 110
1, 197040, Note_on_c, 12, 60, 110
1, 197040, Note_on_c, 12, 64, 124
1, 197040, Note_on_c, 12, 67, 127
1, 197047, Note_on_c, 11, 64, 0
1, 197059, Note_on_c, 12, 48, 0
1, 197080, Note_on_c, 9, 35, 0
1, 197080, Note_on_c, 9, 42, 0
1, 197156, Note_on_c, 6, 67, 0
1, 197156, Note_on_c, 6, 72, 0
1, 197156, Note_on_c, 6, 76, 0
1, 197238, Note_on_c, 1, 43, 0
1, 197280, Note_on_c, 1, 45, 106
1, 197280, Note_on_c, 9, 40, 118
1, 197280, Note_on_c, 9, 42, 76
1, 197280, Note_on_c, 11, 60, 119
1, 197280, Note_on_c, 11, 64, 124
1, 197280, Note_on_c, 11, 67, 119
1, 197280, Note_on_c, 12, 48, 124
1, 197313, Note_on_c, 11, 48, 0
1, 197320, Note_on_c, 9, 40, 0
1, 197320, Note_on_c, 9, 42, 0
1, 197369, Note_on_c, 12, 60, 0
1, 197471, Note_on_c, 12, 64, 0
1, 197487, Note_on_c, 11, 60, 0
1, 197495, Note_on_c, 11, 64, 0
1, 197498, Note_on_c, 11, 67, 0
1, 197515, Note_on_c, 1, 45, 0
1, 197520, Note_on_c, 1, 43, 119
1, 197520, Note_on_c, 6, 67, 127
1, 197520, Note_on_c, 6, 72, 119
1, 197520, Note_on_c, 6, 76, 119
1, 197520, Note_on_c, 9, 42, 76
1, 197520, Note_on_c, 11, 48, 124
1, 197520, Note_on_c, 12, 60, 87
1, 197520, Note_on_c, 12, 64, 52
1, 197560, Note_on_c, 9, 42, 0
1, 197619, Note_on_c, 12, 60, 0
1, 197631, Note_on_c, 12, 64, 0
1, 197636, Note_on_c, 6, 67, 0
1, 197636, Note_on_c, 6, 72, 0
1, 197636, Note_on_c, 6, 76, 0
1, 197636, Note_on_c, 12, 67, 0
1, 197641, Note_on_c, 12, 48, 0
1, 197671, Note_on_c, 11, 48, 0
1, 197674, Note_on_c, 1, 43, 0
1, 197760, Note_on_c, 1, 48, 110
1, 197760, Note_on_c, 9, 35, 118
1, 197760, Note_on_c, 9, 42, 76
1, 197760, Note_on_c, 11, 48, 119
1, 197760, Note_on_c, 11, 55, 106
1, 197760, Note_on_c, 11, 60, 110
1, 197760, Note_on_c, 11, 64, 99
1, 197760, Note_on_c, 12, 48, 127
1, 197760, Note_on_c, 12, 60, 124
1, 197760, Note_on_c, 12, 64, 119
1, 197760, Note_on_c, 12, 67, 124
1, 197800, Note_on_c, 9, 35, 0
1, 197800, Note_on_c, 9, 42, 0
1, 197880, Note_on_c, 6, 69, 98
1, 197880, Note_on_c, 6, 72, 98
1, 197880, Note_on_c, 6, 77, 98
1, 197996, Note_on_c, 1, 48, 0
1, 197996, Note_on_c, 6, 69, 0
1, 197996, Note_on_c, 6, 72, 0
1, 197996, Note_on_c, 6, 77, 0
1, 198000, Note_on_c, 1, 48, 94
1, 198000, Note_on_c, 6, 69, 113
1, 198000, Note_on_c, 6, 72, 115
1, 198000, Note_on_c, 6, 77, 113
1, 198000, Note_on_c, 9, 40, 118
1, 198000, Note_on_c, 9, 42, 76
1, 198000, Note_on_c, 9, 49, 76
1, 198040, Note_on_c, 9, 40, 0
1, 198040, Note_on_c, 9, 42, 0
1, 198040, Note_on_c, 9, 49, 0
1, 198063, Note_on_c, 12, 60, 0
1, 198066, Note_on_c, 11, 55, 0
1, 198096, Note_on_c, 12, 64, 0
1, 198108, Note_on_c, 12, 67, 0
1, 198116, Note_on_c, 6, 69, 0
1, 198116, Note_on_c, 6, 72, 0
1, 198116, Note_on_c, 6, 77, 0
1, 198120, Note_on_c, 6, 69, 98
1, 198120, Note_on_c, 6, 72, 98
1, 198120, Note_on_c, 6, 77, 98
1, 198140, Note_on_c, 11, 60, 0
1, 198168, Note_on_c, 11, 64, 0
1, 198236, Note_on_c, 1, 48, 0
1, 198236, Note_on_c, 6, 69, 0
1, 198236, Note_on_c, 6, 72, 0
1, 198236, Note_on_c, 6, 77, 0
1, 198240, Note_on_c, 1, 48, 110
1, 198240, Note_on_c, 6, 69, 113
1, 198240, Note_on_c, 6, 72, 115
1, 198240, Note_on_c, 6, 77, 113
1, 198240, Note_on_c, 9, 35, 118
1, 198240, Note_on_c, 9, 42, 76
1, 198240, Note_on_c, 11, 55, 81
1, 198240, Note_on_c, 11, 60, 60
1, 198240, Note_on_c, 11, 64, 41
1, 198240, Note_on_c, 12, 60, 94
1, 198240, Note_on_c, 12, 64, 94
1, 198240, Note_on_c, 12, 67, 94
1, 198280, Note_on_c, 9, 35, 0
1, 198280, Note_on_c, 9, 42, 0
1, 198282, Note_on_c, 11, 64, 0
1, 198308, Note_on_c, 11, 60, 0
1, 198332, Note_on_c, 12, 67, 0
1, 198335, Note_on_c, 12, 64, 0
1, 198341, Note_on_c, 12, 60, 0
1, 198356, Note_on_c, 6, 69, 0
1, 198356, Note_on_c, 6, 72, 0
1, 198356, Note_on_c, 6, 77, 0
1, 198360, Note_on_c, 6, 69, 98
1, 198360, Note_on_c, 6, 72, 98
1, 198360, Note_on_c, 6, 77, 98
1, 198360, Note_on_c, 11, 55, 0
1, 198476, Note_on_c, 1, 48, 0
1, 198476, Note_on_c, 6, 69, 0
1, 198476, Note_on_c, 6, 72, 0
1, 198476, Note_on_c, 6, 77, 0
1, 198480, Note_on_c, 1, 45, 106
1, 198480, Note_on_c, 6, 69, 113
1, 198480, Note_on_c, 6, 72, 117
1, 198480, Note_on_c, 6, 77, 113
1, 198480, Note_on_c, 9, 35, 118
1, 198480, Note_on_c, 9, 42, 76
1, 198480, Note_on_c, 11, 55, 110
1, 198480, Note_on_c, 11, 60, 127
1, 198480, Note_on_c, 11, 64, 119
1, 198480, Note_on_c, 12, 60, 119
1, 198480, Note_on_c, 12, 64, 119
1, 198480, Note_on_c, 12, 67, 124
1, 198520, Note_on_c, 9, 35, 0
1, 198520, Note_on_c, 9, 42, 0
1, 198596, Note_on_c, 6, 69, 0
1, 198596, Note_on_c, 6, 72, 0
1, 198596, Note_on_c, 6, 77, 0
1, 198600, Note_on_c, 6, 69, 98
1, 198600, Note_on_c, 6, 72, 98
1, 198600, Note_on_c, 6, 77, 98
1, 198716, Note_on_c, 1, 45, 0
1, 198716, Note_on_c, 6, 69, 0
1, 198716, Note_on_c, 6, 72, 0
1, 198716, Note_on_c, 6, 77, 0
1, 198720, Note_on_c, 1, 43, 114
1, 198720, Note_on_c, 6, 69, 124
1, 198720, Note_on_c, 6, 72, 124
1, 198720, Note_on_c, 6, 77, 124
1, 198720, Note_on_c, 9, 35, 118
1, 198720, Note_on_c, 9, 40, 118
1, 198720, Note_on_c, 9, 42, 76
1, 198744, Lyric_t, "LO"
1, 198744, Note_on_c, 3, 81, 110
1, 198760, Note_on_c, 9, 35, 0
1, 198760, Note_on_c, 9, 40, 0
1, 198760, Note_on_c, 9, 42, 0
1, 198778, Note_on_c, 12, 64, 0
1, 198781, Note_on_c, 11, 48, 0
1, 198782, Note_on_c, 12, 67, 0
1, 198785, Note_on_c, 12, 60, 0
1, 198903, Note_on_c, 11, 55, 0
1, 198913, Note_on_c, 6, 77, 0
1, 198915, Note_on_c, 6, 69, 0
1, 198922, Note_on_c, 6, 72, 0
1, 198931, Note_on_c, 11, 60, 0
1, 198956, Note_on_c, 1, 43, 0
1, 198960, Note_on_c, 1, 40, 114
1, 198960, Note_on_c, 6, 67, 127
1, 198960, Note_on_c, 6, 72, 119
1, 198960, Note_on_c, 6, 76, 119
1, 198960, Note_on_c, 9, 40, 76
1, 198960, Note_on_c, 9, 42, 76
1, 198960, Note_on_c, 11, 48, 110
1, 198960, Note_on_c, 12, 60, 110
1, 198960, Note_on_c, 12, 64, 124
1, 198960, Note_on_c, 12, 67, 127
1, 198967, Note_on_c, 11, 64, 0
1, 198979, Note_on_c, 12, 48, 0
1, 198980, Note_on_c, 3, 81, 0
1, 198984, Lyric_t, "VE "
1, 198984, Note_on_c, 3, 79, 110
1, 199000, Note_on_c, 9, 40, 0
1, 199000, Note_on_c, 9, 42, 0
1, 199076, Note_on_c, 6, 67, 0
1, 199076, Note_on_c, 6, 72, 0
1, 199076, Note_on_c, 6, 76, 0
1, 199080, Note_on_c, 9, 40, 76
1, 199120, Note_on_c, 9, 40, 0
1, 199196, Note_on_c, 1, 40, 0
1, 199200, Note_on_c, 1, 38, 106
1, 199200, Note_on_c, 9, 40, 118
1, 199200, Note_on_c, 9, 42, 76
1, 199200, Note_on_c, 9, 57, 76
1, 199200, Note_on_c, 11, 60, 119
1, 199200, Note_on_c, 11, 64, 124
1, 199200, Note_on_c, 11, 67, 119
1, 199200, Note_on_c, 12, 48, 124
1, 199219, Note_on_c, 3, 79, 0
1, 199224, Lyric_t, "WHAT "
1, 199224, Note_on_c, 3, 76, 107
1, 199233, Note_on_c, 11, 48, 0
1, 199240, Note_on_c, 9, 40, 0
1, 199240, Note_on_c, 9, 42, 0
1, 199240, Note_on_c, 9, 57, 0
1, 199289, Note_on_c, 12, 60, 0
1, 199391, Note_on_c, 12, 64, 0
1, 199407, Note_on_c, 11, 60, 0
1, 199415, Note_on_c, 11, 64, 0
1, 199418, Note_on_c, 11, 67, 0
1, 199432, Note_on_c, 3, 76, 0
1, 199436, Note_on_c, 1, 38, 0
1, 199440, Note_on_c, 1, 36, 124
1, 199440, Note_on_c, 9, 42, 76
1, 199440, Note_on_c, 9, 45, 76
1, 199440, Note_on_c, 11, 48, 124
1, 199440, Note_on_c, 12, 60, 87
1, 199440, Note_on_c, 12, 64, 52
1, 199446, Lyric_t, "IS "
1, 199446, Note_on_c, 3, 74, 107
1, 199480, Note_on_c, 9, 42, 0
1, 199480, Note_on_c, 9, 45, 0
1, 199512, Note_on_c, 3, 74, 0
1, 199539, Note_on_c, 12, 60, 0
1, 199551, Note_on_c, 12, 64, 0
1, 199556, Note_on_c, 12, 67, 0
1, 199560, Note_on_c, 9, 43, 118
1, 199561, Note_on_c, 12, 48, 0
1, 199591, Note_on_c, 11, 48, 0
1, 199600, Note_on_c, 9, 43, 0
1, 199614, Note_on_c, 2, 72, 0
1, 199624, Note_on_c, 2, 64, 0
1, 199676, Note_on_c, 1, 36, 0
1, 199680, Lyric_t, "TRUE"
1, 199680, Lyric_t, "\015"
1, 199680, Note_on_c, 1, 33, 127
1, 199680, Note_on_c, 2, 69, 119
1, 199680, Note_on_c, 2, 72, 106
1, 199680, Note_on_c, 2, 76, 106
1, 199680, Note_on_c, 3, 72, 115
1, 199680, Note_on_c, 4, 57, 114
1, 199680, Note_on_c, 4, 64, 78
1, 199680, Note_on_c, 4, 69, 102
1, 199680, Note_on_c, 4, 72, 102
1, 199680, Note_on_c, 6, 45, 119
1, 199680, Note_on_c, 6, 52, 127
1, 199680, Note_on_c, 9, 35, 118
1, 199680, Note_on_c, 9, 49, 76
1, 199680, Note_on_c, 11, 45, 127
1, 199680, Note_on_c, 11, 60, 114
1, 199680, Note_on_c, 11, 64, 119
1, 199680, Note_on_c, 11, 69, 119
1, 199680, Note_on_c, 12, 45, 119
1, 199680, Note_on_c, 12, 57, 106
1, 199680, Note_on_c, 12, 60, 119
1, 199680, Note_on_c, 12, 64, 119
1, 199680, Note_on_c, 13, 72, 124
1, 199720, Note_on_c, 9, 35, 0
1, 199720, Note_on_c, 9, 49, 0
1, 199916, Note_on_c, 13, 72, 0
1, 199920, Note_on_c, 9, 42, 76
1, 199920, Note_on_c, 13, 72, 106
1, 199943, Note_on_c, 12, 57, 0
1, 199960, Note_on_c, 9, 42, 0
1, 200056, Note_on_c, 11, 60, 0
1, 200107, Note_on_c, 12, 60, 0
1, 200115, Note_on_c, 12, 64, 0
1, 200118, Note_on_c, 3, 72, 0
1, 200142, Note_on_c, 1, 33, 0
1, 200145, Note_on_c, 12, 45, 0
1, 200156, Note_on_c, 6, 45, 0
1, 200156, Note_on_c, 6, 52, 0
1, 200156, Note_on_c, 13, 72, 0
1, 200160, Lyric_t, "AND "
1, 200160, Note_on_c, 3, 69, 113
1, 200160, Note_on_c, 6, 45, 124
1, 200160, Note_on_c, 9, 40, 118
1, 200160, Note_on_c, 9, 42, 76
1, 200160, Note_on_c, 11, 60, 102
1, 200160, Note_on_c, 12, 57, 106
1, 200160, Note_on_c, 12, 60, 102
1, 200160, Note_on_c, 12, 64, 65
1, 200160, Note_on_c, 13, 72, 91
1, 200200, Note_on_c, 9, 40, 0
1, 200200, Note_on_c, 9, 42, 0
1, 200233, Note_on_c, 11, 64, 0
1, 200248, Note_on_c, 11, 45, 0
1, 200344, Note_on_c, 3, 69, 0
1, 200396, Note_on_c, 13, 72, 0
1, 200400, Lyric_t, "THE "
1, 200400, Note_on_c, 1, 33, 127
1, 200400, Note_on_c, 3, 72, 115
1, 200400, Note_on_c, 9, 42, 76
1, 200400, Note_on_c, 11, 45, 114
1, 200400, Note_on_c, 11, 64, 94
1, 200400, Note_on_c, 12, 45, 124
1, 200400, Note_on_c, 13, 72, 114
1, 200440, Note_on_c, 9, 42, 0
1, 200445, Note_on_c, 11, 69, 0
1, 200490, Note_on_c, 11, 60, 0
1, 200505, Note_on_c, 3, 72, 0
1, 200515, Note_on_c, 11, 64, 0
1, 200541, Note_on_c, 12, 57, 0
1, 200555, Note_on_c, 12, 60, 0
1, 200556, Note_on_c, 11, 45, 0
1, 200579, Note_on_c, 6, 45, 0
1, 200588, Note_on_c, 12, 64, 0
1, 200596, Note_on_c, 12, 45, 0
1, 200598, Note_on_c, 1, 33, 0
1, 200614, Note_on_c, 4, 57, 0
1, 200624, Note_on_c, 2, 69, 0
1, 200640, Lyric_t, "WORLD "
1, 200640, Note_on_c, 1, 31, 119
1, 200640, Note_on_c, 2, 67, 119
1, 200640, Note_on_c, 3, 74, 115
1, 200640, Note_on_c, 4, 55, 106
1, 200640, Note_on_c, 6, 43, 127
1, 200640, Note_on_c, 9, 35, 118
1, 200640, Note_on_c, 9, 42, 76
1, 200640, Note_on_c, 11, 43, 127
1, 200640, Note_on_c, 11, 60, 119
1, 200640, Note_on_c, 11, 64, 119
1, 200640, Note_on_c, 11, 69, 124
1, 200640, Note_on_c, 12, 43, 127
1, 200640, Note_on_c, 12, 57, 106
1, 200640, Note_on_c, 12, 60, 119
1, 200640, Note_on_c, 12, 64, 119
1, 200680, Note_on_c, 9, 35, 0
1, 200680, Note_on_c, 9, 42, 0
1, 200840, Note_on_c, 3, 74, 0
1, 200876, Note_on_c, 13, 72, 0
1, 200880, Lyric_t, "WILL "
1, 200880, Note_on_c, 3, 76, 112
1, 200880, Note_on_c, 9, 35, 118
1, 200880, Note_on_c, 9, 42, 76
1, 200880, Note_on_c, 13, 72, 114
1, 200903, Note_on_c, 12, 57, 0
1, 200920, Note_on_c, 9, 35, 0
1, 200920, Note_on_c, 9, 42, 0
1, 200991, Note_on_c, 11, 60, 0
1, 201053, Note_on_c, 3, 76, 0
1, 201067, Note_on_c, 12, 60, 0
1, 201075, Note_on_c, 12, 64, 0
1, 201116, Note_on_c, 6, 43, 0
1, 201120, Lyric_t, "COME "
1, 201120, Note_on_c, 3, 74, 113
1, 201120, Note_on_c, 6, 43, 127
1, 201120, Note_on_c, 9, 40, 118
1, 201120, Note_on_c, 9, 42, 76
1, 201120, Note_on_c, 11, 60, 106
1, 201120, Note_on_c, 12, 57, 106
1, 201120, Note_on_c, 12, 60, 102
1, 201120, Note_on_c, 12, 64, 65
1, 201146, Note_on_c, 1, 31, 0
1, 201150, Note_on_c, 12, 43, 0
1, 201160, Note_on_c, 9, 40, 0
1, 201160, Note_on_c, 9, 42, 0
1, 201331, Note_on_c, 11, 43, 0
1, 201339, Note_on_c, 3, 74, 0
1, 201356, Note_on_c, 13, 72, 0
1, 201360, Lyric_t, "TO "
1, 201360, Note_on_c, 1, 31, 110
1, 201360, Note_on_c, 3, 72, 115
1, 201360, Note_on_c, 9, 42, 76
1, 201360, Note_on_c, 11, 43, 87
1, 201360, Note_on_c, 12, 43, 119
1, 201360, Note_on_c, 13, 72, 106
1, 201392, Note_on_c, 11, 60, 0
1, 201400, Note_on_c, 9, 42, 0
1, 201413, Note_on_c, 11, 64, 0
1, 201439, Note_on_c, 11, 69, 0
1, 201460, Note_on_c, 3, 72, 0
1, 201501, Note_on_c, 12, 57, 0
1, 201515, Note_on_c, 12, 60, 0
1, 201516, Note_on_c, 11, 43, 0
1, 201542, Note_on_c, 12, 43, 0
1, 201548, Note_on_c, 12, 64, 0
1, 201575, Note_on_c, 2, 67, 0
1, 201581, Note_on_c, 1, 31, 0
1, 201596, Note_on_c, 6, 43, 0
1, 201596, Note_on_c, 13, 72, 0
1, 201600, Lyric_t, "YOU"
1, 201600, Lyric_t, "\015"
1, 201600, Note_on_c, 1, 30, 109
1, 201600, Note_on_c, 2, 66, 120
1, 201600, Note_on_c, 3, 74, 115
1, 201600, Note_on_c, 4, 54, 109
1, 201600, Note_on_c, 6, 42, 127
1, 201600, Note_on_c, 9, 35, 118
1, 201600, Note_on_c, 9, 42, 76
1, 201600, Note_on_c, 11, 42, 127
1, 201600, Note_on_c, 11, 60, 114
1, 201600, Note_on_c, 11, 64, 119
1, 201600, Note_on_c, 11, 69, 119
1, 201600, Note_on_c, 12, 42, 127
1, 201600, Note_on_c, 12, 60, 102
1, 201600, Note_on_c, 12, 64, 114
1, 201600, Note_on_c, 12, 69, 114
1, 201600, Note_on_c, 13, 72, 114
1, 201611, Note_on_c, 4, 55, 0
1, 201640, Note_on_c, 9, 35, 0
1, 201640, Note_on_c, 9, 42, 0
1, 201836, Note_on_c, 13, 72, 0
1, 201840, Note_on_c, 9, 42, 76
1, 201840, Note_on_c, 13, 72, 91
1, 201880, Note_on_c, 9, 42, 0
1, 201925, Note_on_c, 12, 60, 0
1, 201941, Note_on_c, 3, 74, 0
1, 201976, Note_on_c, 11, 60, 0
1, 202014, Note_on_c, 12, 64, 0
1, 202076, Note_on_c, 6, 42, 0
1, 202076, Note_on_c, 13, 72, 0
1, 202080, Lyric_t, "YOU "
1, 202080, Note_on_c, 3, 69, 107
1, 202080, Note_on_c, 6, 42, 127
1, 202080, Note_on_c, 9, 40, 118
1, 202080, Note_on_c, 9, 42, 76
1, 202080, Note_on_c, 11, 60, 102
1, 202080, Note_on_c, 12, 60, 106
1, 202080, Note_on_c, 13, 72, 99
1, 202120, Note_on_c, 9, 40, 0
1, 202120, Note_on_c, 9, 42, 0
1, 202153, Note_on_c, 11, 64, 0
1, 202171, Note_on_c, 1, 30, 0
1, 202191, Note_on_c, 12, 69, 0
1, 202243, Note_on_c, 3, 69, 0
1, 202316, Note_on_c, 13, 72, 0
1, 202320, Lyric_t, "CAN "
1, 202320, Note_on_c, 1, 30, 120
1, 202320, Note_on_c, 3, 72, 115
1, 202320, Note_on_c, 9, 42, 76
1, 202320, Note_on_c, 11, 64, 94
1, 202320, Note_on_c, 12, 64, 99
1, 202320, Note_on_c, 13, 72, 110
1, 202360, Note_on_c, 9, 42, 0
1, 202365, Note_on_c, 11, 69, 0
1, 202392, Note_on_c, 12, 42, 0
1, 202410, Note_on_c, 11, 60, 0
1, 202422, Note_on_c, 12, 64, 0
1, 202435, Note_on_c, 11, 64, 0
1, 202467, Note_on_c, 11, 42, 0
1, 202469, Note_on_c, 12, 60, 0
1, 202472, Note_on_c, 2, 76, 0
1, 202483, Note_on_c, 4, 64, 0
1, 202516, Note_on_c, 1, 30, 0
1, 202517, Note_on_c, 4, 72, 0
1, 202519, Note_on_c, 4, 69, 0
1, 202527, Note_on_c, 4, 54, 0
1, 202543, Note_on_c, 3, 72, 0
1, 202547, Note_on_c, 2, 66, 0
1, 202556, Note_on_c, 6, 42, 0
1, 202560, Lyric_t, "FIND "
1, 202560, Note_on_c, 1, 29, 109
1, 202560, Note_on_c, 2, 65, 110
1, 202560, Note_on_c, 2, 68, 101
1, 202560, Note_on_c, 3, 74, 110
1, 202560, Note_on_c, 4, 53, 106
1, 202560, Note_on_c, 4, 65, 87
1, 202560, Note_on_c, 4, 68, 109
1, 202560, Note_on_c, 4, 72, 99
1, 202560, Note_on_c, 6, 41, 124
1, 202560, Note_on_c, 9, 35, 118
1, 202560, Note_on_c, 9, 42, 76
1, 202560, Note_on_c, 11, 41, 127
1, 202560, Note_on_c, 11, 60, 119
1, 202560, Note_on_c, 11, 65, 119
1, 202560, Note_on_c, 11, 68, 124
1, 202560, Note_on_c, 12, 41, 127
1, 202560, Note_on_c, 12, 56, 110
1, 202560, Note_on_c, 12, 60, 91
1, 202560, Note_on_c, 12, 65, 127
1, 202600, Note_on_c, 9, 35, 0
1, 202600, Note_on_c, 9, 42, 0
1, 202755, Note_on_c, 3, 74, 0
1, 202796, Note_on_c, 13, 72, 0
1, 202800, Lyric_t, "IT "
1, 202800, Note_on_c, 3, 76, 113
1, 202800, Note_on_c, 9, 35, 118
1, 202800, Note_on_c, 9, 42, 76
1, 202800, Note_on_c, 13, 72, 119
1, 202840, Note_on_c, 9, 35, 0
1, 202840, Note_on_c, 9, 42, 0
1, 202911, Note_on_c, 11, 60, 0
1, 202924, Note_on_c, 12, 60, 0
1, 202957, Note_on_c, 12, 65, 0
1, 202972, Note_on_c, 12, 56, 0
1, 203036, Note_on_c, 6, 41, 0
1, 203036, Note_on_c, 13, 72, 0
1, 203040, Lyric_t, "IN "
1, 203040, Note_on_c, 3, 74, 112
1, 203040, Note_on_c, 6, 41, 124
1, 203040, Note_on_c, 9, 40, 118
1, 203040, Note_on_c, 9, 42, 76
1, 203040, Note_on_c, 11, 60, 106
1, 203040, Note_on_c, 12, 56, 94
1, 203040, Note_on_c, 12, 60, 94
1, 203040, Note_on_c, 12, 65, 99
1, 203040, Note_on_c, 13, 72, 114
1, 203051, Note_on_c, 3, 76, 0
1, 203080, Note_on_c, 9, 40, 0
1, 203080, Note_on_c, 9, 42, 0
1, 203112, Note_on_c, 12, 41, 0
1, 203131, Note_on_c, 1, 29, 0
1, 203246, Note_on_c, 3, 74, 0
1, 203253, Note_on_c, 12, 60, 0
1, 203262, Note_on_c, 12, 56, 0
1, 203272, Note_on_c, 12, 65, 0
1, 203276, Note_on_c, 13, 72, 0
1, 203280, Lyric_t, "YOUR"
1, 203280, Note_on_c, 1, 29, 120
1, 203280, Note_on_c, 3, 72, 115
1, 203280, Note_on_c, 9, 42, 76
1, 203280, Note_on_c, 12, 41, 127
1, 203280, Note_on_c, 13, 72, 110
1, 203312, Note_on_c, 11, 60, 0
1, 203320, Note_on_c, 9, 42, 0
1, 203333, Note_on_c, 11, 65, 0
1, 203359, Note_on_c, 11, 68, 0
1, 203398, Note_on_c, 11, 41, 0
1, 203402, Note_on_c, 12, 41, 0
1, 203412, Note_on_c, 3, 72, 0
1, 203432, Note_on_c, 4, 68, 0
1, 203448, Note_on_c, 4, 65, 0
1, 203452, Note_on_c, 4, 72, 0
1, 203469, Note_on_c, 2, 72, 0
1, 203476, Note_on_c, 1, 29, 0
1, 203481, Note_on_c, 2, 65, 0
1, 203488, Note_on_c, 4, 53, 0
1, 203516, Note_on_c, 2, 68, 0
1, 203516, Note_on_c, 6, 41, 0
1, 203516, Note_on_c, 13, 72, 0
1, 203520, Lyric_t, "SEL"
1, 203520, Note_on_c, 1, 36, 119
1, 203520, Note_on_c, 2, 64, 114
1, 203520, Note_on_c, 2, 72, 124
1, 203520, Note_on_c, 3, 72, 115
1, 203520, Note_on_c, 4, 60, 106
1, 203520, Note_on_c, 4, 64, 114
1, 203520, Note_on_c, 4, 67, 106
1, 203520, Note_on_c, 9, 35, 118
1, 203520, Note_on_c, 9, 42, 76
1, 203520, Note_on_c, 11, 48, 119
1, 203520, Note_on_c, 11, 55, 106
1, 203520, Note_on_c, 11, 60, 110
1, 203520, Note_on_c, 11, 64, 99
1, 203520, Note_on_c, 12, 48, 127
1, 203520, Note_on_c, 12, 60, 124
1, 203520, Note_on_c, 12, 64, 119
1, 203520, Note_on_c, 12, 67, 124
1, 203560, Note_on_c, 9, 35, 0
1, 203560, Note_on_c, 9, 42, 0
1, 203740, Note_on_c, 3, 72, 0
1, 203760, Note_on_c, 3, 67, 112
1, 203760, Note_on_c, 9, 42, 76
1, 203800, Note_on_c, 9, 42, 0
1, 203823, Note_on_c, 12, 60, 0
1, 203826, Note_on_c, 11, 55, 0
1, 203856, Note_on_c, 12, 64, 0
1, 203868, Note_on_c, 12, 67, 0
1, 203898, Note_on_c, 4, 60, 0
1, 203900, Note_on_c, 11, 60, 0
1, 203928, Note_on_c, 11, 64, 0
1, 203937, Note_on_c, 4, 64, 0
1, 203943, Note_on_c, 4, 67, 0
1, 203945, Note_on_c, 1, 36, 0
1, 203993, Note_on_c, 3, 67, 0
1, 204000, Lyric_t, "F"
1, 204000, Lyric_t, "\015"
1, 204000, Note_on_c, 1, 36, 114
1, 204000, Note_on_c, 3, 69, 112
1, 204000, Note_on_c, 6, 69, 113
1, 204000, Note_on_c, 6, 72, 115
1, 204000, Note_on_c, 6, 77, 113
1, 204000, Note_on_c, 9, 40, 118
1, 204000, Note_on_c, 9, 42, 76
1, 204000, Note_on_c, 11, 55, 81
1, 204000, Note_on_c, 11, 60, 60
1, 204000, Note_on_c, 11, 64, 41
1, 204000, Note_on_c, 12, 60, 94
1, 204000, Note_on_c, 12, 64, 94
1, 204000, Note_on_c, 12, 67, 94
1, 204040, Note_on_c, 9, 40, 0
1, 204040, Note_on_c, 9, 42, 0
1, 204042, Note_on_c, 11, 64, 0
1, 204068, Note_on_c, 11, 60, 0
1, 204092, Note_on_c, 12, 67, 0
1, 204095, Note_on_c, 12, 64, 0
1, 204101, Note_on_c, 12, 60, 0
1, 204116, Note_on_c, 6, 69, 0
1, 204116, Note_on_c, 6, 72, 0
1, 204116, Note_on_c, 6, 77, 0
1, 204120, Note_on_c, 6, 69, 98
1, 204120, Note_on_c, 6, 72, 98
1, 204120, Note_on_c, 6, 77, 98
1, 204120, Note_on_c, 11, 55, 0
1, 204188, Note_on_c, 1, 36, 0
1, 204236, Note_on_c, 6, 69, 0
1, 204236, Note_on_c, 6, 72, 0
1, 204236, Note_on_c, 6, 77, 0
1, 204240, Note_on_c, 1, 36, 114
1, 204240, Note_on_c, 6, 69, 113
1, 204240, Note_on_c, 6, 72, 117
1, 204240, Note_on_c, 6, 77, 113
1, 204240, Note_on_c, 9, 42, 76
1, 204240, Note_on_c, 11, 55, 110
1, 204240, Note_on_c, 11, 60, 127
1, 204240, Note_on_c, 11, 64, 119
1, 204240, Note_on_c, 12, 60, 119
1, 204240, Note_on_c, 12, 64, 119
1, 204240, Note_on_c, 12, 67, 124
1, 204253, Note_on_c, 3, 69, 0
1, 204280, Note_on_c, 9, 42, 0
1, 204356, Note_on_c, 6, 69, 0
1, 204356, Note_on_c, 6, 72, 0
1, 204356, Note_on_c, 6, 77, 0
1, 204360, Note_on_c, 6, 69, 98
1, 204360, Note_on_c, 6, 72, 98
1, 204360, Note_on_c, 6, 77, 98
1, 204400, Note_on_c, 1, 36, 0
1, 204476, Note_on_c, 6, 69, 0
1, 204476, Note_on_c, 6, 72, 0
1, 204476, Note_on_c, 6, 77, 0
1, 204480, Note_on_c, 1, 36, 78
1, 204480, Note_on_c, 6, 69, 124
1, 204480, Note_on_c, 6, 72, 124
1, 204480, Note_on_c, 6, 77, 124
1, 204480, Note_on_c, 9, 35, 118
1, 204480, Note_on_c, 9, 42, 76
1, 204520, Note_on_c, 9, 35, 0
1, 204520, Note_on_c, 9, 42, 0
1, 204538, Note_on_c, 12, 64, 0
1, 204541, Note_on_c, 11, 48, 0
1, 204542, Note_on_c, 12, 67, 0
1, 204545, Note_on_c, 12, 60, 0
1, 204663, Note_on_c, 11, 55, 0
1, 204673, Note_on_c, 6, 77, 0
1, 204675, Note_on_c, 6, 69, 0
1, 204682, Note_on_c, 6, 72, 0
1, 204684, Note_on_c, 1, 36, 0
1, 204691, Note_on_c, 11, 60, 0
1, 204720, Note_on_c, 1, 43, 75
1, 204720, Note_on_c, 6, 67, 127
1, 204720, Note_on_c, 6, 72, 119
1, 204720, Note_on_c, 6, 76, 119
1, 204720, Note_on_c, 9, 35, 118
1, 204720, Note_on_c, 9, 42, 76
1, 204720, Note_on_c, 11, 48, 110
1, 204720, Note_on_c, 12, 60, 110
1, 204720, Note_on_c, 12, 64, 124
1, 204720, Note_on_c, 12, 67, 127
1, 204727, Note_on_c, 11, 64, 0
1, 204739, Note_on_c, 12, 48, 0
1, 204760, Note_on_c, 9, 35, 0
1, 204760, Note_on_c, 9, 42, 0
1, 204836, Note_on_c, 6, 67, 0
1, 204836, Note_on_c, 6, 72, 0
1, 204836, Note_on_c, 6, 76, 0
1, 204918, Note_on_c, 1, 43, 0
1, 204960, Note_on_c, 1, 45, 106
1, 204960, Note_on_c, 9, 40, 118
1, 204960, Note_on_c, 9, 42, 76
1, 204960, Note_on_c, 11, 60, 119
1, 204960, Note_on_c, 11, 64, 124
1, 204960, Note_on_c, 11, 67, 119
1, 204960, Note_on_c, 12, 48, 124
1, 204993, Note_on_c, 11, 48, 0
1, 205000, Note_on_c, 9, 40, 0
1, 205000, Note_on_c, 9, 42, 0
1, 205049, Note_on_c, 12, 60, 0
1, 205151, Note_on_c, 12, 64, 0
1, 205167, Note_on_c, 11, 60, 0
1, 205175, Note_on_c, 11, 64, 0
1, 205178, Note_on_c, 11, 67, 0
1, 205195, Note_on_c, 1, 45, 0
1, 205200, Note_on_c, 1, 43, 119
1, 205200, Note_on_c, 6, 67, 127
1, 205200, Note_on_c, 6, 72, 119
1, 205200, Note_on_c, 6, 76, 119
1, 205200, Note_on_c, 9, 42, 76
1, 205200, Note_on_c, 11, 48, 124
1, 205200, Note_on_c, 12, 60, 87
1, 205200, Note_on_c, 12, 64, 52
1, 205240, Note_on_c, 9, 42, 0
1, 205299, Note_on_c, 12, 60, 0
1, 205311, Note_on_c, 12, 64, 0
1, 205316, Note_on_c, 6, 67, 0
1, 205316, Note_on_c, 6, 72, 0
1, 205316, Note_on_c, 6, 76, 0
1, 205316, Note_on_c, 12, 67, 0
1, 205321, Note_on_c, 12, 48, 0
1, 205351, Note_on_c, 11, 48, 0
1, 205354, Note_on_c, 1, 43, 0
1, 205440, Note_on_c, 1, 36, 110
1, 205440, Note_on_c, 9, 40, 118
1, 205440, Note_on_c, 9, 49, 76
1, 205440, Note_on_c, 11, 48, 119
1, 205440, Note_on_c, 11, 55, 106
1, 205440, Note_on_c, 11, 60, 110
1, 205440, Note_on_c, 11, 64, 99
1, 205440, Note_on_c, 12, 48, 127
1, 205440, Note_on_c, 12, 60, 124
1, 205440, Note_on_c, 12, 64, 119
1, 205440, Note_on_c, 12, 67, 124
1, 205480, Note_on_c, 9, 40, 0
1, 205480, Note_on_c, 9, 49, 0
1, 205676, Note_on_c, 1, 36, 0
1, 205689, Lyric_t, "NO "
1, 205689, Note_on_c, 3, 81, 111
1, 205699, Note_on_c, 12, 48, 0
1, 205743, Note_on_c, 12, 60, 0
1, 205746, Note_on_c, 11, 55, 0
1, 205776, Note_on_c, 12, 64, 0
1, 205788, Note_on_c, 12, 67, 0
1, 205820, Note_on_c, 11, 60, 0
1, 205848, Note_on_c, 11, 64, 0
1, 205854, Note_on_c, 2, 72, 0
1, 205861, Note_on_c, 11, 48, 0
1, 205864, Note_on_c, 2, 64, 0
1, 206108, Note_on_c, 3, 81, 0
1, 206124, Lyric_t, "NO "
1, 206124, Note_on_c, 3, 79, 110
1, 206308, Note_on_c, 3, 79, 0
1, 206400, Note_on_c, 9, 40, 118
1, 206400, Note_on_c, 9, 49, 76
1, 206417, Lyric_t, "NO "
1, 206417, Note_on_c, 3, 76, 105
1, 206440, Note_on_c, 9, 40, 0
1, 206440, Note_on_c, 9, 49, 0
1, 206640, Note_on_c, 9, 35, 118
1, 206680, Note_on_c, 9, 35, 0
1, 206862, Note_on_c, 3, 76, 0
1, 206880, Note_on_c, 9, 40, 118
1, 206882, Lyric_t, "NO "
1, 206882, Note_on_c, 3, 74, 107
1, 206920, Note_on_c, 9, 40, 0
1, 207000, Note_on_c, 9, 40, 118
1, 207040, Note_on_c, 9, 40, 0
1, 207120, Note_on_c, 9, 40, 118
1, 207160, Note_on_c, 9, 40, 0
1, 207240, Note_on_c, 9, 40, 118
1, 207280, Note_on_c, 9, 40, 0
1, 207360, Note_on_c, 1, 29, 127
1, 207360, Note_on_c, 4, 57, 114
1, 207360, Note_on_c, 4, 69, 124
1, 207360, Note_on_c, 5, 57, 114
1, 207360, Note_on_c, 5, 69, 124
1, 207360, Note_on_c, 6, 41, 110
1, 207360, Note_on_c, 6, 48, 119
1, 207360, Note_on_c, 9, 35, 118
1, 207360, Note_on_c, 9, 49, 91
1, 207360, Note_on_c, 12, 41, 127
1, 207400, Note_on_c, 9, 35, 0
1, 207400, Note_on_c, 9, 49, 0
1, 207405, Note_on_c, 3, 74, 0
1, 207409, Lyric_t, "NO"
1, 207409, Lyric_t, "\015"
1, 207409, Note_on_c, 3, 72, 109
1, 207596, Note_on_c, 6, 41, 0
1, 207596, Note_on_c, 6, 48, 0
1, 207600, Note_on_c, 6, 41, 110
1, 207600, Note_on_c, 6, 48, 119
1, 207600, Note_on_c, 6, 53, 60
1, 207600, Note_on_c, 9, 42, 76
1, 207640, Note_on_c, 9, 42, 0
1, 207735, Note_on_c, 12, 41, 0
1, 207767, Note_on_c, 1, 29, 0
1, 207817, Note_on_c, 4, 69, 0
1, 207817, Note_on_c, 5, 69, 0
1, 207828, Note_on_c, 4, 57, 0
1, 207828, Note_on_c, 5, 57, 0
1, 207836, Note_on_c, 6, 41, 0
1, 207836, Note_on_c, 6, 48, 0
1, 207836, Note_on_c, 6, 53, 0
1, 207840, Note_on_c, 1, 29, 119
1, 207840, Note_on_c, 4, 60, 110
1, 207840, Note_on_c, 4, 72, 127
1, 207840, Note_on_c, 5, 60, 110
1, 207840, Note_on_c, 5, 72, 127
1, 207840, Note_on_c, 6, 41, 119
1, 207840, Note_on_c, 6, 48, 127
1, 207840, Note_on_c, 6, 53, 94
1, 207840, Note_on_c, 9, 40, 118
1, 207840, Note_on_c, 9, 42, 76
1, 207840, Note_on_c, 12, 41, 94
1, 207840, Note_on_c, 12, 48, 127
1, 207840, Note_on_c, 12, 57, 119
1, 207840, Note_on_c, 12, 60, 127
1, 207840, Note_on_c, 12, 65, 127
1, 207880, Note_on_c, 9, 40, 0
1, 207880, Note_on_c, 9, 42, 0
1, 207919, Note_on_c, 12, 60, 0
1, 208076, Note_on_c, 6, 41, 0
1, 208076, Note_on_c, 6, 48, 0
1, 208076, Note_on_c, 6, 53, 0
1, 208080, Note_on_c, 6, 41, 119
1, 208080, Note_on_c, 6, 48, 127
1, 208080, Note_on_c, 6, 53, 91
1, 208080, Note_on_c, 9, 42, 76
1, 208080, Note_on_c, 12, 60, 45
1, 208120, Note_on_c, 9, 42, 0
1, 208171, Note_on_c, 12, 57, 0
1, 208252, Note_on_c, 4, 72, 0
1, 208252, Note_on_c, 5, 72, 0
1, 208265, Note_on_c, 1, 29, 0
1, 208274, Note_on_c, 4, 60, 0
1, 208274, Note_on_c, 5, 60, 0
1, 208316, Note_on_c, 6, 41, 0
1, 208316, Note_on_c, 6, 48, 0
1, 208316, Note_on_c, 6, 53, 0
1, 208320, Note_on_c, 1, 29, 119
1, 208320, Note_on_c, 4, 62, 119
1, 208320, Note_on_c, 4, 74, 119
1, 208320, Note_on_c, 5, 62, 119
1, 208320, Note_on_c, 5, 74, 119
1, 208320, Note_on_c, 6, 41, 106
1, 208320, Note_on_c, 6, 48, 110
1, 208320, Note_on_c, 9, 35, 118
1, 208320, Note_on_c, 9, 42, 76
1, 208320, Note_on_c, 12, 57, 106
1, 208345, Note_on_c, 12, 65, 0
1, 208360, Note_on_c, 9, 35, 0
1, 208360, Note_on_c, 9, 42, 0
1, 208404, Note_on_c, 1, 29, 0
1, 208436, Note_on_c, 12, 57, 0
1, 208486, Note_on_c, 3, 72, 0
1, 208495, Note_on_c, 12, 60, 0
1, 208549, Note_on_c, 4, 74, 0
1, 208549, Note_on_c, 5, 74, 0
1, 208551, Note_on_c, 4, 62, 0
1, 208551, Note_on_c, 5, 62, 0
1, 208556, Note_on_c, 6, 41, 0
1, 208556, Note_on_c, 6, 48, 0
1, 208560, Note_on_c, 1, 29, 124
1, 208560, Note_on_c, 4, 64, 114
1, 208560, Note_on_c, 4, 76, 102
1, 208560, Note_on_c, 5, 64, 114
1, 208560, Note_on_c, 5, 76, 102
1, 208560, Note_on_c, 6, 41, 114
1, 208560, Note_on_c, 6, 48, 110
1, 208560, Note_on_c, 9, 35, 118
1, 208560, Note_on_c, 9, 42, 76
1, 208560, Note_on_c, 12, 57, 110
1, 208560, Note_on_c, 12, 60, 127
1, 208560, Note_on_c, 12, 65, 127
1, 208600, Note_on_c, 9, 35, 0
1, 208600, Note_on_c, 9, 42, 0
1, 208637, Note_on_c, 12, 41, 0
1, 208645, Note_on_c, 12, 48, 0
1, 208772, Note_on_c, 4, 64, 0
1, 208772, Note_on_c, 5, 64, 0
1, 208774, Note_on_c, 4, 76, 0
1, 208774, Note_on_c, 5, 76, 0
1, 208796, Note_on_c, 6, 41, 0
1, 208796, Note_on_c, 6, 48, 0
1, 208800, Note_on_c, 4, 62, 110
1, 208800, Note_on_c, 4, 74, 119
1, 208800, Note_on_c, 5, 62, 110
1, 208800, Note_on_c, 5, 74, 119
1, 208800, Note_on_c, 6, 41, 119
1, 208800, Note_on_c, 6, 48, 127
1, 208800, Note_on_c, 6, 53, 127
1, 208800, Note_on_c, 9, 40, 118
1, 208800, Note_on_c, 9, 42, 76
1, 208800, Note_on_c, 12, 41, 114
1, 208800, Note_on_c, 12, 48, 114
1, 208840, Note_on_c, 9, 40, 0
1, 208840, Note_on_c, 9, 42, 0
1, 208874, Note_on_c, 12, 57, 0
1, 208928, Note_on_c, 1, 29, 0
1, 209014, Note_on_c, 4, 74, 0
1, 209014, Note_on_c, 5, 74, 0
1, 209016, Note_on_c, 4, 62, 0
1, 209016, Note_on_c, 5, 62, 0
1, 209036, Note_on_c, 6, 41, 0
1, 209036, Note_on_c, 6, 48, 0
1, 209036, Note_on_c, 6, 53, 0
1, 209040, Note_on_c, 1, 29, 124
1, 209040, Note_on_c, 4, 60, 119
1, 209040, Note_on_c, 4, 72, 127
1, 209040, Note_on_c, 5, 60, 119
1, 209040, Note_on_c, 5, 72, 127
1, 209040, Note_on_c, 6, 41, 99
1, 209040, Note_on_c, 6, 48, 110
1, 209040, Note_on_c, 6, 53, 110
1, 209040, Note_on_c, 9, 42, 76
1, 209040, Note_on_c, 12, 57, 106
1, 209042, Note_on_c, 12, 41, 0
1, 209072, Note_on_c, 12, 48, 0
1, 209080, Note_on_c, 9, 42, 0
1, 209166, Note_on_c, 1, 29, 0
1, 209276, Note_on_c, 6, 41, 0
1, 209276, Note_on_c, 6, 48, 0
1, 209276, Note_on_c, 6, 53, 0
1, 209280, Note_on_c, 1, 29, 119
1, 209280, Note_on_c, 6, 41, 114
1, 209280, Note_on_c, 6, 48, 119
1, 209280, Note_on_c, 9, 35, 118
1, 209280, Note_on_c, 9, 42, 76
1, 209280, Note_on_c, 12, 41, 127
1, 209280, Note_on_c, 12, 48, 127
1, 209320, Note_on_c, 9, 35, 0
1, 209320, Note_on_c, 9, 42, 0
1, 209516, Note_on_c, 6, 41, 0
1, 209516, Note_on_c, 6, 48, 0
1, 209520, Note_on_c, 6, 41, 114
1, 209520, Note_on_c, 6, 48, 119
1, 209520, Note_on_c, 9, 42, 76
1, 209560, Note_on_c, 9, 42, 0
1, 209570, Lyric_t, "KEEP "
1, 209570, Note_on_c, 3, 79, 111
1, 209607, Note_on_c, 12, 65, 0
1, 209612, Note_on_c, 12, 57, 0
1, 209620, Note_on_c, 12, 60, 0
1, 209627, Note_on_c, 12, 41, 0
1, 209638, Note_on_c, 12, 48, 0
1, 209691, Note_on_c, 4, 60, 0
1, 209691, Note_on_c, 5, 60, 0
1, 209756, Note_on_c, 6, 41, 0
1, 209756, Note_on_c, 6, 48, 0
1, 209760, Note_on_c, 4, 57, 119
1, 209760, Note_on_c, 4, 69, 114
1, 209760, Note_on_c, 5, 57, 119
1, 209760, Note_on_c, 5, 69, 114
1, 209760, Note_on_c, 6, 41, 110
1, 209760, Note_on_c, 6, 48, 119
1, 209760, Note_on_c, 6, 53, 127
1, 209760, Note_on_c, 9, 40, 118
1, 209760, Note_on_c, 9, 42, 76
1, 209760, Note_on_c, 12, 41, 127
1, 209760, Note_on_c, 12, 48, 127
1, 209760, Note_on_c, 12, 57, 110
1, 209760, Note_on_c, 12, 60, 124
1, 209760, Note_on_c, 12, 65, 124
1, 209762, Lyric_t, "IT "
1, 209762, Note_on_c, 3, 76, 106
1, 209764, Note_on_c, 3, 79, 0
1, 209775, Note_on_c, 4, 72, 0
1, 209775, Note_on_c, 5, 72, 0
1, 209800, Note_on_c, 9, 40, 0
1, 209800, Note_on_c, 9, 42, 0
1, 209996, Note_on_c, 6, 41, 0
1, 209996, Note_on_c, 6, 48, 0
1, 209996, Note_on_c, 6, 53, 0
1, 209999, Lyric_t, "IN "
1, 209999, Note_on_c, 3, 74, 107
1, 210000, Note_on_c, 6, 41, 65
1, 210000, Note_on_c, 6, 48, 94
1, 210000, Note_on_c, 6, 53, 91
1, 210000, Note_on_c, 9, 42, 76
1, 210002, Note_on_c, 3, 76, 0
1, 210040, Note_on_c, 9, 42, 0
1, 210076, Note_on_c, 12, 57, 0
1, 210127, Note_on_c, 4, 57, 0
1, 210127, Note_on_c, 5, 57, 0
1, 210140, Note_on_c, 1, 29, 0
1, 210199, Note_on_c, 4, 69, 0
1, 210199, Note_on_c, 5, 69, 0
1, 210236, Note_on_c, 6, 41, 0
1, 210236, Note_on_c, 6, 48, 0
1, 210236, Note_on_c, 6, 53, 0
1, 210240, Note_on_c, 1, 29, 114
1, 210240, Note_on_c, 4, 62, 119
1, 210240, Note_on_c, 4, 74, 119
1, 210240, Note_on_c, 5, 62, 119
1, 210240, Note_on_c, 5, 74, 119
1, 210240, Note_on_c, 6, 41, 106
1, 210240, Note_on_c, 6, 48, 114
1, 210240, Note_on_c, 9, 35, 118
1, 210240, Note_on_c, 9, 42, 76
1, 210240, Note_on_c, 12, 57, 94
1, 210256, Note_on_c, 3, 74, 0
1, 210265, Lyric_t, "YOUR "
1, 210265, Note_on_c, 3, 72, 107
1, 210280, Note_on_c, 9, 35, 0
1, 210280, Note_on_c, 9, 42, 0
1, 210293, Note_on_c, 12, 65, 0
1, 210317, Note_on_c, 12, 60, 0
1, 210342, Note_on_c, 12, 57, 0
1, 210357, Note_on_c, 1, 29, 0
1, 210420, Note_on_c, 3, 72, 0
1, 210469, Note_on_c, 4, 74, 0
1, 210469, Note_on_c, 5, 74, 0
1, 210471, Note_on_c, 4, 62, 0
1, 210471, Note_on_c, 5, 62, 0
1, 210476, Note_on_c, 6, 41, 0
1, 210476, Note_on_c, 6, 48, 0
1, 210480, Note_on_c, 1, 29, 124
1, 210480, Note_on_c, 4, 64, 114
1, 210480, Note_on_c, 4, 76, 102
1, 210480, Note_on_c, 5, 64, 114
1, 210480, Note_on_c, 5, 76, 102
1, 210480, Note_on_c, 6, 41, 102
1, 210480, Note_on_c, 6, 48, 106
1, 210480, Note_on_c, 9, 35, 118
1, 210480, Note_on_c, 9, 42, 76
1, 210480, Note_on_c, 12, 57, 114
1, 210480, Note_on_c, 12, 60, 127
1, 210480, Note_on_c, 12, 65, 127
1, 210500, Lyric_t, "HEAD"
1, 210500, Lyric_t, "\015"
1, 210500, Note_on_c, 3, 72, 109
1, 210516, Note_on_c, 12, 41, 0
1, 210520, Note_on_c, 9, 35, 0
1, 210520, Note_on_c, 9, 42, 0
1, 210536, Note_on_c, 12, 48, 0
1, 210692, Note_on_c, 4, 64, 0
1, 210692, Note_on_c, 5, 64, 0
1, 210694, Note_on_c, 4, 76, 0
1, 210694, Note_on_c, 5, 76, 0
1, 210697, Note_on_c, 1, 29, 0
1, 210716, Note_on_c, 6, 41, 0
1, 210716, Note_on_c, 6, 48, 0
1, 210720, Note_on_c, 1, 29, 119
1, 210720, Note_on_c, 4, 62, 110
1, 210720, Note_on_c, 4, 74, 119
1, 210720, Note_on_c, 5, 62, 110
1, 210720, Note_on_c, 5, 74, 119
1, 210720, Note_on_c, 6, 41, 106
1, 210720, Note_on_c, 6, 48, 119
1, 210720, Note_on_c, 6, 53, 124
1, 210720, Note_on_c, 9, 40, 118
1, 210720, Note_on_c, 9, 42, 76
1, 210720, Note_on_c, 12, 41, 114
1, 210720, Note_on_c, 12, 48, 127
1, 210746, Note_on_c, 12, 57, 0
1, 210760, Note_on_c, 9, 40, 0
1, 210760, Note_on_c, 9, 42, 0
1, 210886, Note_on_c, 1, 29, 0
1, 210934, Note_on_c, 4, 74, 0
1, 210934, Note_on_c, 5, 74, 0
1, 210936, Note_on_c, 4, 62, 0
1, 210936, Note_on_c, 5, 62, 0
1, 210956, Note_on_c, 6, 41, 0
1, 210956, Note_on_c, 6, 48, 0
1, 210956, Note_on_c, 6, 53, 0
1, 210960, Note_on_c, 1, 29, 127
1, 210960, Note_on_c, 4, 60, 119
1, 210960, Note_on_c, 4, 72, 127
1, 210960, Note_on_c, 5, 60, 119
1, 210960, Note_on_c, 5, 72, 127
1, 210960, Note_on_c, 6, 53, 99
1, 210960, Note_on_c, 9, 42, 76
1, 210960, Note_on_c, 12, 57, 106
1, 211000, Note_on_c, 9, 42, 0
1, 211024, Note_on_c, 12, 41, 0
1, 211095, Note_on_c, 12, 48, 0
1, 211155, Note_on_c, 1, 29, 0
1, 211158, Note_on_c, 3, 72, 0
1, 211196, Note_on_c, 6, 53, 0
1, 211200, Note_on_c, 1, 29, 127
1, 211200, Note_on_c, 6, 41, 127
1, 211200, Note_on_c, 9, 35, 118
1, 211200, Note_on_c, 9, 42, 76
1, 211200, Note_on_c, 10, 41, 115
1, 211200, Note_on_c, 12, 41, 127
1, 211200, Note_on_c, 12, 48, 127
1, 211240, Note_on_c, 9, 35, 0
1, 211240, Note_on_c, 9, 42, 0
1, 211269, Note_on_c, 12, 60, 0
1, 211294, Note_on_c, 12, 57, 0
1, 211336, Note_on_c, 12, 65, 0
1, 211427, Note_on_c, 1, 29, 0
1, 211427, Note_on_c, 6, 41, 0
1, 211427, Note_on_c, 10, 41, 0
1, 211440, Note_on_c, 1, 31, 124
1, 211440, Note_on_c, 6, 43, 127
1, 211440, Note_on_c, 9, 42, 76
1, 211440, Note_on_c, 10, 43, 115
1, 211441, Lyric_t, "HOL"
1, 211441, Note_on_c, 3, 79, 112
1, 211480, Note_on_c, 9, 42, 0
1, 211547, Note_on_c, 12, 41, 0
1, 211558, Note_on_c, 12, 48, 0
1, 211611, Note_on_c, 4, 60, 0
1, 211611, Note_on_c, 5, 60, 0
1, 211679, Note_on_c, 3, 79, 0
1, 211680, Note_on_c, 4, 56, 119
1, 211680, Note_on_c, 4, 68, 114
1, 211680, Note_on_c, 5, 56, 119
1, 211680, Note_on_c, 5, 68, 114
1, 211680, Note_on_c, 9, 40, 118
1, 211680, Note_on_c, 9, 42, 76
1, 211680, Note_on_c, 12, 41, 127
1, 211680, Note_on_c, 12, 48, 127
1, 211680, Note_on_c, 12, 56, 110
1, 211680, Note_on_c, 12, 60, 124
1, 211680, Note_on_c, 12, 65, 124
1, 211684, Lyric_t, "LY"
1, 211684, Note_on_c, 3, 76, 109
1, 211695, Note_on_c, 4, 72, 0
1, 211695, Note_on_c, 5, 72, 0
1, 211720, Note_on_c, 9, 40, 0
1, 211720, Note_on_c, 9, 42, 0
1, 211873, Note_on_c, 3, 76, 0
1, 211905, Note_on_c, 1, 31, 0
1, 211910, Note_on_c, 6, 43, 0
1, 211910, Note_on_c, 10, 43, 0
1, 211913, Lyric_t, "WOOD "
1, 211913, Note_on_c, 3, 74, 107
1, 211920, Note_on_c, 1, 32, 127
1, 211920, Note_on_c, 6, 44, 127
1, 211920, Note_on_c, 9, 42, 76
1, 211920, Note_on_c, 10, 44, 115
1, 211960, Note_on_c, 9, 42, 0
1, 211996, Note_on_c, 12, 56, 0
1, 212047, Note_on_c, 4, 56, 0
1, 212047, Note_on_c, 5, 56, 0
1, 212101, Note_on_c, 3, 74, 0
1, 212119, Lyric_t, "IS "
1, 212119, Note_on_c, 3, 72, 106
1, 212119, Note_on_c, 4, 68, 0
1, 212119, Note_on_c, 5, 68, 0
1, 212160, Note_on_c, 4, 62, 119
1, 212160, Note_on_c, 4, 74, 119
1, 212160, Note_on_c, 5, 62, 119
1, 212160, Note_on_c, 5, 74, 119
1, 212160, Note_on_c, 9, 35, 118
1, 212160, Note_on_c, 9, 42, 76
1, 212160, Note_on_c, 12, 56, 94
1, 212200, Note_on_c, 9, 35, 0
1, 212200, Note_on_c, 9, 42, 0
1, 212213, Note_on_c, 12, 65, 0
1, 212237, Note_on_c, 12, 60, 0
1, 212262, Note_on_c, 12, 56, 0
1, 212305, Note_on_c, 3, 72, 0
1, 212370, Note_on_c, 6, 44, 0
1, 212370, Note_on_c, 10, 44, 0
1, 212371, Lyric_t, "DEAD"
1, 212371, Lyric_t, "\015"
1, 212371, Note_on_c, 3, 72, 107
1, 212389, Note_on_c, 4, 74, 0
1, 212389, Note_on_c, 5, 74, 0
1, 212390, Note_on_c, 1, 32, 0
1, 212391, Note_on_c, 4, 62, 0
1, 212391, Note_on_c, 5, 62, 0
1, 212400, Note_on_c, 1, 34, 124
1, 212400, Note_on_c, 4, 64, 114
1, 212400, Note_on_c, 4, 76, 102
1, 212400, Note_on_c, 5, 64, 114
1, 212400, Note_on_c, 5, 76, 102
1, 212400, Note_on_c, 6, 46, 127
1, 212400, Note_on_c, 9, 35, 118
1, 212400, Note_on_c, 9, 42, 76
1, 212400, Note_on_c, 10, 46, 115
1, 212400, Note_on_c, 12, 56, 114
1, 212400, Note_on_c, 12, 60, 127
1, 212400, Note_on_c, 12, 65, 127
1, 212436, Note_on_c, 12, 41, 0
1, 212440, Note_on_c, 9, 35, 0
1, 212440, Note_on_c, 9, 42, 0
1, 212456, Note_on_c, 12, 48, 0
1, 212612, Note_on_c, 4, 64, 0
1, 212612, Note_on_c, 5, 64, 0
1, 212614, Note_on_c, 4, 76, 0
1, 212614, Note_on_c, 5, 76, 0
1, 212640, Note_on_c, 4, 62, 110
1, 212640, Note_on_c, 4, 74, 119
1, 212640, Note_on_c, 5, 62, 110
1, 212640, Note_on_c, 5, 74, 119
1, 212640, Note_on_c, 9, 40, 118
1, 212640, Note_on_c, 9, 42, 76
1, 212640, Note_on_c, 12, 41, 114
1, 212640, Note_on_c, 12, 48, 127
1, 212666, Note_on_c, 12, 56, 0
1, 212680, Note_on_c, 9, 40, 0
1, 212680, Note_on_c, 9, 42, 0
1, 212789, Note_on_c, 6, 46, 0
1, 212789, Note_on_c, 10, 46, 0
1, 212803, Note_on_c, 1, 34, 0
1, 212854, Note_on_c, 4, 74, 0
1, 212854, Note_on_c, 5, 74, 0
1, 212856, Note_on_c, 4, 62, 0
1, 212856, Note_on_c, 5, 62, 0
1, 212880, Note_on_c, 1, 35, 120
1, 212880, Note_on_c, 4, 60, 119
1, 212880, Note_on_c, 4, 72, 127
1, 212880, Note_on_c, 5, 60, 119
1, 212880, Note_on_c, 5, 72, 127
1, 212880, Note_on_c, 6, 47, 102
1, 212880, Note_on_c, 9, 42, 76
1, 212880, Note_on_c, 10, 47, 90
1, 212880, Note_on_c, 12, 56, 106
1, 212892, Note_on_c, 3, 72, 0
1, 212920, Note_on_c, 9, 42, 0
1, 212944, Note_on_c, 12, 41, 0
1, 213015, Note_on_c, 12, 48, 0
1, 213069, Note_on_c, 12, 60, 0
1, 213116, Note_on_c, 12, 56, 0
1, 213120, Note_on_c, 1, 36, 127
1, 213120, Note_on_c, 6, 48, 127
1, 213120, Note_on_c, 9, 35, 118
1, 213120, Note_on_c, 9, 42, 76
1, 213120, Note_on_c, 10, 48, 115
1, 213120, Note_on_c, 12, 48, 124
1, 213120, Note_on_c, 12, 55, 94
1, 213120, Note_on_c, 12, 60, 124
1, 213120, Note_on_c, 12, 64, 124
1, 213130, Note_on_c, 1, 35, 0
1, 213136, Note_on_c, 12, 65, 0
1, 213143, Note_on_c, 6, 47, 0
1, 213143, Note_on_c, 10, 47, 0
1, 213160, Note_on_c, 9, 35, 0
1, 213160, Note_on_c, 9, 42, 0
1, 213360, Note_on_c, 9, 42, 76
1, 213400, Note_on_c, 9, 42, 0
1, 213420, Lyric_t, "HO "
1, 213420, Note_on_c, 3, 79, 110
1, 213446, Note_on_c, 12, 48, 0
1, 213450, Note_on_c, 12, 55, 0
1, 213468, Note_on_c, 12, 64, 0
1, 213472, Note_on_c, 12, 60, 0
1, 213499, Note_on_c, 6, 48, 0
1, 213527, Note_on_c, 1, 36, 0
1, 213600, Note_on_c, 1, 36, 119
1, 213600, Note_on_c, 6, 48, 46
1, 213600, Note_on_c, 6, 55, 102
1, 213600, Note_on_c, 9, 40, 118
1, 213600, Note_on_c, 9, 42, 76
1, 213600, Note_on_c, 12, 48, 110
1, 213631, Note_on_c, 3, 79, 0
1, 213640, Note_on_c, 9, 40, 0
1, 213640, Note_on_c, 9, 42, 0
1, 213681, Note_on_c, 12, 48, 0
1, 213836, Note_on_c, 6, 48, 0
1, 213836, Note_on_c, 6, 55, 0
1, 213840, Note_on_c, 6, 48, 87
1, 213840, Note_on_c, 6, 55, 102
1, 213840, Note_on_c, 9, 42, 76
1, 213840, Note_on_c, 12, 48, 127
1, 213840, Note_on_c, 12, 55, 94
1, 213840, Note_on_c, 12, 60, 124
1, 213840, Note_on_c, 12, 64, 124
1, 213872, Lyric_t, "HO "
1, 213872, Note_on_c, 3, 79, 112
1, 213880, Note_on_c, 9, 42, 0
1, 213979, Note_on_c, 10, 48, 0
1, 214025, Note_on_c, 1, 36, 0
1, 214070, Note_on_c, 3, 79, 0
1, 214076, Note_on_c, 6, 48, 0
1, 214076, Note_on_c, 6, 55, 0
1, 214080, Note_on_c, 1, 36, 119
1, 214080, Note_on_c, 6, 48, 114
1, 214080, Note_on_c, 6, 55, 114
1, 214080, Note_on_c, 9, 35, 118
1, 214080, Note_on_c, 9, 42, 76
1, 214120, Note_on_c, 9, 35, 0
1, 214120, Note_on_c, 9, 42, 0
1, 214164, Note_on_c, 1, 36, 0
1, 214170, Note_on_c, 12, 55, 0
1, 214188, Note_on_c, 12, 64, 0
1, 214192, Note_on_c, 12, 60, 0
1, 214316, Note_on_c, 6, 48, 0
1, 214316, Note_on_c, 6, 55, 0
1, 214318, Lyric_t, "HOL"
1, 214318, Note_on_c, 3, 79, 112
1, 214320, Note_on_c, 1, 36, 124
1, 214320, Note_on_c, 6, 48, 119
1, 214320, Note_on_c, 6, 55, 119
1, 214320, Note_on_c, 9, 35, 118
1, 214320, Note_on_c, 9, 42, 76
1, 214320, Note_on_c, 12, 55, 110
1, 214320, Note_on_c, 12, 60, 114
1, 214320, Note_on_c, 12, 64, 114
1, 214336, Note_on_c, 12, 48, 0
1, 214360, Note_on_c, 9, 35, 0
1, 214360, Note_on_c, 9, 42, 0
1, 214511, Note_on_c, 3, 79, 0
1, 214526, Note_on_c, 12, 55, 0
1, 214551, Lyric_t, "LY"
1, 214551, Note_on_c, 3, 76, 107
1, 214556, Note_on_c, 6, 48, 0
1, 214556, Note_on_c, 6, 55, 0
1, 214560, Note_on_c, 6, 48, 110
1, 214560, Note_on_c, 6, 55, 124
1, 214560, Note_on_c, 9, 40, 118
1, 214560, Note_on_c, 9, 42, 76
1, 214560, Note_on_c, 12, 48, 127
1, 214578, Note_on_c, 12, 60, 0
1, 214600, Note_on_c, 9, 40, 0
1, 214600, Note_on_c, 9, 42, 0
1, 214610, Note_on_c, 12, 64, 0
1, 214688, Note_on_c, 1, 36, 0
1, 214752, Note_on_c, 3, 76, 0
1, 214781, Lyric_t, "WOOD "
1, 214781, Note_on_c, 3, 74, 105
1, 214796, Note_on_c, 6, 48, 0
1, 214796, Note_on_c, 6, 55, 0
1, 214800, Note_on_c, 1, 36, 124
1, 214800, Note_on_c, 6, 48, 127
1, 214800, Note_on_c, 6, 55, 127
1, 214800, Note_on_c, 9, 42, 76
1, 214800, Note_on_c, 12, 60, 91
1, 214800, Note_on_c, 12, 67, 58
1, 214814, Note_on_c, 12, 48, 0
1, 214840, Note_on_c, 9, 42, 0
1, 214847, Note_on_c, 12, 67, 0
1, 214911, Note_on_c, 12, 60, 0
1, 214926, Note_on_c, 1, 36, 0
1, 214971, Note_on_c, 4, 60, 0
1, 214971, Note_on_c, 5, 60, 0
1, 215016, Note_on_c, 3, 74, 0
1, 215036, Note_on_c, 6, 48, 0
1, 215036, Note_on_c, 6, 55, 0
1, 215040, Note_on_c, 1, 36, 127
1, 215040, Note_on_c, 6, 48, 127
1, 215040, Note_on_c, 9, 35, 118
1, 215040, Note_on_c, 9, 42, 76
1, 215040, Note_on_c, 12, 48, 124
1, 215040, Note_on_c, 12, 55, 94
1, 215040, Note_on_c, 12, 60, 124
1, 215040, Note_on_c, 12, 64, 124
1, 215041, Lyric_t, "IS "
1, 215041, Note_on_c, 3, 72, 107
1, 215055, Note_on_c, 4, 72, 0
1, 215055, Note_on_c, 5, 72, 0
1, 215080, Note_on_c, 9, 35, 0
1, 215080, Note_on_c, 9, 42, 0
1, 215178, Note_on_c, 3, 72, 0
1, 215276, Note_on_c, 1, 36, 0
1, 215280, Note_on_c, 1, 36, 127
1, 215280, Note_on_c, 9, 42, 76
1, 215290, Lyric_t, "DEAD"
1, 215290, Lyric_t, "\015"
1, 215290, Note_on_c, 3, 72, 110
1, 215320, Note_on_c, 9, 42, 0
1, 215366, Note_on_c, 12, 48, 0
1, 215370, Note_on_c, 12, 55, 0
1, 215388, Note_on_c, 12, 64, 0
1, 215392, Note_on_c, 12, 60, 0
1, 215419, Note_on_c, 6, 48, 0
1, 215516, Note_on_c, 1, 36, 0
1, 215520, Note_on_c, 1, 33, 127
1, 215520, Note_on_c, 6, 48, 46
1, 215520, Note_on_c, 6, 55, 102
1, 215520, Note_on_c, 9, 40, 118
1, 215520, Note_on_c, 9, 42, 76
1, 215520, Note_on_c, 12, 48, 110
1, 215560, Note_on_c, 9, 40, 0
1, 215560, Note_on_c, 9, 42, 0
1, 215601, Note_on_c, 12, 48, 0
1, 215756, Note_on_c, 1, 33, 0
1, 215756, Note_on_c, 6, 48, 0
1, 215756, Note_on_c, 6, 55, 0
1, 215760, Note_on_c, 1, 33, 127
1, 215760, Note_on_c, 6, 48, 87
1, 215760, Note_on_c, 6, 55, 102
1, 215760, Note_on_c, 9, 42, 76
1, 215760, Note_on_c, 12, 48, 127
1, 215760, Note_on_c, 12, 55, 94
1, 215760, Note_on_c, 12, 60, 124
1, 215760, Note_on_c, 12, 64, 124
1, 215800, Note_on_c, 9, 42, 0
1, 215914, Note_on_c, 3, 72, 0
1, 215996, Note_on_c, 1, 33, 0
1, 215996, Note_on_c, 6, 48, 0
1, 215996, Note_on_c, 6, 55, 0
1, 216000, Note_on_c, 1, 31, 127
1, 216000, Note_on_c, 6, 48, 114
1, 216000, Note_on_c, 6, 55, 114
1, 216000, Note_on_c, 9, 35, 118
1, 216000, Note_on_c, 9, 42, 76
1, 216040, Note_on_c, 9, 35, 0
1, 216040, Note_on_c, 9, 42, 0
1, 216090, Note_on_c, 12, 55, 0
1, 216108, Note_on_c, 12, 64, 0
1, 216112, Note_on_c, 12, 60, 0
1, 216236, Note_on_c, 1, 31, 0
1, 216236, Note_on_c, 6, 48, 0
1, 216236, Note_on_c, 6, 55, 0
1, 216240, Note_on_c, 1, 31, 127
1, 216240, Note_on_c, 6, 48, 119
1, 216240, Note_on_c, 6, 55, 119
1, 216240, Note_on_c, 9, 40, 118
1, 216240, Note_on_c, 9, 42, 76
1, 216240, Note_on_c, 12, 55, 110
1, 216240, Note_on_c, 12, 60, 114
1, 216240, Note_on_c, 12, 64, 114
1, 216256, Note_on_c, 12, 48, 0
1, 216280, Note_on_c, 9, 40, 0
1, 216280, Note_on_c, 9, 42, 0
1, 216446, Note_on_c, 12, 55, 0
1, 216476, Note_on_c, 1, 31, 0
1, 216476, Note_on_c, 6, 48, 0
1, 216476, Note_on_c, 6, 55, 0
1, 216480, Note_on_c, 1, 29, 127
1, 216480, Note_on_c, 6, 48, 110
1, 216480, Note_on_c, 6, 55, 124
1, 216480, Note_on_c, 9, 40, 118
1, 216480, Note_on_c, 9, 42, 76
1, 216480, Note_on_c, 12, 48, 127
1, 216498, Note_on_c, 12, 60, 0
1, 216520, Note_on_c, 9, 40, 0
1, 216520, Note_on_c, 9, 42, 0
1, 216530, Note_on_c, 12, 64, 0
1, 216600, Note_on_c, 9, 40, 118
1, 216640, Note_on_c, 9, 40, 0
1, 216716, Note_on_c, 1, 29, 0
1, 216716, Note_on_c, 6, 48, 0
1, 216716, Note_on_c, 6, 55, 0
1, 216720, Note_on_c, 1, 31, 127
1, 216720, Note_on_c, 6, 48, 127
1, 216720, Note_on_c, 6, 55, 127
1, 216720, Note_on_c, 9, 42, 76
1, 216720, Note_on_c, 9, 47, 118
1, 216720, Note_on_c, 12, 60, 91
1, 216720, Note_on_c, 12, 67, 58
1, 216734, Note_on_c, 12, 48, 0
1, 216760, Note_on_c, 9, 42, 0
1, 216760, Note_on_c, 9, 47, 0
1, 216767, Note_on_c, 12, 67, 0
1, 216808, Pitch_bend_c, 5, 8192
1, 216808, Pitch_bend_c, 10, 8192
1, 216831, Note_on_c, 12, 60, 0
1, 216840, Note_on_c, 9, 45, 118
1, 216855, Pitch_bend_c, 5, 7936
1, 216855, Pitch_bend_c, 10, 7936
1, 216868, Pitch_bend_c, 5, 6912
1, 216868, Pitch_bend_c, 10, 6912
1, 216880, Note_on_c, 9, 45, 0
1, 216880, Pitch_bend_c, 5, 5760
1, 216880, Pitch_bend_c, 10, 5760
1, 216893, Pitch_bend_c, 5, 4736
1, 216893, Pitch_bend_c, 10, 4736
1, 216906, Pitch_bend_c, 5, 3712
1, 216906, Pitch_bend_c, 10, 3712
1, 216920, Pitch_bend_c, 5, 2560
1, 216920, Pitch_bend_c, 10, 2560
1, 216931, Pitch_bend_c, 5, 1792
1, 216931, Pitch_bend_c, 10, 1792
1, 216944, Pitch_bend_c, 5, 896
1, 216944, Pitch_bend_c, 10, 896
1, 216956, Note_on_c, 1, 31, 0
1, 216956, Note_on_c, 6, 48, 0
1, 216956, Note_on_c, 6, 55, 0
1, 216958, Pitch_bend_c, 5, 128
1, 216958, Pitch_bend_c, 10, 128
1, 216960, Note_on_c, 1, 31, 124
1, 216960, Note_on_c, 9, 35, 118
1, 216960, Note_on_c, 9, 49, 91
1, 216960, Note_on_c, 11, 43, 102
1, 216960, Note_on_c, 11, 55, 114
1, 216960, Note_on_c, 11, 58, 115
1, 216960, Note_on_c, 11, 62, 119
1, 216960, Note_on_c, 14, 58, 115
1, 216960, Note_on_c, 14, 62, 119
1, 216960, Note_on_c, 14, 67, 110
1, 216969, Pitch_bend_c, 5, 0
1, 216969, Pitch_bend_c, 10, 0
1, 216987, Note_on_c, 5, 67, 127
1, 216987, Note_on_c, 10, 67, 127
1, 217000, Note_on_c, 9, 35, 0
1, 217000, Note_on_c, 9, 49, 0
1, 217013, Pitch_bend_c, 5, 384
1, 217013, Pitch_bend_c, 10, 384
1, 217026, Pitch_bend_c, 5, 1280
1, 217026, Pitch_bend_c, 10, 1280
1, 217036, Pitch_bend_c, 5, 2432
1, 217036, Pitch_bend_c, 10, 2432
1, 217044, Note_on_c, 11, 58, 0
1, 217047, Pitch_bend_c, 5, 3456
1, 217047, Pitch_bend_c, 10, 3456
1, 217060, Pitch_bend_c, 5, 4992
1, 217060, Pitch_bend_c, 10, 4992
1, 217070, Pitch_bend_c, 5, 6144
1, 217070, Pitch_bend_c, 10, 6144
1, 217076, Note_on_c, 11, 55, 0
1, 217081, Note_on_c, 11, 62, 0
1, 217083, Pitch_bend_c, 5, 7296
1, 217083, Pitch_bend_c, 10, 7296
1, 217086, Note_on_c, 11, 43, 0
1, 217093, Pitch_bend_c, 5, 8192
1, 217093, Pitch_bend_c, 10, 8192
1, 217157, Note_on_c, 14, 67, 0
1, 217170, Note_on_c, 14, 62, 0
1, 217176, Note_on_c, 14, 58, 0
1, 217200, Note_on_c, 9, 42, 76
1, 217240, Note_on_c, 9, 42, 0
1, 217372, Note_on_c, 1, 31, 0
1, 217440, Note_on_c, 1, 31, 119
1, 217440, Note_on_c, 9, 40, 118
1, 217440, Note_on_c, 9, 42, 76
1, 217440, Note_on_c, 11, 55, 124
1, 217440, Note_on_c, 11, 58, 127
1, 217440, Note_on_c, 11, 62, 114
1, 217440, Note_on_c, 14, 58, 127
1, 217440, Note_on_c, 14, 62, 124
1, 217440, Note_on_c, 14, 67, 114
1, 217480, Note_on_c, 9, 40, 0
1, 217480, Note_on_c, 9, 42, 0
1, 217554, Note_on_c, 11, 58, 0
1, 217599, Note_on_c, 11, 55, 0
1, 217600, Note_on_c, 14, 58, 0
1, 217612, Note_on_c, 14, 62, 0
1, 217627, Note_on_c, 14, 67, 0
1, 217628, Note_on_c, 11, 62, 0
1, 217680, Note_on_c, 9, 42, 76
1, 217720, Note_on_c, 9, 42, 0
1, 217914, Note_on_c, 1, 31, 0
1, 217920, Note_on_c, 1, 31, 110
1, 217920, Note_on_c, 9, 40, 118
1, 217920, Note_on_c, 9, 42, 76
1, 217920, Note_on_c, 11, 55, 114
1, 217920, Note_on_c, 11, 58, 127
1, 217920, Note_on_c, 11, 62, 119
1, 217920, Note_on_c, 14, 58, 120
1, 217920, Note_on_c, 14, 62, 119
1, 217920, Note_on_c, 14, 67, 119
1, 217960, Note_on_c, 9, 40, 0
1, 217960, Note_on_c, 9, 42, 0
1, 218030, Note_on_c, 11, 58, 0
1, 218034, Note_on_c, 11, 55, 0
1, 218071, Control_c, 5, 1, 1
1, 218071, Control_c, 10, 1, 1
1, 218077, Note_on_c, 11, 62, 0
1, 218089, Note_on_c, 1, 31, 0
1, 218110, Note_on_c, 14, 58, 0
1, 218128, Control_c, 5, 1, 3
1, 218128, Control_c, 10, 1, 3
1, 218141, Note_on_c, 14, 62, 0
1, 218146, Note_on_c, 14, 67, 0
1, 218160, Note_on_c, 1, 31, 124
1, 218160, Note_on_c, 9, 35, 118
1, 218160, Note_on_c, 9, 42, 76
1, 218160, Control_c, 5, 1, 6
1, 218160, Control_c, 10, 1, 6
1, 218200, Note_on_c, 9, 35, 0
1, 218200, Note_on_c, 9, 42, 0
1, 218204, Control_c, 5, 1, 8
1, 218204, Control_c, 10, 1, 8
1, 218272, Control_c, 5, 1, 11
1, 218272, Control_c, 10, 1, 11
1, 218285, Note_on_c, 1, 31, 0
1, 218400, Note_on_c, 1, 31, 124
1, 218400, Note_on_c, 9, 40, 118
1, 218400, Note_on_c, 9, 42, 76
1, 218400, Note_on_c, 11, 55, 119
1, 218400, Note_on_c, 11, 58, 120
1, 218400, Note_on_c, 11, 62, 119
1, 218400, Note_on_c, 14, 58, 127
1, 218400, Note_on_c, 14, 62, 127
1, 218400, Note_on_c, 14, 67, 127
1, 218432, Control_c, 5, 1, 13
1, 218432, Control_c, 10, 1, 13
1, 218440, Note_on_c, 9, 40, 0
1, 218440, Note_on_c, 9, 42, 0
1, 218493, Note_on_c, 11, 58, 0
1, 218502, Control_c, 5, 1, 16
1, 218502, Control_c, 10, 1, 16
1, 218516, Note_on_c, 1, 31, 0
1, 218542, Note_on_c, 11, 55, 0
1, 218557, Note_on_c, 14, 58, 0
1, 218575, Note_on_c, 11, 62, 0
1, 218584, Control_c, 5, 1, 19
1, 218584, Control_c, 10, 1, 19
1, 218595, Note_on_c, 14, 62, 0
1, 218629, Note_on_c, 14, 67, 0
1, 218640, Note_on_c, 1, 31, 110
1, 218640, Note_on_c, 9, 35, 118
1, 218640, Note_on_c, 9, 42, 76
1, 218640, Note_on_c, 11, 43, 99
1, 218680, Note_on_c, 9, 35, 0
1, 218680, Note_on_c, 9, 42, 0
1, 218698, Control_c, 5, 1, 21
1, 218698, Control_c, 10, 1, 21
1, 218766, Control_c, 5, 1, 24
1, 218766, Control_c, 10, 1, 24
1, 218782, Note_on_c, 11, 43, 0
1, 218831, Control_c, 5, 1, 26
1, 218831, Control_c, 10, 1, 26
1, 218866, Note_on_c, 1, 31, 0
1, 218880, Note_on_c, 1, 39, 124
1, 218880, Note_on_c, 9, 35, 118
1, 218880, Note_on_c, 9, 49, 91
1, 218880, Note_on_c, 11, 55, 119
1, 218880, Note_on_c, 11, 58, 127
1, 218880, Note_on_c, 11, 63, 127
1, 218880, Note_on_c, 14, 58, 120
1, 218880, Note_on_c, 14, 63, 127
1, 218920, Note_on_c, 9, 35, 0
1, 218920, Note_on_c, 9, 49, 0
1, 219034, Note_on_c, 11, 58, 0
1, 219039, Note_on_c, 11, 55, 0
1, 219040, Note_on_c, 11, 63, 0
1, 219082, Note_on_c, 14, 58, 0
1, 219088, Note_on_c, 14, 63, 0
1, 219120, Note_on_c, 9, 42, 76
1, 219160, Note_on_c, 9, 42, 0
1, 219245, Control_c, 5, 1, 21
1, 219245, Control_c, 10, 1, 21
1, 219277, Control_c, 5, 1, 10
1, 219277, Control_c, 10, 1, 10
1, 219309, Control_c, 5, 1, 0
1, 219309, Control_c, 10, 1, 0
1, 219343, Note_on_c, 1, 39, 0
1, 219360, Note_on_c, 9, 40, 118
1, 219360, Note_on_c, 9, 42, 76
1, 219360, Note_on_c, 9, 57, 76
1, 219360, Note_on_c, 11, 55, 114
1, 219360, Note_on_c, 11, 58, 127
1, 219360, Note_on_c, 11, 63, 127
1, 219360, Note_on_c, 14, 58, 115
1, 219360, Note_on_c, 14, 63, 115
1, 219400, Note_on_c, 9, 40, 0
1, 219400, Note_on_c, 9, 42, 0
1, 219400, Note_on_c, 9, 57, 0
1, 219467, Note_on_c, 11, 58, 0
1, 219479, Note_on_c, 11, 55, 0
1, 219532, Note_on_c, 11, 63, 0
1, 219599, Note_on_c, 14, 58, 0
1, 219600, Note_on_c, 1, 39, 110
1, 219600, Note_on_c, 9, 42, 76
1, 219600, Note_on_c, 11, 43, 102
1, 219618, Note_on_c, 14, 63, 0
1, 219640, Note_on_c, 9, 42, 0
1, 219690, Note_on_c, 1, 39, 0
1, 219753, Note_on_c, 11, 43, 0
1, 219840, Note_on_c, 1, 31, 119
1, 219840, Note_on_c, 9, 40, 118
1, 219840, Note_on_c, 9, 42, 76
1, 219840, Note_on_c, 11, 55, 119
1, 219840, Note_on_c, 11, 58, 127
1, 219840, Note_on_c, 11, 62, 119
1, 219840, Note_on_c, 14, 58, 119
1, 219840, Note_on_c, 14, 62, 110
1, 219880, Note_on_c, 9, 40, 0
1, 219880, Note_on_c, 9, 42, 0
1, 219967, Note_on_c, 11, 58, 0
1, 219989, Note_on_c, 11, 55, 0
1, 219989, Note_on_c, 11, 62, 0
1, 220051, Note_on_c, 14, 58, 0
1, 220053, Note_on_c, 14, 62, 0
1, 220080, Note_on_c, 9, 35, 118
1, 220080, Note_on_c, 9, 42, 76
1, 220120, Note_on_c, 9, 35, 0
1, 220120, Note_on_c, 9, 42, 0
1, 220239, Note_on_c, 1, 31, 0
1, 220320, Note_on_c, 1, 31, 110
1, 220320, Note_on_c, 9, 40, 118
1, 220320, Note_on_c, 9, 42, 76
1, 220320, Note_on_c, 11, 55, 114
1, 220320, Note_on_c, 11, 58, 127
1, 220320, Note_on_c, 11, 62, 124
1, 220320, Note_on_c, 14, 58, 124
1, 220320, Note_on_c, 14, 62, 106
1, 220360, Note_on_c, 9, 40, 0
1, 220360, Note_on_c, 9, 42, 0
1, 220481, Note_on_c, 14, 62, 0
1, 220510, Note_on_c, 14, 58, 0
1, 220535, Note_on_c, 11, 58, 0
1, 220547, Note_on_c, 11, 55, 0
1, 220551, Note_on_c, 11, 62, 0
1, 220560, Note_on_c, 9, 35, 118
1, 220560, Note_on_c, 9, 42, 76
1, 220600, Note_on_c, 9, 35, 0
1, 220600, Note_on_c, 9, 42, 0
1, 220676, Note_on_c, 1, 31, 0
1, 220794, Note_on_c, 5, 67, 0
1, 220794, Note_on_c, 10, 67, 0
1, 220799, Note_on_c, 14, 63, 127
1, 220800, Note_on_c, 1, 39, 115
1, 220800, Note_on_c, 5, 70, 124
1, 220800, Note_on_c, 9, 35, 118
1, 220800, Note_on_c, 9, 49, 91
1, 220800, Note_on_c, 10, 70, 124
1, 220800, Note_on_c, 11, 55, 114
1, 220800, Note_on_c, 11, 58, 127
1, 220800, Note_on_c, 11, 63, 127
1, 220800, Note_on_c, 14, 58, 120
1, 220806, Note_on_c, 14, 55, 114
1, 220840, Note_on_c, 9, 35, 0
1, 220840, Note_on_c, 9, 49, 0
1, 220928, Note_on_c, 11, 58, 0
1, 220972, Note_on_c, 11, 55, 0
1, 220975, Note_on_c, 14, 58, 0
1, 220979, Note_on_c, 14, 55, 0
1, 220981, Note_on_c, 11, 63, 0
1, 220994, Note_on_c, 14, 63, 0
1, 221040, Note_on_c, 9, 42, 76
1, 221080, Note_on_c, 9, 42, 0
1, 221117, Note_on_c, 1, 39, 0
1, 221274, Note_on_c, 14, 58, 127
1, 221274, Note_on_c, 14, 63, 127
1, 221280, Note_on_c, 1, 39, 115
1, 221280, Note_on_c, 9, 40, 118
1, 221280, Note_on_c, 9, 42, 76
1, 221280, Note_on_c, 9, 57, 76
1, 221280, Note_on_c, 11, 55, 114
1, 221280, Note_on_c, 11, 58, 127
1, 221280, Note_on_c, 11, 63, 127
1, 221282, Note_on_c, 14, 55, 114
1, 221320, Note_on_c, 9, 40, 0
1, 221320, Note_on_c, 9, 42, 0
1, 221320, Note_on_c, 9, 57, 0
1, 221439, Note_on_c, 14, 55, 0
1, 221448, Note_on_c, 14, 58, 0
1, 221485, Note_on_c, 14, 63, 0
1, 221497, Note_on_c, 11, 55, 0
1, 221502, Note_on_c, 11, 58, 0
1, 221520, Note_on_c, 9, 42, 76
1, 221542, Note_on_c, 11, 63, 0
1, 221560, Note_on_c, 9, 42, 0
1, 221634, Note_on_c, 1, 39, 0
1, 221745, Note_on_c, 14, 55, 114
1, 221746, Note_on_c, 14, 58, 120
1, 221748, Note_on_c, 14, 62, 110
1, 221760, Note_on_c, 1, 39, 120
1, 221760, Note_on_c, 9, 40, 118
1, 221760, Note_on_c, 9, 42, 76
1, 221760, Note_on_c, 11, 55, 119
1, 221760, Note_on_c, 11, 58, 120
1, 221760, Note_on_c, 11, 62, 119
1, 221800, Note_on_c, 9, 40, 0
1, 221800, Note_on_c, 9, 42, 0
1, 221880, Note_on_c, 9, 40, 118
1, 221920, Note_on_c, 9, 40, 0
1, 221931, Note_on_c, 14, 58, 0
1, 221935, Note_on_c, 14, 55, 0
1, 221950, Note_on_c, 14, 62, 0
1, 221971, Note_on_c, 1, 39, 0
1, 221993, Note_on_c, 11, 55, 0
1, 222000, Note_on_c, 1, 34, 82
1, 222000, Note_on_c, 9, 35, 118
1, 222000, Note_on_c, 9, 40, 118
1, 222000, Note_on_c, 9, 42, 76
1, 222007, Note_on_c, 11, 58, 0
1, 222040, Note_on_c, 9, 35, 0
1, 222040, Note_on_c, 9, 40, 0
1, 222040, Note_on_c, 9, 42, 0
1, 222050, Note_on_c, 11, 62, 0
1, 222120, Note_on_c, 9, 40, 118
1, 222160, Note_on_c, 9, 40, 0
1, 222198, Note_on_c, 1, 34, 0
1, 222240, Note_on_c, 1, 39, 115
1, 222240, Note_on_c, 9, 40, 118
1, 222240, Note_on_c, 9, 42, 76
1, 222240, Note_on_c, 11, 55, 119
1, 222240, Note_on_c, 11, 58, 120
1, 222240, Note_on_c, 11, 62, 119
1, 222240, Note_on_c, 14, 55, 124
1, 222240, Note_on_c, 14, 58, 127
1, 222240, Note_on_c, 14, 62, 110
1, 222280, Note_on_c, 9, 40, 0
1, 222280, Note_on_c, 9, 42, 0
1, 222433, Note_on_c, 14, 58, 0
1, 222440, Note_on_c, 14, 55, 0
1, 222453, Note_on_c, 14, 62, 0
1, 222473, Note_on_c, 11, 55, 0
1, 222476, Note_on_c, 5, 70, 0
1, 222476, Note_on_c, 10, 70, 0
1, 222476, Note_on_c, 11, 58, 0
1, 222476, Note_on_c, 11, 62, 0
1, 222480, Note_on_c, 1, 31, 127
1, 222480, Note_on_c, 5, 71, 124
1, 222480, Note_on_c, 9, 35, 118
1, 222480, Note_on_c, 9, 42, 76
1, 222480, Note_on_c, 9, 49, 91
1, 222480, Note_on_c, 10, 71, 124
1, 222480, Note_on_c, 11, 43, 106
1, 222480, Note_on_c, 11, 59, 124
1, 222480, Note_on_c, 11, 62, 127
1, 222480, Note_on_c, 11, 67, 127
1, 222480, Note_on_c, 14, 59, 127
1, 222480, Note_on_c, 14, 62, 127
1, 222480, Note_on_c, 14, 67, 124
1, 222492, Lyric_t, "OH..."
1, 222492, Lyric_t, "\015"
1, 222492, Note_on_c, 3, 79, 110
1, 222497, Note_on_c, 1, 39, 0
1, 222520, Note_on_c, 9, 35, 0
1, 222520, Note_on_c, 9, 42, 0
1, 222520, Note_on_c, 9, 49, 0
1, 222720, Note_on_c, 9, 46, 76
1, 222760, Note_on_c, 9, 46, 0
1, 222874, Note_on_c, 14, 67, 0
1, 222878, Note_on_c, 11, 59, 0
1, 222882, Note_on_c, 14, 59, 0
1, 222893, Note_on_c, 14, 62, 0
1, 222903, Note_on_c, 11, 62, 0
1, 222917, Note_on_c, 11, 67, 0
1, 222956, Note_on_c, 1, 31, 0
1, 222960, Note_on_c, 1, 31, 119
1, 222960, Note_on_c, 9, 35, 118
1, 222960, Note_on_c, 9, 46, 76
1, 222960, Note_on_c, 11, 59, 124
1, 222960, Note_on_c, 11, 62, 127
1, 222960, Note_on_c, 11, 67, 127
1, 222960, Note_on_c, 14, 59, 84
1, 222960, Note_on_c, 14, 62, 78
1, 222960, Note_on_c, 14, 67, 75
1, 223000, Note_on_c, 9, 35, 0
1, 223000, Note_on_c, 9, 46, 0
1, 223053, Note_on_c, 14, 59, 0
1, 223062, Note_on_c, 14, 62, 0
1, 223076, Note_on_c, 14, 67, 0
1, 223196, Note_on_c, 1, 31, 0
1, 223200, Note_on_c, 1, 31, 124
1, 223200, Note_on_c, 9, 40, 118
1, 223200, Note_on_c, 9, 46, 76
1, 223200, Note_on_c, 14, 59, 119
1, 223200, Note_on_c, 14, 62, 119
1, 223200, Note_on_c, 14, 67, 119
1, 223240, Note_on_c, 9, 40, 0
1, 223240, Note_on_c, 9, 46, 0
1, 223358, Note_on_c, 11, 59, 0
1, 223383, Note_on_c, 11, 62, 0
1, 223397, Note_on_c, 11, 67, 0
1, 223409, Note_on_c, 14, 67, 0
1, 223436, Note_on_c, 1, 31, 0
1, 223440, Note_on_c, 1, 31, 110
1, 223440, Note_on_c, 9, 46, 76
1, 223440, Note_on_c, 11, 59, 106
1, 223440, Note_on_c, 11, 62, 102
1, 223440, Note_on_c, 11, 67, 94
1, 223440, Note_on_c, 14, 67, 87
1, 223480, Note_on_c, 9, 46, 0
1, 223538, Note_on_c, 3, 79, 0
1, 223560, Note_on_c, 9, 40, 118
1, 223565, Note_on_c, 14, 67, 0
1, 223589, Note_on_c, 14, 59, 0
1, 223600, Note_on_c, 9, 40, 0
1, 223608, Note_on_c, 14, 62, 0
1, 223676, Note_on_c, 1, 31, 0
1, 223676, Note_on_c, 11, 43, 0
1, 223680, Note_on_c, 1, 31, 114
1, 223680, Note_on_c, 9, 35, 118
1, 223680, Note_on_c, 9, 46, 76
1, 223680, Note_on_c, 14, 59, 94
1, 223680, Note_on_c, 14, 62, 87
1, 223680, Note_on_c, 14, 67, 94
1, 223720, Note_on_c, 9, 35, 0
1, 223720, Note_on_c, 9, 46, 0
1, 223780, Note_on_c, 14, 62, 0
1, 223787, Note_on_c, 14, 59, 0
1, 223797, Note_on_c, 14, 67, 0
1, 223800, Note_on_c, 11, 43, 106
1, 223847, Control_c, 5, 1, 2
1, 223847, Control_c, 10, 1, 2
1, 223885, Control_c, 5, 1, 7
1, 223885, Control_c, 10, 1, 7
1, 223916, Note_on_c, 1, 31, 0
1, 223920, Note_on_c, 1, 38, 124
1, 223920, Note_on_c, 9, 40, 118
1, 223920, Note_on_c, 9, 46, 76
1, 223920, Note_on_c, 14, 59, 99
1, 223920, Note_on_c, 14, 62, 94
1, 223920, Note_on_c, 14, 67, 91
1, 223923, Control_c, 5, 1, 13
1, 223923, Control_c, 10, 1, 13
1, 223960, Note_on_c, 9, 40, 0
1, 223960, Note_on_c, 9, 46, 0
1, 223961, Control_c, 5, 1, 18
1, 223961, Control_c, 10, 1, 18
1, 223991, Note_on_c, 14, 62, 0
1, 223992, Note_on_c, 14, 67, 0
1, 223999, Control_c, 5, 1, 23
1, 223999, Control_c, 10, 1, 23
1, 224001, Note_on_c, 14, 59, 0
1, 224040, Note_on_c, 11, 50, 102
1, 224056, Control_c, 5, 1, 29
1, 224056, Control_c, 10, 1, 29
1, 224094, Control_c, 5, 1, 34
1, 224094, Control_c, 10, 1, 34
1, 224132, Control_c, 5, 1, 45
1, 224132, Control_c, 10, 1, 45
1, 224156, Note_on_c, 1, 38, 0
1, 224160, Note_on_c, 1, 40, 124
1, 224160, Note_on_c, 9, 40, 118
1, 224160, Note_on_c, 9, 46, 76
1, 224160, Note_on_c, 14, 59, 124
1, 224160, Note_on_c, 14, 62, 124
1, 224160, Note_on_c, 14, 67, 124
1, 224163, Control_c, 5, 1, 55
1, 224163, Control_c, 10, 1, 55
1, 224193, Control_c, 5, 1, 60
1, 224193, Control_c, 10, 1, 60
1, 224200, Note_on_c, 9, 40, 0
1, 224200, Note_on_c, 9, 46, 0
1, 224227, Control_c, 5, 1, 65
1, 224227, Control_c, 10, 1, 65
1, 224245, Note_on_c, 11, 59, 0
1, 224250, Note_on_c, 11, 62, 0
1, 224261, Note_on_c, 11, 67, 0
1, 224265, Control_c, 5, 1, 68
1, 224265, Control_c, 10, 1, 68
1, 224280, Note_on_c, 9, 40, 118
1, 224280, Note_on_c, 11, 55, 127
1, 224280, Note_on_c, 11, 59, 110
1, 224280, Note_on_c, 11, 62, 110
1, 224280, Note_on_c, 11, 67, 114
1, 224320, Note_on_c, 9, 40, 0
1, 224332, Note_on_c, 14, 62, 0
1, 224356, Control_c, 5, 1, 0
1, 224356, Control_c, 10, 1, 0
1, 224365, Note_on_c, 14, 67, 0
1, 224396, Note_on_c, 1, 40, 0
1, 224400, Note_on_c, 1, 43, 106
1, 224400, Note_on_c, 9, 46, 76
1, 224400, Note_on_c, 9, 47, 118
1, 224400, Note_on_c, 14, 62, 106
1, 224400, Note_on_c, 14, 67, 84
1, 224440, Note_on_c, 9, 46, 0
1, 224440, Note_on_c, 9, 47, 0
1, 224502, Note_on_c, 14, 67, 0
1, 224504, Note_on_c, 14, 62, 0
1, 224513, Note_on_c, 14, 59, 0
1, 224520, Note_on_c, 9, 45, 118
1, 224560, Note_on_c, 9, 45, 0
1, 224636, Note_on_c, 5, 71, 0
1, 224636, Note_on_c, 10, 71, 0
1, 224640, Note_on_c, 5, 74, 124
1, 224640, Note_on_c, 9, 35, 127
1, 224640, Note_on_c, 9, 57, 76
1, 224640, Note_on_c, 10, 74, 124
1, 224640, Note_on_c, 14, 59, 124
1, 224640, Note_on_c, 14, 62, 119
1, 224640, Note_on_c, 14, 67, 127
1, 224672, Note_on_c, 11, 59, 0
1, 224678, Lyric_t, "HOL"
1, 224678, Note_on_c, 3, 79, 111
1, 224680, Note_on_c, 9, 57, 0
1, 224680, Note_on_c, 11, 62, 0
1, 224703, Note_on_c, 11, 67, 0
1, 224724, Note_on_c, 9, 35, 0
1, 224760, Note_on_c, 9, 40, 71
1, 224760, Note_on_c, 11, 59, 94
1, 224760, Note_on_c, 11, 62, 99
1, 224760, Note_on_c, 11, 67, 91
1, 224820, Note_on_c, 9, 40, 0
1, 224876, Note_on_c, 1, 43, 0
1, 224880, Note_on_c, 1, 43, 99
1, 224880, Note_on_c, 9, 40, 91
1, 224891, Note_on_c, 3, 79, 0
1, 224924, Note_on_c, 9, 40, 0
1, 224931, Lyric_t, "LY"
1, 224931, Note_on_c, 3, 76, 109
1, 224940, Note_on_c, 11, 62, 0
1, 224943, Note_on_c, 11, 59, 0
1, 224962, Note_on_c, 11, 67, 0
1, 224982, Note_on_c, 14, 59, 0
1, 224995, Note_on_c, 14, 62, 0
1, 224998, Note_on_c, 14, 67, 0
1, 225000, Note_on_c, 9, 40, 110
1, 225068, Note_on_c, 9, 40, 0
1, 225106, Note_on_c, 3, 76, 0
1, 225116, Note_on_c, 1, 43, 0
1, 225120, Note_on_c, 1, 43, 110
1, 225120, Note_on_c, 9, 40, 127
1, 225120, Note_on_c, 11, 59, 84
1, 225120, Note_on_c, 11, 62, 91
1, 225120, Note_on_c, 11, 67, 91
1, 225120, Note_on_c, 14, 59, 114
1, 225120, Note_on_c, 14, 62, 110
1, 225120, Note_on_c, 14, 67, 110
1, 225145, Lyric_t, "WOOD "
1, 225145, Note_on_c, 3, 79, 109
1, 225201, Note_on_c, 11, 62, 0
1, 225211, Note_on_c, 9, 40, 0
1, 225211, Note_on_c, 11, 59, 0
1, 225213, Note_on_c, 11, 67, 0
1, 225218, Note_on_c, 14, 59, 0
1, 225221, Note_on_c, 14, 62, 0
1, 225223, Note_on_c, 14, 67, 0
1, 225240, Note_on_c, 9, 40, 87
1, 225309, Note_on_c, 9, 40, 0
1, 225356, Note_on_c, 1, 43, 0
1, 225360, Note_on_c, 1, 43, 124
1, 225360, Note_on_c, 9, 40, 75
1, 225360, Note_on_c, 11, 59, 119
1, 225360, Note_on_c, 11, 62, 124
1, 225360, Note_on_c, 11, 65, 87
1, 225360, Note_on_c, 11, 67, 114
1, 225360, Note_on_c, 14, 59, 114
1, 225360, Note_on_c, 14, 62, 114
1, 225360, Note_on_c, 14, 67, 127
1, 225370, Note_on_c, 3, 79, 0
1, 225370, Note_on_c, 11, 65, 0
1, 225388, Lyric_t, "IS "
1, 225388, Note_on_c, 3, 76, 109
1, 225422, Note_on_c, 9, 40, 0
1, 225480, Note_on_c, 9, 40, 91
1, 225563, Note_on_c, 9, 40, 0
1, 225596, Note_on_c, 1, 43, 0
1, 225600, Note_on_c, 1, 43, 110
1, 225600, Note_on_c, 9, 45, 106
1, 225645, Note_on_c, 3, 76, 0
1, 225658, Lyric_t, "DEAD "
1, 225658, Note_on_c, 3, 81, 109
1, 225704, Note_on_c, 9, 45, 0
1, 225710, Note_on_c, 14, 59, 0
1, 225720, Note_on_c, 9, 40, 71
1, 225725, Note_on_c, 14, 62, 0
1, 225733, Note_on_c, 14, 67, 0
1, 225803, Note_on_c, 9, 40, 0
1, 225836, Note_on_c, 1, 43, 0
1, 225840, Note_on_c, 1, 43, 99
1, 225840, Note_on_c, 9, 45, 60
1, 225840, Note_on_c, 14, 59, 124
1, 225840, Note_on_c, 14, 62, 127
1, 225840, Note_on_c, 14, 67, 124
1, 225873, Note_on_c, 9, 45, 0
1, 225960, Note_on_c, 9, 40, 78
1, 226033, Note_on_c, 11, 62, 0
1, 226033, Note_on_c, 11, 67, 0
1, 226035, Note_on_c, 11, 59, 0
1, 226054, Note_on_c, 9, 40, 0
1, 226080, Note_on_c, 9, 41, 119
1, 226080, Note_on_c, 11, 59, 102
1, 226080, Note_on_c, 11, 62, 119
1, 226080, Note_on_c, 11, 67, 114
1, 226175, Note_on_c, 14, 59, 0
1, 226177, Note_on_c, 9, 41, 0
1, 226192, Note_on_c, 14, 62, 0
1, 226195, Note_on_c, 14, 67, 0
1, 226200, Note_on_c, 9, 40, 94
1, 226303, Note_on_c, 9, 40, 0
1, 226316, Note_on_c, 1, 43, 0
1, 226320, Note_on_c, 1, 43, 119
1, 226320, Note_on_c, 9, 41, 72
1, 226320, Note_on_c, 14, 59, 114
1, 226320, Note_on_c, 14, 62, 106
1, 226320, Note_on_c, 14, 67, 114
1, 226334, Note_on_c, 3, 81, 0
1, 226378, Note_on_c, 9, 41, 0
1, 226381, Lyric_t, "IS "
1, 226381, Note_on_c, 3, 79, 110
1, 226392, Note_on_c, 11, 43, 0
1, 226392, Note_on_c, 11, 50, 0
1, 226406, Note_on_c, 11, 59, 0
1, 226410, Note_on_c, 11, 55, 0
1, 226425, Note_on_c, 14, 59, 0
1, 226440, Note_on_c, 9, 43, 65
1, 226444, Note_on_c, 11, 62, 0
1, 226445, Note_on_c, 14, 62, 0
1, 226466, Note_on_c, 11, 67, 0
1, 226472, Note_on_c, 14, 67, 0
1, 226493, Note_on_c, 9, 43, 0
1, 226556, Note_on_c, 1, 43, 0
1, 226556, Note_on_c, 5, 74, 0
1, 226556, Note_on_c, 10, 74, 0
1, 226560, Note_on_c, 1, 29, 127
1, 226560, Note_on_c, 4, 57, 114
1, 226560, Note_on_c, 4, 69, 124
1, 226560, Note_on_c, 5, 57, 114
1, 226560, Note_on_c, 5, 69, 124
1, 226560, Note_on_c, 6, 41, 110
1, 226560, Note_on_c, 6, 48, 119
1, 226560, Note_on_c, 9, 35, 118
1, 226560, Note_on_c, 9, 49, 91
1, 226560, Note_on_c, 12, 41, 127
1, 226597, Note_on_c, 3, 79, 0
1, 226600, Note_on_c, 9, 35, 0
1, 226600, Note_on_c, 9, 49, 0
1, 226619, Lyric_t, "DEA"
1, 226619, Note_on_c, 3, 76, 109
1, 226796, Note_on_c, 6, 41, 0
1, 226796, Note_on_c, 6, 48, 0
1, 226800, Note_on_c, 6, 41, 110
1, 226800, Note_on_c, 6, 48, 119
1, 226800, Note_on_c, 6, 53, 60
1, 226800, Note_on_c, 9, 42, 76
1, 226840, Note_on_c, 9, 42, 0
1, 226935, Note_on_c, 12, 41, 0
1, 226967, Note_on_c, 1, 29, 0
1, 227017, Note_on_c, 4, 69, 0
1, 227017, Note_on_c, 5, 69, 0
1, 227028, Note_on_c, 4, 57, 0
1, 227028, Note_on_c, 5, 57, 0
1, 227036, Note_on_c, 6, 41, 0
1, 227036, Note_on_c, 6, 48, 0
1, 227036, Note_on_c, 6, 53, 0
1, 227040, Note_on_c, 1, 29, 119
1, 227040, Note_on_c, 4, 60, 110
1, 227040, Note_on_c, 4, 72, 127
1, 227040, Note_on_c, 5, 60, 110
1, 227040, Note_on_c, 5, 72, 127
1, 227040, Note_on_c, 6, 41, 119
1, 227040, Note_on_c, 6, 48, 127
1, 227040, Note_on_c, 6, 53, 94
1, 227040, Note_on_c, 9, 40, 118
1, 227040, Note_on_c, 9, 42, 76
1, 227040, Note_on_c, 9, 57, 91
1, 227040, Note_on_c, 12, 41, 94
1, 227040, Note_on_c, 12, 48, 127
1, 227040, Note_on_c, 12, 57, 119
1, 227040, Note_on_c, 12, 60, 127
1, 227040, Note_on_c, 12, 65, 127
1, 227080, Note_on_c, 9, 40, 0
1, 227080, Note_on_c, 9, 42, 0
1, 227080, Note_on_c, 9, 57, 0
1, 227119, Note_on_c, 12, 60, 0
1, 227276, Note_on_c, 6, 41, 0
1, 227276, Note_on_c, 6, 48, 0
1, 227276, Note_on_c, 6, 53, 0
1, 227280, Note_on_c, 6, 41, 119
1, 227280, Note_on_c, 6, 48, 127
1, 227280, Note_on_c, 6, 53, 91
1, 227280, Note_on_c, 9, 42, 76
1, 227280, Note_on_c, 12, 60, 45
1, 227320, Note_on_c, 9, 42, 0
1, 227371, Note_on_c, 12, 57, 0
1, 227452, Note_on_c, 4, 72, 0
1, 227452, Note_on_c, 5, 72, 0
1, 227465, Note_on_c, 1, 29, 0
1, 227474, Note_on_c, 4, 60, 0
1, 227474, Note_on_c, 5, 60, 0
1, 227516, Note_on_c, 6, 41, 0
1, 227516, Note_on_c, 6, 48, 0
1, 227516, Note_on_c, 6, 53, 0
1, 227520, Note_on_c, 1, 29, 119
1, 227520, Note_on_c, 4, 62, 119
1, 227520, Note_on_c, 4, 74, 119
1, 227520, Note_on_c, 5, 62, 119
1, 227520, Note_on_c, 5, 74, 119
1, 227520, Note_on_c, 6, 41, 106
1, 227520, Note_on_c, 6, 48, 110
1, 227520, Note_on_c, 9, 35, 118
1, 227520, Note_on_c, 9, 42, 76
1, 227520, Note_on_c, 12, 57, 106
1, 227545, Note_on_c, 12, 65, 0
1, 227560, Note_on_c, 9, 35, 0
1, 227560, Note_on_c, 9, 42, 0
1, 227604, Note_on_c, 1, 29, 0
1, 227636, Note_on_c, 12, 57, 0
1, 227695, Note_on_c, 12, 60, 0
1, 227716, Note_on_c, 3, 76, 0
1, 227717, Note_on_c, 3, 74, 106
1, 227749, Note_on_c, 4, 74, 0
1, 227749, Note_on_c, 5, 74, 0
1, 227751, Note_on_c, 4, 62, 0
1, 227751, Note_on_c, 5, 62, 0
1, 227756, Note_on_c, 6, 41, 0
1, 227756, Note_on_c, 6, 48, 0
1, 227760, Note_on_c, 1, 29, 124
1, 227760, Note_on_c, 4, 64, 114
1, 227760, Note_on_c, 4, 76, 102
1, 227760, Note_on_c, 5, 64, 114
1, 227760, Note_on_c, 5, 76, 102
1, 227760, Note_on_c, 6, 41, 114
1, 227760, Note_on_c, 6, 48, 110
1, 227760, Note_on_c, 9, 35, 118
1, 227760, Note_on_c, 9, 42, 76
1, 227760, Note_on_c, 12, 57, 110
1, 227760, Note_on_c, 12, 60, 127
1, 227760, Note_on_c, 12, 65, 127
1, 227800, Note_on_c, 9, 35, 0
1, 227800, Note_on_c, 9, 42, 0
1, 227822, Note_on_c, 3, 74, 0
1, 227829, Lyric_t, "D"
1, 227829, Lyric_t, "\015"
1, 227829, Note_on_c, 3, 72, 106
1, 227837, Note_on_c, 12, 41, 0
1, 227845, Note_on_c, 12, 48, 0
1, 227972, Note_on_c, 4, 64, 0
1, 227972, Note_on_c, 5, 64, 0
1, 227974, Note_on_c, 4, 76, 0
1, 227974, Note_on_c, 5, 76, 0
1, 227996, Note_on_c, 6, 41, 0
1, 227996, Note_on_c, 6, 48, 0
1, 228000, Note_on_c, 4, 62, 110
1, 228000, Note_on_c, 4, 74, 119
1, 228000, Note_on_c, 5, 62, 110
1, 228000, Note_on_c, 5, 74, 119
1, 228000, Note_on_c, 6, 41, 119
1, 228000, Note_on_c, 6, 48, 127
1, 228000, Note_on_c, 6, 53, 127
1, 228000, Note_on_c, 9, 40, 118
1, 228000, Note_on_c, 9, 42, 76
1, 228000, Note_on_c, 12, 41, 114
1, 228000, Note_on_c, 12, 48, 114
1, 228040, Note_on_c, 9, 40, 0
1, 228040, Note_on_c, 9, 42, 0
1, 228074, Note_on_c, 12, 57, 0
1, 228128, Note_on_c, 1, 29, 0
1, 228214, Note_on_c, 4, 74, 0
1, 228214, Note_on_c, 5, 74, 0
1, 228216, Note_on_c, 4, 62, 0
1, 228216, Note_on_c, 5, 62, 0
1, 228236, Note_on_c, 6, 41, 0
1, 228236, Note_on_c, 6, 48, 0
1, 228236, Note_on_c, 6, 53, 0
1, 228240, Note_on_c, 1, 29, 124
1, 228240, Note_on_c, 4, 60, 119
1, 228240, Note_on_c, 4, 72, 127
1, 228240, Note_on_c, 5, 60, 119
1, 228240, Note_on_c, 5, 72, 127
1, 228240, Note_on_c, 6, 41, 99
1, 228240, Note_on_c, 6, 48, 110
1, 228240, Note_on_c, 6, 53, 110
1, 228240, Note_on_c, 9, 40, 118
1, 228240, Note_on_c, 9, 42, 76
1, 228240, Note_on_c, 9, 57, 91
1, 228240, Note_on_c, 12, 57, 106
1, 228242, Note_on_c, 12, 41, 0
1, 228272, Note_on_c, 12, 48, 0
1, 228280, Note_on_c, 9, 40, 0
1, 228280, Note_on_c, 9, 42, 0
1, 228280, Note_on_c, 9, 57, 0
1, 228366, Note_on_c, 1, 29, 0
1, 228476, Note_on_c, 6, 41, 0
1, 228476, Note_on_c, 6, 48, 0
1, 228476, Note_on_c, 6, 53, 0
1, 228477, Note_on_c, 3, 72, 0
1, 228480, Note_on_c, 1, 29, 119
1, 228480, Note_on_c, 6, 41, 114
1, 228480, Note_on_c, 6, 48, 119
1, 228480, Note_on_c, 9, 35, 118
1, 228480, Note_on_c, 9, 42, 76
1, 228480, Note_on_c, 12, 41, 127
1, 228480, Note_on_c, 12, 48, 127
1, 228520, Note_on_c, 9, 35, 0
1, 228520, Note_on_c, 9, 42, 0
1, 228716, Note_on_c, 6, 41, 0
1, 228716, Note_on_c, 6, 48, 0
1, 228720, Note_on_c, 6, 41, 114
1, 228720, Note_on_c, 6, 48, 119
1, 228720, Note_on_c, 9, 42, 76
1, 228760, Note_on_c, 9, 42, 0
1, 228807, Note_on_c, 12, 65, 0
1, 228812, Note_on_c, 12, 57, 0
1, 228820, Note_on_c, 12, 60, 0
1, 228827, Note_on_c, 12, 41, 0
1, 228838, Note_on_c, 12, 48, 0
1, 228891, Note_on_c, 4, 60, 0
1, 228891, Note_on_c, 5, 60, 0
1, 228956, Note_on_c, 6, 41, 0
1, 228956, Note_on_c, 6, 48, 0
1, 228960, Note_on_c, 4, 57, 119
1, 228960, Note_on_c, 4, 69, 114
1, 228960, Note_on_c, 5, 57, 119
1, 228960, Note_on_c, 5, 69, 114
1, 228960, Note_on_c, 6, 41, 110
1, 228960, Note_on_c, 6, 48, 119
1, 228960, Note_on_c, 6, 53, 127
1, 228960, Note_on_c, 9, 40, 118
1, 228960, Note_on_c, 9, 42, 76
1, 228960, Note_on_c, 12, 41, 127
1, 228960, Note_on_c, 12, 48, 127
1, 228960, Note_on_c, 12, 57, 110
1, 228960, Note_on_c, 12, 60, 124
1, 228960, Note_on_c, 12, 65, 124
1, 228975, Note_on_c, 4, 72, 0
1, 228975, Note_on_c, 5, 72, 0
1, 229000, Note_on_c, 9, 40, 0
1, 229000, Note_on_c, 9, 42, 0
1, 229196, Note_on_c, 6, 41, 0
1, 229196, Note_on_c, 6, 48, 0
1, 229196, Note_on_c, 6, 53, 0
1, 229200, Note_on_c, 6, 41, 65
1, 229200, Note_on_c, 6, 48, 94
1, 229200, Note_on_c, 6, 53, 91
1, 229200, Note_on_c, 9, 42, 76
1, 229240, Note_on_c, 9, 42, 0
1, 229276, Note_on_c, 12, 57, 0
1, 229327, Note_on_c, 4, 57, 0
1, 229327, Note_on_c, 5, 57, 0
1, 229340, Note_on_c, 1, 29, 0
1, 229399, Note_on_c, 4, 69, 0
1, 229399, Note_on_c, 5, 69, 0
1, 229436, Note_on_c, 6, 41, 0
1, 229436, Note_on_c, 6, 48, 0
1, 229436, Note_on_c, 6, 53, 0
1, 229440, Note_on_c, 1, 29, 114
1, 229440, Note_on_c, 4, 62, 119
1, 229440, Note_on_c, 4, 74, 119
1, 229440, Note_on_c, 5, 62, 119
1, 229440, Note_on_c, 5, 74, 119
1, 229440, Note_on_c, 6, 41, 106
1, 229440, Note_on_c, 6, 48, 114
1, 229440, Note_on_c, 9, 35, 118
1, 229440, Note_on_c, 9, 42, 76
1, 229440, Note_on_c, 12, 57, 94
1, 229480, Note_on_c, 9, 35, 0
1, 229480, Note_on_c, 9, 42, 0
1, 229493, Note_on_c, 12, 65, 0
1, 229517, Note_on_c, 12, 60, 0
1, 229542, Note_on_c, 12, 57, 0
1, 229557, Note_on_c, 1, 29, 0
1, 229669, Note_on_c, 4, 74, 0
1, 229669, Note_on_c, 5, 74, 0
1, 229671, Note_on_c, 4, 62, 0
1, 229671, Note_on_c, 5, 62, 0
1, 229676, Note_on_c, 6, 41, 0
1, 229676, Note_on_c, 6, 48, 0
1, 229680, Note_on_c, 1, 29, 124
1, 229680, Note_on_c, 4, 64, 114
1, 229680, Note_on_c, 4, 76, 102
1, 229680, Note_on_c, 5, 64, 114
1, 229680, Note_on_c, 5, 76, 102
1, 229680, Note_on_c, 6, 41, 102
1, 229680, Note_on_c, 6, 48, 106
1, 229680, Note_on_c, 9, 35, 118
1, 229680, Note_on_c, 9, 42, 76
1, 229680, Note_on_c, 12, 57, 114
1, 229680, Note_on_c, 12, 60, 127
1, 229680, Note_on_c, 12, 65, 127
1, 229716, Note_on_c, 12, 41, 0
1, 229718, Lyric_t, "UH "
1, 229718, Note_on_c, 3, 79, 111
1, 229720, Note_on_c, 9, 35, 0
1, 229720, Note_on_c, 9, 42, 0
1, 229736, Note_on_c, 12, 48, 0
1, 229892, Note_on_c, 4, 64, 0
1, 229892, Note_on_c, 5, 64, 0
1, 229894, Note_on_c, 4, 76, 0
1, 229894, Note_on_c, 5, 76, 0
1, 229897, Note_on_c, 1, 29, 0
1, 229907, Note_on_c, 3, 79, 0
1, 229916, Note_on_c, 6, 41, 0
1, 229916, Note_on_c, 6, 48, 0
1, 229920, Note_on_c, 1, 29, 119
1, 229920, Note_on_c, 4, 62, 110
1, 229920, Note_on_c, 4, 74, 119
1, 229920, Note_on_c, 5, 62, 110
1, 229920, Note_on_c, 5, 74, 119
1, 229920, Note_on_c, 6, 41, 106
1, 229920, Note_on_c, 6, 48, 119
1, 229920, Note_on_c, 6, 53, 124
1, 229920, Note_on_c, 9, 40, 118
1, 229920, Note_on_c, 9, 42, 76
1, 229920, Note_on_c, 12, 41, 114
1, 229920, Note_on_c, 12, 48, 127
1, 229922, Lyric_t, "IS "
1, 229922, Note_on_c, 3, 76, 107
1, 229946, Note_on_c, 12, 57, 0
1, 229960, Note_on_c, 9, 40, 0
1, 229960, Note_on_c, 9, 42, 0
1, 230086, Note_on_c, 1, 29, 0
1, 230107, Note_on_c, 3, 76, 0
1, 230134, Note_on_c, 4, 74, 0
1, 230134, Note_on_c, 5, 74, 0
1, 230136, Note_on_c, 4, 62, 0
1, 230136, Note_on_c, 5, 62, 0
1, 230156, Note_on_c, 6, 41, 0
1, 230156, Note_on_c, 6, 48, 0
1, 230156, Note_on_c, 6, 53, 0
1, 230160, Note_on_c, 1, 29, 127
1, 230160, Note_on_c, 4, 60, 119
1, 230160, Note_on_c, 4, 72, 127
1, 230160, Note_on_c, 5, 60, 119
1, 230160, Note_on_c, 5, 72, 127
1, 230160, Note_on_c, 6, 53, 99
1, 230160, Note_on_c, 9, 42, 76
1, 230160, Note_on_c, 12, 57, 106
1, 230183, Lyric_t, "DEAD"
1, 230183, Lyric_t, "\015"
1, 230183, Note_on_c, 3, 74, 107
1, 230200, Note_on_c, 9, 42, 0
1, 230224, Note_on_c, 12, 41, 0
1, 230295, Note_on_c, 12, 48, 0
1, 230355, Note_on_c, 1, 29, 0
1, 230392, Note_on_c, 3, 74, 0
1, 230396, Note_on_c, 6, 53, 0
1, 230400, Note_on_c, 1, 29, 127
1, 230400, Note_on_c, 6, 41, 127
1, 230400, Note_on_c, 9, 35, 118
1, 230400, Note_on_c, 9, 42, 76
1, 230400, Note_on_c, 10, 41, 115
1, 230400, Note_on_c, 12, 41, 127
1, 230400, Note_on_c, 12, 48, 127
1, 230440, Note_on_c, 9, 35, 0
1, 230440, Note_on_c, 9, 42, 0
1, 230469, Note_on_c, 12, 60, 0
1, 230494, Note_on_c, 12, 57, 0
1, 230536, Note_on_c, 12, 65, 0
1, 230627, Note_on_c, 1, 29, 0
1, 230627, Note_on_c, 6, 41, 0
1, 230627, Note_on_c, 10, 41, 0
1, 230640, Lyric_t, "HOL"
1, 230640, Note_on_c, 1, 31, 124
1, 230640, Note_on_c, 3, 79, 111
1, 230640, Note_on_c, 6, 43, 127
1, 230640, Note_on_c, 9, 42, 76
1, 230640, Note_on_c, 10, 43, 115
1, 230680, Note_on_c, 9, 42, 0
1, 230747, Note_on_c, 12, 41, 0
1, 230758, Note_on_c, 12, 48, 0
1, 230811, Note_on_c, 4, 60, 0
1, 230811, Note_on_c, 5, 60, 0
1, 230837, Note_on_c, 3, 79, 0
1, 230880, Lyric_t, "LY"
1, 230880, Note_on_c, 3, 76, 104
1, 230880, Note_on_c, 4, 56, 119
1, 230880, Note_on_c, 4, 68, 114
1, 230880, Note_on_c, 5, 56, 119
1, 230880, Note_on_c, 5, 68, 114
1, 230880, Note_on_c, 9, 40, 118
1, 230880, Note_on_c, 9, 42, 76
1, 230880, Note_on_c, 12, 41, 127
1, 230880, Note_on_c, 12, 48, 127
1, 230880, Note_on_c, 12, 56, 110
1, 230880, Note_on_c, 12, 60, 124
1, 230880, Note_on_c, 12, 65, 124
1, 230895, Note_on_c, 4, 72, 0
1, 230895, Note_on_c, 5, 72, 0
1, 230920, Note_on_c, 9, 40, 0
1, 230920, Note_on_c, 9, 42, 0
1, 231105, Note_on_c, 1, 31, 0
1, 231110, Note_on_c, 6, 43, 0
1, 231110, Note_on_c, 10, 43, 0
1, 231120, Lyric_t, "WOOD "
1, 231120, Note_on_c, 1, 32, 127
1, 231120, Note_on_c, 3, 74, 107
1, 231120, Note_on_c, 6, 44, 127
1, 231120, Note_on_c, 9, 42, 76
1, 231120, Note_on_c, 10, 44, 115
1, 231149, Note_on_c, 3, 76, 0
1, 231160, Note_on_c, 9, 42, 0
1, 231196, Note_on_c, 12, 56, 0
1, 231247, Note_on_c, 4, 56, 0
1, 231247, Note_on_c, 5, 56, 0
1, 231302, Note_on_c, 3, 74, 0
1, 231319, Note_on_c, 4, 68, 0
1, 231319, Note_on_c, 5, 68, 0
1, 231360, Lyric_t, "IS "
1, 231360, Note_on_c, 3, 72, 104
1, 231360, Note_on_c, 4, 62, 119
1, 231360, Note_on_c, 4, 74, 119
1, 231360, Note_on_c, 5, 62, 119
1, 231360, Note_on_c, 5, 74, 119
1, 231360, Note_on_c, 9, 35, 118
1, 231360, Note_on_c, 9, 42, 76
1, 231360, Note_on_c, 12, 56, 94
1, 231400, Note_on_c, 9, 35, 0
1, 231400, Note_on_c, 9, 42, 0
1, 231413, Note_on_c, 12, 65, 0
1, 231437, Note_on_c, 12, 60, 0
1, 231462, Note_on_c, 12, 56, 0
1, 231487, Note_on_c, 3, 72, 0
1, 231570, Note_on_c, 6, 44, 0
1, 231570, Note_on_c, 10, 44, 0
1, 231589, Note_on_c, 4, 74, 0
1, 231589, Note_on_c, 5, 74, 0
1, 231590, Note_on_c, 1, 32, 0
1, 231591, Note_on_c, 4, 62, 0
1, 231591, Note_on_c, 5, 62, 0
1, 231600, Lyric_t, "DEAD"
1, 231600, Lyric_t, "\015"
1, 231600, Note_on_c, 1, 34, 124
1, 231600, Note_on_c, 3, 72, 107
1, 231600, Note_on_c, 4, 64, 114
1, 231600, Note_on_c, 4, 76, 102
1, 231600, Note_on_c, 5, 64, 114
1, 231600, Note_on_c, 5, 76, 102
1, 231600, Note_on_c, 6, 46, 127
1, 231600, Note_on_c, 9, 35, 118
1, 231600, Note_on_c, 9, 42, 76
1, 231600, Note_on_c, 10, 46, 115
1, 231600, Note_on_c, 12, 56, 114
1, 231600, Note_on_c, 12, 60, 127
1, 231600, Note_on_c, 12, 65, 127
1, 231636, Note_on_c, 12, 41, 0
1, 231640, Note_on_c, 9, 35, 0
1, 231640, Note_on_c, 9, 42, 0
1, 231656, Note_on_c, 12, 48, 0
1, 231812, Note_on_c, 4, 64, 0
1, 231812, Note_on_c, 5, 64, 0
1, 231814, Note_on_c, 4, 76, 0
1, 231814, Note_on_c, 5, 76, 0
1, 231840, Note_on_c, 4, 62, 110
1, 231840, Note_on_c, 4, 74, 119
1, 231840, Note_on_c, 5, 62, 110
1, 231840, Note_on_c, 5, 74, 119
1, 231840, Note_on_c, 9, 40, 118
1, 231840, Note_on_c, 9, 42, 76
1, 231840, Note_on_c, 12, 41, 114
1, 231840, Note_on_c, 12, 48, 127
1, 231866, Note_on_c, 12, 56, 0
1, 231880, Note_on_c, 9, 40, 0
1, 231880, Note_on_c, 9, 42, 0
1, 231966, Note_on_c, 3, 72, 0
1, 231989, Note_on_c, 6, 46, 0
1, 231989, Note_on_c, 10, 46, 0
1, 232003, Note_on_c, 1, 34, 0
1, 232054, Note_on_c, 4, 74, 0
1, 232054, Note_on_c, 5, 74, 0
1, 232056, Note_on_c, 4, 62, 0
1, 232056, Note_on_c, 5, 62, 0
1, 232080, Lyric_t, "BABE "
1, 232080, Note_on_c, 1, 35, 120
1, 232080, Note_on_c, 3, 76, 109
1, 232080, Note_on_c, 4, 60, 119
1, 232080, Note_on_c, 4, 72, 127
1, 232080, Note_on_c, 5, 60, 119
1, 232080, Note_on_c, 5, 72, 127
1, 232080, Note_on_c, 6, 47, 102
1, 232080, Note_on_c, 9, 42, 76
1, 232080, Note_on_c, 10, 47, 90
1, 232080, Note_on_c, 12, 56, 106
1, 232120, Note_on_c, 9, 42, 0
1, 232144, Note_on_c, 12, 41, 0
1, 232215, Note_on_c, 12, 48, 0
1, 232269, Note_on_c, 12, 60, 0
1, 232316, Note_on_c, 12, 56, 0
1, 232320, Note_on_c, 1, 36, 127
1, 232320, Note_on_c, 6, 48, 127
1, 232320, Note_on_c, 9, 35, 118
1, 232320, Note_on_c, 9, 42, 76
1, 232320, Note_on_c, 10, 48, 115
1, 232320, Note_on_c, 12, 48, 124
1, 232320, Note_on_c, 12, 55, 94
1, 232320, Note_on_c, 12, 60, 124
1, 232320, Note_on_c, 12, 64, 124
1, 232330, Note_on_c, 1, 35, 0
1, 232336, Note_on_c, 12, 65, 0
1, 232339, Note_on_c, 3, 76, 0
1, 232343, Note_on_c, 6, 47, 0
1, 232343, Note_on_c, 10, 47, 0
1, 232360, Note_on_c, 9, 35, 0
1, 232360, Note_on_c, 9, 42, 0
1, 232560, Note_on_c, 9, 42, 76
1, 232600, Note_on_c, 9, 42, 0
1, 232646, Note_on_c, 12, 48, 0
1, 232650, Note_on_c, 12, 55, 0
1, 232668, Note_on_c, 12, 64, 0
1, 232672, Note_on_c, 12, 60, 0
1, 232699, Note_on_c, 6, 48, 0
1, 232699, Note_on_c, 10, 48, 0
1, 232727, Note_on_c, 1, 36, 0
1, 232800, Note_on_c, 1, 36, 119
1, 232800, Note_on_c, 6, 48, 46
1, 232800, Note_on_c, 6, 55, 102
1, 232800, Note_on_c, 9, 40, 118
1, 232800, Note_on_c, 9, 42, 76
1, 232800, Note_on_c, 12, 48, 110
1, 232840, Note_on_c, 9, 40, 0
1, 232840, Note_on_c, 9, 42, 0
1, 232881, Note_on_c, 12, 48, 0
1, 233036, Note_on_c, 6, 48, 0
1, 233036, Note_on_c, 6, 55, 0
1, 233040, Lyric_t, "BABE "
1, 233040, Note_on_c, 3, 76, 109
1, 233040, Note_on_c, 6, 48, 87
1, 233040, Note_on_c, 6, 55, 102
1, 233040, Note_on_c, 9, 42, 76
1, 233040, Note_on_c, 12, 48, 127
1, 233040, Note_on_c, 12, 55, 94
1, 233040, Note_on_c, 12, 60, 124
1, 233040, Note_on_c, 12, 64, 124
1, 233080, Note_on_c, 9, 42, 0
1, 233225, Note_on_c, 1, 36, 0
1, 233276, Note_on_c, 6, 48, 0
1, 233276, Note_on_c, 6, 55, 0
1, 233280, Note_on_c, 1, 36, 119
1, 233280, Note_on_c, 6, 48, 114
1, 233280, Note_on_c, 6, 55, 114
1, 233280, Note_on_c, 9, 35, 118
1, 233280, Note_on_c, 9, 42, 76
1, 233299, Note_on_c, 3, 76, 0
1, 233320, Note_on_c, 9, 35, 0
1, 233320, Note_on_c, 9, 42, 0
1, 233364, Note_on_c, 1, 36, 0
1, 233370, Note_on_c, 12, 55, 0
1, 233388, Note_on_c, 12, 64, 0
1, 233392, Note_on_c, 12, 60, 0
1, 233516, Note_on_c, 6, 48, 0
1, 233516, Note_on_c, 6, 55, 0
1, 233520, Note_on_c, 1, 36, 124
1, 233520, Note_on_c, 6, 48, 119
1, 233520, Note_on_c, 6, 55, 119
1, 233520, Note_on_c, 9, 35, 118
1, 233520, Note_on_c, 9, 42, 76
1, 233520, Note_on_c, 12, 55, 110
1, 233520, Note_on_c, 12, 60, 114
1, 233520, Note_on_c, 12, 64, 114
1, 233536, Note_on_c, 12, 48, 0
1, 233560, Note_on_c, 9, 35, 0
1, 233560, Note_on_c, 9, 42, 0
1, 233726, Note_on_c, 12, 55, 0
1, 233756, Note_on_c, 6, 48, 0
1, 233756, Note_on_c, 6, 55, 0
1, 233760, Note_on_c, 6, 48, 110
1, 233760, Note_on_c, 6, 55, 124
1, 233760, Note_on_c, 9, 40, 118
1, 233760, Note_on_c, 9, 42, 76
1, 233760, Note_on_c, 12, 48, 127
1, 233778, Note_on_c, 12, 60, 0
1, 233800, Note_on_c, 9, 40, 0
1, 233800, Note_on_c, 9, 42, 0
1, 233810, Note_on_c, 12, 64, 0
1, 233888, Note_on_c, 1, 36, 0
1, 233996, Note_on_c, 6, 48, 0
1, 233996, Note_on_c, 6, 55, 0
1, 234000, Lyric_t, "BABE"
1, 234000, Lyric_t, "\015"
1, 234000, Note_on_c, 1, 36, 124
1, 234000, Note_on_c, 3, 76, 107
1, 234000, Note_on_c, 6, 48, 127
1, 234000, Note_on_c, 6, 55, 127
1, 234000, Note_on_c, 9, 42, 76
1, 234000, Note_on_c, 12, 60, 91
1, 234000, Note_on_c, 12, 67, 58
1, 234014, Note_on_c, 12, 48, 0
1, 234040, Note_on_c, 9, 42, 0
1, 234047, Note_on_c, 12, 67, 0
1, 234111, Note_on_c, 12, 60, 0
1, 234126, Note_on_c, 1, 36, 0
1, 234236, Note_on_c, 6, 48, 0
1, 234236, Note_on_c, 6, 55, 0
1, 234240, Lyric_t, "BABE "
1, 234240, Note_on_c, 1, 36, 127
1, 234240, Note_on_c, 3, 76, 104
1, 234240, Note_on_c, 6, 48, 127
1, 234240, Note_on_c, 9, 35, 118
1, 234240, Note_on_c, 9, 42, 76
1, 234240, Note_on_c, 12, 48, 124
1, 234240, Note_on_c, 12, 55, 94
1, 234240, Note_on_c, 12, 60, 124
1, 234240, Note_on_c, 12, 64, 124
1, 234252, Note_on_c, 3, 76, 0
1, 234280, Note_on_c, 9, 35, 0
1, 234280, Note_on_c, 9, 42, 0
1, 234399, Note_on_c, 3, 76, 0
1, 234476, Note_on_c, 1, 36, 0
1, 234480, Lyric_t, "BABE "
1, 234480, Note_on_c, 1, 36, 127
1, 234480, Note_on_c, 3, 76, 107
1, 234480, Note_on_c, 9, 42, 76
1, 234520, Note_on_c, 9, 42, 0
1, 234566, Note_on_c, 12, 48, 0
1, 234570, Note_on_c, 12, 55, 0
1, 234588, Note_on_c, 12, 64, 0
1, 234592, Note_on_c, 12, 60, 0
1, 234609, Note_on_c, 3, 76, 0
1, 234619, Note_on_c, 6, 48, 0
1, 234716, Note_on_c, 1, 36, 0
1, 234720, Lyric_t, "BABE "
1, 234720, Note_on_c, 1, 33, 127
1, 234720, Note_on_c, 3, 76, 109
1, 234720, Note_on_c, 6, 48, 46
1, 234720, Note_on_c, 6, 55, 102
1, 234720, Note_on_c, 9, 40, 118
1, 234720, Note_on_c, 9, 42, 76
1, 234720, Note_on_c, 12, 48, 110
1, 234760, Note_on_c, 9, 40, 0
1, 234760, Note_on_c, 9, 42, 0
1, 234801, Note_on_c, 12, 48, 0
1, 234919, Note_on_c, 3, 76, 0
1, 234956, Note_on_c, 1, 33, 0
1, 234956, Note_on_c, 6, 48, 0
1, 234956, Note_on_c, 6, 55, 0
1, 234960, Note_on_c, 1, 33, 127
1, 234960, Note_on_c, 6, 48, 87
1, 234960, Note_on_c, 6, 55, 102
1, 234960, Note_on_c, 9, 42, 76
1, 234960, Note_on_c, 12, 48, 127
1, 234960, Note_on_c, 12, 55, 94
1, 234960, Note_on_c, 12, 60, 124
1, 234960, Note_on_c, 12, 64, 124
1, 235000, Note_on_c, 9, 42, 0
1, 235038, Lyric_t, "NO "
1, 235038, Note_on_c, 3, 76, 112
1, 235138, Note_on_c, 3, 76, 0
1, 235196, Note_on_c, 1, 33, 0
1, 235196, Note_on_c, 6, 48, 0
1, 235196, Note_on_c, 6, 55, 0
1, 235200, Note_on_c, 1, 31, 127
1, 235200, Note_on_c, 6, 48, 114
1, 235200, Note_on_c, 6, 55, 114
1, 235200, Note_on_c, 9, 40, 118
1, 235200, Note_on_c, 9, 42, 76
1, 235240, Note_on_c, 9, 40, 0
1, 235240, Note_on_c, 9, 42, 0
1, 235290, Note_on_c, 12, 55, 0
1, 235308, Note_on_c, 12, 64, 0
1, 235312, Note_on_c, 12, 60, 0
1, 235313, Lyric_t, "NO "
1, 235313, Note_on_c, 3, 76, 111
1, 235399, Note_on_c, 3, 76, 0
1, 235436, Note_on_c, 1, 31, 0
1, 235436, Note_on_c, 6, 48, 0
1, 235436, Note_on_c, 6, 55, 0
1, 235440, Note_on_c, 1, 31, 127
1, 235440, Note_on_c, 6, 48, 119
1, 235440, Note_on_c, 6, 55, 119
1, 235440, Note_on_c, 9, 35, 118
1, 235440, Note_on_c, 9, 42, 76
1, 235440, Note_on_c, 12, 55, 110
1, 235440, Note_on_c, 12, 60, 114
1, 235440, Note_on_c, 12, 64, 114
1, 235456, Note_on_c, 12, 48, 0
1, 235480, Note_on_c, 9, 35, 0
1, 235480, Note_on_c, 9, 42, 0
1, 235554, Lyric_t, "NO"
1, 235554, Lyric_t, "\015"
1, 235554, Note_on_c, 3, 76, 112
1, 235646, Note_on_c, 12, 55, 0
1, 235655, Note_on_c, 3, 76, 0
1, 235676, Note_on_c, 1, 31, 0
1, 235676, Note_on_c, 6, 48, 0
1, 235676, Note_on_c, 6, 55, 0
1, 235680, Note_on_c, 1, 29, 127
1, 235680, Note_on_c, 6, 48, 110
1, 235680, Note_on_c, 6, 55, 124
1, 235680, Note_on_c, 9, 40, 118
1, 235680, Note_on_c, 9, 49, 76
1, 235680, Note_on_c, 12, 48, 127
1, 235698, Note_on_c, 12, 60, 0
1, 235720, Note_on_c, 9, 40, 0
1, 235720, Note_on_c, 9, 49, 0
1, 235730, Note_on_c, 12, 64, 0
1, 235916, Note_on_c, 1, 29, 0
1, 235916, Note_on_c, 6, 48, 0
1, 235916, Note_on_c, 6, 55, 0
1, 235920, Note_on_c, 1, 31, 127
1, 235920, Note_on_c, 6, 48, 127
1, 235920, Note_on_c, 6, 55, 127
1, 235920, Note_on_c, 9, 35, 118
1, 235920, Note_on_c, 9, 42, 76
1, 235920, Note_on_c, 12, 60, 91
1, 235920, Note_on_c, 12, 67, 58
1, 235934, Note_on_c, 12, 48, 0
1, 235960, Note_on_c, 9, 35, 0
1, 235960, Note_on_c, 9, 42, 0
1, 235967, Note_on_c, 12, 67, 0
1, 236031, Note_on_c, 12, 60, 0
1, 236156, Note_on_c, 1, 31, 0
1, 236156, Note_on_c, 4, 60, 0
1, 236156, Note_on_c, 4, 72, 0
1, 236156, Note_on_c, 5, 60, 0
1, 236156, Note_on_c, 5, 72, 0
1, 236156, Note_on_c, 6, 48, 0
1, 236156, Note_on_c, 6, 55, 0
1, 236160, Note_on_c, 1, 29, 127
1, 236160, Note_on_c, 4, 57, 114
1, 236160, Note_on_c, 4, 69, 124
1, 236160, Note_on_c, 5, 57, 114
1, 236160, Note_on_c, 5, 69, 124
1, 236160, Note_on_c, 6, 41, 110
1, 236160, Note_on_c, 6, 48, 119
1, 236160, Note_on_c, 9, 35, 118
1, 236160, Note_on_c, 9, 49, 91
1, 236160, Note_on_c, 12, 41, 127
1, 236200, Note_on_c, 9, 35, 0
1, 236200, Note_on_c, 9, 49, 0
1, 236393, Lyric_t, "KEEP "
1, 236393, Note_on_c, 3, 79, 112
1, 236396, Note_on_c, 6, 41, 0
1, 236396, Note_on_c, 6, 48, 0
1, 236400, Note_on_c, 6, 41, 110
1, 236400, Note_on_c, 6, 48, 119
1, 236400, Note_on_c, 6, 53, 60
1, 236400, Note_on_c, 9, 42, 76
1, 236440, Note_on_c, 9, 42, 0
1, 236535, Note_on_c, 12, 41, 0
1, 236567, Note_on_c, 1, 29, 0
1, 236586, Note_on_c, 3, 79, 0
1, 236608, Lyric_t, "IT "
1, 236608, Note_on_c, 3, 76, 106
1, 236617, Note_on_c, 4, 69, 0
1, 236617, Note_on_c, 5, 69, 0
1, 236628, Note_on_c, 4, 57, 0
1, 236628, Note_on_c, 5, 57, 0
1, 236636, Note_on_c, 6, 41, 0
1, 236636, Note_on_c, 6, 48, 0
1, 236636, Note_on_c, 6, 53, 0
1, 236640, Note_on_c, 1, 29, 119
1, 236640, Note_on_c, 4, 60, 110
1, 236640, Note_on_c, 4, 72, 127
1, 236640, Note_on_c, 5, 60, 110
1, 236640, Note_on_c, 5, 72, 127
1, 236640, Note_on_c, 6, 41, 119
1, 236640, Note_on_c, 6, 48, 127
1, 236640, Note_on_c, 6, 53, 94
1, 236640, Note_on_c, 9, 40, 118
1, 236640, Note_on_c, 9, 42, 76
1, 236640, Note_on_c, 9, 57, 91
1, 236640, Note_on_c, 12, 41, 94
1, 236640, Note_on_c, 12, 48, 127
1, 236640, Note_on_c, 12, 57, 119
1, 236640, Note_on_c, 12, 60, 127
1, 236640, Note_on_c, 12, 65, 127
1, 236680, Note_on_c, 9, 40, 0
1, 236680, Note_on_c, 9, 42, 0
1, 236680, Note_on_c, 9, 57, 0
1, 236719, Note_on_c, 12, 60, 0
1, 236725, Note_on_c, 3, 76, 0
1, 236848, Lyric_t, "IN "
1, 236848, Note_on_c, 3, 74, 109
1, 236876, Note_on_c, 6, 41, 0
1, 236876, Note_on_c, 6, 48, 0
1, 236876, Note_on_c, 6, 53, 0
1, 236880, Note_on_c, 6, 41, 119
1, 236880, Note_on_c, 6, 48, 127
1, 236880, Note_on_c, 6, 53, 91
1, 236880, Note_on_c, 9, 42, 76
1, 236880, Note_on_c, 12, 60, 45
1, 236920, Note_on_c, 9, 42, 0
1, 236971, Note_on_c, 12, 57, 0
1, 237044, Note_on_c, 3, 74, 0
1, 237052, Note_on_c, 4, 72, 0
1, 237052, Note_on_c, 5, 72, 0
1, 237065, Note_on_c, 1, 29, 0
1, 237074, Note_on_c, 4, 60, 0
1, 237074, Note_on_c, 5, 60, 0
1, 237093, Lyric_t, "YOUR "
1, 237093, Note_on_c, 3, 72, 110
1, 237116, Note_on_c, 6, 41, 0
1, 237116, Note_on_c, 6, 48, 0
1, 237116, Note_on_c, 6, 53, 0
1, 237120, Note_on_c, 1, 29, 119
1, 237120, Note_on_c, 4, 62, 119
1, 237120, Note_on_c, 4, 74, 119
1, 237120, Note_on_c, 5, 62, 119
1, 237120, Note_on_c, 5, 74, 119
1, 237120, Note_on_c, 6, 41, 106
1, 237120, Note_on_c, 6, 48, 110
1, 237120, Note_on_c, 9, 35, 118
1, 237120, Note_on_c, 9, 42, 76
1, 237120, Note_on_c, 12, 57, 106
1, 237145, Note_on_c, 12, 65, 0
1, 237160, Note_on_c, 9, 35, 0
1, 237160, Note_on_c, 9, 42, 0
1, 237194, Note_on_c, 3, 72, 0
1, 237204, Note_on_c, 1, 29, 0
1, 237236, Note_on_c, 12, 57, 0
1, 237295, Note_on_c, 12, 60, 0
1, 237319, Lyric_t, "HEAD"
1, 237319, Lyric_t, "\015"
1, 237319, Note_on_c, 3, 72, 110
1, 237349, Note_on_c, 4, 74, 0
1, 237349, Note_on_c, 5, 74, 0
1, 237351, Note_on_c, 4, 62, 0
1, 237351, Note_on_c, 5, 62, 0
1, 237356, Note_on_c, 6, 41, 0
1, 237356, Note_on_c, 6, 48, 0
1, 237360, Note_on_c, 1, 29, 124
1, 237360, Note_on_c, 4, 64, 114
1, 237360, Note_on_c, 4, 76, 102
1, 237360, Note_on_c, 5, 64, 114
1, 237360, Note_on_c, 5, 76, 102
1, 237360, Note_on_c, 6, 41, 114
1, 237360, Note_on_c, 6, 48, 110
1, 237360, Note_on_c, 9, 35, 118
1, 237360, Note_on_c, 9, 42, 76
1, 237360, Note_on_c, 12, 57, 110
1, 237360, Note_on_c, 12, 60, 127
1, 237360, Note_on_c, 12, 65, 127
1, 237400, Note_on_c, 9, 35, 0
1, 237400, Note_on_c, 9, 42, 0
1, 237437, Note_on_c, 12, 41, 0
1, 237445, Note_on_c, 12, 48, 0
1, 237572, Note_on_c, 4, 64, 0
1, 237572, Note_on_c, 5, 64, 0
1, 237574, Note_on_c, 4, 76, 0
1, 237574, Note_on_c, 5, 76, 0
1, 237583, Note_on_c, 3, 72, 0
1, 237596, Note_on_c, 6, 41, 0
1, 237596, Note_on_c, 6, 48, 0
1, 237600, Note_on_c, 4, 62, 110
1, 237600, Note_on_c, 4, 74, 119
1, 237600, Note_on_c, 5, 62, 110
1, 237600, Note_on_c, 5, 74, 119
1, 237600, Note_on_c, 6, 41, 119
1, 237600, Note_on_c, 6, 48, 127
1, 237600, Note_on_c, 6, 53, 127
1, 237600, Note_on_c, 9, 40, 118
1, 237600, Note_on_c, 9, 42, 76
1, 237600, Note_on_c, 12, 41, 114
1, 237600, Note_on_c, 12, 48, 114
1, 237640, Note_on_c, 9, 40, 0
1, 237640, Note_on_c, 9, 42, 0
1, 237674, Note_on_c, 12, 57, 0
1, 237728, Note_on_c, 1, 29, 0
1, 237814, Note_on_c, 4, 74, 0
1, 237814, Note_on_c, 5, 74, 0
1, 237816, Note_on_c, 4, 62, 0
1, 237816, Note_on_c, 5, 62, 0
1, 237836, Note_on_c, 6, 41, 0
1, 237836, Note_on_c, 6, 48, 0
1, 237836, Note_on_c, 6, 53, 0
1, 237840, Note_on_c, 1, 29, 124
1, 237840, Note_on_c, 4, 60, 119
1, 237840, Note_on_c, 4, 72, 127
1, 237840, Note_on_c, 5, 60, 119
1, 237840, Note_on_c, 5, 72, 127
1, 237840, Note_on_c, 6, 41, 99
1, 237840, Note_on_c, 6, 48, 110
1, 237840, Note_on_c, 6, 53, 110
1, 237840, Note_on_c, 9, 40, 118
1, 237840, Note_on_c, 9, 42, 76
1, 237840, Note_on_c, 9, 57, 91
1, 237840, Note_on_c, 12, 57, 106
1, 237842, Note_on_c, 12, 41, 0
1, 237872, Note_on_c, 12, 48, 0
1, 237880, Note_on_c, 9, 40, 0
1, 237880, Note_on_c, 9, 42, 0
1, 237880, Note_on_c, 9, 57, 0
1, 237966, Note_on_c, 1, 29, 0
1, 238076, Note_on_c, 6, 41, 0
1, 238076, Note_on_c, 6, 48, 0
1, 238076, Note_on_c, 6, 53, 0
1, 238080, Note_on_c, 1, 29, 119
1, 238080, Note_on_c, 6, 41, 114
1, 238080, Note_on_c, 6, 48, 119
1, 238080, Note_on_c, 9, 35, 118
1, 238080, Note_on_c, 9, 42, 76
1, 238080, Note_on_c, 12, 41, 127
1, 238080, Note_on_c, 12, 48, 127
1, 238120, Note_on_c, 9, 35, 0
1, 238120, Note_on_c, 9, 42, 0
1, 238316, Note_on_c, 6, 41, 0
1, 238316, Note_on_c, 6, 48, 0
1, 238320, Note_on_c, 6, 41, 114
1, 238320, Note_on_c, 6, 48, 119
1, 238320, Note_on_c, 9, 42, 76
1, 238326, Lyric_t, "HOL"
1, 238326, Note_on_c, 3, 79, 111
1, 238360, Note_on_c, 9, 42, 0
1, 238407, Note_on_c, 12, 65, 0
1, 238412, Note_on_c, 12, 57, 0
1, 238420, Note_on_c, 12, 60, 0
1, 238427, Note_on_c, 12, 41, 0
1, 238438, Note_on_c, 12, 48, 0
1, 238491, Note_on_c, 4, 60, 0
1, 238491, Note_on_c, 5, 60, 0
1, 238537, Note_on_c, 3, 79, 0
1, 238556, Note_on_c, 6, 41, 0
1, 238556, Note_on_c, 6, 48, 0
1, 238560, Note_on_c, 4, 57, 119
1, 238560, Note_on_c, 4, 69, 114
1, 238560, Note_on_c, 5, 57, 119
1, 238560, Note_on_c, 5, 69, 114
1, 238560, Note_on_c, 6, 41, 110
1, 238560, Note_on_c, 6, 48, 119
1, 238560, Note_on_c, 6, 53, 127
1, 238560, Note_on_c, 9, 40, 118
1, 238560, Note_on_c, 9, 42, 76
1, 238560, Note_on_c, 12, 41, 127
1, 238560, Note_on_c, 12, 48, 127
1, 238560, Note_on_c, 12, 57, 110
1, 238560, Note_on_c, 12, 60, 124
1, 238560, Note_on_c, 12, 65, 124
1, 238571, Lyric_t, "LY"
1, 238571, Note_on_c, 3, 76, 101
1, 238575, Note_on_c, 4, 72, 0
1, 238575, Note_on_c, 5, 72, 0
1, 238600, Note_on_c, 9, 40, 0
1, 238600, Note_on_c, 9, 42, 0
1, 238691, Note_on_c, 3, 76, 0
1, 238793, Lyric_t, "WOOD "
1, 238793, Note_on_c, 3, 74, 109
1, 238796, Note_on_c, 6, 41, 0
1, 238796, Note_on_c, 6, 48, 0
1, 238796, Note_on_c, 6, 53, 0
1, 238800, Note_on_c, 6, 41, 65
1, 238800, Note_on_c, 6, 48, 94
1, 238800, Note_on_c, 6, 53, 91
1, 238800, Note_on_c, 9, 42, 76
1, 238840, Note_on_c, 9, 42, 0
1, 238876, Note_on_c, 12, 57, 0
1, 238927, Note_on_c, 4, 57, 0
1, 238927, Note_on_c, 5, 57, 0
1, 238940, Note_on_c, 1, 29, 0
1, 238988, Note_on_c, 3, 74, 0
1, 238999, Note_on_c, 4, 69, 0
1, 238999, Note_on_c, 5, 69, 0
1, 239020, Lyric_t, "IS "
1, 239020, Note_on_c, 3, 72, 106
1, 239036, Note_on_c, 6, 41, 0
1, 239036, Note_on_c, 6, 48, 0
1, 239036, Note_on_c, 6, 53, 0
1, 239040, Note_on_c, 1, 29, 114
1, 239040, Note_on_c, 4, 62, 119
1, 239040, Note_on_c, 4, 74, 119
1, 239040, Note_on_c, 5, 62, 119
1, 239040, Note_on_c, 5, 74, 119
1, 239040, Note_on_c, 6, 41, 106
1, 239040, Note_on_c, 6, 48, 114
1, 239040, Note_on_c, 9, 35, 118
1, 239040, Note_on_c, 9, 42, 76
1, 239040, Note_on_c, 12, 57, 94
1, 239080, Note_on_c, 9, 35, 0
1, 239080, Note_on_c, 9, 42, 0
1, 239093, Note_on_c, 12, 65, 0
1, 239117, Note_on_c, 12, 60, 0
1, 239142, Note_on_c, 12, 57, 0
1, 239154, Note_on_c, 3, 72, 0
1, 239157, Note_on_c, 1, 29, 0
1, 239259, Lyric_t, "DEAD"
1, 239259, Lyric_t, "\015"
1, 239259, Note_on_c, 3, 72, 106
1, 239269, Note_on_c, 4, 74, 0
1, 239269, Note_on_c, 5, 74, 0
1, 239271, Note_on_c, 4, 62, 0
1, 239271, Note_on_c, 5, 62, 0
1, 239276, Note_on_c, 6, 41, 0
1, 239276, Note_on_c, 6, 48, 0
1, 239280, Note_on_c, 1, 29, 124
1, 239280, Note_on_c, 4, 64, 114
1, 239280, Note_on_c, 4, 76, 102
1, 239280, Note_on_c, 5, 64, 114
1, 239280, Note_on_c, 5, 76, 102
1, 239280, Note_on_c, 6, 41, 102
1, 239280, Note_on_c, 6, 48, 106
1, 239280, Note_on_c, 9, 35, 118
1, 239280, Note_on_c, 9, 42, 76
1, 239280, Note_on_c, 12, 57, 114
1, 239280, Note_on_c, 12, 60, 127
1, 239280, Note_on_c, 12, 65, 127
1, 239316, Note_on_c, 12, 41, 0
1, 239320, Note_on_c, 9, 35, 0
1, 239320, Note_on_c, 9, 42, 0
1, 239336, Note_on_c, 12, 48, 0
1, 239474, Note_on_c, 3, 72, 0
1, 239492, Note_on_c, 4, 64, 0
1, 239492, Note_on_c, 5, 64, 0
1, 239494, Note_on_c, 4, 76, 0
1, 239494, Note_on_c, 5, 76, 0
1, 239497, Note_on_c, 1, 29, 0
1, 239516, Note_on_c, 6, 41, 0
1, 239516, Note_on_c, 6, 48, 0
1, 239520, Note_on_c, 1, 29, 119
1, 239520, Note_on_c, 4, 62, 110
1, 239520, Note_on_c, 4, 74, 119
1, 239520, Note_on_c, 5, 62, 110
1, 239520, Note_on_c, 5, 74, 119
1, 239520, Note_on_c, 6, 41, 106
1, 239520, Note_on_c, 6, 48, 119
1, 239520, Note_on_c, 6, 53, 124
1, 239520, Note_on_c, 9, 40, 118
1, 239520, Note_on_c, 9, 42, 76
1, 239520, Note_on_c, 12, 41, 114
1, 239520, Note_on_c, 12, 48, 127
1, 239546, Note_on_c, 12, 57, 0
1, 239560, Note_on_c, 9, 40, 0
1, 239560, Note_on_c, 9, 42, 0
1, 239686, Note_on_c, 1, 29, 0
1, 239734, Note_on_c, 4, 74, 0
1, 239734, Note_on_c, 5, 74, 0
1, 239736, Note_on_c, 4, 62, 0
1, 239736, Note_on_c, 5, 62, 0
1, 239756, Note_on_c, 6, 41, 0
1, 239756, Note_on_c, 6, 48, 0
1, 239756, Note_on_c, 6, 53, 0
1, 239760, Note_on_c, 1, 29, 127
1, 239760, Note_on_c, 4, 60, 119
1, 239760, Note_on_c, 4, 72, 127
1, 239760, Note_on_c, 5, 60, 119
1, 239760, Note_on_c, 5, 72, 127
1, 239760, Note_on_c, 6, 53, 99
1, 239760, Note_on_c, 9, 42, 76
1, 239760, Note_on_c, 12, 57, 106
1, 239800, Note_on_c, 9, 42, 0
1, 239824, Note_on_c, 12, 41, 0
1, 239895, Note_on_c, 12, 48, 0
1, 239955, Note_on_c, 1, 29, 0
1, 239996, Note_on_c, 6, 53, 0
1, 240000, Note_on_c, 1, 29, 127
1, 240000, Note_on_c, 6, 41, 127
1, 240000, Note_on_c, 9, 35, 118
1, 240000, Note_on_c, 9, 42, 76
1, 240000, Note_on_c, 10, 41, 115
1, 240000, Note_on_c, 12, 41, 127
1, 240000, Note_on_c, 12, 48, 127
1, 240040, Note_on_c, 9, 35, 0
1, 240040, Note_on_c, 9, 42, 0
1, 240069, Note_on_c, 12, 60, 0
1, 240094, Note_on_c, 12, 57, 0
1, 240136, Note_on_c, 12, 65, 0
1, 240227, Note_on_c, 1, 29, 0
1, 240227, Note_on_c, 6, 41, 0
1, 240227, Note_on_c, 10, 41, 0
1, 240240, Note_on_c, 1, 31, 124
1, 240240, Note_on_c, 6, 43, 127
1, 240240, Note_on_c, 9, 42, 76
1, 240240, Note_on_c, 10, 43, 115
1, 240246, Lyric_t, "HOL"
1, 240246, Note_on_c, 3, 79, 111
1, 240280, Note_on_c, 9, 42, 0
1, 240347, Note_on_c, 12, 41, 0
1, 240358, Note_on_c, 12, 48, 0
1, 240411, Note_on_c, 4, 60, 0
1, 240411, Note_on_c, 5, 60, 0
1, 240457, Note_on_c, 3, 79, 0
1, 240480, Note_on_c, 4, 56, 119
1, 240480, Note_on_c, 4, 68, 114
1, 240480, Note_on_c, 5, 56, 119
1, 240480, Note_on_c, 5, 68, 114
1, 240480, Note_on_c, 9, 40, 118
1, 240480, Note_on_c, 9, 42, 76
1, 240480, Note_on_c, 12, 41, 127
1, 240480, Note_on_c, 12, 48, 127
1, 240480, Note_on_c, 12, 56, 110
1, 240480, Note_on_c, 12, 60, 124
1, 240480, Note_on_c, 12, 65, 124
1, 240491, Lyric_t, "LY"
1, 240491, Note_on_c, 3, 76, 101
1, 240495, Note_on_c, 4, 72, 0
1, 240495, Note_on_c, 5, 72, 0
1, 240520, Note_on_c, 9, 40, 0
1, 240520, Note_on_c, 9, 42, 0
1, 240611, Note_on_c, 3, 76, 0
1, 240705, Note_on_c, 1, 31, 0
1, 240710, Note_on_c, 6, 43, 0
1, 240710, Note_on_c, 10, 43, 0
1, 240713, Lyric_t, "WOOD "
1, 240713, Note_on_c, 3, 74, 109
1, 240720, Note_on_c, 1, 32, 127
1, 240720, Note_on_c, 6, 44, 127
1, 240720, Note_on_c, 9, 42, 76
1, 240720, Note_on_c, 10, 44, 115
1, 240760, Note_on_c, 9, 42, 0
1, 240796, Note_on_c, 12, 56, 0
1, 240847, Note_on_c, 4, 56, 0
1, 240847, Note_on_c, 5, 56, 0
1, 240908, Note_on_c, 3, 74, 0
1, 240919, Note_on_c, 4, 68, 0
1, 240919, Note_on_c, 5, 68, 0
1, 240940, Lyric_t, "IS "
1, 240940, Note_on_c, 3, 72, 106
1, 240960, Note_on_c, 4, 62, 119
1, 240960, Note_on_c, 4, 74, 119
1, 240960, Note_on_c, 5, 62, 119
1, 240960, Note_on_c, 5, 74, 119
1, 240960, Note_on_c, 9, 35, 118
1, 240960, Note_on_c, 9, 42, 76
1, 240960, Note_on_c, 12, 56, 94
1, 241000, Note_on_c, 9, 35, 0
1, 241000, Note_on_c, 9, 42, 0
1, 241013, Note_on_c, 12, 65, 0
1, 241037, Note_on_c, 12, 60, 0
1, 241062, Note_on_c, 12, 56, 0
1, 241074, Note_on_c, 3, 72, 0
1, 241170, Note_on_c, 6, 44, 0
1, 241170, Note_on_c, 10, 44, 0
1, 241179, Lyric_t, "DEAD"
1, 241179, Lyric_t, "\015"
1, 241179, Note_on_c, 3, 72, 106
1, 241189, Note_on_c, 4, 74, 0
1, 241189, Note_on_c, 5, 74, 0
1, 241190, Note_on_c, 1, 32, 0
1, 241191, Note_on_c, 4, 62, 0
1, 241191, Note_on_c, 5, 62, 0
1, 241200, Note_on_c, 1, 34, 124
1, 241200, Note_on_c, 4, 64, 114
1, 241200, Note_on_c, 4, 76, 102
1, 241200, Note_on_c, 5, 64, 114
1, 241200, Note_on_c, 5, 76, 102
1, 241200, Note_on_c, 6, 46, 127
1, 241200, Note_on_c, 9, 35, 118
1, 241200, Note_on_c, 9, 42, 76
1, 241200, Note_on_c, 10, 46, 115
1, 241200, Note_on_c, 12, 56, 114
1, 241200, Note_on_c, 12, 60, 127
1, 241200, Note_on_c, 12, 65, 127
1, 241236, Note_on_c, 12, 41, 0
1, 241240, Note_on_c, 9, 35, 0
1, 241240, Note_on_c, 9, 42, 0
1, 241256, Note_on_c, 12, 48, 0
1, 241394, Note_on_c, 3, 72, 0
1, 241412, Note_on_c, 4, 64, 0
1, 241412, Note_on_c, 5, 64, 0
1, 241414, Note_on_c, 4, 76, 0
1, 241414, Note_on_c, 5, 76, 0
1, 241440, Note_on_c, 4, 62, 110
1, 241440, Note_on_c, 4, 74, 119
1, 241440, Note_on_c, 5, 62, 110
1, 241440, Note_on_c, 5, 74, 119
1, 241440, Note_on_c, 9, 40, 118
1, 241440, Note_on_c, 9, 42, 76
1, 241440, Note_on_c, 12, 41, 114
1, 241440, Note_on_c, 12, 48, 127
1, 241466, Note_on_c, 12, 56, 0
1, 241480, Note_on_c, 9, 40, 0
1, 241480, Note_on_c, 9, 42, 0
1, 241589, Note_on_c, 6, 46, 0
1, 241589, Note_on_c, 10, 46, 0
1, 241603, Note_on_c, 1, 34, 0
1, 241654, Note_on_c, 4, 74, 0
1, 241654, Note_on_c, 5, 74, 0
1, 241656, Note_on_c, 4, 62, 0
1, 241656, Note_on_c, 5, 62, 0
1, 241680, Note_on_c, 1, 35, 120
1, 241680, Note_on_c, 4, 60, 119
1, 241680, Note_on_c, 4, 72, 127
1, 241680, Note_on_c, 5, 60, 119
1, 241680, Note_on_c, 5, 72, 127
1, 241680, Note_on_c, 6, 47, 102
1, 241680, Note_on_c, 9, 42, 76
1, 241680, Note_on_c, 10, 47, 90
1, 241680, Note_on_c, 12, 56, 106
1, 241720, Note_on_c, 9, 42, 0
1, 241744, Note_on_c, 12, 41, 0
1, 241815, Note_on_c, 12, 48, 0
1, 241869, Note_on_c, 12, 60, 0
1, 241916, Note_on_c, 12, 56, 0
1, 241920, Note_on_c, 1, 36, 127
1, 241920, Note_on_c, 6, 48, 127
1, 241920, Note_on_c, 9, 35, 118
1, 241920, Note_on_c, 9, 49, 76
1, 241920, Note_on_c, 10, 48, 115
1, 241920, Note_on_c, 12, 48, 124
1, 241920, Note_on_c, 12, 55, 94
1, 241920, Note_on_c, 12, 60, 124
1, 241920, Note_on_c, 12, 64, 124
1, 241930, Note_on_c, 1, 35, 0
1, 241936, Note_on_c, 12, 65, 0
1, 241943, Note_on_c, 6, 47, 0
1, 241943, Note_on_c, 10, 47, 0
1, 241960, Note_on_c, 9, 35, 0
1, 241960, Note_on_c, 9, 49, 0
1, 242160, Note_on_c, 9, 42, 76
1, 242166, Lyric_t, "HOL"
1, 242166, Note_on_c, 3, 79, 111
1, 242200, Note_on_c, 9, 42, 0
1, 242246, Note_on_c, 12, 48, 0
1, 242250, Note_on_c, 12, 55, 0
1, 242268, Note_on_c, 12, 64, 0
1, 242272, Note_on_c, 12, 60, 0
1, 242299, Note_on_c, 6, 48, 0
1, 242299, Note_on_c, 10, 48, 0
1, 242327, Note_on_c, 1, 36, 0
1, 242377, Note_on_c, 3, 79, 0
1, 242400, Note_on_c, 1, 36, 119
1, 242400, Note_on_c, 6, 48, 46
1, 242400, Note_on_c, 6, 55, 102
1, 242400, Note_on_c, 9, 40, 118
1, 242400, Note_on_c, 9, 42, 76
1, 242400, Note_on_c, 9, 57, 76
1, 242400, Note_on_c, 12, 48, 110
1, 242411, Lyric_t, "LY"
1, 242411, Note_on_c, 3, 76, 101
1, 242440, Note_on_c, 9, 40, 0
1, 242440, Note_on_c, 9, 42, 0
1, 242440, Note_on_c, 9, 57, 0
1, 242481, Note_on_c, 12, 48, 0
1, 242531, Note_on_c, 3, 76, 0
1, 242633, Lyric_t, "WOOD "
1, 242633, Note_on_c, 3, 74, 109
1, 242636, Note_on_c, 6, 48, 0
1, 242636, Note_on_c, 6, 55, 0
1, 242640, Note_on_c, 6, 48, 87
1, 242640, Note_on_c, 6, 55, 102
1, 242640, Note_on_c, 9, 42, 76
1, 242640, Note_on_c, 12, 48, 127
1, 242640, Note_on_c, 12, 55, 94
1, 242640, Note_on_c, 12, 60, 124
1, 242640, Note_on_c, 12, 64, 124
1, 242680, Note_on_c, 9, 42, 0
1, 242760, Note_on_c, 9, 40, 76
1, 242800, Note_on_c, 9, 40, 0
1, 242825, Note_on_c, 1, 36, 0
1, 242828, Note_on_c, 3, 74, 0
1, 242860, Lyric_t, "IS "
1, 242860, Note_on_c, 3, 72, 106
1, 242876, Note_on_c, 6, 48, 0
1, 242876, Note_on_c, 6, 55, 0
1, 242880, Note_on_c, 1, 36, 119
1, 242880, Note_on_c, 6, 48, 114
1, 242880, Note_on_c, 6, 55, 114
1, 242880, Note_on_c, 9, 35, 118
1, 242880, Note_on_c, 9, 42, 76
1, 242920, Note_on_c, 9, 35, 0
1, 242920, Note_on_c, 9, 42, 0
1, 242964, Note_on_c, 1, 36, 0
1, 242970, Note_on_c, 12, 55, 0
1, 242988, Note_on_c, 12, 64, 0
1, 242992, Note_on_c, 12, 60, 0
1, 242994, Note_on_c, 3, 72, 0
1, 243000, Note_on_c, 9, 40, 76
1, 243040, Note_on_c, 9, 40, 0
1, 243099, Lyric_t, "DEA"
1, 243099, Note_on_c, 3, 72, 106
1, 243116, Note_on_c, 6, 48, 0
1, 243116, Note_on_c, 6, 55, 0
1, 243120, Note_on_c, 1, 36, 124
1, 243120, Note_on_c, 6, 48, 119
1, 243120, Note_on_c, 6, 55, 119
1, 243120, Note_on_c, 9, 35, 118
1, 243120, Note_on_c, 9, 42, 76
1, 243120, Note_on_c, 12, 55, 110
1, 243120, Note_on_c, 12, 60, 114
1, 243120, Note_on_c, 12, 64, 114
1, 243136, Note_on_c, 12, 48, 0
1, 243160, Note_on_c, 9, 35, 0
1, 243160, Note_on_c, 9, 42, 0
1, 243326, Note_on_c, 12, 55, 0
1, 243356, Note_on_c, 6, 48, 0
1, 243356, Note_on_c, 6, 55, 0
1, 243360, Note_on_c, 6, 48, 110
1, 243360, Note_on_c, 6, 55, 124
1, 243360, Note_on_c, 9, 40, 118
1, 243360, Note_on_c, 9, 42, 76
1, 243360, Note_on_c, 12, 48, 127
1, 243378, Note_on_c, 12, 60, 0
1, 243400, Note_on_c, 9, 40, 0
1, 243400, Note_on_c, 9, 42, 0
1, 243410, Note_on_c, 12, 64, 0
1, 243488, Note_on_c, 1, 36, 0
1, 243575, Note_on_c, 3, 72, 0
1, 243579, Lyric_t, "D"
1, 243579, Lyric_t, "\015"
1, 243579, Note_on_c, 3, 69, 106
1, 243596, Note_on_c, 6, 48, 0
1, 243596, Note_on_c, 6, 55, 0
1, 243600, Note_on_c, 1, 36, 124
1, 243600, Note_on_c, 6, 48, 127
1, 243600, Note_on_c, 6, 55, 127
1, 243600, Note_on_c, 9, 42, 76
1, 243600, Note_on_c, 12, 60, 91
1, 243600, Note_on_c, 12, 67, 58
1, 243614, Note_on_c, 12, 48, 0
1, 243640, Note_on_c, 9, 42, 0
1, 243647, Note_on_c, 12, 67, 0
1, 243711, Note_on_c, 12, 60, 0
1, 243726, Note_on_c, 1, 36, 0
1, 243836, Note_on_c, 6, 48, 0
1, 243836, Note_on_c, 6, 55, 0
1, 243840, Note_on_c, 1, 36, 127
1, 243840, Note_on_c, 6, 48, 127
1, 243840, Note_on_c, 9, 35, 118
1, 243840, Note_on_c, 9, 42, 76
1, 243840, Note_on_c, 12, 48, 124
1, 243840, Note_on_c, 12, 55, 94
1, 243840, Note_on_c, 12, 60, 124
1, 243840, Note_on_c, 12, 64, 124
1, 243880, Note_on_c, 9, 35, 0
1, 243880, Note_on_c, 9, 42, 0
1, 244034, Note_on_c, 3, 69, 0
1, 244076, Note_on_c, 1, 36, 0
1, 244080, Note_on_c, 1, 36, 127
1, 244080, Note_on_c, 9, 42, 76
1, 244120, Note_on_c, 9, 42, 0
1, 244166, Note_on_c, 12, 48, 0
1, 244170, Note_on_c, 12, 55, 0
1, 244188, Note_on_c, 12, 64, 0
1, 244192, Note_on_c, 12, 60, 0
1, 244219, Note_on_c, 6, 48, 0
1, 244316, Note_on_c, 1, 36, 0
1, 244320, Note_on_c, 1, 33, 127
1, 244320, Note_on_c, 6, 48, 46
1, 244320, Note_on_c, 6, 55, 102
1, 244320, Note_on_c, 9, 40, 118
1, 244320, Note_on_c, 9, 42, 76
1, 244320, Note_on_c, 12, 48, 110
1, 244360, Note_on_c, 9, 40, 0
1, 244360, Note_on_c, 9, 42, 0
1, 244401, Note_on_c, 12, 48, 0
1, 244556, Note_on_c, 1, 33, 0
1, 244556, Note_on_c, 6, 48, 0
1, 244556, Note_on_c, 6, 55, 0
1, 244560, Note_on_c, 1, 33, 127
1, 244560, Note_on_c, 6, 48, 87
1, 244560, Note_on_c, 6, 55, 102
1, 244560, Note_on_c, 9, 42, 76
1, 244560, Note_on_c, 12, 48, 127
1, 244560, Note_on_c, 12, 55, 94
1, 244560, Note_on_c, 12, 60, 124
1, 244560, Note_on_c, 12, 64, 124
1, 244600, Note_on_c, 9, 42, 0
1, 244796, Note_on_c, 1, 33, 0
1, 244796, Note_on_c, 6, 48, 0
1, 244796, Note_on_c, 6, 55, 0
1, 244800, Note_on_c, 1, 31, 127
1, 244800, Note_on_c, 6, 48, 114
1, 244800, Note_on_c, 6, 55, 114
1, 244800, Note_on_c, 9, 40, 118
1, 244800, Note_on_c, 9, 42, 76
1, 244840, Note_on_c, 9, 40, 0
1, 244840, Note_on_c, 9, 42, 0
1, 244890, Note_on_c, 12, 55, 0
1, 244908, Note_on_c, 12, 64, 0
1, 244912, Note_on_c, 12, 60, 0
1, 245036, Note_on_c, 1, 31, 0
1, 245036, Note_on_c, 6, 48, 0
1, 245036, Note_on_c, 6, 55, 0
1, 245040, Note_on_c, 1, 31, 127
1, 245040, Note_on_c, 6, 48, 119
1, 245040, Note_on_c, 6, 55, 119
1, 245040, Note_on_c, 9, 35, 118
1, 245040, Note_on_c, 9, 42, 76
1, 245040, Note_on_c, 12, 55, 110
1, 245040, Note_on_c, 12, 60, 114
1, 245040, Note_on_c, 12, 64, 114
1, 245056, Note_on_c, 12, 48, 0
1, 245080, Note_on_c, 9, 35, 0
1, 245080, Note_on_c, 9, 42, 0
1, 245246, Note_on_c, 12, 55, 0
1, 245276, Note_on_c, 1, 31, 0
1, 245276, Note_on_c, 6, 48, 0
1, 245276, Note_on_c, 6, 55, 0
1, 245280, Note_on_c, 1, 29, 127
1, 245280, Note_on_c, 6, 48, 110
1, 245280, Note_on_c, 6, 55, 124
1, 245280, Note_on_c, 9, 40, 118
1, 245280, Note_on_c, 9, 49, 76
1, 245280, Note_on_c, 12, 48, 127
1, 245298, Note_on_c, 12, 60, 0
1, 245320, Note_on_c, 9, 40, 0
1, 245320, Note_on_c, 9, 49, 0
1, 245330, Note_on_c, 12, 64, 0
1, 245516, Note_on_c, 1, 29, 0
1, 245516, Note_on_c, 6, 48, 0
1, 245516, Note_on_c, 6, 55, 0
1, 245520, Note_on_c, 1, 31, 127
1, 245520, Note_on_c, 6, 48, 127
1, 245520, Note_on_c, 6, 55, 127
1, 245520, Note_on_c, 9, 35, 118
1, 245520, Note_on_c, 9, 42, 76
1, 245520, Note_on_c, 12, 60, 91
1, 245520, Note_on_c, 12, 67, 58
1, 245534, Note_on_c, 12, 48, 0
1, 245560, Note_on_c, 9, 35, 0
1, 245560, Note_on_c, 9, 42, 0
1, 245567, Note_on_c, 12, 67, 0
1, 245631, Note_on_c, 12, 60, 0
1, 245756, Note_on_c, 1, 31, 0
1, 245756, Note_on_c, 4, 60, 0
1, 245756, Note_on_c, 4, 72, 0
1, 245756, Note_on_c, 5, 60, 0
1, 245756, Note_on_c, 5, 72, 0
1, 245756, Note_on_c, 6, 48, 0
1, 245756, Note_on_c, 6, 55, 0
1, 245760, Note_on_c, 1, 29, 127
1, 245760, Note_on_c, 4, 57, 114
1, 245760, Note_on_c, 4, 69, 124
1, 245760, Note_on_c, 5, 57, 114
1, 245760, Note_on_c, 5, 69, 124
1, 245760, Note_on_c, 6, 41, 110
1, 245760, Note_on_c, 6, 48, 119
1, 245760, Note_on_c, 9, 35, 118
1, 245760, Note_on_c, 9, 49, 91
1, 245760, Note_on_c, 12, 41, 127
1, 245800, Note_on_c, 9, 35, 0
1, 245800, Note_on_c, 9, 49, 0
1, 245996, Note_on_c, 6, 41, 0
1, 245996, Note_on_c, 6, 48, 0
1, 246000, Lyric_t, "GET "
1, 246000, Note_on_c, 3, 79, 110
1, 246000, Note_on_c, 6, 41, 110
1, 246000, Note_on_c, 6, 48, 119
1, 246000, Note_on_c, 6, 53, 60
1, 246000, Note_on_c, 9, 42, 76
1, 246040, Note_on_c, 9, 42, 0
1, 246135, Note_on_c, 12, 41, 0
1, 246167, Note_on_c, 1, 29, 0
1, 246217, Note_on_c, 4, 69, 0
1, 246217, Note_on_c, 5, 69, 0
1, 246228, Note_on_c, 3, 79, 0
1, 246228, Note_on_c, 4, 57, 0
1, 246228, Note_on_c, 5, 57, 0
1, 246236, Note_on_c, 6, 41, 0
1, 246236, Note_on_c, 6, 48, 0
1, 246236, Note_on_c, 6, 53, 0
1, 246240, Note_on_c, 1, 29, 119
1, 246240, Note_on_c, 4, 60, 110
1, 246240, Note_on_c, 4, 72, 127
1, 246240, Note_on_c, 5, 60, 110
1, 246240, Note_on_c, 5, 72, 127
1, 246240, Note_on_c, 6, 41, 119
1, 246240, Note_on_c, 6, 48, 127
1, 246240, Note_on_c, 6, 53, 94
1, 246240, Note_on_c, 9, 40, 118
1, 246240, Note_on_c, 9, 42, 76
1, 246240, Note_on_c, 9, 57, 91
1, 246240, Note_on_c, 12, 41, 94
1, 246240, Note_on_c, 12, 48, 127
1, 246240, Note_on_c, 12, 57, 119
1, 246240, Note_on_c, 12, 60, 127
1, 246240, Note_on_c, 12, 65, 127
1, 246256, Lyric_t, "IT "
1, 246256, Note_on_c, 3, 76, 109
1, 246280, Note_on_c, 9, 40, 0
1, 246280, Note_on_c, 9, 42, 0
1, 246280, Note_on_c, 9, 57, 0
1, 246319, Note_on_c, 12, 60, 0
1, 246368, Note_on_c, 3, 76, 0
1, 246476, Note_on_c, 6, 41, 0
1, 246476, Note_on_c, 6, 48, 0
1, 246476, Note_on_c, 6, 53, 0
1, 246480, Note_on_c, 6, 41, 119
1, 246480, Note_on_c, 6, 48, 127
1, 246480, Note_on_c, 6, 53, 91
1, 246480, Note_on_c, 9, 42, 76
1, 246480, Note_on_c, 12, 60, 45
1, 246484, Lyric_t, "IN "
1, 246484, Note_on_c, 3, 74, 107
1, 246520, Note_on_c, 9, 42, 0
1, 246571, Note_on_c, 12, 57, 0
1, 246652, Note_on_c, 4, 72, 0
1, 246652, Note_on_c, 5, 72, 0
1, 246665, Note_on_c, 1, 29, 0
1, 246674, Note_on_c, 4, 60, 0
1, 246674, Note_on_c, 5, 60, 0
1, 246689, Note_on_c, 3, 74, 0
1, 246716, Note_on_c, 6, 41, 0
1, 246716, Note_on_c, 6, 48, 0
1, 246716, Note_on_c, 6, 53, 0
1, 246720, Note_on_c, 1, 29, 119
1, 246720, Note_on_c, 4, 62, 119
1, 246720, Note_on_c, 4, 74, 119
1, 246720, Note_on_c, 5, 62, 119
1, 246720, Note_on_c, 5, 74, 119
1, 246720, Note_on_c, 6, 41, 106
1, 246720, Note_on_c, 6, 48, 110
1, 246720, Note_on_c, 9, 35, 118
1, 246720, Note_on_c, 9, 42, 76
1, 246720, Note_on_c, 12, 57, 106
1, 246745, Note_on_c, 12, 65, 0
1, 246751, Lyric_t, "YOUR "
1, 246751, Note_on_c, 3, 72, 112
1, 246760, Note_on_c, 9, 35, 0
1, 246760, Note_on_c, 9, 42, 0
1, 246804, Note_on_c, 1, 29, 0
1, 246836, Note_on_c, 12, 57, 0
1, 246850, Note_on_c, 3, 72, 0
1, 246895, Note_on_c, 12, 60, 0
1, 246949, Note_on_c, 4, 74, 0
1, 246949, Note_on_c, 5, 74, 0
1, 246951, Note_on_c, 4, 62, 0
1, 246951, Note_on_c, 5, 62, 0
1, 246956, Note_on_c, 6, 41, 0
1, 246956, Note_on_c, 6, 48, 0
1, 246960, Note_on_c, 1, 29, 124
1, 246960, Note_on_c, 4, 64, 114
1, 246960, Note_on_c, 4, 76, 102
1, 246960, Note_on_c, 5, 64, 114
1, 246960, Note_on_c, 5, 76, 102
1, 246960, Note_on_c, 6, 41, 114
1, 246960, Note_on_c, 6, 48, 110
1, 246960, Note_on_c, 9, 35, 118
1, 246960, Note_on_c, 9, 42, 76
1, 246960, Note_on_c, 12, 57, 110
1, 246960, Note_on_c, 12, 60, 127
1, 246960, Note_on_c, 12, 65, 127
1, 246981, Lyric_t, "HEAD"
1, 246981, Lyric_t, "\015"
1, 246981, Note_on_c, 3, 76, 111
1, 247000, Note_on_c, 9, 35, 0
1, 247000, Note_on_c, 9, 42, 0
1, 247037, Note_on_c, 12, 41, 0
1, 247045, Note_on_c, 12, 48, 0
1, 247172, Note_on_c, 4, 64, 0
1, 247172, Note_on_c, 5, 64, 0
1, 247174, Note_on_c, 4, 76, 0
1, 247174, Note_on_c, 5, 76, 0
1, 247196, Note_on_c, 6, 41, 0
1, 247196, Note_on_c, 6, 48, 0
1, 247200, Note_on_c, 4, 62, 110
1, 247200, Note_on_c, 4, 74, 119
1, 247200, Note_on_c, 5, 62, 110
1, 247200, Note_on_c, 5, 74, 119
1, 247200, Note_on_c, 6, 41, 119
1, 247200, Note_on_c, 6, 48, 127
1, 247200, Note_on_c, 6, 53, 127
1, 247200, Note_on_c, 9, 40, 118
1, 247200, Note_on_c, 9, 42, 76
1, 247200, Note_on_c, 12, 41, 114
1, 247200, Note_on_c, 12, 48, 114
1, 247240, Note_on_c, 9, 40, 0
1, 247240, Note_on_c, 9, 42, 0
1, 247274, Note_on_c, 12, 57, 0
1, 247328, Note_on_c, 1, 29, 0
1, 247407, Note_on_c, 3, 76, 0
1, 247414, Note_on_c, 4, 74, 0
1, 247414, Note_on_c, 5, 74, 0
1, 247416, Note_on_c, 4, 62, 0
1, 247416, Note_on_c, 5, 62, 0
1, 247436, Note_on_c, 6, 41, 0
1, 247436, Note_on_c, 6, 48, 0
1, 247436, Note_on_c, 6, 53, 0
1, 247440, Note_on_c, 1, 29, 124
1, 247440, Note_on_c, 4, 60, 119
1, 247440, Note_on_c, 4, 72, 127
1, 247440, Note_on_c, 5, 60, 119
1, 247440, Note_on_c, 5, 72, 127
1, 247440, Note_on_c, 6, 41, 99
1, 247440, Note_on_c, 6, 48, 110
1, 247440, Note_on_c, 6, 53, 110
1, 247440, Note_on_c, 9, 40, 118
1, 247440, Note_on_c, 9, 42, 76
1, 247440, Note_on_c, 9, 57, 91
1, 247440, Note_on_c, 12, 57, 106
1, 247442, Note_on_c, 12, 41, 0
1, 247472, Note_on_c, 12, 48, 0
1, 247480, Note_on_c, 9, 40, 0
1, 247480, Note_on_c, 9, 42, 0
1, 247480, Note_on_c, 9, 57, 0
1, 247566, Note_on_c, 1, 29, 0
1, 247676, Note_on_c, 6, 41, 0
1, 247676, Note_on_c, 6, 48, 0
1, 247676, Note_on_c, 6, 53, 0
1, 247680, Note_on_c, 1, 29, 119
1, 247680, Note_on_c, 6, 41, 114
1, 247680, Note_on_c, 6, 48, 119
1, 247680, Note_on_c, 9, 35, 118
1, 247680, Note_on_c, 9, 42, 76
1, 247680, Note_on_c, 12, 41, 127
1, 247680, Note_on_c, 12, 48, 127
1, 247720, Note_on_c, 9, 35, 0
1, 247720, Note_on_c, 9, 42, 0
1, 247916, Note_on_c, 6, 41, 0
1, 247916, Note_on_c, 6, 48, 0
1, 247920, Note_on_c, 6, 41, 114
1, 247920, Note_on_c, 6, 48, 119
1, 247920, Note_on_c, 9, 42, 76
1, 247950, Lyric_t, "HOL"
1, 247950, Note_on_c, 3, 79, 112
1, 247960, Note_on_c, 9, 42, 0
1, 248007, Note_on_c, 12, 65, 0
1, 248012, Note_on_c, 12, 57, 0
1, 248020, Note_on_c, 12, 60, 0
1, 248027, Note_on_c, 12, 41, 0
1, 248038, Note_on_c, 12, 48, 0
1, 248091, Note_on_c, 4, 60, 0
1, 248091, Note_on_c, 5, 60, 0
1, 248153, Note_on_c, 3, 79, 0
1, 248156, Note_on_c, 6, 41, 0
1, 248156, Note_on_c, 6, 48, 0
1, 248160, Note_on_c, 4, 57, 119
1, 248160, Note_on_c, 4, 69, 114
1, 248160, Note_on_c, 5, 57, 119
1, 248160, Note_on_c, 5, 69, 114
1, 248160, Note_on_c, 6, 41, 110
1, 248160, Note_on_c, 6, 48, 119
1, 248160, Note_on_c, 6, 53, 127
1, 248160, Note_on_c, 9, 40, 118
1, 248160, Note_on_c, 9, 42, 76
1, 248160, Note_on_c, 12, 41, 127
1, 248160, Note_on_c, 12, 48, 127
1, 248160, Note_on_c, 12, 57, 110
1, 248160, Note_on_c, 12, 60, 124
1, 248160, Note_on_c, 12, 65, 124
1, 248175, Note_on_c, 4, 72, 0
1, 248175, Note_on_c, 5, 72, 0
1, 248181, Lyric_t, "LY"
1, 248181, Note_on_c, 3, 76, 106
1, 248200, Note_on_c, 9, 40, 0
1, 248200, Note_on_c, 9, 42, 0
1, 248270, Note_on_c, 3, 76, 0
1, 248396, Note_on_c, 6, 41, 0
1, 248396, Note_on_c, 6, 48, 0
1, 248396, Note_on_c, 6, 53, 0
1, 248400, Note_on_c, 6, 41, 65
1, 248400, Note_on_c, 6, 48, 94
1, 248400, Note_on_c, 6, 53, 91
1, 248400, Note_on_c, 9, 42, 76
1, 248403, Lyric_t, "WOOD "
1, 248403, Note_on_c, 3, 74, 107
1, 248440, Note_on_c, 9, 42, 0
1, 248476, Note_on_c, 12, 57, 0
1, 248527, Note_on_c, 4, 57, 0
1, 248527, Note_on_c, 5, 57, 0
1, 248540, Note_on_c, 1, 29, 0
1, 248599, Note_on_c, 4, 69, 0
1, 248599, Note_on_c, 5, 69, 0
1, 248617, Note_on_c, 3, 74, 0
1, 248636, Note_on_c, 6, 41, 0
1, 248636, Note_on_c, 6, 48, 0
1, 248636, Note_on_c, 6, 53, 0
1, 248640, Note_on_c, 1, 29, 114
1, 248640, Note_on_c, 4, 62, 119
1, 248640, Note_on_c, 4, 74, 119
1, 248640, Note_on_c, 5, 62, 119
1, 248640, Note_on_c, 5, 74, 119
1, 248640, Note_on_c, 6, 41, 106
1, 248640, Note_on_c, 6, 48, 114
1, 248640, Note_on_c, 9, 35, 118
1, 248640, Note_on_c, 9, 42, 76
1, 248640, Note_on_c, 12, 57, 94
1, 248673, Lyric_t, "IS "
1, 248673, Note_on_c, 3, 72, 109
1, 248680, Note_on_c, 9, 35, 0
1, 248680, Note_on_c, 9, 42, 0
1, 248693, Note_on_c, 12, 65, 0
1, 248717, Note_on_c, 12, 60, 0
1, 248742, Note_on_c, 12, 57, 0
1, 248757, Note_on_c, 1, 29, 0
1, 248757, Note_on_c, 3, 72, 0
1, 248869, Note_on_c, 4, 74, 0
1, 248869, Note_on_c, 5, 74, 0
1, 248871, Note_on_c, 4, 62, 0
1, 248871, Note_on_c, 5, 62, 0
1, 248875, Lyric_t, "DEAD"
1, 248875, Lyric_t, "\015"
1, 248875, Note_on_c, 3, 72, 110
1, 248876, Note_on_c, 6, 41, 0
1, 248876, Note_on_c, 6, 48, 0
1, 248880, Note_on_c, 1, 29, 124
1, 248880, Note_on_c, 4, 64, 114
1, 248880, Note_on_c, 4, 76, 102
1, 248880, Note_on_c, 5, 64, 114
1, 248880, Note_on_c, 5, 76, 102
1, 248880, Note_on_c, 6, 41, 102
1, 248880, Note_on_c, 6, 48, 106
1, 248880, Note_on_c, 9, 35, 118
1, 248880, Note_on_c, 9, 42, 76
1, 248880, Note_on_c, 12, 57, 114
1, 248880, Note_on_c, 12, 60, 127
1, 248880, Note_on_c, 12, 65, 127
1, 248916, Note_on_c, 12, 41, 0
1, 248920, Note_on_c, 9, 35, 0
1, 248920, Note_on_c, 9, 42, 0
1, 248936, Note_on_c, 12, 48, 0
1, 249092, Note_on_c, 4, 64, 0
1, 249092, Note_on_c, 5, 64, 0
1, 249094, Note_on_c, 4, 76, 0
1, 249094, Note_on_c, 5, 76, 0
1, 249097, Note_on_c, 1, 29, 0
1, 249116, Note_on_c, 6, 41, 0
1, 249116, Note_on_c, 6, 48, 0
1, 249120, Note_on_c, 1, 29, 119
1, 249120, Note_on_c, 4, 62, 110
1, 249120, Note_on_c, 4, 74, 119
1, 249120, Note_on_c, 5, 62, 110
1, 249120, Note_on_c, 5, 74, 119
1, 249120, Note_on_c, 6, 41, 106
1, 249120, Note_on_c, 6, 48, 119
1, 249120, Note_on_c, 6, 53, 124
1, 249120, Note_on_c, 9, 40, 118
1, 249120, Note_on_c, 9, 42, 76
1, 249120, Note_on_c, 12, 41, 114
1, 249120, Note_on_c, 12, 48, 127
1, 249146, Note_on_c, 12, 57, 0
1, 249160, Note_on_c, 9, 40, 0
1, 249160, Note_on_c, 9, 42, 0
1, 249215, Note_on_c, 3, 72, 0
1, 249286, Note_on_c, 1, 29, 0
1, 249334, Note_on_c, 4, 74, 0
1, 249334, Note_on_c, 5, 74, 0
1, 249336, Note_on_c, 4, 62, 0
1, 249336, Note_on_c, 5, 62, 0
1, 249356, Note_on_c, 6, 41, 0
1, 249356, Note_on_c, 6, 48, 0
1, 249356, Note_on_c, 6, 53, 0
1, 249360, Note_on_c, 1, 29, 127
1, 249360, Note_on_c, 4, 60, 119
1, 249360, Note_on_c, 4, 72, 127
1, 249360, Note_on_c, 5, 60, 119
1, 249360, Note_on_c, 5, 72, 127
1, 249360, Note_on_c, 6, 53, 99
1, 249360, Note_on_c, 9, 42, 76
1, 249360, Note_on_c, 12, 57, 106
1, 249400, Note_on_c, 9, 42, 0
1, 249424, Note_on_c, 12, 41, 0
1, 249495, Note_on_c, 12, 48, 0
1, 249555, Note_on_c, 1, 29, 0
1, 249596, Note_on_c, 6, 53, 0
1, 249600, Note_on_c, 1, 29, 127
1, 249600, Note_on_c, 6, 41, 127
1, 249600, Note_on_c, 9, 35, 118
1, 249600, Note_on_c, 9, 42, 76
1, 249600, Note_on_c, 10, 41, 115
1, 249600, Note_on_c, 12, 41, 127
1, 249600, Note_on_c, 12, 48, 127
1, 249640, Note_on_c, 9, 35, 0
1, 249640, Note_on_c, 9, 42, 0
1, 249669, Note_on_c, 12, 60, 0
1, 249694, Note_on_c, 12, 57, 0
1, 249736, Note_on_c, 12, 65, 0
1, 249827, Note_on_c, 1, 29, 0
1, 249827, Note_on_c, 6, 41, 0
1, 249827, Note_on_c, 10, 41, 0
1, 249840, Note_on_c, 1, 31, 124
1, 249840, Note_on_c, 6, 43, 127
1, 249840, Note_on_c, 9, 42, 76
1, 249840, Note_on_c, 10, 43, 115
1, 249880, Note_on_c, 9, 42, 0
1, 249947, Note_on_c, 12, 41, 0
1, 249958, Note_on_c, 12, 48, 0
1, 250011, Note_on_c, 4, 60, 0
1, 250011, Note_on_c, 5, 60, 0
1, 250080, Note_on_c, 4, 56, 119
1, 250080, Note_on_c, 4, 68, 114
1, 250080, Note_on_c, 5, 56, 119
1, 250080, Note_on_c, 5, 68, 114
1, 250080, Note_on_c, 9, 40, 118
1, 250080, Note_on_c, 9, 42, 76
1, 250080, Note_on_c, 12, 41, 127
1, 250080, Note_on_c, 12, 48, 127
1, 250080, Note_on_c, 12, 56, 110
1, 250080, Note_on_c, 12, 60, 124
1, 250080, Note_on_c, 12, 65, 124
1, 250095, Note_on_c, 4, 72, 0
1, 250095, Note_on_c, 5, 72, 0
1, 250120, Note_on_c, 9, 40, 0
1, 250120, Note_on_c, 9, 42, 0
1, 250305, Note_on_c, 1, 31, 0
1, 250310, Note_on_c, 6, 43, 0
1, 250310, Note_on_c, 10, 43, 0
1, 250320, Lyric_t, "HOL"
1, 250320, Note_on_c, 1, 32, 127
1, 250320, Note_on_c, 3, 79, 111
1, 250320, Note_on_c, 6, 44, 127
1, 250320, Note_on_c, 9, 42, 76
1, 250320, Note_on_c, 10, 44, 115
1, 250360, Note_on_c, 9, 42, 0
1, 250396, Note_on_c, 12, 56, 0
1, 250447, Note_on_c, 4, 56, 0
1, 250447, Note_on_c, 5, 56, 0
1, 250519, Note_on_c, 4, 68, 0
1, 250519, Note_on_c, 5, 68, 0
1, 250536, Note_on_c, 3, 79, 0
1, 250560, Lyric_t, "LY"
1, 250560, Note_on_c, 3, 76, 106
1, 250560, Note_on_c, 4, 62, 119
1, 250560, Note_on_c, 4, 74, 119
1, 250560, Note_on_c, 5, 62, 119
1, 250560, Note_on_c, 5, 74, 119
1, 250560, Note_on_c, 9, 35, 118
1, 250560, Note_on_c, 9, 42, 76
1, 250560, Note_on_c, 12, 56, 94
1, 250600, Note_on_c, 9, 35, 0
1, 250600, Note_on_c, 9, 42, 0
1, 250613, Note_on_c, 12, 65, 0
1, 250637, Note_on_c, 12, 60, 0
1, 250662, Note_on_c, 12, 56, 0
1, 250769, Note_on_c, 3, 76, 0
1, 250770, Note_on_c, 6, 44, 0
1, 250770, Note_on_c, 10, 44, 0
1, 250789, Note_on_c, 4, 74, 0
1, 250789, Note_on_c, 5, 74, 0
1, 250790, Note_on_c, 1, 32, 0
1, 250791, Note_on_c, 4, 62, 0
1, 250791, Note_on_c, 5, 62, 0
1, 250800, Lyric_t, "WOOD "
1, 250800, Note_on_c, 1, 34, 124
1, 250800, Note_on_c, 3, 74, 107
1, 250800, Note_on_c, 4, 64, 114
1, 250800, Note_on_c, 4, 76, 102
1, 250800, Note_on_c, 5, 64, 114
1, 250800, Note_on_c, 5, 76, 102
1, 250800, Note_on_c, 6, 46, 127
1, 250800, Note_on_c, 9, 35, 118
1, 250800, Note_on_c, 9, 42, 76
1, 250800, Note_on_c, 10, 46, 115
1, 250800, Note_on_c, 12, 56, 114
1, 250800, Note_on_c, 12, 60, 127
1, 250800, Note_on_c, 12, 65, 127
1, 250836, Note_on_c, 12, 41, 0
1, 250840, Note_on_c, 9, 35, 0
1, 250840, Note_on_c, 9, 42, 0
1, 250856, Note_on_c, 12, 48, 0
1, 250957, Note_on_c, 3, 74, 0
1, 251012, Note_on_c, 4, 64, 0
1, 251012, Note_on_c, 5, 64, 0
1, 251014, Note_on_c, 4, 76, 0
1, 251014, Note_on_c, 5, 76, 0
1, 251040, Lyric_t, "IS "
1, 251040, Note_on_c, 3, 72, 111
1, 251040, Note_on_c, 4, 62, 110
1, 251040, Note_on_c, 4, 74, 119
1, 251040, Note_on_c, 5, 62, 110
1, 251040, Note_on_c, 5, 74, 119
1, 251040, Note_on_c, 9, 40, 118
1, 251040, Note_on_c, 9, 42, 76
1, 251040, Note_on_c, 12, 41, 114
1, 251040, Note_on_c, 12, 48, 127
1, 251066, Note_on_c, 12, 56, 0
1, 251080, Note_on_c, 9, 40, 0
1, 251080, Note_on_c, 9, 42, 0
1, 251136, Note_on_c, 3, 72, 0
1, 251189, Note_on_c, 6, 46, 0
1, 251189, Note_on_c, 10, 46, 0
1, 251203, Note_on_c, 1, 34, 0
1, 251254, Note_on_c, 4, 74, 0
1, 251254, Note_on_c, 5, 74, 0
1, 251256, Note_on_c, 4, 62, 0
1, 251256, Note_on_c, 5, 62, 0
1, 251280, Lyric_t, "DEAD"
1, 251280, Lyric_t, "\015"
1, 251280, Note_on_c, 1, 35, 120
1, 251280, Note_on_c, 3, 72, 111
1, 251280, Note_on_c, 4, 60, 119
1, 251280, Note_on_c, 4, 72, 127
1, 251280, Note_on_c, 5, 60, 119
1, 251280, Note_on_c, 5, 72, 127
1, 251280, Note_on_c, 6, 47, 102
1, 251280, Note_on_c, 9, 42, 76
1, 251280, Note_on_c, 10, 47, 90
1, 251280, Note_on_c, 12, 56, 106
1, 251320, Note_on_c, 9, 42, 0
1, 251344, Note_on_c, 12, 41, 0
1, 251415, Note_on_c, 12, 48, 0
1, 251469, Note_on_c, 12, 60, 0
1, 251516, Note_on_c, 12, 56, 0
1, 251520, Note_on_c, 1, 36, 127
1, 251520, Note_on_c, 6, 48, 127
1, 251520, Note_on_c, 9, 35, 118
1, 251520, Note_on_c, 9, 49, 76
1, 251520, Note_on_c, 10, 48, 115
1, 251520, Note_on_c, 12, 48, 124
1, 251520, Note_on_c, 12, 55, 94
1, 251520, Note_on_c, 12, 60, 124
1, 251520, Note_on_c, 12, 64, 124
1, 251530, Note_on_c, 1, 35, 0
1, 251536, Note_on_c, 12, 65, 0
1, 251543, Note_on_c, 6, 47, 0
1, 251543, Note_on_c, 10, 47, 0
1, 251560, Note_on_c, 9, 35, 0
1, 251560, Note_on_c, 9, 49, 0
1, 251756, Note_on_c, 3, 72, 0
1, 251760, Lyric_t, "BABE "
1, 251760, Note_on_c, 3, 72, 110
1, 251760, Note_on_c, 9, 42, 76
1, 251800, Note_on_c, 9, 42, 0
1, 251846, Note_on_c, 12, 48, 0
1, 251850, Note_on_c, 12, 55, 0
1, 251868, Note_on_c, 12, 64, 0
1, 251872, Note_on_c, 12, 60, 0
1, 251899, Note_on_c, 6, 48, 0
1, 251899, Note_on_c, 10, 48, 0
1, 251927, Note_on_c, 1, 36, 0
1, 252000, Note_on_c, 1, 36, 119
1, 252000, Note_on_c, 6, 48, 46
1, 252000, Note_on_c, 6, 55, 102
1, 252000, Note_on_c, 9, 40, 118
1, 252000, Note_on_c, 9, 42, 76
1, 252000, Note_on_c, 9, 57, 76
1, 252000, Note_on_c, 12, 48, 110
1, 252040, Note_on_c, 9, 40, 0
1, 252040, Note_on_c, 9, 42, 0
1, 252040, Note_on_c, 9, 57, 0
1, 252081, Note_on_c, 12, 48, 0
1, 252115, Note_on_c, 3, 72, 0
1, 252236, Note_on_c, 6, 48, 0
1, 252236, Note_on_c, 6, 55, 0
1, 252240, Lyric_t, "BABE "
1, 252240, Note_on_c, 3, 72, 107
1, 252240, Note_on_c, 6, 48, 87
1, 252240, Note_on_c, 6, 55, 102
1, 252240, Note_on_c, 9, 42, 76
1, 252240, Note_on_c, 12, 48, 127
1, 252240, Note_on_c, 12, 55, 94
1, 252240, Note_on_c, 12, 60, 124
1, 252240, Note_on_c, 12, 64, 124
1, 252280, Note_on_c, 9, 42, 0
1, 252360, Note_on_c, 9, 40, 76
1, 252400, Note_on_c, 9, 40, 0
1, 252425, Note_on_c, 1, 36, 0
1, 252476, Note_on_c, 6, 48, 0
1, 252476, Note_on_c, 6, 55, 0
1, 252480, Note_on_c, 1, 36, 119
1, 252480, Note_on_c, 6, 48, 114
1, 252480, Note_on_c, 6, 55, 114
1, 252480, Note_on_c, 9, 35, 118
1, 252480, Note_on_c, 9, 42, 76
1, 252520, Note_on_c, 9, 35, 0
1, 252520, Note_on_c, 9, 42, 0
1, 252564, Note_on_c, 1, 36, 0
1, 252570, Note_on_c, 12, 55, 0
1, 252588, Note_on_c, 12, 64, 0
1, 252592, Note_on_c, 12, 60, 0
1, 252600, Note_on_c, 9, 40, 76
1, 252635, Note_on_c, 3, 72, 0
1, 252640, Note_on_c, 9, 40, 0
1, 252716, Note_on_c, 6, 48, 0
1, 252716, Note_on_c, 6, 55, 0
1, 252720, Lyric_t, "BABE "
1, 252720, Note_on_c, 1, 36, 124
1, 252720, Note_on_c, 3, 72, 110
1, 252720, Note_on_c, 6, 48, 119
1, 252720, Note_on_c, 6, 55, 119
1, 252720, Note_on_c, 9, 35, 118
1, 252720, Note_on_c, 9, 42, 76
1, 252720, Note_on_c, 12, 55, 110
1, 252720, Note_on_c, 12, 60, 114
1, 252720, Note_on_c, 12, 64, 114
1, 252736, Note_on_c, 12, 48, 0
1, 252760, Note_on_c, 9, 35, 0
1, 252760, Note_on_c, 9, 42, 0
1, 252926, Note_on_c, 12, 55, 0
1, 252956, Note_on_c, 6, 48, 0
1, 252956, Note_on_c, 6, 55, 0
1, 252960, Note_on_c, 6, 48, 110
1, 252960, Note_on_c, 6, 55, 124
1, 252960, Note_on_c, 9, 40, 118
1, 252960, Note_on_c, 9, 42, 76
1, 252960, Note_on_c, 9, 57, 76
1, 252960, Note_on_c, 12, 48, 127
1, 252978, Note_on_c, 12, 60, 0
1, 253000, Note_on_c, 9, 40, 0
1, 253000, Note_on_c, 9, 42, 0
1, 253000, Note_on_c, 9, 57, 0
1, 253010, Note_on_c, 12, 64, 0
1, 253075, Note_on_c, 3, 72, 0
1, 253088, Note_on_c, 1, 36, 0
1, 253196, Note_on_c, 6, 48, 0
1, 253196, Note_on_c, 6, 55, 0
1, 253200, Lyric_t, "BABE"
1, 253200, Lyric_t, "\015"
1, 253200, Note_on_c, 1, 36, 124
1, 253200, Note_on_c, 3, 72, 107
1, 253200, Note_on_c, 6, 48, 127
1, 253200, Note_on_c, 6, 55, 127
1, 253200, Note_on_c, 9, 42, 76
1, 253200, Note_on_c, 12, 60, 91
1, 253200, Note_on_c, 12, 67, 58
1, 253214, Note_on_c, 12, 48, 0
1, 253240, Note_on_c, 9, 42, 0
1, 253247, Note_on_c, 12, 67, 0
1, 253311, Note_on_c, 12, 60, 0
1, 253326, Note_on_c, 1, 36, 0
1, 253436, Note_on_c, 6, 48, 0
1, 253436, Note_on_c, 6, 55, 0
1, 253440, Note_on_c, 1, 36, 127
1, 253440, Note_on_c, 6, 48, 127
1, 253440, Note_on_c, 9, 35, 118
1, 253440, Note_on_c, 9, 42, 76
1, 253440, Note_on_c, 12, 48, 124
1, 253440, Note_on_c, 12, 55, 94
1, 253440, Note_on_c, 12, 60, 124
1, 253440, Note_on_c, 12, 64, 124
1, 253480, Note_on_c, 9, 35, 0
1, 253480, Note_on_c, 9, 42, 0
1, 253595, Note_on_c, 3, 72, 0
1, 253676, Note_on_c, 1, 36, 0
1, 253680, Lyric_t, "BABE "
1, 253680, Note_on_c, 1, 36, 127
1, 253680, Note_on_c, 3, 72, 112
1, 253680, Note_on_c, 9, 40, 118
1, 253680, Note_on_c, 9, 42, 76
1, 253720, Note_on_c, 9, 40, 0
1, 253720, Note_on_c, 9, 42, 0
1, 253766, Note_on_c, 12, 48, 0
1, 253770, Note_on_c, 12, 55, 0
1, 253788, Note_on_c, 12, 64, 0
1, 253792, Note_on_c, 12, 60, 0
1, 253798, Note_on_c, 3, 72, 0
1, 253819, Note_on_c, 6, 48, 0
1, 253916, Note_on_c, 1, 36, 0
1, 253920, Lyric_t, "BABE "
1, 253920, Note_on_c, 1, 33, 127
1, 253920, Note_on_c, 3, 72, 112
1, 253920, Note_on_c, 6, 48, 46
1, 253920, Note_on_c, 6, 55, 102
1, 253920, Note_on_c, 9, 40, 118
1, 253920, Note_on_c, 9, 42, 76
1, 253920, Note_on_c, 12, 48, 110
1, 253960, Note_on_c, 9, 40, 0
1, 253960, Note_on_c, 9, 42, 0
1, 254001, Note_on_c, 12, 48, 0
1, 254038, Note_on_c, 3, 72, 0
1, 254040, Note_on_c, 9, 40, 76
1, 254080, Note_on_c, 9, 40, 0
1, 254156, Note_on_c, 1, 33, 0
1, 254156, Note_on_c, 6, 48, 0
1, 254156, Note_on_c, 6, 55, 0
1, 254160, Lyric_t, "BABE "
1, 254160, Note_on_c, 1, 33, 127
1, 254160, Note_on_c, 3, 72, 111
1, 254160, Note_on_c, 6, 48, 87
1, 254160, Note_on_c, 6, 55, 102
1, 254160, Note_on_c, 9, 42, 76
1, 254160, Note_on_c, 9, 47, 107
1, 254160, Note_on_c, 12, 48, 127
1, 254160, Note_on_c, 12, 55, 94
1, 254160, Note_on_c, 12, 60, 124
1, 254160, Note_on_c, 12, 64, 124
1, 254200, Note_on_c, 9, 42, 0
1, 254200, Note_on_c, 9, 47, 0
1, 254280, Note_on_c, 9, 45, 107
1, 254297, Note_on_c, 3, 72, 0
1, 254320, Note_on_c, 9, 45, 0
1, 254396, Note_on_c, 1, 33, 0
1, 254396, Note_on_c, 6, 48, 0
1, 254396, Note_on_c, 6, 55, 0
1, 254400, Lyric_t, "BABE "
1, 254400, Note_on_c, 1, 31, 127
1, 254400, Note_on_c, 3, 72, 111
1, 254400, Note_on_c, 6, 48, 114
1, 254400, Note_on_c, 6, 55, 114
1, 254400, Note_on_c, 9, 40, 118
1, 254400, Note_on_c, 9, 42, 76
1, 254440, Note_on_c, 9, 40, 0
1, 254440, Note_on_c, 9, 42, 0
1, 254490, Note_on_c, 12, 55, 0
1, 254508, Note_on_c, 12, 64, 0
1, 254512, Note_on_c, 12, 60, 0
1, 254528, Note_on_c, 3, 72, 0
1, 254636, Note_on_c, 1, 31, 0
1, 254636, Note_on_c, 6, 48, 0
1, 254636, Note_on_c, 6, 55, 0
1, 254640, Lyric_t, "BABE"
1, 254640, Lyric_t, "\015"
1, 254640, Note_on_c, 1, 31, 127
1, 254640, Note_on_c, 3, 72, 111
1, 254640, Note_on_c, 6, 48, 119
1, 254640, Note_on_c, 6, 55, 119
1, 254640, Note_on_c, 9, 35, 118
1, 254640, Note_on_c, 9, 42, 76
1, 254640, Note_on_c, 9, 45, 118
1, 254640, Note_on_c, 12, 55, 110
1, 254640, Note_on_c, 12, 60, 114
1, 254640, Note_on_c, 12, 64, 114
1, 254656, Note_on_c, 12, 48, 0
1, 254680, Note_on_c, 9, 35, 0
1, 254680, Note_on_c, 9, 42, 0
1, 254680, Note_on_c, 9, 45, 0
1, 254755, Note_on_c, 3, 72, 0
1, 254760, Note_on_c, 9, 48, 76
1, 254800, Note_on_c, 9, 48, 0
1, 254846, Note_on_c, 12, 55, 0
1, 254876, Note_on_c, 1, 31, 0
1, 254876, Note_on_c, 6, 48, 0
1, 254876, Note_on_c, 6, 55, 0
1, 254880, Note_on_c, 1, 29, 127
1, 254880, Note_on_c, 6, 48, 110
1, 254880, Note_on_c, 6, 55, 124
1, 254880, Note_on_c, 9, 40, 118
1, 254880, Note_on_c, 12, 48, 127
1, 254898, Note_on_c, 12, 60, 0
1, 254920, Note_on_c, 9, 40, 0
1, 254930, Note_on_c, 12, 64, 0
1, 255000, Note_on_c, 9, 40, 118
1, 255040, Note_on_c, 9, 40, 0
1, 255116, Note_on_c, 1, 29, 0
1, 255116, Note_on_c, 6, 48, 0
1, 255116, Note_on_c, 6, 55, 0
1, 255120, Note_on_c, 1, 31, 127
1, 255120, Note_on_c, 6, 48, 127
1, 255120, Note_on_c, 6, 55, 127
1, 255120, Note_on_c, 9, 35, 118
1, 255120, Note_on_c, 9, 42, 76
1, 255120, Note_on_c, 9, 47, 118
1, 255120, Note_on_c, 12, 60, 91
1, 255120, Note_on_c, 12, 67, 58
1, 255134, Note_on_c, 12, 48, 0
1, 255160, Note_on_c, 9, 35, 0
1, 255160, Note_on_c, 9, 42, 0
1, 255160, Note_on_c, 9, 47, 0
1, 255167, Note_on_c, 12, 67, 0
1, 255231, Note_on_c, 12, 60, 0
1, 255240, Note_on_c, 9, 45, 118
1, 255280, Note_on_c, 9, 45, 0
1, 255356, Note_on_c, 1, 31, 0
1, 255356, Note_on_c, 4, 60, 0
1, 255356, Note_on_c, 4, 72, 0
1, 255356, Note_on_c, 5, 60, 0
1, 255356, Note_on_c, 5, 72, 0
1, 255356, Note_on_c, 6, 48, 0
1, 255356, Note_on_c, 6, 55, 0
1, 255360, Note_on_c, 1, 29, 127
1, 255360, Note_on_c, 4, 57, 114
1, 255360, Note_on_c, 4, 69, 124
1, 255360, Note_on_c, 5, 57, 114
1, 255360, Note_on_c, 5, 69, 124
1, 255360, Note_on_c, 6, 41, 110
1, 255360, Note_on_c, 6, 48, 119
1, 255360, Note_on_c, 9, 35, 118
1, 255360, Note_on_c, 9, 49, 91
1, 255360, Note_on_c, 12, 41, 127
1, 255400, Note_on_c, 9, 35, 0
1, 255400, Note_on_c, 9, 49, 0
1, 255596, Note_on_c, 6, 41, 0
1, 255596, Note_on_c, 6, 48, 0
1, 255600, Note_on_c, 6, 41, 110
1, 255600, Note_on_c, 6, 48, 119
1, 255600, Note_on_c, 6, 53, 60
1, 255600, Note_on_c, 9, 42, 76
1, 255640, Note_on_c, 9, 42, 0
1, 255735, Note_on_c, 12, 41, 0
1, 255767, Note_on_c, 1, 29, 0
1, 255817, Note_on_c, 4, 69, 0
1, 255817, Note_on_c, 5, 69, 0
1, 255828, Note_on_c, 4, 57, 0
1, 255828, Note_on_c, 5, 57, 0
1, 255836, Note_on_c, 6, 41, 0
1, 255836, Note_on_c, 6, 48, 0
1, 255836, Note_on_c, 6, 53, 0
1, 255840, Note_on_c, 1, 29, 119
1, 255840, Note_on_c, 4, 60, 110
1, 255840, Note_on_c, 4, 72, 127
1, 255840, Note_on_c, 5, 60, 110
1, 255840, Note_on_c, 5, 72, 127
1, 255840, Note_on_c, 6, 41, 119
1, 255840, Note_on_c, 6, 48, 127
1, 255840, Note_on_c, 6, 53, 94
1, 255840, Note_on_c, 9, 40, 118
1, 255840, Note_on_c, 9, 42, 76
1, 255840, Note_on_c, 9, 57, 91
1, 255840, Note_on_c, 12, 41, 94
1, 255840, Note_on_c, 12, 48, 127
1, 255840, Note_on_c, 12, 57, 119
1, 255840, Note_on_c, 12, 60, 127
1, 255840, Note_on_c, 12, 65, 127
1, 255880, Note_on_c, 9, 40, 0
1, 255880, Note_on_c, 9, 42, 0
1, 255880, Note_on_c, 9, 57, 0
1, 255919, Note_on_c, 12, 60, 0
1, 256076, Note_on_c, 6, 41, 0
1, 256076, Note_on_c, 6, 48, 0
1, 256076, Note_on_c, 6, 53, 0
1, 256080, Note_on_c, 6, 41, 119
1, 256080, Note_on_c, 6, 48, 127
1, 256080, Note_on_c, 6, 53, 91
1, 256080, Note_on_c, 9, 42, 76
1, 256080, Note_on_c, 12, 60, 45
1, 256120, Note_on_c, 9, 42, 0
1, 256171, Note_on_c, 12, 57, 0
1, 256252, Note_on_c, 4, 72, 0
1, 256252, Note_on_c, 5, 72, 0
1, 256265, Note_on_c, 1, 29, 0
1, 256274, Note_on_c, 4, 60, 0
1, 256274, Note_on_c, 5, 60, 0
1, 256316, Note_on_c, 6, 41, 0
1, 256316, Note_on_c, 6, 48, 0
1, 256316, Note_on_c, 6, 53, 0
1, 256320, Note_on_c, 1, 29, 119
1, 256320, Note_on_c, 4, 62, 119
1, 256320, Note_on_c, 4, 74, 119
1, 256320, Note_on_c, 5, 62, 119
1, 256320, Note_on_c, 5, 74, 119
1, 256320, Note_on_c, 6, 41, 106
1, 256320, Note_on_c, 6, 48, 110
1, 256320, Note_on_c, 9, 35, 118
1, 256320, Note_on_c, 9, 42, 76
1, 256320, Note_on_c, 12, 57, 106
1, 256345, Note_on_c, 12, 65, 0
1, 256360, Note_on_c, 9, 35, 0
1, 256360, Note_on_c, 9, 42, 0
1, 256404, Note_on_c, 1, 29, 0
1, 256436, Note_on_c, 12, 57, 0
1, 256495, Note_on_c, 12, 60, 0
1, 256549, Note_on_c, 4, 74, 0
1, 256549, Note_on_c, 5, 74, 0
1, 256551, Note_on_c, 4, 62, 0
1, 256551, Note_on_c, 5, 62, 0
1, 256556, Note_on_c, 6, 41, 0
1, 256556, Note_on_c, 6, 48, 0
1, 256560, Note_on_c, 1, 29, 124
1, 256560, Note_on_c, 4, 64, 114
1, 256560, Note_on_c, 4, 76, 102
1, 256560, Note_on_c, 5, 64, 114
1, 256560, Note_on_c, 5, 76, 102
1, 256560, Note_on_c, 6, 41, 114
1, 256560, Note_on_c, 6, 48, 110
1, 256560, Note_on_c, 9, 35, 118
1, 256560, Note_on_c, 9, 42, 76
1, 256560, Note_on_c, 12, 57, 110
1, 256560, Note_on_c, 12, 60, 127
1, 256560, Note_on_c, 12, 65, 127
1, 256600, Note_on_c, 9, 35, 0
1, 256600, Note_on_c, 9, 42, 0
1, 256637, Note_on_c, 12, 41, 0
1, 256645, Note_on_c, 12, 48, 0
1, 256772, Note_on_c, 4, 64, 0
1, 256772, Note_on_c, 5, 64, 0
1, 256774, Note_on_c, 4, 76, 0
1, 256774, Note_on_c, 5, 76, 0
1, 256796, Note_on_c, 6, 41, 0
1, 256796, Note_on_c, 6, 48, 0
1, 256800, Note_on_c, 4, 62, 110
1, 256800, Note_on_c, 4, 74, 119
1, 256800, Note_on_c, 5, 62, 110
1, 256800, Note_on_c, 5, 74, 119
1, 256800, Note_on_c, 6, 41, 119
1, 256800, Note_on_c, 6, 48, 127
1, 256800, Note_on_c, 6, 53, 127
1, 256800, Note_on_c, 9, 40, 118
1, 256800, Note_on_c, 9, 42, 76
1, 256800, Note_on_c, 12, 41, 114
1, 256800, Note_on_c, 12, 48, 114
1, 256840, Note_on_c, 9, 40, 0
1, 256840, Note_on_c, 9, 42, 0
1, 256874, Note_on_c, 12, 57, 0
1, 256928, Note_on_c, 1, 29, 0
1, 257014, Note_on_c, 4, 74, 0
1, 257014, Note_on_c, 5, 74, 0
1, 257016, Note_on_c, 4, 62, 0
1, 257016, Note_on_c, 5, 62, 0
1, 257036, Note_on_c, 6, 41, 0
1, 257036, Note_on_c, 6, 48, 0
1, 257036, Note_on_c, 6, 53, 0
1, 257040, Note_on_c, 1, 29, 124
1, 257040, Note_on_c, 4, 60, 119
1, 257040, Note_on_c, 4, 72, 127
1, 257040, Note_on_c, 5, 60, 119
1, 257040, Note_on_c, 5, 72, 127
1, 257040, Note_on_c, 6, 41, 99
1, 257040, Note_on_c, 6, 48, 110
1, 257040, Note_on_c, 6, 53, 110
1, 257040, Note_on_c, 9, 40, 118
1, 257040, Note_on_c, 9, 42, 76
1, 257040, Note_on_c, 9, 57, 91
1, 257040, Note_on_c, 12, 57, 106
1, 257042, Note_on_c, 12, 41, 0
1, 257072, Note_on_c, 12, 48, 0
1, 257080, Note_on_c, 9, 40, 0
1, 257080, Note_on_c, 9, 42, 0
1, 257080, Note_on_c, 9, 57, 0
1, 257166, Note_on_c, 1, 29, 0
1, 257276, Note_on_c, 6, 41, 0
1, 257276, Note_on_c, 6, 48, 0
1, 257276, Note_on_c, 6, 53, 0
1, 257280, Note_on_c, 1, 29, 119
1, 257280, Note_on_c, 6, 41, 114
1, 257280, Note_on_c, 6, 48, 119
1, 257280, Note_on_c, 9, 35, 118
1, 257280, Note_on_c, 9, 42, 76
1, 257280, Note_on_c, 12, 41, 127
1, 257280, Note_on_c, 12, 48, 127
1, 257320, Note_on_c, 9, 35, 0
1, 257320, Note_on_c, 9, 42, 0
1, 257516, Note_on_c, 6, 41, 0
1, 257516, Note_on_c, 6, 48, 0
1, 257520, Note_on_c, 6, 41, 114
1, 257520, Note_on_c, 6, 48, 119
1, 257520, Note_on_c, 9, 42, 76
1, 257560, Note_on_c, 9, 42, 0
1, 257607, Note_on_c, 12, 65, 0
1, 257612, Note_on_c, 12, 57, 0
1, 257620, Note_on_c, 12, 60, 0
1, 257627, Note_on_c, 12, 41, 0
1, 257638, Note_on_c, 12, 48, 0
1, 257691, Note_on_c, 4, 60, 0
1, 257691, Note_on_c, 5, 60, 0
1, 257756, Note_on_c, 6, 41, 0
1, 257756, Note_on_c, 6, 48, 0
1, 257760, Note_on_c, 4, 57, 119
1, 257760, Note_on_c, 4, 69, 114
1, 257760, Note_on_c, 5, 57, 119
1, 257760, Note_on_c, 5, 69, 114
1, 257760, Note_on_c, 6, 41, 110
1, 257760, Note_on_c, 6, 48, 119
1, 257760, Note_on_c, 6, 53, 127
1, 257760, Note_on_c, 9, 40, 118
1, 257760, Note_on_c, 9, 42, 76
1, 257760, Note_on_c, 12, 41, 127
1, 257760, Note_on_c, 12, 48, 127
1, 257760, Note_on_c, 12, 57, 110
1, 257760, Note_on_c, 12, 60, 124
1, 257760, Note_on_c, 12, 65, 124
1, 257775, Note_on_c, 4, 72, 0
1, 257775, Note_on_c, 5, 72, 0
1, 257800, Note_on_c, 9, 40, 0
1, 257800, Note_on_c, 9, 42, 0
1, 257996, Note_on_c, 6, 41, 0
1, 257996, Note_on_c, 6, 48, 0
1, 257996, Note_on_c, 6, 53, 0
1, 258000, Note_on_c, 6, 41, 65
1, 258000, Note_on_c, 6, 48, 94
1, 258000, Note_on_c, 6, 53, 91
1, 258000, Note_on_c, 9, 42, 76
1, 258040, Note_on_c, 9, 42, 0
1, 258076, Note_on_c, 12, 57, 0
1, 258127, Note_on_c, 4, 57, 0
1, 258127, Note_on_c, 5, 57, 0
1, 258140, Note_on_c, 1, 29, 0
1, 258199, Note_on_c, 4, 69, 0
1, 258199, Note_on_c, 5, 69, 0
1, 258236, Note_on_c, 6, 41, 0
1, 258236, Note_on_c, 6, 48, 0
1, 258236, Note_on_c, 6, 53, 0
1, 258240, Note_on_c, 1, 29, 114
1, 258240, Note_on_c, 4, 62, 119
1, 258240, Note_on_c, 4, 74, 119
1, 258240, Note_on_c, 5, 62, 119
1, 258240, Note_on_c, 5, 74, 119
1, 258240, Note_on_c, 6, 41, 106
1, 258240, Note_on_c, 6, 48, 114
1, 258240, Note_on_c, 9, 35, 118
1, 258240, Note_on_c, 9, 42, 76
1, 258240, Note_on_c, 12, 57, 94
1, 258280, Note_on_c, 9, 35, 0
1, 258280, Note_on_c, 9, 42, 0
1, 258293, Note_on_c, 12, 65, 0
1, 258317, Note_on_c, 12, 60, 0
1, 258342, Note_on_c, 12, 57, 0
1, 258357, Note_on_c, 1, 29, 0
1, 258469, Note_on_c, 4, 74, 0
1, 258469, Note_on_c, 5, 74, 0
1, 258471, Note_on_c, 4, 62, 0
1, 258471, Note_on_c, 5, 62, 0
1, 258476, Note_on_c, 6, 41, 0
1, 258476, Note_on_c, 6, 48, 0
1, 258480, Note_on_c, 1, 29, 124
1, 258480, Note_on_c, 4, 64, 114
1, 258480, Note_on_c, 4, 76, 102
1, 258480, Note_on_c, 5, 64, 114
1, 258480, Note_on_c, 5, 76, 102
1, 258480, Note_on_c, 6, 41, 102
1, 258480, Note_on_c, 6, 48, 106
1, 258480, Note_on_c, 9, 35, 118
1, 258480, Note_on_c, 9, 42, 76
1, 258480, Note_on_c, 12, 57, 114
1, 258480, Note_on_c, 12, 60, 127
1, 258480, Note_on_c, 12, 65, 127
1, 258516, Note_on_c, 12, 41, 0
1, 258520, Note_on_c, 9, 35, 0
1, 258520, Note_on_c, 9, 42, 0
1, 258536, Note_on_c, 12, 48, 0
1, 258692, Note_on_c, 4, 64, 0
1, 258692, Note_on_c, 5, 64, 0
1, 258694, Note_on_c, 4, 76, 0
1, 258694, Note_on_c, 5, 76, 0
1, 258697, Note_on_c, 1, 29, 0
1, 258716, Note_on_c, 6, 41, 0
1, 258716, Note_on_c, 6, 48, 0
1, 258720, Note_on_c, 1, 29, 119
1, 258720, Note_on_c, 4, 62, 110
1, 258720, Note_on_c, 4, 74, 119
1, 258720, Note_on_c, 5, 62, 110
1, 258720, Note_on_c, 5, 74, 119
1, 258720, Note_on_c, 6, 41, 106
1, 258720, Note_on_c, 6, 48, 119
1, 258720, Note_on_c, 6, 53, 124
1, 258720, Note_on_c, 9, 40, 118
1, 258720, Note_on_c, 9, 42, 76
1, 258720, Note_on_c, 12, 41, 114
1, 258720, Note_on_c, 12, 48, 127
1, 258746, Note_on_c, 12, 57, 0
1, 258760, Note_on_c, 9, 40, 0
1, 258760, Note_on_c, 9, 42, 0
1, 258886, Note_on_c, 1, 29, 0
1, 258934, Note_on_c, 4, 74, 0
1, 258934, Note_on_c, 5, 74, 0
1, 258936, Note_on_c, 4, 62, 0
1, 258936, Note_on_c, 5, 62, 0
1, 258956, Note_on_c, 6, 41, 0
1, 258956, Note_on_c, 6, 48, 0
1, 258956, Note_on_c, 6, 53, 0
1, 258960, Note_on_c, 1, 29, 127
1, 258960, Note_on_c, 4, 60, 119
1, 258960, Note_on_c, 4, 72, 127
1, 258960, Note_on_c, 5, 60, 119
1, 258960, Note_on_c, 5, 72, 127
1, 258960, Note_on_c, 6, 53, 99
1, 258960, Note_on_c, 9, 42, 76
1, 258960, Note_on_c, 12, 57, 106
1, 259000, Note_on_c, 9, 42, 0
1, 259024, Note_on_c, 12, 41, 0
1, 259095, Note_on_c, 12, 48, 0
1, 259155, Note_on_c, 1, 29, 0
1, 259196, Note_on_c, 6, 53, 0
1, 259200, Note_on_c, 1, 29, 127
1, 259200, Note_on_c, 6, 41, 127
1, 259200, Note_on_c, 9, 35, 118
1, 259200, Note_on_c, 9, 42, 76
1, 259200, Note_on_c, 10, 41, 115
1, 259200, Note_on_c, 12, 41, 127
1, 259200, Note_on_c, 12, 48, 127
1, 259240, Note_on_c, 9, 35, 0
1, 259240, Note_on_c, 9, 42, 0
1, 259269, Note_on_c, 12, 60, 0
1, 259294, Note_on_c, 12, 57, 0
1, 259336, Note_on_c, 12, 65, 0
1, 259427, Note_on_c, 1, 29, 0
1, 259427, Note_on_c, 6, 41, 0
1, 259427, Note_on_c, 10, 41, 0
1, 259440, Note_on_c, 1, 31, 124
1, 259440, Note_on_c, 6, 43, 127
1, 259440, Note_on_c, 9, 42, 76
1, 259440, Note_on_c, 10, 43, 115
1, 259480, Note_on_c, 9, 42, 0
1, 259547, Note_on_c, 12, 41, 0
1, 259558, Note_on_c, 12, 48, 0
1, 259611, Note_on_c, 4, 60, 0
1, 259611, Note_on_c, 5, 60, 0
1, 259680, Note_on_c, 4, 56, 119
1, 259680, Note_on_c, 4, 68, 114
1, 259680, Note_on_c, 5, 56, 119
1, 259680, Note_on_c, 5, 68, 114
1, 259680, Note_on_c, 9, 40, 118
1, 259680, Note_on_c, 9, 42, 76
1, 259680, Note_on_c, 12, 41, 127
1, 259680, Note_on_c, 12, 48, 127
1, 259680, Note_on_c, 12, 56, 110
1, 259680, Note_on_c, 12, 60, 124
1, 259680, Note_on_c, 12, 65, 124
1, 259695, Note_on_c, 4, 72, 0
1, 259695, Note_on_c, 5, 72, 0
1, 259720, Note_on_c, 9, 40, 0
1, 259720, Note_on_c, 9, 42, 0
1, 259905, Note_on_c, 1, 31, 0
1, 259910, Note_on_c, 6, 43, 0
1, 259910, Note_on_c, 10, 43, 0
1, 259920, Note_on_c, 1, 32, 127
1, 259920, Note_on_c, 6, 44, 127
1, 259920, Note_on_c, 9, 42, 76
1, 259920, Note_on_c, 10, 44, 115
1, 259960, Note_on_c, 9, 42, 0
1, 259996, Note_on_c, 12, 56, 0
1, 260047, Note_on_c, 4, 56, 0
1, 260047, Note_on_c, 5, 56, 0
1, 260119, Note_on_c, 4, 68, 0
1, 260119, Note_on_c, 5, 68, 0
1, 260160, Note_on_c, 4, 62, 119
1, 260160, Note_on_c, 4, 74, 119
1, 260160, Note_on_c, 5, 62, 119
1, 260160, Note_on_c, 5, 74, 119
1, 260160, Note_on_c, 9, 35, 118
1, 260160, Note_on_c, 9, 42, 76
1, 260160, Note_on_c, 12, 56, 94
1, 260200, Note_on_c, 9, 35, 0
1, 260200, Note_on_c, 9, 42, 0
1, 260213, Note_on_c, 12, 65, 0
1, 260237, Note_on_c, 12, 60, 0
1, 260262, Note_on_c, 12, 56, 0
1, 260370, Note_on_c, 6, 44, 0
1, 260370, Note_on_c, 10, 44, 0
1, 260389, Note_on_c, 4, 74, 0
1, 260389, Note_on_c, 5, 74, 0
1, 260390, Note_on_c, 1, 32, 0
1, 260391, Note_on_c, 4, 62, 0
1, 260391, Note_on_c, 5, 62, 0
1, 260400, Note_on_c, 1, 34, 124
1, 260400, Note_on_c, 4, 64, 114
1, 260400, Note_on_c, 4, 76, 102
1, 260400, Note_on_c, 5, 64, 114
1, 260400, Note_on_c, 5, 76, 102
1, 260400, Note_on_c, 6, 46, 127
1, 260400, Note_on_c, 9, 35, 118
1, 260400, Note_on_c, 9, 42, 76
1, 260400, Note_on_c, 10, 46, 115
1, 260400, Note_on_c, 12, 56, 114
1, 260400, Note_on_c, 12, 60, 127
1, 260400, Note_on_c, 12, 65, 127
1, 260436, Note_on_c, 12, 41, 0
1, 260440, Note_on_c, 9, 35, 0
1, 260440, Note_on_c, 9, 42, 0
1, 260456, Note_on_c, 12, 48, 0
1, 260612, Note_on_c, 4, 64, 0
1, 260612, Note_on_c, 5, 64, 0
1, 260614, Note_on_c, 4, 76, 0
1, 260614, Note_on_c, 5, 76, 0
1, 260640, Note_on_c, 4, 62, 110
1, 260640, Note_on_c, 4, 74, 119
1, 260640, Note_on_c, 5, 62, 110
1, 260640, Note_on_c, 5, 74, 119
1, 260640, Note_on_c, 9, 40, 118
1, 260640, Note_on_c, 9, 42, 76
1, 260640, Note_on_c, 12, 41, 114
1, 260640, Note_on_c, 12, 48, 127
1, 260666, Note_on_c, 12, 56, 0
1, 260680, Note_on_c, 9, 40, 0
1, 260680, Note_on_c, 9, 42, 0
1, 260789, Note_on_c, 6, 46, 0
1, 260789, Note_on_c, 10, 46, 0
1, 260803, Note_on_c, 1, 34, 0
1, 260854, Note_on_c, 4, 74, 0
1, 260854, Note_on_c, 5, 74, 0
1, 260856, Note_on_c, 4, 62, 0
1, 260856, Note_on_c, 5, 62, 0
1, 260880, Note_on_c, 1, 35, 120
1, 260880, Note_on_c, 4, 60, 119
1, 260880, Note_on_c, 4, 72, 127
1, 260880, Note_on_c, 5, 60, 119
1, 260880, Note_on_c, 5, 72, 127
1, 260880, Note_on_c, 6, 47, 102
1, 260880, Note_on_c, 9, 42, 76
1, 260880, Note_on_c, 10, 47, 90
1, 260880, Note_on_c, 12, 56, 106
1, 260920, Note_on_c, 9, 42, 0
1, 260944, Note_on_c, 12, 41, 0
1, 261015, Note_on_c, 12, 48, 0
1, 261069, Note_on_c, 12, 60, 0
1, 261116, Note_on_c, 12, 56, 0
1, 261120, Note_on_c, 1, 36, 127
1, 261120, Note_on_c, 6, 48, 127
1, 261120, Note_on_c, 9, 35, 118
1, 261120, Note_on_c, 9, 49, 76
1, 261120, Note_on_c, 10, 48, 115
1, 261120, Note_on_c, 12, 48, 124
1, 261120, Note_on_c, 12, 55, 94
1, 261120, Note_on_c, 12, 60, 124
1, 261120, Note_on_c, 12, 64, 124
1, 261130, Note_on_c, 1, 35, 0
1, 261136, Note_on_c, 12, 65, 0
1, 261143, Note_on_c, 6, 47, 0
1, 261143, Note_on_c, 10, 47, 0
1, 261160, Note_on_c, 9, 35, 0
1, 261160, Note_on_c, 9, 49, 0
1, 261360, Note_on_c, 9, 42, 76
1, 261400, Note_on_c, 9, 42, 0
1, 261446, Note_on_c, 12, 48, 0
1, 261450, Note_on_c, 12, 55, 0
1, 261468, Note_on_c, 12, 64, 0
1, 261472, Note_on_c, 12, 60, 0
1, 261499, Note_on_c, 6, 48, 0
1, 261499, Note_on_c, 10, 48, 0
1, 261527, Note_on_c, 1, 36, 0
1, 261600, Note_on_c, 1, 36, 119
1, 261600, Note_on_c, 6, 48, 46
1, 261600, Note_on_c, 6, 55, 102
1, 261600, Note_on_c, 9, 40, 118
1, 261600, Note_on_c, 9, 42, 76
1, 261600, Note_on_c, 9, 57, 76
1, 261600, Note_on_c, 12, 48, 110
1, 261640, Note_on_c, 9, 40, 0
1, 261640, Note_on_c, 9, 42, 0
1, 261640, Note_on_c, 9, 57, 0
1, 261681, Note_on_c, 12, 48, 0
1, 261836, Note_on_c, 6, 48, 0
1, 261836, Note_on_c, 6, 55, 0
1, 261840, Note_on_c, 6, 48, 87
1, 261840, Note_on_c, 6, 55, 102
1, 261840, Note_on_c, 9, 42, 76
1, 261840, Note_on_c, 12, 48, 127
1, 261840, Note_on_c, 12, 55, 94
1, 261840, Note_on_c, 12, 60, 124
1, 261840, Note_on_c, 12, 64, 124
1, 261880, Note_on_c, 9, 42, 0
1, 261960, Note_on_c, 9, 40, 76
1, 262000, Note_on_c, 9, 40, 0
1, 262025, Note_on_c, 1, 36, 0
1, 262076, Note_on_c, 6, 48, 0
1, 262076, Note_on_c, 6, 55, 0
1, 262080, Note_on_c, 1, 36, 119
1, 262080, Note_on_c, 6, 48, 114
1, 262080, Note_on_c, 6, 55, 114
1, 262080, Note_on_c, 9, 35, 118
1, 262080, Note_on_c, 9, 42, 76
1, 262120, Note_on_c, 9, 35, 0
1, 262120, Note_on_c, 9, 42, 0
1, 262164, Note_on_c, 1, 36, 0
1, 262170, Note_on_c, 12, 55, 0
1, 262188, Note_on_c, 12, 64, 0
1, 262192, Note_on_c, 12, 60, 0
1, 262200, Note_on_c, 9, 40, 76
1, 262240, Note_on_c, 9, 40, 0
1, 262316, Note_on_c, 6, 48, 0
1, 262316, Note_on_c, 6, 55, 0
1, 262320, Note_on_c, 1, 36, 124
1, 262320, Note_on_c, 6, 48, 119
1, 262320, Note_on_c, 6, 55, 119
1, 262320, Note_on_c, 9, 35, 118
1, 262320, Note_on_c, 9, 42, 76
1, 262320, Note_on_c, 12, 55, 110
1, 262320, Note_on_c, 12, 60, 114
1, 262320, Note_on_c, 12, 64, 114
1, 262336, Note_on_c, 12, 48, 0
1, 262360, Note_on_c, 9, 35, 0
1, 262360, Note_on_c, 9, 42, 0
1, 262526, Note_on_c, 12, 55, 0
1, 262556, Note_on_c, 6, 48, 0
1, 262556, Note_on_c, 6, 55, 0
1, 262560, Note_on_c, 6, 48, 110
1, 262560, Note_on_c, 6, 55, 124
1, 262560, Note_on_c, 9, 40, 118
1, 262560, Note_on_c, 9, 42, 76
1, 262560, Note_on_c, 12, 48, 127
1, 262578, Note_on_c, 12, 60, 0
1, 262600, Note_on_c, 9, 40, 0
1, 262600, Note_on_c, 9, 42, 0
1, 262610, Note_on_c, 12, 64, 0
1, 262688, Note_on_c, 1, 36, 0
1, 262796, Note_on_c, 6, 48, 0
1, 262796, Note_on_c, 6, 55, 0
1, 262800, Note_on_c, 1, 36, 124
1, 262800, Note_on_c, 6, 48, 127
1, 262800, Note_on_c, 6, 55, 127
1, 262800, Note_on_c, 9, 42, 76
1, 262800, Note_on_c, 12, 60, 91
1, 262800, Note_on_c, 12, 67, 58
1, 262814, Note_on_c, 12, 48, 0
1, 262840, Note_on_c, 9, 42, 0
1, 262847, Note_on_c, 12, 67, 0
1, 262911, Note_on_c, 12, 60, 0
1, 262926, Note_on_c, 1, 36, 0
1, 263036, Note_on_c, 6, 48, 0
1, 263036, Note_on_c, 6, 55, 0
1, 263040, Note_on_c, 1, 36, 127
1, 263040, Note_on_c, 6, 48, 127
1, 263040, Note_on_c, 9, 35, 127
1, 263040, Note_on_c, 9, 57, 76
1, 263040, Note_on_c, 12, 48, 124
1, 263040, Note_on_c, 12, 55, 94
1, 263040, Note_on_c, 12, 60, 124
1, 263040, Note_on_c, 12, 64, 124
1, 263080, Note_on_c, 9, 57, 0
1, 263124, Note_on_c, 9, 35, 0
1, 263160, Note_on_c, 9, 40, 71
1, 263220, Note_on_c, 9, 40, 0
1, 263276, Note_on_c, 1, 36, 0
1, 263280, Note_on_c, 1, 36, 127
1, 263280, Note_on_c, 9, 40, 91
1, 263324, Note_on_c, 9, 40, 0
1, 263366, Note_on_c, 12, 48, 0
1, 263370, Note_on_c, 12, 55, 0
1, 263388, Note_on_c, 12, 64, 0
1, 263392, Note_on_c, 12, 60, 0
1, 263400, Note_on_c, 9, 40, 110
1, 263419, Note_on_c, 6, 48, 0
1, 263468, Note_on_c, 9, 40, 0
1, 263516, Note_on_c, 1, 36, 0
1, 263520, Note_on_c, 1, 33, 127
1, 263520, Note_on_c, 6, 48, 46
1, 263520, Note_on_c, 6, 55, 102
1, 263520, Note_on_c, 9, 40, 127
1, 263520, Note_on_c, 12, 48, 110
1, 263601, Note_on_c, 12, 48, 0
1, 263611, Note_on_c, 9, 40, 0
1, 263640, Note_on_c, 9, 40, 87
1, 263709, Note_on_c, 9, 40, 0
1, 263756, Note_on_c, 1, 33, 0
1, 263756, Note_on_c, 6, 48, 0
1, 263756, Note_on_c, 6, 55, 0
1, 263760, Note_on_c, 1, 33, 127
1, 263760, Note_on_c, 6, 48, 87
1, 263760, Note_on_c, 6, 55, 102
1, 263760, Note_on_c, 9, 40, 75
1, 263760, Note_on_c, 12, 48, 127
1, 263760, Note_on_c, 12, 55, 94
1, 263760, Note_on_c, 12, 60, 124
1, 263760, Note_on_c, 12, 64, 124
1, 263822, Note_on_c, 9, 40, 0
1, 263880, Note_on_c, 9, 40, 91
1, 263963, Note_on_c, 9, 40, 0
1, 263996, Note_on_c, 1, 33, 0
1, 263996, Note_on_c, 6, 48, 0
1, 263996, Note_on_c, 6, 55, 0
1, 264000, Note_on_c, 1, 31, 127
1, 264000, Note_on_c, 6, 48, 114
1, 264000, Note_on_c, 6, 55, 114
1, 264000, Note_on_c, 9, 45, 106
1, 264090, Note_on_c, 12, 55, 0
1, 264104, Note_on_c, 9, 45, 0
1, 264108, Note_on_c, 12, 64, 0
1, 264112, Note_on_c, 12, 60, 0
1, 264120, Note_on_c, 9, 40, 71
1, 264203, Note_on_c, 9, 40, 0
1, 264236, Note_on_c, 1, 31, 0
1, 264236, Note_on_c, 6, 48, 0
1, 264236, Note_on_c, 6, 55, 0
1, 264240, Note_on_c, 1, 31, 127
1, 264240, Note_on_c, 6, 48, 119
1, 264240, Note_on_c, 6, 55, 119
1, 264240, Note_on_c, 9, 45, 60
1, 264240, Note_on_c, 12, 55, 110
1, 264240, Note_on_c, 12, 60, 114
1, 264240, Note_on_c, 12, 64, 114
1, 264256, Note_on_c, 12, 48, 0
1, 264273, Note_on_c, 9, 45, 0
1, 264360, Note_on_c, 9, 40, 78
1, 264446, Note_on_c, 12, 55, 0
1, 264454, Note_on_c, 9, 40, 0
1, 264476, Note_on_c, 1, 31, 0
1, 264476, Note_on_c, 6, 48, 0
1, 264476, Note_on_c, 6, 55, 0
1, 264480, Note_on_c, 1, 29, 127
1, 264480, Note_on_c, 6, 48, 110
1, 264480, Note_on_c, 6, 55, 124
1, 264480, Note_on_c, 9, 41, 119
1, 264480, Note_on_c, 12, 48, 127
1, 264498, Note_on_c, 12, 60, 0
1, 264530, Note_on_c, 12, 64, 0
1, 264577, Note_on_c, 9, 41, 0
1, 264600, Note_on_c, 9, 40, 94
1, 264703, Note_on_c, 9, 40, 0
1, 264716, Note_on_c, 1, 29, 0
1, 264716, Note_on_c, 6, 48, 0
1, 264716, Note_on_c, 6, 55, 0
1, 264720, Note_on_c, 1, 31, 127
1, 264720, Note_on_c, 6, 48, 127
1, 264720, Note_on_c, 6, 55, 127
1, 264720, Note_on_c, 9, 41, 72
1, 264720, Note_on_c, 12, 60, 91
1, 264720, Note_on_c, 12, 67, 58
1, 264734, Note_on_c, 12, 48, 0
1, 264767, Note_on_c, 12, 67, 0
1, 264778, Note_on_c, 9, 41, 0
1, 264831, Note_on_c, 12, 60, 0
1, 264840, Note_on_c, 9, 43, 65
1, 264893, Note_on_c, 9, 43, 0
1, 264956, Note_on_c, 1, 31, 0
1, 264956, Note_on_c, 4, 60, 0
1, 264956, Note_on_c, 4, 72, 0
1, 264956, Note_on_c, 5, 60, 0
1, 264956, Note_on_c, 5, 72, 0
1, 264956, Note_on_c, 6, 48, 0
1, 264956, Note_on_c, 6, 55, 0
1, 264960, Note_on_c, 7, 70, 127
1, 264960, Note_on_c, 7, 82, 127
1, 264960, Note_on_c, 9, 35, 118
1, 264960, Note_on_c, 9, 49, 91
1, 264975, Note_on_c, 6, 53, 127
1, 264976, Note_on_c, 6, 46, 127
1, 264989, Note_on_c, 1, 34, 127
1, 265000, Note_on_c, 9, 35, 0
1, 265000, Note_on_c, 9, 49, 0
1, 265000, Note_on_c, 12, 58, 127
1, 265195, Note_on_c, 7, 70, 0
1, 265200, Note_on_c, 7, 72, 124
1, 265200, Note_on_c, 7, 84, 127
1, 265200, Note_on_c, 9, 35, 118
1, 265200, Note_on_c, 9, 57, 91
1, 265211, Note_on_c, 6, 53, 0
1, 265220, Note_on_c, 1, 34, 0
1, 265222, Note_on_c, 7, 82, 0
1, 265224, Note_on_c, 6, 48, 124
1, 265227, Note_on_c, 6, 46, 0
1, 265232, Note_on_c, 1, 36, 124
1, 265236, Note_on_c, 12, 60, 127
1, 265239, Note_on_c, 6, 55, 124
1, 265239, Note_on_c, 12, 58, 0
1, 265240, Note_on_c, 9, 35, 0
1, 265240, Note_on_c, 9, 57, 0
1, 265448, Note_on_c, 7, 84, 0
1, 265509, Note_on_c, 6, 55, 0
1, 265520, Note_on_c, 7, 72, 0
1, 265541, Note_on_c, 1, 36, 0
1, 265544, Note_on_c, 12, 60, 0
1, 265560, Note_on_c, 6, 48, 0
1, 269280, Control_c, 1, 123, 0
1, 269280, Control_c, 2, 123, 0
1, 269281, Control_c, 3, 123, 0
1, 269281, Control_c, 4, 123, 0
1, 269282, Control_c, 5, 123, 0
1, 269282, Control_c, 6, 123, 0
1, 269283, Control_c, 7, 123, 0
1, 269283, Control_c, 8, 123, 0
1, 269284, Control_c, 9, 123, 0
1, 269284, Control_c, 10, 123, 0
1, 269285, Control_c, 11, 123, 0
1, 269285, Control_c, 12, 123, 0
1, 269286, Control_c, 13, 123, 0
1, 269286, Control_c, 14, 123, 0
1, 269640, Control_c, 1, 120, 0
1, 269640, Control_c, 2, 120, 0
1, 269641, Control_c, 3, 120, 0
1, 269641, Control_c, 4, 120, 0
1, 269642, Control_c, 5, 120, 0
1, 269642, Control_c, 6, 120, 0
1, 269643, Control_c, 7, 120, 0
1, 269643, Control_c, 8, 120, 0
1, 269644, Control_c, 9, 120, 0
1, 269644, Control_c, 10, 120, 0
1, 269645, Control_c, 11, 120, 0
1, 269645, Control_c, 12, 120, 0
1, 269646, Control_c, 13, 120, 0
1, 269646, Control_c, 14, 120, 0
1, 269646, End_track
0, 0, End_of_file
