0, 0, Header, 1, 13, 480
1, 0, Start_track
1, 0, SMPTE_offset, 96, 0, 3, 0, 0
1, 0, MIDI_port, 0
1, 0, System_exclusive, 5, 126, 127, 9, 1, 247
1, 0, MIDI_port, 0
1, 0, Time_signature, 4, 2, 24, 8
1, 0, Key_signature, 1, "major"
1, 0, Tempo, 705882
1, 0, End_track
2, 0, Start_track
2, 0, MIDI_port, 0
2, 0, Title_t, "tk1"
2, 482, Program_c, 0, 0
2, 483, Control_c, 0, 7, 100
2, 483, Control_c, 0, 10, 64
2, 495, Control_c, 0, 10, 56
2, 495, Control_c, 0, 11, 127
2, 500, Control_c, 0, 91, 92
2, 500, Control_c, 0, 93, 40
2, 1920, Note_on_c, 0, 38, 85
2, 1925, Control_c, 0, 1, 0
2, 1925, Pitch_bend_c, 0, 16383
2, 2115, Note_on_c, 0, 38, 0
2, 2155, Note_on_c, 0, 60, 105
2, 2155, Note_on_c, 0, 64, 105
2, 2155, Note_on_c, 0, 71, 97
2, 2155, Note_on_c, 0, 66, 120
2, 2165, Note_on_c, 0, 50, 83
2, 2195, Note_on_c, 0, 64, 0
2, 2200, Note_on_c, 0, 66, 0
2, 2200, Note_on_c, 0, 60, 0
2, 2215, Note_on_c, 0, 71, 0
2, 2405, Note_on_c, 0, 50, 0
2, 2405, Note_on_c, 0, 38, 83
2, 2525, Note_on_c, 0, 69, 91
2, 2525, Note_on_c, 0, 66, 95
2, 2525, Note_on_c, 0, 60, 94
2, 2525, Note_on_c, 0, 64, 95
2, 2530, Note_on_c, 0, 38, 0
2, 2565, Note_on_c, 0, 64, 0
2, 2565, Note_on_c, 0, 66, 0
2, 2570, Note_on_c, 0, 60, 0
2, 2590, Note_on_c, 0, 69, 0
2, 2635, Note_on_c, 0, 50, 82
2, 2835, Note_on_c, 0, 50, 0
2, 2870, Note_on_c, 0, 64, 91
2, 2875, Note_on_c, 0, 54, 99
2, 2885, Note_on_c, 0, 57, 84
2, 2885, Note_on_c, 0, 38, 72
2, 2890, Note_on_c, 0, 60, 89
2, 2910, Note_on_c, 0, 60, 0
2, 2975, Note_on_c, 0, 38, 0
2, 2990, Note_on_c, 0, 60, 57
2, 3055, Note_on_c, 0, 57, 0
2, 3070, Note_on_c, 0, 54, 0
2, 3100, Note_on_c, 0, 64, 0
2, 3110, Note_on_c, 0, 60, 0
2, 3115, Note_on_c, 0, 50, 86
2, 3210, Note_on_c, 0, 50, 0
2, 3235, Note_on_c, 0, 66, 94
2, 3240, Note_on_c, 0, 54, 86
2, 3240, Note_on_c, 0, 57, 99
2, 3320, Note_on_c, 0, 57, 0
2, 3325, Note_on_c, 0, 54, 0
2, 3350, Note_on_c, 0, 38, 87
2, 3360, Note_on_c, 0, 66, 0
2, 3470, Note_on_c, 0, 54, 80
2, 3470, Note_on_c, 0, 60, 89
2, 3480, Note_on_c, 0, 38, 0
2, 3535, Note_on_c, 0, 60, 0
2, 3590, Note_on_c, 0, 57, 97
2, 3590, Note_on_c, 0, 62, 103
2, 3590, Note_on_c, 0, 50, 85
2, 3625, Note_on_c, 0, 54, 0
2, 3665, Note_on_c, 0, 57, 0
2, 3700, Note_on_c, 0, 62, 0
2, 3770, Note_on_c, 0, 50, 0
2, 3830, Note_on_c, 0, 38, 88
2, 4060, Note_on_c, 0, 38, 0
2, 4070, Note_on_c, 0, 64, 105
2, 4070, Note_on_c, 0, 60, 88
2, 4070, Note_on_c, 0, 66, 112
2, 4070, Note_on_c, 0, 71, 96
2, 4070, Note_on_c, 0, 50, 93
2, 4110, Note_on_c, 0, 66, 0
2, 4110, Note_on_c, 0, 64, 0
2, 4110, Note_on_c, 0, 60, 0
2, 4130, Note_on_c, 0, 71, 0
2, 4265, Note_on_c, 0, 50, 0
2, 4310, Note_on_c, 0, 38, 83
2, 4430, Note_on_c, 0, 66, 82
2, 4430, Note_on_c, 0, 69, 91
2, 4430, Note_on_c, 0, 60, 83
2, 4435, Note_on_c, 0, 64, 86
2, 4470, Note_on_c, 0, 64, 0
2, 4480, Note_on_c, 0, 66, 0
2, 4490, Note_on_c, 0, 60, 0
2, 4490, Note_on_c, 0, 69, 0
2, 4530, Note_on_c, 0, 38, 0
2, 4550, Note_on_c, 0, 50, 91
2, 4645, Note_on_c, 0, 50, 0
2, 4790, Note_on_c, 0, 64, 105
2, 4790, Note_on_c, 0, 38, 87
2, 4790, Note_on_c, 0, 54, 87
2, 4790, Note_on_c, 0, 57, 101
2, 4790, Note_on_c, 0, 60, 96
2, 4925, Note_on_c, 0, 60, 0
2, 4935, Note_on_c, 0, 64, 0
2, 4950, Note_on_c, 0, 57, 0
2, 4990, Note_on_c, 0, 54, 0
2, 4990, Note_on_c, 0, 38, 0
2, 5030, Note_on_c, 0, 50, 85
2, 5135, Note_on_c, 0, 50, 0
2, 5150, Note_on_c, 0, 66, 92
2, 5155, Note_on_c, 0, 54, 80
2, 5155, Note_on_c, 0, 57, 96
2, 5235, Note_on_c, 0, 57, 0
2, 5245, Note_on_c, 0, 38, 83
2, 5285, Note_on_c, 0, 54, 0
2, 5295, Note_on_c, 0, 66, 0
2, 5375, Note_on_c, 0, 54, 80
2, 5390, Note_on_c, 0, 60, 89
2, 5465, Note_on_c, 0, 38, 0
2, 5470, Note_on_c, 0, 60, 0
2, 5490, Note_on_c, 0, 50, 87
2, 5495, Note_on_c, 0, 62, 103
2, 5515, Note_on_c, 0, 54, 0
2, 5575, Note_on_c, 0, 62, 0
2, 5705, Note_on_c, 0, 50, 0
2, 5730, Note_on_c, 0, 43, 83
2, 5730, Note_on_c, 0, 58, 80
2, 5735, Note_on_c, 0, 59, 85
2, 5735, Note_on_c, 0, 57, 37
2, 5760, Note_on_c, 0, 67, 107
2, 5770, Note_on_c, 0, 57, 0
2, 5785, Note_on_c, 0, 59, 0
2, 5785, Note_on_c, 0, 58, 0
2, 5830, Note_on_c, 0, 67, 0
2, 5955, Note_on_c, 0, 43, 0
2, 6000, Note_on_c, 0, 50, 88
2, 6000, Note_on_c, 0, 59, 96
2, 6000, Note_on_c, 0, 67, 97
2, 6000, Note_on_c, 0, 62, 73
2, 6030, Note_on_c, 0, 62, 0
2, 6030, Note_on_c, 0, 59, 0
2, 6075, Note_on_c, 0, 67, 0
2, 6170, Note_on_c, 0, 50, 0
2, 6230, Note_on_c, 0, 43, 82
2, 6355, Note_on_c, 0, 67, 95
2, 6360, Note_on_c, 0, 59, 107
2, 6360, Note_on_c, 0, 62, 108
2, 6365, Note_on_c, 0, 64, 95
2, 6385, Note_on_c, 0, 64, 0
2, 6390, Note_on_c, 0, 62, 0
2, 6400, Note_on_c, 0, 59, 0
2, 6430, Note_on_c, 0, 67, 0
2, 6440, Note_on_c, 0, 43, 0
2, 6475, Note_on_c, 0, 50, 87
2, 6605, Note_on_c, 0, 59, 80
2, 6610, Note_on_c, 0, 50, 0
2, 6650, Note_on_c, 0, 59, 0
2, 6710, Note_on_c, 0, 43, 81
2, 6715, Note_on_c, 0, 67, 94
2, 6715, Note_on_c, 0, 64, 95
2, 6715, Note_on_c, 0, 59, 89
2, 6830, Note_on_c, 0, 64, 0
2, 6830, Note_on_c, 0, 67, 0
2, 6835, Note_on_c, 0, 59, 0
2, 6955, Note_on_c, 0, 43, 0
2, 6955, Note_on_c, 0, 50, 89
2, 7075, Note_on_c, 0, 67, 91
2, 7075, Note_on_c, 0, 59, 90
2, 7075, Note_on_c, 0, 62, 86
2, 7075, Note_on_c, 0, 64, 91
2, 7110, Note_on_c, 0, 64, 0
2, 7110, Note_on_c, 0, 62, 0
2, 7120, Note_on_c, 0, 59, 0
2, 7135, Note_on_c, 0, 67, 0
2, 7145, Note_on_c, 0, 50, 0
2, 7190, Note_on_c, 0, 43, 83
2, 7325, Note_on_c, 0, 59, 80
2, 7375, Note_on_c, 0, 59, 0
2, 7425, Note_on_c, 0, 43, 0
2, 7430, Note_on_c, 0, 67, 87
2, 7430, Note_on_c, 0, 50, 92
2, 7430, Note_on_c, 0, 59, 90
2, 7430, Note_on_c, 0, 62, 93
2, 7430, Note_on_c, 0, 64, 98
2, 7480, Note_on_c, 0, 62, 0
2, 7615, Note_on_c, 0, 59, 0
2, 7640, Note_on_c, 0, 50, 0
2, 7650, Note_on_c, 0, 64, 0
2, 7660, Note_on_c, 0, 67, 0
2, 7670, Note_on_c, 0, 43, 83
2, 7795, Note_on_c, 0, 67, 95
2, 7795, Note_on_c, 0, 59, 90
2, 7795, Note_on_c, 0, 62, 83
2, 7835, Note_on_c, 0, 62, 0
2, 7835, Note_on_c, 0, 59, 0
2, 7850, Note_on_c, 0, 67, 0
2, 7910, Note_on_c, 0, 50, 92
2, 7915, Note_on_c, 0, 43, 0
2, 8040, Note_on_c, 0, 59, 82
2, 8080, Note_on_c, 0, 59, 0
2, 8110, Note_on_c, 0, 50, 0
2, 8150, Note_on_c, 0, 43, 81
2, 8155, Note_on_c, 0, 67, 93
2, 8155, Note_on_c, 0, 62, 94
2, 8155, Note_on_c, 0, 59, 115
2, 8345, Note_on_c, 0, 59, 0
2, 8380, Note_on_c, 0, 62, 0
2, 8385, Note_on_c, 0, 43, 0
2, 8390, Note_on_c, 0, 67, 0
2, 8390, Note_on_c, 0, 50, 96
2, 8520, Note_on_c, 0, 67, 83
2, 8520, Note_on_c, 0, 62, 84
2, 8520, Note_on_c, 0, 59, 89
2, 8555, Note_on_c, 0, 59, 0
2, 8555, Note_on_c, 0, 62, 0
2, 8575, Note_on_c, 0, 67, 0
2, 8600, Note_on_c, 0, 50, 0
2, 8630, Note_on_c, 0, 43, 81
2, 8765, Note_on_c, 0, 55, 61
2, 8850, Note_on_c, 0, 43, 0
2, 8870, Note_on_c, 0, 67, 96
2, 8870, Note_on_c, 0, 50, 85
2, 8870, Note_on_c, 0, 62, 103
2, 8870, Note_on_c, 0, 59, 101
2, 8950, Note_on_c, 0, 55, 0
2, 9050, Note_on_c, 0, 59, 0
2, 9055, Note_on_c, 0, 62, 0
2, 9070, Note_on_c, 0, 67, 0
2, 9095, Note_on_c, 0, 43, 85
2, 9095, Note_on_c, 0, 67, 95
2, 9105, Note_on_c, 0, 59, 108
2, 9105, Note_on_c, 0, 62, 115
2, 9120, Note_on_c, 0, 50, 0
2, 9275, Note_on_c, 0, 59, 0
2, 9275, Note_on_c, 0, 62, 0
2, 9290, Note_on_c, 0, 67, 0
2, 9330, Note_on_c, 0, 43, 0
2, 9330, Note_on_c, 0, 67, 96
2, 9335, Note_on_c, 0, 62, 103
2, 9335, Note_on_c, 0, 59, 99
2, 9335, Note_on_c, 0, 50, 103
2, 9455, Note_on_c, 0, 59, 0
2, 9470, Note_on_c, 0, 62, 0
2, 9475, Note_on_c, 0, 50, 0
2, 9480, Note_on_c, 0, 67, 0
2, 9600, Note_on_c, 0, 38, 90
2, 9600, Note_on_c, 0, 50, 108
2, 9740, Note_on_c, 0, 50, 0
2, 9835, Note_on_c, 0, 66, 90
2, 9835, Note_on_c, 0, 60, 108
2, 9835, Note_on_c, 0, 57, 105
2, 9835, Note_on_c, 0, 64, 112
2, 9930, Note_on_c, 0, 60, 0
2, 9955, Note_on_c, 0, 64, 0
2, 9965, Note_on_c, 0, 57, 0
2, 9975, Note_on_c, 0, 66, 0
2, 10075, Note_on_c, 0, 50, 94
2, 10095, Note_on_c, 0, 50, 0
2, 10190, Note_on_c, 0, 66, 89
2, 10195, Note_on_c, 0, 60, 105
2, 10195, Note_on_c, 0, 57, 101
2, 10195, Note_on_c, 0, 64, 109
2, 10315, Control_c, 0, 64, 127
2, 10390, Note_on_c, 0, 57, 0
2, 10395, Note_on_c, 0, 60, 0
2, 10405, Note_on_c, 0, 64, 0
2, 10410, Control_c, 0, 64, 0
2, 10415, Note_on_c, 0, 66, 0
2, 10445, Note_on_c, 0, 50, 84
2, 10560, Note_on_c, 0, 57, 105
2, 10560, Note_on_c, 0, 60, 107
2, 10565, Note_on_c, 0, 64, 108
2, 10610, Note_on_c, 0, 50, 0
2, 10650, Note_on_c, 0, 64, 0
2, 10670, Note_on_c, 0, 38, 0
2, 10675, Note_on_c, 0, 66, 85
2, 10675, Note_on_c, 0, 50, 82
2, 10680, Note_on_c, 0, 62, 87
2, 10710, Note_on_c, 0, 60, 0
2, 10725, Note_on_c, 0, 62, 0
2, 10750, Note_on_c, 0, 57, 0
2, 10770, Note_on_c, 0, 66, 0
2, 10805, Note_on_c, 0, 38, 54
2, 10820, Note_on_c, 0, 50, 0
2, 10855, Note_on_c, 0, 38, 0
2, 10915, Note_on_c, 0, 60, 96
2, 10915, Note_on_c, 0, 62, 120
2, 10915, Note_on_c, 0, 38, 80
2, 10915, Note_on_c, 0, 50, 87
2, 10915, Note_on_c, 0, 57, 101
2, 10920, Note_on_c, 0, 66, 95
2, 10960, Note_on_c, 0, 60, 0
2, 10990, Note_on_c, 0, 57, 0
2, 11075, Note_on_c, 0, 50, 0
2, 11130, Note_on_c, 0, 62, 0
2, 11150, Note_on_c, 0, 66, 0
2, 11155, Note_on_c, 0, 50, 85
2, 11275, Note_on_c, 0, 57, 89
2, 11275, Note_on_c, 0, 64, 103
2, 11285, Note_on_c, 0, 60, 99
2, 11325, Note_on_c, 0, 50, 0
2, 11345, Note_on_c, 0, 38, 0
2, 11385, Note_on_c, 0, 64, 0
2, 11395, Note_on_c, 0, 50, 87
2, 11395, Note_on_c, 0, 66, 90
2, 11400, Note_on_c, 0, 62, 91
2, 11410, Note_on_c, 0, 60, 0
2, 11425, Note_on_c, 0, 62, 0
2, 11435, Note_on_c, 0, 57, 0
2, 11460, Note_on_c, 0, 66, 0
2, 11480, Note_on_c, 0, 50, 0
2, 11515, Note_on_c, 0, 38, 87
2, 11630, Note_on_c, 0, 50, 89
2, 11750, Note_on_c, 0, 64, 108
2, 11750, Note_on_c, 0, 60, 108
2, 11750, Note_on_c, 0, 71, 108
2, 11750, Note_on_c, 0, 66, 108
2, 11770, Note_on_c, 0, 50, 0
2, 11845, Note_on_c, 0, 60, 0
2, 11855, Note_on_c, 0, 64, 0
2, 11870, Note_on_c, 0, 50, 95
2, 11880, Note_on_c, 0, 66, 0
2, 11880, Note_on_c, 0, 71, 0
2, 11995, Note_on_c, 0, 60, 82
2, 12050, Note_on_c, 0, 60, 0
2, 12060, Note_on_c, 0, 50, 0
2, 12110, Note_on_c, 0, 50, 84
2, 12110, Note_on_c, 0, 69, 105
2, 12110, Note_on_c, 0, 60, 96
2, 12115, Note_on_c, 0, 66, 97
2, 12115, Note_on_c, 0, 64, 101
2, 12210, Note_on_c, 0, 38, 0
2, 12230, Note_on_c, 0, 60, 0
2, 12230, Control_c, 0, 64, 127
2, 12240, Control_c, 0, 64, 0
2, 12265, Note_on_c, 0, 64, 0
2, 12290, Note_on_c, 0, 69, 0
2, 12295, Note_on_c, 0, 66, 0
2, 12350, Note_on_c, 0, 71, 108
2, 12355, Note_on_c, 0, 38, 87
2, 12355, Note_on_c, 0, 66, 96
2, 12355, Note_on_c, 0, 60, 103
2, 12355, Note_on_c, 0, 64, 112
2, 12475, Control_c, 0, 64, 127
2, 12490, Note_on_c, 0, 50, 0
2, 12495, Note_on_c, 0, 66, 0
2, 12495, Note_on_c, 0, 64, 0
2, 12500, Note_on_c, 0, 71, 0
2, 12515, Note_on_c, 0, 60, 0
2, 12565, Control_c, 0, 64, 0
2, 12590, Note_on_c, 0, 50, 96
2, 12625, Note_on_c, 0, 50, 0
2, 12730, Control_c, 0, 64, 127
2, 12745, Control_c, 0, 64, 0
2, 12835, Note_on_c, 0, 64, 107
2, 12835, Note_on_c, 0, 54, 86
2, 12835, Note_on_c, 0, 57, 115
2, 12845, Note_on_c, 0, 50, 101
2, 12845, Note_on_c, 0, 60, 99
2, 12960, Control_c, 0, 64, 127
2, 12970, Note_on_c, 0, 60, 0
2, 12970, Note_on_c, 0, 54, 0
2, 12985, Note_on_c, 0, 64, 0
2, 12990, Note_on_c, 0, 57, 0
2, 13020, Note_on_c, 0, 50, 0
2, 13070, Note_on_c, 0, 50, 88
2, 13070, Control_c, 0, 64, 0
2, 13075, Note_on_c, 0, 60, 107
2, 13105, Note_on_c, 0, 60, 0
2, 13190, Note_on_c, 0, 66, 103
2, 13200, Note_on_c, 0, 57, 109
2, 13225, Note_on_c, 0, 50, 0
2, 13230, Note_on_c, 0, 38, 0
2, 13300, Note_on_c, 0, 66, 0
2, 13310, Note_on_c, 0, 50, 93
2, 13310, Note_on_c, 0, 62, 96
2, 13330, Note_on_c, 0, 57, 0
2, 13335, Note_on_c, 0, 62, 0
2, 13425, Note_on_c, 0, 50, 0
2, 13430, Note_on_c, 0, 67, 96
2, 13430, Note_on_c, 0, 58, 99
2, 13435, Note_on_c, 0, 59, 120
2, 13435, Note_on_c, 0, 57, 84
2, 13450, Note_on_c, 0, 43, 96
2, 13465, Note_on_c, 0, 57, 0
2, 13480, Note_on_c, 0, 58, 0
2, 13530, Note_on_c, 0, 67, 0
2, 13530, Note_on_c, 0, 59, 0
2, 13570, Note_on_c, 0, 43, 0
2, 13675, Note_on_c, 0, 58, 117
2, 13675, Note_on_c, 0, 57, 117
2, 13680, Note_on_c, 0, 59, 118
2, 13680, Note_on_c, 0, 67, 118
2, 13680, Note_on_c, 0, 43, 118
2, 13700, Note_on_c, 0, 57, 0
2, 13705, Note_on_c, 0, 58, 0
2, 13785, Note_on_c, 0, 43, 0
2, 13910, Note_on_c, 0, 50, 94
2, 13930, Note_on_c, 0, 59, 0
2, 13940, Note_on_c, 0, 67, 0
2, 14030, Note_on_c, 0, 50, 0
2, 14030, Note_on_c, 0, 67, 88
2, 14030, Note_on_c, 0, 52, 101
2, 14035, Note_on_c, 0, 62, 83
2, 14035, Note_on_c, 0, 59, 88
2, 14185, Note_on_c, 0, 59, 0
2, 14250, Note_on_c, 0, 52, 0
2, 14255, Note_on_c, 0, 59, 81
2, 14260, Note_on_c, 0, 50, 93
2, 14310, Note_on_c, 0, 67, 0
2, 14315, Note_on_c, 0, 59, 0
2, 14335, Note_on_c, 0, 62, 0
2, 14390, Note_on_c, 0, 50, 0
2, 14390, Note_on_c, 0, 43, 101
2, 14510, Note_on_c, 0, 67, 107
2, 14510, Note_on_c, 0, 59, 112
2, 14510, Note_on_c, 0, 62, 122
2, 14520, Note_on_c, 0, 43, 0
2, 14630, Note_on_c, 0, 43, 94
2, 14650, Note_on_c, 0, 67, 0
2, 14650, Note_on_c, 0, 62, 0
2, 14650, Note_on_c, 0, 59, 0
2, 14750, Note_on_c, 0, 67, 109
2, 14750, Note_on_c, 0, 59, 98
2, 14750, Note_on_c, 0, 62, 103
2, 14865, Note_on_c, 0, 43, 0
2, 14875, Note_on_c, 0, 50, 105
2, 14985, Note_on_c, 0, 50, 0
2, 14990, Note_on_c, 0, 52, 115
2, 15065, Note_on_c, 0, 59, 0
2, 15120, Note_on_c, 0, 62, 0
2, 15140, Note_on_c, 0, 67, 0
2, 15235, Note_on_c, 0, 52, 0
2, 15250, Note_on_c, 0, 62, 79
2, 15250, Note_on_c, 0, 50, 99
2, 15250, Note_on_c, 0, 59, 83
2, 15270, Note_on_c, 0, 59, 0
2, 15270, Note_on_c, 0, 62, 0
2, 15360, Note_on_c, 0, 50, 0
2, 15370, Note_on_c, 0, 43, 94
2, 15480, Note_on_c, 0, 58, 120
2, 15480, Note_on_c, 0, 57, 105
2, 15480, Note_on_c, 0, 67, 109
2, 15490, Note_on_c, 0, 59, 90
2, 15490, Note_on_c, 0, 63, 86
2, 15495, Note_on_c, 0, 63, 0
2, 15500, Note_on_c, 0, 57, 0
2, 15510, Note_on_c, 0, 58, 0
2, 15530, Note_on_c, 0, 43, 0
2, 15590, Note_on_c, 0, 67, 0
2, 15610, Note_on_c, 0, 43, 105
2, 15650, Note_on_c, 0, 59, 0
2, 15710, Note_on_c, 0, 67, 94
2, 15710, Note_on_c, 0, 59, 120
2, 15810, Note_on_c, 0, 43, 0
2, 15840, Note_on_c, 0, 50, 101
2, 15865, Note_on_c, 0, 59, 0
2, 15875, Note_on_c, 0, 67, 0
2, 15930, Note_on_c, 0, 50, 0
2, 15950, Note_on_c, 0, 52, 99
2, 16070, Note_on_c, 0, 59, 117
2, 16070, Note_on_c, 0, 64, 112
2, 16070, Note_on_c, 0, 67, 103
2, 16070, Note_on_c, 0, 62, 99
2, 16090, Note_on_c, 0, 62, 0
2, 16165, Note_on_c, 0, 52, 0
2, 16185, Note_on_c, 0, 50, 96
2, 16225, Note_on_c, 0, 59, 0
2, 16250, Note_on_c, 0, 67, 0
2, 16250, Note_on_c, 0, 64, 0
2, 16310, Note_on_c, 0, 50, 0
2, 16310, Note_on_c, 0, 43, 97
2, 16430, Note_on_c, 0, 43, 0
2, 16440, Note_on_c, 0, 59, 120
2, 16440, Note_on_c, 0, 62, 120
2, 16440, Note_on_c, 0, 67, 120
2, 16490, Note_on_c, 0, 62, 0
2, 16530, Note_on_c, 0, 59, 0
2, 16550, Note_on_c, 0, 67, 0
2, 16550, Note_on_c, 0, 43, 80
2, 16675, Note_on_c, 0, 43, 0
2, 16680, Note_on_c, 0, 67, 119
2, 16680, Note_on_c, 0, 63, 119
2, 16680, Note_on_c, 0, 59, 119
2, 16680, Note_on_c, 0, 64, 119
2, 16720, Note_on_c, 0, 63, 0
2, 16910, Note_on_c, 0, 35, 91
2, 16930, Note_on_c, 0, 64, 0
2, 16930, Note_on_c, 0, 59, 0
2, 16945, Note_on_c, 0, 67, 0
2, 17030, Note_on_c, 0, 35, 0
2, 17030, Note_on_c, 0, 36, 88
2, 17035, Note_on_c, 0, 59, 120
2, 17035, Note_on_c, 0, 62, 122
2, 17040, Note_on_c, 0, 67, 101
2, 17140, Note_on_c, 0, 37, 88
2, 17150, Note_on_c, 0, 36, 0
2, 17215, Note_on_c, 0, 59, 0
2, 17230, Note_on_c, 0, 62, 0
2, 17235, Note_on_c, 0, 67, 0
2, 17270, Note_on_c, 0, 37, 0
2, 17275, Note_on_c, 0, 38, 115
2, 17275, Note_on_c, 0, 50, 101
2, 17415, Note_on_c, 0, 38, 0
2, 17445, Note_on_c, 0, 50, 0
2, 17510, Note_on_c, 0, 60, 107
2, 17510, Note_on_c, 0, 71, 105
2, 17510, Note_on_c, 0, 66, 122
2, 17510, Note_on_c, 0, 64, 109
2, 17620, Note_on_c, 0, 64, 0
2, 17620, Note_on_c, 0, 71, 0
2, 17630, Note_on_c, 0, 66, 0
2, 17640, Note_on_c, 0, 60, 0
2, 17750, Note_on_c, 0, 69, 98
2, 17750, Note_on_c, 0, 66, 101
2, 17750, Note_on_c, 0, 64, 101
2, 17750, Note_on_c, 0, 60, 95
2, 17825, Note_on_c, 0, 66, 0
2, 17840, Note_on_c, 0, 64, 0
2, 17870, Note_on_c, 0, 66, 85
2, 17875, Note_on_c, 0, 64, 91
2, 17970, Note_on_c, 0, 64, 0
2, 17970, Note_on_c, 0, 60, 0
2, 17980, Note_on_c, 0, 66, 0
2, 17980, Note_on_c, 0, 69, 0
2, 18115, Note_on_c, 0, 50, 96
2, 18115, Note_on_c, 0, 62, 92
2, 18205, Note_on_c, 0, 50, 0
2, 18220, Note_on_c, 0, 62, 0
2, 18235, Note_on_c, 0, 66, 120
2, 18235, Note_on_c, 0, 64, 115
2, 18235, Note_on_c, 0, 71, 97
2, 18235, Note_on_c, 0, 60, 109
2, 18295, Note_on_c, 0, 66, 0
2, 18305, Note_on_c, 0, 64, 0
2, 18305, Note_on_c, 0, 60, 0
2, 18310, Note_on_c, 0, 71, 0
2, 18350, Note_on_c, 0, 71, 76
2, 18355, Note_on_c, 0, 64, 92
2, 18355, Note_on_c, 0, 66, 82
2, 18355, Note_on_c, 0, 60, 74
2, 18440, Note_on_c, 0, 60, 0
2, 18445, Note_on_c, 0, 66, 0
2, 18450, Note_on_c, 0, 71, 0
2, 18465, Note_on_c, 0, 64, 0
2, 18470, Note_on_c, 0, 50, 87
2, 18470, Note_on_c, 0, 62, 90
2, 18555, Note_on_c, 0, 62, 0
2, 18570, Note_on_c, 0, 50, 0
2, 18605, Note_on_c, 0, 60, 94
2, 18605, Note_on_c, 0, 64, 91
2, 18605, Note_on_c, 0, 66, 84
2, 18605, Note_on_c, 0, 69, 92
2, 18720, Note_on_c, 0, 66, 0
2, 18730, Note_on_c, 0, 69, 0
2, 18740, Note_on_c, 0, 64, 0
2, 18740, Note_on_c, 0, 60, 0
2, 18840, Note_on_c, 0, 66, 86
2, 18840, Note_on_c, 0, 69, 99
2, 18845, Note_on_c, 0, 60, 92
2, 18845, Note_on_c, 0, 64, 96
2, 18945, Note_on_c, 0, 64, 0
2, 18965, Note_on_c, 0, 60, 0
2, 18965, Note_on_c, 0, 66, 0
2, 18990, Note_on_c, 0, 69, 0
2, 19075, Note_on_c, 0, 69, 87
2, 19075, Note_on_c, 0, 66, 83
2, 19085, Note_on_c, 0, 64, 80
2, 19125, Note_on_c, 0, 64, 0
2, 19125, Note_on_c, 0, 66, 0
2, 19130, Note_on_c, 0, 69, 0
2, 19195, Note_on_c, 0, 50, 101
2, 19195, Note_on_c, 0, 62, 99
2, 19315, Note_on_c, 0, 69, 118
2, 19315, Note_on_c, 0, 64, 118
2, 19315, Note_on_c, 0, 60, 118
2, 19330, Note_on_c, 0, 50, 0
2, 19350, Note_on_c, 0, 62, 0
2, 19430, Note_on_c, 0, 66, 84
2, 19465, Note_on_c, 0, 64, 0
2, 19490, Note_on_c, 0, 69, 0
2, 19500, Note_on_c, 0, 66, 0
2, 19510, Note_on_c, 0, 60, 0
2, 19555, Note_on_c, 0, 62, 92
2, 19555, Note_on_c, 0, 50, 97
2, 19625, Note_on_c, 0, 50, 0
2, 19675, Note_on_c, 0, 60, 109
2, 19675, Note_on_c, 0, 64, 120
2, 19675, Note_on_c, 0, 69, 103
2, 19685, Note_on_c, 0, 62, 0
2, 19790, Note_on_c, 0, 66, 82
2, 19870, Note_on_c, 0, 64, 0
2, 19890, Note_on_c, 0, 69, 0
2, 19900, Note_on_c, 0, 60, 0
2, 19910, Note_on_c, 0, 66, 0
2, 20035, Note_on_c, 0, 60, 112
2, 20035, Note_on_c, 0, 64, 115
2, 20035, Note_on_c, 0, 66, 107
2, 20045, Note_on_c, 0, 69, 103
2, 20130, Note_on_c, 0, 64, 0
2, 20180, Note_on_c, 0, 66, 0
2, 20190, Note_on_c, 0, 60, 0
2, 20220, Note_on_c, 0, 69, 0
2, 20275, Note_on_c, 0, 50, 101
2, 20275, Note_on_c, 0, 62, 98
2, 20355, Note_on_c, 0, 50, 0
2, 20375, Note_on_c, 0, 62, 0
2, 20395, Note_on_c, 0, 69, 96
2, 20395, Note_on_c, 0, 64, 103
2, 20395, Note_on_c, 0, 60, 95
2, 20520, Note_on_c, 0, 66, 82
2, 20550, Note_on_c, 0, 64, 0
2, 20620, Note_on_c, 0, 69, 0
2, 20620, Note_on_c, 0, 66, 0
2, 20625, Note_on_c, 0, 60, 0
2, 20640, Note_on_c, 0, 50, 94
2, 20640, Note_on_c, 0, 62, 90
2, 20765, Note_on_c, 0, 69, 109
2, 20770, Note_on_c, 0, 60, 101
2, 20770, Note_on_c, 0, 64, 112
2, 20785, Note_on_c, 0, 62, 0
2, 20830, Note_on_c, 0, 50, 0
2, 20885, Note_on_c, 0, 66, 87
2, 20890, Note_on_c, 0, 64, 0
2, 20900, Note_on_c, 0, 60, 0
2, 20985, Note_on_c, 0, 66, 0
2, 21005, Note_on_c, 0, 60, 90
2, 21090, Note_on_c, 0, 60, 0
2, 21115, Note_on_c, 0, 69, 0
2, 21115, Note_on_c, 0, 43, 120
2, 21355, Note_on_c, 0, 62, 108
2, 21355, Note_on_c, 0, 64, 105
2, 21355, Note_on_c, 0, 67, 101
2, 21355, Note_on_c, 0, 59, 107
2, 21385, Note_on_c, 0, 43, 0
2, 21455, Note_on_c, 0, 64, 0
2, 21480, Note_on_c, 0, 59, 0
2, 21480, Note_on_c, 0, 67, 0
2, 21490, Note_on_c, 0, 62, 0
2, 21595, Note_on_c, 0, 43, 86
2, 21650, Note_on_c, 0, 43, 0
2, 21715, Note_on_c, 0, 62, 109
2, 21715, Note_on_c, 0, 67, 96
2, 21715, Note_on_c, 0, 59, 96
2, 21715, Note_on_c, 0, 64, 108
2, 21750, Note_on_c, 0, 64, 0
2, 21765, Note_on_c, 0, 59, 0
2, 21770, Note_on_c, 0, 62, 0
2, 21785, Note_on_c, 0, 67, 0
2, 21955, Note_on_c, 0, 43, 105
2, 22015, Note_on_c, 0, 43, 0
2, 22070, Note_on_c, 0, 67, 107
2, 22070, Note_on_c, 0, 62, 107
2, 22070, Note_on_c, 0, 59, 107
2, 22075, Note_on_c, 0, 64, 107
2, 22090, Note_on_c, 0, 43, 59
2, 22130, Note_on_c, 0, 43, 0
2, 22325, Note_on_c, 0, 43, 73
2, 22365, Note_on_c, 0, 43, 0
2, 22385, Note_on_c, 0, 64, 0
2, 22385, Note_on_c, 0, 62, 0
2, 22390, Note_on_c, 0, 59, 0
2, 22395, Note_on_c, 0, 67, 0
2, 22445, Note_on_c, 0, 67, 83
2, 22450, Note_on_c, 0, 62, 82
2, 22450, Note_on_c, 0, 59, 82
2, 22450, Note_on_c, 0, 64, 80
2, 22505, Note_on_c, 0, 64, 0
2, 22510, Note_on_c, 0, 62, 0
2, 22515, Note_on_c, 0, 59, 0
2, 22525, Note_on_c, 0, 67, 0
2, 22680, Note_on_c, 0, 67, 90
2, 22685, Note_on_c, 0, 64, 96
2, 22685, Note_on_c, 0, 62, 96
2, 22690, Note_on_c, 0, 59, 93
2, 22740, Note_on_c, 0, 62, 0
2, 22740, Note_on_c, 0, 64, 0
2, 22750, Note_on_c, 0, 59, 0
2, 22765, Note_on_c, 0, 67, 0
2, 22795, Note_on_c, 0, 43, 78
2, 22830, Note_on_c, 0, 43, 0
2, 22925, Note_on_c, 0, 43, 83
2, 22975, Note_on_c, 0, 43, 0
2, 23035, Note_on_c, 0, 67, 103
2, 23045, Note_on_c, 0, 59, 109
2, 23045, Note_on_c, 0, 62, 117
2, 23045, Note_on_c, 0, 64, 115
2, 23225, Note_on_c, 0, 64, 0
2, 23225, Note_on_c, 0, 67, 0
2, 23230, Note_on_c, 0, 62, 0
2, 23250, Note_on_c, 0, 59, 0
2, 23275, Note_on_c, 0, 67, 91
2, 23285, Note_on_c, 0, 62, 90
2, 23285, Note_on_c, 0, 64, 86
2, 23285, Note_on_c, 0, 59, 85
2, 23470, Note_on_c, 0, 64, 0
2, 23490, Note_on_c, 0, 59, 0
2, 23490, Note_on_c, 0, 62, 0
2, 23525, Note_on_c, 0, 67, 0
2, 23525, Note_on_c, 0, 43, 99
2, 23640, Note_on_c, 0, 64, 92
2, 23640, Note_on_c, 0, 62, 88
2, 23640, Note_on_c, 0, 59, 83
2, 23645, Note_on_c, 0, 67, 81
2, 23675, Note_on_c, 0, 62, 0
2, 23675, Note_on_c, 0, 64, 0
2, 23680, Note_on_c, 0, 59, 0
2, 23690, Note_on_c, 0, 67, 0
2, 23690, Note_on_c, 0, 43, 0
2, 23885, Note_on_c, 0, 43, 99
2, 23930, Note_on_c, 0, 43, 0
2, 24000, Note_on_c, 0, 67, 115
2, 24005, Note_on_c, 0, 62, 115
2, 24005, Note_on_c, 0, 59, 115
2, 24005, Note_on_c, 0, 64, 115
2, 24230, Note_on_c, 0, 43, 83
2, 24255, Note_on_c, 0, 64, 0
2, 24255, Note_on_c, 0, 62, 0
2, 24265, Note_on_c, 0, 59, 0
2, 24280, Note_on_c, 0, 67, 0
2, 24355, Note_on_c, 0, 67, 82
2, 24360, Note_on_c, 0, 59, 82
2, 24360, Note_on_c, 0, 64, 85
2, 24365, Note_on_c, 0, 62, 82
2, 24385, Note_on_c, 0, 43, 0
2, 24440, Note_on_c, 0, 62, 0
2, 24445, Note_on_c, 0, 64, 0
2, 24450, Note_on_c, 0, 59, 0
2, 24465, Note_on_c, 0, 67, 0
2, 24590, Note_on_c, 0, 67, 91
2, 24595, Note_on_c, 0, 64, 82
2, 24600, Note_on_c, 0, 62, 87
2, 24600, Note_on_c, 0, 59, 85
2, 24710, Note_on_c, 0, 43, 81
2, 24720, Note_on_c, 0, 59, 0
2, 24750, Note_on_c, 0, 43, 0
2, 24820, Note_on_c, 0, 64, 0
2, 24825, Note_on_c, 0, 62, 0
2, 24825, Note_on_c, 0, 67, 0
2, 24830, Note_on_c, 0, 59, 76
2, 24860, Note_on_c, 0, 59, 0
2, 24960, Note_on_c, 0, 47, 95
2, 24960, Note_on_c, 0, 35, 96
2, 25195, Note_on_c, 0, 50, 120
2, 25195, Note_on_c, 0, 59, 107
2, 25200, Note_on_c, 0, 47, 0
2, 25230, Note_on_c, 0, 35, 0
2, 25315, Note_on_c, 0, 51, 87
2, 25350, Note_on_c, 0, 50, 0
2, 25390, Note_on_c, 0, 51, 0
2, 25390, Note_on_c, 0, 59, 0
2, 25445, Note_on_c, 0, 47, 85
2, 25505, Note_on_c, 0, 47, 0
2, 25560, Note_on_c, 0, 59, 89
2, 25560, Note_on_c, 0, 51, 105
2, 25560, Note_on_c, 0, 54, 93
2, 25605, Note_on_c, 0, 54, 0
2, 25610, Note_on_c, 0, 51, 0
2, 25630, Note_on_c, 0, 59, 0
2, 25790, Note_on_c, 0, 47, 95
2, 25870, Note_on_c, 0, 47, 0
2, 25910, Note_on_c, 0, 59, 95
2, 25915, Note_on_c, 0, 50, 120
2, 26035, Note_on_c, 0, 51, 88
2, 26040, Note_on_c, 0, 50, 0
2, 26110, Note_on_c, 0, 51, 0
2, 26110, Note_on_c, 0, 59, 0
2, 26150, Note_on_c, 0, 47, 90
2, 26275, Note_on_c, 0, 51, 120
2, 26275, Note_on_c, 0, 59, 90
2, 26275, Note_on_c, 0, 54, 108
2, 26280, Note_on_c, 0, 47, 0
2, 26330, Note_on_c, 0, 51, 0
2, 26330, Note_on_c, 0, 54, 0
2, 26335, Note_on_c, 0, 59, 0
2, 26390, Note_on_c, 0, 47, 79
2, 26430, Note_on_c, 0, 47, 0
2, 26510, Note_on_c, 0, 59, 91
2, 26510, Note_on_c, 0, 54, 117
2, 26510, Note_on_c, 0, 51, 120
2, 26600, Note_on_c, 0, 51, 0
2, 26600, Note_on_c, 0, 54, 0
2, 26610, Note_on_c, 0, 59, 0
2, 26635, Note_on_c, 0, 47, 96
2, 26750, Note_on_c, 0, 51, 96
2, 26750, Note_on_c, 0, 54, 101
2, 26750, Note_on_c, 0, 59, 89
2, 26800, Note_on_c, 0, 59, 0
2, 26800, Note_on_c, 0, 54, 0
2, 26800, Note_on_c, 0, 51, 0
2, 26870, Note_on_c, 0, 35, 92
2, 27090, Note_on_c, 0, 47, 0
2, 27110, Note_on_c, 0, 50, 109
2, 27110, Note_on_c, 0, 59, 96
2, 27230, Note_on_c, 0, 51, 69
2, 27245, Note_on_c, 0, 50, 0
2, 27310, Note_on_c, 0, 51, 0
2, 27315, Note_on_c, 0, 59, 0
2, 27355, Note_on_c, 0, 35, 0
2, 27355, Note_on_c, 0, 47, 97
2, 27470, Note_on_c, 0, 59, 92
2, 27470, Note_on_c, 0, 54, 117
2, 27470, Note_on_c, 0, 51, 112
2, 27505, Note_on_c, 0, 47, 0
2, 27540, Note_on_c, 0, 51, 0
2, 27545, Note_on_c, 0, 54, 0
2, 27550, Note_on_c, 0, 59, 0
2, 27715, Note_on_c, 0, 47, 98
2, 27770, Note_on_c, 0, 47, 0
2, 27830, Note_on_c, 0, 59, 96
2, 27830, Note_on_c, 0, 50, 112
2, 27950, Note_on_c, 0, 51, 81
2, 27960, Note_on_c, 0, 50, 0
2, 28030, Note_on_c, 0, 51, 0
2, 28030, Note_on_c, 0, 59, 0
2, 28075, Note_on_c, 0, 47, 94
2, 28115, Note_on_c, 0, 47, 0
2, 28195, Note_on_c, 0, 51, 122
2, 28195, Note_on_c, 0, 59, 86
2, 28195, Note_on_c, 0, 54, 96
2, 28220, Note_on_c, 0, 54, 0
2, 28225, Note_on_c, 0, 51, 0
2, 28245, Note_on_c, 0, 59, 0
2, 28435, Note_on_c, 0, 59, 107
2, 28435, Note_on_c, 0, 51, 127
2, 28435, Note_on_c, 0, 54, 127
2, 28490, Note_on_c, 0, 51, 0
2, 28550, Note_on_c, 0, 47, 83
2, 28750, Note_on_c, 0, 54, 0
2, 28765, Note_on_c, 0, 47, 0
2, 28770, Note_on_c, 0, 59, 0
2, 28790, Note_on_c, 0, 40, 99
2, 29015, Note_on_c, 0, 40, 0
2, 29030, Note_on_c, 0, 59, 98
2, 29030, Note_on_c, 0, 55, 96
2, 29030, Note_on_c, 0, 50, 96
2, 29150, Note_on_c, 0, 55, 0
2, 29155, Note_on_c, 0, 56, 81
2, 29240, Note_on_c, 0, 56, 0
2, 29245, Note_on_c, 0, 50, 0
2, 29265, Note_on_c, 0, 59, 0
2, 29270, Note_on_c, 0, 47, 85
2, 29330, Note_on_c, 0, 47, 0
2, 29395, Note_on_c, 0, 56, 89
2, 29395, Note_on_c, 0, 50, 99
2, 29395, Note_on_c, 0, 59, 96
2, 29455, Note_on_c, 0, 56, 0
2, 29460, Note_on_c, 0, 59, 0
2, 29465, Note_on_c, 0, 50, 0
2, 29640, Note_on_c, 0, 40, 85
2, 29730, Note_on_c, 0, 40, 0
2, 29755, Note_on_c, 0, 55, 109
2, 29755, Note_on_c, 0, 50, 103
2, 29755, Note_on_c, 0, 59, 96
2, 29860, Note_on_c, 0, 55, 0
2, 29875, Note_on_c, 0, 56, 78
2, 29970, Note_on_c, 0, 56, 0
2, 29970, Note_on_c, 0, 59, 0
2, 29995, Note_on_c, 0, 50, 0
2, 29995, Note_on_c, 0, 40, 76
2, 30070, Note_on_c, 0, 40, 0
2, 30120, Note_on_c, 0, 56, 86
2, 30125, Note_on_c, 0, 59, 97
2, 30125, Note_on_c, 0, 50, 95
2, 30140, Note_on_c, 0, 40, 65
2, 30170, Note_on_c, 0, 40, 0
2, 30185, Note_on_c, 0, 56, 0
2, 30190, Note_on_c, 0, 59, 0
2, 30200, Note_on_c, 0, 50, 0
2, 30360, Note_on_c, 0, 56, 86
2, 30365, Note_on_c, 0, 59, 97
2, 30365, Note_on_c, 0, 50, 90
2, 30480, Note_on_c, 0, 50, 0
2, 30480, Note_on_c, 0, 59, 0
2, 30480, Note_on_c, 0, 56, 0
2, 30480, Note_on_c, 0, 40, 94
2, 30555, Note_on_c, 0, 40, 0
2, 30605, Note_on_c, 0, 40, 112
2, 30720, Note_on_c, 0, 28, 87
2, 30830, Note_on_c, 0, 40, 0
2, 30955, Note_on_c, 0, 55, 97
2, 30955, Note_on_c, 0, 50, 99
2, 30955, Note_on_c, 0, 59, 97
2, 31065, Note_on_c, 0, 55, 0
2, 31075, Note_on_c, 0, 56, 81
2, 31160, Note_on_c, 0, 59, 0
2, 31170, Note_on_c, 0, 56, 0
2, 31175, Note_on_c, 0, 50, 0
2, 31195, Note_on_c, 0, 40, 96
2, 31205, Note_on_c, 0, 28, 0
2, 31315, Note_on_c, 0, 56, 88
2, 31315, Note_on_c, 0, 50, 96
2, 31315, Note_on_c, 0, 59, 101
2, 31345, Note_on_c, 0, 40, 0
2, 31420, Note_on_c, 0, 56, 0
2, 31420, Note_on_c, 0, 59, 0
2, 31430, Note_on_c, 0, 50, 0
2, 31555, Note_on_c, 0, 40, 99
2, 31605, Note_on_c, 0, 40, 0
2, 31670, Note_on_c, 0, 55, 96
2, 31670, Note_on_c, 0, 59, 88
2, 31670, Note_on_c, 0, 50, 90
2, 31795, Note_on_c, 0, 55, 0
2, 31795, Note_on_c, 0, 56, 84
2, 31890, Note_on_c, 0, 56, 0
2, 31910, Note_on_c, 0, 59, 0
2, 31910, Note_on_c, 0, 40, 98
2, 31915, Note_on_c, 0, 50, 0
2, 31985, Note_on_c, 0, 40, 0
2, 32035, Note_on_c, 0, 59, 101
2, 32035, Note_on_c, 0, 56, 86
2, 32035, Note_on_c, 0, 50, 93
2, 32125, Note_on_c, 0, 56, 0
2, 32125, Note_on_c, 0, 59, 0
2, 32145, Note_on_c, 0, 50, 0
2, 32275, Note_on_c, 0, 50, 92
2, 32275, Note_on_c, 0, 56, 83
2, 32275, Note_on_c, 0, 59, 99
2, 32390, Note_on_c, 0, 40, 84
2, 32400, Note_on_c, 0, 50, 0
2, 32495, Note_on_c, 0, 59, 0
2, 32500, Note_on_c, 0, 40, 0
2, 32515, Note_on_c, 0, 50, 80
2, 32545, Note_on_c, 0, 56, 0
2, 32590, Note_on_c, 0, 50, 0
2, 32635, Note_on_c, 0, 38, 101
2, 32875, Note_on_c, 0, 62, 97
2, 32875, Note_on_c, 0, 53, 108
2, 32990, Note_on_c, 0, 54, 82
2, 33025, Note_on_c, 0, 53, 0
2, 33070, Note_on_c, 0, 54, 0
2, 33110, Note_on_c, 0, 50, 87
2, 33130, Note_on_c, 0, 62, 0
2, 33170, Note_on_c, 0, 50, 0
2, 33230, Note_on_c, 0, 62, 86
2, 33230, Note_on_c, 0, 57, 97
2, 33235, Note_on_c, 0, 54, 90
2, 33325, Note_on_c, 0, 54, 0
2, 33335, Note_on_c, 0, 57, 0
2, 33410, Note_on_c, 0, 38, 0
2, 33435, Note_on_c, 0, 62, 0
2, 33475, Note_on_c, 0, 50, 70
2, 33485, Note_on_c, 0, 38, 92
2, 33550, Note_on_c, 0, 50, 0
2, 33595, Note_on_c, 0, 53, 103
2, 33595, Note_on_c, 0, 62, 95
2, 33720, Note_on_c, 0, 54, 77
2, 33760, Note_on_c, 0, 53, 0
2, 33780, Note_on_c, 0, 54, 0
2, 33810, Note_on_c, 0, 62, 0
2, 33840, Note_on_c, 0, 50, 91
2, 33895, Note_on_c, 0, 50, 0
2, 33965, Note_on_c, 0, 62, 86
2, 33965, Note_on_c, 0, 57, 91
2, 33970, Note_on_c, 0, 54, 83
2, 34010, Note_on_c, 0, 57, 0
2, 34015, Note_on_c, 0, 54, 0
2, 34030, Note_on_c, 0, 62, 0
2, 34205, Note_on_c, 0, 50, 105
2, 34235, Note_on_c, 0, 50, 0
2, 34310, Note_on_c, 0, 62, 89
2, 34315, Note_on_c, 0, 57, 96
2, 34315, Note_on_c, 0, 54, 89
2, 34315, Note_on_c, 0, 60, 109
2, 34320, Note_on_c, 0, 38, 0
2, 34530, Note_on_c, 0, 57, 0
2, 34545, Note_on_c, 0, 54, 0
2, 34550, Note_on_c, 0, 60, 0
2, 34555, Note_on_c, 0, 38, 95
2, 34555, Note_on_c, 0, 50, 122
2, 34585, Note_on_c, 0, 62, 0
2, 34785, Note_on_c, 0, 50, 0
2, 34795, Note_on_c, 0, 62, 99
2, 34800, Note_on_c, 0, 53, 107
2, 34915, Note_on_c, 0, 54, 80
2, 34930, Note_on_c, 0, 53, 0
2, 34975, Note_on_c, 0, 54, 0
2, 34980, Note_on_c, 0, 62, 0
2, 35035, Note_on_c, 0, 50, 93
2, 35090, Note_on_c, 0, 50, 0
2, 35155, Note_on_c, 0, 62, 90
2, 35155, Note_on_c, 0, 54, 97
2, 35155, Note_on_c, 0, 57, 101
2, 35210, Note_on_c, 0, 54, 0
2, 35225, Note_on_c, 0, 57, 0
2, 35235, Note_on_c, 0, 62, 0
2, 35395, Note_on_c, 0, 50, 109
2, 35455, Note_on_c, 0, 50, 0
2, 35515, Note_on_c, 0, 62, 95
2, 35515, Note_on_c, 0, 53, 109
2, 35630, Note_on_c, 0, 54, 81
2, 35655, Note_on_c, 0, 53, 0
2, 35715, Note_on_c, 0, 54, 0
2, 35720, Note_on_c, 0, 62, 0
2, 35750, Note_on_c, 0, 38, 0
2, 35750, Note_on_c, 0, 50, 101
2, 35875, Note_on_c, 0, 54, 88
2, 35875, Note_on_c, 0, 57, 96
2, 35875, Note_on_c, 0, 62, 72
2, 35970, Note_on_c, 0, 62, 0
2, 35970, Note_on_c, 0, 54, 0
2, 35975, Note_on_c, 0, 50, 0
2, 35980, Note_on_c, 0, 57, 0
2, 36120, Note_on_c, 0, 50, 108
2, 36220, Note_on_c, 0, 50, 0
2, 36230, Note_on_c, 0, 62, 92
2, 36230, Note_on_c, 0, 54, 96
2, 36350, Note_on_c, 0, 57, 89
2, 36360, Note_on_c, 0, 54, 0
2, 36370, Note_on_c, 0, 62, 0
2, 36390, Note_on_c, 0, 57, 0
2, 36470, Note_on_c, 0, 43, 107
2, 36710, Note_on_c, 0, 55, 94
2, 36710, Note_on_c, 0, 52, 93
2, 36710, Note_on_c, 0, 62, 87
2, 36710, Note_on_c, 0, 59, 95
2, 36730, Note_on_c, 0, 43, 0
2, 36840, Note_on_c, 0, 59, 0
2, 36850, Note_on_c, 0, 55, 0
2, 36850, Note_on_c, 0, 52, 0
2, 36855, Note_on_c, 0, 62, 0
2, 36955, Note_on_c, 0, 43, 96
2, 37030, Note_on_c, 0, 43, 0
2, 37070, Note_on_c, 0, 62, 88
2, 37070, Note_on_c, 0, 43, 70
2, 37070, Note_on_c, 0, 55, 86
2, 37070, Note_on_c, 0, 52, 84
2, 37070, Note_on_c, 0, 59, 86
2, 37110, Note_on_c, 0, 59, 0
2, 37110, Note_on_c, 0, 43, 0
2, 37120, Note_on_c, 0, 52, 0
2, 37120, Note_on_c, 0, 55, 0
2, 37130, Note_on_c, 0, 62, 0
2, 37325, Note_on_c, 0, 43, 115
2, 37365, Note_on_c, 0, 43, 0
2, 37430, Note_on_c, 0, 52, 91
2, 37430, Note_on_c, 0, 58, 117
2, 37430, Note_on_c, 0, 62, 88
2, 37635, Note_on_c, 0, 58, 0
2, 37655, Note_on_c, 0, 52, 0
2, 37675, Note_on_c, 0, 43, 88
2, 37690, Note_on_c, 0, 62, 0
2, 37805, Note_on_c, 0, 62, 81
2, 37805, Note_on_c, 0, 55, 84
2, 37805, Note_on_c, 0, 50, 82
2, 37805, Note_on_c, 0, 59, 87
2, 37830, Note_on_c, 0, 43, 0
2, 37900, Note_on_c, 0, 55, 0
2, 37910, Note_on_c, 0, 59, 0
2, 37910, Note_on_c, 0, 50, 0
2, 37940, Note_on_c, 0, 62, 0
2, 38035, Note_on_c, 0, 62, 83
2, 38045, Note_on_c, 0, 59, 90
2, 38045, Note_on_c, 0, 55, 85
2, 38045, Note_on_c, 0, 50, 88
2, 38170, Note_on_c, 0, 43, 74
2, 38190, Note_on_c, 0, 43, 0
2, 38280, Note_on_c, 0, 43, 83
2, 38310, Note_on_c, 0, 50, 0
2, 38315, Note_on_c, 0, 59, 0
2, 38320, Note_on_c, 0, 55, 0
2, 38335, Note_on_c, 0, 62, 0
2, 38335, Note_on_c, 0, 43, 0
2, 38395, Note_on_c, 0, 43, 127
2, 38640, Note_on_c, 0, 58, 94
2, 38640, Note_on_c, 0, 52, 97
2, 38640, Note_on_c, 0, 62, 92
2, 38660, Note_on_c, 0, 43, 0
2, 38765, Note_on_c, 0, 59, 89
2, 38820, Note_on_c, 0, 58, 0
2, 38830, Note_on_c, 0, 59, 0
2, 38840, Note_on_c, 0, 52, 0
2, 38875, Note_on_c, 0, 43, 90
2, 38890, Note_on_c, 0, 62, 0
2, 38995, Note_on_c, 0, 62, 88
2, 38995, Note_on_c, 0, 50, 89
2, 38995, Note_on_c, 0, 55, 90
2, 38995, Note_on_c, 0, 59, 93
2, 39100, Note_on_c, 0, 50, 0
2, 39115, Note_on_c, 0, 55, 0
2, 39135, Note_on_c, 0, 59, 0
2, 39165, Note_on_c, 0, 43, 0
2, 39170, Note_on_c, 0, 62, 0
2, 39245, Note_on_c, 0, 43, 107
2, 39305, Note_on_c, 0, 43, 0
2, 39355, Note_on_c, 0, 58, 112
2, 39355, Note_on_c, 0, 50, 85
2, 39365, Note_on_c, 0, 62, 86
2, 39485, Note_on_c, 0, 59, 89
2, 39500, Note_on_c, 0, 58, 0
2, 39510, Note_on_c, 0, 50, 0
2, 39545, Note_on_c, 0, 59, 0
2, 39595, Note_on_c, 0, 43, 90
2, 39610, Note_on_c, 0, 62, 0
2, 39715, Note_on_c, 0, 55, 103
2, 39715, Note_on_c, 0, 52, 97
2, 39715, Note_on_c, 0, 62, 91
2, 39725, Note_on_c, 0, 59, 97
2, 39775, Note_on_c, 0, 59, 0
2, 39825, Note_on_c, 0, 55, 0
2, 39830, Note_on_c, 0, 52, 0
2, 39845, Note_on_c, 0, 62, 0
2, 39890, Note_on_c, 0, 43, 0
2, 39955, Note_on_c, 0, 62, 81
2, 39960, Note_on_c, 0, 59, 93
2, 39960, Note_on_c, 0, 55, 88
2, 39960, Note_on_c, 0, 52, 89
2, 40075, Note_on_c, 0, 43, 96
2, 40095, Note_on_c, 0, 52, 0
2, 40130, Note_on_c, 0, 55, 0
2, 40135, Note_on_c, 0, 43, 0
2, 40190, Note_on_c, 0, 52, 83
2, 40190, Note_on_c, 0, 55, 64
2, 40240, Note_on_c, 0, 55, 0
2, 40260, Note_on_c, 0, 59, 0
2, 40270, Note_on_c, 0, 62, 0
2, 40300, Note_on_c, 0, 52, 0
2, 40315, Note_on_c, 0, 35, 105
2, 40315, Note_on_c, 0, 47, 103
2, 40540, Note_on_c, 0, 47, 0
2, 40550, Note_on_c, 0, 59, 96
2, 40550, Note_on_c, 0, 50, 117
2, 40670, Note_on_c, 0, 51, 81
2, 40710, Note_on_c, 0, 50, 0
2, 40750, Note_on_c, 0, 51, 0
2, 40795, Note_on_c, 0, 47, 86
2, 40845, Note_on_c, 0, 59, 0
2, 40850, Note_on_c, 0, 47, 0
2, 40890, Note_on_c, 0, 35, 0
2, 40915, Note_on_c, 0, 59, 96
2, 40920, Note_on_c, 0, 54, 108
2, 40920, Note_on_c, 0, 51, 103
2, 40990, Note_on_c, 0, 51, 0
2, 41015, Note_on_c, 0, 54, 0
2, 41020, Note_on_c, 0, 59, 0
2, 41165, Note_on_c, 0, 47, 88
2, 41220, Note_on_c, 0, 47, 0
2, 41280, Note_on_c, 0, 59, 93
2, 41280, Note_on_c, 0, 50, 103
2, 41395, Note_on_c, 0, 51, 90
2, 41410, Note_on_c, 0, 50, 0
2, 41465, Note_on_c, 0, 51, 0
2, 41505, Note_on_c, 0, 59, 0
2, 41525, Note_on_c, 0, 47, 87
2, 41565, Note_on_c, 0, 47, 0
2, 41640, Note_on_c, 0, 54, 112
2, 41640, Note_on_c, 0, 59, 87
2, 41640, Note_on_c, 0, 51, 108
2, 41695, Note_on_c, 0, 54, 0
2, 41715, Note_on_c, 0, 51, 0
2, 41735, Note_on_c, 0, 59, 0
2, 41875, Note_on_c, 0, 54, 103
2, 41875, Note_on_c, 0, 59, 88
2, 41875, Note_on_c, 0, 51, 96
2, 41950, Note_on_c, 0, 51, 0
2, 41955, Note_on_c, 0, 59, 0
2, 41955, Note_on_c, 0, 54, 0
2, 42000, Note_on_c, 0, 47, 89
2, 42035, Note_on_c, 0, 47, 0
2, 42125, Note_on_c, 0, 47, 122
2, 42230, Note_on_c, 0, 35, 107
2, 42470, Note_on_c, 0, 47, 0
2, 42470, Note_on_c, 0, 59, 105
2, 42470, Note_on_c, 0, 50, 96
2, 42580, Note_on_c, 0, 50, 0
2, 42590, Note_on_c, 0, 51, 81
2, 42670, Note_on_c, 0, 51, 0
2, 42695, Note_on_c, 0, 59, 0
2, 42710, Note_on_c, 0, 47, 108
2, 42830, Note_on_c, 0, 51, 90
2, 42830, Note_on_c, 0, 54, 90
2, 42835, Note_on_c, 0, 59, 92
2, 42900, Note_on_c, 0, 51, 0
2, 42905, Note_on_c, 0, 59, 0
2, 42910, Note_on_c, 0, 54, 0
2, 42910, Note_on_c, 0, 47, 0
2, 43075, Note_on_c, 0, 47, 112
2, 43105, Note_on_c, 0, 35, 0
2, 43125, Note_on_c, 0, 47, 0
2, 43190, Note_on_c, 0, 59, 97
2, 43190, Note_on_c, 0, 50, 91
2, 43290, Note_on_c, 0, 50, 0
2, 43315, Note_on_c, 0, 51, 94
2, 43410, Note_on_c, 0, 51, 0
2, 43415, Note_on_c, 0, 59, 0
2, 43435, Note_on_c, 0, 47, 83
2, 43435, Note_on_c, 0, 35, 80
2, 43525, Note_on_c, 0, 47, 0
2, 43550, Note_on_c, 0, 59, 89
2, 43550, Note_on_c, 0, 51, 103
2, 43550, Note_on_c, 0, 54, 98
2, 43610, Note_on_c, 0, 54, 0
2, 43610, Note_on_c, 0, 51, 0
2, 43620, Note_on_c, 0, 59, 0
2, 43675, Note_on_c, 0, 47, 84
2, 43705, Note_on_c, 0, 47, 0
2, 43790, Note_on_c, 0, 51, 127
2, 43790, Note_on_c, 0, 59, 94
2, 43790, Note_on_c, 0, 54, 127
2, 43915, Note_on_c, 0, 47, 120
2, 43930, Note_on_c, 0, 51, 0
2, 43930, Note_on_c, 0, 35, 0
2, 44015, Note_on_c, 0, 54, 0
2, 44040, Note_on_c, 0, 50, 87
2, 44050, Note_on_c, 0, 59, 0
2, 44080, Note_on_c, 0, 47, 0
2, 44115, Note_on_c, 0, 50, 0
2, 44155, Note_on_c, 0, 40, 107
2, 44390, Note_on_c, 0, 59, 107
2, 44390, Note_on_c, 0, 55, 103
2, 44395, Note_on_c, 0, 50, 101
2, 44410, Note_on_c, 0, 40, 0
2, 44515, Note_on_c, 0, 55, 0
2, 44515, Note_on_c, 0, 56, 82
2, 44590, Note_on_c, 0, 50, 0
2, 44600, Note_on_c, 0, 56, 0
2, 44630, Note_on_c, 0, 59, 0
2, 44640, Note_on_c, 0, 47, 74
2, 44670, Note_on_c, 0, 47, 0
2, 44755, Note_on_c, 0, 56, 87
2, 44755, Note_on_c, 0, 50, 87
2, 44755, Note_on_c, 0, 59, 89
2, 44805, Note_on_c, 0, 56, 0
2, 44810, Note_on_c, 0, 59, 0
2, 44815, Note_on_c, 0, 50, 0
2, 44990, Note_on_c, 0, 47, 68
2, 45050, Note_on_c, 0, 47, 0
2, 45110, Note_on_c, 0, 55, 98
2, 45110, Note_on_c, 0, 59, 92
2, 45115, Note_on_c, 0, 50, 96
2, 45230, Note_on_c, 0, 55, 0
2, 45230, Note_on_c, 0, 56, 80
2, 45330, Note_on_c, 0, 56, 0
2, 45330, Note_on_c, 0, 50, 0
2, 45330, Note_on_c, 0, 59, 0
2, 45350, Note_on_c, 0, 40, 91
2, 45425, Note_on_c, 0, 40, 0
2, 45475, Note_on_c, 0, 56, 88
2, 45475, Note_on_c, 0, 50, 92
2, 45475, Note_on_c, 0, 59, 91
2, 45545, Note_on_c, 0, 59, 0
2, 45545, Note_on_c, 0, 56, 0
2, 45565, Note_on_c, 0, 50, 0
2, 45715, Note_on_c, 0, 56, 88
2, 45715, Note_on_c, 0, 50, 85
2, 45715, Note_on_c, 0, 59, 89
2, 45805, Note_on_c, 0, 59, 0
2, 45805, Note_on_c, 0, 50, 0
2, 45810, Note_on_c, 0, 56, 0
2, 45830, Note_on_c, 0, 40, 103
2, 45880, Note_on_c, 0, 40, 0
2, 45950, Note_on_c, 0, 40, 101
2, 46075, Note_on_c, 0, 28, 103
2, 46240, Note_on_c, 0, 40, 0
2, 46310, Note_on_c, 0, 55, 105
2, 46310, Note_on_c, 0, 59, 96
2, 46310, Note_on_c, 0, 50, 96
2, 46430, Note_on_c, 0, 55, 0
2, 46435, Note_on_c, 0, 56, 81
2, 46510, Note_on_c, 0, 56, 0
2, 46515, Note_on_c, 0, 50, 0
2, 46515, Note_on_c, 0, 59, 0
2, 46545, Note_on_c, 0, 28, 0
2, 46555, Note_on_c, 0, 40, 88
2, 46620, Note_on_c, 0, 40, 0
2, 46680, Note_on_c, 0, 56, 82
2, 46680, Note_on_c, 0, 50, 93
2, 46685, Note_on_c, 0, 59, 91
2, 46750, Note_on_c, 0, 56, 0
2, 46795, Note_on_c, 0, 50, 0
2, 46830, Note_on_c, 0, 59, 0
2, 46925, Note_on_c, 0, 40, 90
2, 47035, Note_on_c, 0, 50, 94
2, 47035, Note_on_c, 0, 55, 96
2, 47040, Note_on_c, 0, 59, 90
2, 47100, Note_on_c, 0, 40, 0
2, 47150, Note_on_c, 0, 55, 0
2, 47165, Note_on_c, 0, 56, 75
2, 47270, Note_on_c, 0, 56, 0
2, 47275, Note_on_c, 0, 59, 0
2, 47275, Note_on_c, 0, 47, 82
2, 47280, Note_on_c, 0, 50, 0
2, 47325, Note_on_c, 0, 47, 0
2, 47395, Note_on_c, 0, 56, 82
2, 47395, Note_on_c, 0, 59, 87
2, 47395, Note_on_c, 0, 50, 83
2, 47450, Note_on_c, 0, 59, 0
2, 47455, Note_on_c, 0, 56, 0
2, 47460, Note_on_c, 0, 50, 0
2, 47635, Note_on_c, 0, 50, 85
2, 47635, Note_on_c, 0, 56, 96
2, 47635, Note_on_c, 0, 59, 95
2, 47725, Note_on_c, 0, 50, 0
2, 47755, Note_on_c, 0, 47, 96
2, 47870, Note_on_c, 0, 59, 0
2, 47870, Note_on_c, 0, 56, 0
2, 47870, Note_on_c, 0, 50, 80
2, 47915, Note_on_c, 0, 50, 0
2, 47925, Note_on_c, 0, 47, 0
2, 47990, Note_on_c, 0, 38, 103
2, 48235, Note_on_c, 0, 62, 93
2, 48235, Note_on_c, 0, 53, 101
2, 48340, Note_on_c, 0, 38, 0
2, 48350, Note_on_c, 0, 54, 80
2, 48370, Note_on_c, 0, 53, 0
2, 48410, Note_on_c, 0, 54, 0
2, 48420, Note_on_c, 0, 62, 0
2, 48475, Note_on_c, 0, 38, 83
2, 48480, Note_on_c, 0, 50, 82
2, 48570, Note_on_c, 0, 50, 0
2, 48590, Note_on_c, 0, 62, 97
2, 48595, Note_on_c, 0, 57, 105
2, 48595, Note_on_c, 0, 54, 87
2, 48595, Note_on_c, 0, 60, 96
2, 48655, Note_on_c, 0, 54, 0
2, 48665, Note_on_c, 0, 60, 0
2, 48690, Note_on_c, 0, 57, 0
2, 48700, Note_on_c, 0, 62, 0
2, 48840, Note_on_c, 0, 50, 101
2, 48925, Note_on_c, 0, 50, 0
2, 48950, Note_on_c, 0, 62, 96
2, 48950, Note_on_c, 0, 53, 96
2, 49070, Note_on_c, 0, 54, 82
2, 49100, Note_on_c, 0, 53, 0
2, 49155, Note_on_c, 0, 54, 0
2, 49185, Note_on_c, 0, 62, 0
2, 49190, Note_on_c, 0, 50, 94
2, 49275, Note_on_c, 0, 50, 0
2, 49310, Note_on_c, 0, 62, 93
2, 49315, Note_on_c, 0, 60, 109
2, 49315, Note_on_c, 0, 57, 92
2, 49315, Note_on_c, 0, 54, 89
2, 49400, Note_on_c, 0, 62, 0
2, 49405, Note_on_c, 0, 60, 0
2, 49415, Note_on_c, 0, 57, 0
2, 49420, Note_on_c, 0, 54, 0
2, 49500, Note_on_c, 0, 38, 0
2, 49550, Note_on_c, 0, 57, 105
2, 49555, Note_on_c, 0, 60, 97
2, 49555, Note_on_c, 0, 62, 87
2, 49555, Note_on_c, 0, 54, 81
2, 49625, Note_on_c, 0, 54, 0
2, 49630, Note_on_c, 0, 60, 0
2, 49645, Note_on_c, 0, 57, 0
2, 49660, Note_on_c, 0, 62, 0
2, 49670, Note_on_c, 0, 50, 93
2, 49670, Note_on_c, 0, 38, 85
2, 49740, Note_on_c, 0, 38, 0
2, 49800, Note_on_c, 0, 54, 87
2, 49855, Note_on_c, 0, 54, 0
2, 49915, Note_on_c, 0, 38, 122
2, 50155, Note_on_c, 0, 53, 91
2, 50155, Note_on_c, 0, 62, 96
2, 50195, Note_on_c, 0, 50, 0
2, 50270, Note_on_c, 0, 54, 80
2, 50275, Note_on_c, 0, 53, 0
2, 50340, Note_on_c, 0, 62, 0
2, 50345, Note_on_c, 0, 54, 0
2, 50395, Note_on_c, 0, 50, 95
2, 50430, Note_on_c, 0, 50, 0
2, 50515, Note_on_c, 0, 62, 97
2, 50520, Note_on_c, 0, 57, 107
2, 50520, Note_on_c, 0, 54, 94
2, 50520, Note_on_c, 0, 60, 103
2, 50625, Note_on_c, 0, 60, 0
2, 50625, Note_on_c, 0, 57, 0
2, 50635, Note_on_c, 0, 54, 0
2, 50635, Note_on_c, 0, 62, 0
2, 50750, Note_on_c, 0, 38, 0
2, 50760, Note_on_c, 0, 50, 127
2, 50875, Note_on_c, 0, 53, 94
2, 50875, Note_on_c, 0, 62, 96
2, 50885, Note_on_c, 0, 60, 94
2, 50930, Note_on_c, 0, 60, 0
2, 50970, Note_on_c, 0, 50, 0
2, 50990, Note_on_c, 0, 54, 82
2, 51025, Note_on_c, 0, 53, 0
2, 51050, Note_on_c, 0, 62, 0
2, 51060, Note_on_c, 0, 54, 0
2, 51110, Note_on_c, 0, 50, 95
2, 51165, Note_on_c, 0, 50, 0
2, 51230, Note_on_c, 0, 62, 101
2, 51235, Note_on_c, 0, 57, 117
2, 51240, Note_on_c, 0, 60, 87
2, 51245, Note_on_c, 0, 54, 86
2, 51295, Note_on_c, 0, 60, 0
2, 51330, Note_on_c, 0, 54, 0
2, 51330, Note_on_c, 0, 57, 0
2, 51355, Note_on_c, 0, 62, 0
2, 51470, Note_on_c, 0, 62, 96
2, 51475, Note_on_c, 0, 54, 84
2, 51475, Note_on_c, 0, 57, 98
2, 51475, Note_on_c, 0, 60, 82
2, 51565, Note_on_c, 0, 54, 0
2, 51590, Note_on_c, 0, 38, 91
2, 51590, Note_on_c, 0, 50, 95
2, 51640, Note_on_c, 0, 60, 0
2, 51650, Note_on_c, 0, 57, 0
2, 51655, Note_on_c, 0, 62, 0
2, 51710, Note_on_c, 0, 54, 89
2, 51770, Note_on_c, 0, 54, 0
2, 51775, Note_on_c, 0, 50, 0
2, 51775, Note_on_c, 0, 38, 0
2, 51835, Note_on_c, 0, 43, 127
2, 52075, Note_on_c, 0, 52, 105
2, 52075, Note_on_c, 0, 58, 120
2, 52085, Note_on_c, 0, 62, 94
2, 52140, Note_on_c, 0, 43, 0
2, 52200, Note_on_c, 0, 59, 90
2, 52230, Note_on_c, 0, 58, 0
2, 52275, Note_on_c, 0, 59, 0
2, 52295, Note_on_c, 0, 62, 0
2, 52300, Note_on_c, 0, 52, 0
2, 52325, Note_on_c, 0, 43, 81
2, 52435, Note_on_c, 0, 55, 85
2, 52435, Note_on_c, 0, 59, 85
2, 52440, Note_on_c, 0, 43, 0
2, 52440, Note_on_c, 0, 50, 93
2, 52440, Note_on_c, 0, 62, 83
2, 52540, Note_on_c, 0, 50, 0
2, 52545, Note_on_c, 0, 55, 0
2, 52550, Note_on_c, 0, 59, 0
2, 52575, Note_on_c, 0, 62, 0
2, 52685, Note_on_c, 0, 43, 112
2, 52725, Note_on_c, 0, 43, 0
2, 52795, Note_on_c, 0, 52, 98
2, 52795, Note_on_c, 0, 58, 122
2, 52800, Note_on_c, 0, 62, 89
2, 52925, Note_on_c, 0, 59, 82
2, 52980, Note_on_c, 0, 59, 0
2, 52980, Note_on_c, 0, 52, 0
2, 52980, Note_on_c, 0, 58, 0
2, 53030, Note_on_c, 0, 43, 92
2, 53065, Note_on_c, 0, 62, 0
2, 53160, Note_on_c, 0, 50, 91
2, 53160, Note_on_c, 0, 55, 95
2, 53160, Note_on_c, 0, 62, 80
2, 53160, Note_on_c, 0, 59, 91
2, 53180, Note_on_c, 0, 43, 0
2, 53220, Note_on_c, 0, 55, 0
2, 53235, Note_on_c, 0, 59, 0
2, 53235, Note_on_c, 0, 50, 0
2, 53240, Note_on_c, 0, 62, 0
2, 53280, Note_on_c, 0, 43, 70
2, 53325, Note_on_c, 0, 43, 0
2, 53405, Note_on_c, 0, 62, 95
2, 53405, Note_on_c, 0, 50, 107
2, 53405, Note_on_c, 0, 55, 108
2, 53405, Note_on_c, 0, 59, 107
2, 53525, Note_on_c, 0, 43, 103
2, 53530, Note_on_c, 0, 50, 0
2, 53605, Note_on_c, 0, 43, 0
2, 53635, Note_on_c, 0, 50, 83
2, 53745, Note_on_c, 0, 50, 0
2, 53745, Note_on_c, 0, 59, 0
2, 53755, Note_on_c, 0, 55, 0
2, 53755, Note_on_c, 0, 43, 127
2, 53820, Note_on_c, 0, 62, 0
2, 53995, Note_on_c, 0, 52, 88
2, 53995, Note_on_c, 0, 58, 112
2, 54000, Note_on_c, 0, 43, 0
2, 54005, Note_on_c, 0, 62, 78
2, 54105, Note_on_c, 0, 58, 0
2, 54125, Note_on_c, 0, 59, 85
2, 54190, Note_on_c, 0, 52, 0
2, 54210, Note_on_c, 0, 59, 0
2, 54235, Note_on_c, 0, 43, 86
2, 54350, Note_on_c, 0, 55, 90
2, 54355, Note_on_c, 0, 50, 81
2, 54355, Note_on_c, 0, 59, 81
2, 54410, Note_on_c, 0, 43, 0
2, 54465, Note_on_c, 0, 43, 85
2, 54470, Note_on_c, 0, 50, 0
2, 54510, Note_on_c, 0, 59, 0
2, 54510, Note_on_c, 0, 43, 0
2, 54540, Note_on_c, 0, 62, 0
2, 54550, Note_on_c, 0, 55, 0
2, 54595, Note_on_c, 0, 43, 98
2, 54655, Note_on_c, 0, 43, 0
2, 54710, Note_on_c, 0, 52, 96
2, 54710, Note_on_c, 0, 58, 127
2, 54715, Note_on_c, 0, 62, 97
2, 54835, Note_on_c, 0, 59, 86
2, 54870, Note_on_c, 0, 58, 0
2, 54895, Note_on_c, 0, 52, 0
2, 54930, Note_on_c, 0, 59, 0
2, 54950, Note_on_c, 0, 43, 101
2, 54995, Note_on_c, 0, 62, 0
2, 55070, Note_on_c, 0, 62, 86
2, 55070, Note_on_c, 0, 55, 91
2, 55070, Note_on_c, 0, 59, 92
2, 55070, Note_on_c, 0, 50, 85
2, 55110, Note_on_c, 0, 43, 0
2, 55170, Note_on_c, 0, 55, 0
2, 55180, Note_on_c, 0, 50, 0
2, 55190, Note_on_c, 0, 59, 0
2, 55210, Note_on_c, 0, 62, 0
2, 55310, Note_on_c, 0, 62, 85
2, 55310, Note_on_c, 0, 59, 89
2, 55315, Note_on_c, 0, 55, 85
2, 55315, Note_on_c, 0, 50, 85
2, 55430, Note_on_c, 0, 43, 127
2, 55445, Note_on_c, 0, 50, 0
2, 55470, Note_on_c, 0, 55, 0
2, 55470, Note_on_c, 0, 59, 0
2, 55475, Note_on_c, 0, 62, 0
2, 55555, Note_on_c, 0, 62, 79
2, 55560, Note_on_c, 0, 50, 85
2, 55560, Note_on_c, 0, 55, 84
2, 55560, Note_on_c, 0, 59, 83
2, 55595, Note_on_c, 0, 43, 0
2, 55610, Note_on_c, 0, 59, 0
2, 55610, Note_on_c, 0, 50, 0
2, 55615, Note_on_c, 0, 55, 0
2, 55620, Note_on_c, 0, 62, 0
2, 55685, Note_on_c, 0, 50, 95
2, 55685, Note_on_c, 0, 57, 89
2, 55685, Note_on_c, 0, 60, 89
2, 55760, Note_on_c, 0, 60, 0
2, 55770, Note_on_c, 0, 50, 0
2, 55775, Note_on_c, 0, 57, 0
2, 55925, Note_on_c, 0, 60, 101
2, 55925, Note_on_c, 0, 71, 112
2, 55925, Note_on_c, 0, 64, 109
2, 55925, Note_on_c, 0, 66, 96
2, 55990, Note_on_c, 0, 60, 0
2, 55995, Note_on_c, 0, 66, 0
2, 56000, Note_on_c, 0, 64, 0
2, 56000, Note_on_c, 0, 71, 0
2, 56165, Note_on_c, 0, 60, 85
2, 56165, Note_on_c, 0, 50, 88
2, 56165, Note_on_c, 0, 57, 85
2, 56240, Note_on_c, 0, 57, 0
2, 56240, Note_on_c, 0, 50, 0
2, 56245, Note_on_c, 0, 60, 0
2, 56280, Note_on_c, 0, 71, 103
2, 56285, Note_on_c, 0, 64, 99
2, 56285, Note_on_c, 0, 66, 89
2, 56285, Note_on_c, 0, 60, 85
2, 56320, Note_on_c, 0, 60, 0
2, 56320, Note_on_c, 0, 66, 0
2, 56320, Note_on_c, 0, 64, 0
2, 56340, Note_on_c, 0, 71, 0
2, 56515, Note_on_c, 0, 60, 81
2, 56515, Note_on_c, 0, 57, 81
2, 56525, Note_on_c, 0, 50, 77
2, 56555, Note_on_c, 0, 57, 0
2, 56570, Note_on_c, 0, 50, 0
2, 56575, Note_on_c, 0, 60, 0
2, 56635, Note_on_c, 0, 71, 117
2, 56635, Note_on_c, 0, 60, 94
2, 56635, Note_on_c, 0, 64, 107
2, 56635, Note_on_c, 0, 66, 96
2, 56690, Note_on_c, 0, 60, 0
2, 56700, Note_on_c, 0, 64, 0
2, 56705, Note_on_c, 0, 66, 0
2, 56710, Note_on_c, 0, 71, 0
2, 56750, Note_on_c, 0, 50, 87
2, 56750, Note_on_c, 0, 60, 84
2, 56765, Note_on_c, 0, 57, 81
2, 56790, Note_on_c, 0, 57, 0
2, 56800, Note_on_c, 0, 50, 0
2, 56805, Note_on_c, 0, 60, 0
2, 56870, Note_on_c, 0, 60, 84
2, 56870, Note_on_c, 0, 57, 83
2, 56870, Note_on_c, 0, 50, 85
2, 56910, Note_on_c, 0, 50, 0
2, 56910, Note_on_c, 0, 57, 0
2, 56915, Note_on_c, 0, 60, 0
2, 56995, Note_on_c, 0, 60, 96
2, 56995, Note_on_c, 0, 71, 109
2, 56995, Note_on_c, 0, 64, 107
2, 56995, Note_on_c, 0, 66, 103
2, 57070, Note_on_c, 0, 60, 0
2, 57080, Note_on_c, 0, 71, 0
2, 57080, Note_on_c, 0, 64, 0
2, 57080, Note_on_c, 0, 66, 0
2, 57110, Note_on_c, 0, 50, 82
2, 57115, Note_on_c, 0, 60, 74
2, 57115, Note_on_c, 0, 57, 85
2, 57150, Note_on_c, 0, 57, 0
2, 57155, Note_on_c, 0, 50, 0
2, 57160, Note_on_c, 0, 60, 0
2, 57235, Note_on_c, 0, 50, 86
2, 57235, Note_on_c, 0, 60, 81
2, 57235, Note_on_c, 0, 57, 83
2, 57295, Note_on_c, 0, 60, 0
2, 57305, Note_on_c, 0, 57, 0
2, 57310, Note_on_c, 0, 50, 0
2, 57360, Note_on_c, 0, 60, 96
2, 57360, Note_on_c, 0, 71, 112
2, 57360, Note_on_c, 0, 66, 99
2, 57360, Note_on_c, 0, 64, 108
2, 57425, Note_on_c, 0, 60, 0
2, 57440, Note_on_c, 0, 64, 0
2, 57445, Note_on_c, 0, 66, 0
2, 57445, Note_on_c, 0, 71, 0
2, 57470, Note_on_c, 0, 50, 81
2, 57475, Note_on_c, 0, 60, 81
2, 57475, Note_on_c, 0, 57, 83
2, 57505, Note_on_c, 0, 50, 0
2, 57510, Note_on_c, 0, 57, 0
2, 57515, Note_on_c, 0, 60, 0
2, 57595, Note_on_c, 0, 50, 95
2, 57595, Note_on_c, 0, 60, 89
2, 57600, Note_on_c, 0, 57, 86
2, 57655, Note_on_c, 0, 50, 0
2, 57670, Note_on_c, 0, 57, 0
2, 57685, Note_on_c, 0, 60, 0
2, 57715, Note_on_c, 0, 60, 87
2, 57715, Note_on_c, 0, 71, 99
2, 57720, Note_on_c, 0, 64, 103
2, 57720, Note_on_c, 0, 66, 96
2, 57785, Note_on_c, 0, 60, 0
2, 57790, Note_on_c, 0, 64, 0
2, 57800, Note_on_c, 0, 71, 0
2, 57800, Note_on_c, 0, 66, 0
2, 57835, Note_on_c, 0, 50, 81
2, 57840, Note_on_c, 0, 60, 76
2, 57845, Note_on_c, 0, 57, 80
2, 57870, Note_on_c, 0, 57, 0
2, 57875, Note_on_c, 0, 60, 0
2, 57875, Note_on_c, 0, 50, 0
2, 57960, Note_on_c, 0, 60, 91
2, 57960, Note_on_c, 0, 50, 91
2, 57960, Note_on_c, 0, 57, 87
2, 58045, Note_on_c, 0, 57, 0
2, 58045, Note_on_c, 0, 60, 0
2, 58050, Note_on_c, 0, 50, 0
2, 58085, Note_on_c, 0, 71, 108
2, 58085, Note_on_c, 0, 60, 96
2, 58085, Note_on_c, 0, 64, 107
2, 58085, Note_on_c, 0, 66, 97
2, 58160, Note_on_c, 0, 60, 0
2, 58165, Note_on_c, 0, 64, 0
2, 58170, Note_on_c, 0, 71, 0
2, 58170, Note_on_c, 0, 66, 0
2, 58200, Note_on_c, 0, 50, 86
2, 58205, Note_on_c, 0, 60, 81
2, 58205, Note_on_c, 0, 57, 83
2, 58235, Note_on_c, 0, 57, 0
2, 58240, Note_on_c, 0, 50, 0
2, 58250, Note_on_c, 0, 60, 0
2, 58320, Note_on_c, 0, 60, 86
2, 58325, Note_on_c, 0, 50, 85
2, 58325, Note_on_c, 0, 57, 82
2, 58370, Note_on_c, 0, 57, 0
2, 58370, Note_on_c, 0, 50, 0
2, 58375, Note_on_c, 0, 60, 0
2, 58435, Note_on_c, 0, 64, 122
2, 58440, Note_on_c, 0, 66, 120
2, 58440, Note_on_c, 0, 60, 108
2, 58440, Note_on_c, 0, 71, 109
2, 58515, Note_on_c, 0, 66, 0
2, 58525, Note_on_c, 0, 64, 0
2, 58525, Note_on_c, 0, 60, 0
2, 58530, Note_on_c, 0, 71, 0
2, 58555, Note_on_c, 0, 50, 85
2, 58555, Note_on_c, 0, 60, 80
2, 58560, Note_on_c, 0, 57, 83
2, 58590, Note_on_c, 0, 57, 0
2, 58595, Note_on_c, 0, 60, 0
2, 58595, Note_on_c, 0, 50, 0
2, 58680, Note_on_c, 0, 60, 86
2, 58680, Note_on_c, 0, 50, 90
2, 58685, Note_on_c, 0, 57, 86
2, 58745, Note_on_c, 0, 50, 0
2, 58755, Note_on_c, 0, 57, 0
2, 58755, Note_on_c, 0, 60, 0
2, 58800, Note_on_c, 0, 64, 112
2, 58800, Note_on_c, 0, 66, 115
2, 58800, Note_on_c, 0, 60, 107
2, 58800, Note_on_c, 0, 71, 107
2, 58865, Note_on_c, 0, 60, 0
2, 58870, Note_on_c, 0, 64, 0
2, 58875, Note_on_c, 0, 66, 0
2, 58880, Note_on_c, 0, 71, 0
2, 58915, Note_on_c, 0, 57, 82
2, 58915, Note_on_c, 0, 60, 84
2, 58920, Note_on_c, 0, 50, 74
2, 58950, Note_on_c, 0, 50, 0
2, 58955, Note_on_c, 0, 57, 0
2, 58960, Note_on_c, 0, 60, 0
2, 59035, Note_on_c, 0, 50, 94
2, 59035, Note_on_c, 0, 57, 88
2, 59035, Note_on_c, 0, 60, 90
2, 59145, Note_on_c, 0, 60, 0
2, 59160, Note_on_c, 0, 59, 99
2, 59165, Note_on_c, 0, 57, 0
2, 59180, Note_on_c, 0, 50, 0
2, 59200, Note_on_c, 0, 59, 0
2, 59280, Note_on_c, 0, 57, 92
2, 59365, Note_on_c, 0, 57, 0
2, 59400, Note_on_c, 0, 52, 99
2, 59510, Note_on_c, 0, 52, 0
2, 59520, Note_on_c, 0, 50, 109
2, 59670, Note_on_c, 0, 50, 0
2, 59760, Note_on_c, 0, 67, 95
2, 59760, Note_on_c, 0, 59, 108
2, 59760, Note_on_c, 0, 55, 91
2, 59760, Note_on_c, 0, 64, 109
2, 59760, Note_on_c, 0, 62, 105
2, 59770, Note_on_c, 0, 50, 72
2, 59770, Note_on_c, 0, 43, 81
2, 59800, Note_on_c, 0, 50, 0
2, 59845, Note_on_c, 0, 62, 0
2, 59860, Note_on_c, 0, 64, 0
2, 59870, Note_on_c, 0, 67, 0
2, 59885, Note_on_c, 0, 59, 0
2, 59890, Note_on_c, 0, 55, 0
2, 60110, Note_on_c, 0, 64, 115
2, 60110, Note_on_c, 0, 59, 105
2, 60110, Note_on_c, 0, 55, 99
2, 60120, Note_on_c, 0, 50, 76
2, 60200, Note_on_c, 0, 59, 0
2, 60255, Note_on_c, 0, 50, 0
2, 60280, Note_on_c, 0, 64, 0
2, 60290, Note_on_c, 0, 55, 0
2, 60350, Note_on_c, 0, 58, 127
2, 60350, Note_on_c, 0, 52, 98
2, 60480, Note_on_c, 0, 58, 0
2, 60485, Note_on_c, 0, 59, 72
2, 60545, Note_on_c, 0, 52, 0
2, 60590, Note_on_c, 0, 62, 93
2, 60610, Note_on_c, 0, 59, 0
2, 60710, Note_on_c, 0, 62, 0
2, 60710, Note_on_c, 0, 43, 0
2, 60720, Note_on_c, 0, 50, 74
2, 60720, Note_on_c, 0, 64, 90
2, 60745, Note_on_c, 0, 50, 0
2, 60805, Note_on_c, 0, 64, 0
2, 60830, Note_on_c, 0, 64, 105
2, 60840, Note_on_c, 0, 62, 107
2, 60840, Note_on_c, 0, 67, 95
2, 60840, Note_on_c, 0, 59, 105
2, 60840, Note_on_c, 0, 43, 89
2, 60845, Note_on_c, 0, 52, 86
2, 60875, Note_on_c, 0, 64, 0
2, 60890, Note_on_c, 0, 62, 0
2, 60905, Note_on_c, 0, 59, 0
2, 60910, Note_on_c, 0, 67, 0
2, 60985, Note_on_c, 0, 52, 0
2, 61085, Note_on_c, 0, 64, 92
2, 61090, Note_on_c, 0, 59, 101
2, 61090, Note_on_c, 0, 50, 84
2, 61090, Note_on_c, 0, 62, 108
2, 61090, Note_on_c, 0, 55, 88
2, 61120, Note_on_c, 0, 50, 0
2, 61145, Note_on_c, 0, 43, 0
2, 61230, Note_on_c, 0, 55, 0
2, 61310, Note_on_c, 0, 55, 75
2, 61440, Note_on_c, 0, 62, 0
2, 61440, Note_on_c, 0, 43, 98
2, 61450, Note_on_c, 0, 55, 0
2, 61450, Note_on_c, 0, 59, 0
2, 61450, Note_on_c, 0, 50, 103
2, 61470, Note_on_c, 0, 64, 0
2, 61585, Note_on_c, 0, 50, 0
2, 61600, Note_on_c, 0, 43, 0
2, 61685, Note_on_c, 0, 64, 120
2, 61685, Note_on_c, 0, 59, 126
2, 61685, Note_on_c, 0, 55, 105
2, 61690, Note_on_c, 0, 52, 83
2, 61690, Note_on_c, 0, 43, 88
2, 61790, Note_on_c, 0, 62, 82
2, 61805, Note_on_c, 0, 64, 0
2, 61810, Note_on_c, 0, 59, 0
2, 61825, Note_on_c, 0, 62, 0
2, 61840, Note_on_c, 0, 52, 0
2, 61865, Note_on_c, 0, 55, 0
2, 61910, Note_on_c, 0, 50, 67
2, 61920, Note_on_c, 0, 64, 92
2, 61925, Note_on_c, 0, 55, 82
2, 61925, Note_on_c, 0, 59, 96
2, 61950, Note_on_c, 0, 50, 0
2, 62005, Note_on_c, 0, 59, 0
2, 62020, Note_on_c, 0, 64, 0
2, 62050, Note_on_c, 0, 67, 93
2, 62050, Note_on_c, 0, 59, 83
2, 62125, Note_on_c, 0, 59, 0
2, 62130, Note_on_c, 0, 55, 0
2, 62140, Note_on_c, 0, 67, 0
2, 62210, Note_on_c, 0, 43, 0
2, 62270, Note_on_c, 0, 55, 85
2, 62270, Note_on_c, 0, 59, 95
2, 62270, Note_on_c, 0, 62, 97
2, 62280, Note_on_c, 0, 43, 89
2, 62285, Note_on_c, 0, 52, 82
2, 62375, Note_on_c, 0, 62, 0
2, 62380, Note_on_c, 0, 52, 0
2, 62380, Note_on_c, 0, 59, 0
2, 62390, Note_on_c, 0, 64, 89
2, 62390, Note_on_c, 0, 59, 80
2, 62410, Note_on_c, 0, 50, 69
2, 62450, Note_on_c, 0, 59, 0
2, 62495, Note_on_c, 0, 64, 0
2, 62505, Note_on_c, 0, 59, 34
2, 62505, Note_on_c, 0, 62, 84
2, 62560, Note_on_c, 0, 50, 0
2, 62615, Note_on_c, 0, 62, 0
2, 62625, Note_on_c, 0, 64, 85
2, 62645, Note_on_c, 0, 43, 0
2, 62680, Note_on_c, 0, 59, 0
2, 62690, Note_on_c, 0, 64, 0
2, 62710, Note_on_c, 0, 55, 0
2, 62745, Note_on_c, 0, 67, 101
2, 62750, Note_on_c, 0, 55, 83
2, 62750, Note_on_c, 0, 52, 87
2, 62750, Note_on_c, 0, 59, 101
2, 62750, Note_on_c, 0, 43, 86
2, 62820, Note_on_c, 0, 55, 0
2, 62830, Note_on_c, 0, 59, 0
2, 62850, Note_on_c, 0, 67, 0
2, 62860, Note_on_c, 0, 52, 0
2, 62865, Note_on_c, 0, 43, 0
2, 62990, Note_on_c, 0, 50, 86
2, 63000, Note_on_c, 0, 55, 98
2, 63000, Note_on_c, 0, 59, 115
2, 63000, Note_on_c, 0, 62, 115
2, 63010, Note_on_c, 0, 43, 74
2, 63095, Note_on_c, 0, 59, 0
2, 63110, Note_on_c, 0, 50, 0
2, 63125, Note_on_c, 0, 62, 0
2, 63125, Note_on_c, 0, 64, 87
2, 63130, Note_on_c, 0, 59, 80
2, 63195, Note_on_c, 0, 55, 0
2, 63220, Note_on_c, 0, 59, 0
2, 63230, Note_on_c, 0, 52, 81
2, 63230, Note_on_c, 0, 62, 101
2, 63240, Note_on_c, 0, 59, 80
2, 63240, Note_on_c, 0, 55, 77
2, 63245, Note_on_c, 0, 64, 0
2, 63290, Note_on_c, 0, 43, 0
2, 63300, Note_on_c, 0, 52, 0
2, 63310, Note_on_c, 0, 62, 0
2, 63315, Note_on_c, 0, 55, 0
2, 63320, Note_on_c, 0, 59, 0
2, 63350, Note_on_c, 0, 57, 93
2, 63360, Note_on_c, 0, 50, 95
2, 63360, Note_on_c, 0, 48, 88
2, 63440, Note_on_c, 0, 57, 0
2, 63445, Note_on_c, 0, 50, 0
2, 63470, Note_on_c, 0, 57, 89
2, 63470, Note_on_c, 0, 50, 89
2, 63590, Note_on_c, 0, 50, 0
2, 63590, Note_on_c, 0, 48, 0
2, 63590, Note_on_c, 0, 38, 82
2, 63600, Note_on_c, 0, 57, 0
2, 63710, Note_on_c, 0, 38, 0
2, 63710, Note_on_c, 0, 57, 88
2, 63710, Note_on_c, 0, 50, 96
2, 63710, Note_on_c, 0, 48, 83
2, 63820, Note_on_c, 0, 48, 0
2, 63830, Note_on_c, 0, 57, 0
2, 63845, Note_on_c, 0, 50, 0
2, 63845, Note_on_c, 0, 38, 81
2, 63875, Note_on_c, 0, 38, 0
2, 63950, Note_on_c, 0, 38, 83
2, 64070, Note_on_c, 0, 38, 0
2, 64080, Note_on_c, 0, 57, 91
2, 64080, Note_on_c, 0, 50, 96
2, 64080, Note_on_c, 0, 48, 95
2, 64160, Note_on_c, 0, 57, 0
2, 64170, Note_on_c, 0, 50, 0
2, 64185, Note_on_c, 0, 48, 0
2, 64200, Note_on_c, 0, 57, 86
2, 64200, Note_on_c, 0, 48, 70
2, 64205, Note_on_c, 0, 50, 87
2, 64325, Note_on_c, 0, 48, 0
2, 64325, Note_on_c, 0, 57, 0
2, 64325, Note_on_c, 0, 38, 91
2, 64330, Note_on_c, 0, 50, 0
2, 64415, Note_on_c, 0, 38, 0
2, 64430, Note_on_c, 0, 57, 90
2, 64440, Note_on_c, 0, 50, 84
2, 64440, Note_on_c, 0, 48, 85
2, 64520, Note_on_c, 0, 50, 0
2, 64525, Note_on_c, 0, 57, 0
2, 64530, Note_on_c, 0, 48, 0
2, 64560, Note_on_c, 0, 57, 89
2, 64565, Note_on_c, 0, 50, 93
2, 64565, Note_on_c, 0, 48, 84
2, 64680, Note_on_c, 0, 48, 0
2, 64680, Note_on_c, 0, 50, 0
2, 64680, Note_on_c, 0, 57, 0
2, 64680, Note_on_c, 0, 38, 85
2, 64785, Note_on_c, 0, 38, 0
2, 64800, Note_on_c, 0, 57, 94
2, 64800, Note_on_c, 0, 48, 86
2, 64800, Note_on_c, 0, 50, 87
2, 64875, Note_on_c, 0, 50, 0
2, 64875, Note_on_c, 0, 57, 0
2, 64880, Note_on_c, 0, 48, 0
2, 64920, Note_on_c, 0, 57, 87
2, 64925, Note_on_c, 0, 50, 84
2, 64930, Note_on_c, 0, 48, 82
2, 65040, Note_on_c, 0, 48, 0
2, 65040, Note_on_c, 0, 50, 0
2, 65045, Note_on_c, 0, 57, 0
2, 65045, Note_on_c, 0, 38, 82
2, 65090, Note_on_c, 0, 38, 0
2, 65150, Note_on_c, 0, 38, 87
2, 65265, Note_on_c, 0, 38, 0
2, 65280, Note_on_c, 0, 50, 87
2, 65280, Note_on_c, 0, 57, 95
2, 65280, Note_on_c, 0, 48, 83
2, 65365, Note_on_c, 0, 50, 0
2, 65390, Note_on_c, 0, 50, 82
2, 65510, Note_on_c, 0, 50, 0
2, 65510, Note_on_c, 0, 48, 0
2, 65510, Note_on_c, 0, 57, 0
2, 65510, Note_on_c, 0, 38, 80
2, 65610, Note_on_c, 0, 38, 0
2, 65630, Note_on_c, 0, 57, 91
2, 65630, Note_on_c, 0, 50, 94
2, 65630, Note_on_c, 0, 48, 93
2, 65740, Note_on_c, 0, 57, 0
2, 65750, Note_on_c, 0, 48, 0
2, 65750, Note_on_c, 0, 50, 0
2, 65750, Note_on_c, 0, 38, 81
2, 65775, Note_on_c, 0, 38, 0
2, 65865, Note_on_c, 0, 38, 82
2, 65920, Note_on_c, 0, 38, 0
2, 65990, Note_on_c, 0, 57, 96
2, 65990, Note_on_c, 0, 50, 105
2, 65990, Note_on_c, 0, 48, 89
2, 66050, Note_on_c, 0, 48, 0
2, 66050, Note_on_c, 0, 50, 0
2, 66050, Note_on_c, 0, 57, 0
2, 66110, Note_on_c, 0, 57, 93
2, 66110, Note_on_c, 0, 50, 87
2, 66120, Note_on_c, 0, 48, 85
2, 66240, Note_on_c, 0, 48, 0
2, 66240, Note_on_c, 0, 50, 0
2, 66240, Note_on_c, 0, 57, 0
2, 66240, Note_on_c, 0, 38, 83
2, 66350, Note_on_c, 0, 57, 89
2, 66350, Note_on_c, 0, 50, 91
2, 66360, Note_on_c, 0, 48, 85
2, 66415, Note_on_c, 0, 38, 0
2, 66420, Note_on_c, 0, 57, 0
2, 66420, Note_on_c, 0, 50, 0
2, 66425, Note_on_c, 0, 48, 0
2, 66480, Note_on_c, 0, 57, 88
2, 66485, Note_on_c, 0, 48, 82
2, 66485, Note_on_c, 0, 50, 91
2, 66605, Note_on_c, 0, 50, 0
2, 66605, Note_on_c, 0, 48, 0
2, 66610, Note_on_c, 0, 57, 0
2, 66720, Note_on_c, 0, 57, 97
2, 66720, Note_on_c, 0, 48, 96
2, 66725, Note_on_c, 0, 50, 101
2, 66800, Note_on_c, 0, 57, 0
2, 66805, Note_on_c, 0, 50, 0
2, 66805, Note_on_c, 0, 48, 0
2, 66840, Note_on_c, 0, 57, 91
2, 66840, Note_on_c, 0, 50, 88
2, 66845, Note_on_c, 0, 48, 83
2, 66950, Note_on_c, 0, 48, 0
2, 66950, Note_on_c, 0, 50, 0
2, 66950, Note_on_c, 0, 57, 0
2, 66960, Note_on_c, 0, 38, 92
2, 67015, Note_on_c, 0, 38, 0
2, 67070, Note_on_c, 0, 38, 82
2, 67095, Note_on_c, 0, 57, 80
2, 67130, Note_on_c, 0, 38, 0
2, 67130, Note_on_c, 0, 58, 81
2, 67175, Note_on_c, 0, 57, 0
2, 67175, Note_on_c, 0, 59, 99
2, 67190, Note_on_c, 0, 58, 0
2, 67205, Note_on_c, 0, 67, 108
2, 67210, Note_on_c, 0, 50, 87
2, 67215, Note_on_c, 0, 59, 0
2, 67225, Note_on_c, 0, 43, 83
2, 67345, Note_on_c, 0, 67, 0
2, 67420, Note_on_c, 0, 50, 0
2, 67445, Note_on_c, 0, 71, 92
2, 67445, Note_on_c, 0, 67, 112
2, 67445, Note_on_c, 0, 62, 112
2, 67445, Note_on_c, 0, 52, 85
2, 67530, Note_on_c, 0, 52, 0
2, 67535, Note_on_c, 0, 71, 0
2, 67540, Note_on_c, 0, 62, 0
2, 67545, Note_on_c, 0, 67, 0
2, 67545, Note_on_c, 0, 52, 75
2, 67560, Note_on_c, 0, 67, 69
2, 67560, Note_on_c, 0, 71, 82
2, 67570, Note_on_c, 0, 62, 81
2, 67625, Note_on_c, 0, 67, 0
2, 67630, Note_on_c, 0, 71, 0
2, 67645, Note_on_c, 0, 62, 0
2, 67680, Note_on_c, 0, 62, 83
2, 67680, Note_on_c, 0, 69, 101
2, 67685, Note_on_c, 0, 64, 101
2, 67690, Note_on_c, 0, 43, 0
2, 67690, Note_on_c, 0, 50, 97
2, 67695, Note_on_c, 0, 52, 0
2, 67735, Note_on_c, 0, 50, 0
2, 67745, Note_on_c, 0, 62, 0
2, 67775, Note_on_c, 0, 64, 0
2, 67780, Note_on_c, 0, 69, 0
2, 67800, Note_on_c, 0, 67, 98
2, 67800, Note_on_c, 0, 62, 89
2, 67805, Note_on_c, 0, 52, 84
2, 67810, Note_on_c, 0, 43, 81
2, 67840, Note_on_c, 0, 67, 0
2, 67850, Note_on_c, 0, 62, 0
2, 67885, Note_on_c, 0, 52, 0
2, 67945, Note_on_c, 0, 43, 0
2, 68030, Note_on_c, 0, 59, 88
2, 68040, Note_on_c, 0, 62, 93
2, 68040, Note_on_c, 0, 52, 85
2, 68050, Note_on_c, 0, 43, 74
2, 68100, Note_on_c, 0, 43, 0
2, 68120, Note_on_c, 0, 52, 0
2, 68120, Note_on_c, 0, 59, 0
2, 68130, Note_on_c, 0, 62, 0
2, 68150, Note_on_c, 0, 59, 91
2, 68160, Note_on_c, 0, 64, 105
2, 68165, Note_on_c, 0, 43, 77
2, 68170, Note_on_c, 0, 50, 69
2, 68225, Note_on_c, 0, 50, 0
2, 68275, Note_on_c, 0, 64, 0
2, 68280, Note_on_c, 0, 62, 82
2, 68320, Note_on_c, 0, 59, 0
2, 68350, Note_on_c, 0, 62, 0
2, 68370, Note_on_c, 0, 43, 0
2, 68400, Note_on_c, 0, 64, 87
2, 68520, Note_on_c, 0, 64, 0
2, 68520, Note_on_c, 0, 62, 99
2, 68520, Note_on_c, 0, 67, 99
2, 68520, Note_on_c, 0, 52, 99
2, 68520, Note_on_c, 0, 59, 99
2, 68600, Note_on_c, 0, 67, 0
2, 68630, Note_on_c, 0, 62, 0
2, 68640, Note_on_c, 0, 52, 0
2, 68650, Note_on_c, 0, 59, 0
2, 68760, Note_on_c, 0, 55, 89
2, 68760, Note_on_c, 0, 64, 96
2, 68770, Note_on_c, 0, 50, 82
2, 68770, Note_on_c, 0, 59, 101
2, 68870, Note_on_c, 0, 59, 0
2, 68880, Note_on_c, 0, 62, 85
2, 68890, Note_on_c, 0, 64, 0
2, 68965, Note_on_c, 0, 50, 0
2, 68990, Note_on_c, 0, 62, 0
2, 69000, Note_on_c, 0, 59, 94
2, 69000, Note_on_c, 0, 52, 81
2, 69035, Note_on_c, 0, 52, 0
2, 69065, Note_on_c, 0, 59, 0
2, 69090, Note_on_c, 0, 55, 0
2, 69125, Note_on_c, 0, 52, 85
2, 69125, Note_on_c, 0, 43, 89
2, 69130, Note_on_c, 0, 50, 82
2, 69220, Note_on_c, 0, 50, 0
2, 69240, Note_on_c, 0, 55, 74
2, 69275, Note_on_c, 0, 57, 65
2, 69315, Note_on_c, 0, 58, 73
2, 69330, Note_on_c, 0, 52, 0
2, 69345, Note_on_c, 0, 57, 0
2, 69350, Note_on_c, 0, 50, 89
2, 69350, Note_on_c, 0, 59, 97
2, 69370, Note_on_c, 0, 58, 0
2, 69435, Note_on_c, 0, 50, 0
2, 69440, Note_on_c, 0, 59, 0
2, 69445, Note_on_c, 0, 55, 0
2, 69465, Note_on_c, 0, 55, 86
2, 69470, Note_on_c, 0, 59, 96
2, 69470, Note_on_c, 0, 52, 83
2, 69520, Note_on_c, 0, 59, 0
2, 69585, Note_on_c, 0, 52, 0
2, 69590, Note_on_c, 0, 55, 0
2, 69700, Note_on_c, 0, 52, 82
2, 69705, Note_on_c, 0, 55, 98
2, 69705, Note_on_c, 0, 60, 101
2, 69710, Note_on_c, 0, 57, 105
2, 69750, Note_on_c, 0, 57, 0
2, 69780, Note_on_c, 0, 60, 0
2, 69825, Note_on_c, 0, 52, 0
2, 69830, Note_on_c, 0, 50, 85
2, 69850, Note_on_c, 0, 50, 0
2, 69910, Note_on_c, 0, 55, 0
2, 69940, Note_on_c, 0, 61, 112
2, 69940, Note_on_c, 0, 58, 112
2, 69945, Note_on_c, 0, 55, 113
2, 69950, Note_on_c, 0, 52, 113
2, 70050, Note_on_c, 0, 58, 0
2, 70065, Note_on_c, 0, 52, 0
2, 70070, Note_on_c, 0, 61, 0
2, 70070, Note_on_c, 0, 50, 90
2, 70070, Note_on_c, 0, 62, 94
2, 70080, Note_on_c, 0, 59, 94
2, 70110, Note_on_c, 0, 43, 0
2, 70150, Note_on_c, 0, 59, 0
2, 70155, Note_on_c, 0, 62, 0
2, 70160, Note_on_c, 0, 50, 0
2, 70190, Note_on_c, 0, 43, 81
2, 70190, Note_on_c, 0, 52, 82
2, 70200, Note_on_c, 0, 60, 90
2, 70200, Note_on_c, 0, 64, 89
2, 70255, Note_on_c, 0, 43, 0
2, 70265, Note_on_c, 0, 60, 0
2, 70270, Note_on_c, 0, 64, 0
2, 70275, Note_on_c, 0, 55, 0
2, 70290, Note_on_c, 0, 52, 0
2, 70445, Note_on_c, 0, 62, 104
2, 70445, Note_on_c, 0, 59, 104
2, 70445, Note_on_c, 0, 55, 104
2, 70445, Note_on_c, 0, 50, 104
2, 70450, Note_on_c, 0, 52, 104
2, 70540, Note_on_c, 0, 50, 0
2, 70570, Note_on_c, 0, 59, 0
2, 70590, Note_on_c, 0, 62, 0
2, 70680, Note_on_c, 0, 52, 0
2, 70680, Note_on_c, 0, 50, 93
2, 70680, Note_on_c, 0, 60, 99
2, 70680, Note_on_c, 0, 57, 108
2, 70710, Note_on_c, 0, 55, 0
2, 70790, Note_on_c, 0, 57, 0
2, 70790, Note_on_c, 0, 60, 0
2, 70800, Note_on_c, 0, 50, 0
2, 70805, Note_on_c, 0, 55, 85
2, 70805, Note_on_c, 0, 59, 95
2, 70905, Note_on_c, 0, 59, 0
2, 70910, Note_on_c, 0, 55, 0
2, 71040, Note_on_c, 0, 47, 95
2, 71040, Note_on_c, 0, 35, 96
2, 71275, Note_on_c, 0, 50, 120
2, 71275, Note_on_c, 0, 59, 107
2, 71280, Note_on_c, 0, 47, 0
2, 71310, Note_on_c, 0, 35, 0
2, 71395, Note_on_c, 0, 51, 87
2, 71430, Note_on_c, 0, 50, 0
2, 71470, Note_on_c, 0, 51, 0
2, 71470, Note_on_c, 0, 59, 0
2, 71525, Note_on_c, 0, 47, 85
2, 71585, Note_on_c, 0, 47, 0
2, 71640, Note_on_c, 0, 59, 89
2, 71640, Note_on_c, 0, 51, 105
2, 71640, Note_on_c, 0, 54, 93
2, 71685, Note_on_c, 0, 54, 0
2, 71690, Note_on_c, 0, 51, 0
2, 71710, Note_on_c, 0, 59, 0
2, 71870, Note_on_c, 0, 47, 95
2, 71950, Note_on_c, 0, 47, 0
2, 71990, Note_on_c, 0, 59, 95
2, 71995, Note_on_c, 0, 50, 120
2, 72115, Note_on_c, 0, 51, 88
2, 72120, Note_on_c, 0, 50, 0
2, 72190, Note_on_c, 0, 51, 0
2, 72190, Note_on_c, 0, 59, 0
2, 72230, Note_on_c, 0, 47, 90
2, 72355, Note_on_c, 0, 51, 120
2, 72355, Note_on_c, 0, 59, 90
2, 72355, Note_on_c, 0, 54, 108
2, 72360, Note_on_c, 0, 47, 0
2, 72410, Note_on_c, 0, 51, 0
2, 72410, Note_on_c, 0, 54, 0
2, 72415, Note_on_c, 0, 59, 0
2, 72470, Note_on_c, 0, 47, 79
2, 72510, Note_on_c, 0, 47, 0
2, 72590, Note_on_c, 0, 59, 91
2, 72590, Note_on_c, 0, 54, 117
2, 72590, Note_on_c, 0, 51, 120
2, 72680, Note_on_c, 0, 51, 0
2, 72680, Note_on_c, 0, 54, 0
2, 72690, Note_on_c, 0, 59, 0
2, 72715, Note_on_c, 0, 47, 96
2, 72830, Note_on_c, 0, 51, 96
2, 72830, Note_on_c, 0, 54, 101
2, 72830, Note_on_c, 0, 59, 89
2, 72880, Note_on_c, 0, 59, 0
2, 72880, Note_on_c, 0, 54, 0
2, 72880, Note_on_c, 0, 51, 0
2, 72950, Note_on_c, 0, 35, 92
2, 73170, Note_on_c, 0, 47, 0
2, 73190, Note_on_c, 0, 50, 109
2, 73190, Note_on_c, 0, 59, 96
2, 73310, Note_on_c, 0, 51, 69
2, 73325, Note_on_c, 0, 50, 0
2, 73390, Note_on_c, 0, 51, 0
2, 73395, Note_on_c, 0, 59, 0
2, 73435, Note_on_c, 0, 35, 0
2, 73435, Note_on_c, 0, 47, 97
2, 73550, Note_on_c, 0, 59, 92
2, 73550, Note_on_c, 0, 54, 117
2, 73550, Note_on_c, 0, 51, 112
2, 73585, Note_on_c, 0, 47, 0
2, 73620, Note_on_c, 0, 51, 0
2, 73625, Note_on_c, 0, 54, 0
2, 73630, Note_on_c, 0, 59, 0
2, 73795, Note_on_c, 0, 47, 98
2, 73850, Note_on_c, 0, 47, 0
2, 73910, Note_on_c, 0, 59, 96
2, 73910, Note_on_c, 0, 50, 112
2, 74030, Note_on_c, 0, 51, 81
2, 74040, Note_on_c, 0, 50, 0
2, 74110, Note_on_c, 0, 51, 0
2, 74110, Note_on_c, 0, 59, 0
2, 74155, Note_on_c, 0, 47, 94
2, 74195, Note_on_c, 0, 47, 0
2, 74275, Note_on_c, 0, 51, 122
2, 74275, Note_on_c, 0, 59, 86
2, 74275, Note_on_c, 0, 54, 96
2, 74300, Note_on_c, 0, 54, 0
2, 74305, Note_on_c, 0, 51, 0
2, 74325, Note_on_c, 0, 59, 0
2, 74515, Note_on_c, 0, 59, 107
2, 74515, Note_on_c, 0, 51, 127
2, 74515, Note_on_c, 0, 54, 127
2, 74570, Note_on_c, 0, 51, 0
2, 74630, Note_on_c, 0, 47, 83
2, 74830, Note_on_c, 0, 54, 0
2, 74845, Note_on_c, 0, 47, 0
2, 74850, Note_on_c, 0, 59, 0
2, 74870, Note_on_c, 0, 40, 99
2, 75095, Note_on_c, 0, 40, 0
2, 75110, Note_on_c, 0, 59, 98
2, 75110, Note_on_c, 0, 55, 96
2, 75110, Note_on_c, 0, 50, 96
2, 75230, Note_on_c, 0, 55, 0
2, 75235, Note_on_c, 0, 56, 81
2, 75320, Note_on_c, 0, 56, 0
2, 75325, Note_on_c, 0, 50, 0
2, 75345, Note_on_c, 0, 59, 0
2, 75350, Note_on_c, 0, 47, 85
2, 75410, Note_on_c, 0, 47, 0
2, 75475, Note_on_c, 0, 56, 89
2, 75475, Note_on_c, 0, 50, 99
2, 75475, Note_on_c, 0, 59, 96
2, 75535, Note_on_c, 0, 56, 0
2, 75540, Note_on_c, 0, 59, 0
2, 75545, Note_on_c, 0, 50, 0
2, 75720, Note_on_c, 0, 40, 85
2, 75810, Note_on_c, 0, 40, 0
2, 75835, Note_on_c, 0, 55, 109
2, 75835, Note_on_c, 0, 50, 103
2, 75835, Note_on_c, 0, 59, 96
2, 75940, Note_on_c, 0, 55, 0
2, 75955, Note_on_c, 0, 56, 78
2, 76050, Note_on_c, 0, 56, 0
2, 76050, Note_on_c, 0, 59, 0
2, 76075, Note_on_c, 0, 50, 0
2, 76075, Note_on_c, 0, 40, 76
2, 76150, Note_on_c, 0, 40, 0
2, 76200, Note_on_c, 0, 56, 86
2, 76205, Note_on_c, 0, 59, 97
2, 76205, Note_on_c, 0, 50, 95
2, 76220, Note_on_c, 0, 40, 65
2, 76250, Note_on_c, 0, 40, 0
2, 76265, Note_on_c, 0, 56, 0
2, 76270, Note_on_c, 0, 59, 0
2, 76280, Note_on_c, 0, 50, 0
2, 76440, Note_on_c, 0, 56, 86
2, 76445, Note_on_c, 0, 59, 97
2, 76445, Note_on_c, 0, 50, 90
2, 76560, Note_on_c, 0, 50, 0
2, 76560, Note_on_c, 0, 59, 0
2, 76560, Note_on_c, 0, 56, 0
2, 76560, Note_on_c, 0, 40, 94
2, 76635, Note_on_c, 0, 40, 0
2, 76685, Note_on_c, 0, 40, 112
2, 76800, Note_on_c, 0, 28, 87
2, 76910, Note_on_c, 0, 40, 0
2, 77035, Note_on_c, 0, 55, 97
2, 77035, Note_on_c, 0, 50, 99
2, 77035, Note_on_c, 0, 59, 97
2, 77145, Note_on_c, 0, 55, 0
2, 77155, Note_on_c, 0, 56, 81
2, 77240, Note_on_c, 0, 59, 0
2, 77250, Note_on_c, 0, 56, 0
2, 77255, Note_on_c, 0, 50, 0
2, 77275, Note_on_c, 0, 40, 96
2, 77285, Note_on_c, 0, 28, 0
2, 77395, Note_on_c, 0, 56, 88
2, 77395, Note_on_c, 0, 50, 96
2, 77395, Note_on_c, 0, 59, 101
2, 77425, Note_on_c, 0, 40, 0
2, 77500, Note_on_c, 0, 56, 0
2, 77500, Note_on_c, 0, 59, 0
2, 77510, Note_on_c, 0, 50, 0
2, 77635, Note_on_c, 0, 40, 99
2, 77685, Note_on_c, 0, 40, 0
2, 77750, Note_on_c, 0, 55, 96
2, 77750, Note_on_c, 0, 59, 88
2, 77750, Note_on_c, 0, 50, 90
2, 77875, Note_on_c, 0, 55, 0
2, 77875, Note_on_c, 0, 56, 84
2, 77970, Note_on_c, 0, 56, 0
2, 77990, Note_on_c, 0, 59, 0
2, 77990, Note_on_c, 0, 40, 98
2, 77995, Note_on_c, 0, 50, 0
2, 78065, Note_on_c, 0, 40, 0
2, 78115, Note_on_c, 0, 59, 101
2, 78115, Note_on_c, 0, 56, 86
2, 78115, Note_on_c, 0, 50, 93
2, 78205, Note_on_c, 0, 56, 0
2, 78205, Note_on_c, 0, 59, 0
2, 78225, Note_on_c, 0, 50, 0
2, 78355, Note_on_c, 0, 50, 92
2, 78355, Note_on_c, 0, 56, 83
2, 78355, Note_on_c, 0, 59, 99
2, 78470, Note_on_c, 0, 40, 84
2, 78480, Note_on_c, 0, 50, 0
2, 78575, Note_on_c, 0, 59, 0
2, 78580, Note_on_c, 0, 40, 0
2, 78595, Note_on_c, 0, 50, 80
2, 78625, Note_on_c, 0, 56, 0
2, 78670, Note_on_c, 0, 50, 0
2, 78715, Note_on_c, 0, 38, 101
2, 78955, Note_on_c, 0, 62, 97
2, 78955, Note_on_c, 0, 53, 108
2, 79070, Note_on_c, 0, 54, 82
2, 79105, Note_on_c, 0, 53, 0
2, 79150, Note_on_c, 0, 54, 0
2, 79190, Note_on_c, 0, 50, 87
2, 79210, Note_on_c, 0, 62, 0
2, 79250, Note_on_c, 0, 50, 0
2, 79310, Note_on_c, 0, 62, 86
2, 79310, Note_on_c, 0, 57, 97
2, 79315, Note_on_c, 0, 54, 90
2, 79405, Note_on_c, 0, 54, 0
2, 79415, Note_on_c, 0, 57, 0
2, 79490, Note_on_c, 0, 38, 0
2, 79515, Note_on_c, 0, 62, 0
2, 79555, Note_on_c, 0, 50, 70
2, 79565, Note_on_c, 0, 38, 92
2, 79630, Note_on_c, 0, 50, 0
2, 79675, Note_on_c, 0, 53, 103
2, 79675, Note_on_c, 0, 62, 95
2, 79800, Note_on_c, 0, 54, 77
2, 79840, Note_on_c, 0, 53, 0
2, 79860, Note_on_c, 0, 54, 0
2, 79890, Note_on_c, 0, 62, 0
2, 79920, Note_on_c, 0, 50, 91
2, 79975, Note_on_c, 0, 50, 0
2, 80045, Note_on_c, 0, 62, 86
2, 80045, Note_on_c, 0, 57, 91
2, 80050, Note_on_c, 0, 54, 83
2, 80090, Note_on_c, 0, 57, 0
2, 80095, Note_on_c, 0, 54, 0
2, 80110, Note_on_c, 0, 62, 0
2, 80285, Note_on_c, 0, 50, 105
2, 80315, Note_on_c, 0, 50, 0
2, 80390, Note_on_c, 0, 62, 89
2, 80395, Note_on_c, 0, 57, 96
2, 80395, Note_on_c, 0, 54, 89
2, 80395, Note_on_c, 0, 60, 109
2, 80400, Note_on_c, 0, 38, 0
2, 80610, Note_on_c, 0, 57, 0
2, 80625, Note_on_c, 0, 54, 0
2, 80630, Note_on_c, 0, 60, 0
2, 80635, Note_on_c, 0, 38, 95
2, 80635, Note_on_c, 0, 50, 122
2, 80665, Note_on_c, 0, 62, 0
2, 80865, Note_on_c, 0, 50, 0
2, 80875, Note_on_c, 0, 62, 99
2, 80880, Note_on_c, 0, 53, 107
2, 80995, Note_on_c, 0, 54, 80
2, 81010, Note_on_c, 0, 53, 0
2, 81055, Note_on_c, 0, 54, 0
2, 81060, Note_on_c, 0, 62, 0
2, 81115, Note_on_c, 0, 50, 93
2, 81170, Note_on_c, 0, 50, 0
2, 81235, Note_on_c, 0, 62, 90
2, 81235, Note_on_c, 0, 54, 97
2, 81235, Note_on_c, 0, 57, 101
2, 81290, Note_on_c, 0, 54, 0
2, 81305, Note_on_c, 0, 57, 0
2, 81315, Note_on_c, 0, 62, 0
2, 81475, Note_on_c, 0, 50, 109
2, 81535, Note_on_c, 0, 50, 0
2, 81595, Note_on_c, 0, 62, 95
2, 81595, Note_on_c, 0, 53, 109
2, 81710, Note_on_c, 0, 54, 81
2, 81735, Note_on_c, 0, 53, 0
2, 81795, Note_on_c, 0, 54, 0
2, 81800, Note_on_c, 0, 62, 0
2, 81830, Note_on_c, 0, 38, 0
2, 81830, Note_on_c, 0, 50, 101
2, 81955, Note_on_c, 0, 54, 88
2, 81955, Note_on_c, 0, 57, 96
2, 81955, Note_on_c, 0, 62, 72
2, 82050, Note_on_c, 0, 62, 0
2, 82050, Note_on_c, 0, 54, 0
2, 82055, Note_on_c, 0, 50, 0
2, 82060, Note_on_c, 0, 57, 0
2, 82200, Note_on_c, 0, 50, 108
2, 82300, Note_on_c, 0, 50, 0
2, 82310, Note_on_c, 0, 62, 92
2, 82310, Note_on_c, 0, 54, 96
2, 82430, Note_on_c, 0, 57, 89
2, 82440, Note_on_c, 0, 54, 0
2, 82450, Note_on_c, 0, 62, 0
2, 82470, Note_on_c, 0, 57, 0
2, 82550, Note_on_c, 0, 43, 107
2, 82790, Note_on_c, 0, 55, 94
2, 82790, Note_on_c, 0, 52, 93
2, 82790, Note_on_c, 0, 62, 87
2, 82790, Note_on_c, 0, 59, 95
2, 82810, Note_on_c, 0, 43, 0
2, 82920, Note_on_c, 0, 59, 0
2, 82930, Note_on_c, 0, 55, 0
2, 82930, Note_on_c, 0, 52, 0
2, 82935, Note_on_c, 0, 62, 0
2, 83035, Note_on_c, 0, 43, 96
2, 83110, Note_on_c, 0, 43, 0
2, 83150, Note_on_c, 0, 62, 88
2, 83150, Note_on_c, 0, 43, 70
2, 83150, Note_on_c, 0, 55, 86
2, 83150, Note_on_c, 0, 52, 84
2, 83150, Note_on_c, 0, 59, 86
2, 83190, Note_on_c, 0, 59, 0
2, 83190, Note_on_c, 0, 43, 0
2, 83200, Note_on_c, 0, 52, 0
2, 83200, Note_on_c, 0, 55, 0
2, 83210, Note_on_c, 0, 62, 0
2, 83405, Note_on_c, 0, 43, 115
2, 83445, Note_on_c, 0, 43, 0
2, 83510, Note_on_c, 0, 52, 91
2, 83510, Note_on_c, 0, 58, 117
2, 83510, Note_on_c, 0, 62, 88
2, 83715, Note_on_c, 0, 58, 0
2, 83735, Note_on_c, 0, 52, 0
2, 83755, Note_on_c, 0, 43, 88
2, 83770, Note_on_c, 0, 62, 0
2, 83885, Note_on_c, 0, 62, 81
2, 83885, Note_on_c, 0, 55, 84
2, 83885, Note_on_c, 0, 50, 82
2, 83885, Note_on_c, 0, 59, 87
2, 83910, Note_on_c, 0, 43, 0
2, 83980, Note_on_c, 0, 55, 0
2, 83990, Note_on_c, 0, 59, 0
2, 83990, Note_on_c, 0, 50, 0
2, 84020, Note_on_c, 0, 62, 0
2, 84115, Note_on_c, 0, 62, 83
2, 84125, Note_on_c, 0, 59, 90
2, 84125, Note_on_c, 0, 55, 85
2, 84125, Note_on_c, 0, 50, 88
2, 84250, Note_on_c, 0, 43, 74
2, 84270, Note_on_c, 0, 43, 0
2, 84360, Note_on_c, 0, 43, 83
2, 84390, Note_on_c, 0, 50, 0
2, 84395, Note_on_c, 0, 59, 0
2, 84400, Note_on_c, 0, 55, 0
2, 84415, Note_on_c, 0, 62, 0
2, 84415, Note_on_c, 0, 43, 0
2, 84475, Note_on_c, 0, 43, 127
2, 84720, Note_on_c, 0, 58, 94
2, 84720, Note_on_c, 0, 52, 97
2, 84720, Note_on_c, 0, 62, 92
2, 84740, Note_on_c, 0, 43, 0
2, 84845, Note_on_c, 0, 59, 89
2, 84900, Note_on_c, 0, 58, 0
2, 84910, Note_on_c, 0, 59, 0
2, 84920, Note_on_c, 0, 52, 0
2, 84955, Note_on_c, 0, 43, 90
2, 84970, Note_on_c, 0, 62, 0
2, 85075, Note_on_c, 0, 62, 88
2, 85075, Note_on_c, 0, 50, 89
2, 85075, Note_on_c, 0, 55, 90
2, 85075, Note_on_c, 0, 59, 93
2, 85180, Note_on_c, 0, 50, 0
2, 85195, Note_on_c, 0, 55, 0
2, 85215, Note_on_c, 0, 59, 0
2, 85245, Note_on_c, 0, 43, 0
2, 85250, Note_on_c, 0, 62, 0
2, 85325, Note_on_c, 0, 43, 107
2, 85385, Note_on_c, 0, 43, 0
2, 85435, Note_on_c, 0, 58, 112
2, 85435, Note_on_c, 0, 50, 85
2, 85445, Note_on_c, 0, 62, 86
2, 85565, Note_on_c, 0, 59, 89
2, 85580, Note_on_c, 0, 58, 0
2, 85590, Note_on_c, 0, 50, 0
2, 85625, Note_on_c, 0, 59, 0
2, 85675, Note_on_c, 0, 43, 90
2, 85690, Note_on_c, 0, 62, 0
2, 85795, Note_on_c, 0, 55, 103
2, 85795, Note_on_c, 0, 52, 97
2, 85795, Note_on_c, 0, 62, 91
2, 85805, Note_on_c, 0, 59, 97
2, 85855, Note_on_c, 0, 59, 0
2, 85905, Note_on_c, 0, 55, 0
2, 85910, Note_on_c, 0, 52, 0
2, 85925, Note_on_c, 0, 62, 0
2, 85970, Note_on_c, 0, 43, 0
2, 86035, Note_on_c, 0, 62, 81
2, 86040, Note_on_c, 0, 59, 93
2, 86040, Note_on_c, 0, 55, 88
2, 86040, Note_on_c, 0, 52, 89
2, 86155, Note_on_c, 0, 43, 96
2, 86175, Note_on_c, 0, 52, 0
2, 86210, Note_on_c, 0, 55, 0
2, 86215, Note_on_c, 0, 43, 0
2, 86270, Note_on_c, 0, 52, 83
2, 86270, Note_on_c, 0, 55, 64
2, 86320, Note_on_c, 0, 55, 0
2, 86340, Note_on_c, 0, 59, 0
2, 86350, Note_on_c, 0, 62, 0
2, 86380, Note_on_c, 0, 52, 0
2, 86395, Note_on_c, 0, 38, 93
2, 86395, Note_on_c, 0, 50, 107
2, 86610, Note_on_c, 0, 38, 0
2, 86630, Note_on_c, 0, 50, 0
2, 86635, Note_on_c, 0, 71, 96
2, 86640, Note_on_c, 0, 60, 112
2, 86640, Note_on_c, 0, 66, 117
2, 86640, Note_on_c, 0, 64, 108
2, 86680, Note_on_c, 0, 64, 0
2, 86690, Note_on_c, 0, 60, 0
2, 86695, Note_on_c, 0, 66, 0
2, 86700, Note_on_c, 0, 71, 0
2, 86880, Note_on_c, 0, 50, 95
2, 86980, Note_on_c, 0, 50, 0
2, 87000, Note_on_c, 0, 69, 93
2, 87005, Note_on_c, 0, 66, 87
2, 87005, Note_on_c, 0, 60, 84
2, 87010, Note_on_c, 0, 64, 93
2, 87040, Note_on_c, 0, 64, 0
2, 87050, Note_on_c, 0, 66, 0
2, 87060, Note_on_c, 0, 60, 0
2, 87070, Note_on_c, 0, 69, 0
2, 87245, Note_on_c, 0, 50, 112
2, 87310, Note_on_c, 0, 50, 0
2, 87360, Note_on_c, 0, 71, 87
2, 87360, Note_on_c, 0, 66, 127
2, 87360, Note_on_c, 0, 60, 98
2, 87360, Note_on_c, 0, 64, 108
2, 87395, Note_on_c, 0, 64, 0
2, 87410, Note_on_c, 0, 66, 0
2, 87415, Note_on_c, 0, 60, 0
2, 87435, Note_on_c, 0, 71, 0
2, 87475, Note_on_c, 0, 71, 73
2, 87475, Note_on_c, 0, 60, 76
2, 87475, Note_on_c, 0, 66, 80
2, 87485, Note_on_c, 0, 64, 82
2, 87560, Note_on_c, 0, 64, 0
2, 87570, Note_on_c, 0, 66, 0
2, 87570, Note_on_c, 0, 60, 0
2, 87585, Note_on_c, 0, 71, 0
2, 87590, Note_on_c, 0, 50, 107
2, 87690, Note_on_c, 0, 50, 0
2, 87715, Note_on_c, 0, 66, 109
2, 87715, Note_on_c, 0, 69, 89
2, 87715, Note_on_c, 0, 60, 96
2, 87715, Note_on_c, 0, 64, 105
2, 87755, Note_on_c, 0, 64, 0
2, 87765, Note_on_c, 0, 66, 0
2, 87770, Note_on_c, 0, 60, 0
2, 87775, Note_on_c, 0, 69, 0
2, 87955, Note_on_c, 0, 69, 96
2, 87955, Note_on_c, 0, 66, 120
2, 87955, Note_on_c, 0, 60, 99
2, 87955, Note_on_c, 0, 64, 108
2, 88005, Note_on_c, 0, 64, 0
2, 88015, Note_on_c, 0, 66, 0
2, 88020, Note_on_c, 0, 60, 0
2, 88035, Note_on_c, 0, 69, 0
2, 88075, Note_on_c, 0, 50, 86
2, 88150, Note_on_c, 0, 50, 0
2, 88195, Note_on_c, 0, 45, 82
2, 88290, Note_on_c, 0, 45, 0
2, 88315, Note_on_c, 0, 38, 108
2, 88555, Note_on_c, 0, 71, 86
2, 88555, Note_on_c, 0, 60, 98
2, 88555, Note_on_c, 0, 66, 107
2, 88560, Note_on_c, 0, 38, 0
2, 88560, Note_on_c, 0, 64, 95
2, 88580, Note_on_c, 0, 64, 0
2, 88605, Note_on_c, 0, 66, 0
2, 88610, Note_on_c, 0, 60, 0
2, 88630, Note_on_c, 0, 71, 0
2, 88795, Note_on_c, 0, 50, 97
2, 88915, Note_on_c, 0, 69, 87
2, 88920, Note_on_c, 0, 60, 90
2, 88920, Note_on_c, 0, 66, 96
2, 88920, Note_on_c, 0, 64, 89
2, 88960, Note_on_c, 0, 64, 0
2, 88970, Note_on_c, 0, 66, 0
2, 88980, Note_on_c, 0, 60, 0
2, 89025, Note_on_c, 0, 69, 0
2, 89035, Note_on_c, 0, 50, 0
2, 89165, Note_on_c, 0, 50, 93
2, 89245, Note_on_c, 0, 50, 0
2, 89280, Note_on_c, 0, 71, 92
2, 89285, Note_on_c, 0, 60, 107
2, 89285, Note_on_c, 0, 64, 112
2, 89285, Note_on_c, 0, 66, 122
2, 89330, Note_on_c, 0, 66, 0
2, 89330, Note_on_c, 0, 64, 0
2, 89340, Note_on_c, 0, 60, 0
2, 89350, Note_on_c, 0, 71, 0
2, 89395, Note_on_c, 0, 71, 81
2, 89405, Note_on_c, 0, 64, 82
2, 89405, Note_on_c, 0, 60, 80
2, 89405, Note_on_c, 0, 66, 80
2, 89480, Note_on_c, 0, 64, 0
2, 89485, Note_on_c, 0, 60, 0
2, 89495, Note_on_c, 0, 71, 0
2, 89500, Note_on_c, 0, 66, 0
2, 89515, Note_on_c, 0, 50, 122
2, 89645, Note_on_c, 0, 60, 101
2, 89645, Note_on_c, 0, 69, 94
2, 89645, Note_on_c, 0, 66, 117
2, 89650, Note_on_c, 0, 64, 112
2, 89690, Note_on_c, 0, 64, 0
2, 89690, Note_on_c, 0, 66, 0
2, 89710, Note_on_c, 0, 69, 0
2, 89710, Note_on_c, 0, 60, 0
2, 89815, Note_on_c, 0, 50, 0
2, 89885, Note_on_c, 0, 69, 92
2, 89885, Note_on_c, 0, 60, 95
2, 89885, Note_on_c, 0, 66, 98
2, 89890, Note_on_c, 0, 64, 96
2, 89950, Note_on_c, 0, 64, 0
2, 89955, Note_on_c, 0, 66, 0
2, 89970, Note_on_c, 0, 60, 0
2, 90000, Note_on_c, 0, 50, 95
2, 90050, Note_on_c, 0, 69, 0
2, 90125, Note_on_c, 0, 60, 82
2, 90155, Note_on_c, 0, 50, 0
2, 90180, Note_on_c, 0, 60, 0
2, 90235, Note_on_c, 0, 43, 108
2, 90475, Note_on_c, 0, 64, 117
2, 90475, Note_on_c, 0, 67, 98
2, 90475, Note_on_c, 0, 59, 109
2, 90490, Note_on_c, 0, 43, 0
2, 90525, Note_on_c, 0, 59, 0
2, 90530, Note_on_c, 0, 67, 0
2, 90530, Note_on_c, 0, 64, 0
2, 90720, Note_on_c, 0, 43, 93
2, 90835, Note_on_c, 0, 59, 95
2, 90845, Note_on_c, 0, 62, 122
2, 90845, Note_on_c, 0, 67, 93
2, 90875, Note_on_c, 0, 62, 0
2, 90890, Note_on_c, 0, 67, 0
2, 90890, Note_on_c, 0, 59, 0
2, 90945, Note_on_c, 0, 43, 0
2, 91085, Note_on_c, 0, 43, 107
2, 91195, Note_on_c, 0, 64, 109
2, 91195, Note_on_c, 0, 67, 97
2, 91205, Note_on_c, 0, 59, 103
2, 91245, Note_on_c, 0, 64, 0
2, 91250, Note_on_c, 0, 59, 0
2, 91255, Note_on_c, 0, 67, 0
2, 91320, Note_on_c, 0, 43, 0
2, 91325, Note_on_c, 0, 67, 82
2, 91325, Note_on_c, 0, 59, 90
2, 91325, Note_on_c, 0, 64, 83
2, 91370, Note_on_c, 0, 64, 0
2, 91390, Note_on_c, 0, 59, 0
2, 91390, Note_on_c, 0, 67, 0
2, 91440, Note_on_c, 0, 43, 82
2, 91565, Note_on_c, 0, 59, 99
2, 91565, Note_on_c, 0, 62, 103
2, 91565, Note_on_c, 0, 67, 94
2, 91590, Note_on_c, 0, 43, 0
2, 91615, Note_on_c, 0, 62, 0
2, 91630, Note_on_c, 0, 59, 0
2, 91630, Note_on_c, 0, 67, 0
2, 91795, Note_on_c, 0, 67, 96
2, 91795, Note_on_c, 0, 59, 103
2, 91795, Note_on_c, 0, 62, 107
2, 91915, Note_on_c, 0, 43, 92
2, 91930, Note_on_c, 0, 62, 0
2, 91930, Note_on_c, 0, 59, 0
2, 91960, Note_on_c, 0, 67, 0
2, 92010, Note_on_c, 0, 43, 0
2, 92040, Note_on_c, 0, 38, 81
2, 92110, Note_on_c, 0, 38, 0
2, 92165, Note_on_c, 0, 31, 105
2, 92390, Note_on_c, 0, 31, 0
2, 92400, Note_on_c, 0, 64, 120
2, 92400, Note_on_c, 0, 67, 94
2, 92400, Note_on_c, 0, 59, 108
2, 92405, Note_on_c, 0, 62, 89
2, 92415, Note_on_c, 0, 62, 0
2, 92450, Note_on_c, 0, 64, 0
2, 92450, Note_on_c, 0, 67, 0
2, 92455, Note_on_c, 0, 59, 0
2, 92630, Note_on_c, 0, 43, 94
2, 92755, Note_on_c, 0, 67, 89
2, 92755, Note_on_c, 0, 62, 120
2, 92755, Note_on_c, 0, 59, 99
2, 92800, Note_on_c, 0, 62, 0
2, 92805, Note_on_c, 0, 67, 0
2, 92810, Note_on_c, 0, 59, 0
2, 92845, Note_on_c, 0, 43, 0
2, 93000, Note_on_c, 0, 43, 120
2, 93120, Note_on_c, 0, 64, 115
2, 93120, Note_on_c, 0, 67, 96
2, 93120, Note_on_c, 0, 59, 94
2, 93130, Note_on_c, 0, 43, 0
2, 93170, Note_on_c, 0, 64, 0
2, 93170, Note_on_c, 0, 67, 0
2, 93175, Note_on_c, 0, 59, 0
2, 93245, Note_on_c, 0, 67, 84
2, 93245, Note_on_c, 0, 64, 82
2, 93245, Note_on_c, 0, 59, 82
2, 93320, Note_on_c, 0, 59, 0
2, 93320, Note_on_c, 0, 64, 0
2, 93325, Note_on_c, 0, 67, 0
2, 93355, Note_on_c, 0, 43, 89
2, 93470, Note_on_c, 0, 43, 0
2, 93480, Note_on_c, 0, 59, 98
2, 93480, Note_on_c, 0, 62, 103
2, 93480, Note_on_c, 0, 67, 85
2, 93530, Note_on_c, 0, 62, 0
2, 93545, Note_on_c, 0, 67, 0
2, 93545, Note_on_c, 0, 59, 0
2, 93720, Note_on_c, 0, 67, 83
2, 93720, Note_on_c, 0, 62, 85
2, 93720, Note_on_c, 0, 59, 87
2, 93770, Note_on_c, 0, 62, 0
2, 93770, Note_on_c, 0, 67, 0
2, 93780, Note_on_c, 0, 59, 0
2, 93835, Note_on_c, 0, 43, 108
2, 93940, Note_on_c, 0, 43, 0
2, 93955, Note_on_c, 0, 59, 92
2, 94000, Note_on_c, 0, 59, 0
2, 94075, Note_on_c, 0, 38, 98
2, 94300, Note_on_c, 0, 38, 0
2, 94315, Note_on_c, 0, 60, 107
2, 94315, Note_on_c, 0, 71, 95
2, 94315, Note_on_c, 0, 64, 109
2, 94315, Note_on_c, 0, 66, 115
2, 94345, Note_on_c, 0, 64, 0
2, 94350, Note_on_c, 0, 66, 0
2, 94365, Note_on_c, 0, 71, 0
2, 94370, Note_on_c, 0, 60, 0
2, 94555, Note_on_c, 0, 50, 101
2, 94675, Note_on_c, 0, 60, 92
2, 94675, Note_on_c, 0, 69, 96
2, 94680, Note_on_c, 0, 66, 108
2, 94680, Note_on_c, 0, 64, 99
2, 94720, Note_on_c, 0, 64, 0
2, 94725, Note_on_c, 0, 66, 0
2, 94775, Note_on_c, 0, 50, 0
2, 94785, Note_on_c, 0, 60, 0
2, 94820, Note_on_c, 0, 69, 0
2, 94915, Note_on_c, 0, 50, 112
2, 94970, Note_on_c, 0, 50, 0
2, 95030, Note_on_c, 0, 71, 93
2, 95035, Note_on_c, 0, 60, 95
2, 95040, Note_on_c, 0, 66, 108
2, 95040, Note_on_c, 0, 64, 99
2, 95080, Note_on_c, 0, 64, 0
2, 95080, Note_on_c, 0, 66, 0
2, 95095, Note_on_c, 0, 60, 0
2, 95110, Note_on_c, 0, 71, 0
2, 95155, Note_on_c, 0, 71, 80
2, 95155, Note_on_c, 0, 60, 76
2, 95160, Note_on_c, 0, 64, 80
2, 95230, Note_on_c, 0, 64, 0
2, 95250, Note_on_c, 0, 60, 0
2, 95255, Note_on_c, 0, 71, 0
2, 95275, Note_on_c, 0, 50, 117
2, 95390, Note_on_c, 0, 50, 0
2, 95395, Note_on_c, 0, 69, 87
2, 95395, Note_on_c, 0, 60, 86
2, 95395, Note_on_c, 0, 66, 98
2, 95400, Note_on_c, 0, 64, 89
2, 95430, Note_on_c, 0, 64, 0
2, 95445, Note_on_c, 0, 66, 0
2, 95455, Note_on_c, 0, 60, 0
2, 95455, Note_on_c, 0, 69, 0
2, 95645, Note_on_c, 0, 69, 96
2, 95645, Note_on_c, 0, 66, 122
2, 95645, Note_on_c, 0, 60, 107
2, 95645, Note_on_c, 0, 64, 117
2, 95705, Note_on_c, 0, 64, 0
2, 95715, Note_on_c, 0, 66, 0
2, 95750, Note_on_c, 0, 60, 0
2, 95765, Note_on_c, 0, 50, 83
2, 95770, Note_on_c, 0, 69, 0
2, 95850, Note_on_c, 0, 50, 0
2, 95880, Note_on_c, 0, 45, 87
2, 95975, Note_on_c, 0, 45, 0
2, 96005, Note_on_c, 0, 38, 115
2, 96230, Note_on_c, 0, 38, 0
2, 96245, Note_on_c, 0, 60, 112
2, 96245, Note_on_c, 0, 71, 91
2, 96245, Note_on_c, 0, 64, 117
2, 96245, Note_on_c, 0, 66, 127
2, 96285, Note_on_c, 0, 64, 0
2, 96295, Note_on_c, 0, 66, 0
2, 96310, Note_on_c, 0, 71, 0
2, 96315, Note_on_c, 0, 60, 0
2, 96485, Note_on_c, 0, 50, 109
2, 96605, Note_on_c, 0, 69, 82
2, 96605, Note_on_c, 0, 60, 101
2, 96605, Note_on_c, 0, 66, 108
2, 96605, Note_on_c, 0, 64, 107
2, 96650, Note_on_c, 0, 64, 0
2, 96650, Note_on_c, 0, 66, 0
2, 96670, Note_on_c, 0, 50, 0
2, 96670, Note_on_c, 0, 69, 0
2, 96690, Note_on_c, 0, 60, 0
2, 96835, Note_on_c, 0, 50, 112
2, 96890, Note_on_c, 0, 50, 0
2, 96965, Note_on_c, 0, 71, 91
2, 96965, Note_on_c, 0, 60, 98
2, 96965, Note_on_c, 0, 66, 117
2, 96965, Note_on_c, 0, 64, 108
2, 97005, Note_on_c, 0, 64, 0
2, 97010, Note_on_c, 0, 66, 0
2, 97015, Note_on_c, 0, 60, 0
2, 97015, Note_on_c, 0, 71, 0
2, 97080, Note_on_c, 0, 71, 80
2, 97080, Note_on_c, 0, 60, 81
2, 97085, Note_on_c, 0, 64, 83
2, 97085, Note_on_c, 0, 66, 81
2, 97150, Note_on_c, 0, 64, 0
2, 97160, Note_on_c, 0, 66, 0
2, 97160, Note_on_c, 0, 71, 0
2, 97170, Note_on_c, 0, 60, 0
2, 97205, Note_on_c, 0, 50, 120
2, 97300, Note_on_c, 0, 50, 0
2, 97325, Note_on_c, 0, 60, 84
2, 97325, Note_on_c, 0, 69, 92
2, 97325, Note_on_c, 0, 66, 103
2, 97325, Note_on_c, 0, 64, 92
2, 97370, Note_on_c, 0, 64, 0
2, 97385, Note_on_c, 0, 66, 0
2, 97390, Note_on_c, 0, 60, 0
2, 97400, Note_on_c, 0, 69, 0
2, 97555, Note_on_c, 0, 69, 92
2, 97555, Note_on_c, 0, 60, 88
2, 97560, Note_on_c, 0, 66, 90
2, 97560, Note_on_c, 0, 64, 89
2, 97645, Note_on_c, 0, 64, 0
2, 97645, Note_on_c, 0, 66, 0
2, 97650, Note_on_c, 0, 60, 0
2, 97685, Note_on_c, 0, 50, 86
2, 97750, Note_on_c, 0, 69, 0
2, 97795, Note_on_c, 0, 60, 82
2, 97840, Note_on_c, 0, 50, 0
2, 97845, Note_on_c, 0, 60, 0
2, 97915, Note_on_c, 0, 43, 98
2, 98155, Note_on_c, 0, 64, 122
2, 98155, Note_on_c, 0, 67, 97
2, 98155, Note_on_c, 0, 59, 117
2, 98195, Note_on_c, 0, 43, 0
2, 98210, Note_on_c, 0, 64, 0
2, 98210, Note_on_c, 0, 67, 0
2, 98210, Note_on_c, 0, 59, 0
2, 98395, Note_on_c, 0, 43, 83
2, 98520, Note_on_c, 0, 59, 98
2, 98520, Note_on_c, 0, 67, 89
2, 98520, Note_on_c, 0, 62, 109
2, 98570, Note_on_c, 0, 62, 0
2, 98590, Note_on_c, 0, 59, 0
2, 98595, Note_on_c, 0, 67, 0
2, 98635, Note_on_c, 0, 43, 0
2, 98755, Note_on_c, 0, 43, 97
2, 98875, Note_on_c, 0, 67, 98
2, 98875, Note_on_c, 0, 64, 109
2, 98880, Note_on_c, 0, 59, 107
2, 98920, Note_on_c, 0, 43, 0
2, 98930, Note_on_c, 0, 64, 0
2, 98940, Note_on_c, 0, 67, 0
2, 98940, Note_on_c, 0, 59, 0
2, 99005, Note_on_c, 0, 67, 83
2, 99005, Note_on_c, 0, 59, 84
2, 99005, Note_on_c, 0, 64, 82
2, 99080, Note_on_c, 0, 64, 0
2, 99090, Note_on_c, 0, 59, 0
2, 99090, Note_on_c, 0, 67, 0
2, 99110, Note_on_c, 0, 43, 77
2, 99150, Note_on_c, 0, 43, 0
2, 99240, Note_on_c, 0, 67, 94
2, 99245, Note_on_c, 0, 59, 101
2, 99245, Note_on_c, 0, 62, 94
2, 99285, Note_on_c, 0, 62, 0
2, 99300, Note_on_c, 0, 59, 0
2, 99310, Note_on_c, 0, 67, 0
2, 99365, Note_on_c, 0, 43, 81
2, 99415, Note_on_c, 0, 43, 0
2, 99485, Note_on_c, 0, 67, 86
2, 99485, Note_on_c, 0, 59, 92
2, 99485, Note_on_c, 0, 62, 96
2, 99520, Note_on_c, 0, 62, 0
2, 99520, Note_on_c, 0, 59, 0
2, 99530, Note_on_c, 0, 67, 0
2, 99725, Note_on_c, 0, 43, 83
2, 99810, Note_on_c, 0, 43, 0
2, 99845, Note_on_c, 0, 59, 112
2, 99845, Note_on_c, 0, 62, 112
2, 99850, Note_on_c, 0, 67, 86
2, 99875, Note_on_c, 0, 67, 0
2, 99885, Note_on_c, 0, 62, 0
2, 99905, Note_on_c, 0, 59, 0
2, 100075, Note_on_c, 0, 67, 99
2, 100075, Note_on_c, 0, 64, 109
2, 100075, Note_on_c, 0, 59, 117
2, 100135, Note_on_c, 0, 67, 0
2, 100155, Note_on_c, 0, 59, 0
2, 100185, Note_on_c, 0, 64, 0
2, 100315, Note_on_c, 0, 43, 87
2, 100435, Note_on_c, 0, 67, 85
2, 100435, Note_on_c, 0, 62, 109
2, 100435, Note_on_c, 0, 59, 101
2, 100470, Note_on_c, 0, 62, 0
2, 100490, Note_on_c, 0, 59, 0
2, 100490, Note_on_c, 0, 67, 0
2, 100575, Note_on_c, 0, 43, 0
2, 100675, Note_on_c, 0, 43, 108
2, 100755, Note_on_c, 0, 43, 0
2, 100800, Note_on_c, 0, 67, 98
2, 100805, Note_on_c, 0, 64, 112
2, 100805, Note_on_c, 0, 59, 105
2, 100845, Note_on_c, 0, 64, 0
2, 100850, Note_on_c, 0, 59, 0
2, 100850, Note_on_c, 0, 67, 0
2, 100925, Note_on_c, 0, 67, 73
2, 100925, Note_on_c, 0, 64, 76
2, 100930, Note_on_c, 0, 59, 68
2, 100970, Note_on_c, 0, 59, 0
2, 100970, Note_on_c, 0, 64, 0
2, 100985, Note_on_c, 0, 67, 0
2, 101035, Note_on_c, 0, 43, 84
2, 101105, Note_on_c, 0, 43, 0
2, 101160, Note_on_c, 0, 67, 83
2, 101160, Note_on_c, 0, 59, 85
2, 101160, Note_on_c, 0, 62, 93
2, 101185, Note_on_c, 0, 62, 0
2, 101200, Note_on_c, 0, 59, 0
2, 101210, Note_on_c, 0, 67, 0
2, 101405, Note_on_c, 0, 62, 101
2, 101405, Note_on_c, 0, 67, 82
2, 101405, Note_on_c, 0, 59, 95
2, 101435, Note_on_c, 0, 62, 0
2, 101450, Note_on_c, 0, 59, 0
2, 101450, Note_on_c, 0, 67, 0
2, 101510, Note_on_c, 0, 43, 90
2, 101550, Note_on_c, 0, 43, 0
2, 101760, Note_on_c, 0, 47, 95
2, 101760, Note_on_c, 0, 35, 96
2, 101995, Note_on_c, 0, 50, 120
2, 101995, Note_on_c, 0, 59, 107
2, 102000, Note_on_c, 0, 47, 0
2, 102030, Note_on_c, 0, 35, 0
2, 102115, Note_on_c, 0, 51, 87
2, 102150, Note_on_c, 0, 50, 0
2, 102190, Note_on_c, 0, 51, 0
2, 102190, Note_on_c, 0, 59, 0
2, 102245, Note_on_c, 0, 47, 85
2, 102305, Note_on_c, 0, 47, 0
2, 102360, Note_on_c, 0, 59, 89
2, 102360, Note_on_c, 0, 51, 105
2, 102360, Note_on_c, 0, 54, 93
2, 102405, Note_on_c, 0, 54, 0
2, 102410, Note_on_c, 0, 51, 0
2, 102430, Note_on_c, 0, 59, 0
2, 102590, Note_on_c, 0, 47, 95
2, 102670, Note_on_c, 0, 47, 0
2, 102710, Note_on_c, 0, 59, 95
2, 102715, Note_on_c, 0, 50, 120
2, 102835, Note_on_c, 0, 51, 88
2, 102840, Note_on_c, 0, 50, 0
2, 102910, Note_on_c, 0, 51, 0
2, 102910, Note_on_c, 0, 59, 0
2, 102950, Note_on_c, 0, 47, 90
2, 103075, Note_on_c, 0, 51, 120
2, 103075, Note_on_c, 0, 59, 90
2, 103075, Note_on_c, 0, 54, 108
2, 103080, Note_on_c, 0, 47, 0
2, 103130, Note_on_c, 0, 51, 0
2, 103130, Note_on_c, 0, 54, 0
2, 103135, Note_on_c, 0, 59, 0
2, 103190, Note_on_c, 0, 47, 79
2, 103230, Note_on_c, 0, 47, 0
2, 103310, Note_on_c, 0, 59, 91
2, 103310, Note_on_c, 0, 54, 117
2, 103310, Note_on_c, 0, 51, 120
2, 103400, Note_on_c, 0, 51, 0
2, 103400, Note_on_c, 0, 54, 0
2, 103410, Note_on_c, 0, 59, 0
2, 103435, Note_on_c, 0, 47, 96
2, 103550, Note_on_c, 0, 51, 96
2, 103550, Note_on_c, 0, 54, 101
2, 103550, Note_on_c, 0, 59, 89
2, 103600, Note_on_c, 0, 59, 0
2, 103600, Note_on_c, 0, 54, 0
2, 103600, Note_on_c, 0, 51, 0
2, 103670, Note_on_c, 0, 35, 92
2, 103890, Note_on_c, 0, 47, 0
2, 103910, Note_on_c, 0, 50, 109
2, 103910, Note_on_c, 0, 59, 96
2, 104030, Note_on_c, 0, 51, 69
2, 104045, Note_on_c, 0, 50, 0
2, 104110, Note_on_c, 0, 51, 0
2, 104115, Note_on_c, 0, 59, 0
2, 104155, Note_on_c, 0, 35, 0
2, 104155, Note_on_c, 0, 47, 97
2, 104270, Note_on_c, 0, 59, 92
2, 104270, Note_on_c, 0, 54, 117
2, 104270, Note_on_c, 0, 51, 112
2, 104305, Note_on_c, 0, 47, 0
2, 104340, Note_on_c, 0, 51, 0
2, 104345, Note_on_c, 0, 54, 0
2, 104350, Note_on_c, 0, 59, 0
2, 104515, Note_on_c, 0, 47, 98
2, 104570, Note_on_c, 0, 47, 0
2, 104630, Note_on_c, 0, 59, 96
2, 104630, Note_on_c, 0, 50, 112
2, 104750, Note_on_c, 0, 51, 81
2, 104760, Note_on_c, 0, 50, 0
2, 104830, Note_on_c, 0, 51, 0
2, 104830, Note_on_c, 0, 59, 0
2, 104875, Note_on_c, 0, 47, 94
2, 104915, Note_on_c, 0, 47, 0
2, 104995, Note_on_c, 0, 51, 122
2, 104995, Note_on_c, 0, 59, 86
2, 104995, Note_on_c, 0, 54, 96
2, 105020, Note_on_c, 0, 54, 0
2, 105025, Note_on_c, 0, 51, 0
2, 105045, Note_on_c, 0, 59, 0
2, 105235, Note_on_c, 0, 59, 107
2, 105235, Note_on_c, 0, 51, 127
2, 105235, Note_on_c, 0, 54, 127
2, 105290, Note_on_c, 0, 51, 0
2, 105350, Note_on_c, 0, 47, 83
2, 105550, Note_on_c, 0, 54, 0
2, 105565, Note_on_c, 0, 47, 0
2, 105570, Note_on_c, 0, 59, 0
2, 105590, Note_on_c, 0, 40, 99
2, 105815, Note_on_c, 0, 40, 0
2, 105830, Note_on_c, 0, 59, 98
2, 105830, Note_on_c, 0, 55, 96
2, 105830, Note_on_c, 0, 50, 96
2, 105950, Note_on_c, 0, 55, 0
2, 105955, Note_on_c, 0, 56, 81
2, 106040, Note_on_c, 0, 56, 0
2, 106045, Note_on_c, 0, 50, 0
2, 106065, Note_on_c, 0, 59, 0
2, 106070, Note_on_c, 0, 47, 85
2, 106130, Note_on_c, 0, 47, 0
2, 106195, Note_on_c, 0, 56, 89
2, 106195, Note_on_c, 0, 50, 99
2, 106195, Note_on_c, 0, 59, 96
2, 106255, Note_on_c, 0, 56, 0
2, 106260, Note_on_c, 0, 59, 0
2, 106265, Note_on_c, 0, 50, 0
2, 106440, Note_on_c, 0, 40, 85
2, 106530, Note_on_c, 0, 40, 0
2, 106555, Note_on_c, 0, 55, 109
2, 106555, Note_on_c, 0, 50, 103
2, 106555, Note_on_c, 0, 59, 96
2, 106660, Note_on_c, 0, 55, 0
2, 106675, Note_on_c, 0, 56, 78
2, 106770, Note_on_c, 0, 56, 0
2, 106770, Note_on_c, 0, 59, 0
2, 106795, Note_on_c, 0, 50, 0
2, 106795, Note_on_c, 0, 40, 76
2, 106870, Note_on_c, 0, 40, 0
2, 106920, Note_on_c, 0, 56, 86
2, 106925, Note_on_c, 0, 59, 97
2, 106925, Note_on_c, 0, 50, 95
2, 106940, Note_on_c, 0, 40, 65
2, 106970, Note_on_c, 0, 40, 0
2, 106985, Note_on_c, 0, 56, 0
2, 106990, Note_on_c, 0, 59, 0
2, 107000, Note_on_c, 0, 50, 0
2, 107160, Note_on_c, 0, 56, 86
2, 107165, Note_on_c, 0, 59, 97
2, 107165, Note_on_c, 0, 50, 90
2, 107280, Note_on_c, 0, 50, 0
2, 107280, Note_on_c, 0, 59, 0
2, 107280, Note_on_c, 0, 56, 0
2, 107280, Note_on_c, 0, 40, 94
2, 107355, Note_on_c, 0, 40, 0
2, 107405, Note_on_c, 0, 40, 112
2, 107520, Note_on_c, 0, 28, 87
2, 107630, Note_on_c, 0, 40, 0
2, 107755, Note_on_c, 0, 55, 97
2, 107755, Note_on_c, 0, 50, 99
2, 107755, Note_on_c, 0, 59, 97
2, 107865, Note_on_c, 0, 55, 0
2, 107875, Note_on_c, 0, 56, 81
2, 107960, Note_on_c, 0, 59, 0
2, 107970, Note_on_c, 0, 56, 0
2, 107975, Note_on_c, 0, 50, 0
2, 107995, Note_on_c, 0, 40, 96
2, 108005, Note_on_c, 0, 28, 0
2, 108115, Note_on_c, 0, 56, 88
2, 108115, Note_on_c, 0, 50, 96
2, 108115, Note_on_c, 0, 59, 101
2, 108145, Note_on_c, 0, 40, 0
2, 108220, Note_on_c, 0, 56, 0
2, 108220, Note_on_c, 0, 59, 0
2, 108230, Note_on_c, 0, 50, 0
2, 108355, Note_on_c, 0, 40, 99
2, 108405, Note_on_c, 0, 40, 0
2, 108470, Note_on_c, 0, 55, 96
2, 108470, Note_on_c, 0, 59, 88
2, 108470, Note_on_c, 0, 50, 90
2, 108595, Note_on_c, 0, 55, 0
2, 108595, Note_on_c, 0, 56, 84
2, 108690, Note_on_c, 0, 56, 0
2, 108710, Note_on_c, 0, 59, 0
2, 108710, Note_on_c, 0, 40, 98
2, 108715, Note_on_c, 0, 50, 0
2, 108785, Note_on_c, 0, 40, 0
2, 108835, Note_on_c, 0, 59, 101
2, 108835, Note_on_c, 0, 56, 86
2, 108835, Note_on_c, 0, 50, 93
2, 108925, Note_on_c, 0, 56, 0
2, 108925, Note_on_c, 0, 59, 0
2, 108945, Note_on_c, 0, 50, 0
2, 109075, Note_on_c, 0, 50, 92
2, 109075, Note_on_c, 0, 56, 83
2, 109075, Note_on_c, 0, 59, 99
2, 109190, Note_on_c, 0, 40, 84
2, 109200, Note_on_c, 0, 50, 0
2, 109295, Note_on_c, 0, 59, 0
2, 109300, Note_on_c, 0, 40, 0
2, 109315, Note_on_c, 0, 50, 80
2, 109345, Note_on_c, 0, 56, 0
2, 109390, Note_on_c, 0, 50, 0
2, 109435, Note_on_c, 0, 38, 101
2, 109675, Note_on_c, 0, 62, 97
2, 109675, Note_on_c, 0, 53, 108
2, 109790, Note_on_c, 0, 54, 82
2, 109825, Note_on_c, 0, 53, 0
2, 109870, Note_on_c, 0, 54, 0
2, 109910, Note_on_c, 0, 50, 87
2, 109930, Note_on_c, 0, 62, 0
2, 109970, Note_on_c, 0, 50, 0
2, 110030, Note_on_c, 0, 62, 86
2, 110030, Note_on_c, 0, 57, 97
2, 110035, Note_on_c, 0, 54, 90
2, 110125, Note_on_c, 0, 54, 0
2, 110135, Note_on_c, 0, 57, 0
2, 110210, Note_on_c, 0, 38, 0
2, 110235, Note_on_c, 0, 62, 0
2, 110275, Note_on_c, 0, 50, 70
2, 110285, Note_on_c, 0, 38, 92
2, 110350, Note_on_c, 0, 50, 0
2, 110395, Note_on_c, 0, 53, 103
2, 110395, Note_on_c, 0, 62, 95
2, 110520, Note_on_c, 0, 54, 77
2, 110560, Note_on_c, 0, 53, 0
2, 110580, Note_on_c, 0, 54, 0
2, 110610, Note_on_c, 0, 62, 0
2, 110640, Note_on_c, 0, 50, 91
2, 110695, Note_on_c, 0, 50, 0
2, 110765, Note_on_c, 0, 62, 86
2, 110765, Note_on_c, 0, 57, 91
2, 110770, Note_on_c, 0, 54, 83
2, 110810, Note_on_c, 0, 57, 0
2, 110815, Note_on_c, 0, 54, 0
2, 110830, Note_on_c, 0, 62, 0
2, 111005, Note_on_c, 0, 50, 105
2, 111035, Note_on_c, 0, 50, 0
2, 111110, Note_on_c, 0, 62, 89
2, 111115, Note_on_c, 0, 57, 96
2, 111115, Note_on_c, 0, 54, 89
2, 111115, Note_on_c, 0, 60, 109
2, 111120, Note_on_c, 0, 38, 0
2, 111330, Note_on_c, 0, 57, 0
2, 111345, Note_on_c, 0, 54, 0
2, 111350, Note_on_c, 0, 60, 0
2, 111355, Note_on_c, 0, 38, 95
2, 111355, Note_on_c, 0, 50, 122
2, 111385, Note_on_c, 0, 62, 0
2, 111585, Note_on_c, 0, 50, 0
2, 111595, Note_on_c, 0, 62, 99
2, 111600, Note_on_c, 0, 53, 107
2, 111715, Note_on_c, 0, 54, 80
2, 111730, Note_on_c, 0, 53, 0
2, 111775, Note_on_c, 0, 54, 0
2, 111780, Note_on_c, 0, 62, 0
2, 111835, Note_on_c, 0, 50, 93
2, 111890, Note_on_c, 0, 50, 0
2, 111955, Note_on_c, 0, 62, 90
2, 111955, Note_on_c, 0, 54, 97
2, 111955, Note_on_c, 0, 57, 101
2, 112010, Note_on_c, 0, 54, 0
2, 112025, Note_on_c, 0, 57, 0
2, 112035, Note_on_c, 0, 62, 0
2, 112195, Note_on_c, 0, 50, 109
2, 112255, Note_on_c, 0, 50, 0
2, 112315, Note_on_c, 0, 62, 95
2, 112315, Note_on_c, 0, 53, 109
2, 112430, Note_on_c, 0, 54, 81
2, 112455, Note_on_c, 0, 53, 0
2, 112515, Note_on_c, 0, 54, 0
2, 112520, Note_on_c, 0, 62, 0
2, 112550, Note_on_c, 0, 38, 0
2, 112550, Note_on_c, 0, 50, 101
2, 112675, Note_on_c, 0, 54, 88
2, 112675, Note_on_c, 0, 57, 96
2, 112675, Note_on_c, 0, 62, 72
2, 112770, Note_on_c, 0, 62, 0
2, 112770, Note_on_c, 0, 54, 0
2, 112775, Note_on_c, 0, 50, 0
2, 112780, Note_on_c, 0, 57, 0
2, 112920, Note_on_c, 0, 50, 108
2, 113020, Note_on_c, 0, 50, 0
2, 113030, Note_on_c, 0, 62, 92
2, 113030, Note_on_c, 0, 54, 96
2, 113150, Note_on_c, 0, 57, 89
2, 113160, Note_on_c, 0, 54, 0
2, 113170, Note_on_c, 0, 62, 0
2, 113190, Note_on_c, 0, 57, 0
2, 113270, Note_on_c, 0, 43, 107
2, 113510, Note_on_c, 0, 55, 94
2, 113510, Note_on_c, 0, 52, 93
2, 113510, Note_on_c, 0, 62, 87
2, 113510, Note_on_c, 0, 59, 95
2, 113530, Note_on_c, 0, 43, 0
2, 113640, Note_on_c, 0, 59, 0
2, 113650, Note_on_c, 0, 55, 0
2, 113650, Note_on_c, 0, 52, 0
2, 113655, Note_on_c, 0, 62, 0
2, 113755, Note_on_c, 0, 43, 96
2, 113830, Note_on_c, 0, 43, 0
2, 113870, Note_on_c, 0, 62, 88
2, 113870, Note_on_c, 0, 43, 70
2, 113870, Note_on_c, 0, 55, 86
2, 113870, Note_on_c, 0, 52, 84
2, 113870, Note_on_c, 0, 59, 86
2, 113910, Note_on_c, 0, 59, 0
2, 113910, Note_on_c, 0, 43, 0
2, 113920, Note_on_c, 0, 52, 0
2, 113920, Note_on_c, 0, 55, 0
2, 113930, Note_on_c, 0, 62, 0
2, 114125, Note_on_c, 0, 43, 115
2, 114165, Note_on_c, 0, 43, 0
2, 114230, Note_on_c, 0, 52, 91
2, 114230, Note_on_c, 0, 58, 117
2, 114230, Note_on_c, 0, 62, 88
2, 114435, Note_on_c, 0, 58, 0
2, 114455, Note_on_c, 0, 52, 0
2, 114475, Note_on_c, 0, 43, 88
2, 114490, Note_on_c, 0, 62, 0
2, 114605, Note_on_c, 0, 62, 81
2, 114605, Note_on_c, 0, 55, 84
2, 114605, Note_on_c, 0, 50, 82
2, 114605, Note_on_c, 0, 59, 87
2, 114630, Note_on_c, 0, 43, 0
2, 114700, Note_on_c, 0, 55, 0
2, 114710, Note_on_c, 0, 59, 0
2, 114710, Note_on_c, 0, 50, 0
2, 114740, Note_on_c, 0, 62, 0
2, 114835, Note_on_c, 0, 62, 83
2, 114845, Note_on_c, 0, 59, 90
2, 114845, Note_on_c, 0, 55, 85
2, 114845, Note_on_c, 0, 50, 88
2, 114970, Note_on_c, 0, 43, 74
2, 114990, Note_on_c, 0, 43, 0
2, 115080, Note_on_c, 0, 43, 83
2, 115110, Note_on_c, 0, 50, 0
2, 115115, Note_on_c, 0, 59, 0
2, 115120, Note_on_c, 0, 55, 0
2, 115135, Note_on_c, 0, 62, 0
2, 115135, Note_on_c, 0, 43, 0
2, 115195, Note_on_c, 0, 43, 127
2, 115440, Note_on_c, 0, 58, 94
2, 115440, Note_on_c, 0, 52, 97
2, 115440, Note_on_c, 0, 62, 92
2, 115460, Note_on_c, 0, 43, 0
2, 115565, Note_on_c, 0, 59, 89
2, 115620, Note_on_c, 0, 58, 0
2, 115630, Note_on_c, 0, 59, 0
2, 115640, Note_on_c, 0, 52, 0
2, 115675, Note_on_c, 0, 43, 90
2, 115690, Note_on_c, 0, 62, 0
2, 115795, Note_on_c, 0, 62, 88
2, 115795, Note_on_c, 0, 50, 89
2, 115795, Note_on_c, 0, 55, 90
2, 115795, Note_on_c, 0, 59, 93
2, 115900, Note_on_c, 0, 50, 0
2, 115915, Note_on_c, 0, 55, 0
2, 115935, Note_on_c, 0, 59, 0
2, 115965, Note_on_c, 0, 43, 0
2, 115970, Note_on_c, 0, 62, 0
2, 116045, Note_on_c, 0, 43, 107
2, 116105, Note_on_c, 0, 43, 0
2, 116155, Note_on_c, 0, 58, 112
2, 116155, Note_on_c, 0, 50, 85
2, 116165, Note_on_c, 0, 62, 86
2, 116285, Note_on_c, 0, 59, 89
2, 116300, Note_on_c, 0, 58, 0
2, 116310, Note_on_c, 0, 50, 0
2, 116345, Note_on_c, 0, 59, 0
2, 116395, Note_on_c, 0, 43, 90
2, 116410, Note_on_c, 0, 62, 0
2, 116515, Note_on_c, 0, 55, 103
2, 116515, Note_on_c, 0, 52, 97
2, 116515, Note_on_c, 0, 62, 91
2, 116525, Note_on_c, 0, 59, 97
2, 116575, Note_on_c, 0, 59, 0
2, 116625, Note_on_c, 0, 55, 0
2, 116630, Note_on_c, 0, 52, 0
2, 116645, Note_on_c, 0, 62, 0
2, 116690, Note_on_c, 0, 43, 0
2, 116755, Note_on_c, 0, 62, 81
2, 116760, Note_on_c, 0, 59, 93
2, 116760, Note_on_c, 0, 55, 88
2, 116760, Note_on_c, 0, 52, 89
2, 116875, Note_on_c, 0, 43, 96
2, 116895, Note_on_c, 0, 52, 0
2, 116930, Note_on_c, 0, 55, 0
2, 116935, Note_on_c, 0, 43, 0
2, 116990, Note_on_c, 0, 52, 83
2, 116990, Note_on_c, 0, 55, 64
2, 117040, Note_on_c, 0, 55, 0
2, 117060, Note_on_c, 0, 59, 0
2, 117070, Note_on_c, 0, 62, 0
2, 117100, Note_on_c, 0, 52, 0
2, 117110, Note_on_c, 0, 50, 88
2, 117120, Note_on_c, 0, 60, 83
2, 117120, Note_on_c, 0, 57, 82
2, 117160, Note_on_c, 0, 57, 0
2, 117245, Note_on_c, 0, 60, 0
2, 117250, Note_on_c, 0, 50, 0
2, 117355, Note_on_c, 0, 71, 105
2, 117355, Note_on_c, 0, 66, 126
2, 117355, Note_on_c, 0, 64, 115
2, 117400, Note_on_c, 0, 64, 0
2, 117455, Note_on_c, 0, 71, 0
2, 117465, Note_on_c, 0, 66, 0
2, 117595, Note_on_c, 0, 50, 84
2, 117595, Note_on_c, 0, 60, 81
2, 117600, Note_on_c, 0, 57, 84
2, 117635, Note_on_c, 0, 57, 0
2, 117715, Note_on_c, 0, 64, 96
2, 117715, Note_on_c, 0, 69, 101
2, 117715, Note_on_c, 0, 66, 108
2, 117760, Note_on_c, 0, 66, 0
2, 117775, Note_on_c, 0, 69, 0
2, 117795, Note_on_c, 0, 64, 0
2, 117910, Note_on_c, 0, 50, 0
2, 117950, Note_on_c, 0, 60, 0
2, 117960, Note_on_c, 0, 64, 72
2, 117965, Note_on_c, 0, 57, 80
2, 117990, Note_on_c, 0, 57, 0
2, 118000, Note_on_c, 0, 64, 0
2, 118075, Note_on_c, 0, 50, 86
2, 118080, Note_on_c, 0, 64, 96
2, 118080, Note_on_c, 0, 71, 89
2, 118085, Note_on_c, 0, 60, 80
2, 118085, Note_on_c, 0, 66, 95
2, 118085, Note_on_c, 0, 57, 80
2, 118130, Note_on_c, 0, 57, 0
2, 118130, Note_on_c, 0, 66, 0
2, 118150, Note_on_c, 0, 64, 0
2, 118165, Note_on_c, 0, 71, 0
2, 118190, Note_on_c, 0, 71, 73
2, 118195, Note_on_c, 0, 64, 76
2, 118195, Note_on_c, 0, 66, 81
2, 118285, Note_on_c, 0, 66, 0
2, 118305, Note_on_c, 0, 64, 0
2, 118310, Note_on_c, 0, 71, 0
2, 118325, Note_on_c, 0, 57, 60
2, 118330, Note_on_c, 0, 60, 0
2, 118350, Note_on_c, 0, 50, 0
2, 118415, Note_on_c, 0, 57, 0
2, 118445, Note_on_c, 0, 64, 89
2, 118445, Note_on_c, 0, 66, 86
2, 118445, Note_on_c, 0, 69, 85
2, 118490, Note_on_c, 0, 66, 0
2, 118510, Note_on_c, 0, 69, 0
2, 118520, Note_on_c, 0, 64, 0
2, 118675, Note_on_c, 0, 69, 91
2, 118675, Note_on_c, 0, 66, 92
2, 118675, Note_on_c, 0, 64, 90
2, 118790, Note_on_c, 0, 66, 0
2, 118795, Note_on_c, 0, 64, 0
2, 118800, Note_on_c, 0, 57, 75
2, 118800, Note_on_c, 0, 60, 76
2, 118830, Note_on_c, 0, 69, 0
2, 118910, Note_on_c, 0, 64, 80
2, 118925, Note_on_c, 0, 60, 0
2, 118925, Note_on_c, 0, 57, 0
2, 118980, Note_on_c, 0, 64, 0
2, 119030, Note_on_c, 0, 50, 96
2, 119030, Note_on_c, 0, 60, 89
2, 119030, Note_on_c, 0, 57, 87
2, 119205, Note_on_c, 0, 57, 0
2, 119205, Note_on_c, 0, 60, 0
2, 119210, Note_on_c, 0, 50, 0
2, 119270, Note_on_c, 0, 71, 107
2, 119270, Note_on_c, 0, 64, 101
2, 119270, Note_on_c, 0, 66, 105
2, 119310, Note_on_c, 0, 66, 0
2, 119340, Note_on_c, 0, 64, 0
2, 119340, Note_on_c, 0, 71, 0
2, 119510, Note_on_c, 0, 50, 87
2, 119515, Note_on_c, 0, 57, 89
2, 119515, Note_on_c, 0, 60, 80
2, 119635, Note_on_c, 0, 69, 89
2, 119635, Note_on_c, 0, 64, 83
2, 119640, Note_on_c, 0, 66, 81
2, 119670, Note_on_c, 0, 57, 0
2, 119690, Note_on_c, 0, 66, 0
2, 119710, Note_on_c, 0, 69, 0
2, 119710, Note_on_c, 0, 64, 0
2, 119780, Note_on_c, 0, 50, 0
2, 119840, Note_on_c, 0, 60, 0
2, 119890, Note_on_c, 0, 57, 83
2, 119910, Note_on_c, 0, 57, 0
2, 119990, Note_on_c, 0, 50, 88
2, 119990, Note_on_c, 0, 64, 99
2, 119990, Note_on_c, 0, 71, 92
2, 119990, Note_on_c, 0, 66, 105
2, 119990, Note_on_c, 0, 60, 82
2, 120000, Note_on_c, 0, 57, 82
2, 120030, Note_on_c, 0, 66, 0
2, 120030, Note_on_c, 0, 64, 0
2, 120050, Note_on_c, 0, 71, 0
2, 120110, Note_on_c, 0, 71, 72
2, 120120, Note_on_c, 0, 57, 0
2, 120120, Note_on_c, 0, 66, 74
2, 120120, Note_on_c, 0, 64, 76
2, 120200, Note_on_c, 0, 71, 0
2, 120215, Note_on_c, 0, 64, 0
2, 120220, Note_on_c, 0, 66, 0
2, 120250, Note_on_c, 0, 60, 0
2, 120250, Note_on_c, 0, 57, 78
2, 120280, Note_on_c, 0, 50, 0
2, 120295, Note_on_c, 0, 57, 0
2, 120365, Note_on_c, 0, 64, 96
2, 120365, Note_on_c, 0, 69, 95
2, 120370, Note_on_c, 0, 66, 89
2, 120555, Note_on_c, 0, 66, 0
2, 120560, Note_on_c, 0, 64, 0
2, 120580, Note_on_c, 0, 69, 0
2, 120600, Note_on_c, 0, 57, 83
2, 120600, Note_on_c, 0, 60, 81
2, 120605, Note_on_c, 0, 50, 76
2, 120655, Note_on_c, 0, 50, 0
2, 120675, Note_on_c, 0, 57, 0
2, 120720, Note_on_c, 0, 64, 85
2, 120720, Note_on_c, 0, 66, 84
2, 120720, Note_on_c, 0, 69, 91
2, 120760, Note_on_c, 0, 66, 0
2, 120770, Note_on_c, 0, 64, 0
2, 120790, Note_on_c, 0, 69, 0
2, 120815, Note_on_c, 0, 60, 0
2, 120870, Note_on_c, 0, 69, 82
2, 120900, Note_on_c, 0, 70, 83
2, 120940, Note_on_c, 0, 71, 84
2, 120950, Note_on_c, 0, 70, 0
2, 120950, Note_on_c, 0, 69, 0
2, 120960, Note_on_c, 0, 55, 92
2, 120960, Note_on_c, 0, 62, 90
2, 120970, Note_on_c, 0, 79, 107
2, 120975, Note_on_c, 0, 71, 0
2, 121080, Note_on_c, 0, 79, 0
2, 121105, Note_on_c, 0, 62, 0
2, 121115, Note_on_c, 0, 55, 0
2, 121200, Note_on_c, 0, 81, 103
2, 121200, Note_on_c, 0, 72, 91
2, 121255, Note_on_c, 0, 72, 0
2, 121320, Note_on_c, 0, 81, 0
2, 121320, Note_on_c, 0, 62, 72
2, 121360, Note_on_c, 0, 62, 0
2, 121430, Note_on_c, 0, 73, 99
2, 121440, Note_on_c, 0, 82, 101
2, 121505, Note_on_c, 0, 73, 0
2, 121545, Note_on_c, 0, 82, 0
2, 121550, Note_on_c, 0, 74, 95
2, 121560, Note_on_c, 0, 83, 97
2, 121625, Note_on_c, 0, 83, 0
2, 121625, Note_on_c, 0, 74, 0
2, 121680, Note_on_c, 0, 59, 76
2, 121680, Note_on_c, 0, 62, 75
2, 121705, Note_on_c, 0, 62, 0
2, 121710, Note_on_c, 0, 59, 0
2, 121800, Note_on_c, 0, 67, 75
2, 121840, Note_on_c, 0, 70, 76
2, 121870, Note_on_c, 0, 67, 0
2, 121880, Note_on_c, 0, 70, 0
2, 121880, Note_on_c, 0, 71, 96
2, 121920, Note_on_c, 0, 55, 80
2, 121920, Note_on_c, 0, 59, 80
2, 121920, Note_on_c, 0, 62, 86
2, 121920, Note_on_c, 0, 79, 88
2, 121935, Note_on_c, 0, 71, 0
2, 121970, Note_on_c, 0, 79, 0
2, 122015, Note_on_c, 0, 59, 0
2, 122035, Note_on_c, 0, 55, 0
2, 122035, Note_on_c, 0, 62, 0
2, 122040, Note_on_c, 0, 81, 99
2, 122040, Note_on_c, 0, 72, 83
2, 122070, Note_on_c, 0, 72, 0
2, 122095, Note_on_c, 0, 81, 0
2, 122160, Note_on_c, 0, 73, 90
2, 122160, Note_on_c, 0, 82, 107
2, 122225, Note_on_c, 0, 73, 0
2, 122235, Note_on_c, 0, 82, 0
2, 122280, Note_on_c, 0, 83, 98
2, 122320, Note_on_c, 0, 74, 109
2, 122505, Note_on_c, 0, 62, 80
2, 122505, Note_on_c, 0, 59, 76
2, 122510, Note_on_c, 0, 64, 81
2, 122550, Note_on_c, 0, 62, 0
2, 122555, Note_on_c, 0, 74, 0
2, 122595, Note_on_c, 0, 83, 0
2, 122625, Note_on_c, 0, 79, 88
2, 122625, Note_on_c, 0, 74, 88
2, 122625, Note_on_c, 0, 76, 84
2, 122670, Note_on_c, 0, 74, 0
2, 122725, Note_on_c, 0, 76, 0
2, 122730, Note_on_c, 0, 64, 0
2, 122745, Note_on_c, 0, 74, 83
2, 122750, Note_on_c, 0, 59, 0
2, 122760, Note_on_c, 0, 62, 78
2, 122770, Note_on_c, 0, 79, 0
2, 122790, Note_on_c, 0, 74, 0
2, 122840, Note_on_c, 0, 62, 0
2, 122870, Note_on_c, 0, 55, 96
2, 123050, Note_on_c, 0, 55, 0
2, 123110, Note_on_c, 0, 71, 94
2, 123120, Note_on_c, 0, 62, 94
2, 123225, Note_on_c, 0, 71, 0
2, 123230, Note_on_c, 0, 55, 69
2, 123245, Note_on_c, 0, 62, 0
2, 123275, Note_on_c, 0, 55, 0
2, 123350, Note_on_c, 0, 60, 101
2, 123360, Note_on_c, 0, 69, 96
2, 123415, Note_on_c, 0, 60, 0
2, 123455, Note_on_c, 0, 69, 0
2, 123465, Note_on_c, 0, 55, 80
2, 123470, Note_on_c, 0, 67, 65
2, 123480, Note_on_c, 0, 59, 78
2, 123505, Note_on_c, 0, 55, 0
2, 123590, Note_on_c, 0, 59, 0
2, 123710, Note_on_c, 0, 67, 0
2, 123710, Note_on_c, 0, 55, 76
2, 123745, Note_on_c, 0, 55, 0
2, 123825, Note_on_c, 0, 67, 88
2, 123825, Note_on_c, 0, 59, 89
2, 123830, Note_on_c, 0, 63, 95
2, 123830, Note_on_c, 0, 64, 89
2, 123855, Note_on_c, 0, 64, 0
2, 123865, Note_on_c, 0, 63, 0
2, 123890, Note_on_c, 0, 59, 0
2, 123945, Note_on_c, 0, 62, 80
2, 123985, Note_on_c, 0, 67, 0
2, 124055, Note_on_c, 0, 62, 0
2, 124190, Note_on_c, 0, 57, 97
2, 124190, Note_on_c, 0, 62, 109
2, 124335, Note_on_c, 0, 57, 0
2, 124370, Note_on_c, 0, 62, 0
2, 124430, Note_on_c, 0, 62, 87
2, 124430, Note_on_c, 0, 59, 85
2, 124440, Note_on_c, 0, 57, 91
2, 124480, Note_on_c, 0, 57, 0
2, 124530, Note_on_c, 0, 59, 0
2, 124530, Note_on_c, 0, 62, 0
2, 124560, Note_on_c, 0, 57, 36
2, 124665, Note_on_c, 0, 57, 0
2, 124670, Note_on_c, 0, 55, 68
2, 124720, Note_on_c, 0, 55, 0
2, 124805, Note_on_c, 0, 66, 87
2, 124805, Note_on_c, 0, 62, 98
2, 124805, Note_on_c, 0, 72, 92
2, 124920, Note_on_c, 0, 72, 0
2, 124925, Note_on_c, 0, 74, 80
2, 124935, Note_on_c, 0, 62, 0
2, 124935, Note_on_c, 0, 66, 0
2, 124985, Note_on_c, 0, 74, 0
2, 125040, Note_on_c, 0, 83, 96
2, 125045, Note_on_c, 0, 78, 94
2, 125110, Note_on_c, 0, 78, 0
2, 125150, Note_on_c, 0, 83, 0
2, 125155, Note_on_c, 0, 62, 86
2, 125155, Note_on_c, 0, 66, 84
2, 125155, Note_on_c, 0, 72, 86
2, 125205, Note_on_c, 0, 62, 0
2, 125220, Note_on_c, 0, 66, 0
2, 125225, Note_on_c, 0, 72, 0
2, 125285, Note_on_c, 0, 74, 89
2, 125350, Note_on_c, 0, 74, 0
2, 125395, Note_on_c, 0, 81, 86
2, 125400, Note_on_c, 0, 78, 101
2, 125400, Note_on_c, 0, 74, 94
2, 125455, Note_on_c, 0, 78, 0
2, 125470, Note_on_c, 0, 74, 0
2, 125475, Note_on_c, 0, 81, 0
2, 125515, Note_on_c, 0, 72, 81
2, 125515, Note_on_c, 0, 62, 85
2, 125525, Note_on_c, 0, 66, 76
2, 125570, Note_on_c, 0, 66, 0
2, 125585, Note_on_c, 0, 62, 0
2, 125590, Note_on_c, 0, 72, 0
2, 125645, Note_on_c, 0, 74, 81
2, 125710, Note_on_c, 0, 74, 0
2, 125760, Note_on_c, 0, 74, 95
2, 125760, Note_on_c, 0, 83, 86
2, 125765, Note_on_c, 0, 78, 88
2, 125825, Note_on_c, 0, 78, 0
2, 125830, Note_on_c, 0, 83, 0
2, 125845, Note_on_c, 0, 74, 0
2, 125885, Note_on_c, 0, 72, 80
2, 125885, Note_on_c, 0, 62, 80
2, 125885, Note_on_c, 0, 66, 69
2, 125935, Note_on_c, 0, 62, 0
2, 125945, Note_on_c, 0, 66, 0
2, 125945, Note_on_c, 0, 72, 0
2, 126005, Note_on_c, 0, 74, 87
2, 126080, Note_on_c, 0, 74, 0
2, 126125, Note_on_c, 0, 81, 89
2, 126125, Note_on_c, 0, 78, 120
2, 126125, Note_on_c, 0, 74, 95
2, 126200, Note_on_c, 0, 78, 0
2, 126220, Note_on_c, 0, 74, 0
2, 126220, Note_on_c, 0, 81, 0
2, 126355, Note_on_c, 0, 81, 92
2, 126360, Note_on_c, 0, 78, 90
2, 126360, Note_on_c, 0, 74, 89
2, 126455, Note_on_c, 0, 78, 0
2, 126475, Note_on_c, 0, 74, 0
2, 126475, Note_on_c, 0, 72, 80
2, 126530, Note_on_c, 0, 72, 0
2, 126550, Note_on_c, 0, 81, 0
2, 126605, Note_on_c, 0, 72, 80
2, 126605, Note_on_c, 0, 62, 75
2, 126605, Note_on_c, 0, 66, 75
2, 126635, Note_on_c, 0, 66, 0
2, 126640, Note_on_c, 0, 62, 0
2, 126650, Note_on_c, 0, 72, 0
2, 126720, Note_on_c, 0, 62, 88
2, 126720, Note_on_c, 0, 72, 96
2, 126725, Note_on_c, 0, 66, 86
2, 126810, Note_on_c, 0, 62, 0
2, 126835, Note_on_c, 0, 72, 0
2, 126835, Note_on_c, 0, 74, 96
2, 126850, Note_on_c, 0, 66, 0
2, 126920, Note_on_c, 0, 74, 0
2, 126960, Note_on_c, 0, 78, 120
2, 126960, Note_on_c, 0, 83, 92
2, 126960, Note_on_c, 0, 74, 88
2, 127050, Note_on_c, 0, 83, 0
2, 127060, Note_on_c, 0, 78, 0
2, 127070, Note_on_c, 0, 74, 0
2, 127075, Note_on_c, 0, 72, 81
2, 127080, Note_on_c, 0, 62, 80
2, 127085, Note_on_c, 0, 66, 78
2, 127125, Note_on_c, 0, 66, 0
2, 127130, Note_on_c, 0, 62, 0
2, 127150, Note_on_c, 0, 72, 0
2, 127205, Note_on_c, 0, 74, 88
2, 127290, Note_on_c, 0, 74, 0
2, 127325, Note_on_c, 0, 81, 93
2, 127325, Note_on_c, 0, 78, 126
2, 127325, Note_on_c, 0, 74, 96
2, 127380, Note_on_c, 0, 78, 0
2, 127400, Note_on_c, 0, 74, 0
2, 127430, Note_on_c, 0, 81, 0
2, 127440, Note_on_c, 0, 72, 79
2, 127445, Note_on_c, 0, 62, 79
2, 127445, Note_on_c, 0, 66, 71
2, 127565, Note_on_c, 0, 74, 93
2, 127590, Note_on_c, 0, 62, 0
2, 127615, Note_on_c, 0, 72, 0
2, 127640, Note_on_c, 0, 74, 0
2, 127645, Note_on_c, 0, 66, 0
2, 127685, Note_on_c, 0, 83, 99
2, 127685, Note_on_c, 0, 78, 117
2, 127685, Note_on_c, 0, 74, 88
2, 127740, Note_on_c, 0, 78, 0
2, 127740, Note_on_c, 0, 83, 0
2, 127765, Note_on_c, 0, 74, 0
2, 127805, Note_on_c, 0, 72, 82
2, 127805, Note_on_c, 0, 62, 82
2, 127805, Note_on_c, 0, 66, 81
2, 127925, Note_on_c, 0, 74, 91
2, 127975, Note_on_c, 0, 66, 0
2, 127990, Note_on_c, 0, 72, 0
2, 128010, Note_on_c, 0, 74, 0
2, 128040, Note_on_c, 0, 62, 0
2, 128045, Note_on_c, 0, 81, 98
2, 128045, Note_on_c, 0, 74, 96
2, 128045, Note_on_c, 0, 78, 107
2, 128140, Note_on_c, 0, 78, 0
2, 128140, Note_on_c, 0, 81, 0
2, 128170, Note_on_c, 0, 74, 0
2, 128285, Note_on_c, 0, 81, 92
2, 128285, Note_on_c, 0, 74, 101
2, 128285, Note_on_c, 0, 78, 103
2, 128370, Note_on_c, 0, 74, 0
2, 128400, Note_on_c, 0, 81, 0
2, 128405, Note_on_c, 0, 72, 81
2, 128405, Note_on_c, 0, 66, 70
2, 128405, Note_on_c, 0, 62, 74
2, 128410, Note_on_c, 0, 78, 0
2, 128430, Note_on_c, 0, 62, 0
2, 128435, Note_on_c, 0, 66, 0
2, 128460, Note_on_c, 0, 72, 0
2, 128525, Note_on_c, 0, 66, 82
2, 128525, Note_on_c, 0, 72, 85
2, 128590, Note_on_c, 0, 66, 0
2, 128595, Note_on_c, 0, 72, 0
2, 128645, Note_on_c, 0, 91, 89
2, 128645, Note_on_c, 0, 83, 115
2, 128645, Note_on_c, 0, 86, 107
2, 128685, Note_on_c, 0, 86, 0
2, 128750, Note_on_c, 0, 91, 0
2, 128770, Note_on_c, 0, 83, 0
2, 128875, Note_on_c, 0, 74, 97
2, 128885, Note_on_c, 0, 67, 83
2, 128885, Note_on_c, 0, 91, 96
2, 128885, Note_on_c, 0, 83, 98
2, 128910, Note_on_c, 0, 67, 0
2, 128925, Note_on_c, 0, 74, 0
2, 128940, Note_on_c, 0, 83, 0
2, 128990, Note_on_c, 0, 91, 0
2, 129115, Note_on_c, 0, 83, 108
2, 129115, Note_on_c, 0, 88, 127
2, 129115, Note_on_c, 0, 67, 88
2, 129120, Note_on_c, 0, 76, 85
2, 129125, Note_on_c, 0, 71, 94
2, 129230, Note_on_c, 0, 88, 0
2, 129245, Note_on_c, 0, 86, 86
2, 129310, Note_on_c, 0, 83, 0
2, 129325, Note_on_c, 0, 86, 0
2, 129445, Note_on_c, 0, 71, 0
2, 129475, Note_on_c, 0, 76, 0
2, 129485, Note_on_c, 0, 74, 92
2, 129520, Note_on_c, 0, 67, 0
2, 129530, Note_on_c, 0, 74, 0
2, 129595, Note_on_c, 0, 79, 99
2, 129595, Note_on_c, 0, 83, 117
2, 129605, Note_on_c, 0, 86, 98
2, 129670, Note_on_c, 0, 86, 0
2, 129670, Note_on_c, 0, 83, 0
2, 129680, Note_on_c, 0, 79, 0
2, 129725, Note_on_c, 0, 83, 86
2, 129725, Note_on_c, 0, 86, 82
2, 129725, Note_on_c, 0, 79, 82
2, 129810, Note_on_c, 0, 83, 0
2, 129815, Note_on_c, 0, 79, 0
2, 129840, Note_on_c, 0, 81, 90
2, 129885, Note_on_c, 0, 86, 0
2, 129935, Note_on_c, 0, 81, 0
2, 129965, Note_on_c, 0, 79, 97
2, 129965, Note_on_c, 0, 67, 81
2, 129965, Note_on_c, 0, 86, 84
2, 129965, Note_on_c, 0, 76, 82
2, 129965, Note_on_c, 0, 71, 81
2, 130150, Note_on_c, 0, 79, 0
2, 130170, Note_on_c, 0, 76, 0
2, 130175, Note_on_c, 0, 86, 0
2, 130180, Note_on_c, 0, 71, 0
2, 130200, Note_on_c, 0, 74, 91
2, 130265, Note_on_c, 0, 74, 0
2, 130325, Note_on_c, 0, 76, 108
2, 130430, Note_on_c, 0, 76, 0
2, 130445, Note_on_c, 0, 74, 82
2, 130505, Note_on_c, 0, 74, 0
2, 130555, Note_on_c, 0, 79, 97
2, 130555, Note_on_c, 0, 71, 87
2, 130555, Note_on_c, 0, 74, 115
2, 130650, Note_on_c, 0, 71, 0
2, 130685, Note_on_c, 0, 67, 0
2, 130705, Note_on_c, 0, 74, 0
2, 130730, Note_on_c, 0, 79, 0
2, 130795, Note_on_c, 0, 79, 103
2, 130795, Note_on_c, 0, 74, 107
2, 130800, Note_on_c, 0, 71, 87
2, 130800, Note_on_c, 0, 67, 85
2, 130920, Note_on_c, 0, 74, 0
2, 130935, Note_on_c, 0, 71, 0
2, 130970, Note_on_c, 0, 67, 0
2, 131000, Note_on_c, 0, 79, 0
2, 131035, Note_on_c, 0, 76, 80
2, 131150, Note_on_c, 0, 76, 0
2, 131160, Note_on_c, 0, 74, 73
2, 131210, Note_on_c, 0, 74, 0
2, 131395, Note_on_c, 0, 79, 94
2, 131395, Note_on_c, 0, 71, 99
2, 131395, Note_on_c, 0, 74, 103
2, 131405, Note_on_c, 0, 67, 81
2, 131465, Note_on_c, 0, 67, 0
2, 131505, Note_on_c, 0, 74, 0
2, 131510, Note_on_c, 0, 71, 0
2, 131510, Note_on_c, 0, 79, 0
2, 131635, Note_on_c, 0, 79, 96
2, 131635, Note_on_c, 0, 74, 112
2, 131635, Note_on_c, 0, 67, 98
2, 131635, Note_on_c, 0, 71, 105
2, 131750, Note_on_c, 0, 71, 0
2, 131755, Note_on_c, 0, 76, 82
2, 131760, Note_on_c, 0, 74, 0
2, 131770, Note_on_c, 0, 67, 0
2, 131785, Note_on_c, 0, 79, 0
2, 131880, Note_on_c, 0, 74, 73
2, 131895, Note_on_c, 0, 76, 0
2, 131990, Note_on_c, 0, 74, 0
2, 132120, Note_on_c, 0, 69, 89
2, 132215, Note_on_c, 0, 69, 0
2, 132235, Note_on_c, 0, 67, 83
2, 132375, Note_on_c, 0, 67, 0
2, 132480, Note_on_c, 0, 47, 95
2, 132480, Note_on_c, 0, 35, 96
2, 132715, Note_on_c, 0, 50, 120
2, 132715, Note_on_c, 0, 59, 107
2, 132720, Note_on_c, 0, 47, 0
2, 132750, Note_on_c, 0, 35, 0
2, 132835, Note_on_c, 0, 51, 87
2, 132870, Note_on_c, 0, 50, 0
2, 132910, Note_on_c, 0, 51, 0
2, 132910, Note_on_c, 0, 59, 0
2, 132965, Note_on_c, 0, 47, 85
2, 133025, Note_on_c, 0, 47, 0
2, 133080, Note_on_c, 0, 59, 89
2, 133080, Note_on_c, 0, 51, 105
2, 133080, Note_on_c, 0, 54, 93
2, 133125, Note_on_c, 0, 54, 0
2, 133130, Note_on_c, 0, 51, 0
2, 133150, Note_on_c, 0, 59, 0
2, 133310, Note_on_c, 0, 47, 95
2, 133390, Note_on_c, 0, 47, 0
2, 133430, Note_on_c, 0, 59, 95
2, 133435, Note_on_c, 0, 50, 120
2, 133555, Note_on_c, 0, 51, 88
2, 133560, Note_on_c, 0, 50, 0
2, 133630, Note_on_c, 0, 51, 0
2, 133630, Note_on_c, 0, 59, 0
2, 133670, Note_on_c, 0, 47, 90
2, 133795, Note_on_c, 0, 51, 120
2, 133795, Note_on_c, 0, 59, 90
2, 133795, Note_on_c, 0, 54, 108
2, 133800, Note_on_c, 0, 47, 0
2, 133850, Note_on_c, 0, 51, 0
2, 133850, Note_on_c, 0, 54, 0
2, 133855, Note_on_c, 0, 59, 0
2, 133910, Note_on_c, 0, 47, 79
2, 133950, Note_on_c, 0, 47, 0
2, 134030, Note_on_c, 0, 59, 91
2, 134030, Note_on_c, 0, 54, 117
2, 134030, Note_on_c, 0, 51, 120
2, 134120, Note_on_c, 0, 51, 0
2, 134120, Note_on_c, 0, 54, 0
2, 134130, Note_on_c, 0, 59, 0
2, 134155, Note_on_c, 0, 47, 96
2, 134270, Note_on_c, 0, 51, 96
2, 134270, Note_on_c, 0, 54, 101
2, 134270, Note_on_c, 0, 59, 89
2, 134320, Note_on_c, 0, 59, 0
2, 134320, Note_on_c, 0, 54, 0
2, 134320, Note_on_c, 0, 51, 0
2, 134390, Note_on_c, 0, 35, 92
2, 134610, Note_on_c, 0, 47, 0
2, 134630, Note_on_c, 0, 50, 109
2, 134630, Note_on_c, 0, 59, 96
2, 134750, Note_on_c, 0, 51, 69
2, 134765, Note_on_c, 0, 50, 0
2, 134830, Note_on_c, 0, 51, 0
2, 134835, Note_on_c, 0, 59, 0
2, 134875, Note_on_c, 0, 35, 0
2, 134875, Note_on_c, 0, 47, 97
2, 134990, Note_on_c, 0, 59, 92
2, 134990, Note_on_c, 0, 54, 117
2, 134990, Note_on_c, 0, 51, 112
2, 135025, Note_on_c, 0, 47, 0
2, 135060, Note_on_c, 0, 51, 0
2, 135065, Note_on_c, 0, 54, 0
2, 135070, Note_on_c, 0, 59, 0
2, 135235, Note_on_c, 0, 47, 98
2, 135290, Note_on_c, 0, 47, 0
2, 135350, Note_on_c, 0, 59, 96
2, 135350, Note_on_c, 0, 50, 112
2, 135470, Note_on_c, 0, 51, 81
2, 135480, Note_on_c, 0, 50, 0
2, 135550, Note_on_c, 0, 51, 0
2, 135550, Note_on_c, 0, 59, 0
2, 135595, Note_on_c, 0, 47, 94
2, 135635, Note_on_c, 0, 47, 0
2, 135715, Note_on_c, 0, 51, 122
2, 135715, Note_on_c, 0, 59, 86
2, 135715, Note_on_c, 0, 54, 96
2, 135740, Note_on_c, 0, 54, 0
2, 135745, Note_on_c, 0, 51, 0
2, 135765, Note_on_c, 0, 59, 0
2, 135955, Note_on_c, 0, 59, 107
2, 135955, Note_on_c, 0, 51, 127
2, 135955, Note_on_c, 0, 54, 127
2, 136010, Note_on_c, 0, 51, 0
2, 136070, Note_on_c, 0, 47, 83
2, 136270, Note_on_c, 0, 54, 0
2, 136285, Note_on_c, 0, 47, 0
2, 136290, Note_on_c, 0, 59, 0
2, 136310, Note_on_c, 0, 40, 99
2, 136535, Note_on_c, 0, 40, 0
2, 136550, Note_on_c, 0, 59, 98
2, 136550, Note_on_c, 0, 55, 96
2, 136550, Note_on_c, 0, 50, 96
2, 136670, Note_on_c, 0, 55, 0
2, 136675, Note_on_c, 0, 56, 81
2, 136760, Note_on_c, 0, 56, 0
2, 136765, Note_on_c, 0, 50, 0
2, 136785, Note_on_c, 0, 59, 0
2, 136790, Note_on_c, 0, 47, 85
2, 136850, Note_on_c, 0, 47, 0
2, 136915, Note_on_c, 0, 56, 89
2, 136915, Note_on_c, 0, 50, 99
2, 136915, Note_on_c, 0, 59, 96
2, 136975, Note_on_c, 0, 56, 0
2, 136980, Note_on_c, 0, 59, 0
2, 136985, Note_on_c, 0, 50, 0
2, 137160, Note_on_c, 0, 40, 85
2, 137250, Note_on_c, 0, 40, 0
2, 137275, Note_on_c, 0, 55, 109
2, 137275, Note_on_c, 0, 50, 103
2, 137275, Note_on_c, 0, 59, 96
2, 137380, Note_on_c, 0, 55, 0
2, 137395, Note_on_c, 0, 56, 78
2, 137490, Note_on_c, 0, 56, 0
2, 137490, Note_on_c, 0, 59, 0
2, 137515, Note_on_c, 0, 50, 0
2, 137515, Note_on_c, 0, 40, 76
2, 137590, Note_on_c, 0, 40, 0
2, 137640, Note_on_c, 0, 56, 86
2, 137645, Note_on_c, 0, 59, 97
2, 137645, Note_on_c, 0, 50, 95
2, 137660, Note_on_c, 0, 40, 65
2, 137690, Note_on_c, 0, 40, 0
2, 137705, Note_on_c, 0, 56, 0
2, 137710, Note_on_c, 0, 59, 0
2, 137720, Note_on_c, 0, 50, 0
2, 137880, Note_on_c, 0, 56, 86
2, 137885, Note_on_c, 0, 59, 97
2, 137885, Note_on_c, 0, 50, 90
2, 138000, Note_on_c, 0, 50, 0
2, 138000, Note_on_c, 0, 59, 0
2, 138000, Note_on_c, 0, 56, 0
2, 138000, Note_on_c, 0, 40, 94
2, 138075, Note_on_c, 0, 40, 0
2, 138125, Note_on_c, 0, 40, 112
2, 138240, Note_on_c, 0, 28, 87
2, 138350, Note_on_c, 0, 40, 0
2, 138475, Note_on_c, 0, 55, 97
2, 138475, Note_on_c, 0, 50, 99
2, 138475, Note_on_c, 0, 59, 97
2, 138585, Note_on_c, 0, 55, 0
2, 138595, Note_on_c, 0, 56, 81
2, 138680, Note_on_c, 0, 59, 0
2, 138690, Note_on_c, 0, 56, 0
2, 138695, Note_on_c, 0, 50, 0
2, 138715, Note_on_c, 0, 40, 96
2, 138725, Note_on_c, 0, 28, 0
2, 138835, Note_on_c, 0, 56, 88
2, 138835, Note_on_c, 0, 50, 96
2, 138835, Note_on_c, 0, 59, 101
2, 138865, Note_on_c, 0, 40, 0
2, 138940, Note_on_c, 0, 56, 0
2, 138940, Note_on_c, 0, 59, 0
2, 138950, Note_on_c, 0, 50, 0
2, 139075, Note_on_c, 0, 40, 99
2, 139125, Note_on_c, 0, 40, 0
2, 139190, Note_on_c, 0, 55, 96
2, 139190, Note_on_c, 0, 59, 88
2, 139190, Note_on_c, 0, 50, 90
2, 139315, Note_on_c, 0, 55, 0
2, 139315, Note_on_c, 0, 56, 84
2, 139410, Note_on_c, 0, 56, 0
2, 139430, Note_on_c, 0, 59, 0
2, 139430, Note_on_c, 0, 40, 98
2, 139435, Note_on_c, 0, 50, 0
2, 139505, Note_on_c, 0, 40, 0
2, 139555, Note_on_c, 0, 59, 101
2, 139555, Note_on_c, 0, 56, 86
2, 139555, Note_on_c, 0, 50, 93
2, 139645, Note_on_c, 0, 56, 0
2, 139645, Note_on_c, 0, 59, 0
2, 139665, Note_on_c, 0, 50, 0
2, 139795, Note_on_c, 0, 50, 92
2, 139795, Note_on_c, 0, 56, 83
2, 139795, Note_on_c, 0, 59, 99
2, 139910, Note_on_c, 0, 40, 84
2, 139920, Note_on_c, 0, 50, 0
2, 140015, Note_on_c, 0, 59, 0
2, 140020, Note_on_c, 0, 40, 0
2, 140035, Note_on_c, 0, 50, 80
2, 140065, Note_on_c, 0, 56, 0
2, 140110, Note_on_c, 0, 50, 0
2, 140155, Note_on_c, 0, 38, 101
2, 140395, Note_on_c, 0, 62, 97
2, 140395, Note_on_c, 0, 53, 108
2, 140510, Note_on_c, 0, 54, 82
2, 140545, Note_on_c, 0, 53, 0
2, 140590, Note_on_c, 0, 54, 0
2, 140630, Note_on_c, 0, 50, 87
2, 140650, Note_on_c, 0, 62, 0
2, 140675, Note_on_c, 0, 38, 0
2, 140690, Note_on_c, 0, 50, 0
2, 140750, Note_on_c, 0, 62, 86
2, 140750, Note_on_c, 0, 57, 97
2, 140755, Note_on_c, 0, 54, 90
2, 140845, Note_on_c, 0, 54, 0
2, 140855, Note_on_c, 0, 57, 0
2, 140955, Note_on_c, 0, 62, 0
2, 140995, Note_on_c, 0, 50, 70
2, 141005, Note_on_c, 0, 38, 92
2, 141070, Note_on_c, 0, 50, 0
2, 141115, Note_on_c, 0, 53, 103
2, 141115, Note_on_c, 0, 62, 95
2, 141240, Note_on_c, 0, 54, 77
2, 141280, Note_on_c, 0, 53, 0
2, 141300, Note_on_c, 0, 54, 0
2, 141330, Note_on_c, 0, 62, 0
2, 141360, Note_on_c, 0, 50, 91
2, 141415, Note_on_c, 0, 50, 0
2, 141485, Note_on_c, 0, 62, 86
2, 141485, Note_on_c, 0, 57, 91
2, 141490, Note_on_c, 0, 54, 83
2, 141530, Note_on_c, 0, 57, 0
2, 141535, Note_on_c, 0, 54, 0
2, 141550, Note_on_c, 0, 62, 0
2, 141725, Note_on_c, 0, 50, 105
2, 141755, Note_on_c, 0, 50, 0
2, 141830, Note_on_c, 0, 62, 89
2, 141835, Note_on_c, 0, 57, 96
2, 141835, Note_on_c, 0, 54, 89
2, 141835, Note_on_c, 0, 60, 109
2, 141840, Note_on_c, 0, 38, 0
2, 142050, Note_on_c, 0, 57, 0
2, 142065, Note_on_c, 0, 54, 0
2, 142070, Note_on_c, 0, 60, 0
2, 142075, Note_on_c, 0, 38, 95
2, 142075, Note_on_c, 0, 50, 122
2, 142105, Note_on_c, 0, 62, 0
2, 142305, Note_on_c, 0, 50, 0
2, 142315, Note_on_c, 0, 62, 99
2, 142320, Note_on_c, 0, 53, 107
2, 142435, Note_on_c, 0, 54, 80
2, 142450, Note_on_c, 0, 53, 0
2, 142495, Note_on_c, 0, 54, 0
2, 142500, Note_on_c, 0, 62, 0
2, 142555, Note_on_c, 0, 50, 93
2, 142610, Note_on_c, 0, 50, 0
2, 142675, Note_on_c, 0, 62, 90
2, 142675, Note_on_c, 0, 54, 97
2, 142675, Note_on_c, 0, 57, 101
2, 142730, Note_on_c, 0, 54, 0
2, 142745, Note_on_c, 0, 57, 0
2, 142755, Note_on_c, 0, 62, 0
2, 142915, Note_on_c, 0, 50, 109
2, 142975, Note_on_c, 0, 50, 0
2, 143035, Note_on_c, 0, 62, 95
2, 143035, Note_on_c, 0, 53, 109
2, 143150, Note_on_c, 0, 54, 81
2, 143175, Note_on_c, 0, 53, 0
2, 143235, Note_on_c, 0, 54, 0
2, 143240, Note_on_c, 0, 62, 0
2, 143270, Note_on_c, 0, 38, 0
2, 143270, Note_on_c, 0, 50, 101
2, 143395, Note_on_c, 0, 54, 88
2, 143395, Note_on_c, 0, 57, 96
2, 143395, Note_on_c, 0, 62, 72
2, 143490, Note_on_c, 0, 62, 0
2, 143490, Note_on_c, 0, 54, 0
2, 143495, Note_on_c, 0, 50, 0
2, 143500, Note_on_c, 0, 57, 0
2, 143640, Note_on_c, 0, 50, 108
2, 143740, Note_on_c, 0, 50, 0
2, 143750, Note_on_c, 0, 62, 92
2, 143750, Note_on_c, 0, 54, 96
2, 143870, Note_on_c, 0, 57, 89
2, 143880, Note_on_c, 0, 54, 0
2, 143890, Note_on_c, 0, 62, 0
2, 143910, Note_on_c, 0, 57, 0
2, 143990, Note_on_c, 0, 43, 107
2, 143995, Note_on_c, 0, 62, 84
2, 143995, Note_on_c, 0, 55, 87
2, 143995, Note_on_c, 0, 59, 90
2, 143995, Note_on_c, 0, 64, 86
2, 144100, Note_on_c, 0, 62, 0
2, 144110, Note_on_c, 0, 64, 0
2, 144190, Note_on_c, 0, 55, 0
2, 144200, Note_on_c, 0, 59, 0
2, 144235, Note_on_c, 0, 62, 96
2, 144235, Note_on_c, 0, 79, 108
2, 144240, Note_on_c, 0, 67, 107
2, 144240, Note_on_c, 0, 71, 117
2, 144250, Note_on_c, 0, 43, 0
2, 144275, Note_on_c, 0, 62, 0
2, 144335, Note_on_c, 0, 67, 0
2, 144350, Note_on_c, 0, 71, 0
2, 144355, Note_on_c, 0, 79, 0
2, 144480, Note_on_c, 0, 64, 72
2, 144505, Note_on_c, 0, 64, 0
2, 144590, Note_on_c, 0, 81, 112
2, 144595, Note_on_c, 0, 59, 90
2, 144595, Note_on_c, 0, 69, 117
2, 144595, Note_on_c, 0, 64, 86
2, 144670, Note_on_c, 0, 69, 0
2, 144690, Note_on_c, 0, 81, 0
2, 144710, Note_on_c, 0, 59, 0
2, 144745, Note_on_c, 0, 64, 0
2, 144825, Note_on_c, 0, 71, 94
2, 144825, Note_on_c, 0, 83, 103
2, 144830, Note_on_c, 0, 62, 98
2, 144850, Note_on_c, 0, 62, 0
2, 144860, Note_on_c, 0, 71, 0
2, 144915, Note_on_c, 0, 83, 0
2, 144945, Note_on_c, 0, 86, 99
2, 144945, Note_on_c, 0, 74, 103
2, 144980, Note_on_c, 0, 74, 0
2, 145005, Note_on_c, 0, 86, 0
2, 145070, Note_on_c, 0, 76, 112
2, 145070, Note_on_c, 0, 88, 109
2, 145105, Note_on_c, 0, 76, 0
2, 145115, Note_on_c, 0, 88, 0
2, 145190, Note_on_c, 0, 79, 117
2, 145190, Note_on_c, 0, 91, 109
2, 145295, Note_on_c, 0, 79, 0
2, 145300, Note_on_c, 0, 64, 80
2, 145305, Note_on_c, 0, 91, 0
2, 145305, Note_on_c, 0, 62, 81
2, 145310, Note_on_c, 0, 59, 81
2, 145375, Note_on_c, 0, 62, 0
2, 145380, Note_on_c, 0, 59, 0
2, 145385, Note_on_c, 0, 64, 0
2, 145430, Note_on_c, 0, 91, 126
2, 145430, Note_on_c, 0, 79, 122
2, 145550, Note_on_c, 0, 91, 0
2, 145565, Note_on_c, 0, 79, 0
2, 145675, Note_on_c, 0, 88, 108
2, 145680, Note_on_c, 0, 76, 105
2, 145715, Control_c, 0, 64, 127
2, 145735, Control_c, 0, 64, 0
2, 145750, Note_on_c, 0, 76, 0
2, 145765, Note_on_c, 0, 88, 0
2, 145790, Note_on_c, 0, 86, 97
2, 145795, Note_on_c, 0, 74, 99
2, 145850, Note_on_c, 0, 74, 0
2, 145895, Note_on_c, 0, 86, 0
2, 145925, Note_on_c, 0, 59, 81
2, 145925, Note_on_c, 0, 64, 85
2, 145950, Note_on_c, 0, 59, 0
2, 145955, Note_on_c, 0, 64, 0
2, 146150, Note_on_c, 0, 87, 99
2, 146150, Note_on_c, 0, 76, 117
2, 146155, Note_on_c, 0, 88, 109
2, 146170, Note_on_c, 0, 87, 0
2, 146270, Note_on_c, 0, 88, 0
2, 146305, Note_on_c, 0, 76, 0
2, 146400, Note_on_c, 0, 43, 120
2, 146510, Note_on_c, 0, 86, 108
2, 146510, Note_on_c, 0, 74, 105
2, 146540, Note_on_c, 0, 43, 0
2, 146655, Note_on_c, 0, 86, 0
2, 146660, Note_on_c, 0, 74, 0
2, 146750, Note_on_c, 0, 43, 127
2, 146855, Note_on_c, 0, 70, 95
2, 146865, Note_on_c, 0, 82, 96
2, 146870, Note_on_c, 0, 83, 108
2, 146870, Note_on_c, 0, 71, 127
2, 146875, Note_on_c, 0, 70, 0
2, 146890, Note_on_c, 0, 43, 0
2, 146890, Note_on_c, 0, 82, 0
2, 147020, Note_on_c, 0, 83, 0
2, 147035, Note_on_c, 0, 71, 0
2, 147125, Note_on_c, 0, 43, 120
2, 147240, Note_on_c, 0, 67, 112
2, 147245, Note_on_c, 0, 79, 117
2, 147250, Note_on_c, 0, 43, 0
2, 147340, Note_on_c, 0, 79, 0
2, 147355, Note_on_c, 0, 67, 0
2, 147475, Note_on_c, 0, 64, 109
2, 147475, Note_on_c, 0, 76, 103
2, 147475, Note_on_c, 0, 43, 127
2, 147545, Note_on_c, 0, 76, 0
2, 147555, Note_on_c, 0, 64, 0
2, 147610, Note_on_c, 0, 74, 94
2, 147610, Note_on_c, 0, 62, 101
2, 147620, Note_on_c, 0, 43, 0
2, 147690, Note_on_c, 0, 62, 0
2, 147710, Note_on_c, 0, 74, 0
2, 148070, Note_on_c, 0, 59, 96
2, 148070, Note_on_c, 0, 50, 117
2, 148190, Note_on_c, 0, 51, 81
2, 148230, Note_on_c, 0, 50, 0
2, 148270, Note_on_c, 0, 51, 0
2, 148315, Note_on_c, 0, 47, 86
2, 148365, Note_on_c, 0, 59, 0
2, 148370, Note_on_c, 0, 47, 0
2, 148435, Note_on_c, 0, 59, 96
2, 148440, Note_on_c, 0, 54, 108
2, 148440, Note_on_c, 0, 51, 103
2, 148510, Note_on_c, 0, 51, 0
2, 148535, Note_on_c, 0, 54, 0
2, 148540, Note_on_c, 0, 59, 0
2, 148685, Note_on_c, 0, 47, 88
2, 148740, Note_on_c, 0, 47, 0
2, 148800, Note_on_c, 0, 59, 93
2, 148800, Note_on_c, 0, 50, 103
2, 148915, Note_on_c, 0, 51, 90
2, 148930, Note_on_c, 0, 50, 0
2, 148985, Note_on_c, 0, 51, 0
2, 149025, Note_on_c, 0, 59, 0
2, 149045, Note_on_c, 0, 47, 87
2, 149085, Note_on_c, 0, 47, 0
2, 149160, Note_on_c, 0, 54, 112
2, 149160, Note_on_c, 0, 59, 87
2, 149160, Note_on_c, 0, 51, 108
2, 149215, Note_on_c, 0, 54, 0
2, 149235, Note_on_c, 0, 51, 0
2, 149255, Note_on_c, 0, 59, 0
2, 149395, Note_on_c, 0, 54, 103
2, 149395, Note_on_c, 0, 59, 88
2, 149395, Note_on_c, 0, 51, 96
2, 149470, Note_on_c, 0, 51, 0
2, 149475, Note_on_c, 0, 59, 0
2, 149475, Note_on_c, 0, 54, 0
2, 149520, Note_on_c, 0, 47, 89
2, 149555, Note_on_c, 0, 47, 0
2, 149645, Note_on_c, 0, 47, 122
2, 149750, Note_on_c, 0, 35, 107
2, 149990, Note_on_c, 0, 47, 0
2, 149990, Note_on_c, 0, 59, 105
2, 149990, Note_on_c, 0, 50, 96
2, 150100, Note_on_c, 0, 50, 0
2, 150110, Note_on_c, 0, 51, 81
2, 150190, Note_on_c, 0, 51, 0
2, 150215, Note_on_c, 0, 59, 0
2, 150230, Note_on_c, 0, 47, 108
2, 150350, Note_on_c, 0, 51, 90
2, 150350, Note_on_c, 0, 54, 90
2, 150355, Note_on_c, 0, 59, 92
2, 150420, Note_on_c, 0, 51, 0
2, 150425, Note_on_c, 0, 59, 0
2, 150430, Note_on_c, 0, 54, 0
2, 150430, Note_on_c, 0, 47, 0
2, 150595, Note_on_c, 0, 47, 112
2, 150625, Note_on_c, 0, 35, 0
2, 150645, Note_on_c, 0, 47, 0
2, 150710, Note_on_c, 0, 59, 97
2, 150710, Note_on_c, 0, 50, 91
2, 150810, Note_on_c, 0, 50, 0
2, 150835, Note_on_c, 0, 51, 94
2, 150930, Note_on_c, 0, 51, 0
2, 150935, Note_on_c, 0, 59, 0
2, 150955, Note_on_c, 0, 47, 83
2, 150955, Note_on_c, 0, 35, 80
2, 151045, Note_on_c, 0, 47, 0
2, 151070, Note_on_c, 0, 59, 89
2, 151070, Note_on_c, 0, 51, 103
2, 151070, Note_on_c, 0, 54, 98
2, 151130, Note_on_c, 0, 54, 0
2, 151130, Note_on_c, 0, 51, 0
2, 151140, Note_on_c, 0, 59, 0
2, 151195, Note_on_c, 0, 47, 84
2, 151225, Note_on_c, 0, 47, 0
2, 151310, Note_on_c, 0, 51, 127
2, 151310, Note_on_c, 0, 59, 94
2, 151310, Note_on_c, 0, 54, 127
2, 151435, Note_on_c, 0, 47, 120
2, 151450, Note_on_c, 0, 51, 0
2, 151450, Note_on_c, 0, 35, 0
2, 151535, Note_on_c, 0, 54, 0
2, 151560, Note_on_c, 0, 50, 87
2, 151570, Note_on_c, 0, 59, 0
2, 151600, Note_on_c, 0, 47, 0
2, 151635, Note_on_c, 0, 50, 0
2, 151675, Note_on_c, 0, 40, 107
2, 151910, Note_on_c, 0, 59, 107
2, 151910, Note_on_c, 0, 55, 103
2, 151915, Note_on_c, 0, 50, 101
2, 151930, Note_on_c, 0, 40, 0
2, 152035, Note_on_c, 0, 55, 0
2, 152035, Note_on_c, 0, 56, 82
2, 152110, Note_on_c, 0, 50, 0
2, 152120, Note_on_c, 0, 56, 0
2, 152150, Note_on_c, 0, 59, 0
2, 152160, Note_on_c, 0, 47, 74
2, 152190, Note_on_c, 0, 47, 0
2, 152275, Note_on_c, 0, 56, 87
2, 152275, Note_on_c, 0, 50, 87
2, 152275, Note_on_c, 0, 59, 89
2, 152325, Note_on_c, 0, 56, 0
2, 152330, Note_on_c, 0, 59, 0
2, 152335, Note_on_c, 0, 50, 0
2, 152510, Note_on_c, 0, 47, 68
2, 152570, Note_on_c, 0, 47, 0
2, 152630, Note_on_c, 0, 55, 98
2, 152630, Note_on_c, 0, 59, 92
2, 152635, Note_on_c, 0, 50, 96
2, 152750, Note_on_c, 0, 55, 0
2, 152750, Note_on_c, 0, 56, 80
2, 152850, Note_on_c, 0, 56, 0
2, 152850, Note_on_c, 0, 50, 0
2, 152850, Note_on_c, 0, 59, 0
2, 152870, Note_on_c, 0, 40, 91
2, 152945, Note_on_c, 0, 40, 0
2, 152995, Note_on_c, 0, 56, 88
2, 152995, Note_on_c, 0, 50, 92
2, 152995, Note_on_c, 0, 59, 91
2, 153065, Note_on_c, 0, 59, 0
2, 153065, Note_on_c, 0, 56, 0
2, 153085, Note_on_c, 0, 50, 0
2, 153235, Note_on_c, 0, 56, 88
2, 153235, Note_on_c, 0, 50, 85
2, 153235, Note_on_c, 0, 59, 89
2, 153325, Note_on_c, 0, 59, 0
2, 153325, Note_on_c, 0, 50, 0
2, 153330, Note_on_c, 0, 56, 0
2, 153350, Note_on_c, 0, 40, 103
2, 153400, Note_on_c, 0, 40, 0
2, 153470, Note_on_c, 0, 40, 101
2, 153595, Note_on_c, 0, 28, 103
2, 153760, Note_on_c, 0, 40, 0
2, 153830, Note_on_c, 0, 55, 105
2, 153830, Note_on_c, 0, 59, 96
2, 153830, Note_on_c, 0, 50, 96
2, 153950, Note_on_c, 0, 55, 0
2, 153955, Note_on_c, 0, 56, 81
2, 154030, Note_on_c, 0, 56, 0
2, 154035, Note_on_c, 0, 50, 0
2, 154035, Note_on_c, 0, 59, 0
2, 154065, Note_on_c, 0, 28, 0
2, 154075, Note_on_c, 0, 40, 88
2, 154140, Note_on_c, 0, 40, 0
2, 154200, Note_on_c, 0, 56, 82
2, 154200, Note_on_c, 0, 50, 93
2, 154205, Note_on_c, 0, 59, 91
2, 154270, Note_on_c, 0, 56, 0
2, 154315, Note_on_c, 0, 50, 0
2, 154350, Note_on_c, 0, 59, 0
2, 154445, Note_on_c, 0, 40, 90
2, 154555, Note_on_c, 0, 50, 94
2, 154555, Note_on_c, 0, 55, 96
2, 154560, Note_on_c, 0, 59, 90
2, 154620, Note_on_c, 0, 40, 0
2, 154670, Note_on_c, 0, 55, 0
2, 154685, Note_on_c, 0, 56, 75
2, 154790, Note_on_c, 0, 56, 0
2, 154795, Note_on_c, 0, 59, 0
2, 154795, Note_on_c, 0, 47, 82
2, 154800, Note_on_c, 0, 50, 0
2, 154845, Note_on_c, 0, 47, 0
2, 154915, Note_on_c, 0, 56, 82
2, 154915, Note_on_c, 0, 59, 87
2, 154915, Note_on_c, 0, 50, 83
2, 154970, Note_on_c, 0, 59, 0
2, 154975, Note_on_c, 0, 56, 0
2, 154980, Note_on_c, 0, 50, 0
2, 155155, Note_on_c, 0, 50, 85
2, 155155, Note_on_c, 0, 56, 96
2, 155155, Note_on_c, 0, 59, 95
2, 155245, Note_on_c, 0, 50, 0
2, 155275, Note_on_c, 0, 47, 96
2, 155390, Note_on_c, 0, 59, 0
2, 155390, Note_on_c, 0, 56, 0
2, 155390, Note_on_c, 0, 50, 80
2, 155435, Note_on_c, 0, 50, 0
2, 155445, Note_on_c, 0, 47, 0
2, 155510, Note_on_c, 0, 38, 103
2, 155700, Note_on_c, 0, 38, 0
2, 155755, Note_on_c, 0, 62, 93
2, 155755, Note_on_c, 0, 53, 101
2, 155870, Note_on_c, 0, 54, 80
2, 155890, Note_on_c, 0, 53, 0
2, 155930, Note_on_c, 0, 54, 0
2, 155940, Note_on_c, 0, 62, 0
2, 155995, Note_on_c, 0, 38, 83
2, 156000, Note_on_c, 0, 50, 82
2, 156090, Note_on_c, 0, 50, 0
2, 156110, Note_on_c, 0, 62, 97
2, 156115, Note_on_c, 0, 57, 105
2, 156115, Note_on_c, 0, 54, 87
2, 156115, Note_on_c, 0, 60, 96
2, 156175, Note_on_c, 0, 54, 0
2, 156185, Note_on_c, 0, 60, 0
2, 156210, Note_on_c, 0, 57, 0
2, 156220, Note_on_c, 0, 62, 0
2, 156360, Note_on_c, 0, 50, 101
2, 156445, Note_on_c, 0, 50, 0
2, 156470, Note_on_c, 0, 62, 96
2, 156470, Note_on_c, 0, 53, 96
2, 156590, Note_on_c, 0, 54, 82
2, 156620, Note_on_c, 0, 53, 0
2, 156675, Note_on_c, 0, 54, 0
2, 156705, Note_on_c, 0, 62, 0
2, 156710, Note_on_c, 0, 50, 94
2, 156795, Note_on_c, 0, 50, 0
2, 156830, Note_on_c, 0, 62, 93
2, 156835, Note_on_c, 0, 60, 109
2, 156835, Note_on_c, 0, 57, 92
2, 156835, Note_on_c, 0, 54, 89
2, 156920, Note_on_c, 0, 62, 0
2, 156925, Note_on_c, 0, 60, 0
2, 156935, Note_on_c, 0, 57, 0
2, 156940, Note_on_c, 0, 54, 0
2, 157020, Note_on_c, 0, 38, 0
2, 157070, Note_on_c, 0, 57, 105
2, 157075, Note_on_c, 0, 60, 97
2, 157075, Note_on_c, 0, 62, 87
2, 157075, Note_on_c, 0, 54, 81
2, 157145, Note_on_c, 0, 54, 0
2, 157150, Note_on_c, 0, 60, 0
2, 157165, Note_on_c, 0, 57, 0
2, 157180, Note_on_c, 0, 62, 0
2, 157190, Note_on_c, 0, 50, 93
2, 157190, Note_on_c, 0, 38, 85
2, 157260, Note_on_c, 0, 38, 0
2, 157320, Note_on_c, 0, 54, 87
2, 157375, Note_on_c, 0, 54, 0
2, 157435, Note_on_c, 0, 38, 122
2, 157675, Note_on_c, 0, 53, 91
2, 157675, Note_on_c, 0, 62, 96
2, 157715, Note_on_c, 0, 50, 0
2, 157790, Note_on_c, 0, 54, 80
2, 157795, Note_on_c, 0, 53, 0
2, 157860, Note_on_c, 0, 62, 0
2, 157865, Note_on_c, 0, 54, 0
2, 157915, Note_on_c, 0, 50, 95
2, 157950, Note_on_c, 0, 50, 0
2, 158035, Note_on_c, 0, 62, 97
2, 158040, Note_on_c, 0, 57, 107
2, 158040, Note_on_c, 0, 54, 94
2, 158040, Note_on_c, 0, 60, 103
2, 158145, Note_on_c, 0, 60, 0
2, 158145, Note_on_c, 0, 57, 0
2, 158155, Note_on_c, 0, 54, 0
2, 158155, Note_on_c, 0, 62, 0
2, 158270, Note_on_c, 0, 38, 0
2, 158280, Note_on_c, 0, 50, 127
2, 158395, Note_on_c, 0, 53, 94
2, 158395, Note_on_c, 0, 62, 96
2, 158405, Note_on_c, 0, 60, 94
2, 158450, Note_on_c, 0, 60, 0
2, 158490, Note_on_c, 0, 50, 0
2, 158510, Note_on_c, 0, 54, 82
2, 158545, Note_on_c, 0, 53, 0
2, 158570, Note_on_c, 0, 62, 0
2, 158580, Note_on_c, 0, 54, 0
2, 158630, Note_on_c, 0, 50, 95
2, 158685, Note_on_c, 0, 50, 0
2, 158750, Note_on_c, 0, 62, 101
2, 158755, Note_on_c, 0, 57, 117
2, 158760, Note_on_c, 0, 60, 87
2, 158765, Note_on_c, 0, 54, 86
2, 158815, Note_on_c, 0, 60, 0
2, 158850, Note_on_c, 0, 54, 0
2, 158850, Note_on_c, 0, 57, 0
2, 158875, Note_on_c, 0, 62, 0
2, 158990, Note_on_c, 0, 62, 96
2, 158995, Note_on_c, 0, 54, 84
2, 158995, Note_on_c, 0, 57, 98
2, 158995, Note_on_c, 0, 60, 82
2, 159085, Note_on_c, 0, 54, 0
2, 159110, Note_on_c, 0, 38, 91
2, 159110, Note_on_c, 0, 50, 95
2, 159160, Note_on_c, 0, 60, 0
2, 159170, Note_on_c, 0, 57, 0
2, 159175, Note_on_c, 0, 62, 0
2, 159230, Note_on_c, 0, 54, 89
2, 159290, Note_on_c, 0, 54, 0
2, 159295, Note_on_c, 0, 50, 0
2, 159295, Note_on_c, 0, 38, 0
2, 159355, Note_on_c, 0, 43, 127
2, 159595, Note_on_c, 0, 52, 105
2, 159595, Note_on_c, 0, 58, 120
2, 159605, Note_on_c, 0, 62, 94
2, 159660, Note_on_c, 0, 43, 0
2, 159720, Note_on_c, 0, 59, 90
2, 159750, Note_on_c, 0, 58, 0
2, 159795, Note_on_c, 0, 59, 0
2, 159815, Note_on_c, 0, 62, 0
2, 159820, Note_on_c, 0, 52, 0
2, 159845, Note_on_c, 0, 43, 81
2, 159955, Note_on_c, 0, 55, 85
2, 159955, Note_on_c, 0, 59, 85
2, 159960, Note_on_c, 0, 43, 0
2, 159960, Note_on_c, 0, 50, 93
2, 159960, Note_on_c, 0, 62, 83
2, 160060, Note_on_c, 0, 50, 0
2, 160065, Note_on_c, 0, 55, 0
2, 160070, Note_on_c, 0, 59, 0
2, 160095, Note_on_c, 0, 62, 0
2, 160205, Note_on_c, 0, 43, 112
2, 160245, Note_on_c, 0, 43, 0
2, 160315, Note_on_c, 0, 52, 98
2, 160315, Note_on_c, 0, 58, 122
2, 160320, Note_on_c, 0, 62, 89
2, 160445, Note_on_c, 0, 59, 82
2, 160500, Note_on_c, 0, 59, 0
2, 160500, Note_on_c, 0, 52, 0
2, 160500, Note_on_c, 0, 58, 0
2, 160550, Note_on_c, 0, 43, 92
2, 160585, Note_on_c, 0, 62, 0
2, 160680, Note_on_c, 0, 50, 91
2, 160680, Note_on_c, 0, 55, 95
2, 160680, Note_on_c, 0, 62, 80
2, 160680, Note_on_c, 0, 59, 91
2, 160700, Note_on_c, 0, 43, 0
2, 160740, Note_on_c, 0, 55, 0
2, 160755, Note_on_c, 0, 59, 0
2, 160755, Note_on_c, 0, 50, 0
2, 160760, Note_on_c, 0, 62, 0
2, 160800, Note_on_c, 0, 43, 70
2, 160845, Note_on_c, 0, 43, 0
2, 160925, Note_on_c, 0, 62, 95
2, 160925, Note_on_c, 0, 50, 107
2, 160925, Note_on_c, 0, 55, 108
2, 160925, Note_on_c, 0, 59, 107
2, 161045, Note_on_c, 0, 43, 103
2, 161050, Note_on_c, 0, 50, 0
2, 161125, Note_on_c, 0, 43, 0
2, 161155, Note_on_c, 0, 50, 83
2, 161265, Note_on_c, 0, 50, 0
2, 161265, Note_on_c, 0, 59, 0
2, 161275, Note_on_c, 0, 55, 0
2, 161275, Note_on_c, 0, 43, 127
2, 161340, Note_on_c, 0, 62, 0
2, 161515, Note_on_c, 0, 52, 88
2, 161515, Note_on_c, 0, 58, 112
2, 161520, Note_on_c, 0, 43, 0
2, 161525, Note_on_c, 0, 62, 78
2, 161625, Note_on_c, 0, 58, 0
2, 161645, Note_on_c, 0, 59, 85
2, 161710, Note_on_c, 0, 52, 0
2, 161730, Note_on_c, 0, 59, 0
2, 161755, Note_on_c, 0, 43, 86
2, 161870, Note_on_c, 0, 55, 90
2, 161875, Note_on_c, 0, 50, 81
2, 161875, Note_on_c, 0, 59, 81
2, 161930, Note_on_c, 0, 43, 0
2, 161985, Note_on_c, 0, 43, 85
2, 161990, Note_on_c, 0, 50, 0
2, 162030, Note_on_c, 0, 59, 0
2, 162030, Note_on_c, 0, 43, 0
2, 162060, Note_on_c, 0, 62, 0
2, 162070, Note_on_c, 0, 55, 0
2, 162115, Note_on_c, 0, 43, 98
2, 162175, Note_on_c, 0, 43, 0
2, 162230, Note_on_c, 0, 52, 96
2, 162230, Note_on_c, 0, 58, 127
2, 162235, Note_on_c, 0, 62, 97
2, 162355, Note_on_c, 0, 59, 86
2, 162390, Note_on_c, 0, 58, 0
2, 162415, Note_on_c, 0, 52, 0
2, 162450, Note_on_c, 0, 59, 0
2, 162470, Note_on_c, 0, 43, 101
2, 162515, Note_on_c, 0, 62, 0
2, 162590, Note_on_c, 0, 62, 86
2, 162590, Note_on_c, 0, 55, 91
2, 162590, Note_on_c, 0, 59, 92
2, 162590, Note_on_c, 0, 50, 85
2, 162630, Note_on_c, 0, 43, 0
2, 162690, Note_on_c, 0, 55, 0
2, 162700, Note_on_c, 0, 50, 0
2, 162710, Note_on_c, 0, 59, 0
2, 162730, Note_on_c, 0, 62, 0
2, 162830, Note_on_c, 0, 62, 85
2, 162830, Note_on_c, 0, 59, 89
2, 162835, Note_on_c, 0, 55, 85
2, 162835, Note_on_c, 0, 50, 85
2, 162950, Note_on_c, 0, 43, 127
2, 162965, Note_on_c, 0, 50, 0
2, 162990, Note_on_c, 0, 55, 0
2, 162990, Note_on_c, 0, 59, 0
2, 162995, Note_on_c, 0, 62, 0
2, 163075, Note_on_c, 0, 62, 79
2, 163080, Note_on_c, 0, 50, 85
2, 163080, Note_on_c, 0, 55, 84
2, 163080, Note_on_c, 0, 59, 83
2, 163115, Note_on_c, 0, 43, 0
2, 163130, Note_on_c, 0, 59, 0
2, 163130, Note_on_c, 0, 50, 0
2, 163135, Note_on_c, 0, 55, 0
2, 163140, Note_on_c, 0, 62, 0
2, 163195, Note_on_c, 0, 54, 85
2, 163195, Note_on_c, 0, 50, 85
2, 163195, Note_on_c, 0, 60, 97
2, 163270, Note_on_c, 0, 60, 0
2, 163270, Note_on_c, 0, 50, 0
2, 163270, Note_on_c, 0, 54, 0
2, 163435, Note_on_c, 0, 50, 93
2, 163435, Note_on_c, 0, 60, 94
2, 163435, Note_on_c, 0, 54, 83
2, 163440, Note_on_c, 0, 64, 101
2, 163445, Note_on_c, 0, 66, 120
2, 163445, Note_on_c, 0, 71, 107
2, 163555, Note_on_c, 0, 64, 0
2, 163560, Note_on_c, 0, 50, 0
2, 163570, Note_on_c, 0, 54, 0
2, 163580, Note_on_c, 0, 60, 0
2, 163610, Note_on_c, 0, 71, 0
2, 163650, Note_on_c, 0, 66, 0
2, 163680, Note_on_c, 0, 54, 67
2, 163680, Note_on_c, 0, 64, 80
2, 163770, Note_on_c, 0, 64, 0
2, 163795, Note_on_c, 0, 50, 96
2, 163805, Note_on_c, 0, 69, 98
2, 163805, Note_on_c, 0, 66, 87
2, 163805, Note_on_c, 0, 64, 91
2, 163805, Note_on_c, 0, 60, 93
2, 163900, Note_on_c, 0, 64, 0
2, 163930, Note_on_c, 0, 69, 0
2, 163955, Note_on_c, 0, 54, 0
2, 163955, Note_on_c, 0, 50, 0
2, 163970, Note_on_c, 0, 60, 0
2, 164000, Note_on_c, 0, 66, 0
2, 164035, Note_on_c, 0, 64, 85
2, 164045, Note_on_c, 0, 54, 75
2, 164045, Note_on_c, 0, 50, 75
2, 164045, Note_on_c, 0, 60, 80
2, 164110, Note_on_c, 0, 64, 0
2, 164160, Note_on_c, 0, 66, 126
2, 164160, Note_on_c, 0, 71, 103
2, 164160, Note_on_c, 0, 64, 89
2, 164230, Note_on_c, 0, 66, 0
2, 164235, Note_on_c, 0, 64, 0
2, 164285, Note_on_c, 0, 66, 81
2, 164285, Note_on_c, 0, 64, 70
2, 164310, Note_on_c, 0, 50, 0
2, 164330, Note_on_c, 0, 64, 0
2, 164350, Note_on_c, 0, 60, 0
2, 164380, Note_on_c, 0, 66, 0
2, 164400, Note_on_c, 0, 71, 0
2, 164400, Note_on_c, 0, 64, 82
2, 164405, Note_on_c, 0, 60, 70
2, 164450, Note_on_c, 0, 60, 0
2, 164480, Note_on_c, 0, 54, 0
2, 164490, Note_on_c, 0, 64, 0
2, 164525, Note_on_c, 0, 54, 82
2, 164525, Note_on_c, 0, 66, 112
2, 164525, Note_on_c, 0, 69, 109
2, 164525, Note_on_c, 0, 60, 91
2, 164525, Note_on_c, 0, 64, 92
2, 164525, Note_on_c, 0, 50, 91
2, 164590, Note_on_c, 0, 66, 0
2, 164600, Note_on_c, 0, 69, 0
2, 164620, Note_on_c, 0, 64, 0
2, 164620, Note_on_c, 0, 50, 0
2, 164625, Note_on_c, 0, 60, 0
2, 164650, Note_on_c, 0, 54, 0
2, 164755, Note_on_c, 0, 54, 85
2, 164755, Note_on_c, 0, 50, 92
2, 164755, Note_on_c, 0, 60, 97
2, 164760, Note_on_c, 0, 69, 97
2, 164765, Note_on_c, 0, 66, 98
2, 164950, Note_on_c, 0, 69, 0
2, 164970, Note_on_c, 0, 66, 0
2, 164995, Note_on_c, 0, 64, 80
2, 165000, Note_on_c, 0, 60, 0
2, 165000, Note_on_c, 0, 50, 0
2, 165055, Note_on_c, 0, 54, 0
2, 165070, Note_on_c, 0, 64, 0
2, 165115, Note_on_c, 0, 54, 88
2, 165115, Note_on_c, 0, 50, 90
2, 165115, Note_on_c, 0, 71, 87
2, 165115, Note_on_c, 0, 60, 98
2, 165115, Note_on_c, 0, 66, 101
2, 165115, Note_on_c, 0, 64, 86
2, 165215, Note_on_c, 0, 60, 0
2, 165225, Note_on_c, 0, 50, 0
2, 165225, Note_on_c, 0, 54, 0
2, 165230, Note_on_c, 0, 66, 0
2, 165230, Note_on_c, 0, 71, 0
2, 165245, Note_on_c, 0, 64, 0
2, 165355, Note_on_c, 0, 54, 99
2, 165355, Note_on_c, 0, 50, 101
2, 165355, Note_on_c, 0, 60, 109
2, 165360, Note_on_c, 0, 64, 99
2, 165360, Note_on_c, 0, 71, 103
2, 165360, Note_on_c, 0, 66, 120
2, 165470, Note_on_c, 0, 66, 0
2, 165470, Note_on_c, 0, 64, 0
2, 165470, Note_on_c, 0, 54, 0
2, 165470, Note_on_c, 0, 71, 0
2, 165480, Note_on_c, 0, 50, 0
2, 165540, Note_on_c, 0, 60, 0
2, 165595, Note_on_c, 0, 54, 85
2, 165595, Note_on_c, 0, 66, 87
2, 165595, Note_on_c, 0, 69, 87
2, 165595, Note_on_c, 0, 50, 92
2, 165595, Note_on_c, 0, 64, 83
2, 165605, Note_on_c, 0, 60, 92
2, 165670, Note_on_c, 0, 64, 0
2, 165780, Note_on_c, 0, 50, 0
2, 165790, Note_on_c, 0, 69, 0
2, 165810, Note_on_c, 0, 66, 0
2, 165815, Note_on_c, 0, 60, 0
2, 165845, Note_on_c, 0, 50, 85
2, 165845, Note_on_c, 0, 64, 85
2, 165845, Note_on_c, 0, 60, 89
2, 165905, Note_on_c, 0, 50, 0
2, 165920, Note_on_c, 0, 60, 0
2, 165930, Note_on_c, 0, 64, 0
2, 165950, Note_on_c, 0, 54, 0
2, 165965, Note_on_c, 0, 74, 96
2, 165965, Note_on_c, 0, 66, 98
2, 165965, Note_on_c, 0, 54, 83
2, 165965, Note_on_c, 0, 50, 85
2, 165970, Note_on_c, 0, 64, 84
2, 165970, Note_on_c, 0, 60, 94
2, 166055, Note_on_c, 0, 64, 0
2, 166060, Note_on_c, 0, 66, 0
2, 166060, Note_on_c, 0, 74, 0
2, 166070, Note_on_c, 0, 50, 0
2, 166075, Note_on_c, 0, 60, 0
2, 166095, Note_on_c, 0, 54, 0
2, 166195, Note_on_c, 0, 54, 86
2, 166195, Note_on_c, 0, 50, 95
2, 166195, Note_on_c, 0, 74, 94
2, 166195, Note_on_c, 0, 60, 105
2, 166195, Note_on_c, 0, 66, 93
2, 166200, Note_on_c, 0, 64, 94
2, 166310, Note_on_c, 0, 64, 0
2, 166315, Note_on_c, 0, 66, 0
2, 166330, Note_on_c, 0, 74, 0
2, 166345, Note_on_c, 0, 54, 0
2, 166440, Note_on_c, 0, 54, 85
2, 166445, Note_on_c, 0, 64, 79
2, 166510, Note_on_c, 0, 64, 0
2, 166565, Note_on_c, 0, 66, 89
2, 166565, Note_on_c, 0, 71, 101
2, 166570, Note_on_c, 0, 64, 81
2, 166605, Note_on_c, 0, 64, 0
2, 166615, Note_on_c, 0, 66, 0
2, 166625, Note_on_c, 0, 71, 0
2, 166675, Note_on_c, 0, 71, 89
2, 166685, Note_on_c, 0, 66, 83
2, 166685, Note_on_c, 0, 64, 83
2, 166730, Note_on_c, 0, 60, 0
2, 166770, Note_on_c, 0, 66, 0
2, 166780, Note_on_c, 0, 64, 0
2, 166790, Note_on_c, 0, 71, 0
2, 166800, Note_on_c, 0, 69, 87
2, 166810, Note_on_c, 0, 60, 86
2, 166830, Note_on_c, 0, 54, 0
2, 166835, Note_on_c, 0, 50, 0
2, 166915, Note_on_c, 0, 69, 0
2, 166925, Note_on_c, 0, 64, 73
2, 166930, Note_on_c, 0, 60, 0
2, 166990, Note_on_c, 0, 64, 0
2, 167045, Note_on_c, 0, 55, 94
2, 167045, Note_on_c, 0, 62, 109
2, 167045, Note_on_c, 0, 59, 103
2, 167160, Note_on_c, 0, 59, 0
2, 167170, Note_on_c, 0, 62, 0
2, 167180, Note_on_c, 0, 55, 0
2, 167265, Note_on_c, 0, 55, 91
2, 167270, Note_on_c, 0, 59, 101
2, 167270, Note_on_c, 0, 64, 108
2, 167270, Note_on_c, 0, 79, 97
2, 167285, Note_on_c, 0, 71, 105
2, 167375, Note_on_c, 0, 71, 0
2, 167390, Note_on_c, 0, 79, 0
2, 167400, Note_on_c, 0, 55, 0
2, 167400, Note_on_c, 0, 59, 0
2, 167425, Note_on_c, 0, 64, 0
2, 167510, Note_on_c, 0, 55, 95
2, 167510, Note_on_c, 0, 59, 98
2, 167510, Note_on_c, 0, 62, 92
2, 167530, Note_on_c, 0, 64, 96
2, 167530, Note_on_c, 0, 72, 115
2, 167530, Note_on_c, 0, 81, 101
2, 167580, Note_on_c, 0, 72, 0
2, 167580, Note_on_c, 0, 62, 0
2, 167665, Note_on_c, 0, 81, 0
2, 167695, Note_on_c, 0, 64, 0
2, 167725, Note_on_c, 0, 59, 0
2, 167725, Note_on_c, 0, 55, 0
2, 167750, Note_on_c, 0, 82, 98
2, 167760, Note_on_c, 0, 73, 109
2, 167760, Note_on_c, 0, 62, 89
2, 167830, Note_on_c, 0, 73, 0
2, 167860, Note_on_c, 0, 62, 0
2, 167860, Note_on_c, 0, 82, 0
2, 167875, Note_on_c, 0, 55, 93
2, 167875, Note_on_c, 0, 64, 91
2, 167875, Note_on_c, 0, 59, 86
2, 167890, Note_on_c, 0, 74, 112
2, 167890, Note_on_c, 0, 83, 90
2, 167990, Note_on_c, 0, 74, 0
2, 168000, Note_on_c, 0, 74, 84
2, 168005, Note_on_c, 0, 83, 0
2, 168065, Note_on_c, 0, 74, 0
2, 168080, Note_on_c, 0, 83, 70
2, 168110, Note_on_c, 0, 83, 0
2, 168120, Note_on_c, 0, 74, 84
2, 168185, Note_on_c, 0, 74, 0
2, 168200, Note_on_c, 0, 83, 61
2, 168240, Note_on_c, 0, 55, 0
2, 168255, Note_on_c, 0, 59, 0
2, 168265, Note_on_c, 0, 83, 0
2, 168270, Note_on_c, 0, 64, 0
2, 168475, Note_on_c, 0, 81, 102
2, 168475, Note_on_c, 0, 74, 102
2, 168475, Note_on_c, 0, 59, 102
2, 168475, Note_on_c, 0, 55, 102
2, 168475, Note_on_c, 0, 64, 102
2, 168480, Note_on_c, 0, 62, 102
2, 168510, Note_on_c, 0, 62, 0
2, 168530, Note_on_c, 0, 81, 0
2, 168540, Note_on_c, 0, 74, 0
2, 168595, Note_on_c, 0, 74, 84
2, 168595, Note_on_c, 0, 81, 86
2, 168700, Note_on_c, 0, 81, 0
2, 168710, Note_on_c, 0, 74, 0
2, 168715, Note_on_c, 0, 79, 84
2, 168790, Note_on_c, 0, 79, 0
2, 168805, Note_on_c, 0, 64, 0
2, 168805, Note_on_c, 0, 59, 0
2, 168850, Note_on_c, 0, 55, 0
2, 168955, Note_on_c, 0, 74, 97
2, 168955, Note_on_c, 0, 79, 97
2, 168955, Note_on_c, 0, 64, 97
2, 168955, Note_on_c, 0, 55, 97
2, 168965, Note_on_c, 0, 59, 97
2, 169035, Note_on_c, 0, 74, 0
2, 169070, Note_on_c, 0, 79, 0
2, 169075, Note_on_c, 0, 76, 80
2, 169170, Note_on_c, 0, 76, 0
2, 169240, Note_on_c, 0, 59, 0
2, 169250, Note_on_c, 0, 55, 0
2, 169260, Note_on_c, 0, 64, 0
2, 169325, Note_on_c, 0, 55, 90
2, 169325, Note_on_c, 0, 71, 90
2, 169325, Note_on_c, 0, 76, 90
2, 169325, Note_on_c, 0, 64, 90
2, 169325, Note_on_c, 0, 59, 90
2, 169325, Note_on_c, 0, 62, 90
2, 169385, Note_on_c, 0, 62, 0
2, 169400, Note_on_c, 0, 59, 0
2, 169420, Note_on_c, 0, 55, 0
2, 169430, Note_on_c, 0, 71, 0
2, 169430, Note_on_c, 0, 76, 0
2, 169430, Note_on_c, 0, 64, 0
2, 169555, Note_on_c, 0, 74, 105
2, 169560, Note_on_c, 0, 62, 92
2, 169560, Note_on_c, 0, 64, 93
2, 169565, Note_on_c, 0, 59, 93
2, 169565, Note_on_c, 0, 55, 87
2, 169645, Note_on_c, 0, 74, 0
2, 169670, Note_on_c, 0, 71, 79
2, 169815, Note_on_c, 0, 71, 0
2, 169860, Note_on_c, 0, 62, 0
2, 169915, Note_on_c, 0, 74, 101
2, 169915, Note_on_c, 0, 62, 90
2, 169925, Note_on_c, 0, 71, 96
2, 169955, Note_on_c, 0, 71, 0
2, 169975, Note_on_c, 0, 64, 0
2, 170035, Note_on_c, 0, 74, 0
2, 170060, Note_on_c, 0, 59, 0
2, 170065, Note_on_c, 0, 55, 0
2, 170085, Note_on_c, 0, 62, 0
2, 170155, Note_on_c, 0, 69, 96
2, 170155, Note_on_c, 0, 55, 96
2, 170155, Note_on_c, 0, 74, 96
2, 170155, Note_on_c, 0, 64, 96
2, 170160, Note_on_c, 0, 71, 96
2, 170160, Note_on_c, 0, 59, 96
2, 170220, Note_on_c, 0, 69, 0
2, 170250, Note_on_c, 0, 71, 0
2, 170270, Note_on_c, 0, 74, 0
2, 170390, Note_on_c, 0, 64, 0
2, 170395, Note_on_c, 0, 59, 0
2, 170395, Note_on_c, 0, 74, 95
2, 170395, Note_on_c, 0, 69, 96
2, 170405, Note_on_c, 0, 62, 85
2, 170435, Note_on_c, 0, 55, 0
2, 170515, Note_on_c, 0, 69, 0
2, 170525, Note_on_c, 0, 67, 76
2, 170530, Note_on_c, 0, 74, 0
2, 170560, Note_on_c, 0, 62, 0
2, 170580, Note_on_c, 0, 67, 0
2, 170635, Note_on_c, 0, 62, 91
2, 170680, Note_on_c, 0, 62, 0
2, 170765, Note_on_c, 0, 69, 101
2, 170810, Note_on_c, 0, 69, 0
2, 170875, Note_on_c, 0, 54, 107
2, 170875, Note_on_c, 0, 50, 101
2, 170875, Note_on_c, 0, 60, 105
2, 170970, Note_on_c, 0, 60, 0
2, 170995, Note_on_c, 0, 50, 0
2, 171015, Note_on_c, 0, 54, 0
2, 171115, Note_on_c, 0, 50, 96
2, 171115, Note_on_c, 0, 64, 99
2, 171115, Note_on_c, 0, 66, 122
2, 171125, Note_on_c, 0, 54, 85
2, 171130, Note_on_c, 0, 60, 98
2, 171200, Note_on_c, 0, 64, 0
2, 171240, Note_on_c, 0, 50, 0
2, 171240, Note_on_c, 0, 66, 0
2, 171250, Note_on_c, 0, 60, 0
2, 171260, Note_on_c, 0, 54, 0
2, 171355, Note_on_c, 0, 54, 86
2, 171370, Note_on_c, 0, 64, 105
2, 171370, Note_on_c, 0, 50, 89
2, 171370, Note_on_c, 0, 60, 101
2, 171370, Note_on_c, 0, 66, 127
2, 171370, Note_on_c, 0, 71, 99
2, 171470, Note_on_c, 0, 64, 0
2, 171490, Note_on_c, 0, 66, 0
2, 171490, Note_on_c, 0, 71, 0
2, 171510, Note_on_c, 0, 54, 0
2, 171600, Note_on_c, 0, 60, 0
2, 171600, Note_on_c, 0, 54, 75
2, 171615, Note_on_c, 0, 64, 76
2, 171620, Note_on_c, 0, 50, 0
2, 171675, Note_on_c, 0, 64, 0
2, 171705, Note_on_c, 0, 54, 0
2, 171735, Note_on_c, 0, 69, 103
2, 171745, Note_on_c, 0, 54, 90
2, 171745, Note_on_c, 0, 66, 103
2, 171745, Note_on_c, 0, 50, 92
2, 171745, Note_on_c, 0, 60, 101
2, 171820, Note_on_c, 0, 66, 0
2, 171840, Note_on_c, 0, 69, 0
2, 171860, Note_on_c, 0, 54, 0
2, 171860, Note_on_c, 0, 50, 0
2, 171890, Note_on_c, 0, 60, 0
2, 171955, Note_on_c, 0, 54, 82
2, 171965, Note_on_c, 0, 69, 96
2, 171965, Note_on_c, 0, 66, 101
2, 171965, Note_on_c, 0, 50, 95
2, 171965, Note_on_c, 0, 64, 93
2, 171965, Note_on_c, 0, 60, 92
2, 172030, Note_on_c, 0, 64, 0
2, 172045, Note_on_c, 0, 66, 0
2, 172065, Note_on_c, 0, 69, 0
2, 172180, Note_on_c, 0, 50, 0
2, 172205, Note_on_c, 0, 64, 83
2, 172270, Note_on_c, 0, 64, 0
2, 172320, Note_on_c, 0, 66, 109
2, 172320, Note_on_c, 0, 71, 94
2, 172325, Note_on_c, 0, 64, 87
2, 172370, Note_on_c, 0, 60, 0
2, 172390, Note_on_c, 0, 66, 0
2, 172410, Note_on_c, 0, 54, 0
2, 172435, Note_on_c, 0, 66, 78
2, 172540, Note_on_c, 0, 64, 0
2, 172540, Note_on_c, 0, 71, 0
2, 172550, Note_on_c, 0, 66, 0
2, 172555, Note_on_c, 0, 54, 88
2, 172555, Note_on_c, 0, 50, 93
2, 172555, Note_on_c, 0, 60, 96
2, 172675, Note_on_c, 0, 69, 97
2, 172675, Note_on_c, 0, 64, 95
2, 172675, Note_on_c, 0, 66, 101
2, 172765, Note_on_c, 0, 66, 0
2, 172780, Note_on_c, 0, 54, 0
2, 172780, Note_on_c, 0, 64, 0
2, 172785, Note_on_c, 0, 69, 0
2, 172855, Note_on_c, 0, 50, 0
2, 172875, Note_on_c, 0, 60, 0
2, 172915, Note_on_c, 0, 50, 107
2, 172915, Note_on_c, 0, 54, 107
2, 172920, Note_on_c, 0, 64, 107
2, 172920, Note_on_c, 0, 71, 107
2, 172920, Note_on_c, 0, 66, 107
2, 172920, Note_on_c, 0, 60, 107
2, 173020, Note_on_c, 0, 64, 0
2, 173045, Note_on_c, 0, 60, 0
2, 173055, Note_on_c, 0, 71, 0
2, 173055, Note_on_c, 0, 66, 0
2, 173170, Note_on_c, 0, 64, 82
2, 173205, Note_on_c, 0, 50, 0
2, 173210, Note_on_c, 0, 54, 0
2, 173245, Note_on_c, 0, 64, 0
2, 173275, Note_on_c, 0, 54, 98
2, 173280, Note_on_c, 0, 50, 89
2, 173285, Note_on_c, 0, 69, 112
2, 173285, Note_on_c, 0, 60, 95
2, 173285, Note_on_c, 0, 66, 98
2, 173415, Note_on_c, 0, 60, 0
2, 173445, Note_on_c, 0, 50, 0
2, 173455, Note_on_c, 0, 66, 0
2, 173485, Note_on_c, 0, 69, 0
2, 173525, Note_on_c, 0, 50, 82
2, 173525, Note_on_c, 0, 64, 81
2, 173525, Note_on_c, 0, 60, 82
2, 173570, Note_on_c, 0, 50, 0
2, 173585, Note_on_c, 0, 60, 0
2, 173590, Note_on_c, 0, 54, 0
2, 173605, Note_on_c, 0, 64, 0
2, 173640, Note_on_c, 0, 50, 93
2, 173645, Note_on_c, 0, 54, 93
2, 173645, Note_on_c, 0, 60, 93
2, 173645, Note_on_c, 0, 71, 93
2, 173645, Note_on_c, 0, 64, 93
2, 173645, Note_on_c, 0, 66, 93
2, 173695, Note_on_c, 0, 64, 0
2, 173715, Note_on_c, 0, 66, 0
2, 173725, Note_on_c, 0, 71, 0
2, 173765, Note_on_c, 0, 50, 0
2, 173765, Note_on_c, 0, 54, 0
2, 173765, Note_on_c, 0, 60, 0
2, 173875, Note_on_c, 0, 54, 95
2, 173875, Note_on_c, 0, 50, 96
2, 173885, Note_on_c, 0, 66, 101
2, 173885, Note_on_c, 0, 60, 115
2, 173885, Note_on_c, 0, 71, 96
2, 173885, Note_on_c, 0, 64, 86
2, 173980, Note_on_c, 0, 64, 0
2, 174020, Note_on_c, 0, 71, 0
2, 174070, Note_on_c, 0, 54, 0
2, 174085, Note_on_c, 0, 66, 0
2, 174125, Note_on_c, 0, 64, 78
2, 174185, Note_on_c, 0, 64, 0
2, 174220, Note_on_c, 0, 60, 0
2, 174230, Note_on_c, 0, 54, 105
2, 174235, Note_on_c, 0, 69, 109
2, 174235, Note_on_c, 0, 66, 112
2, 174240, Note_on_c, 0, 64, 92
2, 174245, Note_on_c, 0, 50, 0
2, 174365, Note_on_c, 0, 66, 0
2, 174375, Note_on_c, 0, 64, 0
2, 174380, Note_on_c, 0, 69, 0
2, 174470, Note_on_c, 0, 54, 0
2, 174475, Note_on_c, 0, 66, 85
2, 174475, Note_on_c, 0, 64, 89
2, 174475, Note_on_c, 0, 69, 95
2, 174475, Note_on_c, 0, 60, 96
2, 174565, Note_on_c, 0, 60, 0
2, 174590, Note_on_c, 0, 64, 0
2, 174595, Note_on_c, 0, 66, 0
2, 174625, Note_on_c, 0, 69, 0
2, 174700, Note_on_c, 0, 59, 107
2, 174710, Note_on_c, 0, 62, 107
2, 174710, Note_on_c, 0, 55, 107
2, 174855, Note_on_c, 0, 55, 0
2, 174855, Note_on_c, 0, 62, 0
2, 174855, Note_on_c, 0, 59, 0
2, 174960, Note_on_c, 0, 55, 84
2, 174960, Note_on_c, 0, 59, 82
2, 174970, Note_on_c, 0, 64, 88
2, 174970, Note_on_c, 0, 67, 74
2, 175020, Note_on_c, 0, 67, 0
2, 175050, Note_on_c, 0, 59, 0
2, 175060, Note_on_c, 0, 55, 0
2, 175070, Note_on_c, 0, 64, 0
2, 175210, Note_on_c, 0, 62, 88
2, 175245, Note_on_c, 0, 62, 0
2, 175330, Note_on_c, 0, 82, 122
2, 175330, Note_on_c, 0, 86, 96
2, 175330, Note_on_c, 0, 79, 103
2, 175330, Note_on_c, 0, 64, 108
2, 175330, Note_on_c, 0, 59, 109
2, 175340, Note_on_c, 0, 55, 92
2, 175340, Note_on_c, 0, 83, 101
2, 175340, Note_on_c, 0, 62, 93
2, 175355, Note_on_c, 0, 83, 0
2, 175360, Note_on_c, 0, 62, 0
2, 175370, Note_on_c, 0, 82, 0
2, 175390, Note_on_c, 0, 79, 0
2, 175425, Note_on_c, 0, 55, 0
2, 175445, Note_on_c, 0, 59, 0
2, 175455, Note_on_c, 0, 86, 0
2, 175495, Note_on_c, 0, 64, 0
2, 175560, Note_on_c, 0, 55, 95
2, 175560, Note_on_c, 0, 62, 97
2, 175560, Note_on_c, 0, 59, 98
2, 175560, Note_on_c, 0, 86, 107
2, 175560, Note_on_c, 0, 81, 120
2, 175570, Note_on_c, 0, 64, 96
2, 175695, Note_on_c, 0, 86, 0
2, 175695, Note_on_c, 0, 62, 0
2, 175700, Note_on_c, 0, 81, 0
2, 175735, Note_on_c, 0, 59, 0
2, 175740, Note_on_c, 0, 55, 0
2, 175750, Note_on_c, 0, 64, 0
2, 175795, Note_on_c, 0, 55, 87
2, 175810, Note_on_c, 0, 62, 99
2, 175810, Note_on_c, 0, 79, 99
2, 175815, Note_on_c, 0, 59, 87
2, 175835, Note_on_c, 0, 59, 0
2, 175905, Note_on_c, 0, 79, 0
2, 176035, Note_on_c, 0, 55, 0
2, 176035, Note_on_c, 0, 76, 80
2, 176050, Note_on_c, 0, 62, 0
2, 176090, Note_on_c, 0, 76, 0
2, 176155, Note_on_c, 0, 59, 78
2, 176155, Note_on_c, 0, 74, 109
2, 176155, Note_on_c, 0, 79, 109
2, 176170, Note_on_c, 0, 55, 87
2, 176170, Note_on_c, 0, 64, 91
2, 176230, Note_on_c, 0, 55, 0
2, 176230, Note_on_c, 0, 79, 0
2, 176250, Note_on_c, 0, 59, 0
2, 176250, Note_on_c, 0, 74, 0
2, 176270, Note_on_c, 0, 64, 0
2, 176290, Note_on_c, 0, 79, 84
2, 176290, Note_on_c, 0, 74, 86
2, 176290, Note_on_c, 0, 64, 81
2, 176310, Note_on_c, 0, 55, 74
2, 176310, Note_on_c, 0, 59, 80
2, 176380, Note_on_c, 0, 74, 0
2, 176395, Note_on_c, 0, 76, 89
2, 176420, Note_on_c, 0, 79, 0
2, 176455, Note_on_c, 0, 76, 0
2, 176520, Note_on_c, 0, 71, 63
2, 176550, Note_on_c, 0, 71, 0
2, 176580, Note_on_c, 0, 64, 0
2, 176630, Note_on_c, 0, 76, 115
2, 176630, Note_on_c, 0, 71, 108
2, 176640, Note_on_c, 0, 64, 91
2, 176640, Note_on_c, 0, 62, 90
2, 176740, Note_on_c, 0, 71, 0
2, 176755, Note_on_c, 0, 64, 0
2, 176770, Note_on_c, 0, 59, 0
2, 176785, Note_on_c, 0, 55, 0
2, 176785, Note_on_c, 0, 62, 0
2, 176785, Note_on_c, 0, 76, 0
2, 176870, Note_on_c, 0, 55, 89
2, 176870, Note_on_c, 0, 74, 109
2, 176870, Note_on_c, 0, 59, 89
2, 176870, Note_on_c, 0, 69, 101
2, 176875, Note_on_c, 0, 64, 88
2, 176875, Note_on_c, 0, 62, 86
2, 176970, Note_on_c, 0, 74, 0
2, 176990, Note_on_c, 0, 62, 0
2, 177000, Note_on_c, 0, 69, 0
2, 177030, Note_on_c, 0, 55, 0
2, 177030, Note_on_c, 0, 59, 0
2, 177055, Note_on_c, 0, 64, 0
2, 177115, Note_on_c, 0, 67, 103
2, 177115, Note_on_c, 0, 71, 117
2, 177130, Note_on_c, 0, 64, 86
2, 177130, Note_on_c, 0, 62, 94
2, 177130, Note_on_c, 0, 59, 85
2, 177130, Note_on_c, 0, 55, 85
2, 177225, Note_on_c, 0, 62, 0
2, 177265, Note_on_c, 0, 67, 0
2, 177285, Note_on_c, 0, 71, 0
2, 177310, Note_on_c, 0, 64, 0
2, 177330, Note_on_c, 0, 59, 0
2, 177370, Note_on_c, 0, 55, 0
2, 177370, Note_on_c, 0, 62, 89
2, 177370, Note_on_c, 0, 69, 87
2, 177475, Note_on_c, 0, 69, 0
2, 177490, Note_on_c, 0, 67, 82
2, 177495, Note_on_c, 0, 59, 94
2, 177495, Note_on_c, 0, 55, 84
2, 177495, Note_on_c, 0, 64, 94
2, 177545, Note_on_c, 0, 62, 0
2, 177585, Note_on_c, 0, 59, 0
2, 177590, Note_on_c, 0, 67, 0
2, 177600, Note_on_c, 0, 64, 0
2, 177600, Note_on_c, 0, 55, 0
2, 177710, Note_on_c, 0, 67, 97
2, 177720, Note_on_c, 0, 55, 92
2, 177720, Note_on_c, 0, 62, 88
2, 177720, Note_on_c, 0, 64, 83
2, 177720, Note_on_c, 0, 59, 89
2, 177810, Note_on_c, 0, 62, 0
2, 177830, Note_on_c, 0, 67, 0
2, 177870, Note_on_c, 0, 64, 0
2, 177960, Note_on_c, 0, 62, 90
2, 177970, Note_on_c, 0, 59, 0
2, 178010, Note_on_c, 0, 62, 0
2, 178075, Note_on_c, 0, 64, 115
2, 178195, Note_on_c, 0, 64, 0
2, 178215, Note_on_c, 0, 55, 0
2, 178225, Note_on_c, 0, 67, 75
2, 178280, Note_on_c, 0, 67, 0
2, 178540, Note_on_c, 0, 66, 81
2, 178550, Note_on_c, 0, 62, 85
2, 178550, Note_on_c, 0, 72, 82
2, 178850, Note_on_c, 0, 72, 0
2, 178850, Note_on_c, 0, 66, 0
2, 178920, Note_on_c, 0, 76, 81
2, 179010, Note_on_c, 0, 78, 77
2, 179035, Note_on_c, 0, 72, 84
2, 179035, Note_on_c, 0, 83, 105
2, 179045, Note_on_c, 0, 76, 0
2, 179115, Note_on_c, 0, 78, 0
2, 179145, Note_on_c, 0, 62, 0
2, 179165, Note_on_c, 0, 83, 0
2, 179165, Note_on_c, 0, 76, 76
2, 179230, Note_on_c, 0, 72, 0
2, 179240, Note_on_c, 0, 76, 0
2, 179275, Note_on_c, 0, 78, 81
2, 179385, Note_on_c, 0, 78, 0
2, 179410, Note_on_c, 0, 72, 87
2, 179410, Note_on_c, 0, 62, 89
2, 179410, Note_on_c, 0, 81, 95
2, 179410, Note_on_c, 0, 66, 83
2, 179470, Note_on_c, 0, 66, 0
2, 179490, Note_on_c, 0, 81, 0
2, 179570, Note_on_c, 0, 72, 0
2, 179670, Note_on_c, 0, 77, 65
2, 179695, Note_on_c, 0, 78, 83
2, 179715, Note_on_c, 0, 77, 0
2, 179745, Note_on_c, 0, 72, 83
2, 179745, Note_on_c, 0, 83, 97
2, 179750, Note_on_c, 0, 78, 0
2, 179845, Note_on_c, 0, 72, 0
2, 179870, Note_on_c, 0, 76, 81
2, 179880, Note_on_c, 0, 83, 0
2, 179890, Note_on_c, 0, 62, 0
2, 179950, Note_on_c, 0, 76, 0
2, 179995, Note_on_c, 0, 78, 86
2, 180075, Note_on_c, 0, 78, 0
2, 180115, Note_on_c, 0, 81, 105
2, 180125, Note_on_c, 0, 62, 87
2, 180125, Note_on_c, 0, 72, 82
2, 180135, Note_on_c, 0, 66, 75
2, 180180, Note_on_c, 0, 66, 0
2, 180185, Note_on_c, 0, 62, 0
2, 180205, Note_on_c, 0, 72, 0
2, 180230, Note_on_c, 0, 81, 0
2, 180250, Note_on_c, 0, 76, 64
2, 180340, Note_on_c, 0, 76, 0
2, 180385, Note_on_c, 0, 77, 54
2, 180410, Note_on_c, 0, 78, 84
2, 180425, Note_on_c, 0, 77, 0
2, 180465, Note_on_c, 0, 78, 0
2, 180465, Note_on_c, 0, 83, 98
2, 180465, Note_on_c, 0, 72, 85
2, 180485, Note_on_c, 0, 62, 75
2, 180530, Note_on_c, 0, 62, 0
2, 180570, Note_on_c, 0, 72, 0
2, 180580, Note_on_c, 0, 83, 0
2, 180580, Note_on_c, 0, 76, 81
2, 180640, Note_on_c, 0, 76, 0
2, 180710, Note_on_c, 0, 78, 86
2, 180775, Note_on_c, 0, 78, 0
2, 180840, Note_on_c, 0, 62, 93
2, 180840, Note_on_c, 0, 81, 101
2, 180850, Note_on_c, 0, 72, 86
2, 180850, Note_on_c, 0, 66, 82
2, 180900, Note_on_c, 0, 66, 0
2, 180910, Note_on_c, 0, 62, 0
2, 180920, Note_on_c, 0, 72, 0
2, 180930, Note_on_c, 0, 81, 0
2, 181000, Note_on_c, 0, 76, 36
2, 181065, Note_on_c, 0, 76, 0
2, 181105, Note_on_c, 0, 77, 73
2, 181145, Note_on_c, 0, 78, 82
2, 181170, Note_on_c, 0, 77, 0
2, 181205, Note_on_c, 0, 62, 85
2, 181205, Note_on_c, 0, 72, 83
2, 181205, Note_on_c, 0, 83, 105
2, 181210, Note_on_c, 0, 78, 0
2, 181220, Note_on_c, 0, 66, 82
2, 181315, Note_on_c, 0, 83, 0
2, 181320, Note_on_c, 0, 66, 0
2, 181340, Note_on_c, 0, 76, 72
2, 181410, Note_on_c, 0, 76, 0
2, 181435, Note_on_c, 0, 78, 70
2, 181455, Note_on_c, 0, 62, 0
2, 181485, Note_on_c, 0, 72, 0
2, 181530, Note_on_c, 0, 78, 0
2, 181570, Note_on_c, 0, 62, 83
2, 181570, Note_on_c, 0, 81, 93
2, 181580, Note_on_c, 0, 66, 82
2, 181580, Note_on_c, 0, 72, 86
2, 181655, Note_on_c, 0, 81, 0
2, 181750, Note_on_c, 0, 62, 0
2, 181750, Note_on_c, 0, 66, 0
2, 181785, Note_on_c, 0, 72, 0
2, 181845, Note_on_c, 0, 77, 73
2, 181865, Note_on_c, 0, 78, 81
2, 181890, Note_on_c, 0, 77, 0
2, 181930, Note_on_c, 0, 62, 93
2, 181930, Note_on_c, 0, 83, 101
2, 181930, Note_on_c, 0, 72, 90
2, 181940, Note_on_c, 0, 66, 83
2, 181950, Note_on_c, 0, 78, 0
2, 182055, Note_on_c, 0, 83, 0
2, 182055, Note_on_c, 0, 76, 74
2, 182070, Note_on_c, 0, 66, 0
2, 182110, Note_on_c, 0, 76, 0
2, 182150, Note_on_c, 0, 72, 0
2, 182175, Note_on_c, 0, 78, 95
2, 182190, Note_on_c, 0, 72, 80
2, 182230, Note_on_c, 0, 62, 0
2, 182250, Note_on_c, 0, 72, 0
2, 182270, Note_on_c, 0, 78, 0
2, 182415, Note_on_c, 0, 81, 83
2, 182455, Note_on_c, 0, 81, 0
2, 182650, Note_on_c, 0, 55, 95
2, 182815, Note_on_c, 0, 55, 0
2, 182885, Note_on_c, 0, 86, 103
2, 182885, Note_on_c, 0, 83, 127
2, 182960, Note_on_c, 0, 83, 0
2, 183020, Note_on_c, 0, 86, 0
2, 183130, Note_on_c, 0, 67, 87
2, 183130, Note_on_c, 0, 74, 99
2, 183130, Note_on_c, 0, 71, 89
2, 183220, Note_on_c, 0, 74, 0
2, 183250, Note_on_c, 0, 79, 93
2, 183350, Note_on_c, 0, 79, 0
2, 183450, Note_on_c, 0, 71, 0
2, 183485, Note_on_c, 0, 79, 107
2, 183485, Note_on_c, 0, 74, 94
2, 183570, Note_on_c, 0, 79, 0
2, 183610, Note_on_c, 0, 74, 0
2, 183730, Note_on_c, 0, 71, 86
2, 183735, Note_on_c, 0, 76, 83
2, 183785, Note_on_c, 0, 67, 0
2, 183805, Note_on_c, 0, 71, 0
2, 183810, Note_on_c, 0, 76, 0
2, 183830, Note_on_c, 0, 81, 127
2, 183890, Note_on_c, 0, 81, 0
2, 183950, Note_on_c, 0, 81, 88
2, 184035, Note_on_c, 0, 81, 0
2, 184075, Note_on_c, 0, 79, 75
2, 184150, Note_on_c, 0, 79, 0
2, 184310, Note_on_c, 0, 67, 87
2, 184310, Note_on_c, 0, 71, 84
2, 184320, Note_on_c, 0, 79, 96
2, 184330, Note_on_c, 0, 74, 103
2, 184400, Note_on_c, 0, 71, 0
2, 184435, Note_on_c, 0, 67, 0
2, 184435, Note_on_c, 0, 79, 0
2, 184435, Note_on_c, 0, 74, 0
2, 184555, Note_on_c, 0, 79, 85
2, 184555, Note_on_c, 0, 74, 89
2, 184565, Note_on_c, 0, 67, 84
2, 184565, Note_on_c, 0, 71, 81
2, 184680, Note_on_c, 0, 74, 0
2, 184710, Note_on_c, 0, 79, 0
2, 184760, Note_on_c, 0, 71, 0
2, 184795, Note_on_c, 0, 79, 89
2, 184805, Note_on_c, 0, 74, 109
2, 184805, Note_on_c, 0, 76, 115
2, 184825, Note_on_c, 0, 67, 0
2, 184905, Note_on_c, 0, 74, 0
2, 184920, Note_on_c, 0, 76, 0
2, 184945, Note_on_c, 0, 79, 0
2, 185050, Note_on_c, 0, 71, 96
2, 185090, Note_on_c, 0, 71, 0
2, 185185, Note_on_c, 0, 74, 99
2, 185185, Note_on_c, 0, 79, 83
2, 185270, Note_on_c, 0, 74, 0
2, 185285, Note_on_c, 0, 79, 0
2, 185415, Note_on_c, 0, 79, 82
2, 185415, Note_on_c, 0, 55, 85
2, 185415, Note_on_c, 0, 74, 97
2, 185415, Note_on_c, 0, 62, 98
2, 185495, Note_on_c, 0, 79, 0
2, 185505, Note_on_c, 0, 62, 0
2, 185565, Note_on_c, 0, 74, 0
2, 185650, Note_on_c, 0, 71, 80
2, 185690, Note_on_c, 0, 71, 0
2, 185760, Note_on_c, 0, 62, 107
2, 185760, Note_on_c, 0, 79, 87
2, 185760, Note_on_c, 0, 74, 107
2, 185775, Note_on_c, 0, 55, 0
2, 185805, Note_on_c, 0, 62, 0
2, 185905, Note_on_c, 0, 79, 0
2, 185925, Note_on_c, 0, 74, 0
2, 186230, Note_on_c, 0, 62, 82
2, 186235, Note_on_c, 0, 66, 82
2, 186235, Note_on_c, 0, 72, 83
2, 186330, Note_on_c, 0, 76, 80
2, 186350, Note_on_c, 0, 72, 0
2, 186415, Note_on_c, 0, 77, 81
2, 186430, Note_on_c, 0, 78, 75
2, 186440, Note_on_c, 0, 76, 0
2, 186455, Note_on_c, 0, 77, 0
2, 186485, Note_on_c, 0, 72, 82
2, 186485, Note_on_c, 0, 83, 93
2, 186510, Note_on_c, 0, 78, 0
2, 186605, Note_on_c, 0, 83, 0
2, 186625, Note_on_c, 0, 76, 79
2, 186690, Note_on_c, 0, 76, 0
2, 186710, Note_on_c, 0, 66, 0
2, 186720, Note_on_c, 0, 72, 0
2, 186730, Note_on_c, 0, 78, 89
2, 186800, Note_on_c, 0, 78, 0
2, 186845, Note_on_c, 0, 81, 97
2, 186855, Note_on_c, 0, 66, 80
2, 186855, Note_on_c, 0, 72, 84
2, 186915, Note_on_c, 0, 66, 0
2, 186935, Note_on_c, 0, 72, 0
2, 186935, Note_on_c, 0, 81, 0
2, 186950, Note_on_c, 0, 76, 81
2, 187010, Note_on_c, 0, 76, 0
2, 187070, Note_on_c, 0, 77, 80
2, 187130, Note_on_c, 0, 78, 89
2, 187150, Note_on_c, 0, 77, 0
2, 187185, Note_on_c, 0, 83, 103
2, 187185, Note_on_c, 0, 72, 82
2, 187195, Note_on_c, 0, 78, 0
2, 187230, Note_on_c, 0, 62, 0
2, 187255, Note_on_c, 0, 72, 0
2, 187290, Note_on_c, 0, 83, 0
2, 187340, Note_on_c, 0, 76, 72
2, 187410, Note_on_c, 0, 76, 0
2, 187440, Note_on_c, 0, 78, 82
2, 187525, Note_on_c, 0, 78, 0
2, 187570, Note_on_c, 0, 81, 97
2, 187570, Note_on_c, 0, 66, 80
2, 187570, Note_on_c, 0, 72, 85
2, 187570, Note_on_c, 0, 62, 82
2, 187650, Note_on_c, 0, 66, 0
2, 187670, Note_on_c, 0, 81, 0
2, 187710, Note_on_c, 0, 72, 0
2, 187830, Note_on_c, 0, 77, 75
2, 187865, Note_on_c, 0, 78, 82
2, 187885, Note_on_c, 0, 77, 0
2, 187925, Note_on_c, 0, 72, 84
2, 187925, Note_on_c, 0, 83, 98
2, 187925, Note_on_c, 0, 66, 75
2, 187935, Note_on_c, 0, 78, 0
2, 188025, Note_on_c, 0, 83, 0
2, 188050, Note_on_c, 0, 66, 0
2, 188050, Note_on_c, 0, 76, 78
2, 188080, Note_on_c, 0, 72, 0
2, 188100, Note_on_c, 0, 76, 0
2, 188140, Note_on_c, 0, 62, 0
2, 188175, Note_on_c, 0, 78, 115
2, 188230, Note_on_c, 0, 78, 0
2, 188290, Note_on_c, 0, 62, 84
2, 188290, Note_on_c, 0, 81, 109
2, 188295, Note_on_c, 0, 66, 82
2, 188295, Note_on_c, 0, 72, 83
2, 188380, Note_on_c, 0, 66, 0
2, 188380, Note_on_c, 0, 81, 0
2, 188390, Note_on_c, 0, 72, 0
2, 188410, Note_on_c, 0, 76, 71
2, 188480, Note_on_c, 0, 76, 0
2, 188550, Note_on_c, 0, 77, 53
2, 188575, Note_on_c, 0, 78, 84
2, 188595, Note_on_c, 0, 77, 0
2, 188645, Note_on_c, 0, 78, 0
2, 188645, Note_on_c, 0, 66, 72
2, 188645, Note_on_c, 0, 72, 85
2, 188645, Note_on_c, 0, 83, 109
2, 188710, Note_on_c, 0, 66, 0
2, 188730, Note_on_c, 0, 72, 0
2, 188750, Note_on_c, 0, 83, 0
2, 188780, Note_on_c, 0, 76, 80
2, 188815, Note_on_c, 0, 62, 0
2, 188855, Note_on_c, 0, 76, 0
2, 188890, Note_on_c, 0, 78, 98
2, 188965, Note_on_c, 0, 78, 0
2, 189010, Note_on_c, 0, 62, 87
2, 189010, Note_on_c, 0, 81, 101
2, 189020, Note_on_c, 0, 72, 83
2, 189020, Note_on_c, 0, 66, 84
2, 189100, Note_on_c, 0, 66, 0
2, 189100, Note_on_c, 0, 81, 0
2, 189120, Note_on_c, 0, 72, 0
2, 189140, Note_on_c, 0, 76, 76
2, 189205, Note_on_c, 0, 76, 0
2, 189250, Note_on_c, 0, 77, 81
2, 189305, Note_on_c, 0, 78, 85
2, 189325, Note_on_c, 0, 77, 0
2, 189360, Note_on_c, 0, 78, 0
2, 189360, Note_on_c, 0, 72, 83
2, 189360, Note_on_c, 0, 66, 77
2, 189360, Note_on_c, 0, 83, 97
2, 189475, Note_on_c, 0, 83, 0
2, 189475, Note_on_c, 0, 66, 0
2, 189495, Note_on_c, 0, 76, 73
2, 189550, Note_on_c, 0, 72, 0
2, 189565, Note_on_c, 0, 76, 0
2, 189610, Note_on_c, 0, 78, 112
2, 189615, Note_on_c, 0, 62, 0
2, 189700, Note_on_c, 0, 78, 0
2, 189740, Note_on_c, 0, 62, 89
2, 189750, Note_on_c, 0, 66, 85
2, 189750, Note_on_c, 0, 81, 96
2, 189750, Note_on_c, 0, 72, 89
2, 189810, Note_on_c, 0, 62, 0
2, 189815, Note_on_c, 0, 66, 0
2, 189815, Note_on_c, 0, 72, 0
2, 189840, Note_on_c, 0, 81, 0
2, 189970, Note_on_c, 0, 76, 85
2, 190020, Note_on_c, 0, 76, 0
2, 190080, Note_on_c, 0, 55, 87
2, 190325, Note_on_c, 0, 69, 99
2, 190325, Note_on_c, 0, 71, 97
2, 190335, Note_on_c, 0, 55, 0
2, 190370, Note_on_c, 0, 69, 0
2, 190440, Note_on_c, 0, 71, 0
2, 190565, Note_on_c, 0, 62, 98
2, 190665, Note_on_c, 0, 62, 0
2, 190685, Note_on_c, 0, 74, 103
2, 190685, Note_on_c, 0, 67, 90
2, 190700, Note_on_c, 0, 71, 95
2, 190760, Note_on_c, 0, 71, 0
2, 190770, Note_on_c, 0, 67, 0
2, 190770, Note_on_c, 0, 74, 0
2, 190915, Note_on_c, 0, 62, 101
2, 190945, Note_on_c, 0, 67, 81
2, 190995, Note_on_c, 0, 62, 0
2, 191015, Note_on_c, 0, 67, 0
2, 191175, Note_on_c, 0, 69, 98
2, 191180, Note_on_c, 0, 62, 107
2, 191285, Note_on_c, 0, 62, 0
2, 191310, Note_on_c, 0, 69, 0
2, 191515, Note_on_c, 0, 64, 89
2, 191530, Note_on_c, 0, 59, 91
2, 191530, Note_on_c, 0, 71, 127
2, 191585, Note_on_c, 0, 59, 0
2, 191595, Note_on_c, 0, 71, 0
2, 191595, Note_on_c, 0, 64, 0
2, 191645, Note_on_c, 0, 71, 97
2, 191685, Note_on_c, 0, 62, 85
2, 191720, Note_on_c, 0, 71, 0
2, 191740, Note_on_c, 0, 62, 0
2, 191750, Note_on_c, 0, 69, 81
2, 191860, Note_on_c, 0, 69, 0
2, 191990, Note_on_c, 0, 62, 99
2, 191995, Note_on_c, 0, 69, 127
2, 192010, Note_on_c, 0, 55, 89
2, 192105, Note_on_c, 0, 62, 0
2, 192160, Note_on_c, 0, 69, 0
2, 192230, Note_on_c, 0, 62, 84
2, 192230, Note_on_c, 0, 67, 108
2, 192295, Note_on_c, 0, 55, 0
2, 192370, Note_on_c, 0, 62, 0
2, 192385, Note_on_c, 0, 67, 0
2, 192460, Note_on_c, 0, 64, 79
2, 192510, Note_on_c, 0, 59, 67
2, 192535, Note_on_c, 0, 64, 0
2, 192580, Note_on_c, 0, 59, 0
2, 192595, Note_on_c, 0, 67, 99
2, 192685, Note_on_c, 0, 67, 0
2, 192850, Note_on_c, 0, 67, 126
2, 192930, Note_on_c, 0, 67, 0
2, 193090, Note_on_c, 0, 67, 120
2, 193170, Note_on_c, 0, 67, 0
2, 193190, Note_on_c, 0, 62, 86
2, 193260, Note_on_c, 0, 62, 0
2, 193330, Note_on_c, 0, 62, 91
2, 193390, Note_on_c, 0, 62, 0
2, 193430, Note_on_c, 0, 59, 99
2, 193440, Note_on_c, 0, 64, 117
2, 193490, Note_on_c, 0, 59, 0
2, 193630, Note_on_c, 0, 64, 0
2, 193670, Note_on_c, 0, 62, 82
2, 193780, Note_on_c, 0, 62, 0
2, 193910, Note_on_c, 0, 50, 79
2, 193915, Note_on_c, 0, 60, 81
2, 194005, Note_on_c, 0, 64, 75
2, 194010, Note_on_c, 0, 60, 0
2, 194055, Note_on_c, 0, 50, 0
2, 194070, Note_on_c, 0, 65, 89
2, 194120, Note_on_c, 0, 64, 0
2, 194125, Note_on_c, 0, 66, 59
2, 194160, Note_on_c, 0, 65, 0
2, 194180, Note_on_c, 0, 71, 99
2, 194190, Note_on_c, 0, 66, 0
2, 194190, Note_on_c, 0, 50, 82
2, 194200, Note_on_c, 0, 60, 75
2, 194250, Note_on_c, 0, 60, 0
2, 194260, Note_on_c, 0, 50, 0
2, 194295, Note_on_c, 0, 71, 0
2, 194310, Note_on_c, 0, 64, 82
2, 194395, Note_on_c, 0, 64, 0
2, 194410, Note_on_c, 0, 66, 91
2, 194485, Note_on_c, 0, 66, 0
2, 194510, Note_on_c, 0, 50, 94
2, 194530, Note_on_c, 0, 60, 83
2, 194530, Note_on_c, 0, 69, 107
2, 194600, Note_on_c, 0, 50, 0
2, 194620, Note_on_c, 0, 60, 0
2, 194630, Note_on_c, 0, 69, 0
2, 194670, Note_on_c, 0, 64, 68
2, 194725, Note_on_c, 0, 64, 0
2, 194755, Note_on_c, 0, 65, 75
2, 194805, Note_on_c, 0, 66, 84
2, 194830, Note_on_c, 0, 65, 0
2, 194850, Note_on_c, 0, 50, 93
2, 194870, Note_on_c, 0, 60, 86
2, 194870, Note_on_c, 0, 71, 105
2, 194880, Note_on_c, 0, 66, 0
2, 194975, Note_on_c, 0, 71, 0
2, 195005, Note_on_c, 0, 60, 0
2, 195005, Note_on_c, 0, 50, 0
2, 195005, Note_on_c, 0, 64, 71
2, 195055, Note_on_c, 0, 64, 0
2, 195110, Note_on_c, 0, 66, 115
2, 195165, Note_on_c, 0, 66, 0
2, 195220, Note_on_c, 0, 50, 87
2, 195230, Note_on_c, 0, 69, 109
2, 195230, Note_on_c, 0, 60, 85
2, 195310, Note_on_c, 0, 50, 0
2, 195325, Note_on_c, 0, 69, 0
2, 195330, Note_on_c, 0, 60, 0
2, 195370, Note_on_c, 0, 64, 67
2, 195435, Note_on_c, 0, 64, 0
2, 195470, Note_on_c, 0, 65, 80
2, 195530, Note_on_c, 0, 66, 80
2, 195550, Note_on_c, 0, 65, 0
2, 195570, Note_on_c, 0, 50, 83
2, 195590, Note_on_c, 0, 60, 83
2, 195590, Note_on_c, 0, 71, 107
2, 195600, Note_on_c, 0, 66, 0
2, 195685, Note_on_c, 0, 71, 0
2, 195690, Note_on_c, 0, 50, 0
2, 195705, Note_on_c, 0, 60, 0
2, 195730, Note_on_c, 0, 64, 61
2, 195785, Note_on_c, 0, 64, 0
2, 195845, Note_on_c, 0, 66, 115
2, 195900, Note_on_c, 0, 66, 0
2, 195970, Note_on_c, 0, 50, 87
2, 195970, Note_on_c, 0, 69, 99
2, 195975, Note_on_c, 0, 60, 84
2, 195980, Note_on_c, 0, 54, 76
2, 196025, Note_on_c, 0, 54, 0
2, 196030, Note_on_c, 0, 50, 0
2, 196055, Note_on_c, 0, 60, 0
2, 196065, Note_on_c, 0, 69, 0
2, 196095, Note_on_c, 0, 64, 68
2, 196180, Note_on_c, 0, 64, 0
2, 196210, Note_on_c, 0, 65, 74
2, 196260, Note_on_c, 0, 66, 85
2, 196275, Note_on_c, 0, 65, 0
2, 196315, Note_on_c, 0, 50, 86
2, 196320, Note_on_c, 0, 60, 83
2, 196320, Note_on_c, 0, 71, 98
2, 196335, Note_on_c, 0, 66, 0
2, 196345, Note_on_c, 0, 54, 80
2, 196375, Note_on_c, 0, 54, 0
2, 196430, Note_on_c, 0, 71, 0
2, 196450, Note_on_c, 0, 64, 77
2, 196480, Note_on_c, 0, 50, 0
2, 196485, Note_on_c, 0, 60, 0
2, 196520, Note_on_c, 0, 64, 0
2, 196570, Note_on_c, 0, 66, 108
2, 196620, Note_on_c, 0, 66, 0
2, 196685, Note_on_c, 0, 50, 81
2, 196690, Note_on_c, 0, 69, 103
2, 196695, Note_on_c, 0, 60, 82
2, 196695, Note_on_c, 0, 54, 80
2, 196770, Note_on_c, 0, 69, 0
2, 196775, Note_on_c, 0, 54, 0
2, 196810, Note_on_c, 0, 64, 74
2, 196865, Note_on_c, 0, 60, 0
2, 196870, Note_on_c, 0, 50, 0
2, 196880, Note_on_c, 0, 64, 0
2, 196930, Note_on_c, 0, 65, 70
2, 196975, Note_on_c, 0, 66, 82
2, 196990, Note_on_c, 0, 65, 0
2, 197025, Note_on_c, 0, 50, 81
2, 197030, Note_on_c, 0, 71, 101
2, 197030, Note_on_c, 0, 60, 85
2, 197030, Note_on_c, 0, 54, 81
2, 197045, Note_on_c, 0, 66, 0
2, 197135, Note_on_c, 0, 71, 0
2, 197170, Note_on_c, 0, 64, 74
2, 197200, Note_on_c, 0, 54, 0
2, 197220, Note_on_c, 0, 64, 0
2, 197280, Note_on_c, 0, 66, 109
2, 197295, Note_on_c, 0, 60, 0
2, 197350, Note_on_c, 0, 66, 0
2, 197405, Note_on_c, 0, 69, 87
2, 197465, Note_on_c, 0, 50, 0
2, 197510, Note_on_c, 0, 69, 0
2, 197530, Note_on_c, 0, 64, 81
2, 197610, Note_on_c, 0, 64, 0
2, 197650, Note_on_c, 0, 66, 90
2, 197695, Note_on_c, 0, 66, 0
2, 197790, Note_on_c, 0, 55, 82
2, 197825, Note_on_c, 0, 55, 0
2, 198000, Note_on_c, 0, 67, 83
2, 198070, Note_on_c, 0, 67, 0
2, 198250, Note_on_c, 0, 59, 94
2, 198250, Note_on_c, 0, 62, 96
2, 198315, Note_on_c, 0, 62, 0
2, 198315, Note_on_c, 0, 59, 0
2, 198370, Note_on_c, 0, 76, 94
2, 198370, Note_on_c, 0, 67, 86
2, 198370, Note_on_c, 0, 72, 99
2, 198445, Note_on_c, 0, 76, 0
2, 198485, Note_on_c, 0, 67, 0
2, 198510, Note_on_c, 0, 72, 0
2, 198590, Note_on_c, 0, 64, 81
2, 198600, Note_on_c, 0, 74, 109
2, 198610, Note_on_c, 0, 71, 107
2, 198735, Note_on_c, 0, 71, 0
2, 198745, Note_on_c, 0, 74, 0
2, 198845, Note_on_c, 0, 74, 98
2, 198850, Note_on_c, 0, 71, 98
2, 198905, Note_on_c, 0, 64, 0
2, 198930, Note_on_c, 0, 74, 0
2, 198940, Note_on_c, 0, 71, 0
2, 199085, Note_on_c, 0, 62, 85
2, 199150, Note_on_c, 0, 62, 0
2, 199190, Note_on_c, 0, 71, 127
2, 199250, Note_on_c, 0, 71, 0
2, 199310, Note_on_c, 0, 71, 86
2, 199390, Note_on_c, 0, 71, 0
2, 199415, Note_on_c, 0, 69, 84
2, 199430, Note_on_c, 0, 62, 80
2, 199540, Note_on_c, 0, 69, 0
2, 199565, Note_on_c, 0, 62, 0
2, 199660, Note_on_c, 0, 59, 86
2, 199670, Note_on_c, 0, 69, 127
2, 199670, Note_on_c, 0, 55, 87
2, 199670, Note_on_c, 0, 64, 83
2, 199785, Note_on_c, 0, 69, 0
2, 199815, Note_on_c, 0, 64, 0
2, 199845, Note_on_c, 0, 59, 0
2, 199905, Note_on_c, 0, 67, 97
2, 199910, Note_on_c, 0, 62, 89
2, 200030, Note_on_c, 0, 67, 0
2, 200075, Note_on_c, 0, 62, 0
2, 200085, Note_on_c, 0, 55, 0
2, 200135, Note_on_c, 0, 55, 35
2, 200145, Note_on_c, 0, 59, 80
2, 200195, Note_on_c, 0, 59, 0
2, 200220, Note_on_c, 0, 55, 0
2, 200270, Note_on_c, 0, 67, 94
2, 200280, Note_on_c, 0, 55, 86
2, 200290, Note_on_c, 0, 62, 85
2, 200310, Note_on_c, 0, 59, 75
2, 200370, Note_on_c, 0, 67, 0
2, 200375, Note_on_c, 0, 55, 0
2, 200380, Note_on_c, 0, 62, 0
2, 200380, Note_on_c, 0, 59, 0
2, 200525, Note_on_c, 0, 67, 122
2, 200525, Note_on_c, 0, 55, 91
2, 200525, Note_on_c, 0, 62, 109
2, 200535, Note_on_c, 0, 59, 105
2, 200610, Note_on_c, 0, 67, 0
2, 200660, Note_on_c, 0, 59, 0
2, 200660, Note_on_c, 0, 62, 0
2, 200670, Note_on_c, 0, 55, 0
2, 200765, Note_on_c, 0, 67, 105
2, 200765, Note_on_c, 0, 62, 90
2, 200770, Note_on_c, 0, 55, 85
2, 200770, Note_on_c, 0, 59, 92
2, 200830, Note_on_c, 0, 62, 0
2, 200855, Note_on_c, 0, 67, 0
2, 200905, Note_on_c, 0, 59, 0
2, 200920, Note_on_c, 0, 64, 64
2, 200960, Note_on_c, 0, 64, 0
2, 201020, Note_on_c, 0, 62, 73
2, 201055, Note_on_c, 0, 62, 0
2, 201115, Note_on_c, 0, 59, 105
2, 201130, Note_on_c, 0, 67, 127
2, 201185, Note_on_c, 0, 55, 0
2, 201205, Note_on_c, 0, 59, 0
2, 201350, Note_on_c, 0, 67, 0
2, 201375, Note_on_c, 0, 62, 82
2, 201475, Note_on_c, 0, 62, 0
2, 201580, Note_on_c, 0, 50, 86
2, 201585, Note_on_c, 0, 60, 84
2, 201590, Note_on_c, 0, 54, 80
2, 201660, Note_on_c, 0, 54, 0
2, 201690, Note_on_c, 0, 64, 74
2, 201715, Note_on_c, 0, 50, 0
2, 201740, Note_on_c, 0, 60, 0
2, 201755, Note_on_c, 0, 65, 85
2, 201790, Note_on_c, 0, 64, 0
2, 201795, Note_on_c, 0, 66, 73
2, 201815, Note_on_c, 0, 65, 0
2, 201830, Note_on_c, 0, 50, 78
2, 201835, Note_on_c, 0, 60, 88
2, 201845, Note_on_c, 0, 54, 83
2, 201845, Note_on_c, 0, 71, 93
2, 201885, Note_on_c, 0, 66, 0
2, 201910, Note_on_c, 0, 60, 0
2, 201920, Note_on_c, 0, 54, 0
2, 201930, Note_on_c, 0, 50, 0
2, 201950, Note_on_c, 0, 71, 0
2, 201980, Note_on_c, 0, 64, 79
2, 202050, Note_on_c, 0, 64, 0
2, 202090, Note_on_c, 0, 66, 115
2, 202145, Note_on_c, 0, 66, 0
2, 202190, Note_on_c, 0, 50, 90
2, 202205, Note_on_c, 0, 69, 91
2, 202205, Note_on_c, 0, 60, 82
2, 202205, Note_on_c, 0, 54, 83
2, 202305, Note_on_c, 0, 69, 0
2, 202320, Note_on_c, 0, 54, 0
2, 202330, Note_on_c, 0, 60, 0
2, 202330, Note_on_c, 0, 50, 0
2, 202330, Note_on_c, 0, 64, 65
2, 202400, Note_on_c, 0, 64, 0
2, 202440, Note_on_c, 0, 65, 80
2, 202490, Note_on_c, 0, 66, 86
2, 202515, Note_on_c, 0, 65, 0
2, 202545, Note_on_c, 0, 50, 90
2, 202550, Note_on_c, 0, 60, 84
2, 202550, Note_on_c, 0, 54, 78
2, 202555, Note_on_c, 0, 71, 108
2, 202565, Note_on_c, 0, 66, 0
2, 202650, Note_on_c, 0, 71, 0
2, 202670, Note_on_c, 0, 50, 0
2, 202680, Note_on_c, 0, 54, 0
2, 202700, Note_on_c, 0, 60, 0
2, 202700, Note_on_c, 0, 64, 76
2, 202790, Note_on_c, 0, 64, 0
2, 202805, Note_on_c, 0, 66, 126
2, 202865, Note_on_c, 0, 66, 0
2, 202910, Note_on_c, 0, 50, 92
2, 202915, Note_on_c, 0, 54, 85
2, 202925, Note_on_c, 0, 69, 101
2, 202925, Note_on_c, 0, 60, 85
2, 203010, Note_on_c, 0, 54, 0
2, 203020, Note_on_c, 0, 50, 0
2, 203020, Note_on_c, 0, 69, 0
2, 203040, Note_on_c, 0, 60, 0
2, 203060, Note_on_c, 0, 64, 54
2, 203120, Note_on_c, 0, 64, 0
2, 203165, Note_on_c, 0, 65, 76
2, 203205, Note_on_c, 0, 66, 85
2, 203225, Note_on_c, 0, 65, 0
2, 203280, Note_on_c, 0, 66, 0
2, 203280, Note_on_c, 0, 71, 105
2, 203280, Note_on_c, 0, 50, 88
2, 203280, Note_on_c, 0, 60, 86
2, 203290, Note_on_c, 0, 54, 82
2, 203325, Note_on_c, 0, 54, 0
2, 203340, Note_on_c, 0, 50, 0
2, 203350, Note_on_c, 0, 60, 0
2, 203390, Note_on_c, 0, 71, 0
2, 203415, Note_on_c, 0, 64, 78
2, 203485, Note_on_c, 0, 64, 0
2, 203525, Note_on_c, 0, 66, 127
2, 203595, Note_on_c, 0, 66, 0
2, 203625, Note_on_c, 0, 50, 95
2, 203640, Note_on_c, 0, 60, 89
2, 203640, Note_on_c, 0, 54, 85
2, 203640, Note_on_c, 0, 69, 98
2, 203710, Note_on_c, 0, 54, 0
2, 203720, Note_on_c, 0, 50, 0
2, 203730, Note_on_c, 0, 60, 0
2, 203740, Note_on_c, 0, 69, 0
2, 203775, Note_on_c, 0, 64, 64
2, 203835, Note_on_c, 0, 64, 0
2, 203895, Note_on_c, 0, 65, 80
2, 203950, Note_on_c, 0, 66, 80
2, 203965, Note_on_c, 0, 65, 0
2, 204000, Note_on_c, 0, 50, 98
2, 204010, Note_on_c, 0, 60, 90
2, 204010, Note_on_c, 0, 54, 85
2, 204010, Note_on_c, 0, 71, 101
2, 204020, Note_on_c, 0, 66, 0
2, 204050, Note_on_c, 0, 54, 0
2, 204110, Note_on_c, 0, 50, 0
2, 204115, Note_on_c, 0, 71, 0
2, 204130, Note_on_c, 0, 64, 81
2, 204135, Note_on_c, 0, 60, 0
2, 204235, Note_on_c, 0, 64, 0
2, 204245, Note_on_c, 0, 66, 108
2, 204330, Note_on_c, 0, 66, 0
2, 204360, Note_on_c, 0, 50, 93
2, 204360, Note_on_c, 0, 54, 87
2, 204360, Note_on_c, 0, 60, 93
2, 204370, Note_on_c, 0, 69, 87
2, 204435, Note_on_c, 0, 54, 0
2, 204470, Note_on_c, 0, 69, 0
2, 204470, Note_on_c, 0, 60, 0
2, 204475, Note_on_c, 0, 50, 0
2, 204615, Note_on_c, 0, 65, 78
2, 204665, Note_on_c, 0, 66, 81
2, 204690, Note_on_c, 0, 65, 0
2, 204730, Note_on_c, 0, 66, 0
2, 204730, Note_on_c, 0, 50, 101
2, 204730, Note_on_c, 0, 54, 87
2, 204730, Note_on_c, 0, 71, 101
2, 204730, Note_on_c, 0, 60, 97
2, 204815, Note_on_c, 0, 54, 0
2, 204850, Note_on_c, 0, 71, 0
2, 204850, Note_on_c, 0, 64, 73
2, 204915, Note_on_c, 0, 64, 0
2, 204925, Note_on_c, 0, 60, 0
2, 204955, Note_on_c, 0, 66, 103
2, 205030, Note_on_c, 0, 66, 0
2, 205090, Note_on_c, 0, 69, 85
2, 205100, Note_on_c, 0, 54, 90
2, 205110, Note_on_c, 0, 60, 95
2, 205115, Note_on_c, 0, 50, 0
2, 205175, Note_on_c, 0, 54, 0
2, 205185, Note_on_c, 0, 69, 0
2, 205210, Note_on_c, 0, 64, 76
2, 205265, Note_on_c, 0, 64, 0
2, 205330, Note_on_c, 0, 66, 81
2, 205345, Note_on_c, 0, 60, 0
2, 205390, Note_on_c, 0, 66, 0
2, 205440, Note_on_c, 0, 55, 88
2, 205455, Note_on_c, 0, 62, 96
2, 205455, Note_on_c, 0, 59, 91
2, 206535, Note_on_c, 0, 59, 0
2, 206535, Note_on_c, 0, 55, 0
2, 206550, Note_on_c, 0, 62, 0
2, 206550, End_track
3, 0, Start_track
3, 0, MIDI_port, 0
3, 0, Title_t, "tk2"
3, 487, Program_c, 1, 35
3, 488, Control_c, 1, 7, 100
3, 488, Control_c, 1, 10, 64
3, 520, Control_c, 1, 10, 64
3, 520, Control_c, 1, 11, 127
3, 525, Control_c, 1, 91, 60
3, 525, Control_c, 1, 93, 60
3, 9360, Note_on_c, 1, 36, 91
3, 9365, Control_c, 1, 1, 0
3, 9365, Pitch_bend_c, 1, 16383
3, 9475, Note_on_c, 1, 36, 0
3, 9480, Note_on_c, 1, 37, 80
3, 9575, Note_on_c, 1, 37, 0
3, 9600, Note_on_c, 1, 38, 101
3, 9725, Note_on_c, 1, 38, 0
3, 9840, Note_on_c, 1, 38, 97
3, 9995, Note_on_c, 1, 38, 0
3, 10080, Note_on_c, 1, 35, 101
3, 10190, Note_on_c, 1, 35, 0
3, 10200, Note_on_c, 1, 33, 92
3, 10355, Note_on_c, 1, 33, 0
3, 10560, Note_on_c, 1, 38, 107
3, 10680, Note_on_c, 1, 38, 0
3, 10800, Note_on_c, 1, 38, 108
3, 10915, Note_on_c, 1, 38, 0
3, 11040, Note_on_c, 1, 35, 105
3, 11145, Note_on_c, 1, 35, 0
3, 11160, Note_on_c, 1, 33, 76
3, 11330, Note_on_c, 1, 33, 0
3, 11520, Note_on_c, 1, 38, 101
3, 11655, Note_on_c, 1, 38, 0
3, 11760, Note_on_c, 1, 38, 101
3, 11875, Note_on_c, 1, 38, 0
3, 12000, Note_on_c, 1, 35, 108
3, 12115, Note_on_c, 1, 35, 0
3, 12120, Note_on_c, 1, 33, 80
3, 12245, Note_on_c, 1, 33, 0
3, 12480, Note_on_c, 1, 38, 97
3, 12555, Note_on_c, 1, 38, 0
3, 12720, Note_on_c, 1, 38, 94
3, 12830, Note_on_c, 1, 38, 0
3, 12960, Note_on_c, 1, 35, 95
3, 13065, Note_on_c, 1, 35, 0
3, 13080, Note_on_c, 1, 33, 82
3, 13190, Note_on_c, 1, 33, 0
3, 13440, Note_on_c, 1, 43, 92
3, 13525, Note_on_c, 1, 43, 0
3, 13680, Note_on_c, 1, 43, 90
3, 13785, Note_on_c, 1, 43, 0
3, 13920, Note_on_c, 1, 40, 86
3, 14025, Note_on_c, 1, 40, 0
3, 14040, Note_on_c, 1, 38, 82
3, 14135, Note_on_c, 1, 38, 0
3, 14400, Note_on_c, 1, 43, 94
3, 14495, Note_on_c, 1, 43, 0
3, 14640, Note_on_c, 1, 43, 97
3, 14730, Note_on_c, 1, 43, 0
3, 14880, Note_on_c, 1, 40, 96
3, 14975, Note_on_c, 1, 40, 0
3, 15000, Note_on_c, 1, 38, 82
3, 15110, Note_on_c, 1, 38, 0
3, 15480, Note_on_c, 1, 43, 95
3, 15565, Note_on_c, 1, 43, 0
3, 15840, Note_on_c, 1, 40, 98
3, 15945, Note_on_c, 1, 40, 0
3, 15960, Note_on_c, 1, 38, 81
3, 16070, Note_on_c, 1, 38, 0
3, 16200, Note_on_c, 1, 38, 89
3, 16260, Note_on_c, 1, 38, 0
3, 16320, Note_on_c, 1, 43, 91
3, 16430, Note_on_c, 1, 43, 0
3, 16560, Note_on_c, 1, 43, 103
3, 16650, Note_on_c, 1, 43, 0
3, 16800, Note_on_c, 1, 40, 93
3, 16905, Note_on_c, 1, 40, 0
3, 16920, Note_on_c, 1, 38, 90
3, 17045, Note_on_c, 1, 38, 0
3, 17160, Note_on_c, 1, 37, 99
3, 17250, Note_on_c, 1, 37, 0
3, 17280, Note_on_c, 1, 38, 91
3, 17405, Note_on_c, 1, 38, 0
3, 17520, Note_on_c, 1, 38, 107
3, 17630, Note_on_c, 1, 38, 0
3, 17760, Note_on_c, 1, 35, 95
3, 17870, Note_on_c, 1, 35, 0
3, 17880, Note_on_c, 1, 33, 85
3, 18035, Note_on_c, 1, 33, 0
3, 18480, Note_on_c, 1, 38, 108
3, 18590, Note_on_c, 1, 38, 0
3, 18720, Note_on_c, 1, 35, 95
3, 18810, Note_on_c, 1, 35, 0
3, 18840, Note_on_c, 1, 33, 84
3, 18985, Note_on_c, 1, 33, 0
3, 19200, Note_on_c, 1, 38, 97
3, 19280, Note_on_c, 1, 38, 0
3, 19440, Note_on_c, 1, 38, 101
3, 19525, Note_on_c, 1, 38, 0
3, 19680, Note_on_c, 1, 35, 92
3, 19785, Note_on_c, 1, 35, 0
3, 19800, Note_on_c, 1, 33, 84
3, 19925, Note_on_c, 1, 33, 0
3, 20400, Note_on_c, 1, 38, 96
3, 20495, Note_on_c, 1, 38, 0
3, 20640, Note_on_c, 1, 35, 93
3, 20750, Note_on_c, 1, 35, 0
3, 20760, Note_on_c, 1, 33, 84
3, 20870, Note_on_c, 1, 33, 0
3, 21000, Note_on_c, 1, 38, 98
3, 21090, Note_on_c, 1, 38, 0
3, 21120, Note_on_c, 1, 43, 90
3, 21265, Note_on_c, 1, 43, 0
3, 21360, Note_on_c, 1, 43, 93
3, 21470, Note_on_c, 1, 43, 0
3, 21600, Note_on_c, 1, 40, 87
3, 21695, Note_on_c, 1, 40, 0
3, 21720, Note_on_c, 1, 38, 84
3, 21895, Note_on_c, 1, 38, 0
3, 22320, Note_on_c, 1, 43, 95
3, 22430, Note_on_c, 1, 43, 0
3, 22560, Note_on_c, 1, 40, 89
3, 22660, Note_on_c, 1, 40, 0
3, 22680, Note_on_c, 1, 38, 89
3, 22795, Note_on_c, 1, 38, 0
3, 23040, Note_on_c, 1, 43, 96
3, 23135, Note_on_c, 1, 43, 0
3, 23280, Note_on_c, 1, 43, 97
3, 23365, Note_on_c, 1, 43, 0
3, 23520, Note_on_c, 1, 40, 96
3, 23625, Note_on_c, 1, 40, 0
3, 23640, Note_on_c, 1, 38, 72
3, 23775, Note_on_c, 1, 38, 0
3, 24240, Note_on_c, 1, 43, 101
3, 24355, Note_on_c, 1, 43, 0
3, 24480, Note_on_c, 1, 40, 96
3, 24595, Note_on_c, 1, 40, 0
3, 24600, Note_on_c, 1, 38, 98
3, 24715, Note_on_c, 1, 38, 0
3, 24720, Note_on_c, 1, 33, 89
3, 24835, Note_on_c, 1, 33, 0
3, 24840, Note_on_c, 1, 34, 89
3, 24950, Note_on_c, 1, 34, 0
3, 24960, Note_on_c, 1, 35, 109
3, 25120, Note_on_c, 1, 35, 0
3, 25195, Note_on_c, 1, 35, 112
3, 25360, Note_on_c, 1, 35, 0
3, 25805, Note_on_c, 1, 29, 98
3, 25890, Note_on_c, 1, 29, 0
3, 25915, Note_on_c, 1, 30, 85
3, 26030, Note_on_c, 1, 30, 0
3, 26155, Note_on_c, 1, 30, 96
3, 26335, Note_on_c, 1, 30, 0
3, 26755, Note_on_c, 1, 33, 95
3, 26870, Note_on_c, 1, 33, 0
3, 26875, Note_on_c, 1, 35, 85
3, 27015, Note_on_c, 1, 35, 0
3, 27115, Note_on_c, 1, 35, 117
3, 27290, Note_on_c, 1, 35, 0
3, 27715, Note_on_c, 1, 29, 88
3, 27810, Note_on_c, 1, 29, 0
3, 27835, Note_on_c, 1, 30, 88
3, 27985, Note_on_c, 1, 30, 0
3, 28075, Note_on_c, 1, 30, 97
3, 28210, Note_on_c, 1, 30, 0
3, 28445, Note_on_c, 1, 35, 117
3, 28700, Note_on_c, 1, 35, 0
3, 28795, Note_on_c, 1, 40, 108
3, 28910, Note_on_c, 1, 40, 0
3, 29040, Note_on_c, 1, 40, 109
3, 29170, Note_on_c, 1, 40, 0
3, 29635, Note_on_c, 1, 34, 82
3, 29750, Note_on_c, 1, 34, 0
3, 29755, Note_on_c, 1, 35, 117
3, 29910, Note_on_c, 1, 35, 0
3, 29995, Note_on_c, 1, 35, 115
3, 30150, Note_on_c, 1, 35, 0
3, 30600, Note_on_c, 1, 38, 97
3, 30690, Note_on_c, 1, 38, 0
3, 30715, Note_on_c, 1, 40, 94
3, 30845, Note_on_c, 1, 40, 0
3, 30960, Note_on_c, 1, 40, 101
3, 31070, Note_on_c, 1, 40, 0
3, 31565, Note_on_c, 1, 34, 89
3, 31670, Note_on_c, 1, 34, 0
3, 31675, Note_on_c, 1, 35, 126
3, 31795, Note_on_c, 1, 35, 0
3, 31915, Note_on_c, 1, 35, 112
3, 32060, Note_on_c, 1, 35, 0
3, 32155, Note_on_c, 1, 42, 109
3, 32270, Note_on_c, 1, 42, 0
3, 32275, Note_on_c, 1, 40, 96
3, 32390, Note_on_c, 1, 40, 0
3, 32395, Note_on_c, 1, 38, 92
3, 32510, Note_on_c, 1, 38, 0
3, 32515, Note_on_c, 1, 35, 84
3, 32625, Note_on_c, 1, 35, 0
3, 32635, Note_on_c, 1, 38, 99
3, 32795, Note_on_c, 1, 38, 0
3, 32875, Note_on_c, 1, 38, 99
3, 32975, Note_on_c, 1, 38, 0
3, 33115, Note_on_c, 1, 35, 105
3, 33230, Note_on_c, 1, 35, 0
3, 33235, Note_on_c, 1, 33, 91
3, 33360, Note_on_c, 1, 33, 0
3, 33715, Note_on_c, 1, 33, 91
3, 33770, Note_on_c, 1, 33, 0
3, 33835, Note_on_c, 1, 38, 96
3, 33910, Note_on_c, 1, 38, 0
3, 33955, Note_on_c, 1, 38, 87
3, 34030, Note_on_c, 1, 38, 0
3, 34075, Note_on_c, 1, 35, 99
3, 34150, Note_on_c, 1, 35, 0
3, 34195, Note_on_c, 1, 33, 85
3, 34315, Note_on_c, 1, 33, 0
3, 34435, Note_on_c, 1, 33, 96
3, 34535, Note_on_c, 1, 33, 0
3, 34555, Note_on_c, 1, 38, 99
3, 34690, Note_on_c, 1, 38, 0
3, 34795, Note_on_c, 1, 38, 107
3, 34925, Note_on_c, 1, 38, 0
3, 35035, Note_on_c, 1, 35, 112
3, 35135, Note_on_c, 1, 35, 0
3, 35165, Note_on_c, 1, 33, 92
3, 35335, Note_on_c, 1, 33, 0
3, 35515, Note_on_c, 1, 38, 107
3, 35640, Note_on_c, 1, 38, 0
3, 35765, Note_on_c, 1, 38, 98
3, 35875, Note_on_c, 1, 38, 0
3, 35995, Note_on_c, 1, 35, 99
3, 36095, Note_on_c, 1, 35, 0
3, 36120, Note_on_c, 1, 33, 87
3, 36260, Note_on_c, 1, 33, 0
3, 36365, Note_on_c, 1, 38, 95
3, 36470, Note_on_c, 1, 38, 0
3, 36485, Note_on_c, 1, 43, 108
3, 36590, Note_on_c, 1, 43, 0
3, 36715, Note_on_c, 1, 43, 101
3, 36840, Note_on_c, 1, 43, 0
3, 36955, Note_on_c, 1, 40, 107
3, 37070, Note_on_c, 1, 40, 0
3, 37080, Note_on_c, 1, 38, 99
3, 37200, Note_on_c, 1, 38, 0
3, 37440, Note_on_c, 1, 43, 99
3, 37530, Note_on_c, 1, 43, 0
3, 37675, Note_on_c, 1, 43, 98
3, 37785, Note_on_c, 1, 43, 0
3, 37915, Note_on_c, 1, 40, 99
3, 38015, Note_on_c, 1, 40, 0
3, 38035, Note_on_c, 1, 38, 96
3, 38145, Note_on_c, 1, 38, 0
3, 38395, Note_on_c, 1, 43, 98
3, 38475, Note_on_c, 1, 43, 0
3, 38635, Note_on_c, 1, 43, 96
3, 38755, Note_on_c, 1, 43, 0
3, 38875, Note_on_c, 1, 40, 96
3, 38990, Note_on_c, 1, 40, 0
3, 39000, Note_on_c, 1, 38, 99
3, 39070, Note_on_c, 1, 38, 0
3, 39235, Note_on_c, 1, 43, 95
3, 39320, Note_on_c, 1, 43, 0
3, 39475, Note_on_c, 1, 43, 103
3, 39575, Note_on_c, 1, 43, 0
3, 39595, Note_on_c, 1, 31, 87
3, 39650, Note_on_c, 1, 31, 0
3, 39715, Note_on_c, 1, 31, 96
3, 39805, Note_on_c, 1, 31, 0
3, 39835, Note_on_c, 1, 33, 109
3, 39890, Note_on_c, 1, 33, 0
3, 39955, Note_on_c, 1, 33, 93
3, 40025, Note_on_c, 1, 33, 0
3, 40075, Note_on_c, 1, 34, 112
3, 40130, Note_on_c, 1, 34, 0
3, 40195, Note_on_c, 1, 34, 107
3, 40295, Note_on_c, 1, 34, 0
3, 40315, Note_on_c, 1, 35, 127
3, 40450, Note_on_c, 1, 35, 0
3, 40555, Note_on_c, 1, 35, 117
3, 40715, Note_on_c, 1, 35, 0
3, 41160, Note_on_c, 1, 29, 93
3, 41250, Note_on_c, 1, 29, 0
3, 41275, Note_on_c, 1, 30, 107
3, 41410, Note_on_c, 1, 30, 0
3, 41515, Note_on_c, 1, 30, 101
3, 41695, Note_on_c, 1, 30, 0
3, 42115, Note_on_c, 1, 33, 89
3, 42185, Note_on_c, 1, 33, 0
3, 42235, Note_on_c, 1, 35, 94
3, 42365, Note_on_c, 1, 35, 0
3, 42475, Note_on_c, 1, 35, 117
3, 42640, Note_on_c, 1, 35, 0
3, 43075, Note_on_c, 1, 29, 85
3, 43165, Note_on_c, 1, 29, 0
3, 43195, Note_on_c, 1, 30, 93
3, 43310, Note_on_c, 1, 30, 0
3, 43435, Note_on_c, 1, 30, 112
3, 43520, Note_on_c, 1, 30, 0
3, 43800, Note_on_c, 1, 35, 117
3, 44030, Note_on_c, 1, 35, 0
3, 44155, Note_on_c, 1, 40, 96
3, 44275, Note_on_c, 1, 40, 0
3, 44400, Note_on_c, 1, 40, 120
3, 44510, Note_on_c, 1, 40, 0
3, 45005, Note_on_c, 1, 34, 96
3, 45105, Note_on_c, 1, 34, 0
3, 45115, Note_on_c, 1, 35, 105
3, 45210, Note_on_c, 1, 35, 0
3, 45355, Note_on_c, 1, 35, 126
3, 45510, Note_on_c, 1, 35, 0
3, 45965, Note_on_c, 1, 38, 94
3, 46045, Note_on_c, 1, 38, 0
3, 46075, Note_on_c, 1, 40, 89
3, 46195, Note_on_c, 1, 40, 0
3, 46315, Note_on_c, 1, 40, 101
3, 46475, Note_on_c, 1, 40, 0
3, 46925, Note_on_c, 1, 34, 87
3, 47010, Note_on_c, 1, 34, 0
3, 47035, Note_on_c, 1, 35, 96
3, 47145, Note_on_c, 1, 35, 0
3, 47275, Note_on_c, 1, 35, 109
3, 47400, Note_on_c, 1, 35, 0
3, 47515, Note_on_c, 1, 42, 107
3, 47630, Note_on_c, 1, 42, 0
3, 47635, Note_on_c, 1, 40, 89
3, 47750, Note_on_c, 1, 40, 0
3, 47755, Note_on_c, 1, 38, 91
3, 47865, Note_on_c, 1, 38, 0
3, 47875, Note_on_c, 1, 35, 83
3, 47985, Note_on_c, 1, 35, 0
3, 47995, Note_on_c, 1, 38, 94
3, 48165, Note_on_c, 1, 38, 0
3, 48245, Note_on_c, 1, 38, 99
3, 48335, Note_on_c, 1, 38, 0
3, 48475, Note_on_c, 1, 35, 109
3, 48595, Note_on_c, 1, 35, 0
3, 48600, Note_on_c, 1, 33, 93
3, 48715, Note_on_c, 1, 33, 0
3, 49080, Note_on_c, 1, 33, 89
3, 49140, Note_on_c, 1, 33, 0
3, 49195, Note_on_c, 1, 38, 96
3, 49255, Note_on_c, 1, 38, 0
3, 49315, Note_on_c, 1, 38, 96
3, 49395, Note_on_c, 1, 38, 0
3, 49435, Note_on_c, 1, 35, 99
3, 49515, Note_on_c, 1, 35, 0
3, 49555, Note_on_c, 1, 33, 95
3, 49725, Note_on_c, 1, 33, 0
3, 49795, Note_on_c, 1, 33, 94
3, 49870, Note_on_c, 1, 33, 0
3, 49915, Note_on_c, 1, 38, 101
3, 50030, Note_on_c, 1, 38, 0
3, 50155, Note_on_c, 1, 38, 101
3, 50255, Note_on_c, 1, 38, 0
3, 50400, Note_on_c, 1, 35, 108
3, 50500, Note_on_c, 1, 35, 0
3, 50515, Note_on_c, 1, 33, 101
3, 50650, Note_on_c, 1, 33, 0
3, 50880, Note_on_c, 1, 38, 103
3, 50990, Note_on_c, 1, 38, 0
3, 51120, Note_on_c, 1, 38, 97
3, 51220, Note_on_c, 1, 38, 0
3, 51355, Note_on_c, 1, 35, 115
3, 51470, Note_on_c, 1, 35, 0
3, 51475, Note_on_c, 1, 33, 96
3, 51610, Note_on_c, 1, 33, 0
3, 51725, Note_on_c, 1, 38, 101
3, 51830, Note_on_c, 1, 38, 0
3, 51835, Note_on_c, 1, 43, 90
3, 51985, Note_on_c, 1, 43, 0
3, 52085, Note_on_c, 1, 43, 95
3, 52245, Note_on_c, 1, 43, 0
3, 52320, Note_on_c, 1, 40, 96
3, 52430, Note_on_c, 1, 40, 0
3, 52440, Note_on_c, 1, 38, 89
3, 52600, Note_on_c, 1, 38, 0
3, 52805, Note_on_c, 1, 43, 94
3, 52905, Note_on_c, 1, 43, 0
3, 53040, Note_on_c, 1, 43, 95
3, 53145, Note_on_c, 1, 43, 0
3, 53275, Note_on_c, 1, 40, 98
3, 53390, Note_on_c, 1, 40, 0
3, 53395, Note_on_c, 1, 38, 94
3, 53535, Note_on_c, 1, 38, 0
3, 53765, Note_on_c, 1, 43, 96
3, 53850, Note_on_c, 1, 43, 0
3, 53995, Note_on_c, 1, 43, 93
3, 54110, Note_on_c, 1, 43, 0
3, 54235, Note_on_c, 1, 40, 85
3, 54355, Note_on_c, 1, 40, 0
3, 54360, Note_on_c, 1, 38, 87
3, 54430, Note_on_c, 1, 38, 0
3, 54595, Note_on_c, 1, 43, 99
3, 54690, Note_on_c, 1, 43, 0
3, 54835, Note_on_c, 1, 43, 99
3, 54920, Note_on_c, 1, 43, 0
3, 54955, Note_on_c, 1, 35, 93
3, 55030, Note_on_c, 1, 35, 0
3, 55075, Note_on_c, 1, 35, 96
3, 55150, Note_on_c, 1, 35, 0
3, 55195, Note_on_c, 1, 36, 97
3, 55270, Note_on_c, 1, 36, 0
3, 55315, Note_on_c, 1, 36, 95
3, 55390, Note_on_c, 1, 36, 0
3, 55435, Note_on_c, 1, 37, 122
3, 55490, Note_on_c, 1, 37, 0
3, 55555, Note_on_c, 1, 37, 85
3, 55660, Note_on_c, 1, 37, 0
3, 55680, Note_on_c, 1, 38, 101
3, 55805, Note_on_c, 1, 38, 0
3, 55920, Note_on_c, 1, 38, 97
3, 56075, Note_on_c, 1, 38, 0
3, 56160, Note_on_c, 1, 35, 101
3, 56270, Note_on_c, 1, 35, 0
3, 56280, Note_on_c, 1, 33, 92
3, 56435, Note_on_c, 1, 33, 0
3, 56640, Note_on_c, 1, 38, 107
3, 56760, Note_on_c, 1, 38, 0
3, 56880, Note_on_c, 1, 38, 108
3, 56995, Note_on_c, 1, 38, 0
3, 57120, Note_on_c, 1, 35, 105
3, 57225, Note_on_c, 1, 35, 0
3, 57240, Note_on_c, 1, 33, 76
3, 57410, Note_on_c, 1, 33, 0
3, 57600, Note_on_c, 1, 38, 101
3, 57735, Note_on_c, 1, 38, 0
3, 57840, Note_on_c, 1, 38, 101
3, 57955, Note_on_c, 1, 38, 0
3, 58080, Note_on_c, 1, 35, 108
3, 58195, Note_on_c, 1, 35, 0
3, 58200, Note_on_c, 1, 33, 80
3, 58325, Note_on_c, 1, 33, 0
3, 58560, Note_on_c, 1, 38, 97
3, 58635, Note_on_c, 1, 38, 0
3, 58800, Note_on_c, 1, 38, 94
3, 58910, Note_on_c, 1, 38, 0
3, 59040, Note_on_c, 1, 35, 95
3, 59145, Note_on_c, 1, 35, 0
3, 59160, Note_on_c, 1, 33, 82
3, 59270, Note_on_c, 1, 33, 0
3, 59520, Note_on_c, 1, 43, 92
3, 59605, Note_on_c, 1, 43, 0
3, 59760, Note_on_c, 1, 43, 90
3, 59865, Note_on_c, 1, 43, 0
3, 60000, Note_on_c, 1, 40, 86
3, 60105, Note_on_c, 1, 40, 0
3, 60120, Note_on_c, 1, 38, 82
3, 60215, Note_on_c, 1, 38, 0
3, 60480, Note_on_c, 1, 43, 94
3, 60575, Note_on_c, 1, 43, 0
3, 60720, Note_on_c, 1, 43, 97
3, 60810, Note_on_c, 1, 43, 0
3, 60960, Note_on_c, 1, 40, 96
3, 61055, Note_on_c, 1, 40, 0
3, 61080, Note_on_c, 1, 38, 82
3, 61190, Note_on_c, 1, 38, 0
3, 61560, Note_on_c, 1, 43, 95
3, 61645, Note_on_c, 1, 43, 0
3, 61920, Note_on_c, 1, 40, 98
3, 62025, Note_on_c, 1, 40, 0
3, 62040, Note_on_c, 1, 38, 81
3, 62150, Note_on_c, 1, 38, 0
3, 62280, Note_on_c, 1, 38, 89
3, 62340, Note_on_c, 1, 38, 0
3, 62400, Note_on_c, 1, 43, 91
3, 62510, Note_on_c, 1, 43, 0
3, 62640, Note_on_c, 1, 43, 103
3, 62730, Note_on_c, 1, 43, 0
3, 62880, Note_on_c, 1, 40, 93
3, 62985, Note_on_c, 1, 40, 0
3, 63000, Note_on_c, 1, 38, 90
3, 63125, Note_on_c, 1, 38, 0
3, 63240, Note_on_c, 1, 37, 99
3, 63330, Note_on_c, 1, 37, 0
3, 63360, Note_on_c, 1, 38, 91
3, 63485, Note_on_c, 1, 38, 0
3, 63600, Note_on_c, 1, 38, 107
3, 63710, Note_on_c, 1, 38, 0
3, 63840, Note_on_c, 1, 35, 95
3, 63950, Note_on_c, 1, 35, 0
3, 63960, Note_on_c, 1, 33, 85
3, 64115, Note_on_c, 1, 33, 0
3, 64560, Note_on_c, 1, 38, 108
3, 64670, Note_on_c, 1, 38, 0
3, 64800, Note_on_c, 1, 35, 95
3, 64890, Note_on_c, 1, 35, 0
3, 64920, Note_on_c, 1, 33, 84
3, 65065, Note_on_c, 1, 33, 0
3, 65280, Note_on_c, 1, 38, 97
3, 65360, Note_on_c, 1, 38, 0
3, 65520, Note_on_c, 1, 38, 101
3, 65605, Note_on_c, 1, 38, 0
3, 65760, Note_on_c, 1, 35, 92
3, 65865, Note_on_c, 1, 35, 0
3, 65880, Note_on_c, 1, 33, 84
3, 66005, Note_on_c, 1, 33, 0
3, 66480, Note_on_c, 1, 38, 96
3, 66575, Note_on_c, 1, 38, 0
3, 66720, Note_on_c, 1, 35, 93
3, 66830, Note_on_c, 1, 35, 0
3, 66840, Note_on_c, 1, 33, 84
3, 66950, Note_on_c, 1, 33, 0
3, 67080, Note_on_c, 1, 38, 98
3, 67170, Note_on_c, 1, 38, 0
3, 67200, Note_on_c, 1, 43, 90
3, 67345, Note_on_c, 1, 43, 0
3, 67440, Note_on_c, 1, 43, 93
3, 67550, Note_on_c, 1, 43, 0
3, 67680, Note_on_c, 1, 40, 87
3, 67775, Note_on_c, 1, 40, 0
3, 67800, Note_on_c, 1, 38, 84
3, 67975, Note_on_c, 1, 38, 0
3, 68400, Note_on_c, 1, 43, 95
3, 68510, Note_on_c, 1, 43, 0
3, 68640, Note_on_c, 1, 40, 89
3, 68740, Note_on_c, 1, 40, 0
3, 68760, Note_on_c, 1, 38, 89
3, 68875, Note_on_c, 1, 38, 0
3, 69120, Note_on_c, 1, 43, 96
3, 69215, Note_on_c, 1, 43, 0
3, 69360, Note_on_c, 1, 43, 97
3, 69445, Note_on_c, 1, 43, 0
3, 69600, Note_on_c, 1, 40, 96
3, 69705, Note_on_c, 1, 40, 0
3, 69720, Note_on_c, 1, 38, 72
3, 69855, Note_on_c, 1, 38, 0
3, 70320, Note_on_c, 1, 43, 101
3, 70435, Note_on_c, 1, 43, 0
3, 70560, Note_on_c, 1, 40, 96
3, 70675, Note_on_c, 1, 40, 0
3, 70680, Note_on_c, 1, 38, 98
3, 70795, Note_on_c, 1, 38, 0
3, 70800, Note_on_c, 1, 33, 89
3, 70915, Note_on_c, 1, 33, 0
3, 70920, Note_on_c, 1, 34, 89
3, 71030, Note_on_c, 1, 34, 0
3, 71035, Note_on_c, 1, 35, 109
3, 71200, Note_on_c, 1, 35, 0
3, 71275, Note_on_c, 1, 35, 112
3, 71440, Note_on_c, 1, 35, 0
3, 71885, Note_on_c, 1, 29, 98
3, 71970, Note_on_c, 1, 29, 0
3, 71995, Note_on_c, 1, 30, 85
3, 72110, Note_on_c, 1, 30, 0
3, 72235, Note_on_c, 1, 30, 96
3, 72415, Note_on_c, 1, 30, 0
3, 72835, Note_on_c, 1, 33, 95
3, 72950, Note_on_c, 1, 33, 0
3, 72955, Note_on_c, 1, 35, 85
3, 73095, Note_on_c, 1, 35, 0
3, 73195, Note_on_c, 1, 35, 117
3, 73370, Note_on_c, 1, 35, 0
3, 73795, Note_on_c, 1, 29, 88
3, 73890, Note_on_c, 1, 29, 0
3, 73915, Note_on_c, 1, 30, 88
3, 74065, Note_on_c, 1, 30, 0
3, 74155, Note_on_c, 1, 30, 97
3, 74290, Note_on_c, 1, 30, 0
3, 74525, Note_on_c, 1, 35, 117
3, 74780, Note_on_c, 1, 35, 0
3, 74875, Note_on_c, 1, 40, 108
3, 74990, Note_on_c, 1, 40, 0
3, 75120, Note_on_c, 1, 40, 109
3, 75250, Note_on_c, 1, 40, 0
3, 75715, Note_on_c, 1, 34, 82
3, 75830, Note_on_c, 1, 34, 0
3, 75835, Note_on_c, 1, 35, 117
3, 75990, Note_on_c, 1, 35, 0
3, 76075, Note_on_c, 1, 35, 115
3, 76230, Note_on_c, 1, 35, 0
3, 76680, Note_on_c, 1, 38, 97
3, 76770, Note_on_c, 1, 38, 0
3, 76795, Note_on_c, 1, 40, 94
3, 76925, Note_on_c, 1, 40, 0
3, 77040, Note_on_c, 1, 40, 101
3, 77150, Note_on_c, 1, 40, 0
3, 77645, Note_on_c, 1, 34, 89
3, 77750, Note_on_c, 1, 34, 0
3, 77755, Note_on_c, 1, 35, 126
3, 77875, Note_on_c, 1, 35, 0
3, 77995, Note_on_c, 1, 35, 112
3, 78140, Note_on_c, 1, 35, 0
3, 78235, Note_on_c, 1, 42, 109
3, 78350, Note_on_c, 1, 42, 0
3, 78355, Note_on_c, 1, 40, 96
3, 78470, Note_on_c, 1, 40, 0
3, 78475, Note_on_c, 1, 38, 92
3, 78590, Note_on_c, 1, 38, 0
3, 78595, Note_on_c, 1, 35, 84
3, 78705, Note_on_c, 1, 35, 0
3, 78715, Note_on_c, 1, 38, 99
3, 78875, Note_on_c, 1, 38, 0
3, 78955, Note_on_c, 1, 38, 99
3, 79055, Note_on_c, 1, 38, 0
3, 79195, Note_on_c, 1, 35, 105
3, 79310, Note_on_c, 1, 35, 0
3, 79315, Note_on_c, 1, 33, 91
3, 79440, Note_on_c, 1, 33, 0
3, 79795, Note_on_c, 1, 33, 91
3, 79850, Note_on_c, 1, 33, 0
3, 79915, Note_on_c, 1, 38, 96
3, 79990, Note_on_c, 1, 38, 0
3, 80035, Note_on_c, 1, 38, 87
3, 80110, Note_on_c, 1, 38, 0
3, 80155, Note_on_c, 1, 35, 99
3, 80230, Note_on_c, 1, 35, 0
3, 80275, Note_on_c, 1, 33, 85
3, 80395, Note_on_c, 1, 33, 0
3, 80515, Note_on_c, 1, 33, 96
3, 80615, Note_on_c, 1, 33, 0
3, 80635, Note_on_c, 1, 38, 99
3, 80770, Note_on_c, 1, 38, 0
3, 80875, Note_on_c, 1, 38, 107
3, 81005, Note_on_c, 1, 38, 0
3, 81115, Note_on_c, 1, 35, 112
3, 81215, Note_on_c, 1, 35, 0
3, 81245, Note_on_c, 1, 33, 92
3, 81415, Note_on_c, 1, 33, 0
3, 81595, Note_on_c, 1, 38, 107
3, 81720, Note_on_c, 1, 38, 0
3, 81845, Note_on_c, 1, 38, 98
3, 81955, Note_on_c, 1, 38, 0
3, 82075, Note_on_c, 1, 35, 99
3, 82175, Note_on_c, 1, 35, 0
3, 82200, Note_on_c, 1, 33, 87
3, 82340, Note_on_c, 1, 33, 0
3, 82445, Note_on_c, 1, 38, 95
3, 82550, Note_on_c, 1, 38, 0
3, 82560, Note_on_c, 1, 43, 108
3, 82670, Note_on_c, 1, 43, 0
3, 82800, Note_on_c, 1, 43, 101
3, 82925, Note_on_c, 1, 43, 0
3, 83040, Note_on_c, 1, 40, 107
3, 83150, Note_on_c, 1, 40, 0
3, 83160, Note_on_c, 1, 38, 99
3, 83280, Note_on_c, 1, 38, 0
3, 83520, Note_on_c, 1, 43, 99
3, 83610, Note_on_c, 1, 43, 0
3, 83760, Note_on_c, 1, 43, 98
3, 83870, Note_on_c, 1, 43, 0
3, 84000, Note_on_c, 1, 40, 99
3, 84100, Note_on_c, 1, 40, 0
3, 84120, Note_on_c, 1, 38, 96
3, 84230, Note_on_c, 1, 38, 0
3, 84480, Note_on_c, 1, 43, 98
3, 84560, Note_on_c, 1, 43, 0
3, 84720, Note_on_c, 1, 43, 96
3, 84840, Note_on_c, 1, 43, 0
3, 84960, Note_on_c, 1, 40, 96
3, 85070, Note_on_c, 1, 40, 0
3, 85080, Note_on_c, 1, 38, 99
3, 85150, Note_on_c, 1, 38, 0
3, 85320, Note_on_c, 1, 43, 95
3, 85405, Note_on_c, 1, 43, 0
3, 85560, Note_on_c, 1, 43, 103
3, 85660, Note_on_c, 1, 43, 0
3, 85680, Note_on_c, 1, 31, 87
3, 85735, Note_on_c, 1, 31, 0
3, 85800, Note_on_c, 1, 31, 96
3, 85890, Note_on_c, 1, 31, 0
3, 85920, Note_on_c, 1, 35, 108
3, 85995, Note_on_c, 1, 35, 0
3, 86040, Note_on_c, 1, 35, 87
3, 86145, Note_on_c, 1, 35, 0
3, 86160, Note_on_c, 1, 36, 90
3, 86265, Note_on_c, 1, 36, 0
3, 86280, Note_on_c, 1, 37, 117
3, 86380, Note_on_c, 1, 37, 0
3, 86400, Note_on_c, 1, 38, 98
3, 86575, Note_on_c, 1, 38, 0
3, 86640, Note_on_c, 1, 38, 107
3, 86765, Note_on_c, 1, 38, 0
3, 86880, Note_on_c, 1, 35, 115
3, 86985, Note_on_c, 1, 35, 0
3, 87000, Note_on_c, 1, 33, 90
3, 87115, Note_on_c, 1, 33, 0
3, 87240, Note_on_c, 1, 38, 91
3, 87335, Note_on_c, 1, 38, 0
3, 87480, Note_on_c, 1, 38, 85
3, 87520, Note_on_c, 1, 38, 0
3, 87600, Note_on_c, 1, 38, 109
3, 87770, Note_on_c, 1, 38, 0
3, 87840, Note_on_c, 1, 35, 95
3, 87930, Note_on_c, 1, 35, 0
3, 87960, Note_on_c, 1, 33, 89
3, 88055, Note_on_c, 1, 33, 0
3, 88200, Note_on_c, 1, 33, 85
3, 88280, Note_on_c, 1, 33, 0
3, 88320, Note_on_c, 1, 38, 97
3, 88435, Note_on_c, 1, 38, 0
3, 88560, Note_on_c, 1, 38, 98
3, 88685, Note_on_c, 1, 38, 0
3, 88800, Note_on_c, 1, 35, 126
3, 88885, Note_on_c, 1, 35, 0
3, 88920, Note_on_c, 1, 33, 93
3, 89065, Note_on_c, 1, 33, 0
3, 89160, Note_on_c, 1, 33, 88
3, 89230, Note_on_c, 1, 33, 0
3, 89280, Note_on_c, 1, 38, 99
3, 89395, Note_on_c, 1, 38, 0
3, 89520, Note_on_c, 1, 38, 96
3, 89620, Note_on_c, 1, 38, 0
3, 89760, Note_on_c, 1, 35, 96
3, 89870, Note_on_c, 1, 35, 0
3, 89880, Note_on_c, 1, 33, 81
3, 90080, Note_on_c, 1, 33, 0
3, 90240, Note_on_c, 1, 43, 101
3, 90365, Note_on_c, 1, 43, 0
3, 90480, Note_on_c, 1, 43, 101
3, 90590, Note_on_c, 1, 43, 0
3, 90720, Note_on_c, 1, 40, 90
3, 90835, Note_on_c, 1, 40, 0
3, 90840, Note_on_c, 1, 38, 80
3, 90940, Note_on_c, 1, 38, 0
3, 91080, Note_on_c, 1, 38, 87
3, 91150, Note_on_c, 1, 38, 0
3, 91200, Note_on_c, 1, 43, 96
3, 91330, Note_on_c, 1, 43, 0
3, 91440, Note_on_c, 1, 43, 101
3, 91545, Note_on_c, 1, 43, 0
3, 91680, Note_on_c, 1, 40, 81
3, 91795, Note_on_c, 1, 40, 0
3, 91800, Note_on_c, 1, 38, 85
3, 91910, Note_on_c, 1, 38, 0
3, 92040, Note_on_c, 1, 38, 85
3, 92105, Note_on_c, 1, 38, 0
3, 92160, Note_on_c, 1, 43, 96
3, 92270, Note_on_c, 1, 43, 0
3, 92400, Note_on_c, 1, 43, 99
3, 92495, Note_on_c, 1, 43, 0
3, 92640, Note_on_c, 1, 40, 87
3, 92755, Note_on_c, 1, 40, 0
3, 92760, Note_on_c, 1, 38, 95
3, 92840, Note_on_c, 1, 38, 0
3, 93000, Note_on_c, 1, 38, 88
3, 93070, Note_on_c, 1, 38, 0
3, 93120, Note_on_c, 1, 43, 96
3, 93190, Note_on_c, 1, 43, 0
3, 93240, Note_on_c, 1, 43, 96
3, 93315, Note_on_c, 1, 43, 0
3, 93360, Note_on_c, 1, 31, 89
3, 93410, Note_on_c, 1, 31, 0
3, 93480, Note_on_c, 1, 31, 84
3, 93570, Note_on_c, 1, 31, 0
3, 93600, Note_on_c, 1, 35, 85
3, 93670, Note_on_c, 1, 35, 0
3, 93720, Note_on_c, 1, 35, 103
3, 93790, Note_on_c, 1, 35, 0
3, 93840, Note_on_c, 1, 36, 89
3, 93935, Note_on_c, 1, 36, 0
3, 93960, Note_on_c, 1, 37, 120
3, 94070, Note_on_c, 1, 37, 0
3, 94080, Note_on_c, 1, 38, 98
3, 94225, Note_on_c, 1, 38, 0
3, 94320, Note_on_c, 1, 38, 103
3, 94475, Note_on_c, 1, 38, 0
3, 94560, Note_on_c, 1, 35, 92
3, 94670, Note_on_c, 1, 35, 0
3, 94680, Note_on_c, 1, 33, 84
3, 94790, Note_on_c, 1, 33, 0
3, 94920, Note_on_c, 1, 33, 93
3, 95010, Note_on_c, 1, 33, 0
3, 95040, Note_on_c, 1, 38, 97
3, 95155, Note_on_c, 1, 38, 0
3, 95280, Note_on_c, 1, 38, 96
3, 95390, Note_on_c, 1, 38, 0
3, 95520, Note_on_c, 1, 35, 112
3, 95600, Note_on_c, 1, 35, 0
3, 95640, Note_on_c, 1, 33, 88
3, 95745, Note_on_c, 1, 33, 0
3, 96000, Note_on_c, 1, 38, 112
3, 96110, Note_on_c, 1, 38, 0
3, 96240, Note_on_c, 1, 38, 105
3, 96330, Note_on_c, 1, 38, 0
3, 96480, Note_on_c, 1, 35, 126
3, 96580, Note_on_c, 1, 35, 0
3, 96600, Note_on_c, 1, 33, 86
3, 96705, Note_on_c, 1, 33, 0
3, 96840, Note_on_c, 1, 33, 92
3, 96915, Note_on_c, 1, 33, 0
3, 96960, Note_on_c, 1, 38, 98
3, 97070, Note_on_c, 1, 38, 0
3, 97200, Note_on_c, 1, 38, 96
3, 97290, Note_on_c, 1, 38, 0
3, 97440, Note_on_c, 1, 35, 92
3, 97555, Note_on_c, 1, 35, 0
3, 97560, Note_on_c, 1, 33, 89
3, 97650, Note_on_c, 1, 33, 0
3, 97920, Note_on_c, 1, 43, 101
3, 98030, Note_on_c, 1, 43, 0
3, 98160, Note_on_c, 1, 43, 96
3, 98270, Note_on_c, 1, 43, 0
3, 98400, Note_on_c, 1, 40, 83
3, 98480, Note_on_c, 1, 40, 0
3, 98520, Note_on_c, 1, 38, 82
3, 98600, Note_on_c, 1, 38, 0
3, 98760, Note_on_c, 1, 38, 83
3, 98830, Note_on_c, 1, 38, 0
3, 98880, Note_on_c, 1, 43, 99
3, 98990, Note_on_c, 1, 43, 0
3, 99120, Note_on_c, 1, 43, 91
3, 99215, Note_on_c, 1, 43, 0
3, 99360, Note_on_c, 1, 40, 80
3, 99475, Note_on_c, 1, 40, 0
3, 99480, Note_on_c, 1, 38, 82
3, 99575, Note_on_c, 1, 38, 0
3, 99720, Note_on_c, 1, 38, 82
3, 99770, Note_on_c, 1, 38, 0
3, 99840, Note_on_c, 1, 43, 89
3, 99950, Note_on_c, 1, 43, 0
3, 100080, Note_on_c, 1, 43, 89
3, 100175, Note_on_c, 1, 43, 0
3, 100320, Note_on_c, 1, 40, 89
3, 100435, Note_on_c, 1, 40, 0
3, 100440, Note_on_c, 1, 38, 88
3, 100535, Note_on_c, 1, 38, 0
3, 100680, Note_on_c, 1, 43, 91
3, 100775, Note_on_c, 1, 43, 0
3, 100920, Note_on_c, 1, 43, 87
3, 100980, Note_on_c, 1, 43, 0
3, 101040, Note_on_c, 1, 31, 82
3, 101110, Note_on_c, 1, 31, 0
3, 101160, Note_on_c, 1, 31, 88
3, 101245, Note_on_c, 1, 31, 0
3, 101280, Note_on_c, 1, 33, 82
3, 101355, Note_on_c, 1, 33, 0
3, 101400, Note_on_c, 1, 33, 86
3, 101475, Note_on_c, 1, 33, 0
3, 101520, Note_on_c, 1, 34, 101
3, 101575, Note_on_c, 1, 34, 0
3, 101640, Note_on_c, 1, 34, 82
3, 101710, Note_on_c, 1, 34, 0
3, 101760, Note_on_c, 1, 35, 109
3, 101920, Note_on_c, 1, 35, 0
3, 101995, Note_on_c, 1, 35, 112
3, 102160, Note_on_c, 1, 35, 0
3, 102605, Note_on_c, 1, 29, 98
3, 102690, Note_on_c, 1, 29, 0
3, 102715, Note_on_c, 1, 30, 85
3, 102830, Note_on_c, 1, 30, 0
3, 102955, Note_on_c, 1, 30, 96
3, 103135, Note_on_c, 1, 30, 0
3, 103555, Note_on_c, 1, 33, 95
3, 103670, Note_on_c, 1, 33, 0
3, 103675, Note_on_c, 1, 35, 85
3, 103815, Note_on_c, 1, 35, 0
3, 103915, Note_on_c, 1, 35, 117
3, 104090, Note_on_c, 1, 35, 0
3, 104515, Note_on_c, 1, 29, 88
3, 104610, Note_on_c, 1, 29, 0
3, 104635, Note_on_c, 1, 30, 88
3, 104785, Note_on_c, 1, 30, 0
3, 104875, Note_on_c, 1, 30, 97
3, 105010, Note_on_c, 1, 30, 0
3, 105245, Note_on_c, 1, 35, 117
3, 105500, Note_on_c, 1, 35, 0
3, 105595, Note_on_c, 1, 40, 108
3, 105710, Note_on_c, 1, 40, 0
3, 105840, Note_on_c, 1, 40, 109
3, 105970, Note_on_c, 1, 40, 0
3, 106435, Note_on_c, 1, 34, 82
3, 106550, Note_on_c, 1, 34, 0
3, 106555, Note_on_c, 1, 35, 117
3, 106710, Note_on_c, 1, 35, 0
3, 106795, Note_on_c, 1, 35, 115
3, 106950, Note_on_c, 1, 35, 0
3, 107400, Note_on_c, 1, 38, 97
3, 107490, Note_on_c, 1, 38, 0
3, 107515, Note_on_c, 1, 40, 94
3, 107645, Note_on_c, 1, 40, 0
3, 107760, Note_on_c, 1, 40, 101
3, 107870, Note_on_c, 1, 40, 0
3, 108365, Note_on_c, 1, 34, 89
3, 108470, Note_on_c, 1, 34, 0
3, 108475, Note_on_c, 1, 35, 126
3, 108595, Note_on_c, 1, 35, 0
3, 108715, Note_on_c, 1, 35, 112
3, 108860, Note_on_c, 1, 35, 0
3, 108955, Note_on_c, 1, 42, 109
3, 109070, Note_on_c, 1, 42, 0
3, 109075, Note_on_c, 1, 40, 96
3, 109190, Note_on_c, 1, 40, 0
3, 109195, Note_on_c, 1, 38, 92
3, 109310, Note_on_c, 1, 38, 0
3, 109315, Note_on_c, 1, 35, 84
3, 109425, Note_on_c, 1, 35, 0
3, 109435, Note_on_c, 1, 38, 99
3, 109595, Note_on_c, 1, 38, 0
3, 109675, Note_on_c, 1, 38, 99
3, 109775, Note_on_c, 1, 38, 0
3, 109915, Note_on_c, 1, 35, 105
3, 110030, Note_on_c, 1, 35, 0
3, 110035, Note_on_c, 1, 33, 91
3, 110160, Note_on_c, 1, 33, 0
3, 110515, Note_on_c, 1, 33, 91
3, 110570, Note_on_c, 1, 33, 0
3, 110635, Note_on_c, 1, 38, 96
3, 110710, Note_on_c, 1, 38, 0
3, 110755, Note_on_c, 1, 38, 87
3, 110830, Note_on_c, 1, 38, 0
3, 110875, Note_on_c, 1, 35, 99
3, 110950, Note_on_c, 1, 35, 0
3, 110995, Note_on_c, 1, 33, 85
3, 111115, Note_on_c, 1, 33, 0
3, 111235, Note_on_c, 1, 33, 96
3, 111335, Note_on_c, 1, 33, 0
3, 111355, Note_on_c, 1, 38, 99
3, 111490, Note_on_c, 1, 38, 0
3, 111595, Note_on_c, 1, 38, 107
3, 111725, Note_on_c, 1, 38, 0
3, 111835, Note_on_c, 1, 35, 112
3, 111935, Note_on_c, 1, 35, 0
3, 111965, Note_on_c, 1, 33, 92
3, 112135, Note_on_c, 1, 33, 0
3, 112315, Note_on_c, 1, 38, 107
3, 112440, Note_on_c, 1, 38, 0
3, 112565, Note_on_c, 1, 38, 98
3, 112675, Note_on_c, 1, 38, 0
3, 112795, Note_on_c, 1, 35, 99
3, 112895, Note_on_c, 1, 35, 0
3, 112920, Note_on_c, 1, 33, 87
3, 113060, Note_on_c, 1, 33, 0
3, 113165, Note_on_c, 1, 38, 95
3, 113270, Note_on_c, 1, 38, 0
3, 113285, Note_on_c, 1, 43, 108
3, 113390, Note_on_c, 1, 43, 0
3, 113515, Note_on_c, 1, 43, 101
3, 113640, Note_on_c, 1, 43, 0
3, 113755, Note_on_c, 1, 40, 107
3, 113870, Note_on_c, 1, 40, 0
3, 113880, Note_on_c, 1, 38, 99
3, 114000, Note_on_c, 1, 38, 0
3, 114240, Note_on_c, 1, 43, 99
3, 114330, Note_on_c, 1, 43, 0
3, 114475, Note_on_c, 1, 43, 98
3, 114585, Note_on_c, 1, 43, 0
3, 114715, Note_on_c, 1, 40, 99
3, 114815, Note_on_c, 1, 40, 0
3, 114835, Note_on_c, 1, 38, 96
3, 114945, Note_on_c, 1, 38, 0
3, 115195, Note_on_c, 1, 43, 98
3, 115275, Note_on_c, 1, 43, 0
3, 115435, Note_on_c, 1, 43, 96
3, 115555, Note_on_c, 1, 43, 0
3, 115675, Note_on_c, 1, 40, 96
3, 115790, Note_on_c, 1, 40, 0
3, 115800, Note_on_c, 1, 38, 99
3, 115870, Note_on_c, 1, 38, 0
3, 116035, Note_on_c, 1, 43, 95
3, 116120, Note_on_c, 1, 43, 0
3, 116275, Note_on_c, 1, 43, 103
3, 116375, Note_on_c, 1, 43, 0
3, 116395, Note_on_c, 1, 35, 87
3, 116450, Note_on_c, 1, 35, 0
3, 116520, Note_on_c, 1, 35, 96
3, 116560, Note_on_c, 1, 35, 0
3, 116640, Note_on_c, 1, 36, 109
3, 116695, Note_on_c, 1, 36, 0
3, 116755, Note_on_c, 1, 36, 93
3, 116825, Note_on_c, 1, 36, 0
3, 116880, Note_on_c, 1, 37, 112
3, 116930, Note_on_c, 1, 37, 0
3, 116995, Note_on_c, 1, 37, 107
3, 117095, Note_on_c, 1, 37, 0
3, 117115, Note_on_c, 1, 38, 99
3, 117230, Note_on_c, 1, 38, 0
3, 117360, Note_on_c, 1, 38, 97
3, 117470, Note_on_c, 1, 38, 0
3, 117600, Note_on_c, 1, 35, 103
3, 117715, Note_on_c, 1, 35, 0
3, 117720, Note_on_c, 1, 33, 88
3, 117850, Note_on_c, 1, 33, 0
3, 117960, Note_on_c, 1, 33, 82
3, 118020, Note_on_c, 1, 33, 0
3, 118080, Note_on_c, 1, 38, 97
3, 118195, Note_on_c, 1, 38, 0
3, 118320, Note_on_c, 1, 38, 97
3, 118455, Note_on_c, 1, 38, 0
3, 118560, Note_on_c, 1, 35, 88
3, 118675, Note_on_c, 1, 35, 0
3, 118680, Note_on_c, 1, 33, 87
3, 118825, Note_on_c, 1, 33, 0
3, 119040, Note_on_c, 1, 38, 96
3, 119155, Note_on_c, 1, 38, 0
3, 119280, Note_on_c, 1, 38, 97
3, 119380, Note_on_c, 1, 38, 0
3, 119520, Note_on_c, 1, 35, 89
3, 119635, Note_on_c, 1, 35, 0
3, 119640, Note_on_c, 1, 33, 85
3, 119735, Note_on_c, 1, 33, 0
3, 119880, Note_on_c, 1, 38, 98
3, 119975, Note_on_c, 1, 38, 0
3, 120120, Note_on_c, 1, 38, 90
3, 120200, Note_on_c, 1, 38, 0
3, 120240, Note_on_c, 1, 28, 91
3, 120325, Note_on_c, 1, 28, 0
3, 120360, Note_on_c, 1, 28, 88
3, 120445, Note_on_c, 1, 28, 0
3, 120480, Note_on_c, 1, 29, 86
3, 120550, Note_on_c, 1, 29, 0
3, 120600, Note_on_c, 1, 29, 85
3, 120715, Note_on_c, 1, 29, 0
3, 120720, Note_on_c, 1, 30, 96
3, 120795, Note_on_c, 1, 30, 0
3, 120840, Note_on_c, 1, 30, 88
3, 120945, Note_on_c, 1, 30, 0
3, 120960, Note_on_c, 1, 31, 97
3, 121085, Note_on_c, 1, 31, 0
3, 121200, Note_on_c, 1, 43, 95
3, 121305, Note_on_c, 1, 43, 0
3, 121440, Note_on_c, 1, 40, 85
3, 121545, Note_on_c, 1, 40, 0
3, 121560, Note_on_c, 1, 38, 87
3, 121655, Note_on_c, 1, 38, 0
3, 121800, Note_on_c, 1, 43, 87
3, 121900, Note_on_c, 1, 43, 0
3, 122040, Note_on_c, 1, 43, 89
3, 122145, Note_on_c, 1, 43, 0
3, 122280, Note_on_c, 1, 43, 83
3, 122370, Note_on_c, 1, 43, 0
3, 122400, Note_on_c, 1, 40, 83
3, 122590, Note_on_c, 1, 40, 0
3, 122640, Note_on_c, 1, 38, 95
3, 122755, Note_on_c, 1, 38, 0
3, 122880, Note_on_c, 1, 43, 98
3, 123000, Note_on_c, 1, 43, 0
3, 123120, Note_on_c, 1, 43, 101
3, 123235, Note_on_c, 1, 43, 0
3, 123360, Note_on_c, 1, 40, 91
3, 123475, Note_on_c, 1, 40, 0
3, 123480, Note_on_c, 1, 38, 94
3, 123585, Note_on_c, 1, 38, 0
3, 123720, Note_on_c, 1, 43, 94
3, 123825, Note_on_c, 1, 43, 0
3, 123960, Note_on_c, 1, 43, 98
3, 124030, Note_on_c, 1, 43, 0
3, 124080, Note_on_c, 1, 35, 94
3, 124150, Note_on_c, 1, 35, 0
3, 124200, Note_on_c, 1, 35, 96
3, 124280, Note_on_c, 1, 35, 0
3, 124320, Note_on_c, 1, 36, 89
3, 124380, Note_on_c, 1, 36, 0
3, 124440, Note_on_c, 1, 36, 94
3, 124515, Note_on_c, 1, 36, 0
3, 124560, Note_on_c, 1, 37, 91
3, 124645, Note_on_c, 1, 37, 0
3, 124680, Note_on_c, 1, 37, 86
3, 124785, Note_on_c, 1, 37, 0
3, 124800, Note_on_c, 1, 38, 108
3, 124945, Note_on_c, 1, 38, 0
3, 125040, Note_on_c, 1, 38, 98
3, 125170, Note_on_c, 1, 38, 0
3, 125280, Note_on_c, 1, 35, 105
3, 125395, Note_on_c, 1, 35, 0
3, 125400, Note_on_c, 1, 33, 81
3, 125545, Note_on_c, 1, 33, 0
3, 125640, Note_on_c, 1, 38, 89
3, 125760, Note_on_c, 1, 38, 0
3, 125880, Note_on_c, 1, 38, 72
3, 125990, Note_on_c, 1, 38, 0
3, 126120, Note_on_c, 1, 38, 86
3, 126210, Note_on_c, 1, 38, 0
3, 126240, Note_on_c, 1, 35, 95
3, 126430, Note_on_c, 1, 35, 0
3, 126480, Note_on_c, 1, 33, 92
3, 126575, Note_on_c, 1, 33, 0
3, 126720, Note_on_c, 1, 38, 101
3, 126830, Note_on_c, 1, 38, 0
3, 126960, Note_on_c, 1, 38, 96
3, 127090, Note_on_c, 1, 38, 0
3, 127200, Note_on_c, 1, 35, 105
3, 127310, Note_on_c, 1, 35, 0
3, 127320, Note_on_c, 1, 33, 81
3, 127430, Note_on_c, 1, 33, 0
3, 127560, Note_on_c, 1, 33, 87
3, 127650, Note_on_c, 1, 33, 0
3, 127680, Note_on_c, 1, 38, 91
3, 127760, Note_on_c, 1, 38, 0
3, 127800, Note_on_c, 1, 38, 101
3, 127855, Note_on_c, 1, 38, 0
3, 127920, Note_on_c, 1, 28, 93
3, 127990, Note_on_c, 1, 28, 0
3, 128040, Note_on_c, 1, 28, 88
3, 128120, Note_on_c, 1, 28, 0
3, 128160, Note_on_c, 1, 29, 86
3, 128230, Note_on_c, 1, 29, 0
3, 128280, Note_on_c, 1, 29, 89
3, 128355, Note_on_c, 1, 29, 0
3, 128400, Note_on_c, 1, 30, 101
3, 128485, Note_on_c, 1, 30, 0
3, 128520, Note_on_c, 1, 30, 85
3, 128635, Note_on_c, 1, 30, 0
3, 128640, Note_on_c, 1, 31, 92
3, 128770, Note_on_c, 1, 31, 0
3, 128880, Note_on_c, 1, 43, 98
3, 129005, Note_on_c, 1, 43, 0
3, 129120, Note_on_c, 1, 40, 85
3, 129230, Note_on_c, 1, 40, 0
3, 129240, Note_on_c, 1, 38, 84
3, 129340, Note_on_c, 1, 38, 0
3, 129480, Note_on_c, 1, 43, 86
3, 129580, Note_on_c, 1, 43, 0
3, 129720, Note_on_c, 1, 43, 101
3, 129795, Note_on_c, 1, 43, 0
3, 129960, Note_on_c, 1, 43, 82
3, 130035, Note_on_c, 1, 43, 0
3, 130080, Note_on_c, 1, 40, 85
3, 130285, Note_on_c, 1, 40, 0
3, 130320, Note_on_c, 1, 38, 89
3, 130430, Note_on_c, 1, 38, 0
3, 130560, Note_on_c, 1, 43, 101
3, 130675, Note_on_c, 1, 43, 0
3, 130800, Note_on_c, 1, 43, 101
3, 130905, Note_on_c, 1, 43, 0
3, 131040, Note_on_c, 1, 40, 87
3, 131155, Note_on_c, 1, 40, 0
3, 131160, Note_on_c, 1, 38, 88
3, 131275, Note_on_c, 1, 38, 0
3, 131400, Note_on_c, 1, 43, 84
3, 131495, Note_on_c, 1, 43, 0
3, 131640, Note_on_c, 1, 43, 98
3, 131695, Note_on_c, 1, 43, 0
3, 131760, Note_on_c, 1, 31, 91
3, 131835, Note_on_c, 1, 31, 0
3, 131880, Note_on_c, 1, 31, 96
3, 131960, Note_on_c, 1, 31, 0
3, 132000, Note_on_c, 1, 33, 105
3, 132055, Note_on_c, 1, 33, 0
3, 132120, Note_on_c, 1, 33, 99
3, 132190, Note_on_c, 1, 33, 0
3, 132240, Note_on_c, 1, 34, 93
3, 132295, Note_on_c, 1, 34, 0
3, 132360, Note_on_c, 1, 34, 85
3, 132400, Note_on_c, 1, 34, 0
3, 132480, Note_on_c, 1, 35, 109
3, 132640, Note_on_c, 1, 35, 0
3, 132715, Note_on_c, 1, 35, 112
3, 132880, Note_on_c, 1, 35, 0
3, 133325, Note_on_c, 1, 29, 98
3, 133410, Note_on_c, 1, 29, 0
3, 133435, Note_on_c, 1, 30, 85
3, 133550, Note_on_c, 1, 30, 0
3, 133675, Note_on_c, 1, 30, 96
3, 133855, Note_on_c, 1, 30, 0
3, 134275, Note_on_c, 1, 33, 95
3, 134390, Note_on_c, 1, 33, 0
3, 134395, Note_on_c, 1, 35, 85
3, 134535, Note_on_c, 1, 35, 0
3, 134635, Note_on_c, 1, 35, 117
3, 134810, Note_on_c, 1, 35, 0
3, 135235, Note_on_c, 1, 29, 88
3, 135330, Note_on_c, 1, 29, 0
3, 135355, Note_on_c, 1, 30, 88
3, 135505, Note_on_c, 1, 30, 0
3, 135595, Note_on_c, 1, 30, 97
3, 135730, Note_on_c, 1, 30, 0
3, 135965, Note_on_c, 1, 35, 117
3, 136220, Note_on_c, 1, 35, 0
3, 136315, Note_on_c, 1, 40, 108
3, 136430, Note_on_c, 1, 40, 0
3, 136560, Note_on_c, 1, 40, 109
3, 136690, Note_on_c, 1, 40, 0
3, 137155, Note_on_c, 1, 34, 82
3, 137270, Note_on_c, 1, 34, 0
3, 137275, Note_on_c, 1, 35, 117
3, 137430, Note_on_c, 1, 35, 0
3, 137515, Note_on_c, 1, 35, 115
3, 137670, Note_on_c, 1, 35, 0
3, 138120, Note_on_c, 1, 38, 97
3, 138210, Note_on_c, 1, 38, 0
3, 138235, Note_on_c, 1, 40, 94
3, 138365, Note_on_c, 1, 40, 0
3, 138480, Note_on_c, 1, 40, 101
3, 138590, Note_on_c, 1, 40, 0
3, 139085, Note_on_c, 1, 34, 89
3, 139190, Note_on_c, 1, 34, 0
3, 139195, Note_on_c, 1, 35, 126
3, 139315, Note_on_c, 1, 35, 0
3, 139435, Note_on_c, 1, 35, 112
3, 139580, Note_on_c, 1, 35, 0
3, 139675, Note_on_c, 1, 42, 109
3, 139790, Note_on_c, 1, 42, 0
3, 139795, Note_on_c, 1, 40, 96
3, 139910, Note_on_c, 1, 40, 0
3, 139915, Note_on_c, 1, 38, 92
3, 140030, Note_on_c, 1, 38, 0
3, 140035, Note_on_c, 1, 35, 84
3, 140145, Note_on_c, 1, 35, 0
3, 140155, Note_on_c, 1, 38, 99
3, 140315, Note_on_c, 1, 38, 0
3, 140395, Note_on_c, 1, 38, 99
3, 140495, Note_on_c, 1, 38, 0
3, 140635, Note_on_c, 1, 35, 105
3, 140750, Note_on_c, 1, 35, 0
3, 140755, Note_on_c, 1, 33, 91
3, 140880, Note_on_c, 1, 33, 0
3, 141235, Note_on_c, 1, 33, 91
3, 141290, Note_on_c, 1, 33, 0
3, 141355, Note_on_c, 1, 38, 96
3, 141430, Note_on_c, 1, 38, 0
3, 141475, Note_on_c, 1, 38, 87
3, 141550, Note_on_c, 1, 38, 0
3, 141595, Note_on_c, 1, 35, 99
3, 141670, Note_on_c, 1, 35, 0
3, 141715, Note_on_c, 1, 33, 85
3, 141835, Note_on_c, 1, 33, 0
3, 141955, Note_on_c, 1, 33, 96
3, 142055, Note_on_c, 1, 33, 0
3, 142075, Note_on_c, 1, 38, 99
3, 142210, Note_on_c, 1, 38, 0
3, 142315, Note_on_c, 1, 38, 107
3, 142445, Note_on_c, 1, 38, 0
3, 142555, Note_on_c, 1, 35, 112
3, 142655, Note_on_c, 1, 35, 0
3, 142685, Note_on_c, 1, 33, 92
3, 142855, Note_on_c, 1, 33, 0
3, 143035, Note_on_c, 1, 38, 107
3, 143160, Note_on_c, 1, 38, 0
3, 143285, Note_on_c, 1, 38, 98
3, 143395, Note_on_c, 1, 38, 0
3, 143515, Note_on_c, 1, 35, 99
3, 143615, Note_on_c, 1, 35, 0
3, 143640, Note_on_c, 1, 33, 87
3, 143780, Note_on_c, 1, 33, 0
3, 143885, Note_on_c, 1, 38, 95
3, 143990, Note_on_c, 1, 38, 0
3, 144005, Note_on_c, 1, 43, 108
3, 144110, Note_on_c, 1, 43, 0
3, 144235, Note_on_c, 1, 43, 101
3, 144360, Note_on_c, 1, 43, 0
3, 144475, Note_on_c, 1, 40, 107
3, 144590, Note_on_c, 1, 40, 0
3, 144600, Note_on_c, 1, 38, 99
3, 144720, Note_on_c, 1, 38, 0
3, 144960, Note_on_c, 1, 43, 99
3, 145050, Note_on_c, 1, 43, 0
3, 145195, Note_on_c, 1, 43, 98
3, 145305, Note_on_c, 1, 43, 0
3, 145435, Note_on_c, 1, 40, 99
3, 145535, Note_on_c, 1, 40, 0
3, 145555, Note_on_c, 1, 38, 96
3, 145665, Note_on_c, 1, 38, 0
3, 145915, Note_on_c, 1, 43, 98
3, 145995, Note_on_c, 1, 43, 0
3, 146155, Note_on_c, 1, 43, 96
3, 146275, Note_on_c, 1, 43, 0
3, 146395, Note_on_c, 1, 40, 96
3, 146510, Note_on_c, 1, 40, 0
3, 146520, Note_on_c, 1, 38, 99
3, 146590, Note_on_c, 1, 38, 0
3, 146755, Note_on_c, 1, 43, 95
3, 146840, Note_on_c, 1, 43, 0
3, 146995, Note_on_c, 1, 43, 103
3, 147095, Note_on_c, 1, 43, 0
3, 147115, Note_on_c, 1, 31, 87
3, 147170, Note_on_c, 1, 31, 0
3, 147235, Note_on_c, 1, 31, 96
3, 147325, Note_on_c, 1, 31, 0
3, 147355, Note_on_c, 1, 33, 109
3, 147410, Note_on_c, 1, 33, 0
3, 147475, Note_on_c, 1, 33, 93
3, 147545, Note_on_c, 1, 33, 0
3, 147595, Note_on_c, 1, 34, 112
3, 147650, Note_on_c, 1, 34, 0
3, 147715, Note_on_c, 1, 34, 107
3, 147815, Note_on_c, 1, 34, 0
3, 147835, Note_on_c, 1, 35, 127
3, 147970, Note_on_c, 1, 35, 0
3, 148075, Note_on_c, 1, 35, 117
3, 148235, Note_on_c, 1, 35, 0
3, 148680, Note_on_c, 1, 29, 93
3, 148770, Note_on_c, 1, 29, 0
3, 148795, Note_on_c, 1, 30, 107
3, 148930, Note_on_c, 1, 30, 0
3, 149035, Note_on_c, 1, 30, 101
3, 149215, Note_on_c, 1, 30, 0
3, 149635, Note_on_c, 1, 33, 89
3, 149705, Note_on_c, 1, 33, 0
3, 149755, Note_on_c, 1, 35, 94
3, 149885, Note_on_c, 1, 35, 0
3, 149995, Note_on_c, 1, 35, 117
3, 150160, Note_on_c, 1, 35, 0
3, 150595, Note_on_c, 1, 29, 85
3, 150685, Note_on_c, 1, 29, 0
3, 150715, Note_on_c, 1, 30, 93
3, 150830, Note_on_c, 1, 30, 0
3, 150955, Note_on_c, 1, 30, 112
3, 151040, Note_on_c, 1, 30, 0
3, 151320, Note_on_c, 1, 35, 117
3, 151550, Note_on_c, 1, 35, 0
3, 151675, Note_on_c, 1, 40, 96
3, 151795, Note_on_c, 1, 40, 0
3, 151920, Note_on_c, 1, 40, 120
3, 152030, Note_on_c, 1, 40, 0
3, 152525, Note_on_c, 1, 34, 96
3, 152625, Note_on_c, 1, 34, 0
3, 152635, Note_on_c, 1, 35, 105
3, 152730, Note_on_c, 1, 35, 0
3, 152875, Note_on_c, 1, 35, 126
3, 153030, Note_on_c, 1, 35, 0
3, 153485, Note_on_c, 1, 38, 94
3, 153565, Note_on_c, 1, 38, 0
3, 153595, Note_on_c, 1, 40, 89
3, 153715, Note_on_c, 1, 40, 0
3, 153835, Note_on_c, 1, 40, 101
3, 153995, Note_on_c, 1, 40, 0
3, 154445, Note_on_c, 1, 34, 87
3, 154530, Note_on_c, 1, 34, 0
3, 154555, Note_on_c, 1, 35, 96
3, 154665, Note_on_c, 1, 35, 0
3, 154795, Note_on_c, 1, 35, 109
3, 154920, Note_on_c, 1, 35, 0
3, 155035, Note_on_c, 1, 42, 107
3, 155150, Note_on_c, 1, 42, 0
3, 155155, Note_on_c, 1, 40, 89
3, 155270, Note_on_c, 1, 40, 0
3, 155275, Note_on_c, 1, 38, 91
3, 155385, Note_on_c, 1, 38, 0
3, 155395, Note_on_c, 1, 35, 83
3, 155505, Note_on_c, 1, 35, 0
3, 155515, Note_on_c, 1, 38, 94
3, 155685, Note_on_c, 1, 38, 0
3, 155765, Note_on_c, 1, 38, 99
3, 155855, Note_on_c, 1, 38, 0
3, 155995, Note_on_c, 1, 35, 109
3, 156115, Note_on_c, 1, 35, 0
3, 156120, Note_on_c, 1, 33, 93
3, 156235, Note_on_c, 1, 33, 0
3, 156600, Note_on_c, 1, 33, 89
3, 156660, Note_on_c, 1, 33, 0
3, 156715, Note_on_c, 1, 38, 96
3, 156775, Note_on_c, 1, 38, 0
3, 156835, Note_on_c, 1, 38, 96
3, 156915, Note_on_c, 1, 38, 0
3, 156955, Note_on_c, 1, 35, 99
3, 157035, Note_on_c, 1, 35, 0
3, 157075, Note_on_c, 1, 33, 95
3, 157245, Note_on_c, 1, 33, 0
3, 157315, Note_on_c, 1, 33, 94
3, 157390, Note_on_c, 1, 33, 0
3, 157435, Note_on_c, 1, 38, 101
3, 157550, Note_on_c, 1, 38, 0
3, 157675, Note_on_c, 1, 38, 101
3, 157775, Note_on_c, 1, 38, 0
3, 157920, Note_on_c, 1, 35, 108
3, 158020, Note_on_c, 1, 35, 0
3, 158035, Note_on_c, 1, 33, 101
3, 158170, Note_on_c, 1, 33, 0
3, 158400, Note_on_c, 1, 38, 103
3, 158510, Note_on_c, 1, 38, 0
3, 158640, Note_on_c, 1, 38, 97
3, 158740, Note_on_c, 1, 38, 0
3, 158875, Note_on_c, 1, 35, 115
3, 158990, Note_on_c, 1, 35, 0
3, 158995, Note_on_c, 1, 33, 96
3, 159130, Note_on_c, 1, 33, 0
3, 159245, Note_on_c, 1, 38, 101
3, 159350, Note_on_c, 1, 38, 0
3, 159355, Note_on_c, 1, 43, 90
3, 159505, Note_on_c, 1, 43, 0
3, 159605, Note_on_c, 1, 43, 95
3, 159765, Note_on_c, 1, 43, 0
3, 159840, Note_on_c, 1, 40, 96
3, 159950, Note_on_c, 1, 40, 0
3, 159960, Note_on_c, 1, 38, 89
3, 160120, Note_on_c, 1, 38, 0
3, 160325, Note_on_c, 1, 43, 94
3, 160425, Note_on_c, 1, 43, 0
3, 160560, Note_on_c, 1, 43, 95
3, 160665, Note_on_c, 1, 43, 0
3, 160795, Note_on_c, 1, 40, 98
3, 160910, Note_on_c, 1, 40, 0
3, 160915, Note_on_c, 1, 38, 94
3, 161055, Note_on_c, 1, 38, 0
3, 161280, Note_on_c, 1, 43, 96
3, 161365, Note_on_c, 1, 43, 0
3, 161520, Note_on_c, 1, 43, 93
3, 161630, Note_on_c, 1, 43, 0
3, 161760, Note_on_c, 1, 40, 85
3, 161875, Note_on_c, 1, 40, 0
3, 161880, Note_on_c, 1, 38, 87
3, 161950, Note_on_c, 1, 38, 0
3, 162120, Note_on_c, 1, 43, 99
3, 162210, Note_on_c, 1, 43, 0
3, 162360, Note_on_c, 1, 43, 99
3, 162445, Note_on_c, 1, 43, 0
3, 162480, Note_on_c, 1, 35, 93
3, 162555, Note_on_c, 1, 35, 0
3, 162600, Note_on_c, 1, 35, 96
3, 162670, Note_on_c, 1, 35, 0
3, 162720, Note_on_c, 1, 36, 97
3, 162790, Note_on_c, 1, 36, 0
3, 162840, Note_on_c, 1, 36, 95
3, 162910, Note_on_c, 1, 36, 0
3, 162960, Note_on_c, 1, 37, 122
3, 163010, Note_on_c, 1, 37, 0
3, 163080, Note_on_c, 1, 37, 85
3, 163185, Note_on_c, 1, 37, 0
3, 163200, Note_on_c, 1, 38, 107
3, 163315, Note_on_c, 1, 38, 0
3, 163440, Note_on_c, 1, 38, 117
3, 163540, Note_on_c, 1, 38, 0
3, 163680, Note_on_c, 1, 35, 108
3, 163795, Note_on_c, 1, 35, 0
3, 163800, Note_on_c, 1, 33, 72
3, 163890, Note_on_c, 1, 33, 0
3, 164040, Note_on_c, 1, 38, 107
3, 164120, Note_on_c, 1, 38, 0
3, 164280, Note_on_c, 1, 38, 96
3, 164350, Note_on_c, 1, 38, 0
3, 164520, Note_on_c, 1, 38, 86
3, 164610, Note_on_c, 1, 38, 0
3, 164640, Note_on_c, 1, 35, 98
3, 164845, Note_on_c, 1, 35, 0
3, 164880, Note_on_c, 1, 33, 84
3, 164965, Note_on_c, 1, 33, 0
3, 165120, Note_on_c, 1, 38, 112
3, 165195, Note_on_c, 1, 38, 0
3, 165360, Note_on_c, 1, 38, 120
3, 165455, Note_on_c, 1, 38, 0
3, 165600, Note_on_c, 1, 35, 107
3, 165715, Note_on_c, 1, 35, 0
3, 165720, Note_on_c, 1, 33, 82
3, 165815, Note_on_c, 1, 33, 0
3, 165960, Note_on_c, 1, 38, 120
3, 166030, Note_on_c, 1, 38, 0
3, 166200, Note_on_c, 1, 38, 120
3, 166255, Note_on_c, 1, 38, 0
3, 166440, Note_on_c, 1, 38, 109
3, 166535, Note_on_c, 1, 38, 0
3, 166560, Note_on_c, 1, 35, 105
3, 166765, Note_on_c, 1, 35, 0
3, 166800, Note_on_c, 1, 33, 89
3, 166935, Note_on_c, 1, 33, 0
3, 167040, Note_on_c, 1, 43, 98
3, 167155, Note_on_c, 1, 43, 0
3, 167280, Note_on_c, 1, 43, 101
3, 167385, Note_on_c, 1, 43, 0
3, 167520, Note_on_c, 1, 40, 98
3, 167635, Note_on_c, 1, 40, 0
3, 167640, Note_on_c, 1, 38, 81
3, 167730, Note_on_c, 1, 38, 0
3, 167880, Note_on_c, 1, 43, 107
3, 167950, Note_on_c, 1, 43, 0
3, 168120, Note_on_c, 1, 43, 101
3, 168200, Note_on_c, 1, 43, 0
3, 168360, Note_on_c, 1, 43, 107
3, 168430, Note_on_c, 1, 43, 0
3, 168480, Note_on_c, 1, 40, 86
3, 168685, Note_on_c, 1, 40, 0
3, 168720, Note_on_c, 1, 38, 83
3, 168810, Note_on_c, 1, 38, 0
3, 168960, Note_on_c, 1, 43, 117
3, 169055, Note_on_c, 1, 43, 0
3, 169200, Note_on_c, 1, 43, 109
3, 169310, Note_on_c, 1, 43, 0
3, 169440, Note_on_c, 1, 40, 96
3, 169555, Note_on_c, 1, 40, 0
3, 169560, Note_on_c, 1, 38, 85
3, 169630, Note_on_c, 1, 38, 0
3, 169800, Note_on_c, 1, 43, 115
3, 169890, Note_on_c, 1, 43, 0
3, 170040, Note_on_c, 1, 31, 107
3, 170200, Note_on_c, 1, 31, 0
3, 170280, Note_on_c, 1, 31, 103
3, 170355, Note_on_c, 1, 31, 0
3, 170400, Note_on_c, 1, 35, 97
3, 170515, Note_on_c, 1, 35, 0
3, 170520, Note_on_c, 1, 35, 77
3, 170550, Note_on_c, 1, 35, 0
3, 170640, Note_on_c, 1, 36, 127
3, 170735, Note_on_c, 1, 36, 0
3, 170760, Note_on_c, 1, 37, 127
3, 170860, Note_on_c, 1, 37, 0
3, 170880, Note_on_c, 1, 38, 97
3, 170995, Note_on_c, 1, 38, 0
3, 171120, Note_on_c, 1, 38, 120
3, 171230, Note_on_c, 1, 38, 0
3, 171360, Note_on_c, 1, 35, 117
3, 171450, Note_on_c, 1, 35, 0
3, 171480, Note_on_c, 1, 33, 88
3, 171580, Note_on_c, 1, 33, 0
3, 171720, Note_on_c, 1, 38, 96
3, 171790, Note_on_c, 1, 38, 0
3, 171960, Note_on_c, 1, 38, 115
3, 172030, Note_on_c, 1, 38, 0
3, 172200, Note_on_c, 1, 38, 93
3, 172250, Note_on_c, 1, 38, 0
3, 172320, Note_on_c, 1, 35, 101
3, 172535, Note_on_c, 1, 35, 0
3, 172560, Note_on_c, 1, 33, 92
3, 172675, Note_on_c, 1, 33, 0
3, 172800, Note_on_c, 1, 38, 115
3, 172860, Note_on_c, 1, 38, 0
3, 173040, Note_on_c, 1, 38, 115
3, 173090, Note_on_c, 1, 38, 0
3, 173280, Note_on_c, 1, 35, 117
3, 173395, Note_on_c, 1, 35, 0
3, 173400, Note_on_c, 1, 33, 105
3, 173485, Note_on_c, 1, 33, 0
3, 173640, Note_on_c, 1, 38, 117
3, 173695, Note_on_c, 1, 38, 0
3, 173880, Note_on_c, 1, 38, 99
3, 173935, Note_on_c, 1, 38, 0
3, 174120, Note_on_c, 1, 38, 98
3, 174155, Note_on_c, 1, 38, 0
3, 174240, Note_on_c, 1, 35, 108
3, 174385, Note_on_c, 1, 35, 0
3, 174480, Note_on_c, 1, 33, 87
3, 174625, Note_on_c, 1, 33, 0
3, 174720, Note_on_c, 1, 43, 112
3, 174795, Note_on_c, 1, 43, 0
3, 174960, Note_on_c, 1, 43, 122
3, 175045, Note_on_c, 1, 43, 0
3, 175200, Note_on_c, 1, 40, 101
3, 175285, Note_on_c, 1, 40, 0
3, 175320, Note_on_c, 1, 38, 82
3, 175400, Note_on_c, 1, 38, 0
3, 175560, Note_on_c, 1, 43, 120
3, 175610, Note_on_c, 1, 43, 0
3, 175800, Note_on_c, 1, 43, 109
3, 175855, Note_on_c, 1, 43, 0
3, 176040, Note_on_c, 1, 43, 112
3, 176110, Note_on_c, 1, 43, 0
3, 176160, Note_on_c, 1, 40, 84
3, 176365, Note_on_c, 1, 40, 0
3, 176400, Note_on_c, 1, 38, 86
3, 176490, Note_on_c, 1, 38, 0
3, 176640, Note_on_c, 1, 43, 108
3, 176770, Note_on_c, 1, 43, 0
3, 176880, Note_on_c, 1, 43, 107
3, 176995, Note_on_c, 1, 43, 0
3, 177120, Note_on_c, 1, 40, 98
3, 177235, Note_on_c, 1, 40, 0
3, 177240, Note_on_c, 1, 38, 89
3, 177310, Note_on_c, 1, 38, 0
3, 177480, Note_on_c, 1, 43, 112
3, 177570, Note_on_c, 1, 43, 0
3, 177720, Note_on_c, 1, 43, 126
3, 177805, Note_on_c, 1, 43, 0
3, 177960, Note_on_c, 1, 35, 115
3, 178005, Note_on_c, 1, 35, 0
3, 178080, Note_on_c, 1, 36, 107
3, 178255, Note_on_c, 1, 36, 0
3, 178320, Note_on_c, 1, 37, 117
3, 178390, Note_on_c, 1, 37, 0
3, 178440, Note_on_c, 1, 37, 103
3, 178515, Note_on_c, 1, 37, 0
3, 178560, Note_on_c, 1, 38, 96
3, 178670, Note_on_c, 1, 38, 0
3, 178800, Note_on_c, 1, 38, 117
3, 178890, Note_on_c, 1, 38, 0
3, 179040, Note_on_c, 1, 35, 117
3, 179120, Note_on_c, 1, 35, 0
3, 179160, Note_on_c, 1, 33, 89
3, 179250, Note_on_c, 1, 33, 0
3, 179400, Note_on_c, 1, 38, 105
3, 179470, Note_on_c, 1, 38, 0
3, 179640, Note_on_c, 1, 38, 96
3, 179700, Note_on_c, 1, 38, 0
3, 179880, Note_on_c, 1, 38, 101
3, 179930, Note_on_c, 1, 38, 0
3, 180000, Note_on_c, 1, 35, 127
3, 180205, Note_on_c, 1, 35, 0
3, 180240, Note_on_c, 1, 33, 99
3, 180350, Note_on_c, 1, 33, 0
3, 180480, Note_on_c, 1, 38, 115
3, 180530, Note_on_c, 1, 38, 0
3, 180720, Note_on_c, 1, 38, 115
3, 180780, Note_on_c, 1, 38, 0
3, 180960, Note_on_c, 1, 35, 122
3, 181040, Note_on_c, 1, 35, 0
3, 181080, Note_on_c, 1, 33, 83
3, 181160, Note_on_c, 1, 33, 0
3, 181320, Note_on_c, 1, 38, 112
3, 181380, Note_on_c, 1, 38, 0
3, 181560, Note_on_c, 1, 38, 105
3, 181615, Note_on_c, 1, 38, 0
3, 181800, Note_on_c, 1, 38, 103
3, 181835, Note_on_c, 1, 38, 0
3, 181920, Note_on_c, 1, 35, 96
3, 182110, Note_on_c, 1, 35, 0
3, 182160, Note_on_c, 1, 33, 105
3, 182305, Note_on_c, 1, 33, 0
3, 182400, Note_on_c, 1, 43, 95
3, 182470, Note_on_c, 1, 43, 0
3, 182640, Note_on_c, 1, 43, 112
3, 182735, Note_on_c, 1, 43, 0
3, 182880, Note_on_c, 1, 40, 108
3, 182990, Note_on_c, 1, 40, 0
3, 183000, Note_on_c, 1, 38, 82
3, 183065, Note_on_c, 1, 38, 0
3, 183240, Note_on_c, 1, 43, 120
3, 183330, Note_on_c, 1, 43, 0
3, 183480, Note_on_c, 1, 43, 108
3, 183550, Note_on_c, 1, 43, 0
3, 183720, Note_on_c, 1, 43, 101
3, 183790, Note_on_c, 1, 43, 0
3, 183840, Note_on_c, 1, 40, 87
3, 183910, Note_on_c, 1, 40, 0
3, 183960, Note_on_c, 1, 40, 84
3, 184030, Note_on_c, 1, 40, 0
3, 184080, Note_on_c, 1, 38, 83
3, 184235, Note_on_c, 1, 38, 0
3, 184320, Note_on_c, 1, 43, 112
3, 184405, Note_on_c, 1, 43, 0
3, 184560, Note_on_c, 1, 43, 107
3, 184640, Note_on_c, 1, 43, 0
3, 184800, Note_on_c, 1, 40, 96
3, 184900, Note_on_c, 1, 40, 0
3, 184920, Note_on_c, 1, 38, 81
3, 184995, Note_on_c, 1, 38, 0
3, 185160, Note_on_c, 1, 43, 109
3, 185240, Note_on_c, 1, 43, 0
3, 185400, Note_on_c, 1, 43, 112
3, 185470, Note_on_c, 1, 43, 0
3, 185640, Note_on_c, 1, 43, 99
3, 185700, Note_on_c, 1, 43, 0
3, 185760, Note_on_c, 1, 31, 93
3, 185960, Note_on_c, 1, 31, 0
3, 186000, Note_on_c, 1, 35, 108
3, 186160, Note_on_c, 1, 35, 0
3, 186240, Note_on_c, 1, 38, 115
3, 186320, Note_on_c, 1, 38, 0
3, 186480, Note_on_c, 1, 38, 120
3, 186585, Note_on_c, 1, 38, 0
3, 186720, Note_on_c, 1, 35, 108
3, 186820, Note_on_c, 1, 35, 0
3, 186840, Note_on_c, 1, 33, 80
3, 186935, Note_on_c, 1, 33, 0
3, 187080, Note_on_c, 1, 38, 115
3, 187155, Note_on_c, 1, 38, 0
3, 187320, Note_on_c, 1, 38, 105
3, 187410, Note_on_c, 1, 38, 0
3, 187560, Note_on_c, 1, 38, 122
3, 187635, Note_on_c, 1, 38, 0
3, 187680, Note_on_c, 1, 35, 91
3, 187865, Note_on_c, 1, 35, 0
3, 187920, Note_on_c, 1, 33, 89
3, 188010, Note_on_c, 1, 33, 0
3, 188160, Note_on_c, 1, 38, 120
3, 188235, Note_on_c, 1, 38, 0
3, 188400, Note_on_c, 1, 38, 112
3, 188495, Note_on_c, 1, 38, 0
3, 188640, Note_on_c, 1, 35, 101
3, 188750, Note_on_c, 1, 35, 0
3, 188760, Note_on_c, 1, 33, 84
3, 188840, Note_on_c, 1, 33, 0
3, 189000, Note_on_c, 1, 38, 115
3, 189090, Note_on_c, 1, 38, 0
3, 189240, Note_on_c, 1, 38, 98
3, 189300, Note_on_c, 1, 38, 0
3, 189360, Note_on_c, 1, 38, 122
3, 189420, Note_on_c, 1, 38, 0
3, 189480, Note_on_c, 1, 38, 103
3, 189560, Note_on_c, 1, 38, 0
3, 189600, Note_on_c, 1, 35, 109
3, 189805, Note_on_c, 1, 35, 0
3, 189840, Note_on_c, 1, 33, 96
3, 189940, Note_on_c, 1, 33, 0
3, 190080, Note_on_c, 1, 43, 122
3, 190195, Note_on_c, 1, 43, 0
3, 190320, Note_on_c, 1, 43, 89
3, 190415, Note_on_c, 1, 43, 0
3, 190560, Note_on_c, 1, 40, 95
3, 190665, Note_on_c, 1, 40, 0
3, 190680, Note_on_c, 1, 38, 87
3, 190750, Note_on_c, 1, 38, 0
3, 190920, Note_on_c, 1, 43, 115
3, 191000, Note_on_c, 1, 43, 0
3, 191160, Note_on_c, 1, 43, 99
3, 191240, Note_on_c, 1, 43, 0
3, 191400, Note_on_c, 1, 43, 85
3, 191485, Note_on_c, 1, 43, 0
3, 191520, Note_on_c, 1, 40, 89
3, 191710, Note_on_c, 1, 40, 0
3, 191760, Note_on_c, 1, 38, 91
3, 191850, Note_on_c, 1, 38, 0
3, 192000, Note_on_c, 1, 43, 112
3, 192080, Note_on_c, 1, 43, 0
3, 192240, Note_on_c, 1, 43, 107
3, 192340, Note_on_c, 1, 43, 0
3, 192480, Note_on_c, 1, 40, 98
3, 192595, Note_on_c, 1, 40, 0
3, 192600, Note_on_c, 1, 38, 82
3, 192685, Note_on_c, 1, 38, 0
3, 192840, Note_on_c, 1, 43, 112
3, 192930, Note_on_c, 1, 43, 0
3, 193080, Note_on_c, 1, 43, 101
3, 193145, Note_on_c, 1, 43, 0
3, 193200, Note_on_c, 1, 35, 96
3, 193265, Note_on_c, 1, 35, 0
3, 193320, Note_on_c, 1, 35, 96
3, 193400, Note_on_c, 1, 35, 0
3, 193440, Note_on_c, 1, 36, 97
3, 193510, Note_on_c, 1, 36, 0
3, 193560, Note_on_c, 1, 36, 105
3, 193635, Note_on_c, 1, 36, 0
3, 193680, Note_on_c, 1, 37, 127
3, 193740, Note_on_c, 1, 37, 0
3, 193800, Note_on_c, 1, 37, 90
3, 193890, Note_on_c, 1, 37, 0
3, 193920, Note_on_c, 1, 38, 126
3, 194055, Note_on_c, 1, 38, 0
3, 194160, Note_on_c, 1, 38, 108
3, 194290, Note_on_c, 1, 38, 0
3, 194400, Note_on_c, 1, 35, 103
3, 194495, Note_on_c, 1, 35, 0
3, 194520, Note_on_c, 1, 33, 95
3, 194645, Note_on_c, 1, 33, 0
3, 194760, Note_on_c, 1, 38, 108
3, 194865, Note_on_c, 1, 38, 0
3, 195000, Note_on_c, 1, 38, 107
3, 195070, Note_on_c, 1, 38, 0
3, 195240, Note_on_c, 1, 38, 103
3, 195315, Note_on_c, 1, 38, 0
3, 195360, Note_on_c, 1, 35, 86
3, 195570, Note_on_c, 1, 35, 0
3, 195600, Note_on_c, 1, 33, 94
3, 195710, Note_on_c, 1, 33, 0
3, 195840, Note_on_c, 1, 38, 103
3, 195940, Note_on_c, 1, 38, 0
3, 196080, Note_on_c, 1, 38, 112
3, 196165, Note_on_c, 1, 38, 0
3, 196320, Note_on_c, 1, 35, 109
3, 196435, Note_on_c, 1, 35, 0
3, 196440, Note_on_c, 1, 33, 91
3, 196535, Note_on_c, 1, 33, 0
3, 196680, Note_on_c, 1, 38, 103
3, 196760, Note_on_c, 1, 38, 0
3, 196920, Note_on_c, 1, 38, 120
3, 197010, Note_on_c, 1, 38, 0
3, 197160, Note_on_c, 1, 38, 115
3, 197235, Note_on_c, 1, 38, 0
3, 197280, Note_on_c, 1, 35, 98
3, 197465, Note_on_c, 1, 35, 0
3, 197520, Note_on_c, 1, 33, 108
3, 197715, Note_on_c, 1, 33, 0
3, 197760, Note_on_c, 1, 43, 120
3, 197860, Note_on_c, 1, 43, 0
3, 198000, Note_on_c, 1, 43, 98
3, 198095, Note_on_c, 1, 43, 0
3, 198240, Note_on_c, 1, 40, 105
3, 198355, Note_on_c, 1, 40, 0
3, 198360, Note_on_c, 1, 38, 81
3, 198440, Note_on_c, 1, 38, 0
3, 198600, Note_on_c, 1, 43, 112
3, 198670, Note_on_c, 1, 43, 0
3, 198840, Note_on_c, 1, 43, 99
3, 198930, Note_on_c, 1, 43, 0
3, 199080, Note_on_c, 1, 43, 107
3, 199165, Note_on_c, 1, 43, 0
3, 199200, Note_on_c, 1, 40, 85
3, 199375, Note_on_c, 1, 40, 0
3, 199440, Note_on_c, 1, 38, 80
3, 199515, Note_on_c, 1, 38, 0
3, 199680, Note_on_c, 1, 43, 122
3, 199750, Note_on_c, 1, 43, 0
3, 199920, Note_on_c, 1, 43, 103
3, 200015, Note_on_c, 1, 43, 0
3, 200160, Note_on_c, 1, 40, 96
3, 200270, Note_on_c, 1, 40, 0
3, 200280, Note_on_c, 1, 38, 81
3, 200355, Note_on_c, 1, 38, 0
3, 200520, Note_on_c, 1, 43, 115
3, 200610, Note_on_c, 1, 43, 0
3, 200760, Note_on_c, 1, 43, 94
3, 200825, Note_on_c, 1, 43, 0
3, 200880, Note_on_c, 1, 35, 97
3, 200945, Note_on_c, 1, 35, 0
3, 201000, Note_on_c, 1, 35, 94
3, 201080, Note_on_c, 1, 35, 0
3, 201120, Note_on_c, 1, 36, 95
3, 201180, Note_on_c, 1, 36, 0
3, 201240, Note_on_c, 1, 36, 96
3, 201330, Note_on_c, 1, 36, 0
3, 201360, Note_on_c, 1, 37, 122
3, 201420, Note_on_c, 1, 37, 0
3, 201480, Note_on_c, 1, 37, 87
3, 201570, Note_on_c, 1, 37, 0
3, 201600, Note_on_c, 1, 38, 120
3, 201735, Note_on_c, 1, 38, 0
3, 201840, Note_on_c, 1, 38, 115
3, 201955, Note_on_c, 1, 38, 0
3, 202080, Note_on_c, 1, 35, 105
3, 202175, Note_on_c, 1, 35, 0
3, 202200, Note_on_c, 1, 33, 95
3, 202275, Note_on_c, 1, 33, 0
3, 202440, Note_on_c, 1, 38, 108
3, 202540, Note_on_c, 1, 38, 0
3, 202680, Note_on_c, 1, 38, 115
3, 202785, Note_on_c, 1, 38, 0
3, 202920, Note_on_c, 1, 38, 109
3, 203005, Note_on_c, 1, 38, 0
3, 203040, Note_on_c, 1, 35, 96
3, 203230, Note_on_c, 1, 35, 0
3, 203280, Note_on_c, 1, 33, 112
3, 203395, Note_on_c, 1, 33, 0
3, 203520, Note_on_c, 1, 38, 98
3, 203610, Note_on_c, 1, 38, 0
3, 203760, Note_on_c, 1, 38, 117
3, 203850, Note_on_c, 1, 38, 0
3, 204000, Note_on_c, 1, 35, 108
3, 204115, Note_on_c, 1, 35, 0
3, 204120, Note_on_c, 1, 33, 86
3, 204215, Note_on_c, 1, 33, 0
3, 204360, Note_on_c, 1, 38, 108
3, 204455, Note_on_c, 1, 38, 0
3, 204600, Note_on_c, 1, 38, 105
3, 204675, Note_on_c, 1, 38, 0
3, 204720, Note_on_c, 1, 28, 94
3, 204790, Note_on_c, 1, 28, 0
3, 204840, Note_on_c, 1, 28, 97
3, 204930, Note_on_c, 1, 28, 0
3, 204960, Note_on_c, 1, 29, 103
3, 205030, Note_on_c, 1, 29, 0
3, 205080, Note_on_c, 1, 29, 98
3, 205170, Note_on_c, 1, 29, 0
3, 205200, Note_on_c, 1, 30, 127
3, 205265, Note_on_c, 1, 30, 0
3, 205320, Note_on_c, 1, 30, 93
3, 205405, Note_on_c, 1, 30, 0
3, 205440, Note_on_c, 1, 31, 122
3, 206400, Note_on_c, 1, 31, 0
3, 206400, End_track
4, 0, Start_track
4, 0, MIDI_port, 0
4, 0, Title_t, "tk3"
4, 492, Program_c, 2, 4
4, 493, Control_c, 2, 7, 100
4, 493, Control_c, 2, 10, 64
4, 545, Control_c, 2, 10, 12
4, 545, Control_c, 2, 11, 127
4, 550, Control_c, 2, 91, 105
4, 550, Control_c, 2, 93, 60
4, 5750, Note_on_c, 2, 91, 77
4, 5750, Note_on_c, 2, 86, 72
4, 5755, Control_c, 2, 1, 0
4, 5755, Pitch_bend_c, 2, 16383
4, 5910, Note_on_c, 2, 86, 0
4, 5950, Note_on_c, 2, 91, 0
4, 5995, Note_on_c, 2, 86, 73
4, 5995, Note_on_c, 2, 91, 86
4, 6135, Note_on_c, 2, 86, 0
4, 6230, Note_on_c, 2, 91, 0
4, 6235, Note_on_c, 2, 88, 72
4, 6235, Note_on_c, 2, 83, 75
4, 6340, Note_on_c, 2, 83, 0
4, 6410, Note_on_c, 2, 88, 0
4, 6475, Note_on_c, 2, 83, 81
4, 6480, Note_on_c, 2, 88, 87
4, 6680, Note_on_c, 2, 88, 0
4, 6680, Note_on_c, 2, 83, 0
4, 6720, Note_on_c, 2, 81, 71
4, 6725, Note_on_c, 2, 86, 80
4, 6870, Note_on_c, 2, 81, 0
4, 6875, Note_on_c, 2, 86, 0
4, 6955, Note_on_c, 2, 81, 76
4, 6955, Note_on_c, 2, 86, 82
4, 7070, Note_on_c, 2, 81, 0
4, 7145, Note_on_c, 2, 86, 0
4, 7195, Note_on_c, 2, 81, 79
4, 7195, Note_on_c, 2, 76, 74
4, 7265, Note_on_c, 2, 76, 0
4, 7365, Note_on_c, 2, 81, 0
4, 7435, Note_on_c, 2, 76, 63
4, 7435, Note_on_c, 2, 81, 72
4, 7520, Note_on_c, 2, 76, 0
4, 7600, Note_on_c, 2, 81, 0
4, 7675, Note_on_c, 2, 74, 72
4, 7675, Note_on_c, 2, 79, 77
4, 7770, Note_on_c, 2, 74, 0
4, 7840, Note_on_c, 2, 79, 0
4, 7910, Note_on_c, 2, 79, 79
4, 7910, Note_on_c, 2, 74, 73
4, 8050, Note_on_c, 2, 74, 0
4, 8100, Note_on_c, 2, 79, 0
4, 8150, Note_on_c, 2, 76, 75
4, 8155, Note_on_c, 2, 71, 77
4, 8230, Note_on_c, 2, 71, 0
4, 8310, Note_on_c, 2, 76, 0
4, 8395, Note_on_c, 2, 76, 77
4, 8395, Note_on_c, 2, 71, 74
4, 8510, Note_on_c, 2, 71, 0
4, 8530, Note_on_c, 2, 76, 0
4, 8630, Note_on_c, 2, 69, 76
4, 8635, Note_on_c, 2, 74, 78
4, 8745, Note_on_c, 2, 69, 0
4, 8805, Note_on_c, 2, 74, 0
4, 8870, Note_on_c, 2, 69, 69
4, 8875, Note_on_c, 2, 74, 77
4, 8990, Note_on_c, 2, 74, 0
4, 8990, Note_on_c, 2, 69, 0
4, 9115, Note_on_c, 2, 76, 83
4, 9115, Note_on_c, 2, 71, 75
4, 9215, Note_on_c, 2, 71, 0
4, 9250, Note_on_c, 2, 74, 72
4, 9250, Note_on_c, 2, 69, 58
4, 9255, Note_on_c, 2, 76, 0
4, 9305, Note_on_c, 2, 69, 0
4, 9310, Note_on_c, 2, 74, 0
4, 9350, Note_on_c, 2, 71, 75
4, 9355, Note_on_c, 2, 76, 77
4, 9470, Note_on_c, 2, 71, 0
4, 9475, Note_on_c, 2, 76, 0
4, 38645, Note_on_c, 2, 91, 84
4, 38645, Note_on_c, 2, 86, 114
4, 38705, Note_on_c, 2, 86, 0
4, 38765, Note_on_c, 2, 91, 0
4, 39010, Note_on_c, 2, 88, 87
4, 39010, Note_on_c, 2, 83, 85
4, 39075, Note_on_c, 2, 88, 0
4, 39105, Note_on_c, 2, 83, 0
4, 39360, Note_on_c, 2, 86, 91
4, 39360, Note_on_c, 2, 81, 91
4, 39470, Note_on_c, 2, 86, 0
4, 39485, Note_on_c, 2, 81, 0
4, 39730, Note_on_c, 2, 76, 89
4, 39730, Note_on_c, 2, 81, 91
4, 39835, Note_on_c, 2, 81, 0
4, 39835, Note_on_c, 2, 76, 0
4, 40085, Note_on_c, 2, 74, 85
4, 40085, Note_on_c, 2, 79, 86
4, 40205, Note_on_c, 2, 79, 0
4, 40205, Note_on_c, 2, 74, 0
4, 40570, Note_on_c, 2, 69, 84
4, 40570, Note_on_c, 2, 66, 74
4, 40570, Note_on_c, 2, 71, 82
4, 40670, Note_on_c, 2, 66, 0
4, 40670, Note_on_c, 2, 69, 0
4, 40690, Note_on_c, 2, 71, 0
4, 40925, Note_on_c, 2, 66, 70
4, 40930, Note_on_c, 2, 69, 75
4, 40930, Note_on_c, 2, 71, 80
4, 41030, Note_on_c, 2, 71, 0
4, 41030, Note_on_c, 2, 69, 0
4, 41040, Note_on_c, 2, 66, 0
4, 51845, Note_on_c, 2, 86, 96
4, 51845, Note_on_c, 2, 91, 75
4, 51930, Note_on_c, 2, 91, 0
4, 51950, Note_on_c, 2, 86, 0
4, 52080, Note_on_c, 2, 91, 82
4, 52080, Note_on_c, 2, 86, 93
4, 52165, Note_on_c, 2, 86, 0
4, 52195, Note_on_c, 2, 91, 0
4, 52445, Note_on_c, 2, 88, 91
4, 52450, Note_on_c, 2, 83, 89
4, 52500, Note_on_c, 2, 83, 0
4, 52520, Note_on_c, 2, 88, 0
4, 52790, Note_on_c, 2, 86, 91
4, 52795, Note_on_c, 2, 81, 83
4, 52855, Note_on_c, 2, 86, 0
4, 52875, Note_on_c, 2, 81, 0
4, 53160, Note_on_c, 2, 81, 84
4, 53160, Note_on_c, 2, 76, 83
4, 53230, Note_on_c, 2, 81, 0
4, 53245, Note_on_c, 2, 76, 0
4, 53525, Note_on_c, 2, 79, 80
4, 53525, Note_on_c, 2, 74, 78
4, 53590, Note_on_c, 2, 79, 0
4, 53610, Note_on_c, 2, 74, 0
4, 53880, Note_on_c, 2, 76, 84
4, 53880, Note_on_c, 2, 71, 96
4, 53950, Note_on_c, 2, 71, 0
4, 53970, Note_on_c, 2, 76, 0
4, 53995, Note_on_c, 2, 74, 78
4, 54000, Note_on_c, 2, 69, 84
4, 54075, Note_on_c, 2, 69, 0
4, 54090, Note_on_c, 2, 74, 0
4, 54115, Note_on_c, 2, 69, 74
4, 54125, Note_on_c, 2, 64, 75
4, 54220, Note_on_c, 2, 69, 0
4, 54225, Note_on_c, 2, 64, 0
4, 54240, Note_on_c, 2, 62, 75
4, 54240, Note_on_c, 2, 67, 71
4, 54330, Note_on_c, 2, 67, 0
4, 54330, Note_on_c, 2, 62, 0
4, 54365, Note_on_c, 2, 69, 77
4, 54370, Note_on_c, 2, 74, 93
4, 54455, Note_on_c, 2, 74, 0
4, 54490, Note_on_c, 2, 69, 0
4, 54595, Note_on_c, 2, 74, 91
4, 54600, Note_on_c, 2, 69, 75
4, 54690, Note_on_c, 2, 74, 0
4, 54700, Note_on_c, 2, 69, 0
4, 54715, Note_on_c, 2, 76, 86
4, 54720, Note_on_c, 2, 71, 77
4, 54815, Note_on_c, 2, 76, 0
4, 54825, Note_on_c, 2, 71, 0
4, 54830, Note_on_c, 2, 74, 86
4, 54835, Note_on_c, 2, 69, 71
4, 54930, Note_on_c, 2, 74, 0
4, 54950, Note_on_c, 2, 76, 82
4, 54960, Note_on_c, 2, 71, 75
4, 54965, Note_on_c, 2, 69, 0
4, 55040, Note_on_c, 2, 71, 0
4, 55050, Note_on_c, 2, 76, 0
4, 55075, Note_on_c, 2, 74, 95
4, 55080, Note_on_c, 2, 79, 87
4, 55135, Note_on_c, 2, 74, 0
4, 55165, Note_on_c, 2, 79, 0
4, 55315, Note_on_c, 2, 74, 95
4, 55315, Note_on_c, 2, 69, 73
4, 55425, Note_on_c, 2, 74, 0
4, 55435, Note_on_c, 2, 76, 84
4, 55440, Note_on_c, 2, 69, 0
4, 55445, Note_on_c, 2, 71, 100
4, 55555, Note_on_c, 2, 71, 0
4, 55555, Note_on_c, 2, 76, 0
4, 57835, Note_on_c, 2, 66, 73
4, 57835, Note_on_c, 2, 62, 77
4, 57845, Note_on_c, 2, 60, 68
4, 57895, Note_on_c, 2, 62, 0
4, 57905, Note_on_c, 2, 60, 0
4, 57905, Note_on_c, 2, 66, 0
4, 57965, Note_on_c, 2, 62, 71
4, 57965, Note_on_c, 2, 66, 68
4, 57965, Note_on_c, 2, 60, 63
4, 58010, Note_on_c, 2, 62, 0
4, 58020, Note_on_c, 2, 66, 0
4, 58025, Note_on_c, 2, 60, 0
4, 58080, Note_on_c, 2, 60, 68
4, 58085, Note_on_c, 2, 62, 72
4, 58085, Note_on_c, 2, 66, 68
4, 58130, Note_on_c, 2, 62, 0
4, 58140, Note_on_c, 2, 66, 0
4, 58150, Note_on_c, 2, 60, 0
4, 58200, Note_on_c, 2, 66, 68
4, 58205, Note_on_c, 2, 62, 69
4, 58205, Note_on_c, 2, 60, 57
4, 58245, Note_on_c, 2, 60, 0
4, 58245, Note_on_c, 2, 62, 0
4, 58250, Note_on_c, 2, 66, 0
4, 58325, Note_on_c, 2, 62, 70
4, 58325, Note_on_c, 2, 66, 68
4, 58325, Note_on_c, 2, 60, 63
4, 58365, Note_on_c, 2, 62, 0
4, 58370, Note_on_c, 2, 60, 0
4, 58370, Note_on_c, 2, 66, 0
4, 58445, Note_on_c, 2, 66, 74
4, 58445, Note_on_c, 2, 62, 77
4, 58445, Note_on_c, 2, 60, 69
4, 58485, Note_on_c, 2, 62, 0
4, 58490, Note_on_c, 2, 60, 0
4, 58495, Note_on_c, 2, 66, 0
4, 58805, Note_on_c, 2, 62, 86
4, 58805, Note_on_c, 2, 66, 80
4, 58805, Note_on_c, 2, 60, 78
4, 58865, Note_on_c, 2, 62, 0
4, 58870, Note_on_c, 2, 60, 0
4, 58880, Note_on_c, 2, 66, 0
4, 59040, Note_on_c, 2, 60, 71
4, 59040, Note_on_c, 2, 66, 69
4, 59040, Note_on_c, 2, 62, 70
4, 59110, Note_on_c, 2, 62, 0
4, 59130, Note_on_c, 2, 66, 0
4, 59130, Note_on_c, 2, 60, 0
4, 59280, Note_on_c, 2, 62, 91
4, 59280, Note_on_c, 2, 60, 84
4, 59280, Note_on_c, 2, 66, 86
4, 59325, Note_on_c, 2, 62, 0
4, 59330, Note_on_c, 2, 66, 0
4, 59330, Note_on_c, 2, 60, 0
4, 59755, Note_on_c, 2, 86, 118
4, 59755, Note_on_c, 2, 91, 97
4, 59865, Note_on_c, 2, 91, 0
4, 59865, Note_on_c, 2, 86, 0
4, 61675, Note_on_c, 2, 79, 70
4, 61680, Note_on_c, 2, 74, 81
4, 61740, Note_on_c, 2, 74, 0
4, 61755, Note_on_c, 2, 79, 0
4, 61925, Note_on_c, 2, 62, 70
4, 61925, Note_on_c, 2, 67, 73
4, 61950, Note_on_c, 2, 67, 0
4, 61960, Note_on_c, 2, 62, 0
4, 62045, Note_on_c, 2, 74, 75
4, 62045, Note_on_c, 2, 79, 80
4, 62095, Note_on_c, 2, 74, 0
4, 62125, Note_on_c, 2, 79, 0
4, 62285, Note_on_c, 2, 62, 75
4, 62285, Note_on_c, 2, 67, 73
4, 62320, Note_on_c, 2, 67, 0
4, 62330, Note_on_c, 2, 62, 0
4, 62405, Note_on_c, 2, 62, 66
4, 62405, Note_on_c, 2, 67, 71
4, 62445, Note_on_c, 2, 62, 0
4, 62460, Note_on_c, 2, 67, 0
4, 62515, Note_on_c, 2, 62, 69
4, 62525, Note_on_c, 2, 67, 70
4, 62560, Note_on_c, 2, 62, 0
4, 62565, Note_on_c, 2, 67, 0
4, 62635, Note_on_c, 2, 62, 70
4, 62635, Note_on_c, 2, 67, 70
4, 62675, Note_on_c, 2, 62, 0
4, 62685, Note_on_c, 2, 67, 0
4, 62765, Note_on_c, 2, 67, 77
4, 62765, Note_on_c, 2, 62, 68
4, 62810, Note_on_c, 2, 62, 0
4, 62825, Note_on_c, 2, 67, 0
4, 63475, Note_on_c, 2, 76, 84
4, 63475, Note_on_c, 2, 78, 82
4, 63480, Note_on_c, 2, 83, 82
4, 63530, Note_on_c, 2, 83, 0
4, 63530, Note_on_c, 2, 78, 0
4, 63530, Note_on_c, 2, 76, 0
4, 63595, Note_on_c, 2, 74, 75
4, 63595, Note_on_c, 2, 72, 79
4, 63600, Note_on_c, 2, 66, 71
4, 63735, Note_on_c, 2, 72, 0
4, 63750, Note_on_c, 2, 66, 0
4, 63775, Note_on_c, 2, 74, 0
4, 63845, Note_on_c, 2, 76, 93
4, 63845, Note_on_c, 2, 83, 84
4, 63845, Note_on_c, 2, 78, 84
4, 63890, Note_on_c, 2, 76, 0
4, 63895, Note_on_c, 2, 78, 0
4, 63915, Note_on_c, 2, 83, 0
4, 63965, Note_on_c, 2, 74, 73
4, 63965, Note_on_c, 2, 72, 73
4, 63965, Note_on_c, 2, 66, 70
4, 64105, Note_on_c, 2, 66, 0
4, 64125, Note_on_c, 2, 72, 0
4, 64135, Note_on_c, 2, 74, 0
4, 64205, Note_on_c, 2, 76, 85
4, 64205, Note_on_c, 2, 78, 75
4, 64205, Note_on_c, 2, 83, 79
4, 64245, Note_on_c, 2, 83, 0
4, 64245, Note_on_c, 2, 78, 0
4, 64245, Note_on_c, 2, 76, 0
4, 64325, Note_on_c, 2, 74, 77
4, 64325, Note_on_c, 2, 72, 77
4, 64325, Note_on_c, 2, 66, 69
4, 64490, Note_on_c, 2, 72, 0
4, 64500, Note_on_c, 2, 66, 0
4, 64510, Note_on_c, 2, 74, 0
4, 64565, Note_on_c, 2, 76, 85
4, 64565, Note_on_c, 2, 78, 80
4, 64565, Note_on_c, 2, 83, 84
4, 64605, Note_on_c, 2, 78, 0
4, 64605, Note_on_c, 2, 76, 0
4, 64610, Note_on_c, 2, 83, 0
4, 64685, Note_on_c, 2, 72, 69
4, 64685, Note_on_c, 2, 66, 64
4, 64685, Note_on_c, 2, 74, 69
4, 64855, Note_on_c, 2, 66, 0
4, 64855, Note_on_c, 2, 72, 0
4, 64885, Note_on_c, 2, 74, 0
4, 64925, Note_on_c, 2, 76, 84
4, 64925, Note_on_c, 2, 83, 84
4, 64925, Note_on_c, 2, 78, 78
4, 64965, Note_on_c, 2, 78, 0
4, 64965, Note_on_c, 2, 83, 0
4, 64970, Note_on_c, 2, 76, 0
4, 65040, Note_on_c, 2, 66, 68
4, 65040, Note_on_c, 2, 74, 71
4, 65045, Note_on_c, 2, 72, 72
4, 65145, Note_on_c, 2, 72, 0
4, 65160, Note_on_c, 2, 74, 0
4, 65160, Note_on_c, 2, 66, 0
4, 65525, Note_on_c, 2, 76, 84
4, 65525, Note_on_c, 2, 78, 85
4, 65525, Note_on_c, 2, 83, 78
4, 65555, Note_on_c, 2, 76, 0
4, 65565, Note_on_c, 2, 83, 0
4, 65565, Note_on_c, 2, 78, 0
4, 65645, Note_on_c, 2, 66, 69
4, 65645, Note_on_c, 2, 72, 76
4, 65645, Note_on_c, 2, 74, 79
4, 65775, Note_on_c, 2, 72, 0
4, 65790, Note_on_c, 2, 66, 0
4, 65810, Note_on_c, 2, 74, 0
4, 65875, Note_on_c, 2, 76, 79
4, 65875, Note_on_c, 2, 78, 79
4, 65875, Note_on_c, 2, 83, 73
4, 65915, Note_on_c, 2, 83, 0
4, 65915, Note_on_c, 2, 78, 0
4, 65920, Note_on_c, 2, 76, 0
4, 65995, Note_on_c, 2, 74, 77
4, 65995, Note_on_c, 2, 66, 73
4, 65995, Note_on_c, 2, 72, 77
4, 66090, Note_on_c, 2, 72, 0
4, 66105, Note_on_c, 2, 66, 0
4, 66125, Note_on_c, 2, 74, 0
4, 66245, Note_on_c, 2, 76, 91
4, 66245, Note_on_c, 2, 78, 85
4, 66245, Note_on_c, 2, 83, 84
4, 66290, Note_on_c, 2, 83, 0
4, 66290, Note_on_c, 2, 78, 0
4, 66290, Note_on_c, 2, 76, 0
4, 66365, Note_on_c, 2, 72, 70
4, 66365, Note_on_c, 2, 66, 70
4, 66365, Note_on_c, 2, 74, 74
4, 66500, Note_on_c, 2, 74, 0
4, 66500, Note_on_c, 2, 72, 0
4, 66510, Note_on_c, 2, 66, 0
4, 66605, Note_on_c, 2, 76, 89
4, 66605, Note_on_c, 2, 78, 83
4, 66605, Note_on_c, 2, 83, 84
4, 66645, Note_on_c, 2, 78, 0
4, 66650, Note_on_c, 2, 83, 0
4, 66650, Note_on_c, 2, 76, 0
4, 66725, Note_on_c, 2, 66, 65
4, 66725, Note_on_c, 2, 72, 69
4, 66725, Note_on_c, 2, 74, 68
4, 66930, Note_on_c, 2, 72, 0
4, 66945, Note_on_c, 2, 74, 0
4, 66945, Note_on_c, 2, 66, 0
4, 66960, Note_on_c, 2, 76, 87
4, 66965, Note_on_c, 2, 78, 84
4, 66965, Note_on_c, 2, 83, 84
4, 66990, Note_on_c, 2, 78, 0
4, 66995, Note_on_c, 2, 76, 0
4, 67000, Note_on_c, 2, 83, 0
4, 67430, Note_on_c, 2, 79, 97
4, 67430, Note_on_c, 2, 74, 105
4, 67535, Note_on_c, 2, 74, 0
4, 67535, Note_on_c, 2, 79, 0
4, 67795, Note_on_c, 2, 71, 71
4, 67795, Note_on_c, 2, 76, 80
4, 67870, Note_on_c, 2, 76, 0
4, 67890, Note_on_c, 2, 71, 0
4, 68040, Note_on_c, 2, 74, 84
4, 68045, Note_on_c, 2, 69, 71
4, 68140, Note_on_c, 2, 69, 0
4, 68140, Note_on_c, 2, 74, 0
4, 68165, Note_on_c, 2, 69, 55
4, 68165, Note_on_c, 2, 74, 71
4, 68225, Note_on_c, 2, 74, 0
4, 68250, Note_on_c, 2, 69, 0
4, 68280, Note_on_c, 2, 74, 79
4, 68285, Note_on_c, 2, 69, 68
4, 68365, Note_on_c, 2, 69, 0
4, 68365, Note_on_c, 2, 74, 0
4, 68395, Note_on_c, 2, 69, 69
4, 68395, Note_on_c, 2, 74, 71
4, 68470, Note_on_c, 2, 74, 0
4, 68485, Note_on_c, 2, 69, 0
4, 68515, Note_on_c, 2, 69, 74
4, 68515, Note_on_c, 2, 74, 87
4, 68590, Note_on_c, 2, 74, 0
4, 68600, Note_on_c, 2, 69, 0
4, 71285, Note_on_c, 2, 66, 75
4, 71285, Note_on_c, 2, 69, 87
4, 71290, Note_on_c, 2, 71, 89
4, 71340, Note_on_c, 2, 66, 0
4, 71365, Note_on_c, 2, 69, 0
4, 71375, Note_on_c, 2, 71, 0
4, 71515, Note_on_c, 2, 63, 75
4, 71515, Note_on_c, 2, 59, 86
4, 71590, Note_on_c, 2, 59, 0
4, 71590, Note_on_c, 2, 63, 0
4, 71640, Note_on_c, 2, 66, 71
4, 71640, Note_on_c, 2, 69, 84
4, 71645, Note_on_c, 2, 71, 87
4, 71700, Note_on_c, 2, 66, 0
4, 71710, Note_on_c, 2, 71, 0
4, 71710, Note_on_c, 2, 69, 0
4, 71875, Note_on_c, 2, 63, 70
4, 71875, Note_on_c, 2, 59, 85
4, 71935, Note_on_c, 2, 59, 0
4, 71945, Note_on_c, 2, 63, 0
4, 71995, Note_on_c, 2, 66, 73
4, 71995, Note_on_c, 2, 69, 89
4, 72000, Note_on_c, 2, 71, 93
4, 72090, Note_on_c, 2, 69, 0
4, 72100, Note_on_c, 2, 71, 0
4, 72105, Note_on_c, 2, 66, 0
4, 72110, Note_on_c, 2, 59, 83
4, 72115, Note_on_c, 2, 63, 70
4, 72170, Note_on_c, 2, 63, 0
4, 72175, Note_on_c, 2, 59, 0
4, 72235, Note_on_c, 2, 63, 80
4, 72245, Note_on_c, 2, 59, 91
4, 72345, Note_on_c, 2, 59, 0
4, 72355, Note_on_c, 2, 63, 0
4, 72360, Note_on_c, 2, 71, 84
4, 72365, Note_on_c, 2, 66, 70
4, 72365, Note_on_c, 2, 69, 77
4, 72410, Note_on_c, 2, 69, 0
4, 72435, Note_on_c, 2, 66, 0
4, 72435, Note_on_c, 2, 71, 0
4, 72590, Note_on_c, 2, 63, 77
4, 72595, Note_on_c, 2, 59, 80
4, 72695, Note_on_c, 2, 63, 0
4, 72710, Note_on_c, 2, 59, 0
4, 72710, Note_on_c, 2, 66, 79
4, 72710, Note_on_c, 2, 69, 84
4, 72715, Note_on_c, 2, 71, 100
4, 72760, Note_on_c, 2, 69, 0
4, 72810, Note_on_c, 2, 66, 0
4, 72815, Note_on_c, 2, 71, 0
4, 72965, Note_on_c, 2, 63, 68
4, 72990, Note_on_c, 2, 63, 0
4, 73195, Note_on_c, 2, 78, 77
4, 73195, Note_on_c, 2, 69, 84
4, 73195, Note_on_c, 2, 71, 95
4, 73195, Note_on_c, 2, 75, 77
4, 73245, Note_on_c, 2, 71, 0
4, 73245, Note_on_c, 2, 78, 0
4, 73250, Note_on_c, 2, 69, 0
4, 73250, Note_on_c, 2, 75, 0
4, 73435, Note_on_c, 2, 66, 68
4, 73445, Note_on_c, 2, 63, 75
4, 73450, Note_on_c, 2, 59, 74
4, 73490, Note_on_c, 2, 59, 0
4, 73495, Note_on_c, 2, 63, 0
4, 73550, Note_on_c, 2, 66, 0
4, 73555, Note_on_c, 2, 78, 76
4, 73565, Note_on_c, 2, 75, 74
4, 73565, Note_on_c, 2, 71, 86
4, 73565, Note_on_c, 2, 69, 75
4, 73605, Note_on_c, 2, 69, 0
4, 73605, Note_on_c, 2, 71, 0
4, 73610, Note_on_c, 2, 78, 0
4, 73615, Note_on_c, 2, 75, 0
4, 73800, Note_on_c, 2, 66, 68
4, 73800, Note_on_c, 2, 63, 72
4, 73810, Note_on_c, 2, 59, 79
4, 73855, Note_on_c, 2, 63, 0
4, 73860, Note_on_c, 2, 59, 0
4, 73895, Note_on_c, 2, 66, 0
4, 73915, Note_on_c, 2, 78, 81
4, 73915, Note_on_c, 2, 75, 76
4, 73915, Note_on_c, 2, 71, 96
4, 73915, Note_on_c, 2, 69, 84
4, 73965, Note_on_c, 2, 71, 0
4, 73970, Note_on_c, 2, 69, 0
4, 73980, Note_on_c, 2, 75, 0
4, 74000, Note_on_c, 2, 78, 0
4, 74030, Note_on_c, 2, 66, 57
4, 74030, Note_on_c, 2, 59, 75
4, 74030, Note_on_c, 2, 63, 65
4, 74095, Note_on_c, 2, 63, 0
4, 74095, Note_on_c, 2, 59, 0
4, 74105, Note_on_c, 2, 66, 0
4, 74155, Note_on_c, 2, 66, 68
4, 74160, Note_on_c, 2, 63, 74
4, 74165, Note_on_c, 2, 59, 81
4, 74270, Note_on_c, 2, 63, 0
4, 74280, Note_on_c, 2, 59, 0
4, 74285, Note_on_c, 2, 78, 77
4, 74285, Note_on_c, 2, 69, 80
4, 74285, Note_on_c, 2, 71, 91
4, 74285, Note_on_c, 2, 75, 80
4, 74345, Note_on_c, 2, 71, 0
4, 74350, Note_on_c, 2, 66, 0
4, 74390, Note_on_c, 2, 75, 0
4, 74400, Note_on_c, 2, 69, 0
4, 74400, Note_on_c, 2, 78, 0
4, 74515, Note_on_c, 2, 66, 72
4, 74520, Note_on_c, 2, 63, 81
4, 74525, Note_on_c, 2, 59, 89
4, 74630, Note_on_c, 2, 59, 0
4, 74635, Note_on_c, 2, 63, 0
4, 74635, Note_on_c, 2, 78, 85
4, 74645, Note_on_c, 2, 69, 83
4, 74645, Note_on_c, 2, 71, 86
4, 74645, Note_on_c, 2, 75, 77
4, 74685, Note_on_c, 2, 71, 0
4, 74700, Note_on_c, 2, 69, 0
4, 74700, Note_on_c, 2, 75, 0
4, 74720, Note_on_c, 2, 66, 0
4, 74750, Note_on_c, 2, 78, 0
4, 75125, Note_on_c, 2, 74, 96
4, 75125, Note_on_c, 2, 71, 91
4, 75125, Note_on_c, 2, 80, 80
4, 75125, Note_on_c, 2, 76, 96
4, 75170, Note_on_c, 2, 76, 0
4, 75185, Note_on_c, 2, 74, 0
4, 75190, Note_on_c, 2, 71, 0
4, 75245, Note_on_c, 2, 80, 0
4, 75360, Note_on_c, 2, 68, 69
4, 75365, Note_on_c, 2, 59, 78
4, 75365, Note_on_c, 2, 64, 84
4, 75425, Note_on_c, 2, 64, 0
4, 75460, Note_on_c, 2, 59, 0
4, 75480, Note_on_c, 2, 80, 74
4, 75480, Note_on_c, 2, 74, 87
4, 75480, Note_on_c, 2, 76, 85
4, 75485, Note_on_c, 2, 71, 77
4, 75495, Note_on_c, 2, 68, 0
4, 75520, Note_on_c, 2, 76, 0
4, 75535, Note_on_c, 2, 74, 0
4, 75560, Note_on_c, 2, 71, 0
4, 75590, Note_on_c, 2, 80, 0
4, 75720, Note_on_c, 2, 68, 71
4, 75725, Note_on_c, 2, 64, 84
4, 75730, Note_on_c, 2, 59, 73
4, 75775, Note_on_c, 2, 59, 0
4, 75790, Note_on_c, 2, 64, 0
4, 75800, Note_on_c, 2, 68, 0
4, 75835, Note_on_c, 2, 80, 83
4, 75835, Note_on_c, 2, 74, 82
4, 75835, Note_on_c, 2, 71, 77
4, 75840, Note_on_c, 2, 76, 82
4, 75890, Note_on_c, 2, 76, 0
4, 75910, Note_on_c, 2, 71, 0
4, 75910, Note_on_c, 2, 74, 0
4, 75925, Note_on_c, 2, 80, 0
4, 75950, Note_on_c, 2, 68, 69
4, 75955, Note_on_c, 2, 64, 77
4, 75955, Note_on_c, 2, 59, 71
4, 75990, Note_on_c, 2, 59, 0
4, 76010, Note_on_c, 2, 64, 0
4, 76010, Note_on_c, 2, 68, 0
4, 76080, Note_on_c, 2, 68, 68
4, 76085, Note_on_c, 2, 64, 80
4, 76085, Note_on_c, 2, 59, 84
4, 76190, Note_on_c, 2, 59, 0
4, 76190, Note_on_c, 2, 64, 0
4, 76205, Note_on_c, 2, 80, 81
4, 76205, Note_on_c, 2, 74, 93
4, 76210, Note_on_c, 2, 76, 95
4, 76210, Note_on_c, 2, 71, 95
4, 76230, Note_on_c, 2, 68, 0
4, 76255, Note_on_c, 2, 76, 0
4, 76270, Note_on_c, 2, 74, 0
4, 76280, Note_on_c, 2, 71, 0
4, 76310, Note_on_c, 2, 80, 0
4, 76445, Note_on_c, 2, 59, 89
4, 76445, Note_on_c, 2, 68, 73
4, 76445, Note_on_c, 2, 64, 83
4, 76515, Note_on_c, 2, 59, 0
4, 76545, Note_on_c, 2, 68, 0
4, 76550, Note_on_c, 2, 64, 0
4, 76555, Note_on_c, 2, 71, 84
4, 76555, Note_on_c, 2, 80, 80
4, 76560, Note_on_c, 2, 74, 86
4, 76560, Note_on_c, 2, 76, 93
4, 76605, Note_on_c, 2, 74, 0
4, 76605, Note_on_c, 2, 71, 0
4, 76610, Note_on_c, 2, 76, 0
4, 76650, Note_on_c, 2, 80, 0
4, 76805, Note_on_c, 2, 64, 84
4, 76840, Note_on_c, 2, 64, 0
4, 77050, Note_on_c, 2, 88, 100
4, 77050, Note_on_c, 2, 95, 93
4, 77050, Note_on_c, 2, 92, 84
4, 77050, Note_on_c, 2, 86, 97
4, 77155, Note_on_c, 2, 86, 0
4, 77155, Note_on_c, 2, 88, 0
4, 77155, Note_on_c, 2, 95, 0
4, 77165, Note_on_c, 2, 92, 0
4, 77290, Note_on_c, 2, 68, 72
4, 77295, Note_on_c, 2, 64, 80
4, 77330, Note_on_c, 2, 64, 0
4, 77350, Note_on_c, 2, 68, 0
4, 77410, Note_on_c, 2, 76, 108
4, 77410, Note_on_c, 2, 80, 96
4, 77410, Note_on_c, 2, 74, 108
4, 77450, Note_on_c, 2, 74, 0
4, 77460, Note_on_c, 2, 76, 0
4, 77480, Note_on_c, 2, 80, 0
4, 77645, Note_on_c, 2, 68, 73
4, 77650, Note_on_c, 2, 64, 86
4, 77695, Note_on_c, 2, 64, 0
4, 77710, Note_on_c, 2, 68, 0
4, 77755, Note_on_c, 2, 88, 96
4, 77755, Note_on_c, 2, 86, 86
4, 77755, Note_on_c, 2, 92, 108
4, 77755, Note_on_c, 2, 95, 85
4, 77805, Note_on_c, 2, 88, 0
4, 77810, Note_on_c, 2, 86, 0
4, 77810, Note_on_c, 2, 92, 0
4, 77810, Note_on_c, 2, 95, 0
4, 77870, Note_on_c, 2, 68, 72
4, 77875, Note_on_c, 2, 64, 83
4, 77925, Note_on_c, 2, 64, 0
4, 77930, Note_on_c, 2, 68, 0
4, 77995, Note_on_c, 2, 68, 70
4, 78005, Note_on_c, 2, 64, 84
4, 78085, Note_on_c, 2, 64, 0
4, 78120, Note_on_c, 2, 68, 0
4, 78120, Note_on_c, 2, 80, 105
4, 78120, Note_on_c, 2, 74, 85
4, 78120, Note_on_c, 2, 76, 91
4, 78170, Note_on_c, 2, 76, 0
4, 78190, Note_on_c, 2, 74, 0
4, 78190, Note_on_c, 2, 80, 0
4, 78355, Note_on_c, 2, 68, 73
4, 78355, Note_on_c, 2, 64, 87
4, 78440, Note_on_c, 2, 64, 0
4, 78470, Note_on_c, 2, 80, 105
4, 78470, Note_on_c, 2, 76, 96
4, 78470, Note_on_c, 2, 74, 91
4, 78490, Note_on_c, 2, 68, 0
4, 78575, Note_on_c, 2, 80, 0
4, 78585, Note_on_c, 2, 76, 0
4, 78585, Note_on_c, 2, 74, 0
4, 78725, Note_on_c, 2, 64, 70
4, 78790, Note_on_c, 2, 64, 0
4, 78965, Note_on_c, 2, 78, 87
4, 78965, Note_on_c, 2, 72, 85
4, 78970, Note_on_c, 2, 74, 93
4, 78995, Note_on_c, 2, 74, 0
4, 79005, Note_on_c, 2, 72, 0
4, 79005, Note_on_c, 2, 78, 0
4, 79210, Note_on_c, 2, 62, 84
4, 79275, Note_on_c, 2, 62, 0
4, 79325, Note_on_c, 2, 78, 105
4, 79325, Note_on_c, 2, 74, 103
4, 79325, Note_on_c, 2, 72, 87
4, 79370, Note_on_c, 2, 74, 0
4, 79370, Note_on_c, 2, 78, 0
4, 79380, Note_on_c, 2, 72, 0
4, 79560, Note_on_c, 2, 66, 71
4, 79560, Note_on_c, 2, 62, 84
4, 79620, Note_on_c, 2, 66, 0
4, 79635, Note_on_c, 2, 62, 0
4, 79670, Note_on_c, 2, 78, 110
4, 79675, Note_on_c, 2, 74, 96
4, 79675, Note_on_c, 2, 72, 86
4, 79720, Note_on_c, 2, 74, 0
4, 79725, Note_on_c, 2, 78, 0
4, 79740, Note_on_c, 2, 72, 0
4, 79790, Note_on_c, 2, 66, 69
4, 79790, Note_on_c, 2, 62, 83
4, 79845, Note_on_c, 2, 62, 0
4, 79845, Note_on_c, 2, 66, 0
4, 79915, Note_on_c, 2, 66, 69
4, 79975, Note_on_c, 2, 66, 0
4, 80030, Note_on_c, 2, 78, 89
4, 80030, Note_on_c, 2, 72, 84
4, 80030, Note_on_c, 2, 74, 91
4, 80070, Note_on_c, 2, 74, 0
4, 80080, Note_on_c, 2, 78, 0
4, 80100, Note_on_c, 2, 72, 0
4, 80275, Note_on_c, 2, 69, 73
4, 80275, Note_on_c, 2, 62, 84
4, 80330, Note_on_c, 2, 62, 0
4, 80335, Note_on_c, 2, 69, 0
4, 80395, Note_on_c, 2, 72, 89
4, 80395, Note_on_c, 2, 78, 105
4, 80395, Note_on_c, 2, 74, 103
4, 80430, Note_on_c, 2, 74, 0
4, 80450, Note_on_c, 2, 72, 0
4, 80455, Note_on_c, 2, 78, 0
4, 80650, Note_on_c, 2, 69, 76
4, 80650, Note_on_c, 2, 62, 85
4, 80745, Note_on_c, 2, 62, 0
4, 80765, Note_on_c, 2, 69, 0
4, 80890, Note_on_c, 2, 78, 105
4, 80890, Note_on_c, 2, 72, 91
4, 80890, Note_on_c, 2, 74, 100
4, 80925, Note_on_c, 2, 74, 0
4, 80945, Note_on_c, 2, 78, 0
4, 80950, Note_on_c, 2, 72, 0
4, 81115, Note_on_c, 2, 69, 73
4, 81125, Note_on_c, 2, 62, 75
4, 81125, Note_on_c, 2, 66, 73
4, 81170, Note_on_c, 2, 66, 0
4, 81185, Note_on_c, 2, 62, 0
4, 81210, Note_on_c, 2, 69, 0
4, 81245, Note_on_c, 2, 78, 96
4, 81245, Note_on_c, 2, 72, 87
4, 81245, Note_on_c, 2, 74, 93
4, 81275, Note_on_c, 2, 74, 0
4, 81290, Note_on_c, 2, 72, 0
4, 81295, Note_on_c, 2, 78, 0
4, 81485, Note_on_c, 2, 69, 75
4, 81485, Note_on_c, 2, 66, 73
4, 81490, Note_on_c, 2, 62, 75
4, 81515, Note_on_c, 2, 66, 0
4, 81530, Note_on_c, 2, 62, 0
4, 81570, Note_on_c, 2, 69, 0
4, 81595, Note_on_c, 2, 78, 97
4, 81600, Note_on_c, 2, 74, 96
4, 81600, Note_on_c, 2, 72, 85
4, 81640, Note_on_c, 2, 74, 0
4, 81650, Note_on_c, 2, 78, 0
4, 81660, Note_on_c, 2, 72, 0
4, 81725, Note_on_c, 2, 78, 67
4, 81725, Note_on_c, 2, 72, 62
4, 81725, Note_on_c, 2, 74, 65
4, 81770, Note_on_c, 2, 74, 0
4, 81775, Note_on_c, 2, 72, 0
4, 81775, Note_on_c, 2, 78, 0
4, 81845, Note_on_c, 2, 62, 83
4, 81845, Note_on_c, 2, 69, 75
4, 81940, Note_on_c, 2, 62, 0
4, 81965, Note_on_c, 2, 72, 85
4, 81965, Note_on_c, 2, 78, 108
4, 81965, Note_on_c, 2, 74, 95
4, 81975, Note_on_c, 2, 69, 0
4, 82080, Note_on_c, 2, 74, 0
4, 82110, Note_on_c, 2, 78, 0
4, 82110, Note_on_c, 2, 72, 0
4, 82195, Note_on_c, 2, 62, 84
4, 82195, Note_on_c, 2, 69, 76
4, 82265, Note_on_c, 2, 62, 0
4, 82285, Note_on_c, 2, 69, 0
4, 82315, Note_on_c, 2, 78, 75
4, 82315, Note_on_c, 2, 72, 71
4, 82315, Note_on_c, 2, 74, 77
4, 82350, Note_on_c, 2, 74, 0
4, 82355, Note_on_c, 2, 72, 0
4, 82385, Note_on_c, 2, 78, 0
4, 82690, Note_on_c, 2, 86, 69
4, 82785, Note_on_c, 2, 87, 63
4, 82790, Note_on_c, 2, 88, 80
4, 82805, Note_on_c, 2, 86, 0
4, 82810, Note_on_c, 2, 91, 82
4, 82820, Note_on_c, 2, 87, 0
4, 82870, Note_on_c, 2, 88, 0
4, 82900, Note_on_c, 2, 91, 0
4, 83035, Note_on_c, 2, 88, 77
4, 83035, Note_on_c, 2, 83, 82
4, 83035, Note_on_c, 2, 86, 73
4, 83035, Note_on_c, 2, 91, 73
4, 83095, Note_on_c, 2, 86, 0
4, 83110, Note_on_c, 2, 88, 0
4, 83125, Note_on_c, 2, 91, 0
4, 83150, Note_on_c, 2, 83, 0
4, 83170, Note_on_c, 2, 88, 75
4, 83170, Note_on_c, 2, 86, 73
4, 83170, Note_on_c, 2, 83, 61
4, 83170, Note_on_c, 2, 91, 58
4, 83245, Note_on_c, 2, 91, 0
4, 83250, Note_on_c, 2, 86, 0
4, 83255, Note_on_c, 2, 88, 0
4, 83265, Note_on_c, 2, 83, 0
4, 83400, Note_on_c, 2, 91, 80
4, 83405, Note_on_c, 2, 88, 75
4, 83405, Note_on_c, 2, 86, 74
4, 83405, Note_on_c, 2, 83, 75
4, 83470, Note_on_c, 2, 88, 0
4, 83480, Note_on_c, 2, 86, 0
4, 83495, Note_on_c, 2, 83, 0
4, 83510, Note_on_c, 2, 91, 0
4, 83760, Note_on_c, 2, 88, 83
4, 83760, Note_on_c, 2, 83, 83
4, 83855, Note_on_c, 2, 83, 0
4, 83855, Note_on_c, 2, 88, 0
4, 84125, Note_on_c, 2, 81, 73
4, 84125, Note_on_c, 2, 86, 84
4, 84190, Note_on_c, 2, 81, 0
4, 84200, Note_on_c, 2, 86, 0
4, 84370, Note_on_c, 2, 86, 74
4, 84465, Note_on_c, 2, 87, 72
4, 84475, Note_on_c, 2, 88, 76
4, 84485, Note_on_c, 2, 91, 76
4, 84500, Note_on_c, 2, 86, 0
4, 84550, Note_on_c, 2, 87, 0
4, 84555, Note_on_c, 2, 88, 0
4, 84610, Note_on_c, 2, 91, 0
4, 84725, Note_on_c, 2, 86, 96
4, 84725, Note_on_c, 2, 91, 81
4, 84730, Note_on_c, 2, 83, 83
4, 84820, Note_on_c, 2, 86, 0
4, 84850, Note_on_c, 2, 91, 0
4, 84850, Note_on_c, 2, 88, 74
4, 85010, Note_on_c, 2, 83, 0
4, 85015, Note_on_c, 2, 88, 0
4, 85085, Note_on_c, 2, 88, 84
4, 85085, Note_on_c, 2, 83, 79
4, 85190, Note_on_c, 2, 88, 0
4, 85195, Note_on_c, 2, 86, 78
4, 85290, Note_on_c, 2, 83, 0
4, 85315, Note_on_c, 2, 86, 0
4, 85420, Note_on_c, 2, 83, 74
4, 85430, Note_on_c, 2, 86, 76
4, 85435, Note_on_c, 2, 88, 64
4, 85440, Note_on_c, 2, 91, 72
4, 85500, Note_on_c, 2, 83, 0
4, 85515, Note_on_c, 2, 86, 0
4, 85530, Note_on_c, 2, 91, 0
4, 85545, Note_on_c, 2, 88, 0
4, 85560, Note_on_c, 2, 83, 73
4, 85560, Note_on_c, 2, 86, 73
4, 85560, Note_on_c, 2, 88, 73
4, 85560, Note_on_c, 2, 91, 73
4, 85630, Note_on_c, 2, 88, 0
4, 85630, Note_on_c, 2, 86, 0
4, 85645, Note_on_c, 2, 83, 0
4, 85655, Note_on_c, 2, 91, 0
4, 85805, Note_on_c, 2, 91, 82
4, 85805, Note_on_c, 2, 86, 77
4, 85810, Note_on_c, 2, 83, 76
4, 85810, Note_on_c, 2, 88, 74
4, 85905, Note_on_c, 2, 88, 0
4, 85910, Note_on_c, 2, 91, 0
4, 85910, Note_on_c, 2, 86, 0
4, 85910, Note_on_c, 2, 83, 0
4, 86635, Note_on_c, 2, 83, 84
4, 86635, Note_on_c, 2, 72, 71
4, 86635, Note_on_c, 2, 78, 80
4, 86635, Note_on_c, 2, 76, 81
4, 86750, Note_on_c, 2, 76, 0
4, 86755, Note_on_c, 2, 78, 0
4, 86765, Note_on_c, 2, 72, 0
4, 86770, Note_on_c, 2, 83, 0
4, 86880, Note_on_c, 2, 62, 72
4, 86960, Note_on_c, 2, 62, 0
4, 87000, Note_on_c, 2, 78, 75
4, 87000, Note_on_c, 2, 81, 85
4, 87000, Note_on_c, 2, 72, 73
4, 87000, Note_on_c, 2, 76, 84
4, 87070, Note_on_c, 2, 78, 0
4, 87075, Note_on_c, 2, 81, 0
4, 87090, Note_on_c, 2, 76, 0
4, 87110, Note_on_c, 2, 72, 0
4, 87245, Note_on_c, 2, 62, 71
4, 87290, Note_on_c, 2, 62, 0
4, 87355, Note_on_c, 2, 83, 83
4, 87355, Note_on_c, 2, 78, 105
4, 87355, Note_on_c, 2, 76, 95
4, 87360, Note_on_c, 2, 72, 81
4, 87405, Note_on_c, 2, 76, 0
4, 87405, Note_on_c, 2, 78, 0
4, 87425, Note_on_c, 2, 72, 0
4, 87475, Note_on_c, 2, 76, 58
4, 87485, Note_on_c, 2, 72, 41
4, 87530, Note_on_c, 2, 76, 0
4, 87550, Note_on_c, 2, 72, 0
4, 87560, Note_on_c, 2, 83, 0
4, 87605, Note_on_c, 2, 62, 71
4, 87670, Note_on_c, 2, 62, 0
4, 87725, Note_on_c, 2, 81, 78
4, 87725, Note_on_c, 2, 78, 70
4, 87730, Note_on_c, 2, 76, 74
4, 87730, Note_on_c, 2, 72, 66
4, 87770, Note_on_c, 2, 76, 0
4, 87770, Note_on_c, 2, 78, 0
4, 87780, Note_on_c, 2, 81, 0
4, 87790, Note_on_c, 2, 72, 0
4, 87955, Note_on_c, 2, 81, 84
4, 87955, Note_on_c, 2, 78, 73
4, 87955, Note_on_c, 2, 76, 73
4, 87960, Note_on_c, 2, 72, 69
4, 88005, Note_on_c, 2, 76, 0
4, 88005, Note_on_c, 2, 78, 0
4, 88010, Note_on_c, 2, 81, 0
4, 88020, Note_on_c, 2, 72, 0
4, 88555, Note_on_c, 2, 86, 84
4, 88560, Note_on_c, 2, 81, 96
4, 88605, Note_on_c, 2, 81, 0
4, 88670, Note_on_c, 2, 86, 0
4, 88805, Note_on_c, 2, 78, 71
4, 88805, Note_on_c, 2, 83, 97
4, 88970, Note_on_c, 2, 78, 0
4, 88995, Note_on_c, 2, 83, 0
4, 89045, Note_on_c, 2, 81, 80
4, 89105, Note_on_c, 2, 81, 0
4, 89165, Note_on_c, 2, 78, 79
4, 89170, Note_on_c, 2, 86, 84
4, 89250, Note_on_c, 2, 78, 0
4, 89290, Note_on_c, 2, 86, 0
4, 89395, Note_on_c, 2, 78, 70
4, 89395, Note_on_c, 2, 86, 83
4, 89505, Note_on_c, 2, 86, 0
4, 89510, Note_on_c, 2, 83, 84
4, 89520, Note_on_c, 2, 78, 0
4, 89590, Note_on_c, 2, 83, 0
4, 89645, Note_on_c, 2, 78, 54
4, 89685, Note_on_c, 2, 78, 0
4, 89760, Note_on_c, 2, 86, 83
4, 89760, Note_on_c, 2, 81, 86
4, 89885, Note_on_c, 2, 81, 0
4, 89885, Note_on_c, 2, 78, 64
4, 89890, Note_on_c, 2, 83, 70
4, 89895, Note_on_c, 2, 86, 0
4, 89935, Note_on_c, 2, 78, 0
4, 89990, Note_on_c, 2, 83, 0
4, 90010, Note_on_c, 2, 81, 69
4, 90050, Note_on_c, 2, 81, 0
4, 90475, Note_on_c, 2, 91, 84
4, 90475, Note_on_c, 2, 86, 97
4, 90535, Note_on_c, 2, 86, 0
4, 90550, Note_on_c, 2, 91, 0
4, 90715, Note_on_c, 2, 88, 85
4, 90715, Note_on_c, 2, 83, 89
4, 90820, Note_on_c, 2, 83, 0
4, 90950, Note_on_c, 2, 88, 0
4, 90965, Note_on_c, 2, 81, 53
4, 91010, Note_on_c, 2, 81, 0
4, 91080, Note_on_c, 2, 91, 68
4, 91085, Note_on_c, 2, 83, 70
4, 91130, Note_on_c, 2, 83, 0
4, 91155, Note_on_c, 2, 91, 0
4, 91315, Note_on_c, 2, 91, 80
4, 91320, Note_on_c, 2, 86, 84
4, 91425, Note_on_c, 2, 91, 0
4, 91430, Note_on_c, 2, 86, 0
4, 91555, Note_on_c, 2, 86, 84
4, 91565, Note_on_c, 2, 91, 56
4, 91625, Note_on_c, 2, 86, 0
4, 91635, Note_on_c, 2, 91, 0
4, 91675, Note_on_c, 2, 83, 68
4, 91685, Note_on_c, 2, 88, 72
4, 91745, Note_on_c, 2, 88, 0
4, 91750, Note_on_c, 2, 83, 0
4, 91805, Note_on_c, 2, 83, 74
4, 91805, Note_on_c, 2, 88, 75
4, 91870, Note_on_c, 2, 83, 0
4, 91900, Note_on_c, 2, 88, 0
4, 91915, Note_on_c, 2, 81, 70
4, 91925, Note_on_c, 2, 86, 73
4, 91990, Note_on_c, 2, 86, 0
4, 92040, Note_on_c, 2, 86, 53
4, 92120, Note_on_c, 2, 86, 0
4, 92140, Note_on_c, 2, 81, 0
4, 92165, Note_on_c, 2, 91, 72
4, 92165, Note_on_c, 2, 86, 77
4, 92195, Note_on_c, 2, 86, 0
4, 92290, Note_on_c, 2, 91, 0
4, 92395, Note_on_c, 2, 86, 80
4, 92400, Note_on_c, 2, 91, 71
4, 92480, Note_on_c, 2, 91, 0
4, 92550, Note_on_c, 2, 86, 0
4, 92640, Note_on_c, 2, 88, 81
4, 92640, Note_on_c, 2, 83, 81
4, 92790, Note_on_c, 2, 83, 0
4, 92795, Note_on_c, 2, 88, 0
4, 92875, Note_on_c, 2, 81, 66
4, 92875, Note_on_c, 2, 86, 57
4, 92895, Note_on_c, 2, 86, 0
4, 92915, Note_on_c, 2, 81, 0
4, 92995, Note_on_c, 2, 91, 84
4, 92995, Note_on_c, 2, 86, 97
4, 93070, Note_on_c, 2, 86, 0
4, 93105, Note_on_c, 2, 91, 0
4, 93235, Note_on_c, 2, 91, 71
4, 93235, Note_on_c, 2, 86, 83
4, 93320, Note_on_c, 2, 86, 0
4, 93330, Note_on_c, 2, 91, 0
4, 93355, Note_on_c, 2, 88, 68
4, 93355, Note_on_c, 2, 83, 64
4, 93430, Note_on_c, 2, 83, 0
4, 93460, Note_on_c, 2, 88, 0
4, 93490, Note_on_c, 2, 81, 23
4, 93530, Note_on_c, 2, 81, 0
4, 93605, Note_on_c, 2, 86, 85
4, 93605, Note_on_c, 2, 91, 84
4, 93815, Note_on_c, 2, 91, 0
4, 93820, Note_on_c, 2, 86, 0
4, 93845, Note_on_c, 2, 88, 72
4, 93845, Note_on_c, 2, 83, 75
4, 93930, Note_on_c, 2, 83, 0
4, 93950, Note_on_c, 2, 88, 0
4, 93965, Note_on_c, 2, 81, 64
4, 93965, Note_on_c, 2, 86, 82
4, 94005, Note_on_c, 2, 86, 0
4, 94010, Note_on_c, 2, 81, 0
4, 94205, Note_on_c, 2, 86, 84
4, 94210, Note_on_c, 2, 81, 86
4, 94310, Note_on_c, 2, 81, 0
4, 94330, Note_on_c, 2, 86, 0
4, 94330, Note_on_c, 2, 83, 66
4, 94445, Note_on_c, 2, 83, 0
4, 94450, Note_on_c, 2, 78, 51
4, 94565, Note_on_c, 2, 86, 84
4, 94565, Note_on_c, 2, 81, 93
4, 94575, Note_on_c, 2, 78, 0
4, 94690, Note_on_c, 2, 78, 68
4, 94690, Note_on_c, 2, 83, 75
4, 94695, Note_on_c, 2, 81, 0
4, 94700, Note_on_c, 2, 86, 0
4, 94750, Note_on_c, 2, 83, 0
4, 94770, Note_on_c, 2, 78, 0
4, 94925, Note_on_c, 2, 86, 85
4, 94930, Note_on_c, 2, 81, 96
4, 95010, Note_on_c, 2, 81, 0
4, 95040, Note_on_c, 2, 86, 0
4, 95165, Note_on_c, 2, 81, 89
4, 95165, Note_on_c, 2, 86, 79
4, 95270, Note_on_c, 2, 81, 0
4, 95285, Note_on_c, 2, 83, 67
4, 95290, Note_on_c, 2, 86, 0
4, 95315, Note_on_c, 2, 83, 0
4, 95405, Note_on_c, 2, 78, 62
4, 95440, Note_on_c, 2, 78, 0
4, 95515, Note_on_c, 2, 88, 89
4, 95515, Note_on_c, 2, 83, 100
4, 95755, Note_on_c, 2, 88, 0
4, 95765, Note_on_c, 2, 83, 0
4, 95765, Note_on_c, 2, 86, 77
4, 95765, Note_on_c, 2, 81, 80
4, 95850, Note_on_c, 2, 81, 0
4, 95850, Note_on_c, 2, 86, 0
4, 96005, Note_on_c, 2, 78, 70
4, 96080, Note_on_c, 2, 78, 0
4, 96125, Note_on_c, 2, 86, 75
4, 96130, Note_on_c, 2, 83, 84
4, 96215, Note_on_c, 2, 83, 0
4, 96240, Note_on_c, 2, 81, 72
4, 96290, Note_on_c, 2, 86, 0
4, 96310, Note_on_c, 2, 81, 0
4, 96370, Note_on_c, 2, 78, 69
4, 96465, Note_on_c, 2, 78, 0
4, 96490, Note_on_c, 2, 86, 85
4, 96490, Note_on_c, 2, 83, 96
4, 96590, Note_on_c, 2, 83, 0
4, 96610, Note_on_c, 2, 81, 85
4, 96670, Note_on_c, 2, 81, 0
4, 96705, Note_on_c, 2, 86, 0
4, 96835, Note_on_c, 2, 86, 78
4, 96845, Note_on_c, 2, 83, 100
4, 96845, Note_on_c, 2, 78, 73
4, 96870, Note_on_c, 2, 78, 0
4, 96920, Note_on_c, 2, 83, 0
4, 96970, Note_on_c, 2, 86, 0
4, 97075, Note_on_c, 2, 86, 77
4, 97075, Note_on_c, 2, 81, 89
4, 97190, Note_on_c, 2, 81, 0
4, 97190, Note_on_c, 2, 86, 0
4, 97195, Note_on_c, 2, 83, 77
4, 97315, Note_on_c, 2, 83, 0
4, 97445, Note_on_c, 2, 86, 84
4, 97450, Note_on_c, 2, 81, 87
4, 97570, Note_on_c, 2, 86, 0
4, 97570, Note_on_c, 2, 83, 77
4, 97575, Note_on_c, 2, 81, 0
4, 97635, Note_on_c, 2, 83, 0
4, 97685, Note_on_c, 2, 78, 54
4, 97730, Note_on_c, 2, 78, 0
4, 98150, Note_on_c, 2, 91, 81
4, 98165, Note_on_c, 2, 88, 68
4, 98165, Note_on_c, 2, 86, 72
4, 98175, Note_on_c, 2, 88, 0
4, 98205, Note_on_c, 2, 86, 0
4, 98205, Note_on_c, 2, 91, 0
4, 98405, Note_on_c, 2, 88, 87
4, 98410, Note_on_c, 2, 83, 85
4, 98570, Note_on_c, 2, 83, 0
4, 98600, Note_on_c, 2, 88, 0
4, 98635, Note_on_c, 2, 86, 58
4, 98640, Note_on_c, 2, 81, 58
4, 98695, Note_on_c, 2, 86, 0
4, 98700, Note_on_c, 2, 81, 0
4, 98770, Note_on_c, 2, 91, 86
4, 98770, Note_on_c, 2, 86, 89
4, 98825, Note_on_c, 2, 86, 0
4, 98830, Note_on_c, 2, 91, 0
4, 98990, Note_on_c, 2, 86, 77
4, 98990, Note_on_c, 2, 91, 70
4, 99070, Note_on_c, 2, 86, 0
4, 99095, Note_on_c, 2, 91, 0
4, 99110, Note_on_c, 2, 83, 69
4, 99110, Note_on_c, 2, 88, 70
4, 99200, Note_on_c, 2, 88, 0
4, 99220, Note_on_c, 2, 83, 0
4, 99245, Note_on_c, 2, 81, 70
4, 99295, Note_on_c, 2, 81, 0
4, 99350, Note_on_c, 2, 91, 95
4, 99350, Note_on_c, 2, 86, 95
4, 99465, Note_on_c, 2, 86, 0
4, 99465, Note_on_c, 2, 91, 0
4, 99485, Note_on_c, 2, 83, 64
4, 99490, Note_on_c, 2, 88, 68
4, 99560, Note_on_c, 2, 83, 0
4, 99570, Note_on_c, 2, 88, 0
4, 99725, Note_on_c, 2, 86, 93
4, 99730, Note_on_c, 2, 81, 93
4, 99770, Note_on_c, 2, 81, 0
4, 99770, Note_on_c, 2, 86, 0
4, 99965, Note_on_c, 2, 88, 89
4, 99965, Note_on_c, 2, 83, 84
4, 100130, Note_on_c, 2, 88, 0
4, 100180, Note_on_c, 2, 83, 0
4, 100210, Note_on_c, 2, 81, 73
4, 100270, Note_on_c, 2, 81, 0
4, 100330, Note_on_c, 2, 91, 81
4, 100330, Note_on_c, 2, 86, 118
4, 100395, Note_on_c, 2, 86, 0
4, 100450, Note_on_c, 2, 86, 61
4, 100535, Note_on_c, 2, 86, 0
4, 100550, Note_on_c, 2, 91, 0
4, 100570, Note_on_c, 2, 88, 64
4, 100570, Note_on_c, 2, 83, 73
4, 100630, Note_on_c, 2, 83, 0
4, 100635, Note_on_c, 2, 88, 0
4, 100690, Note_on_c, 2, 91, 84
4, 100690, Note_on_c, 2, 86, 96
4, 100750, Note_on_c, 2, 86, 0
4, 100750, Note_on_c, 2, 91, 0
4, 114135, Note_on_c, 2, 69, 72
4, 114140, Note_on_c, 2, 60, 69
4, 114175, Note_on_c, 2, 70, 71
4, 114205, Note_on_c, 2, 61, 64
4, 114215, Note_on_c, 2, 60, 0
4, 114215, Note_on_c, 2, 62, 86
4, 114225, Note_on_c, 2, 69, 0
4, 114230, Note_on_c, 2, 71, 96
4, 114245, Note_on_c, 2, 61, 0
4, 114265, Note_on_c, 2, 70, 0
4, 114390, Note_on_c, 2, 62, 0
4, 114410, Note_on_c, 2, 71, 0
4, 114480, Note_on_c, 2, 71, 103
4, 114480, Note_on_c, 2, 62, 91
4, 114645, Note_on_c, 2, 71, 0
4, 114670, Note_on_c, 2, 62, 0
4, 115120, Note_on_c, 2, 86, 71
4, 115155, Note_on_c, 2, 81, 61
4, 115160, Note_on_c, 2, 87, 66
4, 115190, Note_on_c, 2, 82, 56
4, 115195, Note_on_c, 2, 88, 72
4, 115210, Note_on_c, 2, 91, 93
4, 115225, Note_on_c, 2, 81, 0
4, 115225, Note_on_c, 2, 83, 85
4, 115230, Note_on_c, 2, 82, 0
4, 115230, Note_on_c, 2, 87, 0
4, 115290, Note_on_c, 2, 88, 0
4, 115350, Note_on_c, 2, 91, 0
4, 115365, Note_on_c, 2, 83, 0
4, 115385, Note_on_c, 2, 86, 0
4, 115450, Note_on_c, 2, 86, 84
4, 115450, Note_on_c, 2, 91, 91
4, 115450, Note_on_c, 2, 83, 86
4, 115475, Note_on_c, 2, 88, 70
4, 115490, Note_on_c, 2, 88, 0
4, 115610, Note_on_c, 2, 86, 0
4, 115610, Note_on_c, 2, 91, 0
4, 115630, Note_on_c, 2, 83, 0
4, 116050, Note_on_c, 2, 74, 69
4, 116080, Note_on_c, 2, 75, 63
4, 116080, Note_on_c, 2, 69, 62
4, 116130, Note_on_c, 2, 70, 67
4, 116130, Note_on_c, 2, 76, 79
4, 116155, Note_on_c, 2, 75, 0
4, 116170, Note_on_c, 2, 69, 0
4, 116170, Note_on_c, 2, 71, 89
4, 116175, Note_on_c, 2, 79, 83
4, 116180, Note_on_c, 2, 70, 0
4, 116230, Note_on_c, 2, 76, 0
4, 116315, Note_on_c, 2, 79, 0
4, 116325, Note_on_c, 2, 74, 0
4, 116330, Note_on_c, 2, 71, 0
4, 116530, Note_on_c, 2, 79, 83
4, 116530, Note_on_c, 2, 71, 89
4, 116535, Note_on_c, 2, 76, 79
4, 116540, Note_on_c, 2, 74, 84
4, 116625, Note_on_c, 2, 74, 0
4, 116635, Note_on_c, 2, 76, 0
4, 116635, Note_on_c, 2, 79, 0
4, 116655, Note_on_c, 2, 71, 0
4, 117355, Note_on_c, 2, 72, 68
4, 117410, Note_on_c, 2, 72, 0
4, 117475, Note_on_c, 2, 76, 62
4, 117475, Note_on_c, 2, 78, 59
4, 117485, Note_on_c, 2, 72, 57
4, 117485, Note_on_c, 2, 66, 58
4, 117525, Note_on_c, 2, 76, 0
4, 117530, Note_on_c, 2, 78, 0
4, 117530, Note_on_c, 2, 66, 0
4, 117545, Note_on_c, 2, 72, 0
4, 117605, Note_on_c, 2, 78, 78
4, 117605, Note_on_c, 2, 76, 77
4, 117605, Note_on_c, 2, 66, 67
4, 117605, Note_on_c, 2, 62, 69
4, 117605, Note_on_c, 2, 72, 70
4, 117650, Note_on_c, 2, 62, 0
4, 117660, Note_on_c, 2, 66, 0
4, 117660, Note_on_c, 2, 78, 0
4, 117660, Note_on_c, 2, 76, 0
4, 117670, Note_on_c, 2, 72, 0
4, 117715, Note_on_c, 2, 78, 78
4, 117715, Note_on_c, 2, 76, 79
4, 117725, Note_on_c, 2, 66, 69
4, 117725, Note_on_c, 2, 72, 69
4, 117770, Note_on_c, 2, 72, 0
4, 117770, Note_on_c, 2, 78, 0
4, 117770, Note_on_c, 2, 76, 0
4, 117770, Note_on_c, 2, 66, 0
4, 117965, Note_on_c, 2, 62, 70
4, 117965, Note_on_c, 2, 72, 71
4, 117965, Note_on_c, 2, 66, 69
4, 118015, Note_on_c, 2, 66, 0
4, 118020, Note_on_c, 2, 62, 0
4, 118030, Note_on_c, 2, 72, 0
4, 118085, Note_on_c, 2, 78, 78
4, 118085, Note_on_c, 2, 76, 82
4, 118310, Note_on_c, 2, 76, 0
4, 118310, Note_on_c, 2, 78, 0
4, 118325, Note_on_c, 2, 72, 64
4, 118375, Note_on_c, 2, 72, 0
4, 118440, Note_on_c, 2, 72, 69
4, 118445, Note_on_c, 2, 66, 69
4, 118445, Note_on_c, 2, 78, 78
4, 118445, Note_on_c, 2, 76, 77
4, 118445, Note_on_c, 2, 62, 69
4, 118490, Note_on_c, 2, 62, 0
4, 118490, Note_on_c, 2, 76, 0
4, 118500, Note_on_c, 2, 78, 0
4, 118500, Note_on_c, 2, 66, 0
4, 118505, Note_on_c, 2, 72, 0
4, 119275, Note_on_c, 2, 62, 77
4, 119275, Note_on_c, 2, 76, 89
4, 119280, Note_on_c, 2, 72, 84
4, 119280, Note_on_c, 2, 78, 77
4, 119280, Note_on_c, 2, 66, 67
4, 119330, Note_on_c, 2, 78, 0
4, 119335, Note_on_c, 2, 76, 0
4, 119350, Note_on_c, 2, 66, 0
4, 119390, Note_on_c, 2, 62, 0
4, 119395, Note_on_c, 2, 76, 69
4, 119395, Note_on_c, 2, 78, 64
4, 119450, Note_on_c, 2, 78, 0
4, 119455, Note_on_c, 2, 76, 0
4, 119515, Note_on_c, 2, 76, 81
4, 119515, Note_on_c, 2, 78, 71
4, 119530, Note_on_c, 2, 72, 0
4, 119565, Note_on_c, 2, 78, 0
4, 119570, Note_on_c, 2, 76, 0
4, 119635, Note_on_c, 2, 62, 68
4, 119635, Note_on_c, 2, 76, 79
4, 119635, Note_on_c, 2, 78, 71
4, 119640, Note_on_c, 2, 66, 63
4, 119640, Note_on_c, 2, 72, 61
4, 119710, Note_on_c, 2, 76, 0
4, 119710, Note_on_c, 2, 62, 0
4, 119730, Note_on_c, 2, 66, 0
4, 119740, Note_on_c, 2, 72, 0
4, 119800, Note_on_c, 2, 78, 0
4, 119875, Note_on_c, 2, 62, 69
4, 119875, Note_on_c, 2, 66, 68
4, 119875, Note_on_c, 2, 72, 71
4, 119980, Note_on_c, 2, 72, 0
4, 119990, Note_on_c, 2, 66, 0
4, 119990, Note_on_c, 2, 62, 0
4, 120125, Note_on_c, 2, 62, 80
4, 120125, Note_on_c, 2, 66, 69
4, 120125, Note_on_c, 2, 72, 77
4, 120235, Note_on_c, 2, 62, 0
4, 120240, Note_on_c, 2, 66, 0
4, 120245, Note_on_c, 2, 78, 91
4, 120245, Note_on_c, 2, 76, 95
4, 120275, Note_on_c, 2, 72, 0
4, 120395, Note_on_c, 2, 76, 0
4, 120410, Note_on_c, 2, 78, 0
4, 120480, Note_on_c, 2, 76, 85
4, 120485, Note_on_c, 2, 78, 75
4, 120485, Note_on_c, 2, 62, 61
4, 120485, Note_on_c, 2, 72, 68
4, 120515, Note_on_c, 2, 62, 0
4, 120535, Note_on_c, 2, 72, 0
4, 120720, Note_on_c, 2, 66, 68
4, 120720, Note_on_c, 2, 62, 72
4, 120725, Note_on_c, 2, 72, 72
4, 120730, Note_on_c, 2, 76, 0
4, 120775, Note_on_c, 2, 62, 0
4, 120780, Note_on_c, 2, 66, 0
4, 120805, Note_on_c, 2, 78, 0
4, 120860, Note_on_c, 2, 72, 0
4, 120965, Note_on_c, 2, 67, 68
4, 121005, Note_on_c, 2, 67, 0
4, 121205, Note_on_c, 2, 79, 86
4, 121205, Note_on_c, 2, 67, 78
4, 121205, Note_on_c, 2, 76, 77
4, 121205, Note_on_c, 2, 74, 77
4, 121205, Note_on_c, 2, 71, 72
4, 121270, Note_on_c, 2, 71, 0
4, 121270, Note_on_c, 2, 74, 0
4, 121275, Note_on_c, 2, 76, 0
4, 121290, Note_on_c, 2, 67, 0
4, 121325, Note_on_c, 2, 67, 50
4, 121325, Note_on_c, 2, 76, 53
4, 121325, Note_on_c, 2, 74, 54
4, 121325, Note_on_c, 2, 71, 55
4, 121360, Note_on_c, 2, 71, 0
4, 121370, Note_on_c, 2, 74, 0
4, 121380, Note_on_c, 2, 67, 0
4, 121390, Note_on_c, 2, 76, 0
4, 121445, Note_on_c, 2, 76, 67
4, 121445, Note_on_c, 2, 67, 57
4, 121445, Note_on_c, 2, 74, 68
4, 121445, Note_on_c, 2, 71, 65
4, 121485, Note_on_c, 2, 74, 0
4, 121490, Note_on_c, 2, 71, 0
4, 121510, Note_on_c, 2, 67, 0
4, 121520, Note_on_c, 2, 76, 0
4, 121530, Note_on_c, 2, 79, 0
4, 121565, Note_on_c, 2, 79, 84
4, 121565, Note_on_c, 2, 76, 72
4, 121565, Note_on_c, 2, 67, 69
4, 121565, Note_on_c, 2, 71, 76
4, 121565, Note_on_c, 2, 74, 72
4, 121610, Note_on_c, 2, 74, 0
4, 121620, Note_on_c, 2, 71, 0
4, 121630, Note_on_c, 2, 67, 0
4, 121630, Note_on_c, 2, 76, 0
4, 121645, Note_on_c, 2, 79, 0
4, 122275, Note_on_c, 2, 79, 69
4, 122275, Note_on_c, 2, 76, 70
4, 122285, Note_on_c, 2, 67, 63
4, 122285, Note_on_c, 2, 71, 63
4, 122325, Note_on_c, 2, 71, 0
4, 122325, Note_on_c, 2, 67, 0
4, 122335, Note_on_c, 2, 79, 0
4, 122345, Note_on_c, 2, 76, 0
4, 122515, Note_on_c, 2, 67, 67
4, 122515, Note_on_c, 2, 79, 72
4, 122515, Note_on_c, 2, 76, 72
4, 122520, Note_on_c, 2, 74, 69
4, 122520, Note_on_c, 2, 71, 71
4, 122555, Note_on_c, 2, 74, 0
4, 122590, Note_on_c, 2, 79, 0
4, 122610, Note_on_c, 2, 76, 0
4, 122635, Note_on_c, 2, 79, 50
4, 122680, Note_on_c, 2, 79, 0
4, 122750, Note_on_c, 2, 67, 0
4, 122750, Note_on_c, 2, 71, 0
4, 122760, Note_on_c, 2, 74, 73
4, 122840, Note_on_c, 2, 74, 0
4, 122875, Note_on_c, 2, 83, 86
4, 122875, Note_on_c, 2, 79, 84
4, 122995, Note_on_c, 2, 71, 66
4, 122995, Note_on_c, 2, 76, 72
4, 123010, Note_on_c, 2, 79, 0
4, 123015, Note_on_c, 2, 83, 0
4, 123045, Note_on_c, 2, 71, 0
4, 123045, Note_on_c, 2, 76, 0
4, 123115, Note_on_c, 2, 84, 84
4, 123115, Note_on_c, 2, 81, 95
4, 123225, Note_on_c, 2, 81, 0
4, 123225, Note_on_c, 2, 84, 0
4, 123245, Note_on_c, 2, 74, 63
4, 123270, Note_on_c, 2, 74, 0
4, 123360, Note_on_c, 2, 85, 114
4, 123360, Note_on_c, 2, 82, 121
4, 123365, Note_on_c, 2, 79, 66
4, 123405, Note_on_c, 2, 79, 0
4, 123450, Note_on_c, 2, 82, 0
4, 123480, Note_on_c, 2, 85, 0
4, 123485, Note_on_c, 2, 86, 84
4, 123485, Note_on_c, 2, 83, 76
4, 123485, Note_on_c, 2, 79, 64
4, 123515, Note_on_c, 2, 79, 0
4, 123550, Note_on_c, 2, 83, 0
4, 123565, Note_on_c, 2, 86, 0
4, 123595, Note_on_c, 2, 76, 69
4, 123595, Note_on_c, 2, 67, 69
4, 123605, Note_on_c, 2, 71, 66
4, 123650, Note_on_c, 2, 71, 0
4, 123660, Note_on_c, 2, 67, 0
4, 123665, Note_on_c, 2, 76, 0
4, 123725, Note_on_c, 2, 79, 82
4, 123725, Note_on_c, 2, 91, 86
4, 123725, Note_on_c, 2, 83, 93
4, 123725, Note_on_c, 2, 74, 69
4, 123750, Note_on_c, 2, 83, 0
4, 123760, Note_on_c, 2, 74, 0
4, 123765, Note_on_c, 2, 79, 0
4, 123790, Note_on_c, 2, 91, 0
4, 123955, Note_on_c, 2, 91, 82
4, 123955, Note_on_c, 2, 79, 74
4, 123955, Note_on_c, 2, 76, 71
4, 123955, Note_on_c, 2, 71, 72
4, 123955, Note_on_c, 2, 83, 83
4, 124010, Note_on_c, 2, 83, 0
4, 124025, Note_on_c, 2, 79, 0
4, 124030, Note_on_c, 2, 76, 0
4, 124045, Note_on_c, 2, 71, 0
4, 124060, Note_on_c, 2, 91, 0
4, 124195, Note_on_c, 2, 88, 85
4, 124195, Note_on_c, 2, 83, 89
4, 124195, Note_on_c, 2, 74, 79
4, 124195, Note_on_c, 2, 79, 80
4, 124270, Note_on_c, 2, 74, 0
4, 124270, Note_on_c, 2, 83, 0
4, 124305, Note_on_c, 2, 88, 0
4, 124315, Note_on_c, 2, 86, 68
4, 124350, Note_on_c, 2, 79, 0
4, 124425, Note_on_c, 2, 86, 0
4, 124435, Note_on_c, 2, 79, 60
4, 124520, Note_on_c, 2, 79, 0
4, 124560, Note_on_c, 2, 76, 73
4, 124560, Note_on_c, 2, 83, 87
4, 124630, Note_on_c, 2, 76, 0
4, 124665, Note_on_c, 2, 83, 0
4, 124675, Note_on_c, 2, 79, 69
4, 124710, Note_on_c, 2, 79, 0
4, 124805, Note_on_c, 2, 72, 70
4, 124805, Note_on_c, 2, 66, 57
4, 124850, Note_on_c, 2, 66, 0
4, 124855, Note_on_c, 2, 72, 0
4, 125045, Note_on_c, 2, 78, 71
4, 125045, Note_on_c, 2, 62, 71
4, 125045, Note_on_c, 2, 72, 69
4, 125045, Note_on_c, 2, 66, 63
4, 125070, Note_on_c, 2, 66, 0
4, 125085, Note_on_c, 2, 62, 0
4, 125090, Note_on_c, 2, 78, 0
4, 125095, Note_on_c, 2, 72, 0
4, 125165, Note_on_c, 2, 78, 60
4, 125165, Note_on_c, 2, 72, 59
4, 125165, Note_on_c, 2, 62, 56
4, 125165, Note_on_c, 2, 66, 60
4, 125210, Note_on_c, 2, 66, 0
4, 125215, Note_on_c, 2, 72, 0
4, 125220, Note_on_c, 2, 78, 0
4, 125225, Note_on_c, 2, 62, 0
4, 125285, Note_on_c, 2, 78, 83
4, 125285, Note_on_c, 2, 76, 79
4, 125285, Note_on_c, 2, 62, 68
4, 125285, Note_on_c, 2, 72, 70
4, 125285, Note_on_c, 2, 66, 74
4, 125330, Note_on_c, 2, 66, 0
4, 125335, Note_on_c, 2, 62, 0
4, 125340, Note_on_c, 2, 76, 0
4, 125350, Note_on_c, 2, 78, 0
4, 125350, Note_on_c, 2, 72, 0
4, 125405, Note_on_c, 2, 78, 81
4, 125405, Note_on_c, 2, 76, 84
4, 125405, Note_on_c, 2, 72, 73
4, 125405, Note_on_c, 2, 62, 70
4, 125405, Note_on_c, 2, 66, 73
4, 125470, Note_on_c, 2, 66, 0
4, 125470, Note_on_c, 2, 76, 0
4, 125485, Note_on_c, 2, 62, 0
4, 125490, Note_on_c, 2, 78, 0
4, 125495, Note_on_c, 2, 72, 0
4, 125645, Note_on_c, 2, 66, 69
4, 125645, Note_on_c, 2, 62, 73
4, 125645, Note_on_c, 2, 72, 73
4, 125700, Note_on_c, 2, 62, 0
4, 125710, Note_on_c, 2, 72, 0
4, 125710, Note_on_c, 2, 66, 0
4, 125760, Note_on_c, 2, 78, 93
4, 125760, Note_on_c, 2, 76, 91
4, 125765, Note_on_c, 2, 72, 54
4, 125805, Note_on_c, 2, 72, 0
4, 125820, Note_on_c, 2, 76, 0
4, 125830, Note_on_c, 2, 78, 0
4, 125875, Note_on_c, 2, 78, 69
4, 125880, Note_on_c, 2, 76, 68
4, 125930, Note_on_c, 2, 76, 0
4, 125945, Note_on_c, 2, 78, 0
4, 125995, Note_on_c, 2, 76, 71
4, 125995, Note_on_c, 2, 78, 70
4, 126050, Note_on_c, 2, 78, 0
4, 126060, Note_on_c, 2, 76, 0
4, 126120, Note_on_c, 2, 62, 94
4, 126120, Note_on_c, 2, 78, 94
4, 126120, Note_on_c, 2, 76, 94
4, 126125, Note_on_c, 2, 72, 94
4, 126125, Note_on_c, 2, 66, 94
4, 126190, Note_on_c, 2, 76, 0
4, 126210, Note_on_c, 2, 78, 0
4, 126260, Note_on_c, 2, 66, 0
4, 126260, Note_on_c, 2, 62, 0
4, 126270, Note_on_c, 2, 72, 0
4, 126355, Note_on_c, 2, 62, 91
4, 126355, Note_on_c, 2, 66, 91
4, 126355, Note_on_c, 2, 72, 91
4, 126355, Note_on_c, 2, 78, 91
4, 126355, Note_on_c, 2, 76, 91
4, 126395, Note_on_c, 2, 76, 0
4, 126410, Note_on_c, 2, 78, 0
4, 126510, Note_on_c, 2, 72, 0
4, 126510, Note_on_c, 2, 66, 0
4, 126600, Note_on_c, 2, 66, 65
4, 126600, Note_on_c, 2, 72, 72
4, 126725, Note_on_c, 2, 78, 95
4, 126725, Note_on_c, 2, 76, 93
4, 126780, Note_on_c, 2, 76, 0
4, 126785, Note_on_c, 2, 78, 0
4, 126845, Note_on_c, 2, 78, 69
4, 126845, Note_on_c, 2, 76, 69
4, 126880, Note_on_c, 2, 76, 0
4, 126905, Note_on_c, 2, 78, 0
4, 126965, Note_on_c, 2, 78, 84
4, 126965, Note_on_c, 2, 76, 86
4, 127010, Note_on_c, 2, 76, 0
4, 127015, Note_on_c, 2, 66, 0
4, 127015, Note_on_c, 2, 78, 0
4, 127025, Note_on_c, 2, 72, 0
4, 127030, Note_on_c, 2, 62, 0
4, 127085, Note_on_c, 2, 78, 87
4, 127085, Note_on_c, 2, 76, 91
4, 127085, Note_on_c, 2, 72, 75
4, 127085, Note_on_c, 2, 62, 71
4, 127085, Note_on_c, 2, 66, 70
4, 127150, Note_on_c, 2, 76, 0
4, 127160, Note_on_c, 2, 78, 0
4, 127180, Note_on_c, 2, 62, 0
4, 127195, Note_on_c, 2, 72, 0
4, 127230, Note_on_c, 2, 66, 0
4, 127325, Note_on_c, 2, 78, 102
4, 127325, Note_on_c, 2, 76, 102
4, 127370, Note_on_c, 2, 76, 0
4, 127375, Note_on_c, 2, 78, 0
4, 127555, Note_on_c, 2, 66, 70
4, 127560, Note_on_c, 2, 62, 77
4, 127560, Note_on_c, 2, 72, 75
4, 127675, Note_on_c, 2, 78, 96
4, 127675, Note_on_c, 2, 76, 86
4, 127725, Note_on_c, 2, 76, 0
4, 127740, Note_on_c, 2, 78, 0
4, 127800, Note_on_c, 2, 78, 73
4, 127805, Note_on_c, 2, 76, 75
4, 127860, Note_on_c, 2, 76, 0
4, 127870, Note_on_c, 2, 78, 0
4, 127915, Note_on_c, 2, 62, 0
4, 127920, Note_on_c, 2, 78, 91
4, 127925, Note_on_c, 2, 76, 91
4, 127930, Note_on_c, 2, 66, 0
4, 127935, Note_on_c, 2, 72, 0
4, 127970, Note_on_c, 2, 78, 0
4, 127970, Note_on_c, 2, 76, 0
4, 128035, Note_on_c, 2, 66, 70
4, 128035, Note_on_c, 2, 62, 80
4, 128045, Note_on_c, 2, 72, 74
4, 128045, Note_on_c, 2, 78, 103
4, 128045, Note_on_c, 2, 76, 100
4, 128150, Note_on_c, 2, 76, 0
4, 128160, Note_on_c, 2, 78, 0
4, 128240, Note_on_c, 2, 72, 0
4, 128270, Note_on_c, 2, 66, 0
4, 128275, Note_on_c, 2, 62, 0
4, 128280, Note_on_c, 2, 76, 94
4, 128280, Note_on_c, 2, 78, 94
4, 128375, Note_on_c, 2, 76, 0
4, 128405, Note_on_c, 2, 72, 73
4, 128505, Note_on_c, 2, 78, 0
4, 128525, Note_on_c, 2, 76, 67
4, 128550, Note_on_c, 2, 76, 0
4, 128610, Note_on_c, 2, 72, 0
4, 128645, Note_on_c, 2, 67, 70
4, 128710, Note_on_c, 2, 67, 0
4, 128875, Note_on_c, 2, 79, 78
4, 128880, Note_on_c, 2, 71, 73
4, 128880, Note_on_c, 2, 67, 71
4, 128880, Note_on_c, 2, 76, 68
4, 128880, Note_on_c, 2, 74, 72
4, 128970, Note_on_c, 2, 79, 0
4, 129005, Note_on_c, 2, 71, 0
4, 129005, Note_on_c, 2, 74, 0
4, 129025, Note_on_c, 2, 67, 0
4, 129035, Note_on_c, 2, 76, 0
4, 129245, Note_on_c, 2, 79, 76
4, 129305, Note_on_c, 2, 79, 0
4, 129365, Note_on_c, 2, 71, 69
4, 129365, Note_on_c, 2, 76, 61
4, 129410, Note_on_c, 2, 71, 0
4, 129420, Note_on_c, 2, 76, 0
4, 129485, Note_on_c, 2, 74, 80
4, 129530, Note_on_c, 2, 74, 0
4, 129605, Note_on_c, 2, 83, 103
4, 129605, Note_on_c, 2, 79, 96
4, 129770, Note_on_c, 2, 83, 0
4, 129790, Note_on_c, 2, 79, 0
4, 129840, Note_on_c, 2, 84, 75
4, 129840, Note_on_c, 2, 71, 74
4, 129840, Note_on_c, 2, 76, 73
4, 129840, Note_on_c, 2, 81, 85
4, 129950, Note_on_c, 2, 81, 0
4, 129950, Note_on_c, 2, 84, 0
4, 129990, Note_on_c, 2, 71, 0
4, 130000, Note_on_c, 2, 76, 0
4, 130075, Note_on_c, 2, 85, 91
4, 130085, Note_on_c, 2, 82, 110
4, 130085, Note_on_c, 2, 79, 80
4, 130170, Note_on_c, 2, 82, 0
4, 130200, Note_on_c, 2, 85, 0
4, 130205, Note_on_c, 2, 86, 85
4, 130205, Note_on_c, 2, 83, 84
4, 130255, Note_on_c, 2, 83, 0
4, 130270, Note_on_c, 2, 79, 0
4, 130290, Note_on_c, 2, 86, 0
4, 130315, Note_on_c, 2, 76, 71
4, 130325, Note_on_c, 2, 71, 55
4, 130365, Note_on_c, 2, 71, 0
4, 130390, Note_on_c, 2, 76, 0
4, 130435, Note_on_c, 2, 79, 77
4, 130435, Note_on_c, 2, 91, 105
4, 130435, Note_on_c, 2, 83, 96
4, 130445, Note_on_c, 2, 74, 66
4, 130480, Note_on_c, 2, 74, 0
4, 130640, Note_on_c, 2, 91, 0
4, 130655, Note_on_c, 2, 83, 0
4, 130675, Note_on_c, 2, 91, 62
4, 130680, Note_on_c, 2, 79, 0
4, 130685, Note_on_c, 2, 83, 54
4, 130685, Note_on_c, 2, 79, 48
4, 130735, Note_on_c, 2, 91, 0
4, 130770, Note_on_c, 2, 83, 0
4, 130805, Note_on_c, 2, 91, 74
4, 130805, Note_on_c, 2, 83, 74
4, 130805, Note_on_c, 2, 67, 64
4, 130805, Note_on_c, 2, 76, 62
4, 130805, Note_on_c, 2, 71, 50
4, 130825, Note_on_c, 2, 79, 0
4, 130850, Note_on_c, 2, 83, 0
4, 130865, Note_on_c, 2, 91, 0
4, 130880, Note_on_c, 2, 71, 0
4, 130890, Note_on_c, 2, 67, 0
4, 130890, Note_on_c, 2, 76, 0
4, 131045, Note_on_c, 2, 79, 84
4, 131045, Note_on_c, 2, 88, 103
4, 131045, Note_on_c, 2, 83, 100
4, 131045, Note_on_c, 2, 74, 75
4, 131110, Note_on_c, 2, 74, 0
4, 131190, Note_on_c, 2, 83, 0
4, 131200, Note_on_c, 2, 79, 0
4, 131220, Note_on_c, 2, 88, 0
4, 131275, Note_on_c, 2, 71, 69
4, 131275, Note_on_c, 2, 86, 81
4, 131275, Note_on_c, 2, 79, 58
4, 131285, Note_on_c, 2, 76, 69
4, 131405, Note_on_c, 2, 74, 72
4, 131410, Note_on_c, 2, 86, 0
4, 131420, Note_on_c, 2, 76, 0
4, 131430, Note_on_c, 2, 74, 0
4, 131435, Note_on_c, 2, 71, 0
4, 131455, Note_on_c, 2, 79, 0
4, 131640, Note_on_c, 2, 79, 95
4, 131640, Note_on_c, 2, 86, 103
4, 131715, Note_on_c, 2, 86, 0
4, 131730, Note_on_c, 2, 79, 0
4, 131885, Note_on_c, 2, 86, 89
4, 131885, Note_on_c, 2, 79, 84
4, 131885, Note_on_c, 2, 71, 75
4, 131885, Note_on_c, 2, 76, 78
4, 131950, Note_on_c, 2, 79, 0
4, 131950, Note_on_c, 2, 86, 0
4, 131990, Note_on_c, 2, 76, 0
4, 132005, Note_on_c, 2, 71, 0
4, 132005, Note_on_c, 2, 83, 81
4, 132085, Note_on_c, 2, 83, 0
4, 132125, Note_on_c, 2, 81, 69
4, 132205, Note_on_c, 2, 81, 0
4, 132235, Note_on_c, 2, 79, 64
4, 132270, Note_on_c, 2, 79, 0
4, 132730, Note_on_c, 2, 83, 95
4, 132730, Note_on_c, 2, 75, 83
4, 132730, Note_on_c, 2, 81, 93
4, 132730, Note_on_c, 2, 78, 96
4, 132775, Note_on_c, 2, 83, 0
4, 132790, Note_on_c, 2, 78, 0
4, 132810, Note_on_c, 2, 81, 0
4, 132845, Note_on_c, 2, 83, 62
4, 132850, Note_on_c, 2, 81, 57
4, 132850, Note_on_c, 2, 78, 72
4, 132915, Note_on_c, 2, 78, 0
4, 132930, Note_on_c, 2, 81, 0
4, 132935, Note_on_c, 2, 83, 0
4, 132950, Note_on_c, 2, 75, 0
4, 132965, Note_on_c, 2, 69, 70
4, 132970, Note_on_c, 2, 71, 74
4, 133010, Note_on_c, 2, 71, 0
4, 133020, Note_on_c, 2, 69, 0
4, 133090, Note_on_c, 2, 75, 71
4, 133090, Note_on_c, 2, 81, 84
4, 133090, Note_on_c, 2, 83, 70
4, 133090, Note_on_c, 2, 78, 82
4, 133125, Note_on_c, 2, 83, 0
4, 133130, Note_on_c, 2, 75, 0
4, 133130, Note_on_c, 2, 81, 0
4, 133130, Note_on_c, 2, 78, 0
4, 133325, Note_on_c, 2, 71, 70
4, 133370, Note_on_c, 2, 71, 0
4, 133440, Note_on_c, 2, 81, 80
4, 133440, Note_on_c, 2, 75, 69
4, 133440, Note_on_c, 2, 78, 82
4, 133445, Note_on_c, 2, 83, 73
4, 133500, Note_on_c, 2, 83, 0
4, 133505, Note_on_c, 2, 78, 0
4, 133510, Note_on_c, 2, 81, 0
4, 133515, Note_on_c, 2, 75, 0
4, 133555, Note_on_c, 2, 75, 57
4, 133555, Note_on_c, 2, 83, 49
4, 133565, Note_on_c, 2, 78, 73
4, 133630, Note_on_c, 2, 78, 0
4, 133645, Note_on_c, 2, 75, 0
4, 133660, Note_on_c, 2, 83, 0
4, 133685, Note_on_c, 2, 71, 76
4, 133690, Note_on_c, 2, 69, 60
4, 133730, Note_on_c, 2, 69, 0
4, 133750, Note_on_c, 2, 71, 0
4, 133810, Note_on_c, 2, 83, 75
4, 133810, Note_on_c, 2, 78, 84
4, 133810, Note_on_c, 2, 75, 70
4, 133810, Note_on_c, 2, 81, 75
4, 133840, Note_on_c, 2, 81, 0
4, 133850, Note_on_c, 2, 83, 0
4, 133850, Note_on_c, 2, 78, 0
4, 133855, Note_on_c, 2, 75, 0
4, 134040, Note_on_c, 2, 75, 70
4, 134045, Note_on_c, 2, 78, 83
4, 134045, Note_on_c, 2, 81, 75
4, 134085, Note_on_c, 2, 78, 0
4, 134090, Note_on_c, 2, 81, 0
4, 134090, Note_on_c, 2, 75, 0
4, 134285, Note_on_c, 2, 75, 70
4, 134315, Note_on_c, 2, 75, 0
4, 134395, Note_on_c, 2, 69, 74
4, 134605, Note_on_c, 2, 69, 0
4, 134640, Note_on_c, 2, 75, 79
4, 134640, Note_on_c, 2, 81, 93
4, 134640, Note_on_c, 2, 78, 86
4, 134645, Note_on_c, 2, 83, 83
4, 134680, Note_on_c, 2, 83, 0
4, 134680, Note_on_c, 2, 78, 0
4, 134680, Note_on_c, 2, 75, 0
4, 134685, Note_on_c, 2, 81, 0
4, 134885, Note_on_c, 2, 71, 69
4, 134905, Note_on_c, 2, 71, 0
4, 135000, Note_on_c, 2, 75, 77
4, 135000, Note_on_c, 2, 81, 91
4, 135005, Note_on_c, 2, 78, 83
4, 135005, Note_on_c, 2, 83, 69
4, 135025, Note_on_c, 2, 83, 0
4, 135040, Note_on_c, 2, 75, 0
4, 135050, Note_on_c, 2, 78, 0
4, 135050, Note_on_c, 2, 81, 0
4, 135245, Note_on_c, 2, 69, 69
4, 135245, Note_on_c, 2, 71, 73
4, 135275, Note_on_c, 2, 69, 0
4, 135290, Note_on_c, 2, 71, 0
4, 135360, Note_on_c, 2, 83, 85
4, 135365, Note_on_c, 2, 75, 74
4, 135365, Note_on_c, 2, 78, 83
4, 135365, Note_on_c, 2, 81, 86
4, 135410, Note_on_c, 2, 78, 0
4, 135410, Note_on_c, 2, 75, 0
4, 135420, Note_on_c, 2, 83, 0
4, 135420, Note_on_c, 2, 81, 0
4, 135475, Note_on_c, 2, 75, 68
4, 135475, Note_on_c, 2, 78, 79
4, 135485, Note_on_c, 2, 81, 70
4, 135535, Note_on_c, 2, 78, 0
4, 135560, Note_on_c, 2, 81, 0
4, 135570, Note_on_c, 2, 75, 0
4, 135590, Note_on_c, 2, 69, 71
4, 135595, Note_on_c, 2, 71, 70
4, 135640, Note_on_c, 2, 71, 0
4, 135640, Note_on_c, 2, 69, 0
4, 135710, Note_on_c, 2, 75, 73
4, 135715, Note_on_c, 2, 81, 78
4, 135715, Note_on_c, 2, 78, 80
4, 135755, Note_on_c, 2, 78, 0
4, 135765, Note_on_c, 2, 81, 0
4, 135770, Note_on_c, 2, 75, 0
4, 135955, Note_on_c, 2, 75, 74
4, 135955, Note_on_c, 2, 78, 86
4, 135955, Note_on_c, 2, 81, 84
4, 136005, Note_on_c, 2, 78, 0
4, 136010, Note_on_c, 2, 81, 0
4, 136025, Note_on_c, 2, 75, 0
4, 136070, Note_on_c, 2, 69, 69
4, 136115, Note_on_c, 2, 69, 0
4, 136195, Note_on_c, 2, 75, 70
4, 136235, Note_on_c, 2, 75, 0
4, 136315, Note_on_c, 2, 64, 70
4, 136460, Note_on_c, 2, 64, 0
4, 136565, Note_on_c, 2, 80, 78
4, 136565, Note_on_c, 2, 83, 86
4, 136565, Note_on_c, 2, 74, 83
4, 136565, Note_on_c, 2, 76, 93
4, 136620, Note_on_c, 2, 76, 0
4, 136625, Note_on_c, 2, 83, 0
4, 136650, Note_on_c, 2, 74, 0
4, 136650, Note_on_c, 2, 80, 0
4, 136800, Note_on_c, 2, 64, 74
4, 136805, Note_on_c, 2, 71, 76
4, 136830, Note_on_c, 2, 71, 0
4, 136850, Note_on_c, 2, 64, 0
4, 136925, Note_on_c, 2, 80, 72
4, 136925, Note_on_c, 2, 76, 82
4, 136925, Note_on_c, 2, 74, 75
4, 136925, Note_on_c, 2, 83, 66
4, 136935, Note_on_c, 2, 83, 0
4, 136960, Note_on_c, 2, 74, 0
4, 136960, Note_on_c, 2, 76, 0
4, 136970, Note_on_c, 2, 80, 0
4, 137165, Note_on_c, 2, 71, 70
4, 137195, Note_on_c, 2, 71, 0
4, 137275, Note_on_c, 2, 80, 91
4, 137275, Note_on_c, 2, 83, 84
4, 137275, Note_on_c, 2, 76, 91
4, 137285, Note_on_c, 2, 74, 89
4, 137315, Note_on_c, 2, 76, 0
4, 137330, Note_on_c, 2, 74, 0
4, 137330, Note_on_c, 2, 80, 0
4, 137335, Note_on_c, 2, 83, 0
4, 137395, Note_on_c, 2, 80, 63
4, 137395, Note_on_c, 2, 83, 60
4, 137395, Note_on_c, 2, 74, 58
4, 137400, Note_on_c, 2, 76, 68
4, 137440, Note_on_c, 2, 76, 0
4, 137445, Note_on_c, 2, 83, 0
4, 137450, Note_on_c, 2, 74, 0
4, 137480, Note_on_c, 2, 80, 0
4, 137525, Note_on_c, 2, 64, 69
4, 137525, Note_on_c, 2, 71, 63
4, 137570, Note_on_c, 2, 71, 0
4, 137585, Note_on_c, 2, 64, 0
4, 137645, Note_on_c, 2, 83, 76
4, 137645, Note_on_c, 2, 80, 76
4, 137645, Note_on_c, 2, 74, 84
4, 137645, Note_on_c, 2, 76, 84
4, 137670, Note_on_c, 2, 76, 0
4, 137675, Note_on_c, 2, 74, 0
4, 137675, Note_on_c, 2, 83, 0
4, 137685, Note_on_c, 2, 80, 0
4, 137880, Note_on_c, 2, 80, 82
4, 137880, Note_on_c, 2, 76, 87
4, 137885, Note_on_c, 2, 74, 85
4, 137885, Note_on_c, 2, 83, 64
4, 137910, Note_on_c, 2, 83, 0
4, 137910, Note_on_c, 2, 74, 0
4, 137910, Note_on_c, 2, 76, 0
4, 137915, Note_on_c, 2, 80, 0
4, 138125, Note_on_c, 2, 74, 72
4, 138150, Note_on_c, 2, 74, 0
4, 138245, Note_on_c, 2, 64, 73
4, 138245, Note_on_c, 2, 71, 73
4, 138420, Note_on_c, 2, 64, 0
4, 138430, Note_on_c, 2, 71, 0
4, 138480, Note_on_c, 2, 80, 100
4, 138480, Note_on_c, 2, 74, 96
4, 138480, Note_on_c, 2, 76, 96
4, 138480, Note_on_c, 2, 83, 74
4, 138510, Note_on_c, 2, 83, 0
4, 138510, Note_on_c, 2, 76, 0
4, 138520, Note_on_c, 2, 74, 0
4, 138520, Note_on_c, 2, 80, 0
4, 138715, Note_on_c, 2, 64, 73
4, 138720, Note_on_c, 2, 71, 74
4, 138750, Note_on_c, 2, 71, 0
4, 138765, Note_on_c, 2, 64, 0
4, 138835, Note_on_c, 2, 74, 86
4, 138835, Note_on_c, 2, 80, 96
4, 138835, Note_on_c, 2, 76, 93
4, 138835, Note_on_c, 2, 83, 75
4, 138865, Note_on_c, 2, 83, 0
4, 138865, Note_on_c, 2, 76, 0
4, 138870, Note_on_c, 2, 80, 0
4, 138870, Note_on_c, 2, 74, 0
4, 139075, Note_on_c, 2, 71, 80
4, 139110, Note_on_c, 2, 71, 0
4, 139195, Note_on_c, 2, 83, 77
4, 139195, Note_on_c, 2, 80, 93
4, 139195, Note_on_c, 2, 76, 93
4, 139195, Note_on_c, 2, 74, 78
4, 139230, Note_on_c, 2, 76, 0
4, 139240, Note_on_c, 2, 74, 0
4, 139245, Note_on_c, 2, 80, 0
4, 139245, Note_on_c, 2, 83, 0
4, 139315, Note_on_c, 2, 74, 69
4, 139315, Note_on_c, 2, 80, 68
4, 139315, Note_on_c, 2, 76, 64
4, 139315, Note_on_c, 2, 83, 59
4, 139345, Note_on_c, 2, 76, 0
4, 139355, Note_on_c, 2, 83, 0
4, 139365, Note_on_c, 2, 80, 0
4, 139385, Note_on_c, 2, 74, 0
4, 139435, Note_on_c, 2, 64, 70
4, 139435, Note_on_c, 2, 71, 68
4, 139465, Note_on_c, 2, 71, 0
4, 139480, Note_on_c, 2, 64, 0
4, 139555, Note_on_c, 2, 80, 84
4, 139555, Note_on_c, 2, 74, 78
4, 139555, Note_on_c, 2, 76, 78
4, 139555, Note_on_c, 2, 83, 70
4, 139575, Note_on_c, 2, 83, 0
4, 139590, Note_on_c, 2, 76, 0
4, 139590, Note_on_c, 2, 74, 0
4, 139595, Note_on_c, 2, 80, 0
4, 139795, Note_on_c, 2, 80, 108
4, 139795, Note_on_c, 2, 74, 84
4, 139795, Note_on_c, 2, 76, 89
4, 139800, Note_on_c, 2, 83, 71
4, 139825, Note_on_c, 2, 76, 0
4, 139830, Note_on_c, 2, 83, 0
4, 139835, Note_on_c, 2, 74, 0
4, 139835, Note_on_c, 2, 80, 0
4, 139915, Note_on_c, 2, 71, 71
4, 139945, Note_on_c, 2, 71, 0
4, 140155, Note_on_c, 2, 62, 77
4, 140285, Note_on_c, 2, 62, 0
4, 140405, Note_on_c, 2, 72, 85
4, 140405, Note_on_c, 2, 81, 81
4, 140410, Note_on_c, 2, 78, 108
4, 140445, Note_on_c, 2, 72, 0
4, 140450, Note_on_c, 2, 78, 0
4, 140450, Note_on_c, 2, 81, 0
4, 140645, Note_on_c, 2, 69, 68
4, 140670, Note_on_c, 2, 69, 0
4, 140765, Note_on_c, 2, 81, 74
4, 140765, Note_on_c, 2, 78, 95
4, 140765, Note_on_c, 2, 72, 77
4, 140805, Note_on_c, 2, 72, 0
4, 140805, Note_on_c, 2, 78, 0
4, 140805, Note_on_c, 2, 81, 0
4, 141005, Note_on_c, 2, 69, 71
4, 141050, Note_on_c, 2, 69, 0
4, 141125, Note_on_c, 2, 81, 82
4, 141125, Note_on_c, 2, 78, 105
4, 141125, Note_on_c, 2, 74, 97
4, 141125, Note_on_c, 2, 72, 81
4, 141170, Note_on_c, 2, 74, 0
4, 141170, Note_on_c, 2, 78, 0
4, 141180, Note_on_c, 2, 72, 0
4, 141190, Note_on_c, 2, 81, 0
4, 141240, Note_on_c, 2, 78, 65
4, 141240, Note_on_c, 2, 72, 54
4, 141245, Note_on_c, 2, 74, 62
4, 141245, Note_on_c, 2, 81, 53
4, 141275, Note_on_c, 2, 74, 0
4, 141285, Note_on_c, 2, 81, 0
4, 141295, Note_on_c, 2, 72, 0
4, 141295, Note_on_c, 2, 78, 0
4, 141355, Note_on_c, 2, 62, 69
4, 141355, Note_on_c, 2, 69, 70
4, 141470, Note_on_c, 2, 69, 0
4, 141480, Note_on_c, 2, 62, 0
4, 141485, Note_on_c, 2, 78, 110
4, 141485, Note_on_c, 2, 81, 75
4, 141485, Note_on_c, 2, 74, 91
4, 141485, Note_on_c, 2, 72, 80
4, 141520, Note_on_c, 2, 74, 0
4, 141525, Note_on_c, 2, 78, 0
4, 141525, Note_on_c, 2, 81, 0
4, 141525, Note_on_c, 2, 72, 0
4, 141725, Note_on_c, 2, 78, 87
4, 141725, Note_on_c, 2, 81, 69
4, 141725, Note_on_c, 2, 72, 79
4, 141725, Note_on_c, 2, 74, 82
4, 141750, Note_on_c, 2, 74, 0
4, 141760, Note_on_c, 2, 72, 0
4, 141760, Note_on_c, 2, 81, 0
4, 141765, Note_on_c, 2, 78, 0
4, 142075, Note_on_c, 2, 62, 84
4, 142270, Note_on_c, 2, 62, 0
4, 142325, Note_on_c, 2, 72, 91
4, 142325, Note_on_c, 2, 74, 100
4, 142325, Note_on_c, 2, 81, 77
4, 142325, Note_on_c, 2, 78, 108
4, 142360, Note_on_c, 2, 74, 0
4, 142365, Note_on_c, 2, 72, 0
4, 142365, Note_on_c, 2, 81, 0
4, 142365, Note_on_c, 2, 78, 0
4, 142555, Note_on_c, 2, 69, 77
4, 142600, Note_on_c, 2, 69, 0
4, 142675, Note_on_c, 2, 72, 80
4, 142675, Note_on_c, 2, 78, 68
4, 142675, Note_on_c, 2, 74, 71
4, 142695, Note_on_c, 2, 74, 0
4, 142705, Note_on_c, 2, 78, 0
4, 142710, Note_on_c, 2, 72, 0
4, 142925, Note_on_c, 2, 69, 77
4, 142965, Note_on_c, 2, 69, 0
4, 143035, Note_on_c, 2, 78, 118
4, 143035, Note_on_c, 2, 81, 84
4, 143035, Note_on_c, 2, 74, 100
4, 143035, Note_on_c, 2, 72, 83
4, 143085, Note_on_c, 2, 74, 0
4, 143085, Note_on_c, 2, 78, 0
4, 143090, Note_on_c, 2, 81, 0
4, 143100, Note_on_c, 2, 72, 0
4, 143160, Note_on_c, 2, 72, 50
4, 143190, Note_on_c, 2, 72, 0
4, 143275, Note_on_c, 2, 69, 72
4, 143325, Note_on_c, 2, 69, 0
4, 143395, Note_on_c, 2, 78, 93
4, 143395, Note_on_c, 2, 72, 74
4, 143395, Note_on_c, 2, 81, 71
4, 143405, Note_on_c, 2, 74, 82
4, 143435, Note_on_c, 2, 74, 0
4, 143445, Note_on_c, 2, 78, 0
4, 143445, Note_on_c, 2, 72, 0
4, 143445, Note_on_c, 2, 81, 0
4, 143640, Note_on_c, 2, 81, 75
4, 143645, Note_on_c, 2, 72, 84
4, 143645, Note_on_c, 2, 78, 93
4, 143645, Note_on_c, 2, 74, 89
4, 143690, Note_on_c, 2, 74, 0
4, 143705, Note_on_c, 2, 72, 0
4, 143720, Note_on_c, 2, 78, 0
4, 143725, Note_on_c, 2, 81, 0
4, 143755, Note_on_c, 2, 69, 71
4, 143820, Note_on_c, 2, 69, 0
4, 143875, Note_on_c, 2, 72, 58
4, 143925, Note_on_c, 2, 72, 0
4, 143995, Note_on_c, 2, 67, 75
4, 144090, Note_on_c, 2, 67, 0
4, 144240, Note_on_c, 2, 91, 103
4, 144240, Note_on_c, 2, 86, 122
4, 144295, Note_on_c, 2, 86, 0
4, 144315, Note_on_c, 2, 91, 0
4, 144485, Note_on_c, 2, 71, 72
4, 144525, Note_on_c, 2, 71, 0
4, 144605, Note_on_c, 2, 83, 95
4, 144605, Note_on_c, 2, 88, 108
4, 144660, Note_on_c, 2, 88, 0
4, 144700, Note_on_c, 2, 83, 0
4, 144845, Note_on_c, 2, 71, 75
4, 144870, Note_on_c, 2, 71, 0
4, 144955, Note_on_c, 2, 86, 85
4, 144960, Note_on_c, 2, 83, 105
4, 145020, Note_on_c, 2, 83, 0
4, 145040, Note_on_c, 2, 86, 0
4, 145075, Note_on_c, 2, 86, 68
4, 145085, Note_on_c, 2, 83, 72
4, 145155, Note_on_c, 2, 83, 0
4, 145195, Note_on_c, 2, 81, 69
4, 145250, Note_on_c, 2, 86, 0
4, 145285, Note_on_c, 2, 81, 0
4, 145315, Note_on_c, 2, 79, 69
4, 145455, Note_on_c, 2, 79, 0
4, 145675, Note_on_c, 2, 76, 79
4, 145790, Note_on_c, 2, 76, 0
4, 145805, Note_on_c, 2, 74, 64
4, 145845, Note_on_c, 2, 74, 0
4, 145915, Note_on_c, 2, 67, 69
4, 145990, Note_on_c, 2, 67, 0
4, 146155, Note_on_c, 2, 74, 97
4, 146155, Note_on_c, 2, 69, 91
4, 146155, Note_on_c, 2, 71, 91
4, 146205, Note_on_c, 2, 71, 0
4, 146210, Note_on_c, 2, 74, 0
4, 146215, Note_on_c, 2, 69, 0
4, 146395, Note_on_c, 2, 62, 69
4, 146430, Note_on_c, 2, 62, 0
4, 146525, Note_on_c, 2, 67, 73
4, 146525, Note_on_c, 2, 74, 74
4, 146525, Note_on_c, 2, 71, 77
4, 146560, Note_on_c, 2, 71, 0
4, 146570, Note_on_c, 2, 74, 0
4, 146580, Note_on_c, 2, 67, 0
4, 146765, Note_on_c, 2, 62, 69
4, 146790, Note_on_c, 2, 62, 0
4, 146875, Note_on_c, 2, 74, 83
4, 146875, Note_on_c, 2, 67, 86
4, 146875, Note_on_c, 2, 71, 93
4, 146925, Note_on_c, 2, 71, 0
4, 146930, Note_on_c, 2, 74, 0
4, 146935, Note_on_c, 2, 67, 0
4, 146995, Note_on_c, 2, 74, 66
4, 147000, Note_on_c, 2, 67, 68
4, 147050, Note_on_c, 2, 74, 0
4, 147060, Note_on_c, 2, 67, 0
4, 147115, Note_on_c, 2, 62, 67
4, 147140, Note_on_c, 2, 62, 0
4, 147245, Note_on_c, 2, 74, 73
4, 147245, Note_on_c, 2, 67, 73
4, 147245, Note_on_c, 2, 71, 68
4, 147265, Note_on_c, 2, 71, 0
4, 147280, Note_on_c, 2, 67, 0
4, 147290, Note_on_c, 2, 74, 0
4, 147355, Note_on_c, 2, 62, 69
4, 147375, Note_on_c, 2, 62, 0
4, 147475, Note_on_c, 2, 74, 69
4, 147475, Note_on_c, 2, 67, 74
4, 147485, Note_on_c, 2, 71, 71
4, 147510, Note_on_c, 2, 71, 0
4, 147515, Note_on_c, 2, 74, 0
4, 147525, Note_on_c, 2, 67, 0
4, 148805, Note_on_c, 2, 78, 77
4, 148805, Note_on_c, 2, 83, 86
4, 148805, Note_on_c, 2, 75, 76
4, 148910, Note_on_c, 2, 75, 0
4, 148910, Note_on_c, 2, 78, 0
4, 148920, Note_on_c, 2, 83, 0
4, 149040, Note_on_c, 2, 59, 69
4, 149040, Note_on_c, 2, 69, 69
4, 149090, Note_on_c, 2, 59, 0
4, 149110, Note_on_c, 2, 69, 0
4, 149165, Note_on_c, 2, 78, 77
4, 149165, Note_on_c, 2, 83, 74
4, 149165, Note_on_c, 2, 75, 71
4, 149165, Note_on_c, 2, 81, 75
4, 149200, Note_on_c, 2, 81, 0
4, 149205, Note_on_c, 2, 75, 0
4, 149205, Note_on_c, 2, 83, 0
4, 149210, Note_on_c, 2, 78, 0
4, 149405, Note_on_c, 2, 78, 74
4, 149405, Note_on_c, 2, 75, 68
4, 149405, Note_on_c, 2, 81, 77
4, 149405, Note_on_c, 2, 83, 60
4, 149430, Note_on_c, 2, 83, 0
4, 149445, Note_on_c, 2, 81, 0
4, 149450, Note_on_c, 2, 75, 0
4, 149450, Note_on_c, 2, 78, 0
4, 149525, Note_on_c, 2, 69, 69
4, 149570, Note_on_c, 2, 69, 0
4, 149640, Note_on_c, 2, 71, 69
4, 149700, Note_on_c, 2, 71, 0
4, 149755, Note_on_c, 2, 69, 77
4, 149765, Note_on_c, 2, 59, 74
4, 149940, Note_on_c, 2, 59, 0
4, 149980, Note_on_c, 2, 69, 0
4, 150000, Note_on_c, 2, 71, 77
4, 150005, Note_on_c, 2, 78, 74
4, 150005, Note_on_c, 2, 75, 72
4, 150005, Note_on_c, 2, 81, 73
4, 150005, Note_on_c, 2, 83, 54
4, 150030, Note_on_c, 2, 75, 0
4, 150035, Note_on_c, 2, 78, 0
4, 150040, Note_on_c, 2, 83, 0
4, 150040, Note_on_c, 2, 71, 0
4, 150045, Note_on_c, 2, 81, 0
4, 150235, Note_on_c, 2, 66, 68
4, 150245, Note_on_c, 2, 69, 68
4, 150270, Note_on_c, 2, 66, 0
4, 150280, Note_on_c, 2, 69, 0
4, 150360, Note_on_c, 2, 78, 70
4, 150360, Note_on_c, 2, 75, 68
4, 150360, Note_on_c, 2, 71, 70
4, 150365, Note_on_c, 2, 81, 69
4, 150390, Note_on_c, 2, 81, 0
4, 150390, Note_on_c, 2, 78, 0
4, 150390, Note_on_c, 2, 75, 0
4, 150410, Note_on_c, 2, 71, 0
4, 150605, Note_on_c, 2, 69, 74
4, 150605, Note_on_c, 2, 66, 59
4, 150625, Note_on_c, 2, 66, 0
4, 150650, Note_on_c, 2, 69, 0
4, 150715, Note_on_c, 2, 83, 74
4, 150715, Note_on_c, 2, 81, 81
4, 150720, Note_on_c, 2, 75, 74
4, 150720, Note_on_c, 2, 78, 73
4, 150720, Note_on_c, 2, 71, 75
4, 150775, Note_on_c, 2, 78, 0
4, 150775, Note_on_c, 2, 75, 0
4, 150785, Note_on_c, 2, 81, 0
4, 150790, Note_on_c, 2, 83, 0
4, 150790, Note_on_c, 2, 71, 0
4, 150845, Note_on_c, 2, 75, 68
4, 150845, Note_on_c, 2, 81, 68
4, 150845, Note_on_c, 2, 71, 67
4, 150845, Note_on_c, 2, 78, 68
4, 150845, Note_on_c, 2, 83, 51
4, 150895, Note_on_c, 2, 78, 0
4, 150905, Note_on_c, 2, 75, 0
4, 150910, Note_on_c, 2, 83, 0
4, 150915, Note_on_c, 2, 71, 0
4, 150915, Note_on_c, 2, 81, 0
4, 150955, Note_on_c, 2, 69, 70
4, 150955, Note_on_c, 2, 59, 71
4, 151020, Note_on_c, 2, 59, 0
4, 151030, Note_on_c, 2, 69, 0
4, 151075, Note_on_c, 2, 75, 68
4, 151075, Note_on_c, 2, 71, 62
4, 151075, Note_on_c, 2, 81, 68
4, 151075, Note_on_c, 2, 83, 54
4, 151110, Note_on_c, 2, 81, 0
4, 151125, Note_on_c, 2, 83, 0
4, 151125, Note_on_c, 2, 75, 0
4, 151130, Note_on_c, 2, 71, 0
4, 151195, Note_on_c, 2, 69, 64
4, 151225, Note_on_c, 2, 69, 0
4, 151325, Note_on_c, 2, 71, 64
4, 151370, Note_on_c, 2, 71, 0
4, 151555, Note_on_c, 2, 71, 68
4, 151585, Note_on_c, 2, 71, 0
4, 151675, Note_on_c, 2, 64, 78
4, 151890, Note_on_c, 2, 64, 0
4, 151925, Note_on_c, 2, 80, 89
4, 151925, Note_on_c, 2, 74, 89
4, 151925, Note_on_c, 2, 76, 89
4, 151925, Note_on_c, 2, 83, 89
4, 151950, Note_on_c, 2, 76, 0
4, 151955, Note_on_c, 2, 83, 0
4, 151965, Note_on_c, 2, 74, 0
4, 151965, Note_on_c, 2, 80, 0
4, 152165, Note_on_c, 2, 64, 67
4, 152190, Note_on_c, 2, 64, 0
4, 152275, Note_on_c, 2, 80, 93
4, 152285, Note_on_c, 2, 74, 81
4, 152285, Note_on_c, 2, 83, 72
4, 152285, Note_on_c, 2, 76, 83
4, 152310, Note_on_c, 2, 76, 0
4, 152310, Note_on_c, 2, 83, 0
4, 152320, Note_on_c, 2, 74, 0
4, 152320, Note_on_c, 2, 80, 0
4, 152525, Note_on_c, 2, 64, 78
4, 152565, Note_on_c, 2, 64, 0
4, 152635, Note_on_c, 2, 80, 96
4, 152635, Note_on_c, 2, 83, 77
4, 152635, Note_on_c, 2, 76, 91
4, 152635, Note_on_c, 2, 74, 81
4, 152685, Note_on_c, 2, 76, 0
4, 152690, Note_on_c, 2, 80, 0
4, 152690, Note_on_c, 2, 83, 0
4, 152700, Note_on_c, 2, 74, 0
4, 152755, Note_on_c, 2, 74, 54
4, 152755, Note_on_c, 2, 76, 66
4, 152760, Note_on_c, 2, 80, 65
4, 152800, Note_on_c, 2, 76, 0
4, 152810, Note_on_c, 2, 80, 0
4, 152810, Note_on_c, 2, 74, 0
4, 152875, Note_on_c, 2, 64, 66
4, 152930, Note_on_c, 2, 64, 0
4, 153005, Note_on_c, 2, 80, 96
4, 153005, Note_on_c, 2, 74, 86
4, 153005, Note_on_c, 2, 76, 85
4, 153005, Note_on_c, 2, 83, 73
4, 153025, Note_on_c, 2, 76, 0
4, 153030, Note_on_c, 2, 83, 0
4, 153035, Note_on_c, 2, 80, 0
4, 153040, Note_on_c, 2, 74, 0
4, 153245, Note_on_c, 2, 80, 81
4, 153245, Note_on_c, 2, 74, 76
4, 153245, Note_on_c, 2, 76, 73
4, 153270, Note_on_c, 2, 76, 0
4, 153270, Note_on_c, 2, 74, 0
4, 153270, Note_on_c, 2, 80, 0
4, 153355, Note_on_c, 2, 64, 66
4, 153355, Note_on_c, 2, 71, 68
4, 153390, Note_on_c, 2, 71, 0
4, 153395, Note_on_c, 2, 64, 0
4, 153595, Note_on_c, 2, 64, 71
4, 153605, Note_on_c, 2, 71, 73
4, 153815, Note_on_c, 2, 71, 0
4, 153835, Note_on_c, 2, 64, 0
4, 153835, Note_on_c, 2, 80, 97
4, 153835, Note_on_c, 2, 74, 97
4, 153835, Note_on_c, 2, 83, 97
4, 153835, Note_on_c, 2, 76, 97
4, 153870, Note_on_c, 2, 76, 0
4, 153875, Note_on_c, 2, 80, 0
4, 153875, Note_on_c, 2, 74, 0
4, 153875, Note_on_c, 2, 83, 0
4, 154075, Note_on_c, 2, 64, 71
4, 154080, Note_on_c, 2, 68, 70
4, 154080, Note_on_c, 2, 71, 73
4, 154160, Note_on_c, 2, 71, 0
4, 154195, Note_on_c, 2, 68, 0
4, 154195, Note_on_c, 2, 80, 96
4, 154200, Note_on_c, 2, 83, 73
4, 154200, Note_on_c, 2, 76, 85
4, 154200, Note_on_c, 2, 74, 82
4, 154230, Note_on_c, 2, 76, 0
4, 154235, Note_on_c, 2, 83, 0
4, 154235, Note_on_c, 2, 74, 0
4, 154235, Note_on_c, 2, 80, 0
4, 154315, Note_on_c, 2, 64, 0
4, 154440, Note_on_c, 2, 71, 83
4, 154470, Note_on_c, 2, 71, 0
4, 154565, Note_on_c, 2, 80, 89
4, 154565, Note_on_c, 2, 83, 81
4, 154565, Note_on_c, 2, 76, 86
4, 154565, Note_on_c, 2, 74, 84
4, 154600, Note_on_c, 2, 76, 0
4, 154610, Note_on_c, 2, 74, 0
4, 154610, Note_on_c, 2, 80, 0
4, 154625, Note_on_c, 2, 83, 0
4, 154675, Note_on_c, 2, 80, 61
4, 154730, Note_on_c, 2, 80, 0
4, 154795, Note_on_c, 2, 71, 69
4, 154845, Note_on_c, 2, 71, 0
4, 154925, Note_on_c, 2, 80, 83
4, 154925, Note_on_c, 2, 74, 83
4, 154925, Note_on_c, 2, 76, 80
4, 154925, Note_on_c, 2, 83, 70
4, 154945, Note_on_c, 2, 83, 0
4, 154950, Note_on_c, 2, 76, 0
4, 154960, Note_on_c, 2, 80, 0
4, 154970, Note_on_c, 2, 74, 0
4, 155165, Note_on_c, 2, 80, 82
4, 155165, Note_on_c, 2, 74, 75
4, 155165, Note_on_c, 2, 76, 74
4, 155190, Note_on_c, 2, 76, 0
4, 155195, Note_on_c, 2, 74, 0
4, 155205, Note_on_c, 2, 80, 0
4, 155285, Note_on_c, 2, 71, 68
4, 155345, Note_on_c, 2, 71, 0
4, 155520, Note_on_c, 2, 62, 75
4, 155705, Note_on_c, 2, 62, 0
4, 155760, Note_on_c, 2, 81, 87
4, 155760, Note_on_c, 2, 72, 96
4, 155760, Note_on_c, 2, 78, 124
4, 155790, Note_on_c, 2, 78, 0
4, 155810, Note_on_c, 2, 72, 0
4, 155810, Note_on_c, 2, 81, 0
4, 156005, Note_on_c, 2, 69, 73
4, 156050, Note_on_c, 2, 69, 0
4, 156120, Note_on_c, 2, 81, 71
4, 156125, Note_on_c, 2, 72, 73
4, 156125, Note_on_c, 2, 78, 86
4, 156155, Note_on_c, 2, 78, 0
4, 156155, Note_on_c, 2, 72, 0
4, 156160, Note_on_c, 2, 81, 0
4, 156365, Note_on_c, 2, 69, 73
4, 156390, Note_on_c, 2, 69, 0
4, 156475, Note_on_c, 2, 81, 75
4, 156480, Note_on_c, 2, 78, 89
4, 156480, Note_on_c, 2, 72, 76
4, 156480, Note_on_c, 2, 74, 87
4, 156530, Note_on_c, 2, 74, 0
4, 156530, Note_on_c, 2, 78, 0
4, 156550, Note_on_c, 2, 72, 0
4, 156550, Note_on_c, 2, 81, 0
4, 156595, Note_on_c, 2, 81, 63
4, 156605, Note_on_c, 2, 78, 68
4, 156605, Note_on_c, 2, 72, 61
4, 156605, Note_on_c, 2, 74, 60
4, 156630, Note_on_c, 2, 74, 0
4, 156645, Note_on_c, 2, 78, 0
4, 156650, Note_on_c, 2, 72, 0
4, 156655, Note_on_c, 2, 81, 0
4, 156715, Note_on_c, 2, 69, 69
4, 156745, Note_on_c, 2, 69, 0
4, 156840, Note_on_c, 2, 78, 109
4, 156840, Note_on_c, 2, 72, 109
4, 156845, Note_on_c, 2, 74, 109
4, 156845, Note_on_c, 2, 81, 109
4, 156865, Note_on_c, 2, 74, 0
4, 156875, Note_on_c, 2, 81, 0
4, 156875, Note_on_c, 2, 78, 0
4, 156880, Note_on_c, 2, 72, 0
4, 157080, Note_on_c, 2, 81, 71
4, 157085, Note_on_c, 2, 72, 76
4, 157085, Note_on_c, 2, 74, 84
4, 157085, Note_on_c, 2, 78, 87
4, 157110, Note_on_c, 2, 78, 0
4, 157110, Note_on_c, 2, 74, 0
4, 157125, Note_on_c, 2, 72, 0
4, 157125, Note_on_c, 2, 81, 0
4, 157325, Note_on_c, 2, 78, 70
4, 157325, Note_on_c, 2, 72, 69
4, 157325, Note_on_c, 2, 81, 64
4, 157325, Note_on_c, 2, 74, 63
4, 157350, Note_on_c, 2, 74, 0
4, 157350, Note_on_c, 2, 81, 0
4, 157355, Note_on_c, 2, 78, 0
4, 157370, Note_on_c, 2, 72, 0
4, 157440, Note_on_c, 2, 62, 75
4, 157445, Note_on_c, 2, 69, 61
4, 157655, Note_on_c, 2, 69, 0
4, 157675, Note_on_c, 2, 81, 107
4, 157675, Note_on_c, 2, 72, 107
4, 157675, Note_on_c, 2, 78, 107
4, 157685, Note_on_c, 2, 74, 107
4, 157705, Note_on_c, 2, 74, 0
4, 157710, Note_on_c, 2, 78, 0
4, 157715, Note_on_c, 2, 81, 0
4, 157725, Note_on_c, 2, 72, 0
4, 157890, Note_on_c, 2, 62, 0
4, 157925, Note_on_c, 2, 69, 71
4, 157960, Note_on_c, 2, 69, 0
4, 158045, Note_on_c, 2, 72, 110
4, 158045, Note_on_c, 2, 81, 110
4, 158045, Note_on_c, 2, 78, 110
4, 158045, Note_on_c, 2, 74, 110
4, 158070, Note_on_c, 2, 74, 0
4, 158075, Note_on_c, 2, 72, 0
4, 158075, Note_on_c, 2, 81, 0
4, 158075, Note_on_c, 2, 78, 0
4, 158280, Note_on_c, 2, 69, 77
4, 158325, Note_on_c, 2, 69, 0
4, 158395, Note_on_c, 2, 78, 111
4, 158395, Note_on_c, 2, 72, 111
4, 158395, Note_on_c, 2, 81, 111
4, 158395, Note_on_c, 2, 74, 111
4, 158420, Note_on_c, 2, 74, 0
4, 158435, Note_on_c, 2, 81, 0
4, 158435, Note_on_c, 2, 78, 0
4, 158445, Note_on_c, 2, 72, 0
4, 158515, Note_on_c, 2, 81, 68
4, 158515, Note_on_c, 2, 72, 54
4, 158555, Note_on_c, 2, 72, 0
4, 158575, Note_on_c, 2, 81, 0
4, 158635, Note_on_c, 2, 69, 80
4, 158675, Note_on_c, 2, 69, 0
4, 158755, Note_on_c, 2, 81, 107
4, 158755, Note_on_c, 2, 78, 107
4, 158755, Note_on_c, 2, 72, 107
4, 158755, Note_on_c, 2, 74, 107
4, 158785, Note_on_c, 2, 74, 0
4, 158795, Note_on_c, 2, 78, 0
4, 158805, Note_on_c, 2, 72, 0
4, 158805, Note_on_c, 2, 81, 0
4, 158995, Note_on_c, 2, 81, 72
4, 158995, Note_on_c, 2, 78, 103
4, 158995, Note_on_c, 2, 72, 77
4, 158995, Note_on_c, 2, 74, 84
4, 159030, Note_on_c, 2, 74, 0
4, 159035, Note_on_c, 2, 81, 0
4, 159035, Note_on_c, 2, 78, 0
4, 159050, Note_on_c, 2, 72, 0
4, 159125, Note_on_c, 2, 69, 68
4, 159145, Note_on_c, 2, 69, 0
4, 159240, Note_on_c, 2, 72, 75
4, 159290, Note_on_c, 2, 72, 0
4, 159365, Note_on_c, 2, 71, 81
4, 159365, Note_on_c, 2, 67, 77
4, 159480, Note_on_c, 2, 67, 0
4, 159490, Note_on_c, 2, 71, 0
4, 159600, Note_on_c, 2, 86, 118
4, 159600, Note_on_c, 2, 91, 91
4, 159605, Note_on_c, 2, 71, 80
4, 159655, Note_on_c, 2, 86, 0
4, 159670, Note_on_c, 2, 91, 0
4, 159680, Note_on_c, 2, 71, 0
4, 159840, Note_on_c, 2, 71, 78
4, 159910, Note_on_c, 2, 71, 0
4, 159965, Note_on_c, 2, 88, 103
4, 159965, Note_on_c, 2, 83, 97
4, 160010, Note_on_c, 2, 83, 0
4, 160015, Note_on_c, 2, 88, 0
4, 160200, Note_on_c, 2, 71, 74
4, 160240, Note_on_c, 2, 71, 0
4, 160315, Note_on_c, 2, 86, 87
4, 160315, Note_on_c, 2, 81, 105
4, 160375, Note_on_c, 2, 81, 0
4, 160390, Note_on_c, 2, 86, 0
4, 160435, Note_on_c, 2, 81, 73
4, 160435, Note_on_c, 2, 86, 69
4, 160510, Note_on_c, 2, 86, 0
4, 160520, Note_on_c, 2, 81, 0
4, 160555, Note_on_c, 2, 79, 70
4, 160555, Note_on_c, 2, 83, 71
4, 160635, Note_on_c, 2, 83, 0
4, 160635, Note_on_c, 2, 79, 0
4, 160675, Note_on_c, 2, 71, 72
4, 160675, Note_on_c, 2, 81, 81
4, 160675, Note_on_c, 2, 86, 77
4, 160725, Note_on_c, 2, 71, 0
4, 160745, Note_on_c, 2, 81, 0
4, 160750, Note_on_c, 2, 86, 0
4, 160915, Note_on_c, 2, 86, 81
4, 160915, Note_on_c, 2, 81, 91
4, 160920, Note_on_c, 2, 71, 71
4, 160920, Note_on_c, 2, 67, 63
4, 160975, Note_on_c, 2, 71, 0
4, 160980, Note_on_c, 2, 67, 0
4, 161005, Note_on_c, 2, 81, 0
4, 161005, Note_on_c, 2, 86, 0
4, 161035, Note_on_c, 2, 83, 70
4, 161045, Note_on_c, 2, 79, 24
4, 161105, Note_on_c, 2, 83, 0
4, 161110, Note_on_c, 2, 79, 0
4, 161160, Note_on_c, 2, 81, 64
4, 161230, Note_on_c, 2, 81, 0
4, 161275, Note_on_c, 2, 79, 77
4, 161285, Note_on_c, 2, 71, 61
4, 161325, Note_on_c, 2, 71, 0
4, 161400, Note_on_c, 2, 79, 0
4, 161520, Note_on_c, 2, 76, 93
4, 161620, Note_on_c, 2, 76, 0
4, 161765, Note_on_c, 2, 74, 91
4, 161765, Note_on_c, 2, 79, 95
4, 161890, Note_on_c, 2, 79, 0
4, 161910, Note_on_c, 2, 74, 0
4, 162000, Note_on_c, 2, 71, 73
4, 162005, Note_on_c, 2, 67, 65
4, 162025, Note_on_c, 2, 67, 0
4, 162035, Note_on_c, 2, 71, 0
4, 162125, Note_on_c, 2, 79, 81
4, 162125, Note_on_c, 2, 74, 97
4, 162170, Note_on_c, 2, 74, 0
4, 162190, Note_on_c, 2, 79, 0
4, 162360, Note_on_c, 2, 79, 72
4, 162360, Note_on_c, 2, 74, 81
4, 162445, Note_on_c, 2, 79, 0
4, 162450, Note_on_c, 2, 74, 0
4, 162475, Note_on_c, 2, 76, 73
4, 162575, Note_on_c, 2, 76, 0
4, 162725, Note_on_c, 2, 74, 91
4, 162725, Note_on_c, 2, 71, 64
4, 162745, Note_on_c, 2, 71, 0
4, 162795, Note_on_c, 2, 74, 0
4, 162835, Note_on_c, 2, 74, 84
4, 162930, Note_on_c, 2, 74, 0
4, 162955, Note_on_c, 2, 71, 74
4, 163005, Note_on_c, 2, 71, 0
4, 163440, Note_on_c, 2, 60, 73
4, 163445, Note_on_c, 2, 50, 73
4, 163445, Note_on_c, 2, 71, 84
4, 163445, Note_on_c, 2, 64, 87
4, 163445, Note_on_c, 2, 66, 100
4, 163495, Note_on_c, 2, 66, 0
4, 163505, Note_on_c, 2, 50, 0
4, 163505, Note_on_c, 2, 64, 0
4, 163515, Note_on_c, 2, 60, 0
4, 163520, Note_on_c, 2, 71, 0
4, 163680, Note_on_c, 2, 64, 68
4, 163680, Note_on_c, 2, 54, 65
4, 163685, Note_on_c, 2, 60, 69
4, 163750, Note_on_c, 2, 64, 0
4, 163800, Note_on_c, 2, 64, 70
4, 163800, Note_on_c, 2, 69, 72
4, 163805, Note_on_c, 2, 66, 69
4, 163810, Note_on_c, 2, 54, 0
4, 163820, Note_on_c, 2, 60, 0
4, 163875, Note_on_c, 2, 66, 0
4, 163895, Note_on_c, 2, 64, 0
4, 163905, Note_on_c, 2, 69, 0
4, 164045, Note_on_c, 2, 64, 69
4, 164110, Note_on_c, 2, 64, 0
4, 164160, Note_on_c, 2, 71, 82
4, 164160, Note_on_c, 2, 64, 78
4, 164160, Note_on_c, 2, 66, 89
4, 164265, Note_on_c, 2, 64, 0
4, 164270, Note_on_c, 2, 66, 0
4, 164275, Note_on_c, 2, 71, 0
4, 164400, Note_on_c, 2, 60, 74
4, 164430, Note_on_c, 2, 60, 0
4, 164515, Note_on_c, 2, 69, 85
4, 164515, Note_on_c, 2, 64, 80
4, 164520, Note_on_c, 2, 66, 86
4, 164570, Note_on_c, 2, 66, 0
4, 164585, Note_on_c, 2, 64, 0
4, 164590, Note_on_c, 2, 69, 0
4, 164765, Note_on_c, 2, 69, 82
4, 164765, Note_on_c, 2, 64, 75
4, 164765, Note_on_c, 2, 66, 84
4, 164810, Note_on_c, 2, 66, 0
4, 164830, Note_on_c, 2, 64, 0
4, 164840, Note_on_c, 2, 69, 0
4, 165005, Note_on_c, 2, 64, 71
4, 165035, Note_on_c, 2, 64, 0
4, 165360, Note_on_c, 2, 71, 85
4, 165360, Note_on_c, 2, 66, 89
4, 165360, Note_on_c, 2, 64, 84
4, 165420, Note_on_c, 2, 66, 0
4, 165430, Note_on_c, 2, 64, 0
4, 165460, Note_on_c, 2, 71, 0
4, 165720, Note_on_c, 2, 64, 83
4, 165720, Note_on_c, 2, 69, 91
4, 165720, Note_on_c, 2, 66, 95
4, 165780, Note_on_c, 2, 66, 0
4, 165800, Note_on_c, 2, 64, 0
4, 165820, Note_on_c, 2, 69, 0
4, 165965, Note_on_c, 2, 64, 73
4, 166050, Note_on_c, 2, 64, 0
4, 166085, Note_on_c, 2, 71, 83
4, 166085, Note_on_c, 2, 66, 95
4, 166085, Note_on_c, 2, 64, 80
4, 166170, Note_on_c, 2, 64, 0
4, 166215, Note_on_c, 2, 66, 0
4, 166230, Note_on_c, 2, 71, 0
4, 166315, Note_on_c, 2, 64, 73
4, 166405, Note_on_c, 2, 64, 0
4, 166440, Note_on_c, 2, 69, 71
4, 166445, Note_on_c, 2, 66, 69
4, 166445, Note_on_c, 2, 64, 70
4, 166530, Note_on_c, 2, 66, 0
4, 166535, Note_on_c, 2, 64, 0
4, 166535, Note_on_c, 2, 69, 0
4, 166675, Note_on_c, 2, 69, 70
4, 166675, Note_on_c, 2, 64, 74
4, 166685, Note_on_c, 2, 66, 65
4, 166725, Note_on_c, 2, 66, 0
4, 166730, Note_on_c, 2, 64, 0
4, 166765, Note_on_c, 2, 69, 0
4, 167045, Note_on_c, 2, 74, 75
4, 167045, Note_on_c, 2, 79, 64
4, 167070, Note_on_c, 2, 74, 0
4, 167075, Note_on_c, 2, 79, 0
4, 167165, Note_on_c, 2, 74, 76
4, 167165, Note_on_c, 2, 79, 67
4, 167210, Note_on_c, 2, 74, 0
4, 167215, Note_on_c, 2, 79, 0
4, 167285, Note_on_c, 2, 79, 79
4, 167285, Note_on_c, 2, 74, 96
4, 167340, Note_on_c, 2, 74, 0
4, 167350, Note_on_c, 2, 79, 0
4, 167405, Note_on_c, 2, 79, 79
4, 167405, Note_on_c, 2, 74, 105
4, 167485, Note_on_c, 2, 74, 0
4, 167490, Note_on_c, 2, 79, 0
4, 168125, Note_on_c, 2, 74, 75
4, 168125, Note_on_c, 2, 71, 77
4, 168165, Note_on_c, 2, 74, 0
4, 168170, Note_on_c, 2, 71, 0
4, 168475, Note_on_c, 2, 76, 97
4, 168475, Note_on_c, 2, 71, 93
4, 168610, Note_on_c, 2, 71, 0
4, 168675, Note_on_c, 2, 76, 0
4, 168715, Note_on_c, 2, 74, 69
4, 168805, Note_on_c, 2, 74, 0
4, 168845, Note_on_c, 2, 71, 61
4, 168885, Note_on_c, 2, 71, 0
4, 169200, Note_on_c, 2, 74, 74
4, 169200, Note_on_c, 2, 69, 91
4, 169290, Note_on_c, 2, 74, 0
4, 169325, Note_on_c, 2, 69, 0
4, 169325, Note_on_c, 2, 71, 68
4, 169390, Note_on_c, 2, 71, 0
4, 169565, Note_on_c, 2, 74, 79
4, 169565, Note_on_c, 2, 71, 97
4, 169630, Note_on_c, 2, 71, 0
4, 169630, Note_on_c, 2, 74, 0
4, 169805, Note_on_c, 2, 74, 85
4, 169805, Note_on_c, 2, 71, 108
4, 169865, Note_on_c, 2, 71, 0
4, 169865, Note_on_c, 2, 74, 0
4, 170045, Note_on_c, 2, 71, 96
4, 170045, Note_on_c, 2, 74, 80
4, 170115, Note_on_c, 2, 74, 0
4, 170115, Note_on_c, 2, 71, 0
4, 170165, Note_on_c, 2, 69, 52
4, 170220, Note_on_c, 2, 69, 0
4, 170395, Note_on_c, 2, 74, 78
4, 170395, Note_on_c, 2, 69, 91
4, 170490, Note_on_c, 2, 74, 0
4, 170625, Note_on_c, 2, 69, 0
4, 170635, Note_on_c, 2, 67, 67
4, 170670, Note_on_c, 2, 67, 0
4, 171125, Note_on_c, 2, 71, 84
4, 171125, Note_on_c, 2, 66, 103
4, 171125, Note_on_c, 2, 62, 86
4, 171170, Note_on_c, 2, 66, 0
4, 171180, Note_on_c, 2, 62, 0
4, 171200, Note_on_c, 2, 71, 0
4, 171355, Note_on_c, 2, 62, 68
4, 171355, Note_on_c, 2, 59, 70
4, 171405, Note_on_c, 2, 59, 0
4, 171420, Note_on_c, 2, 62, 0
4, 171480, Note_on_c, 2, 69, 84
4, 171485, Note_on_c, 2, 62, 75
4, 171485, Note_on_c, 2, 66, 83
4, 171560, Note_on_c, 2, 62, 0
4, 171570, Note_on_c, 2, 66, 0
4, 171570, Note_on_c, 2, 69, 0
4, 171725, Note_on_c, 2, 62, 71
4, 171845, Note_on_c, 2, 71, 84
4, 171845, Note_on_c, 2, 66, 95
4, 171890, Note_on_c, 2, 62, 0
4, 171900, Note_on_c, 2, 66, 0
4, 171920, Note_on_c, 2, 71, 0
4, 171965, Note_on_c, 2, 62, 66
4, 171965, Note_on_c, 2, 71, 66
4, 171965, Note_on_c, 2, 66, 71
4, 172025, Note_on_c, 2, 62, 0
4, 172060, Note_on_c, 2, 71, 0
4, 172070, Note_on_c, 2, 66, 0
4, 172085, Note_on_c, 2, 62, 70
4, 172155, Note_on_c, 2, 62, 0
4, 172205, Note_on_c, 2, 66, 84
4, 172205, Note_on_c, 2, 69, 83
4, 172205, Note_on_c, 2, 62, 76
4, 172260, Note_on_c, 2, 66, 0
4, 172270, Note_on_c, 2, 62, 0
4, 172280, Note_on_c, 2, 69, 0
4, 172445, Note_on_c, 2, 62, 87
4, 172445, Note_on_c, 2, 69, 97
4, 172445, Note_on_c, 2, 66, 103
4, 172505, Note_on_c, 2, 66, 0
4, 172505, Note_on_c, 2, 62, 0
4, 172515, Note_on_c, 2, 69, 0
4, 172675, Note_on_c, 2, 62, 79
4, 172745, Note_on_c, 2, 62, 0
4, 172795, Note_on_c, 2, 71, 87
4, 172795, Note_on_c, 2, 66, 103
4, 172795, Note_on_c, 2, 62, 79
4, 172845, Note_on_c, 2, 66, 0
4, 172870, Note_on_c, 2, 62, 0
4, 172875, Note_on_c, 2, 71, 0
4, 173035, Note_on_c, 2, 66, 110
4, 173035, Note_on_c, 2, 62, 91
4, 173035, Note_on_c, 2, 71, 87
4, 173130, Note_on_c, 2, 62, 0
4, 173145, Note_on_c, 2, 71, 0
4, 173145, Note_on_c, 2, 66, 0
4, 173275, Note_on_c, 2, 66, 74
4, 173275, Note_on_c, 2, 69, 73
4, 173275, Note_on_c, 2, 62, 75
4, 173370, Note_on_c, 2, 62, 0
4, 173390, Note_on_c, 2, 66, 0
4, 173410, Note_on_c, 2, 69, 0
4, 173515, Note_on_c, 2, 62, 73
4, 173575, Note_on_c, 2, 62, 0
4, 173645, Note_on_c, 2, 66, 95
4, 173645, Note_on_c, 2, 71, 75
4, 173645, Note_on_c, 2, 62, 77
4, 173730, Note_on_c, 2, 62, 0
4, 173740, Note_on_c, 2, 71, 0
4, 173745, Note_on_c, 2, 66, 0
4, 173885, Note_on_c, 2, 66, 93
4, 173885, Note_on_c, 2, 71, 83
4, 173885, Note_on_c, 2, 62, 79
4, 173990, Note_on_c, 2, 62, 0
4, 174000, Note_on_c, 2, 71, 0
4, 174010, Note_on_c, 2, 66, 0
4, 174125, Note_on_c, 2, 66, 68
4, 174125, Note_on_c, 2, 69, 76
4, 174125, Note_on_c, 2, 62, 72
4, 174190, Note_on_c, 2, 62, 0
4, 174190, Note_on_c, 2, 66, 0
4, 174220, Note_on_c, 2, 69, 0
4, 174240, Note_on_c, 2, 62, 74
4, 174245, Note_on_c, 2, 66, 69
4, 174285, Note_on_c, 2, 66, 0
4, 174320, Note_on_c, 2, 62, 0
4, 174485, Note_on_c, 2, 66, 86
4, 174590, Note_on_c, 2, 66, 0
4, 174845, Note_on_c, 2, 91, 86
4, 174845, Note_on_c, 2, 86, 93
4, 174900, Note_on_c, 2, 86, 0
4, 174910, Note_on_c, 2, 91, 0
4, 175205, Note_on_c, 2, 88, 103
4, 175205, Note_on_c, 2, 83, 93
4, 175290, Note_on_c, 2, 88, 0
4, 175315, Note_on_c, 2, 83, 0
4, 175685, Note_on_c, 2, 81, 105
4, 175685, Note_on_c, 2, 86, 105
4, 175770, Note_on_c, 2, 86, 0
4, 175770, Note_on_c, 2, 81, 0
4, 176045, Note_on_c, 2, 79, 74
4, 176045, Note_on_c, 2, 83, 83
4, 176105, Note_on_c, 2, 83, 0
4, 176110, Note_on_c, 2, 79, 0
4, 176275, Note_on_c, 2, 81, 89
4, 176370, Note_on_c, 2, 81, 0
4, 176395, Note_on_c, 2, 79, 69
4, 176470, Note_on_c, 2, 79, 0
4, 176635, Note_on_c, 2, 74, 93
4, 176635, Note_on_c, 2, 79, 87
4, 176740, Note_on_c, 2, 79, 0
4, 176740, Note_on_c, 2, 74, 0
4, 176875, Note_on_c, 2, 76, 83
4, 176965, Note_on_c, 2, 76, 0
4, 177115, Note_on_c, 2, 74, 83
4, 177230, Note_on_c, 2, 74, 0
4, 177355, Note_on_c, 2, 74, 100
4, 177470, Note_on_c, 2, 74, 0
4, 177485, Note_on_c, 2, 71, 68
4, 177525, Note_on_c, 2, 71, 0
4, 177720, Note_on_c, 2, 74, 91
4, 177790, Note_on_c, 2, 74, 0
4, 177955, Note_on_c, 2, 69, 82
4, 178065, Note_on_c, 2, 69, 0
4, 178075, Note_on_c, 2, 71, 83
4, 178155, Note_on_c, 2, 71, 0
4, 178195, Note_on_c, 2, 69, 73
4, 178305, Note_on_c, 2, 69, 0
4, 178315, Note_on_c, 2, 67, 69
4, 178445, Note_on_c, 2, 67, 0
4, 178795, Note_on_c, 2, 66, 103
4, 178795, Note_on_c, 2, 64, 78
4, 178815, Note_on_c, 2, 64, 0
4, 178835, Note_on_c, 2, 66, 0
4, 179035, Note_on_c, 2, 60, 72
4, 179090, Note_on_c, 2, 60, 0
4, 179400, Note_on_c, 2, 60, 69
4, 179435, Note_on_c, 2, 60, 0
4, 179515, Note_on_c, 2, 64, 83
4, 179515, Note_on_c, 2, 66, 82
4, 179515, Note_on_c, 2, 71, 70
4, 179555, Note_on_c, 2, 71, 0
4, 179565, Note_on_c, 2, 66, 0
4, 179565, Note_on_c, 2, 64, 0
4, 179755, Note_on_c, 2, 60, 72
4, 179825, Note_on_c, 2, 60, 0
4, 179885, Note_on_c, 2, 69, 74
4, 179885, Note_on_c, 2, 64, 78
4, 179885, Note_on_c, 2, 66, 77
4, 179945, Note_on_c, 2, 64, 0
4, 179950, Note_on_c, 2, 66, 0
4, 179960, Note_on_c, 2, 69, 0
4, 180125, Note_on_c, 2, 60, 70
4, 180170, Note_on_c, 2, 60, 0
4, 180245, Note_on_c, 2, 64, 89
4, 180245, Note_on_c, 2, 66, 93
4, 180245, Note_on_c, 2, 71, 79
4, 180325, Note_on_c, 2, 64, 0
4, 180335, Note_on_c, 2, 71, 0
4, 180365, Note_on_c, 2, 66, 0
4, 180480, Note_on_c, 2, 60, 74
4, 180555, Note_on_c, 2, 60, 0
4, 180595, Note_on_c, 2, 69, 73
4, 180605, Note_on_c, 2, 64, 83
4, 180605, Note_on_c, 2, 66, 77
4, 180645, Note_on_c, 2, 66, 0
4, 180650, Note_on_c, 2, 64, 0
4, 180665, Note_on_c, 2, 69, 0
4, 180840, Note_on_c, 2, 60, 77
4, 180910, Note_on_c, 2, 60, 0
4, 180955, Note_on_c, 2, 71, 77
4, 180965, Note_on_c, 2, 64, 84
4, 180965, Note_on_c, 2, 66, 87
4, 181030, Note_on_c, 2, 64, 0
4, 181080, Note_on_c, 2, 71, 0
4, 181110, Note_on_c, 2, 66, 0
4, 181195, Note_on_c, 2, 60, 70
4, 181325, Note_on_c, 2, 60, 0
4, 181325, Note_on_c, 2, 69, 81
4, 181325, Note_on_c, 2, 64, 93
4, 181325, Note_on_c, 2, 66, 100
4, 181365, Note_on_c, 2, 64, 0
4, 181370, Note_on_c, 2, 66, 0
4, 181385, Note_on_c, 2, 69, 0
4, 181565, Note_on_c, 2, 60, 81
4, 181630, Note_on_c, 2, 60, 0
4, 181675, Note_on_c, 2, 64, 93
4, 181675, Note_on_c, 2, 71, 83
4, 181680, Note_on_c, 2, 66, 86
4, 181755, Note_on_c, 2, 64, 0
4, 181790, Note_on_c, 2, 66, 0
4, 181795, Note_on_c, 2, 71, 0
4, 181915, Note_on_c, 2, 60, 83
4, 182030, Note_on_c, 2, 60, 0
4, 182035, Note_on_c, 2, 69, 82
4, 182035, Note_on_c, 2, 66, 110
4, 182035, Note_on_c, 2, 64, 89
4, 182070, Note_on_c, 2, 64, 0
4, 182085, Note_on_c, 2, 66, 0
4, 182095, Note_on_c, 2, 69, 0
4, 182160, Note_on_c, 2, 60, 73
4, 182225, Note_on_c, 2, 60, 0
4, 182405, Note_on_c, 2, 74, 76
4, 182445, Note_on_c, 2, 74, 0
4, 182635, Note_on_c, 2, 79, 73
4, 182645, Note_on_c, 2, 76, 89
4, 182645, Note_on_c, 2, 71, 89
4, 182645, Note_on_c, 2, 74, 95
4, 182665, Note_on_c, 2, 74, 0
4, 182685, Note_on_c, 2, 71, 0
4, 182685, Note_on_c, 2, 76, 0
4, 182700, Note_on_c, 2, 79, 0
4, 182885, Note_on_c, 2, 74, 95
4, 182885, Note_on_c, 2, 76, 85
4, 182980, Note_on_c, 2, 74, 0
4, 183055, Note_on_c, 2, 76, 0
4, 183125, Note_on_c, 2, 71, 79
4, 183165, Note_on_c, 2, 71, 0
4, 183245, Note_on_c, 2, 74, 63
4, 183270, Note_on_c, 2, 74, 0
4, 184075, Note_on_c, 2, 91, 93
4, 184075, Note_on_c, 2, 86, 114
4, 184075, Note_on_c, 2, 74, 72
4, 184075, Note_on_c, 2, 76, 71
4, 184135, Note_on_c, 2, 74, 0
4, 184135, Note_on_c, 2, 86, 0
4, 184145, Note_on_c, 2, 91, 0
4, 184145, Note_on_c, 2, 76, 0
4, 184195, Note_on_c, 2, 91, 73
4, 184195, Note_on_c, 2, 86, 78
4, 184290, Note_on_c, 2, 86, 0
4, 184290, Note_on_c, 2, 91, 0
4, 184315, Note_on_c, 2, 88, 89
4, 184315, Note_on_c, 2, 83, 86
4, 184510, Note_on_c, 2, 88, 0
4, 184530, Note_on_c, 2, 83, 0
4, 184555, Note_on_c, 2, 76, 75
4, 184585, Note_on_c, 2, 76, 0
4, 184685, Note_on_c, 2, 81, 82
4, 184685, Note_on_c, 2, 86, 87
4, 184785, Note_on_c, 2, 86, 0
4, 184790, Note_on_c, 2, 81, 0
4, 184920, Note_on_c, 2, 86, 91
4, 184925, Note_on_c, 2, 81, 84
4, 184995, Note_on_c, 2, 86, 0
4, 185000, Note_on_c, 2, 81, 0
4, 185165, Note_on_c, 2, 83, 97
4, 185280, Note_on_c, 2, 83, 0
4, 185405, Note_on_c, 2, 81, 74
4, 185485, Note_on_c, 2, 81, 0
4, 185525, Note_on_c, 2, 79, 79
4, 185650, Note_on_c, 2, 79, 0
4, 185765, Note_on_c, 2, 76, 84
4, 185920, Note_on_c, 2, 76, 0
4, 186005, Note_on_c, 2, 79, 71
4, 186005, Note_on_c, 2, 74, 73
4, 186050, Note_on_c, 2, 79, 0
4, 186060, Note_on_c, 2, 74, 0
4, 186485, Note_on_c, 2, 83, 87
4, 186485, Note_on_c, 2, 76, 108
4, 186485, Note_on_c, 2, 78, 110
4, 186530, Note_on_c, 2, 76, 0
4, 186540, Note_on_c, 2, 78, 0
4, 186590, Note_on_c, 2, 83, 0
4, 186845, Note_on_c, 2, 81, 84
4, 186845, Note_on_c, 2, 78, 91
4, 186845, Note_on_c, 2, 76, 83
4, 186890, Note_on_c, 2, 78, 0
4, 186895, Note_on_c, 2, 76, 0
4, 186920, Note_on_c, 2, 81, 0
4, 187085, Note_on_c, 2, 76, 74
4, 187130, Note_on_c, 2, 76, 0
4, 187195, Note_on_c, 2, 83, 80
4, 187195, Note_on_c, 2, 78, 84
4, 187200, Note_on_c, 2, 76, 87
4, 187275, Note_on_c, 2, 76, 0
4, 187275, Note_on_c, 2, 78, 0
4, 187295, Note_on_c, 2, 83, 0
4, 187325, Note_on_c, 2, 83, 74
4, 187325, Note_on_c, 2, 78, 75
4, 187325, Note_on_c, 2, 76, 71
4, 187400, Note_on_c, 2, 76, 0
4, 187410, Note_on_c, 2, 78, 0
4, 187410, Note_on_c, 2, 83, 0
4, 187435, Note_on_c, 2, 72, 70
4, 187485, Note_on_c, 2, 72, 0
4, 187565, Note_on_c, 2, 81, 84
4, 187565, Note_on_c, 2, 78, 91
4, 187565, Note_on_c, 2, 76, 85
4, 187625, Note_on_c, 2, 76, 0
4, 187625, Note_on_c, 2, 78, 0
4, 187640, Note_on_c, 2, 81, 0
4, 187805, Note_on_c, 2, 81, 83
4, 187805, Note_on_c, 2, 76, 81
4, 187805, Note_on_c, 2, 78, 84
4, 187850, Note_on_c, 2, 78, 0
4, 187850, Note_on_c, 2, 76, 0
4, 187860, Note_on_c, 2, 81, 0
4, 188045, Note_on_c, 2, 76, 72
4, 188070, Note_on_c, 2, 76, 0
4, 188405, Note_on_c, 2, 76, 105
4, 188405, Note_on_c, 2, 83, 91
4, 188405, Note_on_c, 2, 72, 87
4, 188405, Note_on_c, 2, 78, 114
4, 188435, Note_on_c, 2, 76, 0
4, 188450, Note_on_c, 2, 78, 0
4, 188450, Note_on_c, 2, 72, 0
4, 188465, Note_on_c, 2, 83, 0
4, 188765, Note_on_c, 2, 81, 74
4, 188765, Note_on_c, 2, 76, 89
4, 188765, Note_on_c, 2, 78, 85
4, 188805, Note_on_c, 2, 76, 0
4, 188810, Note_on_c, 2, 78, 0
4, 188825, Note_on_c, 2, 81, 0
4, 189120, Note_on_c, 2, 83, 91
4, 189120, Note_on_c, 2, 76, 95
4, 189120, Note_on_c, 2, 78, 108
4, 189170, Note_on_c, 2, 78, 0
4, 189180, Note_on_c, 2, 76, 0
4, 189200, Note_on_c, 2, 83, 0
4, 189355, Note_on_c, 2, 83, 81
4, 189355, Note_on_c, 2, 76, 91
4, 189355, Note_on_c, 2, 78, 97
4, 189420, Note_on_c, 2, 76, 0
4, 189440, Note_on_c, 2, 78, 0
4, 189445, Note_on_c, 2, 83, 0
4, 189485, Note_on_c, 2, 81, 68
4, 189485, Note_on_c, 2, 76, 55
4, 189520, Note_on_c, 2, 76, 0
4, 189560, Note_on_c, 2, 81, 0
4, 189725, Note_on_c, 2, 81, 83
4, 189725, Note_on_c, 2, 78, 84
4, 189725, Note_on_c, 2, 76, 77
4, 189770, Note_on_c, 2, 76, 0
4, 189770, Note_on_c, 2, 78, 0
4, 189795, Note_on_c, 2, 81, 0
4, 190325, Note_on_c, 2, 91, 105
4, 190325, Note_on_c, 2, 86, 122
4, 190390, Note_on_c, 2, 86, 0
4, 190460, Note_on_c, 2, 91, 0
4, 190685, Note_on_c, 2, 88, 103
4, 190685, Note_on_c, 2, 83, 95
4, 190745, Note_on_c, 2, 88, 0
4, 190770, Note_on_c, 2, 83, 0
4, 191035, Note_on_c, 2, 81, 100
4, 191035, Note_on_c, 2, 86, 108
4, 191125, Note_on_c, 2, 86, 0
4, 191130, Note_on_c, 2, 81, 0
4, 191405, Note_on_c, 2, 83, 105
4, 191405, Note_on_c, 2, 76, 105
4, 191450, Note_on_c, 2, 76, 0
4, 191470, Note_on_c, 2, 83, 0
4, 191645, Note_on_c, 2, 83, 93
4, 191645, Note_on_c, 2, 76, 84
4, 191725, Note_on_c, 2, 83, 0
4, 191765, Note_on_c, 2, 76, 0
4, 191765, Note_on_c, 2, 81, 75
4, 191890, Note_on_c, 2, 81, 0
4, 192245, Note_on_c, 2, 79, 91
4, 192245, Note_on_c, 2, 74, 114
4, 192310, Note_on_c, 2, 74, 0
4, 192340, Note_on_c, 2, 79, 0
4, 192605, Note_on_c, 2, 71, 81
4, 192605, Note_on_c, 2, 76, 110
4, 192675, Note_on_c, 2, 76, 0
4, 192685, Note_on_c, 2, 71, 0
4, 192845, Note_on_c, 2, 74, 96
4, 192845, Note_on_c, 2, 69, 77
4, 192935, Note_on_c, 2, 69, 0
4, 192955, Note_on_c, 2, 74, 0
4, 193085, Note_on_c, 2, 74, 87
4, 193085, Note_on_c, 2, 69, 58
4, 193125, Note_on_c, 2, 69, 0
4, 193145, Note_on_c, 2, 74, 0
4, 193325, Note_on_c, 2, 74, 72
4, 193370, Note_on_c, 2, 74, 0
4, 193445, Note_on_c, 2, 71, 82
4, 193445, Note_on_c, 2, 76, 105
4, 193655, Note_on_c, 2, 76, 0
4, 193660, Note_on_c, 2, 71, 0
4, 193680, Note_on_c, 2, 69, 70
4, 193680, Note_on_c, 2, 74, 81
4, 193725, Note_on_c, 2, 74, 0
4, 193725, Note_on_c, 2, 69, 0
4, 194165, Note_on_c, 2, 83, 84
4, 194165, Note_on_c, 2, 78, 108
4, 194165, Note_on_c, 2, 76, 100
4, 194165, Note_on_c, 2, 72, 87
4, 194220, Note_on_c, 2, 76, 0
4, 194220, Note_on_c, 2, 78, 0
4, 194225, Note_on_c, 2, 83, 0
4, 194230, Note_on_c, 2, 72, 0
4, 194525, Note_on_c, 2, 72, 78
4, 194525, Note_on_c, 2, 76, 83
4, 194525, Note_on_c, 2, 78, 77
4, 194525, Note_on_c, 2, 81, 71
4, 194545, Note_on_c, 2, 78, 0
4, 194545, Note_on_c, 2, 76, 0
4, 194570, Note_on_c, 2, 72, 0
4, 194570, Note_on_c, 2, 81, 0
4, 194765, Note_on_c, 2, 72, 64
4, 194810, Note_on_c, 2, 72, 0
4, 194880, Note_on_c, 2, 83, 91
4, 194880, Note_on_c, 2, 76, 89
4, 194970, Note_on_c, 2, 83, 0
4, 194990, Note_on_c, 2, 76, 0
4, 195245, Note_on_c, 2, 81, 79
4, 195245, Note_on_c, 2, 72, 86
4, 195245, Note_on_c, 2, 76, 103
4, 195285, Note_on_c, 2, 76, 0
4, 195290, Note_on_c, 2, 72, 0
4, 195300, Note_on_c, 2, 81, 0
4, 195475, Note_on_c, 2, 81, 71
4, 195485, Note_on_c, 2, 76, 86
4, 195525, Note_on_c, 2, 76, 0
4, 195525, Note_on_c, 2, 81, 0
4, 195725, Note_on_c, 2, 72, 76
4, 195760, Note_on_c, 2, 72, 0
4, 196085, Note_on_c, 2, 76, 105
4, 196085, Note_on_c, 2, 83, 100
4, 196085, Note_on_c, 2, 72, 83
4, 196125, Note_on_c, 2, 72, 0
4, 196125, Note_on_c, 2, 76, 0
4, 196145, Note_on_c, 2, 83, 0
4, 196445, Note_on_c, 2, 81, 73
4, 196445, Note_on_c, 2, 76, 93
4, 196445, Note_on_c, 2, 72, 84
4, 196485, Note_on_c, 2, 76, 0
4, 196490, Note_on_c, 2, 72, 0
4, 196495, Note_on_c, 2, 81, 0
4, 196685, Note_on_c, 2, 72, 70
4, 196725, Note_on_c, 2, 72, 0
4, 196805, Note_on_c, 2, 83, 84
4, 196805, Note_on_c, 2, 76, 91
4, 196865, Note_on_c, 2, 76, 0
4, 196870, Note_on_c, 2, 83, 0
4, 197165, Note_on_c, 2, 81, 82
4, 197165, Note_on_c, 2, 76, 95
4, 197220, Note_on_c, 2, 76, 0
4, 197220, Note_on_c, 2, 81, 0
4, 197405, Note_on_c, 2, 81, 75
4, 197405, Note_on_c, 2, 76, 86
4, 197450, Note_on_c, 2, 76, 0
4, 197460, Note_on_c, 2, 81, 0
4, 197635, Note_on_c, 2, 76, 69
4, 197670, Note_on_c, 2, 76, 0
4, 198000, Note_on_c, 2, 86, 114
4, 198005, Note_on_c, 2, 91, 105
4, 198055, Note_on_c, 2, 86, 0
4, 198065, Note_on_c, 2, 91, 0
4, 198125, Note_on_c, 2, 91, 70
4, 198125, Note_on_c, 2, 86, 81
4, 198200, Note_on_c, 2, 86, 0
4, 198200, Note_on_c, 2, 91, 0
4, 198245, Note_on_c, 2, 83, 84
4, 198245, Note_on_c, 2, 88, 91
4, 198410, Note_on_c, 2, 88, 0
4, 198410, Note_on_c, 2, 83, 0
4, 198605, Note_on_c, 2, 81, 97
4, 198605, Note_on_c, 2, 86, 103
4, 198670, Note_on_c, 2, 86, 0
4, 198670, Note_on_c, 2, 81, 0
4, 198845, Note_on_c, 2, 86, 100
4, 198845, Note_on_c, 2, 81, 87
4, 198940, Note_on_c, 2, 86, 0
4, 198960, Note_on_c, 2, 81, 0
4, 199085, Note_on_c, 2, 83, 85
4, 199145, Note_on_c, 2, 83, 0
4, 199205, Note_on_c, 2, 81, 79
4, 199400, Note_on_c, 2, 81, 0
4, 199440, Note_on_c, 2, 83, 77
4, 199515, Note_on_c, 2, 83, 0
4, 199555, Note_on_c, 2, 81, 68
4, 199595, Note_on_c, 2, 81, 0
4, 199680, Note_on_c, 2, 86, 91
4, 199680, Note_on_c, 2, 91, 86
4, 199740, Note_on_c, 2, 91, 0
4, 199755, Note_on_c, 2, 86, 0
4, 199805, Note_on_c, 2, 91, 79
4, 199805, Note_on_c, 2, 86, 86
4, 199880, Note_on_c, 2, 86, 0
4, 199880, Note_on_c, 2, 91, 0
4, 199915, Note_on_c, 2, 88, 71
4, 199915, Note_on_c, 2, 83, 71
4, 200015, Note_on_c, 2, 83, 0
4, 200025, Note_on_c, 2, 88, 0
4, 200155, Note_on_c, 2, 91, 86
4, 200155, Note_on_c, 2, 86, 103
4, 200290, Note_on_c, 2, 91, 0
4, 200360, Note_on_c, 2, 86, 0
4, 200525, Note_on_c, 2, 86, 75
4, 200560, Note_on_c, 2, 86, 0
4, 200765, Note_on_c, 2, 86, 108
4, 200765, Note_on_c, 2, 91, 86
4, 200840, Note_on_c, 2, 91, 0
4, 200840, Note_on_c, 2, 86, 0
4, 201005, Note_on_c, 2, 83, 71
4, 201050, Note_on_c, 2, 83, 0
4, 201125, Note_on_c, 2, 86, 95
4, 201125, Note_on_c, 2, 91, 87
4, 201220, Note_on_c, 2, 86, 0
4, 201250, Note_on_c, 2, 91, 0
4, 201360, Note_on_c, 2, 76, 73
4, 201455, Note_on_c, 2, 76, 0
4, 201480, Note_on_c, 2, 77, 79
4, 201520, Note_on_c, 2, 77, 0
4, 201560, Note_on_c, 2, 78, 75
4, 201600, Note_on_c, 2, 83, 89
4, 201620, Note_on_c, 2, 78, 0
4, 201745, Note_on_c, 2, 83, 0
4, 201760, Note_on_c, 2, 76, 77
4, 201840, Note_on_c, 2, 76, 0
4, 201840, Note_on_c, 2, 78, 77
4, 201945, Note_on_c, 2, 78, 0
4, 201965, Note_on_c, 2, 81, 82
4, 202075, Note_on_c, 2, 76, 70
4, 202080, Note_on_c, 2, 81, 0
4, 202145, Note_on_c, 2, 76, 0
4, 202160, Note_on_c, 2, 77, 70
4, 202230, Note_on_c, 2, 77, 0
4, 202240, Note_on_c, 2, 78, 75
4, 202300, Note_on_c, 2, 78, 0
4, 202320, Note_on_c, 2, 83, 84
4, 202440, Note_on_c, 2, 76, 70
4, 202450, Note_on_c, 2, 83, 0
4, 202535, Note_on_c, 2, 76, 0
4, 202560, Note_on_c, 2, 78, 86
4, 202640, Note_on_c, 2, 78, 0
4, 202680, Note_on_c, 2, 81, 88
4, 202790, Note_on_c, 2, 81, 0
4, 202795, Note_on_c, 2, 76, 68
4, 202875, Note_on_c, 2, 76, 0
4, 202880, Note_on_c, 2, 77, 75
4, 202960, Note_on_c, 2, 78, 73
4, 202970, Note_on_c, 2, 77, 0
4, 203035, Note_on_c, 2, 78, 0
4, 203035, Note_on_c, 2, 83, 87
4, 203160, Note_on_c, 2, 76, 90
4, 203190, Note_on_c, 2, 83, 0
4, 203265, Note_on_c, 2, 76, 0
4, 203280, Note_on_c, 2, 78, 90
4, 203375, Note_on_c, 2, 78, 0
4, 203400, Note_on_c, 2, 81, 79
4, 203525, Note_on_c, 2, 76, 70
4, 203530, Note_on_c, 2, 81, 0
4, 203600, Note_on_c, 2, 77, 77
4, 203625, Note_on_c, 2, 76, 0
4, 203680, Note_on_c, 2, 78, 72
4, 203685, Note_on_c, 2, 77, 0
4, 203740, Note_on_c, 2, 78, 0
4, 203760, Note_on_c, 2, 83, 91
4, 203880, Note_on_c, 2, 76, 70
4, 203905, Note_on_c, 2, 83, 0
4, 203990, Note_on_c, 2, 76, 0
4, 204000, Note_on_c, 2, 78, 93
4, 204115, Note_on_c, 2, 78, 0
4, 204115, Note_on_c, 2, 81, 76
4, 204240, Note_on_c, 2, 76, 68
4, 204255, Note_on_c, 2, 81, 0
4, 204325, Note_on_c, 2, 77, 78
4, 204350, Note_on_c, 2, 76, 0
4, 204395, Note_on_c, 2, 78, 74
4, 204410, Note_on_c, 2, 77, 0
4, 204475, Note_on_c, 2, 83, 96
4, 204480, Note_on_c, 2, 78, 0
4, 204960, Note_on_c, 2, 83, 0
4, 204960, End_track
5, 0, Start_track
5, 0, MIDI_port, 0
5, 0, Title_t, "tk4"
5, 497, Program_c, 3, 26
5, 498, Control_c, 3, 7, 100
5, 498, Control_c, 3, 10, 64
5, 570, Control_c, 3, 10, 64
5, 570, Control_c, 3, 11, 127
5, 575, Control_c, 3, 91, 80
5, 575, Control_c, 3, 93, 80
5, 9840, Note_on_c, 3, 62, 121
5, 9845, Control_c, 3, 1, 0
5, 9845, Pitch_bend_c, 3, 16383
5, 9975, Note_on_c, 3, 62, 0
5, 10210, Note_on_c, 3, 64, 120
5, 10330, Note_on_c, 3, 64, 0
5, 10550, Note_on_c, 3, 59, 117
5, 10785, Note_on_c, 3, 59, 0
5, 10790, Note_on_c, 3, 57, 105
5, 11190, Note_on_c, 3, 57, 0
5, 11520, Note_on_c, 3, 62, 108
5, 11665, Note_on_c, 3, 62, 0
5, 11760, Note_on_c, 3, 59, 97
5, 11860, Note_on_c, 3, 59, 0
5, 11880, Note_on_c, 3, 62, 115
5, 11950, Note_on_c, 3, 62, 0
5, 12080, Note_on_c, 3, 59, 73
5, 12150, Note_on_c, 3, 59, 0
5, 12230, Note_on_c, 3, 62, 119
5, 12300, Note_on_c, 3, 62, 0
5, 12470, Note_on_c, 3, 57, 109
5, 12505, Pitch_bend_c, 3, 16383
5, 12510, Pitch_bend_c, 3, 16383
5, 12515, Pitch_bend_c, 3, 16383
5, 12520, Pitch_bend_c, 3, 16383
5, 12530, Pitch_bend_c, 3, 16383
5, 12535, Pitch_bend_c, 3, 16383
5, 12540, Pitch_bend_c, 3, 16383
5, 12545, Pitch_bend_c, 3, 16383
5, 12550, Pitch_bend_c, 3, 16383
5, 12555, Pitch_bend_c, 3, 16383
5, 12560, Pitch_bend_c, 3, 16383
5, 12685, Pitch_bend_c, 3, 16383
5, 12690, Pitch_bend_c, 3, 16383
5, 12695, Pitch_bend_c, 3, 16383
5, 12700, Pitch_bend_c, 3, 16383
5, 12705, Pitch_bend_c, 3, 16383
5, 12710, Pitch_bend_c, 3, 16383
5, 12720, Pitch_bend_c, 3, 16383
5, 12730, Pitch_bend_c, 3, 16383
5, 13275, Note_on_c, 3, 57, 0
5, 13685, Note_on_c, 3, 55, 109
5, 13785, Note_on_c, 3, 55, 0
5, 13790, Note_on_c, 3, 55, 112
5, 13895, Note_on_c, 3, 55, 0
5, 13930, Note_on_c, 3, 55, 121
5, 14150, Note_on_c, 3, 55, 0
5, 14160, Note_on_c, 3, 52, 94
5, 14270, Note_on_c, 3, 52, 0
5, 14280, Note_on_c, 3, 55, 100
5, 14385, Note_on_c, 3, 55, 0
5, 14510, Note_on_c, 3, 57, 108
5, 14555, Pitch_bend_c, 3, 16383
5, 14560, Pitch_bend_c, 3, 16383
5, 14570, Pitch_bend_c, 3, 16383
5, 14575, Pitch_bend_c, 3, 16383
5, 14580, Pitch_bend_c, 3, 16383
5, 14585, Pitch_bend_c, 3, 16383
5, 14590, Pitch_bend_c, 3, 16383
5, 14595, Pitch_bend_c, 3, 16383
5, 14600, Pitch_bend_c, 3, 16383
5, 14605, Pitch_bend_c, 3, 16383
5, 14610, Pitch_bend_c, 3, 16383
5, 14615, Pitch_bend_c, 3, 16383
5, 14620, Pitch_bend_c, 3, 16383
5, 15110, Pitch_bend_c, 3, 16383
5, 15120, Note_on_c, 3, 57, 0
5, 15120, Pitch_bend_c, 3, 16383
5, 15125, Pitch_bend_c, 3, 16383
5, 15130, Pitch_bend_c, 3, 16383
5, 15135, Pitch_bend_c, 3, 16383
5, 15145, Pitch_bend_c, 3, 16383
5, 15150, Pitch_bend_c, 3, 16383
5, 15155, Pitch_bend_c, 3, 16383
5, 15370, Note_on_c, 3, 62, 117
5, 15465, Note_on_c, 3, 62, 0
5, 15605, Note_on_c, 3, 62, 109
5, 15700, Note_on_c, 3, 62, 0
5, 15725, Note_on_c, 3, 62, 113
5, 15785, Note_on_c, 3, 62, 0
5, 15950, Note_on_c, 3, 64, 110
5, 16020, Note_on_c, 3, 64, 0
5, 16190, Note_on_c, 3, 59, 110
5, 16960, Note_on_c, 3, 59, 0
5, 17510, Note_on_c, 3, 62, 120
5, 17620, Note_on_c, 3, 62, 0
5, 17640, Note_on_c, 3, 59, 88
5, 17750, Note_on_c, 3, 59, 0
5, 17750, Note_on_c, 3, 62, 115
5, 17975, Note_on_c, 3, 62, 0
5, 17985, Note_on_c, 3, 59, 94
5, 18100, Note_on_c, 3, 59, 0
5, 18110, Note_on_c, 3, 62, 106
5, 18195, Note_on_c, 3, 62, 0
5, 18340, Note_on_c, 3, 57, 108
5, 18370, Pitch_bend_c, 3, 8452
5, 18375, Pitch_bend_c, 3, 8712
5, 18385, Pitch_bend_c, 3, 8972
5, 18390, Pitch_bend_c, 3, 10532
5, 18395, Pitch_bend_c, 3, 11572
5, 18400, Pitch_bend_c, 3, 12482
5, 18410, Pitch_bend_c, 3, 13912
5, 18415, Pitch_bend_c, 3, 14432
5, 18420, Pitch_bend_c, 3, 15472
5, 18425, Pitch_bend_c, 3, 15862
5, 18430, Pitch_bend_c, 3, 16122
5, 18490, Pitch_bend_c, 3, 15342
5, 18495, Pitch_bend_c, 3, 14302
5, 18505, Pitch_bend_c, 3, 14172
5, 18510, Pitch_bend_c, 3, 11832
5, 18515, Pitch_bend_c, 3, 10532
5, 18520, Pitch_bend_c, 3, 9102
5, 18530, Pitch_bend_c, 3, 8192
5, 18930, Note_on_c, 3, 57, 0
5, 19210, Note_on_c, 3, 65, 118
5, 19300, Note_on_c, 3, 65, 0
5, 19320, Note_on_c, 3, 65, 105
5, 19410, Note_on_c, 3, 65, 0
5, 19430, Note_on_c, 3, 64, 120
5, 19560, Note_on_c, 3, 64, 0
5, 19565, Note_on_c, 3, 62, 110
5, 19790, Note_on_c, 3, 62, 0
5, 19790, Note_on_c, 3, 59, 86
5, 19895, Note_on_c, 3, 59, 0
5, 19900, Note_on_c, 3, 62, 105
5, 19930, Note_on_c, 3, 62, 0
5, 19935, Note_on_c, 3, 64, 108
5, 20870, Note_on_c, 3, 64, 0
5, 21230, Note_on_c, 3, 58, 113
5, 21340, Note_on_c, 3, 58, 0
5, 21345, Note_on_c, 3, 59, 111
5, 21465, Note_on_c, 3, 59, 0
5, 21470, Note_on_c, 3, 58, 109
5, 21585, Note_on_c, 3, 58, 0
5, 21590, Note_on_c, 3, 59, 121
5, 21825, Note_on_c, 3, 59, 0
5, 21830, Note_on_c, 3, 58, 105
5, 21945, Note_on_c, 3, 58, 0
5, 21950, Note_on_c, 3, 59, 108
5, 22185, Note_on_c, 3, 59, 0
5, 22190, Note_on_c, 3, 62, 108
5, 22310, Note_on_c, 3, 62, 0
5, 22440, Note_on_c, 3, 64, 111
5, 22790, Note_on_c, 3, 64, 0
5, 23045, Note_on_c, 3, 59, 108
5, 23260, Note_on_c, 3, 59, 0
5, 23265, Note_on_c, 3, 62, 105
5, 23390, Note_on_c, 3, 62, 0
5, 23390, Note_on_c, 3, 59, 95
5, 23510, Note_on_c, 3, 59, 0
5, 23630, Note_on_c, 3, 59, 110
5, 23750, Note_on_c, 3, 59, 0
5, 23750, Note_on_c, 3, 58, 92
5, 23870, Note_on_c, 3, 58, 0
5, 23880, Note_on_c, 3, 59, 117
5, 24450, Note_on_c, 3, 59, 0
5, 24615, Note_on_c, 3, 58, 117
5, 24720, Note_on_c, 3, 58, 0
5, 24720, Note_on_c, 3, 59, 119
5, 24880, Note_on_c, 3, 59, 0
5, 25205, Note_on_c, 3, 63, 127
5, 25310, Note_on_c, 3, 63, 0
5, 25450, Note_on_c, 3, 59, 127
5, 25610, Note_on_c, 3, 59, 0
5, 25920, Note_on_c, 3, 62, 127
5, 26000, Note_on_c, 3, 62, 0
5, 26040, Note_on_c, 3, 62, 118
5, 26145, Note_on_c, 3, 62, 0
5, 26150, Note_on_c, 3, 63, 118
5, 26280, Note_on_c, 3, 63, 0
5, 26750, Note_on_c, 3, 59, 108
5, 26860, Note_on_c, 3, 59, 0
5, 26865, Note_on_c, 3, 64, 117
5, 26980, Note_on_c, 3, 64, 0
5, 26990, Note_on_c, 3, 59, 95
5, 27100, Note_on_c, 3, 59, 0
5, 27110, Note_on_c, 3, 57, 106
5, 27230, Note_on_c, 3, 55, 70
5, 27250, Note_on_c, 3, 57, 0
5, 27350, Note_on_c, 3, 57, 119
5, 27370, Note_on_c, 3, 55, 0
5, 27470, Note_on_c, 3, 57, 0
5, 27470, Note_on_c, 3, 55, 97
5, 27585, Note_on_c, 3, 55, 0
5, 27590, Note_on_c, 3, 57, 108
5, 27710, Note_on_c, 3, 57, 0
5, 27710, Note_on_c, 3, 59, 123
5, 28200, Note_on_c, 3, 59, 0
5, 28440, Note_on_c, 3, 57, 127
5, 28550, Note_on_c, 3, 59, 127
5, 28560, Note_on_c, 3, 57, 0
5, 28665, Note_on_c, 3, 59, 0
5, 29040, Note_on_c, 3, 64, 120
5, 29145, Note_on_c, 3, 64, 0
5, 29390, Note_on_c, 3, 62, 127
5, 29495, Note_on_c, 3, 62, 0
5, 29630, Note_on_c, 3, 57, 124
5, 29690, Pitch_bend_c, 3, 8452
5, 29695, Pitch_bend_c, 3, 8712
5, 29700, Pitch_bend_c, 3, 9362
5, 29705, Pitch_bend_c, 3, 9622
5, 29710, Pitch_bend_c, 3, 9882
5, 29715, Pitch_bend_c, 3, 10142
5, 29720, Pitch_bend_c, 3, 10402
5, 29725, Pitch_bend_c, 3, 10662
5, 29730, Pitch_bend_c, 3, 10792
5, 29770, Pitch_bend_c, 3, 10662
5, 29790, Pitch_bend_c, 3, 8322
5, 29795, Pitch_bend_c, 3, 8192
5, 29875, Note_on_c, 3, 57, 0
5, 29880, Note_on_c, 3, 55, 107
5, 29990, Note_on_c, 3, 55, 0
5, 29990, Note_on_c, 3, 52, 95
5, 30110, Note_on_c, 3, 52, 0
5, 30110, Note_on_c, 3, 55, 100
5, 30225, Pitch_bend_c, 3, 8322
5, 30230, Pitch_bend_c, 3, 8712
5, 30240, Pitch_bend_c, 3, 8972
5, 30245, Pitch_bend_c, 3, 9102
5, 30270, Pitch_bend_c, 3, 8842
5, 30275, Pitch_bend_c, 3, 8192
5, 30475, Note_on_c, 3, 55, 0
5, 30480, Note_on_c, 3, 57, 117
5, 30535, Note_on_c, 3, 57, 0
5, 30950, Note_on_c, 3, 64, 124
5, 31055, Note_on_c, 3, 64, 0
5, 31320, Note_on_c, 3, 62, 121
5, 31405, Note_on_c, 3, 62, 0
5, 31550, Note_on_c, 3, 57, 113
5, 31595, Pitch_bend_c, 3, 8322
5, 31600, Pitch_bend_c, 3, 8582
5, 31610, Pitch_bend_c, 3, 9232
5, 31615, Pitch_bend_c, 3, 9492
5, 31620, Pitch_bend_c, 3, 9882
5, 31625, Pitch_bend_c, 3, 10142
5, 31630, Pitch_bend_c, 3, 10272
5, 31635, Pitch_bend_c, 3, 10532
5, 31640, Pitch_bend_c, 3, 10662
5, 31645, Pitch_bend_c, 3, 10922
5, 31665, Pitch_bend_c, 3, 10792
5, 31670, Pitch_bend_c, 3, 10272
5, 31680, Pitch_bend_c, 3, 10012
5, 31685, Pitch_bend_c, 3, 9752
5, 31690, Pitch_bend_c, 3, 8192
5, 31785, Note_on_c, 3, 57, 0
5, 31790, Note_on_c, 3, 55, 106
5, 31905, Note_on_c, 3, 55, 0
5, 31910, Note_on_c, 3, 52, 94
5, 32020, Note_on_c, 3, 52, 0
5, 32025, Note_on_c, 3, 55, 108
5, 32395, Note_on_c, 3, 55, 0
5, 32400, Note_on_c, 3, 57, 113
5, 32485, Note_on_c, 3, 57, 0
5, 32870, Note_on_c, 3, 65, 127
5, 33230, Note_on_c, 3, 65, 0
5, 33250, Note_on_c, 3, 62, 99
5, 33355, Note_on_c, 3, 62, 0
5, 33360, Note_on_c, 3, 64, 115
5, 33560, Note_on_c, 3, 64, 0
5, 33615, Note_on_c, 3, 64, 121
5, 33955, Note_on_c, 3, 64, 0
5, 33960, Note_on_c, 3, 62, 120
5, 34200, Note_on_c, 3, 62, 0
5, 34780, Note_on_c, 3, 67, 124
5, 35190, Note_on_c, 3, 67, 0
5, 35380, Note_on_c, 3, 67, 127
5, 35620, Note_on_c, 3, 67, 0
5, 35630, Note_on_c, 3, 58, 114
5, 35715, Note_on_c, 3, 58, 0
5, 35750, Note_on_c, 3, 58, 112
5, 35870, Note_on_c, 3, 58, 0
5, 35870, Note_on_c, 3, 57, 113
5, 35985, Note_on_c, 3, 57, 0
5, 35990, Note_on_c, 3, 55, 98
5, 36105, Note_on_c, 3, 55, 0
5, 36110, Note_on_c, 3, 57, 115
5, 36230, Note_on_c, 3, 57, 0
5, 36230, Note_on_c, 3, 55, 121
5, 37095, Note_on_c, 3, 55, 0
5, 39975, Note_on_c, 3, 59, 102
5, 40080, Note_on_c, 3, 62, 108
5, 40090, Note_on_c, 3, 59, 0
5, 40195, Note_on_c, 3, 62, 0
5, 40200, Note_on_c, 3, 59, 117
5, 40300, Note_on_c, 3, 59, 0
5, 40570, Note_on_c, 3, 63, 110
5, 40670, Note_on_c, 3, 63, 0
5, 40800, Note_on_c, 3, 59, 124
5, 40950, Note_on_c, 3, 59, 0
5, 41280, Note_on_c, 3, 62, 120
5, 41380, Note_on_c, 3, 62, 0
5, 41390, Note_on_c, 3, 62, 106
5, 41510, Note_on_c, 3, 62, 0
5, 41510, Note_on_c, 3, 63, 127
5, 41650, Note_on_c, 3, 63, 0
5, 42225, Note_on_c, 3, 64, 121
5, 42345, Note_on_c, 3, 64, 0
5, 42350, Note_on_c, 3, 59, 87
5, 42460, Note_on_c, 3, 59, 0
5, 42465, Note_on_c, 3, 64, 101
5, 42580, Note_on_c, 3, 64, 0
5, 42590, Note_on_c, 3, 59, 94
5, 42710, Note_on_c, 3, 59, 0
5, 42710, Note_on_c, 3, 64, 102
5, 42820, Note_on_c, 3, 64, 0
5, 42825, Note_on_c, 3, 59, 93
5, 42920, Note_on_c, 3, 59, 0
5, 42940, Note_on_c, 3, 55, 94
5, 42950, Pitch_bend_c, 3, 8842
5, 42960, Pitch_bend_c, 3, 9752
5, 42965, Pitch_bend_c, 3, 10142
5, 42970, Pitch_bend_c, 3, 11572
5, 42975, Pitch_bend_c, 3, 12612
5, 42985, Pitch_bend_c, 3, 13262
5, 42990, Pitch_bend_c, 3, 14692
5, 42995, Pitch_bend_c, 3, 15732
5, 43000, Pitch_bend_c, 3, 15992
5, 43010, Pitch_bend_c, 3, 16382
5, 43070, Pitch_bend_c, 3, 14952
5, 43075, Note_on_c, 3, 55, 0
5, 43080, Note_on_c, 3, 55, 88
5, 43080, Pitch_bend_c, 3, 14172
5, 43085, Pitch_bend_c, 3, 13132
5, 43090, Pitch_bend_c, 3, 10142
5, 43095, Pitch_bend_c, 3, 8712
5, 43105, Pitch_bend_c, 3, 8192
5, 43195, Note_on_c, 3, 55, 0
5, 43200, Note_on_c, 3, 57, 100
5, 43315, Note_on_c, 3, 57, 0
5, 43320, Note_on_c, 3, 55, 95
5, 43440, Note_on_c, 3, 55, 0
5, 43445, Note_on_c, 3, 59, 108
5, 43570, Note_on_c, 3, 59, 0
5, 43800, Note_on_c, 3, 57, 106
5, 43920, Note_on_c, 3, 57, 0
5, 43925, Note_on_c, 3, 59, 115
5, 44020, Note_on_c, 3, 59, 0
5, 44410, Note_on_c, 3, 64, 119
5, 44730, Note_on_c, 3, 64, 0
5, 44750, Note_on_c, 3, 62, 108
5, 44865, Note_on_c, 3, 62, 0
5, 44870, Note_on_c, 3, 64, 108
5, 44975, Note_on_c, 3, 64, 0
5, 45105, Note_on_c, 3, 57, 115
5, 45135, Pitch_bend_c, 3, 8322
5, 45145, Pitch_bend_c, 3, 8582
5, 45150, Pitch_bend_c, 3, 10922
5, 45155, Pitch_bend_c, 3, 12352
5, 45160, Pitch_bend_c, 3, 13652
5, 45170, Pitch_bend_c, 3, 15212
5, 45175, Pitch_bend_c, 3, 16382
5, 45230, Pitch_bend_c, 3, 15992
5, 45240, Pitch_bend_c, 3, 14432
5, 45245, Pitch_bend_c, 3, 14302
5, 45250, Pitch_bend_c, 3, 11962
5, 45255, Pitch_bend_c, 3, 10402
5, 45265, Pitch_bend_c, 3, 9752
5, 45270, Pitch_bend_c, 3, 8192
5, 45345, Note_on_c, 3, 57, 0
5, 45350, Note_on_c, 3, 55, 104
5, 45465, Note_on_c, 3, 55, 0
5, 45470, Note_on_c, 3, 56, 111
5, 45720, Note_on_c, 3, 56, 0
5, 45725, Note_on_c, 3, 52, 99
5, 45925, Note_on_c, 3, 52, 0
5, 46310, Note_on_c, 3, 64, 121
5, 46415, Note_on_c, 3, 64, 0
5, 46670, Note_on_c, 3, 62, 120
5, 46780, Note_on_c, 3, 62, 0
5, 46910, Note_on_c, 3, 57, 116
5, 46950, Pitch_bend_c, 3, 8582
5, 46955, Pitch_bend_c, 3, 8842
5, 46960, Pitch_bend_c, 3, 9102
5, 46970, Pitch_bend_c, 3, 10012
5, 46975, Pitch_bend_c, 3, 10272
5, 46980, Pitch_bend_c, 3, 10402
5, 46985, Pitch_bend_c, 3, 10922
5, 46990, Pitch_bend_c, 3, 11052
5, 46995, Pitch_bend_c, 3, 11312
5, 47010, Pitch_bend_c, 3, 11572
5, 47030, Pitch_bend_c, 3, 11442
5, 47040, Pitch_bend_c, 3, 11312
5, 47045, Pitch_bend_c, 3, 8712
5, 47050, Pitch_bend_c, 3, 8192
5, 47145, Note_on_c, 3, 57, 0
5, 47150, Note_on_c, 3, 55, 104
5, 47260, Note_on_c, 3, 55, 0
5, 47265, Note_on_c, 3, 52, 96
5, 47380, Note_on_c, 3, 52, 0
5, 47390, Note_on_c, 3, 55, 109
5, 47755, Note_on_c, 3, 55, 0
5, 47760, Note_on_c, 3, 57, 113
5, 47825, Note_on_c, 3, 57, 0
5, 48240, Note_on_c, 3, 62, 122
5, 48480, Note_on_c, 3, 62, 0
5, 48600, Note_on_c, 3, 62, 113
5, 48690, Note_on_c, 3, 62, 0
5, 48720, Note_on_c, 3, 64, 114
5, 48880, Note_on_c, 3, 64, 0
5, 48950, Note_on_c, 3, 59, 121
5, 49195, Note_on_c, 3, 59, 0
5, 49200, Note_on_c, 3, 57, 109
5, 49410, Note_on_c, 3, 57, 0
5, 50150, Note_on_c, 3, 67, 127
5, 50750, Note_on_c, 3, 67, 0
5, 51110, Note_on_c, 3, 59, 127
5, 51225, Note_on_c, 3, 59, 0
5, 51230, Note_on_c, 3, 58, 103
5, 51340, Note_on_c, 3, 58, 0
5, 51350, Note_on_c, 3, 59, 113
5, 51430, Note_on_c, 3, 59, 0
5, 51485, Note_on_c, 3, 59, 109
5, 51590, Note_on_c, 3, 58, 94
5, 51600, Note_on_c, 3, 59, 0
5, 51710, Note_on_c, 3, 58, 0
5, 51710, Note_on_c, 3, 59, 127
5, 51950, Note_on_c, 3, 59, 0
5, 51950, Note_on_c, 3, 55, 105
5, 52390, Note_on_c, 3, 55, 0
5, 55310, Note_on_c, 3, 61, 102
5, 55435, Note_on_c, 3, 61, 0
5, 55440, Note_on_c, 3, 62, 117
5, 55565, Note_on_c, 3, 62, 0
5, 55910, Note_on_c, 3, 65, 117
5, 56030, Note_on_c, 3, 65, 0
5, 56280, Note_on_c, 3, 64, 115
5, 56520, Note_on_c, 3, 64, 0
5, 56525, Note_on_c, 3, 62, 95
5, 56630, Note_on_c, 3, 62, 0
5, 56630, Note_on_c, 3, 64, 103
5, 56750, Note_on_c, 3, 64, 0
5, 56750, Note_on_c, 3, 62, 96
5, 57030, Note_on_c, 3, 62, 0
5, 57225, Note_on_c, 3, 59, 98
5, 57335, Note_on_c, 3, 59, 0
5, 57340, Note_on_c, 3, 62, 107
5, 57425, Note_on_c, 3, 62, 0
5, 57610, Note_on_c, 3, 65, 117
5, 57675, Note_on_c, 3, 65, 0
5, 57840, Note_on_c, 3, 62, 102
5, 57970, Note_on_c, 3, 62, 0
5, 57970, Note_on_c, 3, 64, 107
5, 58190, Note_on_c, 3, 64, 0
5, 58190, Note_on_c, 3, 62, 94
5, 58305, Note_on_c, 3, 62, 0
5, 58310, Note_on_c, 3, 64, 96
5, 58435, Note_on_c, 3, 64, 0
5, 58440, Note_on_c, 3, 62, 105
5, 58705, Note_on_c, 3, 62, 0
5, 58910, Note_on_c, 3, 58, 111
5, 59020, Note_on_c, 3, 58, 0
5, 59025, Note_on_c, 3, 59, 110
5, 59145, Note_on_c, 3, 59, 0
5, 59150, Note_on_c, 3, 62, 104
5, 59270, Note_on_c, 3, 62, 0
5, 59770, Note_on_c, 3, 67, 110
5, 59970, Note_on_c, 3, 67, 0
5, 60120, Note_on_c, 3, 59, 115
5, 60320, Note_on_c, 3, 59, 0
5, 60345, Note_on_c, 3, 58, 105
5, 60460, Note_on_c, 3, 58, 0
5, 60465, Note_on_c, 3, 59, 117
5, 60590, Note_on_c, 3, 59, 0
5, 60705, Note_on_c, 3, 62, 106
5, 60830, Note_on_c, 3, 62, 0
5, 60850, Note_on_c, 3, 59, 108
5, 61055, Note_on_c, 3, 58, 91
5, 61070, Note_on_c, 3, 59, 0
5, 61180, Note_on_c, 3, 58, 0
5, 61185, Note_on_c, 3, 59, 120
5, 61270, Note_on_c, 3, 59, 0
5, 61670, Note_on_c, 3, 67, 113
5, 61910, Note_on_c, 3, 67, 0
5, 62030, Note_on_c, 3, 58, 95
5, 62230, Note_on_c, 3, 58, 0
5, 62270, Note_on_c, 3, 59, 106
5, 62615, Note_on_c, 3, 62, 106
5, 62630, Note_on_c, 3, 59, 0
5, 62735, Note_on_c, 3, 62, 0
5, 62750, Note_on_c, 3, 64, 112
5, 63100, Note_on_c, 3, 64, 0
5, 63105, Note_on_c, 3, 62, 113
5, 63180, Note_on_c, 3, 62, 0
5, 63590, Note_on_c, 3, 69, 115
5, 63710, Note_on_c, 3, 69, 0
5, 63970, Note_on_c, 3, 65, 102
5, 63990, Note_on_c, 3, 65, 0
5, 63995, Note_on_c, 3, 66, 115
5, 64295, Note_on_c, 3, 66, 0
5, 64300, Note_on_c, 3, 62, 106
5, 64675, Note_on_c, 3, 62, 0
5, 64680, Note_on_c, 3, 64, 109
5, 64755, Note_on_c, 3, 64, 0
5, 65270, Note_on_c, 3, 69, 111
5, 65385, Note_on_c, 3, 69, 0
5, 65405, Note_on_c, 3, 65, 97
5, 65440, Note_on_c, 3, 65, 0
5, 65445, Note_on_c, 3, 66, 111
5, 65745, Note_on_c, 3, 66, 0
5, 65760, Note_on_c, 3, 62, 98
5, 66000, Note_on_c, 3, 62, 0
5, 66010, Note_on_c, 3, 59, 105
5, 66130, Note_on_c, 3, 59, 0
5, 66150, Note_on_c, 3, 64, 109
5, 66230, Note_on_c, 3, 64, 0
5, 66735, Note_on_c, 3, 59, 113
5, 66830, Note_on_c, 3, 59, 0
5, 66855, Note_on_c, 3, 62, 121
5, 66960, Note_on_c, 3, 62, 0
5, 67435, Note_on_c, 3, 67, 117
5, 67800, Note_on_c, 3, 67, 0
5, 67805, Note_on_c, 3, 64, 108
5, 68145, Note_on_c, 3, 64, 0
5, 68155, Note_on_c, 3, 67, 109
5, 68280, Note_on_c, 3, 67, 0
5, 68285, Note_on_c, 3, 59, 92
5, 68400, Note_on_c, 3, 59, 0
5, 68405, Note_on_c, 3, 58, 99
5, 68525, Note_on_c, 3, 58, 0
5, 68530, Note_on_c, 3, 59, 106
5, 68870, Note_on_c, 3, 59, 0
5, 68875, Note_on_c, 3, 62, 110
5, 68955, Note_on_c, 3, 62, 0
5, 69125, Note_on_c, 3, 64, 111
5, 69210, Note_on_c, 3, 64, 0
5, 69360, Note_on_c, 3, 59, 98
5, 69480, Note_on_c, 3, 59, 0
5, 69485, Note_on_c, 3, 62, 111
5, 69715, Note_on_c, 3, 62, 0
5, 69725, Note_on_c, 3, 64, 113
5, 69845, Note_on_c, 3, 64, 0
5, 69965, Note_on_c, 3, 59, 107
5, 70255, Note_on_c, 3, 59, 0
5, 70555, Note_on_c, 3, 58, 103
5, 70670, Note_on_c, 3, 58, 0
5, 70690, Note_on_c, 3, 59, 111
5, 70840, Note_on_c, 3, 59, 0
5, 71280, Note_on_c, 3, 63, 115
5, 71410, Note_on_c, 3, 63, 0
5, 71525, Note_on_c, 3, 59, 120
5, 71675, Note_on_c, 3, 59, 0
5, 72005, Note_on_c, 3, 62, 127
5, 72110, Note_on_c, 3, 62, 0
5, 72130, Note_on_c, 3, 62, 109
5, 72230, Note_on_c, 3, 62, 0
5, 72240, Note_on_c, 3, 63, 110
5, 72390, Note_on_c, 3, 63, 0
5, 72840, Note_on_c, 3, 59, 107
5, 72925, Note_on_c, 3, 59, 0
5, 72950, Note_on_c, 3, 64, 115
5, 73080, Note_on_c, 3, 64, 0
5, 73085, Note_on_c, 3, 59, 98
5, 73185, Note_on_c, 3, 59, 0
5, 73190, Note_on_c, 3, 57, 108
5, 73310, Note_on_c, 3, 55, 70
5, 73330, Note_on_c, 3, 57, 0
5, 73430, Note_on_c, 3, 57, 117
5, 73450, Note_on_c, 3, 55, 0
5, 73555, Note_on_c, 3, 57, 0
5, 73560, Note_on_c, 3, 55, 101
5, 73660, Note_on_c, 3, 55, 0
5, 73665, Note_on_c, 3, 57, 101
5, 73785, Note_on_c, 3, 57, 0
5, 73790, Note_on_c, 3, 59, 115
5, 74305, Note_on_c, 3, 59, 0
5, 74520, Note_on_c, 3, 57, 110
5, 74635, Note_on_c, 3, 57, 0
5, 74640, Note_on_c, 3, 59, 115
5, 74730, Note_on_c, 3, 59, 0
5, 75130, Note_on_c, 3, 64, 119
5, 75220, Note_on_c, 3, 64, 0
5, 75470, Note_on_c, 3, 62, 127
5, 75560, Note_on_c, 3, 62, 0
5, 75705, Note_on_c, 3, 57, 124
5, 75750, Pitch_bend_c, 3, 8452
5, 75755, Pitch_bend_c, 3, 8712
5, 75760, Pitch_bend_c, 3, 8972
5, 75770, Pitch_bend_c, 3, 9882
5, 75775, Pitch_bend_c, 3, 10012
5, 75780, Pitch_bend_c, 3, 10402
5, 75785, Pitch_bend_c, 3, 10792
5, 75790, Pitch_bend_c, 3, 11052
5, 75795, Pitch_bend_c, 3, 11442
5, 75800, Pitch_bend_c, 3, 11572
5, 75805, Pitch_bend_c, 3, 11832
5, 75810, Pitch_bend_c, 3, 12092
5, 75815, Pitch_bend_c, 3, 12482
5, 75820, Pitch_bend_c, 3, 12612
5, 75825, Pitch_bend_c, 3, 12742
5, 75840, Pitch_bend_c, 3, 8192
5, 75945, Note_on_c, 3, 57, 0
5, 75950, Note_on_c, 3, 55, 99
5, 76070, Note_on_c, 3, 55, 0
5, 76070, Note_on_c, 3, 52, 97
5, 76190, Note_on_c, 3, 52, 0
5, 76190, Note_on_c, 3, 55, 101
5, 76550, Note_on_c, 3, 55, 0
5, 76550, Note_on_c, 3, 57, 113
5, 76645, Note_on_c, 3, 57, 0
5, 77030, Note_on_c, 3, 67, 120
5, 77120, Note_on_c, 3, 67, 0
5, 77400, Note_on_c, 3, 64, 127
5, 77525, Note_on_c, 3, 64, 0
5, 77630, Note_on_c, 3, 64, 111
5, 77765, Note_on_c, 3, 64, 0
5, 77770, Note_on_c, 3, 62, 121
5, 77890, Note_on_c, 3, 62, 0
5, 78000, Note_on_c, 3, 57, 117
5, 78030, Pitch_bend_c, 3, 8322
5, 78035, Pitch_bend_c, 3, 8582
5, 78040, Pitch_bend_c, 3, 8842
5, 78050, Pitch_bend_c, 3, 9492
5, 78055, Pitch_bend_c, 3, 9752
5, 78060, Pitch_bend_c, 3, 9882
5, 78065, Pitch_bend_c, 3, 10012
5, 78070, Pitch_bend_c, 3, 10402
5, 78075, Pitch_bend_c, 3, 10532
5, 78080, Pitch_bend_c, 3, 10662
5, 78085, Pitch_bend_c, 3, 10922
5, 78090, Pitch_bend_c, 3, 11312
5, 78095, Pitch_bend_c, 3, 11442
5, 78100, Pitch_bend_c, 3, 11702
5, 78105, Pitch_bend_c, 3, 11832
5, 78110, Pitch_bend_c, 3, 11962
5, 78120, Pitch_bend_c, 3, 11702
5, 78125, Pitch_bend_c, 3, 10922
5, 78130, Pitch_bend_c, 3, 8192
5, 78225, Note_on_c, 3, 57, 0
5, 78230, Note_on_c, 3, 55, 98
5, 78350, Note_on_c, 3, 55, 0
5, 78370, Note_on_c, 3, 57, 113
5, 78580, Note_on_c, 3, 57, 0
5, 78950, Note_on_c, 3, 65, 119
5, 79070, Note_on_c, 3, 65, 0
5, 79310, Note_on_c, 3, 64, 120
5, 79425, Note_on_c, 3, 64, 0
5, 79655, Note_on_c, 3, 64, 121
5, 80025, Note_on_c, 3, 64, 0
5, 80030, Note_on_c, 3, 62, 120
5, 80390, Note_on_c, 3, 62, 0
5, 80390, Note_on_c, 3, 64, 113
5, 80460, Note_on_c, 3, 64, 0
5, 80855, Note_on_c, 3, 67, 107
5, 81350, Note_on_c, 3, 67, 0
5, 81470, Note_on_c, 3, 67, 124
5, 81735, Note_on_c, 3, 58, 102
5, 81820, Note_on_c, 3, 58, 0
5, 81830, Note_on_c, 3, 67, 0
5, 81870, Note_on_c, 3, 58, 108
5, 81985, Note_on_c, 3, 58, 0
5, 81990, Note_on_c, 3, 57, 107
5, 82115, Note_on_c, 3, 55, 94
5, 82120, Note_on_c, 3, 57, 0
5, 82205, Note_on_c, 3, 57, 120
5, 82220, Note_on_c, 3, 55, 0
5, 82330, Note_on_c, 3, 57, 0
5, 82340, Note_on_c, 3, 55, 108
5, 82930, Note_on_c, 3, 55, 0
5, 101415, Note_on_c, 3, 58, 110
5, 101535, Note_on_c, 3, 58, 0
5, 101540, Note_on_c, 3, 59, 111
5, 101750, Note_on_c, 3, 59, 0
5, 102005, Note_on_c, 3, 63, 127
5, 102110, Note_on_c, 3, 63, 0
5, 102250, Note_on_c, 3, 59, 127
5, 102410, Note_on_c, 3, 59, 0
5, 102720, Note_on_c, 3, 62, 127
5, 102800, Note_on_c, 3, 62, 0
5, 102840, Note_on_c, 3, 62, 112
5, 102945, Note_on_c, 3, 62, 0
5, 102950, Note_on_c, 3, 63, 111
5, 103080, Note_on_c, 3, 63, 0
5, 103550, Note_on_c, 3, 59, 108
5, 103660, Note_on_c, 3, 59, 0
5, 103665, Note_on_c, 3, 64, 117
5, 103780, Note_on_c, 3, 64, 0
5, 103790, Note_on_c, 3, 59, 94
5, 103900, Note_on_c, 3, 59, 0
5, 103910, Note_on_c, 3, 57, 106
5, 104030, Note_on_c, 3, 55, 70
5, 104050, Note_on_c, 3, 57, 0
5, 104150, Note_on_c, 3, 57, 119
5, 104170, Note_on_c, 3, 55, 0
5, 104270, Note_on_c, 3, 57, 0
5, 104270, Note_on_c, 3, 55, 97
5, 104385, Note_on_c, 3, 55, 0
5, 104390, Note_on_c, 3, 57, 108
5, 104510, Note_on_c, 3, 57, 0
5, 104510, Note_on_c, 3, 59, 123
5, 105000, Note_on_c, 3, 59, 0
5, 105240, Note_on_c, 3, 57, 127
5, 105350, Note_on_c, 3, 59, 127
5, 105360, Note_on_c, 3, 57, 0
5, 105465, Note_on_c, 3, 59, 0
5, 105840, Note_on_c, 3, 64, 120
5, 105945, Note_on_c, 3, 64, 0
5, 106190, Note_on_c, 3, 62, 127
5, 106295, Note_on_c, 3, 62, 0
5, 106430, Note_on_c, 3, 57, 124
5, 106490, Pitch_bend_c, 3, 8452
5, 106495, Pitch_bend_c, 3, 8582
5, 106500, Pitch_bend_c, 3, 9232
5, 106505, Pitch_bend_c, 3, 9752
5, 106510, Pitch_bend_c, 3, 10012
5, 106515, Pitch_bend_c, 3, 10142
5, 106520, Pitch_bend_c, 3, 10532
5, 106525, Pitch_bend_c, 3, 10662
5, 106530, Pitch_bend_c, 3, 10792
5, 106570, Pitch_bend_c, 3, 10662
5, 106590, Pitch_bend_c, 3, 8322
5, 106595, Pitch_bend_c, 3, 8192
5, 106675, Note_on_c, 3, 57, 0
5, 106680, Note_on_c, 3, 55, 107
5, 106790, Note_on_c, 3, 55, 0
5, 106790, Note_on_c, 3, 52, 95
5, 106910, Note_on_c, 3, 52, 0
5, 106910, Note_on_c, 3, 55, 100
5, 107025, Pitch_bend_c, 3, 8322
5, 107030, Pitch_bend_c, 3, 8712
5, 107040, Pitch_bend_c, 3, 8972
5, 107045, Pitch_bend_c, 3, 9102
5, 107070, Pitch_bend_c, 3, 8972
5, 107075, Pitch_bend_c, 3, 8192
5, 107275, Note_on_c, 3, 55, 0
5, 107280, Note_on_c, 3, 57, 117
5, 107335, Note_on_c, 3, 57, 0
5, 107750, Note_on_c, 3, 64, 124
5, 107855, Note_on_c, 3, 64, 0
5, 108120, Note_on_c, 3, 62, 121
5, 108205, Note_on_c, 3, 62, 0
5, 108350, Note_on_c, 3, 57, 113
5, 108395, Pitch_bend_c, 3, 8322
5, 108400, Pitch_bend_c, 3, 8582
5, 108410, Pitch_bend_c, 3, 9362
5, 108415, Pitch_bend_c, 3, 9622
5, 108420, Pitch_bend_c, 3, 9882
5, 108425, Pitch_bend_c, 3, 10012
5, 108430, Pitch_bend_c, 3, 10402
5, 108435, Pitch_bend_c, 3, 10532
5, 108440, Pitch_bend_c, 3, 10792
5, 108445, Pitch_bend_c, 3, 10922
5, 108465, Pitch_bend_c, 3, 10792
5, 108470, Pitch_bend_c, 3, 10272
5, 108480, Pitch_bend_c, 3, 10142
5, 108485, Pitch_bend_c, 3, 9622
5, 108490, Pitch_bend_c, 3, 8192
5, 108585, Note_on_c, 3, 57, 0
5, 108600, Note_on_c, 3, 55, 107
5, 108710, Note_on_c, 3, 55, 0
5, 108710, Note_on_c, 3, 52, 94
5, 108820, Note_on_c, 3, 52, 0
5, 108825, Note_on_c, 3, 55, 108
5, 109195, Note_on_c, 3, 55, 0
5, 109200, Note_on_c, 3, 57, 113
5, 109285, Note_on_c, 3, 57, 0
5, 109670, Note_on_c, 3, 65, 127
5, 110030, Note_on_c, 3, 65, 0
5, 110050, Note_on_c, 3, 62, 99
5, 110155, Note_on_c, 3, 62, 0
5, 110160, Note_on_c, 3, 64, 115
5, 110360, Note_on_c, 3, 64, 0
5, 110415, Note_on_c, 3, 64, 121
5, 110755, Note_on_c, 3, 64, 0
5, 110760, Note_on_c, 3, 62, 120
5, 111000, Note_on_c, 3, 62, 0
5, 111005, Note_on_c, 3, 64, 113
5, 111085, Note_on_c, 3, 64, 0
5, 111580, Note_on_c, 3, 67, 124
5, 111990, Note_on_c, 3, 67, 0
5, 112180, Note_on_c, 3, 67, 127
5, 112420, Note_on_c, 3, 67, 0
5, 112430, Note_on_c, 3, 58, 114
5, 112515, Note_on_c, 3, 58, 0
5, 112550, Note_on_c, 3, 58, 112
5, 112670, Note_on_c, 3, 58, 0
5, 112670, Note_on_c, 3, 57, 113
5, 112785, Note_on_c, 3, 57, 0
5, 112790, Note_on_c, 3, 55, 98
5, 112905, Note_on_c, 3, 55, 0
5, 112910, Note_on_c, 3, 57, 115
5, 113030, Note_on_c, 3, 57, 0
5, 113030, Note_on_c, 3, 55, 121
5, 113895, Note_on_c, 3, 55, 0
5, 116760, Note_on_c, 3, 59, 105
5, 116880, Note_on_c, 3, 59, 0
5, 116885, Note_on_c, 3, 62, 110
5, 116990, Note_on_c, 3, 62, 0
5, 117350, Note_on_c, 3, 65, 121
5, 117480, Note_on_c, 3, 65, 0
5, 117725, Note_on_c, 3, 64, 115
5, 117830, Note_on_c, 3, 64, 0
5, 117950, Note_on_c, 3, 62, 105
5, 118070, Note_on_c, 3, 62, 0
5, 118090, Note_on_c, 3, 64, 107
5, 118320, Note_on_c, 3, 62, 105
5, 118330, Note_on_c, 3, 64, 0
5, 118585, Note_on_c, 3, 62, 0
5, 118920, Note_on_c, 3, 65, 127
5, 119135, Note_on_c, 3, 65, 0
5, 119140, Note_on_c, 3, 64, 98
5, 119270, Note_on_c, 3, 64, 0
5, 119270, Note_on_c, 3, 62, 104
5, 119395, Note_on_c, 3, 62, 0
5, 119400, Note_on_c, 3, 59, 96
5, 119500, Note_on_c, 3, 59, 0
5, 119510, Note_on_c, 3, 62, 104
5, 119650, Note_on_c, 3, 62, 0
5, 119750, Note_on_c, 3, 62, 101
5, 119875, Note_on_c, 3, 62, 0
5, 119880, Note_on_c, 3, 64, 117
5, 120025, Note_on_c, 3, 64, 0
5, 120130, Note_on_c, 3, 67, 112
5, 120205, Note_on_c, 3, 67, 0
5, 120360, Note_on_c, 3, 70, 127
5, 120725, Note_on_c, 3, 70, 0
5, 120730, Note_on_c, 3, 67, 108
5, 120910, Note_on_c, 3, 67, 0
5, 121185, Note_on_c, 3, 67, 110
5, 121320, Note_on_c, 3, 67, 0
5, 121325, Note_on_c, 3, 64, 94
5, 121435, Note_on_c, 3, 64, 0
5, 121440, Note_on_c, 3, 67, 104
5, 121665, Note_on_c, 3, 67, 0
5, 121670, Note_on_c, 3, 64, 95
5, 121790, Note_on_c, 3, 64, 0
5, 121790, Note_on_c, 3, 67, 105
5, 121900, Note_on_c, 3, 67, 0
5, 122030, Note_on_c, 3, 58, 97
5, 122130, Note_on_c, 3, 58, 0
5, 122270, Note_on_c, 3, 59, 108
5, 122430, Note_on_c, 3, 59, 0
5, 122520, Note_on_c, 3, 62, 108
5, 122820, Note_on_c, 3, 62, 0
5, 122985, Note_on_c, 3, 58, 101
5, 123105, Note_on_c, 3, 58, 0
5, 123110, Note_on_c, 3, 59, 104
5, 123210, Note_on_c, 3, 59, 0
5, 123215, Note_on_c, 3, 58, 94
5, 123325, Note_on_c, 3, 58, 0
5, 123345, Note_on_c, 3, 59, 110
5, 123585, Note_on_c, 3, 59, 0
5, 123590, Note_on_c, 3, 62, 105
5, 123725, Note_on_c, 3, 62, 0
5, 123730, Note_on_c, 3, 64, 113
5, 123950, Note_on_c, 3, 64, 0
5, 123950, Note_on_c, 3, 62, 101
5, 124065, Note_on_c, 3, 62, 0
5, 124560, Note_on_c, 3, 62, 125
5, 124660, Note_on_c, 3, 62, 0
5, 125040, Note_on_c, 3, 65, 121
5, 125385, Note_on_c, 3, 65, 0
5, 125390, Note_on_c, 3, 62, 91
5, 125510, Note_on_c, 3, 62, 0
5, 125510, Note_on_c, 3, 65, 104
5, 125755, Note_on_c, 3, 65, 0
5, 125760, Note_on_c, 3, 62, 111
5, 126110, Note_on_c, 3, 62, 0
5, 126120, Note_on_c, 3, 59, 108
5, 126470, Note_on_c, 3, 59, 0
5, 126470, Note_on_c, 3, 57, 98
5, 126560, Note_on_c, 3, 57, 0
5, 126950, Note_on_c, 3, 65, 115
5, 127315, Note_on_c, 3, 65, 0
5, 127320, Note_on_c, 3, 62, 94
5, 127435, Note_on_c, 3, 62, 0
5, 127440, Note_on_c, 3, 64, 108
5, 127685, Note_on_c, 3, 64, 0
5, 127690, Note_on_c, 3, 62, 108
5, 128020, Note_on_c, 3, 62, 0
5, 128025, Note_on_c, 3, 63, 98
5, 128035, Note_on_c, 3, 63, 0
5, 128040, Note_on_c, 3, 64, 107
5, 128270, Note_on_c, 3, 64, 0
5, 128285, Note_on_c, 3, 67, 107
5, 128435, Note_on_c, 3, 67, 0
5, 128865, Note_on_c, 3, 67, 111
5, 128990, Note_on_c, 3, 67, 0
5, 129240, Note_on_c, 3, 59, 110
5, 129355, Note_on_c, 3, 59, 0
5, 129360, Note_on_c, 3, 58, 97
5, 129475, Note_on_c, 3, 58, 0
5, 129480, Note_on_c, 3, 59, 106
5, 129710, Note_on_c, 3, 59, 0
5, 129745, Note_on_c, 3, 62, 111
5, 129830, Note_on_c, 3, 62, 0
5, 129975, Note_on_c, 3, 64, 119
5, 130325, Note_on_c, 3, 62, 107
5, 130335, Note_on_c, 3, 64, 0
5, 130415, Note_on_c, 3, 62, 0
5, 130800, Note_on_c, 3, 67, 110
5, 131145, Note_on_c, 3, 67, 0
5, 131150, Note_on_c, 3, 58, 101
5, 131235, Note_on_c, 3, 58, 0
5, 131390, Note_on_c, 3, 59, 108
5, 131510, Note_on_c, 3, 59, 0
5, 131640, Note_on_c, 3, 62, 114
5, 132080, Note_on_c, 3, 62, 0
5, 132100, Note_on_c, 3, 59, 98
5, 132220, Note_on_c, 3, 59, 0
5, 132225, Note_on_c, 3, 62, 113
5, 132345, Note_on_c, 3, 62, 0
5, 132350, Note_on_c, 3, 59, 96
5, 132455, Note_on_c, 3, 59, 0
5, 132725, Note_on_c, 3, 63, 127
5, 132830, Note_on_c, 3, 63, 0
5, 132970, Note_on_c, 3, 59, 127
5, 133130, Note_on_c, 3, 59, 0
5, 133440, Note_on_c, 3, 62, 127
5, 133520, Note_on_c, 3, 62, 0
5, 133560, Note_on_c, 3, 62, 118
5, 133665, Note_on_c, 3, 62, 0
5, 133670, Note_on_c, 3, 63, 118
5, 133800, Note_on_c, 3, 63, 0
5, 134270, Note_on_c, 3, 59, 108
5, 134380, Note_on_c, 3, 59, 0
5, 134385, Note_on_c, 3, 64, 117
5, 134500, Note_on_c, 3, 64, 0
5, 134510, Note_on_c, 3, 59, 95
5, 134620, Note_on_c, 3, 59, 0
5, 134630, Note_on_c, 3, 57, 106
5, 134750, Note_on_c, 3, 55, 70
5, 134770, Note_on_c, 3, 57, 0
5, 134870, Note_on_c, 3, 57, 119
5, 134890, Note_on_c, 3, 55, 0
5, 134990, Note_on_c, 3, 57, 0
5, 134990, Note_on_c, 3, 55, 97
5, 135105, Note_on_c, 3, 55, 0
5, 135110, Note_on_c, 3, 57, 108
5, 135230, Note_on_c, 3, 57, 0
5, 135230, Note_on_c, 3, 59, 123
5, 135720, Note_on_c, 3, 59, 0
5, 135960, Note_on_c, 3, 57, 127
5, 136070, Note_on_c, 3, 59, 127
5, 136080, Note_on_c, 3, 57, 0
5, 136185, Note_on_c, 3, 59, 0
5, 136560, Note_on_c, 3, 64, 120
5, 136665, Note_on_c, 3, 64, 0
5, 136910, Note_on_c, 3, 62, 127
5, 137015, Note_on_c, 3, 62, 0
5, 137150, Note_on_c, 3, 57, 124
5, 137210, Pitch_bend_c, 3, 8322
5, 137215, Pitch_bend_c, 3, 8842
5, 137220, Pitch_bend_c, 3, 8972
5, 137225, Pitch_bend_c, 3, 9622
5, 137230, Pitch_bend_c, 3, 10012
5, 137235, Pitch_bend_c, 3, 10142
5, 137240, Pitch_bend_c, 3, 10532
5, 137245, Pitch_bend_c, 3, 10662
5, 137250, Pitch_bend_c, 3, 10792
5, 137290, Pitch_bend_c, 3, 10662
5, 137310, Pitch_bend_c, 3, 8322
5, 137315, Pitch_bend_c, 3, 8192
5, 137395, Note_on_c, 3, 57, 0
5, 137400, Note_on_c, 3, 55, 107
5, 137510, Note_on_c, 3, 55, 0
5, 137510, Note_on_c, 3, 52, 95
5, 137630, Note_on_c, 3, 52, 0
5, 137630, Note_on_c, 3, 55, 100
5, 137745, Pitch_bend_c, 3, 8452
5, 137750, Pitch_bend_c, 3, 8842
5, 137760, Pitch_bend_c, 3, 8972
5, 137765, Pitch_bend_c, 3, 9102
5, 137790, Pitch_bend_c, 3, 8842
5, 137795, Pitch_bend_c, 3, 8192
5, 137995, Note_on_c, 3, 55, 0
5, 138000, Note_on_c, 3, 57, 117
5, 138055, Note_on_c, 3, 57, 0
5, 138470, Note_on_c, 3, 64, 124
5, 138575, Note_on_c, 3, 64, 0
5, 138840, Note_on_c, 3, 62, 121
5, 138925, Note_on_c, 3, 62, 0
5, 139070, Note_on_c, 3, 57, 113
5, 139115, Pitch_bend_c, 3, 8322
5, 139120, Pitch_bend_c, 3, 8582
5, 139130, Pitch_bend_c, 3, 9362
5, 139135, Pitch_bend_c, 3, 9492
5, 139140, Pitch_bend_c, 3, 9752
5, 139145, Pitch_bend_c, 3, 10012
5, 139150, Pitch_bend_c, 3, 10272
5, 139155, Pitch_bend_c, 3, 10532
5, 139160, Pitch_bend_c, 3, 10792
5, 139165, Pitch_bend_c, 3, 10922
5, 139185, Pitch_bend_c, 3, 10792
5, 139190, Pitch_bend_c, 3, 10402
5, 139200, Pitch_bend_c, 3, 10142
5, 139205, Pitch_bend_c, 3, 9362
5, 139210, Pitch_bend_c, 3, 8192
5, 139305, Note_on_c, 3, 57, 0
5, 139310, Note_on_c, 3, 55, 106
5, 139425, Note_on_c, 3, 55, 0
5, 139430, Note_on_c, 3, 52, 94
5, 139540, Note_on_c, 3, 52, 0
5, 139545, Note_on_c, 3, 55, 108
5, 139915, Note_on_c, 3, 55, 0
5, 139920, Note_on_c, 3, 57, 113
5, 140005, Note_on_c, 3, 57, 0
5, 140390, Note_on_c, 3, 65, 127
5, 140750, Note_on_c, 3, 65, 0
5, 140770, Note_on_c, 3, 62, 99
5, 140875, Note_on_c, 3, 62, 0
5, 140880, Note_on_c, 3, 64, 115
5, 141080, Note_on_c, 3, 64, 0
5, 141135, Note_on_c, 3, 64, 121
5, 141475, Note_on_c, 3, 64, 0
5, 141480, Note_on_c, 3, 62, 120
5, 141720, Note_on_c, 3, 62, 0
5, 141725, Note_on_c, 3, 64, 113
5, 141805, Note_on_c, 3, 64, 0
5, 142300, Note_on_c, 3, 67, 124
5, 142710, Note_on_c, 3, 67, 0
5, 142920, Note_on_c, 3, 67, 126
5, 143035, Note_on_c, 3, 67, 0
5, 143040, Note_on_c, 3, 67, 117
5, 143150, Note_on_c, 3, 67, 0
5, 143150, Note_on_c, 3, 58, 114
5, 143235, Note_on_c, 3, 58, 0
5, 143270, Note_on_c, 3, 58, 112
5, 143390, Note_on_c, 3, 58, 0
5, 143390, Note_on_c, 3, 57, 113
5, 143505, Note_on_c, 3, 57, 0
5, 143510, Note_on_c, 3, 55, 98
5, 143625, Note_on_c, 3, 55, 0
5, 143630, Note_on_c, 3, 57, 115
5, 143750, Note_on_c, 3, 57, 0
5, 143750, Note_on_c, 3, 55, 121
5, 144615, Note_on_c, 3, 55, 0
5, 147480, Note_on_c, 3, 59, 102
5, 147595, Note_on_c, 3, 59, 0
5, 147600, Note_on_c, 3, 62, 108
5, 147715, Note_on_c, 3, 62, 0
5, 147720, Note_on_c, 3, 59, 117
5, 147820, Note_on_c, 3, 59, 0
5, 148090, Note_on_c, 3, 63, 110
5, 148190, Note_on_c, 3, 63, 0
5, 148320, Note_on_c, 3, 59, 124
5, 148470, Note_on_c, 3, 59, 0
5, 148800, Note_on_c, 3, 62, 120
5, 148900, Note_on_c, 3, 62, 0
5, 148910, Note_on_c, 3, 62, 106
5, 149030, Note_on_c, 3, 62, 0
5, 149030, Note_on_c, 3, 63, 127
5, 149170, Note_on_c, 3, 63, 0
5, 149745, Note_on_c, 3, 64, 121
5, 149865, Note_on_c, 3, 64, 0
5, 149870, Note_on_c, 3, 59, 87
5, 149980, Note_on_c, 3, 59, 0
5, 149985, Note_on_c, 3, 64, 101
5, 150100, Note_on_c, 3, 64, 0
5, 150110, Note_on_c, 3, 59, 94
5, 150230, Note_on_c, 3, 59, 0
5, 150230, Note_on_c, 3, 64, 102
5, 150340, Note_on_c, 3, 64, 0
5, 150345, Note_on_c, 3, 59, 93
5, 150440, Note_on_c, 3, 59, 0
5, 150460, Note_on_c, 3, 55, 94
5, 150470, Pitch_bend_c, 3, 8712
5, 150480, Pitch_bend_c, 3, 9752
5, 150485, Pitch_bend_c, 3, 10142
5, 150490, Pitch_bend_c, 3, 11702
5, 150495, Pitch_bend_c, 3, 12352
5, 150505, Pitch_bend_c, 3, 13262
5, 150510, Pitch_bend_c, 3, 14432
5, 150515, Pitch_bend_c, 3, 15602
5, 150520, Pitch_bend_c, 3, 15992
5, 150530, Pitch_bend_c, 3, 16382
5, 150595, Note_on_c, 3, 55, 0
5, 150600, Note_on_c, 3, 55, 94
5, 150600, Pitch_bend_c, 3, 14172
5, 150605, Pitch_bend_c, 3, 13132
5, 150610, Pitch_bend_c, 3, 10142
5, 150615, Pitch_bend_c, 3, 8582
5, 150625, Pitch_bend_c, 3, 8192
5, 150720, Note_on_c, 3, 55, 0
5, 150720, Note_on_c, 3, 57, 100
5, 150835, Note_on_c, 3, 57, 0
5, 150840, Note_on_c, 3, 55, 95
5, 150960, Note_on_c, 3, 55, 0
5, 150965, Note_on_c, 3, 59, 108
5, 151090, Note_on_c, 3, 59, 0
5, 151320, Note_on_c, 3, 57, 106
5, 151440, Note_on_c, 3, 57, 0
5, 151445, Note_on_c, 3, 59, 115
5, 151540, Note_on_c, 3, 59, 0
5, 151930, Note_on_c, 3, 64, 119
5, 152250, Note_on_c, 3, 64, 0
5, 152270, Note_on_c, 3, 62, 108
5, 152385, Note_on_c, 3, 62, 0
5, 152390, Note_on_c, 3, 64, 108
5, 152495, Note_on_c, 3, 64, 0
5, 152625, Note_on_c, 3, 57, 115
5, 152655, Pitch_bend_c, 3, 8452
5, 152665, Pitch_bend_c, 3, 8842
5, 152670, Pitch_bend_c, 3, 10922
5, 152675, Pitch_bend_c, 3, 12612
5, 152680, Pitch_bend_c, 3, 13912
5, 152690, Pitch_bend_c, 3, 15862
5, 152695, Pitch_bend_c, 3, 16122
5, 152750, Pitch_bend_c, 3, 15602
5, 152760, Pitch_bend_c, 3, 14432
5, 152765, Pitch_bend_c, 3, 14302
5, 152770, Pitch_bend_c, 3, 12222
5, 152775, Pitch_bend_c, 3, 10402
5, 152785, Pitch_bend_c, 3, 9752
5, 152790, Pitch_bend_c, 3, 8192
5, 152865, Note_on_c, 3, 57, 0
5, 152870, Note_on_c, 3, 55, 104
5, 152985, Note_on_c, 3, 55, 0
5, 152990, Note_on_c, 3, 56, 111
5, 153240, Note_on_c, 3, 56, 0
5, 153245, Note_on_c, 3, 52, 99
5, 153445, Note_on_c, 3, 52, 0
5, 153840, Note_on_c, 3, 67, 121
5, 153950, Note_on_c, 3, 67, 0
5, 154205, Note_on_c, 3, 64, 127
5, 154305, Note_on_c, 3, 64, 0
5, 154435, Note_on_c, 3, 62, 113
5, 154450, Pitch_bend_c, 3, 8322
5, 154455, Pitch_bend_c, 3, 8972
5, 154465, Pitch_bend_c, 3, 9232
5, 154470, Pitch_bend_c, 3, 11052
5, 154475, Pitch_bend_c, 3, 11572
5, 154480, Pitch_bend_c, 3, 13132
5, 154490, Pitch_bend_c, 3, 14432
5, 154495, Pitch_bend_c, 3, 15342
5, 154500, Pitch_bend_c, 3, 15472
5, 154505, Pitch_bend_c, 3, 16122
5, 154560, Pitch_bend_c, 3, 16252
5, 154565, Pitch_bend_c, 3, 15732
5, 154570, Pitch_bend_c, 3, 13392
5, 154575, Pitch_bend_c, 3, 11962
5, 154585, Pitch_bend_c, 3, 9882
5, 154590, Pitch_bend_c, 3, 8192
5, 154680, Note_on_c, 3, 62, 0
5, 154685, Note_on_c, 3, 58, 99
5, 154905, Note_on_c, 3, 58, 0
5, 154920, Note_on_c, 3, 57, 110
5, 155150, Note_on_c, 3, 57, 0
5, 155170, Note_on_c, 3, 55, 100
5, 155280, Note_on_c, 3, 57, 120
5, 155290, Note_on_c, 3, 55, 0
5, 155390, Note_on_c, 3, 57, 0
5, 155760, Note_on_c, 3, 65, 121
5, 155880, Note_on_c, 3, 65, 0
5, 156125, Note_on_c, 3, 62, 108
5, 156215, Note_on_c, 3, 62, 0
5, 156235, Note_on_c, 3, 64, 106
5, 156355, Note_on_c, 3, 64, 0
5, 156475, Note_on_c, 3, 64, 107
5, 156575, Note_on_c, 3, 64, 0
5, 156720, Note_on_c, 3, 64, 121
5, 157055, Pitch_bend_c, 3, 8064
5, 157060, Pitch_bend_c, 3, 7936
5, 157065, Pitch_bend_c, 3, 7680
5, 157070, Pitch_bend_c, 3, 7296
5, 157080, Pitch_bend_c, 3, 6912
5, 157085, Pitch_bend_c, 3, 6144
5, 157090, Pitch_bend_c, 3, 4608
5, 157095, Pitch_bend_c, 3, 4352
5, 157105, Pitch_bend_c, 3, 3968
5, 157110, Pitch_bend_c, 3, 1792
5, 157115, Pitch_bend_c, 3, 1024
5, 157120, Pitch_bend_c, 3, 128
5, 157345, Note_on_c, 3, 64, 0
5, 157360, Pitch_bend_c, 3, 384
5, 157370, Pitch_bend_c, 3, 1152
5, 157375, Pitch_bend_c, 3, 1664
5, 157380, Pitch_bend_c, 3, 2944
5, 157385, Pitch_bend_c, 3, 3584
5, 157390, Pitch_bend_c, 3, 4736
5, 157395, Pitch_bend_c, 3, 7168
5, 157400, Pitch_bend_c, 3, 8192
5, 157660, Note_on_c, 3, 67, 120
5, 158330, Note_on_c, 3, 67, 0
5, 158640, Note_on_c, 3, 58, 127
5, 158730, Note_on_c, 3, 58, 0
5, 158765, Note_on_c, 3, 58, 107
5, 158850, Note_on_c, 3, 58, 0
5, 158880, Note_on_c, 3, 59, 118
5, 158970, Note_on_c, 3, 59, 0
5, 159000, Note_on_c, 3, 59, 108
5, 159120, Note_on_c, 3, 59, 0
5, 159125, Note_on_c, 3, 58, 104
5, 159240, Note_on_c, 3, 58, 0
5, 159245, Note_on_c, 3, 59, 120
5, 159480, Note_on_c, 3, 59, 0
5, 159485, Note_on_c, 3, 67, 127
5, 161285, Note_on_c, 3, 67, 0
5, 162605, Note_on_c, 3, 67, 121
5, 162960, Note_on_c, 3, 67, 0
5, 162965, Note_on_c, 3, 64, 113
5, 163105, Note_on_c, 3, 64, 0
5, 163440, Note_on_c, 3, 65, 127
5, 163515, Note_on_c, 3, 65, 0
5, 163680, Note_on_c, 3, 62, 120
5, 163815, Note_on_c, 3, 62, 0
5, 164030, Note_on_c, 3, 64, 106
5, 164035, Note_on_c, 3, 64, 0
5, 164040, Note_on_c, 3, 65, 117
5, 164275, Note_on_c, 3, 65, 0
5, 164285, Note_on_c, 3, 62, 100
5, 164400, Note_on_c, 3, 62, 0
5, 164410, Note_on_c, 3, 65, 121
5, 164565, Note_on_c, 3, 65, 0
5, 164880, Note_on_c, 3, 65, 127
5, 164950, Note_on_c, 3, 65, 0
5, 165120, Note_on_c, 3, 62, 120
5, 165230, Note_on_c, 3, 62, 0
5, 165470, Note_on_c, 3, 64, 107
5, 165475, Note_on_c, 3, 64, 0
5, 165480, Note_on_c, 3, 65, 115
5, 165705, Note_on_c, 3, 65, 0
5, 165710, Note_on_c, 3, 62, 98
5, 165800, Note_on_c, 3, 62, 0
5, 165835, Note_on_c, 3, 65, 120
5, 165955, Note_on_c, 3, 65, 0
5, 166315, Note_on_c, 3, 65, 127
5, 166420, Note_on_c, 3, 65, 0
5, 166570, Note_on_c, 3, 62, 117
5, 166725, Note_on_c, 3, 62, 0
5, 167050, Note_on_c, 3, 67, 127
5, 170390, Note_on_c, 3, 67, 0
5, 171125, Note_on_c, 3, 65, 127
5, 171230, Note_on_c, 3, 65, 0
5, 171375, Note_on_c, 3, 62, 108
5, 171520, Note_on_c, 3, 62, 0
5, 171715, Note_on_c, 3, 64, 111
5, 171720, Note_on_c, 3, 64, 0
5, 171725, Note_on_c, 3, 65, 121
5, 171955, Note_on_c, 3, 65, 0
5, 171975, Note_on_c, 3, 62, 97
5, 172090, Note_on_c, 3, 62, 0
5, 172090, Note_on_c, 3, 65, 119
5, 172230, Note_on_c, 3, 65, 0
5, 172560, Note_on_c, 3, 65, 124
5, 172635, Note_on_c, 3, 65, 0
5, 172795, Note_on_c, 3, 62, 109
5, 172930, Note_on_c, 3, 62, 0
5, 173150, Note_on_c, 3, 64, 109
5, 173155, Note_on_c, 3, 64, 0
5, 173155, Note_on_c, 3, 65, 110
5, 173405, Note_on_c, 3, 65, 0
5, 173410, Note_on_c, 3, 62, 101
5, 173520, Note_on_c, 3, 62, 0
5, 173540, Note_on_c, 3, 65, 110
5, 173675, Note_on_c, 3, 65, 0
5, 173980, Note_on_c, 3, 65, 110
5, 174075, Note_on_c, 3, 65, 0
5, 174240, Note_on_c, 3, 62, 104
5, 174415, Note_on_c, 3, 62, 0
5, 174710, Note_on_c, 3, 67, 120
5, 177950, Note_on_c, 3, 67, 0
5, 177950, End_track
6, 0, Start_track
6, 0, MIDI_port, 0
6, 0, Title_t, "tk5"
6, 502, Program_c, 4, 61
6, 503, Control_c, 4, 7, 104
6, 503, Control_c, 4, 10, 64
6, 595, Control_c, 4, 10, 69
6, 595, Control_c, 4, 11, 127
6, 600, Control_c, 4, 91, 115
6, 600, Control_c, 4, 93, 80
6, 25675, Note_on_c, 4, 78, 123
6, 25680, Control_c, 4, 1, 0
6, 25680, Pitch_bend_c, 4, 8192
6, 25680, Note_on_c, 4, 83, 123
6, 25685, Note_on_c, 4, 72, 123
6, 25920, Note_on_c, 4, 78, 0
6, 25930, Note_on_c, 4, 72, 0
6, 25930, Note_on_c, 4, 83, 0
6, 28435, Note_on_c, 4, 73, 92
6, 28435, Note_on_c, 4, 67, 119
6, 28795, Note_on_c, 4, 74, 97
6, 28795, Note_on_c, 4, 68, 119
6, 28810, Note_on_c, 4, 67, 0
6, 28810, Note_on_c, 4, 73, 0
6, 29045, Note_on_c, 4, 74, 0
6, 29095, Note_on_c, 4, 68, 0
6, 32875, Note_on_c, 4, 74, 119
6, 32875, Note_on_c, 4, 72, 105
6, 32875, Note_on_c, 4, 66, 118
6, 33110, Note_on_c, 4, 74, 0
6, 33140, Note_on_c, 4, 72, 0
6, 33160, Note_on_c, 4, 66, 0
6, 34195, Note_on_c, 4, 66, 119
6, 34200, Note_on_c, 4, 74, 119
6, 34200, Note_on_c, 4, 72, 118
6, 34350, Note_on_c, 4, 74, 0
6, 34460, Note_on_c, 4, 72, 0
6, 34470, Note_on_c, 4, 66, 0
6, 41035, Note_on_c, 4, 78, 121
6, 41040, Note_on_c, 4, 83, 124
6, 41045, Note_on_c, 4, 72, 121
6, 41280, Note_on_c, 4, 78, 0
6, 41290, Note_on_c, 4, 72, 0
6, 41290, Note_on_c, 4, 83, 0
6, 43795, Note_on_c, 4, 73, 92
6, 43795, Note_on_c, 4, 67, 119
6, 44155, Note_on_c, 4, 74, 97
6, 44155, Note_on_c, 4, 68, 119
6, 44170, Note_on_c, 4, 67, 0
6, 44170, Note_on_c, 4, 73, 0
6, 44405, Note_on_c, 4, 74, 0
6, 44455, Note_on_c, 4, 68, 0
6, 48235, Note_on_c, 4, 74, 119
6, 48235, Note_on_c, 4, 72, 105
6, 48235, Note_on_c, 4, 66, 118
6, 48470, Note_on_c, 4, 74, 0
6, 48500, Note_on_c, 4, 72, 0
6, 48520, Note_on_c, 4, 66, 0
6, 49555, Note_on_c, 4, 66, 119
6, 49560, Note_on_c, 4, 74, 119
6, 49560, Note_on_c, 4, 72, 118
6, 49710, Note_on_c, 4, 74, 0
6, 49820, Note_on_c, 4, 72, 0
6, 49830, Note_on_c, 4, 66, 0
6, 71755, Note_on_c, 4, 78, 123
6, 71760, Note_on_c, 4, 83, 123
6, 71765, Note_on_c, 4, 72, 123
6, 72000, Note_on_c, 4, 78, 0
6, 72010, Note_on_c, 4, 72, 0
6, 72010, Note_on_c, 4, 83, 0
6, 74515, Note_on_c, 4, 73, 92
6, 74515, Note_on_c, 4, 67, 119
6, 74875, Note_on_c, 4, 74, 97
6, 74875, Note_on_c, 4, 68, 119
6, 74890, Note_on_c, 4, 67, 0
6, 74890, Note_on_c, 4, 73, 0
6, 75125, Note_on_c, 4, 74, 0
6, 75175, Note_on_c, 4, 68, 0
6, 78955, Note_on_c, 4, 74, 119
6, 78955, Note_on_c, 4, 72, 105
6, 78955, Note_on_c, 4, 66, 118
6, 79190, Note_on_c, 4, 74, 0
6, 79220, Note_on_c, 4, 72, 0
6, 79240, Note_on_c, 4, 66, 0
6, 80275, Note_on_c, 4, 66, 119
6, 80280, Note_on_c, 4, 74, 119
6, 80280, Note_on_c, 4, 72, 118
6, 80430, Note_on_c, 4, 74, 0
6, 80540, Note_on_c, 4, 72, 0
6, 80550, Note_on_c, 4, 66, 0
6, 85795, Note_on_c, 4, 53, 111
6, 85910, Note_on_c, 4, 53, 0
6, 86035, Note_on_c, 4, 52, 119
6, 86140, Note_on_c, 4, 52, 0
6, 86275, Note_on_c, 4, 51, 119
6, 86390, Note_on_c, 4, 51, 0
6, 86390, Note_on_c, 4, 50, 118
6, 89450, Note_on_c, 4, 50, 0
6, 89730, Pitch_bend_c, 4, 16382
6, 89870, Note_on_c, 4, 50, 120
6, 89990, Pitch_bend_c, 4, 15602
6, 89995, Pitch_bend_c, 4, 14692
6, 90000, Pitch_bend_c, 4, 14172
6, 90005, Pitch_bend_c, 4, 12482
6, 90010, Pitch_bend_c, 4, 10012
6, 90015, Pitch_bend_c, 4, 8972
6, 90020, Pitch_bend_c, 4, 8192
6, 90080, Note_on_c, 4, 50, 0
6, 90120, Pitch_bend_c, 4, 16252
6, 90125, Note_on_c, 4, 43, 109
6, 90230, Pitch_bend_c, 4, 13522
6, 90235, Pitch_bend_c, 4, 10532
6, 90240, Pitch_bend_c, 4, 8322
6, 90245, Pitch_bend_c, 4, 8192
6, 93275, Note_on_c, 4, 43, 0
6, 93480, Note_on_c, 4, 53, 119
6, 93570, Note_on_c, 4, 53, 0
6, 93715, Note_on_c, 4, 52, 114
6, 93825, Note_on_c, 4, 52, 0
6, 93950, Note_on_c, 4, 51, 114
6, 94070, Note_on_c, 4, 51, 0
6, 94070, Note_on_c, 4, 50, 119
6, 97140, Note_on_c, 4, 50, 0
6, 97335, Pitch_bend_c, 4, 16382
6, 97555, Note_on_c, 4, 50, 121
6, 97660, Pitch_bend_c, 4, 15732
6, 97665, Pitch_bend_c, 4, 13912
6, 97670, Pitch_bend_c, 4, 10272
6, 97675, Pitch_bend_c, 4, 9102
6, 97680, Pitch_bend_c, 4, 8192
6, 97745, Note_on_c, 4, 50, 0
6, 97790, Pitch_bend_c, 4, 16382
6, 97795, Note_on_c, 4, 43, 97
6, 97905, Pitch_bend_c, 4, 15992
6, 97910, Pitch_bend_c, 4, 12482
6, 97915, Pitch_bend_c, 4, 11312
6, 97920, Pitch_bend_c, 4, 8842
6, 97925, Pitch_bend_c, 4, 8192
6, 100795, Note_on_c, 4, 43, 0
6, 102475, Note_on_c, 4, 78, 123
6, 102480, Note_on_c, 4, 83, 123
6, 102485, Note_on_c, 4, 72, 123
6, 102720, Note_on_c, 4, 78, 0
6, 102730, Note_on_c, 4, 72, 0
6, 102730, Note_on_c, 4, 83, 0
6, 105235, Note_on_c, 4, 73, 92
6, 105235, Note_on_c, 4, 67, 119
6, 105595, Note_on_c, 4, 74, 97
6, 105595, Note_on_c, 4, 68, 119
6, 105610, Note_on_c, 4, 67, 0
6, 105610, Note_on_c, 4, 73, 0
6, 105845, Note_on_c, 4, 74, 0
6, 105895, Note_on_c, 4, 68, 0
6, 109675, Note_on_c, 4, 74, 119
6, 109675, Note_on_c, 4, 72, 105
6, 109675, Note_on_c, 4, 66, 118
6, 109910, Note_on_c, 4, 74, 0
6, 109940, Note_on_c, 4, 72, 0
6, 109960, Note_on_c, 4, 66, 0
6, 110995, Note_on_c, 4, 66, 119
6, 111000, Note_on_c, 4, 74, 119
6, 111000, Note_on_c, 4, 72, 118
6, 111150, Note_on_c, 4, 74, 0
6, 111260, Note_on_c, 4, 72, 0
6, 111270, Note_on_c, 4, 66, 0
6, 133195, Note_on_c, 4, 78, 123
6, 133200, Note_on_c, 4, 83, 123
6, 133205, Note_on_c, 4, 72, 123
6, 133440, Note_on_c, 4, 78, 0
6, 133450, Note_on_c, 4, 72, 0
6, 133450, Note_on_c, 4, 83, 0
6, 135955, Note_on_c, 4, 73, 92
6, 135955, Note_on_c, 4, 67, 119
6, 136315, Note_on_c, 4, 74, 97
6, 136315, Note_on_c, 4, 68, 119
6, 136330, Note_on_c, 4, 67, 0
6, 136330, Note_on_c, 4, 73, 0
6, 136565, Note_on_c, 4, 74, 0
6, 136615, Note_on_c, 4, 68, 0
6, 140395, Note_on_c, 4, 74, 119
6, 140395, Note_on_c, 4, 72, 105
6, 140395, Note_on_c, 4, 66, 118
6, 140630, Note_on_c, 4, 74, 0
6, 140660, Note_on_c, 4, 72, 0
6, 140680, Note_on_c, 4, 66, 0
6, 141715, Note_on_c, 4, 66, 119
6, 141720, Note_on_c, 4, 74, 119
6, 141720, Note_on_c, 4, 72, 118
6, 141870, Note_on_c, 4, 74, 0
6, 141980, Note_on_c, 4, 72, 0
6, 141990, Note_on_c, 4, 66, 0
6, 148555, Note_on_c, 4, 78, 121
6, 148560, Note_on_c, 4, 83, 124
6, 148565, Note_on_c, 4, 72, 121
6, 148800, Note_on_c, 4, 78, 0
6, 148810, Note_on_c, 4, 72, 0
6, 148810, Note_on_c, 4, 83, 0
6, 151315, Note_on_c, 4, 73, 92
6, 151315, Note_on_c, 4, 67, 119
6, 151675, Note_on_c, 4, 74, 97
6, 151675, Note_on_c, 4, 68, 119
6, 151690, Note_on_c, 4, 67, 0
6, 151690, Note_on_c, 4, 73, 0
6, 151925, Note_on_c, 4, 74, 0
6, 151975, Note_on_c, 4, 68, 0
6, 155755, Note_on_c, 4, 74, 119
6, 155755, Note_on_c, 4, 72, 105
6, 155755, Note_on_c, 4, 66, 118
6, 155990, Note_on_c, 4, 74, 0
6, 156020, Note_on_c, 4, 72, 0
6, 156040, Note_on_c, 4, 66, 0
6, 157075, Note_on_c, 4, 66, 119
6, 157080, Note_on_c, 4, 74, 119
6, 157080, Note_on_c, 4, 72, 118
6, 157230, Note_on_c, 4, 74, 0
6, 157340, Note_on_c, 4, 72, 0
6, 157350, Note_on_c, 4, 66, 0
6, 177955, Note_on_c, 4, 53, 111
6, 178070, Note_on_c, 4, 53, 0
6, 178195, Note_on_c, 4, 52, 119
6, 178300, Note_on_c, 4, 52, 0
6, 178435, Note_on_c, 4, 51, 119
6, 178550, Note_on_c, 4, 51, 0
6, 178550, Note_on_c, 4, 50, 118
6, 181610, Note_on_c, 4, 50, 0
6, 181890, Pitch_bend_c, 4, 16382
6, 182030, Note_on_c, 4, 50, 120
6, 182150, Pitch_bend_c, 4, 15602
6, 182155, Pitch_bend_c, 4, 14692
6, 182160, Pitch_bend_c, 4, 14172
6, 182165, Pitch_bend_c, 4, 12482
6, 182170, Pitch_bend_c, 4, 10012
6, 182175, Pitch_bend_c, 4, 8972
6, 182180, Pitch_bend_c, 4, 8192
6, 182240, Note_on_c, 4, 50, 0
6, 182280, Pitch_bend_c, 4, 16252
6, 182285, Note_on_c, 4, 43, 109
6, 182390, Pitch_bend_c, 4, 13522
6, 182395, Pitch_bend_c, 4, 10532
6, 182400, Pitch_bend_c, 4, 8322
6, 182405, Pitch_bend_c, 4, 8192
6, 185435, Note_on_c, 4, 43, 0
6, 185640, Note_on_c, 4, 53, 119
6, 185730, Note_on_c, 4, 53, 0
6, 185875, Note_on_c, 4, 52, 114
6, 185985, Note_on_c, 4, 52, 0
6, 186110, Note_on_c, 4, 51, 114
6, 186230, Note_on_c, 4, 51, 0
6, 186230, Note_on_c, 4, 50, 119
6, 189300, Note_on_c, 4, 50, 0
6, 189495, Pitch_bend_c, 4, 16382
6, 189715, Note_on_c, 4, 50, 121
6, 189820, Pitch_bend_c, 4, 15732
6, 189825, Pitch_bend_c, 4, 13912
6, 189830, Pitch_bend_c, 4, 10272
6, 189835, Pitch_bend_c, 4, 9102
6, 189840, Pitch_bend_c, 4, 8192
6, 189905, Note_on_c, 4, 50, 0
6, 189950, Pitch_bend_c, 4, 16382
6, 189955, Note_on_c, 4, 43, 97
6, 190065, Pitch_bend_c, 4, 15992
6, 190070, Pitch_bend_c, 4, 12482
6, 190075, Pitch_bend_c, 4, 11312
6, 190080, Pitch_bend_c, 4, 8842
6, 190085, Pitch_bend_c, 4, 8192
6, 192955, Note_on_c, 4, 43, 0
6, 193315, Note_on_c, 4, 53, 111
6, 193430, Note_on_c, 4, 53, 0
6, 193555, Note_on_c, 4, 52, 119
6, 193660, Note_on_c, 4, 52, 0
6, 193795, Note_on_c, 4, 51, 119
6, 193910, Note_on_c, 4, 51, 0
6, 193910, Note_on_c, 4, 50, 118
6, 196970, Note_on_c, 4, 50, 0
6, 197250, Pitch_bend_c, 4, 16382
6, 197390, Note_on_c, 4, 50, 120
6, 197510, Pitch_bend_c, 4, 15602
6, 197515, Pitch_bend_c, 4, 14692
6, 197520, Pitch_bend_c, 4, 14172
6, 197525, Pitch_bend_c, 4, 12482
6, 197530, Pitch_bend_c, 4, 10012
6, 197535, Pitch_bend_c, 4, 8972
6, 197540, Pitch_bend_c, 4, 8192
6, 197600, Note_on_c, 4, 50, 0
6, 197640, Pitch_bend_c, 4, 16252
6, 197645, Note_on_c, 4, 43, 109
6, 197750, Pitch_bend_c, 4, 13522
6, 197755, Pitch_bend_c, 4, 10532
6, 197760, Pitch_bend_c, 4, 8322
6, 197765, Pitch_bend_c, 4, 8192
6, 200795, Note_on_c, 4, 43, 0
6, 201000, Note_on_c, 4, 53, 119
6, 201090, Note_on_c, 4, 53, 0
6, 201235, Note_on_c, 4, 52, 114
6, 201345, Note_on_c, 4, 52, 0
6, 201470, Note_on_c, 4, 51, 114
6, 201590, Note_on_c, 4, 51, 0
6, 201590, Note_on_c, 4, 50, 119
6, 204660, Note_on_c, 4, 50, 0
6, 204855, Pitch_bend_c, 4, 16382
6, 205075, Note_on_c, 4, 50, 121
6, 205180, Pitch_bend_c, 4, 15732
6, 205185, Pitch_bend_c, 4, 13912
6, 205190, Pitch_bend_c, 4, 10272
6, 205195, Pitch_bend_c, 4, 9102
6, 205200, Pitch_bend_c, 4, 8192
6, 205265, Note_on_c, 4, 50, 0
6, 205310, Pitch_bend_c, 4, 16382
6, 205315, Note_on_c, 4, 43, 97
6, 205425, Pitch_bend_c, 4, 15992
6, 205430, Pitch_bend_c, 4, 12482
6, 205435, Pitch_bend_c, 4, 11312
6, 205440, Pitch_bend_c, 4, 8842
6, 205445, Pitch_bend_c, 4, 8192
6, 206395, Note_on_c, 4, 43, 0
6, 206395, End_track
7, 0, Start_track
7, 0, MIDI_port, 0
7, 0, Title_t, "tk6"
7, 507, Program_c, 5, 105
7, 508, Control_c, 5, 7, 100
7, 508, Control_c, 5, 10, 64
7, 620, Control_c, 5, 10, 127
7, 620, Control_c, 5, 11, 127
7, 625, Control_c, 5, 91, 95
7, 625, Control_c, 5, 93, 60
7, 5750, Note_on_c, 5, 74, 67
7, 5750, Pitch_bend_c, 5, 16383
7, 5750, Note_on_c, 5, 79, 71
7, 5755, Control_c, 5, 1, 0
7, 5870, Note_on_c, 5, 79, 0
7, 5870, Note_on_c, 5, 74, 0
7, 5995, Note_on_c, 5, 74, 65
7, 5995, Note_on_c, 5, 79, 59
7, 6110, Note_on_c, 5, 79, 0
7, 6110, Note_on_c, 5, 74, 0
7, 6235, Note_on_c, 5, 71, 69
7, 6235, Note_on_c, 5, 76, 75
7, 6350, Note_on_c, 5, 76, 0
7, 6350, Note_on_c, 5, 71, 0
7, 6475, Note_on_c, 5, 71, 66
7, 6480, Note_on_c, 5, 76, 70
7, 6590, Note_on_c, 5, 71, 0
7, 6595, Note_on_c, 5, 76, 0
7, 6715, Note_on_c, 5, 69, 70
7, 6715, Note_on_c, 5, 74, 64
7, 6830, Note_on_c, 5, 74, 0
7, 6830, Note_on_c, 5, 69, 0
7, 6845, Note_on_c, 5, 76, 74
7, 6850, Note_on_c, 5, 71, 29
7, 6960, Note_on_c, 5, 76, 0
7, 6965, Note_on_c, 5, 71, 0
7, 7085, Note_on_c, 5, 74, 71
7, 7085, Note_on_c, 5, 69, 18
7, 7200, Note_on_c, 5, 69, 0
7, 7200, Note_on_c, 5, 74, 0
7, 7200, Note_on_c, 5, 71, 66
7, 7200, Note_on_c, 5, 76, 62
7, 7435, Note_on_c, 5, 76, 0
7, 7435, Note_on_c, 5, 71, 0
7, 7445, Note_on_c, 5, 69, 70
7, 7445, Note_on_c, 5, 74, 73
7, 7560, Note_on_c, 5, 74, 0
7, 7560, Note_on_c, 5, 69, 0
7, 8155, Note_on_c, 5, 57, 79
7, 8270, Note_on_c, 5, 57, 0
7, 8275, Note_on_c, 5, 59, 63
7, 8390, Note_on_c, 5, 59, 0
7, 8525, Note_on_c, 5, 59, 52
7, 8640, Note_on_c, 5, 59, 0
7, 8645, Note_on_c, 5, 64, 78
7, 8760, Note_on_c, 5, 64, 0
7, 8890, Note_on_c, 5, 62, 76
7, 9005, Note_on_c, 5, 62, 0
7, 9010, Note_on_c, 5, 59, 34
7, 9125, Note_on_c, 5, 59, 0
7, 9125, Note_on_c, 5, 64, 83
7, 9240, Note_on_c, 5, 64, 0
7, 9245, Note_on_c, 5, 59, 61
7, 9355, Note_on_c, 5, 62, 79
7, 9360, Note_on_c, 5, 59, 0
7, 9470, Note_on_c, 5, 62, 0
7, 9835, Note_on_c, 5, 66, 65
7, 9835, Note_on_c, 5, 71, 65
7, 9905, Note_on_c, 5, 71, 0
7, 9905, Note_on_c, 5, 66, 0
7, 10210, Note_on_c, 5, 69, 78
7, 10210, Note_on_c, 5, 66, 67
7, 10260, Note_on_c, 5, 69, 0
7, 10270, Note_on_c, 5, 66, 0
7, 10555, Note_on_c, 5, 66, 71
7, 10565, Note_on_c, 5, 71, 58
7, 10620, Note_on_c, 5, 71, 0
7, 10620, Note_on_c, 5, 66, 0
7, 10930, Note_on_c, 5, 69, 79
7, 10935, Note_on_c, 5, 66, 65
7, 10960, Note_on_c, 5, 69, 0
7, 10970, Note_on_c, 5, 66, 0
7, 11175, Note_on_c, 5, 66, 36
7, 11250, Note_on_c, 5, 66, 0
7, 11275, Note_on_c, 5, 66, 62
7, 11290, Note_on_c, 5, 71, 66
7, 11405, Note_on_c, 5, 71, 0
7, 11410, Note_on_c, 5, 71, 75
7, 11455, Note_on_c, 5, 71, 0
7, 11460, Note_on_c, 5, 66, 0
7, 11750, Note_on_c, 5, 66, 55
7, 11760, Note_on_c, 5, 71, 73
7, 11815, Note_on_c, 5, 66, 0
7, 11820, Note_on_c, 5, 71, 0
7, 12130, Note_on_c, 5, 69, 73
7, 12130, Note_on_c, 5, 66, 35
7, 12175, Note_on_c, 5, 69, 0
7, 12190, Note_on_c, 5, 66, 0
7, 12475, Note_on_c, 5, 66, 54
7, 12490, Note_on_c, 5, 71, 65
7, 12530, Note_on_c, 5, 71, 0
7, 12530, Note_on_c, 5, 66, 0
7, 12840, Note_on_c, 5, 69, 71
7, 12840, Note_on_c, 5, 66, 43
7, 12875, Note_on_c, 5, 69, 0
7, 12895, Note_on_c, 5, 66, 0
7, 13195, Note_on_c, 5, 66, 50
7, 13205, Note_on_c, 5, 69, 56
7, 13320, Note_on_c, 5, 69, 0
7, 13325, Note_on_c, 5, 66, 0
7, 13325, Note_on_c, 5, 69, 72
7, 13330, Note_on_c, 5, 66, 18
7, 13370, Note_on_c, 5, 69, 0
7, 13380, Note_on_c, 5, 66, 0
7, 13690, Note_on_c, 5, 67, 75
7, 13795, Note_on_c, 5, 67, 0
7, 13810, Note_on_c, 5, 67, 75
7, 13895, Note_on_c, 5, 67, 0
7, 13925, Note_on_c, 5, 64, 54
7, 13990, Note_on_c, 5, 64, 0
7, 14160, Note_on_c, 5, 62, 53
7, 14225, Note_on_c, 5, 62, 0
7, 14400, Note_on_c, 5, 64, 62
7, 14470, Note_on_c, 5, 64, 0
7, 14645, Note_on_c, 5, 62, 61
7, 14670, Note_on_c, 5, 62, 0
7, 14770, Note_on_c, 5, 64, 67
7, 14835, Note_on_c, 5, 64, 0
7, 14995, Note_on_c, 5, 62, 65
7, 15040, Note_on_c, 5, 62, 0
7, 15605, Note_on_c, 5, 67, 68
7, 15715, Note_on_c, 5, 67, 0
7, 15735, Note_on_c, 5, 67, 75
7, 15840, Note_on_c, 5, 64, 74
7, 15850, Note_on_c, 5, 67, 0
7, 15935, Note_on_c, 5, 64, 0
7, 16085, Note_on_c, 5, 62, 67
7, 16190, Note_on_c, 5, 62, 0
7, 16330, Note_on_c, 5, 64, 73
7, 16410, Note_on_c, 5, 64, 0
7, 16560, Note_on_c, 5, 62, 73
7, 16650, Note_on_c, 5, 62, 0
7, 16800, Note_on_c, 5, 64, 68
7, 16870, Note_on_c, 5, 64, 0
7, 16920, Note_on_c, 5, 62, 50
7, 16975, Note_on_c, 5, 62, 0
7, 17530, Note_on_c, 5, 66, 74
7, 17530, Note_on_c, 5, 71, 71
7, 17570, Note_on_c, 5, 71, 0
7, 17575, Note_on_c, 5, 66, 0
7, 17890, Note_on_c, 5, 69, 78
7, 17890, Note_on_c, 5, 66, 65
7, 17940, Note_on_c, 5, 69, 0
7, 17950, Note_on_c, 5, 66, 0
7, 18250, Note_on_c, 5, 66, 71
7, 18250, Note_on_c, 5, 71, 68
7, 18290, Note_on_c, 5, 71, 0
7, 18305, Note_on_c, 5, 66, 0
7, 18610, Note_on_c, 5, 69, 77
7, 18610, Note_on_c, 5, 66, 62
7, 18655, Note_on_c, 5, 66, 0
7, 18655, Note_on_c, 5, 69, 0
7, 18950, Note_on_c, 5, 66, 55
7, 18960, Note_on_c, 5, 71, 62
7, 19070, Note_on_c, 5, 66, 0
7, 19075, Note_on_c, 5, 71, 0
7, 19090, Note_on_c, 5, 71, 70
7, 19090, Note_on_c, 5, 66, 60
7, 19150, Note_on_c, 5, 66, 0
7, 19150, Note_on_c, 5, 71, 0
7, 19445, Note_on_c, 5, 66, 73
7, 19445, Note_on_c, 5, 71, 67
7, 19490, Note_on_c, 5, 71, 0
7, 19490, Note_on_c, 5, 66, 0
7, 19910, Note_on_c, 5, 66, 73
7, 19920, Note_on_c, 5, 71, 75
7, 19970, Note_on_c, 5, 71, 0
7, 19975, Note_on_c, 5, 66, 0
7, 20275, Note_on_c, 5, 69, 77
7, 20290, Note_on_c, 5, 66, 71
7, 20330, Note_on_c, 5, 69, 0
7, 20345, Note_on_c, 5, 66, 0
7, 20630, Note_on_c, 5, 66, 71
7, 20630, Note_on_c, 5, 71, 75
7, 20690, Note_on_c, 5, 71, 0
7, 20690, Note_on_c, 5, 66, 0
7, 20870, Note_on_c, 5, 66, 48
7, 20880, Note_on_c, 5, 69, 74
7, 20995, Note_on_c, 5, 69, 0
7, 20995, Note_on_c, 5, 66, 0
7, 21000, Note_on_c, 5, 69, 74
7, 21000, Note_on_c, 5, 66, 54
7, 21055, Note_on_c, 5, 69, 0
7, 21075, Note_on_c, 5, 66, 0
7, 21370, Note_on_c, 5, 67, 73
7, 21610, Note_on_c, 5, 64, 67
7, 21615, Note_on_c, 5, 67, 0
7, 21690, Note_on_c, 5, 64, 0
7, 21850, Note_on_c, 5, 62, 62
7, 21925, Note_on_c, 5, 62, 0
7, 22090, Note_on_c, 5, 64, 66
7, 22150, Note_on_c, 5, 64, 0
7, 22330, Note_on_c, 5, 62, 46
7, 22370, Note_on_c, 5, 62, 0
7, 22450, Note_on_c, 5, 64, 49
7, 22515, Note_on_c, 5, 64, 0
7, 22690, Note_on_c, 5, 62, 57
7, 22735, Note_on_c, 5, 62, 0
7, 23290, Note_on_c, 5, 67, 74
7, 23355, Note_on_c, 5, 67, 0
7, 23655, Note_on_c, 5, 64, 62
7, 23705, Note_on_c, 5, 64, 0
7, 24000, Note_on_c, 5, 64, 60
7, 24030, Note_on_c, 5, 64, 0
7, 24230, Note_on_c, 5, 62, 75
7, 24350, Note_on_c, 5, 62, 0
7, 24370, Note_on_c, 5, 64, 65
7, 24445, Note_on_c, 5, 64, 0
7, 25205, Note_on_c, 5, 63, 16
7, 25210, Note_on_c, 5, 66, 70
7, 25215, Note_on_c, 5, 71, 59
7, 25250, Note_on_c, 5, 71, 0
7, 25250, Note_on_c, 5, 63, 0
7, 25260, Note_on_c, 5, 66, 0
7, 25930, Note_on_c, 5, 66, 70
7, 25930, Note_on_c, 5, 71, 73
7, 26025, Note_on_c, 5, 71, 0
7, 26050, Note_on_c, 5, 71, 71
7, 26050, Note_on_c, 5, 63, 34
7, 26150, Note_on_c, 5, 71, 0
7, 26150, Note_on_c, 5, 66, 0
7, 26155, Note_on_c, 5, 66, 63
7, 26170, Note_on_c, 5, 71, 64
7, 26190, Note_on_c, 5, 63, 0
7, 26205, Note_on_c, 5, 71, 0
7, 26205, Note_on_c, 5, 66, 0
7, 26410, Note_on_c, 5, 71, 53
7, 26410, Note_on_c, 5, 66, 16
7, 26510, Note_on_c, 5, 71, 0
7, 26515, Note_on_c, 5, 66, 0
7, 26515, Note_on_c, 5, 71, 75
7, 26530, Note_on_c, 5, 66, 73
7, 26530, Note_on_c, 5, 63, 16
7, 26570, Note_on_c, 5, 63, 0
7, 26570, Note_on_c, 5, 66, 0
7, 26585, Note_on_c, 5, 71, 0
7, 27115, Note_on_c, 5, 66, 65
7, 27115, Note_on_c, 5, 71, 75
7, 27145, Note_on_c, 5, 71, 0
7, 27155, Note_on_c, 5, 66, 0
7, 27835, Note_on_c, 5, 66, 68
7, 27835, Note_on_c, 5, 71, 68
7, 27935, Note_on_c, 5, 71, 0
7, 27950, Note_on_c, 5, 71, 75
7, 27960, Note_on_c, 5, 63, 16
7, 28050, Note_on_c, 5, 63, 0
7, 28070, Note_on_c, 5, 66, 0
7, 28075, Note_on_c, 5, 71, 0
7, 28325, Note_on_c, 5, 63, 25
7, 28330, Note_on_c, 5, 66, 68
7, 28335, Note_on_c, 5, 71, 78
7, 28430, Note_on_c, 5, 71, 0
7, 28440, Note_on_c, 5, 71, 75
7, 28540, Note_on_c, 5, 66, 0
7, 28545, Note_on_c, 5, 71, 0
7, 28545, Note_on_c, 5, 63, 0
7, 29050, Note_on_c, 5, 68, 70
7, 29050, Note_on_c, 5, 71, 68
7, 29090, Note_on_c, 5, 71, 0
7, 29105, Note_on_c, 5, 68, 0
7, 29520, Note_on_c, 5, 64, 55
7, 29530, Note_on_c, 5, 68, 77
7, 29550, Note_on_c, 5, 64, 0
7, 29590, Note_on_c, 5, 68, 0
7, 29770, Note_on_c, 5, 68, 70
7, 29960, Note_on_c, 5, 68, 0
7, 30000, Note_on_c, 5, 67, 77
7, 30110, Note_on_c, 5, 67, 0
7, 30250, Note_on_c, 5, 66, 68
7, 30340, Note_on_c, 5, 66, 0
7, 30360, Note_on_c, 5, 64, 67
7, 30440, Note_on_c, 5, 64, 0
7, 30965, Note_on_c, 5, 62, 50
7, 30965, Note_on_c, 5, 68, 73
7, 31005, Note_on_c, 5, 62, 0
7, 31025, Note_on_c, 5, 68, 0
7, 31440, Note_on_c, 5, 62, 61
7, 31440, Note_on_c, 5, 68, 71
7, 31470, Note_on_c, 5, 62, 0
7, 31480, Note_on_c, 5, 68, 0
7, 31675, Note_on_c, 5, 62, 61
7, 31685, Note_on_c, 5, 68, 68
7, 31805, Note_on_c, 5, 68, 0
7, 31810, Note_on_c, 5, 62, 0
7, 31810, Note_on_c, 5, 68, 66
7, 31855, Note_on_c, 5, 68, 0
7, 32040, Note_on_c, 5, 68, 65
7, 32050, Note_on_c, 5, 62, 54
7, 32050, Note_on_c, 5, 59, 16
7, 32090, Note_on_c, 5, 62, 0
7, 32095, Note_on_c, 5, 59, 0
7, 32110, Note_on_c, 5, 68, 0
7, 32290, Note_on_c, 5, 68, 64
7, 32290, Note_on_c, 5, 62, 32
7, 32340, Note_on_c, 5, 62, 0
7, 32370, Note_on_c, 5, 68, 0
7, 32875, Note_on_c, 5, 66, 68
7, 32880, Note_on_c, 5, 71, 77
7, 32945, Note_on_c, 5, 71, 0
7, 32945, Note_on_c, 5, 66, 0
7, 33250, Note_on_c, 5, 71, 75
7, 33255, Note_on_c, 5, 66, 73
7, 33295, Note_on_c, 5, 66, 0
7, 33305, Note_on_c, 5, 71, 0
7, 33610, Note_on_c, 5, 66, 54
7, 33610, Note_on_c, 5, 71, 75
7, 33655, Note_on_c, 5, 66, 0
7, 33660, Note_on_c, 5, 71, 0
7, 33970, Note_on_c, 5, 66, 61
7, 34005, Note_on_c, 5, 66, 0
7, 34310, Note_on_c, 5, 69, 55
7, 34310, Note_on_c, 5, 66, 37
7, 34435, Note_on_c, 5, 69, 0
7, 34440, Note_on_c, 5, 66, 0
7, 34445, Note_on_c, 5, 69, 78
7, 34445, Note_on_c, 5, 66, 71
7, 34490, Note_on_c, 5, 69, 0
7, 34510, Note_on_c, 5, 66, 0
7, 34790, Note_on_c, 5, 66, 70
7, 34840, Note_on_c, 5, 66, 0
7, 35160, Note_on_c, 5, 71, 75
7, 35170, Note_on_c, 5, 66, 47
7, 35230, Note_on_c, 5, 66, 0
7, 35230, Note_on_c, 5, 71, 0
7, 35530, Note_on_c, 5, 66, 71
7, 35530, Note_on_c, 5, 71, 75
7, 35570, Note_on_c, 5, 66, 0
7, 35580, Note_on_c, 5, 71, 0
7, 35890, Note_on_c, 5, 69, 65
7, 35890, Note_on_c, 5, 66, 16
7, 35935, Note_on_c, 5, 66, 0
7, 35950, Note_on_c, 5, 69, 0
7, 36595, Note_on_c, 5, 67, 82
7, 36645, Note_on_c, 5, 67, 0
7, 36710, Note_on_c, 5, 70, 87
7, 36815, Note_on_c, 5, 70, 0
7, 36840, Note_on_c, 5, 67, 25
7, 36880, Note_on_c, 5, 67, 0
7, 36950, Note_on_c, 5, 69, 81
7, 37060, Note_on_c, 5, 69, 0
7, 37070, Note_on_c, 5, 67, 61
7, 37170, Note_on_c, 5, 67, 0
7, 37190, Note_on_c, 5, 64, 59
7, 37295, Note_on_c, 5, 64, 0
7, 37305, Note_on_c, 5, 67, 88
7, 37405, Note_on_c, 5, 67, 0
7, 37425, Note_on_c, 5, 64, 80
7, 37540, Note_on_c, 5, 64, 0
7, 37550, Note_on_c, 5, 59, 71
7, 37610, Note_on_c, 5, 59, 0
7, 37670, Note_on_c, 5, 57, 73
7, 37710, Note_on_c, 5, 58, 56
7, 37730, Note_on_c, 5, 57, 0
7, 37770, Note_on_c, 5, 58, 0
7, 37805, Note_on_c, 5, 55, 65
7, 37870, Note_on_c, 5, 55, 0
7, 38050, Note_on_c, 5, 67, 90
7, 38140, Note_on_c, 5, 67, 0
7, 38165, Note_on_c, 5, 64, 81
7, 38270, Note_on_c, 5, 64, 0
7, 38275, Note_on_c, 5, 59, 73
7, 38330, Note_on_c, 5, 59, 0
7, 38400, Note_on_c, 5, 57, 75
7, 38440, Note_on_c, 5, 58, 57
7, 38455, Note_on_c, 5, 57, 0
7, 38495, Note_on_c, 5, 58, 0
7, 38525, Note_on_c, 5, 55, 65
7, 38585, Note_on_c, 5, 55, 0
7, 38755, Note_on_c, 5, 67, 89
7, 38865, Note_on_c, 5, 67, 0
7, 38870, Note_on_c, 5, 64, 63
7, 38980, Note_on_c, 5, 64, 0
7, 38990, Note_on_c, 5, 59, 72
7, 39055, Note_on_c, 5, 59, 0
7, 39110, Note_on_c, 5, 57, 79
7, 39150, Note_on_c, 5, 58, 53
7, 39175, Note_on_c, 5, 57, 0
7, 39195, Note_on_c, 5, 58, 0
7, 39235, Note_on_c, 5, 55, 56
7, 39300, Note_on_c, 5, 55, 0
7, 39725, Note_on_c, 5, 67, 90
7, 39810, Note_on_c, 5, 67, 0
7, 39830, Note_on_c, 5, 64, 79
7, 39930, Note_on_c, 5, 64, 0
7, 39945, Note_on_c, 5, 59, 79
7, 39995, Note_on_c, 5, 59, 0
7, 40065, Note_on_c, 5, 57, 67
7, 40110, Note_on_c, 5, 57, 0
7, 40110, Note_on_c, 5, 58, 51
7, 40165, Note_on_c, 5, 58, 0
7, 40195, Note_on_c, 5, 55, 71
7, 40270, Note_on_c, 5, 55, 0
7, 40575, Note_on_c, 5, 66, 16
7, 40575, Note_on_c, 5, 71, 75
7, 40630, Note_on_c, 5, 66, 0
7, 40635, Note_on_c, 5, 71, 0
7, 41290, Note_on_c, 5, 66, 69
7, 41290, Note_on_c, 5, 71, 74
7, 41345, Note_on_c, 5, 71, 0
7, 41345, Note_on_c, 5, 66, 0
7, 41415, Note_on_c, 5, 71, 75
7, 41415, Note_on_c, 5, 66, 69
7, 41415, Note_on_c, 5, 63, 28
7, 41470, Note_on_c, 5, 63, 0
7, 41470, Note_on_c, 5, 66, 0
7, 41470, Note_on_c, 5, 71, 0
7, 41755, Note_on_c, 5, 66, 67
7, 41755, Note_on_c, 5, 71, 75
7, 41805, Note_on_c, 5, 66, 0
7, 41810, Note_on_c, 5, 71, 0
7, 41880, Note_on_c, 5, 71, 74
7, 41880, Note_on_c, 5, 66, 68
7, 41890, Note_on_c, 5, 63, 16
7, 41935, Note_on_c, 5, 63, 0
7, 41950, Note_on_c, 5, 66, 0
7, 41955, Note_on_c, 5, 71, 0
7, 42470, Note_on_c, 5, 66, 70
7, 42480, Note_on_c, 5, 71, 75
7, 42530, Note_on_c, 5, 71, 0
7, 42530, Note_on_c, 5, 66, 0
7, 43200, Note_on_c, 5, 66, 71
7, 43205, Note_on_c, 5, 71, 79
7, 43250, Note_on_c, 5, 71, 0
7, 43250, Note_on_c, 5, 66, 0
7, 43330, Note_on_c, 5, 71, 75
7, 43330, Note_on_c, 5, 66, 70
7, 43330, Note_on_c, 5, 63, 16
7, 43370, Note_on_c, 5, 63, 0
7, 43385, Note_on_c, 5, 66, 0
7, 43390, Note_on_c, 5, 71, 0
7, 43675, Note_on_c, 5, 63, 16
7, 43680, Note_on_c, 5, 66, 70
7, 43690, Note_on_c, 5, 71, 77
7, 43710, Note_on_c, 5, 63, 0
7, 43715, Note_on_c, 5, 66, 0
7, 43725, Note_on_c, 5, 71, 0
7, 43810, Note_on_c, 5, 71, 75
7, 43810, Note_on_c, 5, 66, 62
7, 43810, Note_on_c, 5, 63, 23
7, 43870, Note_on_c, 5, 63, 0
7, 43875, Note_on_c, 5, 66, 0
7, 43875, Note_on_c, 5, 71, 0
7, 44410, Note_on_c, 5, 71, 76
7, 44415, Note_on_c, 5, 68, 61
7, 44450, Note_on_c, 5, 71, 0
7, 44455, Note_on_c, 5, 68, 0
7, 44885, Note_on_c, 5, 71, 79
7, 44885, Note_on_c, 5, 68, 67
7, 44930, Note_on_c, 5, 71, 0
7, 44940, Note_on_c, 5, 68, 0
7, 45125, Note_on_c, 5, 68, 75
7, 45225, Note_on_c, 5, 68, 0
7, 45250, Note_on_c, 5, 68, 74
7, 45345, Note_on_c, 5, 68, 0
7, 45360, Note_on_c, 5, 67, 76
7, 45465, Note_on_c, 5, 67, 0
7, 45610, Note_on_c, 5, 66, 73
7, 45685, Note_on_c, 5, 66, 0
7, 45845, Note_on_c, 5, 64, 71
7, 45925, Note_on_c, 5, 64, 0
7, 46330, Note_on_c, 5, 68, 71
7, 46370, Note_on_c, 5, 68, 0
7, 46795, Note_on_c, 5, 68, 70
7, 46835, Note_on_c, 5, 68, 0
7, 47035, Note_on_c, 5, 68, 73
7, 47040, Note_on_c, 5, 71, 76
7, 47165, Note_on_c, 5, 71, 0
7, 47170, Note_on_c, 5, 71, 77
7, 47210, Note_on_c, 5, 71, 0
7, 47225, Note_on_c, 5, 68, 0
7, 47640, Note_on_c, 5, 71, 76
7, 47650, Note_on_c, 5, 68, 62
7, 47690, Note_on_c, 5, 71, 0
7, 47715, Note_on_c, 5, 68, 0
7, 48235, Note_on_c, 5, 66, 71
7, 48245, Note_on_c, 5, 71, 79
7, 48305, Note_on_c, 5, 71, 0
7, 48305, Note_on_c, 5, 66, 0
7, 48610, Note_on_c, 5, 69, 75
7, 48610, Note_on_c, 5, 66, 35
7, 48665, Note_on_c, 5, 66, 0
7, 48680, Note_on_c, 5, 69, 0
7, 48965, Note_on_c, 5, 69, 75
7, 49010, Note_on_c, 5, 69, 0
7, 49310, Note_on_c, 5, 71, 70
7, 49310, Note_on_c, 5, 66, 61
7, 49360, Note_on_c, 5, 66, 0
7, 49370, Note_on_c, 5, 71, 0
7, 49690, Note_on_c, 5, 69, 73
7, 49805, Note_on_c, 5, 69, 0
7, 49810, Note_on_c, 5, 69, 77
7, 49815, Note_on_c, 5, 66, 52
7, 49865, Note_on_c, 5, 69, 0
7, 49870, Note_on_c, 5, 66, 0
7, 50170, Note_on_c, 5, 71, 68
7, 50230, Note_on_c, 5, 71, 0
7, 50525, Note_on_c, 5, 69, 77
7, 50530, Note_on_c, 5, 66, 65
7, 50580, Note_on_c, 5, 66, 0
7, 50585, Note_on_c, 5, 69, 0
7, 50885, Note_on_c, 5, 66, 67
7, 50885, Note_on_c, 5, 71, 76
7, 50955, Note_on_c, 5, 71, 0
7, 50955, Note_on_c, 5, 66, 0
7, 51245, Note_on_c, 5, 69, 77
7, 51245, Note_on_c, 5, 66, 64
7, 51455, Note_on_c, 5, 69, 0
7, 51465, Note_on_c, 5, 69, 35
7, 51580, Note_on_c, 5, 69, 0
7, 51585, Note_on_c, 5, 66, 0
7, 51590, Note_on_c, 5, 66, 59
7, 51595, Note_on_c, 5, 69, 77
7, 51670, Note_on_c, 5, 66, 0
7, 51685, Note_on_c, 5, 69, 0
7, 51970, Note_on_c, 5, 67, 79
7, 52020, Note_on_c, 5, 67, 0
7, 52080, Note_on_c, 5, 69, 89
7, 52115, Note_on_c, 5, 69, 0
7, 52115, Note_on_c, 5, 70, 73
7, 52190, Note_on_c, 5, 70, 0
7, 52210, Note_on_c, 5, 67, 83
7, 52260, Note_on_c, 5, 67, 0
7, 52315, Note_on_c, 5, 69, 88
7, 52420, Note_on_c, 5, 69, 0
7, 52440, Note_on_c, 5, 67, 61
7, 52550, Note_on_c, 5, 62, 64
7, 52670, Note_on_c, 5, 67, 0
7, 52675, Note_on_c, 5, 67, 88
7, 52785, Note_on_c, 5, 67, 0
7, 52790, Note_on_c, 5, 67, 89
7, 53030, Note_on_c, 5, 62, 0
7, 53050, Note_on_c, 5, 67, 0
7, 53405, Note_on_c, 5, 67, 91
7, 53505, Note_on_c, 5, 67, 0
7, 53525, Note_on_c, 5, 64, 83
7, 53630, Note_on_c, 5, 64, 0
7, 53635, Note_on_c, 5, 59, 70
7, 53695, Note_on_c, 5, 59, 0
7, 53755, Note_on_c, 5, 57, 79
7, 53795, Note_on_c, 5, 58, 65
7, 53800, Note_on_c, 5, 57, 0
7, 53875, Note_on_c, 5, 58, 0
7, 53885, Note_on_c, 5, 55, 71
7, 53970, Note_on_c, 5, 55, 0
7, 54120, Note_on_c, 5, 67, 93
7, 54220, Note_on_c, 5, 67, 0
7, 54245, Note_on_c, 5, 64, 82
7, 54350, Note_on_c, 5, 64, 0
7, 54355, Note_on_c, 5, 59, 74
7, 54405, Note_on_c, 5, 59, 0
7, 54470, Note_on_c, 5, 57, 78
7, 54510, Note_on_c, 5, 58, 61
7, 54530, Note_on_c, 5, 57, 0
7, 54575, Note_on_c, 5, 58, 0
7, 54605, Note_on_c, 5, 55, 70
7, 54670, Note_on_c, 5, 55, 0
7, 54845, Note_on_c, 5, 67, 91
7, 54945, Note_on_c, 5, 67, 0
7, 54960, Note_on_c, 5, 64, 79
7, 55010, Note_on_c, 5, 64, 0
7, 55080, Note_on_c, 5, 62, 62
7, 55140, Note_on_c, 5, 62, 0
7, 55195, Note_on_c, 5, 64, 82
7, 55415, Note_on_c, 5, 64, 0
7, 55930, Note_on_c, 5, 66, 55
7, 55930, Note_on_c, 5, 71, 73
7, 55990, Note_on_c, 5, 71, 0
7, 55990, Note_on_c, 5, 66, 0
7, 56290, Note_on_c, 5, 71, 73
7, 56290, Note_on_c, 5, 66, 45
7, 56340, Note_on_c, 5, 66, 0
7, 56355, Note_on_c, 5, 71, 0
7, 56630, Note_on_c, 5, 66, 16
7, 56640, Note_on_c, 5, 69, 70
7, 56685, Note_on_c, 5, 69, 0
7, 56690, Note_on_c, 5, 66, 0
7, 57010, Note_on_c, 5, 71, 71
7, 57010, Note_on_c, 5, 66, 34
7, 57045, Note_on_c, 5, 66, 0
7, 57055, Note_on_c, 5, 71, 0
7, 57355, Note_on_c, 5, 66, 28
7, 57365, Note_on_c, 5, 69, 65
7, 57470, Note_on_c, 5, 66, 0
7, 57490, Note_on_c, 5, 69, 0
7, 57490, Note_on_c, 5, 66, 52
7, 57530, Note_on_c, 5, 66, 0
7, 57840, Note_on_c, 5, 66, 28
7, 57840, Note_on_c, 5, 69, 63
7, 57880, Note_on_c, 5, 69, 0
7, 57900, Note_on_c, 5, 66, 0
7, 58210, Note_on_c, 5, 71, 75
7, 58215, Note_on_c, 5, 66, 45
7, 58260, Note_on_c, 5, 66, 0
7, 58270, Note_on_c, 5, 71, 0
7, 58565, Note_on_c, 5, 66, 57
7, 58640, Note_on_c, 5, 66, 0
7, 58930, Note_on_c, 5, 71, 75
7, 58930, Note_on_c, 5, 66, 47
7, 58985, Note_on_c, 5, 66, 0
7, 58985, Note_on_c, 5, 71, 0
7, 59280, Note_on_c, 5, 66, 71
7, 59280, Note_on_c, 5, 69, 58
7, 59415, Note_on_c, 5, 69, 0
7, 59470, Note_on_c, 5, 66, 0
7, 59765, Note_on_c, 5, 67, 72
7, 59980, Note_on_c, 5, 67, 0
7, 60010, Note_on_c, 5, 64, 33
7, 60125, Note_on_c, 5, 64, 0
7, 60135, Note_on_c, 5, 62, 52
7, 60185, Note_on_c, 5, 62, 0
7, 60370, Note_on_c, 5, 64, 62
7, 60440, Note_on_c, 5, 64, 0
7, 60715, Note_on_c, 5, 62, 52
7, 60765, Note_on_c, 5, 62, 0
7, 60830, Note_on_c, 5, 67, 68
7, 60925, Note_on_c, 5, 67, 0
7, 61680, Note_on_c, 5, 67, 68
7, 61795, Note_on_c, 5, 67, 0
7, 61810, Note_on_c, 5, 67, 75
7, 61890, Note_on_c, 5, 67, 0
7, 61925, Note_on_c, 5, 64, 74
7, 62030, Note_on_c, 5, 64, 0
7, 62050, Note_on_c, 5, 62, 45
7, 62110, Note_on_c, 5, 62, 0
7, 62290, Note_on_c, 5, 64, 61
7, 62345, Note_on_c, 5, 64, 0
7, 62530, Note_on_c, 5, 62, 61
7, 62570, Note_on_c, 5, 62, 0
7, 62760, Note_on_c, 5, 64, 55
7, 62825, Note_on_c, 5, 64, 0
7, 63000, Note_on_c, 5, 62, 59
7, 63060, Note_on_c, 5, 62, 0
7, 63345, Note_on_c, 5, 66, 59
7, 63400, Note_on_c, 5, 66, 0
7, 63590, Note_on_c, 5, 66, 71
7, 63590, Note_on_c, 5, 71, 77
7, 63660, Note_on_c, 5, 71, 0
7, 63660, Note_on_c, 5, 66, 0
7, 64070, Note_on_c, 5, 66, 39
7, 64080, Note_on_c, 5, 69, 74
7, 64140, Note_on_c, 5, 69, 0
7, 64170, Note_on_c, 5, 66, 0
7, 64450, Note_on_c, 5, 71, 77
7, 64450, Note_on_c, 5, 66, 58
7, 64515, Note_on_c, 5, 66, 0
7, 64515, Note_on_c, 5, 71, 0
7, 64930, Note_on_c, 5, 69, 77
7, 64935, Note_on_c, 5, 66, 60
7, 64990, Note_on_c, 5, 69, 0
7, 64995, Note_on_c, 5, 66, 0
7, 65510, Note_on_c, 5, 66, 50
7, 65515, Note_on_c, 5, 71, 67
7, 65570, Note_on_c, 5, 71, 0
7, 65570, Note_on_c, 5, 66, 0
7, 65890, Note_on_c, 5, 71, 75
7, 65890, Note_on_c, 5, 66, 72
7, 65950, Note_on_c, 5, 66, 0
7, 65950, Note_on_c, 5, 71, 0
7, 66235, Note_on_c, 5, 66, 44
7, 66245, Note_on_c, 5, 69, 75
7, 66295, Note_on_c, 5, 69, 0
7, 66310, Note_on_c, 5, 66, 0
7, 66610, Note_on_c, 5, 71, 75
7, 66610, Note_on_c, 5, 66, 70
7, 66670, Note_on_c, 5, 66, 0
7, 66680, Note_on_c, 5, 71, 0
7, 66965, Note_on_c, 5, 66, 68
7, 66970, Note_on_c, 5, 69, 77
7, 67090, Note_on_c, 5, 69, 0
7, 67095, Note_on_c, 5, 69, 78
7, 67135, Note_on_c, 5, 69, 0
7, 67180, Note_on_c, 5, 66, 0
7, 67455, Note_on_c, 5, 67, 71
7, 67670, Note_on_c, 5, 67, 0
7, 67690, Note_on_c, 5, 64, 68
7, 67790, Note_on_c, 5, 64, 0
7, 67920, Note_on_c, 5, 62, 35
7, 67965, Note_on_c, 5, 62, 0
7, 68170, Note_on_c, 5, 64, 59
7, 68240, Note_on_c, 5, 64, 0
7, 68530, Note_on_c, 5, 62, 35
7, 68575, Note_on_c, 5, 62, 0
7, 69615, Note_on_c, 5, 67, 70
7, 69730, Note_on_c, 5, 67, 0
7, 69740, Note_on_c, 5, 67, 68
7, 69800, Note_on_c, 5, 67, 0
7, 69855, Note_on_c, 5, 64, 72
7, 69955, Note_on_c, 5, 64, 0
7, 69980, Note_on_c, 5, 62, 42
7, 70050, Note_on_c, 5, 62, 0
7, 70210, Note_on_c, 5, 64, 70
7, 70260, Note_on_c, 5, 64, 0
7, 70445, Note_on_c, 5, 62, 69
7, 70500, Note_on_c, 5, 62, 0
7, 70695, Note_on_c, 5, 64, 68
7, 70765, Note_on_c, 5, 64, 0
7, 71290, Note_on_c, 5, 66, 68
7, 71295, Note_on_c, 5, 71, 65
7, 71340, Note_on_c, 5, 71, 0
7, 71350, Note_on_c, 5, 66, 0
7, 71995, Note_on_c, 5, 66, 64
7, 71995, Note_on_c, 5, 63, 33
7, 72010, Note_on_c, 5, 71, 71
7, 72110, Note_on_c, 5, 66, 0
7, 72115, Note_on_c, 5, 71, 0
7, 72130, Note_on_c, 5, 71, 75
7, 72135, Note_on_c, 5, 66, 71
7, 72225, Note_on_c, 5, 66, 0
7, 72230, Note_on_c, 5, 71, 0
7, 72250, Note_on_c, 5, 66, 73
7, 72250, Note_on_c, 5, 71, 64
7, 72280, Note_on_c, 5, 63, 0
7, 72300, Note_on_c, 5, 66, 0
7, 72315, Note_on_c, 5, 71, 0
7, 72470, Note_on_c, 5, 66, 28
7, 72470, Note_on_c, 5, 63, 16
7, 72485, Note_on_c, 5, 71, 77
7, 72540, Note_on_c, 5, 63, 0
7, 72550, Note_on_c, 5, 71, 0
7, 72550, Note_on_c, 5, 66, 0
7, 72610, Note_on_c, 5, 71, 74
7, 72610, Note_on_c, 5, 66, 70
7, 72610, Note_on_c, 5, 63, 27
7, 72660, Note_on_c, 5, 63, 0
7, 72685, Note_on_c, 5, 66, 0
7, 72685, Note_on_c, 5, 71, 0
7, 73910, Note_on_c, 5, 66, 71
7, 73920, Note_on_c, 5, 71, 77
7, 74035, Note_on_c, 5, 71, 0
7, 74050, Note_on_c, 5, 71, 73
7, 74050, Note_on_c, 5, 63, 16
7, 74100, Note_on_c, 5, 63, 0
7, 74145, Note_on_c, 5, 71, 0
7, 74145, Note_on_c, 5, 66, 0
7, 74150, Note_on_c, 5, 66, 68
7, 74190, Note_on_c, 5, 66, 0
7, 74405, Note_on_c, 5, 66, 59
7, 74405, Note_on_c, 5, 71, 68
7, 74490, Note_on_c, 5, 71, 0
7, 74490, Note_on_c, 5, 66, 0
7, 74520, Note_on_c, 5, 71, 71
7, 74525, Note_on_c, 5, 66, 68
7, 74535, Note_on_c, 5, 63, 47
7, 74610, Note_on_c, 5, 66, 0
7, 74610, Note_on_c, 5, 71, 0
7, 74620, Note_on_c, 5, 63, 0
7, 75135, Note_on_c, 5, 68, 65
7, 75190, Note_on_c, 5, 68, 0
7, 75600, Note_on_c, 5, 68, 62
7, 75600, Note_on_c, 5, 71, 33
7, 75640, Note_on_c, 5, 71, 0
7, 75655, Note_on_c, 5, 68, 0
7, 75845, Note_on_c, 5, 68, 73
7, 75945, Note_on_c, 5, 68, 0
7, 75950, Note_on_c, 5, 68, 75
7, 76085, Note_on_c, 5, 68, 0
7, 76085, Note_on_c, 5, 67, 75
7, 76190, Note_on_c, 5, 67, 0
7, 76190, Note_on_c, 5, 66, 73
7, 76300, Note_on_c, 5, 66, 0
7, 76445, Note_on_c, 5, 64, 65
7, 76540, Note_on_c, 5, 64, 0
7, 77050, Note_on_c, 5, 68, 68
7, 77050, Note_on_c, 5, 71, 79
7, 77110, Note_on_c, 5, 68, 0
7, 77115, Note_on_c, 5, 71, 0
7, 77525, Note_on_c, 5, 68, 68
7, 77525, Note_on_c, 5, 71, 78
7, 77560, Note_on_c, 5, 71, 0
7, 77560, Note_on_c, 5, 68, 0
7, 77750, Note_on_c, 5, 68, 65
7, 77750, Note_on_c, 5, 71, 74
7, 77870, Note_on_c, 5, 71, 0
7, 77890, Note_on_c, 5, 71, 75
7, 77935, Note_on_c, 5, 71, 0
7, 77950, Note_on_c, 5, 68, 0
7, 78110, Note_on_c, 5, 71, 77
7, 78115, Note_on_c, 5, 68, 67
7, 78170, Note_on_c, 5, 71, 0
7, 78175, Note_on_c, 5, 68, 0
7, 78360, Note_on_c, 5, 71, 75
7, 78360, Note_on_c, 5, 68, 64
7, 78415, Note_on_c, 5, 71, 0
7, 78430, Note_on_c, 5, 68, 0
7, 78970, Note_on_c, 5, 71, 78
7, 79030, Note_on_c, 5, 71, 0
7, 79340, Note_on_c, 5, 69, 78
7, 79340, Note_on_c, 5, 66, 71
7, 79390, Note_on_c, 5, 69, 0
7, 79395, Note_on_c, 5, 66, 0
7, 79670, Note_on_c, 5, 66, 52
7, 79690, Note_on_c, 5, 69, 75
7, 79735, Note_on_c, 5, 69, 0
7, 79755, Note_on_c, 5, 66, 0
7, 80040, Note_on_c, 5, 69, 75
7, 80040, Note_on_c, 5, 66, 62
7, 80080, Note_on_c, 5, 69, 0
7, 80110, Note_on_c, 5, 66, 0
7, 80390, Note_on_c, 5, 71, 73
7, 80390, Note_on_c, 5, 66, 67
7, 80525, Note_on_c, 5, 71, 0
7, 80530, Note_on_c, 5, 66, 0
7, 80530, Note_on_c, 5, 71, 69
7, 80535, Note_on_c, 5, 66, 70
7, 80610, Note_on_c, 5, 66, 0
7, 80620, Note_on_c, 5, 71, 0
7, 80870, Note_on_c, 5, 66, 67
7, 80885, Note_on_c, 5, 69, 75
7, 80930, Note_on_c, 5, 69, 0
7, 80950, Note_on_c, 5, 66, 0
7, 81250, Note_on_c, 5, 69, 75
7, 81260, Note_on_c, 5, 66, 65
7, 81300, Note_on_c, 5, 69, 0
7, 81320, Note_on_c, 5, 66, 0
7, 81595, Note_on_c, 5, 66, 42
7, 81610, Note_on_c, 5, 69, 76
7, 81650, Note_on_c, 5, 69, 0
7, 81665, Note_on_c, 5, 66, 0
7, 81965, Note_on_c, 5, 71, 73
7, 81965, Note_on_c, 5, 66, 62
7, 82050, Note_on_c, 5, 66, 0
7, 82050, Note_on_c, 5, 71, 0
7, 82210, Note_on_c, 5, 66, 23
7, 82300, Note_on_c, 5, 66, 0
7, 82310, Note_on_c, 5, 66, 51
7, 82320, Note_on_c, 5, 69, 55
7, 82430, Note_on_c, 5, 69, 0
7, 82450, Note_on_c, 5, 69, 75
7, 82515, Note_on_c, 5, 69, 0
7, 82515, Note_on_c, 5, 66, 0
7, 82780, Note_on_c, 5, 67, 81
7, 82870, Note_on_c, 5, 67, 0
7, 83040, Note_on_c, 5, 67, 76
7, 83155, Note_on_c, 5, 67, 0
7, 83160, Note_on_c, 5, 67, 87
7, 83260, Note_on_c, 5, 67, 0
7, 83265, Note_on_c, 5, 67, 71
7, 83370, Note_on_c, 5, 67, 0
7, 83400, Note_on_c, 5, 67, 82
7, 83510, Note_on_c, 5, 67, 0
7, 83520, Note_on_c, 5, 64, 81
7, 83675, Note_on_c, 5, 64, 0
7, 83770, Note_on_c, 5, 62, 49
7, 83870, Note_on_c, 5, 62, 0
7, 84010, Note_on_c, 5, 62, 52
7, 84105, Note_on_c, 5, 62, 0
7, 84125, Note_on_c, 5, 64, 55
7, 84210, Note_on_c, 5, 64, 0
7, 84240, Note_on_c, 5, 67, 92
7, 84345, Note_on_c, 5, 67, 0
7, 84350, Note_on_c, 5, 67, 81
7, 84450, Note_on_c, 5, 67, 0
7, 84490, Note_on_c, 5, 70, 86
7, 84560, Note_on_c, 5, 70, 0
7, 84715, Note_on_c, 5, 69, 85
7, 84830, Note_on_c, 5, 69, 0
7, 84845, Note_on_c, 5, 67, 84
7, 84915, Note_on_c, 5, 67, 0
7, 85075, Note_on_c, 5, 67, 28
7, 85130, Note_on_c, 5, 67, 0
7, 85200, Note_on_c, 5, 70, 87
7, 85310, Note_on_c, 5, 70, 0
7, 85335, Note_on_c, 5, 67, 49
7, 85370, Note_on_c, 5, 67, 0
7, 85445, Note_on_c, 5, 69, 88
7, 85550, Note_on_c, 5, 69, 0
7, 85570, Note_on_c, 5, 67, 84
7, 85630, Note_on_c, 5, 67, 0
7, 85800, Note_on_c, 5, 67, 68
7, 85895, Note_on_c, 5, 67, 0
7, 85905, Note_on_c, 5, 67, 85
7, 86020, Note_on_c, 5, 67, 0
7, 86025, Note_on_c, 5, 67, 79
7, 86115, Note_on_c, 5, 67, 0
7, 86655, Note_on_c, 5, 66, 20
7, 86660, Note_on_c, 5, 71, 75
7, 86715, Note_on_c, 5, 66, 0
7, 86730, Note_on_c, 5, 71, 0
7, 87125, Note_on_c, 5, 66, 40
7, 87125, Note_on_c, 5, 69, 77
7, 87200, Note_on_c, 5, 69, 0
7, 87215, Note_on_c, 5, 66, 0
7, 87495, Note_on_c, 5, 71, 74
7, 87495, Note_on_c, 5, 66, 47
7, 87555, Note_on_c, 5, 66, 0
7, 87565, Note_on_c, 5, 71, 0
7, 87840, Note_on_c, 5, 66, 68
7, 87850, Note_on_c, 5, 69, 79
7, 87915, Note_on_c, 5, 69, 0
7, 87940, Note_on_c, 5, 66, 0
7, 88200, Note_on_c, 5, 71, 74
7, 88210, Note_on_c, 5, 66, 54
7, 88280, Note_on_c, 5, 66, 0
7, 88280, Note_on_c, 5, 71, 0
7, 88560, Note_on_c, 5, 66, 68
7, 88570, Note_on_c, 5, 71, 74
7, 88640, Note_on_c, 5, 71, 0
7, 88655, Note_on_c, 5, 66, 0
7, 88930, Note_on_c, 5, 69, 75
7, 88930, Note_on_c, 5, 66, 62
7, 88985, Note_on_c, 5, 69, 0
7, 89030, Note_on_c, 5, 66, 0
7, 89410, Note_on_c, 5, 71, 73
7, 89410, Note_on_c, 5, 66, 62
7, 89480, Note_on_c, 5, 66, 0
7, 89480, Note_on_c, 5, 71, 0
7, 89765, Note_on_c, 5, 69, 77
7, 89770, Note_on_c, 5, 66, 67
7, 89840, Note_on_c, 5, 69, 0
7, 89850, Note_on_c, 5, 66, 0
7, 90470, Note_on_c, 5, 62, 75
7, 90480, Note_on_c, 5, 59, 16
7, 90480, Note_on_c, 5, 67, 75
7, 90550, Note_on_c, 5, 59, 0
7, 90570, Note_on_c, 5, 67, 0
7, 90570, Note_on_c, 5, 62, 0
7, 90860, Note_on_c, 5, 67, 52
7, 90945, Note_on_c, 5, 67, 0
7, 91200, Note_on_c, 5, 62, 69
7, 91210, Note_on_c, 5, 67, 79
7, 91250, Note_on_c, 5, 62, 0
7, 91255, Note_on_c, 5, 67, 0
7, 91550, Note_on_c, 5, 67, 79
7, 91560, Note_on_c, 5, 62, 61
7, 91590, Note_on_c, 5, 62, 0
7, 91610, Note_on_c, 5, 67, 0
7, 91910, Note_on_c, 5, 67, 71
7, 91910, Note_on_c, 5, 62, 53
7, 91965, Note_on_c, 5, 62, 0
7, 91985, Note_on_c, 5, 67, 0
7, 92390, Note_on_c, 5, 62, 28
7, 92405, Note_on_c, 5, 67, 67
7, 92455, Note_on_c, 5, 67, 0
7, 92455, Note_on_c, 5, 62, 0
7, 92880, Note_on_c, 5, 67, 75
7, 92880, Note_on_c, 5, 62, 61
7, 92940, Note_on_c, 5, 62, 0
7, 92950, Note_on_c, 5, 67, 0
7, 93250, Note_on_c, 5, 67, 75
7, 93250, Note_on_c, 5, 62, 55
7, 93290, Note_on_c, 5, 62, 0
7, 93315, Note_on_c, 5, 67, 0
7, 93590, Note_on_c, 5, 62, 70
7, 93590, Note_on_c, 5, 67, 75
7, 93645, Note_on_c, 5, 62, 0
7, 93650, Note_on_c, 5, 67, 0
7, 93945, Note_on_c, 5, 67, 77
7, 93950, Note_on_c, 5, 62, 66
7, 94010, Note_on_c, 5, 62, 0
7, 94030, Note_on_c, 5, 67, 0
7, 94310, Note_on_c, 5, 66, 37
7, 94320, Note_on_c, 5, 71, 71
7, 94400, Note_on_c, 5, 66, 0
7, 94425, Note_on_c, 5, 71, 0
7, 94795, Note_on_c, 5, 66, 61
7, 94810, Note_on_c, 5, 71, 70
7, 94885, Note_on_c, 5, 66, 0
7, 94890, Note_on_c, 5, 71, 0
7, 95170, Note_on_c, 5, 71, 69
7, 95170, Note_on_c, 5, 66, 57
7, 95220, Note_on_c, 5, 66, 0
7, 95230, Note_on_c, 5, 71, 0
7, 95515, Note_on_c, 5, 69, 75
7, 95580, Note_on_c, 5, 69, 0
7, 95875, Note_on_c, 5, 71, 68
7, 95885, Note_on_c, 5, 66, 62
7, 95940, Note_on_c, 5, 71, 0
7, 95950, Note_on_c, 5, 66, 0
7, 96245, Note_on_c, 5, 66, 61
7, 96245, Note_on_c, 5, 71, 70
7, 96330, Note_on_c, 5, 71, 0
7, 96330, Note_on_c, 5, 66, 0
7, 96720, Note_on_c, 5, 66, 61
7, 96730, Note_on_c, 5, 71, 61
7, 96800, Note_on_c, 5, 71, 0
7, 96805, Note_on_c, 5, 66, 0
7, 97080, Note_on_c, 5, 69, 75
7, 97090, Note_on_c, 5, 66, 65
7, 97155, Note_on_c, 5, 69, 0
7, 97170, Note_on_c, 5, 66, 0
7, 97435, Note_on_c, 5, 66, 61
7, 97435, Note_on_c, 5, 71, 70
7, 97515, Note_on_c, 5, 71, 0
7, 97525, Note_on_c, 5, 66, 0
7, 97795, Note_on_c, 5, 69, 74
7, 97795, Note_on_c, 5, 66, 42
7, 97865, Note_on_c, 5, 69, 0
7, 97895, Note_on_c, 5, 66, 0
7, 98170, Note_on_c, 5, 62, 46
7, 98170, Note_on_c, 5, 67, 71
7, 98250, Note_on_c, 5, 62, 0
7, 98270, Note_on_c, 5, 67, 0
7, 98640, Note_on_c, 5, 62, 74
7, 98640, Note_on_c, 5, 67, 65
7, 98640, Note_on_c, 5, 59, 40
7, 98700, Note_on_c, 5, 62, 0
7, 98710, Note_on_c, 5, 59, 0
7, 98710, Note_on_c, 5, 67, 0
7, 99010, Note_on_c, 5, 67, 78
7, 99010, Note_on_c, 5, 62, 59
7, 99050, Note_on_c, 5, 62, 0
7, 99070, Note_on_c, 5, 67, 0
7, 99365, Note_on_c, 5, 67, 78
7, 99410, Note_on_c, 5, 67, 0
7, 99730, Note_on_c, 5, 69, 74
7, 99790, Note_on_c, 5, 69, 0
7, 100070, Note_on_c, 5, 62, 69
7, 100070, Note_on_c, 5, 67, 76
7, 100135, Note_on_c, 5, 62, 0
7, 100140, Note_on_c, 5, 67, 0
7, 100440, Note_on_c, 5, 69, 74
7, 100515, Note_on_c, 5, 69, 0
7, 100790, Note_on_c, 5, 62, 17
7, 100800, Note_on_c, 5, 67, 59
7, 100825, Note_on_c, 5, 62, 0
7, 100840, Note_on_c, 5, 67, 0
7, 101170, Note_on_c, 5, 69, 74
7, 101170, Note_on_c, 5, 62, 52
7, 101210, Note_on_c, 5, 62, 0
7, 101240, Note_on_c, 5, 69, 0
7, 101520, Note_on_c, 5, 67, 75
7, 101630, Note_on_c, 5, 67, 0
7, 101990, Note_on_c, 5, 63, 49
7, 101990, Note_on_c, 5, 66, 65
7, 101995, Note_on_c, 5, 71, 61
7, 102040, Note_on_c, 5, 71, 0
7, 102045, Note_on_c, 5, 66, 0
7, 102050, Note_on_c, 5, 63, 0
7, 102720, Note_on_c, 5, 66, 65
7, 102730, Note_on_c, 5, 71, 74
7, 102845, Note_on_c, 5, 71, 0
7, 102850, Note_on_c, 5, 71, 70
7, 102950, Note_on_c, 5, 66, 0
7, 102960, Note_on_c, 5, 71, 0
7, 102965, Note_on_c, 5, 63, 37
7, 102965, Note_on_c, 5, 66, 67
7, 102965, Note_on_c, 5, 71, 70
7, 103010, Note_on_c, 5, 71, 0
7, 103015, Note_on_c, 5, 63, 0
7, 103025, Note_on_c, 5, 66, 0
7, 103210, Note_on_c, 5, 66, 51
7, 103210, Note_on_c, 5, 71, 71
7, 103270, Note_on_c, 5, 71, 0
7, 103275, Note_on_c, 5, 66, 0
7, 103330, Note_on_c, 5, 71, 65
7, 103330, Note_on_c, 5, 66, 70
7, 103330, Note_on_c, 5, 63, 28
7, 103395, Note_on_c, 5, 63, 0
7, 103400, Note_on_c, 5, 66, 0
7, 103400, Note_on_c, 5, 71, 0
7, 103915, Note_on_c, 5, 66, 63
7, 103915, Note_on_c, 5, 71, 68
7, 103955, Note_on_c, 5, 71, 0
7, 103965, Note_on_c, 5, 66, 0
7, 104630, Note_on_c, 5, 66, 62
7, 104635, Note_on_c, 5, 71, 66
7, 104745, Note_on_c, 5, 71, 0
7, 104750, Note_on_c, 5, 71, 69
7, 104870, Note_on_c, 5, 71, 0
7, 104900, Note_on_c, 5, 66, 0
7, 105110, Note_on_c, 5, 66, 61
7, 105120, Note_on_c, 5, 71, 71
7, 105230, Note_on_c, 5, 71, 0
7, 105230, Note_on_c, 5, 66, 0
7, 105235, Note_on_c, 5, 71, 71
7, 105235, Note_on_c, 5, 66, 67
7, 105330, Note_on_c, 5, 71, 0
7, 105335, Note_on_c, 5, 66, 0
7, 105850, Note_on_c, 5, 68, 71
7, 105850, Note_on_c, 5, 71, 60
7, 105895, Note_on_c, 5, 71, 0
7, 105910, Note_on_c, 5, 68, 0
7, 106310, Note_on_c, 5, 68, 50
7, 106325, Note_on_c, 5, 71, 83
7, 106375, Note_on_c, 5, 71, 0
7, 106410, Note_on_c, 5, 68, 0
7, 106550, Note_on_c, 5, 68, 76
7, 106665, Note_on_c, 5, 68, 0
7, 106670, Note_on_c, 5, 68, 67
7, 106790, Note_on_c, 5, 67, 75
7, 106795, Note_on_c, 5, 68, 0
7, 106890, Note_on_c, 5, 67, 0
7, 106910, Note_on_c, 5, 66, 71
7, 107030, Note_on_c, 5, 66, 0
7, 107150, Note_on_c, 5, 64, 73
7, 107265, Note_on_c, 5, 64, 0
7, 107770, Note_on_c, 5, 68, 62
7, 107780, Note_on_c, 5, 71, 74
7, 107830, Note_on_c, 5, 71, 0
7, 107840, Note_on_c, 5, 68, 0
7, 108230, Note_on_c, 5, 68, 54
7, 108295, Note_on_c, 5, 68, 0
7, 108610, Note_on_c, 5, 71, 67
7, 108610, Note_on_c, 5, 68, 50
7, 108665, Note_on_c, 5, 71, 0
7, 108670, Note_on_c, 5, 68, 0
7, 108950, Note_on_c, 5, 68, 54
7, 108950, Note_on_c, 5, 71, 68
7, 109015, Note_on_c, 5, 71, 0
7, 109035, Note_on_c, 5, 68, 0
7, 109190, Note_on_c, 5, 68, 51
7, 109190, Note_on_c, 5, 71, 69
7, 109290, Note_on_c, 5, 71, 0
7, 109300, Note_on_c, 5, 68, 0
7, 109675, Note_on_c, 5, 66, 61
7, 109675, Note_on_c, 5, 71, 73
7, 109755, Note_on_c, 5, 71, 0
7, 109755, Note_on_c, 5, 66, 0
7, 110060, Note_on_c, 5, 66, 67
7, 110060, Note_on_c, 5, 69, 75
7, 110060, Note_on_c, 5, 61, 16
7, 110090, Note_on_c, 5, 61, 0
7, 110120, Note_on_c, 5, 69, 0
7, 110150, Note_on_c, 5, 66, 0
7, 110410, Note_on_c, 5, 66, 64
7, 110410, Note_on_c, 5, 71, 63
7, 110490, Note_on_c, 5, 71, 0
7, 110495, Note_on_c, 5, 66, 0
7, 110750, Note_on_c, 5, 69, 74
7, 110755, Note_on_c, 5, 66, 67
7, 110755, Note_on_c, 5, 61, 16
7, 110795, Note_on_c, 5, 61, 0
7, 110830, Note_on_c, 5, 69, 0
7, 110845, Note_on_c, 5, 66, 0
7, 111115, Note_on_c, 5, 71, 71
7, 111195, Note_on_c, 5, 71, 0
7, 111590, Note_on_c, 5, 66, 35
7, 111600, Note_on_c, 5, 71, 68
7, 111670, Note_on_c, 5, 71, 0
7, 111675, Note_on_c, 5, 66, 0
7, 111950, Note_on_c, 5, 69, 75
7, 111950, Note_on_c, 5, 66, 55
7, 112015, Note_on_c, 5, 69, 0
7, 112040, Note_on_c, 5, 66, 0
7, 112310, Note_on_c, 5, 69, 74
7, 112310, Note_on_c, 5, 66, 61
7, 112405, Note_on_c, 5, 69, 0
7, 112410, Note_on_c, 5, 66, 0
7, 112670, Note_on_c, 5, 69, 75
7, 112670, Note_on_c, 5, 66, 65
7, 112760, Note_on_c, 5, 69, 0
7, 112785, Note_on_c, 5, 66, 0
7, 113510, Note_on_c, 5, 74, 67
7, 113510, Note_on_c, 5, 79, 71
7, 113620, Note_on_c, 5, 79, 0
7, 113630, Note_on_c, 5, 74, 0
7, 113750, Note_on_c, 5, 71, 66
7, 113750, Note_on_c, 5, 76, 70
7, 113870, Note_on_c, 5, 76, 0
7, 113880, Note_on_c, 5, 71, 0
7, 114230, Note_on_c, 5, 69, 73
7, 114235, Note_on_c, 5, 74, 68
7, 114360, Note_on_c, 5, 74, 0
7, 114365, Note_on_c, 5, 69, 0
7, 114370, Note_on_c, 5, 76, 68
7, 114375, Note_on_c, 5, 71, 67
7, 114445, Note_on_c, 5, 71, 0
7, 114450, Note_on_c, 5, 76, 0
7, 114610, Note_on_c, 5, 74, 75
7, 114610, Note_on_c, 5, 69, 57
7, 114710, Note_on_c, 5, 74, 0
7, 114715, Note_on_c, 5, 69, 0
7, 114730, Note_on_c, 5, 71, 68
7, 114730, Note_on_c, 5, 76, 74
7, 114840, Note_on_c, 5, 71, 0
7, 114845, Note_on_c, 5, 76, 0
7, 114945, Note_on_c, 5, 69, 70
7, 114950, Note_on_c, 5, 74, 67
7, 115030, Note_on_c, 5, 74, 0
7, 115050, Note_on_c, 5, 69, 0
7, 115190, Note_on_c, 5, 74, 61
7, 115190, Note_on_c, 5, 79, 61
7, 115305, Note_on_c, 5, 79, 0
7, 115310, Note_on_c, 5, 79, 61
7, 115325, Note_on_c, 5, 74, 0
7, 115330, Note_on_c, 5, 74, 51
7, 115410, Note_on_c, 5, 74, 0
7, 115430, Note_on_c, 5, 79, 0
7, 115430, Note_on_c, 5, 74, 62
7, 115435, Note_on_c, 5, 79, 57
7, 115520, Note_on_c, 5, 74, 0
7, 115530, Note_on_c, 5, 79, 0
7, 115555, Note_on_c, 5, 76, 69
7, 115570, Note_on_c, 5, 71, 63
7, 115655, Note_on_c, 5, 71, 0
7, 115655, Note_on_c, 5, 76, 0
7, 115910, Note_on_c, 5, 69, 70
7, 115925, Note_on_c, 5, 74, 55
7, 116030, Note_on_c, 5, 74, 0
7, 116045, Note_on_c, 5, 69, 0
7, 116045, Note_on_c, 5, 74, 75
7, 116050, Note_on_c, 5, 69, 51
7, 116130, Note_on_c, 5, 69, 0
7, 116145, Note_on_c, 5, 74, 0
7, 116150, Note_on_c, 5, 69, 37
7, 116165, Note_on_c, 5, 74, 64
7, 116255, Note_on_c, 5, 74, 0
7, 116270, Note_on_c, 5, 69, 0
7, 116275, Note_on_c, 5, 76, 70
7, 116280, Note_on_c, 5, 71, 68
7, 116335, Note_on_c, 5, 71, 0
7, 116350, Note_on_c, 5, 76, 0
7, 116515, Note_on_c, 5, 76, 71
7, 116525, Note_on_c, 5, 71, 62
7, 116640, Note_on_c, 5, 71, 0
7, 116645, Note_on_c, 5, 76, 0
7, 116650, Note_on_c, 5, 71, 68
7, 116650, Note_on_c, 5, 76, 74
7, 116760, Note_on_c, 5, 76, 0
7, 116770, Note_on_c, 5, 71, 0
7, 117355, Note_on_c, 5, 66, 74
7, 117365, Note_on_c, 5, 71, 70
7, 117445, Note_on_c, 5, 66, 0
7, 117450, Note_on_c, 5, 71, 0
7, 117740, Note_on_c, 5, 69, 78
7, 117740, Note_on_c, 5, 64, 67
7, 117815, Note_on_c, 5, 64, 0
7, 117830, Note_on_c, 5, 69, 0
7, 118100, Note_on_c, 5, 64, 69
7, 118100, Note_on_c, 5, 69, 78
7, 118150, Note_on_c, 5, 64, 0
7, 118155, Note_on_c, 5, 69, 0
7, 118465, Note_on_c, 5, 69, 78
7, 118465, Note_on_c, 5, 64, 58
7, 118515, Note_on_c, 5, 64, 0
7, 118525, Note_on_c, 5, 69, 0
7, 118810, Note_on_c, 5, 64, 72
7, 118815, Note_on_c, 5, 69, 66
7, 118940, Note_on_c, 5, 69, 0
7, 118945, Note_on_c, 5, 69, 65
7, 118990, Note_on_c, 5, 69, 0
7, 118990, Note_on_c, 5, 64, 0
7, 119280, Note_on_c, 5, 66, 73
7, 119290, Note_on_c, 5, 71, 77
7, 119370, Note_on_c, 5, 71, 0
7, 119370, Note_on_c, 5, 66, 0
7, 119755, Note_on_c, 5, 66, 57
7, 119765, Note_on_c, 5, 71, 77
7, 119830, Note_on_c, 5, 66, 0
7, 119845, Note_on_c, 5, 71, 0
7, 120125, Note_on_c, 5, 69, 78
7, 120125, Note_on_c, 5, 64, 59
7, 120190, Note_on_c, 5, 64, 0
7, 120200, Note_on_c, 5, 69, 0
7, 120485, Note_on_c, 5, 66, 59
7, 120490, Note_on_c, 5, 71, 76
7, 120555, Note_on_c, 5, 71, 0
7, 120560, Note_on_c, 5, 66, 0
7, 120850, Note_on_c, 5, 69, 64
7, 120905, Note_on_c, 5, 69, 0
7, 121200, Note_on_c, 5, 62, 16
7, 121200, Note_on_c, 5, 69, 32
7, 121250, Note_on_c, 5, 69, 0
7, 121250, Note_on_c, 5, 62, 0
7, 121570, Note_on_c, 5, 67, 50
7, 121650, Note_on_c, 5, 67, 0
7, 121920, Note_on_c, 5, 62, 16
7, 121920, Note_on_c, 5, 69, 80
7, 121970, Note_on_c, 5, 62, 0
7, 122000, Note_on_c, 5, 69, 0
7, 122270, Note_on_c, 5, 67, 73
7, 122290, Note_on_c, 5, 62, 34
7, 122330, Note_on_c, 5, 62, 0
7, 122350, Note_on_c, 5, 67, 0
7, 122630, Note_on_c, 5, 67, 64
7, 122750, Note_on_c, 5, 67, 0
7, 122755, Note_on_c, 5, 67, 28
7, 122790, Note_on_c, 5, 67, 0
7, 123130, Note_on_c, 5, 67, 78
7, 123180, Note_on_c, 5, 67, 0
7, 123490, Note_on_c, 5, 67, 73
7, 123495, Note_on_c, 5, 62, 35
7, 123535, Note_on_c, 5, 62, 0
7, 123560, Note_on_c, 5, 67, 0
7, 123850, Note_on_c, 5, 62, 77
7, 123850, Note_on_c, 5, 67, 79
7, 123920, Note_on_c, 5, 62, 0
7, 123940, Note_on_c, 5, 67, 0
7, 124210, Note_on_c, 5, 69, 77
7, 124210, Note_on_c, 5, 62, 40
7, 124260, Note_on_c, 5, 62, 0
7, 124295, Note_on_c, 5, 69, 0
7, 124555, Note_on_c, 5, 62, 72
7, 124565, Note_on_c, 5, 67, 76
7, 124645, Note_on_c, 5, 62, 0
7, 124660, Note_on_c, 5, 67, 0
7, 125030, Note_on_c, 5, 66, 73
7, 125030, Note_on_c, 5, 71, 69
7, 125120, Note_on_c, 5, 71, 0
7, 125125, Note_on_c, 5, 66, 0
7, 125510, Note_on_c, 5, 66, 73
7, 125510, Note_on_c, 5, 71, 77
7, 125590, Note_on_c, 5, 66, 0
7, 125600, Note_on_c, 5, 71, 0
7, 125885, Note_on_c, 5, 71, 77
7, 125890, Note_on_c, 5, 66, 61
7, 125955, Note_on_c, 5, 66, 0
7, 125965, Note_on_c, 5, 71, 0
7, 126245, Note_on_c, 5, 64, 54
7, 126250, Note_on_c, 5, 69, 79
7, 126295, Note_on_c, 5, 69, 0
7, 126300, Note_on_c, 5, 64, 0
7, 126605, Note_on_c, 5, 71, 74
7, 126610, Note_on_c, 5, 66, 35
7, 126650, Note_on_c, 5, 66, 0
7, 126665, Note_on_c, 5, 71, 0
7, 126975, Note_on_c, 5, 71, 65
7, 127025, Note_on_c, 5, 71, 0
7, 127450, Note_on_c, 5, 69, 78
7, 127525, Note_on_c, 5, 69, 0
7, 127815, Note_on_c, 5, 71, 73
7, 127815, Note_on_c, 5, 66, 37
7, 127870, Note_on_c, 5, 66, 0
7, 127875, Note_on_c, 5, 71, 0
7, 128170, Note_on_c, 5, 69, 74
7, 128210, Note_on_c, 5, 69, 0
7, 128515, Note_on_c, 5, 69, 71
7, 128520, Note_on_c, 5, 64, 49
7, 128585, Note_on_c, 5, 64, 0
7, 128585, Note_on_c, 5, 69, 0
7, 128895, Note_on_c, 5, 67, 68
7, 128900, Note_on_c, 5, 62, 16
7, 128970, Note_on_c, 5, 62, 0
7, 128980, Note_on_c, 5, 67, 0
7, 129250, Note_on_c, 5, 69, 77
7, 129255, Note_on_c, 5, 64, 40
7, 129290, Note_on_c, 5, 64, 0
7, 129330, Note_on_c, 5, 69, 0
7, 129595, Note_on_c, 5, 57, 16
7, 129595, Note_on_c, 5, 62, 77
7, 129610, Note_on_c, 5, 67, 69
7, 129645, Note_on_c, 5, 57, 0
7, 129675, Note_on_c, 5, 67, 0
7, 129675, Note_on_c, 5, 62, 0
7, 129955, Note_on_c, 5, 67, 71
7, 129965, Note_on_c, 5, 62, 32
7, 130015, Note_on_c, 5, 62, 0
7, 130030, Note_on_c, 5, 67, 0
7, 130315, Note_on_c, 5, 62, 55
7, 130325, Note_on_c, 5, 67, 77
7, 130385, Note_on_c, 5, 62, 0
7, 130400, Note_on_c, 5, 67, 0
7, 130800, Note_on_c, 5, 67, 74
7, 130800, Note_on_c, 5, 62, 47
7, 130860, Note_on_c, 5, 62, 0
7, 130870, Note_on_c, 5, 67, 0
7, 131170, Note_on_c, 5, 69, 71
7, 131170, Note_on_c, 5, 64, 37
7, 131215, Note_on_c, 5, 64, 0
7, 131250, Note_on_c, 5, 69, 0
7, 131510, Note_on_c, 5, 62, 61
7, 131530, Note_on_c, 5, 67, 81
7, 131605, Note_on_c, 5, 62, 0
7, 131615, Note_on_c, 5, 67, 0
7, 131890, Note_on_c, 5, 67, 75
7, 131890, Note_on_c, 5, 62, 33
7, 131930, Note_on_c, 5, 62, 0
7, 131945, Note_on_c, 5, 67, 0
7, 132235, Note_on_c, 5, 62, 69
7, 132240, Note_on_c, 5, 67, 83
7, 132305, Note_on_c, 5, 62, 0
7, 132330, Note_on_c, 5, 67, 0
7, 132715, Note_on_c, 5, 63, 41
7, 132715, Note_on_c, 5, 66, 73
7, 132725, Note_on_c, 5, 71, 68
7, 132780, Note_on_c, 5, 71, 0
7, 132785, Note_on_c, 5, 66, 0
7, 132790, Note_on_c, 5, 63, 0
7, 133440, Note_on_c, 5, 63, 43
7, 133445, Note_on_c, 5, 66, 71
7, 133450, Note_on_c, 5, 71, 61
7, 133565, Note_on_c, 5, 71, 0
7, 133570, Note_on_c, 5, 71, 56
7, 133670, Note_on_c, 5, 66, 0
7, 133675, Note_on_c, 5, 71, 0
7, 133675, Note_on_c, 5, 66, 67
7, 133685, Note_on_c, 5, 71, 75
7, 133745, Note_on_c, 5, 63, 0
7, 133755, Note_on_c, 5, 71, 0
7, 133755, Note_on_c, 5, 66, 0
7, 133930, Note_on_c, 5, 66, 73
7, 133930, Note_on_c, 5, 71, 77
7, 134050, Note_on_c, 5, 71, 0
7, 134060, Note_on_c, 5, 71, 73
7, 134110, Note_on_c, 5, 71, 0
7, 134125, Note_on_c, 5, 66, 0
7, 134635, Note_on_c, 5, 66, 71
7, 134635, Note_on_c, 5, 71, 74
7, 134695, Note_on_c, 5, 71, 0
7, 134695, Note_on_c, 5, 66, 0
7, 135355, Note_on_c, 5, 71, 52
7, 135465, Note_on_c, 5, 71, 0
7, 135470, Note_on_c, 5, 71, 71
7, 135480, Note_on_c, 5, 66, 48
7, 135580, Note_on_c, 5, 71, 0
7, 135590, Note_on_c, 5, 66, 0
7, 135845, Note_on_c, 5, 66, 59
7, 135850, Note_on_c, 5, 71, 75
7, 135970, Note_on_c, 5, 71, 0
7, 135970, Note_on_c, 5, 66, 0
7, 135975, Note_on_c, 5, 66, 67
7, 135975, Note_on_c, 5, 71, 70
7, 136055, Note_on_c, 5, 71, 0
7, 136055, Note_on_c, 5, 66, 0
7, 136570, Note_on_c, 5, 68, 68
7, 136570, Note_on_c, 5, 71, 58
7, 136605, Note_on_c, 5, 68, 0
7, 136610, Note_on_c, 5, 71, 0
7, 137035, Note_on_c, 5, 68, 75
7, 137105, Note_on_c, 5, 68, 0
7, 137280, Note_on_c, 5, 68, 68
7, 137385, Note_on_c, 5, 68, 0
7, 137410, Note_on_c, 5, 68, 67
7, 137515, Note_on_c, 5, 68, 0
7, 137530, Note_on_c, 5, 68, 74
7, 137625, Note_on_c, 5, 68, 0
7, 137650, Note_on_c, 5, 67, 74
7, 137755, Note_on_c, 5, 67, 0
7, 137885, Note_on_c, 5, 66, 77
7, 137995, Note_on_c, 5, 66, 0
7, 138135, Note_on_c, 5, 64, 61
7, 138215, Note_on_c, 5, 64, 0
7, 138495, Note_on_c, 5, 68, 73
7, 138500, Note_on_c, 5, 70, 50
7, 138530, Note_on_c, 5, 70, 0
7, 138565, Note_on_c, 5, 68, 0
7, 138850, Note_on_c, 5, 71, 71
7, 138855, Note_on_c, 5, 68, 62
7, 138915, Note_on_c, 5, 68, 0
7, 138915, Note_on_c, 5, 71, 0
7, 139205, Note_on_c, 5, 68, 72
7, 139210, Note_on_c, 5, 71, 55
7, 139245, Note_on_c, 5, 71, 0
7, 139270, Note_on_c, 5, 68, 0
7, 139560, Note_on_c, 5, 71, 69
7, 139560, Note_on_c, 5, 68, 61
7, 139570, Note_on_c, 5, 62, 16
7, 139865, Note_on_c, 5, 62, 0
7, 139915, Note_on_c, 5, 68, 0
7, 139920, Note_on_c, 5, 68, 55
7, 139930, Note_on_c, 5, 71, 0
7, 139970, Note_on_c, 5, 68, 0
7, 140395, Note_on_c, 5, 71, 73
7, 140465, Note_on_c, 5, 71, 0
7, 140770, Note_on_c, 5, 69, 74
7, 140775, Note_on_c, 5, 66, 54
7, 140855, Note_on_c, 5, 66, 0
7, 140865, Note_on_c, 5, 69, 0
7, 141125, Note_on_c, 5, 66, 73
7, 141130, Note_on_c, 5, 71, 73
7, 141190, Note_on_c, 5, 71, 0
7, 141205, Note_on_c, 5, 66, 0
7, 141475, Note_on_c, 5, 69, 74
7, 141475, Note_on_c, 5, 66, 45
7, 141550, Note_on_c, 5, 66, 0
7, 141550, Note_on_c, 5, 69, 0
7, 141835, Note_on_c, 5, 66, 71
7, 141845, Note_on_c, 5, 69, 74
7, 141890, Note_on_c, 5, 69, 0
7, 141940, Note_on_c, 5, 66, 0
7, 142320, Note_on_c, 5, 66, 55
7, 142320, Note_on_c, 5, 69, 73
7, 142390, Note_on_c, 5, 69, 0
7, 142415, Note_on_c, 5, 66, 0
7, 142680, Note_on_c, 5, 71, 74
7, 142690, Note_on_c, 5, 66, 65
7, 142770, Note_on_c, 5, 66, 0
7, 142775, Note_on_c, 5, 71, 0
7, 143030, Note_on_c, 5, 66, 70
7, 143030, Note_on_c, 5, 69, 78
7, 143095, Note_on_c, 5, 69, 0
7, 143120, Note_on_c, 5, 66, 0
7, 143410, Note_on_c, 5, 69, 74
7, 143415, Note_on_c, 5, 66, 35
7, 143740, Note_on_c, 5, 66, 0
7, 143750, Note_on_c, 5, 69, 0
7, 143770, Note_on_c, 5, 66, 73
7, 143770, Note_on_c, 5, 69, 68
7, 143840, Note_on_c, 5, 69, 0
7, 143845, Note_on_c, 5, 66, 0
7, 144125, Note_on_c, 5, 67, 68
7, 144170, Note_on_c, 5, 67, 0
7, 144240, Note_on_c, 5, 70, 85
7, 144350, Note_on_c, 5, 70, 0
7, 144370, Note_on_c, 5, 67, 73
7, 144410, Note_on_c, 5, 67, 0
7, 144480, Note_on_c, 5, 69, 83
7, 144590, Note_on_c, 5, 69, 0
7, 144605, Note_on_c, 5, 67, 77
7, 144685, Note_on_c, 5, 67, 0
7, 144710, Note_on_c, 5, 64, 67
7, 144825, Note_on_c, 5, 64, 0
7, 144830, Note_on_c, 5, 67, 86
7, 144920, Note_on_c, 5, 67, 0
7, 144950, Note_on_c, 5, 64, 79
7, 145050, Note_on_c, 5, 64, 0
7, 145065, Note_on_c, 5, 59, 46
7, 145090, Note_on_c, 5, 59, 0
7, 145185, Note_on_c, 5, 57, 67
7, 145230, Note_on_c, 5, 57, 0
7, 145230, Note_on_c, 5, 58, 49
7, 145300, Note_on_c, 5, 58, 0
7, 145325, Note_on_c, 5, 55, 52
7, 145395, Note_on_c, 5, 55, 0
7, 145565, Note_on_c, 5, 67, 90
7, 145655, Note_on_c, 5, 67, 0
7, 145685, Note_on_c, 5, 64, 82
7, 145785, Note_on_c, 5, 64, 0
7, 145795, Note_on_c, 5, 59, 59
7, 145840, Note_on_c, 5, 59, 0
7, 145920, Note_on_c, 5, 57, 76
7, 145960, Note_on_c, 5, 58, 57
7, 145985, Note_on_c, 5, 57, 0
7, 146025, Note_on_c, 5, 58, 0
7, 146050, Note_on_c, 5, 55, 64
7, 146110, Note_on_c, 5, 55, 0
7, 146285, Note_on_c, 5, 67, 89
7, 146390, Note_on_c, 5, 67, 0
7, 146405, Note_on_c, 5, 64, 80
7, 146510, Note_on_c, 5, 64, 0
7, 146510, Note_on_c, 5, 59, 65
7, 146555, Note_on_c, 5, 59, 0
7, 146630, Note_on_c, 5, 57, 76
7, 146680, Note_on_c, 5, 57, 0
7, 146680, Note_on_c, 5, 58, 61
7, 146750, Note_on_c, 5, 58, 0
7, 146760, Note_on_c, 5, 55, 61
7, 146830, Note_on_c, 5, 55, 0
7, 147240, Note_on_c, 5, 67, 91
7, 147335, Note_on_c, 5, 67, 0
7, 147365, Note_on_c, 5, 64, 83
7, 147450, Note_on_c, 5, 64, 0
7, 147475, Note_on_c, 5, 59, 78
7, 147525, Note_on_c, 5, 59, 0
7, 147590, Note_on_c, 5, 57, 78
7, 147630, Note_on_c, 5, 57, 0
7, 147630, Note_on_c, 5, 58, 67
7, 147705, Note_on_c, 5, 58, 0
7, 147720, Note_on_c, 5, 55, 70
7, 147790, Note_on_c, 5, 55, 0
7, 148090, Note_on_c, 5, 63, 16
7, 148090, Note_on_c, 5, 66, 68
7, 148095, Note_on_c, 5, 71, 61
7, 148150, Note_on_c, 5, 63, 0
7, 148155, Note_on_c, 5, 71, 0
7, 148170, Note_on_c, 5, 66, 0
7, 148790, Note_on_c, 5, 63, 16
7, 148795, Note_on_c, 5, 66, 68
7, 148810, Note_on_c, 5, 71, 73
7, 148925, Note_on_c, 5, 71, 0
7, 148925, Note_on_c, 5, 66, 0
7, 148930, Note_on_c, 5, 71, 73
7, 148930, Note_on_c, 5, 66, 55
7, 149020, Note_on_c, 5, 66, 0
7, 149040, Note_on_c, 5, 71, 0
7, 149040, Note_on_c, 5, 63, 0
7, 149290, Note_on_c, 5, 66, 65
7, 149290, Note_on_c, 5, 71, 63
7, 149405, Note_on_c, 5, 71, 0
7, 149410, Note_on_c, 5, 71, 75
7, 149490, Note_on_c, 5, 71, 0
7, 149490, Note_on_c, 5, 66, 0
7, 150010, Note_on_c, 5, 66, 68
7, 150010, Note_on_c, 5, 71, 68
7, 150070, Note_on_c, 5, 71, 0
7, 150075, Note_on_c, 5, 66, 0
7, 150710, Note_on_c, 5, 66, 62
7, 150710, Note_on_c, 5, 71, 73
7, 150825, Note_on_c, 5, 71, 0
7, 150825, Note_on_c, 5, 66, 0
7, 150830, Note_on_c, 5, 71, 75
7, 150830, Note_on_c, 5, 66, 48
7, 150920, Note_on_c, 5, 66, 0
7, 150920, Note_on_c, 5, 71, 0
7, 151190, Note_on_c, 5, 63, 17
7, 151195, Note_on_c, 5, 66, 67
7, 151210, Note_on_c, 5, 71, 73
7, 151315, Note_on_c, 5, 71, 0
7, 151315, Note_on_c, 5, 66, 0
7, 151320, Note_on_c, 5, 71, 73
7, 151320, Note_on_c, 5, 66, 66
7, 151430, Note_on_c, 5, 71, 0
7, 151435, Note_on_c, 5, 66, 0
7, 151435, Note_on_c, 5, 63, 0
7, 151930, Note_on_c, 5, 68, 68
7, 151930, Note_on_c, 5, 62, 55
7, 151930, Note_on_c, 5, 71, 52
7, 151985, Note_on_c, 5, 71, 0
7, 151985, Note_on_c, 5, 62, 0
7, 152025, Note_on_c, 5, 68, 0
7, 152400, Note_on_c, 5, 68, 71
7, 152410, Note_on_c, 5, 71, 63
7, 152450, Note_on_c, 5, 71, 0
7, 152485, Note_on_c, 5, 68, 0
7, 152650, Note_on_c, 5, 68, 75
7, 152865, Note_on_c, 5, 68, 0
7, 152890, Note_on_c, 5, 68, 77
7, 152990, Note_on_c, 5, 68, 0
7, 153015, Note_on_c, 5, 67, 73
7, 153110, Note_on_c, 5, 67, 0
7, 153250, Note_on_c, 5, 66, 77
7, 153345, Note_on_c, 5, 66, 0
7, 153475, Note_on_c, 5, 64, 72
7, 153575, Note_on_c, 5, 64, 0
7, 153835, Note_on_c, 5, 62, 71
7, 153835, Note_on_c, 5, 68, 72
7, 153835, Note_on_c, 5, 71, 44
7, 153875, Note_on_c, 5, 62, 0
7, 153910, Note_on_c, 5, 71, 0
7, 153930, Note_on_c, 5, 68, 0
7, 154310, Note_on_c, 5, 68, 65
7, 154320, Note_on_c, 5, 71, 73
7, 154360, Note_on_c, 5, 71, 0
7, 154370, Note_on_c, 5, 68, 0
7, 154555, Note_on_c, 5, 62, 47
7, 154555, Note_on_c, 5, 68, 69
7, 154565, Note_on_c, 5, 71, 75
7, 154685, Note_on_c, 5, 71, 0
7, 154690, Note_on_c, 5, 71, 42
7, 154710, Note_on_c, 5, 62, 0
7, 154745, Note_on_c, 5, 71, 0
7, 154750, Note_on_c, 5, 68, 0
7, 155050, Note_on_c, 5, 62, 40
7, 155050, Note_on_c, 5, 68, 63
7, 155050, Note_on_c, 5, 71, 65
7, 155165, Note_on_c, 5, 71, 0
7, 155170, Note_on_c, 5, 68, 0
7, 155170, Note_on_c, 5, 71, 73
7, 155175, Note_on_c, 5, 68, 61
7, 155250, Note_on_c, 5, 62, 0
7, 155270, Note_on_c, 5, 71, 0
7, 155275, Note_on_c, 5, 68, 0
7, 155760, Note_on_c, 5, 71, 73
7, 155830, Note_on_c, 5, 71, 0
7, 156130, Note_on_c, 5, 69, 78
7, 156130, Note_on_c, 5, 66, 67
7, 156215, Note_on_c, 5, 66, 0
7, 156215, Note_on_c, 5, 69, 0
7, 156725, Note_on_c, 5, 66, 70
7, 156730, Note_on_c, 5, 69, 71
7, 156785, Note_on_c, 5, 69, 0
7, 156815, Note_on_c, 5, 66, 0
7, 157080, Note_on_c, 5, 71, 77
7, 157080, Note_on_c, 5, 66, 63
7, 157160, Note_on_c, 5, 66, 0
7, 157160, Note_on_c, 5, 71, 0
7, 157670, Note_on_c, 5, 66, 68
7, 157670, Note_on_c, 5, 71, 76
7, 157740, Note_on_c, 5, 71, 0
7, 157755, Note_on_c, 5, 66, 0
7, 158160, Note_on_c, 5, 66, 62
7, 158160, Note_on_c, 5, 71, 75
7, 158245, Note_on_c, 5, 71, 0
7, 158250, Note_on_c, 5, 66, 0
7, 158400, Note_on_c, 5, 66, 71
7, 158425, Note_on_c, 5, 71, 28
7, 158510, Note_on_c, 5, 71, 0
7, 158530, Note_on_c, 5, 71, 75
7, 158575, Note_on_c, 5, 71, 0
7, 158595, Note_on_c, 5, 66, 0
7, 158770, Note_on_c, 5, 69, 77
7, 158770, Note_on_c, 5, 66, 70
7, 158850, Note_on_c, 5, 66, 0
7, 158850, Note_on_c, 5, 69, 0
7, 158995, Note_on_c, 5, 71, 71
7, 159005, Note_on_c, 5, 66, 68
7, 159015, Note_on_c, 5, 61, 16
7, 159050, Note_on_c, 5, 61, 0
7, 159090, Note_on_c, 5, 66, 0
7, 159105, Note_on_c, 5, 71, 0
7, 159610, Note_on_c, 5, 62, 75
7, 159615, Note_on_c, 5, 67, 67
7, 159650, Note_on_c, 5, 67, 0
7, 159670, Note_on_c, 5, 62, 0
7, 159965, Note_on_c, 5, 67, 79
7, 159970, Note_on_c, 5, 62, 74
7, 159975, Note_on_c, 5, 59, 23
7, 160015, Note_on_c, 5, 59, 0
7, 160030, Note_on_c, 5, 62, 0
7, 160030, Note_on_c, 5, 67, 0
7, 160330, Note_on_c, 5, 62, 61
7, 160365, Note_on_c, 5, 62, 0
7, 160690, Note_on_c, 5, 67, 79
7, 160695, Note_on_c, 5, 62, 75
7, 160735, Note_on_c, 5, 62, 0
7, 160755, Note_on_c, 5, 67, 0
7, 161045, Note_on_c, 5, 62, 46
7, 161050, Note_on_c, 5, 67, 42
7, 161165, Note_on_c, 5, 67, 0
7, 161170, Note_on_c, 5, 62, 0
7, 161170, Note_on_c, 5, 67, 79
7, 161175, Note_on_c, 5, 62, 73
7, 161175, Note_on_c, 5, 59, 16
7, 161215, Note_on_c, 5, 59, 0
7, 161215, Note_on_c, 5, 62, 0
7, 161225, Note_on_c, 5, 67, 0
7, 161525, Note_on_c, 5, 59, 41
7, 161580, Note_on_c, 5, 59, 0
7, 161590, Note_on_c, 5, 59, 36
7, 161645, Note_on_c, 5, 59, 0
7, 161650, Note_on_c, 5, 59, 41
7, 161705, Note_on_c, 5, 59, 0
7, 161710, Note_on_c, 5, 59, 37
7, 161770, Note_on_c, 5, 59, 0
7, 161770, Note_on_c, 5, 60, 47
7, 161825, Note_on_c, 5, 60, 0
7, 161830, Note_on_c, 5, 60, 48
7, 161875, Note_on_c, 5, 60, 0
7, 161880, Note_on_c, 5, 60, 39
7, 161935, Note_on_c, 5, 60, 0
7, 161945, Note_on_c, 5, 60, 55
7, 162000, Note_on_c, 5, 60, 0
7, 162010, Note_on_c, 5, 61, 64
7, 162065, Note_on_c, 5, 61, 0
7, 162070, Note_on_c, 5, 61, 63
7, 162125, Note_on_c, 5, 61, 0
7, 162130, Note_on_c, 5, 61, 63
7, 162180, Note_on_c, 5, 61, 0
7, 162185, Note_on_c, 5, 61, 58
7, 162240, Note_on_c, 5, 61, 0
7, 162245, Note_on_c, 5, 62, 73
7, 162300, Note_on_c, 5, 62, 0
7, 162305, Note_on_c, 5, 62, 73
7, 162360, Note_on_c, 5, 62, 0
7, 162365, Note_on_c, 5, 62, 66
7, 162420, Note_on_c, 5, 62, 0
7, 162425, Note_on_c, 5, 62, 72
7, 162480, Note_on_c, 5, 62, 0
7, 162485, Note_on_c, 5, 61, 74
7, 162540, Note_on_c, 5, 61, 0
7, 162545, Note_on_c, 5, 61, 64
7, 162600, Note_on_c, 5, 61, 0
7, 162605, Note_on_c, 5, 61, 51
7, 162660, Note_on_c, 5, 61, 0
7, 162670, Note_on_c, 5, 61, 56
7, 162725, Note_on_c, 5, 61, 0
7, 162730, Note_on_c, 5, 60, 56
7, 162785, Note_on_c, 5, 60, 0
7, 162790, Note_on_c, 5, 60, 55
7, 162840, Note_on_c, 5, 60, 0
7, 162845, Note_on_c, 5, 60, 43
7, 162900, Note_on_c, 5, 60, 0
7, 162910, Note_on_c, 5, 60, 48
7, 162965, Note_on_c, 5, 60, 0
7, 162965, Note_on_c, 5, 59, 46
7, 163080, Note_on_c, 5, 59, 0
7, 163445, Note_on_c, 5, 66, 58
7, 163445, Note_on_c, 5, 71, 67
7, 163515, Note_on_c, 5, 71, 0
7, 163550, Note_on_c, 5, 66, 0
7, 163695, Note_on_c, 5, 66, 71
7, 163695, Note_on_c, 5, 69, 71
7, 163775, Note_on_c, 5, 69, 0
7, 163820, Note_on_c, 5, 71, 82
7, 163890, Note_on_c, 5, 71, 0
7, 163890, Note_on_c, 5, 66, 0
7, 164050, Note_on_c, 5, 69, 81
7, 164050, Note_on_c, 5, 66, 61
7, 164135, Note_on_c, 5, 69, 0
7, 164170, Note_on_c, 5, 71, 65
7, 164260, Note_on_c, 5, 71, 0
7, 164270, Note_on_c, 5, 66, 0
7, 164410, Note_on_c, 5, 69, 67
7, 164490, Note_on_c, 5, 69, 0
7, 164525, Note_on_c, 5, 71, 73
7, 164525, Note_on_c, 5, 66, 43
7, 164600, Note_on_c, 5, 71, 0
7, 164610, Note_on_c, 5, 66, 0
7, 164765, Note_on_c, 5, 69, 55
7, 164855, Note_on_c, 5, 69, 0
7, 164885, Note_on_c, 5, 66, 73
7, 164895, Note_on_c, 5, 71, 72
7, 164980, Note_on_c, 5, 71, 0
7, 165000, Note_on_c, 5, 66, 0
7, 165130, Note_on_c, 5, 66, 44
7, 165230, Note_on_c, 5, 66, 0
7, 165360, Note_on_c, 5, 66, 78
7, 165370, Note_on_c, 5, 71, 74
7, 165450, Note_on_c, 5, 71, 0
7, 165470, Note_on_c, 5, 66, 0
7, 165600, Note_on_c, 5, 66, 76
7, 165610, Note_on_c, 5, 69, 67
7, 165710, Note_on_c, 5, 69, 0
7, 165730, Note_on_c, 5, 71, 73
7, 165805, Note_on_c, 5, 71, 0
7, 165815, Note_on_c, 5, 66, 0
7, 165965, Note_on_c, 5, 69, 64
7, 165965, Note_on_c, 5, 66, 43
7, 166060, Note_on_c, 5, 69, 0
7, 166085, Note_on_c, 5, 66, 0
7, 166090, Note_on_c, 5, 66, 65
7, 166090, Note_on_c, 5, 71, 55
7, 166140, Note_on_c, 5, 71, 0
7, 166165, Note_on_c, 5, 66, 0
7, 166320, Note_on_c, 5, 66, 76
7, 166330, Note_on_c, 5, 69, 48
7, 166420, Note_on_c, 5, 69, 0
7, 166440, Note_on_c, 5, 71, 78
7, 166515, Note_on_c, 5, 71, 0
7, 166535, Note_on_c, 5, 66, 0
7, 166690, Note_on_c, 5, 69, 81
7, 166690, Note_on_c, 5, 66, 53
7, 166780, Note_on_c, 5, 69, 0
7, 166810, Note_on_c, 5, 71, 66
7, 166890, Note_on_c, 5, 71, 0
7, 166900, Note_on_c, 5, 66, 0
7, 167285, Note_on_c, 5, 62, 58
7, 167325, Note_on_c, 5, 62, 0
7, 167630, Note_on_c, 5, 67, 84
7, 167640, Note_on_c, 5, 62, 68
7, 167690, Note_on_c, 5, 62, 0
7, 167690, Note_on_c, 5, 67, 0
7, 168000, Note_on_c, 5, 62, 75
7, 168005, Note_on_c, 5, 67, 67
7, 168060, Note_on_c, 5, 67, 0
7, 168060, Note_on_c, 5, 62, 0
7, 168360, Note_on_c, 5, 67, 83
7, 168370, Note_on_c, 5, 62, 57
7, 168415, Note_on_c, 5, 62, 0
7, 168435, Note_on_c, 5, 67, 0
7, 168720, Note_on_c, 5, 69, 60
7, 168820, Note_on_c, 5, 69, 0
7, 168845, Note_on_c, 5, 69, 79
7, 168845, Note_on_c, 5, 62, 55
7, 168890, Note_on_c, 5, 62, 0
7, 168910, Note_on_c, 5, 69, 0
7, 169555, Note_on_c, 5, 67, 84
7, 169565, Note_on_c, 5, 62, 79
7, 169565, Note_on_c, 5, 59, 21
7, 169610, Note_on_c, 5, 59, 0
7, 169610, Note_on_c, 5, 62, 0
7, 169625, Note_on_c, 5, 67, 0
7, 169910, Note_on_c, 5, 62, 74
7, 169910, Note_on_c, 5, 67, 68
7, 169960, Note_on_c, 5, 67, 0
7, 169960, Note_on_c, 5, 62, 0
7, 170270, Note_on_c, 5, 67, 77
7, 170275, Note_on_c, 5, 62, 51
7, 170325, Note_on_c, 5, 62, 0
7, 170350, Note_on_c, 5, 67, 0
7, 171010, Note_on_c, 5, 69, 66
7, 171015, Note_on_c, 5, 74, 74
7, 171090, Note_on_c, 5, 74, 0
7, 171125, Note_on_c, 5, 76, 71
7, 171240, Note_on_c, 5, 69, 0
7, 171250, Note_on_c, 5, 76, 0
7, 171960, Note_on_c, 5, 76, 68
7, 171960, Note_on_c, 5, 69, 64
7, 171960, Note_on_c, 5, 66, 40
7, 172060, Note_on_c, 5, 76, 0
7, 172070, Note_on_c, 5, 69, 0
7, 172075, Note_on_c, 5, 69, 70
7, 172075, Note_on_c, 5, 74, 75
7, 172175, Note_on_c, 5, 74, 0
7, 172175, Note_on_c, 5, 66, 0
7, 172185, Note_on_c, 5, 69, 0
7, 172570, Note_on_c, 5, 66, 53
7, 172570, Note_on_c, 5, 69, 68
7, 172570, Note_on_c, 5, 74, 73
7, 172625, Note_on_c, 5, 74, 0
7, 172635, Note_on_c, 5, 69, 0
7, 172645, Note_on_c, 5, 66, 0
7, 173390, Note_on_c, 5, 74, 73
7, 173395, Note_on_c, 5, 69, 68
7, 173395, Note_on_c, 5, 66, 42
7, 173465, Note_on_c, 5, 69, 0
7, 173470, Note_on_c, 5, 66, 0
7, 173470, Note_on_c, 5, 74, 0
7, 173875, Note_on_c, 5, 74, 75
7, 173875, Note_on_c, 5, 69, 65
7, 173885, Note_on_c, 5, 66, 44
7, 173950, Note_on_c, 5, 69, 0
7, 173960, Note_on_c, 5, 66, 0
7, 173965, Note_on_c, 5, 74, 0
7, 174370, Note_on_c, 5, 74, 74
7, 174370, Note_on_c, 5, 69, 64
7, 174370, Note_on_c, 5, 66, 52
7, 174375, Note_on_c, 5, 61, 16
7, 174430, Note_on_c, 5, 66, 0
7, 174435, Note_on_c, 5, 74, 0
7, 174440, Note_on_c, 5, 69, 0
7, 174450, Note_on_c, 5, 61, 0
7, 174845, Note_on_c, 5, 67, 83
7, 174845, Note_on_c, 5, 62, 79
7, 174850, Note_on_c, 5, 59, 27
7, 174890, Note_on_c, 5, 59, 0
7, 174895, Note_on_c, 5, 62, 0
7, 174905, Note_on_c, 5, 67, 0
7, 175805, Note_on_c, 5, 59, 16
7, 175890, Note_on_c, 5, 59, 0
7, 175925, Note_on_c, 5, 62, 79
7, 176045, Note_on_c, 5, 62, 0
7, 176045, Note_on_c, 5, 59, 50
7, 176130, Note_on_c, 5, 59, 0
7, 176155, Note_on_c, 5, 64, 79
7, 176250, Note_on_c, 5, 64, 0
7, 176275, Note_on_c, 5, 67, 82
7, 176330, Note_on_c, 5, 67, 0
7, 176395, Note_on_c, 5, 58, 75
7, 176435, Note_on_c, 5, 58, 0
7, 176435, Note_on_c, 5, 59, 55
7, 176525, Note_on_c, 5, 59, 0
7, 176875, Note_on_c, 5, 55, 53
7, 176935, Note_on_c, 5, 55, 0
7, 177710, Note_on_c, 5, 67, 85
7, 177720, Note_on_c, 5, 62, 64
7, 177770, Note_on_c, 5, 62, 0
7, 177770, Note_on_c, 5, 67, 0
7, 178070, Note_on_c, 5, 62, 81
7, 178070, Note_on_c, 5, 67, 79
7, 178150, Note_on_c, 5, 67, 0
7, 178150, Note_on_c, 5, 62, 0
7, 178195, Note_on_c, 5, 67, 84
7, 178210, Note_on_c, 5, 59, 16
7, 178210, Note_on_c, 5, 62, 71
7, 178250, Note_on_c, 5, 59, 0
7, 178270, Note_on_c, 5, 62, 0
7, 178275, Note_on_c, 5, 67, 0
7, 178790, Note_on_c, 5, 69, 65
7, 178795, Note_on_c, 5, 74, 73
7, 178865, Note_on_c, 5, 74, 0
7, 178910, Note_on_c, 5, 76, 72
7, 178990, Note_on_c, 5, 76, 0
7, 178995, Note_on_c, 5, 69, 0
7, 179145, Note_on_c, 5, 74, 73
7, 179145, Note_on_c, 5, 69, 46
7, 179265, Note_on_c, 5, 69, 0
7, 179270, Note_on_c, 5, 74, 0
7, 179270, Note_on_c, 5, 69, 68
7, 179270, Note_on_c, 5, 76, 73
7, 179380, Note_on_c, 5, 76, 0
7, 179390, Note_on_c, 5, 69, 0
7, 179390, Note_on_c, 5, 76, 71
7, 179395, Note_on_c, 5, 69, 59
7, 179445, Note_on_c, 5, 69, 0
7, 179445, Note_on_c, 5, 76, 0
7, 179630, Note_on_c, 5, 76, 73
7, 179630, Note_on_c, 5, 69, 64
7, 179745, Note_on_c, 5, 69, 0
7, 179745, Note_on_c, 5, 76, 0
7, 179750, Note_on_c, 5, 69, 68
7, 179755, Note_on_c, 5, 76, 71
7, 179810, Note_on_c, 5, 76, 0
7, 179830, Note_on_c, 5, 69, 0
7, 179870, Note_on_c, 5, 69, 61
7, 179990, Note_on_c, 5, 69, 0
7, 180000, Note_on_c, 5, 69, 70
7, 180010, Note_on_c, 5, 76, 58
7, 180100, Note_on_c, 5, 76, 0
7, 180110, Note_on_c, 5, 69, 0
7, 180115, Note_on_c, 5, 76, 68
7, 180115, Note_on_c, 5, 69, 68
7, 180175, Note_on_c, 5, 76, 0
7, 180190, Note_on_c, 5, 69, 0
7, 180245, Note_on_c, 5, 69, 20
7, 180245, Note_on_c, 5, 74, 50
7, 180350, Note_on_c, 5, 74, 0
7, 180360, Note_on_c, 5, 76, 71
7, 180370, Note_on_c, 5, 69, 0
7, 180455, Note_on_c, 5, 76, 0
7, 180605, Note_on_c, 5, 74, 74
7, 180610, Note_on_c, 5, 69, 65
7, 180690, Note_on_c, 5, 74, 0
7, 180725, Note_on_c, 5, 69, 0
7, 180730, Note_on_c, 5, 69, 65
7, 180735, Note_on_c, 5, 76, 61
7, 180830, Note_on_c, 5, 76, 0
7, 180845, Note_on_c, 5, 69, 0
7, 180845, Note_on_c, 5, 76, 73
7, 180850, Note_on_c, 5, 69, 54
7, 180910, Note_on_c, 5, 76, 0
7, 180935, Note_on_c, 5, 69, 0
7, 180975, Note_on_c, 5, 69, 61
7, 180980, Note_on_c, 5, 74, 50
7, 181070, Note_on_c, 5, 74, 0
7, 181090, Note_on_c, 5, 76, 58
7, 181165, Note_on_c, 5, 76, 0
7, 181170, Note_on_c, 5, 69, 0
7, 181320, Note_on_c, 5, 74, 73
7, 181320, Note_on_c, 5, 69, 69
7, 181400, Note_on_c, 5, 74, 0
7, 181430, Note_on_c, 5, 69, 0
7, 181435, Note_on_c, 5, 69, 68
7, 181450, Note_on_c, 5, 76, 59
7, 181550, Note_on_c, 5, 76, 0
7, 181555, Note_on_c, 5, 76, 72
7, 181645, Note_on_c, 5, 76, 0
7, 181665, Note_on_c, 5, 69, 0
7, 181670, Note_on_c, 5, 69, 65
7, 181680, Note_on_c, 5, 74, 64
7, 181780, Note_on_c, 5, 74, 0
7, 181790, Note_on_c, 5, 69, 0
7, 181795, Note_on_c, 5, 69, 61
7, 181800, Note_on_c, 5, 76, 75
7, 181885, Note_on_c, 5, 76, 0
7, 181890, Note_on_c, 5, 69, 0
7, 182040, Note_on_c, 5, 74, 68
7, 182040, Note_on_c, 5, 69, 65
7, 182135, Note_on_c, 5, 74, 0
7, 182150, Note_on_c, 5, 69, 0
7, 182155, Note_on_c, 5, 69, 68
7, 182155, Note_on_c, 5, 76, 73
7, 182265, Note_on_c, 5, 69, 0
7, 182270, Note_on_c, 5, 76, 0
7, 182270, Note_on_c, 5, 74, 71
7, 182270, Note_on_c, 5, 69, 65
7, 182330, Note_on_c, 5, 74, 0
7, 182345, Note_on_c, 5, 69, 0
7, 182655, Note_on_c, 5, 62, 79
7, 182655, Note_on_c, 5, 67, 81
7, 182705, Note_on_c, 5, 62, 0
7, 182710, Note_on_c, 5, 67, 0
7, 183005, Note_on_c, 5, 69, 82
7, 183040, Note_on_c, 5, 69, 0
7, 183360, Note_on_c, 5, 62, 63
7, 183370, Note_on_c, 5, 67, 70
7, 183390, Note_on_c, 5, 62, 0
7, 183405, Note_on_c, 5, 67, 0
7, 184080, Note_on_c, 5, 62, 69
7, 184080, Note_on_c, 5, 67, 75
7, 184120, Note_on_c, 5, 62, 0
7, 184135, Note_on_c, 5, 67, 0
7, 184555, Note_on_c, 5, 62, 73
7, 184565, Note_on_c, 5, 69, 57
7, 184595, Note_on_c, 5, 62, 0
7, 184605, Note_on_c, 5, 69, 0
7, 184915, Note_on_c, 5, 67, 81
7, 184925, Note_on_c, 5, 62, 72
7, 184965, Note_on_c, 5, 62, 0
7, 184970, Note_on_c, 5, 67, 0
7, 185275, Note_on_c, 5, 62, 78
7, 185285, Note_on_c, 5, 67, 72
7, 185330, Note_on_c, 5, 62, 0
7, 185335, Note_on_c, 5, 67, 0
7, 185635, Note_on_c, 5, 67, 79
7, 185645, Note_on_c, 5, 62, 62
7, 185700, Note_on_c, 5, 62, 0
7, 185705, Note_on_c, 5, 67, 0
7, 186005, Note_on_c, 5, 62, 70
7, 186015, Note_on_c, 5, 67, 50
7, 186070, Note_on_c, 5, 67, 0
7, 186080, Note_on_c, 5, 62, 0
7, 186260, Note_on_c, 5, 71, 82
7, 186260, Note_on_c, 5, 66, 28
7, 186265, Note_on_c, 5, 71, 0
7, 186270, Note_on_c, 5, 71, 75
7, 186390, Note_on_c, 5, 71, 0
7, 186390, Note_on_c, 5, 66, 0
7, 190225, Note_on_c, 5, 79, 62
7, 190285, Note_on_c, 5, 79, 0
7, 190345, Note_on_c, 5, 82, 71
7, 190440, Note_on_c, 5, 82, 0
7, 190470, Note_on_c, 5, 79, 29
7, 190550, Note_on_c, 5, 79, 0
7, 190580, Note_on_c, 5, 81, 70
7, 190665, Note_on_c, 5, 81, 0
7, 190705, Note_on_c, 5, 79, 70
7, 190770, Note_on_c, 5, 79, 0
7, 190810, Note_on_c, 5, 77, 50
7, 190880, Note_on_c, 5, 77, 0
7, 190930, Note_on_c, 5, 79, 68
7, 190960, Note_on_c, 5, 79, 0
7, 191040, Note_on_c, 5, 74, 62
7, 191135, Note_on_c, 5, 74, 0
7, 191160, Note_on_c, 5, 77, 64
7, 191265, Note_on_c, 5, 77, 0
7, 191285, Note_on_c, 5, 72, 16
7, 191370, Note_on_c, 5, 72, 0
7, 191410, Note_on_c, 5, 74, 59
7, 191460, Note_on_c, 5, 74, 0
7, 191510, Note_on_c, 5, 70, 57
7, 191575, Note_on_c, 5, 70, 0
7, 191575, Note_on_c, 5, 71, 48
7, 191635, Note_on_c, 5, 67, 44
7, 191645, Note_on_c, 5, 71, 0
7, 191720, Note_on_c, 5, 67, 0
7, 192130, Note_on_c, 5, 79, 61
7, 192180, Note_on_c, 5, 79, 0
7, 192250, Note_on_c, 5, 82, 57
7, 192330, Note_on_c, 5, 82, 0
7, 192375, Note_on_c, 5, 79, 16
7, 192460, Note_on_c, 5, 79, 0
7, 192490, Note_on_c, 5, 81, 70
7, 192595, Note_on_c, 5, 81, 0
7, 192610, Note_on_c, 5, 79, 71
7, 192695, Note_on_c, 5, 79, 0
7, 192720, Note_on_c, 5, 77, 58
7, 192800, Note_on_c, 5, 77, 0
7, 192835, Note_on_c, 5, 79, 70
7, 192935, Note_on_c, 5, 79, 0
7, 192950, Note_on_c, 5, 77, 65
7, 193065, Note_on_c, 5, 77, 0
7, 193080, Note_on_c, 5, 74, 62
7, 193190, Note_on_c, 5, 74, 0
7, 193200, Note_on_c, 5, 77, 64
7, 193295, Note_on_c, 5, 77, 0
7, 193325, Note_on_c, 5, 74, 64
7, 193405, Note_on_c, 5, 74, 0
7, 193440, Note_on_c, 5, 72, 35
7, 193500, Note_on_c, 5, 72, 0
7, 193550, Note_on_c, 5, 70, 59
7, 193590, Note_on_c, 5, 71, 27
7, 193615, Note_on_c, 5, 70, 0
7, 193630, Note_on_c, 5, 71, 0
7, 193685, Note_on_c, 5, 74, 63
7, 193770, Note_on_c, 5, 74, 0
7, 194050, Note_on_c, 5, 69, 43
7, 194170, Note_on_c, 5, 69, 0
7, 194535, Note_on_c, 5, 69, 16
7, 194630, Note_on_c, 5, 69, 0
7, 194640, Note_on_c, 5, 71, 16
7, 194650, Note_on_c, 5, 71, 0
7, 194770, Note_on_c, 5, 74, 79
7, 194865, Note_on_c, 5, 74, 0
7, 194890, Note_on_c, 5, 71, 63
7, 194940, Note_on_c, 5, 71, 0
7, 195010, Note_on_c, 5, 76, 74
7, 195100, Note_on_c, 5, 76, 0
7, 195255, Note_on_c, 5, 74, 56
7, 195325, Note_on_c, 5, 74, 0
7, 195730, Note_on_c, 5, 71, 16
7, 195770, Note_on_c, 5, 71, 0
7, 195855, Note_on_c, 5, 76, 75
7, 195950, Note_on_c, 5, 76, 0
7, 195985, Note_on_c, 5, 71, 44
7, 196045, Note_on_c, 5, 71, 0
7, 196100, Note_on_c, 5, 74, 65
7, 196180, Note_on_c, 5, 74, 0
7, 196215, Note_on_c, 5, 71, 21
7, 196250, Note_on_c, 5, 71, 0
7, 196430, Note_on_c, 5, 71, 16
7, 196510, Note_on_c, 5, 71, 0
7, 196680, Note_on_c, 5, 69, 16
7, 196775, Note_on_c, 5, 69, 0
7, 196810, Note_on_c, 5, 71, 17
7, 196880, Note_on_c, 5, 71, 0
7, 196925, Note_on_c, 5, 76, 76
7, 197050, Note_on_c, 5, 76, 0
7, 197050, Note_on_c, 5, 71, 37
7, 197120, Note_on_c, 5, 71, 0
7, 197170, Note_on_c, 5, 74, 78
7, 197255, Note_on_c, 5, 74, 0
7, 197290, Note_on_c, 5, 71, 23
7, 197315, Note_on_c, 5, 71, 0
7, 197410, Note_on_c, 5, 69, 37
7, 197515, Note_on_c, 5, 69, 0
7, 197515, Note_on_c, 5, 71, 16
7, 197585, Note_on_c, 5, 71, 0
7, 198260, Note_on_c, 5, 67, 80
7, 198350, Note_on_c, 5, 67, 0
7, 198385, Note_on_c, 5, 65, 42
7, 198445, Note_on_c, 5, 65, 0
7, 198610, Note_on_c, 5, 64, 59
7, 198670, Note_on_c, 5, 64, 0
7, 199325, Note_on_c, 5, 58, 16
7, 199405, Note_on_c, 5, 58, 0
7, 199440, Note_on_c, 5, 59, 23
7, 199530, Note_on_c, 5, 59, 0
7, 199565, Note_on_c, 5, 62, 75
7, 199630, Note_on_c, 5, 62, 0
7, 200285, Note_on_c, 5, 67, 81
7, 200345, Note_on_c, 5, 67, 0
7, 200390, Note_on_c, 5, 65, 57
7, 200470, Note_on_c, 5, 65, 0
7, 200635, Note_on_c, 5, 62, 58
7, 200695, Note_on_c, 5, 62, 0
7, 200865, Note_on_c, 5, 64, 45
7, 200930, Note_on_c, 5, 64, 0
7, 201090, Note_on_c, 5, 58, 44
7, 201215, Note_on_c, 5, 58, 0
7, 201240, Note_on_c, 5, 58, 17
7, 201250, Note_on_c, 5, 58, 0
7, 201265, Note_on_c, 5, 59, 25
7, 201270, Note_on_c, 5, 59, 0
7, 201365, Note_on_c, 5, 62, 75
7, 201430, Note_on_c, 5, 62, 0
7, 201735, Note_on_c, 5, 74, 16
7, 201805, Note_on_c, 5, 74, 0
7, 201850, Note_on_c, 5, 79, 74
7, 201960, Note_on_c, 5, 79, 0
7, 201985, Note_on_c, 5, 74, 50
7, 202050, Note_on_c, 5, 74, 0
7, 202090, Note_on_c, 5, 78, 74
7, 202190, Note_on_c, 5, 78, 0
7, 202215, Note_on_c, 5, 74, 34
7, 202250, Note_on_c, 5, 74, 0
7, 202450, Note_on_c, 5, 74, 32
7, 202500, Note_on_c, 5, 74, 0
7, 202555, Note_on_c, 5, 79, 68
7, 202665, Note_on_c, 5, 79, 0
7, 202690, Note_on_c, 5, 74, 52
7, 202770, Note_on_c, 5, 74, 0
7, 202810, Note_on_c, 5, 78, 68
7, 202880, Note_on_c, 5, 78, 0
7, 202930, Note_on_c, 5, 74, 36
7, 202980, Note_on_c, 5, 74, 0
7, 203175, Note_on_c, 5, 74, 30
7, 203245, Note_on_c, 5, 74, 0
7, 203295, Note_on_c, 5, 79, 71
7, 203410, Note_on_c, 5, 79, 0
7, 203425, Note_on_c, 5, 74, 40
7, 203500, Note_on_c, 5, 74, 0
7, 203540, Note_on_c, 5, 78, 61
7, 203595, Note_on_c, 5, 78, 0
7, 203665, Note_on_c, 5, 74, 59
7, 203715, Note_on_c, 5, 74, 0
7, 203890, Note_on_c, 5, 74, 30
7, 203965, Note_on_c, 5, 74, 0
7, 204000, Note_on_c, 5, 79, 74
7, 204115, Note_on_c, 5, 79, 0
7, 204130, Note_on_c, 5, 74, 62
7, 204195, Note_on_c, 5, 74, 0
7, 204245, Note_on_c, 5, 78, 67
7, 204295, Note_on_c, 5, 78, 0
7, 204370, Note_on_c, 5, 74, 44
7, 204415, Note_on_c, 5, 74, 0
7, 204605, Note_on_c, 5, 74, 40
7, 204670, Note_on_c, 5, 74, 0
7, 204720, Note_on_c, 5, 79, 70
7, 204820, Note_on_c, 5, 79, 0
7, 204850, Note_on_c, 5, 74, 49
7, 204930, Note_on_c, 5, 74, 0
7, 204970, Note_on_c, 5, 78, 70
7, 205040, Note_on_c, 5, 78, 0
7, 205090, Note_on_c, 5, 74, 59
7, 205145, Note_on_c, 5, 74, 0
7, 205325, Note_on_c, 5, 74, 37
7, 205400, Note_on_c, 5, 74, 0
7, 205445, Note_on_c, 5, 67, 59
7, 206505, Note_on_c, 5, 67, 0
7, 206505, End_track
8, 0, Start_track
8, 0, MIDI_port, 0
8, 0, Title_t, "tk7"
8, 512, Program_c, 6, 56
8, 513, Control_c, 6, 7, 104
8, 513, Control_c, 6, 10, 64
8, 645, Control_c, 6, 10, 59
8, 645, Control_c, 6, 11, 127
8, 650, Control_c, 6, 91, 115
8, 650, Control_c, 6, 93, 80
8, 25675, Note_on_c, 6, 72, 124
8, 25675, Note_on_c, 6, 78, 124
8, 25680, Control_c, 6, 1, 0
8, 25680, Pitch_bend_c, 6, 8192
8, 25680, Note_on_c, 6, 83, 124
8, 25920, Note_on_c, 6, 78, 0
8, 25930, Note_on_c, 6, 72, 0
8, 25940, Note_on_c, 6, 83, 0
8, 28435, Note_on_c, 6, 67, 112
8, 28435, Note_on_c, 6, 73, 124
8, 28785, Note_on_c, 6, 67, 0
8, 28795, Note_on_c, 6, 73, 0
8, 28795, Note_on_c, 6, 68, 93
8, 28805, Note_on_c, 6, 74, 110
8, 29020, Note_on_c, 6, 74, 0
8, 29020, Note_on_c, 6, 68, 0
8, 32885, Note_on_c, 6, 74, 124
8, 32885, Note_on_c, 6, 72, 124
8, 32885, Note_on_c, 6, 66, 124
8, 32885, Note_on_c, 6, 69, 110
8, 33085, Note_on_c, 6, 72, 0
8, 33095, Note_on_c, 6, 69, 0
8, 33105, Note_on_c, 6, 74, 0
8, 33110, Note_on_c, 6, 66, 0
8, 34200, Note_on_c, 6, 69, 124
8, 34200, Note_on_c, 6, 72, 124
8, 34200, Note_on_c, 6, 74, 124
8, 34205, Note_on_c, 6, 66, 124
8, 34425, Note_on_c, 6, 66, 0
8, 34430, Note_on_c, 6, 69, 0
8, 34430, Note_on_c, 6, 72, 0
8, 34430, Note_on_c, 6, 74, 0
8, 41035, Note_on_c, 6, 72, 124
8, 41035, Note_on_c, 6, 78, 124
8, 41040, Note_on_c, 6, 83, 124
8, 41280, Note_on_c, 6, 78, 0
8, 41290, Note_on_c, 6, 72, 0
8, 41300, Note_on_c, 6, 83, 0
8, 43795, Note_on_c, 6, 67, 112
8, 43795, Note_on_c, 6, 73, 124
8, 44145, Note_on_c, 6, 67, 0
8, 44155, Note_on_c, 6, 73, 0
8, 44155, Note_on_c, 6, 68, 93
8, 44165, Note_on_c, 6, 74, 110
8, 44380, Note_on_c, 6, 74, 0
8, 44380, Note_on_c, 6, 68, 0
8, 48245, Note_on_c, 6, 74, 124
8, 48245, Note_on_c, 6, 72, 124
8, 48245, Note_on_c, 6, 66, 124
8, 48245, Note_on_c, 6, 69, 110
8, 48445, Note_on_c, 6, 72, 0
8, 48455, Note_on_c, 6, 69, 0
8, 48465, Note_on_c, 6, 74, 0
8, 48470, Note_on_c, 6, 66, 0
8, 49560, Note_on_c, 6, 69, 124
8, 49560, Note_on_c, 6, 72, 124
8, 49560, Note_on_c, 6, 74, 124
8, 49565, Note_on_c, 6, 66, 124
8, 49785, Note_on_c, 6, 66, 0
8, 49790, Note_on_c, 6, 69, 0
8, 49790, Note_on_c, 6, 72, 0
8, 49790, Note_on_c, 6, 74, 0
8, 71755, Note_on_c, 6, 72, 124
8, 71755, Note_on_c, 6, 78, 124
8, 71760, Note_on_c, 6, 83, 124
8, 72000, Note_on_c, 6, 78, 0
8, 72010, Note_on_c, 6, 72, 0
8, 72020, Note_on_c, 6, 83, 0
8, 74515, Note_on_c, 6, 67, 112
8, 74515, Note_on_c, 6, 73, 124
8, 74865, Note_on_c, 6, 67, 0
8, 74875, Note_on_c, 6, 73, 0
8, 74875, Note_on_c, 6, 68, 93
8, 74885, Note_on_c, 6, 74, 110
8, 75100, Note_on_c, 6, 74, 0
8, 75100, Note_on_c, 6, 68, 0
8, 78965, Note_on_c, 6, 74, 124
8, 78965, Note_on_c, 6, 72, 124
8, 78965, Note_on_c, 6, 66, 124
8, 78965, Note_on_c, 6, 69, 110
8, 79165, Note_on_c, 6, 72, 0
8, 79175, Note_on_c, 6, 69, 0
8, 79185, Note_on_c, 6, 74, 0
8, 79190, Note_on_c, 6, 66, 0
8, 80280, Note_on_c, 6, 69, 124
8, 80280, Note_on_c, 6, 72, 124
8, 80280, Note_on_c, 6, 74, 124
8, 80285, Note_on_c, 6, 66, 124
8, 80505, Note_on_c, 6, 66, 0
8, 80510, Note_on_c, 6, 69, 0
8, 80510, Note_on_c, 6, 72, 0
8, 80510, Note_on_c, 6, 74, 0
8, 85810, Note_on_c, 6, 65, 124
8, 85925, Note_on_c, 6, 65, 0
8, 86050, Note_on_c, 6, 64, 110
8, 86175, Note_on_c, 6, 64, 0
8, 86285, Note_on_c, 6, 63, 110
8, 86400, Note_on_c, 6, 63, 0
8, 86405, Note_on_c, 6, 62, 103
8, 89640, Note_on_c, 6, 62, 0
8, 89870, Note_on_c, 6, 64, 124
8, 89990, Note_on_c, 6, 62, 89
8, 90020, Note_on_c, 6, 64, 0
8, 90115, Note_on_c, 6, 62, 0
8, 90115, Note_on_c, 6, 57, 77
8, 90230, Note_on_c, 6, 57, 0
8, 90235, Note_on_c, 6, 55, 100
8, 93315, Note_on_c, 6, 55, 0
8, 93490, Note_on_c, 6, 65, 117
8, 93610, Note_on_c, 6, 65, 0
8, 93730, Note_on_c, 6, 64, 107
8, 93855, Note_on_c, 6, 64, 0
8, 93965, Note_on_c, 6, 63, 96
8, 94085, Note_on_c, 6, 62, 124
8, 94090, Note_on_c, 6, 63, 0
8, 97240, Note_on_c, 6, 62, 0
8, 97560, Note_on_c, 6, 64, 103
8, 97685, Note_on_c, 6, 62, 82
8, 97705, Note_on_c, 6, 64, 0
8, 97805, Note_on_c, 6, 62, 0
8, 97805, Note_on_c, 6, 57, 83
8, 97910, Note_on_c, 6, 57, 0
8, 97930, Note_on_c, 6, 55, 104
8, 101275, Note_on_c, 6, 55, 0
8, 102475, Note_on_c, 6, 72, 124
8, 102475, Note_on_c, 6, 78, 124
8, 102480, Note_on_c, 6, 83, 124
8, 102720, Note_on_c, 6, 78, 0
8, 102730, Note_on_c, 6, 72, 0
8, 102740, Note_on_c, 6, 83, 0
8, 105235, Note_on_c, 6, 67, 112
8, 105235, Note_on_c, 6, 73, 124
8, 105585, Note_on_c, 6, 67, 0
8, 105595, Note_on_c, 6, 73, 0
8, 105595, Note_on_c, 6, 68, 93
8, 105605, Note_on_c, 6, 74, 110
8, 105820, Note_on_c, 6, 74, 0
8, 105820, Note_on_c, 6, 68, 0
8, 109685, Note_on_c, 6, 74, 124
8, 109685, Note_on_c, 6, 72, 124
8, 109685, Note_on_c, 6, 66, 124
8, 109685, Note_on_c, 6, 69, 110
8, 109885, Note_on_c, 6, 72, 0
8, 109895, Note_on_c, 6, 69, 0
8, 109905, Note_on_c, 6, 74, 0
8, 109910, Note_on_c, 6, 66, 0
8, 111000, Note_on_c, 6, 69, 124
8, 111000, Note_on_c, 6, 72, 124
8, 111000, Note_on_c, 6, 74, 124
8, 111005, Note_on_c, 6, 66, 124
8, 111225, Note_on_c, 6, 66, 0
8, 111230, Note_on_c, 6, 69, 0
8, 111230, Note_on_c, 6, 72, 0
8, 111230, Note_on_c, 6, 74, 0
8, 133195, Note_on_c, 6, 72, 124
8, 133195, Note_on_c, 6, 78, 124
8, 133200, Note_on_c, 6, 83, 124
8, 133440, Note_on_c, 6, 78, 0
8, 133450, Note_on_c, 6, 72, 0
8, 133460, Note_on_c, 6, 83, 0
8, 135955, Note_on_c, 6, 67, 112
8, 135955, Note_on_c, 6, 73, 124
8, 136305, Note_on_c, 6, 67, 0
8, 136315, Note_on_c, 6, 73, 0
8, 136315, Note_on_c, 6, 68, 93
8, 136325, Note_on_c, 6, 74, 110
8, 136540, Note_on_c, 6, 74, 0
8, 136540, Note_on_c, 6, 68, 0
8, 140405, Note_on_c, 6, 74, 124
8, 140405, Note_on_c, 6, 72, 124
8, 140405, Note_on_c, 6, 66, 124
8, 140405, Note_on_c, 6, 69, 110
8, 140605, Note_on_c, 6, 72, 0
8, 140615, Note_on_c, 6, 69, 0
8, 140625, Note_on_c, 6, 74, 0
8, 140630, Note_on_c, 6, 66, 0
8, 141720, Note_on_c, 6, 69, 124
8, 141720, Note_on_c, 6, 72, 124
8, 141720, Note_on_c, 6, 74, 124
8, 141725, Note_on_c, 6, 66, 124
8, 141945, Note_on_c, 6, 66, 0
8, 141950, Note_on_c, 6, 69, 0
8, 141950, Note_on_c, 6, 72, 0
8, 141950, Note_on_c, 6, 74, 0
8, 148555, Note_on_c, 6, 72, 124
8, 148555, Note_on_c, 6, 78, 124
8, 148560, Note_on_c, 6, 83, 124
8, 148800, Note_on_c, 6, 78, 0
8, 148810, Note_on_c, 6, 72, 0
8, 148820, Note_on_c, 6, 83, 0
8, 151315, Note_on_c, 6, 67, 112
8, 151315, Note_on_c, 6, 73, 124
8, 151665, Note_on_c, 6, 67, 0
8, 151675, Note_on_c, 6, 73, 0
8, 151675, Note_on_c, 6, 68, 93
8, 151685, Note_on_c, 6, 74, 110
8, 151900, Note_on_c, 6, 74, 0
8, 151900, Note_on_c, 6, 68, 0
8, 155765, Note_on_c, 6, 74, 124
8, 155765, Note_on_c, 6, 72, 124
8, 155765, Note_on_c, 6, 66, 124
8, 155765, Note_on_c, 6, 69, 110
8, 155965, Note_on_c, 6, 72, 0
8, 155975, Note_on_c, 6, 69, 0
8, 155985, Note_on_c, 6, 74, 0
8, 155990, Note_on_c, 6, 66, 0
8, 157080, Note_on_c, 6, 69, 124
8, 157080, Note_on_c, 6, 72, 124
8, 157080, Note_on_c, 6, 74, 124
8, 157085, Note_on_c, 6, 66, 124
8, 157305, Note_on_c, 6, 66, 0
8, 157310, Note_on_c, 6, 69, 0
8, 157310, Note_on_c, 6, 72, 0
8, 157310, Note_on_c, 6, 74, 0
8, 177970, Note_on_c, 6, 65, 124
8, 178085, Note_on_c, 6, 65, 0
8, 178210, Note_on_c, 6, 64, 110
8, 178335, Note_on_c, 6, 64, 0
8, 178445, Note_on_c, 6, 63, 110
8, 178560, Note_on_c, 6, 63, 0
8, 178565, Note_on_c, 6, 62, 103
8, 181800, Note_on_c, 6, 62, 0
8, 182030, Note_on_c, 6, 64, 124
8, 182150, Note_on_c, 6, 62, 89
8, 182180, Note_on_c, 6, 64, 0
8, 182275, Note_on_c, 6, 62, 0
8, 182275, Note_on_c, 6, 57, 77
8, 182390, Note_on_c, 6, 57, 0
8, 182395, Note_on_c, 6, 55, 100
8, 185475, Note_on_c, 6, 55, 0
8, 185650, Note_on_c, 6, 65, 117
8, 185770, Note_on_c, 6, 65, 0
8, 185890, Note_on_c, 6, 64, 107
8, 186015, Note_on_c, 6, 64, 0
8, 186125, Note_on_c, 6, 63, 96
8, 186245, Note_on_c, 6, 62, 124
8, 186250, Note_on_c, 6, 63, 0
8, 189400, Note_on_c, 6, 62, 0
8, 189720, Note_on_c, 6, 64, 103
8, 189845, Note_on_c, 6, 62, 82
8, 189865, Note_on_c, 6, 64, 0
8, 189965, Note_on_c, 6, 62, 0
8, 189965, Note_on_c, 6, 57, 83
8, 190070, Note_on_c, 6, 57, 0
8, 190090, Note_on_c, 6, 55, 104
8, 193330, Note_on_c, 6, 65, 124
8, 193435, Note_on_c, 6, 55, 0
8, 193445, Note_on_c, 6, 65, 0
8, 193570, Note_on_c, 6, 64, 110
8, 193695, Note_on_c, 6, 64, 0
8, 193805, Note_on_c, 6, 63, 110
8, 193920, Note_on_c, 6, 63, 0
8, 193925, Note_on_c, 6, 62, 103
8, 197160, Note_on_c, 6, 62, 0
8, 197390, Note_on_c, 6, 64, 124
8, 197510, Note_on_c, 6, 62, 89
8, 197540, Note_on_c, 6, 64, 0
8, 197635, Note_on_c, 6, 62, 0
8, 197635, Note_on_c, 6, 57, 77
8, 197750, Note_on_c, 6, 57, 0
8, 197755, Note_on_c, 6, 55, 100
8, 200835, Note_on_c, 6, 55, 0
8, 201010, Note_on_c, 6, 65, 117
8, 201130, Note_on_c, 6, 65, 0
8, 201250, Note_on_c, 6, 64, 107
8, 201375, Note_on_c, 6, 64, 0
8, 201485, Note_on_c, 6, 63, 96
8, 201605, Note_on_c, 6, 62, 124
8, 201610, Note_on_c, 6, 63, 0
8, 204760, Note_on_c, 6, 62, 0
8, 205080, Note_on_c, 6, 64, 103
8, 205205, Note_on_c, 6, 62, 82
8, 205225, Note_on_c, 6, 64, 0
8, 205325, Note_on_c, 6, 62, 0
8, 205325, Note_on_c, 6, 57, 83
8, 205430, Note_on_c, 6, 57, 0
8, 205450, Note_on_c, 6, 55, 104
8, 206410, Note_on_c, 6, 55, 0
8, 206410, End_track
9, 0, Start_track
9, 0, MIDI_port, 0
9, 0, Title_t, "tk8"
9, 517, Program_c, 7, 57
9, 518, Control_c, 7, 7, 95
9, 518, Control_c, 7, 10, 64
9, 670, Control_c, 7, 10, 100
9, 670, Control_c, 7, 11, 127
9, 675, Control_c, 7, 91, 105
9, 675, Control_c, 7, 93, 80
9, 24605, Note_on_c, 7, 46, 124
9, 24610, Control_c, 7, 1, 0
9, 24610, Pitch_bend_c, 7, 8192
9, 24950, Note_on_c, 7, 46, 0
9, 24955, Note_on_c, 7, 47, 118
9, 25100, Note_on_c, 7, 47, 0
9, 25440, Note_on_c, 7, 42, 124
9, 25645, Note_on_c, 7, 42, 0
9, 28435, Note_on_c, 7, 39, 124
9, 28795, Note_on_c, 7, 39, 0
9, 28795, Note_on_c, 7, 40, 107
9, 29040, Note_on_c, 7, 40, 0
9, 32285, Note_on_c, 7, 37, 124
9, 32600, Note_on_c, 7, 37, 0
9, 32635, Note_on_c, 7, 38, 124
9, 32875, Note_on_c, 7, 50, 118
9, 32880, Note_on_c, 7, 38, 0
9, 33055, Note_on_c, 7, 50, 0
9, 36115, Note_on_c, 7, 45, 111
9, 36230, Note_on_c, 7, 45, 0
9, 36235, Note_on_c, 7, 44, 90
9, 36330, Note_on_c, 7, 44, 0
9, 36360, Note_on_c, 7, 44, 81
9, 36460, Note_on_c, 7, 44, 0
9, 36475, Note_on_c, 7, 43, 102
9, 36690, Note_on_c, 7, 43, 0
9, 39965, Note_on_c, 7, 46, 124
9, 40310, Note_on_c, 7, 46, 0
9, 40315, Note_on_c, 7, 47, 118
9, 40460, Note_on_c, 7, 47, 0
9, 40800, Note_on_c, 7, 42, 124
9, 41005, Note_on_c, 7, 42, 0
9, 43795, Note_on_c, 7, 39, 124
9, 44155, Note_on_c, 7, 39, 0
9, 44155, Note_on_c, 7, 40, 107
9, 44400, Note_on_c, 7, 40, 0
9, 47645, Note_on_c, 7, 37, 124
9, 47960, Note_on_c, 7, 37, 0
9, 47995, Note_on_c, 7, 38, 124
9, 48235, Note_on_c, 7, 50, 118
9, 48240, Note_on_c, 7, 38, 0
9, 48415, Note_on_c, 7, 50, 0
9, 51475, Note_on_c, 7, 45, 111
9, 51590, Note_on_c, 7, 45, 0
9, 51595, Note_on_c, 7, 44, 90
9, 51690, Note_on_c, 7, 44, 0
9, 51720, Note_on_c, 7, 44, 81
9, 51820, Note_on_c, 7, 44, 0
9, 51835, Note_on_c, 7, 43, 102
9, 52050, Note_on_c, 7, 43, 0
9, 70685, Note_on_c, 7, 46, 124
9, 71030, Note_on_c, 7, 46, 0
9, 71035, Note_on_c, 7, 47, 118
9, 71180, Note_on_c, 7, 47, 0
9, 71520, Note_on_c, 7, 42, 124
9, 71725, Note_on_c, 7, 42, 0
9, 74515, Note_on_c, 7, 39, 124
9, 74875, Note_on_c, 7, 39, 0
9, 74875, Note_on_c, 7, 40, 107
9, 75120, Note_on_c, 7, 40, 0
9, 78365, Note_on_c, 7, 37, 124
9, 78680, Note_on_c, 7, 37, 0
9, 78715, Note_on_c, 7, 38, 124
9, 78955, Note_on_c, 7, 50, 118
9, 78960, Note_on_c, 7, 38, 0
9, 79135, Note_on_c, 7, 50, 0
9, 82195, Note_on_c, 7, 45, 111
9, 82310, Note_on_c, 7, 45, 0
9, 82315, Note_on_c, 7, 44, 90
9, 82410, Note_on_c, 7, 44, 0
9, 82440, Note_on_c, 7, 44, 81
9, 82540, Note_on_c, 7, 44, 0
9, 82555, Note_on_c, 7, 43, 102
9, 82770, Note_on_c, 7, 43, 0
9, 85795, Note_on_c, 7, 53, 124
9, 85920, Note_on_c, 7, 53, 0
9, 86035, Note_on_c, 7, 52, 119
9, 86140, Note_on_c, 7, 52, 0
9, 86275, Note_on_c, 7, 51, 124
9, 86390, Note_on_c, 7, 51, 0
9, 86390, Note_on_c, 7, 50, 124
9, 89570, Note_on_c, 7, 50, 0
9, 89870, Note_on_c, 7, 50, 107
9, 89975, Pitch_bend_c, 7, 15602
9, 89980, Pitch_bend_c, 7, 14952
9, 89985, Pitch_bend_c, 7, 13262
9, 89990, Pitch_bend_c, 7, 9492
9, 89995, Pitch_bend_c, 7, 8712
9, 90000, Pitch_bend_c, 7, 8192
9, 90070, Note_on_c, 7, 50, 0
9, 90110, Note_on_c, 7, 43, 107
9, 90110, Pitch_bend_c, 7, 9362
9, 90115, Pitch_bend_c, 7, 10012
9, 90120, Pitch_bend_c, 7, 11442
9, 90125, Pitch_bend_c, 7, 12222
9, 90130, Pitch_bend_c, 7, 14172
9, 90135, Pitch_bend_c, 7, 15342
9, 90140, Pitch_bend_c, 7, 15992
9, 90145, Pitch_bend_c, 7, 16382
9, 90225, Pitch_bend_c, 7, 15992
9, 90230, Pitch_bend_c, 7, 14172
9, 90235, Pitch_bend_c, 7, 12222
9, 90240, Pitch_bend_c, 7, 9362
9, 90245, Pitch_bend_c, 7, 8452
9, 90250, Pitch_bend_c, 7, 8192
9, 93295, Note_on_c, 7, 43, 0
9, 93480, Note_on_c, 7, 53, 121
9, 93610, Note_on_c, 7, 53, 0
9, 93715, Note_on_c, 7, 52, 107
9, 93840, Note_on_c, 7, 52, 0
9, 93955, Note_on_c, 7, 51, 121
9, 94065, Note_on_c, 7, 51, 0
9, 94070, Note_on_c, 7, 50, 119
9, 97355, Note_on_c, 7, 50, 0
9, 97545, Pitch_bend_c, 7, 8322
9, 97550, Note_on_c, 7, 50, 121
9, 97550, Pitch_bend_c, 7, 10272
9, 97555, Pitch_bend_c, 7, 12352
9, 97560, Pitch_bend_c, 7, 13132
9, 97565, Pitch_bend_c, 7, 15082
9, 97570, Pitch_bend_c, 7, 16382
9, 97665, Pitch_bend_c, 7, 15732
9, 97670, Pitch_bend_c, 7, 14042
9, 97675, Pitch_bend_c, 7, 12742
9, 97680, Pitch_bend_c, 7, 11962
9, 97685, Pitch_bend_c, 7, 10402
9, 97690, Pitch_bend_c, 7, 8192
9, 97760, Note_on_c, 7, 50, 0
9, 97790, Pitch_bend_c, 7, 8582
9, 97795, Note_on_c, 7, 43, 100
9, 97795, Pitch_bend_c, 7, 9232
9, 97800, Pitch_bend_c, 7, 10662
9, 97805, Pitch_bend_c, 7, 11572
9, 97810, Pitch_bend_c, 7, 14302
9, 97815, Pitch_bend_c, 7, 16252
9, 97820, Pitch_bend_c, 7, 16382
9, 97895, Pitch_bend_c, 7, 16252
9, 97900, Pitch_bend_c, 7, 15732
9, 97905, Pitch_bend_c, 7, 14692
9, 97910, Pitch_bend_c, 7, 12612
9, 97915, Pitch_bend_c, 7, 11832
9, 97920, Pitch_bend_c, 7, 9622
9, 97925, Pitch_bend_c, 7, 8712
9, 97930, Pitch_bend_c, 7, 8192
9, 100325, Note_on_c, 7, 43, 0
9, 101405, Note_on_c, 7, 46, 124
9, 101750, Note_on_c, 7, 46, 0
9, 101755, Note_on_c, 7, 47, 118
9, 101900, Note_on_c, 7, 47, 0
9, 102240, Note_on_c, 7, 42, 124
9, 102445, Note_on_c, 7, 42, 0
9, 105235, Note_on_c, 7, 39, 124
9, 105595, Note_on_c, 7, 39, 0
9, 105595, Note_on_c, 7, 40, 107
9, 105840, Note_on_c, 7, 40, 0
9, 109085, Note_on_c, 7, 37, 124
9, 109400, Note_on_c, 7, 37, 0
9, 109435, Note_on_c, 7, 38, 124
9, 109675, Note_on_c, 7, 50, 118
9, 109680, Note_on_c, 7, 38, 0
9, 109855, Note_on_c, 7, 50, 0
9, 112915, Note_on_c, 7, 45, 111
9, 113030, Note_on_c, 7, 45, 0
9, 113035, Note_on_c, 7, 44, 90
9, 113130, Note_on_c, 7, 44, 0
9, 113160, Note_on_c, 7, 44, 81
9, 113260, Note_on_c, 7, 44, 0
9, 113275, Note_on_c, 7, 43, 102
9, 113490, Note_on_c, 7, 43, 0
9, 132125, Note_on_c, 7, 46, 124
9, 132470, Note_on_c, 7, 46, 0
9, 132475, Note_on_c, 7, 47, 118
9, 132620, Note_on_c, 7, 47, 0
9, 132960, Note_on_c, 7, 42, 124
9, 133165, Note_on_c, 7, 42, 0
9, 135955, Note_on_c, 7, 39, 124
9, 136315, Note_on_c, 7, 39, 0
9, 136315, Note_on_c, 7, 40, 107
9, 136560, Note_on_c, 7, 40, 0
9, 139805, Note_on_c, 7, 37, 124
9, 140120, Note_on_c, 7, 37, 0
9, 140155, Note_on_c, 7, 38, 124
9, 140395, Note_on_c, 7, 50, 118
9, 140400, Note_on_c, 7, 38, 0
9, 140575, Note_on_c, 7, 50, 0
9, 143635, Note_on_c, 7, 45, 111
9, 143750, Note_on_c, 7, 45, 0
9, 143755, Note_on_c, 7, 44, 90
9, 143850, Note_on_c, 7, 44, 0
9, 143880, Note_on_c, 7, 44, 81
9, 143980, Note_on_c, 7, 44, 0
9, 143995, Note_on_c, 7, 43, 102
9, 144210, Note_on_c, 7, 43, 0
9, 147485, Note_on_c, 7, 46, 124
9, 147830, Note_on_c, 7, 46, 0
9, 147835, Note_on_c, 7, 47, 118
9, 147980, Note_on_c, 7, 47, 0
9, 148320, Note_on_c, 7, 42, 124
9, 148525, Note_on_c, 7, 42, 0
9, 151315, Note_on_c, 7, 39, 124
9, 151675, Note_on_c, 7, 39, 0
9, 151675, Note_on_c, 7, 40, 107
9, 151920, Note_on_c, 7, 40, 0
9, 155165, Note_on_c, 7, 37, 124
9, 155480, Note_on_c, 7, 37, 0
9, 155515, Note_on_c, 7, 38, 124
9, 155755, Note_on_c, 7, 50, 118
9, 155760, Note_on_c, 7, 38, 0
9, 155935, Note_on_c, 7, 50, 0
9, 158995, Note_on_c, 7, 45, 111
9, 159110, Note_on_c, 7, 45, 0
9, 159115, Note_on_c, 7, 44, 90
9, 159210, Note_on_c, 7, 44, 0
9, 159240, Note_on_c, 7, 44, 81
9, 159340, Note_on_c, 7, 44, 0
9, 159355, Note_on_c, 7, 43, 102
9, 159570, Note_on_c, 7, 43, 0
9, 177955, Note_on_c, 7, 53, 124
9, 178080, Note_on_c, 7, 53, 0
9, 178195, Note_on_c, 7, 52, 119
9, 178300, Note_on_c, 7, 52, 0
9, 178435, Note_on_c, 7, 51, 124
9, 178550, Note_on_c, 7, 51, 0
9, 178550, Note_on_c, 7, 50, 124
9, 181730, Note_on_c, 7, 50, 0
9, 182030, Note_on_c, 7, 50, 107
9, 182135, Pitch_bend_c, 7, 15602
9, 182140, Pitch_bend_c, 7, 14952
9, 182145, Pitch_bend_c, 7, 13262
9, 182150, Pitch_bend_c, 7, 9492
9, 182155, Pitch_bend_c, 7, 8712
9, 182160, Pitch_bend_c, 7, 8192
9, 182230, Note_on_c, 7, 50, 0
9, 182270, Note_on_c, 7, 43, 107
9, 182270, Pitch_bend_c, 7, 9362
9, 182275, Pitch_bend_c, 7, 10012
9, 182280, Pitch_bend_c, 7, 11442
9, 182285, Pitch_bend_c, 7, 12222
9, 182290, Pitch_bend_c, 7, 14172
9, 182295, Pitch_bend_c, 7, 15342
9, 182300, Pitch_bend_c, 7, 15992
9, 182305, Pitch_bend_c, 7, 16382
9, 182385, Pitch_bend_c, 7, 15992
9, 182390, Pitch_bend_c, 7, 14172
9, 182395, Pitch_bend_c, 7, 12222
9, 182400, Pitch_bend_c, 7, 9362
9, 182405, Pitch_bend_c, 7, 8452
9, 182410, Pitch_bend_c, 7, 8192
9, 185455, Note_on_c, 7, 43, 0
9, 185640, Note_on_c, 7, 53, 121
9, 185770, Note_on_c, 7, 53, 0
9, 185875, Note_on_c, 7, 52, 107
9, 186000, Note_on_c, 7, 52, 0
9, 186115, Note_on_c, 7, 51, 121
9, 186225, Note_on_c, 7, 51, 0
9, 186230, Note_on_c, 7, 50, 119
9, 189515, Note_on_c, 7, 50, 0
9, 189705, Pitch_bend_c, 7, 8322
9, 189710, Note_on_c, 7, 50, 121
9, 189710, Pitch_bend_c, 7, 10272
9, 189715, Pitch_bend_c, 7, 12352
9, 189720, Pitch_bend_c, 7, 13132
9, 189725, Pitch_bend_c, 7, 15082
9, 189730, Pitch_bend_c, 7, 16382
9, 189825, Pitch_bend_c, 7, 15732
9, 189830, Pitch_bend_c, 7, 14042
9, 189835, Pitch_bend_c, 7, 12742
9, 189840, Pitch_bend_c, 7, 11962
9, 189845, Pitch_bend_c, 7, 10402
9, 189850, Pitch_bend_c, 7, 8192
9, 189920, Note_on_c, 7, 50, 0
9, 189950, Pitch_bend_c, 7, 8582
9, 189955, Note_on_c, 7, 43, 100
9, 189955, Pitch_bend_c, 7, 9232
9, 189960, Pitch_bend_c, 7, 10662
9, 189965, Pitch_bend_c, 7, 11572
9, 189970, Pitch_bend_c, 7, 14302
9, 189975, Pitch_bend_c, 7, 16252
9, 189980, Pitch_bend_c, 7, 16382
9, 190055, Pitch_bend_c, 7, 16252
9, 190060, Pitch_bend_c, 7, 15732
9, 190065, Pitch_bend_c, 7, 14692
9, 190070, Pitch_bend_c, 7, 12612
9, 190075, Pitch_bend_c, 7, 11832
9, 190080, Pitch_bend_c, 7, 9622
9, 190085, Pitch_bend_c, 7, 8712
9, 190090, Pitch_bend_c, 7, 8192
9, 192485, Note_on_c, 7, 43, 0
9, 193315, Note_on_c, 7, 53, 124
9, 193440, Note_on_c, 7, 53, 0
9, 193555, Note_on_c, 7, 52, 119
9, 193660, Note_on_c, 7, 52, 0
9, 193795, Note_on_c, 7, 51, 124
9, 193910, Note_on_c, 7, 51, 0
9, 193910, Note_on_c, 7, 50, 124
9, 197090, Note_on_c, 7, 50, 0
9, 197390, Note_on_c, 7, 50, 107
9, 197495, Pitch_bend_c, 7, 15602
9, 197500, Pitch_bend_c, 7, 14952
9, 197505, Pitch_bend_c, 7, 13262
9, 197510, Pitch_bend_c, 7, 9492
9, 197515, Pitch_bend_c, 7, 8712
9, 197520, Pitch_bend_c, 7, 8192
9, 197590, Note_on_c, 7, 50, 0
9, 197630, Note_on_c, 7, 43, 107
9, 197630, Pitch_bend_c, 7, 9362
9, 197635, Pitch_bend_c, 7, 10012
9, 197640, Pitch_bend_c, 7, 11442
9, 197645, Pitch_bend_c, 7, 12222
9, 197650, Pitch_bend_c, 7, 14172
9, 197655, Pitch_bend_c, 7, 15342
9, 197660, Pitch_bend_c, 7, 15992
9, 197665, Pitch_bend_c, 7, 16382
9, 197745, Pitch_bend_c, 7, 15992
9, 197750, Pitch_bend_c, 7, 14172
9, 197755, Pitch_bend_c, 7, 12222
9, 197760, Pitch_bend_c, 7, 9362
9, 197765, Pitch_bend_c, 7, 8452
9, 197770, Pitch_bend_c, 7, 8192
9, 200815, Note_on_c, 7, 43, 0
9, 201000, Note_on_c, 7, 53, 121
9, 201130, Note_on_c, 7, 53, 0
9, 201235, Note_on_c, 7, 52, 107
9, 201360, Note_on_c, 7, 52, 0
9, 201475, Note_on_c, 7, 51, 121
9, 201585, Note_on_c, 7, 51, 0
9, 201590, Note_on_c, 7, 50, 119
9, 204875, Note_on_c, 7, 50, 0
9, 205065, Pitch_bend_c, 7, 8322
9, 205070, Note_on_c, 7, 50, 121
9, 205070, Pitch_bend_c, 7, 10272
9, 205075, Pitch_bend_c, 7, 12352
9, 205080, Pitch_bend_c, 7, 13132
9, 205085, Pitch_bend_c, 7, 15082
9, 205090, Pitch_bend_c, 7, 16382
9, 205185, Pitch_bend_c, 7, 15732
9, 205190, Pitch_bend_c, 7, 14042
9, 205195, Pitch_bend_c, 7, 12742
9, 205200, Pitch_bend_c, 7, 11962
9, 205205, Pitch_bend_c, 7, 10402
9, 205210, Pitch_bend_c, 7, 8192
9, 205280, Note_on_c, 7, 50, 0
9, 205310, Pitch_bend_c, 7, 8582
9, 205315, Note_on_c, 7, 43, 100
9, 205315, Pitch_bend_c, 7, 9232
9, 205320, Pitch_bend_c, 7, 10662
9, 205325, Pitch_bend_c, 7, 11572
9, 205330, Pitch_bend_c, 7, 14302
9, 205335, Pitch_bend_c, 7, 16252
9, 205340, Pitch_bend_c, 7, 16382
9, 205415, Pitch_bend_c, 7, 16252
9, 205420, Pitch_bend_c, 7, 15732
9, 205425, Pitch_bend_c, 7, 14692
9, 205430, Pitch_bend_c, 7, 12612
9, 205435, Pitch_bend_c, 7, 11832
9, 205440, Pitch_bend_c, 7, 9622
9, 205445, Pitch_bend_c, 7, 8712
9, 205450, Pitch_bend_c, 7, 8192
9, 206395, Note_on_c, 7, 43, 0
9, 206395, End_track
10, 0, Start_track
10, 0, MIDI_port, 0
10, 0, Title_t, "tk9"
10, 522, Program_c, 8, 66
10, 523, Control_c, 8, 7, 95
10, 523, Control_c, 8, 10, 64
10, 695, Control_c, 8, 10, 64
10, 695, Control_c, 8, 11, 127
10, 700, Control_c, 8, 91, 115
10, 700, Control_c, 8, 93, 80
10, 24605, Note_on_c, 8, 46, 92
10, 24610, Control_c, 8, 1, 0
10, 24610, Pitch_bend_c, 8, 8192
10, 24935, Note_on_c, 8, 46, 0
10, 24955, Note_on_c, 8, 47, 101
10, 25085, Note_on_c, 8, 47, 0
10, 25440, Note_on_c, 8, 42, 108
10, 25670, Note_on_c, 8, 42, 0
10, 28435, Note_on_c, 8, 51, 108
10, 28795, Note_on_c, 8, 51, 0
10, 28795, Note_on_c, 8, 52, 108
10, 29010, Note_on_c, 8, 52, 0
10, 32275, Note_on_c, 8, 49, 109
10, 32635, Note_on_c, 8, 50, 101
10, 32640, Note_on_c, 8, 49, 0
10, 32750, Note_on_c, 8, 50, 0
10, 32875, Note_on_c, 8, 50, 109
10, 33050, Note_on_c, 8, 50, 0
10, 36115, Note_on_c, 8, 45, 95
10, 36235, Note_on_c, 8, 44, 71
10, 36265, Note_on_c, 8, 45, 0
10, 36325, Note_on_c, 8, 44, 0
10, 36365, Note_on_c, 8, 44, 72
10, 36465, Note_on_c, 8, 44, 0
10, 36480, Note_on_c, 8, 43, 83
10, 36690, Note_on_c, 8, 43, 0
10, 39965, Note_on_c, 8, 46, 92
10, 40295, Note_on_c, 8, 46, 0
10, 40315, Note_on_c, 8, 47, 101
10, 40445, Note_on_c, 8, 47, 0
10, 40800, Note_on_c, 8, 42, 108
10, 41030, Note_on_c, 8, 42, 0
10, 43795, Note_on_c, 8, 51, 108
10, 44155, Note_on_c, 8, 51, 0
10, 44155, Note_on_c, 8, 52, 108
10, 44370, Note_on_c, 8, 52, 0
10, 47635, Note_on_c, 8, 49, 109
10, 47995, Note_on_c, 8, 50, 101
10, 48000, Note_on_c, 8, 49, 0
10, 48110, Note_on_c, 8, 50, 0
10, 48235, Note_on_c, 8, 50, 109
10, 48410, Note_on_c, 8, 50, 0
10, 51475, Note_on_c, 8, 45, 95
10, 51595, Note_on_c, 8, 44, 71
10, 51625, Note_on_c, 8, 45, 0
10, 51685, Note_on_c, 8, 44, 0
10, 51725, Note_on_c, 8, 44, 72
10, 51825, Note_on_c, 8, 44, 0
10, 51840, Note_on_c, 8, 43, 83
10, 52050, Note_on_c, 8, 43, 0
10, 70685, Note_on_c, 8, 46, 92
10, 71015, Note_on_c, 8, 46, 0
10, 71035, Note_on_c, 8, 47, 101
10, 71165, Note_on_c, 8, 47, 0
10, 71520, Note_on_c, 8, 42, 108
10, 71750, Note_on_c, 8, 42, 0
10, 74515, Note_on_c, 8, 51, 108
10, 74875, Note_on_c, 8, 51, 0
10, 74875, Note_on_c, 8, 52, 108
10, 75090, Note_on_c, 8, 52, 0
10, 78355, Note_on_c, 8, 49, 109
10, 78715, Note_on_c, 8, 50, 101
10, 78720, Note_on_c, 8, 49, 0
10, 78830, Note_on_c, 8, 50, 0
10, 78955, Note_on_c, 8, 50, 109
10, 79130, Note_on_c, 8, 50, 0
10, 82195, Note_on_c, 8, 45, 95
10, 82315, Note_on_c, 8, 44, 71
10, 82345, Note_on_c, 8, 45, 0
10, 82405, Note_on_c, 8, 44, 0
10, 82445, Note_on_c, 8, 44, 72
10, 82545, Note_on_c, 8, 44, 0
10, 82560, Note_on_c, 8, 43, 83
10, 82770, Note_on_c, 8, 43, 0
10, 101405, Note_on_c, 8, 46, 92
10, 101735, Note_on_c, 8, 46, 0
10, 101755, Note_on_c, 8, 47, 101
10, 101885, Note_on_c, 8, 47, 0
10, 102240, Note_on_c, 8, 42, 108
10, 102470, Note_on_c, 8, 42, 0
10, 105235, Note_on_c, 8, 51, 108
10, 105595, Note_on_c, 8, 51, 0
10, 105595, Note_on_c, 8, 52, 108
10, 105810, Note_on_c, 8, 52, 0
10, 109075, Note_on_c, 8, 49, 109
10, 109435, Note_on_c, 8, 50, 101
10, 109440, Note_on_c, 8, 49, 0
10, 109550, Note_on_c, 8, 50, 0
10, 109675, Note_on_c, 8, 50, 109
10, 109850, Note_on_c, 8, 50, 0
10, 112915, Note_on_c, 8, 45, 95
10, 113035, Note_on_c, 8, 44, 71
10, 113065, Note_on_c, 8, 45, 0
10, 113125, Note_on_c, 8, 44, 0
10, 113165, Note_on_c, 8, 44, 72
10, 113265, Note_on_c, 8, 44, 0
10, 113280, Note_on_c, 8, 43, 83
10, 113490, Note_on_c, 8, 43, 0
10, 132125, Note_on_c, 8, 46, 92
10, 132455, Note_on_c, 8, 46, 0
10, 132475, Note_on_c, 8, 47, 101
10, 132605, Note_on_c, 8, 47, 0
10, 132960, Note_on_c, 8, 42, 108
10, 133190, Note_on_c, 8, 42, 0
10, 135955, Note_on_c, 8, 51, 108
10, 136315, Note_on_c, 8, 51, 0
10, 136315, Note_on_c, 8, 52, 108
10, 136530, Note_on_c, 8, 52, 0
10, 139795, Note_on_c, 8, 49, 109
10, 140155, Note_on_c, 8, 50, 101
10, 140160, Note_on_c, 8, 49, 0
10, 140270, Note_on_c, 8, 50, 0
10, 140395, Note_on_c, 8, 50, 109
10, 140570, Note_on_c, 8, 50, 0
10, 143635, Note_on_c, 8, 45, 95
10, 143755, Note_on_c, 8, 44, 71
10, 143785, Note_on_c, 8, 45, 0
10, 143845, Note_on_c, 8, 44, 0
10, 143885, Note_on_c, 8, 44, 72
10, 143985, Note_on_c, 8, 44, 0
10, 144000, Note_on_c, 8, 43, 83
10, 144210, Note_on_c, 8, 43, 0
10, 147485, Note_on_c, 8, 46, 92
10, 147815, Note_on_c, 8, 46, 0
10, 147835, Note_on_c, 8, 47, 101
10, 147965, Note_on_c, 8, 47, 0
10, 148320, Note_on_c, 8, 42, 108
10, 148550, Note_on_c, 8, 42, 0
10, 151315, Note_on_c, 8, 51, 108
10, 151675, Note_on_c, 8, 51, 0
10, 151675, Note_on_c, 8, 52, 108
10, 151890, Note_on_c, 8, 52, 0
10, 155155, Note_on_c, 8, 49, 109
10, 155515, Note_on_c, 8, 50, 101
10, 155520, Note_on_c, 8, 49, 0
10, 155630, Note_on_c, 8, 50, 0
10, 155755, Note_on_c, 8, 50, 109
10, 155930, Note_on_c, 8, 50, 0
10, 158995, Note_on_c, 8, 45, 95
10, 159115, Note_on_c, 8, 44, 71
10, 159145, Note_on_c, 8, 45, 0
10, 159205, Note_on_c, 8, 44, 0
10, 159245, Note_on_c, 8, 44, 72
10, 159345, Note_on_c, 8, 44, 0
10, 159360, Note_on_c, 8, 43, 83
10, 159570, Note_on_c, 8, 43, 0
10, 159570, End_track
11, 0, Start_track
11, 0, MIDI_port, 0
11, 0, Title_t, "tk10"
11, 528, Control_c, 9, 7, 100
11, 528, Control_c, 9, 10, 64
11, 720, Control_c, 9, 11, 127
11, 725, Control_c, 9, 91, 92
11, 725, Control_c, 9, 93, 40
11, 7655, Note_on_c, 9, 40, 84
11, 7660, Control_c, 9, 1, 0
11, 7660, Pitch_bend_c, 9, 16383
11, 7675, Note_on_c, 9, 40, 0
11, 7680, Note_on_c, 9, 40, 124
11, 7710, Note_on_c, 9, 40, 0
11, 7920, Note_on_c, 9, 40, 112
11, 7950, Note_on_c, 9, 40, 0
11, 8400, Note_on_c, 9, 40, 111
11, 8430, Note_on_c, 9, 40, 0
11, 8760, Note_on_c, 9, 40, 97
11, 8790, Note_on_c, 9, 40, 0
11, 8880, Note_on_c, 9, 40, 82
11, 8910, Note_on_c, 9, 40, 0
11, 9240, Note_on_c, 9, 40, 92
11, 9270, Note_on_c, 9, 40, 0
11, 9360, Note_on_c, 9, 40, 105
11, 9390, Note_on_c, 9, 40, 0
11, 9480, Note_on_c, 9, 40, 124
11, 9510, Note_on_c, 9, 40, 0
11, 9600, Note_on_c, 9, 36, 113
11, 9630, Note_on_c, 9, 36, 0
11, 9720, Note_on_c, 9, 70, 52
11, 9725, Control_c, 9, 1, 0
11, 9725, Pitch_bend_c, 9, 16383
11, 9750, Note_on_c, 9, 70, 0
11, 9840, Note_on_c, 9, 36, 105
11, 9840, Note_on_c, 9, 42, 115
11, 9840, Note_on_c, 9, 69, 46
11, 9840, Note_on_c, 9, 70, 42
11, 9845, Control_c, 9, 1, 0
11, 9845, Pitch_bend_c, 9, 16383
11, 9870, Note_on_c, 9, 70, 0
11, 9870, Note_on_c, 9, 36, 0
11, 9870, Note_on_c, 9, 42, 0
11, 9870, Note_on_c, 9, 69, 0
11, 10080, Note_on_c, 9, 40, 116
11, 10080, Note_on_c, 9, 42, 62
11, 10110, Note_on_c, 9, 42, 0
11, 10110, Note_on_c, 9, 40, 0
11, 10200, Note_on_c, 9, 70, 50
11, 10230, Note_on_c, 9, 70, 0
11, 10320, Note_on_c, 9, 42, 109
11, 10320, Note_on_c, 9, 69, 47
11, 10320, Note_on_c, 9, 70, 46
11, 10350, Note_on_c, 9, 70, 0
11, 10350, Note_on_c, 9, 69, 0
11, 10350, Note_on_c, 9, 42, 0
11, 10440, Note_on_c, 9, 40, 113
11, 10470, Note_on_c, 9, 40, 0
11, 10560, Note_on_c, 9, 42, 49
11, 10590, Note_on_c, 9, 42, 0
11, 10680, Note_on_c, 9, 36, 90
11, 10680, Note_on_c, 9, 70, 47
11, 10710, Note_on_c, 9, 70, 0
11, 10710, Note_on_c, 9, 36, 0
11, 10800, Note_on_c, 9, 40, 112
11, 10800, Note_on_c, 9, 42, 118
11, 10800, Note_on_c, 9, 69, 42
11, 10800, Note_on_c, 9, 70, 48
11, 10830, Note_on_c, 9, 70, 0
11, 10830, Note_on_c, 9, 40, 0
11, 10830, Note_on_c, 9, 42, 0
11, 10830, Note_on_c, 9, 69, 0
11, 11040, Note_on_c, 9, 42, 61
11, 11070, Note_on_c, 9, 42, 0
11, 11160, Note_on_c, 9, 40, 115
11, 11160, Note_on_c, 9, 70, 47
11, 11190, Note_on_c, 9, 70, 0
11, 11190, Note_on_c, 9, 40, 0
11, 11280, Note_on_c, 9, 36, 88
11, 11280, Note_on_c, 9, 42, 112
11, 11280, Note_on_c, 9, 69, 47
11, 11280, Note_on_c, 9, 70, 52
11, 11310, Note_on_c, 9, 70, 0
11, 11310, Note_on_c, 9, 36, 0
11, 11310, Note_on_c, 9, 42, 0
11, 11310, Note_on_c, 9, 69, 0
11, 11520, Note_on_c, 9, 36, 98
11, 11520, Note_on_c, 9, 42, 69
11, 11550, Note_on_c, 9, 42, 0
11, 11550, Note_on_c, 9, 36, 0
11, 11640, Note_on_c, 9, 70, 47
11, 11670, Note_on_c, 9, 70, 0
11, 11760, Note_on_c, 9, 36, 100
11, 11760, Note_on_c, 9, 42, 115
11, 11760, Note_on_c, 9, 69, 48
11, 11760, Note_on_c, 9, 70, 33
11, 11790, Note_on_c, 9, 70, 0
11, 11790, Note_on_c, 9, 36, 0
11, 11790, Note_on_c, 9, 42, 0
11, 11790, Note_on_c, 9, 69, 0
11, 12000, Note_on_c, 9, 40, 111
11, 12000, Note_on_c, 9, 42, 76
11, 12030, Note_on_c, 9, 42, 0
11, 12030, Note_on_c, 9, 40, 0
11, 12120, Note_on_c, 9, 70, 44
11, 12150, Note_on_c, 9, 70, 0
11, 12240, Note_on_c, 9, 42, 112
11, 12240, Note_on_c, 9, 69, 51
11, 12240, Note_on_c, 9, 70, 59
11, 12270, Note_on_c, 9, 70, 0
11, 12270, Note_on_c, 9, 69, 0
11, 12270, Note_on_c, 9, 42, 0
11, 12360, Note_on_c, 9, 40, 113
11, 12390, Note_on_c, 9, 40, 0
11, 12480, Note_on_c, 9, 42, 59
11, 12510, Note_on_c, 9, 42, 0
11, 12600, Note_on_c, 9, 36, 98
11, 12600, Note_on_c, 9, 70, 47
11, 12630, Note_on_c, 9, 70, 0
11, 12630, Note_on_c, 9, 36, 0
11, 12720, Note_on_c, 9, 40, 116
11, 12720, Note_on_c, 9, 42, 115
11, 12720, Note_on_c, 9, 69, 50
11, 12720, Note_on_c, 9, 70, 65
11, 12750, Note_on_c, 9, 70, 0
11, 12750, Note_on_c, 9, 40, 0
11, 12750, Note_on_c, 9, 42, 0
11, 12750, Note_on_c, 9, 69, 0
11, 12960, Note_on_c, 9, 42, 60
11, 12990, Note_on_c, 9, 42, 0
11, 13080, Note_on_c, 9, 40, 117
11, 13080, Note_on_c, 9, 70, 51
11, 13110, Note_on_c, 9, 70, 0
11, 13110, Note_on_c, 9, 40, 0
11, 13200, Note_on_c, 9, 36, 91
11, 13200, Note_on_c, 9, 42, 113
11, 13200, Note_on_c, 9, 69, 50
11, 13200, Note_on_c, 9, 70, 47
11, 13230, Note_on_c, 9, 70, 0
11, 13230, Note_on_c, 9, 36, 0
11, 13230, Note_on_c, 9, 42, 0
11, 13230, Note_on_c, 9, 69, 0
11, 13440, Note_on_c, 9, 36, 116
11, 13440, Note_on_c, 9, 42, 59
11, 13470, Note_on_c, 9, 42, 0
11, 13470, Note_on_c, 9, 36, 0
11, 13560, Note_on_c, 9, 70, 53
11, 13590, Note_on_c, 9, 70, 0
11, 13680, Note_on_c, 9, 36, 109
11, 13680, Note_on_c, 9, 42, 109
11, 13680, Note_on_c, 9, 69, 46
11, 13680, Note_on_c, 9, 70, 55
11, 13710, Note_on_c, 9, 70, 0
11, 13710, Note_on_c, 9, 36, 0
11, 13710, Note_on_c, 9, 42, 0
11, 13710, Note_on_c, 9, 69, 0
11, 13920, Note_on_c, 9, 40, 105
11, 13920, Note_on_c, 9, 42, 63
11, 13950, Note_on_c, 9, 42, 0
11, 13950, Note_on_c, 9, 40, 0
11, 14040, Note_on_c, 9, 70, 52
11, 14070, Note_on_c, 9, 70, 0
11, 14160, Note_on_c, 9, 42, 115
11, 14160, Note_on_c, 9, 69, 46
11, 14160, Note_on_c, 9, 70, 71
11, 14190, Note_on_c, 9, 70, 0
11, 14190, Note_on_c, 9, 69, 0
11, 14190, Note_on_c, 9, 42, 0
11, 14280, Note_on_c, 9, 36, 105
11, 14310, Note_on_c, 9, 36, 0
11, 14400, Note_on_c, 9, 42, 61
11, 14430, Note_on_c, 9, 42, 0
11, 14520, Note_on_c, 9, 70, 51
11, 14550, Note_on_c, 9, 70, 0
11, 14640, Note_on_c, 9, 36, 113
11, 14640, Note_on_c, 9, 42, 115
11, 14640, Note_on_c, 9, 69, 46
11, 14640, Note_on_c, 9, 70, 57
11, 14670, Note_on_c, 9, 70, 0
11, 14670, Note_on_c, 9, 36, 0
11, 14670, Note_on_c, 9, 42, 0
11, 14670, Note_on_c, 9, 69, 0
11, 14880, Note_on_c, 9, 40, 103
11, 14880, Note_on_c, 9, 42, 78
11, 14910, Note_on_c, 9, 42, 0
11, 14910, Note_on_c, 9, 40, 0
11, 15000, Note_on_c, 9, 36, 119
11, 15000, Note_on_c, 9, 46, 82
11, 15000, Note_on_c, 9, 70, 51
11, 15030, Note_on_c, 9, 70, 0
11, 15030, Note_on_c, 9, 46, 0
11, 15030, Note_on_c, 9, 36, 0
11, 15120, Note_on_c, 9, 42, 69
11, 15120, Note_on_c, 9, 69, 45
11, 15120, Note_on_c, 9, 70, 65
11, 15150, Note_on_c, 9, 70, 0
11, 15150, Note_on_c, 9, 69, 0
11, 15150, Note_on_c, 9, 42, 0
11, 15360, Note_on_c, 9, 42, 109
11, 15390, Note_on_c, 9, 42, 0
11, 15480, Note_on_c, 9, 70, 47
11, 15510, Note_on_c, 9, 70, 0
11, 15600, Note_on_c, 9, 36, 109
11, 15600, Note_on_c, 9, 42, 96
11, 15600, Note_on_c, 9, 69, 43
11, 15600, Note_on_c, 9, 70, 59
11, 15630, Note_on_c, 9, 70, 0
11, 15630, Note_on_c, 9, 36, 0
11, 15630, Note_on_c, 9, 42, 0
11, 15630, Note_on_c, 9, 69, 0
11, 15720, Note_on_c, 9, 36, 91
11, 15750, Note_on_c, 9, 36, 0
11, 15840, Note_on_c, 9, 40, 118
11, 15840, Note_on_c, 9, 42, 64
11, 15870, Note_on_c, 9, 42, 0
11, 15870, Note_on_c, 9, 40, 0
11, 15960, Note_on_c, 9, 70, 48
11, 15990, Note_on_c, 9, 70, 0
11, 16080, Note_on_c, 9, 42, 112
11, 16080, Note_on_c, 9, 69, 41
11, 16080, Note_on_c, 9, 70, 49
11, 16110, Note_on_c, 9, 70, 0
11, 16110, Note_on_c, 9, 69, 0
11, 16110, Note_on_c, 9, 42, 0
11, 16200, Note_on_c, 9, 40, 121
11, 16230, Note_on_c, 9, 40, 0
11, 16320, Note_on_c, 9, 36, 92
11, 16320, Note_on_c, 9, 42, 78
11, 16350, Note_on_c, 9, 42, 0
11, 16350, Note_on_c, 9, 36, 0
11, 16440, Note_on_c, 9, 70, 52
11, 16470, Note_on_c, 9, 70, 0
11, 16560, Note_on_c, 9, 42, 99
11, 16560, Note_on_c, 9, 69, 48
11, 16560, Note_on_c, 9, 70, 41
11, 16590, Note_on_c, 9, 70, 0
11, 16590, Note_on_c, 9, 69, 0
11, 16590, Note_on_c, 9, 42, 0
11, 16680, Note_on_c, 9, 36, 113
11, 16680, Note_on_c, 9, 46, 80
11, 16710, Note_on_c, 9, 46, 0
11, 16710, Note_on_c, 9, 36, 0
11, 16800, Note_on_c, 9, 42, 96
11, 16830, Note_on_c, 9, 42, 0
11, 16920, Note_on_c, 9, 40, 118
11, 16920, Note_on_c, 9, 70, 49
11, 16950, Note_on_c, 9, 70, 0
11, 16950, Note_on_c, 9, 40, 0
11, 17040, Note_on_c, 9, 40, 100
11, 17040, Note_on_c, 9, 42, 88
11, 17040, Note_on_c, 9, 69, 50
11, 17040, Note_on_c, 9, 70, 53
11, 17070, Note_on_c, 9, 70, 0
11, 17070, Note_on_c, 9, 40, 0
11, 17070, Note_on_c, 9, 42, 0
11, 17070, Note_on_c, 9, 69, 0
11, 17160, Note_on_c, 9, 40, 115
11, 17190, Note_on_c, 9, 40, 0
11, 17280, Note_on_c, 9, 36, 116
11, 17280, Note_on_c, 9, 42, 78
11, 17310, Note_on_c, 9, 42, 0
11, 17310, Note_on_c, 9, 36, 0
11, 17400, Note_on_c, 9, 70, 48
11, 17430, Note_on_c, 9, 70, 0
11, 17520, Note_on_c, 9, 36, 116
11, 17520, Note_on_c, 9, 42, 112
11, 17520, Note_on_c, 9, 69, 47
11, 17520, Note_on_c, 9, 70, 48
11, 17550, Note_on_c, 9, 70, 0
11, 17550, Note_on_c, 9, 36, 0
11, 17550, Note_on_c, 9, 42, 0
11, 17550, Note_on_c, 9, 69, 0
11, 17760, Note_on_c, 9, 40, 123
11, 17760, Note_on_c, 9, 42, 88
11, 17790, Note_on_c, 9, 42, 0
11, 17790, Note_on_c, 9, 40, 0
11, 17880, Note_on_c, 9, 70, 46
11, 17910, Note_on_c, 9, 70, 0
11, 18000, Note_on_c, 9, 42, 121
11, 18000, Note_on_c, 9, 69, 50
11, 18000, Note_on_c, 9, 70, 48
11, 18030, Note_on_c, 9, 70, 0
11, 18030, Note_on_c, 9, 69, 0
11, 18030, Note_on_c, 9, 42, 0
11, 18120, Note_on_c, 9, 40, 91
11, 18150, Note_on_c, 9, 40, 0
11, 18240, Note_on_c, 9, 42, 58
11, 18270, Note_on_c, 9, 42, 0
11, 18360, Note_on_c, 9, 36, 105
11, 18360, Note_on_c, 9, 70, 48
11, 18390, Note_on_c, 9, 70, 0
11, 18390, Note_on_c, 9, 36, 0
11, 18480, Note_on_c, 9, 40, 103
11, 18480, Note_on_c, 9, 42, 115
11, 18480, Note_on_c, 9, 69, 49
11, 18480, Note_on_c, 9, 70, 73
11, 18510, Note_on_c, 9, 70, 0
11, 18510, Note_on_c, 9, 40, 0
11, 18510, Note_on_c, 9, 42, 0
11, 18510, Note_on_c, 9, 69, 0
11, 18720, Note_on_c, 9, 42, 60
11, 18750, Note_on_c, 9, 42, 0
11, 18840, Note_on_c, 9, 40, 86
11, 18840, Note_on_c, 9, 70, 43
11, 18870, Note_on_c, 9, 70, 0
11, 18870, Note_on_c, 9, 40, 0
11, 18960, Note_on_c, 9, 36, 91
11, 18960, Note_on_c, 9, 42, 112
11, 18960, Note_on_c, 9, 69, 45
11, 18960, Note_on_c, 9, 70, 67
11, 18990, Note_on_c, 9, 70, 0
11, 18990, Note_on_c, 9, 36, 0
11, 18990, Note_on_c, 9, 42, 0
11, 18990, Note_on_c, 9, 69, 0
11, 19200, Note_on_c, 9, 36, 113
11, 19200, Note_on_c, 9, 42, 59
11, 19230, Note_on_c, 9, 42, 0
11, 19230, Note_on_c, 9, 36, 0
11, 19320, Note_on_c, 9, 70, 40
11, 19350, Note_on_c, 9, 70, 0
11, 19440, Note_on_c, 9, 36, 113
11, 19440, Note_on_c, 9, 42, 115
11, 19440, Note_on_c, 9, 69, 51
11, 19440, Note_on_c, 9, 70, 71
11, 19470, Note_on_c, 9, 70, 0
11, 19470, Note_on_c, 9, 36, 0
11, 19470, Note_on_c, 9, 42, 0
11, 19470, Note_on_c, 9, 69, 0
11, 19680, Note_on_c, 9, 40, 103
11, 19680, Note_on_c, 9, 42, 61
11, 19710, Note_on_c, 9, 42, 0
11, 19710, Note_on_c, 9, 40, 0
11, 19800, Note_on_c, 9, 70, 47
11, 19830, Note_on_c, 9, 70, 0
11, 19920, Note_on_c, 9, 42, 113
11, 19920, Note_on_c, 9, 69, 50
11, 19920, Note_on_c, 9, 70, 53
11, 19950, Note_on_c, 9, 70, 0
11, 19950, Note_on_c, 9, 69, 0
11, 19950, Note_on_c, 9, 42, 0
11, 20040, Note_on_c, 9, 40, 113
11, 20070, Note_on_c, 9, 40, 0
11, 20160, Note_on_c, 9, 42, 58
11, 20190, Note_on_c, 9, 42, 0
11, 20280, Note_on_c, 9, 36, 98
11, 20280, Note_on_c, 9, 70, 48
11, 20310, Note_on_c, 9, 70, 0
11, 20310, Note_on_c, 9, 36, 0
11, 20400, Note_on_c, 9, 40, 100
11, 20400, Note_on_c, 9, 42, 113
11, 20400, Note_on_c, 9, 69, 53
11, 20400, Note_on_c, 9, 70, 64
11, 20430, Note_on_c, 9, 70, 0
11, 20430, Note_on_c, 9, 40, 0
11, 20430, Note_on_c, 9, 42, 0
11, 20430, Note_on_c, 9, 69, 0
11, 20640, Note_on_c, 9, 42, 63
11, 20670, Note_on_c, 9, 42, 0
11, 20760, Note_on_c, 9, 40, 102
11, 20760, Note_on_c, 9, 70, 47
11, 20790, Note_on_c, 9, 70, 0
11, 20790, Note_on_c, 9, 40, 0
11, 20880, Note_on_c, 9, 40, 115
11, 20880, Note_on_c, 9, 42, 113
11, 20880, Note_on_c, 9, 69, 50
11, 20880, Note_on_c, 9, 70, 50
11, 20910, Note_on_c, 9, 70, 0
11, 20910, Note_on_c, 9, 40, 0
11, 20910, Note_on_c, 9, 42, 0
11, 20910, Note_on_c, 9, 69, 0
11, 21000, Note_on_c, 9, 40, 121
11, 21030, Note_on_c, 9, 40, 0
11, 21120, Note_on_c, 9, 36, 100
11, 21120, Note_on_c, 9, 42, 76
11, 21150, Note_on_c, 9, 42, 0
11, 21150, Note_on_c, 9, 36, 0
11, 21240, Note_on_c, 9, 46, 70
11, 21240, Note_on_c, 9, 70, 48
11, 21270, Note_on_c, 9, 70, 0
11, 21270, Note_on_c, 9, 46, 0
11, 21360, Note_on_c, 9, 36, 122
11, 21360, Note_on_c, 9, 42, 77
11, 21360, Note_on_c, 9, 69, 53
11, 21360, Note_on_c, 9, 70, 53
11, 21390, Note_on_c, 9, 70, 0
11, 21390, Note_on_c, 9, 36, 0
11, 21390, Note_on_c, 9, 42, 0
11, 21390, Note_on_c, 9, 69, 0
11, 21600, Note_on_c, 9, 40, 113
11, 21600, Note_on_c, 9, 42, 94
11, 21630, Note_on_c, 9, 42, 0
11, 21630, Note_on_c, 9, 40, 0
11, 21720, Note_on_c, 9, 70, 47
11, 21750, Note_on_c, 9, 70, 0
11, 21840, Note_on_c, 9, 42, 109
11, 21840, Note_on_c, 9, 69, 52
11, 21840, Note_on_c, 9, 70, 62
11, 21870, Note_on_c, 9, 70, 0
11, 21870, Note_on_c, 9, 69, 0
11, 21870, Note_on_c, 9, 42, 0
11, 21960, Note_on_c, 9, 40, 105
11, 21990, Note_on_c, 9, 40, 0
11, 22080, Note_on_c, 9, 42, 64
11, 22110, Note_on_c, 9, 42, 0
11, 22200, Note_on_c, 9, 36, 92
11, 22200, Note_on_c, 9, 70, 46
11, 22230, Note_on_c, 9, 70, 0
11, 22230, Note_on_c, 9, 36, 0
11, 22320, Note_on_c, 9, 40, 100
11, 22320, Note_on_c, 9, 42, 121
11, 22320, Note_on_c, 9, 69, 51
11, 22320, Note_on_c, 9, 70, 74
11, 22350, Note_on_c, 9, 70, 0
11, 22350, Note_on_c, 9, 40, 0
11, 22350, Note_on_c, 9, 42, 0
11, 22350, Note_on_c, 9, 69, 0
11, 22560, Note_on_c, 9, 42, 63
11, 22590, Note_on_c, 9, 42, 0
11, 22680, Note_on_c, 9, 40, 113
11, 22680, Note_on_c, 9, 46, 66
11, 22680, Note_on_c, 9, 70, 51
11, 22710, Note_on_c, 9, 70, 0
11, 22710, Note_on_c, 9, 46, 0
11, 22710, Note_on_c, 9, 40, 0
11, 22800, Note_on_c, 9, 36, 91
11, 22800, Note_on_c, 9, 42, 105
11, 22800, Note_on_c, 9, 69, 52
11, 22800, Note_on_c, 9, 70, 69
11, 22830, Note_on_c, 9, 70, 0
11, 22830, Note_on_c, 9, 36, 0
11, 22830, Note_on_c, 9, 42, 0
11, 22830, Note_on_c, 9, 69, 0
11, 23040, Note_on_c, 9, 36, 119
11, 23040, Note_on_c, 9, 42, 101
11, 23070, Note_on_c, 9, 42, 0
11, 23070, Note_on_c, 9, 36, 0
11, 23160, Note_on_c, 9, 70, 47
11, 23190, Note_on_c, 9, 70, 0
11, 23280, Note_on_c, 9, 36, 116
11, 23280, Note_on_c, 9, 42, 112
11, 23280, Note_on_c, 9, 69, 50
11, 23280, Note_on_c, 9, 70, 58
11, 23310, Note_on_c, 9, 70, 0
11, 23310, Note_on_c, 9, 36, 0
11, 23310, Note_on_c, 9, 42, 0
11, 23310, Note_on_c, 9, 69, 0
11, 23520, Note_on_c, 9, 40, 113
11, 23520, Note_on_c, 9, 42, 37
11, 23550, Note_on_c, 9, 42, 0
11, 23550, Note_on_c, 9, 40, 0
11, 23640, Note_on_c, 9, 70, 49
11, 23670, Note_on_c, 9, 70, 0
11, 23760, Note_on_c, 9, 42, 115
11, 23760, Note_on_c, 9, 69, 53
11, 23760, Note_on_c, 9, 70, 56
11, 23790, Note_on_c, 9, 70, 0
11, 23790, Note_on_c, 9, 69, 0
11, 23790, Note_on_c, 9, 42, 0
11, 23880, Note_on_c, 9, 40, 100
11, 23910, Note_on_c, 9, 40, 0
11, 24000, Note_on_c, 9, 40, 76
11, 24000, Note_on_c, 9, 42, 50
11, 24030, Note_on_c, 9, 42, 0
11, 24030, Note_on_c, 9, 40, 0
11, 24120, Note_on_c, 9, 70, 49
11, 24150, Note_on_c, 9, 70, 0
11, 24240, Note_on_c, 9, 40, 109
11, 24240, Note_on_c, 9, 42, 115
11, 24240, Note_on_c, 9, 69, 49
11, 24240, Note_on_c, 9, 70, 48
11, 24270, Note_on_c, 9, 70, 0
11, 24270, Note_on_c, 9, 40, 0
11, 24270, Note_on_c, 9, 42, 0
11, 24270, Note_on_c, 9, 69, 0
11, 24480, Note_on_c, 9, 40, 113
11, 24480, Note_on_c, 9, 42, 52
11, 24510, Note_on_c, 9, 42, 0
11, 24510, Note_on_c, 9, 40, 0
11, 24600, Note_on_c, 9, 40, 122
11, 24600, Note_on_c, 9, 70, 47
11, 24630, Note_on_c, 9, 70, 0
11, 24630, Note_on_c, 9, 40, 0
11, 24720, Note_on_c, 9, 40, 127
11, 24720, Note_on_c, 9, 42, 113
11, 24720, Note_on_c, 9, 69, 59
11, 24720, Note_on_c, 9, 70, 75
11, 24750, Note_on_c, 9, 70, 0
11, 24750, Note_on_c, 9, 40, 0
11, 24750, Note_on_c, 9, 42, 0
11, 24750, Note_on_c, 9, 69, 0
11, 24840, Note_on_c, 9, 40, 127
11, 24870, Note_on_c, 9, 40, 0
11, 24960, Note_on_c, 9, 36, 113
11, 24960, Note_on_c, 9, 42, 94
11, 24990, Note_on_c, 9, 42, 0
11, 24990, Note_on_c, 9, 36, 0
11, 25080, Note_on_c, 9, 70, 52
11, 25110, Note_on_c, 9, 70, 0
11, 25200, Note_on_c, 9, 36, 105
11, 25200, Note_on_c, 9, 42, 115
11, 25200, Note_on_c, 9, 69, 46
11, 25200, Note_on_c, 9, 70, 42
11, 25230, Note_on_c, 9, 70, 0
11, 25230, Note_on_c, 9, 36, 0
11, 25230, Note_on_c, 9, 42, 0
11, 25230, Note_on_c, 9, 69, 0
11, 25440, Note_on_c, 9, 40, 116
11, 25440, Note_on_c, 9, 42, 62
11, 25470, Note_on_c, 9, 42, 0
11, 25470, Note_on_c, 9, 40, 0
11, 25560, Note_on_c, 9, 70, 50
11, 25590, Note_on_c, 9, 70, 0
11, 25680, Note_on_c, 9, 42, 109
11, 25680, Note_on_c, 9, 69, 47
11, 25680, Note_on_c, 9, 70, 46
11, 25710, Note_on_c, 9, 70, 0
11, 25710, Note_on_c, 9, 69, 0
11, 25710, Note_on_c, 9, 42, 0
11, 25800, Note_on_c, 9, 40, 113
11, 25830, Note_on_c, 9, 40, 0
11, 25920, Note_on_c, 9, 42, 49
11, 25950, Note_on_c, 9, 42, 0
11, 26040, Note_on_c, 9, 36, 90
11, 26040, Note_on_c, 9, 70, 47
11, 26070, Note_on_c, 9, 70, 0
11, 26070, Note_on_c, 9, 36, 0
11, 26160, Note_on_c, 9, 40, 112
11, 26160, Note_on_c, 9, 42, 118
11, 26160, Note_on_c, 9, 69, 42
11, 26160, Note_on_c, 9, 70, 48
11, 26190, Note_on_c, 9, 70, 0
11, 26190, Note_on_c, 9, 40, 0
11, 26190, Note_on_c, 9, 42, 0
11, 26190, Note_on_c, 9, 69, 0
11, 26400, Note_on_c, 9, 42, 61
11, 26430, Note_on_c, 9, 42, 0
11, 26520, Note_on_c, 9, 40, 115
11, 26520, Note_on_c, 9, 70, 47
11, 26550, Note_on_c, 9, 70, 0
11, 26550, Note_on_c, 9, 40, 0
11, 26640, Note_on_c, 9, 36, 88
11, 26640, Note_on_c, 9, 42, 112
11, 26640, Note_on_c, 9, 69, 47
11, 26640, Note_on_c, 9, 70, 52
11, 26670, Note_on_c, 9, 70, 0
11, 26670, Note_on_c, 9, 36, 0
11, 26670, Note_on_c, 9, 42, 0
11, 26670, Note_on_c, 9, 69, 0
11, 26880, Note_on_c, 9, 36, 98
11, 26880, Note_on_c, 9, 42, 69
11, 26910, Note_on_c, 9, 42, 0
11, 26910, Note_on_c, 9, 36, 0
11, 27000, Note_on_c, 9, 70, 47
11, 27030, Note_on_c, 9, 70, 0
11, 27120, Note_on_c, 9, 36, 100
11, 27120, Note_on_c, 9, 42, 115
11, 27120, Note_on_c, 9, 69, 48
11, 27120, Note_on_c, 9, 70, 33
11, 27150, Note_on_c, 9, 70, 0
11, 27150, Note_on_c, 9, 36, 0
11, 27150, Note_on_c, 9, 42, 0
11, 27150, Note_on_c, 9, 69, 0
11, 27360, Note_on_c, 9, 40, 111
11, 27360, Note_on_c, 9, 42, 76
11, 27390, Note_on_c, 9, 42, 0
11, 27390, Note_on_c, 9, 40, 0
11, 27480, Note_on_c, 9, 70, 44
11, 27510, Note_on_c, 9, 70, 0
11, 27600, Note_on_c, 9, 42, 112
11, 27600, Note_on_c, 9, 69, 51
11, 27600, Note_on_c, 9, 70, 59
11, 27630, Note_on_c, 9, 70, 0
11, 27630, Note_on_c, 9, 69, 0
11, 27630, Note_on_c, 9, 42, 0
11, 27720, Note_on_c, 9, 40, 113
11, 27750, Note_on_c, 9, 40, 0
11, 27840, Note_on_c, 9, 42, 59
11, 27870, Note_on_c, 9, 42, 0
11, 27960, Note_on_c, 9, 36, 98
11, 27960, Note_on_c, 9, 70, 47
11, 27990, Note_on_c, 9, 70, 0
11, 27990, Note_on_c, 9, 36, 0
11, 28080, Note_on_c, 9, 40, 116
11, 28080, Note_on_c, 9, 42, 115
11, 28080, Note_on_c, 9, 69, 50
11, 28080, Note_on_c, 9, 70, 65
11, 28110, Note_on_c, 9, 70, 0
11, 28110, Note_on_c, 9, 40, 0
11, 28110, Note_on_c, 9, 42, 0
11, 28110, Note_on_c, 9, 69, 0
11, 28200, Note_on_c, 9, 46, 82
11, 28230, Note_on_c, 9, 46, 0
11, 28320, Note_on_c, 9, 42, 60
11, 28350, Note_on_c, 9, 42, 0
11, 28440, Note_on_c, 9, 40, 117
11, 28440, Note_on_c, 9, 49, 82
11, 28440, Note_on_c, 9, 70, 51
11, 28470, Note_on_c, 9, 70, 0
11, 28470, Note_on_c, 9, 49, 0
11, 28470, Note_on_c, 9, 40, 0
11, 28560, Note_on_c, 9, 36, 91
11, 28560, Note_on_c, 9, 42, 113
11, 28560, Note_on_c, 9, 69, 50
11, 28560, Note_on_c, 9, 70, 47
11, 28590, Note_on_c, 9, 70, 0
11, 28590, Note_on_c, 9, 36, 0
11, 28590, Note_on_c, 9, 42, 0
11, 28590, Note_on_c, 9, 69, 0
11, 28800, Note_on_c, 9, 36, 116
11, 28800, Note_on_c, 9, 42, 59
11, 28830, Note_on_c, 9, 42, 0
11, 28830, Note_on_c, 9, 36, 0
11, 28920, Note_on_c, 9, 70, 53
11, 28950, Note_on_c, 9, 70, 0
11, 29040, Note_on_c, 9, 36, 109
11, 29040, Note_on_c, 9, 42, 109
11, 29040, Note_on_c, 9, 69, 46
11, 29040, Note_on_c, 9, 70, 55
11, 29070, Note_on_c, 9, 70, 0
11, 29070, Note_on_c, 9, 36, 0
11, 29070, Note_on_c, 9, 42, 0
11, 29070, Note_on_c, 9, 69, 0
11, 29280, Note_on_c, 9, 40, 105
11, 29280, Note_on_c, 9, 42, 63
11, 29310, Note_on_c, 9, 42, 0
11, 29310, Note_on_c, 9, 40, 0
11, 29400, Note_on_c, 9, 70, 52
11, 29430, Note_on_c, 9, 70, 0
11, 29520, Note_on_c, 9, 42, 115
11, 29520, Note_on_c, 9, 69, 46
11, 29520, Note_on_c, 9, 70, 71
11, 29550, Note_on_c, 9, 70, 0
11, 29550, Note_on_c, 9, 69, 0
11, 29550, Note_on_c, 9, 42, 0
11, 29640, Note_on_c, 9, 36, 105
11, 29670, Note_on_c, 9, 36, 0
11, 29760, Note_on_c, 9, 42, 61
11, 29790, Note_on_c, 9, 42, 0
11, 29880, Note_on_c, 9, 70, 51
11, 29910, Note_on_c, 9, 70, 0
11, 30000, Note_on_c, 9, 36, 113
11, 30000, Note_on_c, 9, 42, 115
11, 30000, Note_on_c, 9, 69, 46
11, 30000, Note_on_c, 9, 70, 57
11, 30030, Note_on_c, 9, 70, 0
11, 30030, Note_on_c, 9, 36, 0
11, 30030, Note_on_c, 9, 42, 0
11, 30030, Note_on_c, 9, 69, 0
11, 30240, Note_on_c, 9, 40, 103
11, 30240, Note_on_c, 9, 42, 78
11, 30270, Note_on_c, 9, 42, 0
11, 30270, Note_on_c, 9, 40, 0
11, 30360, Note_on_c, 9, 36, 119
11, 30360, Note_on_c, 9, 46, 82
11, 30360, Note_on_c, 9, 70, 51
11, 30390, Note_on_c, 9, 70, 0
11, 30390, Note_on_c, 9, 46, 0
11, 30390, Note_on_c, 9, 36, 0
11, 30480, Note_on_c, 9, 42, 69
11, 30480, Note_on_c, 9, 69, 45
11, 30480, Note_on_c, 9, 70, 65
11, 30510, Note_on_c, 9, 70, 0
11, 30510, Note_on_c, 9, 69, 0
11, 30510, Note_on_c, 9, 42, 0
11, 30720, Note_on_c, 9, 42, 109
11, 30750, Note_on_c, 9, 42, 0
11, 30840, Note_on_c, 9, 70, 47
11, 30870, Note_on_c, 9, 70, 0
11, 30960, Note_on_c, 9, 36, 109
11, 30960, Note_on_c, 9, 42, 96
11, 30960, Note_on_c, 9, 69, 43
11, 30960, Note_on_c, 9, 70, 59
11, 30990, Note_on_c, 9, 70, 0
11, 30990, Note_on_c, 9, 36, 0
11, 30990, Note_on_c, 9, 42, 0
11, 30990, Note_on_c, 9, 69, 0
11, 31080, Note_on_c, 9, 36, 91
11, 31110, Note_on_c, 9, 36, 0
11, 31200, Note_on_c, 9, 40, 118
11, 31200, Note_on_c, 9, 42, 64
11, 31230, Note_on_c, 9, 42, 0
11, 31230, Note_on_c, 9, 40, 0
11, 31320, Note_on_c, 9, 70, 48
11, 31350, Note_on_c, 9, 70, 0
11, 31440, Note_on_c, 9, 42, 112
11, 31440, Note_on_c, 9, 69, 41
11, 31440, Note_on_c, 9, 70, 49
11, 31470, Note_on_c, 9, 70, 0
11, 31470, Note_on_c, 9, 69, 0
11, 31470, Note_on_c, 9, 42, 0
11, 31560, Note_on_c, 9, 40, 121
11, 31590, Note_on_c, 9, 40, 0
11, 31680, Note_on_c, 9, 36, 92
11, 31680, Note_on_c, 9, 42, 78
11, 31710, Note_on_c, 9, 42, 0
11, 31710, Note_on_c, 9, 36, 0
11, 31800, Note_on_c, 9, 70, 52
11, 31830, Note_on_c, 9, 70, 0
11, 31920, Note_on_c, 9, 42, 99
11, 31920, Note_on_c, 9, 69, 48
11, 31920, Note_on_c, 9, 70, 41
11, 31950, Note_on_c, 9, 70, 0
11, 31950, Note_on_c, 9, 69, 0
11, 31950, Note_on_c, 9, 42, 0
11, 32040, Note_on_c, 9, 36, 113
11, 32040, Note_on_c, 9, 46, 80
11, 32070, Note_on_c, 9, 46, 0
11, 32070, Note_on_c, 9, 36, 0
11, 32160, Note_on_c, 9, 42, 96
11, 32190, Note_on_c, 9, 42, 0
11, 32280, Note_on_c, 9, 40, 118
11, 32280, Note_on_c, 9, 70, 49
11, 32310, Note_on_c, 9, 70, 0
11, 32310, Note_on_c, 9, 40, 0
11, 32400, Note_on_c, 9, 40, 100
11, 32400, Note_on_c, 9, 42, 88
11, 32400, Note_on_c, 9, 69, 50
11, 32400, Note_on_c, 9, 70, 53
11, 32430, Note_on_c, 9, 70, 0
11, 32430, Note_on_c, 9, 40, 0
11, 32430, Note_on_c, 9, 42, 0
11, 32430, Note_on_c, 9, 69, 0
11, 32520, Note_on_c, 9, 40, 115
11, 32550, Note_on_c, 9, 40, 0
11, 32640, Note_on_c, 9, 36, 116
11, 32640, Note_on_c, 9, 42, 78
11, 32670, Note_on_c, 9, 42, 0
11, 32670, Note_on_c, 9, 36, 0
11, 32760, Note_on_c, 9, 70, 48
11, 32790, Note_on_c, 9, 70, 0
11, 32880, Note_on_c, 9, 36, 116
11, 32880, Note_on_c, 9, 42, 112
11, 32880, Note_on_c, 9, 69, 47
11, 32880, Note_on_c, 9, 70, 48
11, 32910, Note_on_c, 9, 70, 0
11, 32910, Note_on_c, 9, 36, 0
11, 32910, Note_on_c, 9, 42, 0
11, 32910, Note_on_c, 9, 69, 0
11, 33120, Note_on_c, 9, 40, 123
11, 33120, Note_on_c, 9, 42, 88
11, 33150, Note_on_c, 9, 42, 0
11, 33150, Note_on_c, 9, 40, 0
11, 33240, Note_on_c, 9, 70, 46
11, 33270, Note_on_c, 9, 70, 0
11, 33360, Note_on_c, 9, 42, 121
11, 33360, Note_on_c, 9, 69, 50
11, 33360, Note_on_c, 9, 70, 48
11, 33390, Note_on_c, 9, 70, 0
11, 33390, Note_on_c, 9, 69, 0
11, 33390, Note_on_c, 9, 42, 0
11, 33480, Note_on_c, 9, 40, 91
11, 33510, Note_on_c, 9, 40, 0
11, 33600, Note_on_c, 9, 42, 58
11, 33630, Note_on_c, 9, 42, 0
11, 33720, Note_on_c, 9, 36, 105
11, 33720, Note_on_c, 9, 70, 48
11, 33750, Note_on_c, 9, 70, 0
11, 33750, Note_on_c, 9, 36, 0
11, 33840, Note_on_c, 9, 40, 103
11, 33840, Note_on_c, 9, 42, 115
11, 33840, Note_on_c, 9, 69, 49
11, 33840, Note_on_c, 9, 70, 73
11, 33870, Note_on_c, 9, 70, 0
11, 33870, Note_on_c, 9, 40, 0
11, 33870, Note_on_c, 9, 42, 0
11, 33870, Note_on_c, 9, 69, 0
11, 34080, Note_on_c, 9, 42, 60
11, 34110, Note_on_c, 9, 42, 0
11, 34200, Note_on_c, 9, 40, 86
11, 34200, Note_on_c, 9, 70, 43
11, 34230, Note_on_c, 9, 70, 0
11, 34230, Note_on_c, 9, 40, 0
11, 34320, Note_on_c, 9, 36, 91
11, 34320, Note_on_c, 9, 42, 112
11, 34320, Note_on_c, 9, 69, 45
11, 34320, Note_on_c, 9, 70, 67
11, 34350, Note_on_c, 9, 70, 0
11, 34350, Note_on_c, 9, 36, 0
11, 34350, Note_on_c, 9, 42, 0
11, 34350, Note_on_c, 9, 69, 0
11, 34560, Note_on_c, 9, 36, 113
11, 34560, Note_on_c, 9, 42, 59
11, 34590, Note_on_c, 9, 42, 0
11, 34590, Note_on_c, 9, 36, 0
11, 34680, Note_on_c, 9, 70, 40
11, 34710, Note_on_c, 9, 70, 0
11, 34800, Note_on_c, 9, 36, 113
11, 34800, Note_on_c, 9, 42, 115
11, 34800, Note_on_c, 9, 69, 51
11, 34800, Note_on_c, 9, 70, 71
11, 34830, Note_on_c, 9, 70, 0
11, 34830, Note_on_c, 9, 36, 0
11, 34830, Note_on_c, 9, 42, 0
11, 34830, Note_on_c, 9, 69, 0
11, 35040, Note_on_c, 9, 40, 103
11, 35040, Note_on_c, 9, 42, 61
11, 35070, Note_on_c, 9, 42, 0
11, 35070, Note_on_c, 9, 40, 0
11, 35160, Note_on_c, 9, 70, 47
11, 35190, Note_on_c, 9, 70, 0
11, 35280, Note_on_c, 9, 42, 113
11, 35280, Note_on_c, 9, 69, 50
11, 35280, Note_on_c, 9, 70, 53
11, 35310, Note_on_c, 9, 70, 0
11, 35310, Note_on_c, 9, 69, 0
11, 35310, Note_on_c, 9, 42, 0
11, 35400, Note_on_c, 9, 40, 113
11, 35430, Note_on_c, 9, 40, 0
11, 35520, Note_on_c, 9, 42, 58
11, 35550, Note_on_c, 9, 42, 0
11, 35640, Note_on_c, 9, 36, 98
11, 35640, Note_on_c, 9, 70, 48
11, 35670, Note_on_c, 9, 70, 0
11, 35670, Note_on_c, 9, 36, 0
11, 35760, Note_on_c, 9, 40, 100
11, 35760, Note_on_c, 9, 42, 113
11, 35760, Note_on_c, 9, 69, 53
11, 35760, Note_on_c, 9, 70, 64
11, 35790, Note_on_c, 9, 70, 0
11, 35790, Note_on_c, 9, 40, 0
11, 35790, Note_on_c, 9, 42, 0
11, 35790, Note_on_c, 9, 69, 0
11, 36000, Note_on_c, 9, 42, 63
11, 36030, Note_on_c, 9, 42, 0
11, 36120, Note_on_c, 9, 40, 102
11, 36120, Note_on_c, 9, 70, 47
11, 36150, Note_on_c, 9, 70, 0
11, 36150, Note_on_c, 9, 40, 0
11, 36240, Note_on_c, 9, 40, 115
11, 36240, Note_on_c, 9, 42, 113
11, 36240, Note_on_c, 9, 69, 50
11, 36240, Note_on_c, 9, 70, 50
11, 36270, Note_on_c, 9, 70, 0
11, 36270, Note_on_c, 9, 40, 0
11, 36270, Note_on_c, 9, 42, 0
11, 36270, Note_on_c, 9, 69, 0
11, 36360, Note_on_c, 9, 40, 121
11, 36390, Note_on_c, 9, 40, 0
11, 36480, Note_on_c, 9, 36, 100
11, 36480, Note_on_c, 9, 42, 76
11, 36510, Note_on_c, 9, 42, 0
11, 36510, Note_on_c, 9, 36, 0
11, 36600, Note_on_c, 9, 46, 70
11, 36600, Note_on_c, 9, 70, 48
11, 36630, Note_on_c, 9, 70, 0
11, 36630, Note_on_c, 9, 46, 0
11, 36720, Note_on_c, 9, 36, 122
11, 36720, Note_on_c, 9, 42, 77
11, 36720, Note_on_c, 9, 69, 53
11, 36720, Note_on_c, 9, 70, 53
11, 36750, Note_on_c, 9, 70, 0
11, 36750, Note_on_c, 9, 36, 0
11, 36750, Note_on_c, 9, 42, 0
11, 36750, Note_on_c, 9, 69, 0
11, 36960, Note_on_c, 9, 40, 113
11, 36960, Note_on_c, 9, 42, 94
11, 36990, Note_on_c, 9, 42, 0
11, 36990, Note_on_c, 9, 40, 0
11, 37080, Note_on_c, 9, 70, 47
11, 37110, Note_on_c, 9, 70, 0
11, 37200, Note_on_c, 9, 42, 109
11, 37200, Note_on_c, 9, 69, 52
11, 37200, Note_on_c, 9, 70, 62
11, 37230, Note_on_c, 9, 70, 0
11, 37230, Note_on_c, 9, 69, 0
11, 37230, Note_on_c, 9, 42, 0
11, 37320, Note_on_c, 9, 40, 105
11, 37350, Note_on_c, 9, 40, 0
11, 37440, Note_on_c, 9, 42, 64
11, 37470, Note_on_c, 9, 42, 0
11, 37560, Note_on_c, 9, 36, 92
11, 37560, Note_on_c, 9, 70, 46
11, 37590, Note_on_c, 9, 70, 0
11, 37590, Note_on_c, 9, 36, 0
11, 37680, Note_on_c, 9, 40, 100
11, 37680, Note_on_c, 9, 42, 121
11, 37680, Note_on_c, 9, 69, 51
11, 37680, Note_on_c, 9, 70, 74
11, 37710, Note_on_c, 9, 70, 0
11, 37710, Note_on_c, 9, 40, 0
11, 37710, Note_on_c, 9, 42, 0
11, 37710, Note_on_c, 9, 69, 0
11, 37920, Note_on_c, 9, 42, 63
11, 37950, Note_on_c, 9, 42, 0
11, 38040, Note_on_c, 9, 40, 113
11, 38040, Note_on_c, 9, 46, 66
11, 38040, Note_on_c, 9, 70, 51
11, 38070, Note_on_c, 9, 70, 0
11, 38070, Note_on_c, 9, 46, 0
11, 38070, Note_on_c, 9, 40, 0
11, 38160, Note_on_c, 9, 36, 91
11, 38160, Note_on_c, 9, 42, 105
11, 38160, Note_on_c, 9, 69, 52
11, 38160, Note_on_c, 9, 70, 69
11, 38190, Note_on_c, 9, 70, 0
11, 38190, Note_on_c, 9, 36, 0
11, 38190, Note_on_c, 9, 42, 0
11, 38190, Note_on_c, 9, 69, 0
11, 38400, Note_on_c, 9, 36, 113
11, 38400, Note_on_c, 9, 42, 94
11, 38430, Note_on_c, 9, 42, 0
11, 38430, Note_on_c, 9, 36, 0
11, 38520, Note_on_c, 9, 70, 52
11, 38550, Note_on_c, 9, 70, 0
11, 38640, Note_on_c, 9, 36, 105
11, 38640, Note_on_c, 9, 42, 115
11, 38640, Note_on_c, 9, 69, 46
11, 38640, Note_on_c, 9, 70, 42
11, 38670, Note_on_c, 9, 70, 0
11, 38670, Note_on_c, 9, 36, 0
11, 38670, Note_on_c, 9, 42, 0
11, 38670, Note_on_c, 9, 69, 0
11, 38880, Note_on_c, 9, 40, 116
11, 38880, Note_on_c, 9, 42, 62
11, 38910, Note_on_c, 9, 42, 0
11, 38910, Note_on_c, 9, 40, 0
11, 39000, Note_on_c, 9, 70, 50
11, 39030, Note_on_c, 9, 70, 0
11, 39120, Note_on_c, 9, 42, 109
11, 39120, Note_on_c, 9, 69, 47
11, 39120, Note_on_c, 9, 70, 46
11, 39150, Note_on_c, 9, 70, 0
11, 39150, Note_on_c, 9, 69, 0
11, 39150, Note_on_c, 9, 42, 0
11, 39240, Note_on_c, 9, 40, 113
11, 39270, Note_on_c, 9, 40, 0
11, 39360, Note_on_c, 9, 42, 49
11, 39390, Note_on_c, 9, 42, 0
11, 39480, Note_on_c, 9, 36, 90
11, 39480, Note_on_c, 9, 70, 47
11, 39510, Note_on_c, 9, 70, 0
11, 39510, Note_on_c, 9, 36, 0
11, 39600, Note_on_c, 9, 40, 112
11, 39600, Note_on_c, 9, 42, 118
11, 39600, Note_on_c, 9, 69, 42
11, 39600, Note_on_c, 9, 70, 48
11, 39630, Note_on_c, 9, 70, 0
11, 39630, Note_on_c, 9, 40, 0
11, 39630, Note_on_c, 9, 42, 0
11, 39630, Note_on_c, 9, 69, 0
11, 39840, Note_on_c, 9, 42, 61
11, 39870, Note_on_c, 9, 42, 0
11, 39960, Note_on_c, 9, 40, 115
11, 39960, Note_on_c, 9, 70, 47
11, 39990, Note_on_c, 9, 70, 0
11, 39990, Note_on_c, 9, 40, 0
11, 40080, Note_on_c, 9, 36, 88
11, 40080, Note_on_c, 9, 42, 112
11, 40080, Note_on_c, 9, 69, 47
11, 40080, Note_on_c, 9, 70, 52
11, 40110, Note_on_c, 9, 70, 0
11, 40110, Note_on_c, 9, 36, 0
11, 40110, Note_on_c, 9, 42, 0
11, 40110, Note_on_c, 9, 69, 0
11, 40320, Note_on_c, 9, 36, 113
11, 40320, Note_on_c, 9, 42, 94
11, 40350, Note_on_c, 9, 42, 0
11, 40350, Note_on_c, 9, 36, 0
11, 40440, Note_on_c, 9, 70, 52
11, 40470, Note_on_c, 9, 70, 0
11, 40560, Note_on_c, 9, 36, 105
11, 40560, Note_on_c, 9, 42, 115
11, 40560, Note_on_c, 9, 69, 46
11, 40560, Note_on_c, 9, 70, 42
11, 40590, Note_on_c, 9, 70, 0
11, 40590, Note_on_c, 9, 36, 0
11, 40590, Note_on_c, 9, 42, 0
11, 40590, Note_on_c, 9, 69, 0
11, 40800, Note_on_c, 9, 40, 116
11, 40800, Note_on_c, 9, 42, 62
11, 40830, Note_on_c, 9, 42, 0
11, 40830, Note_on_c, 9, 40, 0
11, 40920, Note_on_c, 9, 70, 50
11, 40950, Note_on_c, 9, 70, 0
11, 41040, Note_on_c, 9, 42, 109
11, 41040, Note_on_c, 9, 69, 47
11, 41040, Note_on_c, 9, 70, 46
11, 41070, Note_on_c, 9, 70, 0
11, 41070, Note_on_c, 9, 69, 0
11, 41070, Note_on_c, 9, 42, 0
11, 41160, Note_on_c, 9, 40, 113
11, 41190, Note_on_c, 9, 40, 0
11, 41280, Note_on_c, 9, 42, 49
11, 41310, Note_on_c, 9, 42, 0
11, 41400, Note_on_c, 9, 36, 90
11, 41400, Note_on_c, 9, 70, 47
11, 41430, Note_on_c, 9, 70, 0
11, 41430, Note_on_c, 9, 36, 0
11, 41520, Note_on_c, 9, 40, 112
11, 41520, Note_on_c, 9, 42, 118
11, 41520, Note_on_c, 9, 69, 42
11, 41520, Note_on_c, 9, 70, 48
11, 41550, Note_on_c, 9, 70, 0
11, 41550, Note_on_c, 9, 40, 0
11, 41550, Note_on_c, 9, 42, 0
11, 41550, Note_on_c, 9, 69, 0
11, 41760, Note_on_c, 9, 42, 61
11, 41790, Note_on_c, 9, 42, 0
11, 41880, Note_on_c, 9, 40, 115
11, 41880, Note_on_c, 9, 70, 47
11, 41910, Note_on_c, 9, 70, 0
11, 41910, Note_on_c, 9, 40, 0
11, 42000, Note_on_c, 9, 36, 88
11, 42000, Note_on_c, 9, 42, 112
11, 42000, Note_on_c, 9, 69, 47
11, 42000, Note_on_c, 9, 70, 52
11, 42030, Note_on_c, 9, 70, 0
11, 42030, Note_on_c, 9, 36, 0
11, 42030, Note_on_c, 9, 42, 0
11, 42030, Note_on_c, 9, 69, 0
11, 42240, Note_on_c, 9, 36, 98
11, 42240, Note_on_c, 9, 42, 69
11, 42270, Note_on_c, 9, 42, 0
11, 42270, Note_on_c, 9, 36, 0
11, 42360, Note_on_c, 9, 70, 47
11, 42390, Note_on_c, 9, 70, 0
11, 42480, Note_on_c, 9, 36, 100
11, 42480, Note_on_c, 9, 42, 115
11, 42480, Note_on_c, 9, 69, 48
11, 42480, Note_on_c, 9, 70, 33
11, 42510, Note_on_c, 9, 70, 0
11, 42510, Note_on_c, 9, 36, 0
11, 42510, Note_on_c, 9, 42, 0
11, 42510, Note_on_c, 9, 69, 0
11, 42720, Note_on_c, 9, 40, 111
11, 42720, Note_on_c, 9, 42, 76
11, 42750, Note_on_c, 9, 42, 0
11, 42750, Note_on_c, 9, 40, 0
11, 42840, Note_on_c, 9, 70, 44
11, 42870, Note_on_c, 9, 70, 0
11, 42960, Note_on_c, 9, 42, 112
11, 42960, Note_on_c, 9, 69, 51
11, 42960, Note_on_c, 9, 70, 59
11, 42990, Note_on_c, 9, 70, 0
11, 42990, Note_on_c, 9, 69, 0
11, 42990, Note_on_c, 9, 42, 0
11, 43080, Note_on_c, 9, 40, 113
11, 43110, Note_on_c, 9, 40, 0
11, 43200, Note_on_c, 9, 42, 59
11, 43230, Note_on_c, 9, 42, 0
11, 43320, Note_on_c, 9, 36, 98
11, 43320, Note_on_c, 9, 70, 47
11, 43350, Note_on_c, 9, 70, 0
11, 43350, Note_on_c, 9, 36, 0
11, 43440, Note_on_c, 9, 40, 116
11, 43440, Note_on_c, 9, 42, 115
11, 43440, Note_on_c, 9, 69, 50
11, 43440, Note_on_c, 9, 70, 65
11, 43470, Note_on_c, 9, 70, 0
11, 43470, Note_on_c, 9, 40, 0
11, 43470, Note_on_c, 9, 42, 0
11, 43470, Note_on_c, 9, 69, 0
11, 43560, Note_on_c, 9, 46, 82
11, 43590, Note_on_c, 9, 46, 0
11, 43680, Note_on_c, 9, 42, 60
11, 43710, Note_on_c, 9, 42, 0
11, 43800, Note_on_c, 9, 40, 117
11, 43800, Note_on_c, 9, 49, 82
11, 43800, Note_on_c, 9, 70, 51
11, 43830, Note_on_c, 9, 70, 0
11, 43830, Note_on_c, 9, 49, 0
11, 43830, Note_on_c, 9, 40, 0
11, 43920, Note_on_c, 9, 36, 91
11, 43920, Note_on_c, 9, 42, 113
11, 43920, Note_on_c, 9, 69, 50
11, 43920, Note_on_c, 9, 70, 47
11, 43950, Note_on_c, 9, 70, 0
11, 43950, Note_on_c, 9, 36, 0
11, 43950, Note_on_c, 9, 42, 0
11, 43950, Note_on_c, 9, 69, 0
11, 44160, Note_on_c, 9, 36, 116
11, 44160, Note_on_c, 9, 42, 59
11, 44190, Note_on_c, 9, 42, 0
11, 44190, Note_on_c, 9, 36, 0
11, 44280, Note_on_c, 9, 70, 53
11, 44310, Note_on_c, 9, 70, 0
11, 44400, Note_on_c, 9, 36, 109
11, 44400, Note_on_c, 9, 42, 109
11, 44400, Note_on_c, 9, 69, 46
11, 44400, Note_on_c, 9, 70, 55
11, 44430, Note_on_c, 9, 70, 0
11, 44430, Note_on_c, 9, 36, 0
11, 44430, Note_on_c, 9, 42, 0
11, 44430, Note_on_c, 9, 69, 0
11, 44640, Note_on_c, 9, 40, 105
11, 44640, Note_on_c, 9, 42, 63
11, 44670, Note_on_c, 9, 42, 0
11, 44670, Note_on_c, 9, 40, 0
11, 44760, Note_on_c, 9, 70, 52
11, 44790, Note_on_c, 9, 70, 0
11, 44880, Note_on_c, 9, 42, 115
11, 44880, Note_on_c, 9, 69, 46
11, 44880, Note_on_c, 9, 70, 71
11, 44910, Note_on_c, 9, 70, 0
11, 44910, Note_on_c, 9, 69, 0
11, 44910, Note_on_c, 9, 42, 0
11, 45000, Note_on_c, 9, 36, 105
11, 45030, Note_on_c, 9, 36, 0
11, 45120, Note_on_c, 9, 42, 61
11, 45150, Note_on_c, 9, 42, 0
11, 45240, Note_on_c, 9, 70, 51
11, 45270, Note_on_c, 9, 70, 0
11, 45360, Note_on_c, 9, 36, 113
11, 45360, Note_on_c, 9, 42, 115
11, 45360, Note_on_c, 9, 69, 46
11, 45360, Note_on_c, 9, 70, 57
11, 45390, Note_on_c, 9, 70, 0
11, 45390, Note_on_c, 9, 36, 0
11, 45390, Note_on_c, 9, 42, 0
11, 45390, Note_on_c, 9, 69, 0
11, 45600, Note_on_c, 9, 40, 103
11, 45600, Note_on_c, 9, 42, 78
11, 45630, Note_on_c, 9, 42, 0
11, 45630, Note_on_c, 9, 40, 0
11, 45720, Note_on_c, 9, 36, 119
11, 45720, Note_on_c, 9, 46, 82
11, 45720, Note_on_c, 9, 70, 51
11, 45750, Note_on_c, 9, 70, 0
11, 45750, Note_on_c, 9, 46, 0
11, 45750, Note_on_c, 9, 36, 0
11, 45840, Note_on_c, 9, 42, 69
11, 45840, Note_on_c, 9, 69, 45
11, 45840, Note_on_c, 9, 70, 65
11, 45870, Note_on_c, 9, 70, 0
11, 45870, Note_on_c, 9, 69, 0
11, 45870, Note_on_c, 9, 42, 0
11, 46080, Note_on_c, 9, 42, 109
11, 46110, Note_on_c, 9, 42, 0
11, 46200, Note_on_c, 9, 70, 47
11, 46230, Note_on_c, 9, 70, 0
11, 46320, Note_on_c, 9, 36, 109
11, 46320, Note_on_c, 9, 42, 96
11, 46320, Note_on_c, 9, 69, 43
11, 46320, Note_on_c, 9, 70, 59
11, 46350, Note_on_c, 9, 70, 0
11, 46350, Note_on_c, 9, 36, 0
11, 46350, Note_on_c, 9, 42, 0
11, 46350, Note_on_c, 9, 69, 0
11, 46440, Note_on_c, 9, 36, 91
11, 46470, Note_on_c, 9, 36, 0
11, 46560, Note_on_c, 9, 40, 118
11, 46560, Note_on_c, 9, 42, 64
11, 46590, Note_on_c, 9, 42, 0
11, 46590, Note_on_c, 9, 40, 0
11, 46680, Note_on_c, 9, 70, 48
11, 46710, Note_on_c, 9, 70, 0
11, 46800, Note_on_c, 9, 42, 112
11, 46800, Note_on_c, 9, 69, 41
11, 46800, Note_on_c, 9, 70, 49
11, 46830, Note_on_c, 9, 70, 0
11, 46830, Note_on_c, 9, 69, 0
11, 46830, Note_on_c, 9, 42, 0
11, 46920, Note_on_c, 9, 40, 121
11, 46950, Note_on_c, 9, 40, 0
11, 47040, Note_on_c, 9, 36, 92
11, 47040, Note_on_c, 9, 42, 78
11, 47070, Note_on_c, 9, 42, 0
11, 47070, Note_on_c, 9, 36, 0
11, 47160, Note_on_c, 9, 70, 52
11, 47190, Note_on_c, 9, 70, 0
11, 47280, Note_on_c, 9, 42, 99
11, 47280, Note_on_c, 9, 69, 48
11, 47280, Note_on_c, 9, 70, 41
11, 47310, Note_on_c, 9, 70, 0
11, 47310, Note_on_c, 9, 69, 0
11, 47310, Note_on_c, 9, 42, 0
11, 47400, Note_on_c, 9, 36, 113
11, 47400, Note_on_c, 9, 46, 80
11, 47430, Note_on_c, 9, 46, 0
11, 47430, Note_on_c, 9, 36, 0
11, 47520, Note_on_c, 9, 42, 96
11, 47550, Note_on_c, 9, 42, 0
11, 47640, Note_on_c, 9, 40, 118
11, 47640, Note_on_c, 9, 70, 49
11, 47670, Note_on_c, 9, 70, 0
11, 47670, Note_on_c, 9, 40, 0
11, 47760, Note_on_c, 9, 40, 100
11, 47760, Note_on_c, 9, 42, 88
11, 47760, Note_on_c, 9, 69, 50
11, 47760, Note_on_c, 9, 70, 53
11, 47790, Note_on_c, 9, 70, 0
11, 47790, Note_on_c, 9, 40, 0
11, 47790, Note_on_c, 9, 42, 0
11, 47790, Note_on_c, 9, 69, 0
11, 47880, Note_on_c, 9, 40, 115
11, 47910, Note_on_c, 9, 40, 0
11, 48000, Note_on_c, 9, 36, 116
11, 48000, Note_on_c, 9, 42, 78
11, 48030, Note_on_c, 9, 42, 0
11, 48030, Note_on_c, 9, 36, 0
11, 48120, Note_on_c, 9, 70, 48
11, 48150, Note_on_c, 9, 70, 0
11, 48240, Note_on_c, 9, 36, 116
11, 48240, Note_on_c, 9, 42, 112
11, 48240, Note_on_c, 9, 69, 47
11, 48240, Note_on_c, 9, 70, 48
11, 48270, Note_on_c, 9, 70, 0
11, 48270, Note_on_c, 9, 36, 0
11, 48270, Note_on_c, 9, 42, 0
11, 48270, Note_on_c, 9, 69, 0
11, 48480, Note_on_c, 9, 40, 123
11, 48480, Note_on_c, 9, 42, 88
11, 48510, Note_on_c, 9, 42, 0
11, 48510, Note_on_c, 9, 40, 0
11, 48600, Note_on_c, 9, 70, 46
11, 48630, Note_on_c, 9, 70, 0
11, 48720, Note_on_c, 9, 42, 121
11, 48720, Note_on_c, 9, 69, 50
11, 48720, Note_on_c, 9, 70, 48
11, 48750, Note_on_c, 9, 70, 0
11, 48750, Note_on_c, 9, 69, 0
11, 48750, Note_on_c, 9, 42, 0
11, 48840, Note_on_c, 9, 40, 91
11, 48870, Note_on_c, 9, 40, 0
11, 48960, Note_on_c, 9, 42, 58
11, 48990, Note_on_c, 9, 42, 0
11, 49080, Note_on_c, 9, 36, 105
11, 49080, Note_on_c, 9, 70, 48
11, 49110, Note_on_c, 9, 70, 0
11, 49110, Note_on_c, 9, 36, 0
11, 49200, Note_on_c, 9, 40, 103
11, 49200, Note_on_c, 9, 42, 115
11, 49200, Note_on_c, 9, 69, 49
11, 49200, Note_on_c, 9, 70, 73
11, 49230, Note_on_c, 9, 70, 0
11, 49230, Note_on_c, 9, 40, 0
11, 49230, Note_on_c, 9, 42, 0
11, 49230, Note_on_c, 9, 69, 0
11, 49440, Note_on_c, 9, 42, 60
11, 49470, Note_on_c, 9, 42, 0
11, 49560, Note_on_c, 9, 40, 86
11, 49560, Note_on_c, 9, 70, 43
11, 49590, Note_on_c, 9, 70, 0
11, 49590, Note_on_c, 9, 40, 0
11, 49680, Note_on_c, 9, 36, 91
11, 49680, Note_on_c, 9, 42, 112
11, 49680, Note_on_c, 9, 69, 45
11, 49680, Note_on_c, 9, 70, 67
11, 49710, Note_on_c, 9, 70, 0
11, 49710, Note_on_c, 9, 36, 0
11, 49710, Note_on_c, 9, 42, 0
11, 49710, Note_on_c, 9, 69, 0
11, 49920, Note_on_c, 9, 36, 113
11, 49920, Note_on_c, 9, 42, 59
11, 49950, Note_on_c, 9, 42, 0
11, 49950, Note_on_c, 9, 36, 0
11, 50040, Note_on_c, 9, 70, 40
11, 50070, Note_on_c, 9, 70, 0
11, 50160, Note_on_c, 9, 36, 113
11, 50160, Note_on_c, 9, 42, 115
11, 50160, Note_on_c, 9, 69, 51
11, 50160, Note_on_c, 9, 70, 71
11, 50190, Note_on_c, 9, 70, 0
11, 50190, Note_on_c, 9, 36, 0
11, 50190, Note_on_c, 9, 42, 0
11, 50190, Note_on_c, 9, 69, 0
11, 50400, Note_on_c, 9, 40, 103
11, 50400, Note_on_c, 9, 42, 61
11, 50430, Note_on_c, 9, 42, 0
11, 50430, Note_on_c, 9, 40, 0
11, 50520, Note_on_c, 9, 70, 47
11, 50550, Note_on_c, 9, 70, 0
11, 50640, Note_on_c, 9, 42, 113
11, 50640, Note_on_c, 9, 69, 50
11, 50640, Note_on_c, 9, 70, 53
11, 50670, Note_on_c, 9, 70, 0
11, 50670, Note_on_c, 9, 69, 0
11, 50670, Note_on_c, 9, 42, 0
11, 50760, Note_on_c, 9, 40, 113
11, 50790, Note_on_c, 9, 40, 0
11, 50880, Note_on_c, 9, 42, 58
11, 50910, Note_on_c, 9, 42, 0
11, 51000, Note_on_c, 9, 36, 98
11, 51000, Note_on_c, 9, 70, 48
11, 51030, Note_on_c, 9, 70, 0
11, 51030, Note_on_c, 9, 36, 0
11, 51120, Note_on_c, 9, 40, 100
11, 51120, Note_on_c, 9, 42, 113
11, 51120, Note_on_c, 9, 69, 53
11, 51120, Note_on_c, 9, 70, 64
11, 51150, Note_on_c, 9, 70, 0
11, 51150, Note_on_c, 9, 40, 0
11, 51150, Note_on_c, 9, 42, 0
11, 51150, Note_on_c, 9, 69, 0
11, 51360, Note_on_c, 9, 42, 63
11, 51390, Note_on_c, 9, 42, 0
11, 51480, Note_on_c, 9, 40, 102
11, 51480, Note_on_c, 9, 70, 47
11, 51510, Note_on_c, 9, 70, 0
11, 51510, Note_on_c, 9, 40, 0
11, 51600, Note_on_c, 9, 40, 115
11, 51600, Note_on_c, 9, 42, 113
11, 51600, Note_on_c, 9, 69, 50
11, 51600, Note_on_c, 9, 70, 50
11, 51630, Note_on_c, 9, 70, 0
11, 51630, Note_on_c, 9, 40, 0
11, 51630, Note_on_c, 9, 42, 0
11, 51630, Note_on_c, 9, 69, 0
11, 51720, Note_on_c, 9, 40, 121
11, 51750, Note_on_c, 9, 40, 0
11, 51840, Note_on_c, 9, 36, 100
11, 51840, Note_on_c, 9, 42, 76
11, 51870, Note_on_c, 9, 42, 0
11, 51870, Note_on_c, 9, 36, 0
11, 51960, Note_on_c, 9, 46, 70
11, 51960, Note_on_c, 9, 70, 48
11, 51990, Note_on_c, 9, 70, 0
11, 51990, Note_on_c, 9, 46, 0
11, 52080, Note_on_c, 9, 36, 122
11, 52080, Note_on_c, 9, 42, 77
11, 52080, Note_on_c, 9, 69, 53
11, 52080, Note_on_c, 9, 70, 53
11, 52110, Note_on_c, 9, 70, 0
11, 52110, Note_on_c, 9, 36, 0
11, 52110, Note_on_c, 9, 42, 0
11, 52110, Note_on_c, 9, 69, 0
11, 52320, Note_on_c, 9, 40, 113
11, 52320, Note_on_c, 9, 42, 94
11, 52350, Note_on_c, 9, 42, 0
11, 52350, Note_on_c, 9, 40, 0
11, 52440, Note_on_c, 9, 70, 47
11, 52470, Note_on_c, 9, 70, 0
11, 52560, Note_on_c, 9, 42, 109
11, 52560, Note_on_c, 9, 69, 52
11, 52560, Note_on_c, 9, 70, 62
11, 52590, Note_on_c, 9, 70, 0
11, 52590, Note_on_c, 9, 69, 0
11, 52590, Note_on_c, 9, 42, 0
11, 52680, Note_on_c, 9, 40, 105
11, 52710, Note_on_c, 9, 40, 0
11, 52800, Note_on_c, 9, 42, 64
11, 52830, Note_on_c, 9, 42, 0
11, 52920, Note_on_c, 9, 36, 92
11, 52920, Note_on_c, 9, 70, 46
11, 52950, Note_on_c, 9, 70, 0
11, 52950, Note_on_c, 9, 36, 0
11, 53040, Note_on_c, 9, 40, 100
11, 53040, Note_on_c, 9, 42, 121
11, 53040, Note_on_c, 9, 69, 51
11, 53040, Note_on_c, 9, 70, 74
11, 53070, Note_on_c, 9, 70, 0
11, 53070, Note_on_c, 9, 40, 0
11, 53070, Note_on_c, 9, 42, 0
11, 53070, Note_on_c, 9, 69, 0
11, 53280, Note_on_c, 9, 42, 63
11, 53310, Note_on_c, 9, 42, 0
11, 53400, Note_on_c, 9, 40, 113
11, 53400, Note_on_c, 9, 46, 66
11, 53400, Note_on_c, 9, 70, 51
11, 53430, Note_on_c, 9, 70, 0
11, 53430, Note_on_c, 9, 46, 0
11, 53430, Note_on_c, 9, 40, 0
11, 53520, Note_on_c, 9, 36, 91
11, 53520, Note_on_c, 9, 42, 105
11, 53520, Note_on_c, 9, 69, 52
11, 53520, Note_on_c, 9, 70, 69
11, 53550, Note_on_c, 9, 70, 0
11, 53550, Note_on_c, 9, 36, 0
11, 53550, Note_on_c, 9, 42, 0
11, 53550, Note_on_c, 9, 69, 0
11, 53760, Note_on_c, 9, 36, 113
11, 53760, Note_on_c, 9, 42, 94
11, 53790, Note_on_c, 9, 42, 0
11, 53790, Note_on_c, 9, 36, 0
11, 53880, Note_on_c, 9, 70, 52
11, 53910, Note_on_c, 9, 70, 0
11, 54000, Note_on_c, 9, 36, 105
11, 54000, Note_on_c, 9, 42, 115
11, 54000, Note_on_c, 9, 69, 46
11, 54000, Note_on_c, 9, 70, 42
11, 54030, Note_on_c, 9, 70, 0
11, 54030, Note_on_c, 9, 36, 0
11, 54030, Note_on_c, 9, 42, 0
11, 54030, Note_on_c, 9, 69, 0
11, 54240, Note_on_c, 9, 40, 116
11, 54240, Note_on_c, 9, 42, 62
11, 54270, Note_on_c, 9, 42, 0
11, 54270, Note_on_c, 9, 40, 0
11, 54360, Note_on_c, 9, 70, 50
11, 54390, Note_on_c, 9, 70, 0
11, 54480, Note_on_c, 9, 42, 109
11, 54480, Note_on_c, 9, 69, 47
11, 54480, Note_on_c, 9, 70, 46
11, 54510, Note_on_c, 9, 70, 0
11, 54510, Note_on_c, 9, 69, 0
11, 54510, Note_on_c, 9, 42, 0
11, 54600, Note_on_c, 9, 40, 113
11, 54630, Note_on_c, 9, 40, 0
11, 54720, Note_on_c, 9, 42, 49
11, 54750, Note_on_c, 9, 42, 0
11, 54840, Note_on_c, 9, 36, 90
11, 54840, Note_on_c, 9, 70, 47
11, 54870, Note_on_c, 9, 70, 0
11, 54870, Note_on_c, 9, 36, 0
11, 54960, Note_on_c, 9, 40, 112
11, 54960, Note_on_c, 9, 42, 118
11, 54960, Note_on_c, 9, 69, 42
11, 54960, Note_on_c, 9, 70, 48
11, 54990, Note_on_c, 9, 70, 0
11, 54990, Note_on_c, 9, 40, 0
11, 54990, Note_on_c, 9, 42, 0
11, 54990, Note_on_c, 9, 69, 0
11, 55200, Note_on_c, 9, 42, 61
11, 55230, Note_on_c, 9, 42, 0
11, 55320, Note_on_c, 9, 40, 115
11, 55320, Note_on_c, 9, 70, 47
11, 55350, Note_on_c, 9, 70, 0
11, 55350, Note_on_c, 9, 40, 0
11, 55440, Note_on_c, 9, 36, 88
11, 55440, Note_on_c, 9, 42, 112
11, 55440, Note_on_c, 9, 69, 47
11, 55440, Note_on_c, 9, 70, 52
11, 55470, Note_on_c, 9, 70, 0
11, 55470, Note_on_c, 9, 36, 0
11, 55470, Note_on_c, 9, 42, 0
11, 55470, Note_on_c, 9, 69, 0
11, 55680, Note_on_c, 9, 36, 113
11, 55680, Note_on_c, 9, 42, 94
11, 55710, Note_on_c, 9, 42, 0
11, 55710, Note_on_c, 9, 36, 0
11, 55800, Note_on_c, 9, 70, 52
11, 55830, Note_on_c, 9, 70, 0
11, 55920, Note_on_c, 9, 36, 105
11, 55920, Note_on_c, 9, 42, 115
11, 55920, Note_on_c, 9, 69, 46
11, 55920, Note_on_c, 9, 70, 42
11, 55950, Note_on_c, 9, 70, 0
11, 55950, Note_on_c, 9, 36, 0
11, 55950, Note_on_c, 9, 42, 0
11, 55950, Note_on_c, 9, 69, 0
11, 56160, Note_on_c, 9, 40, 116
11, 56160, Note_on_c, 9, 42, 62
11, 56190, Note_on_c, 9, 42, 0
11, 56190, Note_on_c, 9, 40, 0
11, 56280, Note_on_c, 9, 70, 50
11, 56310, Note_on_c, 9, 70, 0
11, 56400, Note_on_c, 9, 42, 109
11, 56400, Note_on_c, 9, 69, 47
11, 56400, Note_on_c, 9, 70, 46
11, 56430, Note_on_c, 9, 70, 0
11, 56430, Note_on_c, 9, 69, 0
11, 56430, Note_on_c, 9, 42, 0
11, 56520, Note_on_c, 9, 40, 113
11, 56550, Note_on_c, 9, 40, 0
11, 56640, Note_on_c, 9, 42, 49
11, 56670, Note_on_c, 9, 42, 0
11, 56760, Note_on_c, 9, 36, 90
11, 56760, Note_on_c, 9, 70, 47
11, 56790, Note_on_c, 9, 70, 0
11, 56790, Note_on_c, 9, 36, 0
11, 56880, Note_on_c, 9, 40, 112
11, 56880, Note_on_c, 9, 42, 118
11, 56880, Note_on_c, 9, 69, 42
11, 56880, Note_on_c, 9, 70, 48
11, 56910, Note_on_c, 9, 70, 0
11, 56910, Note_on_c, 9, 40, 0
11, 56910, Note_on_c, 9, 42, 0
11, 56910, Note_on_c, 9, 69, 0
11, 57120, Note_on_c, 9, 42, 61
11, 57150, Note_on_c, 9, 42, 0
11, 57240, Note_on_c, 9, 40, 115
11, 57240, Note_on_c, 9, 70, 47
11, 57270, Note_on_c, 9, 70, 0
11, 57270, Note_on_c, 9, 40, 0
11, 57360, Note_on_c, 9, 36, 88
11, 57360, Note_on_c, 9, 42, 112
11, 57360, Note_on_c, 9, 69, 47
11, 57360, Note_on_c, 9, 70, 52
11, 57390, Note_on_c, 9, 70, 0
11, 57390, Note_on_c, 9, 36, 0
11, 57390, Note_on_c, 9, 42, 0
11, 57390, Note_on_c, 9, 69, 0
11, 57600, Note_on_c, 9, 36, 98
11, 57600, Note_on_c, 9, 42, 69
11, 57630, Note_on_c, 9, 42, 0
11, 57630, Note_on_c, 9, 36, 0
11, 57720, Note_on_c, 9, 70, 47
11, 57750, Note_on_c, 9, 70, 0
11, 57840, Note_on_c, 9, 36, 100
11, 57840, Note_on_c, 9, 42, 115
11, 57840, Note_on_c, 9, 69, 48
11, 57840, Note_on_c, 9, 70, 33
11, 57870, Note_on_c, 9, 70, 0
11, 57870, Note_on_c, 9, 36, 0
11, 57870, Note_on_c, 9, 42, 0
11, 57870, Note_on_c, 9, 69, 0
11, 58080, Note_on_c, 9, 40, 111
11, 58080, Note_on_c, 9, 42, 76
11, 58110, Note_on_c, 9, 42, 0
11, 58110, Note_on_c, 9, 40, 0
11, 58200, Note_on_c, 9, 70, 44
11, 58230, Note_on_c, 9, 70, 0
11, 58320, Note_on_c, 9, 42, 112
11, 58320, Note_on_c, 9, 69, 51
11, 58320, Note_on_c, 9, 70, 59
11, 58350, Note_on_c, 9, 70, 0
11, 58350, Note_on_c, 9, 69, 0
11, 58350, Note_on_c, 9, 42, 0
11, 58440, Note_on_c, 9, 40, 113
11, 58470, Note_on_c, 9, 40, 0
11, 58560, Note_on_c, 9, 42, 59
11, 58590, Note_on_c, 9, 42, 0
11, 58680, Note_on_c, 9, 36, 98
11, 58680, Note_on_c, 9, 70, 47
11, 58710, Note_on_c, 9, 70, 0
11, 58710, Note_on_c, 9, 36, 0
11, 58800, Note_on_c, 9, 40, 116
11, 58800, Note_on_c, 9, 42, 115
11, 58800, Note_on_c, 9, 69, 50
11, 58800, Note_on_c, 9, 70, 65
11, 58830, Note_on_c, 9, 70, 0
11, 58830, Note_on_c, 9, 40, 0
11, 58830, Note_on_c, 9, 42, 0
11, 58830, Note_on_c, 9, 69, 0
11, 59040, Note_on_c, 9, 42, 60
11, 59070, Note_on_c, 9, 42, 0
11, 59160, Note_on_c, 9, 40, 117
11, 59160, Note_on_c, 9, 70, 51
11, 59190, Note_on_c, 9, 70, 0
11, 59190, Note_on_c, 9, 40, 0
11, 59280, Note_on_c, 9, 36, 91
11, 59280, Note_on_c, 9, 42, 113
11, 59280, Note_on_c, 9, 69, 50
11, 59280, Note_on_c, 9, 70, 47
11, 59310, Note_on_c, 9, 70, 0
11, 59310, Note_on_c, 9, 36, 0
11, 59310, Note_on_c, 9, 42, 0
11, 59310, Note_on_c, 9, 69, 0
11, 59520, Note_on_c, 9, 36, 116
11, 59520, Note_on_c, 9, 42, 59
11, 59550, Note_on_c, 9, 42, 0
11, 59550, Note_on_c, 9, 36, 0
11, 59640, Note_on_c, 9, 70, 53
11, 59670, Note_on_c, 9, 70, 0
11, 59760, Note_on_c, 9, 36, 109
11, 59760, Note_on_c, 9, 42, 109
11, 59760, Note_on_c, 9, 69, 46
11, 59760, Note_on_c, 9, 70, 55
11, 59790, Note_on_c, 9, 70, 0
11, 59790, Note_on_c, 9, 36, 0
11, 59790, Note_on_c, 9, 42, 0
11, 59790, Note_on_c, 9, 69, 0
11, 60000, Note_on_c, 9, 40, 105
11, 60000, Note_on_c, 9, 42, 63
11, 60030, Note_on_c, 9, 42, 0
11, 60030, Note_on_c, 9, 40, 0
11, 60120, Note_on_c, 9, 70, 52
11, 60150, Note_on_c, 9, 70, 0
11, 60240, Note_on_c, 9, 42, 115
11, 60240, Note_on_c, 9, 69, 46
11, 60240, Note_on_c, 9, 70, 71
11, 60270, Note_on_c, 9, 70, 0
11, 60270, Note_on_c, 9, 69, 0
11, 60270, Note_on_c, 9, 42, 0
11, 60360, Note_on_c, 9, 36, 105
11, 60390, Note_on_c, 9, 36, 0
11, 60480, Note_on_c, 9, 42, 61
11, 60510, Note_on_c, 9, 42, 0
11, 60600, Note_on_c, 9, 70, 51
11, 60630, Note_on_c, 9, 70, 0
11, 60720, Note_on_c, 9, 36, 113
11, 60720, Note_on_c, 9, 42, 115
11, 60720, Note_on_c, 9, 69, 46
11, 60720, Note_on_c, 9, 70, 57
11, 60750, Note_on_c, 9, 70, 0
11, 60750, Note_on_c, 9, 36, 0
11, 60750, Note_on_c, 9, 42, 0
11, 60750, Note_on_c, 9, 69, 0
11, 60960, Note_on_c, 9, 40, 103
11, 60960, Note_on_c, 9, 42, 78
11, 60990, Note_on_c, 9, 42, 0
11, 60990, Note_on_c, 9, 40, 0
11, 61080, Note_on_c, 9, 36, 119
11, 61080, Note_on_c, 9, 46, 82
11, 61080, Note_on_c, 9, 70, 51
11, 61110, Note_on_c, 9, 70, 0
11, 61110, Note_on_c, 9, 46, 0
11, 61110, Note_on_c, 9, 36, 0
11, 61200, Note_on_c, 9, 42, 69
11, 61200, Note_on_c, 9, 69, 45
11, 61200, Note_on_c, 9, 70, 65
11, 61230, Note_on_c, 9, 70, 0
11, 61230, Note_on_c, 9, 69, 0
11, 61230, Note_on_c, 9, 42, 0
11, 61440, Note_on_c, 9, 42, 109
11, 61470, Note_on_c, 9, 42, 0
11, 61560, Note_on_c, 9, 70, 47
11, 61590, Note_on_c, 9, 70, 0
11, 61680, Note_on_c, 9, 36, 109
11, 61680, Note_on_c, 9, 42, 96
11, 61680, Note_on_c, 9, 69, 43
11, 61680, Note_on_c, 9, 70, 59
11, 61710, Note_on_c, 9, 70, 0
11, 61710, Note_on_c, 9, 36, 0
11, 61710, Note_on_c, 9, 42, 0
11, 61710, Note_on_c, 9, 69, 0
11, 61800, Note_on_c, 9, 36, 91
11, 61830, Note_on_c, 9, 36, 0
11, 61920, Note_on_c, 9, 40, 118
11, 61920, Note_on_c, 9, 42, 64
11, 61950, Note_on_c, 9, 42, 0
11, 61950, Note_on_c, 9, 40, 0
11, 62040, Note_on_c, 9, 70, 48
11, 62070, Note_on_c, 9, 70, 0
11, 62160, Note_on_c, 9, 42, 112
11, 62160, Note_on_c, 9, 69, 41
11, 62160, Note_on_c, 9, 70, 49
11, 62190, Note_on_c, 9, 70, 0
11, 62190, Note_on_c, 9, 69, 0
11, 62190, Note_on_c, 9, 42, 0
11, 62280, Note_on_c, 9, 40, 121
11, 62310, Note_on_c, 9, 40, 0
11, 62400, Note_on_c, 9, 36, 92
11, 62400, Note_on_c, 9, 42, 78
11, 62430, Note_on_c, 9, 42, 0
11, 62430, Note_on_c, 9, 36, 0
11, 62520, Note_on_c, 9, 70, 52
11, 62550, Note_on_c, 9, 70, 0
11, 62640, Note_on_c, 9, 42, 99
11, 62640, Note_on_c, 9, 69, 48
11, 62640, Note_on_c, 9, 70, 41
11, 62670, Note_on_c, 9, 70, 0
11, 62670, Note_on_c, 9, 69, 0
11, 62670, Note_on_c, 9, 42, 0
11, 62760, Note_on_c, 9, 36, 113
11, 62760, Note_on_c, 9, 46, 80
11, 62790, Note_on_c, 9, 46, 0
11, 62790, Note_on_c, 9, 36, 0
11, 62880, Note_on_c, 9, 42, 96
11, 62910, Note_on_c, 9, 42, 0
11, 63000, Note_on_c, 9, 40, 118
11, 63000, Note_on_c, 9, 70, 49
11, 63030, Note_on_c, 9, 70, 0
11, 63030, Note_on_c, 9, 40, 0
11, 63120, Note_on_c, 9, 40, 100
11, 63120, Note_on_c, 9, 42, 88
11, 63120, Note_on_c, 9, 69, 50
11, 63120, Note_on_c, 9, 70, 53
11, 63150, Note_on_c, 9, 70, 0
11, 63150, Note_on_c, 9, 40, 0
11, 63150, Note_on_c, 9, 42, 0
11, 63150, Note_on_c, 9, 69, 0
11, 63240, Note_on_c, 9, 40, 115
11, 63270, Note_on_c, 9, 40, 0
11, 63360, Note_on_c, 9, 36, 116
11, 63360, Note_on_c, 9, 42, 78
11, 63390, Note_on_c, 9, 42, 0
11, 63390, Note_on_c, 9, 36, 0
11, 63480, Note_on_c, 9, 70, 48
11, 63510, Note_on_c, 9, 70, 0
11, 63600, Note_on_c, 9, 36, 116
11, 63600, Note_on_c, 9, 42, 112
11, 63600, Note_on_c, 9, 69, 47
11, 63600, Note_on_c, 9, 70, 48
11, 63630, Note_on_c, 9, 70, 0
11, 63630, Note_on_c, 9, 36, 0
11, 63630, Note_on_c, 9, 42, 0
11, 63630, Note_on_c, 9, 69, 0
11, 63840, Note_on_c, 9, 40, 123
11, 63840, Note_on_c, 9, 42, 88
11, 63870, Note_on_c, 9, 42, 0
11, 63870, Note_on_c, 9, 40, 0
11, 63960, Note_on_c, 9, 70, 46
11, 63990, Note_on_c, 9, 70, 0
11, 64080, Note_on_c, 9, 42, 121
11, 64080, Note_on_c, 9, 69, 50
11, 64080, Note_on_c, 9, 70, 48
11, 64110, Note_on_c, 9, 70, 0
11, 64110, Note_on_c, 9, 69, 0
11, 64110, Note_on_c, 9, 42, 0
11, 64200, Note_on_c, 9, 40, 91
11, 64230, Note_on_c, 9, 40, 0
11, 64320, Note_on_c, 9, 42, 58
11, 64350, Note_on_c, 9, 42, 0
11, 64440, Note_on_c, 9, 36, 105
11, 64440, Note_on_c, 9, 70, 48
11, 64470, Note_on_c, 9, 70, 0
11, 64470, Note_on_c, 9, 36, 0
11, 64560, Note_on_c, 9, 40, 103
11, 64560, Note_on_c, 9, 42, 115
11, 64560, Note_on_c, 9, 69, 49
11, 64560, Note_on_c, 9, 70, 73
11, 64590, Note_on_c, 9, 70, 0
11, 64590, Note_on_c, 9, 40, 0
11, 64590, Note_on_c, 9, 42, 0
11, 64590, Note_on_c, 9, 69, 0
11, 64800, Note_on_c, 9, 42, 60
11, 64830, Note_on_c, 9, 42, 0
11, 64920, Note_on_c, 9, 40, 86
11, 64920, Note_on_c, 9, 70, 43
11, 64950, Note_on_c, 9, 70, 0
11, 64950, Note_on_c, 9, 40, 0
11, 65040, Note_on_c, 9, 36, 91
11, 65040, Note_on_c, 9, 42, 112
11, 65040, Note_on_c, 9, 69, 45
11, 65040, Note_on_c, 9, 70, 67
11, 65070, Note_on_c, 9, 70, 0
11, 65070, Note_on_c, 9, 36, 0
11, 65070, Note_on_c, 9, 42, 0
11, 65070, Note_on_c, 9, 69, 0
11, 65280, Note_on_c, 9, 36, 113
11, 65280, Note_on_c, 9, 42, 59
11, 65310, Note_on_c, 9, 42, 0
11, 65310, Note_on_c, 9, 36, 0
11, 65400, Note_on_c, 9, 70, 40
11, 65430, Note_on_c, 9, 70, 0
11, 65520, Note_on_c, 9, 36, 113
11, 65520, Note_on_c, 9, 42, 115
11, 65520, Note_on_c, 9, 69, 51
11, 65520, Note_on_c, 9, 70, 71
11, 65550, Note_on_c, 9, 70, 0
11, 65550, Note_on_c, 9, 36, 0
11, 65550, Note_on_c, 9, 42, 0
11, 65550, Note_on_c, 9, 69, 0
11, 65760, Note_on_c, 9, 40, 103
11, 65760, Note_on_c, 9, 42, 61
11, 65790, Note_on_c, 9, 42, 0
11, 65790, Note_on_c, 9, 40, 0
11, 65880, Note_on_c, 9, 70, 47
11, 65910, Note_on_c, 9, 70, 0
11, 66000, Note_on_c, 9, 42, 113
11, 66000, Note_on_c, 9, 69, 50
11, 66000, Note_on_c, 9, 70, 53
11, 66030, Note_on_c, 9, 70, 0
11, 66030, Note_on_c, 9, 69, 0
11, 66030, Note_on_c, 9, 42, 0
11, 66120, Note_on_c, 9, 40, 113
11, 66150, Note_on_c, 9, 40, 0
11, 66240, Note_on_c, 9, 42, 58
11, 66270, Note_on_c, 9, 42, 0
11, 66360, Note_on_c, 9, 36, 98
11, 66360, Note_on_c, 9, 70, 48
11, 66390, Note_on_c, 9, 70, 0
11, 66390, Note_on_c, 9, 36, 0
11, 66480, Note_on_c, 9, 40, 100
11, 66480, Note_on_c, 9, 42, 113
11, 66480, Note_on_c, 9, 69, 53
11, 66480, Note_on_c, 9, 70, 64
11, 66510, Note_on_c, 9, 70, 0
11, 66510, Note_on_c, 9, 40, 0
11, 66510, Note_on_c, 9, 42, 0
11, 66510, Note_on_c, 9, 69, 0
11, 66720, Note_on_c, 9, 42, 63
11, 66750, Note_on_c, 9, 42, 0
11, 66840, Note_on_c, 9, 40, 102
11, 66840, Note_on_c, 9, 70, 47
11, 66870, Note_on_c, 9, 70, 0
11, 66870, Note_on_c, 9, 40, 0
11, 66960, Note_on_c, 9, 40, 115
11, 66960, Note_on_c, 9, 42, 113
11, 66960, Note_on_c, 9, 69, 50
11, 66960, Note_on_c, 9, 70, 50
11, 66990, Note_on_c, 9, 70, 0
11, 66990, Note_on_c, 9, 40, 0
11, 66990, Note_on_c, 9, 42, 0
11, 66990, Note_on_c, 9, 69, 0
11, 67080, Note_on_c, 9, 40, 121
11, 67110, Note_on_c, 9, 40, 0
11, 67200, Note_on_c, 9, 36, 100
11, 67200, Note_on_c, 9, 42, 76
11, 67230, Note_on_c, 9, 42, 0
11, 67230, Note_on_c, 9, 36, 0
11, 67320, Note_on_c, 9, 46, 70
11, 67320, Note_on_c, 9, 70, 48
11, 67350, Note_on_c, 9, 70, 0
11, 67350, Note_on_c, 9, 46, 0
11, 67440, Note_on_c, 9, 36, 122
11, 67440, Note_on_c, 9, 42, 77
11, 67440, Note_on_c, 9, 69, 53
11, 67440, Note_on_c, 9, 70, 53
11, 67470, Note_on_c, 9, 70, 0
11, 67470, Note_on_c, 9, 36, 0
11, 67470, Note_on_c, 9, 42, 0
11, 67470, Note_on_c, 9, 69, 0
11, 67680, Note_on_c, 9, 40, 113
11, 67680, Note_on_c, 9, 42, 94
11, 67710, Note_on_c, 9, 42, 0
11, 67710, Note_on_c, 9, 40, 0
11, 67800, Note_on_c, 9, 70, 47
11, 67830, Note_on_c, 9, 70, 0
11, 67920, Note_on_c, 9, 42, 109
11, 67920, Note_on_c, 9, 69, 52
11, 67920, Note_on_c, 9, 70, 62
11, 67950, Note_on_c, 9, 70, 0
11, 67950, Note_on_c, 9, 69, 0
11, 67950, Note_on_c, 9, 42, 0
11, 68040, Note_on_c, 9, 40, 105
11, 68070, Note_on_c, 9, 40, 0
11, 68160, Note_on_c, 9, 42, 64
11, 68190, Note_on_c, 9, 42, 0
11, 68280, Note_on_c, 9, 36, 92
11, 68280, Note_on_c, 9, 70, 46
11, 68310, Note_on_c, 9, 70, 0
11, 68310, Note_on_c, 9, 36, 0
11, 68400, Note_on_c, 9, 40, 100
11, 68400, Note_on_c, 9, 42, 121
11, 68400, Note_on_c, 9, 69, 51
11, 68400, Note_on_c, 9, 70, 74
11, 68430, Note_on_c, 9, 70, 0
11, 68430, Note_on_c, 9, 40, 0
11, 68430, Note_on_c, 9, 42, 0
11, 68430, Note_on_c, 9, 69, 0
11, 68640, Note_on_c, 9, 42, 63
11, 68670, Note_on_c, 9, 42, 0
11, 68760, Note_on_c, 9, 40, 113
11, 68760, Note_on_c, 9, 46, 66
11, 68760, Note_on_c, 9, 70, 51
11, 68790, Note_on_c, 9, 70, 0
11, 68790, Note_on_c, 9, 46, 0
11, 68790, Note_on_c, 9, 40, 0
11, 68880, Note_on_c, 9, 36, 91
11, 68880, Note_on_c, 9, 42, 105
11, 68880, Note_on_c, 9, 69, 52
11, 68880, Note_on_c, 9, 70, 69
11, 68910, Note_on_c, 9, 70, 0
11, 68910, Note_on_c, 9, 36, 0
11, 68910, Note_on_c, 9, 42, 0
11, 68910, Note_on_c, 9, 69, 0
11, 69120, Note_on_c, 9, 36, 119
11, 69120, Note_on_c, 9, 42, 101
11, 69150, Note_on_c, 9, 42, 0
11, 69150, Note_on_c, 9, 36, 0
11, 69240, Note_on_c, 9, 70, 47
11, 69270, Note_on_c, 9, 70, 0
11, 69360, Note_on_c, 9, 36, 116
11, 69360, Note_on_c, 9, 42, 112
11, 69360, Note_on_c, 9, 69, 50
11, 69360, Note_on_c, 9, 70, 58
11, 69390, Note_on_c, 9, 70, 0
11, 69390, Note_on_c, 9, 36, 0
11, 69390, Note_on_c, 9, 42, 0
11, 69390, Note_on_c, 9, 69, 0
11, 69600, Note_on_c, 9, 40, 113
11, 69600, Note_on_c, 9, 42, 37
11, 69630, Note_on_c, 9, 42, 0
11, 69630, Note_on_c, 9, 40, 0
11, 69720, Note_on_c, 9, 70, 49
11, 69750, Note_on_c, 9, 70, 0
11, 69840, Note_on_c, 9, 42, 115
11, 69840, Note_on_c, 9, 69, 53
11, 69840, Note_on_c, 9, 70, 56
11, 69870, Note_on_c, 9, 70, 0
11, 69870, Note_on_c, 9, 69, 0
11, 69870, Note_on_c, 9, 42, 0
11, 69960, Note_on_c, 9, 40, 100
11, 69990, Note_on_c, 9, 40, 0
11, 70080, Note_on_c, 9, 40, 76
11, 70080, Note_on_c, 9, 42, 50
11, 70110, Note_on_c, 9, 42, 0
11, 70110, Note_on_c, 9, 40, 0
11, 70200, Note_on_c, 9, 70, 49
11, 70230, Note_on_c, 9, 70, 0
11, 70320, Note_on_c, 9, 40, 109
11, 70320, Note_on_c, 9, 42, 115
11, 70320, Note_on_c, 9, 69, 49
11, 70320, Note_on_c, 9, 70, 48
11, 70350, Note_on_c, 9, 70, 0
11, 70350, Note_on_c, 9, 40, 0
11, 70350, Note_on_c, 9, 42, 0
11, 70350, Note_on_c, 9, 69, 0
11, 70560, Note_on_c, 9, 40, 113
11, 70560, Note_on_c, 9, 42, 52
11, 70590, Note_on_c, 9, 42, 0
11, 70590, Note_on_c, 9, 40, 0
11, 70680, Note_on_c, 9, 40, 122
11, 70680, Note_on_c, 9, 70, 47
11, 70710, Note_on_c, 9, 70, 0
11, 70710, Note_on_c, 9, 40, 0
11, 70800, Note_on_c, 9, 40, 127
11, 70800, Note_on_c, 9, 42, 113
11, 70800, Note_on_c, 9, 69, 59
11, 70800, Note_on_c, 9, 70, 75
11, 70830, Note_on_c, 9, 70, 0
11, 70830, Note_on_c, 9, 40, 0
11, 70830, Note_on_c, 9, 42, 0
11, 70830, Note_on_c, 9, 69, 0
11, 70920, Note_on_c, 9, 40, 127
11, 70950, Note_on_c, 9, 40, 0
11, 71040, Note_on_c, 9, 36, 113
11, 71040, Note_on_c, 9, 42, 94
11, 71070, Note_on_c, 9, 42, 0
11, 71070, Note_on_c, 9, 36, 0
11, 71160, Note_on_c, 9, 70, 52
11, 71190, Note_on_c, 9, 70, 0
11, 71280, Note_on_c, 9, 36, 105
11, 71280, Note_on_c, 9, 42, 115
11, 71280, Note_on_c, 9, 69, 46
11, 71280, Note_on_c, 9, 70, 42
11, 71310, Note_on_c, 9, 70, 0
11, 71310, Note_on_c, 9, 36, 0
11, 71310, Note_on_c, 9, 42, 0
11, 71310, Note_on_c, 9, 69, 0
11, 71520, Note_on_c, 9, 40, 116
11, 71520, Note_on_c, 9, 42, 62
11, 71550, Note_on_c, 9, 42, 0
11, 71550, Note_on_c, 9, 40, 0
11, 71640, Note_on_c, 9, 70, 50
11, 71670, Note_on_c, 9, 70, 0
11, 71760, Note_on_c, 9, 42, 109
11, 71760, Note_on_c, 9, 69, 47
11, 71760, Note_on_c, 9, 70, 46
11, 71790, Note_on_c, 9, 70, 0
11, 71790, Note_on_c, 9, 69, 0
11, 71790, Note_on_c, 9, 42, 0
11, 71880, Note_on_c, 9, 40, 113
11, 71910, Note_on_c, 9, 40, 0
11, 72000, Note_on_c, 9, 42, 49
11, 72030, Note_on_c, 9, 42, 0
11, 72120, Note_on_c, 9, 36, 90
11, 72120, Note_on_c, 9, 70, 47
11, 72150, Note_on_c, 9, 70, 0
11, 72150, Note_on_c, 9, 36, 0
11, 72240, Note_on_c, 9, 40, 112
11, 72240, Note_on_c, 9, 42, 118
11, 72240, Note_on_c, 9, 69, 42
11, 72240, Note_on_c, 9, 70, 48
11, 72270, Note_on_c, 9, 70, 0
11, 72270, Note_on_c, 9, 40, 0
11, 72270, Note_on_c, 9, 42, 0
11, 72270, Note_on_c, 9, 69, 0
11, 72480, Note_on_c, 9, 42, 61
11, 72510, Note_on_c, 9, 42, 0
11, 72600, Note_on_c, 9, 40, 115
11, 72600, Note_on_c, 9, 70, 47
11, 72630, Note_on_c, 9, 70, 0
11, 72630, Note_on_c, 9, 40, 0
11, 72720, Note_on_c, 9, 36, 88
11, 72720, Note_on_c, 9, 42, 112
11, 72720, Note_on_c, 9, 69, 47
11, 72720, Note_on_c, 9, 70, 52
11, 72750, Note_on_c, 9, 70, 0
11, 72750, Note_on_c, 9, 36, 0
11, 72750, Note_on_c, 9, 42, 0
11, 72750, Note_on_c, 9, 69, 0
11, 72960, Note_on_c, 9, 36, 98
11, 72960, Note_on_c, 9, 42, 69
11, 72990, Note_on_c, 9, 42, 0
11, 72990, Note_on_c, 9, 36, 0
11, 73080, Note_on_c, 9, 70, 47
11, 73110, Note_on_c, 9, 70, 0
11, 73200, Note_on_c, 9, 36, 100
11, 73200, Note_on_c, 9, 42, 115
11, 73200, Note_on_c, 9, 69, 48
11, 73200, Note_on_c, 9, 70, 33
11, 73230, Note_on_c, 9, 70, 0
11, 73230, Note_on_c, 9, 36, 0
11, 73230, Note_on_c, 9, 42, 0
11, 73230, Note_on_c, 9, 69, 0
11, 73440, Note_on_c, 9, 40, 111
11, 73440, Note_on_c, 9, 42, 76
11, 73470, Note_on_c, 9, 42, 0
11, 73470, Note_on_c, 9, 40, 0
11, 73560, Note_on_c, 9, 70, 44
11, 73590, Note_on_c, 9, 70, 0
11, 73680, Note_on_c, 9, 42, 112
11, 73680, Note_on_c, 9, 69, 51
11, 73680, Note_on_c, 9, 70, 59
11, 73710, Note_on_c, 9, 70, 0
11, 73710, Note_on_c, 9, 69, 0
11, 73710, Note_on_c, 9, 42, 0
11, 73800, Note_on_c, 9, 40, 113
11, 73830, Note_on_c, 9, 40, 0
11, 73920, Note_on_c, 9, 42, 59
11, 73950, Note_on_c, 9, 42, 0
11, 74040, Note_on_c, 9, 36, 98
11, 74040, Note_on_c, 9, 70, 47
11, 74070, Note_on_c, 9, 70, 0
11, 74070, Note_on_c, 9, 36, 0
11, 74160, Note_on_c, 9, 40, 116
11, 74160, Note_on_c, 9, 42, 115
11, 74160, Note_on_c, 9, 69, 50
11, 74160, Note_on_c, 9, 70, 65
11, 74190, Note_on_c, 9, 70, 0
11, 74190, Note_on_c, 9, 40, 0
11, 74190, Note_on_c, 9, 42, 0
11, 74190, Note_on_c, 9, 69, 0
11, 74280, Note_on_c, 9, 46, 82
11, 74310, Note_on_c, 9, 46, 0
11, 74400, Note_on_c, 9, 42, 60
11, 74430, Note_on_c, 9, 42, 0
11, 74520, Note_on_c, 9, 40, 117
11, 74520, Note_on_c, 9, 49, 82
11, 74520, Note_on_c, 9, 70, 51
11, 74550, Note_on_c, 9, 70, 0
11, 74550, Note_on_c, 9, 49, 0
11, 74550, Note_on_c, 9, 40, 0
11, 74640, Note_on_c, 9, 36, 91
11, 74640, Note_on_c, 9, 42, 113
11, 74640, Note_on_c, 9, 69, 50
11, 74640, Note_on_c, 9, 70, 47
11, 74670, Note_on_c, 9, 70, 0
11, 74670, Note_on_c, 9, 36, 0
11, 74670, Note_on_c, 9, 42, 0
11, 74670, Note_on_c, 9, 69, 0
11, 74880, Note_on_c, 9, 36, 116
11, 74880, Note_on_c, 9, 42, 59
11, 74910, Note_on_c, 9, 42, 0
11, 74910, Note_on_c, 9, 36, 0
11, 75000, Note_on_c, 9, 70, 53
11, 75030, Note_on_c, 9, 70, 0
11, 75120, Note_on_c, 9, 36, 109
11, 75120, Note_on_c, 9, 42, 109
11, 75120, Note_on_c, 9, 69, 46
11, 75120, Note_on_c, 9, 70, 55
11, 75150, Note_on_c, 9, 70, 0
11, 75150, Note_on_c, 9, 36, 0
11, 75150, Note_on_c, 9, 42, 0
11, 75150, Note_on_c, 9, 69, 0
11, 75360, Note_on_c, 9, 40, 105
11, 75360, Note_on_c, 9, 42, 63
11, 75390, Note_on_c, 9, 42, 0
11, 75390, Note_on_c, 9, 40, 0
11, 75480, Note_on_c, 9, 70, 52
11, 75510, Note_on_c, 9, 70, 0
11, 75600, Note_on_c, 9, 42, 115
11, 75600, Note_on_c, 9, 69, 46
11, 75600, Note_on_c, 9, 70, 71
11, 75630, Note_on_c, 9, 70, 0
11, 75630, Note_on_c, 9, 69, 0
11, 75630, Note_on_c, 9, 42, 0
11, 75720, Note_on_c, 9, 36, 105
11, 75750, Note_on_c, 9, 36, 0
11, 75840, Note_on_c, 9, 42, 61
11, 75870, Note_on_c, 9, 42, 0
11, 75960, Note_on_c, 9, 70, 51
11, 75990, Note_on_c, 9, 70, 0
11, 76080, Note_on_c, 9, 36, 113
11, 76080, Note_on_c, 9, 42, 115
11, 76080, Note_on_c, 9, 69, 46
11, 76080, Note_on_c, 9, 70, 57
11, 76110, Note_on_c, 9, 70, 0
11, 76110, Note_on_c, 9, 36, 0
11, 76110, Note_on_c, 9, 42, 0
11, 76110, Note_on_c, 9, 69, 0
11, 76320, Note_on_c, 9, 40, 103
11, 76320, Note_on_c, 9, 42, 78
11, 76350, Note_on_c, 9, 42, 0
11, 76350, Note_on_c, 9, 40, 0
11, 76440, Note_on_c, 9, 36, 119
11, 76440, Note_on_c, 9, 46, 82
11, 76440, Note_on_c, 9, 70, 51
11, 76470, Note_on_c, 9, 70, 0
11, 76470, Note_on_c, 9, 46, 0
11, 76470, Note_on_c, 9, 36, 0
11, 76560, Note_on_c, 9, 42, 69
11, 76560, Note_on_c, 9, 69, 45
11, 76560, Note_on_c, 9, 70, 65
11, 76590, Note_on_c, 9, 70, 0
11, 76590, Note_on_c, 9, 69, 0
11, 76590, Note_on_c, 9, 42, 0
11, 76800, Note_on_c, 9, 42, 109
11, 76830, Note_on_c, 9, 42, 0
11, 76920, Note_on_c, 9, 70, 47
11, 76950, Note_on_c, 9, 70, 0
11, 77040, Note_on_c, 9, 36, 109
11, 77040, Note_on_c, 9, 42, 96
11, 77040, Note_on_c, 9, 69, 43
11, 77040, Note_on_c, 9, 70, 59
11, 77070, Note_on_c, 9, 70, 0
11, 77070, Note_on_c, 9, 36, 0
11, 77070, Note_on_c, 9, 42, 0
11, 77070, Note_on_c, 9, 69, 0
11, 77160, Note_on_c, 9, 36, 91
11, 77190, Note_on_c, 9, 36, 0
11, 77280, Note_on_c, 9, 40, 118
11, 77280, Note_on_c, 9, 42, 64
11, 77310, Note_on_c, 9, 42, 0
11, 77310, Note_on_c, 9, 40, 0
11, 77400, Note_on_c, 9, 70, 48
11, 77430, Note_on_c, 9, 70, 0
11, 77520, Note_on_c, 9, 42, 112
11, 77520, Note_on_c, 9, 69, 41
11, 77520, Note_on_c, 9, 70, 49
11, 77550, Note_on_c, 9, 70, 0
11, 77550, Note_on_c, 9, 69, 0
11, 77550, Note_on_c, 9, 42, 0
11, 77640, Note_on_c, 9, 40, 121
11, 77670, Note_on_c, 9, 40, 0
11, 77760, Note_on_c, 9, 36, 92
11, 77760, Note_on_c, 9, 42, 78
11, 77790, Note_on_c, 9, 42, 0
11, 77790, Note_on_c, 9, 36, 0
11, 77880, Note_on_c, 9, 70, 52
11, 77910, Note_on_c, 9, 70, 0
11, 78000, Note_on_c, 9, 42, 99
11, 78000, Note_on_c, 9, 69, 48
11, 78000, Note_on_c, 9, 70, 41
11, 78030, Note_on_c, 9, 70, 0
11, 78030, Note_on_c, 9, 69, 0
11, 78030, Note_on_c, 9, 42, 0
11, 78120, Note_on_c, 9, 36, 113
11, 78120, Note_on_c, 9, 46, 80
11, 78150, Note_on_c, 9, 46, 0
11, 78150, Note_on_c, 9, 36, 0
11, 78240, Note_on_c, 9, 42, 96
11, 78270, Note_on_c, 9, 42, 0
11, 78360, Note_on_c, 9, 40, 118
11, 78360, Note_on_c, 9, 70, 49
11, 78390, Note_on_c, 9, 70, 0
11, 78390, Note_on_c, 9, 40, 0
11, 78480, Note_on_c, 9, 40, 100
11, 78480, Note_on_c, 9, 42, 88
11, 78480, Note_on_c, 9, 69, 50
11, 78480, Note_on_c, 9, 70, 53
11, 78510, Note_on_c, 9, 70, 0
11, 78510, Note_on_c, 9, 40, 0
11, 78510, Note_on_c, 9, 42, 0
11, 78510, Note_on_c, 9, 69, 0
11, 78600, Note_on_c, 9, 40, 115
11, 78630, Note_on_c, 9, 40, 0
11, 78720, Note_on_c, 9, 36, 116
11, 78720, Note_on_c, 9, 42, 78
11, 78750, Note_on_c, 9, 42, 0
11, 78750, Note_on_c, 9, 36, 0
11, 78840, Note_on_c, 9, 70, 48
11, 78870, Note_on_c, 9, 70, 0
11, 78960, Note_on_c, 9, 36, 116
11, 78960, Note_on_c, 9, 42, 112
11, 78960, Note_on_c, 9, 70, 48
11, 78990, Note_on_c, 9, 70, 0
11, 78990, Note_on_c, 9, 42, 0
11, 78990, Note_on_c, 9, 36, 0
11, 79200, Note_on_c, 9, 40, 123
11, 79200, Note_on_c, 9, 42, 88
11, 79230, Note_on_c, 9, 42, 0
11, 79230, Note_on_c, 9, 40, 0
11, 79320, Note_on_c, 9, 70, 46
11, 79350, Note_on_c, 9, 70, 0
11, 79440, Note_on_c, 9, 42, 121
11, 79440, Note_on_c, 9, 69, 50
11, 79440, Note_on_c, 9, 70, 48
11, 79470, Note_on_c, 9, 70, 0
11, 79470, Note_on_c, 9, 69, 0
11, 79470, Note_on_c, 9, 42, 0
11, 79560, Note_on_c, 9, 40, 91
11, 79590, Note_on_c, 9, 40, 0
11, 79680, Note_on_c, 9, 42, 58
11, 79710, Note_on_c, 9, 42, 0
11, 79800, Note_on_c, 9, 36, 105
11, 79800, Note_on_c, 9, 70, 48
11, 79830, Note_on_c, 9, 70, 0
11, 79830, Note_on_c, 9, 36, 0
11, 79920, Note_on_c, 9, 40, 103
11, 79920, Note_on_c, 9, 42, 115
11, 79920, Note_on_c, 9, 69, 49
11, 79920, Note_on_c, 9, 70, 73
11, 79950, Note_on_c, 9, 70, 0
11, 79950, Note_on_c, 9, 40, 0
11, 79950, Note_on_c, 9, 42, 0
11, 79950, Note_on_c, 9, 69, 0
11, 80160, Note_on_c, 9, 42, 60
11, 80190, Note_on_c, 9, 42, 0
11, 80280, Note_on_c, 9, 40, 86
11, 80280, Note_on_c, 9, 70, 43
11, 80310, Note_on_c, 9, 70, 0
11, 80310, Note_on_c, 9, 40, 0
11, 80400, Note_on_c, 9, 36, 91
11, 80400, Note_on_c, 9, 42, 112
11, 80400, Note_on_c, 9, 69, 45
11, 80400, Note_on_c, 9, 70, 67
11, 80430, Note_on_c, 9, 70, 0
11, 80430, Note_on_c, 9, 36, 0
11, 80430, Note_on_c, 9, 42, 0
11, 80430, Note_on_c, 9, 69, 0
11, 80640, Note_on_c, 9, 36, 113
11, 80640, Note_on_c, 9, 42, 59
11, 80670, Note_on_c, 9, 42, 0
11, 80670, Note_on_c, 9, 36, 0
11, 80760, Note_on_c, 9, 70, 40
11, 80790, Note_on_c, 9, 70, 0
11, 80880, Note_on_c, 9, 36, 113
11, 80880, Note_on_c, 9, 42, 115
11, 80880, Note_on_c, 9, 69, 51
11, 80880, Note_on_c, 9, 70, 71
11, 80910, Note_on_c, 9, 70, 0
11, 80910, Note_on_c, 9, 36, 0
11, 80910, Note_on_c, 9, 42, 0
11, 80910, Note_on_c, 9, 69, 0
11, 81120, Note_on_c, 9, 40, 103
11, 81120, Note_on_c, 9, 42, 61
11, 81150, Note_on_c, 9, 42, 0
11, 81150, Note_on_c, 9, 40, 0
11, 81240, Note_on_c, 9, 70, 47
11, 81270, Note_on_c, 9, 70, 0
11, 81360, Note_on_c, 9, 42, 113
11, 81360, Note_on_c, 9, 69, 50
11, 81360, Note_on_c, 9, 70, 53
11, 81390, Note_on_c, 9, 70, 0
11, 81390, Note_on_c, 9, 69, 0
11, 81390, Note_on_c, 9, 42, 0
11, 81480, Note_on_c, 9, 40, 113
11, 81510, Note_on_c, 9, 40, 0
11, 81600, Note_on_c, 9, 42, 58
11, 81630, Note_on_c, 9, 42, 0
11, 81720, Note_on_c, 9, 36, 98
11, 81720, Note_on_c, 9, 70, 48
11, 81750, Note_on_c, 9, 70, 0
11, 81750, Note_on_c, 9, 36, 0
11, 81840, Note_on_c, 9, 40, 100
11, 81840, Note_on_c, 9, 42, 113
11, 81840, Note_on_c, 9, 69, 53
11, 81840, Note_on_c, 9, 70, 64
11, 81870, Note_on_c, 9, 70, 0
11, 81870, Note_on_c, 9, 40, 0
11, 81870, Note_on_c, 9, 42, 0
11, 81870, Note_on_c, 9, 69, 0
11, 82080, Note_on_c, 9, 42, 63
11, 82110, Note_on_c, 9, 42, 0
11, 82200, Note_on_c, 9, 40, 102
11, 82200, Note_on_c, 9, 70, 47
11, 82230, Note_on_c, 9, 70, 0
11, 82230, Note_on_c, 9, 40, 0
11, 82320, Note_on_c, 9, 40, 115
11, 82320, Note_on_c, 9, 42, 113
11, 82320, Note_on_c, 9, 69, 50
11, 82320, Note_on_c, 9, 70, 50
11, 82350, Note_on_c, 9, 70, 0
11, 82350, Note_on_c, 9, 40, 0
11, 82350, Note_on_c, 9, 42, 0
11, 82350, Note_on_c, 9, 69, 0
11, 82440, Note_on_c, 9, 40, 121
11, 82470, Note_on_c, 9, 40, 0
11, 82560, Note_on_c, 9, 36, 100
11, 82560, Note_on_c, 9, 42, 76
11, 82590, Note_on_c, 9, 42, 0
11, 82590, Note_on_c, 9, 36, 0
11, 82680, Note_on_c, 9, 46, 70
11, 82680, Note_on_c, 9, 70, 48
11, 82710, Note_on_c, 9, 70, 0
11, 82710, Note_on_c, 9, 46, 0
11, 82800, Note_on_c, 9, 36, 122
11, 82800, Note_on_c, 9, 42, 77
11, 82800, Note_on_c, 9, 69, 53
11, 82800, Note_on_c, 9, 70, 53
11, 82830, Note_on_c, 9, 70, 0
11, 82830, Note_on_c, 9, 36, 0
11, 82830, Note_on_c, 9, 42, 0
11, 82830, Note_on_c, 9, 69, 0
11, 83040, Note_on_c, 9, 40, 113
11, 83040, Note_on_c, 9, 42, 94
11, 83070, Note_on_c, 9, 42, 0
11, 83070, Note_on_c, 9, 40, 0
11, 83160, Note_on_c, 9, 70, 47
11, 83190, Note_on_c, 9, 70, 0
11, 83280, Note_on_c, 9, 42, 109
11, 83280, Note_on_c, 9, 69, 52
11, 83280, Note_on_c, 9, 70, 62
11, 83310, Note_on_c, 9, 70, 0
11, 83310, Note_on_c, 9, 69, 0
11, 83310, Note_on_c, 9, 42, 0
11, 83400, Note_on_c, 9, 40, 105
11, 83430, Note_on_c, 9, 40, 0
11, 83520, Note_on_c, 9, 42, 64
11, 83550, Note_on_c, 9, 42, 0
11, 83640, Note_on_c, 9, 36, 92
11, 83640, Note_on_c, 9, 70, 46
11, 83670, Note_on_c, 9, 70, 0
11, 83670, Note_on_c, 9, 36, 0
11, 83760, Note_on_c, 9, 40, 100
11, 83760, Note_on_c, 9, 42, 121
11, 83760, Note_on_c, 9, 69, 51
11, 83760, Note_on_c, 9, 70, 74
11, 83790, Note_on_c, 9, 70, 0
11, 83790, Note_on_c, 9, 40, 0
11, 83790, Note_on_c, 9, 42, 0
11, 83790, Note_on_c, 9, 69, 0
11, 84000, Note_on_c, 9, 42, 63
11, 84030, Note_on_c, 9, 42, 0
11, 84120, Note_on_c, 9, 40, 113
11, 84120, Note_on_c, 9, 46, 66
11, 84120, Note_on_c, 9, 70, 51
11, 84150, Note_on_c, 9, 70, 0
11, 84150, Note_on_c, 9, 46, 0
11, 84150, Note_on_c, 9, 40, 0
11, 84240, Note_on_c, 9, 36, 91
11, 84240, Note_on_c, 9, 42, 105
11, 84240, Note_on_c, 9, 69, 52
11, 84240, Note_on_c, 9, 70, 69
11, 84270, Note_on_c, 9, 70, 0
11, 84270, Note_on_c, 9, 36, 0
11, 84270, Note_on_c, 9, 42, 0
11, 84270, Note_on_c, 9, 69, 0
11, 84480, Note_on_c, 9, 36, 113
11, 84480, Note_on_c, 9, 42, 116
11, 84510, Note_on_c, 9, 42, 0
11, 84510, Note_on_c, 9, 36, 0
11, 84600, Note_on_c, 9, 70, 52
11, 84630, Note_on_c, 9, 70, 0
11, 84720, Note_on_c, 9, 36, 105
11, 84720, Note_on_c, 9, 42, 115
11, 84720, Note_on_c, 9, 69, 46
11, 84720, Note_on_c, 9, 70, 42
11, 84750, Note_on_c, 9, 70, 0
11, 84750, Note_on_c, 9, 36, 0
11, 84750, Note_on_c, 9, 42, 0
11, 84750, Note_on_c, 9, 69, 0
11, 84960, Note_on_c, 9, 40, 116
11, 84960, Note_on_c, 9, 42, 62
11, 84990, Note_on_c, 9, 42, 0
11, 84990, Note_on_c, 9, 40, 0
11, 85080, Note_on_c, 9, 70, 50
11, 85110, Note_on_c, 9, 70, 0
11, 85200, Note_on_c, 9, 42, 109
11, 85200, Note_on_c, 9, 69, 47
11, 85200, Note_on_c, 9, 70, 46
11, 85230, Note_on_c, 9, 70, 0
11, 85230, Note_on_c, 9, 69, 0
11, 85230, Note_on_c, 9, 42, 0
11, 85440, Note_on_c, 9, 36, 90
11, 85440, Note_on_c, 9, 42, 49
11, 85470, Note_on_c, 9, 42, 0
11, 85470, Note_on_c, 9, 36, 0
11, 85560, Note_on_c, 9, 70, 47
11, 85590, Note_on_c, 9, 70, 0
11, 85680, Note_on_c, 9, 40, 113
11, 85680, Note_on_c, 9, 42, 118
11, 85680, Note_on_c, 9, 69, 42
11, 85680, Note_on_c, 9, 70, 48
11, 85710, Note_on_c, 9, 70, 0
11, 85710, Note_on_c, 9, 40, 0
11, 85710, Note_on_c, 9, 42, 0
11, 85710, Note_on_c, 9, 69, 0
11, 85800, Note_on_c, 9, 40, 112
11, 85830, Note_on_c, 9, 40, 0
11, 85920, Note_on_c, 9, 45, 112
11, 85920, Note_on_c, 9, 42, 61
11, 85950, Note_on_c, 9, 42, 0
11, 85950, Note_on_c, 9, 45, 0
11, 86040, Note_on_c, 9, 45, 112
11, 86040, Note_on_c, 9, 70, 47
11, 86070, Note_on_c, 9, 70, 0
11, 86070, Note_on_c, 9, 45, 0
11, 86160, Note_on_c, 9, 43, 112
11, 86160, Note_on_c, 9, 36, 88
11, 86160, Note_on_c, 9, 42, 112
11, 86160, Note_on_c, 9, 69, 47
11, 86160, Note_on_c, 9, 70, 52
11, 86190, Note_on_c, 9, 70, 0
11, 86190, Note_on_c, 9, 42, 0
11, 86190, Note_on_c, 9, 43, 0
11, 86190, Note_on_c, 9, 36, 0
11, 86190, Note_on_c, 9, 69, 0
11, 86280, Note_on_c, 9, 43, 112
11, 86310, Note_on_c, 9, 43, 0
11, 86400, Note_on_c, 9, 36, 113
11, 86400, Note_on_c, 9, 49, 116
11, 86430, Note_on_c, 9, 49, 0
11, 86430, Note_on_c, 9, 36, 0
11, 86520, Note_on_c, 9, 70, 52
11, 86550, Note_on_c, 9, 70, 0
11, 86640, Note_on_c, 9, 36, 105
11, 86640, Note_on_c, 9, 42, 101
11, 86640, Note_on_c, 9, 51, 109
11, 86640, Note_on_c, 9, 69, 46
11, 86640, Note_on_c, 9, 70, 42
11, 86670, Note_on_c, 9, 70, 0
11, 86670, Note_on_c, 9, 51, 0
11, 86670, Note_on_c, 9, 36, 0
11, 86670, Note_on_c, 9, 42, 0
11, 86670, Note_on_c, 9, 69, 0
11, 86760, Note_on_c, 9, 51, 59
11, 86790, Note_on_c, 9, 51, 0
11, 86880, Note_on_c, 9, 40, 116
11, 86880, Note_on_c, 9, 51, 72
11, 86910, Note_on_c, 9, 51, 0
11, 86910, Note_on_c, 9, 40, 0
11, 87000, Note_on_c, 9, 70, 50
11, 87030, Note_on_c, 9, 70, 0
11, 87120, Note_on_c, 9, 42, 99
11, 87120, Note_on_c, 9, 51, 96
11, 87120, Note_on_c, 9, 69, 47
11, 87120, Note_on_c, 9, 70, 46
11, 87150, Note_on_c, 9, 70, 0
11, 87150, Note_on_c, 9, 42, 0
11, 87150, Note_on_c, 9, 51, 0
11, 87150, Note_on_c, 9, 69, 0
11, 87240, Note_on_c, 9, 40, 113
11, 87240, Note_on_c, 9, 51, 66
11, 87270, Note_on_c, 9, 51, 0
11, 87270, Note_on_c, 9, 40, 0
11, 87360, Note_on_c, 9, 51, 109
11, 87390, Note_on_c, 9, 51, 0
11, 87480, Note_on_c, 9, 36, 90
11, 87480, Note_on_c, 9, 70, 47
11, 87510, Note_on_c, 9, 70, 0
11, 87510, Note_on_c, 9, 36, 0
11, 87600, Note_on_c, 9, 40, 112
11, 87600, Note_on_c, 9, 42, 115
11, 87600, Note_on_c, 9, 51, 94
11, 87600, Note_on_c, 9, 69, 42
11, 87600, Note_on_c, 9, 70, 48
11, 87630, Note_on_c, 9, 70, 0
11, 87630, Note_on_c, 9, 51, 0
11, 87630, Note_on_c, 9, 40, 0
11, 87630, Note_on_c, 9, 42, 0
11, 87630, Note_on_c, 9, 69, 0
11, 87720, Note_on_c, 9, 51, 73
11, 87750, Note_on_c, 9, 51, 0
11, 87840, Note_on_c, 9, 51, 109
11, 87870, Note_on_c, 9, 51, 0
11, 87960, Note_on_c, 9, 40, 115
11, 87960, Note_on_c, 9, 70, 47
11, 87990, Note_on_c, 9, 70, 0
11, 87990, Note_on_c, 9, 40, 0
11, 88080, Note_on_c, 9, 36, 88
11, 88080, Note_on_c, 9, 51, 88
11, 88080, Note_on_c, 9, 42, 115
11, 88080, Note_on_c, 9, 69, 47
11, 88080, Note_on_c, 9, 70, 52
11, 88110, Note_on_c, 9, 70, 0
11, 88110, Note_on_c, 9, 42, 0
11, 88110, Note_on_c, 9, 36, 0
11, 88110, Note_on_c, 9, 51, 0
11, 88110, Note_on_c, 9, 69, 0
11, 88200, Note_on_c, 9, 51, 74
11, 88230, Note_on_c, 9, 51, 0
11, 88320, Note_on_c, 9, 36, 98
11, 88320, Note_on_c, 9, 51, 109
11, 88350, Note_on_c, 9, 51, 0
11, 88350, Note_on_c, 9, 36, 0
11, 88440, Note_on_c, 9, 70, 47
11, 88470, Note_on_c, 9, 70, 0
11, 88560, Note_on_c, 9, 36, 100
11, 88560, Note_on_c, 9, 51, 99
11, 88560, Note_on_c, 9, 42, 112
11, 88560, Note_on_c, 9, 69, 48
11, 88560, Note_on_c, 9, 70, 33
11, 88590, Note_on_c, 9, 70, 0
11, 88590, Note_on_c, 9, 42, 0
11, 88590, Note_on_c, 9, 36, 0
11, 88590, Note_on_c, 9, 51, 0
11, 88590, Note_on_c, 9, 69, 0
11, 88680, Note_on_c, 9, 51, 64
11, 88710, Note_on_c, 9, 51, 0
11, 88800, Note_on_c, 9, 40, 111
11, 88800, Note_on_c, 9, 51, 94
11, 88830, Note_on_c, 9, 51, 0
11, 88830, Note_on_c, 9, 40, 0
11, 88920, Note_on_c, 9, 70, 44
11, 88950, Note_on_c, 9, 70, 0
11, 89040, Note_on_c, 9, 51, 49
11, 89040, Note_on_c, 9, 42, 118
11, 89040, Note_on_c, 9, 69, 51
11, 89040, Note_on_c, 9, 70, 59
11, 89070, Note_on_c, 9, 70, 0
11, 89070, Note_on_c, 9, 51, 0
11, 89070, Note_on_c, 9, 42, 0
11, 89070, Note_on_c, 9, 69, 0
11, 89160, Note_on_c, 9, 40, 113
11, 89160, Note_on_c, 9, 51, 91
11, 89190, Note_on_c, 9, 51, 0
11, 89190, Note_on_c, 9, 40, 0
11, 89280, Note_on_c, 9, 51, 66
11, 89310, Note_on_c, 9, 51, 0
11, 89400, Note_on_c, 9, 36, 98
11, 89400, Note_on_c, 9, 70, 47
11, 89430, Note_on_c, 9, 70, 0
11, 89430, Note_on_c, 9, 36, 0
11, 89520, Note_on_c, 9, 40, 116
11, 89520, Note_on_c, 9, 42, 115
11, 89520, Note_on_c, 9, 51, 113
11, 89520, Note_on_c, 9, 69, 50
11, 89520, Note_on_c, 9, 70, 65
11, 89550, Note_on_c, 9, 70, 0
11, 89550, Note_on_c, 9, 51, 0
11, 89550, Note_on_c, 9, 40, 0
11, 89550, Note_on_c, 9, 42, 0
11, 89550, Note_on_c, 9, 69, 0
11, 89640, Note_on_c, 9, 51, 77
11, 89670, Note_on_c, 9, 51, 0
11, 89760, Note_on_c, 9, 51, 87
11, 89790, Note_on_c, 9, 51, 0
11, 89880, Note_on_c, 9, 40, 117
11, 89880, Note_on_c, 9, 70, 51
11, 89910, Note_on_c, 9, 70, 0
11, 89910, Note_on_c, 9, 40, 0
11, 90000, Note_on_c, 9, 36, 91
11, 90000, Note_on_c, 9, 42, 115
11, 90000, Note_on_c, 9, 51, 112
11, 90000, Note_on_c, 9, 69, 50
11, 90000, Note_on_c, 9, 70, 47
11, 90030, Note_on_c, 9, 70, 0
11, 90030, Note_on_c, 9, 51, 0
11, 90030, Note_on_c, 9, 36, 0
11, 90030, Note_on_c, 9, 42, 0
11, 90030, Note_on_c, 9, 69, 0
11, 90120, Note_on_c, 9, 51, 75
11, 90150, Note_on_c, 9, 51, 0
11, 90240, Note_on_c, 9, 36, 116
11, 90240, Note_on_c, 9, 51, 80
11, 90270, Note_on_c, 9, 51, 0
11, 90270, Note_on_c, 9, 36, 0
11, 90360, Note_on_c, 9, 70, 53
11, 90390, Note_on_c, 9, 70, 0
11, 90480, Note_on_c, 9, 36, 109
11, 90480, Note_on_c, 9, 42, 112
11, 90480, Note_on_c, 9, 51, 109
11, 90480, Note_on_c, 9, 69, 46
11, 90480, Note_on_c, 9, 70, 55
11, 90510, Note_on_c, 9, 70, 0
11, 90510, Note_on_c, 9, 51, 0
11, 90510, Note_on_c, 9, 36, 0
11, 90510, Note_on_c, 9, 42, 0
11, 90510, Note_on_c, 9, 69, 0
11, 90600, Note_on_c, 9, 51, 72
11, 90630, Note_on_c, 9, 51, 0
11, 90720, Note_on_c, 9, 40, 105
11, 90720, Note_on_c, 9, 51, 99
11, 90750, Note_on_c, 9, 51, 0
11, 90750, Note_on_c, 9, 40, 0
11, 90840, Note_on_c, 9, 70, 52
11, 90870, Note_on_c, 9, 70, 0
11, 90960, Note_on_c, 9, 51, 105
11, 90960, Note_on_c, 9, 42, 115
11, 90960, Note_on_c, 9, 69, 46
11, 90960, Note_on_c, 9, 70, 71
11, 90990, Note_on_c, 9, 70, 0
11, 90990, Note_on_c, 9, 51, 0
11, 90990, Note_on_c, 9, 42, 0
11, 90990, Note_on_c, 9, 69, 0
11, 91080, Note_on_c, 9, 36, 105
11, 91080, Note_on_c, 9, 51, 68
11, 91110, Note_on_c, 9, 51, 0
11, 91110, Note_on_c, 9, 36, 0
11, 91200, Note_on_c, 9, 51, 70
11, 91230, Note_on_c, 9, 51, 0
11, 91320, Note_on_c, 9, 70, 51
11, 91350, Note_on_c, 9, 70, 0
11, 91440, Note_on_c, 9, 36, 113
11, 91440, Note_on_c, 9, 51, 91
11, 91440, Note_on_c, 9, 42, 109
11, 91440, Note_on_c, 9, 69, 46
11, 91440, Note_on_c, 9, 70, 57
11, 91470, Note_on_c, 9, 70, 0
11, 91470, Note_on_c, 9, 42, 0
11, 91470, Note_on_c, 9, 36, 0
11, 91470, Note_on_c, 9, 51, 0
11, 91470, Note_on_c, 9, 69, 0
11, 91560, Note_on_c, 9, 51, 72
11, 91590, Note_on_c, 9, 51, 0
11, 91680, Note_on_c, 9, 40, 103
11, 91680, Note_on_c, 9, 51, 101
11, 91710, Note_on_c, 9, 51, 0
11, 91710, Note_on_c, 9, 40, 0
11, 91800, Note_on_c, 9, 36, 119
11, 91800, Note_on_c, 9, 70, 51
11, 91830, Note_on_c, 9, 70, 0
11, 91830, Note_on_c, 9, 36, 0
11, 91920, Note_on_c, 9, 51, 101
11, 91920, Note_on_c, 9, 42, 115
11, 91920, Note_on_c, 9, 69, 45
11, 91920, Note_on_c, 9, 70, 65
11, 91950, Note_on_c, 9, 70, 0
11, 91950, Note_on_c, 9, 51, 0
11, 91950, Note_on_c, 9, 42, 0
11, 91950, Note_on_c, 9, 69, 0
11, 92040, Note_on_c, 9, 51, 74
11, 92070, Note_on_c, 9, 51, 0
11, 92160, Note_on_c, 9, 51, 87
11, 92190, Note_on_c, 9, 51, 0
11, 92280, Note_on_c, 9, 70, 47
11, 92310, Note_on_c, 9, 70, 0
11, 92400, Note_on_c, 9, 36, 109
11, 92400, Note_on_c, 9, 51, 101
11, 92400, Note_on_c, 9, 42, 113
11, 92400, Note_on_c, 9, 69, 43
11, 92400, Note_on_c, 9, 70, 59
11, 92430, Note_on_c, 9, 70, 0
11, 92430, Note_on_c, 9, 42, 0
11, 92430, Note_on_c, 9, 36, 0
11, 92430, Note_on_c, 9, 51, 0
11, 92430, Note_on_c, 9, 69, 0
11, 92520, Note_on_c, 9, 36, 91
11, 92520, Note_on_c, 9, 51, 65
11, 92550, Note_on_c, 9, 51, 0
11, 92550, Note_on_c, 9, 36, 0
11, 92640, Note_on_c, 9, 40, 118
11, 92640, Note_on_c, 9, 51, 91
11, 92670, Note_on_c, 9, 51, 0
11, 92670, Note_on_c, 9, 40, 0
11, 92760, Note_on_c, 9, 70, 48
11, 92790, Note_on_c, 9, 70, 0
11, 92880, Note_on_c, 9, 51, 112
11, 92880, Note_on_c, 9, 42, 109
11, 92880, Note_on_c, 9, 69, 41
11, 92880, Note_on_c, 9, 70, 49
11, 92910, Note_on_c, 9, 70, 0
11, 92910, Note_on_c, 9, 51, 0
11, 92910, Note_on_c, 9, 42, 0
11, 92910, Note_on_c, 9, 69, 0
11, 93000, Note_on_c, 9, 40, 121
11, 93000, Note_on_c, 9, 51, 73
11, 93030, Note_on_c, 9, 51, 0
11, 93030, Note_on_c, 9, 40, 0
11, 93120, Note_on_c, 9, 36, 92
11, 93120, Note_on_c, 9, 51, 99
11, 93150, Note_on_c, 9, 51, 0
11, 93150, Note_on_c, 9, 36, 0
11, 93240, Note_on_c, 9, 70, 52
11, 93270, Note_on_c, 9, 70, 0
11, 93360, Note_on_c, 9, 51, 88
11, 93360, Note_on_c, 9, 42, 105
11, 93360, Note_on_c, 9, 69, 48
11, 93360, Note_on_c, 9, 70, 41
11, 93390, Note_on_c, 9, 70, 0
11, 93390, Note_on_c, 9, 51, 0
11, 93390, Note_on_c, 9, 42, 0
11, 93390, Note_on_c, 9, 69, 0
11, 93480, Note_on_c, 9, 36, 113
11, 93480, Note_on_c, 9, 51, 68
11, 93510, Note_on_c, 9, 51, 0
11, 93510, Note_on_c, 9, 36, 0
11, 93600, Note_on_c, 9, 51, 99
11, 93630, Note_on_c, 9, 51, 0
11, 93720, Note_on_c, 9, 40, 118
11, 93720, Note_on_c, 9, 70, 49
11, 93750, Note_on_c, 9, 70, 0
11, 93750, Note_on_c, 9, 40, 0
11, 93840, Note_on_c, 9, 40, 100
11, 93840, Note_on_c, 9, 51, 105
11, 93840, Note_on_c, 9, 42, 112
11, 93840, Note_on_c, 9, 69, 50
11, 93840, Note_on_c, 9, 70, 53
11, 93870, Note_on_c, 9, 70, 0
11, 93870, Note_on_c, 9, 42, 0
11, 93870, Note_on_c, 9, 40, 0
11, 93870, Note_on_c, 9, 51, 0
11, 93870, Note_on_c, 9, 69, 0
11, 93960, Note_on_c, 9, 40, 115
11, 93960, Note_on_c, 9, 51, 67
11, 93990, Note_on_c, 9, 51, 0
11, 93990, Note_on_c, 9, 40, 0
11, 94080, Note_on_c, 9, 36, 116
11, 94080, Note_on_c, 9, 51, 109
11, 94110, Note_on_c, 9, 51, 0
11, 94110, Note_on_c, 9, 36, 0
11, 94200, Note_on_c, 9, 70, 48
11, 94230, Note_on_c, 9, 70, 0
11, 94320, Note_on_c, 9, 36, 116
11, 94320, Note_on_c, 9, 51, 91
11, 94320, Note_on_c, 9, 42, 105
11, 94320, Note_on_c, 9, 69, 47
11, 94320, Note_on_c, 9, 70, 48
11, 94350, Note_on_c, 9, 70, 0
11, 94350, Note_on_c, 9, 42, 0
11, 94350, Note_on_c, 9, 36, 0
11, 94350, Note_on_c, 9, 51, 0
11, 94350, Note_on_c, 9, 69, 0
11, 94440, Note_on_c, 9, 51, 70
11, 94470, Note_on_c, 9, 51, 0
11, 94560, Note_on_c, 9, 40, 123
11, 94560, Note_on_c, 9, 51, 64
11, 94590, Note_on_c, 9, 51, 0
11, 94590, Note_on_c, 9, 40, 0
11, 94680, Note_on_c, 9, 70, 46
11, 94710, Note_on_c, 9, 70, 0
11, 94800, Note_on_c, 9, 51, 99
11, 94800, Note_on_c, 9, 42, 101
11, 94800, Note_on_c, 9, 69, 50
11, 94800, Note_on_c, 9, 70, 48
11, 94830, Note_on_c, 9, 70, 0
11, 94830, Note_on_c, 9, 51, 0
11, 94830, Note_on_c, 9, 42, 0
11, 94830, Note_on_c, 9, 69, 0
11, 94920, Note_on_c, 9, 40, 91
11, 94920, Note_on_c, 9, 51, 59
11, 94950, Note_on_c, 9, 51, 0
11, 94950, Note_on_c, 9, 40, 0
11, 95040, Note_on_c, 9, 51, 40
11, 95070, Note_on_c, 9, 51, 0
11, 95160, Note_on_c, 9, 36, 105
11, 95160, Note_on_c, 9, 70, 48
11, 95190, Note_on_c, 9, 70, 0
11, 95190, Note_on_c, 9, 36, 0
11, 95280, Note_on_c, 9, 40, 103
11, 95280, Note_on_c, 9, 51, 99
11, 95280, Note_on_c, 9, 42, 105
11, 95280, Note_on_c, 9, 69, 49
11, 95280, Note_on_c, 9, 70, 73
11, 95310, Note_on_c, 9, 70, 0
11, 95310, Note_on_c, 9, 42, 0
11, 95310, Note_on_c, 9, 40, 0
11, 95310, Note_on_c, 9, 51, 0
11, 95310, Note_on_c, 9, 69, 0
11, 95400, Note_on_c, 9, 51, 70
11, 95430, Note_on_c, 9, 51, 0
11, 95520, Note_on_c, 9, 51, 101
11, 95550, Note_on_c, 9, 51, 0
11, 95640, Note_on_c, 9, 40, 86
11, 95640, Note_on_c, 9, 70, 43
11, 95670, Note_on_c, 9, 70, 0
11, 95670, Note_on_c, 9, 40, 0
11, 95760, Note_on_c, 9, 36, 91
11, 95760, Note_on_c, 9, 51, 109
11, 95760, Note_on_c, 9, 42, 101
11, 95760, Note_on_c, 9, 69, 45
11, 95760, Note_on_c, 9, 70, 67
11, 95790, Note_on_c, 9, 70, 0
11, 95790, Note_on_c, 9, 42, 0
11, 95790, Note_on_c, 9, 36, 0
11, 95790, Note_on_c, 9, 51, 0
11, 95790, Note_on_c, 9, 69, 0
11, 95880, Note_on_c, 9, 51, 73
11, 95910, Note_on_c, 9, 51, 0
11, 96000, Note_on_c, 9, 36, 113
11, 96000, Note_on_c, 9, 51, 101
11, 96030, Note_on_c, 9, 51, 0
11, 96030, Note_on_c, 9, 36, 0
11, 96120, Note_on_c, 9, 70, 40
11, 96150, Note_on_c, 9, 70, 0
11, 96240, Note_on_c, 9, 36, 113
11, 96240, Note_on_c, 9, 42, 113
11, 96240, Note_on_c, 9, 51, 99
11, 96240, Note_on_c, 9, 69, 51
11, 96240, Note_on_c, 9, 70, 71
11, 96270, Note_on_c, 9, 70, 0
11, 96270, Note_on_c, 9, 51, 0
11, 96270, Note_on_c, 9, 36, 0
11, 96270, Note_on_c, 9, 42, 0
11, 96270, Note_on_c, 9, 69, 0
11, 96360, Note_on_c, 9, 51, 72
11, 96390, Note_on_c, 9, 51, 0
11, 96480, Note_on_c, 9, 40, 103
11, 96480, Note_on_c, 9, 51, 80
11, 96510, Note_on_c, 9, 51, 0
11, 96510, Note_on_c, 9, 40, 0
11, 96600, Note_on_c, 9, 70, 47
11, 96630, Note_on_c, 9, 70, 0
11, 96720, Note_on_c, 9, 42, 105
11, 96720, Note_on_c, 9, 51, 94
11, 96720, Note_on_c, 9, 69, 50
11, 96720, Note_on_c, 9, 70, 53
11, 96750, Note_on_c, 9, 70, 0
11, 96750, Note_on_c, 9, 42, 0
11, 96750, Note_on_c, 9, 51, 0
11, 96750, Note_on_c, 9, 69, 0
11, 96840, Note_on_c, 9, 40, 113
11, 96840, Note_on_c, 9, 51, 75
11, 96870, Note_on_c, 9, 51, 0
11, 96870, Note_on_c, 9, 40, 0
11, 96960, Note_on_c, 9, 51, 66
11, 96990, Note_on_c, 9, 51, 0
11, 97080, Note_on_c, 9, 36, 98
11, 97080, Note_on_c, 9, 70, 48
11, 97110, Note_on_c, 9, 70, 0
11, 97110, Note_on_c, 9, 36, 0
11, 97200, Note_on_c, 9, 40, 100
11, 97200, Note_on_c, 9, 42, 99
11, 97200, Note_on_c, 9, 51, 105
11, 97200, Note_on_c, 9, 69, 53
11, 97200, Note_on_c, 9, 70, 64
11, 97230, Note_on_c, 9, 70, 0
11, 97230, Note_on_c, 9, 51, 0
11, 97230, Note_on_c, 9, 40, 0
11, 97230, Note_on_c, 9, 42, 0
11, 97230, Note_on_c, 9, 69, 0
11, 97320, Note_on_c, 9, 51, 64
11, 97350, Note_on_c, 9, 51, 0
11, 97440, Note_on_c, 9, 51, 94
11, 97470, Note_on_c, 9, 51, 0
11, 97560, Note_on_c, 9, 40, 102
11, 97560, Note_on_c, 9, 70, 47
11, 97590, Note_on_c, 9, 70, 0
11, 97590, Note_on_c, 9, 40, 0
11, 97680, Note_on_c, 9, 40, 115
11, 97680, Note_on_c, 9, 51, 99
11, 97680, Note_on_c, 9, 42, 105
11, 97680, Note_on_c, 9, 69, 50
11, 97680, Note_on_c, 9, 70, 50
11, 97710, Note_on_c, 9, 70, 0
11, 97710, Note_on_c, 9, 42, 0
11, 97710, Note_on_c, 9, 40, 0
11, 97710, Note_on_c, 9, 51, 0
11, 97710, Note_on_c, 9, 69, 0
11, 97800, Note_on_c, 9, 40, 121
11, 97800, Note_on_c, 9, 51, 65
11, 97830, Note_on_c, 9, 51, 0
11, 97830, Note_on_c, 9, 40, 0
11, 97920, Note_on_c, 9, 36, 100
11, 97920, Note_on_c, 9, 51, 105
11, 97950, Note_on_c, 9, 51, 0
11, 97950, Note_on_c, 9, 36, 0
11, 98040, Note_on_c, 9, 70, 48
11, 98070, Note_on_c, 9, 70, 0
11, 98160, Note_on_c, 9, 36, 122
11, 98160, Note_on_c, 9, 51, 94
11, 98160, Note_on_c, 9, 42, 115
11, 98160, Note_on_c, 9, 69, 53
11, 98160, Note_on_c, 9, 70, 53
11, 98190, Note_on_c, 9, 70, 0
11, 98190, Note_on_c, 9, 42, 0
11, 98190, Note_on_c, 9, 36, 0
11, 98190, Note_on_c, 9, 51, 0
11, 98190, Note_on_c, 9, 69, 0
11, 98280, Note_on_c, 9, 51, 71
11, 98310, Note_on_c, 9, 51, 0
11, 98400, Note_on_c, 9, 40, 113
11, 98400, Note_on_c, 9, 51, 77
11, 98430, Note_on_c, 9, 51, 0
11, 98430, Note_on_c, 9, 40, 0
11, 98520, Note_on_c, 9, 70, 47
11, 98550, Note_on_c, 9, 70, 0
11, 98640, Note_on_c, 9, 51, 99
11, 98640, Note_on_c, 9, 42, 115
11, 98640, Note_on_c, 9, 69, 52
11, 98640, Note_on_c, 9, 70, 62
11, 98670, Note_on_c, 9, 70, 0
11, 98670, Note_on_c, 9, 51, 0
11, 98670, Note_on_c, 9, 42, 0
11, 98670, Note_on_c, 9, 69, 0
11, 98760, Note_on_c, 9, 40, 105
11, 98760, Note_on_c, 9, 51, 64
11, 98790, Note_on_c, 9, 51, 0
11, 98790, Note_on_c, 9, 40, 0
11, 98880, Note_on_c, 9, 51, 99
11, 98910, Note_on_c, 9, 51, 0
11, 99000, Note_on_c, 9, 36, 92
11, 99000, Note_on_c, 9, 70, 46
11, 99030, Note_on_c, 9, 70, 0
11, 99030, Note_on_c, 9, 36, 0
11, 99120, Note_on_c, 9, 40, 100
11, 99120, Note_on_c, 9, 51, 88
11, 99120, Note_on_c, 9, 42, 115
11, 99120, Note_on_c, 9, 69, 51
11, 99120, Note_on_c, 9, 70, 74
11, 99150, Note_on_c, 9, 70, 0
11, 99150, Note_on_c, 9, 42, 0
11, 99150, Note_on_c, 9, 40, 0
11, 99150, Note_on_c, 9, 51, 0
11, 99150, Note_on_c, 9, 69, 0
11, 99240, Note_on_c, 9, 51, 70
11, 99270, Note_on_c, 9, 51, 0
11, 99360, Note_on_c, 9, 51, 96
11, 99390, Note_on_c, 9, 51, 0
11, 99480, Note_on_c, 9, 40, 113
11, 99480, Note_on_c, 9, 70, 51
11, 99510, Note_on_c, 9, 70, 0
11, 99510, Note_on_c, 9, 40, 0
11, 99600, Note_on_c, 9, 36, 91
11, 99600, Note_on_c, 9, 51, 99
11, 99600, Note_on_c, 9, 42, 109
11, 99600, Note_on_c, 9, 69, 52
11, 99600, Note_on_c, 9, 70, 69
11, 99630, Note_on_c, 9, 70, 0
11, 99630, Note_on_c, 9, 42, 0
11, 99630, Note_on_c, 9, 36, 0
11, 99630, Note_on_c, 9, 51, 0
11, 99630, Note_on_c, 9, 69, 0
11, 99720, Note_on_c, 9, 51, 74
11, 99750, Note_on_c, 9, 51, 0
11, 99840, Note_on_c, 9, 36, 119
11, 99840, Note_on_c, 9, 51, 99
11, 99870, Note_on_c, 9, 51, 0
11, 99870, Note_on_c, 9, 36, 0
11, 99960, Note_on_c, 9, 70, 47
11, 99990, Note_on_c, 9, 70, 0
11, 100080, Note_on_c, 9, 36, 116
11, 100080, Note_on_c, 9, 51, 94
11, 100080, Note_on_c, 9, 42, 112
11, 100080, Note_on_c, 9, 69, 50
11, 100080, Note_on_c, 9, 70, 58
11, 100110, Note_on_c, 9, 70, 0
11, 100110, Note_on_c, 9, 42, 0
11, 100110, Note_on_c, 9, 36, 0
11, 100110, Note_on_c, 9, 51, 0
11, 100110, Note_on_c, 9, 69, 0
11, 100200, Note_on_c, 9, 51, 75
11, 100230, Note_on_c, 9, 51, 0
11, 100320, Note_on_c, 9, 40, 113
11, 100320, Note_on_c, 9, 51, 99
11, 100350, Note_on_c, 9, 51, 0
11, 100350, Note_on_c, 9, 40, 0
11, 100440, Note_on_c, 9, 70, 49
11, 100470, Note_on_c, 9, 70, 0
11, 100560, Note_on_c, 9, 42, 113
11, 100560, Note_on_c, 9, 51, 109
11, 100560, Note_on_c, 9, 69, 53
11, 100560, Note_on_c, 9, 70, 56
11, 100590, Note_on_c, 9, 70, 0
11, 100590, Note_on_c, 9, 42, 0
11, 100590, Note_on_c, 9, 51, 0
11, 100590, Note_on_c, 9, 69, 0
11, 100680, Note_on_c, 9, 40, 100
11, 100680, Note_on_c, 9, 51, 76
11, 100710, Note_on_c, 9, 51, 0
11, 100710, Note_on_c, 9, 40, 0
11, 100800, Note_on_c, 9, 40, 76
11, 100800, Note_on_c, 9, 51, 91
11, 100830, Note_on_c, 9, 51, 0
11, 100830, Note_on_c, 9, 40, 0
11, 100920, Note_on_c, 9, 70, 49
11, 100950, Note_on_c, 9, 70, 0
11, 101040, Note_on_c, 9, 40, 109
11, 101040, Note_on_c, 9, 42, 115
11, 101040, Note_on_c, 9, 51, 121
11, 101040, Note_on_c, 9, 69, 49
11, 101040, Note_on_c, 9, 70, 48
11, 101070, Note_on_c, 9, 70, 0
11, 101070, Note_on_c, 9, 51, 0
11, 101070, Note_on_c, 9, 40, 0
11, 101070, Note_on_c, 9, 42, 0
11, 101070, Note_on_c, 9, 69, 0
11, 101280, Note_on_c, 9, 40, 113
11, 101310, Note_on_c, 9, 40, 0
11, 101400, Note_on_c, 9, 40, 122
11, 101400, Note_on_c, 9, 70, 47
11, 101430, Note_on_c, 9, 70, 0
11, 101430, Note_on_c, 9, 40, 0
11, 101520, Note_on_c, 9, 40, 127
11, 101520, Note_on_c, 9, 42, 118
11, 101520, Note_on_c, 9, 69, 59
11, 101520, Note_on_c, 9, 70, 75
11, 101550, Note_on_c, 9, 70, 0
11, 101550, Note_on_c, 9, 40, 0
11, 101550, Note_on_c, 9, 42, 0
11, 101550, Note_on_c, 9, 69, 0
11, 101640, Note_on_c, 9, 40, 127
11, 101670, Note_on_c, 9, 40, 0
11, 101760, Note_on_c, 9, 36, 113
11, 101760, Note_on_c, 9, 42, 94
11, 101790, Note_on_c, 9, 42, 0
11, 101790, Note_on_c, 9, 36, 0
11, 101880, Note_on_c, 9, 70, 52
11, 101910, Note_on_c, 9, 70, 0
11, 102000, Note_on_c, 9, 36, 105
11, 102000, Note_on_c, 9, 42, 115
11, 102000, Note_on_c, 9, 69, 46
11, 102000, Note_on_c, 9, 70, 42
11, 102030, Note_on_c, 9, 70, 0
11, 102030, Note_on_c, 9, 36, 0
11, 102030, Note_on_c, 9, 42, 0
11, 102030, Note_on_c, 9, 69, 0
11, 102240, Note_on_c, 9, 40, 116
11, 102240, Note_on_c, 9, 42, 62
11, 102270, Note_on_c, 9, 42, 0
11, 102270, Note_on_c, 9, 40, 0
11, 102360, Note_on_c, 9, 70, 50
11, 102390, Note_on_c, 9, 70, 0
11, 102480, Note_on_c, 9, 42, 109
11, 102480, Note_on_c, 9, 69, 47
11, 102480, Note_on_c, 9, 70, 46
11, 102510, Note_on_c, 9, 70, 0
11, 102510, Note_on_c, 9, 69, 0
11, 102510, Note_on_c, 9, 42, 0
11, 102600, Note_on_c, 9, 40, 113
11, 102630, Note_on_c, 9, 40, 0
11, 102720, Note_on_c, 9, 42, 49
11, 102750, Note_on_c, 9, 42, 0
11, 102840, Note_on_c, 9, 36, 90
11, 102840, Note_on_c, 9, 70, 47
11, 102870, Note_on_c, 9, 70, 0
11, 102870, Note_on_c, 9, 36, 0
11, 102960, Note_on_c, 9, 40, 112
11, 102960, Note_on_c, 9, 42, 118
11, 102960, Note_on_c, 9, 69, 42
11, 102960, Note_on_c, 9, 70, 48
11, 102990, Note_on_c, 9, 70, 0
11, 102990, Note_on_c, 9, 40, 0
11, 102990, Note_on_c, 9, 42, 0
11, 102990, Note_on_c, 9, 69, 0
11, 103200, Note_on_c, 9, 42, 61
11, 103230, Note_on_c, 9, 42, 0
11, 103320, Note_on_c, 9, 40, 115
11, 103320, Note_on_c, 9, 70, 47
11, 103350, Note_on_c, 9, 70, 0
11, 103350, Note_on_c, 9, 40, 0
11, 103440, Note_on_c, 9, 36, 88
11, 103440, Note_on_c, 9, 42, 112
11, 103440, Note_on_c, 9, 69, 47
11, 103440, Note_on_c, 9, 70, 52
11, 103470, Note_on_c, 9, 70, 0
11, 103470, Note_on_c, 9, 36, 0
11, 103470, Note_on_c, 9, 42, 0
11, 103470, Note_on_c, 9, 69, 0
11, 103680, Note_on_c, 9, 36, 98
11, 103680, Note_on_c, 9, 42, 69
11, 103710, Note_on_c, 9, 42, 0
11, 103710, Note_on_c, 9, 36, 0
11, 103800, Note_on_c, 9, 70, 47
11, 103830, Note_on_c, 9, 70, 0
11, 103920, Note_on_c, 9, 36, 100
11, 103920, Note_on_c, 9, 42, 115
11, 103920, Note_on_c, 9, 69, 48
11, 103920, Note_on_c, 9, 70, 33
11, 103950, Note_on_c, 9, 70, 0
11, 103950, Note_on_c, 9, 36, 0
11, 103950, Note_on_c, 9, 42, 0
11, 103950, Note_on_c, 9, 69, 0
11, 104160, Note_on_c, 9, 40, 111
11, 104160, Note_on_c, 9, 42, 76
11, 104190, Note_on_c, 9, 42, 0
11, 104190, Note_on_c, 9, 40, 0
11, 104280, Note_on_c, 9, 70, 44
11, 104310, Note_on_c, 9, 70, 0
11, 104400, Note_on_c, 9, 42, 112
11, 104400, Note_on_c, 9, 69, 51
11, 104400, Note_on_c, 9, 70, 59
11, 104430, Note_on_c, 9, 70, 0
11, 104430, Note_on_c, 9, 69, 0
11, 104430, Note_on_c, 9, 42, 0
11, 104520, Note_on_c, 9, 40, 113
11, 104550, Note_on_c, 9, 40, 0
11, 104640, Note_on_c, 9, 42, 59
11, 104670, Note_on_c, 9, 42, 0
11, 104760, Note_on_c, 9, 36, 98
11, 104760, Note_on_c, 9, 70, 47
11, 104790, Note_on_c, 9, 70, 0
11, 104790, Note_on_c, 9, 36, 0
11, 104880, Note_on_c, 9, 40, 116
11, 104880, Note_on_c, 9, 42, 115
11, 104880, Note_on_c, 9, 69, 50
11, 104880, Note_on_c, 9, 70, 65
11, 104910, Note_on_c, 9, 70, 0
11, 104910, Note_on_c, 9, 40, 0
11, 104910, Note_on_c, 9, 42, 0
11, 104910, Note_on_c, 9, 69, 0
11, 105000, Note_on_c, 9, 46, 82
11, 105030, Note_on_c, 9, 46, 0
11, 105120, Note_on_c, 9, 42, 60
11, 105150, Note_on_c, 9, 42, 0
11, 105240, Note_on_c, 9, 40, 117
11, 105240, Note_on_c, 9, 49, 82
11, 105240, Note_on_c, 9, 70, 51
11, 105270, Note_on_c, 9, 70, 0
11, 105270, Note_on_c, 9, 49, 0
11, 105270, Note_on_c, 9, 40, 0
11, 105360, Note_on_c, 9, 36, 91
11, 105360, Note_on_c, 9, 42, 113
11, 105360, Note_on_c, 9, 69, 50
11, 105360, Note_on_c, 9, 70, 47
11, 105390, Note_on_c, 9, 70, 0
11, 105390, Note_on_c, 9, 36, 0
11, 105390, Note_on_c, 9, 42, 0
11, 105390, Note_on_c, 9, 69, 0
11, 105600, Note_on_c, 9, 36, 116
11, 105600, Note_on_c, 9, 42, 59
11, 105630, Note_on_c, 9, 42, 0
11, 105630, Note_on_c, 9, 36, 0
11, 105720, Note_on_c, 9, 70, 53
11, 105750, Note_on_c, 9, 70, 0
11, 105840, Note_on_c, 9, 36, 109
11, 105840, Note_on_c, 9, 42, 109
11, 105840, Note_on_c, 9, 69, 46
11, 105840, Note_on_c, 9, 70, 55
11, 105870, Note_on_c, 9, 70, 0
11, 105870, Note_on_c, 9, 36, 0
11, 105870, Note_on_c, 9, 42, 0
11, 105870, Note_on_c, 9, 69, 0
11, 106080, Note_on_c, 9, 40, 105
11, 106080, Note_on_c, 9, 42, 63
11, 106110, Note_on_c, 9, 42, 0
11, 106110, Note_on_c, 9, 40, 0
11, 106200, Note_on_c, 9, 70, 52
11, 106230, Note_on_c, 9, 70, 0
11, 106320, Note_on_c, 9, 42, 115
11, 106320, Note_on_c, 9, 69, 46
11, 106320, Note_on_c, 9, 70, 71
11, 106350, Note_on_c, 9, 70, 0
11, 106350, Note_on_c, 9, 69, 0
11, 106350, Note_on_c, 9, 42, 0
11, 106440, Note_on_c, 9, 36, 105
11, 106470, Note_on_c, 9, 36, 0
11, 106560, Note_on_c, 9, 42, 61
11, 106590, Note_on_c, 9, 42, 0
11, 106680, Note_on_c, 9, 70, 51
11, 106710, Note_on_c, 9, 70, 0
11, 106800, Note_on_c, 9, 36, 113
11, 106800, Note_on_c, 9, 42, 115
11, 106800, Note_on_c, 9, 69, 46
11, 106800, Note_on_c, 9, 70, 57
11, 106830, Note_on_c, 9, 70, 0
11, 106830, Note_on_c, 9, 36, 0
11, 106830, Note_on_c, 9, 42, 0
11, 106830, Note_on_c, 9, 69, 0
11, 107040, Note_on_c, 9, 40, 103
11, 107040, Note_on_c, 9, 42, 78
11, 107070, Note_on_c, 9, 42, 0
11, 107070, Note_on_c, 9, 40, 0
11, 107160, Note_on_c, 9, 36, 119
11, 107160, Note_on_c, 9, 46, 82
11, 107160, Note_on_c, 9, 70, 51
11, 107190, Note_on_c, 9, 70, 0
11, 107190, Note_on_c, 9, 46, 0
11, 107190, Note_on_c, 9, 36, 0
11, 107280, Note_on_c, 9, 42, 69
11, 107280, Note_on_c, 9, 69, 45
11, 107280, Note_on_c, 9, 70, 65
11, 107310, Note_on_c, 9, 70, 0
11, 107310, Note_on_c, 9, 69, 0
11, 107310, Note_on_c, 9, 42, 0
11, 107520, Note_on_c, 9, 42, 109
11, 107550, Note_on_c, 9, 42, 0
11, 107640, Note_on_c, 9, 70, 47
11, 107670, Note_on_c, 9, 70, 0
11, 107760, Note_on_c, 9, 36, 109
11, 107760, Note_on_c, 9, 42, 96
11, 107760, Note_on_c, 9, 69, 43
11, 107760, Note_on_c, 9, 70, 59
11, 107790, Note_on_c, 9, 70, 0
11, 107790, Note_on_c, 9, 36, 0
11, 107790, Note_on_c, 9, 42, 0
11, 107790, Note_on_c, 9, 69, 0
11, 107880, Note_on_c, 9, 36, 91
11, 107910, Note_on_c, 9, 36, 0
11, 108000, Note_on_c, 9, 40, 118
11, 108000, Note_on_c, 9, 42, 64
11, 108030, Note_on_c, 9, 42, 0
11, 108030, Note_on_c, 9, 40, 0
11, 108120, Note_on_c, 9, 70, 48
11, 108150, Note_on_c, 9, 70, 0
11, 108240, Note_on_c, 9, 42, 112
11, 108240, Note_on_c, 9, 69, 41
11, 108240, Note_on_c, 9, 70, 49
11, 108270, Note_on_c, 9, 70, 0
11, 108270, Note_on_c, 9, 69, 0
11, 108270, Note_on_c, 9, 42, 0
11, 108360, Note_on_c, 9, 40, 121
11, 108390, Note_on_c, 9, 40, 0
11, 108480, Note_on_c, 9, 36, 92
11, 108480, Note_on_c, 9, 42, 78
11, 108510, Note_on_c, 9, 42, 0
11, 108510, Note_on_c, 9, 36, 0
11, 108600, Note_on_c, 9, 70, 52
11, 108630, Note_on_c, 9, 70, 0
11, 108720, Note_on_c, 9, 42, 99
11, 108720, Note_on_c, 9, 69, 48
11, 108720, Note_on_c, 9, 70, 41
11, 108750, Note_on_c, 9, 70, 0
11, 108750, Note_on_c, 9, 69, 0
11, 108750, Note_on_c, 9, 42, 0
11, 108840, Note_on_c, 9, 36, 113
11, 108840, Note_on_c, 9, 46, 80
11, 108870, Note_on_c, 9, 46, 0
11, 108870, Note_on_c, 9, 36, 0
11, 108960, Note_on_c, 9, 42, 96
11, 108990, Note_on_c, 9, 42, 0
11, 109080, Note_on_c, 9, 40, 118
11, 109080, Note_on_c, 9, 70, 49
11, 109110, Note_on_c, 9, 70, 0
11, 109110, Note_on_c, 9, 40, 0
11, 109200, Note_on_c, 9, 40, 100
11, 109200, Note_on_c, 9, 42, 88
11, 109200, Note_on_c, 9, 69, 50
11, 109200, Note_on_c, 9, 70, 53
11, 109230, Note_on_c, 9, 70, 0
11, 109230, Note_on_c, 9, 40, 0
11, 109230, Note_on_c, 9, 42, 0
11, 109230, Note_on_c, 9, 69, 0
11, 109320, Note_on_c, 9, 40, 115
11, 109350, Note_on_c, 9, 40, 0
11, 109440, Note_on_c, 9, 36, 116
11, 109440, Note_on_c, 9, 42, 78
11, 109470, Note_on_c, 9, 42, 0
11, 109470, Note_on_c, 9, 36, 0
11, 109560, Note_on_c, 9, 70, 48
11, 109590, Note_on_c, 9, 70, 0
11, 109680, Note_on_c, 9, 36, 116
11, 109680, Note_on_c, 9, 42, 112
11, 109680, Note_on_c, 9, 69, 47
11, 109680, Note_on_c, 9, 70, 48
11, 109710, Note_on_c, 9, 70, 0
11, 109710, Note_on_c, 9, 36, 0
11, 109710, Note_on_c, 9, 42, 0
11, 109710, Note_on_c, 9, 69, 0
11, 109920, Note_on_c, 9, 40, 123
11, 109920, Note_on_c, 9, 42, 88
11, 109950, Note_on_c, 9, 42, 0
11, 109950, Note_on_c, 9, 40, 0
11, 110040, Note_on_c, 9, 70, 46
11, 110070, Note_on_c, 9, 70, 0
11, 110160, Note_on_c, 9, 42, 121
11, 110160, Note_on_c, 9, 69, 50
11, 110160, Note_on_c, 9, 70, 48
11, 110190, Note_on_c, 9, 70, 0
11, 110190, Note_on_c, 9, 69, 0
11, 110190, Note_on_c, 9, 42, 0
11, 110280, Note_on_c, 9, 40, 91
11, 110310, Note_on_c, 9, 40, 0
11, 110400, Note_on_c, 9, 42, 58
11, 110430, Note_on_c, 9, 42, 0
11, 110520, Note_on_c, 9, 36, 105
11, 110520, Note_on_c, 9, 70, 48
11, 110550, Note_on_c, 9, 70, 0
11, 110550, Note_on_c, 9, 36, 0
11, 110640, Note_on_c, 9, 40, 103
11, 110640, Note_on_c, 9, 42, 115
11, 110640, Note_on_c, 9, 69, 49
11, 110640, Note_on_c, 9, 70, 73
11, 110670, Note_on_c, 9, 70, 0
11, 110670, Note_on_c, 9, 40, 0
11, 110670, Note_on_c, 9, 42, 0
11, 110670, Note_on_c, 9, 69, 0
11, 110880, Note_on_c, 9, 42, 60
11, 110910, Note_on_c, 9, 42, 0
11, 111000, Note_on_c, 9, 40, 86
11, 111000, Note_on_c, 9, 70, 43
11, 111030, Note_on_c, 9, 70, 0
11, 111030, Note_on_c, 9, 40, 0
11, 111120, Note_on_c, 9, 36, 91
11, 111120, Note_on_c, 9, 42, 112
11, 111120, Note_on_c, 9, 69, 45
11, 111120, Note_on_c, 9, 70, 67
11, 111150, Note_on_c, 9, 70, 0
11, 111150, Note_on_c, 9, 36, 0
11, 111150, Note_on_c, 9, 42, 0
11, 111150, Note_on_c, 9, 69, 0
11, 111360, Note_on_c, 9, 36, 113
11, 111360, Note_on_c, 9, 42, 59
11, 111390, Note_on_c, 9, 42, 0
11, 111390, Note_on_c, 9, 36, 0
11, 111480, Note_on_c, 9, 70, 40
11, 111510, Note_on_c, 9, 70, 0
11, 111600, Note_on_c, 9, 36, 113
11, 111600, Note_on_c, 9, 42, 115
11, 111600, Note_on_c, 9, 69, 51
11, 111600, Note_on_c, 9, 70, 71
11, 111630, Note_on_c, 9, 70, 0
11, 111630, Note_on_c, 9, 36, 0
11, 111630, Note_on_c, 9, 42, 0
11, 111630, Note_on_c, 9, 69, 0
11, 111840, Note_on_c, 9, 40, 103
11, 111840, Note_on_c, 9, 42, 61
11, 111870, Note_on_c, 9, 42, 0
11, 111870, Note_on_c, 9, 40, 0
11, 111960, Note_on_c, 9, 70, 47
11, 111990, Note_on_c, 9, 70, 0
11, 112080, Note_on_c, 9, 42, 113
11, 112080, Note_on_c, 9, 69, 50
11, 112080, Note_on_c, 9, 70, 53
11, 112110, Note_on_c, 9, 70, 0
11, 112110, Note_on_c, 9, 69, 0
11, 112110, Note_on_c, 9, 42, 0
11, 112200, Note_on_c, 9, 40, 113
11, 112230, Note_on_c, 9, 40, 0
11, 112320, Note_on_c, 9, 42, 58
11, 112350, Note_on_c, 9, 42, 0
11, 112440, Note_on_c, 9, 36, 98
11, 112440, Note_on_c, 9, 70, 48
11, 112470, Note_on_c, 9, 70, 0
11, 112470, Note_on_c, 9, 36, 0
11, 112560, Note_on_c, 9, 40, 100
11, 112560, Note_on_c, 9, 42, 113
11, 112560, Note_on_c, 9, 69, 53
11, 112560, Note_on_c, 9, 70, 64
11, 112590, Note_on_c, 9, 70, 0
11, 112590, Note_on_c, 9, 40, 0
11, 112590, Note_on_c, 9, 42, 0
11, 112590, Note_on_c, 9, 69, 0
11, 112800, Note_on_c, 9, 42, 63
11, 112830, Note_on_c, 9, 42, 0
11, 112920, Note_on_c, 9, 40, 102
11, 112920, Note_on_c, 9, 70, 47
11, 112950, Note_on_c, 9, 70, 0
11, 112950, Note_on_c, 9, 40, 0
11, 113040, Note_on_c, 9, 40, 115
11, 113040, Note_on_c, 9, 42, 113
11, 113040, Note_on_c, 9, 69, 50
11, 113040, Note_on_c, 9, 70, 50
11, 113070, Note_on_c, 9, 70, 0
11, 113070, Note_on_c, 9, 40, 0
11, 113070, Note_on_c, 9, 42, 0
11, 113070, Note_on_c, 9, 69, 0
11, 113160, Note_on_c, 9, 40, 121
11, 113190, Note_on_c, 9, 40, 0
11, 113280, Note_on_c, 9, 36, 100
11, 113280, Note_on_c, 9, 42, 76
11, 113310, Note_on_c, 9, 42, 0
11, 113310, Note_on_c, 9, 36, 0
11, 113400, Note_on_c, 9, 46, 70
11, 113400, Note_on_c, 9, 70, 48
11, 113430, Note_on_c, 9, 70, 0
11, 113430, Note_on_c, 9, 46, 0
11, 113520, Note_on_c, 9, 36, 122
11, 113520, Note_on_c, 9, 42, 77
11, 113520, Note_on_c, 9, 69, 53
11, 113520, Note_on_c, 9, 70, 53
11, 113550, Note_on_c, 9, 70, 0
11, 113550, Note_on_c, 9, 36, 0
11, 113550, Note_on_c, 9, 42, 0
11, 113550, Note_on_c, 9, 69, 0
11, 113760, Note_on_c, 9, 40, 113
11, 113760, Note_on_c, 9, 42, 94
11, 113790, Note_on_c, 9, 42, 0
11, 113790, Note_on_c, 9, 40, 0
11, 113880, Note_on_c, 9, 70, 47
11, 113910, Note_on_c, 9, 70, 0
11, 114000, Note_on_c, 9, 42, 109
11, 114000, Note_on_c, 9, 69, 52
11, 114000, Note_on_c, 9, 70, 62
11, 114030, Note_on_c, 9, 70, 0
11, 114030, Note_on_c, 9, 69, 0
11, 114030, Note_on_c, 9, 42, 0
11, 114120, Note_on_c, 9, 40, 105
11, 114150, Note_on_c, 9, 40, 0
11, 114240, Note_on_c, 9, 42, 64
11, 114270, Note_on_c, 9, 42, 0
11, 114360, Note_on_c, 9, 36, 92
11, 114360, Note_on_c, 9, 70, 46
11, 114390, Note_on_c, 9, 70, 0
11, 114390, Note_on_c, 9, 36, 0
11, 114480, Note_on_c, 9, 40, 100
11, 114480, Note_on_c, 9, 42, 121
11, 114480, Note_on_c, 9, 69, 51
11, 114480, Note_on_c, 9, 70, 74
11, 114510, Note_on_c, 9, 70, 0
11, 114510, Note_on_c, 9, 40, 0
11, 114510, Note_on_c, 9, 42, 0
11, 114510, Note_on_c, 9, 69, 0
11, 114720, Note_on_c, 9, 42, 63
11, 114750, Note_on_c, 9, 42, 0
11, 114840, Note_on_c, 9, 40, 113
11, 114840, Note_on_c, 9, 46, 66
11, 114840, Note_on_c, 9, 70, 51
11, 114870, Note_on_c, 9, 70, 0
11, 114870, Note_on_c, 9, 46, 0
11, 114870, Note_on_c, 9, 40, 0
11, 114960, Note_on_c, 9, 36, 91
11, 114960, Note_on_c, 9, 42, 105
11, 114960, Note_on_c, 9, 69, 52
11, 114960, Note_on_c, 9, 70, 69
11, 114990, Note_on_c, 9, 70, 0
11, 114990, Note_on_c, 9, 36, 0
11, 114990, Note_on_c, 9, 42, 0
11, 114990, Note_on_c, 9, 69, 0
11, 115200, Note_on_c, 9, 36, 113
11, 115200, Note_on_c, 9, 42, 94
11, 115230, Note_on_c, 9, 42, 0
11, 115230, Note_on_c, 9, 36, 0
11, 115320, Note_on_c, 9, 70, 52
11, 115350, Note_on_c, 9, 70, 0
11, 115440, Note_on_c, 9, 36, 105
11, 115440, Note_on_c, 9, 42, 115
11, 115440, Note_on_c, 9, 69, 46
11, 115440, Note_on_c, 9, 70, 42
11, 115470, Note_on_c, 9, 70, 0
11, 115470, Note_on_c, 9, 36, 0
11, 115470, Note_on_c, 9, 42, 0
11, 115470, Note_on_c, 9, 69, 0
11, 115680, Note_on_c, 9, 40, 116
11, 115680, Note_on_c, 9, 42, 62
11, 115710, Note_on_c, 9, 42, 0
11, 115710, Note_on_c, 9, 40, 0
11, 115800, Note_on_c, 9, 70, 50
11, 115830, Note_on_c, 9, 70, 0
11, 115920, Note_on_c, 9, 42, 109
11, 115920, Note_on_c, 9, 69, 47
11, 115920, Note_on_c, 9, 70, 46
11, 115950, Note_on_c, 9, 70, 0
11, 115950, Note_on_c, 9, 69, 0
11, 115950, Note_on_c, 9, 42, 0
11, 116040, Note_on_c, 9, 40, 113
11, 116070, Note_on_c, 9, 40, 0
11, 116160, Note_on_c, 9, 42, 49
11, 116190, Note_on_c, 9, 42, 0
11, 116280, Note_on_c, 9, 36, 90
11, 116280, Note_on_c, 9, 70, 47
11, 116310, Note_on_c, 9, 70, 0
11, 116310, Note_on_c, 9, 36, 0
11, 116400, Note_on_c, 9, 40, 112
11, 116400, Note_on_c, 9, 42, 118
11, 116400, Note_on_c, 9, 69, 42
11, 116400, Note_on_c, 9, 70, 48
11, 116430, Note_on_c, 9, 70, 0
11, 116430, Note_on_c, 9, 40, 0
11, 116430, Note_on_c, 9, 42, 0
11, 116430, Note_on_c, 9, 69, 0
11, 116640, Note_on_c, 9, 42, 61
11, 116670, Note_on_c, 9, 42, 0
11, 116760, Note_on_c, 9, 40, 115
11, 116760, Note_on_c, 9, 70, 47
11, 116790, Note_on_c, 9, 70, 0
11, 116790, Note_on_c, 9, 40, 0
11, 116880, Note_on_c, 9, 36, 88
11, 116880, Note_on_c, 9, 42, 112
11, 116880, Note_on_c, 9, 69, 47
11, 116880, Note_on_c, 9, 70, 52
11, 116910, Note_on_c, 9, 70, 0
11, 116910, Note_on_c, 9, 36, 0
11, 116910, Note_on_c, 9, 42, 0
11, 116910, Note_on_c, 9, 69, 0
11, 117120, Note_on_c, 9, 36, 113
11, 117120, Note_on_c, 9, 42, 94
11, 117150, Note_on_c, 9, 42, 0
11, 117150, Note_on_c, 9, 36, 0
11, 117240, Note_on_c, 9, 70, 52
11, 117270, Note_on_c, 9, 70, 0
11, 117360, Note_on_c, 9, 36, 105
11, 117360, Note_on_c, 9, 42, 115
11, 117360, Note_on_c, 9, 69, 46
11, 117360, Note_on_c, 9, 70, 42
11, 117390, Note_on_c, 9, 70, 0
11, 117390, Note_on_c, 9, 36, 0
11, 117390, Note_on_c, 9, 42, 0
11, 117390, Note_on_c, 9, 69, 0
11, 117600, Note_on_c, 9, 40, 116
11, 117600, Note_on_c, 9, 42, 62
11, 117630, Note_on_c, 9, 42, 0
11, 117630, Note_on_c, 9, 40, 0
11, 117720, Note_on_c, 9, 70, 50
11, 117750, Note_on_c, 9, 70, 0
11, 117840, Note_on_c, 9, 42, 109
11, 117840, Note_on_c, 9, 69, 47
11, 117840, Note_on_c, 9, 70, 46
11, 117870, Note_on_c, 9, 70, 0
11, 117870, Note_on_c, 9, 69, 0
11, 117870, Note_on_c, 9, 42, 0
11, 117960, Note_on_c, 9, 40, 113
11, 117990, Note_on_c, 9, 40, 0
11, 118080, Note_on_c, 9, 42, 49
11, 118110, Note_on_c, 9, 42, 0
11, 118200, Note_on_c, 9, 36, 90
11, 118200, Note_on_c, 9, 70, 47
11, 118230, Note_on_c, 9, 70, 0
11, 118230, Note_on_c, 9, 36, 0
11, 118320, Note_on_c, 9, 40, 112
11, 118320, Note_on_c, 9, 42, 118
11, 118320, Note_on_c, 9, 69, 42
11, 118320, Note_on_c, 9, 70, 48
11, 118350, Note_on_c, 9, 70, 0
11, 118350, Note_on_c, 9, 40, 0
11, 118350, Note_on_c, 9, 42, 0
11, 118350, Note_on_c, 9, 69, 0
11, 118560, Note_on_c, 9, 42, 61
11, 118590, Note_on_c, 9, 42, 0
11, 118680, Note_on_c, 9, 40, 115
11, 118680, Note_on_c, 9, 70, 47
11, 118710, Note_on_c, 9, 70, 0
11, 118710, Note_on_c, 9, 40, 0
11, 118800, Note_on_c, 9, 36, 88
11, 118800, Note_on_c, 9, 42, 112
11, 118800, Note_on_c, 9, 69, 47
11, 118800, Note_on_c, 9, 70, 52
11, 118830, Note_on_c, 9, 70, 0
11, 118830, Note_on_c, 9, 36, 0
11, 118830, Note_on_c, 9, 42, 0
11, 118830, Note_on_c, 9, 69, 0
11, 119040, Note_on_c, 9, 36, 98
11, 119040, Note_on_c, 9, 42, 69
11, 119070, Note_on_c, 9, 42, 0
11, 119070, Note_on_c, 9, 36, 0
11, 119160, Note_on_c, 9, 70, 47
11, 119190, Note_on_c, 9, 70, 0
11, 119280, Note_on_c, 9, 36, 100
11, 119280, Note_on_c, 9, 42, 115
11, 119280, Note_on_c, 9, 69, 48
11, 119280, Note_on_c, 9, 70, 33
11, 119310, Note_on_c, 9, 70, 0
11, 119310, Note_on_c, 9, 36, 0
11, 119310, Note_on_c, 9, 42, 0
11, 119310, Note_on_c, 9, 69, 0
11, 119520, Note_on_c, 9, 40, 111
11, 119520, Note_on_c, 9, 42, 76
11, 119550, Note_on_c, 9, 42, 0
11, 119550, Note_on_c, 9, 40, 0
11, 119640, Note_on_c, 9, 70, 44
11, 119670, Note_on_c, 9, 70, 0
11, 119760, Note_on_c, 9, 42, 112
11, 119760, Note_on_c, 9, 69, 51
11, 119760, Note_on_c, 9, 70, 59
11, 119790, Note_on_c, 9, 70, 0
11, 119790, Note_on_c, 9, 69, 0
11, 119790, Note_on_c, 9, 42, 0
11, 119880, Note_on_c, 9, 40, 113
11, 119910, Note_on_c, 9, 40, 0
11, 120000, Note_on_c, 9, 42, 59
11, 120030, Note_on_c, 9, 42, 0
11, 120120, Note_on_c, 9, 36, 98
11, 120120, Note_on_c, 9, 70, 47
11, 120150, Note_on_c, 9, 70, 0
11, 120150, Note_on_c, 9, 36, 0
11, 120240, Note_on_c, 9, 40, 116
11, 120240, Note_on_c, 9, 42, 115
11, 120240, Note_on_c, 9, 69, 50
11, 120240, Note_on_c, 9, 70, 65
11, 120270, Note_on_c, 9, 70, 0
11, 120270, Note_on_c, 9, 40, 0
11, 120270, Note_on_c, 9, 42, 0
11, 120270, Note_on_c, 9, 69, 0
11, 120480, Note_on_c, 9, 42, 60
11, 120510, Note_on_c, 9, 42, 0
11, 120600, Note_on_c, 9, 40, 117
11, 120600, Note_on_c, 9, 70, 51
11, 120630, Note_on_c, 9, 70, 0
11, 120630, Note_on_c, 9, 40, 0
11, 120720, Note_on_c, 9, 36, 91
11, 120720, Note_on_c, 9, 42, 113
11, 120720, Note_on_c, 9, 69, 50
11, 120720, Note_on_c, 9, 70, 47
11, 120750, Note_on_c, 9, 70, 0
11, 120750, Note_on_c, 9, 36, 0
11, 120750, Note_on_c, 9, 42, 0
11, 120750, Note_on_c, 9, 69, 0
11, 120960, Note_on_c, 9, 36, 116
11, 120960, Note_on_c, 9, 42, 59
11, 120990, Note_on_c, 9, 42, 0
11, 120990, Note_on_c, 9, 36, 0
11, 121080, Note_on_c, 9, 70, 53
11, 121110, Note_on_c, 9, 70, 0
11, 121200, Note_on_c, 9, 36, 109
11, 121200, Note_on_c, 9, 42, 109
11, 121200, Note_on_c, 9, 69, 46
11, 121200, Note_on_c, 9, 70, 55
11, 121230, Note_on_c, 9, 70, 0
11, 121230, Note_on_c, 9, 36, 0
11, 121230, Note_on_c, 9, 42, 0
11, 121230, Note_on_c, 9, 69, 0
11, 121440, Note_on_c, 9, 40, 105
11, 121440, Note_on_c, 9, 42, 63
11, 121470, Note_on_c, 9, 42, 0
11, 121470, Note_on_c, 9, 40, 0
11, 121560, Note_on_c, 9, 70, 52
11, 121590, Note_on_c, 9, 70, 0
11, 121680, Note_on_c, 9, 42, 115
11, 121680, Note_on_c, 9, 69, 46
11, 121680, Note_on_c, 9, 70, 71
11, 121710, Note_on_c, 9, 70, 0
11, 121710, Note_on_c, 9, 69, 0
11, 121710, Note_on_c, 9, 42, 0
11, 121800, Note_on_c, 9, 36, 105
11, 121830, Note_on_c, 9, 36, 0
11, 121920, Note_on_c, 9, 42, 61
11, 121950, Note_on_c, 9, 42, 0
11, 122040, Note_on_c, 9, 70, 51
11, 122070, Note_on_c, 9, 70, 0
11, 122160, Note_on_c, 9, 36, 113
11, 122160, Note_on_c, 9, 42, 115
11, 122160, Note_on_c, 9, 69, 46
11, 122160, Note_on_c, 9, 70, 57
11, 122190, Note_on_c, 9, 70, 0
11, 122190, Note_on_c, 9, 36, 0
11, 122190, Note_on_c, 9, 42, 0
11, 122190, Note_on_c, 9, 69, 0
11, 122400, Note_on_c, 9, 40, 103
11, 122400, Note_on_c, 9, 42, 78
11, 122430, Note_on_c, 9, 42, 0
11, 122430, Note_on_c, 9, 40, 0
11, 122520, Note_on_c, 9, 36, 119
11, 122520, Note_on_c, 9, 46, 82
11, 122520, Note_on_c, 9, 70, 51
11, 122550, Note_on_c, 9, 70, 0
11, 122550, Note_on_c, 9, 46, 0
11, 122550, Note_on_c, 9, 36, 0
11, 122640, Note_on_c, 9, 42, 69
11, 122640, Note_on_c, 9, 69, 45
11, 122640, Note_on_c, 9, 70, 65
11, 122670, Note_on_c, 9, 70, 0
11, 122670, Note_on_c, 9, 69, 0
11, 122670, Note_on_c, 9, 42, 0
11, 122880, Note_on_c, 9, 42, 109
11, 122910, Note_on_c, 9, 42, 0
11, 123000, Note_on_c, 9, 70, 47
11, 123030, Note_on_c, 9, 70, 0
11, 123120, Note_on_c, 9, 36, 109
11, 123120, Note_on_c, 9, 42, 96
11, 123120, Note_on_c, 9, 69, 43
11, 123120, Note_on_c, 9, 70, 59
11, 123150, Note_on_c, 9, 70, 0
11, 123150, Note_on_c, 9, 36, 0
11, 123150, Note_on_c, 9, 42, 0
11, 123150, Note_on_c, 9, 69, 0
11, 123240, Note_on_c, 9, 36, 91
11, 123270, Note_on_c, 9, 36, 0
11, 123360, Note_on_c, 9, 40, 118
11, 123360, Note_on_c, 9, 42, 64
11, 123390, Note_on_c, 9, 42, 0
11, 123390, Note_on_c, 9, 40, 0
11, 123480, Note_on_c, 9, 70, 48
11, 123510, Note_on_c, 9, 70, 0
11, 123600, Note_on_c, 9, 42, 112
11, 123600, Note_on_c, 9, 69, 41
11, 123600, Note_on_c, 9, 70, 49
11, 123630, Note_on_c, 9, 70, 0
11, 123630, Note_on_c, 9, 69, 0
11, 123630, Note_on_c, 9, 42, 0
11, 123720, Note_on_c, 9, 40, 121
11, 123750, Note_on_c, 9, 40, 0
11, 123840, Note_on_c, 9, 36, 92
11, 123840, Note_on_c, 9, 42, 78
11, 123870, Note_on_c, 9, 42, 0
11, 123870, Note_on_c, 9, 36, 0
11, 123960, Note_on_c, 9, 70, 52
11, 123990, Note_on_c, 9, 70, 0
11, 124080, Note_on_c, 9, 42, 99
11, 124080, Note_on_c, 9, 69, 48
11, 124080, Note_on_c, 9, 70, 41
11, 124110, Note_on_c, 9, 70, 0
11, 124110, Note_on_c, 9, 69, 0
11, 124110, Note_on_c, 9, 42, 0
11, 124200, Note_on_c, 9, 36, 113
11, 124200, Note_on_c, 9, 46, 80
11, 124230, Note_on_c, 9, 46, 0
11, 124230, Note_on_c, 9, 36, 0
11, 124320, Note_on_c, 9, 42, 96
11, 124350, Note_on_c, 9, 42, 0
11, 124440, Note_on_c, 9, 40, 118
11, 124440, Note_on_c, 9, 70, 49
11, 124470, Note_on_c, 9, 70, 0
11, 124470, Note_on_c, 9, 40, 0
11, 124560, Note_on_c, 9, 40, 100
11, 124560, Note_on_c, 9, 42, 88
11, 124560, Note_on_c, 9, 69, 50
11, 124560, Note_on_c, 9, 70, 53
11, 124590, Note_on_c, 9, 70, 0
11, 124590, Note_on_c, 9, 40, 0
11, 124590, Note_on_c, 9, 42, 0
11, 124590, Note_on_c, 9, 69, 0
11, 124680, Note_on_c, 9, 40, 115
11, 124710, Note_on_c, 9, 40, 0
11, 124800, Note_on_c, 9, 36, 116
11, 124800, Note_on_c, 9, 42, 78
11, 124830, Note_on_c, 9, 42, 0
11, 124830, Note_on_c, 9, 36, 0
11, 124920, Note_on_c, 9, 70, 48
11, 124950, Note_on_c, 9, 70, 0
11, 125040, Note_on_c, 9, 36, 116
11, 125040, Note_on_c, 9, 42, 112
11, 125040, Note_on_c, 9, 69, 47
11, 125040, Note_on_c, 9, 70, 48
11, 125070, Note_on_c, 9, 70, 0
11, 125070, Note_on_c, 9, 36, 0
11, 125070, Note_on_c, 9, 42, 0
11, 125070, Note_on_c, 9, 69, 0
11, 125280, Note_on_c, 9, 40, 123
11, 125280, Note_on_c, 9, 42, 88
11, 125310, Note_on_c, 9, 42, 0
11, 125310, Note_on_c, 9, 40, 0
11, 125400, Note_on_c, 9, 70, 46
11, 125430, Note_on_c, 9, 70, 0
11, 125520, Note_on_c, 9, 42, 121
11, 125520, Note_on_c, 9, 69, 50
11, 125520, Note_on_c, 9, 70, 48
11, 125550, Note_on_c, 9, 70, 0
11, 125550, Note_on_c, 9, 69, 0
11, 125550, Note_on_c, 9, 42, 0
11, 125640, Note_on_c, 9, 40, 91
11, 125670, Note_on_c, 9, 40, 0
11, 125760, Note_on_c, 9, 42, 58
11, 125790, Note_on_c, 9, 42, 0
11, 125880, Note_on_c, 9, 36, 105
11, 125880, Note_on_c, 9, 70, 48
11, 125910, Note_on_c, 9, 70, 0
11, 125910, Note_on_c, 9, 36, 0
11, 126000, Note_on_c, 9, 40, 103
11, 126000, Note_on_c, 9, 42, 115
11, 126000, Note_on_c, 9, 69, 49
11, 126000, Note_on_c, 9, 70, 73
11, 126030, Note_on_c, 9, 70, 0
11, 126030, Note_on_c, 9, 40, 0
11, 126030, Note_on_c, 9, 42, 0
11, 126030, Note_on_c, 9, 69, 0
11, 126240, Note_on_c, 9, 42, 60
11, 126270, Note_on_c, 9, 42, 0
11, 126360, Note_on_c, 9, 40, 86
11, 126360, Note_on_c, 9, 70, 43
11, 126390, Note_on_c, 9, 70, 0
11, 126390, Note_on_c, 9, 40, 0
11, 126480, Note_on_c, 9, 36, 91
11, 126480, Note_on_c, 9, 42, 112
11, 126480, Note_on_c, 9, 69, 45
11, 126480, Note_on_c, 9, 70, 67
11, 126510, Note_on_c, 9, 70, 0
11, 126510, Note_on_c, 9, 36, 0
11, 126510, Note_on_c, 9, 42, 0
11, 126510, Note_on_c, 9, 69, 0
11, 126720, Note_on_c, 9, 36, 113
11, 126720, Note_on_c, 9, 42, 59
11, 126750, Note_on_c, 9, 42, 0
11, 126750, Note_on_c, 9, 36, 0
11, 126840, Note_on_c, 9, 70, 40
11, 126870, Note_on_c, 9, 70, 0
11, 126960, Note_on_c, 9, 36, 113
11, 126960, Note_on_c, 9, 42, 115
11, 126960, Note_on_c, 9, 69, 51
11, 126960, Note_on_c, 9, 70, 71
11, 126990, Note_on_c, 9, 70, 0
11, 126990, Note_on_c, 9, 36, 0
11, 126990, Note_on_c, 9, 42, 0
11, 126990, Note_on_c, 9, 69, 0
11, 127200, Note_on_c, 9, 40, 103
11, 127200, Note_on_c, 9, 42, 61
11, 127230, Note_on_c, 9, 42, 0
11, 127230, Note_on_c, 9, 40, 0
11, 127320, Note_on_c, 9, 70, 47
11, 127350, Note_on_c, 9, 70, 0
11, 127440, Note_on_c, 9, 42, 113
11, 127440, Note_on_c, 9, 69, 50
11, 127440, Note_on_c, 9, 70, 53
11, 127470, Note_on_c, 9, 70, 0
11, 127470, Note_on_c, 9, 69, 0
11, 127470, Note_on_c, 9, 42, 0
11, 127560, Note_on_c, 9, 40, 113
11, 127590, Note_on_c, 9, 40, 0
11, 127680, Note_on_c, 9, 42, 58
11, 127710, Note_on_c, 9, 42, 0
11, 127800, Note_on_c, 9, 36, 98
11, 127800, Note_on_c, 9, 70, 48
11, 127830, Note_on_c, 9, 70, 0
11, 127830, Note_on_c, 9, 36, 0
11, 127920, Note_on_c, 9, 40, 100
11, 127920, Note_on_c, 9, 42, 113
11, 127920, Note_on_c, 9, 69, 53
11, 127920, Note_on_c, 9, 70, 64
11, 127950, Note_on_c, 9, 70, 0
11, 127950, Note_on_c, 9, 40, 0
11, 127950, Note_on_c, 9, 42, 0
11, 127950, Note_on_c, 9, 69, 0
11, 128160, Note_on_c, 9, 42, 63
11, 128190, Note_on_c, 9, 42, 0
11, 128280, Note_on_c, 9, 40, 102
11, 128280, Note_on_c, 9, 70, 47
11, 128310, Note_on_c, 9, 70, 0
11, 128310, Note_on_c, 9, 40, 0
11, 128400, Note_on_c, 9, 40, 115
11, 128400, Note_on_c, 9, 42, 113
11, 128400, Note_on_c, 9, 69, 50
11, 128400, Note_on_c, 9, 70, 50
11, 128430, Note_on_c, 9, 70, 0
11, 128430, Note_on_c, 9, 40, 0
11, 128430, Note_on_c, 9, 42, 0
11, 128430, Note_on_c, 9, 69, 0
11, 128520, Note_on_c, 9, 40, 121
11, 128550, Note_on_c, 9, 40, 0
11, 128640, Note_on_c, 9, 36, 100
11, 128640, Note_on_c, 9, 42, 76
11, 128670, Note_on_c, 9, 42, 0
11, 128670, Note_on_c, 9, 36, 0
11, 128760, Note_on_c, 9, 46, 70
11, 128760, Note_on_c, 9, 70, 48
11, 128790, Note_on_c, 9, 70, 0
11, 128790, Note_on_c, 9, 46, 0
11, 128880, Note_on_c, 9, 36, 122
11, 128880, Note_on_c, 9, 42, 77
11, 128880, Note_on_c, 9, 69, 53
11, 128880, Note_on_c, 9, 70, 53
11, 128910, Note_on_c, 9, 70, 0
11, 128910, Note_on_c, 9, 36, 0
11, 128910, Note_on_c, 9, 42, 0
11, 128910, Note_on_c, 9, 69, 0
11, 129120, Note_on_c, 9, 40, 113
11, 129120, Note_on_c, 9, 42, 94
11, 129150, Note_on_c, 9, 42, 0
11, 129150, Note_on_c, 9, 40, 0
11, 129240, Note_on_c, 9, 70, 47
11, 129270, Note_on_c, 9, 70, 0
11, 129360, Note_on_c, 9, 42, 109
11, 129360, Note_on_c, 9, 69, 52
11, 129360, Note_on_c, 9, 70, 62
11, 129390, Note_on_c, 9, 70, 0
11, 129390, Note_on_c, 9, 69, 0
11, 129390, Note_on_c, 9, 42, 0
11, 129480, Note_on_c, 9, 40, 105
11, 129510, Note_on_c, 9, 40, 0
11, 129600, Note_on_c, 9, 42, 64
11, 129630, Note_on_c, 9, 42, 0
11, 129720, Note_on_c, 9, 36, 92
11, 129720, Note_on_c, 9, 70, 46
11, 129750, Note_on_c, 9, 70, 0
11, 129750, Note_on_c, 9, 36, 0
11, 129840, Note_on_c, 9, 40, 100
11, 129840, Note_on_c, 9, 42, 121
11, 129840, Note_on_c, 9, 69, 51
11, 129840, Note_on_c, 9, 70, 74
11, 129870, Note_on_c, 9, 70, 0
11, 129870, Note_on_c, 9, 40, 0
11, 129870, Note_on_c, 9, 42, 0
11, 129870, Note_on_c, 9, 69, 0
11, 130080, Note_on_c, 9, 42, 63
11, 130110, Note_on_c, 9, 42, 0
11, 130200, Note_on_c, 9, 40, 113
11, 130200, Note_on_c, 9, 46, 66
11, 130200, Note_on_c, 9, 70, 51
11, 130230, Note_on_c, 9, 70, 0
11, 130230, Note_on_c, 9, 46, 0
11, 130230, Note_on_c, 9, 40, 0
11, 130320, Note_on_c, 9, 36, 91
11, 130320, Note_on_c, 9, 42, 105
11, 130320, Note_on_c, 9, 69, 52
11, 130320, Note_on_c, 9, 70, 69
11, 130350, Note_on_c, 9, 70, 0
11, 130350, Note_on_c, 9, 36, 0
11, 130350, Note_on_c, 9, 42, 0
11, 130350, Note_on_c, 9, 69, 0
11, 130560, Note_on_c, 9, 36, 113
11, 130560, Note_on_c, 9, 42, 101
11, 130590, Note_on_c, 9, 42, 0
11, 130590, Note_on_c, 9, 36, 0
11, 130680, Note_on_c, 9, 70, 47
11, 130710, Note_on_c, 9, 70, 0
11, 130800, Note_on_c, 9, 36, 105
11, 130800, Note_on_c, 9, 42, 112
11, 130800, Note_on_c, 9, 69, 50
11, 130800, Note_on_c, 9, 70, 58
11, 130830, Note_on_c, 9, 70, 0
11, 130830, Note_on_c, 9, 36, 0
11, 130830, Note_on_c, 9, 42, 0
11, 130830, Note_on_c, 9, 69, 0
11, 131040, Note_on_c, 9, 40, 116
11, 131040, Note_on_c, 9, 42, 37
11, 131070, Note_on_c, 9, 42, 0
11, 131070, Note_on_c, 9, 40, 0
11, 131160, Note_on_c, 9, 70, 49
11, 131190, Note_on_c, 9, 70, 0
11, 131280, Note_on_c, 9, 42, 115
11, 131280, Note_on_c, 9, 69, 53
11, 131280, Note_on_c, 9, 70, 56
11, 131310, Note_on_c, 9, 70, 0
11, 131310, Note_on_c, 9, 69, 0
11, 131310, Note_on_c, 9, 42, 0
11, 131520, Note_on_c, 9, 36, 90
11, 131520, Note_on_c, 9, 42, 50
11, 131550, Note_on_c, 9, 42, 0
11, 131550, Note_on_c, 9, 36, 0
11, 131640, Note_on_c, 9, 70, 49
11, 131670, Note_on_c, 9, 70, 0
11, 131760, Note_on_c, 9, 40, 113
11, 131760, Note_on_c, 9, 42, 115
11, 131760, Note_on_c, 9, 69, 49
11, 131760, Note_on_c, 9, 70, 48
11, 131790, Note_on_c, 9, 70, 0
11, 131790, Note_on_c, 9, 40, 0
11, 131790, Note_on_c, 9, 42, 0
11, 131790, Note_on_c, 9, 69, 0
11, 131880, Note_on_c, 9, 40, 112
11, 131910, Note_on_c, 9, 40, 0
11, 132000, Note_on_c, 9, 45, 112
11, 132000, Note_on_c, 9, 42, 52
11, 132030, Note_on_c, 9, 42, 0
11, 132030, Note_on_c, 9, 45, 0
11, 132120, Note_on_c, 9, 45, 112
11, 132120, Note_on_c, 9, 70, 47
11, 132150, Note_on_c, 9, 70, 0
11, 132150, Note_on_c, 9, 45, 0
11, 132240, Note_on_c, 9, 43, 112
11, 132240, Note_on_c, 9, 36, 88
11, 132240, Note_on_c, 9, 42, 113
11, 132240, Note_on_c, 9, 69, 59
11, 132240, Note_on_c, 9, 70, 75
11, 132270, Note_on_c, 9, 70, 0
11, 132270, Note_on_c, 9, 42, 0
11, 132270, Note_on_c, 9, 43, 0
11, 132270, Note_on_c, 9, 36, 0
11, 132270, Note_on_c, 9, 69, 0
11, 132360, Note_on_c, 9, 43, 112
11, 132390, Note_on_c, 9, 43, 0
11, 132480, Note_on_c, 9, 36, 113
11, 132480, Note_on_c, 9, 49, 113
11, 132480, Note_on_c, 9, 42, 113
11, 132510, Note_on_c, 9, 42, 0
11, 132510, Note_on_c, 9, 49, 0
11, 132510, Note_on_c, 9, 36, 0
11, 132600, Note_on_c, 9, 70, 52
11, 132630, Note_on_c, 9, 70, 0
11, 132720, Note_on_c, 9, 36, 105
11, 132720, Note_on_c, 9, 42, 115
11, 132720, Note_on_c, 9, 69, 46
11, 132720, Note_on_c, 9, 70, 42
11, 132750, Note_on_c, 9, 70, 0
11, 132750, Note_on_c, 9, 36, 0
11, 132750, Note_on_c, 9, 42, 0
11, 132750, Note_on_c, 9, 69, 0
11, 132960, Note_on_c, 9, 40, 116
11, 132960, Note_on_c, 9, 42, 62
11, 132990, Note_on_c, 9, 42, 0
11, 132990, Note_on_c, 9, 40, 0
11, 133080, Note_on_c, 9, 70, 50
11, 133110, Note_on_c, 9, 70, 0
11, 133200, Note_on_c, 9, 42, 109
11, 133200, Note_on_c, 9, 69, 47
11, 133200, Note_on_c, 9, 70, 46
11, 133230, Note_on_c, 9, 70, 0
11, 133230, Note_on_c, 9, 69, 0
11, 133230, Note_on_c, 9, 42, 0
11, 133320, Note_on_c, 9, 40, 113
11, 133350, Note_on_c, 9, 40, 0
11, 133440, Note_on_c, 9, 42, 49
11, 133470, Note_on_c, 9, 42, 0
11, 133560, Note_on_c, 9, 36, 90
11, 133560, Note_on_c, 9, 70, 47
11, 133590, Note_on_c, 9, 70, 0
11, 133590, Note_on_c, 9, 36, 0
11, 133680, Note_on_c, 9, 40, 112
11, 133680, Note_on_c, 9, 42, 118
11, 133680, Note_on_c, 9, 69, 42
11, 133680, Note_on_c, 9, 70, 48
11, 133710, Note_on_c, 9, 70, 0
11, 133710, Note_on_c, 9, 40, 0
11, 133710, Note_on_c, 9, 42, 0
11, 133710, Note_on_c, 9, 69, 0
11, 133920, Note_on_c, 9, 42, 61
11, 133950, Note_on_c, 9, 42, 0
11, 134040, Note_on_c, 9, 40, 115
11, 134040, Note_on_c, 9, 70, 47
11, 134070, Note_on_c, 9, 70, 0
11, 134070, Note_on_c, 9, 40, 0
11, 134160, Note_on_c, 9, 36, 88
11, 134160, Note_on_c, 9, 42, 112
11, 134160, Note_on_c, 9, 69, 47
11, 134160, Note_on_c, 9, 70, 52
11, 134190, Note_on_c, 9, 70, 0
11, 134190, Note_on_c, 9, 36, 0
11, 134190, Note_on_c, 9, 42, 0
11, 134190, Note_on_c, 9, 69, 0
11, 134400, Note_on_c, 9, 36, 98
11, 134400, Note_on_c, 9, 42, 69
11, 134430, Note_on_c, 9, 42, 0
11, 134430, Note_on_c, 9, 36, 0
11, 134520, Note_on_c, 9, 70, 47
11, 134550, Note_on_c, 9, 70, 0
11, 134640, Note_on_c, 9, 36, 100
11, 134640, Note_on_c, 9, 42, 115
11, 134640, Note_on_c, 9, 69, 48
11, 134640, Note_on_c, 9, 70, 33
11, 134670, Note_on_c, 9, 70, 0
11, 134670, Note_on_c, 9, 36, 0
11, 134670, Note_on_c, 9, 42, 0
11, 134670, Note_on_c, 9, 69, 0
11, 134880, Note_on_c, 9, 40, 111
11, 134880, Note_on_c, 9, 42, 76
11, 134910, Note_on_c, 9, 42, 0
11, 134910, Note_on_c, 9, 40, 0
11, 135000, Note_on_c, 9, 70, 44
11, 135030, Note_on_c, 9, 70, 0
11, 135120, Note_on_c, 9, 42, 112
11, 135120, Note_on_c, 9, 69, 51
11, 135120, Note_on_c, 9, 70, 59
11, 135150, Note_on_c, 9, 70, 0
11, 135150, Note_on_c, 9, 69, 0
11, 135150, Note_on_c, 9, 42, 0
11, 135240, Note_on_c, 9, 40, 113
11, 135270, Note_on_c, 9, 40, 0
11, 135360, Note_on_c, 9, 42, 59
11, 135390, Note_on_c, 9, 42, 0
11, 135480, Note_on_c, 9, 36, 98
11, 135480, Note_on_c, 9, 70, 47
11, 135510, Note_on_c, 9, 70, 0
11, 135510, Note_on_c, 9, 36, 0
11, 135600, Note_on_c, 9, 40, 116
11, 135600, Note_on_c, 9, 42, 115
11, 135600, Note_on_c, 9, 69, 50
11, 135600, Note_on_c, 9, 70, 65
11, 135630, Note_on_c, 9, 70, 0
11, 135630, Note_on_c, 9, 40, 0
11, 135630, Note_on_c, 9, 42, 0
11, 135630, Note_on_c, 9, 69, 0
11, 135720, Note_on_c, 9, 46, 82
11, 135750, Note_on_c, 9, 46, 0
11, 135840, Note_on_c, 9, 42, 60
11, 135870, Note_on_c, 9, 42, 0
11, 135960, Note_on_c, 9, 40, 117
11, 135960, Note_on_c, 9, 49, 82
11, 135960, Note_on_c, 9, 70, 51
11, 135990, Note_on_c, 9, 70, 0
11, 135990, Note_on_c, 9, 49, 0
11, 135990, Note_on_c, 9, 40, 0
11, 136080, Note_on_c, 9, 36, 91
11, 136080, Note_on_c, 9, 42, 113
11, 136080, Note_on_c, 9, 69, 50
11, 136080, Note_on_c, 9, 70, 47
11, 136110, Note_on_c, 9, 70, 0
11, 136110, Note_on_c, 9, 36, 0
11, 136110, Note_on_c, 9, 42, 0
11, 136110, Note_on_c, 9, 69, 0
11, 136320, Note_on_c, 9, 36, 116
11, 136320, Note_on_c, 9, 42, 59
11, 136350, Note_on_c, 9, 42, 0
11, 136350, Note_on_c, 9, 36, 0
11, 136440, Note_on_c, 9, 70, 53
11, 136470, Note_on_c, 9, 70, 0
11, 136560, Note_on_c, 9, 36, 109
11, 136560, Note_on_c, 9, 42, 109
11, 136560, Note_on_c, 9, 69, 46
11, 136560, Note_on_c, 9, 70, 55
11, 136590, Note_on_c, 9, 70, 0
11, 136590, Note_on_c, 9, 36, 0
11, 136590, Note_on_c, 9, 42, 0
11, 136590, Note_on_c, 9, 69, 0
11, 136800, Note_on_c, 9, 40, 105
11, 136800, Note_on_c, 9, 42, 63
11, 136830, Note_on_c, 9, 42, 0
11, 136830, Note_on_c, 9, 40, 0
11, 136920, Note_on_c, 9, 70, 52
11, 136950, Note_on_c, 9, 70, 0
11, 137040, Note_on_c, 9, 42, 115
11, 137040, Note_on_c, 9, 69, 46
11, 137040, Note_on_c, 9, 70, 71
11, 137070, Note_on_c, 9, 70, 0
11, 137070, Note_on_c, 9, 69, 0
11, 137070, Note_on_c, 9, 42, 0
11, 137160, Note_on_c, 9, 36, 105
11, 137190, Note_on_c, 9, 36, 0
11, 137280, Note_on_c, 9, 42, 61
11, 137310, Note_on_c, 9, 42, 0
11, 137400, Note_on_c, 9, 70, 51
11, 137430, Note_on_c, 9, 70, 0
11, 137520, Note_on_c, 9, 36, 113
11, 137520, Note_on_c, 9, 42, 115
11, 137520, Note_on_c, 9, 69, 46
11, 137520, Note_on_c, 9, 70, 57
11, 137550, Note_on_c, 9, 70, 0
11, 137550, Note_on_c, 9, 36, 0
11, 137550, Note_on_c, 9, 42, 0
11, 137550, Note_on_c, 9, 69, 0
11, 137760, Note_on_c, 9, 40, 103
11, 137760, Note_on_c, 9, 42, 78
11, 137790, Note_on_c, 9, 42, 0
11, 137790, Note_on_c, 9, 40, 0
11, 137880, Note_on_c, 9, 36, 119
11, 137880, Note_on_c, 9, 46, 82
11, 137880, Note_on_c, 9, 70, 51
11, 137910, Note_on_c, 9, 70, 0
11, 137910, Note_on_c, 9, 46, 0
11, 137910, Note_on_c, 9, 36, 0
11, 138000, Note_on_c, 9, 42, 69
11, 138000, Note_on_c, 9, 69, 45
11, 138000, Note_on_c, 9, 70, 65
11, 138030, Note_on_c, 9, 70, 0
11, 138030, Note_on_c, 9, 69, 0
11, 138030, Note_on_c, 9, 42, 0
11, 138240, Note_on_c, 9, 42, 109
11, 138270, Note_on_c, 9, 42, 0
11, 138360, Note_on_c, 9, 70, 47
11, 138390, Note_on_c, 9, 70, 0
11, 138480, Note_on_c, 9, 36, 109
11, 138480, Note_on_c, 9, 42, 96
11, 138480, Note_on_c, 9, 69, 43
11, 138480, Note_on_c, 9, 70, 59
11, 138510, Note_on_c, 9, 70, 0
11, 138510, Note_on_c, 9, 36, 0
11, 138510, Note_on_c, 9, 42, 0
11, 138510, Note_on_c, 9, 69, 0
11, 138600, Note_on_c, 9, 36, 91
11, 138630, Note_on_c, 9, 36, 0
11, 138720, Note_on_c, 9, 40, 118
11, 138720, Note_on_c, 9, 42, 64
11, 138750, Note_on_c, 9, 42, 0
11, 138750, Note_on_c, 9, 40, 0
11, 138840, Note_on_c, 9, 70, 48
11, 138870, Note_on_c, 9, 70, 0
11, 138960, Note_on_c, 9, 42, 112
11, 138960, Note_on_c, 9, 69, 41
11, 138960, Note_on_c, 9, 70, 49
11, 138990, Note_on_c, 9, 70, 0
11, 138990, Note_on_c, 9, 69, 0
11, 138990, Note_on_c, 9, 42, 0
11, 139080, Note_on_c, 9, 40, 121
11, 139110, Note_on_c, 9, 40, 0
11, 139200, Note_on_c, 9, 36, 92
11, 139200, Note_on_c, 9, 42, 78
11, 139230, Note_on_c, 9, 42, 0
11, 139230, Note_on_c, 9, 36, 0
11, 139320, Note_on_c, 9, 70, 52
11, 139350, Note_on_c, 9, 70, 0
11, 139440, Note_on_c, 9, 42, 99
11, 139440, Note_on_c, 9, 69, 48
11, 139440, Note_on_c, 9, 70, 41
11, 139470, Note_on_c, 9, 70, 0
11, 139470, Note_on_c, 9, 69, 0
11, 139470, Note_on_c, 9, 42, 0
11, 139560, Note_on_c, 9, 36, 113
11, 139560, Note_on_c, 9, 46, 80
11, 139590, Note_on_c, 9, 46, 0
11, 139590, Note_on_c, 9, 36, 0
11, 139680, Note_on_c, 9, 42, 96
11, 139710, Note_on_c, 9, 42, 0
11, 139800, Note_on_c, 9, 40, 118
11, 139800, Note_on_c, 9, 70, 49
11, 139830, Note_on_c, 9, 70, 0
11, 139830, Note_on_c, 9, 40, 0
11, 139920, Note_on_c, 9, 40, 100
11, 139920, Note_on_c, 9, 42, 88
11, 139920, Note_on_c, 9, 69, 50
11, 139920, Note_on_c, 9, 70, 53
11, 139950, Note_on_c, 9, 70, 0
11, 139950, Note_on_c, 9, 40, 0
11, 139950, Note_on_c, 9, 42, 0
11, 139950, Note_on_c, 9, 69, 0
11, 140040, Note_on_c, 9, 40, 115
11, 140070, Note_on_c, 9, 40, 0
11, 140160, Note_on_c, 9, 36, 116
11, 140160, Note_on_c, 9, 42, 78
11, 140190, Note_on_c, 9, 42, 0
11, 140190, Note_on_c, 9, 36, 0
11, 140280, Note_on_c, 9, 70, 48
11, 140310, Note_on_c, 9, 70, 0
11, 140400, Note_on_c, 9, 36, 116
11, 140400, Note_on_c, 9, 42, 112
11, 140400, Note_on_c, 9, 70, 48
11, 140430, Note_on_c, 9, 70, 0
11, 140430, Note_on_c, 9, 42, 0
11, 140430, Note_on_c, 9, 36, 0
11, 140640, Note_on_c, 9, 40, 123
11, 140640, Note_on_c, 9, 42, 88
11, 140670, Note_on_c, 9, 42, 0
11, 140670, Note_on_c, 9, 40, 0
11, 140760, Note_on_c, 9, 70, 46
11, 140790, Note_on_c, 9, 70, 0
11, 140880, Note_on_c, 9, 42, 121
11, 140880, Note_on_c, 9, 69, 50
11, 140880, Note_on_c, 9, 70, 48
11, 140910, Note_on_c, 9, 70, 0
11, 140910, Note_on_c, 9, 69, 0
11, 140910, Note_on_c, 9, 42, 0
11, 141000, Note_on_c, 9, 40, 91
11, 141030, Note_on_c, 9, 40, 0
11, 141120, Note_on_c, 9, 42, 58
11, 141150, Note_on_c, 9, 42, 0
11, 141240, Note_on_c, 9, 36, 105
11, 141240, Note_on_c, 9, 70, 48
11, 141270, Note_on_c, 9, 70, 0
11, 141270, Note_on_c, 9, 36, 0
11, 141360, Note_on_c, 9, 40, 103
11, 141360, Note_on_c, 9, 42, 115
11, 141360, Note_on_c, 9, 69, 49
11, 141360, Note_on_c, 9, 70, 73
11, 141390, Note_on_c, 9, 70, 0
11, 141390, Note_on_c, 9, 40, 0
11, 141390, Note_on_c, 9, 42, 0
11, 141390, Note_on_c, 9, 69, 0
11, 141600, Note_on_c, 9, 42, 60
11, 141630, Note_on_c, 9, 42, 0
11, 141720, Note_on_c, 9, 40, 86
11, 141720, Note_on_c, 9, 70, 43
11, 141750, Note_on_c, 9, 70, 0
11, 141750, Note_on_c, 9, 40, 0
11, 141840, Note_on_c, 9, 36, 91
11, 141840, Note_on_c, 9, 42, 112
11, 141840, Note_on_c, 9, 69, 45
11, 141840, Note_on_c, 9, 70, 67
11, 141870, Note_on_c, 9, 70, 0
11, 141870, Note_on_c, 9, 36, 0
11, 141870, Note_on_c, 9, 42, 0
11, 141870, Note_on_c, 9, 69, 0
11, 142080, Note_on_c, 9, 36, 113
11, 142080, Note_on_c, 9, 42, 59
11, 142110, Note_on_c, 9, 42, 0
11, 142110, Note_on_c, 9, 36, 0
11, 142200, Note_on_c, 9, 70, 40
11, 142230, Note_on_c, 9, 70, 0
11, 142320, Note_on_c, 9, 36, 113
11, 142320, Note_on_c, 9, 42, 115
11, 142320, Note_on_c, 9, 69, 51
11, 142320, Note_on_c, 9, 70, 71
11, 142350, Note_on_c, 9, 70, 0
11, 142350, Note_on_c, 9, 36, 0
11, 142350, Note_on_c, 9, 42, 0
11, 142350, Note_on_c, 9, 69, 0
11, 142560, Note_on_c, 9, 40, 103
11, 142560, Note_on_c, 9, 42, 61
11, 142590, Note_on_c, 9, 42, 0
11, 142590, Note_on_c, 9, 40, 0
11, 142680, Note_on_c, 9, 70, 47
11, 142710, Note_on_c, 9, 70, 0
11, 142800, Note_on_c, 9, 42, 113
11, 142800, Note_on_c, 9, 69, 50
11, 142800, Note_on_c, 9, 70, 53
11, 142830, Note_on_c, 9, 70, 0
11, 142830, Note_on_c, 9, 69, 0
11, 142830, Note_on_c, 9, 42, 0
11, 142920, Note_on_c, 9, 40, 113
11, 142950, Note_on_c, 9, 40, 0
11, 143040, Note_on_c, 9, 42, 58
11, 143070, Note_on_c, 9, 42, 0
11, 143160, Note_on_c, 9, 36, 98
11, 143160, Note_on_c, 9, 70, 48
11, 143190, Note_on_c, 9, 70, 0
11, 143190, Note_on_c, 9, 36, 0
11, 143280, Note_on_c, 9, 40, 100
11, 143280, Note_on_c, 9, 42, 113
11, 143280, Note_on_c, 9, 69, 53
11, 143280, Note_on_c, 9, 70, 64
11, 143310, Note_on_c, 9, 70, 0
11, 143310, Note_on_c, 9, 40, 0
11, 143310, Note_on_c, 9, 42, 0
11, 143310, Note_on_c, 9, 69, 0
11, 143520, Note_on_c, 9, 42, 63
11, 143550, Note_on_c, 9, 42, 0
11, 143640, Note_on_c, 9, 40, 102
11, 143640, Note_on_c, 9, 70, 47
11, 143670, Note_on_c, 9, 70, 0
11, 143670, Note_on_c, 9, 40, 0
11, 143760, Note_on_c, 9, 40, 115
11, 143760, Note_on_c, 9, 42, 113
11, 143760, Note_on_c, 9, 69, 50
11, 143760, Note_on_c, 9, 70, 50
11, 143790, Note_on_c, 9, 70, 0
11, 143790, Note_on_c, 9, 40, 0
11, 143790, Note_on_c, 9, 42, 0
11, 143790, Note_on_c, 9, 69, 0
11, 143880, Note_on_c, 9, 40, 121
11, 143910, Note_on_c, 9, 40, 0
11, 144000, Note_on_c, 9, 36, 100
11, 144000, Note_on_c, 9, 42, 76
11, 144030, Note_on_c, 9, 42, 0
11, 144030, Note_on_c, 9, 36, 0
11, 144120, Note_on_c, 9, 46, 70
11, 144120, Note_on_c, 9, 70, 48
11, 144150, Note_on_c, 9, 70, 0
11, 144150, Note_on_c, 9, 46, 0
11, 144240, Note_on_c, 9, 36, 122
11, 144240, Note_on_c, 9, 42, 77
11, 144240, Note_on_c, 9, 69, 53
11, 144240, Note_on_c, 9, 70, 53
11, 144270, Note_on_c, 9, 70, 0
11, 144270, Note_on_c, 9, 36, 0
11, 144270, Note_on_c, 9, 42, 0
11, 144270, Note_on_c, 9, 69, 0
11, 144480, Note_on_c, 9, 40, 113
11, 144480, Note_on_c, 9, 42, 94
11, 144510, Note_on_c, 9, 42, 0
11, 144510, Note_on_c, 9, 40, 0
11, 144600, Note_on_c, 9, 70, 47
11, 144630, Note_on_c, 9, 70, 0
11, 144720, Note_on_c, 9, 42, 109
11, 144720, Note_on_c, 9, 69, 52
11, 144720, Note_on_c, 9, 70, 62
11, 144750, Note_on_c, 9, 70, 0
11, 144750, Note_on_c, 9, 69, 0
11, 144750, Note_on_c, 9, 42, 0
11, 144840, Note_on_c, 9, 40, 105
11, 144870, Note_on_c, 9, 40, 0
11, 144960, Note_on_c, 9, 42, 64
11, 144990, Note_on_c, 9, 42, 0
11, 145080, Note_on_c, 9, 36, 92
11, 145080, Note_on_c, 9, 70, 46
11, 145110, Note_on_c, 9, 70, 0
11, 145110, Note_on_c, 9, 36, 0
11, 145200, Note_on_c, 9, 40, 100
11, 145200, Note_on_c, 9, 42, 121
11, 145200, Note_on_c, 9, 69, 51
11, 145200, Note_on_c, 9, 70, 74
11, 145230, Note_on_c, 9, 70, 0
11, 145230, Note_on_c, 9, 40, 0
11, 145230, Note_on_c, 9, 42, 0
11, 145230, Note_on_c, 9, 69, 0
11, 145440, Note_on_c, 9, 42, 63
11, 145470, Note_on_c, 9, 42, 0
11, 145560, Note_on_c, 9, 40, 113
11, 145560, Note_on_c, 9, 46, 66
11, 145560, Note_on_c, 9, 70, 51
11, 145590, Note_on_c, 9, 70, 0
11, 145590, Note_on_c, 9, 46, 0
11, 145590, Note_on_c, 9, 40, 0
11, 145680, Note_on_c, 9, 36, 91
11, 145680, Note_on_c, 9, 42, 105
11, 145680, Note_on_c, 9, 69, 52
11, 145680, Note_on_c, 9, 70, 69
11, 145710, Note_on_c, 9, 70, 0
11, 145710, Note_on_c, 9, 36, 0
11, 145710, Note_on_c, 9, 42, 0
11, 145710, Note_on_c, 9, 69, 0
11, 145920, Note_on_c, 9, 36, 113
11, 145920, Note_on_c, 9, 42, 94
11, 145950, Note_on_c, 9, 42, 0
11, 145950, Note_on_c, 9, 36, 0
11, 146040, Note_on_c, 9, 70, 52
11, 146070, Note_on_c, 9, 70, 0
11, 146160, Note_on_c, 9, 36, 105
11, 146160, Note_on_c, 9, 42, 115
11, 146160, Note_on_c, 9, 69, 46
11, 146160, Note_on_c, 9, 70, 42
11, 146190, Note_on_c, 9, 70, 0
11, 146190, Note_on_c, 9, 36, 0
11, 146190, Note_on_c, 9, 42, 0
11, 146190, Note_on_c, 9, 69, 0
11, 146400, Note_on_c, 9, 40, 116
11, 146400, Note_on_c, 9, 42, 62
11, 146430, Note_on_c, 9, 42, 0
11, 146430, Note_on_c, 9, 40, 0
11, 146520, Note_on_c, 9, 70, 50
11, 146550, Note_on_c, 9, 70, 0
11, 146640, Note_on_c, 9, 42, 109
11, 146640, Note_on_c, 9, 69, 47
11, 146640, Note_on_c, 9, 70, 46
11, 146670, Note_on_c, 9, 70, 0
11, 146670, Note_on_c, 9, 69, 0
11, 146670, Note_on_c, 9, 42, 0
11, 146760, Note_on_c, 9, 40, 113
11, 146790, Note_on_c, 9, 40, 0
11, 146880, Note_on_c, 9, 42, 49
11, 146910, Note_on_c, 9, 42, 0
11, 147000, Note_on_c, 9, 36, 90
11, 147000, Note_on_c, 9, 70, 47
11, 147030, Note_on_c, 9, 70, 0
11, 147030, Note_on_c, 9, 36, 0
11, 147120, Note_on_c, 9, 40, 112
11, 147120, Note_on_c, 9, 42, 118
11, 147120, Note_on_c, 9, 69, 42
11, 147120, Note_on_c, 9, 70, 48
11, 147150, Note_on_c, 9, 70, 0
11, 147150, Note_on_c, 9, 40, 0
11, 147150, Note_on_c, 9, 42, 0
11, 147150, Note_on_c, 9, 69, 0
11, 147360, Note_on_c, 9, 42, 61
11, 147390, Note_on_c, 9, 42, 0
11, 147480, Note_on_c, 9, 40, 115
11, 147480, Note_on_c, 9, 70, 47
11, 147510, Note_on_c, 9, 70, 0
11, 147510, Note_on_c, 9, 40, 0
11, 147600, Note_on_c, 9, 36, 88
11, 147600, Note_on_c, 9, 42, 112
11, 147600, Note_on_c, 9, 69, 47
11, 147600, Note_on_c, 9, 70, 52
11, 147630, Note_on_c, 9, 70, 0
11, 147630, Note_on_c, 9, 36, 0
11, 147630, Note_on_c, 9, 42, 0
11, 147630, Note_on_c, 9, 69, 0
11, 147840, Note_on_c, 9, 36, 113
11, 147840, Note_on_c, 9, 49, 116
11, 147870, Note_on_c, 9, 49, 0
11, 147870, Note_on_c, 9, 36, 0
11, 147960, Note_on_c, 9, 70, 52
11, 147990, Note_on_c, 9, 70, 0
11, 148080, Note_on_c, 9, 36, 105
11, 148080, Note_on_c, 9, 42, 101
11, 148080, Note_on_c, 9, 51, 109
11, 148080, Note_on_c, 9, 69, 46
11, 148080, Note_on_c, 9, 70, 42
11, 148110, Note_on_c, 9, 70, 0
11, 148110, Note_on_c, 9, 51, 0
11, 148110, Note_on_c, 9, 36, 0
11, 148110, Note_on_c, 9, 42, 0
11, 148110, Note_on_c, 9, 69, 0
11, 148200, Note_on_c, 9, 51, 59
11, 148230, Note_on_c, 9, 51, 0
11, 148320, Note_on_c, 9, 40, 116
11, 148320, Note_on_c, 9, 51, 72
11, 148350, Note_on_c, 9, 51, 0
11, 148350, Note_on_c, 9, 40, 0
11, 148440, Note_on_c, 9, 70, 50
11, 148470, Note_on_c, 9, 70, 0
11, 148560, Note_on_c, 9, 42, 99
11, 148560, Note_on_c, 9, 51, 96
11, 148560, Note_on_c, 9, 69, 47
11, 148560, Note_on_c, 9, 70, 46
11, 148590, Note_on_c, 9, 70, 0
11, 148590, Note_on_c, 9, 42, 0
11, 148590, Note_on_c, 9, 51, 0
11, 148590, Note_on_c, 9, 69, 0
11, 148680, Note_on_c, 9, 40, 113
11, 148680, Note_on_c, 9, 51, 66
11, 148710, Note_on_c, 9, 51, 0
11, 148710, Note_on_c, 9, 40, 0
11, 148800, Note_on_c, 9, 51, 109
11, 148830, Note_on_c, 9, 51, 0
11, 148920, Note_on_c, 9, 36, 90
11, 148920, Note_on_c, 9, 70, 47
11, 148950, Note_on_c, 9, 70, 0
11, 148950, Note_on_c, 9, 36, 0
11, 149040, Note_on_c, 9, 40, 112
11, 149040, Note_on_c, 9, 42, 115
11, 149040, Note_on_c, 9, 51, 94
11, 149040, Note_on_c, 9, 69, 42
11, 149040, Note_on_c, 9, 70, 48
11, 149070, Note_on_c, 9, 70, 0
11, 149070, Note_on_c, 9, 51, 0
11, 149070, Note_on_c, 9, 40, 0
11, 149070, Note_on_c, 9, 42, 0
11, 149070, Note_on_c, 9, 69, 0
11, 149160, Note_on_c, 9, 51, 73
11, 149190, Note_on_c, 9, 51, 0
11, 149280, Note_on_c, 9, 51, 109
11, 149310, Note_on_c, 9, 51, 0
11, 149400, Note_on_c, 9, 40, 115
11, 149400, Note_on_c, 9, 70, 47
11, 149430, Note_on_c, 9, 70, 0
11, 149430, Note_on_c, 9, 40, 0
11, 149520, Note_on_c, 9, 36, 88
11, 149520, Note_on_c, 9, 51, 88
11, 149520, Note_on_c, 9, 42, 115
11, 149520, Note_on_c, 9, 69, 47
11, 149520, Note_on_c, 9, 70, 52
11, 149550, Note_on_c, 9, 70, 0
11, 149550, Note_on_c, 9, 42, 0
11, 149550, Note_on_c, 9, 36, 0
11, 149550, Note_on_c, 9, 51, 0
11, 149550, Note_on_c, 9, 69, 0
11, 149640, Note_on_c, 9, 51, 74
11, 149670, Note_on_c, 9, 51, 0
11, 149760, Note_on_c, 9, 36, 98
11, 149760, Note_on_c, 9, 51, 109
11, 149790, Note_on_c, 9, 51, 0
11, 149790, Note_on_c, 9, 36, 0
11, 149880, Note_on_c, 9, 70, 47
11, 149910, Note_on_c, 9, 70, 0
11, 150000, Note_on_c, 9, 36, 100
11, 150000, Note_on_c, 9, 51, 99
11, 150000, Note_on_c, 9, 42, 112
11, 150000, Note_on_c, 9, 69, 48
11, 150000, Note_on_c, 9, 70, 33
11, 150030, Note_on_c, 9, 70, 0
11, 150030, Note_on_c, 9, 42, 0
11, 150030, Note_on_c, 9, 36, 0
11, 150030, Note_on_c, 9, 51, 0
11, 150030, Note_on_c, 9, 69, 0
11, 150120, Note_on_c, 9, 51, 64
11, 150150, Note_on_c, 9, 51, 0
11, 150240, Note_on_c, 9, 40, 111
11, 150240, Note_on_c, 9, 51, 94
11, 150270, Note_on_c, 9, 51, 0
11, 150270, Note_on_c, 9, 40, 0
11, 150360, Note_on_c, 9, 70, 44
11, 150390, Note_on_c, 9, 70, 0
11, 150480, Note_on_c, 9, 51, 49
11, 150480, Note_on_c, 9, 42, 118
11, 150480, Note_on_c, 9, 69, 51
11, 150480, Note_on_c, 9, 70, 59
11, 150510, Note_on_c, 9, 70, 0
11, 150510, Note_on_c, 9, 51, 0
11, 150510, Note_on_c, 9, 42, 0
11, 150510, Note_on_c, 9, 69, 0
11, 150600, Note_on_c, 9, 40, 113
11, 150600, Note_on_c, 9, 51, 91
11, 150630, Note_on_c, 9, 51, 0
11, 150630, Note_on_c, 9, 40, 0
11, 150720, Note_on_c, 9, 51, 66
11, 150750, Note_on_c, 9, 51, 0
11, 150840, Note_on_c, 9, 36, 98
11, 150840, Note_on_c, 9, 70, 47
11, 150870, Note_on_c, 9, 70, 0
11, 150870, Note_on_c, 9, 36, 0
11, 150960, Note_on_c, 9, 40, 116
11, 150960, Note_on_c, 9, 42, 115
11, 150960, Note_on_c, 9, 51, 113
11, 150960, Note_on_c, 9, 69, 50
11, 150960, Note_on_c, 9, 70, 65
11, 150990, Note_on_c, 9, 70, 0
11, 150990, Note_on_c, 9, 51, 0
11, 150990, Note_on_c, 9, 40, 0
11, 150990, Note_on_c, 9, 42, 0
11, 150990, Note_on_c, 9, 69, 0
11, 151080, Note_on_c, 9, 51, 77
11, 151110, Note_on_c, 9, 51, 0
11, 151200, Note_on_c, 9, 51, 87
11, 151230, Note_on_c, 9, 51, 0
11, 151320, Note_on_c, 9, 40, 117
11, 151320, Note_on_c, 9, 70, 51
11, 151350, Note_on_c, 9, 70, 0
11, 151350, Note_on_c, 9, 40, 0
11, 151440, Note_on_c, 9, 36, 91
11, 151440, Note_on_c, 9, 42, 115
11, 151440, Note_on_c, 9, 51, 112
11, 151440, Note_on_c, 9, 69, 50
11, 151440, Note_on_c, 9, 70, 47
11, 151470, Note_on_c, 9, 70, 0
11, 151470, Note_on_c, 9, 51, 0
11, 151470, Note_on_c, 9, 36, 0
11, 151470, Note_on_c, 9, 42, 0
11, 151470, Note_on_c, 9, 69, 0
11, 151560, Note_on_c, 9, 51, 75
11, 151590, Note_on_c, 9, 51, 0
11, 151680, Note_on_c, 9, 36, 116
11, 151680, Note_on_c, 9, 51, 80
11, 151710, Note_on_c, 9, 51, 0
11, 151710, Note_on_c, 9, 36, 0
11, 151800, Note_on_c, 9, 70, 53
11, 151830, Note_on_c, 9, 70, 0
11, 151920, Note_on_c, 9, 36, 109
11, 151920, Note_on_c, 9, 42, 112
11, 151920, Note_on_c, 9, 51, 109
11, 151920, Note_on_c, 9, 69, 46
11, 151920, Note_on_c, 9, 70, 55
11, 151950, Note_on_c, 9, 70, 0
11, 151950, Note_on_c, 9, 51, 0
11, 151950, Note_on_c, 9, 36, 0
11, 151950, Note_on_c, 9, 42, 0
11, 151950, Note_on_c, 9, 69, 0
11, 152040, Note_on_c, 9, 51, 72
11, 152070, Note_on_c, 9, 51, 0
11, 152160, Note_on_c, 9, 40, 105
11, 152160, Note_on_c, 9, 51, 99
11, 152190, Note_on_c, 9, 51, 0
11, 152190, Note_on_c, 9, 40, 0
11, 152280, Note_on_c, 9, 70, 52
11, 152310, Note_on_c, 9, 70, 0
11, 152400, Note_on_c, 9, 51, 105
11, 152400, Note_on_c, 9, 42, 115
11, 152400, Note_on_c, 9, 69, 46
11, 152400, Note_on_c, 9, 70, 71
11, 152430, Note_on_c, 9, 70, 0
11, 152430, Note_on_c, 9, 51, 0
11, 152430, Note_on_c, 9, 42, 0
11, 152430, Note_on_c, 9, 69, 0
11, 152520, Note_on_c, 9, 36, 105
11, 152520, Note_on_c, 9, 51, 68
11, 152550, Note_on_c, 9, 51, 0
11, 152550, Note_on_c, 9, 36, 0
11, 152640, Note_on_c, 9, 51, 70
11, 152670, Note_on_c, 9, 51, 0
11, 152760, Note_on_c, 9, 70, 51
11, 152790, Note_on_c, 9, 70, 0
11, 152880, Note_on_c, 9, 36, 113
11, 152880, Note_on_c, 9, 51, 91
11, 152880, Note_on_c, 9, 42, 109
11, 152880, Note_on_c, 9, 69, 46
11, 152880, Note_on_c, 9, 70, 57
11, 152910, Note_on_c, 9, 70, 0
11, 152910, Note_on_c, 9, 42, 0
11, 152910, Note_on_c, 9, 36, 0
11, 152910, Note_on_c, 9, 51, 0
11, 152910, Note_on_c, 9, 69, 0
11, 153000, Note_on_c, 9, 51, 72
11, 153030, Note_on_c, 9, 51, 0
11, 153120, Note_on_c, 9, 40, 103
11, 153120, Note_on_c, 9, 51, 101
11, 153150, Note_on_c, 9, 51, 0
11, 153150, Note_on_c, 9, 40, 0
11, 153240, Note_on_c, 9, 36, 119
11, 153240, Note_on_c, 9, 70, 51
11, 153270, Note_on_c, 9, 70, 0
11, 153270, Note_on_c, 9, 36, 0
11, 153360, Note_on_c, 9, 51, 101
11, 153360, Note_on_c, 9, 42, 115
11, 153360, Note_on_c, 9, 69, 45
11, 153360, Note_on_c, 9, 70, 65
11, 153390, Note_on_c, 9, 70, 0
11, 153390, Note_on_c, 9, 51, 0
11, 153390, Note_on_c, 9, 42, 0
11, 153390, Note_on_c, 9, 69, 0
11, 153480, Note_on_c, 9, 51, 74
11, 153510, Note_on_c, 9, 51, 0
11, 153600, Note_on_c, 9, 51, 87
11, 153630, Note_on_c, 9, 51, 0
11, 153720, Note_on_c, 9, 70, 47
11, 153750, Note_on_c, 9, 70, 0
11, 153840, Note_on_c, 9, 36, 109
11, 153840, Note_on_c, 9, 51, 101
11, 153840, Note_on_c, 9, 42, 113
11, 153840, Note_on_c, 9, 69, 43
11, 153840, Note_on_c, 9, 70, 59
11, 153870, Note_on_c, 9, 70, 0
11, 153870, Note_on_c, 9, 42, 0
11, 153870, Note_on_c, 9, 36, 0
11, 153870, Note_on_c, 9, 51, 0
11, 153870, Note_on_c, 9, 69, 0
11, 153960, Note_on_c, 9, 36, 91
11, 153960, Note_on_c, 9, 51, 65
11, 153990, Note_on_c, 9, 51, 0
11, 153990, Note_on_c, 9, 36, 0
11, 154080, Note_on_c, 9, 40, 118
11, 154080, Note_on_c, 9, 51, 91
11, 154110, Note_on_c, 9, 51, 0
11, 154110, Note_on_c, 9, 40, 0
11, 154200, Note_on_c, 9, 70, 48
11, 154230, Note_on_c, 9, 70, 0
11, 154320, Note_on_c, 9, 51, 112
11, 154320, Note_on_c, 9, 42, 109
11, 154320, Note_on_c, 9, 69, 41
11, 154320, Note_on_c, 9, 70, 49
11, 154350, Note_on_c, 9, 70, 0
11, 154350, Note_on_c, 9, 51, 0
11, 154350, Note_on_c, 9, 42, 0
11, 154350, Note_on_c, 9, 69, 0
11, 154440, Note_on_c, 9, 40, 121
11, 154440, Note_on_c, 9, 51, 73
11, 154470, Note_on_c, 9, 51, 0
11, 154470, Note_on_c, 9, 40, 0
11, 154560, Note_on_c, 9, 36, 92
11, 154560, Note_on_c, 9, 51, 99
11, 154590, Note_on_c, 9, 51, 0
11, 154590, Note_on_c, 9, 36, 0
11, 154680, Note_on_c, 9, 70, 52
11, 154710, Note_on_c, 9, 70, 0
11, 154800, Note_on_c, 9, 51, 88
11, 154800, Note_on_c, 9, 42, 105
11, 154800, Note_on_c, 9, 69, 48
11, 154800, Note_on_c, 9, 70, 41
11, 154830, Note_on_c, 9, 70, 0
11, 154830, Note_on_c, 9, 51, 0
11, 154830, Note_on_c, 9, 42, 0
11, 154830, Note_on_c, 9, 69, 0
11, 154920, Note_on_c, 9, 36, 113
11, 154920, Note_on_c, 9, 51, 68
11, 154950, Note_on_c, 9, 51, 0
11, 154950, Note_on_c, 9, 36, 0
11, 155040, Note_on_c, 9, 51, 99
11, 155070, Note_on_c, 9, 51, 0
11, 155160, Note_on_c, 9, 40, 118
11, 155160, Note_on_c, 9, 70, 49
11, 155190, Note_on_c, 9, 70, 0
11, 155190, Note_on_c, 9, 40, 0
11, 155280, Note_on_c, 9, 40, 100
11, 155280, Note_on_c, 9, 51, 105
11, 155280, Note_on_c, 9, 42, 112
11, 155280, Note_on_c, 9, 69, 50
11, 155280, Note_on_c, 9, 70, 53
11, 155310, Note_on_c, 9, 70, 0
11, 155310, Note_on_c, 9, 42, 0
11, 155310, Note_on_c, 9, 40, 0
11, 155310, Note_on_c, 9, 51, 0
11, 155310, Note_on_c, 9, 69, 0
11, 155400, Note_on_c, 9, 40, 115
11, 155400, Note_on_c, 9, 51, 67
11, 155430, Note_on_c, 9, 51, 0
11, 155430, Note_on_c, 9, 40, 0
11, 155520, Note_on_c, 9, 36, 116
11, 155520, Note_on_c, 9, 51, 109
11, 155550, Note_on_c, 9, 51, 0
11, 155550, Note_on_c, 9, 36, 0
11, 155640, Note_on_c, 9, 70, 48
11, 155670, Note_on_c, 9, 70, 0
11, 155760, Note_on_c, 9, 36, 116
11, 155760, Note_on_c, 9, 51, 91
11, 155760, Note_on_c, 9, 42, 105
11, 155760, Note_on_c, 9, 70, 48
11, 155790, Note_on_c, 9, 70, 0
11, 155790, Note_on_c, 9, 36, 0
11, 155790, Note_on_c, 9, 51, 0
11, 155790, Note_on_c, 9, 42, 0
11, 155880, Note_on_c, 9, 51, 70
11, 155910, Note_on_c, 9, 51, 0
11, 156000, Note_on_c, 9, 40, 123
11, 156000, Note_on_c, 9, 51, 64
11, 156030, Note_on_c, 9, 51, 0
11, 156030, Note_on_c, 9, 40, 0
11, 156120, Note_on_c, 9, 70, 46
11, 156150, Note_on_c, 9, 70, 0
11, 156240, Note_on_c, 9, 51, 99
11, 156240, Note_on_c, 9, 42, 101
11, 156240, Note_on_c, 9, 69, 50
11, 156240, Note_on_c, 9, 70, 48
11, 156270, Note_on_c, 9, 70, 0
11, 156270, Note_on_c, 9, 51, 0
11, 156270, Note_on_c, 9, 42, 0
11, 156270, Note_on_c, 9, 69, 0
11, 156360, Note_on_c, 9, 40, 91
11, 156360, Note_on_c, 9, 51, 59
11, 156390, Note_on_c, 9, 51, 0
11, 156390, Note_on_c, 9, 40, 0
11, 156480, Note_on_c, 9, 51, 40
11, 156510, Note_on_c, 9, 51, 0
11, 156600, Note_on_c, 9, 36, 105
11, 156600, Note_on_c, 9, 70, 48
11, 156630, Note_on_c, 9, 70, 0
11, 156630, Note_on_c, 9, 36, 0
11, 156720, Note_on_c, 9, 40, 103
11, 156720, Note_on_c, 9, 51, 99
11, 156720, Note_on_c, 9, 42, 105
11, 156720, Note_on_c, 9, 69, 49
11, 156720, Note_on_c, 9, 70, 73
11, 156750, Note_on_c, 9, 70, 0
11, 156750, Note_on_c, 9, 42, 0
11, 156750, Note_on_c, 9, 40, 0
11, 156750, Note_on_c, 9, 51, 0
11, 156750, Note_on_c, 9, 69, 0
11, 156840, Note_on_c, 9, 51, 70
11, 156870, Note_on_c, 9, 51, 0
11, 156960, Note_on_c, 9, 51, 101
11, 156990, Note_on_c, 9, 51, 0
11, 157080, Note_on_c, 9, 40, 86
11, 157080, Note_on_c, 9, 70, 43
11, 157110, Note_on_c, 9, 70, 0
11, 157110, Note_on_c, 9, 40, 0
11, 157200, Note_on_c, 9, 36, 91
11, 157200, Note_on_c, 9, 51, 109
11, 157200, Note_on_c, 9, 42, 101
11, 157200, Note_on_c, 9, 69, 45
11, 157200, Note_on_c, 9, 70, 67
11, 157230, Note_on_c, 9, 70, 0
11, 157230, Note_on_c, 9, 42, 0
11, 157230, Note_on_c, 9, 36, 0
11, 157230, Note_on_c, 9, 51, 0
11, 157230, Note_on_c, 9, 69, 0
11, 157320, Note_on_c, 9, 51, 73
11, 157350, Note_on_c, 9, 51, 0
11, 157440, Note_on_c, 9, 36, 113
11, 157440, Note_on_c, 9, 51, 101
11, 157470, Note_on_c, 9, 51, 0
11, 157470, Note_on_c, 9, 36, 0
11, 157560, Note_on_c, 9, 70, 40
11, 157590, Note_on_c, 9, 70, 0
11, 157680, Note_on_c, 9, 36, 113
11, 157680, Note_on_c, 9, 42, 113
11, 157680, Note_on_c, 9, 51, 99
11, 157680, Note_on_c, 9, 69, 51
11, 157680, Note_on_c, 9, 70, 71
11, 157710, Note_on_c, 9, 70, 0
11, 157710, Note_on_c, 9, 51, 0
11, 157710, Note_on_c, 9, 36, 0
11, 157710, Note_on_c, 9, 42, 0
11, 157710, Note_on_c, 9, 69, 0
11, 157800, Note_on_c, 9, 51, 72
11, 157830, Note_on_c, 9, 51, 0
11, 157920, Note_on_c, 9, 40, 103
11, 157920, Note_on_c, 9, 51, 80
11, 157950, Note_on_c, 9, 51, 0
11, 157950, Note_on_c, 9, 40, 0
11, 158040, Note_on_c, 9, 70, 47
11, 158070, Note_on_c, 9, 70, 0
11, 158160, Note_on_c, 9, 42, 105
11, 158160, Note_on_c, 9, 51, 94
11, 158160, Note_on_c, 9, 69, 50
11, 158160, Note_on_c, 9, 70, 53
11, 158190, Note_on_c, 9, 70, 0
11, 158190, Note_on_c, 9, 42, 0
11, 158190, Note_on_c, 9, 51, 0
11, 158190, Note_on_c, 9, 69, 0
11, 158280, Note_on_c, 9, 40, 113
11, 158280, Note_on_c, 9, 51, 75
11, 158310, Note_on_c, 9, 51, 0
11, 158310, Note_on_c, 9, 40, 0
11, 158400, Note_on_c, 9, 51, 66
11, 158430, Note_on_c, 9, 51, 0
11, 158520, Note_on_c, 9, 36, 98
11, 158520, Note_on_c, 9, 70, 48
11, 158550, Note_on_c, 9, 70, 0
11, 158550, Note_on_c, 9, 36, 0
11, 158640, Note_on_c, 9, 40, 100
11, 158640, Note_on_c, 9, 42, 99
11, 158640, Note_on_c, 9, 51, 105
11, 158640, Note_on_c, 9, 69, 53
11, 158640, Note_on_c, 9, 70, 64
11, 158670, Note_on_c, 9, 70, 0
11, 158670, Note_on_c, 9, 51, 0
11, 158670, Note_on_c, 9, 40, 0
11, 158670, Note_on_c, 9, 42, 0
11, 158670, Note_on_c, 9, 69, 0
11, 158760, Note_on_c, 9, 51, 64
11, 158790, Note_on_c, 9, 51, 0
11, 158880, Note_on_c, 9, 51, 94
11, 158910, Note_on_c, 9, 51, 0
11, 159000, Note_on_c, 9, 40, 102
11, 159000, Note_on_c, 9, 70, 47
11, 159030, Note_on_c, 9, 70, 0
11, 159030, Note_on_c, 9, 40, 0
11, 159120, Note_on_c, 9, 40, 115
11, 159120, Note_on_c, 9, 51, 99
11, 159120, Note_on_c, 9, 42, 105
11, 159120, Note_on_c, 9, 69, 50
11, 159120, Note_on_c, 9, 70, 50
11, 159150, Note_on_c, 9, 70, 0
11, 159150, Note_on_c, 9, 42, 0
11, 159150, Note_on_c, 9, 40, 0
11, 159150, Note_on_c, 9, 51, 0
11, 159150, Note_on_c, 9, 69, 0
11, 159240, Note_on_c, 9, 40, 121
11, 159240, Note_on_c, 9, 51, 65
11, 159270, Note_on_c, 9, 51, 0
11, 159270, Note_on_c, 9, 40, 0
11, 159360, Note_on_c, 9, 36, 100
11, 159360, Note_on_c, 9, 51, 105
11, 159390, Note_on_c, 9, 51, 0
11, 159390, Note_on_c, 9, 36, 0
11, 159480, Note_on_c, 9, 70, 48
11, 159510, Note_on_c, 9, 70, 0
11, 159600, Note_on_c, 9, 36, 122
11, 159600, Note_on_c, 9, 51, 94
11, 159600, Note_on_c, 9, 42, 115
11, 159600, Note_on_c, 9, 69, 53
11, 159600, Note_on_c, 9, 70, 53
11, 159630, Note_on_c, 9, 70, 0
11, 159630, Note_on_c, 9, 42, 0
11, 159630, Note_on_c, 9, 36, 0
11, 159630, Note_on_c, 9, 51, 0
11, 159630, Note_on_c, 9, 69, 0
11, 159720, Note_on_c, 9, 51, 71
11, 159750, Note_on_c, 9, 51, 0
11, 159840, Note_on_c, 9, 40, 113
11, 159840, Note_on_c, 9, 51, 77
11, 159870, Note_on_c, 9, 51, 0
11, 159870, Note_on_c, 9, 40, 0
11, 159960, Note_on_c, 9, 70, 47
11, 159990, Note_on_c, 9, 70, 0
11, 160080, Note_on_c, 9, 51, 99
11, 160080, Note_on_c, 9, 42, 115
11, 160080, Note_on_c, 9, 69, 52
11, 160080, Note_on_c, 9, 70, 62
11, 160110, Note_on_c, 9, 70, 0
11, 160110, Note_on_c, 9, 51, 0
11, 160110, Note_on_c, 9, 42, 0
11, 160110, Note_on_c, 9, 69, 0
11, 160200, Note_on_c, 9, 40, 105
11, 160200, Note_on_c, 9, 51, 64
11, 160230, Note_on_c, 9, 51, 0
11, 160230, Note_on_c, 9, 40, 0
11, 160320, Note_on_c, 9, 51, 99
11, 160350, Note_on_c, 9, 51, 0
11, 160440, Note_on_c, 9, 36, 92
11, 160440, Note_on_c, 9, 70, 46
11, 160470, Note_on_c, 9, 70, 0
11, 160470, Note_on_c, 9, 36, 0
11, 160560, Note_on_c, 9, 40, 100
11, 160560, Note_on_c, 9, 51, 88
11, 160560, Note_on_c, 9, 42, 115
11, 160560, Note_on_c, 9, 69, 51
11, 160560, Note_on_c, 9, 70, 74
11, 160590, Note_on_c, 9, 70, 0
11, 160590, Note_on_c, 9, 42, 0
11, 160590, Note_on_c, 9, 40, 0
11, 160590, Note_on_c, 9, 51, 0
11, 160590, Note_on_c, 9, 69, 0
11, 160680, Note_on_c, 9, 51, 70
11, 160710, Note_on_c, 9, 51, 0
11, 160800, Note_on_c, 9, 51, 96
11, 160830, Note_on_c, 9, 51, 0
11, 160920, Note_on_c, 9, 40, 113
11, 160920, Note_on_c, 9, 70, 51
11, 160950, Note_on_c, 9, 70, 0
11, 160950, Note_on_c, 9, 40, 0
11, 161040, Note_on_c, 9, 36, 91
11, 161040, Note_on_c, 9, 51, 99
11, 161040, Note_on_c, 9, 42, 109
11, 161040, Note_on_c, 9, 69, 52
11, 161040, Note_on_c, 9, 70, 69
11, 161070, Note_on_c, 9, 70, 0
11, 161070, Note_on_c, 9, 42, 0
11, 161070, Note_on_c, 9, 36, 0
11, 161070, Note_on_c, 9, 51, 0
11, 161070, Note_on_c, 9, 69, 0
11, 161160, Note_on_c, 9, 51, 74
11, 161190, Note_on_c, 9, 51, 0
11, 161280, Note_on_c, 9, 36, 113
11, 161280, Note_on_c, 9, 51, 99
11, 161310, Note_on_c, 9, 51, 0
11, 161310, Note_on_c, 9, 36, 0
11, 161400, Note_on_c, 9, 70, 52
11, 161430, Note_on_c, 9, 70, 0
11, 161520, Note_on_c, 9, 36, 105
11, 161520, Note_on_c, 9, 51, 94
11, 161520, Note_on_c, 9, 42, 112
11, 161520, Note_on_c, 9, 69, 46
11, 161520, Note_on_c, 9, 70, 42
11, 161550, Note_on_c, 9, 70, 0
11, 161550, Note_on_c, 9, 42, 0
11, 161550, Note_on_c, 9, 36, 0
11, 161550, Note_on_c, 9, 51, 0
11, 161550, Note_on_c, 9, 69, 0
11, 161640, Note_on_c, 9, 51, 75
11, 161670, Note_on_c, 9, 51, 0
11, 161760, Note_on_c, 9, 40, 116
11, 161760, Note_on_c, 9, 51, 99
11, 161790, Note_on_c, 9, 51, 0
11, 161790, Note_on_c, 9, 40, 0
11, 161880, Note_on_c, 9, 70, 50
11, 161910, Note_on_c, 9, 70, 0
11, 162000, Note_on_c, 9, 42, 113
11, 162000, Note_on_c, 9, 51, 109
11, 162000, Note_on_c, 9, 69, 47
11, 162000, Note_on_c, 9, 70, 46
11, 162030, Note_on_c, 9, 70, 0
11, 162030, Note_on_c, 9, 42, 0
11, 162030, Note_on_c, 9, 51, 0
11, 162030, Note_on_c, 9, 69, 0
11, 162120, Note_on_c, 9, 51, 76
11, 162150, Note_on_c, 9, 51, 0
11, 162240, Note_on_c, 9, 36, 90
11, 162240, Note_on_c, 9, 51, 91
11, 162270, Note_on_c, 9, 51, 0
11, 162270, Note_on_c, 9, 36, 0
11, 162360, Note_on_c, 9, 70, 47
11, 162390, Note_on_c, 9, 70, 0
11, 162480, Note_on_c, 9, 40, 113
11, 162480, Note_on_c, 9, 42, 115
11, 162480, Note_on_c, 9, 51, 121
11, 162480, Note_on_c, 9, 69, 42
11, 162480, Note_on_c, 9, 70, 48
11, 162510, Note_on_c, 9, 70, 0
11, 162510, Note_on_c, 9, 51, 0
11, 162510, Note_on_c, 9, 40, 0
11, 162510, Note_on_c, 9, 42, 0
11, 162510, Note_on_c, 9, 69, 0
11, 162600, Note_on_c, 9, 40, 112
11, 162630, Note_on_c, 9, 40, 0
11, 162720, Note_on_c, 9, 45, 112
11, 162750, Note_on_c, 9, 45, 0
11, 162840, Note_on_c, 9, 45, 112
11, 162840, Note_on_c, 9, 70, 47
11, 162870, Note_on_c, 9, 70, 0
11, 162870, Note_on_c, 9, 45, 0
11, 162960, Note_on_c, 9, 43, 112
11, 162960, Note_on_c, 9, 36, 88
11, 162960, Note_on_c, 9, 42, 118
11, 162960, Note_on_c, 9, 69, 47
11, 162960, Note_on_c, 9, 70, 52
11, 162990, Note_on_c, 9, 70, 0
11, 162990, Note_on_c, 9, 42, 0
11, 162990, Note_on_c, 9, 43, 0
11, 162990, Note_on_c, 9, 36, 0
11, 162990, Note_on_c, 9, 69, 0
11, 163080, Note_on_c, 9, 43, 112
11, 163110, Note_on_c, 9, 43, 0
11, 163200, Note_on_c, 9, 36, 113
11, 163200, Note_on_c, 9, 49, 116
11, 163230, Note_on_c, 9, 49, 0
11, 163230, Note_on_c, 9, 36, 0
11, 163320, Note_on_c, 9, 70, 52
11, 163350, Note_on_c, 9, 70, 0
11, 163440, Note_on_c, 9, 36, 105
11, 163440, Note_on_c, 9, 42, 101
11, 163440, Note_on_c, 9, 51, 109
11, 163440, Note_on_c, 9, 69, 46
11, 163440, Note_on_c, 9, 70, 42
11, 163470, Note_on_c, 9, 70, 0
11, 163470, Note_on_c, 9, 51, 0
11, 163470, Note_on_c, 9, 36, 0
11, 163470, Note_on_c, 9, 42, 0
11, 163470, Note_on_c, 9, 69, 0
11, 163560, Note_on_c, 9, 51, 59
11, 163590, Note_on_c, 9, 51, 0
11, 163680, Note_on_c, 9, 40, 116
11, 163680, Note_on_c, 9, 51, 72
11, 163710, Note_on_c, 9, 51, 0
11, 163710, Note_on_c, 9, 40, 0
11, 163800, Note_on_c, 9, 70, 50
11, 163830, Note_on_c, 9, 70, 0
11, 163920, Note_on_c, 9, 42, 99
11, 163920, Note_on_c, 9, 51, 96
11, 163920, Note_on_c, 9, 69, 47
11, 163920, Note_on_c, 9, 70, 46
11, 163950, Note_on_c, 9, 70, 0
11, 163950, Note_on_c, 9, 42, 0
11, 163950, Note_on_c, 9, 51, 0
11, 163950, Note_on_c, 9, 69, 0
11, 164040, Note_on_c, 9, 40, 113
11, 164040, Note_on_c, 9, 51, 66
11, 164070, Note_on_c, 9, 51, 0
11, 164070, Note_on_c, 9, 40, 0
11, 164160, Note_on_c, 9, 51, 109
11, 164190, Note_on_c, 9, 51, 0
11, 164280, Note_on_c, 9, 36, 90
11, 164280, Note_on_c, 9, 70, 47
11, 164310, Note_on_c, 9, 70, 0
11, 164310, Note_on_c, 9, 36, 0
11, 164400, Note_on_c, 9, 40, 112
11, 164400, Note_on_c, 9, 42, 115
11, 164400, Note_on_c, 9, 51, 94
11, 164400, Note_on_c, 9, 69, 42
11, 164400, Note_on_c, 9, 70, 48
11, 164430, Note_on_c, 9, 70, 0
11, 164430, Note_on_c, 9, 51, 0
11, 164430, Note_on_c, 9, 40, 0
11, 164430, Note_on_c, 9, 42, 0
11, 164430, Note_on_c, 9, 69, 0
11, 164520, Note_on_c, 9, 51, 73
11, 164550, Note_on_c, 9, 51, 0
11, 164640, Note_on_c, 9, 51, 109
11, 164670, Note_on_c, 9, 51, 0
11, 164760, Note_on_c, 9, 40, 115
11, 164760, Note_on_c, 9, 70, 47
11, 164790, Note_on_c, 9, 70, 0
11, 164790, Note_on_c, 9, 40, 0
11, 164880, Note_on_c, 9, 36, 88
11, 164880, Note_on_c, 9, 51, 88
11, 164880, Note_on_c, 9, 42, 115
11, 164880, Note_on_c, 9, 69, 47
11, 164880, Note_on_c, 9, 70, 52
11, 164910, Note_on_c, 9, 70, 0
11, 164910, Note_on_c, 9, 42, 0
11, 164910, Note_on_c, 9, 36, 0
11, 164910, Note_on_c, 9, 51, 0
11, 164910, Note_on_c, 9, 69, 0
11, 165000, Note_on_c, 9, 51, 74
11, 165030, Note_on_c, 9, 51, 0
11, 165120, Note_on_c, 9, 36, 98
11, 165120, Note_on_c, 9, 51, 109
11, 165150, Note_on_c, 9, 51, 0
11, 165150, Note_on_c, 9, 36, 0
11, 165240, Note_on_c, 9, 70, 47
11, 165270, Note_on_c, 9, 70, 0
11, 165360, Note_on_c, 9, 36, 100
11, 165360, Note_on_c, 9, 51, 99
11, 165360, Note_on_c, 9, 42, 112
11, 165360, Note_on_c, 9, 69, 48
11, 165360, Note_on_c, 9, 70, 33
11, 165390, Note_on_c, 9, 70, 0
11, 165390, Note_on_c, 9, 42, 0
11, 165390, Note_on_c, 9, 36, 0
11, 165390, Note_on_c, 9, 51, 0
11, 165390, Note_on_c, 9, 69, 0
11, 165480, Note_on_c, 9, 51, 64
11, 165510, Note_on_c, 9, 51, 0
11, 165600, Note_on_c, 9, 40, 111
11, 165600, Note_on_c, 9, 51, 94
11, 165630, Note_on_c, 9, 51, 0
11, 165630, Note_on_c, 9, 40, 0
11, 165720, Note_on_c, 9, 70, 44
11, 165750, Note_on_c, 9, 70, 0
11, 165840, Note_on_c, 9, 51, 49
11, 165840, Note_on_c, 9, 42, 118
11, 165840, Note_on_c, 9, 69, 51
11, 165840, Note_on_c, 9, 70, 59
11, 165870, Note_on_c, 9, 70, 0
11, 165870, Note_on_c, 9, 51, 0
11, 165870, Note_on_c, 9, 42, 0
11, 165870, Note_on_c, 9, 69, 0
11, 165960, Note_on_c, 9, 40, 113
11, 165960, Note_on_c, 9, 51, 91
11, 165990, Note_on_c, 9, 51, 0
11, 165990, Note_on_c, 9, 40, 0
11, 166080, Note_on_c, 9, 51, 66
11, 166110, Note_on_c, 9, 51, 0
11, 166200, Note_on_c, 9, 36, 98
11, 166200, Note_on_c, 9, 70, 47
11, 166230, Note_on_c, 9, 70, 0
11, 166230, Note_on_c, 9, 36, 0
11, 166320, Note_on_c, 9, 40, 116
11, 166320, Note_on_c, 9, 42, 115
11, 166320, Note_on_c, 9, 51, 113
11, 166320, Note_on_c, 9, 69, 50
11, 166320, Note_on_c, 9, 70, 65
11, 166350, Note_on_c, 9, 70, 0
11, 166350, Note_on_c, 9, 51, 0
11, 166350, Note_on_c, 9, 40, 0
11, 166350, Note_on_c, 9, 42, 0
11, 166350, Note_on_c, 9, 69, 0
11, 166440, Note_on_c, 9, 51, 77
11, 166470, Note_on_c, 9, 51, 0
11, 166560, Note_on_c, 9, 51, 87
11, 166590, Note_on_c, 9, 51, 0
11, 166680, Note_on_c, 9, 40, 117
11, 166680, Note_on_c, 9, 70, 51
11, 166710, Note_on_c, 9, 70, 0
11, 166710, Note_on_c, 9, 40, 0
11, 166800, Note_on_c, 9, 36, 91
11, 166800, Note_on_c, 9, 42, 115
11, 166800, Note_on_c, 9, 51, 112
11, 166800, Note_on_c, 9, 69, 50
11, 166800, Note_on_c, 9, 70, 47
11, 166830, Note_on_c, 9, 70, 0
11, 166830, Note_on_c, 9, 51, 0
11, 166830, Note_on_c, 9, 36, 0
11, 166830, Note_on_c, 9, 42, 0
11, 166830, Note_on_c, 9, 69, 0
11, 166920, Note_on_c, 9, 51, 75
11, 166950, Note_on_c, 9, 51, 0
11, 167040, Note_on_c, 9, 36, 116
11, 167040, Note_on_c, 9, 51, 80
11, 167070, Note_on_c, 9, 51, 0
11, 167070, Note_on_c, 9, 36, 0
11, 167160, Note_on_c, 9, 70, 53
11, 167190, Note_on_c, 9, 70, 0
11, 167280, Note_on_c, 9, 36, 109
11, 167280, Note_on_c, 9, 42, 112
11, 167280, Note_on_c, 9, 51, 109
11, 167280, Note_on_c, 9, 69, 46
11, 167280, Note_on_c, 9, 70, 55
11, 167310, Note_on_c, 9, 70, 0
11, 167310, Note_on_c, 9, 51, 0
11, 167310, Note_on_c, 9, 36, 0
11, 167310, Note_on_c, 9, 42, 0
11, 167310, Note_on_c, 9, 69, 0
11, 167400, Note_on_c, 9, 51, 72
11, 167430, Note_on_c, 9, 51, 0
11, 167520, Note_on_c, 9, 40, 105
11, 167520, Note_on_c, 9, 51, 99
11, 167550, Note_on_c, 9, 51, 0
11, 167550, Note_on_c, 9, 40, 0
11, 167640, Note_on_c, 9, 70, 52
11, 167670, Note_on_c, 9, 70, 0
11, 167760, Note_on_c, 9, 51, 105
11, 167760, Note_on_c, 9, 42, 115
11, 167760, Note_on_c, 9, 69, 46
11, 167760, Note_on_c, 9, 70, 71
11, 167790, Note_on_c, 9, 70, 0
11, 167790, Note_on_c, 9, 51, 0
11, 167790, Note_on_c, 9, 42, 0
11, 167790, Note_on_c, 9, 69, 0
11, 167880, Note_on_c, 9, 36, 105
11, 167880, Note_on_c, 9, 51, 68
11, 167910, Note_on_c, 9, 51, 0
11, 167910, Note_on_c, 9, 36, 0
11, 168000, Note_on_c, 9, 51, 70
11, 168030, Note_on_c, 9, 51, 0
11, 168120, Note_on_c, 9, 70, 51
11, 168150, Note_on_c, 9, 70, 0
11, 168240, Note_on_c, 9, 36, 113
11, 168240, Note_on_c, 9, 51, 91
11, 168240, Note_on_c, 9, 42, 109
11, 168240, Note_on_c, 9, 69, 46
11, 168240, Note_on_c, 9, 70, 57
11, 168270, Note_on_c, 9, 70, 0
11, 168270, Note_on_c, 9, 42, 0
11, 168270, Note_on_c, 9, 36, 0
11, 168270, Note_on_c, 9, 51, 0
11, 168270, Note_on_c, 9, 69, 0
11, 168360, Note_on_c, 9, 51, 72
11, 168390, Note_on_c, 9, 51, 0
11, 168480, Note_on_c, 9, 40, 103
11, 168480, Note_on_c, 9, 51, 101
11, 168510, Note_on_c, 9, 51, 0
11, 168510, Note_on_c, 9, 40, 0
11, 168600, Note_on_c, 9, 36, 119
11, 168600, Note_on_c, 9, 70, 51
11, 168630, Note_on_c, 9, 70, 0
11, 168630, Note_on_c, 9, 36, 0
11, 168720, Note_on_c, 9, 51, 101
11, 168720, Note_on_c, 9, 42, 115
11, 168720, Note_on_c, 9, 69, 45
11, 168720, Note_on_c, 9, 70, 65
11, 168750, Note_on_c, 9, 70, 0
11, 168750, Note_on_c, 9, 51, 0
11, 168750, Note_on_c, 9, 42, 0
11, 168750, Note_on_c, 9, 69, 0
11, 168840, Note_on_c, 9, 51, 74
11, 168870, Note_on_c, 9, 51, 0
11, 168960, Note_on_c, 9, 51, 87
11, 168990, Note_on_c, 9, 51, 0
11, 169080, Note_on_c, 9, 70, 47
11, 169110, Note_on_c, 9, 70, 0
11, 169200, Note_on_c, 9, 36, 109
11, 169200, Note_on_c, 9, 51, 101
11, 169200, Note_on_c, 9, 42, 113
11, 169200, Note_on_c, 9, 69, 43
11, 169200, Note_on_c, 9, 70, 59
11, 169230, Note_on_c, 9, 70, 0
11, 169230, Note_on_c, 9, 42, 0
11, 169230, Note_on_c, 9, 36, 0
11, 169230, Note_on_c, 9, 51, 0
11, 169230, Note_on_c, 9, 69, 0
11, 169320, Note_on_c, 9, 36, 91
11, 169320, Note_on_c, 9, 51, 65
11, 169350, Note_on_c, 9, 51, 0
11, 169350, Note_on_c, 9, 36, 0
11, 169440, Note_on_c, 9, 40, 118
11, 169440, Note_on_c, 9, 51, 91
11, 169470, Note_on_c, 9, 51, 0
11, 169470, Note_on_c, 9, 40, 0
11, 169560, Note_on_c, 9, 70, 48
11, 169590, Note_on_c, 9, 70, 0
11, 169680, Note_on_c, 9, 51, 112
11, 169680, Note_on_c, 9, 42, 109
11, 169680, Note_on_c, 9, 69, 41
11, 169680, Note_on_c, 9, 70, 49
11, 169710, Note_on_c, 9, 70, 0
11, 169710, Note_on_c, 9, 51, 0
11, 169710, Note_on_c, 9, 42, 0
11, 169710, Note_on_c, 9, 69, 0
11, 169800, Note_on_c, 9, 40, 121
11, 169800, Note_on_c, 9, 51, 73
11, 169830, Note_on_c, 9, 51, 0
11, 169830, Note_on_c, 9, 40, 0
11, 169920, Note_on_c, 9, 36, 92
11, 169920, Note_on_c, 9, 51, 99
11, 169950, Note_on_c, 9, 51, 0
11, 169950, Note_on_c, 9, 36, 0
11, 170040, Note_on_c, 9, 70, 52
11, 170070, Note_on_c, 9, 70, 0
11, 170160, Note_on_c, 9, 51, 88
11, 170160, Note_on_c, 9, 42, 105
11, 170160, Note_on_c, 9, 69, 48
11, 170160, Note_on_c, 9, 70, 41
11, 170190, Note_on_c, 9, 70, 0
11, 170190, Note_on_c, 9, 51, 0
11, 170190, Note_on_c, 9, 42, 0
11, 170190, Note_on_c, 9, 69, 0
11, 170280, Note_on_c, 9, 36, 113
11, 170280, Note_on_c, 9, 51, 68
11, 170310, Note_on_c, 9, 51, 0
11, 170310, Note_on_c, 9, 36, 0
11, 170400, Note_on_c, 9, 51, 99
11, 170430, Note_on_c, 9, 51, 0
11, 170520, Note_on_c, 9, 40, 118
11, 170520, Note_on_c, 9, 70, 49
11, 170550, Note_on_c, 9, 70, 0
11, 170550, Note_on_c, 9, 40, 0
11, 170640, Note_on_c, 9, 40, 100
11, 170640, Note_on_c, 9, 51, 105
11, 170640, Note_on_c, 9, 42, 112
11, 170640, Note_on_c, 9, 69, 50
11, 170640, Note_on_c, 9, 70, 53
11, 170670, Note_on_c, 9, 70, 0
11, 170670, Note_on_c, 9, 42, 0
11, 170670, Note_on_c, 9, 40, 0
11, 170670, Note_on_c, 9, 51, 0
11, 170670, Note_on_c, 9, 69, 0
11, 170760, Note_on_c, 9, 40, 115
11, 170760, Note_on_c, 9, 51, 67
11, 170790, Note_on_c, 9, 51, 0
11, 170790, Note_on_c, 9, 40, 0
11, 170880, Note_on_c, 9, 36, 116
11, 170880, Note_on_c, 9, 51, 109
11, 170910, Note_on_c, 9, 51, 0
11, 170910, Note_on_c, 9, 36, 0
11, 171000, Note_on_c, 9, 70, 48
11, 171030, Note_on_c, 9, 70, 0
11, 171120, Note_on_c, 9, 36, 116
11, 171120, Note_on_c, 9, 51, 91
11, 171120, Note_on_c, 9, 42, 105
11, 171120, Note_on_c, 9, 69, 47
11, 171120, Note_on_c, 9, 70, 48
11, 171150, Note_on_c, 9, 70, 0
11, 171150, Note_on_c, 9, 42, 0
11, 171150, Note_on_c, 9, 36, 0
11, 171150, Note_on_c, 9, 51, 0
11, 171150, Note_on_c, 9, 69, 0
11, 171240, Note_on_c, 9, 51, 70
11, 171270, Note_on_c, 9, 51, 0
11, 171360, Note_on_c, 9, 40, 123
11, 171360, Note_on_c, 9, 51, 64
11, 171390, Note_on_c, 9, 51, 0
11, 171390, Note_on_c, 9, 40, 0
11, 171480, Note_on_c, 9, 70, 46
11, 171510, Note_on_c, 9, 70, 0
11, 171600, Note_on_c, 9, 51, 99
11, 171600, Note_on_c, 9, 42, 101
11, 171600, Note_on_c, 9, 69, 50
11, 171600, Note_on_c, 9, 70, 48
11, 171630, Note_on_c, 9, 70, 0
11, 171630, Note_on_c, 9, 51, 0
11, 171630, Note_on_c, 9, 42, 0
11, 171630, Note_on_c, 9, 69, 0
11, 171720, Note_on_c, 9, 40, 91
11, 171720, Note_on_c, 9, 51, 59
11, 171750, Note_on_c, 9, 51, 0
11, 171750, Note_on_c, 9, 40, 0
11, 171840, Note_on_c, 9, 51, 40
11, 171870, Note_on_c, 9, 51, 0
11, 171960, Note_on_c, 9, 36, 105
11, 171960, Note_on_c, 9, 70, 48
11, 171990, Note_on_c, 9, 70, 0
11, 171990, Note_on_c, 9, 36, 0
11, 172080, Note_on_c, 9, 40, 103
11, 172080, Note_on_c, 9, 51, 99
11, 172080, Note_on_c, 9, 42, 105
11, 172080, Note_on_c, 9, 69, 49
11, 172080, Note_on_c, 9, 70, 73
11, 172110, Note_on_c, 9, 70, 0
11, 172110, Note_on_c, 9, 42, 0
11, 172110, Note_on_c, 9, 40, 0
11, 172110, Note_on_c, 9, 51, 0
11, 172110, Note_on_c, 9, 69, 0
11, 172200, Note_on_c, 9, 51, 70
11, 172230, Note_on_c, 9, 51, 0
11, 172320, Note_on_c, 9, 51, 101
11, 172350, Note_on_c, 9, 51, 0
11, 172440, Note_on_c, 9, 40, 86
11, 172440, Note_on_c, 9, 70, 43
11, 172470, Note_on_c, 9, 70, 0
11, 172470, Note_on_c, 9, 40, 0
11, 172560, Note_on_c, 9, 36, 91
11, 172560, Note_on_c, 9, 51, 109
11, 172560, Note_on_c, 9, 42, 101
11, 172560, Note_on_c, 9, 69, 45
11, 172560, Note_on_c, 9, 70, 67
11, 172590, Note_on_c, 9, 70, 0
11, 172590, Note_on_c, 9, 42, 0
11, 172590, Note_on_c, 9, 36, 0
11, 172590, Note_on_c, 9, 51, 0
11, 172590, Note_on_c, 9, 69, 0
11, 172680, Note_on_c, 9, 51, 73
11, 172710, Note_on_c, 9, 51, 0
11, 172800, Note_on_c, 9, 36, 113
11, 172800, Note_on_c, 9, 51, 101
11, 172830, Note_on_c, 9, 51, 0
11, 172830, Note_on_c, 9, 36, 0
11, 172920, Note_on_c, 9, 70, 40
11, 172950, Note_on_c, 9, 70, 0
11, 173040, Note_on_c, 9, 36, 113
11, 173040, Note_on_c, 9, 42, 113
11, 173040, Note_on_c, 9, 51, 99
11, 173040, Note_on_c, 9, 69, 51
11, 173040, Note_on_c, 9, 70, 71
11, 173070, Note_on_c, 9, 70, 0
11, 173070, Note_on_c, 9, 51, 0
11, 173070, Note_on_c, 9, 36, 0
11, 173070, Note_on_c, 9, 42, 0
11, 173070, Note_on_c, 9, 69, 0
11, 173160, Note_on_c, 9, 51, 72
11, 173190, Note_on_c, 9, 51, 0
11, 173280, Note_on_c, 9, 40, 103
11, 173280, Note_on_c, 9, 51, 80
11, 173310, Note_on_c, 9, 51, 0
11, 173310, Note_on_c, 9, 40, 0
11, 173400, Note_on_c, 9, 70, 47
11, 173430, Note_on_c, 9, 70, 0
11, 173520, Note_on_c, 9, 42, 105
11, 173520, Note_on_c, 9, 51, 94
11, 173520, Note_on_c, 9, 69, 50
11, 173520, Note_on_c, 9, 70, 53
11, 173550, Note_on_c, 9, 70, 0
11, 173550, Note_on_c, 9, 42, 0
11, 173550, Note_on_c, 9, 51, 0
11, 173550, Note_on_c, 9, 69, 0
11, 173640, Note_on_c, 9, 40, 113
11, 173640, Note_on_c, 9, 51, 75
11, 173670, Note_on_c, 9, 51, 0
11, 173670, Note_on_c, 9, 40, 0
11, 173760, Note_on_c, 9, 51, 66
11, 173790, Note_on_c, 9, 51, 0
11, 173880, Note_on_c, 9, 36, 98
11, 173880, Note_on_c, 9, 70, 48
11, 173910, Note_on_c, 9, 70, 0
11, 173910, Note_on_c, 9, 36, 0
11, 174000, Note_on_c, 9, 40, 100
11, 174000, Note_on_c, 9, 42, 99
11, 174000, Note_on_c, 9, 51, 105
11, 174000, Note_on_c, 9, 69, 53
11, 174000, Note_on_c, 9, 70, 64
11, 174030, Note_on_c, 9, 70, 0
11, 174030, Note_on_c, 9, 51, 0
11, 174030, Note_on_c, 9, 40, 0
11, 174030, Note_on_c, 9, 42, 0
11, 174030, Note_on_c, 9, 69, 0
11, 174120, Note_on_c, 9, 51, 64
11, 174150, Note_on_c, 9, 51, 0
11, 174240, Note_on_c, 9, 51, 94
11, 174270, Note_on_c, 9, 51, 0
11, 174360, Note_on_c, 9, 40, 102
11, 174360, Note_on_c, 9, 70, 47
11, 174390, Note_on_c, 9, 70, 0
11, 174390, Note_on_c, 9, 40, 0
11, 174480, Note_on_c, 9, 40, 115
11, 174480, Note_on_c, 9, 51, 99
11, 174480, Note_on_c, 9, 42, 105
11, 174480, Note_on_c, 9, 69, 50
11, 174480, Note_on_c, 9, 70, 50
11, 174510, Note_on_c, 9, 70, 0
11, 174510, Note_on_c, 9, 42, 0
11, 174510, Note_on_c, 9, 40, 0
11, 174510, Note_on_c, 9, 51, 0
11, 174510, Note_on_c, 9, 69, 0
11, 174600, Note_on_c, 9, 40, 121
11, 174600, Note_on_c, 9, 51, 65
11, 174630, Note_on_c, 9, 51, 0
11, 174630, Note_on_c, 9, 40, 0
11, 174720, Note_on_c, 9, 36, 100
11, 174720, Note_on_c, 9, 51, 105
11, 174750, Note_on_c, 9, 51, 0
11, 174750, Note_on_c, 9, 36, 0
11, 174840, Note_on_c, 9, 70, 48
11, 174870, Note_on_c, 9, 70, 0
11, 174960, Note_on_c, 9, 36, 122
11, 174960, Note_on_c, 9, 51, 94
11, 174960, Note_on_c, 9, 42, 115
11, 174960, Note_on_c, 9, 69, 53
11, 174960, Note_on_c, 9, 70, 53
11, 174990, Note_on_c, 9, 70, 0
11, 174990, Note_on_c, 9, 42, 0
11, 174990, Note_on_c, 9, 36, 0
11, 174990, Note_on_c, 9, 51, 0
11, 174990, Note_on_c, 9, 69, 0
11, 175080, Note_on_c, 9, 51, 71
11, 175110, Note_on_c, 9, 51, 0
11, 175200, Note_on_c, 9, 40, 113
11, 175200, Note_on_c, 9, 51, 77
11, 175230, Note_on_c, 9, 51, 0
11, 175230, Note_on_c, 9, 40, 0
11, 175320, Note_on_c, 9, 70, 47
11, 175350, Note_on_c, 9, 70, 0
11, 175440, Note_on_c, 9, 51, 99
11, 175440, Note_on_c, 9, 42, 115
11, 175440, Note_on_c, 9, 69, 52
11, 175440, Note_on_c, 9, 70, 62
11, 175470, Note_on_c, 9, 70, 0
11, 175470, Note_on_c, 9, 51, 0
11, 175470, Note_on_c, 9, 42, 0
11, 175470, Note_on_c, 9, 69, 0
11, 175560, Note_on_c, 9, 40, 105
11, 175560, Note_on_c, 9, 51, 64
11, 175590, Note_on_c, 9, 51, 0
11, 175590, Note_on_c, 9, 40, 0
11, 175680, Note_on_c, 9, 51, 99
11, 175710, Note_on_c, 9, 51, 0
11, 175800, Note_on_c, 9, 36, 92
11, 175800, Note_on_c, 9, 70, 46
11, 175830, Note_on_c, 9, 70, 0
11, 175830, Note_on_c, 9, 36, 0
11, 175920, Note_on_c, 9, 40, 100
11, 175920, Note_on_c, 9, 51, 88
11, 175920, Note_on_c, 9, 42, 115
11, 175920, Note_on_c, 9, 69, 51
11, 175920, Note_on_c, 9, 70, 74
11, 175950, Note_on_c, 9, 70, 0
11, 175950, Note_on_c, 9, 42, 0
11, 175950, Note_on_c, 9, 40, 0
11, 175950, Note_on_c, 9, 51, 0
11, 175950, Note_on_c, 9, 69, 0
11, 176040, Note_on_c, 9, 51, 70
11, 176070, Note_on_c, 9, 51, 0
11, 176160, Note_on_c, 9, 51, 96
11, 176190, Note_on_c, 9, 51, 0
11, 176280, Note_on_c, 9, 40, 113
11, 176280, Note_on_c, 9, 70, 51
11, 176310, Note_on_c, 9, 70, 0
11, 176310, Note_on_c, 9, 40, 0
11, 176400, Note_on_c, 9, 36, 91
11, 176400, Note_on_c, 9, 51, 99
11, 176400, Note_on_c, 9, 42, 109
11, 176400, Note_on_c, 9, 69, 52
11, 176400, Note_on_c, 9, 70, 69
11, 176430, Note_on_c, 9, 70, 0
11, 176430, Note_on_c, 9, 42, 0
11, 176430, Note_on_c, 9, 36, 0
11, 176430, Note_on_c, 9, 51, 0
11, 176430, Note_on_c, 9, 69, 0
11, 176520, Note_on_c, 9, 51, 74
11, 176550, Note_on_c, 9, 51, 0
11, 176640, Note_on_c, 9, 36, 113
11, 176640, Note_on_c, 9, 51, 99
11, 176670, Note_on_c, 9, 51, 0
11, 176670, Note_on_c, 9, 36, 0
11, 176760, Note_on_c, 9, 70, 52
11, 176790, Note_on_c, 9, 70, 0
11, 176880, Note_on_c, 9, 36, 105
11, 176880, Note_on_c, 9, 51, 94
11, 176880, Note_on_c, 9, 42, 112
11, 176880, Note_on_c, 9, 69, 46
11, 176880, Note_on_c, 9, 70, 42
11, 176910, Note_on_c, 9, 70, 0
11, 176910, Note_on_c, 9, 42, 0
11, 176910, Note_on_c, 9, 36, 0
11, 176910, Note_on_c, 9, 51, 0
11, 176910, Note_on_c, 9, 69, 0
11, 177000, Note_on_c, 9, 51, 75
11, 177030, Note_on_c, 9, 51, 0
11, 177120, Note_on_c, 9, 40, 116
11, 177120, Note_on_c, 9, 51, 99
11, 177150, Note_on_c, 9, 51, 0
11, 177150, Note_on_c, 9, 40, 0
11, 177240, Note_on_c, 9, 70, 50
11, 177270, Note_on_c, 9, 70, 0
11, 177360, Note_on_c, 9, 42, 113
11, 177360, Note_on_c, 9, 51, 109
11, 177360, Note_on_c, 9, 69, 47
11, 177360, Note_on_c, 9, 70, 46
11, 177390, Note_on_c, 9, 70, 0
11, 177390, Note_on_c, 9, 42, 0
11, 177390, Note_on_c, 9, 51, 0
11, 177390, Note_on_c, 9, 69, 0
11, 177480, Note_on_c, 9, 51, 76
11, 177510, Note_on_c, 9, 51, 0
11, 177600, Note_on_c, 9, 36, 90
11, 177600, Note_on_c, 9, 51, 91
11, 177630, Note_on_c, 9, 51, 0
11, 177630, Note_on_c, 9, 36, 0
11, 177720, Note_on_c, 9, 70, 47
11, 177750, Note_on_c, 9, 70, 0
11, 177840, Note_on_c, 9, 40, 113
11, 177840, Note_on_c, 9, 42, 115
11, 177840, Note_on_c, 9, 51, 121
11, 177840, Note_on_c, 9, 69, 42
11, 177840, Note_on_c, 9, 70, 48
11, 177870, Note_on_c, 9, 70, 0
11, 177870, Note_on_c, 9, 51, 0
11, 177870, Note_on_c, 9, 40, 0
11, 177870, Note_on_c, 9, 42, 0
11, 177870, Note_on_c, 9, 69, 0
11, 177960, Note_on_c, 9, 40, 112
11, 177990, Note_on_c, 9, 40, 0
11, 178080, Note_on_c, 9, 45, 112
11, 178110, Note_on_c, 9, 45, 0
11, 178200, Note_on_c, 9, 45, 112
11, 178200, Note_on_c, 9, 70, 47
11, 178230, Note_on_c, 9, 70, 0
11, 178230, Note_on_c, 9, 45, 0
11, 178320, Note_on_c, 9, 43, 112
11, 178320, Note_on_c, 9, 36, 88
11, 178320, Note_on_c, 9, 42, 118
11, 178320, Note_on_c, 9, 69, 47
11, 178320, Note_on_c, 9, 70, 52
11, 178350, Note_on_c, 9, 70, 0
11, 178350, Note_on_c, 9, 42, 0
11, 178350, Note_on_c, 9, 43, 0
11, 178350, Note_on_c, 9, 36, 0
11, 178350, Note_on_c, 9, 69, 0
11, 178440, Note_on_c, 9, 43, 112
11, 178470, Note_on_c, 9, 43, 0
11, 178560, Note_on_c, 9, 36, 113
11, 178560, Note_on_c, 9, 49, 116
11, 178590, Note_on_c, 9, 49, 0
11, 178590, Note_on_c, 9, 36, 0
11, 178680, Note_on_c, 9, 70, 52
11, 178710, Note_on_c, 9, 70, 0
11, 178800, Note_on_c, 9, 36, 105
11, 178800, Note_on_c, 9, 42, 101
11, 178800, Note_on_c, 9, 51, 109
11, 178800, Note_on_c, 9, 69, 46
11, 178800, Note_on_c, 9, 70, 42
11, 178830, Note_on_c, 9, 70, 0
11, 178830, Note_on_c, 9, 51, 0
11, 178830, Note_on_c, 9, 36, 0
11, 178830, Note_on_c, 9, 42, 0
11, 178830, Note_on_c, 9, 69, 0
11, 178920, Note_on_c, 9, 51, 59
11, 178950, Note_on_c, 9, 51, 0
11, 179040, Note_on_c, 9, 40, 116
11, 179040, Note_on_c, 9, 51, 72
11, 179070, Note_on_c, 9, 51, 0
11, 179070, Note_on_c, 9, 40, 0
11, 179160, Note_on_c, 9, 70, 50
11, 179190, Note_on_c, 9, 70, 0
11, 179280, Note_on_c, 9, 42, 99
11, 179280, Note_on_c, 9, 51, 96
11, 179280, Note_on_c, 9, 69, 47
11, 179280, Note_on_c, 9, 70, 46
11, 179310, Note_on_c, 9, 70, 0
11, 179310, Note_on_c, 9, 42, 0
11, 179310, Note_on_c, 9, 51, 0
11, 179310, Note_on_c, 9, 69, 0
11, 179400, Note_on_c, 9, 40, 113
11, 179400, Note_on_c, 9, 51, 66
11, 179430, Note_on_c, 9, 51, 0
11, 179430, Note_on_c, 9, 40, 0
11, 179520, Note_on_c, 9, 51, 109
11, 179550, Note_on_c, 9, 51, 0
11, 179640, Note_on_c, 9, 36, 90
11, 179640, Note_on_c, 9, 70, 47
11, 179670, Note_on_c, 9, 70, 0
11, 179670, Note_on_c, 9, 36, 0
11, 179760, Note_on_c, 9, 40, 112
11, 179760, Note_on_c, 9, 42, 115
11, 179760, Note_on_c, 9, 51, 94
11, 179760, Note_on_c, 9, 69, 42
11, 179760, Note_on_c, 9, 70, 48
11, 179790, Note_on_c, 9, 70, 0
11, 179790, Note_on_c, 9, 51, 0
11, 179790, Note_on_c, 9, 40, 0
11, 179790, Note_on_c, 9, 42, 0
11, 179790, Note_on_c, 9, 69, 0
11, 179880, Note_on_c, 9, 51, 73
11, 179910, Note_on_c, 9, 51, 0
11, 180000, Note_on_c, 9, 51, 109
11, 180030, Note_on_c, 9, 51, 0
11, 180120, Note_on_c, 9, 40, 115
11, 180120, Note_on_c, 9, 70, 47
11, 180150, Note_on_c, 9, 70, 0
11, 180150, Note_on_c, 9, 40, 0
11, 180240, Note_on_c, 9, 36, 88
11, 180240, Note_on_c, 9, 51, 88
11, 180240, Note_on_c, 9, 42, 115
11, 180240, Note_on_c, 9, 69, 47
11, 180240, Note_on_c, 9, 70, 52
11, 180270, Note_on_c, 9, 70, 0
11, 180270, Note_on_c, 9, 42, 0
11, 180270, Note_on_c, 9, 36, 0
11, 180270, Note_on_c, 9, 51, 0
11, 180270, Note_on_c, 9, 69, 0
11, 180360, Note_on_c, 9, 51, 74
11, 180390, Note_on_c, 9, 51, 0
11, 180480, Note_on_c, 9, 36, 98
11, 180480, Note_on_c, 9, 51, 109
11, 180510, Note_on_c, 9, 51, 0
11, 180510, Note_on_c, 9, 36, 0
11, 180600, Note_on_c, 9, 70, 47
11, 180630, Note_on_c, 9, 70, 0
11, 180720, Note_on_c, 9, 36, 100
11, 180720, Note_on_c, 9, 51, 99
11, 180720, Note_on_c, 9, 42, 112
11, 180720, Note_on_c, 9, 69, 48
11, 180720, Note_on_c, 9, 70, 33
11, 180750, Note_on_c, 9, 70, 0
11, 180750, Note_on_c, 9, 42, 0
11, 180750, Note_on_c, 9, 36, 0
11, 180750, Note_on_c, 9, 51, 0
11, 180750, Note_on_c, 9, 69, 0
11, 180840, Note_on_c, 9, 51, 64
11, 180870, Note_on_c, 9, 51, 0
11, 180960, Note_on_c, 9, 40, 111
11, 180960, Note_on_c, 9, 51, 94
11, 180990, Note_on_c, 9, 51, 0
11, 180990, Note_on_c, 9, 40, 0
11, 181080, Note_on_c, 9, 70, 44
11, 181110, Note_on_c, 9, 70, 0
11, 181200, Note_on_c, 9, 51, 49
11, 181200, Note_on_c, 9, 42, 118
11, 181200, Note_on_c, 9, 69, 51
11, 181200, Note_on_c, 9, 70, 59
11, 181230, Note_on_c, 9, 70, 0
11, 181230, Note_on_c, 9, 51, 0
11, 181230, Note_on_c, 9, 42, 0
11, 181230, Note_on_c, 9, 69, 0
11, 181320, Note_on_c, 9, 40, 113
11, 181320, Note_on_c, 9, 51, 91
11, 181350, Note_on_c, 9, 51, 0
11, 181350, Note_on_c, 9, 40, 0
11, 181440, Note_on_c, 9, 51, 66
11, 181470, Note_on_c, 9, 51, 0
11, 181560, Note_on_c, 9, 36, 98
11, 181560, Note_on_c, 9, 70, 47
11, 181590, Note_on_c, 9, 70, 0
11, 181590, Note_on_c, 9, 36, 0
11, 181680, Note_on_c, 9, 40, 116
11, 181680, Note_on_c, 9, 42, 115
11, 181680, Note_on_c, 9, 51, 113
11, 181680, Note_on_c, 9, 69, 50
11, 181680, Note_on_c, 9, 70, 65
11, 181710, Note_on_c, 9, 70, 0
11, 181710, Note_on_c, 9, 51, 0
11, 181710, Note_on_c, 9, 40, 0
11, 181710, Note_on_c, 9, 42, 0
11, 181710, Note_on_c, 9, 69, 0
11, 181800, Note_on_c, 9, 51, 77
11, 181830, Note_on_c, 9, 51, 0
11, 181920, Note_on_c, 9, 51, 87
11, 181950, Note_on_c, 9, 51, 0
11, 182040, Note_on_c, 9, 40, 117
11, 182040, Note_on_c, 9, 70, 51
11, 182070, Note_on_c, 9, 70, 0
11, 182070, Note_on_c, 9, 40, 0
11, 182160, Note_on_c, 9, 36, 91
11, 182160, Note_on_c, 9, 42, 115
11, 182160, Note_on_c, 9, 51, 112
11, 182160, Note_on_c, 9, 69, 50
11, 182160, Note_on_c, 9, 70, 47
11, 182190, Note_on_c, 9, 70, 0
11, 182190, Note_on_c, 9, 51, 0
11, 182190, Note_on_c, 9, 36, 0
11, 182190, Note_on_c, 9, 42, 0
11, 182190, Note_on_c, 9, 69, 0
11, 182280, Note_on_c, 9, 51, 75
11, 182310, Note_on_c, 9, 51, 0
11, 182400, Note_on_c, 9, 36, 116
11, 182400, Note_on_c, 9, 51, 80
11, 182430, Note_on_c, 9, 51, 0
11, 182430, Note_on_c, 9, 36, 0
11, 182520, Note_on_c, 9, 70, 53
11, 182550, Note_on_c, 9, 70, 0
11, 182640, Note_on_c, 9, 36, 109
11, 182640, Note_on_c, 9, 42, 112
11, 182640, Note_on_c, 9, 51, 109
11, 182640, Note_on_c, 9, 69, 46
11, 182640, Note_on_c, 9, 70, 55
11, 182670, Note_on_c, 9, 70, 0
11, 182670, Note_on_c, 9, 51, 0
11, 182670, Note_on_c, 9, 36, 0
11, 182670, Note_on_c, 9, 42, 0
11, 182670, Note_on_c, 9, 69, 0
11, 182760, Note_on_c, 9, 51, 72
11, 182790, Note_on_c, 9, 51, 0
11, 182880, Note_on_c, 9, 40, 105
11, 182880, Note_on_c, 9, 51, 99
11, 182910, Note_on_c, 9, 51, 0
11, 182910, Note_on_c, 9, 40, 0
11, 183000, Note_on_c, 9, 70, 52
11, 183030, Note_on_c, 9, 70, 0
11, 183120, Note_on_c, 9, 51, 105
11, 183120, Note_on_c, 9, 42, 115
11, 183120, Note_on_c, 9, 69, 46
11, 183120, Note_on_c, 9, 70, 71
11, 183150, Note_on_c, 9, 70, 0
11, 183150, Note_on_c, 9, 51, 0
11, 183150, Note_on_c, 9, 42, 0
11, 183150, Note_on_c, 9, 69, 0
11, 183240, Note_on_c, 9, 36, 105
11, 183240, Note_on_c, 9, 51, 68
11, 183270, Note_on_c, 9, 51, 0
11, 183270, Note_on_c, 9, 36, 0
11, 183360, Note_on_c, 9, 51, 70
11, 183390, Note_on_c, 9, 51, 0
11, 183480, Note_on_c, 9, 70, 51
11, 183510, Note_on_c, 9, 70, 0
11, 183600, Note_on_c, 9, 36, 113
11, 183600, Note_on_c, 9, 51, 91
11, 183600, Note_on_c, 9, 42, 109
11, 183600, Note_on_c, 9, 69, 46
11, 183600, Note_on_c, 9, 70, 57
11, 183630, Note_on_c, 9, 70, 0
11, 183630, Note_on_c, 9, 42, 0
11, 183630, Note_on_c, 9, 36, 0
11, 183630, Note_on_c, 9, 51, 0
11, 183630, Note_on_c, 9, 69, 0
11, 183720, Note_on_c, 9, 51, 72
11, 183750, Note_on_c, 9, 51, 0
11, 183840, Note_on_c, 9, 40, 103
11, 183840, Note_on_c, 9, 51, 101
11, 183870, Note_on_c, 9, 51, 0
11, 183870, Note_on_c, 9, 40, 0
11, 183960, Note_on_c, 9, 36, 119
11, 183960, Note_on_c, 9, 70, 51
11, 183990, Note_on_c, 9, 70, 0
11, 183990, Note_on_c, 9, 36, 0
11, 184080, Note_on_c, 9, 51, 101
11, 184080, Note_on_c, 9, 42, 115
11, 184080, Note_on_c, 9, 69, 45
11, 184080, Note_on_c, 9, 70, 65
11, 184110, Note_on_c, 9, 70, 0
11, 184110, Note_on_c, 9, 51, 0
11, 184110, Note_on_c, 9, 42, 0
11, 184110, Note_on_c, 9, 69, 0
11, 184200, Note_on_c, 9, 51, 74
11, 184230, Note_on_c, 9, 51, 0
11, 184320, Note_on_c, 9, 51, 87
11, 184350, Note_on_c, 9, 51, 0
11, 184440, Note_on_c, 9, 70, 47
11, 184470, Note_on_c, 9, 70, 0
11, 184560, Note_on_c, 9, 36, 109
11, 184560, Note_on_c, 9, 51, 101
11, 184560, Note_on_c, 9, 42, 113
11, 184560, Note_on_c, 9, 69, 43
11, 184560, Note_on_c, 9, 70, 59
11, 184590, Note_on_c, 9, 70, 0
11, 184590, Note_on_c, 9, 42, 0
11, 184590, Note_on_c, 9, 36, 0
11, 184590, Note_on_c, 9, 51, 0
11, 184590, Note_on_c, 9, 69, 0
11, 184680, Note_on_c, 9, 36, 91
11, 184680, Note_on_c, 9, 51, 65
11, 184710, Note_on_c, 9, 51, 0
11, 184710, Note_on_c, 9, 36, 0
11, 184800, Note_on_c, 9, 40, 118
11, 184800, Note_on_c, 9, 51, 91
11, 184830, Note_on_c, 9, 51, 0
11, 184830, Note_on_c, 9, 40, 0
11, 184920, Note_on_c, 9, 70, 48
11, 184950, Note_on_c, 9, 70, 0
11, 185040, Note_on_c, 9, 51, 112
11, 185040, Note_on_c, 9, 42, 109
11, 185040, Note_on_c, 9, 69, 41
11, 185040, Note_on_c, 9, 70, 49
11, 185070, Note_on_c, 9, 70, 0
11, 185070, Note_on_c, 9, 51, 0
11, 185070, Note_on_c, 9, 42, 0
11, 185070, Note_on_c, 9, 69, 0
11, 185160, Note_on_c, 9, 40, 121
11, 185160, Note_on_c, 9, 51, 73
11, 185190, Note_on_c, 9, 51, 0
11, 185190, Note_on_c, 9, 40, 0
11, 185280, Note_on_c, 9, 36, 92
11, 185280, Note_on_c, 9, 51, 99
11, 185310, Note_on_c, 9, 51, 0
11, 185310, Note_on_c, 9, 36, 0
11, 185400, Note_on_c, 9, 70, 52
11, 185430, Note_on_c, 9, 70, 0
11, 185520, Note_on_c, 9, 51, 88
11, 185520, Note_on_c, 9, 42, 105
11, 185520, Note_on_c, 9, 69, 48
11, 185520, Note_on_c, 9, 70, 41
11, 185550, Note_on_c, 9, 70, 0
11, 185550, Note_on_c, 9, 51, 0
11, 185550, Note_on_c, 9, 42, 0
11, 185550, Note_on_c, 9, 69, 0
11, 185640, Note_on_c, 9, 36, 113
11, 185640, Note_on_c, 9, 51, 68
11, 185670, Note_on_c, 9, 51, 0
11, 185670, Note_on_c, 9, 36, 0
11, 185760, Note_on_c, 9, 51, 99
11, 185790, Note_on_c, 9, 51, 0
11, 185880, Note_on_c, 9, 40, 118
11, 185880, Note_on_c, 9, 70, 49
11, 185910, Note_on_c, 9, 70, 0
11, 185910, Note_on_c, 9, 40, 0
11, 186000, Note_on_c, 9, 40, 100
11, 186000, Note_on_c, 9, 51, 105
11, 186000, Note_on_c, 9, 42, 112
11, 186000, Note_on_c, 9, 69, 50
11, 186000, Note_on_c, 9, 70, 53
11, 186030, Note_on_c, 9, 70, 0
11, 186030, Note_on_c, 9, 42, 0
11, 186030, Note_on_c, 9, 40, 0
11, 186030, Note_on_c, 9, 51, 0
11, 186030, Note_on_c, 9, 69, 0
11, 186120, Note_on_c, 9, 40, 115
11, 186120, Note_on_c, 9, 51, 67
11, 186150, Note_on_c, 9, 51, 0
11, 186150, Note_on_c, 9, 40, 0
11, 186240, Note_on_c, 9, 36, 116
11, 186240, Note_on_c, 9, 51, 109
11, 186270, Note_on_c, 9, 51, 0
11, 186270, Note_on_c, 9, 36, 0
11, 186360, Note_on_c, 9, 70, 48
11, 186390, Note_on_c, 9, 70, 0
11, 186480, Note_on_c, 9, 36, 116
11, 186480, Note_on_c, 9, 51, 91
11, 186480, Note_on_c, 9, 42, 105
11, 186480, Note_on_c, 9, 69, 47
11, 186480, Note_on_c, 9, 70, 48
11, 186510, Note_on_c, 9, 70, 0
11, 186510, Note_on_c, 9, 42, 0
11, 186510, Note_on_c, 9, 36, 0
11, 186510, Note_on_c, 9, 51, 0
11, 186510, Note_on_c, 9, 69, 0
11, 186600, Note_on_c, 9, 51, 70
11, 186630, Note_on_c, 9, 51, 0
11, 186720, Note_on_c, 9, 40, 123
11, 186720, Note_on_c, 9, 51, 64
11, 186750, Note_on_c, 9, 51, 0
11, 186750, Note_on_c, 9, 40, 0
11, 186840, Note_on_c, 9, 70, 46
11, 186870, Note_on_c, 9, 70, 0
11, 186960, Note_on_c, 9, 51, 99
11, 186960, Note_on_c, 9, 42, 101
11, 186960, Note_on_c, 9, 69, 50
11, 186960, Note_on_c, 9, 70, 48
11, 186990, Note_on_c, 9, 70, 0
11, 186990, Note_on_c, 9, 51, 0
11, 186990, Note_on_c, 9, 42, 0
11, 186990, Note_on_c, 9, 69, 0
11, 187080, Note_on_c, 9, 40, 91
11, 187080, Note_on_c, 9, 51, 59
11, 187110, Note_on_c, 9, 51, 0
11, 187110, Note_on_c, 9, 40, 0
11, 187200, Note_on_c, 9, 51, 40
11, 187230, Note_on_c, 9, 51, 0
11, 187320, Note_on_c, 9, 36, 105
11, 187320, Note_on_c, 9, 70, 48
11, 187350, Note_on_c, 9, 70, 0
11, 187350, Note_on_c, 9, 36, 0
11, 187440, Note_on_c, 9, 40, 103
11, 187440, Note_on_c, 9, 51, 99
11, 187440, Note_on_c, 9, 42, 105
11, 187440, Note_on_c, 9, 69, 49
11, 187440, Note_on_c, 9, 70, 73
11, 187470, Note_on_c, 9, 70, 0
11, 187470, Note_on_c, 9, 42, 0
11, 187470, Note_on_c, 9, 40, 0
11, 187470, Note_on_c, 9, 51, 0
11, 187470, Note_on_c, 9, 69, 0
11, 187560, Note_on_c, 9, 51, 70
11, 187590, Note_on_c, 9, 51, 0
11, 187680, Note_on_c, 9, 51, 101
11, 187710, Note_on_c, 9, 51, 0
11, 187800, Note_on_c, 9, 40, 86
11, 187800, Note_on_c, 9, 70, 43
11, 187830, Note_on_c, 9, 70, 0
11, 187830, Note_on_c, 9, 40, 0
11, 187920, Note_on_c, 9, 36, 91
11, 187920, Note_on_c, 9, 51, 109
11, 187920, Note_on_c, 9, 42, 101
11, 187920, Note_on_c, 9, 69, 45
11, 187920, Note_on_c, 9, 70, 67
11, 187950, Note_on_c, 9, 70, 0
11, 187950, Note_on_c, 9, 42, 0
11, 187950, Note_on_c, 9, 36, 0
11, 187950, Note_on_c, 9, 51, 0
11, 187950, Note_on_c, 9, 69, 0
11, 188040, Note_on_c, 9, 51, 73
11, 188070, Note_on_c, 9, 51, 0
11, 188160, Note_on_c, 9, 36, 113
11, 188160, Note_on_c, 9, 51, 101
11, 188190, Note_on_c, 9, 51, 0
11, 188190, Note_on_c, 9, 36, 0
11, 188280, Note_on_c, 9, 70, 40
11, 188310, Note_on_c, 9, 70, 0
11, 188400, Note_on_c, 9, 36, 113
11, 188400, Note_on_c, 9, 42, 113
11, 188400, Note_on_c, 9, 51, 99
11, 188400, Note_on_c, 9, 69, 51
11, 188400, Note_on_c, 9, 70, 71
11, 188430, Note_on_c, 9, 70, 0
11, 188430, Note_on_c, 9, 51, 0
11, 188430, Note_on_c, 9, 36, 0
11, 188430, Note_on_c, 9, 42, 0
11, 188430, Note_on_c, 9, 69, 0
11, 188520, Note_on_c, 9, 51, 72
11, 188550, Note_on_c, 9, 51, 0
11, 188640, Note_on_c, 9, 40, 103
11, 188640, Note_on_c, 9, 51, 80
11, 188670, Note_on_c, 9, 51, 0
11, 188670, Note_on_c, 9, 40, 0
11, 188760, Note_on_c, 9, 70, 47
11, 188790, Note_on_c, 9, 70, 0
11, 188880, Note_on_c, 9, 42, 105
11, 188880, Note_on_c, 9, 51, 94
11, 188880, Note_on_c, 9, 69, 50
11, 188880, Note_on_c, 9, 70, 53
11, 188910, Note_on_c, 9, 70, 0
11, 188910, Note_on_c, 9, 42, 0
11, 188910, Note_on_c, 9, 51, 0
11, 188910, Note_on_c, 9, 69, 0
11, 189000, Note_on_c, 9, 40, 113
11, 189000, Note_on_c, 9, 51, 75
11, 189030, Note_on_c, 9, 51, 0
11, 189030, Note_on_c, 9, 40, 0
11, 189120, Note_on_c, 9, 51, 66
11, 189150, Note_on_c, 9, 51, 0
11, 189240, Note_on_c, 9, 36, 98
11, 189240, Note_on_c, 9, 70, 48
11, 189270, Note_on_c, 9, 70, 0
11, 189270, Note_on_c, 9, 36, 0
11, 189360, Note_on_c, 9, 40, 100
11, 189360, Note_on_c, 9, 42, 99
11, 189360, Note_on_c, 9, 51, 105
11, 189360, Note_on_c, 9, 69, 53
11, 189360, Note_on_c, 9, 70, 64
11, 189390, Note_on_c, 9, 70, 0
11, 189390, Note_on_c, 9, 51, 0
11, 189390, Note_on_c, 9, 40, 0
11, 189390, Note_on_c, 9, 42, 0
11, 189390, Note_on_c, 9, 69, 0
11, 189480, Note_on_c, 9, 51, 64
11, 189510, Note_on_c, 9, 51, 0
11, 189600, Note_on_c, 9, 51, 94
11, 189630, Note_on_c, 9, 51, 0
11, 189720, Note_on_c, 9, 40, 102
11, 189720, Note_on_c, 9, 70, 47
11, 189750, Note_on_c, 9, 70, 0
11, 189750, Note_on_c, 9, 40, 0
11, 189840, Note_on_c, 9, 40, 115
11, 189840, Note_on_c, 9, 51, 99
11, 189840, Note_on_c, 9, 42, 105
11, 189840, Note_on_c, 9, 69, 50
11, 189840, Note_on_c, 9, 70, 50
11, 189870, Note_on_c, 9, 70, 0
11, 189870, Note_on_c, 9, 42, 0
11, 189870, Note_on_c, 9, 40, 0
11, 189870, Note_on_c, 9, 51, 0
11, 189870, Note_on_c, 9, 69, 0
11, 189960, Note_on_c, 9, 40, 121
11, 189960, Note_on_c, 9, 51, 65
11, 189990, Note_on_c, 9, 51, 0
11, 189990, Note_on_c, 9, 40, 0
11, 190080, Note_on_c, 9, 36, 100
11, 190080, Note_on_c, 9, 51, 105
11, 190110, Note_on_c, 9, 51, 0
11, 190110, Note_on_c, 9, 36, 0
11, 190200, Note_on_c, 9, 70, 48
11, 190230, Note_on_c, 9, 70, 0
11, 190320, Note_on_c, 9, 36, 122
11, 190320, Note_on_c, 9, 51, 94
11, 190320, Note_on_c, 9, 42, 115
11, 190320, Note_on_c, 9, 69, 53
11, 190320, Note_on_c, 9, 70, 53
11, 190350, Note_on_c, 9, 70, 0
11, 190350, Note_on_c, 9, 42, 0
11, 190350, Note_on_c, 9, 36, 0
11, 190350, Note_on_c, 9, 51, 0
11, 190350, Note_on_c, 9, 69, 0
11, 190440, Note_on_c, 9, 51, 71
11, 190470, Note_on_c, 9, 51, 0
11, 190560, Note_on_c, 9, 40, 113
11, 190560, Note_on_c, 9, 51, 77
11, 190590, Note_on_c, 9, 51, 0
11, 190590, Note_on_c, 9, 40, 0
11, 190680, Note_on_c, 9, 70, 47
11, 190710, Note_on_c, 9, 70, 0
11, 190800, Note_on_c, 9, 51, 99
11, 190800, Note_on_c, 9, 42, 115
11, 190800, Note_on_c, 9, 69, 52
11, 190800, Note_on_c, 9, 70, 62
11, 190830, Note_on_c, 9, 70, 0
11, 190830, Note_on_c, 9, 51, 0
11, 190830, Note_on_c, 9, 42, 0
11, 190830, Note_on_c, 9, 69, 0
11, 190920, Note_on_c, 9, 40, 105
11, 190920, Note_on_c, 9, 51, 64
11, 190950, Note_on_c, 9, 51, 0
11, 190950, Note_on_c, 9, 40, 0
11, 191040, Note_on_c, 9, 51, 99
11, 191070, Note_on_c, 9, 51, 0
11, 191160, Note_on_c, 9, 36, 92
11, 191160, Note_on_c, 9, 70, 46
11, 191190, Note_on_c, 9, 70, 0
11, 191190, Note_on_c, 9, 36, 0
11, 191280, Note_on_c, 9, 40, 100
11, 191280, Note_on_c, 9, 51, 88
11, 191280, Note_on_c, 9, 42, 115
11, 191280, Note_on_c, 9, 69, 51
11, 191280, Note_on_c, 9, 70, 74
11, 191310, Note_on_c, 9, 70, 0
11, 191310, Note_on_c, 9, 42, 0
11, 191310, Note_on_c, 9, 40, 0
11, 191310, Note_on_c, 9, 51, 0
11, 191310, Note_on_c, 9, 69, 0
11, 191400, Note_on_c, 9, 51, 70
11, 191430, Note_on_c, 9, 51, 0
11, 191520, Note_on_c, 9, 51, 96
11, 191550, Note_on_c, 9, 51, 0
11, 191640, Note_on_c, 9, 40, 113
11, 191640, Note_on_c, 9, 70, 51
11, 191670, Note_on_c, 9, 70, 0
11, 191670, Note_on_c, 9, 40, 0
11, 191760, Note_on_c, 9, 36, 91
11, 191760, Note_on_c, 9, 51, 99
11, 191760, Note_on_c, 9, 42, 109
11, 191760, Note_on_c, 9, 69, 52
11, 191760, Note_on_c, 9, 70, 69
11, 191790, Note_on_c, 9, 70, 0
11, 191790, Note_on_c, 9, 42, 0
11, 191790, Note_on_c, 9, 36, 0
11, 191790, Note_on_c, 9, 51, 0
11, 191790, Note_on_c, 9, 69, 0
11, 191880, Note_on_c, 9, 51, 74
11, 191910, Note_on_c, 9, 51, 0
11, 192000, Note_on_c, 9, 36, 113
11, 192000, Note_on_c, 9, 51, 99
11, 192030, Note_on_c, 9, 51, 0
11, 192030, Note_on_c, 9, 36, 0
11, 192120, Note_on_c, 9, 70, 52
11, 192150, Note_on_c, 9, 70, 0
11, 192240, Note_on_c, 9, 36, 105
11, 192240, Note_on_c, 9, 51, 94
11, 192240, Note_on_c, 9, 42, 112
11, 192240, Note_on_c, 9, 69, 46
11, 192240, Note_on_c, 9, 70, 42
11, 192270, Note_on_c, 9, 70, 0
11, 192270, Note_on_c, 9, 42, 0
11, 192270, Note_on_c, 9, 36, 0
11, 192270, Note_on_c, 9, 51, 0
11, 192270, Note_on_c, 9, 69, 0
11, 192360, Note_on_c, 9, 51, 75
11, 192390, Note_on_c, 9, 51, 0
11, 192480, Note_on_c, 9, 40, 116
11, 192480, Note_on_c, 9, 51, 99
11, 192510, Note_on_c, 9, 51, 0
11, 192510, Note_on_c, 9, 40, 0
11, 192600, Note_on_c, 9, 70, 50
11, 192630, Note_on_c, 9, 70, 0
11, 192720, Note_on_c, 9, 42, 113
11, 192720, Note_on_c, 9, 51, 109
11, 192720, Note_on_c, 9, 69, 47
11, 192720, Note_on_c, 9, 70, 46
11, 192750, Note_on_c, 9, 70, 0
11, 192750, Note_on_c, 9, 42, 0
11, 192750, Note_on_c, 9, 51, 0
11, 192750, Note_on_c, 9, 69, 0
11, 192840, Note_on_c, 9, 51, 76
11, 192870, Note_on_c, 9, 51, 0
11, 192960, Note_on_c, 9, 36, 90
11, 192960, Note_on_c, 9, 51, 91
11, 192990, Note_on_c, 9, 51, 0
11, 192990, Note_on_c, 9, 36, 0
11, 193080, Note_on_c, 9, 70, 47
11, 193110, Note_on_c, 9, 70, 0
11, 193200, Note_on_c, 9, 40, 113
11, 193200, Note_on_c, 9, 42, 115
11, 193200, Note_on_c, 9, 51, 121
11, 193200, Note_on_c, 9, 69, 42
11, 193200, Note_on_c, 9, 70, 48
11, 193230, Note_on_c, 9, 70, 0
11, 193230, Note_on_c, 9, 51, 0
11, 193230, Note_on_c, 9, 40, 0
11, 193230, Note_on_c, 9, 42, 0
11, 193230, Note_on_c, 9, 69, 0
11, 193320, Note_on_c, 9, 40, 112
11, 193350, Note_on_c, 9, 40, 0
11, 193440, Note_on_c, 9, 45, 112
11, 193470, Note_on_c, 9, 45, 0
11, 193560, Note_on_c, 9, 45, 112
11, 193560, Note_on_c, 9, 70, 47
11, 193590, Note_on_c, 9, 70, 0
11, 193590, Note_on_c, 9, 45, 0
11, 193680, Note_on_c, 9, 43, 112
11, 193680, Note_on_c, 9, 36, 88
11, 193680, Note_on_c, 9, 42, 118
11, 193680, Note_on_c, 9, 69, 47
11, 193680, Note_on_c, 9, 70, 52
11, 193710, Note_on_c, 9, 70, 0
11, 193710, Note_on_c, 9, 42, 0
11, 193710, Note_on_c, 9, 43, 0
11, 193710, Note_on_c, 9, 36, 0
11, 193710, Note_on_c, 9, 69, 0
11, 193800, Note_on_c, 9, 43, 112
11, 193830, Note_on_c, 9, 43, 0
11, 193920, Note_on_c, 9, 36, 113
11, 193920, Note_on_c, 9, 49, 116
11, 193950, Note_on_c, 9, 49, 0
11, 193950, Note_on_c, 9, 36, 0
11, 194040, Note_on_c, 9, 70, 52
11, 194070, Note_on_c, 9, 70, 0
11, 194160, Note_on_c, 9, 36, 105
11, 194160, Note_on_c, 9, 42, 101
11, 194160, Note_on_c, 9, 51, 109
11, 194160, Note_on_c, 9, 69, 46
11, 194160, Note_on_c, 9, 70, 42
11, 194190, Note_on_c, 9, 70, 0
11, 194190, Note_on_c, 9, 51, 0
11, 194190, Note_on_c, 9, 36, 0
11, 194190, Note_on_c, 9, 42, 0
11, 194190, Note_on_c, 9, 69, 0
11, 194280, Note_on_c, 9, 51, 59
11, 194310, Note_on_c, 9, 51, 0
11, 194400, Note_on_c, 9, 40, 116
11, 194400, Note_on_c, 9, 51, 72
11, 194430, Note_on_c, 9, 51, 0
11, 194430, Note_on_c, 9, 40, 0
11, 194520, Note_on_c, 9, 70, 50
11, 194550, Note_on_c, 9, 70, 0
11, 194640, Note_on_c, 9, 42, 99
11, 194640, Note_on_c, 9, 51, 96
11, 194640, Note_on_c, 9, 69, 47
11, 194640, Note_on_c, 9, 70, 46
11, 194670, Note_on_c, 9, 70, 0
11, 194670, Note_on_c, 9, 42, 0
11, 194670, Note_on_c, 9, 51, 0
11, 194670, Note_on_c, 9, 69, 0
11, 194760, Note_on_c, 9, 40, 113
11, 194760, Note_on_c, 9, 51, 66
11, 194790, Note_on_c, 9, 51, 0
11, 194790, Note_on_c, 9, 40, 0
11, 194880, Note_on_c, 9, 51, 109
11, 194910, Note_on_c, 9, 51, 0
11, 195000, Note_on_c, 9, 36, 90
11, 195000, Note_on_c, 9, 70, 47
11, 195030, Note_on_c, 9, 70, 0
11, 195030, Note_on_c, 9, 36, 0
11, 195120, Note_on_c, 9, 40, 112
11, 195120, Note_on_c, 9, 42, 115
11, 195120, Note_on_c, 9, 51, 94
11, 195120, Note_on_c, 9, 69, 42
11, 195120, Note_on_c, 9, 70, 48
11, 195150, Note_on_c, 9, 70, 0
11, 195150, Note_on_c, 9, 51, 0
11, 195150, Note_on_c, 9, 40, 0
11, 195150, Note_on_c, 9, 42, 0
11, 195150, Note_on_c, 9, 69, 0
11, 195240, Note_on_c, 9, 51, 73
11, 195270, Note_on_c, 9, 51, 0
11, 195360, Note_on_c, 9, 51, 109
11, 195390, Note_on_c, 9, 51, 0
11, 195480, Note_on_c, 9, 40, 115
11, 195480, Note_on_c, 9, 70, 47
11, 195510, Note_on_c, 9, 70, 0
11, 195510, Note_on_c, 9, 40, 0
11, 195600, Note_on_c, 9, 36, 88
11, 195600, Note_on_c, 9, 51, 88
11, 195600, Note_on_c, 9, 42, 115
11, 195600, Note_on_c, 9, 69, 47
11, 195600, Note_on_c, 9, 70, 52
11, 195630, Note_on_c, 9, 70, 0
11, 195630, Note_on_c, 9, 42, 0
11, 195630, Note_on_c, 9, 36, 0
11, 195630, Note_on_c, 9, 51, 0
11, 195630, Note_on_c, 9, 69, 0
11, 195720, Note_on_c, 9, 51, 74
11, 195750, Note_on_c, 9, 51, 0
11, 195840, Note_on_c, 9, 36, 98
11, 195840, Note_on_c, 9, 51, 109
11, 195870, Note_on_c, 9, 51, 0
11, 195870, Note_on_c, 9, 36, 0
11, 195960, Note_on_c, 9, 70, 47
11, 195990, Note_on_c, 9, 70, 0
11, 196080, Note_on_c, 9, 36, 100
11, 196080, Note_on_c, 9, 51, 99
11, 196080, Note_on_c, 9, 42, 112
11, 196080, Note_on_c, 9, 69, 48
11, 196080, Note_on_c, 9, 70, 33
11, 196110, Note_on_c, 9, 70, 0
11, 196110, Note_on_c, 9, 42, 0
11, 196110, Note_on_c, 9, 36, 0
11, 196110, Note_on_c, 9, 51, 0
11, 196110, Note_on_c, 9, 69, 0
11, 196200, Note_on_c, 9, 51, 64
11, 196230, Note_on_c, 9, 51, 0
11, 196320, Note_on_c, 9, 40, 111
11, 196320, Note_on_c, 9, 51, 94
11, 196350, Note_on_c, 9, 51, 0
11, 196350, Note_on_c, 9, 40, 0
11, 196440, Note_on_c, 9, 70, 44
11, 196470, Note_on_c, 9, 70, 0
11, 196560, Note_on_c, 9, 51, 49
11, 196560, Note_on_c, 9, 42, 118
11, 196560, Note_on_c, 9, 69, 51
11, 196560, Note_on_c, 9, 70, 59
11, 196590, Note_on_c, 9, 70, 0
11, 196590, Note_on_c, 9, 51, 0
11, 196590, Note_on_c, 9, 42, 0
11, 196590, Note_on_c, 9, 69, 0
11, 196680, Note_on_c, 9, 40, 113
11, 196680, Note_on_c, 9, 51, 91
11, 196710, Note_on_c, 9, 51, 0
11, 196710, Note_on_c, 9, 40, 0
11, 196800, Note_on_c, 9, 51, 66
11, 196830, Note_on_c, 9, 51, 0
11, 196920, Note_on_c, 9, 36, 98
11, 196920, Note_on_c, 9, 70, 47
11, 196950, Note_on_c, 9, 70, 0
11, 196950, Note_on_c, 9, 36, 0
11, 197040, Note_on_c, 9, 40, 116
11, 197040, Note_on_c, 9, 42, 115
11, 197040, Note_on_c, 9, 51, 113
11, 197040, Note_on_c, 9, 69, 50
11, 197040, Note_on_c, 9, 70, 65
11, 197070, Note_on_c, 9, 70, 0
11, 197070, Note_on_c, 9, 51, 0
11, 197070, Note_on_c, 9, 40, 0
11, 197070, Note_on_c, 9, 42, 0
11, 197070, Note_on_c, 9, 69, 0
11, 197160, Note_on_c, 9, 51, 77
11, 197190, Note_on_c, 9, 51, 0
11, 197280, Note_on_c, 9, 51, 87
11, 197310, Note_on_c, 9, 51, 0
11, 197400, Note_on_c, 9, 40, 117
11, 197400, Note_on_c, 9, 70, 51
11, 197430, Note_on_c, 9, 70, 0
11, 197430, Note_on_c, 9, 40, 0
11, 197520, Note_on_c, 9, 36, 91
11, 197520, Note_on_c, 9, 42, 115
11, 197520, Note_on_c, 9, 51, 112
11, 197520, Note_on_c, 9, 69, 50
11, 197520, Note_on_c, 9, 70, 47
11, 197550, Note_on_c, 9, 70, 0
11, 197550, Note_on_c, 9, 51, 0
11, 197550, Note_on_c, 9, 36, 0
11, 197550, Note_on_c, 9, 42, 0
11, 197550, Note_on_c, 9, 69, 0
11, 197640, Note_on_c, 9, 51, 75
11, 197670, Note_on_c, 9, 51, 0
11, 197760, Note_on_c, 9, 36, 116
11, 197760, Note_on_c, 9, 51, 80
11, 197790, Note_on_c, 9, 51, 0
11, 197790, Note_on_c, 9, 36, 0
11, 197880, Note_on_c, 9, 70, 53
11, 197910, Note_on_c, 9, 70, 0
11, 198000, Note_on_c, 9, 36, 109
11, 198000, Note_on_c, 9, 42, 112
11, 198000, Note_on_c, 9, 51, 109
11, 198000, Note_on_c, 9, 69, 46
11, 198000, Note_on_c, 9, 70, 55
11, 198030, Note_on_c, 9, 70, 0
11, 198030, Note_on_c, 9, 51, 0
11, 198030, Note_on_c, 9, 36, 0
11, 198030, Note_on_c, 9, 42, 0
11, 198030, Note_on_c, 9, 69, 0
11, 198120, Note_on_c, 9, 51, 72
11, 198150, Note_on_c, 9, 51, 0
11, 198240, Note_on_c, 9, 40, 105
11, 198240, Note_on_c, 9, 51, 99
11, 198270, Note_on_c, 9, 51, 0
11, 198270, Note_on_c, 9, 40, 0
11, 198360, Note_on_c, 9, 70, 52
11, 198390, Note_on_c, 9, 70, 0
11, 198480, Note_on_c, 9, 51, 105
11, 198480, Note_on_c, 9, 42, 115
11, 198480, Note_on_c, 9, 69, 46
11, 198480, Note_on_c, 9, 70, 71
11, 198510, Note_on_c, 9, 70, 0
11, 198510, Note_on_c, 9, 51, 0
11, 198510, Note_on_c, 9, 42, 0
11, 198510, Note_on_c, 9, 69, 0
11, 198600, Note_on_c, 9, 36, 105
11, 198600, Note_on_c, 9, 51, 68
11, 198630, Note_on_c, 9, 51, 0
11, 198630, Note_on_c, 9, 36, 0
11, 198720, Note_on_c, 9, 51, 70
11, 198750, Note_on_c, 9, 51, 0
11, 198840, Note_on_c, 9, 70, 51
11, 198870, Note_on_c, 9, 70, 0
11, 198960, Note_on_c, 9, 36, 113
11, 198960, Note_on_c, 9, 51, 91
11, 198960, Note_on_c, 9, 42, 109
11, 198960, Note_on_c, 9, 69, 46
11, 198960, Note_on_c, 9, 70, 57
11, 198990, Note_on_c, 9, 70, 0
11, 198990, Note_on_c, 9, 42, 0
11, 198990, Note_on_c, 9, 36, 0
11, 198990, Note_on_c, 9, 51, 0
11, 198990, Note_on_c, 9, 69, 0
11, 199080, Note_on_c, 9, 51, 72
11, 199110, Note_on_c, 9, 51, 0
11, 199200, Note_on_c, 9, 40, 103
11, 199200, Note_on_c, 9, 51, 101
11, 199230, Note_on_c, 9, 51, 0
11, 199230, Note_on_c, 9, 40, 0
11, 199320, Note_on_c, 9, 36, 119
11, 199320, Note_on_c, 9, 70, 51
11, 199350, Note_on_c, 9, 70, 0
11, 199350, Note_on_c, 9, 36, 0
11, 199440, Note_on_c, 9, 51, 101
11, 199440, Note_on_c, 9, 42, 115
11, 199440, Note_on_c, 9, 69, 45
11, 199440, Note_on_c, 9, 70, 65
11, 199470, Note_on_c, 9, 70, 0
11, 199470, Note_on_c, 9, 51, 0
11, 199470, Note_on_c, 9, 42, 0
11, 199470, Note_on_c, 9, 69, 0
11, 199560, Note_on_c, 9, 51, 74
11, 199590, Note_on_c, 9, 51, 0
11, 199680, Note_on_c, 9, 51, 87
11, 199710, Note_on_c, 9, 51, 0
11, 199800, Note_on_c, 9, 70, 47
11, 199830, Note_on_c, 9, 70, 0
11, 199920, Note_on_c, 9, 36, 109
11, 199920, Note_on_c, 9, 51, 101
11, 199920, Note_on_c, 9, 42, 113
11, 199920, Note_on_c, 9, 69, 43
11, 199920, Note_on_c, 9, 70, 59
11, 199950, Note_on_c, 9, 70, 0
11, 199950, Note_on_c, 9, 42, 0
11, 199950, Note_on_c, 9, 36, 0
11, 199950, Note_on_c, 9, 51, 0
11, 199950, Note_on_c, 9, 69, 0
11, 200040, Note_on_c, 9, 36, 91
11, 200040, Note_on_c, 9, 51, 65
11, 200070, Note_on_c, 9, 51, 0
11, 200070, Note_on_c, 9, 36, 0
11, 200160, Note_on_c, 9, 40, 118
11, 200160, Note_on_c, 9, 51, 91
11, 200190, Note_on_c, 9, 51, 0
11, 200190, Note_on_c, 9, 40, 0
11, 200280, Note_on_c, 9, 70, 48
11, 200310, Note_on_c, 9, 70, 0
11, 200400, Note_on_c, 9, 51, 112
11, 200400, Note_on_c, 9, 42, 109
11, 200400, Note_on_c, 9, 69, 41
11, 200400, Note_on_c, 9, 70, 49
11, 200430, Note_on_c, 9, 70, 0
11, 200430, Note_on_c, 9, 51, 0
11, 200430, Note_on_c, 9, 42, 0
11, 200430, Note_on_c, 9, 69, 0
11, 200520, Note_on_c, 9, 40, 121
11, 200520, Note_on_c, 9, 51, 73
11, 200550, Note_on_c, 9, 51, 0
11, 200550, Note_on_c, 9, 40, 0
11, 200640, Note_on_c, 9, 36, 92
11, 200640, Note_on_c, 9, 51, 99
11, 200670, Note_on_c, 9, 51, 0
11, 200670, Note_on_c, 9, 36, 0
11, 200760, Note_on_c, 9, 70, 52
11, 200790, Note_on_c, 9, 70, 0
11, 200880, Note_on_c, 9, 51, 88
11, 200880, Note_on_c, 9, 42, 105
11, 200880, Note_on_c, 9, 69, 48
11, 200880, Note_on_c, 9, 70, 41
11, 200910, Note_on_c, 9, 70, 0
11, 200910, Note_on_c, 9, 51, 0
11, 200910, Note_on_c, 9, 42, 0
11, 200910, Note_on_c, 9, 69, 0
11, 201000, Note_on_c, 9, 36, 113
11, 201000, Note_on_c, 9, 51, 68
11, 201030, Note_on_c, 9, 51, 0
11, 201030, Note_on_c, 9, 36, 0
11, 201120, Note_on_c, 9, 51, 99
11, 201150, Note_on_c, 9, 51, 0
11, 201240, Note_on_c, 9, 40, 118
11, 201240, Note_on_c, 9, 70, 49
11, 201270, Note_on_c, 9, 70, 0
11, 201270, Note_on_c, 9, 40, 0
11, 201360, Note_on_c, 9, 40, 100
11, 201360, Note_on_c, 9, 51, 105
11, 201360, Note_on_c, 9, 42, 112
11, 201360, Note_on_c, 9, 69, 50
11, 201360, Note_on_c, 9, 70, 53
11, 201390, Note_on_c, 9, 70, 0
11, 201390, Note_on_c, 9, 42, 0
11, 201390, Note_on_c, 9, 40, 0
11, 201390, Note_on_c, 9, 51, 0
11, 201390, Note_on_c, 9, 69, 0
11, 201480, Note_on_c, 9, 40, 115
11, 201480, Note_on_c, 9, 51, 67
11, 201510, Note_on_c, 9, 51, 0
11, 201510, Note_on_c, 9, 40, 0
11, 201600, Note_on_c, 9, 36, 116
11, 201600, Note_on_c, 9, 51, 109
11, 201630, Note_on_c, 9, 51, 0
11, 201630, Note_on_c, 9, 36, 0
11, 201720, Note_on_c, 9, 70, 48
11, 201750, Note_on_c, 9, 70, 0
11, 201840, Note_on_c, 9, 36, 116
11, 201840, Note_on_c, 9, 51, 91
11, 201840, Note_on_c, 9, 42, 105
11, 201840, Note_on_c, 9, 69, 47
11, 201840, Note_on_c, 9, 70, 48
11, 201870, Note_on_c, 9, 70, 0
11, 201870, Note_on_c, 9, 42, 0
11, 201870, Note_on_c, 9, 36, 0
11, 201870, Note_on_c, 9, 51, 0
11, 201870, Note_on_c, 9, 69, 0
11, 201960, Note_on_c, 9, 51, 70
11, 201990, Note_on_c, 9, 51, 0
11, 202080, Note_on_c, 9, 40, 123
11, 202080, Note_on_c, 9, 51, 64
11, 202110, Note_on_c, 9, 51, 0
11, 202110, Note_on_c, 9, 40, 0
11, 202200, Note_on_c, 9, 70, 46
11, 202230, Note_on_c, 9, 70, 0
11, 202320, Note_on_c, 9, 51, 99
11, 202320, Note_on_c, 9, 42, 101
11, 202320, Note_on_c, 9, 69, 50
11, 202320, Note_on_c, 9, 70, 48
11, 202350, Note_on_c, 9, 70, 0
11, 202350, Note_on_c, 9, 51, 0
11, 202350, Note_on_c, 9, 42, 0
11, 202350, Note_on_c, 9, 69, 0
11, 202440, Note_on_c, 9, 40, 91
11, 202440, Note_on_c, 9, 51, 59
11, 202470, Note_on_c, 9, 51, 0
11, 202470, Note_on_c, 9, 40, 0
11, 202560, Note_on_c, 9, 51, 40
11, 202590, Note_on_c, 9, 51, 0
11, 202680, Note_on_c, 9, 36, 105
11, 202680, Note_on_c, 9, 70, 48
11, 202710, Note_on_c, 9, 70, 0
11, 202710, Note_on_c, 9, 36, 0
11, 202800, Note_on_c, 9, 40, 103
11, 202800, Note_on_c, 9, 51, 99
11, 202800, Note_on_c, 9, 42, 105
11, 202800, Note_on_c, 9, 69, 49
11, 202800, Note_on_c, 9, 70, 73
11, 202830, Note_on_c, 9, 70, 0
11, 202830, Note_on_c, 9, 42, 0
11, 202830, Note_on_c, 9, 40, 0
11, 202830, Note_on_c, 9, 51, 0
11, 202830, Note_on_c, 9, 69, 0
11, 202920, Note_on_c, 9, 51, 70
11, 202950, Note_on_c, 9, 51, 0
11, 203040, Note_on_c, 9, 51, 101
11, 203070, Note_on_c, 9, 51, 0
11, 203160, Note_on_c, 9, 40, 86
11, 203160, Note_on_c, 9, 70, 43
11, 203190, Note_on_c, 9, 70, 0
11, 203190, Note_on_c, 9, 40, 0
11, 203280, Note_on_c, 9, 36, 91
11, 203280, Note_on_c, 9, 51, 109
11, 203280, Note_on_c, 9, 42, 101
11, 203280, Note_on_c, 9, 69, 45
11, 203280, Note_on_c, 9, 70, 67
11, 203310, Note_on_c, 9, 70, 0
11, 203310, Note_on_c, 9, 42, 0
11, 203310, Note_on_c, 9, 36, 0
11, 203310, Note_on_c, 9, 51, 0
11, 203310, Note_on_c, 9, 69, 0
11, 203400, Note_on_c, 9, 51, 73
11, 203430, Note_on_c, 9, 51, 0
11, 203520, Note_on_c, 9, 36, 113
11, 203520, Note_on_c, 9, 51, 101
11, 203550, Note_on_c, 9, 51, 0
11, 203550, Note_on_c, 9, 36, 0
11, 203640, Note_on_c, 9, 70, 40
11, 203670, Note_on_c, 9, 70, 0
11, 203760, Note_on_c, 9, 36, 113
11, 203760, Note_on_c, 9, 42, 113
11, 203760, Note_on_c, 9, 51, 99
11, 203760, Note_on_c, 9, 69, 51
11, 203760, Note_on_c, 9, 70, 71
11, 203790, Note_on_c, 9, 70, 0
11, 203790, Note_on_c, 9, 51, 0
11, 203790, Note_on_c, 9, 36, 0
11, 203790, Note_on_c, 9, 42, 0
11, 203790, Note_on_c, 9, 69, 0
11, 203880, Note_on_c, 9, 51, 72
11, 203910, Note_on_c, 9, 51, 0
11, 204000, Note_on_c, 9, 40, 103
11, 204000, Note_on_c, 9, 51, 80
11, 204030, Note_on_c, 9, 51, 0
11, 204030, Note_on_c, 9, 40, 0
11, 204120, Note_on_c, 9, 70, 47
11, 204150, Note_on_c, 9, 70, 0
11, 204240, Note_on_c, 9, 42, 105
11, 204240, Note_on_c, 9, 51, 94
11, 204240, Note_on_c, 9, 69, 50
11, 204240, Note_on_c, 9, 70, 53
11, 204270, Note_on_c, 9, 70, 0
11, 204270, Note_on_c, 9, 42, 0
11, 204270, Note_on_c, 9, 51, 0
11, 204270, Note_on_c, 9, 69, 0
11, 204360, Note_on_c, 9, 40, 113
11, 204360, Note_on_c, 9, 51, 75
11, 204390, Note_on_c, 9, 51, 0
11, 204390, Note_on_c, 9, 40, 0
11, 204480, Note_on_c, 9, 51, 66
11, 204510, Note_on_c, 9, 51, 0
11, 204600, Note_on_c, 9, 36, 98
11, 204600, Note_on_c, 9, 70, 48
11, 204630, Note_on_c, 9, 70, 0
11, 204630, Note_on_c, 9, 36, 0
11, 204720, Note_on_c, 9, 40, 100
11, 204720, Note_on_c, 9, 42, 99
11, 204720, Note_on_c, 9, 51, 105
11, 204720, Note_on_c, 9, 69, 53
11, 204720, Note_on_c, 9, 70, 64
11, 204750, Note_on_c, 9, 70, 0
11, 204750, Note_on_c, 9, 51, 0
11, 204750, Note_on_c, 9, 40, 0
11, 204750, Note_on_c, 9, 42, 0
11, 204750, Note_on_c, 9, 69, 0
11, 204840, Note_on_c, 9, 51, 64
11, 204870, Note_on_c, 9, 51, 0
11, 204960, Note_on_c, 9, 51, 94
11, 204990, Note_on_c, 9, 51, 0
11, 205080, Note_on_c, 9, 40, 102
11, 205080, Note_on_c, 9, 70, 47
11, 205110, Note_on_c, 9, 70, 0
11, 205110, Note_on_c, 9, 40, 0
11, 205200, Note_on_c, 9, 40, 115
11, 205200, Note_on_c, 9, 51, 99
11, 205200, Note_on_c, 9, 42, 105
11, 205200, Note_on_c, 9, 69, 50
11, 205200, Note_on_c, 9, 70, 50
11, 205230, Note_on_c, 9, 70, 0
11, 205230, Note_on_c, 9, 42, 0
11, 205230, Note_on_c, 9, 40, 0
11, 205230, Note_on_c, 9, 51, 0
11, 205230, Note_on_c, 9, 69, 0
11, 205320, Note_on_c, 9, 40, 121
11, 205320, Note_on_c, 9, 51, 65
11, 205350, Note_on_c, 9, 51, 0
11, 205350, Note_on_c, 9, 40, 0
11, 205440, Note_on_c, 9, 49, 101
11, 205470, Note_on_c, 9, 49, 0
11, 205470, End_track
12, 0, Start_track
12, 0, MIDI_port, 0
12, 0, Title_t, "tk11"
12, 532, Program_c, 10, 67
12, 533, Control_c, 10, 7, 100
12, 533, Control_c, 10, 10, 64
12, 745, Control_c, 10, 10, 127
12, 745, Control_c, 10, 11, 127
12, 750, Control_c, 10, 91, 100
12, 750, Control_c, 10, 93, 90
12, 24605, Note_on_c, 10, 46, 111
12, 24610, Control_c, 10, 1, 0
12, 24610, Pitch_bend_c, 10, 8192
12, 24655, Control_c, 10, 1, 1
12, 24665, Control_c, 10, 1, 3
12, 24670, Control_c, 10, 1, 6
12, 24675, Control_c, 10, 1, 8
12, 24685, Control_c, 10, 1, 10
12, 24690, Control_c, 10, 1, 12
12, 24695, Control_c, 10, 1, 13
12, 24705, Control_c, 10, 1, 14
12, 24715, Control_c, 10, 1, 15
12, 24740, Control_c, 10, 1, 16
12, 24750, Control_c, 10, 1, 17
12, 24780, Control_c, 10, 1, 18
12, 24790, Control_c, 10, 1, 19
12, 24800, Control_c, 10, 1, 20
12, 24810, Control_c, 10, 1, 21
12, 24830, Control_c, 10, 1, 22
12, 24840, Control_c, 10, 1, 23
12, 24920, Control_c, 10, 1, 22
12, 24935, Control_c, 10, 1, 21
12, 24940, Note_on_c, 10, 46, 0
12, 24945, Control_c, 10, 1, 20
12, 24950, Control_c, 10, 1, 19
12, 24955, Note_on_c, 10, 47, 107
12, 24955, Control_c, 10, 1, 18
12, 24965, Control_c, 10, 1, 17
12, 24975, Control_c, 10, 1, 16
12, 24985, Control_c, 10, 1, 15
12, 24990, Control_c, 10, 1, 14
12, 24995, Control_c, 10, 1, 13
12, 25005, Control_c, 10, 1, 12
12, 25010, Control_c, 10, 1, 10
12, 25015, Control_c, 10, 1, 8
12, 25025, Control_c, 10, 1, 7
12, 25030, Control_c, 10, 1, 5
12, 25035, Control_c, 10, 1, 4
12, 25045, Control_c, 10, 1, 3
12, 25055, Control_c, 10, 1, 2
12, 25065, Control_c, 10, 1, 1
12, 25095, Note_on_c, 10, 47, 0
12, 25220, Control_c, 10, 1, 0
12, 25435, Note_on_c, 10, 42, 119
12, 25670, Note_on_c, 10, 42, 0
12, 28435, Note_on_c, 10, 39, 111
12, 28795, Note_on_c, 10, 40, 107
12, 28805, Note_on_c, 10, 39, 0
12, 29030, Note_on_c, 10, 40, 0
12, 32275, Note_on_c, 10, 37, 107
12, 32635, Note_on_c, 10, 37, 0
12, 32635, Note_on_c, 10, 38, 115
12, 32810, Note_on_c, 10, 38, 0
12, 32880, Note_on_c, 10, 50, 107
12, 33120, Note_on_c, 10, 50, 0
12, 36115, Note_on_c, 10, 33, 105
12, 36240, Note_on_c, 10, 32, 94
12, 36245, Note_on_c, 10, 33, 0
12, 36320, Note_on_c, 10, 32, 0
12, 36360, Note_on_c, 10, 32, 90
12, 36470, Note_on_c, 10, 32, 0
12, 36475, Note_on_c, 10, 31, 97
12, 36670, Note_on_c, 10, 31, 0
12, 39965, Note_on_c, 10, 46, 111
12, 40015, Control_c, 10, 1, 1
12, 40025, Control_c, 10, 1, 3
12, 40030, Control_c, 10, 1, 6
12, 40035, Control_c, 10, 1, 8
12, 40045, Control_c, 10, 1, 10
12, 40050, Control_c, 10, 1, 12
12, 40055, Control_c, 10, 1, 13
12, 40065, Control_c, 10, 1, 14
12, 40075, Control_c, 10, 1, 15
12, 40100, Control_c, 10, 1, 16
12, 40110, Control_c, 10, 1, 17
12, 40140, Control_c, 10, 1, 18
12, 40150, Control_c, 10, 1, 19
12, 40160, Control_c, 10, 1, 20
12, 40170, Control_c, 10, 1, 21
12, 40190, Control_c, 10, 1, 22
12, 40200, Control_c, 10, 1, 23
12, 40280, Control_c, 10, 1, 22
12, 40295, Control_c, 10, 1, 21
12, 40300, Note_on_c, 10, 46, 0
12, 40305, Control_c, 10, 1, 20
12, 40310, Control_c, 10, 1, 19
12, 40315, Note_on_c, 10, 47, 107
12, 40315, Control_c, 10, 1, 18
12, 40325, Control_c, 10, 1, 17
12, 40335, Control_c, 10, 1, 16
12, 40345, Control_c, 10, 1, 15
12, 40350, Control_c, 10, 1, 14
12, 40355, Control_c, 10, 1, 13
12, 40365, Control_c, 10, 1, 12
12, 40370, Control_c, 10, 1, 10
12, 40375, Control_c, 10, 1, 8
12, 40385, Control_c, 10, 1, 7
12, 40390, Control_c, 10, 1, 5
12, 40395, Control_c, 10, 1, 4
12, 40405, Control_c, 10, 1, 3
12, 40415, Control_c, 10, 1, 2
12, 40425, Control_c, 10, 1, 1
12, 40455, Note_on_c, 10, 47, 0
12, 40580, Control_c, 10, 1, 0
12, 40795, Note_on_c, 10, 42, 119
12, 41030, Note_on_c, 10, 42, 0
12, 43795, Note_on_c, 10, 39, 111
12, 44155, Note_on_c, 10, 40, 107
12, 44165, Note_on_c, 10, 39, 0
12, 44390, Note_on_c, 10, 40, 0
12, 47635, Note_on_c, 10, 37, 107
12, 47995, Note_on_c, 10, 37, 0
12, 47995, Note_on_c, 10, 38, 115
12, 48170, Note_on_c, 10, 38, 0
12, 48240, Note_on_c, 10, 50, 107
12, 48480, Note_on_c, 10, 50, 0
12, 51475, Note_on_c, 10, 33, 105
12, 51600, Note_on_c, 10, 32, 94
12, 51605, Note_on_c, 10, 33, 0
12, 51680, Note_on_c, 10, 32, 0
12, 51720, Note_on_c, 10, 32, 90
12, 51830, Note_on_c, 10, 32, 0
12, 51835, Note_on_c, 10, 31, 97
12, 52030, Note_on_c, 10, 31, 0
12, 70685, Note_on_c, 10, 46, 111
12, 70735, Control_c, 10, 1, 1
12, 70745, Control_c, 10, 1, 3
12, 70750, Control_c, 10, 1, 6
12, 70755, Control_c, 10, 1, 8
12, 70765, Control_c, 10, 1, 10
12, 70770, Control_c, 10, 1, 12
12, 70775, Control_c, 10, 1, 13
12, 70785, Control_c, 10, 1, 14
12, 70795, Control_c, 10, 1, 15
12, 70820, Control_c, 10, 1, 16
12, 70830, Control_c, 10, 1, 17
12, 70860, Control_c, 10, 1, 18
12, 70870, Control_c, 10, 1, 19
12, 70880, Control_c, 10, 1, 20
12, 70890, Control_c, 10, 1, 21
12, 70910, Control_c, 10, 1, 22
12, 70920, Control_c, 10, 1, 23
12, 71000, Control_c, 10, 1, 22
12, 71015, Control_c, 10, 1, 21
12, 71020, Note_on_c, 10, 46, 0
12, 71025, Control_c, 10, 1, 20
12, 71030, Control_c, 10, 1, 19
12, 71035, Note_on_c, 10, 47, 107
12, 71035, Control_c, 10, 1, 18
12, 71045, Control_c, 10, 1, 17
12, 71055, Control_c, 10, 1, 16
12, 71065, Control_c, 10, 1, 15
12, 71070, Control_c, 10, 1, 14
12, 71075, Control_c, 10, 1, 13
12, 71085, Control_c, 10, 1, 12
12, 71090, Control_c, 10, 1, 10
12, 71095, Control_c, 10, 1, 8
12, 71105, Control_c, 10, 1, 7
12, 71110, Control_c, 10, 1, 5
12, 71115, Control_c, 10, 1, 4
12, 71125, Control_c, 10, 1, 3
12, 71135, Control_c, 10, 1, 2
12, 71145, Control_c, 10, 1, 1
12, 71175, Note_on_c, 10, 47, 0
12, 71300, Control_c, 10, 1, 0
12, 71515, Note_on_c, 10, 42, 119
12, 71750, Note_on_c, 10, 42, 0
12, 74515, Note_on_c, 10, 39, 111
12, 74875, Note_on_c, 10, 40, 107
12, 74885, Note_on_c, 10, 39, 0
12, 75110, Note_on_c, 10, 40, 0
12, 78355, Note_on_c, 10, 37, 107
12, 78715, Note_on_c, 10, 37, 0
12, 78715, Note_on_c, 10, 38, 115
12, 78890, Note_on_c, 10, 38, 0
12, 78960, Note_on_c, 10, 50, 107
12, 79200, Note_on_c, 10, 50, 0
12, 82195, Note_on_c, 10, 33, 105
12, 82320, Note_on_c, 10, 32, 94
12, 82325, Note_on_c, 10, 33, 0
12, 82400, Note_on_c, 10, 32, 0
12, 82440, Note_on_c, 10, 32, 90
12, 82550, Note_on_c, 10, 32, 0
12, 82555, Note_on_c, 10, 31, 97
12, 82750, Note_on_c, 10, 31, 0
12, 101405, Note_on_c, 10, 46, 111
12, 101455, Control_c, 10, 1, 1
12, 101465, Control_c, 10, 1, 3
12, 101470, Control_c, 10, 1, 6
12, 101475, Control_c, 10, 1, 8
12, 101485, Control_c, 10, 1, 10
12, 101490, Control_c, 10, 1, 12
12, 101495, Control_c, 10, 1, 13
12, 101505, Control_c, 10, 1, 14
12, 101515, Control_c, 10, 1, 15
12, 101540, Control_c, 10, 1, 16
12, 101550, Control_c, 10, 1, 17
12, 101580, Control_c, 10, 1, 18
12, 101590, Control_c, 10, 1, 19
12, 101600, Control_c, 10, 1, 20
12, 101610, Control_c, 10, 1, 21
12, 101630, Control_c, 10, 1, 22
12, 101640, Control_c, 10, 1, 23
12, 101720, Control_c, 10, 1, 22
12, 101735, Control_c, 10, 1, 21
12, 101740, Note_on_c, 10, 46, 0
12, 101745, Control_c, 10, 1, 20
12, 101750, Control_c, 10, 1, 19
12, 101755, Note_on_c, 10, 47, 107
12, 101755, Control_c, 10, 1, 18
12, 101765, Control_c, 10, 1, 17
12, 101775, Control_c, 10, 1, 16
12, 101785, Control_c, 10, 1, 15
12, 101790, Control_c, 10, 1, 14
12, 101795, Control_c, 10, 1, 13
12, 101805, Control_c, 10, 1, 12
12, 101810, Control_c, 10, 1, 10
12, 101815, Control_c, 10, 1, 8
12, 101825, Control_c, 10, 1, 7
12, 101830, Control_c, 10, 1, 5
12, 101835, Control_c, 10, 1, 4
12, 101845, Control_c, 10, 1, 3
12, 101855, Control_c, 10, 1, 2
12, 101865, Control_c, 10, 1, 1
12, 101895, Note_on_c, 10, 47, 0
12, 102020, Control_c, 10, 1, 0
12, 102235, Note_on_c, 10, 42, 119
12, 102470, Note_on_c, 10, 42, 0
12, 105235, Note_on_c, 10, 39, 111
12, 105595, Note_on_c, 10, 40, 107
12, 105605, Note_on_c, 10, 39, 0
12, 105830, Note_on_c, 10, 40, 0
12, 109075, Note_on_c, 10, 37, 107
12, 109435, Note_on_c, 10, 37, 0
12, 109435, Note_on_c, 10, 38, 115
12, 109610, Note_on_c, 10, 38, 0
12, 109680, Note_on_c, 10, 50, 107
12, 109920, Note_on_c, 10, 50, 0
12, 112915, Note_on_c, 10, 33, 105
12, 113040, Note_on_c, 10, 32, 94
12, 113045, Note_on_c, 10, 33, 0
12, 113120, Note_on_c, 10, 32, 0
12, 113160, Note_on_c, 10, 32, 90
12, 113270, Note_on_c, 10, 32, 0
12, 113275, Note_on_c, 10, 31, 97
12, 113470, Note_on_c, 10, 31, 0
12, 116815, Control_c, 10, 1, 1
12, 116825, Control_c, 10, 1, 3
12, 116830, Control_c, 10, 1, 6
12, 116835, Control_c, 10, 1, 8
12, 116845, Control_c, 10, 1, 10
12, 116850, Control_c, 10, 1, 12
12, 116855, Control_c, 10, 1, 13
12, 116865, Control_c, 10, 1, 14
12, 116875, Control_c, 10, 1, 15
12, 116900, Control_c, 10, 1, 16
12, 116910, Control_c, 10, 1, 17
12, 116940, Control_c, 10, 1, 18
12, 116950, Control_c, 10, 1, 19
12, 116960, Control_c, 10, 1, 20
12, 116970, Control_c, 10, 1, 21
12, 116990, Control_c, 10, 1, 22
12, 117000, Control_c, 10, 1, 23
12, 117080, Control_c, 10, 1, 22
12, 117095, Control_c, 10, 1, 21
12, 117105, Control_c, 10, 1, 20
12, 117110, Control_c, 10, 1, 19
12, 117115, Control_c, 10, 1, 18
12, 132125, Note_on_c, 10, 46, 111
12, 132175, Control_c, 10, 1, 1
12, 132185, Control_c, 10, 1, 3
12, 132190, Control_c, 10, 1, 6
12, 132195, Control_c, 10, 1, 8
12, 132205, Control_c, 10, 1, 10
12, 132210, Control_c, 10, 1, 12
12, 132215, Control_c, 10, 1, 13
12, 132225, Control_c, 10, 1, 14
12, 132235, Control_c, 10, 1, 15
12, 132260, Control_c, 10, 1, 16
12, 132270, Control_c, 10, 1, 17
12, 132300, Control_c, 10, 1, 18
12, 132310, Control_c, 10, 1, 19
12, 132320, Control_c, 10, 1, 20
12, 132330, Control_c, 10, 1, 21
12, 132350, Control_c, 10, 1, 22
12, 132360, Control_c, 10, 1, 23
12, 132440, Control_c, 10, 1, 22
12, 132455, Control_c, 10, 1, 21
12, 132460, Note_on_c, 10, 46, 0
12, 132465, Control_c, 10, 1, 20
12, 132470, Control_c, 10, 1, 19
12, 132475, Note_on_c, 10, 47, 107
12, 132475, Control_c, 10, 1, 18
12, 132485, Control_c, 10, 1, 17
12, 132495, Control_c, 10, 1, 16
12, 132505, Control_c, 10, 1, 15
12, 132510, Control_c, 10, 1, 14
12, 132515, Control_c, 10, 1, 13
12, 132525, Control_c, 10, 1, 12
12, 132530, Control_c, 10, 1, 10
12, 132535, Control_c, 10, 1, 8
12, 132545, Control_c, 10, 1, 7
12, 132550, Control_c, 10, 1, 5
12, 132555, Control_c, 10, 1, 4
12, 132565, Control_c, 10, 1, 3
12, 132575, Control_c, 10, 1, 2
12, 132585, Control_c, 10, 1, 1
12, 132615, Note_on_c, 10, 47, 0
12, 132740, Control_c, 10, 1, 0
12, 132955, Note_on_c, 10, 42, 119
12, 133190, Note_on_c, 10, 42, 0
12, 135955, Note_on_c, 10, 39, 111
12, 136315, Note_on_c, 10, 40, 107
12, 136325, Note_on_c, 10, 39, 0
12, 136550, Note_on_c, 10, 40, 0
12, 139795, Note_on_c, 10, 37, 107
12, 140155, Note_on_c, 10, 37, 0
12, 140155, Note_on_c, 10, 38, 115
12, 140330, Note_on_c, 10, 38, 0
12, 140400, Note_on_c, 10, 50, 107
12, 140640, Note_on_c, 10, 50, 0
12, 143635, Note_on_c, 10, 33, 105
12, 143760, Note_on_c, 10, 32, 94
12, 143765, Note_on_c, 10, 33, 0
12, 143840, Note_on_c, 10, 32, 0
12, 143880, Note_on_c, 10, 32, 90
12, 143990, Note_on_c, 10, 32, 0
12, 143995, Note_on_c, 10, 31, 97
12, 144190, Note_on_c, 10, 31, 0
12, 147485, Note_on_c, 10, 46, 111
12, 147535, Control_c, 10, 1, 1
12, 147545, Control_c, 10, 1, 3
12, 147550, Control_c, 10, 1, 6
12, 147555, Control_c, 10, 1, 8
12, 147565, Control_c, 10, 1, 10
12, 147570, Control_c, 10, 1, 12
12, 147575, Control_c, 10, 1, 13
12, 147585, Control_c, 10, 1, 14
12, 147595, Control_c, 10, 1, 15
12, 147620, Control_c, 10, 1, 16
12, 147630, Control_c, 10, 1, 17
12, 147660, Control_c, 10, 1, 18
12, 147670, Control_c, 10, 1, 19
12, 147680, Control_c, 10, 1, 20
12, 147690, Control_c, 10, 1, 21
12, 147710, Control_c, 10, 1, 22
12, 147720, Control_c, 10, 1, 23
12, 147800, Control_c, 10, 1, 22
12, 147815, Control_c, 10, 1, 21
12, 147820, Note_on_c, 10, 46, 0
12, 147825, Control_c, 10, 1, 20
12, 147830, Control_c, 10, 1, 19
12, 147835, Note_on_c, 10, 47, 107
12, 147835, Control_c, 10, 1, 18
12, 147845, Control_c, 10, 1, 17
12, 147855, Control_c, 10, 1, 16
12, 147865, Control_c, 10, 1, 15
12, 147870, Control_c, 10, 1, 14
12, 147875, Control_c, 10, 1, 13
12, 147885, Control_c, 10, 1, 12
12, 147890, Control_c, 10, 1, 10
12, 147895, Control_c, 10, 1, 8
12, 147905, Control_c, 10, 1, 7
12, 147910, Control_c, 10, 1, 5
12, 147915, Control_c, 10, 1, 4
12, 147925, Control_c, 10, 1, 3
12, 147935, Control_c, 10, 1, 2
12, 147945, Control_c, 10, 1, 1
12, 147975, Note_on_c, 10, 47, 0
12, 148100, Control_c, 10, 1, 0
12, 148315, Note_on_c, 10, 42, 119
12, 148550, Note_on_c, 10, 42, 0
12, 151315, Note_on_c, 10, 39, 111
12, 151675, Note_on_c, 10, 40, 107
12, 151685, Note_on_c, 10, 39, 0
12, 151910, Note_on_c, 10, 40, 0
12, 155155, Note_on_c, 10, 37, 107
12, 155515, Note_on_c, 10, 37, 0
12, 155515, Note_on_c, 10, 38, 115
12, 155690, Note_on_c, 10, 38, 0
12, 155760, Note_on_c, 10, 50, 107
12, 156000, Note_on_c, 10, 50, 0
12, 158995, Note_on_c, 10, 33, 105
12, 159120, Note_on_c, 10, 32, 94
12, 159125, Note_on_c, 10, 33, 0
12, 159200, Note_on_c, 10, 32, 0
12, 159240, Note_on_c, 10, 32, 90
12, 159350, Note_on_c, 10, 32, 0
12, 159355, Note_on_c, 10, 31, 97
12, 159550, Note_on_c, 10, 31, 0
12, 159550, End_track
13, 0, Start_track
13, 0, MIDI_port, 0
13, 0, Title_t, "tk12"
13, 537, Program_c, 11, 67
13, 538, Control_c, 11, 7, 100
13, 538, Control_c, 11, 10, 64
13, 770, Control_c, 11, 10, 1
13, 770, Control_c, 11, 11, 127
13, 775, Control_c, 11, 91, 100
13, 775, Control_c, 11, 93, 90
13, 24600, Note_on_c, 11, 34, 93
13, 24605, Control_c, 11, 1, 0
13, 24605, Pitch_bend_c, 11, 8192
13, 24605, Note_on_c, 11, 46, 86
13, 24915, Note_on_c, 11, 34, 0
13, 24930, Note_on_c, 11, 46, 0
13, 24960, Note_on_c, 11, 35, 94
13, 24960, Note_on_c, 11, 47, 105
13, 25075, Note_on_c, 11, 47, 0
13, 25095, Note_on_c, 11, 35, 0
13, 25440, Note_on_c, 11, 42, 97
13, 25675, Note_on_c, 11, 42, 0
13, 28440, Note_on_c, 11, 38, 90
13, 28540, Note_on_c, 11, 38, 0
13, 28555, Note_on_c, 11, 39, 105
13, 28800, Note_on_c, 11, 40, 115
13, 28850, Note_on_c, 11, 39, 0
13, 29030, Note_on_c, 11, 40, 0
13, 32285, Note_on_c, 11, 36, 80
13, 32395, Note_on_c, 11, 37, 83
13, 32410, Note_on_c, 11, 36, 0
13, 32635, Note_on_c, 11, 38, 93
13, 32665, Note_on_c, 11, 37, 0
13, 32860, Note_on_c, 11, 38, 0
13, 32875, Note_on_c, 11, 50, 102
13, 33040, Note_on_c, 11, 50, 0
13, 36115, Note_on_c, 11, 33, 94
13, 36235, Note_on_c, 11, 32, 80
13, 36245, Note_on_c, 11, 33, 0
13, 36320, Note_on_c, 11, 32, 0
13, 36355, Note_on_c, 11, 32, 83
13, 36475, Note_on_c, 11, 31, 97
13, 36500, Note_on_c, 11, 32, 0
13, 36730, Note_on_c, 11, 31, 0
13, 39960, Note_on_c, 11, 34, 93
13, 39965, Note_on_c, 11, 46, 86
13, 40275, Note_on_c, 11, 34, 0
13, 40290, Note_on_c, 11, 46, 0
13, 40320, Note_on_c, 11, 35, 94
13, 40320, Note_on_c, 11, 47, 105
13, 40435, Note_on_c, 11, 47, 0
13, 40455, Note_on_c, 11, 35, 0
13, 40800, Note_on_c, 11, 42, 97
13, 41035, Note_on_c, 11, 42, 0
13, 43800, Note_on_c, 11, 38, 90
13, 43900, Note_on_c, 11, 38, 0
13, 43915, Note_on_c, 11, 39, 105
13, 44160, Note_on_c, 11, 40, 115
13, 44210, Note_on_c, 11, 39, 0
13, 44390, Note_on_c, 11, 40, 0
13, 47645, Note_on_c, 11, 36, 80
13, 47755, Note_on_c, 11, 37, 83
13, 47770, Note_on_c, 11, 36, 0
13, 47995, Note_on_c, 11, 38, 93
13, 48025, Note_on_c, 11, 37, 0
13, 48220, Note_on_c, 11, 38, 0
13, 48235, Note_on_c, 11, 50, 102
13, 48400, Note_on_c, 11, 50, 0
13, 51475, Note_on_c, 11, 33, 94
13, 51595, Note_on_c, 11, 32, 80
13, 51605, Note_on_c, 11, 33, 0
13, 51680, Note_on_c, 11, 32, 0
13, 51715, Note_on_c, 11, 32, 83
13, 51835, Note_on_c, 11, 31, 97
13, 51860, Note_on_c, 11, 32, 0
13, 52090, Note_on_c, 11, 31, 0
13, 70680, Note_on_c, 11, 34, 93
13, 70685, Note_on_c, 11, 46, 86
13, 70995, Note_on_c, 11, 34, 0
13, 71010, Note_on_c, 11, 46, 0
13, 71040, Note_on_c, 11, 35, 94
13, 71040, Note_on_c, 11, 47, 105
13, 71155, Note_on_c, 11, 47, 0
13, 71175, Note_on_c, 11, 35, 0
13, 71520, Note_on_c, 11, 42, 97
13, 71755, Note_on_c, 11, 42, 0
13, 74520, Note_on_c, 11, 38, 90
13, 74620, Note_on_c, 11, 38, 0
13, 74635, Note_on_c, 11, 39, 105
13, 74880, Note_on_c, 11, 40, 115
13, 74930, Note_on_c, 11, 39, 0
13, 75110, Note_on_c, 11, 40, 0
13, 78365, Note_on_c, 11, 36, 80
13, 78475, Note_on_c, 11, 37, 83
13, 78490, Note_on_c, 11, 36, 0
13, 78715, Note_on_c, 11, 38, 93
13, 78745, Note_on_c, 11, 37, 0
13, 78940, Note_on_c, 11, 38, 0
13, 78955, Note_on_c, 11, 50, 102
13, 79120, Note_on_c, 11, 50, 0
13, 82195, Note_on_c, 11, 33, 94
13, 82315, Note_on_c, 11, 32, 80
13, 82325, Note_on_c, 11, 33, 0
13, 82400, Note_on_c, 11, 32, 0
13, 82435, Note_on_c, 11, 32, 83
13, 82555, Note_on_c, 11, 31, 97
13, 82580, Note_on_c, 11, 32, 0
13, 82810, Note_on_c, 11, 31, 0
13, 101400, Note_on_c, 11, 34, 93
13, 101405, Note_on_c, 11, 46, 86
13, 101715, Note_on_c, 11, 34, 0
13, 101730, Note_on_c, 11, 46, 0
13, 101760, Note_on_c, 11, 35, 94
13, 101760, Note_on_c, 11, 47, 105
13, 101875, Note_on_c, 11, 47, 0
13, 101895, Note_on_c, 11, 35, 0
13, 102240, Note_on_c, 11, 42, 97
13, 102475, Note_on_c, 11, 42, 0
13, 105240, Note_on_c, 11, 38, 90
13, 105340, Note_on_c, 11, 38, 0
13, 105355, Note_on_c, 11, 39, 105
13, 105600, Note_on_c, 11, 40, 115
13, 105650, Note_on_c, 11, 39, 0
13, 105830, Note_on_c, 11, 40, 0
13, 109085, Note_on_c, 11, 36, 80
13, 109195, Note_on_c, 11, 37, 83
13, 109210, Note_on_c, 11, 36, 0
13, 109435, Note_on_c, 11, 38, 93
13, 109465, Note_on_c, 11, 37, 0
13, 109660, Note_on_c, 11, 38, 0
13, 109675, Note_on_c, 11, 50, 102
13, 109840, Note_on_c, 11, 50, 0
13, 112915, Note_on_c, 11, 33, 94
13, 113035, Note_on_c, 11, 32, 80
13, 113045, Note_on_c, 11, 33, 0
13, 113120, Note_on_c, 11, 32, 0
13, 113155, Note_on_c, 11, 32, 83
13, 113275, Note_on_c, 11, 31, 97
13, 113300, Note_on_c, 11, 32, 0
13, 113530, Note_on_c, 11, 31, 0
13, 132120, Note_on_c, 11, 34, 93
13, 132125, Note_on_c, 11, 46, 86
13, 132435, Note_on_c, 11, 34, 0
13, 132450, Note_on_c, 11, 46, 0
13, 132480, Note_on_c, 11, 35, 94
13, 132480, Note_on_c, 11, 47, 105
13, 132595, Note_on_c, 11, 47, 0
13, 132615, Note_on_c, 11, 35, 0
13, 132960, Note_on_c, 11, 42, 97
13, 133195, Note_on_c, 11, 42, 0
13, 135960, Note_on_c, 11, 38, 90
13, 136060, Note_on_c, 11, 38, 0
13, 136075, Note_on_c, 11, 39, 105
13, 136320, Note_on_c, 11, 40, 115
13, 136370, Note_on_c, 11, 39, 0
13, 136550, Note_on_c, 11, 40, 0
13, 139805, Note_on_c, 11, 36, 80
13, 139915, Note_on_c, 11, 37, 83
13, 139930, Note_on_c, 11, 36, 0
13, 140155, Note_on_c, 11, 38, 93
13, 140185, Note_on_c, 11, 37, 0
13, 140380, Note_on_c, 11, 38, 0
13, 140395, Note_on_c, 11, 50, 102
13, 140560, Note_on_c, 11, 50, 0
13, 143635, Note_on_c, 11, 33, 94
13, 143755, Note_on_c, 11, 32, 80
13, 143765, Note_on_c, 11, 33, 0
13, 143840, Note_on_c, 11, 32, 0
13, 143875, Note_on_c, 11, 32, 83
13, 143995, Note_on_c, 11, 31, 97
13, 144020, Note_on_c, 11, 32, 0
13, 144250, Note_on_c, 11, 31, 0
13, 147480, Note_on_c, 11, 34, 93
13, 147485, Note_on_c, 11, 46, 86
13, 147795, Note_on_c, 11, 34, 0
13, 147810, Note_on_c, 11, 46, 0
13, 147840, Note_on_c, 11, 35, 94
13, 147840, Note_on_c, 11, 47, 105
13, 147955, Note_on_c, 11, 47, 0
13, 147975, Note_on_c, 11, 35, 0
13, 148320, Note_on_c, 11, 42, 97
13, 148555, Note_on_c, 11, 42, 0
13, 151320, Note_on_c, 11, 38, 90
13, 151420, Note_on_c, 11, 38, 0
13, 151435, Note_on_c, 11, 39, 105
13, 151680, Note_on_c, 11, 40, 115
13, 151730, Note_on_c, 11, 39, 0
13, 151910, Note_on_c, 11, 40, 0
13, 155165, Note_on_c, 11, 36, 80
13, 155275, Note_on_c, 11, 37, 83
13, 155290, Note_on_c, 11, 36, 0
13, 155515, Note_on_c, 11, 38, 93
13, 155545, Note_on_c, 11, 37, 0
13, 155740, Note_on_c, 11, 38, 0
13, 155755, Note_on_c, 11, 50, 102
13, 155920, Note_on_c, 11, 50, 0
13, 158995, Note_on_c, 11, 33, 94
13, 159115, Note_on_c, 11, 32, 80
13, 159125, Note_on_c, 11, 33, 0
13, 159200, Note_on_c, 11, 32, 0
13, 159235, Note_on_c, 11, 32, 83
13, 159355, Note_on_c, 11, 31, 97
13, 159380, Note_on_c, 11, 32, 0
13, 159610, Note_on_c, 11, 31, 0
13, 159610, End_track
0, 0, End_of_file
