0, 0, Header, 1, 15, 120
1, 0, Start_track
1, 0, MIDI_port, 0
1, 0, System_exclusive, 10, 65, 16, 66, 18, 64, 0, 127, 0, 65, 247
1, 0, MIDI_port, 0
1, 0, Time_signature, 4, 2, 24, 8
1, 0, Key_signature, 1, "major"
1, 0, Tempo, 444444
1, 0, Marker_t, "Copyright © 1996 Steve Day - sad001@ccnet.com"
1, 0, End_track
2, 0, Start_track
2, 0, MIDI_port, 0
2, 0, Title_t, "Fretless Bass"
2, 0, Program_c, 0, 35
2, 0, Control_c, 0, 7, 100
2, 0, Control_c, 0, 10, 64
2, 0, Control_c, 0, 91, 0
2, 0, Control_c, 0, 93, 0
2, 0, Note_on_c, 0, 43, 85
2, 179, Note_on_c, 0, 43, 0
2, 180, Note_on_c, 0, 43, 85
2, 239, Note_on_c, 0, 43, 0
2, 240, Note_on_c, 0, 43, 85
2, 419, Note_on_c, 0, 43, 0
2, 420, Note_on_c, 0, 43, 85
2, 479, Note_on_c, 0, 43, 0
2, 480, Note_on_c, 0, 43, 85
2, 659, Note_on_c, 0, 43, 0
2, 660, Note_on_c, 0, 43, 85
2, 719, Note_on_c, 0, 43, 0
2, 720, Note_on_c, 0, 43, 85
2, 779, Note_on_c, 0, 43, 0
2, 780, Note_on_c, 0, 40, 85
2, 839, Note_on_c, 0, 40, 0
2, 840, Note_on_c, 0, 41, 85
2, 899, Note_on_c, 0, 41, 0
2, 900, Note_on_c, 0, 42, 85
2, 959, Note_on_c, 0, 42, 0
2, 960, Note_on_c, 0, 43, 85
2, 1139, Note_on_c, 0, 43, 0
2, 1140, Note_on_c, 0, 43, 85
2, 1199, Note_on_c, 0, 43, 0
2, 1200, Note_on_c, 0, 43, 85
2, 1379, Note_on_c, 0, 43, 0
2, 1380, Note_on_c, 0, 43, 85
2, 1439, Note_on_c, 0, 43, 0
2, 1440, Note_on_c, 0, 43, 85
2, 1619, Note_on_c, 0, 43, 0
2, 1620, Note_on_c, 0, 43, 85
2, 1679, Note_on_c, 0, 43, 0
2, 1680, Note_on_c, 0, 43, 85
2, 1739, Note_on_c, 0, 43, 0
2, 1740, Note_on_c, 0, 40, 85
2, 1799, Note_on_c, 0, 40, 0
2, 1800, Note_on_c, 0, 41, 85
2, 1859, Note_on_c, 0, 41, 0
2, 1860, Note_on_c, 0, 42, 85
2, 1919, Note_on_c, 0, 42, 0
2, 1920, Note_on_c, 0, 43, 85
2, 2099, Note_on_c, 0, 43, 0
2, 2100, Note_on_c, 0, 43, 85
2, 2159, Note_on_c, 0, 43, 0
2, 2160, Note_on_c, 0, 43, 85
2, 2339, Note_on_c, 0, 43, 0
2, 2340, Note_on_c, 0, 43, 85
2, 2399, Note_on_c, 0, 43, 0
2, 2400, Note_on_c, 0, 43, 85
2, 2459, Note_on_c, 0, 43, 0
2, 2460, Note_on_c, 0, 43, 85
2, 2579, Note_on_c, 0, 43, 0
2, 2580, Note_on_c, 0, 43, 85
2, 2639, Note_on_c, 0, 43, 0
2, 2640, Note_on_c, 0, 43, 85
2, 2699, Note_on_c, 0, 43, 0
2, 2700, Note_on_c, 0, 40, 85
2, 2759, Note_on_c, 0, 40, 0
2, 2760, Note_on_c, 0, 41, 85
2, 2819, Note_on_c, 0, 41, 0
2, 2820, Note_on_c, 0, 42, 85
2, 2879, Note_on_c, 0, 42, 0
2, 2880, Note_on_c, 0, 43, 85
2, 3059, Note_on_c, 0, 43, 0
2, 3060, Note_on_c, 0, 43, 85
2, 3119, Note_on_c, 0, 43, 0
2, 3120, Note_on_c, 0, 43, 85
2, 3299, Note_on_c, 0, 43, 0
2, 3300, Note_on_c, 0, 43, 85
2, 3359, Note_on_c, 0, 43, 0
2, 3360, Note_on_c, 0, 43, 85
2, 3419, Note_on_c, 0, 43, 0
2, 3420, Note_on_c, 0, 43, 85
2, 3539, Note_on_c, 0, 43, 0
2, 3540, Note_on_c, 0, 43, 85
2, 3599, Note_on_c, 0, 43, 0
2, 3600, Note_on_c, 0, 43, 85
2, 3659, Note_on_c, 0, 43, 0
2, 3660, Note_on_c, 0, 43, 85
2, 3719, Note_on_c, 0, 43, 0
2, 3720, Note_on_c, 0, 45, 85
2, 3779, Note_on_c, 0, 45, 0
2, 3780, Note_on_c, 0, 47, 85
2, 3839, Note_on_c, 0, 47, 0
2, 3840, Note_on_c, 0, 48, 85
2, 4019, Note_on_c, 0, 48, 0
2, 4020, Note_on_c, 0, 48, 85
2, 4079, Note_on_c, 0, 48, 0
2, 4080, Note_on_c, 0, 48, 85
2, 4259, Note_on_c, 0, 48, 0
2, 4260, Note_on_c, 0, 48, 85
2, 4319, Note_on_c, 0, 48, 0
2, 4320, Note_on_c, 0, 48, 85
2, 4439, Note_on_c, 0, 48, 0
2, 4440, Note_on_c, 0, 52, 85
2, 4499, Note_on_c, 0, 52, 0
2, 4500, Note_on_c, 0, 55, 85
2, 4559, Note_on_c, 0, 55, 0
2, 4560, Note_on_c, 0, 52, 85
2, 4619, Note_on_c, 0, 52, 0
2, 4620, Note_on_c, 0, 48, 85
2, 4679, Note_on_c, 0, 48, 0
2, 4680, Note_on_c, 0, 45, 85
2, 4739, Note_on_c, 0, 45, 0
2, 4740, Note_on_c, 0, 42, 85
2, 4799, Note_on_c, 0, 42, 0
2, 4800, Note_on_c, 0, 43, 85
2, 4979, Note_on_c, 0, 43, 0
2, 4980, Note_on_c, 0, 43, 85
2, 5039, Note_on_c, 0, 43, 0
2, 5040, Note_on_c, 0, 43, 85
2, 5219, Note_on_c, 0, 43, 0
2, 5220, Note_on_c, 0, 43, 85
2, 5279, Note_on_c, 0, 43, 0
2, 5280, Note_on_c, 0, 43, 85
2, 5339, Note_on_c, 0, 43, 0
2, 5340, Note_on_c, 0, 43, 85
2, 5459, Note_on_c, 0, 43, 0
2, 5460, Note_on_c, 0, 43, 85
2, 5519, Note_on_c, 0, 43, 0
2, 5520, Note_on_c, 0, 47, 85
2, 5579, Note_on_c, 0, 47, 0
2, 5580, Note_on_c, 0, 50, 85
2, 5639, Note_on_c, 0, 50, 0
2, 5640, Note_on_c, 0, 52, 85
2, 5699, Note_on_c, 0, 52, 0
2, 5700, Note_on_c, 0, 51, 85
2, 5759, Note_on_c, 0, 51, 0
2, 5760, Note_on_c, 0, 50, 85
2, 5939, Note_on_c, 0, 50, 0
2, 5940, Note_on_c, 0, 50, 85
2, 5999, Note_on_c, 0, 50, 0
2, 6000, Note_on_c, 0, 50, 85
2, 6179, Note_on_c, 0, 50, 0
2, 6180, Note_on_c, 0, 50, 85
2, 6239, Note_on_c, 0, 50, 0
2, 6240, Note_on_c, 0, 50, 85
2, 6299, Note_on_c, 0, 50, 0
2, 6300, Note_on_c, 0, 50, 85
2, 6419, Note_on_c, 0, 50, 0
2, 6420, Note_on_c, 0, 50, 85
2, 6479, Note_on_c, 0, 50, 0
2, 6480, Note_on_c, 0, 50, 85
2, 6539, Note_on_c, 0, 50, 0
2, 6540, Note_on_c, 0, 50, 85
2, 6599, Note_on_c, 0, 50, 0
2, 6600, Note_on_c, 0, 47, 85
2, 6659, Note_on_c, 0, 47, 0
2, 6660, Note_on_c, 0, 45, 85
2, 6719, Note_on_c, 0, 45, 0
2, 6720, Note_on_c, 0, 48, 85
2, 6899, Note_on_c, 0, 48, 0
2, 6900, Note_on_c, 0, 48, 85
2, 6959, Note_on_c, 0, 48, 0
2, 6960, Note_on_c, 0, 48, 85
2, 7139, Note_on_c, 0, 48, 0
2, 7140, Note_on_c, 0, 48, 85
2, 7199, Note_on_c, 0, 48, 0
2, 7200, Note_on_c, 0, 36, 85
2, 7259, Note_on_c, 0, 36, 0
2, 7260, Note_on_c, 0, 36, 85
2, 7319, Note_on_c, 0, 36, 0
2, 7320, Note_on_c, 0, 40, 85
2, 7379, Note_on_c, 0, 40, 0
2, 7380, Note_on_c, 0, 40, 85
2, 7439, Note_on_c, 0, 40, 0
2, 7440, Note_on_c, 0, 41, 85
2, 7499, Note_on_c, 0, 41, 0
2, 7500, Note_on_c, 0, 41, 85
2, 7559, Note_on_c, 0, 41, 0
2, 7560, Note_on_c, 0, 42, 85
2, 7619, Note_on_c, 0, 42, 0
2, 7620, Note_on_c, 0, 42, 85
2, 7679, Note_on_c, 0, 42, 0
2, 7680, Note_on_c, 0, 43, 85
2, 7739, Note_on_c, 0, 43, 0
2, 7740, Note_on_c, 0, 43, 85
2, 7859, Note_on_c, 0, 43, 0
2, 7860, Note_on_c, 0, 43, 85
2, 7919, Note_on_c, 0, 43, 0
2, 7920, Note_on_c, 0, 43, 85
2, 8099, Note_on_c, 0, 43, 0
2, 8100, Note_on_c, 0, 43, 85
2, 8159, Note_on_c, 0, 43, 0
2, 8160, Note_on_c, 0, 43, 85
2, 8219, Note_on_c, 0, 43, 0
2, 8220, Note_on_c, 0, 43, 85
2, 8339, Note_on_c, 0, 43, 0
2, 8340, Note_on_c, 0, 43, 85
2, 8399, Note_on_c, 0, 43, 0
2, 8400, Note_on_c, 0, 43, 85
2, 8459, Note_on_c, 0, 43, 0
2, 8460, Note_on_c, 0, 40, 85
2, 8519, Note_on_c, 0, 40, 0
2, 8520, Note_on_c, 0, 41, 85
2, 8579, Note_on_c, 0, 41, 0
2, 8580, Note_on_c, 0, 42, 85
2, 8639, Note_on_c, 0, 42, 0
2, 8640, Note_on_c, 0, 43, 85
2, 8699, Note_on_c, 0, 43, 0
2, 8700, Note_on_c, 0, 43, 85
2, 8819, Note_on_c, 0, 43, 0
2, 8820, Note_on_c, 0, 43, 85
2, 8879, Note_on_c, 0, 43, 0
2, 8880, Note_on_c, 0, 43, 85
2, 9059, Note_on_c, 0, 43, 0
2, 9060, Note_on_c, 0, 43, 85
2, 9119, Note_on_c, 0, 43, 0
2, 9120, Note_on_c, 0, 43, 85
2, 9179, Note_on_c, 0, 43, 0
2, 9180, Note_on_c, 0, 43, 85
2, 9299, Note_on_c, 0, 43, 0
2, 9300, Note_on_c, 0, 43, 85
2, 9359, Note_on_c, 0, 43, 0
2, 9360, Note_on_c, 0, 43, 85
2, 9419, Note_on_c, 0, 43, 0
2, 9420, Note_on_c, 0, 40, 85
2, 9479, Note_on_c, 0, 40, 0
2, 9480, Note_on_c, 0, 41, 85
2, 9539, Note_on_c, 0, 41, 0
2, 9540, Note_on_c, 0, 42, 85
2, 9599, Note_on_c, 0, 42, 0
2, 9600, Note_on_c, 0, 43, 85
2, 9659, Note_on_c, 0, 43, 0
2, 9660, Note_on_c, 0, 43, 85
2, 9779, Note_on_c, 0, 43, 0
2, 9780, Note_on_c, 0, 43, 85
2, 9839, Note_on_c, 0, 43, 0
2, 9840, Note_on_c, 0, 43, 85
2, 10019, Note_on_c, 0, 43, 0
2, 10020, Note_on_c, 0, 43, 85
2, 10079, Note_on_c, 0, 43, 0
2, 10080, Note_on_c, 0, 43, 85
2, 10139, Note_on_c, 0, 43, 0
2, 10140, Note_on_c, 0, 43, 85
2, 10259, Note_on_c, 0, 43, 0
2, 10260, Note_on_c, 0, 43, 85
2, 10319, Note_on_c, 0, 43, 0
2, 10320, Note_on_c, 0, 43, 85
2, 10379, Note_on_c, 0, 43, 0
2, 10380, Note_on_c, 0, 40, 85
2, 10439, Note_on_c, 0, 40, 0
2, 10440, Note_on_c, 0, 41, 85
2, 10499, Note_on_c, 0, 41, 0
2, 10500, Note_on_c, 0, 42, 85
2, 10559, Note_on_c, 0, 42, 0
2, 10560, Note_on_c, 0, 43, 85
2, 10619, Note_on_c, 0, 43, 0
2, 11040, Note_on_c, 0, 60, 85
2, 11040, Note_on_c, 0, 55, 85
2, 11099, Note_on_c, 0, 55, 0
2, 11099, Note_on_c, 0, 60, 0
2, 11100, Note_on_c, 0, 55, 85
2, 11100, Note_on_c, 0, 50, 85
2, 11159, Note_on_c, 0, 50, 0
2, 11159, Note_on_c, 0, 55, 0
2, 11160, Note_on_c, 0, 60, 85
2, 11160, Note_on_c, 0, 55, 85
2, 11219, Note_on_c, 0, 55, 0
2, 11219, Note_on_c, 0, 60, 0
2, 11220, Note_on_c, 0, 55, 85
2, 11220, Note_on_c, 0, 50, 85
2, 11459, Note_on_c, 0, 50, 0
2, 11459, Note_on_c, 0, 55, 0
2, 11520, Note_on_c, 0, 43, 85
2, 11699, Note_on_c, 0, 43, 0
2, 11700, Note_on_c, 0, 43, 85
2, 11759, Note_on_c, 0, 43, 0
2, 11760, Note_on_c, 0, 43, 85
2, 11939, Note_on_c, 0, 43, 0
2, 11940, Note_on_c, 0, 43, 85
2, 11999, Note_on_c, 0, 43, 0
2, 12000, Note_on_c, 0, 43, 85
2, 12059, Note_on_c, 0, 43, 0
2, 12060, Note_on_c, 0, 43, 85
2, 12179, Note_on_c, 0, 43, 0
2, 12180, Note_on_c, 0, 43, 85
2, 12239, Note_on_c, 0, 43, 0
2, 12240, Note_on_c, 0, 43, 85
2, 12299, Note_on_c, 0, 43, 0
2, 12300, Note_on_c, 0, 40, 85
2, 12359, Note_on_c, 0, 40, 0
2, 12360, Note_on_c, 0, 41, 85
2, 12419, Note_on_c, 0, 41, 0
2, 12420, Note_on_c, 0, 42, 85
2, 12479, Note_on_c, 0, 42, 0
2, 12480, Note_on_c, 0, 43, 85
2, 12659, Note_on_c, 0, 43, 0
2, 12660, Note_on_c, 0, 43, 85
2, 12719, Note_on_c, 0, 43, 0
2, 12720, Note_on_c, 0, 43, 85
2, 12899, Note_on_c, 0, 43, 0
2, 12900, Note_on_c, 0, 43, 85
2, 12959, Note_on_c, 0, 43, 0
2, 12960, Note_on_c, 0, 43, 85
2, 13019, Note_on_c, 0, 43, 0
2, 13020, Note_on_c, 0, 43, 85
2, 13139, Note_on_c, 0, 43, 0
2, 13140, Note_on_c, 0, 43, 85
2, 13199, Note_on_c, 0, 43, 0
2, 13200, Note_on_c, 0, 43, 85
2, 13259, Note_on_c, 0, 43, 0
2, 13260, Note_on_c, 0, 43, 85
2, 13319, Note_on_c, 0, 43, 0
2, 13320, Note_on_c, 0, 45, 85
2, 13379, Note_on_c, 0, 45, 0
2, 13380, Note_on_c, 0, 47, 85
2, 13439, Note_on_c, 0, 47, 0
2, 13440, Note_on_c, 0, 48, 85
2, 13619, Note_on_c, 0, 48, 0
2, 13620, Note_on_c, 0, 48, 85
2, 13679, Note_on_c, 0, 48, 0
2, 13680, Note_on_c, 0, 48, 85
2, 13859, Note_on_c, 0, 48, 0
2, 13860, Note_on_c, 0, 48, 85
2, 13919, Note_on_c, 0, 48, 0
2, 13920, Note_on_c, 0, 48, 85
2, 14039, Note_on_c, 0, 48, 0
2, 14040, Note_on_c, 0, 52, 85
2, 14099, Note_on_c, 0, 52, 0
2, 14100, Note_on_c, 0, 55, 85
2, 14159, Note_on_c, 0, 55, 0
2, 14160, Note_on_c, 0, 52, 85
2, 14219, Note_on_c, 0, 52, 0
2, 14220, Note_on_c, 0, 48, 85
2, 14279, Note_on_c, 0, 48, 0
2, 14280, Note_on_c, 0, 45, 85
2, 14339, Note_on_c, 0, 45, 0
2, 14340, Note_on_c, 0, 42, 85
2, 14399, Note_on_c, 0, 42, 0
2, 14400, Note_on_c, 0, 43, 85
2, 14579, Note_on_c, 0, 43, 0
2, 14580, Note_on_c, 0, 43, 85
2, 14639, Note_on_c, 0, 43, 0
2, 14640, Note_on_c, 0, 43, 85
2, 14819, Note_on_c, 0, 43, 0
2, 14820, Note_on_c, 0, 43, 85
2, 14879, Note_on_c, 0, 43, 0
2, 14880, Note_on_c, 0, 43, 85
2, 14939, Note_on_c, 0, 43, 0
2, 14940, Note_on_c, 0, 43, 85
2, 15059, Note_on_c, 0, 43, 0
2, 15060, Note_on_c, 0, 43, 85
2, 15119, Note_on_c, 0, 43, 0
2, 15120, Note_on_c, 0, 47, 85
2, 15179, Note_on_c, 0, 47, 0
2, 15180, Note_on_c, 0, 50, 85
2, 15239, Note_on_c, 0, 50, 0
2, 15240, Note_on_c, 0, 52, 85
2, 15299, Note_on_c, 0, 52, 0
2, 15300, Note_on_c, 0, 51, 85
2, 15359, Note_on_c, 0, 51, 0
2, 15360, Note_on_c, 0, 50, 85
2, 15539, Note_on_c, 0, 50, 0
2, 15540, Note_on_c, 0, 50, 85
2, 15599, Note_on_c, 0, 50, 0
2, 15600, Note_on_c, 0, 50, 85
2, 15779, Note_on_c, 0, 50, 0
2, 15780, Note_on_c, 0, 50, 85
2, 15839, Note_on_c, 0, 50, 0
2, 15840, Note_on_c, 0, 50, 85
2, 15899, Note_on_c, 0, 50, 0
2, 15900, Note_on_c, 0, 50, 85
2, 16019, Note_on_c, 0, 50, 0
2, 16020, Note_on_c, 0, 50, 85
2, 16079, Note_on_c, 0, 50, 0
2, 16080, Note_on_c, 0, 50, 85
2, 16139, Note_on_c, 0, 50, 0
2, 16140, Note_on_c, 0, 50, 85
2, 16199, Note_on_c, 0, 50, 0
2, 16200, Note_on_c, 0, 47, 85
2, 16259, Note_on_c, 0, 47, 0
2, 16260, Note_on_c, 0, 45, 85
2, 16319, Note_on_c, 0, 45, 0
2, 16320, Note_on_c, 0, 48, 85
2, 16499, Note_on_c, 0, 48, 0
2, 16500, Note_on_c, 0, 48, 85
2, 16559, Note_on_c, 0, 48, 0
2, 16560, Note_on_c, 0, 48, 85
2, 16739, Note_on_c, 0, 48, 0
2, 16740, Note_on_c, 0, 48, 85
2, 16799, Note_on_c, 0, 48, 0
2, 16800, Note_on_c, 0, 36, 85
2, 16859, Note_on_c, 0, 36, 0
2, 16860, Note_on_c, 0, 36, 85
2, 16919, Note_on_c, 0, 36, 0
2, 16920, Note_on_c, 0, 40, 85
2, 16979, Note_on_c, 0, 40, 0
2, 16980, Note_on_c, 0, 40, 85
2, 17039, Note_on_c, 0, 40, 0
2, 17040, Note_on_c, 0, 41, 85
2, 17099, Note_on_c, 0, 41, 0
2, 17100, Note_on_c, 0, 41, 85
2, 17159, Note_on_c, 0, 41, 0
2, 17160, Note_on_c, 0, 42, 85
2, 17219, Note_on_c, 0, 42, 0
2, 17220, Note_on_c, 0, 42, 85
2, 17279, Note_on_c, 0, 42, 0
2, 17280, Note_on_c, 0, 43, 85
2, 17339, Note_on_c, 0, 43, 0
2, 17340, Note_on_c, 0, 43, 85
2, 17459, Note_on_c, 0, 43, 0
2, 17460, Note_on_c, 0, 43, 85
2, 17519, Note_on_c, 0, 43, 0
2, 17520, Note_on_c, 0, 43, 85
2, 17699, Note_on_c, 0, 43, 0
2, 17700, Note_on_c, 0, 43, 85
2, 17759, Note_on_c, 0, 43, 0
2, 17760, Note_on_c, 0, 43, 85
2, 17819, Note_on_c, 0, 43, 0
2, 17820, Note_on_c, 0, 43, 85
2, 17939, Note_on_c, 0, 43, 0
2, 17940, Note_on_c, 0, 43, 85
2, 17999, Note_on_c, 0, 43, 0
2, 18000, Note_on_c, 0, 43, 85
2, 18059, Note_on_c, 0, 43, 0
2, 18060, Note_on_c, 0, 40, 85
2, 18119, Note_on_c, 0, 40, 0
2, 18120, Note_on_c, 0, 41, 85
2, 18179, Note_on_c, 0, 41, 0
2, 18180, Note_on_c, 0, 42, 85
2, 18239, Note_on_c, 0, 42, 0
2, 18240, Note_on_c, 0, 43, 85
2, 18299, Note_on_c, 0, 43, 0
2, 18300, Note_on_c, 0, 43, 85
2, 18419, Note_on_c, 0, 43, 0
2, 18420, Note_on_c, 0, 43, 85
2, 18479, Note_on_c, 0, 43, 0
2, 18480, Note_on_c, 0, 43, 85
2, 18659, Note_on_c, 0, 43, 0
2, 18660, Note_on_c, 0, 43, 85
2, 18719, Note_on_c, 0, 43, 0
2, 18720, Note_on_c, 0, 43, 85
2, 18779, Note_on_c, 0, 43, 0
2, 18780, Note_on_c, 0, 43, 85
2, 18899, Note_on_c, 0, 43, 0
2, 18900, Note_on_c, 0, 43, 85
2, 18959, Note_on_c, 0, 43, 0
2, 18960, Note_on_c, 0, 43, 85
2, 19019, Note_on_c, 0, 43, 0
2, 19020, Note_on_c, 0, 40, 85
2, 19079, Note_on_c, 0, 40, 0
2, 19080, Note_on_c, 0, 41, 85
2, 19139, Note_on_c, 0, 41, 0
2, 19140, Note_on_c, 0, 42, 85
2, 19199, Note_on_c, 0, 42, 0
2, 19200, Note_on_c, 0, 43, 85
2, 19259, Note_on_c, 0, 43, 0
2, 19260, Note_on_c, 0, 43, 85
2, 19379, Note_on_c, 0, 43, 0
2, 19380, Note_on_c, 0, 43, 85
2, 19439, Note_on_c, 0, 43, 0
2, 19440, Note_on_c, 0, 43, 85
2, 19619, Note_on_c, 0, 43, 0
2, 19620, Note_on_c, 0, 43, 85
2, 19679, Note_on_c, 0, 43, 0
2, 19680, Note_on_c, 0, 43, 85
2, 19739, Note_on_c, 0, 43, 0
2, 19740, Note_on_c, 0, 43, 85
2, 19859, Note_on_c, 0, 43, 0
2, 19860, Note_on_c, 0, 43, 85
2, 19919, Note_on_c, 0, 43, 0
2, 19920, Note_on_c, 0, 43, 85
2, 19979, Note_on_c, 0, 43, 0
2, 19980, Note_on_c, 0, 40, 85
2, 20039, Note_on_c, 0, 40, 0
2, 20040, Note_on_c, 0, 41, 85
2, 20099, Note_on_c, 0, 41, 0
2, 20100, Note_on_c, 0, 42, 85
2, 20159, Note_on_c, 0, 42, 0
2, 20160, Note_on_c, 0, 43, 85
2, 20219, Note_on_c, 0, 43, 0
2, 20640, Note_on_c, 0, 60, 85
2, 20640, Note_on_c, 0, 55, 85
2, 20699, Note_on_c, 0, 55, 0
2, 20699, Note_on_c, 0, 60, 0
2, 20700, Note_on_c, 0, 55, 85
2, 20700, Note_on_c, 0, 50, 85
2, 20759, Note_on_c, 0, 50, 0
2, 20759, Note_on_c, 0, 55, 0
2, 20760, Note_on_c, 0, 60, 85
2, 20760, Note_on_c, 0, 55, 85
2, 20819, Note_on_c, 0, 55, 0
2, 20819, Note_on_c, 0, 60, 0
2, 20820, Note_on_c, 0, 55, 85
2, 20820, Note_on_c, 0, 50, 85
2, 21059, Note_on_c, 0, 50, 0
2, 21059, Note_on_c, 0, 55, 0
2, 21120, Note_on_c, 0, 43, 85
2, 21299, Note_on_c, 0, 43, 0
2, 21300, Note_on_c, 0, 43, 85
2, 21359, Note_on_c, 0, 43, 0
2, 21360, Note_on_c, 0, 43, 85
2, 21419, Note_on_c, 0, 43, 0
2, 21420, Note_on_c, 0, 43, 85
2, 21539, Note_on_c, 0, 43, 0
2, 21540, Note_on_c, 0, 43, 85
2, 21599, Note_on_c, 0, 43, 0
2, 21600, Note_on_c, 0, 43, 85
2, 21659, Note_on_c, 0, 43, 0
2, 21660, Note_on_c, 0, 43, 85
2, 21779, Note_on_c, 0, 43, 0
2, 21780, Note_on_c, 0, 43, 85
2, 21839, Note_on_c, 0, 43, 0
2, 21840, Note_on_c, 0, 43, 85
2, 21899, Note_on_c, 0, 43, 0
2, 21900, Note_on_c, 0, 40, 85
2, 21959, Note_on_c, 0, 40, 0
2, 21960, Note_on_c, 0, 41, 85
2, 22019, Note_on_c, 0, 41, 0
2, 22020, Note_on_c, 0, 42, 85
2, 22079, Note_on_c, 0, 42, 0
2, 22080, Note_on_c, 0, 43, 85
2, 22259, Note_on_c, 0, 43, 0
2, 22260, Note_on_c, 0, 43, 85
2, 22319, Note_on_c, 0, 43, 0
2, 22320, Note_on_c, 0, 43, 85
2, 22379, Note_on_c, 0, 43, 0
2, 22380, Note_on_c, 0, 43, 85
2, 22499, Note_on_c, 0, 43, 0
2, 22500, Note_on_c, 0, 43, 85
2, 22559, Note_on_c, 0, 43, 0
2, 22560, Note_on_c, 0, 43, 85
2, 22619, Note_on_c, 0, 43, 0
2, 22620, Note_on_c, 0, 43, 85
2, 22739, Note_on_c, 0, 43, 0
2, 22740, Note_on_c, 0, 43, 85
2, 22799, Note_on_c, 0, 43, 0
2, 22800, Note_on_c, 0, 43, 85
2, 22859, Note_on_c, 0, 43, 0
2, 22860, Note_on_c, 0, 43, 85
2, 22919, Note_on_c, 0, 43, 0
2, 22920, Note_on_c, 0, 45, 85
2, 22979, Note_on_c, 0, 45, 0
2, 22980, Note_on_c, 0, 47, 85
2, 23039, Note_on_c, 0, 47, 0
2, 23040, Note_on_c, 0, 48, 85
2, 23219, Note_on_c, 0, 48, 0
2, 23220, Note_on_c, 0, 48, 85
2, 23279, Note_on_c, 0, 48, 0
2, 23280, Note_on_c, 0, 48, 85
2, 23339, Note_on_c, 0, 48, 0
2, 23340, Note_on_c, 0, 48, 85
2, 23459, Note_on_c, 0, 48, 0
2, 23460, Note_on_c, 0, 48, 85
2, 23519, Note_on_c, 0, 48, 0
2, 23520, Note_on_c, 0, 48, 85
2, 23579, Note_on_c, 0, 48, 0
2, 23580, Note_on_c, 0, 48, 85
2, 23639, Note_on_c, 0, 48, 0
2, 23640, Note_on_c, 0, 40, 85
2, 23699, Note_on_c, 0, 40, 0
2, 23700, Note_on_c, 0, 45, 85
2, 23759, Note_on_c, 0, 45, 0
2, 23760, Note_on_c, 0, 43, 85
2, 23819, Note_on_c, 0, 43, 0
2, 23820, Note_on_c, 0, 40, 85
2, 23879, Note_on_c, 0, 40, 0
2, 23880, Note_on_c, 0, 41, 85
2, 23939, Note_on_c, 0, 41, 0
2, 23940, Note_on_c, 0, 42, 85
2, 23999, Note_on_c, 0, 42, 0
2, 24000, Note_on_c, 0, 43, 85
2, 24179, Note_on_c, 0, 43, 0
2, 24180, Note_on_c, 0, 43, 85
2, 24239, Note_on_c, 0, 43, 0
2, 24240, Note_on_c, 0, 43, 85
2, 24299, Note_on_c, 0, 43, 0
2, 24300, Note_on_c, 0, 43, 85
2, 24419, Note_on_c, 0, 43, 0
2, 24420, Note_on_c, 0, 43, 85
2, 24479, Note_on_c, 0, 43, 0
2, 24480, Note_on_c, 0, 43, 85
2, 24539, Note_on_c, 0, 43, 0
2, 24540, Note_on_c, 0, 43, 85
2, 24659, Note_on_c, 0, 43, 0
2, 24660, Note_on_c, 0, 43, 85
2, 24719, Note_on_c, 0, 43, 0
2, 24720, Note_on_c, 0, 47, 85
2, 24779, Note_on_c, 0, 47, 0
2, 24780, Note_on_c, 0, 50, 85
2, 24839, Note_on_c, 0, 50, 0
2, 24840, Note_on_c, 0, 52, 85
2, 24899, Note_on_c, 0, 52, 0
2, 24900, Note_on_c, 0, 47, 85
2, 24959, Note_on_c, 0, 47, 0
2, 24960, Note_on_c, 0, 50, 85
2, 25139, Note_on_c, 0, 50, 0
2, 25140, Note_on_c, 0, 50, 85
2, 25199, Note_on_c, 0, 50, 0
2, 25200, Note_on_c, 0, 50, 85
2, 25379, Note_on_c, 0, 50, 0
2, 25380, Note_on_c, 0, 50, 85
2, 25439, Note_on_c, 0, 50, 0
2, 25440, Note_on_c, 0, 50, 85
2, 25499, Note_on_c, 0, 50, 0
2, 25500, Note_on_c, 0, 50, 85
2, 25619, Note_on_c, 0, 50, 0
2, 25620, Note_on_c, 0, 50, 85
2, 25679, Note_on_c, 0, 50, 0
2, 25680, Note_on_c, 0, 50, 85
2, 25739, Note_on_c, 0, 50, 0
2, 25740, Note_on_c, 0, 43, 85
2, 25799, Note_on_c, 0, 43, 0
2, 25800, Note_on_c, 0, 45, 85
2, 25859, Note_on_c, 0, 45, 0
2, 25860, Note_on_c, 0, 47, 85
2, 25919, Note_on_c, 0, 47, 0
2, 25920, Note_on_c, 0, 48, 85
2, 26039, Note_on_c, 0, 48, 0
2, 26040, Note_on_c, 0, 48, 85
2, 26099, Note_on_c, 0, 48, 0
2, 26100, Note_on_c, 0, 48, 85
2, 26159, Note_on_c, 0, 48, 0
2, 26160, Note_on_c, 0, 48, 85
2, 26219, Note_on_c, 0, 48, 0
2, 26220, Note_on_c, 0, 48, 85
2, 26279, Note_on_c, 0, 48, 0
2, 26280, Note_on_c, 0, 48, 85
2, 26339, Note_on_c, 0, 48, 0
2, 26340, Note_on_c, 0, 48, 85
2, 26399, Note_on_c, 0, 48, 0
2, 26400, Note_on_c, 0, 48, 85
2, 26459, Note_on_c, 0, 48, 0
2, 26460, Note_on_c, 0, 48, 85
2, 26519, Note_on_c, 0, 48, 0
2, 26520, Note_on_c, 0, 40, 85
2, 26579, Note_on_c, 0, 40, 0
2, 26580, Note_on_c, 0, 40, 85
2, 26639, Note_on_c, 0, 40, 0
2, 26640, Note_on_c, 0, 41, 85
2, 26699, Note_on_c, 0, 41, 0
2, 26700, Note_on_c, 0, 41, 85
2, 26759, Note_on_c, 0, 41, 0
2, 26760, Note_on_c, 0, 42, 85
2, 26819, Note_on_c, 0, 42, 0
2, 26820, Note_on_c, 0, 42, 85
2, 26879, Note_on_c, 0, 42, 0
2, 26880, Note_on_c, 0, 43, 85
2, 26939, Note_on_c, 0, 43, 0
2, 26940, Note_on_c, 0, 43, 85
2, 27059, Note_on_c, 0, 43, 0
2, 27060, Note_on_c, 0, 43, 85
2, 27119, Note_on_c, 0, 43, 0
2, 27120, Note_on_c, 0, 43, 85
2, 27299, Note_on_c, 0, 43, 0
2, 27300, Note_on_c, 0, 43, 85
2, 27359, Note_on_c, 0, 43, 0
2, 27360, Note_on_c, 0, 43, 85
2, 27419, Note_on_c, 0, 43, 0
2, 27420, Note_on_c, 0, 43, 85
2, 27539, Note_on_c, 0, 43, 0
2, 27540, Note_on_c, 0, 43, 85
2, 27599, Note_on_c, 0, 43, 0
2, 27600, Note_on_c, 0, 43, 85
2, 27659, Note_on_c, 0, 43, 0
2, 27660, Note_on_c, 0, 40, 85
2, 27719, Note_on_c, 0, 40, 0
2, 27720, Note_on_c, 0, 41, 85
2, 27779, Note_on_c, 0, 41, 0
2, 27780, Note_on_c, 0, 42, 85
2, 27839, Note_on_c, 0, 42, 0
2, 27840, Note_on_c, 0, 43, 85
2, 27899, Note_on_c, 0, 43, 0
2, 27900, Note_on_c, 0, 43, 85
2, 28019, Note_on_c, 0, 43, 0
2, 28020, Note_on_c, 0, 43, 85
2, 28079, Note_on_c, 0, 43, 0
2, 28080, Note_on_c, 0, 43, 85
2, 28259, Note_on_c, 0, 43, 0
2, 28260, Note_on_c, 0, 43, 85
2, 28319, Note_on_c, 0, 43, 0
2, 28320, Note_on_c, 0, 40, 85
2, 28379, Note_on_c, 0, 40, 0
2, 28380, Note_on_c, 0, 38, 85
2, 28439, Note_on_c, 0, 38, 0
2, 28440, Note_on_c, 0, 40, 85
2, 28499, Note_on_c, 0, 40, 0
2, 28500, Note_on_c, 0, 38, 85
2, 28559, Note_on_c, 0, 38, 0
2, 28560, Note_on_c, 0, 41, 85
2, 28619, Note_on_c, 0, 41, 0
2, 28620, Note_on_c, 0, 38, 85
2, 28679, Note_on_c, 0, 38, 0
2, 28680, Note_on_c, 0, 42, 85
2, 28739, Note_on_c, 0, 42, 0
2, 28740, Note_on_c, 0, 38, 85
2, 28799, Note_on_c, 0, 38, 0
2, 28800, Note_on_c, 0, 43, 85
2, 28859, Note_on_c, 0, 43, 0
2, 28860, Note_on_c, 0, 43, 85
2, 28979, Note_on_c, 0, 43, 0
2, 28980, Note_on_c, 0, 43, 85
2, 29039, Note_on_c, 0, 43, 0
2, 29040, Note_on_c, 0, 43, 85
2, 29219, Note_on_c, 0, 43, 0
2, 29220, Note_on_c, 0, 43, 85
2, 29279, Note_on_c, 0, 43, 0
2, 29280, Note_on_c, 0, 43, 85
2, 29339, Note_on_c, 0, 43, 0
2, 29340, Note_on_c, 0, 43, 85
2, 29459, Note_on_c, 0, 43, 0
2, 29460, Note_on_c, 0, 43, 85
2, 29519, Note_on_c, 0, 43, 0
2, 29520, Note_on_c, 0, 43, 85
2, 29579, Note_on_c, 0, 43, 0
2, 29580, Note_on_c, 0, 40, 85
2, 29639, Note_on_c, 0, 40, 0
2, 29640, Note_on_c, 0, 41, 85
2, 29699, Note_on_c, 0, 41, 0
2, 29700, Note_on_c, 0, 42, 85
2, 29759, Note_on_c, 0, 42, 0
2, 29760, Note_on_c, 0, 43, 85
2, 29819, Note_on_c, 0, 43, 0
2, 30240, Note_on_c, 0, 60, 85
2, 30240, Note_on_c, 0, 55, 85
2, 30299, Note_on_c, 0, 55, 0
2, 30299, Note_on_c, 0, 60, 0
2, 30300, Note_on_c, 0, 55, 85
2, 30300, Note_on_c, 0, 50, 85
2, 30359, Note_on_c, 0, 50, 0
2, 30359, Note_on_c, 0, 55, 0
2, 30360, Note_on_c, 0, 60, 85
2, 30360, Note_on_c, 0, 55, 85
2, 30419, Note_on_c, 0, 55, 0
2, 30419, Note_on_c, 0, 60, 0
2, 30420, Note_on_c, 0, 55, 85
2, 30420, Note_on_c, 0, 50, 85
2, 30659, Note_on_c, 0, 50, 0
2, 30659, Note_on_c, 0, 55, 0
2, 30720, Note_on_c, 0, 43, 85
2, 30779, Note_on_c, 0, 43, 0
2, 30780, Note_on_c, 0, 43, 85
2, 30899, Note_on_c, 0, 43, 0
2, 30900, Note_on_c, 0, 43, 85
2, 30959, Note_on_c, 0, 43, 0
2, 30960, Note_on_c, 0, 43, 85
2, 31139, Note_on_c, 0, 43, 0
2, 31140, Note_on_c, 0, 43, 85
2, 31199, Note_on_c, 0, 43, 0
2, 31200, Note_on_c, 0, 43, 85
2, 31259, Note_on_c, 0, 43, 0
2, 31260, Note_on_c, 0, 43, 85
2, 31379, Note_on_c, 0, 43, 0
2, 31380, Note_on_c, 0, 43, 85
2, 31439, Note_on_c, 0, 43, 0
2, 31440, Note_on_c, 0, 43, 85
2, 31499, Note_on_c, 0, 43, 0
2, 31500, Note_on_c, 0, 40, 85
2, 31559, Note_on_c, 0, 40, 0
2, 31560, Note_on_c, 0, 41, 85
2, 31619, Note_on_c, 0, 41, 0
2, 31620, Note_on_c, 0, 42, 85
2, 31679, Note_on_c, 0, 42, 0
2, 31680, Note_on_c, 0, 43, 85
2, 31739, Note_on_c, 0, 43, 0
2, 31740, Note_on_c, 0, 43, 85
2, 31859, Note_on_c, 0, 43, 0
2, 31860, Note_on_c, 0, 43, 85
2, 31919, Note_on_c, 0, 43, 0
2, 31920, Note_on_c, 0, 43, 85
2, 32099, Note_on_c, 0, 43, 0
2, 32100, Note_on_c, 0, 43, 85
2, 32159, Note_on_c, 0, 43, 0
2, 32160, Note_on_c, 0, 40, 85
2, 32219, Note_on_c, 0, 40, 0
2, 32220, Note_on_c, 0, 38, 85
2, 32279, Note_on_c, 0, 38, 0
2, 32280, Note_on_c, 0, 40, 85
2, 32339, Note_on_c, 0, 40, 0
2, 32340, Note_on_c, 0, 38, 85
2, 32399, Note_on_c, 0, 38, 0
2, 32400, Note_on_c, 0, 41, 85
2, 32459, Note_on_c, 0, 41, 0
2, 32460, Note_on_c, 0, 38, 85
2, 32519, Note_on_c, 0, 38, 0
2, 32520, Note_on_c, 0, 42, 85
2, 32579, Note_on_c, 0, 42, 0
2, 32580, Note_on_c, 0, 38, 85
2, 32639, Note_on_c, 0, 38, 0
2, 32640, Note_on_c, 0, 43, 85
2, 32699, Note_on_c, 0, 43, 0
2, 32700, Note_on_c, 0, 43, 85
2, 32819, Note_on_c, 0, 43, 0
2, 32820, Note_on_c, 0, 43, 85
2, 32879, Note_on_c, 0, 43, 0
2, 32880, Note_on_c, 0, 43, 85
2, 33059, Note_on_c, 0, 43, 0
2, 33060, Note_on_c, 0, 43, 85
2, 33119, Note_on_c, 0, 43, 0
2, 33120, Note_on_c, 0, 43, 85
2, 33179, Note_on_c, 0, 43, 0
2, 33180, Note_on_c, 0, 43, 85
2, 33299, Note_on_c, 0, 43, 0
2, 33300, Note_on_c, 0, 43, 85
2, 33359, Note_on_c, 0, 43, 0
2, 33360, Note_on_c, 0, 43, 85
2, 33419, Note_on_c, 0, 43, 0
2, 33420, Note_on_c, 0, 40, 85
2, 33479, Note_on_c, 0, 40, 0
2, 33480, Note_on_c, 0, 41, 85
2, 33539, Note_on_c, 0, 41, 0
2, 33540, Note_on_c, 0, 42, 85
2, 33599, Note_on_c, 0, 42, 0
2, 33600, Note_on_c, 0, 43, 85
2, 33659, Note_on_c, 0, 43, 0
2, 34080, Note_on_c, 0, 60, 85
2, 34080, Note_on_c, 0, 55, 85
2, 34139, Note_on_c, 0, 55, 0
2, 34139, Note_on_c, 0, 60, 0
2, 34140, Note_on_c, 0, 55, 85
2, 34140, Note_on_c, 0, 50, 85
2, 34199, Note_on_c, 0, 50, 0
2, 34199, Note_on_c, 0, 55, 0
2, 34200, Note_on_c, 0, 60, 85
2, 34200, Note_on_c, 0, 55, 85
2, 34259, Note_on_c, 0, 55, 0
2, 34259, Note_on_c, 0, 60, 0
2, 34260, Note_on_c, 0, 55, 85
2, 34260, Note_on_c, 0, 50, 85
2, 34499, Note_on_c, 0, 50, 0
2, 34499, Note_on_c, 0, 55, 0
2, 34560, Note_on_c, 0, 43, 85
2, 34619, Note_on_c, 0, 43, 0
2, 34620, Note_on_c, 0, 43, 85
2, 34739, Note_on_c, 0, 43, 0
2, 34740, Note_on_c, 0, 43, 85
2, 34799, Note_on_c, 0, 43, 0
2, 34800, Note_on_c, 0, 43, 85
2, 34979, Note_on_c, 0, 43, 0
2, 34980, Note_on_c, 0, 43, 85
2, 35039, Note_on_c, 0, 43, 0
2, 35040, Note_on_c, 0, 43, 85
2, 35099, Note_on_c, 0, 43, 0
2, 35100, Note_on_c, 0, 43, 85
2, 35219, Note_on_c, 0, 43, 0
2, 35220, Note_on_c, 0, 43, 85
2, 35279, Note_on_c, 0, 43, 0
2, 35280, Note_on_c, 0, 43, 85
2, 35339, Note_on_c, 0, 43, 0
2, 35340, Note_on_c, 0, 40, 85
2, 35399, Note_on_c, 0, 40, 0
2, 35400, Note_on_c, 0, 41, 85
2, 35459, Note_on_c, 0, 41, 0
2, 35460, Note_on_c, 0, 42, 85
2, 35519, Note_on_c, 0, 42, 0
2, 35520, Note_on_c, 0, 43, 85
2, 35579, Note_on_c, 0, 43, 0
2, 35580, Note_on_c, 0, 43, 85
2, 35699, Note_on_c, 0, 43, 0
2, 35700, Note_on_c, 0, 43, 85
2, 35759, Note_on_c, 0, 43, 0
2, 35760, Note_on_c, 0, 43, 85
2, 35939, Note_on_c, 0, 43, 0
2, 35940, Note_on_c, 0, 43, 85
2, 35999, Note_on_c, 0, 43, 0
2, 36000, Note_on_c, 0, 40, 85
2, 36059, Note_on_c, 0, 40, 0
2, 36060, Note_on_c, 0, 38, 85
2, 36119, Note_on_c, 0, 38, 0
2, 36120, Note_on_c, 0, 40, 85
2, 36179, Note_on_c, 0, 40, 0
2, 36180, Note_on_c, 0, 38, 85
2, 36239, Note_on_c, 0, 38, 0
2, 36240, Note_on_c, 0, 41, 85
2, 36299, Note_on_c, 0, 41, 0
2, 36300, Note_on_c, 0, 38, 85
2, 36359, Note_on_c, 0, 38, 0
2, 36360, Note_on_c, 0, 42, 85
2, 36419, Note_on_c, 0, 42, 0
2, 36420, Note_on_c, 0, 38, 85
2, 36479, Note_on_c, 0, 38, 0
2, 36480, Note_on_c, 0, 43, 85
2, 36539, Note_on_c, 0, 43, 0
2, 36540, Note_on_c, 0, 43, 85
2, 36659, Note_on_c, 0, 43, 0
2, 36660, Note_on_c, 0, 43, 85
2, 36719, Note_on_c, 0, 43, 0
2, 36720, Note_on_c, 0, 43, 85
2, 36899, Note_on_c, 0, 43, 0
2, 36900, Note_on_c, 0, 43, 85
2, 36959, Note_on_c, 0, 43, 0
2, 36960, Note_on_c, 0, 43, 85
2, 37019, Note_on_c, 0, 43, 0
2, 37020, Note_on_c, 0, 43, 85
2, 37139, Note_on_c, 0, 43, 0
2, 37140, Note_on_c, 0, 43, 85
2, 37199, Note_on_c, 0, 43, 0
2, 37200, Note_on_c, 0, 43, 85
2, 37259, Note_on_c, 0, 43, 0
2, 37260, Note_on_c, 0, 40, 85
2, 37319, Note_on_c, 0, 40, 0
2, 37320, Note_on_c, 0, 41, 85
2, 37379, Note_on_c, 0, 41, 0
2, 37380, Note_on_c, 0, 42, 85
2, 37439, Note_on_c, 0, 42, 0
2, 37440, Note_on_c, 0, 43, 85
2, 37499, Note_on_c, 0, 43, 0
2, 38400, Note_on_c, 0, 43, 85
2, 38579, Note_on_c, 0, 43, 0
2, 38580, Note_on_c, 0, 43, 85
2, 38639, Note_on_c, 0, 43, 0
2, 38640, Note_on_c, 0, 43, 85
2, 38699, Note_on_c, 0, 43, 0
2, 38700, Note_on_c, 0, 43, 85
2, 38819, Note_on_c, 0, 43, 0
2, 38820, Note_on_c, 0, 43, 85
2, 38879, Note_on_c, 0, 43, 0
2, 38880, Note_on_c, 0, 43, 85
2, 38939, Note_on_c, 0, 43, 0
2, 38940, Note_on_c, 0, 43, 85
2, 39059, Note_on_c, 0, 43, 0
2, 39060, Note_on_c, 0, 43, 85
2, 39119, Note_on_c, 0, 43, 0
2, 39120, Note_on_c, 0, 43, 85
2, 39179, Note_on_c, 0, 43, 0
2, 39180, Note_on_c, 0, 40, 85
2, 39239, Note_on_c, 0, 40, 0
2, 39240, Note_on_c, 0, 41, 85
2, 39299, Note_on_c, 0, 41, 0
2, 39300, Note_on_c, 0, 42, 85
2, 39359, Note_on_c, 0, 42, 0
2, 39360, Note_on_c, 0, 43, 85
2, 39539, Note_on_c, 0, 43, 0
2, 39540, Note_on_c, 0, 43, 85
2, 39599, Note_on_c, 0, 43, 0
2, 39600, Note_on_c, 0, 43, 85
2, 39659, Note_on_c, 0, 43, 0
2, 39660, Note_on_c, 0, 43, 85
2, 39779, Note_on_c, 0, 43, 0
2, 39780, Note_on_c, 0, 43, 85
2, 39839, Note_on_c, 0, 43, 0
2, 39840, Note_on_c, 0, 43, 85
2, 39899, Note_on_c, 0, 43, 0
2, 39900, Note_on_c, 0, 43, 85
2, 39959, Note_on_c, 0, 43, 0
2, 39960, Note_on_c, 0, 47, 85
2, 40019, Note_on_c, 0, 47, 0
2, 40020, Note_on_c, 0, 53, 85
2, 40079, Note_on_c, 0, 53, 0
2, 40080, Note_on_c, 0, 53, 85
2, 40199, Note_on_c, 0, 53, 0
2, 40200, Note_on_c, 0, 52, 85
2, 40319, Note_on_c, 0, 52, 0
2, 40320, Note_on_c, 0, 43, 85
2, 40499, Note_on_c, 0, 43, 0
2, 40500, Note_on_c, 0, 43, 85
2, 40559, Note_on_c, 0, 43, 0
2, 40560, Note_on_c, 0, 43, 85
2, 40619, Note_on_c, 0, 43, 0
2, 40620, Note_on_c, 0, 43, 85
2, 40739, Note_on_c, 0, 43, 0
2, 40740, Note_on_c, 0, 43, 85
2, 40799, Note_on_c, 0, 43, 0
2, 40800, Note_on_c, 0, 38, 85
2, 40859, Note_on_c, 0, 38, 0
2, 40860, Note_on_c, 0, 38, 85
2, 40919, Note_on_c, 0, 38, 0
2, 40920, Note_on_c, 0, 40, 85
2, 40979, Note_on_c, 0, 40, 0
2, 40980, Note_on_c, 0, 40, 85
2, 41039, Note_on_c, 0, 40, 0
2, 41040, Note_on_c, 0, 41, 85
2, 41099, Note_on_c, 0, 41, 0
2, 41100, Note_on_c, 0, 41, 85
2, 41159, Note_on_c, 0, 41, 0
2, 41160, Note_on_c, 0, 42, 85
2, 41219, Note_on_c, 0, 42, 0
2, 41220, Note_on_c, 0, 42, 85
2, 41279, Note_on_c, 0, 42, 0
2, 41280, Note_on_c, 0, 43, 85
2, 41339, Note_on_c, 0, 43, 0
2, 41339, End_track
3, 0, Start_track
3, 0, MIDI_port, 0
3, 0, Title_t, "Jazz Electric"
3, 0, Program_c, 1, 26
3, 0, Control_c, 1, 7, 80
3, 0, Control_c, 1, 10, 95
3, 0, Control_c, 1, 91, 30
3, 0, Control_c, 1, 93, 0
3, 0, Note_on_c, 1, 55, 80
3, 0, Note_on_c, 1, 59, 80
3, 0, Note_on_c, 1, 62, 80
3, 476, Note_on_c, 1, 55, 0
3, 477, Note_on_c, 1, 59, 0
3, 478, Note_on_c, 1, 62, 0
3, 480, Note_on_c, 1, 55, 80
3, 480, Note_on_c, 1, 59, 80
3, 480, Note_on_c, 1, 62, 80
3, 956, Note_on_c, 1, 62, 0
3, 956, Note_on_c, 1, 59, 0
3, 958, Note_on_c, 1, 55, 0
3, 960, Note_on_c, 1, 59, 80
3, 960, Note_on_c, 1, 62, 80
3, 960, Note_on_c, 1, 67, 80
3, 1136, Note_on_c, 1, 59, 0
3, 1137, Note_on_c, 1, 67, 0
3, 1138, Note_on_c, 1, 62, 0
3, 1140, Note_on_c, 1, 55, 70
3, 1140, Note_on_c, 1, 59, 70
3, 1140, Note_on_c, 1, 62, 70
3, 1436, Note_on_c, 1, 62, 0
3, 1436, Note_on_c, 1, 59, 0
3, 1437, Note_on_c, 1, 55, 0
3, 1440, Note_on_c, 1, 55, 80
3, 1440, Note_on_c, 1, 59, 80
3, 1440, Note_on_c, 1, 62, 80
3, 1617, Note_on_c, 1, 59, 0
3, 1617, Note_on_c, 1, 55, 0
3, 1618, Note_on_c, 1, 62, 0
3, 1620, Note_on_c, 1, 55, 70
3, 1620, Note_on_c, 1, 59, 70
3, 1620, Note_on_c, 1, 62, 70
3, 1917, Note_on_c, 1, 55, 0
3, 1918, Note_on_c, 1, 62, 0
3, 1918, Note_on_c, 1, 59, 0
3, 1920, Note_on_c, 1, 59, 80
3, 1920, Note_on_c, 1, 62, 80
3, 1920, Note_on_c, 1, 67, 80
3, 2396, Note_on_c, 1, 67, 0
3, 2398, Note_on_c, 1, 62, 0
3, 2398, Note_on_c, 1, 59, 0
3, 2400, Note_on_c, 1, 55, 80
3, 2400, Note_on_c, 1, 59, 80
3, 2400, Note_on_c, 1, 62, 80
3, 2876, Note_on_c, 1, 59, 0
3, 2877, Note_on_c, 1, 62, 0
3, 2877, Note_on_c, 1, 55, 0
3, 2880, Note_on_c, 1, 55, 80
3, 2880, Note_on_c, 1, 59, 80
3, 2880, Note_on_c, 1, 62, 80
3, 3357, Note_on_c, 1, 62, 0
3, 3357, Note_on_c, 1, 59, 0
3, 3358, Note_on_c, 1, 55, 0
3, 3360, Note_on_c, 1, 55, 80
3, 3360, Note_on_c, 1, 59, 80
3, 3360, Note_on_c, 1, 62, 80
3, 3537, Note_on_c, 1, 62, 0
3, 3538, Note_on_c, 1, 59, 0
3, 3538, Note_on_c, 1, 55, 0
3, 3540, Note_on_c, 1, 55, 70
3, 3540, Note_on_c, 1, 59, 70
3, 3540, Note_on_c, 1, 62, 70
3, 3836, Note_on_c, 1, 62, 0
3, 3836, Note_on_c, 1, 55, 0
3, 3837, Note_on_c, 1, 59, 0
3, 3840, Note_on_c, 1, 55, 80
3, 3840, Note_on_c, 1, 60, 80
3, 3840, Note_on_c, 1, 64, 80
3, 4016, Note_on_c, 1, 64, 0
3, 4016, Note_on_c, 1, 60, 0
3, 4016, Note_on_c, 1, 55, 0
3, 4020, Note_on_c, 1, 55, 70
3, 4020, Note_on_c, 1, 60, 70
3, 4020, Note_on_c, 1, 64, 70
3, 4316, Note_on_c, 1, 64, 0
3, 4317, Note_on_c, 1, 60, 0
3, 4318, Note_on_c, 1, 55, 0
3, 4320, Note_on_c, 1, 55, 80
3, 4320, Note_on_c, 1, 60, 80
3, 4320, Note_on_c, 1, 64, 80
3, 4796, Note_on_c, 1, 60, 0
3, 4796, Note_on_c, 1, 55, 0
3, 4798, Note_on_c, 1, 64, 0
3, 4800, Note_on_c, 1, 55, 80
3, 4800, Note_on_c, 1, 59, 80
3, 4800, Note_on_c, 1, 62, 80
3, 5276, Note_on_c, 1, 62, 0
3, 5278, Note_on_c, 1, 59, 0
3, 5278, Note_on_c, 1, 55, 0
3, 5280, Note_on_c, 1, 55, 80
3, 5280, Note_on_c, 1, 59, 80
3, 5280, Note_on_c, 1, 62, 80
3, 5758, Note_on_c, 1, 62, 0
3, 5758, Note_on_c, 1, 59, 0
3, 5758, Note_on_c, 1, 55, 0
3, 5760, Note_on_c, 1, 54, 80
3, 5760, Note_on_c, 1, 57, 80
3, 5760, Note_on_c, 1, 62, 80
3, 6236, Note_on_c, 1, 57, 0
3, 6237, Note_on_c, 1, 62, 0
3, 6237, Note_on_c, 1, 54, 0
3, 6240, Note_on_c, 1, 57, 80
3, 6240, Note_on_c, 1, 62, 80
3, 6240, Note_on_c, 1, 66, 80
3, 6717, Note_on_c, 1, 66, 0
3, 6717, Note_on_c, 1, 62, 0
3, 6717, Note_on_c, 1, 57, 0
3, 6720, Note_on_c, 1, 60, 80
3, 6720, Note_on_c, 1, 64, 80
3, 6720, Note_on_c, 1, 67, 80
3, 7196, Note_on_c, 1, 64, 0
3, 7198, Note_on_c, 1, 67, 0
3, 7198, Note_on_c, 1, 60, 0
3, 7200, Note_on_c, 1, 55, 80
3, 7200, Note_on_c, 1, 60, 80
3, 7200, Note_on_c, 1, 64, 80
3, 7376, Note_on_c, 1, 64, 0
3, 7376, Note_on_c, 1, 60, 0
3, 7377, Note_on_c, 1, 55, 0
3, 7380, Note_on_c, 1, 55, 70
3, 7380, Note_on_c, 1, 60, 70
3, 7380, Note_on_c, 1, 64, 70
3, 7676, Note_on_c, 1, 60, 0
3, 7677, Note_on_c, 1, 55, 0
3, 7678, Note_on_c, 1, 64, 0
3, 7680, Note_on_c, 1, 59, 80
3, 7680, Note_on_c, 1, 62, 80
3, 7680, Note_on_c, 1, 67, 80
3, 8157, Note_on_c, 1, 62, 0
3, 8158, Note_on_c, 1, 67, 0
3, 8158, Note_on_c, 1, 59, 0
3, 8160, Note_on_c, 1, 55, 80
3, 8160, Note_on_c, 1, 59, 80
3, 8160, Note_on_c, 1, 62, 80
3, 8636, Note_on_c, 1, 62, 0
3, 8636, Note_on_c, 1, 59, 0
3, 8638, Note_on_c, 1, 55, 0
3, 8640, Note_on_c, 1, 59, 80
3, 8640, Note_on_c, 1, 62, 80
3, 8640, Note_on_c, 1, 67, 80
3, 9118, Note_on_c, 1, 67, 0
3, 9118, Note_on_c, 1, 62, 0
3, 9118, Note_on_c, 1, 59, 0
3, 9120, Note_on_c, 1, 55, 80
3, 9120, Note_on_c, 1, 59, 80
3, 9120, Note_on_c, 1, 62, 80
3, 9597, Note_on_c, 1, 55, 0
3, 9598, Note_on_c, 1, 62, 0
3, 9598, Note_on_c, 1, 59, 0
3, 9600, Note_on_c, 1, 59, 80
3, 9600, Note_on_c, 1, 62, 80
3, 9600, Note_on_c, 1, 67, 80
3, 10076, Note_on_c, 1, 59, 0
3, 10078, Note_on_c, 1, 67, 0
3, 10078, Note_on_c, 1, 62, 0
3, 10080, Note_on_c, 1, 59, 80
3, 10080, Note_on_c, 1, 62, 80
3, 10080, Note_on_c, 1, 67, 80
3, 10556, Note_on_c, 1, 59, 0
3, 10558, Note_on_c, 1, 67, 0
3, 10558, Note_on_c, 1, 62, 0
3, 10560, Note_on_c, 1, 59, 80
3, 10560, Note_on_c, 1, 62, 80
3, 10560, Note_on_c, 1, 67, 80
3, 11037, Note_on_c, 1, 59, 0
3, 11038, Note_on_c, 1, 67, 0
3, 11038, Note_on_c, 1, 62, 0
3, 11040, Note_on_c, 1, 59, 80
3, 11040, Note_on_c, 1, 62, 80
3, 11040, Note_on_c, 1, 67, 80
3, 11516, Note_on_c, 1, 67, 0
3, 11516, Note_on_c, 1, 59, 0
3, 11517, Note_on_c, 1, 62, 0
3, 11520, Note_on_c, 1, 55, 80
3, 11520, Note_on_c, 1, 59, 80
3, 11520, Note_on_c, 1, 62, 80
3, 11696, Note_on_c, 1, 62, 0
3, 11696, Note_on_c, 1, 59, 0
3, 11696, Note_on_c, 1, 55, 0
3, 11700, Note_on_c, 1, 59, 70
3, 11700, Note_on_c, 1, 62, 70
3, 11700, Note_on_c, 1, 67, 70
3, 11996, Note_on_c, 1, 67, 0
3, 11996, Note_on_c, 1, 62, 0
3, 11996, Note_on_c, 1, 59, 0
3, 12000, Note_on_c, 1, 59, 80
3, 12000, Note_on_c, 1, 62, 80
3, 12000, Note_on_c, 1, 67, 80
3, 12477, Note_on_c, 1, 67, 0
3, 12478, Note_on_c, 1, 62, 0
3, 12478, Note_on_c, 1, 59, 0
3, 12480, Note_on_c, 1, 59, 80
3, 12480, Note_on_c, 1, 62, 80
3, 12480, Note_on_c, 1, 67, 80
3, 12956, Note_on_c, 1, 62, 0
3, 12957, Note_on_c, 1, 67, 0
3, 12958, Note_on_c, 1, 59, 0
3, 12960, Note_on_c, 1, 55, 80
3, 12960, Note_on_c, 1, 59, 80
3, 12960, Note_on_c, 1, 62, 80
3, 13436, Note_on_c, 1, 62, 0
3, 13436, Note_on_c, 1, 59, 0
3, 13437, Note_on_c, 1, 55, 0
3, 13440, Note_on_c, 1, 55, 80
3, 13440, Note_on_c, 1, 60, 80
3, 13440, Note_on_c, 1, 64, 80
3, 13616, Note_on_c, 1, 64, 0
3, 13616, Note_on_c, 1, 60, 0
3, 13617, Note_on_c, 1, 55, 0
3, 13620, Note_on_c, 1, 55, 70
3, 13620, Note_on_c, 1, 60, 70
3, 13620, Note_on_c, 1, 64, 70
3, 13916, Note_on_c, 1, 60, 0
3, 13917, Note_on_c, 1, 64, 0
3, 13918, Note_on_c, 1, 55, 0
3, 13920, Note_on_c, 1, 60, 80
3, 13920, Note_on_c, 1, 64, 80
3, 13920, Note_on_c, 1, 67, 80
3, 14097, Note_on_c, 1, 67, 0
3, 14097, Note_on_c, 1, 64, 0
3, 14098, Note_on_c, 1, 60, 0
3, 14100, Note_on_c, 1, 55, 70
3, 14100, Note_on_c, 1, 60, 70
3, 14100, Note_on_c, 1, 64, 70
3, 14396, Note_on_c, 1, 55, 0
3, 14397, Note_on_c, 1, 64, 0
3, 14398, Note_on_c, 1, 60, 0
3, 14400, Note_on_c, 1, 59, 80
3, 14400, Note_on_c, 1, 62, 80
3, 14400, Note_on_c, 1, 67, 80
3, 14576, Note_on_c, 1, 62, 0
3, 14576, Note_on_c, 1, 59, 0
3, 14577, Note_on_c, 1, 67, 0
3, 14580, Note_on_c, 1, 55, 70
3, 14580, Note_on_c, 1, 59, 70
3, 14580, Note_on_c, 1, 62, 70
3, 14877, Note_on_c, 1, 59, 0
3, 14877, Note_on_c, 1, 55, 0
3, 14878, Note_on_c, 1, 62, 0
3, 14880, Note_on_c, 1, 55, 80
3, 14880, Note_on_c, 1, 59, 80
3, 14880, Note_on_c, 1, 62, 80
3, 15357, Note_on_c, 1, 55, 0
3, 15358, Note_on_c, 1, 62, 0
3, 15358, Note_on_c, 1, 59, 0
3, 15360, Note_on_c, 1, 54, 80
3, 15360, Note_on_c, 1, 57, 80
3, 15360, Note_on_c, 1, 62, 80
3, 15537, Note_on_c, 1, 57, 0
3, 15537, Note_on_c, 1, 54, 0
3, 15538, Note_on_c, 1, 62, 0
3, 15540, Note_on_c, 1, 54, 70
3, 15540, Note_on_c, 1, 57, 70
3, 15540, Note_on_c, 1, 62, 70
3, 15836, Note_on_c, 1, 62, 0
3, 15836, Note_on_c, 1, 54, 0
3, 15838, Note_on_c, 1, 57, 0
3, 15840, Note_on_c, 1, 62, 80
3, 15840, Note_on_c, 1, 66, 80
3, 15840, Note_on_c, 1, 69, 80
3, 16316, Note_on_c, 1, 69, 0
3, 16316, Note_on_c, 1, 66, 0
3, 16318, Note_on_c, 1, 62, 0
3, 16320, Note_on_c, 1, 55, 80
3, 16320, Note_on_c, 1, 60, 80
3, 16320, Note_on_c, 1, 64, 80
3, 16797, Note_on_c, 1, 64, 0
3, 16797, Note_on_c, 1, 55, 0
3, 16798, Note_on_c, 1, 60, 0
3, 16800, Note_on_c, 1, 60, 80
3, 16800, Note_on_c, 1, 64, 80
3, 16800, Note_on_c, 1, 67, 80
3, 17276, Note_on_c, 1, 60, 0
3, 17277, Note_on_c, 1, 67, 0
3, 17277, Note_on_c, 1, 64, 0
3, 17280, Note_on_c, 1, 59, 80
3, 17280, Note_on_c, 1, 62, 80
3, 17280, Note_on_c, 1, 67, 80
3, 17756, Note_on_c, 1, 67, 0
3, 17756, Note_on_c, 1, 59, 0
3, 17757, Note_on_c, 1, 62, 0
3, 17760, Note_on_c, 1, 55, 80
3, 17760, Note_on_c, 1, 59, 80
3, 17760, Note_on_c, 1, 62, 80
3, 18237, Note_on_c, 1, 62, 0
3, 18238, Note_on_c, 1, 59, 0
3, 18238, Note_on_c, 1, 55, 0
3, 18240, Note_on_c, 1, 55, 80
3, 18240, Note_on_c, 1, 59, 80
3, 18240, Note_on_c, 1, 62, 80
3, 18716, Note_on_c, 1, 59, 0
3, 18718, Note_on_c, 1, 62, 0
3, 18718, Note_on_c, 1, 55, 0
3, 18720, Note_on_c, 1, 59, 80
3, 18720, Note_on_c, 1, 62, 80
3, 18720, Note_on_c, 1, 67, 80
3, 18896, Note_on_c, 1, 67, 0
3, 18897, Note_on_c, 1, 62, 0
3, 18897, Note_on_c, 1, 59, 0
3, 18900, Note_on_c, 1, 59, 70
3, 18900, Note_on_c, 1, 62, 70
3, 18900, Note_on_c, 1, 67, 70
3, 19197, Note_on_c, 1, 67, 0
3, 19197, Note_on_c, 1, 62, 0
3, 19197, Note_on_c, 1, 59, 0
3, 19200, Note_on_c, 1, 55, 80
3, 19200, Note_on_c, 1, 59, 80
3, 19200, Note_on_c, 1, 62, 80
3, 19677, Note_on_c, 1, 62, 0
3, 19677, Note_on_c, 1, 59, 0
3, 19678, Note_on_c, 1, 55, 0
3, 19680, Note_on_c, 1, 55, 80
3, 19680, Note_on_c, 1, 59, 80
3, 19680, Note_on_c, 1, 62, 80
3, 20156, Note_on_c, 1, 62, 0
3, 20157, Note_on_c, 1, 59, 0
3, 20157, Note_on_c, 1, 55, 0
3, 20160, Note_on_c, 1, 59, 80
3, 20160, Note_on_c, 1, 62, 80
3, 20160, Note_on_c, 1, 67, 80
3, 20336, Note_on_c, 1, 62, 0
3, 20338, Note_on_c, 1, 67, 0
3, 20338, Note_on_c, 1, 59, 0
3, 20340, Note_on_c, 1, 59, 70
3, 20340, Note_on_c, 1, 62, 70
3, 20340, Note_on_c, 1, 67, 70
3, 20637, Note_on_c, 1, 62, 0
3, 20637, Note_on_c, 1, 59, 0
3, 20638, Note_on_c, 1, 67, 0
3, 20640, Note_on_c, 1, 55, 80
3, 20640, Note_on_c, 1, 59, 80
3, 20640, Note_on_c, 1, 62, 80
3, 21116, Note_on_c, 1, 59, 0
3, 21117, Note_on_c, 1, 62, 0
3, 21118, Note_on_c, 1, 55, 0
3, 21120, Note_on_c, 1, 59, 80
3, 21120, Note_on_c, 1, 62, 80
3, 21120, Note_on_c, 1, 67, 80
3, 21296, Note_on_c, 1, 67, 0
3, 21296, Note_on_c, 1, 59, 0
3, 21298, Note_on_c, 1, 62, 0
3, 21300, Note_on_c, 1, 55, 70
3, 21300, Note_on_c, 1, 59, 70
3, 21300, Note_on_c, 1, 62, 70
3, 21596, Note_on_c, 1, 55, 0
3, 21598, Note_on_c, 1, 62, 0
3, 21598, Note_on_c, 1, 59, 0
3, 21600, Note_on_c, 1, 59, 80
3, 21600, Note_on_c, 1, 62, 80
3, 21600, Note_on_c, 1, 67, 80
3, 22077, Note_on_c, 1, 62, 0
3, 22078, Note_on_c, 1, 67, 0
3, 22078, Note_on_c, 1, 59, 0
3, 22080, Note_on_c, 1, 55, 80
3, 22080, Note_on_c, 1, 59, 80
3, 22080, Note_on_c, 1, 62, 80
3, 22556, Note_on_c, 1, 55, 0
3, 22557, Note_on_c, 1, 62, 0
3, 22557, Note_on_c, 1, 59, 0
3, 22560, Note_on_c, 1, 59, 80
3, 22560, Note_on_c, 1, 62, 80
3, 22560, Note_on_c, 1, 67, 80
3, 23036, Note_on_c, 1, 62, 0
3, 23036, Note_on_c, 1, 59, 0
3, 23038, Note_on_c, 1, 67, 0
3, 23040, Note_on_c, 1, 60, 80
3, 23040, Note_on_c, 1, 64, 80
3, 23040, Note_on_c, 1, 67, 80
3, 23217, Note_on_c, 1, 64, 0
3, 23217, Note_on_c, 1, 60, 0
3, 23218, Note_on_c, 1, 67, 0
3, 23220, Note_on_c, 1, 55, 70
3, 23220, Note_on_c, 1, 60, 70
3, 23220, Note_on_c, 1, 64, 70
3, 23516, Note_on_c, 1, 60, 0
3, 23517, Note_on_c, 1, 64, 0
3, 23517, Note_on_c, 1, 55, 0
3, 23520, Note_on_c, 1, 55, 80
3, 23520, Note_on_c, 1, 60, 80
3, 23520, Note_on_c, 1, 64, 80
3, 23998, Note_on_c, 1, 64, 0
3, 23998, Note_on_c, 1, 60, 0
3, 23998, Note_on_c, 1, 55, 0
3, 24000, Note_on_c, 1, 55, 80
3, 24000, Note_on_c, 1, 59, 80
3, 24000, Note_on_c, 1, 62, 80
3, 24477, Note_on_c, 1, 62, 0
3, 24477, Note_on_c, 1, 59, 0
3, 24477, Note_on_c, 1, 55, 0
3, 24480, Note_on_c, 1, 59, 80
3, 24480, Note_on_c, 1, 62, 80
3, 24480, Note_on_c, 1, 67, 80
3, 24656, Note_on_c, 1, 62, 0
3, 24657, Note_on_c, 1, 67, 0
3, 24657, Note_on_c, 1, 59, 0
3, 24660, Note_on_c, 1, 59, 70
3, 24660, Note_on_c, 1, 62, 70
3, 24660, Note_on_c, 1, 67, 70
3, 24957, Note_on_c, 1, 62, 0
3, 24958, Note_on_c, 1, 67, 0
3, 24958, Note_on_c, 1, 59, 0
3, 24960, Note_on_c, 1, 54, 80
3, 24960, Note_on_c, 1, 57, 80
3, 24960, Note_on_c, 1, 62, 80
3, 25436, Note_on_c, 1, 62, 0
3, 25438, Note_on_c, 1, 57, 0
3, 25438, Note_on_c, 1, 54, 0
3, 25440, Note_on_c, 1, 62, 80
3, 25440, Note_on_c, 1, 66, 80
3, 25440, Note_on_c, 1, 69, 80
3, 25617, Note_on_c, 1, 69, 0
3, 25617, Note_on_c, 1, 66, 0
3, 25618, Note_on_c, 1, 62, 0
3, 25620, Note_on_c, 1, 62, 70
3, 25620, Note_on_c, 1, 66, 70
3, 25620, Note_on_c, 1, 69, 70
3, 25916, Note_on_c, 1, 62, 0
3, 25917, Note_on_c, 1, 66, 0
3, 25918, Note_on_c, 1, 69, 0
3, 25920, Note_on_c, 1, 55, 80
3, 25920, Note_on_c, 1, 60, 80
3, 25920, Note_on_c, 1, 64, 80
3, 26397, Note_on_c, 1, 64, 0
3, 26397, Note_on_c, 1, 55, 0
3, 26398, Note_on_c, 1, 60, 0
3, 26400, Note_on_c, 1, 55, 80
3, 26400, Note_on_c, 1, 60, 80
3, 26400, Note_on_c, 1, 64, 80
3, 26576, Note_on_c, 1, 64, 0
3, 26578, Note_on_c, 1, 60, 0
3, 26578, Note_on_c, 1, 55, 0
3, 26580, Note_on_c, 1, 60, 70
3, 26580, Note_on_c, 1, 64, 70
3, 26580, Note_on_c, 1, 67, 70
3, 26877, Note_on_c, 1, 60, 0
3, 26878, Note_on_c, 1, 67, 0
3, 26878, Note_on_c, 1, 64, 0
3, 26880, Note_on_c, 1, 55, 80
3, 26880, Note_on_c, 1, 59, 80
3, 26880, Note_on_c, 1, 62, 80
3, 27056, Note_on_c, 1, 62, 0
3, 27056, Note_on_c, 1, 59, 0
3, 27056, Note_on_c, 1, 55, 0
3, 27060, Note_on_c, 1, 55, 70
3, 27060, Note_on_c, 1, 59, 70
3, 27060, Note_on_c, 1, 62, 70
3, 27356, Note_on_c, 1, 62, 0
3, 27357, Note_on_c, 1, 59, 0
3, 27358, Note_on_c, 1, 55, 0
3, 27360, Note_on_c, 1, 55, 80
3, 27360, Note_on_c, 1, 59, 80
3, 27360, Note_on_c, 1, 62, 80
3, 27537, Note_on_c, 1, 62, 0
3, 27537, Note_on_c, 1, 59, 0
3, 27538, Note_on_c, 1, 55, 0
3, 27540, Note_on_c, 1, 55, 70
3, 27540, Note_on_c, 1, 59, 70
3, 27540, Note_on_c, 1, 62, 70
3, 27837, Note_on_c, 1, 62, 0
3, 27837, Note_on_c, 1, 55, 0
3, 27838, Note_on_c, 1, 59, 0
3, 27840, Note_on_c, 1, 55, 80
3, 27840, Note_on_c, 1, 59, 80
3, 27840, Note_on_c, 1, 62, 80
3, 28017, Note_on_c, 1, 59, 0
3, 28017, Note_on_c, 1, 55, 0
3, 28018, Note_on_c, 1, 62, 0
3, 28020, Note_on_c, 1, 59, 70
3, 28020, Note_on_c, 1, 62, 70
3, 28020, Note_on_c, 1, 67, 70
3, 28316, Note_on_c, 1, 67, 0
3, 28318, Note_on_c, 1, 62, 0
3, 28318, Note_on_c, 1, 59, 0
3, 28320, Note_on_c, 1, 55, 80
3, 28320, Note_on_c, 1, 59, 80
3, 28320, Note_on_c, 1, 62, 80
3, 28796, Note_on_c, 1, 59, 0
3, 28796, Note_on_c, 1, 55, 0
3, 28797, Note_on_c, 1, 62, 0
3, 28800, Note_on_c, 1, 59, 80
3, 28800, Note_on_c, 1, 62, 80
3, 28800, Note_on_c, 1, 67, 80
3, 29277, Note_on_c, 1, 62, 0
3, 29278, Note_on_c, 1, 67, 0
3, 29278, Note_on_c, 1, 59, 0
3, 29280, Note_on_c, 1, 55, 80
3, 29280, Note_on_c, 1, 59, 80
3, 29280, Note_on_c, 1, 62, 80
3, 29757, Note_on_c, 1, 62, 0
3, 29757, Note_on_c, 1, 59, 0
3, 29758, Note_on_c, 1, 55, 0
3, 29760, Note_on_c, 1, 55, 80
3, 29760, Note_on_c, 1, 59, 80
3, 29760, Note_on_c, 1, 62, 80
3, 30236, Note_on_c, 1, 55, 0
3, 30237, Note_on_c, 1, 62, 0
3, 30237, Note_on_c, 1, 59, 0
3, 30240, Note_on_c, 1, 55, 80
3, 30240, Note_on_c, 1, 59, 80
3, 30240, Note_on_c, 1, 62, 80
3, 30416, Note_on_c, 1, 55, 0
3, 30417, Note_on_c, 1, 62, 0
3, 30417, Note_on_c, 1, 59, 0
3, 30420, Note_on_c, 1, 59, 70
3, 30420, Note_on_c, 1, 62, 70
3, 30420, Note_on_c, 1, 67, 70
3, 30717, Note_on_c, 1, 67, 0
3, 30717, Note_on_c, 1, 62, 0
3, 30718, Note_on_c, 1, 59, 0
3, 30720, Note_on_c, 1, 55, 80
3, 30720, Note_on_c, 1, 59, 80
3, 30720, Note_on_c, 1, 62, 80
3, 31196, Note_on_c, 1, 59, 0
3, 31197, Note_on_c, 1, 62, 0
3, 31198, Note_on_c, 1, 55, 0
3, 31200, Note_on_c, 1, 59, 80
3, 31200, Note_on_c, 1, 62, 80
3, 31200, Note_on_c, 1, 67, 80
3, 31676, Note_on_c, 1, 67, 0
3, 31676, Note_on_c, 1, 59, 0
3, 31677, Note_on_c, 1, 62, 0
3, 31680, Note_on_c, 1, 59, 80
3, 31680, Note_on_c, 1, 62, 80
3, 31680, Note_on_c, 1, 67, 80
3, 32156, Note_on_c, 1, 62, 0
3, 32157, Note_on_c, 1, 67, 0
3, 32157, Note_on_c, 1, 59, 0
3, 32160, Note_on_c, 1, 59, 80
3, 32160, Note_on_c, 1, 62, 80
3, 32160, Note_on_c, 1, 67, 80
3, 32637, Note_on_c, 1, 67, 0
3, 32637, Note_on_c, 1, 62, 0
3, 32638, Note_on_c, 1, 59, 0
3, 32640, Note_on_c, 1, 55, 80
3, 32640, Note_on_c, 1, 59, 80
3, 32640, Note_on_c, 1, 62, 80
3, 32817, Note_on_c, 1, 62, 0
3, 32817, Note_on_c, 1, 55, 0
3, 32818, Note_on_c, 1, 59, 0
3, 32820, Note_on_c, 1, 59, 70
3, 32820, Note_on_c, 1, 62, 70
3, 32820, Note_on_c, 1, 67, 70
3, 33116, Note_on_c, 1, 67, 0
3, 33117, Note_on_c, 1, 59, 0
3, 33118, Note_on_c, 1, 62, 0
3, 33120, Note_on_c, 1, 55, 80
3, 33120, Note_on_c, 1, 59, 80
3, 33120, Note_on_c, 1, 62, 80
3, 33296, Note_on_c, 1, 59, 0
3, 33297, Note_on_c, 1, 55, 0
3, 33298, Note_on_c, 1, 62, 0
3, 33300, Note_on_c, 1, 59, 70
3, 33300, Note_on_c, 1, 62, 70
3, 33300, Note_on_c, 1, 67, 70
3, 33596, Note_on_c, 1, 62, 0
3, 33597, Note_on_c, 1, 59, 0
3, 33598, Note_on_c, 1, 67, 0
3, 33600, Note_on_c, 1, 59, 80
3, 33600, Note_on_c, 1, 62, 80
3, 33600, Note_on_c, 1, 67, 80
3, 34076, Note_on_c, 1, 67, 0
3, 34076, Note_on_c, 1, 62, 0
3, 34077, Note_on_c, 1, 59, 0
3, 34080, Note_on_c, 1, 59, 80
3, 34080, Note_on_c, 1, 62, 80
3, 34080, Note_on_c, 1, 67, 80
3, 34257, Note_on_c, 1, 59, 0
3, 34258, Note_on_c, 1, 67, 0
3, 34258, Note_on_c, 1, 62, 0
3, 34260, Note_on_c, 1, 55, 70
3, 34260, Note_on_c, 1, 59, 70
3, 34260, Note_on_c, 1, 62, 70
3, 34556, Note_on_c, 1, 59, 0
3, 34558, Note_on_c, 1, 62, 0
3, 34558, Note_on_c, 1, 55, 0
3, 34560, Note_on_c, 1, 55, 80
3, 34560, Note_on_c, 1, 59, 80
3, 34560, Note_on_c, 1, 62, 80
3, 35036, Note_on_c, 1, 62, 0
3, 35036, Note_on_c, 1, 55, 0
3, 35038, Note_on_c, 1, 59, 0
3, 35040, Note_on_c, 1, 55, 80
3, 35040, Note_on_c, 1, 59, 80
3, 35040, Note_on_c, 1, 62, 80
3, 35516, Note_on_c, 1, 62, 0
3, 35516, Note_on_c, 1, 59, 0
3, 35518, Note_on_c, 1, 55, 0
3, 35520, Note_on_c, 1, 59, 80
3, 35520, Note_on_c, 1, 62, 80
3, 35520, Note_on_c, 1, 67, 80
3, 35997, Note_on_c, 1, 67, 0
3, 35997, Note_on_c, 1, 62, 0
3, 35998, Note_on_c, 1, 59, 0
3, 36000, Note_on_c, 1, 59, 80
3, 36000, Note_on_c, 1, 62, 80
3, 36000, Note_on_c, 1, 67, 80
3, 36476, Note_on_c, 1, 59, 0
3, 36477, Note_on_c, 1, 62, 0
3, 36478, Note_on_c, 1, 67, 0
3, 36480, Note_on_c, 1, 55, 80
3, 36480, Note_on_c, 1, 59, 80
3, 36480, Note_on_c, 1, 62, 80
3, 36957, Note_on_c, 1, 55, 0
3, 36958, Note_on_c, 1, 62, 0
3, 36958, Note_on_c, 1, 59, 0
3, 36960, Note_on_c, 1, 55, 80
3, 36960, Note_on_c, 1, 59, 80
3, 36960, Note_on_c, 1, 62, 80
3, 37436, Note_on_c, 1, 55, 0
3, 37437, Note_on_c, 1, 62, 0
3, 37438, Note_on_c, 1, 59, 0
3, 37440, Note_on_c, 1, 55, 80
3, 37440, Note_on_c, 1, 59, 80
3, 37440, Note_on_c, 1, 62, 80
3, 37616, Note_on_c, 1, 59, 0
3, 37617, Note_on_c, 1, 62, 0
3, 37618, Note_on_c, 1, 55, 0
3, 37620, Note_on_c, 1, 59, 70
3, 37620, Note_on_c, 1, 62, 70
3, 37620, Note_on_c, 1, 67, 70
3, 37916, Note_on_c, 1, 59, 0
3, 37917, Note_on_c, 1, 62, 0
3, 37918, Note_on_c, 1, 67, 0
3, 37920, Note_on_c, 1, 59, 80
3, 37920, Note_on_c, 1, 62, 80
3, 37920, Note_on_c, 1, 67, 80
3, 38398, Note_on_c, 1, 67, 0
3, 38398, Note_on_c, 1, 62, 0
3, 38398, Note_on_c, 1, 59, 0
3, 38400, Note_on_c, 1, 59, 80
3, 38400, Note_on_c, 1, 62, 80
3, 38400, Note_on_c, 1, 67, 80
3, 38578, Note_on_c, 1, 67, 0
3, 38578, Note_on_c, 1, 62, 0
3, 38578, Note_on_c, 1, 59, 0
3, 38580, Note_on_c, 1, 59, 70
3, 38580, Note_on_c, 1, 62, 70
3, 38580, Note_on_c, 1, 67, 70
3, 38877, Note_on_c, 1, 67, 0
3, 38877, Note_on_c, 1, 62, 0
3, 38878, Note_on_c, 1, 59, 0
3, 38880, Note_on_c, 1, 55, 80
3, 38880, Note_on_c, 1, 59, 80
3, 38880, Note_on_c, 1, 62, 80
3, 39056, Note_on_c, 1, 62, 0
3, 39058, Note_on_c, 1, 59, 0
3, 39058, Note_on_c, 1, 55, 0
3, 39060, Note_on_c, 1, 55, 70
3, 39060, Note_on_c, 1, 59, 70
3, 39060, Note_on_c, 1, 62, 70
3, 39356, Note_on_c, 1, 62, 0
3, 39356, Note_on_c, 1, 55, 0
3, 39357, Note_on_c, 1, 59, 0
3, 39360, Note_on_c, 1, 59, 80
3, 39360, Note_on_c, 1, 62, 80
3, 39360, Note_on_c, 1, 67, 80
3, 39837, Note_on_c, 1, 67, 0
3, 39837, Note_on_c, 1, 62, 0
3, 39837, Note_on_c, 1, 59, 0
3, 39840, Note_on_c, 1, 59, 80
3, 39840, Note_on_c, 1, 62, 80
3, 39840, Note_on_c, 1, 67, 80
3, 40016, Note_on_c, 1, 62, 0
3, 40017, Note_on_c, 1, 67, 0
3, 40017, Note_on_c, 1, 59, 0
3, 40020, Note_on_c, 1, 55, 70
3, 40020, Note_on_c, 1, 59, 70
3, 40020, Note_on_c, 1, 62, 70
3, 40316, Note_on_c, 1, 62, 0
3, 40317, Note_on_c, 1, 59, 0
3, 40317, Note_on_c, 1, 55, 0
3, 40320, Note_on_c, 1, 59, 80
3, 40320, Note_on_c, 1, 62, 80
3, 40320, Note_on_c, 1, 67, 80
3, 40796, Note_on_c, 1, 67, 0
3, 40796, Note_on_c, 1, 59, 0
3, 40797, Note_on_c, 1, 62, 0
3, 40800, Note_on_c, 1, 59, 80
3, 40800, Note_on_c, 1, 62, 80
3, 40800, Note_on_c, 1, 67, 80
3, 40976, Note_on_c, 1, 59, 0
3, 40977, Note_on_c, 1, 67, 0
3, 40977, Note_on_c, 1, 62, 0
3, 40980, Note_on_c, 1, 59, 70
3, 40980, Note_on_c, 1, 62, 70
3, 40980, Note_on_c, 1, 67, 70
3, 41278, Note_on_c, 1, 67, 0
3, 41278, Note_on_c, 1, 62, 0
3, 41278, Note_on_c, 1, 59, 0
3, 41280, Note_on_c, 1, 55, 80
3, 41280, Note_on_c, 1, 59, 80
3, 41280, Note_on_c, 1, 62, 80
3, 41756, Note_on_c, 1, 59, 0
3, 41756, Note_on_c, 1, 55, 0
3, 41758, Note_on_c, 1, 62, 0
3, 41758, End_track
4, 0, Start_track
4, 0, MIDI_port, 0
4, 0, Title_t, "Steel String"
4, 0, Program_c, 3, 25
4, 0, Control_c, 3, 7, 80
4, 0, Control_c, 3, 10, 55
4, 0, Control_c, 3, 91, 50
4, 0, Control_c, 3, 93, 35
4, 0, Note_on_c, 3, 43, 85
4, 0, Note_on_c, 3, 50, 85
4, 0, Note_on_c, 3, 55, 85
4, 118, Note_on_c, 3, 55, 0
4, 118, Note_on_c, 3, 50, 0
4, 118, Note_on_c, 3, 43, 0
4, 120, Note_on_c, 3, 43, 75
4, 120, Note_on_c, 3, 50, 75
4, 120, Note_on_c, 3, 55, 75
4, 176, Note_on_c, 3, 55, 0
4, 178, Note_on_c, 3, 50, 0
4, 178, Note_on_c, 3, 43, 0
4, 180, Note_on_c, 3, 43, 75
4, 180, Note_on_c, 3, 50, 75
4, 180, Note_on_c, 3, 55, 75
4, 356, Note_on_c, 3, 55, 0
4, 356, Note_on_c, 3, 50, 0
4, 357, Note_on_c, 3, 43, 0
4, 360, Note_on_c, 3, 43, 75
4, 360, Note_on_c, 3, 50, 75
4, 360, Note_on_c, 3, 55, 75
4, 476, Note_on_c, 3, 55, 0
4, 476, Note_on_c, 3, 50, 0
4, 476, Note_on_c, 3, 43, 0
4, 480, Note_on_c, 3, 43, 85
4, 480, Note_on_c, 3, 50, 85
4, 480, Note_on_c, 3, 55, 85
4, 597, Note_on_c, 3, 43, 0
4, 598, Note_on_c, 3, 55, 0
4, 598, Note_on_c, 3, 50, 0
4, 600, Note_on_c, 3, 43, 75
4, 600, Note_on_c, 3, 50, 75
4, 600, Note_on_c, 3, 55, 75
4, 956, Note_on_c, 3, 50, 0
4, 956, Note_on_c, 3, 43, 0
4, 957, Note_on_c, 3, 55, 0
4, 960, Note_on_c, 3, 43, 85
4, 960, Note_on_c, 3, 50, 85
4, 960, Note_on_c, 3, 55, 85
4, 1076, Note_on_c, 3, 50, 0
4, 1077, Note_on_c, 3, 55, 0
4, 1078, Note_on_c, 3, 43, 0
4, 1080, Note_on_c, 3, 43, 75
4, 1080, Note_on_c, 3, 50, 75
4, 1080, Note_on_c, 3, 55, 75
4, 1436, Note_on_c, 3, 50, 0
4, 1438, Note_on_c, 3, 55, 0
4, 1438, Note_on_c, 3, 43, 0
4, 1440, Note_on_c, 3, 43, 85
4, 1440, Note_on_c, 3, 50, 85
4, 1440, Note_on_c, 3, 55, 85
4, 1556, Note_on_c, 3, 55, 0
4, 1557, Note_on_c, 3, 50, 0
4, 1558, Note_on_c, 3, 43, 0
4, 1560, Note_on_c, 3, 43, 75
4, 1560, Note_on_c, 3, 50, 75
4, 1560, Note_on_c, 3, 55, 75
4, 1616, Note_on_c, 3, 55, 0
4, 1618, Note_on_c, 3, 50, 0
4, 1618, Note_on_c, 3, 43, 0
4, 1620, Note_on_c, 3, 43, 75
4, 1620, Note_on_c, 3, 50, 75
4, 1620, Note_on_c, 3, 55, 75
4, 1796, Note_on_c, 3, 50, 0
4, 1797, Note_on_c, 3, 55, 0
4, 1797, Note_on_c, 3, 43, 0
4, 1800, Note_on_c, 3, 43, 75
4, 1800, Note_on_c, 3, 50, 75
4, 1800, Note_on_c, 3, 55, 75
4, 1918, Note_on_c, 3, 55, 0
4, 1918, Note_on_c, 3, 50, 0
4, 1918, Note_on_c, 3, 43, 0
4, 1920, Note_on_c, 3, 43, 85
4, 1920, Note_on_c, 3, 50, 85
4, 1920, Note_on_c, 3, 55, 85
4, 2037, Note_on_c, 3, 50, 0
4, 2038, Note_on_c, 3, 55, 0
4, 2038, Note_on_c, 3, 43, 0
4, 2040, Note_on_c, 3, 43, 75
4, 2040, Note_on_c, 3, 50, 75
4, 2040, Note_on_c, 3, 55, 75
4, 2096, Note_on_c, 3, 50, 0
4, 2098, Note_on_c, 3, 55, 0
4, 2098, Note_on_c, 3, 43, 0
4, 2100, Note_on_c, 3, 43, 75
4, 2100, Note_on_c, 3, 50, 75
4, 2100, Note_on_c, 3, 55, 75
4, 2277, Note_on_c, 3, 55, 0
4, 2277, Note_on_c, 3, 50, 0
4, 2277, Note_on_c, 3, 43, 0
4, 2280, Note_on_c, 3, 43, 75
4, 2280, Note_on_c, 3, 50, 75
4, 2280, Note_on_c, 3, 55, 75
4, 2397, Note_on_c, 3, 50, 0
4, 2398, Note_on_c, 3, 55, 0
4, 2398, Note_on_c, 3, 43, 0
4, 2400, Note_on_c, 3, 43, 85
4, 2400, Note_on_c, 3, 50, 85
4, 2400, Note_on_c, 3, 55, 85
4, 2516, Note_on_c, 3, 55, 0
4, 2516, Note_on_c, 3, 43, 0
4, 2517, Note_on_c, 3, 50, 0
4, 2520, Note_on_c, 3, 43, 75
4, 2520, Note_on_c, 3, 50, 75
4, 2520, Note_on_c, 3, 55, 75
4, 2576, Note_on_c, 3, 55, 0
4, 2577, Note_on_c, 3, 50, 0
4, 2577, Note_on_c, 3, 43, 0
4, 2580, Note_on_c, 3, 43, 75
4, 2580, Note_on_c, 3, 50, 75
4, 2580, Note_on_c, 3, 55, 75
4, 2756, Note_on_c, 3, 55, 0
4, 2756, Note_on_c, 3, 50, 0
4, 2758, Note_on_c, 3, 43, 0
4, 2760, Note_on_c, 3, 43, 75
4, 2760, Note_on_c, 3, 50, 75
4, 2760, Note_on_c, 3, 55, 75
4, 2876, Note_on_c, 3, 55, 0
4, 2876, Note_on_c, 3, 43, 0
4, 2878, Note_on_c, 3, 50, 0
4, 2880, Note_on_c, 3, 43, 85
4, 2880, Note_on_c, 3, 50, 85
4, 2880, Note_on_c, 3, 55, 85
4, 2997, Note_on_c, 3, 50, 0
4, 2998, Note_on_c, 3, 55, 0
4, 2998, Note_on_c, 3, 43, 0
4, 3000, Note_on_c, 3, 43, 75
4, 3000, Note_on_c, 3, 50, 75
4, 3000, Note_on_c, 3, 55, 75
4, 3056, Note_on_c, 3, 55, 0
4, 3056, Note_on_c, 3, 50, 0
4, 3057, Note_on_c, 3, 43, 0
4, 3060, Note_on_c, 3, 43, 75
4, 3060, Note_on_c, 3, 50, 75
4, 3060, Note_on_c, 3, 55, 75
4, 3238, Note_on_c, 3, 55, 0
4, 3238, Note_on_c, 3, 50, 0
4, 3238, Note_on_c, 3, 43, 0
4, 3240, Note_on_c, 3, 43, 75
4, 3240, Note_on_c, 3, 50, 75
4, 3240, Note_on_c, 3, 55, 75
4, 3356, Note_on_c, 3, 50, 0
4, 3356, Note_on_c, 3, 43, 0
4, 3357, Note_on_c, 3, 55, 0
4, 3360, Note_on_c, 3, 43, 85
4, 3360, Note_on_c, 3, 50, 85
4, 3360, Note_on_c, 3, 55, 85
4, 3476, Note_on_c, 3, 55, 0
4, 3477, Note_on_c, 3, 43, 0
4, 3478, Note_on_c, 3, 50, 0
4, 3480, Note_on_c, 3, 43, 75
4, 3480, Note_on_c, 3, 50, 75
4, 3480, Note_on_c, 3, 55, 75
4, 3536, Note_on_c, 3, 50, 0
4, 3537, Note_on_c, 3, 43, 0
4, 3538, Note_on_c, 3, 55, 0
4, 3540, Note_on_c, 3, 43, 75
4, 3540, Note_on_c, 3, 50, 75
4, 3540, Note_on_c, 3, 55, 75
4, 3716, Note_on_c, 3, 50, 0
4, 3717, Note_on_c, 3, 55, 0
4, 3718, Note_on_c, 3, 43, 0
4, 3720, Note_on_c, 3, 43, 75
4, 3720, Note_on_c, 3, 50, 75
4, 3720, Note_on_c, 3, 55, 75
4, 3837, Note_on_c, 3, 43, 0
4, 3838, Note_on_c, 3, 55, 0
4, 3838, Note_on_c, 3, 50, 0
4, 3840, Note_on_c, 3, 48, 85
4, 3840, Note_on_c, 3, 55, 85
4, 3840, Note_on_c, 3, 60, 85
4, 3956, Note_on_c, 3, 60, 0
4, 3957, Note_on_c, 3, 48, 0
4, 3958, Note_on_c, 3, 55, 0
4, 3960, Note_on_c, 3, 48, 75
4, 3960, Note_on_c, 3, 55, 75
4, 3960, Note_on_c, 3, 60, 75
4, 4316, Note_on_c, 3, 48, 0
4, 4317, Note_on_c, 3, 60, 0
4, 4318, Note_on_c, 3, 55, 0
4, 4320, Note_on_c, 3, 48, 85
4, 4320, Note_on_c, 3, 55, 85
4, 4320, Note_on_c, 3, 60, 85
4, 4436, Note_on_c, 3, 55, 0
4, 4436, Note_on_c, 3, 48, 0
4, 4438, Note_on_c, 3, 60, 0
4, 4440, Note_on_c, 3, 48, 75
4, 4440, Note_on_c, 3, 55, 75
4, 4440, Note_on_c, 3, 60, 75
4, 4497, Note_on_c, 3, 55, 0
4, 4498, Note_on_c, 3, 60, 0
4, 4498, Note_on_c, 3, 48, 0
4, 4500, Note_on_c, 3, 48, 75
4, 4500, Note_on_c, 3, 55, 75
4, 4500, Note_on_c, 3, 60, 75
4, 4677, Note_on_c, 3, 60, 0
4, 4677, Note_on_c, 3, 48, 0
4, 4678, Note_on_c, 3, 55, 0
4, 4680, Note_on_c, 3, 48, 75
4, 4680, Note_on_c, 3, 55, 75
4, 4680, Note_on_c, 3, 60, 75
4, 4796, Note_on_c, 3, 60, 0
4, 4798, Note_on_c, 3, 55, 0
4, 4798, Note_on_c, 3, 48, 0
4, 4800, Note_on_c, 3, 43, 85
4, 4800, Note_on_c, 3, 50, 85
4, 4800, Note_on_c, 3, 55, 85
4, 4916, Note_on_c, 3, 55, 0
4, 4916, Note_on_c, 3, 50, 0
4, 4916, Note_on_c, 3, 43, 0
4, 4920, Note_on_c, 3, 43, 75
4, 4920, Note_on_c, 3, 50, 75
4, 4920, Note_on_c, 3, 55, 75
4, 5276, Note_on_c, 3, 55, 0
4, 5277, Note_on_c, 3, 50, 0
4, 5277, Note_on_c, 3, 43, 0
4, 5280, Note_on_c, 3, 43, 85
4, 5280, Note_on_c, 3, 50, 85
4, 5280, Note_on_c, 3, 55, 85
4, 5398, Note_on_c, 3, 55, 0
4, 5398, Note_on_c, 3, 50, 0
4, 5398, Note_on_c, 3, 43, 0
4, 5400, Note_on_c, 3, 43, 75
4, 5400, Note_on_c, 3, 50, 75
4, 5400, Note_on_c, 3, 55, 75
4, 5757, Note_on_c, 3, 50, 0
4, 5758, Note_on_c, 3, 55, 0
4, 5758, Note_on_c, 3, 43, 0
4, 5760, Note_on_c, 3, 50, 85
4, 5760, Note_on_c, 3, 57, 85
4, 5760, Note_on_c, 3, 62, 85
4, 5877, Note_on_c, 3, 62, 0
4, 5878, Note_on_c, 3, 57, 0
4, 5878, Note_on_c, 3, 50, 0
4, 5880, Note_on_c, 3, 50, 75
4, 5880, Note_on_c, 3, 57, 75
4, 5880, Note_on_c, 3, 62, 75
4, 6236, Note_on_c, 3, 62, 0
4, 6237, Note_on_c, 3, 50, 0
4, 6238, Note_on_c, 3, 57, 0
4, 6240, Note_on_c, 3, 50, 85
4, 6240, Note_on_c, 3, 57, 85
4, 6240, Note_on_c, 3, 62, 85
4, 6357, Note_on_c, 3, 62, 0
4, 6357, Note_on_c, 3, 57, 0
4, 6357, Note_on_c, 3, 50, 0
4, 6360, Note_on_c, 3, 50, 75
4, 6360, Note_on_c, 3, 57, 75
4, 6360, Note_on_c, 3, 62, 75
4, 6416, Note_on_c, 3, 57, 0
4, 6417, Note_on_c, 3, 62, 0
4, 6418, Note_on_c, 3, 50, 0
4, 6420, Note_on_c, 3, 50, 75
4, 6420, Note_on_c, 3, 57, 75
4, 6420, Note_on_c, 3, 62, 75
4, 6596, Note_on_c, 3, 57, 0
4, 6597, Note_on_c, 3, 62, 0
4, 6598, Note_on_c, 3, 50, 0
4, 6600, Note_on_c, 3, 50, 75
4, 6600, Note_on_c, 3, 57, 75
4, 6600, Note_on_c, 3, 62, 75
4, 6717, Note_on_c, 3, 50, 0
4, 6718, Note_on_c, 3, 62, 0
4, 6718, Note_on_c, 3, 57, 0
4, 6720, Note_on_c, 3, 48, 85
4, 6720, Note_on_c, 3, 55, 85
4, 6720, Note_on_c, 3, 60, 85
4, 6837, Note_on_c, 3, 48, 0
4, 6838, Note_on_c, 3, 60, 0
4, 6838, Note_on_c, 3, 55, 0
4, 6840, Note_on_c, 3, 48, 75
4, 6840, Note_on_c, 3, 55, 75
4, 6840, Note_on_c, 3, 60, 75
4, 6898, Note_on_c, 3, 60, 0
4, 6898, Note_on_c, 3, 55, 0
4, 6898, Note_on_c, 3, 48, 0
4, 6900, Note_on_c, 3, 48, 75
4, 6900, Note_on_c, 3, 55, 75
4, 6900, Note_on_c, 3, 60, 75
4, 7076, Note_on_c, 3, 60, 0
4, 7077, Note_on_c, 3, 55, 0
4, 7077, Note_on_c, 3, 48, 0
4, 7080, Note_on_c, 3, 48, 75
4, 7080, Note_on_c, 3, 55, 75
4, 7080, Note_on_c, 3, 60, 75
4, 7196, Note_on_c, 3, 60, 0
4, 7198, Note_on_c, 3, 55, 0
4, 7198, Note_on_c, 3, 48, 0
4, 7200, Note_on_c, 3, 48, 85
4, 7200, Note_on_c, 3, 55, 85
4, 7200, Note_on_c, 3, 60, 85
4, 7316, Note_on_c, 3, 48, 0
4, 7317, Note_on_c, 3, 60, 0
4, 7318, Note_on_c, 3, 55, 0
4, 7320, Note_on_c, 3, 48, 75
4, 7320, Note_on_c, 3, 55, 75
4, 7320, Note_on_c, 3, 60, 75
4, 7376, Note_on_c, 3, 48, 0
4, 7377, Note_on_c, 3, 55, 0
4, 7378, Note_on_c, 3, 60, 0
4, 7380, Note_on_c, 3, 48, 75
4, 7380, Note_on_c, 3, 55, 75
4, 7380, Note_on_c, 3, 60, 75
4, 7556, Note_on_c, 3, 48, 0
4, 7558, Note_on_c, 3, 60, 0
4, 7558, Note_on_c, 3, 55, 0
4, 7560, Note_on_c, 3, 48, 75
4, 7560, Note_on_c, 3, 55, 75
4, 7560, Note_on_c, 3, 60, 75
4, 7677, Note_on_c, 3, 48, 0
4, 7678, Note_on_c, 3, 60, 0
4, 7678, Note_on_c, 3, 55, 0
4, 7680, Note_on_c, 3, 43, 85
4, 7680, Note_on_c, 3, 50, 85
4, 7680, Note_on_c, 3, 55, 85
4, 7796, Note_on_c, 3, 55, 0
4, 7796, Note_on_c, 3, 50, 0
4, 7796, Note_on_c, 3, 43, 0
4, 7800, Note_on_c, 3, 43, 75
4, 7800, Note_on_c, 3, 50, 75
4, 7800, Note_on_c, 3, 55, 75
4, 7857, Note_on_c, 3, 55, 0
4, 7857, Note_on_c, 3, 50, 0
4, 7858, Note_on_c, 3, 43, 0
4, 7860, Note_on_c, 3, 43, 75
4, 7860, Note_on_c, 3, 50, 75
4, 7860, Note_on_c, 3, 55, 75
4, 8036, Note_on_c, 3, 55, 0
4, 8036, Note_on_c, 3, 50, 0
4, 8038, Note_on_c, 3, 43, 0
4, 8040, Note_on_c, 3, 43, 75
4, 8040, Note_on_c, 3, 50, 75
4, 8040, Note_on_c, 3, 55, 75
4, 8157, Note_on_c, 3, 55, 0
4, 8157, Note_on_c, 3, 50, 0
4, 8157, Note_on_c, 3, 43, 0
4, 8160, Note_on_c, 3, 43, 85
4, 8160, Note_on_c, 3, 50, 85
4, 8160, Note_on_c, 3, 55, 85
4, 8277, Note_on_c, 3, 55, 0
4, 8277, Note_on_c, 3, 50, 0
4, 8278, Note_on_c, 3, 43, 0
4, 8280, Note_on_c, 3, 43, 75
4, 8280, Note_on_c, 3, 50, 75
4, 8280, Note_on_c, 3, 55, 75
4, 8336, Note_on_c, 3, 55, 0
4, 8336, Note_on_c, 3, 43, 0
4, 8338, Note_on_c, 3, 50, 0
4, 8340, Note_on_c, 3, 43, 75
4, 8340, Note_on_c, 3, 50, 75
4, 8340, Note_on_c, 3, 55, 75
4, 8517, Note_on_c, 3, 43, 0
4, 8518, Note_on_c, 3, 55, 0
4, 8518, Note_on_c, 3, 50, 0
4, 8520, Note_on_c, 3, 43, 75
4, 8520, Note_on_c, 3, 50, 75
4, 8520, Note_on_c, 3, 55, 75
4, 8637, Note_on_c, 3, 55, 0
4, 8638, Note_on_c, 3, 50, 0
4, 8638, Note_on_c, 3, 43, 0
4, 8640, Note_on_c, 3, 43, 85
4, 8640, Note_on_c, 3, 50, 85
4, 8640, Note_on_c, 3, 55, 85
4, 8756, Note_on_c, 3, 50, 0
4, 8756, Note_on_c, 3, 43, 0
4, 8758, Note_on_c, 3, 55, 0
4, 8760, Note_on_c, 3, 43, 75
4, 8760, Note_on_c, 3, 50, 75
4, 8760, Note_on_c, 3, 55, 75
4, 8817, Note_on_c, 3, 43, 0
4, 8818, Note_on_c, 3, 55, 0
4, 8818, Note_on_c, 3, 50, 0
4, 8820, Note_on_c, 3, 43, 75
4, 8820, Note_on_c, 3, 50, 75
4, 8820, Note_on_c, 3, 55, 75
4, 8996, Note_on_c, 3, 50, 0
4, 8998, Note_on_c, 3, 55, 0
4, 8998, Note_on_c, 3, 43, 0
4, 9000, Note_on_c, 3, 43, 75
4, 9000, Note_on_c, 3, 50, 75
4, 9000, Note_on_c, 3, 55, 75
4, 9116, Note_on_c, 3, 55, 0
4, 9117, Note_on_c, 3, 43, 0
4, 9118, Note_on_c, 3, 50, 0
4, 9120, Note_on_c, 3, 43, 85
4, 9120, Note_on_c, 3, 50, 85
4, 9120, Note_on_c, 3, 55, 85
4, 9236, Note_on_c, 3, 50, 0
4, 9236, Note_on_c, 3, 43, 0
4, 9238, Note_on_c, 3, 55, 0
4, 9240, Note_on_c, 3, 43, 75
4, 9240, Note_on_c, 3, 50, 75
4, 9240, Note_on_c, 3, 55, 75
4, 9296, Note_on_c, 3, 55, 0
4, 9296, Note_on_c, 3, 43, 0
4, 9298, Note_on_c, 3, 50, 0
4, 9300, Note_on_c, 3, 43, 75
4, 9300, Note_on_c, 3, 50, 75
4, 9300, Note_on_c, 3, 55, 75
4, 9476, Note_on_c, 3, 55, 0
4, 9476, Note_on_c, 3, 43, 0
4, 9478, Note_on_c, 3, 50, 0
4, 9480, Note_on_c, 3, 43, 75
4, 9480, Note_on_c, 3, 50, 75
4, 9480, Note_on_c, 3, 55, 75
4, 9596, Note_on_c, 3, 55, 0
4, 9596, Note_on_c, 3, 43, 0
4, 9598, Note_on_c, 3, 50, 0
4, 9600, Note_on_c, 3, 43, 85
4, 9600, Note_on_c, 3, 50, 85
4, 9600, Note_on_c, 3, 55, 85
4, 9717, Note_on_c, 3, 55, 0
4, 9717, Note_on_c, 3, 50, 0
4, 9718, Note_on_c, 3, 43, 0
4, 9720, Note_on_c, 3, 43, 75
4, 9720, Note_on_c, 3, 50, 75
4, 9720, Note_on_c, 3, 55, 75
4, 9776, Note_on_c, 3, 43, 0
4, 9777, Note_on_c, 3, 55, 0
4, 9777, Note_on_c, 3, 50, 0
4, 9780, Note_on_c, 3, 43, 75
4, 9780, Note_on_c, 3, 50, 75
4, 9780, Note_on_c, 3, 55, 75
4, 9956, Note_on_c, 3, 43, 0
4, 9957, Note_on_c, 3, 50, 0
4, 9958, Note_on_c, 3, 55, 0
4, 9960, Note_on_c, 3, 43, 75
4, 9960, Note_on_c, 3, 50, 75
4, 9960, Note_on_c, 3, 55, 75
4, 10076, Note_on_c, 3, 55, 0
4, 10077, Note_on_c, 3, 50, 0
4, 10078, Note_on_c, 3, 43, 0
4, 10080, Note_on_c, 3, 43, 85
4, 10080, Note_on_c, 3, 50, 85
4, 10080, Note_on_c, 3, 55, 85
4, 10196, Note_on_c, 3, 43, 0
4, 10197, Note_on_c, 3, 55, 0
4, 10197, Note_on_c, 3, 50, 0
4, 10200, Note_on_c, 3, 43, 75
4, 10200, Note_on_c, 3, 50, 75
4, 10200, Note_on_c, 3, 55, 75
4, 10256, Note_on_c, 3, 55, 0
4, 10257, Note_on_c, 3, 50, 0
4, 10257, Note_on_c, 3, 43, 0
4, 10260, Note_on_c, 3, 43, 75
4, 10260, Note_on_c, 3, 50, 75
4, 10260, Note_on_c, 3, 55, 75
4, 10437, Note_on_c, 3, 55, 0
4, 10437, Note_on_c, 3, 43, 0
4, 10438, Note_on_c, 3, 50, 0
4, 10440, Note_on_c, 3, 43, 75
4, 10440, Note_on_c, 3, 50, 75
4, 10440, Note_on_c, 3, 55, 75
4, 10556, Note_on_c, 3, 55, 0
4, 10556, Note_on_c, 3, 43, 0
4, 10558, Note_on_c, 3, 50, 0
4, 10560, Note_on_c, 3, 43, 85
4, 10560, Note_on_c, 3, 50, 85
4, 10560, Note_on_c, 3, 55, 85
4, 10676, Note_on_c, 3, 43, 0
4, 10677, Note_on_c, 3, 55, 0
4, 10678, Note_on_c, 3, 50, 0
4, 10680, Note_on_c, 3, 43, 75
4, 10680, Note_on_c, 3, 50, 75
4, 10680, Note_on_c, 3, 55, 75
4, 10736, Note_on_c, 3, 55, 0
4, 10736, Note_on_c, 3, 43, 0
4, 10737, Note_on_c, 3, 50, 0
4, 10740, Note_on_c, 3, 43, 75
4, 10740, Note_on_c, 3, 50, 75
4, 10740, Note_on_c, 3, 55, 75
4, 10916, Note_on_c, 3, 43, 0
4, 10918, Note_on_c, 3, 55, 0
4, 10918, Note_on_c, 3, 50, 0
4, 10920, Note_on_c, 3, 43, 75
4, 10920, Note_on_c, 3, 50, 75
4, 10920, Note_on_c, 3, 55, 75
4, 11036, Note_on_c, 3, 55, 0
4, 11038, Note_on_c, 3, 50, 0
4, 11038, Note_on_c, 3, 43, 0
4, 11040, Note_on_c, 3, 43, 85
4, 11040, Note_on_c, 3, 50, 85
4, 11040, Note_on_c, 3, 55, 85
4, 11158, Note_on_c, 3, 55, 0
4, 11158, Note_on_c, 3, 50, 0
4, 11158, Note_on_c, 3, 43, 0
4, 11160, Note_on_c, 3, 43, 75
4, 11160, Note_on_c, 3, 50, 75
4, 11160, Note_on_c, 3, 55, 75
4, 11216, Note_on_c, 3, 55, 0
4, 11216, Note_on_c, 3, 43, 0
4, 11217, Note_on_c, 3, 50, 0
4, 11220, Note_on_c, 3, 43, 75
4, 11220, Note_on_c, 3, 50, 75
4, 11220, Note_on_c, 3, 55, 75
4, 11396, Note_on_c, 3, 50, 0
4, 11397, Note_on_c, 3, 55, 0
4, 11397, Note_on_c, 3, 43, 0
4, 11400, Note_on_c, 3, 43, 75
4, 11400, Note_on_c, 3, 50, 75
4, 11400, Note_on_c, 3, 55, 75
4, 11516, Note_on_c, 3, 55, 0
4, 11516, Note_on_c, 3, 50, 0
4, 11517, Note_on_c, 3, 43, 0
4, 11520, Note_on_c, 3, 43, 85
4, 11520, Note_on_c, 3, 50, 85
4, 11520, Note_on_c, 3, 55, 85
4, 11637, Note_on_c, 3, 55, 0
4, 11637, Note_on_c, 3, 50, 0
4, 11638, Note_on_c, 3, 43, 0
4, 11640, Note_on_c, 3, 43, 75
4, 11640, Note_on_c, 3, 50, 75
4, 11640, Note_on_c, 3, 55, 75
4, 11997, Note_on_c, 3, 55, 0
4, 11997, Note_on_c, 3, 43, 0
4, 11998, Note_on_c, 3, 50, 0
4, 12000, Note_on_c, 3, 43, 85
4, 12000, Note_on_c, 3, 50, 85
4, 12000, Note_on_c, 3, 55, 85
4, 12116, Note_on_c, 3, 43, 0
4, 12118, Note_on_c, 3, 55, 0
4, 12118, Note_on_c, 3, 50, 0
4, 12120, Note_on_c, 3, 43, 75
4, 12120, Note_on_c, 3, 50, 75
4, 12120, Note_on_c, 3, 55, 75
4, 12176, Note_on_c, 3, 55, 0
4, 12176, Note_on_c, 3, 50, 0
4, 12178, Note_on_c, 3, 43, 0
4, 12180, Note_on_c, 3, 43, 75
4, 12180, Note_on_c, 3, 50, 75
4, 12180, Note_on_c, 3, 55, 75
4, 12357, Note_on_c, 3, 55, 0
4, 12358, Note_on_c, 3, 50, 0
4, 12358, Note_on_c, 3, 43, 0
4, 12360, Note_on_c, 3, 43, 75
4, 12360, Note_on_c, 3, 50, 75
4, 12360, Note_on_c, 3, 55, 75
4, 12476, Note_on_c, 3, 55, 0
4, 12478, Note_on_c, 3, 50, 0
4, 12478, Note_on_c, 3, 43, 0
4, 12480, Note_on_c, 3, 43, 85
4, 12480, Note_on_c, 3, 50, 85
4, 12480, Note_on_c, 3, 55, 85
4, 12597, Note_on_c, 3, 55, 0
4, 12597, Note_on_c, 3, 50, 0
4, 12597, Note_on_c, 3, 43, 0
4, 12600, Note_on_c, 3, 43, 75
4, 12600, Note_on_c, 3, 50, 75
4, 12600, Note_on_c, 3, 55, 75
4, 12957, Note_on_c, 3, 55, 0
4, 12957, Note_on_c, 3, 43, 0
4, 12958, Note_on_c, 3, 50, 0
4, 12960, Note_on_c, 3, 43, 85
4, 12960, Note_on_c, 3, 50, 85
4, 12960, Note_on_c, 3, 55, 85
4, 13076, Note_on_c, 3, 43, 0
4, 13077, Note_on_c, 3, 55, 0
4, 13078, Note_on_c, 3, 50, 0
4, 13080, Note_on_c, 3, 43, 75
4, 13080, Note_on_c, 3, 50, 75
4, 13080, Note_on_c, 3, 55, 75
4, 13136, Note_on_c, 3, 55, 0
4, 13137, Note_on_c, 3, 43, 0
4, 13138, Note_on_c, 3, 50, 0
4, 13140, Note_on_c, 3, 43, 75
4, 13140, Note_on_c, 3, 50, 75
4, 13140, Note_on_c, 3, 55, 75
4, 13316, Note_on_c, 3, 43, 0
4, 13317, Note_on_c, 3, 55, 0
4, 13317, Note_on_c, 3, 50, 0
4, 13320, Note_on_c, 3, 43, 75
4, 13320, Note_on_c, 3, 50, 75
4, 13320, Note_on_c, 3, 55, 75
4, 13436, Note_on_c, 3, 43, 0
4, 13438, Note_on_c, 3, 55, 0
4, 13438, Note_on_c, 3, 50, 0
4, 13440, Note_on_c, 3, 48, 85
4, 13440, Note_on_c, 3, 55, 85
4, 13440, Note_on_c, 3, 60, 85
4, 13556, Note_on_c, 3, 55, 0
4, 13556, Note_on_c, 3, 48, 0
4, 13557, Note_on_c, 3, 60, 0
4, 13560, Note_on_c, 3, 48, 75
4, 13560, Note_on_c, 3, 55, 75
4, 13560, Note_on_c, 3, 60, 75
4, 13616, Note_on_c, 3, 60, 0
4, 13618, Note_on_c, 3, 55, 0
4, 13618, Note_on_c, 3, 48, 0
4, 13620, Note_on_c, 3, 48, 75
4, 13620, Note_on_c, 3, 55, 75
4, 13620, Note_on_c, 3, 60, 75
4, 13796, Note_on_c, 3, 48, 0
4, 13798, Note_on_c, 3, 60, 0
4, 13798, Note_on_c, 3, 55, 0
4, 13800, Note_on_c, 3, 48, 75
4, 13800, Note_on_c, 3, 55, 75
4, 13800, Note_on_c, 3, 60, 75
4, 13917, Note_on_c, 3, 48, 0
4, 13918, Note_on_c, 3, 60, 0
4, 13918, Note_on_c, 3, 55, 0
4, 13920, Note_on_c, 3, 48, 85
4, 13920, Note_on_c, 3, 55, 85
4, 13920, Note_on_c, 3, 60, 85
4, 14037, Note_on_c, 3, 55, 0
4, 14037, Note_on_c, 3, 48, 0
4, 14038, Note_on_c, 3, 60, 0
4, 14040, Note_on_c, 3, 48, 75
4, 14040, Note_on_c, 3, 55, 75
4, 14040, Note_on_c, 3, 60, 75
4, 14096, Note_on_c, 3, 60, 0
4, 14097, Note_on_c, 3, 48, 0
4, 14098, Note_on_c, 3, 55, 0
4, 14100, Note_on_c, 3, 48, 75
4, 14100, Note_on_c, 3, 55, 75
4, 14100, Note_on_c, 3, 60, 75
4, 14277, Note_on_c, 3, 55, 0
4, 14277, Note_on_c, 3, 48, 0
4, 14278, Note_on_c, 3, 60, 0
4, 14280, Note_on_c, 3, 48, 75
4, 14280, Note_on_c, 3, 55, 75
4, 14280, Note_on_c, 3, 60, 75
4, 14396, Note_on_c, 3, 60, 0
4, 14397, Note_on_c, 3, 55, 0
4, 14397, Note_on_c, 3, 48, 0
4, 14400, Note_on_c, 3, 43, 85
4, 14400, Note_on_c, 3, 50, 85
4, 14400, Note_on_c, 3, 55, 85
4, 14516, Note_on_c, 3, 55, 0
4, 14516, Note_on_c, 3, 50, 0
4, 14518, Note_on_c, 3, 43, 0
4, 14520, Note_on_c, 3, 43, 75
4, 14520, Note_on_c, 3, 50, 75
4, 14520, Note_on_c, 3, 55, 75
4, 14576, Note_on_c, 3, 55, 0
4, 14576, Note_on_c, 3, 50, 0
4, 14576, Note_on_c, 3, 43, 0
4, 14580, Note_on_c, 3, 43, 75
4, 14580, Note_on_c, 3, 50, 75
4, 14580, Note_on_c, 3, 55, 75
4, 14756, Note_on_c, 3, 50, 0
4, 14757, Note_on_c, 3, 43, 0
4, 14758, Note_on_c, 3, 55, 0
4, 14760, Note_on_c, 3, 43, 75
4, 14760, Note_on_c, 3, 50, 75
4, 14760, Note_on_c, 3, 55, 75
4, 14877, Note_on_c, 3, 55, 0
4, 14877, Note_on_c, 3, 43, 0
4, 14878, Note_on_c, 3, 50, 0
4, 14880, Note_on_c, 3, 43, 85
4, 14880, Note_on_c, 3, 50, 85
4, 14880, Note_on_c, 3, 55, 85
4, 14996, Note_on_c, 3, 43, 0
4, 14997, Note_on_c, 3, 55, 0
4, 14997, Note_on_c, 3, 50, 0
4, 15000, Note_on_c, 3, 43, 75
4, 15000, Note_on_c, 3, 50, 75
4, 15000, Note_on_c, 3, 55, 75
4, 15056, Note_on_c, 3, 55, 0
4, 15058, Note_on_c, 3, 50, 0
4, 15058, Note_on_c, 3, 43, 0
4, 15060, Note_on_c, 3, 43, 75
4, 15060, Note_on_c, 3, 50, 75
4, 15060, Note_on_c, 3, 55, 75
4, 15236, Note_on_c, 3, 55, 0
4, 15236, Note_on_c, 3, 50, 0
4, 15236, Note_on_c, 3, 43, 0
4, 15240, Note_on_c, 3, 43, 75
4, 15240, Note_on_c, 3, 50, 75
4, 15240, Note_on_c, 3, 55, 75
4, 15356, Note_on_c, 3, 43, 0
4, 15358, Note_on_c, 3, 55, 0
4, 15358, Note_on_c, 3, 50, 0
4, 15360, Note_on_c, 3, 50, 85
4, 15360, Note_on_c, 3, 57, 85
4, 15360, Note_on_c, 3, 62, 85
4, 15476, Note_on_c, 3, 57, 0
4, 15477, Note_on_c, 3, 62, 0
4, 15478, Note_on_c, 3, 50, 0
4, 15480, Note_on_c, 3, 50, 75
4, 15480, Note_on_c, 3, 57, 75
4, 15480, Note_on_c, 3, 62, 75
4, 15536, Note_on_c, 3, 62, 0
4, 15536, Note_on_c, 3, 50, 0
4, 15537, Note_on_c, 3, 57, 0
4, 15540, Note_on_c, 3, 50, 75
4, 15540, Note_on_c, 3, 57, 75
4, 15540, Note_on_c, 3, 62, 75
4, 15716, Note_on_c, 3, 57, 0
4, 15718, Note_on_c, 3, 62, 0
4, 15718, Note_on_c, 3, 50, 0
4, 15720, Note_on_c, 3, 50, 75
4, 15720, Note_on_c, 3, 57, 75
4, 15720, Note_on_c, 3, 62, 75
4, 15836, Note_on_c, 3, 62, 0
4, 15836, Note_on_c, 3, 57, 0
4, 15838, Note_on_c, 3, 50, 0
4, 15840, Note_on_c, 3, 50, 85
4, 15840, Note_on_c, 3, 57, 85
4, 15840, Note_on_c, 3, 62, 85
4, 15956, Note_on_c, 3, 62, 0
4, 15956, Note_on_c, 3, 50, 0
4, 15957, Note_on_c, 3, 57, 0
4, 15960, Note_on_c, 3, 50, 75
4, 15960, Note_on_c, 3, 57, 75
4, 15960, Note_on_c, 3, 62, 75
4, 16016, Note_on_c, 3, 62, 0
4, 16016, Note_on_c, 3, 50, 0
4, 16017, Note_on_c, 3, 57, 0
4, 16020, Note_on_c, 3, 50, 75
4, 16020, Note_on_c, 3, 57, 75
4, 16020, Note_on_c, 3, 62, 75
4, 16196, Note_on_c, 3, 62, 0
4, 16196, Note_on_c, 3, 57, 0
4, 16197, Note_on_c, 3, 50, 0
4, 16200, Note_on_c, 3, 50, 75
4, 16200, Note_on_c, 3, 57, 75
4, 16200, Note_on_c, 3, 62, 75
4, 16316, Note_on_c, 3, 62, 0
4, 16317, Note_on_c, 3, 50, 0
4, 16318, Note_on_c, 3, 57, 0
4, 16320, Note_on_c, 3, 48, 85
4, 16320, Note_on_c, 3, 55, 85
4, 16320, Note_on_c, 3, 60, 85
4, 16437, Note_on_c, 3, 55, 0
4, 16437, Note_on_c, 3, 48, 0
4, 16438, Note_on_c, 3, 60, 0
4, 16440, Note_on_c, 3, 48, 75
4, 16440, Note_on_c, 3, 55, 75
4, 16440, Note_on_c, 3, 60, 75
4, 16496, Note_on_c, 3, 60, 0
4, 16496, Note_on_c, 3, 48, 0
4, 16498, Note_on_c, 3, 55, 0
4, 16500, Note_on_c, 3, 48, 75
4, 16500, Note_on_c, 3, 55, 75
4, 16500, Note_on_c, 3, 60, 75
4, 16676, Note_on_c, 3, 55, 0
4, 16677, Note_on_c, 3, 48, 0
4, 16678, Note_on_c, 3, 60, 0
4, 16680, Note_on_c, 3, 48, 75
4, 16680, Note_on_c, 3, 55, 75
4, 16680, Note_on_c, 3, 60, 75
4, 16796, Note_on_c, 3, 60, 0
4, 16796, Note_on_c, 3, 55, 0
4, 16798, Note_on_c, 3, 48, 0
4, 16800, Note_on_c, 3, 48, 85
4, 16800, Note_on_c, 3, 55, 85
4, 16800, Note_on_c, 3, 60, 85
4, 16916, Note_on_c, 3, 60, 0
4, 16916, Note_on_c, 3, 48, 0
4, 16918, Note_on_c, 3, 55, 0
4, 16920, Note_on_c, 3, 48, 75
4, 16920, Note_on_c, 3, 55, 75
4, 16920, Note_on_c, 3, 60, 75
4, 16978, Note_on_c, 3, 60, 0
4, 16978, Note_on_c, 3, 55, 0
4, 16978, Note_on_c, 3, 48, 0
4, 16980, Note_on_c, 3, 48, 75
4, 16980, Note_on_c, 3, 55, 75
4, 16980, Note_on_c, 3, 60, 75
4, 17156, Note_on_c, 3, 55, 0
4, 17157, Note_on_c, 3, 60, 0
4, 17157, Note_on_c, 3, 48, 0
4, 17160, Note_on_c, 3, 48, 75
4, 17160, Note_on_c, 3, 55, 75
4, 17160, Note_on_c, 3, 60, 75
4, 17276, Note_on_c, 3, 55, 0
4, 17277, Note_on_c, 3, 48, 0
4, 17278, Note_on_c, 3, 60, 0
4, 17280, Note_on_c, 3, 43, 85
4, 17280, Note_on_c, 3, 50, 85
4, 17280, Note_on_c, 3, 55, 85
4, 17396, Note_on_c, 3, 50, 0
4, 17397, Note_on_c, 3, 43, 0
4, 17398, Note_on_c, 3, 55, 0
4, 17400, Note_on_c, 3, 43, 75
4, 17400, Note_on_c, 3, 50, 75
4, 17400, Note_on_c, 3, 55, 75
4, 17456, Note_on_c, 3, 50, 0
4, 17457, Note_on_c, 3, 55, 0
4, 17458, Note_on_c, 3, 43, 0
4, 17460, Note_on_c, 3, 43, 75
4, 17460, Note_on_c, 3, 50, 75
4, 17460, Note_on_c, 3, 55, 75
4, 17636, Note_on_c, 3, 50, 0
4, 17637, Note_on_c, 3, 55, 0
4, 17637, Note_on_c, 3, 43, 0
4, 17640, Note_on_c, 3, 43, 75
4, 17640, Note_on_c, 3, 50, 75
4, 17640, Note_on_c, 3, 55, 75
4, 17756, Note_on_c, 3, 55, 0
4, 17757, Note_on_c, 3, 50, 0
4, 17757, Note_on_c, 3, 43, 0
4, 17760, Note_on_c, 3, 43, 85
4, 17760, Note_on_c, 3, 50, 85
4, 17760, Note_on_c, 3, 55, 85
4, 17876, Note_on_c, 3, 55, 0
4, 17877, Note_on_c, 3, 43, 0
4, 17878, Note_on_c, 3, 50, 0
4, 17880, Note_on_c, 3, 43, 75
4, 17880, Note_on_c, 3, 50, 75
4, 17880, Note_on_c, 3, 55, 75
4, 17936, Note_on_c, 3, 43, 0
4, 17937, Note_on_c, 3, 55, 0
4, 17938, Note_on_c, 3, 50, 0
4, 17940, Note_on_c, 3, 43, 75
4, 17940, Note_on_c, 3, 50, 75
4, 17940, Note_on_c, 3, 55, 75
4, 18116, Note_on_c, 3, 50, 0
4, 18116, Note_on_c, 3, 43, 0
4, 18118, Note_on_c, 3, 55, 0
4, 18120, Note_on_c, 3, 43, 75
4, 18120, Note_on_c, 3, 50, 75
4, 18120, Note_on_c, 3, 55, 75
4, 18236, Note_on_c, 3, 50, 0
4, 18237, Note_on_c, 3, 55, 0
4, 18238, Note_on_c, 3, 43, 0
4, 18240, Note_on_c, 3, 43, 85
4, 18240, Note_on_c, 3, 50, 85
4, 18240, Note_on_c, 3, 55, 85
4, 18356, Note_on_c, 3, 55, 0
4, 18357, Note_on_c, 3, 50, 0
4, 18358, Note_on_c, 3, 43, 0
4, 18360, Note_on_c, 3, 43, 75
4, 18360, Note_on_c, 3, 50, 75
4, 18360, Note_on_c, 3, 55, 75
4, 18416, Note_on_c, 3, 55, 0
4, 18416, Note_on_c, 3, 43, 0
4, 18417, Note_on_c, 3, 50, 0
4, 18420, Note_on_c, 3, 43, 75
4, 18420, Note_on_c, 3, 50, 75
4, 18420, Note_on_c, 3, 55, 75
4, 18596, Note_on_c, 3, 43, 0
4, 18597, Note_on_c, 3, 55, 0
4, 18598, Note_on_c, 3, 50, 0
4, 18600, Note_on_c, 3, 43, 75
4, 18600, Note_on_c, 3, 50, 75
4, 18600, Note_on_c, 3, 55, 75
4, 18717, Note_on_c, 3, 55, 0
4, 18717, Note_on_c, 3, 43, 0
4, 18718, Note_on_c, 3, 50, 0
4, 18720, Note_on_c, 3, 43, 85
4, 18720, Note_on_c, 3, 50, 85
4, 18720, Note_on_c, 3, 55, 85
4, 18836, Note_on_c, 3, 43, 0
4, 18837, Note_on_c, 3, 55, 0
4, 18837, Note_on_c, 3, 50, 0
4, 18840, Note_on_c, 3, 43, 75
4, 18840, Note_on_c, 3, 50, 75
4, 18840, Note_on_c, 3, 55, 75
4, 18897, Note_on_c, 3, 50, 0
4, 18897, Note_on_c, 3, 43, 0
4, 18898, Note_on_c, 3, 55, 0
4, 18900, Note_on_c, 3, 43, 75
4, 18900, Note_on_c, 3, 50, 75
4, 18900, Note_on_c, 3, 55, 75
4, 19076, Note_on_c, 3, 50, 0
4, 19077, Note_on_c, 3, 55, 0
4, 19078, Note_on_c, 3, 43, 0
4, 19080, Note_on_c, 3, 43, 75
4, 19080, Note_on_c, 3, 50, 75
4, 19080, Note_on_c, 3, 55, 75
4, 19196, Note_on_c, 3, 55, 0
4, 19196, Note_on_c, 3, 50, 0
4, 19198, Note_on_c, 3, 43, 0
4, 19200, Note_on_c, 3, 43, 85
4, 19200, Note_on_c, 3, 50, 85
4, 19200, Note_on_c, 3, 55, 85
4, 19316, Note_on_c, 3, 50, 0
4, 19316, Note_on_c, 3, 43, 0
4, 19317, Note_on_c, 3, 55, 0
4, 19320, Note_on_c, 3, 43, 75
4, 19320, Note_on_c, 3, 50, 75
4, 19320, Note_on_c, 3, 55, 75
4, 19376, Note_on_c, 3, 50, 0
4, 19377, Note_on_c, 3, 43, 0
4, 19378, Note_on_c, 3, 55, 0
4, 19380, Note_on_c, 3, 43, 75
4, 19380, Note_on_c, 3, 50, 75
4, 19380, Note_on_c, 3, 55, 75
4, 19556, Note_on_c, 3, 50, 0
4, 19556, Note_on_c, 3, 43, 0
4, 19557, Note_on_c, 3, 55, 0
4, 19560, Note_on_c, 3, 43, 75
4, 19560, Note_on_c, 3, 50, 75
4, 19560, Note_on_c, 3, 55, 75
4, 19676, Note_on_c, 3, 55, 0
4, 19676, Note_on_c, 3, 50, 0
4, 19677, Note_on_c, 3, 43, 0
4, 19680, Note_on_c, 3, 43, 85
4, 19680, Note_on_c, 3, 50, 85
4, 19680, Note_on_c, 3, 55, 85
4, 19796, Note_on_c, 3, 55, 0
4, 19797, Note_on_c, 3, 50, 0
4, 19798, Note_on_c, 3, 43, 0
4, 19800, Note_on_c, 3, 43, 75
4, 19800, Note_on_c, 3, 50, 75
4, 19800, Note_on_c, 3, 55, 75
4, 19857, Note_on_c, 3, 55, 0
4, 19858, Note_on_c, 3, 50, 0
4, 19858, Note_on_c, 3, 43, 0
4, 19860, Note_on_c, 3, 43, 75
4, 19860, Note_on_c, 3, 50, 75
4, 19860, Note_on_c, 3, 55, 75
4, 20036, Note_on_c, 3, 55, 0
4, 20037, Note_on_c, 3, 50, 0
4, 20037, Note_on_c, 3, 43, 0
4, 20040, Note_on_c, 3, 43, 75
4, 20040, Note_on_c, 3, 50, 75
4, 20040, Note_on_c, 3, 55, 75
4, 20158, Note_on_c, 3, 55, 0
4, 20158, Note_on_c, 3, 50, 0
4, 20158, Note_on_c, 3, 43, 0
4, 20160, Note_on_c, 3, 43, 85
4, 20160, Note_on_c, 3, 50, 85
4, 20160, Note_on_c, 3, 55, 85
4, 20278, Note_on_c, 3, 55, 0
4, 20278, Note_on_c, 3, 50, 0
4, 20278, Note_on_c, 3, 43, 0
4, 20280, Note_on_c, 3, 43, 75
4, 20280, Note_on_c, 3, 50, 75
4, 20280, Note_on_c, 3, 55, 75
4, 20336, Note_on_c, 3, 43, 0
4, 20337, Note_on_c, 3, 55, 0
4, 20337, Note_on_c, 3, 50, 0
4, 20340, Note_on_c, 3, 43, 75
4, 20340, Note_on_c, 3, 50, 75
4, 20340, Note_on_c, 3, 55, 75
4, 20517, Note_on_c, 3, 50, 0
4, 20517, Note_on_c, 3, 43, 0
4, 20518, Note_on_c, 3, 55, 0
4, 20520, Note_on_c, 3, 43, 75
4, 20520, Note_on_c, 3, 50, 75
4, 20520, Note_on_c, 3, 55, 75
4, 20636, Note_on_c, 3, 55, 0
4, 20638, Note_on_c, 3, 50, 0
4, 20638, Note_on_c, 3, 43, 0
4, 20640, Note_on_c, 3, 43, 85
4, 20640, Note_on_c, 3, 50, 85
4, 20640, Note_on_c, 3, 55, 85
4, 20756, Note_on_c, 3, 55, 0
4, 20756, Note_on_c, 3, 43, 0
4, 20758, Note_on_c, 3, 50, 0
4, 20760, Note_on_c, 3, 43, 75
4, 20760, Note_on_c, 3, 50, 75
4, 20760, Note_on_c, 3, 55, 75
4, 20817, Note_on_c, 3, 55, 0
4, 20817, Note_on_c, 3, 50, 0
4, 20818, Note_on_c, 3, 43, 0
4, 20820, Note_on_c, 3, 43, 75
4, 20820, Note_on_c, 3, 50, 75
4, 20820, Note_on_c, 3, 55, 75
4, 20996, Note_on_c, 3, 43, 0
4, 20997, Note_on_c, 3, 50, 0
4, 20998, Note_on_c, 3, 55, 0
4, 21000, Note_on_c, 3, 43, 75
4, 21000, Note_on_c, 3, 50, 75
4, 21000, Note_on_c, 3, 55, 75
4, 21116, Note_on_c, 3, 50, 0
4, 21117, Note_on_c, 3, 55, 0
4, 21117, Note_on_c, 3, 43, 0
4, 21120, Note_on_c, 3, 43, 85
4, 21120, Note_on_c, 3, 50, 85
4, 21120, Note_on_c, 3, 55, 85
4, 21236, Note_on_c, 3, 55, 0
4, 21237, Note_on_c, 3, 50, 0
4, 21237, Note_on_c, 3, 43, 0
4, 21240, Note_on_c, 3, 43, 75
4, 21240, Note_on_c, 3, 50, 75
4, 21240, Note_on_c, 3, 55, 75
4, 21297, Note_on_c, 3, 55, 0
4, 21297, Note_on_c, 3, 50, 0
4, 21298, Note_on_c, 3, 43, 0
4, 21300, Note_on_c, 3, 43, 75
4, 21300, Note_on_c, 3, 50, 75
4, 21300, Note_on_c, 3, 55, 75
4, 21476, Note_on_c, 3, 43, 0
4, 21477, Note_on_c, 3, 55, 0
4, 21478, Note_on_c, 3, 50, 0
4, 21480, Note_on_c, 3, 43, 75
4, 21480, Note_on_c, 3, 50, 75
4, 21480, Note_on_c, 3, 55, 75
4, 21596, Note_on_c, 3, 55, 0
4, 21596, Note_on_c, 3, 50, 0
4, 21596, Note_on_c, 3, 43, 0
4, 21600, Note_on_c, 3, 43, 85
4, 21600, Note_on_c, 3, 50, 85
4, 21600, Note_on_c, 3, 55, 85
4, 21716, Note_on_c, 3, 55, 0
4, 21716, Note_on_c, 3, 50, 0
4, 21717, Note_on_c, 3, 43, 0
4, 21720, Note_on_c, 3, 43, 75
4, 21720, Note_on_c, 3, 50, 75
4, 21720, Note_on_c, 3, 55, 75
4, 21776, Note_on_c, 3, 55, 0
4, 21777, Note_on_c, 3, 50, 0
4, 21777, Note_on_c, 3, 43, 0
4, 21780, Note_on_c, 3, 43, 75
4, 21780, Note_on_c, 3, 50, 75
4, 21780, Note_on_c, 3, 55, 75
4, 21957, Note_on_c, 3, 55, 0
4, 21957, Note_on_c, 3, 50, 0
4, 21957, Note_on_c, 3, 43, 0
4, 21960, Note_on_c, 3, 43, 75
4, 21960, Note_on_c, 3, 50, 75
4, 21960, Note_on_c, 3, 55, 75
4, 22076, Note_on_c, 3, 50, 0
4, 22076, Note_on_c, 3, 43, 0
4, 22077, Note_on_c, 3, 55, 0
4, 22080, Note_on_c, 3, 43, 85
4, 22080, Note_on_c, 3, 50, 85
4, 22080, Note_on_c, 3, 55, 85
4, 22196, Note_on_c, 3, 50, 0
4, 22197, Note_on_c, 3, 43, 0
4, 22198, Note_on_c, 3, 55, 0
4, 22200, Note_on_c, 3, 43, 75
4, 22200, Note_on_c, 3, 50, 75
4, 22200, Note_on_c, 3, 55, 75
4, 22256, Note_on_c, 3, 50, 0
4, 22256, Note_on_c, 3, 43, 0
4, 22258, Note_on_c, 3, 55, 0
4, 22260, Note_on_c, 3, 43, 75
4, 22260, Note_on_c, 3, 50, 75
4, 22260, Note_on_c, 3, 55, 75
4, 22436, Note_on_c, 3, 43, 0
4, 22437, Note_on_c, 3, 50, 0
4, 22438, Note_on_c, 3, 55, 0
4, 22440, Note_on_c, 3, 43, 75
4, 22440, Note_on_c, 3, 50, 75
4, 22440, Note_on_c, 3, 55, 75
4, 22556, Note_on_c, 3, 55, 0
4, 22557, Note_on_c, 3, 50, 0
4, 22558, Note_on_c, 3, 43, 0
4, 22560, Note_on_c, 3, 43, 85
4, 22560, Note_on_c, 3, 50, 85
4, 22560, Note_on_c, 3, 55, 85
4, 22676, Note_on_c, 3, 50, 0
4, 22677, Note_on_c, 3, 55, 0
4, 22677, Note_on_c, 3, 43, 0
4, 22680, Note_on_c, 3, 43, 75
4, 22680, Note_on_c, 3, 50, 75
4, 22680, Note_on_c, 3, 55, 75
4, 22736, Note_on_c, 3, 50, 0
4, 22737, Note_on_c, 3, 55, 0
4, 22738, Note_on_c, 3, 43, 0
4, 22740, Note_on_c, 3, 43, 75
4, 22740, Note_on_c, 3, 50, 75
4, 22740, Note_on_c, 3, 55, 75
4, 22916, Note_on_c, 3, 55, 0
4, 22916, Note_on_c, 3, 43, 0
4, 22918, Note_on_c, 3, 50, 0
4, 22920, Note_on_c, 3, 43, 75
4, 22920, Note_on_c, 3, 50, 75
4, 22920, Note_on_c, 3, 55, 75
4, 23037, Note_on_c, 3, 55, 0
4, 23037, Note_on_c, 3, 43, 0
4, 23038, Note_on_c, 3, 50, 0
4, 23040, Note_on_c, 3, 48, 85
4, 23040, Note_on_c, 3, 55, 85
4, 23040, Note_on_c, 3, 60, 85
4, 23156, Note_on_c, 3, 48, 0
4, 23157, Note_on_c, 3, 60, 0
4, 23157, Note_on_c, 3, 55, 0
4, 23160, Note_on_c, 3, 48, 75
4, 23160, Note_on_c, 3, 55, 75
4, 23160, Note_on_c, 3, 60, 75
4, 23216, Note_on_c, 3, 60, 0
4, 23217, Note_on_c, 3, 55, 0
4, 23217, Note_on_c, 3, 48, 0
4, 23220, Note_on_c, 3, 48, 75
4, 23220, Note_on_c, 3, 55, 75
4, 23220, Note_on_c, 3, 60, 75
4, 23396, Note_on_c, 3, 55, 0
4, 23396, Note_on_c, 3, 48, 0
4, 23397, Note_on_c, 3, 60, 0
4, 23400, Note_on_c, 3, 48, 75
4, 23400, Note_on_c, 3, 55, 75
4, 23400, Note_on_c, 3, 60, 75
4, 23516, Note_on_c, 3, 60, 0
4, 23516, Note_on_c, 3, 55, 0
4, 23518, Note_on_c, 3, 48, 0
4, 23520, Note_on_c, 3, 48, 85
4, 23520, Note_on_c, 3, 55, 85
4, 23520, Note_on_c, 3, 60, 85
4, 23637, Note_on_c, 3, 55, 0
4, 23638, Note_on_c, 3, 60, 0
4, 23638, Note_on_c, 3, 48, 0
4, 23640, Note_on_c, 3, 48, 75
4, 23640, Note_on_c, 3, 55, 75
4, 23640, Note_on_c, 3, 60, 75
4, 23696, Note_on_c, 3, 55, 0
4, 23696, Note_on_c, 3, 48, 0
4, 23698, Note_on_c, 3, 60, 0
4, 23700, Note_on_c, 3, 48, 75
4, 23700, Note_on_c, 3, 55, 75
4, 23700, Note_on_c, 3, 60, 75
4, 23876, Note_on_c, 3, 60, 0
4, 23876, Note_on_c, 3, 55, 0
4, 23876, Note_on_c, 3, 48, 0
4, 23880, Note_on_c, 3, 48, 75
4, 23880, Note_on_c, 3, 55, 75
4, 23880, Note_on_c, 3, 60, 75
4, 23996, Note_on_c, 3, 48, 0
4, 23997, Note_on_c, 3, 55, 0
4, 23998, Note_on_c, 3, 60, 0
4, 24000, Note_on_c, 3, 43, 85
4, 24000, Note_on_c, 3, 50, 85
4, 24000, Note_on_c, 3, 55, 85
4, 24116, Note_on_c, 3, 55, 0
4, 24116, Note_on_c, 3, 50, 0
4, 24117, Note_on_c, 3, 43, 0
4, 24120, Note_on_c, 3, 43, 75
4, 24120, Note_on_c, 3, 50, 75
4, 24120, Note_on_c, 3, 55, 75
4, 24177, Note_on_c, 3, 50, 0
4, 24177, Note_on_c, 3, 43, 0
4, 24178, Note_on_c, 3, 55, 0
4, 24180, Note_on_c, 3, 43, 75
4, 24180, Note_on_c, 3, 50, 75
4, 24180, Note_on_c, 3, 55, 75
4, 24357, Note_on_c, 3, 55, 0
4, 24358, Note_on_c, 3, 50, 0
4, 24358, Note_on_c, 3, 43, 0
4, 24360, Note_on_c, 3, 43, 75
4, 24360, Note_on_c, 3, 50, 75
4, 24360, Note_on_c, 3, 55, 75
4, 24476, Note_on_c, 3, 50, 0
4, 24477, Note_on_c, 3, 55, 0
4, 24477, Note_on_c, 3, 43, 0
4, 24480, Note_on_c, 3, 43, 85
4, 24480, Note_on_c, 3, 50, 85
4, 24480, Note_on_c, 3, 55, 85
4, 24596, Note_on_c, 3, 43, 0
4, 24598, Note_on_c, 3, 55, 0
4, 24598, Note_on_c, 3, 50, 0
4, 24600, Note_on_c, 3, 43, 75
4, 24600, Note_on_c, 3, 50, 75
4, 24600, Note_on_c, 3, 55, 75
4, 24656, Note_on_c, 3, 50, 0
4, 24656, Note_on_c, 3, 43, 0
4, 24658, Note_on_c, 3, 55, 0
4, 24660, Note_on_c, 3, 43, 75
4, 24660, Note_on_c, 3, 50, 75
4, 24660, Note_on_c, 3, 55, 75
4, 24837, Note_on_c, 3, 55, 0
4, 24837, Note_on_c, 3, 50, 0
4, 24838, Note_on_c, 3, 43, 0
4, 24840, Note_on_c, 3, 43, 75
4, 24840, Note_on_c, 3, 50, 75
4, 24840, Note_on_c, 3, 55, 75
4, 24956, Note_on_c, 3, 43, 0
4, 24957, Note_on_c, 3, 55, 0
4, 24958, Note_on_c, 3, 50, 0
4, 24960, Note_on_c, 3, 50, 85
4, 24960, Note_on_c, 3, 57, 85
4, 24960, Note_on_c, 3, 62, 85
4, 25076, Note_on_c, 3, 62, 0
4, 25076, Note_on_c, 3, 57, 0
4, 25077, Note_on_c, 3, 50, 0
4, 25080, Note_on_c, 3, 50, 75
4, 25080, Note_on_c, 3, 57, 75
4, 25080, Note_on_c, 3, 62, 75
4, 25136, Note_on_c, 3, 57, 0
4, 25138, Note_on_c, 3, 62, 0
4, 25138, Note_on_c, 3, 50, 0
4, 25140, Note_on_c, 3, 50, 75
4, 25140, Note_on_c, 3, 57, 75
4, 25140, Note_on_c, 3, 62, 75
4, 25318, Note_on_c, 3, 62, 0
4, 25318, Note_on_c, 3, 57, 0
4, 25318, Note_on_c, 3, 50, 0
4, 25320, Note_on_c, 3, 50, 75
4, 25320, Note_on_c, 3, 57, 75
4, 25320, Note_on_c, 3, 62, 75
4, 25436, Note_on_c, 3, 57, 0
4, 25436, Note_on_c, 3, 50, 0
4, 25438, Note_on_c, 3, 62, 0
4, 25440, Note_on_c, 3, 50, 85
4, 25440, Note_on_c, 3, 57, 85
4, 25440, Note_on_c, 3, 62, 85
4, 25557, Note_on_c, 3, 62, 0
4, 25557, Note_on_c, 3, 50, 0
4, 25558, Note_on_c, 3, 57, 0
4, 25560, Note_on_c, 3, 50, 75
4, 25560, Note_on_c, 3, 57, 75
4, 25560, Note_on_c, 3, 62, 75
4, 25616, Note_on_c, 3, 62, 0
4, 25616, Note_on_c, 3, 57, 0
4, 25618, Note_on_c, 3, 50, 0
4, 25620, Note_on_c, 3, 50, 75
4, 25620, Note_on_c, 3, 57, 75
4, 25620, Note_on_c, 3, 62, 75
4, 25798, Note_on_c, 3, 62, 0
4, 25798, Note_on_c, 3, 57, 0
4, 25798, Note_on_c, 3, 50, 0
4, 25800, Note_on_c, 3, 50, 75
4, 25800, Note_on_c, 3, 57, 75
4, 25800, Note_on_c, 3, 62, 75
4, 25916, Note_on_c, 3, 50, 0
4, 25917, Note_on_c, 3, 62, 0
4, 25917, Note_on_c, 3, 57, 0
4, 25920, Note_on_c, 3, 48, 85
4, 25920, Note_on_c, 3, 55, 85
4, 25920, Note_on_c, 3, 60, 85
4, 26036, Note_on_c, 3, 55, 0
4, 26037, Note_on_c, 3, 48, 0
4, 26038, Note_on_c, 3, 60, 0
4, 26040, Note_on_c, 3, 48, 75
4, 26040, Note_on_c, 3, 55, 75
4, 26040, Note_on_c, 3, 60, 75
4, 26097, Note_on_c, 3, 48, 0
4, 26098, Note_on_c, 3, 60, 0
4, 26098, Note_on_c, 3, 55, 0
4, 26100, Note_on_c, 3, 48, 75
4, 26100, Note_on_c, 3, 55, 75
4, 26100, Note_on_c, 3, 60, 75
4, 26277, Note_on_c, 3, 48, 0
4, 26278, Note_on_c, 3, 60, 0
4, 26278, Note_on_c, 3, 55, 0
4, 26280, Note_on_c, 3, 48, 75
4, 26280, Note_on_c, 3, 55, 75
4, 26280, Note_on_c, 3, 60, 75
4, 26398, Note_on_c, 3, 60, 0
4, 26398, Note_on_c, 3, 55, 0
4, 26398, Note_on_c, 3, 48, 0
4, 26400, Note_on_c, 3, 48, 85
4, 26400, Note_on_c, 3, 55, 85
4, 26400, Note_on_c, 3, 60, 85
4, 26516, Note_on_c, 3, 60, 0
4, 26516, Note_on_c, 3, 48, 0
4, 26518, Note_on_c, 3, 55, 0
4, 26520, Note_on_c, 3, 48, 75
4, 26520, Note_on_c, 3, 55, 75
4, 26520, Note_on_c, 3, 60, 75
4, 26576, Note_on_c, 3, 55, 0
4, 26578, Note_on_c, 3, 60, 0
4, 26578, Note_on_c, 3, 48, 0
4, 26580, Note_on_c, 3, 48, 75
4, 26580, Note_on_c, 3, 55, 75
4, 26580, Note_on_c, 3, 60, 75
4, 26756, Note_on_c, 3, 60, 0
4, 26756, Note_on_c, 3, 55, 0
4, 26757, Note_on_c, 3, 48, 0
4, 26760, Note_on_c, 3, 48, 75
4, 26760, Note_on_c, 3, 55, 75
4, 26760, Note_on_c, 3, 60, 75
4, 26876, Note_on_c, 3, 60, 0
4, 26877, Note_on_c, 3, 48, 0
4, 26878, Note_on_c, 3, 55, 0
4, 26880, Note_on_c, 3, 43, 85
4, 26880, Note_on_c, 3, 50, 85
4, 26880, Note_on_c, 3, 55, 85
4, 26997, Note_on_c, 3, 43, 0
4, 26998, Note_on_c, 3, 55, 0
4, 26998, Note_on_c, 3, 50, 0
4, 27000, Note_on_c, 3, 43, 75
4, 27000, Note_on_c, 3, 50, 75
4, 27000, Note_on_c, 3, 55, 75
4, 27356, Note_on_c, 3, 50, 0
4, 27356, Note_on_c, 3, 43, 0
4, 27357, Note_on_c, 3, 55, 0
4, 27360, Note_on_c, 3, 43, 85
4, 27360, Note_on_c, 3, 50, 85
4, 27360, Note_on_c, 3, 55, 85
4, 27476, Note_on_c, 3, 55, 0
4, 27477, Note_on_c, 3, 43, 0
4, 27478, Note_on_c, 3, 50, 0
4, 27480, Note_on_c, 3, 43, 75
4, 27480, Note_on_c, 3, 50, 75
4, 27480, Note_on_c, 3, 55, 75
4, 27537, Note_on_c, 3, 43, 0
4, 27538, Note_on_c, 3, 55, 0
4, 27538, Note_on_c, 3, 50, 0
4, 27540, Note_on_c, 3, 43, 75
4, 27540, Note_on_c, 3, 50, 75
4, 27540, Note_on_c, 3, 55, 75
4, 27716, Note_on_c, 3, 50, 0
4, 27717, Note_on_c, 3, 43, 0
4, 27718, Note_on_c, 3, 55, 0
4, 27720, Note_on_c, 3, 43, 75
4, 27720, Note_on_c, 3, 50, 75
4, 27720, Note_on_c, 3, 55, 75
4, 27836, Note_on_c, 3, 55, 0
4, 27836, Note_on_c, 3, 50, 0
4, 27836, Note_on_c, 3, 43, 0
4, 27840, Note_on_c, 3, 43, 85
4, 27840, Note_on_c, 3, 50, 85
4, 27840, Note_on_c, 3, 55, 85
4, 27956, Note_on_c, 3, 55, 0
4, 27956, Note_on_c, 3, 50, 0
4, 27958, Note_on_c, 3, 43, 0
4, 27960, Note_on_c, 3, 43, 75
4, 27960, Note_on_c, 3, 50, 75
4, 27960, Note_on_c, 3, 55, 75
4, 28016, Note_on_c, 3, 50, 0
4, 28017, Note_on_c, 3, 43, 0
4, 28018, Note_on_c, 3, 55, 0
4, 28020, Note_on_c, 3, 43, 75
4, 28020, Note_on_c, 3, 50, 75
4, 28020, Note_on_c, 3, 55, 75
4, 28196, Note_on_c, 3, 50, 0
4, 28197, Note_on_c, 3, 55, 0
4, 28198, Note_on_c, 3, 43, 0
4, 28200, Note_on_c, 3, 43, 75
4, 28200, Note_on_c, 3, 50, 75
4, 28200, Note_on_c, 3, 55, 75
4, 28316, Note_on_c, 3, 55, 0
4, 28316, Note_on_c, 3, 50, 0
4, 28318, Note_on_c, 3, 43, 0
4, 28320, Note_on_c, 3, 43, 85
4, 28320, Note_on_c, 3, 50, 85
4, 28320, Note_on_c, 3, 55, 85
4, 28436, Note_on_c, 3, 50, 0
4, 28436, Note_on_c, 3, 43, 0
4, 28438, Note_on_c, 3, 55, 0
4, 28440, Note_on_c, 3, 43, 75
4, 28440, Note_on_c, 3, 50, 75
4, 28440, Note_on_c, 3, 55, 75
4, 28496, Note_on_c, 3, 50, 0
4, 28497, Note_on_c, 3, 43, 0
4, 28498, Note_on_c, 3, 55, 0
4, 28500, Note_on_c, 3, 43, 75
4, 28500, Note_on_c, 3, 50, 75
4, 28500, Note_on_c, 3, 55, 75
4, 28676, Note_on_c, 3, 55, 0
4, 28676, Note_on_c, 3, 50, 0
4, 28678, Note_on_c, 3, 43, 0
4, 28680, Note_on_c, 3, 43, 75
4, 28680, Note_on_c, 3, 50, 75
4, 28680, Note_on_c, 3, 55, 75
4, 28798, Note_on_c, 3, 55, 0
4, 28798, Note_on_c, 3, 50, 0
4, 28798, Note_on_c, 3, 43, 0
4, 28800, Note_on_c, 3, 43, 85
4, 28800, Note_on_c, 3, 50, 85
4, 28800, Note_on_c, 3, 55, 85
4, 28916, Note_on_c, 3, 55, 0
4, 28916, Note_on_c, 3, 43, 0
4, 28917, Note_on_c, 3, 50, 0
4, 28920, Note_on_c, 3, 43, 75
4, 28920, Note_on_c, 3, 50, 75
4, 28920, Note_on_c, 3, 55, 75
4, 28976, Note_on_c, 3, 50, 0
4, 28978, Note_on_c, 3, 55, 0
4, 28978, Note_on_c, 3, 43, 0
4, 28980, Note_on_c, 3, 43, 75
4, 28980, Note_on_c, 3, 50, 75
4, 28980, Note_on_c, 3, 55, 75
4, 29156, Note_on_c, 3, 55, 0
4, 29158, Note_on_c, 3, 50, 0
4, 29158, Note_on_c, 3, 43, 0
4, 29160, Note_on_c, 3, 43, 75
4, 29160, Note_on_c, 3, 50, 75
4, 29160, Note_on_c, 3, 55, 75
4, 29277, Note_on_c, 3, 55, 0
4, 29278, Note_on_c, 3, 50, 0
4, 29278, Note_on_c, 3, 43, 0
4, 29280, Note_on_c, 3, 43, 85
4, 29280, Note_on_c, 3, 50, 85
4, 29280, Note_on_c, 3, 55, 85
4, 29396, Note_on_c, 3, 55, 0
4, 29398, Note_on_c, 3, 50, 0
4, 29398, Note_on_c, 3, 43, 0
4, 29400, Note_on_c, 3, 43, 75
4, 29400, Note_on_c, 3, 50, 75
4, 29400, Note_on_c, 3, 55, 75
4, 29457, Note_on_c, 3, 50, 0
4, 29458, Note_on_c, 3, 55, 0
4, 29458, Note_on_c, 3, 43, 0
4, 29460, Note_on_c, 3, 43, 75
4, 29460, Note_on_c, 3, 50, 75
4, 29460, Note_on_c, 3, 55, 75
4, 29636, Note_on_c, 3, 50, 0
4, 29637, Note_on_c, 3, 43, 0
4, 29638, Note_on_c, 3, 55, 0
4, 29640, Note_on_c, 3, 43, 75
4, 29640, Note_on_c, 3, 50, 75
4, 29640, Note_on_c, 3, 55, 75
4, 29756, Note_on_c, 3, 43, 0
4, 29757, Note_on_c, 3, 55, 0
4, 29757, Note_on_c, 3, 50, 0
4, 29760, Note_on_c, 3, 43, 85
4, 29760, Note_on_c, 3, 50, 85
4, 29760, Note_on_c, 3, 55, 85
4, 29876, Note_on_c, 3, 55, 0
4, 29877, Note_on_c, 3, 50, 0
4, 29878, Note_on_c, 3, 43, 0
4, 29880, Note_on_c, 3, 43, 75
4, 29880, Note_on_c, 3, 50, 75
4, 29880, Note_on_c, 3, 55, 75
4, 30236, Note_on_c, 3, 43, 0
4, 30238, Note_on_c, 3, 55, 0
4, 30238, Note_on_c, 3, 50, 0
4, 30240, Note_on_c, 3, 43, 85
4, 30240, Note_on_c, 3, 50, 85
4, 30240, Note_on_c, 3, 55, 85
4, 30356, Note_on_c, 3, 55, 0
4, 30356, Note_on_c, 3, 50, 0
4, 30356, Note_on_c, 3, 43, 0
4, 30360, Note_on_c, 3, 43, 75
4, 30360, Note_on_c, 3, 50, 75
4, 30360, Note_on_c, 3, 55, 75
4, 30416, Note_on_c, 3, 55, 0
4, 30416, Note_on_c, 3, 50, 0
4, 30417, Note_on_c, 3, 43, 0
4, 30420, Note_on_c, 3, 43, 75
4, 30420, Note_on_c, 3, 50, 75
4, 30420, Note_on_c, 3, 55, 75
4, 30597, Note_on_c, 3, 55, 0
4, 30597, Note_on_c, 3, 50, 0
4, 30597, Note_on_c, 3, 43, 0
4, 30600, Note_on_c, 3, 43, 75
4, 30600, Note_on_c, 3, 50, 75
4, 30600, Note_on_c, 3, 55, 75
4, 30716, Note_on_c, 3, 50, 0
4, 30718, Note_on_c, 3, 55, 0
4, 30718, Note_on_c, 3, 43, 0
4, 30720, Note_on_c, 3, 43, 85
4, 30720, Note_on_c, 3, 50, 85
4, 30720, Note_on_c, 3, 55, 85
4, 30837, Note_on_c, 3, 43, 0
4, 30838, Note_on_c, 3, 55, 0
4, 30838, Note_on_c, 3, 50, 0
4, 30840, Note_on_c, 3, 43, 75
4, 30840, Note_on_c, 3, 50, 75
4, 30840, Note_on_c, 3, 55, 75
4, 30896, Note_on_c, 3, 55, 0
4, 30898, Note_on_c, 3, 50, 0
4, 30898, Note_on_c, 3, 43, 0
4, 30900, Note_on_c, 3, 43, 75
4, 30900, Note_on_c, 3, 50, 75
4, 30900, Note_on_c, 3, 55, 75
4, 31077, Note_on_c, 3, 55, 0
4, 31078, Note_on_c, 3, 50, 0
4, 31078, Note_on_c, 3, 43, 0
4, 31080, Note_on_c, 3, 43, 75
4, 31080, Note_on_c, 3, 50, 75
4, 31080, Note_on_c, 3, 55, 75
4, 31197, Note_on_c, 3, 55, 0
4, 31198, Note_on_c, 3, 50, 0
4, 31198, Note_on_c, 3, 43, 0
4, 31200, Note_on_c, 3, 43, 85
4, 31200, Note_on_c, 3, 50, 85
4, 31200, Note_on_c, 3, 55, 85
4, 31316, Note_on_c, 3, 55, 0
4, 31317, Note_on_c, 3, 50, 0
4, 31317, Note_on_c, 3, 43, 0
4, 31320, Note_on_c, 3, 43, 75
4, 31320, Note_on_c, 3, 50, 75
4, 31320, Note_on_c, 3, 55, 75
4, 31376, Note_on_c, 3, 50, 0
4, 31376, Note_on_c, 3, 43, 0
4, 31377, Note_on_c, 3, 55, 0
4, 31380, Note_on_c, 3, 43, 75
4, 31380, Note_on_c, 3, 50, 75
4, 31380, Note_on_c, 3, 55, 75
4, 31556, Note_on_c, 3, 55, 0
4, 31558, Note_on_c, 3, 50, 0
4, 31558, Note_on_c, 3, 43, 0
4, 31560, Note_on_c, 3, 43, 75
4, 31560, Note_on_c, 3, 50, 75
4, 31560, Note_on_c, 3, 55, 75
4, 31676, Note_on_c, 3, 55, 0
4, 31678, Note_on_c, 3, 50, 0
4, 31678, Note_on_c, 3, 43, 0
4, 31680, Note_on_c, 3, 43, 85
4, 31680, Note_on_c, 3, 50, 85
4, 31680, Note_on_c, 3, 55, 85
4, 31796, Note_on_c, 3, 55, 0
4, 31796, Note_on_c, 3, 50, 0
4, 31798, Note_on_c, 3, 43, 0
4, 31800, Note_on_c, 3, 43, 75
4, 31800, Note_on_c, 3, 50, 75
4, 31800, Note_on_c, 3, 55, 75
4, 32156, Note_on_c, 3, 43, 0
4, 32158, Note_on_c, 3, 55, 0
4, 32158, Note_on_c, 3, 50, 0
4, 32160, Note_on_c, 3, 43, 85
4, 32160, Note_on_c, 3, 50, 85
4, 32160, Note_on_c, 3, 55, 85
4, 32277, Note_on_c, 3, 50, 0
4, 32277, Note_on_c, 3, 43, 0
4, 32278, Note_on_c, 3, 55, 0
4, 32280, Note_on_c, 3, 43, 75
4, 32280, Note_on_c, 3, 50, 75
4, 32280, Note_on_c, 3, 55, 75
4, 32337, Note_on_c, 3, 50, 0
4, 32337, Note_on_c, 3, 43, 0
4, 32338, Note_on_c, 3, 55, 0
4, 32340, Note_on_c, 3, 43, 75
4, 32340, Note_on_c, 3, 50, 75
4, 32340, Note_on_c, 3, 55, 75
4, 32516, Note_on_c, 3, 43, 0
4, 32517, Note_on_c, 3, 55, 0
4, 32517, Note_on_c, 3, 50, 0
4, 32520, Note_on_c, 3, 43, 75
4, 32520, Note_on_c, 3, 50, 75
4, 32520, Note_on_c, 3, 55, 75
4, 32636, Note_on_c, 3, 50, 0
4, 32636, Note_on_c, 3, 43, 0
4, 32637, Note_on_c, 3, 55, 0
4, 32640, Note_on_c, 3, 43, 85
4, 32640, Note_on_c, 3, 50, 85
4, 32640, Note_on_c, 3, 55, 85
4, 32757, Note_on_c, 3, 43, 0
4, 32758, Note_on_c, 3, 55, 0
4, 32758, Note_on_c, 3, 50, 0
4, 32760, Note_on_c, 3, 43, 75
4, 32760, Note_on_c, 3, 50, 75
4, 32760, Note_on_c, 3, 55, 75
4, 32816, Note_on_c, 3, 55, 0
4, 32816, Note_on_c, 3, 43, 0
4, 32818, Note_on_c, 3, 50, 0
4, 32820, Note_on_c, 3, 43, 75
4, 32820, Note_on_c, 3, 50, 75
4, 32820, Note_on_c, 3, 55, 75
4, 32997, Note_on_c, 3, 50, 0
4, 32997, Note_on_c, 3, 43, 0
4, 32998, Note_on_c, 3, 55, 0
4, 33000, Note_on_c, 3, 43, 75
4, 33000, Note_on_c, 3, 50, 75
4, 33000, Note_on_c, 3, 55, 75
4, 33116, Note_on_c, 3, 50, 0
4, 33118, Note_on_c, 3, 55, 0
4, 33118, Note_on_c, 3, 43, 0
4, 33120, Note_on_c, 3, 43, 85
4, 33120, Note_on_c, 3, 50, 85
4, 33120, Note_on_c, 3, 55, 85
4, 33237, Note_on_c, 3, 50, 0
4, 33237, Note_on_c, 3, 43, 0
4, 33238, Note_on_c, 3, 55, 0
4, 33240, Note_on_c, 3, 43, 75
4, 33240, Note_on_c, 3, 50, 75
4, 33240, Note_on_c, 3, 55, 75
4, 33296, Note_on_c, 3, 55, 0
4, 33296, Note_on_c, 3, 43, 0
4, 33298, Note_on_c, 3, 50, 0
4, 33300, Note_on_c, 3, 43, 75
4, 33300, Note_on_c, 3, 50, 75
4, 33300, Note_on_c, 3, 55, 75
4, 33476, Note_on_c, 3, 55, 0
4, 33476, Note_on_c, 3, 50, 0
4, 33477, Note_on_c, 3, 43, 0
4, 33480, Note_on_c, 3, 43, 75
4, 33480, Note_on_c, 3, 50, 75
4, 33480, Note_on_c, 3, 55, 75
4, 33596, Note_on_c, 3, 50, 0
4, 33596, Note_on_c, 3, 43, 0
4, 33597, Note_on_c, 3, 55, 0
4, 33600, Note_on_c, 3, 43, 85
4, 33600, Note_on_c, 3, 50, 85
4, 33600, Note_on_c, 3, 55, 85
4, 33717, Note_on_c, 3, 43, 0
4, 33718, Note_on_c, 3, 55, 0
4, 33718, Note_on_c, 3, 50, 0
4, 33720, Note_on_c, 3, 43, 75
4, 33720, Note_on_c, 3, 50, 75
4, 33720, Note_on_c, 3, 55, 75
4, 33776, Note_on_c, 3, 50, 0
4, 33777, Note_on_c, 3, 55, 0
4, 33777, Note_on_c, 3, 43, 0
4, 33780, Note_on_c, 3, 43, 75
4, 33780, Note_on_c, 3, 50, 75
4, 33780, Note_on_c, 3, 55, 75
4, 33957, Note_on_c, 3, 55, 0
4, 33957, Note_on_c, 3, 50, 0
4, 33958, Note_on_c, 3, 43, 0
4, 33960, Note_on_c, 3, 43, 75
4, 33960, Note_on_c, 3, 50, 75
4, 33960, Note_on_c, 3, 55, 75
4, 34077, Note_on_c, 3, 55, 0
4, 34077, Note_on_c, 3, 50, 0
4, 34078, Note_on_c, 3, 43, 0
4, 34080, Note_on_c, 3, 43, 85
4, 34080, Note_on_c, 3, 50, 85
4, 34080, Note_on_c, 3, 55, 85
4, 34196, Note_on_c, 3, 55, 0
4, 34197, Note_on_c, 3, 50, 0
4, 34198, Note_on_c, 3, 43, 0
4, 34200, Note_on_c, 3, 43, 75
4, 34200, Note_on_c, 3, 50, 75
4, 34200, Note_on_c, 3, 55, 75
4, 34256, Note_on_c, 3, 55, 0
4, 34256, Note_on_c, 3, 50, 0
4, 34258, Note_on_c, 3, 43, 0
4, 34260, Note_on_c, 3, 43, 75
4, 34260, Note_on_c, 3, 50, 75
4, 34260, Note_on_c, 3, 55, 75
4, 34436, Note_on_c, 3, 55, 0
4, 34436, Note_on_c, 3, 50, 0
4, 34438, Note_on_c, 3, 43, 0
4, 34440, Note_on_c, 3, 43, 75
4, 34440, Note_on_c, 3, 50, 75
4, 34440, Note_on_c, 3, 55, 75
4, 34556, Note_on_c, 3, 55, 0
4, 34556, Note_on_c, 3, 50, 0
4, 34556, Note_on_c, 3, 43, 0
4, 34560, Note_on_c, 3, 43, 85
4, 34560, Note_on_c, 3, 50, 85
4, 34560, Note_on_c, 3, 55, 85
4, 34676, Note_on_c, 3, 50, 0
4, 34676, Note_on_c, 3, 43, 0
4, 34678, Note_on_c, 3, 55, 0
4, 34680, Note_on_c, 3, 43, 75
4, 34680, Note_on_c, 3, 50, 75
4, 34680, Note_on_c, 3, 55, 75
4, 34736, Note_on_c, 3, 43, 0
4, 34737, Note_on_c, 3, 55, 0
4, 34738, Note_on_c, 3, 50, 0
4, 34740, Note_on_c, 3, 43, 75
4, 34740, Note_on_c, 3, 50, 75
4, 34740, Note_on_c, 3, 55, 75
4, 34916, Note_on_c, 3, 55, 0
4, 34917, Note_on_c, 3, 50, 0
4, 34917, Note_on_c, 3, 43, 0
4, 34920, Note_on_c, 3, 43, 75
4, 34920, Note_on_c, 3, 50, 75
4, 34920, Note_on_c, 3, 55, 75
4, 35038, Note_on_c, 3, 55, 0
4, 35038, Note_on_c, 3, 50, 0
4, 35038, Note_on_c, 3, 43, 0
4, 35040, Note_on_c, 3, 43, 85
4, 35040, Note_on_c, 3, 50, 85
4, 35040, Note_on_c, 3, 55, 85
4, 35156, Note_on_c, 3, 43, 0
4, 35157, Note_on_c, 3, 50, 0
4, 35158, Note_on_c, 3, 55, 0
4, 35160, Note_on_c, 3, 43, 75
4, 35160, Note_on_c, 3, 50, 75
4, 35160, Note_on_c, 3, 55, 75
4, 35217, Note_on_c, 3, 50, 0
4, 35217, Note_on_c, 3, 43, 0
4, 35218, Note_on_c, 3, 55, 0
4, 35220, Note_on_c, 3, 43, 75
4, 35220, Note_on_c, 3, 50, 75
4, 35220, Note_on_c, 3, 55, 75
4, 35396, Note_on_c, 3, 50, 0
4, 35398, Note_on_c, 3, 55, 0
4, 35398, Note_on_c, 3, 43, 0
4, 35400, Note_on_c, 3, 43, 75
4, 35400, Note_on_c, 3, 50, 75
4, 35400, Note_on_c, 3, 55, 75
4, 35516, Note_on_c, 3, 50, 0
4, 35517, Note_on_c, 3, 43, 0
4, 35518, Note_on_c, 3, 55, 0
4, 35520, Note_on_c, 3, 43, 85
4, 35520, Note_on_c, 3, 50, 85
4, 35520, Note_on_c, 3, 55, 85
4, 35637, Note_on_c, 3, 55, 0
4, 35638, Note_on_c, 3, 50, 0
4, 35638, Note_on_c, 3, 43, 0
4, 35640, Note_on_c, 3, 43, 75
4, 35640, Note_on_c, 3, 50, 75
4, 35640, Note_on_c, 3, 55, 75
4, 35697, Note_on_c, 3, 43, 0
4, 35698, Note_on_c, 3, 55, 0
4, 35698, Note_on_c, 3, 50, 0
4, 35700, Note_on_c, 3, 43, 75
4, 35700, Note_on_c, 3, 50, 75
4, 35700, Note_on_c, 3, 55, 75
4, 35876, Note_on_c, 3, 55, 0
4, 35876, Note_on_c, 3, 50, 0
4, 35876, Note_on_c, 3, 43, 0
4, 35880, Note_on_c, 3, 43, 75
4, 35880, Note_on_c, 3, 50, 75
4, 35880, Note_on_c, 3, 55, 75
4, 35997, Note_on_c, 3, 50, 0
4, 35997, Note_on_c, 3, 43, 0
4, 35998, Note_on_c, 3, 55, 0
4, 36000, Note_on_c, 3, 43, 85
4, 36000, Note_on_c, 3, 50, 85
4, 36000, Note_on_c, 3, 55, 85
4, 36116, Note_on_c, 3, 55, 0
4, 36116, Note_on_c, 3, 43, 0
4, 36118, Note_on_c, 3, 50, 0
4, 36120, Note_on_c, 3, 43, 75
4, 36120, Note_on_c, 3, 50, 75
4, 36120, Note_on_c, 3, 55, 75
4, 36176, Note_on_c, 3, 55, 0
4, 36176, Note_on_c, 3, 43, 0
4, 36177, Note_on_c, 3, 50, 0
4, 36180, Note_on_c, 3, 43, 75
4, 36180, Note_on_c, 3, 50, 75
4, 36180, Note_on_c, 3, 55, 75
4, 36356, Note_on_c, 3, 50, 0
4, 36356, Note_on_c, 3, 43, 0
4, 36358, Note_on_c, 3, 55, 0
4, 36360, Note_on_c, 3, 43, 75
4, 36360, Note_on_c, 3, 50, 75
4, 36360, Note_on_c, 3, 55, 75
4, 36477, Note_on_c, 3, 55, 0
4, 36477, Note_on_c, 3, 50, 0
4, 36478, Note_on_c, 3, 43, 0
4, 36480, Note_on_c, 3, 43, 85
4, 36480, Note_on_c, 3, 50, 85
4, 36480, Note_on_c, 3, 55, 85
4, 36596, Note_on_c, 3, 55, 0
4, 36596, Note_on_c, 3, 43, 0
4, 36597, Note_on_c, 3, 50, 0
4, 36600, Note_on_c, 3, 43, 75
4, 36600, Note_on_c, 3, 50, 75
4, 36600, Note_on_c, 3, 55, 75
4, 36656, Note_on_c, 3, 50, 0
4, 36658, Note_on_c, 3, 55, 0
4, 36658, Note_on_c, 3, 43, 0
4, 36660, Note_on_c, 3, 43, 75
4, 36660, Note_on_c, 3, 50, 75
4, 36660, Note_on_c, 3, 55, 75
4, 36837, Note_on_c, 3, 55, 0
4, 36837, Note_on_c, 3, 43, 0
4, 36838, Note_on_c, 3, 50, 0
4, 36840, Note_on_c, 3, 43, 75
4, 36840, Note_on_c, 3, 50, 75
4, 36840, Note_on_c, 3, 55, 75
4, 36956, Note_on_c, 3, 55, 0
4, 36956, Note_on_c, 3, 50, 0
4, 36956, Note_on_c, 3, 43, 0
4, 36960, Note_on_c, 3, 43, 85
4, 36960, Note_on_c, 3, 50, 85
4, 36960, Note_on_c, 3, 55, 85
4, 37076, Note_on_c, 3, 50, 0
4, 37077, Note_on_c, 3, 43, 0
4, 37078, Note_on_c, 3, 55, 0
4, 37080, Note_on_c, 3, 43, 75
4, 37080, Note_on_c, 3, 50, 75
4, 37080, Note_on_c, 3, 55, 75
4, 37136, Note_on_c, 3, 50, 0
4, 37137, Note_on_c, 3, 55, 0
4, 37138, Note_on_c, 3, 43, 0
4, 37140, Note_on_c, 3, 43, 75
4, 37140, Note_on_c, 3, 50, 75
4, 37140, Note_on_c, 3, 55, 75
4, 37317, Note_on_c, 3, 50, 0
4, 37317, Note_on_c, 3, 43, 0
4, 37318, Note_on_c, 3, 55, 0
4, 37320, Note_on_c, 3, 43, 75
4, 37320, Note_on_c, 3, 50, 75
4, 37320, Note_on_c, 3, 55, 75
4, 37437, Note_on_c, 3, 50, 0
4, 37438, Note_on_c, 3, 55, 0
4, 37438, Note_on_c, 3, 43, 0
4, 37440, Note_on_c, 3, 43, 85
4, 37440, Note_on_c, 3, 50, 85
4, 37440, Note_on_c, 3, 55, 85
4, 37557, Note_on_c, 3, 50, 0
4, 37558, Note_on_c, 3, 55, 0
4, 37558, Note_on_c, 3, 43, 0
4, 37560, Note_on_c, 3, 43, 75
4, 37560, Note_on_c, 3, 50, 75
4, 37560, Note_on_c, 3, 55, 75
4, 37616, Note_on_c, 3, 55, 0
4, 37616, Note_on_c, 3, 50, 0
4, 37616, Note_on_c, 3, 43, 0
4, 37620, Note_on_c, 3, 43, 75
4, 37620, Note_on_c, 3, 50, 75
4, 37620, Note_on_c, 3, 55, 75
4, 37796, Note_on_c, 3, 43, 0
4, 37797, Note_on_c, 3, 50, 0
4, 37798, Note_on_c, 3, 55, 0
4, 37800, Note_on_c, 3, 43, 75
4, 37800, Note_on_c, 3, 50, 75
4, 37800, Note_on_c, 3, 55, 75
4, 37917, Note_on_c, 3, 50, 0
4, 37918, Note_on_c, 3, 55, 0
4, 37918, Note_on_c, 3, 43, 0
4, 37920, Note_on_c, 3, 43, 85
4, 37920, Note_on_c, 3, 50, 85
4, 37920, Note_on_c, 3, 55, 85
4, 38036, Note_on_c, 3, 43, 0
4, 38038, Note_on_c, 3, 55, 0
4, 38038, Note_on_c, 3, 50, 0
4, 38040, Note_on_c, 3, 43, 75
4, 38040, Note_on_c, 3, 50, 75
4, 38040, Note_on_c, 3, 55, 75
4, 38097, Note_on_c, 3, 55, 0
4, 38097, Note_on_c, 3, 43, 0
4, 38098, Note_on_c, 3, 50, 0
4, 38100, Note_on_c, 3, 43, 75
4, 38100, Note_on_c, 3, 50, 75
4, 38100, Note_on_c, 3, 55, 75
4, 38277, Note_on_c, 3, 55, 0
4, 38277, Note_on_c, 3, 50, 0
4, 38278, Note_on_c, 3, 43, 0
4, 38280, Note_on_c, 3, 43, 75
4, 38280, Note_on_c, 3, 50, 75
4, 38280, Note_on_c, 3, 55, 75
4, 38396, Note_on_c, 3, 50, 0
4, 38397, Note_on_c, 3, 43, 0
4, 38398, Note_on_c, 3, 55, 0
4, 38400, Note_on_c, 3, 43, 85
4, 38400, Note_on_c, 3, 50, 85
4, 38400, Note_on_c, 3, 55, 85
4, 38517, Note_on_c, 3, 55, 0
4, 38517, Note_on_c, 3, 43, 0
4, 38518, Note_on_c, 3, 50, 0
4, 38520, Note_on_c, 3, 43, 75
4, 38520, Note_on_c, 3, 50, 75
4, 38520, Note_on_c, 3, 55, 75
4, 38576, Note_on_c, 3, 43, 0
4, 38578, Note_on_c, 3, 55, 0
4, 38578, Note_on_c, 3, 50, 0
4, 38580, Note_on_c, 3, 43, 75
4, 38580, Note_on_c, 3, 50, 75
4, 38580, Note_on_c, 3, 55, 75
4, 38756, Note_on_c, 3, 55, 0
4, 38756, Note_on_c, 3, 50, 0
4, 38756, Note_on_c, 3, 43, 0
4, 38760, Note_on_c, 3, 43, 75
4, 38760, Note_on_c, 3, 50, 75
4, 38760, Note_on_c, 3, 55, 75
4, 38876, Note_on_c, 3, 43, 0
4, 38877, Note_on_c, 3, 55, 0
4, 38877, Note_on_c, 3, 50, 0
4, 38880, Note_on_c, 3, 43, 85
4, 38880, Note_on_c, 3, 50, 85
4, 38880, Note_on_c, 3, 55, 85
4, 38996, Note_on_c, 3, 55, 0
4, 38996, Note_on_c, 3, 43, 0
4, 38998, Note_on_c, 3, 50, 0
4, 39000, Note_on_c, 3, 43, 75
4, 39000, Note_on_c, 3, 50, 75
4, 39000, Note_on_c, 3, 55, 75
4, 39057, Note_on_c, 3, 50, 0
4, 39057, Note_on_c, 3, 43, 0
4, 39058, Note_on_c, 3, 55, 0
4, 39060, Note_on_c, 3, 43, 75
4, 39060, Note_on_c, 3, 50, 75
4, 39060, Note_on_c, 3, 55, 75
4, 39236, Note_on_c, 3, 55, 0
4, 39236, Note_on_c, 3, 50, 0
4, 39238, Note_on_c, 3, 43, 0
4, 39240, Note_on_c, 3, 43, 75
4, 39240, Note_on_c, 3, 50, 75
4, 39240, Note_on_c, 3, 55, 75
4, 39357, Note_on_c, 3, 55, 0
4, 39357, Note_on_c, 3, 50, 0
4, 39358, Note_on_c, 3, 43, 0
4, 39360, Note_on_c, 3, 43, 85
4, 39360, Note_on_c, 3, 50, 85
4, 39360, Note_on_c, 3, 55, 85
4, 39476, Note_on_c, 3, 55, 0
4, 39478, Note_on_c, 3, 50, 0
4, 39478, Note_on_c, 3, 43, 0
4, 39480, Note_on_c, 3, 43, 75
4, 39480, Note_on_c, 3, 50, 75
4, 39480, Note_on_c, 3, 55, 75
4, 39537, Note_on_c, 3, 50, 0
4, 39537, Note_on_c, 3, 43, 0
4, 39538, Note_on_c, 3, 55, 0
4, 39540, Note_on_c, 3, 43, 75
4, 39540, Note_on_c, 3, 50, 75
4, 39540, Note_on_c, 3, 55, 75
4, 39716, Note_on_c, 3, 50, 0
4, 39718, Note_on_c, 3, 55, 0
4, 39718, Note_on_c, 3, 43, 0
4, 39720, Note_on_c, 3, 43, 75
4, 39720, Note_on_c, 3, 50, 75
4, 39720, Note_on_c, 3, 55, 75
4, 39837, Note_on_c, 3, 55, 0
4, 39837, Note_on_c, 3, 50, 0
4, 39837, Note_on_c, 3, 43, 0
4, 39840, Note_on_c, 3, 43, 85
4, 39840, Note_on_c, 3, 50, 85
4, 39840, Note_on_c, 3, 55, 85
4, 39957, Note_on_c, 3, 43, 0
4, 39958, Note_on_c, 3, 55, 0
4, 39958, Note_on_c, 3, 50, 0
4, 39960, Note_on_c, 3, 43, 75
4, 39960, Note_on_c, 3, 50, 75
4, 39960, Note_on_c, 3, 55, 75
4, 40017, Note_on_c, 3, 50, 0
4, 40018, Note_on_c, 3, 55, 0
4, 40018, Note_on_c, 3, 43, 0
4, 40020, Note_on_c, 3, 43, 75
4, 40020, Note_on_c, 3, 50, 75
4, 40020, Note_on_c, 3, 55, 75
4, 40196, Note_on_c, 3, 43, 0
4, 40198, Note_on_c, 3, 55, 0
4, 40198, Note_on_c, 3, 50, 0
4, 40200, Note_on_c, 3, 43, 75
4, 40200, Note_on_c, 3, 50, 75
4, 40200, Note_on_c, 3, 55, 75
4, 40316, Note_on_c, 3, 50, 0
4, 40316, Note_on_c, 3, 43, 0
4, 40318, Note_on_c, 3, 55, 0
4, 40320, Note_on_c, 3, 43, 85
4, 40320, Note_on_c, 3, 50, 85
4, 40320, Note_on_c, 3, 55, 85
4, 40437, Note_on_c, 3, 55, 0
4, 40437, Note_on_c, 3, 50, 0
4, 40437, Note_on_c, 3, 43, 0
4, 40440, Note_on_c, 3, 43, 75
4, 40440, Note_on_c, 3, 50, 75
4, 40440, Note_on_c, 3, 55, 75
4, 40498, Note_on_c, 3, 55, 0
4, 40498, Note_on_c, 3, 50, 0
4, 40498, Note_on_c, 3, 43, 0
4, 40500, Note_on_c, 3, 43, 75
4, 40500, Note_on_c, 3, 50, 75
4, 40500, Note_on_c, 3, 55, 75
4, 40676, Note_on_c, 3, 55, 0
4, 40677, Note_on_c, 3, 43, 0
4, 40678, Note_on_c, 3, 50, 0
4, 40680, Note_on_c, 3, 43, 75
4, 40680, Note_on_c, 3, 50, 75
4, 40680, Note_on_c, 3, 55, 75
4, 40796, Note_on_c, 3, 55, 0
4, 40797, Note_on_c, 3, 50, 0
4, 40798, Note_on_c, 3, 43, 0
4, 40800, Note_on_c, 3, 43, 85
4, 40800, Note_on_c, 3, 50, 85
4, 40800, Note_on_c, 3, 55, 85
4, 40917, Note_on_c, 3, 50, 0
4, 40917, Note_on_c, 3, 43, 0
4, 40918, Note_on_c, 3, 55, 0
4, 40920, Note_on_c, 3, 43, 75
4, 40920, Note_on_c, 3, 50, 75
4, 40920, Note_on_c, 3, 55, 75
4, 40976, Note_on_c, 3, 55, 0
4, 40976, Note_on_c, 3, 50, 0
4, 40977, Note_on_c, 3, 43, 0
4, 40980, Note_on_c, 3, 43, 75
4, 40980, Note_on_c, 3, 50, 75
4, 40980, Note_on_c, 3, 55, 75
4, 41156, Note_on_c, 3, 50, 0
4, 41157, Note_on_c, 3, 55, 0
4, 41157, Note_on_c, 3, 43, 0
4, 41160, Note_on_c, 3, 43, 75
4, 41160, Note_on_c, 3, 50, 75
4, 41160, Note_on_c, 3, 55, 75
4, 41276, Note_on_c, 3, 43, 0
4, 41277, Note_on_c, 3, 55, 0
4, 41277, Note_on_c, 3, 50, 0
4, 41280, Note_on_c, 3, 43, 85
4, 41280, Note_on_c, 3, 50, 85
4, 41280, Note_on_c, 3, 55, 85
4, 41396, Note_on_c, 3, 55, 0
4, 41396, Note_on_c, 3, 50, 0
4, 41398, Note_on_c, 3, 43, 0
4, 41400, Note_on_c, 3, 43, 75
4, 41400, Note_on_c, 3, 50, 75
4, 41400, Note_on_c, 3, 55, 75
4, 41456, Note_on_c, 3, 55, 0
4, 41456, Note_on_c, 3, 50, 0
4, 41458, Note_on_c, 3, 43, 0
4, 41460, Note_on_c, 3, 43, 75
4, 41460, Note_on_c, 3, 50, 75
4, 41460, Note_on_c, 3, 55, 75
4, 41636, Note_on_c, 3, 50, 0
4, 41636, Note_on_c, 3, 43, 0
4, 41638, Note_on_c, 3, 55, 0
4, 41640, Note_on_c, 3, 43, 75
4, 41640, Note_on_c, 3, 50, 75
4, 41640, Note_on_c, 3, 55, 75
4, 41756, Note_on_c, 3, 55, 0
4, 41756, Note_on_c, 3, 43, 0
4, 41757, Note_on_c, 3, 50, 0
4, 41757, End_track
5, 0, Start_track
5, 0, MIDI_port, 0
5, 0, Title_t, "Steel String"
5, 0, Program_c, 4, 25
5, 0, Control_c, 4, 7, 80
5, 0, Control_c, 4, 10, 100
5, 0, Control_c, 4, 91, 50
5, 0, Control_c, 4, 93, 35
5, 0, Note_on_c, 4, 55, 70
5, 0, Note_on_c, 4, 59, 70
5, 0, Note_on_c, 4, 62, 70
5, 176, Note_on_c, 4, 62, 0
5, 176, Note_on_c, 4, 59, 0
5, 176, Note_on_c, 4, 55, 0
5, 180, Note_on_c, 4, 55, 85
5, 180, Note_on_c, 4, 59, 85
5, 180, Note_on_c, 4, 62, 85
5, 296, Note_on_c, 4, 62, 0
5, 296, Note_on_c, 4, 55, 0
5, 297, Note_on_c, 4, 59, 0
5, 300, Note_on_c, 4, 55, 70
5, 300, Note_on_c, 4, 59, 70
5, 300, Note_on_c, 4, 62, 70
5, 417, Note_on_c, 4, 62, 0
5, 417, Note_on_c, 4, 59, 0
5, 418, Note_on_c, 4, 55, 0
5, 420, Note_on_c, 4, 55, 70
5, 420, Note_on_c, 4, 59, 70
5, 420, Note_on_c, 4, 62, 70
5, 476, Note_on_c, 4, 55, 0
5, 477, Note_on_c, 4, 62, 0
5, 478, Note_on_c, 4, 59, 0
5, 480, Note_on_c, 4, 55, 70
5, 480, Note_on_c, 4, 59, 70
5, 480, Note_on_c, 4, 62, 70
5, 657, Note_on_c, 4, 62, 0
5, 657, Note_on_c, 4, 59, 0
5, 657, Note_on_c, 4, 55, 0
5, 660, Note_on_c, 4, 55, 85
5, 660, Note_on_c, 4, 59, 85
5, 660, Note_on_c, 4, 62, 85
5, 778, Note_on_c, 4, 62, 0
5, 778, Note_on_c, 4, 59, 0
5, 778, Note_on_c, 4, 55, 0
5, 780, Note_on_c, 4, 55, 70
5, 780, Note_on_c, 4, 59, 70
5, 780, Note_on_c, 4, 62, 70
5, 896, Note_on_c, 4, 62, 0
5, 898, Note_on_c, 4, 59, 0
5, 898, Note_on_c, 4, 55, 0
5, 900, Note_on_c, 4, 55, 70
5, 900, Note_on_c, 4, 59, 70
5, 900, Note_on_c, 4, 62, 70
5, 956, Note_on_c, 4, 62, 0
5, 956, Note_on_c, 4, 55, 0
5, 957, Note_on_c, 4, 59, 0
5, 960, Note_on_c, 4, 55, 70
5, 960, Note_on_c, 4, 59, 70
5, 960, Note_on_c, 4, 62, 70
5, 1137, Note_on_c, 4, 59, 0
5, 1137, Note_on_c, 4, 55, 0
5, 1138, Note_on_c, 4, 62, 0
5, 1140, Note_on_c, 4, 55, 85
5, 1140, Note_on_c, 4, 59, 85
5, 1140, Note_on_c, 4, 62, 85
5, 1257, Note_on_c, 4, 62, 0
5, 1257, Note_on_c, 4, 55, 0
5, 1258, Note_on_c, 4, 59, 0
5, 1260, Note_on_c, 4, 55, 70
5, 1260, Note_on_c, 4, 59, 70
5, 1260, Note_on_c, 4, 62, 70
5, 1376, Note_on_c, 4, 55, 0
5, 1378, Note_on_c, 4, 62, 0
5, 1378, Note_on_c, 4, 59, 0
5, 1380, Note_on_c, 4, 55, 70
5, 1380, Note_on_c, 4, 59, 70
5, 1380, Note_on_c, 4, 62, 70
5, 1436, Note_on_c, 4, 59, 0
5, 1436, Note_on_c, 4, 55, 0
5, 1438, Note_on_c, 4, 62, 0
5, 1440, Note_on_c, 4, 55, 70
5, 1440, Note_on_c, 4, 59, 70
5, 1440, Note_on_c, 4, 62, 70
5, 1617, Note_on_c, 4, 62, 0
5, 1617, Note_on_c, 4, 55, 0
5, 1618, Note_on_c, 4, 59, 0
5, 1620, Note_on_c, 4, 55, 85
5, 1620, Note_on_c, 4, 59, 85
5, 1620, Note_on_c, 4, 62, 85
5, 1736, Note_on_c, 4, 62, 0
5, 1736, Note_on_c, 4, 59, 0
5, 1738, Note_on_c, 4, 55, 0
5, 1740, Note_on_c, 4, 55, 70
5, 1740, Note_on_c, 4, 59, 70
5, 1740, Note_on_c, 4, 62, 70
5, 1857, Note_on_c, 4, 62, 0
5, 1857, Note_on_c, 4, 59, 0
5, 1857, Note_on_c, 4, 55, 0
5, 1860, Note_on_c, 4, 55, 70
5, 1860, Note_on_c, 4, 59, 70
5, 1860, Note_on_c, 4, 62, 70
5, 1917, Note_on_c, 4, 62, 0
5, 1917, Note_on_c, 4, 55, 0
5, 1918, Note_on_c, 4, 59, 0
5, 1920, Note_on_c, 4, 55, 70
5, 1920, Note_on_c, 4, 59, 70
5, 1920, Note_on_c, 4, 62, 70
5, 2096, Note_on_c, 4, 62, 0
5, 2096, Note_on_c, 4, 59, 0
5, 2097, Note_on_c, 4, 55, 0
5, 2100, Note_on_c, 4, 55, 85
5, 2100, Note_on_c, 4, 59, 85
5, 2100, Note_on_c, 4, 62, 85
5, 2216, Note_on_c, 4, 59, 0
5, 2218, Note_on_c, 4, 62, 0
5, 2218, Note_on_c, 4, 55, 0
5, 2220, Note_on_c, 4, 55, 70
5, 2220, Note_on_c, 4, 59, 70
5, 2220, Note_on_c, 4, 62, 70
5, 2398, Note_on_c, 4, 62, 0
5, 2398, Note_on_c, 4, 59, 0
5, 2398, Note_on_c, 4, 55, 0
5, 2400, Note_on_c, 4, 55, 70
5, 2400, Note_on_c, 4, 59, 70
5, 2400, Note_on_c, 4, 62, 70
5, 2577, Note_on_c, 4, 62, 0
5, 2577, Note_on_c, 4, 59, 0
5, 2577, Note_on_c, 4, 55, 0
5, 2580, Note_on_c, 4, 55, 85
5, 2580, Note_on_c, 4, 59, 85
5, 2580, Note_on_c, 4, 62, 85
5, 2696, Note_on_c, 4, 59, 0
5, 2697, Note_on_c, 4, 62, 0
5, 2698, Note_on_c, 4, 55, 0
5, 2700, Note_on_c, 4, 55, 70
5, 2700, Note_on_c, 4, 59, 70
5, 2700, Note_on_c, 4, 62, 70
5, 2816, Note_on_c, 4, 62, 0
5, 2817, Note_on_c, 4, 55, 0
5, 2818, Note_on_c, 4, 59, 0
5, 2820, Note_on_c, 4, 55, 70
5, 2820, Note_on_c, 4, 59, 70
5, 2820, Note_on_c, 4, 62, 70
5, 2876, Note_on_c, 4, 62, 0
5, 2877, Note_on_c, 4, 59, 0
5, 2877, Note_on_c, 4, 55, 0
5, 2880, Note_on_c, 4, 55, 70
5, 2880, Note_on_c, 4, 59, 70
5, 2880, Note_on_c, 4, 62, 70
5, 3056, Note_on_c, 4, 59, 0
5, 3058, Note_on_c, 4, 62, 0
5, 3058, Note_on_c, 4, 55, 0
5, 3060, Note_on_c, 4, 55, 85
5, 3060, Note_on_c, 4, 59, 85
5, 3060, Note_on_c, 4, 62, 85
5, 3176, Note_on_c, 4, 59, 0
5, 3176, Note_on_c, 4, 55, 0
5, 3178, Note_on_c, 4, 62, 0
5, 3180, Note_on_c, 4, 55, 70
5, 3180, Note_on_c, 4, 59, 70
5, 3180, Note_on_c, 4, 62, 70
5, 3296, Note_on_c, 4, 62, 0
5, 3296, Note_on_c, 4, 59, 0
5, 3296, Note_on_c, 4, 55, 0
5, 3300, Note_on_c, 4, 55, 70
5, 3300, Note_on_c, 4, 59, 70
5, 3300, Note_on_c, 4, 62, 70
5, 3356, Note_on_c, 4, 55, 0
5, 3357, Note_on_c, 4, 62, 0
5, 3358, Note_on_c, 4, 59, 0
5, 3360, Note_on_c, 4, 55, 70
5, 3360, Note_on_c, 4, 59, 70
5, 3360, Note_on_c, 4, 62, 70
5, 3537, Note_on_c, 4, 59, 0
5, 3538, Note_on_c, 4, 62, 0
5, 3538, Note_on_c, 4, 55, 0
5, 3540, Note_on_c, 4, 55, 85
5, 3540, Note_on_c, 4, 59, 85
5, 3540, Note_on_c, 4, 62, 85
5, 3657, Note_on_c, 4, 59, 0
5, 3657, Note_on_c, 4, 55, 0
5, 3658, Note_on_c, 4, 62, 0
5, 3660, Note_on_c, 4, 55, 70
5, 3660, Note_on_c, 4, 59, 70
5, 3660, Note_on_c, 4, 62, 70
5, 3777, Note_on_c, 4, 59, 0
5, 3778, Note_on_c, 4, 62, 0
5, 3778, Note_on_c, 4, 55, 0
5, 3780, Note_on_c, 4, 55, 70
5, 3780, Note_on_c, 4, 59, 70
5, 3780, Note_on_c, 4, 62, 70
5, 3837, Note_on_c, 4, 59, 0
5, 3838, Note_on_c, 4, 62, 0
5, 3838, Note_on_c, 4, 55, 0
5, 3840, Note_on_c, 4, 52, 70
5, 3840, Note_on_c, 4, 55, 70
5, 3840, Note_on_c, 4, 60, 70
5, 4016, Note_on_c, 4, 60, 0
5, 4016, Note_on_c, 4, 55, 0
5, 4016, Note_on_c, 4, 52, 0
5, 4020, Note_on_c, 4, 52, 85
5, 4020, Note_on_c, 4, 55, 85
5, 4020, Note_on_c, 4, 60, 85
5, 4138, Note_on_c, 4, 60, 0
5, 4138, Note_on_c, 4, 55, 0
5, 4138, Note_on_c, 4, 52, 0
5, 4140, Note_on_c, 4, 52, 70
5, 4140, Note_on_c, 4, 55, 70
5, 4140, Note_on_c, 4, 60, 70
5, 4256, Note_on_c, 4, 55, 0
5, 4257, Note_on_c, 4, 52, 0
5, 4258, Note_on_c, 4, 60, 0
5, 4260, Note_on_c, 4, 52, 70
5, 4260, Note_on_c, 4, 55, 70
5, 4260, Note_on_c, 4, 60, 70
5, 4316, Note_on_c, 4, 52, 0
5, 4317, Note_on_c, 4, 60, 0
5, 4317, Note_on_c, 4, 55, 0
5, 4320, Note_on_c, 4, 52, 70
5, 4320, Note_on_c, 4, 55, 70
5, 4320, Note_on_c, 4, 60, 70
5, 4496, Note_on_c, 4, 60, 0
5, 4497, Note_on_c, 4, 52, 0
5, 4498, Note_on_c, 4, 55, 0
5, 4500, Note_on_c, 4, 52, 85
5, 4500, Note_on_c, 4, 55, 85
5, 4500, Note_on_c, 4, 60, 85
5, 4617, Note_on_c, 4, 55, 0
5, 4617, Note_on_c, 4, 52, 0
5, 4618, Note_on_c, 4, 60, 0
5, 4620, Note_on_c, 4, 52, 70
5, 4620, Note_on_c, 4, 55, 70
5, 4620, Note_on_c, 4, 60, 70
5, 4736, Note_on_c, 4, 60, 0
5, 4736, Note_on_c, 4, 55, 0
5, 4737, Note_on_c, 4, 52, 0
5, 4740, Note_on_c, 4, 52, 70
5, 4740, Note_on_c, 4, 55, 70
5, 4740, Note_on_c, 4, 60, 70
5, 4797, Note_on_c, 4, 55, 0
5, 4797, Note_on_c, 4, 52, 0
5, 4798, Note_on_c, 4, 60, 0
5, 4800, Note_on_c, 4, 50, 70
5, 4800, Note_on_c, 4, 55, 70
5, 4800, Note_on_c, 4, 59, 70
5, 4976, Note_on_c, 4, 50, 0
5, 4977, Note_on_c, 4, 59, 0
5, 4978, Note_on_c, 4, 55, 0
5, 4980, Note_on_c, 4, 50, 85
5, 4980, Note_on_c, 4, 55, 85
5, 4980, Note_on_c, 4, 59, 85
5, 5096, Note_on_c, 4, 50, 0
5, 5098, Note_on_c, 4, 59, 0
5, 5098, Note_on_c, 4, 55, 0
5, 5100, Note_on_c, 4, 50, 70
5, 5100, Note_on_c, 4, 55, 70
5, 5100, Note_on_c, 4, 59, 70
5, 5216, Note_on_c, 4, 59, 0
5, 5217, Note_on_c, 4, 50, 0
5, 5218, Note_on_c, 4, 55, 0
5, 5220, Note_on_c, 4, 50, 70
5, 5220, Note_on_c, 4, 55, 70
5, 5220, Note_on_c, 4, 59, 70
5, 5276, Note_on_c, 4, 59, 0
5, 5277, Note_on_c, 4, 50, 0
5, 5278, Note_on_c, 4, 55, 0
5, 5280, Note_on_c, 4, 50, 70
5, 5280, Note_on_c, 4, 55, 70
5, 5280, Note_on_c, 4, 59, 70
5, 5457, Note_on_c, 4, 50, 0
5, 5458, Note_on_c, 4, 59, 0
5, 5458, Note_on_c, 4, 55, 0
5, 5460, Note_on_c, 4, 50, 85
5, 5460, Note_on_c, 4, 55, 85
5, 5460, Note_on_c, 4, 59, 85
5, 5577, Note_on_c, 4, 55, 0
5, 5578, Note_on_c, 4, 59, 0
5, 5578, Note_on_c, 4, 50, 0
5, 5580, Note_on_c, 4, 50, 70
5, 5580, Note_on_c, 4, 55, 70
5, 5580, Note_on_c, 4, 59, 70
5, 5696, Note_on_c, 4, 55, 0
5, 5697, Note_on_c, 4, 59, 0
5, 5698, Note_on_c, 4, 50, 0
5, 5700, Note_on_c, 4, 50, 70
5, 5700, Note_on_c, 4, 55, 70
5, 5700, Note_on_c, 4, 59, 70
5, 5756, Note_on_c, 4, 55, 0
5, 5758, Note_on_c, 4, 59, 0
5, 5758, Note_on_c, 4, 50, 0
5, 5760, Note_on_c, 4, 54, 70
5, 5760, Note_on_c, 4, 57, 70
5, 5760, Note_on_c, 4, 62, 70
5, 5936, Note_on_c, 4, 62, 0
5, 5937, Note_on_c, 4, 57, 0
5, 5937, Note_on_c, 4, 54, 0
5, 5940, Note_on_c, 4, 54, 85
5, 5940, Note_on_c, 4, 57, 85
5, 5940, Note_on_c, 4, 62, 85
5, 6056, Note_on_c, 4, 62, 0
5, 6058, Note_on_c, 4, 57, 0
5, 6058, Note_on_c, 4, 54, 0
5, 6060, Note_on_c, 4, 54, 70
5, 6060, Note_on_c, 4, 57, 70
5, 6060, Note_on_c, 4, 62, 70
5, 6176, Note_on_c, 4, 54, 0
5, 6177, Note_on_c, 4, 62, 0
5, 6177, Note_on_c, 4, 57, 0
5, 6180, Note_on_c, 4, 54, 70
5, 6180, Note_on_c, 4, 57, 70
5, 6180, Note_on_c, 4, 62, 70
5, 6236, Note_on_c, 4, 62, 0
5, 6237, Note_on_c, 4, 57, 0
5, 6237, Note_on_c, 4, 54, 0
5, 6240, Note_on_c, 4, 54, 70
5, 6240, Note_on_c, 4, 57, 70
5, 6240, Note_on_c, 4, 62, 70
5, 6416, Note_on_c, 4, 54, 0
5, 6418, Note_on_c, 4, 62, 0
5, 6418, Note_on_c, 4, 57, 0
5, 6420, Note_on_c, 4, 54, 85
5, 6420, Note_on_c, 4, 57, 85
5, 6420, Note_on_c, 4, 62, 85
5, 6536, Note_on_c, 4, 62, 0
5, 6536, Note_on_c, 4, 57, 0
5, 6537, Note_on_c, 4, 54, 0
5, 6540, Note_on_c, 4, 54, 70
5, 6540, Note_on_c, 4, 57, 70
5, 6540, Note_on_c, 4, 62, 70
5, 6656, Note_on_c, 4, 62, 0
5, 6657, Note_on_c, 4, 57, 0
5, 6657, Note_on_c, 4, 54, 0
5, 6660, Note_on_c, 4, 54, 70
5, 6660, Note_on_c, 4, 57, 70
5, 6660, Note_on_c, 4, 62, 70
5, 6716, Note_on_c, 4, 54, 0
5, 6717, Note_on_c, 4, 62, 0
5, 6718, Note_on_c, 4, 57, 0
5, 6720, Note_on_c, 4, 52, 70
5, 6720, Note_on_c, 4, 55, 70
5, 6720, Note_on_c, 4, 60, 70
5, 6896, Note_on_c, 4, 60, 0
5, 6896, Note_on_c, 4, 55, 0
5, 6896, Note_on_c, 4, 52, 0
5, 6900, Note_on_c, 4, 52, 85
5, 6900, Note_on_c, 4, 55, 85
5, 6900, Note_on_c, 4, 60, 85
5, 7017, Note_on_c, 4, 52, 0
5, 7018, Note_on_c, 4, 60, 0
5, 7018, Note_on_c, 4, 55, 0
5, 7020, Note_on_c, 4, 52, 70
5, 7020, Note_on_c, 4, 55, 70
5, 7020, Note_on_c, 4, 60, 70
5, 7137, Note_on_c, 4, 52, 0
5, 7138, Note_on_c, 4, 60, 0
5, 7138, Note_on_c, 4, 55, 0
5, 7140, Note_on_c, 4, 52, 70
5, 7140, Note_on_c, 4, 55, 70
5, 7140, Note_on_c, 4, 60, 70
5, 7196, Note_on_c, 4, 60, 0
5, 7198, Note_on_c, 4, 55, 0
5, 7198, Note_on_c, 4, 52, 0
5, 7200, Note_on_c, 4, 52, 70
5, 7200, Note_on_c, 4, 55, 70
5, 7200, Note_on_c, 4, 60, 70
5, 7376, Note_on_c, 4, 60, 0
5, 7376, Note_on_c, 4, 52, 0
5, 7377, Note_on_c, 4, 55, 0
5, 7380, Note_on_c, 4, 52, 85
5, 7380, Note_on_c, 4, 55, 85
5, 7380, Note_on_c, 4, 60, 85
5, 7496, Note_on_c, 4, 55, 0
5, 7497, Note_on_c, 4, 52, 0
5, 7498, Note_on_c, 4, 60, 0
5, 7500, Note_on_c, 4, 52, 70
5, 7500, Note_on_c, 4, 55, 70
5, 7500, Note_on_c, 4, 60, 70
5, 7616, Note_on_c, 4, 60, 0
5, 7616, Note_on_c, 4, 55, 0
5, 7616, Note_on_c, 4, 52, 0
5, 7620, Note_on_c, 4, 52, 70
5, 7620, Note_on_c, 4, 55, 70
5, 7620, Note_on_c, 4, 60, 70
5, 7677, Note_on_c, 4, 55, 0
5, 7677, Note_on_c, 4, 52, 0
5, 7678, Note_on_c, 4, 60, 0
5, 7680, Note_on_c, 4, 50, 70
5, 7680, Note_on_c, 4, 55, 70
5, 7680, Note_on_c, 4, 59, 70
5, 7856, Note_on_c, 4, 55, 0
5, 7857, Note_on_c, 4, 50, 0
5, 7858, Note_on_c, 4, 59, 0
5, 7860, Note_on_c, 4, 50, 85
5, 7860, Note_on_c, 4, 55, 85
5, 7860, Note_on_c, 4, 59, 85
5, 7976, Note_on_c, 4, 59, 0
5, 7978, Note_on_c, 4, 55, 0
5, 7978, Note_on_c, 4, 50, 0
5, 7980, Note_on_c, 4, 50, 70
5, 7980, Note_on_c, 4, 55, 70
5, 7980, Note_on_c, 4, 59, 70
5, 8156, Note_on_c, 4, 50, 0
5, 8157, Note_on_c, 4, 59, 0
5, 8158, Note_on_c, 4, 55, 0
5, 8160, Note_on_c, 4, 50, 70
5, 8160, Note_on_c, 4, 55, 70
5, 8160, Note_on_c, 4, 59, 70
5, 8336, Note_on_c, 4, 55, 0
5, 8337, Note_on_c, 4, 59, 0
5, 8337, Note_on_c, 4, 50, 0
5, 8340, Note_on_c, 4, 50, 85
5, 8340, Note_on_c, 4, 55, 85
5, 8340, Note_on_c, 4, 59, 85
5, 8458, Note_on_c, 4, 59, 0
5, 8458, Note_on_c, 4, 55, 0
5, 8458, Note_on_c, 4, 50, 0
5, 8460, Note_on_c, 4, 50, 70
5, 8460, Note_on_c, 4, 55, 70
5, 8460, Note_on_c, 4, 59, 70
5, 8576, Note_on_c, 4, 55, 0
5, 8576, Note_on_c, 4, 50, 0
5, 8578, Note_on_c, 4, 59, 0
5, 8580, Note_on_c, 4, 50, 70
5, 8580, Note_on_c, 4, 55, 70
5, 8580, Note_on_c, 4, 59, 70
5, 8637, Note_on_c, 4, 55, 0
5, 8638, Note_on_c, 4, 59, 0
5, 8638, Note_on_c, 4, 50, 0
5, 8640, Note_on_c, 4, 50, 70
5, 8640, Note_on_c, 4, 55, 70
5, 8640, Note_on_c, 4, 59, 70
5, 8816, Note_on_c, 4, 59, 0
5, 8816, Note_on_c, 4, 50, 0
5, 8817, Note_on_c, 4, 55, 0
5, 8820, Note_on_c, 4, 50, 85
5, 8820, Note_on_c, 4, 55, 85
5, 8820, Note_on_c, 4, 59, 85
5, 8936, Note_on_c, 4, 59, 0
5, 8937, Note_on_c, 4, 55, 0
5, 8937, Note_on_c, 4, 50, 0
5, 8940, Note_on_c, 4, 50, 70
5, 8940, Note_on_c, 4, 55, 70
5, 8940, Note_on_c, 4, 59, 70
5, 9056, Note_on_c, 4, 59, 0
5, 9058, Note_on_c, 4, 55, 0
5, 9058, Note_on_c, 4, 50, 0
5, 9060, Note_on_c, 4, 50, 70
5, 9060, Note_on_c, 4, 55, 70
5, 9060, Note_on_c, 4, 59, 70
5, 9116, Note_on_c, 4, 50, 0
5, 9118, Note_on_c, 4, 59, 0
5, 9118, Note_on_c, 4, 55, 0
5, 9120, Note_on_c, 4, 50, 70
5, 9120, Note_on_c, 4, 55, 70
5, 9120, Note_on_c, 4, 59, 70
5, 9296, Note_on_c, 4, 55, 0
5, 9296, Note_on_c, 4, 50, 0
5, 9297, Note_on_c, 4, 59, 0
5, 9300, Note_on_c, 4, 50, 85
5, 9300, Note_on_c, 4, 55, 85
5, 9300, Note_on_c, 4, 59, 85
5, 9416, Note_on_c, 4, 50, 0
5, 9417, Note_on_c, 4, 59, 0
5, 9417, Note_on_c, 4, 55, 0
5, 9420, Note_on_c, 4, 50, 70
5, 9420, Note_on_c, 4, 55, 70
5, 9420, Note_on_c, 4, 59, 70
5, 9536, Note_on_c, 4, 59, 0
5, 9537, Note_on_c, 4, 55, 0
5, 9537, Note_on_c, 4, 50, 0
5, 9540, Note_on_c, 4, 50, 70
5, 9540, Note_on_c, 4, 55, 70
5, 9540, Note_on_c, 4, 59, 70
5, 9596, Note_on_c, 4, 59, 0
5, 9597, Note_on_c, 4, 50, 0
5, 9598, Note_on_c, 4, 55, 0
5, 9600, Note_on_c, 4, 50, 70
5, 9600, Note_on_c, 4, 55, 70
5, 9600, Note_on_c, 4, 59, 70
5, 9776, Note_on_c, 4, 50, 0
5, 9777, Note_on_c, 4, 55, 0
5, 9778, Note_on_c, 4, 59, 0
5, 9780, Note_on_c, 4, 50, 85
5, 9780, Note_on_c, 4, 55, 85
5, 9780, Note_on_c, 4, 59, 85
5, 9896, Note_on_c, 4, 55, 0
5, 9898, Note_on_c, 4, 59, 0
5, 9898, Note_on_c, 4, 50, 0
5, 9900, Note_on_c, 4, 50, 70
5, 9900, Note_on_c, 4, 55, 70
5, 9900, Note_on_c, 4, 59, 70
5, 10016, Note_on_c, 4, 59, 0
5, 10017, Note_on_c, 4, 50, 0
5, 10018, Note_on_c, 4, 55, 0
5, 10020, Note_on_c, 4, 50, 70
5, 10020, Note_on_c, 4, 55, 70
5, 10020, Note_on_c, 4, 59, 70
5, 10076, Note_on_c, 4, 59, 0
5, 10076, Note_on_c, 4, 55, 0
5, 10076, Note_on_c, 4, 50, 0
5, 10080, Note_on_c, 4, 50, 70
5, 10080, Note_on_c, 4, 55, 70
5, 10080, Note_on_c, 4, 59, 70
5, 10256, Note_on_c, 4, 59, 0
5, 10257, Note_on_c, 4, 55, 0
5, 10258, Note_on_c, 4, 50, 0
5, 10260, Note_on_c, 4, 50, 85
5, 10260, Note_on_c, 4, 55, 85
5, 10260, Note_on_c, 4, 59, 85
5, 10376, Note_on_c, 4, 50, 0
5, 10377, Note_on_c, 4, 59, 0
5, 10377, Note_on_c, 4, 55, 0
5, 10380, Note_on_c, 4, 50, 70
5, 10380, Note_on_c, 4, 55, 70
5, 10380, Note_on_c, 4, 59, 70
5, 10497, Note_on_c, 4, 59, 0
5, 10497, Note_on_c, 4, 55, 0
5, 10498, Note_on_c, 4, 50, 0
5, 10500, Note_on_c, 4, 50, 70
5, 10500, Note_on_c, 4, 55, 70
5, 10500, Note_on_c, 4, 59, 70
5, 10556, Note_on_c, 4, 50, 0
5, 10557, Note_on_c, 4, 59, 0
5, 10557, Note_on_c, 4, 55, 0
5, 10560, Note_on_c, 4, 50, 70
5, 10560, Note_on_c, 4, 55, 70
5, 10560, Note_on_c, 4, 59, 70
5, 10736, Note_on_c, 4, 55, 0
5, 10736, Note_on_c, 4, 50, 0
5, 10738, Note_on_c, 4, 59, 0
5, 10740, Note_on_c, 4, 50, 85
5, 10740, Note_on_c, 4, 55, 85
5, 10740, Note_on_c, 4, 59, 85
5, 10856, Note_on_c, 4, 59, 0
5, 10856, Note_on_c, 4, 55, 0
5, 10857, Note_on_c, 4, 50, 0
5, 10860, Note_on_c, 4, 50, 70
5, 10860, Note_on_c, 4, 55, 70
5, 10860, Note_on_c, 4, 59, 70
5, 10976, Note_on_c, 4, 59, 0
5, 10976, Note_on_c, 4, 55, 0
5, 10976, Note_on_c, 4, 50, 0
5, 10980, Note_on_c, 4, 50, 70
5, 10980, Note_on_c, 4, 55, 70
5, 10980, Note_on_c, 4, 59, 70
5, 11036, Note_on_c, 4, 59, 0
5, 11036, Note_on_c, 4, 55, 0
5, 11037, Note_on_c, 4, 50, 0
5, 11040, Note_on_c, 4, 50, 70
5, 11040, Note_on_c, 4, 55, 70
5, 11040, Note_on_c, 4, 59, 70
5, 11216, Note_on_c, 4, 59, 0
5, 11216, Note_on_c, 4, 55, 0
5, 11217, Note_on_c, 4, 50, 0
5, 11220, Note_on_c, 4, 50, 85
5, 11220, Note_on_c, 4, 55, 85
5, 11220, Note_on_c, 4, 59, 85
5, 11336, Note_on_c, 4, 59, 0
5, 11336, Note_on_c, 4, 50, 0
5, 11338, Note_on_c, 4, 55, 0
5, 11340, Note_on_c, 4, 50, 70
5, 11340, Note_on_c, 4, 55, 70
5, 11340, Note_on_c, 4, 59, 70
5, 11456, Note_on_c, 4, 55, 0
5, 11457, Note_on_c, 4, 59, 0
5, 11458, Note_on_c, 4, 50, 0
5, 11460, Note_on_c, 4, 50, 70
5, 11460, Note_on_c, 4, 55, 70
5, 11460, Note_on_c, 4, 59, 70
5, 11516, Note_on_c, 4, 59, 0
5, 11517, Note_on_c, 4, 55, 0
5, 11518, Note_on_c, 4, 50, 0
5, 11520, Note_on_c, 4, 50, 70
5, 11520, Note_on_c, 4, 55, 70
5, 11520, Note_on_c, 4, 59, 70
5, 11696, Note_on_c, 4, 55, 0
5, 11698, Note_on_c, 4, 59, 0
5, 11698, Note_on_c, 4, 50, 0
5, 11700, Note_on_c, 4, 50, 85
5, 11700, Note_on_c, 4, 55, 85
5, 11700, Note_on_c, 4, 59, 85
5, 11816, Note_on_c, 4, 55, 0
5, 11818, Note_on_c, 4, 59, 0
5, 11818, Note_on_c, 4, 50, 0
5, 11820, Note_on_c, 4, 50, 70
5, 11820, Note_on_c, 4, 55, 70
5, 11820, Note_on_c, 4, 59, 70
5, 11996, Note_on_c, 4, 59, 0
5, 11996, Note_on_c, 4, 50, 0
5, 11998, Note_on_c, 4, 55, 0
5, 12000, Note_on_c, 4, 50, 70
5, 12000, Note_on_c, 4, 55, 70
5, 12000, Note_on_c, 4, 59, 70
5, 12176, Note_on_c, 4, 50, 0
5, 12177, Note_on_c, 4, 59, 0
5, 12177, Note_on_c, 4, 55, 0
5, 12180, Note_on_c, 4, 50, 85
5, 12180, Note_on_c, 4, 55, 85
5, 12180, Note_on_c, 4, 59, 85
5, 12297, Note_on_c, 4, 59, 0
5, 12297, Note_on_c, 4, 55, 0
5, 12297, Note_on_c, 4, 50, 0
5, 12300, Note_on_c, 4, 50, 70
5, 12300, Note_on_c, 4, 55, 70
5, 12300, Note_on_c, 4, 59, 70
5, 12416, Note_on_c, 4, 50, 0
5, 12418, Note_on_c, 4, 59, 0
5, 12418, Note_on_c, 4, 55, 0
5, 12420, Note_on_c, 4, 50, 70
5, 12420, Note_on_c, 4, 55, 70
5, 12420, Note_on_c, 4, 59, 70
5, 12476, Note_on_c, 4, 59, 0
5, 12477, Note_on_c, 4, 55, 0
5, 12477, Note_on_c, 4, 50, 0
5, 12480, Note_on_c, 4, 50, 70
5, 12480, Note_on_c, 4, 55, 70
5, 12480, Note_on_c, 4, 59, 70
5, 12656, Note_on_c, 4, 59, 0
5, 12657, Note_on_c, 4, 55, 0
5, 12658, Note_on_c, 4, 50, 0
5, 12660, Note_on_c, 4, 50, 85
5, 12660, Note_on_c, 4, 55, 85
5, 12660, Note_on_c, 4, 59, 85
5, 12776, Note_on_c, 4, 55, 0
5, 12778, Note_on_c, 4, 59, 0
5, 12778, Note_on_c, 4, 50, 0
5, 12780, Note_on_c, 4, 50, 70
5, 12780, Note_on_c, 4, 55, 70
5, 12780, Note_on_c, 4, 59, 70
5, 12896, Note_on_c, 4, 59, 0
5, 12896, Note_on_c, 4, 50, 0
5, 12898, Note_on_c, 4, 55, 0
5, 12900, Note_on_c, 4, 50, 70
5, 12900, Note_on_c, 4, 55, 70
5, 12900, Note_on_c, 4, 59, 70
5, 12956, Note_on_c, 4, 50, 0
5, 12957, Note_on_c, 4, 59, 0
5, 12958, Note_on_c, 4, 55, 0
5, 12960, Note_on_c, 4, 50, 70
5, 12960, Note_on_c, 4, 55, 70
5, 12960, Note_on_c, 4, 59, 70
5, 13136, Note_on_c, 4, 50, 0
5, 13137, Note_on_c, 4, 59, 0
5, 13138, Note_on_c, 4, 55, 0
5, 13140, Note_on_c, 4, 50, 85
5, 13140, Note_on_c, 4, 55, 85
5, 13140, Note_on_c, 4, 59, 85
5, 13256, Note_on_c, 4, 59, 0
5, 13257, Note_on_c, 4, 55, 0
5, 13258, Note_on_c, 4, 50, 0
5, 13260, Note_on_c, 4, 50, 70
5, 13260, Note_on_c, 4, 55, 70
5, 13260, Note_on_c, 4, 59, 70
5, 13376, Note_on_c, 4, 55, 0
5, 13377, Note_on_c, 4, 59, 0
5, 13378, Note_on_c, 4, 50, 0
5, 13380, Note_on_c, 4, 50, 70
5, 13380, Note_on_c, 4, 55, 70
5, 13380, Note_on_c, 4, 59, 70
5, 13437, Note_on_c, 4, 59, 0
5, 13437, Note_on_c, 4, 55, 0
5, 13437, Note_on_c, 4, 50, 0
5, 13440, Note_on_c, 4, 52, 70
5, 13440, Note_on_c, 4, 55, 70
5, 13440, Note_on_c, 4, 60, 70
5, 13616, Note_on_c, 4, 60, 0
5, 13617, Note_on_c, 4, 52, 0
5, 13618, Note_on_c, 4, 55, 0
5, 13620, Note_on_c, 4, 52, 85
5, 13620, Note_on_c, 4, 55, 85
5, 13620, Note_on_c, 4, 60, 85
5, 13736, Note_on_c, 4, 55, 0
5, 13737, Note_on_c, 4, 60, 0
5, 13738, Note_on_c, 4, 52, 0
5, 13740, Note_on_c, 4, 52, 70
5, 13740, Note_on_c, 4, 55, 70
5, 13740, Note_on_c, 4, 60, 70
5, 13856, Note_on_c, 4, 60, 0
5, 13856, Note_on_c, 4, 52, 0
5, 13857, Note_on_c, 4, 55, 0
5, 13860, Note_on_c, 4, 52, 70
5, 13860, Note_on_c, 4, 55, 70
5, 13860, Note_on_c, 4, 60, 70
5, 13918, Note_on_c, 4, 60, 0
5, 13918, Note_on_c, 4, 55, 0
5, 13918, Note_on_c, 4, 52, 0
5, 13920, Note_on_c, 4, 52, 70
5, 13920, Note_on_c, 4, 55, 70
5, 13920, Note_on_c, 4, 60, 70
5, 14096, Note_on_c, 4, 55, 0
5, 14097, Note_on_c, 4, 52, 0
5, 14098, Note_on_c, 4, 60, 0
5, 14100, Note_on_c, 4, 52, 85
5, 14100, Note_on_c, 4, 55, 85
5, 14100, Note_on_c, 4, 60, 85
5, 14216, Note_on_c, 4, 55, 0
5, 14216, Note_on_c, 4, 52, 0
5, 14218, Note_on_c, 4, 60, 0
5, 14220, Note_on_c, 4, 52, 70
5, 14220, Note_on_c, 4, 55, 70
5, 14220, Note_on_c, 4, 60, 70
5, 14337, Note_on_c, 4, 55, 0
5, 14337, Note_on_c, 4, 52, 0
5, 14338, Note_on_c, 4, 60, 0
5, 14340, Note_on_c, 4, 52, 70
5, 14340, Note_on_c, 4, 55, 70
5, 14340, Note_on_c, 4, 60, 70
5, 14397, Note_on_c, 4, 55, 0
5, 14398, Note_on_c, 4, 60, 0
5, 14398, Note_on_c, 4, 52, 0
5, 14400, Note_on_c, 4, 55, 70
5, 14400, Note_on_c, 4, 59, 70
5, 14400, Note_on_c, 4, 62, 70
5, 14576, Note_on_c, 4, 59, 0
5, 14576, Note_on_c, 4, 55, 0
5, 14577, Note_on_c, 4, 62, 0
5, 14580, Note_on_c, 4, 55, 85
5, 14580, Note_on_c, 4, 59, 85
5, 14580, Note_on_c, 4, 62, 85
5, 14697, Note_on_c, 4, 62, 0
5, 14697, Note_on_c, 4, 59, 0
5, 14697, Note_on_c, 4, 55, 0
5, 14700, Note_on_c, 4, 55, 70
5, 14700, Note_on_c, 4, 59, 70
5, 14700, Note_on_c, 4, 62, 70
5, 14816, Note_on_c, 4, 62, 0
5, 14816, Note_on_c, 4, 55, 0
5, 14818, Note_on_c, 4, 59, 0
5, 14820, Note_on_c, 4, 55, 70
5, 14820, Note_on_c, 4, 59, 70
5, 14820, Note_on_c, 4, 62, 70
5, 14877, Note_on_c, 4, 55, 0
5, 14878, Note_on_c, 4, 62, 0
5, 14878, Note_on_c, 4, 59, 0
5, 14880, Note_on_c, 4, 55, 70
5, 14880, Note_on_c, 4, 59, 70
5, 14880, Note_on_c, 4, 62, 70
5, 15056, Note_on_c, 4, 55, 0
5, 15057, Note_on_c, 4, 59, 0
5, 15058, Note_on_c, 4, 62, 0
5, 15060, Note_on_c, 4, 55, 85
5, 15060, Note_on_c, 4, 59, 85
5, 15060, Note_on_c, 4, 62, 85
5, 15176, Note_on_c, 4, 55, 0
5, 15177, Note_on_c, 4, 59, 0
5, 15178, Note_on_c, 4, 62, 0
5, 15180, Note_on_c, 4, 55, 70
5, 15180, Note_on_c, 4, 59, 70
5, 15180, Note_on_c, 4, 62, 70
5, 15296, Note_on_c, 4, 55, 0
5, 15297, Note_on_c, 4, 62, 0
5, 15298, Note_on_c, 4, 59, 0
5, 15300, Note_on_c, 4, 55, 70
5, 15300, Note_on_c, 4, 59, 70
5, 15300, Note_on_c, 4, 62, 70
5, 15356, Note_on_c, 4, 59, 0
5, 15357, Note_on_c, 4, 62, 0
5, 15357, Note_on_c, 4, 55, 0
5, 15360, Note_on_c, 4, 54, 70
5, 15360, Note_on_c, 4, 57, 70
5, 15360, Note_on_c, 4, 62, 70
5, 15536, Note_on_c, 4, 62, 0
5, 15537, Note_on_c, 4, 57, 0
5, 15538, Note_on_c, 4, 54, 0
5, 15540, Note_on_c, 4, 54, 85
5, 15540, Note_on_c, 4, 57, 85
5, 15540, Note_on_c, 4, 62, 85
5, 15656, Note_on_c, 4, 62, 0
5, 15658, Note_on_c, 4, 57, 0
5, 15658, Note_on_c, 4, 54, 0
5, 15660, Note_on_c, 4, 54, 70
5, 15660, Note_on_c, 4, 57, 70
5, 15660, Note_on_c, 4, 62, 70
5, 15836, Note_on_c, 4, 62, 0
5, 15836, Note_on_c, 4, 57, 0
5, 15838, Note_on_c, 4, 54, 0
5, 15840, Note_on_c, 4, 54, 70
5, 15840, Note_on_c, 4, 57, 70
5, 15840, Note_on_c, 4, 62, 70
5, 16016, Note_on_c, 4, 57, 0
5, 16016, Note_on_c, 4, 54, 0
5, 16018, Note_on_c, 4, 62, 0
5, 16020, Note_on_c, 4, 54, 85
5, 16020, Note_on_c, 4, 57, 85
5, 16020, Note_on_c, 4, 62, 85
5, 16137, Note_on_c, 4, 62, 0
5, 16137, Note_on_c, 4, 57, 0
5, 16138, Note_on_c, 4, 54, 0
5, 16140, Note_on_c, 4, 54, 70
5, 16140, Note_on_c, 4, 57, 70
5, 16140, Note_on_c, 4, 62, 70
5, 16256, Note_on_c, 4, 54, 0
5, 16257, Note_on_c, 4, 62, 0
5, 16257, Note_on_c, 4, 57, 0
5, 16260, Note_on_c, 4, 54, 70
5, 16260, Note_on_c, 4, 57, 70
5, 16260, Note_on_c, 4, 62, 70
5, 16317, Note_on_c, 4, 62, 0
5, 16317, Note_on_c, 4, 57, 0
5, 16318, Note_on_c, 4, 54, 0
5, 16320, Note_on_c, 4, 52, 70
5, 16320, Note_on_c, 4, 55, 70
5, 16320, Note_on_c, 4, 60, 70
5, 16496, Note_on_c, 4, 52, 0
5, 16497, Note_on_c, 4, 60, 0
5, 16498, Note_on_c, 4, 55, 0
5, 16500, Note_on_c, 4, 52, 85
5, 16500, Note_on_c, 4, 55, 85
5, 16500, Note_on_c, 4, 60, 85
5, 16617, Note_on_c, 4, 55, 0
5, 16618, Note_on_c, 4, 60, 0
5, 16618, Note_on_c, 4, 52, 0
5, 16620, Note_on_c, 4, 52, 70
5, 16620, Note_on_c, 4, 55, 70
5, 16620, Note_on_c, 4, 60, 70
5, 16738, Note_on_c, 4, 60, 0
5, 16738, Note_on_c, 4, 55, 0
5, 16738, Note_on_c, 4, 52, 0
5, 16740, Note_on_c, 4, 52, 70
5, 16740, Note_on_c, 4, 55, 70
5, 16740, Note_on_c, 4, 60, 70
5, 16797, Note_on_c, 4, 55, 0
5, 16797, Note_on_c, 4, 52, 0
5, 16798, Note_on_c, 4, 60, 0
5, 16800, Note_on_c, 4, 52, 70
5, 16800, Note_on_c, 4, 55, 70
5, 16800, Note_on_c, 4, 60, 70
5, 16976, Note_on_c, 4, 52, 0
5, 16977, Note_on_c, 4, 55, 0
5, 16978, Note_on_c, 4, 60, 0
5, 16980, Note_on_c, 4, 52, 85
5, 16980, Note_on_c, 4, 55, 85
5, 16980, Note_on_c, 4, 60, 85
5, 17096, Note_on_c, 4, 55, 0
5, 17097, Note_on_c, 4, 60, 0
5, 17097, Note_on_c, 4, 52, 0
5, 17100, Note_on_c, 4, 52, 70
5, 17100, Note_on_c, 4, 55, 70
5, 17100, Note_on_c, 4, 60, 70
5, 17216, Note_on_c, 4, 60, 0
5, 17217, Note_on_c, 4, 52, 0
5, 17218, Note_on_c, 4, 55, 0
5, 17220, Note_on_c, 4, 52, 70
5, 17220, Note_on_c, 4, 55, 70
5, 17220, Note_on_c, 4, 60, 70
5, 17276, Note_on_c, 4, 55, 0
5, 17278, Note_on_c, 4, 60, 0
5, 17278, Note_on_c, 4, 52, 0
5, 17280, Note_on_c, 4, 55, 70
5, 17280, Note_on_c, 4, 59, 70
5, 17280, Note_on_c, 4, 62, 70
5, 17458, Note_on_c, 4, 62, 0
5, 17458, Note_on_c, 4, 59, 0
5, 17458, Note_on_c, 4, 55, 0
5, 17460, Note_on_c, 4, 55, 85
5, 17460, Note_on_c, 4, 59, 85
5, 17460, Note_on_c, 4, 62, 85
5, 17576, Note_on_c, 4, 55, 0
5, 17577, Note_on_c, 4, 59, 0
5, 17578, Note_on_c, 4, 62, 0
5, 17580, Note_on_c, 4, 55, 70
5, 17580, Note_on_c, 4, 59, 70
5, 17580, Note_on_c, 4, 62, 70
5, 17758, Note_on_c, 4, 62, 0
5, 17758, Note_on_c, 4, 59, 0
5, 17758, Note_on_c, 4, 55, 0
5, 17760, Note_on_c, 4, 55, 70
5, 17760, Note_on_c, 4, 59, 70
5, 17760, Note_on_c, 4, 62, 70
5, 17936, Note_on_c, 4, 62, 0
5, 17936, Note_on_c, 4, 59, 0
5, 17938, Note_on_c, 4, 55, 0
5, 17940, Note_on_c, 4, 55, 85
5, 17940, Note_on_c, 4, 59, 85
5, 17940, Note_on_c, 4, 62, 85
5, 18056, Note_on_c, 4, 62, 0
5, 18056, Note_on_c, 4, 55, 0
5, 18057, Note_on_c, 4, 59, 0
5, 18060, Note_on_c, 4, 55, 70
5, 18060, Note_on_c, 4, 59, 70
5, 18060, Note_on_c, 4, 62, 70
5, 18177, Note_on_c, 4, 62, 0
5, 18177, Note_on_c, 4, 59, 0
5, 18177, Note_on_c, 4, 55, 0
5, 18180, Note_on_c, 4, 55, 70
5, 18180, Note_on_c, 4, 59, 70
5, 18180, Note_on_c, 4, 62, 70
5, 18236, Note_on_c, 4, 62, 0
5, 18236, Note_on_c, 4, 59, 0
5, 18236, Note_on_c, 4, 55, 0
5, 18240, Note_on_c, 4, 55, 70
5, 18240, Note_on_c, 4, 59, 70
5, 18240, Note_on_c, 4, 62, 70
5, 18417, Note_on_c, 4, 62, 0
5, 18417, Note_on_c, 4, 55, 0
5, 18418, Note_on_c, 4, 59, 0
5, 18420, Note_on_c, 4, 55, 85
5, 18420, Note_on_c, 4, 59, 85
5, 18420, Note_on_c, 4, 62, 85
5, 18536, Note_on_c, 4, 62, 0
5, 18538, Note_on_c, 4, 59, 0
5, 18538, Note_on_c, 4, 55, 0
5, 18540, Note_on_c, 4, 55, 70
5, 18540, Note_on_c, 4, 59, 70
5, 18540, Note_on_c, 4, 62, 70
5, 18716, Note_on_c, 4, 59, 0
5, 18717, Note_on_c, 4, 62, 0
5, 18717, Note_on_c, 4, 55, 0
5, 18720, Note_on_c, 4, 55, 70
5, 18720, Note_on_c, 4, 59, 70
5, 18720, Note_on_c, 4, 62, 70
5, 18897, Note_on_c, 4, 55, 0
5, 18898, Note_on_c, 4, 62, 0
5, 18898, Note_on_c, 4, 59, 0
5, 18900, Note_on_c, 4, 55, 85
5, 18900, Note_on_c, 4, 59, 85
5, 18900, Note_on_c, 4, 62, 85
5, 19016, Note_on_c, 4, 62, 0
5, 19018, Note_on_c, 4, 59, 0
5, 19018, Note_on_c, 4, 55, 0
5, 19020, Note_on_c, 4, 55, 70
5, 19020, Note_on_c, 4, 59, 70
5, 19020, Note_on_c, 4, 62, 70
5, 19136, Note_on_c, 4, 62, 0
5, 19136, Note_on_c, 4, 59, 0
5, 19138, Note_on_c, 4, 55, 0
5, 19140, Note_on_c, 4, 55, 70
5, 19140, Note_on_c, 4, 59, 70
5, 19140, Note_on_c, 4, 62, 70
5, 19197, Note_on_c, 4, 62, 0
5, 19197, Note_on_c, 4, 55, 0
5, 19198, Note_on_c, 4, 59, 0
5, 19200, Note_on_c, 4, 55, 70
5, 19200, Note_on_c, 4, 59, 70
5, 19200, Note_on_c, 4, 62, 70
5, 19376, Note_on_c, 4, 55, 0
5, 19377, Note_on_c, 4, 62, 0
5, 19377, Note_on_c, 4, 59, 0
5, 19380, Note_on_c, 4, 55, 85
5, 19380, Note_on_c, 4, 59, 85
5, 19380, Note_on_c, 4, 62, 85
5, 19497, Note_on_c, 4, 62, 0
5, 19498, Note_on_c, 4, 59, 0
5, 19498, Note_on_c, 4, 55, 0
5, 19500, Note_on_c, 4, 55, 70
5, 19500, Note_on_c, 4, 59, 70
5, 19500, Note_on_c, 4, 62, 70
5, 19617, Note_on_c, 4, 62, 0
5, 19617, Note_on_c, 4, 59, 0
5, 19617, Note_on_c, 4, 55, 0
5, 19620, Note_on_c, 4, 55, 70
5, 19620, Note_on_c, 4, 59, 70
5, 19620, Note_on_c, 4, 62, 70
5, 19676, Note_on_c, 4, 55, 0
5, 19677, Note_on_c, 4, 59, 0
5, 19678, Note_on_c, 4, 62, 0
5, 19680, Note_on_c, 4, 55, 70
5, 19680, Note_on_c, 4, 59, 70
5, 19680, Note_on_c, 4, 62, 70
5, 19857, Note_on_c, 4, 59, 0
5, 19858, Note_on_c, 4, 62, 0
5, 19858, Note_on_c, 4, 55, 0
5, 19860, Note_on_c, 4, 55, 85
5, 19860, Note_on_c, 4, 59, 85
5, 19860, Note_on_c, 4, 62, 85
5, 19977, Note_on_c, 4, 59, 0
5, 19978, Note_on_c, 4, 62, 0
5, 19978, Note_on_c, 4, 55, 0
5, 19980, Note_on_c, 4, 55, 70
5, 19980, Note_on_c, 4, 59, 70
5, 19980, Note_on_c, 4, 62, 70
5, 20156, Note_on_c, 4, 62, 0
5, 20157, Note_on_c, 4, 59, 0
5, 20157, Note_on_c, 4, 55, 0
5, 20160, Note_on_c, 4, 55, 70
5, 20160, Note_on_c, 4, 59, 70
5, 20160, Note_on_c, 4, 62, 70
5, 20336, Note_on_c, 4, 55, 0
5, 20337, Note_on_c, 4, 62, 0
5, 20337, Note_on_c, 4, 59, 0
5, 20340, Note_on_c, 4, 55, 85
5, 20340, Note_on_c, 4, 59, 85
5, 20340, Note_on_c, 4, 62, 85
5, 20456, Note_on_c, 4, 62, 0
5, 20456, Note_on_c, 4, 59, 0
5, 20457, Note_on_c, 4, 55, 0
5, 20460, Note_on_c, 4, 55, 70
5, 20460, Note_on_c, 4, 59, 70
5, 20460, Note_on_c, 4, 62, 70
5, 20577, Note_on_c, 4, 59, 0
5, 20577, Note_on_c, 4, 55, 0
5, 20578, Note_on_c, 4, 62, 0
5, 20580, Note_on_c, 4, 55, 70
5, 20580, Note_on_c, 4, 59, 70
5, 20580, Note_on_c, 4, 62, 70
5, 20636, Note_on_c, 4, 62, 0
5, 20637, Note_on_c, 4, 59, 0
5, 20638, Note_on_c, 4, 55, 0
5, 20640, Note_on_c, 4, 55, 70
5, 20640, Note_on_c, 4, 59, 70
5, 20640, Note_on_c, 4, 62, 70
5, 20816, Note_on_c, 4, 55, 0
5, 20818, Note_on_c, 4, 62, 0
5, 20818, Note_on_c, 4, 59, 0
5, 20820, Note_on_c, 4, 55, 85
5, 20820, Note_on_c, 4, 59, 85
5, 20820, Note_on_c, 4, 62, 85
5, 20937, Note_on_c, 4, 62, 0
5, 20937, Note_on_c, 4, 55, 0
5, 20938, Note_on_c, 4, 59, 0
5, 20940, Note_on_c, 4, 55, 70
5, 20940, Note_on_c, 4, 59, 70
5, 20940, Note_on_c, 4, 62, 70
5, 21056, Note_on_c, 4, 55, 0
5, 21057, Note_on_c, 4, 59, 0
5, 21058, Note_on_c, 4, 62, 0
5, 21060, Note_on_c, 4, 55, 70
5, 21060, Note_on_c, 4, 59, 70
5, 21060, Note_on_c, 4, 62, 70
5, 21117, Note_on_c, 4, 62, 0
5, 21117, Note_on_c, 4, 55, 0
5, 21118, Note_on_c, 4, 59, 0
5, 21120, Note_on_c, 4, 50, 70
5, 21120, Note_on_c, 4, 55, 70
5, 21120, Note_on_c, 4, 59, 70
5, 21296, Note_on_c, 4, 59, 0
5, 21296, Note_on_c, 4, 50, 0
5, 21298, Note_on_c, 4, 55, 0
5, 21300, Note_on_c, 4, 50, 85
5, 21300, Note_on_c, 4, 55, 85
5, 21300, Note_on_c, 4, 59, 85
5, 21418, Note_on_c, 4, 59, 0
5, 21418, Note_on_c, 4, 55, 0
5, 21418, Note_on_c, 4, 50, 0
5, 21420, Note_on_c, 4, 50, 70
5, 21420, Note_on_c, 4, 55, 70
5, 21420, Note_on_c, 4, 59, 70
5, 21536, Note_on_c, 4, 59, 0
5, 21537, Note_on_c, 4, 55, 0
5, 21538, Note_on_c, 4, 50, 0
5, 21540, Note_on_c, 4, 50, 70
5, 21540, Note_on_c, 4, 55, 70
5, 21540, Note_on_c, 4, 59, 70
5, 21596, Note_on_c, 4, 55, 0
5, 21598, Note_on_c, 4, 59, 0
5, 21598, Note_on_c, 4, 50, 0
5, 21600, Note_on_c, 4, 50, 70
5, 21600, Note_on_c, 4, 55, 70
5, 21600, Note_on_c, 4, 59, 70
5, 21776, Note_on_c, 4, 50, 0
5, 21777, Note_on_c, 4, 59, 0
5, 21777, Note_on_c, 4, 55, 0
5, 21780, Note_on_c, 4, 50, 85
5, 21780, Note_on_c, 4, 55, 85
5, 21780, Note_on_c, 4, 59, 85
5, 21896, Note_on_c, 4, 50, 0
5, 21897, Note_on_c, 4, 59, 0
5, 21898, Note_on_c, 4, 55, 0
5, 21900, Note_on_c, 4, 50, 70
5, 21900, Note_on_c, 4, 55, 70
5, 21900, Note_on_c, 4, 59, 70
5, 22016, Note_on_c, 4, 59, 0
5, 22017, Note_on_c, 4, 55, 0
5, 22018, Note_on_c, 4, 50, 0
5, 22020, Note_on_c, 4, 50, 70
5, 22020, Note_on_c, 4, 55, 70
5, 22020, Note_on_c, 4, 59, 70
5, 22077, Note_on_c, 4, 59, 0
5, 22077, Note_on_c, 4, 55, 0
5, 22078, Note_on_c, 4, 50, 0
5, 22080, Note_on_c, 4, 50, 70
5, 22080, Note_on_c, 4, 55, 70
5, 22080, Note_on_c, 4, 59, 70
5, 22256, Note_on_c, 4, 50, 0
5, 22257, Note_on_c, 4, 55, 0
5, 22258, Note_on_c, 4, 59, 0
5, 22260, Note_on_c, 4, 50, 85
5, 22260, Note_on_c, 4, 55, 85
5, 22260, Note_on_c, 4, 59, 85
5, 22376, Note_on_c, 4, 55, 0
5, 22377, Note_on_c, 4, 59, 0
5, 22377, Note_on_c, 4, 50, 0
5, 22380, Note_on_c, 4, 50, 70
5, 22380, Note_on_c, 4, 55, 70
5, 22380, Note_on_c, 4, 59, 70
5, 22496, Note_on_c, 4, 55, 0
5, 22497, Note_on_c, 4, 50, 0
5, 22498, Note_on_c, 4, 59, 0
5, 22500, Note_on_c, 4, 50, 70
5, 22500, Note_on_c, 4, 55, 70
5, 22500, Note_on_c, 4, 59, 70
5, 22557, Note_on_c, 4, 59, 0
5, 22557, Note_on_c, 4, 55, 0
5, 22558, Note_on_c, 4, 50, 0
5, 22560, Note_on_c, 4, 50, 70
5, 22560, Note_on_c, 4, 55, 70
5, 22560, Note_on_c, 4, 59, 70
5, 22736, Note_on_c, 4, 55, 0
5, 22737, Note_on_c, 4, 59, 0
5, 22738, Note_on_c, 4, 50, 0
5, 22740, Note_on_c, 4, 50, 85
5, 22740, Note_on_c, 4, 55, 85
5, 22740, Note_on_c, 4, 59, 85
5, 22856, Note_on_c, 4, 50, 0
5, 22857, Note_on_c, 4, 59, 0
5, 22858, Note_on_c, 4, 55, 0
5, 22860, Note_on_c, 4, 50, 70
5, 22860, Note_on_c, 4, 55, 70
5, 22860, Note_on_c, 4, 59, 70
5, 23037, Note_on_c, 4, 55, 0
5, 23038, Note_on_c, 4, 59, 0
5, 23038, Note_on_c, 4, 50, 0
5, 23040, Note_on_c, 4, 52, 70
5, 23040, Note_on_c, 4, 55, 70
5, 23040, Note_on_c, 4, 60, 70
5, 23216, Note_on_c, 4, 55, 0
5, 23218, Note_on_c, 4, 60, 0
5, 23218, Note_on_c, 4, 52, 0
5, 23220, Note_on_c, 4, 52, 85
5, 23220, Note_on_c, 4, 55, 85
5, 23220, Note_on_c, 4, 60, 85
5, 23336, Note_on_c, 4, 52, 0
5, 23337, Note_on_c, 4, 55, 0
5, 23338, Note_on_c, 4, 60, 0
5, 23340, Note_on_c, 4, 52, 70
5, 23340, Note_on_c, 4, 55, 70
5, 23340, Note_on_c, 4, 60, 70
5, 23456, Note_on_c, 4, 60, 0
5, 23456, Note_on_c, 4, 52, 0
5, 23457, Note_on_c, 4, 55, 0
5, 23460, Note_on_c, 4, 52, 70
5, 23460, Note_on_c, 4, 55, 70
5, 23460, Note_on_c, 4, 60, 70
5, 23516, Note_on_c, 4, 52, 0
5, 23517, Note_on_c, 4, 60, 0
5, 23517, Note_on_c, 4, 55, 0
5, 23520, Note_on_c, 4, 52, 70
5, 23520, Note_on_c, 4, 55, 70
5, 23520, Note_on_c, 4, 60, 70
5, 23697, Note_on_c, 4, 55, 0
5, 23697, Note_on_c, 4, 52, 0
5, 23698, Note_on_c, 4, 60, 0
5, 23700, Note_on_c, 4, 52, 85
5, 23700, Note_on_c, 4, 55, 85
5, 23700, Note_on_c, 4, 60, 85
5, 23816, Note_on_c, 4, 60, 0
5, 23816, Note_on_c, 4, 52, 0
5, 23817, Note_on_c, 4, 55, 0
5, 23820, Note_on_c, 4, 52, 70
5, 23820, Note_on_c, 4, 55, 70
5, 23820, Note_on_c, 4, 60, 70
5, 23937, Note_on_c, 4, 60, 0
5, 23937, Note_on_c, 4, 52, 0
5, 23938, Note_on_c, 4, 55, 0
5, 23940, Note_on_c, 4, 52, 70
5, 23940, Note_on_c, 4, 55, 70
5, 23940, Note_on_c, 4, 60, 70
5, 23997, Note_on_c, 4, 55, 0
5, 23998, Note_on_c, 4, 60, 0
5, 23998, Note_on_c, 4, 52, 0
5, 24000, Note_on_c, 4, 50, 70
5, 24000, Note_on_c, 4, 55, 70
5, 24000, Note_on_c, 4, 59, 70
5, 24178, Note_on_c, 4, 59, 0
5, 24178, Note_on_c, 4, 55, 0
5, 24178, Note_on_c, 4, 50, 0
5, 24180, Note_on_c, 4, 50, 85
5, 24180, Note_on_c, 4, 55, 85
5, 24180, Note_on_c, 4, 59, 85
5, 24296, Note_on_c, 4, 59, 0
5, 24297, Note_on_c, 4, 55, 0
5, 24298, Note_on_c, 4, 50, 0
5, 24300, Note_on_c, 4, 50, 70
5, 24300, Note_on_c, 4, 55, 70
5, 24300, Note_on_c, 4, 59, 70
5, 24417, Note_on_c, 4, 59, 0
5, 24417, Note_on_c, 4, 55, 0
5, 24417, Note_on_c, 4, 50, 0
5, 24420, Note_on_c, 4, 50, 70
5, 24420, Note_on_c, 4, 55, 70
5, 24420, Note_on_c, 4, 59, 70
5, 24476, Note_on_c, 4, 59, 0
5, 24476, Note_on_c, 4, 55, 0
5, 24477, Note_on_c, 4, 50, 0
5, 24480, Note_on_c, 4, 50, 70
5, 24480, Note_on_c, 4, 55, 70
5, 24480, Note_on_c, 4, 59, 70
5, 24656, Note_on_c, 4, 50, 0
5, 24657, Note_on_c, 4, 59, 0
5, 24657, Note_on_c, 4, 55, 0
5, 24660, Note_on_c, 4, 50, 85
5, 24660, Note_on_c, 4, 55, 85
5, 24660, Note_on_c, 4, 59, 85
5, 24776, Note_on_c, 4, 59, 0
5, 24776, Note_on_c, 4, 50, 0
5, 24777, Note_on_c, 4, 55, 0
5, 24780, Note_on_c, 4, 50, 70
5, 24780, Note_on_c, 4, 55, 70
5, 24780, Note_on_c, 4, 59, 70
5, 24957, Note_on_c, 4, 55, 0
5, 24958, Note_on_c, 4, 59, 0
5, 24958, Note_on_c, 4, 50, 0
5, 24960, Note_on_c, 4, 50, 70
5, 24960, Note_on_c, 4, 54, 70
5, 24960, Note_on_c, 4, 57, 70
5, 25137, Note_on_c, 4, 54, 0
5, 25138, Note_on_c, 4, 57, 0
5, 25138, Note_on_c, 4, 50, 0
5, 25140, Note_on_c, 4, 50, 85
5, 25140, Note_on_c, 4, 54, 85
5, 25140, Note_on_c, 4, 57, 85
5, 25256, Note_on_c, 4, 50, 0
5, 25257, Note_on_c, 4, 57, 0
5, 25257, Note_on_c, 4, 54, 0
5, 25260, Note_on_c, 4, 50, 70
5, 25260, Note_on_c, 4, 54, 70
5, 25260, Note_on_c, 4, 57, 70
5, 25378, Note_on_c, 4, 57, 0
5, 25378, Note_on_c, 4, 54, 0
5, 25378, Note_on_c, 4, 50, 0
5, 25380, Note_on_c, 4, 50, 70
5, 25380, Note_on_c, 4, 54, 70
5, 25380, Note_on_c, 4, 57, 70
5, 25436, Note_on_c, 4, 57, 0
5, 25436, Note_on_c, 4, 50, 0
5, 25438, Note_on_c, 4, 54, 0
5, 25440, Note_on_c, 4, 50, 70
5, 25440, Note_on_c, 4, 54, 70
5, 25440, Note_on_c, 4, 57, 70
5, 25616, Note_on_c, 4, 54, 0
5, 25617, Note_on_c, 4, 57, 0
5, 25618, Note_on_c, 4, 50, 0
5, 25620, Note_on_c, 4, 50, 85
5, 25620, Note_on_c, 4, 54, 85
5, 25620, Note_on_c, 4, 57, 85
5, 25736, Note_on_c, 4, 54, 0
5, 25737, Note_on_c, 4, 57, 0
5, 25737, Note_on_c, 4, 50, 0
5, 25740, Note_on_c, 4, 50, 70
5, 25740, Note_on_c, 4, 54, 70
5, 25740, Note_on_c, 4, 57, 70
5, 25856, Note_on_c, 4, 57, 0
5, 25856, Note_on_c, 4, 54, 0
5, 25857, Note_on_c, 4, 50, 0
5, 25860, Note_on_c, 4, 50, 70
5, 25860, Note_on_c, 4, 54, 70
5, 25860, Note_on_c, 4, 57, 70
5, 25916, Note_on_c, 4, 57, 0
5, 25916, Note_on_c, 4, 54, 0
5, 25918, Note_on_c, 4, 50, 0
5, 25920, Note_on_c, 4, 52, 70
5, 25920, Note_on_c, 4, 55, 70
5, 25920, Note_on_c, 4, 60, 70
5, 26096, Note_on_c, 4, 55, 0
5, 26098, Note_on_c, 4, 60, 0
5, 26098, Note_on_c, 4, 52, 0
5, 26100, Note_on_c, 4, 52, 85
5, 26100, Note_on_c, 4, 55, 85
5, 26100, Note_on_c, 4, 60, 85
5, 26216, Note_on_c, 4, 60, 0
5, 26216, Note_on_c, 4, 55, 0
5, 26216, Note_on_c, 4, 52, 0
5, 26220, Note_on_c, 4, 52, 70
5, 26220, Note_on_c, 4, 55, 70
5, 26220, Note_on_c, 4, 60, 70
5, 26397, Note_on_c, 4, 55, 0
5, 26398, Note_on_c, 4, 60, 0
5, 26398, Note_on_c, 4, 52, 0
5, 26400, Note_on_c, 4, 52, 70
5, 26400, Note_on_c, 4, 55, 70
5, 26400, Note_on_c, 4, 60, 70
5, 26577, Note_on_c, 4, 55, 0
5, 26578, Note_on_c, 4, 60, 0
5, 26578, Note_on_c, 4, 52, 0
5, 26580, Note_on_c, 4, 52, 85
5, 26580, Note_on_c, 4, 55, 85
5, 26580, Note_on_c, 4, 60, 85
5, 26696, Note_on_c, 4, 60, 0
5, 26696, Note_on_c, 4, 55, 0
5, 26697, Note_on_c, 4, 52, 0
5, 26700, Note_on_c, 4, 52, 70
5, 26700, Note_on_c, 4, 55, 70
5, 26700, Note_on_c, 4, 60, 70
5, 26816, Note_on_c, 4, 60, 0
5, 26816, Note_on_c, 4, 52, 0
5, 26818, Note_on_c, 4, 55, 0
5, 26820, Note_on_c, 4, 52, 70
5, 26820, Note_on_c, 4, 55, 70
5, 26820, Note_on_c, 4, 60, 70
5, 26877, Note_on_c, 4, 60, 0
5, 26877, Note_on_c, 4, 55, 0
5, 26877, Note_on_c, 4, 52, 0
5, 26880, Note_on_c, 4, 50, 70
5, 26880, Note_on_c, 4, 55, 70
5, 26880, Note_on_c, 4, 59, 70
5, 27056, Note_on_c, 4, 59, 0
5, 27056, Note_on_c, 4, 55, 0
5, 27056, Note_on_c, 4, 50, 0
5, 27060, Note_on_c, 4, 50, 85
5, 27060, Note_on_c, 4, 55, 85
5, 27060, Note_on_c, 4, 59, 85
5, 27176, Note_on_c, 4, 59, 0
5, 27176, Note_on_c, 4, 55, 0
5, 27176, Note_on_c, 4, 50, 0
5, 27180, Note_on_c, 4, 50, 70
5, 27180, Note_on_c, 4, 55, 70
5, 27180, Note_on_c, 4, 59, 70
5, 27297, Note_on_c, 4, 59, 0
5, 27297, Note_on_c, 4, 55, 0
5, 27297, Note_on_c, 4, 50, 0
5, 27300, Note_on_c, 4, 50, 70
5, 27300, Note_on_c, 4, 55, 70
5, 27300, Note_on_c, 4, 59, 70
5, 27356, Note_on_c, 4, 55, 0
5, 27357, Note_on_c, 4, 50, 0
5, 27358, Note_on_c, 4, 59, 0
5, 27360, Note_on_c, 4, 50, 70
5, 27360, Note_on_c, 4, 55, 70
5, 27360, Note_on_c, 4, 59, 70
5, 27536, Note_on_c, 4, 59, 0
5, 27537, Note_on_c, 4, 50, 0
5, 27538, Note_on_c, 4, 55, 0
5, 27540, Note_on_c, 4, 50, 85
5, 27540, Note_on_c, 4, 55, 85
5, 27540, Note_on_c, 4, 59, 85
5, 27656, Note_on_c, 4, 59, 0
5, 27656, Note_on_c, 4, 50, 0
5, 27657, Note_on_c, 4, 55, 0
5, 27660, Note_on_c, 4, 50, 70
5, 27660, Note_on_c, 4, 55, 70
5, 27660, Note_on_c, 4, 59, 70
5, 27776, Note_on_c, 4, 55, 0
5, 27776, Note_on_c, 4, 50, 0
5, 27778, Note_on_c, 4, 59, 0
5, 27780, Note_on_c, 4, 50, 70
5, 27780, Note_on_c, 4, 55, 70
5, 27780, Note_on_c, 4, 59, 70
5, 27836, Note_on_c, 4, 59, 0
5, 27836, Note_on_c, 4, 50, 0
5, 27838, Note_on_c, 4, 55, 0
5, 27840, Note_on_c, 4, 50, 70
5, 27840, Note_on_c, 4, 55, 70
5, 27840, Note_on_c, 4, 59, 70
5, 28016, Note_on_c, 4, 59, 0
5, 28016, Note_on_c, 4, 55, 0
5, 28018, Note_on_c, 4, 50, 0
5, 28020, Note_on_c, 4, 50, 85
5, 28020, Note_on_c, 4, 55, 85
5, 28020, Note_on_c, 4, 59, 85
5, 28136, Note_on_c, 4, 59, 0
5, 28136, Note_on_c, 4, 50, 0
5, 28137, Note_on_c, 4, 55, 0
5, 28140, Note_on_c, 4, 50, 70
5, 28140, Note_on_c, 4, 55, 70
5, 28140, Note_on_c, 4, 59, 70
5, 28256, Note_on_c, 4, 59, 0
5, 28257, Note_on_c, 4, 55, 0
5, 28258, Note_on_c, 4, 50, 0
5, 28260, Note_on_c, 4, 50, 70
5, 28260, Note_on_c, 4, 55, 70
5, 28260, Note_on_c, 4, 59, 70
5, 28317, Note_on_c, 4, 55, 0
5, 28317, Note_on_c, 4, 50, 0
5, 28318, Note_on_c, 4, 59, 0
5, 28320, Note_on_c, 4, 50, 70
5, 28320, Note_on_c, 4, 55, 70
5, 28320, Note_on_c, 4, 59, 70
5, 28496, Note_on_c, 4, 55, 0
5, 28497, Note_on_c, 4, 59, 0
5, 28497, Note_on_c, 4, 50, 0
5, 28500, Note_on_c, 4, 50, 85
5, 28500, Note_on_c, 4, 55, 85
5, 28500, Note_on_c, 4, 59, 85
5, 28616, Note_on_c, 4, 55, 0
5, 28616, Note_on_c, 4, 50, 0
5, 28617, Note_on_c, 4, 59, 0
5, 28620, Note_on_c, 4, 50, 70
5, 28620, Note_on_c, 4, 55, 70
5, 28620, Note_on_c, 4, 59, 70
5, 28736, Note_on_c, 4, 59, 0
5, 28736, Note_on_c, 4, 55, 0
5, 28738, Note_on_c, 4, 50, 0
5, 28740, Note_on_c, 4, 50, 70
5, 28740, Note_on_c, 4, 55, 70
5, 28740, Note_on_c, 4, 59, 70
5, 28796, Note_on_c, 4, 59, 0
5, 28796, Note_on_c, 4, 55, 0
5, 28796, Note_on_c, 4, 50, 0
5, 28800, Note_on_c, 4, 50, 70
5, 28800, Note_on_c, 4, 55, 70
5, 28800, Note_on_c, 4, 59, 70
5, 28976, Note_on_c, 4, 59, 0
5, 28977, Note_on_c, 4, 55, 0
5, 28977, Note_on_c, 4, 50, 0
5, 28980, Note_on_c, 4, 50, 85
5, 28980, Note_on_c, 4, 55, 85
5, 28980, Note_on_c, 4, 59, 85
5, 29096, Note_on_c, 4, 59, 0
5, 29096, Note_on_c, 4, 50, 0
5, 29098, Note_on_c, 4, 55, 0
5, 29100, Note_on_c, 4, 50, 70
5, 29100, Note_on_c, 4, 55, 70
5, 29100, Note_on_c, 4, 59, 70
5, 29216, Note_on_c, 4, 55, 0
5, 29216, Note_on_c, 4, 50, 0
5, 29218, Note_on_c, 4, 59, 0
5, 29220, Note_on_c, 4, 50, 70
5, 29220, Note_on_c, 4, 55, 70
5, 29220, Note_on_c, 4, 59, 70
5, 29276, Note_on_c, 4, 50, 0
5, 29278, Note_on_c, 4, 59, 0
5, 29278, Note_on_c, 4, 55, 0
5, 29280, Note_on_c, 4, 50, 70
5, 29280, Note_on_c, 4, 55, 70
5, 29280, Note_on_c, 4, 59, 70
5, 29456, Note_on_c, 4, 59, 0
5, 29456, Note_on_c, 4, 50, 0
5, 29458, Note_on_c, 4, 55, 0
5, 29460, Note_on_c, 4, 50, 85
5, 29460, Note_on_c, 4, 55, 85
5, 29460, Note_on_c, 4, 59, 85
5, 29577, Note_on_c, 4, 50, 0
5, 29578, Note_on_c, 4, 59, 0
5, 29578, Note_on_c, 4, 55, 0
5, 29580, Note_on_c, 4, 50, 70
5, 29580, Note_on_c, 4, 55, 70
5, 29580, Note_on_c, 4, 59, 70
5, 29696, Note_on_c, 4, 55, 0
5, 29697, Note_on_c, 4, 59, 0
5, 29698, Note_on_c, 4, 50, 0
5, 29700, Note_on_c, 4, 50, 70
5, 29700, Note_on_c, 4, 55, 70
5, 29700, Note_on_c, 4, 59, 70
5, 29757, Note_on_c, 4, 59, 0
5, 29758, Note_on_c, 4, 55, 0
5, 29758, Note_on_c, 4, 50, 0
5, 29760, Note_on_c, 4, 50, 70
5, 29760, Note_on_c, 4, 55, 70
5, 29760, Note_on_c, 4, 59, 70
5, 29937, Note_on_c, 4, 59, 0
5, 29938, Note_on_c, 4, 55, 0
5, 29938, Note_on_c, 4, 50, 0
5, 29940, Note_on_c, 4, 50, 85
5, 29940, Note_on_c, 4, 55, 85
5, 29940, Note_on_c, 4, 59, 85
5, 30056, Note_on_c, 4, 59, 0
5, 30056, Note_on_c, 4, 50, 0
5, 30057, Note_on_c, 4, 55, 0
5, 30060, Note_on_c, 4, 50, 70
5, 30060, Note_on_c, 4, 55, 70
5, 30060, Note_on_c, 4, 59, 70
5, 30177, Note_on_c, 4, 59, 0
5, 30177, Note_on_c, 4, 55, 0
5, 30177, Note_on_c, 4, 50, 0
5, 30180, Note_on_c, 4, 50, 70
5, 30180, Note_on_c, 4, 55, 70
5, 30180, Note_on_c, 4, 59, 70
5, 30236, Note_on_c, 4, 59, 0
5, 30236, Note_on_c, 4, 55, 0
5, 30237, Note_on_c, 4, 50, 0
5, 30240, Note_on_c, 4, 50, 70
5, 30240, Note_on_c, 4, 55, 70
5, 30240, Note_on_c, 4, 59, 70
5, 30417, Note_on_c, 4, 59, 0
5, 30418, Note_on_c, 4, 55, 0
5, 30418, Note_on_c, 4, 50, 0
5, 30420, Note_on_c, 4, 50, 85
5, 30420, Note_on_c, 4, 55, 85
5, 30420, Note_on_c, 4, 59, 85
5, 30536, Note_on_c, 4, 59, 0
5, 30538, Note_on_c, 4, 55, 0
5, 30538, Note_on_c, 4, 50, 0
5, 30540, Note_on_c, 4, 50, 70
5, 30540, Note_on_c, 4, 55, 70
5, 30540, Note_on_c, 4, 59, 70
5, 30656, Note_on_c, 4, 59, 0
5, 30657, Note_on_c, 4, 55, 0
5, 30657, Note_on_c, 4, 50, 0
5, 30660, Note_on_c, 4, 50, 70
5, 30660, Note_on_c, 4, 55, 70
5, 30660, Note_on_c, 4, 59, 70
5, 30716, Note_on_c, 4, 59, 0
5, 30716, Note_on_c, 4, 50, 0
5, 30718, Note_on_c, 4, 55, 0
5, 30720, Note_on_c, 4, 55, 70
5, 30720, Note_on_c, 4, 59, 70
5, 30720, Note_on_c, 4, 62, 70
5, 30896, Note_on_c, 4, 62, 0
5, 30897, Note_on_c, 4, 55, 0
5, 30898, Note_on_c, 4, 59, 0
5, 30900, Note_on_c, 4, 55, 85
5, 30900, Note_on_c, 4, 59, 85
5, 30900, Note_on_c, 4, 62, 85
5, 31016, Note_on_c, 4, 55, 0
5, 31017, Note_on_c, 4, 62, 0
5, 31018, Note_on_c, 4, 59, 0
5, 31020, Note_on_c, 4, 55, 70
5, 31020, Note_on_c, 4, 59, 70
5, 31020, Note_on_c, 4, 62, 70
5, 31136, Note_on_c, 4, 55, 0
5, 31137, Note_on_c, 4, 62, 0
5, 31138, Note_on_c, 4, 59, 0
5, 31140, Note_on_c, 4, 55, 70
5, 31140, Note_on_c, 4, 59, 70
5, 31140, Note_on_c, 4, 62, 70
5, 31196, Note_on_c, 4, 59, 0
5, 31197, Note_on_c, 4, 62, 0
5, 31198, Note_on_c, 4, 55, 0
5, 31200, Note_on_c, 4, 55, 70
5, 31200, Note_on_c, 4, 59, 70
5, 31200, Note_on_c, 4, 62, 70
5, 31377, Note_on_c, 4, 62, 0
5, 31378, Note_on_c, 4, 59, 0
5, 31378, Note_on_c, 4, 55, 0
5, 31380, Note_on_c, 4, 55, 85
5, 31380, Note_on_c, 4, 59, 85
5, 31380, Note_on_c, 4, 62, 85
5, 31496, Note_on_c, 4, 59, 0
5, 31497, Note_on_c, 4, 62, 0
5, 31498, Note_on_c, 4, 55, 0
5, 31500, Note_on_c, 4, 55, 70
5, 31500, Note_on_c, 4, 59, 70
5, 31500, Note_on_c, 4, 62, 70
5, 31616, Note_on_c, 4, 59, 0
5, 31616, Note_on_c, 4, 55, 0
5, 31617, Note_on_c, 4, 62, 0
5, 31620, Note_on_c, 4, 55, 70
5, 31620, Note_on_c, 4, 59, 70
5, 31620, Note_on_c, 4, 62, 70
5, 31676, Note_on_c, 4, 62, 0
5, 31676, Note_on_c, 4, 55, 0
5, 31677, Note_on_c, 4, 59, 0
5, 31680, Note_on_c, 4, 55, 70
5, 31680, Note_on_c, 4, 59, 70
5, 31680, Note_on_c, 4, 62, 70
5, 31856, Note_on_c, 4, 62, 0
5, 31858, Note_on_c, 4, 59, 0
5, 31858, Note_on_c, 4, 55, 0
5, 31860, Note_on_c, 4, 55, 85
5, 31860, Note_on_c, 4, 59, 85
5, 31860, Note_on_c, 4, 62, 85
5, 31976, Note_on_c, 4, 62, 0
5, 31976, Note_on_c, 4, 59, 0
5, 31976, Note_on_c, 4, 55, 0
5, 31980, Note_on_c, 4, 55, 70
5, 31980, Note_on_c, 4, 59, 70
5, 31980, Note_on_c, 4, 62, 70
5, 32096, Note_on_c, 4, 62, 0
5, 32096, Note_on_c, 4, 55, 0
5, 32098, Note_on_c, 4, 59, 0
5, 32100, Note_on_c, 4, 55, 70
5, 32100, Note_on_c, 4, 59, 70
5, 32100, Note_on_c, 4, 62, 70
5, 32157, Note_on_c, 4, 62, 0
5, 32157, Note_on_c, 4, 59, 0
5, 32157, Note_on_c, 4, 55, 0
5, 32160, Note_on_c, 4, 55, 70
5, 32160, Note_on_c, 4, 59, 70
5, 32160, Note_on_c, 4, 62, 70
5, 32336, Note_on_c, 4, 55, 0
5, 32338, Note_on_c, 4, 62, 0
5, 32338, Note_on_c, 4, 59, 0
5, 32340, Note_on_c, 4, 55, 85
5, 32340, Note_on_c, 4, 59, 85
5, 32340, Note_on_c, 4, 62, 85
5, 32456, Note_on_c, 4, 62, 0
5, 32456, Note_on_c, 4, 59, 0
5, 32457, Note_on_c, 4, 55, 0
5, 32460, Note_on_c, 4, 55, 70
5, 32460, Note_on_c, 4, 59, 70
5, 32460, Note_on_c, 4, 62, 70
5, 32577, Note_on_c, 4, 59, 0
5, 32578, Note_on_c, 4, 62, 0
5, 32578, Note_on_c, 4, 55, 0
5, 32580, Note_on_c, 4, 55, 70
5, 32580, Note_on_c, 4, 59, 70
5, 32580, Note_on_c, 4, 62, 70
5, 32636, Note_on_c, 4, 62, 0
5, 32637, Note_on_c, 4, 55, 0
5, 32638, Note_on_c, 4, 59, 0
5, 32640, Note_on_c, 4, 55, 70
5, 32640, Note_on_c, 4, 59, 70
5, 32640, Note_on_c, 4, 62, 70
5, 32816, Note_on_c, 4, 55, 0
5, 32817, Note_on_c, 4, 62, 0
5, 32818, Note_on_c, 4, 59, 0
5, 32820, Note_on_c, 4, 55, 85
5, 32820, Note_on_c, 4, 59, 85
5, 32820, Note_on_c, 4, 62, 85
5, 32937, Note_on_c, 4, 62, 0
5, 32937, Note_on_c, 4, 59, 0
5, 32937, Note_on_c, 4, 55, 0
5, 32940, Note_on_c, 4, 55, 70
5, 32940, Note_on_c, 4, 59, 70
5, 32940, Note_on_c, 4, 62, 70
5, 33116, Note_on_c, 4, 62, 0
5, 33117, Note_on_c, 4, 59, 0
5, 33118, Note_on_c, 4, 55, 0
5, 33120, Note_on_c, 4, 55, 70
5, 33120, Note_on_c, 4, 59, 70
5, 33120, Note_on_c, 4, 62, 70
5, 33296, Note_on_c, 4, 59, 0
5, 33298, Note_on_c, 4, 62, 0
5, 33298, Note_on_c, 4, 55, 0
5, 33300, Note_on_c, 4, 55, 85
5, 33300, Note_on_c, 4, 59, 85
5, 33300, Note_on_c, 4, 62, 85
5, 33417, Note_on_c, 4, 55, 0
5, 33418, Note_on_c, 4, 62, 0
5, 33418, Note_on_c, 4, 59, 0
5, 33420, Note_on_c, 4, 55, 70
5, 33420, Note_on_c, 4, 59, 70
5, 33420, Note_on_c, 4, 62, 70
5, 33536, Note_on_c, 4, 62, 0
5, 33537, Note_on_c, 4, 59, 0
5, 33538, Note_on_c, 4, 55, 0
5, 33540, Note_on_c, 4, 55, 70
5, 33540, Note_on_c, 4, 59, 70
5, 33540, Note_on_c, 4, 62, 70
5, 33596, Note_on_c, 4, 62, 0
5, 33596, Note_on_c, 4, 59, 0
5, 33596, Note_on_c, 4, 55, 0
5, 33600, Note_on_c, 4, 55, 70
5, 33600, Note_on_c, 4, 59, 70
5, 33600, Note_on_c, 4, 62, 70
5, 33776, Note_on_c, 4, 62, 0
5, 33776, Note_on_c, 4, 55, 0
5, 33778, Note_on_c, 4, 59, 0
5, 33780, Note_on_c, 4, 55, 85
5, 33780, Note_on_c, 4, 59, 85
5, 33780, Note_on_c, 4, 62, 85
5, 33897, Note_on_c, 4, 62, 0
5, 33898, Note_on_c, 4, 59, 0
5, 33898, Note_on_c, 4, 55, 0
5, 33900, Note_on_c, 4, 55, 70
5, 33900, Note_on_c, 4, 59, 70
5, 33900, Note_on_c, 4, 62, 70
5, 34017, Note_on_c, 4, 62, 0
5, 34017, Note_on_c, 4, 59, 0
5, 34018, Note_on_c, 4, 55, 0
5, 34020, Note_on_c, 4, 55, 70
5, 34020, Note_on_c, 4, 59, 70
5, 34020, Note_on_c, 4, 62, 70
5, 34077, Note_on_c, 4, 55, 0
5, 34078, Note_on_c, 4, 62, 0
5, 34078, Note_on_c, 4, 59, 0
5, 34080, Note_on_c, 4, 55, 70
5, 34080, Note_on_c, 4, 59, 70
5, 34080, Note_on_c, 4, 62, 70
5, 34256, Note_on_c, 4, 59, 0
5, 34257, Note_on_c, 4, 55, 0
5, 34258, Note_on_c, 4, 62, 0
5, 34260, Note_on_c, 4, 55, 85
5, 34260, Note_on_c, 4, 59, 85
5, 34260, Note_on_c, 4, 62, 85
5, 34377, Note_on_c, 4, 62, 0
5, 34377, Note_on_c, 4, 55, 0
5, 34378, Note_on_c, 4, 59, 0
5, 34380, Note_on_c, 4, 55, 70
5, 34380, Note_on_c, 4, 59, 70
5, 34380, Note_on_c, 4, 62, 70
5, 34497, Note_on_c, 4, 62, 0
5, 34497, Note_on_c, 4, 59, 0
5, 34498, Note_on_c, 4, 55, 0
5, 34500, Note_on_c, 4, 55, 70
5, 34500, Note_on_c, 4, 59, 70
5, 34500, Note_on_c, 4, 62, 70
5, 34556, Note_on_c, 4, 55, 0
5, 34557, Note_on_c, 4, 59, 0
5, 34558, Note_on_c, 4, 62, 0
5, 34560, Note_on_c, 4, 50, 70
5, 34560, Note_on_c, 4, 55, 70
5, 34560, Note_on_c, 4, 59, 70
5, 34736, Note_on_c, 4, 59, 0
5, 34736, Note_on_c, 4, 50, 0
5, 34738, Note_on_c, 4, 55, 0
5, 34740, Note_on_c, 4, 50, 85
5, 34740, Note_on_c, 4, 55, 85
5, 34740, Note_on_c, 4, 59, 85
5, 34856, Note_on_c, 4, 59, 0
5, 34856, Note_on_c, 4, 50, 0
5, 34858, Note_on_c, 4, 55, 0
5, 34860, Note_on_c, 4, 50, 70
5, 34860, Note_on_c, 4, 55, 70
5, 34860, Note_on_c, 4, 59, 70
5, 34976, Note_on_c, 4, 59, 0
5, 34976, Note_on_c, 4, 55, 0
5, 34977, Note_on_c, 4, 50, 0
5, 34980, Note_on_c, 4, 50, 70
5, 34980, Note_on_c, 4, 55, 70
5, 34980, Note_on_c, 4, 59, 70
5, 35036, Note_on_c, 4, 59, 0
5, 35037, Note_on_c, 4, 55, 0
5, 35037, Note_on_c, 4, 50, 0
5, 35040, Note_on_c, 4, 50, 70
5, 35040, Note_on_c, 4, 55, 70
5, 35040, Note_on_c, 4, 59, 70
5, 35216, Note_on_c, 4, 50, 0
5, 35218, Note_on_c, 4, 59, 0
5, 35218, Note_on_c, 4, 55, 0
5, 35220, Note_on_c, 4, 50, 85
5, 35220, Note_on_c, 4, 55, 85
5, 35220, Note_on_c, 4, 59, 85
5, 35337, Note_on_c, 4, 50, 0
5, 35338, Note_on_c, 4, 59, 0
5, 35338, Note_on_c, 4, 55, 0
5, 35340, Note_on_c, 4, 50, 70
5, 35340, Note_on_c, 4, 55, 70
5, 35340, Note_on_c, 4, 59, 70
5, 35516, Note_on_c, 4, 59, 0
5, 35516, Note_on_c, 4, 55, 0
5, 35518, Note_on_c, 4, 50, 0
5, 35520, Note_on_c, 4, 50, 70
5, 35520, Note_on_c, 4, 55, 70
5, 35520, Note_on_c, 4, 59, 70
5, 35696, Note_on_c, 4, 55, 0
5, 35697, Note_on_c, 4, 59, 0
5, 35698, Note_on_c, 4, 50, 0
5, 35700, Note_on_c, 4, 50, 85
5, 35700, Note_on_c, 4, 55, 85
5, 35700, Note_on_c, 4, 59, 85
5, 35816, Note_on_c, 4, 50, 0
5, 35817, Note_on_c, 4, 59, 0
5, 35817, Note_on_c, 4, 55, 0
5, 35820, Note_on_c, 4, 50, 70
5, 35820, Note_on_c, 4, 55, 70
5, 35820, Note_on_c, 4, 59, 70
5, 35937, Note_on_c, 4, 59, 0
5, 35937, Note_on_c, 4, 55, 0
5, 35937, Note_on_c, 4, 50, 0
5, 35940, Note_on_c, 4, 50, 70
5, 35940, Note_on_c, 4, 55, 70
5, 35940, Note_on_c, 4, 59, 70
5, 35996, Note_on_c, 4, 50, 0
5, 35997, Note_on_c, 4, 59, 0
5, 35997, Note_on_c, 4, 55, 0
5, 36000, Note_on_c, 4, 50, 70
5, 36000, Note_on_c, 4, 55, 70
5, 36000, Note_on_c, 4, 59, 70
5, 36176, Note_on_c, 4, 55, 0
5, 36178, Note_on_c, 4, 59, 0
5, 36178, Note_on_c, 4, 50, 0
5, 36180, Note_on_c, 4, 50, 85
5, 36180, Note_on_c, 4, 55, 85
5, 36180, Note_on_c, 4, 59, 85
5, 36297, Note_on_c, 4, 59, 0
5, 36297, Note_on_c, 4, 55, 0
5, 36298, Note_on_c, 4, 50, 0
5, 36300, Note_on_c, 4, 50, 70
5, 36300, Note_on_c, 4, 55, 70
5, 36300, Note_on_c, 4, 59, 70
5, 36418, Note_on_c, 4, 59, 0
5, 36418, Note_on_c, 4, 55, 0
5, 36418, Note_on_c, 4, 50, 0
5, 36420, Note_on_c, 4, 50, 70
5, 36420, Note_on_c, 4, 55, 70
5, 36420, Note_on_c, 4, 59, 70
5, 36476, Note_on_c, 4, 59, 0
5, 36477, Note_on_c, 4, 55, 0
5, 36478, Note_on_c, 4, 50, 0
5, 36480, Note_on_c, 4, 50, 70
5, 36480, Note_on_c, 4, 55, 70
5, 36480, Note_on_c, 4, 59, 70
5, 36656, Note_on_c, 4, 59, 0
5, 36656, Note_on_c, 4, 50, 0
5, 36657, Note_on_c, 4, 55, 0
5, 36660, Note_on_c, 4, 50, 85
5, 36660, Note_on_c, 4, 55, 85
5, 36660, Note_on_c, 4, 59, 85
5, 36777, Note_on_c, 4, 59, 0
5, 36777, Note_on_c, 4, 55, 0
5, 36778, Note_on_c, 4, 50, 0
5, 36780, Note_on_c, 4, 50, 70
5, 36780, Note_on_c, 4, 55, 70
5, 36780, Note_on_c, 4, 59, 70
5, 36896, Note_on_c, 4, 50, 0
5, 36898, Note_on_c, 4, 59, 0
5, 36898, Note_on_c, 4, 55, 0
5, 36900, Note_on_c, 4, 50, 70
5, 36900, Note_on_c, 4, 55, 70
5, 36900, Note_on_c, 4, 59, 70
5, 36956, Note_on_c, 4, 55, 0
5, 36957, Note_on_c, 4, 59, 0
5, 36957, Note_on_c, 4, 50, 0
5, 36960, Note_on_c, 4, 50, 70
5, 36960, Note_on_c, 4, 55, 70
5, 36960, Note_on_c, 4, 59, 70
5, 37136, Note_on_c, 4, 59, 0
5, 37138, Note_on_c, 4, 55, 0
5, 37138, Note_on_c, 4, 50, 0
5, 37140, Note_on_c, 4, 50, 85
5, 37140, Note_on_c, 4, 55, 85
5, 37140, Note_on_c, 4, 59, 85
5, 37256, Note_on_c, 4, 59, 0
5, 37256, Note_on_c, 4, 55, 0
5, 37257, Note_on_c, 4, 50, 0
5, 37260, Note_on_c, 4, 50, 70
5, 37260, Note_on_c, 4, 55, 70
5, 37260, Note_on_c, 4, 59, 70
5, 37376, Note_on_c, 4, 50, 0
5, 37378, Note_on_c, 4, 59, 0
5, 37378, Note_on_c, 4, 55, 0
5, 37380, Note_on_c, 4, 50, 70
5, 37380, Note_on_c, 4, 55, 70
5, 37380, Note_on_c, 4, 59, 70
5, 37436, Note_on_c, 4, 55, 0
5, 37438, Note_on_c, 4, 59, 0
5, 37438, Note_on_c, 4, 50, 0
5, 37440, Note_on_c, 4, 50, 70
5, 37440, Note_on_c, 4, 55, 70
5, 37440, Note_on_c, 4, 59, 70
5, 37617, Note_on_c, 4, 59, 0
5, 37618, Note_on_c, 4, 55, 0
5, 37618, Note_on_c, 4, 50, 0
5, 37620, Note_on_c, 4, 50, 85
5, 37620, Note_on_c, 4, 55, 85
5, 37620, Note_on_c, 4, 59, 85
5, 37737, Note_on_c, 4, 59, 0
5, 37737, Note_on_c, 4, 55, 0
5, 37738, Note_on_c, 4, 50, 0
5, 37740, Note_on_c, 4, 50, 70
5, 37740, Note_on_c, 4, 55, 70
5, 37740, Note_on_c, 4, 59, 70
5, 37857, Note_on_c, 4, 59, 0
5, 37857, Note_on_c, 4, 55, 0
5, 37858, Note_on_c, 4, 50, 0
5, 37860, Note_on_c, 4, 50, 70
5, 37860, Note_on_c, 4, 55, 70
5, 37860, Note_on_c, 4, 59, 70
5, 37916, Note_on_c, 4, 55, 0
5, 37918, Note_on_c, 4, 59, 0
5, 37918, Note_on_c, 4, 50, 0
5, 37920, Note_on_c, 4, 50, 70
5, 37920, Note_on_c, 4, 55, 70
5, 37920, Note_on_c, 4, 59, 70
5, 38096, Note_on_c, 4, 50, 0
5, 38097, Note_on_c, 4, 59, 0
5, 38097, Note_on_c, 4, 55, 0
5, 38100, Note_on_c, 4, 50, 85
5, 38100, Note_on_c, 4, 55, 85
5, 38100, Note_on_c, 4, 59, 85
5, 38216, Note_on_c, 4, 55, 0
5, 38218, Note_on_c, 4, 59, 0
5, 38218, Note_on_c, 4, 50, 0
5, 38220, Note_on_c, 4, 50, 70
5, 38220, Note_on_c, 4, 55, 70
5, 38220, Note_on_c, 4, 59, 70
5, 38336, Note_on_c, 4, 59, 0
5, 38337, Note_on_c, 4, 55, 0
5, 38337, Note_on_c, 4, 50, 0
5, 38340, Note_on_c, 4, 50, 70
5, 38340, Note_on_c, 4, 55, 70
5, 38340, Note_on_c, 4, 59, 70
5, 38396, Note_on_c, 4, 55, 0
5, 38397, Note_on_c, 4, 59, 0
5, 38398, Note_on_c, 4, 50, 0
5, 38400, Note_on_c, 4, 50, 70
5, 38400, Note_on_c, 4, 55, 70
5, 38400, Note_on_c, 4, 59, 70
5, 38577, Note_on_c, 4, 59, 0
5, 38578, Note_on_c, 4, 55, 0
5, 38578, Note_on_c, 4, 50, 0
5, 38580, Note_on_c, 4, 50, 85
5, 38580, Note_on_c, 4, 55, 85
5, 38580, Note_on_c, 4, 59, 85
5, 38697, Note_on_c, 4, 59, 0
5, 38697, Note_on_c, 4, 55, 0
5, 38698, Note_on_c, 4, 50, 0
5, 38700, Note_on_c, 4, 50, 70
5, 38700, Note_on_c, 4, 55, 70
5, 38700, Note_on_c, 4, 59, 70
5, 38816, Note_on_c, 4, 59, 0
5, 38816, Note_on_c, 4, 55, 0
5, 38816, Note_on_c, 4, 50, 0
5, 38820, Note_on_c, 4, 50, 70
5, 38820, Note_on_c, 4, 55, 70
5, 38820, Note_on_c, 4, 59, 70
5, 38876, Note_on_c, 4, 59, 0
5, 38877, Note_on_c, 4, 55, 0
5, 38878, Note_on_c, 4, 50, 0
5, 38880, Note_on_c, 4, 50, 70
5, 38880, Note_on_c, 4, 55, 70
5, 38880, Note_on_c, 4, 59, 70
5, 39056, Note_on_c, 4, 55, 0
5, 39057, Note_on_c, 4, 59, 0
5, 39057, Note_on_c, 4, 50, 0
5, 39060, Note_on_c, 4, 50, 85
5, 39060, Note_on_c, 4, 55, 85
5, 39060, Note_on_c, 4, 59, 85
5, 39177, Note_on_c, 4, 59, 0
5, 39177, Note_on_c, 4, 50, 0
5, 39178, Note_on_c, 4, 55, 0
5, 39180, Note_on_c, 4, 50, 70
5, 39180, Note_on_c, 4, 55, 70
5, 39180, Note_on_c, 4, 59, 70
5, 39296, Note_on_c, 4, 59, 0
5, 39297, Note_on_c, 4, 55, 0
5, 39298, Note_on_c, 4, 50, 0
5, 39300, Note_on_c, 4, 50, 70
5, 39300, Note_on_c, 4, 55, 70
5, 39300, Note_on_c, 4, 59, 70
5, 39356, Note_on_c, 4, 50, 0
5, 39357, Note_on_c, 4, 59, 0
5, 39357, Note_on_c, 4, 55, 0
5, 39360, Note_on_c, 4, 50, 70
5, 39360, Note_on_c, 4, 55, 70
5, 39360, Note_on_c, 4, 59, 70
5, 39537, Note_on_c, 4, 59, 0
5, 39537, Note_on_c, 4, 55, 0
5, 39537, Note_on_c, 4, 50, 0
5, 39540, Note_on_c, 4, 50, 85
5, 39540, Note_on_c, 4, 55, 85
5, 39540, Note_on_c, 4, 59, 85
5, 39657, Note_on_c, 4, 59, 0
5, 39658, Note_on_c, 4, 55, 0
5, 39658, Note_on_c, 4, 50, 0
5, 39660, Note_on_c, 4, 50, 70
5, 39660, Note_on_c, 4, 55, 70
5, 39660, Note_on_c, 4, 59, 70
5, 39776, Note_on_c, 4, 59, 0
5, 39776, Note_on_c, 4, 55, 0
5, 39778, Note_on_c, 4, 50, 0
5, 39780, Note_on_c, 4, 50, 70
5, 39780, Note_on_c, 4, 55, 70
5, 39780, Note_on_c, 4, 59, 70
5, 39836, Note_on_c, 4, 50, 0
5, 39838, Note_on_c, 4, 59, 0
5, 39838, Note_on_c, 4, 55, 0
5, 39840, Note_on_c, 4, 50, 70
5, 39840, Note_on_c, 4, 55, 70
5, 39840, Note_on_c, 4, 59, 70
5, 40017, Note_on_c, 4, 50, 0
5, 40018, Note_on_c, 4, 59, 0
5, 40018, Note_on_c, 4, 55, 0
5, 40020, Note_on_c, 4, 50, 85
5, 40020, Note_on_c, 4, 55, 85
5, 40020, Note_on_c, 4, 59, 85
5, 40137, Note_on_c, 4, 55, 0
5, 40137, Note_on_c, 4, 50, 0
5, 40138, Note_on_c, 4, 59, 0
5, 40140, Note_on_c, 4, 50, 70
5, 40140, Note_on_c, 4, 55, 70
5, 40140, Note_on_c, 4, 59, 70
5, 40258, Note_on_c, 4, 59, 0
5, 40258, Note_on_c, 4, 55, 0
5, 40258, Note_on_c, 4, 50, 0
5, 40260, Note_on_c, 4, 50, 70
5, 40260, Note_on_c, 4, 55, 70
5, 40260, Note_on_c, 4, 59, 70
5, 40316, Note_on_c, 4, 59, 0
5, 40318, Note_on_c, 4, 55, 0
5, 40318, Note_on_c, 4, 50, 0
5, 40320, Note_on_c, 4, 50, 70
5, 40320, Note_on_c, 4, 55, 70
5, 40320, Note_on_c, 4, 59, 70
5, 40496, Note_on_c, 4, 55, 0
5, 40496, Note_on_c, 4, 50, 0
5, 40498, Note_on_c, 4, 59, 0
5, 40500, Note_on_c, 4, 50, 85
5, 40500, Note_on_c, 4, 55, 85
5, 40500, Note_on_c, 4, 59, 85
5, 40616, Note_on_c, 4, 59, 0
5, 40616, Note_on_c, 4, 50, 0
5, 40618, Note_on_c, 4, 55, 0
5, 40620, Note_on_c, 4, 50, 70
5, 40620, Note_on_c, 4, 55, 70
5, 40620, Note_on_c, 4, 59, 70
5, 40736, Note_on_c, 4, 55, 0
5, 40736, Note_on_c, 4, 50, 0
5, 40738, Note_on_c, 4, 59, 0
5, 40740, Note_on_c, 4, 50, 70
5, 40740, Note_on_c, 4, 55, 70
5, 40740, Note_on_c, 4, 59, 70
5, 40797, Note_on_c, 4, 59, 0
5, 40797, Note_on_c, 4, 50, 0
5, 40798, Note_on_c, 4, 55, 0
5, 40800, Note_on_c, 4, 50, 70
5, 40800, Note_on_c, 4, 55, 70
5, 40800, Note_on_c, 4, 59, 70
5, 40976, Note_on_c, 4, 50, 0
5, 40977, Note_on_c, 4, 59, 0
5, 40978, Note_on_c, 4, 55, 0
5, 40980, Note_on_c, 4, 50, 85
5, 40980, Note_on_c, 4, 55, 85
5, 40980, Note_on_c, 4, 59, 85
5, 41096, Note_on_c, 4, 55, 0
5, 41097, Note_on_c, 4, 50, 0
5, 41098, Note_on_c, 4, 59, 0
5, 41100, Note_on_c, 4, 50, 70
5, 41100, Note_on_c, 4, 55, 70
5, 41100, Note_on_c, 4, 59, 70
5, 41216, Note_on_c, 4, 59, 0
5, 41216, Note_on_c, 4, 55, 0
5, 41217, Note_on_c, 4, 50, 0
5, 41220, Note_on_c, 4, 50, 70
5, 41220, Note_on_c, 4, 55, 70
5, 41220, Note_on_c, 4, 59, 70
5, 41277, Note_on_c, 4, 59, 0
5, 41277, Note_on_c, 4, 55, 0
5, 41277, Note_on_c, 4, 50, 0
5, 41280, Note_on_c, 4, 50, 70
5, 41280, Note_on_c, 4, 55, 70
5, 41280, Note_on_c, 4, 59, 70
5, 41456, Note_on_c, 4, 59, 0
5, 41456, Note_on_c, 4, 55, 0
5, 41458, Note_on_c, 4, 50, 0
5, 41460, Note_on_c, 4, 50, 85
5, 41460, Note_on_c, 4, 55, 85
5, 41460, Note_on_c, 4, 59, 85
5, 41576, Note_on_c, 4, 55, 0
5, 41578, Note_on_c, 4, 59, 0
5, 41578, Note_on_c, 4, 50, 0
5, 41580, Note_on_c, 4, 50, 70
5, 41580, Note_on_c, 4, 55, 70
5, 41580, Note_on_c, 4, 59, 70
5, 41696, Note_on_c, 4, 50, 0
5, 41697, Note_on_c, 4, 59, 0
5, 41698, Note_on_c, 4, 55, 0
5, 41700, Note_on_c, 4, 50, 70
5, 41700, Note_on_c, 4, 55, 70
5, 41700, Note_on_c, 4, 59, 70
5, 41756, Note_on_c, 4, 55, 0
5, 41757, Note_on_c, 4, 50, 0
5, 41758, Note_on_c, 4, 59, 0
5, 41758, End_track
6, 0, Start_track
6, 0, MIDI_port, 0
6, 0, Title_t, "Synth Voice"
6, 0, Program_c, 5, 54
6, 0, Control_c, 5, 7, 127
6, 0, Control_c, 5, 10, 64
6, 0, Control_c, 5, 91, 0
6, 0, Control_c, 5, 93, 0
6, 1920, Note_on_c, 5, 71, 100
6, 2039, Note_on_c, 5, 71, 0
6, 2040, Note_on_c, 5, 71, 100
6, 2159, Note_on_c, 5, 71, 0
6, 2160, Note_on_c, 5, 71, 100
6, 2219, Note_on_c, 5, 71, 0
6, 2220, Note_on_c, 5, 69, 100
6, 2279, Note_on_c, 5, 69, 0
6, 2280, Note_on_c, 5, 67, 100
6, 2339, Note_on_c, 5, 67, 0
6, 2340, Note_on_c, 5, 64, 100
6, 2399, Note_on_c, 5, 64, 0
6, 2400, Note_on_c, 5, 71, 100
6, 2639, Note_on_c, 5, 71, 0
6, 2820, Note_on_c, 5, 62, 100
6, 2879, Note_on_c, 5, 62, 0
6, 2880, Note_on_c, 5, 71, 100
6, 2939, Note_on_c, 5, 71, 0
6, 2940, Note_on_c, 5, 69, 100
6, 2999, Note_on_c, 5, 69, 0
6, 3000, Note_on_c, 5, 67, 100
6, 3059, Note_on_c, 5, 67, 0
6, 3060, Note_on_c, 5, 64, 100
6, 3119, Note_on_c, 5, 64, 0
6, 3120, Note_on_c, 5, 67, 100
6, 3179, Note_on_c, 5, 67, 0
6, 3180, Note_on_c, 5, 67, 100
6, 3239, Note_on_c, 5, 67, 0
6, 3240, Note_on_c, 5, 64, 100
6, 3299, Note_on_c, 5, 64, 0
6, 3300, Note_on_c, 5, 71, 100
6, 3599, Note_on_c, 5, 71, 0
6, 3720, Note_on_c, 5, 69, 100
6, 3779, Note_on_c, 5, 69, 0
6, 3780, Note_on_c, 5, 67, 100
6, 3839, Note_on_c, 5, 67, 0
6, 3840, Note_on_c, 5, 69, 100
6, 3899, Note_on_c, 5, 69, 0
6, 3900, Note_on_c, 5, 67, 100
6, 3959, Note_on_c, 5, 67, 0
6, 3960, Note_on_c, 5, 64, 100
6, 4019, Note_on_c, 5, 64, 0
6, 4020, Note_on_c, 5, 67, 100
6, 4319, Note_on_c, 5, 67, 0
6, 4440, Note_on_c, 5, 67, 100
6, 4499, Note_on_c, 5, 67, 0
6, 4500, Note_on_c, 5, 64, 100
6, 4559, Note_on_c, 5, 64, 0
6, 4560, Note_on_c, 5, 71, 100
6, 4679, Note_on_c, 5, 71, 0
6, 4680, Note_on_c, 5, 64, 100
6, 4739, Note_on_c, 5, 64, 0
6, 4740, Note_on_c, 5, 62, 100
6, 5039, Note_on_c, 5, 62, 0
6, 5580, Note_on_c, 5, 71, 100
6, 5639, Note_on_c, 5, 71, 0
6, 5640, Note_on_c, 5, 69, 100
6, 5699, Note_on_c, 5, 69, 0
6, 5700, Note_on_c, 5, 67, 100
6, 5759, Note_on_c, 5, 67, 0
6, 5760, Note_on_c, 5, 69, 100
6, 5819, Note_on_c, 5, 69, 0
6, 5820, Note_on_c, 5, 69, 100
6, 5879, Note_on_c, 5, 69, 0
6, 5880, Note_on_c, 5, 67, 100
6, 5939, Note_on_c, 5, 67, 0
6, 5940, Note_on_c, 5, 69, 100
6, 6060, Note_on_c, 5, 69, 0
6, 6060, Note_on_c, 5, 69, 100
6, 6119, Note_on_c, 5, 69, 0
6, 6120, Note_on_c, 5, 67, 100
6, 6179, Note_on_c, 5, 67, 0
6, 6180, Note_on_c, 5, 71, 100
6, 6479, Note_on_c, 5, 71, 0
6, 6540, Note_on_c, 5, 62, 100
6, 6599, Note_on_c, 5, 62, 0
6, 6600, Note_on_c, 5, 71, 100
6, 6659, Note_on_c, 5, 71, 0
6, 6660, Note_on_c, 5, 67, 100
6, 6719, Note_on_c, 5, 67, 0
6, 6720, Note_on_c, 5, 70, 100
6, 6779, Note_on_c, 5, 70, 0
6, 6780, Note_on_c, 5, 69, 100
6, 6839, Note_on_c, 5, 69, 0
6, 6840, Note_on_c, 5, 67, 100
6, 6959, Note_on_c, 5, 67, 0
6, 6960, Note_on_c, 5, 67, 100
6, 7079, Note_on_c, 5, 67, 0
6, 7080, Note_on_c, 5, 70, 100
6, 7139, Note_on_c, 5, 70, 0
6, 7140, Note_on_c, 5, 67, 100
6, 7259, Note_on_c, 5, 67, 0
6, 7260, Note_on_c, 5, 67, 100
6, 7439, Note_on_c, 5, 67, 0
6, 7440, Note_on_c, 5, 67, 100
6, 7499, Note_on_c, 5, 67, 0
6, 7500, Note_on_c, 5, 67, 100
6, 7559, Note_on_c, 5, 67, 0
6, 7560, Note_on_c, 5, 64, 100
6, 7619, Note_on_c, 5, 64, 0
6, 7620, Note_on_c, 5, 62, 100
6, 7679, Note_on_c, 5, 62, 0
6, 7800, Note_on_c, 5, 71, 100
6, 7919, Note_on_c, 5, 71, 0
6, 7920, Note_on_c, 5, 71, 100
6, 8039, Note_on_c, 5, 71, 0
6, 8100, Note_on_c, 5, 62, 100
6, 8159, Note_on_c, 5, 62, 0
6, 8160, Note_on_c, 5, 67, 100
6, 8219, Note_on_c, 5, 67, 0
6, 8220, Note_on_c, 5, 67, 100
6, 8279, Note_on_c, 5, 67, 0
6, 8280, Note_on_c, 5, 67, 100
6, 8339, Note_on_c, 5, 67, 0
6, 8340, Note_on_c, 5, 71, 100
6, 8519, Note_on_c, 5, 71, 0
6, 8760, Note_on_c, 5, 71, 100
6, 8879, Note_on_c, 5, 71, 0
6, 8880, Note_on_c, 5, 71, 100
6, 8999, Note_on_c, 5, 71, 0
6, 9000, Note_on_c, 5, 71, 100
6, 9059, Note_on_c, 5, 71, 0
6, 9060, Note_on_c, 5, 67, 100
6, 9119, Note_on_c, 5, 67, 0
6, 9120, Note_on_c, 5, 71, 100
6, 9239, Note_on_c, 5, 71, 0
6, 9240, Note_on_c, 5, 64, 100
6, 9299, Note_on_c, 5, 64, 0
6, 9300, Note_on_c, 5, 62, 100
6, 9479, Note_on_c, 5, 62, 0
6, 9720, Note_on_c, 5, 71, 100
6, 9839, Note_on_c, 5, 71, 0
6, 9840, Note_on_c, 5, 71, 100
6, 9959, Note_on_c, 5, 71, 0
6, 9960, Note_on_c, 5, 67, 100
6, 10019, Note_on_c, 5, 67, 0
6, 10020, Note_on_c, 5, 64, 100
6, 10079, Note_on_c, 5, 64, 0
6, 10080, Note_on_c, 5, 67, 100
6, 10139, Note_on_c, 5, 67, 0
6, 10140, Note_on_c, 5, 67, 100
6, 10259, Note_on_c, 5, 67, 0
6, 10260, Note_on_c, 5, 71, 100
6, 10439, Note_on_c, 5, 71, 0
6, 10620, Note_on_c, 5, 67, 100
6, 10679, Note_on_c, 5, 67, 0
6, 10680, Note_on_c, 5, 67, 100
6, 10739, Note_on_c, 5, 67, 0
6, 10740, Note_on_c, 5, 64, 100
6, 10799, Note_on_c, 5, 64, 0
6, 10800, Note_on_c, 5, 67, 100
6, 10859, Note_on_c, 5, 67, 0
6, 10860, Note_on_c, 5, 71, 100
6, 10919, Note_on_c, 5, 71, 0
6, 11460, Note_on_c, 5, 67, 100
6, 11519, Note_on_c, 5, 67, 0
6, 11520, Note_on_c, 5, 71, 100
6, 11580, Note_on_c, 5, 71, 0
6, 11580, Note_on_c, 5, 69, 100
6, 11640, Note_on_c, 5, 69, 0
6, 11640, Note_on_c, 5, 67, 100
6, 11700, Note_on_c, 5, 67, 0
6, 11700, Note_on_c, 5, 64, 100
6, 11760, Note_on_c, 5, 64, 0
6, 11760, Note_on_c, 5, 67, 100
6, 11880, Note_on_c, 5, 67, 0
6, 11880, Note_on_c, 5, 64, 100
6, 11940, Note_on_c, 5, 64, 0
6, 11940, Note_on_c, 5, 71, 100
6, 12240, Note_on_c, 5, 71, 0
6, 12420, Note_on_c, 5, 62, 100
6, 12479, Note_on_c, 5, 62, 0
6, 12480, Note_on_c, 5, 71, 100
6, 12539, Note_on_c, 5, 71, 0
6, 12540, Note_on_c, 5, 69, 100
6, 12599, Note_on_c, 5, 69, 0
6, 12600, Note_on_c, 5, 67, 100
6, 12659, Note_on_c, 5, 67, 0
6, 12660, Note_on_c, 5, 64, 100
6, 12719, Note_on_c, 5, 64, 0
6, 12720, Note_on_c, 5, 67, 100
6, 12779, Note_on_c, 5, 67, 0
6, 12780, Note_on_c, 5, 67, 100
6, 12839, Note_on_c, 5, 67, 0
6, 12840, Note_on_c, 5, 64, 100
6, 12899, Note_on_c, 5, 64, 0
6, 12900, Note_on_c, 5, 71, 100
6, 13199, Note_on_c, 5, 71, 0
6, 13260, Note_on_c, 5, 67, 100
6, 13320, Note_on_c, 5, 67, 0
6, 13320, Note_on_c, 5, 69, 100
6, 13379, Note_on_c, 5, 69, 0
6, 13380, Note_on_c, 5, 67, 100
6, 13439, Note_on_c, 5, 67, 0
6, 13440, Note_on_c, 5, 69, 100
6, 13499, Note_on_c, 5, 69, 0
6, 13500, Note_on_c, 5, 67, 100
6, 13559, Note_on_c, 5, 67, 0
6, 13560, Note_on_c, 5, 64, 100
6, 13619, Note_on_c, 5, 64, 0
6, 13620, Note_on_c, 5, 67, 100
6, 13919, Note_on_c, 5, 67, 0
6, 14040, Note_on_c, 5, 67, 100
6, 14099, Note_on_c, 5, 67, 0
6, 14100, Note_on_c, 5, 64, 100
6, 14159, Note_on_c, 5, 64, 0
6, 14160, Note_on_c, 5, 71, 100
6, 14279, Note_on_c, 5, 71, 0
6, 14280, Note_on_c, 5, 64, 100
6, 14339, Note_on_c, 5, 64, 0
6, 14340, Note_on_c, 5, 62, 100
6, 14639, Note_on_c, 5, 62, 0
6, 15180, Note_on_c, 5, 71, 100
6, 15239, Note_on_c, 5, 71, 0
6, 15240, Note_on_c, 5, 69, 100
6, 15299, Note_on_c, 5, 69, 0
6, 15300, Note_on_c, 5, 67, 100
6, 15359, Note_on_c, 5, 67, 0
6, 15360, Note_on_c, 5, 69, 100
6, 15419, Note_on_c, 5, 69, 0
6, 15420, Note_on_c, 5, 62, 100
6, 15479, Note_on_c, 5, 62, 0
6, 15480, Note_on_c, 5, 69, 100
6, 15539, Note_on_c, 5, 69, 0
6, 15540, Note_on_c, 5, 62, 100
6, 15599, Note_on_c, 5, 62, 0
6, 15600, Note_on_c, 5, 69, 100
6, 15659, Note_on_c, 5, 69, 0
6, 15660, Note_on_c, 5, 69, 100
6, 15719, Note_on_c, 5, 69, 0
6, 15720, Note_on_c, 5, 67, 100
6, 15779, Note_on_c, 5, 67, 0
6, 15780, Note_on_c, 5, 71, 100
6, 16079, Note_on_c, 5, 71, 0
6, 16140, Note_on_c, 5, 62, 100
6, 16199, Note_on_c, 5, 62, 0
6, 16200, Note_on_c, 5, 71, 100
6, 16259, Note_on_c, 5, 71, 0
6, 16260, Note_on_c, 5, 67, 100
6, 16319, Note_on_c, 5, 67, 0
6, 16320, Note_on_c, 5, 70, 100
6, 16440, Note_on_c, 5, 70, 0
6, 16440, Note_on_c, 5, 67, 100
6, 16559, Note_on_c, 5, 67, 0
6, 16560, Note_on_c, 5, 67, 100
6, 16620, Note_on_c, 5, 67, 0
6, 16620, Note_on_c, 5, 67, 100
6, 16680, Note_on_c, 5, 67, 0
6, 16680, Note_on_c, 5, 67, 100
6, 16739, Note_on_c, 5, 67, 0
6, 16740, Note_on_c, 5, 67, 100
6, 16859, Note_on_c, 5, 67, 0
6, 16860, Note_on_c, 5, 67, 100
6, 17039, Note_on_c, 5, 67, 0
6, 17040, Note_on_c, 5, 67, 100
6, 17099, Note_on_c, 5, 67, 0
6, 17100, Note_on_c, 5, 67, 100
6, 17159, Note_on_c, 5, 67, 0
6, 17160, Note_on_c, 5, 64, 100
6, 17219, Note_on_c, 5, 64, 0
6, 17220, Note_on_c, 5, 62, 100
6, 17279, Note_on_c, 5, 62, 0
6, 17400, Note_on_c, 5, 71, 100
6, 17519, Note_on_c, 5, 71, 0
6, 17520, Note_on_c, 5, 71, 100
6, 17639, Note_on_c, 5, 71, 0
6, 17640, Note_on_c, 5, 67, 100
6, 17700, Note_on_c, 5, 67, 0
6, 17700, Note_on_c, 5, 64, 100
6, 17759, Note_on_c, 5, 64, 0
6, 17760, Note_on_c, 5, 67, 100
6, 17819, Note_on_c, 5, 67, 0
6, 17820, Note_on_c, 5, 67, 100
6, 17879, Note_on_c, 5, 67, 0
6, 17880, Note_on_c, 5, 67, 100
6, 17939, Note_on_c, 5, 67, 0
6, 17940, Note_on_c, 5, 71, 100
6, 18119, Note_on_c, 5, 71, 0
6, 18360, Note_on_c, 5, 71, 100
6, 18479, Note_on_c, 5, 71, 0
6, 18480, Note_on_c, 5, 71, 100
6, 18599, Note_on_c, 5, 71, 0
6, 18600, Note_on_c, 5, 71, 100
6, 18659, Note_on_c, 5, 71, 0
6, 18660, Note_on_c, 5, 67, 100
6, 18719, Note_on_c, 5, 67, 0
6, 18720, Note_on_c, 5, 71, 100
6, 18839, Note_on_c, 5, 71, 0
6, 18840, Note_on_c, 5, 64, 100
6, 18899, Note_on_c, 5, 64, 0
6, 18900, Note_on_c, 5, 62, 100
6, 19079, Note_on_c, 5, 62, 0
6, 19320, Note_on_c, 5, 71, 100
6, 19439, Note_on_c, 5, 71, 0
6, 19440, Note_on_c, 5, 71, 100
6, 19559, Note_on_c, 5, 71, 0
6, 19560, Note_on_c, 5, 67, 100
6, 19619, Note_on_c, 5, 67, 0
6, 19620, Note_on_c, 5, 64, 100
6, 19679, Note_on_c, 5, 64, 0
6, 19680, Note_on_c, 5, 67, 100
6, 19739, Note_on_c, 5, 67, 0
6, 19740, Note_on_c, 5, 67, 100
6, 19859, Note_on_c, 5, 67, 0
6, 19860, Note_on_c, 5, 71, 100
6, 20039, Note_on_c, 5, 71, 0
6, 20220, Note_on_c, 5, 67, 100
6, 20279, Note_on_c, 5, 67, 0
6, 20280, Note_on_c, 5, 67, 100
6, 20339, Note_on_c, 5, 67, 0
6, 20340, Note_on_c, 5, 64, 100
6, 20399, Note_on_c, 5, 64, 0
6, 20400, Note_on_c, 5, 67, 100
6, 20459, Note_on_c, 5, 67, 0
6, 20460, Note_on_c, 5, 71, 100
6, 20519, Note_on_c, 5, 71, 0
6, 21060, Note_on_c, 5, 67, 100
6, 21119, Note_on_c, 5, 67, 0
6, 21120, Note_on_c, 5, 71, 100
6, 21179, Note_on_c, 5, 71, 0
6, 21180, Note_on_c, 5, 69, 100
6, 21239, Note_on_c, 5, 69, 0
6, 21240, Note_on_c, 5, 67, 100
6, 21299, Note_on_c, 5, 67, 0
6, 21300, Note_on_c, 5, 64, 100
6, 21359, Note_on_c, 5, 64, 0
6, 21360, Note_on_c, 5, 67, 100
6, 21479, Note_on_c, 5, 67, 0
6, 21480, Note_on_c, 5, 64, 100
6, 21539, Note_on_c, 5, 64, 0
6, 21540, Note_on_c, 5, 71, 100
6, 21839, Note_on_c, 5, 71, 0
6, 21960, Note_on_c, 5, 64, 100
6, 22019, Note_on_c, 5, 64, 0
6, 22020, Note_on_c, 5, 64, 100
6, 22079, Note_on_c, 5, 64, 0
6, 22080, Note_on_c, 5, 67, 100
6, 22199, Note_on_c, 5, 67, 0
6, 22200, Note_on_c, 5, 67, 100
6, 22319, Note_on_c, 5, 67, 0
6, 22320, Note_on_c, 5, 67, 100
6, 22379, Note_on_c, 5, 67, 0
6, 22380, Note_on_c, 5, 67, 100
6, 22439, Note_on_c, 5, 67, 0
6, 22440, Note_on_c, 5, 64, 100
6, 22499, Note_on_c, 5, 64, 0
6, 22500, Note_on_c, 5, 71, 100
6, 22799, Note_on_c, 5, 71, 0
6, 22920, Note_on_c, 5, 69, 100
6, 22979, Note_on_c, 5, 69, 0
6, 22980, Note_on_c, 5, 67, 100
6, 23039, Note_on_c, 5, 67, 0
6, 23040, Note_on_c, 5, 69, 100
6, 23159, Note_on_c, 5, 69, 0
6, 23160, Note_on_c, 5, 69, 100
6, 23219, Note_on_c, 5, 69, 0
6, 23220, Note_on_c, 5, 69, 100
6, 23519, Note_on_c, 5, 69, 0
6, 23580, Note_on_c, 5, 67, 100
6, 23639, Note_on_c, 5, 67, 0
6, 23640, Note_on_c, 5, 67, 100
6, 23699, Note_on_c, 5, 67, 0
6, 23700, Note_on_c, 5, 64, 100
6, 23759, Note_on_c, 5, 64, 0
6, 23760, Note_on_c, 5, 71, 100
6, 23879, Note_on_c, 5, 71, 0
6, 23880, Note_on_c, 5, 64, 100
6, 23939, Note_on_c, 5, 64, 0
6, 23940, Note_on_c, 5, 62, 100
6, 24239, Note_on_c, 5, 62, 0
6, 24780, Note_on_c, 5, 71, 100
6, 24839, Note_on_c, 5, 71, 0
6, 24840, Note_on_c, 5, 71, 100
6, 24959, Note_on_c, 5, 71, 0
6, 24960, Note_on_c, 5, 69, 100
6, 25079, Note_on_c, 5, 69, 0
6, 25080, Note_on_c, 5, 69, 100
6, 25199, Note_on_c, 5, 69, 0
6, 25200, Note_on_c, 5, 69, 100
6, 25259, Note_on_c, 5, 69, 0
6, 25260, Note_on_c, 5, 69, 100
6, 25319, Note_on_c, 5, 69, 0
6, 25320, Note_on_c, 5, 67, 100
6, 25379, Note_on_c, 5, 67, 0
6, 25380, Note_on_c, 5, 71, 100
6, 25679, Note_on_c, 5, 71, 0
6, 25740, Note_on_c, 5, 70, 100
6, 25799, Note_on_c, 5, 70, 0
6, 25800, Note_on_c, 5, 70, 100
6, 25859, Note_on_c, 5, 70, 0
6, 25860, Note_on_c, 5, 67, 100
6, 25919, Note_on_c, 5, 67, 0
6, 25920, Note_on_c, 5, 70, 100
6, 25979, Note_on_c, 5, 70, 0
6, 25980, Note_on_c, 5, 70, 100
6, 26159, Note_on_c, 5, 70, 0
6, 26160, Note_on_c, 5, 67, 100
6, 26219, Note_on_c, 5, 67, 0
6, 26220, Note_on_c, 5, 67, 100
6, 26279, Note_on_c, 5, 67, 0
6, 26280, Note_on_c, 5, 67, 100
6, 26339, Note_on_c, 5, 67, 0
6, 26340, Note_on_c, 5, 67, 100
6, 26459, Note_on_c, 5, 67, 0
6, 26460, Note_on_c, 5, 67, 100
6, 26639, Note_on_c, 5, 67, 0
6, 26640, Note_on_c, 5, 67, 100
6, 26699, Note_on_c, 5, 67, 0
6, 26700, Note_on_c, 5, 67, 100
6, 26759, Note_on_c, 5, 67, 0
6, 26760, Note_on_c, 5, 64, 100
6, 26819, Note_on_c, 5, 64, 0
6, 26820, Note_on_c, 5, 62, 100
6, 26879, Note_on_c, 5, 62, 0
6, 27000, Note_on_c, 5, 71, 100
6, 27119, Note_on_c, 5, 71, 0
6, 27120, Note_on_c, 5, 71, 100
6, 27239, Note_on_c, 5, 71, 0
6, 27240, Note_on_c, 5, 67, 100
6, 27299, Note_on_c, 5, 67, 0
6, 27300, Note_on_c, 5, 64, 100
6, 27359, Note_on_c, 5, 64, 0
6, 27360, Note_on_c, 5, 67, 100
6, 27419, Note_on_c, 5, 67, 0
6, 27420, Note_on_c, 5, 67, 100
6, 27539, Note_on_c, 5, 67, 0
6, 27540, Note_on_c, 5, 71, 100
6, 27719, Note_on_c, 5, 71, 0
6, 27960, Note_on_c, 5, 71, 100
6, 28079, Note_on_c, 5, 71, 0
6, 28080, Note_on_c, 5, 71, 100
6, 28199, Note_on_c, 5, 71, 0
6, 28200, Note_on_c, 5, 67, 100
6, 28259, Note_on_c, 5, 67, 0
6, 28260, Note_on_c, 5, 64, 100
6, 28319, Note_on_c, 5, 64, 0
6, 28320, Note_on_c, 5, 67, 100
6, 28379, Note_on_c, 5, 67, 0
6, 28380, Note_on_c, 5, 67, 100
6, 28499, Note_on_c, 5, 67, 0
6, 28500, Note_on_c, 5, 71, 100
6, 28679, Note_on_c, 5, 71, 0
6, 28920, Note_on_c, 5, 71, 100
6, 29039, Note_on_c, 5, 71, 0
6, 29040, Note_on_c, 5, 71, 100
6, 29099, Note_on_c, 5, 71, 0
6, 29100, Note_on_c, 5, 71, 100
6, 29159, Note_on_c, 5, 71, 0
6, 29160, Note_on_c, 5, 71, 100
6, 29219, Note_on_c, 5, 71, 0
6, 29220, Note_on_c, 5, 64, 100
6, 29279, Note_on_c, 5, 64, 0
6, 29280, Note_on_c, 5, 67, 100
6, 29339, Note_on_c, 5, 67, 0
6, 29340, Note_on_c, 5, 67, 100
6, 29459, Note_on_c, 5, 67, 0
6, 29460, Note_on_c, 5, 71, 100
6, 29639, Note_on_c, 5, 71, 0
6, 29820, Note_on_c, 5, 67, 100
6, 29879, Note_on_c, 5, 67, 0
6, 29880, Note_on_c, 5, 67, 100
6, 29939, Note_on_c, 5, 67, 0
6, 29940, Note_on_c, 5, 64, 100
6, 29999, Note_on_c, 5, 64, 0
6, 30000, Note_on_c, 5, 67, 100
6, 30059, Note_on_c, 5, 67, 0
6, 30060, Note_on_c, 5, 71, 100
6, 30119, Note_on_c, 5, 71, 0
6, 30840, Note_on_c, 5, 71, 100
6, 30959, Note_on_c, 5, 71, 0
6, 30960, Note_on_c, 5, 71, 100
6, 31079, Note_on_c, 5, 71, 0
6, 31080, Note_on_c, 5, 67, 100
6, 31139, Note_on_c, 5, 67, 0
6, 31140, Note_on_c, 5, 64, 100
6, 31199, Note_on_c, 5, 64, 0
6, 31200, Note_on_c, 5, 67, 100
6, 31259, Note_on_c, 5, 67, 0
6, 31260, Note_on_c, 5, 67, 100
6, 31319, Note_on_c, 5, 67, 0
6, 31320, Note_on_c, 5, 67, 100
6, 31379, Note_on_c, 5, 67, 0
6, 31380, Note_on_c, 5, 71, 100
6, 31559, Note_on_c, 5, 71, 0
6, 31800, Note_on_c, 5, 71, 100
6, 31919, Note_on_c, 5, 71, 0
6, 31920, Note_on_c, 5, 71, 100
6, 32039, Note_on_c, 5, 71, 0
6, 32040, Note_on_c, 5, 67, 100
6, 32099, Note_on_c, 5, 67, 0
6, 32100, Note_on_c, 5, 64, 100
6, 32159, Note_on_c, 5, 64, 0
6, 32160, Note_on_c, 5, 67, 100
6, 32219, Note_on_c, 5, 67, 0
6, 32220, Note_on_c, 5, 67, 100
6, 32339, Note_on_c, 5, 67, 0
6, 32340, Note_on_c, 5, 71, 100
6, 32519, Note_on_c, 5, 71, 0
6, 32760, Note_on_c, 5, 71, 100
6, 32879, Note_on_c, 5, 71, 0
6, 32880, Note_on_c, 5, 71, 100
6, 32939, Note_on_c, 5, 71, 0
6, 33000, Note_on_c, 5, 71, 100
6, 33059, Note_on_c, 5, 71, 0
6, 33060, Note_on_c, 5, 64, 100
6, 33119, Note_on_c, 5, 64, 0
6, 33120, Note_on_c, 5, 67, 100
6, 33179, Note_on_c, 5, 67, 0
6, 33180, Note_on_c, 5, 67, 100
6, 33239, Note_on_c, 5, 67, 0
6, 33240, Note_on_c, 5, 64, 100
6, 33299, Note_on_c, 5, 64, 0
6, 33300, Note_on_c, 5, 71, 100
6, 33479, Note_on_c, 5, 71, 0
6, 33660, Note_on_c, 5, 67, 100
6, 33719, Note_on_c, 5, 67, 0
6, 33720, Note_on_c, 5, 67, 100
6, 33779, Note_on_c, 5, 67, 0
6, 33780, Note_on_c, 5, 64, 100
6, 33839, Note_on_c, 5, 64, 0
6, 33840, Note_on_c, 5, 67, 100
6, 33899, Note_on_c, 5, 67, 0
6, 33900, Note_on_c, 5, 71, 100
6, 33959, Note_on_c, 5, 71, 0
6, 34680, Note_on_c, 5, 71, 100
6, 34799, Note_on_c, 5, 71, 0
6, 34800, Note_on_c, 5, 71, 100
6, 34919, Note_on_c, 5, 71, 0
6, 34920, Note_on_c, 5, 67, 100
6, 34979, Note_on_c, 5, 67, 0
6, 34980, Note_on_c, 5, 64, 100
6, 35039, Note_on_c, 5, 64, 0
6, 35040, Note_on_c, 5, 67, 100
6, 35099, Note_on_c, 5, 67, 0
6, 35100, Note_on_c, 5, 67, 100
6, 35219, Note_on_c, 5, 67, 0
6, 35220, Note_on_c, 5, 71, 100
6, 35399, Note_on_c, 5, 71, 0
6, 35640, Note_on_c, 5, 71, 100
6, 35759, Note_on_c, 5, 71, 0
6, 35760, Note_on_c, 5, 71, 100
6, 35879, Note_on_c, 5, 71, 0
6, 35880, Note_on_c, 5, 67, 100
6, 35939, Note_on_c, 5, 67, 0
6, 35940, Note_on_c, 5, 64, 100
6, 35999, Note_on_c, 5, 64, 0
6, 36000, Note_on_c, 5, 67, 100
6, 36059, Note_on_c, 5, 67, 0
6, 36060, Note_on_c, 5, 67, 100
6, 36179, Note_on_c, 5, 67, 0
6, 36180, Note_on_c, 5, 71, 100
6, 36359, Note_on_c, 5, 71, 0
6, 36600, Note_on_c, 5, 71, 100
6, 36719, Note_on_c, 5, 71, 0
6, 36720, Note_on_c, 5, 71, 100
6, 36779, Note_on_c, 5, 71, 0
6, 36900, Note_on_c, 5, 64, 100
6, 36959, Note_on_c, 5, 64, 0
6, 36960, Note_on_c, 5, 67, 100
6, 37019, Note_on_c, 5, 67, 0
6, 37020, Note_on_c, 5, 67, 100
6, 37139, Note_on_c, 5, 67, 0
6, 37140, Note_on_c, 5, 71, 100
6, 37319, Note_on_c, 5, 71, 0
6, 37500, Note_on_c, 5, 67, 100
6, 37559, Note_on_c, 5, 67, 0
6, 37560, Note_on_c, 5, 67, 100
6, 37619, Note_on_c, 5, 67, 0
6, 37620, Note_on_c, 5, 64, 100
6, 37679, Note_on_c, 5, 64, 0
6, 37680, Note_on_c, 5, 67, 100
6, 37739, Note_on_c, 5, 67, 0
6, 37740, Note_on_c, 5, 71, 100
6, 37799, Note_on_c, 5, 71, 0
6, 38520, Note_on_c, 5, 71, 100
6, 38639, Note_on_c, 5, 71, 0
6, 38640, Note_on_c, 5, 71, 100
6, 38759, Note_on_c, 5, 71, 0
6, 39480, Note_on_c, 5, 71, 100
6, 39599, Note_on_c, 5, 71, 0
6, 39600, Note_on_c, 5, 71, 100
6, 39719, Note_on_c, 5, 71, 0
6, 40440, Note_on_c, 5, 71, 100
6, 40559, Note_on_c, 5, 71, 0
6, 40560, Note_on_c, 5, 71, 100
6, 40679, Note_on_c, 5, 71, 0
6, 41340, Note_on_c, 5, 67, 100
6, 41399, Note_on_c, 5, 67, 0
6, 41400, Note_on_c, 5, 67, 100
6, 41459, Note_on_c, 5, 67, 0
6, 41460, Note_on_c, 5, 64, 100
6, 41519, Note_on_c, 5, 64, 0
6, 41520, Note_on_c, 5, 67, 100
6, 41579, Note_on_c, 5, 67, 0
6, 41580, Note_on_c, 5, 79, 100
6, 41999, Note_on_c, 5, 79, 0
6, 41999, End_track
7, 0, Start_track
7, 0, MIDI_port, 0
7, 0, Title_t, "Jazz Electric"
7, 0, Program_c, 6, 26
7, 0, Control_c, 6, 7, 95
7, 0, Control_c, 6, 10, 10
7, 0, Control_c, 6, 91, 0
7, 0, Control_c, 6, 93, 0
7, 60, Note_on_c, 6, 62, 85
7, 119, Note_on_c, 6, 62, 0
7, 120, Note_on_c, 6, 64, 85
7, 179, Note_on_c, 6, 64, 0
7, 180, Note_on_c, 6, 67, 85
7, 239, Note_on_c, 6, 67, 0
7, 240, Note_on_c, 6, 70, 85
7, 279, Note_on_c, 6, 70, 0
7, 280, Note_on_c, 6, 69, 85
7, 319, Note_on_c, 6, 69, 0
7, 320, Note_on_c, 6, 67, 85
7, 359, Note_on_c, 6, 67, 0
7, 360, Note_on_c, 6, 69, 85
7, 419, Note_on_c, 6, 69, 0
7, 420, Note_on_c, 6, 67, 85
7, 479, Note_on_c, 6, 67, 0
7, 480, Note_on_c, 6, 71, 85
7, 599, Note_on_c, 6, 71, 0
7, 600, Note_on_c, 6, 74, 85
7, 659, Note_on_c, 6, 74, 0
7, 660, Note_on_c, 6, 71, 85
7, 660, Note_on_c, 6, 67, 85
7, 839, Note_on_c, 6, 67, 0
7, 839, Note_on_c, 6, 71, 0
7, 1020, Note_on_c, 6, 62, 85
7, 1079, Note_on_c, 6, 62, 0
7, 1080, Note_on_c, 6, 64, 85
7, 1139, Note_on_c, 6, 64, 0
7, 1140, Note_on_c, 6, 67, 85
7, 1199, Note_on_c, 6, 67, 0
7, 1200, Note_on_c, 6, 70, 85
7, 1239, Note_on_c, 6, 70, 0
7, 1240, Note_on_c, 6, 69, 85
7, 1279, Note_on_c, 6, 69, 0
7, 1280, Note_on_c, 6, 67, 85
7, 1319, Note_on_c, 6, 67, 0
7, 1320, Note_on_c, 6, 69, 85
7, 1379, Note_on_c, 6, 69, 0
7, 1380, Note_on_c, 6, 67, 85
7, 1439, Note_on_c, 6, 67, 0
7, 1440, Note_on_c, 6, 71, 85
7, 1559, Note_on_c, 6, 71, 0
7, 1560, Note_on_c, 6, 74, 85
7, 1619, Note_on_c, 6, 74, 0
7, 1620, Note_on_c, 6, 71, 85
7, 1620, Note_on_c, 6, 67, 85
7, 1799, Note_on_c, 6, 67, 0
7, 1799, Note_on_c, 6, 71, 0
7, 1920, Note_on_c, 6, 71, 85
7, 1920, Note_on_c, 6, 67, 85
7, 1920, Note_on_c, 6, 62, 85
7, 2039, Note_on_c, 6, 62, 0
7, 2039, Note_on_c, 6, 67, 0
7, 2039, Note_on_c, 6, 71, 0
7, 2040, Note_on_c, 6, 71, 85
7, 2040, Note_on_c, 6, 67, 85
7, 2040, Note_on_c, 6, 62, 85
7, 2159, Note_on_c, 6, 62, 0
7, 2159, Note_on_c, 6, 67, 0
7, 2159, Note_on_c, 6, 71, 0
7, 2160, Note_on_c, 6, 71, 85
7, 2160, Note_on_c, 6, 67, 85
7, 2160, Note_on_c, 6, 62, 85
7, 2219, Note_on_c, 6, 62, 0
7, 2219, Note_on_c, 6, 67, 0
7, 2219, Note_on_c, 6, 71, 0
7, 2220, Note_on_c, 6, 69, 85
7, 2279, Note_on_c, 6, 69, 0
7, 2280, Note_on_c, 6, 67, 85
7, 2339, Note_on_c, 6, 67, 0
7, 2340, Note_on_c, 6, 64, 85
7, 2399, Note_on_c, 6, 64, 0
7, 2400, Note_on_c, 6, 71, 85
7, 2400, Note_on_c, 6, 67, 85
7, 2400, Note_on_c, 6, 62, 85
7, 2639, Note_on_c, 6, 62, 0
7, 2639, Note_on_c, 6, 67, 0
7, 2639, Note_on_c, 6, 71, 0
7, 2820, Note_on_c, 6, 62, 85
7, 2879, Note_on_c, 6, 62, 0
7, 2880, Note_on_c, 6, 71, 85
7, 2880, Note_on_c, 6, 67, 85
7, 2880, Note_on_c, 6, 62, 85
7, 2939, Note_on_c, 6, 62, 0
7, 2939, Note_on_c, 6, 67, 0
7, 2939, Note_on_c, 6, 71, 0
7, 2940, Note_on_c, 6, 69, 85
7, 2999, Note_on_c, 6, 69, 0
7, 3000, Note_on_c, 6, 67, 85
7, 3059, Note_on_c, 6, 67, 0
7, 3060, Note_on_c, 6, 64, 85
7, 3119, Note_on_c, 6, 64, 0
7, 3120, Note_on_c, 6, 67, 85
7, 3120, Note_on_c, 6, 62, 85
7, 3120, Note_on_c, 6, 59, 85
7, 3179, Note_on_c, 6, 59, 0
7, 3179, Note_on_c, 6, 62, 0
7, 3179, Note_on_c, 6, 67, 0
7, 3180, Note_on_c, 6, 67, 85
7, 3239, Note_on_c, 6, 67, 0
7, 3240, Note_on_c, 6, 64, 85
7, 3299, Note_on_c, 6, 64, 0
7, 3300, Note_on_c, 6, 71, 85
7, 3300, Note_on_c, 6, 67, 85
7, 3300, Note_on_c, 6, 62, 85
7, 3599, Note_on_c, 6, 62, 0
7, 3599, Note_on_c, 6, 67, 0
7, 3599, Note_on_c, 6, 71, 0
7, 3720, Note_on_c, 6, 69, 85
7, 3779, Note_on_c, 6, 69, 0
7, 3780, Note_on_c, 6, 67, 85
7, 3839, Note_on_c, 6, 67, 0
7, 3840, Note_on_c, 6, 69, 85
7, 3840, Note_on_c, 6, 64, 85
7, 3840, Note_on_c, 6, 60, 85
7, 3899, Note_on_c, 6, 60, 0
7, 3899, Note_on_c, 6, 64, 0
7, 3899, Note_on_c, 6, 69, 0
7, 3900, Note_on_c, 6, 67, 85
7, 3959, Note_on_c, 6, 67, 0
7, 3960, Note_on_c, 6, 64, 85
7, 4019, Note_on_c, 6, 64, 0
7, 4020, Note_on_c, 6, 67, 85
7, 4020, Note_on_c, 6, 64, 85
7, 4020, Note_on_c, 6, 60, 85
7, 4319, Note_on_c, 6, 60, 0
7, 4319, Note_on_c, 6, 64, 0
7, 4319, Note_on_c, 6, 67, 0
7, 4440, Note_on_c, 6, 67, 85
7, 4499, Note_on_c, 6, 67, 0
7, 4500, Note_on_c, 6, 64, 85
7, 4559, Note_on_c, 6, 64, 0
7, 4560, Note_on_c, 6, 71, 85
7, 4560, Note_on_c, 6, 67, 85
7, 4560, Note_on_c, 6, 60, 85
7, 4679, Note_on_c, 6, 60, 0
7, 4679, Note_on_c, 6, 67, 0
7, 4679, Note_on_c, 6, 71, 0
7, 4680, Note_on_c, 6, 64, 85
7, 4739, Note_on_c, 6, 64, 0
7, 4740, Note_on_c, 6, 62, 85
7, 4740, Note_on_c, 6, 59, 85
7, 5039, Note_on_c, 6, 59, 0
7, 5039, Note_on_c, 6, 62, 0
7, 5580, Note_on_c, 6, 71, 85
7, 5639, Note_on_c, 6, 71, 0
7, 5640, Note_on_c, 6, 69, 85
7, 5699, Note_on_c, 6, 69, 0
7, 5700, Note_on_c, 6, 67, 85
7, 5759, Note_on_c, 6, 67, 0
7, 5760, Note_on_c, 6, 69, 85
7, 5760, Note_on_c, 6, 66, 85
7, 5760, Note_on_c, 6, 62, 85
7, 5819, Note_on_c, 6, 62, 0
7, 5819, Note_on_c, 6, 66, 0
7, 5819, Note_on_c, 6, 69, 0
7, 5820, Note_on_c, 6, 69, 85
7, 5879, Note_on_c, 6, 69, 0
7, 5880, Note_on_c, 6, 67, 85
7, 5939, Note_on_c, 6, 67, 0
7, 5940, Note_on_c, 6, 69, 85
7, 5940, Note_on_c, 6, 66, 85
7, 5940, Note_on_c, 6, 62, 85
7, 6059, Note_on_c, 6, 62, 0
7, 6059, Note_on_c, 6, 66, 0
7, 6059, Note_on_c, 6, 69, 0
7, 6060, Note_on_c, 6, 69, 85
7, 6119, Note_on_c, 6, 69, 0
7, 6120, Note_on_c, 6, 67, 85
7, 6179, Note_on_c, 6, 67, 0
7, 6180, Note_on_c, 6, 71, 85
7, 6180, Note_on_c, 6, 66, 85
7, 6180, Note_on_c, 6, 62, 85
7, 6479, Note_on_c, 6, 62, 0
7, 6479, Note_on_c, 6, 66, 0
7, 6479, Note_on_c, 6, 71, 0
7, 6540, Note_on_c, 6, 62, 85
7, 6599, Note_on_c, 6, 62, 0
7, 6600, Note_on_c, 6, 71, 85
7, 6659, Note_on_c, 6, 71, 0
7, 6660, Note_on_c, 6, 67, 85
7, 6719, Note_on_c, 6, 67, 0
7, 6720, Note_on_c, 6, 70, 85
7, 6720, Note_on_c, 6, 67, 85
7, 6720, Note_on_c, 6, 64, 85
7, 6779, Note_on_c, 6, 64, 0
7, 6779, Note_on_c, 6, 67, 0
7, 6779, Note_on_c, 6, 70, 0
7, 6780, Note_on_c, 6, 69, 85
7, 6839, Note_on_c, 6, 69, 0
7, 6840, Note_on_c, 6, 67, 85
7, 6840, Note_on_c, 6, 64, 85
7, 6959, Note_on_c, 6, 64, 0
7, 6959, Note_on_c, 6, 67, 0
7, 6960, Note_on_c, 6, 67, 85
7, 6960, Note_on_c, 6, 64, 85
7, 7079, Note_on_c, 6, 64, 0
7, 7079, Note_on_c, 6, 67, 0
7, 7080, Note_on_c, 6, 70, 85
7, 7080, Note_on_c, 6, 67, 85
7, 7139, Note_on_c, 6, 67, 0
7, 7139, Note_on_c, 6, 70, 0
7, 7140, Note_on_c, 6, 67, 85
7, 7140, Note_on_c, 6, 64, 85
7, 7259, Note_on_c, 6, 64, 0
7, 7259, Note_on_c, 6, 67, 0
7, 7260, Note_on_c, 6, 67, 85
7, 7260, Note_on_c, 6, 64, 85
7, 7439, Note_on_c, 6, 64, 0
7, 7439, Note_on_c, 6, 67, 0
7, 7440, Note_on_c, 6, 67, 85
7, 7499, Note_on_c, 6, 67, 0
7, 7500, Note_on_c, 6, 67, 85
7, 7559, Note_on_c, 6, 67, 0
7, 7560, Note_on_c, 6, 64, 85
7, 7619, Note_on_c, 6, 64, 0
7, 7620, Note_on_c, 6, 62, 85
7, 7679, Note_on_c, 6, 62, 0
7, 7800, Note_on_c, 6, 71, 85
7, 7800, Note_on_c, 6, 67, 85
7, 7800, Note_on_c, 6, 62, 85
7, 7919, Note_on_c, 6, 62, 0
7, 7919, Note_on_c, 6, 67, 0
7, 7919, Note_on_c, 6, 71, 0
7, 7920, Note_on_c, 6, 71, 85
7, 7920, Note_on_c, 6, 67, 85
7, 7920, Note_on_c, 6, 62, 85
7, 8039, Note_on_c, 6, 62, 0
7, 8039, Note_on_c, 6, 67, 0
7, 8039, Note_on_c, 6, 71, 0
7, 8100, Note_on_c, 6, 62, 85
7, 8159, Note_on_c, 6, 62, 0
7, 8160, Note_on_c, 6, 67, 85
7, 8160, Note_on_c, 6, 62, 85
7, 8160, Note_on_c, 6, 59, 85
7, 8219, Note_on_c, 6, 59, 0
7, 8219, Note_on_c, 6, 62, 0
7, 8219, Note_on_c, 6, 67, 0
7, 8220, Note_on_c, 6, 67, 85
7, 8279, Note_on_c, 6, 67, 0
7, 8280, Note_on_c, 6, 67, 85
7, 8339, Note_on_c, 6, 67, 0
7, 8340, Note_on_c, 6, 71, 85
7, 8340, Note_on_c, 6, 67, 85
7, 8340, Note_on_c, 6, 62, 85
7, 8519, Note_on_c, 6, 62, 0
7, 8519, Note_on_c, 6, 67, 0
7, 8519, Note_on_c, 6, 71, 0
7, 8760, Note_on_c, 6, 71, 85
7, 8760, Note_on_c, 6, 67, 85
7, 8760, Note_on_c, 6, 62, 85
7, 8879, Note_on_c, 6, 62, 0
7, 8879, Note_on_c, 6, 67, 0
7, 8879, Note_on_c, 6, 71, 0
7, 8880, Note_on_c, 6, 71, 85
7, 8880, Note_on_c, 6, 67, 85
7, 8880, Note_on_c, 6, 62, 85
7, 8999, Note_on_c, 6, 62, 0
7, 8999, Note_on_c, 6, 67, 0
7, 8999, Note_on_c, 6, 71, 0
7, 9000, Note_on_c, 6, 71, 85
7, 9059, Note_on_c, 6, 71, 0
7, 9060, Note_on_c, 6, 67, 85
7, 9119, Note_on_c, 6, 67, 0
7, 9120, Note_on_c, 6, 71, 85
7, 9120, Note_on_c, 6, 67, 85
7, 9120, Note_on_c, 6, 62, 85
7, 9239, Note_on_c, 6, 62, 0
7, 9239, Note_on_c, 6, 67, 0
7, 9239, Note_on_c, 6, 71, 0
7, 9240, Note_on_c, 6, 64, 85
7, 9240, Note_on_c, 6, 60, 85
7, 9299, Note_on_c, 6, 60, 0
7, 9299, Note_on_c, 6, 64, 0
7, 9300, Note_on_c, 6, 62, 85
7, 9300, Note_on_c, 6, 59, 85
7, 9479, Note_on_c, 6, 59, 0
7, 9479, Note_on_c, 6, 62, 0
7, 9720, Note_on_c, 6, 71, 85
7, 9720, Note_on_c, 6, 67, 85
7, 9720, Note_on_c, 6, 62, 85
7, 9839, Note_on_c, 6, 62, 0
7, 9839, Note_on_c, 6, 67, 0
7, 9839, Note_on_c, 6, 71, 0
7, 9840, Note_on_c, 6, 71, 85
7, 9840, Note_on_c, 6, 67, 85
7, 9840, Note_on_c, 6, 62, 85
7, 9959, Note_on_c, 6, 62, 0
7, 9959, Note_on_c, 6, 67, 0
7, 9959, Note_on_c, 6, 71, 0
7, 9960, Note_on_c, 6, 67, 85
7, 10019, Note_on_c, 6, 67, 0
7, 10020, Note_on_c, 6, 64, 85
7, 10079, Note_on_c, 6, 64, 0
7, 10080, Note_on_c, 6, 67, 85
7, 10080, Note_on_c, 6, 62, 85
7, 10080, Note_on_c, 6, 59, 85
7, 10139, Note_on_c, 6, 59, 0
7, 10139, Note_on_c, 6, 62, 0
7, 10139, Note_on_c, 6, 67, 0
7, 10140, Note_on_c, 6, 67, 85
7, 10140, Note_on_c, 6, 62, 85
7, 10140, Note_on_c, 6, 59, 85
7, 10259, Note_on_c, 6, 59, 0
7, 10259, Note_on_c, 6, 62, 0
7, 10259, Note_on_c, 6, 67, 0
7, 10260, Note_on_c, 6, 71, 85
7, 10260, Note_on_c, 6, 67, 85
7, 10260, Note_on_c, 6, 62, 85
7, 10439, Note_on_c, 6, 62, 0
7, 10439, Note_on_c, 6, 67, 0
7, 10439, Note_on_c, 6, 71, 0
7, 10560, Note_on_c, 6, 62, 85
7, 10560, Note_on_c, 6, 59, 85
7, 10619, Note_on_c, 6, 59, 0
7, 10619, Note_on_c, 6, 62, 0
7, 10620, Note_on_c, 6, 67, 85
7, 10679, Note_on_c, 6, 67, 0
7, 10680, Note_on_c, 6, 67, 85
7, 10739, Note_on_c, 6, 67, 0
7, 10740, Note_on_c, 6, 64, 85
7, 10799, Note_on_c, 6, 64, 0
7, 10800, Note_on_c, 6, 67, 85
7, 10859, Note_on_c, 6, 67, 0
7, 10860, Note_on_c, 6, 71, 85
7, 10919, Note_on_c, 6, 71, 0
7, 11040, Note_on_c, 6, 67, 85
7, 11099, Note_on_c, 6, 67, 0
7, 11520, Note_on_c, 6, 71, 85
7, 11520, Note_on_c, 6, 67, 85
7, 11520, Note_on_c, 6, 62, 85
7, 11639, Note_on_c, 6, 62, 0
7, 11639, Note_on_c, 6, 67, 0
7, 11639, Note_on_c, 6, 71, 0
7, 11640, Note_on_c, 6, 71, 85
7, 11640, Note_on_c, 6, 67, 85
7, 11640, Note_on_c, 6, 62, 85
7, 11759, Note_on_c, 6, 62, 0
7, 11759, Note_on_c, 6, 67, 0
7, 11759, Note_on_c, 6, 71, 0
7, 11760, Note_on_c, 6, 71, 85
7, 11760, Note_on_c, 6, 67, 85
7, 11760, Note_on_c, 6, 62, 85
7, 11819, Note_on_c, 6, 62, 0
7, 11819, Note_on_c, 6, 67, 0
7, 11819, Note_on_c, 6, 71, 0
7, 11820, Note_on_c, 6, 69, 85
7, 11879, Note_on_c, 6, 69, 0
7, 11880, Note_on_c, 6, 67, 85
7, 11939, Note_on_c, 6, 67, 0
7, 11940, Note_on_c, 6, 64, 85
7, 11999, Note_on_c, 6, 64, 0
7, 12000, Note_on_c, 6, 71, 85
7, 12000, Note_on_c, 6, 67, 85
7, 12000, Note_on_c, 6, 62, 85
7, 12239, Note_on_c, 6, 62, 0
7, 12239, Note_on_c, 6, 67, 0
7, 12239, Note_on_c, 6, 71, 0
7, 12420, Note_on_c, 6, 62, 85
7, 12479, Note_on_c, 6, 62, 0
7, 12480, Note_on_c, 6, 71, 85
7, 12480, Note_on_c, 6, 67, 85
7, 12480, Note_on_c, 6, 62, 85
7, 12539, Note_on_c, 6, 62, 0
7, 12539, Note_on_c, 6, 67, 0
7, 12539, Note_on_c, 6, 71, 0
7, 12540, Note_on_c, 6, 69, 85
7, 12599, Note_on_c, 6, 69, 0
7, 12600, Note_on_c, 6, 67, 85
7, 12659, Note_on_c, 6, 67, 0
7, 12660, Note_on_c, 6, 64, 85
7, 12719, Note_on_c, 6, 64, 0
7, 12720, Note_on_c, 6, 67, 85
7, 12720, Note_on_c, 6, 62, 85
7, 12720, Note_on_c, 6, 59, 85
7, 12779, Note_on_c, 6, 59, 0
7, 12779, Note_on_c, 6, 62, 0
7, 12779, Note_on_c, 6, 67, 0
7, 12780, Note_on_c, 6, 67, 85
7, 12839, Note_on_c, 6, 67, 0
7, 12840, Note_on_c, 6, 64, 85
7, 12899, Note_on_c, 6, 64, 0
7, 12900, Note_on_c, 6, 71, 85
7, 12900, Note_on_c, 6, 67, 85
7, 12900, Note_on_c, 6, 62, 85
7, 13199, Note_on_c, 6, 62, 0
7, 13199, Note_on_c, 6, 67, 0
7, 13199, Note_on_c, 6, 71, 0
7, 13320, Note_on_c, 6, 69, 85
7, 13379, Note_on_c, 6, 69, 0
7, 13380, Note_on_c, 6, 67, 85
7, 13439, Note_on_c, 6, 67, 0
7, 13440, Note_on_c, 6, 69, 85
7, 13440, Note_on_c, 6, 64, 85
7, 13440, Note_on_c, 6, 60, 85
7, 13499, Note_on_c, 6, 60, 0
7, 13499, Note_on_c, 6, 64, 0
7, 13499, Note_on_c, 6, 69, 0
7, 13500, Note_on_c, 6, 67, 85
7, 13559, Note_on_c, 6, 67, 0
7, 13560, Note_on_c, 6, 64, 85
7, 13619, Note_on_c, 6, 64, 0
7, 13620, Note_on_c, 6, 67, 85
7, 13620, Note_on_c, 6, 64, 85
7, 13620, Note_on_c, 6, 60, 85
7, 13919, Note_on_c, 6, 60, 0
7, 13919, Note_on_c, 6, 64, 0
7, 13919, Note_on_c, 6, 67, 0
7, 14040, Note_on_c, 6, 67, 85
7, 14099, Note_on_c, 6, 67, 0
7, 14100, Note_on_c, 6, 64, 85
7, 14159, Note_on_c, 6, 64, 0
7, 14160, Note_on_c, 6, 71, 85
7, 14160, Note_on_c, 6, 67, 85
7, 14160, Note_on_c, 6, 60, 85
7, 14279, Note_on_c, 6, 60, 0
7, 14279, Note_on_c, 6, 67, 0
7, 14279, Note_on_c, 6, 71, 0
7, 14280, Note_on_c, 6, 64, 85
7, 14339, Note_on_c, 6, 64, 0
7, 14340, Note_on_c, 6, 62, 85
7, 14340, Note_on_c, 6, 59, 85
7, 14639, Note_on_c, 6, 59, 0
7, 14639, Note_on_c, 6, 62, 0
7, 15180, Note_on_c, 6, 71, 85
7, 15239, Note_on_c, 6, 71, 0
7, 15240, Note_on_c, 6, 69, 85
7, 15299, Note_on_c, 6, 69, 0
7, 15300, Note_on_c, 6, 67, 85
7, 15359, Note_on_c, 6, 67, 0
7, 15360, Note_on_c, 6, 69, 85
7, 15360, Note_on_c, 6, 66, 85
7, 15360, Note_on_c, 6, 62, 85
7, 15419, Note_on_c, 6, 62, 0
7, 15419, Note_on_c, 6, 66, 0
7, 15419, Note_on_c, 6, 69, 0
7, 15420, Note_on_c, 6, 69, 85
7, 15479, Note_on_c, 6, 69, 0
7, 15480, Note_on_c, 6, 67, 85
7, 15539, Note_on_c, 6, 67, 0
7, 15540, Note_on_c, 6, 69, 85
7, 15540, Note_on_c, 6, 66, 85
7, 15540, Note_on_c, 6, 62, 85
7, 15659, Note_on_c, 6, 62, 0
7, 15659, Note_on_c, 6, 66, 0
7, 15659, Note_on_c, 6, 69, 0
7, 15660, Note_on_c, 6, 69, 85
7, 15719, Note_on_c, 6, 69, 0
7, 15720, Note_on_c, 6, 67, 85
7, 15779, Note_on_c, 6, 67, 0
7, 15780, Note_on_c, 6, 71, 85
7, 15780, Note_on_c, 6, 66, 85
7, 15780, Note_on_c, 6, 62, 85
7, 16079, Note_on_c, 6, 62, 0
7, 16079, Note_on_c, 6, 66, 0
7, 16079, Note_on_c, 6, 71, 0
7, 16140, Note_on_c, 6, 62, 85
7, 16199, Note_on_c, 6, 62, 0
7, 16200, Note_on_c, 6, 71, 85
7, 16259, Note_on_c, 6, 71, 0
7, 16260, Note_on_c, 6, 67, 85
7, 16319, Note_on_c, 6, 67, 0
7, 16320, Note_on_c, 6, 70, 85
7, 16320, Note_on_c, 6, 67, 85
7, 16320, Note_on_c, 6, 64, 85
7, 16379, Note_on_c, 6, 64, 0
7, 16379, Note_on_c, 6, 67, 0
7, 16379, Note_on_c, 6, 70, 0
7, 16380, Note_on_c, 6, 69, 85
7, 16439, Note_on_c, 6, 69, 0
7, 16440, Note_on_c, 6, 67, 85
7, 16440, Note_on_c, 6, 64, 85
7, 16559, Note_on_c, 6, 64, 0
7, 16559, Note_on_c, 6, 67, 0
7, 16560, Note_on_c, 6, 67, 85
7, 16560, Note_on_c, 6, 64, 85
7, 16679, Note_on_c, 6, 64, 0
7, 16679, Note_on_c, 6, 67, 0
7, 16680, Note_on_c, 6, 70, 85
7, 16680, Note_on_c, 6, 67, 85
7, 16739, Note_on_c, 6, 67, 0
7, 16739, Note_on_c, 6, 70, 0
7, 16740, Note_on_c, 6, 67, 85
7, 16740, Note_on_c, 6, 64, 85
7, 16859, Note_on_c, 6, 64, 0
7, 16859, Note_on_c, 6, 67, 0
7, 16860, Note_on_c, 6, 67, 85
7, 16860, Note_on_c, 6, 64, 85
7, 17039, Note_on_c, 6, 64, 0
7, 17039, Note_on_c, 6, 67, 0
7, 17040, Note_on_c, 6, 67, 85
7, 17099, Note_on_c, 6, 67, 0
7, 17100, Note_on_c, 6, 67, 85
7, 17159, Note_on_c, 6, 67, 0
7, 17160, Note_on_c, 6, 64, 85
7, 17219, Note_on_c, 6, 64, 0
7, 17220, Note_on_c, 6, 62, 85
7, 17279, Note_on_c, 6, 62, 0
7, 17400, Note_on_c, 6, 71, 85
7, 17400, Note_on_c, 6, 67, 85
7, 17400, Note_on_c, 6, 62, 85
7, 17519, Note_on_c, 6, 62, 0
7, 17519, Note_on_c, 6, 67, 0
7, 17519, Note_on_c, 6, 71, 0
7, 17520, Note_on_c, 6, 71, 85
7, 17520, Note_on_c, 6, 67, 85
7, 17520, Note_on_c, 6, 62, 85
7, 17639, Note_on_c, 6, 62, 0
7, 17639, Note_on_c, 6, 67, 0
7, 17639, Note_on_c, 6, 71, 0
7, 17700, Note_on_c, 6, 62, 85
7, 17759, Note_on_c, 6, 62, 0
7, 17760, Note_on_c, 6, 67, 85
7, 17760, Note_on_c, 6, 62, 85
7, 17760, Note_on_c, 6, 59, 85
7, 17819, Note_on_c, 6, 59, 0
7, 17819, Note_on_c, 6, 62, 0
7, 17819, Note_on_c, 6, 67, 0
7, 17820, Note_on_c, 6, 67, 85
7, 17879, Note_on_c, 6, 67, 0
7, 17880, Note_on_c, 6, 67, 85
7, 17939, Note_on_c, 6, 67, 0
7, 17940, Note_on_c, 6, 71, 85
7, 17940, Note_on_c, 6, 67, 85
7, 17940, Note_on_c, 6, 62, 85
7, 18119, Note_on_c, 6, 62, 0
7, 18119, Note_on_c, 6, 67, 0
7, 18119, Note_on_c, 6, 71, 0
7, 18360, Note_on_c, 6, 71, 85
7, 18360, Note_on_c, 6, 67, 85
7, 18360, Note_on_c, 6, 62, 85
7, 18479, Note_on_c, 6, 62, 0
7, 18479, Note_on_c, 6, 67, 0
7, 18479, Note_on_c, 6, 71, 0
7, 18480, Note_on_c, 6, 71, 85
7, 18480, Note_on_c, 6, 67, 85
7, 18480, Note_on_c, 6, 62, 85
7, 18599, Note_on_c, 6, 62, 0
7, 18599, Note_on_c, 6, 67, 0
7, 18599, Note_on_c, 6, 71, 0
7, 18600, Note_on_c, 6, 71, 85
7, 18659, Note_on_c, 6, 71, 0
7, 18660, Note_on_c, 6, 67, 85
7, 18719, Note_on_c, 6, 67, 0
7, 18720, Note_on_c, 6, 71, 85
7, 18720, Note_on_c, 6, 67, 85
7, 18720, Note_on_c, 6, 62, 85
7, 18839, Note_on_c, 6, 62, 0
7, 18839, Note_on_c, 6, 67, 0
7, 18839, Note_on_c, 6, 71, 0
7, 18840, Note_on_c, 6, 64, 85
7, 18840, Note_on_c, 6, 60, 85
7, 18899, Note_on_c, 6, 60, 0
7, 18899, Note_on_c, 6, 64, 0
7, 18900, Note_on_c, 6, 62, 85
7, 18900, Note_on_c, 6, 59, 85
7, 19079, Note_on_c, 6, 59, 0
7, 19079, Note_on_c, 6, 62, 0
7, 19320, Note_on_c, 6, 71, 85
7, 19320, Note_on_c, 6, 67, 85
7, 19320, Note_on_c, 6, 62, 85
7, 19439, Note_on_c, 6, 62, 0
7, 19439, Note_on_c, 6, 67, 0
7, 19439, Note_on_c, 6, 71, 0
7, 19440, Note_on_c, 6, 71, 85
7, 19440, Note_on_c, 6, 67, 85
7, 19440, Note_on_c, 6, 62, 85
7, 19559, Note_on_c, 6, 62, 0
7, 19559, Note_on_c, 6, 67, 0
7, 19559, Note_on_c, 6, 71, 0
7, 19560, Note_on_c, 6, 67, 85
7, 19619, Note_on_c, 6, 67, 0
7, 19620, Note_on_c, 6, 64, 85
7, 19679, Note_on_c, 6, 64, 0
7, 19680, Note_on_c, 6, 67, 85
7, 19680, Note_on_c, 6, 62, 85
7, 19680, Note_on_c, 6, 59, 85
7, 19739, Note_on_c, 6, 59, 0
7, 19739, Note_on_c, 6, 62, 0
7, 19739, Note_on_c, 6, 67, 0
7, 19740, Note_on_c, 6, 67, 85
7, 19740, Note_on_c, 6, 62, 85
7, 19740, Note_on_c, 6, 59, 85
7, 19859, Note_on_c, 6, 59, 0
7, 19859, Note_on_c, 6, 62, 0
7, 19859, Note_on_c, 6, 67, 0
7, 19860, Note_on_c, 6, 71, 85
7, 19860, Note_on_c, 6, 67, 85
7, 19860, Note_on_c, 6, 62, 85
7, 20039, Note_on_c, 6, 62, 0
7, 20039, Note_on_c, 6, 67, 0
7, 20039, Note_on_c, 6, 71, 0
7, 20160, Note_on_c, 6, 62, 85
7, 20160, Note_on_c, 6, 59, 85
7, 20219, Note_on_c, 6, 59, 0
7, 20219, Note_on_c, 6, 62, 0
7, 20220, Note_on_c, 6, 67, 85
7, 20279, Note_on_c, 6, 67, 0
7, 20280, Note_on_c, 6, 67, 85
7, 20339, Note_on_c, 6, 67, 0
7, 20340, Note_on_c, 6, 64, 85
7, 20399, Note_on_c, 6, 64, 0
7, 20400, Note_on_c, 6, 67, 85
7, 20459, Note_on_c, 6, 67, 0
7, 20460, Note_on_c, 6, 71, 85
7, 20519, Note_on_c, 6, 71, 0
7, 20640, Note_on_c, 6, 67, 85
7, 20699, Note_on_c, 6, 67, 0
7, 21120, Note_on_c, 6, 71, 85
7, 21120, Note_on_c, 6, 67, 85
7, 21120, Note_on_c, 6, 62, 85
7, 21179, Note_on_c, 6, 62, 0
7, 21179, Note_on_c, 6, 67, 0
7, 21179, Note_on_c, 6, 71, 0
7, 21180, Note_on_c, 6, 69, 85
7, 21239, Note_on_c, 6, 69, 0
7, 21240, Note_on_c, 6, 67, 85
7, 21299, Note_on_c, 6, 67, 0
7, 21300, Note_on_c, 6, 64, 85
7, 21359, Note_on_c, 6, 64, 0
7, 21360, Note_on_c, 6, 67, 85
7, 21360, Note_on_c, 6, 62, 85
7, 21360, Note_on_c, 6, 59, 85
7, 21479, Note_on_c, 6, 59, 0
7, 21479, Note_on_c, 6, 62, 0
7, 21479, Note_on_c, 6, 67, 0
7, 21480, Note_on_c, 6, 64, 85
7, 21539, Note_on_c, 6, 64, 0
7, 21540, Note_on_c, 6, 71, 85
7, 21540, Note_on_c, 6, 67, 85
7, 21540, Note_on_c, 6, 62, 85
7, 21839, Note_on_c, 6, 62, 0
7, 21839, Note_on_c, 6, 67, 0
7, 21839, Note_on_c, 6, 71, 0
7, 21960, Note_on_c, 6, 64, 85
7, 21960, Note_on_c, 6, 60, 85
7, 22019, Note_on_c, 6, 60, 0
7, 22019, Note_on_c, 6, 64, 0
7, 22020, Note_on_c, 6, 64, 85
7, 22020, Note_on_c, 6, 60, 85
7, 22079, Note_on_c, 6, 60, 0
7, 22079, Note_on_c, 6, 64, 0
7, 22080, Note_on_c, 6, 67, 85
7, 22080, Note_on_c, 6, 62, 85
7, 22080, Note_on_c, 6, 59, 85
7, 22199, Note_on_c, 6, 59, 0
7, 22199, Note_on_c, 6, 62, 0
7, 22199, Note_on_c, 6, 67, 0
7, 22200, Note_on_c, 6, 67, 85
7, 22200, Note_on_c, 6, 62, 85
7, 22200, Note_on_c, 6, 59, 85
7, 22319, Note_on_c, 6, 59, 0
7, 22319, Note_on_c, 6, 62, 0
7, 22319, Note_on_c, 6, 67, 0
7, 22320, Note_on_c, 6, 67, 85
7, 22320, Note_on_c, 6, 62, 85
7, 22320, Note_on_c, 6, 59, 85
7, 22379, Note_on_c, 6, 59, 0
7, 22379, Note_on_c, 6, 62, 0
7, 22379, Note_on_c, 6, 67, 0
7, 22380, Note_on_c, 6, 67, 85
7, 22439, Note_on_c, 6, 67, 0
7, 22440, Note_on_c, 6, 64, 85
7, 22499, Note_on_c, 6, 64, 0
7, 22500, Note_on_c, 6, 71, 85
7, 22500, Note_on_c, 6, 67, 85
7, 22500, Note_on_c, 6, 62, 85
7, 22799, Note_on_c, 6, 62, 0
7, 22799, Note_on_c, 6, 67, 0
7, 22799, Note_on_c, 6, 71, 0
7, 22920, Note_on_c, 6, 69, 85
7, 22979, Note_on_c, 6, 69, 0
7, 22980, Note_on_c, 6, 67, 85
7, 23039, Note_on_c, 6, 67, 0
7, 23040, Note_on_c, 6, 69, 85
7, 23040, Note_on_c, 6, 64, 85
7, 23040, Note_on_c, 6, 60, 85
7, 23159, Note_on_c, 6, 60, 0
7, 23159, Note_on_c, 6, 64, 0
7, 23159, Note_on_c, 6, 69, 0
7, 23160, Note_on_c, 6, 69, 85
7, 23160, Note_on_c, 6, 64, 85
7, 23160, Note_on_c, 6, 60, 85
7, 23219, Note_on_c, 6, 60, 0
7, 23219, Note_on_c, 6, 64, 0
7, 23219, Note_on_c, 6, 69, 0
7, 23220, Note_on_c, 6, 69, 85
7, 23220, Note_on_c, 6, 64, 85
7, 23220, Note_on_c, 6, 60, 85
7, 23519, Note_on_c, 6, 60, 0
7, 23519, Note_on_c, 6, 64, 0
7, 23519, Note_on_c, 6, 69, 0
7, 23580, Note_on_c, 6, 67, 85
7, 23639, Note_on_c, 6, 67, 0
7, 23640, Note_on_c, 6, 67, 85
7, 23699, Note_on_c, 6, 67, 0
7, 23700, Note_on_c, 6, 64, 85
7, 23759, Note_on_c, 6, 64, 0
7, 23760, Note_on_c, 6, 71, 85
7, 23760, Note_on_c, 6, 64, 85
7, 23760, Note_on_c, 6, 60, 85
7, 23879, Note_on_c, 6, 60, 0
7, 23879, Note_on_c, 6, 64, 0
7, 23879, Note_on_c, 6, 71, 0
7, 23880, Note_on_c, 6, 64, 85
7, 23939, Note_on_c, 6, 64, 0
7, 23940, Note_on_c, 6, 62, 85
7, 23940, Note_on_c, 6, 59, 85
7, 24239, Note_on_c, 6, 59, 0
7, 24239, Note_on_c, 6, 62, 0
7, 24780, Note_on_c, 6, 71, 85
7, 24839, Note_on_c, 6, 71, 0
7, 24840, Note_on_c, 6, 71, 85
7, 24840, Note_on_c, 6, 67, 85
7, 24840, Note_on_c, 6, 62, 85
7, 24959, Note_on_c, 6, 62, 0
7, 24959, Note_on_c, 6, 67, 0
7, 24959, Note_on_c, 6, 71, 0
7, 24960, Note_on_c, 6, 69, 85
7, 24960, Note_on_c, 6, 66, 85
7, 24960, Note_on_c, 6, 62, 85
7, 25079, Note_on_c, 6, 62, 0
7, 25079, Note_on_c, 6, 66, 0
7, 25079, Note_on_c, 6, 69, 0
7, 25080, Note_on_c, 6, 69, 85
7, 25080, Note_on_c, 6, 66, 85
7, 25080, Note_on_c, 6, 62, 85
7, 25199, Note_on_c, 6, 62, 0
7, 25199, Note_on_c, 6, 66, 0
7, 25199, Note_on_c, 6, 69, 0
7, 25200, Note_on_c, 6, 69, 85
7, 25200, Note_on_c, 6, 66, 85
7, 25200, Note_on_c, 6, 62, 85
7, 25259, Note_on_c, 6, 62, 0
7, 25259, Note_on_c, 6, 66, 0
7, 25259, Note_on_c, 6, 69, 0
7, 25260, Note_on_c, 6, 69, 85
7, 25319, Note_on_c, 6, 69, 0
7, 25320, Note_on_c, 6, 67, 85
7, 25379, Note_on_c, 6, 67, 0
7, 25380, Note_on_c, 6, 71, 85
7, 25380, Note_on_c, 6, 66, 85
7, 25380, Note_on_c, 6, 62, 85
7, 25679, Note_on_c, 6, 62, 0
7, 25679, Note_on_c, 6, 66, 0
7, 25679, Note_on_c, 6, 71, 0
7, 25740, Note_on_c, 6, 70, 85
7, 25799, Note_on_c, 6, 70, 0
7, 25800, Note_on_c, 6, 70, 85
7, 25859, Note_on_c, 6, 70, 0
7, 25860, Note_on_c, 6, 67, 85
7, 25919, Note_on_c, 6, 67, 0
7, 25920, Note_on_c, 6, 70, 85
7, 25920, Note_on_c, 6, 67, 85
7, 25920, Note_on_c, 6, 64, 85
7, 25979, Note_on_c, 6, 64, 0
7, 25979, Note_on_c, 6, 67, 0
7, 25979, Note_on_c, 6, 70, 0
7, 25980, Note_on_c, 6, 70, 85
7, 25980, Note_on_c, 6, 67, 85
7, 25980, Note_on_c, 6, 64, 85
7, 26159, Note_on_c, 6, 64, 0
7, 26159, Note_on_c, 6, 67, 0
7, 26159, Note_on_c, 6, 70, 0
7, 26160, Note_on_c, 6, 67, 85
7, 26160, Note_on_c, 6, 64, 85
7, 26160, Note_on_c, 6, 60, 85
7, 26219, Note_on_c, 6, 60, 0
7, 26219, Note_on_c, 6, 64, 0
7, 26219, Note_on_c, 6, 67, 0
7, 26220, Note_on_c, 6, 67, 85
7, 26220, Note_on_c, 6, 64, 85
7, 26220, Note_on_c, 6, 60, 85
7, 26279, Note_on_c, 6, 60, 0
7, 26279, Note_on_c, 6, 64, 0
7, 26279, Note_on_c, 6, 67, 0
7, 26280, Note_on_c, 6, 67, 85
7, 26280, Note_on_c, 6, 64, 85
7, 26280, Note_on_c, 6, 60, 85
7, 26339, Note_on_c, 6, 60, 0
7, 26339, Note_on_c, 6, 64, 0
7, 26339, Note_on_c, 6, 67, 0
7, 26340, Note_on_c, 6, 67, 85
7, 26340, Note_on_c, 6, 64, 85
7, 26340, Note_on_c, 6, 60, 85
7, 26459, Note_on_c, 6, 60, 0
7, 26459, Note_on_c, 6, 64, 0
7, 26459, Note_on_c, 6, 67, 0
7, 26460, Note_on_c, 6, 67, 85
7, 26460, Note_on_c, 6, 64, 85
7, 26460, Note_on_c, 6, 60, 85
7, 26639, Note_on_c, 6, 60, 0
7, 26639, Note_on_c, 6, 64, 0
7, 26639, Note_on_c, 6, 67, 0
7, 26640, Note_on_c, 6, 67, 85
7, 26699, Note_on_c, 6, 67, 0
7, 26700, Note_on_c, 6, 67, 85
7, 26759, Note_on_c, 6, 67, 0
7, 26760, Note_on_c, 6, 64, 85
7, 26819, Note_on_c, 6, 64, 0
7, 26820, Note_on_c, 6, 62, 85
7, 26879, Note_on_c, 6, 62, 0
7, 27000, Note_on_c, 6, 71, 85
7, 27000, Note_on_c, 6, 67, 85
7, 27000, Note_on_c, 6, 62, 85
7, 27119, Note_on_c, 6, 62, 0
7, 27119, Note_on_c, 6, 67, 0
7, 27119, Note_on_c, 6, 71, 0
7, 27120, Note_on_c, 6, 71, 85
7, 27120, Note_on_c, 6, 67, 85
7, 27120, Note_on_c, 6, 62, 85
7, 27239, Note_on_c, 6, 62, 0
7, 27239, Note_on_c, 6, 67, 0
7, 27239, Note_on_c, 6, 71, 0
7, 27240, Note_on_c, 6, 67, 85
7, 27299, Note_on_c, 6, 67, 0
7, 27300, Note_on_c, 6, 64, 85
7, 27359, Note_on_c, 6, 64, 0
7, 27360, Note_on_c, 6, 67, 85
7, 27360, Note_on_c, 6, 62, 85
7, 27360, Note_on_c, 6, 59, 85
7, 27419, Note_on_c, 6, 59, 0
7, 27419, Note_on_c, 6, 62, 0
7, 27419, Note_on_c, 6, 67, 0
7, 27420, Note_on_c, 6, 67, 85
7, 27420, Note_on_c, 6, 62, 85
7, 27420, Note_on_c, 6, 59, 85
7, 27539, Note_on_c, 6, 59, 0
7, 27539, Note_on_c, 6, 62, 0
7, 27539, Note_on_c, 6, 67, 0
7, 27540, Note_on_c, 6, 71, 85
7, 27540, Note_on_c, 6, 67, 85
7, 27540, Note_on_c, 6, 62, 85
7, 27719, Note_on_c, 6, 62, 0
7, 27719, Note_on_c, 6, 67, 0
7, 27719, Note_on_c, 6, 71, 0
7, 27960, Note_on_c, 6, 71, 85
7, 27960, Note_on_c, 6, 67, 85
7, 27960, Note_on_c, 6, 62, 85
7, 28079, Note_on_c, 6, 62, 0
7, 28079, Note_on_c, 6, 67, 0
7, 28079, Note_on_c, 6, 71, 0
7, 28080, Note_on_c, 6, 71, 85
7, 28080, Note_on_c, 6, 67, 85
7, 28080, Note_on_c, 6, 62, 85
7, 28199, Note_on_c, 6, 62, 0
7, 28199, Note_on_c, 6, 67, 0
7, 28199, Note_on_c, 6, 71, 0
7, 28200, Note_on_c, 6, 67, 85
7, 28259, Note_on_c, 6, 67, 0
7, 28260, Note_on_c, 6, 64, 85
7, 28319, Note_on_c, 6, 64, 0
7, 28320, Note_on_c, 6, 67, 85
7, 28320, Note_on_c, 6, 62, 85
7, 28320, Note_on_c, 6, 59, 85
7, 28379, Note_on_c, 6, 59, 0
7, 28379, Note_on_c, 6, 62, 0
7, 28379, Note_on_c, 6, 67, 0
7, 28380, Note_on_c, 6, 67, 85
7, 28380, Note_on_c, 6, 62, 85
7, 28380, Note_on_c, 6, 59, 85
7, 28499, Note_on_c, 6, 59, 0
7, 28499, Note_on_c, 6, 62, 0
7, 28499, Note_on_c, 6, 67, 0
7, 28500, Note_on_c, 6, 71, 85
7, 28500, Note_on_c, 6, 67, 85
7, 28500, Note_on_c, 6, 62, 85
7, 28679, Note_on_c, 6, 62, 0
7, 28679, Note_on_c, 6, 67, 0
7, 28679, Note_on_c, 6, 71, 0
7, 28920, Note_on_c, 6, 71, 85
7, 28920, Note_on_c, 6, 67, 85
7, 28920, Note_on_c, 6, 62, 85
7, 29039, Note_on_c, 6, 62, 0
7, 29039, Note_on_c, 6, 67, 0
7, 29039, Note_on_c, 6, 71, 0
7, 29040, Note_on_c, 6, 71, 85
7, 29040, Note_on_c, 6, 67, 85
7, 29040, Note_on_c, 6, 62, 85
7, 29099, Note_on_c, 6, 62, 0
7, 29099, Note_on_c, 6, 67, 0
7, 29099, Note_on_c, 6, 71, 0
7, 29100, Note_on_c, 6, 71, 85
7, 29159, Note_on_c, 6, 71, 0
7, 29160, Note_on_c, 6, 71, 85
7, 29160, Note_on_c, 6, 67, 85
7, 29160, Note_on_c, 6, 62, 85
7, 29219, Note_on_c, 6, 62, 0
7, 29219, Note_on_c, 6, 67, 0
7, 29219, Note_on_c, 6, 71, 0
7, 29220, Note_on_c, 6, 64, 85
7, 29279, Note_on_c, 6, 64, 0
7, 29280, Note_on_c, 6, 67, 85
7, 29280, Note_on_c, 6, 62, 85
7, 29280, Note_on_c, 6, 59, 85
7, 29339, Note_on_c, 6, 59, 0
7, 29339, Note_on_c, 6, 62, 0
7, 29339, Note_on_c, 6, 67, 0
7, 29340, Note_on_c, 6, 67, 85
7, 29340, Note_on_c, 6, 62, 85
7, 29340, Note_on_c, 6, 59, 85
7, 29459, Note_on_c, 6, 59, 0
7, 29459, Note_on_c, 6, 62, 0
7, 29459, Note_on_c, 6, 67, 0
7, 29460, Note_on_c, 6, 71, 85
7, 29460, Note_on_c, 6, 67, 85
7, 29460, Note_on_c, 6, 62, 85
7, 29639, Note_on_c, 6, 62, 0
7, 29639, Note_on_c, 6, 67, 0
7, 29639, Note_on_c, 6, 71, 0
7, 29760, Note_on_c, 6, 62, 85
7, 29760, Note_on_c, 6, 59, 85
7, 29819, Note_on_c, 6, 59, 0
7, 29819, Note_on_c, 6, 62, 0
7, 29820, Note_on_c, 6, 67, 85
7, 29879, Note_on_c, 6, 67, 0
7, 29880, Note_on_c, 6, 67, 85
7, 29939, Note_on_c, 6, 67, 0
7, 29940, Note_on_c, 6, 64, 85
7, 29999, Note_on_c, 6, 64, 0
7, 30000, Note_on_c, 6, 67, 85
7, 30059, Note_on_c, 6, 67, 0
7, 30060, Note_on_c, 6, 71, 85
7, 30119, Note_on_c, 6, 71, 0
7, 30840, Note_on_c, 6, 71, 85
7, 30840, Note_on_c, 6, 67, 85
7, 30840, Note_on_c, 6, 62, 85
7, 30959, Note_on_c, 6, 62, 0
7, 30959, Note_on_c, 6, 67, 0
7, 30959, Note_on_c, 6, 71, 0
7, 30960, Note_on_c, 6, 71, 85
7, 30960, Note_on_c, 6, 67, 85
7, 30960, Note_on_c, 6, 62, 85
7, 31079, Note_on_c, 6, 62, 0
7, 31079, Note_on_c, 6, 67, 0
7, 31079, Note_on_c, 6, 71, 0
7, 31080, Note_on_c, 6, 67, 85
7, 31139, Note_on_c, 6, 67, 0
7, 31140, Note_on_c, 6, 64, 85
7, 31199, Note_on_c, 6, 64, 0
7, 31200, Note_on_c, 6, 67, 85
7, 31200, Note_on_c, 6, 62, 85
7, 31200, Note_on_c, 6, 59, 85
7, 31259, Note_on_c, 6, 59, 0
7, 31259, Note_on_c, 6, 62, 0
7, 31259, Note_on_c, 6, 67, 0
7, 31260, Note_on_c, 6, 67, 85
7, 31260, Note_on_c, 6, 62, 85
7, 31260, Note_on_c, 6, 59, 85
7, 31379, Note_on_c, 6, 59, 0
7, 31379, Note_on_c, 6, 62, 0
7, 31379, Note_on_c, 6, 67, 0
7, 31380, Note_on_c, 6, 71, 85
7, 31380, Note_on_c, 6, 67, 85
7, 31380, Note_on_c, 6, 62, 85
7, 31559, Note_on_c, 6, 62, 0
7, 31559, Note_on_c, 6, 67, 0
7, 31559, Note_on_c, 6, 71, 0
7, 31800, Note_on_c, 6, 71, 85
7, 31800, Note_on_c, 6, 67, 85
7, 31800, Note_on_c, 6, 62, 85
7, 31919, Note_on_c, 6, 62, 0
7, 31919, Note_on_c, 6, 67, 0
7, 31919, Note_on_c, 6, 71, 0
7, 31920, Note_on_c, 6, 71, 85
7, 31920, Note_on_c, 6, 67, 85
7, 31920, Note_on_c, 6, 62, 85
7, 32039, Note_on_c, 6, 62, 0
7, 32039, Note_on_c, 6, 67, 0
7, 32039, Note_on_c, 6, 71, 0
7, 32040, Note_on_c, 6, 67, 85
7, 32099, Note_on_c, 6, 67, 0
7, 32100, Note_on_c, 6, 64, 85
7, 32159, Note_on_c, 6, 64, 0
7, 32160, Note_on_c, 6, 67, 85
7, 32160, Note_on_c, 6, 62, 85
7, 32160, Note_on_c, 6, 59, 85
7, 32219, Note_on_c, 6, 59, 0
7, 32219, Note_on_c, 6, 62, 0
7, 32219, Note_on_c, 6, 67, 0
7, 32220, Note_on_c, 6, 67, 85
7, 32220, Note_on_c, 6, 62, 85
7, 32220, Note_on_c, 6, 59, 85
7, 32339, Note_on_c, 6, 59, 0
7, 32339, Note_on_c, 6, 62, 0
7, 32339, Note_on_c, 6, 67, 0
7, 32340, Note_on_c, 6, 71, 85
7, 32340, Note_on_c, 6, 67, 85
7, 32340, Note_on_c, 6, 62, 85
7, 32519, Note_on_c, 6, 62, 0
7, 32519, Note_on_c, 6, 67, 0
7, 32519, Note_on_c, 6, 71, 0
7, 32760, Note_on_c, 6, 71, 85
7, 32760, Note_on_c, 6, 67, 85
7, 32760, Note_on_c, 6, 62, 85
7, 32879, Note_on_c, 6, 62, 0
7, 32879, Note_on_c, 6, 67, 0
7, 32879, Note_on_c, 6, 71, 0
7, 32880, Note_on_c, 6, 71, 85
7, 32880, Note_on_c, 6, 67, 85
7, 32880, Note_on_c, 6, 62, 85
7, 32939, Note_on_c, 6, 62, 0
7, 32939, Note_on_c, 6, 67, 0
7, 32939, Note_on_c, 6, 71, 0
7, 32940, Note_on_c, 6, 71, 85
7, 32999, Note_on_c, 6, 71, 0
7, 33000, Note_on_c, 6, 71, 85
7, 33000, Note_on_c, 6, 67, 85
7, 33000, Note_on_c, 6, 62, 85
7, 33059, Note_on_c, 6, 62, 0
7, 33059, Note_on_c, 6, 67, 0
7, 33059, Note_on_c, 6, 71, 0
7, 33060, Note_on_c, 6, 64, 85
7, 33119, Note_on_c, 6, 64, 0
7, 33120, Note_on_c, 6, 67, 85
7, 33120, Note_on_c, 6, 62, 85
7, 33120, Note_on_c, 6, 59, 85
7, 33179, Note_on_c, 6, 59, 0
7, 33179, Note_on_c, 6, 62, 0
7, 33179, Note_on_c, 6, 67, 0
7, 33180, Note_on_c, 6, 67, 85
7, 33180, Note_on_c, 6, 62, 85
7, 33180, Note_on_c, 6, 59, 85
7, 33299, Note_on_c, 6, 59, 0
7, 33299, Note_on_c, 6, 62, 0
7, 33299, Note_on_c, 6, 67, 0
7, 33300, Note_on_c, 6, 71, 85
7, 33300, Note_on_c, 6, 67, 85
7, 33300, Note_on_c, 6, 62, 85
7, 33479, Note_on_c, 6, 62, 0
7, 33479, Note_on_c, 6, 67, 0
7, 33479, Note_on_c, 6, 71, 0
7, 33600, Note_on_c, 6, 62, 85
7, 33600, Note_on_c, 6, 59, 85
7, 33659, Note_on_c, 6, 59, 0
7, 33659, Note_on_c, 6, 62, 0
7, 33660, Note_on_c, 6, 67, 85
7, 33719, Note_on_c, 6, 67, 0
7, 33720, Note_on_c, 6, 67, 85
7, 33779, Note_on_c, 6, 67, 0
7, 33780, Note_on_c, 6, 64, 85
7, 33839, Note_on_c, 6, 64, 0
7, 33840, Note_on_c, 6, 67, 85
7, 33899, Note_on_c, 6, 67, 0
7, 33900, Note_on_c, 6, 71, 85
7, 33959, Note_on_c, 6, 71, 0
7, 34680, Note_on_c, 6, 71, 85
7, 34680, Note_on_c, 6, 67, 85
7, 34680, Note_on_c, 6, 62, 85
7, 34799, Note_on_c, 6, 62, 0
7, 34799, Note_on_c, 6, 67, 0
7, 34799, Note_on_c, 6, 71, 0
7, 34800, Note_on_c, 6, 71, 85
7, 34800, Note_on_c, 6, 67, 85
7, 34800, Note_on_c, 6, 62, 85
7, 34919, Note_on_c, 6, 62, 0
7, 34919, Note_on_c, 6, 67, 0
7, 34919, Note_on_c, 6, 71, 0
7, 34920, Note_on_c, 6, 67, 85
7, 34979, Note_on_c, 6, 67, 0
7, 34980, Note_on_c, 6, 64, 85
7, 35039, Note_on_c, 6, 64, 0
7, 35040, Note_on_c, 6, 67, 85
7, 35040, Note_on_c, 6, 62, 85
7, 35040, Note_on_c, 6, 59, 85
7, 35099, Note_on_c, 6, 59, 0
7, 35099, Note_on_c, 6, 62, 0
7, 35099, Note_on_c, 6, 67, 0
7, 35100, Note_on_c, 6, 67, 85
7, 35100, Note_on_c, 6, 62, 85
7, 35100, Note_on_c, 6, 59, 85
7, 35219, Note_on_c, 6, 59, 0
7, 35219, Note_on_c, 6, 62, 0
7, 35219, Note_on_c, 6, 67, 0
7, 35220, Note_on_c, 6, 71, 85
7, 35220, Note_on_c, 6, 67, 85
7, 35220, Note_on_c, 6, 62, 85
7, 35399, Note_on_c, 6, 62, 0
7, 35399, Note_on_c, 6, 67, 0
7, 35399, Note_on_c, 6, 71, 0
7, 35640, Note_on_c, 6, 71, 85
7, 35640, Note_on_c, 6, 67, 85
7, 35640, Note_on_c, 6, 62, 85
7, 35759, Note_on_c, 6, 62, 0
7, 35759, Note_on_c, 6, 67, 0
7, 35759, Note_on_c, 6, 71, 0
7, 35760, Note_on_c, 6, 71, 85
7, 35760, Note_on_c, 6, 67, 85
7, 35760, Note_on_c, 6, 62, 85
7, 35879, Note_on_c, 6, 62, 0
7, 35879, Note_on_c, 6, 67, 0
7, 35879, Note_on_c, 6, 71, 0
7, 35880, Note_on_c, 6, 67, 85
7, 35939, Note_on_c, 6, 67, 0
7, 35940, Note_on_c, 6, 64, 85
7, 35999, Note_on_c, 6, 64, 0
7, 36000, Note_on_c, 6, 67, 85
7, 36000, Note_on_c, 6, 62, 85
7, 36000, Note_on_c, 6, 59, 85
7, 36059, Note_on_c, 6, 59, 0
7, 36059, Note_on_c, 6, 62, 0
7, 36059, Note_on_c, 6, 67, 0
7, 36060, Note_on_c, 6, 67, 85
7, 36060, Note_on_c, 6, 62, 85
7, 36060, Note_on_c, 6, 59, 85
7, 36179, Note_on_c, 6, 59, 0
7, 36179, Note_on_c, 6, 62, 0
7, 36179, Note_on_c, 6, 67, 0
7, 36180, Note_on_c, 6, 71, 85
7, 36180, Note_on_c, 6, 67, 85
7, 36180, Note_on_c, 6, 62, 85
7, 36359, Note_on_c, 6, 62, 0
7, 36359, Note_on_c, 6, 67, 0
7, 36359, Note_on_c, 6, 71, 0
7, 36600, Note_on_c, 6, 71, 85
7, 36600, Note_on_c, 6, 67, 85
7, 36600, Note_on_c, 6, 62, 85
7, 36719, Note_on_c, 6, 62, 0
7, 36719, Note_on_c, 6, 67, 0
7, 36719, Note_on_c, 6, 71, 0
7, 36720, Note_on_c, 6, 71, 85
7, 36720, Note_on_c, 6, 67, 85
7, 36720, Note_on_c, 6, 62, 85
7, 36779, Note_on_c, 6, 62, 0
7, 36779, Note_on_c, 6, 67, 0
7, 36779, Note_on_c, 6, 71, 0
7, 36780, Note_on_c, 6, 71, 85
7, 36839, Note_on_c, 6, 71, 0
7, 36840, Note_on_c, 6, 71, 85
7, 36840, Note_on_c, 6, 67, 85
7, 36840, Note_on_c, 6, 62, 85
7, 36899, Note_on_c, 6, 62, 0
7, 36899, Note_on_c, 6, 67, 0
7, 36899, Note_on_c, 6, 71, 0
7, 36900, Note_on_c, 6, 64, 85
7, 36959, Note_on_c, 6, 64, 0
7, 36960, Note_on_c, 6, 67, 85
7, 36960, Note_on_c, 6, 62, 85
7, 36960, Note_on_c, 6, 59, 85
7, 37019, Note_on_c, 6, 59, 0
7, 37019, Note_on_c, 6, 62, 0
7, 37019, Note_on_c, 6, 67, 0
7, 37020, Note_on_c, 6, 67, 85
7, 37020, Note_on_c, 6, 62, 85
7, 37020, Note_on_c, 6, 59, 85
7, 37139, Note_on_c, 6, 59, 0
7, 37139, Note_on_c, 6, 62, 0
7, 37139, Note_on_c, 6, 67, 0
7, 37140, Note_on_c, 6, 71, 85
7, 37140, Note_on_c, 6, 67, 85
7, 37140, Note_on_c, 6, 62, 85
7, 37319, Note_on_c, 6, 62, 0
7, 37319, Note_on_c, 6, 67, 0
7, 37319, Note_on_c, 6, 71, 0
7, 37440, Note_on_c, 6, 62, 85
7, 37440, Note_on_c, 6, 59, 85
7, 37499, Note_on_c, 6, 59, 0
7, 37499, Note_on_c, 6, 62, 0
7, 37500, Note_on_c, 6, 67, 85
7, 37559, Note_on_c, 6, 67, 0
7, 37560, Note_on_c, 6, 67, 85
7, 37619, Note_on_c, 6, 67, 0
7, 37620, Note_on_c, 6, 64, 85
7, 37679, Note_on_c, 6, 64, 0
7, 37680, Note_on_c, 6, 67, 85
7, 37739, Note_on_c, 6, 67, 0
7, 37740, Note_on_c, 6, 71, 85
7, 37799, Note_on_c, 6, 71, 0
7, 37800, Note_on_c, 6, 72, 85
7, 37859, Note_on_c, 6, 72, 0
7, 37860, Note_on_c, 6, 71, 85
7, 37919, Note_on_c, 6, 71, 0
7, 37920, Note_on_c, 6, 69, 85
7, 37979, Note_on_c, 6, 69, 0
7, 37980, Note_on_c, 6, 67, 85
7, 38039, Note_on_c, 6, 67, 0
7, 38040, Note_on_c, 6, 71, 85
7, 38099, Note_on_c, 6, 71, 0
7, 38100, Note_on_c, 6, 74, 85
7, 38159, Note_on_c, 6, 74, 0
7, 38160, Note_on_c, 6, 70, 85
7, 38189, Note_on_c, 6, 70, 0
7, 38190, Note_on_c, 6, 69, 85
7, 38219, Note_on_c, 6, 69, 0
7, 38220, Note_on_c, 6, 67, 85
7, 38279, Note_on_c, 6, 67, 0
7, 38280, Note_on_c, 6, 69, 85
7, 38339, Note_on_c, 6, 69, 0
7, 38340, Note_on_c, 6, 67, 85
7, 38399, Note_on_c, 6, 67, 0
7, 38520, Note_on_c, 6, 71, 85
7, 38520, Note_on_c, 6, 67, 85
7, 38520, Note_on_c, 6, 62, 85
7, 38639, Note_on_c, 6, 62, 0
7, 38639, Note_on_c, 6, 67, 0
7, 38639, Note_on_c, 6, 71, 0
7, 38640, Note_on_c, 6, 71, 85
7, 38640, Note_on_c, 6, 67, 85
7, 38640, Note_on_c, 6, 62, 85
7, 38759, Note_on_c, 6, 62, 0
7, 38759, Note_on_c, 6, 67, 0
7, 38759, Note_on_c, 6, 71, 0
7, 38880, Note_on_c, 6, 62, 85
7, 38880, Note_on_c, 6, 59, 85
7, 38999, Note_on_c, 6, 59, 0
7, 38999, Note_on_c, 6, 62, 0
7, 39060, Note_on_c, 6, 62, 85
7, 39060, Note_on_c, 6, 59, 85
7, 39359, Note_on_c, 6, 59, 0
7, 39359, Note_on_c, 6, 62, 0
7, 39480, Note_on_c, 6, 71, 85
7, 39480, Note_on_c, 6, 67, 85
7, 39480, Note_on_c, 6, 62, 85
7, 39599, Note_on_c, 6, 62, 0
7, 39599, Note_on_c, 6, 67, 0
7, 39599, Note_on_c, 6, 71, 0
7, 39600, Note_on_c, 6, 71, 85
7, 39600, Note_on_c, 6, 67, 85
7, 39600, Note_on_c, 6, 62, 85
7, 39719, Note_on_c, 6, 62, 0
7, 39719, Note_on_c, 6, 67, 0
7, 39719, Note_on_c, 6, 71, 0
7, 39840, Note_on_c, 6, 62, 85
7, 39840, Note_on_c, 6, 59, 85
7, 39959, Note_on_c, 6, 59, 0
7, 39959, Note_on_c, 6, 62, 0
7, 40020, Note_on_c, 6, 62, 85
7, 40020, Note_on_c, 6, 59, 85
7, 40319, Note_on_c, 6, 59, 0
7, 40319, Note_on_c, 6, 62, 0
7, 40440, Note_on_c, 6, 71, 85
7, 40440, Note_on_c, 6, 67, 85
7, 40440, Note_on_c, 6, 62, 85
7, 40559, Note_on_c, 6, 62, 0
7, 40559, Note_on_c, 6, 67, 0
7, 40559, Note_on_c, 6, 71, 0
7, 40560, Note_on_c, 6, 71, 85
7, 40560, Note_on_c, 6, 67, 85
7, 40560, Note_on_c, 6, 62, 85
7, 40679, Note_on_c, 6, 62, 0
7, 40679, Note_on_c, 6, 67, 0
7, 40679, Note_on_c, 6, 71, 0
7, 40800, Note_on_c, 6, 62, 85
7, 40800, Note_on_c, 6, 59, 85
7, 40919, Note_on_c, 6, 59, 0
7, 40919, Note_on_c, 6, 62, 0
7, 40980, Note_on_c, 6, 62, 85
7, 40980, Note_on_c, 6, 59, 85
7, 41279, Note_on_c, 6, 59, 0
7, 41279, Note_on_c, 6, 62, 0
7, 41280, Note_on_c, 6, 62, 85
7, 41280, Note_on_c, 6, 59, 85
7, 41339, Note_on_c, 6, 59, 0
7, 41339, Note_on_c, 6, 62, 0
7, 41340, Note_on_c, 6, 67, 85
7, 41399, Note_on_c, 6, 67, 0
7, 41400, Note_on_c, 6, 67, 85
7, 41459, Note_on_c, 6, 67, 0
7, 41460, Note_on_c, 6, 64, 85
7, 41519, Note_on_c, 6, 64, 0
7, 41520, Note_on_c, 6, 67, 85
7, 41579, Note_on_c, 6, 67, 0
7, 41580, Note_on_c, 6, 79, 85
7, 41580, Note_on_c, 6, 71, 85
7, 41999, Note_on_c, 6, 71, 0
7, 41999, Note_on_c, 6, 79, 0
7, 41999, End_track
8, 0, Start_track
8, 0, MIDI_port, 0
8, 0, Title_t, "Hot Legs"
8, 120, Note_on_c, 9, 42, 70
8, 130, Note_on_c, 9, 42, 0
8, 240, Note_on_c, 9, 42, 69
8, 250, Note_on_c, 9, 42, 0
8, 360, Note_on_c, 9, 42, 68
8, 370, Note_on_c, 9, 42, 0
8, 420, Note_on_c, 9, 42, 52
8, 430, Note_on_c, 9, 42, 0
8, 480, Note_on_c, 9, 42, 69
8, 490, Note_on_c, 9, 42, 0
8, 600, Note_on_c, 9, 42, 71
8, 610, Note_on_c, 9, 42, 0
8, 720, Note_on_c, 9, 42, 68
8, 730, Note_on_c, 9, 42, 0
8, 840, Note_on_c, 9, 42, 70
8, 850, Note_on_c, 9, 42, 0
8, 960, Note_on_c, 9, 42, 88
8, 970, Note_on_c, 9, 42, 0
8, 1080, Note_on_c, 9, 42, 69
8, 1090, Note_on_c, 9, 42, 0
8, 1200, Note_on_c, 9, 42, 71
8, 1210, Note_on_c, 9, 42, 0
8, 1320, Note_on_c, 9, 42, 69
8, 1330, Note_on_c, 9, 42, 0
8, 1920, Note_on_c, 9, 42, 89
8, 1930, Note_on_c, 9, 42, 0
8, 2040, Note_on_c, 9, 42, 70
8, 2050, Note_on_c, 9, 42, 0
8, 2160, Note_on_c, 9, 42, 71
8, 2170, Note_on_c, 9, 42, 0
8, 2280, Note_on_c, 9, 42, 69
8, 2290, Note_on_c, 9, 42, 0
8, 2400, Note_on_c, 9, 42, 88
8, 2410, Note_on_c, 9, 42, 0
8, 2520, Note_on_c, 9, 42, 69
8, 2530, Note_on_c, 9, 42, 0
8, 2640, Note_on_c, 9, 42, 70
8, 2650, Note_on_c, 9, 42, 0
8, 2760, Note_on_c, 9, 42, 68
8, 2770, Note_on_c, 9, 42, 0
8, 2820, Note_on_c, 9, 42, 53
8, 2830, Note_on_c, 9, 42, 0
8, 2880, Note_on_c, 9, 42, 91
8, 2890, Note_on_c, 9, 42, 0
8, 3000, Note_on_c, 9, 42, 69
8, 3010, Note_on_c, 9, 42, 0
8, 3120, Note_on_c, 9, 42, 70
8, 3130, Note_on_c, 9, 42, 0
8, 3240, Note_on_c, 9, 42, 70
8, 3250, Note_on_c, 9, 42, 0
8, 3360, Note_on_c, 9, 42, 90
8, 3370, Note_on_c, 9, 42, 0
8, 3480, Note_on_c, 9, 42, 68
8, 3490, Note_on_c, 9, 42, 0
8, 3600, Note_on_c, 9, 42, 71
8, 3610, Note_on_c, 9, 42, 0
8, 3840, Note_on_c, 9, 42, 91
8, 3850, Note_on_c, 9, 42, 0
8, 3960, Note_on_c, 9, 42, 70
8, 3970, Note_on_c, 9, 42, 0
8, 4080, Note_on_c, 9, 42, 71
8, 4090, Note_on_c, 9, 42, 0
8, 4200, Note_on_c, 9, 42, 71
8, 4210, Note_on_c, 9, 42, 0
8, 4320, Note_on_c, 9, 42, 88
8, 4330, Note_on_c, 9, 42, 0
8, 4440, Note_on_c, 9, 42, 70
8, 4450, Note_on_c, 9, 42, 0
8, 4560, Note_on_c, 9, 42, 69
8, 4570, Note_on_c, 9, 42, 0
8, 4680, Note_on_c, 9, 42, 68
8, 4690, Note_on_c, 9, 42, 0
8, 4800, Note_on_c, 9, 42, 88
8, 4810, Note_on_c, 9, 42, 0
8, 4920, Note_on_c, 9, 42, 70
8, 4930, Note_on_c, 9, 42, 0
8, 5040, Note_on_c, 9, 42, 70
8, 5050, Note_on_c, 9, 42, 0
8, 5160, Note_on_c, 9, 42, 71
8, 5170, Note_on_c, 9, 42, 0
8, 5280, Note_on_c, 9, 42, 90
8, 5290, Note_on_c, 9, 42, 0
8, 5400, Note_on_c, 9, 42, 69
8, 5410, Note_on_c, 9, 42, 0
8, 5760, Note_on_c, 9, 42, 88
8, 5770, Note_on_c, 9, 42, 0
8, 5880, Note_on_c, 9, 42, 68
8, 5890, Note_on_c, 9, 42, 0
8, 6000, Note_on_c, 9, 42, 71
8, 6010, Note_on_c, 9, 42, 0
8, 6120, Note_on_c, 9, 42, 68
8, 6130, Note_on_c, 9, 42, 0
8, 6240, Note_on_c, 9, 42, 90
8, 6250, Note_on_c, 9, 42, 0
8, 6360, Note_on_c, 9, 42, 68
8, 6370, Note_on_c, 9, 42, 0
8, 6480, Note_on_c, 9, 42, 69
8, 6490, Note_on_c, 9, 42, 0
8, 6540, Note_on_c, 9, 42, 48
8, 6550, Note_on_c, 9, 42, 0
8, 6600, Note_on_c, 9, 42, 69
8, 6610, Note_on_c, 9, 42, 0
8, 6720, Note_on_c, 9, 42, 89
8, 6730, Note_on_c, 9, 42, 0
8, 6840, Note_on_c, 9, 42, 71
8, 6850, Note_on_c, 9, 42, 0
8, 6960, Note_on_c, 9, 42, 71
8, 6970, Note_on_c, 9, 42, 0
8, 7080, Note_on_c, 9, 42, 70
8, 7090, Note_on_c, 9, 42, 0
8, 7200, Note_on_c, 9, 42, 68
8, 7210, Note_on_c, 9, 42, 0
8, 7320, Note_on_c, 9, 42, 70
8, 7330, Note_on_c, 9, 42, 0
8, 7680, Note_on_c, 9, 42, 89
8, 7690, Note_on_c, 9, 42, 0
8, 7800, Note_on_c, 9, 42, 71
8, 7810, Note_on_c, 9, 42, 0
8, 7920, Note_on_c, 9, 42, 71
8, 7930, Note_on_c, 9, 42, 0
8, 8040, Note_on_c, 9, 42, 70
8, 8050, Note_on_c, 9, 42, 0
8, 8160, Note_on_c, 9, 42, 68
8, 8170, Note_on_c, 9, 42, 0
8, 8280, Note_on_c, 9, 42, 70
8, 8290, Note_on_c, 9, 42, 0
8, 8400, Note_on_c, 9, 42, 69
8, 8410, Note_on_c, 9, 42, 0
8, 8520, Note_on_c, 9, 42, 68
8, 8530, Note_on_c, 9, 42, 0
8, 8580, Note_on_c, 9, 42, 47
8, 8590, Note_on_c, 9, 42, 0
8, 8640, Note_on_c, 9, 42, 89
8, 8650, Note_on_c, 9, 42, 0
8, 8760, Note_on_c, 9, 42, 71
8, 8770, Note_on_c, 9, 42, 0
8, 8880, Note_on_c, 9, 42, 71
8, 8890, Note_on_c, 9, 42, 0
8, 9000, Note_on_c, 9, 42, 70
8, 9010, Note_on_c, 9, 42, 0
8, 9120, Note_on_c, 9, 42, 68
8, 9130, Note_on_c, 9, 42, 0
8, 9240, Note_on_c, 9, 42, 70
8, 9250, Note_on_c, 9, 42, 0
8, 9360, Note_on_c, 9, 42, 69
8, 9370, Note_on_c, 9, 42, 0
8, 9480, Note_on_c, 9, 42, 68
8, 9490, Note_on_c, 9, 42, 0
8, 9540, Note_on_c, 9, 42, 47
8, 9550, Note_on_c, 9, 42, 0
8, 9600, Note_on_c, 9, 42, 89
8, 9610, Note_on_c, 9, 42, 0
8, 9720, Note_on_c, 9, 42, 71
8, 9730, Note_on_c, 9, 42, 0
8, 9840, Note_on_c, 9, 42, 71
8, 9850, Note_on_c, 9, 42, 0
8, 9960, Note_on_c, 9, 42, 70
8, 9970, Note_on_c, 9, 42, 0
8, 10080, Note_on_c, 9, 42, 68
8, 10090, Note_on_c, 9, 42, 0
8, 10200, Note_on_c, 9, 42, 70
8, 10210, Note_on_c, 9, 42, 0
8, 10320, Note_on_c, 9, 42, 69
8, 10330, Note_on_c, 9, 42, 0
8, 11520, Note_on_c, 9, 42, 91
8, 11530, Note_on_c, 9, 42, 0
8, 11640, Note_on_c, 9, 42, 68
8, 11650, Note_on_c, 9, 42, 0
8, 11760, Note_on_c, 9, 42, 71
8, 11770, Note_on_c, 9, 42, 0
8, 11880, Note_on_c, 9, 42, 70
8, 11890, Note_on_c, 9, 42, 0
8, 12000, Note_on_c, 9, 42, 90
8, 12010, Note_on_c, 9, 42, 0
8, 12120, Note_on_c, 9, 42, 70
8, 12130, Note_on_c, 9, 42, 0
8, 12240, Note_on_c, 9, 42, 68
8, 12250, Note_on_c, 9, 42, 0
8, 12360, Note_on_c, 9, 42, 71
8, 12370, Note_on_c, 9, 42, 0
8, 12480, Note_on_c, 9, 42, 90
8, 12490, Note_on_c, 9, 42, 0
8, 12600, Note_on_c, 9, 42, 70
8, 12610, Note_on_c, 9, 42, 0
8, 12720, Note_on_c, 9, 42, 71
8, 12730, Note_on_c, 9, 42, 0
8, 12840, Note_on_c, 9, 42, 68
8, 12850, Note_on_c, 9, 42, 0
8, 12960, Note_on_c, 9, 42, 89
8, 12970, Note_on_c, 9, 42, 0
8, 13080, Note_on_c, 9, 42, 69
8, 13090, Note_on_c, 9, 42, 0
8, 13200, Note_on_c, 9, 42, 69
8, 13210, Note_on_c, 9, 42, 0
8, 13320, Note_on_c, 9, 42, 69
8, 13330, Note_on_c, 9, 42, 0
8, 13440, Note_on_c, 9, 42, 88
8, 13450, Note_on_c, 9, 42, 0
8, 13560, Note_on_c, 9, 42, 71
8, 13570, Note_on_c, 9, 42, 0
8, 13680, Note_on_c, 9, 42, 68
8, 13690, Note_on_c, 9, 42, 0
8, 13800, Note_on_c, 9, 42, 68
8, 13810, Note_on_c, 9, 42, 0
8, 13920, Note_on_c, 9, 42, 88
8, 13930, Note_on_c, 9, 42, 0
8, 14040, Note_on_c, 9, 42, 68
8, 14050, Note_on_c, 9, 42, 0
8, 14160, Note_on_c, 9, 42, 68
8, 14170, Note_on_c, 9, 42, 0
8, 14220, Note_on_c, 9, 42, 50
8, 14230, Note_on_c, 9, 42, 0
8, 14280, Note_on_c, 9, 42, 68
8, 14290, Note_on_c, 9, 42, 0
8, 14400, Note_on_c, 9, 42, 89
8, 14410, Note_on_c, 9, 42, 0
8, 14520, Note_on_c, 9, 42, 71
8, 14530, Note_on_c, 9, 42, 0
8, 14640, Note_on_c, 9, 42, 68
8, 14650, Note_on_c, 9, 42, 0
8, 14760, Note_on_c, 9, 42, 70
8, 14770, Note_on_c, 9, 42, 0
8, 14820, Note_on_c, 9, 42, 49
8, 14830, Note_on_c, 9, 42, 0
8, 14880, Note_on_c, 9, 42, 71
8, 14890, Note_on_c, 9, 42, 0
8, 15000, Note_on_c, 9, 42, 68
8, 15010, Note_on_c, 9, 42, 0
8, 15360, Note_on_c, 9, 42, 90
8, 15370, Note_on_c, 9, 42, 0
8, 15480, Note_on_c, 9, 42, 71
8, 15490, Note_on_c, 9, 42, 0
8, 15600, Note_on_c, 9, 42, 71
8, 15610, Note_on_c, 9, 42, 0
8, 15720, Note_on_c, 9, 42, 70
8, 15730, Note_on_c, 9, 42, 0
8, 15840, Note_on_c, 9, 42, 90
8, 15850, Note_on_c, 9, 42, 0
8, 15960, Note_on_c, 9, 42, 68
8, 15970, Note_on_c, 9, 42, 0
8, 16080, Note_on_c, 9, 42, 68
8, 16090, Note_on_c, 9, 42, 0
8, 16140, Note_on_c, 9, 42, 50
8, 16150, Note_on_c, 9, 42, 0
8, 16200, Note_on_c, 9, 42, 70
8, 16210, Note_on_c, 9, 42, 0
8, 16320, Note_on_c, 9, 42, 90
8, 16330, Note_on_c, 9, 42, 0
8, 16440, Note_on_c, 9, 42, 71
8, 16450, Note_on_c, 9, 42, 0
8, 16560, Note_on_c, 9, 42, 71
8, 16570, Note_on_c, 9, 42, 0
8, 16680, Note_on_c, 9, 42, 70
8, 16690, Note_on_c, 9, 42, 0
8, 16800, Note_on_c, 9, 42, 90
8, 16810, Note_on_c, 9, 42, 0
8, 16920, Note_on_c, 9, 42, 68
8, 16930, Note_on_c, 9, 42, 0
8, 17280, Note_on_c, 9, 42, 90
8, 17290, Note_on_c, 9, 42, 0
8, 17400, Note_on_c, 9, 42, 68
8, 17410, Note_on_c, 9, 42, 0
8, 17520, Note_on_c, 9, 42, 69
8, 17530, Note_on_c, 9, 42, 0
8, 17640, Note_on_c, 9, 42, 68
8, 17650, Note_on_c, 9, 42, 0
8, 17760, Note_on_c, 9, 42, 91
8, 17770, Note_on_c, 9, 42, 0
8, 17880, Note_on_c, 9, 42, 70
8, 17890, Note_on_c, 9, 42, 0
8, 18000, Note_on_c, 9, 42, 68
8, 18010, Note_on_c, 9, 42, 0
8, 18120, Note_on_c, 9, 42, 71
8, 18130, Note_on_c, 9, 42, 0
8, 18240, Note_on_c, 9, 42, 89
8, 18250, Note_on_c, 9, 42, 0
8, 18360, Note_on_c, 9, 42, 69
8, 18370, Note_on_c, 9, 42, 0
8, 18480, Note_on_c, 9, 42, 71
8, 18490, Note_on_c, 9, 42, 0
8, 18600, Note_on_c, 9, 42, 71
8, 18610, Note_on_c, 9, 42, 0
8, 18660, Note_on_c, 9, 42, 53
8, 18670, Note_on_c, 9, 42, 0
8, 18720, Note_on_c, 9, 42, 69
8, 18730, Note_on_c, 9, 42, 0
8, 18840, Note_on_c, 9, 42, 70
8, 18850, Note_on_c, 9, 42, 0
8, 18960, Note_on_c, 9, 42, 71
8, 18970, Note_on_c, 9, 42, 0
8, 19200, Note_on_c, 9, 42, 88
8, 19210, Note_on_c, 9, 42, 0
8, 19320, Note_on_c, 9, 42, 70
8, 19330, Note_on_c, 9, 42, 0
8, 19440, Note_on_c, 9, 42, 68
8, 19450, Note_on_c, 9, 42, 0
8, 19560, Note_on_c, 9, 42, 71
8, 19570, Note_on_c, 9, 42, 0
8, 19680, Note_on_c, 9, 42, 88
8, 19690, Note_on_c, 9, 42, 0
8, 19800, Note_on_c, 9, 42, 70
8, 19810, Note_on_c, 9, 42, 0
8, 19920, Note_on_c, 9, 42, 70
8, 19930, Note_on_c, 9, 42, 0
8, 21120, Note_on_c, 9, 42, 91
8, 21130, Note_on_c, 9, 42, 0
8, 21240, Note_on_c, 9, 42, 70
8, 21250, Note_on_c, 9, 42, 0
8, 21360, Note_on_c, 9, 42, 69
8, 21370, Note_on_c, 9, 42, 0
8, 21480, Note_on_c, 9, 42, 70
8, 21490, Note_on_c, 9, 42, 0
8, 21540, Note_on_c, 9, 42, 47
8, 21550, Note_on_c, 9, 42, 0
8, 21600, Note_on_c, 9, 42, 71
8, 21610, Note_on_c, 9, 42, 0
8, 21720, Note_on_c, 9, 42, 68
8, 21730, Note_on_c, 9, 42, 0
8, 21840, Note_on_c, 9, 42, 71
8, 21850, Note_on_c, 9, 42, 0
8, 21960, Note_on_c, 9, 42, 70
8, 21970, Note_on_c, 9, 42, 0
8, 22080, Note_on_c, 9, 42, 91
8, 22090, Note_on_c, 9, 42, 0
8, 22200, Note_on_c, 9, 42, 70
8, 22210, Note_on_c, 9, 42, 0
8, 22320, Note_on_c, 9, 42, 69
8, 22330, Note_on_c, 9, 42, 0
8, 22440, Note_on_c, 9, 42, 70
8, 22450, Note_on_c, 9, 42, 0
8, 22500, Note_on_c, 9, 42, 47
8, 22510, Note_on_c, 9, 42, 0
8, 22560, Note_on_c, 9, 42, 71
8, 22570, Note_on_c, 9, 42, 0
8, 22680, Note_on_c, 9, 42, 68
8, 22690, Note_on_c, 9, 42, 0
8, 23040, Note_on_c, 9, 42, 91
8, 23050, Note_on_c, 9, 42, 0
8, 23160, Note_on_c, 9, 42, 70
8, 23170, Note_on_c, 9, 42, 0
8, 23280, Note_on_c, 9, 42, 69
8, 23290, Note_on_c, 9, 42, 0
8, 23400, Note_on_c, 9, 42, 70
8, 23410, Note_on_c, 9, 42, 0
8, 23460, Note_on_c, 9, 42, 47
8, 23470, Note_on_c, 9, 42, 0
8, 23520, Note_on_c, 9, 42, 71
8, 23530, Note_on_c, 9, 42, 0
8, 23640, Note_on_c, 9, 42, 68
8, 23650, Note_on_c, 9, 42, 0
8, 23760, Note_on_c, 9, 42, 71
8, 23770, Note_on_c, 9, 42, 0
8, 23880, Note_on_c, 9, 42, 70
8, 23890, Note_on_c, 9, 42, 0
8, 24000, Note_on_c, 9, 42, 91
8, 24010, Note_on_c, 9, 42, 0
8, 24120, Note_on_c, 9, 42, 70
8, 24130, Note_on_c, 9, 42, 0
8, 24240, Note_on_c, 9, 42, 69
8, 24250, Note_on_c, 9, 42, 0
8, 24360, Note_on_c, 9, 42, 70
8, 24370, Note_on_c, 9, 42, 0
8, 24420, Note_on_c, 9, 42, 47
8, 24430, Note_on_c, 9, 42, 0
8, 24480, Note_on_c, 9, 42, 71
8, 24490, Note_on_c, 9, 42, 0
8, 24600, Note_on_c, 9, 42, 68
8, 24610, Note_on_c, 9, 42, 0
8, 24720, Note_on_c, 9, 42, 71
8, 24730, Note_on_c, 9, 42, 0
8, 24960, Note_on_c, 9, 42, 89
8, 24970, Note_on_c, 9, 42, 0
8, 25080, Note_on_c, 9, 42, 71
8, 25090, Note_on_c, 9, 42, 0
8, 25200, Note_on_c, 9, 42, 71
8, 25210, Note_on_c, 9, 42, 0
8, 25320, Note_on_c, 9, 42, 70
8, 25330, Note_on_c, 9, 42, 0
8, 25440, Note_on_c, 9, 42, 89
8, 25450, Note_on_c, 9, 42, 0
8, 25500, Note_on_c, 9, 42, 47
8, 25510, Note_on_c, 9, 42, 0
8, 25560, Note_on_c, 9, 42, 69
8, 25570, Note_on_c, 9, 42, 0
8, 25680, Note_on_c, 9, 42, 71
8, 25690, Note_on_c, 9, 42, 0
8, 25800, Note_on_c, 9, 42, 69
8, 25810, Note_on_c, 9, 42, 0
8, 25920, Note_on_c, 9, 42, 89
8, 25930, Note_on_c, 9, 42, 0
8, 26040, Note_on_c, 9, 42, 71
8, 26050, Note_on_c, 9, 42, 0
8, 26160, Note_on_c, 9, 42, 71
8, 26170, Note_on_c, 9, 42, 0
8, 26280, Note_on_c, 9, 42, 70
8, 26290, Note_on_c, 9, 42, 0
8, 26400, Note_on_c, 9, 42, 89
8, 26410, Note_on_c, 9, 42, 0
8, 26460, Note_on_c, 9, 42, 47
8, 26470, Note_on_c, 9, 42, 0
8, 26520, Note_on_c, 9, 42, 69
8, 26530, Note_on_c, 9, 42, 0
8, 26640, Note_on_c, 9, 42, 71
8, 26650, Note_on_c, 9, 42, 0
8, 26880, Note_on_c, 9, 42, 91
8, 26890, Note_on_c, 9, 42, 0
8, 27000, Note_on_c, 9, 42, 70
8, 27010, Note_on_c, 9, 42, 0
8, 27120, Note_on_c, 9, 42, 69
8, 27130, Note_on_c, 9, 42, 0
8, 27240, Note_on_c, 9, 42, 71
8, 27250, Note_on_c, 9, 42, 0
8, 27360, Note_on_c, 9, 42, 68
8, 27370, Note_on_c, 9, 42, 0
8, 27480, Note_on_c, 9, 42, 68
8, 27490, Note_on_c, 9, 42, 0
8, 27600, Note_on_c, 9, 42, 68
8, 27610, Note_on_c, 9, 42, 0
8, 27720, Note_on_c, 9, 42, 70
8, 27730, Note_on_c, 9, 42, 0
8, 27780, Note_on_c, 9, 42, 53
8, 27790, Note_on_c, 9, 42, 0
8, 27840, Note_on_c, 9, 42, 89
8, 27850, Note_on_c, 9, 42, 0
8, 27960, Note_on_c, 9, 42, 69
8, 27970, Note_on_c, 9, 42, 0
8, 28080, Note_on_c, 9, 42, 68
8, 28090, Note_on_c, 9, 42, 0
8, 28200, Note_on_c, 9, 42, 69
8, 28210, Note_on_c, 9, 42, 0
8, 28320, Note_on_c, 9, 42, 91
8, 28330, Note_on_c, 9, 42, 0
8, 28440, Note_on_c, 9, 42, 71
8, 28450, Note_on_c, 9, 42, 0
8, 28560, Note_on_c, 9, 42, 68
8, 28570, Note_on_c, 9, 42, 0
8, 28680, Note_on_c, 9, 42, 68
8, 28690, Note_on_c, 9, 42, 0
8, 28800, Note_on_c, 9, 42, 89
8, 28810, Note_on_c, 9, 42, 0
8, 28920, Note_on_c, 9, 42, 69
8, 28930, Note_on_c, 9, 42, 0
8, 29040, Note_on_c, 9, 42, 68
8, 29050, Note_on_c, 9, 42, 0
8, 29160, Note_on_c, 9, 42, 69
8, 29170, Note_on_c, 9, 42, 0
8, 29280, Note_on_c, 9, 42, 91
8, 29290, Note_on_c, 9, 42, 0
8, 29400, Note_on_c, 9, 42, 71
8, 29410, Note_on_c, 9, 42, 0
8, 30720, Note_on_c, 9, 42, 91
8, 30730, Note_on_c, 9, 42, 0
8, 30780, Note_on_c, 9, 42, 47
8, 30790, Note_on_c, 9, 42, 0
8, 30840, Note_on_c, 9, 42, 69
8, 30850, Note_on_c, 9, 42, 0
8, 30960, Note_on_c, 9, 42, 70
8, 30970, Note_on_c, 9, 42, 0
8, 31080, Note_on_c, 9, 42, 69
8, 31090, Note_on_c, 9, 42, 0
8, 31200, Note_on_c, 9, 42, 90
8, 31210, Note_on_c, 9, 42, 0
8, 31320, Note_on_c, 9, 42, 68
8, 31330, Note_on_c, 9, 42, 0
8, 31440, Note_on_c, 9, 42, 69
8, 31450, Note_on_c, 9, 42, 0
8, 31560, Note_on_c, 9, 42, 71
8, 31570, Note_on_c, 9, 42, 0
8, 31680, Note_on_c, 9, 42, 91
8, 31690, Note_on_c, 9, 42, 0
8, 31740, Note_on_c, 9, 42, 47
8, 31750, Note_on_c, 9, 42, 0
8, 31800, Note_on_c, 9, 42, 69
8, 31810, Note_on_c, 9, 42, 0
8, 31920, Note_on_c, 9, 42, 70
8, 31930, Note_on_c, 9, 42, 0
8, 32040, Note_on_c, 9, 42, 69
8, 32050, Note_on_c, 9, 42, 0
8, 32160, Note_on_c, 9, 42, 90
8, 32170, Note_on_c, 9, 42, 0
8, 32280, Note_on_c, 9, 42, 68
8, 32290, Note_on_c, 9, 42, 0
8, 32400, Note_on_c, 9, 42, 69
8, 32410, Note_on_c, 9, 42, 0
8, 32520, Note_on_c, 9, 42, 71
8, 32530, Note_on_c, 9, 42, 0
8, 32640, Note_on_c, 9, 42, 91
8, 32650, Note_on_c, 9, 42, 0
8, 32700, Note_on_c, 9, 42, 47
8, 32710, Note_on_c, 9, 42, 0
8, 32760, Note_on_c, 9, 42, 69
8, 32770, Note_on_c, 9, 42, 0
8, 32880, Note_on_c, 9, 42, 70
8, 32890, Note_on_c, 9, 42, 0
8, 33000, Note_on_c, 9, 42, 69
8, 33010, Note_on_c, 9, 42, 0
8, 33120, Note_on_c, 9, 42, 90
8, 33130, Note_on_c, 9, 42, 0
8, 33240, Note_on_c, 9, 42, 68
8, 33250, Note_on_c, 9, 42, 0
8, 33360, Note_on_c, 9, 42, 69
8, 33370, Note_on_c, 9, 42, 0
8, 34560, Note_on_c, 9, 42, 88
8, 34570, Note_on_c, 9, 42, 0
8, 34680, Note_on_c, 9, 42, 71
8, 34690, Note_on_c, 9, 42, 0
8, 34800, Note_on_c, 9, 42, 71
8, 34810, Note_on_c, 9, 42, 0
8, 34920, Note_on_c, 9, 42, 69
8, 34930, Note_on_c, 9, 42, 0
8, 35040, Note_on_c, 9, 42, 90
8, 35050, Note_on_c, 9, 42, 0
8, 35160, Note_on_c, 9, 42, 71
8, 35170, Note_on_c, 9, 42, 0
8, 35520, Note_on_c, 9, 42, 89
8, 35530, Note_on_c, 9, 42, 0
8, 35640, Note_on_c, 9, 42, 71
8, 35650, Note_on_c, 9, 42, 0
8, 35760, Note_on_c, 9, 42, 70
8, 35770, Note_on_c, 9, 42, 0
8, 35880, Note_on_c, 9, 42, 71
8, 35890, Note_on_c, 9, 42, 0
8, 36000, Note_on_c, 9, 42, 91
8, 36010, Note_on_c, 9, 42, 0
8, 36120, Note_on_c, 9, 42, 69
8, 36130, Note_on_c, 9, 42, 0
8, 36240, Note_on_c, 9, 42, 68
8, 36250, Note_on_c, 9, 42, 0
8, 36360, Note_on_c, 9, 42, 71
8, 36370, Note_on_c, 9, 42, 0
8, 36480, Note_on_c, 9, 42, 90
8, 36490, Note_on_c, 9, 42, 0
8, 36600, Note_on_c, 9, 42, 70
8, 36610, Note_on_c, 9, 42, 0
8, 36720, Note_on_c, 9, 42, 70
8, 36730, Note_on_c, 9, 42, 0
8, 36840, Note_on_c, 9, 42, 69
8, 36850, Note_on_c, 9, 42, 0
8, 36960, Note_on_c, 9, 42, 89
8, 36970, Note_on_c, 9, 42, 0
8, 37080, Note_on_c, 9, 42, 70
8, 37090, Note_on_c, 9, 42, 0
8, 38400, Note_on_c, 9, 42, 90
8, 38410, Note_on_c, 9, 42, 0
8, 38520, Note_on_c, 9, 42, 68
8, 38530, Note_on_c, 9, 42, 0
8, 38640, Note_on_c, 9, 42, 69
8, 38650, Note_on_c, 9, 42, 0
8, 38700, Note_on_c, 9, 42, 52
8, 38710, Note_on_c, 9, 42, 0
8, 38760, Note_on_c, 9, 42, 71
8, 38770, Note_on_c, 9, 42, 0
8, 38880, Note_on_c, 9, 42, 88
8, 38890, Note_on_c, 9, 42, 0
8, 39000, Note_on_c, 9, 42, 68
8, 39010, Note_on_c, 9, 42, 0
8, 39120, Note_on_c, 9, 42, 70
8, 39130, Note_on_c, 9, 42, 0
8, 39360, Note_on_c, 9, 42, 90
8, 39370, Note_on_c, 9, 42, 0
8, 39480, Note_on_c, 9, 42, 68
8, 39490, Note_on_c, 9, 42, 0
8, 39600, Note_on_c, 9, 42, 69
8, 39610, Note_on_c, 9, 42, 0
8, 39660, Note_on_c, 9, 42, 52
8, 39670, Note_on_c, 9, 42, 0
8, 39720, Note_on_c, 9, 42, 71
8, 39730, Note_on_c, 9, 42, 0
8, 39840, Note_on_c, 9, 42, 88
8, 39850, Note_on_c, 9, 42, 0
8, 39960, Note_on_c, 9, 42, 68
8, 39970, Note_on_c, 9, 42, 0
8, 40080, Note_on_c, 9, 42, 70
8, 40090, Note_on_c, 9, 42, 0
8, 40320, Note_on_c, 9, 42, 89
8, 40330, Note_on_c, 9, 42, 0
8, 40440, Note_on_c, 9, 42, 71
8, 40450, Note_on_c, 9, 42, 0
8, 40560, Note_on_c, 9, 42, 69
8, 40570, Note_on_c, 9, 42, 0
8, 40680, Note_on_c, 9, 42, 69
8, 40690, Note_on_c, 9, 42, 0
8, 40800, Note_on_c, 9, 42, 89
8, 40810, Note_on_c, 9, 42, 0
8, 40920, Note_on_c, 9, 42, 69
8, 40930, Note_on_c, 9, 42, 0
8, 41040, Note_on_c, 9, 42, 71
8, 41050, Note_on_c, 9, 42, 0
8, 41100, Note_on_c, 9, 42, 51
8, 41110, Note_on_c, 9, 42, 0
8, 41280, Note_on_c, 9, 42, 89
8, 41290, Note_on_c, 9, 42, 0
8, 41400, Note_on_c, 9, 42, 69
8, 41410, Note_on_c, 9, 42, 0
8, 41520, Note_on_c, 9, 42, 70
8, 41530, Note_on_c, 9, 42, 0
8, 41580, Note_on_c, 9, 42, 51
8, 41590, Note_on_c, 9, 42, 0
8, 41640, Note_on_c, 9, 42, 69
8, 41650, Note_on_c, 9, 42, 0
8, 41650, End_track
9, 0, Start_track
9, 0, MIDI_port, 0
9, 0, Title_t, "Rod Stewart"
9, 1470, Note_on_c, 9, 47, 70
9, 1480, Note_on_c, 9, 47, 0
9, 1530, Note_on_c, 9, 47, 73
9, 1540, Note_on_c, 9, 47, 0
9, 3780, Note_on_c, 9, 47, 111
9, 3790, Note_on_c, 9, 47, 0
9, 3810, Note_on_c, 9, 47, 90
9, 3820, Note_on_c, 9, 47, 0
9, 5650, Note_on_c, 9, 47, 90
9, 5660, Note_on_c, 9, 47, 0
9, 15240, Note_on_c, 9, 47, 110
9, 15250, Note_on_c, 9, 47, 0
9, 22830, Note_on_c, 9, 47, 90
9, 22840, Note_on_c, 9, 47, 0
9, 33540, Note_on_c, 9, 47, 109
9, 33550, Note_on_c, 9, 47, 0
9, 35310, Note_on_c, 9, 47, 73
9, 35320, Note_on_c, 9, 47, 0
9, 35340, Note_on_c, 9, 47, 91
9, 35350, Note_on_c, 9, 47, 0
9, 35370, Note_on_c, 9, 47, 108
9, 35380, Note_on_c, 9, 47, 0
9, 35400, Note_on_c, 9, 47, 72
9, 35410, Note_on_c, 9, 47, 0
9, 35430, Note_on_c, 9, 47, 70
9, 35440, Note_on_c, 9, 47, 0
9, 35460, Note_on_c, 9, 47, 89
9, 35470, Note_on_c, 9, 47, 0
9, 35490, Note_on_c, 9, 47, 69
9, 35500, Note_on_c, 9, 47, 0
9, 40210, Note_on_c, 9, 47, 91
9, 40220, Note_on_c, 9, 47, 0
9, 40220, End_track
10, 0, Start_track
10, 0, MIDI_port, 0
10, 0, Title_t, "Arranged by"
10, 1560, Note_on_c, 9, 45, 109
10, 1570, Note_on_c, 9, 45, 0
10, 1590, Note_on_c, 9, 45, 68
10, 1600, Note_on_c, 9, 45, 0
10, 1650, Note_on_c, 9, 45, 70
10, 1660, Note_on_c, 9, 45, 0
10, 15270, Note_on_c, 9, 45, 88
10, 15280, Note_on_c, 9, 45, 0
10, 15300, Note_on_c, 9, 45, 89
10, 15310, Note_on_c, 9, 45, 0
10, 22860, Note_on_c, 9, 45, 88
10, 22870, Note_on_c, 9, 45, 0
10, 22870, End_track
11, 0, Start_track
11, 0, MIDI_port, 0
11, 0, Title_t, "Steve Day"
11, 22920, Note_on_c, 9, 41, 109
11, 22930, Note_on_c, 9, 41, 0
11, 22950, Note_on_c, 9, 41, 90
11, 22960, Note_on_c, 9, 41, 0
11, 22980, Note_on_c, 9, 41, 89
11, 22990, Note_on_c, 9, 41, 0
11, 22990, End_track
12, 0, Start_track
12, 0, MIDI_port, 0
12, 0, Title_t, "sad001@ccnet.com"
12, 1917, Note_on_c, 9, 57, 88
12, 1920, Note_on_c, 9, 57, 0
12, 3837, Note_on_c, 9, 57, 91
12, 3840, Note_on_c, 9, 57, 0
12, 5757, Note_on_c, 9, 57, 91
12, 5760, Note_on_c, 9, 57, 0
12, 7677, Note_on_c, 9, 57, 88
12, 7680, Note_on_c, 9, 57, 0
12, 10557, Note_on_c, 9, 57, 90
12, 10560, Note_on_c, 9, 57, 0
12, 13437, Note_on_c, 9, 57, 91
12, 13440, Note_on_c, 9, 57, 0
12, 15357, Note_on_c, 9, 57, 90
12, 15360, Note_on_c, 9, 57, 0
12, 17277, Note_on_c, 9, 57, 89
12, 17280, Note_on_c, 9, 57, 0
12, 19197, Note_on_c, 9, 57, 91
12, 19200, Note_on_c, 9, 57, 0
12, 20157, Note_on_c, 9, 57, 89
12, 20160, Note_on_c, 9, 57, 0
12, 23037, Note_on_c, 9, 57, 91
12, 23040, Note_on_c, 9, 57, 0
12, 24957, Note_on_c, 9, 57, 91
12, 24960, Note_on_c, 9, 57, 0
12, 26877, Note_on_c, 9, 57, 91
12, 26880, Note_on_c, 9, 57, 0
12, 29757, Note_on_c, 9, 57, 88
12, 29760, Note_on_c, 9, 57, 0
12, 33597, Note_on_c, 9, 57, 88
12, 33600, Note_on_c, 9, 57, 0
12, 35517, Note_on_c, 9, 57, 88
12, 35520, Note_on_c, 9, 57, 0
12, 37437, Note_on_c, 9, 57, 88
12, 37440, Note_on_c, 9, 57, 0
12, 39357, Note_on_c, 9, 57, 89
12, 39360, Note_on_c, 9, 57, 0
12, 40317, Note_on_c, 9, 57, 90
12, 40320, Note_on_c, 9, 57, 0
12, 41277, Note_on_c, 9, 57, 88
12, 41280, Note_on_c, 9, 57, 0
12, 41280, End_track
13, 0, Start_track
13, 0, MIDI_port, 0
13, 0, Title_t, "AWE32 GM/GS"
13, 120, Note_on_c, 9, 59, 46
13, 130, Note_on_c, 9, 59, 0
13, 150, Note_on_c, 9, 59, 24
13, 160, Note_on_c, 9, 59, 0
13, 180, Note_on_c, 9, 59, 63
13, 190, Note_on_c, 9, 59, 0
13, 240, Note_on_c, 9, 59, 46
13, 250, Note_on_c, 9, 59, 0
13, 300, Note_on_c, 9, 59, 45
13, 310, Note_on_c, 9, 59, 0
13, 360, Note_on_c, 9, 59, 46
13, 370, Note_on_c, 9, 59, 0
13, 420, Note_on_c, 9, 59, 22
13, 430, Note_on_c, 9, 59, 0
13, 480, Note_on_c, 9, 59, 63
13, 490, Note_on_c, 9, 59, 0
13, 540, Note_on_c, 9, 59, 45
13, 550, Note_on_c, 9, 59, 0
13, 600, Note_on_c, 9, 59, 27
13, 610, Note_on_c, 9, 59, 0
13, 660, Note_on_c, 9, 59, 65
13, 670, Note_on_c, 9, 59, 0
13, 720, Note_on_c, 9, 59, 44
13, 730, Note_on_c, 9, 59, 0
13, 780, Note_on_c, 9, 59, 46
13, 790, Note_on_c, 9, 59, 0
13, 840, Note_on_c, 9, 59, 43
13, 850, Note_on_c, 9, 59, 0
13, 870, Note_on_c, 9, 59, 46
13, 880, Note_on_c, 9, 59, 0
13, 900, Note_on_c, 9, 59, 43
13, 910, Note_on_c, 9, 59, 0
13, 960, Note_on_c, 9, 59, 63
13, 970, Note_on_c, 9, 59, 0
13, 1020, Note_on_c, 9, 59, 46
13, 1030, Note_on_c, 9, 59, 0
13, 1080, Note_on_c, 9, 59, 46
13, 1090, Note_on_c, 9, 59, 0
13, 1110, Note_on_c, 9, 59, 24
13, 1120, Note_on_c, 9, 59, 0
13, 1140, Note_on_c, 9, 59, 63
13, 1150, Note_on_c, 9, 59, 0
13, 1200, Note_on_c, 9, 59, 46
13, 1210, Note_on_c, 9, 59, 0
13, 1260, Note_on_c, 9, 59, 45
13, 1270, Note_on_c, 9, 59, 0
13, 1320, Note_on_c, 9, 59, 46
13, 1330, Note_on_c, 9, 59, 0
13, 1380, Note_on_c, 9, 59, 22
13, 1390, Note_on_c, 9, 59, 0
13, 1920, Note_on_c, 9, 59, 63
13, 1930, Note_on_c, 9, 59, 0
13, 1980, Note_on_c, 9, 59, 46
13, 1990, Note_on_c, 9, 59, 0
13, 2040, Note_on_c, 9, 59, 44
13, 2050, Note_on_c, 9, 59, 0
13, 2100, Note_on_c, 9, 59, 24
13, 2110, Note_on_c, 9, 59, 0
13, 2160, Note_on_c, 9, 59, 43
13, 2170, Note_on_c, 9, 59, 0
13, 2220, Note_on_c, 9, 59, 46
13, 2230, Note_on_c, 9, 59, 0
13, 2250, Note_on_c, 9, 59, 26
13, 2260, Note_on_c, 9, 59, 0
13, 2280, Note_on_c, 9, 59, 43
13, 2290, Note_on_c, 9, 59, 0
13, 2340, Note_on_c, 9, 59, 44
13, 2350, Note_on_c, 9, 59, 0
13, 2400, Note_on_c, 9, 59, 63
13, 2410, Note_on_c, 9, 59, 0
13, 2460, Note_on_c, 9, 59, 45
13, 2470, Note_on_c, 9, 59, 0
13, 2520, Note_on_c, 9, 59, 25
13, 2530, Note_on_c, 9, 59, 0
13, 2580, Note_on_c, 9, 59, 66
13, 2590, Note_on_c, 9, 59, 0
13, 2640, Note_on_c, 9, 59, 44
13, 2650, Note_on_c, 9, 59, 0
13, 2700, Note_on_c, 9, 59, 44
13, 2710, Note_on_c, 9, 59, 0
13, 2760, Note_on_c, 9, 59, 46
13, 2770, Note_on_c, 9, 59, 0
13, 2820, Note_on_c, 9, 59, 45
13, 2830, Note_on_c, 9, 59, 0
13, 2850, Note_on_c, 9, 59, 28
13, 2860, Note_on_c, 9, 59, 0
13, 2880, Note_on_c, 9, 59, 66
13, 2890, Note_on_c, 9, 59, 0
13, 2940, Note_on_c, 9, 59, 45
13, 2950, Note_on_c, 9, 59, 0
13, 3000, Note_on_c, 9, 59, 22
13, 3010, Note_on_c, 9, 59, 0
13, 3060, Note_on_c, 9, 59, 64
13, 3070, Note_on_c, 9, 59, 0
13, 3120, Note_on_c, 9, 59, 46
13, 3130, Note_on_c, 9, 59, 0
13, 3180, Note_on_c, 9, 59, 44
13, 3190, Note_on_c, 9, 59, 0
13, 3240, Note_on_c, 9, 59, 46
13, 3250, Note_on_c, 9, 59, 0
13, 3300, Note_on_c, 9, 59, 46
13, 3310, Note_on_c, 9, 59, 0
13, 3330, Note_on_c, 9, 59, 26
13, 3340, Note_on_c, 9, 59, 0
13, 3360, Note_on_c, 9, 59, 65
13, 3370, Note_on_c, 9, 59, 0
13, 3420, Note_on_c, 9, 59, 43
13, 3430, Note_on_c, 9, 59, 0
13, 3480, Note_on_c, 9, 59, 25
13, 3490, Note_on_c, 9, 59, 0
13, 3540, Note_on_c, 9, 59, 65
13, 3550, Note_on_c, 9, 59, 0
13, 3600, Note_on_c, 9, 59, 46
13, 3610, Note_on_c, 9, 59, 0
13, 3840, Note_on_c, 9, 59, 64
13, 3850, Note_on_c, 9, 59, 0
13, 3900, Note_on_c, 9, 59, 45
13, 3910, Note_on_c, 9, 59, 0
13, 3960, Note_on_c, 9, 59, 43
13, 3970, Note_on_c, 9, 59, 0
13, 4020, Note_on_c, 9, 59, 44
13, 4030, Note_on_c, 9, 59, 0
13, 4080, Note_on_c, 9, 59, 43
13, 4090, Note_on_c, 9, 59, 0
13, 4140, Note_on_c, 9, 59, 43
13, 4150, Note_on_c, 9, 59, 0
13, 4200, Note_on_c, 9, 59, 44
13, 4210, Note_on_c, 9, 59, 0
13, 4260, Note_on_c, 9, 59, 26
13, 4270, Note_on_c, 9, 59, 0
13, 4320, Note_on_c, 9, 59, 65
13, 4330, Note_on_c, 9, 59, 0
13, 4380, Note_on_c, 9, 59, 45
13, 4390, Note_on_c, 9, 59, 0
13, 4440, Note_on_c, 9, 59, 45
13, 4450, Note_on_c, 9, 59, 0
13, 4500, Note_on_c, 9, 59, 46
13, 4510, Note_on_c, 9, 59, 0
13, 4560, Note_on_c, 9, 59, 46
13, 4570, Note_on_c, 9, 59, 0
13, 4620, Note_on_c, 9, 59, 44
13, 4630, Note_on_c, 9, 59, 0
13, 4680, Note_on_c, 9, 59, 44
13, 4690, Note_on_c, 9, 59, 0
13, 4710, Note_on_c, 9, 59, 45
13, 4720, Note_on_c, 9, 59, 0
13, 4740, Note_on_c, 9, 59, 46
13, 4750, Note_on_c, 9, 59, 0
13, 4800, Note_on_c, 9, 59, 64
13, 4810, Note_on_c, 9, 59, 0
13, 4860, Note_on_c, 9, 59, 45
13, 4870, Note_on_c, 9, 59, 0
13, 4920, Note_on_c, 9, 59, 43
13, 4930, Note_on_c, 9, 59, 0
13, 4980, Note_on_c, 9, 59, 44
13, 4990, Note_on_c, 9, 59, 0
13, 5040, Note_on_c, 9, 59, 43
13, 5050, Note_on_c, 9, 59, 0
13, 5100, Note_on_c, 9, 59, 43
13, 5110, Note_on_c, 9, 59, 0
13, 5160, Note_on_c, 9, 59, 44
13, 5170, Note_on_c, 9, 59, 0
13, 5220, Note_on_c, 9, 59, 26
13, 5230, Note_on_c, 9, 59, 0
13, 5280, Note_on_c, 9, 59, 65
13, 5290, Note_on_c, 9, 59, 0
13, 5340, Note_on_c, 9, 59, 45
13, 5350, Note_on_c, 9, 59, 0
13, 5400, Note_on_c, 9, 59, 45
13, 5410, Note_on_c, 9, 59, 0
13, 5460, Note_on_c, 9, 59, 46
13, 5470, Note_on_c, 9, 59, 0
13, 5760, Note_on_c, 9, 59, 66
13, 5770, Note_on_c, 9, 59, 0
13, 5820, Note_on_c, 9, 59, 45
13, 5830, Note_on_c, 9, 59, 0
13, 5880, Note_on_c, 9, 59, 45
13, 5890, Note_on_c, 9, 59, 0
13, 5940, Note_on_c, 9, 59, 44
13, 5950, Note_on_c, 9, 59, 0
13, 6000, Note_on_c, 9, 59, 46
13, 6010, Note_on_c, 9, 59, 0
13, 6060, Note_on_c, 9, 59, 43
13, 6070, Note_on_c, 9, 59, 0
13, 6120, Note_on_c, 9, 59, 43
13, 6130, Note_on_c, 9, 59, 0
13, 6180, Note_on_c, 9, 59, 24
13, 6190, Note_on_c, 9, 59, 0
13, 6240, Note_on_c, 9, 59, 66
13, 6250, Note_on_c, 9, 59, 0
13, 6300, Note_on_c, 9, 59, 46
13, 6310, Note_on_c, 9, 59, 0
13, 6360, Note_on_c, 9, 59, 43
13, 6370, Note_on_c, 9, 59, 0
13, 6420, Note_on_c, 9, 59, 23
13, 6430, Note_on_c, 9, 59, 0
13, 6480, Note_on_c, 9, 59, 63
13, 6490, Note_on_c, 9, 59, 0
13, 6540, Note_on_c, 9, 59, 44
13, 6550, Note_on_c, 9, 59, 0
13, 6600, Note_on_c, 9, 59, 43
13, 6610, Note_on_c, 9, 59, 0
13, 6660, Note_on_c, 9, 59, 27
13, 6670, Note_on_c, 9, 59, 0
13, 6720, Note_on_c, 9, 59, 66
13, 6730, Note_on_c, 9, 59, 0
13, 6780, Note_on_c, 9, 59, 45
13, 6790, Note_on_c, 9, 59, 0
13, 6840, Note_on_c, 9, 59, 45
13, 6850, Note_on_c, 9, 59, 0
13, 6900, Note_on_c, 9, 59, 44
13, 6910, Note_on_c, 9, 59, 0
13, 6960, Note_on_c, 9, 59, 46
13, 6970, Note_on_c, 9, 59, 0
13, 7020, Note_on_c, 9, 59, 43
13, 7030, Note_on_c, 9, 59, 0
13, 7080, Note_on_c, 9, 59, 43
13, 7090, Note_on_c, 9, 59, 0
13, 7140, Note_on_c, 9, 59, 24
13, 7150, Note_on_c, 9, 59, 0
13, 7200, Note_on_c, 9, 59, 66
13, 7210, Note_on_c, 9, 59, 0
13, 7260, Note_on_c, 9, 59, 46
13, 7270, Note_on_c, 9, 59, 0
13, 7320, Note_on_c, 9, 59, 43
13, 7330, Note_on_c, 9, 59, 0
13, 7380, Note_on_c, 9, 59, 23
13, 7390, Note_on_c, 9, 59, 0
13, 7680, Note_on_c, 9, 59, 63
13, 7690, Note_on_c, 9, 59, 0
13, 7740, Note_on_c, 9, 59, 44
13, 7750, Note_on_c, 9, 59, 0
13, 7800, Note_on_c, 9, 59, 43
13, 7810, Note_on_c, 9, 59, 0
13, 7830, Note_on_c, 9, 59, 26
13, 7840, Note_on_c, 9, 59, 0
13, 7860, Note_on_c, 9, 59, 63
13, 7870, Note_on_c, 9, 59, 0
13, 7920, Note_on_c, 9, 59, 44
13, 7930, Note_on_c, 9, 59, 0
13, 7980, Note_on_c, 9, 59, 46
13, 7990, Note_on_c, 9, 59, 0
13, 8040, Note_on_c, 9, 59, 43
13, 8050, Note_on_c, 9, 59, 0
13, 8100, Note_on_c, 9, 59, 25
13, 8110, Note_on_c, 9, 59, 0
13, 8160, Note_on_c, 9, 59, 64
13, 8170, Note_on_c, 9, 59, 0
13, 8220, Note_on_c, 9, 59, 44
13, 8230, Note_on_c, 9, 59, 0
13, 8280, Note_on_c, 9, 59, 27
13, 8290, Note_on_c, 9, 59, 0
13, 8340, Note_on_c, 9, 59, 63
13, 8350, Note_on_c, 9, 59, 0
13, 8400, Note_on_c, 9, 59, 46
13, 8410, Note_on_c, 9, 59, 0
13, 8460, Note_on_c, 9, 59, 43
13, 8470, Note_on_c, 9, 59, 0
13, 8520, Note_on_c, 9, 59, 43
13, 8530, Note_on_c, 9, 59, 0
13, 8580, Note_on_c, 9, 59, 24
13, 8590, Note_on_c, 9, 59, 0
13, 8640, Note_on_c, 9, 59, 63
13, 8650, Note_on_c, 9, 59, 0
13, 8700, Note_on_c, 9, 59, 44
13, 8710, Note_on_c, 9, 59, 0
13, 8760, Note_on_c, 9, 59, 43
13, 8770, Note_on_c, 9, 59, 0
13, 8790, Note_on_c, 9, 59, 26
13, 8800, Note_on_c, 9, 59, 0
13, 8820, Note_on_c, 9, 59, 63
13, 8830, Note_on_c, 9, 59, 0
13, 8880, Note_on_c, 9, 59, 44
13, 8890, Note_on_c, 9, 59, 0
13, 8940, Note_on_c, 9, 59, 46
13, 8950, Note_on_c, 9, 59, 0
13, 9000, Note_on_c, 9, 59, 43
13, 9010, Note_on_c, 9, 59, 0
13, 9060, Note_on_c, 9, 59, 25
13, 9070, Note_on_c, 9, 59, 0
13, 9120, Note_on_c, 9, 59, 64
13, 9130, Note_on_c, 9, 59, 0
13, 9180, Note_on_c, 9, 59, 44
13, 9190, Note_on_c, 9, 59, 0
13, 9240, Note_on_c, 9, 59, 27
13, 9250, Note_on_c, 9, 59, 0
13, 9300, Note_on_c, 9, 59, 63
13, 9310, Note_on_c, 9, 59, 0
13, 9360, Note_on_c, 9, 59, 46
13, 9370, Note_on_c, 9, 59, 0
13, 9420, Note_on_c, 9, 59, 43
13, 9430, Note_on_c, 9, 59, 0
13, 9480, Note_on_c, 9, 59, 43
13, 9490, Note_on_c, 9, 59, 0
13, 9540, Note_on_c, 9, 59, 24
13, 9550, Note_on_c, 9, 59, 0
13, 9600, Note_on_c, 9, 59, 65
13, 9610, Note_on_c, 9, 59, 0
13, 9660, Note_on_c, 9, 59, 44
13, 9670, Note_on_c, 9, 59, 0
13, 9720, Note_on_c, 9, 59, 28
13, 9730, Note_on_c, 9, 59, 0
13, 9780, Note_on_c, 9, 59, 65
13, 9790, Note_on_c, 9, 59, 0
13, 9840, Note_on_c, 9, 59, 44
13, 9850, Note_on_c, 9, 59, 0
13, 9900, Note_on_c, 9, 59, 46
13, 9910, Note_on_c, 9, 59, 0
13, 9960, Note_on_c, 9, 59, 45
13, 9970, Note_on_c, 9, 59, 0
13, 10020, Note_on_c, 9, 59, 45
13, 10030, Note_on_c, 9, 59, 0
13, 10050, Note_on_c, 9, 59, 22
13, 10060, Note_on_c, 9, 59, 0
13, 10080, Note_on_c, 9, 59, 64
13, 10090, Note_on_c, 9, 59, 0
13, 10110, Note_on_c, 9, 59, 22
13, 10120, Note_on_c, 9, 59, 0
13, 10140, Note_on_c, 9, 59, 43
13, 10150, Note_on_c, 9, 59, 0
13, 10200, Note_on_c, 9, 59, 44
13, 10210, Note_on_c, 9, 59, 0
13, 10260, Note_on_c, 9, 59, 22
13, 10270, Note_on_c, 9, 59, 0
13, 10320, Note_on_c, 9, 59, 63
13, 10330, Note_on_c, 9, 59, 0
13, 11520, Note_on_c, 9, 59, 65
13, 11530, Note_on_c, 9, 59, 0
13, 11580, Note_on_c, 9, 59, 45
13, 11590, Note_on_c, 9, 59, 0
13, 11640, Note_on_c, 9, 59, 45
13, 11650, Note_on_c, 9, 59, 0
13, 11700, Note_on_c, 9, 59, 24
13, 11710, Note_on_c, 9, 59, 0
13, 11760, Note_on_c, 9, 59, 65
13, 11770, Note_on_c, 9, 59, 0
13, 11820, Note_on_c, 9, 59, 45
13, 11830, Note_on_c, 9, 59, 0
13, 11880, Note_on_c, 9, 59, 43
13, 11890, Note_on_c, 9, 59, 0
13, 11910, Note_on_c, 9, 59, 44
13, 11920, Note_on_c, 9, 59, 0
13, 11940, Note_on_c, 9, 59, 45
13, 11950, Note_on_c, 9, 59, 0
13, 12000, Note_on_c, 9, 59, 63
13, 12010, Note_on_c, 9, 59, 0
13, 12060, Note_on_c, 9, 59, 46
13, 12070, Note_on_c, 9, 59, 0
13, 12120, Note_on_c, 9, 59, 45
13, 12130, Note_on_c, 9, 59, 0
13, 12180, Note_on_c, 9, 59, 43
13, 12190, Note_on_c, 9, 59, 0
13, 12240, Note_on_c, 9, 59, 44
13, 12250, Note_on_c, 9, 59, 0
13, 12300, Note_on_c, 9, 59, 44
13, 12310, Note_on_c, 9, 59, 0
13, 12360, Note_on_c, 9, 59, 45
13, 12370, Note_on_c, 9, 59, 0
13, 12420, Note_on_c, 9, 59, 25
13, 12430, Note_on_c, 9, 59, 0
13, 12480, Note_on_c, 9, 59, 65
13, 12490, Note_on_c, 9, 59, 0
13, 12540, Note_on_c, 9, 59, 45
13, 12550, Note_on_c, 9, 59, 0
13, 12600, Note_on_c, 9, 59, 45
13, 12610, Note_on_c, 9, 59, 0
13, 12660, Note_on_c, 9, 59, 24
13, 12670, Note_on_c, 9, 59, 0
13, 12720, Note_on_c, 9, 59, 65
13, 12730, Note_on_c, 9, 59, 0
13, 12780, Note_on_c, 9, 59, 45
13, 12790, Note_on_c, 9, 59, 0
13, 12840, Note_on_c, 9, 59, 43
13, 12850, Note_on_c, 9, 59, 0
13, 12870, Note_on_c, 9, 59, 44
13, 12880, Note_on_c, 9, 59, 0
13, 12900, Note_on_c, 9, 59, 45
13, 12910, Note_on_c, 9, 59, 0
13, 12960, Note_on_c, 9, 59, 63
13, 12970, Note_on_c, 9, 59, 0
13, 13020, Note_on_c, 9, 59, 46
13, 13030, Note_on_c, 9, 59, 0
13, 13080, Note_on_c, 9, 59, 45
13, 13090, Note_on_c, 9, 59, 0
13, 13140, Note_on_c, 9, 59, 43
13, 13150, Note_on_c, 9, 59, 0
13, 13200, Note_on_c, 9, 59, 44
13, 13210, Note_on_c, 9, 59, 0
13, 13260, Note_on_c, 9, 59, 44
13, 13270, Note_on_c, 9, 59, 0
13, 13320, Note_on_c, 9, 59, 45
13, 13330, Note_on_c, 9, 59, 0
13, 13440, Note_on_c, 9, 59, 65
13, 13450, Note_on_c, 9, 59, 0
13, 13500, Note_on_c, 9, 59, 45
13, 13510, Note_on_c, 9, 59, 0
13, 13560, Note_on_c, 9, 59, 45
13, 13570, Note_on_c, 9, 59, 0
13, 13620, Note_on_c, 9, 59, 24
13, 13630, Note_on_c, 9, 59, 0
13, 13680, Note_on_c, 9, 59, 65
13, 13690, Note_on_c, 9, 59, 0
13, 13740, Note_on_c, 9, 59, 45
13, 13750, Note_on_c, 9, 59, 0
13, 13800, Note_on_c, 9, 59, 43
13, 13810, Note_on_c, 9, 59, 0
13, 13830, Note_on_c, 9, 59, 44
13, 13840, Note_on_c, 9, 59, 0
13, 13860, Note_on_c, 9, 59, 45
13, 13870, Note_on_c, 9, 59, 0
13, 13920, Note_on_c, 9, 59, 63
13, 13930, Note_on_c, 9, 59, 0
13, 13980, Note_on_c, 9, 59, 46
13, 13990, Note_on_c, 9, 59, 0
13, 14040, Note_on_c, 9, 59, 45
13, 14050, Note_on_c, 9, 59, 0
13, 14100, Note_on_c, 9, 59, 43
13, 14110, Note_on_c, 9, 59, 0
13, 14160, Note_on_c, 9, 59, 44
13, 14170, Note_on_c, 9, 59, 0
13, 14220, Note_on_c, 9, 59, 44
13, 14230, Note_on_c, 9, 59, 0
13, 14280, Note_on_c, 9, 59, 45
13, 14290, Note_on_c, 9, 59, 0
13, 14340, Note_on_c, 9, 59, 25
13, 14350, Note_on_c, 9, 59, 0
13, 14400, Note_on_c, 9, 59, 66
13, 14410, Note_on_c, 9, 59, 0
13, 14460, Note_on_c, 9, 59, 43
13, 14470, Note_on_c, 9, 59, 0
13, 14520, Note_on_c, 9, 59, 22
13, 14530, Note_on_c, 9, 59, 0
13, 14580, Note_on_c, 9, 59, 65
13, 14590, Note_on_c, 9, 59, 0
13, 14640, Note_on_c, 9, 59, 46
13, 14650, Note_on_c, 9, 59, 0
13, 14700, Note_on_c, 9, 59, 46
13, 14710, Note_on_c, 9, 59, 0
13, 14760, Note_on_c, 9, 59, 46
13, 14770, Note_on_c, 9, 59, 0
13, 14820, Note_on_c, 9, 59, 24
13, 14830, Note_on_c, 9, 59, 0
13, 14880, Note_on_c, 9, 59, 63
13, 14890, Note_on_c, 9, 59, 0
13, 14910, Note_on_c, 9, 59, 23
13, 14920, Note_on_c, 9, 59, 0
13, 14940, Note_on_c, 9, 59, 45
13, 14950, Note_on_c, 9, 59, 0
13, 15000, Note_on_c, 9, 59, 45
13, 15010, Note_on_c, 9, 59, 0
13, 15060, Note_on_c, 9, 59, 27
13, 15070, Note_on_c, 9, 59, 0
13, 15360, Note_on_c, 9, 59, 65
13, 15370, Note_on_c, 9, 59, 0
13, 15420, Note_on_c, 9, 59, 46
13, 15430, Note_on_c, 9, 59, 0
13, 15480, Note_on_c, 9, 59, 44
13, 15490, Note_on_c, 9, 59, 0
13, 15540, Note_on_c, 9, 59, 43
13, 15550, Note_on_c, 9, 59, 0
13, 15600, Note_on_c, 9, 59, 46
13, 15610, Note_on_c, 9, 59, 0
13, 15660, Note_on_c, 9, 59, 46
13, 15670, Note_on_c, 9, 59, 0
13, 15720, Note_on_c, 9, 59, 46
13, 15730, Note_on_c, 9, 59, 0
13, 15780, Note_on_c, 9, 59, 25
13, 15790, Note_on_c, 9, 59, 0
13, 15840, Note_on_c, 9, 59, 65
13, 15850, Note_on_c, 9, 59, 0
13, 15900, Note_on_c, 9, 59, 45
13, 15910, Note_on_c, 9, 59, 0
13, 15960, Note_on_c, 9, 59, 45
13, 15970, Note_on_c, 9, 59, 0
13, 16020, Note_on_c, 9, 59, 43
13, 16030, Note_on_c, 9, 59, 0
13, 16080, Note_on_c, 9, 59, 45
13, 16090, Note_on_c, 9, 59, 0
13, 16140, Note_on_c, 9, 59, 45
13, 16150, Note_on_c, 9, 59, 0
13, 16200, Note_on_c, 9, 59, 43
13, 16210, Note_on_c, 9, 59, 0
13, 16260, Note_on_c, 9, 59, 25
13, 16270, Note_on_c, 9, 59, 0
13, 16320, Note_on_c, 9, 59, 66
13, 16330, Note_on_c, 9, 59, 0
13, 16380, Note_on_c, 9, 59, 45
13, 16390, Note_on_c, 9, 59, 0
13, 16440, Note_on_c, 9, 59, 43
13, 16450, Note_on_c, 9, 59, 0
13, 16500, Note_on_c, 9, 59, 25
13, 16510, Note_on_c, 9, 59, 0
13, 16560, Note_on_c, 9, 59, 64
13, 16570, Note_on_c, 9, 59, 0
13, 16620, Note_on_c, 9, 59, 44
13, 16630, Note_on_c, 9, 59, 0
13, 16680, Note_on_c, 9, 59, 46
13, 16690, Note_on_c, 9, 59, 0
13, 16740, Note_on_c, 9, 59, 22
13, 16750, Note_on_c, 9, 59, 0
13, 16800, Note_on_c, 9, 59, 63
13, 16810, Note_on_c, 9, 59, 0
13, 16860, Note_on_c, 9, 59, 43
13, 16870, Note_on_c, 9, 59, 0
13, 16920, Note_on_c, 9, 59, 28
13, 16930, Note_on_c, 9, 59, 0
13, 16980, Note_on_c, 9, 59, 66
13, 16990, Note_on_c, 9, 59, 0
13, 17280, Note_on_c, 9, 59, 66
13, 17290, Note_on_c, 9, 59, 0
13, 17340, Note_on_c, 9, 59, 45
13, 17350, Note_on_c, 9, 59, 0
13, 17400, Note_on_c, 9, 59, 43
13, 17410, Note_on_c, 9, 59, 0
13, 17460, Note_on_c, 9, 59, 25
13, 17470, Note_on_c, 9, 59, 0
13, 17520, Note_on_c, 9, 59, 64
13, 17530, Note_on_c, 9, 59, 0
13, 17580, Note_on_c, 9, 59, 44
13, 17590, Note_on_c, 9, 59, 0
13, 17640, Note_on_c, 9, 59, 46
13, 17650, Note_on_c, 9, 59, 0
13, 17700, Note_on_c, 9, 59, 22
13, 17710, Note_on_c, 9, 59, 0
13, 17760, Note_on_c, 9, 59, 63
13, 17770, Note_on_c, 9, 59, 0
13, 17820, Note_on_c, 9, 59, 43
13, 17830, Note_on_c, 9, 59, 0
13, 17880, Note_on_c, 9, 59, 28
13, 17890, Note_on_c, 9, 59, 0
13, 17940, Note_on_c, 9, 59, 66
13, 17950, Note_on_c, 9, 59, 0
13, 18000, Note_on_c, 9, 59, 43
13, 18010, Note_on_c, 9, 59, 0
13, 18060, Note_on_c, 9, 59, 46
13, 18070, Note_on_c, 9, 59, 0
13, 18120, Note_on_c, 9, 59, 45
13, 18130, Note_on_c, 9, 59, 0
13, 18150, Note_on_c, 9, 59, 43
13, 18160, Note_on_c, 9, 59, 0
13, 18180, Note_on_c, 9, 59, 44
13, 18190, Note_on_c, 9, 59, 0
13, 18240, Note_on_c, 9, 59, 66
13, 18250, Note_on_c, 9, 59, 0
13, 18300, Note_on_c, 9, 59, 45
13, 18310, Note_on_c, 9, 59, 0
13, 18360, Note_on_c, 9, 59, 43
13, 18370, Note_on_c, 9, 59, 0
13, 18420, Note_on_c, 9, 59, 25
13, 18430, Note_on_c, 9, 59, 0
13, 18480, Note_on_c, 9, 59, 64
13, 18490, Note_on_c, 9, 59, 0
13, 18540, Note_on_c, 9, 59, 44
13, 18550, Note_on_c, 9, 59, 0
13, 18600, Note_on_c, 9, 59, 46
13, 18610, Note_on_c, 9, 59, 0
13, 18660, Note_on_c, 9, 59, 22
13, 18670, Note_on_c, 9, 59, 0
13, 18720, Note_on_c, 9, 59, 63
13, 18730, Note_on_c, 9, 59, 0
13, 18780, Note_on_c, 9, 59, 43
13, 18790, Note_on_c, 9, 59, 0
13, 18840, Note_on_c, 9, 59, 28
13, 18850, Note_on_c, 9, 59, 0
13, 18900, Note_on_c, 9, 59, 66
13, 18910, Note_on_c, 9, 59, 0
13, 18960, Note_on_c, 9, 59, 43
13, 18970, Note_on_c, 9, 59, 0
13, 19200, Note_on_c, 9, 59, 66
13, 19210, Note_on_c, 9, 59, 0
13, 19230, Note_on_c, 9, 59, 23
13, 19240, Note_on_c, 9, 59, 0
13, 19260, Note_on_c, 9, 59, 46
13, 19270, Note_on_c, 9, 59, 0
13, 19320, Note_on_c, 9, 59, 46
13, 19330, Note_on_c, 9, 59, 0
13, 19380, Note_on_c, 9, 59, 26
13, 19390, Note_on_c, 9, 59, 0
13, 19440, Note_on_c, 9, 59, 64
13, 19450, Note_on_c, 9, 59, 0
13, 19500, Note_on_c, 9, 59, 46
13, 19510, Note_on_c, 9, 59, 0
13, 19560, Note_on_c, 9, 59, 43
13, 19570, Note_on_c, 9, 59, 0
13, 19620, Note_on_c, 9, 59, 25
13, 19630, Note_on_c, 9, 59, 0
13, 19680, Note_on_c, 9, 59, 63
13, 19690, Note_on_c, 9, 59, 0
13, 19740, Note_on_c, 9, 59, 44
13, 19750, Note_on_c, 9, 59, 0
13, 19800, Note_on_c, 9, 59, 43
13, 19810, Note_on_c, 9, 59, 0
13, 19830, Note_on_c, 9, 59, 23
13, 19840, Note_on_c, 9, 59, 0
13, 19860, Note_on_c, 9, 59, 65
13, 19870, Note_on_c, 9, 59, 0
13, 19920, Note_on_c, 9, 59, 43
13, 19930, Note_on_c, 9, 59, 0
13, 19980, Note_on_c, 9, 59, 44
13, 19990, Note_on_c, 9, 59, 0
13, 21120, Note_on_c, 9, 59, 64
13, 21130, Note_on_c, 9, 59, 0
13, 21180, Note_on_c, 9, 59, 46
13, 21190, Note_on_c, 9, 59, 0
13, 21240, Note_on_c, 9, 59, 24
13, 21250, Note_on_c, 9, 59, 0
13, 21300, Note_on_c, 9, 59, 65
13, 21310, Note_on_c, 9, 59, 0
13, 21360, Note_on_c, 9, 59, 44
13, 21370, Note_on_c, 9, 59, 0
13, 21420, Note_on_c, 9, 59, 44
13, 21430, Note_on_c, 9, 59, 0
13, 21480, Note_on_c, 9, 59, 45
13, 21490, Note_on_c, 9, 59, 0
13, 21510, Note_on_c, 9, 59, 46
13, 21520, Note_on_c, 9, 59, 0
13, 21540, Note_on_c, 9, 59, 45
13, 21550, Note_on_c, 9, 59, 0
13, 21600, Note_on_c, 9, 59, 64
13, 21610, Note_on_c, 9, 59, 0
13, 21660, Note_on_c, 9, 59, 44
13, 21670, Note_on_c, 9, 59, 0
13, 21720, Note_on_c, 9, 59, 43
13, 21730, Note_on_c, 9, 59, 0
13, 21780, Note_on_c, 9, 59, 46
13, 21790, Note_on_c, 9, 59, 0
13, 21840, Note_on_c, 9, 59, 43
13, 21850, Note_on_c, 9, 59, 0
13, 21900, Note_on_c, 9, 59, 44
13, 21910, Note_on_c, 9, 59, 0
13, 21960, Note_on_c, 9, 59, 46
13, 21970, Note_on_c, 9, 59, 0
13, 21990, Note_on_c, 9, 59, 44
13, 22000, Note_on_c, 9, 59, 0
13, 22020, Note_on_c, 9, 59, 44
13, 22030, Note_on_c, 9, 59, 0
13, 22080, Note_on_c, 9, 59, 64
13, 22090, Note_on_c, 9, 59, 0
13, 22140, Note_on_c, 9, 59, 46
13, 22150, Note_on_c, 9, 59, 0
13, 22200, Note_on_c, 9, 59, 24
13, 22210, Note_on_c, 9, 59, 0
13, 22260, Note_on_c, 9, 59, 65
13, 22270, Note_on_c, 9, 59, 0
13, 22320, Note_on_c, 9, 59, 44
13, 22330, Note_on_c, 9, 59, 0
13, 22380, Note_on_c, 9, 59, 44
13, 22390, Note_on_c, 9, 59, 0
13, 22440, Note_on_c, 9, 59, 45
13, 22450, Note_on_c, 9, 59, 0
13, 22470, Note_on_c, 9, 59, 46
13, 22480, Note_on_c, 9, 59, 0
13, 22500, Note_on_c, 9, 59, 45
13, 22510, Note_on_c, 9, 59, 0
13, 22560, Note_on_c, 9, 59, 64
13, 22570, Note_on_c, 9, 59, 0
13, 22620, Note_on_c, 9, 59, 44
13, 22630, Note_on_c, 9, 59, 0
13, 22680, Note_on_c, 9, 59, 43
13, 22690, Note_on_c, 9, 59, 0
13, 22740, Note_on_c, 9, 59, 46
13, 22750, Note_on_c, 9, 59, 0
13, 23040, Note_on_c, 9, 59, 64
13, 23050, Note_on_c, 9, 59, 0
13, 23100, Note_on_c, 9, 59, 46
13, 23110, Note_on_c, 9, 59, 0
13, 23160, Note_on_c, 9, 59, 24
13, 23170, Note_on_c, 9, 59, 0
13, 23220, Note_on_c, 9, 59, 65
13, 23230, Note_on_c, 9, 59, 0
13, 23280, Note_on_c, 9, 59, 44
13, 23290, Note_on_c, 9, 59, 0
13, 23340, Note_on_c, 9, 59, 44
13, 23350, Note_on_c, 9, 59, 0
13, 23400, Note_on_c, 9, 59, 45
13, 23410, Note_on_c, 9, 59, 0
13, 23430, Note_on_c, 9, 59, 46
13, 23440, Note_on_c, 9, 59, 0
13, 23460, Note_on_c, 9, 59, 45
13, 23470, Note_on_c, 9, 59, 0
13, 23520, Note_on_c, 9, 59, 64
13, 23530, Note_on_c, 9, 59, 0
13, 23580, Note_on_c, 9, 59, 44
13, 23590, Note_on_c, 9, 59, 0
13, 23640, Note_on_c, 9, 59, 43
13, 23650, Note_on_c, 9, 59, 0
13, 23700, Note_on_c, 9, 59, 46
13, 23710, Note_on_c, 9, 59, 0
13, 23760, Note_on_c, 9, 59, 43
13, 23770, Note_on_c, 9, 59, 0
13, 23820, Note_on_c, 9, 59, 44
13, 23830, Note_on_c, 9, 59, 0
13, 23880, Note_on_c, 9, 59, 46
13, 23890, Note_on_c, 9, 59, 0
13, 23910, Note_on_c, 9, 59, 44
13, 23920, Note_on_c, 9, 59, 0
13, 23940, Note_on_c, 9, 59, 44
13, 23950, Note_on_c, 9, 59, 0
13, 24000, Note_on_c, 9, 59, 64
13, 24010, Note_on_c, 9, 59, 0
13, 24060, Note_on_c, 9, 59, 46
13, 24070, Note_on_c, 9, 59, 0
13, 24120, Note_on_c, 9, 59, 24
13, 24130, Note_on_c, 9, 59, 0
13, 24180, Note_on_c, 9, 59, 65
13, 24190, Note_on_c, 9, 59, 0
13, 24240, Note_on_c, 9, 59, 44
13, 24250, Note_on_c, 9, 59, 0
13, 24300, Note_on_c, 9, 59, 44
13, 24310, Note_on_c, 9, 59, 0
13, 24360, Note_on_c, 9, 59, 45
13, 24370, Note_on_c, 9, 59, 0
13, 24390, Note_on_c, 9, 59, 46
13, 24400, Note_on_c, 9, 59, 0
13, 24420, Note_on_c, 9, 59, 45
13, 24430, Note_on_c, 9, 59, 0
13, 24480, Note_on_c, 9, 59, 64
13, 24490, Note_on_c, 9, 59, 0
13, 24540, Note_on_c, 9, 59, 44
13, 24550, Note_on_c, 9, 59, 0
13, 24600, Note_on_c, 9, 59, 43
13, 24610, Note_on_c, 9, 59, 0
13, 24660, Note_on_c, 9, 59, 46
13, 24670, Note_on_c, 9, 59, 0
13, 24720, Note_on_c, 9, 59, 43
13, 24730, Note_on_c, 9, 59, 0
13, 24960, Note_on_c, 9, 59, 64
13, 24970, Note_on_c, 9, 59, 0
13, 25020, Note_on_c, 9, 59, 46
13, 25030, Note_on_c, 9, 59, 0
13, 25080, Note_on_c, 9, 59, 24
13, 25090, Note_on_c, 9, 59, 0
13, 25140, Note_on_c, 9, 59, 65
13, 25150, Note_on_c, 9, 59, 0
13, 25200, Note_on_c, 9, 59, 44
13, 25210, Note_on_c, 9, 59, 0
13, 25260, Note_on_c, 9, 59, 44
13, 25270, Note_on_c, 9, 59, 0
13, 25320, Note_on_c, 9, 59, 45
13, 25330, Note_on_c, 9, 59, 0
13, 25350, Note_on_c, 9, 59, 46
13, 25360, Note_on_c, 9, 59, 0
13, 25380, Note_on_c, 9, 59, 45
13, 25390, Note_on_c, 9, 59, 0
13, 25440, Note_on_c, 9, 59, 64
13, 25450, Note_on_c, 9, 59, 0
13, 25500, Note_on_c, 9, 59, 44
13, 25510, Note_on_c, 9, 59, 0
13, 25560, Note_on_c, 9, 59, 43
13, 25570, Note_on_c, 9, 59, 0
13, 25620, Note_on_c, 9, 59, 46
13, 25630, Note_on_c, 9, 59, 0
13, 25680, Note_on_c, 9, 59, 43
13, 25690, Note_on_c, 9, 59, 0
13, 25740, Note_on_c, 9, 59, 44
13, 25750, Note_on_c, 9, 59, 0
13, 25800, Note_on_c, 9, 59, 46
13, 25810, Note_on_c, 9, 59, 0
13, 25830, Note_on_c, 9, 59, 44
13, 25840, Note_on_c, 9, 59, 0
13, 25860, Note_on_c, 9, 59, 44
13, 25870, Note_on_c, 9, 59, 0
13, 25920, Note_on_c, 9, 59, 66
13, 25930, Note_on_c, 9, 59, 0
13, 25980, Note_on_c, 9, 59, 43
13, 25990, Note_on_c, 9, 59, 0
13, 26040, Note_on_c, 9, 59, 45
13, 26050, Note_on_c, 9, 59, 0
13, 26100, Note_on_c, 9, 59, 28
13, 26110, Note_on_c, 9, 59, 0
13, 26160, Note_on_c, 9, 59, 66
13, 26170, Note_on_c, 9, 59, 0
13, 26220, Note_on_c, 9, 59, 45
13, 26230, Note_on_c, 9, 59, 0
13, 26280, Note_on_c, 9, 59, 46
13, 26290, Note_on_c, 9, 59, 0
13, 26310, Note_on_c, 9, 59, 44
13, 26320, Note_on_c, 9, 59, 0
13, 26340, Note_on_c, 9, 59, 46
13, 26350, Note_on_c, 9, 59, 0
13, 26400, Note_on_c, 9, 59, 64
13, 26410, Note_on_c, 9, 59, 0
13, 26460, Note_on_c, 9, 59, 44
13, 26470, Note_on_c, 9, 59, 0
13, 26520, Note_on_c, 9, 59, 44
13, 26530, Note_on_c, 9, 59, 0
13, 26550, Note_on_c, 9, 59, 26
13, 26560, Note_on_c, 9, 59, 0
13, 26580, Note_on_c, 9, 59, 66
13, 26590, Note_on_c, 9, 59, 0
13, 26640, Note_on_c, 9, 59, 43
13, 26650, Note_on_c, 9, 59, 0
13, 26880, Note_on_c, 9, 59, 66
13, 26890, Note_on_c, 9, 59, 0
13, 26940, Note_on_c, 9, 59, 44
13, 26950, Note_on_c, 9, 59, 0
13, 27000, Note_on_c, 9, 59, 45
13, 27010, Note_on_c, 9, 59, 0
13, 27030, Note_on_c, 9, 59, 22
13, 27040, Note_on_c, 9, 59, 0
13, 27060, Note_on_c, 9, 59, 65
13, 27070, Note_on_c, 9, 59, 0
13, 27120, Note_on_c, 9, 59, 43
13, 27130, Note_on_c, 9, 59, 0
13, 27180, Note_on_c, 9, 59, 46
13, 27190, Note_on_c, 9, 59, 0
13, 27240, Note_on_c, 9, 59, 46
13, 27250, Note_on_c, 9, 59, 0
13, 27300, Note_on_c, 9, 59, 26
13, 27310, Note_on_c, 9, 59, 0
13, 27360, Note_on_c, 9, 59, 65
13, 27370, Note_on_c, 9, 59, 0
13, 27420, Note_on_c, 9, 59, 43
13, 27430, Note_on_c, 9, 59, 0
13, 27480, Note_on_c, 9, 59, 43
13, 27490, Note_on_c, 9, 59, 0
13, 27510, Note_on_c, 9, 59, 22
13, 27520, Note_on_c, 9, 59, 0
13, 27540, Note_on_c, 9, 59, 66
13, 27550, Note_on_c, 9, 59, 0
13, 27600, Note_on_c, 9, 59, 44
13, 27610, Note_on_c, 9, 59, 0
13, 27660, Note_on_c, 9, 59, 45
13, 27670, Note_on_c, 9, 59, 0
13, 27720, Note_on_c, 9, 59, 44
13, 27730, Note_on_c, 9, 59, 0
13, 27780, Note_on_c, 9, 59, 28
13, 27790, Note_on_c, 9, 59, 0
13, 27840, Note_on_c, 9, 59, 66
13, 27850, Note_on_c, 9, 59, 0
13, 27900, Note_on_c, 9, 59, 44
13, 27910, Note_on_c, 9, 59, 0
13, 27960, Note_on_c, 9, 59, 45
13, 27970, Note_on_c, 9, 59, 0
13, 27990, Note_on_c, 9, 59, 22
13, 28000, Note_on_c, 9, 59, 0
13, 28020, Note_on_c, 9, 59, 65
13, 28030, Note_on_c, 9, 59, 0
13, 28080, Note_on_c, 9, 59, 43
13, 28090, Note_on_c, 9, 59, 0
13, 28140, Note_on_c, 9, 59, 46
13, 28150, Note_on_c, 9, 59, 0
13, 28200, Note_on_c, 9, 59, 46
13, 28210, Note_on_c, 9, 59, 0
13, 28260, Note_on_c, 9, 59, 26
13, 28270, Note_on_c, 9, 59, 0
13, 28320, Note_on_c, 9, 59, 65
13, 28330, Note_on_c, 9, 59, 0
13, 28380, Note_on_c, 9, 59, 43
13, 28390, Note_on_c, 9, 59, 0
13, 28440, Note_on_c, 9, 59, 43
13, 28450, Note_on_c, 9, 59, 0
13, 28470, Note_on_c, 9, 59, 22
13, 28480, Note_on_c, 9, 59, 0
13, 28500, Note_on_c, 9, 59, 66
13, 28510, Note_on_c, 9, 59, 0
13, 28560, Note_on_c, 9, 59, 44
13, 28570, Note_on_c, 9, 59, 0
13, 28620, Note_on_c, 9, 59, 45
13, 28630, Note_on_c, 9, 59, 0
13, 28680, Note_on_c, 9, 59, 44
13, 28690, Note_on_c, 9, 59, 0
13, 28740, Note_on_c, 9, 59, 28
13, 28750, Note_on_c, 9, 59, 0
13, 28800, Note_on_c, 9, 59, 66
13, 28810, Note_on_c, 9, 59, 0
13, 28860, Note_on_c, 9, 59, 44
13, 28870, Note_on_c, 9, 59, 0
13, 28920, Note_on_c, 9, 59, 45
13, 28930, Note_on_c, 9, 59, 0
13, 28950, Note_on_c, 9, 59, 22
13, 28960, Note_on_c, 9, 59, 0
13, 28980, Note_on_c, 9, 59, 65
13, 28990, Note_on_c, 9, 59, 0
13, 29040, Note_on_c, 9, 59, 43
13, 29050, Note_on_c, 9, 59, 0
13, 29100, Note_on_c, 9, 59, 46
13, 29110, Note_on_c, 9, 59, 0
13, 29160, Note_on_c, 9, 59, 46
13, 29170, Note_on_c, 9, 59, 0
13, 29220, Note_on_c, 9, 59, 26
13, 29230, Note_on_c, 9, 59, 0
13, 29280, Note_on_c, 9, 59, 65
13, 29290, Note_on_c, 9, 59, 0
13, 29340, Note_on_c, 9, 59, 43
13, 29350, Note_on_c, 9, 59, 0
13, 29400, Note_on_c, 9, 59, 43
13, 29410, Note_on_c, 9, 59, 0
13, 29430, Note_on_c, 9, 59, 22
13, 29440, Note_on_c, 9, 59, 0
13, 29460, Note_on_c, 9, 59, 66
13, 29470, Note_on_c, 9, 59, 0
13, 30720, Note_on_c, 9, 59, 66
13, 30730, Note_on_c, 9, 59, 0
13, 30780, Note_on_c, 9, 59, 44
13, 30790, Note_on_c, 9, 59, 0
13, 30840, Note_on_c, 9, 59, 45
13, 30850, Note_on_c, 9, 59, 0
13, 30870, Note_on_c, 9, 59, 22
13, 30880, Note_on_c, 9, 59, 0
13, 30900, Note_on_c, 9, 59, 65
13, 30910, Note_on_c, 9, 59, 0
13, 30960, Note_on_c, 9, 59, 43
13, 30970, Note_on_c, 9, 59, 0
13, 31020, Note_on_c, 9, 59, 46
13, 31030, Note_on_c, 9, 59, 0
13, 31080, Note_on_c, 9, 59, 46
13, 31090, Note_on_c, 9, 59, 0
13, 31140, Note_on_c, 9, 59, 26
13, 31150, Note_on_c, 9, 59, 0
13, 31200, Note_on_c, 9, 59, 65
13, 31210, Note_on_c, 9, 59, 0
13, 31260, Note_on_c, 9, 59, 43
13, 31270, Note_on_c, 9, 59, 0
13, 31320, Note_on_c, 9, 59, 43
13, 31330, Note_on_c, 9, 59, 0
13, 31350, Note_on_c, 9, 59, 22
13, 31360, Note_on_c, 9, 59, 0
13, 31380, Note_on_c, 9, 59, 66
13, 31390, Note_on_c, 9, 59, 0
13, 31440, Note_on_c, 9, 59, 44
13, 31450, Note_on_c, 9, 59, 0
13, 31500, Note_on_c, 9, 59, 45
13, 31510, Note_on_c, 9, 59, 0
13, 31560, Note_on_c, 9, 59, 44
13, 31570, Note_on_c, 9, 59, 0
13, 31620, Note_on_c, 9, 59, 28
13, 31630, Note_on_c, 9, 59, 0
13, 31680, Note_on_c, 9, 59, 66
13, 31690, Note_on_c, 9, 59, 0
13, 31740, Note_on_c, 9, 59, 44
13, 31750, Note_on_c, 9, 59, 0
13, 31800, Note_on_c, 9, 59, 45
13, 31810, Note_on_c, 9, 59, 0
13, 31830, Note_on_c, 9, 59, 22
13, 31840, Note_on_c, 9, 59, 0
13, 31860, Note_on_c, 9, 59, 65
13, 31870, Note_on_c, 9, 59, 0
13, 31920, Note_on_c, 9, 59, 43
13, 31930, Note_on_c, 9, 59, 0
13, 31980, Note_on_c, 9, 59, 46
13, 31990, Note_on_c, 9, 59, 0
13, 32040, Note_on_c, 9, 59, 46
13, 32050, Note_on_c, 9, 59, 0
13, 32100, Note_on_c, 9, 59, 26
13, 32110, Note_on_c, 9, 59, 0
13, 32160, Note_on_c, 9, 59, 65
13, 32170, Note_on_c, 9, 59, 0
13, 32220, Note_on_c, 9, 59, 43
13, 32230, Note_on_c, 9, 59, 0
13, 32280, Note_on_c, 9, 59, 43
13, 32290, Note_on_c, 9, 59, 0
13, 32310, Note_on_c, 9, 59, 22
13, 32320, Note_on_c, 9, 59, 0
13, 32340, Note_on_c, 9, 59, 66
13, 32350, Note_on_c, 9, 59, 0
13, 32400, Note_on_c, 9, 59, 44
13, 32410, Note_on_c, 9, 59, 0
13, 32460, Note_on_c, 9, 59, 45
13, 32470, Note_on_c, 9, 59, 0
13, 32520, Note_on_c, 9, 59, 44
13, 32530, Note_on_c, 9, 59, 0
13, 32580, Note_on_c, 9, 59, 28
13, 32590, Note_on_c, 9, 59, 0
13, 32640, Note_on_c, 9, 59, 64
13, 32650, Note_on_c, 9, 59, 0
13, 32700, Note_on_c, 9, 59, 43
13, 32710, Note_on_c, 9, 59, 0
13, 32760, Note_on_c, 9, 59, 45
13, 32770, Note_on_c, 9, 59, 0
13, 32790, Note_on_c, 9, 59, 24
13, 32800, Note_on_c, 9, 59, 0
13, 32820, Note_on_c, 9, 59, 64
13, 32830, Note_on_c, 9, 59, 0
13, 32880, Note_on_c, 9, 59, 46
13, 32890, Note_on_c, 9, 59, 0
13, 32940, Note_on_c, 9, 59, 43
13, 32950, Note_on_c, 9, 59, 0
13, 33000, Note_on_c, 9, 59, 44
13, 33010, Note_on_c, 9, 59, 0
13, 33060, Note_on_c, 9, 59, 25
13, 33070, Note_on_c, 9, 59, 0
13, 33120, Note_on_c, 9, 59, 64
13, 33130, Note_on_c, 9, 59, 0
13, 33150, Note_on_c, 9, 59, 26
13, 33160, Note_on_c, 9, 59, 0
13, 33180, Note_on_c, 9, 59, 45
13, 33190, Note_on_c, 9, 59, 0
13, 33240, Note_on_c, 9, 59, 45
13, 33250, Note_on_c, 9, 59, 0
13, 33300, Note_on_c, 9, 59, 28
13, 33310, Note_on_c, 9, 59, 0
13, 33360, Note_on_c, 9, 59, 65
13, 33370, Note_on_c, 9, 59, 0
13, 34560, Note_on_c, 9, 59, 66
13, 34570, Note_on_c, 9, 59, 0
13, 34620, Note_on_c, 9, 59, 46
13, 34630, Note_on_c, 9, 59, 0
13, 34680, Note_on_c, 9, 59, 46
13, 34690, Note_on_c, 9, 59, 0
13, 34740, Note_on_c, 9, 59, 23
13, 34750, Note_on_c, 9, 59, 0
13, 34800, Note_on_c, 9, 59, 43
13, 34810, Note_on_c, 9, 59, 0
13, 34860, Note_on_c, 9, 59, 43
13, 34870, Note_on_c, 9, 59, 0
13, 34890, Note_on_c, 9, 59, 28
13, 34900, Note_on_c, 9, 59, 0
13, 34920, Note_on_c, 9, 59, 45
13, 34930, Note_on_c, 9, 59, 0
13, 34980, Note_on_c, 9, 59, 46
13, 34990, Note_on_c, 9, 59, 0
13, 35040, Note_on_c, 9, 59, 66
13, 35050, Note_on_c, 9, 59, 0
13, 35100, Note_on_c, 9, 59, 43
13, 35110, Note_on_c, 9, 59, 0
13, 35160, Note_on_c, 9, 59, 46
13, 35170, Note_on_c, 9, 59, 0
13, 35220, Note_on_c, 9, 59, 22
13, 35230, Note_on_c, 9, 59, 0
13, 35520, Note_on_c, 9, 59, 66
13, 35530, Note_on_c, 9, 59, 0
13, 35580, Note_on_c, 9, 59, 46
13, 35590, Note_on_c, 9, 59, 0
13, 35640, Note_on_c, 9, 59, 46
13, 35650, Note_on_c, 9, 59, 0
13, 35700, Note_on_c, 9, 59, 23
13, 35710, Note_on_c, 9, 59, 0
13, 35760, Note_on_c, 9, 59, 43
13, 35770, Note_on_c, 9, 59, 0
13, 35820, Note_on_c, 9, 59, 43
13, 35830, Note_on_c, 9, 59, 0
13, 35850, Note_on_c, 9, 59, 28
13, 35860, Note_on_c, 9, 59, 0
13, 35880, Note_on_c, 9, 59, 45
13, 35890, Note_on_c, 9, 59, 0
13, 35940, Note_on_c, 9, 59, 46
13, 35950, Note_on_c, 9, 59, 0
13, 36000, Note_on_c, 9, 59, 66
13, 36010, Note_on_c, 9, 59, 0
13, 36060, Note_on_c, 9, 59, 43
13, 36070, Note_on_c, 9, 59, 0
13, 36120, Note_on_c, 9, 59, 46
13, 36130, Note_on_c, 9, 59, 0
13, 36180, Note_on_c, 9, 59, 22
13, 36190, Note_on_c, 9, 59, 0
13, 36240, Note_on_c, 9, 59, 64
13, 36250, Note_on_c, 9, 59, 0
13, 36300, Note_on_c, 9, 59, 44
13, 36310, Note_on_c, 9, 59, 0
13, 36360, Note_on_c, 9, 59, 45
13, 36370, Note_on_c, 9, 59, 0
13, 36390, Note_on_c, 9, 59, 45
13, 36400, Note_on_c, 9, 59, 0
13, 36420, Note_on_c, 9, 59, 43
13, 36430, Note_on_c, 9, 59, 0
13, 36480, Note_on_c, 9, 59, 63
13, 36490, Note_on_c, 9, 59, 0
13, 36540, Note_on_c, 9, 59, 45
13, 36550, Note_on_c, 9, 59, 0
13, 36600, Note_on_c, 9, 59, 45
13, 36610, Note_on_c, 9, 59, 0
13, 36660, Note_on_c, 9, 59, 22
13, 36670, Note_on_c, 9, 59, 0
13, 36720, Note_on_c, 9, 59, 66
13, 36730, Note_on_c, 9, 59, 0
13, 36780, Note_on_c, 9, 59, 45
13, 36790, Note_on_c, 9, 59, 0
13, 36840, Note_on_c, 9, 59, 44
13, 36850, Note_on_c, 9, 59, 0
13, 36870, Note_on_c, 9, 59, 43
13, 36880, Note_on_c, 9, 59, 0
13, 36900, Note_on_c, 9, 59, 43
13, 36910, Note_on_c, 9, 59, 0
13, 36960, Note_on_c, 9, 59, 66
13, 36970, Note_on_c, 9, 59, 0
13, 36990, Note_on_c, 9, 59, 24
13, 37000, Note_on_c, 9, 59, 0
13, 37020, Note_on_c, 9, 59, 44
13, 37030, Note_on_c, 9, 59, 0
13, 37080, Note_on_c, 9, 59, 44
13, 37090, Note_on_c, 9, 59, 0
13, 37140, Note_on_c, 9, 59, 23
13, 37150, Note_on_c, 9, 59, 0
13, 38400, Note_on_c, 9, 59, 64
13, 38410, Note_on_c, 9, 59, 0
13, 38460, Note_on_c, 9, 59, 46
13, 38470, Note_on_c, 9, 59, 0
13, 38520, Note_on_c, 9, 59, 43
13, 38530, Note_on_c, 9, 59, 0
13, 38580, Note_on_c, 9, 59, 22
13, 38590, Note_on_c, 9, 59, 0
13, 38640, Note_on_c, 9, 59, 64
13, 38650, Note_on_c, 9, 59, 0
13, 38700, Note_on_c, 9, 59, 46
13, 38710, Note_on_c, 9, 59, 0
13, 38760, Note_on_c, 9, 59, 46
13, 38770, Note_on_c, 9, 59, 0
13, 38790, Note_on_c, 9, 59, 46
13, 38800, Note_on_c, 9, 59, 0
13, 38820, Note_on_c, 9, 59, 44
13, 38830, Note_on_c, 9, 59, 0
13, 38880, Note_on_c, 9, 59, 63
13, 38890, Note_on_c, 9, 59, 0
13, 38940, Note_on_c, 9, 59, 45
13, 38950, Note_on_c, 9, 59, 0
13, 39000, Note_on_c, 9, 59, 28
13, 39010, Note_on_c, 9, 59, 0
13, 39060, Note_on_c, 9, 59, 63
13, 39070, Note_on_c, 9, 59, 0
13, 39120, Note_on_c, 9, 59, 44
13, 39130, Note_on_c, 9, 59, 0
13, 39360, Note_on_c, 9, 59, 64
13, 39370, Note_on_c, 9, 59, 0
13, 39390, Note_on_c, 9, 59, 25
13, 39400, Note_on_c, 9, 59, 0
13, 39420, Note_on_c, 9, 59, 43
13, 39430, Note_on_c, 9, 59, 0
13, 39480, Note_on_c, 9, 59, 45
13, 39490, Note_on_c, 9, 59, 0
13, 39540, Note_on_c, 9, 59, 28
13, 39550, Note_on_c, 9, 59, 0
13, 39600, Note_on_c, 9, 59, 65
13, 39610, Note_on_c, 9, 59, 0
13, 39660, Note_on_c, 9, 59, 43
13, 39670, Note_on_c, 9, 59, 0
13, 39720, Note_on_c, 9, 59, 44
13, 39730, Note_on_c, 9, 59, 0
13, 39780, Note_on_c, 9, 59, 22
13, 39790, Note_on_c, 9, 59, 0
13, 39840, Note_on_c, 9, 59, 63
13, 39850, Note_on_c, 9, 59, 0
13, 39870, Note_on_c, 9, 59, 27
13, 39880, Note_on_c, 9, 59, 0
13, 39900, Note_on_c, 9, 59, 44
13, 39910, Note_on_c, 9, 59, 0
13, 39960, Note_on_c, 9, 59, 43
13, 39970, Note_on_c, 9, 59, 0
13, 40020, Note_on_c, 9, 59, 22
13, 40030, Note_on_c, 9, 59, 0
13, 40080, Note_on_c, 9, 59, 63
13, 40090, Note_on_c, 9, 59, 0
13, 40320, Note_on_c, 9, 59, 64
13, 40330, Note_on_c, 9, 59, 0
13, 40350, Note_on_c, 9, 59, 25
13, 40360, Note_on_c, 9, 59, 0
13, 40380, Note_on_c, 9, 59, 43
13, 40390, Note_on_c, 9, 59, 0
13, 40440, Note_on_c, 9, 59, 45
13, 40450, Note_on_c, 9, 59, 0
13, 40500, Note_on_c, 9, 59, 28
13, 40510, Note_on_c, 9, 59, 0
13, 40560, Note_on_c, 9, 59, 65
13, 40570, Note_on_c, 9, 59, 0
13, 40620, Note_on_c, 9, 59, 43
13, 40630, Note_on_c, 9, 59, 0
13, 40680, Note_on_c, 9, 59, 44
13, 40690, Note_on_c, 9, 59, 0
13, 40740, Note_on_c, 9, 59, 22
13, 40750, Note_on_c, 9, 59, 0
13, 40800, Note_on_c, 9, 59, 63
13, 40810, Note_on_c, 9, 59, 0
13, 40830, Note_on_c, 9, 59, 27
13, 40840, Note_on_c, 9, 59, 0
13, 40860, Note_on_c, 9, 59, 44
13, 40870, Note_on_c, 9, 59, 0
13, 40920, Note_on_c, 9, 59, 43
13, 40930, Note_on_c, 9, 59, 0
13, 40980, Note_on_c, 9, 59, 22
13, 40990, Note_on_c, 9, 59, 0
13, 41040, Note_on_c, 9, 59, 63
13, 41050, Note_on_c, 9, 59, 0
13, 41100, Note_on_c, 9, 59, 46
13, 41110, Note_on_c, 9, 59, 0
13, 41280, Note_on_c, 9, 59, 65
13, 41290, Note_on_c, 9, 59, 0
13, 41340, Note_on_c, 9, 59, 46
13, 41350, Note_on_c, 9, 59, 0
13, 41400, Note_on_c, 9, 59, 23
13, 41410, Note_on_c, 9, 59, 0
13, 41460, Note_on_c, 9, 59, 66
13, 41470, Note_on_c, 9, 59, 0
13, 41520, Note_on_c, 9, 59, 45
13, 41530, Note_on_c, 9, 59, 0
13, 41580, Note_on_c, 9, 59, 43
13, 41590, Note_on_c, 9, 59, 0
13, 41640, Note_on_c, 9, 59, 45
13, 41650, Note_on_c, 9, 59, 0
13, 41700, Note_on_c, 9, 59, 28
13, 41710, Note_on_c, 9, 59, 0
13, 41710, End_track
14, 0, Start_track
14, 0, MIDI_port, 0
14, 0, Control_c, 9, 7, 100
14, 0, Control_c, 9, 10, 64
14, 0, Control_c, 9, 91, 25
14, 0, Control_c, 9, 93, 0
14, 180, Note_on_c, 9, 36, 89
14, 190, Note_on_c, 9, 36, 0
14, 300, Note_on_c, 9, 36, 68
14, 310, Note_on_c, 9, 36, 0
14, 420, Note_on_c, 9, 36, 48
14, 430, Note_on_c, 9, 36, 0
14, 480, Note_on_c, 9, 36, 88
14, 490, Note_on_c, 9, 36, 0
14, 660, Note_on_c, 9, 36, 88
14, 670, Note_on_c, 9, 36, 0
14, 780, Note_on_c, 9, 36, 69
14, 790, Note_on_c, 9, 36, 0
14, 960, Note_on_c, 9, 36, 90
14, 970, Note_on_c, 9, 36, 0
14, 1020, Note_on_c, 9, 36, 47
14, 1030, Note_on_c, 9, 36, 0
14, 1140, Note_on_c, 9, 36, 88
14, 1150, Note_on_c, 9, 36, 0
14, 1260, Note_on_c, 9, 36, 68
14, 1270, Note_on_c, 9, 36, 0
14, 1380, Note_on_c, 9, 36, 47
14, 1390, Note_on_c, 9, 36, 0
14, 1500, Note_on_c, 9, 36, 68
14, 1510, Note_on_c, 9, 36, 0
14, 1620, Note_on_c, 9, 36, 71
14, 1630, Note_on_c, 9, 36, 0
14, 1740, Note_on_c, 9, 36, 90
14, 1750, Note_on_c, 9, 36, 0
14, 1770, Note_on_c, 9, 36, 69
14, 1780, Note_on_c, 9, 36, 0
14, 1860, Note_on_c, 9, 36, 68
14, 1870, Note_on_c, 9, 36, 0
14, 1890, Note_on_c, 9, 36, 89
14, 1900, Note_on_c, 9, 36, 0
14, 1920, Note_on_c, 9, 36, 89
14, 1930, Note_on_c, 9, 36, 0
14, 1980, Note_on_c, 9, 36, 47
14, 1990, Note_on_c, 9, 36, 0
14, 2100, Note_on_c, 9, 36, 89
14, 2110, Note_on_c, 9, 36, 0
14, 2220, Note_on_c, 9, 36, 70
14, 2230, Note_on_c, 9, 36, 0
14, 2340, Note_on_c, 9, 36, 50
14, 2350, Note_on_c, 9, 36, 0
14, 2400, Note_on_c, 9, 36, 88
14, 2410, Note_on_c, 9, 36, 0
14, 2580, Note_on_c, 9, 36, 91
14, 2590, Note_on_c, 9, 36, 0
14, 2700, Note_on_c, 9, 36, 71
14, 2710, Note_on_c, 9, 36, 0
14, 2820, Note_on_c, 9, 36, 50
14, 2830, Note_on_c, 9, 36, 0
14, 2880, Note_on_c, 9, 36, 88
14, 2890, Note_on_c, 9, 36, 0
14, 2940, Note_on_c, 9, 36, 51
14, 2950, Note_on_c, 9, 36, 0
14, 3060, Note_on_c, 9, 36, 88
14, 3070, Note_on_c, 9, 36, 0
14, 3180, Note_on_c, 9, 36, 69
14, 3190, Note_on_c, 9, 36, 0
14, 3300, Note_on_c, 9, 36, 48
14, 3310, Note_on_c, 9, 36, 0
14, 3360, Note_on_c, 9, 36, 91
14, 3370, Note_on_c, 9, 36, 0
14, 3540, Note_on_c, 9, 36, 90
14, 3550, Note_on_c, 9, 36, 0
14, 3660, Note_on_c, 9, 36, 69
14, 3670, Note_on_c, 9, 36, 0
14, 3780, Note_on_c, 9, 36, 52
14, 3790, Note_on_c, 9, 36, 0
14, 3840, Note_on_c, 9, 36, 90
14, 3850, Note_on_c, 9, 36, 0
14, 3900, Note_on_c, 9, 36, 52
14, 3910, Note_on_c, 9, 36, 0
14, 4020, Note_on_c, 9, 36, 91
14, 4030, Note_on_c, 9, 36, 0
14, 4140, Note_on_c, 9, 36, 70
14, 4150, Note_on_c, 9, 36, 0
14, 4260, Note_on_c, 9, 36, 51
14, 4270, Note_on_c, 9, 36, 0
14, 4320, Note_on_c, 9, 36, 88
14, 4330, Note_on_c, 9, 36, 0
14, 4500, Note_on_c, 9, 36, 88
14, 4510, Note_on_c, 9, 36, 0
14, 4620, Note_on_c, 9, 36, 70
14, 4630, Note_on_c, 9, 36, 0
14, 4740, Note_on_c, 9, 36, 50
14, 4750, Note_on_c, 9, 36, 0
14, 4800, Note_on_c, 9, 36, 91
14, 4810, Note_on_c, 9, 36, 0
14, 4980, Note_on_c, 9, 36, 88
14, 4990, Note_on_c, 9, 36, 0
14, 5100, Note_on_c, 9, 36, 69
14, 5110, Note_on_c, 9, 36, 0
14, 5280, Note_on_c, 9, 36, 91
14, 5290, Note_on_c, 9, 36, 0
14, 5460, Note_on_c, 9, 36, 88
14, 5470, Note_on_c, 9, 36, 0
14, 5520, Note_on_c, 9, 36, 70
14, 5530, Note_on_c, 9, 36, 0
14, 5580, Note_on_c, 9, 36, 68
14, 5590, Note_on_c, 9, 36, 0
14, 5700, Note_on_c, 9, 36, 68
14, 5710, Note_on_c, 9, 36, 0
14, 5760, Note_on_c, 9, 36, 88
14, 5770, Note_on_c, 9, 36, 0
14, 5940, Note_on_c, 9, 36, 90
14, 5950, Note_on_c, 9, 36, 0
14, 6060, Note_on_c, 9, 36, 71
14, 6070, Note_on_c, 9, 36, 0
14, 6240, Note_on_c, 9, 36, 91
14, 6250, Note_on_c, 9, 36, 0
14, 6420, Note_on_c, 9, 36, 90
14, 6430, Note_on_c, 9, 36, 0
14, 6540, Note_on_c, 9, 36, 71
14, 6550, Note_on_c, 9, 36, 0
14, 6720, Note_on_c, 9, 36, 89
14, 6730, Note_on_c, 9, 36, 0
14, 6900, Note_on_c, 9, 36, 89
14, 6910, Note_on_c, 9, 36, 0
14, 7020, Note_on_c, 9, 36, 69
14, 7030, Note_on_c, 9, 36, 0
14, 7200, Note_on_c, 9, 36, 88
14, 7210, Note_on_c, 9, 36, 0
14, 7380, Note_on_c, 9, 36, 89
14, 7390, Note_on_c, 9, 36, 0
14, 7500, Note_on_c, 9, 36, 91
14, 7510, Note_on_c, 9, 36, 0
14, 7680, Note_on_c, 9, 36, 90
14, 7690, Note_on_c, 9, 36, 0
14, 7860, Note_on_c, 9, 36, 90
14, 7870, Note_on_c, 9, 36, 0
14, 7980, Note_on_c, 9, 36, 70
14, 7990, Note_on_c, 9, 36, 0
14, 8160, Note_on_c, 9, 36, 91
14, 8170, Note_on_c, 9, 36, 0
14, 8340, Note_on_c, 9, 36, 89
14, 8350, Note_on_c, 9, 36, 0
14, 8460, Note_on_c, 9, 36, 71
14, 8470, Note_on_c, 9, 36, 0
14, 8580, Note_on_c, 9, 36, 50
14, 8590, Note_on_c, 9, 36, 0
14, 8640, Note_on_c, 9, 36, 88
14, 8650, Note_on_c, 9, 36, 0
14, 8700, Note_on_c, 9, 36, 50
14, 8710, Note_on_c, 9, 36, 0
14, 8820, Note_on_c, 9, 36, 88
14, 8830, Note_on_c, 9, 36, 0
14, 8940, Note_on_c, 9, 36, 70
14, 8950, Note_on_c, 9, 36, 0
14, 9060, Note_on_c, 9, 36, 47
14, 9070, Note_on_c, 9, 36, 0
14, 9120, Note_on_c, 9, 36, 90
14, 9130, Note_on_c, 9, 36, 0
14, 9300, Note_on_c, 9, 36, 88
14, 9310, Note_on_c, 9, 36, 0
14, 9420, Note_on_c, 9, 36, 71
14, 9430, Note_on_c, 9, 36, 0
14, 9600, Note_on_c, 9, 36, 90
14, 9610, Note_on_c, 9, 36, 0
14, 9780, Note_on_c, 9, 36, 90
14, 9790, Note_on_c, 9, 36, 0
14, 9900, Note_on_c, 9, 36, 70
14, 9910, Note_on_c, 9, 36, 0
14, 10020, Note_on_c, 9, 36, 52
14, 10030, Note_on_c, 9, 36, 0
14, 10080, Note_on_c, 9, 36, 88
14, 10090, Note_on_c, 9, 36, 0
14, 10260, Note_on_c, 9, 36, 91
14, 10270, Note_on_c, 9, 36, 0
14, 10380, Note_on_c, 9, 36, 91
14, 10390, Note_on_c, 9, 36, 0
14, 10500, Note_on_c, 9, 36, 71
14, 10510, Note_on_c, 9, 36, 0
14, 11520, Note_on_c, 9, 36, 89
14, 11530, Note_on_c, 9, 36, 0
14, 11700, Note_on_c, 9, 36, 90
14, 11710, Note_on_c, 9, 36, 0
14, 11820, Note_on_c, 9, 36, 69
14, 11830, Note_on_c, 9, 36, 0
14, 12000, Note_on_c, 9, 36, 91
14, 12010, Note_on_c, 9, 36, 0
14, 12180, Note_on_c, 9, 36, 88
14, 12190, Note_on_c, 9, 36, 0
14, 12300, Note_on_c, 9, 36, 70
14, 12310, Note_on_c, 9, 36, 0
14, 12420, Note_on_c, 9, 36, 50
14, 12430, Note_on_c, 9, 36, 0
14, 12480, Note_on_c, 9, 36, 89
14, 12490, Note_on_c, 9, 36, 0
14, 12660, Note_on_c, 9, 36, 88
14, 12670, Note_on_c, 9, 36, 0
14, 12780, Note_on_c, 9, 36, 71
14, 12790, Note_on_c, 9, 36, 0
14, 12960, Note_on_c, 9, 36, 89
14, 12970, Note_on_c, 9, 36, 0
14, 13020, Note_on_c, 9, 36, 47
14, 13030, Note_on_c, 9, 36, 0
14, 13140, Note_on_c, 9, 36, 88
14, 13150, Note_on_c, 9, 36, 0
14, 13260, Note_on_c, 9, 36, 69
14, 13270, Note_on_c, 9, 36, 0
14, 13380, Note_on_c, 9, 36, 71
14, 13390, Note_on_c, 9, 36, 0
14, 13410, Note_on_c, 9, 36, 68
14, 13420, Note_on_c, 9, 36, 0
14, 13440, Note_on_c, 9, 36, 91
14, 13450, Note_on_c, 9, 36, 0
14, 13620, Note_on_c, 9, 36, 91
14, 13630, Note_on_c, 9, 36, 0
14, 13740, Note_on_c, 9, 36, 68
14, 13750, Note_on_c, 9, 36, 0
14, 13920, Note_on_c, 9, 36, 89
14, 13930, Note_on_c, 9, 36, 0
14, 14100, Note_on_c, 9, 36, 88
14, 14110, Note_on_c, 9, 36, 0
14, 14220, Note_on_c, 9, 36, 69
14, 14230, Note_on_c, 9, 36, 0
14, 14340, Note_on_c, 9, 36, 51
14, 14350, Note_on_c, 9, 36, 0
14, 14400, Note_on_c, 9, 36, 90
14, 14410, Note_on_c, 9, 36, 0
14, 14460, Note_on_c, 9, 36, 52
14, 14470, Note_on_c, 9, 36, 0
14, 14580, Note_on_c, 9, 36, 89
14, 14590, Note_on_c, 9, 36, 0
14, 14700, Note_on_c, 9, 36, 68
14, 14710, Note_on_c, 9, 36, 0
14, 14820, Note_on_c, 9, 36, 52
14, 14830, Note_on_c, 9, 36, 0
14, 14880, Note_on_c, 9, 36, 90
14, 14890, Note_on_c, 9, 36, 0
14, 14940, Note_on_c, 9, 36, 49
14, 14950, Note_on_c, 9, 36, 0
14, 15060, Note_on_c, 9, 36, 90
14, 15070, Note_on_c, 9, 36, 0
14, 15120, Note_on_c, 9, 36, 91
14, 15130, Note_on_c, 9, 36, 0
14, 15360, Note_on_c, 9, 36, 91
14, 15370, Note_on_c, 9, 36, 0
14, 15540, Note_on_c, 9, 36, 89
14, 15550, Note_on_c, 9, 36, 0
14, 15660, Note_on_c, 9, 36, 70
14, 15670, Note_on_c, 9, 36, 0
14, 15840, Note_on_c, 9, 36, 89
14, 15850, Note_on_c, 9, 36, 0
14, 16020, Note_on_c, 9, 36, 88
14, 16030, Note_on_c, 9, 36, 0
14, 16140, Note_on_c, 9, 36, 69
14, 16150, Note_on_c, 9, 36, 0
14, 16320, Note_on_c, 9, 36, 88
14, 16330, Note_on_c, 9, 36, 0
14, 16500, Note_on_c, 9, 36, 88
14, 16510, Note_on_c, 9, 36, 0
14, 16620, Note_on_c, 9, 36, 71
14, 16630, Note_on_c, 9, 36, 0
14, 16800, Note_on_c, 9, 36, 89
14, 16810, Note_on_c, 9, 36, 0
14, 16980, Note_on_c, 9, 36, 88
14, 16990, Note_on_c, 9, 36, 0
14, 17100, Note_on_c, 9, 36, 68
14, 17110, Note_on_c, 9, 36, 0
14, 17220, Note_on_c, 9, 36, 52
14, 17230, Note_on_c, 9, 36, 0
14, 17280, Note_on_c, 9, 36, 88
14, 17290, Note_on_c, 9, 36, 0
14, 17460, Note_on_c, 9, 36, 88
14, 17470, Note_on_c, 9, 36, 0
14, 17580, Note_on_c, 9, 36, 71
14, 17590, Note_on_c, 9, 36, 0
14, 17760, Note_on_c, 9, 36, 88
14, 17770, Note_on_c, 9, 36, 0
14, 17940, Note_on_c, 9, 36, 91
14, 17950, Note_on_c, 9, 36, 0
14, 18060, Note_on_c, 9, 36, 71
14, 18070, Note_on_c, 9, 36, 0
14, 18180, Note_on_c, 9, 36, 53
14, 18190, Note_on_c, 9, 36, 0
14, 18240, Note_on_c, 9, 36, 90
14, 18250, Note_on_c, 9, 36, 0
14, 18300, Note_on_c, 9, 36, 51
14, 18310, Note_on_c, 9, 36, 0
14, 18420, Note_on_c, 9, 36, 90
14, 18430, Note_on_c, 9, 36, 0
14, 18540, Note_on_c, 9, 36, 71
14, 18550, Note_on_c, 9, 36, 0
14, 18660, Note_on_c, 9, 36, 51
14, 18670, Note_on_c, 9, 36, 0
14, 18720, Note_on_c, 9, 36, 91
14, 18730, Note_on_c, 9, 36, 0
14, 18900, Note_on_c, 9, 36, 88
14, 18910, Note_on_c, 9, 36, 0
14, 19110, Note_on_c, 9, 36, 71
14, 19120, Note_on_c, 9, 36, 0
14, 19200, Note_on_c, 9, 36, 89
14, 19210, Note_on_c, 9, 36, 0
14, 19380, Note_on_c, 9, 36, 90
14, 19390, Note_on_c, 9, 36, 0
14, 19500, Note_on_c, 9, 36, 69
14, 19510, Note_on_c, 9, 36, 0
14, 19620, Note_on_c, 9, 36, 51
14, 19630, Note_on_c, 9, 36, 0
14, 19680, Note_on_c, 9, 36, 91
14, 19690, Note_on_c, 9, 36, 0
14, 19740, Note_on_c, 9, 36, 52
14, 19750, Note_on_c, 9, 36, 0
14, 19860, Note_on_c, 9, 36, 90
14, 19870, Note_on_c, 9, 36, 0
14, 19980, Note_on_c, 9, 36, 71
14, 19990, Note_on_c, 9, 36, 0
14, 20100, Note_on_c, 9, 36, 69
14, 20110, Note_on_c, 9, 36, 0
14, 20130, Note_on_c, 9, 36, 71
14, 20140, Note_on_c, 9, 36, 0
14, 21120, Note_on_c, 9, 36, 89
14, 21130, Note_on_c, 9, 36, 0
14, 21180, Note_on_c, 9, 36, 52
14, 21190, Note_on_c, 9, 36, 0
14, 21300, Note_on_c, 9, 36, 88
14, 21310, Note_on_c, 9, 36, 0
14, 21420, Note_on_c, 9, 36, 69
14, 21430, Note_on_c, 9, 36, 0
14, 21540, Note_on_c, 9, 36, 49
14, 21550, Note_on_c, 9, 36, 0
14, 21600, Note_on_c, 9, 36, 89
14, 21610, Note_on_c, 9, 36, 0
14, 21780, Note_on_c, 9, 36, 89
14, 21790, Note_on_c, 9, 36, 0
14, 21900, Note_on_c, 9, 36, 70
14, 21910, Note_on_c, 9, 36, 0
14, 22020, Note_on_c, 9, 36, 47
14, 22030, Note_on_c, 9, 36, 0
14, 22080, Note_on_c, 9, 36, 91
14, 22090, Note_on_c, 9, 36, 0
14, 22260, Note_on_c, 9, 36, 91
14, 22270, Note_on_c, 9, 36, 0
14, 22380, Note_on_c, 9, 36, 69
14, 22390, Note_on_c, 9, 36, 0
14, 22560, Note_on_c, 9, 36, 90
14, 22570, Note_on_c, 9, 36, 0
14, 22740, Note_on_c, 9, 36, 89
14, 22750, Note_on_c, 9, 36, 0
14, 22860, Note_on_c, 9, 36, 71
14, 22870, Note_on_c, 9, 36, 0
14, 23040, Note_on_c, 9, 36, 91
14, 23050, Note_on_c, 9, 36, 0
14, 23220, Note_on_c, 9, 36, 88
14, 23230, Note_on_c, 9, 36, 0
14, 23340, Note_on_c, 9, 36, 68
14, 23350, Note_on_c, 9, 36, 0
14, 23460, Note_on_c, 9, 36, 52
14, 23470, Note_on_c, 9, 36, 0
14, 23520, Note_on_c, 9, 36, 90
14, 23530, Note_on_c, 9, 36, 0
14, 23580, Note_on_c, 9, 36, 53
14, 23590, Note_on_c, 9, 36, 0
14, 23700, Note_on_c, 9, 36, 91
14, 23710, Note_on_c, 9, 36, 0
14, 23820, Note_on_c, 9, 36, 69
14, 23830, Note_on_c, 9, 36, 0
14, 24000, Note_on_c, 9, 36, 89
14, 24010, Note_on_c, 9, 36, 0
14, 24180, Note_on_c, 9, 36, 88
14, 24190, Note_on_c, 9, 36, 0
14, 24300, Note_on_c, 9, 36, 68
14, 24310, Note_on_c, 9, 36, 0
14, 24420, Note_on_c, 9, 36, 53
14, 24430, Note_on_c, 9, 36, 0
14, 24480, Note_on_c, 9, 36, 89
14, 24490, Note_on_c, 9, 36, 0
14, 24540, Note_on_c, 9, 36, 51
14, 24550, Note_on_c, 9, 36, 0
14, 24660, Note_on_c, 9, 36, 89
14, 24670, Note_on_c, 9, 36, 0
14, 24780, Note_on_c, 9, 36, 71
14, 24790, Note_on_c, 9, 36, 0
14, 24900, Note_on_c, 9, 36, 48
14, 24910, Note_on_c, 9, 36, 0
14, 24960, Note_on_c, 9, 36, 88
14, 24970, Note_on_c, 9, 36, 0
14, 25140, Note_on_c, 9, 36, 89
14, 25150, Note_on_c, 9, 36, 0
14, 25260, Note_on_c, 9, 36, 71
14, 25270, Note_on_c, 9, 36, 0
14, 25380, Note_on_c, 9, 36, 47
14, 25390, Note_on_c, 9, 36, 0
14, 25440, Note_on_c, 9, 36, 91
14, 25450, Note_on_c, 9, 36, 0
14, 25500, Note_on_c, 9, 36, 53
14, 25510, Note_on_c, 9, 36, 0
14, 25620, Note_on_c, 9, 36, 89
14, 25630, Note_on_c, 9, 36, 0
14, 25740, Note_on_c, 9, 36, 70
14, 25750, Note_on_c, 9, 36, 0
14, 25920, Note_on_c, 9, 36, 91
14, 25930, Note_on_c, 9, 36, 0
14, 26100, Note_on_c, 9, 36, 89
14, 26110, Note_on_c, 9, 36, 0
14, 26220, Note_on_c, 9, 36, 68
14, 26230, Note_on_c, 9, 36, 0
14, 26400, Note_on_c, 9, 36, 90
14, 26410, Note_on_c, 9, 36, 0
14, 26580, Note_on_c, 9, 36, 89
14, 26590, Note_on_c, 9, 36, 0
14, 26700, Note_on_c, 9, 36, 70
14, 26710, Note_on_c, 9, 36, 0
14, 26820, Note_on_c, 9, 36, 47
14, 26830, Note_on_c, 9, 36, 0
14, 26880, Note_on_c, 9, 36, 89
14, 26890, Note_on_c, 9, 36, 0
14, 27060, Note_on_c, 9, 36, 91
14, 27070, Note_on_c, 9, 36, 0
14, 27180, Note_on_c, 9, 36, 70
14, 27190, Note_on_c, 9, 36, 0
14, 27360, Note_on_c, 9, 36, 88
14, 27370, Note_on_c, 9, 36, 0
14, 27540, Note_on_c, 9, 36, 90
14, 27550, Note_on_c, 9, 36, 0
14, 27660, Note_on_c, 9, 36, 70
14, 27670, Note_on_c, 9, 36, 0
14, 27840, Note_on_c, 9, 36, 89
14, 27850, Note_on_c, 9, 36, 0
14, 28020, Note_on_c, 9, 36, 91
14, 28030, Note_on_c, 9, 36, 0
14, 28140, Note_on_c, 9, 36, 70
14, 28150, Note_on_c, 9, 36, 0
14, 28320, Note_on_c, 9, 36, 91
14, 28330, Note_on_c, 9, 36, 0
14, 28500, Note_on_c, 9, 36, 89
14, 28510, Note_on_c, 9, 36, 0
14, 28620, Note_on_c, 9, 36, 69
14, 28630, Note_on_c, 9, 36, 0
14, 28800, Note_on_c, 9, 36, 88
14, 28810, Note_on_c, 9, 36, 0
14, 28860, Note_on_c, 9, 36, 52
14, 28870, Note_on_c, 9, 36, 0
14, 28980, Note_on_c, 9, 36, 89
14, 28990, Note_on_c, 9, 36, 0
14, 29100, Note_on_c, 9, 36, 68
14, 29110, Note_on_c, 9, 36, 0
14, 29220, Note_on_c, 9, 36, 47
14, 29230, Note_on_c, 9, 36, 0
14, 29280, Note_on_c, 9, 36, 91
14, 29290, Note_on_c, 9, 36, 0
14, 29460, Note_on_c, 9, 36, 90
14, 29470, Note_on_c, 9, 36, 0
14, 29580, Note_on_c, 9, 36, 68
14, 29590, Note_on_c, 9, 36, 0
14, 29700, Note_on_c, 9, 36, 50
14, 29710, Note_on_c, 9, 36, 0
14, 30720, Note_on_c, 9, 36, 90
14, 30730, Note_on_c, 9, 36, 0
14, 30900, Note_on_c, 9, 36, 90
14, 30910, Note_on_c, 9, 36, 0
14, 31020, Note_on_c, 9, 36, 71
14, 31030, Note_on_c, 9, 36, 0
14, 31200, Note_on_c, 9, 36, 91
14, 31210, Note_on_c, 9, 36, 0
14, 31260, Note_on_c, 9, 36, 52
14, 31270, Note_on_c, 9, 36, 0
14, 31380, Note_on_c, 9, 36, 91
14, 31390, Note_on_c, 9, 36, 0
14, 31500, Note_on_c, 9, 36, 68
14, 31510, Note_on_c, 9, 36, 0
14, 31680, Note_on_c, 9, 36, 90
14, 31690, Note_on_c, 9, 36, 0
14, 31860, Note_on_c, 9, 36, 89
14, 31870, Note_on_c, 9, 36, 0
14, 31980, Note_on_c, 9, 36, 71
14, 31990, Note_on_c, 9, 36, 0
14, 32100, Note_on_c, 9, 36, 51
14, 32110, Note_on_c, 9, 36, 0
14, 32160, Note_on_c, 9, 36, 91
14, 32170, Note_on_c, 9, 36, 0
14, 32340, Note_on_c, 9, 36, 90
14, 32350, Note_on_c, 9, 36, 0
14, 32460, Note_on_c, 9, 36, 69
14, 32470, Note_on_c, 9, 36, 0
14, 32580, Note_on_c, 9, 36, 50
14, 32590, Note_on_c, 9, 36, 0
14, 32640, Note_on_c, 9, 36, 91
14, 32650, Note_on_c, 9, 36, 0
14, 32820, Note_on_c, 9, 36, 89
14, 32830, Note_on_c, 9, 36, 0
14, 32940, Note_on_c, 9, 36, 70
14, 32950, Note_on_c, 9, 36, 0
14, 33120, Note_on_c, 9, 36, 88
14, 33130, Note_on_c, 9, 36, 0
14, 33300, Note_on_c, 9, 36, 88
14, 33310, Note_on_c, 9, 36, 0
14, 33420, Note_on_c, 9, 36, 71
14, 33430, Note_on_c, 9, 36, 0
14, 34560, Note_on_c, 9, 36, 88
14, 34570, Note_on_c, 9, 36, 0
14, 34740, Note_on_c, 9, 36, 91
14, 34750, Note_on_c, 9, 36, 0
14, 34860, Note_on_c, 9, 36, 70
14, 34870, Note_on_c, 9, 36, 0
14, 35040, Note_on_c, 9, 36, 88
14, 35050, Note_on_c, 9, 36, 0
14, 35220, Note_on_c, 9, 36, 89
14, 35230, Note_on_c, 9, 36, 0
14, 35340, Note_on_c, 9, 36, 69
14, 35350, Note_on_c, 9, 36, 0
14, 35520, Note_on_c, 9, 36, 89
14, 35530, Note_on_c, 9, 36, 0
14, 35580, Note_on_c, 9, 36, 47
14, 35590, Note_on_c, 9, 36, 0
14, 35700, Note_on_c, 9, 36, 91
14, 35710, Note_on_c, 9, 36, 0
14, 35820, Note_on_c, 9, 36, 70
14, 35830, Note_on_c, 9, 36, 0
14, 36000, Note_on_c, 9, 36, 88
14, 36010, Note_on_c, 9, 36, 0
14, 36060, Note_on_c, 9, 36, 51
14, 36070, Note_on_c, 9, 36, 0
14, 36180, Note_on_c, 9, 36, 91
14, 36190, Note_on_c, 9, 36, 0
14, 36300, Note_on_c, 9, 36, 71
14, 36310, Note_on_c, 9, 36, 0
14, 36420, Note_on_c, 9, 36, 47
14, 36430, Note_on_c, 9, 36, 0
14, 36480, Note_on_c, 9, 36, 88
14, 36490, Note_on_c, 9, 36, 0
14, 36540, Note_on_c, 9, 36, 48
14, 36550, Note_on_c, 9, 36, 0
14, 36660, Note_on_c, 9, 36, 89
14, 36670, Note_on_c, 9, 36, 0
14, 36780, Note_on_c, 9, 36, 69
14, 36790, Note_on_c, 9, 36, 0
14, 36900, Note_on_c, 9, 36, 49
14, 36910, Note_on_c, 9, 36, 0
14, 36960, Note_on_c, 9, 36, 90
14, 36970, Note_on_c, 9, 36, 0
14, 37140, Note_on_c, 9, 36, 90
14, 37150, Note_on_c, 9, 36, 0
14, 37260, Note_on_c, 9, 36, 89
14, 37270, Note_on_c, 9, 36, 0
14, 38400, Note_on_c, 9, 36, 89
14, 38410, Note_on_c, 9, 36, 0
14, 38460, Note_on_c, 9, 36, 52
14, 38470, Note_on_c, 9, 36, 0
14, 38580, Note_on_c, 9, 36, 89
14, 38590, Note_on_c, 9, 36, 0
14, 38700, Note_on_c, 9, 36, 68
14, 38710, Note_on_c, 9, 36, 0
14, 38880, Note_on_c, 9, 36, 89
14, 38890, Note_on_c, 9, 36, 0
14, 39060, Note_on_c, 9, 36, 89
14, 39070, Note_on_c, 9, 36, 0
14, 39180, Note_on_c, 9, 36, 68
14, 39190, Note_on_c, 9, 36, 0
14, 39360, Note_on_c, 9, 36, 88
14, 39370, Note_on_c, 9, 36, 0
14, 39420, Note_on_c, 9, 36, 50
14, 39430, Note_on_c, 9, 36, 0
14, 39540, Note_on_c, 9, 36, 88
14, 39550, Note_on_c, 9, 36, 0
14, 39660, Note_on_c, 9, 36, 68
14, 39670, Note_on_c, 9, 36, 0
14, 39780, Note_on_c, 9, 36, 50
14, 39790, Note_on_c, 9, 36, 0
14, 39840, Note_on_c, 9, 36, 89
14, 39850, Note_on_c, 9, 36, 0
14, 39900, Note_on_c, 9, 36, 50
14, 39910, Note_on_c, 9, 36, 0
14, 40020, Note_on_c, 9, 36, 90
14, 40030, Note_on_c, 9, 36, 0
14, 40140, Note_on_c, 9, 36, 68
14, 40150, Note_on_c, 9, 36, 0
14, 40260, Note_on_c, 9, 36, 70
14, 40270, Note_on_c, 9, 36, 0
14, 40320, Note_on_c, 9, 36, 89
14, 40330, Note_on_c, 9, 36, 0
14, 40500, Note_on_c, 9, 36, 89
14, 40510, Note_on_c, 9, 36, 0
14, 40620, Note_on_c, 9, 36, 68
14, 40630, Note_on_c, 9, 36, 0
14, 40740, Note_on_c, 9, 36, 48
14, 40750, Note_on_c, 9, 36, 0
14, 40800, Note_on_c, 9, 36, 88
14, 40810, Note_on_c, 9, 36, 0
14, 40860, Note_on_c, 9, 36, 51
14, 40870, Note_on_c, 9, 36, 0
14, 40980, Note_on_c, 9, 36, 90
14, 40990, Note_on_c, 9, 36, 0
14, 41100, Note_on_c, 9, 36, 69
14, 41110, Note_on_c, 9, 36, 0
14, 41220, Note_on_c, 9, 36, 70
14, 41230, Note_on_c, 9, 36, 0
14, 41280, Note_on_c, 9, 36, 90
14, 41290, Note_on_c, 9, 36, 0
14, 41340, Note_on_c, 9, 36, 50
14, 41350, Note_on_c, 9, 36, 0
14, 41460, Note_on_c, 9, 36, 91
14, 41470, Note_on_c, 9, 36, 0
14, 41580, Note_on_c, 9, 36, 68
14, 41590, Note_on_c, 9, 36, 0
14, 41590, End_track
15, 0, Start_track
15, 0, MIDI_port, 0
15, 360, Note_on_c, 9, 40, 114
15, 370, Note_on_c, 9, 40, 0
15, 600, Note_on_c, 9, 40, 114
15, 610, Note_on_c, 9, 40, 0
15, 840, Note_on_c, 9, 40, 115
15, 850, Note_on_c, 9, 40, 0
15, 1080, Note_on_c, 9, 40, 116
15, 1090, Note_on_c, 9, 40, 0
15, 1320, Note_on_c, 9, 40, 116
15, 1330, Note_on_c, 9, 40, 0
15, 1440, Note_on_c, 9, 40, 114
15, 1450, Note_on_c, 9, 40, 0
15, 1680, Note_on_c, 9, 40, 93
15, 1690, Note_on_c, 9, 40, 0
15, 1710, Note_on_c, 9, 40, 96
15, 1720, Note_on_c, 9, 40, 0
15, 1800, Note_on_c, 9, 40, 113
15, 1810, Note_on_c, 9, 40, 0
15, 1830, Note_on_c, 9, 40, 94
15, 1840, Note_on_c, 9, 40, 0
15, 2040, Note_on_c, 9, 40, 114
15, 2050, Note_on_c, 9, 40, 0
15, 2280, Note_on_c, 9, 40, 116
15, 2290, Note_on_c, 9, 40, 0
15, 2520, Note_on_c, 9, 40, 115
15, 2530, Note_on_c, 9, 40, 0
15, 2760, Note_on_c, 9, 40, 114
15, 2770, Note_on_c, 9, 40, 0
15, 3000, Note_on_c, 9, 40, 114
15, 3010, Note_on_c, 9, 40, 0
15, 3240, Note_on_c, 9, 40, 114
15, 3250, Note_on_c, 9, 40, 0
15, 3480, Note_on_c, 9, 40, 115
15, 3490, Note_on_c, 9, 40, 0
15, 3630, Note_on_c, 9, 40, 37
15, 3640, Note_on_c, 9, 40, 0
15, 3660, Note_on_c, 9, 40, 115
15, 3670, Note_on_c, 9, 40, 0
15, 3720, Note_on_c, 9, 40, 37
15, 3730, Note_on_c, 9, 40, 0
15, 3750, Note_on_c, 9, 40, 42
15, 3760, Note_on_c, 9, 40, 0
15, 3960, Note_on_c, 9, 40, 116
15, 3970, Note_on_c, 9, 40, 0
15, 4200, Note_on_c, 9, 40, 116
15, 4210, Note_on_c, 9, 40, 0
15, 4440, Note_on_c, 9, 40, 115
15, 4450, Note_on_c, 9, 40, 0
15, 4680, Note_on_c, 9, 40, 116
15, 4690, Note_on_c, 9, 40, 0
15, 4920, Note_on_c, 9, 40, 116
15, 4930, Note_on_c, 9, 40, 0
15, 5160, Note_on_c, 9, 40, 116
15, 5170, Note_on_c, 9, 40, 0
15, 5400, Note_on_c, 9, 40, 113
15, 5410, Note_on_c, 9, 40, 0
15, 5640, Note_on_c, 9, 40, 116
15, 5650, Note_on_c, 9, 40, 0
15, 5880, Note_on_c, 9, 40, 113
15, 5890, Note_on_c, 9, 40, 0
15, 6120, Note_on_c, 9, 40, 115
15, 6130, Note_on_c, 9, 40, 0
15, 6360, Note_on_c, 9, 40, 114
15, 6370, Note_on_c, 9, 40, 0
15, 6600, Note_on_c, 9, 40, 114
15, 6610, Note_on_c, 9, 40, 0
15, 6840, Note_on_c, 9, 40, 115
15, 6850, Note_on_c, 9, 40, 0
15, 7080, Note_on_c, 9, 40, 114
15, 7090, Note_on_c, 9, 40, 0
15, 7320, Note_on_c, 9, 40, 114
15, 7330, Note_on_c, 9, 40, 0
15, 7440, Note_on_c, 9, 40, 43
15, 7450, Note_on_c, 9, 40, 0
15, 7470, Note_on_c, 9, 40, 77
15, 7480, Note_on_c, 9, 40, 0
15, 7560, Note_on_c, 9, 40, 116
15, 7570, Note_on_c, 9, 40, 0
15, 7570, Note_on_c, 9, 40, 93
15, 7580, Note_on_c, 9, 40, 0
15, 7800, Note_on_c, 9, 40, 116
15, 7810, Note_on_c, 9, 40, 0
15, 8040, Note_on_c, 9, 40, 115
15, 8050, Note_on_c, 9, 40, 0
15, 8280, Note_on_c, 9, 40, 113
15, 8290, Note_on_c, 9, 40, 0
15, 8520, Note_on_c, 9, 40, 114
15, 8530, Note_on_c, 9, 40, 0
15, 8760, Note_on_c, 9, 40, 114
15, 8770, Note_on_c, 9, 40, 0
15, 9000, Note_on_c, 9, 40, 116
15, 9010, Note_on_c, 9, 40, 0
15, 9240, Note_on_c, 9, 40, 113
15, 9250, Note_on_c, 9, 40, 0
15, 9480, Note_on_c, 9, 40, 113
15, 9490, Note_on_c, 9, 40, 0
15, 9720, Note_on_c, 9, 40, 114
15, 9730, Note_on_c, 9, 40, 0
15, 9960, Note_on_c, 9, 40, 114
15, 9970, Note_on_c, 9, 40, 0
15, 10200, Note_on_c, 9, 40, 114
15, 10210, Note_on_c, 9, 40, 0
15, 10350, Note_on_c, 9, 40, 78
15, 10360, Note_on_c, 9, 40, 0
15, 10440, Note_on_c, 9, 40, 115
15, 10450, Note_on_c, 9, 40, 0
15, 11640, Note_on_c, 9, 40, 114
15, 11650, Note_on_c, 9, 40, 0
15, 11880, Note_on_c, 9, 40, 114
15, 11890, Note_on_c, 9, 40, 0
15, 12120, Note_on_c, 9, 40, 114
15, 12130, Note_on_c, 9, 40, 0
15, 12360, Note_on_c, 9, 40, 114
15, 12370, Note_on_c, 9, 40, 0
15, 12600, Note_on_c, 9, 40, 115
15, 12610, Note_on_c, 9, 40, 0
15, 12840, Note_on_c, 9, 40, 114
15, 12850, Note_on_c, 9, 40, 0
15, 13080, Note_on_c, 9, 40, 114
15, 13090, Note_on_c, 9, 40, 0
15, 13320, Note_on_c, 9, 40, 115
15, 13330, Note_on_c, 9, 40, 0
15, 13350, Note_on_c, 9, 40, 74
15, 13360, Note_on_c, 9, 40, 0
15, 13560, Note_on_c, 9, 40, 114
15, 13570, Note_on_c, 9, 40, 0
15, 13800, Note_on_c, 9, 40, 113
15, 13810, Note_on_c, 9, 40, 0
15, 14040, Note_on_c, 9, 40, 115
15, 14050, Note_on_c, 9, 40, 0
15, 14280, Note_on_c, 9, 40, 113
15, 14290, Note_on_c, 9, 40, 0
15, 14520, Note_on_c, 9, 40, 114
15, 14530, Note_on_c, 9, 40, 0
15, 14760, Note_on_c, 9, 40, 114
15, 14770, Note_on_c, 9, 40, 0
15, 15000, Note_on_c, 9, 40, 114
15, 15010, Note_on_c, 9, 40, 0
15, 15140, Note_on_c, 9, 40, 42
15, 15150, Note_on_c, 9, 40, 0
15, 15160, Note_on_c, 9, 40, 41
15, 15170, Note_on_c, 9, 40, 0
15, 15180, Note_on_c, 9, 40, 116
15, 15190, Note_on_c, 9, 40, 0
15, 15480, Note_on_c, 9, 40, 114
15, 15490, Note_on_c, 9, 40, 0
15, 15720, Note_on_c, 9, 40, 113
15, 15730, Note_on_c, 9, 40, 0
15, 15960, Note_on_c, 9, 40, 113
15, 15970, Note_on_c, 9, 40, 0
15, 16200, Note_on_c, 9, 40, 115
15, 16210, Note_on_c, 9, 40, 0
15, 16440, Note_on_c, 9, 40, 116
15, 16450, Note_on_c, 9, 40, 0
15, 16680, Note_on_c, 9, 40, 113
15, 16690, Note_on_c, 9, 40, 0
15, 16920, Note_on_c, 9, 40, 114
15, 16930, Note_on_c, 9, 40, 0
15, 17040, Note_on_c, 9, 40, 39
15, 17050, Note_on_c, 9, 40, 0
15, 17070, Note_on_c, 9, 40, 41
15, 17080, Note_on_c, 9, 40, 0
15, 17100, Note_on_c, 9, 40, 115
15, 17110, Note_on_c, 9, 40, 0
15, 17160, Note_on_c, 9, 40, 116
15, 17170, Note_on_c, 9, 40, 0
15, 17220, Note_on_c, 9, 40, 93
15, 17230, Note_on_c, 9, 40, 0
15, 17400, Note_on_c, 9, 40, 114
15, 17410, Note_on_c, 9, 40, 0
15, 17640, Note_on_c, 9, 40, 115
15, 17650, Note_on_c, 9, 40, 0
15, 17880, Note_on_c, 9, 40, 115
15, 17890, Note_on_c, 9, 40, 0
15, 18120, Note_on_c, 9, 40, 114
15, 18130, Note_on_c, 9, 40, 0
15, 18360, Note_on_c, 9, 40, 114
15, 18370, Note_on_c, 9, 40, 0
15, 18600, Note_on_c, 9, 40, 115
15, 18610, Note_on_c, 9, 40, 0
15, 18840, Note_on_c, 9, 40, 113
15, 18850, Note_on_c, 9, 40, 0
15, 19020, Note_on_c, 9, 40, 74
15, 19030, Note_on_c, 9, 40, 0
15, 19050, Note_on_c, 9, 40, 95
15, 19060, Note_on_c, 9, 40, 0
15, 19080, Note_on_c, 9, 40, 78
15, 19090, Note_on_c, 9, 40, 0
15, 19140, Note_on_c, 9, 40, 93
15, 19150, Note_on_c, 9, 40, 0
15, 19170, Note_on_c, 9, 40, 73
15, 19180, Note_on_c, 9, 40, 0
15, 19320, Note_on_c, 9, 40, 115
15, 19330, Note_on_c, 9, 40, 0
15, 19560, Note_on_c, 9, 40, 114
15, 19570, Note_on_c, 9, 40, 0
15, 19800, Note_on_c, 9, 40, 114
15, 19810, Note_on_c, 9, 40, 0
15, 20040, Note_on_c, 9, 40, 116
15, 20050, Note_on_c, 9, 40, 0
15, 20070, Note_on_c, 9, 40, 78
15, 20080, Note_on_c, 9, 40, 0
15, 21240, Note_on_c, 9, 40, 114
15, 21250, Note_on_c, 9, 40, 0
15, 21480, Note_on_c, 9, 40, 115
15, 21490, Note_on_c, 9, 40, 0
15, 21720, Note_on_c, 9, 40, 115
15, 21730, Note_on_c, 9, 40, 0
15, 21960, Note_on_c, 9, 40, 115
15, 21970, Note_on_c, 9, 40, 0
15, 22200, Note_on_c, 9, 40, 115
15, 22210, Note_on_c, 9, 40, 0
15, 22440, Note_on_c, 9, 40, 116
15, 22450, Note_on_c, 9, 40, 0
15, 22680, Note_on_c, 9, 40, 113
15, 22690, Note_on_c, 9, 40, 0
15, 22800, Note_on_c, 9, 40, 113
15, 22810, Note_on_c, 9, 40, 0
15, 23160, Note_on_c, 9, 40, 114
15, 23170, Note_on_c, 9, 40, 0
15, 23400, Note_on_c, 9, 40, 116
15, 23410, Note_on_c, 9, 40, 0
15, 23640, Note_on_c, 9, 40, 116
15, 23650, Note_on_c, 9, 40, 0
15, 23880, Note_on_c, 9, 40, 113
15, 23890, Note_on_c, 9, 40, 0
15, 24120, Note_on_c, 9, 40, 115
15, 24130, Note_on_c, 9, 40, 0
15, 24360, Note_on_c, 9, 40, 114
15, 24370, Note_on_c, 9, 40, 0
15, 24600, Note_on_c, 9, 40, 115
15, 24610, Note_on_c, 9, 40, 0
15, 24780, Note_on_c, 9, 40, 116
15, 24790, Note_on_c, 9, 40, 0
15, 24840, Note_on_c, 9, 40, 38
15, 24850, Note_on_c, 9, 40, 0
15, 24870, Note_on_c, 9, 40, 37
15, 24880, Note_on_c, 9, 40, 0
15, 24900, Note_on_c, 9, 40, 113
15, 24910, Note_on_c, 9, 40, 0
15, 24930, Note_on_c, 9, 40, 93
15, 24940, Note_on_c, 9, 40, 0
15, 25080, Note_on_c, 9, 40, 113
15, 25090, Note_on_c, 9, 40, 0
15, 25320, Note_on_c, 9, 40, 116
15, 25330, Note_on_c, 9, 40, 0
15, 25560, Note_on_c, 9, 40, 113
15, 25570, Note_on_c, 9, 40, 0
15, 25800, Note_on_c, 9, 40, 113
15, 25810, Note_on_c, 9, 40, 0
15, 26040, Note_on_c, 9, 40, 113
15, 26050, Note_on_c, 9, 40, 0
15, 26280, Note_on_c, 9, 40, 115
15, 26290, Note_on_c, 9, 40, 0
15, 26520, Note_on_c, 9, 40, 115
15, 26530, Note_on_c, 9, 40, 0
15, 26670, Note_on_c, 9, 40, 39
15, 26680, Note_on_c, 9, 40, 0
15, 26700, Note_on_c, 9, 40, 115
15, 26710, Note_on_c, 9, 40, 0
15, 26730, Note_on_c, 9, 40, 96
15, 26740, Note_on_c, 9, 40, 0
15, 26760, Note_on_c, 9, 40, 115
15, 26770, Note_on_c, 9, 40, 0
15, 26820, Note_on_c, 9, 40, 95
15, 26830, Note_on_c, 9, 40, 0
15, 27000, Note_on_c, 9, 40, 113
15, 27010, Note_on_c, 9, 40, 0
15, 27240, Note_on_c, 9, 40, 115
15, 27250, Note_on_c, 9, 40, 0
15, 27480, Note_on_c, 9, 40, 113
15, 27490, Note_on_c, 9, 40, 0
15, 27720, Note_on_c, 9, 40, 113
15, 27730, Note_on_c, 9, 40, 0
15, 27960, Note_on_c, 9, 40, 115
15, 27970, Note_on_c, 9, 40, 0
15, 28200, Note_on_c, 9, 40, 115
15, 28210, Note_on_c, 9, 40, 0
15, 28440, Note_on_c, 9, 40, 115
15, 28450, Note_on_c, 9, 40, 0
15, 28680, Note_on_c, 9, 40, 113
15, 28690, Note_on_c, 9, 40, 0
15, 28920, Note_on_c, 9, 40, 114
15, 28930, Note_on_c, 9, 40, 0
15, 29160, Note_on_c, 9, 40, 113
15, 29170, Note_on_c, 9, 40, 0
15, 29400, Note_on_c, 9, 40, 116
15, 29410, Note_on_c, 9, 40, 0
15, 29520, Note_on_c, 9, 40, 114
15, 29530, Note_on_c, 9, 40, 0
15, 29550, Note_on_c, 9, 40, 95
15, 29560, Note_on_c, 9, 40, 0
15, 29580, Note_on_c, 9, 40, 75
15, 29590, Note_on_c, 9, 40, 0
15, 29610, Note_on_c, 9, 40, 78
15, 29620, Note_on_c, 9, 40, 0
15, 29640, Note_on_c, 9, 40, 115
15, 29650, Note_on_c, 9, 40, 0
15, 29670, Note_on_c, 9, 40, 93
15, 29680, Note_on_c, 9, 40, 0
15, 29700, Note_on_c, 9, 40, 78
15, 29710, Note_on_c, 9, 40, 0
15, 29730, Note_on_c, 9, 40, 76
15, 29740, Note_on_c, 9, 40, 0
15, 30840, Note_on_c, 9, 40, 116
15, 30850, Note_on_c, 9, 40, 0
15, 31080, Note_on_c, 9, 40, 114
15, 31090, Note_on_c, 9, 40, 0
15, 31320, Note_on_c, 9, 40, 116
15, 31330, Note_on_c, 9, 40, 0
15, 31560, Note_on_c, 9, 40, 113
15, 31570, Note_on_c, 9, 40, 0
15, 31800, Note_on_c, 9, 40, 114
15, 31810, Note_on_c, 9, 40, 0
15, 32040, Note_on_c, 9, 40, 116
15, 32050, Note_on_c, 9, 40, 0
15, 32280, Note_on_c, 9, 40, 114
15, 32290, Note_on_c, 9, 40, 0
15, 32520, Note_on_c, 9, 40, 114
15, 32530, Note_on_c, 9, 40, 0
15, 32760, Note_on_c, 9, 40, 116
15, 32770, Note_on_c, 9, 40, 0
15, 33000, Note_on_c, 9, 40, 116
15, 33010, Note_on_c, 9, 40, 0
15, 33240, Note_on_c, 9, 40, 115
15, 33250, Note_on_c, 9, 40, 0
15, 33420, Note_on_c, 9, 40, 114
15, 33430, Note_on_c, 9, 40, 0
15, 33480, Note_on_c, 9, 40, 39
15, 33490, Note_on_c, 9, 40, 0
15, 33510, Note_on_c, 9, 40, 42
15, 33520, Note_on_c, 9, 40, 0
15, 34680, Note_on_c, 9, 40, 116
15, 34690, Note_on_c, 9, 40, 0
15, 34920, Note_on_c, 9, 40, 114
15, 34930, Note_on_c, 9, 40, 0
15, 35160, Note_on_c, 9, 40, 113
15, 35170, Note_on_c, 9, 40, 0
15, 35280, Note_on_c, 9, 40, 113
15, 35290, Note_on_c, 9, 40, 0
15, 35640, Note_on_c, 9, 40, 116
15, 35650, Note_on_c, 9, 40, 0
15, 35880, Note_on_c, 9, 40, 114
15, 35890, Note_on_c, 9, 40, 0
15, 36120, Note_on_c, 9, 40, 115
15, 36130, Note_on_c, 9, 40, 0
15, 36360, Note_on_c, 9, 40, 116
15, 36370, Note_on_c, 9, 40, 0
15, 36600, Note_on_c, 9, 40, 114
15, 36610, Note_on_c, 9, 40, 0
15, 36840, Note_on_c, 9, 40, 114
15, 36850, Note_on_c, 9, 40, 0
15, 37080, Note_on_c, 9, 40, 113
15, 37090, Note_on_c, 9, 40, 0
15, 37200, Note_on_c, 9, 40, 38
15, 37210, Note_on_c, 9, 40, 0
15, 37230, Note_on_c, 9, 40, 77
15, 37240, Note_on_c, 9, 40, 0
15, 37320, Note_on_c, 9, 40, 113
15, 37330, Note_on_c, 9, 40, 0
15, 37330, Note_on_c, 9, 40, 94
15, 37340, Note_on_c, 9, 40, 0
15, 38520, Note_on_c, 9, 40, 115
15, 38530, Note_on_c, 9, 40, 0
15, 38760, Note_on_c, 9, 40, 113
15, 38770, Note_on_c, 9, 40, 0
15, 39000, Note_on_c, 9, 40, 114
15, 39010, Note_on_c, 9, 40, 0
15, 39240, Note_on_c, 9, 40, 116
15, 39250, Note_on_c, 9, 40, 0
15, 39250, Note_on_c, 9, 40, 95
15, 39260, Note_on_c, 9, 40, 0
15, 39480, Note_on_c, 9, 40, 114
15, 39490, Note_on_c, 9, 40, 0
15, 39720, Note_on_c, 9, 40, 114
15, 39730, Note_on_c, 9, 40, 0
15, 39960, Note_on_c, 9, 40, 113
15, 39970, Note_on_c, 9, 40, 0
15, 40200, Note_on_c, 9, 40, 114
15, 40210, Note_on_c, 9, 40, 0
15, 40440, Note_on_c, 9, 40, 115
15, 40450, Note_on_c, 9, 40, 0
15, 40680, Note_on_c, 9, 40, 116
15, 40690, Note_on_c, 9, 40, 0
15, 40920, Note_on_c, 9, 40, 116
15, 40930, Note_on_c, 9, 40, 0
15, 41130, Note_on_c, 9, 40, 77
15, 41140, Note_on_c, 9, 40, 0
15, 41160, Note_on_c, 9, 40, 116
15, 41170, Note_on_c, 9, 40, 0
15, 41250, Note_on_c, 9, 40, 76
15, 41260, Note_on_c, 9, 40, 0
15, 41400, Note_on_c, 9, 40, 116
15, 41410, Note_on_c, 9, 40, 0
15, 41640, Note_on_c, 9, 40, 115
15, 41650, Note_on_c, 9, 40, 0
15, 41650, End_track
0, 0, End_of_file
