0, 0, Header, 1, 17, 96
1, 0, Start_track
1, 0, Title_t, "untitled"
1, 0, Time_signature, 4, 2, 24, 8
1, 0, Key_signature, 0, "major"
1, 0, Tempo, 389610
1, 768, Marker_t, "Intro"
1, 3456, Marker_t, "Verse 1"
1, 10752, Marker_t, "Verse 2"
1, 18048, Marker_t, "Chorus"
1, 22272, Marker_t, "Guitar Solo"
1, 28416, Marker_t, "Verse 3"
1, 34944, Marker_t, "Chorus"
1, 40320, Marker_t, "Outro"
1, 40320, End_track
2, 0, Start_track
2, 0, MIDI_port, 0
2, 0, Title_t, "Controllers"
2, 0, Control_c, 0, 121, 0
2, 0, Control_c, 2, 121, 0
2, 0, Control_c, 3, 121, 0
2, 0, Control_c, 4, 121, 0
2, 0, Control_c, 5, 121, 0
2, 0, Control_c, 6, 121, 0
2, 0, Control_c, 7, 121, 0
2, 0, Control_c, 8, 121, 0
2, 0, Control_c, 9, 121, 0
2, 0, Control_c, 10, 121, 0
2, 0, Control_c, 11, 121, 0
2, 0, Control_c, 12, 121, 0
2, 0, Control_c, 13, 121, 0
2, 0, Control_c, 14, 121, 0
2, 0, Control_c, 15, 121, 0
2, 0, Control_c, 1, 121, 0
2, 50304, Control_c, 0, 123, 0
2, 50304, Control_c, 15, 121, 127
2, 50304, Control_c, 14, 121, 127
2, 50304, Control_c, 13, 121, 127
2, 50304, Control_c, 12, 121, 127
2, 50304, Control_c, 11, 121, 127
2, 50304, Control_c, 10, 121, 127
2, 50304, Control_c, 9, 121, 127
2, 50304, Control_c, 8, 121, 127
2, 50304, Control_c, 7, 121, 127
2, 50304, Control_c, 6, 121, 127
2, 50304, Control_c, 5, 121, 127
2, 50304, Control_c, 4, 121, 127
2, 50304, Control_c, 3, 121, 127
2, 50304, Control_c, 2, 121, 127
2, 50304, Control_c, 1, 121, 127
2, 50304, Control_c, 0, 121, 127
2, 50304, Control_c, 15, 120, 127
2, 50304, Control_c, 14, 120, 127
2, 50304, Control_c, 13, 120, 127
2, 50304, Control_c, 1, 120, 127
2, 50304, Control_c, 0, 120, 127
2, 50304, Control_c, 2, 120, 127
2, 50304, Control_c, 3, 120, 127
2, 50304, Control_c, 4, 120, 127
2, 50304, Control_c, 5, 120, 127
2, 50304, Control_c, 6, 120, 127
2, 50304, Control_c, 7, 120, 127
2, 50304, Control_c, 8, 120, 127
2, 50304, Control_c, 9, 120, 127
2, 50304, Control_c, 1, 123, 0
2, 50304, Control_c, 10, 120, 127
2, 50304, Control_c, 11, 120, 127
2, 50304, Control_c, 12, 120, 127
2, 50304, Control_c, 15, 123, 0
2, 50304, Control_c, 14, 123, 0
2, 50304, Control_c, 13, 123, 0
2, 50304, Control_c, 12, 123, 0
2, 50304, Control_c, 11, 123, 0
2, 50304, Control_c, 10, 123, 0
2, 50304, Control_c, 9, 123, 0
2, 50304, Control_c, 8, 123, 0
2, 50304, Control_c, 7, 123, 0
2, 50304, Control_c, 6, 123, 0
2, 50304, Control_c, 5, 123, 0
2, 50304, Control_c, 4, 123, 0
2, 50304, Control_c, 3, 123, 0
2, 50304, Control_c, 2, 123, 0
2, 50304, End_track
3, 0, Start_track
3, 0, MIDI_port, 0
3, 0, Title_t, "Fretless Bass"
3, 0, Program_c, 1, 33
3, 0, Control_c, 1, 7, 104
3, 0, Control_c, 1, 10, 44
3, 1, Program_c, 1, 35
3, 3, Control_c, 1, 11, 120
3, 4, Control_c, 1, 7, 104
3, 3456, Note_on_c, 1, 40, 127
3, 3504, Note_on_c, 1, 40, 0
3, 3504, Note_on_c, 1, 40, 110
3, 3552, Note_on_c, 1, 40, 0
3, 3552, Note_on_c, 1, 40, 127
3, 3600, Note_on_c, 1, 40, 0
3, 3600, Note_on_c, 1, 40, 111
3, 3648, Note_on_c, 1, 40, 0
3, 3648, Note_on_c, 1, 40, 127
3, 3696, Note_on_c, 1, 40, 0
3, 3696, Note_on_c, 1, 40, 111
3, 3744, Note_on_c, 1, 40, 0
3, 3744, Note_on_c, 1, 40, 127
3, 3792, Note_on_c, 1, 40, 0
3, 3792, Note_on_c, 1, 40, 111
3, 3840, Note_on_c, 1, 40, 0
3, 3840, Note_on_c, 1, 40, 127
3, 3888, Note_on_c, 1, 40, 0
3, 3888, Note_on_c, 1, 40, 110
3, 3936, Note_on_c, 1, 40, 0
3, 3936, Note_on_c, 1, 40, 127
3, 3984, Note_on_c, 1, 40, 0
3, 3984, Note_on_c, 1, 40, 111
3, 4032, Note_on_c, 1, 40, 0
3, 4032, Note_on_c, 1, 40, 127
3, 4080, Note_on_c, 1, 40, 0
3, 4080, Note_on_c, 1, 40, 111
3, 4128, Note_on_c, 1, 40, 0
3, 4128, Note_on_c, 1, 40, 127
3, 4176, Note_on_c, 1, 40, 0
3, 4176, Note_on_c, 1, 40, 111
3, 4224, Note_on_c, 1, 40, 0
3, 4224, Note_on_c, 1, 40, 127
3, 4272, Note_on_c, 1, 40, 0
3, 4272, Note_on_c, 1, 40, 110
3, 4320, Note_on_c, 1, 40, 0
3, 4320, Note_on_c, 1, 40, 127
3, 4368, Note_on_c, 1, 40, 0
3, 4368, Note_on_c, 1, 40, 111
3, 4416, Note_on_c, 1, 40, 0
3, 4416, Note_on_c, 1, 40, 127
3, 4464, Note_on_c, 1, 40, 0
3, 4464, Note_on_c, 1, 40, 111
3, 4512, Note_on_c, 1, 40, 0
3, 4512, Note_on_c, 1, 40, 127
3, 4560, Note_on_c, 1, 40, 0
3, 4560, Note_on_c, 1, 40, 111
3, 4608, Note_on_c, 1, 40, 0
3, 4608, Note_on_c, 1, 40, 127
3, 4656, Note_on_c, 1, 40, 0
3, 4656, Note_on_c, 1, 40, 110
3, 4704, Note_on_c, 1, 40, 0
3, 4704, Note_on_c, 1, 40, 127
3, 4752, Note_on_c, 1, 40, 0
3, 4752, Note_on_c, 1, 40, 111
3, 4800, Note_on_c, 1, 40, 0
3, 4800, Note_on_c, 1, 40, 127
3, 4848, Note_on_c, 1, 40, 0
3, 4848, Note_on_c, 1, 40, 111
3, 4896, Note_on_c, 1, 40, 0
3, 4896, Note_on_c, 1, 40, 127
3, 4944, Note_on_c, 1, 40, 0
3, 4944, Note_on_c, 1, 40, 111
3, 4992, Note_on_c, 1, 40, 0
3, 4992, Note_on_c, 1, 40, 127
3, 5040, Note_on_c, 1, 40, 0
3, 5040, Note_on_c, 1, 40, 110
3, 5088, Note_on_c, 1, 40, 0
3, 5088, Note_on_c, 1, 40, 127
3, 5136, Note_on_c, 1, 40, 0
3, 5136, Note_on_c, 1, 40, 111
3, 5184, Note_on_c, 1, 40, 0
3, 5184, Note_on_c, 1, 40, 127
3, 5232, Note_on_c, 1, 40, 0
3, 5232, Note_on_c, 1, 40, 111
3, 5280, Note_on_c, 1, 40, 0
3, 5280, Note_on_c, 1, 40, 127
3, 5328, Note_on_c, 1, 40, 0
3, 5328, Note_on_c, 1, 40, 111
3, 5376, Note_on_c, 1, 40, 0
3, 5376, Note_on_c, 1, 40, 127
3, 5424, Note_on_c, 1, 40, 0
3, 5424, Note_on_c, 1, 40, 110
3, 5472, Note_on_c, 1, 40, 0
3, 5472, Note_on_c, 1, 40, 127
3, 5520, Note_on_c, 1, 40, 0
3, 5520, Note_on_c, 1, 40, 111
3, 5568, Note_on_c, 1, 40, 0
3, 5568, Note_on_c, 1, 40, 127
3, 5616, Note_on_c, 1, 40, 0
3, 5616, Note_on_c, 1, 40, 111
3, 5664, Note_on_c, 1, 40, 0
3, 5664, Note_on_c, 1, 40, 127
3, 5712, Note_on_c, 1, 40, 0
3, 5712, Note_on_c, 1, 40, 111
3, 5760, Note_on_c, 1, 40, 0
3, 5760, Note_on_c, 1, 40, 127
3, 5808, Note_on_c, 1, 40, 0
3, 5808, Note_on_c, 1, 40, 110
3, 5856, Note_on_c, 1, 40, 0
3, 5856, Note_on_c, 1, 40, 127
3, 5904, Note_on_c, 1, 40, 0
3, 5904, Note_on_c, 1, 40, 111
3, 5952, Note_on_c, 1, 40, 0
3, 5952, Note_on_c, 1, 40, 127
3, 6000, Note_on_c, 1, 40, 0
3, 6000, Note_on_c, 1, 40, 111
3, 6048, Note_on_c, 1, 40, 0
3, 6048, Note_on_c, 1, 40, 127
3, 6096, Note_on_c, 1, 40, 0
3, 6096, Note_on_c, 1, 40, 111
3, 6144, Note_on_c, 1, 40, 0
3, 6144, Note_on_c, 1, 40, 127
3, 6192, Note_on_c, 1, 40, 0
3, 6192, Note_on_c, 1, 40, 110
3, 6240, Note_on_c, 1, 40, 0
3, 6240, Note_on_c, 1, 40, 127
3, 6288, Note_on_c, 1, 40, 0
3, 6288, Note_on_c, 1, 40, 111
3, 6336, Note_on_c, 1, 40, 0
3, 6336, Note_on_c, 1, 40, 127
3, 6384, Note_on_c, 1, 40, 0
3, 6384, Note_on_c, 1, 40, 111
3, 6432, Note_on_c, 1, 40, 0
3, 6432, Note_on_c, 1, 40, 127
3, 6480, Note_on_c, 1, 40, 0
3, 6480, Note_on_c, 1, 40, 111
3, 6528, Note_on_c, 1, 40, 0
3, 6528, Note_on_c, 1, 40, 127
3, 6576, Note_on_c, 1, 40, 0
3, 6576, Note_on_c, 1, 40, 110
3, 6624, Note_on_c, 1, 40, 0
3, 6624, Note_on_c, 1, 40, 127
3, 6672, Note_on_c, 1, 40, 0
3, 6672, Note_on_c, 1, 40, 111
3, 6720, Note_on_c, 1, 40, 0
3, 6720, Note_on_c, 1, 40, 127
3, 6768, Note_on_c, 1, 40, 0
3, 6768, Note_on_c, 1, 40, 111
3, 6816, Note_on_c, 1, 40, 0
3, 6816, Note_on_c, 1, 40, 127
3, 6864, Note_on_c, 1, 40, 0
3, 6864, Note_on_c, 1, 40, 111
3, 6912, Note_on_c, 1, 40, 0
3, 6912, Note_on_c, 1, 40, 127
3, 6960, Note_on_c, 1, 40, 0
3, 6960, Note_on_c, 1, 40, 110
3, 7008, Note_on_c, 1, 40, 0
3, 7008, Note_on_c, 1, 40, 127
3, 7056, Note_on_c, 1, 40, 0
3, 7056, Note_on_c, 1, 40, 111
3, 7104, Note_on_c, 1, 40, 0
3, 7104, Note_on_c, 1, 40, 127
3, 7152, Note_on_c, 1, 40, 0
3, 7152, Note_on_c, 1, 40, 111
3, 7200, Note_on_c, 1, 40, 0
3, 7200, Note_on_c, 1, 40, 127
3, 7248, Note_on_c, 1, 40, 0
3, 7248, Note_on_c, 1, 40, 111
3, 7296, Note_on_c, 1, 40, 0
3, 7296, Note_on_c, 1, 40, 127
3, 7344, Note_on_c, 1, 40, 0
3, 7344, Note_on_c, 1, 40, 110
3, 7392, Note_on_c, 1, 40, 0
3, 7392, Note_on_c, 1, 40, 127
3, 7440, Note_on_c, 1, 40, 0
3, 7440, Note_on_c, 1, 40, 111
3, 7488, Note_on_c, 1, 40, 0
3, 7488, Note_on_c, 1, 40, 127
3, 7536, Note_on_c, 1, 40, 0
3, 7536, Note_on_c, 1, 40, 111
3, 7584, Note_on_c, 1, 40, 0
3, 7584, Note_on_c, 1, 44, 127
3, 7632, Note_on_c, 1, 44, 0
3, 7632, Note_on_c, 1, 45, 111
3, 7680, Note_on_c, 1, 45, 0
3, 7680, Note_on_c, 1, 47, 127
3, 7728, Note_on_c, 1, 47, 0
3, 7728, Note_on_c, 1, 47, 110
3, 7776, Note_on_c, 1, 47, 0
3, 7776, Note_on_c, 1, 47, 127
3, 7824, Note_on_c, 1, 47, 0
3, 7824, Note_on_c, 1, 47, 111
3, 7872, Note_on_c, 1, 47, 0
3, 7872, Note_on_c, 1, 47, 127
3, 7920, Note_on_c, 1, 47, 0
3, 7920, Note_on_c, 1, 47, 111
3, 7968, Note_on_c, 1, 47, 0
3, 7968, Note_on_c, 1, 47, 127
3, 8016, Note_on_c, 1, 47, 0
3, 8016, Note_on_c, 1, 47, 111
3, 8064, Note_on_c, 1, 47, 0
3, 8064, Note_on_c, 1, 47, 127
3, 8112, Note_on_c, 1, 47, 0
3, 8112, Note_on_c, 1, 47, 110
3, 8160, Note_on_c, 1, 47, 0
3, 8160, Note_on_c, 1, 47, 127
3, 8208, Note_on_c, 1, 47, 0
3, 8208, Note_on_c, 1, 47, 111
3, 8256, Note_on_c, 1, 47, 0
3, 8256, Note_on_c, 1, 47, 127
3, 8304, Note_on_c, 1, 47, 0
3, 8304, Note_on_c, 1, 47, 111
3, 8352, Note_on_c, 1, 47, 0
3, 8352, Note_on_c, 1, 47, 127
3, 8400, Note_on_c, 1, 47, 0
3, 8400, Note_on_c, 1, 47, 111
3, 8448, Note_on_c, 1, 47, 0
3, 8448, Note_on_c, 1, 40, 127
3, 8496, Note_on_c, 1, 40, 0
3, 8496, Note_on_c, 1, 40, 110
3, 8544, Note_on_c, 1, 40, 0
3, 8544, Note_on_c, 1, 40, 127
3, 8592, Note_on_c, 1, 40, 0
3, 8592, Note_on_c, 1, 40, 111
3, 8640, Note_on_c, 1, 40, 0
3, 8640, Note_on_c, 1, 40, 127
3, 8688, Note_on_c, 1, 40, 0
3, 8688, Note_on_c, 1, 40, 111
3, 8736, Note_on_c, 1, 40, 0
3, 8736, Note_on_c, 1, 40, 127
3, 8784, Note_on_c, 1, 40, 0
3, 8784, Note_on_c, 1, 40, 111
3, 8832, Note_on_c, 1, 40, 0
3, 8832, Note_on_c, 1, 40, 127
3, 8880, Note_on_c, 1, 40, 0
3, 8880, Note_on_c, 1, 40, 110
3, 8928, Note_on_c, 1, 40, 0
3, 8928, Note_on_c, 1, 40, 127
3, 8976, Note_on_c, 1, 40, 0
3, 8976, Note_on_c, 1, 40, 111
3, 9024, Note_on_c, 1, 40, 0
3, 9024, Note_on_c, 1, 40, 127
3, 9072, Note_on_c, 1, 40, 0
3, 9072, Note_on_c, 1, 40, 111
3, 9120, Note_on_c, 1, 40, 0
3, 9120, Note_on_c, 1, 42, 127
3, 9168, Note_on_c, 1, 42, 0
3, 9168, Note_on_c, 1, 44, 111
3, 9216, Note_on_c, 1, 44, 0
3, 9216, Note_on_c, 1, 45, 127
3, 9264, Note_on_c, 1, 45, 0
3, 9264, Note_on_c, 1, 45, 110
3, 9312, Note_on_c, 1, 45, 0
3, 9312, Note_on_c, 1, 45, 127
3, 9360, Note_on_c, 1, 45, 0
3, 9360, Note_on_c, 1, 45, 111
3, 9408, Note_on_c, 1, 45, 0
3, 9408, Note_on_c, 1, 45, 127
3, 9456, Note_on_c, 1, 45, 0
3, 9456, Note_on_c, 1, 45, 111
3, 9504, Note_on_c, 1, 45, 0
3, 9504, Note_on_c, 1, 45, 127
3, 9552, Note_on_c, 1, 45, 0
3, 9552, Note_on_c, 1, 45, 111
3, 9600, Note_on_c, 1, 45, 0
3, 9600, Note_on_c, 1, 45, 127
3, 9648, Note_on_c, 1, 45, 0
3, 9648, Note_on_c, 1, 45, 110
3, 9696, Note_on_c, 1, 45, 0
3, 9696, Note_on_c, 1, 45, 127
3, 9744, Note_on_c, 1, 45, 0
3, 9744, Note_on_c, 1, 45, 111
3, 9792, Note_on_c, 1, 45, 0
3, 9792, Note_on_c, 1, 45, 127
3, 9840, Note_on_c, 1, 45, 0
3, 9840, Note_on_c, 1, 45, 111
3, 9888, Note_on_c, 1, 45, 0
3, 9888, Note_on_c, 1, 45, 127
3, 9936, Note_on_c, 1, 45, 0
3, 9936, Note_on_c, 1, 45, 111
3, 9984, Note_on_c, 1, 45, 0
3, 9984, Note_on_c, 1, 47, 127
3, 10032, Note_on_c, 1, 47, 0
3, 10032, Note_on_c, 1, 47, 110
3, 10080, Note_on_c, 1, 47, 0
3, 10080, Note_on_c, 1, 47, 127
3, 10128, Note_on_c, 1, 47, 0
3, 10128, Note_on_c, 1, 47, 111
3, 10176, Note_on_c, 1, 47, 0
3, 10176, Note_on_c, 1, 47, 127
3, 10224, Note_on_c, 1, 47, 0
3, 10224, Note_on_c, 1, 47, 111
3, 10272, Note_on_c, 1, 47, 0
3, 10272, Note_on_c, 1, 47, 127
3, 10320, Note_on_c, 1, 47, 0
3, 10320, Note_on_c, 1, 47, 111
3, 10368, Note_on_c, 1, 47, 0
3, 10368, Note_on_c, 1, 47, 127
3, 10464, Note_on_c, 1, 47, 0
3, 10752, Note_on_c, 1, 40, 127
3, 10800, Note_on_c, 1, 40, 0
3, 10800, Note_on_c, 1, 40, 110
3, 10848, Note_on_c, 1, 40, 0
3, 10848, Note_on_c, 1, 40, 127
3, 10896, Note_on_c, 1, 40, 0
3, 10896, Note_on_c, 1, 40, 111
3, 10944, Note_on_c, 1, 40, 0
3, 10944, Note_on_c, 1, 40, 127
3, 10992, Note_on_c, 1, 40, 0
3, 10992, Note_on_c, 1, 40, 111
3, 11040, Note_on_c, 1, 40, 0
3, 11040, Note_on_c, 1, 40, 127
3, 11088, Note_on_c, 1, 40, 0
3, 11088, Note_on_c, 1, 40, 111
3, 11136, Note_on_c, 1, 40, 0
3, 11136, Note_on_c, 1, 40, 127
3, 11184, Note_on_c, 1, 40, 0
3, 11184, Note_on_c, 1, 40, 110
3, 11232, Note_on_c, 1, 40, 0
3, 11232, Note_on_c, 1, 40, 127
3, 11280, Note_on_c, 1, 40, 0
3, 11280, Note_on_c, 1, 40, 111
3, 11328, Note_on_c, 1, 40, 0
3, 11328, Note_on_c, 1, 40, 127
3, 11376, Note_on_c, 1, 40, 0
3, 11376, Note_on_c, 1, 40, 111
3, 11424, Note_on_c, 1, 40, 0
3, 11424, Note_on_c, 1, 40, 127
3, 11472, Note_on_c, 1, 40, 0
3, 11472, Note_on_c, 1, 40, 111
3, 11520, Note_on_c, 1, 40, 0
3, 11520, Note_on_c, 1, 40, 127
3, 11568, Note_on_c, 1, 40, 0
3, 11568, Note_on_c, 1, 40, 110
3, 11616, Note_on_c, 1, 40, 0
3, 11616, Note_on_c, 1, 40, 127
3, 11664, Note_on_c, 1, 40, 0
3, 11664, Note_on_c, 1, 40, 111
3, 11712, Note_on_c, 1, 40, 0
3, 11712, Note_on_c, 1, 40, 127
3, 11760, Note_on_c, 1, 40, 0
3, 11760, Note_on_c, 1, 40, 111
3, 11808, Note_on_c, 1, 40, 0
3, 11808, Note_on_c, 1, 40, 127
3, 11856, Note_on_c, 1, 40, 0
3, 11856, Note_on_c, 1, 40, 111
3, 11904, Note_on_c, 1, 40, 0
3, 11904, Note_on_c, 1, 40, 127
3, 11952, Note_on_c, 1, 40, 0
3, 11952, Note_on_c, 1, 40, 110
3, 12000, Note_on_c, 1, 40, 0
3, 12000, Note_on_c, 1, 40, 127
3, 12048, Note_on_c, 1, 40, 0
3, 12048, Note_on_c, 1, 40, 111
3, 12096, Note_on_c, 1, 40, 0
3, 12096, Note_on_c, 1, 40, 127
3, 12144, Note_on_c, 1, 40, 0
3, 12144, Note_on_c, 1, 40, 111
3, 12192, Note_on_c, 1, 40, 0
3, 12192, Note_on_c, 1, 40, 127
3, 12240, Note_on_c, 1, 40, 0
3, 12240, Note_on_c, 1, 40, 111
3, 12288, Note_on_c, 1, 40, 0
3, 12288, Note_on_c, 1, 40, 127
3, 12336, Note_on_c, 1, 40, 0
3, 12336, Note_on_c, 1, 40, 110
3, 12384, Note_on_c, 1, 40, 0
3, 12384, Note_on_c, 1, 40, 127
3, 12432, Note_on_c, 1, 40, 0
3, 12432, Note_on_c, 1, 40, 111
3, 12480, Note_on_c, 1, 40, 0
3, 12480, Note_on_c, 1, 40, 127
3, 12528, Note_on_c, 1, 40, 0
3, 12528, Note_on_c, 1, 40, 111
3, 12576, Note_on_c, 1, 40, 0
3, 12576, Note_on_c, 1, 40, 127
3, 12624, Note_on_c, 1, 40, 0
3, 12624, Note_on_c, 1, 40, 111
3, 12672, Note_on_c, 1, 40, 0
3, 12672, Note_on_c, 1, 40, 127
3, 12720, Note_on_c, 1, 40, 0
3, 12720, Note_on_c, 1, 40, 110
3, 12768, Note_on_c, 1, 40, 0
3, 12768, Note_on_c, 1, 40, 127
3, 12816, Note_on_c, 1, 40, 0
3, 12816, Note_on_c, 1, 40, 111
3, 12864, Note_on_c, 1, 40, 0
3, 12864, Note_on_c, 1, 40, 127
3, 12912, Note_on_c, 1, 40, 0
3, 12912, Note_on_c, 1, 40, 111
3, 12960, Note_on_c, 1, 40, 0
3, 12960, Note_on_c, 1, 40, 127
3, 13008, Note_on_c, 1, 40, 0
3, 13008, Note_on_c, 1, 40, 111
3, 13056, Note_on_c, 1, 40, 0
3, 13056, Note_on_c, 1, 40, 127
3, 13104, Note_on_c, 1, 40, 0
3, 13104, Note_on_c, 1, 40, 110
3, 13152, Note_on_c, 1, 40, 0
3, 13152, Note_on_c, 1, 40, 127
3, 13200, Note_on_c, 1, 40, 0
3, 13200, Note_on_c, 1, 40, 111
3, 13248, Note_on_c, 1, 40, 0
3, 13248, Note_on_c, 1, 40, 127
3, 13296, Note_on_c, 1, 40, 0
3, 13296, Note_on_c, 1, 40, 111
3, 13344, Note_on_c, 1, 40, 0
3, 13344, Note_on_c, 1, 40, 127
3, 13392, Note_on_c, 1, 40, 0
3, 13392, Note_on_c, 1, 40, 111
3, 13440, Note_on_c, 1, 40, 0
3, 13440, Note_on_c, 1, 40, 127
3, 13488, Note_on_c, 1, 40, 0
3, 13488, Note_on_c, 1, 40, 110
3, 13536, Note_on_c, 1, 40, 0
3, 13536, Note_on_c, 1, 40, 127
3, 13584, Note_on_c, 1, 40, 0
3, 13584, Note_on_c, 1, 40, 111
3, 13632, Note_on_c, 1, 40, 0
3, 13632, Note_on_c, 1, 40, 127
3, 13680, Note_on_c, 1, 40, 0
3, 13680, Note_on_c, 1, 40, 111
3, 13728, Note_on_c, 1, 40, 0
3, 13728, Note_on_c, 1, 40, 127
3, 13776, Note_on_c, 1, 40, 0
3, 13776, Note_on_c, 1, 40, 111
3, 13824, Note_on_c, 1, 40, 0
3, 13824, Note_on_c, 1, 40, 127
3, 13872, Note_on_c, 1, 40, 0
3, 13872, Note_on_c, 1, 40, 110
3, 13920, Note_on_c, 1, 40, 0
3, 13920, Note_on_c, 1, 40, 127
3, 13968, Note_on_c, 1, 40, 0
3, 13968, Note_on_c, 1, 40, 111
3, 14016, Note_on_c, 1, 40, 0
3, 14016, Note_on_c, 1, 40, 127
3, 14064, Note_on_c, 1, 40, 0
3, 14064, Note_on_c, 1, 40, 111
3, 14112, Note_on_c, 1, 40, 0
3, 14112, Note_on_c, 1, 44, 127
3, 14160, Note_on_c, 1, 44, 0
3, 14160, Note_on_c, 1, 45, 111
3, 14208, Note_on_c, 1, 45, 0
3, 14208, Note_on_c, 1, 47, 127
3, 14256, Note_on_c, 1, 47, 0
3, 14256, Note_on_c, 1, 47, 110
3, 14304, Note_on_c, 1, 47, 0
3, 14304, Note_on_c, 1, 47, 127
3, 14352, Note_on_c, 1, 47, 0
3, 14352, Note_on_c, 1, 47, 111
3, 14400, Note_on_c, 1, 47, 0
3, 14400, Note_on_c, 1, 47, 127
3, 14448, Note_on_c, 1, 47, 0
3, 14448, Note_on_c, 1, 47, 111
3, 14496, Note_on_c, 1, 47, 0
3, 14496, Note_on_c, 1, 47, 127
3, 14544, Note_on_c, 1, 47, 0
3, 14544, Note_on_c, 1, 47, 111
3, 14592, Note_on_c, 1, 47, 0
3, 14592, Note_on_c, 1, 47, 127
3, 14640, Note_on_c, 1, 47, 0
3, 14640, Note_on_c, 1, 47, 110
3, 14688, Note_on_c, 1, 47, 0
3, 14688, Note_on_c, 1, 47, 127
3, 14736, Note_on_c, 1, 47, 0
3, 14736, Note_on_c, 1, 47, 111
3, 14784, Note_on_c, 1, 47, 0
3, 14784, Note_on_c, 1, 47, 127
3, 14832, Note_on_c, 1, 47, 0
3, 14832, Note_on_c, 1, 47, 111
3, 14880, Note_on_c, 1, 47, 0
3, 14880, Note_on_c, 1, 47, 127
3, 14928, Note_on_c, 1, 47, 0
3, 14928, Note_on_c, 1, 47, 111
3, 14976, Note_on_c, 1, 47, 0
3, 14976, Note_on_c, 1, 40, 127
3, 15024, Note_on_c, 1, 40, 0
3, 15024, Note_on_c, 1, 40, 110
3, 15072, Note_on_c, 1, 40, 0
3, 15072, Note_on_c, 1, 40, 127
3, 15120, Note_on_c, 1, 40, 0
3, 15120, Note_on_c, 1, 40, 111
3, 15168, Note_on_c, 1, 40, 0
3, 15168, Note_on_c, 1, 40, 127
3, 15216, Note_on_c, 1, 40, 0
3, 15216, Note_on_c, 1, 40, 111
3, 15264, Note_on_c, 1, 40, 0
3, 15264, Note_on_c, 1, 40, 127
3, 15312, Note_on_c, 1, 40, 0
3, 15312, Note_on_c, 1, 40, 111
3, 15360, Note_on_c, 1, 40, 0
3, 15360, Note_on_c, 1, 40, 127
3, 15408, Note_on_c, 1, 40, 0
3, 15408, Note_on_c, 1, 40, 110
3, 15456, Note_on_c, 1, 40, 0
3, 15456, Note_on_c, 1, 40, 127
3, 15504, Note_on_c, 1, 40, 0
3, 15504, Note_on_c, 1, 40, 111
3, 15552, Note_on_c, 1, 40, 0
3, 15552, Note_on_c, 1, 40, 127
3, 15600, Note_on_c, 1, 40, 0
3, 15600, Note_on_c, 1, 40, 111
3, 15648, Note_on_c, 1, 40, 0
3, 15648, Note_on_c, 1, 42, 127
3, 15696, Note_on_c, 1, 42, 0
3, 15696, Note_on_c, 1, 44, 111
3, 15744, Note_on_c, 1, 44, 0
3, 15744, Note_on_c, 1, 45, 127
3, 15792, Note_on_c, 1, 45, 0
3, 15792, Note_on_c, 1, 45, 110
3, 15840, Note_on_c, 1, 45, 0
3, 15840, Note_on_c, 1, 45, 127
3, 15888, Note_on_c, 1, 45, 0
3, 15888, Note_on_c, 1, 45, 111
3, 15936, Note_on_c, 1, 45, 0
3, 15936, Note_on_c, 1, 45, 127
3, 15984, Note_on_c, 1, 45, 0
3, 15984, Note_on_c, 1, 45, 111
3, 16032, Note_on_c, 1, 45, 0
3, 16032, Note_on_c, 1, 45, 127
3, 16080, Note_on_c, 1, 45, 0
3, 16080, Note_on_c, 1, 45, 111
3, 16128, Note_on_c, 1, 45, 0
3, 16128, Note_on_c, 1, 45, 127
3, 16176, Note_on_c, 1, 45, 0
3, 16176, Note_on_c, 1, 45, 110
3, 16224, Note_on_c, 1, 45, 0
3, 16224, Note_on_c, 1, 45, 127
3, 16272, Note_on_c, 1, 45, 0
3, 16272, Note_on_c, 1, 45, 111
3, 16320, Note_on_c, 1, 45, 0
3, 16320, Note_on_c, 1, 45, 127
3, 16368, Note_on_c, 1, 45, 0
3, 16368, Note_on_c, 1, 45, 111
3, 16416, Note_on_c, 1, 45, 0
3, 16416, Note_on_c, 1, 45, 127
3, 16464, Note_on_c, 1, 45, 0
3, 16464, Note_on_c, 1, 46, 111
3, 16512, Note_on_c, 1, 46, 0
3, 16512, Note_on_c, 1, 47, 127
3, 16560, Note_on_c, 1, 47, 0
3, 16560, Note_on_c, 1, 47, 110
3, 16608, Note_on_c, 1, 47, 0
3, 16608, Note_on_c, 1, 47, 127
3, 16656, Note_on_c, 1, 47, 0
3, 16656, Note_on_c, 1, 47, 111
3, 16704, Note_on_c, 1, 47, 0
3, 16704, Note_on_c, 1, 47, 127
3, 16752, Note_on_c, 1, 47, 0
3, 16752, Note_on_c, 1, 47, 111
3, 16800, Note_on_c, 1, 47, 0
3, 16800, Note_on_c, 1, 47, 127
3, 16848, Note_on_c, 1, 47, 0
3, 16848, Note_on_c, 1, 47, 111
3, 16896, Note_on_c, 1, 47, 0
3, 16896, Note_on_c, 1, 47, 127
3, 16992, Note_on_c, 1, 47, 0
3, 17280, Note_on_c, 1, 40, 127
3, 17328, Note_on_c, 1, 40, 0
3, 17328, Note_on_c, 1, 40, 110
3, 17376, Note_on_c, 1, 40, 0
3, 17376, Note_on_c, 1, 40, 127
3, 17424, Note_on_c, 1, 40, 0
3, 17424, Note_on_c, 1, 40, 111
3, 17472, Note_on_c, 1, 40, 0
3, 17472, Note_on_c, 1, 40, 127
3, 17520, Note_on_c, 1, 40, 0
3, 17520, Note_on_c, 1, 40, 111
3, 17568, Note_on_c, 1, 40, 0
3, 17568, Note_on_c, 1, 40, 127
3, 17616, Note_on_c, 1, 40, 0
3, 17616, Note_on_c, 1, 40, 111
3, 17664, Note_on_c, 1, 40, 0
3, 17664, Note_on_c, 1, 40, 127
3, 17712, Note_on_c, 1, 40, 0
3, 17712, Note_on_c, 1, 40, 110
3, 17760, Note_on_c, 1, 40, 0
3, 17760, Note_on_c, 1, 40, 127
3, 17808, Note_on_c, 1, 40, 0
3, 17808, Note_on_c, 1, 40, 111
3, 17856, Note_on_c, 1, 40, 0
3, 17856, Note_on_c, 1, 40, 127
3, 17904, Note_on_c, 1, 40, 0
3, 17904, Note_on_c, 1, 40, 111
3, 17952, Note_on_c, 1, 40, 0
3, 17952, Note_on_c, 1, 42, 127
3, 18000, Note_on_c, 1, 42, 0
3, 18000, Note_on_c, 1, 44, 111
3, 18048, Note_on_c, 1, 44, 0
3, 18048, Note_on_c, 1, 45, 127
3, 18096, Note_on_c, 1, 45, 0
3, 18096, Note_on_c, 1, 45, 110
3, 18144, Note_on_c, 1, 45, 0
3, 18144, Note_on_c, 1, 45, 127
3, 18192, Note_on_c, 1, 45, 0
3, 18192, Note_on_c, 1, 45, 111
3, 18240, Note_on_c, 1, 45, 0
3, 18240, Note_on_c, 1, 45, 127
3, 18288, Note_on_c, 1, 45, 0
3, 18288, Note_on_c, 1, 45, 111
3, 18336, Note_on_c, 1, 45, 0
3, 18336, Note_on_c, 1, 45, 127
3, 18384, Note_on_c, 1, 45, 0
3, 18384, Note_on_c, 1, 45, 111
3, 18432, Note_on_c, 1, 45, 0
3, 18432, Note_on_c, 1, 45, 127
3, 18480, Note_on_c, 1, 45, 0
3, 18480, Note_on_c, 1, 45, 110
3, 18528, Note_on_c, 1, 45, 0
3, 18528, Note_on_c, 1, 45, 127
3, 18576, Note_on_c, 1, 45, 0
3, 18576, Note_on_c, 1, 45, 111
3, 18624, Note_on_c, 1, 45, 0
3, 18624, Note_on_c, 1, 45, 127
3, 18672, Note_on_c, 1, 45, 0
3, 18672, Note_on_c, 1, 45, 111
3, 18720, Note_on_c, 1, 45, 0
3, 18720, Note_on_c, 1, 45, 127
3, 18768, Note_on_c, 1, 45, 0
3, 18768, Note_on_c, 1, 45, 111
3, 18816, Note_on_c, 1, 45, 0
3, 18816, Note_on_c, 1, 40, 127
3, 18888, Note_on_c, 1, 40, 0
3, 18912, Note_on_c, 1, 40, 127
3, 18984, Note_on_c, 1, 40, 0
3, 19008, Note_on_c, 1, 40, 127
3, 19056, Note_on_c, 1, 40, 0
3, 19056, Note_on_c, 1, 40, 111
3, 19104, Note_on_c, 1, 40, 0
3, 19104, Note_on_c, 1, 40, 127
3, 19152, Note_on_c, 1, 40, 0
3, 19152, Note_on_c, 1, 40, 111
3, 19200, Note_on_c, 1, 40, 0
3, 19200, Note_on_c, 1, 40, 127
3, 19272, Note_on_c, 1, 40, 0
3, 19296, Note_on_c, 1, 40, 127
3, 19368, Note_on_c, 1, 40, 0
3, 19392, Note_on_c, 1, 40, 127
3, 19440, Note_on_c, 1, 40, 0
3, 19440, Note_on_c, 1, 40, 111
3, 19488, Note_on_c, 1, 40, 0
3, 19488, Note_on_c, 1, 40, 127
3, 19536, Note_on_c, 1, 40, 0
3, 19536, Note_on_c, 1, 40, 111
3, 19584, Note_on_c, 1, 40, 0
3, 19584, Note_on_c, 1, 45, 127
3, 19632, Note_on_c, 1, 45, 0
3, 19632, Note_on_c, 1, 45, 110
3, 19680, Note_on_c, 1, 45, 0
3, 19680, Note_on_c, 1, 45, 127
3, 19728, Note_on_c, 1, 45, 0
3, 19728, Note_on_c, 1, 45, 111
3, 19776, Note_on_c, 1, 45, 0
3, 19776, Note_on_c, 1, 45, 127
3, 19824, Note_on_c, 1, 45, 0
3, 19824, Note_on_c, 1, 45, 111
3, 19872, Note_on_c, 1, 45, 0
3, 19872, Note_on_c, 1, 45, 127
3, 19920, Note_on_c, 1, 45, 0
3, 19920, Note_on_c, 1, 45, 111
3, 19968, Note_on_c, 1, 45, 0
3, 19968, Note_on_c, 1, 45, 127
3, 20016, Note_on_c, 1, 45, 0
3, 20016, Note_on_c, 1, 45, 110
3, 20064, Note_on_c, 1, 45, 0
3, 20064, Note_on_c, 1, 45, 127
3, 20112, Note_on_c, 1, 45, 0
3, 20112, Note_on_c, 1, 45, 111
3, 20160, Note_on_c, 1, 45, 0
3, 20160, Note_on_c, 1, 45, 127
3, 20208, Note_on_c, 1, 45, 0
3, 20208, Note_on_c, 1, 45, 111
3, 20256, Note_on_c, 1, 45, 0
3, 20256, Note_on_c, 1, 43, 127
3, 20304, Note_on_c, 1, 43, 0
3, 20304, Note_on_c, 1, 42, 111
3, 20352, Note_on_c, 1, 42, 0
3, 20352, Note_on_c, 1, 40, 127
3, 20424, Note_on_c, 1, 40, 0
3, 20736, Note_on_c, 1, 47, 127
3, 20784, Note_on_c, 1, 47, 0
3, 20784, Note_on_c, 1, 47, 110
3, 20832, Note_on_c, 1, 47, 0
3, 20832, Note_on_c, 1, 47, 127
3, 20880, Note_on_c, 1, 47, 0
3, 20880, Note_on_c, 1, 47, 111
3, 20928, Note_on_c, 1, 47, 0
3, 20928, Note_on_c, 1, 47, 127
3, 20976, Note_on_c, 1, 47, 0
3, 20976, Note_on_c, 1, 47, 111
3, 21024, Note_on_c, 1, 47, 0
3, 21024, Note_on_c, 1, 47, 127
3, 21072, Note_on_c, 1, 47, 0
3, 21072, Note_on_c, 1, 47, 111
3, 21120, Note_on_c, 1, 47, 0
3, 21120, Note_on_c, 1, 47, 127
3, 21168, Note_on_c, 1, 47, 0
3, 21168, Note_on_c, 1, 47, 110
3, 21216, Note_on_c, 1, 47, 0
3, 21216, Note_on_c, 1, 47, 127
3, 21264, Note_on_c, 1, 47, 0
3, 21264, Note_on_c, 1, 47, 111
3, 21312, Note_on_c, 1, 47, 0
3, 21312, Note_on_c, 1, 47, 127
3, 21360, Note_on_c, 1, 47, 0
3, 21360, Note_on_c, 1, 47, 111
3, 21408, Note_on_c, 1, 47, 0
3, 21408, Note_on_c, 1, 47, 127
3, 21456, Note_on_c, 1, 47, 0
3, 21456, Note_on_c, 1, 47, 111
3, 21504, Note_on_c, 1, 47, 0
3, 21504, Note_on_c, 1, 40, 127
3, 21552, Note_on_c, 1, 40, 0
3, 21552, Note_on_c, 1, 40, 110
3, 21600, Note_on_c, 1, 40, 0
3, 21600, Note_on_c, 1, 40, 127
3, 21648, Note_on_c, 1, 40, 0
3, 21648, Note_on_c, 1, 40, 111
3, 21696, Note_on_c, 1, 40, 0
3, 21696, Note_on_c, 1, 40, 127
3, 21744, Note_on_c, 1, 40, 0
3, 21744, Note_on_c, 1, 40, 111
3, 21792, Note_on_c, 1, 40, 0
3, 21792, Note_on_c, 1, 40, 127
3, 21840, Note_on_c, 1, 40, 0
3, 21840, Note_on_c, 1, 40, 111
3, 21888, Note_on_c, 1, 40, 0
3, 21888, Note_on_c, 1, 40, 127
3, 21936, Note_on_c, 1, 40, 0
3, 21936, Note_on_c, 1, 40, 110
3, 21984, Note_on_c, 1, 40, 0
3, 21984, Note_on_c, 1, 40, 127
3, 22032, Note_on_c, 1, 40, 0
3, 22032, Note_on_c, 1, 40, 111
3, 22080, Note_on_c, 1, 40, 0
3, 22080, Note_on_c, 1, 40, 127
3, 22128, Note_on_c, 1, 40, 0
3, 22128, Note_on_c, 1, 40, 111
3, 22176, Note_on_c, 1, 40, 0
3, 22176, Note_on_c, 1, 40, 127
3, 22224, Note_on_c, 1, 40, 0
3, 22224, Note_on_c, 1, 40, 111
3, 22272, Note_on_c, 1, 40, 0
3, 22272, Note_on_c, 1, 40, 127
3, 22320, Note_on_c, 1, 40, 0
3, 22320, Note_on_c, 1, 40, 110
3, 22368, Note_on_c, 1, 40, 0
3, 22368, Note_on_c, 1, 40, 127
3, 22416, Note_on_c, 1, 40, 0
3, 22416, Note_on_c, 1, 40, 111
3, 22464, Note_on_c, 1, 40, 0
3, 22464, Note_on_c, 1, 40, 127
3, 22512, Note_on_c, 1, 40, 0
3, 22512, Note_on_c, 1, 40, 111
3, 22560, Note_on_c, 1, 40, 0
3, 22560, Note_on_c, 1, 40, 127
3, 22608, Note_on_c, 1, 40, 0
3, 22608, Note_on_c, 1, 40, 111
3, 22656, Note_on_c, 1, 40, 0
3, 22656, Note_on_c, 1, 40, 127
3, 22704, Note_on_c, 1, 40, 0
3, 22704, Note_on_c, 1, 40, 110
3, 22752, Note_on_c, 1, 40, 0
3, 22752, Note_on_c, 1, 40, 127
3, 22800, Note_on_c, 1, 40, 0
3, 22800, Note_on_c, 1, 40, 111
3, 22848, Note_on_c, 1, 40, 0
3, 22848, Note_on_c, 1, 40, 127
3, 22896, Note_on_c, 1, 40, 0
3, 22896, Note_on_c, 1, 40, 111
3, 22944, Note_on_c, 1, 40, 0
3, 22944, Note_on_c, 1, 40, 127
3, 22992, Note_on_c, 1, 40, 0
3, 22992, Note_on_c, 1, 40, 111
3, 23040, Note_on_c, 1, 40, 0
3, 23040, Note_on_c, 1, 40, 127
3, 23088, Note_on_c, 1, 40, 0
3, 23088, Note_on_c, 1, 40, 110
3, 23136, Note_on_c, 1, 40, 0
3, 23136, Note_on_c, 1, 40, 127
3, 23184, Note_on_c, 1, 40, 0
3, 23184, Note_on_c, 1, 40, 111
3, 23232, Note_on_c, 1, 40, 0
3, 23232, Note_on_c, 1, 40, 127
3, 23280, Note_on_c, 1, 40, 0
3, 23280, Note_on_c, 1, 40, 111
3, 23328, Note_on_c, 1, 40, 0
3, 23328, Note_on_c, 1, 40, 127
3, 23376, Note_on_c, 1, 40, 0
3, 23376, Note_on_c, 1, 40, 111
3, 23424, Note_on_c, 1, 40, 0
3, 23424, Note_on_c, 1, 40, 127
3, 23472, Note_on_c, 1, 40, 0
3, 23472, Note_on_c, 1, 40, 110
3, 23520, Note_on_c, 1, 40, 0
3, 23520, Note_on_c, 1, 40, 127
3, 23568, Note_on_c, 1, 40, 0
3, 23568, Note_on_c, 1, 40, 111
3, 23616, Note_on_c, 1, 40, 0
3, 23616, Note_on_c, 1, 40, 127
3, 23664, Note_on_c, 1, 40, 0
3, 23664, Note_on_c, 1, 40, 111
3, 23712, Note_on_c, 1, 40, 0
3, 23712, Note_on_c, 1, 40, 127
3, 23760, Note_on_c, 1, 40, 0
3, 23760, Note_on_c, 1, 40, 111
3, 23808, Note_on_c, 1, 40, 0
3, 23808, Note_on_c, 1, 40, 127
3, 23856, Note_on_c, 1, 40, 0
3, 23856, Note_on_c, 1, 40, 110
3, 23904, Note_on_c, 1, 40, 0
3, 23904, Note_on_c, 1, 40, 127
3, 23952, Note_on_c, 1, 40, 0
3, 23952, Note_on_c, 1, 40, 111
3, 24000, Note_on_c, 1, 40, 0
3, 24000, Note_on_c, 1, 40, 127
3, 24048, Note_on_c, 1, 40, 0
3, 24048, Note_on_c, 1, 40, 111
3, 24096, Note_on_c, 1, 40, 0
3, 24096, Note_on_c, 1, 40, 127
3, 24144, Note_on_c, 1, 40, 0
3, 24144, Note_on_c, 1, 40, 111
3, 24192, Note_on_c, 1, 40, 0
3, 24192, Note_on_c, 1, 40, 127
3, 24240, Note_on_c, 1, 40, 0
3, 24240, Note_on_c, 1, 40, 110
3, 24288, Note_on_c, 1, 40, 0
3, 24288, Note_on_c, 1, 40, 127
3, 24336, Note_on_c, 1, 40, 0
3, 24336, Note_on_c, 1, 40, 111
3, 24384, Note_on_c, 1, 40, 0
3, 24384, Note_on_c, 1, 40, 127
3, 24432, Note_on_c, 1, 40, 0
3, 24432, Note_on_c, 1, 43, 111
3, 24480, Note_on_c, 1, 43, 0
3, 24480, Note_on_c, 1, 44, 127
3, 24528, Note_on_c, 1, 44, 0
3, 24528, Note_on_c, 1, 45, 111
3, 24576, Note_on_c, 1, 45, 0
3, 24576, Note_on_c, 1, 47, 127
3, 24624, Note_on_c, 1, 47, 0
3, 24624, Note_on_c, 1, 47, 110
3, 24672, Note_on_c, 1, 47, 0
3, 24672, Note_on_c, 1, 47, 127
3, 24720, Note_on_c, 1, 47, 0
3, 24720, Note_on_c, 1, 47, 111
3, 24768, Note_on_c, 1, 47, 0
3, 24768, Note_on_c, 1, 47, 127
3, 24816, Note_on_c, 1, 47, 0
3, 24816, Note_on_c, 1, 47, 111
3, 24864, Note_on_c, 1, 47, 0
3, 24864, Note_on_c, 1, 47, 127
3, 24912, Note_on_c, 1, 47, 0
3, 24912, Note_on_c, 1, 47, 111
3, 24960, Note_on_c, 1, 47, 0
3, 25008, Note_on_c, 1, 42, 110
3, 25032, Note_on_c, 1, 42, 0
3, 25104, Note_on_c, 1, 42, 111
3, 25128, Note_on_c, 1, 42, 0
3, 25200, Note_on_c, 1, 47, 111
3, 25248, Note_on_c, 1, 47, 0
3, 25248, Note_on_c, 1, 47, 127
3, 25296, Note_on_c, 1, 47, 0
3, 25296, Note_on_c, 1, 47, 111
3, 25344, Note_on_c, 1, 47, 0
3, 25344, Note_on_c, 1, 40, 127
3, 25392, Note_on_c, 1, 40, 0
3, 25392, Note_on_c, 1, 40, 110
3, 25440, Note_on_c, 1, 40, 0
3, 25440, Note_on_c, 1, 40, 127
3, 25488, Note_on_c, 1, 40, 0
3, 25488, Note_on_c, 1, 40, 111
3, 25536, Note_on_c, 1, 40, 0
3, 25536, Note_on_c, 1, 40, 127
3, 25584, Note_on_c, 1, 40, 0
3, 25584, Note_on_c, 1, 40, 111
3, 25632, Note_on_c, 1, 40, 0
3, 25632, Note_on_c, 1, 40, 127
3, 25680, Note_on_c, 1, 40, 0
3, 25680, Note_on_c, 1, 40, 111
3, 25728, Note_on_c, 1, 40, 0
3, 25728, Note_on_c, 1, 40, 127
3, 25776, Note_on_c, 1, 40, 0
3, 25776, Note_on_c, 1, 40, 110
3, 25824, Note_on_c, 1, 40, 0
3, 25824, Note_on_c, 1, 40, 127
3, 25872, Note_on_c, 1, 40, 0
3, 25872, Note_on_c, 1, 40, 111
3, 25920, Note_on_c, 1, 40, 0
3, 25920, Note_on_c, 1, 40, 127
3, 25968, Note_on_c, 1, 40, 0
3, 25968, Note_on_c, 1, 40, 111
3, 26016, Note_on_c, 1, 40, 0
3, 26016, Note_on_c, 1, 42, 127
3, 26064, Note_on_c, 1, 42, 0
3, 26064, Note_on_c, 1, 44, 111
3, 26112, Note_on_c, 1, 44, 0
3, 26112, Note_on_c, 1, 45, 127
3, 26160, Note_on_c, 1, 45, 0
3, 26160, Note_on_c, 1, 45, 110
3, 26208, Note_on_c, 1, 45, 0
3, 26208, Note_on_c, 1, 45, 127
3, 26256, Note_on_c, 1, 45, 0
3, 26256, Note_on_c, 1, 45, 111
3, 26304, Note_on_c, 1, 45, 0
3, 26304, Note_on_c, 1, 45, 127
3, 26352, Note_on_c, 1, 45, 0
3, 26352, Note_on_c, 1, 45, 111
3, 26400, Note_on_c, 1, 45, 0
3, 26400, Note_on_c, 1, 45, 127
3, 26448, Note_on_c, 1, 45, 0
3, 26448, Note_on_c, 1, 45, 111
3, 26496, Note_on_c, 1, 45, 0
3, 26496, Note_on_c, 1, 45, 127
3, 26544, Note_on_c, 1, 45, 0
3, 26544, Note_on_c, 1, 45, 110
3, 26592, Note_on_c, 1, 45, 0
3, 26592, Note_on_c, 1, 45, 127
3, 26640, Note_on_c, 1, 45, 0
3, 26640, Note_on_c, 1, 45, 111
3, 26688, Note_on_c, 1, 45, 0
3, 26688, Note_on_c, 1, 45, 127
3, 26736, Note_on_c, 1, 45, 0
3, 26736, Note_on_c, 1, 45, 111
3, 26784, Note_on_c, 1, 45, 0
3, 26784, Note_on_c, 1, 45, 127
3, 26832, Note_on_c, 1, 45, 0
3, 26832, Note_on_c, 1, 46, 111
3, 26880, Note_on_c, 1, 46, 0
3, 26880, Note_on_c, 1, 47, 127
3, 26928, Note_on_c, 1, 47, 0
3, 26928, Note_on_c, 1, 47, 110
3, 26976, Note_on_c, 1, 47, 0
3, 26976, Note_on_c, 1, 47, 127
3, 27024, Note_on_c, 1, 47, 0
3, 27024, Note_on_c, 1, 47, 111
3, 27072, Note_on_c, 1, 47, 0
3, 27072, Note_on_c, 1, 47, 127
3, 27120, Note_on_c, 1, 47, 0
3, 27120, Note_on_c, 1, 47, 111
3, 27168, Note_on_c, 1, 47, 0
3, 27168, Note_on_c, 1, 47, 127
3, 27216, Note_on_c, 1, 47, 0
3, 27216, Note_on_c, 1, 47, 111
3, 27264, Note_on_c, 1, 47, 0
3, 27264, Note_on_c, 1, 47, 127
3, 27312, Note_on_c, 1, 47, 0
3, 27312, Note_on_c, 1, 47, 110
3, 27360, Note_on_c, 1, 47, 0
3, 27360, Note_on_c, 1, 47, 127
3, 27408, Note_on_c, 1, 47, 0
3, 27408, Note_on_c, 1, 47, 111
3, 27456, Note_on_c, 1, 47, 0
3, 27456, Note_on_c, 1, 47, 127
3, 27504, Note_on_c, 1, 47, 0
3, 27504, Note_on_c, 1, 47, 111
3, 27552, Note_on_c, 1, 47, 0
3, 27552, Note_on_c, 1, 47, 127
3, 27600, Note_on_c, 1, 47, 0
3, 27600, Note_on_c, 1, 47, 111
3, 27648, Note_on_c, 1, 47, 0
3, 27648, Note_on_c, 1, 40, 127
3, 27696, Note_on_c, 1, 40, 0
3, 27696, Note_on_c, 1, 40, 110
3, 27744, Note_on_c, 1, 40, 0
3, 27744, Note_on_c, 1, 40, 127
3, 27792, Note_on_c, 1, 40, 0
3, 27792, Note_on_c, 1, 40, 111
3, 27840, Note_on_c, 1, 40, 0
3, 27840, Note_on_c, 1, 40, 127
3, 27888, Note_on_c, 1, 40, 0
3, 27888, Note_on_c, 1, 40, 111
3, 27936, Note_on_c, 1, 40, 0
3, 27936, Note_on_c, 1, 40, 127
3, 27984, Note_on_c, 1, 40, 0
3, 27984, Note_on_c, 1, 40, 111
3, 28032, Note_on_c, 1, 40, 0
3, 28032, Note_on_c, 1, 40, 127
3, 28080, Note_on_c, 1, 40, 0
3, 28080, Note_on_c, 1, 40, 110
3, 28128, Note_on_c, 1, 40, 0
3, 28128, Note_on_c, 1, 40, 127
3, 28176, Note_on_c, 1, 40, 0
3, 28176, Note_on_c, 1, 40, 111
3, 28224, Note_on_c, 1, 40, 0
3, 28224, Note_on_c, 1, 40, 127
3, 28272, Note_on_c, 1, 40, 0
3, 28272, Note_on_c, 1, 40, 111
3, 28320, Note_on_c, 1, 40, 0
3, 28320, Note_on_c, 1, 40, 127
3, 28368, Note_on_c, 1, 40, 0
3, 28368, Note_on_c, 1, 40, 111
3, 28416, Note_on_c, 1, 40, 0
3, 28416, Note_on_c, 1, 40, 127
3, 28464, Note_on_c, 1, 40, 0
3, 28464, Note_on_c, 1, 40, 110
3, 28512, Note_on_c, 1, 40, 0
3, 28512, Note_on_c, 1, 40, 127
3, 28560, Note_on_c, 1, 40, 0
3, 28560, Note_on_c, 1, 40, 111
3, 28608, Note_on_c, 1, 40, 0
3, 28608, Note_on_c, 1, 40, 127
3, 28656, Note_on_c, 1, 40, 0
3, 28656, Note_on_c, 1, 40, 111
3, 28704, Note_on_c, 1, 40, 0
3, 28704, Note_on_c, 1, 40, 127
3, 28752, Note_on_c, 1, 40, 0
3, 28752, Note_on_c, 1, 40, 111
3, 28800, Note_on_c, 1, 40, 0
3, 28800, Note_on_c, 1, 40, 127
3, 28848, Note_on_c, 1, 40, 0
3, 28848, Note_on_c, 1, 40, 110
3, 28896, Note_on_c, 1, 40, 0
3, 28896, Note_on_c, 1, 40, 127
3, 28944, Note_on_c, 1, 40, 0
3, 28944, Note_on_c, 1, 40, 111
3, 28992, Note_on_c, 1, 40, 0
3, 28992, Note_on_c, 1, 40, 127
3, 29040, Note_on_c, 1, 40, 0
3, 29040, Note_on_c, 1, 40, 111
3, 29088, Note_on_c, 1, 40, 0
3, 29088, Note_on_c, 1, 40, 127
3, 29136, Note_on_c, 1, 40, 0
3, 29136, Note_on_c, 1, 40, 111
3, 29184, Note_on_c, 1, 40, 0
3, 29184, Note_on_c, 1, 40, 127
3, 29232, Note_on_c, 1, 40, 0
3, 29232, Note_on_c, 1, 40, 110
3, 29280, Note_on_c, 1, 40, 0
3, 29280, Note_on_c, 1, 40, 127
3, 29328, Note_on_c, 1, 40, 0
3, 29328, Note_on_c, 1, 40, 111
3, 29376, Note_on_c, 1, 40, 0
3, 29376, Note_on_c, 1, 40, 127
3, 29424, Note_on_c, 1, 40, 0
3, 29424, Note_on_c, 1, 40, 111
3, 29472, Note_on_c, 1, 40, 0
3, 29472, Note_on_c, 1, 40, 127
3, 29520, Note_on_c, 1, 40, 0
3, 29520, Note_on_c, 1, 40, 111
3, 29568, Note_on_c, 1, 40, 0
3, 29568, Note_on_c, 1, 40, 127
3, 29616, Note_on_c, 1, 40, 0
3, 29616, Note_on_c, 1, 40, 110
3, 29664, Note_on_c, 1, 40, 0
3, 29664, Note_on_c, 1, 40, 127
3, 29712, Note_on_c, 1, 40, 0
3, 29712, Note_on_c, 1, 40, 111
3, 29760, Note_on_c, 1, 40, 0
3, 29760, Note_on_c, 1, 40, 127
3, 29808, Note_on_c, 1, 40, 0
3, 29808, Note_on_c, 1, 40, 111
3, 29856, Note_on_c, 1, 40, 0
3, 29856, Note_on_c, 1, 40, 127
3, 29904, Note_on_c, 1, 40, 0
3, 29904, Note_on_c, 1, 40, 111
3, 29952, Note_on_c, 1, 40, 0
3, 29952, Note_on_c, 1, 40, 127
3, 30000, Note_on_c, 1, 40, 0
3, 30000, Note_on_c, 1, 40, 110
3, 30048, Note_on_c, 1, 40, 0
3, 30048, Note_on_c, 1, 40, 127
3, 30096, Note_on_c, 1, 40, 0
3, 30096, Note_on_c, 1, 40, 111
3, 30144, Note_on_c, 1, 40, 0
3, 30144, Note_on_c, 1, 40, 127
3, 30192, Note_on_c, 1, 40, 0
3, 30192, Note_on_c, 1, 40, 111
3, 30240, Note_on_c, 1, 40, 0
3, 30240, Note_on_c, 1, 40, 127
3, 30288, Note_on_c, 1, 40, 0
3, 30288, Note_on_c, 1, 40, 111
3, 30336, Note_on_c, 1, 40, 0
3, 30336, Note_on_c, 1, 40, 127
3, 30384, Note_on_c, 1, 40, 0
3, 30384, Note_on_c, 1, 40, 110
3, 30432, Note_on_c, 1, 40, 0
3, 30432, Note_on_c, 1, 40, 127
3, 30480, Note_on_c, 1, 40, 0
3, 30480, Note_on_c, 1, 40, 111
3, 30528, Note_on_c, 1, 40, 0
3, 30528, Note_on_c, 1, 40, 127
3, 30576, Note_on_c, 1, 40, 0
3, 30576, Note_on_c, 1, 40, 111
3, 30624, Note_on_c, 1, 40, 0
3, 30624, Note_on_c, 1, 40, 127
3, 30672, Note_on_c, 1, 40, 0
3, 30672, Note_on_c, 1, 40, 111
3, 30720, Note_on_c, 1, 40, 0
3, 30720, Note_on_c, 1, 40, 127
3, 30768, Note_on_c, 1, 40, 0
3, 30768, Note_on_c, 1, 40, 110
3, 30816, Note_on_c, 1, 40, 0
3, 30816, Note_on_c, 1, 40, 127
3, 30864, Note_on_c, 1, 40, 0
3, 30864, Note_on_c, 1, 40, 111
3, 30912, Note_on_c, 1, 40, 0
3, 30912, Note_on_c, 1, 40, 127
3, 30960, Note_on_c, 1, 40, 0
3, 30960, Note_on_c, 1, 40, 111
3, 31008, Note_on_c, 1, 40, 0
3, 31008, Note_on_c, 1, 40, 127
3, 31056, Note_on_c, 1, 40, 0
3, 31056, Note_on_c, 1, 40, 111
3, 31104, Note_on_c, 1, 40, 0
3, 31104, Note_on_c, 1, 47, 127
3, 31152, Note_on_c, 1, 47, 0
3, 31152, Note_on_c, 1, 47, 110
3, 31200, Note_on_c, 1, 47, 0
3, 31200, Note_on_c, 1, 47, 127
3, 31248, Note_on_c, 1, 47, 0
3, 31248, Note_on_c, 1, 47, 111
3, 31296, Note_on_c, 1, 47, 0
3, 31296, Note_on_c, 1, 47, 127
3, 31344, Note_on_c, 1, 47, 0
3, 31344, Note_on_c, 1, 47, 111
3, 31392, Note_on_c, 1, 47, 0
3, 31392, Note_on_c, 1, 47, 127
3, 31440, Note_on_c, 1, 47, 0
3, 31440, Note_on_c, 1, 47, 111
3, 31488, Note_on_c, 1, 47, 0
3, 31488, Note_on_c, 1, 47, 127
3, 31536, Note_on_c, 1, 47, 0
3, 31536, Note_on_c, 1, 47, 110
3, 31584, Note_on_c, 1, 47, 0
3, 31584, Note_on_c, 1, 47, 127
3, 31632, Note_on_c, 1, 47, 0
3, 31632, Note_on_c, 1, 47, 111
3, 31680, Note_on_c, 1, 47, 0
3, 31680, Note_on_c, 1, 47, 127
3, 31728, Note_on_c, 1, 47, 0
3, 31728, Note_on_c, 1, 47, 111
3, 31776, Note_on_c, 1, 47, 0
3, 31776, Note_on_c, 1, 47, 127
3, 31824, Note_on_c, 1, 47, 0
3, 31824, Note_on_c, 1, 47, 111
3, 31872, Note_on_c, 1, 47, 0
3, 31872, Note_on_c, 1, 40, 127
3, 31920, Note_on_c, 1, 40, 0
3, 31920, Note_on_c, 1, 40, 110
3, 31968, Note_on_c, 1, 40, 0
3, 31968, Note_on_c, 1, 40, 127
3, 32016, Note_on_c, 1, 40, 0
3, 32016, Note_on_c, 1, 40, 111
3, 32064, Note_on_c, 1, 40, 0
3, 32064, Note_on_c, 1, 40, 127
3, 32112, Note_on_c, 1, 40, 0
3, 32112, Note_on_c, 1, 40, 111
3, 32160, Note_on_c, 1, 40, 0
3, 32160, Note_on_c, 1, 40, 127
3, 32208, Note_on_c, 1, 40, 0
3, 32208, Note_on_c, 1, 40, 111
3, 32256, Note_on_c, 1, 40, 0
3, 32256, Note_on_c, 1, 40, 127
3, 32304, Note_on_c, 1, 40, 0
3, 32304, Note_on_c, 1, 40, 110
3, 32352, Note_on_c, 1, 40, 0
3, 32352, Note_on_c, 1, 40, 127
3, 32400, Note_on_c, 1, 40, 0
3, 32400, Note_on_c, 1, 40, 111
3, 32448, Note_on_c, 1, 40, 0
3, 32448, Note_on_c, 1, 40, 127
3, 32496, Note_on_c, 1, 40, 0
3, 32496, Note_on_c, 1, 40, 111
3, 32544, Note_on_c, 1, 40, 0
3, 32544, Note_on_c, 1, 40, 127
3, 32592, Note_on_c, 1, 40, 0
3, 32592, Note_on_c, 1, 40, 111
3, 32640, Note_on_c, 1, 40, 0
3, 32640, Note_on_c, 1, 45, 127
3, 32688, Note_on_c, 1, 45, 0
3, 32688, Note_on_c, 1, 45, 110
3, 32736, Note_on_c, 1, 45, 0
3, 32736, Note_on_c, 1, 45, 127
3, 32784, Note_on_c, 1, 45, 0
3, 32784, Note_on_c, 1, 45, 111
3, 32832, Note_on_c, 1, 45, 0
3, 32832, Note_on_c, 1, 45, 127
3, 32880, Note_on_c, 1, 45, 0
3, 32880, Note_on_c, 1, 45, 111
3, 32928, Note_on_c, 1, 45, 0
3, 32928, Note_on_c, 1, 45, 127
3, 32976, Note_on_c, 1, 45, 0
3, 32976, Note_on_c, 1, 45, 111
3, 33024, Note_on_c, 1, 45, 0
3, 33024, Note_on_c, 1, 45, 127
3, 33072, Note_on_c, 1, 45, 0
3, 33072, Note_on_c, 1, 45, 110
3, 33120, Note_on_c, 1, 45, 0
3, 33120, Note_on_c, 1, 45, 127
3, 33168, Note_on_c, 1, 45, 0
3, 33168, Note_on_c, 1, 45, 111
3, 33216, Note_on_c, 1, 45, 0
3, 33216, Note_on_c, 1, 45, 127
3, 33264, Note_on_c, 1, 45, 0
3, 33264, Note_on_c, 1, 45, 111
3, 33312, Note_on_c, 1, 45, 0
3, 33312, Note_on_c, 1, 45, 127
3, 33360, Note_on_c, 1, 45, 0
3, 33360, Note_on_c, 1, 45, 111
3, 33408, Note_on_c, 1, 45, 0
3, 33408, Note_on_c, 1, 47, 127
3, 33456, Note_on_c, 1, 47, 0
3, 33456, Note_on_c, 1, 47, 110
3, 33504, Note_on_c, 1, 47, 0
3, 33504, Note_on_c, 1, 47, 127
3, 33552, Note_on_c, 1, 47, 0
3, 33552, Note_on_c, 1, 47, 111
3, 33600, Note_on_c, 1, 47, 0
3, 33600, Note_on_c, 1, 47, 127
3, 33648, Note_on_c, 1, 47, 0
3, 33648, Note_on_c, 1, 47, 111
3, 33696, Note_on_c, 1, 47, 0
3, 33696, Note_on_c, 1, 47, 127
3, 33744, Note_on_c, 1, 47, 0
3, 33744, Note_on_c, 1, 47, 111
3, 33792, Note_on_c, 1, 47, 0
3, 33792, Note_on_c, 1, 47, 127
3, 33888, Note_on_c, 1, 47, 0
3, 34176, Note_on_c, 1, 40, 127
3, 34224, Note_on_c, 1, 40, 0
3, 34224, Note_on_c, 1, 40, 110
3, 34272, Note_on_c, 1, 40, 0
3, 34272, Note_on_c, 1, 40, 127
3, 34320, Note_on_c, 1, 40, 0
3, 34320, Note_on_c, 1, 40, 111
3, 34368, Note_on_c, 1, 40, 0
3, 34368, Note_on_c, 1, 40, 127
3, 34416, Note_on_c, 1, 40, 0
3, 34416, Note_on_c, 1, 40, 111
3, 34464, Note_on_c, 1, 40, 0
3, 34464, Note_on_c, 1, 40, 127
3, 34512, Note_on_c, 1, 40, 0
3, 34512, Note_on_c, 1, 40, 111
3, 34560, Note_on_c, 1, 40, 0
3, 34560, Note_on_c, 1, 40, 127
3, 34608, Note_on_c, 1, 40, 0
3, 34608, Note_on_c, 1, 40, 110
3, 34656, Note_on_c, 1, 40, 0
3, 34656, Note_on_c, 1, 40, 127
3, 34704, Note_on_c, 1, 40, 0
3, 34704, Note_on_c, 1, 40, 111
3, 34752, Note_on_c, 1, 40, 0
3, 34752, Note_on_c, 1, 40, 127
3, 34800, Note_on_c, 1, 40, 0
3, 34800, Note_on_c, 1, 40, 111
3, 34848, Note_on_c, 1, 40, 0
3, 34848, Note_on_c, 1, 40, 127
3, 34896, Note_on_c, 1, 40, 0
3, 34896, Note_on_c, 1, 40, 111
3, 34944, Note_on_c, 1, 40, 0
3, 34944, Note_on_c, 1, 45, 127
3, 34992, Note_on_c, 1, 45, 0
3, 34992, Note_on_c, 1, 45, 110
3, 35040, Note_on_c, 1, 45, 0
3, 35040, Note_on_c, 1, 45, 127
3, 35088, Note_on_c, 1, 45, 0
3, 35088, Note_on_c, 1, 45, 111
3, 35136, Note_on_c, 1, 45, 0
3, 35136, Note_on_c, 1, 45, 127
3, 35184, Note_on_c, 1, 45, 0
3, 35184, Note_on_c, 1, 45, 111
3, 35232, Note_on_c, 1, 45, 0
3, 35232, Note_on_c, 1, 45, 127
3, 35280, Note_on_c, 1, 45, 0
3, 35280, Note_on_c, 1, 45, 111
3, 35328, Note_on_c, 1, 45, 0
3, 35328, Note_on_c, 1, 45, 127
3, 35376, Note_on_c, 1, 45, 0
3, 35376, Note_on_c, 1, 45, 110
3, 35424, Note_on_c, 1, 45, 0
3, 35424, Note_on_c, 1, 45, 127
3, 35472, Note_on_c, 1, 45, 0
3, 35472, Note_on_c, 1, 45, 111
3, 35520, Note_on_c, 1, 45, 0
3, 35520, Note_on_c, 1, 45, 127
3, 35568, Note_on_c, 1, 45, 0
3, 35568, Note_on_c, 1, 45, 111
3, 35616, Note_on_c, 1, 45, 0
3, 35616, Note_on_c, 1, 45, 127
3, 35664, Note_on_c, 1, 45, 0
3, 35664, Note_on_c, 1, 45, 111
3, 35712, Note_on_c, 1, 45, 0
3, 35712, Note_on_c, 1, 40, 127
3, 35784, Note_on_c, 1, 40, 0
3, 35808, Note_on_c, 1, 40, 127
3, 35880, Note_on_c, 1, 40, 0
3, 35904, Note_on_c, 1, 40, 127
3, 35952, Note_on_c, 1, 40, 0
3, 35952, Note_on_c, 1, 40, 111
3, 36000, Note_on_c, 1, 40, 0
3, 36000, Note_on_c, 1, 40, 127
3, 36048, Note_on_c, 1, 40, 0
3, 36048, Note_on_c, 1, 40, 111
3, 36096, Note_on_c, 1, 40, 0
3, 36096, Note_on_c, 1, 40, 127
3, 36168, Note_on_c, 1, 40, 0
3, 36192, Note_on_c, 1, 40, 127
3, 36264, Note_on_c, 1, 40, 0
3, 36288, Note_on_c, 1, 40, 127
3, 36336, Note_on_c, 1, 40, 0
3, 36336, Note_on_c, 1, 40, 111
3, 36384, Note_on_c, 1, 40, 0
3, 36384, Note_on_c, 1, 40, 127
3, 36432, Note_on_c, 1, 40, 0
3, 36432, Note_on_c, 1, 40, 111
3, 36480, Note_on_c, 1, 40, 0
3, 36480, Note_on_c, 1, 45, 127
3, 36528, Note_on_c, 1, 45, 0
3, 36528, Note_on_c, 1, 45, 110
3, 36576, Note_on_c, 1, 45, 0
3, 36576, Note_on_c, 1, 45, 127
3, 36624, Note_on_c, 1, 45, 0
3, 36624, Note_on_c, 1, 45, 111
3, 36672, Note_on_c, 1, 45, 0
3, 36672, Note_on_c, 1, 45, 127
3, 36720, Note_on_c, 1, 45, 0
3, 36720, Note_on_c, 1, 45, 111
3, 36768, Note_on_c, 1, 45, 0
3, 36768, Note_on_c, 1, 45, 127
3, 36816, Note_on_c, 1, 45, 0
3, 36816, Note_on_c, 1, 45, 111
3, 36864, Note_on_c, 1, 45, 0
3, 36864, Note_on_c, 1, 45, 127
3, 36912, Note_on_c, 1, 45, 0
3, 36912, Note_on_c, 1, 45, 110
3, 36960, Note_on_c, 1, 45, 0
3, 36960, Note_on_c, 1, 45, 127
3, 37008, Note_on_c, 1, 45, 0
3, 37008, Note_on_c, 1, 45, 111
3, 37056, Note_on_c, 1, 45, 0
3, 37056, Note_on_c, 1, 45, 127
3, 37104, Note_on_c, 1, 45, 0
3, 37104, Note_on_c, 1, 45, 111
3, 37152, Note_on_c, 1, 45, 0
3, 37152, Note_on_c, 1, 45, 127
3, 37200, Note_on_c, 1, 45, 0
3, 37200, Note_on_c, 1, 45, 111
3, 37248, Note_on_c, 1, 45, 0
3, 37248, Note_on_c, 1, 40, 127
3, 37320, Note_on_c, 1, 40, 0
3, 37632, Note_on_c, 1, 47, 127
3, 37680, Note_on_c, 1, 47, 0
3, 37680, Note_on_c, 1, 47, 110
3, 37728, Note_on_c, 1, 47, 0
3, 37728, Note_on_c, 1, 47, 127
3, 37776, Note_on_c, 1, 47, 0
3, 37776, Note_on_c, 1, 47, 111
3, 37824, Note_on_c, 1, 47, 0
3, 37824, Note_on_c, 1, 47, 127
3, 37872, Note_on_c, 1, 47, 0
3, 37872, Note_on_c, 1, 47, 111
3, 37920, Note_on_c, 1, 47, 0
3, 37920, Note_on_c, 1, 47, 127
3, 37968, Note_on_c, 1, 47, 0
3, 37968, Note_on_c, 1, 47, 111
3, 38016, Note_on_c, 1, 47, 0
3, 38016, Note_on_c, 1, 47, 127
3, 38064, Note_on_c, 1, 47, 0
3, 38064, Note_on_c, 1, 47, 110
3, 38112, Note_on_c, 1, 47, 0
3, 38112, Note_on_c, 1, 47, 127
3, 38160, Note_on_c, 1, 47, 0
3, 38160, Note_on_c, 1, 47, 111
3, 38208, Note_on_c, 1, 47, 0
3, 38208, Note_on_c, 1, 47, 127
3, 38256, Note_on_c, 1, 47, 0
3, 38256, Note_on_c, 1, 47, 111
3, 38304, Note_on_c, 1, 47, 0
3, 38304, Note_on_c, 1, 47, 127
3, 38352, Note_on_c, 1, 47, 0
3, 38352, Note_on_c, 1, 47, 111
3, 38400, Note_on_c, 1, 47, 0
3, 38400, Note_on_c, 1, 47, 127
3, 38448, Note_on_c, 1, 47, 0
3, 38784, Note_on_c, 1, 40, 127
3, 38832, Note_on_c, 1, 40, 0
3, 38832, Note_on_c, 1, 40, 110
3, 38880, Note_on_c, 1, 40, 0
3, 38880, Note_on_c, 1, 40, 127
3, 38928, Note_on_c, 1, 40, 0
3, 38928, Note_on_c, 1, 40, 111
3, 38976, Note_on_c, 1, 40, 0
3, 38976, Note_on_c, 1, 40, 127
3, 39024, Note_on_c, 1, 40, 0
3, 39024, Note_on_c, 1, 40, 111
3, 39072, Note_on_c, 1, 40, 0
3, 39072, Note_on_c, 1, 40, 127
3, 39120, Note_on_c, 1, 40, 0
3, 39120, Note_on_c, 1, 40, 111
3, 39168, Note_on_c, 1, 40, 0
3, 39168, Note_on_c, 1, 40, 127
3, 39216, Note_on_c, 1, 40, 0
3, 39216, Note_on_c, 1, 40, 110
3, 39264, Note_on_c, 1, 40, 0
3, 39264, Note_on_c, 1, 40, 127
3, 39312, Note_on_c, 1, 40, 0
3, 39312, Note_on_c, 1, 40, 111
3, 39360, Note_on_c, 1, 40, 0
3, 39360, Note_on_c, 1, 40, 127
3, 39408, Note_on_c, 1, 40, 0
3, 39408, Note_on_c, 1, 40, 111
3, 39456, Note_on_c, 1, 40, 0
3, 39456, Note_on_c, 1, 40, 127
3, 39504, Note_on_c, 1, 40, 0
3, 39504, Note_on_c, 1, 40, 111
3, 39552, Note_on_c, 1, 40, 0
3, 39552, Note_on_c, 1, 40, 127
3, 39600, Note_on_c, 1, 40, 0
3, 39600, Note_on_c, 1, 40, 110
3, 39648, Note_on_c, 1, 40, 0
3, 39648, Note_on_c, 1, 40, 127
3, 39696, Note_on_c, 1, 40, 0
3, 39696, Note_on_c, 1, 40, 111
3, 39744, Note_on_c, 1, 40, 0
3, 39744, Note_on_c, 1, 42, 127
3, 39792, Note_on_c, 1, 42, 0
3, 39792, Note_on_c, 1, 44, 111
3, 39840, Note_on_c, 1, 44, 0
3, 39840, Note_on_c, 1, 45, 127
3, 39888, Note_on_c, 1, 45, 0
3, 39888, Note_on_c, 1, 46, 111
3, 39936, Note_on_c, 1, 46, 0
3, 39936, Note_on_c, 1, 47, 127
3, 40032, Note_on_c, 1, 47, 0
3, 40032, Note_on_c, 1, 45, 127
3, 40080, Note_on_c, 1, 45, 0
3, 40080, Note_on_c, 1, 43, 111
3, 40128, Note_on_c, 1, 43, 0
3, 40128, Note_on_c, 1, 45, 127
3, 40176, Note_on_c, 1, 45, 0
3, 40176, Note_on_c, 1, 44, 111
3, 40224, Note_on_c, 1, 44, 0
3, 40224, Note_on_c, 1, 40, 127
3, 40272, Note_on_c, 1, 40, 0
3, 40272, Note_on_c, 1, 37, 111
3, 40320, Note_on_c, 1, 37, 0
3, 40320, Note_on_c, 1, 40, 127
3, 40368, Note_on_c, 1, 40, 0
3, 40368, Note_on_c, 1, 40, 110
3, 40416, Note_on_c, 1, 40, 0
3, 40416, Note_on_c, 1, 40, 127
3, 40464, Note_on_c, 1, 40, 0
3, 40464, Note_on_c, 1, 40, 111
3, 40512, Note_on_c, 1, 40, 0
3, 40512, Note_on_c, 1, 40, 127
3, 40560, Note_on_c, 1, 40, 0
3, 40560, Note_on_c, 1, 40, 111
3, 40608, Note_on_c, 1, 40, 0
3, 40608, Note_on_c, 1, 40, 127
3, 40656, Note_on_c, 1, 40, 0
3, 40656, Note_on_c, 1, 40, 111
3, 40704, Note_on_c, 1, 40, 0
3, 40704, Note_on_c, 1, 40, 127
3, 40752, Note_on_c, 1, 40, 0
3, 40752, Note_on_c, 1, 40, 110
3, 40800, Note_on_c, 1, 40, 0
3, 40800, Note_on_c, 1, 40, 127
3, 40848, Note_on_c, 1, 40, 0
3, 40848, Note_on_c, 1, 40, 111
3, 40896, Note_on_c, 1, 40, 0
3, 40896, Note_on_c, 1, 40, 127
3, 40944, Note_on_c, 1, 40, 0
3, 40944, Note_on_c, 1, 40, 111
3, 40992, Note_on_c, 1, 40, 0
3, 40992, Note_on_c, 1, 40, 127
3, 41040, Note_on_c, 1, 40, 0
3, 41040, Note_on_c, 1, 40, 111
3, 41074, Pitch_bend_c, 1, 8320
3, 41084, Pitch_bend_c, 1, 8192
3, 41088, Note_on_c, 1, 40, 0
3, 41088, Note_on_c, 1, 52, 127
3, 41136, Note_on_c, 1, 52, 0
3, 41136, Note_on_c, 1, 52, 127
3, 41184, Note_on_c, 1, 52, 0
3, 41184, Note_on_c, 1, 52, 127
3, 41232, Note_on_c, 1, 52, 0
3, 41232, Note_on_c, 1, 52, 111
3, 41280, Note_on_c, 1, 52, 0
3, 41280, Note_on_c, 1, 52, 127
3, 41328, Note_on_c, 1, 52, 0
3, 41328, Note_on_c, 1, 52, 111
3, 41376, Note_on_c, 1, 52, 0
3, 41376, Note_on_c, 1, 52, 127
3, 41424, Note_on_c, 1, 52, 0
3, 41424, Note_on_c, 1, 52, 111
3, 41472, Note_on_c, 1, 52, 0
3, 41472, Note_on_c, 1, 52, 127
3, 41520, Note_on_c, 1, 52, 0
3, 41520, Note_on_c, 1, 52, 110
3, 41568, Note_on_c, 1, 52, 0
3, 41568, Note_on_c, 1, 52, 127
3, 41616, Note_on_c, 1, 52, 0
3, 41616, Note_on_c, 1, 52, 111
3, 41664, Note_on_c, 1, 52, 0
3, 41664, Note_on_c, 1, 52, 127
3, 41712, Note_on_c, 1, 52, 0
3, 41712, Note_on_c, 1, 35, 111
3, 41760, Note_on_c, 1, 35, 0
3, 41760, Note_on_c, 1, 37, 127
3, 41808, Note_on_c, 1, 37, 0
3, 41808, Note_on_c, 1, 39, 111
3, 41856, Note_on_c, 1, 39, 0
3, 41856, Note_on_c, 1, 40, 127
3, 41904, Note_on_c, 1, 40, 0
3, 41904, Note_on_c, 1, 40, 110
3, 41952, Note_on_c, 1, 40, 0
3, 41952, Note_on_c, 1, 40, 127
3, 42000, Note_on_c, 1, 40, 0
3, 42000, Note_on_c, 1, 40, 111
3, 42048, Note_on_c, 1, 40, 0
3, 42048, Note_on_c, 1, 40, 127
3, 42096, Note_on_c, 1, 40, 0
3, 42096, Note_on_c, 1, 40, 111
3, 42144, Note_on_c, 1, 40, 0
3, 42144, Note_on_c, 1, 40, 127
3, 42192, Note_on_c, 1, 40, 0
3, 42192, Note_on_c, 1, 40, 111
3, 42240, Note_on_c, 1, 40, 0
3, 42240, Note_on_c, 1, 40, 127
3, 42288, Note_on_c, 1, 40, 0
3, 42288, Note_on_c, 1, 40, 110
3, 42336, Note_on_c, 1, 40, 0
3, 42336, Note_on_c, 1, 40, 127
3, 42384, Note_on_c, 1, 40, 0
3, 42384, Note_on_c, 1, 40, 111
3, 42432, Note_on_c, 1, 40, 0
3, 42432, Note_on_c, 1, 40, 127
3, 42480, Note_on_c, 1, 40, 0
3, 42480, Note_on_c, 1, 40, 111
3, 42528, Note_on_c, 1, 40, 0
3, 42528, Note_on_c, 1, 40, 127
3, 42576, Note_on_c, 1, 40, 0
3, 42576, Note_on_c, 1, 40, 111
3, 42610, Pitch_bend_c, 1, 8320
3, 42620, Pitch_bend_c, 1, 8192
3, 42624, Note_on_c, 1, 40, 0
3, 42624, Note_on_c, 1, 52, 127
3, 42672, Note_on_c, 1, 52, 0
3, 42672, Note_on_c, 1, 52, 127
3, 42720, Note_on_c, 1, 52, 0
3, 42720, Note_on_c, 1, 52, 127
3, 42768, Note_on_c, 1, 52, 0
3, 42768, Note_on_c, 1, 52, 111
3, 42816, Note_on_c, 1, 52, 0
3, 42816, Note_on_c, 1, 52, 127
3, 42864, Note_on_c, 1, 52, 0
3, 42864, Note_on_c, 1, 52, 111
3, 42912, Note_on_c, 1, 52, 0
3, 42912, Note_on_c, 1, 52, 127
3, 42960, Note_on_c, 1, 52, 0
3, 42960, Note_on_c, 1, 52, 111
3, 43008, Note_on_c, 1, 52, 0
3, 43008, Note_on_c, 1, 52, 127
3, 43056, Note_on_c, 1, 52, 0
3, 43056, Note_on_c, 1, 47, 110
3, 43104, Note_on_c, 1, 47, 0
3, 43104, Note_on_c, 1, 49, 127
3, 43152, Note_on_c, 1, 49, 0
3, 43152, Note_on_c, 1, 52, 111
3, 43200, Note_on_c, 1, 52, 0
3, 43200, Note_on_c, 1, 52, 127
3, 43248, Note_on_c, 1, 52, 0
3, 43248, Note_on_c, 1, 49, 111
3, 43296, Note_on_c, 1, 49, 0
3, 43296, Note_on_c, 1, 47, 127
3, 43344, Note_on_c, 1, 47, 0
3, 43344, Note_on_c, 1, 43, 111
3, 43392, Note_on_c, 1, 43, 0
3, 43440, Note_on_c, 1, 40, 110
3, 43488, Note_on_c, 1, 40, 0
3, 43488, Note_on_c, 1, 40, 127
3, 43536, Note_on_c, 1, 40, 0
3, 43536, Note_on_c, 1, 40, 111
3, 43584, Note_on_c, 1, 40, 0
3, 43584, Note_on_c, 1, 40, 127
3, 43632, Note_on_c, 1, 40, 0
3, 43632, Note_on_c, 1, 40, 111
3, 43680, Note_on_c, 1, 40, 0
3, 43680, Note_on_c, 1, 40, 127
3, 43728, Note_on_c, 1, 40, 0
3, 43728, Note_on_c, 1, 40, 111
3, 43776, Note_on_c, 1, 40, 0
3, 43776, Note_on_c, 1, 40, 127
3, 43824, Note_on_c, 1, 40, 0
3, 43824, Note_on_c, 1, 40, 110
3, 43872, Note_on_c, 1, 40, 0
3, 43872, Note_on_c, 1, 40, 127
3, 43920, Note_on_c, 1, 40, 0
3, 43920, Note_on_c, 1, 40, 111
3, 43968, Note_on_c, 1, 40, 0
3, 43968, Note_on_c, 1, 40, 127
3, 44016, Note_on_c, 1, 40, 0
3, 44016, Note_on_c, 1, 40, 111
3, 44064, Note_on_c, 1, 40, 0
3, 44064, Note_on_c, 1, 40, 127
3, 44112, Note_on_c, 1, 40, 0
3, 44112, Note_on_c, 1, 40, 111
3, 44160, Note_on_c, 1, 40, 0
3, 44160, Note_on_c, 1, 52, 127
3, 44208, Note_on_c, 1, 52, 0
3, 44208, Note_on_c, 1, 52, 110
3, 44256, Note_on_c, 1, 52, 0
3, 44256, Note_on_c, 1, 52, 127
3, 44304, Note_on_c, 1, 52, 0
3, 44304, Note_on_c, 1, 52, 111
3, 44352, Note_on_c, 1, 52, 0
3, 44352, Note_on_c, 1, 52, 127
3, 44400, Note_on_c, 1, 52, 0
3, 44400, Note_on_c, 1, 52, 111
3, 44448, Note_on_c, 1, 52, 0
3, 44448, Note_on_c, 1, 52, 127
3, 44496, Note_on_c, 1, 52, 0
3, 44496, Note_on_c, 1, 52, 111
3, 44544, Note_on_c, 1, 52, 0
3, 44544, Note_on_c, 1, 52, 127
3, 44592, Note_on_c, 1, 52, 0
3, 44592, Note_on_c, 1, 52, 110
3, 44640, Note_on_c, 1, 52, 0
3, 44640, Note_on_c, 1, 52, 127
3, 44688, Note_on_c, 1, 52, 0
3, 44688, Note_on_c, 1, 52, 111
3, 44736, Note_on_c, 1, 52, 0
3, 44736, Note_on_c, 1, 52, 127
3, 44784, Note_on_c, 1, 52, 0
3, 44784, Note_on_c, 1, 35, 111
3, 44832, Note_on_c, 1, 35, 0
3, 44832, Note_on_c, 1, 38, 127
3, 44880, Note_on_c, 1, 38, 0
3, 44880, Note_on_c, 1, 39, 111
3, 44928, Note_on_c, 1, 39, 0
3, 44928, Note_on_c, 1, 40, 127
3, 44976, Note_on_c, 1, 40, 0
3, 44976, Note_on_c, 1, 40, 110
3, 45024, Note_on_c, 1, 40, 0
3, 45024, Note_on_c, 1, 40, 127
3, 45072, Note_on_c, 1, 40, 0
3, 45072, Note_on_c, 1, 40, 111
3, 45120, Note_on_c, 1, 40, 0
3, 45120, Note_on_c, 1, 40, 127
3, 45168, Note_on_c, 1, 40, 0
3, 45168, Note_on_c, 1, 40, 111
3, 45216, Note_on_c, 1, 40, 0
3, 45216, Note_on_c, 1, 40, 127
3, 45264, Note_on_c, 1, 40, 0
3, 45264, Note_on_c, 1, 40, 111
3, 45312, Note_on_c, 1, 40, 0
3, 45312, Note_on_c, 1, 40, 127
3, 45360, Note_on_c, 1, 40, 0
3, 45360, Note_on_c, 1, 40, 110
3, 45408, Note_on_c, 1, 40, 0
3, 45408, Note_on_c, 1, 40, 127
3, 45456, Note_on_c, 1, 40, 0
3, 45456, Note_on_c, 1, 40, 111
3, 45504, Note_on_c, 1, 40, 0
3, 45504, Note_on_c, 1, 40, 127
3, 45552, Note_on_c, 1, 40, 0
3, 45552, Note_on_c, 1, 40, 111
3, 45600, Note_on_c, 1, 40, 0
3, 45600, Note_on_c, 1, 40, 127
3, 45648, Note_on_c, 1, 40, 0
3, 45648, Note_on_c, 1, 40, 111
3, 45696, Note_on_c, 1, 40, 0
3, 45696, Note_on_c, 1, 52, 127
3, 45744, Note_on_c, 1, 52, 0
3, 45744, Note_on_c, 1, 52, 110
3, 45792, Note_on_c, 1, 52, 0
3, 45792, Note_on_c, 1, 52, 127
3, 45840, Note_on_c, 1, 52, 0
3, 45840, Note_on_c, 1, 52, 111
3, 45888, Note_on_c, 1, 52, 0
3, 45888, Note_on_c, 1, 52, 127
3, 45936, Note_on_c, 1, 52, 0
3, 45936, Note_on_c, 1, 52, 111
3, 45984, Note_on_c, 1, 52, 0
3, 45984, Note_on_c, 1, 52, 127
3, 46032, Note_on_c, 1, 52, 0
3, 46032, Note_on_c, 1, 52, 111
3, 46080, Note_on_c, 1, 52, 0
3, 46080, Note_on_c, 1, 52, 127
3, 46128, Note_on_c, 1, 52, 0
3, 46128, Note_on_c, 1, 49, 110
3, 46176, Note_on_c, 1, 49, 0
3, 46176, Note_on_c, 1, 47, 127
3, 46224, Note_on_c, 1, 47, 0
3, 46224, Note_on_c, 1, 40, 111
3, 46272, Note_on_c, 1, 40, 0
3, 46272, Note_on_c, 1, 42, 127
3, 46320, Note_on_c, 1, 42, 0
3, 46320, Note_on_c, 1, 44, 111
3, 46368, Note_on_c, 1, 44, 0
3, 46368, Note_on_c, 1, 45, 127
3, 46416, Note_on_c, 1, 45, 0
3, 46416, Note_on_c, 1, 46, 111
3, 46464, Note_on_c, 1, 46, 0
3, 46464, Note_on_c, 1, 40, 127
3, 46512, Note_on_c, 1, 40, 0
3, 46512, Note_on_c, 1, 40, 110
3, 46560, Note_on_c, 1, 40, 0
3, 46560, Note_on_c, 1, 40, 127
3, 46608, Note_on_c, 1, 40, 0
3, 46608, Note_on_c, 1, 40, 111
3, 46656, Note_on_c, 1, 40, 0
3, 46656, Note_on_c, 1, 40, 127
3, 46704, Note_on_c, 1, 40, 0
3, 46704, Note_on_c, 1, 40, 111
3, 46752, Note_on_c, 1, 40, 0
3, 46752, Note_on_c, 1, 40, 127
3, 46800, Note_on_c, 1, 40, 0
3, 46800, Note_on_c, 1, 40, 111
3, 46848, Note_on_c, 1, 40, 0
3, 46848, Note_on_c, 1, 40, 127
3, 46896, Note_on_c, 1, 40, 0
3, 46896, Note_on_c, 1, 40, 110
3, 46944, Note_on_c, 1, 40, 0
3, 46944, Note_on_c, 1, 40, 127
3, 46992, Note_on_c, 1, 40, 0
3, 46992, Note_on_c, 1, 40, 111
3, 47040, Note_on_c, 1, 40, 0
3, 47040, Note_on_c, 1, 40, 127
3, 47088, Note_on_c, 1, 40, 0
3, 47088, Note_on_c, 1, 35, 111
3, 47136, Note_on_c, 1, 35, 0
3, 47136, Note_on_c, 1, 37, 127
3, 47184, Note_on_c, 1, 37, 0
3, 47184, Note_on_c, 1, 39, 111
3, 47232, Note_on_c, 1, 39, 0
3, 47232, Note_on_c, 1, 40, 127
3, 47280, Note_on_c, 1, 40, 0
3, 47280, Note_on_c, 1, 40, 110
3, 47328, Note_on_c, 1, 40, 0
3, 47328, Note_on_c, 1, 40, 127
3, 47376, Note_on_c, 1, 40, 0
3, 47376, Note_on_c, 1, 40, 111
3, 47424, Note_on_c, 1, 40, 0
3, 47424, Note_on_c, 1, 40, 127
3, 47472, Note_on_c, 1, 40, 0
3, 47472, Note_on_c, 1, 40, 111
3, 47520, Note_on_c, 1, 40, 0
3, 47520, Note_on_c, 1, 40, 127
3, 47568, Note_on_c, 1, 40, 0
3, 47568, Note_on_c, 1, 40, 111
3, 47616, Note_on_c, 1, 40, 0
3, 47616, Note_on_c, 1, 40, 127
3, 47664, Note_on_c, 1, 40, 0
3, 47664, Note_on_c, 1, 42, 110
3, 47712, Note_on_c, 1, 42, 0
3, 47712, Note_on_c, 1, 43, 127
3, 47760, Note_on_c, 1, 43, 0
3, 47760, Note_on_c, 1, 44, 111
3, 47808, Note_on_c, 1, 44, 0
3, 47808, Note_on_c, 1, 45, 127
3, 47856, Note_on_c, 1, 45, 0
3, 47856, Note_on_c, 1, 35, 111
3, 47904, Note_on_c, 1, 35, 0
3, 47904, Note_on_c, 1, 37, 127
3, 47952, Note_on_c, 1, 37, 0
3, 47952, Note_on_c, 1, 39, 111
3, 48000, Note_on_c, 1, 39, 0
3, 48000, Note_on_c, 1, 40, 127
3, 48048, Note_on_c, 1, 40, 0
3, 48048, Note_on_c, 1, 40, 110
3, 48096, Note_on_c, 1, 40, 0
3, 48096, Note_on_c, 1, 40, 127
3, 48144, Note_on_c, 1, 40, 0
3, 48144, Note_on_c, 1, 40, 111
3, 48192, Note_on_c, 1, 40, 0
3, 48192, Note_on_c, 1, 40, 127
3, 48240, Note_on_c, 1, 40, 0
3, 48240, Note_on_c, 1, 40, 111
3, 48288, Note_on_c, 1, 40, 0
3, 48288, Note_on_c, 1, 40, 127
3, 48336, Note_on_c, 1, 40, 0
3, 48336, Note_on_c, 1, 40, 111
3, 48384, Note_on_c, 1, 40, 0
3, 48384, Note_on_c, 1, 40, 127
3, 48432, Note_on_c, 1, 40, 0
3, 48432, Note_on_c, 1, 40, 110
3, 48480, Note_on_c, 1, 40, 0
3, 48480, Note_on_c, 1, 40, 127
3, 48528, Note_on_c, 1, 40, 0
3, 48528, Note_on_c, 1, 40, 111
3, 48576, Note_on_c, 1, 40, 0
3, 48576, Note_on_c, 1, 40, 127
3, 48624, Note_on_c, 1, 40, 0
3, 48624, Note_on_c, 1, 44, 111
3, 48672, Note_on_c, 1, 44, 0
3, 48672, Note_on_c, 1, 45, 127
3, 48720, Note_on_c, 1, 45, 0
3, 48720, Note_on_c, 1, 46, 111
3, 48768, Note_on_c, 1, 46, 0
3, 48768, Note_on_c, 1, 47, 127
3, 48816, Note_on_c, 1, 47, 0
3, 48816, Note_on_c, 1, 47, 110
3, 48864, Note_on_c, 1, 47, 0
3, 48864, Note_on_c, 1, 45, 127
3, 48912, Note_on_c, 1, 45, 0
3, 48912, Note_on_c, 1, 45, 111
3, 48960, Note_on_c, 1, 45, 0
3, 48960, Note_on_c, 1, 44, 127
3, 49008, Note_on_c, 1, 44, 0
3, 49008, Note_on_c, 1, 44, 111
3, 49056, Note_on_c, 1, 44, 0
3, 49056, Note_on_c, 1, 42, 127
3, 49104, Note_on_c, 1, 42, 0
3, 49104, Note_on_c, 1, 40, 111
3, 49152, Note_on_c, 1, 40, 0
3, 49152, Note_on_c, 1, 42, 127
3, 49200, Note_on_c, 1, 42, 0
3, 49200, Note_on_c, 1, 40, 110
3, 49248, Note_on_c, 1, 40, 0
3, 49248, Note_on_c, 1, 37, 127
3, 49296, Note_on_c, 1, 37, 0
3, 49296, Note_on_c, 1, 40, 125
3, 49680, Note_on_c, 1, 40, 0
3, 49680, End_track
4, 0, Start_track
4, 0, MIDI_port, 0
4, 0, Title_t, "Lead Guitar1"
4, 0, Program_c, 2, 27
4, 0, Control_c, 2, 7, 110
4, 0, Control_c, 2, 10, 68
4, 1, Control_c, 2, 7, 0
4, 1, Program_c, 2, 27
4, 2, Control_c, 2, 7, 110
4, 3, Control_c, 2, 92, 60
4, 3, Control_c, 2, 91, 100
4, 4, Control_c, 2, 11, 120
4, 5, Control_c, 2, 1, 20
4, 765, Pitch_bend_c, 2, 8064
4, 768, Note_on_c, 2, 45, 120
4, 768, Note_on_c, 2, 50, 120
4, 769, Pitch_bend_c, 2, 8320
4, 805, Pitch_bend_c, 2, 7936
4, 808, Pitch_bend_c, 2, 7808
4, 812, Pitch_bend_c, 2, 7552
4, 813, Pitch_bend_c, 2, 7296
4, 816, Pitch_bend_c, 2, 7168
4, 817, Pitch_bend_c, 2, 7296
4, 820, Pitch_bend_c, 2, 8192
4, 821, Pitch_bend_c, 2, 10240
4, 824, Pitch_bend_c, 2, 11008
4, 825, Pitch_bend_c, 2, 12032
4, 828, Pitch_bend_c, 2, 12672
4, 829, Pitch_bend_c, 2, 13952
4, 832, Pitch_bend_c, 2, 15104
4, 833, Pitch_bend_c, 2, 16383
4, 864, Note_on_c, 2, 50, 0
4, 864, Note_on_c, 2, 45, 0
4, 864, Note_on_c, 2, 52, 120
4, 864, Pitch_bend_c, 2, 8320
4, 864, Note_on_c, 2, 47, 120
4, 1440, Note_on_c, 2, 47, 0
4, 1440, Note_on_c, 2, 52, 0
4, 1536, Note_on_c, 2, 45, 120
4, 1536, Note_on_c, 2, 50, 120
4, 1537, Pitch_bend_c, 2, 8320
4, 1573, Pitch_bend_c, 2, 7936
4, 1576, Pitch_bend_c, 2, 7808
4, 1580, Pitch_bend_c, 2, 7552
4, 1581, Pitch_bend_c, 2, 7296
4, 1584, Pitch_bend_c, 2, 7168
4, 1585, Pitch_bend_c, 2, 7296
4, 1588, Pitch_bend_c, 2, 8192
4, 1589, Pitch_bend_c, 2, 10240
4, 1592, Pitch_bend_c, 2, 11008
4, 1593, Pitch_bend_c, 2, 12032
4, 1596, Pitch_bend_c, 2, 12672
4, 1597, Pitch_bend_c, 2, 13952
4, 1600, Pitch_bend_c, 2, 15104
4, 1601, Pitch_bend_c, 2, 16383
4, 1632, Note_on_c, 2, 50, 0
4, 1632, Note_on_c, 2, 45, 0
4, 1632, Note_on_c, 2, 52, 120
4, 1632, Pitch_bend_c, 2, 8320
4, 1632, Note_on_c, 2, 47, 120
4, 2208, Note_on_c, 2, 47, 0
4, 2208, Note_on_c, 2, 52, 0
4, 2304, Note_on_c, 2, 45, 120
4, 2304, Note_on_c, 2, 50, 120
4, 2305, Pitch_bend_c, 2, 8320
4, 2341, Pitch_bend_c, 2, 7936
4, 2344, Pitch_bend_c, 2, 7808
4, 2348, Pitch_bend_c, 2, 7552
4, 2349, Pitch_bend_c, 2, 7296
4, 2352, Pitch_bend_c, 2, 7168
4, 2353, Pitch_bend_c, 2, 7296
4, 2356, Pitch_bend_c, 2, 8192
4, 2357, Pitch_bend_c, 2, 10240
4, 2360, Pitch_bend_c, 2, 11008
4, 2361, Pitch_bend_c, 2, 12032
4, 2364, Pitch_bend_c, 2, 12672
4, 2365, Pitch_bend_c, 2, 13952
4, 2368, Pitch_bend_c, 2, 15104
4, 2369, Pitch_bend_c, 2, 16383
4, 2400, Note_on_c, 2, 50, 0
4, 2400, Note_on_c, 2, 45, 0
4, 2400, Note_on_c, 2, 52, 120
4, 2400, Pitch_bend_c, 2, 8320
4, 2400, Note_on_c, 2, 47, 120
4, 2976, Note_on_c, 2, 47, 0
4, 2976, Note_on_c, 2, 52, 0
4, 4032, Note_on_c, 2, 40, 127
4, 4080, Note_on_c, 2, 52, 127
4, 4128, Note_on_c, 2, 40, 0
4, 4128, Pitch_bend_c, 2, 8192
4, 4128, Note_on_c, 2, 59, 127
4, 4129, Pitch_bend_c, 2, 8320
4, 4176, Pitch_bend_c, 2, 8192
4, 4176, Note_on_c, 2, 56, 127
4, 4224, Note_on_c, 2, 57, 109
4, 4245, Pitch_bend_c, 2, 8192
4, 4248, Note_on_c, 2, 56, 0
4, 4305, Pitch_bend_c, 2, 8192
4, 4320, Note_on_c, 2, 59, 0
4, 4500, Pitch_bend_c, 2, 8448
4, 4501, Pitch_bend_c, 2, 8192
4, 4656, Note_on_c, 2, 52, 0
4, 4992, Note_on_c, 2, 57, 0
4, 6336, Note_on_c, 2, 40, 120
4, 6384, Note_on_c, 2, 52, 120
4, 6432, Note_on_c, 2, 40, 0
4, 6432, Pitch_bend_c, 2, 8192
4, 6432, Note_on_c, 2, 59, 120
4, 6433, Pitch_bend_c, 2, 8320
4, 6480, Pitch_bend_c, 2, 8192
4, 6480, Note_on_c, 2, 56, 120
4, 6528, Note_on_c, 2, 57, 120
4, 6549, Pitch_bend_c, 2, 8192
4, 6552, Note_on_c, 2, 56, 0
4, 6552, Note_on_c, 2, 59, 0
4, 6609, Pitch_bend_c, 2, 8192
4, 6804, Pitch_bend_c, 2, 8448
4, 6805, Pitch_bend_c, 2, 8192
4, 6816, Note_on_c, 2, 52, 0
4, 7296, Note_on_c, 2, 57, 0
4, 7872, Note_on_c, 2, 54, 120
4, 7920, Note_on_c, 2, 59, 120
4, 7968, Note_on_c, 2, 64, 120
4, 8016, Note_on_c, 2, 61, 120
4, 8064, Note_on_c, 2, 54, 0
4, 8064, Note_on_c, 2, 63, 112
4, 8088, Note_on_c, 2, 61, 0
4, 8088, Note_on_c, 2, 64, 0
4, 8304, Note_on_c, 2, 59, 0
4, 8448, Note_on_c, 2, 63, 0
4, 9600, Note_on_c, 2, 45, 100
4, 9648, Note_on_c, 2, 57, 120
4, 9696, Note_on_c, 2, 45, 0
4, 9696, Note_on_c, 2, 64, 120
4, 9744, Note_on_c, 2, 59, 120
4, 9792, Note_on_c, 2, 59, 0
4, 9792, Note_on_c, 2, 61, 120
4, 9888, Note_on_c, 2, 64, 0
4, 9936, Note_on_c, 2, 57, 0
4, 9984, Note_on_c, 2, 61, 0
4, 9984, Note_on_c, 2, 54, 67
4, 9984, Note_on_c, 2, 47, 67
4, 10032, Note_on_c, 2, 47, 0
4, 10032, Note_on_c, 2, 54, 0
4, 10032, Note_on_c, 2, 47, 69
4, 10032, Note_on_c, 2, 54, 69
4, 10080, Note_on_c, 2, 54, 0
4, 10080, Note_on_c, 2, 47, 0
4, 10080, Note_on_c, 2, 54, 71
4, 10080, Note_on_c, 2, 47, 71
4, 10128, Note_on_c, 2, 47, 0
4, 10128, Note_on_c, 2, 54, 0
4, 10128, Note_on_c, 2, 47, 75
4, 10128, Note_on_c, 2, 54, 75
4, 10176, Note_on_c, 2, 54, 0
4, 10176, Note_on_c, 2, 47, 0
4, 10176, Note_on_c, 2, 47, 80
4, 10176, Note_on_c, 2, 54, 80
4, 10224, Note_on_c, 2, 54, 0
4, 10224, Note_on_c, 2, 47, 0
4, 10224, Note_on_c, 2, 54, 83
4, 10224, Note_on_c, 2, 47, 83
4, 10272, Note_on_c, 2, 47, 0
4, 10272, Note_on_c, 2, 54, 0
4, 10272, Note_on_c, 2, 47, 92
4, 10272, Note_on_c, 2, 54, 92
4, 10320, Note_on_c, 2, 54, 0
4, 10320, Note_on_c, 2, 47, 0
4, 10320, Note_on_c, 2, 54, 96
4, 10320, Note_on_c, 2, 47, 96
4, 10368, Note_on_c, 2, 47, 0
4, 10368, Note_on_c, 2, 54, 0
4, 10368, Note_on_c, 2, 47, 102
4, 10368, Note_on_c, 2, 54, 102
4, 10416, Note_on_c, 2, 54, 0
4, 10416, Note_on_c, 2, 47, 0
4, 10656, Pitch_bend_c, 2, 8192
4, 10656, Note_on_c, 2, 43, 100
4, 10657, Pitch_bend_c, 2, 7808
4, 10660, Pitch_bend_c, 2, 7552
4, 10661, Pitch_bend_c, 2, 7424
4, 10664, Pitch_bend_c, 2, 7296
4, 10665, Pitch_bend_c, 2, 7040
4, 10668, Pitch_bend_c, 2, 6912
4, 10672, Pitch_bend_c, 2, 6656
4, 10676, Pitch_bend_c, 2, 6528
4, 10677, Pitch_bend_c, 2, 6272
4, 10681, Pitch_bend_c, 2, 6144
4, 10685, Pitch_bend_c, 2, 6016
4, 10688, Pitch_bend_c, 2, 5760
4, 10692, Pitch_bend_c, 2, 5632
4, 10693, Pitch_bend_c, 2, 5504
4, 10696, Pitch_bend_c, 2, 5248
4, 10700, Pitch_bend_c, 2, 5120
4, 10701, Pitch_bend_c, 2, 4864
4, 10705, Pitch_bend_c, 2, 4608
4, 10708, Pitch_bend_c, 2, 4480
4, 10709, Pitch_bend_c, 2, 4224
4, 10712, Pitch_bend_c, 2, 4096
4, 10713, Pitch_bend_c, 2, 3840
4, 10716, Pitch_bend_c, 2, 3712
4, 10717, Pitch_bend_c, 2, 3328
4, 10720, Pitch_bend_c, 2, 3200
4, 10721, Pitch_bend_c, 2, 2944
4, 10724, Pitch_bend_c, 2, 2688
4, 10725, Pitch_bend_c, 2, 2432
4, 10728, Pitch_bend_c, 2, 2176
4, 10729, Pitch_bend_c, 2, 1920
4, 10732, Pitch_bend_c, 2, 1664
4, 10733, Pitch_bend_c, 2, 1408
4, 10736, Pitch_bend_c, 2, 1024
4, 10740, Pitch_bend_c, 2, 640
4, 10741, Pitch_bend_c, 2, 384
4, 10744, Pitch_bend_c, 2, 128
4, 10749, Pitch_bend_c, 2, 8320
4, 10752, Note_on_c, 2, 43, 0
4, 10944, Note_on_c, 2, 40, 127
4, 10992, Note_on_c, 2, 52, 127
4, 11040, Note_on_c, 2, 40, 0
4, 11040, Pitch_bend_c, 2, 8192
4, 11040, Note_on_c, 2, 59, 127
4, 11041, Pitch_bend_c, 2, 8320
4, 11088, Pitch_bend_c, 2, 8192
4, 11088, Note_on_c, 2, 56, 127
4, 11136, Note_on_c, 2, 57, 109
4, 11157, Pitch_bend_c, 2, 8192
4, 11160, Note_on_c, 2, 56, 0
4, 11217, Pitch_bend_c, 2, 8192
4, 11232, Note_on_c, 2, 59, 0
4, 11412, Pitch_bend_c, 2, 8448
4, 11413, Pitch_bend_c, 2, 8192
4, 11568, Note_on_c, 2, 52, 0
4, 11904, Note_on_c, 2, 57, 0
4, 12864, Note_on_c, 2, 40, 120
4, 12912, Note_on_c, 2, 52, 120
4, 12960, Note_on_c, 2, 40, 0
4, 12960, Pitch_bend_c, 2, 8192
4, 12960, Note_on_c, 2, 59, 120
4, 12961, Pitch_bend_c, 2, 8320
4, 13008, Pitch_bend_c, 2, 8192
4, 13008, Note_on_c, 2, 56, 120
4, 13056, Note_on_c, 2, 57, 120
4, 13077, Pitch_bend_c, 2, 8192
4, 13080, Note_on_c, 2, 56, 0
4, 13104, Note_on_c, 2, 59, 0
4, 13137, Pitch_bend_c, 2, 8192
4, 13332, Pitch_bend_c, 2, 8448
4, 13333, Pitch_bend_c, 2, 8192
4, 13440, Note_on_c, 2, 52, 0
4, 13824, Note_on_c, 2, 57, 0
4, 14400, Note_on_c, 2, 54, 120
4, 14448, Note_on_c, 2, 59, 120
4, 14496, Note_on_c, 2, 64, 120
4, 14544, Note_on_c, 2, 61, 120
4, 14592, Note_on_c, 2, 54, 0
4, 14592, Note_on_c, 2, 63, 112
4, 14616, Note_on_c, 2, 61, 0
4, 14616, Note_on_c, 2, 64, 0
4, 14832, Note_on_c, 2, 59, 0
4, 14976, Note_on_c, 2, 63, 0
4, 16128, Note_on_c, 2, 45, 100
4, 16176, Note_on_c, 2, 57, 120
4, 16224, Note_on_c, 2, 45, 0
4, 16224, Note_on_c, 2, 64, 120
4, 16272, Note_on_c, 2, 59, 120
4, 16320, Note_on_c, 2, 59, 0
4, 16320, Note_on_c, 2, 61, 120
4, 16416, Note_on_c, 2, 64, 0
4, 16464, Note_on_c, 2, 57, 0
4, 16512, Note_on_c, 2, 61, 0
4, 16512, Note_on_c, 2, 54, 67
4, 16512, Note_on_c, 2, 47, 67
4, 16560, Note_on_c, 2, 47, 0
4, 16560, Note_on_c, 2, 54, 0
4, 16560, Note_on_c, 2, 47, 69
4, 16560, Note_on_c, 2, 54, 69
4, 16608, Note_on_c, 2, 54, 0
4, 16608, Note_on_c, 2, 47, 0
4, 16608, Note_on_c, 2, 54, 71
4, 16608, Note_on_c, 2, 47, 71
4, 16656, Note_on_c, 2, 47, 0
4, 16656, Note_on_c, 2, 54, 0
4, 16656, Note_on_c, 2, 47, 75
4, 16656, Note_on_c, 2, 54, 75
4, 16704, Note_on_c, 2, 54, 0
4, 16704, Note_on_c, 2, 47, 0
4, 16704, Note_on_c, 2, 47, 80
4, 16704, Note_on_c, 2, 54, 80
4, 16752, Note_on_c, 2, 54, 0
4, 16752, Note_on_c, 2, 47, 0
4, 16752, Note_on_c, 2, 54, 83
4, 16752, Note_on_c, 2, 47, 83
4, 16800, Note_on_c, 2, 47, 0
4, 16800, Note_on_c, 2, 54, 0
4, 16800, Note_on_c, 2, 47, 92
4, 16800, Note_on_c, 2, 54, 92
4, 16848, Note_on_c, 2, 54, 0
4, 16848, Note_on_c, 2, 47, 0
4, 16848, Note_on_c, 2, 54, 96
4, 16848, Note_on_c, 2, 47, 96
4, 16896, Note_on_c, 2, 47, 0
4, 16896, Note_on_c, 2, 54, 0
4, 16896, Note_on_c, 2, 47, 102
4, 16896, Note_on_c, 2, 54, 102
4, 16944, Note_on_c, 2, 54, 0
4, 16944, Note_on_c, 2, 47, 0
4, 17184, Pitch_bend_c, 2, 8192
4, 17184, Note_on_c, 2, 43, 100
4, 17185, Pitch_bend_c, 2, 7808
4, 17188, Pitch_bend_c, 2, 7552
4, 17189, Pitch_bend_c, 2, 7424
4, 17192, Pitch_bend_c, 2, 7296
4, 17193, Pitch_bend_c, 2, 7040
4, 17196, Pitch_bend_c, 2, 6912
4, 17200, Pitch_bend_c, 2, 6656
4, 17204, Pitch_bend_c, 2, 6528
4, 17205, Pitch_bend_c, 2, 6272
4, 17209, Pitch_bend_c, 2, 6144
4, 17213, Pitch_bend_c, 2, 6016
4, 17216, Pitch_bend_c, 2, 5760
4, 17220, Pitch_bend_c, 2, 5632
4, 17221, Pitch_bend_c, 2, 5504
4, 17224, Pitch_bend_c, 2, 5248
4, 17228, Pitch_bend_c, 2, 5120
4, 17229, Pitch_bend_c, 2, 4864
4, 17233, Pitch_bend_c, 2, 4608
4, 17236, Pitch_bend_c, 2, 4480
4, 17237, Pitch_bend_c, 2, 4224
4, 17240, Pitch_bend_c, 2, 4096
4, 17241, Pitch_bend_c, 2, 3840
4, 17244, Pitch_bend_c, 2, 3712
4, 17245, Pitch_bend_c, 2, 3328
4, 17248, Pitch_bend_c, 2, 3200
4, 17249, Pitch_bend_c, 2, 2944
4, 17252, Pitch_bend_c, 2, 2688
4, 17253, Pitch_bend_c, 2, 2432
4, 17256, Pitch_bend_c, 2, 2176
4, 17257, Pitch_bend_c, 2, 1920
4, 17260, Pitch_bend_c, 2, 1664
4, 17261, Pitch_bend_c, 2, 1408
4, 17264, Pitch_bend_c, 2, 1024
4, 17268, Pitch_bend_c, 2, 640
4, 17269, Pitch_bend_c, 2, 384
4, 17272, Pitch_bend_c, 2, 128
4, 17277, Pitch_bend_c, 2, 8320
4, 17280, Note_on_c, 2, 43, 0
4, 17472, Note_on_c, 2, 40, 127
4, 17520, Note_on_c, 2, 52, 127
4, 17568, Note_on_c, 2, 40, 0
4, 17568, Pitch_bend_c, 2, 8192
4, 17568, Note_on_c, 2, 59, 127
4, 17569, Pitch_bend_c, 2, 8320
4, 17616, Pitch_bend_c, 2, 8192
4, 17616, Note_on_c, 2, 56, 127
4, 17660, Pitch_bend_c, 2, 8192
4, 17662, Pitch_bend_c, 2, 8192
4, 17664, Note_on_c, 2, 56, 0
4, 17664, Note_on_c, 2, 56, 127
4, 17680, Pitch_bend_c, 2, 8320
4, 17684, Pitch_bend_c, 2, 8192
4, 17688, Note_on_c, 2, 59, 0
4, 17698, Pitch_bend_c, 2, 8320
4, 17704, Pitch_bend_c, 2, 8448
4, 17706, Pitch_bend_c, 2, 8576
4, 17708, Pitch_bend_c, 2, 8832
4, 17708, Pitch_bend_c, 2, 8704
4, 17710, Pitch_bend_c, 2, 9088
4, 17712, Pitch_bend_c, 2, 10112
4, 17712, Pitch_bend_c, 2, 9344
4, 17714, Pitch_bend_c, 2, 10752
4, 17716, Pitch_bend_c, 2, 11392
4, 17716, Pitch_bend_c, 2, 11136
4, 17718, Pitch_bend_c, 2, 11904
4, 17720, Pitch_bend_c, 2, 12288
4, 17720, Pitch_bend_c, 2, 12160
4, 17724, Pitch_bend_c, 2, 12416
4, 17730, Pitch_bend_c, 2, 12288
4, 17760, Note_on_c, 2, 56, 0
4, 17760, Note_on_c, 2, 52, 0
4, 17760, Pitch_bend_c, 2, 8320
4, 17760, Note_on_c, 2, 59, 127
4, 17808, Note_on_c, 2, 52, 127
4, 17856, Note_on_c, 2, 52, 0
4, 17856, Note_on_c, 2, 59, 0
4, 17856, Note_on_c, 2, 57, 127
4, 17904, Note_on_c, 2, 57, 0
4, 17904, Note_on_c, 2, 56, 127
4, 17940, Pitch_bend_c, 2, 8448
4, 17941, Pitch_bend_c, 2, 8192
4, 18024, Note_on_c, 2, 56, 0
4, 19200, Pitch_bend_c, 2, 7936
4, 19200, Note_on_c, 2, 39, 127
4, 19202, Pitch_bend_c, 2, 7808
4, 19204, Pitch_bend_c, 2, 7680
4, 19206, Pitch_bend_c, 2, 7424
4, 19208, Pitch_bend_c, 2, 7168
4, 19212, Pitch_bend_c, 2, 6912
4, 19212, Pitch_bend_c, 2, 7040
4, 19214, Pitch_bend_c, 2, 6656
4, 19216, Pitch_bend_c, 2, 6016
4, 19216, Pitch_bend_c, 2, 6400
4, 19220, Pitch_bend_c, 2, 5888
4, 19224, Pitch_bend_c, 2, 6016
4, 19226, Pitch_bend_c, 2, 6144
4, 19228, Pitch_bend_c, 2, 6400
4, 19230, Pitch_bend_c, 2, 6656
4, 19232, Pitch_bend_c, 2, 7168
4, 19232, Pitch_bend_c, 2, 6912
4, 19234, Pitch_bend_c, 2, 7296
4, 19236, Pitch_bend_c, 2, 7936
4, 19236, Pitch_bend_c, 2, 7552
4, 19238, Pitch_bend_c, 2, 8192
4, 19240, Pitch_bend_c, 2, 8704
4, 19240, Pitch_bend_c, 2, 8320
4, 19242, Pitch_bend_c, 2, 9216
4, 19244, Pitch_bend_c, 2, 9856
4, 19244, Pitch_bend_c, 2, 9472
4, 19246, Pitch_bend_c, 2, 10368
4, 19248, Pitch_bend_c, 2, 11264
4, 19248, Pitch_bend_c, 2, 10880
4, 19250, Pitch_bend_c, 2, 11520
4, 19252, Pitch_bend_c, 2, 12032
4, 19252, Pitch_bend_c, 2, 11904
4, 19254, Pitch_bend_c, 2, 12288
4, 19256, Pitch_bend_c, 2, 12416
4, 19292, Pitch_bend_c, 2, 13184
4, 19296, Note_on_c, 2, 39, 0
4, 19296, Pitch_bend_c, 2, 8320
4, 19298, Note_on_c, 2, 40, 127
4, 19392, Note_on_c, 2, 40, 82
4, 19394, Note_on_c, 2, 40, 0
4, 19440, Note_on_c, 2, 40, 0
4, 19440, Note_on_c, 2, 40, 95
4, 19488, Note_on_c, 2, 40, 0
4, 19488, Note_on_c, 2, 40, 79
4, 19530, Note_on_c, 2, 40, 0
4, 19536, Note_on_c, 2, 40, 94
4, 19578, Note_on_c, 2, 40, 0
4, 22176, Note_on_c, 2, 52, 127
4, 22224, Note_on_c, 2, 52, 0
4, 22224, Note_on_c, 2, 52, 126
4, 22272, Note_on_c, 2, 52, 0
4, 22272, Note_on_c, 2, 54, 127
4, 22272, Note_on_c, 2, 59, 127
4, 22320, Note_on_c, 2, 59, 0
4, 22320, Note_on_c, 2, 56, 127
4, 22368, Note_on_c, 2, 56, 0
4, 22368, Note_on_c, 2, 54, 0
4, 22368, Note_on_c, 2, 64, 127
4, 22368, Note_on_c, 2, 59, 127
4, 22464, Note_on_c, 2, 59, 0
4, 22464, Note_on_c, 2, 64, 0
4, 22464, Note_on_c, 2, 59, 127
4, 22464, Note_on_c, 2, 64, 127
4, 22560, Note_on_c, 2, 64, 0
4, 22560, Note_on_c, 2, 59, 0
4, 22560, Note_on_c, 2, 59, 127
4, 22560, Note_on_c, 2, 64, 127
4, 22656, Note_on_c, 2, 64, 0
4, 22656, Note_on_c, 2, 59, 0
4, 22656, Note_on_c, 2, 64, 127
4, 22656, Note_on_c, 2, 61, 127
4, 22704, Note_on_c, 2, 61, 0
4, 22704, Note_on_c, 2, 59, 127
4, 22752, Note_on_c, 2, 59, 0
4, 22752, Note_on_c, 2, 64, 0
4, 22752, Note_on_c, 2, 59, 127
4, 22752, Note_on_c, 2, 56, 127
4, 22800, Note_on_c, 2, 56, 0
4, 22800, Note_on_c, 2, 59, 0
4, 22800, Note_on_c, 2, 59, 127
4, 22800, Note_on_c, 2, 64, 127
4, 22896, Note_on_c, 2, 64, 0
4, 22896, Note_on_c, 2, 59, 0
4, 22896, Note_on_c, 2, 59, 127
4, 22896, Note_on_c, 2, 64, 127
4, 22944, Note_on_c, 2, 64, 0
4, 22944, Note_on_c, 2, 59, 0
4, 22944, Note_on_c, 2, 64, 127
4, 22944, Note_on_c, 2, 61, 127
4, 22992, Note_on_c, 2, 61, 0
4, 22992, Note_on_c, 2, 64, 0
4, 22992, Note_on_c, 2, 64, 127
4, 22992, Note_on_c, 2, 59, 127
4, 23040, Note_on_c, 2, 59, 0
4, 23040, Note_on_c, 2, 64, 0
4, 23040, Note_on_c, 2, 47, 127
4, 23040, Note_on_c, 2, 40, 127
4, 23120, Note_on_c, 2, 40, 0
4, 23124, Note_on_c, 2, 47, 0
4, 23126, Note_on_c, 2, 40, 127
4, 23136, Note_on_c, 2, 47, 127
4, 23144, Note_on_c, 2, 52, 127
4, 23152, Note_on_c, 2, 56, 127
4, 23162, Note_on_c, 2, 59, 127
4, 23184, Note_on_c, 2, 64, 127
4, 23669, Note_on_c, 2, 56, 0
4, 23676, Note_on_c, 2, 47, 0
4, 23681, Note_on_c, 2, 59, 0
4, 23681, Note_on_c, 2, 52, 0
4, 23688, Note_on_c, 2, 40, 0
4, 23706, Note_on_c, 2, 64, 0
4, 23712, Note_on_c, 2, 52, 127
4, 23760, Note_on_c, 2, 52, 0
4, 23760, Note_on_c, 2, 52, 126
4, 23808, Note_on_c, 2, 52, 0
4, 23808, Note_on_c, 2, 54, 127
4, 23808, Note_on_c, 2, 59, 127
4, 23856, Note_on_c, 2, 59, 0
4, 23856, Note_on_c, 2, 56, 127
4, 23904, Note_on_c, 2, 56, 0
4, 23904, Note_on_c, 2, 54, 0
4, 23904, Note_on_c, 2, 64, 127
4, 23904, Note_on_c, 2, 59, 127
4, 24000, Note_on_c, 2, 59, 0
4, 24000, Note_on_c, 2, 64, 0
4, 24000, Note_on_c, 2, 59, 127
4, 24000, Note_on_c, 2, 64, 127
4, 24096, Note_on_c, 2, 64, 0
4, 24096, Note_on_c, 2, 59, 0
4, 24096, Note_on_c, 2, 59, 127
4, 24096, Note_on_c, 2, 64, 127
4, 24192, Note_on_c, 2, 64, 0
4, 24192, Note_on_c, 2, 59, 0
4, 24192, Note_on_c, 2, 64, 127
4, 24192, Note_on_c, 2, 61, 127
4, 24240, Note_on_c, 2, 61, 0
4, 24240, Note_on_c, 2, 59, 127
4, 24288, Note_on_c, 2, 59, 0
4, 24288, Note_on_c, 2, 64, 0
4, 24288, Note_on_c, 2, 59, 127
4, 24288, Note_on_c, 2, 56, 127
4, 24336, Note_on_c, 2, 56, 0
4, 24336, Note_on_c, 2, 59, 0
4, 24336, Note_on_c, 2, 59, 127
4, 24336, Note_on_c, 2, 64, 127
4, 24432, Note_on_c, 2, 64, 0
4, 24432, Note_on_c, 2, 59, 0
4, 24432, Note_on_c, 2, 59, 127
4, 24432, Note_on_c, 2, 64, 127
4, 24480, Note_on_c, 2, 64, 0
4, 24480, Note_on_c, 2, 59, 0
4, 24480, Note_on_c, 2, 64, 127
4, 24480, Note_on_c, 2, 61, 127
4, 24528, Note_on_c, 2, 61, 0
4, 24528, Note_on_c, 2, 64, 0
4, 24528, Note_on_c, 2, 64, 127
4, 24528, Note_on_c, 2, 59, 127
4, 24576, Note_on_c, 2, 59, 0
4, 24576, Note_on_c, 2, 64, 0
4, 24576, Note_on_c, 2, 47, 127
4, 24576, Note_on_c, 2, 54, 127
4, 24656, Note_on_c, 2, 54, 0
4, 24660, Note_on_c, 2, 47, 0
4, 24660, Note_on_c, 2, 47, 127
4, 24671, Note_on_c, 2, 54, 127
4, 24681, Note_on_c, 2, 59, 127
4, 24687, Note_on_c, 2, 66, 127
4, 24693, Note_on_c, 2, 63, 127
4, 24948, Note_on_c, 2, 54, 0
4, 24949, Note_on_c, 2, 47, 0
4, 24949, Note_on_c, 2, 59, 0
4, 25008, Note_on_c, 2, 59, 127
4, 25008, Note_on_c, 2, 54, 127
4, 25008, Note_on_c, 2, 47, 127
4, 25032, Note_on_c, 2, 47, 0
4, 25032, Note_on_c, 2, 59, 0
4, 25032, Note_on_c, 2, 54, 0
4, 25104, Note_on_c, 2, 59, 127
4, 25104, Note_on_c, 2, 54, 127
4, 25104, Note_on_c, 2, 47, 127
4, 25128, Note_on_c, 2, 47, 0
4, 25128, Note_on_c, 2, 59, 0
4, 25128, Note_on_c, 2, 54, 0
4, 25200, Note_on_c, 2, 47, 127
4, 25209, Note_on_c, 2, 66, 0
4, 25212, Note_on_c, 2, 63, 0
4, 25248, Note_on_c, 2, 47, 0
4, 25248, Note_on_c, 2, 52, 127
4, 25296, Note_on_c, 2, 52, 0
4, 25296, Note_on_c, 2, 52, 126
4, 25344, Note_on_c, 2, 52, 0
4, 25344, Note_on_c, 2, 54, 127
4, 25344, Note_on_c, 2, 59, 127
4, 25392, Note_on_c, 2, 59, 0
4, 25392, Note_on_c, 2, 56, 127
4, 25440, Note_on_c, 2, 56, 0
4, 25440, Note_on_c, 2, 54, 0
4, 25440, Note_on_c, 2, 64, 127
4, 25440, Note_on_c, 2, 59, 127
4, 25536, Note_on_c, 2, 59, 0
4, 25536, Note_on_c, 2, 64, 0
4, 25536, Note_on_c, 2, 59, 127
4, 25536, Note_on_c, 2, 64, 127
4, 25632, Note_on_c, 2, 64, 0
4, 25632, Note_on_c, 2, 59, 0
4, 25632, Note_on_c, 2, 59, 127
4, 25632, Note_on_c, 2, 64, 127
4, 25728, Note_on_c, 2, 64, 0
4, 25728, Note_on_c, 2, 59, 0
4, 25728, Note_on_c, 2, 64, 127
4, 25728, Note_on_c, 2, 61, 127
4, 25776, Note_on_c, 2, 61, 0
4, 25776, Note_on_c, 2, 59, 127
4, 25824, Note_on_c, 2, 59, 0
4, 25824, Note_on_c, 2, 64, 0
4, 25824, Note_on_c, 2, 59, 127
4, 25824, Note_on_c, 2, 56, 127
4, 25872, Note_on_c, 2, 56, 0
4, 25872, Note_on_c, 2, 59, 0
4, 25872, Note_on_c, 2, 59, 127
4, 25872, Note_on_c, 2, 64, 127
4, 25968, Note_on_c, 2, 64, 0
4, 25968, Note_on_c, 2, 59, 0
4, 25968, Note_on_c, 2, 59, 127
4, 25968, Note_on_c, 2, 64, 127
4, 26016, Note_on_c, 2, 64, 0
4, 26016, Note_on_c, 2, 59, 0
4, 26016, Note_on_c, 2, 64, 127
4, 26016, Note_on_c, 2, 61, 127
4, 26064, Note_on_c, 2, 61, 0
4, 26064, Note_on_c, 2, 64, 0
4, 26064, Note_on_c, 2, 64, 127
4, 26064, Note_on_c, 2, 59, 127
4, 26112, Note_on_c, 2, 59, 0
4, 26112, Note_on_c, 2, 64, 0
4, 26112, Note_on_c, 2, 47, 126
4, 26160, Note_on_c, 2, 49, 127
4, 26161, Note_on_c, 2, 47, 0
4, 26208, Note_on_c, 2, 57, 127
4, 26208, Note_on_c, 2, 52, 127
4, 26209, Note_on_c, 2, 49, 0
4, 26304, Note_on_c, 2, 52, 0
4, 26304, Note_on_c, 2, 57, 0
4, 26304, Note_on_c, 2, 57, 127
4, 26304, Note_on_c, 2, 52, 127
4, 26400, Note_on_c, 2, 52, 0
4, 26400, Note_on_c, 2, 57, 0
4, 26400, Note_on_c, 2, 57, 127
4, 26400, Note_on_c, 2, 52, 127
4, 26496, Note_on_c, 2, 52, 0
4, 26496, Note_on_c, 2, 57, 0
4, 26496, Note_on_c, 2, 54, 127
4, 26496, Note_on_c, 2, 57, 127
4, 26544, Note_on_c, 2, 54, 0
4, 26544, Note_on_c, 2, 52, 127
4, 26592, Note_on_c, 2, 52, 0
4, 26592, Note_on_c, 2, 57, 0
4, 26592, Note_on_c, 2, 52, 127
4, 26592, Note_on_c, 2, 49, 127
4, 26640, Note_on_c, 2, 49, 0
4, 26640, Note_on_c, 2, 52, 0
4, 26640, Note_on_c, 2, 52, 127
4, 26640, Note_on_c, 2, 57, 127
4, 26712, Note_on_c, 2, 57, 0
4, 26712, Note_on_c, 2, 52, 0
4, 26736, Note_on_c, 2, 52, 127
4, 26736, Note_on_c, 2, 57, 127
4, 26784, Note_on_c, 2, 57, 0
4, 26784, Note_on_c, 2, 52, 0
4, 26784, Note_on_c, 2, 57, 127
4, 26784, Note_on_c, 2, 54, 127
4, 26832, Note_on_c, 2, 54, 0
4, 26832, Note_on_c, 2, 57, 0
4, 26832, Note_on_c, 2, 52, 127
4, 26832, Note_on_c, 2, 57, 127
4, 26877, Pitch_bend_c, 2, 8192
4, 26880, Note_on_c, 2, 57, 0
4, 26880, Note_on_c, 2, 52, 0
4, 26880, Pitch_bend_c, 2, 8064
4, 26880, Note_on_c, 2, 46, 127
4, 26881, Pitch_bend_c, 2, 7808
4, 26884, Pitch_bend_c, 2, 7680
4, 26885, Pitch_bend_c, 2, 7552
4, 26888, Pitch_bend_c, 2, 7424
4, 26889, Pitch_bend_c, 2, 7296
4, 26892, Pitch_bend_c, 2, 7168
4, 26916, Pitch_bend_c, 2, 7424
4, 26920, Pitch_bend_c, 2, 7552
4, 26921, Pitch_bend_c, 2, 7680
4, 26924, Pitch_bend_c, 2, 8064
4, 26925, Pitch_bend_c, 2, 8448
4, 26928, Pitch_bend_c, 2, 9984
4, 26929, Pitch_bend_c, 2, 11008
4, 26932, Pitch_bend_c, 2, 11392
4, 26933, Pitch_bend_c, 2, 11648
4, 26936, Pitch_bend_c, 2, 12032
4, 26937, Pitch_bend_c, 2, 12288
4, 26944, Pitch_bend_c, 2, 12416
4, 26973, Pitch_bend_c, 2, 8320
4, 26976, Note_on_c, 2, 46, 0
4, 26976, Note_on_c, 2, 47, 127
4, 26977, Pitch_bend_c, 2, 8192
4, 27024, Note_on_c, 2, 47, 0
4, 27024, Note_on_c, 2, 47, 127
4, 27072, Note_on_c, 2, 47, 0
4, 27072, Pitch_bend_c, 2, 8064
4, 27072, Note_on_c, 2, 46, 127
4, 27073, Pitch_bend_c, 2, 7808
4, 27076, Pitch_bend_c, 2, 7680
4, 27077, Pitch_bend_c, 2, 7552
4, 27080, Pitch_bend_c, 2, 7424
4, 27081, Pitch_bend_c, 2, 7296
4, 27084, Pitch_bend_c, 2, 7168
4, 27108, Pitch_bend_c, 2, 7424
4, 27112, Pitch_bend_c, 2, 7552
4, 27113, Pitch_bend_c, 2, 7680
4, 27116, Pitch_bend_c, 2, 8064
4, 27117, Pitch_bend_c, 2, 8448
4, 27120, Pitch_bend_c, 2, 9984
4, 27121, Pitch_bend_c, 2, 11008
4, 27124, Pitch_bend_c, 2, 11392
4, 27125, Pitch_bend_c, 2, 11648
4, 27128, Pitch_bend_c, 2, 12032
4, 27129, Pitch_bend_c, 2, 12288
4, 27136, Pitch_bend_c, 2, 12416
4, 27165, Pitch_bend_c, 2, 8320
4, 27168, Note_on_c, 2, 46, 0
4, 27168, Note_on_c, 2, 47, 127
4, 27169, Pitch_bend_c, 2, 8192
4, 27216, Note_on_c, 2, 47, 0
4, 27216, Note_on_c, 2, 47, 127
4, 27264, Note_on_c, 2, 47, 0
4, 27264, Pitch_bend_c, 2, 8064
4, 27264, Note_on_c, 2, 46, 127
4, 27265, Pitch_bend_c, 2, 7808
4, 27268, Pitch_bend_c, 2, 7680
4, 27269, Pitch_bend_c, 2, 7552
4, 27272, Pitch_bend_c, 2, 7424
4, 27273, Pitch_bend_c, 2, 7296
4, 27276, Pitch_bend_c, 2, 7168
4, 27300, Pitch_bend_c, 2, 7424
4, 27304, Pitch_bend_c, 2, 7552
4, 27305, Pitch_bend_c, 2, 7680
4, 27308, Pitch_bend_c, 2, 8064
4, 27309, Pitch_bend_c, 2, 8448
4, 27312, Pitch_bend_c, 2, 9984
4, 27313, Pitch_bend_c, 2, 11008
4, 27316, Pitch_bend_c, 2, 11392
4, 27317, Pitch_bend_c, 2, 11648
4, 27320, Pitch_bend_c, 2, 12032
4, 27321, Pitch_bend_c, 2, 12288
4, 27328, Pitch_bend_c, 2, 12416
4, 27357, Pitch_bend_c, 2, 8320
4, 27360, Note_on_c, 2, 46, 0
4, 27360, Note_on_c, 2, 47, 127
4, 27361, Pitch_bend_c, 2, 8192
4, 27408, Note_on_c, 2, 47, 0
4, 27408, Note_on_c, 2, 47, 127
4, 27445, Pitch_bend_c, 2, 8320
4, 27456, Note_on_c, 2, 47, 0
4, 27456, Note_on_c, 2, 47, 127
4, 27457, Pitch_bend_c, 2, 8192
4, 27504, Note_on_c, 2, 47, 0
4, 27504, Note_on_c, 2, 45, 127
4, 27520, Pitch_bend_c, 2, 8064
4, 27552, Note_on_c, 2, 45, 0
4, 27552, Pitch_bend_c, 2, 8192
4, 27552, Note_on_c, 2, 43, 127
4, 27553, Pitch_bend_c, 2, 7936
4, 27557, Pitch_bend_c, 2, 7808
4, 27560, Pitch_bend_c, 2, 7680
4, 27561, Pitch_bend_c, 2, 7552
4, 27564, Pitch_bend_c, 2, 7424
4, 27565, Pitch_bend_c, 2, 7296
4, 27568, Pitch_bend_c, 2, 7040
4, 27569, Pitch_bend_c, 2, 6784
4, 27572, Pitch_bend_c, 2, 6528
4, 27573, Pitch_bend_c, 2, 6400
4, 27576, Pitch_bend_c, 2, 6144
4, 27577, Pitch_bend_c, 2, 5888
4, 27580, Pitch_bend_c, 2, 5760
4, 27581, Pitch_bend_c, 2, 5632
4, 27584, Pitch_bend_c, 2, 5376
4, 27585, Pitch_bend_c, 2, 5120
4, 27588, Pitch_bend_c, 2, 4992
4, 27589, Pitch_bend_c, 2, 4864
4, 27592, Pitch_bend_c, 2, 4480
4, 27593, Pitch_bend_c, 2, 4224
4, 27596, Pitch_bend_c, 2, 3968
4, 27597, Pitch_bend_c, 2, 3840
4, 27600, Pitch_bend_c, 2, 3712
4, 27601, Pitch_bend_c, 2, 3584
4, 27645, Pitch_bend_c, 2, 8192
4, 27648, Note_on_c, 2, 43, 0
4, 27648, Note_on_c, 2, 40, 127
4, 27720, Note_on_c, 2, 40, 0
4, 27733, Note_on_c, 2, 40, 127
4, 27741, Note_on_c, 2, 47, 127
4, 27753, Note_on_c, 2, 52, 127
4, 27762, Note_on_c, 2, 56, 127
4, 27772, Note_on_c, 2, 59, 127
4, 27778, Note_on_c, 2, 64, 127
4, 28369, Note_on_c, 2, 47, 0
4, 28372, Note_on_c, 2, 52, 0
4, 28372, Note_on_c, 2, 64, 0
4, 28376, Note_on_c, 2, 59, 0
4, 28378, Note_on_c, 2, 56, 0
4, 28393, Note_on_c, 2, 40, 0
4, 29469, Pitch_bend_c, 2, 8448
4, 29473, Pitch_bend_c, 2, 8192
4, 29477, Pitch_bend_c, 2, 8320
4, 29504, Pitch_bend_c, 2, 8448
4, 29512, Pitch_bend_c, 2, 8320
4, 29516, Pitch_bend_c, 2, 8448
4, 29520, Note_on_c, 2, 57, 127
4, 29521, Pitch_bend_c, 2, 8576
4, 29525, Pitch_bend_c, 2, 8704
4, 29529, Pitch_bend_c, 2, 8832
4, 29533, Pitch_bend_c, 2, 8960
4, 29537, Pitch_bend_c, 2, 9088
4, 29540, Pitch_bend_c, 2, 9216
4, 29541, Pitch_bend_c, 2, 9344
4, 29544, Pitch_bend_c, 2, 9472
4, 29545, Pitch_bend_c, 2, 9600
4, 29548, Pitch_bend_c, 2, 9856
4, 29549, Pitch_bend_c, 2, 10112
4, 29552, Pitch_bend_c, 2, 10368
4, 29553, Pitch_bend_c, 2, 10752
4, 29556, Pitch_bend_c, 2, 11392
4, 29557, Pitch_bend_c, 2, 12032
4, 29560, Pitch_bend_c, 2, 13056
4, 29561, Pitch_bend_c, 2, 14720
4, 29564, Pitch_bend_c, 2, 15616
4, 29565, Pitch_bend_c, 2, 16128
4, 29568, Pitch_bend_c, 2, 16256
4, 29569, Pitch_bend_c, 2, 16383
4, 29613, Pitch_bend_c, 2, 8448
4, 29616, Note_on_c, 2, 57, 0
4, 29616, Note_on_c, 2, 64, 127
4, 29616, Note_on_c, 2, 59, 127
4, 29628, Pitch_bend_c, 2, 8576
4, 29640, Note_on_c, 2, 59, 0
4, 29640, Note_on_c, 2, 64, 0
4, 29712, Note_on_c, 2, 63, 127
4, 29712, Note_on_c, 2, 59, 127
4, 29736, Note_on_c, 2, 59, 0
4, 29736, Note_on_c, 2, 63, 0
4, 29808, Note_on_c, 2, 61, 127
4, 29808, Note_on_c, 2, 57, 127
4, 29832, Note_on_c, 2, 57, 0
4, 29832, Note_on_c, 2, 61, 0
4, 29904, Note_on_c, 2, 56, 127
4, 29904, Note_on_c, 2, 59, 127
4, 29912, Pitch_bend_c, 2, 8448
4, 29921, Pitch_bend_c, 2, 8192
4, 29952, Pitch_bend_c, 2, 8064
4, 29957, Pitch_bend_c, 2, 7936
4, 29960, Pitch_bend_c, 2, 7936
4, 29961, Pitch_bend_c, 2, 7808
4, 29964, Pitch_bend_c, 2, 7680
4, 29968, Pitch_bend_c, 2, 7552
4, 29969, Pitch_bend_c, 2, 7424
4, 29972, Pitch_bend_c, 2, 7296
4, 29973, Pitch_bend_c, 2, 7168
4, 29977, Pitch_bend_c, 2, 6912
4, 29980, Pitch_bend_c, 2, 6656
4, 29981, Pitch_bend_c, 2, 6528
4, 29984, Pitch_bend_c, 2, 6400
4, 29985, Pitch_bend_c, 2, 6016
4, 29988, Pitch_bend_c, 2, 5632
4, 29989, Pitch_bend_c, 2, 5248
4, 29992, Pitch_bend_c, 2, 4992
4, 29993, Pitch_bend_c, 2, 4352
4, 29996, Pitch_bend_c, 2, 3840
4, 29997, Pitch_bend_c, 2, 3456
4, 30000, Pitch_bend_c, 2, 3328
4, 30001, Pitch_bend_c, 2, 3072
4, 30004, Pitch_bend_c, 2, 2816
4, 30008, Pitch_bend_c, 2, 2944
4, 30009, Pitch_bend_c, 2, 2944
4, 30013, Pitch_bend_c, 2, 2816
4, 30017, Pitch_bend_c, 2, 2944
4, 30020, Pitch_bend_c, 2, 3072
4, 30021, Pitch_bend_c, 2, 3200
4, 30024, Pitch_bend_c, 2, 3328
4, 30025, Pitch_bend_c, 2, 3456
4, 30028, Pitch_bend_c, 2, 3584
4, 30029, Pitch_bend_c, 2, 3840
4, 30032, Pitch_bend_c, 2, 3968
4, 30033, Pitch_bend_c, 2, 4096
4, 30036, Pitch_bend_c, 2, 4224
4, 30037, Pitch_bend_c, 2, 4480
4, 30040, Pitch_bend_c, 2, 4736
4, 30041, Pitch_bend_c, 2, 4864
4, 30045, Pitch_bend_c, 2, 5120
4, 30048, Pitch_bend_c, 2, 5248
4, 30049, Pitch_bend_c, 2, 5376
4, 30052, Pitch_bend_c, 2, 5504
4, 30053, Pitch_bend_c, 2, 5760
4, 30056, Pitch_bend_c, 2, 5888
4, 30057, Pitch_bend_c, 2, 6016
4, 30061, Pitch_bend_c, 2, 6144
4, 30064, Pitch_bend_c, 2, 6272
4, 30065, Pitch_bend_c, 2, 6400
4, 30068, Pitch_bend_c, 2, 6528
4, 30072, Pitch_bend_c, 2, 6784
4, 30073, Pitch_bend_c, 2, 6912
4, 30077, Pitch_bend_c, 2, 7040
4, 30080, Pitch_bend_c, 2, 7168
4, 30081, Pitch_bend_c, 2, 7296
4, 30085, Pitch_bend_c, 2, 7424
4, 30089, Pitch_bend_c, 2, 7552
4, 30097, Pitch_bend_c, 2, 7680
4, 30104, Pitch_bend_c, 2, 7808
4, 30109, Pitch_bend_c, 2, 7936
4, 30117, Pitch_bend_c, 2, 8064
4, 30121, Pitch_bend_c, 2, 8192
4, 30128, Pitch_bend_c, 2, 8320
4, 30192, Note_on_c, 2, 59, 0
4, 30192, Note_on_c, 2, 56, 0
4, 31152, Note_on_c, 2, 66, 127
4, 31152, Note_on_c, 2, 71, 127
4, 31176, Note_on_c, 2, 71, 0
4, 31176, Note_on_c, 2, 66, 0
4, 31248, Note_on_c, 2, 64, 127
4, 31248, Note_on_c, 2, 69, 127
4, 31272, Note_on_c, 2, 69, 0
4, 31272, Note_on_c, 2, 64, 0
4, 31344, Note_on_c, 2, 64, 127
4, 31344, Note_on_c, 2, 68, 127
4, 31368, Note_on_c, 2, 68, 0
4, 31368, Note_on_c, 2, 64, 0
4, 31440, Note_on_c, 2, 66, 127
4, 31440, Note_on_c, 2, 63, 127
4, 31445, Pitch_bend_c, 2, 8448
4, 31449, Pitch_bend_c, 2, 8320
4, 31452, Pitch_bend_c, 2, 8064
4, 31476, Pitch_bend_c, 2, 7936
4, 31489, Pitch_bend_c, 2, 7808
4, 31497, Pitch_bend_c, 2, 7680
4, 31504, Pitch_bend_c, 2, 7552
4, 31512, Pitch_bend_c, 2, 7424
4, 31516, Pitch_bend_c, 2, 7296
4, 31520, Pitch_bend_c, 2, 7168
4, 31521, Pitch_bend_c, 2, 7040
4, 31525, Pitch_bend_c, 2, 6912
4, 31528, Pitch_bend_c, 2, 6784
4, 31529, Pitch_bend_c, 2, 6656
4, 31532, Pitch_bend_c, 2, 6528
4, 31533, Pitch_bend_c, 2, 6272
4, 31536, Pitch_bend_c, 2, 6144
4, 31537, Pitch_bend_c, 2, 6016
4, 31540, Pitch_bend_c, 2, 5760
4, 31541, Pitch_bend_c, 2, 5504
4, 31544, Pitch_bend_c, 2, 5376
4, 31545, Pitch_bend_c, 2, 5120
4, 31548, Pitch_bend_c, 2, 4864
4, 31549, Pitch_bend_c, 2, 4736
4, 31552, Pitch_bend_c, 2, 4608
4, 31553, Pitch_bend_c, 2, 4480
4, 31556, Pitch_bend_c, 2, 4352
4, 31557, Pitch_bend_c, 2, 4096
4, 31560, Pitch_bend_c, 2, 3968
4, 31561, Pitch_bend_c, 2, 3840
4, 31564, Pitch_bend_c, 2, 3712
4, 31565, Pitch_bend_c, 2, 3584
4, 31569, Pitch_bend_c, 2, 3456
4, 31572, Pitch_bend_c, 2, 3328
4, 31580, Pitch_bend_c, 2, 3456
4, 31581, Pitch_bend_c, 2, 3584
4, 31584, Pitch_bend_c, 2, 3840
4, 31585, Pitch_bend_c, 2, 4096
4, 31588, Pitch_bend_c, 2, 4352
4, 31589, Pitch_bend_c, 2, 4608
4, 31592, Pitch_bend_c, 2, 4864
4, 31593, Pitch_bend_c, 2, 5120
4, 31596, Pitch_bend_c, 2, 5376
4, 31597, Pitch_bend_c, 2, 5504
4, 31600, Pitch_bend_c, 2, 5632
4, 31601, Pitch_bend_c, 2, 5760
4, 31604, Pitch_bend_c, 2, 5888
4, 31605, Pitch_bend_c, 2, 6016
4, 31608, Pitch_bend_c, 2, 6144
4, 31609, Pitch_bend_c, 2, 6272
4, 31612, Pitch_bend_c, 2, 6400
4, 31613, Pitch_bend_c, 2, 6528
4, 31616, Pitch_bend_c, 2, 6656
4, 31620, Pitch_bend_c, 2, 6912
4, 31621, Pitch_bend_c, 2, 7040
4, 31624, Pitch_bend_c, 2, 7168
4, 31628, Pitch_bend_c, 2, 7296
4, 31629, Pitch_bend_c, 2, 7424
4, 31632, Pitch_bend_c, 2, 7552
4, 31636, Pitch_bend_c, 2, 7680
4, 31641, Pitch_bend_c, 2, 7936
4, 31645, Pitch_bend_c, 2, 8064
4, 31656, Pitch_bend_c, 2, 8192
4, 31692, Pitch_bend_c, 2, 8448
4, 31693, Pitch_bend_c, 2, 8320
4, 31728, Note_on_c, 2, 63, 0
4, 31728, Note_on_c, 2, 66, 0
4, 33040, Note_on_c, 2, 45, 100
4, 33088, Note_on_c, 2, 57, 120
4, 33136, Note_on_c, 2, 45, 0
4, 33136, Note_on_c, 2, 64, 120
4, 33184, Note_on_c, 2, 59, 120
4, 33232, Note_on_c, 2, 59, 0
4, 33232, Note_on_c, 2, 61, 120
4, 33328, Note_on_c, 2, 64, 0
4, 33376, Note_on_c, 2, 57, 0
4, 33424, Note_on_c, 2, 61, 0
4, 33424, Note_on_c, 2, 54, 67
4, 33424, Note_on_c, 2, 47, 67
4, 33472, Note_on_c, 2, 47, 0
4, 33472, Note_on_c, 2, 54, 0
4, 33472, Note_on_c, 2, 47, 69
4, 33472, Note_on_c, 2, 54, 69
4, 33520, Note_on_c, 2, 54, 0
4, 33520, Note_on_c, 2, 47, 0
4, 33520, Note_on_c, 2, 54, 71
4, 33520, Note_on_c, 2, 47, 71
4, 33568, Note_on_c, 2, 47, 0
4, 33568, Note_on_c, 2, 54, 0
4, 33568, Note_on_c, 2, 47, 75
4, 33568, Note_on_c, 2, 54, 75
4, 33616, Note_on_c, 2, 54, 0
4, 33616, Note_on_c, 2, 47, 0
4, 33616, Note_on_c, 2, 47, 80
4, 33616, Note_on_c, 2, 54, 80
4, 33664, Note_on_c, 2, 54, 0
4, 33664, Note_on_c, 2, 47, 0
4, 33664, Note_on_c, 2, 54, 83
4, 33664, Note_on_c, 2, 47, 83
4, 33712, Note_on_c, 2, 47, 0
4, 33712, Note_on_c, 2, 54, 0
4, 33712, Note_on_c, 2, 47, 92
4, 33712, Note_on_c, 2, 54, 92
4, 33760, Note_on_c, 2, 54, 0
4, 33760, Note_on_c, 2, 47, 0
4, 33760, Note_on_c, 2, 54, 96
4, 33760, Note_on_c, 2, 47, 96
4, 33808, Note_on_c, 2, 47, 0
4, 33808, Note_on_c, 2, 54, 0
4, 33808, Note_on_c, 2, 47, 102
4, 33808, Note_on_c, 2, 54, 102
4, 33856, Note_on_c, 2, 54, 0
4, 33856, Note_on_c, 2, 47, 0
4, 34080, Pitch_bend_c, 2, 8192
4, 34080, Note_on_c, 2, 43, 100
4, 34081, Pitch_bend_c, 2, 7808
4, 34084, Pitch_bend_c, 2, 7552
4, 34085, Pitch_bend_c, 2, 7424
4, 34088, Pitch_bend_c, 2, 7296
4, 34089, Pitch_bend_c, 2, 7040
4, 34092, Pitch_bend_c, 2, 6912
4, 34096, Pitch_bend_c, 2, 6656
4, 34100, Pitch_bend_c, 2, 6528
4, 34101, Pitch_bend_c, 2, 6272
4, 34105, Pitch_bend_c, 2, 6144
4, 34109, Pitch_bend_c, 2, 6016
4, 34112, Pitch_bend_c, 2, 5760
4, 34116, Pitch_bend_c, 2, 5632
4, 34117, Pitch_bend_c, 2, 5504
4, 34120, Pitch_bend_c, 2, 5248
4, 34124, Pitch_bend_c, 2, 5120
4, 34125, Pitch_bend_c, 2, 4864
4, 34129, Pitch_bend_c, 2, 4608
4, 34132, Pitch_bend_c, 2, 4480
4, 34133, Pitch_bend_c, 2, 4224
4, 34136, Pitch_bend_c, 2, 4096
4, 34137, Pitch_bend_c, 2, 3840
4, 34140, Pitch_bend_c, 2, 3712
4, 34141, Pitch_bend_c, 2, 3328
4, 34144, Pitch_bend_c, 2, 3200
4, 34145, Pitch_bend_c, 2, 2944
4, 34148, Pitch_bend_c, 2, 2688
4, 34149, Pitch_bend_c, 2, 2432
4, 34152, Pitch_bend_c, 2, 2176
4, 34153, Pitch_bend_c, 2, 1920
4, 34156, Pitch_bend_c, 2, 1664
4, 34157, Pitch_bend_c, 2, 1408
4, 34160, Pitch_bend_c, 2, 1024
4, 34164, Pitch_bend_c, 2, 640
4, 34165, Pitch_bend_c, 2, 384
4, 34168, Pitch_bend_c, 2, 128
4, 34173, Pitch_bend_c, 2, 8320
4, 34176, Note_on_c, 2, 43, 0
4, 34368, Note_on_c, 2, 40, 127
4, 34416, Note_on_c, 2, 52, 127
4, 34464, Note_on_c, 2, 40, 0
4, 34464, Pitch_bend_c, 2, 8192
4, 34464, Note_on_c, 2, 59, 127
4, 34465, Pitch_bend_c, 2, 8320
4, 34512, Pitch_bend_c, 2, 8192
4, 34512, Note_on_c, 2, 56, 127
4, 34556, Pitch_bend_c, 2, 8448
4, 34557, Pitch_bend_c, 2, 8320
4, 34560, Note_on_c, 2, 56, 0
4, 34560, Note_on_c, 2, 56, 127
4, 34584, Note_on_c, 2, 59, 0
4, 34584, Pitch_bend_c, 2, 8320
4, 34592, Pitch_bend_c, 2, 8192
4, 34593, Pitch_bend_c, 2, 8320
4, 34613, Pitch_bend_c, 2, 8320
4, 34616, Pitch_bend_c, 2, 8448
4, 34617, Pitch_bend_c, 2, 8576
4, 34620, Pitch_bend_c, 2, 8832
4, 34621, Pitch_bend_c, 2, 9088
4, 34624, Pitch_bend_c, 2, 9344
4, 34625, Pitch_bend_c, 2, 9600
4, 34628, Pitch_bend_c, 2, 9856
4, 34629, Pitch_bend_c, 2, 10112
4, 34632, Pitch_bend_c, 2, 10496
4, 34636, Pitch_bend_c, 2, 10752
4, 34637, Pitch_bend_c, 2, 11136
4, 34640, Pitch_bend_c, 2, 11264
4, 34641, Pitch_bend_c, 2, 11392
4, 34644, Pitch_bend_c, 2, 11648
4, 34648, Pitch_bend_c, 2, 11648
4, 34656, Note_on_c, 2, 56, 0
4, 34656, Note_on_c, 2, 52, 0
4, 34656, Note_on_c, 2, 64, 127
4, 34656, Pitch_bend_c, 2, 8320
4, 34656, Note_on_c, 2, 59, 127
4, 34704, Note_on_c, 2, 52, 127
4, 34752, Note_on_c, 2, 52, 0
4, 34752, Note_on_c, 2, 59, 0
4, 34752, Note_on_c, 2, 64, 0
4, 34752, Note_on_c, 2, 64, 127
4, 34752, Note_on_c, 2, 57, 127
4, 34800, Note_on_c, 2, 57, 0
4, 34800, Note_on_c, 2, 64, 0
4, 34800, Note_on_c, 2, 59, 127
4, 34800, Note_on_c, 2, 56, 127
4, 34836, Pitch_bend_c, 2, 8448
4, 34837, Pitch_bend_c, 2, 8192
4, 34920, Note_on_c, 2, 56, 0
4, 34920, Note_on_c, 2, 59, 0
4, 36096, Pitch_bend_c, 2, 7936
4, 36096, Note_on_c, 2, 39, 127
4, 36098, Pitch_bend_c, 2, 7808
4, 36100, Pitch_bend_c, 2, 7680
4, 36102, Pitch_bend_c, 2, 7424
4, 36104, Pitch_bend_c, 2, 7168
4, 36108, Pitch_bend_c, 2, 6912
4, 36108, Pitch_bend_c, 2, 7040
4, 36110, Pitch_bend_c, 2, 6656
4, 36112, Pitch_bend_c, 2, 6016
4, 36112, Pitch_bend_c, 2, 6400
4, 36116, Pitch_bend_c, 2, 5888
4, 36120, Pitch_bend_c, 2, 6016
4, 36122, Pitch_bend_c, 2, 6144
4, 36124, Pitch_bend_c, 2, 6400
4, 36126, Pitch_bend_c, 2, 6656
4, 36128, Pitch_bend_c, 2, 7168
4, 36128, Pitch_bend_c, 2, 6912
4, 36130, Pitch_bend_c, 2, 7296
4, 36132, Pitch_bend_c, 2, 7936
4, 36132, Pitch_bend_c, 2, 7552
4, 36134, Pitch_bend_c, 2, 8192
4, 36136, Pitch_bend_c, 2, 8704
4, 36136, Pitch_bend_c, 2, 8320
4, 36138, Pitch_bend_c, 2, 9216
4, 36140, Pitch_bend_c, 2, 9856
4, 36140, Pitch_bend_c, 2, 9472
4, 36142, Pitch_bend_c, 2, 10368
4, 36144, Pitch_bend_c, 2, 11264
4, 36144, Pitch_bend_c, 2, 10880
4, 36146, Pitch_bend_c, 2, 11520
4, 36148, Pitch_bend_c, 2, 12032
4, 36148, Pitch_bend_c, 2, 11904
4, 36150, Pitch_bend_c, 2, 12288
4, 36152, Pitch_bend_c, 2, 12416
4, 36188, Pitch_bend_c, 2, 13184
4, 36192, Note_on_c, 2, 39, 0
4, 36192, Pitch_bend_c, 2, 8320
4, 36194, Note_on_c, 2, 40, 127
4, 36240, Note_on_c, 2, 39, 127
4, 36242, Note_on_c, 2, 40, 0
4, 36248, Pitch_bend_c, 2, 8320
4, 36256, Pitch_bend_c, 2, 8192
4, 36257, Pitch_bend_c, 2, 8064
4, 36261, Pitch_bend_c, 2, 7936
4, 36264, Pitch_bend_c, 2, 7808
4, 36265, Pitch_bend_c, 2, 7680
4, 36268, Pitch_bend_c, 2, 7424
4, 36269, Pitch_bend_c, 2, 7168
4, 36272, Pitch_bend_c, 2, 6912
4, 36273, Pitch_bend_c, 2, 6656
4, 36277, Pitch_bend_c, 2, 6912
4, 36280, Pitch_bend_c, 2, 7296
4, 36281, Pitch_bend_c, 2, 7552
4, 36284, Pitch_bend_c, 2, 7808
4, 36285, Pitch_bend_c, 2, 8064
4, 36288, Pitch_bend_c, 2, 8320
4, 36289, Pitch_bend_c, 2, 8704
4, 36292, Pitch_bend_c, 2, 9344
4, 36293, Pitch_bend_c, 2, 10112
4, 36296, Pitch_bend_c, 2, 10752
4, 36297, Pitch_bend_c, 2, 11264
4, 36300, Pitch_bend_c, 2, 11776
4, 36301, Pitch_bend_c, 2, 12288
4, 36304, Pitch_bend_c, 2, 12416
4, 36305, Pitch_bend_c, 2, 12160
4, 36313, Pitch_bend_c, 2, 12288
4, 36324, Pitch_bend_c, 2, 12416
4, 36336, Note_on_c, 2, 39, 0
4, 36336, Note_on_c, 2, 40, 127
4, 36337, Pitch_bend_c, 2, 8320
4, 36348, Pitch_bend_c, 2, 8448
4, 36384, Note_on_c, 2, 40, 0
4, 36384, Note_on_c, 2, 40, 127
4, 36426, Note_on_c, 2, 40, 0
4, 36432, Note_on_c, 2, 40, 127
4, 36474, Note_on_c, 2, 40, 0
4, 40944, Note_on_c, 2, 56, 127
4, 40944, Note_on_c, 2, 52, 127
4, 40992, Note_on_c, 2, 52, 0
4, 40992, Note_on_c, 2, 56, 0
4, 40992, Note_on_c, 2, 56, 127
4, 40992, Note_on_c, 2, 52, 127
4, 41040, Note_on_c, 2, 52, 0
4, 41040, Note_on_c, 2, 56, 0
4, 41040, Note_on_c, 2, 56, 127
4, 41040, Note_on_c, 2, 52, 127
4, 41088, Note_on_c, 2, 52, 0
4, 41088, Note_on_c, 2, 56, 0
4, 41088, Note_on_c, 2, 54, 127
4, 41088, Note_on_c, 2, 59, 127
4, 41136, Note_on_c, 2, 59, 0
4, 41136, Note_on_c, 2, 56, 127
4, 41184, Note_on_c, 2, 56, 0
4, 41184, Note_on_c, 2, 54, 0
4, 41184, Note_on_c, 2, 64, 127
4, 41184, Note_on_c, 2, 59, 127
4, 41280, Note_on_c, 2, 59, 0
4, 41280, Note_on_c, 2, 64, 0
4, 41280, Note_on_c, 2, 59, 127
4, 41280, Note_on_c, 2, 64, 127
4, 41376, Note_on_c, 2, 64, 0
4, 41376, Note_on_c, 2, 59, 0
4, 41376, Note_on_c, 2, 59, 127
4, 41376, Note_on_c, 2, 64, 127
4, 41472, Note_on_c, 2, 64, 0
4, 41472, Note_on_c, 2, 59, 0
4, 41472, Note_on_c, 2, 64, 127
4, 41472, Note_on_c, 2, 61, 127
4, 41520, Note_on_c, 2, 61, 0
4, 41520, Note_on_c, 2, 59, 127
4, 41568, Note_on_c, 2, 59, 0
4, 41568, Note_on_c, 2, 64, 0
4, 41568, Note_on_c, 2, 59, 127
4, 41568, Note_on_c, 2, 56, 127
4, 41616, Note_on_c, 2, 56, 0
4, 41616, Note_on_c, 2, 59, 0
4, 41616, Note_on_c, 2, 59, 127
4, 41616, Note_on_c, 2, 64, 127
4, 41712, Note_on_c, 2, 64, 0
4, 41712, Note_on_c, 2, 59, 0
4, 41712, Note_on_c, 2, 59, 127
4, 41712, Note_on_c, 2, 64, 127
4, 41760, Note_on_c, 2, 64, 0
4, 41760, Note_on_c, 2, 59, 0
4, 41760, Note_on_c, 2, 64, 127
4, 41760, Note_on_c, 2, 61, 127
4, 41808, Note_on_c, 2, 61, 0
4, 41808, Note_on_c, 2, 64, 0
4, 41808, Note_on_c, 2, 64, 127
4, 41808, Note_on_c, 2, 59, 127
4, 41856, Note_on_c, 2, 59, 0
4, 41856, Note_on_c, 2, 64, 0
4, 42480, Note_on_c, 2, 56, 127
4, 42480, Note_on_c, 2, 52, 127
4, 42528, Note_on_c, 2, 52, 0
4, 42528, Note_on_c, 2, 56, 0
4, 42528, Note_on_c, 2, 56, 127
4, 42528, Note_on_c, 2, 52, 127
4, 42576, Note_on_c, 2, 52, 0
4, 42576, Note_on_c, 2, 56, 0
4, 42576, Note_on_c, 2, 56, 127
4, 42576, Note_on_c, 2, 52, 127
4, 42624, Note_on_c, 2, 52, 0
4, 42624, Note_on_c, 2, 56, 0
4, 42624, Note_on_c, 2, 54, 127
4, 42624, Note_on_c, 2, 59, 127
4, 42672, Note_on_c, 2, 59, 0
4, 42672, Note_on_c, 2, 56, 127
4, 42720, Note_on_c, 2, 56, 0
4, 42720, Note_on_c, 2, 54, 0
4, 42720, Note_on_c, 2, 64, 127
4, 42720, Note_on_c, 2, 59, 127
4, 42816, Note_on_c, 2, 59, 0
4, 42816, Note_on_c, 2, 64, 0
4, 42816, Note_on_c, 2, 59, 127
4, 42816, Note_on_c, 2, 64, 127
4, 42912, Note_on_c, 2, 64, 0
4, 42912, Note_on_c, 2, 59, 0
4, 42912, Note_on_c, 2, 59, 127
4, 42912, Note_on_c, 2, 64, 127
4, 43008, Note_on_c, 2, 64, 0
4, 43008, Note_on_c, 2, 59, 0
4, 43008, Note_on_c, 2, 64, 127
4, 43008, Note_on_c, 2, 61, 127
4, 43056, Note_on_c, 2, 61, 0
4, 43056, Note_on_c, 2, 59, 127
4, 43104, Note_on_c, 2, 59, 0
4, 43104, Note_on_c, 2, 64, 0
4, 43104, Note_on_c, 2, 59, 127
4, 43104, Note_on_c, 2, 56, 127
4, 43152, Note_on_c, 2, 56, 0
4, 43152, Note_on_c, 2, 59, 0
4, 43152, Note_on_c, 2, 59, 127
4, 43152, Note_on_c, 2, 64, 127
4, 43248, Note_on_c, 2, 64, 0
4, 43248, Note_on_c, 2, 59, 0
4, 43248, Note_on_c, 2, 59, 127
4, 43248, Note_on_c, 2, 64, 127
4, 43296, Note_on_c, 2, 64, 0
4, 43296, Note_on_c, 2, 59, 0
4, 43296, Note_on_c, 2, 64, 127
4, 43296, Note_on_c, 2, 61, 127
4, 43344, Note_on_c, 2, 61, 0
4, 43344, Note_on_c, 2, 64, 0
4, 43344, Note_on_c, 2, 64, 127
4, 43344, Note_on_c, 2, 59, 127
4, 43392, Note_on_c, 2, 59, 0
4, 43392, Note_on_c, 2, 64, 0
4, 44016, Note_on_c, 2, 56, 127
4, 44016, Note_on_c, 2, 52, 127
4, 44064, Note_on_c, 2, 52, 0
4, 44064, Note_on_c, 2, 56, 0
4, 44064, Note_on_c, 2, 56, 127
4, 44064, Note_on_c, 2, 52, 127
4, 44112, Note_on_c, 2, 52, 0
4, 44112, Note_on_c, 2, 56, 0
4, 44112, Note_on_c, 2, 56, 127
4, 44112, Note_on_c, 2, 52, 127
4, 44160, Note_on_c, 2, 52, 0
4, 44160, Note_on_c, 2, 56, 0
4, 44160, Note_on_c, 2, 54, 127
4, 44160, Note_on_c, 2, 59, 127
4, 44208, Note_on_c, 2, 59, 0
4, 44208, Note_on_c, 2, 56, 127
4, 44256, Note_on_c, 2, 56, 0
4, 44256, Note_on_c, 2, 54, 0
4, 44256, Note_on_c, 2, 64, 127
4, 44256, Note_on_c, 2, 59, 127
4, 44352, Note_on_c, 2, 59, 0
4, 44352, Note_on_c, 2, 64, 0
4, 44352, Note_on_c, 2, 59, 127
4, 44352, Note_on_c, 2, 64, 127
4, 44448, Note_on_c, 2, 64, 0
4, 44448, Note_on_c, 2, 59, 0
4, 44448, Note_on_c, 2, 59, 127
4, 44448, Note_on_c, 2, 64, 127
4, 44544, Note_on_c, 2, 64, 0
4, 44544, Note_on_c, 2, 59, 0
4, 44544, Note_on_c, 2, 64, 127
4, 44544, Note_on_c, 2, 61, 127
4, 44592, Note_on_c, 2, 61, 0
4, 44592, Note_on_c, 2, 59, 127
4, 44640, Note_on_c, 2, 59, 0
4, 44640, Note_on_c, 2, 64, 0
4, 44640, Note_on_c, 2, 59, 127
4, 44640, Note_on_c, 2, 56, 127
4, 44688, Note_on_c, 2, 56, 0
4, 44688, Note_on_c, 2, 59, 0
4, 44688, Note_on_c, 2, 59, 127
4, 44688, Note_on_c, 2, 64, 127
4, 44784, Note_on_c, 2, 64, 0
4, 44784, Note_on_c, 2, 59, 0
4, 44784, Note_on_c, 2, 59, 127
4, 44784, Note_on_c, 2, 64, 127
4, 44832, Note_on_c, 2, 64, 0
4, 44832, Note_on_c, 2, 59, 0
4, 44832, Note_on_c, 2, 64, 127
4, 44832, Note_on_c, 2, 61, 127
4, 44880, Note_on_c, 2, 61, 0
4, 44880, Note_on_c, 2, 64, 0
4, 44880, Note_on_c, 2, 64, 127
4, 44880, Note_on_c, 2, 59, 127
4, 44928, Note_on_c, 2, 59, 0
4, 44928, Note_on_c, 2, 64, 0
4, 45552, Note_on_c, 2, 56, 127
4, 45552, Note_on_c, 2, 52, 127
4, 45600, Note_on_c, 2, 52, 0
4, 45600, Note_on_c, 2, 56, 0
4, 45600, Note_on_c, 2, 56, 127
4, 45600, Note_on_c, 2, 52, 127
4, 45648, Note_on_c, 2, 52, 0
4, 45648, Note_on_c, 2, 56, 0
4, 45648, Note_on_c, 2, 56, 127
4, 45648, Note_on_c, 2, 52, 127
4, 45696, Note_on_c, 2, 52, 0
4, 45696, Note_on_c, 2, 56, 0
4, 45696, Note_on_c, 2, 54, 127
4, 45696, Note_on_c, 2, 59, 127
4, 45744, Note_on_c, 2, 59, 0
4, 45744, Note_on_c, 2, 56, 127
4, 45792, Note_on_c, 2, 56, 0
4, 45792, Note_on_c, 2, 54, 0
4, 45792, Note_on_c, 2, 64, 127
4, 45792, Note_on_c, 2, 59, 127
4, 45888, Note_on_c, 2, 59, 0
4, 45888, Note_on_c, 2, 64, 0
4, 45888, Note_on_c, 2, 59, 127
4, 45888, Note_on_c, 2, 64, 127
4, 45984, Note_on_c, 2, 64, 0
4, 45984, Note_on_c, 2, 59, 0
4, 45984, Note_on_c, 2, 59, 127
4, 45984, Note_on_c, 2, 64, 127
4, 46080, Note_on_c, 2, 64, 0
4, 46080, Note_on_c, 2, 59, 0
4, 46080, Note_on_c, 2, 64, 127
4, 46080, Note_on_c, 2, 61, 127
4, 46128, Note_on_c, 2, 61, 0
4, 46128, Note_on_c, 2, 59, 127
4, 46176, Note_on_c, 2, 59, 0
4, 46176, Note_on_c, 2, 64, 0
4, 46176, Note_on_c, 2, 59, 127
4, 46176, Note_on_c, 2, 56, 127
4, 46224, Note_on_c, 2, 56, 0
4, 46224, Note_on_c, 2, 59, 0
4, 46224, Note_on_c, 2, 59, 127
4, 46224, Note_on_c, 2, 64, 127
4, 46320, Note_on_c, 2, 64, 0
4, 46320, Note_on_c, 2, 59, 0
4, 46320, Note_on_c, 2, 59, 127
4, 46320, Note_on_c, 2, 64, 127
4, 46368, Note_on_c, 2, 64, 0
4, 46368, Note_on_c, 2, 59, 0
4, 46368, Note_on_c, 2, 64, 127
4, 46368, Note_on_c, 2, 61, 127
4, 46416, Note_on_c, 2, 61, 0
4, 46416, Note_on_c, 2, 64, 0
4, 46416, Note_on_c, 2, 64, 127
4, 46416, Note_on_c, 2, 59, 127
4, 46464, Note_on_c, 2, 59, 0
4, 46464, Note_on_c, 2, 64, 0
4, 46464, Note_on_c, 2, 54, 127
4, 46464, Note_on_c, 2, 59, 127
4, 46512, Note_on_c, 2, 59, 0
4, 46512, Note_on_c, 2, 56, 127
4, 46560, Note_on_c, 2, 56, 0
4, 46560, Note_on_c, 2, 54, 0
4, 46560, Note_on_c, 2, 64, 127
4, 46560, Note_on_c, 2, 59, 127
4, 46656, Note_on_c, 2, 59, 0
4, 46656, Note_on_c, 2, 64, 0
4, 46656, Note_on_c, 2, 59, 127
4, 46656, Note_on_c, 2, 64, 127
4, 46752, Note_on_c, 2, 64, 0
4, 46752, Note_on_c, 2, 59, 0
4, 46752, Note_on_c, 2, 59, 127
4, 46752, Note_on_c, 2, 64, 127
4, 46848, Note_on_c, 2, 64, 0
4, 46848, Note_on_c, 2, 59, 0
4, 46848, Note_on_c, 2, 64, 127
4, 46848, Note_on_c, 2, 61, 127
4, 46896, Note_on_c, 2, 61, 0
4, 46896, Note_on_c, 2, 59, 127
4, 46944, Note_on_c, 2, 59, 0
4, 46944, Note_on_c, 2, 64, 0
4, 46944, Note_on_c, 2, 59, 127
4, 46944, Note_on_c, 2, 56, 127
4, 46992, Note_on_c, 2, 56, 0
4, 46992, Note_on_c, 2, 59, 0
4, 46992, Note_on_c, 2, 59, 127
4, 46992, Note_on_c, 2, 64, 127
4, 47088, Note_on_c, 2, 64, 0
4, 47088, Note_on_c, 2, 59, 0
4, 47088, Note_on_c, 2, 59, 127
4, 47088, Note_on_c, 2, 64, 127
4, 47136, Note_on_c, 2, 64, 0
4, 47136, Note_on_c, 2, 59, 0
4, 47136, Note_on_c, 2, 64, 127
4, 47136, Note_on_c, 2, 61, 127
4, 47184, Note_on_c, 2, 61, 0
4, 47184, Note_on_c, 2, 64, 0
4, 47184, Note_on_c, 2, 64, 127
4, 47184, Note_on_c, 2, 59, 127
4, 47232, Note_on_c, 2, 59, 0
4, 47232, Note_on_c, 2, 64, 0
4, 47232, Note_on_c, 2, 54, 127
4, 47232, Note_on_c, 2, 59, 127
4, 47280, Note_on_c, 2, 59, 0
4, 47280, Note_on_c, 2, 56, 127
4, 47328, Note_on_c, 2, 56, 0
4, 47328, Note_on_c, 2, 54, 0
4, 47328, Note_on_c, 2, 64, 127
4, 47328, Note_on_c, 2, 59, 127
4, 47424, Note_on_c, 2, 59, 0
4, 47424, Note_on_c, 2, 64, 0
4, 47424, Note_on_c, 2, 59, 127
4, 47424, Note_on_c, 2, 64, 127
4, 47520, Note_on_c, 2, 64, 0
4, 47520, Note_on_c, 2, 59, 0
4, 47520, Note_on_c, 2, 59, 127
4, 47520, Note_on_c, 2, 64, 127
4, 47616, Note_on_c, 2, 64, 0
4, 47616, Note_on_c, 2, 59, 0
4, 47616, Note_on_c, 2, 64, 127
4, 47616, Note_on_c, 2, 61, 127
4, 47664, Note_on_c, 2, 61, 0
4, 47664, Note_on_c, 2, 59, 127
4, 47712, Note_on_c, 2, 59, 0
4, 47712, Note_on_c, 2, 64, 0
4, 47712, Note_on_c, 2, 59, 127
4, 47712, Note_on_c, 2, 56, 127
4, 47760, Note_on_c, 2, 56, 0
4, 47760, Note_on_c, 2, 59, 0
4, 47760, Note_on_c, 2, 59, 127
4, 47760, Note_on_c, 2, 64, 127
4, 47856, Note_on_c, 2, 64, 0
4, 47856, Note_on_c, 2, 59, 0
4, 47856, Note_on_c, 2, 59, 127
4, 47856, Note_on_c, 2, 64, 127
4, 47904, Note_on_c, 2, 64, 0
4, 47904, Note_on_c, 2, 59, 0
4, 47904, Note_on_c, 2, 64, 127
4, 47904, Note_on_c, 2, 61, 127
4, 47952, Note_on_c, 2, 61, 0
4, 47952, Note_on_c, 2, 64, 0
4, 47952, Note_on_c, 2, 64, 127
4, 47952, Note_on_c, 2, 59, 127
4, 48000, Note_on_c, 2, 59, 0
4, 48000, Note_on_c, 2, 64, 0
4, 48000, Note_on_c, 2, 54, 127
4, 48000, Note_on_c, 2, 59, 127
4, 48048, Note_on_c, 2, 59, 0
4, 48048, Note_on_c, 2, 56, 127
4, 48096, Note_on_c, 2, 56, 0
4, 48096, Note_on_c, 2, 54, 0
4, 48096, Note_on_c, 2, 64, 127
4, 48096, Note_on_c, 2, 59, 127
4, 48192, Note_on_c, 2, 59, 0
4, 48192, Note_on_c, 2, 64, 0
4, 48192, Note_on_c, 2, 59, 127
4, 48192, Note_on_c, 2, 64, 127
4, 48288, Note_on_c, 2, 64, 0
4, 48288, Note_on_c, 2, 59, 0
4, 48288, Note_on_c, 2, 59, 127
4, 48288, Note_on_c, 2, 64, 127
4, 48384, Note_on_c, 2, 64, 0
4, 48384, Note_on_c, 2, 59, 0
4, 48384, Note_on_c, 2, 64, 127
4, 48384, Note_on_c, 2, 61, 127
4, 48432, Note_on_c, 2, 61, 0
4, 48432, Note_on_c, 2, 59, 127
4, 48480, Note_on_c, 2, 59, 0
4, 48480, Note_on_c, 2, 64, 0
4, 48480, Note_on_c, 2, 59, 127
4, 48480, Note_on_c, 2, 56, 127
4, 48528, Note_on_c, 2, 56, 0
4, 48528, Note_on_c, 2, 59, 0
4, 48528, Note_on_c, 2, 59, 127
4, 48528, Note_on_c, 2, 64, 127
4, 48624, Note_on_c, 2, 64, 0
4, 48624, Note_on_c, 2, 59, 0
4, 48624, Note_on_c, 2, 76, 127
4, 48624, Note_on_c, 2, 71, 127
4, 48672, Note_on_c, 2, 71, 0
4, 48672, Note_on_c, 2, 76, 0
4, 48672, Note_on_c, 2, 76, 127
4, 48672, Note_on_c, 2, 71, 127
4, 48720, Note_on_c, 2, 71, 0
4, 48720, Note_on_c, 2, 76, 0
4, 48720, Note_on_c, 2, 76, 127
4, 48720, Note_on_c, 2, 71, 127
4, 48768, Note_on_c, 2, 71, 0
4, 48768, Note_on_c, 2, 76, 0
4, 48768, Note_on_c, 2, 76, 127
4, 48768, Note_on_c, 2, 71, 127
4, 48816, Note_on_c, 2, 71, 0
4, 48816, Note_on_c, 2, 76, 0
4, 48864, Note_on_c, 2, 73, 127
4, 48864, Note_on_c, 2, 69, 127
4, 48912, Note_on_c, 2, 69, 0
4, 48912, Note_on_c, 2, 73, 0
4, 48960, Note_on_c, 2, 71, 127
4, 48960, Note_on_c, 2, 68, 127
4, 49008, Note_on_c, 2, 68, 0
4, 49008, Note_on_c, 2, 71, 0
4, 49056, Note_on_c, 2, 68, 127
4, 49056, Note_on_c, 2, 64, 127
4, 49104, Note_on_c, 2, 64, 0
4, 49104, Note_on_c, 2, 68, 0
4, 49152, Note_on_c, 2, 66, 127
4, 49152, Note_on_c, 2, 61, 127
4, 49200, Note_on_c, 2, 61, 0
4, 49200, Note_on_c, 2, 66, 0
4, 49200, Note_on_c, 2, 64, 127
4, 49200, Note_on_c, 2, 59, 127
4, 49248, Note_on_c, 2, 59, 0
4, 49248, Note_on_c, 2, 64, 0
4, 49248, Note_on_c, 2, 59, 127
4, 49248, Note_on_c, 2, 56, 127
4, 49296, Note_on_c, 2, 56, 0
4, 49296, Note_on_c, 2, 59, 0
4, 49296, Note_on_c, 2, 56, 127
4, 49296, Note_on_c, 2, 52, 127
4, 49296, Note_on_c, 2, 47, 127
4, 49896, Note_on_c, 2, 47, 0
4, 49896, Note_on_c, 2, 52, 0
4, 49896, Note_on_c, 2, 56, 0
4, 49896, End_track
5, 0, Start_track
5, 0, MIDI_port, 0
5, 0, Title_t, "Melody"
5, 0, Program_c, 3, 66
5, 0, Control_c, 3, 7, 94
5, 1, Program_c, 3, 66
5, 2, Control_c, 3, 11, 120
5, 2, Control_c, 3, 7, 94
5, 3, Control_c, 3, 91, 120
5, 4992, Note_on_c, 3, 68, 127
5, 5280, Note_on_c, 3, 68, 0
5, 5328, Note_on_c, 3, 68, 127
5, 5376, Note_on_c, 3, 68, 0
5, 5424, Note_on_c, 3, 68, 127
5, 5472, Note_on_c, 3, 68, 0
5, 5520, Note_on_c, 3, 68, 127
5, 5568, Note_on_c, 3, 68, 0
5, 5616, Note_on_c, 3, 64, 127
5, 5664, Note_on_c, 3, 64, 0
5, 5712, Note_on_c, 3, 68, 127
5, 5760, Note_on_c, 3, 68, 0
5, 5808, Note_on_c, 3, 68, 127
5, 5856, Note_on_c, 3, 68, 0
5, 5856, Note_on_c, 3, 68, 127
5, 5904, Note_on_c, 3, 68, 0
5, 5904, Note_on_c, 3, 68, 127
5, 5952, Note_on_c, 3, 68, 0
5, 5952, Note_on_c, 3, 68, 127
5, 6000, Note_on_c, 3, 68, 0
5, 6048, Note_on_c, 3, 64, 127
5, 6096, Note_on_c, 3, 64, 0
5, 6096, Note_on_c, 3, 68, 127
5, 6264, Note_on_c, 3, 68, 0
5, 6864, Note_on_c, 3, 68, 127
5, 6936, Note_on_c, 3, 68, 0
5, 6960, Note_on_c, 3, 68, 127
5, 7008, Note_on_c, 3, 68, 0
5, 7008, Note_on_c, 3, 68, 127
5, 7056, Note_on_c, 3, 68, 0
5, 7056, Note_on_c, 3, 68, 127
5, 7104, Note_on_c, 3, 68, 0
5, 7104, Note_on_c, 3, 68, 127
5, 7152, Note_on_c, 3, 68, 0
5, 7200, Note_on_c, 3, 64, 127
5, 7248, Note_on_c, 3, 64, 0
5, 7248, Note_on_c, 3, 68, 127
5, 7296, Note_on_c, 3, 68, 0
5, 7344, Note_on_c, 3, 68, 127
5, 7392, Note_on_c, 3, 68, 0
5, 7392, Note_on_c, 3, 68, 127
5, 7440, Note_on_c, 3, 68, 0
5, 7440, Note_on_c, 3, 68, 127
5, 7488, Note_on_c, 3, 68, 0
5, 7488, Note_on_c, 3, 68, 127
5, 7536, Note_on_c, 3, 68, 0
5, 7584, Note_on_c, 3, 64, 127
5, 7632, Note_on_c, 3, 64, 0
5, 7632, Note_on_c, 3, 63, 127
5, 7824, Note_on_c, 3, 63, 0
5, 8448, Note_on_c, 3, 64, 127
5, 8496, Note_on_c, 3, 64, 0
5, 8496, Note_on_c, 3, 68, 127
5, 8544, Note_on_c, 3, 68, 0
5, 8592, Note_on_c, 3, 68, 127
5, 8640, Note_on_c, 3, 68, 0
5, 8736, Note_on_c, 3, 68, 127
5, 8784, Note_on_c, 3, 68, 0
5, 8784, Note_on_c, 3, 68, 127
5, 8832, Note_on_c, 3, 68, 0
5, 8832, Note_on_c, 3, 64, 127
5, 8880, Note_on_c, 3, 64, 0
5, 8928, Note_on_c, 3, 68, 127
5, 8976, Note_on_c, 3, 68, 0
5, 8976, Note_on_c, 3, 68, 127
5, 9024, Note_on_c, 3, 68, 0
5, 9216, Note_on_c, 3, 69, 127
5, 9264, Note_on_c, 3, 69, 0
5, 9312, Note_on_c, 3, 69, 127
5, 9360, Note_on_c, 3, 69, 0
5, 9408, Note_on_c, 3, 69, 127
5, 9456, Note_on_c, 3, 69, 0
5, 9456, Note_on_c, 3, 69, 127
5, 9504, Note_on_c, 3, 69, 0
5, 9504, Note_on_c, 3, 66, 127
5, 9552, Note_on_c, 3, 66, 0
5, 9552, Note_on_c, 3, 64, 127
5, 9600, Note_on_c, 3, 64, 0
5, 9600, Note_on_c, 3, 69, 127
5, 9648, Note_on_c, 3, 69, 0
5, 9696, Note_on_c, 3, 69, 127
5, 9744, Note_on_c, 3, 69, 0
5, 9792, Note_on_c, 3, 69, 127
5, 9840, Note_on_c, 3, 69, 0
5, 9984, Note_on_c, 3, 71, 127
5, 10272, Note_on_c, 3, 71, 0
5, 10464, Note_on_c, 3, 64, 127
5, 10512, Note_on_c, 3, 64, 0
5, 10512, Note_on_c, 3, 64, 127
5, 10560, Note_on_c, 3, 64, 0
5, 10560, Note_on_c, 3, 68, 127
5, 10608, Note_on_c, 3, 68, 0
5, 10656, Note_on_c, 3, 68, 127
5, 10704, Note_on_c, 3, 68, 0
5, 10752, Note_on_c, 3, 64, 127
5, 10848, Note_on_c, 3, 64, 0
5, 11520, Note_on_c, 3, 68, 127
5, 11808, Note_on_c, 3, 68, 0
5, 11856, Note_on_c, 3, 68, 127
5, 11904, Note_on_c, 3, 68, 0
5, 11952, Note_on_c, 3, 68, 127
5, 12000, Note_on_c, 3, 68, 0
5, 12048, Note_on_c, 3, 68, 127
5, 12096, Note_on_c, 3, 68, 0
5, 12144, Note_on_c, 3, 64, 127
5, 12192, Note_on_c, 3, 64, 0
5, 12240, Note_on_c, 3, 68, 127
5, 12288, Note_on_c, 3, 68, 0
5, 12336, Note_on_c, 3, 68, 127
5, 12384, Note_on_c, 3, 68, 0
5, 12384, Note_on_c, 3, 68, 127
5, 12432, Note_on_c, 3, 68, 0
5, 12432, Note_on_c, 3, 68, 127
5, 12480, Note_on_c, 3, 68, 0
5, 12480, Note_on_c, 3, 68, 127
5, 12528, Note_on_c, 3, 68, 0
5, 12576, Note_on_c, 3, 64, 127
5, 12624, Note_on_c, 3, 64, 0
5, 12624, Note_on_c, 3, 68, 127
5, 12792, Note_on_c, 3, 68, 0
5, 13392, Note_on_c, 3, 68, 127
5, 13464, Note_on_c, 3, 68, 0
5, 13488, Note_on_c, 3, 68, 127
5, 13536, Note_on_c, 3, 68, 0
5, 13536, Note_on_c, 3, 68, 127
5, 13584, Note_on_c, 3, 68, 0
5, 13584, Note_on_c, 3, 68, 127
5, 13632, Note_on_c, 3, 68, 0
5, 13632, Note_on_c, 3, 68, 127
5, 13680, Note_on_c, 3, 68, 0
5, 13728, Note_on_c, 3, 64, 127
5, 13776, Note_on_c, 3, 64, 0
5, 13776, Note_on_c, 3, 68, 127
5, 13824, Note_on_c, 3, 68, 0
5, 13872, Note_on_c, 3, 68, 127
5, 13920, Note_on_c, 3, 68, 0
5, 13920, Note_on_c, 3, 68, 127
5, 13968, Note_on_c, 3, 68, 0
5, 13968, Note_on_c, 3, 68, 127
5, 14016, Note_on_c, 3, 68, 0
5, 14016, Note_on_c, 3, 68, 127
5, 14064, Note_on_c, 3, 68, 0
5, 14112, Note_on_c, 3, 64, 127
5, 14160, Note_on_c, 3, 64, 0
5, 14160, Note_on_c, 3, 63, 127
5, 14352, Note_on_c, 3, 63, 0
5, 14976, Note_on_c, 3, 64, 127
5, 15024, Note_on_c, 3, 64, 0
5, 15024, Note_on_c, 3, 68, 127
5, 15072, Note_on_c, 3, 68, 0
5, 15120, Note_on_c, 3, 68, 127
5, 15168, Note_on_c, 3, 68, 0
5, 15264, Note_on_c, 3, 68, 127
5, 15312, Note_on_c, 3, 68, 0
5, 15312, Note_on_c, 3, 68, 127
5, 15360, Note_on_c, 3, 68, 0
5, 15360, Note_on_c, 3, 64, 127
5, 15408, Note_on_c, 3, 64, 0
5, 15456, Note_on_c, 3, 68, 127
5, 15504, Note_on_c, 3, 68, 0
5, 15504, Note_on_c, 3, 68, 127
5, 15552, Note_on_c, 3, 68, 0
5, 15744, Note_on_c, 3, 69, 127
5, 15792, Note_on_c, 3, 69, 0
5, 15840, Note_on_c, 3, 69, 127
5, 15888, Note_on_c, 3, 69, 0
5, 15936, Note_on_c, 3, 69, 127
5, 15984, Note_on_c, 3, 69, 0
5, 15984, Note_on_c, 3, 69, 127
5, 16032, Note_on_c, 3, 69, 0
5, 16032, Note_on_c, 3, 66, 127
5, 16080, Note_on_c, 3, 66, 0
5, 16080, Note_on_c, 3, 64, 127
5, 16128, Note_on_c, 3, 64, 0
5, 16128, Note_on_c, 3, 69, 127
5, 16176, Note_on_c, 3, 69, 0
5, 16224, Note_on_c, 3, 69, 127
5, 16272, Note_on_c, 3, 69, 0
5, 16320, Note_on_c, 3, 69, 127
5, 16368, Note_on_c, 3, 69, 0
5, 16512, Note_on_c, 3, 71, 127
5, 16800, Note_on_c, 3, 71, 0
5, 16992, Note_on_c, 3, 64, 127
5, 17040, Note_on_c, 3, 64, 0
5, 17040, Note_on_c, 3, 64, 127
5, 17088, Note_on_c, 3, 64, 0
5, 17088, Note_on_c, 3, 67, 127
5, 17136, Note_on_c, 3, 67, 0
5, 17184, Note_on_c, 3, 67, 127
5, 17232, Note_on_c, 3, 67, 0
5, 17280, Note_on_c, 3, 64, 127
5, 17352, Note_on_c, 3, 64, 0
5, 17952, Note_on_c, 3, 59, 127
5, 18000, Note_on_c, 3, 59, 0
5, 18000, Note_on_c, 3, 59, 127
5, 18048, Note_on_c, 3, 59, 0
5, 18048, Note_on_c, 3, 61, 127
5, 18096, Note_on_c, 3, 61, 0
5, 18144, Note_on_c, 3, 64, 127
5, 18192, Note_on_c, 3, 64, 0
5, 18240, Note_on_c, 3, 64, 127
5, 18288, Note_on_c, 3, 64, 0
5, 18288, Note_on_c, 3, 64, 127
5, 18336, Note_on_c, 3, 64, 0
5, 18336, Note_on_c, 3, 64, 127
5, 18384, Note_on_c, 3, 64, 0
5, 18384, Note_on_c, 3, 61, 127
5, 18432, Note_on_c, 3, 61, 0
5, 18432, Note_on_c, 3, 64, 127
5, 18480, Note_on_c, 3, 64, 0
5, 18480, Note_on_c, 3, 64, 127
5, 18528, Note_on_c, 3, 64, 0
5, 18576, Note_on_c, 3, 64, 127
5, 18624, Note_on_c, 3, 64, 0
5, 18672, Note_on_c, 3, 59, 127
5, 18720, Note_on_c, 3, 59, 0
5, 18720, Note_on_c, 3, 61, 127
5, 18768, Note_on_c, 3, 61, 0
5, 18768, Note_on_c, 3, 59, 127
5, 18864, Note_on_c, 3, 59, 0
5, 19584, Note_on_c, 3, 61, 127
5, 19632, Note_on_c, 3, 61, 0
5, 19680, Note_on_c, 3, 64, 127
5, 19728, Note_on_c, 3, 64, 0
5, 19776, Note_on_c, 3, 64, 127
5, 19824, Note_on_c, 3, 64, 0
5, 19824, Note_on_c, 3, 64, 127
5, 19872, Note_on_c, 3, 64, 0
5, 19872, Note_on_c, 3, 64, 127
5, 19920, Note_on_c, 3, 64, 0
5, 19920, Note_on_c, 3, 61, 127
5, 19968, Note_on_c, 3, 61, 0
5, 19968, Note_on_c, 3, 64, 127
5, 20016, Note_on_c, 3, 64, 0
5, 20016, Note_on_c, 3, 64, 127
5, 20064, Note_on_c, 3, 64, 0
5, 20112, Note_on_c, 3, 64, 127
5, 20160, Note_on_c, 3, 64, 0
5, 20208, Note_on_c, 3, 59, 127
5, 20256, Note_on_c, 3, 59, 0
5, 20256, Note_on_c, 3, 61, 127
5, 20304, Note_on_c, 3, 61, 0
5, 20304, Note_on_c, 3, 59, 127
5, 20328, Note_on_c, 3, 59, 0
5, 20352, Note_on_c, 3, 64, 127
5, 20376, Note_on_c, 3, 64, 0
5, 20400, Note_on_c, 3, 64, 127
5, 20424, Note_on_c, 3, 64, 0
5, 20448, Note_on_c, 3, 64, 127
5, 20472, Note_on_c, 3, 64, 0
5, 20496, Note_on_c, 3, 64, 127
5, 20520, Note_on_c, 3, 64, 0
5, 20544, Note_on_c, 3, 59, 127
5, 20568, Note_on_c, 3, 59, 0
5, 20592, Note_on_c, 3, 59, 127
5, 20616, Note_on_c, 3, 59, 0
5, 20640, Note_on_c, 3, 61, 127
5, 20664, Note_on_c, 3, 61, 0
5, 20688, Note_on_c, 3, 59, 127
5, 20712, Note_on_c, 3, 59, 0
5, 20736, Note_on_c, 3, 63, 127
5, 20832, Note_on_c, 3, 63, 0
5, 20832, Note_on_c, 3, 61, 127
5, 20880, Note_on_c, 3, 61, 0
5, 20880, Note_on_c, 3, 59, 127
5, 20928, Note_on_c, 3, 59, 0
5, 21024, Note_on_c, 3, 61, 127
5, 21048, Note_on_c, 3, 61, 0
5, 21072, Note_on_c, 3, 59, 127
5, 21120, Note_on_c, 3, 59, 0
5, 21120, Note_on_c, 3, 63, 127
5, 21216, Note_on_c, 3, 63, 0
5, 21216, Note_on_c, 3, 61, 127
5, 21264, Note_on_c, 3, 61, 0
5, 21264, Note_on_c, 3, 59, 127
5, 21312, Note_on_c, 3, 59, 0
5, 21360, Note_on_c, 3, 52, 127
5, 21408, Note_on_c, 3, 52, 0
5, 21456, Note_on_c, 3, 52, 127
5, 21600, Note_on_c, 3, 52, 0
5, 28416, Note_on_c, 3, 68, 127
5, 28704, Note_on_c, 3, 68, 0
5, 28752, Note_on_c, 3, 68, 127
5, 28800, Note_on_c, 3, 68, 0
5, 28848, Note_on_c, 3, 68, 127
5, 28896, Note_on_c, 3, 68, 0
5, 28944, Note_on_c, 3, 68, 127
5, 28992, Note_on_c, 3, 68, 0
5, 29040, Note_on_c, 3, 64, 127
5, 29088, Note_on_c, 3, 64, 0
5, 29136, Note_on_c, 3, 68, 127
5, 29184, Note_on_c, 3, 68, 0
5, 29232, Note_on_c, 3, 68, 127
5, 29280, Note_on_c, 3, 68, 0
5, 29280, Note_on_c, 3, 68, 127
5, 29328, Note_on_c, 3, 68, 0
5, 29328, Note_on_c, 3, 68, 127
5, 29376, Note_on_c, 3, 68, 0
5, 29376, Note_on_c, 3, 68, 127
5, 29424, Note_on_c, 3, 68, 0
5, 29472, Note_on_c, 3, 64, 127
5, 29520, Note_on_c, 3, 64, 0
5, 29520, Note_on_c, 3, 68, 127
5, 29688, Note_on_c, 3, 68, 0
5, 30288, Note_on_c, 3, 68, 127
5, 30360, Note_on_c, 3, 68, 0
5, 30384, Note_on_c, 3, 68, 127
5, 30432, Note_on_c, 3, 68, 0
5, 30432, Note_on_c, 3, 68, 127
5, 30480, Note_on_c, 3, 68, 0
5, 30480, Note_on_c, 3, 68, 127
5, 30528, Note_on_c, 3, 68, 0
5, 30528, Note_on_c, 3, 68, 127
5, 30576, Note_on_c, 3, 68, 0
5, 30624, Note_on_c, 3, 64, 127
5, 30672, Note_on_c, 3, 64, 0
5, 30672, Note_on_c, 3, 68, 127
5, 30720, Note_on_c, 3, 68, 0
5, 30768, Note_on_c, 3, 68, 127
5, 30816, Note_on_c, 3, 68, 0
5, 30816, Note_on_c, 3, 68, 127
5, 30864, Note_on_c, 3, 68, 0
5, 30864, Note_on_c, 3, 68, 127
5, 30912, Note_on_c, 3, 68, 0
5, 30912, Note_on_c, 3, 68, 127
5, 30960, Note_on_c, 3, 68, 0
5, 31008, Note_on_c, 3, 64, 127
5, 31056, Note_on_c, 3, 64, 0
5, 31056, Note_on_c, 3, 63, 127
5, 31248, Note_on_c, 3, 63, 0
5, 31872, Note_on_c, 3, 64, 127
5, 31920, Note_on_c, 3, 64, 0
5, 31920, Note_on_c, 3, 68, 127
5, 31968, Note_on_c, 3, 68, 0
5, 32016, Note_on_c, 3, 68, 127
5, 32064, Note_on_c, 3, 68, 0
5, 32160, Note_on_c, 3, 68, 127
5, 32208, Note_on_c, 3, 68, 0
5, 32208, Note_on_c, 3, 68, 127
5, 32256, Note_on_c, 3, 68, 0
5, 32256, Note_on_c, 3, 64, 127
5, 32304, Note_on_c, 3, 64, 0
5, 32352, Note_on_c, 3, 68, 127
5, 32400, Note_on_c, 3, 68, 0
5, 32400, Note_on_c, 3, 68, 127
5, 32448, Note_on_c, 3, 68, 0
5, 32640, Note_on_c, 3, 69, 127
5, 32688, Note_on_c, 3, 69, 0
5, 32736, Note_on_c, 3, 69, 127
5, 32784, Note_on_c, 3, 69, 0
5, 32832, Note_on_c, 3, 69, 127
5, 32880, Note_on_c, 3, 69, 0
5, 32880, Note_on_c, 3, 69, 127
5, 32928, Note_on_c, 3, 69, 0
5, 32928, Note_on_c, 3, 66, 127
5, 32976, Note_on_c, 3, 66, 0
5, 32976, Note_on_c, 3, 64, 127
5, 33024, Note_on_c, 3, 64, 0
5, 33024, Note_on_c, 3, 69, 127
5, 33072, Note_on_c, 3, 69, 0
5, 33120, Note_on_c, 3, 69, 127
5, 33168, Note_on_c, 3, 69, 0
5, 33216, Note_on_c, 3, 69, 127
5, 33264, Note_on_c, 3, 69, 0
5, 33408, Note_on_c, 3, 71, 127
5, 33696, Note_on_c, 3, 71, 0
5, 33888, Note_on_c, 3, 64, 127
5, 33936, Note_on_c, 3, 64, 0
5, 33936, Note_on_c, 3, 64, 127
5, 33984, Note_on_c, 3, 64, 0
5, 33984, Note_on_c, 3, 67, 127
5, 34032, Note_on_c, 3, 67, 0
5, 34080, Note_on_c, 3, 67, 127
5, 34128, Note_on_c, 3, 67, 0
5, 34176, Note_on_c, 3, 64, 127
5, 34248, Note_on_c, 3, 64, 0
5, 34848, Note_on_c, 3, 59, 127
5, 34896, Note_on_c, 3, 59, 0
5, 34896, Note_on_c, 3, 59, 127
5, 34944, Note_on_c, 3, 59, 0
5, 34944, Note_on_c, 3, 61, 127
5, 34992, Note_on_c, 3, 61, 0
5, 35040, Note_on_c, 3, 64, 127
5, 35088, Note_on_c, 3, 64, 0
5, 35136, Note_on_c, 3, 64, 127
5, 35184, Note_on_c, 3, 64, 0
5, 35184, Note_on_c, 3, 64, 127
5, 35232, Note_on_c, 3, 64, 0
5, 35232, Note_on_c, 3, 64, 127
5, 35280, Note_on_c, 3, 64, 0
5, 35280, Note_on_c, 3, 61, 127
5, 35328, Note_on_c, 3, 61, 0
5, 35328, Note_on_c, 3, 64, 127
5, 35376, Note_on_c, 3, 64, 0
5, 35376, Note_on_c, 3, 64, 127
5, 35424, Note_on_c, 3, 64, 0
5, 35472, Note_on_c, 3, 64, 127
5, 35520, Note_on_c, 3, 64, 0
5, 35568, Note_on_c, 3, 59, 127
5, 35616, Note_on_c, 3, 59, 0
5, 35616, Note_on_c, 3, 61, 127
5, 35664, Note_on_c, 3, 61, 0
5, 35664, Note_on_c, 3, 59, 127
5, 35760, Note_on_c, 3, 59, 0
5, 36480, Note_on_c, 3, 61, 127
5, 36528, Note_on_c, 3, 61, 0
5, 36576, Note_on_c, 3, 64, 127
5, 36624, Note_on_c, 3, 64, 0
5, 36672, Note_on_c, 3, 64, 127
5, 36720, Note_on_c, 3, 64, 0
5, 36720, Note_on_c, 3, 64, 127
5, 36768, Note_on_c, 3, 64, 0
5, 36768, Note_on_c, 3, 64, 127
5, 36816, Note_on_c, 3, 64, 0
5, 36816, Note_on_c, 3, 61, 127
5, 36864, Note_on_c, 3, 61, 0
5, 36864, Note_on_c, 3, 64, 127
5, 36912, Note_on_c, 3, 64, 0
5, 36912, Note_on_c, 3, 64, 127
5, 36960, Note_on_c, 3, 64, 0
5, 37008, Note_on_c, 3, 64, 127
5, 37056, Note_on_c, 3, 64, 0
5, 37104, Note_on_c, 3, 59, 127
5, 37152, Note_on_c, 3, 59, 0
5, 37152, Note_on_c, 3, 61, 127
5, 37200, Note_on_c, 3, 61, 0
5, 37200, Note_on_c, 3, 59, 127
5, 37224, Note_on_c, 3, 59, 0
5, 37248, Note_on_c, 3, 64, 127
5, 37272, Note_on_c, 3, 64, 0
5, 37296, Note_on_c, 3, 64, 127
5, 37320, Note_on_c, 3, 64, 0
5, 37344, Note_on_c, 3, 64, 127
5, 37368, Note_on_c, 3, 64, 0
5, 37392, Note_on_c, 3, 64, 127
5, 37416, Note_on_c, 3, 64, 0
5, 37440, Note_on_c, 3, 59, 127
5, 37464, Note_on_c, 3, 59, 0
5, 37488, Note_on_c, 3, 59, 127
5, 37512, Note_on_c, 3, 59, 0
5, 37536, Note_on_c, 3, 61, 127
5, 37560, Note_on_c, 3, 61, 0
5, 37584, Note_on_c, 3, 59, 127
5, 37608, Note_on_c, 3, 59, 0
5, 37632, Note_on_c, 3, 63, 127
5, 37728, Note_on_c, 3, 63, 0
5, 37728, Note_on_c, 3, 61, 127
5, 37776, Note_on_c, 3, 61, 0
5, 37776, Note_on_c, 3, 59, 127
5, 37824, Note_on_c, 3, 59, 0
5, 37920, Note_on_c, 3, 61, 127
5, 37944, Note_on_c, 3, 61, 0
5, 37968, Note_on_c, 3, 59, 127
5, 38016, Note_on_c, 3, 59, 0
5, 38016, Note_on_c, 3, 63, 127
5, 38112, Note_on_c, 3, 63, 0
5, 38112, Note_on_c, 3, 61, 127
5, 38160, Note_on_c, 3, 61, 0
5, 38160, Note_on_c, 3, 59, 127
5, 38208, Note_on_c, 3, 59, 0
5, 38304, Note_on_c, 3, 61, 127
5, 38328, Note_on_c, 3, 61, 0
5, 38352, Note_on_c, 3, 59, 127
5, 38400, Note_on_c, 3, 59, 0
5, 38400, Note_on_c, 3, 68, 127
5, 38496, Note_on_c, 3, 68, 0
5, 38496, Note_on_c, 3, 68, 127
5, 38544, Note_on_c, 3, 68, 0
5, 38544, Note_on_c, 3, 68, 127
5, 38592, Note_on_c, 3, 68, 0
5, 38640, Note_on_c, 3, 64, 127
5, 38688, Note_on_c, 3, 64, 0
5, 38736, Note_on_c, 3, 64, 127
5, 38880, Note_on_c, 3, 64, 0
5, 39408, Note_on_c, 3, 68, 127
5, 39432, Note_on_c, 3, 68, 0
5, 39456, Note_on_c, 3, 68, 127
5, 39480, Note_on_c, 3, 68, 0
5, 39504, Note_on_c, 3, 64, 127
5, 39552, Note_on_c, 3, 64, 0
5, 39552, Note_on_c, 3, 68, 127
5, 39576, Note_on_c, 3, 68, 0
5, 39600, Note_on_c, 3, 68, 127
5, 39624, Note_on_c, 3, 68, 0
5, 39648, Note_on_c, 3, 68, 127
5, 39672, Note_on_c, 3, 68, 0
5, 39696, Note_on_c, 3, 64, 127
5, 39720, Note_on_c, 3, 64, 0
5, 39744, Note_on_c, 3, 68, 127
5, 39768, Note_on_c, 3, 68, 0
5, 39792, Note_on_c, 3, 68, 127
5, 39816, Note_on_c, 3, 68, 0
5, 39840, Note_on_c, 3, 68, 127
5, 39864, Note_on_c, 3, 68, 0
5, 39888, Note_on_c, 3, 64, 127
5, 39936, Note_on_c, 3, 64, 0
5, 39936, Note_on_c, 3, 71, 127
5, 40008, Note_on_c, 3, 71, 0
5, 40320, Note_on_c, 3, 68, 127
5, 40608, Note_on_c, 3, 68, 0
5, 40656, Note_on_c, 3, 68, 127
5, 40704, Note_on_c, 3, 68, 0
5, 40752, Note_on_c, 3, 68, 127
5, 40800, Note_on_c, 3, 68, 0
5, 40848, Note_on_c, 3, 68, 127
5, 40896, Note_on_c, 3, 68, 0
5, 40944, Note_on_c, 3, 64, 127
5, 40992, Note_on_c, 3, 64, 0
5, 41856, Note_on_c, 3, 68, 127
5, 42144, Note_on_c, 3, 68, 0
5, 42192, Note_on_c, 3, 68, 127
5, 42240, Note_on_c, 3, 68, 0
5, 42288, Note_on_c, 3, 68, 127
5, 42336, Note_on_c, 3, 68, 0
5, 42384, Note_on_c, 3, 68, 127
5, 42432, Note_on_c, 3, 68, 0
5, 42480, Note_on_c, 3, 64, 127
5, 42528, Note_on_c, 3, 64, 0
5, 43392, Note_on_c, 3, 68, 127
5, 43680, Note_on_c, 3, 68, 0
5, 43728, Note_on_c, 3, 68, 127
5, 43776, Note_on_c, 3, 68, 0
5, 43824, Note_on_c, 3, 68, 127
5, 43872, Note_on_c, 3, 68, 0
5, 43920, Note_on_c, 3, 68, 127
5, 43968, Note_on_c, 3, 68, 0
5, 44016, Note_on_c, 3, 64, 127
5, 44064, Note_on_c, 3, 64, 0
5, 44928, Note_on_c, 3, 68, 127
5, 45216, Note_on_c, 3, 68, 0
5, 45264, Note_on_c, 3, 68, 127
5, 45312, Note_on_c, 3, 68, 0
5, 45360, Note_on_c, 3, 68, 127
5, 45408, Note_on_c, 3, 68, 0
5, 45456, Note_on_c, 3, 68, 127
5, 45504, Note_on_c, 3, 68, 0
5, 45552, Note_on_c, 3, 64, 127
5, 45600, Note_on_c, 3, 64, 0
5, 45600, End_track
6, 0, Start_track
6, 0, MIDI_port, 0
6, 0, Title_t, "Dist Gtr 1"
6, 0, Program_c, 4, 30
6, 0, Control_c, 4, 7, 100
6, 1, Program_c, 4, 30
6, 2, Control_c, 4, 7, 84
6, 3, Control_c, 4, 11, 100
6, 4, Control_c, 4, 91, 60
6, 10656, Pitch_bend_c, 4, 8192
6, 10656, Pitch_bend_c, 4, 8192
6, 10656, Note_on_c, 4, 43, 127
6, 10657, Pitch_bend_c, 4, 8064
6, 10657, Pitch_bend_c, 4, 7808
6, 10660, Pitch_bend_c, 4, 7936
6, 10660, Pitch_bend_c, 4, 7552
6, 10661, Pitch_bend_c, 4, 7808
6, 10661, Pitch_bend_c, 4, 7424
6, 10664, Pitch_bend_c, 4, 7680
6, 10664, Pitch_bend_c, 4, 7296
6, 10665, Pitch_bend_c, 4, 7552
6, 10665, Pitch_bend_c, 4, 7040
6, 10668, Pitch_bend_c, 4, 7424
6, 10668, Pitch_bend_c, 4, 6912
6, 10672, Pitch_bend_c, 4, 7296
6, 10672, Pitch_bend_c, 4, 6656
6, 10676, Pitch_bend_c, 4, 7040
6, 10676, Pitch_bend_c, 4, 6528
6, 10677, Pitch_bend_c, 4, 6272
6, 10680, Pitch_bend_c, 4, 6912
6, 10681, Pitch_bend_c, 4, 6784
6, 10681, Pitch_bend_c, 4, 6144
6, 10684, Pitch_bend_c, 4, 6528
6, 10685, Pitch_bend_c, 4, 6016
6, 10688, Pitch_bend_c, 4, 6400
6, 10688, Pitch_bend_c, 4, 5760
6, 10689, Pitch_bend_c, 4, 6016
6, 10692, Pitch_bend_c, 4, 5632
6, 10693, Pitch_bend_c, 4, 5888
6, 10693, Pitch_bend_c, 4, 5504
6, 10696, Pitch_bend_c, 4, 5632
6, 10696, Pitch_bend_c, 4, 5248
6, 10697, Pitch_bend_c, 4, 5504
6, 10700, Pitch_bend_c, 4, 5376
6, 10700, Pitch_bend_c, 4, 5120
6, 10701, Pitch_bend_c, 4, 5248
6, 10701, Pitch_bend_c, 4, 4864
6, 10704, Pitch_bend_c, 4, 4992
6, 10705, Pitch_bend_c, 4, 4864
6, 10705, Pitch_bend_c, 4, 4608
6, 10708, Pitch_bend_c, 4, 4608
6, 10708, Pitch_bend_c, 4, 4480
6, 10709, Pitch_bend_c, 4, 4480
6, 10709, Pitch_bend_c, 4, 4224
6, 10712, Pitch_bend_c, 4, 4224
6, 10712, Pitch_bend_c, 4, 4096
6, 10713, Pitch_bend_c, 4, 3968
6, 10713, Pitch_bend_c, 4, 3840
6, 10716, Pitch_bend_c, 4, 3712
6, 10716, Pitch_bend_c, 4, 3712
6, 10717, Pitch_bend_c, 4, 3456
6, 10717, Pitch_bend_c, 4, 3328
6, 10720, Pitch_bend_c, 4, 2944
6, 10720, Pitch_bend_c, 4, 3200
6, 10721, Pitch_bend_c, 4, 2688
6, 10721, Pitch_bend_c, 4, 2944
6, 10724, Pitch_bend_c, 4, 2304
6, 10724, Pitch_bend_c, 4, 2688
6, 10725, Pitch_bend_c, 4, 2176
6, 10725, Pitch_bend_c, 4, 2432
6, 10728, Pitch_bend_c, 4, 1792
6, 10728, Pitch_bend_c, 4, 2176
6, 10729, Pitch_bend_c, 4, 1664
6, 10729, Pitch_bend_c, 4, 1920
6, 10732, Pitch_bend_c, 4, 1408
6, 10732, Pitch_bend_c, 4, 1664
6, 10733, Pitch_bend_c, 4, 1280
6, 10733, Pitch_bend_c, 4, 1408
6, 10736, Pitch_bend_c, 4, 768
6, 10736, Pitch_bend_c, 4, 1024
6, 10737, Pitch_bend_c, 4, 512
6, 10740, Pitch_bend_c, 4, 256
6, 10740, Pitch_bend_c, 4, 640
6, 10741, Pitch_bend_c, 4, 128
6, 10741, Pitch_bend_c, 4, 384
6, 10744, Pitch_bend_c, 4, 128
6, 10749, Pitch_bend_c, 4, 8320
6, 10749, Pitch_bend_c, 4, 8320
6, 10752, Note_on_c, 4, 43, 0
6, 17184, Pitch_bend_c, 4, 8192
6, 17184, Pitch_bend_c, 4, 8192
6, 17184, Note_on_c, 4, 43, 127
6, 17185, Pitch_bend_c, 4, 8064
6, 17185, Pitch_bend_c, 4, 7808
6, 17188, Pitch_bend_c, 4, 7936
6, 17188, Pitch_bend_c, 4, 7552
6, 17189, Pitch_bend_c, 4, 7808
6, 17189, Pitch_bend_c, 4, 7424
6, 17192, Pitch_bend_c, 4, 7680
6, 17192, Pitch_bend_c, 4, 7296
6, 17193, Pitch_bend_c, 4, 7552
6, 17193, Pitch_bend_c, 4, 7040
6, 17196, Pitch_bend_c, 4, 7424
6, 17196, Pitch_bend_c, 4, 6912
6, 17200, Pitch_bend_c, 4, 7296
6, 17200, Pitch_bend_c, 4, 6656
6, 17204, Pitch_bend_c, 4, 7040
6, 17204, Pitch_bend_c, 4, 6528
6, 17205, Pitch_bend_c, 4, 6272
6, 17208, Pitch_bend_c, 4, 6912
6, 17209, Pitch_bend_c, 4, 6784
6, 17209, Pitch_bend_c, 4, 6144
6, 17212, Pitch_bend_c, 4, 6528
6, 17213, Pitch_bend_c, 4, 6016
6, 17216, Pitch_bend_c, 4, 6400
6, 17216, Pitch_bend_c, 4, 5760
6, 17217, Pitch_bend_c, 4, 6016
6, 17220, Pitch_bend_c, 4, 5632
6, 17221, Pitch_bend_c, 4, 5888
6, 17221, Pitch_bend_c, 4, 5504
6, 17224, Pitch_bend_c, 4, 5632
6, 17224, Pitch_bend_c, 4, 5248
6, 17225, Pitch_bend_c, 4, 5504
6, 17228, Pitch_bend_c, 4, 5376
6, 17228, Pitch_bend_c, 4, 5120
6, 17229, Pitch_bend_c, 4, 5248
6, 17229, Pitch_bend_c, 4, 4864
6, 17232, Pitch_bend_c, 4, 4992
6, 17233, Pitch_bend_c, 4, 4864
6, 17233, Pitch_bend_c, 4, 4608
6, 17236, Pitch_bend_c, 4, 4608
6, 17236, Pitch_bend_c, 4, 4480
6, 17237, Pitch_bend_c, 4, 4480
6, 17237, Pitch_bend_c, 4, 4224
6, 17240, Pitch_bend_c, 4, 4224
6, 17240, Pitch_bend_c, 4, 4096
6, 17241, Pitch_bend_c, 4, 3968
6, 17241, Pitch_bend_c, 4, 3840
6, 17244, Pitch_bend_c, 4, 3712
6, 17244, Pitch_bend_c, 4, 3712
6, 17245, Pitch_bend_c, 4, 3456
6, 17245, Pitch_bend_c, 4, 3328
6, 17248, Pitch_bend_c, 4, 2944
6, 17248, Pitch_bend_c, 4, 3200
6, 17249, Pitch_bend_c, 4, 2688
6, 17249, Pitch_bend_c, 4, 2944
6, 17252, Pitch_bend_c, 4, 2304
6, 17252, Pitch_bend_c, 4, 2688
6, 17253, Pitch_bend_c, 4, 2176
6, 17253, Pitch_bend_c, 4, 2432
6, 17256, Pitch_bend_c, 4, 1792
6, 17256, Pitch_bend_c, 4, 2176
6, 17257, Pitch_bend_c, 4, 1664
6, 17257, Pitch_bend_c, 4, 1920
6, 17260, Pitch_bend_c, 4, 1408
6, 17260, Pitch_bend_c, 4, 1664
6, 17261, Pitch_bend_c, 4, 1280
6, 17261, Pitch_bend_c, 4, 1408
6, 17264, Pitch_bend_c, 4, 768
6, 17264, Pitch_bend_c, 4, 1024
6, 17265, Pitch_bend_c, 4, 512
6, 17268, Pitch_bend_c, 4, 256
6, 17268, Pitch_bend_c, 4, 640
6, 17269, Pitch_bend_c, 4, 128
6, 17269, Pitch_bend_c, 4, 384
6, 17272, Pitch_bend_c, 4, 128
6, 17277, Pitch_bend_c, 4, 8320
6, 17277, Pitch_bend_c, 4, 8320
6, 17280, Note_on_c, 4, 43, 0
6, 18816, Note_on_c, 4, 52, 127
6, 18816, Note_on_c, 4, 47, 127
6, 18864, Note_on_c, 4, 47, 0
6, 18864, Note_on_c, 4, 52, 0
6, 18864, Note_on_c, 4, 40, 64
6, 18876, Note_on_c, 4, 47, 63
6, 18886, Note_on_c, 4, 52, 62
6, 18896, Note_on_c, 4, 56, 62
6, 18904, Note_on_c, 4, 59, 61
6, 18912, Note_on_c, 4, 64, 61
6, 19504, Note_on_c, 4, 56, 0
6, 19524, Note_on_c, 4, 52, 0
6, 19524, Note_on_c, 4, 40, 0
6, 19534, Note_on_c, 4, 47, 0
6, 19542, Note_on_c, 4, 64, 0
6, 19562, Note_on_c, 4, 59, 0
6, 20352, Note_on_c, 4, 40, 100
6, 20352, Note_on_c, 4, 47, 127
6, 20424, Note_on_c, 4, 47, 0
6, 20424, Note_on_c, 4, 40, 0
6, 34080, Pitch_bend_c, 4, 8192
6, 34080, Pitch_bend_c, 4, 8192
6, 34080, Note_on_c, 4, 43, 127
6, 34081, Pitch_bend_c, 4, 8064
6, 34081, Pitch_bend_c, 4, 7808
6, 34084, Pitch_bend_c, 4, 7936
6, 34084, Pitch_bend_c, 4, 7552
6, 34085, Pitch_bend_c, 4, 7808
6, 34085, Pitch_bend_c, 4, 7424
6, 34088, Pitch_bend_c, 4, 7680
6, 34088, Pitch_bend_c, 4, 7296
6, 34089, Pitch_bend_c, 4, 7552
6, 34089, Pitch_bend_c, 4, 7040
6, 34092, Pitch_bend_c, 4, 7424
6, 34092, Pitch_bend_c, 4, 6912
6, 34096, Pitch_bend_c, 4, 7296
6, 34096, Pitch_bend_c, 4, 6656
6, 34100, Pitch_bend_c, 4, 7040
6, 34100, Pitch_bend_c, 4, 6528
6, 34101, Pitch_bend_c, 4, 6272
6, 34104, Pitch_bend_c, 4, 6912
6, 34105, Pitch_bend_c, 4, 6784
6, 34105, Pitch_bend_c, 4, 6144
6, 34108, Pitch_bend_c, 4, 6528
6, 34109, Pitch_bend_c, 4, 6016
6, 34112, Pitch_bend_c, 4, 6400
6, 34112, Pitch_bend_c, 4, 5760
6, 34113, Pitch_bend_c, 4, 6016
6, 34116, Pitch_bend_c, 4, 5632
6, 34117, Pitch_bend_c, 4, 5888
6, 34117, Pitch_bend_c, 4, 5504
6, 34120, Pitch_bend_c, 4, 5632
6, 34120, Pitch_bend_c, 4, 5248
6, 34121, Pitch_bend_c, 4, 5504
6, 34124, Pitch_bend_c, 4, 5376
6, 34124, Pitch_bend_c, 4, 5120
6, 34125, Pitch_bend_c, 4, 5248
6, 34125, Pitch_bend_c, 4, 4864
6, 34128, Pitch_bend_c, 4, 4992
6, 34129, Pitch_bend_c, 4, 4864
6, 34129, Pitch_bend_c, 4, 4608
6, 34132, Pitch_bend_c, 4, 4608
6, 34132, Pitch_bend_c, 4, 4480
6, 34133, Pitch_bend_c, 4, 4480
6, 34133, Pitch_bend_c, 4, 4224
6, 34136, Pitch_bend_c, 4, 4224
6, 34136, Pitch_bend_c, 4, 4096
6, 34137, Pitch_bend_c, 4, 3968
6, 34137, Pitch_bend_c, 4, 3840
6, 34140, Pitch_bend_c, 4, 3712
6, 34140, Pitch_bend_c, 4, 3712
6, 34141, Pitch_bend_c, 4, 3456
6, 34141, Pitch_bend_c, 4, 3328
6, 34144, Pitch_bend_c, 4, 2944
6, 34144, Pitch_bend_c, 4, 3200
6, 34145, Pitch_bend_c, 4, 2688
6, 34145, Pitch_bend_c, 4, 2944
6, 34148, Pitch_bend_c, 4, 2304
6, 34148, Pitch_bend_c, 4, 2688
6, 34149, Pitch_bend_c, 4, 2176
6, 34149, Pitch_bend_c, 4, 2432
6, 34152, Pitch_bend_c, 4, 1792
6, 34152, Pitch_bend_c, 4, 2176
6, 34153, Pitch_bend_c, 4, 1664
6, 34153, Pitch_bend_c, 4, 1920
6, 34156, Pitch_bend_c, 4, 1408
6, 34156, Pitch_bend_c, 4, 1664
6, 34157, Pitch_bend_c, 4, 1280
6, 34157, Pitch_bend_c, 4, 1408
6, 34160, Pitch_bend_c, 4, 768
6, 34160, Pitch_bend_c, 4, 1024
6, 34161, Pitch_bend_c, 4, 512
6, 34164, Pitch_bend_c, 4, 256
6, 34164, Pitch_bend_c, 4, 640
6, 34165, Pitch_bend_c, 4, 128
6, 34165, Pitch_bend_c, 4, 384
6, 34168, Pitch_bend_c, 4, 128
6, 34173, Pitch_bend_c, 4, 8320
6, 34173, Pitch_bend_c, 4, 8320
6, 34176, Note_on_c, 4, 43, 0
6, 35712, Note_on_c, 4, 52, 127
6, 35712, Note_on_c, 4, 47, 127
6, 35760, Note_on_c, 4, 47, 0
6, 35760, Note_on_c, 4, 52, 0
6, 35760, Note_on_c, 4, 40, 64
6, 35772, Note_on_c, 4, 47, 63
6, 35782, Note_on_c, 4, 52, 62
6, 35792, Note_on_c, 4, 56, 62
6, 35800, Note_on_c, 4, 59, 61
6, 35808, Note_on_c, 4, 64, 61
6, 36400, Note_on_c, 4, 56, 0
6, 36420, Note_on_c, 4, 52, 0
6, 36420, Note_on_c, 4, 40, 0
6, 36430, Note_on_c, 4, 47, 0
6, 36438, Note_on_c, 4, 64, 0
6, 36458, Note_on_c, 4, 59, 0
6, 37248, Note_on_c, 4, 40, 100
6, 37248, Note_on_c, 4, 47, 127
6, 37320, Note_on_c, 4, 47, 0
6, 37320, Note_on_c, 4, 40, 0
6, 37320, End_track
7, 0, Start_track
7, 0, MIDI_port, 0
7, 0, Title_t, "Fingerpicking"
7, 0, Program_c, 5, 25
7, 0, Control_c, 5, 7, 90
7, 0, Control_c, 5, 10, 44
7, 1, Program_c, 5, 27
7, 2, Control_c, 5, 7, 90
7, 3, Control_c, 5, 10, 76
7, 4, Control_c, 5, 11, 120
7, 11520, Note_on_c, 5, 52, 86
7, 11568, Note_on_c, 5, 56, 86
7, 11616, Note_on_c, 5, 52, 0
7, 11616, Note_on_c, 5, 59, 86
7, 11664, Note_on_c, 5, 56, 0
7, 11664, Note_on_c, 5, 56, 86
7, 11712, Note_on_c, 5, 56, 0
7, 11712, Note_on_c, 5, 59, 0
7, 11712, Note_on_c, 5, 57, 86
7, 11760, Note_on_c, 5, 57, 0
7, 11760, Note_on_c, 5, 59, 86
7, 11808, Note_on_c, 5, 56, 86
7, 11856, Note_on_c, 5, 59, 0
7, 11856, Note_on_c, 5, 52, 86
7, 11904, Note_on_c, 5, 56, 0
7, 11904, Note_on_c, 5, 64, 86
7, 11928, Note_on_c, 5, 52, 0
7, 11952, Note_on_c, 5, 52, 86
7, 12000, Note_on_c, 5, 64, 0
7, 12000, Note_on_c, 5, 59, 86
7, 12048, Note_on_c, 5, 52, 0
7, 12096, Note_on_c, 5, 59, 0
7, 12096, Note_on_c, 5, 64, 86
7, 12144, Note_on_c, 5, 52, 86
7, 12192, Note_on_c, 5, 64, 0
7, 12192, Note_on_c, 5, 59, 86
7, 12240, Note_on_c, 5, 52, 0
7, 12288, Note_on_c, 5, 59, 0
7, 12288, Note_on_c, 5, 52, 86
7, 12336, Note_on_c, 5, 56, 86
7, 12384, Note_on_c, 5, 52, 0
7, 12384, Note_on_c, 5, 59, 86
7, 12432, Note_on_c, 5, 56, 0
7, 12432, Note_on_c, 5, 56, 86
7, 12480, Note_on_c, 5, 56, 0
7, 12480, Note_on_c, 5, 59, 0
7, 12480, Note_on_c, 5, 57, 86
7, 12528, Note_on_c, 5, 57, 0
7, 12528, Note_on_c, 5, 59, 86
7, 12576, Note_on_c, 5, 56, 86
7, 12624, Note_on_c, 5, 59, 0
7, 12624, Note_on_c, 5, 52, 86
7, 12672, Note_on_c, 5, 56, 0
7, 12672, Note_on_c, 5, 64, 86
7, 12696, Note_on_c, 5, 52, 0
7, 12720, Note_on_c, 5, 52, 86
7, 12768, Note_on_c, 5, 64, 0
7, 12768, Note_on_c, 5, 59, 85
7, 12816, Note_on_c, 5, 52, 0
7, 12864, Note_on_c, 5, 59, 0
7, 12864, Note_on_c, 5, 64, 85
7, 12912, Note_on_c, 5, 52, 85
7, 12960, Note_on_c, 5, 64, 0
7, 12960, Note_on_c, 5, 59, 85
7, 13008, Note_on_c, 5, 52, 0
7, 13056, Note_on_c, 5, 59, 0
7, 13056, Note_on_c, 5, 64, 85
7, 13104, Note_on_c, 5, 52, 85
7, 13152, Note_on_c, 5, 64, 0
7, 13152, Note_on_c, 5, 59, 85
7, 13200, Note_on_c, 5, 52, 0
7, 13248, Note_on_c, 5, 59, 0
7, 13248, Note_on_c, 5, 64, 85
7, 13296, Note_on_c, 5, 52, 85
7, 13344, Note_on_c, 5, 64, 0
7, 13344, Note_on_c, 5, 59, 85
7, 13392, Note_on_c, 5, 52, 0
7, 13440, Note_on_c, 5, 59, 0
7, 13440, Note_on_c, 5, 52, 85
7, 13488, Note_on_c, 5, 56, 85
7, 13536, Note_on_c, 5, 52, 0
7, 13536, Note_on_c, 5, 59, 85
7, 13584, Note_on_c, 5, 56, 0
7, 13584, Note_on_c, 5, 56, 85
7, 13632, Note_on_c, 5, 56, 0
7, 13632, Note_on_c, 5, 59, 0
7, 13632, Note_on_c, 5, 57, 85
7, 13680, Note_on_c, 5, 57, 0
7, 13680, Note_on_c, 5, 59, 85
7, 13728, Note_on_c, 5, 56, 85
7, 13776, Note_on_c, 5, 59, 0
7, 13776, Note_on_c, 5, 52, 85
7, 13824, Note_on_c, 5, 56, 0
7, 13824, Note_on_c, 5, 64, 85
7, 13848, Note_on_c, 5, 52, 0
7, 13872, Note_on_c, 5, 52, 85
7, 13920, Note_on_c, 5, 64, 0
7, 13920, Note_on_c, 5, 59, 85
7, 13968, Note_on_c, 5, 52, 0
7, 14016, Note_on_c, 5, 59, 0
7, 14016, Note_on_c, 5, 56, 84
7, 14064, Note_on_c, 5, 64, 84
7, 14112, Note_on_c, 5, 64, 0
7, 14112, Note_on_c, 5, 56, 0
7, 14112, Note_on_c, 5, 61, 84
7, 14160, Note_on_c, 5, 56, 84
7, 14208, Note_on_c, 5, 56, 0
7, 14208, Note_on_c, 5, 61, 0
7, 14208, Note_on_c, 5, 59, 84
7, 14256, Note_on_c, 5, 63, 84
7, 14304, Note_on_c, 5, 59, 0
7, 14304, Note_on_c, 5, 66, 84
7, 14352, Note_on_c, 5, 63, 0
7, 14352, Note_on_c, 5, 63, 84
7, 14400, Note_on_c, 5, 63, 0
7, 14400, Note_on_c, 5, 66, 0
7, 14400, Note_on_c, 5, 64, 84
7, 14448, Note_on_c, 5, 64, 0
7, 14448, Note_on_c, 5, 66, 84
7, 14496, Note_on_c, 5, 64, 84
7, 14544, Note_on_c, 5, 66, 0
7, 14544, Note_on_c, 5, 66, 84
7, 14592, Note_on_c, 5, 64, 0
7, 14592, Note_on_c, 5, 59, 84
7, 14640, Note_on_c, 5, 66, 0
7, 14640, Note_on_c, 5, 63, 84
7, 14688, Note_on_c, 5, 59, 0
7, 14688, Note_on_c, 5, 66, 84
7, 14736, Note_on_c, 5, 63, 0
7, 14736, Note_on_c, 5, 63, 84
7, 14784, Note_on_c, 5, 63, 0
7, 14784, Note_on_c, 5, 66, 0
7, 14784, Note_on_c, 5, 64, 84
7, 14832, Note_on_c, 5, 64, 0
7, 14832, Note_on_c, 5, 66, 84
7, 14880, Note_on_c, 5, 63, 84
7, 14928, Note_on_c, 5, 66, 0
7, 14928, Note_on_c, 5, 66, 84
7, 14976, Note_on_c, 5, 63, 0
7, 14976, Note_on_c, 5, 52, 84
7, 15024, Note_on_c, 5, 66, 0
7, 15024, Note_on_c, 5, 56, 84
7, 15072, Note_on_c, 5, 52, 0
7, 15072, Note_on_c, 5, 59, 84
7, 15120, Note_on_c, 5, 56, 0
7, 15120, Note_on_c, 5, 56, 84
7, 15168, Note_on_c, 5, 56, 0
7, 15168, Note_on_c, 5, 59, 0
7, 15168, Note_on_c, 5, 57, 84
7, 15216, Note_on_c, 5, 57, 0
7, 15216, Note_on_c, 5, 59, 84
7, 15264, Note_on_c, 5, 56, 83
7, 15312, Note_on_c, 5, 59, 0
7, 15312, Note_on_c, 5, 52, 83
7, 15360, Note_on_c, 5, 56, 0
7, 15360, Note_on_c, 5, 64, 83
7, 15384, Note_on_c, 5, 52, 0
7, 15408, Note_on_c, 5, 52, 83
7, 15456, Note_on_c, 5, 64, 0
7, 15456, Note_on_c, 5, 59, 83
7, 15504, Note_on_c, 5, 52, 0
7, 15552, Note_on_c, 5, 59, 0
7, 15552, Note_on_c, 5, 56, 83
7, 15600, Note_on_c, 5, 64, 83
7, 15648, Note_on_c, 5, 64, 0
7, 15648, Note_on_c, 5, 56, 0
7, 15648, Note_on_c, 5, 59, 83
7, 15696, Note_on_c, 5, 52, 83
7, 15744, Note_on_c, 5, 52, 0
7, 15744, Note_on_c, 5, 59, 0
7, 15744, Note_on_c, 5, 45, 83
7, 15792, Note_on_c, 5, 52, 83
7, 15840, Note_on_c, 5, 45, 0
7, 15840, Note_on_c, 5, 61, 83
7, 15888, Note_on_c, 5, 52, 0
7, 15888, Note_on_c, 5, 57, 83
7, 15936, Note_on_c, 5, 61, 0
7, 15936, Note_on_c, 5, 52, 83
7, 15984, Note_on_c, 5, 57, 0
7, 15984, Note_on_c, 5, 59, 83
7, 16032, Note_on_c, 5, 57, 83
7, 16080, Note_on_c, 5, 59, 0
7, 16080, Note_on_c, 5, 52, 0
7, 16080, Note_on_c, 5, 52, 83
7, 16128, Note_on_c, 5, 57, 0
7, 16176, Note_on_c, 5, 52, 0
7, 16176, Note_on_c, 5, 45, 83
7, 16176, Note_on_c, 5, 52, 83
7, 16224, Note_on_c, 5, 60, 83
7, 16272, Note_on_c, 5, 52, 0
7, 16272, Note_on_c, 5, 45, 0
7, 16272, Note_on_c, 5, 57, 83
7, 16320, Note_on_c, 5, 60, 0
7, 16320, Note_on_c, 5, 52, 83
7, 16368, Note_on_c, 5, 57, 0
7, 16368, Note_on_c, 5, 59, 83
7, 16416, Note_on_c, 5, 52, 0
7, 16416, Note_on_c, 5, 57, 83
7, 16464, Note_on_c, 5, 59, 0
7, 16464, Note_on_c, 5, 52, 84
7, 16512, Note_on_c, 5, 57, 0
7, 16512, Note_on_c, 5, 47, 84
7, 16560, Note_on_c, 5, 52, 0
7, 16560, Note_on_c, 5, 54, 84
7, 16608, Note_on_c, 5, 47, 0
7, 16608, Note_on_c, 5, 63, 84
7, 16656, Note_on_c, 5, 54, 0
7, 16656, Note_on_c, 5, 59, 84
7, 16704, Note_on_c, 5, 63, 0
7, 16704, Note_on_c, 5, 54, 84
7, 16752, Note_on_c, 5, 59, 0
7, 16752, Note_on_c, 5, 64, 84
7, 16800, Note_on_c, 5, 54, 0
7, 16800, Note_on_c, 5, 59, 84
7, 16848, Note_on_c, 5, 64, 0
7, 16848, Note_on_c, 5, 54, 84
7, 16896, Note_on_c, 5, 54, 0
7, 16896, Note_on_c, 5, 59, 0
7, 17276, Note_on_c, 5, 52, 84
7, 17326, Note_on_c, 5, 56, 84
7, 17372, Note_on_c, 5, 52, 0
7, 17374, Note_on_c, 5, 59, 84
7, 17422, Note_on_c, 5, 56, 0
7, 17424, Note_on_c, 5, 52, 84
7, 17470, Note_on_c, 5, 59, 0
7, 17472, Note_on_c, 5, 56, 84
7, 17520, Note_on_c, 5, 52, 0
7, 17526, Note_on_c, 5, 59, 84
7, 17528, Note_on_c, 5, 56, 0
7, 17568, Note_on_c, 5, 52, 84
7, 17614, Note_on_c, 5, 56, 84
7, 17622, Note_on_c, 5, 59, 0
7, 17664, Note_on_c, 5, 56, 0
7, 17664, Note_on_c, 5, 52, 0
7, 17664, Note_on_c, 5, 57, 84
7, 17756, Note_on_c, 5, 57, 0
7, 17760, Note_on_c, 5, 59, 84
7, 17808, Note_on_c, 5, 52, 84
7, 17852, Note_on_c, 5, 59, 0
7, 17856, Note_on_c, 5, 57, 84
7, 17900, Note_on_c, 5, 52, 0
7, 17904, Note_on_c, 5, 57, 0
7, 17904, Note_on_c, 5, 56, 84
7, 17996, Note_on_c, 5, 56, 0
7, 18048, Note_on_c, 5, 52, 86
7, 18048, Note_on_c, 5, 45, 86
7, 18096, Note_on_c, 5, 45, 0
7, 18096, Note_on_c, 5, 52, 0
7, 18096, Note_on_c, 5, 45, 89
7, 18096, Note_on_c, 5, 52, 89
7, 18144, Note_on_c, 5, 52, 0
7, 18144, Note_on_c, 5, 45, 0
7, 18144, Note_on_c, 5, 52, 92
7, 18144, Note_on_c, 5, 45, 92
7, 18192, Note_on_c, 5, 45, 0
7, 18192, Note_on_c, 5, 52, 0
7, 18192, Note_on_c, 5, 45, 95
7, 18192, Note_on_c, 5, 52, 95
7, 18240, Note_on_c, 5, 52, 0
7, 18240, Note_on_c, 5, 45, 0
7, 18240, Note_on_c, 5, 45, 98
7, 18240, Note_on_c, 5, 52, 98
7, 18288, Note_on_c, 5, 52, 0
7, 18288, Note_on_c, 5, 45, 0
7, 18288, Note_on_c, 5, 52, 101
7, 18288, Note_on_c, 5, 45, 101
7, 18336, Note_on_c, 5, 45, 0
7, 18336, Note_on_c, 5, 52, 0
7, 18336, Note_on_c, 5, 45, 104
7, 18336, Note_on_c, 5, 52, 104
7, 18384, Note_on_c, 5, 52, 0
7, 18384, Note_on_c, 5, 45, 0
7, 18384, Note_on_c, 5, 52, 106
7, 18384, Note_on_c, 5, 45, 106
7, 18432, Note_on_c, 5, 45, 0
7, 18432, Note_on_c, 5, 52, 0
7, 18432, Note_on_c, 5, 45, 109
7, 18432, Note_on_c, 5, 52, 109
7, 18480, Note_on_c, 5, 52, 0
7, 18480, Note_on_c, 5, 45, 0
7, 18480, Note_on_c, 5, 45, 112
7, 18480, Note_on_c, 5, 52, 112
7, 18528, Note_on_c, 5, 52, 0
7, 18528, Note_on_c, 5, 45, 0
7, 18528, Note_on_c, 5, 52, 115
7, 18528, Note_on_c, 5, 45, 115
7, 18576, Note_on_c, 5, 45, 0
7, 18576, Note_on_c, 5, 52, 0
7, 18576, Note_on_c, 5, 45, 118
7, 18576, Note_on_c, 5, 52, 118
7, 18624, Note_on_c, 5, 52, 0
7, 18624, Note_on_c, 5, 45, 0
7, 18624, Note_on_c, 5, 45, 121
7, 18624, Note_on_c, 5, 52, 121
7, 18672, Note_on_c, 5, 52, 0
7, 18672, Note_on_c, 5, 45, 0
7, 18672, Note_on_c, 5, 52, 124
7, 18672, Note_on_c, 5, 45, 124
7, 18720, Note_on_c, 5, 45, 0
7, 18720, Note_on_c, 5, 52, 0
7, 18720, Note_on_c, 5, 45, 127
7, 18720, Note_on_c, 5, 52, 127
7, 18768, Note_on_c, 5, 52, 0
7, 18768, Note_on_c, 5, 45, 0
7, 18768, Note_on_c, 5, 52, 127
7, 18768, Note_on_c, 5, 45, 127
7, 18816, Note_on_c, 5, 45, 0
7, 18816, Note_on_c, 5, 52, 0
7, 18816, Note_on_c, 5, 52, 127
7, 18816, Note_on_c, 5, 47, 127
7, 18864, Note_on_c, 5, 47, 0
7, 18864, Note_on_c, 5, 52, 0
7, 18864, Note_on_c, 5, 40, 126
7, 18876, Note_on_c, 5, 47, 127
7, 18886, Note_on_c, 5, 52, 127
7, 18896, Note_on_c, 5, 56, 127
7, 18904, Note_on_c, 5, 59, 127
7, 18912, Note_on_c, 5, 64, 127
7, 19504, Note_on_c, 5, 56, 0
7, 19524, Note_on_c, 5, 52, 0
7, 19524, Note_on_c, 5, 40, 0
7, 19534, Note_on_c, 5, 47, 0
7, 19542, Note_on_c, 5, 64, 0
7, 19562, Note_on_c, 5, 59, 0
7, 19584, Note_on_c, 5, 52, 86
7, 19584, Note_on_c, 5, 45, 86
7, 19632, Note_on_c, 5, 45, 0
7, 19632, Note_on_c, 5, 52, 0
7, 19632, Note_on_c, 5, 45, 89
7, 19632, Note_on_c, 5, 52, 89
7, 19680, Note_on_c, 5, 52, 0
7, 19680, Note_on_c, 5, 45, 0
7, 19680, Note_on_c, 5, 52, 92
7, 19680, Note_on_c, 5, 45, 92
7, 19728, Note_on_c, 5, 45, 0
7, 19728, Note_on_c, 5, 52, 0
7, 19728, Note_on_c, 5, 45, 95
7, 19728, Note_on_c, 5, 52, 95
7, 19776, Note_on_c, 5, 52, 0
7, 19776, Note_on_c, 5, 45, 0
7, 19776, Note_on_c, 5, 45, 98
7, 19776, Note_on_c, 5, 52, 98
7, 19824, Note_on_c, 5, 52, 0
7, 19824, Note_on_c, 5, 45, 0
7, 19824, Note_on_c, 5, 52, 101
7, 19824, Note_on_c, 5, 45, 101
7, 19872, Note_on_c, 5, 45, 0
7, 19872, Note_on_c, 5, 52, 0
7, 19872, Note_on_c, 5, 45, 104
7, 19872, Note_on_c, 5, 52, 104
7, 19920, Note_on_c, 5, 52, 0
7, 19920, Note_on_c, 5, 45, 0
7, 19920, Note_on_c, 5, 52, 106
7, 19920, Note_on_c, 5, 45, 106
7, 19968, Note_on_c, 5, 45, 0
7, 19968, Note_on_c, 5, 52, 0
7, 19968, Note_on_c, 5, 45, 109
7, 19968, Note_on_c, 5, 52, 109
7, 20016, Note_on_c, 5, 52, 0
7, 20016, Note_on_c, 5, 45, 0
7, 20016, Note_on_c, 5, 45, 112
7, 20016, Note_on_c, 5, 52, 112
7, 20064, Note_on_c, 5, 52, 0
7, 20064, Note_on_c, 5, 45, 0
7, 20064, Note_on_c, 5, 52, 115
7, 20064, Note_on_c, 5, 45, 115
7, 20112, Note_on_c, 5, 45, 0
7, 20112, Note_on_c, 5, 52, 0
7, 20112, Note_on_c, 5, 45, 118
7, 20112, Note_on_c, 5, 52, 118
7, 20160, Note_on_c, 5, 52, 0
7, 20160, Note_on_c, 5, 45, 0
7, 20160, Note_on_c, 5, 45, 121
7, 20160, Note_on_c, 5, 52, 121
7, 20208, Note_on_c, 5, 52, 0
7, 20208, Note_on_c, 5, 45, 0
7, 20208, Note_on_c, 5, 52, 124
7, 20208, Note_on_c, 5, 45, 124
7, 20256, Note_on_c, 5, 45, 0
7, 20256, Note_on_c, 5, 52, 0
7, 20256, Note_on_c, 5, 45, 127
7, 20256, Note_on_c, 5, 52, 127
7, 20304, Note_on_c, 5, 52, 0
7, 20304, Note_on_c, 5, 45, 0
7, 20304, Note_on_c, 5, 52, 127
7, 20304, Note_on_c, 5, 45, 127
7, 20352, Note_on_c, 5, 45, 0
7, 20352, Note_on_c, 5, 52, 0
7, 20352, Note_on_c, 5, 40, 127
7, 20352, Note_on_c, 5, 52, 127
7, 20352, Note_on_c, 5, 47, 127
7, 20424, Note_on_c, 5, 47, 0
7, 20424, Note_on_c, 5, 52, 0
7, 20424, Note_on_c, 5, 40, 0
7, 20736, Note_on_c, 5, 54, 86
7, 20736, Note_on_c, 5, 47, 86
7, 20737, Note_on_c, 5, 51, 86
7, 20784, Note_on_c, 5, 47, 0
7, 20784, Note_on_c, 5, 54, 0
7, 20784, Note_on_c, 5, 47, 63
7, 20784, Note_on_c, 5, 54, 63
7, 20784, Note_on_c, 5, 51, 63
7, 20785, Note_on_c, 5, 51, 0
7, 20832, Note_on_c, 5, 47, 0
7, 20832, Note_on_c, 5, 54, 0
7, 20832, Note_on_c, 5, 51, 0
7, 20832, Note_on_c, 5, 51, 86
7, 20832, Note_on_c, 5, 54, 86
7, 20832, Note_on_c, 5, 47, 86
7, 20880, Note_on_c, 5, 47, 0
7, 20880, Note_on_c, 5, 54, 0
7, 20880, Note_on_c, 5, 51, 0
7, 20880, Note_on_c, 5, 51, 66
7, 20880, Note_on_c, 5, 47, 66
7, 20880, Note_on_c, 5, 54, 66
7, 20928, Note_on_c, 5, 54, 0
7, 20928, Note_on_c, 5, 47, 0
7, 20928, Note_on_c, 5, 51, 0
7, 20928, Note_on_c, 5, 51, 86
7, 20928, Note_on_c, 5, 47, 86
7, 20928, Note_on_c, 5, 54, 86
7, 20976, Note_on_c, 5, 54, 0
7, 20976, Note_on_c, 5, 47, 0
7, 20976, Note_on_c, 5, 51, 0
7, 20976, Note_on_c, 5, 51, 70
7, 20976, Note_on_c, 5, 54, 70
7, 20976, Note_on_c, 5, 47, 70
7, 21024, Note_on_c, 5, 47, 0
7, 21024, Note_on_c, 5, 54, 0
7, 21024, Note_on_c, 5, 51, 0
7, 21024, Note_on_c, 5, 51, 87
7, 21024, Note_on_c, 5, 47, 87
7, 21024, Note_on_c, 5, 54, 87
7, 21072, Note_on_c, 5, 54, 0
7, 21072, Note_on_c, 5, 47, 0
7, 21072, Note_on_c, 5, 51, 0
7, 21072, Note_on_c, 5, 51, 68
7, 21072, Note_on_c, 5, 54, 68
7, 21072, Note_on_c, 5, 47, 68
7, 21120, Note_on_c, 5, 47, 0
7, 21120, Note_on_c, 5, 54, 0
7, 21120, Note_on_c, 5, 51, 0
7, 21120, Note_on_c, 5, 51, 87
7, 21120, Note_on_c, 5, 47, 87
7, 21120, Note_on_c, 5, 54, 87
7, 21168, Note_on_c, 5, 54, 0
7, 21168, Note_on_c, 5, 47, 0
7, 21168, Note_on_c, 5, 51, 0
7, 21168, Note_on_c, 5, 51, 65
7, 21168, Note_on_c, 5, 47, 65
7, 21168, Note_on_c, 5, 54, 65
7, 21216, Note_on_c, 5, 54, 0
7, 21216, Note_on_c, 5, 47, 0
7, 21216, Note_on_c, 5, 51, 0
7, 21216, Note_on_c, 5, 51, 87
7, 21216, Note_on_c, 5, 54, 87
7, 21216, Note_on_c, 5, 47, 87
7, 21264, Note_on_c, 5, 47, 0
7, 21264, Note_on_c, 5, 54, 0
7, 21264, Note_on_c, 5, 51, 0
7, 21264, Note_on_c, 5, 51, 68
7, 21264, Note_on_c, 5, 47, 68
7, 21264, Note_on_c, 5, 54, 68
7, 21312, Note_on_c, 5, 54, 0
7, 21312, Note_on_c, 5, 47, 0
7, 21312, Note_on_c, 5, 51, 0
7, 21312, Note_on_c, 5, 51, 87
7, 21312, Note_on_c, 5, 47, 87
7, 21312, Note_on_c, 5, 54, 87
7, 21360, Note_on_c, 5, 54, 0
7, 21360, Note_on_c, 5, 47, 0
7, 21360, Note_on_c, 5, 51, 0
7, 21360, Note_on_c, 5, 51, 67
7, 21360, Note_on_c, 5, 54, 67
7, 21360, Note_on_c, 5, 47, 67
7, 21408, Note_on_c, 5, 47, 0
7, 21408, Note_on_c, 5, 54, 0
7, 21408, Note_on_c, 5, 51, 0
7, 21408, Note_on_c, 5, 51, 86
7, 21408, Note_on_c, 5, 47, 86
7, 21408, Note_on_c, 5, 54, 86
7, 21456, Note_on_c, 5, 54, 0
7, 21456, Note_on_c, 5, 47, 0
7, 21456, Note_on_c, 5, 51, 0
7, 21456, Note_on_c, 5, 51, 66
7, 21456, Note_on_c, 5, 54, 66
7, 21456, Note_on_c, 5, 47, 66
7, 21504, Note_on_c, 5, 47, 0
7, 21504, Note_on_c, 5, 54, 0
7, 21504, Note_on_c, 5, 51, 0
7, 21504, Note_on_c, 5, 52, 85
7, 21504, Note_on_c, 5, 47, 85
7, 21552, Note_on_c, 5, 47, 0
7, 21552, Note_on_c, 5, 52, 0
7, 21552, Note_on_c, 5, 47, 63
7, 21552, Note_on_c, 5, 52, 63
7, 21600, Note_on_c, 5, 52, 0
7, 21600, Note_on_c, 5, 47, 0
7, 21600, Note_on_c, 5, 52, 85
7, 21600, Note_on_c, 5, 47, 85
7, 21648, Note_on_c, 5, 47, 0
7, 21648, Note_on_c, 5, 52, 0
7, 21648, Note_on_c, 5, 47, 64
7, 21648, Note_on_c, 5, 52, 64
7, 21696, Note_on_c, 5, 52, 0
7, 21696, Note_on_c, 5, 47, 0
7, 21696, Note_on_c, 5, 47, 85
7, 21696, Note_on_c, 5, 52, 85
7, 21744, Note_on_c, 5, 52, 0
7, 21744, Note_on_c, 5, 47, 0
7, 21744, Note_on_c, 5, 52, 63
7, 21744, Note_on_c, 5, 47, 63
7, 21792, Note_on_c, 5, 47, 0
7, 21792, Note_on_c, 5, 52, 0
7, 21792, Note_on_c, 5, 47, 85
7, 21792, Note_on_c, 5, 52, 85
7, 21840, Note_on_c, 5, 52, 0
7, 21840, Note_on_c, 5, 47, 0
7, 21840, Note_on_c, 5, 52, 63
7, 21840, Note_on_c, 5, 47, 63
7, 21888, Note_on_c, 5, 47, 0
7, 21888, Note_on_c, 5, 52, 0
7, 21888, Note_on_c, 5, 52, 86
7, 21888, Note_on_c, 5, 47, 86
7, 21936, Note_on_c, 5, 47, 0
7, 21936, Note_on_c, 5, 52, 0
7, 21936, Note_on_c, 5, 47, 63
7, 21936, Note_on_c, 5, 52, 63
7, 21984, Note_on_c, 5, 52, 0
7, 21984, Note_on_c, 5, 47, 0
7, 21984, Note_on_c, 5, 52, 88
7, 21984, Note_on_c, 5, 47, 88
7, 22032, Note_on_c, 5, 47, 0
7, 22032, Note_on_c, 5, 52, 0
7, 22032, Note_on_c, 5, 47, 63
7, 22032, Note_on_c, 5, 52, 63
7, 22080, Note_on_c, 5, 52, 0
7, 22080, Note_on_c, 5, 47, 0
7, 22080, Note_on_c, 5, 47, 89
7, 22080, Note_on_c, 5, 52, 89
7, 22128, Note_on_c, 5, 52, 0
7, 22128, Note_on_c, 5, 47, 0
7, 22128, Note_on_c, 5, 52, 64
7, 22128, Note_on_c, 5, 47, 64
7, 22176, Note_on_c, 5, 47, 0
7, 22176, Note_on_c, 5, 52, 0
7, 22176, Note_on_c, 5, 47, 62
7, 22176, Note_on_c, 5, 52, 62
7, 22224, Note_on_c, 5, 52, 0
7, 22224, Note_on_c, 5, 47, 0
7, 22224, Note_on_c, 5, 52, 89
7, 22224, Note_on_c, 5, 47, 89
7, 22272, Note_on_c, 5, 47, 0
7, 22272, Note_on_c, 5, 52, 0
7, 34944, Note_on_c, 5, 52, 86
7, 34944, Note_on_c, 5, 45, 86
7, 34992, Note_on_c, 5, 45, 0
7, 34992, Note_on_c, 5, 52, 0
7, 34992, Note_on_c, 5, 45, 89
7, 34992, Note_on_c, 5, 52, 89
7, 35040, Note_on_c, 5, 52, 0
7, 35040, Note_on_c, 5, 45, 0
7, 35040, Note_on_c, 5, 52, 92
7, 35040, Note_on_c, 5, 45, 92
7, 35088, Note_on_c, 5, 45, 0
7, 35088, Note_on_c, 5, 52, 0
7, 35088, Note_on_c, 5, 45, 95
7, 35088, Note_on_c, 5, 52, 95
7, 35136, Note_on_c, 5, 52, 0
7, 35136, Note_on_c, 5, 45, 0
7, 35136, Note_on_c, 5, 45, 98
7, 35136, Note_on_c, 5, 52, 98
7, 35184, Note_on_c, 5, 52, 0
7, 35184, Note_on_c, 5, 45, 0
7, 35184, Note_on_c, 5, 52, 101
7, 35184, Note_on_c, 5, 45, 101
7, 35232, Note_on_c, 5, 45, 0
7, 35232, Note_on_c, 5, 52, 0
7, 35232, Note_on_c, 5, 45, 104
7, 35232, Note_on_c, 5, 52, 104
7, 35280, Note_on_c, 5, 52, 0
7, 35280, Note_on_c, 5, 45, 0
7, 35280, Note_on_c, 5, 52, 106
7, 35280, Note_on_c, 5, 45, 106
7, 35328, Note_on_c, 5, 45, 0
7, 35328, Note_on_c, 5, 52, 0
7, 35328, Note_on_c, 5, 45, 109
7, 35328, Note_on_c, 5, 52, 109
7, 35376, Note_on_c, 5, 52, 0
7, 35376, Note_on_c, 5, 45, 0
7, 35376, Note_on_c, 5, 45, 112
7, 35376, Note_on_c, 5, 52, 112
7, 35424, Note_on_c, 5, 52, 0
7, 35424, Note_on_c, 5, 45, 0
7, 35424, Note_on_c, 5, 52, 115
7, 35424, Note_on_c, 5, 45, 115
7, 35472, Note_on_c, 5, 45, 0
7, 35472, Note_on_c, 5, 52, 0
7, 35472, Note_on_c, 5, 45, 118
7, 35472, Note_on_c, 5, 52, 118
7, 35520, Note_on_c, 5, 52, 0
7, 35520, Note_on_c, 5, 45, 0
7, 35520, Note_on_c, 5, 45, 121
7, 35520, Note_on_c, 5, 52, 121
7, 35568, Note_on_c, 5, 52, 0
7, 35568, Note_on_c, 5, 45, 0
7, 35568, Note_on_c, 5, 52, 124
7, 35568, Note_on_c, 5, 45, 124
7, 35616, Note_on_c, 5, 45, 0
7, 35616, Note_on_c, 5, 52, 0
7, 35616, Note_on_c, 5, 45, 127
7, 35616, Note_on_c, 5, 52, 127
7, 35664, Note_on_c, 5, 52, 0
7, 35664, Note_on_c, 5, 45, 0
7, 35664, Note_on_c, 5, 52, 127
7, 35664, Note_on_c, 5, 45, 127
7, 35712, Note_on_c, 5, 45, 0
7, 35712, Note_on_c, 5, 52, 0
7, 35712, Note_on_c, 5, 52, 127
7, 35712, Note_on_c, 5, 47, 127
7, 35760, Note_on_c, 5, 47, 0
7, 35760, Note_on_c, 5, 52, 0
7, 35760, Note_on_c, 5, 40, 126
7, 35772, Note_on_c, 5, 47, 127
7, 35782, Note_on_c, 5, 52, 127
7, 35792, Note_on_c, 5, 56, 127
7, 35800, Note_on_c, 5, 59, 127
7, 35808, Note_on_c, 5, 64, 127
7, 36400, Note_on_c, 5, 56, 0
7, 36420, Note_on_c, 5, 52, 0
7, 36420, Note_on_c, 5, 40, 0
7, 36430, Note_on_c, 5, 47, 0
7, 36438, Note_on_c, 5, 64, 0
7, 36458, Note_on_c, 5, 59, 0
7, 36480, Note_on_c, 5, 52, 86
7, 36480, Note_on_c, 5, 45, 86
7, 36528, Note_on_c, 5, 45, 0
7, 36528, Note_on_c, 5, 52, 0
7, 36528, Note_on_c, 5, 45, 89
7, 36528, Note_on_c, 5, 52, 89
7, 36576, Note_on_c, 5, 52, 0
7, 36576, Note_on_c, 5, 45, 0
7, 36576, Note_on_c, 5, 52, 92
7, 36576, Note_on_c, 5, 45, 92
7, 36624, Note_on_c, 5, 45, 0
7, 36624, Note_on_c, 5, 52, 0
7, 36624, Note_on_c, 5, 45, 95
7, 36624, Note_on_c, 5, 52, 95
7, 36672, Note_on_c, 5, 52, 0
7, 36672, Note_on_c, 5, 45, 0
7, 36672, Note_on_c, 5, 45, 98
7, 36672, Note_on_c, 5, 52, 98
7, 36720, Note_on_c, 5, 52, 0
7, 36720, Note_on_c, 5, 45, 0
7, 36720, Note_on_c, 5, 52, 101
7, 36720, Note_on_c, 5, 45, 101
7, 36768, Note_on_c, 5, 45, 0
7, 36768, Note_on_c, 5, 52, 0
7, 36768, Note_on_c, 5, 45, 104
7, 36768, Note_on_c, 5, 52, 104
7, 36816, Note_on_c, 5, 52, 0
7, 36816, Note_on_c, 5, 45, 0
7, 36816, Note_on_c, 5, 52, 106
7, 36816, Note_on_c, 5, 45, 106
7, 36864, Note_on_c, 5, 45, 0
7, 36864, Note_on_c, 5, 52, 0
7, 36864, Note_on_c, 5, 45, 109
7, 36864, Note_on_c, 5, 52, 109
7, 36912, Note_on_c, 5, 52, 0
7, 36912, Note_on_c, 5, 45, 0
7, 36912, Note_on_c, 5, 45, 112
7, 36912, Note_on_c, 5, 52, 112
7, 36960, Note_on_c, 5, 52, 0
7, 36960, Note_on_c, 5, 45, 0
7, 36960, Note_on_c, 5, 52, 115
7, 36960, Note_on_c, 5, 45, 115
7, 37008, Note_on_c, 5, 45, 0
7, 37008, Note_on_c, 5, 52, 0
7, 37008, Note_on_c, 5, 45, 118
7, 37008, Note_on_c, 5, 52, 118
7, 37056, Note_on_c, 5, 52, 0
7, 37056, Note_on_c, 5, 45, 0
7, 37056, Note_on_c, 5, 45, 121
7, 37056, Note_on_c, 5, 52, 121
7, 37104, Note_on_c, 5, 52, 0
7, 37104, Note_on_c, 5, 45, 0
7, 37104, Note_on_c, 5, 52, 124
7, 37104, Note_on_c, 5, 45, 124
7, 37152, Note_on_c, 5, 45, 0
7, 37152, Note_on_c, 5, 52, 0
7, 37152, Note_on_c, 5, 45, 127
7, 37152, Note_on_c, 5, 52, 127
7, 37200, Note_on_c, 5, 52, 0
7, 37200, Note_on_c, 5, 45, 0
7, 37200, Note_on_c, 5, 52, 127
7, 37200, Note_on_c, 5, 45, 127
7, 37248, Note_on_c, 5, 45, 0
7, 37248, Note_on_c, 5, 52, 0
7, 37248, Note_on_c, 5, 40, 127
7, 37248, Note_on_c, 5, 52, 127
7, 37248, Note_on_c, 5, 47, 127
7, 37320, Note_on_c, 5, 47, 0
7, 37320, Note_on_c, 5, 52, 0
7, 37320, Note_on_c, 5, 40, 0
7, 37632, Note_on_c, 5, 54, 86
7, 37632, Note_on_c, 5, 47, 86
7, 37633, Note_on_c, 5, 51, 86
7, 37680, Note_on_c, 5, 47, 0
7, 37680, Note_on_c, 5, 54, 0
7, 37680, Note_on_c, 5, 47, 63
7, 37680, Note_on_c, 5, 54, 63
7, 37680, Note_on_c, 5, 51, 63
7, 37681, Note_on_c, 5, 51, 0
7, 37728, Note_on_c, 5, 47, 0
7, 37728, Note_on_c, 5, 54, 0
7, 37728, Note_on_c, 5, 51, 0
7, 37728, Note_on_c, 5, 51, 86
7, 37728, Note_on_c, 5, 54, 86
7, 37728, Note_on_c, 5, 47, 86
7, 37776, Note_on_c, 5, 47, 0
7, 37776, Note_on_c, 5, 54, 0
7, 37776, Note_on_c, 5, 51, 0
7, 37776, Note_on_c, 5, 51, 66
7, 37776, Note_on_c, 5, 47, 66
7, 37776, Note_on_c, 5, 54, 66
7, 37824, Note_on_c, 5, 54, 0
7, 37824, Note_on_c, 5, 47, 0
7, 37824, Note_on_c, 5, 51, 0
7, 37824, Note_on_c, 5, 51, 86
7, 37824, Note_on_c, 5, 47, 86
7, 37824, Note_on_c, 5, 54, 86
7, 37872, Note_on_c, 5, 54, 0
7, 37872, Note_on_c, 5, 47, 0
7, 37872, Note_on_c, 5, 51, 0
7, 37872, Note_on_c, 5, 51, 70
7, 37872, Note_on_c, 5, 54, 70
7, 37872, Note_on_c, 5, 47, 70
7, 37920, Note_on_c, 5, 47, 0
7, 37920, Note_on_c, 5, 54, 0
7, 37920, Note_on_c, 5, 51, 0
7, 37920, Note_on_c, 5, 51, 87
7, 37920, Note_on_c, 5, 47, 87
7, 37920, Note_on_c, 5, 54, 87
7, 37968, Note_on_c, 5, 54, 0
7, 37968, Note_on_c, 5, 47, 0
7, 37968, Note_on_c, 5, 51, 0
7, 37968, Note_on_c, 5, 51, 68
7, 37968, Note_on_c, 5, 54, 68
7, 37968, Note_on_c, 5, 47, 68
7, 38016, Note_on_c, 5, 47, 0
7, 38016, Note_on_c, 5, 54, 0
7, 38016, Note_on_c, 5, 51, 0
7, 38016, Note_on_c, 5, 54, 86
7, 38016, Note_on_c, 5, 47, 86
7, 38017, Note_on_c, 5, 51, 86
7, 38064, Note_on_c, 5, 47, 0
7, 38064, Note_on_c, 5, 54, 0
7, 38064, Note_on_c, 5, 47, 63
7, 38064, Note_on_c, 5, 54, 63
7, 38064, Note_on_c, 5, 51, 63
7, 38065, Note_on_c, 5, 51, 0
7, 38112, Note_on_c, 5, 47, 0
7, 38112, Note_on_c, 5, 54, 0
7, 38112, Note_on_c, 5, 51, 0
7, 38112, Note_on_c, 5, 51, 86
7, 38112, Note_on_c, 5, 54, 86
7, 38112, Note_on_c, 5, 47, 86
7, 38160, Note_on_c, 5, 47, 0
7, 38160, Note_on_c, 5, 54, 0
7, 38160, Note_on_c, 5, 51, 0
7, 38160, Note_on_c, 5, 51, 66
7, 38160, Note_on_c, 5, 47, 66
7, 38160, Note_on_c, 5, 54, 66
7, 38208, Note_on_c, 5, 54, 0
7, 38208, Note_on_c, 5, 47, 0
7, 38208, Note_on_c, 5, 51, 0
7, 38208, Note_on_c, 5, 51, 86
7, 38208, Note_on_c, 5, 47, 86
7, 38208, Note_on_c, 5, 54, 86
7, 38256, Note_on_c, 5, 54, 0
7, 38256, Note_on_c, 5, 47, 0
7, 38256, Note_on_c, 5, 51, 0
7, 38256, Note_on_c, 5, 51, 70
7, 38256, Note_on_c, 5, 54, 70
7, 38256, Note_on_c, 5, 47, 70
7, 38304, Note_on_c, 5, 47, 0
7, 38304, Note_on_c, 5, 54, 0
7, 38304, Note_on_c, 5, 51, 0
7, 38304, Note_on_c, 5, 51, 87
7, 38304, Note_on_c, 5, 47, 87
7, 38304, Note_on_c, 5, 54, 87
7, 38352, Note_on_c, 5, 54, 0
7, 38352, Note_on_c, 5, 47, 0
7, 38352, Note_on_c, 5, 51, 0
7, 38352, Note_on_c, 5, 51, 68
7, 38352, Note_on_c, 5, 54, 68
7, 38352, Note_on_c, 5, 47, 68
7, 38400, Note_on_c, 5, 47, 0
7, 38400, Note_on_c, 5, 54, 0
7, 38400, Note_on_c, 5, 51, 0
7, 38400, Note_on_c, 5, 51, 87
7, 38400, Note_on_c, 5, 47, 87
7, 38400, Note_on_c, 5, 54, 87
7, 38448, Note_on_c, 5, 54, 0
7, 38448, Note_on_c, 5, 47, 0
7, 38448, Note_on_c, 5, 51, 0
7, 38784, Note_on_c, 5, 52, 85
7, 38784, Note_on_c, 5, 47, 85
7, 38832, Note_on_c, 5, 47, 0
7, 38832, Note_on_c, 5, 52, 0
7, 38832, Note_on_c, 5, 47, 63
7, 38832, Note_on_c, 5, 52, 63
7, 38880, Note_on_c, 5, 52, 0
7, 38880, Note_on_c, 5, 47, 0
7, 38880, Note_on_c, 5, 52, 85
7, 38880, Note_on_c, 5, 47, 85
7, 38928, Note_on_c, 5, 47, 0
7, 38928, Note_on_c, 5, 52, 0
7, 38928, Note_on_c, 5, 47, 64
7, 38928, Note_on_c, 5, 52, 64
7, 38976, Note_on_c, 5, 52, 0
7, 38976, Note_on_c, 5, 47, 0
7, 38976, Note_on_c, 5, 47, 85
7, 38976, Note_on_c, 5, 52, 85
7, 39024, Note_on_c, 5, 52, 0
7, 39024, Note_on_c, 5, 47, 0
7, 39024, Note_on_c, 5, 52, 63
7, 39024, Note_on_c, 5, 47, 63
7, 39072, Note_on_c, 5, 47, 0
7, 39072, Note_on_c, 5, 52, 0
7, 39072, Note_on_c, 5, 47, 85
7, 39072, Note_on_c, 5, 52, 85
7, 39120, Note_on_c, 5, 52, 0
7, 39120, Note_on_c, 5, 47, 0
7, 39120, Note_on_c, 5, 52, 63
7, 39120, Note_on_c, 5, 47, 63
7, 39168, Note_on_c, 5, 47, 0
7, 39168, Note_on_c, 5, 52, 0
7, 39168, Note_on_c, 5, 52, 85
7, 39168, Note_on_c, 5, 47, 85
7, 39216, Note_on_c, 5, 47, 0
7, 39216, Note_on_c, 5, 52, 0
7, 39216, Note_on_c, 5, 47, 63
7, 39216, Note_on_c, 5, 52, 63
7, 39264, Note_on_c, 5, 52, 0
7, 39264, Note_on_c, 5, 47, 0
7, 39264, Note_on_c, 5, 52, 85
7, 39264, Note_on_c, 5, 47, 85
7, 39312, Note_on_c, 5, 47, 0
7, 39312, Note_on_c, 5, 52, 0
7, 39312, Note_on_c, 5, 47, 64
7, 39312, Note_on_c, 5, 52, 64
7, 39360, Note_on_c, 5, 52, 0
7, 39360, Note_on_c, 5, 47, 0
7, 39360, Note_on_c, 5, 47, 85
7, 39360, Note_on_c, 5, 52, 85
7, 39408, Note_on_c, 5, 52, 0
7, 39408, Note_on_c, 5, 47, 0
7, 39408, Note_on_c, 5, 52, 63
7, 39408, Note_on_c, 5, 47, 63
7, 39456, Note_on_c, 5, 47, 0
7, 39456, Note_on_c, 5, 52, 0
7, 39456, Note_on_c, 5, 47, 85
7, 39456, Note_on_c, 5, 52, 85
7, 39504, Note_on_c, 5, 52, 0
7, 39504, Note_on_c, 5, 47, 0
7, 39504, Note_on_c, 5, 52, 63
7, 39504, Note_on_c, 5, 47, 63
7, 39552, Note_on_c, 5, 47, 0
7, 39552, Note_on_c, 5, 52, 0
7, 39552, Note_on_c, 5, 52, 85
7, 39552, Note_on_c, 5, 47, 85
7, 39600, Note_on_c, 5, 47, 0
7, 39600, Note_on_c, 5, 52, 0
7, 39600, Note_on_c, 5, 47, 63
7, 39600, Note_on_c, 5, 52, 63
7, 39648, Note_on_c, 5, 52, 0
7, 39648, Note_on_c, 5, 47, 0
7, 39648, Note_on_c, 5, 52, 85
7, 39648, Note_on_c, 5, 47, 85
7, 39696, Note_on_c, 5, 47, 0
7, 39696, Note_on_c, 5, 52, 0
7, 39696, Note_on_c, 5, 47, 64
7, 39696, Note_on_c, 5, 52, 64
7, 39744, Note_on_c, 5, 52, 0
7, 39744, Note_on_c, 5, 47, 0
7, 39744, Note_on_c, 5, 47, 85
7, 39744, Note_on_c, 5, 52, 85
7, 39792, Note_on_c, 5, 52, 0
7, 39792, Note_on_c, 5, 47, 0
7, 39792, Note_on_c, 5, 52, 63
7, 39792, Note_on_c, 5, 47, 63
7, 39840, Note_on_c, 5, 47, 0
7, 39840, Note_on_c, 5, 52, 0
7, 39840, Note_on_c, 5, 47, 85
7, 39840, Note_on_c, 5, 52, 85
7, 39888, Note_on_c, 5, 52, 0
7, 39888, Note_on_c, 5, 47, 0
7, 39888, Note_on_c, 5, 52, 63
7, 39888, Note_on_c, 5, 47, 63
7, 39936, Note_on_c, 5, 47, 0
7, 39936, Note_on_c, 5, 52, 0
7, 39936, Note_on_c, 5, 52, 86
7, 39936, Note_on_c, 5, 47, 86
7, 39984, Note_on_c, 5, 47, 0
7, 39984, Note_on_c, 5, 52, 0
7, 39984, Note_on_c, 5, 47, 63
7, 39984, Note_on_c, 5, 52, 63
7, 40032, Note_on_c, 5, 52, 0
7, 40032, Note_on_c, 5, 47, 0
7, 40032, Note_on_c, 5, 52, 88
7, 40032, Note_on_c, 5, 47, 88
7, 40080, Note_on_c, 5, 47, 0
7, 40080, Note_on_c, 5, 52, 0
7, 40080, Note_on_c, 5, 47, 63
7, 40080, Note_on_c, 5, 52, 63
7, 40128, Note_on_c, 5, 52, 0
7, 40128, Note_on_c, 5, 47, 0
7, 40128, Note_on_c, 5, 47, 89
7, 40128, Note_on_c, 5, 52, 89
7, 40176, Note_on_c, 5, 52, 0
7, 40176, Note_on_c, 5, 47, 0
7, 40176, Note_on_c, 5, 52, 64
7, 40176, Note_on_c, 5, 47, 64
7, 40224, Note_on_c, 5, 47, 0
7, 40224, Note_on_c, 5, 52, 0
7, 40224, Note_on_c, 5, 47, 62
7, 40224, Note_on_c, 5, 52, 62
7, 40272, Note_on_c, 5, 52, 0
7, 40272, Note_on_c, 5, 47, 0
7, 40272, Note_on_c, 5, 52, 89
7, 40272, Note_on_c, 5, 47, 89
7, 40320, Note_on_c, 5, 47, 0
7, 40320, Note_on_c, 5, 52, 0
7, 40320, Note_on_c, 5, 52, 86
7, 40368, Note_on_c, 5, 56, 86
7, 40416, Note_on_c, 5, 52, 0
7, 40416, Note_on_c, 5, 59, 86
7, 40464, Note_on_c, 5, 56, 0
7, 40464, Note_on_c, 5, 56, 86
7, 40512, Note_on_c, 5, 56, 0
7, 40512, Note_on_c, 5, 59, 0
7, 40512, Note_on_c, 5, 57, 86
7, 40560, Note_on_c, 5, 57, 0
7, 40560, Note_on_c, 5, 59, 86
7, 40608, Note_on_c, 5, 56, 86
7, 40656, Note_on_c, 5, 59, 0
7, 40656, Note_on_c, 5, 52, 86
7, 40704, Note_on_c, 5, 56, 0
7, 40704, Note_on_c, 5, 64, 86
7, 40728, Note_on_c, 5, 52, 0
7, 40752, Note_on_c, 5, 52, 86
7, 40800, Note_on_c, 5, 64, 0
7, 40800, Note_on_c, 5, 59, 86
7, 40848, Note_on_c, 5, 52, 0
7, 40896, Note_on_c, 5, 59, 0
7, 40896, Note_on_c, 5, 64, 86
7, 40944, Note_on_c, 5, 52, 86
7, 40992, Note_on_c, 5, 64, 0
7, 40992, Note_on_c, 5, 59, 86
7, 41040, Note_on_c, 5, 52, 0
7, 41088, Note_on_c, 5, 59, 0
7, 41088, Note_on_c, 5, 52, 86
7, 41136, Note_on_c, 5, 56, 86
7, 41184, Note_on_c, 5, 52, 0
7, 41184, Note_on_c, 5, 59, 86
7, 41232, Note_on_c, 5, 56, 0
7, 41232, Note_on_c, 5, 56, 86
7, 41280, Note_on_c, 5, 56, 0
7, 41280, Note_on_c, 5, 59, 0
7, 41280, Note_on_c, 5, 57, 86
7, 41328, Note_on_c, 5, 57, 0
7, 41328, Note_on_c, 5, 59, 86
7, 41376, Note_on_c, 5, 56, 86
7, 41424, Note_on_c, 5, 59, 0
7, 41424, Note_on_c, 5, 52, 86
7, 41472, Note_on_c, 5, 56, 0
7, 41472, Note_on_c, 5, 64, 86
7, 41496, Note_on_c, 5, 52, 0
7, 41520, Note_on_c, 5, 52, 86
7, 41568, Note_on_c, 5, 64, 0
7, 41568, Note_on_c, 5, 59, 86
7, 41616, Note_on_c, 5, 52, 0
7, 41664, Note_on_c, 5, 59, 0
7, 41664, Note_on_c, 5, 64, 86
7, 41712, Note_on_c, 5, 52, 86
7, 41760, Note_on_c, 5, 64, 0
7, 41760, Note_on_c, 5, 59, 86
7, 41808, Note_on_c, 5, 52, 0
7, 41856, Note_on_c, 5, 59, 0
7, 41856, Note_on_c, 5, 52, 86
7, 41904, Note_on_c, 5, 56, 86
7, 41952, Note_on_c, 5, 52, 0
7, 41952, Note_on_c, 5, 59, 86
7, 42000, Note_on_c, 5, 56, 0
7, 42000, Note_on_c, 5, 56, 86
7, 42048, Note_on_c, 5, 56, 0
7, 42048, Note_on_c, 5, 59, 0
7, 42048, Note_on_c, 5, 57, 86
7, 42096, Note_on_c, 5, 57, 0
7, 42096, Note_on_c, 5, 59, 86
7, 42144, Note_on_c, 5, 56, 86
7, 42192, Note_on_c, 5, 59, 0
7, 42192, Note_on_c, 5, 52, 86
7, 42240, Note_on_c, 5, 56, 0
7, 42240, Note_on_c, 5, 64, 86
7, 42264, Note_on_c, 5, 52, 0
7, 42288, Note_on_c, 5, 52, 86
7, 42336, Note_on_c, 5, 64, 0
7, 42336, Note_on_c, 5, 59, 86
7, 42384, Note_on_c, 5, 52, 0
7, 42432, Note_on_c, 5, 59, 0
7, 42432, Note_on_c, 5, 64, 86
7, 42480, Note_on_c, 5, 52, 86
7, 42528, Note_on_c, 5, 64, 0
7, 42528, Note_on_c, 5, 59, 86
7, 42576, Note_on_c, 5, 52, 0
7, 42624, Note_on_c, 5, 59, 0
7, 42624, Note_on_c, 5, 52, 86
7, 42672, Note_on_c, 5, 56, 86
7, 42720, Note_on_c, 5, 52, 0
7, 42720, Note_on_c, 5, 59, 86
7, 42768, Note_on_c, 5, 56, 0
7, 42768, Note_on_c, 5, 56, 86
7, 42816, Note_on_c, 5, 56, 0
7, 42816, Note_on_c, 5, 59, 0
7, 42816, Note_on_c, 5, 57, 86
7, 42864, Note_on_c, 5, 57, 0
7, 42864, Note_on_c, 5, 59, 86
7, 42912, Note_on_c, 5, 56, 86
7, 42960, Note_on_c, 5, 59, 0
7, 42960, Note_on_c, 5, 52, 86
7, 43008, Note_on_c, 5, 56, 0
7, 43008, Note_on_c, 5, 64, 86
7, 43032, Note_on_c, 5, 52, 0
7, 43056, Note_on_c, 5, 52, 86
7, 43104, Note_on_c, 5, 64, 0
7, 43104, Note_on_c, 5, 59, 86
7, 43152, Note_on_c, 5, 52, 0
7, 43200, Note_on_c, 5, 59, 0
7, 43200, Note_on_c, 5, 64, 86
7, 43248, Note_on_c, 5, 52, 86
7, 43296, Note_on_c, 5, 64, 0
7, 43296, Note_on_c, 5, 59, 86
7, 43344, Note_on_c, 5, 52, 0
7, 43392, Note_on_c, 5, 59, 0
7, 43392, Note_on_c, 5, 52, 86
7, 43440, Note_on_c, 5, 56, 86
7, 43488, Note_on_c, 5, 52, 0
7, 43488, Note_on_c, 5, 59, 86
7, 43536, Note_on_c, 5, 56, 0
7, 43536, Note_on_c, 5, 56, 86
7, 43584, Note_on_c, 5, 56, 0
7, 43584, Note_on_c, 5, 59, 0
7, 43584, Note_on_c, 5, 57, 86
7, 43632, Note_on_c, 5, 57, 0
7, 43632, Note_on_c, 5, 59, 86
7, 43680, Note_on_c, 5, 56, 86
7, 43728, Note_on_c, 5, 59, 0
7, 43728, Note_on_c, 5, 52, 86
7, 43776, Note_on_c, 5, 56, 0
7, 43776, Note_on_c, 5, 64, 86
7, 43800, Note_on_c, 5, 52, 0
7, 43824, Note_on_c, 5, 52, 86
7, 43872, Note_on_c, 5, 64, 0
7, 43872, Note_on_c, 5, 59, 86
7, 43920, Note_on_c, 5, 52, 0
7, 43968, Note_on_c, 5, 59, 0
7, 43968, Note_on_c, 5, 64, 86
7, 44016, Note_on_c, 5, 52, 86
7, 44064, Note_on_c, 5, 64, 0
7, 44064, Note_on_c, 5, 59, 86
7, 44112, Note_on_c, 5, 52, 0
7, 44160, Note_on_c, 5, 59, 0
7, 44160, Note_on_c, 5, 52, 86
7, 44208, Note_on_c, 5, 56, 86
7, 44256, Note_on_c, 5, 52, 0
7, 44256, Note_on_c, 5, 59, 86
7, 44304, Note_on_c, 5, 56, 0
7, 44304, Note_on_c, 5, 56, 86
7, 44352, Note_on_c, 5, 56, 0
7, 44352, Note_on_c, 5, 59, 0
7, 44352, Note_on_c, 5, 57, 86
7, 44400, Note_on_c, 5, 57, 0
7, 44400, Note_on_c, 5, 59, 86
7, 44448, Note_on_c, 5, 56, 86
7, 44496, Note_on_c, 5, 59, 0
7, 44496, Note_on_c, 5, 52, 86
7, 44544, Note_on_c, 5, 56, 0
7, 44544, Note_on_c, 5, 64, 86
7, 44568, Note_on_c, 5, 52, 0
7, 44592, Note_on_c, 5, 52, 86
7, 44640, Note_on_c, 5, 64, 0
7, 44640, Note_on_c, 5, 59, 86
7, 44688, Note_on_c, 5, 52, 0
7, 44736, Note_on_c, 5, 59, 0
7, 44736, Note_on_c, 5, 64, 86
7, 44784, Note_on_c, 5, 52, 86
7, 44832, Note_on_c, 5, 64, 0
7, 44832, Note_on_c, 5, 59, 86
7, 44880, Note_on_c, 5, 52, 0
7, 44928, Note_on_c, 5, 59, 0
7, 44928, Note_on_c, 5, 52, 86
7, 44976, Note_on_c, 5, 56, 86
7, 45024, Note_on_c, 5, 52, 0
7, 45024, Note_on_c, 5, 59, 86
7, 45072, Note_on_c, 5, 56, 0
7, 45072, Note_on_c, 5, 56, 86
7, 45120, Note_on_c, 5, 56, 0
7, 45120, Note_on_c, 5, 59, 0
7, 45120, Note_on_c, 5, 57, 86
7, 45168, Note_on_c, 5, 57, 0
7, 45168, Note_on_c, 5, 59, 86
7, 45216, Note_on_c, 5, 56, 86
7, 45264, Note_on_c, 5, 59, 0
7, 45264, Note_on_c, 5, 52, 86
7, 45312, Note_on_c, 5, 56, 0
7, 45312, Note_on_c, 5, 64, 86
7, 45336, Note_on_c, 5, 52, 0
7, 45360, Note_on_c, 5, 52, 86
7, 45408, Note_on_c, 5, 64, 0
7, 45408, Note_on_c, 5, 59, 86
7, 45456, Note_on_c, 5, 52, 0
7, 45504, Note_on_c, 5, 59, 0
7, 45504, Note_on_c, 5, 64, 86
7, 45552, Note_on_c, 5, 52, 86
7, 45600, Note_on_c, 5, 64, 0
7, 45600, Note_on_c, 5, 59, 86
7, 45648, Note_on_c, 5, 52, 0
7, 45696, Note_on_c, 5, 59, 0
7, 45696, Note_on_c, 5, 52, 86
7, 45744, Note_on_c, 5, 56, 86
7, 45792, Note_on_c, 5, 52, 0
7, 45792, Note_on_c, 5, 59, 86
7, 45840, Note_on_c, 5, 56, 0
7, 45840, Note_on_c, 5, 56, 86
7, 45888, Note_on_c, 5, 56, 0
7, 45888, Note_on_c, 5, 59, 0
7, 45888, Note_on_c, 5, 57, 86
7, 45936, Note_on_c, 5, 57, 0
7, 45936, Note_on_c, 5, 59, 86
7, 45984, Note_on_c, 5, 56, 86
7, 46032, Note_on_c, 5, 59, 0
7, 46032, Note_on_c, 5, 52, 86
7, 46080, Note_on_c, 5, 56, 0
7, 46080, Note_on_c, 5, 64, 86
7, 46104, Note_on_c, 5, 52, 0
7, 46128, Note_on_c, 5, 52, 86
7, 46176, Note_on_c, 5, 64, 0
7, 46176, Note_on_c, 5, 59, 86
7, 46224, Note_on_c, 5, 52, 0
7, 46272, Note_on_c, 5, 59, 0
7, 46272, Note_on_c, 5, 64, 86
7, 46320, Note_on_c, 5, 52, 86
7, 46368, Note_on_c, 5, 64, 0
7, 46368, Note_on_c, 5, 59, 86
7, 46416, Note_on_c, 5, 52, 0
7, 46464, Note_on_c, 5, 59, 0
7, 46464, Note_on_c, 5, 52, 86
7, 46512, Note_on_c, 5, 56, 86
7, 46560, Note_on_c, 5, 52, 0
7, 46560, Note_on_c, 5, 59, 86
7, 46608, Note_on_c, 5, 56, 0
7, 46608, Note_on_c, 5, 56, 86
7, 46656, Note_on_c, 5, 56, 0
7, 46656, Note_on_c, 5, 59, 0
7, 46656, Note_on_c, 5, 57, 86
7, 46704, Note_on_c, 5, 57, 0
7, 46704, Note_on_c, 5, 59, 86
7, 46752, Note_on_c, 5, 56, 86
7, 46800, Note_on_c, 5, 59, 0
7, 46800, Note_on_c, 5, 52, 86
7, 46848, Note_on_c, 5, 56, 0
7, 46848, Note_on_c, 5, 64, 86
7, 46872, Note_on_c, 5, 52, 0
7, 46896, Note_on_c, 5, 52, 86
7, 46944, Note_on_c, 5, 64, 0
7, 46944, Note_on_c, 5, 59, 86
7, 46992, Note_on_c, 5, 52, 0
7, 47040, Note_on_c, 5, 59, 0
7, 47040, Note_on_c, 5, 64, 86
7, 47088, Note_on_c, 5, 52, 86
7, 47136, Note_on_c, 5, 64, 0
7, 47136, Note_on_c, 5, 59, 86
7, 47184, Note_on_c, 5, 52, 0
7, 47232, Note_on_c, 5, 59, 0
7, 47232, Note_on_c, 5, 52, 86
7, 47280, Note_on_c, 5, 56, 86
7, 47328, Note_on_c, 5, 52, 0
7, 47328, Note_on_c, 5, 59, 86
7, 47376, Note_on_c, 5, 56, 0
7, 47376, Note_on_c, 5, 56, 86
7, 47424, Note_on_c, 5, 56, 0
7, 47424, Note_on_c, 5, 59, 0
7, 47424, Note_on_c, 5, 57, 86
7, 47472, Note_on_c, 5, 57, 0
7, 47472, Note_on_c, 5, 59, 86
7, 47520, Note_on_c, 5, 56, 86
7, 47568, Note_on_c, 5, 59, 0
7, 47568, Note_on_c, 5, 52, 86
7, 47616, Note_on_c, 5, 56, 0
7, 47616, Note_on_c, 5, 64, 86
7, 47640, Note_on_c, 5, 52, 0
7, 47664, Note_on_c, 5, 52, 86
7, 47712, Note_on_c, 5, 64, 0
7, 47712, Note_on_c, 5, 59, 86
7, 47760, Note_on_c, 5, 52, 0
7, 47808, Note_on_c, 5, 59, 0
7, 47808, Note_on_c, 5, 64, 86
7, 47856, Note_on_c, 5, 52, 86
7, 47904, Note_on_c, 5, 64, 0
7, 47904, Note_on_c, 5, 59, 86
7, 47952, Note_on_c, 5, 52, 0
7, 48000, Note_on_c, 5, 59, 0
7, 48000, Note_on_c, 5, 52, 86
7, 48048, Note_on_c, 5, 56, 86
7, 48096, Note_on_c, 5, 52, 0
7, 48096, Note_on_c, 5, 59, 86
7, 48144, Note_on_c, 5, 56, 0
7, 48144, Note_on_c, 5, 56, 86
7, 48192, Note_on_c, 5, 56, 0
7, 48192, Note_on_c, 5, 59, 0
7, 48192, Note_on_c, 5, 57, 86
7, 48240, Note_on_c, 5, 57, 0
7, 48240, Note_on_c, 5, 59, 86
7, 48288, Note_on_c, 5, 56, 86
7, 48336, Note_on_c, 5, 59, 0
7, 48336, Note_on_c, 5, 52, 86
7, 48384, Note_on_c, 5, 56, 0
7, 48384, Note_on_c, 5, 64, 86
7, 48408, Note_on_c, 5, 52, 0
7, 48432, Note_on_c, 5, 52, 86
7, 48480, Note_on_c, 5, 64, 0
7, 48480, Note_on_c, 5, 59, 86
7, 48528, Note_on_c, 5, 52, 0
7, 48576, Note_on_c, 5, 59, 0
7, 48576, Note_on_c, 5, 64, 86
7, 48624, Note_on_c, 5, 52, 86
7, 48672, Note_on_c, 5, 64, 0
7, 48672, Note_on_c, 5, 59, 86
7, 48720, Note_on_c, 5, 52, 0
7, 48768, Note_on_c, 5, 59, 0
7, 48768, Note_on_c, 5, 52, 86
7, 48816, Note_on_c, 5, 56, 86
7, 48864, Note_on_c, 5, 52, 0
7, 48864, Note_on_c, 5, 59, 86
7, 48912, Note_on_c, 5, 56, 0
7, 48912, Note_on_c, 5, 56, 86
7, 48960, Note_on_c, 5, 56, 0
7, 48960, Note_on_c, 5, 59, 0
7, 48960, Note_on_c, 5, 57, 86
7, 49008, Note_on_c, 5, 57, 0
7, 49008, Note_on_c, 5, 59, 86
7, 49056, Note_on_c, 5, 56, 86
7, 49104, Note_on_c, 5, 59, 0
7, 49104, Note_on_c, 5, 52, 86
7, 49152, Note_on_c, 5, 56, 0
7, 49152, Note_on_c, 5, 64, 86
7, 49176, Note_on_c, 5, 52, 0
7, 49200, Note_on_c, 5, 52, 86
7, 49248, Note_on_c, 5, 64, 0
7, 49248, Note_on_c, 5, 59, 86
7, 49296, Note_on_c, 5, 59, 0
7, 49296, Note_on_c, 5, 52, 0
7, 49296, Note_on_c, 5, 47, 86
7, 49296, Note_on_c, 5, 52, 86
7, 49896, Note_on_c, 5, 52, 0
7, 49896, Note_on_c, 5, 47, 0
7, 49896, End_track
8, 0, Start_track
8, 0, MIDI_port, 0
8, 0, Title_t, "Muted Rhythm"
8, 0, Program_c, 6, 28
8, 0, Control_c, 6, 7, 93
8, 0, Control_c, 6, 10, 84
8, 1, Program_c, 6, 28
8, 2, Control_c, 6, 11, 120
8, 2, Control_c, 6, 7, 93
8, 4, Control_c, 6, 10, 80
8, 3456, Note_on_c, 6, 52, 127
8, 3456, Note_on_c, 6, 47, 127
8, 3504, Note_on_c, 6, 47, 0
8, 3504, Note_on_c, 6, 52, 0
8, 3504, Note_on_c, 6, 47, 98
8, 3504, Note_on_c, 6, 52, 98
8, 3552, Note_on_c, 6, 52, 0
8, 3552, Note_on_c, 6, 47, 0
8, 3552, Note_on_c, 6, 52, 127
8, 3552, Note_on_c, 6, 47, 127
8, 3600, Note_on_c, 6, 47, 0
8, 3600, Note_on_c, 6, 52, 0
8, 3600, Note_on_c, 6, 47, 98
8, 3600, Note_on_c, 6, 52, 98
8, 3648, Note_on_c, 6, 52, 0
8, 3648, Note_on_c, 6, 47, 0
8, 3648, Note_on_c, 6, 47, 127
8, 3648, Note_on_c, 6, 52, 127
8, 3696, Note_on_c, 6, 52, 0
8, 3696, Note_on_c, 6, 47, 0
8, 3696, Note_on_c, 6, 52, 100
8, 3696, Note_on_c, 6, 47, 100
8, 3744, Note_on_c, 6, 47, 0
8, 3744, Note_on_c, 6, 52, 0
8, 3744, Note_on_c, 6, 47, 127
8, 3744, Note_on_c, 6, 52, 127
8, 3792, Note_on_c, 6, 52, 0
8, 3792, Note_on_c, 6, 47, 0
8, 3792, Note_on_c, 6, 52, 99
8, 3792, Note_on_c, 6, 47, 99
8, 3840, Note_on_c, 6, 47, 0
8, 3840, Note_on_c, 6, 52, 0
8, 3840, Note_on_c, 6, 52, 127
8, 3840, Note_on_c, 6, 47, 127
8, 3888, Note_on_c, 6, 47, 0
8, 3888, Note_on_c, 6, 52, 0
8, 3888, Note_on_c, 6, 47, 98
8, 3888, Note_on_c, 6, 52, 98
8, 3936, Note_on_c, 6, 52, 0
8, 3936, Note_on_c, 6, 47, 0
8, 3936, Note_on_c, 6, 52, 127
8, 3936, Note_on_c, 6, 47, 127
8, 3984, Note_on_c, 6, 47, 0
8, 3984, Note_on_c, 6, 52, 0
8, 3984, Note_on_c, 6, 47, 98
8, 3984, Note_on_c, 6, 52, 98
8, 4032, Note_on_c, 6, 52, 0
8, 4032, Note_on_c, 6, 47, 0
8, 4032, Note_on_c, 6, 47, 127
8, 4032, Note_on_c, 6, 52, 127
8, 4080, Note_on_c, 6, 52, 0
8, 4080, Note_on_c, 6, 47, 0
8, 4080, Note_on_c, 6, 52, 100
8, 4080, Note_on_c, 6, 47, 100
8, 4128, Note_on_c, 6, 47, 0
8, 4128, Note_on_c, 6, 52, 0
8, 4128, Note_on_c, 6, 47, 127
8, 4128, Note_on_c, 6, 52, 127
8, 4176, Note_on_c, 6, 52, 0
8, 4176, Note_on_c, 6, 47, 0
8, 4176, Note_on_c, 6, 52, 99
8, 4176, Note_on_c, 6, 47, 99
8, 4224, Note_on_c, 6, 47, 0
8, 4224, Note_on_c, 6, 52, 0
8, 4224, Note_on_c, 6, 52, 127
8, 4224, Note_on_c, 6, 47, 127
8, 4272, Note_on_c, 6, 47, 0
8, 4272, Note_on_c, 6, 52, 0
8, 4272, Note_on_c, 6, 47, 98
8, 4272, Note_on_c, 6, 52, 98
8, 4320, Note_on_c, 6, 52, 0
8, 4320, Note_on_c, 6, 47, 0
8, 4320, Note_on_c, 6, 52, 127
8, 4320, Note_on_c, 6, 47, 127
8, 4368, Note_on_c, 6, 47, 0
8, 4368, Note_on_c, 6, 52, 0
8, 4368, Note_on_c, 6, 47, 98
8, 4368, Note_on_c, 6, 52, 98
8, 4416, Note_on_c, 6, 52, 0
8, 4416, Note_on_c, 6, 47, 0
8, 4416, Note_on_c, 6, 47, 127
8, 4416, Note_on_c, 6, 52, 127
8, 4464, Note_on_c, 6, 52, 0
8, 4464, Note_on_c, 6, 47, 0
8, 4464, Note_on_c, 6, 52, 100
8, 4464, Note_on_c, 6, 47, 100
8, 4512, Note_on_c, 6, 47, 0
8, 4512, Note_on_c, 6, 52, 0
8, 4512, Note_on_c, 6, 47, 127
8, 4512, Note_on_c, 6, 52, 127
8, 4560, Note_on_c, 6, 52, 0
8, 4560, Note_on_c, 6, 47, 0
8, 4560, Note_on_c, 6, 52, 99
8, 4560, Note_on_c, 6, 47, 99
8, 4608, Note_on_c, 6, 47, 0
8, 4608, Note_on_c, 6, 52, 0
8, 4608, Note_on_c, 6, 52, 127
8, 4608, Note_on_c, 6, 47, 127
8, 4656, Note_on_c, 6, 47, 0
8, 4656, Note_on_c, 6, 52, 0
8, 4656, Note_on_c, 6, 47, 98
8, 4656, Note_on_c, 6, 52, 98
8, 4704, Note_on_c, 6, 52, 0
8, 4704, Note_on_c, 6, 47, 0
8, 4704, Note_on_c, 6, 52, 127
8, 4704, Note_on_c, 6, 47, 127
8, 4752, Note_on_c, 6, 47, 0
8, 4752, Note_on_c, 6, 52, 0
8, 4752, Note_on_c, 6, 47, 98
8, 4752, Note_on_c, 6, 52, 98
8, 4800, Note_on_c, 6, 52, 0
8, 4800, Note_on_c, 6, 47, 0
8, 4800, Note_on_c, 6, 47, 127
8, 4800, Note_on_c, 6, 52, 127
8, 4848, Note_on_c, 6, 52, 0
8, 4848, Note_on_c, 6, 47, 0
8, 4848, Note_on_c, 6, 52, 100
8, 4848, Note_on_c, 6, 47, 100
8, 4896, Note_on_c, 6, 47, 0
8, 4896, Note_on_c, 6, 52, 0
8, 4896, Note_on_c, 6, 47, 127
8, 4896, Note_on_c, 6, 52, 127
8, 4944, Note_on_c, 6, 52, 0
8, 4944, Note_on_c, 6, 47, 0
8, 4944, Note_on_c, 6, 52, 99
8, 4944, Note_on_c, 6, 47, 99
8, 4992, Note_on_c, 6, 47, 0
8, 4992, Note_on_c, 6, 52, 0
8, 4992, Note_on_c, 6, 52, 127
8, 4992, Note_on_c, 6, 47, 127
8, 5040, Note_on_c, 6, 47, 0
8, 5040, Note_on_c, 6, 52, 0
8, 5040, Note_on_c, 6, 47, 98
8, 5040, Note_on_c, 6, 52, 98
8, 5088, Note_on_c, 6, 52, 0
8, 5088, Note_on_c, 6, 47, 0
8, 5088, Note_on_c, 6, 52, 127
8, 5088, Note_on_c, 6, 47, 127
8, 5136, Note_on_c, 6, 47, 0
8, 5136, Note_on_c, 6, 52, 0
8, 5136, Note_on_c, 6, 47, 98
8, 5136, Note_on_c, 6, 52, 98
8, 5184, Note_on_c, 6, 52, 0
8, 5184, Note_on_c, 6, 47, 0
8, 5184, Note_on_c, 6, 47, 127
8, 5184, Note_on_c, 6, 52, 127
8, 5232, Note_on_c, 6, 52, 0
8, 5232, Note_on_c, 6, 47, 0
8, 5232, Note_on_c, 6, 52, 100
8, 5232, Note_on_c, 6, 47, 100
8, 5280, Note_on_c, 6, 47, 0
8, 5280, Note_on_c, 6, 52, 0
8, 5280, Note_on_c, 6, 47, 127
8, 5280, Note_on_c, 6, 52, 127
8, 5328, Note_on_c, 6, 52, 0
8, 5328, Note_on_c, 6, 47, 0
8, 5328, Note_on_c, 6, 52, 99
8, 5328, Note_on_c, 6, 47, 99
8, 5376, Note_on_c, 6, 47, 0
8, 5376, Note_on_c, 6, 52, 0
8, 5376, Note_on_c, 6, 52, 127
8, 5376, Note_on_c, 6, 47, 127
8, 5424, Note_on_c, 6, 47, 0
8, 5424, Note_on_c, 6, 52, 0
8, 5424, Note_on_c, 6, 47, 98
8, 5424, Note_on_c, 6, 52, 98
8, 5472, Note_on_c, 6, 52, 0
8, 5472, Note_on_c, 6, 47, 0
8, 5472, Note_on_c, 6, 52, 127
8, 5472, Note_on_c, 6, 47, 127
8, 5520, Note_on_c, 6, 47, 0
8, 5520, Note_on_c, 6, 52, 0
8, 5520, Note_on_c, 6, 47, 98
8, 5520, Note_on_c, 6, 52, 98
8, 5568, Note_on_c, 6, 52, 0
8, 5568, Note_on_c, 6, 47, 0
8, 5568, Note_on_c, 6, 47, 127
8, 5568, Note_on_c, 6, 52, 127
8, 5616, Note_on_c, 6, 52, 0
8, 5616, Note_on_c, 6, 47, 0
8, 5616, Note_on_c, 6, 52, 100
8, 5616, Note_on_c, 6, 47, 100
8, 5664, Note_on_c, 6, 47, 0
8, 5664, Note_on_c, 6, 52, 0
8, 5664, Note_on_c, 6, 47, 127
8, 5664, Note_on_c, 6, 52, 127
8, 5712, Note_on_c, 6, 52, 0
8, 5712, Note_on_c, 6, 47, 0
8, 5712, Note_on_c, 6, 52, 99
8, 5712, Note_on_c, 6, 47, 99
8, 5760, Note_on_c, 6, 47, 0
8, 5760, Note_on_c, 6, 52, 0
8, 5760, Note_on_c, 6, 52, 127
8, 5760, Note_on_c, 6, 47, 127
8, 5808, Note_on_c, 6, 47, 0
8, 5808, Note_on_c, 6, 52, 0
8, 5808, Note_on_c, 6, 47, 98
8, 5808, Note_on_c, 6, 52, 98
8, 5856, Note_on_c, 6, 52, 0
8, 5856, Note_on_c, 6, 47, 0
8, 5856, Note_on_c, 6, 52, 127
8, 5856, Note_on_c, 6, 47, 127
8, 5904, Note_on_c, 6, 47, 0
8, 5904, Note_on_c, 6, 52, 0
8, 5904, Note_on_c, 6, 47, 98
8, 5904, Note_on_c, 6, 52, 98
8, 5952, Note_on_c, 6, 52, 0
8, 5952, Note_on_c, 6, 47, 0
8, 5952, Note_on_c, 6, 47, 127
8, 5952, Note_on_c, 6, 52, 127
8, 6000, Note_on_c, 6, 52, 0
8, 6000, Note_on_c, 6, 47, 0
8, 6000, Note_on_c, 6, 52, 100
8, 6000, Note_on_c, 6, 47, 100
8, 6048, Note_on_c, 6, 47, 0
8, 6048, Note_on_c, 6, 52, 0
8, 6048, Note_on_c, 6, 47, 127
8, 6048, Note_on_c, 6, 52, 127
8, 6096, Note_on_c, 6, 52, 0
8, 6096, Note_on_c, 6, 47, 0
8, 6096, Note_on_c, 6, 52, 99
8, 6096, Note_on_c, 6, 47, 99
8, 6144, Note_on_c, 6, 47, 0
8, 6144, Note_on_c, 6, 52, 0
8, 6144, Note_on_c, 6, 52, 127
8, 6144, Note_on_c, 6, 47, 127
8, 6192, Note_on_c, 6, 47, 0
8, 6192, Note_on_c, 6, 52, 0
8, 6192, Note_on_c, 6, 47, 98
8, 6192, Note_on_c, 6, 52, 98
8, 6240, Note_on_c, 6, 52, 0
8, 6240, Note_on_c, 6, 47, 0
8, 6240, Note_on_c, 6, 52, 127
8, 6240, Note_on_c, 6, 47, 127
8, 6288, Note_on_c, 6, 47, 0
8, 6288, Note_on_c, 6, 52, 0
8, 6288, Note_on_c, 6, 47, 98
8, 6288, Note_on_c, 6, 52, 98
8, 6336, Note_on_c, 6, 52, 0
8, 6336, Note_on_c, 6, 47, 0
8, 6336, Note_on_c, 6, 47, 127
8, 6336, Note_on_c, 6, 52, 127
8, 6384, Note_on_c, 6, 52, 0
8, 6384, Note_on_c, 6, 47, 0
8, 6384, Note_on_c, 6, 52, 100
8, 6384, Note_on_c, 6, 47, 100
8, 6432, Note_on_c, 6, 47, 0
8, 6432, Note_on_c, 6, 52, 0
8, 6432, Note_on_c, 6, 47, 127
8, 6432, Note_on_c, 6, 52, 127
8, 6480, Note_on_c, 6, 52, 0
8, 6480, Note_on_c, 6, 47, 0
8, 6480, Note_on_c, 6, 52, 99
8, 6480, Note_on_c, 6, 47, 99
8, 6528, Note_on_c, 6, 47, 0
8, 6528, Note_on_c, 6, 52, 0
8, 6528, Note_on_c, 6, 52, 127
8, 6528, Note_on_c, 6, 47, 127
8, 6576, Note_on_c, 6, 47, 0
8, 6576, Note_on_c, 6, 52, 0
8, 6576, Note_on_c, 6, 47, 98
8, 6576, Note_on_c, 6, 52, 98
8, 6624, Note_on_c, 6, 52, 0
8, 6624, Note_on_c, 6, 47, 0
8, 6624, Note_on_c, 6, 52, 127
8, 6624, Note_on_c, 6, 47, 127
8, 6672, Note_on_c, 6, 47, 0
8, 6672, Note_on_c, 6, 52, 0
8, 6672, Note_on_c, 6, 47, 98
8, 6672, Note_on_c, 6, 52, 98
8, 6720, Note_on_c, 6, 52, 0
8, 6720, Note_on_c, 6, 47, 0
8, 6720, Note_on_c, 6, 47, 127
8, 6720, Note_on_c, 6, 52, 127
8, 6768, Note_on_c, 6, 52, 0
8, 6768, Note_on_c, 6, 47, 0
8, 6768, Note_on_c, 6, 52, 100
8, 6768, Note_on_c, 6, 47, 100
8, 6816, Note_on_c, 6, 47, 0
8, 6816, Note_on_c, 6, 52, 0
8, 6816, Note_on_c, 6, 47, 127
8, 6816, Note_on_c, 6, 52, 127
8, 6864, Note_on_c, 6, 52, 0
8, 6864, Note_on_c, 6, 47, 0
8, 6864, Note_on_c, 6, 52, 99
8, 6864, Note_on_c, 6, 47, 99
8, 6912, Note_on_c, 6, 47, 0
8, 6912, Note_on_c, 6, 52, 0
8, 6912, Note_on_c, 6, 52, 127
8, 6912, Note_on_c, 6, 47, 127
8, 6960, Note_on_c, 6, 47, 0
8, 6960, Note_on_c, 6, 52, 0
8, 6960, Note_on_c, 6, 47, 98
8, 6960, Note_on_c, 6, 52, 98
8, 7008, Note_on_c, 6, 52, 0
8, 7008, Note_on_c, 6, 47, 0
8, 7008, Note_on_c, 6, 52, 127
8, 7008, Note_on_c, 6, 47, 127
8, 7056, Note_on_c, 6, 47, 0
8, 7056, Note_on_c, 6, 52, 0
8, 7056, Note_on_c, 6, 47, 98
8, 7056, Note_on_c, 6, 52, 98
8, 7104, Note_on_c, 6, 52, 0
8, 7104, Note_on_c, 6, 47, 0
8, 7104, Note_on_c, 6, 47, 127
8, 7104, Note_on_c, 6, 52, 127
8, 7152, Note_on_c, 6, 52, 0
8, 7152, Note_on_c, 6, 47, 0
8, 7152, Note_on_c, 6, 52, 100
8, 7152, Note_on_c, 6, 47, 100
8, 7200, Note_on_c, 6, 47, 0
8, 7200, Note_on_c, 6, 52, 0
8, 7200, Note_on_c, 6, 47, 127
8, 7200, Note_on_c, 6, 52, 127
8, 7248, Note_on_c, 6, 52, 0
8, 7248, Note_on_c, 6, 47, 0
8, 7248, Note_on_c, 6, 52, 99
8, 7248, Note_on_c, 6, 47, 99
8, 7296, Note_on_c, 6, 47, 0
8, 7296, Note_on_c, 6, 52, 0
8, 7296, Note_on_c, 6, 52, 127
8, 7296, Note_on_c, 6, 47, 127
8, 7344, Note_on_c, 6, 47, 0
8, 7344, Note_on_c, 6, 52, 0
8, 7344, Note_on_c, 6, 47, 98
8, 7344, Note_on_c, 6, 52, 98
8, 7392, Note_on_c, 6, 52, 0
8, 7392, Note_on_c, 6, 47, 0
8, 7392, Note_on_c, 6, 52, 127
8, 7392, Note_on_c, 6, 47, 127
8, 7440, Note_on_c, 6, 47, 0
8, 7440, Note_on_c, 6, 52, 0
8, 7440, Note_on_c, 6, 47, 98
8, 7440, Note_on_c, 6, 52, 98
8, 7488, Note_on_c, 6, 52, 0
8, 7488, Note_on_c, 6, 47, 0
8, 7488, Note_on_c, 6, 47, 127
8, 7488, Note_on_c, 6, 52, 127
8, 7536, Note_on_c, 6, 52, 0
8, 7536, Note_on_c, 6, 47, 0
8, 7536, Note_on_c, 6, 52, 100
8, 7536, Note_on_c, 6, 47, 100
8, 7584, Note_on_c, 6, 47, 0
8, 7584, Note_on_c, 6, 52, 0
8, 7584, Note_on_c, 6, 47, 127
8, 7584, Note_on_c, 6, 52, 127
8, 7632, Note_on_c, 6, 52, 0
8, 7632, Note_on_c, 6, 47, 0
8, 7632, Note_on_c, 6, 52, 99
8, 7632, Note_on_c, 6, 47, 99
8, 7680, Note_on_c, 6, 47, 0
8, 7680, Note_on_c, 6, 52, 0
8, 7680, Note_on_c, 6, 54, 127
8, 7680, Note_on_c, 6, 47, 127
8, 7728, Note_on_c, 6, 47, 0
8, 7728, Note_on_c, 6, 54, 0
8, 7728, Note_on_c, 6, 47, 98
8, 7728, Note_on_c, 6, 54, 98
8, 7776, Note_on_c, 6, 54, 0
8, 7776, Note_on_c, 6, 47, 0
8, 7776, Note_on_c, 6, 54, 127
8, 7776, Note_on_c, 6, 47, 127
8, 7824, Note_on_c, 6, 47, 0
8, 7824, Note_on_c, 6, 54, 0
8, 7824, Note_on_c, 6, 47, 98
8, 7824, Note_on_c, 6, 54, 98
8, 7872, Note_on_c, 6, 54, 0
8, 7872, Note_on_c, 6, 47, 0
8, 7872, Note_on_c, 6, 47, 127
8, 7872, Note_on_c, 6, 54, 127
8, 7920, Note_on_c, 6, 54, 0
8, 7920, Note_on_c, 6, 47, 0
8, 7920, Note_on_c, 6, 54, 100
8, 7920, Note_on_c, 6, 47, 100
8, 7968, Note_on_c, 6, 47, 0
8, 7968, Note_on_c, 6, 54, 0
8, 7968, Note_on_c, 6, 47, 127
8, 7968, Note_on_c, 6, 54, 127
8, 8016, Note_on_c, 6, 54, 0
8, 8016, Note_on_c, 6, 47, 0
8, 8016, Note_on_c, 6, 54, 99
8, 8016, Note_on_c, 6, 47, 99
8, 8064, Note_on_c, 6, 47, 0
8, 8064, Note_on_c, 6, 54, 0
8, 8064, Note_on_c, 6, 54, 127
8, 8064, Note_on_c, 6, 47, 127
8, 8112, Note_on_c, 6, 47, 0
8, 8112, Note_on_c, 6, 54, 0
8, 8112, Note_on_c, 6, 47, 98
8, 8112, Note_on_c, 6, 54, 98
8, 8160, Note_on_c, 6, 54, 0
8, 8160, Note_on_c, 6, 47, 0
8, 8160, Note_on_c, 6, 54, 127
8, 8160, Note_on_c, 6, 47, 127
8, 8208, Note_on_c, 6, 47, 0
8, 8208, Note_on_c, 6, 54, 0
8, 8208, Note_on_c, 6, 47, 98
8, 8208, Note_on_c, 6, 54, 98
8, 8256, Note_on_c, 6, 54, 0
8, 8256, Note_on_c, 6, 47, 0
8, 8256, Note_on_c, 6, 47, 127
8, 8256, Note_on_c, 6, 54, 127
8, 8304, Note_on_c, 6, 54, 0
8, 8304, Note_on_c, 6, 47, 0
8, 8304, Note_on_c, 6, 54, 100
8, 8304, Note_on_c, 6, 47, 100
8, 8352, Note_on_c, 6, 47, 0
8, 8352, Note_on_c, 6, 54, 0
8, 8352, Note_on_c, 6, 47, 127
8, 8352, Note_on_c, 6, 54, 127
8, 8400, Note_on_c, 6, 54, 0
8, 8400, Note_on_c, 6, 47, 0
8, 8400, Note_on_c, 6, 54, 99
8, 8400, Note_on_c, 6, 47, 99
8, 8448, Note_on_c, 6, 47, 0
8, 8448, Note_on_c, 6, 54, 0
8, 8448, Note_on_c, 6, 52, 127
8, 8448, Note_on_c, 6, 47, 127
8, 8496, Note_on_c, 6, 47, 0
8, 8496, Note_on_c, 6, 52, 0
8, 8496, Note_on_c, 6, 47, 98
8, 8496, Note_on_c, 6, 52, 98
8, 8544, Note_on_c, 6, 52, 0
8, 8544, Note_on_c, 6, 47, 0
8, 8544, Note_on_c, 6, 52, 127
8, 8544, Note_on_c, 6, 47, 127
8, 8592, Note_on_c, 6, 47, 0
8, 8592, Note_on_c, 6, 52, 0
8, 8592, Note_on_c, 6, 47, 98
8, 8592, Note_on_c, 6, 52, 98
8, 8640, Note_on_c, 6, 52, 0
8, 8640, Note_on_c, 6, 47, 0
8, 8640, Note_on_c, 6, 47, 127
8, 8640, Note_on_c, 6, 52, 127
8, 8688, Note_on_c, 6, 52, 0
8, 8688, Note_on_c, 6, 47, 0
8, 8688, Note_on_c, 6, 52, 100
8, 8688, Note_on_c, 6, 47, 100
8, 8736, Note_on_c, 6, 47, 0
8, 8736, Note_on_c, 6, 52, 0
8, 8736, Note_on_c, 6, 47, 127
8, 8736, Note_on_c, 6, 52, 127
8, 8784, Note_on_c, 6, 52, 0
8, 8784, Note_on_c, 6, 47, 0
8, 8784, Note_on_c, 6, 52, 99
8, 8784, Note_on_c, 6, 47, 99
8, 8832, Note_on_c, 6, 47, 0
8, 8832, Note_on_c, 6, 52, 0
8, 8832, Note_on_c, 6, 52, 127
8, 8832, Note_on_c, 6, 47, 127
8, 8880, Note_on_c, 6, 47, 0
8, 8880, Note_on_c, 6, 52, 0
8, 8880, Note_on_c, 6, 47, 98
8, 8880, Note_on_c, 6, 52, 98
8, 8928, Note_on_c, 6, 52, 0
8, 8928, Note_on_c, 6, 47, 0
8, 8928, Note_on_c, 6, 52, 127
8, 8928, Note_on_c, 6, 47, 127
8, 8976, Note_on_c, 6, 47, 0
8, 8976, Note_on_c, 6, 52, 0
8, 8976, Note_on_c, 6, 47, 98
8, 8976, Note_on_c, 6, 52, 98
8, 9024, Note_on_c, 6, 52, 0
8, 9024, Note_on_c, 6, 47, 0
8, 9024, Note_on_c, 6, 47, 127
8, 9024, Note_on_c, 6, 52, 127
8, 9072, Note_on_c, 6, 52, 0
8, 9072, Note_on_c, 6, 47, 0
8, 9072, Note_on_c, 6, 52, 100
8, 9072, Note_on_c, 6, 47, 100
8, 9120, Note_on_c, 6, 47, 0
8, 9120, Note_on_c, 6, 52, 0
8, 9120, Note_on_c, 6, 47, 127
8, 9120, Note_on_c, 6, 52, 127
8, 9168, Note_on_c, 6, 52, 0
8, 9168, Note_on_c, 6, 47, 0
8, 9168, Note_on_c, 6, 52, 99
8, 9168, Note_on_c, 6, 47, 99
8, 9216, Note_on_c, 6, 47, 0
8, 9216, Note_on_c, 6, 52, 0
8, 9216, Note_on_c, 6, 52, 127
8, 9216, Note_on_c, 6, 45, 127
8, 9264, Note_on_c, 6, 45, 0
8, 9264, Note_on_c, 6, 52, 0
8, 9264, Note_on_c, 6, 45, 98
8, 9264, Note_on_c, 6, 52, 98
8, 9312, Note_on_c, 6, 52, 0
8, 9312, Note_on_c, 6, 45, 0
8, 9312, Note_on_c, 6, 52, 127
8, 9312, Note_on_c, 6, 45, 127
8, 9360, Note_on_c, 6, 45, 0
8, 9360, Note_on_c, 6, 52, 0
8, 9360, Note_on_c, 6, 45, 98
8, 9360, Note_on_c, 6, 52, 98
8, 9408, Note_on_c, 6, 52, 0
8, 9408, Note_on_c, 6, 45, 0
8, 9408, Note_on_c, 6, 45, 127
8, 9408, Note_on_c, 6, 52, 127
8, 9456, Note_on_c, 6, 52, 0
8, 9456, Note_on_c, 6, 45, 0
8, 9456, Note_on_c, 6, 52, 100
8, 9456, Note_on_c, 6, 45, 100
8, 9504, Note_on_c, 6, 45, 0
8, 9504, Note_on_c, 6, 52, 0
8, 9504, Note_on_c, 6, 45, 127
8, 9504, Note_on_c, 6, 52, 127
8, 9552, Note_on_c, 6, 52, 0
8, 9552, Note_on_c, 6, 45, 0
8, 9552, Note_on_c, 6, 52, 99
8, 9552, Note_on_c, 6, 45, 99
8, 9600, Note_on_c, 6, 45, 0
8, 9600, Note_on_c, 6, 52, 0
8, 9600, Note_on_c, 6, 52, 127
8, 9600, Note_on_c, 6, 45, 127
8, 9648, Note_on_c, 6, 45, 0
8, 9648, Note_on_c, 6, 52, 0
8, 9648, Note_on_c, 6, 45, 98
8, 9648, Note_on_c, 6, 52, 98
8, 9696, Note_on_c, 6, 52, 0
8, 9696, Note_on_c, 6, 45, 0
8, 9696, Note_on_c, 6, 52, 127
8, 9696, Note_on_c, 6, 45, 127
8, 9744, Note_on_c, 6, 45, 0
8, 9744, Note_on_c, 6, 52, 0
8, 9744, Note_on_c, 6, 45, 98
8, 9744, Note_on_c, 6, 52, 98
8, 9792, Note_on_c, 6, 52, 0
8, 9792, Note_on_c, 6, 45, 0
8, 9792, Note_on_c, 6, 45, 127
8, 9792, Note_on_c, 6, 52, 127
8, 9840, Note_on_c, 6, 52, 0
8, 9840, Note_on_c, 6, 45, 0
8, 9840, Note_on_c, 6, 52, 100
8, 9840, Note_on_c, 6, 45, 100
8, 9888, Note_on_c, 6, 45, 0
8, 9888, Note_on_c, 6, 52, 0
8, 9888, Note_on_c, 6, 45, 127
8, 9888, Note_on_c, 6, 52, 127
8, 9936, Note_on_c, 6, 52, 0
8, 9936, Note_on_c, 6, 45, 0
8, 9936, Note_on_c, 6, 52, 99
8, 9936, Note_on_c, 6, 45, 99
8, 9984, Note_on_c, 6, 45, 0
8, 9984, Note_on_c, 6, 52, 0
8, 9984, Note_on_c, 6, 54, 127
8, 9984, Note_on_c, 6, 47, 127
8, 10032, Note_on_c, 6, 47, 0
8, 10032, Note_on_c, 6, 54, 0
8, 10032, Note_on_c, 6, 47, 98
8, 10032, Note_on_c, 6, 54, 98
8, 10080, Note_on_c, 6, 54, 0
8, 10080, Note_on_c, 6, 47, 0
8, 10080, Note_on_c, 6, 54, 127
8, 10080, Note_on_c, 6, 47, 127
8, 10128, Note_on_c, 6, 47, 0
8, 10128, Note_on_c, 6, 54, 0
8, 10128, Note_on_c, 6, 47, 98
8, 10128, Note_on_c, 6, 54, 98
8, 10176, Note_on_c, 6, 54, 0
8, 10176, Note_on_c, 6, 47, 0
8, 10176, Note_on_c, 6, 47, 127
8, 10176, Note_on_c, 6, 54, 127
8, 10224, Note_on_c, 6, 54, 0
8, 10224, Note_on_c, 6, 47, 0
8, 10224, Note_on_c, 6, 54, 100
8, 10224, Note_on_c, 6, 47, 100
8, 10272, Note_on_c, 6, 47, 0
8, 10272, Note_on_c, 6, 54, 0
8, 10272, Note_on_c, 6, 47, 127
8, 10272, Note_on_c, 6, 54, 127
8, 10320, Note_on_c, 6, 54, 0
8, 10320, Note_on_c, 6, 47, 0
8, 10320, Note_on_c, 6, 54, 99
8, 10320, Note_on_c, 6, 47, 99
8, 10368, Note_on_c, 6, 47, 0
8, 10368, Note_on_c, 6, 54, 0
8, 10368, Note_on_c, 6, 47, 127
8, 10368, Note_on_c, 6, 54, 127
8, 10464, Note_on_c, 6, 54, 0
8, 10464, Note_on_c, 6, 47, 0
8, 10752, Note_on_c, 6, 52, 127
8, 10752, Note_on_c, 6, 47, 127
8, 10800, Note_on_c, 6, 47, 0
8, 10800, Note_on_c, 6, 52, 0
8, 10800, Note_on_c, 6, 47, 98
8, 10800, Note_on_c, 6, 52, 98
8, 10848, Note_on_c, 6, 52, 0
8, 10848, Note_on_c, 6, 47, 0
8, 10848, Note_on_c, 6, 52, 127
8, 10848, Note_on_c, 6, 47, 127
8, 10896, Note_on_c, 6, 47, 0
8, 10896, Note_on_c, 6, 52, 0
8, 10896, Note_on_c, 6, 47, 98
8, 10896, Note_on_c, 6, 52, 98
8, 10944, Note_on_c, 6, 52, 0
8, 10944, Note_on_c, 6, 47, 0
8, 10944, Note_on_c, 6, 47, 127
8, 10944, Note_on_c, 6, 52, 127
8, 10992, Note_on_c, 6, 52, 0
8, 10992, Note_on_c, 6, 47, 0
8, 10992, Note_on_c, 6, 52, 100
8, 10992, Note_on_c, 6, 47, 100
8, 11040, Note_on_c, 6, 47, 0
8, 11040, Note_on_c, 6, 52, 0
8, 11040, Note_on_c, 6, 47, 127
8, 11040, Note_on_c, 6, 52, 127
8, 11088, Note_on_c, 6, 52, 0
8, 11088, Note_on_c, 6, 47, 0
8, 11088, Note_on_c, 6, 52, 99
8, 11088, Note_on_c, 6, 47, 99
8, 11136, Note_on_c, 6, 47, 0
8, 11136, Note_on_c, 6, 52, 0
8, 11136, Note_on_c, 6, 52, 127
8, 11136, Note_on_c, 6, 47, 127
8, 11184, Note_on_c, 6, 47, 0
8, 11184, Note_on_c, 6, 52, 0
8, 11184, Note_on_c, 6, 47, 98
8, 11184, Note_on_c, 6, 52, 98
8, 11232, Note_on_c, 6, 52, 0
8, 11232, Note_on_c, 6, 47, 0
8, 11232, Note_on_c, 6, 52, 127
8, 11232, Note_on_c, 6, 47, 127
8, 11280, Note_on_c, 6, 47, 0
8, 11280, Note_on_c, 6, 52, 0
8, 11280, Note_on_c, 6, 47, 98
8, 11280, Note_on_c, 6, 52, 98
8, 11328, Note_on_c, 6, 52, 0
8, 11328, Note_on_c, 6, 47, 0
8, 11328, Note_on_c, 6, 47, 127
8, 11328, Note_on_c, 6, 52, 127
8, 11376, Note_on_c, 6, 52, 0
8, 11376, Note_on_c, 6, 47, 0
8, 11376, Note_on_c, 6, 52, 100
8, 11376, Note_on_c, 6, 47, 100
8, 11424, Note_on_c, 6, 47, 0
8, 11424, Note_on_c, 6, 52, 0
8, 11424, Note_on_c, 6, 47, 127
8, 11424, Note_on_c, 6, 52, 127
8, 11472, Note_on_c, 6, 52, 0
8, 11472, Note_on_c, 6, 47, 0
8, 11472, Note_on_c, 6, 52, 99
8, 11472, Note_on_c, 6, 47, 99
8, 11520, Note_on_c, 6, 47, 0
8, 11520, Note_on_c, 6, 52, 0
8, 11520, Note_on_c, 6, 52, 127
8, 11520, Note_on_c, 6, 47, 127
8, 11568, Note_on_c, 6, 47, 0
8, 11568, Note_on_c, 6, 52, 0
8, 11568, Note_on_c, 6, 47, 98
8, 11568, Note_on_c, 6, 52, 98
8, 11616, Note_on_c, 6, 52, 0
8, 11616, Note_on_c, 6, 47, 0
8, 11616, Note_on_c, 6, 52, 127
8, 11616, Note_on_c, 6, 47, 127
8, 11664, Note_on_c, 6, 47, 0
8, 11664, Note_on_c, 6, 52, 0
8, 11664, Note_on_c, 6, 47, 98
8, 11664, Note_on_c, 6, 52, 98
8, 11712, Note_on_c, 6, 52, 0
8, 11712, Note_on_c, 6, 47, 0
8, 11712, Note_on_c, 6, 47, 127
8, 11712, Note_on_c, 6, 52, 127
8, 11760, Note_on_c, 6, 52, 0
8, 11760, Note_on_c, 6, 47, 0
8, 11760, Note_on_c, 6, 52, 100
8, 11760, Note_on_c, 6, 47, 100
8, 11808, Note_on_c, 6, 47, 0
8, 11808, Note_on_c, 6, 52, 0
8, 11808, Note_on_c, 6, 47, 127
8, 11808, Note_on_c, 6, 52, 127
8, 11856, Note_on_c, 6, 52, 0
8, 11856, Note_on_c, 6, 47, 0
8, 11856, Note_on_c, 6, 52, 99
8, 11856, Note_on_c, 6, 47, 99
8, 11904, Note_on_c, 6, 47, 0
8, 11904, Note_on_c, 6, 52, 0
8, 11904, Note_on_c, 6, 52, 127
8, 11904, Note_on_c, 6, 47, 127
8, 11952, Note_on_c, 6, 47, 0
8, 11952, Note_on_c, 6, 52, 0
8, 11952, Note_on_c, 6, 47, 98
8, 11952, Note_on_c, 6, 52, 98
8, 12000, Note_on_c, 6, 52, 0
8, 12000, Note_on_c, 6, 47, 0
8, 12000, Note_on_c, 6, 52, 127
8, 12000, Note_on_c, 6, 47, 127
8, 12048, Note_on_c, 6, 47, 0
8, 12048, Note_on_c, 6, 52, 0
8, 12048, Note_on_c, 6, 47, 98
8, 12048, Note_on_c, 6, 52, 98
8, 12096, Note_on_c, 6, 52, 0
8, 12096, Note_on_c, 6, 47, 0
8, 12096, Note_on_c, 6, 47, 127
8, 12096, Note_on_c, 6, 52, 127
8, 12144, Note_on_c, 6, 52, 0
8, 12144, Note_on_c, 6, 47, 0
8, 12144, Note_on_c, 6, 52, 100
8, 12144, Note_on_c, 6, 47, 100
8, 12192, Note_on_c, 6, 47, 0
8, 12192, Note_on_c, 6, 52, 0
8, 12192, Note_on_c, 6, 47, 127
8, 12192, Note_on_c, 6, 52, 127
8, 12240, Note_on_c, 6, 52, 0
8, 12240, Note_on_c, 6, 47, 0
8, 12240, Note_on_c, 6, 52, 99
8, 12240, Note_on_c, 6, 47, 99
8, 12288, Note_on_c, 6, 47, 0
8, 12288, Note_on_c, 6, 52, 0
8, 12288, Note_on_c, 6, 52, 127
8, 12288, Note_on_c, 6, 47, 127
8, 12336, Note_on_c, 6, 47, 0
8, 12336, Note_on_c, 6, 52, 0
8, 12336, Note_on_c, 6, 47, 98
8, 12336, Note_on_c, 6, 52, 98
8, 12384, Note_on_c, 6, 52, 0
8, 12384, Note_on_c, 6, 47, 0
8, 12384, Note_on_c, 6, 52, 127
8, 12384, Note_on_c, 6, 47, 127
8, 12432, Note_on_c, 6, 47, 0
8, 12432, Note_on_c, 6, 52, 0
8, 12432, Note_on_c, 6, 47, 98
8, 12432, Note_on_c, 6, 52, 98
8, 12480, Note_on_c, 6, 52, 0
8, 12480, Note_on_c, 6, 47, 0
8, 12480, Note_on_c, 6, 47, 127
8, 12480, Note_on_c, 6, 52, 127
8, 12528, Note_on_c, 6, 52, 0
8, 12528, Note_on_c, 6, 47, 0
8, 12528, Note_on_c, 6, 52, 100
8, 12528, Note_on_c, 6, 47, 100
8, 12576, Note_on_c, 6, 47, 0
8, 12576, Note_on_c, 6, 52, 0
8, 12576, Note_on_c, 6, 47, 127
8, 12576, Note_on_c, 6, 52, 127
8, 12624, Note_on_c, 6, 52, 0
8, 12624, Note_on_c, 6, 47, 0
8, 12624, Note_on_c, 6, 52, 99
8, 12624, Note_on_c, 6, 47, 99
8, 12672, Note_on_c, 6, 47, 0
8, 12672, Note_on_c, 6, 52, 0
8, 12672, Note_on_c, 6, 52, 127
8, 12672, Note_on_c, 6, 47, 127
8, 12720, Note_on_c, 6, 47, 0
8, 12720, Note_on_c, 6, 52, 0
8, 12720, Note_on_c, 6, 47, 98
8, 12720, Note_on_c, 6, 52, 98
8, 12768, Note_on_c, 6, 52, 0
8, 12768, Note_on_c, 6, 47, 0
8, 12768, Note_on_c, 6, 52, 127
8, 12768, Note_on_c, 6, 47, 127
8, 12816, Note_on_c, 6, 47, 0
8, 12816, Note_on_c, 6, 52, 0
8, 12816, Note_on_c, 6, 47, 98
8, 12816, Note_on_c, 6, 52, 98
8, 12864, Note_on_c, 6, 52, 0
8, 12864, Note_on_c, 6, 47, 0
8, 12864, Note_on_c, 6, 47, 127
8, 12864, Note_on_c, 6, 52, 127
8, 12912, Note_on_c, 6, 52, 0
8, 12912, Note_on_c, 6, 47, 0
8, 12912, Note_on_c, 6, 52, 100
8, 12912, Note_on_c, 6, 47, 100
8, 12960, Note_on_c, 6, 47, 0
8, 12960, Note_on_c, 6, 52, 0
8, 12960, Note_on_c, 6, 47, 127
8, 12960, Note_on_c, 6, 52, 127
8, 13008, Note_on_c, 6, 52, 0
8, 13008, Note_on_c, 6, 47, 0
8, 13008, Note_on_c, 6, 52, 99
8, 13008, Note_on_c, 6, 47, 99
8, 13056, Note_on_c, 6, 47, 0
8, 13056, Note_on_c, 6, 52, 0
8, 13056, Note_on_c, 6, 52, 127
8, 13056, Note_on_c, 6, 47, 127
8, 13104, Note_on_c, 6, 47, 0
8, 13104, Note_on_c, 6, 52, 0
8, 13104, Note_on_c, 6, 47, 98
8, 13104, Note_on_c, 6, 52, 98
8, 13152, Note_on_c, 6, 52, 0
8, 13152, Note_on_c, 6, 47, 0
8, 13152, Note_on_c, 6, 52, 127
8, 13152, Note_on_c, 6, 47, 127
8, 13200, Note_on_c, 6, 47, 0
8, 13200, Note_on_c, 6, 52, 0
8, 13200, Note_on_c, 6, 47, 98
8, 13200, Note_on_c, 6, 52, 98
8, 13248, Note_on_c, 6, 52, 0
8, 13248, Note_on_c, 6, 47, 0
8, 13248, Note_on_c, 6, 47, 127
8, 13248, Note_on_c, 6, 52, 127
8, 13296, Note_on_c, 6, 52, 0
8, 13296, Note_on_c, 6, 47, 0
8, 13296, Note_on_c, 6, 52, 100
8, 13296, Note_on_c, 6, 47, 100
8, 13344, Note_on_c, 6, 47, 0
8, 13344, Note_on_c, 6, 52, 0
8, 13344, Note_on_c, 6, 47, 127
8, 13344, Note_on_c, 6, 52, 127
8, 13392, Note_on_c, 6, 52, 0
8, 13392, Note_on_c, 6, 47, 0
8, 13392, Note_on_c, 6, 52, 99
8, 13392, Note_on_c, 6, 47, 99
8, 13440, Note_on_c, 6, 47, 0
8, 13440, Note_on_c, 6, 52, 0
8, 13440, Note_on_c, 6, 52, 127
8, 13440, Note_on_c, 6, 47, 127
8, 13488, Note_on_c, 6, 47, 0
8, 13488, Note_on_c, 6, 52, 0
8, 13488, Note_on_c, 6, 47, 98
8, 13488, Note_on_c, 6, 52, 98
8, 13536, Note_on_c, 6, 52, 0
8, 13536, Note_on_c, 6, 47, 0
8, 13536, Note_on_c, 6, 52, 127
8, 13536, Note_on_c, 6, 47, 127
8, 13584, Note_on_c, 6, 47, 0
8, 13584, Note_on_c, 6, 52, 0
8, 13584, Note_on_c, 6, 47, 98
8, 13584, Note_on_c, 6, 52, 98
8, 13632, Note_on_c, 6, 52, 0
8, 13632, Note_on_c, 6, 47, 0
8, 13632, Note_on_c, 6, 47, 127
8, 13632, Note_on_c, 6, 52, 127
8, 13680, Note_on_c, 6, 52, 0
8, 13680, Note_on_c, 6, 47, 0
8, 13680, Note_on_c, 6, 52, 100
8, 13680, Note_on_c, 6, 47, 100
8, 13728, Note_on_c, 6, 47, 0
8, 13728, Note_on_c, 6, 52, 0
8, 13728, Note_on_c, 6, 47, 127
8, 13728, Note_on_c, 6, 52, 127
8, 13776, Note_on_c, 6, 52, 0
8, 13776, Note_on_c, 6, 47, 0
8, 13776, Note_on_c, 6, 52, 99
8, 13776, Note_on_c, 6, 47, 99
8, 13824, Note_on_c, 6, 47, 0
8, 13824, Note_on_c, 6, 52, 0
8, 13824, Note_on_c, 6, 52, 127
8, 13824, Note_on_c, 6, 47, 127
8, 13872, Note_on_c, 6, 47, 0
8, 13872, Note_on_c, 6, 52, 0
8, 13872, Note_on_c, 6, 47, 98
8, 13872, Note_on_c, 6, 52, 98
8, 13920, Note_on_c, 6, 52, 0
8, 13920, Note_on_c, 6, 47, 0
8, 13920, Note_on_c, 6, 52, 127
8, 13920, Note_on_c, 6, 47, 127
8, 13968, Note_on_c, 6, 47, 0
8, 13968, Note_on_c, 6, 52, 0
8, 13968, Note_on_c, 6, 47, 98
8, 13968, Note_on_c, 6, 52, 98
8, 14016, Note_on_c, 6, 52, 0
8, 14016, Note_on_c, 6, 47, 0
8, 14016, Note_on_c, 6, 47, 127
8, 14016, Note_on_c, 6, 52, 127
8, 14064, Note_on_c, 6, 52, 0
8, 14064, Note_on_c, 6, 47, 0
8, 14064, Note_on_c, 6, 52, 100
8, 14064, Note_on_c, 6, 47, 100
8, 14112, Note_on_c, 6, 47, 0
8, 14112, Note_on_c, 6, 52, 0
8, 14112, Note_on_c, 6, 47, 127
8, 14112, Note_on_c, 6, 52, 127
8, 14160, Note_on_c, 6, 52, 0
8, 14160, Note_on_c, 6, 47, 0
8, 14160, Note_on_c, 6, 52, 99
8, 14160, Note_on_c, 6, 47, 99
8, 14208, Note_on_c, 6, 47, 0
8, 14208, Note_on_c, 6, 52, 0
8, 14208, Note_on_c, 6, 54, 127
8, 14208, Note_on_c, 6, 47, 127
8, 14256, Note_on_c, 6, 47, 0
8, 14256, Note_on_c, 6, 54, 0
8, 14256, Note_on_c, 6, 47, 98
8, 14256, Note_on_c, 6, 54, 98
8, 14304, Note_on_c, 6, 54, 0
8, 14304, Note_on_c, 6, 47, 0
8, 14304, Note_on_c, 6, 54, 127
8, 14304, Note_on_c, 6, 47, 127
8, 14352, Note_on_c, 6, 47, 0
8, 14352, Note_on_c, 6, 54, 0
8, 14352, Note_on_c, 6, 47, 98
8, 14352, Note_on_c, 6, 54, 98
8, 14400, Note_on_c, 6, 54, 0
8, 14400, Note_on_c, 6, 47, 0
8, 14400, Note_on_c, 6, 47, 127
8, 14400, Note_on_c, 6, 54, 127
8, 14448, Note_on_c, 6, 54, 0
8, 14448, Note_on_c, 6, 47, 0
8, 14448, Note_on_c, 6, 54, 100
8, 14448, Note_on_c, 6, 47, 100
8, 14496, Note_on_c, 6, 47, 0
8, 14496, Note_on_c, 6, 54, 0
8, 14496, Note_on_c, 6, 47, 127
8, 14496, Note_on_c, 6, 54, 127
8, 14544, Note_on_c, 6, 54, 0
8, 14544, Note_on_c, 6, 47, 0
8, 14544, Note_on_c, 6, 54, 99
8, 14544, Note_on_c, 6, 47, 99
8, 14592, Note_on_c, 6, 47, 0
8, 14592, Note_on_c, 6, 54, 0
8, 14592, Note_on_c, 6, 54, 127
8, 14592, Note_on_c, 6, 47, 127
8, 14640, Note_on_c, 6, 47, 0
8, 14640, Note_on_c, 6, 54, 0
8, 14640, Note_on_c, 6, 47, 98
8, 14640, Note_on_c, 6, 54, 98
8, 14688, Note_on_c, 6, 54, 0
8, 14688, Note_on_c, 6, 47, 0
8, 14688, Note_on_c, 6, 54, 127
8, 14688, Note_on_c, 6, 47, 127
8, 14736, Note_on_c, 6, 47, 0
8, 14736, Note_on_c, 6, 54, 0
8, 14736, Note_on_c, 6, 47, 98
8, 14736, Note_on_c, 6, 54, 98
8, 14784, Note_on_c, 6, 54, 0
8, 14784, Note_on_c, 6, 47, 0
8, 14784, Note_on_c, 6, 47, 127
8, 14784, Note_on_c, 6, 54, 127
8, 14832, Note_on_c, 6, 54, 0
8, 14832, Note_on_c, 6, 47, 0
8, 14832, Note_on_c, 6, 54, 100
8, 14832, Note_on_c, 6, 47, 100
8, 14880, Note_on_c, 6, 47, 0
8, 14880, Note_on_c, 6, 54, 0
8, 14880, Note_on_c, 6, 47, 127
8, 14880, Note_on_c, 6, 54, 127
8, 14928, Note_on_c, 6, 54, 0
8, 14928, Note_on_c, 6, 47, 0
8, 14928, Note_on_c, 6, 54, 99
8, 14928, Note_on_c, 6, 47, 99
8, 14976, Note_on_c, 6, 47, 0
8, 14976, Note_on_c, 6, 54, 0
8, 14976, Note_on_c, 6, 52, 127
8, 14976, Note_on_c, 6, 47, 127
8, 15024, Note_on_c, 6, 47, 0
8, 15024, Note_on_c, 6, 52, 0
8, 15024, Note_on_c, 6, 47, 98
8, 15024, Note_on_c, 6, 52, 98
8, 15072, Note_on_c, 6, 52, 0
8, 15072, Note_on_c, 6, 47, 0
8, 15072, Note_on_c, 6, 52, 127
8, 15072, Note_on_c, 6, 47, 127
8, 15120, Note_on_c, 6, 47, 0
8, 15120, Note_on_c, 6, 52, 0
8, 15120, Note_on_c, 6, 47, 98
8, 15120, Note_on_c, 6, 52, 98
8, 15168, Note_on_c, 6, 52, 0
8, 15168, Note_on_c, 6, 47, 0
8, 15168, Note_on_c, 6, 47, 127
8, 15168, Note_on_c, 6, 52, 127
8, 15216, Note_on_c, 6, 52, 0
8, 15216, Note_on_c, 6, 47, 0
8, 15216, Note_on_c, 6, 52, 100
8, 15216, Note_on_c, 6, 47, 100
8, 15264, Note_on_c, 6, 47, 0
8, 15264, Note_on_c, 6, 52, 0
8, 15264, Note_on_c, 6, 47, 127
8, 15264, Note_on_c, 6, 52, 127
8, 15312, Note_on_c, 6, 52, 0
8, 15312, Note_on_c, 6, 47, 0
8, 15312, Note_on_c, 6, 52, 99
8, 15312, Note_on_c, 6, 47, 99
8, 15360, Note_on_c, 6, 47, 0
8, 15360, Note_on_c, 6, 52, 0
8, 15360, Note_on_c, 6, 52, 127
8, 15360, Note_on_c, 6, 47, 127
8, 15408, Note_on_c, 6, 47, 0
8, 15408, Note_on_c, 6, 52, 0
8, 15408, Note_on_c, 6, 47, 98
8, 15408, Note_on_c, 6, 52, 98
8, 15456, Note_on_c, 6, 52, 0
8, 15456, Note_on_c, 6, 47, 0
8, 15456, Note_on_c, 6, 52, 127
8, 15456, Note_on_c, 6, 47, 127
8, 15504, Note_on_c, 6, 47, 0
8, 15504, Note_on_c, 6, 52, 0
8, 15504, Note_on_c, 6, 47, 98
8, 15504, Note_on_c, 6, 52, 98
8, 15552, Note_on_c, 6, 52, 0
8, 15552, Note_on_c, 6, 47, 0
8, 15552, Note_on_c, 6, 47, 127
8, 15552, Note_on_c, 6, 52, 127
8, 15600, Note_on_c, 6, 52, 0
8, 15600, Note_on_c, 6, 47, 0
8, 15600, Note_on_c, 6, 52, 100
8, 15600, Note_on_c, 6, 47, 100
8, 15648, Note_on_c, 6, 47, 0
8, 15648, Note_on_c, 6, 52, 0
8, 15648, Note_on_c, 6, 47, 127
8, 15648, Note_on_c, 6, 52, 127
8, 15696, Note_on_c, 6, 52, 0
8, 15696, Note_on_c, 6, 47, 0
8, 15696, Note_on_c, 6, 52, 99
8, 15696, Note_on_c, 6, 47, 99
8, 15744, Note_on_c, 6, 47, 0
8, 15744, Note_on_c, 6, 52, 0
8, 15744, Note_on_c, 6, 52, 127
8, 15744, Note_on_c, 6, 45, 127
8, 15792, Note_on_c, 6, 45, 0
8, 15792, Note_on_c, 6, 52, 0
8, 15792, Note_on_c, 6, 45, 98
8, 15792, Note_on_c, 6, 52, 98
8, 15840, Note_on_c, 6, 52, 0
8, 15840, Note_on_c, 6, 45, 0
8, 15840, Note_on_c, 6, 52, 127
8, 15840, Note_on_c, 6, 45, 127
8, 15888, Note_on_c, 6, 45, 0
8, 15888, Note_on_c, 6, 52, 0
8, 15888, Note_on_c, 6, 45, 98
8, 15888, Note_on_c, 6, 52, 98
8, 15936, Note_on_c, 6, 52, 0
8, 15936, Note_on_c, 6, 45, 0
8, 15936, Note_on_c, 6, 45, 127
8, 15936, Note_on_c, 6, 52, 127
8, 15984, Note_on_c, 6, 52, 0
8, 15984, Note_on_c, 6, 45, 0
8, 15984, Note_on_c, 6, 52, 100
8, 15984, Note_on_c, 6, 45, 100
8, 16032, Note_on_c, 6, 45, 0
8, 16032, Note_on_c, 6, 52, 0
8, 16032, Note_on_c, 6, 45, 127
8, 16032, Note_on_c, 6, 52, 127
8, 16080, Note_on_c, 6, 52, 0
8, 16080, Note_on_c, 6, 45, 0
8, 16080, Note_on_c, 6, 52, 99
8, 16080, Note_on_c, 6, 45, 99
8, 16128, Note_on_c, 6, 45, 0
8, 16128, Note_on_c, 6, 52, 0
8, 16128, Note_on_c, 6, 52, 127
8, 16128, Note_on_c, 6, 45, 127
8, 16176, Note_on_c, 6, 45, 0
8, 16176, Note_on_c, 6, 52, 0
8, 16176, Note_on_c, 6, 45, 98
8, 16176, Note_on_c, 6, 52, 98
8, 16224, Note_on_c, 6, 52, 0
8, 16224, Note_on_c, 6, 45, 0
8, 16224, Note_on_c, 6, 52, 127
8, 16224, Note_on_c, 6, 45, 127
8, 16272, Note_on_c, 6, 45, 0
8, 16272, Note_on_c, 6, 52, 0
8, 16272, Note_on_c, 6, 45, 98
8, 16272, Note_on_c, 6, 52, 98
8, 16320, Note_on_c, 6, 52, 0
8, 16320, Note_on_c, 6, 45, 0
8, 16320, Note_on_c, 6, 45, 127
8, 16320, Note_on_c, 6, 52, 127
8, 16368, Note_on_c, 6, 52, 0
8, 16368, Note_on_c, 6, 45, 0
8, 16368, Note_on_c, 6, 52, 100
8, 16368, Note_on_c, 6, 45, 100
8, 16416, Note_on_c, 6, 45, 0
8, 16416, Note_on_c, 6, 52, 0
8, 16416, Note_on_c, 6, 45, 127
8, 16416, Note_on_c, 6, 52, 127
8, 16464, Note_on_c, 6, 52, 0
8, 16464, Note_on_c, 6, 45, 0
8, 16464, Note_on_c, 6, 52, 99
8, 16464, Note_on_c, 6, 45, 99
8, 16512, Note_on_c, 6, 45, 0
8, 16512, Note_on_c, 6, 52, 0
8, 16512, Note_on_c, 6, 54, 127
8, 16512, Note_on_c, 6, 47, 127
8, 16560, Note_on_c, 6, 47, 0
8, 16560, Note_on_c, 6, 54, 0
8, 16560, Note_on_c, 6, 47, 98
8, 16560, Note_on_c, 6, 54, 98
8, 16608, Note_on_c, 6, 54, 0
8, 16608, Note_on_c, 6, 47, 0
8, 16608, Note_on_c, 6, 54, 127
8, 16608, Note_on_c, 6, 47, 127
8, 16656, Note_on_c, 6, 47, 0
8, 16656, Note_on_c, 6, 54, 0
8, 16656, Note_on_c, 6, 47, 98
8, 16656, Note_on_c, 6, 54, 98
8, 16704, Note_on_c, 6, 54, 0
8, 16704, Note_on_c, 6, 47, 0
8, 16704, Note_on_c, 6, 47, 127
8, 16704, Note_on_c, 6, 54, 127
8, 16752, Note_on_c, 6, 54, 0
8, 16752, Note_on_c, 6, 47, 0
8, 16752, Note_on_c, 6, 54, 100
8, 16752, Note_on_c, 6, 47, 100
8, 16800, Note_on_c, 6, 47, 0
8, 16800, Note_on_c, 6, 54, 0
8, 16800, Note_on_c, 6, 47, 127
8, 16800, Note_on_c, 6, 54, 127
8, 16848, Note_on_c, 6, 54, 0
8, 16848, Note_on_c, 6, 47, 0
8, 16848, Note_on_c, 6, 54, 99
8, 16848, Note_on_c, 6, 47, 99
8, 16896, Note_on_c, 6, 47, 0
8, 16896, Note_on_c, 6, 54, 0
8, 16896, Note_on_c, 6, 47, 127
8, 16896, Note_on_c, 6, 54, 127
8, 16992, Note_on_c, 6, 54, 0
8, 16992, Note_on_c, 6, 47, 0
8, 17280, Note_on_c, 6, 52, 127
8, 17280, Note_on_c, 6, 47, 127
8, 17328, Note_on_c, 6, 47, 0
8, 17328, Note_on_c, 6, 52, 0
8, 17328, Note_on_c, 6, 47, 98
8, 17328, Note_on_c, 6, 52, 98
8, 17376, Note_on_c, 6, 52, 0
8, 17376, Note_on_c, 6, 47, 0
8, 17376, Note_on_c, 6, 52, 127
8, 17376, Note_on_c, 6, 47, 127
8, 17424, Note_on_c, 6, 47, 0
8, 17424, Note_on_c, 6, 52, 0
8, 17424, Note_on_c, 6, 47, 98
8, 17424, Note_on_c, 6, 52, 98
8, 17472, Note_on_c, 6, 52, 0
8, 17472, Note_on_c, 6, 47, 0
8, 17472, Note_on_c, 6, 47, 127
8, 17472, Note_on_c, 6, 52, 127
8, 17520, Note_on_c, 6, 52, 0
8, 17520, Note_on_c, 6, 47, 0
8, 17520, Note_on_c, 6, 52, 100
8, 17520, Note_on_c, 6, 47, 100
8, 17568, Note_on_c, 6, 47, 0
8, 17568, Note_on_c, 6, 52, 0
8, 17568, Note_on_c, 6, 47, 127
8, 17568, Note_on_c, 6, 52, 127
8, 17616, Note_on_c, 6, 52, 0
8, 17616, Note_on_c, 6, 47, 0
8, 17616, Note_on_c, 6, 52, 99
8, 17616, Note_on_c, 6, 47, 99
8, 17664, Note_on_c, 6, 47, 0
8, 17664, Note_on_c, 6, 52, 0
8, 17664, Note_on_c, 6, 52, 127
8, 17664, Note_on_c, 6, 47, 127
8, 17712, Note_on_c, 6, 47, 0
8, 17712, Note_on_c, 6, 52, 0
8, 17712, Note_on_c, 6, 47, 98
8, 17712, Note_on_c, 6, 52, 98
8, 17760, Note_on_c, 6, 52, 0
8, 17760, Note_on_c, 6, 47, 0
8, 17760, Note_on_c, 6, 52, 127
8, 17760, Note_on_c, 6, 47, 127
8, 17808, Note_on_c, 6, 47, 0
8, 17808, Note_on_c, 6, 52, 0
8, 17808, Note_on_c, 6, 47, 98
8, 17808, Note_on_c, 6, 52, 98
8, 17856, Note_on_c, 6, 52, 0
8, 17856, Note_on_c, 6, 47, 0
8, 17856, Note_on_c, 6, 47, 127
8, 17856, Note_on_c, 6, 52, 127
8, 17904, Note_on_c, 6, 52, 0
8, 17904, Note_on_c, 6, 47, 0
8, 17904, Note_on_c, 6, 52, 100
8, 17904, Note_on_c, 6, 47, 100
8, 17952, Note_on_c, 6, 47, 0
8, 17952, Note_on_c, 6, 52, 0
8, 17952, Note_on_c, 6, 47, 127
8, 17952, Note_on_c, 6, 52, 127
8, 18000, Note_on_c, 6, 52, 0
8, 18000, Note_on_c, 6, 47, 0
8, 18000, Note_on_c, 6, 52, 99
8, 18000, Note_on_c, 6, 47, 99
8, 18048, Note_on_c, 6, 47, 0
8, 18048, Note_on_c, 6, 52, 0
8, 18048, Note_on_c, 6, 52, 127
8, 18048, Note_on_c, 6, 45, 127
8, 18096, Note_on_c, 6, 45, 0
8, 18096, Note_on_c, 6, 52, 0
8, 18096, Note_on_c, 6, 45, 98
8, 18096, Note_on_c, 6, 52, 98
8, 18144, Note_on_c, 6, 52, 0
8, 18144, Note_on_c, 6, 45, 0
8, 18144, Note_on_c, 6, 52, 127
8, 18144, Note_on_c, 6, 45, 127
8, 18192, Note_on_c, 6, 45, 0
8, 18192, Note_on_c, 6, 52, 0
8, 18192, Note_on_c, 6, 45, 98
8, 18192, Note_on_c, 6, 52, 98
8, 18240, Note_on_c, 6, 52, 0
8, 18240, Note_on_c, 6, 45, 0
8, 18240, Note_on_c, 6, 45, 127
8, 18240, Note_on_c, 6, 52, 127
8, 18288, Note_on_c, 6, 52, 0
8, 18288, Note_on_c, 6, 45, 0
8, 18288, Note_on_c, 6, 52, 100
8, 18288, Note_on_c, 6, 45, 100
8, 18336, Note_on_c, 6, 45, 0
8, 18336, Note_on_c, 6, 52, 0
8, 18336, Note_on_c, 6, 45, 127
8, 18336, Note_on_c, 6, 52, 127
8, 18384, Note_on_c, 6, 52, 0
8, 18384, Note_on_c, 6, 45, 0
8, 18384, Note_on_c, 6, 52, 99
8, 18384, Note_on_c, 6, 45, 99
8, 18432, Note_on_c, 6, 45, 0
8, 18432, Note_on_c, 6, 52, 0
8, 18432, Note_on_c, 6, 45, 127
8, 18432, Note_on_c, 6, 52, 127
8, 18480, Note_on_c, 6, 52, 0
8, 18480, Note_on_c, 6, 45, 0
8, 18480, Note_on_c, 6, 45, 98
8, 18480, Note_on_c, 6, 52, 98
8, 18528, Note_on_c, 6, 52, 0
8, 18528, Note_on_c, 6, 45, 0
8, 18528, Note_on_c, 6, 52, 127
8, 18528, Note_on_c, 6, 45, 127
8, 18576, Note_on_c, 6, 45, 0
8, 18576, Note_on_c, 6, 52, 0
8, 18576, Note_on_c, 6, 45, 98
8, 18576, Note_on_c, 6, 52, 98
8, 18624, Note_on_c, 6, 52, 0
8, 18624, Note_on_c, 6, 45, 0
8, 18624, Note_on_c, 6, 45, 127
8, 18624, Note_on_c, 6, 52, 127
8, 18672, Note_on_c, 6, 52, 0
8, 18672, Note_on_c, 6, 45, 0
8, 18672, Note_on_c, 6, 52, 100
8, 18672, Note_on_c, 6, 45, 100
8, 18720, Note_on_c, 6, 45, 0
8, 18720, Note_on_c, 6, 52, 0
8, 18720, Note_on_c, 6, 45, 127
8, 18720, Note_on_c, 6, 52, 127
8, 18768, Note_on_c, 6, 52, 0
8, 18768, Note_on_c, 6, 45, 0
8, 18768, Note_on_c, 6, 52, 99
8, 18768, Note_on_c, 6, 45, 99
8, 18816, Note_on_c, 6, 45, 0
8, 18816, Note_on_c, 6, 52, 0
8, 18816, Note_on_c, 6, 52, 127
8, 18816, Note_on_c, 6, 47, 127
8, 18864, Note_on_c, 6, 47, 0
8, 18864, Note_on_c, 6, 52, 0
8, 18864, Note_on_c, 6, 47, 98
8, 18864, Note_on_c, 6, 52, 98
8, 18912, Note_on_c, 6, 52, 0
8, 18912, Note_on_c, 6, 47, 0
8, 18912, Note_on_c, 6, 52, 127
8, 18912, Note_on_c, 6, 47, 127
8, 18960, Note_on_c, 6, 47, 0
8, 18960, Note_on_c, 6, 52, 0
8, 18960, Note_on_c, 6, 47, 98
8, 18960, Note_on_c, 6, 52, 98
8, 19008, Note_on_c, 6, 52, 0
8, 19008, Note_on_c, 6, 47, 0
8, 19008, Note_on_c, 6, 47, 127
8, 19008, Note_on_c, 6, 52, 127
8, 19056, Note_on_c, 6, 52, 0
8, 19056, Note_on_c, 6, 47, 0
8, 19056, Note_on_c, 6, 52, 100
8, 19056, Note_on_c, 6, 47, 100
8, 19104, Note_on_c, 6, 47, 0
8, 19104, Note_on_c, 6, 52, 0
8, 19104, Note_on_c, 6, 47, 127
8, 19104, Note_on_c, 6, 52, 127
8, 19152, Note_on_c, 6, 52, 0
8, 19152, Note_on_c, 6, 47, 0
8, 19152, Note_on_c, 6, 52, 99
8, 19152, Note_on_c, 6, 47, 99
8, 19200, Note_on_c, 6, 47, 0
8, 19200, Note_on_c, 6, 52, 0
8, 19200, Note_on_c, 6, 52, 127
8, 19200, Note_on_c, 6, 47, 127
8, 19248, Note_on_c, 6, 47, 0
8, 19248, Note_on_c, 6, 52, 0
8, 19248, Note_on_c, 6, 47, 98
8, 19248, Note_on_c, 6, 52, 98
8, 19296, Note_on_c, 6, 52, 0
8, 19296, Note_on_c, 6, 47, 0
8, 19296, Note_on_c, 6, 52, 127
8, 19296, Note_on_c, 6, 47, 127
8, 19344, Note_on_c, 6, 47, 0
8, 19344, Note_on_c, 6, 52, 0
8, 19344, Note_on_c, 6, 47, 98
8, 19344, Note_on_c, 6, 52, 98
8, 19392, Note_on_c, 6, 52, 0
8, 19392, Note_on_c, 6, 47, 0
8, 19392, Note_on_c, 6, 47, 127
8, 19392, Note_on_c, 6, 52, 127
8, 19440, Note_on_c, 6, 52, 0
8, 19440, Note_on_c, 6, 47, 0
8, 19440, Note_on_c, 6, 52, 100
8, 19440, Note_on_c, 6, 47, 100
8, 19488, Note_on_c, 6, 47, 0
8, 19488, Note_on_c, 6, 52, 0
8, 19488, Note_on_c, 6, 47, 127
8, 19488, Note_on_c, 6, 52, 127
8, 19536, Note_on_c, 6, 52, 0
8, 19536, Note_on_c, 6, 47, 0
8, 19536, Note_on_c, 6, 52, 99
8, 19536, Note_on_c, 6, 47, 99
8, 19584, Note_on_c, 6, 47, 0
8, 19584, Note_on_c, 6, 52, 0
8, 19584, Note_on_c, 6, 52, 127
8, 19584, Note_on_c, 6, 45, 127
8, 19632, Note_on_c, 6, 45, 0
8, 19632, Note_on_c, 6, 52, 0
8, 19632, Note_on_c, 6, 45, 98
8, 19632, Note_on_c, 6, 52, 98
8, 19680, Note_on_c, 6, 52, 0
8, 19680, Note_on_c, 6, 45, 0
8, 19680, Note_on_c, 6, 52, 127
8, 19680, Note_on_c, 6, 45, 127
8, 19728, Note_on_c, 6, 45, 0
8, 19728, Note_on_c, 6, 52, 0
8, 19728, Note_on_c, 6, 45, 98
8, 19728, Note_on_c, 6, 52, 98
8, 19776, Note_on_c, 6, 52, 0
8, 19776, Note_on_c, 6, 45, 0
8, 19776, Note_on_c, 6, 45, 127
8, 19776, Note_on_c, 6, 52, 127
8, 19824, Note_on_c, 6, 52, 0
8, 19824, Note_on_c, 6, 45, 0
8, 19824, Note_on_c, 6, 52, 100
8, 19824, Note_on_c, 6, 45, 100
8, 19872, Note_on_c, 6, 45, 0
8, 19872, Note_on_c, 6, 52, 0
8, 19872, Note_on_c, 6, 45, 127
8, 19872, Note_on_c, 6, 52, 127
8, 19920, Note_on_c, 6, 52, 0
8, 19920, Note_on_c, 6, 45, 0
8, 19920, Note_on_c, 6, 52, 99
8, 19920, Note_on_c, 6, 45, 99
8, 19968, Note_on_c, 6, 45, 0
8, 19968, Note_on_c, 6, 52, 0
8, 19968, Note_on_c, 6, 45, 127
8, 19968, Note_on_c, 6, 52, 127
8, 20016, Note_on_c, 6, 52, 0
8, 20016, Note_on_c, 6, 45, 0
8, 20016, Note_on_c, 6, 45, 98
8, 20016, Note_on_c, 6, 52, 98
8, 20064, Note_on_c, 6, 52, 0
8, 20064, Note_on_c, 6, 45, 0
8, 20064, Note_on_c, 6, 52, 127
8, 20064, Note_on_c, 6, 45, 127
8, 20112, Note_on_c, 6, 45, 0
8, 20112, Note_on_c, 6, 52, 0
8, 20112, Note_on_c, 6, 45, 98
8, 20112, Note_on_c, 6, 52, 98
8, 20160, Note_on_c, 6, 52, 0
8, 20160, Note_on_c, 6, 45, 0
8, 20160, Note_on_c, 6, 45, 127
8, 20160, Note_on_c, 6, 52, 127
8, 20208, Note_on_c, 6, 52, 0
8, 20208, Note_on_c, 6, 45, 0
8, 20208, Note_on_c, 6, 52, 100
8, 20208, Note_on_c, 6, 45, 100
8, 20256, Note_on_c, 6, 45, 0
8, 20256, Note_on_c, 6, 52, 0
8, 20256, Note_on_c, 6, 45, 127
8, 20256, Note_on_c, 6, 52, 127
8, 20304, Note_on_c, 6, 52, 0
8, 20304, Note_on_c, 6, 45, 0
8, 20304, Note_on_c, 6, 52, 99
8, 20304, Note_on_c, 6, 45, 99
8, 20352, Note_on_c, 6, 45, 0
8, 20352, Note_on_c, 6, 52, 0
8, 20352, Note_on_c, 6, 52, 127
8, 20352, Note_on_c, 6, 47, 127
8, 20424, Note_on_c, 6, 47, 0
8, 20424, Note_on_c, 6, 52, 0
8, 20736, Note_on_c, 6, 54, 127
8, 20736, Note_on_c, 6, 47, 127
8, 20784, Note_on_c, 6, 47, 0
8, 20784, Note_on_c, 6, 54, 0
8, 20784, Note_on_c, 6, 47, 98
8, 20784, Note_on_c, 6, 54, 98
8, 20832, Note_on_c, 6, 54, 0
8, 20832, Note_on_c, 6, 47, 0
8, 20832, Note_on_c, 6, 54, 127
8, 20832, Note_on_c, 6, 47, 127
8, 20880, Note_on_c, 6, 47, 0
8, 20880, Note_on_c, 6, 54, 0
8, 20880, Note_on_c, 6, 47, 98
8, 20880, Note_on_c, 6, 54, 98
8, 20928, Note_on_c, 6, 54, 0
8, 20928, Note_on_c, 6, 47, 0
8, 20928, Note_on_c, 6, 47, 127
8, 20928, Note_on_c, 6, 54, 127
8, 20976, Note_on_c, 6, 54, 0
8, 20976, Note_on_c, 6, 47, 0
8, 20976, Note_on_c, 6, 54, 100
8, 20976, Note_on_c, 6, 47, 100
8, 21024, Note_on_c, 6, 47, 0
8, 21024, Note_on_c, 6, 54, 0
8, 21024, Note_on_c, 6, 47, 127
8, 21024, Note_on_c, 6, 54, 127
8, 21072, Note_on_c, 6, 54, 0
8, 21072, Note_on_c, 6, 47, 0
8, 21072, Note_on_c, 6, 54, 99
8, 21072, Note_on_c, 6, 47, 99
8, 21120, Note_on_c, 6, 47, 0
8, 21120, Note_on_c, 6, 54, 0
8, 21120, Note_on_c, 6, 47, 127
8, 21120, Note_on_c, 6, 54, 127
8, 21168, Note_on_c, 6, 54, 0
8, 21168, Note_on_c, 6, 47, 0
8, 21168, Note_on_c, 6, 47, 98
8, 21168, Note_on_c, 6, 54, 98
8, 21216, Note_on_c, 6, 54, 0
8, 21216, Note_on_c, 6, 47, 0
8, 21216, Note_on_c, 6, 54, 127
8, 21216, Note_on_c, 6, 47, 127
8, 21264, Note_on_c, 6, 47, 0
8, 21264, Note_on_c, 6, 54, 0
8, 21264, Note_on_c, 6, 47, 98
8, 21264, Note_on_c, 6, 54, 98
8, 21312, Note_on_c, 6, 54, 0
8, 21312, Note_on_c, 6, 47, 0
8, 21312, Note_on_c, 6, 47, 127
8, 21312, Note_on_c, 6, 54, 127
8, 21360, Note_on_c, 6, 54, 0
8, 21360, Note_on_c, 6, 47, 0
8, 21360, Note_on_c, 6, 54, 100
8, 21360, Note_on_c, 6, 47, 100
8, 21408, Note_on_c, 6, 47, 0
8, 21408, Note_on_c, 6, 54, 0
8, 21408, Note_on_c, 6, 47, 127
8, 21408, Note_on_c, 6, 54, 127
8, 21456, Note_on_c, 6, 54, 0
8, 21456, Note_on_c, 6, 47, 0
8, 21456, Note_on_c, 6, 54, 99
8, 21456, Note_on_c, 6, 47, 99
8, 21504, Note_on_c, 6, 47, 0
8, 21504, Note_on_c, 6, 54, 0
8, 21504, Note_on_c, 6, 52, 127
8, 21504, Note_on_c, 6, 47, 127
8, 21552, Note_on_c, 6, 47, 0
8, 21552, Note_on_c, 6, 52, 0
8, 21552, Note_on_c, 6, 47, 95
8, 21552, Note_on_c, 6, 52, 95
8, 21600, Note_on_c, 6, 52, 0
8, 21600, Note_on_c, 6, 47, 0
8, 21600, Note_on_c, 6, 52, 127
8, 21600, Note_on_c, 6, 47, 127
8, 21648, Note_on_c, 6, 47, 0
8, 21648, Note_on_c, 6, 52, 0
8, 21648, Note_on_c, 6, 47, 99
8, 21648, Note_on_c, 6, 52, 99
8, 21696, Note_on_c, 6, 52, 0
8, 21696, Note_on_c, 6, 47, 0
8, 21696, Note_on_c, 6, 47, 127
8, 21696, Note_on_c, 6, 52, 127
8, 21744, Note_on_c, 6, 52, 0
8, 21744, Note_on_c, 6, 47, 0
8, 21744, Note_on_c, 6, 52, 99
8, 21744, Note_on_c, 6, 47, 99
8, 21792, Note_on_c, 6, 47, 0
8, 21792, Note_on_c, 6, 52, 0
8, 21792, Note_on_c, 6, 47, 127
8, 21792, Note_on_c, 6, 52, 127
8, 21840, Note_on_c, 6, 52, 0
8, 21840, Note_on_c, 6, 47, 0
8, 21840, Note_on_c, 6, 52, 99
8, 21840, Note_on_c, 6, 47, 99
8, 21888, Note_on_c, 6, 47, 0
8, 21888, Note_on_c, 6, 52, 0
8, 21888, Note_on_c, 6, 52, 127
8, 21888, Note_on_c, 6, 47, 127
8, 21936, Note_on_c, 6, 47, 0
8, 21936, Note_on_c, 6, 52, 0
8, 21936, Note_on_c, 6, 47, 95
8, 21936, Note_on_c, 6, 52, 95
8, 21984, Note_on_c, 6, 52, 0
8, 21984, Note_on_c, 6, 47, 0
8, 21984, Note_on_c, 6, 52, 127
8, 21984, Note_on_c, 6, 47, 127
8, 22032, Note_on_c, 6, 47, 0
8, 22032, Note_on_c, 6, 52, 0
8, 22032, Note_on_c, 6, 47, 101
8, 22032, Note_on_c, 6, 52, 101
8, 22080, Note_on_c, 6, 52, 0
8, 22080, Note_on_c, 6, 47, 0
8, 22080, Note_on_c, 6, 47, 127
8, 22080, Note_on_c, 6, 52, 127
8, 22128, Note_on_c, 6, 52, 0
8, 22128, Note_on_c, 6, 47, 0
8, 22128, Note_on_c, 6, 52, 100
8, 22128, Note_on_c, 6, 47, 100
8, 22176, Note_on_c, 6, 47, 0
8, 22176, Note_on_c, 6, 52, 0
8, 22176, Note_on_c, 6, 47, 127
8, 22176, Note_on_c, 6, 52, 127
8, 22224, Note_on_c, 6, 52, 0
8, 22224, Note_on_c, 6, 47, 0
8, 22224, Note_on_c, 6, 52, 100
8, 22224, Note_on_c, 6, 47, 100
8, 22272, Note_on_c, 6, 47, 0
8, 22272, Note_on_c, 6, 52, 0
8, 22272, Note_on_c, 6, 52, 127
8, 22272, Note_on_c, 6, 47, 127
8, 22320, Note_on_c, 6, 47, 0
8, 22320, Note_on_c, 6, 52, 0
8, 22320, Note_on_c, 6, 47, 98
8, 22320, Note_on_c, 6, 52, 98
8, 22368, Note_on_c, 6, 52, 0
8, 22368, Note_on_c, 6, 47, 0
8, 22368, Note_on_c, 6, 52, 127
8, 22368, Note_on_c, 6, 47, 127
8, 22416, Note_on_c, 6, 47, 0
8, 22416, Note_on_c, 6, 52, 0
8, 22416, Note_on_c, 6, 47, 98
8, 22416, Note_on_c, 6, 52, 98
8, 22464, Note_on_c, 6, 52, 0
8, 22464, Note_on_c, 6, 47, 0
8, 22464, Note_on_c, 6, 47, 127
8, 22464, Note_on_c, 6, 52, 127
8, 22512, Note_on_c, 6, 52, 0
8, 22512, Note_on_c, 6, 47, 0
8, 22512, Note_on_c, 6, 52, 100
8, 22512, Note_on_c, 6, 47, 100
8, 22560, Note_on_c, 6, 47, 0
8, 22560, Note_on_c, 6, 52, 0
8, 22560, Note_on_c, 6, 47, 127
8, 22560, Note_on_c, 6, 52, 127
8, 22608, Note_on_c, 6, 52, 0
8, 22608, Note_on_c, 6, 47, 0
8, 22608, Note_on_c, 6, 52, 99
8, 22608, Note_on_c, 6, 47, 99
8, 22656, Note_on_c, 6, 47, 0
8, 22656, Note_on_c, 6, 52, 0
8, 22656, Note_on_c, 6, 52, 127
8, 22656, Note_on_c, 6, 47, 127
8, 22704, Note_on_c, 6, 47, 0
8, 22704, Note_on_c, 6, 52, 0
8, 22704, Note_on_c, 6, 47, 98
8, 22704, Note_on_c, 6, 52, 98
8, 22752, Note_on_c, 6, 52, 0
8, 22752, Note_on_c, 6, 47, 0
8, 22752, Note_on_c, 6, 52, 127
8, 22752, Note_on_c, 6, 47, 127
8, 22800, Note_on_c, 6, 47, 0
8, 22800, Note_on_c, 6, 52, 0
8, 22800, Note_on_c, 6, 47, 98
8, 22800, Note_on_c, 6, 52, 98
8, 22848, Note_on_c, 6, 52, 0
8, 22848, Note_on_c, 6, 47, 0
8, 22848, Note_on_c, 6, 47, 127
8, 22848, Note_on_c, 6, 52, 127
8, 22896, Note_on_c, 6, 52, 0
8, 22896, Note_on_c, 6, 47, 0
8, 22896, Note_on_c, 6, 52, 100
8, 22896, Note_on_c, 6, 47, 100
8, 22944, Note_on_c, 6, 47, 0
8, 22944, Note_on_c, 6, 52, 0
8, 22944, Note_on_c, 6, 47, 127
8, 22944, Note_on_c, 6, 52, 127
8, 22992, Note_on_c, 6, 52, 0
8, 22992, Note_on_c, 6, 47, 0
8, 22992, Note_on_c, 6, 52, 99
8, 22992, Note_on_c, 6, 47, 99
8, 23040, Note_on_c, 6, 47, 0
8, 23040, Note_on_c, 6, 52, 0
8, 23040, Note_on_c, 6, 52, 127
8, 23040, Note_on_c, 6, 47, 127
8, 23088, Note_on_c, 6, 47, 0
8, 23088, Note_on_c, 6, 52, 0
8, 23088, Note_on_c, 6, 47, 98
8, 23088, Note_on_c, 6, 52, 98
8, 23136, Note_on_c, 6, 52, 0
8, 23136, Note_on_c, 6, 47, 0
8, 23136, Note_on_c, 6, 52, 127
8, 23136, Note_on_c, 6, 47, 127
8, 23184, Note_on_c, 6, 47, 0
8, 23184, Note_on_c, 6, 52, 0
8, 23184, Note_on_c, 6, 47, 98
8, 23184, Note_on_c, 6, 52, 98
8, 23232, Note_on_c, 6, 52, 0
8, 23232, Note_on_c, 6, 47, 0
8, 23232, Note_on_c, 6, 47, 127
8, 23232, Note_on_c, 6, 52, 127
8, 23280, Note_on_c, 6, 52, 0
8, 23280, Note_on_c, 6, 47, 0
8, 23280, Note_on_c, 6, 52, 100
8, 23280, Note_on_c, 6, 47, 100
8, 23328, Note_on_c, 6, 47, 0
8, 23328, Note_on_c, 6, 52, 0
8, 23328, Note_on_c, 6, 47, 127
8, 23328, Note_on_c, 6, 52, 127
8, 23376, Note_on_c, 6, 52, 0
8, 23376, Note_on_c, 6, 47, 0
8, 23376, Note_on_c, 6, 52, 99
8, 23376, Note_on_c, 6, 47, 99
8, 23424, Note_on_c, 6, 47, 0
8, 23424, Note_on_c, 6, 52, 0
8, 23424, Note_on_c, 6, 52, 127
8, 23424, Note_on_c, 6, 47, 127
8, 23472, Note_on_c, 6, 47, 0
8, 23472, Note_on_c, 6, 52, 0
8, 23472, Note_on_c, 6, 47, 98
8, 23472, Note_on_c, 6, 52, 98
8, 23520, Note_on_c, 6, 52, 0
8, 23520, Note_on_c, 6, 47, 0
8, 23520, Note_on_c, 6, 52, 127
8, 23520, Note_on_c, 6, 47, 127
8, 23568, Note_on_c, 6, 47, 0
8, 23568, Note_on_c, 6, 52, 0
8, 23568, Note_on_c, 6, 47, 98
8, 23568, Note_on_c, 6, 52, 98
8, 23616, Note_on_c, 6, 52, 0
8, 23616, Note_on_c, 6, 47, 0
8, 23616, Note_on_c, 6, 47, 127
8, 23616, Note_on_c, 6, 52, 127
8, 23664, Note_on_c, 6, 52, 0
8, 23664, Note_on_c, 6, 47, 0
8, 23664, Note_on_c, 6, 52, 100
8, 23664, Note_on_c, 6, 47, 100
8, 23712, Note_on_c, 6, 47, 0
8, 23712, Note_on_c, 6, 52, 0
8, 23712, Note_on_c, 6, 47, 127
8, 23712, Note_on_c, 6, 52, 127
8, 23760, Note_on_c, 6, 52, 0
8, 23760, Note_on_c, 6, 47, 0
8, 23760, Note_on_c, 6, 52, 99
8, 23760, Note_on_c, 6, 47, 99
8, 23808, Note_on_c, 6, 47, 0
8, 23808, Note_on_c, 6, 52, 0
8, 23808, Note_on_c, 6, 52, 127
8, 23808, Note_on_c, 6, 47, 127
8, 23856, Note_on_c, 6, 47, 0
8, 23856, Note_on_c, 6, 52, 0
8, 23856, Note_on_c, 6, 47, 98
8, 23856, Note_on_c, 6, 52, 98
8, 23904, Note_on_c, 6, 52, 0
8, 23904, Note_on_c, 6, 47, 0
8, 23904, Note_on_c, 6, 52, 127
8, 23904, Note_on_c, 6, 47, 127
8, 23952, Note_on_c, 6, 47, 0
8, 23952, Note_on_c, 6, 52, 0
8, 23952, Note_on_c, 6, 47, 98
8, 23952, Note_on_c, 6, 52, 98
8, 24000, Note_on_c, 6, 52, 0
8, 24000, Note_on_c, 6, 47, 0
8, 24000, Note_on_c, 6, 47, 127
8, 24000, Note_on_c, 6, 52, 127
8, 24048, Note_on_c, 6, 52, 0
8, 24048, Note_on_c, 6, 47, 0
8, 24048, Note_on_c, 6, 52, 100
8, 24048, Note_on_c, 6, 47, 100
8, 24096, Note_on_c, 6, 47, 0
8, 24096, Note_on_c, 6, 52, 0
8, 24096, Note_on_c, 6, 47, 127
8, 24096, Note_on_c, 6, 52, 127
8, 24144, Note_on_c, 6, 52, 0
8, 24144, Note_on_c, 6, 47, 0
8, 24144, Note_on_c, 6, 52, 99
8, 24144, Note_on_c, 6, 47, 99
8, 24192, Note_on_c, 6, 47, 0
8, 24192, Note_on_c, 6, 52, 0
8, 24192, Note_on_c, 6, 52, 127
8, 24192, Note_on_c, 6, 47, 127
8, 24240, Note_on_c, 6, 47, 0
8, 24240, Note_on_c, 6, 52, 0
8, 24240, Note_on_c, 6, 47, 98
8, 24240, Note_on_c, 6, 52, 98
8, 24288, Note_on_c, 6, 52, 0
8, 24288, Note_on_c, 6, 47, 0
8, 24288, Note_on_c, 6, 52, 127
8, 24288, Note_on_c, 6, 47, 127
8, 24336, Note_on_c, 6, 47, 0
8, 24336, Note_on_c, 6, 52, 0
8, 24336, Note_on_c, 6, 47, 98
8, 24336, Note_on_c, 6, 52, 98
8, 24384, Note_on_c, 6, 52, 0
8, 24384, Note_on_c, 6, 47, 0
8, 24384, Note_on_c, 6, 47, 127
8, 24384, Note_on_c, 6, 52, 127
8, 24432, Note_on_c, 6, 52, 0
8, 24432, Note_on_c, 6, 47, 0
8, 24432, Note_on_c, 6, 52, 100
8, 24432, Note_on_c, 6, 47, 100
8, 24480, Note_on_c, 6, 47, 0
8, 24480, Note_on_c, 6, 52, 0
8, 24480, Note_on_c, 6, 47, 127
8, 24480, Note_on_c, 6, 52, 127
8, 24528, Note_on_c, 6, 52, 0
8, 24528, Note_on_c, 6, 47, 0
8, 24528, Note_on_c, 6, 52, 99
8, 24528, Note_on_c, 6, 47, 99
8, 24576, Note_on_c, 6, 47, 0
8, 24576, Note_on_c, 6, 52, 0
8, 24576, Note_on_c, 6, 54, 127
8, 24576, Note_on_c, 6, 47, 127
8, 24624, Note_on_c, 6, 47, 0
8, 24624, Note_on_c, 6, 54, 0
8, 24624, Note_on_c, 6, 47, 98
8, 24624, Note_on_c, 6, 54, 98
8, 24672, Note_on_c, 6, 54, 0
8, 24672, Note_on_c, 6, 47, 0
8, 24672, Note_on_c, 6, 54, 127
8, 24672, Note_on_c, 6, 47, 127
8, 24720, Note_on_c, 6, 47, 0
8, 24720, Note_on_c, 6, 54, 0
8, 24720, Note_on_c, 6, 47, 98
8, 24720, Note_on_c, 6, 54, 98
8, 24768, Note_on_c, 6, 54, 0
8, 24768, Note_on_c, 6, 47, 0
8, 24768, Note_on_c, 6, 47, 127
8, 24768, Note_on_c, 6, 54, 127
8, 24816, Note_on_c, 6, 54, 0
8, 24816, Note_on_c, 6, 47, 0
8, 24816, Note_on_c, 6, 54, 100
8, 24816, Note_on_c, 6, 47, 100
8, 24864, Note_on_c, 6, 47, 0
8, 24864, Note_on_c, 6, 54, 0
8, 24864, Note_on_c, 6, 47, 127
8, 24864, Note_on_c, 6, 54, 127
8, 24912, Note_on_c, 6, 54, 0
8, 24912, Note_on_c, 6, 47, 0
8, 24912, Note_on_c, 6, 54, 99
8, 24912, Note_on_c, 6, 47, 99
8, 24960, Note_on_c, 6, 47, 0
8, 24960, Note_on_c, 6, 54, 0
8, 25008, Note_on_c, 6, 47, 98
8, 25008, Note_on_c, 6, 54, 98
8, 25032, Note_on_c, 6, 54, 0
8, 25032, Note_on_c, 6, 47, 0
8, 25104, Note_on_c, 6, 47, 98
8, 25104, Note_on_c, 6, 54, 98
8, 25128, Note_on_c, 6, 54, 0
8, 25128, Note_on_c, 6, 47, 0
8, 25200, Note_on_c, 6, 54, 100
8, 25200, Note_on_c, 6, 47, 100
8, 25248, Note_on_c, 6, 47, 0
8, 25248, Note_on_c, 6, 54, 0
8, 25248, Note_on_c, 6, 47, 127
8, 25248, Note_on_c, 6, 54, 127
8, 25296, Note_on_c, 6, 54, 0
8, 25296, Note_on_c, 6, 47, 0
8, 25296, Note_on_c, 6, 54, 99
8, 25296, Note_on_c, 6, 47, 99
8, 25344, Note_on_c, 6, 47, 0
8, 25344, Note_on_c, 6, 54, 0
8, 25344, Note_on_c, 6, 52, 127
8, 25344, Note_on_c, 6, 47, 127
8, 25392, Note_on_c, 6, 47, 0
8, 25392, Note_on_c, 6, 52, 0
8, 25392, Note_on_c, 6, 47, 98
8, 25392, Note_on_c, 6, 52, 98
8, 25440, Note_on_c, 6, 52, 0
8, 25440, Note_on_c, 6, 47, 0
8, 25440, Note_on_c, 6, 52, 127
8, 25440, Note_on_c, 6, 47, 127
8, 25488, Note_on_c, 6, 47, 0
8, 25488, Note_on_c, 6, 52, 0
8, 25488, Note_on_c, 6, 47, 98
8, 25488, Note_on_c, 6, 52, 98
8, 25536, Note_on_c, 6, 52, 0
8, 25536, Note_on_c, 6, 47, 0
8, 25536, Note_on_c, 6, 47, 127
8, 25536, Note_on_c, 6, 52, 127
8, 25584, Note_on_c, 6, 52, 0
8, 25584, Note_on_c, 6, 47, 0
8, 25584, Note_on_c, 6, 52, 100
8, 25584, Note_on_c, 6, 47, 100
8, 25632, Note_on_c, 6, 47, 0
8, 25632, Note_on_c, 6, 52, 0
8, 25632, Note_on_c, 6, 47, 127
8, 25632, Note_on_c, 6, 52, 127
8, 25680, Note_on_c, 6, 52, 0
8, 25680, Note_on_c, 6, 47, 0
8, 25680, Note_on_c, 6, 52, 99
8, 25680, Note_on_c, 6, 47, 99
8, 25728, Note_on_c, 6, 47, 0
8, 25728, Note_on_c, 6, 52, 0
8, 25728, Note_on_c, 6, 52, 127
8, 25728, Note_on_c, 6, 47, 127
8, 25776, Note_on_c, 6, 47, 0
8, 25776, Note_on_c, 6, 52, 0
8, 25776, Note_on_c, 6, 47, 98
8, 25776, Note_on_c, 6, 52, 98
8, 25824, Note_on_c, 6, 52, 0
8, 25824, Note_on_c, 6, 47, 0
8, 25824, Note_on_c, 6, 52, 127
8, 25824, Note_on_c, 6, 47, 127
8, 25872, Note_on_c, 6, 47, 0
8, 25872, Note_on_c, 6, 52, 0
8, 25872, Note_on_c, 6, 47, 98
8, 25872, Note_on_c, 6, 52, 98
8, 25920, Note_on_c, 6, 52, 0
8, 25920, Note_on_c, 6, 47, 0
8, 25920, Note_on_c, 6, 47, 127
8, 25920, Note_on_c, 6, 52, 127
8, 25968, Note_on_c, 6, 52, 0
8, 25968, Note_on_c, 6, 47, 0
8, 25968, Note_on_c, 6, 52, 100
8, 25968, Note_on_c, 6, 47, 100
8, 26016, Note_on_c, 6, 47, 0
8, 26016, Note_on_c, 6, 52, 0
8, 26016, Note_on_c, 6, 47, 127
8, 26016, Note_on_c, 6, 52, 127
8, 26064, Note_on_c, 6, 52, 0
8, 26064, Note_on_c, 6, 47, 0
8, 26064, Note_on_c, 6, 52, 99
8, 26064, Note_on_c, 6, 47, 99
8, 26112, Note_on_c, 6, 47, 0
8, 26112, Note_on_c, 6, 52, 0
8, 26112, Note_on_c, 6, 52, 127
8, 26112, Note_on_c, 6, 45, 127
8, 26160, Note_on_c, 6, 45, 0
8, 26160, Note_on_c, 6, 52, 0
8, 26160, Note_on_c, 6, 45, 98
8, 26160, Note_on_c, 6, 52, 98
8, 26208, Note_on_c, 6, 52, 0
8, 26208, Note_on_c, 6, 45, 0
8, 26208, Note_on_c, 6, 52, 127
8, 26208, Note_on_c, 6, 45, 127
8, 26256, Note_on_c, 6, 45, 0
8, 26256, Note_on_c, 6, 52, 0
8, 26256, Note_on_c, 6, 45, 98
8, 26256, Note_on_c, 6, 52, 98
8, 26304, Note_on_c, 6, 52, 0
8, 26304, Note_on_c, 6, 45, 0
8, 26304, Note_on_c, 6, 45, 127
8, 26304, Note_on_c, 6, 52, 127
8, 26352, Note_on_c, 6, 52, 0
8, 26352, Note_on_c, 6, 45, 0
8, 26352, Note_on_c, 6, 52, 100
8, 26352, Note_on_c, 6, 45, 100
8, 26400, Note_on_c, 6, 45, 0
8, 26400, Note_on_c, 6, 52, 0
8, 26400, Note_on_c, 6, 45, 127
8, 26400, Note_on_c, 6, 52, 127
8, 26448, Note_on_c, 6, 52, 0
8, 26448, Note_on_c, 6, 45, 0
8, 26448, Note_on_c, 6, 52, 99
8, 26448, Note_on_c, 6, 45, 99
8, 26496, Note_on_c, 6, 45, 0
8, 26496, Note_on_c, 6, 52, 0
8, 26496, Note_on_c, 6, 52, 127
8, 26496, Note_on_c, 6, 45, 127
8, 26544, Note_on_c, 6, 45, 0
8, 26544, Note_on_c, 6, 52, 0
8, 26544, Note_on_c, 6, 45, 98
8, 26544, Note_on_c, 6, 52, 98
8, 26592, Note_on_c, 6, 52, 0
8, 26592, Note_on_c, 6, 45, 0
8, 26592, Note_on_c, 6, 52, 127
8, 26592, Note_on_c, 6, 45, 127
8, 26640, Note_on_c, 6, 45, 0
8, 26640, Note_on_c, 6, 52, 0
8, 26640, Note_on_c, 6, 45, 98
8, 26640, Note_on_c, 6, 52, 98
8, 26688, Note_on_c, 6, 52, 0
8, 26688, Note_on_c, 6, 45, 0
8, 26688, Note_on_c, 6, 45, 127
8, 26688, Note_on_c, 6, 52, 127
8, 26736, Note_on_c, 6, 52, 0
8, 26736, Note_on_c, 6, 45, 0
8, 26736, Note_on_c, 6, 52, 100
8, 26736, Note_on_c, 6, 45, 100
8, 26784, Note_on_c, 6, 45, 0
8, 26784, Note_on_c, 6, 52, 0
8, 26784, Note_on_c, 6, 45, 127
8, 26784, Note_on_c, 6, 52, 127
8, 26832, Note_on_c, 6, 52, 0
8, 26832, Note_on_c, 6, 45, 0
8, 26832, Note_on_c, 6, 52, 99
8, 26832, Note_on_c, 6, 45, 99
8, 26880, Note_on_c, 6, 45, 0
8, 26880, Note_on_c, 6, 52, 0
8, 26880, Note_on_c, 6, 54, 127
8, 26880, Note_on_c, 6, 47, 127
8, 26928, Note_on_c, 6, 47, 0
8, 26928, Note_on_c, 6, 54, 0
8, 26928, Note_on_c, 6, 47, 98
8, 26928, Note_on_c, 6, 54, 98
8, 26976, Note_on_c, 6, 54, 0
8, 26976, Note_on_c, 6, 47, 0
8, 26976, Note_on_c, 6, 54, 127
8, 26976, Note_on_c, 6, 47, 127
8, 27024, Note_on_c, 6, 47, 0
8, 27024, Note_on_c, 6, 54, 0
8, 27024, Note_on_c, 6, 47, 98
8, 27024, Note_on_c, 6, 54, 98
8, 27072, Note_on_c, 6, 54, 0
8, 27072, Note_on_c, 6, 47, 0
8, 27072, Note_on_c, 6, 47, 127
8, 27072, Note_on_c, 6, 54, 127
8, 27120, Note_on_c, 6, 54, 0
8, 27120, Note_on_c, 6, 47, 0
8, 27120, Note_on_c, 6, 54, 100
8, 27120, Note_on_c, 6, 47, 100
8, 27168, Note_on_c, 6, 47, 0
8, 27168, Note_on_c, 6, 54, 0
8, 27168, Note_on_c, 6, 47, 127
8, 27168, Note_on_c, 6, 54, 127
8, 27216, Note_on_c, 6, 54, 0
8, 27216, Note_on_c, 6, 47, 0
8, 27216, Note_on_c, 6, 54, 99
8, 27216, Note_on_c, 6, 47, 99
8, 27264, Note_on_c, 6, 47, 0
8, 27264, Note_on_c, 6, 54, 0
8, 27264, Note_on_c, 6, 54, 127
8, 27264, Note_on_c, 6, 47, 127
8, 27312, Note_on_c, 6, 47, 0
8, 27312, Note_on_c, 6, 54, 0
8, 27312, Note_on_c, 6, 47, 98
8, 27312, Note_on_c, 6, 54, 98
8, 27360, Note_on_c, 6, 54, 0
8, 27360, Note_on_c, 6, 47, 0
8, 27360, Note_on_c, 6, 54, 127
8, 27360, Note_on_c, 6, 47, 127
8, 27408, Note_on_c, 6, 47, 0
8, 27408, Note_on_c, 6, 54, 0
8, 27408, Note_on_c, 6, 47, 98
8, 27408, Note_on_c, 6, 54, 98
8, 27456, Note_on_c, 6, 54, 0
8, 27456, Note_on_c, 6, 47, 0
8, 27456, Note_on_c, 6, 47, 127
8, 27456, Note_on_c, 6, 54, 127
8, 27504, Note_on_c, 6, 54, 0
8, 27504, Note_on_c, 6, 47, 0
8, 27504, Note_on_c, 6, 54, 100
8, 27504, Note_on_c, 6, 47, 100
8, 27552, Note_on_c, 6, 47, 0
8, 27552, Note_on_c, 6, 54, 0
8, 27552, Note_on_c, 6, 47, 127
8, 27552, Note_on_c, 6, 54, 127
8, 27600, Note_on_c, 6, 54, 0
8, 27600, Note_on_c, 6, 47, 0
8, 27600, Note_on_c, 6, 54, 99
8, 27600, Note_on_c, 6, 47, 99
8, 27648, Note_on_c, 6, 47, 0
8, 27648, Note_on_c, 6, 54, 0
8, 27648, Note_on_c, 6, 47, 127
8, 27696, Note_on_c, 6, 47, 0
8, 27696, Note_on_c, 6, 47, 98
8, 27696, Note_on_c, 6, 52, 98
8, 27744, Note_on_c, 6, 52, 0
8, 27744, Note_on_c, 6, 47, 0
8, 27744, Note_on_c, 6, 52, 127
8, 27744, Note_on_c, 6, 47, 127
8, 27792, Note_on_c, 6, 47, 0
8, 27792, Note_on_c, 6, 52, 0
8, 27792, Note_on_c, 6, 47, 98
8, 27792, Note_on_c, 6, 52, 98
8, 27840, Note_on_c, 6, 52, 0
8, 27840, Note_on_c, 6, 47, 0
8, 27840, Note_on_c, 6, 47, 127
8, 27840, Note_on_c, 6, 52, 127
8, 27888, Note_on_c, 6, 52, 0
8, 27888, Note_on_c, 6, 47, 0
8, 27888, Note_on_c, 6, 52, 100
8, 27888, Note_on_c, 6, 47, 100
8, 27936, Note_on_c, 6, 47, 0
8, 27936, Note_on_c, 6, 52, 0
8, 27936, Note_on_c, 6, 47, 127
8, 27936, Note_on_c, 6, 52, 127
8, 27984, Note_on_c, 6, 52, 0
8, 27984, Note_on_c, 6, 47, 0
8, 27984, Note_on_c, 6, 52, 99
8, 27984, Note_on_c, 6, 47, 99
8, 28032, Note_on_c, 6, 47, 0
8, 28032, Note_on_c, 6, 52, 0
8, 28032, Note_on_c, 6, 52, 127
8, 28032, Note_on_c, 6, 47, 127
8, 28080, Note_on_c, 6, 47, 0
8, 28080, Note_on_c, 6, 52, 0
8, 28080, Note_on_c, 6, 47, 98
8, 28080, Note_on_c, 6, 52, 98
8, 28128, Note_on_c, 6, 52, 0
8, 28128, Note_on_c, 6, 47, 0
8, 28128, Note_on_c, 6, 52, 127
8, 28128, Note_on_c, 6, 47, 127
8, 28176, Note_on_c, 6, 47, 0
8, 28176, Note_on_c, 6, 52, 0
8, 28176, Note_on_c, 6, 47, 98
8, 28176, Note_on_c, 6, 52, 98
8, 28224, Note_on_c, 6, 52, 0
8, 28224, Note_on_c, 6, 47, 0
8, 28224, Note_on_c, 6, 47, 127
8, 28224, Note_on_c, 6, 52, 127
8, 28272, Note_on_c, 6, 52, 0
8, 28272, Note_on_c, 6, 47, 0
8, 28272, Note_on_c, 6, 52, 100
8, 28272, Note_on_c, 6, 47, 100
8, 28320, Note_on_c, 6, 47, 0
8, 28320, Note_on_c, 6, 52, 0
8, 28320, Note_on_c, 6, 47, 127
8, 28320, Note_on_c, 6, 52, 127
8, 28368, Note_on_c, 6, 52, 0
8, 28368, Note_on_c, 6, 47, 0
8, 28368, Note_on_c, 6, 52, 99
8, 28368, Note_on_c, 6, 47, 99
8, 28416, Note_on_c, 6, 47, 0
8, 28416, Note_on_c, 6, 52, 0
8, 28416, Note_on_c, 6, 52, 127
8, 28416, Note_on_c, 6, 47, 127
8, 28464, Note_on_c, 6, 47, 0
8, 28464, Note_on_c, 6, 52, 0
8, 28464, Note_on_c, 6, 47, 98
8, 28464, Note_on_c, 6, 52, 98
8, 28512, Note_on_c, 6, 52, 0
8, 28512, Note_on_c, 6, 47, 0
8, 28512, Note_on_c, 6, 52, 127
8, 28512, Note_on_c, 6, 47, 127
8, 28560, Note_on_c, 6, 47, 0
8, 28560, Note_on_c, 6, 52, 0
8, 28560, Note_on_c, 6, 47, 98
8, 28560, Note_on_c, 6, 52, 98
8, 28608, Note_on_c, 6, 52, 0
8, 28608, Note_on_c, 6, 47, 0
8, 28608, Note_on_c, 6, 47, 127
8, 28608, Note_on_c, 6, 52, 127
8, 28656, Note_on_c, 6, 52, 0
8, 28656, Note_on_c, 6, 47, 0
8, 28656, Note_on_c, 6, 52, 100
8, 28656, Note_on_c, 6, 47, 100
8, 28704, Note_on_c, 6, 47, 0
8, 28704, Note_on_c, 6, 52, 0
8, 28704, Note_on_c, 6, 47, 127
8, 28704, Note_on_c, 6, 52, 127
8, 28752, Note_on_c, 6, 52, 0
8, 28752, Note_on_c, 6, 47, 0
8, 28752, Note_on_c, 6, 52, 99
8, 28752, Note_on_c, 6, 47, 99
8, 28800, Note_on_c, 6, 47, 0
8, 28800, Note_on_c, 6, 52, 0
8, 28800, Note_on_c, 6, 52, 127
8, 28800, Note_on_c, 6, 47, 127
8, 28848, Note_on_c, 6, 47, 0
8, 28848, Note_on_c, 6, 52, 0
8, 28848, Note_on_c, 6, 47, 98
8, 28848, Note_on_c, 6, 52, 98
8, 28896, Note_on_c, 6, 52, 0
8, 28896, Note_on_c, 6, 47, 0
8, 28896, Note_on_c, 6, 52, 127
8, 28896, Note_on_c, 6, 47, 127
8, 28944, Note_on_c, 6, 47, 0
8, 28944, Note_on_c, 6, 52, 0
8, 28944, Note_on_c, 6, 47, 98
8, 28944, Note_on_c, 6, 52, 98
8, 28992, Note_on_c, 6, 52, 0
8, 28992, Note_on_c, 6, 47, 0
8, 28992, Note_on_c, 6, 47, 127
8, 28992, Note_on_c, 6, 52, 127
8, 29040, Note_on_c, 6, 52, 0
8, 29040, Note_on_c, 6, 47, 0
8, 29040, Note_on_c, 6, 52, 100
8, 29040, Note_on_c, 6, 47, 100
8, 29088, Note_on_c, 6, 47, 0
8, 29088, Note_on_c, 6, 52, 0
8, 29088, Note_on_c, 6, 47, 127
8, 29088, Note_on_c, 6, 52, 127
8, 29136, Note_on_c, 6, 52, 0
8, 29136, Note_on_c, 6, 47, 0
8, 29136, Note_on_c, 6, 52, 99
8, 29136, Note_on_c, 6, 47, 99
8, 29184, Note_on_c, 6, 47, 0
8, 29184, Note_on_c, 6, 52, 0
8, 29184, Note_on_c, 6, 52, 127
8, 29184, Note_on_c, 6, 47, 127
8, 29232, Note_on_c, 6, 47, 0
8, 29232, Note_on_c, 6, 52, 0
8, 29232, Note_on_c, 6, 47, 98
8, 29232, Note_on_c, 6, 52, 98
8, 29280, Note_on_c, 6, 52, 0
8, 29280, Note_on_c, 6, 47, 0
8, 29280, Note_on_c, 6, 52, 127
8, 29280, Note_on_c, 6, 47, 127
8, 29328, Note_on_c, 6, 47, 0
8, 29328, Note_on_c, 6, 52, 0
8, 29328, Note_on_c, 6, 47, 98
8, 29328, Note_on_c, 6, 52, 98
8, 29376, Note_on_c, 6, 52, 0
8, 29376, Note_on_c, 6, 47, 0
8, 29376, Note_on_c, 6, 47, 127
8, 29376, Note_on_c, 6, 52, 127
8, 29424, Note_on_c, 6, 52, 0
8, 29424, Note_on_c, 6, 47, 0
8, 29424, Note_on_c, 6, 52, 100
8, 29424, Note_on_c, 6, 47, 100
8, 29472, Note_on_c, 6, 47, 0
8, 29472, Note_on_c, 6, 52, 0
8, 29472, Note_on_c, 6, 47, 127
8, 29472, Note_on_c, 6, 52, 127
8, 29520, Note_on_c, 6, 52, 0
8, 29520, Note_on_c, 6, 47, 0
8, 29520, Note_on_c, 6, 52, 99
8, 29520, Note_on_c, 6, 47, 99
8, 29568, Note_on_c, 6, 47, 0
8, 29568, Note_on_c, 6, 52, 0
8, 29568, Note_on_c, 6, 52, 127
8, 29568, Note_on_c, 6, 47, 127
8, 29616, Note_on_c, 6, 47, 0
8, 29616, Note_on_c, 6, 52, 0
8, 29616, Note_on_c, 6, 47, 98
8, 29616, Note_on_c, 6, 52, 98
8, 29664, Note_on_c, 6, 52, 0
8, 29664, Note_on_c, 6, 47, 0
8, 29664, Note_on_c, 6, 52, 127
8, 29664, Note_on_c, 6, 47, 127
8, 29712, Note_on_c, 6, 47, 0
8, 29712, Note_on_c, 6, 52, 0
8, 29712, Note_on_c, 6, 47, 98
8, 29712, Note_on_c, 6, 52, 98
8, 29760, Note_on_c, 6, 52, 0
8, 29760, Note_on_c, 6, 47, 0
8, 29760, Note_on_c, 6, 47, 127
8, 29760, Note_on_c, 6, 52, 127
8, 29808, Note_on_c, 6, 52, 0
8, 29808, Note_on_c, 6, 47, 0
8, 29808, Note_on_c, 6, 52, 100
8, 29808, Note_on_c, 6, 47, 100
8, 29856, Note_on_c, 6, 47, 0
8, 29856, Note_on_c, 6, 52, 0
8, 29856, Note_on_c, 6, 47, 127
8, 29856, Note_on_c, 6, 52, 127
8, 29904, Note_on_c, 6, 52, 0
8, 29904, Note_on_c, 6, 47, 0
8, 29904, Note_on_c, 6, 52, 99
8, 29904, Note_on_c, 6, 47, 99
8, 29952, Note_on_c, 6, 47, 0
8, 29952, Note_on_c, 6, 52, 0
8, 29952, Note_on_c, 6, 52, 127
8, 29952, Note_on_c, 6, 47, 127
8, 30000, Note_on_c, 6, 47, 0
8, 30000, Note_on_c, 6, 52, 0
8, 30000, Note_on_c, 6, 47, 98
8, 30000, Note_on_c, 6, 52, 98
8, 30048, Note_on_c, 6, 52, 0
8, 30048, Note_on_c, 6, 47, 0
8, 30048, Note_on_c, 6, 52, 127
8, 30048, Note_on_c, 6, 47, 127
8, 30096, Note_on_c, 6, 47, 0
8, 30096, Note_on_c, 6, 52, 0
8, 30096, Note_on_c, 6, 47, 98
8, 30096, Note_on_c, 6, 52, 98
8, 30144, Note_on_c, 6, 52, 0
8, 30144, Note_on_c, 6, 47, 0
8, 30144, Note_on_c, 6, 47, 127
8, 30144, Note_on_c, 6, 52, 127
8, 30192, Note_on_c, 6, 52, 0
8, 30192, Note_on_c, 6, 47, 0
8, 30192, Note_on_c, 6, 52, 100
8, 30192, Note_on_c, 6, 47, 100
8, 30240, Note_on_c, 6, 47, 0
8, 30240, Note_on_c, 6, 52, 0
8, 30240, Note_on_c, 6, 47, 127
8, 30240, Note_on_c, 6, 52, 127
8, 30288, Note_on_c, 6, 52, 0
8, 30288, Note_on_c, 6, 47, 0
8, 30288, Note_on_c, 6, 52, 99
8, 30288, Note_on_c, 6, 47, 99
8, 30336, Note_on_c, 6, 47, 0
8, 30336, Note_on_c, 6, 52, 0
8, 30336, Note_on_c, 6, 52, 127
8, 30336, Note_on_c, 6, 47, 127
8, 30384, Note_on_c, 6, 47, 0
8, 30384, Note_on_c, 6, 52, 0
8, 30384, Note_on_c, 6, 47, 98
8, 30384, Note_on_c, 6, 52, 98
8, 30432, Note_on_c, 6, 52, 0
8, 30432, Note_on_c, 6, 47, 0
8, 30432, Note_on_c, 6, 52, 127
8, 30432, Note_on_c, 6, 47, 127
8, 30480, Note_on_c, 6, 47, 0
8, 30480, Note_on_c, 6, 52, 0
8, 30480, Note_on_c, 6, 47, 98
8, 30480, Note_on_c, 6, 52, 98
8, 30528, Note_on_c, 6, 52, 0
8, 30528, Note_on_c, 6, 47, 0
8, 30528, Note_on_c, 6, 47, 127
8, 30528, Note_on_c, 6, 52, 127
8, 30576, Note_on_c, 6, 52, 0
8, 30576, Note_on_c, 6, 47, 0
8, 30576, Note_on_c, 6, 52, 100
8, 30576, Note_on_c, 6, 47, 100
8, 30624, Note_on_c, 6, 47, 0
8, 30624, Note_on_c, 6, 52, 0
8, 30624, Note_on_c, 6, 47, 127
8, 30624, Note_on_c, 6, 52, 127
8, 30672, Note_on_c, 6, 52, 0
8, 30672, Note_on_c, 6, 47, 0
8, 30672, Note_on_c, 6, 52, 99
8, 30672, Note_on_c, 6, 47, 99
8, 30720, Note_on_c, 6, 47, 0
8, 30720, Note_on_c, 6, 52, 0
8, 30720, Note_on_c, 6, 52, 127
8, 30720, Note_on_c, 6, 47, 127
8, 30768, Note_on_c, 6, 47, 0
8, 30768, Note_on_c, 6, 52, 0
8, 30768, Note_on_c, 6, 47, 98
8, 30768, Note_on_c, 6, 52, 98
8, 30816, Note_on_c, 6, 52, 0
8, 30816, Note_on_c, 6, 47, 0
8, 30816, Note_on_c, 6, 52, 127
8, 30816, Note_on_c, 6, 47, 127
8, 30864, Note_on_c, 6, 47, 0
8, 30864, Note_on_c, 6, 52, 0
8, 30864, Note_on_c, 6, 47, 98
8, 30864, Note_on_c, 6, 52, 98
8, 30912, Note_on_c, 6, 52, 0
8, 30912, Note_on_c, 6, 47, 0
8, 30912, Note_on_c, 6, 47, 127
8, 30912, Note_on_c, 6, 52, 127
8, 30960, Note_on_c, 6, 52, 0
8, 30960, Note_on_c, 6, 47, 0
8, 30960, Note_on_c, 6, 52, 100
8, 30960, Note_on_c, 6, 47, 100
8, 31008, Note_on_c, 6, 47, 0
8, 31008, Note_on_c, 6, 52, 0
8, 31008, Note_on_c, 6, 47, 127
8, 31008, Note_on_c, 6, 52, 127
8, 31056, Note_on_c, 6, 52, 0
8, 31056, Note_on_c, 6, 47, 0
8, 31056, Note_on_c, 6, 52, 99
8, 31056, Note_on_c, 6, 47, 99
8, 31104, Note_on_c, 6, 47, 0
8, 31104, Note_on_c, 6, 52, 0
8, 31104, Note_on_c, 6, 54, 127
8, 31104, Note_on_c, 6, 47, 127
8, 31152, Note_on_c, 6, 47, 0
8, 31152, Note_on_c, 6, 54, 0
8, 31152, Note_on_c, 6, 47, 98
8, 31152, Note_on_c, 6, 54, 98
8, 31200, Note_on_c, 6, 54, 0
8, 31200, Note_on_c, 6, 47, 0
8, 31200, Note_on_c, 6, 54, 127
8, 31200, Note_on_c, 6, 47, 127
8, 31248, Note_on_c, 6, 47, 0
8, 31248, Note_on_c, 6, 54, 0
8, 31248, Note_on_c, 6, 47, 98
8, 31248, Note_on_c, 6, 54, 98
8, 31296, Note_on_c, 6, 54, 0
8, 31296, Note_on_c, 6, 47, 0
8, 31296, Note_on_c, 6, 47, 127
8, 31296, Note_on_c, 6, 54, 127
8, 31344, Note_on_c, 6, 54, 0
8, 31344, Note_on_c, 6, 47, 0
8, 31344, Note_on_c, 6, 54, 100
8, 31344, Note_on_c, 6, 47, 100
8, 31392, Note_on_c, 6, 47, 0
8, 31392, Note_on_c, 6, 54, 0
8, 31392, Note_on_c, 6, 47, 127
8, 31392, Note_on_c, 6, 54, 127
8, 31440, Note_on_c, 6, 54, 0
8, 31440, Note_on_c, 6, 47, 0
8, 31440, Note_on_c, 6, 54, 99
8, 31440, Note_on_c, 6, 47, 99
8, 31488, Note_on_c, 6, 47, 0
8, 31488, Note_on_c, 6, 54, 0
8, 31488, Note_on_c, 6, 54, 127
8, 31488, Note_on_c, 6, 47, 127
8, 31536, Note_on_c, 6, 47, 0
8, 31536, Note_on_c, 6, 54, 0
8, 31536, Note_on_c, 6, 47, 98
8, 31536, Note_on_c, 6, 54, 98
8, 31584, Note_on_c, 6, 54, 0
8, 31584, Note_on_c, 6, 47, 0
8, 31584, Note_on_c, 6, 54, 127
8, 31584, Note_on_c, 6, 47, 127
8, 31632, Note_on_c, 6, 47, 0
8, 31632, Note_on_c, 6, 54, 0
8, 31632, Note_on_c, 6, 47, 98
8, 31632, Note_on_c, 6, 54, 98
8, 31680, Note_on_c, 6, 54, 0
8, 31680, Note_on_c, 6, 47, 0
8, 31680, Note_on_c, 6, 47, 127
8, 31680, Note_on_c, 6, 54, 127
8, 31728, Note_on_c, 6, 54, 0
8, 31728, Note_on_c, 6, 47, 0
8, 31728, Note_on_c, 6, 54, 100
8, 31728, Note_on_c, 6, 47, 100
8, 31776, Note_on_c, 6, 47, 0
8, 31776, Note_on_c, 6, 54, 0
8, 31776, Note_on_c, 6, 47, 127
8, 31776, Note_on_c, 6, 54, 127
8, 31824, Note_on_c, 6, 54, 0
8, 31824, Note_on_c, 6, 47, 0
8, 31824, Note_on_c, 6, 54, 99
8, 31824, Note_on_c, 6, 47, 99
8, 31872, Note_on_c, 6, 47, 0
8, 31872, Note_on_c, 6, 54, 0
8, 31872, Note_on_c, 6, 52, 127
8, 31872, Note_on_c, 6, 47, 127
8, 31920, Note_on_c, 6, 47, 0
8, 31920, Note_on_c, 6, 52, 0
8, 31920, Note_on_c, 6, 47, 98
8, 31920, Note_on_c, 6, 52, 98
8, 31968, Note_on_c, 6, 52, 0
8, 31968, Note_on_c, 6, 47, 0
8, 31968, Note_on_c, 6, 52, 127
8, 31968, Note_on_c, 6, 47, 127
8, 32016, Note_on_c, 6, 47, 0
8, 32016, Note_on_c, 6, 52, 0
8, 32016, Note_on_c, 6, 47, 98
8, 32016, Note_on_c, 6, 52, 98
8, 32064, Note_on_c, 6, 52, 0
8, 32064, Note_on_c, 6, 47, 0
8, 32064, Note_on_c, 6, 47, 127
8, 32064, Note_on_c, 6, 52, 127
8, 32112, Note_on_c, 6, 52, 0
8, 32112, Note_on_c, 6, 47, 0
8, 32112, Note_on_c, 6, 52, 100
8, 32112, Note_on_c, 6, 47, 100
8, 32160, Note_on_c, 6, 47, 0
8, 32160, Note_on_c, 6, 52, 0
8, 32160, Note_on_c, 6, 47, 127
8, 32160, Note_on_c, 6, 52, 127
8, 32208, Note_on_c, 6, 52, 0
8, 32208, Note_on_c, 6, 47, 0
8, 32208, Note_on_c, 6, 52, 99
8, 32208, Note_on_c, 6, 47, 99
8, 32256, Note_on_c, 6, 47, 0
8, 32256, Note_on_c, 6, 52, 0
8, 32256, Note_on_c, 6, 52, 127
8, 32256, Note_on_c, 6, 47, 127
8, 32304, Note_on_c, 6, 47, 0
8, 32304, Note_on_c, 6, 52, 0
8, 32304, Note_on_c, 6, 47, 98
8, 32304, Note_on_c, 6, 52, 98
8, 32352, Note_on_c, 6, 52, 0
8, 32352, Note_on_c, 6, 47, 0
8, 32352, Note_on_c, 6, 52, 127
8, 32352, Note_on_c, 6, 47, 127
8, 32400, Note_on_c, 6, 47, 0
8, 32400, Note_on_c, 6, 52, 0
8, 32400, Note_on_c, 6, 47, 98
8, 32400, Note_on_c, 6, 52, 98
8, 32448, Note_on_c, 6, 52, 0
8, 32448, Note_on_c, 6, 47, 0
8, 32448, Note_on_c, 6, 47, 127
8, 32448, Note_on_c, 6, 52, 127
8, 32496, Note_on_c, 6, 52, 0
8, 32496, Note_on_c, 6, 47, 0
8, 32496, Note_on_c, 6, 52, 100
8, 32496, Note_on_c, 6, 47, 100
8, 32544, Note_on_c, 6, 47, 0
8, 32544, Note_on_c, 6, 52, 0
8, 32544, Note_on_c, 6, 47, 127
8, 32544, Note_on_c, 6, 52, 127
8, 32592, Note_on_c, 6, 52, 0
8, 32592, Note_on_c, 6, 47, 0
8, 32592, Note_on_c, 6, 52, 99
8, 32592, Note_on_c, 6, 47, 99
8, 32640, Note_on_c, 6, 47, 0
8, 32640, Note_on_c, 6, 52, 0
8, 32640, Note_on_c, 6, 52, 127
8, 32640, Note_on_c, 6, 45, 127
8, 32688, Note_on_c, 6, 45, 0
8, 32688, Note_on_c, 6, 52, 0
8, 32688, Note_on_c, 6, 45, 98
8, 32688, Note_on_c, 6, 52, 98
8, 32736, Note_on_c, 6, 52, 0
8, 32736, Note_on_c, 6, 45, 0
8, 32736, Note_on_c, 6, 52, 127
8, 32736, Note_on_c, 6, 45, 127
8, 32784, Note_on_c, 6, 45, 0
8, 32784, Note_on_c, 6, 52, 0
8, 32784, Note_on_c, 6, 45, 98
8, 32784, Note_on_c, 6, 52, 98
8, 32832, Note_on_c, 6, 52, 0
8, 32832, Note_on_c, 6, 45, 0
8, 32832, Note_on_c, 6, 45, 127
8, 32832, Note_on_c, 6, 52, 127
8, 32880, Note_on_c, 6, 52, 0
8, 32880, Note_on_c, 6, 45, 0
8, 32880, Note_on_c, 6, 52, 100
8, 32880, Note_on_c, 6, 45, 100
8, 32928, Note_on_c, 6, 45, 0
8, 32928, Note_on_c, 6, 52, 0
8, 32928, Note_on_c, 6, 45, 127
8, 32928, Note_on_c, 6, 52, 127
8, 32976, Note_on_c, 6, 52, 0
8, 32976, Note_on_c, 6, 45, 0
8, 32976, Note_on_c, 6, 52, 99
8, 32976, Note_on_c, 6, 45, 99
8, 33024, Note_on_c, 6, 45, 0
8, 33024, Note_on_c, 6, 52, 0
8, 33024, Note_on_c, 6, 52, 127
8, 33024, Note_on_c, 6, 45, 127
8, 33072, Note_on_c, 6, 45, 0
8, 33072, Note_on_c, 6, 52, 0
8, 33072, Note_on_c, 6, 45, 98
8, 33072, Note_on_c, 6, 52, 98
8, 33120, Note_on_c, 6, 52, 0
8, 33120, Note_on_c, 6, 45, 0
8, 33120, Note_on_c, 6, 52, 127
8, 33120, Note_on_c, 6, 45, 127
8, 33168, Note_on_c, 6, 45, 0
8, 33168, Note_on_c, 6, 52, 0
8, 33168, Note_on_c, 6, 45, 98
8, 33168, Note_on_c, 6, 52, 98
8, 33216, Note_on_c, 6, 52, 0
8, 33216, Note_on_c, 6, 45, 0
8, 33216, Note_on_c, 6, 45, 127
8, 33216, Note_on_c, 6, 52, 127
8, 33264, Note_on_c, 6, 52, 0
8, 33264, Note_on_c, 6, 45, 0
8, 33264, Note_on_c, 6, 52, 100
8, 33264, Note_on_c, 6, 45, 100
8, 33312, Note_on_c, 6, 45, 0
8, 33312, Note_on_c, 6, 52, 0
8, 33312, Note_on_c, 6, 45, 127
8, 33312, Note_on_c, 6, 52, 127
8, 33360, Note_on_c, 6, 52, 0
8, 33360, Note_on_c, 6, 45, 0
8, 33360, Note_on_c, 6, 52, 99
8, 33360, Note_on_c, 6, 45, 99
8, 33408, Note_on_c, 6, 45, 0
8, 33408, Note_on_c, 6, 52, 0
8, 33408, Note_on_c, 6, 54, 127
8, 33408, Note_on_c, 6, 47, 127
8, 33456, Note_on_c, 6, 47, 0
8, 33456, Note_on_c, 6, 54, 0
8, 33456, Note_on_c, 6, 47, 98
8, 33456, Note_on_c, 6, 54, 98
8, 33504, Note_on_c, 6, 54, 0
8, 33504, Note_on_c, 6, 47, 0
8, 33504, Note_on_c, 6, 54, 127
8, 33504, Note_on_c, 6, 47, 127
8, 33552, Note_on_c, 6, 47, 0
8, 33552, Note_on_c, 6, 54, 0
8, 33552, Note_on_c, 6, 47, 98
8, 33552, Note_on_c, 6, 54, 98
8, 33600, Note_on_c, 6, 54, 0
8, 33600, Note_on_c, 6, 47, 0
8, 33600, Note_on_c, 6, 47, 127
8, 33600, Note_on_c, 6, 54, 127
8, 33648, Note_on_c, 6, 54, 0
8, 33648, Note_on_c, 6, 47, 0
8, 33648, Note_on_c, 6, 54, 100
8, 33648, Note_on_c, 6, 47, 100
8, 33696, Note_on_c, 6, 47, 0
8, 33696, Note_on_c, 6, 54, 0
8, 33696, Note_on_c, 6, 47, 127
8, 33696, Note_on_c, 6, 54, 127
8, 33744, Note_on_c, 6, 54, 0
8, 33744, Note_on_c, 6, 47, 0
8, 33744, Note_on_c, 6, 54, 99
8, 33744, Note_on_c, 6, 47, 99
8, 33792, Note_on_c, 6, 47, 0
8, 33792, Note_on_c, 6, 54, 0
8, 33792, Note_on_c, 6, 47, 127
8, 33792, Note_on_c, 6, 54, 127
8, 33888, Note_on_c, 6, 54, 0
8, 33888, Note_on_c, 6, 47, 0
8, 34176, Note_on_c, 6, 52, 127
8, 34176, Note_on_c, 6, 47, 127
8, 34224, Note_on_c, 6, 47, 0
8, 34224, Note_on_c, 6, 52, 0
8, 34224, Note_on_c, 6, 47, 98
8, 34224, Note_on_c, 6, 52, 98
8, 34272, Note_on_c, 6, 52, 0
8, 34272, Note_on_c, 6, 47, 0
8, 34272, Note_on_c, 6, 52, 127
8, 34272, Note_on_c, 6, 47, 127
8, 34320, Note_on_c, 6, 47, 0
8, 34320, Note_on_c, 6, 52, 0
8, 34320, Note_on_c, 6, 47, 98
8, 34320, Note_on_c, 6, 52, 98
8, 34368, Note_on_c, 6, 52, 0
8, 34368, Note_on_c, 6, 47, 0
8, 34368, Note_on_c, 6, 47, 127
8, 34368, Note_on_c, 6, 52, 127
8, 34416, Note_on_c, 6, 52, 0
8, 34416, Note_on_c, 6, 47, 0
8, 34416, Note_on_c, 6, 52, 100
8, 34416, Note_on_c, 6, 47, 100
8, 34464, Note_on_c, 6, 47, 0
8, 34464, Note_on_c, 6, 52, 0
8, 34464, Note_on_c, 6, 47, 127
8, 34464, Note_on_c, 6, 52, 127
8, 34512, Note_on_c, 6, 52, 0
8, 34512, Note_on_c, 6, 47, 0
8, 34512, Note_on_c, 6, 52, 99
8, 34512, Note_on_c, 6, 47, 99
8, 34560, Note_on_c, 6, 47, 0
8, 34560, Note_on_c, 6, 52, 0
8, 34560, Note_on_c, 6, 52, 127
8, 34560, Note_on_c, 6, 47, 127
8, 34608, Note_on_c, 6, 47, 0
8, 34608, Note_on_c, 6, 52, 0
8, 34608, Note_on_c, 6, 47, 98
8, 34608, Note_on_c, 6, 52, 98
8, 34656, Note_on_c, 6, 52, 0
8, 34656, Note_on_c, 6, 47, 0
8, 34656, Note_on_c, 6, 52, 127
8, 34656, Note_on_c, 6, 47, 127
8, 34704, Note_on_c, 6, 47, 0
8, 34704, Note_on_c, 6, 52, 0
8, 34704, Note_on_c, 6, 47, 98
8, 34704, Note_on_c, 6, 52, 98
8, 34752, Note_on_c, 6, 52, 0
8, 34752, Note_on_c, 6, 47, 0
8, 34752, Note_on_c, 6, 47, 127
8, 34752, Note_on_c, 6, 52, 127
8, 34800, Note_on_c, 6, 52, 0
8, 34800, Note_on_c, 6, 47, 0
8, 34800, Note_on_c, 6, 52, 100
8, 34800, Note_on_c, 6, 47, 100
8, 34848, Note_on_c, 6, 47, 0
8, 34848, Note_on_c, 6, 52, 0
8, 34848, Note_on_c, 6, 47, 127
8, 34848, Note_on_c, 6, 52, 127
8, 34896, Note_on_c, 6, 52, 0
8, 34896, Note_on_c, 6, 47, 0
8, 34896, Note_on_c, 6, 52, 99
8, 34896, Note_on_c, 6, 47, 99
8, 34944, Note_on_c, 6, 47, 0
8, 34944, Note_on_c, 6, 52, 0
8, 34944, Note_on_c, 6, 52, 127
8, 34944, Note_on_c, 6, 45, 127
8, 34992, Note_on_c, 6, 45, 0
8, 34992, Note_on_c, 6, 52, 0
8, 34992, Note_on_c, 6, 45, 98
8, 34992, Note_on_c, 6, 52, 98
8, 35040, Note_on_c, 6, 52, 0
8, 35040, Note_on_c, 6, 45, 0
8, 35040, Note_on_c, 6, 52, 127
8, 35040, Note_on_c, 6, 45, 127
8, 35088, Note_on_c, 6, 45, 0
8, 35088, Note_on_c, 6, 52, 0
8, 35088, Note_on_c, 6, 45, 98
8, 35088, Note_on_c, 6, 52, 98
8, 35136, Note_on_c, 6, 52, 0
8, 35136, Note_on_c, 6, 45, 0
8, 35136, Note_on_c, 6, 45, 127
8, 35136, Note_on_c, 6, 52, 127
8, 35184, Note_on_c, 6, 52, 0
8, 35184, Note_on_c, 6, 45, 0
8, 35184, Note_on_c, 6, 52, 100
8, 35184, Note_on_c, 6, 45, 100
8, 35232, Note_on_c, 6, 45, 0
8, 35232, Note_on_c, 6, 52, 0
8, 35232, Note_on_c, 6, 45, 127
8, 35232, Note_on_c, 6, 52, 127
8, 35280, Note_on_c, 6, 52, 0
8, 35280, Note_on_c, 6, 45, 0
8, 35280, Note_on_c, 6, 52, 99
8, 35280, Note_on_c, 6, 45, 99
8, 35328, Note_on_c, 6, 45, 0
8, 35328, Note_on_c, 6, 52, 0
8, 35328, Note_on_c, 6, 45, 127
8, 35328, Note_on_c, 6, 52, 127
8, 35376, Note_on_c, 6, 52, 0
8, 35376, Note_on_c, 6, 45, 0
8, 35376, Note_on_c, 6, 45, 98
8, 35376, Note_on_c, 6, 52, 98
8, 35424, Note_on_c, 6, 52, 0
8, 35424, Note_on_c, 6, 45, 0
8, 35424, Note_on_c, 6, 52, 127
8, 35424, Note_on_c, 6, 45, 127
8, 35472, Note_on_c, 6, 45, 0
8, 35472, Note_on_c, 6, 52, 0
8, 35472, Note_on_c, 6, 45, 98
8, 35472, Note_on_c, 6, 52, 98
8, 35520, Note_on_c, 6, 52, 0
8, 35520, Note_on_c, 6, 45, 0
8, 35520, Note_on_c, 6, 45, 127
8, 35520, Note_on_c, 6, 52, 127
8, 35568, Note_on_c, 6, 52, 0
8, 35568, Note_on_c, 6, 45, 0
8, 35568, Note_on_c, 6, 52, 100
8, 35568, Note_on_c, 6, 45, 100
8, 35616, Note_on_c, 6, 45, 0
8, 35616, Note_on_c, 6, 52, 0
8, 35616, Note_on_c, 6, 45, 127
8, 35616, Note_on_c, 6, 52, 127
8, 35664, Note_on_c, 6, 52, 0
8, 35664, Note_on_c, 6, 45, 0
8, 35664, Note_on_c, 6, 52, 99
8, 35664, Note_on_c, 6, 45, 99
8, 35712, Note_on_c, 6, 45, 0
8, 35712, Note_on_c, 6, 52, 0
8, 35712, Note_on_c, 6, 52, 127
8, 35712, Note_on_c, 6, 47, 127
8, 35760, Note_on_c, 6, 47, 0
8, 35760, Note_on_c, 6, 52, 0
8, 35760, Note_on_c, 6, 47, 98
8, 35760, Note_on_c, 6, 52, 98
8, 35808, Note_on_c, 6, 52, 0
8, 35808, Note_on_c, 6, 47, 0
8, 35808, Note_on_c, 6, 52, 127
8, 35808, Note_on_c, 6, 47, 127
8, 35856, Note_on_c, 6, 47, 0
8, 35856, Note_on_c, 6, 52, 0
8, 35856, Note_on_c, 6, 47, 98
8, 35856, Note_on_c, 6, 52, 98
8, 35904, Note_on_c, 6, 52, 0
8, 35904, Note_on_c, 6, 47, 0
8, 35904, Note_on_c, 6, 47, 127
8, 35904, Note_on_c, 6, 52, 127
8, 35952, Note_on_c, 6, 52, 0
8, 35952, Note_on_c, 6, 47, 0
8, 35952, Note_on_c, 6, 52, 100
8, 35952, Note_on_c, 6, 47, 100
8, 36000, Note_on_c, 6, 47, 0
8, 36000, Note_on_c, 6, 52, 0
8, 36000, Note_on_c, 6, 47, 127
8, 36000, Note_on_c, 6, 52, 127
8, 36048, Note_on_c, 6, 52, 0
8, 36048, Note_on_c, 6, 47, 0
8, 36048, Note_on_c, 6, 52, 99
8, 36048, Note_on_c, 6, 47, 99
8, 36096, Note_on_c, 6, 47, 0
8, 36096, Note_on_c, 6, 52, 0
8, 36096, Note_on_c, 6, 52, 127
8, 36096, Note_on_c, 6, 47, 127
8, 36144, Note_on_c, 6, 47, 0
8, 36144, Note_on_c, 6, 52, 0
8, 36144, Note_on_c, 6, 47, 98
8, 36144, Note_on_c, 6, 52, 98
8, 36192, Note_on_c, 6, 52, 0
8, 36192, Note_on_c, 6, 47, 0
8, 36192, Note_on_c, 6, 52, 127
8, 36192, Note_on_c, 6, 47, 127
8, 36240, Note_on_c, 6, 47, 0
8, 36240, Note_on_c, 6, 52, 0
8, 36240, Note_on_c, 6, 47, 98
8, 36240, Note_on_c, 6, 52, 98
8, 36288, Note_on_c, 6, 52, 0
8, 36288, Note_on_c, 6, 47, 0
8, 36288, Note_on_c, 6, 47, 127
8, 36288, Note_on_c, 6, 52, 127
8, 36336, Note_on_c, 6, 52, 0
8, 36336, Note_on_c, 6, 47, 0
8, 36336, Note_on_c, 6, 52, 100
8, 36336, Note_on_c, 6, 47, 100
8, 36384, Note_on_c, 6, 47, 0
8, 36384, Note_on_c, 6, 52, 0
8, 36384, Note_on_c, 6, 47, 127
8, 36384, Note_on_c, 6, 52, 127
8, 36432, Note_on_c, 6, 52, 0
8, 36432, Note_on_c, 6, 47, 0
8, 36432, Note_on_c, 6, 52, 99
8, 36432, Note_on_c, 6, 47, 99
8, 36480, Note_on_c, 6, 47, 0
8, 36480, Note_on_c, 6, 52, 0
8, 36480, Note_on_c, 6, 52, 127
8, 36480, Note_on_c, 6, 45, 127
8, 36528, Note_on_c, 6, 45, 0
8, 36528, Note_on_c, 6, 52, 0
8, 36528, Note_on_c, 6, 45, 98
8, 36528, Note_on_c, 6, 52, 98
8, 36576, Note_on_c, 6, 52, 0
8, 36576, Note_on_c, 6, 45, 0
8, 36576, Note_on_c, 6, 52, 127
8, 36576, Note_on_c, 6, 45, 127
8, 36624, Note_on_c, 6, 45, 0
8, 36624, Note_on_c, 6, 52, 0
8, 36624, Note_on_c, 6, 45, 98
8, 36624, Note_on_c, 6, 52, 98
8, 36672, Note_on_c, 6, 52, 0
8, 36672, Note_on_c, 6, 45, 0
8, 36672, Note_on_c, 6, 45, 127
8, 36672, Note_on_c, 6, 52, 127
8, 36720, Note_on_c, 6, 52, 0
8, 36720, Note_on_c, 6, 45, 0
8, 36720, Note_on_c, 6, 52, 100
8, 36720, Note_on_c, 6, 45, 100
8, 36768, Note_on_c, 6, 45, 0
8, 36768, Note_on_c, 6, 52, 0
8, 36768, Note_on_c, 6, 45, 127
8, 36768, Note_on_c, 6, 52, 127
8, 36816, Note_on_c, 6, 52, 0
8, 36816, Note_on_c, 6, 45, 0
8, 36816, Note_on_c, 6, 52, 99
8, 36816, Note_on_c, 6, 45, 99
8, 36864, Note_on_c, 6, 45, 0
8, 36864, Note_on_c, 6, 52, 0
8, 36864, Note_on_c, 6, 45, 127
8, 36864, Note_on_c, 6, 52, 127
8, 36912, Note_on_c, 6, 52, 0
8, 36912, Note_on_c, 6, 45, 0
8, 36912, Note_on_c, 6, 45, 98
8, 36912, Note_on_c, 6, 52, 98
8, 36960, Note_on_c, 6, 52, 0
8, 36960, Note_on_c, 6, 45, 0
8, 36960, Note_on_c, 6, 52, 127
8, 36960, Note_on_c, 6, 45, 127
8, 37008, Note_on_c, 6, 45, 0
8, 37008, Note_on_c, 6, 52, 0
8, 37008, Note_on_c, 6, 45, 98
8, 37008, Note_on_c, 6, 52, 98
8, 37056, Note_on_c, 6, 52, 0
8, 37056, Note_on_c, 6, 45, 0
8, 37056, Note_on_c, 6, 45, 127
8, 37056, Note_on_c, 6, 52, 127
8, 37104, Note_on_c, 6, 52, 0
8, 37104, Note_on_c, 6, 45, 0
8, 37104, Note_on_c, 6, 52, 100
8, 37104, Note_on_c, 6, 45, 100
8, 37152, Note_on_c, 6, 45, 0
8, 37152, Note_on_c, 6, 52, 0
8, 37152, Note_on_c, 6, 45, 127
8, 37152, Note_on_c, 6, 52, 127
8, 37200, Note_on_c, 6, 52, 0
8, 37200, Note_on_c, 6, 45, 0
8, 37200, Note_on_c, 6, 52, 99
8, 37200, Note_on_c, 6, 45, 99
8, 37248, Note_on_c, 6, 45, 0
8, 37248, Note_on_c, 6, 52, 0
8, 37248, Note_on_c, 6, 52, 127
8, 37248, Note_on_c, 6, 47, 127
8, 37320, Note_on_c, 6, 47, 0
8, 37320, Note_on_c, 6, 52, 0
8, 37632, Note_on_c, 6, 54, 127
8, 37632, Note_on_c, 6, 47, 127
8, 37680, Note_on_c, 6, 47, 0
8, 37680, Note_on_c, 6, 54, 0
8, 37680, Note_on_c, 6, 47, 98
8, 37680, Note_on_c, 6, 54, 98
8, 37728, Note_on_c, 6, 54, 0
8, 37728, Note_on_c, 6, 47, 0
8, 37728, Note_on_c, 6, 54, 127
8, 37728, Note_on_c, 6, 47, 127
8, 37776, Note_on_c, 6, 47, 0
8, 37776, Note_on_c, 6, 54, 0
8, 37776, Note_on_c, 6, 47, 98
8, 37776, Note_on_c, 6, 54, 98
8, 37824, Note_on_c, 6, 54, 0
8, 37824, Note_on_c, 6, 47, 0
8, 37824, Note_on_c, 6, 47, 127
8, 37824, Note_on_c, 6, 54, 127
8, 37872, Note_on_c, 6, 54, 0
8, 37872, Note_on_c, 6, 47, 0
8, 37872, Note_on_c, 6, 54, 100
8, 37872, Note_on_c, 6, 47, 100
8, 37920, Note_on_c, 6, 47, 0
8, 37920, Note_on_c, 6, 54, 0
8, 37920, Note_on_c, 6, 47, 127
8, 37920, Note_on_c, 6, 54, 127
8, 37968, Note_on_c, 6, 54, 0
8, 37968, Note_on_c, 6, 47, 0
8, 37968, Note_on_c, 6, 54, 99
8, 37968, Note_on_c, 6, 47, 99
8, 38016, Note_on_c, 6, 47, 0
8, 38016, Note_on_c, 6, 54, 0
8, 38016, Note_on_c, 6, 54, 127
8, 38016, Note_on_c, 6, 47, 127
8, 38064, Note_on_c, 6, 47, 0
8, 38064, Note_on_c, 6, 54, 0
8, 38064, Note_on_c, 6, 47, 98
8, 38064, Note_on_c, 6, 54, 98
8, 38112, Note_on_c, 6, 54, 0
8, 38112, Note_on_c, 6, 47, 0
8, 38112, Note_on_c, 6, 54, 127
8, 38112, Note_on_c, 6, 47, 127
8, 38160, Note_on_c, 6, 47, 0
8, 38160, Note_on_c, 6, 54, 0
8, 38160, Note_on_c, 6, 47, 98
8, 38160, Note_on_c, 6, 54, 98
8, 38208, Note_on_c, 6, 54, 0
8, 38208, Note_on_c, 6, 47, 0
8, 38208, Note_on_c, 6, 47, 127
8, 38208, Note_on_c, 6, 54, 127
8, 38256, Note_on_c, 6, 54, 0
8, 38256, Note_on_c, 6, 47, 0
8, 38256, Note_on_c, 6, 54, 100
8, 38256, Note_on_c, 6, 47, 100
8, 38304, Note_on_c, 6, 47, 0
8, 38304, Note_on_c, 6, 54, 0
8, 38304, Note_on_c, 6, 47, 127
8, 38304, Note_on_c, 6, 54, 127
8, 38352, Note_on_c, 6, 54, 0
8, 38352, Note_on_c, 6, 47, 0
8, 38352, Note_on_c, 6, 54, 99
8, 38352, Note_on_c, 6, 47, 99
8, 38400, Note_on_c, 6, 47, 0
8, 38400, Note_on_c, 6, 54, 0
8, 38400, Note_on_c, 6, 47, 127
8, 38400, Note_on_c, 6, 54, 127
8, 38448, Note_on_c, 6, 54, 0
8, 38448, Note_on_c, 6, 47, 0
8, 38784, Note_on_c, 6, 52, 127
8, 38784, Note_on_c, 6, 47, 127
8, 38832, Note_on_c, 6, 47, 0
8, 38832, Note_on_c, 6, 52, 0
8, 38832, Note_on_c, 6, 47, 95
8, 38832, Note_on_c, 6, 52, 95
8, 38880, Note_on_c, 6, 52, 0
8, 38880, Note_on_c, 6, 47, 0
8, 38880, Note_on_c, 6, 52, 127
8, 38880, Note_on_c, 6, 47, 127
8, 38928, Note_on_c, 6, 47, 0
8, 38928, Note_on_c, 6, 52, 0
8, 38928, Note_on_c, 6, 47, 99
8, 38928, Note_on_c, 6, 52, 99
8, 38976, Note_on_c, 6, 52, 0
8, 38976, Note_on_c, 6, 47, 0
8, 38976, Note_on_c, 6, 47, 127
8, 38976, Note_on_c, 6, 52, 127
8, 39024, Note_on_c, 6, 52, 0
8, 39024, Note_on_c, 6, 47, 0
8, 39024, Note_on_c, 6, 52, 99
8, 39024, Note_on_c, 6, 47, 99
8, 39072, Note_on_c, 6, 47, 0
8, 39072, Note_on_c, 6, 52, 0
8, 39072, Note_on_c, 6, 47, 127
8, 39072, Note_on_c, 6, 52, 127
8, 39120, Note_on_c, 6, 52, 0
8, 39120, Note_on_c, 6, 47, 0
8, 39120, Note_on_c, 6, 52, 99
8, 39120, Note_on_c, 6, 47, 99
8, 39168, Note_on_c, 6, 47, 0
8, 39168, Note_on_c, 6, 52, 0
8, 39168, Note_on_c, 6, 52, 127
8, 39168, Note_on_c, 6, 47, 127
8, 39216, Note_on_c, 6, 47, 0
8, 39216, Note_on_c, 6, 52, 0
8, 39216, Note_on_c, 6, 47, 95
8, 39216, Note_on_c, 6, 52, 95
8, 39264, Note_on_c, 6, 52, 0
8, 39264, Note_on_c, 6, 47, 0
8, 39264, Note_on_c, 6, 52, 127
8, 39264, Note_on_c, 6, 47, 127
8, 39312, Note_on_c, 6, 47, 0
8, 39312, Note_on_c, 6, 52, 0
8, 39312, Note_on_c, 6, 47, 99
8, 39312, Note_on_c, 6, 52, 99
8, 39360, Note_on_c, 6, 52, 0
8, 39360, Note_on_c, 6, 47, 0
8, 39360, Note_on_c, 6, 47, 127
8, 39360, Note_on_c, 6, 52, 127
8, 39408, Note_on_c, 6, 52, 0
8, 39408, Note_on_c, 6, 47, 0
8, 39408, Note_on_c, 6, 52, 99
8, 39408, Note_on_c, 6, 47, 99
8, 39456, Note_on_c, 6, 47, 0
8, 39456, Note_on_c, 6, 52, 0
8, 39456, Note_on_c, 6, 47, 127
8, 39456, Note_on_c, 6, 52, 127
8, 39504, Note_on_c, 6, 52, 0
8, 39504, Note_on_c, 6, 47, 0
8, 39504, Note_on_c, 6, 52, 99
8, 39504, Note_on_c, 6, 47, 99
8, 39552, Note_on_c, 6, 47, 0
8, 39552, Note_on_c, 6, 52, 0
8, 39552, Note_on_c, 6, 52, 127
8, 39552, Note_on_c, 6, 47, 127
8, 39600, Note_on_c, 6, 47, 0
8, 39600, Note_on_c, 6, 52, 0
8, 39600, Note_on_c, 6, 47, 95
8, 39600, Note_on_c, 6, 52, 95
8, 39648, Note_on_c, 6, 52, 0
8, 39648, Note_on_c, 6, 47, 0
8, 39648, Note_on_c, 6, 52, 127
8, 39648, Note_on_c, 6, 47, 127
8, 39696, Note_on_c, 6, 47, 0
8, 39696, Note_on_c, 6, 52, 0
8, 39696, Note_on_c, 6, 47, 99
8, 39696, Note_on_c, 6, 52, 99
8, 39744, Note_on_c, 6, 52, 0
8, 39744, Note_on_c, 6, 47, 0
8, 39744, Note_on_c, 6, 47, 127
8, 39744, Note_on_c, 6, 52, 127
8, 39792, Note_on_c, 6, 52, 0
8, 39792, Note_on_c, 6, 47, 0
8, 39792, Note_on_c, 6, 52, 99
8, 39792, Note_on_c, 6, 47, 99
8, 39840, Note_on_c, 6, 47, 0
8, 39840, Note_on_c, 6, 52, 0
8, 39840, Note_on_c, 6, 47, 127
8, 39840, Note_on_c, 6, 52, 127
8, 39888, Note_on_c, 6, 52, 0
8, 39888, Note_on_c, 6, 47, 0
8, 39888, Note_on_c, 6, 52, 99
8, 39888, Note_on_c, 6, 47, 99
8, 39936, Note_on_c, 6, 47, 0
8, 39936, Note_on_c, 6, 52, 0
8, 39936, Note_on_c, 6, 52, 127
8, 39936, Note_on_c, 6, 47, 127
8, 39984, Note_on_c, 6, 47, 0
8, 39984, Note_on_c, 6, 52, 0
8, 39984, Note_on_c, 6, 47, 95
8, 39984, Note_on_c, 6, 52, 95
8, 40032, Note_on_c, 6, 52, 0
8, 40032, Note_on_c, 6, 47, 0
8, 40032, Note_on_c, 6, 52, 127
8, 40032, Note_on_c, 6, 47, 127
8, 40080, Note_on_c, 6, 47, 0
8, 40080, Note_on_c, 6, 52, 0
8, 40080, Note_on_c, 6, 47, 101
8, 40080, Note_on_c, 6, 52, 101
8, 40128, Note_on_c, 6, 52, 0
8, 40128, Note_on_c, 6, 47, 0
8, 40128, Note_on_c, 6, 47, 127
8, 40128, Note_on_c, 6, 52, 127
8, 40176, Note_on_c, 6, 52, 0
8, 40176, Note_on_c, 6, 47, 0
8, 40176, Note_on_c, 6, 52, 100
8, 40176, Note_on_c, 6, 47, 100
8, 40224, Note_on_c, 6, 47, 0
8, 40224, Note_on_c, 6, 52, 0
8, 40224, Note_on_c, 6, 47, 127
8, 40224, Note_on_c, 6, 52, 127
8, 40272, Note_on_c, 6, 52, 0
8, 40272, Note_on_c, 6, 47, 0
8, 40272, Note_on_c, 6, 52, 100
8, 40272, Note_on_c, 6, 47, 100
8, 40320, Note_on_c, 6, 47, 0
8, 40320, Note_on_c, 6, 52, 0
8, 40320, Note_on_c, 6, 52, 127
8, 40320, Note_on_c, 6, 47, 127
8, 40368, Note_on_c, 6, 47, 0
8, 40368, Note_on_c, 6, 52, 0
8, 40368, Note_on_c, 6, 47, 98
8, 40368, Note_on_c, 6, 52, 98
8, 40416, Note_on_c, 6, 52, 0
8, 40416, Note_on_c, 6, 47, 0
8, 40416, Note_on_c, 6, 52, 127
8, 40416, Note_on_c, 6, 47, 127
8, 40464, Note_on_c, 6, 47, 0
8, 40464, Note_on_c, 6, 52, 0
8, 40464, Note_on_c, 6, 47, 98
8, 40464, Note_on_c, 6, 52, 98
8, 40512, Note_on_c, 6, 52, 0
8, 40512, Note_on_c, 6, 47, 0
8, 40512, Note_on_c, 6, 47, 127
8, 40512, Note_on_c, 6, 52, 127
8, 40560, Note_on_c, 6, 52, 0
8, 40560, Note_on_c, 6, 47, 0
8, 40560, Note_on_c, 6, 52, 100
8, 40560, Note_on_c, 6, 47, 100
8, 40608, Note_on_c, 6, 47, 0
8, 40608, Note_on_c, 6, 52, 0
8, 40608, Note_on_c, 6, 47, 127
8, 40608, Note_on_c, 6, 52, 127
8, 40656, Note_on_c, 6, 52, 0
8, 40656, Note_on_c, 6, 47, 0
8, 40656, Note_on_c, 6, 52, 99
8, 40656, Note_on_c, 6, 47, 99
8, 40704, Note_on_c, 6, 47, 0
8, 40704, Note_on_c, 6, 52, 0
8, 40704, Note_on_c, 6, 52, 127
8, 40704, Note_on_c, 6, 47, 127
8, 40752, Note_on_c, 6, 47, 0
8, 40752, Note_on_c, 6, 52, 0
8, 40752, Note_on_c, 6, 47, 98
8, 40752, Note_on_c, 6, 52, 98
8, 40800, Note_on_c, 6, 52, 0
8, 40800, Note_on_c, 6, 47, 0
8, 40800, Note_on_c, 6, 52, 127
8, 40800, Note_on_c, 6, 47, 127
8, 40848, Note_on_c, 6, 47, 0
8, 40848, Note_on_c, 6, 52, 0
8, 40848, Note_on_c, 6, 47, 98
8, 40848, Note_on_c, 6, 52, 98
8, 40896, Note_on_c, 6, 52, 0
8, 40896, Note_on_c, 6, 47, 0
8, 40896, Note_on_c, 6, 47, 127
8, 40896, Note_on_c, 6, 52, 127
8, 40944, Note_on_c, 6, 52, 0
8, 40944, Note_on_c, 6, 47, 0
8, 40944, Note_on_c, 6, 52, 100
8, 40944, Note_on_c, 6, 47, 100
8, 40992, Note_on_c, 6, 47, 0
8, 40992, Note_on_c, 6, 52, 0
8, 40992, Note_on_c, 6, 47, 127
8, 40992, Note_on_c, 6, 52, 127
8, 41040, Note_on_c, 6, 52, 0
8, 41040, Note_on_c, 6, 47, 0
8, 41040, Note_on_c, 6, 52, 99
8, 41040, Note_on_c, 6, 47, 99
8, 41088, Note_on_c, 6, 47, 0
8, 41088, Note_on_c, 6, 52, 0
8, 41088, Note_on_c, 6, 52, 127
8, 41088, Note_on_c, 6, 47, 127
8, 41136, Note_on_c, 6, 47, 0
8, 41136, Note_on_c, 6, 52, 0
8, 41136, Note_on_c, 6, 47, 98
8, 41136, Note_on_c, 6, 52, 98
8, 41184, Note_on_c, 6, 52, 0
8, 41184, Note_on_c, 6, 47, 0
8, 41184, Note_on_c, 6, 52, 127
8, 41184, Note_on_c, 6, 47, 127
8, 41232, Note_on_c, 6, 47, 0
8, 41232, Note_on_c, 6, 52, 0
8, 41232, Note_on_c, 6, 47, 98
8, 41232, Note_on_c, 6, 52, 98
8, 41280, Note_on_c, 6, 52, 0
8, 41280, Note_on_c, 6, 47, 0
8, 41280, Note_on_c, 6, 47, 127
8, 41280, Note_on_c, 6, 52, 127
8, 41328, Note_on_c, 6, 52, 0
8, 41328, Note_on_c, 6, 47, 0
8, 41328, Note_on_c, 6, 52, 100
8, 41328, Note_on_c, 6, 47, 100
8, 41376, Note_on_c, 6, 47, 0
8, 41376, Note_on_c, 6, 52, 0
8, 41376, Note_on_c, 6, 47, 127
8, 41376, Note_on_c, 6, 52, 127
8, 41424, Note_on_c, 6, 52, 0
8, 41424, Note_on_c, 6, 47, 0
8, 41424, Note_on_c, 6, 52, 99
8, 41424, Note_on_c, 6, 47, 99
8, 41472, Note_on_c, 6, 47, 0
8, 41472, Note_on_c, 6, 52, 0
8, 41472, Note_on_c, 6, 52, 127
8, 41472, Note_on_c, 6, 47, 127
8, 41520, Note_on_c, 6, 47, 0
8, 41520, Note_on_c, 6, 52, 0
8, 41520, Note_on_c, 6, 47, 98
8, 41520, Note_on_c, 6, 52, 98
8, 41568, Note_on_c, 6, 52, 0
8, 41568, Note_on_c, 6, 47, 0
8, 41568, Note_on_c, 6, 52, 127
8, 41568, Note_on_c, 6, 47, 127
8, 41616, Note_on_c, 6, 47, 0
8, 41616, Note_on_c, 6, 52, 0
8, 41616, Note_on_c, 6, 47, 98
8, 41616, Note_on_c, 6, 52, 98
8, 41664, Note_on_c, 6, 52, 0
8, 41664, Note_on_c, 6, 47, 0
8, 41664, Note_on_c, 6, 47, 127
8, 41664, Note_on_c, 6, 52, 127
8, 41712, Note_on_c, 6, 52, 0
8, 41712, Note_on_c, 6, 47, 0
8, 41712, Note_on_c, 6, 52, 100
8, 41712, Note_on_c, 6, 47, 100
8, 41760, Note_on_c, 6, 47, 0
8, 41760, Note_on_c, 6, 52, 0
8, 41760, Note_on_c, 6, 47, 127
8, 41760, Note_on_c, 6, 52, 127
8, 41808, Note_on_c, 6, 52, 0
8, 41808, Note_on_c, 6, 47, 0
8, 41808, Note_on_c, 6, 52, 99
8, 41808, Note_on_c, 6, 47, 99
8, 41856, Note_on_c, 6, 47, 0
8, 41856, Note_on_c, 6, 52, 0
8, 41856, Note_on_c, 6, 52, 127
8, 41856, Note_on_c, 6, 47, 127
8, 41904, Note_on_c, 6, 47, 0
8, 41904, Note_on_c, 6, 52, 0
8, 41904, Note_on_c, 6, 47, 98
8, 41904, Note_on_c, 6, 52, 98
8, 41952, Note_on_c, 6, 52, 0
8, 41952, Note_on_c, 6, 47, 0
8, 41952, Note_on_c, 6, 52, 127
8, 41952, Note_on_c, 6, 47, 127
8, 42000, Note_on_c, 6, 47, 0
8, 42000, Note_on_c, 6, 52, 0
8, 42000, Note_on_c, 6, 47, 98
8, 42000, Note_on_c, 6, 52, 98
8, 42048, Note_on_c, 6, 52, 0
8, 42048, Note_on_c, 6, 47, 0
8, 42048, Note_on_c, 6, 47, 127
8, 42048, Note_on_c, 6, 52, 127
8, 42096, Note_on_c, 6, 52, 0
8, 42096, Note_on_c, 6, 47, 0
8, 42096, Note_on_c, 6, 52, 100
8, 42096, Note_on_c, 6, 47, 100
8, 42144, Note_on_c, 6, 47, 0
8, 42144, Note_on_c, 6, 52, 0
8, 42144, Note_on_c, 6, 47, 127
8, 42144, Note_on_c, 6, 52, 127
8, 42192, Note_on_c, 6, 52, 0
8, 42192, Note_on_c, 6, 47, 0
8, 42192, Note_on_c, 6, 52, 99
8, 42192, Note_on_c, 6, 47, 99
8, 42240, Note_on_c, 6, 47, 0
8, 42240, Note_on_c, 6, 52, 0
8, 42240, Note_on_c, 6, 52, 127
8, 42240, Note_on_c, 6, 47, 127
8, 42288, Note_on_c, 6, 47, 0
8, 42288, Note_on_c, 6, 52, 0
8, 42288, Note_on_c, 6, 47, 98
8, 42288, Note_on_c, 6, 52, 98
8, 42336, Note_on_c, 6, 52, 0
8, 42336, Note_on_c, 6, 47, 0
8, 42336, Note_on_c, 6, 52, 127
8, 42336, Note_on_c, 6, 47, 127
8, 42384, Note_on_c, 6, 47, 0
8, 42384, Note_on_c, 6, 52, 0
8, 42384, Note_on_c, 6, 47, 98
8, 42384, Note_on_c, 6, 52, 98
8, 42432, Note_on_c, 6, 52, 0
8, 42432, Note_on_c, 6, 47, 0
8, 42432, Note_on_c, 6, 47, 127
8, 42432, Note_on_c, 6, 52, 127
8, 42480, Note_on_c, 6, 52, 0
8, 42480, Note_on_c, 6, 47, 0
8, 42480, Note_on_c, 6, 52, 100
8, 42480, Note_on_c, 6, 47, 100
8, 42528, Note_on_c, 6, 47, 0
8, 42528, Note_on_c, 6, 52, 0
8, 42528, Note_on_c, 6, 47, 127
8, 42528, Note_on_c, 6, 52, 127
8, 42576, Note_on_c, 6, 52, 0
8, 42576, Note_on_c, 6, 47, 0
8, 42576, Note_on_c, 6, 52, 99
8, 42576, Note_on_c, 6, 47, 99
8, 42624, Note_on_c, 6, 47, 0
8, 42624, Note_on_c, 6, 52, 0
8, 42624, Note_on_c, 6, 52, 127
8, 42624, Note_on_c, 6, 47, 127
8, 42672, Note_on_c, 6, 47, 0
8, 42672, Note_on_c, 6, 52, 0
8, 42672, Note_on_c, 6, 47, 98
8, 42672, Note_on_c, 6, 52, 98
8, 42720, Note_on_c, 6, 52, 0
8, 42720, Note_on_c, 6, 47, 0
8, 42720, Note_on_c, 6, 52, 127
8, 42720, Note_on_c, 6, 47, 127
8, 42768, Note_on_c, 6, 47, 0
8, 42768, Note_on_c, 6, 52, 0
8, 42768, Note_on_c, 6, 47, 98
8, 42768, Note_on_c, 6, 52, 98
8, 42816, Note_on_c, 6, 52, 0
8, 42816, Note_on_c, 6, 47, 0
8, 42816, Note_on_c, 6, 47, 127
8, 42816, Note_on_c, 6, 52, 127
8, 42864, Note_on_c, 6, 52, 0
8, 42864, Note_on_c, 6, 47, 0
8, 42864, Note_on_c, 6, 52, 100
8, 42864, Note_on_c, 6, 47, 100
8, 42912, Note_on_c, 6, 47, 0
8, 42912, Note_on_c, 6, 52, 0
8, 42912, Note_on_c, 6, 47, 127
8, 42912, Note_on_c, 6, 52, 127
8, 42960, Note_on_c, 6, 52, 0
8, 42960, Note_on_c, 6, 47, 0
8, 42960, Note_on_c, 6, 52, 99
8, 42960, Note_on_c, 6, 47, 99
8, 43008, Note_on_c, 6, 47, 0
8, 43008, Note_on_c, 6, 52, 0
8, 43008, Note_on_c, 6, 52, 127
8, 43008, Note_on_c, 6, 47, 127
8, 43056, Note_on_c, 6, 47, 0
8, 43056, Note_on_c, 6, 52, 0
8, 43056, Note_on_c, 6, 47, 98
8, 43056, Note_on_c, 6, 52, 98
8, 43104, Note_on_c, 6, 52, 0
8, 43104, Note_on_c, 6, 47, 0
8, 43104, Note_on_c, 6, 52, 127
8, 43104, Note_on_c, 6, 47, 127
8, 43152, Note_on_c, 6, 47, 0
8, 43152, Note_on_c, 6, 52, 0
8, 43152, Note_on_c, 6, 47, 98
8, 43152, Note_on_c, 6, 52, 98
8, 43200, Note_on_c, 6, 52, 0
8, 43200, Note_on_c, 6, 47, 0
8, 43200, Note_on_c, 6, 47, 127
8, 43200, Note_on_c, 6, 52, 127
8, 43248, Note_on_c, 6, 52, 0
8, 43248, Note_on_c, 6, 47, 0
8, 43248, Note_on_c, 6, 52, 100
8, 43248, Note_on_c, 6, 47, 100
8, 43296, Note_on_c, 6, 47, 0
8, 43296, Note_on_c, 6, 52, 0
8, 43296, Note_on_c, 6, 47, 127
8, 43296, Note_on_c, 6, 52, 127
8, 43344, Note_on_c, 6, 52, 0
8, 43344, Note_on_c, 6, 47, 0
8, 43344, Note_on_c, 6, 52, 99
8, 43344, Note_on_c, 6, 47, 99
8, 43392, Note_on_c, 6, 47, 0
8, 43392, Note_on_c, 6, 52, 0
8, 43392, Note_on_c, 6, 52, 127
8, 43392, Note_on_c, 6, 47, 127
8, 43440, Note_on_c, 6, 47, 0
8, 43440, Note_on_c, 6, 52, 0
8, 43440, Note_on_c, 6, 47, 98
8, 43440, Note_on_c, 6, 52, 98
8, 43488, Note_on_c, 6, 52, 0
8, 43488, Note_on_c, 6, 47, 0
8, 43488, Note_on_c, 6, 52, 127
8, 43488, Note_on_c, 6, 47, 127
8, 43536, Note_on_c, 6, 47, 0
8, 43536, Note_on_c, 6, 52, 0
8, 43536, Note_on_c, 6, 47, 98
8, 43536, Note_on_c, 6, 52, 98
8, 43584, Note_on_c, 6, 52, 0
8, 43584, Note_on_c, 6, 47, 0
8, 43584, Note_on_c, 6, 47, 127
8, 43584, Note_on_c, 6, 52, 127
8, 43632, Note_on_c, 6, 52, 0
8, 43632, Note_on_c, 6, 47, 0
8, 43632, Note_on_c, 6, 52, 100
8, 43632, Note_on_c, 6, 47, 100
8, 43680, Note_on_c, 6, 47, 0
8, 43680, Note_on_c, 6, 52, 0
8, 43680, Note_on_c, 6, 47, 127
8, 43680, Note_on_c, 6, 52, 127
8, 43728, Note_on_c, 6, 52, 0
8, 43728, Note_on_c, 6, 47, 0
8, 43728, Note_on_c, 6, 52, 99
8, 43728, Note_on_c, 6, 47, 99
8, 43776, Note_on_c, 6, 47, 0
8, 43776, Note_on_c, 6, 52, 0
8, 43776, Note_on_c, 6, 52, 127
8, 43776, Note_on_c, 6, 47, 127
8, 43824, Note_on_c, 6, 47, 0
8, 43824, Note_on_c, 6, 52, 0
8, 43824, Note_on_c, 6, 47, 98
8, 43824, Note_on_c, 6, 52, 98
8, 43872, Note_on_c, 6, 52, 0
8, 43872, Note_on_c, 6, 47, 0
8, 43872, Note_on_c, 6, 52, 127
8, 43872, Note_on_c, 6, 47, 127
8, 43920, Note_on_c, 6, 47, 0
8, 43920, Note_on_c, 6, 52, 0
8, 43920, Note_on_c, 6, 47, 98
8, 43920, Note_on_c, 6, 52, 98
8, 43968, Note_on_c, 6, 52, 0
8, 43968, Note_on_c, 6, 47, 0
8, 43968, Note_on_c, 6, 47, 127
8, 43968, Note_on_c, 6, 52, 127
8, 44016, Note_on_c, 6, 52, 0
8, 44016, Note_on_c, 6, 47, 0
8, 44016, Note_on_c, 6, 52, 100
8, 44016, Note_on_c, 6, 47, 100
8, 44064, Note_on_c, 6, 47, 0
8, 44064, Note_on_c, 6, 52, 0
8, 44064, Note_on_c, 6, 47, 127
8, 44064, Note_on_c, 6, 52, 127
8, 44112, Note_on_c, 6, 52, 0
8, 44112, Note_on_c, 6, 47, 0
8, 44112, Note_on_c, 6, 52, 99
8, 44112, Note_on_c, 6, 47, 99
8, 44160, Note_on_c, 6, 47, 0
8, 44160, Note_on_c, 6, 52, 0
8, 44160, Note_on_c, 6, 52, 127
8, 44160, Note_on_c, 6, 47, 127
8, 44208, Note_on_c, 6, 47, 0
8, 44208, Note_on_c, 6, 52, 0
8, 44208, Note_on_c, 6, 47, 98
8, 44208, Note_on_c, 6, 52, 98
8, 44256, Note_on_c, 6, 52, 0
8, 44256, Note_on_c, 6, 47, 0
8, 44256, Note_on_c, 6, 52, 127
8, 44256, Note_on_c, 6, 47, 127
8, 44304, Note_on_c, 6, 47, 0
8, 44304, Note_on_c, 6, 52, 0
8, 44304, Note_on_c, 6, 47, 98
8, 44304, Note_on_c, 6, 52, 98
8, 44352, Note_on_c, 6, 52, 0
8, 44352, Note_on_c, 6, 47, 0
8, 44352, Note_on_c, 6, 47, 127
8, 44352, Note_on_c, 6, 52, 127
8, 44400, Note_on_c, 6, 52, 0
8, 44400, Note_on_c, 6, 47, 0
8, 44400, Note_on_c, 6, 52, 100
8, 44400, Note_on_c, 6, 47, 100
8, 44448, Note_on_c, 6, 47, 0
8, 44448, Note_on_c, 6, 52, 0
8, 44448, Note_on_c, 6, 47, 127
8, 44448, Note_on_c, 6, 52, 127
8, 44496, Note_on_c, 6, 52, 0
8, 44496, Note_on_c, 6, 47, 0
8, 44496, Note_on_c, 6, 52, 99
8, 44496, Note_on_c, 6, 47, 99
8, 44544, Note_on_c, 6, 47, 0
8, 44544, Note_on_c, 6, 52, 0
8, 44544, Note_on_c, 6, 52, 127
8, 44544, Note_on_c, 6, 47, 127
8, 44592, Note_on_c, 6, 47, 0
8, 44592, Note_on_c, 6, 52, 0
8, 44592, Note_on_c, 6, 47, 98
8, 44592, Note_on_c, 6, 52, 98
8, 44640, Note_on_c, 6, 52, 0
8, 44640, Note_on_c, 6, 47, 0
8, 44640, Note_on_c, 6, 52, 127
8, 44640, Note_on_c, 6, 47, 127
8, 44688, Note_on_c, 6, 47, 0
8, 44688, Note_on_c, 6, 52, 0
8, 44688, Note_on_c, 6, 47, 98
8, 44688, Note_on_c, 6, 52, 98
8, 44736, Note_on_c, 6, 52, 0
8, 44736, Note_on_c, 6, 47, 0
8, 44736, Note_on_c, 6, 47, 127
8, 44736, Note_on_c, 6, 52, 127
8, 44784, Note_on_c, 6, 52, 0
8, 44784, Note_on_c, 6, 47, 0
8, 44784, Note_on_c, 6, 52, 100
8, 44784, Note_on_c, 6, 47, 100
8, 44832, Note_on_c, 6, 47, 0
8, 44832, Note_on_c, 6, 52, 0
8, 44832, Note_on_c, 6, 47, 127
8, 44832, Note_on_c, 6, 52, 127
8, 44880, Note_on_c, 6, 52, 0
8, 44880, Note_on_c, 6, 47, 0
8, 44880, Note_on_c, 6, 52, 99
8, 44880, Note_on_c, 6, 47, 99
8, 44928, Note_on_c, 6, 47, 0
8, 44928, Note_on_c, 6, 52, 0
8, 44928, Note_on_c, 6, 52, 127
8, 44928, Note_on_c, 6, 47, 127
8, 44976, Note_on_c, 6, 47, 0
8, 44976, Note_on_c, 6, 52, 0
8, 44976, Note_on_c, 6, 47, 98
8, 44976, Note_on_c, 6, 52, 98
8, 45024, Note_on_c, 6, 52, 0
8, 45024, Note_on_c, 6, 47, 0
8, 45024, Note_on_c, 6, 52, 127
8, 45024, Note_on_c, 6, 47, 127
8, 45072, Note_on_c, 6, 47, 0
8, 45072, Note_on_c, 6, 52, 0
8, 45072, Note_on_c, 6, 47, 98
8, 45072, Note_on_c, 6, 52, 98
8, 45120, Note_on_c, 6, 52, 0
8, 45120, Note_on_c, 6, 47, 0
8, 45120, Note_on_c, 6, 47, 127
8, 45120, Note_on_c, 6, 52, 127
8, 45168, Note_on_c, 6, 52, 0
8, 45168, Note_on_c, 6, 47, 0
8, 45168, Note_on_c, 6, 52, 100
8, 45168, Note_on_c, 6, 47, 100
8, 45216, Note_on_c, 6, 47, 0
8, 45216, Note_on_c, 6, 52, 0
8, 45216, Note_on_c, 6, 47, 127
8, 45216, Note_on_c, 6, 52, 127
8, 45264, Note_on_c, 6, 52, 0
8, 45264, Note_on_c, 6, 47, 0
8, 45264, Note_on_c, 6, 52, 99
8, 45264, Note_on_c, 6, 47, 99
8, 45312, Note_on_c, 6, 47, 0
8, 45312, Note_on_c, 6, 52, 0
8, 45312, Note_on_c, 6, 52, 127
8, 45312, Note_on_c, 6, 47, 127
8, 45360, Note_on_c, 6, 47, 0
8, 45360, Note_on_c, 6, 52, 0
8, 45360, Note_on_c, 6, 47, 98
8, 45360, Note_on_c, 6, 52, 98
8, 45408, Note_on_c, 6, 52, 0
8, 45408, Note_on_c, 6, 47, 0
8, 45408, Note_on_c, 6, 52, 127
8, 45408, Note_on_c, 6, 47, 127
8, 45456, Note_on_c, 6, 47, 0
8, 45456, Note_on_c, 6, 52, 0
8, 45456, Note_on_c, 6, 47, 98
8, 45456, Note_on_c, 6, 52, 98
8, 45504, Note_on_c, 6, 52, 0
8, 45504, Note_on_c, 6, 47, 0
8, 45504, Note_on_c, 6, 47, 127
8, 45504, Note_on_c, 6, 52, 127
8, 45552, Note_on_c, 6, 52, 0
8, 45552, Note_on_c, 6, 47, 0
8, 45552, Note_on_c, 6, 52, 100
8, 45552, Note_on_c, 6, 47, 100
8, 45600, Note_on_c, 6, 47, 0
8, 45600, Note_on_c, 6, 52, 0
8, 45600, Note_on_c, 6, 47, 127
8, 45600, Note_on_c, 6, 52, 127
8, 45648, Note_on_c, 6, 52, 0
8, 45648, Note_on_c, 6, 47, 0
8, 45648, Note_on_c, 6, 52, 99
8, 45648, Note_on_c, 6, 47, 99
8, 45696, Note_on_c, 6, 47, 0
8, 45696, Note_on_c, 6, 52, 0
8, 45696, Note_on_c, 6, 52, 127
8, 45696, Note_on_c, 6, 47, 127
8, 45744, Note_on_c, 6, 47, 0
8, 45744, Note_on_c, 6, 52, 0
8, 45744, Note_on_c, 6, 47, 98
8, 45744, Note_on_c, 6, 52, 98
8, 45792, Note_on_c, 6, 52, 0
8, 45792, Note_on_c, 6, 47, 0
8, 45792, Note_on_c, 6, 52, 127
8, 45792, Note_on_c, 6, 47, 127
8, 45840, Note_on_c, 6, 47, 0
8, 45840, Note_on_c, 6, 52, 0
8, 45840, Note_on_c, 6, 47, 98
8, 45840, Note_on_c, 6, 52, 98
8, 45888, Note_on_c, 6, 52, 0
8, 45888, Note_on_c, 6, 47, 0
8, 45888, Note_on_c, 6, 47, 127
8, 45888, Note_on_c, 6, 52, 127
8, 45936, Note_on_c, 6, 52, 0
8, 45936, Note_on_c, 6, 47, 0
8, 45936, Note_on_c, 6, 52, 100
8, 45936, Note_on_c, 6, 47, 100
8, 45984, Note_on_c, 6, 47, 0
8, 45984, Note_on_c, 6, 52, 0
8, 45984, Note_on_c, 6, 47, 127
8, 45984, Note_on_c, 6, 52, 127
8, 46032, Note_on_c, 6, 52, 0
8, 46032, Note_on_c, 6, 47, 0
8, 46032, Note_on_c, 6, 52, 99
8, 46032, Note_on_c, 6, 47, 99
8, 46080, Note_on_c, 6, 47, 0
8, 46080, Note_on_c, 6, 52, 0
8, 46080, Note_on_c, 6, 52, 127
8, 46080, Note_on_c, 6, 47, 127
8, 46128, Note_on_c, 6, 47, 0
8, 46128, Note_on_c, 6, 52, 0
8, 46128, Note_on_c, 6, 47, 98
8, 46128, Note_on_c, 6, 52, 98
8, 46176, Note_on_c, 6, 52, 0
8, 46176, Note_on_c, 6, 47, 0
8, 46176, Note_on_c, 6, 52, 127
8, 46176, Note_on_c, 6, 47, 127
8, 46224, Note_on_c, 6, 47, 0
8, 46224, Note_on_c, 6, 52, 0
8, 46224, Note_on_c, 6, 47, 98
8, 46224, Note_on_c, 6, 52, 98
8, 46272, Note_on_c, 6, 52, 0
8, 46272, Note_on_c, 6, 47, 0
8, 46272, Note_on_c, 6, 47, 127
8, 46272, Note_on_c, 6, 52, 127
8, 46320, Note_on_c, 6, 52, 0
8, 46320, Note_on_c, 6, 47, 0
8, 46320, Note_on_c, 6, 52, 100
8, 46320, Note_on_c, 6, 47, 100
8, 46368, Note_on_c, 6, 47, 0
8, 46368, Note_on_c, 6, 52, 0
8, 46368, Note_on_c, 6, 47, 127
8, 46368, Note_on_c, 6, 52, 127
8, 46416, Note_on_c, 6, 52, 0
8, 46416, Note_on_c, 6, 47, 0
8, 46416, Note_on_c, 6, 52, 99
8, 46416, Note_on_c, 6, 47, 99
8, 46464, Note_on_c, 6, 47, 0
8, 46464, Note_on_c, 6, 52, 0
8, 46464, Note_on_c, 6, 52, 127
8, 46464, Note_on_c, 6, 47, 127
8, 46512, Note_on_c, 6, 47, 0
8, 46512, Note_on_c, 6, 52, 0
8, 46512, Note_on_c, 6, 47, 98
8, 46512, Note_on_c, 6, 52, 98
8, 46560, Note_on_c, 6, 52, 0
8, 46560, Note_on_c, 6, 47, 0
8, 46560, Note_on_c, 6, 52, 127
8, 46560, Note_on_c, 6, 47, 127
8, 46608, Note_on_c, 6, 47, 0
8, 46608, Note_on_c, 6, 52, 0
8, 46608, Note_on_c, 6, 47, 98
8, 46608, Note_on_c, 6, 52, 98
8, 46656, Note_on_c, 6, 52, 0
8, 46656, Note_on_c, 6, 47, 0
8, 46656, Note_on_c, 6, 47, 127
8, 46656, Note_on_c, 6, 52, 127
8, 46704, Note_on_c, 6, 52, 0
8, 46704, Note_on_c, 6, 47, 0
8, 46704, Note_on_c, 6, 52, 100
8, 46704, Note_on_c, 6, 47, 100
8, 46752, Note_on_c, 6, 47, 0
8, 46752, Note_on_c, 6, 52, 0
8, 46752, Note_on_c, 6, 47, 127
8, 46752, Note_on_c, 6, 52, 127
8, 46800, Note_on_c, 6, 52, 0
8, 46800, Note_on_c, 6, 47, 0
8, 46800, Note_on_c, 6, 52, 99
8, 46800, Note_on_c, 6, 47, 99
8, 46848, Note_on_c, 6, 47, 0
8, 46848, Note_on_c, 6, 52, 0
8, 46848, Note_on_c, 6, 52, 127
8, 46848, Note_on_c, 6, 47, 127
8, 46896, Note_on_c, 6, 47, 0
8, 46896, Note_on_c, 6, 52, 0
8, 46896, Note_on_c, 6, 47, 98
8, 46896, Note_on_c, 6, 52, 98
8, 46944, Note_on_c, 6, 52, 0
8, 46944, Note_on_c, 6, 47, 0
8, 46944, Note_on_c, 6, 52, 127
8, 46944, Note_on_c, 6, 47, 127
8, 46992, Note_on_c, 6, 47, 0
8, 46992, Note_on_c, 6, 52, 0
8, 46992, Note_on_c, 6, 47, 98
8, 46992, Note_on_c, 6, 52, 98
8, 47040, Note_on_c, 6, 52, 0
8, 47040, Note_on_c, 6, 47, 0
8, 47040, Note_on_c, 6, 47, 127
8, 47040, Note_on_c, 6, 52, 127
8, 47088, Note_on_c, 6, 52, 0
8, 47088, Note_on_c, 6, 47, 0
8, 47088, Note_on_c, 6, 52, 100
8, 47088, Note_on_c, 6, 47, 100
8, 47136, Note_on_c, 6, 47, 0
8, 47136, Note_on_c, 6, 52, 0
8, 47136, Note_on_c, 6, 47, 127
8, 47136, Note_on_c, 6, 52, 127
8, 47184, Note_on_c, 6, 52, 0
8, 47184, Note_on_c, 6, 47, 0
8, 47184, Note_on_c, 6, 52, 99
8, 47184, Note_on_c, 6, 47, 99
8, 47232, Note_on_c, 6, 47, 0
8, 47232, Note_on_c, 6, 52, 0
8, 47232, Note_on_c, 6, 52, 127
8, 47232, Note_on_c, 6, 47, 127
8, 47280, Note_on_c, 6, 47, 0
8, 47280, Note_on_c, 6, 52, 0
8, 47280, Note_on_c, 6, 47, 98
8, 47280, Note_on_c, 6, 52, 98
8, 47328, Note_on_c, 6, 52, 0
8, 47328, Note_on_c, 6, 47, 0
8, 47328, Note_on_c, 6, 52, 127
8, 47328, Note_on_c, 6, 47, 127
8, 47376, Note_on_c, 6, 47, 0
8, 47376, Note_on_c, 6, 52, 0
8, 47376, Note_on_c, 6, 47, 98
8, 47376, Note_on_c, 6, 52, 98
8, 47424, Note_on_c, 6, 52, 0
8, 47424, Note_on_c, 6, 47, 0
8, 47424, Note_on_c, 6, 47, 127
8, 47424, Note_on_c, 6, 52, 127
8, 47472, Note_on_c, 6, 52, 0
8, 47472, Note_on_c, 6, 47, 0
8, 47472, Note_on_c, 6, 52, 100
8, 47472, Note_on_c, 6, 47, 100
8, 47520, Note_on_c, 6, 47, 0
8, 47520, Note_on_c, 6, 52, 0
8, 47520, Note_on_c, 6, 47, 127
8, 47520, Note_on_c, 6, 52, 127
8, 47568, Note_on_c, 6, 52, 0
8, 47568, Note_on_c, 6, 47, 0
8, 47568, Note_on_c, 6, 52, 99
8, 47568, Note_on_c, 6, 47, 99
8, 47616, Note_on_c, 6, 47, 0
8, 47616, Note_on_c, 6, 52, 0
8, 47616, Note_on_c, 6, 52, 127
8, 47616, Note_on_c, 6, 47, 127
8, 47664, Note_on_c, 6, 47, 0
8, 47664, Note_on_c, 6, 52, 0
8, 47664, Note_on_c, 6, 47, 98
8, 47664, Note_on_c, 6, 52, 98
8, 47712, Note_on_c, 6, 52, 0
8, 47712, Note_on_c, 6, 47, 0
8, 47712, Note_on_c, 6, 52, 127
8, 47712, Note_on_c, 6, 47, 127
8, 47760, Note_on_c, 6, 47, 0
8, 47760, Note_on_c, 6, 52, 0
8, 47760, Note_on_c, 6, 47, 98
8, 47760, Note_on_c, 6, 52, 98
8, 47808, Note_on_c, 6, 52, 0
8, 47808, Note_on_c, 6, 47, 0
8, 47808, Note_on_c, 6, 47, 127
8, 47808, Note_on_c, 6, 52, 127
8, 47856, Note_on_c, 6, 52, 0
8, 47856, Note_on_c, 6, 47, 0
8, 47856, Note_on_c, 6, 52, 100
8, 47856, Note_on_c, 6, 47, 100
8, 47904, Note_on_c, 6, 47, 0
8, 47904, Note_on_c, 6, 52, 0
8, 47904, Note_on_c, 6, 47, 127
8, 47904, Note_on_c, 6, 52, 127
8, 47952, Note_on_c, 6, 52, 0
8, 47952, Note_on_c, 6, 47, 0
8, 47952, Note_on_c, 6, 52, 99
8, 47952, Note_on_c, 6, 47, 99
8, 48000, Note_on_c, 6, 47, 0
8, 48000, Note_on_c, 6, 52, 0
8, 48000, Note_on_c, 6, 52, 127
8, 48000, Note_on_c, 6, 47, 127
8, 48048, Note_on_c, 6, 47, 0
8, 48048, Note_on_c, 6, 52, 0
8, 48048, Note_on_c, 6, 47, 98
8, 48048, Note_on_c, 6, 52, 98
8, 48096, Note_on_c, 6, 52, 0
8, 48096, Note_on_c, 6, 47, 0
8, 48096, Note_on_c, 6, 52, 127
8, 48096, Note_on_c, 6, 47, 127
8, 48144, Note_on_c, 6, 47, 0
8, 48144, Note_on_c, 6, 52, 0
8, 48144, Note_on_c, 6, 47, 98
8, 48144, Note_on_c, 6, 52, 98
8, 48192, Note_on_c, 6, 52, 0
8, 48192, Note_on_c, 6, 47, 0
8, 48192, Note_on_c, 6, 47, 127
8, 48192, Note_on_c, 6, 52, 127
8, 48240, Note_on_c, 6, 52, 0
8, 48240, Note_on_c, 6, 47, 0
8, 48240, Note_on_c, 6, 52, 100
8, 48240, Note_on_c, 6, 47, 100
8, 48288, Note_on_c, 6, 47, 0
8, 48288, Note_on_c, 6, 52, 0
8, 48288, Note_on_c, 6, 47, 127
8, 48288, Note_on_c, 6, 52, 127
8, 48336, Note_on_c, 6, 52, 0
8, 48336, Note_on_c, 6, 47, 0
8, 48336, Note_on_c, 6, 52, 99
8, 48336, Note_on_c, 6, 47, 99
8, 48384, Note_on_c, 6, 47, 0
8, 48384, Note_on_c, 6, 52, 0
8, 48384, Note_on_c, 6, 52, 127
8, 48384, Note_on_c, 6, 47, 127
8, 48432, Note_on_c, 6, 47, 0
8, 48432, Note_on_c, 6, 52, 0
8, 48432, Note_on_c, 6, 47, 98
8, 48432, Note_on_c, 6, 52, 98
8, 48480, Note_on_c, 6, 52, 0
8, 48480, Note_on_c, 6, 47, 0
8, 48480, Note_on_c, 6, 52, 127
8, 48480, Note_on_c, 6, 47, 127
8, 48528, Note_on_c, 6, 47, 0
8, 48528, Note_on_c, 6, 52, 0
8, 48528, Note_on_c, 6, 47, 98
8, 48528, Note_on_c, 6, 52, 98
8, 48576, Note_on_c, 6, 52, 0
8, 48576, Note_on_c, 6, 47, 0
8, 48576, Note_on_c, 6, 47, 127
8, 48576, Note_on_c, 6, 52, 127
8, 48624, Note_on_c, 6, 52, 0
8, 48624, Note_on_c, 6, 47, 0
8, 48624, Note_on_c, 6, 52, 100
8, 48624, Note_on_c, 6, 47, 100
8, 48672, Note_on_c, 6, 47, 0
8, 48672, Note_on_c, 6, 52, 0
8, 48672, Note_on_c, 6, 47, 127
8, 48672, Note_on_c, 6, 52, 127
8, 48720, Note_on_c, 6, 52, 0
8, 48720, Note_on_c, 6, 47, 0
8, 48720, Note_on_c, 6, 52, 99
8, 48720, Note_on_c, 6, 47, 99
8, 48768, Note_on_c, 6, 47, 0
8, 48768, Note_on_c, 6, 52, 0
8, 48768, Note_on_c, 6, 52, 127
8, 48768, Note_on_c, 6, 47, 127
8, 48816, Note_on_c, 6, 47, 0
8, 48816, Note_on_c, 6, 52, 0
8, 48816, Note_on_c, 6, 47, 98
8, 48816, Note_on_c, 6, 52, 98
8, 48864, Note_on_c, 6, 52, 0
8, 48864, Note_on_c, 6, 47, 0
8, 48864, Note_on_c, 6, 52, 127
8, 48864, Note_on_c, 6, 47, 127
8, 48912, Note_on_c, 6, 47, 0
8, 48912, Note_on_c, 6, 52, 0
8, 48912, Note_on_c, 6, 47, 98
8, 48912, Note_on_c, 6, 52, 98
8, 48960, Note_on_c, 6, 52, 0
8, 48960, Note_on_c, 6, 47, 0
8, 48960, Note_on_c, 6, 47, 127
8, 48960, Note_on_c, 6, 52, 127
8, 49008, Note_on_c, 6, 52, 0
8, 49008, Note_on_c, 6, 47, 0
8, 49008, Note_on_c, 6, 52, 100
8, 49008, Note_on_c, 6, 47, 100
8, 49056, Note_on_c, 6, 47, 0
8, 49056, Note_on_c, 6, 52, 0
8, 49056, Note_on_c, 6, 47, 127
8, 49056, Note_on_c, 6, 52, 127
8, 49104, Note_on_c, 6, 52, 0
8, 49104, Note_on_c, 6, 47, 0
8, 49104, Note_on_c, 6, 52, 99
8, 49104, Note_on_c, 6, 47, 99
8, 49152, Note_on_c, 6, 47, 0
8, 49152, Note_on_c, 6, 52, 0
8, 49152, Note_on_c, 6, 52, 127
8, 49152, Note_on_c, 6, 47, 127
8, 49200, Note_on_c, 6, 47, 0
8, 49200, Note_on_c, 6, 52, 0
8, 49200, Note_on_c, 6, 47, 98
8, 49200, Note_on_c, 6, 52, 98
8, 49248, Note_on_c, 6, 52, 0
8, 49248, Note_on_c, 6, 47, 0
8, 49248, Note_on_c, 6, 52, 127
8, 49248, Note_on_c, 6, 47, 127
8, 49296, Note_on_c, 6, 47, 0
8, 49296, Note_on_c, 6, 52, 0
8, 49296, Note_on_c, 6, 47, 98
8, 49296, Note_on_c, 6, 52, 98
8, 49824, Note_on_c, 6, 52, 0
8, 49824, Note_on_c, 6, 47, 0
8, 49824, End_track
9, 0, Start_track
9, 0, MIDI_port, 0
9, 0, Title_t, "Rhythm Gtr 3"
9, 0, Program_c, 7, 27
9, 0, Control_c, 7, 7, 68
9, 0, Control_c, 7, 10, 48
9, 1, Program_c, 7, 27
9, 1, Control_c, 7, 91, 40
9, 2, Control_c, 7, 7, 68
9, 3, Control_c, 7, 11, 120
9, 11520, Note_on_c, 7, 40, 127
9, 11520, Note_on_c, 7, 47, 127
9, 11568, Note_on_c, 7, 47, 0
9, 11568, Note_on_c, 7, 40, 0
9, 11616, Note_on_c, 7, 56, 127
9, 11616, Note_on_c, 7, 52, 127
9, 11616, Note_on_c, 7, 59, 127
9, 11664, Note_on_c, 7, 59, 0
9, 11664, Note_on_c, 7, 52, 0
9, 11664, Note_on_c, 7, 56, 0
9, 11664, Note_on_c, 7, 47, 87
9, 11664, Note_on_c, 7, 40, 87
9, 11712, Note_on_c, 7, 40, 0
9, 11712, Note_on_c, 7, 47, 0
9, 11712, Note_on_c, 7, 47, 127
9, 11712, Note_on_c, 7, 40, 127
9, 11760, Note_on_c, 7, 40, 0
9, 11760, Note_on_c, 7, 47, 0
9, 11760, Note_on_c, 7, 52, 127
9, 11760, Note_on_c, 7, 56, 127
9, 11760, Note_on_c, 7, 59, 127
9, 11808, Note_on_c, 7, 59, 0
9, 11808, Note_on_c, 7, 56, 0
9, 11808, Note_on_c, 7, 52, 0
9, 11856, Note_on_c, 7, 40, 125
9, 11856, Note_on_c, 7, 47, 125
9, 11904, Note_on_c, 7, 47, 0
9, 11904, Note_on_c, 7, 40, 0
9, 11952, Note_on_c, 7, 40, 127
9, 11952, Note_on_c, 7, 47, 127
9, 12000, Note_on_c, 7, 47, 0
9, 12000, Note_on_c, 7, 40, 0
9, 12000, Note_on_c, 7, 52, 127
9, 12000, Note_on_c, 7, 59, 127
9, 12000, Note_on_c, 7, 56, 127
9, 12048, Note_on_c, 7, 56, 0
9, 12048, Note_on_c, 7, 59, 0
9, 12048, Note_on_c, 7, 52, 0
9, 12048, Note_on_c, 7, 47, 85
9, 12048, Note_on_c, 7, 40, 85
9, 12096, Note_on_c, 7, 40, 0
9, 12096, Note_on_c, 7, 47, 0
9, 12096, Note_on_c, 7, 40, 127
9, 12096, Note_on_c, 7, 47, 127
9, 12144, Note_on_c, 7, 47, 0
9, 12144, Note_on_c, 7, 40, 0
9, 12144, Note_on_c, 7, 59, 127
9, 12144, Note_on_c, 7, 56, 127
9, 12144, Note_on_c, 7, 52, 127
9, 12192, Note_on_c, 7, 52, 0
9, 12192, Note_on_c, 7, 56, 0
9, 12192, Note_on_c, 7, 59, 0
9, 12240, Note_on_c, 7, 40, 127
9, 12240, Note_on_c, 7, 47, 127
9, 12288, Note_on_c, 7, 47, 0
9, 12288, Note_on_c, 7, 40, 0
9, 12336, Note_on_c, 7, 40, 127
9, 12336, Note_on_c, 7, 47, 127
9, 12384, Note_on_c, 7, 47, 0
9, 12384, Note_on_c, 7, 40, 0
9, 12384, Note_on_c, 7, 52, 127
9, 12384, Note_on_c, 7, 56, 127
9, 12384, Note_on_c, 7, 59, 127
9, 12432, Note_on_c, 7, 59, 0
9, 12432, Note_on_c, 7, 56, 0
9, 12432, Note_on_c, 7, 52, 0
9, 12432, Note_on_c, 7, 40, 127
9, 12432, Note_on_c, 7, 47, 127
9, 12480, Note_on_c, 7, 47, 0
9, 12480, Note_on_c, 7, 40, 0
9, 12480, Note_on_c, 7, 40, 127
9, 12480, Note_on_c, 7, 47, 127
9, 12528, Note_on_c, 7, 47, 0
9, 12528, Note_on_c, 7, 40, 0
9, 12528, Note_on_c, 7, 52, 127
9, 12528, Note_on_c, 7, 56, 127
9, 12528, Note_on_c, 7, 59, 127
9, 12576, Note_on_c, 7, 59, 0
9, 12576, Note_on_c, 7, 56, 0
9, 12576, Note_on_c, 7, 52, 0
9, 12576, Note_on_c, 7, 40, 127
9, 12576, Note_on_c, 7, 47, 127
9, 12624, Note_on_c, 7, 47, 0
9, 12624, Note_on_c, 7, 40, 0
9, 12624, Note_on_c, 7, 52, 127
9, 12624, Note_on_c, 7, 56, 127
9, 12624, Note_on_c, 7, 59, 127
9, 12672, Note_on_c, 7, 59, 0
9, 12672, Note_on_c, 7, 56, 0
9, 12672, Note_on_c, 7, 52, 0
9, 12720, Note_on_c, 7, 52, 100
9, 12720, Note_on_c, 7, 56, 100
9, 12720, Note_on_c, 7, 59, 100
9, 12768, Note_on_c, 7, 59, 0
9, 12768, Note_on_c, 7, 56, 0
9, 12768, Note_on_c, 7, 52, 0
9, 12768, Note_on_c, 7, 52, 127
9, 12768, Note_on_c, 7, 56, 127
9, 12768, Note_on_c, 7, 59, 127
9, 12816, Note_on_c, 7, 59, 0
9, 12816, Note_on_c, 7, 56, 0
9, 12816, Note_on_c, 7, 52, 0
9, 12816, Note_on_c, 7, 40, 90
9, 12864, Note_on_c, 7, 40, 0
9, 12864, Note_on_c, 7, 47, 127
9, 12864, Note_on_c, 7, 40, 127
9, 12912, Note_on_c, 7, 40, 0
9, 12912, Note_on_c, 7, 47, 0
9, 12912, Note_on_c, 7, 59, 127
9, 12912, Note_on_c, 7, 56, 127
9, 12912, Note_on_c, 7, 52, 127
9, 12960, Note_on_c, 7, 52, 0
9, 12960, Note_on_c, 7, 56, 0
9, 12960, Note_on_c, 7, 59, 0
9, 12960, Note_on_c, 7, 47, 127
9, 12960, Note_on_c, 7, 40, 127
9, 13008, Note_on_c, 7, 40, 0
9, 13008, Note_on_c, 7, 47, 0
9, 13008, Note_on_c, 7, 52, 127
9, 13008, Note_on_c, 7, 56, 127
9, 13008, Note_on_c, 7, 59, 127
9, 13056, Note_on_c, 7, 59, 0
9, 13056, Note_on_c, 7, 56, 0
9, 13056, Note_on_c, 7, 52, 0
9, 13056, Note_on_c, 7, 40, 127
9, 13056, Note_on_c, 7, 47, 127
9, 13104, Note_on_c, 7, 47, 0
9, 13104, Note_on_c, 7, 40, 0
9, 13104, Note_on_c, 7, 40, 126
9, 13104, Note_on_c, 7, 47, 126
9, 13152, Note_on_c, 7, 47, 0
9, 13152, Note_on_c, 7, 40, 0
9, 13152, Note_on_c, 7, 52, 122
9, 13152, Note_on_c, 7, 56, 122
9, 13152, Note_on_c, 7, 59, 122
9, 13200, Note_on_c, 7, 59, 0
9, 13200, Note_on_c, 7, 56, 0
9, 13200, Note_on_c, 7, 52, 0
9, 13248, Note_on_c, 7, 40, 127
9, 13248, Note_on_c, 7, 47, 127
9, 13296, Note_on_c, 7, 47, 0
9, 13296, Note_on_c, 7, 40, 0
9, 13296, Note_on_c, 7, 52, 127
9, 13296, Note_on_c, 7, 56, 127
9, 13296, Note_on_c, 7, 59, 127
9, 13344, Note_on_c, 7, 59, 0
9, 13344, Note_on_c, 7, 56, 0
9, 13344, Note_on_c, 7, 52, 0
9, 13344, Note_on_c, 7, 40, 100
9, 13392, Note_on_c, 7, 40, 0
9, 13392, Note_on_c, 7, 52, 127
9, 13392, Note_on_c, 7, 56, 127
9, 13392, Note_on_c, 7, 59, 127
9, 13440, Note_on_c, 7, 59, 0
9, 13440, Note_on_c, 7, 56, 0
9, 13440, Note_on_c, 7, 52, 0
9, 13440, Note_on_c, 7, 40, 100
9, 13440, Note_on_c, 7, 47, 127
9, 13488, Note_on_c, 7, 47, 0
9, 13488, Note_on_c, 7, 40, 0
9, 13536, Note_on_c, 7, 52, 127
9, 13536, Note_on_c, 7, 56, 127
9, 13536, Note_on_c, 7, 59, 127
9, 13584, Note_on_c, 7, 59, 0
9, 13584, Note_on_c, 7, 56, 0
9, 13584, Note_on_c, 7, 52, 0
9, 13632, Note_on_c, 7, 40, 127
9, 13632, Note_on_c, 7, 47, 127
9, 13680, Note_on_c, 7, 47, 0
9, 13680, Note_on_c, 7, 40, 0
9, 13680, Note_on_c, 7, 52, 127
9, 13680, Note_on_c, 7, 56, 127
9, 13680, Note_on_c, 7, 59, 127
9, 13728, Note_on_c, 7, 59, 0
9, 13728, Note_on_c, 7, 56, 0
9, 13728, Note_on_c, 7, 52, 0
9, 13776, Note_on_c, 7, 40, 127
9, 13776, Note_on_c, 7, 47, 127
9, 13824, Note_on_c, 7, 47, 0
9, 13824, Note_on_c, 7, 40, 0
9, 13872, Note_on_c, 7, 47, 127
9, 13872, Note_on_c, 7, 40, 127
9, 13920, Note_on_c, 7, 40, 0
9, 13920, Note_on_c, 7, 47, 0
9, 13920, Note_on_c, 7, 52, 127
9, 13920, Note_on_c, 7, 56, 127
9, 13920, Note_on_c, 7, 59, 127
9, 13968, Note_on_c, 7, 59, 0
9, 13968, Note_on_c, 7, 56, 0
9, 13968, Note_on_c, 7, 52, 0
9, 14016, Note_on_c, 7, 40, 127
9, 14016, Note_on_c, 7, 47, 127
9, 14064, Note_on_c, 7, 47, 0
9, 14064, Note_on_c, 7, 40, 0
9, 14064, Note_on_c, 7, 40, 127
9, 14064, Note_on_c, 7, 47, 127
9, 14112, Note_on_c, 7, 47, 0
9, 14112, Note_on_c, 7, 40, 0
9, 14112, Note_on_c, 7, 52, 127
9, 14112, Note_on_c, 7, 56, 127
9, 14112, Note_on_c, 7, 59, 127
9, 14160, Note_on_c, 7, 59, 0
9, 14160, Note_on_c, 7, 56, 0
9, 14160, Note_on_c, 7, 52, 0
9, 14160, Note_on_c, 7, 42, 127
9, 14160, Note_on_c, 7, 47, 127
9, 14208, Note_on_c, 7, 47, 0
9, 14208, Note_on_c, 7, 42, 0
9, 14256, Note_on_c, 7, 42, 127
9, 14256, Note_on_c, 7, 47, 127
9, 14304, Note_on_c, 7, 47, 0
9, 14304, Note_on_c, 7, 42, 0
9, 14304, Note_on_c, 7, 51, 127
9, 14304, Note_on_c, 7, 59, 127
9, 14304, Note_on_c, 7, 54, 127
9, 14352, Note_on_c, 7, 54, 0
9, 14352, Note_on_c, 7, 59, 0
9, 14352, Note_on_c, 7, 51, 0
9, 14400, Note_on_c, 7, 42, 127
9, 14400, Note_on_c, 7, 47, 127
9, 14448, Note_on_c, 7, 47, 0
9, 14448, Note_on_c, 7, 42, 0
9, 14448, Note_on_c, 7, 51, 127
9, 14448, Note_on_c, 7, 54, 127
9, 14448, Note_on_c, 7, 59, 127
9, 14496, Note_on_c, 7, 59, 0
9, 14496, Note_on_c, 7, 54, 0
9, 14496, Note_on_c, 7, 51, 0
9, 14544, Note_on_c, 7, 42, 127
9, 14544, Note_on_c, 7, 47, 127
9, 14592, Note_on_c, 7, 47, 0
9, 14592, Note_on_c, 7, 42, 0
9, 14640, Note_on_c, 7, 47, 127
9, 14640, Note_on_c, 7, 42, 127
9, 14688, Note_on_c, 7, 42, 0
9, 14688, Note_on_c, 7, 47, 0
9, 14688, Note_on_c, 7, 51, 127
9, 14688, Note_on_c, 7, 54, 127
9, 14688, Note_on_c, 7, 59, 127
9, 14736, Note_on_c, 7, 59, 0
9, 14736, Note_on_c, 7, 54, 0
9, 14736, Note_on_c, 7, 51, 0
9, 14736, Note_on_c, 7, 42, 97
9, 14784, Note_on_c, 7, 42, 0
9, 14784, Note_on_c, 7, 42, 127
9, 14784, Note_on_c, 7, 47, 127
9, 14832, Note_on_c, 7, 47, 0
9, 14832, Note_on_c, 7, 42, 0
9, 14832, Note_on_c, 7, 51, 127
9, 14832, Note_on_c, 7, 54, 127
9, 14832, Note_on_c, 7, 59, 127
9, 14880, Note_on_c, 7, 59, 0
9, 14880, Note_on_c, 7, 54, 0
9, 14880, Note_on_c, 7, 51, 0
9, 14880, Note_on_c, 7, 42, 127
9, 14880, Note_on_c, 7, 47, 127
9, 14928, Note_on_c, 7, 47, 0
9, 14928, Note_on_c, 7, 42, 0
9, 14928, Note_on_c, 7, 51, 127
9, 14928, Note_on_c, 7, 54, 127
9, 14976, Note_on_c, 7, 54, 0
9, 14976, Note_on_c, 7, 51, 0
9, 14976, Note_on_c, 7, 40, 127
9, 14976, Note_on_c, 7, 47, 127
9, 15024, Note_on_c, 7, 47, 0
9, 15024, Note_on_c, 7, 40, 0
9, 15072, Note_on_c, 7, 59, 127
9, 15072, Note_on_c, 7, 56, 127
9, 15072, Note_on_c, 7, 52, 127
9, 15120, Note_on_c, 7, 52, 0
9, 15120, Note_on_c, 7, 56, 0
9, 15120, Note_on_c, 7, 59, 0
9, 15168, Note_on_c, 7, 47, 127
9, 15168, Note_on_c, 7, 40, 127
9, 15216, Note_on_c, 7, 40, 0
9, 15216, Note_on_c, 7, 47, 0
9, 15216, Note_on_c, 7, 52, 127
9, 15216, Note_on_c, 7, 56, 127
9, 15216, Note_on_c, 7, 59, 127
9, 15264, Note_on_c, 7, 59, 0
9, 15264, Note_on_c, 7, 56, 0
9, 15264, Note_on_c, 7, 52, 0
9, 15312, Note_on_c, 7, 47, 127
9, 15312, Note_on_c, 7, 40, 95
9, 15360, Note_on_c, 7, 40, 0
9, 15360, Note_on_c, 7, 47, 0
9, 15408, Note_on_c, 7, 47, 127
9, 15408, Note_on_c, 7, 40, 127
9, 15456, Note_on_c, 7, 40, 0
9, 15456, Note_on_c, 7, 47, 0
9, 15456, Note_on_c, 7, 52, 127
9, 15456, Note_on_c, 7, 56, 127
9, 15456, Note_on_c, 7, 59, 127
9, 15504, Note_on_c, 7, 59, 0
9, 15504, Note_on_c, 7, 56, 0
9, 15504, Note_on_c, 7, 52, 0
9, 15552, Note_on_c, 7, 40, 127
9, 15552, Note_on_c, 7, 47, 127
9, 15600, Note_on_c, 7, 47, 0
9, 15600, Note_on_c, 7, 40, 0
9, 15600, Note_on_c, 7, 47, 127
9, 15600, Note_on_c, 7, 40, 127
9, 15648, Note_on_c, 7, 40, 0
9, 15648, Note_on_c, 7, 47, 0
9, 15648, Note_on_c, 7, 49, 127
9, 15648, Note_on_c, 7, 42, 127
9, 15696, Note_on_c, 7, 42, 0
9, 15696, Note_on_c, 7, 49, 0
9, 15696, Note_on_c, 7, 51, 127
9, 15696, Note_on_c, 7, 44, 127
9, 15744, Note_on_c, 7, 44, 0
9, 15744, Note_on_c, 7, 51, 0
9, 15744, Note_on_c, 7, 40, 127
9, 15744, Note_on_c, 7, 45, 127
9, 15792, Note_on_c, 7, 45, 0
9, 15792, Note_on_c, 7, 40, 0
9, 15792, Note_on_c, 7, 40, 127
9, 15792, Note_on_c, 7, 45, 127
9, 15840, Note_on_c, 7, 45, 0
9, 15840, Note_on_c, 7, 40, 0
9, 15840, Note_on_c, 7, 57, 127
9, 15840, Note_on_c, 7, 52, 127
9, 15840, Note_on_c, 7, 49, 127
9, 15888, Note_on_c, 7, 49, 0
9, 15888, Note_on_c, 7, 52, 0
9, 15888, Note_on_c, 7, 57, 0
9, 15936, Note_on_c, 7, 40, 127
9, 15936, Note_on_c, 7, 45, 127
9, 15984, Note_on_c, 7, 45, 0
9, 15984, Note_on_c, 7, 40, 0
9, 15984, Note_on_c, 7, 57, 127
9, 15984, Note_on_c, 7, 52, 127
9, 15984, Note_on_c, 7, 49, 127
9, 16032, Note_on_c, 7, 49, 0
9, 16032, Note_on_c, 7, 52, 0
9, 16032, Note_on_c, 7, 57, 0
9, 16032, Note_on_c, 7, 40, 95
9, 16080, Note_on_c, 7, 40, 0
9, 16080, Note_on_c, 7, 45, 127
9, 16080, Note_on_c, 7, 40, 127
9, 16128, Note_on_c, 7, 40, 0
9, 16128, Note_on_c, 7, 45, 0
9, 16176, Note_on_c, 7, 40, 127
9, 16176, Note_on_c, 7, 45, 127
9, 16224, Note_on_c, 7, 45, 0
9, 16224, Note_on_c, 7, 40, 0
9, 16224, Note_on_c, 7, 57, 127
9, 16224, Note_on_c, 7, 52, 127
9, 16224, Note_on_c, 7, 49, 127
9, 16272, Note_on_c, 7, 49, 0
9, 16272, Note_on_c, 7, 52, 0
9, 16272, Note_on_c, 7, 57, 0
9, 16320, Note_on_c, 7, 40, 127
9, 16320, Note_on_c, 7, 45, 127
9, 16368, Note_on_c, 7, 45, 0
9, 16368, Note_on_c, 7, 40, 0
9, 16368, Note_on_c, 7, 57, 127
9, 16368, Note_on_c, 7, 52, 127
9, 16368, Note_on_c, 7, 49, 127
9, 16416, Note_on_c, 7, 49, 0
9, 16416, Note_on_c, 7, 52, 0
9, 16416, Note_on_c, 7, 57, 0
9, 16464, Note_on_c, 7, 40, 127
9, 16464, Note_on_c, 7, 47, 127
9, 16512, Note_on_c, 7, 47, 0
9, 16512, Note_on_c, 7, 40, 0
9, 16560, Note_on_c, 7, 42, 127
9, 16560, Note_on_c, 7, 47, 127
9, 16608, Note_on_c, 7, 47, 0
9, 16608, Note_on_c, 7, 42, 0
9, 16608, Note_on_c, 7, 42, 127
9, 16608, Note_on_c, 7, 47, 127
9, 16656, Note_on_c, 7, 47, 0
9, 16656, Note_on_c, 7, 42, 0
9, 16656, Note_on_c, 7, 42, 127
9, 16656, Note_on_c, 7, 47, 127
9, 16704, Note_on_c, 7, 47, 0
9, 16704, Note_on_c, 7, 42, 0
9, 16704, Note_on_c, 7, 42, 127
9, 16704, Note_on_c, 7, 47, 127
9, 16752, Note_on_c, 7, 47, 0
9, 16752, Note_on_c, 7, 42, 0
9, 16752, Note_on_c, 7, 42, 127
9, 16752, Note_on_c, 7, 47, 127
9, 16800, Note_on_c, 7, 47, 0
9, 16800, Note_on_c, 7, 42, 0
9, 16800, Note_on_c, 7, 42, 127
9, 16800, Note_on_c, 7, 47, 127
9, 16848, Note_on_c, 7, 47, 0
9, 16848, Note_on_c, 7, 42, 0
9, 16848, Note_on_c, 7, 42, 127
9, 16848, Note_on_c, 7, 47, 127
9, 16896, Note_on_c, 7, 47, 0
9, 16896, Note_on_c, 7, 42, 0
9, 16896, Note_on_c, 7, 42, 127
9, 16896, Note_on_c, 7, 47, 127
9, 16944, Note_on_c, 7, 47, 0
9, 16944, Note_on_c, 7, 42, 0
9, 17280, Note_on_c, 7, 40, 127
9, 17280, Note_on_c, 7, 47, 127
9, 17328, Note_on_c, 7, 47, 0
9, 17328, Note_on_c, 7, 40, 0
9, 17376, Note_on_c, 7, 59, 127
9, 17376, Note_on_c, 7, 56, 127
9, 17376, Note_on_c, 7, 52, 127
9, 17424, Note_on_c, 7, 52, 0
9, 17424, Note_on_c, 7, 56, 0
9, 17424, Note_on_c, 7, 59, 0
9, 17472, Note_on_c, 7, 40, 127
9, 17472, Note_on_c, 7, 47, 127
9, 17520, Note_on_c, 7, 47, 0
9, 17520, Note_on_c, 7, 40, 0
9, 17520, Note_on_c, 7, 59, 127
9, 17520, Note_on_c, 7, 56, 127
9, 17520, Note_on_c, 7, 52, 127
9, 17568, Note_on_c, 7, 52, 0
9, 17568, Note_on_c, 7, 56, 0
9, 17568, Note_on_c, 7, 59, 0
9, 17568, Note_on_c, 7, 40, 127
9, 17568, Note_on_c, 7, 47, 127
9, 17616, Note_on_c, 7, 47, 0
9, 17616, Note_on_c, 7, 40, 0
9, 17616, Note_on_c, 7, 40, 127
9, 17616, Note_on_c, 7, 47, 127
9, 17664, Note_on_c, 7, 47, 0
9, 17664, Note_on_c, 7, 40, 0
9, 17712, Note_on_c, 7, 40, 127
9, 17712, Note_on_c, 7, 47, 127
9, 17760, Note_on_c, 7, 47, 0
9, 17760, Note_on_c, 7, 40, 0
9, 17760, Note_on_c, 7, 59, 127
9, 17760, Note_on_c, 7, 56, 127
9, 17760, Note_on_c, 7, 52, 127
9, 17808, Note_on_c, 7, 52, 0
9, 17808, Note_on_c, 7, 56, 0
9, 17808, Note_on_c, 7, 59, 0
9, 17856, Note_on_c, 7, 40, 127
9, 17856, Note_on_c, 7, 47, 127
9, 17904, Note_on_c, 7, 47, 0
9, 17904, Note_on_c, 7, 40, 0
9, 17904, Note_on_c, 7, 59, 127
9, 17904, Note_on_c, 7, 56, 127
9, 17904, Note_on_c, 7, 52, 127
9, 17952, Note_on_c, 7, 52, 0
9, 17952, Note_on_c, 7, 56, 0
9, 17952, Note_on_c, 7, 59, 0
9, 17952, Note_on_c, 7, 40, 127
9, 17952, Note_on_c, 7, 47, 127
9, 18000, Note_on_c, 7, 47, 0
9, 18000, Note_on_c, 7, 40, 0
9, 18000, Note_on_c, 7, 59, 127
9, 18000, Note_on_c, 7, 56, 127
9, 18000, Note_on_c, 7, 52, 127
9, 18048, Note_on_c, 7, 52, 0
9, 18048, Note_on_c, 7, 56, 0
9, 18048, Note_on_c, 7, 59, 0
9, 18048, Note_on_c, 7, 52, 127
9, 18048, Note_on_c, 7, 45, 127
9, 18096, Note_on_c, 7, 45, 0
9, 18096, Note_on_c, 7, 52, 0
9, 18144, Note_on_c, 7, 54, 127
9, 18144, Note_on_c, 7, 45, 127
9, 18192, Note_on_c, 7, 45, 0
9, 18192, Note_on_c, 7, 54, 0
9, 18192, Note_on_c, 7, 52, 127
9, 18192, Note_on_c, 7, 45, 127
9, 18240, Note_on_c, 7, 45, 0
9, 18240, Note_on_c, 7, 52, 0
9, 18288, Note_on_c, 7, 52, 127
9, 18288, Note_on_c, 7, 45, 127
9, 18336, Note_on_c, 7, 45, 0
9, 18336, Note_on_c, 7, 52, 0
9, 18336, Note_on_c, 7, 45, 127
9, 18336, Note_on_c, 7, 54, 127
9, 18384, Note_on_c, 7, 54, 0
9, 18384, Note_on_c, 7, 45, 0
9, 18384, Note_on_c, 7, 45, 127
9, 18432, Note_on_c, 7, 45, 0
9, 18432, Note_on_c, 7, 52, 127
9, 18432, Note_on_c, 7, 45, 127
9, 18480, Note_on_c, 7, 45, 0
9, 18480, Note_on_c, 7, 52, 0
9, 18528, Note_on_c, 7, 45, 127
9, 18528, Note_on_c, 7, 54, 127
9, 18576, Note_on_c, 7, 54, 0
9, 18576, Note_on_c, 7, 45, 0
9, 18576, Note_on_c, 7, 45, 127
9, 18576, Note_on_c, 7, 52, 127
9, 18624, Note_on_c, 7, 52, 0
9, 18624, Note_on_c, 7, 45, 0
9, 18672, Note_on_c, 7, 52, 127
9, 18672, Note_on_c, 7, 45, 127
9, 18720, Note_on_c, 7, 45, 0
9, 18720, Note_on_c, 7, 52, 0
9, 18720, Note_on_c, 7, 45, 127
9, 18720, Note_on_c, 7, 54, 127
9, 18768, Note_on_c, 7, 54, 0
9, 18768, Note_on_c, 7, 45, 0
9, 18768, Note_on_c, 7, 45, 127
9, 18816, Note_on_c, 7, 45, 0
9, 18816, Note_on_c, 7, 47, 127
9, 18816, Note_on_c, 7, 40, 127
9, 18864, Note_on_c, 7, 40, 0
9, 18864, Note_on_c, 7, 47, 0
9, 18912, Note_on_c, 7, 52, 127
9, 18912, Note_on_c, 7, 40, 127
9, 18912, Note_on_c, 7, 47, 127
9, 18960, Note_on_c, 7, 47, 0
9, 18960, Note_on_c, 7, 40, 0
9, 18960, Note_on_c, 7, 52, 0
9, 18960, Note_on_c, 7, 47, 127
9, 18960, Note_on_c, 7, 40, 127
9, 19008, Note_on_c, 7, 40, 0
9, 19008, Note_on_c, 7, 47, 0
9, 19056, Note_on_c, 7, 40, 127
9, 19056, Note_on_c, 7, 47, 127
9, 19056, Note_on_c, 7, 52, 127
9, 19104, Note_on_c, 7, 52, 0
9, 19104, Note_on_c, 7, 47, 0
9, 19104, Note_on_c, 7, 40, 0
9, 19152, Note_on_c, 7, 40, 127
9, 19152, Note_on_c, 7, 47, 127
9, 19200, Note_on_c, 7, 47, 0
9, 19200, Note_on_c, 7, 40, 0
9, 19200, Note_on_c, 7, 47, 127
9, 19200, Note_on_c, 7, 40, 127
9, 19248, Note_on_c, 7, 40, 0
9, 19248, Note_on_c, 7, 47, 0
9, 19296, Note_on_c, 7, 40, 127
9, 19296, Note_on_c, 7, 47, 127
9, 19296, Note_on_c, 7, 52, 127
9, 19344, Note_on_c, 7, 52, 0
9, 19344, Note_on_c, 7, 47, 0
9, 19344, Note_on_c, 7, 40, 0
9, 19344, Note_on_c, 7, 40, 127
9, 19344, Note_on_c, 7, 47, 127
9, 19440, Note_on_c, 7, 47, 0
9, 19440, Note_on_c, 7, 40, 0
9, 19440, Note_on_c, 7, 52, 127
9, 19440, Note_on_c, 7, 40, 127
9, 19440, Note_on_c, 7, 47, 127
9, 19488, Note_on_c, 7, 47, 0
9, 19488, Note_on_c, 7, 40, 0
9, 19488, Note_on_c, 7, 52, 0
9, 19536, Note_on_c, 7, 40, 127
9, 19536, Note_on_c, 7, 47, 127
9, 19584, Note_on_c, 7, 47, 0
9, 19584, Note_on_c, 7, 40, 0
9, 19584, Note_on_c, 7, 52, 127
9, 19584, Note_on_c, 7, 45, 127
9, 19632, Note_on_c, 7, 45, 0
9, 19632, Note_on_c, 7, 52, 0
9, 19680, Note_on_c, 7, 54, 127
9, 19680, Note_on_c, 7, 45, 127
9, 19728, Note_on_c, 7, 45, 0
9, 19728, Note_on_c, 7, 54, 0
9, 19728, Note_on_c, 7, 52, 127
9, 19728, Note_on_c, 7, 45, 127
9, 19776, Note_on_c, 7, 45, 0
9, 19776, Note_on_c, 7, 52, 0
9, 19824, Note_on_c, 7, 52, 127
9, 19824, Note_on_c, 7, 45, 127
9, 19872, Note_on_c, 7, 45, 0
9, 19872, Note_on_c, 7, 52, 0
9, 19872, Note_on_c, 7, 45, 127
9, 19872, Note_on_c, 7, 54, 127
9, 19920, Note_on_c, 7, 54, 0
9, 19920, Note_on_c, 7, 45, 0
9, 19920, Note_on_c, 7, 45, 127
9, 19968, Note_on_c, 7, 45, 0
9, 19968, Note_on_c, 7, 52, 127
9, 19968, Note_on_c, 7, 45, 127
9, 20016, Note_on_c, 7, 45, 0
9, 20016, Note_on_c, 7, 52, 0
9, 20064, Note_on_c, 7, 45, 127
9, 20064, Note_on_c, 7, 54, 127
9, 20112, Note_on_c, 7, 54, 0
9, 20112, Note_on_c, 7, 45, 0
9, 20112, Note_on_c, 7, 45, 127
9, 20112, Note_on_c, 7, 52, 127
9, 20160, Note_on_c, 7, 52, 0
9, 20160, Note_on_c, 7, 45, 0
9, 20208, Note_on_c, 7, 52, 127
9, 20208, Note_on_c, 7, 45, 127
9, 20256, Note_on_c, 7, 45, 0
9, 20256, Note_on_c, 7, 52, 0
9, 20256, Note_on_c, 7, 45, 127
9, 20256, Note_on_c, 7, 54, 127
9, 20304, Note_on_c, 7, 54, 0
9, 20304, Note_on_c, 7, 45, 0
9, 20304, Note_on_c, 7, 45, 127
9, 20352, Note_on_c, 7, 45, 0
9, 20352, Note_on_c, 7, 47, 127
9, 20352, Note_on_c, 7, 40, 127
9, 20400, Note_on_c, 7, 40, 0
9, 20400, Note_on_c, 7, 47, 0
9, 20736, Note_on_c, 7, 54, 127
9, 20736, Note_on_c, 7, 47, 127
9, 20784, Note_on_c, 7, 47, 0
9, 20784, Note_on_c, 7, 54, 0
9, 20784, Note_on_c, 7, 54, 127
9, 20784, Note_on_c, 7, 47, 127
9, 20832, Note_on_c, 7, 47, 0
9, 20832, Note_on_c, 7, 54, 0
9, 20832, Note_on_c, 7, 47, 127
9, 20832, Note_on_c, 7, 56, 127
9, 20880, Note_on_c, 7, 56, 0
9, 20880, Note_on_c, 7, 47, 0
9, 20880, Note_on_c, 7, 47, 127
9, 20928, Note_on_c, 7, 47, 0
9, 20928, Note_on_c, 7, 47, 127
9, 20928, Note_on_c, 7, 54, 127
9, 20976, Note_on_c, 7, 54, 0
9, 20976, Note_on_c, 7, 47, 0
9, 20976, Note_on_c, 7, 47, 127
9, 21024, Note_on_c, 7, 47, 0
9, 21024, Note_on_c, 7, 47, 127
9, 21024, Note_on_c, 7, 56, 127
9, 21072, Note_on_c, 7, 56, 0
9, 21072, Note_on_c, 7, 47, 0
9, 21072, Note_on_c, 7, 47, 127
9, 21072, Note_on_c, 7, 54, 127
9, 21120, Note_on_c, 7, 54, 0
9, 21120, Note_on_c, 7, 47, 0
9, 21120, Note_on_c, 7, 47, 127
9, 21120, Note_on_c, 7, 54, 127
9, 21168, Note_on_c, 7, 54, 0
9, 21168, Note_on_c, 7, 47, 0
9, 21168, Note_on_c, 7, 47, 127
9, 21168, Note_on_c, 7, 54, 127
9, 21216, Note_on_c, 7, 54, 0
9, 21216, Note_on_c, 7, 47, 0
9, 21216, Note_on_c, 7, 47, 127
9, 21216, Note_on_c, 7, 56, 127
9, 21264, Note_on_c, 7, 56, 0
9, 21264, Note_on_c, 7, 47, 0
9, 21264, Note_on_c, 7, 47, 127
9, 21312, Note_on_c, 7, 47, 0
9, 21312, Note_on_c, 7, 47, 127
9, 21312, Note_on_c, 7, 54, 127
9, 21360, Note_on_c, 7, 54, 0
9, 21360, Note_on_c, 7, 47, 0
9, 21360, Note_on_c, 7, 59, 127
9, 21360, Note_on_c, 7, 54, 127
9, 21360, Note_on_c, 7, 47, 127
9, 21408, Note_on_c, 7, 47, 0
9, 21408, Note_on_c, 7, 54, 0
9, 21408, Note_on_c, 7, 59, 0
9, 21408, Note_on_c, 7, 47, 127
9, 21456, Note_on_c, 7, 47, 0
9, 21456, Note_on_c, 7, 59, 127
9, 21456, Note_on_c, 7, 54, 127
9, 21456, Note_on_c, 7, 47, 127
9, 21504, Note_on_c, 7, 47, 0
9, 21504, Note_on_c, 7, 54, 0
9, 21504, Note_on_c, 7, 59, 0
9, 21504, Note_on_c, 7, 47, 127
9, 21504, Note_on_c, 7, 52, 127
9, 21552, Note_on_c, 7, 52, 0
9, 21552, Note_on_c, 7, 47, 0
9, 21552, Note_on_c, 7, 52, 99
9, 21552, Note_on_c, 7, 47, 99
9, 21600, Note_on_c, 7, 47, 0
9, 21600, Note_on_c, 7, 52, 0
9, 21600, Note_on_c, 7, 47, 127
9, 21600, Note_on_c, 7, 52, 127
9, 21648, Note_on_c, 7, 52, 0
9, 21648, Note_on_c, 7, 47, 0
9, 21648, Note_on_c, 7, 47, 97
9, 21648, Note_on_c, 7, 52, 97
9, 21696, Note_on_c, 7, 52, 0
9, 21696, Note_on_c, 7, 47, 0
9, 21696, Note_on_c, 7, 47, 127
9, 21696, Note_on_c, 7, 52, 127
9, 21744, Note_on_c, 7, 52, 0
9, 21744, Note_on_c, 7, 47, 0
9, 21744, Note_on_c, 7, 47, 98
9, 21744, Note_on_c, 7, 52, 98
9, 21792, Note_on_c, 7, 52, 0
9, 21792, Note_on_c, 7, 47, 0
9, 21792, Note_on_c, 7, 47, 127
9, 21792, Note_on_c, 7, 52, 127
9, 21840, Note_on_c, 7, 52, 0
9, 21840, Note_on_c, 7, 47, 0
9, 21840, Note_on_c, 7, 47, 98
9, 21840, Note_on_c, 7, 52, 98
9, 21888, Note_on_c, 7, 52, 0
9, 21888, Note_on_c, 7, 47, 0
9, 21888, Note_on_c, 7, 47, 127
9, 21888, Note_on_c, 7, 52, 127
9, 21936, Note_on_c, 7, 52, 0
9, 21936, Note_on_c, 7, 47, 0
9, 21936, Note_on_c, 7, 52, 99
9, 21936, Note_on_c, 7, 47, 99
9, 21984, Note_on_c, 7, 47, 0
9, 21984, Note_on_c, 7, 52, 0
9, 21984, Note_on_c, 7, 47, 127
9, 21984, Note_on_c, 7, 52, 127
9, 22032, Note_on_c, 7, 52, 0
9, 22032, Note_on_c, 7, 47, 0
9, 22032, Note_on_c, 7, 47, 97
9, 22032, Note_on_c, 7, 52, 97
9, 22080, Note_on_c, 7, 52, 0
9, 22080, Note_on_c, 7, 47, 0
9, 22080, Note_on_c, 7, 47, 127
9, 22080, Note_on_c, 7, 52, 127
9, 22128, Note_on_c, 7, 52, 0
9, 22128, Note_on_c, 7, 47, 0
9, 22128, Note_on_c, 7, 47, 98
9, 22128, Note_on_c, 7, 52, 98
9, 22176, Note_on_c, 7, 52, 0
9, 22176, Note_on_c, 7, 47, 0
9, 22176, Note_on_c, 7, 47, 127
9, 22176, Note_on_c, 7, 52, 127
9, 22224, Note_on_c, 7, 52, 0
9, 22224, Note_on_c, 7, 47, 0
9, 22224, Note_on_c, 7, 47, 98
9, 22224, Note_on_c, 7, 52, 98
9, 22272, Note_on_c, 7, 52, 0
9, 22272, Note_on_c, 7, 47, 0
9, 28416, Note_on_c, 7, 40, 127
9, 28416, Note_on_c, 7, 47, 127
9, 28464, Note_on_c, 7, 47, 0
9, 28464, Note_on_c, 7, 40, 0
9, 28512, Note_on_c, 7, 56, 127
9, 28512, Note_on_c, 7, 52, 127
9, 28512, Note_on_c, 7, 59, 127
9, 28560, Note_on_c, 7, 59, 0
9, 28560, Note_on_c, 7, 52, 0
9, 28560, Note_on_c, 7, 56, 0
9, 28560, Note_on_c, 7, 47, 87
9, 28560, Note_on_c, 7, 40, 87
9, 28608, Note_on_c, 7, 40, 0
9, 28608, Note_on_c, 7, 47, 0
9, 28608, Note_on_c, 7, 47, 127
9, 28608, Note_on_c, 7, 40, 127
9, 28656, Note_on_c, 7, 40, 0
9, 28656, Note_on_c, 7, 47, 0
9, 28656, Note_on_c, 7, 52, 127
9, 28656, Note_on_c, 7, 56, 127
9, 28656, Note_on_c, 7, 59, 127
9, 28704, Note_on_c, 7, 59, 0
9, 28704, Note_on_c, 7, 56, 0
9, 28704, Note_on_c, 7, 52, 0
9, 28752, Note_on_c, 7, 40, 125
9, 28752, Note_on_c, 7, 47, 125
9, 28800, Note_on_c, 7, 47, 0
9, 28800, Note_on_c, 7, 40, 0
9, 28848, Note_on_c, 7, 40, 127
9, 28848, Note_on_c, 7, 47, 127
9, 28896, Note_on_c, 7, 47, 0
9, 28896, Note_on_c, 7, 40, 0
9, 28896, Note_on_c, 7, 52, 127
9, 28896, Note_on_c, 7, 59, 127
9, 28896, Note_on_c, 7, 56, 127
9, 28944, Note_on_c, 7, 56, 0
9, 28944, Note_on_c, 7, 59, 0
9, 28944, Note_on_c, 7, 52, 0
9, 28944, Note_on_c, 7, 47, 85
9, 28944, Note_on_c, 7, 40, 85
9, 28992, Note_on_c, 7, 40, 0
9, 28992, Note_on_c, 7, 47, 0
9, 28992, Note_on_c, 7, 40, 127
9, 28992, Note_on_c, 7, 47, 127
9, 29040, Note_on_c, 7, 47, 0
9, 29040, Note_on_c, 7, 40, 0
9, 29040, Note_on_c, 7, 59, 127
9, 29040, Note_on_c, 7, 56, 127
9, 29040, Note_on_c, 7, 52, 127
9, 29088, Note_on_c, 7, 52, 0
9, 29088, Note_on_c, 7, 56, 0
9, 29088, Note_on_c, 7, 59, 0
9, 29136, Note_on_c, 7, 40, 127
9, 29136, Note_on_c, 7, 47, 127
9, 29184, Note_on_c, 7, 47, 0
9, 29184, Note_on_c, 7, 40, 0
9, 29232, Note_on_c, 7, 40, 127
9, 29232, Note_on_c, 7, 47, 127
9, 29280, Note_on_c, 7, 47, 0
9, 29280, Note_on_c, 7, 40, 0
9, 29280, Note_on_c, 7, 52, 127
9, 29280, Note_on_c, 7, 56, 127
9, 29280, Note_on_c, 7, 59, 127
9, 29328, Note_on_c, 7, 59, 0
9, 29328, Note_on_c, 7, 56, 0
9, 29328, Note_on_c, 7, 52, 0
9, 29328, Note_on_c, 7, 40, 127
9, 29328, Note_on_c, 7, 47, 127
9, 29376, Note_on_c, 7, 47, 0
9, 29376, Note_on_c, 7, 40, 0
9, 29376, Note_on_c, 7, 40, 127
9, 29376, Note_on_c, 7, 47, 127
9, 29424, Note_on_c, 7, 47, 0
9, 29424, Note_on_c, 7, 40, 0
9, 29424, Note_on_c, 7, 52, 127
9, 29424, Note_on_c, 7, 56, 127
9, 29424, Note_on_c, 7, 59, 127
9, 29472, Note_on_c, 7, 59, 0
9, 29472, Note_on_c, 7, 56, 0
9, 29472, Note_on_c, 7, 52, 0
9, 29472, Note_on_c, 7, 40, 127
9, 29472, Note_on_c, 7, 47, 127
9, 29520, Note_on_c, 7, 47, 0
9, 29520, Note_on_c, 7, 40, 0
9, 29520, Note_on_c, 7, 52, 127
9, 29520, Note_on_c, 7, 56, 127
9, 29520, Note_on_c, 7, 59, 127
9, 29568, Note_on_c, 7, 59, 0
9, 29568, Note_on_c, 7, 56, 0
9, 29568, Note_on_c, 7, 52, 0
9, 29616, Note_on_c, 7, 52, 100
9, 29616, Note_on_c, 7, 56, 100
9, 29616, Note_on_c, 7, 59, 100
9, 29664, Note_on_c, 7, 59, 0
9, 29664, Note_on_c, 7, 56, 0
9, 29664, Note_on_c, 7, 52, 0
9, 29664, Note_on_c, 7, 52, 127
9, 29664, Note_on_c, 7, 56, 127
9, 29664, Note_on_c, 7, 59, 127
9, 29712, Note_on_c, 7, 59, 0
9, 29712, Note_on_c, 7, 56, 0
9, 29712, Note_on_c, 7, 52, 0
9, 29712, Note_on_c, 7, 40, 90
9, 29760, Note_on_c, 7, 40, 0
9, 29760, Note_on_c, 7, 47, 127
9, 29760, Note_on_c, 7, 40, 127
9, 29808, Note_on_c, 7, 40, 0
9, 29808, Note_on_c, 7, 47, 0
9, 29808, Note_on_c, 7, 59, 127
9, 29808, Note_on_c, 7, 56, 127
9, 29808, Note_on_c, 7, 52, 127
9, 29856, Note_on_c, 7, 52, 0
9, 29856, Note_on_c, 7, 56, 0
9, 29856, Note_on_c, 7, 59, 0
9, 29856, Note_on_c, 7, 47, 127
9, 29856, Note_on_c, 7, 40, 127
9, 29904, Note_on_c, 7, 40, 0
9, 29904, Note_on_c, 7, 47, 0
9, 29904, Note_on_c, 7, 52, 127
9, 29904, Note_on_c, 7, 56, 127
9, 29904, Note_on_c, 7, 59, 127
9, 29952, Note_on_c, 7, 59, 0
9, 29952, Note_on_c, 7, 56, 0
9, 29952, Note_on_c, 7, 52, 0
9, 29952, Note_on_c, 7, 40, 127
9, 29952, Note_on_c, 7, 47, 127
9, 30000, Note_on_c, 7, 47, 0
9, 30000, Note_on_c, 7, 40, 0
9, 30000, Note_on_c, 7, 40, 126
9, 30000, Note_on_c, 7, 47, 126
9, 30048, Note_on_c, 7, 47, 0
9, 30048, Note_on_c, 7, 40, 0
9, 30048, Note_on_c, 7, 52, 122
9, 30048, Note_on_c, 7, 56, 122
9, 30048, Note_on_c, 7, 59, 122
9, 30096, Note_on_c, 7, 59, 0
9, 30096, Note_on_c, 7, 56, 0
9, 30096, Note_on_c, 7, 52, 0
9, 30144, Note_on_c, 7, 40, 127
9, 30144, Note_on_c, 7, 47, 127
9, 30192, Note_on_c, 7, 47, 0
9, 30192, Note_on_c, 7, 40, 0
9, 30192, Note_on_c, 7, 52, 127
9, 30192, Note_on_c, 7, 56, 127
9, 30192, Note_on_c, 7, 59, 127
9, 30240, Note_on_c, 7, 59, 0
9, 30240, Note_on_c, 7, 56, 0
9, 30240, Note_on_c, 7, 52, 0
9, 30240, Note_on_c, 7, 40, 100
9, 30288, Note_on_c, 7, 40, 0
9, 30288, Note_on_c, 7, 52, 127
9, 30288, Note_on_c, 7, 56, 127
9, 30288, Note_on_c, 7, 59, 127
9, 30336, Note_on_c, 7, 59, 0
9, 30336, Note_on_c, 7, 56, 0
9, 30336, Note_on_c, 7, 52, 0
9, 30336, Note_on_c, 7, 40, 100
9, 30336, Note_on_c, 7, 47, 127
9, 30384, Note_on_c, 7, 47, 0
9, 30384, Note_on_c, 7, 40, 0
9, 30432, Note_on_c, 7, 52, 127
9, 30432, Note_on_c, 7, 56, 127
9, 30432, Note_on_c, 7, 59, 127
9, 30480, Note_on_c, 7, 59, 0
9, 30480, Note_on_c, 7, 56, 0
9, 30480, Note_on_c, 7, 52, 0
9, 30528, Note_on_c, 7, 40, 127
9, 30528, Note_on_c, 7, 47, 127
9, 30576, Note_on_c, 7, 47, 0
9, 30576, Note_on_c, 7, 40, 0
9, 30576, Note_on_c, 7, 52, 127
9, 30576, Note_on_c, 7, 56, 127
9, 30576, Note_on_c, 7, 59, 127
9, 30624, Note_on_c, 7, 59, 0
9, 30624, Note_on_c, 7, 56, 0
9, 30624, Note_on_c, 7, 52, 0
9, 30672, Note_on_c, 7, 40, 127
9, 30672, Note_on_c, 7, 47, 127
9, 30720, Note_on_c, 7, 47, 0
9, 30720, Note_on_c, 7, 40, 0
9, 30768, Note_on_c, 7, 47, 127
9, 30768, Note_on_c, 7, 40, 127
9, 30816, Note_on_c, 7, 40, 0
9, 30816, Note_on_c, 7, 47, 0
9, 30816, Note_on_c, 7, 52, 127
9, 30816, Note_on_c, 7, 56, 127
9, 30816, Note_on_c, 7, 59, 127
9, 30864, Note_on_c, 7, 59, 0
9, 30864, Note_on_c, 7, 56, 0
9, 30864, Note_on_c, 7, 52, 0
9, 30912, Note_on_c, 7, 40, 127
9, 30912, Note_on_c, 7, 47, 127
9, 30960, Note_on_c, 7, 47, 0
9, 30960, Note_on_c, 7, 40, 0
9, 30960, Note_on_c, 7, 40, 127
9, 30960, Note_on_c, 7, 47, 127
9, 31008, Note_on_c, 7, 47, 0
9, 31008, Note_on_c, 7, 40, 0
9, 31008, Note_on_c, 7, 52, 127
9, 31008, Note_on_c, 7, 56, 127
9, 31008, Note_on_c, 7, 59, 127
9, 31056, Note_on_c, 7, 59, 0
9, 31056, Note_on_c, 7, 56, 0
9, 31056, Note_on_c, 7, 52, 0
9, 31056, Note_on_c, 7, 42, 127
9, 31056, Note_on_c, 7, 47, 127
9, 31104, Note_on_c, 7, 47, 0
9, 31104, Note_on_c, 7, 42, 0
9, 31152, Note_on_c, 7, 42, 127
9, 31152, Note_on_c, 7, 47, 127
9, 31200, Note_on_c, 7, 47, 0
9, 31200, Note_on_c, 7, 42, 0
9, 31200, Note_on_c, 7, 51, 127
9, 31200, Note_on_c, 7, 59, 127
9, 31200, Note_on_c, 7, 54, 127
9, 31248, Note_on_c, 7, 54, 0
9, 31248, Note_on_c, 7, 59, 0
9, 31248, Note_on_c, 7, 51, 0
9, 31296, Note_on_c, 7, 42, 127
9, 31296, Note_on_c, 7, 47, 127
9, 31344, Note_on_c, 7, 47, 0
9, 31344, Note_on_c, 7, 42, 0
9, 31344, Note_on_c, 7, 51, 127
9, 31344, Note_on_c, 7, 54, 127
9, 31344, Note_on_c, 7, 59, 127
9, 31392, Note_on_c, 7, 59, 0
9, 31392, Note_on_c, 7, 54, 0
9, 31392, Note_on_c, 7, 51, 0
9, 31440, Note_on_c, 7, 42, 127
9, 31440, Note_on_c, 7, 47, 127
9, 31488, Note_on_c, 7, 47, 0
9, 31488, Note_on_c, 7, 42, 0
9, 31536, Note_on_c, 7, 47, 127
9, 31536, Note_on_c, 7, 42, 127
9, 31584, Note_on_c, 7, 42, 0
9, 31584, Note_on_c, 7, 47, 0
9, 31584, Note_on_c, 7, 51, 127
9, 31584, Note_on_c, 7, 54, 127
9, 31584, Note_on_c, 7, 59, 127
9, 31632, Note_on_c, 7, 59, 0
9, 31632, Note_on_c, 7, 54, 0
9, 31632, Note_on_c, 7, 51, 0
9, 31632, Note_on_c, 7, 42, 97
9, 31680, Note_on_c, 7, 42, 0
9, 31680, Note_on_c, 7, 42, 127
9, 31680, Note_on_c, 7, 47, 127
9, 31728, Note_on_c, 7, 47, 0
9, 31728, Note_on_c, 7, 42, 0
9, 31728, Note_on_c, 7, 51, 127
9, 31728, Note_on_c, 7, 54, 127
9, 31728, Note_on_c, 7, 59, 127
9, 31776, Note_on_c, 7, 59, 0
9, 31776, Note_on_c, 7, 54, 0
9, 31776, Note_on_c, 7, 51, 0
9, 31776, Note_on_c, 7, 42, 127
9, 31776, Note_on_c, 7, 47, 127
9, 31824, Note_on_c, 7, 47, 0
9, 31824, Note_on_c, 7, 42, 0
9, 31824, Note_on_c, 7, 51, 127
9, 31824, Note_on_c, 7, 54, 127
9, 31872, Note_on_c, 7, 54, 0
9, 31872, Note_on_c, 7, 51, 0
9, 31872, Note_on_c, 7, 40, 127
9, 31872, Note_on_c, 7, 47, 127
9, 31920, Note_on_c, 7, 47, 0
9, 31920, Note_on_c, 7, 40, 0
9, 31968, Note_on_c, 7, 59, 127
9, 31968, Note_on_c, 7, 56, 127
9, 31968, Note_on_c, 7, 52, 127
9, 32016, Note_on_c, 7, 52, 0
9, 32016, Note_on_c, 7, 56, 0
9, 32016, Note_on_c, 7, 59, 0
9, 32064, Note_on_c, 7, 47, 127
9, 32064, Note_on_c, 7, 40, 127
9, 32112, Note_on_c, 7, 40, 0
9, 32112, Note_on_c, 7, 47, 0
9, 32112, Note_on_c, 7, 52, 127
9, 32112, Note_on_c, 7, 56, 127
9, 32112, Note_on_c, 7, 59, 127
9, 32160, Note_on_c, 7, 59, 0
9, 32160, Note_on_c, 7, 56, 0
9, 32160, Note_on_c, 7, 52, 0
9, 32208, Note_on_c, 7, 47, 127
9, 32208, Note_on_c, 7, 40, 95
9, 32256, Note_on_c, 7, 40, 0
9, 32256, Note_on_c, 7, 47, 0
9, 32304, Note_on_c, 7, 47, 127
9, 32304, Note_on_c, 7, 40, 127
9, 32352, Note_on_c, 7, 40, 0
9, 32352, Note_on_c, 7, 47, 0
9, 32352, Note_on_c, 7, 52, 127
9, 32352, Note_on_c, 7, 56, 127
9, 32352, Note_on_c, 7, 59, 127
9, 32400, Note_on_c, 7, 59, 0
9, 32400, Note_on_c, 7, 56, 0
9, 32400, Note_on_c, 7, 52, 0
9, 32448, Note_on_c, 7, 40, 127
9, 32448, Note_on_c, 7, 47, 127
9, 32496, Note_on_c, 7, 47, 0
9, 32496, Note_on_c, 7, 40, 0
9, 32496, Note_on_c, 7, 47, 127
9, 32496, Note_on_c, 7, 40, 127
9, 32544, Note_on_c, 7, 40, 0
9, 32544, Note_on_c, 7, 47, 0
9, 32544, Note_on_c, 7, 49, 127
9, 32544, Note_on_c, 7, 42, 127
9, 32592, Note_on_c, 7, 42, 0
9, 32592, Note_on_c, 7, 49, 0
9, 32592, Note_on_c, 7, 51, 127
9, 32592, Note_on_c, 7, 44, 127
9, 32640, Note_on_c, 7, 44, 0
9, 32640, Note_on_c, 7, 51, 0
9, 32640, Note_on_c, 7, 40, 127
9, 32640, Note_on_c, 7, 45, 127
9, 32688, Note_on_c, 7, 45, 0
9, 32688, Note_on_c, 7, 40, 0
9, 32688, Note_on_c, 7, 40, 127
9, 32688, Note_on_c, 7, 45, 127
9, 32736, Note_on_c, 7, 45, 0
9, 32736, Note_on_c, 7, 40, 0
9, 32736, Note_on_c, 7, 57, 127
9, 32736, Note_on_c, 7, 52, 127
9, 32736, Note_on_c, 7, 49, 127
9, 32784, Note_on_c, 7, 49, 0
9, 32784, Note_on_c, 7, 52, 0
9, 32784, Note_on_c, 7, 57, 0
9, 32832, Note_on_c, 7, 40, 127
9, 32832, Note_on_c, 7, 45, 127
9, 32880, Note_on_c, 7, 45, 0
9, 32880, Note_on_c, 7, 40, 0
9, 32880, Note_on_c, 7, 57, 127
9, 32880, Note_on_c, 7, 52, 127
9, 32880, Note_on_c, 7, 49, 127
9, 32928, Note_on_c, 7, 49, 0
9, 32928, Note_on_c, 7, 52, 0
9, 32928, Note_on_c, 7, 57, 0
9, 32928, Note_on_c, 7, 40, 95
9, 32976, Note_on_c, 7, 40, 0
9, 32976, Note_on_c, 7, 45, 127
9, 32976, Note_on_c, 7, 40, 127
9, 33024, Note_on_c, 7, 40, 0
9, 33024, Note_on_c, 7, 45, 0
9, 33072, Note_on_c, 7, 40, 127
9, 33072, Note_on_c, 7, 45, 127
9, 33120, Note_on_c, 7, 45, 0
9, 33120, Note_on_c, 7, 40, 0
9, 33120, Note_on_c, 7, 57, 127
9, 33120, Note_on_c, 7, 52, 127
9, 33120, Note_on_c, 7, 49, 127
9, 33168, Note_on_c, 7, 49, 0
9, 33168, Note_on_c, 7, 52, 0
9, 33168, Note_on_c, 7, 57, 0
9, 33216, Note_on_c, 7, 40, 127
9, 33216, Note_on_c, 7, 45, 127
9, 33264, Note_on_c, 7, 45, 0
9, 33264, Note_on_c, 7, 40, 0
9, 33264, Note_on_c, 7, 57, 127
9, 33264, Note_on_c, 7, 52, 127
9, 33264, Note_on_c, 7, 49, 127
9, 33312, Note_on_c, 7, 49, 0
9, 33312, Note_on_c, 7, 52, 0
9, 33312, Note_on_c, 7, 57, 0
9, 33360, Note_on_c, 7, 40, 127
9, 33360, Note_on_c, 7, 47, 127
9, 33408, Note_on_c, 7, 47, 0
9, 33408, Note_on_c, 7, 40, 0
9, 33456, Note_on_c, 7, 42, 127
9, 33456, Note_on_c, 7, 47, 127
9, 33504, Note_on_c, 7, 47, 0
9, 33504, Note_on_c, 7, 42, 0
9, 33504, Note_on_c, 7, 42, 127
9, 33504, Note_on_c, 7, 47, 127
9, 33552, Note_on_c, 7, 47, 0
9, 33552, Note_on_c, 7, 42, 0
9, 33552, Note_on_c, 7, 42, 127
9, 33552, Note_on_c, 7, 47, 127
9, 33600, Note_on_c, 7, 47, 0
9, 33600, Note_on_c, 7, 42, 0
9, 33600, Note_on_c, 7, 42, 127
9, 33600, Note_on_c, 7, 47, 127
9, 33648, Note_on_c, 7, 47, 0
9, 33648, Note_on_c, 7, 42, 0
9, 33648, Note_on_c, 7, 42, 127
9, 33648, Note_on_c, 7, 47, 127
9, 33696, Note_on_c, 7, 47, 0
9, 33696, Note_on_c, 7, 42, 0
9, 33696, Note_on_c, 7, 42, 127
9, 33696, Note_on_c, 7, 47, 127
9, 33744, Note_on_c, 7, 47, 0
9, 33744, Note_on_c, 7, 42, 0
9, 33744, Note_on_c, 7, 42, 127
9, 33744, Note_on_c, 7, 47, 127
9, 33792, Note_on_c, 7, 47, 0
9, 33792, Note_on_c, 7, 42, 0
9, 33792, Note_on_c, 7, 42, 127
9, 33792, Note_on_c, 7, 47, 127
9, 33840, Note_on_c, 7, 47, 0
9, 33840, Note_on_c, 7, 42, 0
9, 34176, Note_on_c, 7, 40, 127
9, 34176, Note_on_c, 7, 47, 127
9, 34224, Note_on_c, 7, 47, 0
9, 34224, Note_on_c, 7, 40, 0
9, 34272, Note_on_c, 7, 59, 127
9, 34272, Note_on_c, 7, 56, 127
9, 34272, Note_on_c, 7, 52, 127
9, 34320, Note_on_c, 7, 52, 0
9, 34320, Note_on_c, 7, 56, 0
9, 34320, Note_on_c, 7, 59, 0
9, 34368, Note_on_c, 7, 40, 127
9, 34368, Note_on_c, 7, 47, 127
9, 34416, Note_on_c, 7, 47, 0
9, 34416, Note_on_c, 7, 40, 0
9, 34416, Note_on_c, 7, 59, 127
9, 34416, Note_on_c, 7, 56, 127
9, 34416, Note_on_c, 7, 52, 127
9, 34464, Note_on_c, 7, 52, 0
9, 34464, Note_on_c, 7, 56, 0
9, 34464, Note_on_c, 7, 59, 0
9, 34464, Note_on_c, 7, 40, 127
9, 34464, Note_on_c, 7, 47, 127
9, 34512, Note_on_c, 7, 47, 0
9, 34512, Note_on_c, 7, 40, 0
9, 34512, Note_on_c, 7, 40, 127
9, 34512, Note_on_c, 7, 47, 127
9, 34560, Note_on_c, 7, 47, 0
9, 34560, Note_on_c, 7, 40, 0
9, 34608, Note_on_c, 7, 40, 127
9, 34608, Note_on_c, 7, 47, 127
9, 34656, Note_on_c, 7, 47, 0
9, 34656, Note_on_c, 7, 40, 0
9, 34656, Note_on_c, 7, 59, 127
9, 34656, Note_on_c, 7, 56, 127
9, 34656, Note_on_c, 7, 52, 127
9, 34704, Note_on_c, 7, 52, 0
9, 34704, Note_on_c, 7, 56, 0
9, 34704, Note_on_c, 7, 59, 0
9, 34752, Note_on_c, 7, 40, 127
9, 34752, Note_on_c, 7, 47, 127
9, 34800, Note_on_c, 7, 47, 0
9, 34800, Note_on_c, 7, 40, 0
9, 34800, Note_on_c, 7, 59, 127
9, 34800, Note_on_c, 7, 56, 127
9, 34800, Note_on_c, 7, 52, 127
9, 34848, Note_on_c, 7, 52, 0
9, 34848, Note_on_c, 7, 56, 0
9, 34848, Note_on_c, 7, 59, 0
9, 34848, Note_on_c, 7, 40, 127
9, 34848, Note_on_c, 7, 47, 127
9, 34896, Note_on_c, 7, 47, 0
9, 34896, Note_on_c, 7, 40, 0
9, 34896, Note_on_c, 7, 59, 127
9, 34896, Note_on_c, 7, 56, 127
9, 34896, Note_on_c, 7, 52, 127
9, 34944, Note_on_c, 7, 52, 0
9, 34944, Note_on_c, 7, 56, 0
9, 34944, Note_on_c, 7, 59, 0
9, 34944, Note_on_c, 7, 52, 127
9, 34944, Note_on_c, 7, 45, 127
9, 34992, Note_on_c, 7, 45, 0
9, 34992, Note_on_c, 7, 52, 0
9, 35040, Note_on_c, 7, 54, 127
9, 35040, Note_on_c, 7, 45, 127
9, 35088, Note_on_c, 7, 45, 0
9, 35088, Note_on_c, 7, 54, 0
9, 35088, Note_on_c, 7, 52, 127
9, 35088, Note_on_c, 7, 45, 127
9, 35136, Note_on_c, 7, 45, 0
9, 35136, Note_on_c, 7, 52, 0
9, 35184, Note_on_c, 7, 52, 127
9, 35184, Note_on_c, 7, 45, 127
9, 35232, Note_on_c, 7, 45, 0
9, 35232, Note_on_c, 7, 52, 0
9, 35232, Note_on_c, 7, 45, 127
9, 35232, Note_on_c, 7, 54, 127
9, 35280, Note_on_c, 7, 54, 0
9, 35280, Note_on_c, 7, 45, 0
9, 35280, Note_on_c, 7, 45, 127
9, 35328, Note_on_c, 7, 45, 0
9, 35328, Note_on_c, 7, 52, 127
9, 35328, Note_on_c, 7, 45, 127
9, 35376, Note_on_c, 7, 45, 0
9, 35376, Note_on_c, 7, 52, 0
9, 35424, Note_on_c, 7, 45, 127
9, 35424, Note_on_c, 7, 54, 127
9, 35472, Note_on_c, 7, 54, 0
9, 35472, Note_on_c, 7, 45, 0
9, 35472, Note_on_c, 7, 45, 127
9, 35472, Note_on_c, 7, 52, 127
9, 35520, Note_on_c, 7, 52, 0
9, 35520, Note_on_c, 7, 45, 0
9, 35568, Note_on_c, 7, 52, 127
9, 35568, Note_on_c, 7, 45, 127
9, 35616, Note_on_c, 7, 45, 0
9, 35616, Note_on_c, 7, 52, 0
9, 35616, Note_on_c, 7, 45, 127
9, 35616, Note_on_c, 7, 54, 127
9, 35664, Note_on_c, 7, 54, 0
9, 35664, Note_on_c, 7, 45, 0
9, 35664, Note_on_c, 7, 45, 127
9, 35712, Note_on_c, 7, 45, 0
9, 35712, Note_on_c, 7, 47, 127
9, 35712, Note_on_c, 7, 40, 127
9, 35760, Note_on_c, 7, 40, 0
9, 35760, Note_on_c, 7, 47, 0
9, 35808, Note_on_c, 7, 52, 127
9, 35808, Note_on_c, 7, 40, 127
9, 35808, Note_on_c, 7, 47, 127
9, 35856, Note_on_c, 7, 47, 0
9, 35856, Note_on_c, 7, 40, 0
9, 35856, Note_on_c, 7, 52, 0
9, 35856, Note_on_c, 7, 47, 127
9, 35856, Note_on_c, 7, 40, 127
9, 35904, Note_on_c, 7, 40, 0
9, 35904, Note_on_c, 7, 47, 0
9, 35952, Note_on_c, 7, 40, 127
9, 35952, Note_on_c, 7, 47, 127
9, 35952, Note_on_c, 7, 52, 127
9, 36000, Note_on_c, 7, 52, 0
9, 36000, Note_on_c, 7, 47, 0
9, 36000, Note_on_c, 7, 40, 0
9, 36048, Note_on_c, 7, 40, 127
9, 36048, Note_on_c, 7, 47, 127
9, 36096, Note_on_c, 7, 47, 0
9, 36096, Note_on_c, 7, 40, 0
9, 36096, Note_on_c, 7, 47, 127
9, 36096, Note_on_c, 7, 40, 127
9, 36144, Note_on_c, 7, 40, 0
9, 36144, Note_on_c, 7, 47, 0
9, 36192, Note_on_c, 7, 40, 127
9, 36192, Note_on_c, 7, 47, 127
9, 36192, Note_on_c, 7, 52, 127
9, 36240, Note_on_c, 7, 52, 0
9, 36240, Note_on_c, 7, 47, 0
9, 36240, Note_on_c, 7, 40, 0
9, 36240, Note_on_c, 7, 40, 127
9, 36240, Note_on_c, 7, 47, 127
9, 36336, Note_on_c, 7, 47, 0
9, 36336, Note_on_c, 7, 40, 0
9, 36336, Note_on_c, 7, 52, 127
9, 36336, Note_on_c, 7, 40, 127
9, 36336, Note_on_c, 7, 47, 127
9, 36384, Note_on_c, 7, 47, 0
9, 36384, Note_on_c, 7, 40, 0
9, 36384, Note_on_c, 7, 52, 0
9, 36432, Note_on_c, 7, 40, 127
9, 36432, Note_on_c, 7, 47, 127
9, 36480, Note_on_c, 7, 47, 0
9, 36480, Note_on_c, 7, 40, 0
9, 36480, Note_on_c, 7, 52, 127
9, 36480, Note_on_c, 7, 45, 127
9, 36528, Note_on_c, 7, 45, 0
9, 36528, Note_on_c, 7, 52, 0
9, 36576, Note_on_c, 7, 54, 127
9, 36576, Note_on_c, 7, 45, 127
9, 36624, Note_on_c, 7, 45, 0
9, 36624, Note_on_c, 7, 54, 0
9, 36624, Note_on_c, 7, 52, 127
9, 36624, Note_on_c, 7, 45, 127
9, 36672, Note_on_c, 7, 45, 0
9, 36672, Note_on_c, 7, 52, 0
9, 36720, Note_on_c, 7, 52, 127
9, 36720, Note_on_c, 7, 45, 127
9, 36768, Note_on_c, 7, 45, 0
9, 36768, Note_on_c, 7, 52, 0
9, 36768, Note_on_c, 7, 45, 127
9, 36768, Note_on_c, 7, 54, 127
9, 36816, Note_on_c, 7, 54, 0
9, 36816, Note_on_c, 7, 45, 0
9, 36816, Note_on_c, 7, 45, 127
9, 36864, Note_on_c, 7, 45, 0
9, 36864, Note_on_c, 7, 52, 127
9, 36864, Note_on_c, 7, 45, 127
9, 36912, Note_on_c, 7, 45, 0
9, 36912, Note_on_c, 7, 52, 0
9, 36960, Note_on_c, 7, 45, 127
9, 36960, Note_on_c, 7, 54, 127
9, 37008, Note_on_c, 7, 54, 0
9, 37008, Note_on_c, 7, 45, 0
9, 37008, Note_on_c, 7, 45, 127
9, 37008, Note_on_c, 7, 52, 127
9, 37056, Note_on_c, 7, 52, 0
9, 37056, Note_on_c, 7, 45, 0
9, 37104, Note_on_c, 7, 52, 127
9, 37104, Note_on_c, 7, 45, 127
9, 37152, Note_on_c, 7, 45, 0
9, 37152, Note_on_c, 7, 52, 0
9, 37152, Note_on_c, 7, 45, 127
9, 37152, Note_on_c, 7, 54, 127
9, 37200, Note_on_c, 7, 54, 0
9, 37200, Note_on_c, 7, 45, 0
9, 37200, Note_on_c, 7, 45, 127
9, 37248, Note_on_c, 7, 45, 0
9, 37248, Note_on_c, 7, 47, 127
9, 37248, Note_on_c, 7, 40, 127
9, 37296, Note_on_c, 7, 40, 0
9, 37296, Note_on_c, 7, 47, 0
9, 37632, Note_on_c, 7, 54, 127
9, 37632, Note_on_c, 7, 47, 127
9, 37680, Note_on_c, 7, 47, 0
9, 37680, Note_on_c, 7, 54, 0
9, 37680, Note_on_c, 7, 54, 127
9, 37680, Note_on_c, 7, 47, 127
9, 37728, Note_on_c, 7, 47, 0
9, 37728, Note_on_c, 7, 54, 0
9, 37728, Note_on_c, 7, 47, 127
9, 37728, Note_on_c, 7, 56, 127
9, 37776, Note_on_c, 7, 56, 0
9, 37776, Note_on_c, 7, 47, 0
9, 37776, Note_on_c, 7, 47, 127
9, 37824, Note_on_c, 7, 47, 0
9, 37824, Note_on_c, 7, 47, 127
9, 37824, Note_on_c, 7, 54, 127
9, 37872, Note_on_c, 7, 54, 0
9, 37872, Note_on_c, 7, 47, 0
9, 37872, Note_on_c, 7, 47, 127
9, 37920, Note_on_c, 7, 47, 0
9, 37920, Note_on_c, 7, 47, 127
9, 37920, Note_on_c, 7, 56, 127
9, 37968, Note_on_c, 7, 56, 0
9, 37968, Note_on_c, 7, 47, 0
9, 37968, Note_on_c, 7, 47, 127
9, 37968, Note_on_c, 7, 54, 127
9, 38016, Note_on_c, 7, 54, 0
9, 38016, Note_on_c, 7, 47, 0
9, 38016, Note_on_c, 7, 54, 127
9, 38016, Note_on_c, 7, 47, 127
9, 38064, Note_on_c, 7, 47, 0
9, 38064, Note_on_c, 7, 54, 0
9, 38064, Note_on_c, 7, 54, 127
9, 38064, Note_on_c, 7, 47, 127
9, 38112, Note_on_c, 7, 47, 0
9, 38112, Note_on_c, 7, 54, 0
9, 38112, Note_on_c, 7, 47, 127
9, 38112, Note_on_c, 7, 56, 127
9, 38160, Note_on_c, 7, 56, 0
9, 38160, Note_on_c, 7, 47, 0
9, 38160, Note_on_c, 7, 47, 127
9, 38208, Note_on_c, 7, 47, 0
9, 38208, Note_on_c, 7, 47, 127
9, 38208, Note_on_c, 7, 54, 127
9, 38256, Note_on_c, 7, 54, 0
9, 38256, Note_on_c, 7, 47, 0
9, 38256, Note_on_c, 7, 47, 127
9, 38304, Note_on_c, 7, 47, 0
9, 38304, Note_on_c, 7, 47, 127
9, 38304, Note_on_c, 7, 56, 127
9, 38352, Note_on_c, 7, 56, 0
9, 38352, Note_on_c, 7, 47, 0
9, 38352, Note_on_c, 7, 47, 127
9, 38352, Note_on_c, 7, 54, 127
9, 38400, Note_on_c, 7, 54, 0
9, 38400, Note_on_c, 7, 47, 0
9, 38400, Note_on_c, 7, 47, 127
9, 38400, Note_on_c, 7, 54, 127
9, 38448, Note_on_c, 7, 54, 0
9, 38448, Note_on_c, 7, 47, 0
9, 38784, Note_on_c, 7, 47, 127
9, 38784, Note_on_c, 7, 52, 127
9, 38832, Note_on_c, 7, 52, 0
9, 38832, Note_on_c, 7, 47, 0
9, 38832, Note_on_c, 7, 52, 99
9, 38832, Note_on_c, 7, 47, 99
9, 38880, Note_on_c, 7, 47, 0
9, 38880, Note_on_c, 7, 52, 0
9, 38880, Note_on_c, 7, 47, 127
9, 38880, Note_on_c, 7, 52, 127
9, 38928, Note_on_c, 7, 52, 0
9, 38928, Note_on_c, 7, 47, 0
9, 38928, Note_on_c, 7, 47, 97
9, 38928, Note_on_c, 7, 52, 97
9, 38976, Note_on_c, 7, 52, 0
9, 38976, Note_on_c, 7, 47, 0
9, 38976, Note_on_c, 7, 47, 127
9, 38976, Note_on_c, 7, 52, 127
9, 39024, Note_on_c, 7, 52, 0
9, 39024, Note_on_c, 7, 47, 0
9, 39024, Note_on_c, 7, 47, 98
9, 39024, Note_on_c, 7, 52, 98
9, 39072, Note_on_c, 7, 52, 0
9, 39072, Note_on_c, 7, 47, 0
9, 39072, Note_on_c, 7, 47, 127
9, 39072, Note_on_c, 7, 52, 127
9, 39120, Note_on_c, 7, 52, 0
9, 39120, Note_on_c, 7, 47, 0
9, 39120, Note_on_c, 7, 47, 98
9, 39120, Note_on_c, 7, 52, 98
9, 39168, Note_on_c, 7, 52, 0
9, 39168, Note_on_c, 7, 47, 0
9, 39168, Note_on_c, 7, 47, 127
9, 39168, Note_on_c, 7, 52, 127
9, 39216, Note_on_c, 7, 52, 0
9, 39216, Note_on_c, 7, 47, 0
9, 39216, Note_on_c, 7, 52, 99
9, 39216, Note_on_c, 7, 47, 99
9, 39264, Note_on_c, 7, 47, 0
9, 39264, Note_on_c, 7, 52, 0
9, 39264, Note_on_c, 7, 47, 127
9, 39264, Note_on_c, 7, 52, 127
9, 39312, Note_on_c, 7, 52, 0
9, 39312, Note_on_c, 7, 47, 0
9, 39312, Note_on_c, 7, 47, 97
9, 39312, Note_on_c, 7, 52, 97
9, 39360, Note_on_c, 7, 52, 0
9, 39360, Note_on_c, 7, 47, 0
9, 39360, Note_on_c, 7, 47, 127
9, 39360, Note_on_c, 7, 52, 127
9, 39408, Note_on_c, 7, 52, 0
9, 39408, Note_on_c, 7, 47, 0
9, 39408, Note_on_c, 7, 47, 98
9, 39408, Note_on_c, 7, 52, 98
9, 39456, Note_on_c, 7, 52, 0
9, 39456, Note_on_c, 7, 47, 0
9, 39456, Note_on_c, 7, 47, 127
9, 39456, Note_on_c, 7, 52, 127
9, 39504, Note_on_c, 7, 52, 0
9, 39504, Note_on_c, 7, 47, 0
9, 39504, Note_on_c, 7, 47, 98
9, 39504, Note_on_c, 7, 52, 98
9, 39552, Note_on_c, 7, 52, 0
9, 39552, Note_on_c, 7, 47, 0
9, 39552, Note_on_c, 7, 47, 127
9, 39552, Note_on_c, 7, 52, 127
9, 39600, Note_on_c, 7, 52, 0
9, 39600, Note_on_c, 7, 47, 0
9, 39600, Note_on_c, 7, 52, 99
9, 39600, Note_on_c, 7, 47, 99
9, 39648, Note_on_c, 7, 47, 0
9, 39648, Note_on_c, 7, 52, 0
9, 39648, Note_on_c, 7, 47, 127
9, 39648, Note_on_c, 7, 52, 127
9, 39696, Note_on_c, 7, 52, 0
9, 39696, Note_on_c, 7, 47, 0
9, 39696, Note_on_c, 7, 47, 97
9, 39696, Note_on_c, 7, 52, 97
9, 39744, Note_on_c, 7, 52, 0
9, 39744, Note_on_c, 7, 47, 0
9, 39744, Note_on_c, 7, 47, 127
9, 39744, Note_on_c, 7, 52, 127
9, 39792, Note_on_c, 7, 52, 0
9, 39792, Note_on_c, 7, 47, 0
9, 39792, Note_on_c, 7, 47, 98
9, 39792, Note_on_c, 7, 52, 98
9, 39840, Note_on_c, 7, 52, 0
9, 39840, Note_on_c, 7, 47, 0
9, 39840, Note_on_c, 7, 47, 127
9, 39840, Note_on_c, 7, 52, 127
9, 39888, Note_on_c, 7, 52, 0
9, 39888, Note_on_c, 7, 47, 0
9, 39888, Note_on_c, 7, 47, 98
9, 39888, Note_on_c, 7, 52, 98
9, 39936, Note_on_c, 7, 52, 0
9, 39936, Note_on_c, 7, 47, 0
9, 39936, Note_on_c, 7, 47, 127
9, 39936, Note_on_c, 7, 52, 127
9, 39984, Note_on_c, 7, 52, 0
9, 39984, Note_on_c, 7, 47, 0
9, 39984, Note_on_c, 7, 52, 99
9, 39984, Note_on_c, 7, 47, 99
9, 40032, Note_on_c, 7, 47, 0
9, 40032, Note_on_c, 7, 52, 0
9, 40032, Note_on_c, 7, 47, 127
9, 40032, Note_on_c, 7, 52, 127
9, 40080, Note_on_c, 7, 52, 0
9, 40080, Note_on_c, 7, 47, 0
9, 40080, Note_on_c, 7, 47, 97
9, 40080, Note_on_c, 7, 52, 97
9, 40128, Note_on_c, 7, 52, 0
9, 40128, Note_on_c, 7, 47, 0
9, 40128, Note_on_c, 7, 47, 127
9, 40128, Note_on_c, 7, 52, 127
9, 40176, Note_on_c, 7, 52, 0
9, 40176, Note_on_c, 7, 47, 0
9, 40176, Note_on_c, 7, 47, 98
9, 40176, Note_on_c, 7, 52, 98
9, 40224, Note_on_c, 7, 52, 0
9, 40224, Note_on_c, 7, 47, 0
9, 40224, Note_on_c, 7, 47, 127
9, 40224, Note_on_c, 7, 52, 127
9, 40272, Note_on_c, 7, 52, 0
9, 40272, Note_on_c, 7, 47, 0
9, 40272, Note_on_c, 7, 47, 98
9, 40272, Note_on_c, 7, 52, 98
9, 40320, Note_on_c, 7, 52, 0
9, 40320, Note_on_c, 7, 47, 0
9, 40320, Note_on_c, 7, 40, 127
9, 40320, Note_on_c, 7, 47, 127
9, 40368, Note_on_c, 7, 47, 0
9, 40368, Note_on_c, 7, 40, 0
9, 40416, Note_on_c, 7, 56, 127
9, 40416, Note_on_c, 7, 52, 127
9, 40416, Note_on_c, 7, 59, 127
9, 40464, Note_on_c, 7, 59, 0
9, 40464, Note_on_c, 7, 52, 0
9, 40464, Note_on_c, 7, 56, 0
9, 40464, Note_on_c, 7, 47, 87
9, 40464, Note_on_c, 7, 40, 87
9, 40512, Note_on_c, 7, 40, 0
9, 40512, Note_on_c, 7, 47, 0
9, 40512, Note_on_c, 7, 47, 127
9, 40512, Note_on_c, 7, 40, 127
9, 40560, Note_on_c, 7, 40, 0
9, 40560, Note_on_c, 7, 47, 0
9, 40560, Note_on_c, 7, 52, 127
9, 40560, Note_on_c, 7, 56, 127
9, 40560, Note_on_c, 7, 59, 127
9, 40608, Note_on_c, 7, 59, 0
9, 40608, Note_on_c, 7, 56, 0
9, 40608, Note_on_c, 7, 52, 0
9, 40656, Note_on_c, 7, 40, 125
9, 40656, Note_on_c, 7, 47, 125
9, 40704, Note_on_c, 7, 47, 0
9, 40704, Note_on_c, 7, 40, 0
9, 40752, Note_on_c, 7, 40, 127
9, 40752, Note_on_c, 7, 47, 127
9, 40800, Note_on_c, 7, 47, 0
9, 40800, Note_on_c, 7, 40, 0
9, 40800, Note_on_c, 7, 52, 127
9, 40800, Note_on_c, 7, 59, 127
9, 40800, Note_on_c, 7, 56, 127
9, 40848, Note_on_c, 7, 56, 0
9, 40848, Note_on_c, 7, 59, 0
9, 40848, Note_on_c, 7, 52, 0
9, 40848, Note_on_c, 7, 47, 85
9, 40848, Note_on_c, 7, 40, 85
9, 40896, Note_on_c, 7, 40, 0
9, 40896, Note_on_c, 7, 47, 0
9, 40896, Note_on_c, 7, 40, 127
9, 40896, Note_on_c, 7, 47, 127
9, 40944, Note_on_c, 7, 47, 0
9, 40944, Note_on_c, 7, 40, 0
9, 40944, Note_on_c, 7, 59, 127
9, 40944, Note_on_c, 7, 56, 127
9, 40944, Note_on_c, 7, 52, 127
9, 40992, Note_on_c, 7, 52, 0
9, 40992, Note_on_c, 7, 56, 0
9, 40992, Note_on_c, 7, 59, 0
9, 41040, Note_on_c, 7, 40, 127
9, 41040, Note_on_c, 7, 47, 127
9, 41088, Note_on_c, 7, 47, 0
9, 41088, Note_on_c, 7, 40, 0
9, 41088, Note_on_c, 7, 40, 127
9, 41088, Note_on_c, 7, 47, 127
9, 41136, Note_on_c, 7, 47, 0
9, 41136, Note_on_c, 7, 40, 0
9, 41184, Note_on_c, 7, 56, 127
9, 41184, Note_on_c, 7, 52, 127
9, 41184, Note_on_c, 7, 59, 127
9, 41232, Note_on_c, 7, 59, 0
9, 41232, Note_on_c, 7, 52, 0
9, 41232, Note_on_c, 7, 56, 0
9, 41232, Note_on_c, 7, 47, 87
9, 41232, Note_on_c, 7, 40, 87
9, 41280, Note_on_c, 7, 40, 0
9, 41280, Note_on_c, 7, 47, 0
9, 41280, Note_on_c, 7, 47, 127
9, 41280, Note_on_c, 7, 40, 127
9, 41328, Note_on_c, 7, 40, 0
9, 41328, Note_on_c, 7, 47, 0
9, 41328, Note_on_c, 7, 52, 127
9, 41328, Note_on_c, 7, 56, 127
9, 41328, Note_on_c, 7, 59, 127
9, 41376, Note_on_c, 7, 59, 0
9, 41376, Note_on_c, 7, 56, 0
9, 41376, Note_on_c, 7, 52, 0
9, 41424, Note_on_c, 7, 40, 125
9, 41424, Note_on_c, 7, 47, 125
9, 41472, Note_on_c, 7, 47, 0
9, 41472, Note_on_c, 7, 40, 0
9, 41520, Note_on_c, 7, 40, 127
9, 41520, Note_on_c, 7, 47, 127
9, 41568, Note_on_c, 7, 47, 0
9, 41568, Note_on_c, 7, 40, 0
9, 41568, Note_on_c, 7, 52, 127
9, 41568, Note_on_c, 7, 59, 127
9, 41568, Note_on_c, 7, 56, 127
9, 41616, Note_on_c, 7, 56, 0
9, 41616, Note_on_c, 7, 59, 0
9, 41616, Note_on_c, 7, 52, 0
9, 41616, Note_on_c, 7, 47, 85
9, 41616, Note_on_c, 7, 40, 85
9, 41664, Note_on_c, 7, 40, 0
9, 41664, Note_on_c, 7, 47, 0
9, 41664, Note_on_c, 7, 40, 127
9, 41664, Note_on_c, 7, 47, 127
9, 41712, Note_on_c, 7, 47, 0
9, 41712, Note_on_c, 7, 40, 0
9, 41712, Note_on_c, 7, 59, 127
9, 41712, Note_on_c, 7, 56, 127
9, 41712, Note_on_c, 7, 52, 127
9, 41760, Note_on_c, 7, 52, 0
9, 41760, Note_on_c, 7, 56, 0
9, 41760, Note_on_c, 7, 59, 0
9, 41808, Note_on_c, 7, 40, 127
9, 41808, Note_on_c, 7, 47, 127
9, 41856, Note_on_c, 7, 47, 0
9, 41856, Note_on_c, 7, 40, 0
9, 41856, Note_on_c, 7, 40, 127
9, 41856, Note_on_c, 7, 47, 127
9, 41904, Note_on_c, 7, 47, 0
9, 41904, Note_on_c, 7, 40, 0
9, 41952, Note_on_c, 7, 56, 127
9, 41952, Note_on_c, 7, 52, 127
9, 41952, Note_on_c, 7, 59, 127
9, 42000, Note_on_c, 7, 59, 0
9, 42000, Note_on_c, 7, 52, 0
9, 42000, Note_on_c, 7, 56, 0
9, 42000, Note_on_c, 7, 47, 87
9, 42000, Note_on_c, 7, 40, 87
9, 42048, Note_on_c, 7, 40, 0
9, 42048, Note_on_c, 7, 47, 0
9, 42048, Note_on_c, 7, 47, 127
9, 42048, Note_on_c, 7, 40, 127
9, 42096, Note_on_c, 7, 40, 0
9, 42096, Note_on_c, 7, 47, 0
9, 42096, Note_on_c, 7, 52, 127
9, 42096, Note_on_c, 7, 56, 127
9, 42096, Note_on_c, 7, 59, 127
9, 42144, Note_on_c, 7, 59, 0
9, 42144, Note_on_c, 7, 56, 0
9, 42144, Note_on_c, 7, 52, 0
9, 42192, Note_on_c, 7, 40, 125
9, 42192, Note_on_c, 7, 47, 125
9, 42240, Note_on_c, 7, 47, 0
9, 42240, Note_on_c, 7, 40, 0
9, 42288, Note_on_c, 7, 40, 127
9, 42288, Note_on_c, 7, 47, 127
9, 42336, Note_on_c, 7, 47, 0
9, 42336, Note_on_c, 7, 40, 0
9, 42336, Note_on_c, 7, 52, 127
9, 42336, Note_on_c, 7, 59, 127
9, 42336, Note_on_c, 7, 56, 127
9, 42384, Note_on_c, 7, 56, 0
9, 42384, Note_on_c, 7, 59, 0
9, 42384, Note_on_c, 7, 52, 0
9, 42384, Note_on_c, 7, 47, 85
9, 42384, Note_on_c, 7, 40, 85
9, 42432, Note_on_c, 7, 40, 0
9, 42432, Note_on_c, 7, 47, 0
9, 42432, Note_on_c, 7, 40, 127
9, 42432, Note_on_c, 7, 47, 127
9, 42480, Note_on_c, 7, 47, 0
9, 42480, Note_on_c, 7, 40, 0
9, 42480, Note_on_c, 7, 59, 127
9, 42480, Note_on_c, 7, 56, 127
9, 42480, Note_on_c, 7, 52, 127
9, 42528, Note_on_c, 7, 52, 0
9, 42528, Note_on_c, 7, 56, 0
9, 42528, Note_on_c, 7, 59, 0
9, 42576, Note_on_c, 7, 40, 127
9, 42576, Note_on_c, 7, 47, 127
9, 42624, Note_on_c, 7, 47, 0
9, 42624, Note_on_c, 7, 40, 0
9, 42624, Note_on_c, 7, 40, 127
9, 42624, Note_on_c, 7, 47, 127
9, 42672, Note_on_c, 7, 47, 0
9, 42672, Note_on_c, 7, 40, 0
9, 42720, Note_on_c, 7, 56, 127
9, 42720, Note_on_c, 7, 52, 127
9, 42720, Note_on_c, 7, 59, 127
9, 42768, Note_on_c, 7, 59, 0
9, 42768, Note_on_c, 7, 52, 0
9, 42768, Note_on_c, 7, 56, 0
9, 42768, Note_on_c, 7, 47, 87
9, 42768, Note_on_c, 7, 40, 87
9, 42816, Note_on_c, 7, 40, 0
9, 42816, Note_on_c, 7, 47, 0
9, 42816, Note_on_c, 7, 47, 127
9, 42816, Note_on_c, 7, 40, 127
9, 42864, Note_on_c, 7, 40, 0
9, 42864, Note_on_c, 7, 47, 0
9, 42864, Note_on_c, 7, 52, 127
9, 42864, Note_on_c, 7, 56, 127
9, 42864, Note_on_c, 7, 59, 127
9, 42912, Note_on_c, 7, 59, 0
9, 42912, Note_on_c, 7, 56, 0
9, 42912, Note_on_c, 7, 52, 0
9, 42960, Note_on_c, 7, 40, 125
9, 42960, Note_on_c, 7, 47, 125
9, 43008, Note_on_c, 7, 47, 0
9, 43008, Note_on_c, 7, 40, 0
9, 43056, Note_on_c, 7, 40, 127
9, 43056, Note_on_c, 7, 47, 127
9, 43104, Note_on_c, 7, 47, 0
9, 43104, Note_on_c, 7, 40, 0
9, 43104, Note_on_c, 7, 52, 127
9, 43104, Note_on_c, 7, 59, 127
9, 43104, Note_on_c, 7, 56, 127
9, 43152, Note_on_c, 7, 56, 0
9, 43152, Note_on_c, 7, 59, 0
9, 43152, Note_on_c, 7, 52, 0
9, 43152, Note_on_c, 7, 47, 85
9, 43152, Note_on_c, 7, 40, 85
9, 43200, Note_on_c, 7, 40, 0
9, 43200, Note_on_c, 7, 47, 0
9, 43200, Note_on_c, 7, 40, 127
9, 43200, Note_on_c, 7, 47, 127
9, 43248, Note_on_c, 7, 47, 0
9, 43248, Note_on_c, 7, 40, 0
9, 43248, Note_on_c, 7, 59, 127
9, 43248, Note_on_c, 7, 56, 127
9, 43248, Note_on_c, 7, 52, 127
9, 43296, Note_on_c, 7, 52, 0
9, 43296, Note_on_c, 7, 56, 0
9, 43296, Note_on_c, 7, 59, 0
9, 43344, Note_on_c, 7, 40, 127
9, 43344, Note_on_c, 7, 47, 127
9, 43392, Note_on_c, 7, 47, 0
9, 43392, Note_on_c, 7, 40, 0
9, 43392, Note_on_c, 7, 40, 127
9, 43392, Note_on_c, 7, 47, 127
9, 43440, Note_on_c, 7, 47, 0
9, 43440, Note_on_c, 7, 40, 0
9, 43488, Note_on_c, 7, 56, 127
9, 43488, Note_on_c, 7, 52, 127
9, 43488, Note_on_c, 7, 59, 127
9, 43536, Note_on_c, 7, 59, 0
9, 43536, Note_on_c, 7, 52, 0
9, 43536, Note_on_c, 7, 56, 0
9, 43536, Note_on_c, 7, 47, 87
9, 43536, Note_on_c, 7, 40, 87
9, 43584, Note_on_c, 7, 40, 0
9, 43584, Note_on_c, 7, 47, 0
9, 43584, Note_on_c, 7, 47, 127
9, 43584, Note_on_c, 7, 40, 127
9, 43632, Note_on_c, 7, 40, 0
9, 43632, Note_on_c, 7, 47, 0
9, 43632, Note_on_c, 7, 52, 127
9, 43632, Note_on_c, 7, 56, 127
9, 43632, Note_on_c, 7, 59, 127
9, 43680, Note_on_c, 7, 59, 0
9, 43680, Note_on_c, 7, 56, 0
9, 43680, Note_on_c, 7, 52, 0
9, 43728, Note_on_c, 7, 40, 125
9, 43728, Note_on_c, 7, 47, 125
9, 43776, Note_on_c, 7, 47, 0
9, 43776, Note_on_c, 7, 40, 0
9, 43824, Note_on_c, 7, 40, 127
9, 43824, Note_on_c, 7, 47, 127
9, 43872, Note_on_c, 7, 47, 0
9, 43872, Note_on_c, 7, 40, 0
9, 43872, Note_on_c, 7, 52, 127
9, 43872, Note_on_c, 7, 59, 127
9, 43872, Note_on_c, 7, 56, 127
9, 43920, Note_on_c, 7, 56, 0
9, 43920, Note_on_c, 7, 59, 0
9, 43920, Note_on_c, 7, 52, 0
9, 43920, Note_on_c, 7, 47, 85
9, 43920, Note_on_c, 7, 40, 85
9, 43968, Note_on_c, 7, 40, 0
9, 43968, Note_on_c, 7, 47, 0
9, 43968, Note_on_c, 7, 40, 127
9, 43968, Note_on_c, 7, 47, 127
9, 44016, Note_on_c, 7, 47, 0
9, 44016, Note_on_c, 7, 40, 0
9, 44016, Note_on_c, 7, 59, 127
9, 44016, Note_on_c, 7, 56, 127
9, 44016, Note_on_c, 7, 52, 127
9, 44064, Note_on_c, 7, 52, 0
9, 44064, Note_on_c, 7, 56, 0
9, 44064, Note_on_c, 7, 59, 0
9, 44112, Note_on_c, 7, 40, 127
9, 44112, Note_on_c, 7, 47, 127
9, 44160, Note_on_c, 7, 47, 0
9, 44160, Note_on_c, 7, 40, 0
9, 44160, Note_on_c, 7, 40, 127
9, 44160, Note_on_c, 7, 47, 127
9, 44208, Note_on_c, 7, 47, 0
9, 44208, Note_on_c, 7, 40, 0
9, 44256, Note_on_c, 7, 56, 127
9, 44256, Note_on_c, 7, 52, 127
9, 44256, Note_on_c, 7, 59, 127
9, 44304, Note_on_c, 7, 59, 0
9, 44304, Note_on_c, 7, 52, 0
9, 44304, Note_on_c, 7, 56, 0
9, 44304, Note_on_c, 7, 47, 87
9, 44304, Note_on_c, 7, 40, 87
9, 44352, Note_on_c, 7, 40, 0
9, 44352, Note_on_c, 7, 47, 0
9, 44352, Note_on_c, 7, 47, 127
9, 44352, Note_on_c, 7, 40, 127
9, 44400, Note_on_c, 7, 40, 0
9, 44400, Note_on_c, 7, 47, 0
9, 44400, Note_on_c, 7, 52, 127
9, 44400, Note_on_c, 7, 56, 127
9, 44400, Note_on_c, 7, 59, 127
9, 44448, Note_on_c, 7, 59, 0
9, 44448, Note_on_c, 7, 56, 0
9, 44448, Note_on_c, 7, 52, 0
9, 44496, Note_on_c, 7, 40, 125
9, 44496, Note_on_c, 7, 47, 125
9, 44544, Note_on_c, 7, 47, 0
9, 44544, Note_on_c, 7, 40, 0
9, 44592, Note_on_c, 7, 40, 127
9, 44592, Note_on_c, 7, 47, 127
9, 44640, Note_on_c, 7, 47, 0
9, 44640, Note_on_c, 7, 40, 0
9, 44640, Note_on_c, 7, 52, 127
9, 44640, Note_on_c, 7, 59, 127
9, 44640, Note_on_c, 7, 56, 127
9, 44688, Note_on_c, 7, 56, 0
9, 44688, Note_on_c, 7, 59, 0
9, 44688, Note_on_c, 7, 52, 0
9, 44688, Note_on_c, 7, 47, 85
9, 44688, Note_on_c, 7, 40, 85
9, 44736, Note_on_c, 7, 40, 0
9, 44736, Note_on_c, 7, 47, 0
9, 44736, Note_on_c, 7, 40, 127
9, 44736, Note_on_c, 7, 47, 127
9, 44784, Note_on_c, 7, 47, 0
9, 44784, Note_on_c, 7, 40, 0
9, 44784, Note_on_c, 7, 59, 127
9, 44784, Note_on_c, 7, 56, 127
9, 44784, Note_on_c, 7, 52, 127
9, 44832, Note_on_c, 7, 52, 0
9, 44832, Note_on_c, 7, 56, 0
9, 44832, Note_on_c, 7, 59, 0
9, 44880, Note_on_c, 7, 40, 127
9, 44880, Note_on_c, 7, 47, 127
9, 44928, Note_on_c, 7, 47, 0
9, 44928, Note_on_c, 7, 40, 0
9, 44928, Note_on_c, 7, 40, 127
9, 44928, Note_on_c, 7, 47, 127
9, 44976, Note_on_c, 7, 47, 0
9, 44976, Note_on_c, 7, 40, 0
9, 45024, Note_on_c, 7, 56, 127
9, 45024, Note_on_c, 7, 52, 127
9, 45024, Note_on_c, 7, 59, 127
9, 45072, Note_on_c, 7, 59, 0
9, 45072, Note_on_c, 7, 52, 0
9, 45072, Note_on_c, 7, 56, 0
9, 45072, Note_on_c, 7, 47, 87
9, 45072, Note_on_c, 7, 40, 87
9, 45120, Note_on_c, 7, 40, 0
9, 45120, Note_on_c, 7, 47, 0
9, 45120, Note_on_c, 7, 47, 127
9, 45120, Note_on_c, 7, 40, 127
9, 45168, Note_on_c, 7, 40, 0
9, 45168, Note_on_c, 7, 47, 0
9, 45168, Note_on_c, 7, 52, 127
9, 45168, Note_on_c, 7, 56, 127
9, 45168, Note_on_c, 7, 59, 127
9, 45216, Note_on_c, 7, 59, 0
9, 45216, Note_on_c, 7, 56, 0
9, 45216, Note_on_c, 7, 52, 0
9, 45264, Note_on_c, 7, 40, 125
9, 45264, Note_on_c, 7, 47, 125
9, 45312, Note_on_c, 7, 47, 0
9, 45312, Note_on_c, 7, 40, 0
9, 45360, Note_on_c, 7, 40, 127
9, 45360, Note_on_c, 7, 47, 127
9, 45408, Note_on_c, 7, 47, 0
9, 45408, Note_on_c, 7, 40, 0
9, 45408, Note_on_c, 7, 52, 127
9, 45408, Note_on_c, 7, 59, 127
9, 45408, Note_on_c, 7, 56, 127
9, 45456, Note_on_c, 7, 56, 0
9, 45456, Note_on_c, 7, 59, 0
9, 45456, Note_on_c, 7, 52, 0
9, 45456, Note_on_c, 7, 47, 85
9, 45456, Note_on_c, 7, 40, 85
9, 45504, Note_on_c, 7, 40, 0
9, 45504, Note_on_c, 7, 47, 0
9, 45504, Note_on_c, 7, 40, 127
9, 45504, Note_on_c, 7, 47, 127
9, 45552, Note_on_c, 7, 47, 0
9, 45552, Note_on_c, 7, 40, 0
9, 45552, Note_on_c, 7, 59, 127
9, 45552, Note_on_c, 7, 56, 127
9, 45552, Note_on_c, 7, 52, 127
9, 45600, Note_on_c, 7, 52, 0
9, 45600, Note_on_c, 7, 56, 0
9, 45600, Note_on_c, 7, 59, 0
9, 45648, Note_on_c, 7, 40, 127
9, 45648, Note_on_c, 7, 47, 127
9, 45696, Note_on_c, 7, 47, 0
9, 45696, Note_on_c, 7, 40, 0
9, 45696, Note_on_c, 7, 40, 127
9, 45696, Note_on_c, 7, 47, 127
9, 45744, Note_on_c, 7, 47, 0
9, 45744, Note_on_c, 7, 40, 0
9, 45792, Note_on_c, 7, 56, 127
9, 45792, Note_on_c, 7, 52, 127
9, 45792, Note_on_c, 7, 59, 127
9, 45840, Note_on_c, 7, 59, 0
9, 45840, Note_on_c, 7, 52, 0
9, 45840, Note_on_c, 7, 56, 0
9, 45840, Note_on_c, 7, 47, 87
9, 45840, Note_on_c, 7, 40, 87
9, 45888, Note_on_c, 7, 40, 0
9, 45888, Note_on_c, 7, 47, 0
9, 45888, Note_on_c, 7, 47, 127
9, 45888, Note_on_c, 7, 40, 127
9, 45936, Note_on_c, 7, 40, 0
9, 45936, Note_on_c, 7, 47, 0
9, 45936, Note_on_c, 7, 52, 127
9, 45936, Note_on_c, 7, 56, 127
9, 45936, Note_on_c, 7, 59, 127
9, 45984, Note_on_c, 7, 59, 0
9, 45984, Note_on_c, 7, 56, 0
9, 45984, Note_on_c, 7, 52, 0
9, 46032, Note_on_c, 7, 40, 125
9, 46032, Note_on_c, 7, 47, 125
9, 46080, Note_on_c, 7, 47, 0
9, 46080, Note_on_c, 7, 40, 0
9, 46128, Note_on_c, 7, 40, 127
9, 46128, Note_on_c, 7, 47, 127
9, 46176, Note_on_c, 7, 47, 0
9, 46176, Note_on_c, 7, 40, 0
9, 46176, Note_on_c, 7, 52, 127
9, 46176, Note_on_c, 7, 59, 127
9, 46176, Note_on_c, 7, 56, 127
9, 46224, Note_on_c, 7, 56, 0
9, 46224, Note_on_c, 7, 59, 0
9, 46224, Note_on_c, 7, 52, 0
9, 46224, Note_on_c, 7, 47, 85
9, 46224, Note_on_c, 7, 40, 85
9, 46272, Note_on_c, 7, 40, 0
9, 46272, Note_on_c, 7, 47, 0
9, 46272, Note_on_c, 7, 40, 127
9, 46272, Note_on_c, 7, 47, 127
9, 46320, Note_on_c, 7, 47, 0
9, 46320, Note_on_c, 7, 40, 0
9, 46320, Note_on_c, 7, 59, 127
9, 46320, Note_on_c, 7, 56, 127
9, 46320, Note_on_c, 7, 52, 127
9, 46368, Note_on_c, 7, 52, 0
9, 46368, Note_on_c, 7, 56, 0
9, 46368, Note_on_c, 7, 59, 0
9, 46416, Note_on_c, 7, 40, 127
9, 46416, Note_on_c, 7, 47, 127
9, 46464, Note_on_c, 7, 47, 0
9, 46464, Note_on_c, 7, 40, 0
9, 46464, Note_on_c, 7, 40, 127
9, 46464, Note_on_c, 7, 47, 127
9, 46512, Note_on_c, 7, 47, 0
9, 46512, Note_on_c, 7, 40, 0
9, 46560, Note_on_c, 7, 56, 127
9, 46560, Note_on_c, 7, 52, 127
9, 46560, Note_on_c, 7, 59, 127
9, 46608, Note_on_c, 7, 59, 0
9, 46608, Note_on_c, 7, 52, 0
9, 46608, Note_on_c, 7, 56, 0
9, 46608, Note_on_c, 7, 47, 87
9, 46608, Note_on_c, 7, 40, 87
9, 46656, Note_on_c, 7, 40, 0
9, 46656, Note_on_c, 7, 47, 0
9, 46656, Note_on_c, 7, 47, 127
9, 46656, Note_on_c, 7, 40, 127
9, 46704, Note_on_c, 7, 40, 0
9, 46704, Note_on_c, 7, 47, 0
9, 46704, Note_on_c, 7, 52, 127
9, 46704, Note_on_c, 7, 56, 127
9, 46704, Note_on_c, 7, 59, 127
9, 46752, Note_on_c, 7, 59, 0
9, 46752, Note_on_c, 7, 56, 0
9, 46752, Note_on_c, 7, 52, 0
9, 46800, Note_on_c, 7, 40, 125
9, 46800, Note_on_c, 7, 47, 125
9, 46848, Note_on_c, 7, 47, 0
9, 46848, Note_on_c, 7, 40, 0
9, 46896, Note_on_c, 7, 40, 127
9, 46896, Note_on_c, 7, 47, 127
9, 46944, Note_on_c, 7, 47, 0
9, 46944, Note_on_c, 7, 40, 0
9, 46944, Note_on_c, 7, 52, 127
9, 46944, Note_on_c, 7, 59, 127
9, 46944, Note_on_c, 7, 56, 127
9, 46992, Note_on_c, 7, 56, 0
9, 46992, Note_on_c, 7, 59, 0
9, 46992, Note_on_c, 7, 52, 0
9, 46992, Note_on_c, 7, 47, 85
9, 46992, Note_on_c, 7, 40, 85
9, 47040, Note_on_c, 7, 40, 0
9, 47040, Note_on_c, 7, 47, 0
9, 47040, Note_on_c, 7, 40, 127
9, 47040, Note_on_c, 7, 47, 127
9, 47088, Note_on_c, 7, 47, 0
9, 47088, Note_on_c, 7, 40, 0
9, 47088, Note_on_c, 7, 59, 127
9, 47088, Note_on_c, 7, 56, 127
9, 47088, Note_on_c, 7, 52, 127
9, 47136, Note_on_c, 7, 52, 0
9, 47136, Note_on_c, 7, 56, 0
9, 47136, Note_on_c, 7, 59, 0
9, 47184, Note_on_c, 7, 40, 127
9, 47184, Note_on_c, 7, 47, 127
9, 47232, Note_on_c, 7, 47, 0
9, 47232, Note_on_c, 7, 40, 0
9, 47232, Note_on_c, 7, 40, 127
9, 47232, Note_on_c, 7, 47, 127
9, 47280, Note_on_c, 7, 47, 0
9, 47280, Note_on_c, 7, 40, 0
9, 47328, Note_on_c, 7, 56, 127
9, 47328, Note_on_c, 7, 52, 127
9, 47328, Note_on_c, 7, 59, 127
9, 47376, Note_on_c, 7, 59, 0
9, 47376, Note_on_c, 7, 52, 0
9, 47376, Note_on_c, 7, 56, 0
9, 47376, Note_on_c, 7, 47, 87
9, 47376, Note_on_c, 7, 40, 87
9, 47424, Note_on_c, 7, 40, 0
9, 47424, Note_on_c, 7, 47, 0
9, 47424, Note_on_c, 7, 47, 127
9, 47424, Note_on_c, 7, 40, 127
9, 47472, Note_on_c, 7, 40, 0
9, 47472, Note_on_c, 7, 47, 0
9, 47472, Note_on_c, 7, 52, 127
9, 47472, Note_on_c, 7, 56, 127
9, 47472, Note_on_c, 7, 59, 127
9, 47520, Note_on_c, 7, 59, 0
9, 47520, Note_on_c, 7, 56, 0
9, 47520, Note_on_c, 7, 52, 0
9, 47568, Note_on_c, 7, 40, 125
9, 47568, Note_on_c, 7, 47, 125
9, 47616, Note_on_c, 7, 47, 0
9, 47616, Note_on_c, 7, 40, 0
9, 47664, Note_on_c, 7, 40, 127
9, 47664, Note_on_c, 7, 47, 127
9, 47712, Note_on_c, 7, 47, 0
9, 47712, Note_on_c, 7, 40, 0
9, 47712, Note_on_c, 7, 52, 127
9, 47712, Note_on_c, 7, 59, 127
9, 47712, Note_on_c, 7, 56, 127
9, 47760, Note_on_c, 7, 56, 0
9, 47760, Note_on_c, 7, 59, 0
9, 47760, Note_on_c, 7, 52, 0
9, 47760, Note_on_c, 7, 47, 85
9, 47760, Note_on_c, 7, 40, 85
9, 47808, Note_on_c, 7, 40, 0
9, 47808, Note_on_c, 7, 47, 0
9, 47808, Note_on_c, 7, 40, 127
9, 47808, Note_on_c, 7, 47, 127
9, 47856, Note_on_c, 7, 47, 0
9, 47856, Note_on_c, 7, 40, 0
9, 47856, Note_on_c, 7, 59, 127
9, 47856, Note_on_c, 7, 56, 127
9, 47856, Note_on_c, 7, 52, 127
9, 47904, Note_on_c, 7, 52, 0
9, 47904, Note_on_c, 7, 56, 0
9, 47904, Note_on_c, 7, 59, 0
9, 47952, Note_on_c, 7, 40, 127
9, 47952, Note_on_c, 7, 47, 127
9, 48000, Note_on_c, 7, 47, 0
9, 48000, Note_on_c, 7, 40, 0
9, 48000, Note_on_c, 7, 40, 127
9, 48000, Note_on_c, 7, 47, 127
9, 48048, Note_on_c, 7, 47, 0
9, 48048, Note_on_c, 7, 40, 0
9, 48096, Note_on_c, 7, 56, 127
9, 48096, Note_on_c, 7, 52, 127
9, 48096, Note_on_c, 7, 59, 127
9, 48144, Note_on_c, 7, 59, 0
9, 48144, Note_on_c, 7, 52, 0
9, 48144, Note_on_c, 7, 56, 0
9, 48144, Note_on_c, 7, 47, 87
9, 48144, Note_on_c, 7, 40, 87
9, 48192, Note_on_c, 7, 40, 0
9, 48192, Note_on_c, 7, 47, 0
9, 48192, Note_on_c, 7, 47, 127
9, 48192, Note_on_c, 7, 40, 127
9, 48240, Note_on_c, 7, 40, 0
9, 48240, Note_on_c, 7, 47, 0
9, 48240, Note_on_c, 7, 52, 127
9, 48240, Note_on_c, 7, 56, 127
9, 48240, Note_on_c, 7, 59, 127
9, 48288, Note_on_c, 7, 59, 0
9, 48288, Note_on_c, 7, 56, 0
9, 48288, Note_on_c, 7, 52, 0
9, 48336, Note_on_c, 7, 40, 125
9, 48336, Note_on_c, 7, 47, 125
9, 48384, Note_on_c, 7, 47, 0
9, 48384, Note_on_c, 7, 40, 0
9, 48432, Note_on_c, 7, 40, 127
9, 48432, Note_on_c, 7, 47, 127
9, 48480, Note_on_c, 7, 47, 0
9, 48480, Note_on_c, 7, 40, 0
9, 48480, Note_on_c, 7, 52, 127
9, 48480, Note_on_c, 7, 59, 127
9, 48480, Note_on_c, 7, 56, 127
9, 48528, Note_on_c, 7, 56, 0
9, 48528, Note_on_c, 7, 59, 0
9, 48528, Note_on_c, 7, 52, 0
9, 48528, Note_on_c, 7, 47, 85
9, 48528, Note_on_c, 7, 40, 85
9, 48576, Note_on_c, 7, 40, 0
9, 48576, Note_on_c, 7, 47, 0
9, 48576, Note_on_c, 7, 40, 127
9, 48576, Note_on_c, 7, 47, 127
9, 48624, Note_on_c, 7, 47, 0
9, 48624, Note_on_c, 7, 40, 0
9, 48624, Note_on_c, 7, 59, 127
9, 48624, Note_on_c, 7, 56, 127
9, 48624, Note_on_c, 7, 52, 127
9, 48672, Note_on_c, 7, 52, 0
9, 48672, Note_on_c, 7, 56, 0
9, 48672, Note_on_c, 7, 59, 0
9, 48720, Note_on_c, 7, 40, 127
9, 48720, Note_on_c, 7, 47, 127
9, 48768, Note_on_c, 7, 47, 0
9, 48768, Note_on_c, 7, 40, 0
9, 48768, Note_on_c, 7, 40, 127
9, 48768, Note_on_c, 7, 47, 127
9, 48816, Note_on_c, 7, 47, 0
9, 48816, Note_on_c, 7, 40, 0
9, 48864, Note_on_c, 7, 56, 127
9, 48864, Note_on_c, 7, 52, 127
9, 48864, Note_on_c, 7, 59, 127
9, 48912, Note_on_c, 7, 59, 0
9, 48912, Note_on_c, 7, 52, 0
9, 48912, Note_on_c, 7, 56, 0
9, 48912, Note_on_c, 7, 47, 87
9, 48912, Note_on_c, 7, 40, 87
9, 48960, Note_on_c, 7, 40, 0
9, 48960, Note_on_c, 7, 47, 0
9, 48960, Note_on_c, 7, 47, 127
9, 48960, Note_on_c, 7, 40, 127
9, 49008, Note_on_c, 7, 40, 0
9, 49008, Note_on_c, 7, 47, 0
9, 49008, Note_on_c, 7, 52, 127
9, 49008, Note_on_c, 7, 56, 127
9, 49008, Note_on_c, 7, 59, 127
9, 49056, Note_on_c, 7, 59, 0
9, 49056, Note_on_c, 7, 56, 0
9, 49056, Note_on_c, 7, 52, 0
9, 49104, Note_on_c, 7, 40, 125
9, 49104, Note_on_c, 7, 47, 125
9, 49152, Note_on_c, 7, 47, 0
9, 49152, Note_on_c, 7, 40, 0
9, 49200, Note_on_c, 7, 40, 127
9, 49200, Note_on_c, 7, 47, 127
9, 49248, Note_on_c, 7, 47, 0
9, 49248, Note_on_c, 7, 40, 0
9, 49248, Note_on_c, 7, 52, 127
9, 49248, Note_on_c, 7, 59, 127
9, 49248, Note_on_c, 7, 56, 127
9, 49296, Note_on_c, 7, 56, 0
9, 49296, Note_on_c, 7, 59, 0
9, 49296, Note_on_c, 7, 52, 0
9, 49296, Note_on_c, 7, 59, 85
9, 49296, Note_on_c, 7, 56, 85
9, 49296, Note_on_c, 7, 52, 85
9, 49296, Note_on_c, 7, 47, 85
9, 49296, Note_on_c, 7, 40, 85
9, 49896, Note_on_c, 7, 40, 0
9, 49896, Note_on_c, 7, 52, 0
9, 49896, Note_on_c, 7, 59, 0
9, 49896, Note_on_c, 7, 56, 0
9, 49896, Note_on_c, 7, 47, 0
9, 49896, End_track
10, 0, Start_track
10, 0, MIDI_port, 0
10, 0, Title_t, "Dist Lead Gtr"
10, 0, Program_c, 8, 30
10, 0, Control_c, 8, 7, 40
10, 0, Control_c, 8, 10, 84
10, 1, Program_c, 8, 30
10, 2, Control_c, 8, 91, 30
10, 2, Control_c, 8, 7, 40
10, 3, Control_c, 8, 11, 120
10, 4, Control_c, 8, 1, 20
10, 6, Control_c, 8, 10, 70
10, 764, Pitch_bend_c, 8, 8064
10, 767, Note_on_c, 8, 45, 120
10, 767, Note_on_c, 8, 50, 120
10, 768, Pitch_bend_c, 8, 8320
10, 804, Pitch_bend_c, 8, 7936
10, 807, Pitch_bend_c, 8, 7808
10, 811, Pitch_bend_c, 8, 7552
10, 812, Pitch_bend_c, 8, 7296
10, 815, Pitch_bend_c, 8, 7168
10, 816, Pitch_bend_c, 8, 7296
10, 819, Pitch_bend_c, 8, 8192
10, 820, Pitch_bend_c, 8, 10240
10, 823, Pitch_bend_c, 8, 11008
10, 824, Pitch_bend_c, 8, 12032
10, 827, Pitch_bend_c, 8, 12672
10, 828, Pitch_bend_c, 8, 13952
10, 831, Pitch_bend_c, 8, 15104
10, 832, Pitch_bend_c, 8, 16383
10, 863, Note_on_c, 8, 50, 0
10, 863, Note_on_c, 8, 45, 0
10, 863, Note_on_c, 8, 52, 120
10, 863, Pitch_bend_c, 8, 8320
10, 863, Note_on_c, 8, 47, 120
10, 1439, Note_on_c, 8, 47, 0
10, 1439, Note_on_c, 8, 52, 0
10, 1535, Note_on_c, 8, 45, 120
10, 1535, Note_on_c, 8, 50, 120
10, 1536, Pitch_bend_c, 8, 8320
10, 1572, Pitch_bend_c, 8, 7936
10, 1575, Pitch_bend_c, 8, 7808
10, 1579, Pitch_bend_c, 8, 7552
10, 1580, Pitch_bend_c, 8, 7296
10, 1583, Pitch_bend_c, 8, 7168
10, 1584, Pitch_bend_c, 8, 7296
10, 1587, Pitch_bend_c, 8, 8192
10, 1588, Pitch_bend_c, 8, 10240
10, 1591, Pitch_bend_c, 8, 11008
10, 1592, Pitch_bend_c, 8, 12032
10, 1595, Pitch_bend_c, 8, 12672
10, 1596, Pitch_bend_c, 8, 13952
10, 1599, Pitch_bend_c, 8, 15104
10, 1600, Pitch_bend_c, 8, 16383
10, 1631, Note_on_c, 8, 50, 0
10, 1631, Note_on_c, 8, 45, 0
10, 1631, Note_on_c, 8, 52, 120
10, 1631, Pitch_bend_c, 8, 8320
10, 1631, Note_on_c, 8, 47, 120
10, 2207, Note_on_c, 8, 47, 0
10, 2207, Note_on_c, 8, 52, 0
10, 2303, Note_on_c, 8, 45, 120
10, 2303, Note_on_c, 8, 50, 120
10, 2304, Pitch_bend_c, 8, 8320
10, 2340, Pitch_bend_c, 8, 7936
10, 2343, Pitch_bend_c, 8, 7808
10, 2347, Pitch_bend_c, 8, 7552
10, 2348, Pitch_bend_c, 8, 7296
10, 2351, Pitch_bend_c, 8, 7168
10, 2352, Pitch_bend_c, 8, 7296
10, 2355, Pitch_bend_c, 8, 8192
10, 2356, Pitch_bend_c, 8, 10240
10, 2359, Pitch_bend_c, 8, 11008
10, 2360, Pitch_bend_c, 8, 12032
10, 2363, Pitch_bend_c, 8, 12672
10, 2364, Pitch_bend_c, 8, 13952
10, 2367, Pitch_bend_c, 8, 15104
10, 2368, Pitch_bend_c, 8, 16383
10, 2399, Note_on_c, 8, 50, 0
10, 2399, Note_on_c, 8, 45, 0
10, 2399, Note_on_c, 8, 52, 120
10, 2399, Pitch_bend_c, 8, 8320
10, 2399, Note_on_c, 8, 47, 120
10, 2975, Note_on_c, 8, 47, 0
10, 2975, Note_on_c, 8, 52, 0
10, 4031, Note_on_c, 8, 40, 127
10, 4079, Note_on_c, 8, 52, 127
10, 4127, Note_on_c, 8, 40, 0
10, 4127, Pitch_bend_c, 8, 8192
10, 4127, Note_on_c, 8, 59, 127
10, 4128, Pitch_bend_c, 8, 8320
10, 4175, Pitch_bend_c, 8, 8192
10, 4175, Note_on_c, 8, 56, 127
10, 4223, Note_on_c, 8, 57, 109
10, 4244, Pitch_bend_c, 8, 8192
10, 4247, Note_on_c, 8, 56, 0
10, 4304, Pitch_bend_c, 8, 8192
10, 4319, Note_on_c, 8, 59, 0
10, 4499, Pitch_bend_c, 8, 8448
10, 4500, Pitch_bend_c, 8, 8192
10, 4655, Note_on_c, 8, 52, 0
10, 4991, Note_on_c, 8, 57, 0
10, 6335, Note_on_c, 8, 40, 120
10, 6383, Note_on_c, 8, 52, 120
10, 6431, Note_on_c, 8, 40, 0
10, 6431, Pitch_bend_c, 8, 8192
10, 6431, Note_on_c, 8, 59, 120
10, 6432, Pitch_bend_c, 8, 8320
10, 6479, Pitch_bend_c, 8, 8192
10, 6479, Note_on_c, 8, 56, 120
10, 6527, Note_on_c, 8, 57, 120
10, 6548, Pitch_bend_c, 8, 8192
10, 6551, Note_on_c, 8, 56, 0
10, 6551, Note_on_c, 8, 59, 0
10, 6608, Pitch_bend_c, 8, 8192
10, 6803, Pitch_bend_c, 8, 8448
10, 6804, Pitch_bend_c, 8, 8192
10, 6815, Note_on_c, 8, 52, 0
10, 7295, Note_on_c, 8, 57, 0
10, 7871, Note_on_c, 8, 54, 120
10, 7919, Note_on_c, 8, 59, 120
10, 7967, Note_on_c, 8, 64, 120
10, 8015, Note_on_c, 8, 61, 120
10, 8063, Note_on_c, 8, 54, 0
10, 8063, Note_on_c, 8, 63, 112
10, 8087, Note_on_c, 8, 61, 0
10, 8087, Note_on_c, 8, 64, 0
10, 8303, Note_on_c, 8, 59, 0
10, 8447, Note_on_c, 8, 63, 0
10, 9599, Note_on_c, 8, 45, 100
10, 9647, Note_on_c, 8, 57, 120
10, 9695, Note_on_c, 8, 45, 0
10, 9695, Note_on_c, 8, 64, 120
10, 9743, Note_on_c, 8, 59, 120
10, 9791, Note_on_c, 8, 59, 0
10, 9791, Note_on_c, 8, 61, 120
10, 9887, Note_on_c, 8, 64, 0
10, 9935, Note_on_c, 8, 57, 0
10, 9983, Note_on_c, 8, 61, 0
10, 9983, Note_on_c, 8, 54, 67
10, 9983, Note_on_c, 8, 47, 67
10, 10031, Note_on_c, 8, 47, 0
10, 10031, Note_on_c, 8, 54, 0
10, 10031, Note_on_c, 8, 47, 69
10, 10031, Note_on_c, 8, 54, 69
10, 10079, Note_on_c, 8, 54, 0
10, 10079, Note_on_c, 8, 47, 0
10, 10079, Note_on_c, 8, 54, 71
10, 10079, Note_on_c, 8, 47, 71
10, 10127, Note_on_c, 8, 47, 0
10, 10127, Note_on_c, 8, 54, 0
10, 10127, Note_on_c, 8, 47, 75
10, 10127, Note_on_c, 8, 54, 75
10, 10175, Note_on_c, 8, 54, 0
10, 10175, Note_on_c, 8, 47, 0
10, 10175, Note_on_c, 8, 47, 80
10, 10175, Note_on_c, 8, 54, 80
10, 10223, Note_on_c, 8, 54, 0
10, 10223, Note_on_c, 8, 47, 0
10, 10223, Note_on_c, 8, 54, 83
10, 10223, Note_on_c, 8, 47, 83
10, 10271, Note_on_c, 8, 47, 0
10, 10271, Note_on_c, 8, 54, 0
10, 10271, Note_on_c, 8, 47, 92
10, 10271, Note_on_c, 8, 54, 92
10, 10319, Note_on_c, 8, 54, 0
10, 10319, Note_on_c, 8, 47, 0
10, 10319, Note_on_c, 8, 54, 96
10, 10319, Note_on_c, 8, 47, 96
10, 10367, Note_on_c, 8, 47, 0
10, 10367, Note_on_c, 8, 54, 0
10, 10367, Note_on_c, 8, 47, 102
10, 10367, Note_on_c, 8, 54, 102
10, 10415, Note_on_c, 8, 54, 0
10, 10415, Note_on_c, 8, 47, 0
10, 10655, Pitch_bend_c, 8, 8192
10, 10655, Note_on_c, 8, 43, 100
10, 10656, Pitch_bend_c, 8, 7808
10, 10659, Pitch_bend_c, 8, 7552
10, 10660, Pitch_bend_c, 8, 7424
10, 10663, Pitch_bend_c, 8, 7296
10, 10664, Pitch_bend_c, 8, 7040
10, 10667, Pitch_bend_c, 8, 6912
10, 10671, Pitch_bend_c, 8, 6656
10, 10675, Pitch_bend_c, 8, 6528
10, 10676, Pitch_bend_c, 8, 6272
10, 10680, Pitch_bend_c, 8, 6144
10, 10684, Pitch_bend_c, 8, 6016
10, 10687, Pitch_bend_c, 8, 5760
10, 10691, Pitch_bend_c, 8, 5632
10, 10692, Pitch_bend_c, 8, 5504
10, 10695, Pitch_bend_c, 8, 5248
10, 10699, Pitch_bend_c, 8, 5120
10, 10700, Pitch_bend_c, 8, 4864
10, 10704, Pitch_bend_c, 8, 4608
10, 10707, Pitch_bend_c, 8, 4480
10, 10708, Pitch_bend_c, 8, 4224
10, 10711, Pitch_bend_c, 8, 4096
10, 10712, Pitch_bend_c, 8, 3840
10, 10715, Pitch_bend_c, 8, 3712
10, 10716, Pitch_bend_c, 8, 3328
10, 10719, Pitch_bend_c, 8, 3200
10, 10720, Pitch_bend_c, 8, 2944
10, 10723, Pitch_bend_c, 8, 2688
10, 10724, Pitch_bend_c, 8, 2432
10, 10727, Pitch_bend_c, 8, 2176
10, 10728, Pitch_bend_c, 8, 1920
10, 10731, Pitch_bend_c, 8, 1664
10, 10732, Pitch_bend_c, 8, 1408
10, 10735, Pitch_bend_c, 8, 1024
10, 10739, Pitch_bend_c, 8, 640
10, 10740, Pitch_bend_c, 8, 384
10, 10743, Pitch_bend_c, 8, 128
10, 10748, Pitch_bend_c, 8, 8320
10, 10751, Note_on_c, 8, 43, 0
10, 10943, Note_on_c, 8, 40, 127
10, 10991, Note_on_c, 8, 52, 127
10, 11039, Note_on_c, 8, 40, 0
10, 11039, Pitch_bend_c, 8, 8192
10, 11039, Note_on_c, 8, 59, 127
10, 11040, Pitch_bend_c, 8, 8320
10, 11087, Pitch_bend_c, 8, 8192
10, 11087, Note_on_c, 8, 56, 127
10, 11135, Note_on_c, 8, 57, 109
10, 11156, Pitch_bend_c, 8, 8192
10, 11159, Note_on_c, 8, 56, 0
10, 11216, Pitch_bend_c, 8, 8192
10, 11231, Note_on_c, 8, 59, 0
10, 11411, Pitch_bend_c, 8, 8448
10, 11412, Pitch_bend_c, 8, 8192
10, 11567, Note_on_c, 8, 52, 0
10, 11903, Note_on_c, 8, 57, 0
10, 12863, Note_on_c, 8, 40, 120
10, 12911, Note_on_c, 8, 52, 120
10, 12959, Note_on_c, 8, 40, 0
10, 12959, Pitch_bend_c, 8, 8192
10, 12959, Note_on_c, 8, 59, 120
10, 12960, Pitch_bend_c, 8, 8320
10, 13007, Pitch_bend_c, 8, 8192
10, 13007, Note_on_c, 8, 56, 120
10, 13055, Note_on_c, 8, 57, 120
10, 13076, Pitch_bend_c, 8, 8192
10, 13079, Note_on_c, 8, 56, 0
10, 13103, Note_on_c, 8, 59, 0
10, 13136, Pitch_bend_c, 8, 8192
10, 13331, Pitch_bend_c, 8, 8448
10, 13332, Pitch_bend_c, 8, 8192
10, 13439, Note_on_c, 8, 52, 0
10, 13823, Note_on_c, 8, 57, 0
10, 14399, Note_on_c, 8, 54, 120
10, 14447, Note_on_c, 8, 59, 120
10, 14495, Note_on_c, 8, 64, 120
10, 14543, Note_on_c, 8, 61, 120
10, 14591, Note_on_c, 8, 54, 0
10, 14591, Note_on_c, 8, 63, 112
10, 14615, Note_on_c, 8, 61, 0
10, 14615, Note_on_c, 8, 64, 0
10, 14831, Note_on_c, 8, 59, 0
10, 14975, Note_on_c, 8, 63, 0
10, 16127, Note_on_c, 8, 45, 100
10, 16175, Note_on_c, 8, 57, 120
10, 16223, Note_on_c, 8, 45, 0
10, 16223, Note_on_c, 8, 64, 120
10, 16271, Note_on_c, 8, 59, 120
10, 16319, Note_on_c, 8, 59, 0
10, 16319, Note_on_c, 8, 61, 120
10, 16415, Note_on_c, 8, 64, 0
10, 16463, Note_on_c, 8, 57, 0
10, 16511, Note_on_c, 8, 61, 0
10, 16511, Note_on_c, 8, 54, 67
10, 16511, Note_on_c, 8, 47, 67
10, 16559, Note_on_c, 8, 47, 0
10, 16559, Note_on_c, 8, 54, 0
10, 16559, Note_on_c, 8, 47, 69
10, 16559, Note_on_c, 8, 54, 69
10, 16607, Note_on_c, 8, 54, 0
10, 16607, Note_on_c, 8, 47, 0
10, 16607, Note_on_c, 8, 54, 71
10, 16607, Note_on_c, 8, 47, 71
10, 16655, Note_on_c, 8, 47, 0
10, 16655, Note_on_c, 8, 54, 0
10, 16655, Note_on_c, 8, 47, 75
10, 16655, Note_on_c, 8, 54, 75
10, 16703, Note_on_c, 8, 54, 0
10, 16703, Note_on_c, 8, 47, 0
10, 16703, Note_on_c, 8, 47, 80
10, 16703, Note_on_c, 8, 54, 80
10, 16751, Note_on_c, 8, 54, 0
10, 16751, Note_on_c, 8, 47, 0
10, 16751, Note_on_c, 8, 54, 83
10, 16751, Note_on_c, 8, 47, 83
10, 16799, Note_on_c, 8, 47, 0
10, 16799, Note_on_c, 8, 54, 0
10, 16799, Note_on_c, 8, 47, 92
10, 16799, Note_on_c, 8, 54, 92
10, 16847, Note_on_c, 8, 54, 0
10, 16847, Note_on_c, 8, 47, 0
10, 16847, Note_on_c, 8, 54, 96
10, 16847, Note_on_c, 8, 47, 96
10, 16895, Note_on_c, 8, 47, 0
10, 16895, Note_on_c, 8, 54, 0
10, 16895, Note_on_c, 8, 47, 102
10, 16895, Note_on_c, 8, 54, 102
10, 16943, Note_on_c, 8, 54, 0
10, 16943, Note_on_c, 8, 47, 0
10, 17183, Pitch_bend_c, 8, 8192
10, 17183, Note_on_c, 8, 43, 100
10, 17184, Pitch_bend_c, 8, 7808
10, 17187, Pitch_bend_c, 8, 7552
10, 17188, Pitch_bend_c, 8, 7424
10, 17191, Pitch_bend_c, 8, 7296
10, 17192, Pitch_bend_c, 8, 7040
10, 17195, Pitch_bend_c, 8, 6912
10, 17199, Pitch_bend_c, 8, 6656
10, 17203, Pitch_bend_c, 8, 6528
10, 17204, Pitch_bend_c, 8, 6272
10, 17208, Pitch_bend_c, 8, 6144
10, 17212, Pitch_bend_c, 8, 6016
10, 17215, Pitch_bend_c, 8, 5760
10, 17219, Pitch_bend_c, 8, 5632
10, 17220, Pitch_bend_c, 8, 5504
10, 17223, Pitch_bend_c, 8, 5248
10, 17227, Pitch_bend_c, 8, 5120
10, 17228, Pitch_bend_c, 8, 4864
10, 17232, Pitch_bend_c, 8, 4608
10, 17235, Pitch_bend_c, 8, 4480
10, 17236, Pitch_bend_c, 8, 4224
10, 17239, Pitch_bend_c, 8, 4096
10, 17240, Pitch_bend_c, 8, 3840
10, 17243, Pitch_bend_c, 8, 3712
10, 17244, Pitch_bend_c, 8, 3328
10, 17247, Pitch_bend_c, 8, 3200
10, 17248, Pitch_bend_c, 8, 2944
10, 17251, Pitch_bend_c, 8, 2688
10, 17252, Pitch_bend_c, 8, 2432
10, 17255, Pitch_bend_c, 8, 2176
10, 17256, Pitch_bend_c, 8, 1920
10, 17259, Pitch_bend_c, 8, 1664
10, 17260, Pitch_bend_c, 8, 1408
10, 17263, Pitch_bend_c, 8, 1024
10, 17267, Pitch_bend_c, 8, 640
10, 17268, Pitch_bend_c, 8, 384
10, 17271, Pitch_bend_c, 8, 128
10, 17276, Pitch_bend_c, 8, 8320
10, 17279, Note_on_c, 8, 43, 0
10, 17471, Note_on_c, 8, 40, 127
10, 17519, Note_on_c, 8, 52, 127
10, 17567, Note_on_c, 8, 40, 0
10, 17567, Pitch_bend_c, 8, 8192
10, 17567, Note_on_c, 8, 59, 127
10, 17568, Pitch_bend_c, 8, 8320
10, 17615, Pitch_bend_c, 8, 8192
10, 17615, Note_on_c, 8, 56, 127
10, 17659, Pitch_bend_c, 8, 8192
10, 17661, Pitch_bend_c, 8, 8192
10, 17663, Note_on_c, 8, 56, 0
10, 17663, Note_on_c, 8, 56, 127
10, 17679, Pitch_bend_c, 8, 8320
10, 17683, Pitch_bend_c, 8, 8192
10, 17687, Note_on_c, 8, 59, 0
10, 17697, Pitch_bend_c, 8, 8320
10, 17703, Pitch_bend_c, 8, 8448
10, 17705, Pitch_bend_c, 8, 8576
10, 17707, Pitch_bend_c, 8, 8832
10, 17707, Pitch_bend_c, 8, 8704
10, 17709, Pitch_bend_c, 8, 9088
10, 17711, Pitch_bend_c, 8, 10112
10, 17711, Pitch_bend_c, 8, 9344
10, 17713, Pitch_bend_c, 8, 10752
10, 17715, Pitch_bend_c, 8, 11392
10, 17715, Pitch_bend_c, 8, 11136
10, 17717, Pitch_bend_c, 8, 11904
10, 17719, Pitch_bend_c, 8, 12288
10, 17719, Pitch_bend_c, 8, 12160
10, 17723, Pitch_bend_c, 8, 12416
10, 17729, Pitch_bend_c, 8, 12288
10, 17759, Note_on_c, 8, 56, 0
10, 17759, Note_on_c, 8, 52, 0
10, 17759, Pitch_bend_c, 8, 8320
10, 17759, Note_on_c, 8, 59, 127
10, 17807, Note_on_c, 8, 52, 127
10, 17855, Note_on_c, 8, 52, 0
10, 17855, Note_on_c, 8, 59, 0
10, 17855, Note_on_c, 8, 57, 127
10, 17903, Note_on_c, 8, 57, 0
10, 17903, Note_on_c, 8, 56, 127
10, 17939, Pitch_bend_c, 8, 8448
10, 17940, Pitch_bend_c, 8, 8192
10, 18023, Note_on_c, 8, 56, 0
10, 19199, Pitch_bend_c, 8, 7936
10, 19199, Note_on_c, 8, 39, 127
10, 19201, Pitch_bend_c, 8, 7808
10, 19203, Pitch_bend_c, 8, 7680
10, 19205, Pitch_bend_c, 8, 7424
10, 19207, Pitch_bend_c, 8, 7168
10, 19211, Pitch_bend_c, 8, 6912
10, 19211, Pitch_bend_c, 8, 7040
10, 19213, Pitch_bend_c, 8, 6656
10, 19215, Pitch_bend_c, 8, 6016
10, 19215, Pitch_bend_c, 8, 6400
10, 19219, Pitch_bend_c, 8, 5888
10, 19223, Pitch_bend_c, 8, 6016
10, 19225, Pitch_bend_c, 8, 6144
10, 19227, Pitch_bend_c, 8, 6400
10, 19229, Pitch_bend_c, 8, 6656
10, 19231, Pitch_bend_c, 8, 7168
10, 19231, Pitch_bend_c, 8, 6912
10, 19233, Pitch_bend_c, 8, 7296
10, 19235, Pitch_bend_c, 8, 7936
10, 19235, Pitch_bend_c, 8, 7552
10, 19237, Pitch_bend_c, 8, 8192
10, 19239, Pitch_bend_c, 8, 8704
10, 19239, Pitch_bend_c, 8, 8320
10, 19241, Pitch_bend_c, 8, 9216
10, 19243, Pitch_bend_c, 8, 9856
10, 19243, Pitch_bend_c, 8, 9472
10, 19245, Pitch_bend_c, 8, 10368
10, 19247, Pitch_bend_c, 8, 11264
10, 19247, Pitch_bend_c, 8, 10880
10, 19249, Pitch_bend_c, 8, 11520
10, 19251, Pitch_bend_c, 8, 12032
10, 19251, Pitch_bend_c, 8, 11904
10, 19253, Pitch_bend_c, 8, 12288
10, 19255, Pitch_bend_c, 8, 12416
10, 19291, Pitch_bend_c, 8, 13184
10, 19295, Note_on_c, 8, 39, 0
10, 19295, Pitch_bend_c, 8, 8320
10, 19297, Note_on_c, 8, 40, 127
10, 19391, Note_on_c, 8, 40, 82
10, 19393, Note_on_c, 8, 40, 0
10, 19439, Note_on_c, 8, 40, 0
10, 19439, Note_on_c, 8, 40, 95
10, 19487, Note_on_c, 8, 40, 0
10, 19487, Note_on_c, 8, 40, 79
10, 19529, Note_on_c, 8, 40, 0
10, 19535, Note_on_c, 8, 40, 94
10, 19577, Note_on_c, 8, 40, 0
10, 22175, Note_on_c, 8, 52, 127
10, 22223, Note_on_c, 8, 52, 0
10, 22223, Note_on_c, 8, 52, 126
10, 22271, Note_on_c, 8, 52, 0
10, 22271, Note_on_c, 8, 54, 127
10, 22271, Note_on_c, 8, 59, 127
10, 22319, Note_on_c, 8, 59, 0
10, 22319, Note_on_c, 8, 56, 127
10, 22367, Note_on_c, 8, 56, 0
10, 22367, Note_on_c, 8, 54, 0
10, 22367, Note_on_c, 8, 64, 127
10, 22367, Note_on_c, 8, 59, 127
10, 22463, Note_on_c, 8, 59, 0
10, 22463, Note_on_c, 8, 64, 0
10, 22463, Note_on_c, 8, 59, 127
10, 22463, Note_on_c, 8, 64, 127
10, 22559, Note_on_c, 8, 64, 0
10, 22559, Note_on_c, 8, 59, 0
10, 22559, Note_on_c, 8, 59, 127
10, 22559, Note_on_c, 8, 64, 127
10, 22655, Note_on_c, 8, 64, 0
10, 22655, Note_on_c, 8, 59, 0
10, 22655, Note_on_c, 8, 64, 127
10, 22655, Note_on_c, 8, 61, 127
10, 22703, Note_on_c, 8, 61, 0
10, 22703, Note_on_c, 8, 59, 127
10, 22751, Note_on_c, 8, 59, 0
10, 22751, Note_on_c, 8, 64, 0
10, 22751, Note_on_c, 8, 59, 127
10, 22751, Note_on_c, 8, 56, 127
10, 22799, Note_on_c, 8, 56, 0
10, 22799, Note_on_c, 8, 59, 0
10, 22799, Note_on_c, 8, 59, 127
10, 22799, Note_on_c, 8, 64, 127
10, 22895, Note_on_c, 8, 64, 0
10, 22895, Note_on_c, 8, 59, 0
10, 22895, Note_on_c, 8, 59, 127
10, 22895, Note_on_c, 8, 64, 127
10, 22943, Note_on_c, 8, 64, 0
10, 22943, Note_on_c, 8, 59, 0
10, 22943, Note_on_c, 8, 64, 127
10, 22943, Note_on_c, 8, 61, 127
10, 22991, Note_on_c, 8, 61, 0
10, 22991, Note_on_c, 8, 64, 0
10, 22991, Note_on_c, 8, 64, 127
10, 22991, Note_on_c, 8, 59, 127
10, 23039, Note_on_c, 8, 59, 0
10, 23039, Note_on_c, 8, 64, 0
10, 23039, Note_on_c, 8, 47, 127
10, 23039, Note_on_c, 8, 40, 127
10, 23119, Note_on_c, 8, 40, 0
10, 23123, Note_on_c, 8, 47, 0
10, 23125, Note_on_c, 8, 40, 127
10, 23135, Note_on_c, 8, 47, 127
10, 23143, Note_on_c, 8, 52, 127
10, 23151, Note_on_c, 8, 56, 127
10, 23161, Note_on_c, 8, 59, 127
10, 23183, Note_on_c, 8, 64, 127
10, 23668, Note_on_c, 8, 56, 0
10, 23675, Note_on_c, 8, 47, 0
10, 23680, Note_on_c, 8, 59, 0
10, 23680, Note_on_c, 8, 52, 0
10, 23687, Note_on_c, 8, 40, 0
10, 23705, Note_on_c, 8, 64, 0
10, 23711, Note_on_c, 8, 52, 127
10, 23759, Note_on_c, 8, 52, 0
10, 23759, Note_on_c, 8, 52, 126
10, 23807, Note_on_c, 8, 52, 0
10, 23807, Note_on_c, 8, 54, 127
10, 23807, Note_on_c, 8, 59, 127
10, 23855, Note_on_c, 8, 59, 0
10, 23855, Note_on_c, 8, 56, 127
10, 23903, Note_on_c, 8, 56, 0
10, 23903, Note_on_c, 8, 54, 0
10, 23903, Note_on_c, 8, 64, 127
10, 23903, Note_on_c, 8, 59, 127
10, 23999, Note_on_c, 8, 59, 0
10, 23999, Note_on_c, 8, 64, 0
10, 23999, Note_on_c, 8, 59, 127
10, 23999, Note_on_c, 8, 64, 127
10, 24095, Note_on_c, 8, 64, 0
10, 24095, Note_on_c, 8, 59, 0
10, 24095, Note_on_c, 8, 59, 127
10, 24095, Note_on_c, 8, 64, 127
10, 24191, Note_on_c, 8, 64, 0
10, 24191, Note_on_c, 8, 59, 0
10, 24191, Note_on_c, 8, 64, 127
10, 24191, Note_on_c, 8, 61, 127
10, 24239, Note_on_c, 8, 61, 0
10, 24239, Note_on_c, 8, 59, 127
10, 24287, Note_on_c, 8, 59, 0
10, 24287, Note_on_c, 8, 64, 0
10, 24287, Note_on_c, 8, 59, 127
10, 24287, Note_on_c, 8, 56, 127
10, 24335, Note_on_c, 8, 56, 0
10, 24335, Note_on_c, 8, 59, 0
10, 24335, Note_on_c, 8, 59, 127
10, 24335, Note_on_c, 8, 64, 127
10, 24431, Note_on_c, 8, 64, 0
10, 24431, Note_on_c, 8, 59, 0
10, 24431, Note_on_c, 8, 59, 127
10, 24431, Note_on_c, 8, 64, 127
10, 24479, Note_on_c, 8, 64, 0
10, 24479, Note_on_c, 8, 59, 0
10, 24479, Note_on_c, 8, 64, 127
10, 24479, Note_on_c, 8, 61, 127
10, 24527, Note_on_c, 8, 61, 0
10, 24527, Note_on_c, 8, 64, 0
10, 24527, Note_on_c, 8, 64, 127
10, 24527, Note_on_c, 8, 59, 127
10, 24575, Note_on_c, 8, 59, 0
10, 24575, Note_on_c, 8, 64, 0
10, 24575, Note_on_c, 8, 47, 127
10, 24575, Note_on_c, 8, 54, 127
10, 24655, Note_on_c, 8, 54, 0
10, 24659, Note_on_c, 8, 47, 0
10, 24659, Note_on_c, 8, 47, 127
10, 24670, Note_on_c, 8, 54, 127
10, 24680, Note_on_c, 8, 59, 127
10, 24686, Note_on_c, 8, 66, 127
10, 24692, Note_on_c, 8, 63, 127
10, 24947, Note_on_c, 8, 54, 0
10, 24948, Note_on_c, 8, 47, 0
10, 24948, Note_on_c, 8, 59, 0
10, 25007, Note_on_c, 8, 59, 127
10, 25007, Note_on_c, 8, 54, 127
10, 25007, Note_on_c, 8, 47, 127
10, 25031, Note_on_c, 8, 47, 0
10, 25031, Note_on_c, 8, 59, 0
10, 25031, Note_on_c, 8, 54, 0
10, 25103, Note_on_c, 8, 59, 127
10, 25103, Note_on_c, 8, 54, 127
10, 25103, Note_on_c, 8, 47, 127
10, 25127, Note_on_c, 8, 47, 0
10, 25127, Note_on_c, 8, 59, 0
10, 25127, Note_on_c, 8, 54, 0
10, 25199, Note_on_c, 8, 47, 127
10, 25208, Note_on_c, 8, 66, 0
10, 25211, Note_on_c, 8, 63, 0
10, 25247, Note_on_c, 8, 47, 0
10, 25247, Note_on_c, 8, 52, 127
10, 25295, Note_on_c, 8, 52, 0
10, 25295, Note_on_c, 8, 52, 126
10, 25343, Note_on_c, 8, 52, 0
10, 25343, Note_on_c, 8, 54, 127
10, 25343, Note_on_c, 8, 59, 127
10, 25391, Note_on_c, 8, 59, 0
10, 25391, Note_on_c, 8, 56, 127
10, 25439, Note_on_c, 8, 56, 0
10, 25439, Note_on_c, 8, 54, 0
10, 25439, Note_on_c, 8, 64, 127
10, 25439, Note_on_c, 8, 59, 127
10, 25535, Note_on_c, 8, 59, 0
10, 25535, Note_on_c, 8, 64, 0
10, 25535, Note_on_c, 8, 59, 127
10, 25535, Note_on_c, 8, 64, 127
10, 25631, Note_on_c, 8, 64, 0
10, 25631, Note_on_c, 8, 59, 0
10, 25631, Note_on_c, 8, 59, 127
10, 25631, Note_on_c, 8, 64, 127
10, 25727, Note_on_c, 8, 64, 0
10, 25727, Note_on_c, 8, 59, 0
10, 25727, Note_on_c, 8, 64, 127
10, 25727, Note_on_c, 8, 61, 127
10, 25775, Note_on_c, 8, 61, 0
10, 25775, Note_on_c, 8, 59, 127
10, 25823, Note_on_c, 8, 59, 0
10, 25823, Note_on_c, 8, 64, 0
10, 25823, Note_on_c, 8, 59, 127
10, 25823, Note_on_c, 8, 56, 127
10, 25871, Note_on_c, 8, 56, 0
10, 25871, Note_on_c, 8, 59, 0
10, 25871, Note_on_c, 8, 59, 127
10, 25871, Note_on_c, 8, 64, 127
10, 25967, Note_on_c, 8, 64, 0
10, 25967, Note_on_c, 8, 59, 0
10, 25967, Note_on_c, 8, 59, 127
10, 25967, Note_on_c, 8, 64, 127
10, 26015, Note_on_c, 8, 64, 0
10, 26015, Note_on_c, 8, 59, 0
10, 26015, Note_on_c, 8, 64, 127
10, 26015, Note_on_c, 8, 61, 127
10, 26063, Note_on_c, 8, 61, 0
10, 26063, Note_on_c, 8, 64, 0
10, 26063, Note_on_c, 8, 64, 127
10, 26063, Note_on_c, 8, 59, 127
10, 26111, Note_on_c, 8, 59, 0
10, 26111, Note_on_c, 8, 64, 0
10, 26111, Note_on_c, 8, 47, 126
10, 26159, Note_on_c, 8, 49, 127
10, 26160, Note_on_c, 8, 47, 0
10, 26207, Note_on_c, 8, 57, 127
10, 26207, Note_on_c, 8, 52, 127
10, 26208, Note_on_c, 8, 49, 0
10, 26303, Note_on_c, 8, 52, 0
10, 26303, Note_on_c, 8, 57, 0
10, 26303, Note_on_c, 8, 57, 127
10, 26303, Note_on_c, 8, 52, 127
10, 26399, Note_on_c, 8, 52, 0
10, 26399, Note_on_c, 8, 57, 0
10, 26399, Note_on_c, 8, 57, 127
10, 26399, Note_on_c, 8, 52, 127
10, 26495, Note_on_c, 8, 52, 0
10, 26495, Note_on_c, 8, 57, 0
10, 26495, Note_on_c, 8, 54, 127
10, 26495, Note_on_c, 8, 57, 127
10, 26543, Note_on_c, 8, 54, 0
10, 26543, Note_on_c, 8, 52, 127
10, 26591, Note_on_c, 8, 52, 0
10, 26591, Note_on_c, 8, 57, 0
10, 26591, Note_on_c, 8, 52, 127
10, 26591, Note_on_c, 8, 49, 127
10, 26639, Note_on_c, 8, 49, 0
10, 26639, Note_on_c, 8, 52, 0
10, 26639, Note_on_c, 8, 52, 127
10, 26639, Note_on_c, 8, 57, 127
10, 26711, Note_on_c, 8, 57, 0
10, 26711, Note_on_c, 8, 52, 0
10, 26735, Note_on_c, 8, 52, 127
10, 26735, Note_on_c, 8, 57, 127
10, 26783, Note_on_c, 8, 57, 0
10, 26783, Note_on_c, 8, 52, 0
10, 26783, Note_on_c, 8, 57, 127
10, 26783, Note_on_c, 8, 54, 127
10, 26831, Note_on_c, 8, 54, 0
10, 26831, Note_on_c, 8, 57, 0
10, 26831, Note_on_c, 8, 52, 127
10, 26831, Note_on_c, 8, 57, 127
10, 26876, Pitch_bend_c, 8, 8192
10, 26879, Note_on_c, 8, 57, 0
10, 26879, Note_on_c, 8, 52, 0
10, 26879, Pitch_bend_c, 8, 8064
10, 26879, Note_on_c, 8, 46, 127
10, 26880, Pitch_bend_c, 8, 7808
10, 26883, Pitch_bend_c, 8, 7680
10, 26884, Pitch_bend_c, 8, 7552
10, 26887, Pitch_bend_c, 8, 7424
10, 26888, Pitch_bend_c, 8, 7296
10, 26891, Pitch_bend_c, 8, 7168
10, 26915, Pitch_bend_c, 8, 7424
10, 26919, Pitch_bend_c, 8, 7552
10, 26920, Pitch_bend_c, 8, 7680
10, 26923, Pitch_bend_c, 8, 8064
10, 26924, Pitch_bend_c, 8, 8448
10, 26927, Pitch_bend_c, 8, 9984
10, 26928, Pitch_bend_c, 8, 11008
10, 26931, Pitch_bend_c, 8, 11392
10, 26932, Pitch_bend_c, 8, 11648
10, 26935, Pitch_bend_c, 8, 12032
10, 26936, Pitch_bend_c, 8, 12288
10, 26943, Pitch_bend_c, 8, 12416
10, 26972, Pitch_bend_c, 8, 8320
10, 26975, Note_on_c, 8, 46, 0
10, 26975, Note_on_c, 8, 47, 127
10, 26976, Pitch_bend_c, 8, 8192
10, 27023, Note_on_c, 8, 47, 0
10, 27023, Note_on_c, 8, 47, 127
10, 27071, Note_on_c, 8, 47, 0
10, 27071, Pitch_bend_c, 8, 8064
10, 27071, Note_on_c, 8, 46, 127
10, 27072, Pitch_bend_c, 8, 7808
10, 27075, Pitch_bend_c, 8, 7680
10, 27076, Pitch_bend_c, 8, 7552
10, 27079, Pitch_bend_c, 8, 7424
10, 27080, Pitch_bend_c, 8, 7296
10, 27083, Pitch_bend_c, 8, 7168
10, 27107, Pitch_bend_c, 8, 7424
10, 27111, Pitch_bend_c, 8, 7552
10, 27112, Pitch_bend_c, 8, 7680
10, 27115, Pitch_bend_c, 8, 8064
10, 27116, Pitch_bend_c, 8, 8448
10, 27119, Pitch_bend_c, 8, 9984
10, 27120, Pitch_bend_c, 8, 11008
10, 27123, Pitch_bend_c, 8, 11392
10, 27124, Pitch_bend_c, 8, 11648
10, 27127, Pitch_bend_c, 8, 12032
10, 27128, Pitch_bend_c, 8, 12288
10, 27135, Pitch_bend_c, 8, 12416
10, 27164, Pitch_bend_c, 8, 8320
10, 27167, Note_on_c, 8, 46, 0
10, 27167, Note_on_c, 8, 47, 127
10, 27168, Pitch_bend_c, 8, 8192
10, 27215, Note_on_c, 8, 47, 0
10, 27215, Note_on_c, 8, 47, 127
10, 27263, Note_on_c, 8, 47, 0
10, 27263, Pitch_bend_c, 8, 8064
10, 27263, Note_on_c, 8, 46, 127
10, 27264, Pitch_bend_c, 8, 7808
10, 27267, Pitch_bend_c, 8, 7680
10, 27268, Pitch_bend_c, 8, 7552
10, 27271, Pitch_bend_c, 8, 7424
10, 27272, Pitch_bend_c, 8, 7296
10, 27275, Pitch_bend_c, 8, 7168
10, 27299, Pitch_bend_c, 8, 7424
10, 27303, Pitch_bend_c, 8, 7552
10, 27304, Pitch_bend_c, 8, 7680
10, 27307, Pitch_bend_c, 8, 8064
10, 27308, Pitch_bend_c, 8, 8448
10, 27311, Pitch_bend_c, 8, 9984
10, 27312, Pitch_bend_c, 8, 11008
10, 27315, Pitch_bend_c, 8, 11392
10, 27316, Pitch_bend_c, 8, 11648
10, 27319, Pitch_bend_c, 8, 12032
10, 27320, Pitch_bend_c, 8, 12288
10, 27327, Pitch_bend_c, 8, 12416
10, 27356, Pitch_bend_c, 8, 8320
10, 27359, Note_on_c, 8, 46, 0
10, 27359, Note_on_c, 8, 47, 127
10, 27360, Pitch_bend_c, 8, 8192
10, 27407, Note_on_c, 8, 47, 0
10, 27407, Note_on_c, 8, 47, 127
10, 27444, Pitch_bend_c, 8, 8320
10, 27455, Note_on_c, 8, 47, 0
10, 27455, Note_on_c, 8, 47, 127
10, 27456, Pitch_bend_c, 8, 8192
10, 27503, Note_on_c, 8, 47, 0
10, 27503, Note_on_c, 8, 45, 127
10, 27519, Pitch_bend_c, 8, 8064
10, 27551, Note_on_c, 8, 45, 0
10, 27551, Pitch_bend_c, 8, 8192
10, 27551, Note_on_c, 8, 43, 127
10, 27552, Pitch_bend_c, 8, 7936
10, 27556, Pitch_bend_c, 8, 7808
10, 27559, Pitch_bend_c, 8, 7680
10, 27560, Pitch_bend_c, 8, 7552
10, 27563, Pitch_bend_c, 8, 7424
10, 27564, Pitch_bend_c, 8, 7296
10, 27567, Pitch_bend_c, 8, 7040
10, 27568, Pitch_bend_c, 8, 6784
10, 27571, Pitch_bend_c, 8, 6528
10, 27572, Pitch_bend_c, 8, 6400
10, 27575, Pitch_bend_c, 8, 6144
10, 27576, Pitch_bend_c, 8, 5888
10, 27579, Pitch_bend_c, 8, 5760
10, 27580, Pitch_bend_c, 8, 5632
10, 27583, Pitch_bend_c, 8, 5376
10, 27584, Pitch_bend_c, 8, 5120
10, 27587, Pitch_bend_c, 8, 4992
10, 27588, Pitch_bend_c, 8, 4864
10, 27591, Pitch_bend_c, 8, 4480
10, 27592, Pitch_bend_c, 8, 4224
10, 27595, Pitch_bend_c, 8, 3968
10, 27596, Pitch_bend_c, 8, 3840
10, 27599, Pitch_bend_c, 8, 3712
10, 27600, Pitch_bend_c, 8, 3584
10, 27644, Pitch_bend_c, 8, 8192
10, 27647, Note_on_c, 8, 43, 0
10, 27647, Note_on_c, 8, 40, 127
10, 27719, Note_on_c, 8, 40, 0
10, 27732, Note_on_c, 8, 40, 127
10, 27740, Note_on_c, 8, 47, 127
10, 27752, Note_on_c, 8, 52, 127
10, 27761, Note_on_c, 8, 56, 127
10, 27771, Note_on_c, 8, 59, 127
10, 27777, Note_on_c, 8, 64, 127
10, 28368, Note_on_c, 8, 47, 0
10, 28371, Note_on_c, 8, 52, 0
10, 28371, Note_on_c, 8, 64, 0
10, 28375, Note_on_c, 8, 59, 0
10, 28377, Note_on_c, 8, 56, 0
10, 28392, Note_on_c, 8, 40, 0
10, 29468, Pitch_bend_c, 8, 8448
10, 29472, Pitch_bend_c, 8, 8192
10, 29476, Pitch_bend_c, 8, 8320
10, 29503, Pitch_bend_c, 8, 8448
10, 29511, Pitch_bend_c, 8, 8320
10, 29515, Pitch_bend_c, 8, 8448
10, 29519, Note_on_c, 8, 57, 127
10, 29520, Pitch_bend_c, 8, 8576
10, 29524, Pitch_bend_c, 8, 8704
10, 29528, Pitch_bend_c, 8, 8832
10, 29532, Pitch_bend_c, 8, 8960
10, 29536, Pitch_bend_c, 8, 9088
10, 29539, Pitch_bend_c, 8, 9216
10, 29540, Pitch_bend_c, 8, 9344
10, 29543, Pitch_bend_c, 8, 9472
10, 29544, Pitch_bend_c, 8, 9600
10, 29547, Pitch_bend_c, 8, 9856
10, 29548, Pitch_bend_c, 8, 10112
10, 29551, Pitch_bend_c, 8, 10368
10, 29552, Pitch_bend_c, 8, 10752
10, 29555, Pitch_bend_c, 8, 11392
10, 29556, Pitch_bend_c, 8, 12032
10, 29559, Pitch_bend_c, 8, 13056
10, 29560, Pitch_bend_c, 8, 14720
10, 29563, Pitch_bend_c, 8, 15616
10, 29564, Pitch_bend_c, 8, 16128
10, 29567, Pitch_bend_c, 8, 16256
10, 29568, Pitch_bend_c, 8, 16383
10, 29612, Pitch_bend_c, 8, 8448
10, 29615, Note_on_c, 8, 57, 0
10, 29615, Note_on_c, 8, 64, 127
10, 29615, Note_on_c, 8, 59, 127
10, 29627, Pitch_bend_c, 8, 8576
10, 29639, Note_on_c, 8, 59, 0
10, 29639, Note_on_c, 8, 64, 0
10, 29711, Note_on_c, 8, 63, 127
10, 29711, Note_on_c, 8, 59, 127
10, 29735, Note_on_c, 8, 59, 0
10, 29735, Note_on_c, 8, 63, 0
10, 29807, Note_on_c, 8, 61, 127
10, 29807, Note_on_c, 8, 57, 127
10, 29831, Note_on_c, 8, 57, 0
10, 29831, Note_on_c, 8, 61, 0
10, 29903, Note_on_c, 8, 56, 127
10, 29903, Note_on_c, 8, 59, 127
10, 29911, Pitch_bend_c, 8, 8448
10, 29920, Pitch_bend_c, 8, 8192
10, 29951, Pitch_bend_c, 8, 8064
10, 29956, Pitch_bend_c, 8, 7936
10, 29959, Pitch_bend_c, 8, 7936
10, 29960, Pitch_bend_c, 8, 7808
10, 29963, Pitch_bend_c, 8, 7680
10, 29967, Pitch_bend_c, 8, 7552
10, 29968, Pitch_bend_c, 8, 7424
10, 29971, Pitch_bend_c, 8, 7296
10, 29972, Pitch_bend_c, 8, 7168
10, 29976, Pitch_bend_c, 8, 6912
10, 29979, Pitch_bend_c, 8, 6656
10, 29980, Pitch_bend_c, 8, 6528
10, 29983, Pitch_bend_c, 8, 6400
10, 29984, Pitch_bend_c, 8, 6016
10, 29987, Pitch_bend_c, 8, 5632
10, 29988, Pitch_bend_c, 8, 5248
10, 29991, Pitch_bend_c, 8, 4992
10, 29992, Pitch_bend_c, 8, 4352
10, 29995, Pitch_bend_c, 8, 3840
10, 29996, Pitch_bend_c, 8, 3456
10, 29999, Pitch_bend_c, 8, 3328
10, 30000, Pitch_bend_c, 8, 3072
10, 30003, Pitch_bend_c, 8, 2816
10, 30007, Pitch_bend_c, 8, 2944
10, 30008, Pitch_bend_c, 8, 2944
10, 30012, Pitch_bend_c, 8, 2816
10, 30016, Pitch_bend_c, 8, 2944
10, 30019, Pitch_bend_c, 8, 3072
10, 30020, Pitch_bend_c, 8, 3200
10, 30023, Pitch_bend_c, 8, 3328
10, 30024, Pitch_bend_c, 8, 3456
10, 30027, Pitch_bend_c, 8, 3584
10, 30028, Pitch_bend_c, 8, 3840
10, 30031, Pitch_bend_c, 8, 3968
10, 30032, Pitch_bend_c, 8, 4096
10, 30035, Pitch_bend_c, 8, 4224
10, 30036, Pitch_bend_c, 8, 4480
10, 30039, Pitch_bend_c, 8, 4736
10, 30040, Pitch_bend_c, 8, 4864
10, 30044, Pitch_bend_c, 8, 5120
10, 30047, Pitch_bend_c, 8, 5248
10, 30048, Pitch_bend_c, 8, 5376
10, 30051, Pitch_bend_c, 8, 5504
10, 30052, Pitch_bend_c, 8, 5760
10, 30055, Pitch_bend_c, 8, 5888
10, 30056, Pitch_bend_c, 8, 6016
10, 30060, Pitch_bend_c, 8, 6144
10, 30063, Pitch_bend_c, 8, 6272
10, 30064, Pitch_bend_c, 8, 6400
10, 30067, Pitch_bend_c, 8, 6528
10, 30071, Pitch_bend_c, 8, 6784
10, 30072, Pitch_bend_c, 8, 6912
10, 30076, Pitch_bend_c, 8, 7040
10, 30079, Pitch_bend_c, 8, 7168
10, 30080, Pitch_bend_c, 8, 7296
10, 30084, Pitch_bend_c, 8, 7424
10, 30088, Pitch_bend_c, 8, 7552
10, 30096, Pitch_bend_c, 8, 7680
10, 30103, Pitch_bend_c, 8, 7808
10, 30108, Pitch_bend_c, 8, 7936
10, 30116, Pitch_bend_c, 8, 8064
10, 30120, Pitch_bend_c, 8, 8192
10, 30127, Pitch_bend_c, 8, 8320
10, 30191, Note_on_c, 8, 59, 0
10, 30191, Note_on_c, 8, 56, 0
10, 31151, Note_on_c, 8, 66, 127
10, 31151, Note_on_c, 8, 71, 127
10, 31175, Note_on_c, 8, 71, 0
10, 31175, Note_on_c, 8, 66, 0
10, 31247, Note_on_c, 8, 64, 127
10, 31247, Note_on_c, 8, 69, 127
10, 31271, Note_on_c, 8, 69, 0
10, 31271, Note_on_c, 8, 64, 0
10, 31343, Note_on_c, 8, 64, 127
10, 31343, Note_on_c, 8, 68, 127
10, 31367, Note_on_c, 8, 68, 0
10, 31367, Note_on_c, 8, 64, 0
10, 31439, Note_on_c, 8, 66, 127
10, 31439, Note_on_c, 8, 63, 127
10, 31444, Pitch_bend_c, 8, 8448
10, 31448, Pitch_bend_c, 8, 8320
10, 31451, Pitch_bend_c, 8, 8064
10, 31475, Pitch_bend_c, 8, 7936
10, 31488, Pitch_bend_c, 8, 7808
10, 31496, Pitch_bend_c, 8, 7680
10, 31503, Pitch_bend_c, 8, 7552
10, 31511, Pitch_bend_c, 8, 7424
10, 31515, Pitch_bend_c, 8, 7296
10, 31519, Pitch_bend_c, 8, 7168
10, 31520, Pitch_bend_c, 8, 7040
10, 31524, Pitch_bend_c, 8, 6912
10, 31527, Pitch_bend_c, 8, 6784
10, 31528, Pitch_bend_c, 8, 6656
10, 31531, Pitch_bend_c, 8, 6528
10, 31532, Pitch_bend_c, 8, 6272
10, 31535, Pitch_bend_c, 8, 6144
10, 31536, Pitch_bend_c, 8, 6016
10, 31539, Pitch_bend_c, 8, 5760
10, 31540, Pitch_bend_c, 8, 5504
10, 31543, Pitch_bend_c, 8, 5376
10, 31544, Pitch_bend_c, 8, 5120
10, 31547, Pitch_bend_c, 8, 4864
10, 31548, Pitch_bend_c, 8, 4736
10, 31551, Pitch_bend_c, 8, 4608
10, 31552, Pitch_bend_c, 8, 4480
10, 31555, Pitch_bend_c, 8, 4352
10, 31556, Pitch_bend_c, 8, 4096
10, 31559, Pitch_bend_c, 8, 3968
10, 31560, Pitch_bend_c, 8, 3840
10, 31563, Pitch_bend_c, 8, 3712
10, 31564, Pitch_bend_c, 8, 3584
10, 31568, Pitch_bend_c, 8, 3456
10, 31571, Pitch_bend_c, 8, 3328
10, 31579, Pitch_bend_c, 8, 3456
10, 31580, Pitch_bend_c, 8, 3584
10, 31583, Pitch_bend_c, 8, 3840
10, 31584, Pitch_bend_c, 8, 4096
10, 31587, Pitch_bend_c, 8, 4352
10, 31588, Pitch_bend_c, 8, 4608
10, 31591, Pitch_bend_c, 8, 4864
10, 31592, Pitch_bend_c, 8, 5120
10, 31595, Pitch_bend_c, 8, 5376
10, 31596, Pitch_bend_c, 8, 5504
10, 31599, Pitch_bend_c, 8, 5632
10, 31600, Pitch_bend_c, 8, 5760
10, 31603, Pitch_bend_c, 8, 5888
10, 31604, Pitch_bend_c, 8, 6016
10, 31607, Pitch_bend_c, 8, 6144
10, 31608, Pitch_bend_c, 8, 6272
10, 31611, Pitch_bend_c, 8, 6400
10, 31612, Pitch_bend_c, 8, 6528
10, 31615, Pitch_bend_c, 8, 6656
10, 31619, Pitch_bend_c, 8, 6912
10, 31620, Pitch_bend_c, 8, 7040
10, 31623, Pitch_bend_c, 8, 7168
10, 31627, Pitch_bend_c, 8, 7296
10, 31628, Pitch_bend_c, 8, 7424
10, 31631, Pitch_bend_c, 8, 7552
10, 31635, Pitch_bend_c, 8, 7680
10, 31640, Pitch_bend_c, 8, 7936
10, 31644, Pitch_bend_c, 8, 8064
10, 31655, Pitch_bend_c, 8, 8192
10, 31691, Pitch_bend_c, 8, 8448
10, 31692, Pitch_bend_c, 8, 8320
10, 31727, Note_on_c, 8, 63, 0
10, 31727, Note_on_c, 8, 66, 0
10, 33039, Note_on_c, 8, 45, 100
10, 33087, Note_on_c, 8, 57, 120
10, 33135, Note_on_c, 8, 45, 0
10, 33135, Note_on_c, 8, 64, 120
10, 33183, Note_on_c, 8, 59, 120
10, 33231, Note_on_c, 8, 59, 0
10, 33231, Note_on_c, 8, 61, 120
10, 33327, Note_on_c, 8, 64, 0
10, 33375, Note_on_c, 8, 57, 0
10, 33423, Note_on_c, 8, 61, 0
10, 33423, Note_on_c, 8, 54, 67
10, 33423, Note_on_c, 8, 47, 67
10, 33471, Note_on_c, 8, 47, 0
10, 33471, Note_on_c, 8, 54, 0
10, 33471, Note_on_c, 8, 47, 69
10, 33471, Note_on_c, 8, 54, 69
10, 33519, Note_on_c, 8, 54, 0
10, 33519, Note_on_c, 8, 47, 0
10, 33519, Note_on_c, 8, 54, 71
10, 33519, Note_on_c, 8, 47, 71
10, 33567, Note_on_c, 8, 47, 0
10, 33567, Note_on_c, 8, 54, 0
10, 33567, Note_on_c, 8, 47, 75
10, 33567, Note_on_c, 8, 54, 75
10, 33615, Note_on_c, 8, 54, 0
10, 33615, Note_on_c, 8, 47, 0
10, 33615, Note_on_c, 8, 47, 80
10, 33615, Note_on_c, 8, 54, 80
10, 33663, Note_on_c, 8, 54, 0
10, 33663, Note_on_c, 8, 47, 0
10, 33663, Note_on_c, 8, 54, 83
10, 33663, Note_on_c, 8, 47, 83
10, 33711, Note_on_c, 8, 47, 0
10, 33711, Note_on_c, 8, 54, 0
10, 33711, Note_on_c, 8, 47, 92
10, 33711, Note_on_c, 8, 54, 92
10, 33759, Note_on_c, 8, 54, 0
10, 33759, Note_on_c, 8, 47, 0
10, 33759, Note_on_c, 8, 54, 96
10, 33759, Note_on_c, 8, 47, 96
10, 33807, Note_on_c, 8, 47, 0
10, 33807, Note_on_c, 8, 54, 0
10, 33807, Note_on_c, 8, 47, 102
10, 33807, Note_on_c, 8, 54, 102
10, 33855, Note_on_c, 8, 54, 0
10, 33855, Note_on_c, 8, 47, 0
10, 34079, Pitch_bend_c, 8, 8192
10, 34079, Note_on_c, 8, 43, 100
10, 34080, Pitch_bend_c, 8, 7808
10, 34083, Pitch_bend_c, 8, 7552
10, 34084, Pitch_bend_c, 8, 7424
10, 34087, Pitch_bend_c, 8, 7296
10, 34088, Pitch_bend_c, 8, 7040
10, 34091, Pitch_bend_c, 8, 6912
10, 34095, Pitch_bend_c, 8, 6656
10, 34099, Pitch_bend_c, 8, 6528
10, 34100, Pitch_bend_c, 8, 6272
10, 34104, Pitch_bend_c, 8, 6144
10, 34108, Pitch_bend_c, 8, 6016
10, 34111, Pitch_bend_c, 8, 5760
10, 34115, Pitch_bend_c, 8, 5632
10, 34116, Pitch_bend_c, 8, 5504
10, 34119, Pitch_bend_c, 8, 5248
10, 34123, Pitch_bend_c, 8, 5120
10, 34124, Pitch_bend_c, 8, 4864
10, 34128, Pitch_bend_c, 8, 4608
10, 34131, Pitch_bend_c, 8, 4480
10, 34132, Pitch_bend_c, 8, 4224
10, 34135, Pitch_bend_c, 8, 4096
10, 34136, Pitch_bend_c, 8, 3840
10, 34139, Pitch_bend_c, 8, 3712
10, 34140, Pitch_bend_c, 8, 3328
10, 34143, Pitch_bend_c, 8, 3200
10, 34144, Pitch_bend_c, 8, 2944
10, 34147, Pitch_bend_c, 8, 2688
10, 34148, Pitch_bend_c, 8, 2432
10, 34151, Pitch_bend_c, 8, 2176
10, 34152, Pitch_bend_c, 8, 1920
10, 34155, Pitch_bend_c, 8, 1664
10, 34156, Pitch_bend_c, 8, 1408
10, 34159, Pitch_bend_c, 8, 1024
10, 34163, Pitch_bend_c, 8, 640
10, 34164, Pitch_bend_c, 8, 384
10, 34167, Pitch_bend_c, 8, 128
10, 34172, Pitch_bend_c, 8, 8320
10, 34175, Note_on_c, 8, 43, 0
10, 34367, Note_on_c, 8, 40, 127
10, 34415, Note_on_c, 8, 52, 127
10, 34463, Note_on_c, 8, 40, 0
10, 34463, Pitch_bend_c, 8, 8192
10, 34463, Note_on_c, 8, 59, 127
10, 34464, Pitch_bend_c, 8, 8320
10, 34511, Pitch_bend_c, 8, 8192
10, 34511, Note_on_c, 8, 56, 127
10, 34555, Pitch_bend_c, 8, 8448
10, 34556, Pitch_bend_c, 8, 8320
10, 34559, Note_on_c, 8, 56, 0
10, 34559, Note_on_c, 8, 56, 127
10, 34583, Note_on_c, 8, 59, 0
10, 34583, Pitch_bend_c, 8, 8320
10, 34591, Pitch_bend_c, 8, 8192
10, 34592, Pitch_bend_c, 8, 8320
10, 34612, Pitch_bend_c, 8, 8320
10, 34615, Pitch_bend_c, 8, 8448
10, 34616, Pitch_bend_c, 8, 8576
10, 34619, Pitch_bend_c, 8, 8832
10, 34620, Pitch_bend_c, 8, 9088
10, 34623, Pitch_bend_c, 8, 9344
10, 34624, Pitch_bend_c, 8, 9600
10, 34627, Pitch_bend_c, 8, 9856
10, 34628, Pitch_bend_c, 8, 10112
10, 34631, Pitch_bend_c, 8, 10496
10, 34635, Pitch_bend_c, 8, 10752
10, 34636, Pitch_bend_c, 8, 11136
10, 34639, Pitch_bend_c, 8, 11264
10, 34640, Pitch_bend_c, 8, 11392
10, 34643, Pitch_bend_c, 8, 11648
10, 34647, Pitch_bend_c, 8, 11648
10, 34655, Note_on_c, 8, 56, 0
10, 34655, Note_on_c, 8, 52, 0
10, 34655, Note_on_c, 8, 64, 127
10, 34655, Pitch_bend_c, 8, 8320
10, 34655, Note_on_c, 8, 59, 127
10, 34703, Note_on_c, 8, 52, 127
10, 34751, Note_on_c, 8, 52, 0
10, 34751, Note_on_c, 8, 59, 0
10, 34751, Note_on_c, 8, 64, 0
10, 34751, Note_on_c, 8, 64, 127
10, 34751, Note_on_c, 8, 57, 127
10, 34799, Note_on_c, 8, 57, 0
10, 34799, Note_on_c, 8, 64, 0
10, 34799, Note_on_c, 8, 59, 127
10, 34799, Note_on_c, 8, 56, 127
10, 34835, Pitch_bend_c, 8, 8448
10, 34836, Pitch_bend_c, 8, 8192
10, 34919, Note_on_c, 8, 56, 0
10, 34919, Note_on_c, 8, 59, 0
10, 36095, Pitch_bend_c, 8, 7936
10, 36095, Note_on_c, 8, 39, 127
10, 36097, Pitch_bend_c, 8, 7808
10, 36099, Pitch_bend_c, 8, 7680
10, 36101, Pitch_bend_c, 8, 7424
10, 36103, Pitch_bend_c, 8, 7168
10, 36107, Pitch_bend_c, 8, 6912
10, 36107, Pitch_bend_c, 8, 7040
10, 36109, Pitch_bend_c, 8, 6656
10, 36111, Pitch_bend_c, 8, 6016
10, 36111, Pitch_bend_c, 8, 6400
10, 36115, Pitch_bend_c, 8, 5888
10, 36119, Pitch_bend_c, 8, 6016
10, 36121, Pitch_bend_c, 8, 6144
10, 36123, Pitch_bend_c, 8, 6400
10, 36125, Pitch_bend_c, 8, 6656
10, 36127, Pitch_bend_c, 8, 7168
10, 36127, Pitch_bend_c, 8, 6912
10, 36129, Pitch_bend_c, 8, 7296
10, 36131, Pitch_bend_c, 8, 7936
10, 36131, Pitch_bend_c, 8, 7552
10, 36133, Pitch_bend_c, 8, 8192
10, 36135, Pitch_bend_c, 8, 8704
10, 36135, Pitch_bend_c, 8, 8320
10, 36137, Pitch_bend_c, 8, 9216
10, 36139, Pitch_bend_c, 8, 9856
10, 36139, Pitch_bend_c, 8, 9472
10, 36141, Pitch_bend_c, 8, 10368
10, 36143, Pitch_bend_c, 8, 11264
10, 36143, Pitch_bend_c, 8, 10880
10, 36145, Pitch_bend_c, 8, 11520
10, 36147, Pitch_bend_c, 8, 12032
10, 36147, Pitch_bend_c, 8, 11904
10, 36149, Pitch_bend_c, 8, 12288
10, 36151, Pitch_bend_c, 8, 12416
10, 36187, Pitch_bend_c, 8, 13184
10, 36191, Note_on_c, 8, 39, 0
10, 36191, Pitch_bend_c, 8, 8320
10, 36193, Note_on_c, 8, 40, 127
10, 36239, Note_on_c, 8, 39, 127
10, 36241, Note_on_c, 8, 40, 0
10, 36247, Pitch_bend_c, 8, 8320
10, 36255, Pitch_bend_c, 8, 8192
10, 36256, Pitch_bend_c, 8, 8064
10, 36260, Pitch_bend_c, 8, 7936
10, 36263, Pitch_bend_c, 8, 7808
10, 36264, Pitch_bend_c, 8, 7680
10, 36267, Pitch_bend_c, 8, 7424
10, 36268, Pitch_bend_c, 8, 7168
10, 36271, Pitch_bend_c, 8, 6912
10, 36272, Pitch_bend_c, 8, 6656
10, 36276, Pitch_bend_c, 8, 6912
10, 36279, Pitch_bend_c, 8, 7296
10, 36280, Pitch_bend_c, 8, 7552
10, 36283, Pitch_bend_c, 8, 7808
10, 36284, Pitch_bend_c, 8, 8064
10, 36287, Pitch_bend_c, 8, 8320
10, 36288, Pitch_bend_c, 8, 8704
10, 36291, Pitch_bend_c, 8, 9344
10, 36292, Pitch_bend_c, 8, 10112
10, 36295, Pitch_bend_c, 8, 10752
10, 36296, Pitch_bend_c, 8, 11264
10, 36299, Pitch_bend_c, 8, 11776
10, 36300, Pitch_bend_c, 8, 12288
10, 36303, Pitch_bend_c, 8, 12416
10, 36304, Pitch_bend_c, 8, 12160
10, 36312, Pitch_bend_c, 8, 12288
10, 36323, Pitch_bend_c, 8, 12416
10, 36335, Note_on_c, 8, 39, 0
10, 36335, Note_on_c, 8, 40, 127
10, 36336, Pitch_bend_c, 8, 8320
10, 36347, Pitch_bend_c, 8, 8448
10, 36383, Note_on_c, 8, 40, 0
10, 36383, Note_on_c, 8, 40, 127
10, 36425, Note_on_c, 8, 40, 0
10, 36431, Note_on_c, 8, 40, 127
10, 36473, Note_on_c, 8, 40, 0
10, 40943, Note_on_c, 8, 56, 127
10, 40943, Note_on_c, 8, 52, 127
10, 40991, Note_on_c, 8, 52, 0
10, 40991, Note_on_c, 8, 56, 0
10, 40991, Note_on_c, 8, 56, 127
10, 40991, Note_on_c, 8, 52, 127
10, 41039, Note_on_c, 8, 52, 0
10, 41039, Note_on_c, 8, 56, 0
10, 41039, Note_on_c, 8, 56, 127
10, 41039, Note_on_c, 8, 52, 127
10, 41087, Note_on_c, 8, 52, 0
10, 41087, Note_on_c, 8, 56, 0
10, 41087, Note_on_c, 8, 54, 127
10, 41087, Note_on_c, 8, 59, 127
10, 41135, Note_on_c, 8, 59, 0
10, 41135, Note_on_c, 8, 56, 127
10, 41183, Note_on_c, 8, 56, 0
10, 41183, Note_on_c, 8, 54, 0
10, 41183, Note_on_c, 8, 64, 127
10, 41183, Note_on_c, 8, 59, 127
10, 41279, Note_on_c, 8, 59, 0
10, 41279, Note_on_c, 8, 64, 0
10, 41279, Note_on_c, 8, 59, 127
10, 41279, Note_on_c, 8, 64, 127
10, 41375, Note_on_c, 8, 64, 0
10, 41375, Note_on_c, 8, 59, 0
10, 41375, Note_on_c, 8, 59, 127
10, 41375, Note_on_c, 8, 64, 127
10, 41471, Note_on_c, 8, 64, 0
10, 41471, Note_on_c, 8, 59, 0
10, 41471, Note_on_c, 8, 64, 127
10, 41471, Note_on_c, 8, 61, 127
10, 41519, Note_on_c, 8, 61, 0
10, 41519, Note_on_c, 8, 59, 127
10, 41567, Note_on_c, 8, 59, 0
10, 41567, Note_on_c, 8, 64, 0
10, 41567, Note_on_c, 8, 59, 127
10, 41567, Note_on_c, 8, 56, 127
10, 41615, Note_on_c, 8, 56, 0
10, 41615, Note_on_c, 8, 59, 0
10, 41615, Note_on_c, 8, 59, 127
10, 41615, Note_on_c, 8, 64, 127
10, 41711, Note_on_c, 8, 64, 0
10, 41711, Note_on_c, 8, 59, 0
10, 41711, Note_on_c, 8, 59, 127
10, 41711, Note_on_c, 8, 64, 127
10, 41759, Note_on_c, 8, 64, 0
10, 41759, Note_on_c, 8, 59, 0
10, 41759, Note_on_c, 8, 64, 127
10, 41759, Note_on_c, 8, 61, 127
10, 41807, Note_on_c, 8, 61, 0
10, 41807, Note_on_c, 8, 64, 0
10, 41807, Note_on_c, 8, 64, 127
10, 41807, Note_on_c, 8, 59, 127
10, 41855, Note_on_c, 8, 59, 0
10, 41855, Note_on_c, 8, 64, 0
10, 42479, Note_on_c, 8, 56, 127
10, 42479, Note_on_c, 8, 52, 127
10, 42527, Note_on_c, 8, 52, 0
10, 42527, Note_on_c, 8, 56, 0
10, 42527, Note_on_c, 8, 56, 127
10, 42527, Note_on_c, 8, 52, 127
10, 42575, Note_on_c, 8, 52, 0
10, 42575, Note_on_c, 8, 56, 0
10, 42575, Note_on_c, 8, 56, 127
10, 42575, Note_on_c, 8, 52, 127
10, 42623, Note_on_c, 8, 52, 0
10, 42623, Note_on_c, 8, 56, 0
10, 42623, Note_on_c, 8, 54, 127
10, 42623, Note_on_c, 8, 59, 127
10, 42671, Note_on_c, 8, 59, 0
10, 42671, Note_on_c, 8, 56, 127
10, 42719, Note_on_c, 8, 56, 0
10, 42719, Note_on_c, 8, 54, 0
10, 42719, Note_on_c, 8, 64, 127
10, 42719, Note_on_c, 8, 59, 127
10, 42815, Note_on_c, 8, 59, 0
10, 42815, Note_on_c, 8, 64, 0
10, 42815, Note_on_c, 8, 59, 127
10, 42815, Note_on_c, 8, 64, 127
10, 42911, Note_on_c, 8, 64, 0
10, 42911, Note_on_c, 8, 59, 0
10, 42911, Note_on_c, 8, 59, 127
10, 42911, Note_on_c, 8, 64, 127
10, 43007, Note_on_c, 8, 64, 0
10, 43007, Note_on_c, 8, 59, 0
10, 43007, Note_on_c, 8, 64, 127
10, 43007, Note_on_c, 8, 61, 127
10, 43055, Note_on_c, 8, 61, 0
10, 43055, Note_on_c, 8, 59, 127
10, 43103, Note_on_c, 8, 59, 0
10, 43103, Note_on_c, 8, 64, 0
10, 43103, Note_on_c, 8, 59, 127
10, 43103, Note_on_c, 8, 56, 127
10, 43151, Note_on_c, 8, 56, 0
10, 43151, Note_on_c, 8, 59, 0
10, 43151, Note_on_c, 8, 59, 127
10, 43151, Note_on_c, 8, 64, 127
10, 43247, Note_on_c, 8, 64, 0
10, 43247, Note_on_c, 8, 59, 0
10, 43247, Note_on_c, 8, 59, 127
10, 43247, Note_on_c, 8, 64, 127
10, 43295, Note_on_c, 8, 64, 0
10, 43295, Note_on_c, 8, 59, 0
10, 43295, Note_on_c, 8, 64, 127
10, 43295, Note_on_c, 8, 61, 127
10, 43343, Note_on_c, 8, 61, 0
10, 43343, Note_on_c, 8, 64, 0
10, 43343, Note_on_c, 8, 64, 127
10, 43343, Note_on_c, 8, 59, 127
10, 43391, Note_on_c, 8, 59, 0
10, 43391, Note_on_c, 8, 64, 0
10, 44015, Note_on_c, 8, 56, 127
10, 44015, Note_on_c, 8, 52, 127
10, 44063, Note_on_c, 8, 52, 0
10, 44063, Note_on_c, 8, 56, 0
10, 44063, Note_on_c, 8, 56, 127
10, 44063, Note_on_c, 8, 52, 127
10, 44111, Note_on_c, 8, 52, 0
10, 44111, Note_on_c, 8, 56, 0
10, 44111, Note_on_c, 8, 56, 127
10, 44111, Note_on_c, 8, 52, 127
10, 44159, Note_on_c, 8, 52, 0
10, 44159, Note_on_c, 8, 56, 0
10, 44159, Note_on_c, 8, 54, 127
10, 44159, Note_on_c, 8, 59, 127
10, 44207, Note_on_c, 8, 59, 0
10, 44207, Note_on_c, 8, 56, 127
10, 44255, Note_on_c, 8, 56, 0
10, 44255, Note_on_c, 8, 54, 0
10, 44255, Note_on_c, 8, 64, 127
10, 44255, Note_on_c, 8, 59, 127
10, 44351, Note_on_c, 8, 59, 0
10, 44351, Note_on_c, 8, 64, 0
10, 44351, Note_on_c, 8, 59, 127
10, 44351, Note_on_c, 8, 64, 127
10, 44447, Note_on_c, 8, 64, 0
10, 44447, Note_on_c, 8, 59, 0
10, 44447, Note_on_c, 8, 59, 127
10, 44447, Note_on_c, 8, 64, 127
10, 44543, Note_on_c, 8, 64, 0
10, 44543, Note_on_c, 8, 59, 0
10, 44543, Note_on_c, 8, 64, 127
10, 44543, Note_on_c, 8, 61, 127
10, 44591, Note_on_c, 8, 61, 0
10, 44591, Note_on_c, 8, 59, 127
10, 44639, Note_on_c, 8, 59, 0
10, 44639, Note_on_c, 8, 64, 0
10, 44639, Note_on_c, 8, 59, 127
10, 44639, Note_on_c, 8, 56, 127
10, 44687, Note_on_c, 8, 56, 0
10, 44687, Note_on_c, 8, 59, 0
10, 44687, Note_on_c, 8, 59, 127
10, 44687, Note_on_c, 8, 64, 127
10, 44783, Note_on_c, 8, 64, 0
10, 44783, Note_on_c, 8, 59, 0
10, 44783, Note_on_c, 8, 59, 127
10, 44783, Note_on_c, 8, 64, 127
10, 44831, Note_on_c, 8, 64, 0
10, 44831, Note_on_c, 8, 59, 0
10, 44831, Note_on_c, 8, 64, 127
10, 44831, Note_on_c, 8, 61, 127
10, 44879, Note_on_c, 8, 61, 0
10, 44879, Note_on_c, 8, 64, 0
10, 44879, Note_on_c, 8, 64, 127
10, 44879, Note_on_c, 8, 59, 127
10, 44927, Note_on_c, 8, 59, 0
10, 44927, Note_on_c, 8, 64, 0
10, 45551, Note_on_c, 8, 56, 127
10, 45551, Note_on_c, 8, 52, 127
10, 45599, Note_on_c, 8, 52, 0
10, 45599, Note_on_c, 8, 56, 0
10, 45599, Note_on_c, 8, 56, 127
10, 45599, Note_on_c, 8, 52, 127
10, 45647, Note_on_c, 8, 52, 0
10, 45647, Note_on_c, 8, 56, 0
10, 45647, Note_on_c, 8, 56, 127
10, 45647, Note_on_c, 8, 52, 127
10, 45695, Note_on_c, 8, 52, 0
10, 45695, Note_on_c, 8, 56, 0
10, 45695, Note_on_c, 8, 54, 127
10, 45695, Note_on_c, 8, 59, 127
10, 45743, Note_on_c, 8, 59, 0
10, 45743, Note_on_c, 8, 56, 127
10, 45791, Note_on_c, 8, 56, 0
10, 45791, Note_on_c, 8, 54, 0
10, 45791, Note_on_c, 8, 64, 127
10, 45791, Note_on_c, 8, 59, 127
10, 45887, Note_on_c, 8, 59, 0
10, 45887, Note_on_c, 8, 64, 0
10, 45887, Note_on_c, 8, 59, 127
10, 45887, Note_on_c, 8, 64, 127
10, 45983, Note_on_c, 8, 64, 0
10, 45983, Note_on_c, 8, 59, 0
10, 45983, Note_on_c, 8, 59, 127
10, 45983, Note_on_c, 8, 64, 127
10, 46079, Note_on_c, 8, 64, 0
10, 46079, Note_on_c, 8, 59, 0
10, 46079, Note_on_c, 8, 64, 127
10, 46079, Note_on_c, 8, 61, 127
10, 46127, Note_on_c, 8, 61, 0
10, 46127, Note_on_c, 8, 59, 127
10, 46175, Note_on_c, 8, 59, 0
10, 46175, Note_on_c, 8, 64, 0
10, 46175, Note_on_c, 8, 59, 127
10, 46175, Note_on_c, 8, 56, 127
10, 46223, Note_on_c, 8, 56, 0
10, 46223, Note_on_c, 8, 59, 0
10, 46223, Note_on_c, 8, 59, 127
10, 46223, Note_on_c, 8, 64, 127
10, 46319, Note_on_c, 8, 64, 0
10, 46319, Note_on_c, 8, 59, 0
10, 46319, Note_on_c, 8, 59, 127
10, 46319, Note_on_c, 8, 64, 127
10, 46367, Note_on_c, 8, 64, 0
10, 46367, Note_on_c, 8, 59, 0
10, 46367, Note_on_c, 8, 64, 127
10, 46367, Note_on_c, 8, 61, 127
10, 46415, Note_on_c, 8, 61, 0
10, 46415, Note_on_c, 8, 64, 0
10, 46415, Note_on_c, 8, 64, 127
10, 46415, Note_on_c, 8, 59, 127
10, 46463, Note_on_c, 8, 59, 0
10, 46463, Note_on_c, 8, 64, 0
10, 46463, Note_on_c, 8, 54, 127
10, 46463, Note_on_c, 8, 59, 127
10, 46511, Note_on_c, 8, 59, 0
10, 46511, Note_on_c, 8, 56, 127
10, 46559, Note_on_c, 8, 56, 0
10, 46559, Note_on_c, 8, 54, 0
10, 46559, Note_on_c, 8, 64, 127
10, 46559, Note_on_c, 8, 59, 127
10, 46655, Note_on_c, 8, 59, 0
10, 46655, Note_on_c, 8, 64, 0
10, 46655, Note_on_c, 8, 59, 127
10, 46655, Note_on_c, 8, 64, 127
10, 46751, Note_on_c, 8, 64, 0
10, 46751, Note_on_c, 8, 59, 0
10, 46751, Note_on_c, 8, 59, 127
10, 46751, Note_on_c, 8, 64, 127
10, 46847, Note_on_c, 8, 64, 0
10, 46847, Note_on_c, 8, 59, 0
10, 46847, Note_on_c, 8, 64, 127
10, 46847, Note_on_c, 8, 61, 127
10, 46895, Note_on_c, 8, 61, 0
10, 46895, Note_on_c, 8, 59, 127
10, 46943, Note_on_c, 8, 59, 0
10, 46943, Note_on_c, 8, 64, 0
10, 46943, Note_on_c, 8, 59, 127
10, 46943, Note_on_c, 8, 56, 127
10, 46991, Note_on_c, 8, 56, 0
10, 46991, Note_on_c, 8, 59, 0
10, 46991, Note_on_c, 8, 59, 127
10, 46991, Note_on_c, 8, 64, 127
10, 47087, Note_on_c, 8, 64, 0
10, 47087, Note_on_c, 8, 59, 0
10, 47087, Note_on_c, 8, 59, 127
10, 47087, Note_on_c, 8, 64, 127
10, 47135, Note_on_c, 8, 64, 0
10, 47135, Note_on_c, 8, 59, 0
10, 47135, Note_on_c, 8, 64, 127
10, 47135, Note_on_c, 8, 61, 127
10, 47183, Note_on_c, 8, 61, 0
10, 47183, Note_on_c, 8, 64, 0
10, 47183, Note_on_c, 8, 64, 127
10, 47183, Note_on_c, 8, 59, 127
10, 47231, Note_on_c, 8, 59, 0
10, 47231, Note_on_c, 8, 64, 0
10, 47231, Note_on_c, 8, 54, 127
10, 47231, Note_on_c, 8, 59, 127
10, 47279, Note_on_c, 8, 59, 0
10, 47279, Note_on_c, 8, 56, 127
10, 47327, Note_on_c, 8, 56, 0
10, 47327, Note_on_c, 8, 54, 0
10, 47327, Note_on_c, 8, 64, 127
10, 47327, Note_on_c, 8, 59, 127
10, 47423, Note_on_c, 8, 59, 0
10, 47423, Note_on_c, 8, 64, 0
10, 47423, Note_on_c, 8, 59, 127
10, 47423, Note_on_c, 8, 64, 127
10, 47519, Note_on_c, 8, 64, 0
10, 47519, Note_on_c, 8, 59, 0
10, 47519, Note_on_c, 8, 59, 127
10, 47519, Note_on_c, 8, 64, 127
10, 47615, Note_on_c, 8, 64, 0
10, 47615, Note_on_c, 8, 59, 0
10, 47615, Note_on_c, 8, 64, 127
10, 47615, Note_on_c, 8, 61, 127
10, 47663, Note_on_c, 8, 61, 0
10, 47663, Note_on_c, 8, 59, 127
10, 47711, Note_on_c, 8, 59, 0
10, 47711, Note_on_c, 8, 64, 0
10, 47711, Note_on_c, 8, 59, 127
10, 47711, Note_on_c, 8, 56, 127
10, 47759, Note_on_c, 8, 56, 0
10, 47759, Note_on_c, 8, 59, 0
10, 47759, Note_on_c, 8, 59, 127
10, 47759, Note_on_c, 8, 64, 127
10, 47855, Note_on_c, 8, 64, 0
10, 47855, Note_on_c, 8, 59, 0
10, 47855, Note_on_c, 8, 59, 127
10, 47855, Note_on_c, 8, 64, 127
10, 47903, Note_on_c, 8, 64, 0
10, 47903, Note_on_c, 8, 59, 0
10, 47903, Note_on_c, 8, 64, 127
10, 47903, Note_on_c, 8, 61, 127
10, 47951, Note_on_c, 8, 61, 0
10, 47951, Note_on_c, 8, 64, 0
10, 47951, Note_on_c, 8, 64, 127
10, 47951, Note_on_c, 8, 59, 127
10, 47999, Note_on_c, 8, 59, 0
10, 47999, Note_on_c, 8, 64, 0
10, 47999, Note_on_c, 8, 54, 127
10, 47999, Note_on_c, 8, 59, 127
10, 48047, Note_on_c, 8, 59, 0
10, 48047, Note_on_c, 8, 56, 127
10, 48095, Note_on_c, 8, 56, 0
10, 48095, Note_on_c, 8, 54, 0
10, 48095, Note_on_c, 8, 64, 127
10, 48095, Note_on_c, 8, 59, 127
10, 48191, Note_on_c, 8, 59, 0
10, 48191, Note_on_c, 8, 64, 0
10, 48191, Note_on_c, 8, 59, 127
10, 48191, Note_on_c, 8, 64, 127
10, 48287, Note_on_c, 8, 64, 0
10, 48287, Note_on_c, 8, 59, 0
10, 48287, Note_on_c, 8, 59, 127
10, 48287, Note_on_c, 8, 64, 127
10, 48383, Note_on_c, 8, 64, 0
10, 48383, Note_on_c, 8, 59, 0
10, 48383, Note_on_c, 8, 64, 127
10, 48383, Note_on_c, 8, 61, 127
10, 48431, Note_on_c, 8, 61, 0
10, 48431, Note_on_c, 8, 59, 127
10, 48479, Note_on_c, 8, 59, 0
10, 48479, Note_on_c, 8, 64, 0
10, 48479, Note_on_c, 8, 59, 127
10, 48479, Note_on_c, 8, 56, 127
10, 48527, Note_on_c, 8, 56, 0
10, 48527, Note_on_c, 8, 59, 0
10, 48527, Note_on_c, 8, 59, 127
10, 48527, Note_on_c, 8, 64, 127
10, 48623, Note_on_c, 8, 64, 0
10, 48623, Note_on_c, 8, 59, 0
10, 48623, Note_on_c, 8, 76, 127
10, 48623, Note_on_c, 8, 71, 127
10, 48671, Note_on_c, 8, 71, 0
10, 48671, Note_on_c, 8, 76, 0
10, 48671, Note_on_c, 8, 76, 127
10, 48671, Note_on_c, 8, 71, 127
10, 48719, Note_on_c, 8, 71, 0
10, 48719, Note_on_c, 8, 76, 0
10, 48719, Note_on_c, 8, 76, 127
10, 48719, Note_on_c, 8, 71, 127
10, 48767, Note_on_c, 8, 71, 0
10, 48767, Note_on_c, 8, 76, 0
10, 48767, Note_on_c, 8, 76, 127
10, 48767, Note_on_c, 8, 71, 127
10, 48815, Note_on_c, 8, 71, 0
10, 48815, Note_on_c, 8, 76, 0
10, 48863, Note_on_c, 8, 73, 127
10, 48863, Note_on_c, 8, 69, 127
10, 48911, Note_on_c, 8, 69, 0
10, 48911, Note_on_c, 8, 73, 0
10, 48959, Note_on_c, 8, 71, 127
10, 48959, Note_on_c, 8, 68, 127
10, 49007, Note_on_c, 8, 68, 0
10, 49007, Note_on_c, 8, 71, 0
10, 49055, Note_on_c, 8, 68, 127
10, 49055, Note_on_c, 8, 64, 127
10, 49103, Note_on_c, 8, 64, 0
10, 49103, Note_on_c, 8, 68, 0
10, 49151, Note_on_c, 8, 66, 127
10, 49151, Note_on_c, 8, 61, 127
10, 49199, Note_on_c, 8, 61, 0
10, 49199, Note_on_c, 8, 66, 0
10, 49199, Note_on_c, 8, 64, 127
10, 49199, Note_on_c, 8, 59, 127
10, 49247, Note_on_c, 8, 59, 0
10, 49247, Note_on_c, 8, 64, 0
10, 49247, Note_on_c, 8, 59, 127
10, 49247, Note_on_c, 8, 56, 127
10, 49295, Note_on_c, 8, 56, 0
10, 49295, Note_on_c, 8, 59, 0
10, 49295, Note_on_c, 8, 56, 127
10, 49295, Note_on_c, 8, 52, 127
10, 49295, Note_on_c, 8, 47, 127
10, 49895, Note_on_c, 8, 47, 0
10, 49895, Note_on_c, 8, 52, 0
10, 49895, Note_on_c, 8, 56, 0
10, 49895, End_track
11, 0, Start_track
11, 0, MIDI_port, 0
11, 0, Title_t, "Drums"
11, 0, Program_c, 9, 0
11, 0, Control_c, 9, 7, 108
11, 1, Program_c, 9, 0
11, 2, Control_c, 9, 7, 108
11, 384, Note_on_c, 9, 31, 6
11, 396, Note_on_c, 9, 31, 0
11, 480, Note_on_c, 9, 31, 6
11, 492, Note_on_c, 9, 31, 0
11, 576, Note_on_c, 9, 31, 6
11, 588, Note_on_c, 9, 31, 0
11, 672, Note_on_c, 9, 31, 7
11, 684, Note_on_c, 9, 31, 0
11, 768, Note_on_c, 9, 37, 42
11, 768, Note_on_c, 9, 33, 75
11, 780, Note_on_c, 9, 33, 0
11, 780, Note_on_c, 9, 37, 0
11, 864, Note_on_c, 9, 33, 100
11, 876, Note_on_c, 9, 33, 0
11, 960, Note_on_c, 9, 37, 46
11, 960, Note_on_c, 9, 33, 75
11, 972, Note_on_c, 9, 33, 0
11, 972, Note_on_c, 9, 37, 0
11, 1056, Note_on_c, 9, 33, 100
11, 1068, Note_on_c, 9, 33, 0
11, 1152, Note_on_c, 9, 37, 48
11, 1152, Note_on_c, 9, 33, 75
11, 1164, Note_on_c, 9, 33, 0
11, 1164, Note_on_c, 9, 37, 0
11, 1248, Note_on_c, 9, 33, 100
11, 1260, Note_on_c, 9, 33, 0
11, 1344, Note_on_c, 9, 37, 49
11, 1344, Note_on_c, 9, 33, 75
11, 1356, Note_on_c, 9, 33, 0
11, 1356, Note_on_c, 9, 37, 0
11, 1440, Note_on_c, 9, 33, 100
11, 1452, Note_on_c, 9, 33, 0
11, 1536, Note_on_c, 9, 37, 46
11, 1536, Note_on_c, 9, 33, 75
11, 1548, Note_on_c, 9, 33, 0
11, 1548, Note_on_c, 9, 37, 0
11, 1632, Note_on_c, 9, 33, 100
11, 1644, Note_on_c, 9, 33, 0
11, 1728, Note_on_c, 9, 37, 50
11, 1728, Note_on_c, 9, 33, 75
11, 1740, Note_on_c, 9, 33, 0
11, 1740, Note_on_c, 9, 37, 0
11, 1824, Note_on_c, 9, 33, 100
11, 1836, Note_on_c, 9, 33, 0
11, 1920, Note_on_c, 9, 37, 46
11, 1920, Note_on_c, 9, 33, 75
11, 1932, Note_on_c, 9, 33, 0
11, 1932, Note_on_c, 9, 37, 0
11, 2016, Note_on_c, 9, 33, 100
11, 2028, Note_on_c, 9, 33, 0
11, 2112, Note_on_c, 9, 37, 48
11, 2112, Note_on_c, 9, 33, 75
11, 2124, Note_on_c, 9, 33, 0
11, 2124, Note_on_c, 9, 37, 0
11, 2208, Note_on_c, 9, 33, 100
11, 2220, Note_on_c, 9, 33, 0
11, 2304, Note_on_c, 9, 37, 51
11, 2304, Note_on_c, 9, 33, 75
11, 2316, Note_on_c, 9, 33, 0
11, 2316, Note_on_c, 9, 37, 0
11, 2400, Note_on_c, 9, 33, 100
11, 2412, Note_on_c, 9, 33, 0
11, 2496, Note_on_c, 9, 37, 51
11, 2496, Note_on_c, 9, 33, 75
11, 2508, Note_on_c, 9, 33, 0
11, 2508, Note_on_c, 9, 37, 0
11, 2592, Note_on_c, 9, 33, 100
11, 2604, Note_on_c, 9, 33, 0
11, 2688, Note_on_c, 9, 37, 70
11, 2688, Note_on_c, 9, 33, 70
11, 2688, Note_on_c, 9, 36, 120
11, 2700, Note_on_c, 9, 36, 0
11, 2700, Note_on_c, 9, 33, 0
11, 2700, Note_on_c, 9, 37, 0
11, 2784, Note_on_c, 9, 33, 100
11, 2796, Note_on_c, 9, 33, 0
11, 2880, Note_on_c, 9, 37, 70
11, 2880, Note_on_c, 9, 33, 70
11, 2880, Note_on_c, 9, 36, 120
11, 2892, Note_on_c, 9, 36, 0
11, 2892, Note_on_c, 9, 33, 0
11, 2892, Note_on_c, 9, 37, 0
11, 2976, Note_on_c, 9, 33, 100
11, 2988, Note_on_c, 9, 33, 0
11, 3072, Note_on_c, 9, 37, 70
11, 3072, Note_on_c, 9, 33, 70
11, 3072, Note_on_c, 9, 36, 120
11, 3084, Note_on_c, 9, 36, 0
11, 3084, Note_on_c, 9, 33, 0
11, 3084, Note_on_c, 9, 37, 0
11, 3168, Note_on_c, 9, 33, 100
11, 3168, Note_on_c, 9, 36, 120
11, 3180, Note_on_c, 9, 36, 0
11, 3180, Note_on_c, 9, 33, 0
11, 3264, Note_on_c, 9, 37, 70
11, 3264, Note_on_c, 9, 33, 70
11, 3264, Note_on_c, 9, 36, 120
11, 3276, Note_on_c, 9, 36, 0
11, 3276, Note_on_c, 9, 33, 0
11, 3276, Note_on_c, 9, 37, 0
11, 3360, Note_on_c, 9, 33, 100
11, 3360, Note_on_c, 9, 36, 120
11, 3372, Note_on_c, 9, 36, 0
11, 3372, Note_on_c, 9, 33, 0
11, 3456, Note_on_c, 9, 46, 70
11, 3456, Note_on_c, 9, 36, 120
11, 3468, Note_on_c, 9, 36, 0
11, 3468, Note_on_c, 9, 46, 0
11, 3504, Note_on_c, 9, 44, 80
11, 3516, Note_on_c, 9, 44, 0
11, 3552, Note_on_c, 9, 46, 70
11, 3552, Note_on_c, 9, 36, 120
11, 3564, Note_on_c, 9, 36, 0
11, 3564, Note_on_c, 9, 46, 0
11, 3600, Note_on_c, 9, 44, 80
11, 3612, Note_on_c, 9, 44, 0
11, 3648, Note_on_c, 9, 46, 70
11, 3648, Note_on_c, 9, 36, 120
11, 3660, Note_on_c, 9, 36, 0
11, 3660, Note_on_c, 9, 46, 0
11, 3696, Note_on_c, 9, 44, 80
11, 3708, Note_on_c, 9, 44, 0
11, 3744, Note_on_c, 9, 46, 70
11, 3744, Note_on_c, 9, 36, 120
11, 3756, Note_on_c, 9, 36, 0
11, 3756, Note_on_c, 9, 46, 0
11, 3792, Note_on_c, 9, 44, 80
11, 3804, Note_on_c, 9, 44, 0
11, 3840, Note_on_c, 9, 46, 70
11, 3840, Note_on_c, 9, 36, 120
11, 3852, Note_on_c, 9, 36, 0
11, 3852, Note_on_c, 9, 46, 0
11, 3888, Note_on_c, 9, 44, 80
11, 3900, Note_on_c, 9, 44, 0
11, 3936, Note_on_c, 9, 46, 70
11, 3936, Note_on_c, 9, 36, 120
11, 3948, Note_on_c, 9, 36, 0
11, 3948, Note_on_c, 9, 46, 0
11, 3984, Note_on_c, 9, 44, 80
11, 3996, Note_on_c, 9, 44, 0
11, 4032, Note_on_c, 9, 46, 70
11, 4032, Note_on_c, 9, 36, 120
11, 4044, Note_on_c, 9, 36, 0
11, 4044, Note_on_c, 9, 46, 0
11, 4080, Note_on_c, 9, 44, 80
11, 4092, Note_on_c, 9, 44, 0
11, 4128, Note_on_c, 9, 46, 70
11, 4128, Note_on_c, 9, 36, 120
11, 4140, Note_on_c, 9, 36, 0
11, 4140, Note_on_c, 9, 46, 0
11, 4176, Note_on_c, 9, 44, 80
11, 4188, Note_on_c, 9, 44, 0
11, 4224, Note_on_c, 9, 46, 70
11, 4224, Note_on_c, 9, 36, 120
11, 4236, Note_on_c, 9, 36, 0
11, 4236, Note_on_c, 9, 46, 0
11, 4272, Note_on_c, 9, 44, 80
11, 4284, Note_on_c, 9, 44, 0
11, 4320, Note_on_c, 9, 46, 70
11, 4320, Note_on_c, 9, 36, 120
11, 4332, Note_on_c, 9, 36, 0
11, 4332, Note_on_c, 9, 46, 0
11, 4368, Note_on_c, 9, 44, 80
11, 4380, Note_on_c, 9, 44, 0
11, 4416, Note_on_c, 9, 46, 70
11, 4416, Note_on_c, 9, 36, 120
11, 4428, Note_on_c, 9, 36, 0
11, 4428, Note_on_c, 9, 46, 0
11, 4464, Note_on_c, 9, 44, 80
11, 4476, Note_on_c, 9, 44, 0
11, 4512, Note_on_c, 9, 46, 70
11, 4512, Note_on_c, 9, 36, 120
11, 4524, Note_on_c, 9, 36, 0
11, 4524, Note_on_c, 9, 46, 0
11, 4560, Note_on_c, 9, 44, 80
11, 4572, Note_on_c, 9, 44, 0
11, 4608, Note_on_c, 9, 46, 70
11, 4608, Note_on_c, 9, 36, 120
11, 4620, Note_on_c, 9, 36, 0
11, 4620, Note_on_c, 9, 46, 0
11, 4656, Note_on_c, 9, 44, 80
11, 4668, Note_on_c, 9, 44, 0
11, 4704, Note_on_c, 9, 46, 70
11, 4704, Note_on_c, 9, 36, 120
11, 4716, Note_on_c, 9, 36, 0
11, 4716, Note_on_c, 9, 46, 0
11, 4752, Note_on_c, 9, 44, 80
11, 4764, Note_on_c, 9, 44, 0
11, 4800, Note_on_c, 9, 46, 70
11, 4800, Note_on_c, 9, 36, 120
11, 4812, Note_on_c, 9, 36, 0
11, 4812, Note_on_c, 9, 46, 0
11, 4848, Note_on_c, 9, 44, 80
11, 4860, Note_on_c, 9, 44, 0
11, 4896, Note_on_c, 9, 46, 70
11, 4896, Note_on_c, 9, 36, 120
11, 4908, Note_on_c, 9, 36, 0
11, 4908, Note_on_c, 9, 46, 0
11, 4944, Note_on_c, 9, 44, 80
11, 4956, Note_on_c, 9, 44, 0
11, 4992, Note_on_c, 9, 46, 70
11, 4992, Note_on_c, 9, 36, 120
11, 5004, Note_on_c, 9, 36, 0
11, 5004, Note_on_c, 9, 46, 0
11, 5040, Note_on_c, 9, 44, 80
11, 5052, Note_on_c, 9, 44, 0
11, 5088, Note_on_c, 9, 46, 70
11, 5088, Note_on_c, 9, 36, 120
11, 5100, Note_on_c, 9, 36, 0
11, 5100, Note_on_c, 9, 46, 0
11, 5136, Note_on_c, 9, 44, 80
11, 5148, Note_on_c, 9, 44, 0
11, 5184, Note_on_c, 9, 46, 70
11, 5184, Note_on_c, 9, 36, 120
11, 5196, Note_on_c, 9, 36, 0
11, 5196, Note_on_c, 9, 46, 0
11, 5232, Note_on_c, 9, 44, 80
11, 5244, Note_on_c, 9, 44, 0
11, 5280, Note_on_c, 9, 46, 70
11, 5280, Note_on_c, 9, 36, 120
11, 5292, Note_on_c, 9, 36, 0
11, 5292, Note_on_c, 9, 46, 0
11, 5328, Note_on_c, 9, 44, 80
11, 5340, Note_on_c, 9, 44, 0
11, 5376, Note_on_c, 9, 46, 70
11, 5376, Note_on_c, 9, 36, 120
11, 5388, Note_on_c, 9, 36, 0
11, 5388, Note_on_c, 9, 46, 0
11, 5424, Note_on_c, 9, 44, 80
11, 5436, Note_on_c, 9, 44, 0
11, 5472, Note_on_c, 9, 46, 70
11, 5472, Note_on_c, 9, 36, 120
11, 5484, Note_on_c, 9, 36, 0
11, 5484, Note_on_c, 9, 46, 0
11, 5520, Note_on_c, 9, 44, 80
11, 5532, Note_on_c, 9, 44, 0
11, 5568, Note_on_c, 9, 46, 70
11, 5568, Note_on_c, 9, 36, 120
11, 5580, Note_on_c, 9, 36, 0
11, 5580, Note_on_c, 9, 46, 0
11, 5616, Note_on_c, 9, 44, 80
11, 5628, Note_on_c, 9, 44, 0
11, 5664, Note_on_c, 9, 46, 70
11, 5664, Note_on_c, 9, 36, 120
11, 5676, Note_on_c, 9, 36, 0
11, 5676, Note_on_c, 9, 46, 0
11, 5712, Note_on_c, 9, 44, 80
11, 5724, Note_on_c, 9, 44, 0
11, 5760, Note_on_c, 9, 46, 69
11, 5760, Note_on_c, 9, 36, 120
11, 5772, Note_on_c, 9, 36, 0
11, 5772, Note_on_c, 9, 46, 0
11, 5808, Note_on_c, 9, 44, 80
11, 5820, Note_on_c, 9, 44, 0
11, 5856, Note_on_c, 9, 46, 69
11, 5856, Note_on_c, 9, 36, 120
11, 5868, Note_on_c, 9, 36, 0
11, 5868, Note_on_c, 9, 46, 0
11, 5904, Note_on_c, 9, 44, 80
11, 5916, Note_on_c, 9, 44, 0
11, 5952, Note_on_c, 9, 46, 69
11, 5952, Note_on_c, 9, 36, 120
11, 5964, Note_on_c, 9, 36, 0
11, 5964, Note_on_c, 9, 46, 0
11, 6000, Note_on_c, 9, 44, 80
11, 6012, Note_on_c, 9, 44, 0
11, 6048, Note_on_c, 9, 46, 69
11, 6048, Note_on_c, 9, 36, 120
11, 6060, Note_on_c, 9, 36, 0
11, 6060, Note_on_c, 9, 46, 0
11, 6096, Note_on_c, 9, 44, 80
11, 6108, Note_on_c, 9, 44, 0
11, 6144, Note_on_c, 9, 46, 69
11, 6144, Note_on_c, 9, 36, 120
11, 6156, Note_on_c, 9, 36, 0
11, 6156, Note_on_c, 9, 46, 0
11, 6192, Note_on_c, 9, 44, 80
11, 6204, Note_on_c, 9, 44, 0
11, 6240, Note_on_c, 9, 46, 69
11, 6240, Note_on_c, 9, 36, 120
11, 6252, Note_on_c, 9, 36, 0
11, 6252, Note_on_c, 9, 46, 0
11, 6288, Note_on_c, 9, 44, 80
11, 6300, Note_on_c, 9, 44, 0
11, 6336, Note_on_c, 9, 46, 69
11, 6336, Note_on_c, 9, 36, 120
11, 6348, Note_on_c, 9, 36, 0
11, 6348, Note_on_c, 9, 46, 0
11, 6384, Note_on_c, 9, 44, 80
11, 6396, Note_on_c, 9, 44, 0
11, 6432, Note_on_c, 9, 46, 69
11, 6432, Note_on_c, 9, 36, 120
11, 6444, Note_on_c, 9, 36, 0
11, 6444, Note_on_c, 9, 46, 0
11, 6480, Note_on_c, 9, 44, 80
11, 6492, Note_on_c, 9, 44, 0
11, 6528, Note_on_c, 9, 46, 69
11, 6528, Note_on_c, 9, 36, 120
11, 6540, Note_on_c, 9, 36, 0
11, 6540, Note_on_c, 9, 46, 0
11, 6576, Note_on_c, 9, 44, 80
11, 6588, Note_on_c, 9, 44, 0
11, 6624, Note_on_c, 9, 46, 69
11, 6624, Note_on_c, 9, 36, 120
11, 6636, Note_on_c, 9, 36, 0
11, 6636, Note_on_c, 9, 46, 0
11, 6672, Note_on_c, 9, 44, 80
11, 6684, Note_on_c, 9, 44, 0
11, 6720, Note_on_c, 9, 46, 69
11, 6720, Note_on_c, 9, 36, 120
11, 6732, Note_on_c, 9, 36, 0
11, 6732, Note_on_c, 9, 46, 0
11, 6768, Note_on_c, 9, 44, 80
11, 6780, Note_on_c, 9, 44, 0
11, 6816, Note_on_c, 9, 46, 69
11, 6816, Note_on_c, 9, 36, 120
11, 6828, Note_on_c, 9, 36, 0
11, 6828, Note_on_c, 9, 46, 0
11, 6864, Note_on_c, 9, 44, 80
11, 6876, Note_on_c, 9, 44, 0
11, 6912, Note_on_c, 9, 46, 69
11, 6912, Note_on_c, 9, 36, 120
11, 6924, Note_on_c, 9, 36, 0
11, 6924, Note_on_c, 9, 46, 0
11, 6960, Note_on_c, 9, 44, 80
11, 6972, Note_on_c, 9, 44, 0
11, 7008, Note_on_c, 9, 46, 69
11, 7008, Note_on_c, 9, 36, 120
11, 7020, Note_on_c, 9, 36, 0
11, 7020, Note_on_c, 9, 46, 0
11, 7056, Note_on_c, 9, 44, 80
11, 7068, Note_on_c, 9, 44, 0
11, 7104, Note_on_c, 9, 46, 69
11, 7104, Note_on_c, 9, 36, 120
11, 7116, Note_on_c, 9, 36, 0
11, 7116, Note_on_c, 9, 46, 0
11, 7152, Note_on_c, 9, 44, 80
11, 7164, Note_on_c, 9, 44, 0
11, 7200, Note_on_c, 9, 46, 69
11, 7200, Note_on_c, 9, 36, 120
11, 7212, Note_on_c, 9, 36, 0
11, 7212, Note_on_c, 9, 46, 0
11, 7248, Note_on_c, 9, 44, 80
11, 7260, Note_on_c, 9, 44, 0
11, 7296, Note_on_c, 9, 46, 69
11, 7296, Note_on_c, 9, 36, 120
11, 7308, Note_on_c, 9, 36, 0
11, 7308, Note_on_c, 9, 46, 0
11, 7344, Note_on_c, 9, 44, 80
11, 7356, Note_on_c, 9, 44, 0
11, 7392, Note_on_c, 9, 46, 69
11, 7392, Note_on_c, 9, 36, 120
11, 7404, Note_on_c, 9, 36, 0
11, 7404, Note_on_c, 9, 46, 0
11, 7440, Note_on_c, 9, 44, 80
11, 7452, Note_on_c, 9, 44, 0
11, 7488, Note_on_c, 9, 46, 69
11, 7488, Note_on_c, 9, 36, 120
11, 7500, Note_on_c, 9, 36, 0
11, 7500, Note_on_c, 9, 46, 0
11, 7536, Note_on_c, 9, 44, 80
11, 7548, Note_on_c, 9, 44, 0
11, 7584, Note_on_c, 9, 46, 69
11, 7584, Note_on_c, 9, 36, 120
11, 7596, Note_on_c, 9, 36, 0
11, 7596, Note_on_c, 9, 46, 0
11, 7632, Note_on_c, 9, 44, 80
11, 7644, Note_on_c, 9, 44, 0
11, 7680, Note_on_c, 9, 46, 69
11, 7680, Note_on_c, 9, 36, 120
11, 7692, Note_on_c, 9, 36, 0
11, 7692, Note_on_c, 9, 46, 0
11, 7728, Note_on_c, 9, 44, 80
11, 7740, Note_on_c, 9, 44, 0
11, 7776, Note_on_c, 9, 46, 69
11, 7776, Note_on_c, 9, 36, 120
11, 7788, Note_on_c, 9, 36, 0
11, 7788, Note_on_c, 9, 46, 0
11, 7824, Note_on_c, 9, 44, 80
11, 7836, Note_on_c, 9, 44, 0
11, 7872, Note_on_c, 9, 46, 69
11, 7872, Note_on_c, 9, 36, 120
11, 7884, Note_on_c, 9, 36, 0
11, 7884, Note_on_c, 9, 46, 0
11, 7920, Note_on_c, 9, 44, 80
11, 7932, Note_on_c, 9, 44, 0
11, 7968, Note_on_c, 9, 46, 68
11, 7968, Note_on_c, 9, 36, 120
11, 7980, Note_on_c, 9, 36, 0
11, 7980, Note_on_c, 9, 46, 0
11, 8016, Note_on_c, 9, 44, 80
11, 8028, Note_on_c, 9, 44, 0
11, 8064, Note_on_c, 9, 46, 68
11, 8064, Note_on_c, 9, 36, 120
11, 8076, Note_on_c, 9, 36, 0
11, 8076, Note_on_c, 9, 46, 0
11, 8112, Note_on_c, 9, 44, 80
11, 8124, Note_on_c, 9, 44, 0
11, 8160, Note_on_c, 9, 46, 68
11, 8160, Note_on_c, 9, 36, 120
11, 8172, Note_on_c, 9, 36, 0
11, 8172, Note_on_c, 9, 46, 0
11, 8208, Note_on_c, 9, 44, 80
11, 8220, Note_on_c, 9, 44, 0
11, 8256, Note_on_c, 9, 46, 68
11, 8256, Note_on_c, 9, 36, 120
11, 8268, Note_on_c, 9, 36, 0
11, 8268, Note_on_c, 9, 46, 0
11, 8304, Note_on_c, 9, 44, 80
11, 8316, Note_on_c, 9, 44, 0
11, 8352, Note_on_c, 9, 46, 68
11, 8352, Note_on_c, 9, 36, 120
11, 8364, Note_on_c, 9, 36, 0
11, 8364, Note_on_c, 9, 46, 0
11, 8400, Note_on_c, 9, 44, 80
11, 8412, Note_on_c, 9, 44, 0
11, 8448, Note_on_c, 9, 46, 68
11, 8448, Note_on_c, 9, 36, 120
11, 8460, Note_on_c, 9, 36, 0
11, 8460, Note_on_c, 9, 46, 0
11, 8496, Note_on_c, 9, 44, 80
11, 8508, Note_on_c, 9, 44, 0
11, 8544, Note_on_c, 9, 46, 68
11, 8544, Note_on_c, 9, 36, 120
11, 8556, Note_on_c, 9, 36, 0
11, 8556, Note_on_c, 9, 46, 0
11, 8592, Note_on_c, 9, 44, 80
11, 8604, Note_on_c, 9, 44, 0
11, 8640, Note_on_c, 9, 46, 68
11, 8640, Note_on_c, 9, 36, 120
11, 8652, Note_on_c, 9, 36, 0
11, 8652, Note_on_c, 9, 46, 0
11, 8688, Note_on_c, 9, 44, 80
11, 8700, Note_on_c, 9, 44, 0
11, 8736, Note_on_c, 9, 46, 68
11, 8736, Note_on_c, 9, 36, 120
11, 8748, Note_on_c, 9, 36, 0
11, 8748, Note_on_c, 9, 46, 0
11, 8784, Note_on_c, 9, 44, 80
11, 8796, Note_on_c, 9, 44, 0
11, 8832, Note_on_c, 9, 46, 68
11, 8832, Note_on_c, 9, 36, 120
11, 8844, Note_on_c, 9, 36, 0
11, 8844, Note_on_c, 9, 46, 0
11, 8880, Note_on_c, 9, 44, 80
11, 8892, Note_on_c, 9, 44, 0
11, 8928, Note_on_c, 9, 46, 68
11, 8928, Note_on_c, 9, 36, 120
11, 8940, Note_on_c, 9, 36, 0
11, 8940, Note_on_c, 9, 46, 0
11, 8976, Note_on_c, 9, 44, 80
11, 8988, Note_on_c, 9, 44, 0
11, 9024, Note_on_c, 9, 46, 68
11, 9024, Note_on_c, 9, 36, 120
11, 9036, Note_on_c, 9, 36, 0
11, 9036, Note_on_c, 9, 46, 0
11, 9072, Note_on_c, 9, 44, 80
11, 9084, Note_on_c, 9, 44, 0
11, 9120, Note_on_c, 9, 46, 68
11, 9120, Note_on_c, 9, 36, 120
11, 9132, Note_on_c, 9, 36, 0
11, 9132, Note_on_c, 9, 46, 0
11, 9168, Note_on_c, 9, 44, 80
11, 9180, Note_on_c, 9, 44, 0
11, 9216, Note_on_c, 9, 46, 68
11, 9216, Note_on_c, 9, 36, 120
11, 9228, Note_on_c, 9, 36, 0
11, 9228, Note_on_c, 9, 46, 0
11, 9264, Note_on_c, 9, 44, 80
11, 9276, Note_on_c, 9, 44, 0
11, 9312, Note_on_c, 9, 46, 68
11, 9312, Note_on_c, 9, 36, 120
11, 9324, Note_on_c, 9, 36, 0
11, 9324, Note_on_c, 9, 46, 0
11, 9360, Note_on_c, 9, 44, 80
11, 9372, Note_on_c, 9, 44, 0
11, 9408, Note_on_c, 9, 46, 68
11, 9408, Note_on_c, 9, 36, 120
11, 9420, Note_on_c, 9, 36, 0
11, 9420, Note_on_c, 9, 46, 0
11, 9456, Note_on_c, 9, 44, 80
11, 9468, Note_on_c, 9, 44, 0
11, 9504, Note_on_c, 9, 46, 68
11, 9504, Note_on_c, 9, 36, 120
11, 9516, Note_on_c, 9, 36, 0
11, 9516, Note_on_c, 9, 46, 0
11, 9552, Note_on_c, 9, 44, 80
11, 9564, Note_on_c, 9, 44, 0
11, 9600, Note_on_c, 9, 46, 68
11, 9600, Note_on_c, 9, 36, 120
11, 9612, Note_on_c, 9, 36, 0
11, 9612, Note_on_c, 9, 46, 0
11, 9648, Note_on_c, 9, 44, 80
11, 9660, Note_on_c, 9, 44, 0
11, 9696, Note_on_c, 9, 46, 68
11, 9696, Note_on_c, 9, 36, 120
11, 9708, Note_on_c, 9, 36, 0
11, 9708, Note_on_c, 9, 46, 0
11, 9744, Note_on_c, 9, 44, 80
11, 9756, Note_on_c, 9, 44, 0
11, 9792, Note_on_c, 9, 46, 68
11, 9792, Note_on_c, 9, 36, 120
11, 9804, Note_on_c, 9, 36, 0
11, 9804, Note_on_c, 9, 46, 0
11, 9840, Note_on_c, 9, 44, 80
11, 9852, Note_on_c, 9, 44, 0
11, 9888, Note_on_c, 9, 46, 68
11, 9888, Note_on_c, 9, 36, 120
11, 9900, Note_on_c, 9, 36, 0
11, 9900, Note_on_c, 9, 46, 0
11, 9936, Note_on_c, 9, 44, 80
11, 9948, Note_on_c, 9, 44, 0
11, 9984, Note_on_c, 9, 46, 68
11, 9984, Note_on_c, 9, 36, 120
11, 9996, Note_on_c, 9, 36, 0
11, 9996, Note_on_c, 9, 46, 0
11, 10032, Note_on_c, 9, 44, 80
11, 10044, Note_on_c, 9, 44, 0
11, 10080, Note_on_c, 9, 46, 68
11, 10080, Note_on_c, 9, 36, 120
11, 10092, Note_on_c, 9, 36, 0
11, 10092, Note_on_c, 9, 46, 0
11, 10128, Note_on_c, 9, 44, 80
11, 10140, Note_on_c, 9, 44, 0
11, 10176, Note_on_c, 9, 46, 68
11, 10176, Note_on_c, 9, 36, 120
11, 10188, Note_on_c, 9, 36, 0
11, 10188, Note_on_c, 9, 46, 0
11, 10224, Note_on_c, 9, 44, 80
11, 10236, Note_on_c, 9, 44, 0
11, 10272, Note_on_c, 9, 46, 67
11, 10272, Note_on_c, 9, 36, 120
11, 10284, Note_on_c, 9, 36, 0
11, 10284, Note_on_c, 9, 46, 0
11, 10320, Note_on_c, 9, 44, 80
11, 10332, Note_on_c, 9, 44, 0
11, 10368, Note_on_c, 9, 46, 67
11, 10368, Note_on_c, 9, 36, 120
11, 10380, Note_on_c, 9, 36, 0
11, 10380, Note_on_c, 9, 46, 0
11, 10416, Note_on_c, 9, 44, 31
11, 10428, Note_on_c, 9, 44, 0
11, 10752, Note_on_c, 9, 46, 67
11, 10752, Note_on_c, 9, 36, 120
11, 10764, Note_on_c, 9, 36, 0
11, 10764, Note_on_c, 9, 46, 0
11, 10800, Note_on_c, 9, 44, 90
11, 10812, Note_on_c, 9, 44, 0
11, 10848, Note_on_c, 9, 46, 67
11, 10848, Note_on_c, 9, 36, 120
11, 10860, Note_on_c, 9, 36, 0
11, 10860, Note_on_c, 9, 46, 0
11, 10896, Note_on_c, 9, 44, 90
11, 10908, Note_on_c, 9, 44, 0
11, 10944, Note_on_c, 9, 46, 67
11, 10944, Note_on_c, 9, 36, 120
11, 10956, Note_on_c, 9, 36, 0
11, 10956, Note_on_c, 9, 46, 0
11, 10992, Note_on_c, 9, 44, 90
11, 11004, Note_on_c, 9, 44, 0
11, 11040, Note_on_c, 9, 46, 67
11, 11040, Note_on_c, 9, 36, 120
11, 11052, Note_on_c, 9, 36, 0
11, 11052, Note_on_c, 9, 46, 0
11, 11088, Note_on_c, 9, 44, 90
11, 11100, Note_on_c, 9, 44, 0
11, 11136, Note_on_c, 9, 46, 67
11, 11136, Note_on_c, 9, 36, 120
11, 11148, Note_on_c, 9, 36, 0
11, 11148, Note_on_c, 9, 46, 0
11, 11184, Note_on_c, 9, 44, 90
11, 11196, Note_on_c, 9, 44, 0
11, 11232, Note_on_c, 9, 46, 67
11, 11232, Note_on_c, 9, 36, 120
11, 11244, Note_on_c, 9, 36, 0
11, 11244, Note_on_c, 9, 46, 0
11, 11280, Note_on_c, 9, 44, 90
11, 11292, Note_on_c, 9, 44, 0
11, 11328, Note_on_c, 9, 46, 67
11, 11328, Note_on_c, 9, 36, 120
11, 11340, Note_on_c, 9, 36, 0
11, 11340, Note_on_c, 9, 46, 0
11, 11376, Note_on_c, 9, 44, 90
11, 11388, Note_on_c, 9, 44, 0
11, 11424, Note_on_c, 9, 46, 67
11, 11424, Note_on_c, 9, 36, 120
11, 11436, Note_on_c, 9, 36, 0
11, 11436, Note_on_c, 9, 46, 0
11, 11472, Note_on_c, 9, 44, 90
11, 11484, Note_on_c, 9, 44, 0
11, 11520, Note_on_c, 9, 46, 67
11, 11520, Note_on_c, 9, 36, 120
11, 11532, Note_on_c, 9, 36, 0
11, 11532, Note_on_c, 9, 46, 0
11, 11568, Note_on_c, 9, 44, 90
11, 11580, Note_on_c, 9, 44, 0
11, 11616, Note_on_c, 9, 46, 67
11, 11616, Note_on_c, 9, 40, 127
11, 11628, Note_on_c, 9, 40, 0
11, 11628, Note_on_c, 9, 46, 0
11, 11640, Note_on_c, 9, 42, 31
11, 11652, Note_on_c, 9, 42, 0
11, 11664, Note_on_c, 9, 44, 90
11, 11676, Note_on_c, 9, 44, 0
11, 11712, Note_on_c, 9, 46, 67
11, 11712, Note_on_c, 9, 36, 120
11, 11724, Note_on_c, 9, 36, 0
11, 11724, Note_on_c, 9, 46, 0
11, 11736, Note_on_c, 9, 42, 31
11, 11748, Note_on_c, 9, 42, 0
11, 11760, Note_on_c, 9, 44, 90
11, 11772, Note_on_c, 9, 44, 0
11, 11808, Note_on_c, 9, 46, 67
11, 11808, Note_on_c, 9, 40, 127
11, 11820, Note_on_c, 9, 40, 0
11, 11820, Note_on_c, 9, 46, 0
11, 11832, Note_on_c, 9, 42, 31
11, 11844, Note_on_c, 9, 42, 0
11, 11856, Note_on_c, 9, 44, 90
11, 11868, Note_on_c, 9, 44, 0
11, 11904, Note_on_c, 9, 46, 67
11, 11904, Note_on_c, 9, 36, 120
11, 11916, Note_on_c, 9, 36, 0
11, 11916, Note_on_c, 9, 46, 0
11, 11928, Note_on_c, 9, 42, 31
11, 11940, Note_on_c, 9, 42, 0
11, 11952, Note_on_c, 9, 44, 90
11, 11964, Note_on_c, 9, 44, 0
11, 12000, Note_on_c, 9, 46, 67
11, 12000, Note_on_c, 9, 40, 127
11, 12012, Note_on_c, 9, 40, 0
11, 12012, Note_on_c, 9, 46, 0
11, 12024, Note_on_c, 9, 42, 31
11, 12036, Note_on_c, 9, 42, 0
11, 12048, Note_on_c, 9, 44, 90
11, 12060, Note_on_c, 9, 44, 0
11, 12096, Note_on_c, 9, 46, 67
11, 12096, Note_on_c, 9, 36, 120
11, 12108, Note_on_c, 9, 36, 0
11, 12108, Note_on_c, 9, 46, 0
11, 12120, Note_on_c, 9, 42, 31
11, 12132, Note_on_c, 9, 42, 0
11, 12144, Note_on_c, 9, 44, 90
11, 12156, Note_on_c, 9, 44, 0
11, 12192, Note_on_c, 9, 46, 67
11, 12192, Note_on_c, 9, 40, 127
11, 12204, Note_on_c, 9, 40, 0
11, 12204, Note_on_c, 9, 46, 0
11, 12216, Note_on_c, 9, 42, 31
11, 12228, Note_on_c, 9, 42, 0
11, 12240, Note_on_c, 9, 44, 90
11, 12252, Note_on_c, 9, 44, 0
11, 12288, Note_on_c, 9, 46, 67
11, 12288, Note_on_c, 9, 36, 120
11, 12300, Note_on_c, 9, 36, 0
11, 12300, Note_on_c, 9, 46, 0
11, 12312, Note_on_c, 9, 42, 31
11, 12324, Note_on_c, 9, 42, 0
11, 12336, Note_on_c, 9, 44, 90
11, 12348, Note_on_c, 9, 44, 0
11, 12384, Note_on_c, 9, 46, 67
11, 12384, Note_on_c, 9, 40, 127
11, 12396, Note_on_c, 9, 40, 0
11, 12396, Note_on_c, 9, 46, 0
11, 12408, Note_on_c, 9, 42, 31
11, 12420, Note_on_c, 9, 42, 0
11, 12432, Note_on_c, 9, 44, 90
11, 12444, Note_on_c, 9, 44, 0
11, 12480, Note_on_c, 9, 46, 66
11, 12480, Note_on_c, 9, 36, 120
11, 12492, Note_on_c, 9, 36, 0
11, 12492, Note_on_c, 9, 46, 0
11, 12504, Note_on_c, 9, 42, 31
11, 12516, Note_on_c, 9, 42, 0
11, 12528, Note_on_c, 9, 44, 90
11, 12540, Note_on_c, 9, 44, 0
11, 12576, Note_on_c, 9, 46, 66
11, 12576, Note_on_c, 9, 40, 127
11, 12588, Note_on_c, 9, 40, 0
11, 12588, Note_on_c, 9, 46, 0
11, 12600, Note_on_c, 9, 42, 31
11, 12612, Note_on_c, 9, 42, 0
11, 12624, Note_on_c, 9, 44, 90
11, 12636, Note_on_c, 9, 44, 0
11, 12672, Note_on_c, 9, 46, 66
11, 12672, Note_on_c, 9, 36, 120
11, 12684, Note_on_c, 9, 36, 0
11, 12684, Note_on_c, 9, 46, 0
11, 12696, Note_on_c, 9, 42, 31
11, 12708, Note_on_c, 9, 42, 0
11, 12720, Note_on_c, 9, 44, 90
11, 12732, Note_on_c, 9, 44, 0
11, 12768, Note_on_c, 9, 46, 66
11, 12768, Note_on_c, 9, 40, 127
11, 12780, Note_on_c, 9, 40, 0
11, 12780, Note_on_c, 9, 46, 0
11, 12792, Note_on_c, 9, 42, 31
11, 12804, Note_on_c, 9, 42, 0
11, 12816, Note_on_c, 9, 44, 90
11, 12828, Note_on_c, 9, 44, 0
11, 12864, Note_on_c, 9, 46, 66
11, 12864, Note_on_c, 9, 36, 120
11, 12876, Note_on_c, 9, 36, 0
11, 12876, Note_on_c, 9, 46, 0
11, 12888, Note_on_c, 9, 42, 31
11, 12900, Note_on_c, 9, 42, 0
11, 12912, Note_on_c, 9, 44, 90
11, 12924, Note_on_c, 9, 44, 0
11, 12960, Note_on_c, 9, 46, 66
11, 12960, Note_on_c, 9, 40, 127
11, 12972, Note_on_c, 9, 40, 0
11, 12972, Note_on_c, 9, 46, 0
11, 12984, Note_on_c, 9, 42, 31
11, 12996, Note_on_c, 9, 42, 0
11, 13008, Note_on_c, 9, 44, 90
11, 13020, Note_on_c, 9, 44, 0
11, 13056, Note_on_c, 9, 46, 66
11, 13056, Note_on_c, 9, 36, 120
11, 13068, Note_on_c, 9, 36, 0
11, 13068, Note_on_c, 9, 46, 0
11, 13080, Note_on_c, 9, 42, 31
11, 13092, Note_on_c, 9, 42, 0
11, 13104, Note_on_c, 9, 44, 90
11, 13116, Note_on_c, 9, 44, 0
11, 13152, Note_on_c, 9, 46, 66
11, 13152, Note_on_c, 9, 40, 127
11, 13164, Note_on_c, 9, 40, 0
11, 13164, Note_on_c, 9, 46, 0
11, 13176, Note_on_c, 9, 42, 31
11, 13188, Note_on_c, 9, 42, 0
11, 13200, Note_on_c, 9, 44, 90
11, 13212, Note_on_c, 9, 44, 0
11, 13248, Note_on_c, 9, 46, 66
11, 13248, Note_on_c, 9, 36, 120
11, 13260, Note_on_c, 9, 36, 0
11, 13260, Note_on_c, 9, 46, 0
11, 13272, Note_on_c, 9, 42, 31
11, 13284, Note_on_c, 9, 42, 0
11, 13296, Note_on_c, 9, 44, 90
11, 13308, Note_on_c, 9, 44, 0
11, 13344, Note_on_c, 9, 46, 66
11, 13344, Note_on_c, 9, 40, 127
11, 13356, Note_on_c, 9, 40, 0
11, 13356, Note_on_c, 9, 46, 0
11, 13368, Note_on_c, 9, 42, 31
11, 13380, Note_on_c, 9, 42, 0
11, 13392, Note_on_c, 9, 44, 90
11, 13404, Note_on_c, 9, 44, 0
11, 13440, Note_on_c, 9, 46, 66
11, 13440, Note_on_c, 9, 36, 120
11, 13452, Note_on_c, 9, 36, 0
11, 13452, Note_on_c, 9, 46, 0
11, 13464, Note_on_c, 9, 42, 31
11, 13476, Note_on_c, 9, 42, 0
11, 13488, Note_on_c, 9, 44, 90
11, 13500, Note_on_c, 9, 44, 0
11, 13536, Note_on_c, 9, 46, 66
11, 13536, Note_on_c, 9, 40, 127
11, 13548, Note_on_c, 9, 40, 0
11, 13548, Note_on_c, 9, 46, 0
11, 13560, Note_on_c, 9, 42, 31
11, 13572, Note_on_c, 9, 42, 0
11, 13584, Note_on_c, 9, 44, 90
11, 13596, Note_on_c, 9, 44, 0
11, 13632, Note_on_c, 9, 46, 66
11, 13632, Note_on_c, 9, 36, 120
11, 13644, Note_on_c, 9, 36, 0
11, 13644, Note_on_c, 9, 46, 0
11, 13656, Note_on_c, 9, 42, 31
11, 13668, Note_on_c, 9, 42, 0
11, 13680, Note_on_c, 9, 44, 90
11, 13692, Note_on_c, 9, 44, 0
11, 13728, Note_on_c, 9, 46, 66
11, 13728, Note_on_c, 9, 40, 127
11, 13740, Note_on_c, 9, 40, 0
11, 13740, Note_on_c, 9, 46, 0
11, 13752, Note_on_c, 9, 42, 31
11, 13764, Note_on_c, 9, 42, 0
11, 13776, Note_on_c, 9, 44, 90
11, 13788, Note_on_c, 9, 44, 0
11, 13824, Note_on_c, 9, 46, 66
11, 13824, Note_on_c, 9, 36, 120
11, 13836, Note_on_c, 9, 36, 0
11, 13836, Note_on_c, 9, 46, 0
11, 13848, Note_on_c, 9, 42, 31
11, 13860, Note_on_c, 9, 42, 0
11, 13872, Note_on_c, 9, 44, 90
11, 13884, Note_on_c, 9, 44, 0
11, 13920, Note_on_c, 9, 46, 66
11, 13920, Note_on_c, 9, 40, 127
11, 13932, Note_on_c, 9, 40, 0
11, 13932, Note_on_c, 9, 46, 0
11, 13944, Note_on_c, 9, 42, 31
11, 13956, Note_on_c, 9, 42, 0
11, 13968, Note_on_c, 9, 44, 90
11, 13980, Note_on_c, 9, 44, 0
11, 14016, Note_on_c, 9, 46, 66
11, 14016, Note_on_c, 9, 36, 120
11, 14028, Note_on_c, 9, 36, 0
11, 14028, Note_on_c, 9, 46, 0
11, 14040, Note_on_c, 9, 42, 31
11, 14052, Note_on_c, 9, 42, 0
11, 14064, Note_on_c, 9, 44, 90
11, 14076, Note_on_c, 9, 44, 0
11, 14112, Note_on_c, 9, 46, 66
11, 14112, Note_on_c, 9, 40, 127
11, 14124, Note_on_c, 9, 40, 0
11, 14124, Note_on_c, 9, 46, 0
11, 14136, Note_on_c, 9, 42, 31
11, 14148, Note_on_c, 9, 42, 0
11, 14160, Note_on_c, 9, 44, 90
11, 14172, Note_on_c, 9, 44, 0
11, 14208, Note_on_c, 9, 46, 66
11, 14208, Note_on_c, 9, 36, 120
11, 14220, Note_on_c, 9, 36, 0
11, 14220, Note_on_c, 9, 46, 0
11, 14232, Note_on_c, 9, 42, 31
11, 14244, Note_on_c, 9, 42, 0
11, 14256, Note_on_c, 9, 44, 90
11, 14268, Note_on_c, 9, 44, 0
11, 14304, Note_on_c, 9, 46, 66
11, 14304, Note_on_c, 9, 40, 127
11, 14316, Note_on_c, 9, 40, 0
11, 14316, Note_on_c, 9, 46, 0
11, 14328, Note_on_c, 9, 42, 31
11, 14340, Note_on_c, 9, 42, 0
11, 14352, Note_on_c, 9, 44, 90
11, 14364, Note_on_c, 9, 44, 0
11, 14400, Note_on_c, 9, 46, 66
11, 14400, Note_on_c, 9, 36, 120
11, 14412, Note_on_c, 9, 36, 0
11, 14412, Note_on_c, 9, 46, 0
11, 14424, Note_on_c, 9, 42, 31
11, 14436, Note_on_c, 9, 42, 0
11, 14448, Note_on_c, 9, 44, 90
11, 14460, Note_on_c, 9, 44, 0
11, 14496, Note_on_c, 9, 46, 66
11, 14496, Note_on_c, 9, 40, 127
11, 14508, Note_on_c, 9, 40, 0
11, 14508, Note_on_c, 9, 46, 0
11, 14520, Note_on_c, 9, 42, 31
11, 14532, Note_on_c, 9, 42, 0
11, 14544, Note_on_c, 9, 44, 90
11, 14556, Note_on_c, 9, 44, 0
11, 14592, Note_on_c, 9, 46, 66
11, 14592, Note_on_c, 9, 36, 120
11, 14604, Note_on_c, 9, 36, 0
11, 14604, Note_on_c, 9, 46, 0
11, 14616, Note_on_c, 9, 42, 31
11, 14628, Note_on_c, 9, 42, 0
11, 14640, Note_on_c, 9, 44, 90
11, 14652, Note_on_c, 9, 44, 0
11, 14688, Note_on_c, 9, 46, 66
11, 14688, Note_on_c, 9, 40, 127
11, 14700, Note_on_c, 9, 40, 0
11, 14700, Note_on_c, 9, 46, 0
11, 14712, Note_on_c, 9, 42, 31
11, 14724, Note_on_c, 9, 42, 0
11, 14736, Note_on_c, 9, 44, 90
11, 14748, Note_on_c, 9, 44, 0
11, 14784, Note_on_c, 9, 46, 65
11, 14784, Note_on_c, 9, 36, 120
11, 14796, Note_on_c, 9, 36, 0
11, 14796, Note_on_c, 9, 46, 0
11, 14808, Note_on_c, 9, 42, 31
11, 14820, Note_on_c, 9, 42, 0
11, 14832, Note_on_c, 9, 44, 90
11, 14844, Note_on_c, 9, 44, 0
11, 14880, Note_on_c, 9, 46, 65
11, 14880, Note_on_c, 9, 40, 127
11, 14892, Note_on_c, 9, 40, 0
11, 14892, Note_on_c, 9, 46, 0
11, 14928, Note_on_c, 9, 44, 90
11, 14928, Note_on_c, 9, 40, 95
11, 14940, Note_on_c, 9, 40, 0
11, 14940, Note_on_c, 9, 44, 0
11, 14952, Note_on_c, 9, 40, 111
11, 14964, Note_on_c, 9, 40, 0
11, 14976, Note_on_c, 9, 49, 100
11, 14976, Note_on_c, 9, 36, 120
11, 14988, Note_on_c, 9, 36, 0
11, 14988, Note_on_c, 9, 49, 0
11, 15000, Note_on_c, 9, 42, 31
11, 15012, Note_on_c, 9, 42, 0
11, 15024, Note_on_c, 9, 44, 90
11, 15036, Note_on_c, 9, 44, 0
11, 15072, Note_on_c, 9, 46, 65
11, 15072, Note_on_c, 9, 40, 127
11, 15084, Note_on_c, 9, 40, 0
11, 15084, Note_on_c, 9, 46, 0
11, 15096, Note_on_c, 9, 42, 31
11, 15108, Note_on_c, 9, 42, 0
11, 15120, Note_on_c, 9, 44, 90
11, 15132, Note_on_c, 9, 44, 0
11, 15168, Note_on_c, 9, 46, 65
11, 15168, Note_on_c, 9, 36, 120
11, 15180, Note_on_c, 9, 36, 0
11, 15180, Note_on_c, 9, 46, 0
11, 15192, Note_on_c, 9, 42, 31
11, 15204, Note_on_c, 9, 42, 0
11, 15216, Note_on_c, 9, 44, 90
11, 15228, Note_on_c, 9, 44, 0
11, 15264, Note_on_c, 9, 46, 65
11, 15264, Note_on_c, 9, 40, 127
11, 15276, Note_on_c, 9, 40, 0
11, 15276, Note_on_c, 9, 46, 0
11, 15288, Note_on_c, 9, 42, 31
11, 15300, Note_on_c, 9, 42, 0
11, 15312, Note_on_c, 9, 44, 90
11, 15324, Note_on_c, 9, 44, 0
11, 15360, Note_on_c, 9, 46, 65
11, 15360, Note_on_c, 9, 36, 120
11, 15372, Note_on_c, 9, 36, 0
11, 15372, Note_on_c, 9, 46, 0
11, 15384, Note_on_c, 9, 42, 31
11, 15396, Note_on_c, 9, 42, 0
11, 15408, Note_on_c, 9, 44, 90
11, 15420, Note_on_c, 9, 44, 0
11, 15456, Note_on_c, 9, 46, 65
11, 15456, Note_on_c, 9, 40, 127
11, 15468, Note_on_c, 9, 40, 0
11, 15468, Note_on_c, 9, 46, 0
11, 15480, Note_on_c, 9, 42, 31
11, 15492, Note_on_c, 9, 42, 0
11, 15504, Note_on_c, 9, 44, 90
11, 15516, Note_on_c, 9, 44, 0
11, 15552, Note_on_c, 9, 46, 65
11, 15552, Note_on_c, 9, 36, 120
11, 15564, Note_on_c, 9, 36, 0
11, 15564, Note_on_c, 9, 46, 0
11, 15576, Note_on_c, 9, 42, 31
11, 15588, Note_on_c, 9, 42, 0
11, 15600, Note_on_c, 9, 44, 90
11, 15612, Note_on_c, 9, 44, 0
11, 15648, Note_on_c, 9, 46, 65
11, 15648, Note_on_c, 9, 40, 127
11, 15660, Note_on_c, 9, 40, 0
11, 15660, Note_on_c, 9, 46, 0
11, 15672, Note_on_c, 9, 42, 31
11, 15684, Note_on_c, 9, 42, 0
11, 15696, Note_on_c, 9, 44, 90
11, 15708, Note_on_c, 9, 44, 0
11, 15744, Note_on_c, 9, 46, 65
11, 15744, Note_on_c, 9, 36, 120
11, 15756, Note_on_c, 9, 36, 0
11, 15756, Note_on_c, 9, 46, 0
11, 15768, Note_on_c, 9, 42, 31
11, 15780, Note_on_c, 9, 42, 0
11, 15792, Note_on_c, 9, 44, 90
11, 15804, Note_on_c, 9, 44, 0
11, 15840, Note_on_c, 9, 46, 65
11, 15840, Note_on_c, 9, 40, 127
11, 15852, Note_on_c, 9, 40, 0
11, 15852, Note_on_c, 9, 46, 0
11, 15864, Note_on_c, 9, 42, 31
11, 15876, Note_on_c, 9, 42, 0
11, 15888, Note_on_c, 9, 44, 90
11, 15900, Note_on_c, 9, 44, 0
11, 15936, Note_on_c, 9, 46, 65
11, 15936, Note_on_c, 9, 36, 120
11, 15948, Note_on_c, 9, 36, 0
11, 15948, Note_on_c, 9, 46, 0
11, 15960, Note_on_c, 9, 42, 31
11, 15972, Note_on_c, 9, 42, 0
11, 15984, Note_on_c, 9, 44, 90
11, 15996, Note_on_c, 9, 44, 0
11, 16032, Note_on_c, 9, 46, 65
11, 16032, Note_on_c, 9, 40, 127
11, 16044, Note_on_c, 9, 40, 0
11, 16044, Note_on_c, 9, 46, 0
11, 16056, Note_on_c, 9, 42, 31
11, 16068, Note_on_c, 9, 42, 0
11, 16080, Note_on_c, 9, 44, 90
11, 16092, Note_on_c, 9, 44, 0
11, 16128, Note_on_c, 9, 46, 65
11, 16128, Note_on_c, 9, 36, 120
11, 16140, Note_on_c, 9, 36, 0
11, 16140, Note_on_c, 9, 46, 0
11, 16152, Note_on_c, 9, 42, 31
11, 16164, Note_on_c, 9, 42, 0
11, 16176, Note_on_c, 9, 44, 90
11, 16188, Note_on_c, 9, 44, 0
11, 16224, Note_on_c, 9, 46, 65
11, 16224, Note_on_c, 9, 40, 127
11, 16236, Note_on_c, 9, 40, 0
11, 16236, Note_on_c, 9, 46, 0
11, 16248, Note_on_c, 9, 42, 31
11, 16260, Note_on_c, 9, 42, 0
11, 16272, Note_on_c, 9, 44, 90
11, 16284, Note_on_c, 9, 44, 0
11, 16320, Note_on_c, 9, 46, 65
11, 16320, Note_on_c, 9, 36, 120
11, 16332, Note_on_c, 9, 36, 0
11, 16332, Note_on_c, 9, 46, 0
11, 16344, Note_on_c, 9, 42, 31
11, 16356, Note_on_c, 9, 42, 0
11, 16368, Note_on_c, 9, 44, 90
11, 16380, Note_on_c, 9, 44, 0
11, 16416, Note_on_c, 9, 46, 65
11, 16416, Note_on_c, 9, 40, 127
11, 16428, Note_on_c, 9, 40, 0
11, 16428, Note_on_c, 9, 46, 0
11, 16440, Note_on_c, 9, 42, 31
11, 16452, Note_on_c, 9, 42, 0
11, 16464, Note_on_c, 9, 44, 90
11, 16476, Note_on_c, 9, 44, 0
11, 16512, Note_on_c, 9, 46, 65
11, 16512, Note_on_c, 9, 36, 120
11, 16524, Note_on_c, 9, 36, 0
11, 16524, Note_on_c, 9, 46, 0
11, 16536, Note_on_c, 9, 42, 31
11, 16548, Note_on_c, 9, 42, 0
11, 16560, Note_on_c, 9, 44, 90
11, 16572, Note_on_c, 9, 44, 0
11, 16608, Note_on_c, 9, 46, 65
11, 16608, Note_on_c, 9, 40, 127
11, 16620, Note_on_c, 9, 40, 0
11, 16620, Note_on_c, 9, 46, 0
11, 16632, Note_on_c, 9, 42, 31
11, 16644, Note_on_c, 9, 42, 0
11, 16656, Note_on_c, 9, 44, 90
11, 16668, Note_on_c, 9, 44, 0
11, 16704, Note_on_c, 9, 46, 65
11, 16704, Note_on_c, 9, 36, 120
11, 16716, Note_on_c, 9, 36, 0
11, 16716, Note_on_c, 9, 46, 0
11, 16728, Note_on_c, 9, 42, 31
11, 16740, Note_on_c, 9, 42, 0
11, 16752, Note_on_c, 9, 44, 90
11, 16764, Note_on_c, 9, 44, 0
11, 16800, Note_on_c, 9, 46, 65
11, 16800, Note_on_c, 9, 40, 127
11, 16812, Note_on_c, 9, 40, 0
11, 16812, Note_on_c, 9, 46, 0
11, 16824, Note_on_c, 9, 44, 32
11, 16836, Note_on_c, 9, 44, 0
11, 16848, Note_on_c, 9, 36, 120
11, 16860, Note_on_c, 9, 36, 0
11, 16896, Note_on_c, 9, 40, 127
11, 16908, Note_on_c, 9, 40, 0
11, 16908, Note_on_c, 9, 40, 127
11, 16920, Note_on_c, 9, 40, 0
11, 17280, Note_on_c, 9, 57, 100
11, 17280, Note_on_c, 9, 36, 120
11, 17292, Note_on_c, 9, 36, 0
11, 17292, Note_on_c, 9, 57, 0
11, 17304, Note_on_c, 9, 44, 31
11, 17316, Note_on_c, 9, 44, 0
11, 17328, Note_on_c, 9, 44, 90
11, 17340, Note_on_c, 9, 44, 0
11, 17376, Note_on_c, 9, 46, 67
11, 17376, Note_on_c, 9, 40, 127
11, 17388, Note_on_c, 9, 40, 0
11, 17388, Note_on_c, 9, 46, 0
11, 17400, Note_on_c, 9, 44, 34
11, 17412, Note_on_c, 9, 44, 0
11, 17424, Note_on_c, 9, 44, 90
11, 17436, Note_on_c, 9, 44, 0
11, 17472, Note_on_c, 9, 46, 67
11, 17472, Note_on_c, 9, 36, 120
11, 17484, Note_on_c, 9, 36, 0
11, 17484, Note_on_c, 9, 46, 0
11, 17496, Note_on_c, 9, 44, 34
11, 17508, Note_on_c, 9, 44, 0
11, 17520, Note_on_c, 9, 44, 90
11, 17532, Note_on_c, 9, 44, 0
11, 17568, Note_on_c, 9, 46, 67
11, 17568, Note_on_c, 9, 40, 127
11, 17580, Note_on_c, 9, 40, 0
11, 17580, Note_on_c, 9, 46, 0
11, 17592, Note_on_c, 9, 44, 30
11, 17604, Note_on_c, 9, 44, 0
11, 17616, Note_on_c, 9, 44, 90
11, 17628, Note_on_c, 9, 44, 0
11, 17664, Note_on_c, 9, 46, 67
11, 17664, Note_on_c, 9, 36, 120
11, 17676, Note_on_c, 9, 36, 0
11, 17676, Note_on_c, 9, 46, 0
11, 17688, Note_on_c, 9, 44, 30
11, 17700, Note_on_c, 9, 44, 0
11, 17712, Note_on_c, 9, 44, 90
11, 17724, Note_on_c, 9, 44, 0
11, 17760, Note_on_c, 9, 46, 67
11, 17760, Note_on_c, 9, 40, 127
11, 17772, Note_on_c, 9, 40, 0
11, 17772, Note_on_c, 9, 46, 0
11, 17784, Note_on_c, 9, 44, 31
11, 17796, Note_on_c, 9, 44, 0
11, 17808, Note_on_c, 9, 44, 90
11, 17820, Note_on_c, 9, 44, 0
11, 17856, Note_on_c, 9, 46, 67
11, 17856, Note_on_c, 9, 36, 120
11, 17868, Note_on_c, 9, 36, 0
11, 17868, Note_on_c, 9, 46, 0
11, 17880, Note_on_c, 9, 44, 31
11, 17892, Note_on_c, 9, 44, 0
11, 17904, Note_on_c, 9, 44, 90
11, 17904, Note_on_c, 9, 40, 92
11, 17916, Note_on_c, 9, 40, 0
11, 17916, Note_on_c, 9, 44, 0
11, 17952, Note_on_c, 9, 46, 67
11, 17952, Note_on_c, 9, 40, 124
11, 17964, Note_on_c, 9, 40, 0
11, 17964, Note_on_c, 9, 46, 0
11, 18000, Note_on_c, 9, 44, 90
11, 18000, Note_on_c, 9, 40, 127
11, 18012, Note_on_c, 9, 40, 0
11, 18012, Note_on_c, 9, 44, 0
11, 18048, Note_on_c, 9, 57, 100
11, 18048, Note_on_c, 9, 39, 106
11, 18048, Note_on_c, 9, 36, 120
11, 18048, Note_on_c, 9, 40, 100
11, 18060, Note_on_c, 9, 40, 0
11, 18060, Note_on_c, 9, 57, 0
11, 18060, Note_on_c, 9, 39, 0
11, 18060, Note_on_c, 9, 36, 0
11, 18072, Note_on_c, 9, 44, 31
11, 18084, Note_on_c, 9, 44, 0
11, 18096, Note_on_c, 9, 44, 90
11, 18108, Note_on_c, 9, 44, 0
11, 18144, Note_on_c, 9, 46, 67
11, 18144, Note_on_c, 9, 39, 106
11, 18144, Note_on_c, 9, 40, 127
11, 18156, Note_on_c, 9, 40, 0
11, 18156, Note_on_c, 9, 39, 0
11, 18156, Note_on_c, 9, 46, 0
11, 18168, Note_on_c, 9, 44, 34
11, 18180, Note_on_c, 9, 44, 0
11, 18192, Note_on_c, 9, 44, 90
11, 18192, Note_on_c, 9, 39, 106
11, 18204, Note_on_c, 9, 39, 0
11, 18204, Note_on_c, 9, 44, 0
11, 18240, Note_on_c, 9, 46, 67
11, 18240, Note_on_c, 9, 39, 106
11, 18240, Note_on_c, 9, 36, 120
11, 18252, Note_on_c, 9, 36, 0
11, 18252, Note_on_c, 9, 39, 0
11, 18252, Note_on_c, 9, 46, 0
11, 18264, Note_on_c, 9, 44, 34
11, 18276, Note_on_c, 9, 44, 0
11, 18288, Note_on_c, 9, 44, 90
11, 18288, Note_on_c, 9, 39, 106
11, 18300, Note_on_c, 9, 39, 0
11, 18300, Note_on_c, 9, 44, 0
11, 18336, Note_on_c, 9, 46, 67
11, 18336, Note_on_c, 9, 39, 106
11, 18336, Note_on_c, 9, 40, 127
11, 18348, Note_on_c, 9, 40, 0
11, 18348, Note_on_c, 9, 39, 0
11, 18348, Note_on_c, 9, 46, 0
11, 18360, Note_on_c, 9, 44, 30
11, 18372, Note_on_c, 9, 44, 0
11, 18384, Note_on_c, 9, 44, 90
11, 18396, Note_on_c, 9, 44, 0
11, 18432, Note_on_c, 9, 46, 67
11, 18432, Note_on_c, 9, 39, 106
11, 18432, Note_on_c, 9, 36, 120
11, 18444, Note_on_c, 9, 36, 0
11, 18444, Note_on_c, 9, 39, 0
11, 18444, Note_on_c, 9, 46, 0
11, 18456, Note_on_c, 9, 44, 31
11, 18468, Note_on_c, 9, 44, 0
11, 18480, Note_on_c, 9, 44, 90
11, 18492, Note_on_c, 9, 44, 0
11, 18528, Note_on_c, 9, 46, 67
11, 18528, Note_on_c, 9, 39, 106
11, 18528, Note_on_c, 9, 40, 127
11, 18540, Note_on_c, 9, 40, 0
11, 18540, Note_on_c, 9, 39, 0
11, 18540, Note_on_c, 9, 46, 0
11, 18552, Note_on_c, 9, 44, 34
11, 18564, Note_on_c, 9, 44, 0
11, 18576, Note_on_c, 9, 44, 90
11, 18576, Note_on_c, 9, 39, 106
11, 18576, Note_on_c, 9, 40, 127
11, 18588, Note_on_c, 9, 40, 0
11, 18588, Note_on_c, 9, 39, 0
11, 18588, Note_on_c, 9, 44, 0
11, 18624, Note_on_c, 9, 46, 67
11, 18624, Note_on_c, 9, 39, 106
11, 18624, Note_on_c, 9, 36, 120
11, 18636, Note_on_c, 9, 36, 0
11, 18636, Note_on_c, 9, 39, 0
11, 18636, Note_on_c, 9, 46, 0
11, 18648, Note_on_c, 9, 44, 34
11, 18660, Note_on_c, 9, 44, 0
11, 18672, Note_on_c, 9, 44, 90
11, 18672, Note_on_c, 9, 39, 106
11, 18684, Note_on_c, 9, 39, 0
11, 18684, Note_on_c, 9, 44, 0
11, 18720, Note_on_c, 9, 46, 67
11, 18720, Note_on_c, 9, 39, 106
11, 18720, Note_on_c, 9, 40, 127
11, 18732, Note_on_c, 9, 40, 0
11, 18732, Note_on_c, 9, 39, 0
11, 18732, Note_on_c, 9, 46, 0
11, 18744, Note_on_c, 9, 44, 30
11, 18756, Note_on_c, 9, 44, 0
11, 18768, Note_on_c, 9, 44, 90
11, 18780, Note_on_c, 9, 44, 0
11, 18816, Note_on_c, 9, 46, 67
11, 18816, Note_on_c, 9, 39, 106
11, 18816, Note_on_c, 9, 36, 120
11, 18828, Note_on_c, 9, 36, 0
11, 18828, Note_on_c, 9, 39, 0
11, 18828, Note_on_c, 9, 46, 0
11, 18840, Note_on_c, 9, 44, 31
11, 18852, Note_on_c, 9, 44, 0
11, 18864, Note_on_c, 9, 44, 90
11, 18876, Note_on_c, 9, 44, 0
11, 18912, Note_on_c, 9, 46, 67
11, 18912, Note_on_c, 9, 39, 106
11, 18912, Note_on_c, 9, 40, 127
11, 18924, Note_on_c, 9, 40, 0
11, 18924, Note_on_c, 9, 39, 0
11, 18924, Note_on_c, 9, 46, 0
11, 18936, Note_on_c, 9, 44, 34
11, 18948, Note_on_c, 9, 44, 0
11, 18960, Note_on_c, 9, 44, 90
11, 18960, Note_on_c, 9, 39, 106
11, 18972, Note_on_c, 9, 39, 0
11, 18972, Note_on_c, 9, 44, 0
11, 19008, Note_on_c, 9, 46, 67
11, 19008, Note_on_c, 9, 39, 106
11, 19008, Note_on_c, 9, 36, 120
11, 19020, Note_on_c, 9, 36, 0
11, 19020, Note_on_c, 9, 39, 0
11, 19020, Note_on_c, 9, 46, 0
11, 19032, Note_on_c, 9, 44, 34
11, 19044, Note_on_c, 9, 44, 0
11, 19056, Note_on_c, 9, 44, 90
11, 19056, Note_on_c, 9, 39, 106
11, 19068, Note_on_c, 9, 39, 0
11, 19068, Note_on_c, 9, 44, 0
11, 19104, Note_on_c, 9, 46, 67
11, 19104, Note_on_c, 9, 39, 106
11, 19104, Note_on_c, 9, 40, 127
11, 19116, Note_on_c, 9, 40, 0
11, 19116, Note_on_c, 9, 39, 0
11, 19116, Note_on_c, 9, 46, 0
11, 19128, Note_on_c, 9, 44, 30
11, 19140, Note_on_c, 9, 44, 0
11, 19152, Note_on_c, 9, 44, 90
11, 19164, Note_on_c, 9, 44, 0
11, 19200, Note_on_c, 9, 46, 67
11, 19200, Note_on_c, 9, 39, 106
11, 19200, Note_on_c, 9, 36, 120
11, 19212, Note_on_c, 9, 36, 0
11, 19212, Note_on_c, 9, 39, 0
11, 19212, Note_on_c, 9, 46, 0
11, 19224, Note_on_c, 9, 44, 31
11, 19236, Note_on_c, 9, 44, 0
11, 19248, Note_on_c, 9, 44, 90
11, 19260, Note_on_c, 9, 44, 0
11, 19296, Note_on_c, 9, 46, 67
11, 19296, Note_on_c, 9, 39, 106
11, 19296, Note_on_c, 9, 40, 127
11, 19308, Note_on_c, 9, 40, 0
11, 19308, Note_on_c, 9, 39, 0
11, 19308, Note_on_c, 9, 46, 0
11, 19320, Note_on_c, 9, 44, 34
11, 19332, Note_on_c, 9, 44, 0
11, 19344, Note_on_c, 9, 44, 90
11, 19344, Note_on_c, 9, 39, 106
11, 19356, Note_on_c, 9, 39, 0
11, 19356, Note_on_c, 9, 44, 0
11, 19392, Note_on_c, 9, 46, 67
11, 19392, Note_on_c, 9, 39, 106
11, 19392, Note_on_c, 9, 36, 120
11, 19404, Note_on_c, 9, 36, 0
11, 19404, Note_on_c, 9, 39, 0
11, 19404, Note_on_c, 9, 46, 0
11, 19416, Note_on_c, 9, 44, 34
11, 19428, Note_on_c, 9, 44, 0
11, 19440, Note_on_c, 9, 44, 90
11, 19440, Note_on_c, 9, 39, 106
11, 19452, Note_on_c, 9, 39, 0
11, 19452, Note_on_c, 9, 44, 0
11, 19488, Note_on_c, 9, 46, 67
11, 19488, Note_on_c, 9, 39, 106
11, 19488, Note_on_c, 9, 40, 127
11, 19500, Note_on_c, 9, 40, 0
11, 19500, Note_on_c, 9, 39, 0
11, 19500, Note_on_c, 9, 46, 0
11, 19512, Note_on_c, 9, 44, 30
11, 19524, Note_on_c, 9, 44, 0
11, 19536, Note_on_c, 9, 40, 91
11, 19548, Note_on_c, 9, 40, 0
11, 19550, Note_on_c, 9, 40, 47
11, 19560, Note_on_c, 9, 40, 125
11, 19562, Note_on_c, 9, 40, 0
11, 19572, Note_on_c, 9, 40, 0
11, 19572, Note_on_c, 9, 40, 40
11, 19584, Note_on_c, 9, 40, 0
11, 19584, Note_on_c, 9, 57, 100
11, 19584, Note_on_c, 9, 39, 106
11, 19584, Note_on_c, 9, 36, 120
11, 19596, Note_on_c, 9, 36, 0
11, 19596, Note_on_c, 9, 39, 0
11, 19596, Note_on_c, 9, 57, 0
11, 19608, Note_on_c, 9, 44, 31
11, 19620, Note_on_c, 9, 44, 0
11, 19632, Note_on_c, 9, 44, 90
11, 19644, Note_on_c, 9, 44, 0
11, 19680, Note_on_c, 9, 46, 67
11, 19680, Note_on_c, 9, 39, 106
11, 19680, Note_on_c, 9, 40, 127
11, 19692, Note_on_c, 9, 40, 0
11, 19692, Note_on_c, 9, 39, 0
11, 19692, Note_on_c, 9, 46, 0
11, 19704, Note_on_c, 9, 44, 34
11, 19716, Note_on_c, 9, 44, 0
11, 19728, Note_on_c, 9, 44, 90
11, 19728, Note_on_c, 9, 39, 106
11, 19740, Note_on_c, 9, 39, 0
11, 19740, Note_on_c, 9, 44, 0
11, 19776, Note_on_c, 9, 46, 67
11, 19776, Note_on_c, 9, 39, 106
11, 19776, Note_on_c, 9, 36, 120
11, 19788, Note_on_c, 9, 36, 0
11, 19788, Note_on_c, 9, 39, 0
11, 19788, Note_on_c, 9, 46, 0
11, 19800, Note_on_c, 9, 44, 34
11, 19812, Note_on_c, 9, 44, 0
11, 19824, Note_on_c, 9, 44, 90
11, 19824, Note_on_c, 9, 39, 106
11, 19836, Note_on_c, 9, 39, 0
11, 19836, Note_on_c, 9, 44, 0
11, 19872, Note_on_c, 9, 46, 67
11, 19872, Note_on_c, 9, 39, 106
11, 19872, Note_on_c, 9, 40, 127
11, 19884, Note_on_c, 9, 40, 0
11, 19884, Note_on_c, 9, 39, 0
11, 19884, Note_on_c, 9, 46, 0
11, 19896, Note_on_c, 9, 44, 30
11, 19908, Note_on_c, 9, 44, 0
11, 19920, Note_on_c, 9, 44, 90
11, 19932, Note_on_c, 9, 44, 0
11, 19968, Note_on_c, 9, 46, 67
11, 19968, Note_on_c, 9, 39, 106
11, 19968, Note_on_c, 9, 36, 120
11, 19980, Note_on_c, 9, 36, 0
11, 19980, Note_on_c, 9, 39, 0
11, 19980, Note_on_c, 9, 46, 0
11, 19992, Note_on_c, 9, 44, 31
11, 20004, Note_on_c, 9, 44, 0
11, 20016, Note_on_c, 9, 44, 90
11, 20028, Note_on_c, 9, 44, 0
11, 20064, Note_on_c, 9, 46, 67
11, 20064, Note_on_c, 9, 39, 106
11, 20064, Note_on_c, 9, 40, 127
11, 20076, Note_on_c, 9, 40, 0
11, 20076, Note_on_c, 9, 39, 0
11, 20076, Note_on_c, 9, 46, 0
11, 20088, Note_on_c, 9, 44, 34
11, 20100, Note_on_c, 9, 44, 0
11, 20112, Note_on_c, 9, 44, 90
11, 20112, Note_on_c, 9, 39, 106
11, 20112, Note_on_c, 9, 40, 127
11, 20124, Note_on_c, 9, 40, 0
11, 20124, Note_on_c, 9, 39, 0
11, 20124, Note_on_c, 9, 44, 0
11, 20160, Note_on_c, 9, 46, 67
11, 20160, Note_on_c, 9, 39, 106
11, 20160, Note_on_c, 9, 36, 120
11, 20172, Note_on_c, 9, 36, 0
11, 20172, Note_on_c, 9, 39, 0
11, 20172, Note_on_c, 9, 46, 0
11, 20184, Note_on_c, 9, 44, 34
11, 20196, Note_on_c, 9, 44, 0
11, 20208, Note_on_c, 9, 44, 90
11, 20208, Note_on_c, 9, 39, 106
11, 20220, Note_on_c, 9, 39, 0
11, 20220, Note_on_c, 9, 44, 0
11, 20256, Note_on_c, 9, 46, 67
11, 20256, Note_on_c, 9, 39, 106
11, 20256, Note_on_c, 9, 40, 127
11, 20268, Note_on_c, 9, 40, 0
11, 20268, Note_on_c, 9, 39, 0
11, 20268, Note_on_c, 9, 46, 0
11, 20280, Note_on_c, 9, 44, 30
11, 20292, Note_on_c, 9, 44, 0
11, 20304, Note_on_c, 9, 40, 62
11, 20316, Note_on_c, 9, 40, 0
11, 20316, Note_on_c, 9, 40, 78
11, 20328, Note_on_c, 9, 40, 0
11, 20328, Note_on_c, 9, 40, 94
11, 20340, Note_on_c, 9, 40, 0
11, 20340, Note_on_c, 9, 40, 115
11, 20352, Note_on_c, 9, 40, 0
11, 20352, Note_on_c, 9, 40, 126
11, 20364, Note_on_c, 9, 40, 0
11, 20736, Note_on_c, 9, 57, 100
11, 20736, Note_on_c, 9, 36, 120
11, 20748, Note_on_c, 9, 36, 0
11, 20748, Note_on_c, 9, 57, 0
11, 20760, Note_on_c, 9, 44, 31
11, 20772, Note_on_c, 9, 44, 0
11, 20784, Note_on_c, 9, 44, 90
11, 20796, Note_on_c, 9, 44, 0
11, 20832, Note_on_c, 9, 46, 67
11, 20832, Note_on_c, 9, 40, 127
11, 20844, Note_on_c, 9, 40, 0
11, 20844, Note_on_c, 9, 46, 0
11, 20856, Note_on_c, 9, 44, 34
11, 20868, Note_on_c, 9, 44, 0
11, 20880, Note_on_c, 9, 44, 90
11, 20892, Note_on_c, 9, 44, 0
11, 20928, Note_on_c, 9, 46, 67
11, 20928, Note_on_c, 9, 36, 120
11, 20940, Note_on_c, 9, 36, 0
11, 20940, Note_on_c, 9, 46, 0
11, 20952, Note_on_c, 9, 44, 34
11, 20964, Note_on_c, 9, 44, 0
11, 20976, Note_on_c, 9, 44, 90
11, 20988, Note_on_c, 9, 44, 0
11, 21024, Note_on_c, 9, 46, 67
11, 21024, Note_on_c, 9, 40, 127
11, 21036, Note_on_c, 9, 40, 0
11, 21036, Note_on_c, 9, 46, 0
11, 21048, Note_on_c, 9, 44, 30
11, 21060, Note_on_c, 9, 44, 0
11, 21072, Note_on_c, 9, 44, 90
11, 21084, Note_on_c, 9, 44, 0
11, 21120, Note_on_c, 9, 46, 67
11, 21120, Note_on_c, 9, 36, 120
11, 21132, Note_on_c, 9, 36, 0
11, 21132, Note_on_c, 9, 46, 0
11, 21144, Note_on_c, 9, 44, 31
11, 21156, Note_on_c, 9, 44, 0
11, 21168, Note_on_c, 9, 44, 90
11, 21180, Note_on_c, 9, 44, 0
11, 21216, Note_on_c, 9, 46, 67
11, 21216, Note_on_c, 9, 40, 127
11, 21228, Note_on_c, 9, 40, 0
11, 21228, Note_on_c, 9, 46, 0
11, 21240, Note_on_c, 9, 44, 34
11, 21252, Note_on_c, 9, 44, 0
11, 21264, Note_on_c, 9, 44, 90
11, 21276, Note_on_c, 9, 44, 0
11, 21312, Note_on_c, 9, 46, 67
11, 21312, Note_on_c, 9, 36, 120
11, 21324, Note_on_c, 9, 36, 0
11, 21324, Note_on_c, 9, 46, 0
11, 21336, Note_on_c, 9, 44, 34
11, 21348, Note_on_c, 9, 44, 0
11, 21360, Note_on_c, 9, 46, 90
11, 21360, Note_on_c, 9, 40, 125
11, 21372, Note_on_c, 9, 40, 0
11, 21372, Note_on_c, 9, 46, 0
11, 21408, Note_on_c, 9, 46, 67
11, 21408, Note_on_c, 9, 40, 127
11, 21420, Note_on_c, 9, 40, 0
11, 21420, Note_on_c, 9, 46, 0
11, 21456, Note_on_c, 9, 46, 127
11, 21456, Note_on_c, 9, 40, 127
11, 21468, Note_on_c, 9, 40, 0
11, 21468, Note_on_c, 9, 46, 0
11, 21504, Note_on_c, 9, 57, 100
11, 21504, Note_on_c, 9, 36, 120
11, 21516, Note_on_c, 9, 36, 0
11, 21516, Note_on_c, 9, 57, 0
11, 21528, Note_on_c, 9, 44, 31
11, 21540, Note_on_c, 9, 44, 0
11, 21552, Note_on_c, 9, 44, 90
11, 21564, Note_on_c, 9, 44, 0
11, 21600, Note_on_c, 9, 46, 67
11, 21600, Note_on_c, 9, 40, 127
11, 21612, Note_on_c, 9, 40, 0
11, 21612, Note_on_c, 9, 46, 0
11, 21624, Note_on_c, 9, 44, 34
11, 21636, Note_on_c, 9, 44, 0
11, 21648, Note_on_c, 9, 44, 90
11, 21660, Note_on_c, 9, 44, 0
11, 21696, Note_on_c, 9, 46, 67
11, 21696, Note_on_c, 9, 36, 120
11, 21708, Note_on_c, 9, 36, 0
11, 21708, Note_on_c, 9, 46, 0
11, 21720, Note_on_c, 9, 44, 34
11, 21732, Note_on_c, 9, 44, 0
11, 21744, Note_on_c, 9, 44, 90
11, 21756, Note_on_c, 9, 44, 0
11, 21792, Note_on_c, 9, 46, 67
11, 21792, Note_on_c, 9, 40, 127
11, 21804, Note_on_c, 9, 40, 0
11, 21804, Note_on_c, 9, 46, 0
11, 21816, Note_on_c, 9, 44, 30
11, 21828, Note_on_c, 9, 44, 0
11, 21840, Note_on_c, 9, 44, 90
11, 21852, Note_on_c, 9, 44, 0
11, 21888, Note_on_c, 9, 46, 67
11, 21888, Note_on_c, 9, 36, 120
11, 21900, Note_on_c, 9, 36, 0
11, 21900, Note_on_c, 9, 46, 0
11, 21912, Note_on_c, 9, 44, 31
11, 21924, Note_on_c, 9, 44, 0
11, 21936, Note_on_c, 9, 40, 35
11, 21948, Note_on_c, 9, 40, 0
11, 21960, Note_on_c, 9, 40, 109
11, 21972, Note_on_c, 9, 40, 0
11, 21984, Note_on_c, 9, 40, 127
11, 21996, Note_on_c, 9, 40, 0
11, 22008, Note_on_c, 9, 40, 37
11, 22020, Note_on_c, 9, 40, 0
11, 22032, Note_on_c, 9, 40, 81
11, 22044, Note_on_c, 9, 40, 0
11, 22056, Note_on_c, 9, 40, 110
11, 22068, Note_on_c, 9, 40, 0
11, 22080, Note_on_c, 9, 40, 127
11, 22092, Note_on_c, 9, 40, 0
11, 22104, Note_on_c, 9, 40, 44
11, 22116, Note_on_c, 9, 40, 0
11, 22128, Note_on_c, 9, 40, 81
11, 22140, Note_on_c, 9, 40, 0
11, 22152, Note_on_c, 9, 40, 107
11, 22164, Note_on_c, 9, 40, 0
11, 22176, Note_on_c, 9, 40, 127
11, 22188, Note_on_c, 9, 40, 0
11, 22200, Note_on_c, 9, 40, 107
11, 22212, Note_on_c, 9, 40, 0
11, 22224, Note_on_c, 9, 40, 75
11, 22236, Note_on_c, 9, 40, 0
11, 22248, Note_on_c, 9, 40, 125
11, 22260, Note_on_c, 9, 40, 0
11, 22272, Note_on_c, 9, 49, 100
11, 22272, Note_on_c, 9, 36, 120
11, 22284, Note_on_c, 9, 36, 0
11, 22284, Note_on_c, 9, 49, 0
11, 22320, Note_on_c, 9, 46, 68
11, 22332, Note_on_c, 9, 46, 0
11, 22368, Note_on_c, 9, 46, 89
11, 22368, Note_on_c, 9, 40, 127
11, 22380, Note_on_c, 9, 40, 0
11, 22380, Note_on_c, 9, 46, 0
11, 22416, Note_on_c, 9, 46, 67
11, 22428, Note_on_c, 9, 46, 0
11, 22464, Note_on_c, 9, 46, 89
11, 22464, Note_on_c, 9, 36, 120
11, 22476, Note_on_c, 9, 36, 0
11, 22476, Note_on_c, 9, 46, 0
11, 22512, Note_on_c, 9, 46, 69
11, 22524, Note_on_c, 9, 46, 0
11, 22560, Note_on_c, 9, 46, 91
11, 22560, Note_on_c, 9, 40, 127
11, 22572, Note_on_c, 9, 40, 0
11, 22572, Note_on_c, 9, 46, 0
11, 22608, Note_on_c, 9, 46, 66
11, 22620, Note_on_c, 9, 46, 0
11, 22656, Note_on_c, 9, 46, 90
11, 22656, Note_on_c, 9, 36, 120
11, 22668, Note_on_c, 9, 36, 0
11, 22668, Note_on_c, 9, 46, 0
11, 22704, Note_on_c, 9, 46, 69
11, 22716, Note_on_c, 9, 46, 0
11, 22752, Note_on_c, 9, 46, 91
11, 22752, Note_on_c, 9, 40, 127
11, 22764, Note_on_c, 9, 40, 0
11, 22764, Note_on_c, 9, 46, 0
11, 22800, Note_on_c, 9, 46, 69
11, 22800, Note_on_c, 9, 40, 127
11, 22812, Note_on_c, 9, 40, 0
11, 22812, Note_on_c, 9, 46, 0
11, 22848, Note_on_c, 9, 46, 93
11, 22848, Note_on_c, 9, 36, 120
11, 22860, Note_on_c, 9, 36, 0
11, 22860, Note_on_c, 9, 46, 0
11, 22896, Note_on_c, 9, 46, 69
11, 22908, Note_on_c, 9, 46, 0
11, 22944, Note_on_c, 9, 46, 93
11, 22944, Note_on_c, 9, 40, 127
11, 22956, Note_on_c, 9, 40, 0
11, 22956, Note_on_c, 9, 46, 0
11, 22992, Note_on_c, 9, 46, 69
11, 22992, Note_on_c, 9, 40, 85
11, 23004, Note_on_c, 9, 40, 0
11, 23004, Note_on_c, 9, 46, 0
11, 23016, Note_on_c, 9, 40, 109
11, 23028, Note_on_c, 9, 40, 0
11, 23040, Note_on_c, 9, 57, 100
11, 23040, Note_on_c, 9, 36, 120
11, 23052, Note_on_c, 9, 36, 0
11, 23052, Note_on_c, 9, 57, 0
11, 23088, Note_on_c, 9, 46, 69
11, 23100, Note_on_c, 9, 46, 0
11, 23136, Note_on_c, 9, 46, 91
11, 23136, Note_on_c, 9, 40, 127
11, 23148, Note_on_c, 9, 40, 0
11, 23148, Note_on_c, 9, 46, 0
11, 23184, Note_on_c, 9, 46, 69
11, 23196, Note_on_c, 9, 46, 0
11, 23232, Note_on_c, 9, 46, 93
11, 23232, Note_on_c, 9, 36, 120
11, 23244, Note_on_c, 9, 36, 0
11, 23244, Note_on_c, 9, 46, 0
11, 23280, Note_on_c, 9, 46, 69
11, 23292, Note_on_c, 9, 46, 0
11, 23328, Note_on_c, 9, 46, 93
11, 23328, Note_on_c, 9, 40, 127
11, 23340, Note_on_c, 9, 40, 0
11, 23340, Note_on_c, 9, 46, 0
11, 23376, Note_on_c, 9, 46, 69
11, 23388, Note_on_c, 9, 46, 0
11, 23424, Note_on_c, 9, 46, 90
11, 23424, Note_on_c, 9, 36, 120
11, 23436, Note_on_c, 9, 36, 0
11, 23436, Note_on_c, 9, 46, 0
11, 23472, Note_on_c, 9, 46, 69
11, 23484, Note_on_c, 9, 46, 0
11, 23520, Note_on_c, 9, 46, 91
11, 23520, Note_on_c, 9, 40, 127
11, 23532, Note_on_c, 9, 40, 0
11, 23532, Note_on_c, 9, 46, 0
11, 23568, Note_on_c, 9, 46, 69
11, 23580, Note_on_c, 9, 46, 0
11, 23616, Note_on_c, 9, 46, 93
11, 23616, Note_on_c, 9, 36, 120
11, 23628, Note_on_c, 9, 36, 0
11, 23628, Note_on_c, 9, 46, 0
11, 23664, Note_on_c, 9, 46, 69
11, 23676, Note_on_c, 9, 46, 0
11, 23712, Note_on_c, 9, 46, 93
11, 23712, Note_on_c, 9, 40, 124
11, 23724, Note_on_c, 9, 40, 0
11, 23724, Note_on_c, 9, 46, 0
11, 23736, Note_on_c, 9, 40, 84
11, 23748, Note_on_c, 9, 40, 0
11, 23760, Note_on_c, 9, 46, 69
11, 23760, Note_on_c, 9, 40, 103
11, 23772, Note_on_c, 9, 40, 0
11, 23772, Note_on_c, 9, 46, 0
11, 23784, Note_on_c, 9, 40, 121
11, 23796, Note_on_c, 9, 40, 0
11, 23808, Note_on_c, 9, 57, 100
11, 23808, Note_on_c, 9, 36, 120
11, 23820, Note_on_c, 9, 36, 0
11, 23820, Note_on_c, 9, 57, 0
11, 23856, Note_on_c, 9, 46, 69
11, 23868, Note_on_c, 9, 46, 0
11, 23904, Note_on_c, 9, 46, 91
11, 23904, Note_on_c, 9, 40, 127
11, 23916, Note_on_c, 9, 40, 0
11, 23916, Note_on_c, 9, 46, 0
11, 23952, Note_on_c, 9, 46, 69
11, 23964, Note_on_c, 9, 46, 0
11, 24000, Note_on_c, 9, 46, 93
11, 24000, Note_on_c, 9, 36, 120
11, 24012, Note_on_c, 9, 36, 0
11, 24012, Note_on_c, 9, 46, 0
11, 24048, Note_on_c, 9, 46, 69
11, 24060, Note_on_c, 9, 46, 0
11, 24096, Note_on_c, 9, 46, 93
11, 24096, Note_on_c, 9, 40, 127
11, 24108, Note_on_c, 9, 40, 0
11, 24108, Note_on_c, 9, 46, 0
11, 24144, Note_on_c, 9, 46, 69
11, 24156, Note_on_c, 9, 46, 0
11, 24192, Note_on_c, 9, 46, 90
11, 24192, Note_on_c, 9, 36, 120
11, 24204, Note_on_c, 9, 36, 0
11, 24204, Note_on_c, 9, 46, 0
11, 24240, Note_on_c, 9, 46, 69
11, 24252, Note_on_c, 9, 46, 0
11, 24288, Note_on_c, 9, 46, 91
11, 24288, Note_on_c, 9, 40, 127
11, 24300, Note_on_c, 9, 40, 0
11, 24300, Note_on_c, 9, 46, 0
11, 24336, Note_on_c, 9, 46, 69
11, 24336, Note_on_c, 9, 40, 127
11, 24348, Note_on_c, 9, 40, 0
11, 24348, Note_on_c, 9, 46, 0
11, 24384, Note_on_c, 9, 46, 93
11, 24384, Note_on_c, 9, 36, 120
11, 24396, Note_on_c, 9, 36, 0
11, 24396, Note_on_c, 9, 46, 0
11, 24432, Note_on_c, 9, 46, 69
11, 24444, Note_on_c, 9, 46, 0
11, 24480, Note_on_c, 9, 46, 93
11, 24480, Note_on_c, 9, 40, 127
11, 24492, Note_on_c, 9, 40, 0
11, 24492, Note_on_c, 9, 46, 0
11, 24528, Note_on_c, 9, 46, 69
11, 24528, Note_on_c, 9, 40, 82
11, 24540, Note_on_c, 9, 40, 0
11, 24540, Note_on_c, 9, 46, 0
11, 24552, Note_on_c, 9, 40, 111
11, 24564, Note_on_c, 9, 40, 0
11, 24576, Note_on_c, 9, 49, 100
11, 24576, Note_on_c, 9, 36, 120
11, 24588, Note_on_c, 9, 36, 0
11, 24588, Note_on_c, 9, 49, 0
11, 24624, Note_on_c, 9, 46, 69
11, 24636, Note_on_c, 9, 46, 0
11, 24672, Note_on_c, 9, 46, 91
11, 24672, Note_on_c, 9, 40, 127
11, 24684, Note_on_c, 9, 40, 0
11, 24684, Note_on_c, 9, 46, 0
11, 24720, Note_on_c, 9, 46, 69
11, 24732, Note_on_c, 9, 46, 0
11, 24768, Note_on_c, 9, 46, 93
11, 24768, Note_on_c, 9, 36, 120
11, 24780, Note_on_c, 9, 36, 0
11, 24780, Note_on_c, 9, 46, 0
11, 24816, Note_on_c, 9, 46, 69
11, 24828, Note_on_c, 9, 46, 0
11, 24864, Note_on_c, 9, 46, 93
11, 24864, Note_on_c, 9, 40, 127
11, 24876, Note_on_c, 9, 40, 0
11, 24876, Note_on_c, 9, 46, 0
11, 24912, Note_on_c, 9, 46, 69
11, 24924, Note_on_c, 9, 46, 0
11, 24960, Note_on_c, 9, 46, 90
11, 24960, Note_on_c, 9, 36, 120
11, 24972, Note_on_c, 9, 36, 0
11, 24972, Note_on_c, 9, 46, 0
11, 24984, Note_on_c, 9, 44, 69
11, 24996, Note_on_c, 9, 44, 0
11, 25008, Note_on_c, 9, 40, 87
11, 25020, Note_on_c, 9, 40, 0
11, 25032, Note_on_c, 9, 40, 127
11, 25044, Note_on_c, 9, 40, 0
11, 25056, Note_on_c, 9, 46, 91
11, 25056, Note_on_c, 9, 36, 120
11, 25068, Note_on_c, 9, 36, 0
11, 25068, Note_on_c, 9, 46, 0
11, 25080, Note_on_c, 9, 44, 69
11, 25092, Note_on_c, 9, 44, 0
11, 25104, Note_on_c, 9, 40, 91
11, 25116, Note_on_c, 9, 40, 0
11, 25128, Note_on_c, 9, 40, 127
11, 25140, Note_on_c, 9, 40, 0
11, 25152, Note_on_c, 9, 46, 93
11, 25152, Note_on_c, 9, 36, 120
11, 25164, Note_on_c, 9, 36, 0
11, 25164, Note_on_c, 9, 46, 0
11, 25176, Note_on_c, 9, 44, 69
11, 25188, Note_on_c, 9, 44, 0
11, 25200, Note_on_c, 9, 40, 90
11, 25212, Note_on_c, 9, 40, 0
11, 25224, Note_on_c, 9, 40, 127
11, 25236, Note_on_c, 9, 40, 0
11, 25248, Note_on_c, 9, 46, 93
11, 25248, Note_on_c, 9, 40, 125
11, 25260, Note_on_c, 9, 40, 0
11, 25260, Note_on_c, 9, 46, 0
11, 25272, Note_on_c, 9, 40, 83
11, 25284, Note_on_c, 9, 40, 0
11, 25296, Note_on_c, 9, 40, 106
11, 25308, Note_on_c, 9, 40, 0
11, 25320, Note_on_c, 9, 40, 126
11, 25332, Note_on_c, 9, 40, 0
11, 25344, Note_on_c, 9, 49, 100
11, 25344, Note_on_c, 9, 36, 120
11, 25356, Note_on_c, 9, 36, 0
11, 25356, Note_on_c, 9, 49, 0
11, 25392, Note_on_c, 9, 46, 69
11, 25404, Note_on_c, 9, 46, 0
11, 25440, Note_on_c, 9, 46, 91
11, 25440, Note_on_c, 9, 40, 127
11, 25452, Note_on_c, 9, 40, 0
11, 25452, Note_on_c, 9, 46, 0
11, 25488, Note_on_c, 9, 46, 69
11, 25500, Note_on_c, 9, 46, 0
11, 25536, Note_on_c, 9, 46, 93
11, 25536, Note_on_c, 9, 36, 120
11, 25548, Note_on_c, 9, 36, 0
11, 25548, Note_on_c, 9, 46, 0
11, 25584, Note_on_c, 9, 46, 69
11, 25596, Note_on_c, 9, 46, 0
11, 25632, Note_on_c, 9, 46, 93
11, 25632, Note_on_c, 9, 40, 127
11, 25644, Note_on_c, 9, 40, 0
11, 25644, Note_on_c, 9, 46, 0
11, 25680, Note_on_c, 9, 46, 69
11, 25692, Note_on_c, 9, 46, 0
11, 25728, Note_on_c, 9, 46, 90
11, 25728, Note_on_c, 9, 36, 120
11, 25740, Note_on_c, 9, 36, 0
11, 25740, Note_on_c, 9, 46, 0
11, 25776, Note_on_c, 9, 46, 69
11, 25788, Note_on_c, 9, 46, 0
11, 25824, Note_on_c, 9, 46, 91
11, 25824, Note_on_c, 9, 40, 127
11, 25836, Note_on_c, 9, 40, 0
11, 25836, Note_on_c, 9, 46, 0
11, 25872, Note_on_c, 9, 46, 69
11, 25872, Note_on_c, 9, 40, 127
11, 25884, Note_on_c, 9, 40, 0
11, 25884, Note_on_c, 9, 46, 0
11, 25920, Note_on_c, 9, 46, 93
11, 25920, Note_on_c, 9, 36, 120
11, 25932, Note_on_c, 9, 36, 0
11, 25932, Note_on_c, 9, 46, 0
11, 25968, Note_on_c, 9, 46, 69
11, 25980, Note_on_c, 9, 46, 0
11, 26016, Note_on_c, 9, 46, 93
11, 26016, Note_on_c, 9, 40, 127
11, 26028, Note_on_c, 9, 40, 0
11, 26028, Note_on_c, 9, 46, 0
11, 26064, Note_on_c, 9, 46, 69
11, 26064, Note_on_c, 9, 36, 120
11, 26076, Note_on_c, 9, 36, 0
11, 26076, Note_on_c, 9, 46, 0
11, 26112, Note_on_c, 9, 57, 100
11, 26112, Note_on_c, 9, 36, 120
11, 26124, Note_on_c, 9, 36, 0
11, 26124, Note_on_c, 9, 57, 0
11, 26160, Note_on_c, 9, 46, 69
11, 26172, Note_on_c, 9, 46, 0
11, 26208, Note_on_c, 9, 46, 91
11, 26208, Note_on_c, 9, 40, 127
11, 26220, Note_on_c, 9, 40, 0
11, 26220, Note_on_c, 9, 46, 0
11, 26256, Note_on_c, 9, 46, 69
11, 26268, Note_on_c, 9, 46, 0
11, 26304, Note_on_c, 9, 46, 93
11, 26304, Note_on_c, 9, 36, 120
11, 26316, Note_on_c, 9, 36, 0
11, 26316, Note_on_c, 9, 46, 0
11, 26352, Note_on_c, 9, 46, 69
11, 26364, Note_on_c, 9, 46, 0
11, 26400, Note_on_c, 9, 46, 93
11, 26400, Note_on_c, 9, 40, 127
11, 26412, Note_on_c, 9, 40, 0
11, 26412, Note_on_c, 9, 46, 0
11, 26448, Note_on_c, 9, 46, 69
11, 26460, Note_on_c, 9, 46, 0
11, 26496, Note_on_c, 9, 46, 90
11, 26496, Note_on_c, 9, 36, 120
11, 26508, Note_on_c, 9, 36, 0
11, 26508, Note_on_c, 9, 46, 0
11, 26544, Note_on_c, 9, 46, 69
11, 26556, Note_on_c, 9, 46, 0
11, 26592, Note_on_c, 9, 46, 91
11, 26592, Note_on_c, 9, 40, 127
11, 26604, Note_on_c, 9, 40, 0
11, 26604, Note_on_c, 9, 46, 0
11, 26640, Note_on_c, 9, 46, 69
11, 26640, Note_on_c, 9, 40, 127
11, 26652, Note_on_c, 9, 40, 0
11, 26652, Note_on_c, 9, 46, 0
11, 26688, Note_on_c, 9, 46, 93
11, 26688, Note_on_c, 9, 36, 120
11, 26700, Note_on_c, 9, 36, 0
11, 26700, Note_on_c, 9, 46, 0
11, 26736, Note_on_c, 9, 46, 69
11, 26748, Note_on_c, 9, 46, 0
11, 26784, Note_on_c, 9, 46, 93
11, 26784, Note_on_c, 9, 40, 127
11, 26796, Note_on_c, 9, 40, 0
11, 26796, Note_on_c, 9, 46, 0
11, 26832, Note_on_c, 9, 46, 69
11, 26832, Note_on_c, 9, 36, 120
11, 26844, Note_on_c, 9, 36, 0
11, 26844, Note_on_c, 9, 46, 0
11, 26880, Note_on_c, 9, 49, 100
11, 26880, Note_on_c, 9, 36, 120
11, 26892, Note_on_c, 9, 36, 0
11, 26892, Note_on_c, 9, 49, 0
11, 26928, Note_on_c, 9, 46, 69
11, 26940, Note_on_c, 9, 46, 0
11, 26976, Note_on_c, 9, 46, 91
11, 26976, Note_on_c, 9, 40, 127
11, 26988, Note_on_c, 9, 40, 0
11, 26988, Note_on_c, 9, 46, 0
11, 27000, Note_on_c, 9, 40, 96
11, 27012, Note_on_c, 9, 40, 0
11, 27024, Note_on_c, 9, 46, 69
11, 27024, Note_on_c, 9, 40, 77
11, 27036, Note_on_c, 9, 40, 0
11, 27036, Note_on_c, 9, 46, 0
11, 27048, Note_on_c, 9, 40, 127
11, 27060, Note_on_c, 9, 40, 0
11, 27072, Note_on_c, 9, 57, 100
11, 27072, Note_on_c, 9, 36, 120
11, 27084, Note_on_c, 9, 36, 0
11, 27084, Note_on_c, 9, 57, 0
11, 27120, Note_on_c, 9, 46, 69
11, 27132, Note_on_c, 9, 46, 0
11, 27168, Note_on_c, 9, 46, 93
11, 27168, Note_on_c, 9, 40, 127
11, 27180, Note_on_c, 9, 40, 0
11, 27180, Note_on_c, 9, 46, 0
11, 27192, Note_on_c, 9, 40, 91
11, 27204, Note_on_c, 9, 40, 0
11, 27216, Note_on_c, 9, 46, 69
11, 27216, Note_on_c, 9, 40, 72
11, 27228, Note_on_c, 9, 40, 0
11, 27228, Note_on_c, 9, 46, 0
11, 27240, Note_on_c, 9, 40, 127
11, 27252, Note_on_c, 9, 40, 0
11, 27264, Note_on_c, 9, 49, 100
11, 27264, Note_on_c, 9, 36, 120
11, 27276, Note_on_c, 9, 36, 0
11, 27276, Note_on_c, 9, 49, 0
11, 27312, Note_on_c, 9, 46, 69
11, 27324, Note_on_c, 9, 46, 0
11, 27360, Note_on_c, 9, 46, 91
11, 27360, Note_on_c, 9, 40, 127
11, 27372, Note_on_c, 9, 40, 0
11, 27372, Note_on_c, 9, 46, 0
11, 27384, Note_on_c, 9, 40, 97
11, 27396, Note_on_c, 9, 40, 0
11, 27408, Note_on_c, 9, 46, 69
11, 27408, Note_on_c, 9, 40, 75
11, 27420, Note_on_c, 9, 40, 0
11, 27420, Note_on_c, 9, 46, 0
11, 27432, Note_on_c, 9, 40, 127
11, 27444, Note_on_c, 9, 40, 0
11, 27456, Note_on_c, 9, 57, 100
11, 27456, Note_on_c, 9, 36, 120
11, 27468, Note_on_c, 9, 36, 0
11, 27468, Note_on_c, 9, 57, 0
11, 27504, Note_on_c, 9, 46, 69
11, 27504, Note_on_c, 9, 40, 93
11, 27516, Note_on_c, 9, 40, 0
11, 27516, Note_on_c, 9, 46, 0
11, 27528, Note_on_c, 9, 40, 118
11, 27540, Note_on_c, 9, 40, 0
11, 27552, Note_on_c, 9, 46, 93
11, 27552, Note_on_c, 9, 36, 120
11, 27564, Note_on_c, 9, 36, 0
11, 27564, Note_on_c, 9, 46, 0
11, 27600, Note_on_c, 9, 46, 69
11, 27600, Note_on_c, 9, 40, 93
11, 27612, Note_on_c, 9, 40, 0
11, 27612, Note_on_c, 9, 46, 0
11, 27624, Note_on_c, 9, 40, 120
11, 27636, Note_on_c, 9, 40, 0
11, 27648, Note_on_c, 9, 46, 90
11, 27648, Note_on_c, 9, 36, 120
11, 27660, Note_on_c, 9, 36, 0
11, 27660, Note_on_c, 9, 46, 0
11, 27696, Note_on_c, 9, 46, 69
11, 27708, Note_on_c, 9, 46, 0
11, 27744, Note_on_c, 9, 49, 100
11, 27744, Note_on_c, 9, 40, 127
11, 27756, Note_on_c, 9, 40, 0
11, 27756, Note_on_c, 9, 49, 0
11, 27792, Note_on_c, 9, 46, 69
11, 27804, Note_on_c, 9, 46, 0
11, 27840, Note_on_c, 9, 46, 93
11, 27840, Note_on_c, 9, 36, 120
11, 27852, Note_on_c, 9, 36, 0
11, 27852, Note_on_c, 9, 46, 0
11, 27888, Note_on_c, 9, 46, 69
11, 27900, Note_on_c, 9, 46, 0
11, 27936, Note_on_c, 9, 46, 93
11, 27936, Note_on_c, 9, 40, 127
11, 27948, Note_on_c, 9, 40, 0
11, 27948, Note_on_c, 9, 46, 0
11, 27984, Note_on_c, 9, 46, 69
11, 27996, Note_on_c, 9, 46, 0
11, 28032, Note_on_c, 9, 46, 90
11, 28032, Note_on_c, 9, 36, 120
11, 28044, Note_on_c, 9, 36, 0
11, 28044, Note_on_c, 9, 46, 0
11, 28080, Note_on_c, 9, 46, 69
11, 28092, Note_on_c, 9, 46, 0
11, 28128, Note_on_c, 9, 46, 91
11, 28128, Note_on_c, 9, 40, 127
11, 28140, Note_on_c, 9, 40, 0
11, 28140, Note_on_c, 9, 46, 0
11, 28176, Note_on_c, 9, 46, 69
11, 28188, Note_on_c, 9, 46, 0
11, 28224, Note_on_c, 9, 46, 93
11, 28224, Note_on_c, 9, 36, 120
11, 28236, Note_on_c, 9, 36, 0
11, 28236, Note_on_c, 9, 46, 0
11, 28272, Note_on_c, 9, 46, 69
11, 28284, Note_on_c, 9, 46, 0
11, 28320, Note_on_c, 9, 46, 93
11, 28320, Note_on_c, 9, 40, 127
11, 28332, Note_on_c, 9, 40, 0
11, 28332, Note_on_c, 9, 46, 0
11, 28368, Note_on_c, 9, 46, 69
11, 28368, Note_on_c, 9, 40, 127
11, 28380, Note_on_c, 9, 40, 0
11, 28380, Note_on_c, 9, 46, 0
11, 28416, Note_on_c, 9, 36, 120
11, 28428, Note_on_c, 9, 36, 0
11, 28512, Note_on_c, 9, 46, 67
11, 28512, Note_on_c, 9, 40, 127
11, 28524, Note_on_c, 9, 40, 0
11, 28524, Note_on_c, 9, 46, 0
11, 28536, Note_on_c, 9, 42, 31
11, 28548, Note_on_c, 9, 42, 0
11, 28560, Note_on_c, 9, 44, 90
11, 28572, Note_on_c, 9, 44, 0
11, 28608, Note_on_c, 9, 46, 67
11, 28608, Note_on_c, 9, 36, 120
11, 28620, Note_on_c, 9, 36, 0
11, 28620, Note_on_c, 9, 46, 0
11, 28632, Note_on_c, 9, 42, 31
11, 28644, Note_on_c, 9, 42, 0
11, 28656, Note_on_c, 9, 44, 90
11, 28668, Note_on_c, 9, 44, 0
11, 28704, Note_on_c, 9, 46, 67
11, 28704, Note_on_c, 9, 40, 127
11, 28716, Note_on_c, 9, 40, 0
11, 28716, Note_on_c, 9, 46, 0
11, 28728, Note_on_c, 9, 42, 31
11, 28740, Note_on_c, 9, 42, 0
11, 28752, Note_on_c, 9, 44, 90
11, 28764, Note_on_c, 9, 44, 0
11, 28800, Note_on_c, 9, 46, 67
11, 28800, Note_on_c, 9, 36, 120
11, 28812, Note_on_c, 9, 36, 0
11, 28812, Note_on_c, 9, 46, 0
11, 28824, Note_on_c, 9, 42, 31
11, 28836, Note_on_c, 9, 42, 0
11, 28848, Note_on_c, 9, 44, 90
11, 28860, Note_on_c, 9, 44, 0
11, 28896, Note_on_c, 9, 46, 67
11, 28896, Note_on_c, 9, 40, 127
11, 28908, Note_on_c, 9, 40, 0
11, 28908, Note_on_c, 9, 46, 0
11, 28920, Note_on_c, 9, 42, 31
11, 28932, Note_on_c, 9, 42, 0
11, 28944, Note_on_c, 9, 44, 90
11, 28956, Note_on_c, 9, 44, 0
11, 28992, Note_on_c, 9, 46, 67
11, 28992, Note_on_c, 9, 36, 120
11, 29004, Note_on_c, 9, 36, 0
11, 29004, Note_on_c, 9, 46, 0
11, 29016, Note_on_c, 9, 42, 31
11, 29028, Note_on_c, 9, 42, 0
11, 29040, Note_on_c, 9, 44, 90
11, 29052, Note_on_c, 9, 44, 0
11, 29088, Note_on_c, 9, 46, 67
11, 29088, Note_on_c, 9, 40, 127
11, 29100, Note_on_c, 9, 40, 0
11, 29100, Note_on_c, 9, 46, 0
11, 29112, Note_on_c, 9, 42, 31
11, 29124, Note_on_c, 9, 42, 0
11, 29136, Note_on_c, 9, 44, 90
11, 29148, Note_on_c, 9, 44, 0
11, 29184, Note_on_c, 9, 46, 67
11, 29184, Note_on_c, 9, 36, 120
11, 29196, Note_on_c, 9, 36, 0
11, 29196, Note_on_c, 9, 46, 0
11, 29208, Note_on_c, 9, 42, 31
11, 29220, Note_on_c, 9, 42, 0
11, 29232, Note_on_c, 9, 44, 90
11, 29244, Note_on_c, 9, 44, 0
11, 29280, Note_on_c, 9, 46, 67
11, 29280, Note_on_c, 9, 40, 127
11, 29292, Note_on_c, 9, 40, 0
11, 29292, Note_on_c, 9, 46, 0
11, 29304, Note_on_c, 9, 42, 31
11, 29316, Note_on_c, 9, 42, 0
11, 29328, Note_on_c, 9, 44, 90
11, 29340, Note_on_c, 9, 44, 0
11, 29376, Note_on_c, 9, 46, 66
11, 29376, Note_on_c, 9, 36, 120
11, 29388, Note_on_c, 9, 36, 0
11, 29388, Note_on_c, 9, 46, 0
11, 29400, Note_on_c, 9, 42, 31
11, 29412, Note_on_c, 9, 42, 0
11, 29424, Note_on_c, 9, 44, 90
11, 29436, Note_on_c, 9, 44, 0
11, 29472, Note_on_c, 9, 46, 66
11, 29472, Note_on_c, 9, 40, 127
11, 29484, Note_on_c, 9, 40, 0
11, 29484, Note_on_c, 9, 46, 0
11, 29496, Note_on_c, 9, 42, 31
11, 29508, Note_on_c, 9, 42, 0
11, 29520, Note_on_c, 9, 44, 90
11, 29532, Note_on_c, 9, 44, 0
11, 29568, Note_on_c, 9, 46, 66
11, 29568, Note_on_c, 9, 36, 120
11, 29580, Note_on_c, 9, 36, 0
11, 29580, Note_on_c, 9, 46, 0
11, 29592, Note_on_c, 9, 42, 31
11, 29604, Note_on_c, 9, 42, 0
11, 29616, Note_on_c, 9, 46, 90
11, 29628, Note_on_c, 9, 46, 0
11, 29664, Note_on_c, 9, 46, 66
11, 29664, Note_on_c, 9, 40, 127
11, 29676, Note_on_c, 9, 40, 0
11, 29676, Note_on_c, 9, 46, 0
11, 29688, Note_on_c, 9, 42, 31
11, 29700, Note_on_c, 9, 42, 0
11, 29712, Note_on_c, 9, 46, 90
11, 29724, Note_on_c, 9, 46, 0
11, 29760, Note_on_c, 9, 46, 66
11, 29760, Note_on_c, 9, 36, 120
11, 29772, Note_on_c, 9, 36, 0
11, 29772, Note_on_c, 9, 46, 0
11, 29784, Note_on_c, 9, 42, 31
11, 29796, Note_on_c, 9, 42, 0
11, 29808, Note_on_c, 9, 46, 90
11, 29820, Note_on_c, 9, 46, 0
11, 29856, Note_on_c, 9, 46, 66
11, 29856, Note_on_c, 9, 40, 127
11, 29868, Note_on_c, 9, 40, 0
11, 29868, Note_on_c, 9, 46, 0
11, 29880, Note_on_c, 9, 42, 31
11, 29892, Note_on_c, 9, 42, 0
11, 29904, Note_on_c, 9, 46, 90
11, 29916, Note_on_c, 9, 46, 0
11, 29952, Note_on_c, 9, 46, 66
11, 29952, Note_on_c, 9, 36, 120
11, 29964, Note_on_c, 9, 36, 0
11, 29964, Note_on_c, 9, 46, 0
11, 29976, Note_on_c, 9, 42, 31
11, 29988, Note_on_c, 9, 42, 0
11, 30000, Note_on_c, 9, 46, 90
11, 30012, Note_on_c, 9, 46, 0
11, 30048, Note_on_c, 9, 46, 66
11, 30048, Note_on_c, 9, 40, 127
11, 30060, Note_on_c, 9, 40, 0
11, 30060, Note_on_c, 9, 46, 0
11, 30072, Note_on_c, 9, 42, 31
11, 30084, Note_on_c, 9, 42, 0
11, 30096, Note_on_c, 9, 46, 90
11, 30108, Note_on_c, 9, 46, 0
11, 30144, Note_on_c, 9, 46, 66
11, 30144, Note_on_c, 9, 36, 120
11, 30156, Note_on_c, 9, 36, 0
11, 30156, Note_on_c, 9, 46, 0
11, 30168, Note_on_c, 9, 42, 31
11, 30180, Note_on_c, 9, 42, 0
11, 30192, Note_on_c, 9, 46, 90
11, 30204, Note_on_c, 9, 46, 0
11, 30240, Note_on_c, 9, 46, 66
11, 30240, Note_on_c, 9, 40, 127
11, 30252, Note_on_c, 9, 40, 0
11, 30252, Note_on_c, 9, 46, 0
11, 30264, Note_on_c, 9, 42, 31
11, 30276, Note_on_c, 9, 42, 0
11, 30288, Note_on_c, 9, 44, 90
11, 30300, Note_on_c, 9, 44, 0
11, 30336, Note_on_c, 9, 46, 66
11, 30336, Note_on_c, 9, 36, 120
11, 30348, Note_on_c, 9, 36, 0
11, 30348, Note_on_c, 9, 46, 0
11, 30360, Note_on_c, 9, 42, 31
11, 30372, Note_on_c, 9, 42, 0
11, 30384, Note_on_c, 9, 44, 90
11, 30396, Note_on_c, 9, 44, 0
11, 30432, Note_on_c, 9, 46, 66
11, 30432, Note_on_c, 9, 40, 127
11, 30444, Note_on_c, 9, 40, 0
11, 30444, Note_on_c, 9, 46, 0
11, 30456, Note_on_c, 9, 42, 31
11, 30468, Note_on_c, 9, 42, 0
11, 30480, Note_on_c, 9, 44, 90
11, 30492, Note_on_c, 9, 44, 0
11, 30528, Note_on_c, 9, 46, 66
11, 30528, Note_on_c, 9, 36, 120
11, 30540, Note_on_c, 9, 36, 0
11, 30540, Note_on_c, 9, 46, 0
11, 30552, Note_on_c, 9, 42, 31
11, 30564, Note_on_c, 9, 42, 0
11, 30576, Note_on_c, 9, 44, 90
11, 30588, Note_on_c, 9, 44, 0
11, 30624, Note_on_c, 9, 46, 66
11, 30624, Note_on_c, 9, 40, 127
11, 30636, Note_on_c, 9, 40, 0
11, 30636, Note_on_c, 9, 46, 0
11, 30648, Note_on_c, 9, 42, 31
11, 30660, Note_on_c, 9, 42, 0
11, 30672, Note_on_c, 9, 44, 90
11, 30684, Note_on_c, 9, 44, 0
11, 30720, Note_on_c, 9, 46, 66
11, 30720, Note_on_c, 9, 36, 120
11, 30732, Note_on_c, 9, 36, 0
11, 30732, Note_on_c, 9, 46, 0
11, 30744, Note_on_c, 9, 42, 31
11, 30756, Note_on_c, 9, 42, 0
11, 30768, Note_on_c, 9, 44, 90
11, 30780, Note_on_c, 9, 44, 0
11, 30816, Note_on_c, 9, 46, 66
11, 30816, Note_on_c, 9, 40, 127
11, 30828, Note_on_c, 9, 40, 0
11, 30828, Note_on_c, 9, 46, 0
11, 30840, Note_on_c, 9, 42, 31
11, 30852, Note_on_c, 9, 42, 0
11, 30864, Note_on_c, 9, 44, 90
11, 30876, Note_on_c, 9, 44, 0
11, 30912, Note_on_c, 9, 46, 66
11, 30912, Note_on_c, 9, 36, 120
11, 30924, Note_on_c, 9, 36, 0
11, 30924, Note_on_c, 9, 46, 0
11, 30936, Note_on_c, 9, 42, 31
11, 30948, Note_on_c, 9, 42, 0
11, 30960, Note_on_c, 9, 44, 90
11, 30972, Note_on_c, 9, 44, 0
11, 31008, Note_on_c, 9, 46, 66
11, 31008, Note_on_c, 9, 40, 127
11, 31020, Note_on_c, 9, 40, 0
11, 31020, Note_on_c, 9, 46, 0
11, 31032, Note_on_c, 9, 42, 31
11, 31044, Note_on_c, 9, 42, 0
11, 31056, Note_on_c, 9, 44, 90
11, 31068, Note_on_c, 9, 44, 0
11, 31104, Note_on_c, 9, 46, 66
11, 31104, Note_on_c, 9, 36, 120
11, 31116, Note_on_c, 9, 36, 0
11, 31116, Note_on_c, 9, 46, 0
11, 31128, Note_on_c, 9, 42, 31
11, 31140, Note_on_c, 9, 42, 0
11, 31152, Note_on_c, 9, 46, 90
11, 31164, Note_on_c, 9, 46, 0
11, 31200, Note_on_c, 9, 46, 66
11, 31200, Note_on_c, 9, 40, 127
11, 31212, Note_on_c, 9, 40, 0
11, 31212, Note_on_c, 9, 46, 0
11, 31224, Note_on_c, 9, 42, 31
11, 31236, Note_on_c, 9, 42, 0
11, 31248, Note_on_c, 9, 46, 90
11, 31260, Note_on_c, 9, 46, 0
11, 31296, Note_on_c, 9, 46, 66
11, 31296, Note_on_c, 9, 36, 120
11, 31308, Note_on_c, 9, 36, 0
11, 31308, Note_on_c, 9, 46, 0
11, 31320, Note_on_c, 9, 42, 31
11, 31332, Note_on_c, 9, 42, 0
11, 31344, Note_on_c, 9, 46, 90
11, 31356, Note_on_c, 9, 46, 0
11, 31392, Note_on_c, 9, 46, 66
11, 31392, Note_on_c, 9, 40, 127
11, 31404, Note_on_c, 9, 40, 0
11, 31404, Note_on_c, 9, 46, 0
11, 31416, Note_on_c, 9, 42, 31
11, 31428, Note_on_c, 9, 42, 0
11, 31440, Note_on_c, 9, 46, 90
11, 31452, Note_on_c, 9, 46, 0
11, 31488, Note_on_c, 9, 46, 66
11, 31488, Note_on_c, 9, 36, 120
11, 31500, Note_on_c, 9, 36, 0
11, 31500, Note_on_c, 9, 46, 0
11, 31512, Note_on_c, 9, 42, 31
11, 31524, Note_on_c, 9, 42, 0
11, 31536, Note_on_c, 9, 44, 90
11, 31548, Note_on_c, 9, 44, 0
11, 31584, Note_on_c, 9, 46, 66
11, 31584, Note_on_c, 9, 40, 127
11, 31596, Note_on_c, 9, 40, 0
11, 31596, Note_on_c, 9, 46, 0
11, 31608, Note_on_c, 9, 42, 31
11, 31620, Note_on_c, 9, 42, 0
11, 31632, Note_on_c, 9, 44, 90
11, 31644, Note_on_c, 9, 44, 0
11, 31680, Note_on_c, 9, 46, 65
11, 31680, Note_on_c, 9, 36, 120
11, 31692, Note_on_c, 9, 36, 0
11, 31692, Note_on_c, 9, 46, 0
11, 31704, Note_on_c, 9, 42, 31
11, 31716, Note_on_c, 9, 42, 0
11, 31728, Note_on_c, 9, 44, 90
11, 31740, Note_on_c, 9, 44, 0
11, 31776, Note_on_c, 9, 40, 127
11, 31787, Note_on_c, 9, 40, 127
11, 31788, Note_on_c, 9, 40, 0
11, 31799, Note_on_c, 9, 40, 0
11, 31824, Note_on_c, 9, 40, 88
11, 31836, Note_on_c, 9, 40, 0
11, 31848, Note_on_c, 9, 40, 122
11, 31860, Note_on_c, 9, 40, 0
11, 31872, Note_on_c, 9, 49, 100
11, 31872, Note_on_c, 9, 36, 120
11, 31884, Note_on_c, 9, 36, 0
11, 31884, Note_on_c, 9, 49, 0
11, 31896, Note_on_c, 9, 42, 31
11, 31908, Note_on_c, 9, 42, 0
11, 31920, Note_on_c, 9, 44, 90
11, 31932, Note_on_c, 9, 44, 0
11, 31968, Note_on_c, 9, 46, 65
11, 31968, Note_on_c, 9, 40, 127
11, 31980, Note_on_c, 9, 40, 0
11, 31980, Note_on_c, 9, 46, 0
11, 31992, Note_on_c, 9, 42, 31
11, 32004, Note_on_c, 9, 42, 0
11, 32016, Note_on_c, 9, 44, 90
11, 32028, Note_on_c, 9, 44, 0
11, 32064, Note_on_c, 9, 46, 65
11, 32064, Note_on_c, 9, 36, 120
11, 32076, Note_on_c, 9, 36, 0
11, 32076, Note_on_c, 9, 46, 0
11, 32088, Note_on_c, 9, 42, 31
11, 32100, Note_on_c, 9, 42, 0
11, 32112, Note_on_c, 9, 44, 90
11, 32124, Note_on_c, 9, 44, 0
11, 32160, Note_on_c, 9, 46, 65
11, 32160, Note_on_c, 9, 40, 127
11, 32172, Note_on_c, 9, 40, 0
11, 32172, Note_on_c, 9, 46, 0
11, 32184, Note_on_c, 9, 42, 31
11, 32196, Note_on_c, 9, 42, 0
11, 32208, Note_on_c, 9, 44, 90
11, 32220, Note_on_c, 9, 44, 0
11, 32256, Note_on_c, 9, 46, 65
11, 32256, Note_on_c, 9, 36, 120
11, 32268, Note_on_c, 9, 36, 0
11, 32268, Note_on_c, 9, 46, 0
11, 32280, Note_on_c, 9, 42, 31
11, 32292, Note_on_c, 9, 42, 0
11, 32304, Note_on_c, 9, 44, 90
11, 32316, Note_on_c, 9, 44, 0
11, 32352, Note_on_c, 9, 46, 65
11, 32352, Note_on_c, 9, 40, 127
11, 32364, Note_on_c, 9, 40, 0
11, 32364, Note_on_c, 9, 46, 0
11, 32376, Note_on_c, 9, 42, 31
11, 32388, Note_on_c, 9, 42, 0
11, 32400, Note_on_c, 9, 44, 90
11, 32412, Note_on_c, 9, 44, 0
11, 32448, Note_on_c, 9, 46, 65
11, 32448, Note_on_c, 9, 36, 120
11, 32460, Note_on_c, 9, 36, 0
11, 32460, Note_on_c, 9, 46, 0
11, 32472, Note_on_c, 9, 42, 31
11, 32484, Note_on_c, 9, 42, 0
11, 32496, Note_on_c, 9, 44, 90
11, 32508, Note_on_c, 9, 44, 0
11, 32544, Note_on_c, 9, 46, 65
11, 32544, Note_on_c, 9, 40, 127
11, 32556, Note_on_c, 9, 40, 0
11, 32556, Note_on_c, 9, 46, 0
11, 32568, Note_on_c, 9, 42, 31
11, 32580, Note_on_c, 9, 42, 0
11, 32592, Note_on_c, 9, 44, 90
11, 32595, Note_on_c, 9, 40, 127
11, 32604, Note_on_c, 9, 44, 0
11, 32607, Note_on_c, 9, 40, 0
11, 32640, Note_on_c, 9, 46, 65
11, 32640, Note_on_c, 9, 36, 120
11, 32652, Note_on_c, 9, 36, 0
11, 32652, Note_on_c, 9, 46, 0
11, 32664, Note_on_c, 9, 42, 31
11, 32676, Note_on_c, 9, 42, 0
11, 32688, Note_on_c, 9, 44, 90
11, 32700, Note_on_c, 9, 44, 0
11, 32736, Note_on_c, 9, 46, 65
11, 32736, Note_on_c, 9, 40, 127
11, 32748, Note_on_c, 9, 40, 0
11, 32748, Note_on_c, 9, 46, 0
11, 32760, Note_on_c, 9, 42, 31
11, 32772, Note_on_c, 9, 42, 0
11, 32784, Note_on_c, 9, 44, 90
11, 32796, Note_on_c, 9, 44, 0
11, 32832, Note_on_c, 9, 46, 65
11, 32832, Note_on_c, 9, 36, 120
11, 32844, Note_on_c, 9, 36, 0
11, 32844, Note_on_c, 9, 46, 0
11, 32856, Note_on_c, 9, 42, 31
11, 32868, Note_on_c, 9, 42, 0
11, 32880, Note_on_c, 9, 44, 90
11, 32892, Note_on_c, 9, 44, 0
11, 32928, Note_on_c, 9, 46, 65
11, 32928, Note_on_c, 9, 40, 127
11, 32940, Note_on_c, 9, 40, 0
11, 32940, Note_on_c, 9, 46, 0
11, 32952, Note_on_c, 9, 42, 31
11, 32964, Note_on_c, 9, 42, 0
11, 32976, Note_on_c, 9, 44, 90
11, 32988, Note_on_c, 9, 44, 0
11, 33024, Note_on_c, 9, 46, 65
11, 33024, Note_on_c, 9, 36, 120
11, 33036, Note_on_c, 9, 36, 0
11, 33036, Note_on_c, 9, 46, 0
11, 33048, Note_on_c, 9, 42, 31
11, 33060, Note_on_c, 9, 42, 0
11, 33072, Note_on_c, 9, 44, 90
11, 33084, Note_on_c, 9, 44, 0
11, 33120, Note_on_c, 9, 46, 65
11, 33120, Note_on_c, 9, 40, 127
11, 33132, Note_on_c, 9, 40, 0
11, 33132, Note_on_c, 9, 46, 0
11, 33144, Note_on_c, 9, 42, 31
11, 33156, Note_on_c, 9, 42, 0
11, 33168, Note_on_c, 9, 44, 90
11, 33180, Note_on_c, 9, 44, 0
11, 33216, Note_on_c, 9, 46, 65
11, 33216, Note_on_c, 9, 36, 120
11, 33228, Note_on_c, 9, 36, 0
11, 33228, Note_on_c, 9, 46, 0
11, 33240, Note_on_c, 9, 42, 31
11, 33252, Note_on_c, 9, 42, 0
11, 33264, Note_on_c, 9, 44, 90
11, 33276, Note_on_c, 9, 44, 0
11, 33312, Note_on_c, 9, 46, 65
11, 33312, Note_on_c, 9, 40, 127
11, 33324, Note_on_c, 9, 40, 0
11, 33324, Note_on_c, 9, 46, 0
11, 33336, Note_on_c, 9, 42, 31
11, 33348, Note_on_c, 9, 42, 0
11, 33360, Note_on_c, 9, 44, 90
11, 33372, Note_on_c, 9, 44, 0
11, 33408, Note_on_c, 9, 46, 65
11, 33408, Note_on_c, 9, 36, 120
11, 33420, Note_on_c, 9, 36, 0
11, 33420, Note_on_c, 9, 46, 0
11, 33432, Note_on_c, 9, 42, 31
11, 33444, Note_on_c, 9, 42, 0
11, 33456, Note_on_c, 9, 44, 90
11, 33468, Note_on_c, 9, 44, 0
11, 33504, Note_on_c, 9, 46, 65
11, 33504, Note_on_c, 9, 40, 127
11, 33516, Note_on_c, 9, 40, 0
11, 33516, Note_on_c, 9, 46, 0
11, 33528, Note_on_c, 9, 42, 31
11, 33540, Note_on_c, 9, 42, 0
11, 33552, Note_on_c, 9, 44, 90
11, 33564, Note_on_c, 9, 44, 0
11, 33600, Note_on_c, 9, 46, 65
11, 33600, Note_on_c, 9, 36, 120
11, 33612, Note_on_c, 9, 36, 0
11, 33612, Note_on_c, 9, 46, 0
11, 33624, Note_on_c, 9, 42, 31
11, 33636, Note_on_c, 9, 42, 0
11, 33648, Note_on_c, 9, 44, 90
11, 33660, Note_on_c, 9, 44, 0
11, 33664, Note_on_c, 9, 40, 56
11, 33676, Note_on_c, 9, 40, 0
11, 33679, Note_on_c, 9, 40, 83
11, 33691, Note_on_c, 9, 40, 0
11, 33696, Note_on_c, 9, 40, 127
11, 33708, Note_on_c, 9, 40, 0
11, 33721, Note_on_c, 9, 40, 99
11, 33733, Note_on_c, 9, 40, 0
11, 33744, Note_on_c, 9, 36, 120
11, 33756, Note_on_c, 9, 36, 0
11, 33768, Note_on_c, 9, 36, 103
11, 33780, Note_on_c, 9, 36, 0
11, 33792, Note_on_c, 9, 40, 127
11, 33799, Note_on_c, 9, 40, 127
11, 33804, Note_on_c, 9, 40, 0
11, 33811, Note_on_c, 9, 40, 0
11, 34080, Note_on_c, 9, 40, 127
11, 34091, Note_on_c, 9, 40, 127
11, 34092, Note_on_c, 9, 40, 0
11, 34103, Note_on_c, 9, 40, 0
11, 34176, Note_on_c, 9, 57, 100
11, 34176, Note_on_c, 9, 36, 120
11, 34188, Note_on_c, 9, 36, 0
11, 34188, Note_on_c, 9, 57, 0
11, 34200, Note_on_c, 9, 44, 31
11, 34212, Note_on_c, 9, 44, 0
11, 34224, Note_on_c, 9, 44, 90
11, 34236, Note_on_c, 9, 44, 0
11, 34272, Note_on_c, 9, 46, 67
11, 34272, Note_on_c, 9, 40, 127
11, 34284, Note_on_c, 9, 40, 0
11, 34284, Note_on_c, 9, 46, 0
11, 34296, Note_on_c, 9, 44, 34
11, 34308, Note_on_c, 9, 44, 0
11, 34320, Note_on_c, 9, 44, 90
11, 34332, Note_on_c, 9, 44, 0
11, 34368, Note_on_c, 9, 46, 67
11, 34368, Note_on_c, 9, 36, 120
11, 34380, Note_on_c, 9, 36, 0
11, 34380, Note_on_c, 9, 46, 0
11, 34392, Note_on_c, 9, 44, 34
11, 34404, Note_on_c, 9, 44, 0
11, 34416, Note_on_c, 9, 44, 90
11, 34428, Note_on_c, 9, 44, 0
11, 34464, Note_on_c, 9, 46, 67
11, 34464, Note_on_c, 9, 40, 127
11, 34476, Note_on_c, 9, 40, 0
11, 34476, Note_on_c, 9, 46, 0
11, 34488, Note_on_c, 9, 44, 30
11, 34500, Note_on_c, 9, 44, 0
11, 34512, Note_on_c, 9, 44, 90
11, 34524, Note_on_c, 9, 44, 0
11, 34560, Note_on_c, 9, 46, 67
11, 34560, Note_on_c, 9, 36, 120
11, 34572, Note_on_c, 9, 36, 0
11, 34572, Note_on_c, 9, 46, 0
11, 34584, Note_on_c, 9, 44, 30
11, 34596, Note_on_c, 9, 44, 0
11, 34608, Note_on_c, 9, 46, 90
11, 34608, Note_on_c, 9, 40, 127
11, 34620, Note_on_c, 9, 40, 0
11, 34620, Note_on_c, 9, 46, 0
11, 34656, Note_on_c, 9, 46, 67
11, 34656, Note_on_c, 9, 40, 127
11, 34668, Note_on_c, 9, 40, 0
11, 34668, Note_on_c, 9, 46, 0
11, 34704, Note_on_c, 9, 46, 90
11, 34704, Note_on_c, 9, 36, 120
11, 34716, Note_on_c, 9, 36, 0
11, 34716, Note_on_c, 9, 46, 0
11, 34752, Note_on_c, 9, 46, 67
11, 34752, Note_on_c, 9, 40, 127
11, 34764, Note_on_c, 9, 40, 0
11, 34764, Note_on_c, 9, 46, 0
11, 34776, Note_on_c, 9, 44, 31
11, 34788, Note_on_c, 9, 44, 0
11, 34800, Note_on_c, 9, 44, 90
11, 34800, Note_on_c, 9, 36, 120
11, 34812, Note_on_c, 9, 36, 0
11, 34812, Note_on_c, 9, 44, 0
11, 34848, Note_on_c, 9, 46, 67
11, 34848, Note_on_c, 9, 40, 127
11, 34860, Note_on_c, 9, 40, 0
11, 34860, Note_on_c, 9, 46, 0
11, 34896, Note_on_c, 9, 44, 90
11, 34896, Note_on_c, 9, 36, 120
11, 34908, Note_on_c, 9, 36, 0
11, 34908, Note_on_c, 9, 44, 0
11, 34944, Note_on_c, 9, 57, 100
11, 34944, Note_on_c, 9, 39, 107
11, 34944, Note_on_c, 9, 36, 120
11, 34956, Note_on_c, 9, 36, 0
11, 34956, Note_on_c, 9, 39, 0
11, 34956, Note_on_c, 9, 57, 0
11, 34992, Note_on_c, 9, 46, 69
11, 35004, Note_on_c, 9, 46, 0
11, 35040, Note_on_c, 9, 46, 91
11, 35040, Note_on_c, 9, 39, 107
11, 35040, Note_on_c, 9, 40, 127
11, 35052, Note_on_c, 9, 40, 0
11, 35052, Note_on_c, 9, 39, 0
11, 35052, Note_on_c, 9, 46, 0
11, 35088, Note_on_c, 9, 46, 69
11, 35088, Note_on_c, 9, 39, 107
11, 35100, Note_on_c, 9, 39, 0
11, 35100, Note_on_c, 9, 46, 0
11, 35136, Note_on_c, 9, 46, 93
11, 35136, Note_on_c, 9, 39, 107
11, 35136, Note_on_c, 9, 36, 120
11, 35148, Note_on_c, 9, 36, 0
11, 35148, Note_on_c, 9, 39, 0
11, 35148, Note_on_c, 9, 46, 0
11, 35184, Note_on_c, 9, 46, 69
11, 35184, Note_on_c, 9, 39, 107
11, 35196, Note_on_c, 9, 39, 0
11, 35196, Note_on_c, 9, 46, 0
11, 35232, Note_on_c, 9, 46, 93
11, 35232, Note_on_c, 9, 39, 107
11, 35232, Note_on_c, 9, 40, 127
11, 35244, Note_on_c, 9, 40, 0
11, 35244, Note_on_c, 9, 39, 0
11, 35244, Note_on_c, 9, 46, 0
11, 35280, Note_on_c, 9, 46, 69
11, 35292, Note_on_c, 9, 46, 0
11, 35328, Note_on_c, 9, 46, 90
11, 35328, Note_on_c, 9, 39, 107
11, 35328, Note_on_c, 9, 36, 120
11, 35340, Note_on_c, 9, 36, 0
11, 35340, Note_on_c, 9, 39, 0
11, 35340, Note_on_c, 9, 46, 0
11, 35376, Note_on_c, 9, 46, 69
11, 35388, Note_on_c, 9, 46, 0
11, 35424, Note_on_c, 9, 46, 91
11, 35424, Note_on_c, 9, 39, 107
11, 35424, Note_on_c, 9, 40, 127
11, 35436, Note_on_c, 9, 40, 0
11, 35436, Note_on_c, 9, 39, 0
11, 35436, Note_on_c, 9, 46, 0
11, 35472, Note_on_c, 9, 46, 69
11, 35472, Note_on_c, 9, 39, 107
11, 35472, Note_on_c, 9, 40, 127
11, 35484, Note_on_c, 9, 40, 0
11, 35484, Note_on_c, 9, 39, 0
11, 35484, Note_on_c, 9, 46, 0
11, 35520, Note_on_c, 9, 46, 93
11, 35520, Note_on_c, 9, 39, 107
11, 35520, Note_on_c, 9, 36, 120
11, 35532, Note_on_c, 9, 36, 0
11, 35532, Note_on_c, 9, 39, 0
11, 35532, Note_on_c, 9, 46, 0
11, 35568, Note_on_c, 9, 46, 69
11, 35568, Note_on_c, 9, 39, 107
11, 35580, Note_on_c, 9, 39, 0
11, 35580, Note_on_c, 9, 46, 0
11, 35616, Note_on_c, 9, 46, 93
11, 35616, Note_on_c, 9, 39, 107
11, 35616, Note_on_c, 9, 40, 127
11, 35628, Note_on_c, 9, 40, 0
11, 35628, Note_on_c, 9, 39, 0
11, 35628, Note_on_c, 9, 46, 0
11, 35664, Note_on_c, 9, 46, 69
11, 35664, Note_on_c, 9, 36, 120
11, 35676, Note_on_c, 9, 36, 0
11, 35676, Note_on_c, 9, 46, 0
11, 35712, Note_on_c, 9, 46, 90
11, 35712, Note_on_c, 9, 39, 107
11, 35712, Note_on_c, 9, 36, 120
11, 35724, Note_on_c, 9, 36, 0
11, 35724, Note_on_c, 9, 39, 0
11, 35724, Note_on_c, 9, 46, 0
11, 35760, Note_on_c, 9, 46, 69
11, 35772, Note_on_c, 9, 46, 0
11, 35808, Note_on_c, 9, 49, 100
11, 35808, Note_on_c, 9, 39, 107
11, 35808, Note_on_c, 9, 40, 127
11, 35820, Note_on_c, 9, 40, 0
11, 35820, Note_on_c, 9, 39, 0
11, 35820, Note_on_c, 9, 49, 0
11, 35856, Note_on_c, 9, 46, 69
11, 35856, Note_on_c, 9, 39, 107
11, 35868, Note_on_c, 9, 39, 0
11, 35868, Note_on_c, 9, 46, 0
11, 35904, Note_on_c, 9, 46, 93
11, 35904, Note_on_c, 9, 39, 107
11, 35904, Note_on_c, 9, 36, 120
11, 35916, Note_on_c, 9, 36, 0
11, 35916, Note_on_c, 9, 39, 0
11, 35916, Note_on_c, 9, 46, 0
11, 35952, Note_on_c, 9, 46, 69
11, 35952, Note_on_c, 9, 39, 107
11, 35964, Note_on_c, 9, 39, 0
11, 35964, Note_on_c, 9, 46, 0
11, 36000, Note_on_c, 9, 46, 93
11, 36000, Note_on_c, 9, 39, 107
11, 36000, Note_on_c, 9, 40, 127
11, 36012, Note_on_c, 9, 40, 0
11, 36012, Note_on_c, 9, 39, 0
11, 36012, Note_on_c, 9, 46, 0
11, 36048, Note_on_c, 9, 46, 69
11, 36060, Note_on_c, 9, 46, 0
11, 36096, Note_on_c, 9, 46, 90
11, 36096, Note_on_c, 9, 39, 107
11, 36096, Note_on_c, 9, 36, 120
11, 36108, Note_on_c, 9, 36, 0
11, 36108, Note_on_c, 9, 39, 0
11, 36108, Note_on_c, 9, 46, 0
11, 36144, Note_on_c, 9, 46, 69
11, 36156, Note_on_c, 9, 46, 0
11, 36192, Note_on_c, 9, 46, 91
11, 36192, Note_on_c, 9, 39, 107
11, 36192, Note_on_c, 9, 40, 127
11, 36204, Note_on_c, 9, 40, 0
11, 36204, Note_on_c, 9, 39, 0
11, 36204, Note_on_c, 9, 46, 0
11, 36240, Note_on_c, 9, 46, 69
11, 36240, Note_on_c, 9, 39, 107
11, 36252, Note_on_c, 9, 39, 0
11, 36252, Note_on_c, 9, 46, 0
11, 36288, Note_on_c, 9, 46, 93
11, 36288, Note_on_c, 9, 39, 107
11, 36288, Note_on_c, 9, 36, 120
11, 36300, Note_on_c, 9, 36, 0
11, 36300, Note_on_c, 9, 39, 0
11, 36300, Note_on_c, 9, 46, 0
11, 36336, Note_on_c, 9, 46, 69
11, 36336, Note_on_c, 9, 39, 107
11, 36348, Note_on_c, 9, 39, 0
11, 36348, Note_on_c, 9, 46, 0
11, 36384, Note_on_c, 9, 46, 93
11, 36384, Note_on_c, 9, 39, 107
11, 36384, Note_on_c, 9, 40, 127
11, 36396, Note_on_c, 9, 40, 0
11, 36396, Note_on_c, 9, 39, 0
11, 36396, Note_on_c, 9, 46, 0
11, 36432, Note_on_c, 9, 46, 69
11, 36432, Note_on_c, 9, 40, 74
11, 36444, Note_on_c, 9, 40, 0
11, 36444, Note_on_c, 9, 46, 0
11, 36446, Note_on_c, 9, 40, 92
11, 36456, Note_on_c, 9, 40, 104
11, 36458, Note_on_c, 9, 40, 0
11, 36468, Note_on_c, 9, 40, 0
11, 36468, Note_on_c, 9, 40, 122
11, 36480, Note_on_c, 9, 40, 0
11, 36480, Note_on_c, 9, 57, 100
11, 36480, Note_on_c, 9, 39, 107
11, 36480, Note_on_c, 9, 36, 120
11, 36492, Note_on_c, 9, 36, 0
11, 36492, Note_on_c, 9, 39, 0
11, 36492, Note_on_c, 9, 57, 0
11, 36528, Note_on_c, 9, 46, 69
11, 36540, Note_on_c, 9, 46, 0
11, 36576, Note_on_c, 9, 46, 91
11, 36576, Note_on_c, 9, 39, 107
11, 36576, Note_on_c, 9, 40, 127
11, 36588, Note_on_c, 9, 40, 0
11, 36588, Note_on_c, 9, 39, 0
11, 36588, Note_on_c, 9, 46, 0
11, 36624, Note_on_c, 9, 46, 69
11, 36624, Note_on_c, 9, 39, 107
11, 36636, Note_on_c, 9, 39, 0
11, 36636, Note_on_c, 9, 46, 0
11, 36672, Note_on_c, 9, 46, 93
11, 36672, Note_on_c, 9, 39, 107
11, 36672, Note_on_c, 9, 36, 120
11, 36684, Note_on_c, 9, 36, 0
11, 36684, Note_on_c, 9, 39, 0
11, 36684, Note_on_c, 9, 46, 0
11, 36720, Note_on_c, 9, 46, 69
11, 36720, Note_on_c, 9, 39, 107
11, 36732, Note_on_c, 9, 39, 0
11, 36732, Note_on_c, 9, 46, 0
11, 36768, Note_on_c, 9, 46, 93
11, 36768, Note_on_c, 9, 39, 107
11, 36768, Note_on_c, 9, 40, 127
11, 36780, Note_on_c, 9, 40, 0
11, 36780, Note_on_c, 9, 39, 0
11, 36780, Note_on_c, 9, 46, 0
11, 36816, Note_on_c, 9, 46, 69
11, 36828, Note_on_c, 9, 46, 0
11, 36864, Note_on_c, 9, 46, 90
11, 36864, Note_on_c, 9, 39, 107
11, 36864, Note_on_c, 9, 36, 120
11, 36876, Note_on_c, 9, 36, 0
11, 36876, Note_on_c, 9, 39, 0
11, 36876, Note_on_c, 9, 46, 0
11, 36912, Note_on_c, 9, 46, 69
11, 36924, Note_on_c, 9, 46, 0
11, 36960, Note_on_c, 9, 46, 91
11, 36960, Note_on_c, 9, 39, 107
11, 36960, Note_on_c, 9, 40, 127
11, 36972, Note_on_c, 9, 40, 0
11, 36972, Note_on_c, 9, 39, 0
11, 36972, Note_on_c, 9, 46, 0
11, 37008, Note_on_c, 9, 46, 69
11, 37008, Note_on_c, 9, 39, 107
11, 37008, Note_on_c, 9, 40, 127
11, 37020, Note_on_c, 9, 40, 0
11, 37020, Note_on_c, 9, 39, 0
11, 37020, Note_on_c, 9, 46, 0
11, 37056, Note_on_c, 9, 46, 93
11, 37056, Note_on_c, 9, 39, 107
11, 37056, Note_on_c, 9, 36, 120
11, 37068, Note_on_c, 9, 36, 0
11, 37068, Note_on_c, 9, 39, 0
11, 37068, Note_on_c, 9, 46, 0
11, 37104, Note_on_c, 9, 46, 69
11, 37104, Note_on_c, 9, 39, 107
11, 37116, Note_on_c, 9, 39, 0
11, 37116, Note_on_c, 9, 46, 0
11, 37152, Note_on_c, 9, 46, 93
11, 37152, Note_on_c, 9, 39, 107
11, 37152, Note_on_c, 9, 40, 127
11, 37164, Note_on_c, 9, 40, 0
11, 37164, Note_on_c, 9, 39, 0
11, 37164, Note_on_c, 9, 46, 0
11, 37200, Note_on_c, 9, 46, 69
11, 37200, Note_on_c, 9, 40, 82
11, 37212, Note_on_c, 9, 40, 0
11, 37212, Note_on_c, 9, 46, 0
11, 37212, Note_on_c, 9, 40, 88
11, 37224, Note_on_c, 9, 40, 0
11, 37224, Note_on_c, 9, 40, 100
11, 37236, Note_on_c, 9, 40, 0
11, 37236, Note_on_c, 9, 40, 124
11, 37248, Note_on_c, 9, 40, 0
11, 37248, Note_on_c, 9, 39, 107
11, 37248, Note_on_c, 9, 40, 127
11, 37260, Note_on_c, 9, 40, 0
11, 37260, Note_on_c, 9, 39, 0
11, 37632, Note_on_c, 9, 57, 100
11, 37632, Note_on_c, 9, 36, 120
11, 37644, Note_on_c, 9, 36, 0
11, 37644, Note_on_c, 9, 57, 0
11, 37680, Note_on_c, 9, 46, 69
11, 37692, Note_on_c, 9, 46, 0
11, 37728, Note_on_c, 9, 46, 91
11, 37728, Note_on_c, 9, 40, 127
11, 37740, Note_on_c, 9, 40, 0
11, 37740, Note_on_c, 9, 46, 0
11, 37776, Note_on_c, 9, 46, 69
11, 37788, Note_on_c, 9, 46, 0
11, 37824, Note_on_c, 9, 46, 93
11, 37824, Note_on_c, 9, 36, 120
11, 37836, Note_on_c, 9, 36, 0
11, 37836, Note_on_c, 9, 46, 0
11, 37872, Note_on_c, 9, 46, 69
11, 37884, Note_on_c, 9, 46, 0
11, 37920, Note_on_c, 9, 46, 93
11, 37920, Note_on_c, 9, 40, 127
11, 37932, Note_on_c, 9, 40, 0
11, 37932, Note_on_c, 9, 46, 0
11, 37968, Note_on_c, 9, 46, 69
11, 37980, Note_on_c, 9, 46, 0
11, 38016, Note_on_c, 9, 46, 90
11, 38016, Note_on_c, 9, 36, 120
11, 38028, Note_on_c, 9, 36, 0
11, 38028, Note_on_c, 9, 46, 0
11, 38064, Note_on_c, 9, 46, 69
11, 38076, Note_on_c, 9, 46, 0
11, 38112, Note_on_c, 9, 46, 91
11, 38112, Note_on_c, 9, 40, 127
11, 38124, Note_on_c, 9, 40, 0
11, 38124, Note_on_c, 9, 46, 0
11, 38160, Note_on_c, 9, 46, 69
11, 38172, Note_on_c, 9, 46, 0
11, 38208, Note_on_c, 9, 46, 93
11, 38208, Note_on_c, 9, 36, 120
11, 38220, Note_on_c, 9, 36, 0
11, 38220, Note_on_c, 9, 46, 0
11, 38256, Note_on_c, 9, 46, 69
11, 38268, Note_on_c, 9, 46, 0
11, 38304, Note_on_c, 9, 46, 93
11, 38304, Note_on_c, 9, 40, 127
11, 38316, Note_on_c, 9, 40, 0
11, 38316, Note_on_c, 9, 46, 0
11, 38352, Note_on_c, 9, 46, 69
11, 38364, Note_on_c, 9, 46, 0
11, 38400, Note_on_c, 9, 36, 120
11, 38400, Note_on_c, 9, 40, 127
11, 38408, Note_on_c, 9, 40, 127
11, 38412, Note_on_c, 9, 40, 0
11, 38412, Note_on_c, 9, 36, 0
11, 38420, Note_on_c, 9, 40, 0
11, 38688, Note_on_c, 9, 40, 127
11, 38697, Note_on_c, 9, 40, 127
11, 38700, Note_on_c, 9, 40, 0
11, 38709, Note_on_c, 9, 40, 0
11, 38784, Note_on_c, 9, 57, 100
11, 38784, Note_on_c, 9, 36, 120
11, 38796, Note_on_c, 9, 36, 0
11, 38796, Note_on_c, 9, 57, 0
11, 38832, Note_on_c, 9, 46, 69
11, 38844, Note_on_c, 9, 46, 0
11, 38880, Note_on_c, 9, 46, 91
11, 38880, Note_on_c, 9, 40, 127
11, 38892, Note_on_c, 9, 40, 0
11, 38892, Note_on_c, 9, 46, 0
11, 38928, Note_on_c, 9, 46, 69
11, 38940, Note_on_c, 9, 46, 0
11, 38976, Note_on_c, 9, 46, 93
11, 38976, Note_on_c, 9, 36, 120
11, 38988, Note_on_c, 9, 36, 0
11, 38988, Note_on_c, 9, 46, 0
11, 39024, Note_on_c, 9, 46, 69
11, 39036, Note_on_c, 9, 46, 0
11, 39072, Note_on_c, 9, 46, 93
11, 39072, Note_on_c, 9, 40, 127
11, 39084, Note_on_c, 9, 40, 0
11, 39084, Note_on_c, 9, 46, 0
11, 39120, Note_on_c, 9, 46, 69
11, 39132, Note_on_c, 9, 46, 0
11, 39168, Note_on_c, 9, 46, 90
11, 39168, Note_on_c, 9, 36, 120
11, 39180, Note_on_c, 9, 36, 0
11, 39180, Note_on_c, 9, 46, 0
11, 39216, Note_on_c, 9, 46, 69
11, 39228, Note_on_c, 9, 46, 0
11, 39264, Note_on_c, 9, 46, 91
11, 39264, Note_on_c, 9, 40, 127
11, 39276, Note_on_c, 9, 40, 0
11, 39276, Note_on_c, 9, 46, 0
11, 39312, Note_on_c, 9, 46, 69
11, 39324, Note_on_c, 9, 46, 0
11, 39360, Note_on_c, 9, 46, 93
11, 39360, Note_on_c, 9, 36, 120
11, 39372, Note_on_c, 9, 36, 0
11, 39372, Note_on_c, 9, 46, 0
11, 39408, Note_on_c, 9, 46, 69
11, 39420, Note_on_c, 9, 46, 0
11, 39456, Note_on_c, 9, 46, 93
11, 39456, Note_on_c, 9, 40, 127
11, 39468, Note_on_c, 9, 40, 0
11, 39468, Note_on_c, 9, 46, 0
11, 39504, Note_on_c, 9, 46, 69
11, 39516, Note_on_c, 9, 46, 0
11, 39552, Note_on_c, 9, 46, 90
11, 39552, Note_on_c, 9, 36, 120
11, 39564, Note_on_c, 9, 36, 0
11, 39564, Note_on_c, 9, 46, 0
11, 39600, Note_on_c, 9, 46, 69
11, 39612, Note_on_c, 9, 46, 0
11, 39648, Note_on_c, 9, 46, 91
11, 39648, Note_on_c, 9, 40, 127
11, 39660, Note_on_c, 9, 40, 0
11, 39660, Note_on_c, 9, 46, 0
11, 39696, Note_on_c, 9, 46, 69
11, 39708, Note_on_c, 9, 46, 0
11, 39744, Note_on_c, 9, 46, 93
11, 39744, Note_on_c, 9, 36, 120
11, 39756, Note_on_c, 9, 36, 0
11, 39756, Note_on_c, 9, 46, 0
11, 39792, Note_on_c, 9, 46, 69
11, 39804, Note_on_c, 9, 46, 0
11, 39840, Note_on_c, 9, 46, 93
11, 39840, Note_on_c, 9, 40, 127
11, 39852, Note_on_c, 9, 40, 0
11, 39852, Note_on_c, 9, 46, 0
11, 39888, Note_on_c, 9, 46, 69
11, 39888, Note_on_c, 9, 40, 127
11, 39900, Note_on_c, 9, 40, 0
11, 39900, Note_on_c, 9, 46, 0
11, 39936, Note_on_c, 9, 46, 90
11, 39936, Note_on_c, 9, 36, 120
11, 39948, Note_on_c, 9, 36, 0
11, 39948, Note_on_c, 9, 46, 0
11, 39984, Note_on_c, 9, 46, 69
11, 39984, Note_on_c, 9, 40, 127
11, 39996, Note_on_c, 9, 40, 0
11, 39996, Note_on_c, 9, 46, 0
11, 40032, Note_on_c, 9, 46, 91
11, 40032, Note_on_c, 9, 40, 127
11, 40044, Note_on_c, 9, 40, 0
11, 40044, Note_on_c, 9, 46, 0
11, 40080, Note_on_c, 9, 46, 69
11, 40080, Note_on_c, 9, 36, 120
11, 40092, Note_on_c, 9, 36, 0
11, 40092, Note_on_c, 9, 46, 0
11, 40128, Note_on_c, 9, 46, 93
11, 40128, Note_on_c, 9, 40, 127
11, 40140, Note_on_c, 9, 40, 0
11, 40140, Note_on_c, 9, 46, 0
11, 40176, Note_on_c, 9, 46, 69
11, 40176, Note_on_c, 9, 40, 127
11, 40188, Note_on_c, 9, 40, 0
11, 40188, Note_on_c, 9, 46, 0
11, 40224, Note_on_c, 9, 46, 93
11, 40224, Note_on_c, 9, 40, 127
11, 40236, Note_on_c, 9, 40, 0
11, 40236, Note_on_c, 9, 46, 0
11, 40272, Note_on_c, 9, 46, 69
11, 40272, Note_on_c, 9, 36, 120
11, 40284, Note_on_c, 9, 36, 0
11, 40284, Note_on_c, 9, 46, 0
11, 40320, Note_on_c, 9, 46, 67
11, 40320, Note_on_c, 9, 36, 120
11, 40332, Note_on_c, 9, 36, 0
11, 40332, Note_on_c, 9, 46, 0
11, 40344, Note_on_c, 9, 42, 32
11, 40356, Note_on_c, 9, 42, 0
11, 40368, Note_on_c, 9, 44, 90
11, 40380, Note_on_c, 9, 44, 0
11, 40416, Note_on_c, 9, 46, 67
11, 40416, Note_on_c, 9, 40, 127
11, 40428, Note_on_c, 9, 40, 0
11, 40428, Note_on_c, 9, 46, 0
11, 40440, Note_on_c, 9, 42, 31
11, 40452, Note_on_c, 9, 42, 0
11, 40464, Note_on_c, 9, 44, 90
11, 40476, Note_on_c, 9, 44, 0
11, 40512, Note_on_c, 9, 46, 67
11, 40512, Note_on_c, 9, 36, 120
11, 40524, Note_on_c, 9, 36, 0
11, 40524, Note_on_c, 9, 46, 0
11, 40536, Note_on_c, 9, 42, 31
11, 40548, Note_on_c, 9, 42, 0
11, 40560, Note_on_c, 9, 44, 90
11, 40572, Note_on_c, 9, 44, 0
11, 40608, Note_on_c, 9, 46, 67
11, 40608, Note_on_c, 9, 40, 127
11, 40620, Note_on_c, 9, 40, 0
11, 40620, Note_on_c, 9, 46, 0
11, 40632, Note_on_c, 9, 42, 31
11, 40644, Note_on_c, 9, 42, 0
11, 40656, Note_on_c, 9, 44, 90
11, 40668, Note_on_c, 9, 44, 0
11, 40704, Note_on_c, 9, 46, 67
11, 40704, Note_on_c, 9, 36, 120
11, 40716, Note_on_c, 9, 36, 0
11, 40716, Note_on_c, 9, 46, 0
11, 40728, Note_on_c, 9, 42, 31
11, 40740, Note_on_c, 9, 42, 0
11, 40752, Note_on_c, 9, 44, 90
11, 40764, Note_on_c, 9, 44, 0
11, 40800, Note_on_c, 9, 46, 67
11, 40800, Note_on_c, 9, 40, 127
11, 40812, Note_on_c, 9, 40, 0
11, 40812, Note_on_c, 9, 46, 0
11, 40824, Note_on_c, 9, 42, 31
11, 40836, Note_on_c, 9, 42, 0
11, 40848, Note_on_c, 9, 44, 90
11, 40860, Note_on_c, 9, 44, 0
11, 40896, Note_on_c, 9, 46, 67
11, 40896, Note_on_c, 9, 36, 120
11, 40908, Note_on_c, 9, 36, 0
11, 40908, Note_on_c, 9, 46, 0
11, 40920, Note_on_c, 9, 42, 31
11, 40932, Note_on_c, 9, 42, 0
11, 40944, Note_on_c, 9, 44, 90
11, 40956, Note_on_c, 9, 44, 0
11, 40992, Note_on_c, 9, 46, 67
11, 40992, Note_on_c, 9, 40, 127
11, 41004, Note_on_c, 9, 40, 0
11, 41004, Note_on_c, 9, 46, 0
11, 41016, Note_on_c, 9, 42, 31
11, 41028, Note_on_c, 9, 42, 0
11, 41040, Note_on_c, 9, 44, 90
11, 41040, Note_on_c, 9, 36, 120
11, 41052, Note_on_c, 9, 36, 0
11, 41052, Note_on_c, 9, 44, 0
11, 41088, Note_on_c, 9, 46, 67
11, 41088, Note_on_c, 9, 36, 120
11, 41100, Note_on_c, 9, 36, 0
11, 41100, Note_on_c, 9, 46, 0
11, 41112, Note_on_c, 9, 42, 29
11, 41124, Note_on_c, 9, 42, 0
11, 41136, Note_on_c, 9, 44, 90
11, 41148, Note_on_c, 9, 44, 0
11, 41184, Note_on_c, 9, 49, 100
11, 41184, Note_on_c, 9, 40, 127
11, 41196, Note_on_c, 9, 40, 0
11, 41196, Note_on_c, 9, 49, 0
11, 41232, Note_on_c, 9, 44, 90
11, 41244, Note_on_c, 9, 44, 0
11, 41280, Note_on_c, 9, 46, 67
11, 41280, Note_on_c, 9, 36, 120
11, 41292, Note_on_c, 9, 36, 0
11, 41292, Note_on_c, 9, 46, 0
11, 41328, Note_on_c, 9, 44, 90
11, 41340, Note_on_c, 9, 44, 0
11, 41376, Note_on_c, 9, 46, 67
11, 41376, Note_on_c, 9, 40, 127
11, 41388, Note_on_c, 9, 40, 0
11, 41388, Note_on_c, 9, 46, 0
11, 41424, Note_on_c, 9, 44, 90
11, 41436, Note_on_c, 9, 44, 0
11, 41472, Note_on_c, 9, 46, 67
11, 41472, Note_on_c, 9, 36, 120
11, 41484, Note_on_c, 9, 36, 0
11, 41484, Note_on_c, 9, 46, 0
11, 41520, Note_on_c, 9, 44, 90
11, 41532, Note_on_c, 9, 44, 0
11, 41568, Note_on_c, 9, 46, 67
11, 41568, Note_on_c, 9, 40, 127
11, 41580, Note_on_c, 9, 40, 0
11, 41580, Note_on_c, 9, 46, 0
11, 41616, Note_on_c, 9, 44, 90
11, 41616, Note_on_c, 9, 40, 127
11, 41628, Note_on_c, 9, 40, 0
11, 41628, Note_on_c, 9, 44, 0
11, 41664, Note_on_c, 9, 46, 67
11, 41664, Note_on_c, 9, 36, 120
11, 41676, Note_on_c, 9, 36, 0
11, 41676, Note_on_c, 9, 46, 0
11, 41712, Note_on_c, 9, 44, 90
11, 41724, Note_on_c, 9, 44, 0
11, 41760, Note_on_c, 9, 46, 67
11, 41760, Note_on_c, 9, 40, 127
11, 41772, Note_on_c, 9, 40, 0
11, 41772, Note_on_c, 9, 46, 0
11, 41808, Note_on_c, 9, 44, 90
11, 41808, Note_on_c, 9, 40, 91
11, 41820, Note_on_c, 9, 40, 0
11, 41820, Note_on_c, 9, 44, 0
11, 41832, Note_on_c, 9, 40, 125
11, 41844, Note_on_c, 9, 40, 0
11, 41856, Note_on_c, 9, 46, 67
11, 41856, Note_on_c, 9, 36, 120
11, 41868, Note_on_c, 9, 36, 0
11, 41868, Note_on_c, 9, 46, 0
11, 41880, Note_on_c, 9, 42, 33
11, 41892, Note_on_c, 9, 42, 0
11, 41904, Note_on_c, 9, 44, 90
11, 41916, Note_on_c, 9, 44, 0
11, 41952, Note_on_c, 9, 46, 67
11, 41952, Note_on_c, 9, 40, 127
11, 41964, Note_on_c, 9, 40, 0
11, 41964, Note_on_c, 9, 46, 0
11, 41976, Note_on_c, 9, 42, 31
11, 41988, Note_on_c, 9, 42, 0
11, 42000, Note_on_c, 9, 44, 90
11, 42012, Note_on_c, 9, 44, 0
11, 42048, Note_on_c, 9, 46, 67
11, 42048, Note_on_c, 9, 36, 120
11, 42060, Note_on_c, 9, 36, 0
11, 42060, Note_on_c, 9, 46, 0
11, 42072, Note_on_c, 9, 42, 31
11, 42084, Note_on_c, 9, 42, 0
11, 42096, Note_on_c, 9, 44, 90
11, 42108, Note_on_c, 9, 44, 0
11, 42144, Note_on_c, 9, 46, 67
11, 42144, Note_on_c, 9, 40, 127
11, 42156, Note_on_c, 9, 40, 0
11, 42156, Note_on_c, 9, 46, 0
11, 42168, Note_on_c, 9, 42, 31
11, 42180, Note_on_c, 9, 42, 0
11, 42192, Note_on_c, 9, 44, 90
11, 42204, Note_on_c, 9, 44, 0
11, 42240, Note_on_c, 9, 46, 67
11, 42240, Note_on_c, 9, 36, 120
11, 42252, Note_on_c, 9, 36, 0
11, 42252, Note_on_c, 9, 46, 0
11, 42264, Note_on_c, 9, 42, 31
11, 42276, Note_on_c, 9, 42, 0
11, 42288, Note_on_c, 9, 44, 90
11, 42300, Note_on_c, 9, 44, 0
11, 42336, Note_on_c, 9, 46, 67
11, 42336, Note_on_c, 9, 40, 127
11, 42348, Note_on_c, 9, 40, 0
11, 42348, Note_on_c, 9, 46, 0
11, 42360, Note_on_c, 9, 42, 31
11, 42372, Note_on_c, 9, 42, 0
11, 42384, Note_on_c, 9, 44, 90
11, 42396, Note_on_c, 9, 44, 0
11, 42432, Note_on_c, 9, 46, 67
11, 42432, Note_on_c, 9, 36, 120
11, 42444, Note_on_c, 9, 36, 0
11, 42444, Note_on_c, 9, 46, 0
11, 42456, Note_on_c, 9, 42, 31
11, 42468, Note_on_c, 9, 42, 0
11, 42480, Note_on_c, 9, 44, 90
11, 42492, Note_on_c, 9, 44, 0
11, 42528, Note_on_c, 9, 46, 67
11, 42528, Note_on_c, 9, 40, 127
11, 42540, Note_on_c, 9, 40, 0
11, 42540, Note_on_c, 9, 46, 0
11, 42552, Note_on_c, 9, 42, 31
11, 42564, Note_on_c, 9, 42, 0
11, 42576, Note_on_c, 9, 44, 90
11, 42576, Note_on_c, 9, 36, 120
11, 42588, Note_on_c, 9, 36, 0
11, 42588, Note_on_c, 9, 44, 0
11, 42624, Note_on_c, 9, 46, 67
11, 42624, Note_on_c, 9, 36, 120
11, 42636, Note_on_c, 9, 36, 0
11, 42636, Note_on_c, 9, 46, 0
11, 42648, Note_on_c, 9, 42, 31
11, 42660, Note_on_c, 9, 42, 0
11, 42672, Note_on_c, 9, 44, 90
11, 42684, Note_on_c, 9, 44, 0
11, 42720, Note_on_c, 9, 57, 100
11, 42720, Note_on_c, 9, 40, 127
11, 42732, Note_on_c, 9, 40, 0
11, 42732, Note_on_c, 9, 57, 0
11, 42768, Note_on_c, 9, 44, 90
11, 42780, Note_on_c, 9, 44, 0
11, 42816, Note_on_c, 9, 46, 67
11, 42816, Note_on_c, 9, 36, 120
11, 42828, Note_on_c, 9, 36, 0
11, 42828, Note_on_c, 9, 46, 0
11, 42864, Note_on_c, 9, 44, 90
11, 42876, Note_on_c, 9, 44, 0
11, 42912, Note_on_c, 9, 46, 67
11, 42912, Note_on_c, 9, 40, 127
11, 42924, Note_on_c, 9, 40, 0
11, 42924, Note_on_c, 9, 46, 0
11, 42960, Note_on_c, 9, 44, 90
11, 42972, Note_on_c, 9, 44, 0
11, 43008, Note_on_c, 9, 46, 67
11, 43008, Note_on_c, 9, 36, 120
11, 43020, Note_on_c, 9, 36, 0
11, 43020, Note_on_c, 9, 46, 0
11, 43056, Note_on_c, 9, 44, 90
11, 43068, Note_on_c, 9, 44, 0
11, 43104, Note_on_c, 9, 46, 67
11, 43104, Note_on_c, 9, 40, 127
11, 43116, Note_on_c, 9, 40, 0
11, 43116, Note_on_c, 9, 46, 0
11, 43152, Note_on_c, 9, 44, 90
11, 43164, Note_on_c, 9, 44, 0
11, 43200, Note_on_c, 9, 46, 67
11, 43200, Note_on_c, 9, 36, 120
11, 43212, Note_on_c, 9, 36, 0
11, 43212, Note_on_c, 9, 46, 0
11, 43248, Note_on_c, 9, 44, 90
11, 43260, Note_on_c, 9, 44, 0
11, 43296, Note_on_c, 9, 40, 123
11, 43308, Note_on_c, 9, 40, 0
11, 43320, Note_on_c, 9, 40, 98
11, 43332, Note_on_c, 9, 40, 0
11, 43344, Note_on_c, 9, 40, 65
11, 43356, Note_on_c, 9, 40, 0
11, 43368, Note_on_c, 9, 40, 107
11, 43380, Note_on_c, 9, 40, 0
11, 43392, Note_on_c, 9, 46, 67
11, 43392, Note_on_c, 9, 36, 120
11, 43404, Note_on_c, 9, 36, 0
11, 43404, Note_on_c, 9, 46, 0
11, 43416, Note_on_c, 9, 42, 31
11, 43428, Note_on_c, 9, 42, 0
11, 43440, Note_on_c, 9, 44, 90
11, 43452, Note_on_c, 9, 44, 0
11, 43488, Note_on_c, 9, 46, 67
11, 43488, Note_on_c, 9, 40, 127
11, 43500, Note_on_c, 9, 40, 0
11, 43500, Note_on_c, 9, 46, 0
11, 43512, Note_on_c, 9, 42, 31
11, 43524, Note_on_c, 9, 42, 0
11, 43536, Note_on_c, 9, 44, 90
11, 43548, Note_on_c, 9, 44, 0
11, 43584, Note_on_c, 9, 46, 67
11, 43584, Note_on_c, 9, 36, 120
11, 43596, Note_on_c, 9, 36, 0
11, 43596, Note_on_c, 9, 46, 0
11, 43608, Note_on_c, 9, 42, 31
11, 43620, Note_on_c, 9, 42, 0
11, 43632, Note_on_c, 9, 44, 90
11, 43644, Note_on_c, 9, 44, 0
11, 43680, Note_on_c, 9, 46, 67
11, 43680, Note_on_c, 9, 40, 127
11, 43692, Note_on_c, 9, 40, 0
11, 43692, Note_on_c, 9, 46, 0
11, 43704, Note_on_c, 9, 42, 31
11, 43716, Note_on_c, 9, 42, 0
11, 43728, Note_on_c, 9, 44, 90
11, 43740, Note_on_c, 9, 44, 0
11, 43776, Note_on_c, 9, 46, 67
11, 43776, Note_on_c, 9, 36, 120
11, 43788, Note_on_c, 9, 36, 0
11, 43788, Note_on_c, 9, 46, 0
11, 43800, Note_on_c, 9, 42, 31
11, 43812, Note_on_c, 9, 42, 0
11, 43824, Note_on_c, 9, 44, 90
11, 43836, Note_on_c, 9, 44, 0
11, 43872, Note_on_c, 9, 46, 67
11, 43872, Note_on_c, 9, 40, 127
11, 43884, Note_on_c, 9, 40, 0
11, 43884, Note_on_c, 9, 46, 0
11, 43896, Note_on_c, 9, 42, 31
11, 43908, Note_on_c, 9, 42, 0
11, 43920, Note_on_c, 9, 44, 90
11, 43932, Note_on_c, 9, 44, 0
11, 43968, Note_on_c, 9, 46, 67
11, 43968, Note_on_c, 9, 36, 120
11, 43980, Note_on_c, 9, 36, 0
11, 43980, Note_on_c, 9, 46, 0
11, 43992, Note_on_c, 9, 42, 31
11, 44004, Note_on_c, 9, 42, 0
11, 44016, Note_on_c, 9, 44, 90
11, 44028, Note_on_c, 9, 44, 0
11, 44064, Note_on_c, 9, 46, 67
11, 44064, Note_on_c, 9, 40, 127
11, 44076, Note_on_c, 9, 40, 0
11, 44076, Note_on_c, 9, 46, 0
11, 44088, Note_on_c, 9, 42, 31
11, 44100, Note_on_c, 9, 42, 0
11, 44112, Note_on_c, 9, 44, 90
11, 44112, Note_on_c, 9, 36, 120
11, 44124, Note_on_c, 9, 36, 0
11, 44124, Note_on_c, 9, 44, 0
11, 44160, Note_on_c, 9, 46, 67
11, 44160, Note_on_c, 9, 36, 120
11, 44172, Note_on_c, 9, 36, 0
11, 44172, Note_on_c, 9, 46, 0
11, 44184, Note_on_c, 9, 44, 31
11, 44196, Note_on_c, 9, 44, 0
11, 44208, Note_on_c, 9, 44, 90
11, 44220, Note_on_c, 9, 44, 0
11, 44256, Note_on_c, 9, 57, 100
11, 44256, Note_on_c, 9, 40, 127
11, 44268, Note_on_c, 9, 40, 0
11, 44268, Note_on_c, 9, 57, 0
11, 44304, Note_on_c, 9, 44, 90
11, 44316, Note_on_c, 9, 44, 0
11, 44352, Note_on_c, 9, 46, 67
11, 44352, Note_on_c, 9, 36, 120
11, 44364, Note_on_c, 9, 36, 0
11, 44364, Note_on_c, 9, 46, 0
11, 44400, Note_on_c, 9, 44, 90
11, 44412, Note_on_c, 9, 44, 0
11, 44448, Note_on_c, 9, 46, 67
11, 44448, Note_on_c, 9, 40, 127
11, 44460, Note_on_c, 9, 40, 0
11, 44460, Note_on_c, 9, 46, 0
11, 44496, Note_on_c, 9, 44, 90
11, 44508, Note_on_c, 9, 44, 0
11, 44544, Note_on_c, 9, 46, 67
11, 44544, Note_on_c, 9, 36, 120
11, 44556, Note_on_c, 9, 36, 0
11, 44556, Note_on_c, 9, 46, 0
11, 44592, Note_on_c, 9, 44, 90
11, 44604, Note_on_c, 9, 44, 0
11, 44640, Note_on_c, 9, 46, 67
11, 44640, Note_on_c, 9, 40, 127
11, 44652, Note_on_c, 9, 40, 0
11, 44652, Note_on_c, 9, 46, 0
11, 44688, Note_on_c, 9, 44, 90
11, 44700, Note_on_c, 9, 44, 0
11, 44736, Note_on_c, 9, 46, 67
11, 44736, Note_on_c, 9, 36, 120
11, 44748, Note_on_c, 9, 36, 0
11, 44748, Note_on_c, 9, 46, 0
11, 44784, Note_on_c, 9, 44, 90
11, 44784, Note_on_c, 9, 36, 120
11, 44796, Note_on_c, 9, 36, 0
11, 44796, Note_on_c, 9, 44, 0
11, 44832, Note_on_c, 9, 46, 67
11, 44832, Note_on_c, 9, 40, 127
11, 44844, Note_on_c, 9, 40, 0
11, 44844, Note_on_c, 9, 46, 0
11, 44880, Note_on_c, 9, 44, 90
11, 44880, Note_on_c, 9, 40, 123
11, 44892, Note_on_c, 9, 40, 0
11, 44892, Note_on_c, 9, 44, 0
11, 44928, Note_on_c, 9, 46, 67
11, 44928, Note_on_c, 9, 36, 120
11, 44940, Note_on_c, 9, 36, 0
11, 44940, Note_on_c, 9, 46, 0
11, 44952, Note_on_c, 9, 42, 32
11, 44964, Note_on_c, 9, 42, 0
11, 44976, Note_on_c, 9, 44, 90
11, 44988, Note_on_c, 9, 44, 0
11, 45024, Note_on_c, 9, 46, 67
11, 45024, Note_on_c, 9, 40, 127
11, 45036, Note_on_c, 9, 40, 0
11, 45036, Note_on_c, 9, 46, 0
11, 45048, Note_on_c, 9, 42, 32
11, 45060, Note_on_c, 9, 42, 0
11, 45072, Note_on_c, 9, 44, 90
11, 45084, Note_on_c, 9, 44, 0
11, 45120, Note_on_c, 9, 46, 67
11, 45120, Note_on_c, 9, 36, 120
11, 45132, Note_on_c, 9, 36, 0
11, 45132, Note_on_c, 9, 46, 0
11, 45144, Note_on_c, 9, 42, 32
11, 45156, Note_on_c, 9, 42, 0
11, 45168, Note_on_c, 9, 44, 90
11, 45180, Note_on_c, 9, 44, 0
11, 45216, Note_on_c, 9, 46, 67
11, 45216, Note_on_c, 9, 40, 127
11, 45228, Note_on_c, 9, 40, 0
11, 45228, Note_on_c, 9, 46, 0
11, 45240, Note_on_c, 9, 42, 33
11, 45252, Note_on_c, 9, 42, 0
11, 45264, Note_on_c, 9, 44, 90
11, 45276, Note_on_c, 9, 44, 0
11, 45312, Note_on_c, 9, 46, 67
11, 45312, Note_on_c, 9, 36, 120
11, 45324, Note_on_c, 9, 36, 0
11, 45324, Note_on_c, 9, 46, 0
11, 45336, Note_on_c, 9, 42, 33
11, 45348, Note_on_c, 9, 42, 0
11, 45360, Note_on_c, 9, 44, 90
11, 45372, Note_on_c, 9, 44, 0
11, 45408, Note_on_c, 9, 46, 67
11, 45408, Note_on_c, 9, 40, 127
11, 45420, Note_on_c, 9, 40, 0
11, 45420, Note_on_c, 9, 46, 0
11, 45432, Note_on_c, 9, 42, 34
11, 45444, Note_on_c, 9, 42, 0
11, 45456, Note_on_c, 9, 44, 90
11, 45468, Note_on_c, 9, 44, 0
11, 45504, Note_on_c, 9, 46, 67
11, 45504, Note_on_c, 9, 36, 120
11, 45516, Note_on_c, 9, 36, 0
11, 45516, Note_on_c, 9, 46, 0
11, 45528, Note_on_c, 9, 42, 32
11, 45540, Note_on_c, 9, 42, 0
11, 45552, Note_on_c, 9, 44, 90
11, 45564, Note_on_c, 9, 44, 0
11, 45600, Note_on_c, 9, 46, 67
11, 45600, Note_on_c, 9, 40, 127
11, 45612, Note_on_c, 9, 40, 0
11, 45612, Note_on_c, 9, 46, 0
11, 45624, Note_on_c, 9, 42, 32
11, 45636, Note_on_c, 9, 42, 0
11, 45648, Note_on_c, 9, 44, 90
11, 45648, Note_on_c, 9, 40, 127
11, 45660, Note_on_c, 9, 40, 0
11, 45660, Note_on_c, 9, 44, 0
11, 45696, Note_on_c, 9, 49, 100
11, 45696, Note_on_c, 9, 36, 120
11, 45708, Note_on_c, 9, 36, 0
11, 45708, Note_on_c, 9, 49, 0
11, 45744, Note_on_c, 9, 44, 90
11, 45756, Note_on_c, 9, 44, 0
11, 45792, Note_on_c, 9, 57, 100
11, 45792, Note_on_c, 9, 40, 127
11, 45804, Note_on_c, 9, 40, 0
11, 45804, Note_on_c, 9, 57, 0
11, 45840, Note_on_c, 9, 44, 90
11, 45852, Note_on_c, 9, 44, 0
11, 45888, Note_on_c, 9, 46, 67
11, 45888, Note_on_c, 9, 36, 120
11, 45900, Note_on_c, 9, 36, 0
11, 45900, Note_on_c, 9, 46, 0
11, 45936, Note_on_c, 9, 44, 90
11, 45948, Note_on_c, 9, 44, 0
11, 45984, Note_on_c, 9, 46, 67
11, 45984, Note_on_c, 9, 40, 127
11, 45996, Note_on_c, 9, 40, 0
11, 45996, Note_on_c, 9, 46, 0
11, 46032, Note_on_c, 9, 44, 90
11, 46044, Note_on_c, 9, 44, 0
11, 46080, Note_on_c, 9, 36, 120
11, 46092, Note_on_c, 9, 36, 0
11, 46104, Note_on_c, 9, 40, 92
11, 46116, Note_on_c, 9, 40, 0
11, 46128, Note_on_c, 9, 46, 127
11, 46128, Note_on_c, 9, 40, 127
11, 46140, Note_on_c, 9, 40, 0
11, 46140, Note_on_c, 9, 46, 0
11, 46176, Note_on_c, 9, 46, 67
11, 46176, Note_on_c, 9, 36, 120
11, 46188, Note_on_c, 9, 36, 0
11, 46188, Note_on_c, 9, 46, 0
11, 46224, Note_on_c, 9, 44, 90
11, 46224, Note_on_c, 9, 40, 93
11, 46236, Note_on_c, 9, 40, 0
11, 46236, Note_on_c, 9, 44, 0
11, 46248, Note_on_c, 9, 40, 127
11, 46260, Note_on_c, 9, 40, 0
11, 46272, Note_on_c, 9, 46, 67
11, 46272, Note_on_c, 9, 36, 120
11, 46284, Note_on_c, 9, 36, 0
11, 46284, Note_on_c, 9, 46, 0
11, 46320, Note_on_c, 9, 46, 90
11, 46320, Note_on_c, 9, 36, 120
11, 46332, Note_on_c, 9, 36, 0
11, 46332, Note_on_c, 9, 46, 0
11, 46368, Note_on_c, 9, 40, 126
11, 46380, Note_on_c, 9, 40, 0
11, 46392, Note_on_c, 9, 40, 86
11, 46404, Note_on_c, 9, 40, 0
11, 46416, Note_on_c, 9, 46, 90
11, 46416, Note_on_c, 9, 36, 120
11, 46428, Note_on_c, 9, 36, 0
11, 46428, Note_on_c, 9, 46, 0
11, 46440, Note_on_c, 9, 40, 123
11, 46452, Note_on_c, 9, 40, 0
11, 46464, Note_on_c, 9, 49, 100
11, 46464, Note_on_c, 9, 36, 120
11, 46476, Note_on_c, 9, 36, 0
11, 46476, Note_on_c, 9, 49, 0
11, 46512, Note_on_c, 9, 46, 69
11, 46524, Note_on_c, 9, 46, 0
11, 46560, Note_on_c, 9, 46, 91
11, 46560, Note_on_c, 9, 40, 127
11, 46572, Note_on_c, 9, 40, 0
11, 46572, Note_on_c, 9, 46, 0
11, 46608, Note_on_c, 9, 46, 69
11, 46620, Note_on_c, 9, 46, 0
11, 46656, Note_on_c, 9, 46, 93
11, 46656, Note_on_c, 9, 36, 120
11, 46668, Note_on_c, 9, 36, 0
11, 46668, Note_on_c, 9, 46, 0
11, 46704, Note_on_c, 9, 46, 69
11, 46716, Note_on_c, 9, 46, 0
11, 46752, Note_on_c, 9, 46, 93
11, 46752, Note_on_c, 9, 40, 127
11, 46764, Note_on_c, 9, 40, 0
11, 46764, Note_on_c, 9, 46, 0
11, 46800, Note_on_c, 9, 46, 69
11, 46812, Note_on_c, 9, 46, 0
11, 46848, Note_on_c, 9, 46, 90
11, 46848, Note_on_c, 9, 46, 90
11, 46848, Note_on_c, 9, 36, 120
11, 46860, Note_on_c, 9, 36, 0
11, 46860, Note_on_c, 9, 46, 0
11, 46860, Note_on_c, 9, 46, 0
11, 46896, Note_on_c, 9, 46, 69
11, 46908, Note_on_c, 9, 46, 0
11, 46944, Note_on_c, 9, 46, 91
11, 46944, Note_on_c, 9, 40, 127
11, 46956, Note_on_c, 9, 40, 0
11, 46956, Note_on_c, 9, 46, 0
11, 46992, Note_on_c, 9, 46, 69
11, 47004, Note_on_c, 9, 46, 0
11, 47040, Note_on_c, 9, 46, 93
11, 47040, Note_on_c, 9, 36, 120
11, 47052, Note_on_c, 9, 36, 0
11, 47052, Note_on_c, 9, 46, 0
11, 47088, Note_on_c, 9, 46, 69
11, 47100, Note_on_c, 9, 46, 0
11, 47136, Note_on_c, 9, 46, 93
11, 47136, Note_on_c, 9, 40, 127
11, 47148, Note_on_c, 9, 40, 0
11, 47148, Note_on_c, 9, 46, 0
11, 47184, Note_on_c, 9, 49, 100
11, 47184, Note_on_c, 9, 36, 120
11, 47196, Note_on_c, 9, 36, 0
11, 47196, Note_on_c, 9, 49, 0
11, 47232, Note_on_c, 9, 49, 100
11, 47232, Note_on_c, 9, 36, 120
11, 47244, Note_on_c, 9, 36, 0
11, 47244, Note_on_c, 9, 49, 0
11, 47280, Note_on_c, 9, 46, 69
11, 47292, Note_on_c, 9, 46, 0
11, 47328, Note_on_c, 9, 46, 91
11, 47328, Note_on_c, 9, 40, 127
11, 47340, Note_on_c, 9, 40, 0
11, 47340, Note_on_c, 9, 46, 0
11, 47376, Note_on_c, 9, 46, 69
11, 47388, Note_on_c, 9, 46, 0
11, 47424, Note_on_c, 9, 46, 93
11, 47424, Note_on_c, 9, 36, 120
11, 47436, Note_on_c, 9, 36, 0
11, 47436, Note_on_c, 9, 46, 0
11, 47472, Note_on_c, 9, 46, 69
11, 47484, Note_on_c, 9, 46, 0
11, 47520, Note_on_c, 9, 46, 93
11, 47520, Note_on_c, 9, 40, 127
11, 47532, Note_on_c, 9, 40, 0
11, 47532, Note_on_c, 9, 46, 0
11, 47568, Note_on_c, 9, 46, 69
11, 47580, Note_on_c, 9, 46, 0
11, 47616, Note_on_c, 9, 46, 90
11, 47616, Note_on_c, 9, 46, 90
11, 47616, Note_on_c, 9, 36, 120
11, 47628, Note_on_c, 9, 36, 0
11, 47628, Note_on_c, 9, 46, 0
11, 47628, Note_on_c, 9, 46, 0
11, 47664, Note_on_c, 9, 46, 69
11, 47676, Note_on_c, 9, 46, 0
11, 47712, Note_on_c, 9, 46, 91
11, 47712, Note_on_c, 9, 40, 127
11, 47724, Note_on_c, 9, 40, 0
11, 47724, Note_on_c, 9, 46, 0
11, 47760, Note_on_c, 9, 46, 69
11, 47772, Note_on_c, 9, 46, 0
11, 47808, Note_on_c, 9, 46, 93
11, 47808, Note_on_c, 9, 36, 120
11, 47820, Note_on_c, 9, 36, 0
11, 47820, Note_on_c, 9, 46, 0
11, 47856, Note_on_c, 9, 46, 69
11, 47856, Note_on_c, 9, 40, 90
11, 47868, Note_on_c, 9, 40, 0
11, 47868, Note_on_c, 9, 46, 0
11, 47880, Note_on_c, 9, 40, 120
11, 47892, Note_on_c, 9, 40, 0
11, 47904, Note_on_c, 9, 46, 93
11, 47904, Note_on_c, 9, 36, 120
11, 47916, Note_on_c, 9, 36, 0
11, 47916, Note_on_c, 9, 46, 0
11, 47952, Note_on_c, 9, 46, 69
11, 47952, Note_on_c, 9, 40, 88
11, 47964, Note_on_c, 9, 40, 0
11, 47964, Note_on_c, 9, 46, 0
11, 47976, Note_on_c, 9, 40, 120
11, 47988, Note_on_c, 9, 40, 0
11, 48000, Note_on_c, 9, 57, 100
11, 48000, Note_on_c, 9, 46, 90
11, 48000, Note_on_c, 9, 36, 120
11, 48012, Note_on_c, 9, 36, 0
11, 48012, Note_on_c, 9, 46, 0
11, 48012, Note_on_c, 9, 57, 0
11, 48048, Note_on_c, 9, 46, 69
11, 48060, Note_on_c, 9, 46, 0
11, 48096, Note_on_c, 9, 46, 91
11, 48096, Note_on_c, 9, 40, 127
11, 48108, Note_on_c, 9, 40, 0
11, 48108, Note_on_c, 9, 46, 0
11, 48144, Note_on_c, 9, 46, 69
11, 48156, Note_on_c, 9, 46, 0
11, 48192, Note_on_c, 9, 46, 93
11, 48192, Note_on_c, 9, 36, 120
11, 48204, Note_on_c, 9, 36, 0
11, 48204, Note_on_c, 9, 46, 0
11, 48240, Note_on_c, 9, 46, 69
11, 48252, Note_on_c, 9, 46, 0
11, 48288, Note_on_c, 9, 46, 93
11, 48288, Note_on_c, 9, 40, 127
11, 48300, Note_on_c, 9, 40, 0
11, 48300, Note_on_c, 9, 46, 0
11, 48336, Note_on_c, 9, 46, 69
11, 48348, Note_on_c, 9, 46, 0
11, 48384, Note_on_c, 9, 46, 90
11, 48384, Note_on_c, 9, 46, 90
11, 48384, Note_on_c, 9, 36, 120
11, 48396, Note_on_c, 9, 36, 0
11, 48396, Note_on_c, 9, 46, 0
11, 48396, Note_on_c, 9, 46, 0
11, 48432, Note_on_c, 9, 46, 69
11, 48444, Note_on_c, 9, 46, 0
11, 48480, Note_on_c, 9, 46, 91
11, 48480, Note_on_c, 9, 40, 127
11, 48492, Note_on_c, 9, 40, 0
11, 48492, Note_on_c, 9, 46, 0
11, 48528, Note_on_c, 9, 46, 69
11, 48540, Note_on_c, 9, 46, 0
11, 48576, Note_on_c, 9, 46, 93
11, 48576, Note_on_c, 9, 36, 120
11, 48588, Note_on_c, 9, 36, 0
11, 48588, Note_on_c, 9, 46, 0
11, 48624, Note_on_c, 9, 46, 69
11, 48624, Note_on_c, 9, 40, 127
11, 48636, Note_on_c, 9, 40, 0
11, 48636, Note_on_c, 9, 46, 0
11, 48672, Note_on_c, 9, 46, 93
11, 48672, Note_on_c, 9, 40, 127
11, 48684, Note_on_c, 9, 40, 0
11, 48684, Note_on_c, 9, 46, 0
11, 48720, Note_on_c, 9, 46, 69
11, 48720, Note_on_c, 9, 36, 120
11, 48732, Note_on_c, 9, 36, 0
11, 48732, Note_on_c, 9, 46, 0
11, 48768, Note_on_c, 9, 46, 90
11, 48768, Note_on_c, 9, 46, 90
11, 48768, Note_on_c, 9, 36, 120
11, 48780, Note_on_c, 9, 36, 0
11, 48780, Note_on_c, 9, 46, 0
11, 48780, Note_on_c, 9, 46, 0
11, 48816, Note_on_c, 9, 46, 69
11, 48816, Note_on_c, 9, 40, 127
11, 48828, Note_on_c, 9, 40, 0
11, 48828, Note_on_c, 9, 46, 0
11, 48864, Note_on_c, 9, 49, 100
11, 48864, Note_on_c, 9, 36, 120
11, 48876, Note_on_c, 9, 36, 0
11, 48876, Note_on_c, 9, 49, 0
11, 48912, Note_on_c, 9, 46, 69
11, 48912, Note_on_c, 9, 36, 120
11, 48924, Note_on_c, 9, 36, 0
11, 48924, Note_on_c, 9, 46, 0
11, 48960, Note_on_c, 9, 46, 93
11, 48960, Note_on_c, 9, 40, 120
11, 48972, Note_on_c, 9, 40, 0
11, 48972, Note_on_c, 9, 46, 0
11, 49008, Note_on_c, 9, 46, 69
11, 49008, Note_on_c, 9, 36, 120
11, 49020, Note_on_c, 9, 36, 0
11, 49020, Note_on_c, 9, 46, 0
11, 49056, Note_on_c, 9, 46, 93
11, 49056, Note_on_c, 9, 40, 127
11, 49068, Note_on_c, 9, 40, 0
11, 49068, Note_on_c, 9, 46, 0
11, 49104, Note_on_c, 9, 46, 69
11, 49104, Note_on_c, 9, 36, 120
11, 49116, Note_on_c, 9, 36, 0
11, 49116, Note_on_c, 9, 46, 0
11, 49152, Note_on_c, 9, 40, 120
11, 49163, Note_on_c, 9, 40, 120
11, 49164, Note_on_c, 9, 40, 0
11, 49175, Note_on_c, 9, 40, 0
11, 49200, Note_on_c, 9, 46, 69
11, 49200, Note_on_c, 9, 36, 120
11, 49212, Note_on_c, 9, 36, 0
11, 49212, Note_on_c, 9, 46, 0
11, 49248, Note_on_c, 9, 46, 91
11, 49248, Note_on_c, 9, 36, 127
11, 49260, Note_on_c, 9, 36, 0
11, 49260, Note_on_c, 9, 46, 0
11, 49296, Note_on_c, 9, 57, 100
11, 49297, Note_on_c, 9, 40, 127
11, 49308, Note_on_c, 9, 57, 0
11, 49309, Note_on_c, 9, 40, 0
11, 49824, Note_on_c, 9, 36, 120
11, 49836, Note_on_c, 9, 36, 0
11, 49848, Note_on_c, 9, 36, 120
11, 49860, Note_on_c, 9, 36, 0
11, 49872, Note_on_c, 9, 46, 100
11, 49872, Note_on_c, 9, 40, 127
11, 49884, Note_on_c, 9, 40, 0
11, 49884, Note_on_c, 9, 46, 0
11, 49944, Note_on_c, 9, 42, 21
11, 49956, Note_on_c, 9, 42, 0
11, 49956, End_track
12, 0, Start_track
12, 0, MIDI_port, 0
12, 0, Title_t, "*********************************"
12, 0, End_track
13, 0, Start_track
13, 0, MIDI_port, 0
13, 0, Title_t, "HOT ROD HEART"
13, 0, End_track
14, 0, Start_track
14, 0, MIDI_port, 0
14, 0, Title_t, "By John Fogerty"
14, 0, End_track
15, 0, Start_track
15, 0, MIDI_port, 0
15, 0, Title_t, "Sequenced By Karl Redlich"
15, 0, End_track
16, 0, Start_track
16, 0, MIDI_port, 0
16, 0, Title_t, "1999 <redlich@nw.com.au>"
16, 0, End_track
17, 0, Start_track
17, 0, MIDI_port, 0
17, 0, Title_t, "*********************************"
17, 0, End_track
0, 0, End_of_file
