0, 0, Header, 1, 8, 384
1, 0, Start_track
1, 0, Time_signature, 3, 2, 96, 8
1, 0, Sequencer_specific, 3, 0, 0, 65
1, 0, Sequencer_specific, 5, 0, 0, 119, 14, 0
1, 0, Tempo, 521739
1, 12672, Tempo, 545454
1, 79488, Tempo, 545454
1, 84096, Tempo, 521739
1, 114048, Tempo, 545454
1, 130176, Tempo, 545454
1, 134784, Tempo, 521739
1, 164736, Tempo, 521739
1, 187776, Tempo, 545454
1, 190080, Tempo, 550458
1, 192384, Tempo, 566037
1, 194688, Tempo, 588235
1, 195840, Tempo, 612244
1, 196992, Tempo, 625000
1, 198144, Tempo, 674157
1, 199120, Tempo, 1250000
1, 199296, Tempo, 674157
1, 199312, Tempo, 645161
1, 199312, End_track
2, 0, Start_track
2, 0, Title_t, "Bass"
2, 0, Control_c, 0, 32, 0
2, 0, Control_c, 1, 0, 0
2, 0, Program_c, 1, 35
2, 0, Control_c, 1, 7, 104
2, 0, Control_c, 1, 10, 64
2, 0, Control_c, 1, 91, 47
2, 0, Control_c, 1, 93, 63
2, 0, Key_signature, 0, "major"
2, 12672, Note_on_c, 1, 33, 93
2, 13824, Note_off_c, 1, 33, 0
2, 13824, Note_on_c, 1, 36, 93
2, 14976, Note_off_c, 1, 36, 0
2, 14976, Note_on_c, 1, 38, 93
2, 15744, Note_off_c, 1, 38, 0
2, 15744, Note_on_c, 1, 38, 93
2, 15936, Note_off_c, 1, 38, 0
2, 15936, Note_on_c, 1, 36, 93
2, 16128, Note_off_c, 1, 36, 0
2, 16128, Note_on_c, 1, 41, 93
2, 16896, Note_off_c, 1, 41, 0
2, 16896, Note_on_c, 1, 38, 93
2, 17088, Note_off_c, 1, 38, 0
2, 17088, Note_on_c, 1, 36, 93
2, 17280, Note_off_c, 1, 36, 0
2, 17280, Note_on_c, 1, 33, 93
2, 18144, Note_off_c, 1, 33, 0
2, 18240, Note_on_c, 1, 33, 93
2, 18432, Note_off_c, 1, 33, 0
2, 18432, Note_on_c, 1, 36, 93
2, 19296, Note_off_c, 1, 36, 0
2, 19392, Note_on_c, 1, 36, 93
2, 19584, Note_off_c, 1, 36, 0
2, 19584, Note_on_c, 1, 28, 93
2, 20448, Note_off_c, 1, 28, 0
2, 20544, Note_on_c, 1, 28, 93
2, 20640, Note_off_c, 1, 28, 0
2, 20736, Note_on_c, 1, 28, 93
2, 21600, Note_off_c, 1, 28, 0
2, 21696, Note_on_c, 1, 28, 93
2, 21888, Note_off_c, 1, 28, 0
2, 21888, Note_on_c, 1, 33, 93
2, 22656, Note_off_c, 1, 33, 0
2, 22656, Note_on_c, 1, 33, 93
2, 22848, Note_off_c, 1, 33, 0
2, 22848, Note_on_c, 1, 35, 93
2, 23040, Note_off_c, 1, 35, 0
2, 23040, Note_on_c, 1, 36, 93
2, 23904, Note_off_c, 1, 36, 0
2, 24000, Note_on_c, 1, 36, 93
2, 24192, Note_off_c, 1, 36, 0
2, 24192, Note_on_c, 1, 38, 93
2, 25056, Note_off_c, 1, 38, 0
2, 25152, Note_on_c, 1, 38, 93
2, 25344, Note_off_c, 1, 38, 0
2, 25344, Note_on_c, 1, 41, 93
2, 26208, Note_off_c, 1, 41, 0
2, 26304, Note_on_c, 1, 41, 93
2, 26496, Note_off_c, 1, 41, 0
2, 26496, Note_on_c, 1, 33, 93
2, 27360, Note_off_c, 1, 33, 0
2, 27456, Note_on_c, 1, 33, 93
2, 27648, Note_off_c, 1, 33, 0
2, 27648, Note_on_c, 1, 28, 93
2, 28512, Note_off_c, 1, 28, 0
2, 28608, Note_on_c, 1, 28, 93
2, 28800, Note_off_c, 1, 28, 0
2, 28800, Note_on_c, 1, 33, 93
2, 29472, Note_off_c, 1, 33, 0
2, 29568, Note_on_c, 1, 33, 93
2, 29664, Note_off_c, 1, 33, 0
2, 29760, Note_on_c, 1, 33, 93
2, 29952, Note_off_c, 1, 33, 0
2, 29952, Note_on_c, 1, 36, 93
2, 30624, Note_off_c, 1, 36, 0
2, 30720, Note_on_c, 1, 36, 93
2, 30816, Note_off_c, 1, 36, 0
2, 30912, Note_on_c, 1, 36, 93
2, 31104, Note_off_c, 1, 36, 0
2, 31104, Note_on_c, 1, 38, 93
2, 31872, Note_off_c, 1, 38, 0
2, 32064, Note_on_c, 1, 38, 93
2, 32256, Note_off_c, 1, 38, 0
2, 32256, Note_on_c, 1, 41, 93
2, 32928, Note_off_c, 1, 41, 0
2, 33024, Note_on_c, 1, 41, 93
2, 33120, Note_off_c, 1, 41, 0
2, 33216, Note_on_c, 1, 41, 93
2, 33408, Note_off_c, 1, 41, 0
2, 33408, Note_on_c, 1, 33, 93
2, 34080, Note_off_c, 1, 33, 0
2, 34176, Note_on_c, 1, 33, 93
2, 34272, Note_off_c, 1, 33, 0
2, 34368, Note_on_c, 1, 33, 93
2, 34560, Note_off_c, 1, 33, 0
2, 34560, Note_on_c, 1, 28, 93
2, 35328, Note_off_c, 1, 28, 0
2, 35328, Note_on_c, 1, 28, 93
2, 35424, Note_off_c, 1, 28, 0
2, 35520, Note_on_c, 1, 28, 93
2, 35712, Note_off_c, 1, 28, 0
2, 35712, Note_on_c, 1, 33, 93
2, 36288, Note_off_c, 1, 33, 0
2, 36288, Note_on_c, 1, 33, 93
2, 36384, Note_off_c, 1, 33, 0
2, 36480, Note_on_c, 1, 33, 93
2, 36576, Note_off_c, 1, 33, 0
2, 36672, Note_on_c, 1, 33, 93
2, 36864, Note_off_c, 1, 33, 0
2, 36864, Note_on_c, 1, 28, 93
2, 37056, Note_off_c, 1, 28, 0
2, 37056, Note_on_c, 1, 28, 93
2, 37152, Note_off_c, 1, 28, 0
2, 37248, Note_on_c, 1, 28, 93
2, 37344, Note_off_c, 1, 28, 0
2, 37440, Note_on_c, 1, 28, 93
2, 37632, Note_off_c, 1, 28, 0
2, 37632, Note_on_c, 1, 28, 93
2, 37728, Note_off_c, 1, 28, 0
2, 37824, Note_on_c, 1, 28, 93
2, 38016, Note_off_c, 1, 28, 0
2, 38016, Note_on_c, 1, 33, 93
2, 39168, Note_off_c, 1, 33, 0
2, 39168, Note_on_c, 1, 36, 93
2, 40320, Note_off_c, 1, 36, 0
2, 40320, Note_on_c, 1, 38, 93
2, 41088, Note_off_c, 1, 38, 0
2, 41088, Note_on_c, 1, 38, 93
2, 41280, Note_off_c, 1, 38, 0
2, 41280, Note_on_c, 1, 36, 93
2, 41472, Note_off_c, 1, 36, 0
2, 41472, Note_on_c, 1, 41, 93
2, 42240, Note_off_c, 1, 41, 0
2, 42240, Note_on_c, 1, 38, 93
2, 42432, Note_off_c, 1, 38, 0
2, 42432, Note_on_c, 1, 36, 93
2, 42624, Note_off_c, 1, 36, 0
2, 42624, Note_on_c, 1, 33, 93
2, 43488, Note_off_c, 1, 33, 0
2, 43584, Note_on_c, 1, 33, 93
2, 43776, Note_off_c, 1, 33, 0
2, 43776, Note_on_c, 1, 36, 93
2, 44640, Note_off_c, 1, 36, 0
2, 44736, Note_on_c, 1, 36, 93
2, 44928, Note_off_c, 1, 36, 0
2, 44928, Note_on_c, 1, 28, 93
2, 45792, Note_off_c, 1, 28, 0
2, 45888, Note_on_c, 1, 28, 93
2, 45984, Note_off_c, 1, 28, 0
2, 46080, Note_on_c, 1, 28, 93
2, 46944, Note_off_c, 1, 28, 0
2, 47040, Note_on_c, 1, 28, 93
2, 47232, Note_off_c, 1, 28, 0
2, 47232, Note_on_c, 1, 33, 93
2, 48000, Note_off_c, 1, 33, 0
2, 48000, Note_on_c, 1, 33, 93
2, 48192, Note_off_c, 1, 33, 0
2, 48192, Note_on_c, 1, 35, 93
2, 48384, Note_off_c, 1, 35, 0
2, 48384, Note_on_c, 1, 36, 93
2, 49248, Note_off_c, 1, 36, 0
2, 49344, Note_on_c, 1, 36, 93
2, 49536, Note_off_c, 1, 36, 0
2, 49536, Note_on_c, 1, 38, 93
2, 50400, Note_off_c, 1, 38, 0
2, 50496, Note_on_c, 1, 38, 93
2, 50688, Note_off_c, 1, 38, 0
2, 50688, Note_on_c, 1, 41, 93
2, 51552, Note_off_c, 1, 41, 0
2, 51648, Note_on_c, 1, 41, 93
2, 51840, Note_off_c, 1, 41, 0
2, 51840, Note_on_c, 1, 33, 93
2, 52704, Note_off_c, 1, 33, 0
2, 52800, Note_on_c, 1, 33, 93
2, 52992, Note_off_c, 1, 33, 0
2, 52992, Note_on_c, 1, 28, 93
2, 53856, Note_off_c, 1, 28, 0
2, 53952, Note_on_c, 1, 28, 93
2, 54144, Note_off_c, 1, 28, 0
2, 54144, Note_on_c, 1, 33, 93
2, 54816, Note_off_c, 1, 33, 0
2, 54912, Note_on_c, 1, 33, 93
2, 55008, Note_off_c, 1, 33, 0
2, 55104, Note_on_c, 1, 33, 93
2, 55296, Note_off_c, 1, 33, 0
2, 55296, Note_on_c, 1, 36, 93
2, 55968, Note_off_c, 1, 36, 0
2, 56064, Note_on_c, 1, 36, 93
2, 56160, Note_off_c, 1, 36, 0
2, 56256, Note_on_c, 1, 36, 93
2, 56448, Note_off_c, 1, 36, 0
2, 56448, Note_on_c, 1, 38, 93
2, 57216, Note_off_c, 1, 38, 0
2, 57408, Note_on_c, 1, 38, 93
2, 57600, Note_off_c, 1, 38, 0
2, 57600, Note_on_c, 1, 41, 93
2, 58272, Note_off_c, 1, 41, 0
2, 58368, Note_on_c, 1, 41, 93
2, 58464, Note_off_c, 1, 41, 0
2, 58560, Note_on_c, 1, 41, 93
2, 58752, Note_off_c, 1, 41, 0
2, 58752, Note_on_c, 1, 33, 93
2, 59424, Note_off_c, 1, 33, 0
2, 59520, Note_on_c, 1, 33, 93
2, 59616, Note_off_c, 1, 33, 0
2, 59712, Note_on_c, 1, 33, 93
2, 59904, Note_off_c, 1, 33, 0
2, 59904, Note_on_c, 1, 28, 93
2, 60672, Note_off_c, 1, 28, 0
2, 60672, Note_on_c, 1, 28, 93
2, 60768, Note_off_c, 1, 28, 0
2, 60864, Note_on_c, 1, 28, 93
2, 61056, Note_off_c, 1, 28, 0
2, 61056, Note_on_c, 1, 33, 93
2, 61632, Note_off_c, 1, 33, 0
2, 61632, Note_on_c, 1, 33, 93
2, 61728, Note_off_c, 1, 33, 0
2, 61824, Note_on_c, 1, 33, 93
2, 61920, Note_off_c, 1, 33, 0
2, 62016, Note_on_c, 1, 33, 93
2, 62208, Note_off_c, 1, 33, 0
2, 62208, Note_on_c, 1, 28, 93
2, 62400, Note_off_c, 1, 28, 0
2, 62400, Note_on_c, 1, 28, 93
2, 62496, Note_off_c, 1, 28, 0
2, 62592, Note_on_c, 1, 28, 93
2, 62688, Note_off_c, 1, 28, 0
2, 62784, Note_on_c, 1, 28, 93
2, 62976, Note_off_c, 1, 28, 0
2, 62976, Note_on_c, 1, 28, 93
2, 63072, Note_off_c, 1, 28, 0
2, 63168, Note_on_c, 1, 28, 93
2, 63360, Note_off_c, 1, 28, 0
2, 63360, Note_on_c, 1, 33, 93
2, 64512, Note_off_c, 1, 33, 0
2, 64512, Note_on_c, 1, 36, 93
2, 65664, Note_off_c, 1, 36, 0
2, 65664, Note_on_c, 1, 38, 93
2, 66432, Note_off_c, 1, 38, 0
2, 66432, Note_on_c, 1, 38, 93
2, 66624, Note_off_c, 1, 38, 0
2, 66624, Note_on_c, 1, 36, 93
2, 66816, Note_off_c, 1, 36, 0
2, 66816, Note_on_c, 1, 41, 93
2, 67584, Note_off_c, 1, 41, 0
2, 67584, Note_on_c, 1, 38, 93
2, 67776, Note_off_c, 1, 38, 0
2, 67776, Note_on_c, 1, 36, 93
2, 67968, Note_off_c, 1, 36, 0
2, 67968, Note_on_c, 1, 33, 93
2, 68832, Note_off_c, 1, 33, 0
2, 68928, Note_on_c, 1, 33, 93
2, 69120, Note_off_c, 1, 33, 0
2, 69120, Note_on_c, 1, 36, 93
2, 69984, Note_off_c, 1, 36, 0
2, 70080, Note_on_c, 1, 36, 93
2, 70272, Note_off_c, 1, 36, 0
2, 70272, Note_on_c, 1, 28, 93
2, 71136, Note_off_c, 1, 28, 0
2, 71232, Note_on_c, 1, 28, 93
2, 71328, Note_off_c, 1, 28, 0
2, 71424, Note_on_c, 1, 28, 93
2, 72288, Note_off_c, 1, 28, 0
2, 72384, Note_on_c, 1, 28, 93
2, 72576, Note_off_c, 1, 28, 0
2, 72576, Note_on_c, 1, 33, 93
2, 73344, Note_off_c, 1, 33, 0
2, 73344, Note_on_c, 1, 33, 93
2, 73536, Note_off_c, 1, 33, 0
2, 73536, Note_on_c, 1, 35, 93
2, 73728, Note_off_c, 1, 35, 0
2, 73728, Note_on_c, 1, 36, 93
2, 74592, Note_off_c, 1, 36, 0
2, 74688, Note_on_c, 1, 36, 93
2, 74880, Note_off_c, 1, 36, 0
2, 74880, Note_on_c, 1, 38, 93
2, 75744, Note_off_c, 1, 38, 0
2, 75840, Note_on_c, 1, 38, 93
2, 76032, Note_off_c, 1, 38, 0
2, 76032, Note_on_c, 1, 41, 93
2, 76896, Note_off_c, 1, 41, 0
2, 76992, Note_on_c, 1, 41, 93
2, 77184, Note_off_c, 1, 41, 0
2, 77184, Note_on_c, 1, 33, 93
2, 78048, Note_off_c, 1, 33, 0
2, 78144, Note_on_c, 1, 33, 93
2, 78336, Note_off_c, 1, 33, 0
2, 78336, Note_on_c, 1, 28, 93
2, 79200, Note_off_c, 1, 28, 0
2, 79296, Note_on_c, 1, 28, 93
2, 79488, Note_off_c, 1, 28, 0
2, 79488, Note_on_c, 1, 33, 93
2, 80160, Note_off_c, 1, 33, 0
2, 80256, Note_on_c, 1, 33, 93
2, 80352, Note_off_c, 1, 33, 0
2, 80448, Note_on_c, 1, 33, 93
2, 80640, Note_off_c, 1, 33, 0
2, 80640, Note_on_c, 1, 36, 93
2, 81312, Note_off_c, 1, 36, 0
2, 81408, Note_on_c, 1, 36, 93
2, 81504, Note_off_c, 1, 36, 0
2, 81600, Note_on_c, 1, 36, 93
2, 81792, Note_off_c, 1, 36, 0
2, 81792, Note_on_c, 1, 38, 93
2, 82560, Note_off_c, 1, 38, 0
2, 82752, Note_on_c, 1, 38, 93
2, 82944, Note_off_c, 1, 38, 0
2, 82944, Note_on_c, 1, 41, 93
2, 83616, Note_off_c, 1, 41, 0
2, 83712, Note_on_c, 1, 41, 93
2, 83808, Note_off_c, 1, 41, 0
2, 83904, Note_on_c, 1, 41, 93
2, 84096, Note_off_c, 1, 41, 0
2, 84096, Note_on_c, 1, 33, 93
2, 84768, Note_off_c, 1, 33, 0
2, 84864, Note_on_c, 1, 33, 93
2, 84960, Note_off_c, 1, 33, 0
2, 85056, Note_on_c, 1, 33, 93
2, 85248, Note_off_c, 1, 33, 0
2, 85248, Note_on_c, 1, 28, 93
2, 86016, Note_off_c, 1, 28, 0
2, 86016, Note_on_c, 1, 28, 93
2, 86112, Note_off_c, 1, 28, 0
2, 86208, Note_on_c, 1, 28, 93
2, 86400, Note_off_c, 1, 28, 0
2, 86400, Note_on_c, 1, 33, 93
2, 86976, Note_off_c, 1, 33, 0
2, 86976, Note_on_c, 1, 33, 93
2, 87072, Note_off_c, 1, 33, 0
2, 87168, Note_on_c, 1, 33, 93
2, 87264, Note_off_c, 1, 33, 0
2, 87360, Note_on_c, 1, 33, 93
2, 87552, Note_off_c, 1, 33, 0
2, 87552, Note_on_c, 1, 28, 93
2, 87744, Note_off_c, 1, 28, 0
2, 87744, Note_on_c, 1, 28, 93
2, 87840, Note_off_c, 1, 28, 0
2, 87936, Note_on_c, 1, 28, 93
2, 88032, Note_off_c, 1, 28, 0
2, 88128, Note_on_c, 1, 28, 93
2, 88320, Note_off_c, 1, 28, 0
2, 88320, Note_on_c, 1, 28, 93
2, 88416, Note_off_c, 1, 28, 0
2, 88512, Note_on_c, 1, 28, 93
2, 88704, Note_off_c, 1, 28, 0
2, 88704, Note_on_c, 1, 33, 93
2, 88896, Note_off_c, 1, 33, 0
2, 88896, Note_on_c, 1, 33, 93
2, 89088, Note_off_c, 1, 33, 0
2, 89088, Note_on_c, 1, 33, 93
2, 89280, Note_off_c, 1, 33, 0
2, 89280, Note_on_c, 1, 33, 93
2, 89472, Note_off_c, 1, 33, 0
2, 89472, Note_on_c, 1, 33, 93
2, 89664, Note_off_c, 1, 33, 0
2, 89664, Note_on_c, 1, 33, 93
2, 89856, Note_off_c, 1, 33, 0
2, 89856, Note_on_c, 1, 36, 93
2, 90048, Note_off_c, 1, 36, 0
2, 90048, Note_on_c, 1, 36, 93
2, 90240, Note_off_c, 1, 36, 0
2, 90240, Note_on_c, 1, 36, 93
2, 90432, Note_off_c, 1, 36, 0
2, 90432, Note_on_c, 1, 36, 93
2, 90624, Note_off_c, 1, 36, 0
2, 90624, Note_on_c, 1, 36, 93
2, 90816, Note_off_c, 1, 36, 0
2, 90816, Note_on_c, 1, 36, 93
2, 91008, Note_off_c, 1, 36, 0
2, 91008, Note_on_c, 1, 38, 93
2, 91200, Note_off_c, 1, 38, 0
2, 91200, Note_on_c, 1, 38, 93
2, 91392, Note_off_c, 1, 38, 0
2, 91392, Note_on_c, 1, 38, 93
2, 91584, Note_off_c, 1, 38, 0
2, 91584, Note_on_c, 1, 38, 93
2, 91776, Note_off_c, 1, 38, 0
2, 91776, Note_on_c, 1, 38, 93
2, 91968, Note_off_c, 1, 38, 0
2, 91968, Note_on_c, 1, 38, 93
2, 92160, Note_off_c, 1, 38, 0
2, 92160, Note_on_c, 1, 41, 93
2, 92352, Note_off_c, 1, 41, 0
2, 92352, Note_on_c, 1, 41, 93
2, 92544, Note_off_c, 1, 41, 0
2, 92544, Note_on_c, 1, 41, 93
2, 92736, Note_off_c, 1, 41, 0
2, 92736, Note_on_c, 1, 41, 93
2, 92928, Note_off_c, 1, 41, 0
2, 92928, Note_on_c, 1, 41, 93
2, 93120, Note_off_c, 1, 41, 0
2, 93120, Note_on_c, 1, 41, 93
2, 93312, Note_off_c, 1, 41, 0
2, 93312, Note_on_c, 1, 33, 93
2, 93696, Note_off_c, 1, 33, 0
2, 93696, Note_on_c, 1, 33, 93
2, 93888, Note_off_c, 1, 33, 0
2, 93888, Note_on_c, 1, 33, 93
2, 94080, Note_off_c, 1, 33, 0
2, 94080, Note_on_c, 1, 33, 93
2, 94272, Note_off_c, 1, 33, 0
2, 94272, Note_on_c, 1, 33, 93
2, 94464, Note_off_c, 1, 33, 0
2, 94464, Note_on_c, 1, 36, 93
2, 94656, Note_off_c, 1, 36, 0
2, 94656, Note_on_c, 1, 36, 93
2, 94848, Note_off_c, 1, 36, 0
2, 94848, Note_on_c, 1, 36, 93
2, 95040, Note_off_c, 1, 36, 0
2, 95040, Note_on_c, 1, 36, 93
2, 95232, Note_off_c, 1, 36, 0
2, 95232, Note_on_c, 1, 36, 93
2, 95424, Note_off_c, 1, 36, 0
2, 95424, Note_on_c, 1, 36, 93
2, 95616, Note_off_c, 1, 36, 0
2, 95616, Note_on_c, 1, 40, 93
2, 95808, Note_off_c, 1, 40, 0
2, 95808, Note_on_c, 1, 40, 93
2, 96000, Note_off_c, 1, 40, 0
2, 96000, Note_on_c, 1, 40, 93
2, 96192, Note_off_c, 1, 40, 0
2, 96192, Note_on_c, 1, 40, 93
2, 96384, Note_off_c, 1, 40, 0
2, 96384, Note_on_c, 1, 40, 93
2, 96576, Note_off_c, 1, 40, 0
2, 96576, Note_on_c, 1, 40, 93
2, 96768, Note_off_c, 1, 40, 0
2, 96768, Note_on_c, 1, 40, 93
2, 96960, Note_off_c, 1, 40, 0
2, 96960, Note_on_c, 1, 40, 93
2, 97152, Note_off_c, 1, 40, 0
2, 97152, Note_on_c, 1, 40, 93
2, 97344, Note_off_c, 1, 40, 0
2, 97344, Note_on_c, 1, 40, 93
2, 97536, Note_off_c, 1, 40, 0
2, 97536, Note_on_c, 1, 40, 93
2, 97728, Note_off_c, 1, 40, 0
2, 97728, Note_on_c, 1, 40, 93
2, 97920, Note_off_c, 1, 40, 0
2, 97920, Note_on_c, 1, 33, 93
2, 98112, Note_off_c, 1, 33, 0
2, 98112, Note_on_c, 1, 33, 93
2, 98304, Note_off_c, 1, 33, 0
2, 98304, Note_on_c, 1, 33, 93
2, 98496, Note_off_c, 1, 33, 0
2, 98496, Note_on_c, 1, 33, 93
2, 98688, Note_off_c, 1, 33, 0
2, 98688, Note_on_c, 1, 33, 93
2, 98880, Note_off_c, 1, 33, 0
2, 98880, Note_on_c, 1, 33, 93
2, 99072, Note_off_c, 1, 33, 0
2, 99072, Note_on_c, 1, 36, 93
2, 99264, Note_off_c, 1, 36, 0
2, 99264, Note_on_c, 1, 36, 93
2, 99456, Note_off_c, 1, 36, 0
2, 99456, Note_on_c, 1, 36, 93
2, 99648, Note_off_c, 1, 36, 0
2, 99648, Note_on_c, 1, 36, 93
2, 99840, Note_off_c, 1, 36, 0
2, 99840, Note_on_c, 1, 36, 93
2, 100032, Note_off_c, 1, 36, 0
2, 100032, Note_on_c, 1, 36, 93
2, 100224, Note_off_c, 1, 36, 0
2, 100224, Note_on_c, 1, 38, 93
2, 100416, Note_off_c, 1, 38, 0
2, 100416, Note_on_c, 1, 38, 93
2, 100608, Note_off_c, 1, 38, 0
2, 100608, Note_on_c, 1, 38, 93
2, 100800, Note_off_c, 1, 38, 0
2, 100800, Note_on_c, 1, 38, 93
2, 100992, Note_off_c, 1, 38, 0
2, 100992, Note_on_c, 1, 38, 93
2, 101184, Note_off_c, 1, 38, 0
2, 101184, Note_on_c, 1, 38, 93
2, 101376, Note_off_c, 1, 38, 0
2, 101376, Note_on_c, 1, 41, 93
2, 101568, Note_off_c, 1, 41, 0
2, 101568, Note_on_c, 1, 41, 93
2, 101760, Note_off_c, 1, 41, 0
2, 101760, Note_on_c, 1, 41, 93
2, 101952, Note_off_c, 1, 41, 0
2, 101952, Note_on_c, 1, 41, 93
2, 102144, Note_off_c, 1, 41, 0
2, 102144, Note_on_c, 1, 41, 93
2, 102336, Note_off_c, 1, 41, 0
2, 102336, Note_on_c, 1, 41, 93
2, 102528, Note_off_c, 1, 41, 0
2, 102528, Note_on_c, 1, 45, 93
2, 102720, Note_off_c, 1, 45, 0
2, 102720, Note_on_c, 1, 45, 93
2, 102912, Note_off_c, 1, 45, 0
2, 102912, Note_on_c, 1, 45, 93
2, 103104, Note_off_c, 1, 45, 0
2, 103104, Note_on_c, 1, 45, 93
2, 103296, Note_off_c, 1, 45, 0
2, 103296, Note_on_c, 1, 45, 93
2, 103488, Note_off_c, 1, 45, 0
2, 103488, Note_on_c, 1, 45, 93
2, 103680, Note_off_c, 1, 45, 0
2, 103680, Note_on_c, 1, 40, 93
2, 103872, Note_off_c, 1, 40, 0
2, 103872, Note_on_c, 1, 40, 93
2, 104064, Note_off_c, 1, 40, 0
2, 104064, Note_on_c, 1, 40, 93
2, 104256, Note_off_c, 1, 40, 0
2, 104256, Note_on_c, 1, 40, 93
2, 104448, Note_off_c, 1, 40, 0
2, 104448, Note_on_c, 1, 40, 93
2, 104640, Note_off_c, 1, 40, 0
2, 104640, Note_on_c, 1, 40, 93
2, 104816, Note_on_c, 1, 45, 93
2, 104832, Note_off_c, 1, 40, 0
2, 105008, Note_off_c, 1, 45, 0
2, 105008, Note_on_c, 1, 45, 93
2, 105200, Note_off_c, 1, 45, 0
2, 105200, Note_on_c, 1, 45, 93
2, 105392, Note_off_c, 1, 45, 0
2, 105392, Note_on_c, 1, 45, 93
2, 105584, Note_off_c, 1, 45, 0
2, 105584, Note_on_c, 1, 45, 93
2, 105776, Note_off_c, 1, 45, 0
2, 105776, Note_on_c, 1, 45, 93
2, 105968, Note_off_c, 1, 45, 0
2, 105968, Note_on_c, 1, 36, 93
2, 106160, Note_off_c, 1, 36, 0
2, 106160, Note_on_c, 1, 36, 93
2, 106352, Note_off_c, 1, 36, 0
2, 106352, Note_on_c, 1, 36, 93
2, 106544, Note_off_c, 1, 36, 0
2, 106544, Note_on_c, 1, 36, 93
2, 106736, Note_off_c, 1, 36, 0
2, 106736, Note_on_c, 1, 36, 93
2, 106928, Note_off_c, 1, 36, 0
2, 106928, Note_on_c, 1, 36, 93
2, 107120, Note_off_c, 1, 36, 0
2, 107120, Note_on_c, 1, 38, 93
2, 107312, Note_off_c, 1, 38, 0
2, 107312, Note_on_c, 1, 38, 93
2, 107504, Note_off_c, 1, 38, 0
2, 107504, Note_on_c, 1, 38, 93
2, 107696, Note_off_c, 1, 38, 0
2, 107696, Note_on_c, 1, 38, 93
2, 107888, Note_off_c, 1, 38, 0
2, 107888, Note_on_c, 1, 38, 93
2, 108080, Note_off_c, 1, 38, 0
2, 108080, Note_on_c, 1, 38, 93
2, 108272, Note_off_c, 1, 38, 0
2, 108272, Note_on_c, 1, 41, 93
2, 108464, Note_off_c, 1, 41, 0
2, 108464, Note_on_c, 1, 41, 93
2, 108656, Note_off_c, 1, 41, 0
2, 108656, Note_on_c, 1, 41, 93
2, 108848, Note_off_c, 1, 41, 0
2, 108848, Note_on_c, 1, 41, 93
2, 109040, Note_off_c, 1, 41, 0
2, 109040, Note_on_c, 1, 41, 93
2, 109232, Note_off_c, 1, 41, 0
2, 109232, Note_on_c, 1, 41, 93
2, 109424, Note_off_c, 1, 41, 0
2, 109424, Note_on_c, 1, 45, 93
2, 109616, Note_off_c, 1, 45, 0
2, 109616, Note_on_c, 1, 45, 93
2, 109808, Note_off_c, 1, 45, 0
2, 109808, Note_on_c, 1, 45, 93
2, 110000, Note_off_c, 1, 45, 0
2, 110000, Note_on_c, 1, 45, 93
2, 110192, Note_off_c, 1, 45, 0
2, 110192, Note_on_c, 1, 45, 93
2, 110384, Note_off_c, 1, 45, 0
2, 110384, Note_on_c, 1, 45, 93
2, 110576, Note_off_c, 1, 45, 0
2, 110576, Note_on_c, 1, 40, 93
2, 110768, Note_off_c, 1, 40, 0
2, 110768, Note_on_c, 1, 40, 93
2, 110960, Note_off_c, 1, 40, 0
2, 110960, Note_on_c, 1, 40, 93
2, 111152, Note_off_c, 1, 40, 0
2, 111152, Note_on_c, 1, 40, 93
2, 111344, Note_off_c, 1, 40, 0
2, 111344, Note_on_c, 1, 40, 93
2, 111536, Note_off_c, 1, 40, 0
2, 111536, Note_on_c, 1, 40, 93
2, 111728, Note_off_c, 1, 40, 0
2, 111728, Note_on_c, 1, 45, 93
2, 111920, Note_off_c, 1, 45, 0
2, 111920, Note_on_c, 1, 45, 93
2, 112112, Note_off_c, 1, 45, 0
2, 112112, Note_on_c, 1, 45, 93
2, 112304, Note_off_c, 1, 45, 0
2, 112304, Note_on_c, 1, 45, 93
2, 112496, Note_off_c, 1, 45, 0
2, 112496, Note_on_c, 1, 45, 93
2, 112688, Note_off_c, 1, 45, 0
2, 112688, Note_on_c, 1, 45, 93
2, 112880, Note_off_c, 1, 45, 0
2, 112880, Note_on_c, 1, 40, 93
2, 113456, Note_off_c, 1, 40, 0
2, 113456, Note_on_c, 1, 40, 93
2, 113840, Note_off_c, 1, 40, 0
2, 113840, Note_on_c, 1, 40, 93
2, 114048, Note_off_c, 1, 40, 0
2, 114048, Note_on_c, 1, 33, 93
2, 115200, Note_off_c, 1, 33, 0
2, 115200, Note_on_c, 1, 36, 93
2, 116352, Note_off_c, 1, 36, 0
2, 116352, Note_on_c, 1, 38, 93
2, 117120, Note_off_c, 1, 38, 0
2, 117120, Note_on_c, 1, 38, 93
2, 117312, Note_off_c, 1, 38, 0
2, 117312, Note_on_c, 1, 36, 93
2, 117504, Note_off_c, 1, 36, 0
2, 117504, Note_on_c, 1, 41, 93
2, 118272, Note_off_c, 1, 41, 0
2, 118272, Note_on_c, 1, 38, 93
2, 118464, Note_off_c, 1, 38, 0
2, 118464, Note_on_c, 1, 36, 93
2, 118656, Note_off_c, 1, 36, 0
2, 118656, Note_on_c, 1, 33, 93
2, 119520, Note_off_c, 1, 33, 0
2, 119616, Note_on_c, 1, 33, 93
2, 119808, Note_off_c, 1, 33, 0
2, 119808, Note_on_c, 1, 36, 93
2, 120672, Note_off_c, 1, 36, 0
2, 120768, Note_on_c, 1, 36, 93
2, 120960, Note_off_c, 1, 36, 0
2, 120960, Note_on_c, 1, 28, 93
2, 121824, Note_off_c, 1, 28, 0
2, 121920, Note_on_c, 1, 28, 93
2, 122016, Note_off_c, 1, 28, 0
2, 122112, Note_on_c, 1, 28, 93
2, 122976, Note_off_c, 1, 28, 0
2, 123072, Note_on_c, 1, 28, 93
2, 123264, Note_off_c, 1, 28, 0
2, 123264, Note_on_c, 1, 33, 93
2, 124032, Note_off_c, 1, 33, 0
2, 124032, Note_on_c, 1, 33, 93
2, 124224, Note_off_c, 1, 33, 0
2, 124224, Note_on_c, 1, 35, 93
2, 124416, Note_off_c, 1, 35, 0
2, 124416, Note_on_c, 1, 36, 93
2, 125280, Note_off_c, 1, 36, 0
2, 125376, Note_on_c, 1, 36, 93
2, 125568, Note_off_c, 1, 36, 0
2, 125568, Note_on_c, 1, 38, 93
2, 126432, Note_off_c, 1, 38, 0
2, 126528, Note_on_c, 1, 38, 93
2, 126720, Note_off_c, 1, 38, 0
2, 126720, Note_on_c, 1, 41, 93
2, 127584, Note_off_c, 1, 41, 0
2, 127680, Note_on_c, 1, 41, 93
2, 127872, Note_off_c, 1, 41, 0
2, 127872, Note_on_c, 1, 33, 93
2, 128736, Note_off_c, 1, 33, 0
2, 128832, Note_on_c, 1, 33, 93
2, 129024, Note_off_c, 1, 33, 0
2, 129024, Note_on_c, 1, 28, 93
2, 129888, Note_off_c, 1, 28, 0
2, 129984, Note_on_c, 1, 28, 93
2, 130176, Note_off_c, 1, 28, 0
2, 130176, Note_on_c, 1, 33, 93
2, 130368, Note_off_c, 1, 33, 0
2, 130368, Note_on_c, 1, 33, 93
2, 130384, Note_off_c, 1, 33, 0
2, 130560, Note_on_c, 1, 33, 93
2, 130752, Note_off_c, 1, 33, 0
2, 130752, Note_on_c, 1, 33, 93
2, 130848, Note_off_c, 1, 33, 0
2, 130944, Note_on_c, 1, 33, 93
2, 131040, Note_off_c, 1, 33, 0
2, 131136, Note_on_c, 1, 33, 93
2, 131328, Note_off_c, 1, 33, 0
2, 131328, Note_on_c, 1, 36, 93
2, 131520, Note_off_c, 1, 36, 0
2, 131520, Note_on_c, 1, 36, 93
2, 131536, Note_off_c, 1, 36, 0
2, 131712, Note_on_c, 1, 36, 93
2, 131904, Note_off_c, 1, 36, 0
2, 131904, Note_on_c, 1, 36, 93
2, 132000, Note_off_c, 1, 36, 0
2, 132096, Note_on_c, 1, 36, 93
2, 132192, Note_off_c, 1, 36, 0
2, 132288, Note_on_c, 1, 36, 93
2, 132480, Note_off_c, 1, 36, 0
2, 132480, Note_on_c, 1, 38, 93
2, 132672, Note_off_c, 1, 38, 0
2, 132672, Note_on_c, 1, 38, 93
2, 132688, Note_off_c, 1, 38, 0
2, 132864, Note_on_c, 1, 38, 93
2, 132976, Note_off_c, 1, 38, 0
2, 133056, Note_on_c, 1, 38, 93
2, 133248, Note_off_c, 1, 38, 0
2, 133248, Note_on_c, 1, 38, 93
2, 133440, Note_off_c, 1, 38, 0
2, 133440, Note_on_c, 1, 38, 93
2, 133632, Note_off_c, 1, 38, 0
2, 133632, Note_on_c, 1, 41, 93
2, 133824, Note_off_c, 1, 41, 0
2, 133824, Note_on_c, 1, 41, 93
2, 133840, Note_off_c, 1, 41, 0
2, 134016, Note_on_c, 1, 41, 93
2, 134208, Note_off_c, 1, 41, 0
2, 134208, Note_on_c, 1, 41, 93
2, 134304, Note_off_c, 1, 41, 0
2, 134400, Note_on_c, 1, 41, 93
2, 134496, Note_off_c, 1, 41, 0
2, 134592, Note_on_c, 1, 41, 93
2, 134784, Note_off_c, 1, 41, 0
2, 134784, Note_on_c, 1, 33, 93
2, 134976, Note_off_c, 1, 33, 0
2, 134976, Note_on_c, 1, 33, 93
2, 134992, Note_off_c, 1, 33, 0
2, 135168, Note_on_c, 1, 33, 93
2, 135360, Note_off_c, 1, 33, 0
2, 135360, Note_on_c, 1, 33, 93
2, 135456, Note_off_c, 1, 33, 0
2, 135552, Note_on_c, 1, 33, 93
2, 135648, Note_off_c, 1, 33, 0
2, 135744, Note_on_c, 1, 33, 93
2, 135936, Note_off_c, 1, 33, 0
2, 135936, Note_on_c, 1, 28, 93
2, 136128, Note_off_c, 1, 28, 0
2, 136128, Note_on_c, 1, 28, 93
2, 136144, Note_off_c, 1, 28, 0
2, 136320, Note_on_c, 1, 28, 93
2, 136512, Note_off_c, 1, 28, 0
2, 136512, Note_on_c, 1, 28, 93
2, 136624, Note_off_c, 1, 28, 0
2, 136704, Note_on_c, 1, 28, 93
2, 136800, Note_off_c, 1, 28, 0
2, 136896, Note_on_c, 1, 28, 93
2, 137088, Note_off_c, 1, 28, 0
2, 137088, Note_on_c, 1, 33, 93
2, 137280, Note_off_c, 1, 33, 0
2, 137280, Note_on_c, 1, 33, 93
2, 137296, Note_off_c, 1, 33, 0
2, 137472, Note_on_c, 1, 33, 93
2, 137664, Note_off_c, 1, 33, 0
2, 137664, Note_on_c, 1, 33, 93
2, 137760, Note_off_c, 1, 33, 0
2, 137856, Note_on_c, 1, 33, 93
2, 137952, Note_off_c, 1, 33, 0
2, 138048, Note_on_c, 1, 33, 93
2, 138240, Note_off_c, 1, 33, 0
2, 138240, Note_on_c, 1, 28, 93
2, 138432, Note_off_c, 1, 28, 0
2, 138432, Note_on_c, 1, 28, 93
2, 138528, Note_off_c, 1, 28, 0
2, 138624, Note_on_c, 1, 28, 93
2, 138720, Note_off_c, 1, 28, 0
2, 138816, Note_on_c, 1, 28, 93
2, 139008, Note_off_c, 1, 28, 0
2, 139008, Note_on_c, 1, 28, 93
2, 139104, Note_off_c, 1, 28, 0
2, 139200, Note_on_c, 1, 28, 93
2, 139392, Note_off_c, 1, 28, 0
2, 139392, Note_on_c, 1, 33, 103
2, 139584, Note_off_c, 1, 33, 0
2, 139584, Note_on_c, 1, 33, 103
2, 139776, Note_off_c, 1, 33, 0
2, 139776, Note_on_c, 1, 33, 103
2, 139968, Note_off_c, 1, 33, 0
2, 139968, Note_on_c, 1, 33, 103
2, 140160, Note_off_c, 1, 33, 0
2, 140160, Note_on_c, 1, 33, 103
2, 140352, Note_off_c, 1, 33, 0
2, 140352, Note_on_c, 1, 33, 103
2, 140544, Note_off_c, 1, 33, 0
2, 140544, Note_on_c, 1, 36, 103
2, 140736, Note_off_c, 1, 36, 0
2, 140736, Note_on_c, 1, 36, 103
2, 140928, Note_off_c, 1, 36, 0
2, 140928, Note_on_c, 1, 36, 103
2, 141120, Note_off_c, 1, 36, 0
2, 141120, Note_on_c, 1, 36, 103
2, 141312, Note_off_c, 1, 36, 0
2, 141312, Note_on_c, 1, 36, 103
2, 141504, Note_off_c, 1, 36, 0
2, 141504, Note_on_c, 1, 36, 103
2, 141696, Note_off_c, 1, 36, 0
2, 141696, Note_on_c, 1, 38, 103
2, 141888, Note_off_c, 1, 38, 0
2, 141888, Note_on_c, 1, 38, 103
2, 142080, Note_off_c, 1, 38, 0
2, 142080, Note_on_c, 1, 38, 103
2, 142272, Note_off_c, 1, 38, 0
2, 142272, Note_on_c, 1, 38, 103
2, 142464, Note_off_c, 1, 38, 0
2, 142464, Note_on_c, 1, 38, 103
2, 142656, Note_off_c, 1, 38, 0
2, 142656, Note_on_c, 1, 38, 103
2, 142848, Note_off_c, 1, 38, 0
2, 142848, Note_on_c, 1, 41, 103
2, 143040, Note_off_c, 1, 41, 0
2, 143040, Note_on_c, 1, 41, 103
2, 143232, Note_off_c, 1, 41, 0
2, 143232, Note_on_c, 1, 41, 103
2, 143424, Note_off_c, 1, 41, 0
2, 143424, Note_on_c, 1, 41, 103
2, 143616, Note_off_c, 1, 41, 0
2, 143616, Note_on_c, 1, 41, 103
2, 143808, Note_off_c, 1, 41, 0
2, 143808, Note_on_c, 1, 41, 103
2, 144000, Note_off_c, 1, 41, 0
2, 144000, Note_on_c, 1, 33, 103
2, 144384, Note_off_c, 1, 33, 0
2, 144384, Note_on_c, 1, 33, 103
2, 144576, Note_off_c, 1, 33, 0
2, 144576, Note_on_c, 1, 33, 103
2, 144768, Note_off_c, 1, 33, 0
2, 144768, Note_on_c, 1, 33, 103
2, 144960, Note_off_c, 1, 33, 0
2, 144960, Note_on_c, 1, 33, 103
2, 145152, Note_off_c, 1, 33, 0
2, 145152, Note_on_c, 1, 36, 103
2, 145344, Note_off_c, 1, 36, 0
2, 145344, Note_on_c, 1, 36, 103
2, 145536, Note_off_c, 1, 36, 0
2, 145536, Note_on_c, 1, 36, 103
2, 145728, Note_off_c, 1, 36, 0
2, 145728, Note_on_c, 1, 36, 103
2, 145920, Note_off_c, 1, 36, 0
2, 145920, Note_on_c, 1, 36, 103
2, 146112, Note_off_c, 1, 36, 0
2, 146112, Note_on_c, 1, 36, 103
2, 146304, Note_off_c, 1, 36, 0
2, 146304, Note_on_c, 1, 40, 103
2, 146496, Note_off_c, 1, 40, 0
2, 146496, Note_on_c, 1, 40, 103
2, 146688, Note_off_c, 1, 40, 0
2, 146688, Note_on_c, 1, 40, 103
2, 146880, Note_off_c, 1, 40, 0
2, 146880, Note_on_c, 1, 40, 103
2, 147072, Note_off_c, 1, 40, 0
2, 147072, Note_on_c, 1, 40, 103
2, 147264, Note_off_c, 1, 40, 0
2, 147264, Note_on_c, 1, 40, 103
2, 147456, Note_off_c, 1, 40, 0
2, 147456, Note_on_c, 1, 40, 103
2, 147648, Note_off_c, 1, 40, 0
2, 147648, Note_on_c, 1, 40, 103
2, 147840, Note_off_c, 1, 40, 0
2, 147840, Note_on_c, 1, 40, 103
2, 148032, Note_off_c, 1, 40, 0
2, 148032, Note_on_c, 1, 40, 103
2, 148224, Note_off_c, 1, 40, 0
2, 148224, Note_on_c, 1, 40, 103
2, 148416, Note_off_c, 1, 40, 0
2, 148416, Note_on_c, 1, 40, 103
2, 148608, Note_off_c, 1, 40, 0
2, 148608, Note_on_c, 1, 33, 103
2, 148800, Note_off_c, 1, 33, 0
2, 148800, Note_on_c, 1, 33, 103
2, 148992, Note_off_c, 1, 33, 0
2, 148992, Note_on_c, 1, 33, 103
2, 149184, Note_off_c, 1, 33, 0
2, 149184, Note_on_c, 1, 33, 103
2, 149376, Note_off_c, 1, 33, 0
2, 149376, Note_on_c, 1, 33, 103
2, 149568, Note_off_c, 1, 33, 0
2, 149568, Note_on_c, 1, 33, 103
2, 149760, Note_off_c, 1, 33, 0
2, 149760, Note_on_c, 1, 36, 103
2, 149952, Note_off_c, 1, 36, 0
2, 149952, Note_on_c, 1, 36, 103
2, 150144, Note_off_c, 1, 36, 0
2, 150144, Note_on_c, 1, 36, 103
2, 150336, Note_off_c, 1, 36, 0
2, 150336, Note_on_c, 1, 36, 103
2, 150528, Note_off_c, 1, 36, 0
2, 150528, Note_on_c, 1, 36, 103
2, 150720, Note_off_c, 1, 36, 0
2, 150720, Note_on_c, 1, 36, 103
2, 150912, Note_off_c, 1, 36, 0
2, 150912, Note_on_c, 1, 38, 103
2, 151104, Note_off_c, 1, 38, 0
2, 151104, Note_on_c, 1, 38, 103
2, 151296, Note_off_c, 1, 38, 0
2, 151296, Note_on_c, 1, 38, 103
2, 151488, Note_off_c, 1, 38, 0
2, 151488, Note_on_c, 1, 38, 103
2, 151680, Note_off_c, 1, 38, 0
2, 151680, Note_on_c, 1, 38, 103
2, 151872, Note_off_c, 1, 38, 0
2, 151872, Note_on_c, 1, 38, 103
2, 152064, Note_off_c, 1, 38, 0
2, 152064, Note_on_c, 1, 41, 103
2, 152256, Note_off_c, 1, 41, 0
2, 152256, Note_on_c, 1, 41, 103
2, 152448, Note_off_c, 1, 41, 0
2, 152448, Note_on_c, 1, 41, 103
2, 152640, Note_off_c, 1, 41, 0
2, 152640, Note_on_c, 1, 41, 103
2, 152832, Note_off_c, 1, 41, 0
2, 152832, Note_on_c, 1, 41, 103
2, 153024, Note_off_c, 1, 41, 0
2, 153024, Note_on_c, 1, 41, 103
2, 153216, Note_off_c, 1, 41, 0
2, 153216, Note_on_c, 1, 45, 103
2, 153408, Note_off_c, 1, 45, 0
2, 153408, Note_on_c, 1, 45, 103
2, 153600, Note_off_c, 1, 45, 0
2, 153600, Note_on_c, 1, 45, 103
2, 153792, Note_off_c, 1, 45, 0
2, 153792, Note_on_c, 1, 45, 103
2, 153984, Note_off_c, 1, 45, 0
2, 153984, Note_on_c, 1, 45, 103
2, 154176, Note_off_c, 1, 45, 0
2, 154176, Note_on_c, 1, 45, 103
2, 154368, Note_off_c, 1, 45, 0
2, 154368, Note_on_c, 1, 40, 103
2, 154560, Note_off_c, 1, 40, 0
2, 154560, Note_on_c, 1, 40, 103
2, 154752, Note_off_c, 1, 40, 0
2, 154752, Note_on_c, 1, 40, 103
2, 154944, Note_off_c, 1, 40, 0
2, 154944, Note_on_c, 1, 40, 103
2, 155136, Note_off_c, 1, 40, 0
2, 155136, Note_on_c, 1, 40, 103
2, 155328, Note_off_c, 1, 40, 0
2, 155328, Note_on_c, 1, 40, 103
2, 155504, Note_on_c, 1, 45, 93
2, 155520, Note_off_c, 1, 40, 0
2, 155696, Note_off_c, 1, 45, 0
2, 155696, Note_on_c, 1, 45, 93
2, 155888, Note_off_c, 1, 45, 0
2, 155888, Note_on_c, 1, 45, 93
2, 156080, Note_off_c, 1, 45, 0
2, 156080, Note_on_c, 1, 45, 93
2, 156272, Note_off_c, 1, 45, 0
2, 156272, Note_on_c, 1, 45, 93
2, 156464, Note_off_c, 1, 45, 0
2, 156464, Note_on_c, 1, 45, 93
2, 156656, Note_off_c, 1, 45, 0
2, 156656, Note_on_c, 1, 36, 93
2, 156848, Note_off_c, 1, 36, 0
2, 156848, Note_on_c, 1, 36, 93
2, 157040, Note_off_c, 1, 36, 0
2, 157040, Note_on_c, 1, 36, 93
2, 157232, Note_off_c, 1, 36, 0
2, 157232, Note_on_c, 1, 36, 93
2, 157424, Note_off_c, 1, 36, 0
2, 157424, Note_on_c, 1, 36, 93
2, 157616, Note_off_c, 1, 36, 0
2, 157616, Note_on_c, 1, 36, 93
2, 157808, Note_off_c, 1, 36, 0
2, 157808, Note_on_c, 1, 38, 93
2, 158000, Note_off_c, 1, 38, 0
2, 158000, Note_on_c, 1, 38, 93
2, 158192, Note_off_c, 1, 38, 0
2, 158192, Note_on_c, 1, 38, 93
2, 158384, Note_off_c, 1, 38, 0
2, 158384, Note_on_c, 1, 38, 93
2, 158576, Note_off_c, 1, 38, 0
2, 158576, Note_on_c, 1, 38, 93
2, 158768, Note_off_c, 1, 38, 0
2, 158768, Note_on_c, 1, 38, 93
2, 158960, Note_off_c, 1, 38, 0
2, 158960, Note_on_c, 1, 41, 93
2, 159152, Note_off_c, 1, 41, 0
2, 159152, Note_on_c, 1, 41, 93
2, 159344, Note_off_c, 1, 41, 0
2, 159344, Note_on_c, 1, 41, 93
2, 159536, Note_off_c, 1, 41, 0
2, 159536, Note_on_c, 1, 41, 93
2, 159728, Note_off_c, 1, 41, 0
2, 159728, Note_on_c, 1, 41, 93
2, 159920, Note_off_c, 1, 41, 0
2, 159920, Note_on_c, 1, 41, 93
2, 160112, Note_off_c, 1, 41, 0
2, 160112, Note_on_c, 1, 45, 93
2, 160304, Note_off_c, 1, 45, 0
2, 160304, Note_on_c, 1, 45, 93
2, 160496, Note_off_c, 1, 45, 0
2, 160496, Note_on_c, 1, 45, 93
2, 160688, Note_off_c, 1, 45, 0
2, 160688, Note_on_c, 1, 45, 93
2, 160880, Note_off_c, 1, 45, 0
2, 160880, Note_on_c, 1, 45, 93
2, 161072, Note_off_c, 1, 45, 0
2, 161072, Note_on_c, 1, 45, 93
2, 161264, Note_off_c, 1, 45, 0
2, 161264, Note_on_c, 1, 40, 93
2, 161456, Note_off_c, 1, 40, 0
2, 161456, Note_on_c, 1, 40, 93
2, 161648, Note_off_c, 1, 40, 0
2, 161648, Note_on_c, 1, 40, 93
2, 161840, Note_off_c, 1, 40, 0
2, 161840, Note_on_c, 1, 40, 93
2, 162032, Note_off_c, 1, 40, 0
2, 162032, Note_on_c, 1, 40, 93
2, 162224, Note_off_c, 1, 40, 0
2, 162224, Note_on_c, 1, 40, 93
2, 162416, Note_off_c, 1, 40, 0
2, 162416, Note_on_c, 1, 45, 93
2, 162608, Note_off_c, 1, 45, 0
2, 162608, Note_on_c, 1, 45, 93
2, 162800, Note_off_c, 1, 45, 0
2, 162800, Note_on_c, 1, 45, 93
2, 162992, Note_off_c, 1, 45, 0
2, 162992, Note_on_c, 1, 45, 93
2, 163184, Note_off_c, 1, 45, 0
2, 163184, Note_on_c, 1, 45, 93
2, 163376, Note_off_c, 1, 45, 0
2, 163376, Note_on_c, 1, 45, 93
2, 163568, Note_off_c, 1, 45, 0
2, 163568, Note_on_c, 1, 40, 93
2, 163760, Note_off_c, 1, 40, 0
2, 163760, Note_on_c, 1, 40, 93
2, 163952, Note_off_c, 1, 40, 0
2, 163952, Note_on_c, 1, 40, 93
2, 164144, Note_off_c, 1, 40, 0
2, 164144, Note_on_c, 1, 40, 93
2, 164336, Note_off_c, 1, 40, 0
2, 164336, Note_on_c, 1, 40, 93
2, 164528, Note_off_c, 1, 40, 0
2, 164528, Note_on_c, 1, 40, 93
2, 164720, Note_off_c, 1, 40, 0
2, 164736, Note_on_c, 1, 33, 103
2, 164928, Note_off_c, 1, 33, 0
2, 164928, Note_on_c, 1, 33, 103
2, 165120, Note_off_c, 1, 33, 0
2, 165120, Note_on_c, 1, 33, 103
2, 165312, Note_off_c, 1, 33, 0
2, 165312, Note_on_c, 1, 33, 103
2, 165504, Note_off_c, 1, 33, 0
2, 165504, Note_on_c, 1, 33, 103
2, 165696, Note_off_c, 1, 33, 0
2, 165696, Note_on_c, 1, 33, 103
2, 165888, Note_off_c, 1, 33, 0
2, 165888, Note_on_c, 1, 36, 103
2, 166080, Note_off_c, 1, 36, 0
2, 166080, Note_on_c, 1, 36, 103
2, 166272, Note_off_c, 1, 36, 0
2, 166272, Note_on_c, 1, 36, 103
2, 166464, Note_off_c, 1, 36, 0
2, 166464, Note_on_c, 1, 36, 103
2, 166656, Note_off_c, 1, 36, 0
2, 166656, Note_on_c, 1, 36, 103
2, 166848, Note_off_c, 1, 36, 0
2, 166848, Note_on_c, 1, 36, 103
2, 167040, Note_off_c, 1, 36, 0
2, 167040, Note_on_c, 1, 38, 103
2, 167232, Note_off_c, 1, 38, 0
2, 167232, Note_on_c, 1, 38, 103
2, 167424, Note_off_c, 1, 38, 0
2, 167424, Note_on_c, 1, 38, 103
2, 167616, Note_off_c, 1, 38, 0
2, 167616, Note_on_c, 1, 38, 103
2, 167808, Note_off_c, 1, 38, 0
2, 167808, Note_on_c, 1, 38, 103
2, 168000, Note_off_c, 1, 38, 0
2, 168000, Note_on_c, 1, 38, 103
2, 168192, Note_off_c, 1, 38, 0
2, 168192, Note_on_c, 1, 41, 103
2, 168384, Note_off_c, 1, 41, 0
2, 168384, Note_on_c, 1, 41, 103
2, 168576, Note_off_c, 1, 41, 0
2, 168576, Note_on_c, 1, 41, 103
2, 168768, Note_off_c, 1, 41, 0
2, 168768, Note_on_c, 1, 41, 103
2, 168960, Note_off_c, 1, 41, 0
2, 168960, Note_on_c, 1, 41, 103
2, 169152, Note_off_c, 1, 41, 0
2, 169152, Note_on_c, 1, 41, 103
2, 169344, Note_off_c, 1, 41, 0
2, 169344, Note_on_c, 1, 33, 103
2, 169728, Note_off_c, 1, 33, 0
2, 169728, Note_on_c, 1, 33, 103
2, 169920, Note_off_c, 1, 33, 0
2, 169920, Note_on_c, 1, 33, 103
2, 170112, Note_off_c, 1, 33, 0
2, 170112, Note_on_c, 1, 33, 103
2, 170304, Note_off_c, 1, 33, 0
2, 170304, Note_on_c, 1, 33, 103
2, 170496, Note_off_c, 1, 33, 0
2, 170496, Note_on_c, 1, 36, 103
2, 170688, Note_off_c, 1, 36, 0
2, 170688, Note_on_c, 1, 36, 103
2, 170880, Note_off_c, 1, 36, 0
2, 170880, Note_on_c, 1, 36, 103
2, 171072, Note_off_c, 1, 36, 0
2, 171072, Note_on_c, 1, 36, 103
2, 171264, Note_off_c, 1, 36, 0
2, 171264, Note_on_c, 1, 36, 103
2, 171456, Note_off_c, 1, 36, 0
2, 171456, Note_on_c, 1, 36, 103
2, 171648, Note_off_c, 1, 36, 0
2, 171648, Note_on_c, 1, 40, 103
2, 171840, Note_off_c, 1, 40, 0
2, 171840, Note_on_c, 1, 40, 103
2, 172032, Note_off_c, 1, 40, 0
2, 172032, Note_on_c, 1, 40, 103
2, 172224, Note_off_c, 1, 40, 0
2, 172224, Note_on_c, 1, 40, 103
2, 172416, Note_off_c, 1, 40, 0
2, 172416, Note_on_c, 1, 40, 103
2, 172608, Note_off_c, 1, 40, 0
2, 172608, Note_on_c, 1, 40, 103
2, 172800, Note_off_c, 1, 40, 0
2, 172800, Note_on_c, 1, 40, 103
2, 172992, Note_off_c, 1, 40, 0
2, 172992, Note_on_c, 1, 40, 103
2, 173184, Note_off_c, 1, 40, 0
2, 173184, Note_on_c, 1, 40, 103
2, 173376, Note_off_c, 1, 40, 0
2, 173376, Note_on_c, 1, 40, 103
2, 173568, Note_off_c, 1, 40, 0
2, 173568, Note_on_c, 1, 40, 103
2, 173760, Note_off_c, 1, 40, 0
2, 173760, Note_on_c, 1, 40, 103
2, 173952, Note_off_c, 1, 40, 0
2, 173952, Note_on_c, 1, 33, 103
2, 174144, Note_off_c, 1, 33, 0
2, 174144, Note_on_c, 1, 33, 103
2, 174336, Note_off_c, 1, 33, 0
2, 174336, Note_on_c, 1, 33, 103
2, 174528, Note_off_c, 1, 33, 0
2, 174528, Note_on_c, 1, 33, 103
2, 174720, Note_off_c, 1, 33, 0
2, 174720, Note_on_c, 1, 33, 103
2, 174912, Note_off_c, 1, 33, 0
2, 174912, Note_on_c, 1, 33, 103
2, 175104, Note_off_c, 1, 33, 0
2, 175104, Note_on_c, 1, 36, 103
2, 175296, Note_off_c, 1, 36, 0
2, 175296, Note_on_c, 1, 36, 103
2, 175488, Note_off_c, 1, 36, 0
2, 175488, Note_on_c, 1, 36, 103
2, 175680, Note_off_c, 1, 36, 0
2, 175680, Note_on_c, 1, 36, 103
2, 175872, Note_off_c, 1, 36, 0
2, 175872, Note_on_c, 1, 36, 103
2, 176064, Note_off_c, 1, 36, 0
2, 176064, Note_on_c, 1, 36, 103
2, 176256, Note_off_c, 1, 36, 0
2, 176256, Note_on_c, 1, 38, 103
2, 176448, Note_off_c, 1, 38, 0
2, 176448, Note_on_c, 1, 38, 103
2, 176640, Note_off_c, 1, 38, 0
2, 176640, Note_on_c, 1, 38, 103
2, 176832, Note_off_c, 1, 38, 0
2, 176832, Note_on_c, 1, 38, 103
2, 177024, Note_off_c, 1, 38, 0
2, 177024, Note_on_c, 1, 38, 103
2, 177216, Note_off_c, 1, 38, 0
2, 177216, Note_on_c, 1, 38, 103
2, 177408, Note_off_c, 1, 38, 0
2, 177408, Note_on_c, 1, 41, 103
2, 177600, Note_off_c, 1, 41, 0
2, 177600, Note_on_c, 1, 41, 103
2, 177792, Note_off_c, 1, 41, 0
2, 177792, Note_on_c, 1, 41, 103
2, 177984, Note_off_c, 1, 41, 0
2, 177984, Note_on_c, 1, 41, 103
2, 178176, Note_off_c, 1, 41, 0
2, 178176, Note_on_c, 1, 41, 103
2, 178368, Note_off_c, 1, 41, 0
2, 178368, Note_on_c, 1, 41, 103
2, 178560, Note_off_c, 1, 41, 0
2, 178560, Note_on_c, 1, 45, 103
2, 178752, Note_off_c, 1, 45, 0
2, 178752, Note_on_c, 1, 45, 103
2, 178944, Note_off_c, 1, 45, 0
2, 178944, Note_on_c, 1, 45, 103
2, 179136, Note_off_c, 1, 45, 0
2, 179136, Note_on_c, 1, 45, 103
2, 179328, Note_off_c, 1, 45, 0
2, 179328, Note_on_c, 1, 45, 103
2, 179520, Note_off_c, 1, 45, 0
2, 179520, Note_on_c, 1, 45, 103
2, 179712, Note_off_c, 1, 45, 0
2, 179712, Note_on_c, 1, 40, 103
2, 179904, Note_off_c, 1, 40, 0
2, 179904, Note_on_c, 1, 40, 103
2, 180096, Note_off_c, 1, 40, 0
2, 180096, Note_on_c, 1, 40, 103
2, 180288, Note_off_c, 1, 40, 0
2, 180288, Note_on_c, 1, 40, 103
2, 180480, Note_off_c, 1, 40, 0
2, 180480, Note_on_c, 1, 40, 103
2, 180672, Note_off_c, 1, 40, 0
2, 180672, Note_on_c, 1, 40, 103
2, 180848, Note_on_c, 1, 45, 103
2, 180864, Note_off_c, 1, 40, 0
2, 181040, Note_off_c, 1, 45, 0
2, 181040, Note_on_c, 1, 45, 103
2, 181232, Note_off_c, 1, 45, 0
2, 181232, Note_on_c, 1, 45, 103
2, 181424, Note_off_c, 1, 45, 0
2, 181424, Note_on_c, 1, 45, 103
2, 181616, Note_off_c, 1, 45, 0
2, 181616, Note_on_c, 1, 45, 103
2, 181808, Note_off_c, 1, 45, 0
2, 181808, Note_on_c, 1, 45, 103
2, 182000, Note_off_c, 1, 45, 0
2, 182000, Note_on_c, 1, 36, 103
2, 182192, Note_off_c, 1, 36, 0
2, 182192, Note_on_c, 1, 36, 103
2, 182384, Note_off_c, 1, 36, 0
2, 182384, Note_on_c, 1, 36, 103
2, 182576, Note_off_c, 1, 36, 0
2, 182576, Note_on_c, 1, 36, 103
2, 182768, Note_off_c, 1, 36, 0
2, 182768, Note_on_c, 1, 36, 103
2, 182960, Note_off_c, 1, 36, 0
2, 182960, Note_on_c, 1, 36, 103
2, 183152, Note_off_c, 1, 36, 0
2, 183152, Note_on_c, 1, 38, 103
2, 183344, Note_off_c, 1, 38, 0
2, 183344, Note_on_c, 1, 38, 103
2, 183536, Note_off_c, 1, 38, 0
2, 183536, Note_on_c, 1, 38, 103
2, 183728, Note_off_c, 1, 38, 0
2, 183728, Note_on_c, 1, 38, 103
2, 183920, Note_off_c, 1, 38, 0
2, 183920, Note_on_c, 1, 38, 103
2, 184112, Note_off_c, 1, 38, 0
2, 184112, Note_on_c, 1, 38, 103
2, 184304, Note_off_c, 1, 38, 0
2, 184304, Note_on_c, 1, 41, 103
2, 184496, Note_off_c, 1, 41, 0
2, 184496, Note_on_c, 1, 41, 103
2, 184688, Note_off_c, 1, 41, 0
2, 184688, Note_on_c, 1, 41, 103
2, 184880, Note_off_c, 1, 41, 0
2, 184880, Note_on_c, 1, 41, 103
2, 185072, Note_off_c, 1, 41, 0
2, 185072, Note_on_c, 1, 41, 103
2, 185264, Note_off_c, 1, 41, 0
2, 185264, Note_on_c, 1, 41, 103
2, 185456, Note_off_c, 1, 41, 0
2, 185456, Note_on_c, 1, 45, 103
2, 185648, Note_off_c, 1, 45, 0
2, 185648, Note_on_c, 1, 45, 103
2, 185840, Note_off_c, 1, 45, 0
2, 185840, Note_on_c, 1, 45, 103
2, 186032, Note_off_c, 1, 45, 0
2, 186032, Note_on_c, 1, 45, 103
2, 186224, Note_off_c, 1, 45, 0
2, 186224, Note_on_c, 1, 45, 103
2, 186416, Note_off_c, 1, 45, 0
2, 186416, Note_on_c, 1, 45, 103
2, 186608, Note_off_c, 1, 45, 0
2, 186608, Note_on_c, 1, 40, 103
2, 186800, Note_off_c, 1, 40, 0
2, 186800, Note_on_c, 1, 40, 103
2, 186992, Note_off_c, 1, 40, 0
2, 186992, Note_on_c, 1, 40, 103
2, 187184, Note_off_c, 1, 40, 0
2, 187184, Note_on_c, 1, 40, 103
2, 187376, Note_off_c, 1, 40, 0
2, 187376, Note_on_c, 1, 40, 103
2, 187568, Note_off_c, 1, 40, 0
2, 187568, Note_on_c, 1, 40, 103
2, 187760, Note_off_c, 1, 40, 0
2, 187760, Note_on_c, 1, 45, 93
2, 188896, Note_off_c, 1, 45, 0
2, 188912, Note_on_c, 1, 38, 93
2, 190048, Note_off_c, 1, 38, 0
2, 190064, Note_on_c, 1, 45, 93
2, 191200, Note_off_c, 1, 45, 0
2, 191216, Note_on_c, 1, 38, 93
2, 192352, Note_off_c, 1, 38, 0
2, 192368, Note_on_c, 1, 45, 93
2, 193520, Note_off_c, 1, 45, 0
2, 193520, Note_on_c, 1, 38, 93
2, 194640, Note_off_c, 1, 38, 0
2, 194672, Note_on_c, 1, 45, 93
2, 195824, Note_off_c, 1, 45, 0
2, 195824, Note_on_c, 1, 38, 93
2, 196880, Note_off_c, 1, 38, 0
2, 196976, Note_on_c, 1, 45, 93
2, 197168, Note_off_c, 1, 45, 0
2, 197168, Note_on_c, 1, 43, 93
2, 197552, Note_off_c, 1, 43, 0
2, 197552, Note_on_c, 1, 40, 93
2, 197744, Note_off_c, 1, 40, 0
2, 197744, Note_on_c, 1, 38, 93
2, 197936, Note_off_c, 1, 38, 0
2, 197936, Note_on_c, 1, 38, 93
2, 198128, Note_off_c, 1, 38, 0
2, 198320, Note_on_c, 1, 40, 93
2, 198512, Note_off_c, 1, 40, 0
2, 198512, Note_on_c, 1, 43, 93
2, 198704, Note_off_c, 1, 43, 0
2, 198704, Note_on_c, 1, 43, 93
2, 198896, Note_off_c, 1, 43, 0
2, 198896, Note_on_c, 1, 44, 93
2, 199088, Note_off_c, 1, 44, 0
2, 199088, Note_on_c, 1, 45, 93
2, 199280, Note_off_c, 1, 45, 0
2, 199280, Note_on_c, 1, 45, 93
2, 202720, Note_off_c, 1, 45, 0
2, 202736, Note_on_c, 1, 33, 121
2, 202896, Note_off_c, 1, 33, 0
2, 202896, End_track
3, 0, Start_track
3, 0, Title_t, "HamdOrgan  "
3, 0, Control_c, 0, 32, 0
3, 0, Control_c, 2, 0, 0
3, 0, Program_c, 2, 16
3, 0, Control_c, 2, 7, 127
3, 0, Control_c, 2, 10, 127
3, 0, Control_c, 2, 91, 127
3, 0, Control_c, 2, 93, 127
3, 0, Key_signature, 0, "major"
3, 4576, Control_c, 2, 1, 32
3, 28784, Note_on_c, 2, 57, 67
3, 28784, Note_on_c, 2, 52, 67
3, 29936, Note_off_c, 2, 52, 0
3, 29936, Note_off_c, 2, 57, 0
3, 29936, Note_on_c, 2, 60, 67
3, 29936, Note_on_c, 2, 55, 67
3, 31088, Note_off_c, 2, 55, 0
3, 31088, Note_off_c, 2, 60, 0
3, 31088, Note_on_c, 2, 62, 67
3, 31088, Note_on_c, 2, 57, 67
3, 32240, Note_off_c, 2, 57, 0
3, 32240, Note_off_c, 2, 62, 0
3, 32240, Note_on_c, 2, 65, 67
3, 32240, Note_on_c, 2, 60, 67
3, 33392, Note_off_c, 2, 60, 0
3, 33392, Note_off_c, 2, 65, 0
3, 33392, Note_on_c, 2, 57, 67
3, 33488, Note_on_c, 2, 64, 67
3, 33584, Note_off_c, 2, 57, 0
3, 33584, Note_on_c, 2, 69, 67
3, 33584, Note_on_c, 2, 57, 92
3, 33648, Note_off_c, 2, 64, 0
3, 33680, Note_on_c, 2, 64, 67
3, 33744, Note_off_c, 2, 69, 0
3, 33744, Note_off_c, 2, 57, 0
3, 33776, Note_on_c, 2, 69, 67
3, 33776, Note_on_c, 2, 60, 92
3, 33840, Note_off_c, 2, 64, 0
3, 33872, Note_on_c, 2, 64, 67
3, 33936, Note_off_c, 2, 69, 0
3, 33936, Note_off_c, 2, 60, 0
3, 33968, Note_off_c, 2, 64, 0
3, 33968, Note_on_c, 2, 69, 67
3, 33968, Note_on_c, 2, 64, 92
3, 34032, Note_off_c, 2, 64, 0
3, 34064, Note_on_c, 2, 64, 67
3, 34128, Note_off_c, 2, 69, 0
3, 34128, Note_off_c, 2, 64, 0
3, 34160, Note_on_c, 2, 69, 67
3, 34160, Note_on_c, 2, 60, 92
3, 34256, Note_on_c, 2, 64, 67
3, 34320, Note_off_c, 2, 69, 0
3, 34320, Note_off_c, 2, 60, 0
3, 34352, Note_on_c, 2, 69, 67
3, 34352, Note_on_c, 2, 57, 92
3, 34416, Note_off_c, 2, 64, 0
3, 34448, Note_on_c, 2, 64, 67
3, 34512, Note_off_c, 2, 69, 0
3, 34512, Note_off_c, 2, 57, 0
3, 34544, Note_on_c, 2, 52, 67
3, 34608, Note_off_c, 2, 64, 0
3, 34640, Note_on_c, 2, 64, 67
3, 34736, Note_on_c, 2, 68, 67
3, 34736, Note_on_c, 2, 56, 92
3, 34800, Note_off_c, 2, 64, 0
3, 34832, Note_on_c, 2, 64, 67
3, 34896, Note_off_c, 2, 68, 0
3, 34896, Note_off_c, 2, 56, 0
3, 34928, Note_on_c, 2, 68, 67
3, 34928, Note_on_c, 2, 59, 92
3, 34992, Note_off_c, 2, 64, 0
3, 35024, Note_on_c, 2, 64, 67
3, 35088, Note_off_c, 2, 68, 0
3, 35088, Note_off_c, 2, 59, 0
3, 35120, Note_on_c, 2, 68, 67
3, 35120, Note_on_c, 2, 62, 92
3, 35184, Note_off_c, 2, 64, 0
3, 35216, Note_on_c, 2, 64, 67
3, 35280, Note_off_c, 2, 68, 0
3, 35280, Note_off_c, 2, 62, 0
3, 35312, Note_on_c, 2, 68, 67
3, 35312, Note_on_c, 2, 59, 92
3, 35376, Note_off_c, 2, 64, 0
3, 35408, Note_on_c, 2, 64, 67
3, 35472, Note_off_c, 2, 68, 0
3, 35472, Note_off_c, 2, 59, 0
3, 35504, Note_on_c, 2, 68, 67
3, 35504, Note_on_c, 2, 56, 92
3, 35568, Note_off_c, 2, 64, 0
3, 35600, Note_on_c, 2, 64, 67
3, 35664, Note_off_c, 2, 52, 0
3, 35664, Note_off_c, 2, 68, 0
3, 35664, Note_off_c, 2, 56, 0
3, 35696, Note_on_c, 2, 57, 67
3, 35760, Note_off_c, 2, 64, 0
3, 35792, Note_on_c, 2, 64, 67
3, 35888, Note_off_c, 2, 57, 0
3, 35888, Note_on_c, 2, 69, 67
3, 35888, Note_on_c, 2, 57, 92
3, 35952, Note_off_c, 2, 64, 0
3, 35984, Note_on_c, 2, 64, 67
3, 36048, Note_off_c, 2, 69, 0
3, 36048, Note_off_c, 2, 57, 0
3, 36080, Note_on_c, 2, 69, 67
3, 36080, Note_on_c, 2, 60, 92
3, 36144, Note_off_c, 2, 64, 0
3, 36176, Note_on_c, 2, 64, 67
3, 36240, Note_off_c, 2, 69, 0
3, 36240, Note_off_c, 2, 60, 0
3, 36272, Note_off_c, 2, 64, 0
3, 36272, Note_on_c, 2, 69, 67
3, 36272, Note_on_c, 2, 64, 92
3, 36336, Note_off_c, 2, 64, 0
3, 36368, Note_on_c, 2, 64, 67
3, 36432, Note_off_c, 2, 69, 0
3, 36432, Note_off_c, 2, 64, 0
3, 36464, Note_on_c, 2, 69, 67
3, 36464, Note_on_c, 2, 60, 92
3, 36560, Note_on_c, 2, 64, 67
3, 36624, Note_off_c, 2, 69, 0
3, 36624, Note_off_c, 2, 60, 0
3, 36656, Note_on_c, 2, 69, 67
3, 36656, Note_on_c, 2, 57, 92
3, 36720, Note_off_c, 2, 64, 0
3, 36752, Note_on_c, 2, 64, 67
3, 36816, Note_off_c, 2, 69, 0
3, 36816, Note_off_c, 2, 57, 0
3, 36848, Note_on_c, 2, 52, 67
3, 36912, Note_off_c, 2, 64, 0
3, 36944, Note_on_c, 2, 64, 67
3, 37040, Note_on_c, 2, 68, 67
3, 37040, Note_on_c, 2, 56, 92
3, 37104, Note_off_c, 2, 64, 0
3, 37136, Note_on_c, 2, 64, 67
3, 37200, Note_off_c, 2, 68, 0
3, 37200, Note_off_c, 2, 56, 0
3, 37232, Note_on_c, 2, 68, 67
3, 37232, Note_on_c, 2, 59, 92
3, 37296, Note_off_c, 2, 64, 0
3, 37328, Note_on_c, 2, 64, 67
3, 37392, Note_off_c, 2, 68, 0
3, 37392, Note_off_c, 2, 59, 0
3, 37424, Note_on_c, 2, 68, 67
3, 37424, Note_on_c, 2, 62, 92
3, 37488, Note_off_c, 2, 64, 0
3, 37520, Note_on_c, 2, 64, 67
3, 37584, Note_off_c, 2, 68, 0
3, 37584, Note_off_c, 2, 62, 0
3, 37616, Note_on_c, 2, 68, 67
3, 37616, Note_on_c, 2, 59, 92
3, 37680, Note_off_c, 2, 64, 0
3, 37712, Note_on_c, 2, 64, 67
3, 37776, Note_off_c, 2, 68, 0
3, 37776, Note_off_c, 2, 59, 0
3, 37808, Note_on_c, 2, 68, 67
3, 37808, Note_on_c, 2, 56, 92
3, 37872, Note_off_c, 2, 52, 0
3, 37872, Note_off_c, 2, 64, 0
3, 37904, Note_on_c, 2, 64, 67
3, 37968, Note_off_c, 2, 68, 0
3, 37968, Note_off_c, 2, 56, 0
3, 38000, Note_on_c, 2, 60, 67
3, 38000, Note_on_c, 2, 57, 67
3, 38000, Note_on_c, 2, 52, 67
3, 38064, Note_off_c, 2, 64, 0
3, 39152, Note_off_c, 2, 57, 0
3, 39152, Note_on_c, 2, 55, 67
3, 40304, Note_off_c, 2, 52, 0
3, 40304, Note_off_c, 2, 55, 0
3, 40304, Note_off_c, 2, 60, 0
3, 40304, Note_on_c, 2, 62, 67
3, 40304, Note_on_c, 2, 57, 67
3, 41456, Note_off_c, 2, 57, 0
3, 41456, Note_off_c, 2, 62, 0
3, 41456, Note_on_c, 2, 65, 67
3, 41456, Note_on_c, 2, 63, 53
3, 41456, Note_on_c, 2, 60, 67
3, 42608, Note_off_c, 2, 60, 0
3, 42608, Note_off_c, 2, 63, 0
3, 42608, Note_off_c, 2, 65, 0
3, 42608, Note_on_c, 2, 64, 67
3, 42608, Note_on_c, 2, 60, 67
3, 42608, Note_on_c, 2, 57, 67
3, 43760, Note_off_c, 2, 57, 0
3, 43760, Note_on_c, 2, 55, 67
3, 44912, Note_off_c, 2, 55, 0
3, 44912, Note_off_c, 2, 60, 0
3, 44912, Note_off_c, 2, 64, 0
3, 44912, Note_on_c, 2, 52, 67
3, 45104, Note_on_c, 2, 59, 73
3, 45104, Note_on_c, 2, 56, 98
3, 45280, Note_off_c, 2, 59, 0
3, 45280, Note_off_c, 2, 56, 0
3, 45296, Note_on_c, 2, 60, 73
3, 45296, Note_on_c, 2, 57, 98
3, 45440, Note_off_c, 2, 57, 0
3, 45488, Note_off_c, 2, 60, 0
3, 45488, Note_on_c, 2, 62, 73
3, 45488, Note_on_c, 2, 57, 98
3, 45504, Note_on_c, 2, 59, 98
3, 45552, Note_off_c, 2, 57, 0
3, 45584, Note_off_c, 2, 62, 0
3, 45616, Note_off_c, 2, 59, 0
3, 45664, Note_on_c, 2, 59, 98
3, 45680, Note_on_c, 2, 62, 73
3, 46048, Note_off_c, 2, 59, 0
3, 46048, Note_off_c, 2, 62, 0
3, 46048, Note_on_c, 2, 57, 98
3, 46064, Note_on_c, 2, 62, 73
3, 46064, Note_on_c, 2, 59, 98
3, 46128, Note_off_c, 2, 57, 0
3, 46176, Note_off_c, 2, 59, 0
3, 46256, Note_off_c, 2, 62, 0
3, 46256, Note_on_c, 2, 62, 73
3, 46256, Note_on_c, 2, 59, 98
3, 46640, Note_on_c, 2, 57, 98
3, 46656, Note_off_c, 2, 59, 0
3, 46736, Note_off_c, 2, 57, 0
3, 46736, Note_on_c, 2, 56, 98
3, 46808, Note_off_c, 2, 52, 0
3, 46832, Note_off_c, 2, 56, 0
3, 46832, Note_on_c, 2, 52, 98
3, 46928, Note_off_c, 2, 52, 0
3, 47024, Note_on_c, 2, 52, 98
3, 47120, Note_off_c, 2, 52, 0
3, 47216, Note_off_c, 2, 62, 0
3, 47216, Note_on_c, 2, 64, 67
3, 47216, Note_on_c, 2, 60, 67
3, 47216, Note_on_c, 2, 57, 67
3, 48272, Note_off_c, 2, 57, 0
3, 48368, Note_on_c, 2, 55, 67
3, 49504, Note_off_c, 2, 64, 0
3, 49520, Note_off_c, 2, 55, 0
3, 49520, Note_off_c, 2, 60, 0
3, 49520, Note_on_c, 2, 62, 67
3, 49520, Note_on_c, 2, 57, 67
3, 49520, Note_on_c, 2, 54, 67
3, 50672, Note_off_c, 2, 54, 0
3, 50672, Note_off_c, 2, 57, 0
3, 50672, Note_off_c, 2, 62, 0
3, 50672, Note_on_c, 2, 65, 67
3, 50672, Note_on_c, 2, 60, 67
3, 50672, Note_on_c, 2, 57, 67
3, 51728, Note_off_c, 2, 57, 0
3, 51728, Note_off_c, 2, 60, 0
3, 51728, Note_off_c, 2, 65, 0
3, 51824, Note_on_c, 2, 64, 67
3, 51824, Note_on_c, 2, 60, 67
3, 51824, Note_on_c, 2, 57, 67
3, 52976, Note_off_c, 2, 57, 0
3, 52976, Note_off_c, 2, 60, 0
3, 52976, Note_on_c, 2, 56, 67
3, 52976, Note_on_c, 2, 52, 67
3, 54032, Note_off_c, 2, 52, 0
3, 54128, Note_off_c, 2, 56, 0
3, 54128, Note_off_c, 2, 64, 0
3, 54224, Note_on_c, 2, 57, 87
3, 54224, Note_on_c, 2, 52, 87
3, 54320, Note_off_c, 2, 57, 0
3, 54320, Note_on_c, 2, 57, 87
3, 54400, Note_off_c, 2, 52, 0
3, 54416, Note_off_c, 2, 57, 0
3, 54416, Note_on_c, 2, 52, 87
3, 54512, Note_on_c, 2, 60, 87
3, 54592, Note_off_c, 2, 52, 0
3, 54608, Note_on_c, 2, 52, 87
3, 54688, Note_off_c, 2, 60, 0
3, 54704, Note_on_c, 2, 64, 87
3, 54784, Note_off_c, 2, 52, 0
3, 54800, Note_on_c, 2, 52, 87
3, 54880, Note_off_c, 2, 64, 0
3, 54896, Note_on_c, 2, 60, 87
3, 54976, Note_off_c, 2, 52, 0
3, 54992, Note_on_c, 2, 52, 87
3, 55072, Note_off_c, 2, 60, 0
3, 55088, Note_on_c, 2, 57, 87
3, 55168, Note_off_c, 2, 52, 0
3, 55264, Note_off_c, 2, 57, 0
3, 55376, Note_on_c, 2, 55, 87
3, 55376, Note_on_c, 2, 52, 87
3, 55472, Note_off_c, 2, 55, 0
3, 55472, Note_on_c, 2, 55, 87
3, 55552, Note_off_c, 2, 52, 0
3, 55568, Note_off_c, 2, 55, 0
3, 55568, Note_on_c, 2, 52, 87
3, 55664, Note_on_c, 2, 60, 87
3, 55744, Note_off_c, 2, 52, 0
3, 55760, Note_on_c, 2, 52, 87
3, 55840, Note_off_c, 2, 60, 0
3, 55856, Note_on_c, 2, 64, 87
3, 55936, Note_off_c, 2, 52, 0
3, 55952, Note_on_c, 2, 52, 87
3, 56032, Note_off_c, 2, 64, 0
3, 56048, Note_on_c, 2, 60, 87
3, 56128, Note_off_c, 2, 52, 0
3, 56144, Note_on_c, 2, 52, 87
3, 56224, Note_off_c, 2, 60, 0
3, 56240, Note_on_c, 2, 55, 87
3, 56320, Note_off_c, 2, 52, 0
3, 56320, Note_off_c, 2, 55, 0
3, 56432, Note_on_c, 2, 50, 67
3, 56528, Note_on_c, 2, 57, 87
3, 56608, Note_off_c, 2, 57, 0
3, 56624, Note_on_c, 2, 54, 89
3, 56720, Note_on_c, 2, 57, 87
3, 56800, Note_off_c, 2, 54, 0
3, 56800, Note_off_c, 2, 57, 0
3, 56816, Note_on_c, 2, 57, 89
3, 56912, Note_off_c, 2, 57, 0
3, 56912, Note_on_c, 2, 57, 87
3, 56992, Note_off_c, 2, 57, 0
3, 57008, Note_on_c, 2, 62, 89
3, 57104, Note_on_c, 2, 57, 87
3, 57184, Note_off_c, 2, 62, 0
3, 57184, Note_off_c, 2, 57, 0
3, 57200, Note_on_c, 2, 57, 89
3, 57296, Note_off_c, 2, 57, 0
3, 57296, Note_on_c, 2, 57, 87
3, 57376, Note_off_c, 2, 57, 0
3, 57392, Note_on_c, 2, 54, 89
3, 57488, Note_on_c, 2, 57, 87
3, 57568, Note_off_c, 2, 50, 0
3, 57568, Note_off_c, 2, 54, 0
3, 57568, Note_off_c, 2, 57, 0
3, 57584, Note_on_c, 2, 53, 67
3, 57680, Note_on_c, 2, 57, 87
3, 57760, Note_off_c, 2, 57, 0
3, 57776, Note_on_c, 2, 57, 89
3, 57872, Note_off_c, 2, 57, 0
3, 57872, Note_on_c, 2, 57, 87
3, 57952, Note_off_c, 2, 57, 0
3, 57968, Note_on_c, 2, 60, 89
3, 58064, Note_on_c, 2, 57, 87
3, 58144, Note_off_c, 2, 60, 0
3, 58144, Note_off_c, 2, 57, 0
3, 58160, Note_on_c, 2, 65, 89
3, 58256, Note_on_c, 2, 57, 87
3, 58336, Note_off_c, 2, 65, 0
3, 58336, Note_off_c, 2, 57, 0
3, 58352, Note_on_c, 2, 60, 89
3, 58448, Note_on_c, 2, 57, 87
3, 58528, Note_off_c, 2, 60, 0
3, 58528, Note_off_c, 2, 57, 0
3, 58544, Note_on_c, 2, 57, 89
3, 58624, Note_off_c, 2, 53, 0
3, 58640, Note_on_c, 2, 53, 87
3, 58720, Note_off_c, 2, 57, 0
3, 58720, Note_off_c, 2, 53, 0
3, 58736, Note_on_c, 2, 57, 67
3, 58832, Note_on_c, 2, 64, 67
3, 58928, Note_off_c, 2, 57, 0
3, 58928, Note_on_c, 2, 69, 67
3, 58928, Note_on_c, 2, 57, 92
3, 58992, Note_off_c, 2, 64, 0
3, 59024, Note_on_c, 2, 64, 67
3, 59088, Note_off_c, 2, 69, 0
3, 59088, Note_off_c, 2, 57, 0
3, 59120, Note_on_c, 2, 69, 67
3, 59120, Note_on_c, 2, 60, 92
3, 59184, Note_off_c, 2, 64, 0
3, 59216, Note_on_c, 2, 64, 67
3, 59280, Note_off_c, 2, 69, 0
3, 59280, Note_off_c, 2, 60, 0
3, 59312, Note_off_c, 2, 64, 0
3, 59312, Note_on_c, 2, 69, 67
3, 59312, Note_on_c, 2, 64, 92
3, 59376, Note_off_c, 2, 64, 0
3, 59408, Note_on_c, 2, 64, 67
3, 59472, Note_off_c, 2, 69, 0
3, 59472, Note_off_c, 2, 64, 0
3, 59504, Note_on_c, 2, 69, 67
3, 59504, Note_on_c, 2, 60, 92
3, 59600, Note_on_c, 2, 64, 67
3, 59664, Note_off_c, 2, 69, 0
3, 59664, Note_off_c, 2, 60, 0
3, 59696, Note_on_c, 2, 69, 67
3, 59696, Note_on_c, 2, 57, 92
3, 59760, Note_off_c, 2, 64, 0
3, 59792, Note_on_c, 2, 64, 67
3, 59856, Note_off_c, 2, 69, 0
3, 59856, Note_off_c, 2, 57, 0
3, 59888, Note_on_c, 2, 52, 67
3, 59952, Note_off_c, 2, 64, 0
3, 59984, Note_on_c, 2, 64, 67
3, 60080, Note_on_c, 2, 68, 67
3, 60080, Note_on_c, 2, 56, 92
3, 60144, Note_off_c, 2, 64, 0
3, 60176, Note_on_c, 2, 64, 67
3, 60240, Note_off_c, 2, 68, 0
3, 60240, Note_off_c, 2, 56, 0
3, 60272, Note_on_c, 2, 68, 67
3, 60272, Note_on_c, 2, 59, 92
3, 60336, Note_off_c, 2, 64, 0
3, 60368, Note_on_c, 2, 64, 67
3, 60432, Note_off_c, 2, 68, 0
3, 60432, Note_off_c, 2, 59, 0
3, 60464, Note_on_c, 2, 68, 67
3, 60464, Note_on_c, 2, 62, 92
3, 60528, Note_off_c, 2, 64, 0
3, 60560, Note_on_c, 2, 64, 67
3, 60624, Note_off_c, 2, 68, 0
3, 60624, Note_off_c, 2, 62, 0
3, 60656, Note_on_c, 2, 68, 67
3, 60656, Note_on_c, 2, 59, 92
3, 60720, Note_off_c, 2, 64, 0
3, 60752, Note_on_c, 2, 64, 67
3, 60816, Note_off_c, 2, 68, 0
3, 60816, Note_off_c, 2, 59, 0
3, 60848, Note_on_c, 2, 68, 67
3, 60848, Note_on_c, 2, 56, 92
3, 60912, Note_off_c, 2, 64, 0
3, 60944, Note_on_c, 2, 64, 67
3, 61008, Note_off_c, 2, 52, 0
3, 61008, Note_off_c, 2, 68, 0
3, 61008, Note_off_c, 2, 56, 0
3, 61040, Note_on_c, 2, 57, 67
3, 61104, Note_off_c, 2, 64, 0
3, 61136, Note_on_c, 2, 64, 67
3, 61232, Note_off_c, 2, 57, 0
3, 61232, Note_on_c, 2, 69, 67
3, 61232, Note_on_c, 2, 57, 92
3, 61296, Note_off_c, 2, 64, 0
3, 61328, Note_on_c, 2, 64, 67
3, 61392, Note_off_c, 2, 69, 0
3, 61392, Note_off_c, 2, 57, 0
3, 61424, Note_on_c, 2, 69, 67
3, 61424, Note_on_c, 2, 60, 92
3, 61488, Note_off_c, 2, 64, 0
3, 61520, Note_on_c, 2, 64, 67
3, 61584, Note_off_c, 2, 69, 0
3, 61584, Note_off_c, 2, 60, 0
3, 61616, Note_off_c, 2, 64, 0
3, 61616, Note_on_c, 2, 69, 67
3, 61616, Note_on_c, 2, 64, 92
3, 61680, Note_off_c, 2, 64, 0
3, 61712, Note_on_c, 2, 64, 67
3, 61776, Note_off_c, 2, 69, 0
3, 61776, Note_off_c, 2, 64, 0
3, 61808, Note_on_c, 2, 69, 67
3, 61808, Note_on_c, 2, 60, 92
3, 61904, Note_on_c, 2, 64, 67
3, 61968, Note_off_c, 2, 69, 0
3, 61968, Note_off_c, 2, 60, 0
3, 62000, Note_on_c, 2, 69, 67
3, 62000, Note_on_c, 2, 57, 92
3, 62064, Note_off_c, 2, 64, 0
3, 62096, Note_on_c, 2, 64, 67
3, 62160, Note_off_c, 2, 69, 0
3, 62160, Note_off_c, 2, 57, 0
3, 62192, Note_on_c, 2, 52, 67
3, 62256, Note_off_c, 2, 64, 0
3, 62288, Note_on_c, 2, 64, 67
3, 62384, Note_on_c, 2, 62, 98
3, 62384, Note_on_c, 2, 56, 92
3, 62448, Note_off_c, 2, 64, 0
3, 62560, Note_off_c, 2, 56, 0
3, 62576, Note_on_c, 2, 57, 98
3, 62752, Note_off_c, 2, 62, 0
3, 62752, Note_off_c, 2, 57, 0
3, 62768, Note_on_c, 2, 62, 98
3, 62768, Note_on_c, 2, 59, 98
3, 63232, Note_off_c, 2, 52, 0
3, 63328, Note_off_c, 2, 62, 0
3, 63328, Note_off_c, 2, 59, 0
3, 63344, Note_on_c, 2, 60, 67
3, 63344, Note_on_c, 2, 57, 67
3, 63344, Note_on_c, 2, 52, 67
3, 64496, Note_off_c, 2, 57, 0
3, 64496, Note_on_c, 2, 55, 67
3, 65648, Note_off_c, 2, 52, 0
3, 65648, Note_off_c, 2, 55, 0
3, 65648, Note_off_c, 2, 60, 0
3, 65648, Note_on_c, 2, 62, 67
3, 65648, Note_on_c, 2, 57, 67
3, 66800, Note_off_c, 2, 57, 0
3, 66800, Note_off_c, 2, 62, 0
3, 66800, Note_on_c, 2, 65, 67
3, 66800, Note_on_c, 2, 63, 67
3, 66800, Note_on_c, 2, 60, 67
3, 67952, Note_off_c, 2, 60, 0
3, 67952, Note_off_c, 2, 63, 0
3, 67952, Note_off_c, 2, 65, 0
3, 67952, Note_on_c, 2, 64, 67
3, 67952, Note_on_c, 2, 60, 67
3, 67952, Note_on_c, 2, 57, 67
3, 69104, Note_off_c, 2, 57, 0
3, 69104, Note_on_c, 2, 55, 67
3, 70256, Note_off_c, 2, 55, 0
3, 70256, Note_off_c, 2, 60, 0
3, 70256, Note_off_c, 2, 64, 0
3, 70256, Note_on_c, 2, 52, 67
3, 70448, Note_on_c, 2, 59, 73
3, 70448, Note_on_c, 2, 56, 98
3, 70624, Note_off_c, 2, 59, 0
3, 70624, Note_off_c, 2, 56, 0
3, 70640, Note_on_c, 2, 60, 73
3, 70640, Note_on_c, 2, 57, 98
3, 70784, Note_off_c, 2, 57, 0
3, 70832, Note_off_c, 2, 60, 0
3, 70832, Note_on_c, 2, 62, 73
3, 70832, Note_on_c, 2, 57, 98
3, 70848, Note_on_c, 2, 59, 98
3, 70896, Note_off_c, 2, 57, 0
3, 70928, Note_off_c, 2, 62, 0
3, 70960, Note_off_c, 2, 59, 0
3, 71008, Note_on_c, 2, 59, 98
3, 71024, Note_on_c, 2, 62, 73
3, 71392, Note_off_c, 2, 59, 0
3, 71392, Note_off_c, 2, 62, 0
3, 71392, Note_on_c, 2, 57, 98
3, 71408, Note_on_c, 2, 62, 73
3, 71408, Note_on_c, 2, 59, 98
3, 71472, Note_off_c, 2, 57, 0
3, 71520, Note_off_c, 2, 59, 0
3, 71600, Note_off_c, 2, 62, 0
3, 71600, Note_on_c, 2, 62, 73
3, 71600, Note_on_c, 2, 59, 98
3, 71984, Note_on_c, 2, 57, 98
3, 72000, Note_off_c, 2, 59, 0
3, 72080, Note_off_c, 2, 57, 0
3, 72080, Note_on_c, 2, 56, 98
3, 72152, Note_off_c, 2, 52, 0
3, 72176, Note_off_c, 2, 56, 0
3, 72176, Note_on_c, 2, 52, 98
3, 72272, Note_off_c, 2, 52, 0
3, 72368, Note_on_c, 2, 52, 98
3, 72464, Note_off_c, 2, 52, 0
3, 72560, Note_off_c, 2, 62, 0
3, 72560, Note_on_c, 2, 64, 67
3, 72560, Note_on_c, 2, 60, 67
3, 72560, Note_on_c, 2, 57, 67
3, 73616, Note_off_c, 2, 57, 0
3, 73712, Note_on_c, 2, 55, 67
3, 74832, Note_off_c, 2, 64, 0
3, 74864, Note_off_c, 2, 55, 0
3, 74864, Note_off_c, 2, 60, 0
3, 74864, Note_on_c, 2, 62, 67
3, 74864, Note_on_c, 2, 57, 67
3, 74864, Note_on_c, 2, 54, 67
3, 76016, Note_off_c, 2, 54, 0
3, 76016, Note_off_c, 2, 57, 0
3, 76016, Note_off_c, 2, 62, 0
3, 76016, Note_on_c, 2, 65, 67
3, 76016, Note_on_c, 2, 60, 67
3, 76016, Note_on_c, 2, 57, 67
3, 77072, Note_off_c, 2, 57, 0
3, 77072, Note_off_c, 2, 60, 0
3, 77072, Note_off_c, 2, 65, 0
3, 77168, Note_on_c, 2, 64, 67
3, 77168, Note_on_c, 2, 60, 67
3, 77168, Note_on_c, 2, 57, 67
3, 78320, Note_off_c, 2, 57, 0
3, 78320, Note_off_c, 2, 60, 0
3, 78320, Note_on_c, 2, 56, 67
3, 78320, Note_on_c, 2, 52, 67
3, 79376, Note_off_c, 2, 52, 0
3, 79472, Note_off_c, 2, 56, 0
3, 79472, Note_off_c, 2, 64, 0
3, 79568, Note_on_c, 2, 57, 87
3, 79568, Note_on_c, 2, 52, 87
3, 79664, Note_off_c, 2, 57, 0
3, 79664, Note_on_c, 2, 57, 87
3, 79744, Note_off_c, 2, 52, 0
3, 79760, Note_off_c, 2, 57, 0
3, 79760, Note_on_c, 2, 52, 87
3, 79856, Note_on_c, 2, 60, 87
3, 79936, Note_off_c, 2, 52, 0
3, 79952, Note_on_c, 2, 52, 87
3, 80032, Note_off_c, 2, 60, 0
3, 80048, Note_on_c, 2, 64, 87
3, 80128, Note_off_c, 2, 52, 0
3, 80144, Note_on_c, 2, 52, 87
3, 80224, Note_off_c, 2, 64, 0
3, 80240, Note_on_c, 2, 60, 87
3, 80320, Note_off_c, 2, 52, 0
3, 80336, Note_on_c, 2, 52, 87
3, 80416, Note_off_c, 2, 60, 0
3, 80432, Note_on_c, 2, 57, 87
3, 80512, Note_off_c, 2, 52, 0
3, 80608, Note_off_c, 2, 57, 0
3, 80720, Note_on_c, 2, 55, 87
3, 80720, Note_on_c, 2, 52, 87
3, 80816, Note_off_c, 2, 55, 0
3, 80816, Note_on_c, 2, 55, 87
3, 80896, Note_off_c, 2, 52, 0
3, 80912, Note_off_c, 2, 55, 0
3, 80912, Note_on_c, 2, 52, 87
3, 81008, Note_on_c, 2, 60, 87
3, 81088, Note_off_c, 2, 52, 0
3, 81104, Note_on_c, 2, 52, 87
3, 81184, Note_off_c, 2, 60, 0
3, 81200, Note_on_c, 2, 64, 87
3, 81280, Note_off_c, 2, 52, 0
3, 81296, Note_on_c, 2, 52, 87
3, 81376, Note_off_c, 2, 64, 0
3, 81392, Note_on_c, 2, 60, 87
3, 81472, Note_off_c, 2, 52, 0
3, 81488, Note_on_c, 2, 52, 87
3, 81568, Note_off_c, 2, 60, 0
3, 81584, Note_on_c, 2, 55, 87
3, 81664, Note_off_c, 2, 52, 0
3, 81664, Note_off_c, 2, 55, 0
3, 81776, Note_on_c, 2, 50, 67
3, 81872, Note_on_c, 2, 57, 87
3, 81952, Note_off_c, 2, 57, 0
3, 81968, Note_on_c, 2, 54, 89
3, 82064, Note_on_c, 2, 57, 87
3, 82144, Note_off_c, 2, 54, 0
3, 82144, Note_off_c, 2, 57, 0
3, 82160, Note_on_c, 2, 57, 89
3, 82256, Note_off_c, 2, 57, 0
3, 82256, Note_on_c, 2, 57, 87
3, 82336, Note_off_c, 2, 57, 0
3, 82352, Note_on_c, 2, 62, 89
3, 82448, Note_on_c, 2, 57, 87
3, 82528, Note_off_c, 2, 62, 0
3, 82528, Note_off_c, 2, 57, 0
3, 82544, Note_on_c, 2, 57, 89
3, 82640, Note_off_c, 2, 57, 0
3, 82640, Note_on_c, 2, 57, 87
3, 82720, Note_off_c, 2, 57, 0
3, 82736, Note_on_c, 2, 54, 89
3, 82832, Note_on_c, 2, 57, 87
3, 82912, Note_off_c, 2, 50, 0
3, 82912, Note_off_c, 2, 54, 0
3, 82912, Note_off_c, 2, 57, 0
3, 82928, Note_on_c, 2, 53, 67
3, 83024, Note_on_c, 2, 57, 87
3, 83104, Note_off_c, 2, 57, 0
3, 83120, Note_on_c, 2, 57, 89
3, 83216, Note_off_c, 2, 57, 0
3, 83216, Note_on_c, 2, 57, 87
3, 83296, Note_off_c, 2, 57, 0
3, 83312, Note_on_c, 2, 60, 89
3, 83408, Note_on_c, 2, 57, 87
3, 83488, Note_off_c, 2, 60, 0
3, 83488, Note_off_c, 2, 57, 0
3, 83504, Note_on_c, 2, 65, 89
3, 83600, Note_on_c, 2, 57, 87
3, 83680, Note_off_c, 2, 65, 0
3, 83680, Note_off_c, 2, 57, 0
3, 83696, Note_on_c, 2, 60, 89
3, 83792, Note_on_c, 2, 57, 87
3, 83872, Note_off_c, 2, 60, 0
3, 83872, Note_off_c, 2, 57, 0
3, 83888, Note_on_c, 2, 57, 89
3, 83968, Note_off_c, 2, 53, 0
3, 83984, Note_on_c, 2, 53, 87
3, 84064, Note_off_c, 2, 57, 0
3, 84064, Note_off_c, 2, 53, 0
3, 84080, Note_on_c, 2, 57, 67
3, 84176, Note_on_c, 2, 64, 67
3, 84272, Note_off_c, 2, 57, 0
3, 84272, Note_on_c, 2, 69, 67
3, 84272, Note_on_c, 2, 57, 92
3, 84336, Note_off_c, 2, 64, 0
3, 84368, Note_on_c, 2, 64, 67
3, 84432, Note_off_c, 2, 69, 0
3, 84432, Note_off_c, 2, 57, 0
3, 84464, Note_on_c, 2, 69, 67
3, 84464, Note_on_c, 2, 60, 92
3, 84528, Note_off_c, 2, 64, 0
3, 84560, Note_on_c, 2, 64, 67
3, 84624, Note_off_c, 2, 69, 0
3, 84624, Note_off_c, 2, 60, 0
3, 84656, Note_off_c, 2, 64, 0
3, 84656, Note_on_c, 2, 69, 67
3, 84656, Note_on_c, 2, 64, 92
3, 84720, Note_off_c, 2, 64, 0
3, 84752, Note_on_c, 2, 64, 67
3, 84816, Note_off_c, 2, 69, 0
3, 84816, Note_off_c, 2, 64, 0
3, 84848, Note_on_c, 2, 69, 67
3, 84848, Note_on_c, 2, 60, 92
3, 84944, Note_on_c, 2, 64, 67
3, 85008, Note_off_c, 2, 69, 0
3, 85008, Note_off_c, 2, 60, 0
3, 85040, Note_on_c, 2, 69, 67
3, 85040, Note_on_c, 2, 57, 92
3, 85104, Note_off_c, 2, 64, 0
3, 85136, Note_on_c, 2, 64, 67
3, 85200, Note_off_c, 2, 69, 0
3, 85200, Note_off_c, 2, 57, 0
3, 85232, Note_on_c, 2, 52, 67
3, 85296, Note_off_c, 2, 64, 0
3, 85328, Note_on_c, 2, 64, 67
3, 85424, Note_on_c, 2, 62, 98
3, 85424, Note_on_c, 2, 56, 92
3, 85488, Note_off_c, 2, 64, 0
3, 85600, Note_off_c, 2, 56, 0
3, 85616, Note_on_c, 2, 57, 98
3, 85792, Note_off_c, 2, 62, 0
3, 85792, Note_off_c, 2, 57, 0
3, 85808, Note_on_c, 2, 62, 98
3, 85808, Note_on_c, 2, 59, 98
3, 86272, Note_off_c, 2, 52, 0
3, 86368, Note_off_c, 2, 62, 0
3, 86368, Note_off_c, 2, 59, 0
3, 86384, Note_on_c, 2, 57, 67
3, 86576, Note_off_c, 2, 57, 0
3, 86576, Note_on_c, 2, 69, 67
3, 86576, Note_on_c, 2, 57, 98
3, 86752, Note_off_c, 2, 69, 0
3, 86752, Note_off_c, 2, 57, 0
3, 86768, Note_on_c, 2, 69, 67
3, 86768, Note_on_c, 2, 60, 98
3, 86944, Note_off_c, 2, 69, 0
3, 86944, Note_off_c, 2, 60, 0
3, 86960, Note_on_c, 2, 69, 67
3, 86960, Note_on_c, 2, 64, 98
3, 87424, Note_off_c, 2, 64, 0
3, 87520, Note_off_c, 2, 69, 0
3, 87520, Note_on_c, 2, 62, 122
3, 87536, Note_on_c, 2, 56, 91
3, 87552, Note_on_c, 2, 64, 122
3, 87568, Note_off_c, 2, 62, 0
3, 87680, Note_off_c, 2, 64, 0
3, 87728, Note_on_c, 2, 64, 122
3, 87728, Note_on_c, 2, 62, 122
3, 87744, Note_off_c, 2, 62, 0
3, 88200, Note_off_c, 2, 64, 0
3, 88208, Note_on_c, 2, 64, 127
3, 88272, Note_on_c, 2, 69, 127
3, 88288, Note_off_c, 2, 64, 0
3, 88400, Note_on_c, 2, 64, 127
3, 88432, Note_off_c, 2, 69, 0
3, 88480, Note_on_c, 2, 71, 127
3, 88544, Note_off_c, 2, 64, 0
3, 88576, Note_on_c, 2, 64, 127
3, 88624, Note_off_c, 2, 71, 0
3, 88672, Note_off_c, 2, 56, 0
3, 88688, Note_off_c, 2, 64, 0
3, 88688, Note_on_c, 2, 72, 125
3, 89640, Note_off_c, 2, 72, 0
3, 89648, Note_on_c, 2, 74, 125
3, 89664, Note_on_c, 2, 76, 125
3, 89712, Note_off_c, 2, 74, 0
3, 89816, Note_off_c, 2, 76, 0
3, 89824, Note_on_c, 2, 74, 125
3, 89840, Note_on_c, 2, 76, 125
3, 89904, Note_off_c, 2, 74, 0
3, 90584, Note_off_c, 2, 76, 0
3, 90592, Note_on_c, 2, 74, 125
3, 90608, Note_on_c, 2, 76, 125
3, 90640, Note_off_c, 2, 74, 0
3, 90752, Note_off_c, 2, 76, 0
3, 90784, Note_on_c, 2, 76, 125
3, 90784, Note_on_c, 2, 74, 125
3, 90832, Note_off_c, 2, 74, 0
3, 90984, Note_off_c, 2, 76, 0
3, 90992, Note_on_c, 2, 74, 125
3, 91056, Note_off_c, 2, 74, 0
3, 91056, Note_on_c, 2, 72, 125
3, 91136, Note_on_c, 2, 69, 125
3, 91168, Note_off_c, 2, 72, 0
3, 91728, Note_off_c, 2, 69, 0
3, 91760, Note_on_c, 2, 69, 125
3, 91952, Note_off_c, 2, 69, 0
3, 91952, Note_on_c, 2, 67, 125
3, 92144, Note_off_c, 2, 67, 0
3, 92144, Note_on_c, 2, 69, 125
3, 92784, Note_off_c, 2, 69, 0
3, 92912, Note_on_c, 2, 79, 125
3, 92928, Note_on_c, 2, 81, 125
3, 92944, Note_off_c, 2, 79, 0
3, 93080, Note_off_c, 2, 81, 0
3, 93088, Note_on_c, 2, 79, 125
3, 93104, Note_on_c, 2, 81, 125
3, 93152, Note_off_c, 2, 79, 0
3, 93280, Note_off_c, 2, 81, 0
3, 93296, Note_on_c, 2, 79, 125
3, 93312, Note_on_c, 2, 81, 125
3, 93328, Note_off_c, 2, 79, 0
3, 94040, Note_off_c, 2, 81, 0
3, 94080, Note_on_c, 2, 81, 125
3, 94232, Note_off_c, 2, 81, 0
3, 94272, Note_on_c, 2, 81, 125
3, 94416, Note_off_c, 2, 81, 0
3, 94448, Note_on_c, 2, 81, 125
3, 94512, Note_off_c, 2, 81, 0
3, 94512, Note_on_c, 2, 79, 125
3, 95216, Note_off_c, 2, 79, 0
3, 95216, Note_on_c, 2, 76, 125
3, 95408, Note_on_c, 2, 74, 125
3, 95424, Note_off_c, 2, 76, 0
3, 95600, Note_off_c, 2, 74, 0
3, 95600, Note_on_c, 2, 75, 125
3, 95648, Note_off_c, 2, 75, 0
3, 95648, Note_on_c, 2, 76, 125
3, 95696, Note_off_c, 2, 76, 0
3, 95696, Note_on_c, 2, 79, 125
3, 95792, Note_off_c, 2, 79, 0
3, 95792, Note_on_c, 2, 75, 125
3, 95840, Note_off_c, 2, 75, 0
3, 95840, Note_on_c, 2, 76, 125
3, 95888, Note_off_c, 2, 76, 0
3, 95888, Note_on_c, 2, 79, 125
3, 95984, Note_off_c, 2, 79, 0
3, 95984, Note_on_c, 2, 75, 125
3, 96032, Note_off_c, 2, 75, 0
3, 96032, Note_on_c, 2, 76, 125
3, 96080, Note_off_c, 2, 76, 0
3, 96080, Note_on_c, 2, 79, 125
3, 96176, Note_off_c, 2, 79, 0
3, 96176, Note_on_c, 2, 75, 125
3, 96224, Note_off_c, 2, 75, 0
3, 96224, Note_on_c, 2, 76, 125
3, 96272, Note_off_c, 2, 76, 0
3, 96272, Note_on_c, 2, 79, 125
3, 96368, Note_off_c, 2, 79, 0
3, 96368, Note_on_c, 2, 75, 125
3, 96416, Note_off_c, 2, 75, 0
3, 96416, Note_on_c, 2, 76, 125
3, 96464, Note_off_c, 2, 76, 0
3, 96464, Note_on_c, 2, 79, 125
3, 96560, Note_off_c, 2, 79, 0
3, 96560, Note_on_c, 2, 75, 125
3, 96608, Note_off_c, 2, 75, 0
3, 96608, Note_on_c, 2, 76, 125
3, 96656, Note_off_c, 2, 76, 0
3, 96656, Note_on_c, 2, 79, 125
3, 96752, Note_off_c, 2, 79, 0
3, 96752, Note_on_c, 2, 75, 125
3, 96800, Note_off_c, 2, 75, 0
3, 96800, Note_on_c, 2, 76, 125
3, 96848, Note_off_c, 2, 76, 0
3, 96848, Note_on_c, 2, 79, 125
3, 96944, Note_off_c, 2, 79, 0
3, 96944, Note_on_c, 2, 75, 125
3, 96992, Note_off_c, 2, 75, 0
3, 96992, Note_on_c, 2, 76, 125
3, 97040, Note_off_c, 2, 76, 0
3, 97040, Note_on_c, 2, 79, 125
3, 97136, Note_off_c, 2, 79, 0
3, 97136, Note_on_c, 2, 75, 125
3, 97184, Note_off_c, 2, 75, 0
3, 97184, Note_on_c, 2, 76, 125
3, 97232, Note_off_c, 2, 76, 0
3, 97232, Note_on_c, 2, 79, 125
3, 97328, Note_off_c, 2, 79, 0
3, 97344, Note_on_c, 2, 74, 125
3, 97440, Note_on_c, 2, 72, 125
3, 97456, Note_off_c, 2, 74, 0
3, 97504, Note_off_c, 2, 72, 0
3, 97504, Note_on_c, 2, 69, 125
3, 98656, Note_off_c, 2, 69, 0
3, 98672, Note_on_c, 2, 74, 125
3, 98704, Note_on_c, 2, 76, 125
3, 98736, Note_off_c, 2, 74, 0
3, 98848, Note_off_c, 2, 76, 0
3, 98864, Note_on_c, 2, 74, 125
3, 98880, Note_on_c, 2, 76, 125
3, 98944, Note_off_c, 2, 74, 0
3, 99056, Note_off_c, 2, 76, 0
3, 99072, Note_on_c, 2, 74, 125
3, 99088, Note_on_c, 2, 76, 125
3, 99104, Note_off_c, 2, 74, 0
3, 99824, Note_off_c, 2, 76, 0
3, 99824, Note_on_c, 2, 74, 125
3, 99840, Note_on_c, 2, 76, 125
3, 99888, Note_off_c, 2, 74, 0
3, 100008, Note_off_c, 2, 76, 0
3, 100032, Note_on_c, 2, 74, 125
3, 100048, Note_on_c, 2, 76, 125
3, 100064, Note_off_c, 2, 74, 0
3, 100224, Note_off_c, 2, 76, 0
3, 100224, Note_on_c, 2, 74, 125
3, 100288, Note_on_c, 2, 72, 125
3, 100304, Note_off_c, 2, 74, 0
3, 100368, Note_on_c, 2, 69, 125
3, 100384, Note_off_c, 2, 72, 0
3, 100992, Note_off_c, 2, 69, 0
3, 100992, Note_on_c, 2, 69, 125
3, 101008, Note_off_c, 2, 69, 0
3, 101024, Note_on_c, 2, 71, 125
3, 101088, Note_on_c, 2, 69, 125
3, 101120, Note_off_c, 2, 71, 0
3, 101136, Note_on_c, 2, 67, 125
3, 101152, Note_off_c, 2, 69, 0
3, 101376, Note_off_c, 2, 67, 0
3, 101376, Note_on_c, 2, 69, 125
3, 102120, Note_off_c, 2, 69, 0
3, 102144, Note_on_c, 2, 64, 125
3, 102240, Note_off_c, 2, 64, 0
3, 102240, Note_on_c, 2, 62, 125
3, 102304, Note_on_c, 2, 60, 125
3, 102320, Note_off_c, 2, 62, 0
3, 102512, Note_off_c, 2, 60, 0
3, 102512, Note_on_c, 2, 57, 125
3, 103088, Note_off_c, 2, 57, 0
3, 103088, Note_on_c, 2, 57, 125
3, 103104, Note_off_c, 2, 57, 0
3, 103184, Note_on_c, 2, 57, 125
3, 103264, Note_off_c, 2, 57, 0
3, 103264, Note_on_c, 2, 60, 125
3, 103376, Note_off_c, 2, 60, 0
3, 103376, Note_on_c, 2, 57, 125
3, 103456, Note_off_c, 2, 57, 0
3, 103472, Note_on_c, 2, 62, 125
3, 103552, Note_on_c, 2, 57, 125
3, 103568, Note_off_c, 2, 62, 0
3, 103616, Note_off_c, 2, 57, 0
3, 103664, Note_on_c, 2, 63, 125
3, 103680, Note_off_c, 2, 63, 0
3, 103680, Note_on_c, 2, 64, 125
3, 103856, Note_off_c, 2, 64, 0
3, 103856, Note_on_c, 2, 59, 125
3, 104032, Note_off_c, 2, 59, 0
3, 104032, Note_on_c, 2, 64, 125
3, 104208, Note_off_c, 2, 64, 0
3, 104224, Note_on_c, 2, 59, 125
3, 104320, Note_on_c, 2, 58, 125
3, 104336, Note_off_c, 2, 59, 0
3, 104416, Note_on_c, 2, 57, 125
3, 104432, Note_off_c, 2, 58, 0
3, 104544, Note_off_c, 2, 57, 0
3, 104544, Note_on_c, 2, 55, 125
3, 104640, Note_on_c, 2, 52, 125
3, 104656, Note_off_c, 2, 55, 0
3, 104752, Note_off_c, 2, 52, 0
3, 104912, Note_on_c, 2, 57, 97
3, 104912, Note_on_c, 2, 52, 97
3, 105008, Note_off_c, 2, 57, 0
3, 105008, Note_on_c, 2, 57, 97
3, 105088, Note_off_c, 2, 52, 0
3, 105104, Note_off_c, 2, 57, 0
3, 105104, Note_on_c, 2, 52, 97
3, 105200, Note_on_c, 2, 60, 97
3, 105280, Note_off_c, 2, 52, 0
3, 105296, Note_on_c, 2, 52, 97
3, 105376, Note_off_c, 2, 60, 0
3, 105392, Note_on_c, 2, 64, 97
3, 105472, Note_off_c, 2, 52, 0
3, 105488, Note_on_c, 2, 52, 97
3, 105568, Note_off_c, 2, 64, 0
3, 105584, Note_on_c, 2, 60, 97
3, 105664, Note_off_c, 2, 52, 0
3, 105680, Note_on_c, 2, 52, 97
3, 105760, Note_off_c, 2, 60, 0
3, 105776, Note_on_c, 2, 57, 97
3, 105856, Note_off_c, 2, 52, 0
3, 105952, Note_off_c, 2, 57, 0
3, 106064, Note_on_c, 2, 55, 97
3, 106064, Note_on_c, 2, 52, 97
3, 106160, Note_off_c, 2, 55, 0
3, 106160, Note_on_c, 2, 55, 97
3, 106240, Note_off_c, 2, 52, 0
3, 106256, Note_off_c, 2, 55, 0
3, 106256, Note_on_c, 2, 52, 97
3, 106352, Note_on_c, 2, 60, 97
3, 106432, Note_off_c, 2, 52, 0
3, 106448, Note_on_c, 2, 52, 97
3, 106528, Note_off_c, 2, 60, 0
3, 106544, Note_on_c, 2, 64, 97
3, 106624, Note_off_c, 2, 52, 0
3, 106640, Note_on_c, 2, 52, 97
3, 106720, Note_off_c, 2, 64, 0
3, 106736, Note_on_c, 2, 60, 97
3, 106816, Note_off_c, 2, 52, 0
3, 106832, Note_on_c, 2, 52, 97
3, 106912, Note_off_c, 2, 60, 0
3, 106928, Note_on_c, 2, 55, 97
3, 107008, Note_off_c, 2, 52, 0
3, 107008, Note_off_c, 2, 55, 0
3, 107120, Note_on_c, 2, 50, 77
3, 107216, Note_on_c, 2, 57, 97
3, 107296, Note_off_c, 2, 57, 0
3, 107312, Note_on_c, 2, 54, 99
3, 107408, Note_on_c, 2, 57, 97
3, 107488, Note_off_c, 2, 54, 0
3, 107488, Note_off_c, 2, 57, 0
3, 107504, Note_on_c, 2, 57, 99
3, 107600, Note_off_c, 2, 57, 0
3, 107600, Note_on_c, 2, 57, 97
3, 107680, Note_off_c, 2, 57, 0
3, 107696, Note_on_c, 2, 62, 99
3, 107792, Note_on_c, 2, 57, 97
3, 107872, Note_off_c, 2, 62, 0
3, 107872, Note_off_c, 2, 57, 0
3, 107888, Note_on_c, 2, 57, 99
3, 107984, Note_off_c, 2, 57, 0
3, 107984, Note_on_c, 2, 57, 97
3, 108064, Note_off_c, 2, 57, 0
3, 108080, Note_on_c, 2, 54, 99
3, 108176, Note_on_c, 2, 57, 97
3, 108256, Note_off_c, 2, 50, 0
3, 108256, Note_off_c, 2, 54, 0
3, 108256, Note_off_c, 2, 57, 0
3, 108272, Note_on_c, 2, 53, 77
3, 108368, Note_on_c, 2, 57, 97
3, 108448, Note_off_c, 2, 57, 0
3, 108464, Note_on_c, 2, 57, 99
3, 108560, Note_off_c, 2, 57, 0
3, 108560, Note_on_c, 2, 57, 97
3, 108640, Note_off_c, 2, 57, 0
3, 108656, Note_on_c, 2, 60, 99
3, 108752, Note_on_c, 2, 57, 97
3, 108832, Note_off_c, 2, 60, 0
3, 108832, Note_off_c, 2, 57, 0
3, 108864, Note_on_c, 2, 65, 99
3, 108944, Note_on_c, 2, 57, 97
3, 109024, Note_off_c, 2, 65, 0
3, 109024, Note_off_c, 2, 57, 0
3, 109040, Note_on_c, 2, 60, 99
3, 109136, Note_on_c, 2, 57, 97
3, 109216, Note_off_c, 2, 60, 0
3, 109216, Note_off_c, 2, 57, 0
3, 109232, Note_on_c, 2, 57, 99
3, 109312, Note_off_c, 2, 53, 0
3, 109328, Note_on_c, 2, 53, 97
3, 109408, Note_off_c, 2, 57, 0
3, 109408, Note_off_c, 2, 53, 0
3, 109424, Note_on_c, 2, 57, 77
3, 109520, Note_on_c, 2, 64, 77
3, 109616, Note_off_c, 2, 57, 0
3, 109616, Note_on_c, 2, 69, 77
3, 109616, Note_on_c, 2, 57, 102
3, 109680, Note_off_c, 2, 64, 0
3, 109712, Note_on_c, 2, 64, 77
3, 109776, Note_off_c, 2, 69, 0
3, 109776, Note_off_c, 2, 57, 0
3, 109808, Note_on_c, 2, 69, 77
3, 109808, Note_on_c, 2, 60, 102
3, 109872, Note_off_c, 2, 64, 0
3, 109904, Note_on_c, 2, 64, 77
3, 109968, Note_off_c, 2, 69, 0
3, 109968, Note_off_c, 2, 60, 0
3, 110000, Note_off_c, 2, 64, 0
3, 110000, Note_on_c, 2, 69, 77
3, 110000, Note_on_c, 2, 64, 102
3, 110064, Note_off_c, 2, 64, 0
3, 110096, Note_on_c, 2, 64, 77
3, 110160, Note_off_c, 2, 69, 0
3, 110160, Note_off_c, 2, 64, 0
3, 110192, Note_on_c, 2, 69, 77
3, 110192, Note_on_c, 2, 60, 102
3, 110288, Note_on_c, 2, 64, 77
3, 110352, Note_off_c, 2, 69, 0
3, 110352, Note_off_c, 2, 60, 0
3, 110384, Note_on_c, 2, 69, 77
3, 110384, Note_on_c, 2, 57, 102
3, 110448, Note_off_c, 2, 64, 0
3, 110480, Note_on_c, 2, 64, 77
3, 110544, Note_off_c, 2, 69, 0
3, 110544, Note_off_c, 2, 57, 0
3, 110576, Note_on_c, 2, 52, 77
3, 110640, Note_off_c, 2, 64, 0
3, 110672, Note_on_c, 2, 64, 77
3, 110768, Note_on_c, 2, 62, 108
3, 110768, Note_on_c, 2, 56, 102
3, 110832, Note_off_c, 2, 64, 0
3, 110944, Note_off_c, 2, 56, 0
3, 110960, Note_on_c, 2, 57, 108
3, 111136, Note_off_c, 2, 62, 0
3, 111136, Note_off_c, 2, 57, 0
3, 111152, Note_on_c, 2, 62, 108
3, 111152, Note_on_c, 2, 59, 108
3, 111616, Note_off_c, 2, 52, 0
3, 111712, Note_off_c, 2, 62, 0
3, 111712, Note_off_c, 2, 59, 0
3, 111728, Note_on_c, 2, 64, 102
3, 113936, Note_off_c, 2, 64, 0
3, 114032, Note_on_c, 2, 60, 77
3, 114032, Note_on_c, 2, 57, 77
3, 114032, Note_on_c, 2, 52, 77
3, 115184, Note_off_c, 2, 57, 0
3, 115184, Note_on_c, 2, 55, 77
3, 116336, Note_off_c, 2, 52, 0
3, 116336, Note_off_c, 2, 55, 0
3, 116336, Note_off_c, 2, 60, 0
3, 116336, Note_on_c, 2, 62, 77
3, 116336, Note_on_c, 2, 57, 77
3, 117488, Note_off_c, 2, 57, 0
3, 117488, Note_off_c, 2, 62, 0
3, 117488, Note_on_c, 2, 65, 77
3, 117488, Note_on_c, 2, 63, 66
3, 117488, Note_on_c, 2, 60, 77
3, 118640, Note_off_c, 2, 60, 0
3, 118640, Note_off_c, 2, 63, 0
3, 118640, Note_off_c, 2, 65, 0
3, 118640, Note_on_c, 2, 64, 77
3, 118640, Note_on_c, 2, 60, 77
3, 118640, Note_on_c, 2, 57, 77
3, 119792, Note_off_c, 2, 57, 0
3, 119792, Note_on_c, 2, 55, 77
3, 120944, Note_off_c, 2, 55, 0
3, 120944, Note_off_c, 2, 60, 0
3, 120944, Note_off_c, 2, 64, 0
3, 120944, Note_on_c, 2, 52, 77
3, 121136, Note_on_c, 2, 59, 83
3, 121136, Note_on_c, 2, 56, 108
3, 121312, Note_off_c, 2, 59, 0
3, 121312, Note_off_c, 2, 56, 0
3, 121328, Note_on_c, 2, 60, 83
3, 121328, Note_on_c, 2, 57, 108
3, 121472, Note_off_c, 2, 57, 0
3, 121520, Note_off_c, 2, 60, 0
3, 121520, Note_on_c, 2, 62, 83
3, 121520, Note_on_c, 2, 57, 108
3, 121536, Note_on_c, 2, 59, 108
3, 121584, Note_off_c, 2, 57, 0
3, 121616, Note_off_c, 2, 62, 0
3, 121648, Note_off_c, 2, 59, 0
3, 121696, Note_on_c, 2, 59, 108
3, 121712, Note_on_c, 2, 62, 83
3, 122080, Note_off_c, 2, 59, 0
3, 122080, Note_off_c, 2, 62, 0
3, 122080, Note_on_c, 2, 57, 108
3, 122096, Note_on_c, 2, 62, 83
3, 122096, Note_on_c, 2, 59, 108
3, 122160, Note_off_c, 2, 57, 0
3, 122208, Note_off_c, 2, 59, 0
3, 122288, Note_off_c, 2, 62, 0
3, 122288, Note_on_c, 2, 62, 83
3, 122288, Note_on_c, 2, 59, 108
3, 122672, Note_on_c, 2, 57, 108
3, 122688, Note_off_c, 2, 59, 0
3, 122768, Note_off_c, 2, 57, 0
3, 122768, Note_on_c, 2, 56, 108
3, 122848, Note_off_c, 2, 52, 0
3, 122864, Note_off_c, 2, 56, 0
3, 122864, Note_on_c, 2, 52, 108
3, 122960, Note_off_c, 2, 52, 0
3, 123056, Note_on_c, 2, 52, 108
3, 123152, Note_off_c, 2, 52, 0
3, 123248, Note_off_c, 2, 62, 0
3, 123248, Note_on_c, 2, 64, 77
3, 123248, Note_on_c, 2, 60, 77
3, 123248, Note_on_c, 2, 57, 77
3, 124304, Note_off_c, 2, 57, 0
3, 124400, Note_on_c, 2, 55, 77
3, 125456, Note_off_c, 2, 64, 0
3, 125552, Note_off_c, 2, 55, 0
3, 125552, Note_off_c, 2, 60, 0
3, 125552, Note_on_c, 2, 62, 77
3, 125552, Note_on_c, 2, 57, 77
3, 125552, Note_on_c, 2, 54, 77
3, 126704, Note_off_c, 2, 54, 0
3, 126704, Note_off_c, 2, 57, 0
3, 126704, Note_off_c, 2, 62, 0
3, 126704, Note_on_c, 2, 65, 77
3, 126704, Note_on_c, 2, 60, 77
3, 126704, Note_on_c, 2, 57, 77
3, 127760, Note_off_c, 2, 57, 0
3, 127760, Note_off_c, 2, 60, 0
3, 127856, Note_off_c, 2, 65, 0
3, 127856, Note_on_c, 2, 64, 77
3, 127856, Note_on_c, 2, 60, 77
3, 127856, Note_on_c, 2, 57, 77
3, 129008, Note_off_c, 2, 57, 0
3, 129008, Note_off_c, 2, 60, 0
3, 129008, Note_on_c, 2, 56, 77
3, 129008, Note_on_c, 2, 52, 77
3, 130064, Note_off_c, 2, 52, 0
3, 130160, Note_off_c, 2, 56, 0
3, 130160, Note_off_c, 2, 64, 0
3, 130256, Note_on_c, 2, 57, 97
3, 130256, Note_on_c, 2, 52, 97
3, 130352, Note_off_c, 2, 57, 0
3, 130352, Note_on_c, 2, 57, 97
3, 130432, Note_off_c, 2, 52, 0
3, 130448, Note_off_c, 2, 57, 0
3, 130448, Note_on_c, 2, 52, 97
3, 130544, Note_on_c, 2, 60, 97
3, 130624, Note_off_c, 2, 52, 0
3, 130640, Note_on_c, 2, 52, 97
3, 130720, Note_off_c, 2, 60, 0
3, 130736, Note_on_c, 2, 64, 97
3, 130816, Note_off_c, 2, 52, 0
3, 130832, Note_on_c, 2, 52, 97
3, 130912, Note_off_c, 2, 64, 0
3, 130928, Note_on_c, 2, 60, 97
3, 131008, Note_off_c, 2, 52, 0
3, 131024, Note_on_c, 2, 52, 97
3, 131104, Note_off_c, 2, 60, 0
3, 131120, Note_on_c, 2, 57, 97
3, 131200, Note_off_c, 2, 52, 0
3, 131296, Note_off_c, 2, 57, 0
3, 131408, Note_on_c, 2, 55, 97
3, 131408, Note_on_c, 2, 52, 97
3, 131504, Note_off_c, 2, 55, 0
3, 131504, Note_on_c, 2, 55, 97
3, 131584, Note_off_c, 2, 52, 0
3, 131600, Note_off_c, 2, 55, 0
3, 131600, Note_on_c, 2, 52, 97
3, 131696, Note_on_c, 2, 60, 97
3, 131776, Note_off_c, 2, 52, 0
3, 131792, Note_on_c, 2, 52, 97
3, 131872, Note_off_c, 2, 60, 0
3, 131888, Note_on_c, 2, 64, 97
3, 131968, Note_off_c, 2, 52, 0
3, 131984, Note_on_c, 2, 52, 97
3, 132064, Note_off_c, 2, 64, 0
3, 132080, Note_on_c, 2, 60, 97
3, 132160, Note_off_c, 2, 52, 0
3, 132176, Note_on_c, 2, 52, 97
3, 132256, Note_off_c, 2, 60, 0
3, 132272, Note_on_c, 2, 55, 97
3, 132352, Note_off_c, 2, 52, 0
3, 132352, Note_off_c, 2, 55, 0
3, 132464, Note_on_c, 2, 50, 77
3, 132560, Note_on_c, 2, 57, 97
3, 132640, Note_off_c, 2, 57, 0
3, 132656, Note_on_c, 2, 54, 99
3, 132752, Note_on_c, 2, 57, 97
3, 132832, Note_off_c, 2, 54, 0
3, 132832, Note_off_c, 2, 57, 0
3, 132848, Note_on_c, 2, 57, 99
3, 132944, Note_off_c, 2, 57, 0
3, 132944, Note_on_c, 2, 57, 97
3, 133024, Note_off_c, 2, 57, 0
3, 133040, Note_on_c, 2, 62, 99
3, 133136, Note_on_c, 2, 57, 97
3, 133216, Note_off_c, 2, 62, 0
3, 133216, Note_off_c, 2, 57, 0
3, 133232, Note_on_c, 2, 57, 99
3, 133328, Note_off_c, 2, 57, 0
3, 133328, Note_on_c, 2, 57, 97
3, 133408, Note_off_c, 2, 57, 0
3, 133424, Note_on_c, 2, 54, 99
3, 133520, Note_on_c, 2, 57, 97
3, 133600, Note_off_c, 2, 50, 0
3, 133600, Note_off_c, 2, 54, 0
3, 133600, Note_off_c, 2, 57, 0
3, 133616, Note_on_c, 2, 53, 77
3, 133712, Note_on_c, 2, 57, 97
3, 133792, Note_off_c, 2, 57, 0
3, 133808, Note_on_c, 2, 57, 99
3, 133904, Note_off_c, 2, 57, 0
3, 133904, Note_on_c, 2, 57, 97
3, 133984, Note_off_c, 2, 57, 0
3, 134000, Note_on_c, 2, 60, 99
3, 134096, Note_on_c, 2, 57, 97
3, 134176, Note_off_c, 2, 60, 0
3, 134176, Note_off_c, 2, 57, 0
3, 134192, Note_on_c, 2, 65, 99
3, 134288, Note_on_c, 2, 57, 97
3, 134368, Note_off_c, 2, 65, 0
3, 134368, Note_off_c, 2, 57, 0
3, 134384, Note_on_c, 2, 60, 99
3, 134480, Note_on_c, 2, 57, 97
3, 134560, Note_off_c, 2, 60, 0
3, 134560, Note_off_c, 2, 57, 0
3, 134576, Note_on_c, 2, 57, 99
3, 134656, Note_off_c, 2, 53, 0
3, 134672, Note_on_c, 2, 53, 97
3, 134752, Note_off_c, 2, 57, 0
3, 134752, Note_off_c, 2, 53, 0
3, 134768, Note_on_c, 2, 57, 77
3, 134864, Note_on_c, 2, 64, 77
3, 134960, Note_off_c, 2, 57, 0
3, 134960, Note_on_c, 2, 69, 77
3, 134960, Note_on_c, 2, 57, 102
3, 135024, Note_off_c, 2, 64, 0
3, 135056, Note_on_c, 2, 64, 77
3, 135120, Note_off_c, 2, 69, 0
3, 135120, Note_off_c, 2, 57, 0
3, 135152, Note_on_c, 2, 69, 77
3, 135152, Note_on_c, 2, 60, 102
3, 135216, Note_off_c, 2, 64, 0
3, 135248, Note_on_c, 2, 64, 77
3, 135312, Note_off_c, 2, 69, 0
3, 135312, Note_off_c, 2, 60, 0
3, 135344, Note_off_c, 2, 64, 0
3, 135344, Note_on_c, 2, 69, 77
3, 135344, Note_on_c, 2, 64, 102
3, 135408, Note_off_c, 2, 64, 0
3, 135440, Note_on_c, 2, 64, 77
3, 135504, Note_off_c, 2, 69, 0
3, 135504, Note_off_c, 2, 64, 0
3, 135536, Note_on_c, 2, 69, 77
3, 135536, Note_on_c, 2, 60, 102
3, 135632, Note_on_c, 2, 64, 77
3, 135696, Note_off_c, 2, 69, 0
3, 135696, Note_off_c, 2, 60, 0
3, 135728, Note_on_c, 2, 69, 77
3, 135728, Note_on_c, 2, 57, 102
3, 135792, Note_off_c, 2, 64, 0
3, 135824, Note_on_c, 2, 64, 77
3, 135888, Note_off_c, 2, 69, 0
3, 135888, Note_off_c, 2, 57, 0
3, 135920, Note_on_c, 2, 52, 77
3, 135984, Note_off_c, 2, 64, 0
3, 136016, Note_on_c, 2, 64, 77
3, 136112, Note_on_c, 2, 62, 108
3, 136112, Note_on_c, 2, 56, 102
3, 136176, Note_off_c, 2, 64, 0
3, 136288, Note_off_c, 2, 56, 0
3, 136304, Note_on_c, 2, 57, 108
3, 136480, Note_off_c, 2, 62, 0
3, 136480, Note_off_c, 2, 57, 0
3, 136496, Note_on_c, 2, 62, 108
3, 136496, Note_on_c, 2, 59, 108
3, 136960, Note_off_c, 2, 52, 0
3, 137056, Note_off_c, 2, 62, 0
3, 137056, Note_off_c, 2, 59, 0
3, 137056, Note_on_c, 2, 57, 77
3, 137248, Note_on_c, 2, 60, 99
3, 137424, Note_off_c, 2, 60, 0
3, 137440, Note_on_c, 2, 62, 99
3, 137584, Note_off_c, 2, 62, 0
3, 137632, Note_on_c, 2, 66, 99
3, 137632, Note_on_c, 2, 62, 99
3, 137664, Note_on_c, 2, 67, 99
3, 137664, Note_on_c, 2, 64, 99
3, 137680, Note_off_c, 2, 66, 0
3, 137680, Note_off_c, 2, 62, 0
3, 137808, Note_off_c, 2, 67, 0
3, 137808, Note_off_c, 2, 64, 0
3, 137824, Note_on_c, 2, 67, 99
3, 137824, Note_on_c, 2, 64, 99
3, 137968, Note_off_c, 2, 67, 0
3, 137968, Note_off_c, 2, 64, 0
3, 138016, Note_on_c, 2, 67, 99
3, 138016, Note_on_c, 2, 64, 99
3, 138160, Note_off_c, 2, 67, 0
3, 138160, Note_off_c, 2, 64, 0
3, 138176, Note_on_c, 2, 66, 99
3, 138176, Note_on_c, 2, 62, 99
3, 138192, Note_off_c, 2, 57, 0
3, 138208, Note_on_c, 2, 67, 99
3, 138208, Note_on_c, 2, 64, 99
3, 138224, Note_off_c, 2, 66, 0
3, 138224, Note_off_c, 2, 62, 0
3, 138352, Note_off_c, 2, 64, 0
3, 138352, Note_off_c, 2, 67, 0
3, 138400, Note_on_c, 2, 67, 99
3, 138400, Note_on_c, 2, 64, 99
3, 138544, Note_off_c, 2, 67, 0
3, 138544, Note_off_c, 2, 64, 0
3, 138592, Note_on_c, 2, 67, 99
3, 138592, Note_on_c, 2, 64, 99
3, 138736, Note_off_c, 2, 67, 0
3, 138736, Note_off_c, 2, 64, 0
3, 138784, Note_on_c, 2, 62, 99
3, 138880, Note_on_c, 2, 60, 99
3, 138896, Note_off_c, 2, 62, 0
3, 138976, Note_on_c, 2, 57, 99
3, 139024, Note_off_c, 2, 60, 0
3, 139104, Note_off_c, 2, 57, 0
3, 139168, Note_on_c, 2, 57, 99
3, 139296, Note_off_c, 2, 57, 0
3, 139376, Note_on_c, 2, 60, 67
3, 139376, Note_on_c, 2, 57, 67
3, 139376, Note_on_c, 2, 52, 67
3, 140528, Note_off_c, 2, 57, 0
3, 140528, Note_on_c, 2, 55, 67
3, 141680, Note_off_c, 2, 52, 0
3, 141680, Note_off_c, 2, 55, 0
3, 141680, Note_off_c, 2, 60, 0
3, 141680, Note_on_c, 2, 62, 67
3, 141680, Note_on_c, 2, 57, 67
3, 142832, Note_off_c, 2, 57, 0
3, 142832, Note_off_c, 2, 62, 0
3, 142832, Note_on_c, 2, 65, 67
3, 142832, Note_on_c, 2, 63, 67
3, 142832, Note_on_c, 2, 60, 67
3, 143984, Note_off_c, 2, 60, 0
3, 143984, Note_off_c, 2, 63, 0
3, 143984, Note_off_c, 2, 65, 0
3, 143984, Note_on_c, 2, 64, 67
3, 143984, Note_on_c, 2, 60, 67
3, 143984, Note_on_c, 2, 57, 67
3, 145136, Note_off_c, 2, 57, 0
3, 145136, Note_on_c, 2, 55, 67
3, 146288, Note_off_c, 2, 55, 0
3, 146288, Note_off_c, 2, 60, 0
3, 146288, Note_off_c, 2, 64, 0
3, 146288, Note_on_c, 2, 52, 67
3, 146480, Note_on_c, 2, 71, 73
3, 146480, Note_on_c, 2, 68, 98
3, 146656, Note_off_c, 2, 71, 0
3, 146656, Note_off_c, 2, 68, 0
3, 146672, Note_on_c, 2, 72, 73
3, 146672, Note_on_c, 2, 69, 98
3, 146816, Note_off_c, 2, 69, 0
3, 146864, Note_off_c, 2, 72, 0
3, 146864, Note_on_c, 2, 74, 73
3, 146864, Note_on_c, 2, 69, 98
3, 146880, Note_on_c, 2, 71, 98
3, 146928, Note_off_c, 2, 69, 0
3, 146960, Note_off_c, 2, 74, 0
3, 146992, Note_off_c, 2, 71, 0
3, 147040, Note_on_c, 2, 71, 98
3, 147056, Note_on_c, 2, 74, 73
3, 147424, Note_off_c, 2, 71, 0
3, 147424, Note_off_c, 2, 74, 0
3, 147424, Note_on_c, 2, 69, 98
3, 147440, Note_on_c, 2, 74, 73
3, 147440, Note_on_c, 2, 71, 98
3, 147520, Note_off_c, 2, 69, 0
3, 147568, Note_off_c, 2, 71, 0
3, 147632, Note_off_c, 2, 74, 0
3, 147632, Note_on_c, 2, 74, 73
3, 147632, Note_on_c, 2, 71, 98
3, 148016, Note_on_c, 2, 69, 98
3, 148032, Note_off_c, 2, 71, 0
3, 148112, Note_off_c, 2, 69, 0
3, 148112, Note_on_c, 2, 68, 98
3, 148208, Note_off_c, 2, 68, 0
3, 148208, Note_on_c, 2, 64, 98
3, 148304, Note_off_c, 2, 64, 0
3, 148400, Note_on_c, 2, 64, 98
3, 148496, Note_off_c, 2, 64, 0
3, 148592, Note_off_c, 2, 52, 0
3, 148592, Note_off_c, 2, 74, 0
3, 148592, Note_on_c, 2, 64, 67
3, 148592, Note_on_c, 2, 60, 67
3, 148592, Note_on_c, 2, 57, 67
3, 149744, Note_off_c, 2, 57, 0
3, 149744, Note_on_c, 2, 55, 67
3, 150896, Note_off_c, 2, 55, 0
3, 150896, Note_off_c, 2, 60, 0
3, 150896, Note_off_c, 2, 64, 0
3, 150896, Note_on_c, 2, 62, 67
3, 150896, Note_on_c, 2, 57, 67
3, 150896, Note_on_c, 2, 54, 67
3, 152048, Note_off_c, 2, 54, 0
3, 152048, Note_off_c, 2, 57, 0
3, 152048, Note_off_c, 2, 62, 0
3, 152048, Note_on_c, 2, 65, 67
3, 152048, Note_on_c, 2, 60, 67
3, 152048, Note_on_c, 2, 57, 67
3, 153104, Note_off_c, 2, 57, 0
3, 153200, Note_off_c, 2, 60, 0
3, 153200, Note_off_c, 2, 65, 0
3, 153200, Note_on_c, 2, 57, 67
3, 153296, Note_on_c, 2, 64, 67
3, 153392, Note_off_c, 2, 57, 0
3, 153392, Note_on_c, 2, 69, 67
3, 153392, Note_on_c, 2, 57, 92
3, 153456, Note_off_c, 2, 64, 0
3, 153488, Note_on_c, 2, 64, 67
3, 153552, Note_off_c, 2, 69, 0
3, 153552, Note_off_c, 2, 57, 0
3, 153584, Note_on_c, 2, 69, 67
3, 153584, Note_on_c, 2, 60, 92
3, 153648, Note_off_c, 2, 64, 0
3, 153680, Note_on_c, 2, 64, 67
3, 153744, Note_off_c, 2, 69, 0
3, 153744, Note_off_c, 2, 60, 0
3, 153776, Note_off_c, 2, 64, 0
3, 153776, Note_on_c, 2, 69, 67
3, 153776, Note_on_c, 2, 64, 92
3, 153840, Note_off_c, 2, 64, 0
3, 153872, Note_on_c, 2, 64, 67
3, 153936, Note_off_c, 2, 69, 0
3, 153936, Note_off_c, 2, 64, 0
3, 153968, Note_on_c, 2, 69, 67
3, 153968, Note_on_c, 2, 60, 92
3, 154064, Note_on_c, 2, 64, 67
3, 154128, Note_off_c, 2, 69, 0
3, 154128, Note_off_c, 2, 60, 0
3, 154160, Note_on_c, 2, 69, 67
3, 154160, Note_on_c, 2, 57, 92
3, 154224, Note_off_c, 2, 64, 0
3, 154256, Note_on_c, 2, 64, 67
3, 154320, Note_off_c, 2, 69, 0
3, 154320, Note_off_c, 2, 57, 0
3, 154352, Note_on_c, 2, 52, 67
3, 154416, Note_off_c, 2, 64, 0
3, 154448, Note_on_c, 2, 64, 67
3, 154544, Note_on_c, 2, 68, 67
3, 154544, Note_on_c, 2, 56, 92
3, 154608, Note_off_c, 2, 64, 0
3, 154640, Note_on_c, 2, 64, 67
3, 154704, Note_off_c, 2, 68, 0
3, 154704, Note_off_c, 2, 56, 0
3, 154736, Note_on_c, 2, 68, 67
3, 154736, Note_on_c, 2, 59, 92
3, 154800, Note_off_c, 2, 64, 0
3, 154832, Note_on_c, 2, 64, 67
3, 154896, Note_off_c, 2, 68, 0
3, 154896, Note_off_c, 2, 59, 0
3, 154928, Note_on_c, 2, 68, 67
3, 154928, Note_on_c, 2, 62, 92
3, 154992, Note_off_c, 2, 64, 0
3, 155024, Note_on_c, 2, 64, 67
3, 155088, Note_off_c, 2, 68, 0
3, 155088, Note_off_c, 2, 62, 0
3, 155120, Note_on_c, 2, 68, 67
3, 155120, Note_on_c, 2, 59, 92
3, 155184, Note_off_c, 2, 64, 0
3, 155216, Note_on_c, 2, 64, 67
3, 155280, Note_off_c, 2, 68, 0
3, 155280, Note_off_c, 2, 59, 0
3, 155312, Note_on_c, 2, 68, 67
3, 155312, Note_on_c, 2, 56, 92
3, 155376, Note_off_c, 2, 64, 0
3, 155408, Note_on_c, 2, 64, 67
3, 155472, Note_off_c, 2, 52, 0
3, 155472, Note_off_c, 2, 68, 0
3, 155472, Note_off_c, 2, 56, 0
3, 155568, Note_off_c, 2, 64, 0
3, 155600, Note_on_c, 2, 57, 97
3, 155600, Note_on_c, 2, 52, 97
3, 155696, Note_off_c, 2, 57, 0
3, 155696, Note_on_c, 2, 57, 97
3, 155776, Note_off_c, 2, 52, 0
3, 155792, Note_off_c, 2, 57, 0
3, 155792, Note_on_c, 2, 52, 97
3, 155888, Note_on_c, 2, 60, 97
3, 155968, Note_off_c, 2, 52, 0
3, 155984, Note_on_c, 2, 52, 97
3, 156064, Note_off_c, 2, 60, 0
3, 156080, Note_on_c, 2, 64, 97
3, 156160, Note_off_c, 2, 52, 0
3, 156176, Note_on_c, 2, 52, 97
3, 156256, Note_off_c, 2, 64, 0
3, 156272, Note_on_c, 2, 60, 97
3, 156352, Note_off_c, 2, 52, 0
3, 156368, Note_on_c, 2, 52, 97
3, 156448, Note_off_c, 2, 60, 0
3, 156464, Note_on_c, 2, 57, 97
3, 156544, Note_off_c, 2, 52, 0
3, 156640, Note_off_c, 2, 57, 0
3, 156752, Note_on_c, 2, 55, 97
3, 156752, Note_on_c, 2, 52, 97
3, 156848, Note_off_c, 2, 55, 0
3, 156848, Note_on_c, 2, 55, 97
3, 156928, Note_off_c, 2, 52, 0
3, 156944, Note_off_c, 2, 55, 0
3, 156944, Note_on_c, 2, 52, 97
3, 157040, Note_on_c, 2, 60, 97
3, 157120, Note_off_c, 2, 52, 0
3, 157136, Note_on_c, 2, 52, 97
3, 157216, Note_off_c, 2, 60, 0
3, 157232, Note_on_c, 2, 64, 97
3, 157312, Note_off_c, 2, 52, 0
3, 157328, Note_on_c, 2, 52, 97
3, 157408, Note_off_c, 2, 64, 0
3, 157424, Note_on_c, 2, 60, 97
3, 157504, Note_off_c, 2, 52, 0
3, 157520, Note_on_c, 2, 52, 97
3, 157600, Note_off_c, 2, 60, 0
3, 157616, Note_on_c, 2, 55, 97
3, 157696, Note_off_c, 2, 52, 0
3, 157696, Note_off_c, 2, 55, 0
3, 157808, Note_on_c, 2, 50, 77
3, 157904, Note_on_c, 2, 57, 97
3, 157984, Note_off_c, 2, 57, 0
3, 158000, Note_on_c, 2, 54, 99
3, 158096, Note_on_c, 2, 57, 97
3, 158176, Note_off_c, 2, 54, 0
3, 158176, Note_off_c, 2, 57, 0
3, 158192, Note_on_c, 2, 57, 99
3, 158288, Note_off_c, 2, 57, 0
3, 158288, Note_on_c, 2, 57, 97
3, 158368, Note_off_c, 2, 57, 0
3, 158384, Note_on_c, 2, 62, 99
3, 158480, Note_on_c, 2, 57, 97
3, 158560, Note_off_c, 2, 62, 0
3, 158560, Note_off_c, 2, 57, 0
3, 158576, Note_on_c, 2, 57, 99
3, 158672, Note_off_c, 2, 57, 0
3, 158672, Note_on_c, 2, 57, 97
3, 158752, Note_off_c, 2, 57, 0
3, 158768, Note_on_c, 2, 54, 99
3, 158864, Note_on_c, 2, 57, 97
3, 158944, Note_off_c, 2, 50, 0
3, 158944, Note_off_c, 2, 54, 0
3, 158944, Note_off_c, 2, 57, 0
3, 158960, Note_on_c, 2, 53, 77
3, 159056, Note_on_c, 2, 57, 97
3, 159136, Note_off_c, 2, 57, 0
3, 159152, Note_on_c, 2, 57, 99
3, 159248, Note_off_c, 2, 57, 0
3, 159248, Note_on_c, 2, 57, 97
3, 159328, Note_off_c, 2, 57, 0
3, 159344, Note_on_c, 2, 60, 99
3, 159440, Note_on_c, 2, 57, 97
3, 159520, Note_off_c, 2, 60, 0
3, 159520, Note_off_c, 2, 57, 0
3, 159552, Note_on_c, 2, 65, 99
3, 159632, Note_on_c, 2, 57, 97
3, 159712, Note_off_c, 2, 65, 0
3, 159712, Note_off_c, 2, 57, 0
3, 159728, Note_on_c, 2, 60, 99
3, 159824, Note_on_c, 2, 57, 97
3, 159904, Note_off_c, 2, 60, 0
3, 159904, Note_off_c, 2, 57, 0
3, 159920, Note_on_c, 2, 57, 99
3, 160000, Note_off_c, 2, 53, 0
3, 160096, Note_off_c, 2, 57, 0
3, 160112, Note_on_c, 2, 76, 67
3, 160112, Note_on_c, 2, 69, 83
3, 160304, Note_on_c, 2, 60, 106
3, 160480, Note_off_c, 2, 60, 0
3, 160496, Note_on_c, 2, 62, 106
3, 160576, Note_off_c, 2, 62, 0
3, 160688, Note_on_c, 2, 67, 106
3, 160688, Note_on_c, 2, 64, 106
3, 160960, Note_off_c, 2, 67, 0
3, 160960, Note_off_c, 2, 64, 0
3, 161072, Note_on_c, 2, 67, 106
3, 161072, Note_on_c, 2, 64, 106
3, 161248, Note_off_c, 2, 67, 0
3, 161248, Note_off_c, 2, 64, 0
3, 161456, Note_on_c, 2, 67, 106
3, 161456, Note_on_c, 2, 64, 106
3, 161600, Note_off_c, 2, 67, 0
3, 161600, Note_off_c, 2, 64, 0
3, 161648, Note_on_c, 2, 67, 106
3, 161648, Note_on_c, 2, 64, 106
3, 161696, Note_off_c, 2, 67, 0
3, 161696, Note_off_c, 2, 64, 0
3, 161744, Note_on_c, 2, 67, 106
3, 161744, Note_on_c, 2, 64, 106
3, 161952, Note_off_c, 2, 67, 0
3, 161952, Note_off_c, 2, 64, 0
3, 162032, Note_on_c, 2, 67, 106
3, 162032, Note_on_c, 2, 64, 106
3, 162208, Note_off_c, 2, 67, 0
3, 162208, Note_off_c, 2, 64, 0
3, 162320, Note_on_c, 2, 67, 106
3, 162320, Note_on_c, 2, 64, 106
3, 162464, Note_off_c, 2, 64, 0
3, 162464, Note_off_c, 2, 67, 0
3, 162512, Note_on_c, 2, 67, 106
3, 162512, Note_on_c, 2, 64, 106
3, 162576, Note_off_c, 2, 67, 0
3, 162576, Note_off_c, 2, 64, 0
3, 162608, Note_on_c, 2, 67, 106
3, 162608, Note_on_c, 2, 64, 106
3, 162784, Note_off_c, 2, 67, 0
3, 162784, Note_off_c, 2, 64, 0
3, 162896, Note_on_c, 2, 67, 106
3, 162896, Note_on_c, 2, 64, 106
3, 163024, Note_off_c, 2, 67, 0
3, 163024, Note_off_c, 2, 64, 0
3, 163088, Note_on_c, 2, 67, 106
3, 163088, Note_on_c, 2, 64, 106
3, 163136, Note_off_c, 2, 67, 0
3, 163136, Note_off_c, 2, 64, 0
3, 163184, Note_on_c, 2, 67, 106
3, 163184, Note_on_c, 2, 64, 106
3, 163360, Note_off_c, 2, 67, 0
3, 163360, Note_off_c, 2, 64, 0
3, 163472, Note_on_c, 2, 67, 106
3, 163472, Note_on_c, 2, 64, 106
3, 163600, Note_off_c, 2, 64, 0
3, 163600, Note_off_c, 2, 67, 0
3, 163664, Note_on_c, 2, 67, 106
3, 163664, Note_on_c, 2, 64, 106
3, 163728, Note_off_c, 2, 67, 0
3, 163728, Note_off_c, 2, 64, 0
3, 163760, Note_on_c, 2, 67, 106
3, 163760, Note_on_c, 2, 64, 106
3, 164096, Note_off_c, 2, 67, 0
3, 164096, Note_off_c, 2, 64, 0
3, 164144, Note_on_c, 2, 62, 106
3, 164240, Note_on_c, 2, 60, 106
3, 164272, Note_off_c, 2, 62, 0
3, 164336, Note_off_c, 2, 60, 0
3, 164336, Note_on_c, 2, 57, 106
3, 164448, Note_off_c, 2, 57, 0
3, 164528, Note_on_c, 2, 57, 106
3, 164640, Note_off_c, 2, 69, 0
3, 164640, Note_off_c, 2, 76, 0
3, 164640, Note_off_c, 2, 57, 0
3, 164720, Note_on_c, 2, 60, 77
3, 164720, Note_on_c, 2, 57, 77
3, 164720, Note_on_c, 2, 52, 77
3, 165872, Note_off_c, 2, 57, 0
3, 165872, Note_on_c, 2, 55, 77
3, 167024, Note_off_c, 2, 52, 0
3, 167024, Note_off_c, 2, 55, 0
3, 167024, Note_off_c, 2, 60, 0
3, 167024, Note_on_c, 2, 62, 77
3, 167024, Note_on_c, 2, 57, 77
3, 168176, Note_off_c, 2, 57, 0
3, 168176, Note_off_c, 2, 62, 0
3, 168176, Note_on_c, 2, 65, 77
3, 168176, Note_on_c, 2, 63, 66
3, 168176, Note_on_c, 2, 60, 77
3, 169328, Note_off_c, 2, 60, 0
3, 169328, Note_off_c, 2, 63, 0
3, 169328, Note_off_c, 2, 65, 0
3, 169328, Note_on_c, 2, 64, 77
3, 169328, Note_on_c, 2, 60, 77
3, 169328, Note_on_c, 2, 57, 77
3, 170480, Note_off_c, 2, 57, 0
3, 170480, Note_on_c, 2, 55, 77
3, 171632, Note_off_c, 2, 55, 0
3, 171632, Note_off_c, 2, 60, 0
3, 171632, Note_off_c, 2, 64, 0
3, 171632, Note_on_c, 2, 52, 77
3, 171824, Note_on_c, 2, 71, 83
3, 171824, Note_on_c, 2, 68, 108
3, 172000, Note_off_c, 2, 71, 0
3, 172000, Note_off_c, 2, 68, 0
3, 172016, Note_on_c, 2, 72, 83
3, 172016, Note_on_c, 2, 69, 108
3, 172160, Note_off_c, 2, 69, 0
3, 172208, Note_off_c, 2, 72, 0
3, 172208, Note_on_c, 2, 74, 83
3, 172208, Note_on_c, 2, 69, 108
3, 172224, Note_on_c, 2, 71, 108
3, 172272, Note_off_c, 2, 69, 0
3, 172304, Note_off_c, 2, 74, 0
3, 172336, Note_off_c, 2, 71, 0
3, 172384, Note_on_c, 2, 71, 108
3, 172400, Note_on_c, 2, 74, 83
3, 172768, Note_off_c, 2, 71, 0
3, 172768, Note_off_c, 2, 74, 0
3, 172768, Note_on_c, 2, 69, 108
3, 172784, Note_on_c, 2, 74, 83
3, 172784, Note_on_c, 2, 71, 108
3, 172864, Note_off_c, 2, 69, 0
3, 172912, Note_off_c, 2, 71, 0
3, 172976, Note_off_c, 2, 74, 0
3, 172976, Note_on_c, 2, 74, 83
3, 172976, Note_on_c, 2, 71, 108
3, 173360, Note_on_c, 2, 69, 108
3, 173376, Note_off_c, 2, 71, 0
3, 173456, Note_off_c, 2, 69, 0
3, 173456, Note_on_c, 2, 68, 108
3, 173552, Note_off_c, 2, 68, 0
3, 173552, Note_on_c, 2, 64, 108
3, 173648, Note_off_c, 2, 64, 0
3, 173744, Note_on_c, 2, 64, 108
3, 173840, Note_off_c, 2, 64, 0
3, 173936, Note_off_c, 2, 52, 0
3, 173936, Note_off_c, 2, 74, 0
3, 173936, Note_on_c, 2, 64, 77
3, 173936, Note_on_c, 2, 60, 77
3, 173936, Note_on_c, 2, 57, 77
3, 174992, Note_off_c, 2, 57, 0
3, 175088, Note_on_c, 2, 55, 77
3, 176240, Note_off_c, 2, 55, 0
3, 176240, Note_off_c, 2, 60, 0
3, 176240, Note_off_c, 2, 64, 0
3, 176240, Note_on_c, 2, 62, 77
3, 176240, Note_on_c, 2, 57, 77
3, 176240, Note_on_c, 2, 54, 77
3, 177392, Note_off_c, 2, 54, 0
3, 177392, Note_off_c, 2, 57, 0
3, 177392, Note_off_c, 2, 62, 0
3, 177392, Note_on_c, 2, 65, 77
3, 177392, Note_on_c, 2, 60, 77
3, 177392, Note_on_c, 2, 57, 77
3, 178448, Note_off_c, 2, 57, 0
3, 178448, Note_off_c, 2, 60, 0
3, 178448, Note_off_c, 2, 65, 0
3, 178544, Note_on_c, 2, 57, 77
3, 178640, Note_on_c, 2, 64, 77
3, 178720, Note_off_c, 2, 57, 0
3, 178736, Note_on_c, 2, 69, 77
3, 178736, Note_on_c, 2, 57, 102
3, 178816, Note_off_c, 2, 64, 0
3, 178832, Note_on_c, 2, 64, 77
3, 178912, Note_off_c, 2, 69, 0
3, 178912, Note_off_c, 2, 57, 0
3, 178928, Note_on_c, 2, 69, 77
3, 178928, Note_on_c, 2, 60, 102
3, 179008, Note_off_c, 2, 64, 0
3, 179024, Note_on_c, 2, 64, 77
3, 179104, Note_off_c, 2, 69, 0
3, 179104, Note_off_c, 2, 60, 0
3, 179112, Note_off_c, 2, 64, 0
3, 179120, Note_on_c, 2, 69, 77
3, 179120, Note_on_c, 2, 64, 102
3, 179200, Note_off_c, 2, 64, 0
3, 179216, Note_on_c, 2, 64, 77
3, 179296, Note_off_c, 2, 69, 0
3, 179296, Note_off_c, 2, 64, 0
3, 179312, Note_on_c, 2, 69, 77
3, 179312, Note_on_c, 2, 60, 102
3, 179408, Note_on_c, 2, 64, 77
3, 179488, Note_off_c, 2, 69, 0
3, 179488, Note_off_c, 2, 60, 0
3, 179504, Note_on_c, 2, 69, 77
3, 179504, Note_on_c, 2, 57, 102
3, 179584, Note_off_c, 2, 64, 0
3, 179600, Note_on_c, 2, 64, 77
3, 179680, Note_off_c, 2, 69, 0
3, 179680, Note_off_c, 2, 57, 0
3, 179696, Note_on_c, 2, 52, 77
3, 179776, Note_off_c, 2, 64, 0
3, 179792, Note_on_c, 2, 64, 77
3, 179888, Note_on_c, 2, 68, 77
3, 179888, Note_on_c, 2, 56, 102
3, 179968, Note_off_c, 2, 64, 0
3, 179984, Note_on_c, 2, 64, 77
3, 180064, Note_off_c, 2, 68, 0
3, 180064, Note_off_c, 2, 56, 0
3, 180080, Note_on_c, 2, 68, 77
3, 180080, Note_on_c, 2, 59, 102
3, 180160, Note_off_c, 2, 64, 0
3, 180176, Note_on_c, 2, 64, 77
3, 180256, Note_off_c, 2, 68, 0
3, 180256, Note_off_c, 2, 59, 0
3, 180272, Note_on_c, 2, 68, 77
3, 180272, Note_on_c, 2, 62, 102
3, 180352, Note_off_c, 2, 64, 0
3, 180368, Note_on_c, 2, 64, 77
3, 180448, Note_off_c, 2, 68, 0
3, 180448, Note_off_c, 2, 62, 0
3, 180464, Note_on_c, 2, 68, 77
3, 180464, Note_on_c, 2, 59, 102
3, 180544, Note_off_c, 2, 64, 0
3, 180560, Note_on_c, 2, 64, 77
3, 180640, Note_off_c, 2, 68, 0
3, 180640, Note_off_c, 2, 59, 0
3, 180656, Note_on_c, 2, 68, 77
3, 180656, Note_on_c, 2, 56, 102
3, 180736, Note_off_c, 2, 64, 0
3, 180752, Note_on_c, 2, 64, 77
3, 180832, Note_off_c, 2, 52, 0
3, 180832, Note_off_c, 2, 68, 0
3, 180832, Note_off_c, 2, 56, 0
3, 180848, Note_on_c, 2, 60, 77
3, 180848, Note_on_c, 2, 57, 77
3, 180928, Note_off_c, 2, 64, 0
3, 181040, Note_on_c, 2, 76, 116
3, 182000, Note_off_c, 2, 57, 0
3, 182000, Note_off_c, 2, 60, 0
3, 182000, Note_on_c, 2, 64, 77
3, 182000, Note_on_c, 2, 60, 77
3, 182768, Note_off_c, 2, 76, 0
3, 182768, Note_on_c, 2, 74, 100
3, 182800, Note_on_c, 2, 76, 100
3, 182832, Note_off_c, 2, 74, 0
3, 182928, Note_off_c, 2, 76, 0
3, 182944, Note_on_c, 2, 74, 100
3, 182960, Note_on_c, 2, 76, 100
3, 183024, Note_off_c, 2, 74, 0
3, 183152, Note_off_c, 2, 60, 0
3, 183152, Note_off_c, 2, 64, 0
3, 183152, Note_on_c, 2, 66, 77
3, 183152, Note_on_c, 2, 62, 77
3, 183168, Note_off_c, 2, 76, 0
3, 183168, Note_on_c, 2, 74, 100
3, 183264, Note_on_c, 2, 72, 100
3, 183280, Note_off_c, 2, 74, 0
3, 183328, Note_on_c, 2, 69, 100
3, 183392, Note_off_c, 2, 72, 0
3, 183920, Note_off_c, 2, 69, 0
3, 183952, Note_on_c, 2, 69, 100
3, 184128, Note_on_c, 2, 67, 100
3, 184144, Note_off_c, 2, 69, 0
3, 184304, Note_off_c, 2, 62, 0
3, 184304, Note_off_c, 2, 66, 0
3, 184304, Note_on_c, 2, 65, 77
3, 184304, Note_on_c, 2, 63, 77
3, 184336, Note_on_c, 2, 69, 100
3, 184368, Note_off_c, 2, 67, 0
3, 185040, Note_off_c, 2, 69, 0
3, 185072, Note_on_c, 2, 71, 100
3, 185088, Note_on_c, 2, 72, 100
3, 185136, Note_off_c, 2, 71, 0
3, 185280, Note_on_c, 2, 74, 100
3, 185312, Note_off_c, 2, 72, 0
3, 185456, Note_off_c, 2, 63, 0
3, 185456, Note_off_c, 2, 65, 0
3, 185456, Note_off_c, 2, 74, 0
3, 185456, Note_on_c, 2, 75, 100
3, 185456, Note_on_c, 2, 60, 77
3, 185456, Note_on_c, 2, 57, 77
3, 185504, Note_on_c, 2, 76, 100
3, 185536, Note_off_c, 2, 75, 0
3, 185616, Note_on_c, 2, 81, 100
3, 185648, Note_off_c, 2, 76, 0
3, 186416, Note_on_c, 2, 75, 100
3, 186448, Note_off_c, 2, 81, 0
3, 186464, Note_on_c, 2, 76, 100
3, 186480, Note_off_c, 2, 75, 0
3, 186600, Note_off_c, 2, 76, 0
3, 186608, Note_off_c, 2, 57, 0
3, 186608, Note_off_c, 2, 60, 0
3, 186608, Note_on_c, 2, 75, 100
3, 186608, Note_on_c, 2, 59, 77
3, 186608, Note_on_c, 2, 56, 77
3, 186640, Note_on_c, 2, 76, 100
3, 186688, Note_off_c, 2, 75, 0
3, 186832, Note_on_c, 2, 74, 100
3, 186848, Note_off_c, 2, 76, 0
3, 187184, Note_off_c, 2, 74, 0
3, 187184, Note_on_c, 2, 74, 100
3, 187280, Note_off_c, 2, 74, 0
3, 187280, Note_on_c, 2, 72, 100
3, 187376, Note_on_c, 2, 69, 100
3, 187392, Note_off_c, 2, 72, 0
3, 187568, Note_on_c, 2, 67, 100
3, 187616, Note_off_c, 2, 69, 0
3, 187760, Note_off_c, 2, 56, 0
3, 187760, Note_off_c, 2, 59, 0
3, 187760, Note_off_c, 2, 67, 0
3, 187760, Note_on_c, 2, 69, 101
3, 187760, Note_on_c, 2, 64, 62
3, 187760, Note_on_c, 2, 60, 62
3, 188880, Note_off_c, 2, 69, 0
3, 188912, Note_off_c, 2, 60, 0
3, 188912, Note_off_c, 2, 64, 0
3, 188912, Note_on_c, 2, 65, 62
3, 188912, Note_on_c, 2, 62, 62
3, 189104, Note_on_c, 2, 75, 101
3, 189136, Note_on_c, 2, 76, 101
3, 189152, Note_off_c, 2, 75, 0
3, 189280, Note_off_c, 2, 76, 0
3, 189280, Note_on_c, 2, 75, 101
3, 189312, Note_on_c, 2, 76, 101
3, 189328, Note_off_c, 2, 75, 0
3, 189488, Note_on_c, 2, 74, 101
3, 189520, Note_off_c, 2, 76, 0
3, 189568, Note_off_c, 2, 74, 0
3, 189584, Note_on_c, 2, 72, 101
3, 189680, Note_off_c, 2, 72, 0
3, 189680, Note_on_c, 2, 69, 101
3, 189856, Note_off_c, 2, 69, 0
3, 189872, Note_on_c, 2, 69, 101
3, 190048, Note_off_c, 2, 62, 0
3, 190048, Note_off_c, 2, 65, 0
3, 190048, Note_off_c, 2, 69, 0
3, 190064, Note_on_c, 2, 69, 101
3, 190064, Note_on_c, 2, 64, 62
3, 190064, Note_on_c, 2, 60, 62
3, 191184, Note_off_c, 2, 69, 0
3, 191216, Note_off_c, 2, 60, 0
3, 191216, Note_off_c, 2, 64, 0
3, 191216, Note_on_c, 2, 65, 62
3, 191216, Note_on_c, 2, 62, 62
3, 191408, Note_on_c, 2, 74, 101
3, 191440, Note_on_c, 2, 76, 101
3, 191488, Note_off_c, 2, 74, 0
3, 191592, Note_off_c, 2, 76, 0
3, 191600, Note_on_c, 2, 74, 101
3, 191616, Note_on_c, 2, 76, 101
3, 191664, Note_off_c, 2, 74, 0
3, 191760, Note_off_c, 2, 76, 0
3, 191792, Note_on_c, 2, 76, 101
3, 191984, Note_on_c, 2, 81, 101
3, 192112, Note_off_c, 2, 76, 0
3, 192160, Note_off_c, 2, 81, 0
3, 192176, Note_on_c, 2, 79, 101
3, 192368, Note_off_c, 2, 62, 0
3, 192368, Note_off_c, 2, 65, 0
3, 192368, Note_off_c, 2, 79, 0
3, 192368, Note_on_c, 2, 81, 101
3, 192368, Note_on_c, 2, 64, 62
3, 192368, Note_on_c, 2, 60, 62
3, 193520, Note_off_c, 2, 60, 0
3, 193520, Note_off_c, 2, 64, 0
3, 193520, Note_on_c, 2, 65, 62
3, 193520, Note_on_c, 2, 62, 62
3, 193600, Note_off_c, 2, 81, 0
3, 193712, Note_on_c, 2, 63, 101
3, 193760, Note_on_c, 2, 64, 101
3, 193776, Note_off_c, 2, 63, 0
3, 193904, Note_on_c, 2, 69, 101
3, 193920, Note_off_c, 2, 64, 0
3, 194064, Note_off_c, 2, 69, 0
3, 194096, Note_on_c, 2, 63, 101
3, 194144, Note_on_c, 2, 64, 101
3, 194160, Note_off_c, 2, 63, 0
3, 194192, Note_on_c, 2, 69, 101
3, 194208, Note_off_c, 2, 64, 0
3, 194288, Note_off_c, 2, 69, 0
3, 194288, Note_on_c, 2, 63, 101
3, 194336, Note_on_c, 2, 64, 101
3, 194352, Note_off_c, 2, 63, 0
3, 194384, Note_on_c, 2, 69, 101
3, 194400, Note_off_c, 2, 64, 0
3, 194480, Note_off_c, 2, 69, 0
3, 194480, Note_on_c, 2, 63, 101
3, 194528, Note_on_c, 2, 64, 101
3, 194544, Note_off_c, 2, 63, 0
3, 194576, Note_on_c, 2, 69, 101
3, 194592, Note_off_c, 2, 64, 0
3, 194672, Note_off_c, 2, 62, 0
3, 194672, Note_off_c, 2, 65, 0
3, 194672, Note_off_c, 2, 69, 0
3, 194672, Note_on_c, 2, 62, 101
3, 194672, Note_on_c, 2, 60, 62
3, 194736, Note_off_c, 2, 62, 0
3, 194736, Note_on_c, 2, 64, 101
3, 194864, Note_on_c, 2, 62, 101
3, 194880, Note_off_c, 2, 64, 0
3, 194912, Note_on_c, 2, 64, 101
3, 194928, Note_off_c, 2, 62, 0
3, 195040, Note_off_c, 2, 64, 0
3, 195056, Note_on_c, 2, 62, 101
3, 195104, Note_on_c, 2, 64, 101
3, 195120, Note_off_c, 2, 62, 0
3, 195232, Note_off_c, 2, 64, 0
3, 195248, Note_on_c, 2, 64, 101
3, 195344, Note_on_c, 2, 62, 101
3, 195360, Note_off_c, 2, 64, 0
3, 195424, Note_off_c, 2, 60, 0
3, 195440, Note_on_c, 2, 60, 101
3, 195456, Note_off_c, 2, 62, 0
3, 195632, Note_off_c, 2, 60, 0
3, 195632, Note_on_c, 2, 57, 101
3, 195824, Note_off_c, 2, 57, 0
3, 195824, Note_on_c, 2, 65, 62
3, 195824, Note_on_c, 2, 62, 62
3, 195840, Note_on_c, 2, 64, 101
3, 195904, Note_off_c, 2, 62, 0
3, 196000, Note_off_c, 2, 64, 0
3, 196000, Note_on_c, 2, 62, 101
3, 196032, Note_on_c, 2, 64, 101
3, 196080, Note_off_c, 2, 62, 0
3, 196192, Note_off_c, 2, 64, 0
3, 196208, Note_on_c, 2, 64, 101
3, 196240, Note_on_c, 2, 62, 101
3, 196272, Note_off_c, 2, 64, 0
3, 196352, Note_off_c, 2, 62, 0
3, 196400, Note_on_c, 2, 60, 101
3, 196592, Note_on_c, 2, 57, 101
3, 196608, Note_off_c, 2, 60, 0
3, 196784, Note_on_c, 2, 60, 101
3, 196832, Note_off_c, 2, 57, 0
3, 196944, Note_off_c, 2, 60, 0
3, 196976, Note_off_c, 2, 65, 0
3, 196976, Note_on_c, 2, 62, 101
3, 196976, Note_on_c, 2, 60, 62
3, 197040, Note_off_c, 2, 62, 0
3, 197040, Note_on_c, 2, 64, 101
3, 197168, Note_on_c, 2, 62, 101
3, 197184, Note_off_c, 2, 64, 0
3, 197216, Note_on_c, 2, 64, 101
3, 197232, Note_off_c, 2, 62, 0
3, 197344, Note_off_c, 2, 64, 0
3, 197360, Note_on_c, 2, 62, 101
3, 197408, Note_on_c, 2, 64, 101
3, 197424, Note_off_c, 2, 62, 0
3, 197552, Note_off_c, 2, 64, 0
3, 197552, Note_on_c, 2, 62, 101
3, 197720, Note_off_c, 2, 60, 0
3, 197744, Note_off_c, 2, 62, 0
3, 197744, Note_on_c, 2, 60, 101
3, 197936, Note_off_c, 2, 60, 0
3, 197936, Note_on_c, 2, 57, 101
3, 198128, Note_off_c, 2, 57, 0
3, 198128, Note_on_c, 2, 65, 62
3, 198128, Note_on_c, 2, 62, 62
3, 198144, Note_on_c, 2, 64, 101
3, 198208, Note_off_c, 2, 62, 0
3, 198304, Note_off_c, 2, 64, 0
3, 198304, Note_on_c, 2, 62, 101
3, 198336, Note_on_c, 2, 64, 101
3, 198384, Note_off_c, 2, 62, 0
3, 198512, Note_on_c, 2, 62, 101
3, 198520, Note_off_c, 2, 64, 0
3, 198544, Note_on_c, 2, 64, 101
3, 198576, Note_off_c, 2, 62, 0
3, 198704, Note_off_c, 2, 64, 0
3, 198704, Note_on_c, 2, 62, 101
3, 199088, Note_off_c, 2, 62, 0
3, 199088, Note_on_c, 2, 60, 101
3, 199264, Note_off_c, 2, 65, 0
3, 199264, Note_off_c, 2, 60, 0
3, 199280, Note_on_c, 2, 57, 88
3, 199504, Note_on_c, 2, 60, 88
3, 199760, Note_on_c, 2, 64, 88
3, 200000, Note_on_c, 2, 67, 88
3, 200240, Note_off_c, 2, 57, 0
3, 200240, Note_on_c, 2, 71, 88
3, 202736, Note_off_c, 2, 60, 0
3, 202736, Note_off_c, 2, 64, 0
3, 202736, Note_off_c, 2, 67, 0
3, 202736, Note_off_c, 2, 71, 0
3, 202736, End_track
4, 0, Start_track
4, 0, Title_t, "Melody              "
4, 0, Control_c, 0, 32, 0
4, 0, Control_c, 3, 0, 0
4, 0, Program_c, 3, 27
4, 0, Control_c, 3, 7, 105
4, 0, Control_c, 3, 10, 64
4, 0, Control_c, 3, 91, 127
4, 0, Control_c, 3, 93, 127
4, 0, Key_signature, 0, "major"
4, 12480, Note_on_c, 3, 45, 121
4, 12640, Note_off_c, 3, 45, 0
4, 12688, Note_on_c, 3, 45, 121
4, 12928, Note_off_c, 3, 45, 0
4, 13616, Note_on_c, 3, 47, 121
4, 13824, Note_off_c, 3, 47, 0
4, 13824, Note_on_c, 3, 48, 121
4, 14080, Note_off_c, 3, 48, 0
4, 14768, Note_on_c, 3, 50, 121
4, 14784, Pitch_bend_c, 3, 8656
4, 14800, Pitch_bend_c, 3, 9648
4, 14800, Pitch_bend_c, 3, 10720
4, 14816, Pitch_bend_c, 3, 11584
4, 14816, Pitch_bend_c, 3, 12624
4, 14832, Pitch_bend_c, 3, 13504
4, 14832, Pitch_bend_c, 3, 14448
4, 14848, Pitch_bend_c, 3, 15472
4, 14848, Pitch_bend_c, 3, 16383
4, 14928, Note_off_c, 3, 50, 0
4, 14960, Pitch_bend_c, 3, 14992
4, 14960, Pitch_bend_c, 3, 12976
4, 14976, Pitch_bend_c, 3, 9872
4, 14976, Pitch_bend_c, 3, 8192
4, 15008, Note_on_c, 3, 50, 120
4, 15160, Note_off_c, 3, 50, 0
4, 15200, Note_on_c, 3, 45, 121
4, 15328, Note_off_c, 3, 45, 0
4, 15424, Note_on_c, 3, 45, 114
4, 15824, Note_off_c, 3, 45, 0
4, 17088, Note_on_c, 3, 57, 121
4, 17280, Note_off_c, 3, 57, 0
4, 17296, Note_on_c, 3, 55, 117
4, 17392, Pitch_bend_c, 3, 8464
4, 17392, Pitch_bend_c, 3, 8928
4, 17392, Pitch_bend_c, 3, 9392
4, 17408, Pitch_bend_c, 3, 10064
4, 17408, Pitch_bend_c, 3, 10576
4, 17424, Pitch_bend_c, 3, 11376
4, 17424, Pitch_bend_c, 3, 11936
4, 17440, Pitch_bend_c, 3, 12672
4, 17440, Pitch_bend_c, 3, 13184
4, 17456, Pitch_bend_c, 3, 13840
4, 17456, Pitch_bend_c, 3, 14416
4, 17472, Pitch_bend_c, 3, 14992
4, 17472, Pitch_bend_c, 3, 15552
4, 17488, Pitch_bend_c, 3, 16048
4, 17488, Pitch_bend_c, 3, 16383
4, 17936, Control_c, 3, 1, 3
4, 17952, Control_c, 3, 1, 12
4, 17952, Control_c, 3, 1, 21
4, 17968, Control_c, 3, 1, 30
4, 17968, Control_c, 3, 1, 37
4, 17984, Control_c, 3, 1, 46
4, 17984, Control_c, 3, 1, 55
4, 18000, Control_c, 3, 1, 61
4, 18000, Control_c, 3, 1, 66
4, 18016, Control_c, 3, 1, 72
4, 18016, Control_c, 3, 1, 75
4, 18032, Control_c, 3, 1, 79
4, 18032, Control_c, 3, 1, 81
4, 18048, Control_c, 3, 1, 82
4, 18048, Control_c, 3, 1, 84
4, 18064, Control_c, 3, 1, 86
4, 18080, Control_c, 3, 1, 88
4, 18080, Control_c, 3, 1, 90
4, 18096, Control_c, 3, 1, 91
4, 18096, Control_c, 3, 1, 86
4, 18112, Control_c, 3, 1, 73
4, 18112, Control_c, 3, 1, 59
4, 18128, Control_c, 3, 1, 41
4, 18128, Control_c, 3, 1, 21
4, 18144, Control_c, 3, 1, 5
4, 18144, Control_c, 3, 1, 0
4, 18160, Note_off_c, 3, 55, 0
4, 18192, Pitch_bend_c, 3, 16288
4, 18192, Pitch_bend_c, 3, 14752
4, 18208, Pitch_bend_c, 3, 12592
4, 18208, Pitch_bend_c, 3, 10032
4, 18224, Note_on_c, 3, 57, 121
4, 18224, Pitch_bend_c, 3, 8192
4, 18400, Note_off_c, 3, 57, 0
4, 18464, Note_on_c, 3, 55, 121
4, 18880, Control_c, 3, 1, 3
4, 18880, Control_c, 3, 1, 10
4, 18896, Control_c, 3, 1, 19
4, 18896, Control_c, 3, 1, 30
4, 18912, Control_c, 3, 1, 39
4, 18912, Control_c, 3, 1, 45
4, 18928, Control_c, 3, 1, 48
4, 18928, Control_c, 3, 1, 50
4, 18960, Control_c, 3, 1, 46
4, 18976, Control_c, 3, 1, 41
4, 18976, Control_c, 3, 1, 37
4, 18992, Control_c, 3, 1, 39
4, 19008, Control_c, 3, 1, 43
4, 19008, Control_c, 3, 1, 46
4, 19024, Control_c, 3, 1, 48
4, 19040, Control_c, 3, 1, 45
4, 19040, Control_c, 3, 1, 39
4, 19056, Control_c, 3, 1, 34
4, 19056, Control_c, 3, 1, 32
4, 19072, Control_c, 3, 1, 30
4, 19072, Control_c, 3, 1, 27
4, 19104, Control_c, 3, 1, 34
4, 19104, Control_c, 3, 1, 41
4, 19120, Control_c, 3, 1, 46
4, 19120, Control_c, 3, 1, 54
4, 19136, Control_c, 3, 1, 63
4, 19136, Control_c, 3, 1, 68
4, 19152, Control_c, 3, 1, 72
4, 19152, Control_c, 3, 1, 77
4, 19168, Control_c, 3, 1, 81
4, 19168, Control_c, 3, 1, 84
4, 19184, Control_c, 3, 1, 86
4, 19184, Control_c, 3, 1, 88
4, 19200, Control_c, 3, 1, 77
4, 19216, Control_c, 3, 1, 54
4, 19216, Control_c, 3, 1, 23
4, 19232, Control_c, 3, 1, 0
4, 19344, Note_off_c, 3, 55, 0
4, 19376, Note_on_c, 3, 52, 121
4, 19568, Note_off_c, 3, 52, 0
4, 19584, Note_on_c, 3, 50, 121
4, 19680, Pitch_bend_c, 3, 8352
4, 19696, Pitch_bend_c, 3, 8688
4, 19696, Pitch_bend_c, 3, 9312
4, 19712, Pitch_bend_c, 3, 9728
4, 19712, Pitch_bend_c, 3, 10224
4, 19712, Pitch_bend_c, 3, 10800
4, 19728, Pitch_bend_c, 3, 11472
4, 19728, Pitch_bend_c, 3, 12096
4, 19744, Pitch_bend_c, 3, 12928
4, 19744, Pitch_bend_c, 3, 13808
4, 19760, Pitch_bend_c, 3, 14640
4, 19760, Pitch_bend_c, 3, 15632
4, 19776, Pitch_bend_c, 3, 16383
4, 19968, Control_c, 3, 1, 5
4, 19984, Control_c, 3, 1, 12
4, 19984, Control_c, 3, 1, 19
4, 20000, Control_c, 3, 1, 25
4, 20000, Control_c, 3, 1, 28
4, 20000, Control_c, 3, 1, 34
4, 20016, Control_c, 3, 1, 39
4, 20016, Control_c, 3, 1, 46
4, 20032, Control_c, 3, 1, 54
4, 20048, Control_c, 3, 1, 59
4, 20048, Control_c, 3, 1, 64
4, 20064, Control_c, 3, 1, 68
4, 20064, Control_c, 3, 1, 73
4, 20080, Control_c, 3, 1, 77
4, 20080, Control_c, 3, 1, 79
4, 20080, Control_c, 3, 1, 82
4, 20096, Control_c, 3, 1, 86
4, 20096, Control_c, 3, 1, 90
4, 20112, Control_c, 3, 1, 91
4, 20112, Control_c, 3, 1, 93
4, 20128, Control_c, 3, 1, 95
4, 20144, Control_c, 3, 1, 97
4, 20144, Control_c, 3, 1, 99
4, 20160, Control_c, 3, 1, 102
4, 20176, Control_c, 3, 1, 104
4, 20176, Control_c, 3, 1, 106
4, 20192, Control_c, 3, 1, 108
4, 20192, Control_c, 3, 1, 109
4, 20208, Control_c, 3, 1, 111
4, 20208, Control_c, 3, 1, 113
4, 20224, Control_c, 3, 1, 117
4, 20224, Control_c, 3, 1, 120
4, 20224, Control_c, 3, 1, 118
4, 20240, Control_c, 3, 1, 113
4, 20240, Control_c, 3, 1, 102
4, 20256, Control_c, 3, 1, 84
4, 20256, Control_c, 3, 1, 61
4, 20272, Note_off_c, 3, 50, 0
4, 20272, Control_c, 3, 1, 37
4, 20272, Control_c, 3, 1, 12
4, 20288, Control_c, 3, 1, 0
4, 20416, Pitch_bend_c, 3, 15792
4, 20416, Pitch_bend_c, 3, 15056
4, 20432, Pitch_bend_c, 3, 14064
4, 20432, Pitch_bend_c, 3, 12848
4, 20432, Pitch_bend_c, 3, 11584
4, 20448, Pitch_bend_c, 3, 10368
4, 20448, Pitch_bend_c, 3, 9424
4, 20464, Pitch_bend_c, 3, 8704
4, 20464, Pitch_bend_c, 3, 8192
4, 21600, Note_on_c, 3, 64, 121
4, 21696, Note_off_c, 3, 64, 0
4, 21696, Note_on_c, 3, 69, 121
4, 21840, Note_off_c, 3, 69, 0
4, 21888, Note_on_c, 3, 67, 121
4, 21952, Pitch_bend_c, 3, 8976
4, 21968, Pitch_bend_c, 3, 9728
4, 21968, Pitch_bend_c, 3, 10672
4, 21984, Pitch_bend_c, 3, 11632
4, 21984, Pitch_bend_c, 3, 12672
4, 22000, Pitch_bend_c, 3, 13680
4, 22000, Pitch_bend_c, 3, 14752
4, 22016, Pitch_bend_c, 3, 15664
4, 22016, Pitch_bend_c, 3, 16383
4, 22144, Control_c, 3, 1, 1
4, 22160, Control_c, 3, 1, 7
4, 22160, Control_c, 3, 1, 12
4, 22176, Control_c, 3, 1, 16
4, 22176, Control_c, 3, 1, 19
4, 22192, Control_c, 3, 1, 21
4, 22192, Control_c, 3, 1, 25
4, 22208, Control_c, 3, 1, 30
4, 22208, Control_c, 3, 1, 43
4, 22224, Control_c, 3, 1, 61
4, 22224, Control_c, 3, 1, 84
4, 22240, Control_c, 3, 1, 109
4, 22240, Control_c, 3, 1, 127
4, 22408, Note_off_c, 3, 67, 0
4, 22448, Control_c, 3, 1, 75
4, 22448, Control_c, 3, 1, 25
4, 22464, Control_c, 3, 1, 0
4, 22512, Pitch_bend_c, 3, 15552
4, 22528, Pitch_bend_c, 3, 14176
4, 22528, Pitch_bend_c, 3, 12480
4, 22544, Pitch_bend_c, 3, 10784
4, 22544, Pitch_bend_c, 3, 9312
4, 22560, Pitch_bend_c, 3, 8192
4, 22832, Note_on_c, 3, 59, 121
4, 23008, Note_off_c, 3, 59, 0
4, 23040, Note_on_c, 3, 60, 121
4, 23328, Control_c, 3, 1, 1
4, 23344, Control_c, 3, 1, 14
4, 23344, Control_c, 3, 1, 28
4, 23360, Control_c, 3, 1, 39
4, 23360, Control_c, 3, 1, 50
4, 23376, Control_c, 3, 1, 61
4, 23376, Control_c, 3, 1, 73
4, 23392, Control_c, 3, 1, 88
4, 23392, Control_c, 3, 1, 104
4, 23408, Control_c, 3, 1, 117
4, 23408, Control_c, 3, 1, 127
4, 23536, Control_c, 3, 1, 124
4, 23552, Control_c, 3, 1, 97
4, 23552, Control_c, 3, 1, 64
4, 23552, Control_c, 3, 1, 32
4, 23568, Control_c, 3, 1, 0
4, 23600, Note_off_c, 3, 60, 0
4, 24000, Note_on_c, 3, 62, 116
4, 24016, Pitch_bend_c, 3, 8848
4, 24016, Pitch_bend_c, 3, 9808
4, 24032, Pitch_bend_c, 3, 10608
4, 24048, Pitch_bend_c, 3, 11824
4, 24048, Pitch_bend_c, 3, 12768
4, 24048, Pitch_bend_c, 3, 13984
4, 24064, Pitch_bend_c, 3, 15168
4, 24064, Pitch_bend_c, 3, 16288
4, 24080, Pitch_bend_c, 3, 16383
4, 24144, Note_off_c, 3, 62, 0
4, 24160, Pitch_bend_c, 3, 16288
4, 24160, Pitch_bend_c, 3, 15136
4, 24176, Pitch_bend_c, 3, 13424
4, 24192, Pitch_bend_c, 3, 10112
4, 24192, Pitch_bend_c, 3, 8464
4, 24208, Pitch_bend_c, 3, 8192
4, 24224, Note_on_c, 3, 62, 121
4, 24480, Note_off_c, 3, 62, 0
4, 24512, Note_on_c, 3, 57, 121
4, 24944, Note_off_c, 3, 57, 0
4, 25136, Note_on_c, 3, 57, 121
4, 25344, Note_on_c, 3, 55, 113
4, 25360, Note_off_c, 3, 57, 0
4, 25408, Pitch_bend_c, 3, 8896
4, 25408, Pitch_bend_c, 3, 9760
4, 25424, Pitch_bend_c, 3, 10832
4, 25424, Pitch_bend_c, 3, 11744
4, 25440, Pitch_bend_c, 3, 12672
4, 25440, Pitch_bend_c, 3, 13424
4, 25456, Pitch_bend_c, 3, 14224
4, 25456, Pitch_bend_c, 3, 15056
4, 25472, Pitch_bend_c, 3, 15872
4, 25472, Pitch_bend_c, 3, 16383
4, 25600, Control_c, 3, 1, 7
4, 25600, Control_c, 3, 1, 27
4, 25616, Control_c, 3, 1, 52
4, 25616, Control_c, 3, 1, 79
4, 25632, Control_c, 3, 1, 104
4, 25632, Control_c, 3, 1, 127
4, 25840, Control_c, 3, 1, 70
4, 25840, Control_c, 3, 1, 18
4, 25856, Control_c, 3, 1, 0
4, 25872, Note_off_c, 3, 55, 0
4, 25888, Pitch_bend_c, 3, 15168
4, 25888, Pitch_bend_c, 3, 13312
4, 25904, Pitch_bend_c, 3, 11520
4, 25904, Pitch_bend_c, 3, 9504
4, 25920, Pitch_bend_c, 3, 8192
4, 26272, Note_on_c, 3, 57, 121
4, 26440, Note_off_c, 3, 57, 0
4, 26496, Note_on_c, 3, 55, 114
4, 26544, Pitch_bend_c, 3, 8896
4, 26544, Pitch_bend_c, 3, 9760
4, 26560, Pitch_bend_c, 3, 10384
4, 26560, Pitch_bend_c, 3, 11248
4, 26576, Pitch_bend_c, 3, 11776
4, 26576, Pitch_bend_c, 3, 12544
4, 26592, Pitch_bend_c, 3, 13088
4, 26592, Pitch_bend_c, 3, 13952
4, 26608, Pitch_bend_c, 3, 14496
4, 26608, Pitch_bend_c, 3, 15168
4, 26624, Pitch_bend_c, 3, 15584
4, 26624, Pitch_bend_c, 3, 16240
4, 26640, Pitch_bend_c, 3, 16383
4, 26640, Control_c, 3, 1, 3
4, 26656, Control_c, 3, 1, 16
4, 26656, Control_c, 3, 1, 25
4, 26672, Control_c, 3, 1, 30
4, 26672, Control_c, 3, 1, 34
4, 26688, Control_c, 3, 1, 39
4, 26688, Control_c, 3, 1, 41
4, 26704, Control_c, 3, 1, 45
4, 26704, Control_c, 3, 1, 46
4, 26720, Control_c, 3, 1, 48
4, 26720, Control_c, 3, 1, 52
4, 26736, Control_c, 3, 1, 55
4, 26736, Control_c, 3, 1, 57
4, 26752, Control_c, 3, 1, 63
4, 26752, Control_c, 3, 1, 68
4, 26768, Control_c, 3, 1, 73
4, 26768, Control_c, 3, 1, 77
4, 26784, Control_c, 3, 1, 81
4, 26784, Control_c, 3, 1, 82
4, 26800, Control_c, 3, 1, 86
4, 26800, Control_c, 3, 1, 90
4, 26816, Control_c, 3, 1, 93
4, 26816, Control_c, 3, 1, 97
4, 26832, Control_c, 3, 1, 99
4, 26832, Control_c, 3, 1, 102
4, 26832, Control_c, 3, 1, 104
4, 26848, Control_c, 3, 1, 108
4, 26848, Control_c, 3, 1, 109
4, 26864, Control_c, 3, 1, 111
4, 26864, Control_c, 3, 1, 115
4, 26880, Control_c, 3, 1, 118
4, 26912, Control_c, 3, 1, 117
4, 26928, Control_c, 3, 1, 118
4, 26960, Control_c, 3, 1, 115
4, 26960, Control_c, 3, 1, 106
4, 26976, Control_c, 3, 1, 91
4, 26976, Control_c, 3, 1, 73
4, 26992, Control_c, 3, 1, 52
4, 26992, Control_c, 3, 1, 28
4, 27008, Control_c, 3, 1, 5
4, 27008, Control_c, 3, 1, 0
4, 27040, Note_off_c, 3, 55, 0
4, 27088, Pitch_bend_c, 3, 15680
4, 27104, Pitch_bend_c, 3, 14448
4, 27104, Pitch_bend_c, 3, 13040
4, 27120, Pitch_bend_c, 3, 11776
4, 27120, Pitch_bend_c, 3, 10496
4, 27136, Pitch_bend_c, 3, 9152
4, 27136, Pitch_bend_c, 3, 8192
4, 27440, Note_on_c, 3, 57, 121
4, 27552, Note_off_c, 3, 57, 0
4, 27648, Note_on_c, 3, 56, 121
4, 27904, Note_off_c, 3, 56, 0
4, 27936, Note_on_c, 3, 52, 109
4, 28256, Note_off_c, 3, 52, 0
4, 28544, Note_on_c, 3, 52, 99
4, 28608, Note_on_c, 3, 56, 114
4, 28624, Note_off_c, 3, 52, 0
4, 28768, Note_off_c, 3, 56, 0
4, 28816, Note_on_c, 3, 57, 117
4, 29088, Control_c, 3, 1, 10
4, 29104, Control_c, 3, 1, 21
4, 29104, Control_c, 3, 1, 32
4, 29120, Control_c, 3, 1, 43
4, 29120, Control_c, 3, 1, 54
4, 29136, Control_c, 3, 1, 61
4, 29136, Control_c, 3, 1, 68
4, 29152, Control_c, 3, 1, 73
4, 29152, Control_c, 3, 1, 81
4, 29168, Control_c, 3, 1, 86
4, 29168, Control_c, 3, 1, 90
4, 29184, Control_c, 3, 1, 93
4, 29184, Control_c, 3, 1, 97
4, 29200, Control_c, 3, 1, 100
4, 29200, Control_c, 3, 1, 104
4, 29216, Control_c, 3, 1, 108
4, 29216, Control_c, 3, 1, 109
4, 29232, Control_c, 3, 1, 113
4, 29232, Control_c, 3, 1, 117
4, 29248, Control_c, 3, 1, 118
4, 29248, Control_c, 3, 1, 122
4, 29264, Control_c, 3, 1, 124
4, 29264, Control_c, 3, 1, 126
4, 29264, Control_c, 3, 1, 127
4, 29312, Control_c, 3, 1, 122
4, 29328, Control_c, 3, 1, 108
4, 29328, Control_c, 3, 1, 90
4, 29344, Control_c, 3, 1, 66
4, 29344, Control_c, 3, 1, 41
4, 29360, Control_c, 3, 1, 18
4, 29360, Control_c, 3, 1, 0
4, 29368, Note_off_c, 3, 57, 0
4, 37824, Note_on_c, 3, 69, 127
4, 38032, Note_on_c, 3, 67, 127
4, 38040, Note_off_c, 3, 69, 0
4, 38080, Pitch_bend_c, 3, 8288
4, 38080, Pitch_bend_c, 3, 9152
4, 38096, Pitch_bend_c, 3, 10000
4, 38096, Pitch_bend_c, 3, 10720
4, 38096, Pitch_bend_c, 3, 11712
4, 38112, Pitch_bend_c, 3, 12272
4, 38112, Pitch_bend_c, 3, 13184
4, 38128, Pitch_bend_c, 3, 13872
4, 38128, Pitch_bend_c, 3, 14784
4, 38144, Pitch_bend_c, 3, 15680
4, 38144, Pitch_bend_c, 3, 16383
4, 38400, Control_c, 3, 1, 14
4, 38416, Control_c, 3, 1, 21
4, 38416, Control_c, 3, 1, 28
4, 38432, Control_c, 3, 1, 34
4, 38432, Control_c, 3, 1, 39
4, 38448, Control_c, 3, 1, 41
4, 38464, Control_c, 3, 1, 45
4, 38464, Control_c, 3, 1, 55
4, 38480, Control_c, 3, 1, 68
4, 38480, Control_c, 3, 1, 82
4, 38496, Control_c, 3, 1, 93
4, 38496, Control_c, 3, 1, 102
4, 38496, Control_c, 3, 1, 111
4, 38512, Control_c, 3, 1, 117
4, 38512, Control_c, 3, 1, 122
4, 38528, Control_c, 3, 1, 127
4, 38816, Control_c, 3, 1, 115
4, 38816, Control_c, 3, 1, 97
4, 38832, Control_c, 3, 1, 81
4, 38832, Control_c, 3, 1, 68
4, 38848, Control_c, 3, 1, 57
4, 38848, Control_c, 3, 1, 48
4, 38864, Control_c, 3, 1, 36
4, 38864, Control_c, 3, 1, 19
4, 38880, Control_c, 3, 1, 3
4, 38880, Control_c, 3, 1, 0
4, 38912, Note_off_c, 3, 67, 0
4, 38928, Pitch_bend_c, 3, 15184
4, 38944, Pitch_bend_c, 3, 13344
4, 38944, Pitch_bend_c, 3, 10992
4, 38960, Pitch_bend_c, 3, 8320
4, 38960, Pitch_bend_c, 3, 8192
4, 38976, Note_on_c, 3, 69, 127
4, 39184, Note_on_c, 3, 67, 127
4, 39216, Note_off_c, 3, 69, 0
4, 39456, Control_c, 3, 1, 9
4, 39472, Control_c, 3, 1, 25
4, 39472, Control_c, 3, 1, 37
4, 39488, Control_c, 3, 1, 41
4, 39504, Control_c, 3, 1, 37
4, 39504, Control_c, 3, 1, 45
4, 39520, Control_c, 3, 1, 52
4, 39520, Control_c, 3, 1, 57
4, 39536, Control_c, 3, 1, 63
4, 39536, Control_c, 3, 1, 66
4, 39552, Control_c, 3, 1, 70
4, 39552, Control_c, 3, 1, 75
4, 39568, Control_c, 3, 1, 81
4, 39568, Control_c, 3, 1, 84
4, 39584, Control_c, 3, 1, 82
4, 39584, Control_c, 3, 1, 75
4, 39600, Control_c, 3, 1, 68
4, 39600, Control_c, 3, 1, 64
4, 39632, Control_c, 3, 1, 70
4, 39632, Control_c, 3, 1, 72
4, 39648, Control_c, 3, 1, 75
4, 39648, Control_c, 3, 1, 79
4, 39664, Control_c, 3, 1, 77
4, 39664, Control_c, 3, 1, 72
4, 39680, Control_c, 3, 1, 66
4, 39680, Control_c, 3, 1, 59
4, 39696, Control_c, 3, 1, 52
4, 39696, Control_c, 3, 1, 48
4, 39712, Control_c, 3, 1, 46
4, 39728, Control_c, 3, 1, 48
4, 39744, Control_c, 3, 1, 45
4, 39744, Control_c, 3, 1, 34
4, 39760, Control_c, 3, 1, 21
4, 39760, Control_c, 3, 1, 9
4, 39776, Control_c, 3, 1, 0
4, 40000, Note_off_c, 3, 67, 0
4, 40096, Note_on_c, 3, 62, 122
4, 40112, Pitch_bend_c, 3, 8288
4, 40112, Pitch_bend_c, 3, 9696
4, 40128, Pitch_bend_c, 3, 11184
4, 40128, Pitch_bend_c, 3, 12400
4, 40144, Pitch_bend_c, 3, 13376
4, 40144, Pitch_bend_c, 3, 14688
4, 40160, Pitch_bend_c, 3, 15776
4, 40160, Pitch_bend_c, 3, 16383
4, 40256, Note_off_c, 3, 62, 0
4, 40272, Pitch_bend_c, 3, 15984
4, 40272, Pitch_bend_c, 3, 14496
4, 40288, Pitch_bend_c, 3, 12320
4, 40288, Pitch_bend_c, 3, 10176
4, 40304, Pitch_bend_c, 3, 8192
4, 40336, Note_on_c, 3, 62, 127
4, 40560, Note_off_c, 3, 62, 0
4, 40576, Note_on_c, 3, 57, 106
4, 41264, Control_c, 3, 1, 5
4, 41264, Control_c, 3, 1, 9
4, 41280, Control_c, 3, 1, 14
4, 41280, Control_c, 3, 1, 16
4, 41296, Control_c, 3, 1, 19
4, 41296, Control_c, 3, 1, 21
4, 41312, Control_c, 3, 1, 25
4, 41312, Control_c, 3, 1, 27
4, 41328, Control_c, 3, 1, 30
4, 41328, Control_c, 3, 1, 32
4, 41344, Control_c, 3, 1, 36
4, 41344, Control_c, 3, 1, 39
4, 41360, Control_c, 3, 1, 43
4, 41360, Control_c, 3, 1, 46
4, 41360, Control_c, 3, 1, 50
4, 41376, Control_c, 3, 1, 54
4, 41376, Control_c, 3, 1, 57
4, 41392, Control_c, 3, 1, 59
4, 41392, Control_c, 3, 1, 61
4, 41408, Control_c, 3, 1, 63
4, 41408, Control_c, 3, 1, 64
4, 41424, Control_c, 3, 1, 68
4, 41424, Control_c, 3, 1, 70
4, 41440, Control_c, 3, 1, 72
4, 41456, Control_c, 3, 1, 73
4, 41456, Control_c, 3, 1, 75
4, 41488, Control_c, 3, 1, 81
4, 41488, Control_c, 3, 1, 84
4, 41504, Control_c, 3, 1, 86
4, 41520, Control_c, 3, 1, 90
4, 41536, Control_c, 3, 1, 91
4, 41536, Control_c, 3, 1, 95
4, 41552, Control_c, 3, 1, 97
4, 41568, Control_c, 3, 1, 99
4, 41568, Control_c, 3, 1, 100
4, 41616, Control_c, 3, 1, 99
4, 41616, Control_c, 3, 1, 93
4, 41616, Control_c, 3, 1, 86
4, 41632, Control_c, 3, 1, 75
4, 41632, Control_c, 3, 1, 64
4, 41648, Control_c, 3, 1, 52
4, 41664, Control_c, 3, 1, 34
4, 41664, Control_c, 3, 1, 12
4, 41680, Control_c, 3, 1, 0
4, 41728, Note_off_c, 3, 57, 0
4, 42432, Note_on_c, 3, 69, 127
4, 42624, Note_off_c, 3, 69, 0
4, 42624, Note_on_c, 3, 67, 127
4, 42672, Pitch_bend_c, 3, 8816
4, 42688, Pitch_bend_c, 3, 9728
4, 42688, Pitch_bend_c, 3, 10560
4, 42704, Pitch_bend_c, 3, 11280
4, 42704, Pitch_bend_c, 3, 12160
4, 42720, Pitch_bend_c, 3, 12880
4, 42720, Pitch_bend_c, 3, 13840
4, 42736, Pitch_bend_c, 3, 14784
4, 42736, Pitch_bend_c, 3, 15824
4, 42752, Pitch_bend_c, 3, 16383
4, 42912, Control_c, 3, 1, 9
4, 42912, Control_c, 3, 1, 19
4, 42928, Control_c, 3, 1, 28
4, 42928, Control_c, 3, 1, 34
4, 42944, Control_c, 3, 1, 37
4, 42944, Control_c, 3, 1, 41
4, 42960, Control_c, 3, 1, 46
4, 42960, Control_c, 3, 1, 52
4, 42976, Control_c, 3, 1, 61
4, 42976, Control_c, 3, 1, 72
4, 42992, Control_c, 3, 1, 86
4, 42992, Control_c, 3, 1, 99
4, 43008, Control_c, 3, 1, 108
4, 43008, Control_c, 3, 1, 115
4, 43024, Control_c, 3, 1, 118
4, 43024, Control_c, 3, 1, 122
4, 43024, Control_c, 3, 1, 127
4, 43328, Control_c, 3, 1, 111
4, 43344, Control_c, 3, 1, 93
4, 43344, Control_c, 3, 1, 66
4, 43360, Control_c, 3, 1, 36
4, 43360, Control_c, 3, 1, 9
4, 43360, Control_c, 3, 1, 0
4, 43440, Note_off_c, 3, 67, 0
4, 43440, Pitch_bend_c, 3, 15744
4, 43456, Pitch_bend_c, 3, 14336
4, 43456, Pitch_bend_c, 3, 12432
4, 43472, Pitch_bend_c, 3, 10528
4, 43472, Pitch_bend_c, 3, 8656
4, 43488, Pitch_bend_c, 3, 8192
4, 43552, Note_on_c, 3, 69, 127
4, 43760, Note_off_c, 3, 69, 0
4, 43776, Note_on_c, 3, 67, 127
4, 44288, Control_c, 3, 1, 7
4, 44288, Control_c, 3, 1, 18
4, 44304, Control_c, 3, 1, 27
4, 44304, Control_c, 3, 1, 34
4, 44320, Control_c, 3, 1, 41
4, 44320, Control_c, 3, 1, 46
4, 44320, Control_c, 3, 1, 50
4, 44336, Control_c, 3, 1, 54
4, 44352, Control_c, 3, 1, 57
4, 44368, Control_c, 3, 1, 61
4, 44368, Control_c, 3, 1, 63
4, 44400, Control_c, 3, 1, 66
4, 44416, Control_c, 3, 1, 70
4, 44416, Control_c, 3, 1, 73
4, 44416, Control_c, 3, 1, 75
4, 44432, Control_c, 3, 1, 79
4, 44432, Control_c, 3, 1, 81
4, 44448, Control_c, 3, 1, 84
4, 44448, Control_c, 3, 1, 86
4, 44464, Control_c, 3, 1, 82
4, 44464, Control_c, 3, 1, 68
4, 44480, Control_c, 3, 1, 46
4, 44480, Control_c, 3, 1, 23
4, 44496, Control_c, 3, 1, 1
4, 44496, Control_c, 3, 1, 0
4, 44688, Note_off_c, 3, 67, 0
4, 44720, Note_on_c, 3, 64, 121
4, 44912, Note_off_c, 3, 64, 0
4, 44928, Note_on_c, 3, 62, 119
4, 44960, Pitch_bend_c, 3, 8352
4, 44976, Pitch_bend_c, 3, 9808
4, 44976, Pitch_bend_c, 3, 10912
4, 44992, Pitch_bend_c, 3, 12208
4, 44992, Pitch_bend_c, 3, 13376
4, 45008, Pitch_bend_c, 3, 14576
4, 45008, Pitch_bend_c, 3, 15712
4, 45024, Pitch_bend_c, 3, 16383
4, 45232, Control_c, 3, 1, 3
4, 45248, Control_c, 3, 1, 7
4, 45248, Control_c, 3, 1, 10
4, 45264, Control_c, 3, 1, 14
4, 45264, Control_c, 3, 1, 19
4, 45280, Control_c, 3, 1, 27
4, 45280, Control_c, 3, 1, 36
4, 45296, Control_c, 3, 1, 41
4, 45296, Control_c, 3, 1, 46
4, 45312, Control_c, 3, 1, 54
4, 45312, Control_c, 3, 1, 57
4, 45328, Control_c, 3, 1, 59
4, 45344, Control_c, 3, 1, 63
4, 45344, Control_c, 3, 1, 66
4, 45360, Control_c, 3, 1, 72
4, 45360, Control_c, 3, 1, 77
4, 45376, Control_c, 3, 1, 81
4, 45376, Control_c, 3, 1, 84
4, 45392, Control_c, 3, 1, 88
4, 45392, Control_c, 3, 1, 93
4, 45392, Control_c, 3, 1, 97
4, 45408, Control_c, 3, 1, 100
4, 45408, Control_c, 3, 1, 102
4, 45424, Control_c, 3, 1, 106
4, 45472, Control_c, 3, 1, 104
4, 45504, Control_c, 3, 1, 100
4, 45504, Control_c, 3, 1, 93
4, 45520, Control_c, 3, 1, 84
4, 45520, Control_c, 3, 1, 73
4, 45536, Control_c, 3, 1, 61
4, 45536, Control_c, 3, 1, 46
4, 45552, Control_c, 3, 1, 30
4, 45552, Control_c, 3, 1, 14
4, 45568, Control_c, 3, 1, 0
4, 45632, Note_off_c, 3, 62, 0
4, 45728, Pitch_bend_c, 3, 16080
4, 45744, Pitch_bend_c, 3, 15248
4, 45744, Pitch_bend_c, 3, 14256
4, 45760, Pitch_bend_c, 3, 12928
4, 45760, Pitch_bend_c, 3, 11792
4, 45776, Pitch_bend_c, 3, 10752
4, 45776, Pitch_bend_c, 3, 9808
4, 45792, Pitch_bend_c, 3, 8400
4, 45792, Pitch_bend_c, 3, 8192
4, 47024, Note_on_c, 3, 69, 127
4, 47224, Note_off_c, 3, 69, 0
4, 47248, Note_on_c, 3, 67, 127
4, 47280, Pitch_bend_c, 3, 8512
4, 47296, Pitch_bend_c, 3, 9872
4, 47296, Pitch_bend_c, 3, 11136
4, 47312, Pitch_bend_c, 3, 12176
4, 47312, Pitch_bend_c, 3, 13184
4, 47312, Pitch_bend_c, 3, 14176
4, 47328, Pitch_bend_c, 3, 15072
4, 47328, Pitch_bend_c, 3, 15792
4, 47344, Pitch_bend_c, 3, 16383
4, 47600, Control_c, 3, 1, 3
4, 47616, Control_c, 3, 1, 9
4, 47616, Control_c, 3, 1, 12
4, 47632, Control_c, 3, 1, 16
4, 47632, Control_c, 3, 1, 19
4, 47648, Control_c, 3, 1, 21
4, 47664, Control_c, 3, 1, 27
4, 47664, Control_c, 3, 1, 32
4, 47680, Control_c, 3, 1, 37
4, 47680, Control_c, 3, 1, 45
4, 47696, Control_c, 3, 1, 52
4, 47696, Control_c, 3, 1, 59
4, 47712, Control_c, 3, 1, 63
4, 47712, Control_c, 3, 1, 64
4, 47728, Control_c, 3, 1, 66
4, 47728, Control_c, 3, 1, 68
4, 47744, Control_c, 3, 1, 70
4, 47744, Control_c, 3, 1, 72
4, 47760, Control_c, 3, 1, 73
4, 47760, Control_c, 3, 1, 77
4, 47776, Control_c, 3, 1, 79
4, 47776, Control_c, 3, 1, 82
4, 47792, Control_c, 3, 1, 86
4, 47792, Control_c, 3, 1, 88
4, 47808, Control_c, 3, 1, 90
4, 47808, Control_c, 3, 1, 93
4, 47824, Control_c, 3, 1, 95
4, 47824, Control_c, 3, 1, 97
4, 47840, Control_c, 3, 1, 100
4, 47840, Control_c, 3, 1, 104
4, 47856, Control_c, 3, 1, 108
4, 47856, Control_c, 3, 1, 111
4, 47872, Control_c, 3, 1, 117
4, 47872, Control_c, 3, 1, 122
4, 47872, Control_c, 3, 1, 127
4, 47968, Control_c, 3, 1, 124
4, 47984, Control_c, 3, 1, 118
4, 47984, Control_c, 3, 1, 111
4, 48000, Control_c, 3, 1, 102
4, 48000, Control_c, 3, 1, 88
4, 48016, Control_c, 3, 1, 75
4, 48016, Control_c, 3, 1, 61
4, 48032, Control_c, 3, 1, 45
4, 48032, Control_c, 3, 1, 28
4, 48048, Control_c, 3, 1, 16
4, 48048, Control_c, 3, 1, 7
4, 48048, Control_c, 3, 1, 0
4, 48080, Note_off_c, 3, 67, 0
4, 48144, Pitch_bend_c, 3, 15584
4, 48144, Pitch_bend_c, 3, 13616
4, 48160, Pitch_bend_c, 3, 11376
4, 48160, Pitch_bend_c, 3, 8688
4, 48160, Pitch_bend_c, 3, 8192
4, 48176, Note_on_c, 3, 69, 127
4, 48400, Note_on_c, 3, 67, 127
4, 48416, Note_off_c, 3, 69, 0
4, 48928, Control_c, 3, 1, 1
4, 48928, Control_c, 3, 1, 3
4, 48944, Control_c, 3, 1, 5
4, 48976, Control_c, 3, 1, 9
4, 48992, Control_c, 3, 1, 10
4, 48992, Control_c, 3, 1, 12
4, 49008, Control_c, 3, 1, 14
4, 49008, Control_c, 3, 1, 18
4, 49024, Control_c, 3, 1, 21
4, 49024, Control_c, 3, 1, 25
4, 49040, Control_c, 3, 1, 28
4, 49040, Control_c, 3, 1, 32
4, 49056, Control_c, 3, 1, 36
4, 49056, Control_c, 3, 1, 37
4, 49072, Control_c, 3, 1, 41
4, 49072, Control_c, 3, 1, 37
4, 49072, Control_c, 3, 1, 28
4, 49088, Control_c, 3, 1, 16
4, 49088, Control_c, 3, 1, 1
4, 49104, Control_c, 3, 1, 0
4, 49200, Note_off_c, 3, 67, 0
4, 49312, Note_on_c, 3, 60, 127
4, 49408, Note_off_c, 3, 60, 0
4, 49536, Note_on_c, 3, 62, 127
4, 49720, Note_off_c, 3, 62, 0
4, 49728, Note_on_c, 3, 57, 126
4, 50688, Note_on_c, 3, 60, 123
4, 50712, Note_off_c, 3, 57, 0
4, 50992, Note_off_c, 3, 60, 0
4, 51632, Note_on_c, 3, 57, 127
4, 51840, Note_off_c, 3, 57, 0
4, 51840, Note_on_c, 3, 55, 126
4, 51888, Pitch_bend_c, 3, 8784
4, 51904, Pitch_bend_c, 3, 9504
4, 51904, Pitch_bend_c, 3, 10416
4, 51920, Pitch_bend_c, 3, 11104
4, 51920, Pitch_bend_c, 3, 12240
4, 51936, Pitch_bend_c, 3, 13008
4, 51936, Pitch_bend_c, 3, 14256
4, 51952, Pitch_bend_c, 3, 15296
4, 51952, Pitch_bend_c, 3, 16383
4, 52272, Control_c, 3, 1, 3
4, 52288, Control_c, 3, 1, 7
4, 52288, Control_c, 3, 1, 10
4, 52288, Control_c, 3, 1, 12
4, 52304, Control_c, 3, 1, 16
4, 52304, Control_c, 3, 1, 18
4, 52320, Control_c, 3, 1, 19
4, 52320, Control_c, 3, 1, 21
4, 52336, Control_c, 3, 1, 23
4, 52352, Control_c, 3, 1, 25
4, 52352, Control_c, 3, 1, 27
4, 52368, Control_c, 3, 1, 28
4, 52368, Control_c, 3, 1, 30
4, 52384, Control_c, 3, 1, 32
4, 52384, Control_c, 3, 1, 36
4, 52400, Control_c, 3, 1, 37
4, 52416, Control_c, 3, 1, 41
4, 52416, Control_c, 3, 1, 43
4, 52432, Control_c, 3, 1, 45
4, 52432, Control_c, 3, 1, 46
4, 52448, Control_c, 3, 1, 50
4, 52496, Control_c, 3, 1, 46
4, 52512, Control_c, 3, 1, 41
4, 52512, Control_c, 3, 1, 34
4, 52528, Control_c, 3, 1, 28
4, 52528, Control_c, 3, 1, 19
4, 52544, Control_c, 3, 1, 9
4, 52544, Control_c, 3, 1, 0
4, 52648, Note_off_c, 3, 55, 0
4, 52672, Pitch_bend_c, 3, 15792
4, 52688, Pitch_bend_c, 3, 14304
4, 52688, Pitch_bend_c, 3, 12544
4, 52704, Pitch_bend_c, 3, 10496
4, 52704, Pitch_bend_c, 3, 8768
4, 52720, Pitch_bend_c, 3, 8192
4, 52768, Note_on_c, 3, 57, 127
4, 52976, Note_off_c, 3, 57, 0
4, 52992, Note_on_c, 3, 56, 127
4, 53184, Note_off_c, 3, 56, 0
4, 53200, Note_on_c, 3, 52, 123
4, 53952, Note_on_c, 3, 56, 127
4, 53968, Note_off_c, 3, 52, 0
4, 54144, Note_off_c, 3, 56, 0
4, 54160, Note_on_c, 3, 57, 120
4, 54576, Control_c, 3, 1, 9
4, 54576, Control_c, 3, 1, 18
4, 54592, Control_c, 3, 1, 27
4, 54592, Control_c, 3, 1, 36
4, 54608, Control_c, 3, 1, 45
4, 54608, Control_c, 3, 1, 54
4, 54624, Control_c, 3, 1, 64
4, 54624, Control_c, 3, 1, 73
4, 54640, Control_c, 3, 1, 81
4, 54640, Control_c, 3, 1, 86
4, 54656, Control_c, 3, 1, 91
4, 54656, Control_c, 3, 1, 97
4, 54672, Control_c, 3, 1, 100
4, 54672, Control_c, 3, 1, 106
4, 54688, Control_c, 3, 1, 109
4, 54688, Control_c, 3, 1, 111
4, 54688, Control_c, 3, 1, 115
4, 54704, Control_c, 3, 1, 117
4, 54720, Control_c, 3, 1, 120
4, 54720, Control_c, 3, 1, 126
4, 54736, Control_c, 3, 1, 127
4, 54752, Control_c, 3, 1, 126
4, 54752, Control_c, 3, 1, 120
4, 54768, Control_c, 3, 1, 109
4, 54768, Control_c, 3, 1, 95
4, 54784, Note_off_c, 3, 57, 0
4, 54784, Control_c, 3, 1, 75
4, 54784, Control_c, 3, 1, 54
4, 54800, Control_c, 3, 1, 36
4, 54800, Control_c, 3, 1, 14
4, 54816, Control_c, 3, 1, 0
4, 63168, Note_on_c, 3, 69, 127
4, 63376, Note_on_c, 3, 67, 127
4, 63384, Note_off_c, 3, 69, 0
4, 63424, Pitch_bend_c, 3, 8288
4, 63424, Pitch_bend_c, 3, 9152
4, 63440, Pitch_bend_c, 3, 10000
4, 63440, Pitch_bend_c, 3, 10720
4, 63440, Pitch_bend_c, 3, 11712
4, 63456, Pitch_bend_c, 3, 12272
4, 63456, Pitch_bend_c, 3, 13184
4, 63472, Pitch_bend_c, 3, 13872
4, 63472, Pitch_bend_c, 3, 14784
4, 63488, Pitch_bend_c, 3, 15680
4, 63488, Pitch_bend_c, 3, 16383
4, 63744, Control_c, 3, 1, 14
4, 63760, Control_c, 3, 1, 21
4, 63760, Control_c, 3, 1, 28
4, 63776, Control_c, 3, 1, 34
4, 63776, Control_c, 3, 1, 39
4, 63792, Control_c, 3, 1, 41
4, 63808, Control_c, 3, 1, 45
4, 63808, Control_c, 3, 1, 55
4, 63824, Control_c, 3, 1, 68
4, 63824, Control_c, 3, 1, 82
4, 63840, Control_c, 3, 1, 93
4, 63840, Control_c, 3, 1, 102
4, 63840, Control_c, 3, 1, 111
4, 63856, Control_c, 3, 1, 117
4, 63856, Control_c, 3, 1, 122
4, 63872, Control_c, 3, 1, 127
4, 64160, Control_c, 3, 1, 115
4, 64160, Control_c, 3, 1, 97
4, 64176, Control_c, 3, 1, 81
4, 64176, Control_c, 3, 1, 68
4, 64192, Control_c, 3, 1, 57
4, 64192, Control_c, 3, 1, 48
4, 64208, Control_c, 3, 1, 36
4, 64208, Control_c, 3, 1, 19
4, 64224, Control_c, 3, 1, 3
4, 64224, Control_c, 3, 1, 0
4, 64256, Note_off_c, 3, 67, 0
4, 64272, Pitch_bend_c, 3, 15184
4, 64288, Pitch_bend_c, 3, 13344
4, 64288, Pitch_bend_c, 3, 10992
4, 64304, Pitch_bend_c, 3, 8320
4, 64304, Pitch_bend_c, 3, 8192
4, 64320, Note_on_c, 3, 69, 127
4, 64528, Note_on_c, 3, 67, 127
4, 64560, Note_off_c, 3, 69, 0
4, 64800, Control_c, 3, 1, 9
4, 64816, Control_c, 3, 1, 25
4, 64816, Control_c, 3, 1, 37
4, 64832, Control_c, 3, 1, 41
4, 64848, Control_c, 3, 1, 37
4, 64848, Control_c, 3, 1, 45
4, 64864, Control_c, 3, 1, 52
4, 64864, Control_c, 3, 1, 57
4, 64880, Control_c, 3, 1, 63
4, 64880, Control_c, 3, 1, 66
4, 64896, Control_c, 3, 1, 70
4, 64896, Control_c, 3, 1, 75
4, 64912, Control_c, 3, 1, 81
4, 64912, Control_c, 3, 1, 84
4, 64928, Control_c, 3, 1, 82
4, 64928, Control_c, 3, 1, 75
4, 64944, Control_c, 3, 1, 68
4, 64944, Control_c, 3, 1, 64
4, 64976, Control_c, 3, 1, 70
4, 64976, Control_c, 3, 1, 72
4, 64992, Control_c, 3, 1, 75
4, 64992, Control_c, 3, 1, 79
4, 65008, Control_c, 3, 1, 77
4, 65008, Control_c, 3, 1, 72
4, 65024, Control_c, 3, 1, 66
4, 65024, Control_c, 3, 1, 59
4, 65040, Control_c, 3, 1, 52
4, 65040, Control_c, 3, 1, 48
4, 65056, Control_c, 3, 1, 46
4, 65072, Control_c, 3, 1, 48
4, 65088, Control_c, 3, 1, 45
4, 65088, Control_c, 3, 1, 34
4, 65104, Control_c, 3, 1, 21
4, 65104, Control_c, 3, 1, 9
4, 65120, Control_c, 3, 1, 0
4, 65344, Note_off_c, 3, 67, 0
4, 65440, Note_on_c, 3, 62, 122
4, 65456, Pitch_bend_c, 3, 8288
4, 65456, Pitch_bend_c, 3, 9696
4, 65472, Pitch_bend_c, 3, 11184
4, 65472, Pitch_bend_c, 3, 12400
4, 65488, Pitch_bend_c, 3, 13376
4, 65488, Pitch_bend_c, 3, 14688
4, 65504, Pitch_bend_c, 3, 15776
4, 65504, Pitch_bend_c, 3, 16383
4, 65600, Note_off_c, 3, 62, 0
4, 65616, Pitch_bend_c, 3, 15984
4, 65616, Pitch_bend_c, 3, 14496
4, 65632, Pitch_bend_c, 3, 12320
4, 65632, Pitch_bend_c, 3, 10176
4, 65648, Pitch_bend_c, 3, 8192
4, 65680, Note_on_c, 3, 62, 127
4, 65904, Note_off_c, 3, 62, 0
4, 65920, Note_on_c, 3, 57, 106
4, 66608, Control_c, 3, 1, 5
4, 66608, Control_c, 3, 1, 9
4, 66624, Control_c, 3, 1, 14
4, 66624, Control_c, 3, 1, 16
4, 66640, Control_c, 3, 1, 19
4, 66640, Control_c, 3, 1, 21
4, 66656, Control_c, 3, 1, 25
4, 66656, Control_c, 3, 1, 27
4, 66672, Control_c, 3, 1, 30
4, 66672, Control_c, 3, 1, 32
4, 66688, Control_c, 3, 1, 36
4, 66688, Control_c, 3, 1, 39
4, 66704, Control_c, 3, 1, 43
4, 66704, Control_c, 3, 1, 46
4, 66704, Control_c, 3, 1, 50
4, 66720, Control_c, 3, 1, 54
4, 66720, Control_c, 3, 1, 57
4, 66736, Control_c, 3, 1, 59
4, 66736, Control_c, 3, 1, 61
4, 66752, Control_c, 3, 1, 63
4, 66752, Control_c, 3, 1, 64
4, 66768, Control_c, 3, 1, 68
4, 66768, Control_c, 3, 1, 70
4, 66784, Control_c, 3, 1, 72
4, 66800, Control_c, 3, 1, 73
4, 66800, Control_c, 3, 1, 75
4, 66832, Control_c, 3, 1, 81
4, 66832, Control_c, 3, 1, 84
4, 66848, Control_c, 3, 1, 86
4, 66864, Control_c, 3, 1, 90
4, 66880, Control_c, 3, 1, 91
4, 66880, Control_c, 3, 1, 95
4, 66896, Control_c, 3, 1, 97
4, 66912, Control_c, 3, 1, 99
4, 66912, Control_c, 3, 1, 100
4, 66960, Control_c, 3, 1, 99
4, 66960, Control_c, 3, 1, 93
4, 66960, Control_c, 3, 1, 86
4, 66976, Control_c, 3, 1, 75
4, 66976, Control_c, 3, 1, 64
4, 66992, Control_c, 3, 1, 52
4, 67008, Control_c, 3, 1, 34
4, 67008, Control_c, 3, 1, 12
4, 67024, Control_c, 3, 1, 0
4, 67072, Note_off_c, 3, 57, 0
4, 67776, Note_on_c, 3, 69, 127
4, 67968, Note_off_c, 3, 69, 0
4, 67968, Note_on_c, 3, 67, 127
4, 68016, Pitch_bend_c, 3, 8816
4, 68032, Pitch_bend_c, 3, 9728
4, 68032, Pitch_bend_c, 3, 10560
4, 68048, Pitch_bend_c, 3, 11280
4, 68048, Pitch_bend_c, 3, 12160
4, 68064, Pitch_bend_c, 3, 12880
4, 68064, Pitch_bend_c, 3, 13840
4, 68080, Pitch_bend_c, 3, 14784
4, 68080, Pitch_bend_c, 3, 15824
4, 68096, Pitch_bend_c, 3, 16383
4, 68256, Control_c, 3, 1, 9
4, 68256, Control_c, 3, 1, 19
4, 68272, Control_c, 3, 1, 28
4, 68272, Control_c, 3, 1, 34
4, 68288, Control_c, 3, 1, 37
4, 68288, Control_c, 3, 1, 41
4, 68304, Control_c, 3, 1, 46
4, 68304, Control_c, 3, 1, 52
4, 68320, Control_c, 3, 1, 61
4, 68320, Control_c, 3, 1, 72
4, 68336, Control_c, 3, 1, 86
4, 68336, Control_c, 3, 1, 99
4, 68352, Control_c, 3, 1, 108
4, 68352, Control_c, 3, 1, 115
4, 68368, Control_c, 3, 1, 118
4, 68368, Control_c, 3, 1, 122
4, 68368, Control_c, 3, 1, 127
4, 68672, Control_c, 3, 1, 111
4, 68688, Control_c, 3, 1, 93
4, 68688, Control_c, 3, 1, 66
4, 68704, Control_c, 3, 1, 36
4, 68704, Control_c, 3, 1, 9
4, 68704, Control_c, 3, 1, 0
4, 68784, Note_off_c, 3, 67, 0
4, 68784, Pitch_bend_c, 3, 15744
4, 68800, Pitch_bend_c, 3, 14336
4, 68800, Pitch_bend_c, 3, 12432
4, 68816, Pitch_bend_c, 3, 10528
4, 68816, Pitch_bend_c, 3, 8656
4, 68832, Pitch_bend_c, 3, 8192
4, 68896, Note_on_c, 3, 69, 127
4, 69104, Note_off_c, 3, 69, 0
4, 69120, Note_on_c, 3, 67, 127
4, 69632, Control_c, 3, 1, 7
4, 69632, Control_c, 3, 1, 18
4, 69648, Control_c, 3, 1, 27
4, 69648, Control_c, 3, 1, 34
4, 69664, Control_c, 3, 1, 41
4, 69664, Control_c, 3, 1, 46
4, 69664, Control_c, 3, 1, 50
4, 69680, Control_c, 3, 1, 54
4, 69696, Control_c, 3, 1, 57
4, 69712, Control_c, 3, 1, 61
4, 69712, Control_c, 3, 1, 63
4, 69744, Control_c, 3, 1, 66
4, 69760, Control_c, 3, 1, 70
4, 69760, Control_c, 3, 1, 73
4, 69760, Control_c, 3, 1, 75
4, 69776, Control_c, 3, 1, 79
4, 69776, Control_c, 3, 1, 81
4, 69792, Control_c, 3, 1, 84
4, 69792, Control_c, 3, 1, 86
4, 69808, Control_c, 3, 1, 82
4, 69808, Control_c, 3, 1, 68
4, 69824, Control_c, 3, 1, 46
4, 69824, Control_c, 3, 1, 23
4, 69840, Control_c, 3, 1, 1
4, 69840, Control_c, 3, 1, 0
4, 70032, Note_off_c, 3, 67, 0
4, 70064, Note_on_c, 3, 64, 121
4, 70256, Note_off_c, 3, 64, 0
4, 70272, Note_on_c, 3, 62, 119
4, 70304, Pitch_bend_c, 3, 8352
4, 70320, Pitch_bend_c, 3, 9808
4, 70320, Pitch_bend_c, 3, 10912
4, 70336, Pitch_bend_c, 3, 12208
4, 70336, Pitch_bend_c, 3, 13376
4, 70352, Pitch_bend_c, 3, 14576
4, 70352, Pitch_bend_c, 3, 15712
4, 70368, Pitch_bend_c, 3, 16383
4, 70576, Control_c, 3, 1, 3
4, 70592, Control_c, 3, 1, 7
4, 70592, Control_c, 3, 1, 10
4, 70608, Control_c, 3, 1, 14
4, 70608, Control_c, 3, 1, 19
4, 70624, Control_c, 3, 1, 27
4, 70624, Control_c, 3, 1, 36
4, 70640, Control_c, 3, 1, 41
4, 70640, Control_c, 3, 1, 46
4, 70656, Control_c, 3, 1, 54
4, 70656, Control_c, 3, 1, 57
4, 70672, Control_c, 3, 1, 59
4, 70688, Control_c, 3, 1, 63
4, 70688, Control_c, 3, 1, 66
4, 70704, Control_c, 3, 1, 72
4, 70704, Control_c, 3, 1, 77
4, 70720, Control_c, 3, 1, 81
4, 70720, Control_c, 3, 1, 84
4, 70736, Control_c, 3, 1, 88
4, 70736, Control_c, 3, 1, 93
4, 70736, Control_c, 3, 1, 97
4, 70752, Control_c, 3, 1, 100
4, 70752, Control_c, 3, 1, 102
4, 70768, Control_c, 3, 1, 106
4, 70816, Control_c, 3, 1, 104
4, 70848, Control_c, 3, 1, 100
4, 70848, Control_c, 3, 1, 93
4, 70864, Control_c, 3, 1, 84
4, 70864, Control_c, 3, 1, 73
4, 70880, Control_c, 3, 1, 61
4, 70880, Control_c, 3, 1, 46
4, 70896, Control_c, 3, 1, 30
4, 70896, Control_c, 3, 1, 14
4, 70912, Control_c, 3, 1, 0
4, 70976, Note_off_c, 3, 62, 0
4, 71072, Pitch_bend_c, 3, 16080
4, 71088, Pitch_bend_c, 3, 15248
4, 71088, Pitch_bend_c, 3, 14256
4, 71104, Pitch_bend_c, 3, 12928
4, 71104, Pitch_bend_c, 3, 11792
4, 71120, Pitch_bend_c, 3, 10752
4, 71120, Pitch_bend_c, 3, 9808
4, 71136, Pitch_bend_c, 3, 8400
4, 71136, Pitch_bend_c, 3, 8192
4, 72368, Note_on_c, 3, 69, 127
4, 72568, Note_off_c, 3, 69, 0
4, 72592, Note_on_c, 3, 67, 127
4, 72624, Pitch_bend_c, 3, 8512
4, 72640, Pitch_bend_c, 3, 9872
4, 72640, Pitch_bend_c, 3, 11136
4, 72656, Pitch_bend_c, 3, 12176
4, 72656, Pitch_bend_c, 3, 13184
4, 72656, Pitch_bend_c, 3, 14176
4, 72672, Pitch_bend_c, 3, 15072
4, 72672, Pitch_bend_c, 3, 15792
4, 72688, Pitch_bend_c, 3, 16383
4, 72944, Control_c, 3, 1, 3
4, 72960, Control_c, 3, 1, 9
4, 72960, Control_c, 3, 1, 12
4, 72976, Control_c, 3, 1, 16
4, 72976, Control_c, 3, 1, 19
4, 72992, Control_c, 3, 1, 21
4, 73008, Control_c, 3, 1, 27
4, 73008, Control_c, 3, 1, 32
4, 73024, Control_c, 3, 1, 37
4, 73024, Control_c, 3, 1, 45
4, 73040, Control_c, 3, 1, 52
4, 73040, Control_c, 3, 1, 59
4, 73056, Control_c, 3, 1, 63
4, 73056, Control_c, 3, 1, 64
4, 73072, Control_c, 3, 1, 66
4, 73072, Control_c, 3, 1, 68
4, 73088, Control_c, 3, 1, 70
4, 73088, Control_c, 3, 1, 72
4, 73104, Control_c, 3, 1, 73
4, 73104, Control_c, 3, 1, 77
4, 73120, Control_c, 3, 1, 79
4, 73120, Control_c, 3, 1, 82
4, 73136, Control_c, 3, 1, 86
4, 73136, Control_c, 3, 1, 88
4, 73152, Control_c, 3, 1, 90
4, 73152, Control_c, 3, 1, 93
4, 73168, Control_c, 3, 1, 95
4, 73168, Control_c, 3, 1, 97
4, 73184, Control_c, 3, 1, 100
4, 73184, Control_c, 3, 1, 104
4, 73200, Control_c, 3, 1, 108
4, 73200, Control_c, 3, 1, 111
4, 73216, Control_c, 3, 1, 117
4, 73216, Control_c, 3, 1, 122
4, 73216, Control_c, 3, 1, 127
4, 73312, Control_c, 3, 1, 124
4, 73328, Control_c, 3, 1, 118
4, 73328, Control_c, 3, 1, 111
4, 73344, Control_c, 3, 1, 102
4, 73344, Control_c, 3, 1, 88
4, 73360, Control_c, 3, 1, 75
4, 73360, Control_c, 3, 1, 61
4, 73376, Control_c, 3, 1, 45
4, 73376, Control_c, 3, 1, 28
4, 73392, Control_c, 3, 1, 16
4, 73392, Control_c, 3, 1, 7
4, 73392, Control_c, 3, 1, 0
4, 73424, Note_off_c, 3, 67, 0
4, 73488, Pitch_bend_c, 3, 15584
4, 73488, Pitch_bend_c, 3, 13616
4, 73504, Pitch_bend_c, 3, 11376
4, 73504, Pitch_bend_c, 3, 8688
4, 73504, Pitch_bend_c, 3, 8192
4, 73520, Note_on_c, 3, 69, 127
4, 73744, Note_on_c, 3, 67, 127
4, 73760, Note_off_c, 3, 69, 0
4, 74272, Control_c, 3, 1, 1
4, 74272, Control_c, 3, 1, 3
4, 74288, Control_c, 3, 1, 5
4, 74320, Control_c, 3, 1, 9
4, 74336, Control_c, 3, 1, 10
4, 74336, Control_c, 3, 1, 12
4, 74352, Control_c, 3, 1, 14
4, 74352, Control_c, 3, 1, 18
4, 74368, Control_c, 3, 1, 21
4, 74368, Control_c, 3, 1, 25
4, 74384, Control_c, 3, 1, 28
4, 74384, Control_c, 3, 1, 32
4, 74400, Control_c, 3, 1, 36
4, 74400, Control_c, 3, 1, 37
4, 74416, Control_c, 3, 1, 41
4, 74416, Control_c, 3, 1, 37
4, 74416, Control_c, 3, 1, 28
4, 74432, Control_c, 3, 1, 16
4, 74432, Control_c, 3, 1, 1
4, 74448, Control_c, 3, 1, 0
4, 74544, Note_off_c, 3, 67, 0
4, 74656, Note_on_c, 3, 60, 127
4, 74752, Note_off_c, 3, 60, 0
4, 74880, Note_on_c, 3, 62, 127
4, 75064, Note_off_c, 3, 62, 0
4, 75072, Note_on_c, 3, 57, 126
4, 76032, Note_on_c, 3, 60, 123
4, 76056, Note_off_c, 3, 57, 0
4, 76336, Note_off_c, 3, 60, 0
4, 76976, Note_on_c, 3, 57, 127
4, 77184, Note_off_c, 3, 57, 0
4, 77184, Note_on_c, 3, 55, 126
4, 77232, Pitch_bend_c, 3, 8784
4, 77248, Pitch_bend_c, 3, 9504
4, 77248, Pitch_bend_c, 3, 10416
4, 77264, Pitch_bend_c, 3, 11104
4, 77264, Pitch_bend_c, 3, 12240
4, 77280, Pitch_bend_c, 3, 13008
4, 77280, Pitch_bend_c, 3, 14256
4, 77296, Pitch_bend_c, 3, 15296
4, 77296, Pitch_bend_c, 3, 16383
4, 77616, Control_c, 3, 1, 3
4, 77632, Control_c, 3, 1, 7
4, 77632, Control_c, 3, 1, 10
4, 77632, Control_c, 3, 1, 12
4, 77648, Control_c, 3, 1, 16
4, 77648, Control_c, 3, 1, 18
4, 77664, Control_c, 3, 1, 19
4, 77664, Control_c, 3, 1, 21
4, 77680, Control_c, 3, 1, 23
4, 77696, Control_c, 3, 1, 25
4, 77696, Control_c, 3, 1, 27
4, 77712, Control_c, 3, 1, 28
4, 77712, Control_c, 3, 1, 30
4, 77728, Control_c, 3, 1, 32
4, 77728, Control_c, 3, 1, 36
4, 77744, Control_c, 3, 1, 37
4, 77760, Control_c, 3, 1, 41
4, 77760, Control_c, 3, 1, 43
4, 77776, Control_c, 3, 1, 45
4, 77776, Control_c, 3, 1, 46
4, 77792, Control_c, 3, 1, 50
4, 77840, Control_c, 3, 1, 46
4, 77856, Control_c, 3, 1, 41
4, 77856, Control_c, 3, 1, 34
4, 77872, Control_c, 3, 1, 28
4, 77872, Control_c, 3, 1, 19
4, 77888, Control_c, 3, 1, 9
4, 77888, Control_c, 3, 1, 0
4, 77992, Note_off_c, 3, 55, 0
4, 78016, Pitch_bend_c, 3, 15792
4, 78032, Pitch_bend_c, 3, 14304
4, 78032, Pitch_bend_c, 3, 12544
4, 78048, Pitch_bend_c, 3, 10496
4, 78048, Pitch_bend_c, 3, 8768
4, 78064, Pitch_bend_c, 3, 8192
4, 78112, Note_on_c, 3, 57, 127
4, 78320, Note_off_c, 3, 57, 0
4, 78336, Note_on_c, 3, 56, 127
4, 78528, Note_off_c, 3, 56, 0
4, 78544, Note_on_c, 3, 52, 123
4, 79296, Note_on_c, 3, 56, 127
4, 79312, Note_off_c, 3, 52, 0
4, 79488, Note_off_c, 3, 56, 0
4, 79504, Note_on_c, 3, 57, 120
4, 79920, Control_c, 3, 1, 9
4, 79920, Control_c, 3, 1, 18
4, 79936, Control_c, 3, 1, 27
4, 79936, Control_c, 3, 1, 36
4, 79952, Control_c, 3, 1, 45
4, 79952, Control_c, 3, 1, 54
4, 79968, Control_c, 3, 1, 64
4, 79968, Control_c, 3, 1, 73
4, 79984, Control_c, 3, 1, 81
4, 79984, Control_c, 3, 1, 86
4, 80000, Control_c, 3, 1, 91
4, 80000, Control_c, 3, 1, 97
4, 80016, Control_c, 3, 1, 100
4, 80016, Control_c, 3, 1, 106
4, 80032, Control_c, 3, 1, 109
4, 80032, Control_c, 3, 1, 111
4, 80032, Control_c, 3, 1, 115
4, 80048, Control_c, 3, 1, 117
4, 80064, Control_c, 3, 1, 120
4, 80064, Control_c, 3, 1, 126
4, 80080, Control_c, 3, 1, 127
4, 80096, Control_c, 3, 1, 126
4, 80096, Control_c, 3, 1, 120
4, 80112, Control_c, 3, 1, 109
4, 80112, Control_c, 3, 1, 95
4, 80128, Note_off_c, 3, 57, 0
4, 80128, Control_c, 3, 1, 75
4, 80128, Control_c, 3, 1, 54
4, 80144, Control_c, 3, 1, 36
4, 80144, Control_c, 3, 1, 14
4, 80160, Control_c, 3, 1, 0
4, 113840, Note_on_c, 3, 55, 127
4, 114032, Note_off_c, 3, 55, 0
4, 114032, Note_on_c, 3, 57, 114
4, 114128, Note_off_c, 3, 57, 0
4, 114208, Note_on_c, 3, 57, 115
4, 114560, Note_off_c, 3, 57, 0
4, 115968, Note_on_c, 3, 60, 127
4, 116064, Note_off_c, 3, 60, 0
4, 116160, Note_on_c, 3, 60, 127
4, 116256, Note_off_c, 3, 60, 0
4, 116352, Note_on_c, 3, 60, 127
4, 116368, Pitch_bend_c, 3, 9920
4, 116384, Pitch_bend_c, 3, 11328
4, 116384, Pitch_bend_c, 3, 13200
4, 116400, Pitch_bend_c, 3, 14576
4, 116400, Pitch_bend_c, 3, 15872
4, 116416, Pitch_bend_c, 3, 16383
4, 116496, Pitch_bend_c, 3, 15744
4, 116512, Pitch_bend_c, 3, 13776
4, 116512, Pitch_bend_c, 3, 11600
4, 116528, Pitch_bend_c, 3, 9392
4, 116528, Pitch_bend_c, 3, 8192
4, 116576, Note_off_c, 3, 60, 0
4, 116608, Note_on_c, 3, 57, 127
4, 117024, Note_off_c, 3, 57, 0
4, 118272, Note_on_c, 3, 69, 127
4, 118368, Note_off_c, 3, 69, 0
4, 118464, Note_on_c, 3, 69, 127
4, 118640, Note_off_c, 3, 69, 0
4, 118656, Note_on_c, 3, 67, 127
4, 118688, Pitch_bend_c, 3, 8480
4, 118704, Pitch_bend_c, 3, 9120
4, 118704, Pitch_bend_c, 3, 9584
4, 118720, Pitch_bend_c, 3, 9920
4, 118720, Pitch_bend_c, 3, 10336
4, 118736, Pitch_bend_c, 3, 10688
4, 118736, Pitch_bend_c, 3, 11584
4, 118752, Pitch_bend_c, 3, 12432
4, 118752, Pitch_bend_c, 3, 13760
4, 118768, Pitch_bend_c, 3, 14992
4, 118768, Pitch_bend_c, 3, 16383
4, 119024, Control_c, 3, 1, 9
4, 119024, Control_c, 3, 1, 19
4, 119040, Control_c, 3, 1, 28
4, 119040, Control_c, 3, 1, 36
4, 119056, Control_c, 3, 1, 45
4, 119056, Control_c, 3, 1, 52
4, 119072, Control_c, 3, 1, 55
4, 119072, Control_c, 3, 1, 59
4, 119088, Control_c, 3, 1, 61
4, 119088, Control_c, 3, 1, 68
4, 119104, Control_c, 3, 1, 77
4, 119104, Control_c, 3, 1, 90
4, 119120, Control_c, 3, 1, 99
4, 119120, Control_c, 3, 1, 106
4, 119136, Control_c, 3, 1, 111
4, 119136, Control_c, 3, 1, 117
4, 119152, Control_c, 3, 1, 122
4, 119152, Control_c, 3, 1, 124
4, 119168, Control_c, 3, 1, 127
4, 119248, Control_c, 3, 1, 120
4, 119248, Control_c, 3, 1, 115
4, 119264, Control_c, 3, 1, 109
4, 119264, Control_c, 3, 1, 104
4, 119296, Control_c, 3, 1, 106
4, 119312, Control_c, 3, 1, 102
4, 119328, Control_c, 3, 1, 95
4, 119328, Control_c, 3, 1, 88
4, 119344, Control_c, 3, 1, 81
4, 119344, Control_c, 3, 1, 75
4, 119344, Control_c, 3, 1, 73
4, 119360, Control_c, 3, 1, 72
4, 119376, Control_c, 3, 1, 73
4, 119376, Control_c, 3, 1, 77
4, 119392, Control_c, 3, 1, 81
4, 119408, Control_c, 3, 1, 77
4, 119408, Control_c, 3, 1, 72
4, 119424, Control_c, 3, 1, 61
4, 119424, Control_c, 3, 1, 48
4, 119440, Control_c, 3, 1, 36
4, 119440, Control_c, 3, 1, 23
4, 119456, Control_c, 3, 1, 12
4, 119456, Control_c, 3, 1, 3
4, 119472, Control_c, 3, 1, 0
4, 119520, Note_off_c, 3, 67, 0
4, 119536, Pitch_bend_c, 3, 16272
4, 119552, Pitch_bend_c, 3, 15072
4, 119552, Pitch_bend_c, 3, 13584
4, 119568, Pitch_bend_c, 3, 11552
4, 119568, Pitch_bend_c, 3, 9648
4, 119584, Pitch_bend_c, 3, 8192
4, 119600, Note_on_c, 3, 69, 127
4, 119808, Note_on_c, 3, 67, 127
4, 119840, Note_off_c, 3, 69, 0
4, 120160, Control_c, 3, 1, 5
4, 120160, Control_c, 3, 1, 14
4, 120176, Control_c, 3, 1, 23
4, 120176, Control_c, 3, 1, 27
4, 120192, Control_c, 3, 1, 30
4, 120192, Control_c, 3, 1, 34
4, 120208, Control_c, 3, 1, 36
4, 120224, Control_c, 3, 1, 37
4, 120240, Control_c, 3, 1, 41
4, 120240, Control_c, 3, 1, 43
4, 120256, Control_c, 3, 1, 45
4, 120288, Control_c, 3, 1, 46
4, 120304, Control_c, 3, 1, 48
4, 120320, Control_c, 3, 1, 50
4, 120336, Control_c, 3, 1, 52
4, 120352, Control_c, 3, 1, 54
4, 120368, Control_c, 3, 1, 55
4, 120368, Control_c, 3, 1, 57
4, 120384, Control_c, 3, 1, 54
4, 120400, Control_c, 3, 1, 52
4, 120432, Control_c, 3, 1, 50
4, 120432, Control_c, 3, 1, 48
4, 120448, Control_c, 3, 1, 46
4, 120448, Control_c, 3, 1, 50
4, 120464, Control_c, 3, 1, 54
4, 120464, Control_c, 3, 1, 57
4, 120480, Control_c, 3, 1, 59
4, 120496, Control_c, 3, 1, 61
4, 120496, Control_c, 3, 1, 59
4, 120512, Control_c, 3, 1, 52
4, 120512, Control_c, 3, 1, 43
4, 120528, Control_c, 3, 1, 30
4, 120528, Control_c, 3, 1, 14
4, 120544, Control_c, 3, 1, 0
4, 120672, Note_off_c, 3, 67, 0
4, 120736, Note_on_c, 3, 64, 122
4, 120944, Note_off_c, 3, 64, 0
4, 120944, Note_on_c, 3, 62, 119
4, 120960, Pitch_bend_c, 3, 8592
4, 120976, Pitch_bend_c, 3, 9504
4, 120976, Pitch_bend_c, 3, 10256
4, 120992, Pitch_bend_c, 3, 11376
4, 120992, Pitch_bend_c, 3, 12240
4, 121008, Pitch_bend_c, 3, 13200
4, 121008, Pitch_bend_c, 3, 14176
4, 121024, Pitch_bend_c, 3, 15280
4, 121024, Pitch_bend_c, 3, 16016
4, 121040, Pitch_bend_c, 3, 16383
4, 121328, Control_c, 3, 1, 3
4, 121328, Control_c, 3, 1, 7
4, 121344, Control_c, 3, 1, 9
4, 121360, Control_c, 3, 1, 7
4, 121376, Control_c, 3, 1, 3
4, 121392, Control_c, 3, 1, 0
4, 121472, Note_off_c, 3, 62, 0
4, 121616, Pitch_bend_c, 3, 16272
4, 121616, Pitch_bend_c, 3, 15168
4, 121632, Pitch_bend_c, 3, 13680
4, 121632, Pitch_bend_c, 3, 12288
4, 121632, Pitch_bend_c, 3, 10256
4, 121648, Pitch_bend_c, 3, 8192
4, 123264, Note_on_c, 3, 67, 127
4, 123312, Pitch_bend_c, 3, 8288
4, 123312, Pitch_bend_c, 3, 9072
4, 123328, Pitch_bend_c, 3, 9984
4, 123328, Pitch_bend_c, 3, 10720
4, 123344, Pitch_bend_c, 3, 11488
4, 123344, Pitch_bend_c, 3, 11984
4, 123360, Pitch_bend_c, 3, 12656
4, 123360, Pitch_bend_c, 3, 13184
4, 123376, Pitch_bend_c, 3, 13920
4, 123376, Pitch_bend_c, 3, 14608
4, 123376, Pitch_bend_c, 3, 15552
4, 123392, Pitch_bend_c, 3, 16320
4, 123392, Pitch_bend_c, 3, 16383
4, 123648, Control_c, 3, 1, 10
4, 123648, Control_c, 3, 1, 23
4, 123664, Control_c, 3, 1, 34
4, 123664, Control_c, 3, 1, 45
4, 123680, Control_c, 3, 1, 57
4, 123680, Control_c, 3, 1, 64
4, 123696, Control_c, 3, 1, 73
4, 123696, Control_c, 3, 1, 79
4, 123712, Control_c, 3, 1, 84
4, 123712, Control_c, 3, 1, 88
4, 123728, Control_c, 3, 1, 91
4, 123728, Control_c, 3, 1, 95
4, 123744, Control_c, 3, 1, 99
4, 123744, Control_c, 3, 1, 102
4, 123760, Control_c, 3, 1, 104
4, 123760, Control_c, 3, 1, 106
4, 123776, Control_c, 3, 1, 109
4, 123792, Control_c, 3, 1, 111
4, 123792, Control_c, 3, 1, 117
4, 123792, Control_c, 3, 1, 122
4, 123808, Control_c, 3, 1, 127
4, 123936, Control_c, 3, 1, 120
4, 123952, Control_c, 3, 1, 115
4, 123952, Control_c, 3, 1, 106
4, 123968, Control_c, 3, 1, 97
4, 123968, Control_c, 3, 1, 86
4, 123984, Control_c, 3, 1, 73
4, 123984, Control_c, 3, 1, 63
4, 124000, Control_c, 3, 1, 55
4, 124000, Control_c, 3, 1, 48
4, 124016, Control_c, 3, 1, 37
4, 124016, Control_c, 3, 1, 23
4, 124032, Control_c, 3, 1, 9
4, 124032, Control_c, 3, 1, 0
4, 124128, Note_off_c, 3, 67, 0
4, 124192, Pitch_bend_c, 3, 16016
4, 124192, Pitch_bend_c, 3, 14608
4, 124208, Pitch_bend_c, 3, 12656
4, 124208, Pitch_bend_c, 3, 10800
4, 124224, Note_on_c, 3, 69, 127
4, 124224, Pitch_bend_c, 3, 8192
4, 124432, Note_on_c, 3, 67, 127
4, 124448, Note_off_c, 3, 69, 0
4, 124768, Control_c, 3, 1, 1
4, 124768, Control_c, 3, 1, 10
4, 124784, Control_c, 3, 1, 18
4, 124800, Control_c, 3, 1, 21
4, 124800, Control_c, 3, 1, 25
4, 124816, Control_c, 3, 1, 30
4, 124816, Control_c, 3, 1, 32
4, 124832, Control_c, 3, 1, 36
4, 124832, Control_c, 3, 1, 37
4, 124848, Control_c, 3, 1, 39
4, 124848, Control_c, 3, 1, 43
4, 124864, Control_c, 3, 1, 46
4, 124864, Control_c, 3, 1, 50
4, 124864, Control_c, 3, 1, 55
4, 124880, Control_c, 3, 1, 61
4, 124880, Control_c, 3, 1, 68
4, 124896, Control_c, 3, 1, 73
4, 124896, Control_c, 3, 1, 77
4, 124912, Control_c, 3, 1, 81
4, 124928, Control_c, 3, 1, 77
4, 124944, Control_c, 3, 1, 75
4, 124960, Control_c, 3, 1, 72
4, 124960, Control_c, 3, 1, 70
4, 124976, Control_c, 3, 1, 68
4, 124976, Control_c, 3, 1, 64
4, 124992, Control_c, 3, 1, 57
4, 124992, Control_c, 3, 1, 48
4, 125008, Control_c, 3, 1, 39
4, 125008, Control_c, 3, 1, 28
4, 125024, Control_c, 3, 1, 16
4, 125024, Control_c, 3, 1, 3
4, 125040, Control_c, 3, 1, 0
4, 125152, Note_off_c, 3, 67, 0
4, 125328, Note_on_c, 3, 60, 127
4, 125432, Note_off_c, 3, 60, 0
4, 125552, Note_on_c, 3, 62, 126
4, 125664, Note_off_c, 3, 62, 0
4, 125680, Note_on_c, 3, 57, 123
4, 126464, Note_off_c, 3, 57, 0
4, 126512, Note_on_c, 3, 60, 127
4, 126576, Note_off_c, 3, 60, 0
4, 126640, Note_on_c, 3, 60, 127
4, 126736, Note_off_c, 3, 60, 0
4, 126736, Note_on_c, 3, 57, 120
4, 127040, Control_c, 3, 1, 3
4, 127056, Control_c, 3, 1, 7
4, 127056, Control_c, 3, 1, 10
4, 127056, Control_c, 3, 1, 12
4, 127072, Control_c, 3, 1, 14
4, 127072, Control_c, 3, 1, 16
4, 127088, Control_c, 3, 1, 18
4, 127088, Control_c, 3, 1, 19
4, 127104, Note_off_c, 3, 57, 0
4, 127104, Control_c, 3, 1, 14
4, 127120, Control_c, 3, 1, 3
4, 127120, Control_c, 3, 1, 0
4, 127664, Note_on_c, 3, 57, 127
4, 127712, Note_off_c, 3, 57, 0
4, 127776, Note_on_c, 3, 57, 127
4, 127824, Note_off_c, 3, 57, 0
4, 127888, Note_on_c, 3, 57, 127
4, 128712, Note_off_c, 3, 57, 0
4, 128832, Note_on_c, 3, 57, 127
4, 128880, Note_off_c, 3, 57, 0
4, 128944, Note_on_c, 3, 57, 123
4, 129040, Note_off_c, 3, 57, 0
4, 129072, Note_on_c, 3, 56, 127
4, 129248, Note_on_c, 3, 52, 111
4, 129264, Note_off_c, 3, 56, 0
4, 129960, Note_off_c, 3, 52, 0
4, 129968, Note_on_c, 3, 57, 127
4, 130000, Pitch_bend_c, 3, 8272
4, 130000, Pitch_bend_c, 3, 9344
4, 130016, Pitch_bend_c, 3, 10224
4, 130016, Pitch_bend_c, 3, 11488
4, 130032, Pitch_bend_c, 3, 12432
4, 130032, Pitch_bend_c, 3, 13568
4, 130048, Pitch_bend_c, 3, 14560
4, 130048, Pitch_bend_c, 3, 15520
4, 130064, Pitch_bend_c, 3, 16352
4, 130064, Pitch_bend_c, 3, 16383
4, 130136, Note_off_c, 3, 57, 0
4, 130160, Pitch_bend_c, 3, 15584
4, 130176, Pitch_bend_c, 3, 12096
4, 130192, Pitch_bend_c, 3, 10192
4, 130192, Pitch_bend_c, 3, 8384
4, 130208, Pitch_bend_c, 3, 8192
4, 130208, Note_on_c, 3, 57, 117
4, 130624, Control_c, 3, 1, 3
4, 130640, Control_c, 3, 1, 5
4, 130656, Control_c, 3, 1, 9
4, 130672, Control_c, 3, 1, 10
4, 130688, Control_c, 3, 1, 7
4, 130688, Control_c, 3, 1, 0
4, 130800, Note_off_c, 3, 57, 0
4, 139200, Note_on_c, 3, 69, 127
4, 139408, Note_on_c, 3, 67, 127
4, 139416, Note_off_c, 3, 69, 0
4, 139456, Pitch_bend_c, 3, 8288
4, 139456, Pitch_bend_c, 3, 9152
4, 139472, Pitch_bend_c, 3, 10000
4, 139472, Pitch_bend_c, 3, 10720
4, 139472, Pitch_bend_c, 3, 11712
4, 139488, Pitch_bend_c, 3, 12272
4, 139488, Pitch_bend_c, 3, 13184
4, 139504, Pitch_bend_c, 3, 13872
4, 139504, Pitch_bend_c, 3, 14784
4, 139520, Pitch_bend_c, 3, 15680
4, 139520, Pitch_bend_c, 3, 16383
4, 139776, Control_c, 3, 1, 14
4, 139792, Control_c, 3, 1, 21
4, 139792, Control_c, 3, 1, 28
4, 139808, Control_c, 3, 1, 34
4, 139808, Control_c, 3, 1, 39
4, 139824, Control_c, 3, 1, 41
4, 139840, Control_c, 3, 1, 45
4, 139840, Control_c, 3, 1, 55
4, 139856, Control_c, 3, 1, 68
4, 139856, Control_c, 3, 1, 82
4, 139872, Control_c, 3, 1, 93
4, 139872, Control_c, 3, 1, 102
4, 139872, Control_c, 3, 1, 111
4, 139888, Control_c, 3, 1, 117
4, 139888, Control_c, 3, 1, 122
4, 139904, Control_c, 3, 1, 127
4, 140192, Control_c, 3, 1, 115
4, 140192, Control_c, 3, 1, 97
4, 140208, Control_c, 3, 1, 81
4, 140208, Control_c, 3, 1, 68
4, 140224, Control_c, 3, 1, 57
4, 140224, Control_c, 3, 1, 48
4, 140240, Control_c, 3, 1, 36
4, 140240, Control_c, 3, 1, 19
4, 140256, Control_c, 3, 1, 3
4, 140256, Control_c, 3, 1, 0
4, 140288, Note_off_c, 3, 67, 0
4, 140304, Pitch_bend_c, 3, 15184
4, 140320, Pitch_bend_c, 3, 13344
4, 140320, Pitch_bend_c, 3, 10992
4, 140336, Pitch_bend_c, 3, 8320
4, 140336, Pitch_bend_c, 3, 8192
4, 140352, Note_on_c, 3, 69, 127
4, 140560, Note_on_c, 3, 67, 127
4, 140592, Note_off_c, 3, 69, 0
4, 140832, Control_c, 3, 1, 9
4, 140848, Control_c, 3, 1, 25
4, 140848, Control_c, 3, 1, 37
4, 140864, Control_c, 3, 1, 41
4, 140880, Control_c, 3, 1, 37
4, 140880, Control_c, 3, 1, 45
4, 140896, Control_c, 3, 1, 52
4, 140896, Control_c, 3, 1, 57
4, 140912, Control_c, 3, 1, 63
4, 140912, Control_c, 3, 1, 66
4, 140928, Control_c, 3, 1, 70
4, 140928, Control_c, 3, 1, 75
4, 140944, Control_c, 3, 1, 81
4, 140944, Control_c, 3, 1, 84
4, 140960, Control_c, 3, 1, 82
4, 140960, Control_c, 3, 1, 75
4, 140976, Control_c, 3, 1, 68
4, 140976, Control_c, 3, 1, 64
4, 141008, Control_c, 3, 1, 70
4, 141008, Control_c, 3, 1, 72
4, 141024, Control_c, 3, 1, 75
4, 141024, Control_c, 3, 1, 79
4, 141040, Control_c, 3, 1, 77
4, 141040, Control_c, 3, 1, 72
4, 141056, Control_c, 3, 1, 66
4, 141056, Control_c, 3, 1, 59
4, 141072, Control_c, 3, 1, 52
4, 141072, Control_c, 3, 1, 48
4, 141088, Control_c, 3, 1, 46
4, 141104, Control_c, 3, 1, 48
4, 141120, Control_c, 3, 1, 45
4, 141120, Control_c, 3, 1, 34
4, 141136, Control_c, 3, 1, 21
4, 141136, Control_c, 3, 1, 9
4, 141152, Control_c, 3, 1, 0
4, 141376, Note_off_c, 3, 67, 0
4, 141472, Note_on_c, 3, 62, 122
4, 141488, Pitch_bend_c, 3, 8288
4, 141488, Pitch_bend_c, 3, 9696
4, 141504, Pitch_bend_c, 3, 11184
4, 141504, Pitch_bend_c, 3, 12400
4, 141520, Pitch_bend_c, 3, 13376
4, 141520, Pitch_bend_c, 3, 14688
4, 141536, Pitch_bend_c, 3, 15776
4, 141536, Pitch_bend_c, 3, 16383
4, 141632, Note_off_c, 3, 62, 0
4, 141648, Pitch_bend_c, 3, 15984
4, 141648, Pitch_bend_c, 3, 14496
4, 141664, Pitch_bend_c, 3, 12320
4, 141664, Pitch_bend_c, 3, 10176
4, 141680, Pitch_bend_c, 3, 8192
4, 141712, Note_on_c, 3, 62, 127
4, 141936, Note_off_c, 3, 62, 0
4, 141952, Note_on_c, 3, 57, 106
4, 142640, Control_c, 3, 1, 5
4, 142640, Control_c, 3, 1, 9
4, 142656, Control_c, 3, 1, 14
4, 142656, Control_c, 3, 1, 16
4, 142672, Control_c, 3, 1, 19
4, 142672, Control_c, 3, 1, 21
4, 142688, Control_c, 3, 1, 25
4, 142688, Control_c, 3, 1, 27
4, 142704, Control_c, 3, 1, 30
4, 142704, Control_c, 3, 1, 32
4, 142720, Control_c, 3, 1, 36
4, 142720, Control_c, 3, 1, 39
4, 142736, Control_c, 3, 1, 43
4, 142736, Control_c, 3, 1, 46
4, 142736, Control_c, 3, 1, 50
4, 142752, Control_c, 3, 1, 54
4, 142752, Control_c, 3, 1, 57
4, 142768, Control_c, 3, 1, 59
4, 142768, Control_c, 3, 1, 61
4, 142784, Control_c, 3, 1, 63
4, 142784, Control_c, 3, 1, 64
4, 142800, Control_c, 3, 1, 68
4, 142800, Control_c, 3, 1, 70
4, 142816, Control_c, 3, 1, 72
4, 142832, Control_c, 3, 1, 73
4, 142832, Control_c, 3, 1, 75
4, 142864, Control_c, 3, 1, 81
4, 142864, Control_c, 3, 1, 84
4, 142880, Control_c, 3, 1, 86
4, 142896, Control_c, 3, 1, 90
4, 142912, Control_c, 3, 1, 91
4, 142912, Control_c, 3, 1, 95
4, 142928, Control_c, 3, 1, 97
4, 142944, Control_c, 3, 1, 99
4, 142944, Control_c, 3, 1, 100
4, 142992, Control_c, 3, 1, 99
4, 142992, Control_c, 3, 1, 93
4, 142992, Control_c, 3, 1, 86
4, 143008, Control_c, 3, 1, 75
4, 143008, Control_c, 3, 1, 64
4, 143024, Control_c, 3, 1, 52
4, 143040, Control_c, 3, 1, 34
4, 143040, Control_c, 3, 1, 12
4, 143056, Control_c, 3, 1, 0
4, 143104, Note_off_c, 3, 57, 0
4, 143808, Note_on_c, 3, 69, 127
4, 144000, Note_off_c, 3, 69, 0
4, 144000, Note_on_c, 3, 67, 127
4, 144048, Pitch_bend_c, 3, 8816
4, 144064, Pitch_bend_c, 3, 9728
4, 144064, Pitch_bend_c, 3, 10560
4, 144080, Pitch_bend_c, 3, 11280
4, 144080, Pitch_bend_c, 3, 12160
4, 144096, Pitch_bend_c, 3, 12880
4, 144096, Pitch_bend_c, 3, 13840
4, 144112, Pitch_bend_c, 3, 14784
4, 144112, Pitch_bend_c, 3, 15824
4, 144128, Pitch_bend_c, 3, 16383
4, 144288, Control_c, 3, 1, 9
4, 144288, Control_c, 3, 1, 19
4, 144304, Control_c, 3, 1, 28
4, 144304, Control_c, 3, 1, 34
4, 144320, Control_c, 3, 1, 37
4, 144320, Control_c, 3, 1, 41
4, 144336, Control_c, 3, 1, 46
4, 144336, Control_c, 3, 1, 52
4, 144352, Control_c, 3, 1, 61
4, 144352, Control_c, 3, 1, 72
4, 144368, Control_c, 3, 1, 86
4, 144368, Control_c, 3, 1, 99
4, 144384, Control_c, 3, 1, 108
4, 144384, Control_c, 3, 1, 115
4, 144400, Control_c, 3, 1, 118
4, 144400, Control_c, 3, 1, 122
4, 144400, Control_c, 3, 1, 127
4, 144704, Control_c, 3, 1, 111
4, 144720, Control_c, 3, 1, 93
4, 144720, Control_c, 3, 1, 66
4, 144736, Control_c, 3, 1, 36
4, 144736, Control_c, 3, 1, 9
4, 144736, Control_c, 3, 1, 0
4, 144816, Note_off_c, 3, 67, 0
4, 144816, Pitch_bend_c, 3, 15744
4, 144832, Pitch_bend_c, 3, 14336
4, 144832, Pitch_bend_c, 3, 12432
4, 144848, Pitch_bend_c, 3, 10528
4, 144848, Pitch_bend_c, 3, 8656
4, 144864, Pitch_bend_c, 3, 8192
4, 144928, Note_on_c, 3, 69, 127
4, 145136, Note_off_c, 3, 69, 0
4, 145152, Note_on_c, 3, 67, 127
4, 145664, Control_c, 3, 1, 7
4, 145664, Control_c, 3, 1, 18
4, 145680, Control_c, 3, 1, 27
4, 145680, Control_c, 3, 1, 34
4, 145696, Control_c, 3, 1, 41
4, 145696, Control_c, 3, 1, 46
4, 145696, Control_c, 3, 1, 50
4, 145712, Control_c, 3, 1, 54
4, 145728, Control_c, 3, 1, 57
4, 145744, Control_c, 3, 1, 61
4, 145744, Control_c, 3, 1, 63
4, 145776, Control_c, 3, 1, 66
4, 145792, Control_c, 3, 1, 70
4, 145792, Control_c, 3, 1, 73
4, 145792, Control_c, 3, 1, 75
4, 145808, Control_c, 3, 1, 79
4, 145808, Control_c, 3, 1, 81
4, 145824, Control_c, 3, 1, 84
4, 145824, Control_c, 3, 1, 86
4, 145840, Control_c, 3, 1, 82
4, 145840, Control_c, 3, 1, 68
4, 145856, Control_c, 3, 1, 46
4, 145856, Control_c, 3, 1, 23
4, 145872, Control_c, 3, 1, 1
4, 145872, Control_c, 3, 1, 0
4, 146064, Note_off_c, 3, 67, 0
4, 146096, Note_on_c, 3, 64, 121
4, 146288, Note_off_c, 3, 64, 0
4, 146304, Note_on_c, 3, 62, 119
4, 146336, Pitch_bend_c, 3, 8352
4, 146352, Pitch_bend_c, 3, 9808
4, 146352, Pitch_bend_c, 3, 10912
4, 146368, Pitch_bend_c, 3, 12208
4, 146368, Pitch_bend_c, 3, 13376
4, 146384, Pitch_bend_c, 3, 14576
4, 146384, Pitch_bend_c, 3, 15712
4, 146400, Pitch_bend_c, 3, 16383
4, 146608, Control_c, 3, 1, 3
4, 146624, Control_c, 3, 1, 7
4, 146624, Control_c, 3, 1, 10
4, 146640, Control_c, 3, 1, 14
4, 146640, Control_c, 3, 1, 19
4, 146656, Control_c, 3, 1, 27
4, 146656, Control_c, 3, 1, 36
4, 146672, Control_c, 3, 1, 41
4, 146672, Control_c, 3, 1, 46
4, 146688, Control_c, 3, 1, 54
4, 146688, Control_c, 3, 1, 57
4, 146704, Control_c, 3, 1, 59
4, 146720, Control_c, 3, 1, 63
4, 146720, Control_c, 3, 1, 66
4, 146736, Control_c, 3, 1, 72
4, 146736, Control_c, 3, 1, 77
4, 146752, Control_c, 3, 1, 81
4, 146752, Control_c, 3, 1, 84
4, 146768, Control_c, 3, 1, 88
4, 146768, Control_c, 3, 1, 93
4, 146768, Control_c, 3, 1, 97
4, 146784, Control_c, 3, 1, 100
4, 146784, Control_c, 3, 1, 102
4, 146800, Control_c, 3, 1, 106
4, 146848, Control_c, 3, 1, 104
4, 146880, Control_c, 3, 1, 100
4, 146880, Control_c, 3, 1, 93
4, 146896, Control_c, 3, 1, 84
4, 146896, Control_c, 3, 1, 73
4, 146912, Control_c, 3, 1, 61
4, 146912, Control_c, 3, 1, 46
4, 146928, Control_c, 3, 1, 30
4, 146928, Control_c, 3, 1, 14
4, 146944, Control_c, 3, 1, 0
4, 147008, Note_off_c, 3, 62, 0
4, 147104, Pitch_bend_c, 3, 16080
4, 147120, Pitch_bend_c, 3, 15248
4, 147120, Pitch_bend_c, 3, 14256
4, 147136, Pitch_bend_c, 3, 12928
4, 147136, Pitch_bend_c, 3, 11792
4, 147152, Pitch_bend_c, 3, 10752
4, 147152, Pitch_bend_c, 3, 9808
4, 147168, Pitch_bend_c, 3, 8400
4, 147168, Pitch_bend_c, 3, 8192
4, 148400, Note_on_c, 3, 69, 127
4, 148600, Note_off_c, 3, 69, 0
4, 148624, Note_on_c, 3, 67, 127
4, 148656, Pitch_bend_c, 3, 8512
4, 148672, Pitch_bend_c, 3, 9872
4, 148672, Pitch_bend_c, 3, 11136
4, 148688, Pitch_bend_c, 3, 12176
4, 148688, Pitch_bend_c, 3, 13184
4, 148688, Pitch_bend_c, 3, 14176
4, 148704, Pitch_bend_c, 3, 15072
4, 148704, Pitch_bend_c, 3, 15792
4, 148720, Pitch_bend_c, 3, 16383
4, 148976, Control_c, 3, 1, 3
4, 148992, Control_c, 3, 1, 9
4, 148992, Control_c, 3, 1, 12
4, 149008, Control_c, 3, 1, 16
4, 149008, Control_c, 3, 1, 19
4, 149024, Control_c, 3, 1, 21
4, 149040, Control_c, 3, 1, 27
4, 149040, Control_c, 3, 1, 32
4, 149056, Control_c, 3, 1, 37
4, 149056, Control_c, 3, 1, 45
4, 149072, Control_c, 3, 1, 52
4, 149072, Control_c, 3, 1, 59
4, 149088, Control_c, 3, 1, 63
4, 149088, Control_c, 3, 1, 64
4, 149104, Control_c, 3, 1, 66
4, 149104, Control_c, 3, 1, 68
4, 149120, Control_c, 3, 1, 70
4, 149120, Control_c, 3, 1, 72
4, 149136, Control_c, 3, 1, 73
4, 149136, Control_c, 3, 1, 77
4, 149152, Control_c, 3, 1, 79
4, 149152, Control_c, 3, 1, 82
4, 149168, Control_c, 3, 1, 86
4, 149168, Control_c, 3, 1, 88
4, 149184, Control_c, 3, 1, 90
4, 149184, Control_c, 3, 1, 93
4, 149200, Control_c, 3, 1, 95
4, 149200, Control_c, 3, 1, 97
4, 149216, Control_c, 3, 1, 100
4, 149216, Control_c, 3, 1, 104
4, 149232, Control_c, 3, 1, 108
4, 149232, Control_c, 3, 1, 111
4, 149248, Control_c, 3, 1, 117
4, 149248, Control_c, 3, 1, 122
4, 149248, Control_c, 3, 1, 127
4, 149344, Control_c, 3, 1, 124
4, 149360, Control_c, 3, 1, 118
4, 149360, Control_c, 3, 1, 111
4, 149376, Control_c, 3, 1, 102
4, 149376, Control_c, 3, 1, 88
4, 149392, Control_c, 3, 1, 75
4, 149392, Control_c, 3, 1, 61
4, 149408, Control_c, 3, 1, 45
4, 149408, Control_c, 3, 1, 28
4, 149424, Control_c, 3, 1, 16
4, 149424, Control_c, 3, 1, 7
4, 149424, Control_c, 3, 1, 0
4, 149456, Note_off_c, 3, 67, 0
4, 149520, Pitch_bend_c, 3, 15584
4, 149520, Pitch_bend_c, 3, 13616
4, 149536, Pitch_bend_c, 3, 11376
4, 149536, Pitch_bend_c, 3, 8688
4, 149536, Pitch_bend_c, 3, 8192
4, 149552, Note_on_c, 3, 69, 127
4, 149776, Note_on_c, 3, 67, 127
4, 149792, Note_off_c, 3, 69, 0
4, 150304, Control_c, 3, 1, 1
4, 150304, Control_c, 3, 1, 3
4, 150320, Control_c, 3, 1, 5
4, 150352, Control_c, 3, 1, 9
4, 150368, Control_c, 3, 1, 10
4, 150368, Control_c, 3, 1, 12
4, 150384, Control_c, 3, 1, 14
4, 150384, Control_c, 3, 1, 18
4, 150400, Control_c, 3, 1, 21
4, 150400, Control_c, 3, 1, 25
4, 150416, Control_c, 3, 1, 28
4, 150416, Control_c, 3, 1, 32
4, 150432, Control_c, 3, 1, 36
4, 150432, Control_c, 3, 1, 37
4, 150448, Control_c, 3, 1, 41
4, 150448, Control_c, 3, 1, 37
4, 150448, Control_c, 3, 1, 28
4, 150464, Control_c, 3, 1, 16
4, 150464, Control_c, 3, 1, 1
4, 150480, Control_c, 3, 1, 0
4, 150576, Note_off_c, 3, 67, 0
4, 150688, Note_on_c, 3, 60, 127
4, 150784, Note_off_c, 3, 60, 0
4, 150912, Note_on_c, 3, 62, 127
4, 151096, Note_off_c, 3, 62, 0
4, 151104, Note_on_c, 3, 57, 126
4, 152064, Note_on_c, 3, 60, 123
4, 152088, Note_off_c, 3, 57, 0
4, 152368, Note_off_c, 3, 60, 0
4, 153008, Note_on_c, 3, 57, 127
4, 153216, Note_off_c, 3, 57, 0
4, 153216, Note_on_c, 3, 55, 126
4, 153264, Pitch_bend_c, 3, 8784
4, 153280, Pitch_bend_c, 3, 9504
4, 153280, Pitch_bend_c, 3, 10416
4, 153296, Pitch_bend_c, 3, 11104
4, 153296, Pitch_bend_c, 3, 12240
4, 153312, Pitch_bend_c, 3, 13008
4, 153312, Pitch_bend_c, 3, 14256
4, 153328, Pitch_bend_c, 3, 15296
4, 153328, Pitch_bend_c, 3, 16383
4, 153648, Control_c, 3, 1, 3
4, 153664, Control_c, 3, 1, 7
4, 153664, Control_c, 3, 1, 10
4, 153664, Control_c, 3, 1, 12
4, 153680, Control_c, 3, 1, 16
4, 153680, Control_c, 3, 1, 18
4, 153696, Control_c, 3, 1, 19
4, 153696, Control_c, 3, 1, 21
4, 153712, Control_c, 3, 1, 23
4, 153728, Control_c, 3, 1, 25
4, 153728, Control_c, 3, 1, 27
4, 153744, Control_c, 3, 1, 28
4, 153744, Control_c, 3, 1, 30
4, 153760, Control_c, 3, 1, 32
4, 153760, Control_c, 3, 1, 36
4, 153776, Control_c, 3, 1, 37
4, 153792, Control_c, 3, 1, 41
4, 153792, Control_c, 3, 1, 43
4, 153808, Control_c, 3, 1, 45
4, 153808, Control_c, 3, 1, 46
4, 153824, Control_c, 3, 1, 50
4, 153872, Control_c, 3, 1, 46
4, 153888, Control_c, 3, 1, 41
4, 153888, Control_c, 3, 1, 34
4, 153904, Control_c, 3, 1, 28
4, 153904, Control_c, 3, 1, 19
4, 153920, Control_c, 3, 1, 9
4, 153920, Control_c, 3, 1, 0
4, 154024, Note_off_c, 3, 55, 0
4, 154048, Pitch_bend_c, 3, 15792
4, 154064, Pitch_bend_c, 3, 14304
4, 154064, Pitch_bend_c, 3, 12544
4, 154080, Pitch_bend_c, 3, 10496
4, 154080, Pitch_bend_c, 3, 8768
4, 154096, Pitch_bend_c, 3, 8192
4, 154144, Note_on_c, 3, 57, 127
4, 154352, Note_off_c, 3, 57, 0
4, 154368, Note_on_c, 3, 56, 127
4, 154560, Note_off_c, 3, 56, 0
4, 154576, Note_on_c, 3, 52, 123
4, 155328, Note_on_c, 3, 56, 127
4, 155344, Note_off_c, 3, 52, 0
4, 155520, Note_off_c, 3, 56, 0
4, 155536, Note_on_c, 3, 57, 120
4, 155952, Control_c, 3, 1, 9
4, 155952, Control_c, 3, 1, 18
4, 155968, Control_c, 3, 1, 27
4, 155968, Control_c, 3, 1, 36
4, 155984, Control_c, 3, 1, 45
4, 155984, Control_c, 3, 1, 54
4, 156000, Control_c, 3, 1, 64
4, 156000, Control_c, 3, 1, 73
4, 156016, Control_c, 3, 1, 81
4, 156016, Control_c, 3, 1, 86
4, 156032, Control_c, 3, 1, 91
4, 156032, Control_c, 3, 1, 97
4, 156048, Control_c, 3, 1, 100
4, 156048, Control_c, 3, 1, 106
4, 156064, Control_c, 3, 1, 109
4, 156064, Control_c, 3, 1, 111
4, 156064, Control_c, 3, 1, 115
4, 156080, Control_c, 3, 1, 117
4, 156096, Control_c, 3, 1, 120
4, 156096, Control_c, 3, 1, 126
4, 156112, Control_c, 3, 1, 127
4, 156128, Control_c, 3, 1, 126
4, 156128, Control_c, 3, 1, 120
4, 156144, Control_c, 3, 1, 109
4, 156144, Control_c, 3, 1, 95
4, 156160, Note_off_c, 3, 57, 0
4, 156160, Control_c, 3, 1, 75
4, 156160, Control_c, 3, 1, 54
4, 156176, Control_c, 3, 1, 36
4, 156176, Control_c, 3, 1, 14
4, 156192, Control_c, 3, 1, 0
4, 163600, Note_on_c, 3, 67, 127
4, 163664, Pitch_bend_c, 3, 8976
4, 163680, Pitch_bend_c, 3, 11408
4, 163696, Pitch_bend_c, 3, 12208
4, 163696, Pitch_bend_c, 3, 13008
4, 163712, Pitch_bend_c, 3, 13616
4, 163712, Pitch_bend_c, 3, 14368
4, 163728, Pitch_bend_c, 3, 14976
4, 163728, Pitch_bend_c, 3, 15856
4, 163744, Pitch_bend_c, 3, 16288
4, 163744, Pitch_bend_c, 3, 16383
4, 164192, Control_c, 3, 1, 3
4, 164192, Control_c, 3, 1, 7
4, 164208, Control_c, 3, 1, 10
4, 164208, Control_c, 3, 1, 16
4, 164224, Control_c, 3, 1, 19
4, 164224, Control_c, 3, 1, 25
4, 164240, Control_c, 3, 1, 32
4, 164240, Control_c, 3, 1, 37
4, 164256, Control_c, 3, 1, 43
4, 164256, Control_c, 3, 1, 48
4, 164272, Control_c, 3, 1, 54
4, 164272, Control_c, 3, 1, 55
4, 164288, Control_c, 3, 1, 59
4, 164288, Control_c, 3, 1, 61
4, 164304, Control_c, 3, 1, 63
4, 164304, Control_c, 3, 1, 66
4, 164320, Control_c, 3, 1, 68
4, 164320, Control_c, 3, 1, 72
4, 164336, Control_c, 3, 1, 73
4, 164336, Control_c, 3, 1, 75
4, 164352, Control_c, 3, 1, 77
4, 164368, Control_c, 3, 1, 79
4, 164368, Control_c, 3, 1, 81
4, 164384, Control_c, 3, 1, 82
4, 164384, Control_c, 3, 1, 84
4, 164400, Control_c, 3, 1, 88
4, 164400, Control_c, 3, 1, 91
4, 164416, Control_c, 3, 1, 95
4, 164416, Control_c, 3, 1, 99
4, 164432, Control_c, 3, 1, 97
4, 164448, Control_c, 3, 1, 93
4, 164448, Control_c, 3, 1, 90
4, 164464, Note_off_c, 3, 67, 0
4, 164464, Control_c, 3, 1, 79
4, 164464, Control_c, 3, 1, 61
4, 164480, Control_c, 3, 1, 30
4, 164480, Control_c, 3, 1, 0
4, 164528, Pitch_bend_c, 3, 15600
4, 164528, Pitch_bend_c, 3, 13584
4, 164544, Pitch_bend_c, 3, 9312
4, 164560, Pitch_bend_c, 3, 8192
4, 164560, Note_on_c, 3, 69, 127
4, 164768, Note_on_c, 3, 67, 127
4, 164784, Pitch_bend_c, 3, 8656
4, 164800, Note_off_c, 3, 69, 0
4, 164800, Pitch_bend_c, 3, 10032
4, 164800, Pitch_bend_c, 3, 11184
4, 164816, Pitch_bend_c, 3, 12400
4, 164816, Pitch_bend_c, 3, 13088
4, 164832, Pitch_bend_c, 3, 13840
4, 164832, Pitch_bend_c, 3, 14256
4, 164848, Pitch_bend_c, 3, 14992
4, 164848, Pitch_bend_c, 3, 15584
4, 164864, Pitch_bend_c, 3, 16240
4, 164864, Pitch_bend_c, 3, 16383
4, 165152, Control_c, 3, 1, 1
4, 165152, Control_c, 3, 1, 16
4, 165168, Control_c, 3, 1, 27
4, 165168, Control_c, 3, 1, 34
4, 165184, Control_c, 3, 1, 41
4, 165184, Control_c, 3, 1, 43
4, 165200, Control_c, 3, 1, 45
4, 165200, Control_c, 3, 1, 48
4, 165216, Control_c, 3, 1, 52
4, 165232, Control_c, 3, 1, 55
4, 165232, Control_c, 3, 1, 61
4, 165248, Control_c, 3, 1, 66
4, 165248, Control_c, 3, 1, 72
4, 165264, Control_c, 3, 1, 77
4, 165264, Control_c, 3, 1, 82
4, 165280, Control_c, 3, 1, 86
4, 165280, Control_c, 3, 1, 90
4, 165296, Control_c, 3, 1, 95
4, 165296, Control_c, 3, 1, 97
4, 165312, Control_c, 3, 1, 100
4, 165328, Control_c, 3, 1, 102
4, 165344, Control_c, 3, 1, 104
4, 165360, Control_c, 3, 1, 106
4, 165360, Control_c, 3, 1, 109
4, 165376, Control_c, 3, 1, 113
4, 165376, Control_c, 3, 1, 118
4, 165392, Control_c, 3, 1, 122
4, 165392, Control_c, 3, 1, 124
4, 165408, Control_c, 3, 1, 126
4, 165440, Control_c, 3, 1, 124
4, 165440, Control_c, 3, 1, 117
4, 165456, Control_c, 3, 1, 106
4, 165456, Control_c, 3, 1, 91
4, 165472, Control_c, 3, 1, 81
4, 165472, Control_c, 3, 1, 70
4, 165488, Control_c, 3, 1, 55
4, 165488, Control_c, 3, 1, 43
4, 165504, Control_c, 3, 1, 28
4, 165504, Control_c, 3, 1, 14
4, 165520, Control_c, 3, 1, 3
4, 165520, Control_c, 3, 1, 0
4, 165600, Note_off_c, 3, 67, 0
4, 165648, Pitch_bend_c, 3, 15520
4, 165664, Pitch_bend_c, 3, 13568
4, 165664, Pitch_bend_c, 3, 11216
4, 165680, Pitch_bend_c, 3, 8624
4, 165680, Pitch_bend_c, 3, 8192
4, 165696, Note_on_c, 3, 69, 127
4, 165904, Note_on_c, 3, 67, 127
4, 165936, Note_off_c, 3, 69, 0
4, 166304, Control_c, 3, 1, 5
4, 166320, Control_c, 3, 1, 9
4, 166320, Control_c, 3, 1, 14
4, 166336, Control_c, 3, 1, 16
4, 166336, Control_c, 3, 1, 19
4, 166352, Control_c, 3, 1, 23
4, 166352, Control_c, 3, 1, 27
4, 166368, Control_c, 3, 1, 32
4, 166368, Control_c, 3, 1, 39
4, 166384, Control_c, 3, 1, 46
4, 166384, Control_c, 3, 1, 55
4, 166400, Control_c, 3, 1, 64
4, 166400, Control_c, 3, 1, 73
4, 166416, Control_c, 3, 1, 82
4, 166416, Control_c, 3, 1, 90
4, 166432, Control_c, 3, 1, 93
4, 166432, Control_c, 3, 1, 97
4, 166448, Control_c, 3, 1, 100
4, 166448, Control_c, 3, 1, 104
4, 166464, Control_c, 3, 1, 111
4, 166480, Control_c, 3, 1, 118
4, 166480, Control_c, 3, 1, 124
4, 166496, Control_c, 3, 1, 127
4, 166608, Control_c, 3, 1, 102
4, 166608, Control_c, 3, 1, 68
4, 166624, Control_c, 3, 1, 34
4, 166624, Control_c, 3, 1, 0
4, 166688, Note_off_c, 3, 67, 0
4, 166832, Note_on_c, 3, 62, 127
4, 166848, Pitch_bend_c, 3, 9616
4, 166864, Pitch_bend_c, 3, 10880
4, 166864, Pitch_bend_c, 3, 12048
4, 166880, Pitch_bend_c, 3, 13376
4, 166880, Pitch_bend_c, 3, 14640
4, 166896, Pitch_bend_c, 3, 15984
4, 166896, Pitch_bend_c, 3, 16383
4, 167000, Note_off_c, 3, 62, 0
4, 167024, Pitch_bend_c, 3, 14864
4, 167024, Pitch_bend_c, 3, 12960
4, 167040, Pitch_bend_c, 3, 8192
4, 167088, Note_on_c, 3, 62, 127
4, 167264, Note_off_c, 3, 62, 0
4, 167264, Note_on_c, 3, 57, 127
4, 168784, Note_off_c, 3, 57, 0
4, 169136, Note_on_c, 3, 69, 127
4, 169344, Note_off_c, 3, 69, 0
4, 169344, Note_on_c, 3, 67, 127
4, 169392, Pitch_bend_c, 3, 8592
4, 169392, Pitch_bend_c, 3, 9584
4, 169408, Pitch_bend_c, 3, 10336
4, 169408, Pitch_bend_c, 3, 11376
4, 169424, Pitch_bend_c, 3, 12096
4, 169424, Pitch_bend_c, 3, 12928
4, 169440, Pitch_bend_c, 3, 13648
4, 169456, Pitch_bend_c, 3, 14416
4, 169456, Pitch_bend_c, 3, 15184
4, 169472, Pitch_bend_c, 3, 16176
4, 169472, Pitch_bend_c, 3, 16383
4, 169632, Control_c, 3, 1, 1
4, 169648, Control_c, 3, 1, 9
4, 169648, Control_c, 3, 1, 16
4, 169664, Control_c, 3, 1, 21
4, 169664, Control_c, 3, 1, 27
4, 169680, Control_c, 3, 1, 34
4, 169680, Control_c, 3, 1, 41
4, 169696, Control_c, 3, 1, 52
4, 169696, Control_c, 3, 1, 63
4, 169712, Control_c, 3, 1, 77
4, 169712, Control_c, 3, 1, 91
4, 169728, Control_c, 3, 1, 104
4, 169744, Control_c, 3, 1, 115
4, 169744, Control_c, 3, 1, 120
4, 169760, Control_c, 3, 1, 124
4, 169760, Control_c, 3, 1, 120
4, 169776, Control_c, 3, 1, 117
4, 169776, Control_c, 3, 1, 118
4, 169792, Control_c, 3, 1, 124
4, 169792, Control_c, 3, 1, 127
4, 170096, Control_c, 3, 1, 120
4, 170096, Control_c, 3, 1, 106
4, 170112, Control_c, 3, 1, 86
4, 170112, Control_c, 3, 1, 64
4, 170128, Control_c, 3, 1, 46
4, 170128, Control_c, 3, 1, 27
4, 170144, Control_c, 3, 1, 10
4, 170144, Control_c, 3, 1, 0
4, 170256, Note_off_c, 3, 67, 0
4, 170256, Pitch_bend_c, 3, 15296
4, 170272, Pitch_bend_c, 3, 13456
4, 170272, Pitch_bend_c, 3, 11376
4, 170288, Pitch_bend_c, 3, 9232
4, 170288, Pitch_bend_c, 3, 8192
4, 170304, Note_on_c, 3, 69, 127
4, 170528, Note_on_c, 3, 67, 127
4, 170552, Note_off_c, 3, 69, 0
4, 170912, Control_c, 3, 1, 1
4, 170928, Control_c, 3, 1, 7
4, 170928, Control_c, 3, 1, 10
4, 170944, Control_c, 3, 1, 14
4, 170944, Control_c, 3, 1, 19
4, 170960, Control_c, 3, 1, 23
4, 170960, Control_c, 3, 1, 27
4, 170976, Control_c, 3, 1, 30
4, 170976, Control_c, 3, 1, 34
4, 170992, Control_c, 3, 1, 36
4, 170992, Control_c, 3, 1, 39
4, 171008, Control_c, 3, 1, 43
4, 171008, Control_c, 3, 1, 45
4, 171024, Control_c, 3, 1, 46
4, 171024, Control_c, 3, 1, 50
4, 171040, Control_c, 3, 1, 52
4, 171056, Control_c, 3, 1, 50
4, 171072, Control_c, 3, 1, 48
4, 171088, Control_c, 3, 1, 46
4, 171088, Control_c, 3, 1, 45
4, 171120, Control_c, 3, 1, 41
4, 171136, Control_c, 3, 1, 37
4, 171136, Control_c, 3, 1, 34
4, 171152, Control_c, 3, 1, 28
4, 171152, Control_c, 3, 1, 21
4, 171168, Control_c, 3, 1, 14
4, 171168, Control_c, 3, 1, 9
4, 171184, Control_c, 3, 1, 1
4, 171184, Control_c, 3, 1, 0
4, 171456, Note_off_c, 3, 67, 0
4, 171456, Note_on_c, 3, 64, 127
4, 171648, Note_off_c, 3, 64, 0
4, 171648, Note_on_c, 3, 62, 127
4, 171696, Pitch_bend_c, 3, 8880
4, 171696, Pitch_bend_c, 3, 9728
4, 171712, Pitch_bend_c, 3, 10528
4, 171712, Pitch_bend_c, 3, 11136
4, 171728, Pitch_bend_c, 3, 11856
4, 171728, Pitch_bend_c, 3, 12512
4, 171744, Pitch_bend_c, 3, 13088
4, 171744, Pitch_bend_c, 3, 13728
4, 171760, Pitch_bend_c, 3, 14496
4, 171760, Pitch_bend_c, 3, 15056
4, 171776, Pitch_bend_c, 3, 15632
4, 171776, Pitch_bend_c, 3, 16240
4, 171792, Pitch_bend_c, 3, 16383
4, 172112, Control_c, 3, 1, 7
4, 172128, Control_c, 3, 1, 14
4, 172144, Control_c, 3, 1, 23
4, 172144, Control_c, 3, 1, 30
4, 172144, Control_c, 3, 1, 36
4, 172160, Control_c, 3, 1, 43
4, 172160, Control_c, 3, 1, 50
4, 172176, Control_c, 3, 1, 54
4, 172192, Control_c, 3, 1, 59
4, 172192, Control_c, 3, 1, 64
4, 172208, Control_c, 3, 1, 68
4, 172208, Control_c, 3, 1, 70
4, 172240, Control_c, 3, 1, 75
4, 172256, Control_c, 3, 1, 81
4, 172256, Control_c, 3, 1, 84
4, 172272, Control_c, 3, 1, 88
4, 172272, Control_c, 3, 1, 90
4, 172288, Control_c, 3, 1, 88
4, 172304, Control_c, 3, 1, 84
4, 172304, Control_c, 3, 1, 79
4, 172320, Control_c, 3, 1, 72
4, 172320, Control_c, 3, 1, 66
4, 172336, Control_c, 3, 1, 61
4, 172336, Control_c, 3, 1, 54
4, 172352, Control_c, 3, 1, 48
4, 172352, Control_c, 3, 1, 41
4, 172368, Control_c, 3, 1, 34
4, 172368, Control_c, 3, 1, 28
4, 172384, Control_c, 3, 1, 23
4, 172416, Control_c, 3, 1, 21
4, 172432, Control_c, 3, 1, 18
4, 172432, Control_c, 3, 1, 16
4, 172448, Control_c, 3, 1, 14
4, 172448, Control_c, 3, 1, 7
4, 172464, Control_c, 3, 1, 0
4, 172808, Note_off_c, 3, 62, 0
4, 173008, Pitch_bend_c, 3, 15376
4, 173008, Pitch_bend_c, 3, 14384
4, 173024, Pitch_bend_c, 3, 12896
4, 173024, Pitch_bend_c, 3, 11408
4, 173040, Pitch_bend_c, 3, 10032
4, 173040, Pitch_bend_c, 3, 8848
4, 173056, Pitch_bend_c, 3, 8192
4, 173680, Note_on_c, 3, 64, 127
4, 173744, Note_on_c, 3, 69, 127
4, 173760, Note_off_c, 3, 64, 0
4, 173936, Note_off_c, 3, 69, 0
4, 173952, Note_on_c, 3, 67, 127
4, 173984, Pitch_bend_c, 3, 9456
4, 173984, Pitch_bend_c, 3, 11056
4, 174000, Pitch_bend_c, 3, 12512
4, 174000, Pitch_bend_c, 3, 14368
4, 174016, Pitch_bend_c, 3, 15776
4, 174016, Pitch_bend_c, 3, 16383
4, 174224, Control_c, 3, 1, 3
4, 174240, Control_c, 3, 1, 14
4, 174240, Control_c, 3, 1, 25
4, 174256, Control_c, 3, 1, 39
4, 174256, Control_c, 3, 1, 54
4, 174272, Control_c, 3, 1, 68
4, 174272, Control_c, 3, 1, 81
4, 174288, Control_c, 3, 1, 91
4, 174288, Control_c, 3, 1, 100
4, 174304, Control_c, 3, 1, 109
4, 174304, Control_c, 3, 1, 117
4, 174320, Control_c, 3, 1, 127
4, 174704, Control_c, 3, 1, 120
4, 174720, Control_c, 3, 1, 66
4, 174736, Control_c, 3, 1, 16
4, 174736, Control_c, 3, 1, 0
4, 174816, Note_off_c, 3, 67, 0
4, 174816, Pitch_bend_c, 3, 16080
4, 174832, Pitch_bend_c, 3, 14640
4, 174848, Pitch_bend_c, 3, 12896
4, 174848, Pitch_bend_c, 3, 10944
4, 174848, Pitch_bend_c, 3, 8976
4, 174864, Pitch_bend_c, 3, 8192
4, 174896, Note_on_c, 3, 69, 127
4, 175104, Note_off_c, 3, 69, 0
4, 175104, Note_on_c, 3, 67, 127
4, 175344, Control_c, 3, 1, 12
4, 175360, Control_c, 3, 1, 23
4, 175360, Control_c, 3, 1, 32
4, 175376, Control_c, 3, 1, 41
4, 175376, Control_c, 3, 1, 48
4, 175392, Control_c, 3, 1, 55
4, 175392, Control_c, 3, 1, 61
4, 175408, Control_c, 3, 1, 64
4, 175408, Control_c, 3, 1, 66
4, 175424, Control_c, 3, 1, 68
4, 175424, Control_c, 3, 1, 72
4, 175440, Control_c, 3, 1, 73
4, 175440, Control_c, 3, 1, 79
4, 175456, Control_c, 3, 1, 84
4, 175456, Control_c, 3, 1, 90
4, 175472, Control_c, 3, 1, 97
4, 175472, Control_c, 3, 1, 104
4, 175488, Control_c, 3, 1, 109
4, 175504, Control_c, 3, 1, 117
4, 175504, Control_c, 3, 1, 120
4, 175520, Control_c, 3, 1, 122
4, 175520, Control_c, 3, 1, 126
4, 175536, Control_c, 3, 1, 127
4, 175616, Control_c, 3, 1, 118
4, 175632, Control_c, 3, 1, 109
4, 175632, Control_c, 3, 1, 100
4, 175648, Control_c, 3, 1, 93
4, 175648, Control_c, 3, 1, 90
4, 175664, Control_c, 3, 1, 86
4, 175664, Control_c, 3, 1, 84
4, 175680, Control_c, 3, 1, 81
4, 175696, Control_c, 3, 1, 73
4, 175696, Control_c, 3, 1, 61
4, 175696, Control_c, 3, 1, 43
4, 175712, Control_c, 3, 1, 25
4, 175712, Control_c, 3, 1, 7
4, 175728, Control_c, 3, 1, 0
4, 175920, Note_off_c, 3, 67, 0
4, 176032, Note_on_c, 3, 60, 127
4, 176184, Note_off_c, 3, 60, 0
4, 176256, Note_on_c, 3, 60, 127
4, 176288, Pitch_bend_c, 3, 8960
4, 176288, Pitch_bend_c, 3, 10000
4, 176304, Pitch_bend_c, 3, 11136
4, 176304, Pitch_bend_c, 3, 12272
4, 176320, Pitch_bend_c, 3, 13184
4, 176320, Pitch_bend_c, 3, 14144
4, 176336, Pitch_bend_c, 3, 14976
4, 176336, Pitch_bend_c, 3, 15904
4, 176352, Pitch_bend_c, 3, 16383
4, 176488, Note_off_c, 3, 60, 0
4, 176496, Pitch_bend_c, 3, 15680
4, 176512, Pitch_bend_c, 3, 13456
4, 176512, Pitch_bend_c, 3, 10560
4, 176512, Note_on_c, 3, 57, 127
4, 176528, Pitch_bend_c, 3, 8192
4, 177072, Note_off_c, 3, 57, 0
4, 177184, Note_on_c, 3, 57, 121
4, 177376, Note_off_c, 3, 57, 0
4, 177376, Note_on_c, 3, 55, 121
4, 177424, Pitch_bend_c, 3, 8816
4, 177440, Pitch_bend_c, 3, 9840
4, 177440, Pitch_bend_c, 3, 10912
4, 177456, Pitch_bend_c, 3, 11824
4, 177456, Pitch_bend_c, 3, 12976
4, 177472, Pitch_bend_c, 3, 13808
4, 177472, Pitch_bend_c, 3, 14784
4, 177488, Pitch_bend_c, 3, 15664
4, 177488, Pitch_bend_c, 3, 16383
4, 177776, Control_c, 3, 1, 1
4, 177776, Control_c, 3, 1, 7
4, 177792, Control_c, 3, 1, 12
4, 177792, Control_c, 3, 1, 16
4, 177808, Control_c, 3, 1, 19
4, 177808, Control_c, 3, 1, 23
4, 177824, Control_c, 3, 1, 27
4, 177824, Control_c, 3, 1, 28
4, 177840, Control_c, 3, 1, 30
4, 177840, Control_c, 3, 1, 36
4, 177856, Control_c, 3, 1, 37
4, 177856, Control_c, 3, 1, 41
4, 177872, Control_c, 3, 1, 43
4, 177872, Control_c, 3, 1, 46
4, 177888, Control_c, 3, 1, 43
4, 177904, Control_c, 3, 1, 37
4, 177904, Control_c, 3, 1, 30
4, 177920, Control_c, 3, 1, 23
4, 177920, Control_c, 3, 1, 12
4, 177936, Control_c, 3, 1, 0
4, 178016, Pitch_bend_c, 3, 16096
4, 178032, Pitch_bend_c, 3, 14640
4, 178032, Pitch_bend_c, 3, 12816
4, 178048, Pitch_bend_c, 3, 10752
4, 178048, Pitch_bend_c, 3, 9152
4, 178064, Pitch_bend_c, 3, 8192
4, 178080, Note_off_c, 3, 55, 0
4, 178368, Note_on_c, 3, 57, 127
4, 178576, Note_on_c, 3, 55, 127
4, 178592, Note_off_c, 3, 57, 0
4, 178608, Pitch_bend_c, 3, 9184
4, 178624, Pitch_bend_c, 3, 9888
4, 178624, Pitch_bend_c, 3, 11024
4, 178640, Pitch_bend_c, 3, 11936
4, 178640, Pitch_bend_c, 3, 13152
4, 178656, Pitch_bend_c, 3, 14080
4, 178656, Pitch_bend_c, 3, 15296
4, 178672, Pitch_bend_c, 3, 16176
4, 178672, Pitch_bend_c, 3, 16383
4, 179392, Note_off_c, 3, 55, 0
4, 179440, Pitch_bend_c, 3, 15488
4, 179456, Pitch_bend_c, 3, 13456
4, 179456, Pitch_bend_c, 3, 11296
4, 179472, Pitch_bend_c, 3, 8768
4, 179472, Pitch_bend_c, 3, 8192
4, 179504, Note_on_c, 3, 57, 127
4, 179696, Note_off_c, 3, 57, 0
4, 179744, Note_on_c, 3, 56, 127
4, 179936, Note_off_c, 3, 56, 0
4, 179936, Note_on_c, 3, 52, 123
4, 180616, Note_off_c, 3, 52, 0
4, 180672, Note_on_c, 3, 57, 127
4, 180704, Pitch_bend_c, 3, 8848
4, 180704, Pitch_bend_c, 3, 10576
4, 180720, Pitch_bend_c, 3, 11904
4, 180720, Pitch_bend_c, 3, 13392
4, 180736, Pitch_bend_c, 3, 14608
4, 180736, Pitch_bend_c, 3, 15904
4, 180752, Pitch_bend_c, 3, 16383
4, 180848, Note_off_c, 3, 57, 0
4, 180896, Pitch_bend_c, 3, 15376
4, 180896, Pitch_bend_c, 3, 13376
4, 180912, Pitch_bend_c, 3, 11168
4, 180912, Note_on_c, 3, 57, 127
4, 180912, Pitch_bend_c, 3, 8784
4, 180928, Pitch_bend_c, 3, 8192
4, 181840, Note_off_c, 3, 57, 0
4, 181840, End_track
5, 0, Start_track
5, 0, Title_t, "clean gtr"
5, 0, Control_c, 0, 32, 0
5, 0, Control_c, 4, 0, 0
5, 0, Program_c, 4, 27
5, 0, Control_c, 4, 7, 127
5, 0, Control_c, 4, 10, 64
5, 0, Control_c, 4, 91, 127
5, 0, Control_c, 4, 93, 127
5, 0, Key_signature, 0, "major"
5, 3456, Control_c, 4, 64, 127
5, 3456, Note_on_c, 4, 45, 76
5, 3536, Note_off_c, 4, 45, 0
5, 3648, Note_on_c, 4, 52, 65
5, 3728, Note_off_c, 4, 52, 0
5, 3744, Note_on_c, 4, 57, 65
5, 3824, Note_off_c, 4, 57, 0
5, 3840, Note_on_c, 4, 60, 65
5, 3920, Note_off_c, 4, 60, 0
5, 4032, Note_on_c, 4, 64, 76
5, 4112, Note_off_c, 4, 64, 0
5, 4224, Note_on_c, 4, 60, 65
5, 4304, Note_off_c, 4, 60, 0
5, 4416, Note_on_c, 4, 55, 65
5, 4496, Note_off_c, 4, 55, 0
5, 4592, Control_c, 4, 64, 0
5, 4608, Control_c, 4, 64, 127
5, 4608, Note_on_c, 4, 48, 76
5, 4688, Note_off_c, 4, 48, 0
5, 4800, Note_on_c, 4, 52, 65
5, 4880, Note_off_c, 4, 52, 0
5, 4896, Note_on_c, 4, 55, 65
5, 4976, Note_off_c, 4, 55, 0
5, 4992, Note_on_c, 4, 60, 65
5, 5072, Note_off_c, 4, 60, 0
5, 5184, Note_on_c, 4, 64, 76
5, 5264, Note_off_c, 4, 64, 0
5, 5376, Note_on_c, 4, 60, 65
5, 5456, Note_off_c, 4, 60, 0
5, 5568, Note_on_c, 4, 55, 65
5, 5648, Note_off_c, 4, 55, 0
5, 5744, Control_c, 4, 64, 0
5, 5760, Control_c, 4, 64, 127
5, 5760, Note_on_c, 4, 50, 76
5, 5840, Note_off_c, 4, 50, 0
5, 5952, Note_on_c, 4, 57, 65
5, 6032, Note_off_c, 4, 57, 0
5, 6048, Note_on_c, 4, 62, 65
5, 6128, Note_off_c, 4, 62, 0
5, 6144, Note_on_c, 4, 66, 65
5, 6192, Note_off_c, 4, 66, 0
5, 6336, Note_on_c, 4, 66, 76
5, 6416, Note_off_c, 4, 66, 0
5, 6528, Note_on_c, 4, 62, 65
5, 6608, Note_off_c, 4, 62, 0
5, 6720, Note_on_c, 4, 55, 65
5, 6800, Note_off_c, 4, 55, 0
5, 6896, Control_c, 4, 64, 0
5, 6912, Control_c, 4, 64, 127
5, 6912, Note_on_c, 4, 53, 76
5, 6992, Note_off_c, 4, 53, 0
5, 7104, Note_on_c, 4, 57, 65
5, 7184, Note_off_c, 4, 57, 0
5, 7200, Note_on_c, 4, 60, 65
5, 7280, Note_off_c, 4, 60, 0
5, 7296, Note_on_c, 4, 60, 65
5, 7376, Note_off_c, 4, 60, 0
5, 7488, Note_on_c, 4, 65, 76
5, 7568, Note_off_c, 4, 65, 0
5, 7680, Note_on_c, 4, 57, 65
5, 7760, Note_off_c, 4, 57, 0
5, 7872, Note_on_c, 4, 55, 65
5, 7952, Note_off_c, 4, 55, 0
5, 8048, Control_c, 4, 64, 0
5, 8064, Control_c, 4, 64, 127
5, 8064, Note_on_c, 4, 45, 76
5, 8112, Note_off_c, 4, 45, 0
5, 8256, Note_on_c, 4, 52, 65
5, 8336, Note_off_c, 4, 52, 0
5, 8352, Note_on_c, 4, 57, 65
5, 8432, Note_off_c, 4, 57, 0
5, 8448, Note_on_c, 4, 60, 65
5, 8528, Note_off_c, 4, 60, 0
5, 8640, Note_on_c, 4, 64, 76
5, 8720, Note_off_c, 4, 64, 0
5, 8832, Note_on_c, 4, 60, 65
5, 8880, Note_off_c, 4, 60, 0
5, 9024, Note_on_c, 4, 55, 65
5, 9104, Note_off_c, 4, 55, 0
5, 9200, Control_c, 4, 64, 0
5, 9216, Control_c, 4, 64, 127
5, 9216, Note_on_c, 4, 40, 76
5, 9264, Note_off_c, 4, 40, 0
5, 9408, Note_on_c, 4, 47, 65
5, 9488, Note_off_c, 4, 47, 0
5, 9504, Note_on_c, 4, 52, 65
5, 9584, Note_off_c, 4, 52, 0
5, 9600, Note_on_c, 4, 56, 65
5, 9664, Note_on_c, 4, 59, 65
5, 9680, Note_off_c, 4, 56, 0
5, 9744, Note_off_c, 4, 59, 0
5, 9792, Note_on_c, 4, 64, 76
5, 9840, Note_off_c, 4, 64, 0
5, 9984, Note_on_c, 4, 59, 65
5, 10064, Note_off_c, 4, 59, 0
5, 10176, Note_on_c, 4, 55, 65
5, 10256, Note_off_c, 4, 55, 0
5, 10352, Control_c, 4, 64, 0
5, 10368, Control_c, 4, 64, 127
5, 10368, Note_on_c, 4, 45, 76
5, 10416, Note_off_c, 4, 45, 0
5, 10560, Note_on_c, 4, 52, 65
5, 10640, Note_off_c, 4, 52, 0
5, 10656, Note_on_c, 4, 57, 65
5, 10736, Note_off_c, 4, 57, 0
5, 10752, Note_on_c, 4, 60, 65
5, 10832, Note_off_c, 4, 60, 0
5, 10944, Note_on_c, 4, 64, 76
5, 11024, Note_off_c, 4, 64, 0
5, 11136, Note_on_c, 4, 60, 65
5, 11184, Note_off_c, 4, 60, 0
5, 11328, Note_on_c, 4, 55, 65
5, 11408, Note_off_c, 4, 55, 0
5, 11504, Control_c, 4, 64, 0
5, 11520, Control_c, 4, 64, 127
5, 11520, Note_on_c, 4, 40, 76
5, 11568, Note_off_c, 4, 40, 0
5, 11712, Note_on_c, 4, 47, 65
5, 11792, Note_off_c, 4, 47, 0
5, 11808, Note_on_c, 4, 52, 65
5, 11888, Note_off_c, 4, 52, 0
5, 11904, Note_on_c, 4, 56, 65
5, 11968, Note_on_c, 4, 59, 65
5, 11984, Note_off_c, 4, 56, 0
5, 12048, Note_off_c, 4, 59, 0
5, 12096, Note_on_c, 4, 64, 76
5, 12144, Note_off_c, 4, 64, 0
5, 12288, Note_on_c, 4, 59, 65
5, 12368, Note_off_c, 4, 59, 0
5, 12480, Note_on_c, 4, 55, 65
5, 12560, Note_off_c, 4, 55, 0
5, 12656, Control_c, 4, 64, 0
5, 12672, Control_c, 4, 64, 127
5, 12672, Note_on_c, 4, 45, 76
5, 12720, Note_off_c, 4, 45, 0
5, 12864, Note_on_c, 4, 52, 65
5, 12944, Note_off_c, 4, 52, 0
5, 12960, Note_on_c, 4, 57, 65
5, 13040, Note_off_c, 4, 57, 0
5, 13056, Note_on_c, 4, 60, 65
5, 13136, Note_off_c, 4, 60, 0
5, 13248, Note_on_c, 4, 64, 76
5, 13328, Note_off_c, 4, 64, 0
5, 13440, Note_on_c, 4, 60, 65
5, 13520, Note_off_c, 4, 60, 0
5, 13632, Note_on_c, 4, 55, 65
5, 13712, Note_off_c, 4, 55, 0
5, 13808, Control_c, 4, 64, 0
5, 13824, Control_c, 4, 64, 127
5, 13824, Note_on_c, 4, 48, 76
5, 13904, Note_off_c, 4, 48, 0
5, 14016, Note_on_c, 4, 52, 65
5, 14096, Note_off_c, 4, 52, 0
5, 14112, Note_on_c, 4, 55, 65
5, 14192, Note_off_c, 4, 55, 0
5, 14208, Note_on_c, 4, 60, 65
5, 14288, Note_off_c, 4, 60, 0
5, 14400, Note_on_c, 4, 64, 76
5, 14480, Note_off_c, 4, 64, 0
5, 14592, Note_on_c, 4, 60, 65
5, 14672, Note_off_c, 4, 60, 0
5, 14784, Note_on_c, 4, 55, 65
5, 14864, Note_off_c, 4, 55, 0
5, 14960, Control_c, 4, 64, 0
5, 14976, Control_c, 4, 64, 127
5, 14976, Note_on_c, 4, 50, 76
5, 15056, Note_off_c, 4, 50, 0
5, 15168, Note_on_c, 4, 57, 65
5, 15248, Note_off_c, 4, 57, 0
5, 15264, Note_on_c, 4, 62, 65
5, 15344, Note_off_c, 4, 62, 0
5, 15360, Note_on_c, 4, 66, 65
5, 15408, Note_off_c, 4, 66, 0
5, 15552, Note_on_c, 4, 66, 76
5, 15632, Note_off_c, 4, 66, 0
5, 15744, Note_on_c, 4, 62, 65
5, 15824, Note_off_c, 4, 62, 0
5, 15936, Note_on_c, 4, 55, 65
5, 16016, Note_off_c, 4, 55, 0
5, 16112, Control_c, 4, 64, 0
5, 16128, Control_c, 4, 64, 127
5, 16128, Note_on_c, 4, 53, 76
5, 16208, Note_off_c, 4, 53, 0
5, 16320, Note_on_c, 4, 57, 65
5, 16400, Note_off_c, 4, 57, 0
5, 16416, Note_on_c, 4, 60, 65
5, 16496, Note_off_c, 4, 60, 0
5, 16512, Note_on_c, 4, 60, 65
5, 16592, Note_off_c, 4, 60, 0
5, 16704, Note_on_c, 4, 65, 76
5, 16784, Note_off_c, 4, 65, 0
5, 16896, Note_on_c, 4, 57, 65
5, 16976, Note_off_c, 4, 57, 0
5, 17088, Note_on_c, 4, 55, 65
5, 17168, Note_off_c, 4, 55, 0
5, 17264, Control_c, 4, 64, 0
5, 17280, Control_c, 4, 64, 127
5, 17280, Note_on_c, 4, 45, 76
5, 17328, Note_off_c, 4, 45, 0
5, 17472, Note_on_c, 4, 52, 65
5, 17552, Note_off_c, 4, 52, 0
5, 17568, Note_on_c, 4, 57, 65
5, 17648, Note_off_c, 4, 57, 0
5, 17664, Note_on_c, 4, 60, 65
5, 17744, Note_off_c, 4, 60, 0
5, 17856, Note_on_c, 4, 64, 76
5, 17936, Note_off_c, 4, 64, 0
5, 18048, Note_on_c, 4, 60, 65
5, 18128, Note_off_c, 4, 60, 0
5, 18240, Note_on_c, 4, 55, 65
5, 18320, Note_off_c, 4, 55, 0
5, 18416, Control_c, 4, 64, 0
5, 18432, Control_c, 4, 64, 127
5, 18432, Note_on_c, 4, 48, 76
5, 18512, Note_off_c, 4, 48, 0
5, 18624, Note_on_c, 4, 52, 65
5, 18704, Note_off_c, 4, 52, 0
5, 18720, Note_on_c, 4, 55, 65
5, 18800, Note_off_c, 4, 55, 0
5, 18816, Note_on_c, 4, 60, 65
5, 18896, Note_off_c, 4, 60, 0
5, 19008, Note_on_c, 4, 64, 76
5, 19088, Note_off_c, 4, 64, 0
5, 19200, Note_on_c, 4, 60, 65
5, 19280, Note_off_c, 4, 60, 0
5, 19392, Note_on_c, 4, 55, 65
5, 19472, Note_off_c, 4, 55, 0
5, 19568, Control_c, 4, 64, 0
5, 19584, Control_c, 4, 64, 127
5, 19584, Note_on_c, 4, 40, 76
5, 19632, Note_off_c, 4, 40, 0
5, 19776, Note_on_c, 4, 47, 65
5, 19856, Note_off_c, 4, 47, 0
5, 19872, Note_on_c, 4, 52, 65
5, 19952, Note_off_c, 4, 52, 0
5, 19968, Note_on_c, 4, 56, 65
5, 20032, Note_on_c, 4, 59, 65
5, 20048, Note_off_c, 4, 56, 0
5, 20112, Note_off_c, 4, 59, 0
5, 20160, Note_on_c, 4, 64, 76
5, 20208, Note_off_c, 4, 64, 0
5, 20352, Note_on_c, 4, 56, 65
5, 20432, Note_off_c, 4, 56, 0
5, 20544, Note_on_c, 4, 52, 65
5, 20624, Note_off_c, 4, 52, 0
5, 20720, Control_c, 4, 64, 0
5, 20736, Control_c, 4, 64, 127
5, 20736, Note_on_c, 4, 40, 76
5, 20784, Note_off_c, 4, 40, 0
5, 20928, Note_on_c, 4, 47, 65
5, 21008, Note_off_c, 4, 47, 0
5, 21024, Note_on_c, 4, 52, 65
5, 21104, Note_off_c, 4, 52, 0
5, 21120, Note_on_c, 4, 56, 65
5, 21184, Note_on_c, 4, 59, 65
5, 21200, Note_off_c, 4, 56, 0
5, 21264, Note_off_c, 4, 59, 0
5, 21312, Note_on_c, 4, 64, 76
5, 21360, Note_off_c, 4, 64, 0
5, 21504, Note_on_c, 4, 59, 65
5, 21584, Note_off_c, 4, 59, 0
5, 21696, Note_on_c, 4, 55, 65
5, 21776, Note_off_c, 4, 55, 0
5, 21872, Control_c, 4, 64, 0
5, 21888, Control_c, 4, 64, 127
5, 21888, Note_on_c, 4, 45, 76
5, 21936, Note_off_c, 4, 45, 0
5, 22080, Note_on_c, 4, 52, 65
5, 22160, Note_off_c, 4, 52, 0
5, 22176, Note_on_c, 4, 57, 65
5, 22256, Note_off_c, 4, 57, 0
5, 22272, Note_on_c, 4, 60, 65
5, 22352, Note_off_c, 4, 60, 0
5, 22464, Note_on_c, 4, 64, 76
5, 22544, Note_off_c, 4, 64, 0
5, 22656, Note_on_c, 4, 60, 65
5, 22736, Note_off_c, 4, 60, 0
5, 22848, Note_on_c, 4, 55, 65
5, 22928, Note_off_c, 4, 55, 0
5, 23024, Control_c, 4, 64, 0
5, 23040, Control_c, 4, 64, 127
5, 23040, Note_on_c, 4, 48, 76
5, 23120, Note_off_c, 4, 48, 0
5, 23232, Note_on_c, 4, 52, 65
5, 23312, Note_off_c, 4, 52, 0
5, 23328, Note_on_c, 4, 55, 65
5, 23408, Note_off_c, 4, 55, 0
5, 23424, Note_on_c, 4, 60, 65
5, 23504, Note_off_c, 4, 60, 0
5, 23616, Note_on_c, 4, 64, 76
5, 23696, Note_off_c, 4, 64, 0
5, 23808, Note_on_c, 4, 60, 65
5, 23888, Note_off_c, 4, 60, 0
5, 24000, Note_on_c, 4, 55, 65
5, 24080, Note_off_c, 4, 55, 0
5, 24176, Control_c, 4, 64, 0
5, 24192, Control_c, 4, 64, 127
5, 24192, Note_on_c, 4, 50, 76
5, 24272, Note_off_c, 4, 50, 0
5, 24384, Note_on_c, 4, 57, 65
5, 24464, Note_off_c, 4, 57, 0
5, 24480, Note_on_c, 4, 62, 65
5, 24560, Note_off_c, 4, 62, 0
5, 24576, Note_on_c, 4, 66, 65
5, 24624, Note_off_c, 4, 66, 0
5, 24768, Note_on_c, 4, 66, 76
5, 24848, Note_off_c, 4, 66, 0
5, 24960, Note_on_c, 4, 62, 65
5, 25040, Note_off_c, 4, 62, 0
5, 25152, Note_on_c, 4, 55, 65
5, 25232, Note_off_c, 4, 55, 0
5, 25328, Control_c, 4, 64, 0
5, 25344, Control_c, 4, 64, 127
5, 25344, Note_on_c, 4, 53, 76
5, 25424, Note_off_c, 4, 53, 0
5, 25536, Note_on_c, 4, 57, 65
5, 25616, Note_off_c, 4, 57, 0
5, 25632, Note_on_c, 4, 60, 65
5, 25712, Note_off_c, 4, 60, 0
5, 25728, Note_on_c, 4, 60, 65
5, 25808, Note_off_c, 4, 60, 0
5, 25920, Note_on_c, 4, 65, 76
5, 26000, Note_off_c, 4, 65, 0
5, 26112, Note_on_c, 4, 57, 65
5, 26192, Note_off_c, 4, 57, 0
5, 26304, Note_on_c, 4, 55, 65
5, 26384, Note_off_c, 4, 55, 0
5, 26480, Control_c, 4, 64, 0
5, 26496, Control_c, 4, 64, 127
5, 26496, Note_on_c, 4, 45, 76
5, 26544, Note_off_c, 4, 45, 0
5, 26688, Note_on_c, 4, 52, 65
5, 26768, Note_off_c, 4, 52, 0
5, 26784, Note_on_c, 4, 57, 65
5, 26864, Note_off_c, 4, 57, 0
5, 26880, Note_on_c, 4, 60, 65
5, 26960, Note_off_c, 4, 60, 0
5, 27072, Note_on_c, 4, 64, 76
5, 27152, Note_off_c, 4, 64, 0
5, 27264, Note_on_c, 4, 60, 65
5, 27312, Note_off_c, 4, 60, 0
5, 27456, Note_on_c, 4, 55, 65
5, 27536, Note_off_c, 4, 55, 0
5, 27632, Control_c, 4, 64, 0
5, 27648, Control_c, 4, 64, 127
5, 27648, Note_on_c, 4, 40, 76
5, 27696, Note_off_c, 4, 40, 0
5, 27840, Note_on_c, 4, 47, 65
5, 27920, Note_off_c, 4, 47, 0
5, 27936, Note_on_c, 4, 52, 65
5, 28016, Note_off_c, 4, 52, 0
5, 28032, Note_on_c, 4, 56, 65
5, 28096, Note_on_c, 4, 59, 65
5, 28112, Note_off_c, 4, 56, 0
5, 28176, Note_off_c, 4, 59, 0
5, 28224, Note_on_c, 4, 64, 76
5, 28272, Note_off_c, 4, 64, 0
5, 28416, Note_on_c, 4, 59, 65
5, 28496, Note_off_c, 4, 59, 0
5, 28608, Note_on_c, 4, 55, 65
5, 28688, Note_off_c, 4, 55, 0
5, 28784, Control_c, 4, 64, 0
5, 28800, Control_c, 4, 64, 127
5, 28800, Note_on_c, 4, 45, 76
5, 28848, Note_off_c, 4, 45, 0
5, 28992, Note_on_c, 4, 52, 65
5, 29072, Note_off_c, 4, 52, 0
5, 29088, Note_on_c, 4, 57, 65
5, 29168, Note_off_c, 4, 57, 0
5, 29184, Note_on_c, 4, 60, 65
5, 29264, Note_off_c, 4, 60, 0
5, 29376, Note_on_c, 4, 64, 76
5, 29456, Note_off_c, 4, 64, 0
5, 29568, Note_on_c, 4, 60, 65
5, 29648, Note_off_c, 4, 60, 0
5, 29760, Note_on_c, 4, 55, 65
5, 29840, Note_off_c, 4, 55, 0
5, 29936, Control_c, 4, 64, 0
5, 29952, Control_c, 4, 64, 127
5, 29952, Note_on_c, 4, 48, 76
5, 30032, Note_off_c, 4, 48, 0
5, 30144, Note_on_c, 4, 52, 65
5, 30224, Note_off_c, 4, 52, 0
5, 30240, Note_on_c, 4, 55, 65
5, 30320, Note_off_c, 4, 55, 0
5, 30336, Note_on_c, 4, 60, 65
5, 30416, Note_off_c, 4, 60, 0
5, 30528, Note_on_c, 4, 64, 76
5, 30608, Note_off_c, 4, 64, 0
5, 30720, Note_on_c, 4, 60, 65
5, 30800, Note_off_c, 4, 60, 0
5, 30912, Note_on_c, 4, 55, 65
5, 30992, Note_off_c, 4, 55, 0
5, 31088, Control_c, 4, 64, 0
5, 31104, Control_c, 4, 64, 127
5, 31104, Note_on_c, 4, 50, 76
5, 31184, Note_off_c, 4, 50, 0
5, 31296, Note_on_c, 4, 57, 65
5, 31376, Note_off_c, 4, 57, 0
5, 31392, Note_on_c, 4, 62, 65
5, 31472, Note_off_c, 4, 62, 0
5, 31488, Note_on_c, 4, 66, 65
5, 31536, Note_off_c, 4, 66, 0
5, 31680, Note_on_c, 4, 66, 76
5, 31760, Note_off_c, 4, 66, 0
5, 31872, Note_on_c, 4, 62, 65
5, 31952, Note_off_c, 4, 62, 0
5, 32064, Note_on_c, 4, 55, 65
5, 32144, Note_off_c, 4, 55, 0
5, 32240, Control_c, 4, 64, 0
5, 32256, Control_c, 4, 64, 127
5, 32256, Note_on_c, 4, 53, 76
5, 32336, Note_off_c, 4, 53, 0
5, 32448, Note_on_c, 4, 57, 65
5, 32528, Note_off_c, 4, 57, 0
5, 32544, Note_on_c, 4, 60, 65
5, 32624, Note_off_c, 4, 60, 0
5, 32640, Note_on_c, 4, 60, 65
5, 32720, Note_off_c, 4, 60, 0
5, 32832, Note_on_c, 4, 65, 76
5, 32912, Note_off_c, 4, 65, 0
5, 33024, Note_on_c, 4, 57, 65
5, 33104, Note_off_c, 4, 57, 0
5, 33216, Note_on_c, 4, 55, 65
5, 33296, Note_off_c, 4, 55, 0
5, 33392, Control_c, 4, 64, 0
5, 33408, Control_c, 4, 64, 127
5, 33408, Note_on_c, 4, 45, 76
5, 33456, Note_off_c, 4, 45, 0
5, 33600, Note_on_c, 4, 52, 65
5, 33680, Note_off_c, 4, 52, 0
5, 33696, Note_on_c, 4, 57, 65
5, 33776, Note_off_c, 4, 57, 0
5, 33792, Note_on_c, 4, 60, 65
5, 33872, Note_off_c, 4, 60, 0
5, 33984, Note_on_c, 4, 64, 76
5, 34064, Note_off_c, 4, 64, 0
5, 34176, Note_on_c, 4, 60, 65
5, 34224, Note_off_c, 4, 60, 0
5, 34368, Note_on_c, 4, 55, 65
5, 34448, Note_off_c, 4, 55, 0
5, 34544, Control_c, 4, 64, 0
5, 34560, Control_c, 4, 64, 127
5, 34560, Note_on_c, 4, 40, 76
5, 34608, Note_off_c, 4, 40, 0
5, 34752, Note_on_c, 4, 47, 65
5, 34832, Note_off_c, 4, 47, 0
5, 34848, Note_on_c, 4, 52, 65
5, 34928, Note_off_c, 4, 52, 0
5, 34944, Note_on_c, 4, 56, 65
5, 35008, Note_on_c, 4, 59, 65
5, 35024, Note_off_c, 4, 56, 0
5, 35088, Note_off_c, 4, 59, 0
5, 35136, Note_on_c, 4, 64, 76
5, 35184, Note_off_c, 4, 64, 0
5, 35328, Note_on_c, 4, 59, 65
5, 35408, Note_off_c, 4, 59, 0
5, 35520, Note_on_c, 4, 55, 65
5, 35600, Note_off_c, 4, 55, 0
5, 35696, Control_c, 4, 64, 0
5, 35712, Control_c, 4, 64, 127
5, 35712, Note_on_c, 4, 45, 76
5, 35760, Note_off_c, 4, 45, 0
5, 35904, Note_on_c, 4, 52, 65
5, 35984, Note_off_c, 4, 52, 0
5, 36000, Note_on_c, 4, 57, 65
5, 36080, Note_off_c, 4, 57, 0
5, 36096, Note_on_c, 4, 60, 65
5, 36176, Note_off_c, 4, 60, 0
5, 36288, Note_on_c, 4, 64, 76
5, 36368, Note_off_c, 4, 64, 0
5, 36480, Note_on_c, 4, 60, 65
5, 36528, Note_off_c, 4, 60, 0
5, 36672, Note_on_c, 4, 55, 65
5, 36752, Note_off_c, 4, 55, 0
5, 36848, Control_c, 4, 64, 0
5, 36864, Control_c, 4, 64, 127
5, 36864, Note_on_c, 4, 40, 76
5, 36912, Note_off_c, 4, 40, 0
5, 37056, Note_on_c, 4, 47, 65
5, 37136, Note_off_c, 4, 47, 0
5, 37152, Note_on_c, 4, 52, 65
5, 37232, Note_off_c, 4, 52, 0
5, 37248, Note_on_c, 4, 56, 65
5, 37312, Note_on_c, 4, 59, 65
5, 37328, Note_off_c, 4, 56, 0
5, 37392, Note_off_c, 4, 59, 0
5, 37440, Note_on_c, 4, 64, 76
5, 37488, Note_off_c, 4, 64, 0
5, 37632, Note_on_c, 4, 59, 65
5, 37712, Note_off_c, 4, 59, 0
5, 37824, Note_on_c, 4, 55, 65
5, 37904, Note_off_c, 4, 55, 0
5, 38000, Control_c, 4, 64, 0
5, 38016, Control_c, 4, 64, 127
5, 38016, Note_on_c, 4, 45, 76
5, 38064, Note_off_c, 4, 45, 0
5, 38208, Note_on_c, 4, 52, 65
5, 38288, Note_off_c, 4, 52, 0
5, 38304, Note_on_c, 4, 57, 65
5, 38384, Note_off_c, 4, 57, 0
5, 38400, Note_on_c, 4, 60, 65
5, 38480, Note_off_c, 4, 60, 0
5, 38592, Note_on_c, 4, 64, 76
5, 38672, Note_off_c, 4, 64, 0
5, 38784, Note_on_c, 4, 60, 65
5, 38864, Note_off_c, 4, 60, 0
5, 38976, Note_on_c, 4, 55, 65
5, 39056, Note_off_c, 4, 55, 0
5, 39152, Control_c, 4, 64, 0
5, 39168, Control_c, 4, 64, 127
5, 39168, Note_on_c, 4, 48, 76
5, 39248, Note_off_c, 4, 48, 0
5, 39360, Note_on_c, 4, 52, 65
5, 39440, Note_off_c, 4, 52, 0
5, 39456, Note_on_c, 4, 55, 65
5, 39536, Note_off_c, 4, 55, 0
5, 39552, Note_on_c, 4, 60, 65
5, 39632, Note_off_c, 4, 60, 0
5, 39744, Note_on_c, 4, 64, 76
5, 39824, Note_off_c, 4, 64, 0
5, 39936, Note_on_c, 4, 60, 65
5, 40016, Note_off_c, 4, 60, 0
5, 40128, Note_on_c, 4, 55, 65
5, 40208, Note_off_c, 4, 55, 0
5, 40304, Control_c, 4, 64, 0
5, 40320, Control_c, 4, 64, 127
5, 40320, Note_on_c, 4, 50, 76
5, 40400, Note_off_c, 4, 50, 0
5, 40512, Note_on_c, 4, 57, 65
5, 40592, Note_off_c, 4, 57, 0
5, 40608, Note_on_c, 4, 62, 65
5, 40688, Note_off_c, 4, 62, 0
5, 40704, Note_on_c, 4, 66, 65
5, 40752, Note_off_c, 4, 66, 0
5, 40896, Note_on_c, 4, 66, 76
5, 40976, Note_off_c, 4, 66, 0
5, 41088, Note_on_c, 4, 62, 65
5, 41168, Note_off_c, 4, 62, 0
5, 41280, Note_on_c, 4, 55, 65
5, 41360, Note_off_c, 4, 55, 0
5, 41456, Control_c, 4, 64, 0
5, 41472, Control_c, 4, 64, 127
5, 41472, Note_on_c, 4, 53, 76
5, 41552, Note_off_c, 4, 53, 0
5, 41664, Note_on_c, 4, 57, 65
5, 41744, Note_off_c, 4, 57, 0
5, 41760, Note_on_c, 4, 60, 65
5, 41840, Note_off_c, 4, 60, 0
5, 41856, Note_on_c, 4, 60, 65
5, 41936, Note_off_c, 4, 60, 0
5, 42048, Note_on_c, 4, 65, 76
5, 42128, Note_off_c, 4, 65, 0
5, 42240, Note_on_c, 4, 57, 65
5, 42320, Note_off_c, 4, 57, 0
5, 42432, Note_on_c, 4, 55, 65
5, 42512, Note_off_c, 4, 55, 0
5, 42608, Control_c, 4, 64, 0
5, 42624, Control_c, 4, 64, 127
5, 42624, Note_on_c, 4, 45, 76
5, 42672, Note_off_c, 4, 45, 0
5, 42816, Note_on_c, 4, 52, 65
5, 42896, Note_off_c, 4, 52, 0
5, 42912, Note_on_c, 4, 57, 65
5, 42992, Note_off_c, 4, 57, 0
5, 43008, Note_on_c, 4, 60, 65
5, 43088, Note_off_c, 4, 60, 0
5, 43200, Note_on_c, 4, 64, 76
5, 43280, Note_off_c, 4, 64, 0
5, 43392, Note_on_c, 4, 60, 65
5, 43472, Note_off_c, 4, 60, 0
5, 43584, Note_on_c, 4, 55, 65
5, 43664, Note_off_c, 4, 55, 0
5, 43760, Control_c, 4, 64, 0
5, 43776, Control_c, 4, 64, 127
5, 43776, Note_on_c, 4, 48, 76
5, 43856, Note_off_c, 4, 48, 0
5, 43968, Note_on_c, 4, 52, 65
5, 44048, Note_off_c, 4, 52, 0
5, 44064, Note_on_c, 4, 55, 65
5, 44144, Note_off_c, 4, 55, 0
5, 44160, Note_on_c, 4, 60, 65
5, 44240, Note_off_c, 4, 60, 0
5, 44352, Note_on_c, 4, 64, 76
5, 44432, Note_off_c, 4, 64, 0
5, 44544, Note_on_c, 4, 60, 65
5, 44624, Note_off_c, 4, 60, 0
5, 44736, Note_on_c, 4, 55, 65
5, 44816, Note_off_c, 4, 55, 0
5, 44912, Control_c, 4, 64, 0
5, 44928, Control_c, 4, 64, 127
5, 44928, Note_on_c, 4, 40, 76
5, 44976, Note_off_c, 4, 40, 0
5, 45120, Note_on_c, 4, 47, 65
5, 45200, Note_off_c, 4, 47, 0
5, 45216, Note_on_c, 4, 52, 65
5, 45296, Note_off_c, 4, 52, 0
5, 45312, Note_on_c, 4, 56, 65
5, 45376, Note_on_c, 4, 59, 65
5, 45392, Note_off_c, 4, 56, 0
5, 45456, Note_off_c, 4, 59, 0
5, 45504, Note_on_c, 4, 64, 76
5, 45552, Note_off_c, 4, 64, 0
5, 45696, Note_on_c, 4, 56, 65
5, 45776, Note_off_c, 4, 56, 0
5, 45888, Note_on_c, 4, 52, 65
5, 45968, Note_off_c, 4, 52, 0
5, 46064, Control_c, 4, 64, 0
5, 46080, Control_c, 4, 64, 127
5, 46080, Note_on_c, 4, 40, 76
5, 46128, Note_off_c, 4, 40, 0
5, 46272, Note_on_c, 4, 47, 65
5, 46352, Note_off_c, 4, 47, 0
5, 46368, Note_on_c, 4, 52, 65
5, 46448, Note_off_c, 4, 52, 0
5, 46464, Note_on_c, 4, 56, 65
5, 46528, Note_on_c, 4, 59, 65
5, 46544, Note_off_c, 4, 56, 0
5, 46608, Note_off_c, 4, 59, 0
5, 46656, Note_on_c, 4, 64, 76
5, 46704, Note_off_c, 4, 64, 0
5, 46848, Note_on_c, 4, 59, 65
5, 46928, Note_off_c, 4, 59, 0
5, 47040, Note_on_c, 4, 55, 65
5, 47120, Note_off_c, 4, 55, 0
5, 47216, Control_c, 4, 64, 0
5, 47232, Control_c, 4, 64, 127
5, 47232, Note_on_c, 4, 45, 76
5, 47280, Note_off_c, 4, 45, 0
5, 47424, Note_on_c, 4, 52, 65
5, 47504, Note_off_c, 4, 52, 0
5, 47520, Note_on_c, 4, 57, 65
5, 47600, Note_off_c, 4, 57, 0
5, 47616, Note_on_c, 4, 60, 65
5, 47696, Note_off_c, 4, 60, 0
5, 47808, Note_on_c, 4, 64, 76
5, 47888, Note_off_c, 4, 64, 0
5, 48000, Note_on_c, 4, 60, 65
5, 48080, Note_off_c, 4, 60, 0
5, 48192, Note_on_c, 4, 55, 65
5, 48272, Note_off_c, 4, 55, 0
5, 48368, Control_c, 4, 64, 0
5, 48384, Control_c, 4, 64, 127
5, 48384, Note_on_c, 4, 48, 76
5, 48464, Note_off_c, 4, 48, 0
5, 48576, Note_on_c, 4, 52, 65
5, 48656, Note_off_c, 4, 52, 0
5, 48672, Note_on_c, 4, 55, 65
5, 48752, Note_off_c, 4, 55, 0
5, 48768, Note_on_c, 4, 60, 65
5, 48848, Note_off_c, 4, 60, 0
5, 48960, Note_on_c, 4, 64, 76
5, 49040, Note_off_c, 4, 64, 0
5, 49152, Note_on_c, 4, 60, 65
5, 49232, Note_off_c, 4, 60, 0
5, 49344, Note_on_c, 4, 55, 65
5, 49424, Note_off_c, 4, 55, 0
5, 49520, Control_c, 4, 64, 0
5, 49536, Control_c, 4, 64, 127
5, 49536, Note_on_c, 4, 50, 76
5, 49616, Note_off_c, 4, 50, 0
5, 49728, Note_on_c, 4, 57, 65
5, 49808, Note_off_c, 4, 57, 0
5, 49824, Note_on_c, 4, 62, 65
5, 49904, Note_off_c, 4, 62, 0
5, 49920, Note_on_c, 4, 66, 65
5, 49968, Note_off_c, 4, 66, 0
5, 50112, Note_on_c, 4, 66, 76
5, 50192, Note_off_c, 4, 66, 0
5, 50304, Note_on_c, 4, 62, 65
5, 50384, Note_off_c, 4, 62, 0
5, 50496, Note_on_c, 4, 55, 65
5, 50576, Note_off_c, 4, 55, 0
5, 50672, Control_c, 4, 64, 0
5, 50688, Control_c, 4, 64, 127
5, 50688, Note_on_c, 4, 53, 76
5, 50768, Note_off_c, 4, 53, 0
5, 50880, Note_on_c, 4, 57, 65
5, 50960, Note_off_c, 4, 57, 0
5, 50976, Note_on_c, 4, 60, 65
5, 51056, Note_off_c, 4, 60, 0
5, 51072, Note_on_c, 4, 60, 65
5, 51152, Note_off_c, 4, 60, 0
5, 51264, Note_on_c, 4, 65, 76
5, 51344, Note_off_c, 4, 65, 0
5, 51456, Note_on_c, 4, 57, 65
5, 51536, Note_off_c, 4, 57, 0
5, 51648, Note_on_c, 4, 55, 65
5, 51728, Note_off_c, 4, 55, 0
5, 51824, Control_c, 4, 64, 0
5, 51840, Control_c, 4, 64, 127
5, 51840, Note_on_c, 4, 45, 76
5, 51888, Note_off_c, 4, 45, 0
5, 52032, Note_on_c, 4, 52, 65
5, 52112, Note_off_c, 4, 52, 0
5, 52128, Note_on_c, 4, 57, 65
5, 52208, Note_off_c, 4, 57, 0
5, 52224, Note_on_c, 4, 60, 65
5, 52304, Note_off_c, 4, 60, 0
5, 52416, Note_on_c, 4, 64, 76
5, 52496, Note_off_c, 4, 64, 0
5, 52608, Note_on_c, 4, 60, 65
5, 52656, Note_off_c, 4, 60, 0
5, 52800, Note_on_c, 4, 55, 65
5, 52880, Note_off_c, 4, 55, 0
5, 52976, Control_c, 4, 64, 0
5, 52992, Control_c, 4, 64, 127
5, 52992, Note_on_c, 4, 40, 76
5, 53040, Note_off_c, 4, 40, 0
5, 53184, Note_on_c, 4, 47, 65
5, 53264, Note_off_c, 4, 47, 0
5, 53280, Note_on_c, 4, 52, 65
5, 53360, Note_off_c, 4, 52, 0
5, 53376, Note_on_c, 4, 56, 65
5, 53440, Note_on_c, 4, 59, 65
5, 53456, Note_off_c, 4, 56, 0
5, 53520, Note_off_c, 4, 59, 0
5, 53568, Note_on_c, 4, 64, 76
5, 53616, Note_off_c, 4, 64, 0
5, 53760, Note_on_c, 4, 59, 65
5, 53840, Note_off_c, 4, 59, 0
5, 53952, Note_on_c, 4, 55, 65
5, 54032, Note_off_c, 4, 55, 0
5, 54128, Control_c, 4, 64, 0
5, 54144, Control_c, 4, 64, 127
5, 54144, Note_on_c, 4, 45, 76
5, 54192, Note_off_c, 4, 45, 0
5, 54336, Note_on_c, 4, 52, 65
5, 54416, Note_off_c, 4, 52, 0
5, 54432, Note_on_c, 4, 57, 65
5, 54512, Note_off_c, 4, 57, 0
5, 54528, Note_on_c, 4, 60, 65
5, 54608, Note_off_c, 4, 60, 0
5, 54720, Note_on_c, 4, 64, 76
5, 54800, Note_off_c, 4, 64, 0
5, 54912, Note_on_c, 4, 60, 65
5, 54992, Note_off_c, 4, 60, 0
5, 55104, Note_on_c, 4, 55, 65
5, 55184, Note_off_c, 4, 55, 0
5, 55280, Control_c, 4, 64, 0
5, 55296, Control_c, 4, 64, 127
5, 55296, Note_on_c, 4, 48, 76
5, 55376, Note_off_c, 4, 48, 0
5, 55488, Note_on_c, 4, 52, 65
5, 55568, Note_off_c, 4, 52, 0
5, 55584, Note_on_c, 4, 55, 65
5, 55664, Note_off_c, 4, 55, 0
5, 55680, Note_on_c, 4, 60, 65
5, 55760, Note_off_c, 4, 60, 0
5, 55872, Note_on_c, 4, 64, 76
5, 55952, Note_off_c, 4, 64, 0
5, 56064, Note_on_c, 4, 60, 65
5, 56144, Note_off_c, 4, 60, 0
5, 56256, Note_on_c, 4, 55, 65
5, 56336, Note_off_c, 4, 55, 0
5, 56432, Control_c, 4, 64, 0
5, 56448, Control_c, 4, 64, 127
5, 56448, Note_on_c, 4, 50, 76
5, 56528, Note_off_c, 4, 50, 0
5, 56640, Note_on_c, 4, 57, 65
5, 56720, Note_off_c, 4, 57, 0
5, 56736, Note_on_c, 4, 62, 65
5, 56816, Note_off_c, 4, 62, 0
5, 56832, Note_on_c, 4, 66, 65
5, 56880, Note_off_c, 4, 66, 0
5, 57024, Note_on_c, 4, 66, 76
5, 57104, Note_off_c, 4, 66, 0
5, 57216, Note_on_c, 4, 62, 65
5, 57296, Note_off_c, 4, 62, 0
5, 57408, Note_on_c, 4, 55, 65
5, 57488, Note_off_c, 4, 55, 0
5, 57584, Control_c, 4, 64, 0
5, 57600, Control_c, 4, 64, 127
5, 57600, Note_on_c, 4, 53, 76
5, 57680, Note_off_c, 4, 53, 0
5, 57792, Note_on_c, 4, 57, 65
5, 57872, Note_off_c, 4, 57, 0
5, 57888, Note_on_c, 4, 60, 65
5, 57968, Note_off_c, 4, 60, 0
5, 57984, Note_on_c, 4, 60, 65
5, 58064, Note_off_c, 4, 60, 0
5, 58176, Note_on_c, 4, 65, 76
5, 58256, Note_off_c, 4, 65, 0
5, 58368, Note_on_c, 4, 57, 65
5, 58448, Note_off_c, 4, 57, 0
5, 58560, Note_on_c, 4, 55, 65
5, 58640, Note_off_c, 4, 55, 0
5, 58736, Control_c, 4, 64, 0
5, 58752, Control_c, 4, 64, 127
5, 58752, Note_on_c, 4, 45, 76
5, 58800, Note_off_c, 4, 45, 0
5, 58944, Note_on_c, 4, 52, 65
5, 59024, Note_off_c, 4, 52, 0
5, 59040, Note_on_c, 4, 57, 65
5, 59120, Note_off_c, 4, 57, 0
5, 59136, Note_on_c, 4, 60, 65
5, 59216, Note_off_c, 4, 60, 0
5, 59328, Note_on_c, 4, 64, 76
5, 59408, Note_off_c, 4, 64, 0
5, 59520, Note_on_c, 4, 60, 65
5, 59568, Note_off_c, 4, 60, 0
5, 59712, Note_on_c, 4, 55, 65
5, 59792, Note_off_c, 4, 55, 0
5, 59888, Control_c, 4, 64, 0
5, 59904, Control_c, 4, 64, 127
5, 59904, Note_on_c, 4, 40, 76
5, 59952, Note_off_c, 4, 40, 0
5, 60096, Note_on_c, 4, 47, 65
5, 60176, Note_off_c, 4, 47, 0
5, 60192, Note_on_c, 4, 52, 65
5, 60272, Note_off_c, 4, 52, 0
5, 60288, Note_on_c, 4, 56, 65
5, 60352, Note_on_c, 4, 59, 65
5, 60368, Note_off_c, 4, 56, 0
5, 60432, Note_off_c, 4, 59, 0
5, 60480, Note_on_c, 4, 64, 76
5, 60528, Note_off_c, 4, 64, 0
5, 60672, Note_on_c, 4, 59, 65
5, 60752, Note_off_c, 4, 59, 0
5, 60864, Note_on_c, 4, 55, 65
5, 60944, Note_off_c, 4, 55, 0
5, 61040, Control_c, 4, 64, 0
5, 61056, Control_c, 4, 64, 127
5, 61056, Note_on_c, 4, 45, 76
5, 61104, Note_off_c, 4, 45, 0
5, 61248, Note_on_c, 4, 52, 65
5, 61328, Note_off_c, 4, 52, 0
5, 61344, Note_on_c, 4, 57, 65
5, 61424, Note_off_c, 4, 57, 0
5, 61440, Note_on_c, 4, 60, 65
5, 61520, Note_off_c, 4, 60, 0
5, 61632, Note_on_c, 4, 64, 76
5, 61712, Note_off_c, 4, 64, 0
5, 61824, Note_on_c, 4, 60, 65
5, 61872, Note_off_c, 4, 60, 0
5, 62016, Note_on_c, 4, 55, 65
5, 62096, Note_off_c, 4, 55, 0
5, 62192, Control_c, 4, 64, 0
5, 62208, Control_c, 4, 64, 127
5, 62208, Note_on_c, 4, 40, 76
5, 62256, Note_off_c, 4, 40, 0
5, 62400, Note_on_c, 4, 47, 65
5, 62480, Note_off_c, 4, 47, 0
5, 62496, Note_on_c, 4, 52, 65
5, 62576, Note_off_c, 4, 52, 0
5, 62592, Note_on_c, 4, 56, 65
5, 62656, Note_on_c, 4, 59, 65
5, 62672, Note_off_c, 4, 56, 0
5, 62736, Note_off_c, 4, 59, 0
5, 62784, Note_on_c, 4, 64, 76
5, 62832, Note_off_c, 4, 64, 0
5, 62976, Note_on_c, 4, 59, 65
5, 63056, Note_off_c, 4, 59, 0
5, 63168, Note_on_c, 4, 55, 65
5, 63248, Note_off_c, 4, 55, 0
5, 63344, Control_c, 4, 64, 0
5, 63360, Control_c, 4, 64, 127
5, 63360, Note_on_c, 4, 45, 76
5, 63408, Note_off_c, 4, 45, 0
5, 63552, Note_on_c, 4, 52, 65
5, 63632, Note_off_c, 4, 52, 0
5, 63648, Note_on_c, 4, 57, 65
5, 63728, Note_off_c, 4, 57, 0
5, 63744, Note_on_c, 4, 60, 65
5, 63824, Note_off_c, 4, 60, 0
5, 63936, Note_on_c, 4, 64, 76
5, 64016, Note_off_c, 4, 64, 0
5, 64128, Note_on_c, 4, 60, 65
5, 64208, Note_off_c, 4, 60, 0
5, 64320, Note_on_c, 4, 55, 65
5, 64400, Note_off_c, 4, 55, 0
5, 64496, Control_c, 4, 64, 0
5, 64512, Control_c, 4, 64, 127
5, 64512, Note_on_c, 4, 48, 76
5, 64592, Note_off_c, 4, 48, 0
5, 64704, Note_on_c, 4, 52, 65
5, 64784, Note_off_c, 4, 52, 0
5, 64800, Note_on_c, 4, 55, 65
5, 64880, Note_off_c, 4, 55, 0
5, 64896, Note_on_c, 4, 60, 65
5, 64976, Note_off_c, 4, 60, 0
5, 65088, Note_on_c, 4, 64, 76
5, 65168, Note_off_c, 4, 64, 0
5, 65280, Note_on_c, 4, 60, 65
5, 65360, Note_off_c, 4, 60, 0
5, 65472, Note_on_c, 4, 55, 65
5, 65552, Note_off_c, 4, 55, 0
5, 65648, Control_c, 4, 64, 0
5, 65664, Control_c, 4, 64, 127
5, 65664, Note_on_c, 4, 50, 76
5, 65744, Note_off_c, 4, 50, 0
5, 65856, Note_on_c, 4, 57, 65
5, 65936, Note_off_c, 4, 57, 0
5, 65952, Note_on_c, 4, 62, 65
5, 66032, Note_off_c, 4, 62, 0
5, 66048, Note_on_c, 4, 66, 65
5, 66096, Note_off_c, 4, 66, 0
5, 66240, Note_on_c, 4, 66, 76
5, 66320, Note_off_c, 4, 66, 0
5, 66432, Note_on_c, 4, 62, 65
5, 66512, Note_off_c, 4, 62, 0
5, 66624, Note_on_c, 4, 55, 65
5, 66704, Note_off_c, 4, 55, 0
5, 66800, Control_c, 4, 64, 0
5, 66816, Control_c, 4, 64, 127
5, 66816, Note_on_c, 4, 53, 76
5, 66896, Note_off_c, 4, 53, 0
5, 67008, Note_on_c, 4, 57, 65
5, 67088, Note_off_c, 4, 57, 0
5, 67104, Note_on_c, 4, 60, 65
5, 67184, Note_off_c, 4, 60, 0
5, 67200, Note_on_c, 4, 60, 65
5, 67280, Note_off_c, 4, 60, 0
5, 67392, Note_on_c, 4, 65, 76
5, 67472, Note_off_c, 4, 65, 0
5, 67584, Note_on_c, 4, 57, 65
5, 67664, Note_off_c, 4, 57, 0
5, 67776, Note_on_c, 4, 55, 65
5, 67856, Note_off_c, 4, 55, 0
5, 67952, Control_c, 4, 64, 0
5, 67968, Control_c, 4, 64, 127
5, 67968, Note_on_c, 4, 45, 76
5, 68016, Note_off_c, 4, 45, 0
5, 68160, Note_on_c, 4, 52, 65
5, 68240, Note_off_c, 4, 52, 0
5, 68256, Note_on_c, 4, 57, 65
5, 68336, Note_off_c, 4, 57, 0
5, 68352, Note_on_c, 4, 60, 65
5, 68432, Note_off_c, 4, 60, 0
5, 68544, Note_on_c, 4, 64, 76
5, 68624, Note_off_c, 4, 64, 0
5, 68736, Note_on_c, 4, 60, 65
5, 68816, Note_off_c, 4, 60, 0
5, 68928, Note_on_c, 4, 55, 65
5, 69008, Note_off_c, 4, 55, 0
5, 69104, Control_c, 4, 64, 0
5, 69120, Control_c, 4, 64, 127
5, 69120, Note_on_c, 4, 48, 76
5, 69200, Note_off_c, 4, 48, 0
5, 69312, Note_on_c, 4, 52, 65
5, 69392, Note_off_c, 4, 52, 0
5, 69408, Note_on_c, 4, 55, 65
5, 69488, Note_off_c, 4, 55, 0
5, 69504, Note_on_c, 4, 60, 65
5, 69584, Note_off_c, 4, 60, 0
5, 69696, Note_on_c, 4, 64, 76
5, 69776, Note_off_c, 4, 64, 0
5, 69888, Note_on_c, 4, 60, 65
5, 69968, Note_off_c, 4, 60, 0
5, 70080, Note_on_c, 4, 55, 65
5, 70160, Note_off_c, 4, 55, 0
5, 70256, Control_c, 4, 64, 0
5, 70272, Control_c, 4, 64, 127
5, 70272, Note_on_c, 4, 40, 76
5, 70320, Note_off_c, 4, 40, 0
5, 70464, Note_on_c, 4, 47, 65
5, 70544, Note_off_c, 4, 47, 0
5, 70560, Note_on_c, 4, 52, 65
5, 70640, Note_off_c, 4, 52, 0
5, 70656, Note_on_c, 4, 56, 65
5, 70720, Note_on_c, 4, 59, 65
5, 70736, Note_off_c, 4, 56, 0
5, 70800, Note_off_c, 4, 59, 0
5, 70848, Note_on_c, 4, 64, 76
5, 70896, Note_off_c, 4, 64, 0
5, 71040, Note_on_c, 4, 56, 65
5, 71120, Note_off_c, 4, 56, 0
5, 71232, Note_on_c, 4, 52, 65
5, 71312, Note_off_c, 4, 52, 0
5, 71408, Control_c, 4, 64, 0
5, 71424, Control_c, 4, 64, 127
5, 71424, Note_on_c, 4, 40, 76
5, 71472, Note_off_c, 4, 40, 0
5, 71616, Note_on_c, 4, 47, 65
5, 71696, Note_off_c, 4, 47, 0
5, 71712, Note_on_c, 4, 52, 65
5, 71792, Note_off_c, 4, 52, 0
5, 71808, Note_on_c, 4, 56, 65
5, 71872, Note_on_c, 4, 59, 65
5, 71888, Note_off_c, 4, 56, 0
5, 71952, Note_off_c, 4, 59, 0
5, 72000, Note_on_c, 4, 64, 76
5, 72048, Note_off_c, 4, 64, 0
5, 72192, Note_on_c, 4, 59, 65
5, 72272, Note_off_c, 4, 59, 0
5, 72384, Note_on_c, 4, 55, 65
5, 72464, Note_off_c, 4, 55, 0
5, 72560, Control_c, 4, 64, 0
5, 72576, Control_c, 4, 64, 127
5, 72576, Note_on_c, 4, 45, 76
5, 72624, Note_off_c, 4, 45, 0
5, 72768, Note_on_c, 4, 52, 65
5, 72848, Note_off_c, 4, 52, 0
5, 72864, Note_on_c, 4, 57, 65
5, 72944, Note_off_c, 4, 57, 0
5, 72960, Note_on_c, 4, 60, 65
5, 73040, Note_off_c, 4, 60, 0
5, 73152, Note_on_c, 4, 64, 76
5, 73232, Note_off_c, 4, 64, 0
5, 73344, Note_on_c, 4, 60, 65
5, 73424, Note_off_c, 4, 60, 0
5, 73536, Note_on_c, 4, 55, 65
5, 73616, Note_off_c, 4, 55, 0
5, 73712, Control_c, 4, 64, 0
5, 73728, Control_c, 4, 64, 127
5, 73728, Note_on_c, 4, 48, 76
5, 73808, Note_off_c, 4, 48, 0
5, 73920, Note_on_c, 4, 52, 65
5, 74000, Note_off_c, 4, 52, 0
5, 74016, Note_on_c, 4, 55, 65
5, 74096, Note_off_c, 4, 55, 0
5, 74112, Note_on_c, 4, 60, 65
5, 74192, Note_off_c, 4, 60, 0
5, 74304, Note_on_c, 4, 64, 76
5, 74384, Note_off_c, 4, 64, 0
5, 74496, Note_on_c, 4, 60, 65
5, 74576, Note_off_c, 4, 60, 0
5, 74688, Note_on_c, 4, 55, 65
5, 74768, Note_off_c, 4, 55, 0
5, 74864, Control_c, 4, 64, 0
5, 74880, Control_c, 4, 64, 127
5, 74880, Note_on_c, 4, 50, 76
5, 74960, Note_off_c, 4, 50, 0
5, 75072, Note_on_c, 4, 57, 65
5, 75152, Note_off_c, 4, 57, 0
5, 75168, Note_on_c, 4, 62, 65
5, 75248, Note_off_c, 4, 62, 0
5, 75264, Note_on_c, 4, 66, 65
5, 75312, Note_off_c, 4, 66, 0
5, 75456, Note_on_c, 4, 66, 76
5, 75536, Note_off_c, 4, 66, 0
5, 75648, Note_on_c, 4, 62, 65
5, 75728, Note_off_c, 4, 62, 0
5, 75840, Note_on_c, 4, 55, 65
5, 75920, Note_off_c, 4, 55, 0
5, 76016, Control_c, 4, 64, 0
5, 76032, Control_c, 4, 64, 127
5, 76032, Note_on_c, 4, 53, 76
5, 76112, Note_off_c, 4, 53, 0
5, 76224, Note_on_c, 4, 57, 65
5, 76304, Note_off_c, 4, 57, 0
5, 76320, Note_on_c, 4, 60, 65
5, 76400, Note_off_c, 4, 60, 0
5, 76416, Note_on_c, 4, 60, 65
5, 76496, Note_off_c, 4, 60, 0
5, 76608, Note_on_c, 4, 65, 76
5, 76688, Note_off_c, 4, 65, 0
5, 76800, Note_on_c, 4, 57, 65
5, 76880, Note_off_c, 4, 57, 0
5, 76992, Note_on_c, 4, 55, 65
5, 77072, Note_off_c, 4, 55, 0
5, 77168, Control_c, 4, 64, 0
5, 77184, Control_c, 4, 64, 127
5, 77184, Note_on_c, 4, 45, 76
5, 77232, Note_off_c, 4, 45, 0
5, 77376, Note_on_c, 4, 52, 65
5, 77456, Note_off_c, 4, 52, 0
5, 77472, Note_on_c, 4, 57, 65
5, 77552, Note_off_c, 4, 57, 0
5, 77568, Note_on_c, 4, 60, 65
5, 77648, Note_off_c, 4, 60, 0
5, 77760, Note_on_c, 4, 64, 76
5, 77840, Note_off_c, 4, 64, 0
5, 77952, Note_on_c, 4, 60, 65
5, 78000, Note_off_c, 4, 60, 0
5, 78144, Note_on_c, 4, 55, 65
5, 78224, Note_off_c, 4, 55, 0
5, 78320, Control_c, 4, 64, 0
5, 78336, Control_c, 4, 64, 127
5, 78336, Note_on_c, 4, 40, 76
5, 78384, Note_off_c, 4, 40, 0
5, 78528, Note_on_c, 4, 47, 65
5, 78608, Note_off_c, 4, 47, 0
5, 78624, Note_on_c, 4, 52, 65
5, 78704, Note_off_c, 4, 52, 0
5, 78720, Note_on_c, 4, 56, 65
5, 78784, Note_on_c, 4, 59, 65
5, 78800, Note_off_c, 4, 56, 0
5, 78864, Note_off_c, 4, 59, 0
5, 78912, Note_on_c, 4, 64, 76
5, 78960, Note_off_c, 4, 64, 0
5, 79104, Note_on_c, 4, 59, 65
5, 79184, Note_off_c, 4, 59, 0
5, 79296, Note_on_c, 4, 55, 65
5, 79376, Note_off_c, 4, 55, 0
5, 79472, Control_c, 4, 64, 0
5, 79488, Control_c, 4, 64, 127
5, 79488, Note_on_c, 4, 45, 76
5, 79536, Note_off_c, 4, 45, 0
5, 79680, Note_on_c, 4, 52, 65
5, 79760, Note_off_c, 4, 52, 0
5, 79776, Note_on_c, 4, 57, 65
5, 79856, Note_off_c, 4, 57, 0
5, 79872, Note_on_c, 4, 60, 65
5, 79952, Note_off_c, 4, 60, 0
5, 80064, Note_on_c, 4, 64, 76
5, 80144, Note_off_c, 4, 64, 0
5, 80256, Note_on_c, 4, 60, 65
5, 80336, Note_off_c, 4, 60, 0
5, 80448, Note_on_c, 4, 55, 65
5, 80528, Note_off_c, 4, 55, 0
5, 80624, Control_c, 4, 64, 0
5, 80640, Control_c, 4, 64, 127
5, 80640, Note_on_c, 4, 48, 76
5, 80720, Note_off_c, 4, 48, 0
5, 80832, Note_on_c, 4, 52, 65
5, 80912, Note_off_c, 4, 52, 0
5, 80928, Note_on_c, 4, 55, 65
5, 81008, Note_off_c, 4, 55, 0
5, 81024, Note_on_c, 4, 60, 65
5, 81104, Note_off_c, 4, 60, 0
5, 81216, Note_on_c, 4, 64, 76
5, 81296, Note_off_c, 4, 64, 0
5, 81408, Note_on_c, 4, 60, 65
5, 81488, Note_off_c, 4, 60, 0
5, 81600, Note_on_c, 4, 55, 65
5, 81680, Note_off_c, 4, 55, 0
5, 81776, Control_c, 4, 64, 0
5, 81792, Control_c, 4, 64, 127
5, 81792, Note_on_c, 4, 50, 76
5, 81872, Note_off_c, 4, 50, 0
5, 81984, Note_on_c, 4, 57, 65
5, 82064, Note_off_c, 4, 57, 0
5, 82080, Note_on_c, 4, 62, 65
5, 82160, Note_off_c, 4, 62, 0
5, 82176, Note_on_c, 4, 66, 65
5, 82224, Note_off_c, 4, 66, 0
5, 82368, Note_on_c, 4, 66, 76
5, 82448, Note_off_c, 4, 66, 0
5, 82560, Note_on_c, 4, 62, 65
5, 82640, Note_off_c, 4, 62, 0
5, 82752, Note_on_c, 4, 55, 65
5, 82832, Note_off_c, 4, 55, 0
5, 82928, Control_c, 4, 64, 0
5, 82944, Control_c, 4, 64, 127
5, 82944, Note_on_c, 4, 53, 76
5, 83024, Note_off_c, 4, 53, 0
5, 83136, Note_on_c, 4, 57, 65
5, 83216, Note_off_c, 4, 57, 0
5, 83232, Note_on_c, 4, 60, 65
5, 83312, Note_off_c, 4, 60, 0
5, 83328, Note_on_c, 4, 60, 65
5, 83408, Note_off_c, 4, 60, 0
5, 83520, Note_on_c, 4, 65, 76
5, 83600, Note_off_c, 4, 65, 0
5, 83712, Note_on_c, 4, 57, 65
5, 83792, Note_off_c, 4, 57, 0
5, 83904, Note_on_c, 4, 55, 65
5, 83984, Note_off_c, 4, 55, 0
5, 84080, Control_c, 4, 64, 0
5, 84096, Control_c, 4, 64, 127
5, 84096, Note_on_c, 4, 45, 76
5, 84144, Note_off_c, 4, 45, 0
5, 84288, Note_on_c, 4, 52, 65
5, 84368, Note_off_c, 4, 52, 0
5, 84384, Note_on_c, 4, 57, 65
5, 84464, Note_off_c, 4, 57, 0
5, 84480, Note_on_c, 4, 60, 65
5, 84560, Note_off_c, 4, 60, 0
5, 84672, Note_on_c, 4, 64, 76
5, 84752, Note_off_c, 4, 64, 0
5, 84864, Note_on_c, 4, 60, 65
5, 84912, Note_off_c, 4, 60, 0
5, 85056, Note_on_c, 4, 55, 65
5, 85136, Note_off_c, 4, 55, 0
5, 85232, Control_c, 4, 64, 0
5, 85248, Control_c, 4, 64, 127
5, 85248, Note_on_c, 4, 40, 76
5, 85296, Note_off_c, 4, 40, 0
5, 85440, Note_on_c, 4, 47, 65
5, 85520, Note_off_c, 4, 47, 0
5, 85536, Note_on_c, 4, 52, 65
5, 85616, Note_off_c, 4, 52, 0
5, 85632, Note_on_c, 4, 56, 65
5, 85696, Note_on_c, 4, 59, 65
5, 85712, Note_off_c, 4, 56, 0
5, 85776, Note_off_c, 4, 59, 0
5, 85824, Note_on_c, 4, 64, 76
5, 85872, Note_off_c, 4, 64, 0
5, 86016, Note_on_c, 4, 59, 65
5, 86096, Note_off_c, 4, 59, 0
5, 86208, Note_on_c, 4, 55, 65
5, 86288, Note_off_c, 4, 55, 0
5, 86384, Control_c, 4, 64, 0
5, 86400, Control_c, 4, 64, 127
5, 86400, Note_on_c, 4, 45, 76
5, 86448, Note_off_c, 4, 45, 0
5, 86592, Note_on_c, 4, 52, 65
5, 86672, Note_off_c, 4, 52, 0
5, 86688, Note_on_c, 4, 57, 65
5, 86768, Note_off_c, 4, 57, 0
5, 86784, Note_on_c, 4, 60, 65
5, 86864, Note_off_c, 4, 60, 0
5, 86976, Note_on_c, 4, 64, 76
5, 87056, Note_off_c, 4, 64, 0
5, 87168, Note_on_c, 4, 60, 65
5, 87216, Note_off_c, 4, 60, 0
5, 87360, Note_on_c, 4, 55, 65
5, 87440, Note_off_c, 4, 55, 0
5, 87536, Control_c, 4, 64, 0
5, 87552, Control_c, 4, 64, 127
5, 87552, Note_on_c, 4, 40, 76
5, 87600, Note_off_c, 4, 40, 0
5, 87744, Note_on_c, 4, 47, 65
5, 87824, Note_off_c, 4, 47, 0
5, 87840, Note_on_c, 4, 52, 65
5, 87920, Note_off_c, 4, 52, 0
5, 87936, Note_on_c, 4, 56, 65
5, 88000, Note_on_c, 4, 59, 65
5, 88016, Note_off_c, 4, 56, 0
5, 88080, Note_off_c, 4, 59, 0
5, 88128, Note_on_c, 4, 64, 76
5, 88176, Note_off_c, 4, 64, 0
5, 88320, Note_on_c, 4, 59, 65
5, 88400, Note_off_c, 4, 59, 0
5, 88512, Note_on_c, 4, 55, 65
5, 88592, Note_off_c, 4, 55, 0
5, 88688, Control_c, 4, 64, 0
5, 88704, Control_c, 4, 64, 127
5, 88704, Note_on_c, 4, 57, 65
5, 88704, Note_on_c, 4, 60, 65
5, 88704, Note_on_c, 4, 64, 65
5, 88768, Note_off_c, 4, 57, 0
5, 88768, Note_off_c, 4, 60, 0
5, 88768, Note_off_c, 4, 64, 0
5, 88896, Note_on_c, 4, 57, 65
5, 88896, Note_on_c, 4, 60, 65
5, 88896, Note_on_c, 4, 64, 65
5, 88960, Note_off_c, 4, 57, 0
5, 88960, Note_off_c, 4, 60, 0
5, 88960, Note_off_c, 4, 64, 0
5, 89088, Note_on_c, 4, 57, 65
5, 89088, Note_on_c, 4, 60, 65
5, 89088, Note_on_c, 4, 64, 65
5, 89152, Note_off_c, 4, 57, 0
5, 89152, Note_off_c, 4, 60, 0
5, 89152, Note_off_c, 4, 64, 0
5, 89280, Note_on_c, 4, 57, 65
5, 89280, Note_on_c, 4, 60, 65
5, 89280, Note_on_c, 4, 64, 65
5, 89344, Note_off_c, 4, 57, 0
5, 89344, Note_off_c, 4, 60, 0
5, 89344, Note_off_c, 4, 64, 0
5, 89472, Note_on_c, 4, 57, 65
5, 89472, Note_on_c, 4, 60, 65
5, 89472, Note_on_c, 4, 64, 65
5, 89536, Note_off_c, 4, 57, 0
5, 89536, Note_off_c, 4, 60, 0
5, 89536, Note_off_c, 4, 64, 0
5, 89664, Note_on_c, 4, 57, 65
5, 89664, Note_on_c, 4, 60, 65
5, 89664, Note_on_c, 4, 64, 65
5, 89728, Note_off_c, 4, 57, 0
5, 89728, Note_off_c, 4, 60, 0
5, 89728, Note_off_c, 4, 64, 0
5, 89840, Control_c, 4, 64, 0
5, 89856, Control_c, 4, 64, 127
5, 89856, Note_on_c, 4, 55, 65
5, 89856, Note_on_c, 4, 60, 65
5, 89856, Note_on_c, 4, 64, 65
5, 89920, Note_off_c, 4, 55, 0
5, 89920, Note_off_c, 4, 60, 0
5, 89920, Note_off_c, 4, 64, 0
5, 90048, Note_on_c, 4, 55, 65
5, 90048, Note_on_c, 4, 60, 65
5, 90048, Note_on_c, 4, 64, 65
5, 90112, Note_off_c, 4, 55, 0
5, 90112, Note_off_c, 4, 60, 0
5, 90112, Note_off_c, 4, 64, 0
5, 90240, Note_on_c, 4, 55, 65
5, 90240, Note_on_c, 4, 60, 65
5, 90240, Note_on_c, 4, 64, 65
5, 90304, Note_off_c, 4, 55, 0
5, 90304, Note_off_c, 4, 60, 0
5, 90304, Note_off_c, 4, 64, 0
5, 90432, Note_on_c, 4, 55, 65
5, 90432, Note_on_c, 4, 60, 65
5, 90432, Note_on_c, 4, 64, 65
5, 90496, Note_off_c, 4, 55, 0
5, 90496, Note_off_c, 4, 60, 0
5, 90496, Note_off_c, 4, 64, 0
5, 90624, Note_on_c, 4, 55, 65
5, 90624, Note_on_c, 4, 60, 65
5, 90624, Note_on_c, 4, 64, 65
5, 90688, Note_off_c, 4, 55, 0
5, 90688, Note_off_c, 4, 60, 0
5, 90688, Note_off_c, 4, 64, 0
5, 90816, Note_on_c, 4, 55, 65
5, 90816, Note_on_c, 4, 60, 65
5, 90816, Note_on_c, 4, 64, 65
5, 90880, Note_off_c, 4, 55, 0
5, 90880, Note_off_c, 4, 60, 0
5, 90880, Note_off_c, 4, 64, 0
5, 90992, Control_c, 4, 64, 0
5, 91008, Control_c, 4, 64, 127
5, 91008, Note_on_c, 4, 57, 65
5, 91008, Note_on_c, 4, 62, 65
5, 91008, Note_on_c, 4, 66, 65
5, 91072, Note_off_c, 4, 57, 0
5, 91072, Note_off_c, 4, 62, 0
5, 91072, Note_off_c, 4, 66, 0
5, 91200, Note_on_c, 4, 57, 65
5, 91200, Note_on_c, 4, 62, 65
5, 91200, Note_on_c, 4, 66, 65
5, 91264, Note_off_c, 4, 57, 0
5, 91264, Note_off_c, 4, 62, 0
5, 91264, Note_off_c, 4, 66, 0
5, 91392, Note_on_c, 4, 57, 65
5, 91392, Note_on_c, 4, 62, 65
5, 91392, Note_on_c, 4, 66, 65
5, 91456, Note_off_c, 4, 57, 0
5, 91456, Note_off_c, 4, 62, 0
5, 91456, Note_off_c, 4, 66, 0
5, 91584, Note_on_c, 4, 57, 65
5, 91584, Note_on_c, 4, 62, 65
5, 91584, Note_on_c, 4, 66, 65
5, 91648, Note_off_c, 4, 57, 0
5, 91648, Note_off_c, 4, 62, 0
5, 91648, Note_off_c, 4, 66, 0
5, 91776, Note_on_c, 4, 57, 65
5, 91776, Note_on_c, 4, 62, 65
5, 91776, Note_on_c, 4, 66, 65
5, 91840, Note_off_c, 4, 57, 0
5, 91840, Note_off_c, 4, 62, 0
5, 91840, Note_off_c, 4, 66, 0
5, 91968, Note_on_c, 4, 57, 65
5, 91968, Note_on_c, 4, 62, 65
5, 91968, Note_on_c, 4, 66, 65
5, 92032, Note_off_c, 4, 57, 0
5, 92032, Note_off_c, 4, 62, 0
5, 92032, Note_off_c, 4, 66, 0
5, 92144, Control_c, 4, 64, 0
5, 92160, Control_c, 4, 64, 127
5, 92160, Note_on_c, 4, 57, 65
5, 92160, Note_on_c, 4, 60, 65
5, 92160, Note_on_c, 4, 65, 65
5, 92224, Note_off_c, 4, 57, 0
5, 92224, Note_off_c, 4, 60, 0
5, 92224, Note_off_c, 4, 65, 0
5, 92352, Note_on_c, 4, 57, 65
5, 92352, Note_on_c, 4, 60, 65
5, 92352, Note_on_c, 4, 65, 65
5, 92416, Note_off_c, 4, 57, 0
5, 92416, Note_off_c, 4, 60, 0
5, 92416, Note_off_c, 4, 65, 0
5, 92544, Note_on_c, 4, 57, 65
5, 92544, Note_on_c, 4, 60, 65
5, 92544, Note_on_c, 4, 65, 65
5, 92608, Note_off_c, 4, 57, 0
5, 92608, Note_off_c, 4, 60, 0
5, 92608, Note_off_c, 4, 65, 0
5, 92736, Note_on_c, 4, 57, 65
5, 92736, Note_on_c, 4, 60, 65
5, 92736, Note_on_c, 4, 65, 65
5, 92800, Note_off_c, 4, 57, 0
5, 92800, Note_off_c, 4, 60, 0
5, 92800, Note_off_c, 4, 65, 0
5, 92928, Note_on_c, 4, 57, 65
5, 92928, Note_on_c, 4, 60, 65
5, 92928, Note_on_c, 4, 65, 65
5, 92992, Note_off_c, 4, 57, 0
5, 92992, Note_off_c, 4, 60, 0
5, 92992, Note_off_c, 4, 65, 0
5, 93120, Note_on_c, 4, 57, 65
5, 93120, Note_on_c, 4, 60, 65
5, 93120, Note_on_c, 4, 65, 65
5, 93184, Note_off_c, 4, 57, 0
5, 93184, Note_off_c, 4, 60, 0
5, 93184, Note_off_c, 4, 65, 0
5, 93296, Control_c, 4, 64, 0
5, 93312, Control_c, 4, 64, 127
5, 93312, Note_on_c, 4, 57, 65
5, 93312, Note_on_c, 4, 60, 65
5, 93312, Note_on_c, 4, 64, 65
5, 93376, Note_off_c, 4, 57, 0
5, 93376, Note_off_c, 4, 60, 0
5, 93376, Note_off_c, 4, 64, 0
5, 93504, Note_on_c, 4, 57, 65
5, 93504, Note_on_c, 4, 60, 65
5, 93504, Note_on_c, 4, 64, 65
5, 93568, Note_off_c, 4, 57, 0
5, 93568, Note_off_c, 4, 60, 0
5, 93568, Note_off_c, 4, 64, 0
5, 93696, Note_on_c, 4, 57, 65
5, 93696, Note_on_c, 4, 60, 65
5, 93696, Note_on_c, 4, 64, 65
5, 93760, Note_off_c, 4, 57, 0
5, 93760, Note_off_c, 4, 60, 0
5, 93760, Note_off_c, 4, 64, 0
5, 93888, Note_on_c, 4, 57, 65
5, 93888, Note_on_c, 4, 60, 65
5, 93888, Note_on_c, 4, 64, 65
5, 93952, Note_off_c, 4, 57, 0
5, 93952, Note_off_c, 4, 60, 0
5, 93952, Note_off_c, 4, 64, 0
5, 94080, Note_on_c, 4, 57, 65
5, 94080, Note_on_c, 4, 60, 65
5, 94080, Note_on_c, 4, 64, 65
5, 94144, Note_off_c, 4, 57, 0
5, 94144, Note_off_c, 4, 60, 0
5, 94144, Note_off_c, 4, 64, 0
5, 94272, Note_on_c, 4, 57, 65
5, 94272, Note_on_c, 4, 60, 65
5, 94272, Note_on_c, 4, 64, 65
5, 94336, Note_off_c, 4, 57, 0
5, 94336, Note_off_c, 4, 60, 0
5, 94336, Note_off_c, 4, 64, 0
5, 94448, Control_c, 4, 64, 0
5, 94464, Control_c, 4, 64, 127
5, 94464, Note_on_c, 4, 55, 65
5, 94464, Note_on_c, 4, 60, 65
5, 94464, Note_on_c, 4, 64, 65
5, 94528, Note_off_c, 4, 55, 0
5, 94528, Note_off_c, 4, 60, 0
5, 94528, Note_off_c, 4, 64, 0
5, 94656, Note_on_c, 4, 55, 65
5, 94656, Note_on_c, 4, 60, 65
5, 94656, Note_on_c, 4, 64, 65
5, 94720, Note_off_c, 4, 55, 0
5, 94720, Note_off_c, 4, 60, 0
5, 94720, Note_off_c, 4, 64, 0
5, 94848, Note_on_c, 4, 55, 65
5, 94848, Note_on_c, 4, 60, 65
5, 94848, Note_on_c, 4, 64, 65
5, 94912, Note_off_c, 4, 55, 0
5, 94912, Note_off_c, 4, 60, 0
5, 94912, Note_off_c, 4, 64, 0
5, 95040, Note_on_c, 4, 55, 65
5, 95040, Note_on_c, 4, 60, 65
5, 95040, Note_on_c, 4, 64, 65
5, 95104, Note_off_c, 4, 55, 0
5, 95104, Note_off_c, 4, 60, 0
5, 95104, Note_off_c, 4, 64, 0
5, 95232, Note_on_c, 4, 55, 65
5, 95232, Note_on_c, 4, 60, 65
5, 95232, Note_on_c, 4, 64, 65
5, 95296, Note_off_c, 4, 55, 0
5, 95296, Note_off_c, 4, 60, 0
5, 95296, Note_off_c, 4, 64, 0
5, 95424, Note_on_c, 4, 55, 65
5, 95424, Note_on_c, 4, 60, 65
5, 95424, Note_on_c, 4, 64, 65
5, 95488, Note_off_c, 4, 55, 0
5, 95488, Note_off_c, 4, 60, 0
5, 95488, Note_off_c, 4, 64, 0
5, 95600, Control_c, 4, 64, 0
5, 95616, Control_c, 4, 64, 127
5, 95616, Note_on_c, 4, 56, 65
5, 95616, Note_on_c, 4, 59, 65
5, 95616, Note_on_c, 4, 64, 65
5, 95680, Note_off_c, 4, 56, 0
5, 95680, Note_off_c, 4, 59, 0
5, 95680, Note_off_c, 4, 64, 0
5, 95808, Note_on_c, 4, 56, 65
5, 95808, Note_on_c, 4, 59, 65
5, 95808, Note_on_c, 4, 64, 65
5, 95872, Note_off_c, 4, 56, 0
5, 95872, Note_off_c, 4, 59, 0
5, 95872, Note_off_c, 4, 64, 0
5, 96000, Note_on_c, 4, 56, 65
5, 96000, Note_on_c, 4, 59, 65
5, 96000, Note_on_c, 4, 64, 65
5, 96064, Note_off_c, 4, 56, 0
5, 96064, Note_off_c, 4, 59, 0
5, 96064, Note_off_c, 4, 64, 0
5, 96192, Note_on_c, 4, 56, 65
5, 96192, Note_on_c, 4, 59, 65
5, 96192, Note_on_c, 4, 64, 65
5, 96256, Note_off_c, 4, 56, 0
5, 96256, Note_off_c, 4, 59, 0
5, 96256, Note_off_c, 4, 64, 0
5, 96384, Note_on_c, 4, 56, 65
5, 96384, Note_on_c, 4, 59, 65
5, 96384, Note_on_c, 4, 64, 65
5, 96448, Note_off_c, 4, 56, 0
5, 96448, Note_off_c, 4, 59, 0
5, 96448, Note_off_c, 4, 64, 0
5, 96576, Note_on_c, 4, 56, 65
5, 96576, Note_on_c, 4, 59, 65
5, 96576, Note_on_c, 4, 64, 65
5, 96640, Note_off_c, 4, 56, 0
5, 96640, Note_off_c, 4, 59, 0
5, 96640, Note_off_c, 4, 64, 0
5, 96752, Control_c, 4, 64, 0
5, 96768, Control_c, 4, 64, 127
5, 96768, Note_on_c, 4, 56, 65
5, 96768, Note_on_c, 4, 59, 65
5, 96768, Note_on_c, 4, 64, 65
5, 96832, Note_off_c, 4, 56, 0
5, 96832, Note_off_c, 4, 59, 0
5, 96832, Note_off_c, 4, 64, 0
5, 96960, Note_on_c, 4, 56, 65
5, 96960, Note_on_c, 4, 59, 65
5, 96960, Note_on_c, 4, 64, 65
5, 97024, Note_off_c, 4, 56, 0
5, 97024, Note_off_c, 4, 59, 0
5, 97024, Note_off_c, 4, 64, 0
5, 97152, Note_on_c, 4, 56, 65
5, 97152, Note_on_c, 4, 59, 65
5, 97152, Note_on_c, 4, 64, 65
5, 97216, Note_off_c, 4, 56, 0
5, 97216, Note_off_c, 4, 59, 0
5, 97216, Note_off_c, 4, 64, 0
5, 97344, Note_on_c, 4, 56, 65
5, 97344, Note_on_c, 4, 59, 65
5, 97344, Note_on_c, 4, 64, 65
5, 97408, Note_off_c, 4, 56, 0
5, 97408, Note_off_c, 4, 59, 0
5, 97408, Note_off_c, 4, 64, 0
5, 97536, Note_on_c, 4, 56, 65
5, 97536, Note_on_c, 4, 59, 65
5, 97536, Note_on_c, 4, 64, 65
5, 97600, Note_off_c, 4, 56, 0
5, 97600, Note_off_c, 4, 59, 0
5, 97600, Note_off_c, 4, 64, 0
5, 97728, Note_on_c, 4, 56, 65
5, 97728, Note_on_c, 4, 59, 65
5, 97728, Note_on_c, 4, 64, 65
5, 97792, Note_off_c, 4, 56, 0
5, 97792, Note_off_c, 4, 59, 0
5, 97792, Note_off_c, 4, 64, 0
5, 97904, Control_c, 4, 64, 0
5, 97920, Control_c, 4, 64, 127
5, 97920, Note_on_c, 4, 57, 65
5, 97920, Note_on_c, 4, 60, 65
5, 97920, Note_on_c, 4, 64, 65
5, 97984, Note_off_c, 4, 57, 0
5, 97984, Note_off_c, 4, 60, 0
5, 97984, Note_off_c, 4, 64, 0
5, 98112, Note_on_c, 4, 57, 65
5, 98112, Note_on_c, 4, 60, 65
5, 98112, Note_on_c, 4, 64, 65
5, 98176, Note_off_c, 4, 57, 0
5, 98176, Note_off_c, 4, 60, 0
5, 98176, Note_off_c, 4, 64, 0
5, 98304, Note_on_c, 4, 57, 65
5, 98304, Note_on_c, 4, 60, 65
5, 98304, Note_on_c, 4, 64, 65
5, 98368, Note_off_c, 4, 57, 0
5, 98368, Note_off_c, 4, 60, 0
5, 98368, Note_off_c, 4, 64, 0
5, 98496, Note_on_c, 4, 57, 65
5, 98496, Note_on_c, 4, 60, 65
5, 98496, Note_on_c, 4, 64, 65
5, 98560, Note_off_c, 4, 57, 0
5, 98560, Note_off_c, 4, 60, 0
5, 98560, Note_off_c, 4, 64, 0
5, 98688, Note_on_c, 4, 57, 65
5, 98688, Note_on_c, 4, 60, 65
5, 98688, Note_on_c, 4, 64, 65
5, 98752, Note_off_c, 4, 57, 0
5, 98752, Note_off_c, 4, 60, 0
5, 98752, Note_off_c, 4, 64, 0
5, 98880, Note_on_c, 4, 57, 65
5, 98880, Note_on_c, 4, 60, 65
5, 98880, Note_on_c, 4, 64, 65
5, 98944, Note_off_c, 4, 57, 0
5, 98944, Note_off_c, 4, 60, 0
5, 98944, Note_off_c, 4, 64, 0
5, 99056, Control_c, 4, 64, 0
5, 99072, Control_c, 4, 64, 127
5, 99072, Note_on_c, 4, 55, 65
5, 99072, Note_on_c, 4, 60, 65
5, 99072, Note_on_c, 4, 64, 65
5, 99136, Note_off_c, 4, 55, 0
5, 99136, Note_off_c, 4, 60, 0
5, 99136, Note_off_c, 4, 64, 0
5, 99264, Note_on_c, 4, 55, 65
5, 99264, Note_on_c, 4, 60, 65
5, 99264, Note_on_c, 4, 64, 65
5, 99328, Note_off_c, 4, 55, 0
5, 99328, Note_off_c, 4, 60, 0
5, 99328, Note_off_c, 4, 64, 0
5, 99456, Note_on_c, 4, 55, 65
5, 99456, Note_on_c, 4, 60, 65
5, 99456, Note_on_c, 4, 64, 65
5, 99520, Note_off_c, 4, 55, 0
5, 99520, Note_off_c, 4, 60, 0
5, 99520, Note_off_c, 4, 64, 0
5, 99648, Note_on_c, 4, 55, 65
5, 99648, Note_on_c, 4, 60, 65
5, 99648, Note_on_c, 4, 64, 65
5, 99712, Note_off_c, 4, 55, 0
5, 99712, Note_off_c, 4, 60, 0
5, 99712, Note_off_c, 4, 64, 0
5, 99840, Note_on_c, 4, 55, 65
5, 99840, Note_on_c, 4, 60, 65
5, 99840, Note_on_c, 4, 64, 65
5, 99904, Note_off_c, 4, 55, 0
5, 99904, Note_off_c, 4, 60, 0
5, 99904, Note_off_c, 4, 64, 0
5, 100032, Note_on_c, 4, 55, 65
5, 100032, Note_on_c, 4, 60, 65
5, 100032, Note_on_c, 4, 64, 65
5, 100096, Note_off_c, 4, 55, 0
5, 100096, Note_off_c, 4, 60, 0
5, 100096, Note_off_c, 4, 64, 0
5, 100208, Control_c, 4, 64, 0
5, 100224, Control_c, 4, 64, 127
5, 100224, Note_on_c, 4, 57, 65
5, 100224, Note_on_c, 4, 62, 65
5, 100224, Note_on_c, 4, 66, 65
5, 100288, Note_off_c, 4, 57, 0
5, 100288, Note_off_c, 4, 62, 0
5, 100288, Note_off_c, 4, 66, 0
5, 100416, Note_on_c, 4, 57, 65
5, 100416, Note_on_c, 4, 62, 65
5, 100416, Note_on_c, 4, 66, 65
5, 100480, Note_off_c, 4, 57, 0
5, 100480, Note_off_c, 4, 62, 0
5, 100480, Note_off_c, 4, 66, 0
5, 100608, Note_on_c, 4, 57, 65
5, 100608, Note_on_c, 4, 62, 65
5, 100608, Note_on_c, 4, 66, 65
5, 100672, Note_off_c, 4, 57, 0
5, 100672, Note_off_c, 4, 62, 0
5, 100672, Note_off_c, 4, 66, 0
5, 100800, Note_on_c, 4, 57, 65
5, 100800, Note_on_c, 4, 62, 65
5, 100800, Note_on_c, 4, 66, 65
5, 100864, Note_off_c, 4, 57, 0
5, 100864, Note_off_c, 4, 62, 0
5, 100864, Note_off_c, 4, 66, 0
5, 100992, Note_on_c, 4, 57, 65
5, 100992, Note_on_c, 4, 62, 65
5, 100992, Note_on_c, 4, 66, 65
5, 101056, Note_off_c, 4, 57, 0
5, 101056, Note_off_c, 4, 62, 0
5, 101056, Note_off_c, 4, 66, 0
5, 101184, Note_on_c, 4, 57, 65
5, 101184, Note_on_c, 4, 62, 65
5, 101184, Note_on_c, 4, 66, 65
5, 101248, Note_off_c, 4, 57, 0
5, 101248, Note_off_c, 4, 62, 0
5, 101248, Note_off_c, 4, 66, 0
5, 101360, Control_c, 4, 64, 0
5, 101376, Control_c, 4, 64, 127
5, 101376, Note_on_c, 4, 57, 65
5, 101376, Note_on_c, 4, 60, 65
5, 101376, Note_on_c, 4, 65, 65
5, 101440, Note_off_c, 4, 57, 0
5, 101440, Note_off_c, 4, 60, 0
5, 101440, Note_off_c, 4, 65, 0
5, 101568, Note_on_c, 4, 57, 65
5, 101568, Note_on_c, 4, 60, 65
5, 101568, Note_on_c, 4, 65, 65
5, 101632, Note_off_c, 4, 57, 0
5, 101632, Note_off_c, 4, 60, 0
5, 101632, Note_off_c, 4, 65, 0
5, 101760, Note_on_c, 4, 57, 65
5, 101760, Note_on_c, 4, 60, 65
5, 101760, Note_on_c, 4, 65, 65
5, 101824, Note_off_c, 4, 57, 0
5, 101824, Note_off_c, 4, 60, 0
5, 101824, Note_off_c, 4, 65, 0
5, 101952, Note_on_c, 4, 57, 65
5, 101952, Note_on_c, 4, 60, 65
5, 101952, Note_on_c, 4, 65, 65
5, 102016, Note_off_c, 4, 57, 0
5, 102016, Note_off_c, 4, 60, 0
5, 102016, Note_off_c, 4, 65, 0
5, 102144, Note_on_c, 4, 57, 65
5, 102144, Note_on_c, 4, 60, 65
5, 102144, Note_on_c, 4, 65, 65
5, 102208, Note_off_c, 4, 57, 0
5, 102208, Note_off_c, 4, 60, 0
5, 102208, Note_off_c, 4, 65, 0
5, 102336, Note_on_c, 4, 57, 65
5, 102336, Note_on_c, 4, 60, 65
5, 102336, Note_on_c, 4, 65, 65
5, 102400, Note_off_c, 4, 57, 0
5, 102400, Note_off_c, 4, 60, 0
5, 102400, Note_off_c, 4, 65, 0
5, 102512, Control_c, 4, 64, 0
5, 102528, Control_c, 4, 64, 127
5, 102528, Note_on_c, 4, 57, 65
5, 102528, Note_on_c, 4, 60, 65
5, 102528, Note_on_c, 4, 64, 65
5, 102592, Note_off_c, 4, 57, 0
5, 102592, Note_off_c, 4, 60, 0
5, 102592, Note_off_c, 4, 64, 0
5, 102720, Note_on_c, 4, 57, 65
5, 102720, Note_on_c, 4, 60, 65
5, 102720, Note_on_c, 4, 64, 65
5, 102784, Note_off_c, 4, 57, 0
5, 102784, Note_off_c, 4, 60, 0
5, 102784, Note_off_c, 4, 64, 0
5, 102912, Note_on_c, 4, 57, 65
5, 102912, Note_on_c, 4, 60, 65
5, 102912, Note_on_c, 4, 64, 65
5, 102976, Note_off_c, 4, 57, 0
5, 102976, Note_off_c, 4, 60, 0
5, 102976, Note_off_c, 4, 64, 0
5, 103104, Note_on_c, 4, 57, 65
5, 103104, Note_on_c, 4, 60, 65
5, 103104, Note_on_c, 4, 64, 65
5, 103168, Note_off_c, 4, 57, 0
5, 103168, Note_off_c, 4, 60, 0
5, 103168, Note_off_c, 4, 64, 0
5, 103296, Note_on_c, 4, 57, 65
5, 103296, Note_on_c, 4, 60, 65
5, 103296, Note_on_c, 4, 64, 65
5, 103360, Note_off_c, 4, 57, 0
5, 103360, Note_off_c, 4, 60, 0
5, 103360, Note_off_c, 4, 64, 0
5, 103488, Note_on_c, 4, 57, 65
5, 103488, Note_on_c, 4, 60, 65
5, 103488, Note_on_c, 4, 64, 65
5, 103552, Note_off_c, 4, 57, 0
5, 103552, Note_off_c, 4, 60, 0
5, 103552, Note_off_c, 4, 64, 0
5, 103664, Control_c, 4, 64, 0
5, 103680, Control_c, 4, 64, 127
5, 103680, Note_on_c, 4, 56, 65
5, 103680, Note_on_c, 4, 59, 65
5, 103680, Note_on_c, 4, 64, 65
5, 103744, Note_off_c, 4, 56, 0
5, 103744, Note_off_c, 4, 59, 0
5, 103744, Note_off_c, 4, 64, 0
5, 103872, Note_on_c, 4, 56, 65
5, 103872, Note_on_c, 4, 59, 65
5, 103872, Note_on_c, 4, 64, 65
5, 103936, Note_off_c, 4, 56, 0
5, 103936, Note_off_c, 4, 59, 0
5, 103936, Note_off_c, 4, 64, 0
5, 104064, Note_on_c, 4, 56, 65
5, 104064, Note_on_c, 4, 59, 65
5, 104064, Note_on_c, 4, 64, 65
5, 104128, Note_off_c, 4, 56, 0
5, 104128, Note_off_c, 4, 59, 0
5, 104128, Note_off_c, 4, 64, 0
5, 104256, Note_on_c, 4, 56, 65
5, 104256, Note_on_c, 4, 59, 65
5, 104256, Note_on_c, 4, 64, 65
5, 104320, Note_off_c, 4, 56, 0
5, 104320, Note_off_c, 4, 59, 0
5, 104320, Note_off_c, 4, 64, 0
5, 104448, Note_on_c, 4, 56, 65
5, 104448, Note_on_c, 4, 59, 65
5, 104448, Note_on_c, 4, 64, 65
5, 104512, Note_off_c, 4, 56, 0
5, 104512, Note_off_c, 4, 59, 0
5, 104512, Note_off_c, 4, 64, 0
5, 104640, Note_on_c, 4, 56, 65
5, 104640, Note_on_c, 4, 59, 65
5, 104640, Note_on_c, 4, 64, 65
5, 104704, Note_off_c, 4, 56, 0
5, 104704, Note_off_c, 4, 59, 0
5, 104704, Note_off_c, 4, 64, 0
5, 104816, Control_c, 4, 64, 0
5, 104832, Control_c, 4, 64, 127
5, 104832, Note_on_c, 4, 57, 65
5, 104832, Note_on_c, 4, 60, 65
5, 104832, Note_on_c, 4, 64, 65
5, 104896, Note_off_c, 4, 57, 0
5, 104896, Note_off_c, 4, 60, 0
5, 104896, Note_off_c, 4, 64, 0
5, 105024, Note_on_c, 4, 57, 65
5, 105024, Note_on_c, 4, 60, 65
5, 105024, Note_on_c, 4, 64, 65
5, 105088, Note_off_c, 4, 57, 0
5, 105088, Note_off_c, 4, 60, 0
5, 105088, Note_off_c, 4, 64, 0
5, 105216, Note_on_c, 4, 57, 65
5, 105216, Note_on_c, 4, 60, 65
5, 105216, Note_on_c, 4, 64, 65
5, 105280, Note_off_c, 4, 57, 0
5, 105280, Note_off_c, 4, 60, 0
5, 105280, Note_off_c, 4, 64, 0
5, 105408, Note_on_c, 4, 57, 65
5, 105408, Note_on_c, 4, 60, 65
5, 105408, Note_on_c, 4, 64, 65
5, 105472, Note_off_c, 4, 57, 0
5, 105472, Note_off_c, 4, 60, 0
5, 105472, Note_off_c, 4, 64, 0
5, 105600, Note_on_c, 4, 57, 65
5, 105600, Note_on_c, 4, 60, 65
5, 105600, Note_on_c, 4, 64, 65
5, 105664, Note_off_c, 4, 57, 0
5, 105664, Note_off_c, 4, 60, 0
5, 105664, Note_off_c, 4, 64, 0
5, 105792, Note_on_c, 4, 57, 65
5, 105792, Note_on_c, 4, 60, 65
5, 105792, Note_on_c, 4, 64, 65
5, 105856, Note_off_c, 4, 57, 0
5, 105856, Note_off_c, 4, 60, 0
5, 105856, Note_off_c, 4, 64, 0
5, 105968, Control_c, 4, 64, 0
5, 105984, Control_c, 4, 64, 127
5, 105984, Note_on_c, 4, 55, 65
5, 105984, Note_on_c, 4, 60, 65
5, 105984, Note_on_c, 4, 64, 65
5, 106048, Note_off_c, 4, 55, 0
5, 106048, Note_off_c, 4, 60, 0
5, 106048, Note_off_c, 4, 64, 0
5, 106176, Note_on_c, 4, 55, 65
5, 106176, Note_on_c, 4, 60, 65
5, 106176, Note_on_c, 4, 64, 65
5, 106240, Note_off_c, 4, 55, 0
5, 106240, Note_off_c, 4, 60, 0
5, 106240, Note_off_c, 4, 64, 0
5, 106368, Note_on_c, 4, 55, 65
5, 106368, Note_on_c, 4, 60, 65
5, 106368, Note_on_c, 4, 64, 65
5, 106432, Note_off_c, 4, 55, 0
5, 106432, Note_off_c, 4, 60, 0
5, 106432, Note_off_c, 4, 64, 0
5, 106560, Note_on_c, 4, 55, 65
5, 106560, Note_on_c, 4, 60, 65
5, 106560, Note_on_c, 4, 64, 65
5, 106624, Note_off_c, 4, 55, 0
5, 106624, Note_off_c, 4, 60, 0
5, 106624, Note_off_c, 4, 64, 0
5, 106752, Note_on_c, 4, 55, 65
5, 106752, Note_on_c, 4, 60, 65
5, 106752, Note_on_c, 4, 64, 65
5, 106816, Note_off_c, 4, 55, 0
5, 106816, Note_off_c, 4, 60, 0
5, 106816, Note_off_c, 4, 64, 0
5, 106944, Note_on_c, 4, 55, 65
5, 106944, Note_on_c, 4, 60, 65
5, 106944, Note_on_c, 4, 64, 65
5, 107008, Note_off_c, 4, 55, 0
5, 107008, Note_off_c, 4, 60, 0
5, 107008, Note_off_c, 4, 64, 0
5, 107120, Control_c, 4, 64, 0
5, 107136, Control_c, 4, 64, 127
5, 107136, Note_on_c, 4, 57, 65
5, 107136, Note_on_c, 4, 62, 65
5, 107136, Note_on_c, 4, 66, 65
5, 107200, Note_off_c, 4, 57, 0
5, 107200, Note_off_c, 4, 62, 0
5, 107200, Note_off_c, 4, 66, 0
5, 107328, Note_on_c, 4, 57, 65
5, 107328, Note_on_c, 4, 62, 65
5, 107328, Note_on_c, 4, 66, 65
5, 107392, Note_off_c, 4, 57, 0
5, 107392, Note_off_c, 4, 62, 0
5, 107392, Note_off_c, 4, 66, 0
5, 107520, Note_on_c, 4, 57, 65
5, 107520, Note_on_c, 4, 62, 65
5, 107520, Note_on_c, 4, 66, 65
5, 107584, Note_off_c, 4, 57, 0
5, 107584, Note_off_c, 4, 62, 0
5, 107584, Note_off_c, 4, 66, 0
5, 107712, Note_on_c, 4, 57, 65
5, 107712, Note_on_c, 4, 62, 65
5, 107712, Note_on_c, 4, 66, 65
5, 107776, Note_off_c, 4, 57, 0
5, 107776, Note_off_c, 4, 62, 0
5, 107776, Note_off_c, 4, 66, 0
5, 107904, Note_on_c, 4, 57, 65
5, 107904, Note_on_c, 4, 62, 65
5, 107904, Note_on_c, 4, 66, 65
5, 107968, Note_off_c, 4, 57, 0
5, 107968, Note_off_c, 4, 62, 0
5, 107968, Note_off_c, 4, 66, 0
5, 108096, Note_on_c, 4, 57, 65
5, 108096, Note_on_c, 4, 62, 65
5, 108096, Note_on_c, 4, 66, 65
5, 108160, Note_off_c, 4, 57, 0
5, 108160, Note_off_c, 4, 62, 0
5, 108160, Note_off_c, 4, 66, 0
5, 108272, Control_c, 4, 64, 0
5, 108288, Control_c, 4, 64, 127
5, 108288, Note_on_c, 4, 57, 65
5, 108288, Note_on_c, 4, 60, 65
5, 108288, Note_on_c, 4, 65, 65
5, 108352, Note_off_c, 4, 57, 0
5, 108352, Note_off_c, 4, 60, 0
5, 108352, Note_off_c, 4, 65, 0
5, 108480, Note_on_c, 4, 57, 65
5, 108480, Note_on_c, 4, 60, 65
5, 108480, Note_on_c, 4, 65, 65
5, 108544, Note_off_c, 4, 57, 0
5, 108544, Note_off_c, 4, 60, 0
5, 108544, Note_off_c, 4, 65, 0
5, 108672, Note_on_c, 4, 57, 65
5, 108672, Note_on_c, 4, 60, 65
5, 108672, Note_on_c, 4, 65, 65
5, 108736, Note_off_c, 4, 57, 0
5, 108736, Note_off_c, 4, 60, 0
5, 108736, Note_off_c, 4, 65, 0
5, 108864, Note_on_c, 4, 57, 65
5, 108864, Note_on_c, 4, 60, 65
5, 108864, Note_on_c, 4, 65, 65
5, 108944, Note_off_c, 4, 57, 0
5, 108944, Note_off_c, 4, 60, 0
5, 108944, Note_off_c, 4, 65, 0
5, 109056, Note_on_c, 4, 57, 65
5, 109056, Note_on_c, 4, 60, 65
5, 109056, Note_on_c, 4, 65, 65
5, 109120, Note_off_c, 4, 57, 0
5, 109120, Note_off_c, 4, 60, 0
5, 109120, Note_off_c, 4, 65, 0
5, 109248, Note_on_c, 4, 57, 65
5, 109248, Note_on_c, 4, 60, 65
5, 109248, Note_on_c, 4, 65, 65
5, 109312, Note_off_c, 4, 57, 0
5, 109312, Note_off_c, 4, 60, 0
5, 109312, Note_off_c, 4, 65, 0
5, 109424, Control_c, 4, 64, 0
5, 109440, Control_c, 4, 64, 127
5, 109440, Note_on_c, 4, 57, 65
5, 109440, Note_on_c, 4, 60, 65
5, 109440, Note_on_c, 4, 64, 65
5, 109504, Note_off_c, 4, 57, 0
5, 109504, Note_off_c, 4, 60, 0
5, 109504, Note_off_c, 4, 64, 0
5, 109632, Note_on_c, 4, 57, 65
5, 109632, Note_on_c, 4, 60, 65
5, 109632, Note_on_c, 4, 64, 65
5, 109696, Note_off_c, 4, 57, 0
5, 109696, Note_off_c, 4, 60, 0
5, 109696, Note_off_c, 4, 64, 0
5, 109824, Note_on_c, 4, 57, 65
5, 109824, Note_on_c, 4, 60, 65
5, 109824, Note_on_c, 4, 64, 65
5, 109888, Note_off_c, 4, 57, 0
5, 109888, Note_off_c, 4, 60, 0
5, 109888, Note_off_c, 4, 64, 0
5, 110016, Note_on_c, 4, 57, 65
5, 110016, Note_on_c, 4, 60, 65
5, 110016, Note_on_c, 4, 64, 65
5, 110080, Note_off_c, 4, 57, 0
5, 110080, Note_off_c, 4, 60, 0
5, 110080, Note_off_c, 4, 64, 0
5, 110208, Note_on_c, 4, 57, 65
5, 110208, Note_on_c, 4, 60, 65
5, 110208, Note_on_c, 4, 64, 65
5, 110272, Note_off_c, 4, 57, 0
5, 110272, Note_off_c, 4, 60, 0
5, 110272, Note_off_c, 4, 64, 0
5, 110400, Note_on_c, 4, 57, 65
5, 110400, Note_on_c, 4, 60, 65
5, 110400, Note_on_c, 4, 64, 65
5, 110464, Note_off_c, 4, 57, 0
5, 110464, Note_off_c, 4, 60, 0
5, 110464, Note_off_c, 4, 64, 0
5, 110576, Control_c, 4, 64, 0
5, 110592, Control_c, 4, 64, 127
5, 110592, Note_on_c, 4, 56, 65
5, 110592, Note_on_c, 4, 59, 65
5, 110592, Note_on_c, 4, 64, 65
5, 110656, Note_off_c, 4, 56, 0
5, 110656, Note_off_c, 4, 59, 0
5, 110656, Note_off_c, 4, 64, 0
5, 110784, Note_on_c, 4, 56, 65
5, 110784, Note_on_c, 4, 59, 65
5, 110784, Note_on_c, 4, 64, 65
5, 110848, Note_off_c, 4, 56, 0
5, 110848, Note_off_c, 4, 59, 0
5, 110848, Note_off_c, 4, 64, 0
5, 110976, Note_on_c, 4, 56, 65
5, 110976, Note_on_c, 4, 59, 65
5, 110976, Note_on_c, 4, 64, 65
5, 111040, Note_off_c, 4, 56, 0
5, 111040, Note_off_c, 4, 59, 0
5, 111040, Note_off_c, 4, 64, 0
5, 111168, Note_on_c, 4, 56, 65
5, 111168, Note_on_c, 4, 59, 65
5, 111168, Note_on_c, 4, 64, 65
5, 111232, Note_off_c, 4, 56, 0
5, 111232, Note_off_c, 4, 59, 0
5, 111232, Note_off_c, 4, 64, 0
5, 111360, Note_on_c, 4, 56, 65
5, 111360, Note_on_c, 4, 59, 65
5, 111360, Note_on_c, 4, 64, 65
5, 111424, Note_off_c, 4, 56, 0
5, 111424, Note_off_c, 4, 59, 0
5, 111424, Note_off_c, 4, 64, 0
5, 111552, Note_on_c, 4, 56, 65
5, 111552, Note_on_c, 4, 59, 65
5, 111552, Note_on_c, 4, 64, 65
5, 111616, Note_off_c, 4, 56, 0
5, 111616, Note_off_c, 4, 59, 0
5, 111616, Note_off_c, 4, 64, 0
5, 111728, Control_c, 4, 64, 0
5, 111744, Control_c, 4, 64, 127
5, 111744, Note_on_c, 4, 45, 76
5, 111744, Note_on_c, 4, 60, 65
5, 111744, Note_on_c, 4, 64, 65
5, 111792, Note_off_c, 4, 45, 0
5, 111792, Note_off_c, 4, 60, 0
5, 111792, Note_off_c, 4, 64, 0
5, 111936, Note_on_c, 4, 52, 65
5, 112016, Note_off_c, 4, 52, 0
5, 112032, Note_on_c, 4, 57, 65
5, 112112, Note_off_c, 4, 57, 0
5, 112128, Note_on_c, 4, 60, 65
5, 112208, Note_off_c, 4, 60, 0
5, 112320, Note_on_c, 4, 64, 76
5, 112400, Note_off_c, 4, 64, 0
5, 112512, Note_on_c, 4, 60, 65
5, 112560, Note_off_c, 4, 60, 0
5, 112704, Note_on_c, 4, 55, 65
5, 112784, Note_off_c, 4, 55, 0
5, 112880, Control_c, 4, 64, 0
5, 112896, Control_c, 4, 64, 127
5, 112896, Note_on_c, 4, 40, 76
5, 112944, Note_off_c, 4, 40, 0
5, 113088, Note_on_c, 4, 47, 65
5, 113168, Note_off_c, 4, 47, 0
5, 113184, Note_on_c, 4, 52, 65
5, 113264, Note_off_c, 4, 52, 0
5, 113280, Note_on_c, 4, 56, 65
5, 113344, Note_on_c, 4, 59, 65
5, 113360, Note_off_c, 4, 56, 0
5, 113424, Note_off_c, 4, 59, 0
5, 113472, Note_on_c, 4, 64, 76
5, 113520, Note_off_c, 4, 64, 0
5, 113664, Note_on_c, 4, 59, 65
5, 113744, Note_off_c, 4, 59, 0
5, 113856, Note_on_c, 4, 55, 65
5, 113936, Note_off_c, 4, 55, 0
5, 114032, Control_c, 4, 64, 0
5, 114048, Control_c, 4, 64, 127
5, 114048, Note_on_c, 4, 45, 76
5, 114096, Note_off_c, 4, 45, 0
5, 114240, Note_on_c, 4, 52, 65
5, 114320, Note_off_c, 4, 52, 0
5, 114336, Note_on_c, 4, 57, 65
5, 114416, Note_off_c, 4, 57, 0
5, 114432, Note_on_c, 4, 60, 65
5, 114512, Note_off_c, 4, 60, 0
5, 114624, Note_on_c, 4, 64, 76
5, 114704, Note_off_c, 4, 64, 0
5, 114816, Note_on_c, 4, 60, 65
5, 114896, Note_off_c, 4, 60, 0
5, 115008, Note_on_c, 4, 55, 65
5, 115088, Note_off_c, 4, 55, 0
5, 115184, Control_c, 4, 64, 0
5, 115200, Control_c, 4, 64, 127
5, 115200, Note_on_c, 4, 48, 76
5, 115280, Note_off_c, 4, 48, 0
5, 115392, Note_on_c, 4, 52, 65
5, 115472, Note_off_c, 4, 52, 0
5, 115488, Note_on_c, 4, 55, 65
5, 115568, Note_off_c, 4, 55, 0
5, 115584, Note_on_c, 4, 60, 65
5, 115664, Note_off_c, 4, 60, 0
5, 115776, Note_on_c, 4, 64, 76
5, 115856, Note_off_c, 4, 64, 0
5, 115968, Note_on_c, 4, 60, 65
5, 116048, Note_off_c, 4, 60, 0
5, 116160, Note_on_c, 4, 55, 65
5, 116240, Note_off_c, 4, 55, 0
5, 116336, Control_c, 4, 64, 0
5, 116352, Control_c, 4, 64, 127
5, 116352, Note_on_c, 4, 50, 76
5, 116432, Note_off_c, 4, 50, 0
5, 116544, Note_on_c, 4, 57, 65
5, 116624, Note_off_c, 4, 57, 0
5, 116640, Note_on_c, 4, 62, 65
5, 116720, Note_off_c, 4, 62, 0
5, 116736, Note_on_c, 4, 66, 65
5, 116784, Note_off_c, 4, 66, 0
5, 116928, Note_on_c, 4, 66, 76
5, 117008, Note_off_c, 4, 66, 0
5, 117120, Note_on_c, 4, 62, 65
5, 117200, Note_off_c, 4, 62, 0
5, 117312, Note_on_c, 4, 55, 65
5, 117392, Note_off_c, 4, 55, 0
5, 117488, Control_c, 4, 64, 0
5, 117504, Control_c, 4, 64, 127
5, 117504, Note_on_c, 4, 53, 76
5, 117584, Note_off_c, 4, 53, 0
5, 117696, Note_on_c, 4, 57, 65
5, 117776, Note_off_c, 4, 57, 0
5, 117792, Note_on_c, 4, 60, 65
5, 117872, Note_off_c, 4, 60, 0
5, 117888, Note_on_c, 4, 60, 65
5, 117968, Note_off_c, 4, 60, 0
5, 118080, Note_on_c, 4, 65, 76
5, 118160, Note_off_c, 4, 65, 0
5, 118272, Note_on_c, 4, 57, 65
5, 118352, Note_off_c, 4, 57, 0
5, 118464, Note_on_c, 4, 55, 65
5, 118544, Note_off_c, 4, 55, 0
5, 118640, Control_c, 4, 64, 0
5, 118656, Control_c, 4, 64, 127
5, 118656, Note_on_c, 4, 45, 76
5, 118704, Note_off_c, 4, 45, 0
5, 118848, Note_on_c, 4, 52, 65
5, 118928, Note_off_c, 4, 52, 0
5, 118944, Note_on_c, 4, 57, 65
5, 119024, Note_off_c, 4, 57, 0
5, 119040, Note_on_c, 4, 60, 65
5, 119120, Note_off_c, 4, 60, 0
5, 119232, Note_on_c, 4, 64, 76
5, 119312, Note_off_c, 4, 64, 0
5, 119424, Note_on_c, 4, 60, 65
5, 119504, Note_off_c, 4, 60, 0
5, 119616, Note_on_c, 4, 55, 65
5, 119696, Note_off_c, 4, 55, 0
5, 119792, Control_c, 4, 64, 0
5, 119808, Control_c, 4, 64, 127
5, 119808, Note_on_c, 4, 48, 76
5, 119888, Note_off_c, 4, 48, 0
5, 120000, Note_on_c, 4, 52, 65
5, 120080, Note_off_c, 4, 52, 0
5, 120096, Note_on_c, 4, 55, 65
5, 120176, Note_off_c, 4, 55, 0
5, 120192, Note_on_c, 4, 60, 65
5, 120272, Note_off_c, 4, 60, 0
5, 120384, Note_on_c, 4, 64, 76
5, 120464, Note_off_c, 4, 64, 0
5, 120576, Note_on_c, 4, 60, 65
5, 120656, Note_off_c, 4, 60, 0
5, 120768, Note_on_c, 4, 55, 65
5, 120848, Note_off_c, 4, 55, 0
5, 120944, Control_c, 4, 64, 0
5, 120960, Control_c, 4, 64, 127
5, 120960, Note_on_c, 4, 40, 76
5, 121008, Note_off_c, 4, 40, 0
5, 121152, Note_on_c, 4, 47, 65
5, 121232, Note_off_c, 4, 47, 0
5, 121248, Note_on_c, 4, 52, 65
5, 121328, Note_off_c, 4, 52, 0
5, 121344, Note_on_c, 4, 56, 65
5, 121408, Note_on_c, 4, 59, 65
5, 121424, Note_off_c, 4, 56, 0
5, 121488, Note_off_c, 4, 59, 0
5, 121536, Note_on_c, 4, 64, 76
5, 121584, Note_off_c, 4, 64, 0
5, 121728, Note_on_c, 4, 56, 65
5, 121808, Note_off_c, 4, 56, 0
5, 121920, Note_on_c, 4, 52, 65
5, 122000, Note_off_c, 4, 52, 0
5, 122096, Control_c, 4, 64, 0
5, 122112, Control_c, 4, 64, 127
5, 122112, Note_on_c, 4, 40, 76
5, 122160, Note_off_c, 4, 40, 0
5, 122304, Note_on_c, 4, 47, 65
5, 122384, Note_off_c, 4, 47, 0
5, 122400, Note_on_c, 4, 52, 65
5, 122480, Note_off_c, 4, 52, 0
5, 122496, Note_on_c, 4, 56, 65
5, 122560, Note_on_c, 4, 59, 65
5, 122576, Note_off_c, 4, 56, 0
5, 122640, Note_off_c, 4, 59, 0
5, 122688, Note_on_c, 4, 64, 76
5, 122736, Note_off_c, 4, 64, 0
5, 122880, Note_on_c, 4, 59, 65
5, 122960, Note_off_c, 4, 59, 0
5, 123072, Note_on_c, 4, 55, 65
5, 123152, Note_off_c, 4, 55, 0
5, 123248, Control_c, 4, 64, 0
5, 123264, Control_c, 4, 64, 127
5, 123264, Note_on_c, 4, 45, 76
5, 123312, Note_off_c, 4, 45, 0
5, 123456, Note_on_c, 4, 52, 65
5, 123536, Note_off_c, 4, 52, 0
5, 123552, Note_on_c, 4, 57, 65
5, 123632, Note_off_c, 4, 57, 0
5, 123648, Note_on_c, 4, 60, 65
5, 123728, Note_off_c, 4, 60, 0
5, 123840, Note_on_c, 4, 64, 76
5, 123920, Note_off_c, 4, 64, 0
5, 124032, Note_on_c, 4, 60, 65
5, 124112, Note_off_c, 4, 60, 0
5, 124224, Note_on_c, 4, 55, 65
5, 124304, Note_off_c, 4, 55, 0
5, 124400, Control_c, 4, 64, 0
5, 124416, Control_c, 4, 64, 127
5, 124416, Note_on_c, 4, 48, 76
5, 124496, Note_off_c, 4, 48, 0
5, 124608, Note_on_c, 4, 52, 65
5, 124688, Note_off_c, 4, 52, 0
5, 124704, Note_on_c, 4, 55, 65
5, 124784, Note_off_c, 4, 55, 0
5, 124800, Note_on_c, 4, 60, 65
5, 124880, Note_off_c, 4, 60, 0
5, 124992, Note_on_c, 4, 64, 76
5, 125072, Note_off_c, 4, 64, 0
5, 125184, Note_on_c, 4, 60, 65
5, 125264, Note_off_c, 4, 60, 0
5, 125376, Note_on_c, 4, 55, 65
5, 125456, Note_off_c, 4, 55, 0
5, 125552, Control_c, 4, 64, 0
5, 125568, Control_c, 4, 64, 127
5, 125568, Note_on_c, 4, 50, 76
5, 125648, Note_off_c, 4, 50, 0
5, 125760, Note_on_c, 4, 57, 65
5, 125840, Note_off_c, 4, 57, 0
5, 125856, Note_on_c, 4, 62, 65
5, 125936, Note_off_c, 4, 62, 0
5, 125952, Note_on_c, 4, 66, 65
5, 126000, Note_off_c, 4, 66, 0
5, 126144, Note_on_c, 4, 66, 76
5, 126224, Note_off_c, 4, 66, 0
5, 126336, Note_on_c, 4, 62, 65
5, 126416, Note_off_c, 4, 62, 0
5, 126528, Note_on_c, 4, 55, 65
5, 126608, Note_off_c, 4, 55, 0
5, 126704, Control_c, 4, 64, 0
5, 126720, Control_c, 4, 64, 127
5, 126720, Note_on_c, 4, 53, 76
5, 126800, Note_off_c, 4, 53, 0
5, 126912, Note_on_c, 4, 57, 65
5, 126992, Note_off_c, 4, 57, 0
5, 127008, Note_on_c, 4, 60, 65
5, 127088, Note_off_c, 4, 60, 0
5, 127104, Note_on_c, 4, 60, 65
5, 127184, Note_off_c, 4, 60, 0
5, 127296, Note_on_c, 4, 65, 76
5, 127376, Note_off_c, 4, 65, 0
5, 127488, Note_on_c, 4, 57, 65
5, 127568, Note_off_c, 4, 57, 0
5, 127680, Note_on_c, 4, 55, 65
5, 127760, Note_off_c, 4, 55, 0
5, 127856, Control_c, 4, 64, 0
5, 127872, Control_c, 4, 64, 127
5, 127872, Note_on_c, 4, 45, 76
5, 127920, Note_off_c, 4, 45, 0
5, 128064, Note_on_c, 4, 52, 65
5, 128144, Note_off_c, 4, 52, 0
5, 128160, Note_on_c, 4, 57, 65
5, 128240, Note_off_c, 4, 57, 0
5, 128256, Note_on_c, 4, 60, 65
5, 128336, Note_off_c, 4, 60, 0
5, 128448, Note_on_c, 4, 64, 76
5, 128528, Note_off_c, 4, 64, 0
5, 128640, Note_on_c, 4, 60, 65
5, 128688, Note_off_c, 4, 60, 0
5, 128832, Note_on_c, 4, 55, 65
5, 128912, Note_off_c, 4, 55, 0
5, 129008, Control_c, 4, 64, 0
5, 129024, Control_c, 4, 64, 127
5, 129024, Note_on_c, 4, 40, 76
5, 129072, Note_off_c, 4, 40, 0
5, 129216, Note_on_c, 4, 47, 65
5, 129296, Note_off_c, 4, 47, 0
5, 129312, Note_on_c, 4, 52, 65
5, 129392, Note_off_c, 4, 52, 0
5, 129408, Note_on_c, 4, 56, 65
5, 129472, Note_on_c, 4, 59, 65
5, 129488, Note_off_c, 4, 56, 0
5, 129552, Note_off_c, 4, 59, 0
5, 129600, Note_on_c, 4, 64, 76
5, 129648, Note_off_c, 4, 64, 0
5, 129792, Note_on_c, 4, 59, 65
5, 129872, Note_off_c, 4, 59, 0
5, 129984, Note_on_c, 4, 55, 65
5, 130064, Note_off_c, 4, 55, 0
5, 130160, Control_c, 4, 64, 0
5, 130176, Control_c, 4, 64, 127
5, 130176, Note_on_c, 4, 45, 76
5, 130224, Note_off_c, 4, 45, 0
5, 130368, Note_on_c, 4, 52, 65
5, 130448, Note_off_c, 4, 52, 0
5, 130464, Note_on_c, 4, 57, 65
5, 130544, Note_off_c, 4, 57, 0
5, 130560, Note_on_c, 4, 60, 65
5, 130640, Note_off_c, 4, 60, 0
5, 130752, Note_on_c, 4, 64, 76
5, 130832, Note_off_c, 4, 64, 0
5, 130944, Note_on_c, 4, 60, 65
5, 131024, Note_off_c, 4, 60, 0
5, 131136, Note_on_c, 4, 55, 65
5, 131216, Note_off_c, 4, 55, 0
5, 131312, Control_c, 4, 64, 0
5, 131328, Control_c, 4, 64, 127
5, 131328, Note_on_c, 4, 48, 76
5, 131408, Note_off_c, 4, 48, 0
5, 131520, Note_on_c, 4, 52, 65
5, 131600, Note_off_c, 4, 52, 0
5, 131616, Note_on_c, 4, 55, 65
5, 131696, Note_off_c, 4, 55, 0
5, 131712, Note_on_c, 4, 60, 65
5, 131792, Note_off_c, 4, 60, 0
5, 131904, Note_on_c, 4, 64, 76
5, 131984, Note_off_c, 4, 64, 0
5, 132096, Note_on_c, 4, 60, 65
5, 132176, Note_off_c, 4, 60, 0
5, 132288, Note_on_c, 4, 55, 65
5, 132368, Note_off_c, 4, 55, 0
5, 132464, Control_c, 4, 64, 0
5, 132480, Control_c, 4, 64, 127
5, 132480, Note_on_c, 4, 50, 76
5, 132560, Note_off_c, 4, 50, 0
5, 132672, Note_on_c, 4, 57, 65
5, 132752, Note_off_c, 4, 57, 0
5, 132768, Note_on_c, 4, 62, 65
5, 132848, Note_off_c, 4, 62, 0
5, 132864, Note_on_c, 4, 66, 65
5, 132912, Note_off_c, 4, 66, 0
5, 133056, Note_on_c, 4, 66, 76
5, 133136, Note_off_c, 4, 66, 0
5, 133248, Note_on_c, 4, 62, 65
5, 133328, Note_off_c, 4, 62, 0
5, 133440, Note_on_c, 4, 55, 65
5, 133520, Note_off_c, 4, 55, 0
5, 133616, Control_c, 4, 64, 0
5, 133632, Control_c, 4, 64, 127
5, 133632, Note_on_c, 4, 53, 76
5, 133712, Note_off_c, 4, 53, 0
5, 133824, Note_on_c, 4, 57, 65
5, 133904, Note_off_c, 4, 57, 0
5, 133920, Note_on_c, 4, 60, 65
5, 134000, Note_off_c, 4, 60, 0
5, 134016, Note_on_c, 4, 60, 65
5, 134096, Note_off_c, 4, 60, 0
5, 134208, Note_on_c, 4, 65, 76
5, 134288, Note_off_c, 4, 65, 0
5, 134400, Note_on_c, 4, 57, 65
5, 134480, Note_off_c, 4, 57, 0
5, 134592, Note_on_c, 4, 55, 65
5, 134672, Note_off_c, 4, 55, 0
5, 134768, Control_c, 4, 64, 0
5, 134784, Control_c, 4, 64, 127
5, 134784, Note_on_c, 4, 45, 76
5, 134832, Note_off_c, 4, 45, 0
5, 134976, Note_on_c, 4, 52, 65
5, 135056, Note_off_c, 4, 52, 0
5, 135072, Note_on_c, 4, 57, 65
5, 135152, Note_off_c, 4, 57, 0
5, 135168, Note_on_c, 4, 60, 65
5, 135248, Note_off_c, 4, 60, 0
5, 135360, Note_on_c, 4, 64, 76
5, 135440, Note_off_c, 4, 64, 0
5, 135552, Note_on_c, 4, 60, 65
5, 135600, Note_off_c, 4, 60, 0
5, 135744, Note_on_c, 4, 55, 65
5, 135824, Note_off_c, 4, 55, 0
5, 135920, Control_c, 4, 64, 0
5, 135936, Control_c, 4, 64, 127
5, 135936, Note_on_c, 4, 40, 76
5, 135984, Note_off_c, 4, 40, 0
5, 136128, Note_on_c, 4, 47, 65
5, 136208, Note_off_c, 4, 47, 0
5, 136224, Note_on_c, 4, 52, 65
5, 136304, Note_off_c, 4, 52, 0
5, 136320, Note_on_c, 4, 56, 65
5, 136384, Note_on_c, 4, 59, 65
5, 136400, Note_off_c, 4, 56, 0
5, 136464, Note_off_c, 4, 59, 0
5, 136512, Note_on_c, 4, 64, 76
5, 136560, Note_off_c, 4, 64, 0
5, 136704, Note_on_c, 4, 59, 65
5, 136784, Note_off_c, 4, 59, 0
5, 136896, Note_on_c, 4, 55, 65
5, 136976, Note_off_c, 4, 55, 0
5, 137072, Control_c, 4, 64, 0
5, 137088, Control_c, 4, 64, 127
5, 137088, Note_on_c, 4, 45, 76
5, 137136, Note_off_c, 4, 45, 0
5, 137280, Note_on_c, 4, 52, 65
5, 137360, Note_off_c, 4, 52, 0
5, 137376, Note_on_c, 4, 57, 65
5, 137456, Note_off_c, 4, 57, 0
5, 137472, Note_on_c, 4, 60, 65
5, 137552, Note_off_c, 4, 60, 0
5, 137664, Note_on_c, 4, 64, 76
5, 137744, Note_off_c, 4, 64, 0
5, 137856, Note_on_c, 4, 60, 65
5, 137904, Note_off_c, 4, 60, 0
5, 138048, Note_on_c, 4, 55, 65
5, 138128, Note_off_c, 4, 55, 0
5, 138224, Control_c, 4, 64, 0
5, 138240, Control_c, 4, 64, 127
5, 138240, Note_on_c, 4, 40, 76
5, 138288, Note_off_c, 4, 40, 0
5, 138432, Note_on_c, 4, 47, 65
5, 138512, Note_off_c, 4, 47, 0
5, 138528, Note_on_c, 4, 52, 65
5, 138608, Note_off_c, 4, 52, 0
5, 138624, Note_on_c, 4, 56, 65
5, 138688, Note_on_c, 4, 59, 65
5, 138704, Note_off_c, 4, 56, 0
5, 138768, Note_off_c, 4, 59, 0
5, 138816, Note_on_c, 4, 64, 76
5, 138864, Note_off_c, 4, 64, 0
5, 139008, Note_on_c, 4, 59, 65
5, 139088, Note_off_c, 4, 59, 0
5, 139200, Note_on_c, 4, 55, 65
5, 139280, Note_off_c, 4, 55, 0
5, 139376, Control_c, 4, 64, 0
5, 139392, Control_c, 4, 64, 127
5, 139392, Note_on_c, 4, 57, 71
5, 139392, Note_on_c, 4, 60, 71
5, 139392, Note_on_c, 4, 64, 71
5, 139456, Note_off_c, 4, 57, 0
5, 139456, Note_off_c, 4, 60, 0
5, 139456, Note_off_c, 4, 64, 0
5, 139584, Note_on_c, 4, 57, 71
5, 139584, Note_on_c, 4, 60, 71
5, 139584, Note_on_c, 4, 64, 71
5, 139648, Note_off_c, 4, 57, 0
5, 139648, Note_off_c, 4, 60, 0
5, 139648, Note_off_c, 4, 64, 0
5, 139776, Note_on_c, 4, 57, 71
5, 139776, Note_on_c, 4, 60, 71
5, 139776, Note_on_c, 4, 64, 71
5, 139840, Note_off_c, 4, 57, 0
5, 139840, Note_off_c, 4, 60, 0
5, 139840, Note_off_c, 4, 64, 0
5, 139968, Note_on_c, 4, 57, 71
5, 139968, Note_on_c, 4, 60, 71
5, 139968, Note_on_c, 4, 64, 71
5, 140032, Note_off_c, 4, 57, 0
5, 140032, Note_off_c, 4, 60, 0
5, 140032, Note_off_c, 4, 64, 0
5, 140160, Note_on_c, 4, 57, 71
5, 140160, Note_on_c, 4, 60, 71
5, 140160, Note_on_c, 4, 64, 71
5, 140224, Note_off_c, 4, 57, 0
5, 140224, Note_off_c, 4, 60, 0
5, 140224, Note_off_c, 4, 64, 0
5, 140352, Note_on_c, 4, 57, 71
5, 140352, Note_on_c, 4, 60, 71
5, 140352, Note_on_c, 4, 64, 71
5, 140416, Note_off_c, 4, 57, 0
5, 140416, Note_off_c, 4, 60, 0
5, 140416, Note_off_c, 4, 64, 0
5, 140528, Control_c, 4, 64, 0
5, 140544, Control_c, 4, 64, 127
5, 140544, Note_on_c, 4, 55, 71
5, 140544, Note_on_c, 4, 60, 71
5, 140544, Note_on_c, 4, 64, 71
5, 140608, Note_off_c, 4, 55, 0
5, 140608, Note_off_c, 4, 60, 0
5, 140608, Note_off_c, 4, 64, 0
5, 140736, Note_on_c, 4, 55, 71
5, 140736, Note_on_c, 4, 60, 71
5, 140736, Note_on_c, 4, 64, 71
5, 140800, Note_off_c, 4, 55, 0
5, 140800, Note_off_c, 4, 60, 0
5, 140800, Note_off_c, 4, 64, 0
5, 140928, Note_on_c, 4, 55, 71
5, 140928, Note_on_c, 4, 60, 71
5, 140928, Note_on_c, 4, 64, 71
5, 140992, Note_off_c, 4, 55, 0
5, 140992, Note_off_c, 4, 60, 0
5, 140992, Note_off_c, 4, 64, 0
5, 141120, Note_on_c, 4, 55, 71
5, 141120, Note_on_c, 4, 60, 71
5, 141120, Note_on_c, 4, 64, 71
5, 141184, Note_off_c, 4, 55, 0
5, 141184, Note_off_c, 4, 60, 0
5, 141184, Note_off_c, 4, 64, 0
5, 141312, Note_on_c, 4, 55, 71
5, 141312, Note_on_c, 4, 60, 71
5, 141312, Note_on_c, 4, 64, 71
5, 141376, Note_off_c, 4, 55, 0
5, 141376, Note_off_c, 4, 60, 0
5, 141376, Note_off_c, 4, 64, 0
5, 141504, Note_on_c, 4, 55, 71
5, 141504, Note_on_c, 4, 60, 71
5, 141504, Note_on_c, 4, 64, 71
5, 141568, Note_off_c, 4, 55, 0
5, 141568, Note_off_c, 4, 60, 0
5, 141568, Note_off_c, 4, 64, 0
5, 141680, Control_c, 4, 64, 0
5, 141696, Control_c, 4, 64, 127
5, 141696, Note_on_c, 4, 57, 71
5, 141696, Note_on_c, 4, 62, 71
5, 141696, Note_on_c, 4, 66, 71
5, 141760, Note_off_c, 4, 57, 0
5, 141760, Note_off_c, 4, 62, 0
5, 141760, Note_off_c, 4, 66, 0
5, 141888, Note_on_c, 4, 57, 71
5, 141888, Note_on_c, 4, 62, 71
5, 141888, Note_on_c, 4, 66, 71
5, 141952, Note_off_c, 4, 57, 0
5, 141952, Note_off_c, 4, 62, 0
5, 141952, Note_off_c, 4, 66, 0
5, 142080, Note_on_c, 4, 57, 71
5, 142080, Note_on_c, 4, 62, 71
5, 142080, Note_on_c, 4, 66, 71
5, 142144, Note_off_c, 4, 57, 0
5, 142144, Note_off_c, 4, 62, 0
5, 142144, Note_off_c, 4, 66, 0
5, 142272, Note_on_c, 4, 57, 71
5, 142272, Note_on_c, 4, 62, 71
5, 142272, Note_on_c, 4, 66, 71
5, 142336, Note_off_c, 4, 57, 0
5, 142336, Note_off_c, 4, 62, 0
5, 142336, Note_off_c, 4, 66, 0
5, 142464, Note_on_c, 4, 57, 71
5, 142464, Note_on_c, 4, 62, 71
5, 142464, Note_on_c, 4, 66, 71
5, 142528, Note_off_c, 4, 57, 0
5, 142528, Note_off_c, 4, 62, 0
5, 142528, Note_off_c, 4, 66, 0
5, 142656, Note_on_c, 4, 57, 71
5, 142656, Note_on_c, 4, 62, 71
5, 142656, Note_on_c, 4, 66, 71
5, 142720, Note_off_c, 4, 57, 0
5, 142720, Note_off_c, 4, 62, 0
5, 142720, Note_off_c, 4, 66, 0
5, 142832, Control_c, 4, 64, 0
5, 142848, Control_c, 4, 64, 127
5, 142848, Note_on_c, 4, 57, 71
5, 142848, Note_on_c, 4, 60, 71
5, 142848, Note_on_c, 4, 65, 71
5, 142912, Note_off_c, 4, 57, 0
5, 142912, Note_off_c, 4, 60, 0
5, 142912, Note_off_c, 4, 65, 0
5, 143040, Note_on_c, 4, 57, 71
5, 143040, Note_on_c, 4, 60, 71
5, 143040, Note_on_c, 4, 65, 71
5, 143104, Note_off_c, 4, 57, 0
5, 143104, Note_off_c, 4, 60, 0
5, 143104, Note_off_c, 4, 65, 0
5, 143232, Note_on_c, 4, 57, 71
5, 143232, Note_on_c, 4, 60, 71
5, 143232, Note_on_c, 4, 65, 71
5, 143296, Note_off_c, 4, 57, 0
5, 143296, Note_off_c, 4, 60, 0
5, 143296, Note_off_c, 4, 65, 0
5, 143424, Note_on_c, 4, 57, 71
5, 143424, Note_on_c, 4, 60, 71
5, 143424, Note_on_c, 4, 65, 71
5, 143488, Note_off_c, 4, 57, 0
5, 143488, Note_off_c, 4, 60, 0
5, 143488, Note_off_c, 4, 65, 0
5, 143616, Note_on_c, 4, 57, 71
5, 143616, Note_on_c, 4, 60, 71
5, 143616, Note_on_c, 4, 65, 71
5, 143680, Note_off_c, 4, 57, 0
5, 143680, Note_off_c, 4, 60, 0
5, 143680, Note_off_c, 4, 65, 0
5, 143808, Note_on_c, 4, 57, 71
5, 143808, Note_on_c, 4, 60, 71
5, 143808, Note_on_c, 4, 65, 71
5, 143872, Note_off_c, 4, 57, 0
5, 143872, Note_off_c, 4, 60, 0
5, 143872, Note_off_c, 4, 65, 0
5, 143984, Control_c, 4, 64, 0
5, 144000, Control_c, 4, 64, 127
5, 144000, Note_on_c, 4, 57, 71
5, 144000, Note_on_c, 4, 60, 71
5, 144000, Note_on_c, 4, 64, 71
5, 144064, Note_off_c, 4, 57, 0
5, 144064, Note_off_c, 4, 60, 0
5, 144064, Note_off_c, 4, 64, 0
5, 144192, Note_on_c, 4, 57, 71
5, 144192, Note_on_c, 4, 60, 71
5, 144192, Note_on_c, 4, 64, 71
5, 144256, Note_off_c, 4, 57, 0
5, 144256, Note_off_c, 4, 60, 0
5, 144256, Note_off_c, 4, 64, 0
5, 144384, Note_on_c, 4, 57, 71
5, 144384, Note_on_c, 4, 60, 71
5, 144384, Note_on_c, 4, 64, 71
5, 144448, Note_off_c, 4, 57, 0
5, 144448, Note_off_c, 4, 60, 0
5, 144448, Note_off_c, 4, 64, 0
5, 144576, Note_on_c, 4, 57, 71
5, 144576, Note_on_c, 4, 60, 71
5, 144576, Note_on_c, 4, 64, 71
5, 144640, Note_off_c, 4, 57, 0
5, 144640, Note_off_c, 4, 60, 0
5, 144640, Note_off_c, 4, 64, 0
5, 144768, Note_on_c, 4, 57, 71
5, 144768, Note_on_c, 4, 60, 71
5, 144768, Note_on_c, 4, 64, 71
5, 144832, Note_off_c, 4, 57, 0
5, 144832, Note_off_c, 4, 60, 0
5, 144832, Note_off_c, 4, 64, 0
5, 144960, Note_on_c, 4, 57, 71
5, 144960, Note_on_c, 4, 60, 71
5, 144960, Note_on_c, 4, 64, 71
5, 145024, Note_off_c, 4, 57, 0
5, 145024, Note_off_c, 4, 60, 0
5, 145024, Note_off_c, 4, 64, 0
5, 145136, Control_c, 4, 64, 0
5, 145152, Control_c, 4, 64, 127
5, 145152, Note_on_c, 4, 55, 71
5, 145152, Note_on_c, 4, 60, 71
5, 145152, Note_on_c, 4, 64, 71
5, 145216, Note_off_c, 4, 55, 0
5, 145216, Note_off_c, 4, 60, 0
5, 145216, Note_off_c, 4, 64, 0
5, 145344, Note_on_c, 4, 55, 71
5, 145344, Note_on_c, 4, 60, 71
5, 145344, Note_on_c, 4, 64, 71
5, 145408, Note_off_c, 4, 55, 0
5, 145408, Note_off_c, 4, 60, 0
5, 145408, Note_off_c, 4, 64, 0
5, 145536, Note_on_c, 4, 55, 71
5, 145536, Note_on_c, 4, 60, 71
5, 145536, Note_on_c, 4, 64, 71
5, 145600, Note_off_c, 4, 55, 0
5, 145600, Note_off_c, 4, 60, 0
5, 145600, Note_off_c, 4, 64, 0
5, 145728, Note_on_c, 4, 55, 71
5, 145728, Note_on_c, 4, 60, 71
5, 145728, Note_on_c, 4, 64, 71
5, 145792, Note_off_c, 4, 55, 0
5, 145792, Note_off_c, 4, 60, 0
5, 145792, Note_off_c, 4, 64, 0
5, 145920, Note_on_c, 4, 55, 71
5, 145920, Note_on_c, 4, 60, 71
5, 145920, Note_on_c, 4, 64, 71
5, 145984, Note_off_c, 4, 55, 0
5, 145984, Note_off_c, 4, 60, 0
5, 145984, Note_off_c, 4, 64, 0
5, 146112, Note_on_c, 4, 55, 71
5, 146112, Note_on_c, 4, 60, 71
5, 146112, Note_on_c, 4, 64, 71
5, 146176, Note_off_c, 4, 55, 0
5, 146176, Note_off_c, 4, 60, 0
5, 146176, Note_off_c, 4, 64, 0
5, 146288, Control_c, 4, 64, 0
5, 146304, Control_c, 4, 64, 127
5, 146304, Note_on_c, 4, 56, 71
5, 146304, Note_on_c, 4, 59, 71
5, 146304, Note_on_c, 4, 64, 71
5, 146368, Note_off_c, 4, 56, 0
5, 146368, Note_off_c, 4, 59, 0
5, 146368, Note_off_c, 4, 64, 0
5, 146496, Note_on_c, 4, 56, 71
5, 146496, Note_on_c, 4, 59, 71
5, 146496, Note_on_c, 4, 64, 71
5, 146560, Note_off_c, 4, 56, 0
5, 146560, Note_off_c, 4, 59, 0
5, 146560, Note_off_c, 4, 64, 0
5, 146688, Note_on_c, 4, 56, 71
5, 146688, Note_on_c, 4, 59, 71
5, 146688, Note_on_c, 4, 64, 71
5, 146752, Note_off_c, 4, 56, 0
5, 146752, Note_off_c, 4, 59, 0
5, 146752, Note_off_c, 4, 64, 0
5, 146880, Note_on_c, 4, 56, 71
5, 146880, Note_on_c, 4, 59, 71
5, 146880, Note_on_c, 4, 64, 71
5, 146944, Note_off_c, 4, 56, 0
5, 146944, Note_off_c, 4, 59, 0
5, 146944, Note_off_c, 4, 64, 0
5, 147072, Note_on_c, 4, 56, 71
5, 147072, Note_on_c, 4, 59, 71
5, 147072, Note_on_c, 4, 64, 71
5, 147136, Note_off_c, 4, 56, 0
5, 147136, Note_off_c, 4, 59, 0
5, 147136, Note_off_c, 4, 64, 0
5, 147264, Note_on_c, 4, 56, 71
5, 147264, Note_on_c, 4, 59, 71
5, 147264, Note_on_c, 4, 64, 71
5, 147328, Note_off_c, 4, 56, 0
5, 147328, Note_off_c, 4, 59, 0
5, 147328, Note_off_c, 4, 64, 0
5, 147440, Control_c, 4, 64, 0
5, 147456, Control_c, 4, 64, 127
5, 147456, Note_on_c, 4, 56, 71
5, 147456, Note_on_c, 4, 59, 71
5, 147456, Note_on_c, 4, 64, 71
5, 147536, Note_off_c, 4, 56, 0
5, 147536, Note_off_c, 4, 59, 0
5, 147536, Note_off_c, 4, 64, 0
5, 147648, Note_on_c, 4, 56, 71
5, 147648, Note_on_c, 4, 59, 71
5, 147648, Note_on_c, 4, 64, 71
5, 147712, Note_off_c, 4, 56, 0
5, 147712, Note_off_c, 4, 59, 0
5, 147712, Note_off_c, 4, 64, 0
5, 147840, Note_on_c, 4, 56, 71
5, 147840, Note_on_c, 4, 59, 71
5, 147840, Note_on_c, 4, 64, 71
5, 147904, Note_off_c, 4, 56, 0
5, 147904, Note_off_c, 4, 59, 0
5, 147904, Note_off_c, 4, 64, 0
5, 148032, Note_on_c, 4, 56, 71
5, 148032, Note_on_c, 4, 59, 71
5, 148032, Note_on_c, 4, 64, 71
5, 148096, Note_off_c, 4, 56, 0
5, 148096, Note_off_c, 4, 59, 0
5, 148096, Note_off_c, 4, 64, 0
5, 148224, Note_on_c, 4, 56, 71
5, 148224, Note_on_c, 4, 59, 71
5, 148224, Note_on_c, 4, 64, 71
5, 148288, Note_off_c, 4, 56, 0
5, 148288, Note_off_c, 4, 59, 0
5, 148288, Note_off_c, 4, 64, 0
5, 148416, Note_on_c, 4, 56, 71
5, 148416, Note_on_c, 4, 59, 71
5, 148416, Note_on_c, 4, 64, 71
5, 148480, Note_off_c, 4, 56, 0
5, 148480, Note_off_c, 4, 59, 0
5, 148480, Note_off_c, 4, 64, 0
5, 148592, Control_c, 4, 64, 0
5, 148608, Control_c, 4, 64, 127
5, 148608, Note_on_c, 4, 57, 71
5, 148608, Note_on_c, 4, 60, 71
5, 148608, Note_on_c, 4, 64, 71
5, 148672, Note_off_c, 4, 57, 0
5, 148672, Note_off_c, 4, 60, 0
5, 148672, Note_off_c, 4, 64, 0
5, 148800, Note_on_c, 4, 57, 71
5, 148800, Note_on_c, 4, 60, 71
5, 148800, Note_on_c, 4, 64, 71
5, 148864, Note_off_c, 4, 57, 0
5, 148864, Note_off_c, 4, 60, 0
5, 148864, Note_off_c, 4, 64, 0
5, 148992, Note_on_c, 4, 57, 71
5, 148992, Note_on_c, 4, 60, 71
5, 148992, Note_on_c, 4, 64, 71
5, 149056, Note_off_c, 4, 57, 0
5, 149056, Note_off_c, 4, 60, 0
5, 149056, Note_off_c, 4, 64, 0
5, 149184, Note_on_c, 4, 57, 71
5, 149184, Note_on_c, 4, 60, 71
5, 149184, Note_on_c, 4, 64, 71
5, 149248, Note_off_c, 4, 57, 0
5, 149248, Note_off_c, 4, 60, 0
5, 149248, Note_off_c, 4, 64, 0
5, 149376, Note_on_c, 4, 57, 71
5, 149376, Note_on_c, 4, 60, 71
5, 149376, Note_on_c, 4, 64, 71
5, 149440, Note_off_c, 4, 57, 0
5, 149440, Note_off_c, 4, 60, 0
5, 149440, Note_off_c, 4, 64, 0
5, 149568, Note_on_c, 4, 57, 71
5, 149568, Note_on_c, 4, 60, 71
5, 149568, Note_on_c, 4, 64, 71
5, 149632, Note_off_c, 4, 57, 0
5, 149632, Note_off_c, 4, 60, 0
5, 149632, Note_off_c, 4, 64, 0
5, 149744, Control_c, 4, 64, 0
5, 149760, Control_c, 4, 64, 127
5, 149760, Note_on_c, 4, 55, 71
5, 149760, Note_on_c, 4, 60, 71
5, 149760, Note_on_c, 4, 64, 71
5, 149824, Note_off_c, 4, 55, 0
5, 149824, Note_off_c, 4, 60, 0
5, 149824, Note_off_c, 4, 64, 0
5, 149952, Note_on_c, 4, 55, 71
5, 149952, Note_on_c, 4, 60, 71
5, 149952, Note_on_c, 4, 64, 71
5, 150016, Note_off_c, 4, 55, 0
5, 150016, Note_off_c, 4, 60, 0
5, 150016, Note_off_c, 4, 64, 0
5, 150144, Note_on_c, 4, 55, 71
5, 150144, Note_on_c, 4, 60, 71
5, 150144, Note_on_c, 4, 64, 71
5, 150208, Note_off_c, 4, 55, 0
5, 150208, Note_off_c, 4, 60, 0
5, 150208, Note_off_c, 4, 64, 0
5, 150336, Note_on_c, 4, 55, 71
5, 150336, Note_on_c, 4, 60, 71
5, 150336, Note_on_c, 4, 64, 71
5, 150400, Note_off_c, 4, 55, 0
5, 150400, Note_off_c, 4, 60, 0
5, 150400, Note_off_c, 4, 64, 0
5, 150528, Note_on_c, 4, 55, 71
5, 150528, Note_on_c, 4, 60, 71
5, 150528, Note_on_c, 4, 64, 71
5, 150592, Note_off_c, 4, 55, 0
5, 150592, Note_off_c, 4, 60, 0
5, 150592, Note_off_c, 4, 64, 0
5, 150720, Note_on_c, 4, 55, 71
5, 150720, Note_on_c, 4, 60, 71
5, 150720, Note_on_c, 4, 64, 71
5, 150784, Note_off_c, 4, 55, 0
5, 150784, Note_off_c, 4, 60, 0
5, 150784, Note_off_c, 4, 64, 0
5, 150896, Control_c, 4, 64, 0
5, 150912, Control_c, 4, 64, 127
5, 150912, Note_on_c, 4, 57, 71
5, 150912, Note_on_c, 4, 62, 71
5, 150912, Note_on_c, 4, 66, 71
5, 150976, Note_off_c, 4, 57, 0
5, 150976, Note_off_c, 4, 62, 0
5, 150976, Note_off_c, 4, 66, 0
5, 151104, Note_on_c, 4, 57, 71
5, 151104, Note_on_c, 4, 62, 71
5, 151104, Note_on_c, 4, 66, 71
5, 151168, Note_off_c, 4, 57, 0
5, 151168, Note_off_c, 4, 62, 0
5, 151168, Note_off_c, 4, 66, 0
5, 151296, Note_on_c, 4, 57, 71
5, 151296, Note_on_c, 4, 62, 71
5, 151296, Note_on_c, 4, 66, 71
5, 151360, Note_off_c, 4, 57, 0
5, 151360, Note_off_c, 4, 62, 0
5, 151360, Note_off_c, 4, 66, 0
5, 151488, Note_on_c, 4, 57, 71
5, 151488, Note_on_c, 4, 62, 71
5, 151488, Note_on_c, 4, 66, 71
5, 151552, Note_off_c, 4, 57, 0
5, 151552, Note_off_c, 4, 62, 0
5, 151552, Note_off_c, 4, 66, 0
5, 151680, Note_on_c, 4, 57, 71
5, 151680, Note_on_c, 4, 62, 71
5, 151680, Note_on_c, 4, 66, 71
5, 151744, Note_off_c, 4, 57, 0
5, 151744, Note_off_c, 4, 62, 0
5, 151744, Note_off_c, 4, 66, 0
5, 151872, Note_on_c, 4, 57, 71
5, 151872, Note_on_c, 4, 62, 71
5, 151872, Note_on_c, 4, 66, 71
5, 151936, Note_off_c, 4, 57, 0
5, 151936, Note_off_c, 4, 62, 0
5, 151936, Note_off_c, 4, 66, 0
5, 152048, Control_c, 4, 64, 0
5, 152064, Control_c, 4, 64, 127
5, 152064, Note_on_c, 4, 57, 71
5, 152064, Note_on_c, 4, 60, 71
5, 152064, Note_on_c, 4, 65, 71
5, 152128, Note_off_c, 4, 57, 0
5, 152128, Note_off_c, 4, 60, 0
5, 152128, Note_off_c, 4, 65, 0
5, 152256, Note_on_c, 4, 57, 71
5, 152256, Note_on_c, 4, 60, 71
5, 152256, Note_on_c, 4, 65, 71
5, 152320, Note_off_c, 4, 57, 0
5, 152320, Note_off_c, 4, 60, 0
5, 152320, Note_off_c, 4, 65, 0
5, 152448, Note_on_c, 4, 57, 71
5, 152448, Note_on_c, 4, 60, 71
5, 152448, Note_on_c, 4, 65, 71
5, 152512, Note_off_c, 4, 57, 0
5, 152512, Note_off_c, 4, 60, 0
5, 152512, Note_off_c, 4, 65, 0
5, 152640, Note_on_c, 4, 57, 71
5, 152640, Note_on_c, 4, 60, 71
5, 152640, Note_on_c, 4, 65, 71
5, 152704, Note_off_c, 4, 57, 0
5, 152704, Note_off_c, 4, 60, 0
5, 152704, Note_off_c, 4, 65, 0
5, 152832, Note_on_c, 4, 57, 71
5, 152832, Note_on_c, 4, 60, 71
5, 152832, Note_on_c, 4, 65, 71
5, 152896, Note_off_c, 4, 57, 0
5, 152896, Note_off_c, 4, 60, 0
5, 152896, Note_off_c, 4, 65, 0
5, 153024, Note_on_c, 4, 57, 71
5, 153024, Note_on_c, 4, 60, 71
5, 153024, Note_on_c, 4, 65, 71
5, 153088, Note_off_c, 4, 57, 0
5, 153088, Note_off_c, 4, 60, 0
5, 153088, Note_off_c, 4, 65, 0
5, 153200, Control_c, 4, 64, 0
5, 153216, Control_c, 4, 64, 127
5, 153216, Note_on_c, 4, 57, 71
5, 153216, Note_on_c, 4, 60, 71
5, 153216, Note_on_c, 4, 64, 71
5, 153280, Note_off_c, 4, 57, 0
5, 153280, Note_off_c, 4, 60, 0
5, 153280, Note_off_c, 4, 64, 0
5, 153408, Note_on_c, 4, 57, 71
5, 153408, Note_on_c, 4, 60, 71
5, 153408, Note_on_c, 4, 64, 71
5, 153472, Note_off_c, 4, 57, 0
5, 153472, Note_off_c, 4, 60, 0
5, 153472, Note_off_c, 4, 64, 0
5, 153600, Note_on_c, 4, 57, 71
5, 153600, Note_on_c, 4, 60, 71
5, 153600, Note_on_c, 4, 64, 71
5, 153664, Note_off_c, 4, 57, 0
5, 153664, Note_off_c, 4, 60, 0
5, 153664, Note_off_c, 4, 64, 0
5, 153792, Note_on_c, 4, 57, 71
5, 153792, Note_on_c, 4, 60, 71
5, 153792, Note_on_c, 4, 64, 71
5, 153856, Note_off_c, 4, 57, 0
5, 153856, Note_off_c, 4, 60, 0
5, 153856, Note_off_c, 4, 64, 0
5, 153984, Note_on_c, 4, 57, 71
5, 153984, Note_on_c, 4, 60, 71
5, 153984, Note_on_c, 4, 64, 71
5, 154048, Note_off_c, 4, 57, 0
5, 154048, Note_off_c, 4, 60, 0
5, 154048, Note_off_c, 4, 64, 0
5, 154176, Note_on_c, 4, 57, 71
5, 154176, Note_on_c, 4, 60, 71
5, 154176, Note_on_c, 4, 64, 71
5, 154240, Note_off_c, 4, 57, 0
5, 154240, Note_off_c, 4, 60, 0
5, 154240, Note_off_c, 4, 64, 0
5, 154352, Control_c, 4, 64, 0
5, 154368, Control_c, 4, 64, 127
5, 154368, Note_on_c, 4, 56, 71
5, 154368, Note_on_c, 4, 59, 71
5, 154368, Note_on_c, 4, 64, 71
5, 154432, Note_off_c, 4, 56, 0
5, 154432, Note_off_c, 4, 59, 0
5, 154432, Note_off_c, 4, 64, 0
5, 154560, Note_on_c, 4, 56, 71
5, 154560, Note_on_c, 4, 59, 71
5, 154560, Note_on_c, 4, 64, 71
5, 154624, Note_off_c, 4, 56, 0
5, 154624, Note_off_c, 4, 59, 0
5, 154624, Note_off_c, 4, 64, 0
5, 154752, Note_on_c, 4, 56, 71
5, 154752, Note_on_c, 4, 59, 71
5, 154752, Note_on_c, 4, 64, 71
5, 154816, Note_off_c, 4, 56, 0
5, 154816, Note_off_c, 4, 59, 0
5, 154816, Note_off_c, 4, 64, 0
5, 154944, Note_on_c, 4, 56, 71
5, 154944, Note_on_c, 4, 59, 71
5, 154944, Note_on_c, 4, 64, 71
5, 155008, Note_off_c, 4, 56, 0
5, 155008, Note_off_c, 4, 59, 0
5, 155008, Note_off_c, 4, 64, 0
5, 155136, Note_on_c, 4, 56, 71
5, 155136, Note_on_c, 4, 59, 71
5, 155136, Note_on_c, 4, 64, 71
5, 155200, Note_off_c, 4, 56, 0
5, 155200, Note_off_c, 4, 59, 0
5, 155200, Note_off_c, 4, 64, 0
5, 155328, Note_on_c, 4, 56, 71
5, 155328, Note_on_c, 4, 59, 71
5, 155328, Note_on_c, 4, 64, 71
5, 155392, Note_off_c, 4, 56, 0
5, 155392, Note_off_c, 4, 59, 0
5, 155392, Note_off_c, 4, 64, 0
5, 155504, Control_c, 4, 64, 0
5, 155520, Control_c, 4, 64, 127
5, 155520, Note_on_c, 4, 57, 61
5, 155520, Note_on_c, 4, 60, 61
5, 155520, Note_on_c, 4, 64, 61
5, 155584, Note_off_c, 4, 57, 0
5, 155584, Note_off_c, 4, 60, 0
5, 155584, Note_off_c, 4, 64, 0
5, 155712, Note_on_c, 4, 57, 61
5, 155712, Note_on_c, 4, 60, 61
5, 155712, Note_on_c, 4, 64, 61
5, 155776, Note_off_c, 4, 57, 0
5, 155776, Note_off_c, 4, 60, 0
5, 155776, Note_off_c, 4, 64, 0
5, 155904, Note_on_c, 4, 57, 61
5, 155904, Note_on_c, 4, 60, 61
5, 155904, Note_on_c, 4, 64, 61
5, 155968, Note_off_c, 4, 57, 0
5, 155968, Note_off_c, 4, 60, 0
5, 155968, Note_off_c, 4, 64, 0
5, 156096, Note_on_c, 4, 57, 61
5, 156096, Note_on_c, 4, 60, 61
5, 156096, Note_on_c, 4, 64, 61
5, 156160, Note_off_c, 4, 57, 0
5, 156160, Note_off_c, 4, 60, 0
5, 156160, Note_off_c, 4, 64, 0
5, 156288, Note_on_c, 4, 57, 61
5, 156288, Note_on_c, 4, 60, 61
5, 156288, Note_on_c, 4, 64, 61
5, 156352, Note_off_c, 4, 57, 0
5, 156352, Note_off_c, 4, 60, 0
5, 156352, Note_off_c, 4, 64, 0
5, 156480, Note_on_c, 4, 57, 61
5, 156480, Note_on_c, 4, 60, 61
5, 156480, Note_on_c, 4, 64, 61
5, 156544, Note_off_c, 4, 57, 0
5, 156544, Note_off_c, 4, 60, 0
5, 156544, Note_off_c, 4, 64, 0
5, 156656, Control_c, 4, 64, 0
5, 156672, Control_c, 4, 64, 127
5, 156672, Note_on_c, 4, 55, 61
5, 156672, Note_on_c, 4, 60, 61
5, 156672, Note_on_c, 4, 64, 61
5, 156736, Note_off_c, 4, 55, 0
5, 156736, Note_off_c, 4, 60, 0
5, 156736, Note_off_c, 4, 64, 0
5, 156864, Note_on_c, 4, 55, 61
5, 156864, Note_on_c, 4, 60, 61
5, 156864, Note_on_c, 4, 64, 61
5, 156928, Note_off_c, 4, 55, 0
5, 156928, Note_off_c, 4, 60, 0
5, 156928, Note_off_c, 4, 64, 0
5, 157056, Note_on_c, 4, 55, 61
5, 157056, Note_on_c, 4, 60, 61
5, 157056, Note_on_c, 4, 64, 61
5, 157120, Note_off_c, 4, 55, 0
5, 157120, Note_off_c, 4, 60, 0
5, 157120, Note_off_c, 4, 64, 0
5, 157248, Note_on_c, 4, 55, 61
5, 157248, Note_on_c, 4, 60, 61
5, 157248, Note_on_c, 4, 64, 61
5, 157312, Note_off_c, 4, 55, 0
5, 157312, Note_off_c, 4, 60, 0
5, 157312, Note_off_c, 4, 64, 0
5, 157440, Note_on_c, 4, 55, 61
5, 157440, Note_on_c, 4, 60, 61
5, 157440, Note_on_c, 4, 64, 61
5, 157504, Note_off_c, 4, 55, 0
5, 157504, Note_off_c, 4, 60, 0
5, 157504, Note_off_c, 4, 64, 0
5, 157632, Note_on_c, 4, 55, 61
5, 157632, Note_on_c, 4, 60, 61
5, 157632, Note_on_c, 4, 64, 61
5, 157696, Note_off_c, 4, 55, 0
5, 157696, Note_off_c, 4, 60, 0
5, 157696, Note_off_c, 4, 64, 0
5, 157808, Control_c, 4, 64, 0
5, 157824, Control_c, 4, 64, 127
5, 157824, Note_on_c, 4, 57, 61
5, 157824, Note_on_c, 4, 62, 61
5, 157824, Note_on_c, 4, 66, 61
5, 157888, Note_off_c, 4, 57, 0
5, 157888, Note_off_c, 4, 62, 0
5, 157888, Note_off_c, 4, 66, 0
5, 158016, Note_on_c, 4, 57, 61
5, 158016, Note_on_c, 4, 62, 61
5, 158016, Note_on_c, 4, 66, 61
5, 158080, Note_off_c, 4, 57, 0
5, 158080, Note_off_c, 4, 62, 0
5, 158080, Note_off_c, 4, 66, 0
5, 158208, Note_on_c, 4, 57, 61
5, 158208, Note_on_c, 4, 62, 61
5, 158208, Note_on_c, 4, 66, 61
5, 158272, Note_off_c, 4, 57, 0
5, 158272, Note_off_c, 4, 62, 0
5, 158272, Note_off_c, 4, 66, 0
5, 158400, Note_on_c, 4, 57, 61
5, 158400, Note_on_c, 4, 62, 61
5, 158400, Note_on_c, 4, 66, 61
5, 158464, Note_off_c, 4, 57, 0
5, 158464, Note_off_c, 4, 62, 0
5, 158464, Note_off_c, 4, 66, 0
5, 158592, Note_on_c, 4, 57, 61
5, 158592, Note_on_c, 4, 62, 61
5, 158592, Note_on_c, 4, 66, 61
5, 158656, Note_off_c, 4, 57, 0
5, 158656, Note_off_c, 4, 62, 0
5, 158656, Note_off_c, 4, 66, 0
5, 158784, Note_on_c, 4, 57, 61
5, 158784, Note_on_c, 4, 62, 61
5, 158784, Note_on_c, 4, 66, 61
5, 158848, Note_off_c, 4, 57, 0
5, 158848, Note_off_c, 4, 62, 0
5, 158848, Note_off_c, 4, 66, 0
5, 158960, Control_c, 4, 64, 0
5, 158976, Control_c, 4, 64, 127
5, 158976, Note_on_c, 4, 57, 61
5, 158976, Note_on_c, 4, 60, 61
5, 158976, Note_on_c, 4, 65, 61
5, 159040, Note_off_c, 4, 57, 0
5, 159040, Note_off_c, 4, 60, 0
5, 159040, Note_off_c, 4, 65, 0
5, 159168, Note_on_c, 4, 57, 61
5, 159168, Note_on_c, 4, 60, 61
5, 159168, Note_on_c, 4, 65, 61
5, 159232, Note_off_c, 4, 57, 0
5, 159232, Note_off_c, 4, 60, 0
5, 159232, Note_off_c, 4, 65, 0
5, 159360, Note_on_c, 4, 57, 61
5, 159360, Note_on_c, 4, 60, 61
5, 159360, Note_on_c, 4, 65, 61
5, 159424, Note_off_c, 4, 57, 0
5, 159424, Note_off_c, 4, 60, 0
5, 159424, Note_off_c, 4, 65, 0
5, 159552, Note_on_c, 4, 57, 61
5, 159552, Note_on_c, 4, 60, 61
5, 159552, Note_on_c, 4, 65, 61
5, 159632, Note_off_c, 4, 57, 0
5, 159632, Note_off_c, 4, 60, 0
5, 159632, Note_off_c, 4, 65, 0
5, 159744, Note_on_c, 4, 57, 61
5, 159744, Note_on_c, 4, 60, 61
5, 159744, Note_on_c, 4, 65, 61
5, 159808, Note_off_c, 4, 57, 0
5, 159808, Note_off_c, 4, 60, 0
5, 159808, Note_off_c, 4, 65, 0
5, 159936, Note_on_c, 4, 57, 61
5, 159936, Note_on_c, 4, 60, 61
5, 159936, Note_on_c, 4, 65, 61
5, 160000, Note_off_c, 4, 57, 0
5, 160000, Note_off_c, 4, 60, 0
5, 160000, Note_off_c, 4, 65, 0
5, 160112, Control_c, 4, 64, 0
5, 160128, Control_c, 4, 64, 127
5, 160128, Note_on_c, 4, 57, 61
5, 160128, Note_on_c, 4, 60, 61
5, 160128, Note_on_c, 4, 64, 61
5, 160192, Note_off_c, 4, 57, 0
5, 160192, Note_off_c, 4, 60, 0
5, 160192, Note_off_c, 4, 64, 0
5, 160320, Note_on_c, 4, 57, 61
5, 160320, Note_on_c, 4, 60, 61
5, 160320, Note_on_c, 4, 64, 61
5, 160384, Note_off_c, 4, 57, 0
5, 160384, Note_off_c, 4, 60, 0
5, 160384, Note_off_c, 4, 64, 0
5, 160512, Note_on_c, 4, 57, 61
5, 160512, Note_on_c, 4, 60, 61
5, 160512, Note_on_c, 4, 64, 61
5, 160576, Note_off_c, 4, 57, 0
5, 160576, Note_off_c, 4, 60, 0
5, 160576, Note_off_c, 4, 64, 0
5, 160704, Note_on_c, 4, 57, 61
5, 160704, Note_on_c, 4, 60, 61
5, 160704, Note_on_c, 4, 64, 61
5, 160768, Note_off_c, 4, 57, 0
5, 160768, Note_off_c, 4, 60, 0
5, 160768, Note_off_c, 4, 64, 0
5, 160896, Note_on_c, 4, 57, 61
5, 160896, Note_on_c, 4, 60, 61
5, 160896, Note_on_c, 4, 64, 61
5, 160960, Note_off_c, 4, 57, 0
5, 160960, Note_off_c, 4, 60, 0
5, 160960, Note_off_c, 4, 64, 0
5, 161088, Note_on_c, 4, 57, 61
5, 161088, Note_on_c, 4, 60, 61
5, 161088, Note_on_c, 4, 64, 61
5, 161152, Note_off_c, 4, 57, 0
5, 161152, Note_off_c, 4, 60, 0
5, 161152, Note_off_c, 4, 64, 0
5, 161264, Control_c, 4, 64, 0
5, 161280, Control_c, 4, 64, 127
5, 161280, Note_on_c, 4, 56, 61
5, 161280, Note_on_c, 4, 59, 61
5, 161280, Note_on_c, 4, 64, 61
5, 161344, Note_off_c, 4, 56, 0
5, 161344, Note_off_c, 4, 59, 0
5, 161344, Note_off_c, 4, 64, 0
5, 161472, Note_on_c, 4, 56, 61
5, 161472, Note_on_c, 4, 59, 61
5, 161472, Note_on_c, 4, 64, 61
5, 161536, Note_off_c, 4, 56, 0
5, 161536, Note_off_c, 4, 59, 0
5, 161536, Note_off_c, 4, 64, 0
5, 161664, Note_on_c, 4, 56, 61
5, 161664, Note_on_c, 4, 59, 61
5, 161664, Note_on_c, 4, 64, 61
5, 161728, Note_off_c, 4, 56, 0
5, 161728, Note_off_c, 4, 59, 0
5, 161728, Note_off_c, 4, 64, 0
5, 161856, Note_on_c, 4, 56, 61
5, 161856, Note_on_c, 4, 59, 61
5, 161856, Note_on_c, 4, 64, 61
5, 161920, Note_off_c, 4, 56, 0
5, 161920, Note_off_c, 4, 59, 0
5, 161920, Note_off_c, 4, 64, 0
5, 162048, Note_on_c, 4, 56, 61
5, 162048, Note_on_c, 4, 59, 61
5, 162048, Note_on_c, 4, 64, 61
5, 162112, Note_off_c, 4, 56, 0
5, 162112, Note_off_c, 4, 59, 0
5, 162112, Note_off_c, 4, 64, 0
5, 162240, Note_on_c, 4, 56, 61
5, 162240, Note_on_c, 4, 59, 61
5, 162240, Note_on_c, 4, 64, 61
5, 162304, Note_off_c, 4, 56, 0
5, 162304, Note_off_c, 4, 59, 0
5, 162304, Note_off_c, 4, 64, 0
5, 162416, Control_c, 4, 64, 0
5, 162432, Control_c, 4, 64, 127
5, 162432, Note_on_c, 4, 57, 61
5, 162432, Note_on_c, 4, 60, 61
5, 162432, Note_on_c, 4, 64, 61
5, 162496, Note_off_c, 4, 57, 0
5, 162496, Note_off_c, 4, 60, 0
5, 162496, Note_off_c, 4, 64, 0
5, 162624, Note_on_c, 4, 57, 61
5, 162624, Note_on_c, 4, 60, 61
5, 162624, Note_on_c, 4, 64, 61
5, 162688, Note_off_c, 4, 57, 0
5, 162688, Note_off_c, 4, 60, 0
5, 162688, Note_off_c, 4, 64, 0
5, 162816, Note_on_c, 4, 57, 61
5, 162816, Note_on_c, 4, 60, 61
5, 162816, Note_on_c, 4, 64, 61
5, 162880, Note_off_c, 4, 57, 0
5, 162880, Note_off_c, 4, 60, 0
5, 162880, Note_off_c, 4, 64, 0
5, 163008, Note_on_c, 4, 57, 61
5, 163008, Note_on_c, 4, 60, 61
5, 163008, Note_on_c, 4, 64, 61
5, 163072, Note_off_c, 4, 57, 0
5, 163072, Note_off_c, 4, 60, 0
5, 163072, Note_off_c, 4, 64, 0
5, 163200, Note_on_c, 4, 57, 61
5, 163200, Note_on_c, 4, 60, 61
5, 163200, Note_on_c, 4, 64, 61
5, 163264, Note_off_c, 4, 57, 0
5, 163264, Note_off_c, 4, 60, 0
5, 163264, Note_off_c, 4, 64, 0
5, 163392, Note_on_c, 4, 57, 61
5, 163392, Note_on_c, 4, 60, 61
5, 163392, Note_on_c, 4, 64, 61
5, 163456, Note_off_c, 4, 57, 0
5, 163456, Note_off_c, 4, 60, 0
5, 163456, Note_off_c, 4, 64, 0
5, 163568, Control_c, 4, 64, 0
5, 163584, Control_c, 4, 64, 127
5, 163584, Note_on_c, 4, 56, 61
5, 163584, Note_on_c, 4, 59, 61
5, 163584, Note_on_c, 4, 64, 61
5, 163648, Note_off_c, 4, 56, 0
5, 163648, Note_off_c, 4, 59, 0
5, 163648, Note_off_c, 4, 64, 0
5, 163776, Note_on_c, 4, 56, 61
5, 163776, Note_on_c, 4, 59, 61
5, 163776, Note_on_c, 4, 64, 61
5, 163840, Note_off_c, 4, 56, 0
5, 163840, Note_off_c, 4, 59, 0
5, 163840, Note_off_c, 4, 64, 0
5, 163968, Note_on_c, 4, 56, 61
5, 163968, Note_on_c, 4, 59, 61
5, 163968, Note_on_c, 4, 64, 61
5, 164032, Note_off_c, 4, 56, 0
5, 164032, Note_off_c, 4, 59, 0
5, 164032, Note_off_c, 4, 64, 0
5, 164160, Note_on_c, 4, 56, 61
5, 164160, Note_on_c, 4, 59, 61
5, 164160, Note_on_c, 4, 64, 61
5, 164224, Note_off_c, 4, 56, 0
5, 164224, Note_off_c, 4, 59, 0
5, 164224, Note_off_c, 4, 64, 0
5, 164352, Note_on_c, 4, 56, 61
5, 164352, Note_on_c, 4, 59, 61
5, 164352, Note_on_c, 4, 64, 61
5, 164416, Note_off_c, 4, 56, 0
5, 164416, Note_off_c, 4, 59, 0
5, 164416, Note_off_c, 4, 64, 0
5, 164544, Note_on_c, 4, 56, 61
5, 164544, Note_on_c, 4, 59, 61
5, 164544, Note_on_c, 4, 64, 61
5, 164608, Note_off_c, 4, 56, 0
5, 164608, Note_off_c, 4, 59, 0
5, 164608, Note_off_c, 4, 64, 0
5, 164720, Control_c, 4, 64, 0
5, 164736, Control_c, 4, 64, 127
5, 164736, Note_on_c, 4, 57, 71
5, 164736, Note_on_c, 4, 60, 71
5, 164736, Note_on_c, 4, 64, 71
5, 164800, Note_off_c, 4, 57, 0
5, 164800, Note_off_c, 4, 60, 0
5, 164800, Note_off_c, 4, 64, 0
5, 164928, Note_on_c, 4, 57, 71
5, 164928, Note_on_c, 4, 60, 71
5, 164928, Note_on_c, 4, 64, 71
5, 164992, Note_off_c, 4, 57, 0
5, 164992, Note_off_c, 4, 60, 0
5, 164992, Note_off_c, 4, 64, 0
5, 165120, Note_on_c, 4, 57, 71
5, 165120, Note_on_c, 4, 60, 71
5, 165120, Note_on_c, 4, 64, 71
5, 165184, Note_off_c, 4, 57, 0
5, 165184, Note_off_c, 4, 60, 0
5, 165184, Note_off_c, 4, 64, 0
5, 165312, Note_on_c, 4, 57, 71
5, 165312, Note_on_c, 4, 60, 71
5, 165312, Note_on_c, 4, 64, 71
5, 165376, Note_off_c, 4, 57, 0
5, 165376, Note_off_c, 4, 60, 0
5, 165376, Note_off_c, 4, 64, 0
5, 165504, Note_on_c, 4, 57, 71
5, 165504, Note_on_c, 4, 60, 71
5, 165504, Note_on_c, 4, 64, 71
5, 165568, Note_off_c, 4, 57, 0
5, 165568, Note_off_c, 4, 60, 0
5, 165568, Note_off_c, 4, 64, 0
5, 165696, Note_on_c, 4, 57, 71
5, 165696, Note_on_c, 4, 60, 71
5, 165696, Note_on_c, 4, 64, 71
5, 165760, Note_off_c, 4, 57, 0
5, 165760, Note_off_c, 4, 60, 0
5, 165760, Note_off_c, 4, 64, 0
5, 165872, Control_c, 4, 64, 0
5, 165888, Control_c, 4, 64, 127
5, 165888, Note_on_c, 4, 55, 71
5, 165888, Note_on_c, 4, 60, 71
5, 165888, Note_on_c, 4, 64, 71
5, 165952, Note_off_c, 4, 55, 0
5, 165952, Note_off_c, 4, 60, 0
5, 165952, Note_off_c, 4, 64, 0
5, 166080, Note_on_c, 4, 55, 71
5, 166080, Note_on_c, 4, 60, 71
5, 166080, Note_on_c, 4, 64, 71
5, 166144, Note_off_c, 4, 55, 0
5, 166144, Note_off_c, 4, 60, 0
5, 166144, Note_off_c, 4, 64, 0
5, 166272, Note_on_c, 4, 55, 71
5, 166272, Note_on_c, 4, 60, 71
5, 166272, Note_on_c, 4, 64, 71
5, 166336, Note_off_c, 4, 55, 0
5, 166336, Note_off_c, 4, 60, 0
5, 166336, Note_off_c, 4, 64, 0
5, 166464, Note_on_c, 4, 55, 71
5, 166464, Note_on_c, 4, 60, 71
5, 166464, Note_on_c, 4, 64, 71
5, 166528, Note_off_c, 4, 55, 0
5, 166528, Note_off_c, 4, 60, 0
5, 166528, Note_off_c, 4, 64, 0
5, 166656, Note_on_c, 4, 55, 71
5, 166656, Note_on_c, 4, 60, 71
5, 166656, Note_on_c, 4, 64, 71
5, 166720, Note_off_c, 4, 55, 0
5, 166720, Note_off_c, 4, 60, 0
5, 166720, Note_off_c, 4, 64, 0
5, 166848, Note_on_c, 4, 55, 71
5, 166848, Note_on_c, 4, 60, 71
5, 166848, Note_on_c, 4, 64, 71
5, 166912, Note_off_c, 4, 55, 0
5, 166912, Note_off_c, 4, 60, 0
5, 166912, Note_off_c, 4, 64, 0
5, 167024, Control_c, 4, 64, 0
5, 167040, Control_c, 4, 64, 127
5, 167040, Note_on_c, 4, 57, 71
5, 167040, Note_on_c, 4, 62, 71
5, 167040, Note_on_c, 4, 66, 71
5, 167104, Note_off_c, 4, 57, 0
5, 167104, Note_off_c, 4, 62, 0
5, 167104, Note_off_c, 4, 66, 0
5, 167232, Note_on_c, 4, 57, 71
5, 167232, Note_on_c, 4, 62, 71
5, 167232, Note_on_c, 4, 66, 71
5, 167296, Note_off_c, 4, 57, 0
5, 167296, Note_off_c, 4, 62, 0
5, 167296, Note_off_c, 4, 66, 0
5, 167424, Note_on_c, 4, 57, 71
5, 167424, Note_on_c, 4, 62, 71
5, 167424, Note_on_c, 4, 66, 71
5, 167488, Note_off_c, 4, 57, 0
5, 167488, Note_off_c, 4, 62, 0
5, 167488, Note_off_c, 4, 66, 0
5, 167616, Note_on_c, 4, 57, 71
5, 167616, Note_on_c, 4, 62, 71
5, 167616, Note_on_c, 4, 66, 71
5, 167680, Note_off_c, 4, 57, 0
5, 167680, Note_off_c, 4, 62, 0
5, 167680, Note_off_c, 4, 66, 0
5, 167808, Note_on_c, 4, 57, 71
5, 167808, Note_on_c, 4, 62, 71
5, 167808, Note_on_c, 4, 66, 71
5, 167872, Note_off_c, 4, 57, 0
5, 167872, Note_off_c, 4, 62, 0
5, 167872, Note_off_c, 4, 66, 0
5, 168000, Note_on_c, 4, 57, 71
5, 168000, Note_on_c, 4, 62, 71
5, 168000, Note_on_c, 4, 66, 71
5, 168064, Note_off_c, 4, 57, 0
5, 168064, Note_off_c, 4, 62, 0
5, 168064, Note_off_c, 4, 66, 0
5, 168176, Control_c, 4, 64, 0
5, 168192, Control_c, 4, 64, 127
5, 168192, Note_on_c, 4, 57, 71
5, 168192, Note_on_c, 4, 60, 71
5, 168192, Note_on_c, 4, 65, 71
5, 168256, Note_off_c, 4, 57, 0
5, 168256, Note_off_c, 4, 60, 0
5, 168256, Note_off_c, 4, 65, 0
5, 168384, Note_on_c, 4, 57, 71
5, 168384, Note_on_c, 4, 60, 71
5, 168384, Note_on_c, 4, 65, 71
5, 168448, Note_off_c, 4, 57, 0
5, 168448, Note_off_c, 4, 60, 0
5, 168448, Note_off_c, 4, 65, 0
5, 168576, Note_on_c, 4, 57, 71
5, 168576, Note_on_c, 4, 60, 71
5, 168576, Note_on_c, 4, 65, 71
5, 168640, Note_off_c, 4, 57, 0
5, 168640, Note_off_c, 4, 60, 0
5, 168640, Note_off_c, 4, 65, 0
5, 168768, Note_on_c, 4, 57, 71
5, 168768, Note_on_c, 4, 60, 71
5, 168768, Note_on_c, 4, 65, 71
5, 168832, Note_off_c, 4, 57, 0
5, 168832, Note_off_c, 4, 60, 0
5, 168832, Note_off_c, 4, 65, 0
5, 168960, Note_on_c, 4, 57, 71
5, 168960, Note_on_c, 4, 60, 71
5, 168960, Note_on_c, 4, 65, 71
5, 169024, Note_off_c, 4, 57, 0
5, 169024, Note_off_c, 4, 60, 0
5, 169024, Note_off_c, 4, 65, 0
5, 169152, Note_on_c, 4, 57, 71
5, 169152, Note_on_c, 4, 60, 71
5, 169152, Note_on_c, 4, 65, 71
5, 169216, Note_off_c, 4, 57, 0
5, 169216, Note_off_c, 4, 60, 0
5, 169216, Note_off_c, 4, 65, 0
5, 169328, Control_c, 4, 64, 0
5, 169344, Control_c, 4, 64, 127
5, 169344, Note_on_c, 4, 57, 71
5, 169344, Note_on_c, 4, 60, 71
5, 169344, Note_on_c, 4, 64, 71
5, 169408, Note_off_c, 4, 57, 0
5, 169408, Note_off_c, 4, 60, 0
5, 169408, Note_off_c, 4, 64, 0
5, 169536, Note_on_c, 4, 57, 71
5, 169536, Note_on_c, 4, 60, 71
5, 169536, Note_on_c, 4, 64, 71
5, 169600, Note_off_c, 4, 57, 0
5, 169600, Note_off_c, 4, 60, 0
5, 169600, Note_off_c, 4, 64, 0
5, 169728, Note_on_c, 4, 57, 71
5, 169728, Note_on_c, 4, 60, 71
5, 169728, Note_on_c, 4, 64, 71
5, 169792, Note_off_c, 4, 57, 0
5, 169792, Note_off_c, 4, 60, 0
5, 169792, Note_off_c, 4, 64, 0
5, 169920, Note_on_c, 4, 57, 71
5, 169920, Note_on_c, 4, 60, 71
5, 169920, Note_on_c, 4, 64, 71
5, 169984, Note_off_c, 4, 57, 0
5, 169984, Note_off_c, 4, 60, 0
5, 169984, Note_off_c, 4, 64, 0
5, 170112, Note_on_c, 4, 57, 71
5, 170112, Note_on_c, 4, 60, 71
5, 170112, Note_on_c, 4, 64, 71
5, 170176, Note_off_c, 4, 57, 0
5, 170176, Note_off_c, 4, 60, 0
5, 170176, Note_off_c, 4, 64, 0
5, 170304, Note_on_c, 4, 57, 71
5, 170304, Note_on_c, 4, 60, 71
5, 170304, Note_on_c, 4, 64, 71
5, 170368, Note_off_c, 4, 57, 0
5, 170368, Note_off_c, 4, 60, 0
5, 170368, Note_off_c, 4, 64, 0
5, 170480, Control_c, 4, 64, 0
5, 170496, Control_c, 4, 64, 127
5, 170496, Note_on_c, 4, 55, 71
5, 170496, Note_on_c, 4, 60, 71
5, 170496, Note_on_c, 4, 64, 71
5, 170560, Note_off_c, 4, 55, 0
5, 170560, Note_off_c, 4, 60, 0
5, 170560, Note_off_c, 4, 64, 0
5, 170688, Note_on_c, 4, 55, 71
5, 170688, Note_on_c, 4, 60, 71
5, 170688, Note_on_c, 4, 64, 71
5, 170752, Note_off_c, 4, 55, 0
5, 170752, Note_off_c, 4, 60, 0
5, 170752, Note_off_c, 4, 64, 0
5, 170880, Note_on_c, 4, 55, 71
5, 170880, Note_on_c, 4, 60, 71
5, 170880, Note_on_c, 4, 64, 71
5, 170944, Note_off_c, 4, 55, 0
5, 170944, Note_off_c, 4, 60, 0
5, 170944, Note_off_c, 4, 64, 0
5, 171072, Note_on_c, 4, 55, 71
5, 171072, Note_on_c, 4, 60, 71
5, 171072, Note_on_c, 4, 64, 71
5, 171136, Note_off_c, 4, 55, 0
5, 171136, Note_off_c, 4, 60, 0
5, 171136, Note_off_c, 4, 64, 0
5, 171264, Note_on_c, 4, 55, 71
5, 171264, Note_on_c, 4, 60, 71
5, 171264, Note_on_c, 4, 64, 71
5, 171328, Note_off_c, 4, 55, 0
5, 171328, Note_off_c, 4, 60, 0
5, 171328, Note_off_c, 4, 64, 0
5, 171456, Note_on_c, 4, 55, 71
5, 171456, Note_on_c, 4, 60, 71
5, 171456, Note_on_c, 4, 64, 71
5, 171520, Note_off_c, 4, 55, 0
5, 171520, Note_off_c, 4, 60, 0
5, 171520, Note_off_c, 4, 64, 0
5, 171632, Control_c, 4, 64, 0
5, 171648, Control_c, 4, 64, 127
5, 171648, Note_on_c, 4, 56, 71
5, 171648, Note_on_c, 4, 59, 71
5, 171648, Note_on_c, 4, 64, 71
5, 171712, Note_off_c, 4, 56, 0
5, 171712, Note_off_c, 4, 59, 0
5, 171712, Note_off_c, 4, 64, 0
5, 171840, Note_on_c, 4, 56, 71
5, 171840, Note_on_c, 4, 59, 71
5, 171840, Note_on_c, 4, 64, 71
5, 171904, Note_off_c, 4, 56, 0
5, 171904, Note_off_c, 4, 59, 0
5, 171904, Note_off_c, 4, 64, 0
5, 172032, Note_on_c, 4, 56, 71
5, 172032, Note_on_c, 4, 59, 71
5, 172032, Note_on_c, 4, 64, 71
5, 172096, Note_off_c, 4, 56, 0
5, 172096, Note_off_c, 4, 59, 0
5, 172096, Note_off_c, 4, 64, 0
5, 172224, Note_on_c, 4, 56, 71
5, 172224, Note_on_c, 4, 59, 71
5, 172224, Note_on_c, 4, 64, 71
5, 172288, Note_off_c, 4, 56, 0
5, 172288, Note_off_c, 4, 59, 0
5, 172288, Note_off_c, 4, 64, 0
5, 172416, Note_on_c, 4, 56, 71
5, 172416, Note_on_c, 4, 59, 71
5, 172416, Note_on_c, 4, 64, 71
5, 172480, Note_off_c, 4, 56, 0
5, 172480, Note_off_c, 4, 59, 0
5, 172480, Note_off_c, 4, 64, 0
5, 172608, Note_on_c, 4, 56, 71
5, 172608, Note_on_c, 4, 59, 71
5, 172608, Note_on_c, 4, 64, 71
5, 172672, Note_off_c, 4, 56, 0
5, 172672, Note_off_c, 4, 59, 0
5, 172672, Note_off_c, 4, 64, 0
5, 172784, Control_c, 4, 64, 0
5, 172800, Control_c, 4, 64, 127
5, 172800, Note_on_c, 4, 56, 71
5, 172800, Note_on_c, 4, 59, 71
5, 172800, Note_on_c, 4, 64, 71
5, 172880, Note_off_c, 4, 56, 0
5, 172880, Note_off_c, 4, 59, 0
5, 172880, Note_off_c, 4, 64, 0
5, 172992, Note_on_c, 4, 56, 71
5, 172992, Note_on_c, 4, 59, 71
5, 172992, Note_on_c, 4, 64, 71
5, 173056, Note_off_c, 4, 56, 0
5, 173056, Note_off_c, 4, 59, 0
5, 173056, Note_off_c, 4, 64, 0
5, 173184, Note_on_c, 4, 56, 71
5, 173184, Note_on_c, 4, 59, 71
5, 173184, Note_on_c, 4, 64, 71
5, 173248, Note_off_c, 4, 56, 0
5, 173248, Note_off_c, 4, 59, 0
5, 173248, Note_off_c, 4, 64, 0
5, 173376, Note_on_c, 4, 56, 71
5, 173376, Note_on_c, 4, 59, 71
5, 173376, Note_on_c, 4, 64, 71
5, 173440, Note_off_c, 4, 56, 0
5, 173440, Note_off_c, 4, 59, 0
5, 173440, Note_off_c, 4, 64, 0
5, 173568, Note_on_c, 4, 56, 71
5, 173568, Note_on_c, 4, 59, 71
5, 173568, Note_on_c, 4, 64, 71
5, 173632, Note_off_c, 4, 56, 0
5, 173632, Note_off_c, 4, 59, 0
5, 173632, Note_off_c, 4, 64, 0
5, 173760, Note_on_c, 4, 56, 71
5, 173760, Note_on_c, 4, 59, 71
5, 173760, Note_on_c, 4, 64, 71
5, 173824, Note_off_c, 4, 56, 0
5, 173824, Note_off_c, 4, 59, 0
5, 173824, Note_off_c, 4, 64, 0
5, 173936, Control_c, 4, 64, 0
5, 173952, Control_c, 4, 64, 127
5, 173952, Note_on_c, 4, 57, 71
5, 173952, Note_on_c, 4, 60, 71
5, 173952, Note_on_c, 4, 64, 71
5, 174016, Note_off_c, 4, 57, 0
5, 174016, Note_off_c, 4, 60, 0
5, 174016, Note_off_c, 4, 64, 0
5, 174144, Note_on_c, 4, 57, 71
5, 174144, Note_on_c, 4, 60, 71
5, 174144, Note_on_c, 4, 64, 71
5, 174208, Note_off_c, 4, 57, 0
5, 174208, Note_off_c, 4, 60, 0
5, 174208, Note_off_c, 4, 64, 0
5, 174336, Note_on_c, 4, 57, 71
5, 174336, Note_on_c, 4, 60, 71
5, 174336, Note_on_c, 4, 64, 71
5, 174400, Note_off_c, 4, 57, 0
5, 174400, Note_off_c, 4, 60, 0
5, 174400, Note_off_c, 4, 64, 0
5, 174528, Note_on_c, 4, 57, 71
5, 174528, Note_on_c, 4, 60, 71
5, 174528, Note_on_c, 4, 64, 71
5, 174592, Note_off_c, 4, 57, 0
5, 174592, Note_off_c, 4, 60, 0
5, 174592, Note_off_c, 4, 64, 0
5, 174720, Note_on_c, 4, 57, 71
5, 174720, Note_on_c, 4, 60, 71
5, 174720, Note_on_c, 4, 64, 71
5, 174784, Note_off_c, 4, 57, 0
5, 174784, Note_off_c, 4, 60, 0
5, 174784, Note_off_c, 4, 64, 0
5, 174912, Note_on_c, 4, 57, 71
5, 174912, Note_on_c, 4, 60, 71
5, 174912, Note_on_c, 4, 64, 71
5, 174976, Note_off_c, 4, 57, 0
5, 174976, Note_off_c, 4, 60, 0
5, 174976, Note_off_c, 4, 64, 0
5, 175088, Control_c, 4, 64, 0
5, 175104, Control_c, 4, 64, 127
5, 175104, Note_on_c, 4, 55, 71
5, 175104, Note_on_c, 4, 60, 71
5, 175104, Note_on_c, 4, 64, 71
5, 175168, Note_off_c, 4, 55, 0
5, 175168, Note_off_c, 4, 60, 0
5, 175168, Note_off_c, 4, 64, 0
5, 175296, Note_on_c, 4, 55, 71
5, 175296, Note_on_c, 4, 60, 71
5, 175296, Note_on_c, 4, 64, 71
5, 175360, Note_off_c, 4, 55, 0
5, 175360, Note_off_c, 4, 60, 0
5, 175360, Note_off_c, 4, 64, 0
5, 175488, Note_on_c, 4, 55, 71
5, 175488, Note_on_c, 4, 60, 71
5, 175488, Note_on_c, 4, 64, 71
5, 175552, Note_off_c, 4, 55, 0
5, 175552, Note_off_c, 4, 60, 0
5, 175552, Note_off_c, 4, 64, 0
5, 175680, Note_on_c, 4, 55, 71
5, 175680, Note_on_c, 4, 60, 71
5, 175680, Note_on_c, 4, 64, 71
5, 175744, Note_off_c, 4, 55, 0
5, 175744, Note_off_c, 4, 60, 0
5, 175744, Note_off_c, 4, 64, 0
5, 175872, Note_on_c, 4, 55, 71
5, 175872, Note_on_c, 4, 60, 71
5, 175872, Note_on_c, 4, 64, 71
5, 175936, Note_off_c, 4, 55, 0
5, 175936, Note_off_c, 4, 60, 0
5, 175936, Note_off_c, 4, 64, 0
5, 176064, Note_on_c, 4, 55, 71
5, 176064, Note_on_c, 4, 60, 71
5, 176064, Note_on_c, 4, 64, 71
5, 176128, Note_off_c, 4, 55, 0
5, 176128, Note_off_c, 4, 60, 0
5, 176128, Note_off_c, 4, 64, 0
5, 176240, Control_c, 4, 64, 0
5, 176256, Control_c, 4, 64, 127
5, 176256, Note_on_c, 4, 57, 71
5, 176256, Note_on_c, 4, 62, 71
5, 176256, Note_on_c, 4, 66, 71
5, 176320, Note_off_c, 4, 57, 0
5, 176320, Note_off_c, 4, 62, 0
5, 176320, Note_off_c, 4, 66, 0
5, 176448, Note_on_c, 4, 57, 71
5, 176448, Note_on_c, 4, 62, 71
5, 176448, Note_on_c, 4, 66, 71
5, 176512, Note_off_c, 4, 57, 0
5, 176512, Note_off_c, 4, 62, 0
5, 176512, Note_off_c, 4, 66, 0
5, 176640, Note_on_c, 4, 57, 71
5, 176640, Note_on_c, 4, 62, 71
5, 176640, Note_on_c, 4, 66, 71
5, 176704, Note_off_c, 4, 57, 0
5, 176704, Note_off_c, 4, 62, 0
5, 176704, Note_off_c, 4, 66, 0
5, 176832, Note_on_c, 4, 57, 71
5, 176832, Note_on_c, 4, 62, 71
5, 176832, Note_on_c, 4, 66, 71
5, 176896, Note_off_c, 4, 57, 0
5, 176896, Note_off_c, 4, 62, 0
5, 176896, Note_off_c, 4, 66, 0
5, 177024, Note_on_c, 4, 57, 71
5, 177024, Note_on_c, 4, 62, 71
5, 177024, Note_on_c, 4, 66, 71
5, 177088, Note_off_c, 4, 57, 0
5, 177088, Note_off_c, 4, 62, 0
5, 177088, Note_off_c, 4, 66, 0
5, 177216, Note_on_c, 4, 57, 71
5, 177216, Note_on_c, 4, 62, 71
5, 177216, Note_on_c, 4, 66, 71
5, 177280, Note_off_c, 4, 57, 0
5, 177280, Note_off_c, 4, 62, 0
5, 177280, Note_off_c, 4, 66, 0
5, 177392, Control_c, 4, 64, 0
5, 177408, Control_c, 4, 64, 127
5, 177408, Note_on_c, 4, 57, 71
5, 177408, Note_on_c, 4, 60, 71
5, 177408, Note_on_c, 4, 65, 71
5, 177472, Note_off_c, 4, 57, 0
5, 177472, Note_off_c, 4, 60, 0
5, 177472, Note_off_c, 4, 65, 0
5, 177600, Note_on_c, 4, 57, 71
5, 177600, Note_on_c, 4, 60, 71
5, 177600, Note_on_c, 4, 65, 71
5, 177664, Note_off_c, 4, 57, 0
5, 177664, Note_off_c, 4, 60, 0
5, 177664, Note_off_c, 4, 65, 0
5, 177792, Note_on_c, 4, 57, 71
5, 177792, Note_on_c, 4, 60, 71
5, 177792, Note_on_c, 4, 65, 71
5, 177856, Note_off_c, 4, 57, 0
5, 177856, Note_off_c, 4, 60, 0
5, 177856, Note_off_c, 4, 65, 0
5, 177984, Note_on_c, 4, 57, 71
5, 177984, Note_on_c, 4, 60, 71
5, 177984, Note_on_c, 4, 65, 71
5, 178048, Note_off_c, 4, 57, 0
5, 178048, Note_off_c, 4, 60, 0
5, 178048, Note_off_c, 4, 65, 0
5, 178176, Note_on_c, 4, 57, 71
5, 178176, Note_on_c, 4, 60, 71
5, 178176, Note_on_c, 4, 65, 71
5, 178240, Note_off_c, 4, 57, 0
5, 178240, Note_off_c, 4, 60, 0
5, 178240, Note_off_c, 4, 65, 0
5, 178368, Note_on_c, 4, 57, 71
5, 178368, Note_on_c, 4, 60, 71
5, 178368, Note_on_c, 4, 65, 71
5, 178432, Note_off_c, 4, 57, 0
5, 178432, Note_off_c, 4, 60, 0
5, 178432, Note_off_c, 4, 65, 0
5, 178544, Control_c, 4, 64, 0
5, 178560, Control_c, 4, 64, 127
5, 178560, Note_on_c, 4, 57, 71
5, 178560, Note_on_c, 4, 60, 71
5, 178560, Note_on_c, 4, 64, 71
5, 178624, Note_off_c, 4, 57, 0
5, 178624, Note_off_c, 4, 60, 0
5, 178624, Note_off_c, 4, 64, 0
5, 178752, Note_on_c, 4, 57, 71
5, 178752, Note_on_c, 4, 60, 71
5, 178752, Note_on_c, 4, 64, 71
5, 178816, Note_off_c, 4, 57, 0
5, 178816, Note_off_c, 4, 60, 0
5, 178816, Note_off_c, 4, 64, 0
5, 178944, Note_on_c, 4, 57, 71
5, 178944, Note_on_c, 4, 60, 71
5, 178944, Note_on_c, 4, 64, 71
5, 179008, Note_off_c, 4, 57, 0
5, 179008, Note_off_c, 4, 60, 0
5, 179008, Note_off_c, 4, 64, 0
5, 179136, Note_on_c, 4, 57, 71
5, 179136, Note_on_c, 4, 60, 71
5, 179136, Note_on_c, 4, 64, 71
5, 179200, Note_off_c, 4, 57, 0
5, 179200, Note_off_c, 4, 60, 0
5, 179200, Note_off_c, 4, 64, 0
5, 179328, Note_on_c, 4, 57, 71
5, 179328, Note_on_c, 4, 60, 71
5, 179328, Note_on_c, 4, 64, 71
5, 179392, Note_off_c, 4, 57, 0
5, 179392, Note_off_c, 4, 60, 0
5, 179392, Note_off_c, 4, 64, 0
5, 179520, Note_on_c, 4, 57, 71
5, 179520, Note_on_c, 4, 60, 71
5, 179520, Note_on_c, 4, 64, 71
5, 179584, Note_off_c, 4, 57, 0
5, 179584, Note_off_c, 4, 60, 0
5, 179584, Note_off_c, 4, 64, 0
5, 179696, Control_c, 4, 64, 0
5, 179696, Control_c, 4, 64, 127
5, 179696, Note_on_c, 4, 56, 71
5, 179696, Note_on_c, 4, 59, 71
5, 179696, Note_on_c, 4, 64, 71
5, 179736, Note_off_c, 4, 56, 0
5, 179736, Note_off_c, 4, 59, 0
5, 179736, Note_off_c, 4, 64, 0
5, 179860, Note_on_c, 4, 56, 71
5, 179860, Note_on_c, 4, 59, 71
5, 179860, Note_on_c, 4, 64, 71
5, 179924, Note_off_c, 4, 56, 0
5, 179924, Note_off_c, 4, 59, 0
5, 179924, Note_off_c, 4, 64, 0
5, 180052, Note_on_c, 4, 56, 71
5, 180052, Note_on_c, 4, 59, 71
5, 180052, Note_on_c, 4, 64, 71
5, 180116, Note_off_c, 4, 56, 0
5, 180116, Note_off_c, 4, 59, 0
5, 180116, Note_off_c, 4, 64, 0
5, 180244, Note_on_c, 4, 56, 71
5, 180244, Note_on_c, 4, 59, 71
5, 180244, Note_on_c, 4, 64, 71
5, 180308, Note_off_c, 4, 56, 0
5, 180308, Note_off_c, 4, 59, 0
5, 180308, Note_off_c, 4, 64, 0
5, 180436, Note_on_c, 4, 56, 71
5, 180436, Note_on_c, 4, 59, 71
5, 180436, Note_on_c, 4, 64, 71
5, 180500, Note_off_c, 4, 56, 0
5, 180500, Note_off_c, 4, 59, 0
5, 180500, Note_off_c, 4, 64, 0
5, 180628, Note_on_c, 4, 56, 71
5, 180628, Note_on_c, 4, 59, 71
5, 180628, Note_on_c, 4, 64, 71
5, 180692, Note_off_c, 4, 56, 0
5, 180692, Note_off_c, 4, 59, 0
5, 180692, Note_off_c, 4, 64, 0
5, 180804, Control_c, 4, 64, 0
5, 180820, Control_c, 4, 64, 127
5, 180820, Note_on_c, 4, 57, 71
5, 180820, Note_on_c, 4, 60, 71
5, 180820, Note_on_c, 4, 64, 71
5, 180884, Note_off_c, 4, 57, 0
5, 180884, Note_off_c, 4, 60, 0
5, 180884, Note_off_c, 4, 64, 0
5, 181012, Note_on_c, 4, 57, 71
5, 181012, Note_on_c, 4, 60, 71
5, 181012, Note_on_c, 4, 64, 71
5, 181076, Note_off_c, 4, 57, 0
5, 181076, Note_off_c, 4, 60, 0
5, 181076, Note_off_c, 4, 64, 0
5, 181204, Note_on_c, 4, 57, 71
5, 181204, Note_on_c, 4, 60, 71
5, 181204, Note_on_c, 4, 64, 71
5, 181268, Note_off_c, 4, 57, 0
5, 181268, Note_off_c, 4, 60, 0
5, 181268, Note_off_c, 4, 64, 0
5, 181396, Note_on_c, 4, 57, 71
5, 181396, Note_on_c, 4, 60, 71
5, 181396, Note_on_c, 4, 64, 71
5, 181460, Note_off_c, 4, 57, 0
5, 181460, Note_off_c, 4, 60, 0
5, 181460, Note_off_c, 4, 64, 0
5, 181588, Note_on_c, 4, 57, 71
5, 181588, Note_on_c, 4, 60, 71
5, 181588, Note_on_c, 4, 64, 71
5, 181652, Note_off_c, 4, 57, 0
5, 181652, Note_off_c, 4, 60, 0
5, 181652, Note_off_c, 4, 64, 0
5, 181780, Note_on_c, 4, 57, 71
5, 181780, Note_on_c, 4, 60, 71
5, 181780, Note_on_c, 4, 64, 71
5, 181844, Note_off_c, 4, 57, 0
5, 181844, Note_off_c, 4, 60, 0
5, 181844, Note_off_c, 4, 64, 0
5, 181956, Control_c, 4, 64, 0
5, 181972, Control_c, 4, 64, 127
5, 181972, Note_on_c, 4, 55, 71
5, 181972, Note_on_c, 4, 60, 71
5, 181972, Note_on_c, 4, 64, 71
5, 182036, Note_off_c, 4, 55, 0
5, 182036, Note_off_c, 4, 60, 0
5, 182036, Note_off_c, 4, 64, 0
5, 182164, Note_on_c, 4, 55, 71
5, 182164, Note_on_c, 4, 60, 71
5, 182164, Note_on_c, 4, 64, 71
5, 182228, Note_off_c, 4, 55, 0
5, 182228, Note_off_c, 4, 60, 0
5, 182228, Note_off_c, 4, 64, 0
5, 182356, Note_on_c, 4, 55, 71
5, 182356, Note_on_c, 4, 60, 71
5, 182356, Note_on_c, 4, 64, 71
5, 182420, Note_off_c, 4, 55, 0
5, 182420, Note_off_c, 4, 60, 0
5, 182420, Note_off_c, 4, 64, 0
5, 182548, Note_on_c, 4, 55, 71
5, 182548, Note_on_c, 4, 60, 71
5, 182548, Note_on_c, 4, 64, 71
5, 182612, Note_off_c, 4, 55, 0
5, 182612, Note_off_c, 4, 60, 0
5, 182612, Note_off_c, 4, 64, 0
5, 182740, Note_on_c, 4, 55, 71
5, 182740, Note_on_c, 4, 60, 71
5, 182740, Note_on_c, 4, 64, 71
5, 182804, Note_off_c, 4, 55, 0
5, 182804, Note_off_c, 4, 60, 0
5, 182804, Note_off_c, 4, 64, 0
5, 182932, Note_on_c, 4, 55, 71
5, 182932, Note_on_c, 4, 60, 71
5, 182932, Note_on_c, 4, 64, 71
5, 182996, Note_off_c, 4, 55, 0
5, 182996, Note_off_c, 4, 60, 0
5, 182996, Note_off_c, 4, 64, 0
5, 183108, Control_c, 4, 64, 0
5, 183124, Control_c, 4, 64, 127
5, 183124, Note_on_c, 4, 57, 71
5, 183124, Note_on_c, 4, 62, 71
5, 183124, Note_on_c, 4, 66, 71
5, 183188, Note_off_c, 4, 57, 0
5, 183188, Note_off_c, 4, 62, 0
5, 183188, Note_off_c, 4, 66, 0
5, 183316, Note_on_c, 4, 57, 71
5, 183316, Note_on_c, 4, 62, 71
5, 183316, Note_on_c, 4, 66, 71
5, 183380, Note_off_c, 4, 57, 0
5, 183380, Note_off_c, 4, 62, 0
5, 183380, Note_off_c, 4, 66, 0
5, 183508, Note_on_c, 4, 57, 71
5, 183508, Note_on_c, 4, 62, 71
5, 183508, Note_on_c, 4, 66, 71
5, 183572, Note_off_c, 4, 57, 0
5, 183572, Note_off_c, 4, 62, 0
5, 183572, Note_off_c, 4, 66, 0
5, 183700, Note_on_c, 4, 57, 71
5, 183700, Note_on_c, 4, 62, 71
5, 183700, Note_on_c, 4, 66, 71
5, 183764, Note_off_c, 4, 57, 0
5, 183764, Note_off_c, 4, 62, 0
5, 183764, Note_off_c, 4, 66, 0
5, 183892, Note_on_c, 4, 57, 71
5, 183892, Note_on_c, 4, 62, 71
5, 183892, Note_on_c, 4, 66, 71
5, 183956, Note_off_c, 4, 57, 0
5, 183956, Note_off_c, 4, 62, 0
5, 183956, Note_off_c, 4, 66, 0
5, 184084, Note_on_c, 4, 57, 71
5, 184084, Note_on_c, 4, 62, 71
5, 184084, Note_on_c, 4, 66, 71
5, 184148, Note_off_c, 4, 57, 0
5, 184148, Note_off_c, 4, 62, 0
5, 184148, Note_off_c, 4, 66, 0
5, 184260, Control_c, 4, 64, 0
5, 184276, Control_c, 4, 64, 127
5, 184276, Note_on_c, 4, 57, 71
5, 184276, Note_on_c, 4, 60, 71
5, 184276, Note_on_c, 4, 65, 71
5, 184356, Note_off_c, 4, 57, 0
5, 184356, Note_off_c, 4, 60, 0
5, 184356, Note_off_c, 4, 65, 0
5, 184468, Note_on_c, 4, 57, 71
5, 184468, Note_on_c, 4, 60, 71
5, 184468, Note_on_c, 4, 65, 71
5, 184532, Note_off_c, 4, 57, 0
5, 184532, Note_off_c, 4, 60, 0
5, 184532, Note_off_c, 4, 65, 0
5, 184660, Note_on_c, 4, 57, 71
5, 184660, Note_on_c, 4, 60, 71
5, 184660, Note_on_c, 4, 65, 71
5, 184724, Note_off_c, 4, 57, 0
5, 184724, Note_off_c, 4, 60, 0
5, 184724, Note_off_c, 4, 65, 0
5, 184852, Note_on_c, 4, 57, 71
5, 184852, Note_on_c, 4, 60, 71
5, 184852, Note_on_c, 4, 65, 71
5, 184932, Note_off_c, 4, 57, 0
5, 184932, Note_off_c, 4, 60, 0
5, 184932, Note_off_c, 4, 65, 0
5, 185044, Note_on_c, 4, 57, 71
5, 185044, Note_on_c, 4, 60, 71
5, 185044, Note_on_c, 4, 65, 71
5, 185108, Note_off_c, 4, 57, 0
5, 185108, Note_off_c, 4, 60, 0
5, 185108, Note_off_c, 4, 65, 0
5, 185236, Note_on_c, 4, 57, 71
5, 185236, Note_on_c, 4, 60, 71
5, 185236, Note_on_c, 4, 65, 71
5, 185300, Note_off_c, 4, 57, 0
5, 185300, Note_off_c, 4, 60, 0
5, 185300, Note_off_c, 4, 65, 0
5, 185412, Control_c, 4, 64, 0
5, 185428, Control_c, 4, 64, 127
5, 185428, Note_on_c, 4, 57, 71
5, 185428, Note_on_c, 4, 60, 71
5, 185428, Note_on_c, 4, 64, 71
5, 185508, Note_off_c, 4, 57, 0
5, 185508, Note_off_c, 4, 60, 0
5, 185508, Note_off_c, 4, 64, 0
5, 185620, Note_on_c, 4, 57, 71
5, 185620, Note_on_c, 4, 60, 71
5, 185620, Note_on_c, 4, 64, 71
5, 185684, Note_off_c, 4, 57, 0
5, 185684, Note_off_c, 4, 60, 0
5, 185684, Note_off_c, 4, 64, 0
5, 185812, Note_on_c, 4, 57, 71
5, 185812, Note_on_c, 4, 60, 71
5, 185812, Note_on_c, 4, 64, 71
5, 185876, Note_off_c, 4, 57, 0
5, 185876, Note_off_c, 4, 60, 0
5, 185876, Note_off_c, 4, 64, 0
5, 186004, Note_on_c, 4, 57, 71
5, 186004, Note_on_c, 4, 60, 71
5, 186004, Note_on_c, 4, 64, 71
5, 186068, Note_off_c, 4, 57, 0
5, 186068, Note_off_c, 4, 60, 0
5, 186068, Note_off_c, 4, 64, 0
5, 186196, Note_on_c, 4, 57, 71
5, 186196, Note_on_c, 4, 60, 71
5, 186196, Note_on_c, 4, 64, 71
5, 186260, Note_off_c, 4, 57, 0
5, 186260, Note_off_c, 4, 60, 0
5, 186260, Note_off_c, 4, 64, 0
5, 186388, Note_on_c, 4, 57, 71
5, 186388, Note_on_c, 4, 60, 71
5, 186388, Note_on_c, 4, 64, 71
5, 186452, Note_off_c, 4, 57, 0
5, 186452, Note_off_c, 4, 60, 0
5, 186452, Note_off_c, 4, 64, 0
5, 186564, Control_c, 4, 64, 0
5, 186580, Control_c, 4, 64, 127
5, 186580, Note_on_c, 4, 56, 71
5, 186580, Note_on_c, 4, 59, 71
5, 186580, Note_on_c, 4, 64, 71
5, 186644, Note_off_c, 4, 56, 0
5, 186644, Note_off_c, 4, 59, 0
5, 186644, Note_off_c, 4, 64, 0
5, 186772, Note_on_c, 4, 56, 71
5, 186772, Note_on_c, 4, 59, 71
5, 186772, Note_on_c, 4, 64, 71
5, 186836, Note_off_c, 4, 56, 0
5, 186836, Note_off_c, 4, 59, 0
5, 186836, Note_off_c, 4, 64, 0
5, 186964, Note_on_c, 4, 56, 71
5, 186964, Note_on_c, 4, 59, 71
5, 186964, Note_on_c, 4, 64, 71
5, 187028, Note_off_c, 4, 56, 0
5, 187028, Note_off_c, 4, 59, 0
5, 187028, Note_off_c, 4, 64, 0
5, 187156, Note_on_c, 4, 56, 71
5, 187156, Note_on_c, 4, 59, 71
5, 187156, Note_on_c, 4, 64, 71
5, 187220, Note_off_c, 4, 56, 0
5, 187220, Note_off_c, 4, 59, 0
5, 187220, Note_off_c, 4, 64, 0
5, 187348, Note_on_c, 4, 56, 71
5, 187348, Note_on_c, 4, 59, 71
5, 187348, Note_on_c, 4, 64, 71
5, 187412, Note_off_c, 4, 56, 0
5, 187412, Note_off_c, 4, 59, 0
5, 187412, Note_off_c, 4, 64, 0
5, 187540, Note_on_c, 4, 56, 71
5, 187540, Note_on_c, 4, 59, 71
5, 187540, Note_on_c, 4, 64, 71
5, 187604, Note_off_c, 4, 56, 0
5, 187604, Note_off_c, 4, 59, 0
5, 187604, Note_off_c, 4, 64, 0
5, 187716, Control_c, 4, 64, 0
5, 187732, Note_on_c, 4, 45, 61
5, 187732, Control_c, 4, 64, 127
5, 187732, Note_on_c, 4, 57, 61
5, 187732, Note_on_c, 4, 60, 61
5, 187732, Note_on_c, 4, 64, 61
5, 187796, Note_off_c, 4, 45, 0
5, 187796, Note_off_c, 4, 57, 0
5, 187796, Note_off_c, 4, 60, 0
5, 187796, Note_off_c, 4, 64, 0
5, 188308, Note_on_c, 4, 45, 61
5, 188308, Note_on_c, 4, 57, 61
5, 188308, Note_on_c, 4, 60, 61
5, 188308, Note_on_c, 4, 64, 61
5, 188372, Note_off_c, 4, 45, 0
5, 188372, Note_off_c, 4, 57, 0
5, 188372, Note_off_c, 4, 60, 0
5, 188372, Note_off_c, 4, 64, 0
5, 188868, Control_c, 4, 64, 0
5, 188884, Control_c, 4, 64, 127
5, 188884, Note_on_c, 4, 50, 61
5, 188884, Note_on_c, 4, 57, 61
5, 188884, Note_on_c, 4, 62, 61
5, 188884, Note_on_c, 4, 65, 61
5, 188948, Note_off_c, 4, 50, 0
5, 188948, Note_off_c, 4, 57, 0
5, 188948, Note_off_c, 4, 62, 0
5, 188948, Note_off_c, 4, 65, 0
5, 189460, Note_on_c, 4, 50, 61
5, 189460, Note_on_c, 4, 57, 61
5, 189460, Note_on_c, 4, 62, 61
5, 189460, Note_on_c, 4, 65, 61
5, 189524, Note_off_c, 4, 50, 0
5, 189524, Note_off_c, 4, 57, 0
5, 189524, Note_off_c, 4, 62, 0
5, 189524, Note_off_c, 4, 65, 0
5, 190020, Control_c, 4, 64, 0
5, 190036, Control_c, 4, 64, 127
5, 190036, Note_on_c, 4, 45, 61
5, 190036, Note_on_c, 4, 57, 61
5, 190036, Note_on_c, 4, 60, 61
5, 190036, Note_on_c, 4, 64, 61
5, 190100, Note_off_c, 4, 45, 0
5, 190100, Note_off_c, 4, 57, 0
5, 190100, Note_off_c, 4, 60, 0
5, 190100, Note_off_c, 4, 64, 0
5, 190612, Note_on_c, 4, 45, 61
5, 190612, Note_on_c, 4, 57, 61
5, 190612, Note_on_c, 4, 60, 61
5, 190612, Note_on_c, 4, 64, 61
5, 190676, Note_off_c, 4, 45, 0
5, 190676, Note_off_c, 4, 57, 0
5, 190676, Note_off_c, 4, 60, 0
5, 190676, Note_off_c, 4, 64, 0
5, 191172, Control_c, 4, 64, 0
5, 191188, Control_c, 4, 64, 127
5, 191188, Note_on_c, 4, 50, 61
5, 191188, Note_on_c, 4, 57, 61
5, 191188, Note_on_c, 4, 62, 61
5, 191188, Note_on_c, 4, 65, 61
5, 191252, Note_off_c, 4, 50, 0
5, 191252, Note_off_c, 4, 57, 0
5, 191252, Note_off_c, 4, 62, 0
5, 191252, Note_off_c, 4, 65, 0
5, 191764, Note_on_c, 4, 50, 61
5, 191764, Note_on_c, 4, 57, 61
5, 191764, Note_on_c, 4, 62, 61
5, 191764, Note_on_c, 4, 65, 61
5, 191828, Note_off_c, 4, 50, 0
5, 191828, Note_off_c, 4, 57, 0
5, 191828, Note_off_c, 4, 62, 0
5, 191828, Note_off_c, 4, 65, 0
5, 192324, Control_c, 4, 64, 0
5, 192340, Control_c, 4, 64, 127
5, 192340, Note_on_c, 4, 45, 61
5, 192340, Note_on_c, 4, 57, 61
5, 192340, Note_on_c, 4, 60, 61
5, 192340, Note_on_c, 4, 64, 61
5, 192404, Note_off_c, 4, 45, 0
5, 192404, Note_off_c, 4, 57, 0
5, 192404, Note_off_c, 4, 60, 0
5, 192404, Note_off_c, 4, 64, 0
5, 193476, Control_c, 4, 64, 0
5, 193492, Control_c, 4, 64, 127
5, 193492, Note_on_c, 4, 50, 61
5, 193492, Note_on_c, 4, 57, 61
5, 193492, Note_on_c, 4, 62, 61
5, 193492, Note_on_c, 4, 65, 61
5, 193556, Note_off_c, 4, 50, 0
5, 193556, Note_off_c, 4, 57, 0
5, 193556, Note_off_c, 4, 62, 0
5, 193556, Note_off_c, 4, 65, 0
5, 194628, Control_c, 4, 64, 0
5, 194644, Control_c, 4, 64, 127
5, 194644, Note_on_c, 4, 45, 61
5, 194644, Note_on_c, 4, 57, 61
5, 194644, Note_on_c, 4, 60, 61
5, 194644, Note_on_c, 4, 64, 61
5, 194708, Note_off_c, 4, 45, 0
5, 194708, Note_off_c, 4, 57, 0
5, 194708, Note_off_c, 4, 60, 0
5, 194708, Note_off_c, 4, 64, 0
5, 195780, Control_c, 4, 64, 0
5, 195796, Control_c, 4, 64, 127
5, 195796, Note_on_c, 4, 50, 61
5, 195796, Note_on_c, 4, 57, 61
5, 195796, Note_on_c, 4, 62, 61
5, 195796, Note_on_c, 4, 65, 61
5, 195860, Note_off_c, 4, 50, 0
5, 195860, Note_off_c, 4, 57, 0
5, 195860, Note_off_c, 4, 62, 0
5, 195860, Note_off_c, 4, 65, 0
5, 196932, Control_c, 4, 64, 0
5, 196948, Control_c, 4, 64, 127
5, 196948, Note_on_c, 4, 45, 61
5, 196948, Note_on_c, 4, 57, 61
5, 196948, Note_on_c, 4, 60, 61
5, 196948, Note_on_c, 4, 64, 61
5, 197012, Note_off_c, 4, 45, 0
5, 197012, Note_off_c, 4, 57, 0
5, 197012, Note_off_c, 4, 60, 0
5, 197012, Note_off_c, 4, 64, 0
5, 197524, Note_on_c, 4, 45, 61
5, 197524, Note_on_c, 4, 57, 61
5, 197524, Note_on_c, 4, 60, 61
5, 197524, Note_on_c, 4, 64, 61
5, 197588, Note_off_c, 4, 45, 0
5, 197588, Note_off_c, 4, 57, 0
5, 197588, Note_off_c, 4, 60, 0
5, 197588, Note_off_c, 4, 64, 0
5, 198084, Control_c, 4, 64, 0
5, 198100, Control_c, 4, 64, 127
5, 198100, Note_on_c, 4, 50, 61
5, 198100, Note_on_c, 4, 57, 61
5, 198100, Note_on_c, 4, 62, 61
5, 198100, Note_on_c, 4, 65, 61
5, 198164, Note_off_c, 4, 50, 0
5, 198164, Note_off_c, 4, 57, 0
5, 198164, Note_off_c, 4, 62, 0
5, 198164, Note_off_c, 4, 65, 0
5, 198676, Note_on_c, 4, 50, 61
5, 198676, Note_on_c, 4, 57, 61
5, 198676, Note_on_c, 4, 62, 61
5, 198676, Note_on_c, 4, 65, 61
5, 198740, Note_off_c, 4, 50, 0
5, 198740, Note_off_c, 4, 57, 0
5, 198740, Note_off_c, 4, 62, 0
5, 198740, Note_off_c, 4, 65, 0
5, 199236, Control_c, 4, 64, 0
5, 199252, Note_on_c, 4, 45, 61
5, 199252, Note_on_c, 4, 57, 61
5, 199252, Note_on_c, 4, 60, 61
5, 199252, Note_on_c, 4, 64, 61
5, 202708, Note_off_c, 4, 45, 0
5, 202708, Note_off_c, 4, 57, 0
5, 202708, Note_off_c, 4, 60, 0
5, 202708, Note_off_c, 4, 64, 0
5, 202708, End_track
6, 0, Start_track
6, 0, Title_t, "ChrchOrg         "
6, 0, Control_c, 0, 32, 0
6, 0, Control_c, 5, 0, 0
6, 0, Program_c, 5, 19
6, 0, Control_c, 5, 7, 127
6, 0, Control_c, 5, 10, 0
6, 0, Control_c, 5, 91, 127
6, 0, Control_c, 5, 93, 127
6, 0, Key_signature, 0, "major"
6, 4576, Control_c, 5, 1, 32
6, 28784, Note_on_c, 5, 57, 72
6, 28784, Note_on_c, 5, 52, 72
6, 29936, Note_off_c, 5, 52, 0
6, 29936, Note_off_c, 5, 57, 0
6, 29936, Note_on_c, 5, 60, 72
6, 29936, Note_on_c, 5, 55, 72
6, 31088, Note_off_c, 5, 55, 0
6, 31088, Note_off_c, 5, 60, 0
6, 31088, Note_on_c, 5, 62, 72
6, 31088, Note_on_c, 5, 57, 72
6, 32240, Note_off_c, 5, 57, 0
6, 32240, Note_off_c, 5, 62, 0
6, 32240, Note_on_c, 5, 65, 72
6, 32240, Note_on_c, 5, 60, 72
6, 33392, Note_off_c, 5, 60, 0
6, 33392, Note_off_c, 5, 65, 0
6, 33392, Note_on_c, 5, 57, 72
6, 33488, Note_on_c, 5, 64, 72
6, 33584, Note_off_c, 5, 57, 0
6, 33584, Note_on_c, 5, 69, 72
6, 33584, Note_on_c, 5, 57, 97
6, 33648, Note_off_c, 5, 64, 0
6, 33680, Note_on_c, 5, 64, 72
6, 33744, Note_off_c, 5, 69, 0
6, 33744, Note_off_c, 5, 57, 0
6, 33776, Note_on_c, 5, 69, 72
6, 33776, Note_on_c, 5, 60, 97
6, 33840, Note_off_c, 5, 64, 0
6, 33872, Note_on_c, 5, 64, 72
6, 33936, Note_off_c, 5, 69, 0
6, 33936, Note_off_c, 5, 60, 0
6, 33968, Note_off_c, 5, 64, 0
6, 33968, Note_on_c, 5, 69, 72
6, 33968, Note_on_c, 5, 64, 97
6, 34032, Note_off_c, 5, 64, 0
6, 34064, Note_on_c, 5, 64, 72
6, 34128, Note_off_c, 5, 69, 0
6, 34128, Note_off_c, 5, 64, 0
6, 34160, Note_on_c, 5, 69, 72
6, 34160, Note_on_c, 5, 60, 97
6, 34256, Note_on_c, 5, 64, 72
6, 34320, Note_off_c, 5, 69, 0
6, 34320, Note_off_c, 5, 60, 0
6, 34352, Note_on_c, 5, 69, 72
6, 34352, Note_on_c, 5, 57, 97
6, 34416, Note_off_c, 5, 64, 0
6, 34448, Note_on_c, 5, 64, 72
6, 34512, Note_off_c, 5, 69, 0
6, 34512, Note_off_c, 5, 57, 0
6, 34544, Note_on_c, 5, 52, 72
6, 34608, Note_off_c, 5, 64, 0
6, 34640, Note_on_c, 5, 64, 72
6, 34736, Note_on_c, 5, 68, 72
6, 34736, Note_on_c, 5, 56, 97
6, 34800, Note_off_c, 5, 64, 0
6, 34832, Note_on_c, 5, 64, 72
6, 34896, Note_off_c, 5, 68, 0
6, 34896, Note_off_c, 5, 56, 0
6, 34928, Note_on_c, 5, 68, 72
6, 34928, Note_on_c, 5, 59, 97
6, 34992, Note_off_c, 5, 64, 0
6, 35024, Note_on_c, 5, 64, 72
6, 35088, Note_off_c, 5, 68, 0
6, 35088, Note_off_c, 5, 59, 0
6, 35120, Note_on_c, 5, 68, 72
6, 35120, Note_on_c, 5, 62, 97
6, 35184, Note_off_c, 5, 64, 0
6, 35216, Note_on_c, 5, 64, 72
6, 35280, Note_off_c, 5, 68, 0
6, 35280, Note_off_c, 5, 62, 0
6, 35312, Note_on_c, 5, 68, 72
6, 35312, Note_on_c, 5, 59, 97
6, 35376, Note_off_c, 5, 64, 0
6, 35408, Note_on_c, 5, 64, 72
6, 35472, Note_off_c, 5, 68, 0
6, 35472, Note_off_c, 5, 59, 0
6, 35504, Note_on_c, 5, 68, 72
6, 35504, Note_on_c, 5, 56, 97
6, 35568, Note_off_c, 5, 64, 0
6, 35600, Note_on_c, 5, 64, 72
6, 35664, Note_off_c, 5, 52, 0
6, 35664, Note_off_c, 5, 68, 0
6, 35664, Note_off_c, 5, 56, 0
6, 35696, Note_on_c, 5, 57, 72
6, 35760, Note_off_c, 5, 64, 0
6, 35792, Note_on_c, 5, 64, 72
6, 35888, Note_off_c, 5, 57, 0
6, 35888, Note_on_c, 5, 69, 72
6, 35888, Note_on_c, 5, 57, 97
6, 35952, Note_off_c, 5, 64, 0
6, 35984, Note_on_c, 5, 64, 72
6, 36048, Note_off_c, 5, 69, 0
6, 36048, Note_off_c, 5, 57, 0
6, 36080, Note_on_c, 5, 69, 72
6, 36080, Note_on_c, 5, 60, 97
6, 36144, Note_off_c, 5, 64, 0
6, 36176, Note_on_c, 5, 64, 72
6, 36240, Note_off_c, 5, 69, 0
6, 36240, Note_off_c, 5, 60, 0
6, 36272, Note_off_c, 5, 64, 0
6, 36272, Note_on_c, 5, 69, 72
6, 36272, Note_on_c, 5, 64, 97
6, 36336, Note_off_c, 5, 64, 0
6, 36368, Note_on_c, 5, 64, 72
6, 36432, Note_off_c, 5, 69, 0
6, 36432, Note_off_c, 5, 64, 0
6, 36464, Note_on_c, 5, 69, 72
6, 36464, Note_on_c, 5, 60, 97
6, 36560, Note_on_c, 5, 64, 72
6, 36624, Note_off_c, 5, 69, 0
6, 36624, Note_off_c, 5, 60, 0
6, 36656, Note_on_c, 5, 69, 72
6, 36656, Note_on_c, 5, 57, 97
6, 36720, Note_off_c, 5, 64, 0
6, 36752, Note_on_c, 5, 64, 72
6, 36816, Note_off_c, 5, 69, 0
6, 36816, Note_off_c, 5, 57, 0
6, 36848, Note_on_c, 5, 52, 72
6, 36912, Note_off_c, 5, 64, 0
6, 36944, Note_on_c, 5, 64, 72
6, 37040, Note_on_c, 5, 68, 72
6, 37040, Note_on_c, 5, 56, 97
6, 37104, Note_off_c, 5, 64, 0
6, 37136, Note_on_c, 5, 64, 72
6, 37200, Note_off_c, 5, 68, 0
6, 37200, Note_off_c, 5, 56, 0
6, 37232, Note_on_c, 5, 68, 72
6, 37232, Note_on_c, 5, 59, 97
6, 37296, Note_off_c, 5, 64, 0
6, 37328, Note_on_c, 5, 64, 72
6, 37392, Note_off_c, 5, 68, 0
6, 37392, Note_off_c, 5, 59, 0
6, 37424, Note_on_c, 5, 68, 72
6, 37424, Note_on_c, 5, 62, 97
6, 37488, Note_off_c, 5, 64, 0
6, 37520, Note_on_c, 5, 64, 72
6, 37584, Note_off_c, 5, 68, 0
6, 37584, Note_off_c, 5, 62, 0
6, 37616, Note_on_c, 5, 68, 72
6, 37616, Note_on_c, 5, 59, 97
6, 37680, Note_off_c, 5, 64, 0
6, 37712, Note_on_c, 5, 64, 72
6, 37776, Note_off_c, 5, 68, 0
6, 37776, Note_off_c, 5, 59, 0
6, 37808, Note_on_c, 5, 68, 72
6, 37808, Note_on_c, 5, 56, 97
6, 37872, Note_off_c, 5, 52, 0
6, 37872, Note_off_c, 5, 64, 0
6, 37904, Note_on_c, 5, 64, 72
6, 37968, Note_off_c, 5, 68, 0
6, 37968, Note_off_c, 5, 56, 0
6, 38000, Note_off_c, 5, 64, 0
6, 38000, Note_on_c, 5, 60, 72
6, 38000, Note_on_c, 5, 57, 72
6, 38000, Note_on_c, 5, 52, 72
6, 38000, Note_on_c, 5, 45, 72
6, 39152, Note_off_c, 5, 45, 0
6, 39152, Note_off_c, 5, 57, 0
6, 39152, Note_on_c, 5, 55, 72
6, 39152, Note_on_c, 5, 48, 72
6, 40304, Note_off_c, 5, 48, 0
6, 40304, Note_off_c, 5, 52, 0
6, 40304, Note_off_c, 5, 55, 0
6, 40304, Note_off_c, 5, 60, 0
6, 40304, Note_on_c, 5, 62, 72
6, 40304, Note_on_c, 5, 57, 72
6, 40304, Note_on_c, 5, 50, 72
6, 41456, Note_off_c, 5, 50, 0
6, 41456, Note_off_c, 5, 57, 0
6, 41456, Note_off_c, 5, 62, 0
6, 41456, Note_on_c, 5, 65, 72
6, 41456, Note_on_c, 5, 63, 72
6, 41456, Note_on_c, 5, 60, 72
6, 41456, Note_on_c, 5, 53, 72
6, 42608, Note_off_c, 5, 53, 0
6, 42608, Note_off_c, 5, 60, 0
6, 42608, Note_off_c, 5, 63, 0
6, 42608, Note_off_c, 5, 65, 0
6, 42608, Note_on_c, 5, 64, 72
6, 42608, Note_on_c, 5, 60, 72
6, 42608, Note_on_c, 5, 57, 72
6, 42608, Note_on_c, 5, 45, 72
6, 43760, Note_off_c, 5, 45, 0
6, 43760, Note_off_c, 5, 57, 0
6, 43760, Note_on_c, 5, 55, 72
6, 43760, Note_on_c, 5, 48, 72
6, 44816, Note_off_c, 5, 60, 0
6, 44816, Note_off_c, 5, 64, 0
6, 44912, Note_off_c, 5, 48, 0
6, 44912, Note_off_c, 5, 55, 0
6, 44912, Note_on_c, 5, 52, 72
6, 45104, Note_on_c, 5, 59, 78
6, 45104, Note_on_c, 5, 56, 103
6, 45280, Note_off_c, 5, 59, 0
6, 45280, Note_off_c, 5, 56, 0
6, 45296, Note_on_c, 5, 60, 78
6, 45296, Note_on_c, 5, 57, 103
6, 45440, Note_off_c, 5, 57, 0
6, 45488, Note_off_c, 5, 60, 0
6, 45488, Note_on_c, 5, 62, 78
6, 45488, Note_on_c, 5, 57, 103
6, 45504, Note_on_c, 5, 59, 103
6, 45536, Note_off_c, 5, 57, 0
6, 45584, Note_off_c, 5, 62, 0
6, 45616, Note_off_c, 5, 59, 0
6, 45664, Note_on_c, 5, 59, 103
6, 45680, Note_on_c, 5, 62, 78
6, 46048, Note_off_c, 5, 59, 0
6, 46048, Note_off_c, 5, 62, 0
6, 46048, Note_on_c, 5, 57, 103
6, 46064, Note_on_c, 5, 62, 78
6, 46064, Note_on_c, 5, 59, 103
6, 46128, Note_off_c, 5, 57, 0
6, 46176, Note_off_c, 5, 59, 0
6, 46256, Note_off_c, 5, 62, 0
6, 46256, Note_on_c, 5, 62, 78
6, 46256, Note_on_c, 5, 59, 103
6, 46640, Note_on_c, 5, 57, 103
6, 46656, Note_off_c, 5, 59, 0
6, 46736, Note_off_c, 5, 57, 0
6, 46736, Note_on_c, 5, 56, 103
6, 46808, Note_off_c, 5, 52, 0
6, 46832, Note_off_c, 5, 56, 0
6, 46832, Note_on_c, 5, 52, 103
6, 46928, Note_off_c, 5, 52, 0
6, 47024, Note_on_c, 5, 52, 103
6, 47120, Note_off_c, 5, 52, 0
6, 47216, Note_off_c, 5, 62, 0
6, 47216, Note_on_c, 5, 64, 72
6, 47216, Note_on_c, 5, 60, 72
6, 47216, Note_on_c, 5, 57, 72
6, 48272, Note_off_c, 5, 57, 0
6, 48368, Note_on_c, 5, 55, 72
6, 49488, Note_off_c, 5, 64, 0
6, 49520, Note_off_c, 5, 55, 0
6, 49520, Note_off_c, 5, 60, 0
6, 49520, Note_on_c, 5, 62, 72
6, 49520, Note_on_c, 5, 57, 72
6, 49520, Note_on_c, 5, 54, 72
6, 49520, Note_on_c, 5, 50, 72
6, 50672, Note_off_c, 5, 50, 0
6, 50672, Note_off_c, 5, 54, 0
6, 50672, Note_off_c, 5, 57, 0
6, 50672, Note_off_c, 5, 62, 0
6, 50672, Note_on_c, 5, 65, 72
6, 50672, Note_on_c, 5, 60, 72
6, 50672, Note_on_c, 5, 57, 72
6, 50672, Note_on_c, 5, 53, 72
6, 51744, Note_off_c, 5, 53, 0
6, 51744, Note_off_c, 5, 57, 0
6, 51744, Note_off_c, 5, 60, 0
6, 51744, Note_off_c, 5, 65, 0
6, 51824, Note_on_c, 5, 64, 72
6, 51824, Note_on_c, 5, 60, 72
6, 51824, Note_on_c, 5, 57, 72
6, 51824, Note_on_c, 5, 45, 72
6, 52976, Note_off_c, 5, 45, 0
6, 52976, Note_off_c, 5, 57, 0
6, 52976, Note_off_c, 5, 60, 0
6, 52976, Note_on_c, 5, 56, 72
6, 52976, Note_on_c, 5, 52, 72
6, 52976, Note_on_c, 5, 40, 72
6, 54128, Note_off_c, 5, 40, 0
6, 54128, Note_off_c, 5, 52, 0
6, 54128, Note_off_c, 5, 56, 0
6, 54128, Note_off_c, 5, 64, 0
6, 54224, Note_on_c, 5, 57, 92
6, 54224, Note_on_c, 5, 52, 92
6, 54320, Note_off_c, 5, 57, 0
6, 54320, Note_on_c, 5, 57, 92
6, 54400, Note_off_c, 5, 52, 0
6, 54416, Note_off_c, 5, 57, 0
6, 54416, Note_on_c, 5, 52, 92
6, 54512, Note_on_c, 5, 60, 92
6, 54592, Note_off_c, 5, 52, 0
6, 54608, Note_on_c, 5, 52, 92
6, 54688, Note_off_c, 5, 60, 0
6, 54704, Note_on_c, 5, 64, 92
6, 54784, Note_off_c, 5, 52, 0
6, 54800, Note_on_c, 5, 52, 92
6, 54880, Note_off_c, 5, 64, 0
6, 54896, Note_on_c, 5, 60, 92
6, 54976, Note_off_c, 5, 52, 0
6, 54992, Note_on_c, 5, 52, 92
6, 55072, Note_off_c, 5, 60, 0
6, 55088, Note_on_c, 5, 57, 92
6, 55168, Note_off_c, 5, 52, 0
6, 55264, Note_off_c, 5, 57, 0
6, 55376, Note_on_c, 5, 55, 92
6, 55376, Note_on_c, 5, 52, 92
6, 55472, Note_off_c, 5, 55, 0
6, 55472, Note_on_c, 5, 55, 92
6, 55552, Note_off_c, 5, 52, 0
6, 55568, Note_off_c, 5, 55, 0
6, 55568, Note_on_c, 5, 52, 92
6, 55664, Note_on_c, 5, 60, 92
6, 55744, Note_off_c, 5, 52, 0
6, 55760, Note_on_c, 5, 52, 92
6, 55840, Note_off_c, 5, 60, 0
6, 55856, Note_on_c, 5, 64, 92
6, 55936, Note_off_c, 5, 52, 0
6, 55952, Note_on_c, 5, 52, 92
6, 56032, Note_off_c, 5, 64, 0
6, 56048, Note_on_c, 5, 60, 92
6, 56128, Note_off_c, 5, 52, 0
6, 56144, Note_on_c, 5, 52, 92
6, 56224, Note_off_c, 5, 60, 0
6, 56240, Note_on_c, 5, 55, 92
6, 56320, Note_off_c, 5, 52, 0
6, 56320, Note_off_c, 5, 55, 0
6, 56432, Note_on_c, 5, 50, 72
6, 56528, Note_on_c, 5, 57, 92
6, 56608, Note_off_c, 5, 57, 0
6, 56624, Note_on_c, 5, 54, 94
6, 56720, Note_on_c, 5, 57, 92
6, 56800, Note_off_c, 5, 54, 0
6, 56800, Note_off_c, 5, 57, 0
6, 56816, Note_on_c, 5, 57, 94
6, 56912, Note_off_c, 5, 57, 0
6, 56912, Note_on_c, 5, 57, 92
6, 56992, Note_off_c, 5, 57, 0
6, 57008, Note_on_c, 5, 62, 94
6, 57104, Note_on_c, 5, 57, 92
6, 57184, Note_off_c, 5, 62, 0
6, 57184, Note_off_c, 5, 57, 0
6, 57200, Note_on_c, 5, 57, 94
6, 57296, Note_off_c, 5, 57, 0
6, 57296, Note_on_c, 5, 57, 92
6, 57376, Note_off_c, 5, 57, 0
6, 57392, Note_on_c, 5, 54, 94
6, 57488, Note_on_c, 5, 57, 92
6, 57568, Note_off_c, 5, 50, 0
6, 57568, Note_off_c, 5, 54, 0
6, 57568, Note_off_c, 5, 57, 0
6, 57584, Note_on_c, 5, 53, 72
6, 57680, Note_on_c, 5, 57, 92
6, 57760, Note_off_c, 5, 57, 0
6, 57776, Note_on_c, 5, 57, 94
6, 57872, Note_off_c, 5, 57, 0
6, 57872, Note_on_c, 5, 57, 92
6, 57952, Note_off_c, 5, 57, 0
6, 57968, Note_on_c, 5, 60, 94
6, 58064, Note_on_c, 5, 57, 92
6, 58144, Note_off_c, 5, 60, 0
6, 58144, Note_off_c, 5, 57, 0
6, 58160, Note_on_c, 5, 65, 94
6, 58256, Note_on_c, 5, 57, 92
6, 58336, Note_off_c, 5, 65, 0
6, 58336, Note_off_c, 5, 57, 0
6, 58352, Note_on_c, 5, 60, 94
6, 58448, Note_on_c, 5, 57, 92
6, 58528, Note_off_c, 5, 60, 0
6, 58528, Note_off_c, 5, 57, 0
6, 58544, Note_on_c, 5, 57, 94
6, 58624, Note_off_c, 5, 53, 0
6, 58640, Note_on_c, 5, 53, 92
6, 58720, Note_off_c, 5, 57, 0
6, 58720, Note_off_c, 5, 53, 0
6, 58736, Note_on_c, 5, 57, 72
6, 58832, Note_on_c, 5, 64, 72
6, 58928, Note_off_c, 5, 57, 0
6, 58928, Note_on_c, 5, 69, 72
6, 58928, Note_on_c, 5, 57, 97
6, 58992, Note_off_c, 5, 64, 0
6, 59024, Note_on_c, 5, 64, 72
6, 59088, Note_off_c, 5, 69, 0
6, 59088, Note_off_c, 5, 57, 0
6, 59120, Note_on_c, 5, 69, 72
6, 59120, Note_on_c, 5, 60, 97
6, 59184, Note_off_c, 5, 64, 0
6, 59216, Note_on_c, 5, 64, 72
6, 59280, Note_off_c, 5, 69, 0
6, 59280, Note_off_c, 5, 60, 0
6, 59312, Note_off_c, 5, 64, 0
6, 59312, Note_on_c, 5, 69, 72
6, 59312, Note_on_c, 5, 64, 97
6, 59376, Note_off_c, 5, 64, 0
6, 59408, Note_on_c, 5, 64, 72
6, 59472, Note_off_c, 5, 69, 0
6, 59472, Note_off_c, 5, 64, 0
6, 59504, Note_on_c, 5, 69, 72
6, 59504, Note_on_c, 5, 60, 97
6, 59600, Note_on_c, 5, 64, 72
6, 59664, Note_off_c, 5, 69, 0
6, 59664, Note_off_c, 5, 60, 0
6, 59696, Note_on_c, 5, 69, 72
6, 59696, Note_on_c, 5, 57, 97
6, 59760, Note_off_c, 5, 64, 0
6, 59792, Note_on_c, 5, 64, 72
6, 59856, Note_off_c, 5, 69, 0
6, 59856, Note_off_c, 5, 57, 0
6, 59888, Note_on_c, 5, 52, 72
6, 59952, Note_off_c, 5, 64, 0
6, 59984, Note_on_c, 5, 64, 72
6, 60080, Note_on_c, 5, 68, 72
6, 60080, Note_on_c, 5, 56, 97
6, 60144, Note_off_c, 5, 64, 0
6, 60176, Note_on_c, 5, 64, 72
6, 60240, Note_off_c, 5, 68, 0
6, 60240, Note_off_c, 5, 56, 0
6, 60272, Note_on_c, 5, 68, 72
6, 60272, Note_on_c, 5, 59, 97
6, 60336, Note_off_c, 5, 64, 0
6, 60368, Note_on_c, 5, 64, 72
6, 60432, Note_off_c, 5, 68, 0
6, 60432, Note_off_c, 5, 59, 0
6, 60464, Note_on_c, 5, 68, 72
6, 60464, Note_on_c, 5, 62, 97
6, 60528, Note_off_c, 5, 64, 0
6, 60560, Note_on_c, 5, 64, 72
6, 60624, Note_off_c, 5, 68, 0
6, 60624, Note_off_c, 5, 62, 0
6, 60656, Note_on_c, 5, 68, 72
6, 60656, Note_on_c, 5, 59, 97
6, 60720, Note_off_c, 5, 64, 0
6, 60752, Note_on_c, 5, 64, 72
6, 60816, Note_off_c, 5, 68, 0
6, 60816, Note_off_c, 5, 59, 0
6, 60848, Note_on_c, 5, 68, 72
6, 60848, Note_on_c, 5, 56, 97
6, 60912, Note_off_c, 5, 64, 0
6, 60944, Note_on_c, 5, 64, 72
6, 61008, Note_off_c, 5, 52, 0
6, 61008, Note_off_c, 5, 68, 0
6, 61008, Note_off_c, 5, 56, 0
6, 61040, Note_on_c, 5, 57, 72
6, 61104, Note_off_c, 5, 64, 0
6, 61136, Note_on_c, 5, 64, 72
6, 61232, Note_off_c, 5, 57, 0
6, 61232, Note_on_c, 5, 69, 72
6, 61232, Note_on_c, 5, 57, 97
6, 61296, Note_off_c, 5, 64, 0
6, 61328, Note_on_c, 5, 64, 72
6, 61392, Note_off_c, 5, 69, 0
6, 61392, Note_off_c, 5, 57, 0
6, 61424, Note_on_c, 5, 69, 72
6, 61424, Note_on_c, 5, 60, 97
6, 61488, Note_off_c, 5, 64, 0
6, 61520, Note_on_c, 5, 64, 72
6, 61584, Note_off_c, 5, 69, 0
6, 61584, Note_off_c, 5, 60, 0
6, 61616, Note_off_c, 5, 64, 0
6, 61616, Note_on_c, 5, 69, 72
6, 61616, Note_on_c, 5, 64, 97
6, 61680, Note_off_c, 5, 64, 0
6, 61712, Note_on_c, 5, 64, 72
6, 61776, Note_off_c, 5, 69, 0
6, 61776, Note_off_c, 5, 64, 0
6, 61808, Note_on_c, 5, 69, 72
6, 61808, Note_on_c, 5, 60, 97
6, 61904, Note_on_c, 5, 64, 72
6, 61968, Note_off_c, 5, 69, 0
6, 61968, Note_off_c, 5, 60, 0
6, 62000, Note_on_c, 5, 69, 72
6, 62000, Note_on_c, 5, 57, 97
6, 62064, Note_off_c, 5, 64, 0
6, 62096, Note_on_c, 5, 64, 72
6, 62160, Note_off_c, 5, 69, 0
6, 62160, Note_off_c, 5, 57, 0
6, 62192, Note_on_c, 5, 52, 72
6, 62256, Note_off_c, 5, 64, 0
6, 62288, Note_on_c, 5, 64, 72
6, 62384, Note_on_c, 5, 62, 103
6, 62384, Note_on_c, 5, 56, 97
6, 62448, Note_off_c, 5, 64, 0
6, 62560, Note_off_c, 5, 56, 0
6, 62576, Note_on_c, 5, 57, 103
6, 62752, Note_off_c, 5, 62, 0
6, 62752, Note_off_c, 5, 57, 0
6, 62768, Note_on_c, 5, 62, 103
6, 62768, Note_on_c, 5, 59, 103
6, 63232, Note_off_c, 5, 52, 0
6, 63328, Note_off_c, 5, 62, 0
6, 63328, Note_off_c, 5, 59, 0
6, 63344, Note_on_c, 5, 60, 72
6, 63344, Note_on_c, 5, 57, 72
6, 63344, Note_on_c, 5, 52, 72
6, 63344, Note_on_c, 5, 45, 72
6, 64496, Note_off_c, 5, 45, 0
6, 64496, Note_off_c, 5, 57, 0
6, 64496, Note_on_c, 5, 55, 72
6, 64496, Note_on_c, 5, 48, 72
6, 65648, Note_off_c, 5, 48, 0
6, 65648, Note_off_c, 5, 52, 0
6, 65648, Note_off_c, 5, 55, 0
6, 65648, Note_off_c, 5, 60, 0
6, 65648, Note_on_c, 5, 62, 72
6, 65648, Note_on_c, 5, 57, 72
6, 65648, Note_on_c, 5, 50, 72
6, 66800, Note_off_c, 5, 50, 0
6, 66800, Note_off_c, 5, 57, 0
6, 66800, Note_off_c, 5, 62, 0
6, 66800, Note_on_c, 5, 65, 72
6, 66800, Note_on_c, 5, 63, 72
6, 66800, Note_on_c, 5, 60, 72
6, 66800, Note_on_c, 5, 53, 72
6, 67952, Note_off_c, 5, 53, 0
6, 67952, Note_off_c, 5, 60, 0
6, 67952, Note_off_c, 5, 63, 0
6, 67952, Note_off_c, 5, 65, 0
6, 67952, Note_on_c, 5, 64, 72
6, 67952, Note_on_c, 5, 60, 72
6, 67952, Note_on_c, 5, 57, 72
6, 67952, Note_on_c, 5, 45, 72
6, 69104, Note_off_c, 5, 45, 0
6, 69104, Note_off_c, 5, 57, 0
6, 69104, Note_on_c, 5, 55, 72
6, 69104, Note_on_c, 5, 48, 72
6, 70160, Note_off_c, 5, 60, 0
6, 70160, Note_off_c, 5, 64, 0
6, 70256, Note_off_c, 5, 48, 0
6, 70256, Note_off_c, 5, 55, 0
6, 70256, Note_on_c, 5, 52, 72
6, 70448, Note_on_c, 5, 59, 78
6, 70448, Note_on_c, 5, 56, 103
6, 70624, Note_off_c, 5, 59, 0
6, 70624, Note_off_c, 5, 56, 0
6, 70640, Note_on_c, 5, 60, 78
6, 70640, Note_on_c, 5, 57, 103
6, 70784, Note_off_c, 5, 57, 0
6, 70832, Note_off_c, 5, 60, 0
6, 70832, Note_on_c, 5, 57, 103
6, 70832, Note_on_c, 5, 62, 78
6, 70848, Note_on_c, 5, 59, 103
6, 70880, Note_off_c, 5, 57, 0
6, 70928, Note_off_c, 5, 62, 0
6, 70960, Note_off_c, 5, 59, 0
6, 71008, Note_on_c, 5, 59, 103
6, 71024, Note_on_c, 5, 62, 78
6, 71392, Note_off_c, 5, 59, 0
6, 71392, Note_off_c, 5, 62, 0
6, 71392, Note_on_c, 5, 57, 103
6, 71408, Note_on_c, 5, 62, 78
6, 71408, Note_on_c, 5, 59, 103
6, 71472, Note_off_c, 5, 57, 0
6, 71520, Note_off_c, 5, 59, 0
6, 71600, Note_off_c, 5, 62, 0
6, 71600, Note_on_c, 5, 62, 78
6, 71600, Note_on_c, 5, 59, 103
6, 71984, Note_on_c, 5, 57, 103
6, 72000, Note_off_c, 5, 59, 0
6, 72080, Note_off_c, 5, 57, 0
6, 72080, Note_on_c, 5, 56, 103
6, 72160, Note_off_c, 5, 52, 0
6, 72176, Note_off_c, 5, 56, 0
6, 72176, Note_on_c, 5, 52, 103
6, 72272, Note_off_c, 5, 52, 0
6, 72368, Note_on_c, 5, 52, 103
6, 72464, Note_off_c, 5, 52, 0
6, 72560, Note_off_c, 5, 62, 0
6, 72560, Note_on_c, 5, 64, 72
6, 72560, Note_on_c, 5, 60, 72
6, 72560, Note_on_c, 5, 57, 72
6, 73632, Note_off_c, 5, 57, 0
6, 73712, Note_on_c, 5, 55, 72
6, 74784, Note_off_c, 5, 64, 0
6, 74864, Note_off_c, 5, 55, 0
6, 74864, Note_off_c, 5, 60, 0
6, 74864, Note_on_c, 5, 62, 72
6, 74864, Note_on_c, 5, 57, 72
6, 74864, Note_on_c, 5, 54, 72
6, 74864, Note_on_c, 5, 50, 72
6, 76016, Note_off_c, 5, 50, 0
6, 76016, Note_off_c, 5, 54, 0
6, 76016, Note_off_c, 5, 57, 0
6, 76016, Note_off_c, 5, 62, 0
6, 76016, Note_on_c, 5, 65, 72
6, 76016, Note_on_c, 5, 60, 72
6, 76016, Note_on_c, 5, 57, 72
6, 76016, Note_on_c, 5, 53, 72
6, 77088, Note_off_c, 5, 53, 0
6, 77088, Note_off_c, 5, 57, 0
6, 77088, Note_off_c, 5, 60, 0
6, 77088, Note_off_c, 5, 65, 0
6, 77168, Note_on_c, 5, 64, 72
6, 77168, Note_on_c, 5, 60, 72
6, 77168, Note_on_c, 5, 57, 72
6, 77168, Note_on_c, 5, 45, 72
6, 78320, Note_off_c, 5, 45, 0
6, 78320, Note_off_c, 5, 57, 0
6, 78320, Note_off_c, 5, 60, 0
6, 78320, Note_on_c, 5, 56, 72
6, 78320, Note_on_c, 5, 52, 72
6, 78320, Note_on_c, 5, 40, 72
6, 79376, Note_off_c, 5, 40, 0
6, 79392, Note_off_c, 5, 52, 0
6, 79472, Note_off_c, 5, 56, 0
6, 79472, Note_off_c, 5, 64, 0
6, 79568, Note_on_c, 5, 57, 92
6, 79568, Note_on_c, 5, 52, 92
6, 79664, Note_off_c, 5, 57, 0
6, 79664, Note_on_c, 5, 57, 92
6, 79744, Note_off_c, 5, 52, 0
6, 79760, Note_off_c, 5, 57, 0
6, 79760, Note_on_c, 5, 52, 92
6, 79856, Note_on_c, 5, 60, 92
6, 79936, Note_off_c, 5, 52, 0
6, 79952, Note_on_c, 5, 52, 92
6, 80032, Note_off_c, 5, 60, 0
6, 80048, Note_on_c, 5, 64, 92
6, 80128, Note_off_c, 5, 52, 0
6, 80144, Note_on_c, 5, 52, 92
6, 80224, Note_off_c, 5, 64, 0
6, 80240, Note_on_c, 5, 60, 92
6, 80320, Note_off_c, 5, 52, 0
6, 80336, Note_on_c, 5, 52, 92
6, 80416, Note_off_c, 5, 60, 0
6, 80432, Note_on_c, 5, 57, 92
6, 80512, Note_off_c, 5, 52, 0
6, 80608, Note_off_c, 5, 57, 0
6, 80720, Note_on_c, 5, 55, 92
6, 80720, Note_on_c, 5, 52, 92
6, 80816, Note_off_c, 5, 55, 0
6, 80816, Note_on_c, 5, 55, 92
6, 80896, Note_off_c, 5, 52, 0
6, 80912, Note_off_c, 5, 55, 0
6, 80912, Note_on_c, 5, 52, 92
6, 81008, Note_on_c, 5, 60, 92
6, 81088, Note_off_c, 5, 52, 0
6, 81104, Note_on_c, 5, 52, 92
6, 81184, Note_off_c, 5, 60, 0
6, 81200, Note_on_c, 5, 64, 92
6, 81280, Note_off_c, 5, 52, 0
6, 81296, Note_on_c, 5, 52, 92
6, 81376, Note_off_c, 5, 64, 0
6, 81392, Note_on_c, 5, 60, 92
6, 81472, Note_off_c, 5, 52, 0
6, 81488, Note_on_c, 5, 52, 92
6, 81568, Note_off_c, 5, 60, 0
6, 81584, Note_on_c, 5, 55, 92
6, 81664, Note_off_c, 5, 52, 0
6, 81664, Note_off_c, 5, 55, 0
6, 81776, Note_on_c, 5, 50, 72
6, 81872, Note_on_c, 5, 57, 92
6, 81952, Note_off_c, 5, 57, 0
6, 81968, Note_on_c, 5, 54, 94
6, 82064, Note_on_c, 5, 57, 92
6, 82144, Note_off_c, 5, 54, 0
6, 82144, Note_off_c, 5, 57, 0
6, 82160, Note_on_c, 5, 57, 94
6, 82256, Note_off_c, 5, 57, 0
6, 82256, Note_on_c, 5, 57, 92
6, 82336, Note_off_c, 5, 57, 0
6, 82352, Note_on_c, 5, 62, 94
6, 82448, Note_on_c, 5, 57, 92
6, 82528, Note_off_c, 5, 62, 0
6, 82528, Note_off_c, 5, 57, 0
6, 82544, Note_on_c, 5, 57, 94
6, 82640, Note_off_c, 5, 57, 0
6, 82640, Note_on_c, 5, 57, 92
6, 82720, Note_off_c, 5, 57, 0
6, 82736, Note_on_c, 5, 54, 94
6, 82832, Note_on_c, 5, 57, 92
6, 82912, Note_off_c, 5, 50, 0
6, 82912, Note_off_c, 5, 54, 0
6, 82912, Note_off_c, 5, 57, 0
6, 82928, Note_on_c, 5, 53, 72
6, 83024, Note_on_c, 5, 57, 92
6, 83104, Note_off_c, 5, 57, 0
6, 83120, Note_on_c, 5, 57, 94
6, 83216, Note_off_c, 5, 57, 0
6, 83216, Note_on_c, 5, 57, 92
6, 83296, Note_off_c, 5, 57, 0
6, 83312, Note_on_c, 5, 60, 94
6, 83408, Note_on_c, 5, 57, 92
6, 83488, Note_off_c, 5, 60, 0
6, 83488, Note_off_c, 5, 57, 0
6, 83504, Note_on_c, 5, 65, 94
6, 83600, Note_on_c, 5, 57, 92
6, 83680, Note_off_c, 5, 65, 0
6, 83680, Note_off_c, 5, 57, 0
6, 83696, Note_on_c, 5, 60, 94
6, 83792, Note_on_c, 5, 57, 92
6, 83872, Note_off_c, 5, 60, 0
6, 83872, Note_off_c, 5, 57, 0
6, 83888, Note_on_c, 5, 57, 94
6, 83968, Note_off_c, 5, 53, 0
6, 83984, Note_on_c, 5, 53, 92
6, 84064, Note_off_c, 5, 57, 0
6, 84064, Note_off_c, 5, 53, 0
6, 84080, Note_on_c, 5, 57, 72
6, 84176, Note_on_c, 5, 64, 72
6, 84272, Note_off_c, 5, 57, 0
6, 84272, Note_on_c, 5, 69, 72
6, 84272, Note_on_c, 5, 57, 97
6, 84336, Note_off_c, 5, 64, 0
6, 84368, Note_on_c, 5, 64, 72
6, 84432, Note_off_c, 5, 69, 0
6, 84432, Note_off_c, 5, 57, 0
6, 84464, Note_on_c, 5, 69, 72
6, 84464, Note_on_c, 5, 60, 97
6, 84528, Note_off_c, 5, 64, 0
6, 84560, Note_on_c, 5, 64, 72
6, 84624, Note_off_c, 5, 69, 0
6, 84624, Note_off_c, 5, 60, 0
6, 84656, Note_off_c, 5, 64, 0
6, 84656, Note_on_c, 5, 69, 72
6, 84656, Note_on_c, 5, 64, 97
6, 84720, Note_off_c, 5, 64, 0
6, 84752, Note_on_c, 5, 64, 72
6, 84816, Note_off_c, 5, 69, 0
6, 84816, Note_off_c, 5, 64, 0
6, 84848, Note_on_c, 5, 69, 72
6, 84848, Note_on_c, 5, 60, 97
6, 84944, Note_on_c, 5, 64, 72
6, 85008, Note_off_c, 5, 69, 0
6, 85008, Note_off_c, 5, 60, 0
6, 85040, Note_on_c, 5, 69, 72
6, 85040, Note_on_c, 5, 57, 97
6, 85104, Note_off_c, 5, 64, 0
6, 85136, Note_on_c, 5, 64, 72
6, 85200, Note_off_c, 5, 69, 0
6, 85200, Note_off_c, 5, 57, 0
6, 85232, Note_on_c, 5, 52, 72
6, 85296, Note_off_c, 5, 64, 0
6, 85328, Note_on_c, 5, 64, 72
6, 85424, Note_on_c, 5, 62, 103
6, 85424, Note_on_c, 5, 56, 97
6, 85488, Note_off_c, 5, 64, 0
6, 85600, Note_off_c, 5, 56, 0
6, 85616, Note_on_c, 5, 57, 103
6, 85792, Note_off_c, 5, 62, 0
6, 85792, Note_off_c, 5, 57, 0
6, 85808, Note_on_c, 5, 62, 103
6, 85808, Note_on_c, 5, 59, 103
6, 86272, Note_off_c, 5, 52, 0
6, 86368, Note_off_c, 5, 62, 0
6, 86368, Note_off_c, 5, 59, 0
6, 86384, Note_on_c, 5, 57, 72
6, 86576, Note_off_c, 5, 57, 0
6, 86576, Note_on_c, 5, 69, 72
6, 86576, Note_on_c, 5, 57, 103
6, 86752, Note_off_c, 5, 69, 0
6, 86752, Note_off_c, 5, 57, 0
6, 86768, Note_on_c, 5, 69, 72
6, 86768, Note_on_c, 5, 60, 103
6, 86944, Note_off_c, 5, 69, 0
6, 86944, Note_off_c, 5, 60, 0
6, 86960, Note_on_c, 5, 69, 72
6, 86960, Note_on_c, 5, 64, 103
6, 87424, Note_off_c, 5, 64, 0
6, 87520, Note_off_c, 5, 69, 0
6, 87520, Note_on_c, 5, 62, 115
6, 87536, Note_on_c, 5, 56, 84
6, 87552, Note_on_c, 5, 64, 115
6, 87568, Note_off_c, 5, 62, 0
6, 87680, Note_off_c, 5, 64, 0
6, 87728, Note_on_c, 5, 64, 115
6, 87728, Note_on_c, 5, 62, 115
6, 87744, Note_off_c, 5, 62, 0
6, 88208, Note_off_c, 5, 64, 0
6, 88208, Note_on_c, 5, 64, 123
6, 88272, Note_on_c, 5, 69, 123
6, 88288, Note_off_c, 5, 64, 0
6, 88400, Note_on_c, 5, 64, 123
6, 88432, Note_off_c, 5, 69, 0
6, 88480, Note_on_c, 5, 71, 123
6, 88544, Note_off_c, 5, 64, 0
6, 88576, Note_on_c, 5, 64, 123
6, 88624, Note_off_c, 5, 71, 0
6, 88672, Note_off_c, 5, 56, 0
6, 88688, Note_off_c, 5, 64, 0
6, 88688, Note_on_c, 5, 72, 118
6, 89632, Note_off_c, 5, 72, 0
6, 89648, Note_on_c, 5, 74, 118
6, 89664, Note_on_c, 5, 76, 118
6, 89712, Note_off_c, 5, 74, 0
6, 89816, Note_off_c, 5, 76, 0
6, 89824, Note_on_c, 5, 74, 118
6, 89840, Note_on_c, 5, 76, 118
6, 89904, Note_off_c, 5, 74, 0
6, 90584, Note_off_c, 5, 76, 0
6, 90592, Note_on_c, 5, 74, 118
6, 90608, Note_on_c, 5, 76, 118
6, 90640, Note_off_c, 5, 74, 0
6, 90752, Note_off_c, 5, 76, 0
6, 90784, Note_on_c, 5, 74, 118
6, 90800, Note_on_c, 5, 76, 118
6, 90832, Note_off_c, 5, 74, 0
6, 90960, Note_off_c, 5, 76, 0
6, 90992, Note_on_c, 5, 74, 118
6, 91056, Note_off_c, 5, 74, 0
6, 91056, Note_on_c, 5, 72, 118
6, 91136, Note_on_c, 5, 69, 118
6, 91168, Note_off_c, 5, 72, 0
6, 91728, Note_off_c, 5, 69, 0
6, 91760, Note_on_c, 5, 69, 118
6, 91952, Note_off_c, 5, 69, 0
6, 91952, Note_on_c, 5, 67, 118
6, 92144, Note_off_c, 5, 67, 0
6, 92144, Note_on_c, 5, 69, 118
6, 92888, Note_off_c, 5, 69, 0
6, 92912, Note_on_c, 5, 79, 118
6, 92928, Note_on_c, 5, 81, 118
6, 92944, Note_off_c, 5, 79, 0
6, 93072, Note_off_c, 5, 81, 0
6, 93088, Note_on_c, 5, 79, 118
6, 93104, Note_on_c, 5, 81, 118
6, 93152, Note_off_c, 5, 79, 0
6, 93280, Note_off_c, 5, 81, 0
6, 93296, Note_on_c, 5, 79, 118
6, 93312, Note_on_c, 5, 81, 118
6, 93328, Note_off_c, 5, 79, 0
6, 94048, Note_off_c, 5, 81, 0
6, 94080, Note_on_c, 5, 81, 118
6, 94232, Note_off_c, 5, 81, 0
6, 94272, Note_on_c, 5, 81, 118
6, 94424, Note_off_c, 5, 81, 0
6, 94448, Note_on_c, 5, 81, 118
6, 94512, Note_off_c, 5, 81, 0
6, 94512, Note_on_c, 5, 79, 118
6, 95216, Note_off_c, 5, 79, 0
6, 95216, Note_on_c, 5, 76, 118
6, 95408, Note_on_c, 5, 74, 118
6, 95424, Note_off_c, 5, 76, 0
6, 95520, Note_off_c, 5, 74, 0
6, 95600, Note_on_c, 5, 75, 118
6, 95648, Note_off_c, 5, 75, 0
6, 95648, Note_on_c, 5, 76, 118
6, 95696, Note_off_c, 5, 76, 0
6, 95696, Note_on_c, 5, 79, 118
6, 95792, Note_off_c, 5, 79, 0
6, 95792, Note_on_c, 5, 75, 118
6, 95840, Note_off_c, 5, 75, 0
6, 95840, Note_on_c, 5, 76, 118
6, 95888, Note_off_c, 5, 76, 0
6, 95888, Note_on_c, 5, 79, 118
6, 95984, Note_off_c, 5, 79, 0
6, 95984, Note_on_c, 5, 75, 118
6, 96032, Note_off_c, 5, 75, 0
6, 96032, Note_on_c, 5, 76, 118
6, 96080, Note_off_c, 5, 76, 0
6, 96080, Note_on_c, 5, 79, 118
6, 96176, Note_off_c, 5, 79, 0
6, 96176, Note_on_c, 5, 75, 118
6, 96224, Note_off_c, 5, 75, 0
6, 96224, Note_on_c, 5, 76, 118
6, 96272, Note_off_c, 5, 76, 0
6, 96272, Note_on_c, 5, 79, 118
6, 96368, Note_off_c, 5, 79, 0
6, 96368, Note_on_c, 5, 75, 118
6, 96416, Note_off_c, 5, 75, 0
6, 96416, Note_on_c, 5, 76, 118
6, 96464, Note_off_c, 5, 76, 0
6, 96464, Note_on_c, 5, 79, 118
6, 96560, Note_off_c, 5, 79, 0
6, 96560, Note_on_c, 5, 75, 118
6, 96608, Note_off_c, 5, 75, 0
6, 96608, Note_on_c, 5, 76, 118
6, 96656, Note_off_c, 5, 76, 0
6, 96656, Note_on_c, 5, 79, 118
6, 96752, Note_off_c, 5, 79, 0
6, 96752, Note_on_c, 5, 75, 118
6, 96800, Note_off_c, 5, 75, 0
6, 96800, Note_on_c, 5, 76, 118
6, 96848, Note_off_c, 5, 76, 0
6, 96848, Note_on_c, 5, 79, 118
6, 96944, Note_off_c, 5, 79, 0
6, 96944, Note_on_c, 5, 75, 118
6, 96992, Note_off_c, 5, 75, 0
6, 96992, Note_on_c, 5, 76, 118
6, 97040, Note_off_c, 5, 76, 0
6, 97040, Note_on_c, 5, 79, 118
6, 97136, Note_off_c, 5, 79, 0
6, 97136, Note_on_c, 5, 75, 118
6, 97184, Note_off_c, 5, 75, 0
6, 97184, Note_on_c, 5, 76, 118
6, 97232, Note_off_c, 5, 76, 0
6, 97232, Note_on_c, 5, 79, 118
6, 97328, Note_off_c, 5, 79, 0
6, 97344, Note_on_c, 5, 74, 118
6, 97440, Note_on_c, 5, 72, 118
6, 97456, Note_off_c, 5, 74, 0
6, 97504, Note_off_c, 5, 72, 0
6, 97504, Note_on_c, 5, 69, 118
6, 98664, Note_off_c, 5, 69, 0
6, 98672, Note_on_c, 5, 74, 118
6, 98704, Note_on_c, 5, 76, 118
6, 98736, Note_off_c, 5, 74, 0
6, 98832, Note_off_c, 5, 76, 0
6, 98864, Note_on_c, 5, 74, 118
6, 98880, Note_on_c, 5, 76, 118
6, 98944, Note_off_c, 5, 74, 0
6, 99024, Note_off_c, 5, 76, 0
6, 99072, Note_on_c, 5, 74, 118
6, 99088, Note_on_c, 5, 76, 118
6, 99104, Note_off_c, 5, 74, 0
6, 99824, Note_off_c, 5, 76, 0
6, 99824, Note_on_c, 5, 74, 118
6, 99840, Note_on_c, 5, 76, 118
6, 99888, Note_off_c, 5, 74, 0
6, 100008, Note_off_c, 5, 76, 0
6, 100032, Note_on_c, 5, 74, 118
6, 100048, Note_on_c, 5, 76, 118
6, 100064, Note_off_c, 5, 74, 0
6, 100216, Note_off_c, 5, 76, 0
6, 100224, Note_on_c, 5, 74, 118
6, 100288, Note_on_c, 5, 72, 118
6, 100304, Note_off_c, 5, 74, 0
6, 100368, Note_on_c, 5, 69, 118
6, 100384, Note_off_c, 5, 72, 0
6, 100992, Note_off_c, 5, 69, 0
6, 100992, Note_on_c, 5, 69, 118
6, 101008, Note_off_c, 5, 69, 0
6, 101024, Note_on_c, 5, 71, 118
6, 101088, Note_on_c, 5, 69, 118
6, 101120, Note_off_c, 5, 71, 0
6, 101136, Note_on_c, 5, 67, 118
6, 101152, Note_off_c, 5, 69, 0
6, 101376, Note_off_c, 5, 67, 0
6, 101376, Note_on_c, 5, 69, 118
6, 102032, Note_off_c, 5, 69, 0
6, 102144, Note_on_c, 5, 64, 118
6, 102240, Note_off_c, 5, 64, 0
6, 102240, Note_on_c, 5, 62, 118
6, 102304, Note_on_c, 5, 60, 118
6, 102320, Note_off_c, 5, 62, 0
6, 102512, Note_off_c, 5, 60, 0
6, 102512, Note_on_c, 5, 57, 118
6, 103088, Note_off_c, 5, 57, 0
6, 103088, Note_on_c, 5, 57, 118
6, 103104, Note_off_c, 5, 57, 0
6, 103184, Note_on_c, 5, 57, 118
6, 103264, Note_off_c, 5, 57, 0
6, 103264, Note_on_c, 5, 60, 118
6, 103376, Note_off_c, 5, 60, 0
6, 103376, Note_on_c, 5, 57, 118
6, 103456, Note_off_c, 5, 57, 0
6, 103472, Note_on_c, 5, 62, 118
6, 103552, Note_on_c, 5, 57, 118
6, 103568, Note_off_c, 5, 62, 0
6, 103616, Note_off_c, 5, 57, 0
6, 103664, Note_on_c, 5, 63, 118
6, 103680, Note_off_c, 5, 63, 0
6, 103680, Note_on_c, 5, 64, 118
6, 103856, Note_off_c, 5, 64, 0
6, 103856, Note_on_c, 5, 59, 118
6, 104032, Note_off_c, 5, 59, 0
6, 104032, Note_on_c, 5, 64, 118
6, 104208, Note_off_c, 5, 64, 0
6, 104224, Note_on_c, 5, 59, 118
6, 104320, Note_on_c, 5, 58, 118
6, 104336, Note_off_c, 5, 59, 0
6, 104416, Note_on_c, 5, 57, 118
6, 104432, Note_off_c, 5, 58, 0
6, 104544, Note_off_c, 5, 57, 0
6, 104544, Note_on_c, 5, 55, 118
6, 104640, Note_on_c, 5, 52, 118
6, 104656, Note_off_c, 5, 55, 0
6, 104752, Note_off_c, 5, 52, 0
6, 104912, Note_on_c, 5, 57, 102
6, 104912, Note_on_c, 5, 52, 102
6, 105008, Note_off_c, 5, 57, 0
6, 105008, Note_on_c, 5, 57, 102
6, 105088, Note_off_c, 5, 52, 0
6, 105104, Note_off_c, 5, 57, 0
6, 105104, Note_on_c, 5, 52, 102
6, 105200, Note_on_c, 5, 60, 102
6, 105280, Note_off_c, 5, 52, 0
6, 105296, Note_on_c, 5, 52, 102
6, 105376, Note_off_c, 5, 60, 0
6, 105392, Note_on_c, 5, 64, 102
6, 105472, Note_off_c, 5, 52, 0
6, 105488, Note_on_c, 5, 52, 102
6, 105568, Note_off_c, 5, 64, 0
6, 105584, Note_on_c, 5, 60, 102
6, 105664, Note_off_c, 5, 52, 0
6, 105680, Note_on_c, 5, 52, 102
6, 105760, Note_off_c, 5, 60, 0
6, 105776, Note_on_c, 5, 57, 102
6, 105856, Note_off_c, 5, 52, 0
6, 105952, Note_off_c, 5, 57, 0
6, 106064, Note_on_c, 5, 55, 102
6, 106064, Note_on_c, 5, 52, 102
6, 106160, Note_off_c, 5, 55, 0
6, 106160, Note_on_c, 5, 55, 102
6, 106240, Note_off_c, 5, 52, 0
6, 106256, Note_off_c, 5, 55, 0
6, 106256, Note_on_c, 5, 52, 102
6, 106352, Note_on_c, 5, 60, 102
6, 106432, Note_off_c, 5, 52, 0
6, 106448, Note_on_c, 5, 52, 102
6, 106528, Note_off_c, 5, 60, 0
6, 106544, Note_on_c, 5, 64, 102
6, 106624, Note_off_c, 5, 52, 0
6, 106640, Note_on_c, 5, 52, 102
6, 106720, Note_off_c, 5, 64, 0
6, 106736, Note_on_c, 5, 60, 102
6, 106816, Note_off_c, 5, 52, 0
6, 106832, Note_on_c, 5, 52, 102
6, 106912, Note_off_c, 5, 60, 0
6, 106928, Note_on_c, 5, 55, 102
6, 107008, Note_off_c, 5, 52, 0
6, 107008, Note_off_c, 5, 55, 0
6, 107120, Note_on_c, 5, 50, 82
6, 107216, Note_on_c, 5, 57, 102
6, 107296, Note_off_c, 5, 57, 0
6, 107312, Note_on_c, 5, 54, 104
6, 107408, Note_on_c, 5, 57, 102
6, 107488, Note_off_c, 5, 54, 0
6, 107488, Note_off_c, 5, 57, 0
6, 107504, Note_on_c, 5, 57, 104
6, 107600, Note_off_c, 5, 57, 0
6, 107600, Note_on_c, 5, 57, 102
6, 107680, Note_off_c, 5, 57, 0
6, 107696, Note_on_c, 5, 62, 104
6, 107792, Note_on_c, 5, 57, 102
6, 107872, Note_off_c, 5, 62, 0
6, 107872, Note_off_c, 5, 57, 0
6, 107888, Note_on_c, 5, 57, 104
6, 107984, Note_off_c, 5, 57, 0
6, 107984, Note_on_c, 5, 57, 102
6, 108064, Note_off_c, 5, 57, 0
6, 108080, Note_on_c, 5, 54, 104
6, 108176, Note_on_c, 5, 57, 102
6, 108256, Note_off_c, 5, 50, 0
6, 108256, Note_off_c, 5, 54, 0
6, 108256, Note_off_c, 5, 57, 0
6, 108272, Note_on_c, 5, 53, 82
6, 108368, Note_on_c, 5, 57, 102
6, 108448, Note_off_c, 5, 57, 0
6, 108464, Note_on_c, 5, 57, 104
6, 108560, Note_off_c, 5, 57, 0
6, 108560, Note_on_c, 5, 57, 102
6, 108640, Note_off_c, 5, 57, 0
6, 108656, Note_on_c, 5, 60, 104
6, 108752, Note_on_c, 5, 57, 102
6, 108832, Note_off_c, 5, 60, 0
6, 108832, Note_off_c, 5, 57, 0
6, 108864, Note_on_c, 5, 65, 104
6, 108944, Note_on_c, 5, 57, 102
6, 109024, Note_off_c, 5, 65, 0
6, 109024, Note_off_c, 5, 57, 0
6, 109040, Note_on_c, 5, 60, 104
6, 109136, Note_on_c, 5, 57, 102
6, 109216, Note_off_c, 5, 60, 0
6, 109216, Note_off_c, 5, 57, 0
6, 109232, Note_on_c, 5, 57, 104
6, 109312, Note_off_c, 5, 53, 0
6, 109328, Note_on_c, 5, 53, 102
6, 109408, Note_off_c, 5, 57, 0
6, 109408, Note_off_c, 5, 53, 0
6, 109424, Note_on_c, 5, 57, 82
6, 109520, Note_on_c, 5, 64, 82
6, 109616, Note_off_c, 5, 57, 0
6, 109616, Note_on_c, 5, 69, 82
6, 109616, Note_on_c, 5, 57, 107
6, 109680, Note_off_c, 5, 64, 0
6, 109712, Note_on_c, 5, 64, 82
6, 109776, Note_off_c, 5, 69, 0
6, 109776, Note_off_c, 5, 57, 0
6, 109808, Note_on_c, 5, 69, 82
6, 109808, Note_on_c, 5, 60, 107
6, 109872, Note_off_c, 5, 64, 0
6, 109904, Note_on_c, 5, 64, 82
6, 109968, Note_off_c, 5, 69, 0
6, 109968, Note_off_c, 5, 60, 0
6, 110000, Note_off_c, 5, 64, 0
6, 110000, Note_on_c, 5, 69, 82
6, 110000, Note_on_c, 5, 64, 107
6, 110064, Note_off_c, 5, 64, 0
6, 110096, Note_on_c, 5, 64, 82
6, 110160, Note_off_c, 5, 69, 0
6, 110160, Note_off_c, 5, 64, 0
6, 110192, Note_on_c, 5, 69, 82
6, 110192, Note_on_c, 5, 60, 107
6, 110288, Note_on_c, 5, 64, 82
6, 110352, Note_off_c, 5, 69, 0
6, 110352, Note_off_c, 5, 60, 0
6, 110384, Note_on_c, 5, 69, 82
6, 110384, Note_on_c, 5, 57, 107
6, 110448, Note_off_c, 5, 64, 0
6, 110480, Note_on_c, 5, 64, 82
6, 110544, Note_off_c, 5, 69, 0
6, 110544, Note_off_c, 5, 57, 0
6, 110576, Note_on_c, 5, 52, 82
6, 110640, Note_off_c, 5, 64, 0
6, 110672, Note_on_c, 5, 64, 82
6, 110768, Note_on_c, 5, 62, 113
6, 110768, Note_on_c, 5, 56, 107
6, 110832, Note_off_c, 5, 64, 0
6, 110944, Note_off_c, 5, 56, 0
6, 110960, Note_on_c, 5, 57, 113
6, 111136, Note_off_c, 5, 62, 0
6, 111136, Note_off_c, 5, 57, 0
6, 111152, Note_on_c, 5, 62, 113
6, 111152, Note_on_c, 5, 59, 113
6, 111616, Note_off_c, 5, 52, 0
6, 111712, Note_off_c, 5, 62, 0
6, 111712, Note_off_c, 5, 59, 0
6, 111728, Note_on_c, 5, 64, 108
6, 113936, Note_off_c, 5, 64, 0
6, 114032, Note_on_c, 5, 60, 82
6, 114032, Note_on_c, 5, 57, 82
6, 114032, Note_on_c, 5, 52, 82
6, 114032, Note_on_c, 5, 45, 82
6, 115184, Note_off_c, 5, 45, 0
6, 115184, Note_off_c, 5, 57, 0
6, 115184, Note_on_c, 5, 55, 82
6, 115184, Note_on_c, 5, 48, 82
6, 116336, Note_off_c, 5, 48, 0
6, 116336, Note_off_c, 5, 52, 0
6, 116336, Note_off_c, 5, 55, 0
6, 116336, Note_off_c, 5, 60, 0
6, 116336, Note_on_c, 5, 62, 82
6, 116336, Note_on_c, 5, 57, 82
6, 116336, Note_on_c, 5, 50, 82
6, 117488, Note_off_c, 5, 50, 0
6, 117488, Note_off_c, 5, 57, 0
6, 117488, Note_off_c, 5, 62, 0
6, 117488, Note_on_c, 5, 65, 82
6, 117488, Note_on_c, 5, 63, 82
6, 117488, Note_on_c, 5, 60, 82
6, 117488, Note_on_c, 5, 53, 82
6, 118640, Note_off_c, 5, 53, 0
6, 118640, Note_off_c, 5, 60, 0
6, 118640, Note_off_c, 5, 63, 0
6, 118640, Note_off_c, 5, 65, 0
6, 118640, Note_on_c, 5, 64, 82
6, 118640, Note_on_c, 5, 60, 82
6, 118640, Note_on_c, 5, 57, 82
6, 118640, Note_on_c, 5, 45, 82
6, 119792, Note_off_c, 5, 45, 0
6, 119792, Note_off_c, 5, 57, 0
6, 119792, Note_on_c, 5, 55, 82
6, 119792, Note_on_c, 5, 48, 82
6, 120864, Note_off_c, 5, 60, 0
6, 120864, Note_off_c, 5, 64, 0
6, 120944, Note_off_c, 5, 48, 0
6, 120944, Note_off_c, 5, 55, 0
6, 120944, Note_on_c, 5, 52, 82
6, 121136, Note_on_c, 5, 59, 88
6, 121136, Note_on_c, 5, 56, 113
6, 121312, Note_off_c, 5, 59, 0
6, 121312, Note_off_c, 5, 56, 0
6, 121328, Note_on_c, 5, 60, 88
6, 121328, Note_on_c, 5, 57, 113
6, 121472, Note_off_c, 5, 57, 0
6, 121520, Note_off_c, 5, 60, 0
6, 121520, Note_on_c, 5, 62, 88
6, 121520, Note_on_c, 5, 57, 113
6, 121536, Note_on_c, 5, 59, 113
6, 121584, Note_off_c, 5, 57, 0
6, 121616, Note_off_c, 5, 62, 0
6, 121648, Note_off_c, 5, 59, 0
6, 121696, Note_on_c, 5, 59, 113
6, 121712, Note_on_c, 5, 62, 88
6, 122080, Note_off_c, 5, 59, 0
6, 122080, Note_off_c, 5, 62, 0
6, 122080, Note_on_c, 5, 57, 113
6, 122096, Note_on_c, 5, 62, 88
6, 122096, Note_on_c, 5, 59, 113
6, 122160, Note_off_c, 5, 57, 0
6, 122208, Note_off_c, 5, 59, 0
6, 122288, Note_off_c, 5, 62, 0
6, 122288, Note_on_c, 5, 62, 88
6, 122288, Note_on_c, 5, 59, 113
6, 122672, Note_on_c, 5, 57, 113
6, 122688, Note_off_c, 5, 59, 0
6, 122768, Note_off_c, 5, 57, 0
6, 122768, Note_on_c, 5, 56, 113
6, 122864, Note_off_c, 5, 52, 0
6, 122864, Note_off_c, 5, 56, 0
6, 122864, Note_on_c, 5, 52, 113
6, 122880, Note_off_c, 5, 52, 0
6, 123056, Note_on_c, 5, 52, 113
6, 123152, Note_off_c, 5, 52, 0
6, 123248, Note_off_c, 5, 62, 0
6, 123248, Note_on_c, 5, 64, 82
6, 123248, Note_on_c, 5, 60, 82
6, 123248, Note_on_c, 5, 57, 82
6, 124320, Note_off_c, 5, 57, 0
6, 124400, Note_on_c, 5, 55, 82
6, 125472, Note_off_c, 5, 64, 0
6, 125552, Note_off_c, 5, 55, 0
6, 125552, Note_off_c, 5, 60, 0
6, 125552, Note_on_c, 5, 62, 82
6, 125552, Note_on_c, 5, 57, 82
6, 125552, Note_on_c, 5, 54, 82
6, 125552, Note_on_c, 5, 50, 82
6, 126704, Note_off_c, 5, 50, 0
6, 126704, Note_off_c, 5, 54, 0
6, 126704, Note_off_c, 5, 57, 0
6, 126704, Note_off_c, 5, 62, 0
6, 126704, Note_on_c, 5, 65, 82
6, 126704, Note_on_c, 5, 60, 82
6, 126704, Note_on_c, 5, 57, 82
6, 126704, Note_on_c, 5, 53, 82
6, 127776, Note_off_c, 5, 53, 0
6, 127776, Note_off_c, 5, 57, 0
6, 127776, Note_off_c, 5, 60, 0
6, 127776, Note_off_c, 5, 65, 0
6, 127856, Note_on_c, 5, 64, 82
6, 127856, Note_on_c, 5, 60, 82
6, 127856, Note_on_c, 5, 57, 82
6, 127856, Note_on_c, 5, 45, 82
6, 129008, Note_off_c, 5, 45, 0
6, 129008, Note_off_c, 5, 57, 0
6, 129008, Note_off_c, 5, 60, 0
6, 129008, Note_on_c, 5, 56, 82
6, 129008, Note_on_c, 5, 52, 82
6, 129008, Note_on_c, 5, 40, 82
6, 130064, Note_off_c, 5, 40, 0
6, 130080, Note_off_c, 5, 52, 0
6, 130160, Note_off_c, 5, 56, 0
6, 130160, Note_off_c, 5, 64, 0
6, 130256, Note_on_c, 5, 57, 102
6, 130256, Note_on_c, 5, 52, 102
6, 130352, Note_off_c, 5, 57, 0
6, 130352, Note_on_c, 5, 57, 102
6, 130432, Note_off_c, 5, 52, 0
6, 130448, Note_off_c, 5, 57, 0
6, 130448, Note_on_c, 5, 52, 102
6, 130544, Note_on_c, 5, 60, 102
6, 130624, Note_off_c, 5, 52, 0
6, 130640, Note_on_c, 5, 52, 102
6, 130720, Note_off_c, 5, 60, 0
6, 130736, Note_on_c, 5, 64, 102
6, 130816, Note_off_c, 5, 52, 0
6, 130832, Note_on_c, 5, 52, 102
6, 130912, Note_off_c, 5, 64, 0
6, 130928, Note_on_c, 5, 60, 102
6, 131008, Note_off_c, 5, 52, 0
6, 131024, Note_on_c, 5, 52, 102
6, 131104, Note_off_c, 5, 60, 0
6, 131120, Note_on_c, 5, 57, 102
6, 131200, Note_off_c, 5, 52, 0
6, 131296, Note_off_c, 5, 57, 0
6, 131408, Note_on_c, 5, 55, 102
6, 131408, Note_on_c, 5, 52, 102
6, 131504, Note_off_c, 5, 55, 0
6, 131504, Note_on_c, 5, 55, 102
6, 131584, Note_off_c, 5, 52, 0
6, 131600, Note_off_c, 5, 55, 0
6, 131600, Note_on_c, 5, 52, 102
6, 131696, Note_on_c, 5, 60, 102
6, 131776, Note_off_c, 5, 52, 0
6, 131792, Note_on_c, 5, 52, 102
6, 131872, Note_off_c, 5, 60, 0
6, 131888, Note_on_c, 5, 64, 102
6, 131968, Note_off_c, 5, 52, 0
6, 131984, Note_on_c, 5, 52, 102
6, 132064, Note_off_c, 5, 64, 0
6, 132080, Note_on_c, 5, 60, 102
6, 132160, Note_off_c, 5, 52, 0
6, 132176, Note_on_c, 5, 52, 102
6, 132256, Note_off_c, 5, 60, 0
6, 132272, Note_on_c, 5, 55, 102
6, 132352, Note_off_c, 5, 52, 0
6, 132352, Note_off_c, 5, 55, 0
6, 132464, Note_on_c, 5, 50, 82
6, 132560, Note_on_c, 5, 57, 102
6, 132640, Note_off_c, 5, 57, 0
6, 132656, Note_on_c, 5, 54, 104
6, 132752, Note_on_c, 5, 57, 102
6, 132832, Note_off_c, 5, 54, 0
6, 132832, Note_off_c, 5, 57, 0
6, 132848, Note_on_c, 5, 57, 104
6, 132944, Note_off_c, 5, 57, 0
6, 132944, Note_on_c, 5, 57, 102
6, 133024, Note_off_c, 5, 57, 0
6, 133040, Note_on_c, 5, 62, 104
6, 133136, Note_on_c, 5, 57, 102
6, 133216, Note_off_c, 5, 62, 0
6, 133216, Note_off_c, 5, 57, 0
6, 133232, Note_on_c, 5, 57, 104
6, 133328, Note_off_c, 5, 57, 0
6, 133328, Note_on_c, 5, 57, 102
6, 133408, Note_off_c, 5, 57, 0
6, 133424, Note_on_c, 5, 54, 104
6, 133520, Note_on_c, 5, 57, 102
6, 133600, Note_off_c, 5, 50, 0
6, 133600, Note_off_c, 5, 54, 0
6, 133600, Note_off_c, 5, 57, 0
6, 133616, Note_on_c, 5, 53, 82
6, 133712, Note_on_c, 5, 57, 102
6, 133792, Note_off_c, 5, 57, 0
6, 133808, Note_on_c, 5, 57, 104
6, 133904, Note_off_c, 5, 57, 0
6, 133904, Note_on_c, 5, 57, 102
6, 133984, Note_off_c, 5, 57, 0
6, 134000, Note_on_c, 5, 60, 104
6, 134096, Note_on_c, 5, 57, 102
6, 134176, Note_off_c, 5, 60, 0
6, 134176, Note_off_c, 5, 57, 0
6, 134192, Note_on_c, 5, 65, 104
6, 134288, Note_on_c, 5, 57, 102
6, 134368, Note_off_c, 5, 65, 0
6, 134368, Note_off_c, 5, 57, 0
6, 134384, Note_on_c, 5, 60, 104
6, 134480, Note_on_c, 5, 57, 102
6, 134560, Note_off_c, 5, 60, 0
6, 134560, Note_off_c, 5, 57, 0
6, 134576, Note_on_c, 5, 57, 104
6, 134656, Note_off_c, 5, 53, 0
6, 134672, Note_on_c, 5, 53, 102
6, 134752, Note_off_c, 5, 57, 0
6, 134752, Note_off_c, 5, 53, 0
6, 134768, Note_on_c, 5, 57, 82
6, 134864, Note_on_c, 5, 64, 82
6, 134960, Note_off_c, 5, 57, 0
6, 134960, Note_on_c, 5, 69, 82
6, 134960, Note_on_c, 5, 57, 107
6, 135024, Note_off_c, 5, 64, 0
6, 135056, Note_on_c, 5, 64, 82
6, 135120, Note_off_c, 5, 69, 0
6, 135120, Note_off_c, 5, 57, 0
6, 135152, Note_on_c, 5, 69, 82
6, 135152, Note_on_c, 5, 60, 107
6, 135216, Note_off_c, 5, 64, 0
6, 135248, Note_on_c, 5, 64, 82
6, 135312, Note_off_c, 5, 69, 0
6, 135312, Note_off_c, 5, 60, 0
6, 135344, Note_off_c, 5, 64, 0
6, 135344, Note_on_c, 5, 69, 82
6, 135344, Note_on_c, 5, 64, 107
6, 135408, Note_off_c, 5, 64, 0
6, 135440, Note_on_c, 5, 64, 82
6, 135504, Note_off_c, 5, 69, 0
6, 135504, Note_off_c, 5, 64, 0
6, 135536, Note_on_c, 5, 69, 82
6, 135536, Note_on_c, 5, 60, 107
6, 135632, Note_on_c, 5, 64, 82
6, 135696, Note_off_c, 5, 69, 0
6, 135696, Note_off_c, 5, 60, 0
6, 135728, Note_on_c, 5, 69, 82
6, 135728, Note_on_c, 5, 57, 107
6, 135792, Note_off_c, 5, 64, 0
6, 135824, Note_on_c, 5, 64, 82
6, 135888, Note_off_c, 5, 69, 0
6, 135888, Note_off_c, 5, 57, 0
6, 135920, Note_on_c, 5, 52, 82
6, 135984, Note_off_c, 5, 64, 0
6, 136016, Note_on_c, 5, 64, 82
6, 136112, Note_on_c, 5, 62, 113
6, 136112, Note_on_c, 5, 56, 107
6, 136176, Note_off_c, 5, 64, 0
6, 136288, Note_off_c, 5, 56, 0
6, 136304, Note_on_c, 5, 57, 113
6, 136480, Note_off_c, 5, 62, 0
6, 136480, Note_off_c, 5, 57, 0
6, 136496, Note_on_c, 5, 62, 113
6, 136496, Note_on_c, 5, 59, 113
6, 136960, Note_off_c, 5, 52, 0
6, 137056, Note_off_c, 5, 62, 0
6, 137056, Note_off_c, 5, 59, 0
6, 137056, Note_on_c, 5, 57, 82
6, 137248, Note_on_c, 5, 60, 104
6, 137424, Note_off_c, 5, 60, 0
6, 137440, Note_on_c, 5, 62, 104
6, 137584, Note_off_c, 5, 62, 0
6, 137632, Note_on_c, 5, 66, 104
6, 137632, Note_on_c, 5, 62, 104
6, 137664, Note_on_c, 5, 67, 104
6, 137664, Note_on_c, 5, 64, 104
6, 137680, Note_off_c, 5, 66, 0
6, 137680, Note_off_c, 5, 62, 0
6, 137808, Note_off_c, 5, 67, 0
6, 137808, Note_off_c, 5, 64, 0
6, 137824, Note_on_c, 5, 67, 104
6, 137824, Note_on_c, 5, 64, 104
6, 137968, Note_off_c, 5, 67, 0
6, 137968, Note_off_c, 5, 64, 0
6, 138016, Note_on_c, 5, 67, 104
6, 138016, Note_on_c, 5, 64, 104
6, 138160, Note_off_c, 5, 67, 0
6, 138160, Note_off_c, 5, 64, 0
6, 138176, Note_on_c, 5, 66, 104
6, 138176, Note_on_c, 5, 62, 104
6, 138192, Note_off_c, 5, 57, 0
6, 138208, Note_on_c, 5, 67, 104
6, 138208, Note_on_c, 5, 64, 104
6, 138224, Note_off_c, 5, 66, 0
6, 138224, Note_off_c, 5, 62, 0
6, 138352, Note_off_c, 5, 64, 0
6, 138352, Note_off_c, 5, 67, 0
6, 138400, Note_on_c, 5, 67, 104
6, 138400, Note_on_c, 5, 64, 104
6, 138544, Note_off_c, 5, 67, 0
6, 138544, Note_off_c, 5, 64, 0
6, 138592, Note_on_c, 5, 67, 104
6, 138592, Note_on_c, 5, 64, 104
6, 138736, Note_off_c, 5, 67, 0
6, 138736, Note_off_c, 5, 64, 0
6, 138784, Note_on_c, 5, 62, 104
6, 138880, Note_on_c, 5, 60, 104
6, 138896, Note_off_c, 5, 62, 0
6, 138976, Note_on_c, 5, 57, 104
6, 139024, Note_off_c, 5, 60, 0
6, 139104, Note_off_c, 5, 57, 0
6, 139168, Note_on_c, 5, 57, 104
6, 139296, Note_off_c, 5, 57, 0
6, 139376, Note_on_c, 5, 60, 72
6, 139376, Note_on_c, 5, 57, 72
6, 139376, Note_on_c, 5, 52, 72
6, 139376, Note_on_c, 5, 45, 72
6, 140528, Note_off_c, 5, 45, 0
6, 140528, Note_off_c, 5, 57, 0
6, 140528, Note_on_c, 5, 55, 72
6, 140528, Note_on_c, 5, 48, 72
6, 141680, Note_off_c, 5, 48, 0
6, 141680, Note_off_c, 5, 52, 0
6, 141680, Note_off_c, 5, 55, 0
6, 141680, Note_off_c, 5, 60, 0
6, 141680, Note_on_c, 5, 62, 72
6, 141680, Note_on_c, 5, 57, 72
6, 141680, Note_on_c, 5, 50, 72
6, 142832, Note_off_c, 5, 50, 0
6, 142832, Note_off_c, 5, 57, 0
6, 142832, Note_off_c, 5, 62, 0
6, 142832, Note_on_c, 5, 65, 72
6, 142832, Note_on_c, 5, 63, 72
6, 142832, Note_on_c, 5, 60, 72
6, 142832, Note_on_c, 5, 53, 72
6, 143984, Note_off_c, 5, 53, 0
6, 143984, Note_off_c, 5, 60, 0
6, 143984, Note_off_c, 5, 63, 0
6, 143984, Note_off_c, 5, 65, 0
6, 143984, Note_on_c, 5, 64, 72
6, 143984, Note_on_c, 5, 60, 72
6, 143984, Note_on_c, 5, 57, 72
6, 143984, Note_on_c, 5, 45, 72
6, 145136, Note_off_c, 5, 45, 0
6, 145136, Note_off_c, 5, 57, 0
6, 145136, Note_on_c, 5, 55, 72
6, 145136, Note_on_c, 5, 48, 72
6, 146208, Note_off_c, 5, 60, 0
6, 146208, Note_off_c, 5, 64, 0
6, 146288, Note_off_c, 5, 48, 0
6, 146288, Note_off_c, 5, 55, 0
6, 146288, Note_on_c, 5, 52, 72
6, 146480, Note_on_c, 5, 71, 78
6, 146480, Note_on_c, 5, 68, 103
6, 146656, Note_off_c, 5, 71, 0
6, 146656, Note_off_c, 5, 68, 0
6, 146672, Note_on_c, 5, 72, 78
6, 146672, Note_on_c, 5, 69, 103
6, 146816, Note_off_c, 5, 69, 0
6, 146864, Note_off_c, 5, 72, 0
6, 146864, Note_on_c, 5, 74, 78
6, 146864, Note_on_c, 5, 69, 103
6, 146880, Note_on_c, 5, 71, 103
6, 146928, Note_off_c, 5, 69, 0
6, 146960, Note_off_c, 5, 74, 0
6, 146992, Note_off_c, 5, 71, 0
6, 147040, Note_on_c, 5, 71, 103
6, 147056, Note_on_c, 5, 74, 78
6, 147424, Note_off_c, 5, 71, 0
6, 147424, Note_off_c, 5, 74, 0
6, 147424, Note_on_c, 5, 69, 103
6, 147440, Note_on_c, 5, 74, 78
6, 147440, Note_on_c, 5, 71, 103
6, 147520, Note_off_c, 5, 69, 0
6, 147568, Note_off_c, 5, 71, 0
6, 147632, Note_off_c, 5, 74, 0
6, 147632, Note_on_c, 5, 74, 78
6, 147632, Note_on_c, 5, 71, 103
6, 148016, Note_on_c, 5, 69, 103
6, 148032, Note_off_c, 5, 71, 0
6, 148112, Note_off_c, 5, 69, 0
6, 148112, Note_on_c, 5, 68, 103
6, 148208, Note_off_c, 5, 68, 0
6, 148208, Note_on_c, 5, 64, 103
6, 148304, Note_off_c, 5, 64, 0
6, 148400, Note_on_c, 5, 64, 103
6, 148496, Note_off_c, 5, 64, 0
6, 148592, Note_off_c, 5, 52, 0
6, 148592, Note_off_c, 5, 74, 0
6, 148592, Note_on_c, 5, 64, 72
6, 148592, Note_on_c, 5, 60, 72
6, 148592, Note_on_c, 5, 57, 72
6, 149664, Note_off_c, 5, 57, 0
6, 149744, Note_on_c, 5, 55, 72
6, 150816, Note_off_c, 5, 64, 0
6, 150896, Note_off_c, 5, 55, 0
6, 150896, Note_off_c, 5, 60, 0
6, 150896, Note_on_c, 5, 62, 72
6, 150896, Note_on_c, 5, 57, 72
6, 150896, Note_on_c, 5, 54, 72
6, 150896, Note_on_c, 5, 50, 72
6, 152048, Note_off_c, 5, 50, 0
6, 152048, Note_off_c, 5, 54, 0
6, 152048, Note_off_c, 5, 57, 0
6, 152048, Note_off_c, 5, 62, 0
6, 152048, Note_on_c, 5, 65, 72
6, 152048, Note_on_c, 5, 60, 72
6, 152048, Note_on_c, 5, 57, 72
6, 152048, Note_on_c, 5, 53, 72
6, 153120, Note_off_c, 5, 53, 0
6, 153120, Note_off_c, 5, 57, 0
6, 153120, Note_off_c, 5, 60, 0
6, 153120, Note_off_c, 5, 65, 0
6, 153200, Note_on_c, 5, 57, 72
6, 153296, Note_on_c, 5, 64, 72
6, 153392, Note_off_c, 5, 57, 0
6, 153392, Note_on_c, 5, 69, 72
6, 153392, Note_on_c, 5, 57, 97
6, 153456, Note_off_c, 5, 64, 0
6, 153488, Note_on_c, 5, 64, 72
6, 153552, Note_off_c, 5, 69, 0
6, 153552, Note_off_c, 5, 57, 0
6, 153584, Note_on_c, 5, 69, 72
6, 153584, Note_on_c, 5, 60, 97
6, 153648, Note_off_c, 5, 64, 0
6, 153680, Note_on_c, 5, 64, 72
6, 153744, Note_off_c, 5, 69, 0
6, 153744, Note_off_c, 5, 60, 0
6, 153776, Note_off_c, 5, 64, 0
6, 153776, Note_on_c, 5, 69, 72
6, 153776, Note_on_c, 5, 64, 97
6, 153840, Note_off_c, 5, 64, 0
6, 153872, Note_on_c, 5, 64, 72
6, 153936, Note_off_c, 5, 69, 0
6, 153936, Note_off_c, 5, 64, 0
6, 153968, Note_on_c, 5, 69, 72
6, 153968, Note_on_c, 5, 60, 97
6, 154064, Note_on_c, 5, 64, 72
6, 154128, Note_off_c, 5, 69, 0
6, 154128, Note_off_c, 5, 60, 0
6, 154160, Note_on_c, 5, 69, 72
6, 154160, Note_on_c, 5, 57, 97
6, 154224, Note_off_c, 5, 64, 0
6, 154256, Note_on_c, 5, 64, 72
6, 154320, Note_off_c, 5, 69, 0
6, 154320, Note_off_c, 5, 57, 0
6, 154352, Note_on_c, 5, 52, 72
6, 154416, Note_off_c, 5, 64, 0
6, 154448, Note_on_c, 5, 64, 72
6, 154544, Note_on_c, 5, 68, 72
6, 154544, Note_on_c, 5, 56, 97
6, 154608, Note_off_c, 5, 64, 0
6, 154640, Note_on_c, 5, 64, 72
6, 154704, Note_off_c, 5, 68, 0
6, 154704, Note_off_c, 5, 56, 0
6, 154736, Note_on_c, 5, 68, 72
6, 154736, Note_on_c, 5, 59, 97
6, 154800, Note_off_c, 5, 64, 0
6, 154832, Note_on_c, 5, 64, 72
6, 154896, Note_off_c, 5, 68, 0
6, 154896, Note_off_c, 5, 59, 0
6, 154928, Note_on_c, 5, 68, 72
6, 154928, Note_on_c, 5, 62, 97
6, 154992, Note_off_c, 5, 64, 0
6, 155024, Note_on_c, 5, 64, 72
6, 155088, Note_off_c, 5, 68, 0
6, 155088, Note_off_c, 5, 62, 0
6, 155120, Note_on_c, 5, 68, 72
6, 155120, Note_on_c, 5, 59, 97
6, 155184, Note_off_c, 5, 64, 0
6, 155216, Note_on_c, 5, 64, 72
6, 155280, Note_off_c, 5, 68, 0
6, 155280, Note_off_c, 5, 59, 0
6, 155312, Note_on_c, 5, 68, 72
6, 155312, Note_on_c, 5, 56, 97
6, 155376, Note_off_c, 5, 64, 0
6, 155408, Note_on_c, 5, 64, 72
6, 155472, Note_off_c, 5, 52, 0
6, 155472, Note_off_c, 5, 68, 0
6, 155472, Note_off_c, 5, 56, 0
6, 155568, Note_off_c, 5, 64, 0
6, 155600, Note_on_c, 5, 57, 102
6, 155600, Note_on_c, 5, 52, 102
6, 155696, Note_off_c, 5, 57, 0
6, 155696, Note_on_c, 5, 57, 102
6, 155776, Note_off_c, 5, 52, 0
6, 155792, Note_off_c, 5, 57, 0
6, 155792, Note_on_c, 5, 52, 102
6, 155888, Note_on_c, 5, 60, 102
6, 155968, Note_off_c, 5, 52, 0
6, 155984, Note_on_c, 5, 52, 102
6, 156064, Note_off_c, 5, 60, 0
6, 156080, Note_on_c, 5, 64, 102
6, 156160, Note_off_c, 5, 52, 0
6, 156176, Note_on_c, 5, 52, 102
6, 156256, Note_off_c, 5, 64, 0
6, 156272, Note_on_c, 5, 60, 102
6, 156352, Note_off_c, 5, 52, 0
6, 156368, Note_on_c, 5, 52, 102
6, 156448, Note_off_c, 5, 60, 0
6, 156464, Note_on_c, 5, 57, 102
6, 156544, Note_off_c, 5, 52, 0
6, 156640, Note_off_c, 5, 57, 0
6, 156752, Note_on_c, 5, 55, 102
6, 156752, Note_on_c, 5, 52, 102
6, 156848, Note_off_c, 5, 55, 0
6, 156848, Note_on_c, 5, 55, 102
6, 156928, Note_off_c, 5, 52, 0
6, 156944, Note_off_c, 5, 55, 0
6, 156944, Note_on_c, 5, 52, 102
6, 157040, Note_on_c, 5, 60, 102
6, 157120, Note_off_c, 5, 52, 0
6, 157136, Note_on_c, 5, 52, 102
6, 157216, Note_off_c, 5, 60, 0
6, 157232, Note_on_c, 5, 64, 102
6, 157312, Note_off_c, 5, 52, 0
6, 157328, Note_on_c, 5, 52, 102
6, 157408, Note_off_c, 5, 64, 0
6, 157424, Note_on_c, 5, 60, 102
6, 157504, Note_off_c, 5, 52, 0
6, 157520, Note_on_c, 5, 52, 102
6, 157600, Note_off_c, 5, 60, 0
6, 157616, Note_on_c, 5, 55, 102
6, 157696, Note_off_c, 5, 52, 0
6, 157696, Note_off_c, 5, 55, 0
6, 157808, Note_on_c, 5, 50, 82
6, 157904, Note_on_c, 5, 57, 102
6, 157984, Note_off_c, 5, 57, 0
6, 158000, Note_on_c, 5, 54, 104
6, 158096, Note_on_c, 5, 57, 102
6, 158176, Note_off_c, 5, 54, 0
6, 158176, Note_off_c, 5, 57, 0
6, 158192, Note_on_c, 5, 57, 104
6, 158288, Note_off_c, 5, 57, 0
6, 158288, Note_on_c, 5, 57, 102
6, 158368, Note_off_c, 5, 57, 0
6, 158384, Note_on_c, 5, 62, 104
6, 158480, Note_on_c, 5, 57, 102
6, 158560, Note_off_c, 5, 62, 0
6, 158560, Note_off_c, 5, 57, 0
6, 158576, Note_on_c, 5, 57, 104
6, 158672, Note_off_c, 5, 57, 0
6, 158672, Note_on_c, 5, 57, 102
6, 158752, Note_off_c, 5, 57, 0
6, 158768, Note_on_c, 5, 54, 104
6, 158864, Note_on_c, 5, 57, 102
6, 158944, Note_off_c, 5, 50, 0
6, 158944, Note_off_c, 5, 54, 0
6, 158944, Note_off_c, 5, 57, 0
6, 158960, Note_on_c, 5, 53, 82
6, 159056, Note_on_c, 5, 57, 102
6, 159136, Note_off_c, 5, 57, 0
6, 159152, Note_on_c, 5, 57, 104
6, 159248, Note_off_c, 5, 57, 0
6, 159248, Note_on_c, 5, 57, 102
6, 159328, Note_off_c, 5, 57, 0
6, 159344, Note_on_c, 5, 60, 104
6, 159440, Note_on_c, 5, 57, 102
6, 159520, Note_off_c, 5, 60, 0
6, 159520, Note_off_c, 5, 57, 0
6, 159552, Note_on_c, 5, 65, 104
6, 159632, Note_on_c, 5, 57, 102
6, 159712, Note_off_c, 5, 65, 0
6, 159712, Note_off_c, 5, 57, 0
6, 159728, Note_on_c, 5, 60, 104
6, 159824, Note_on_c, 5, 57, 102
6, 159904, Note_off_c, 5, 60, 0
6, 159904, Note_off_c, 5, 57, 0
6, 159920, Note_on_c, 5, 57, 104
6, 160000, Note_off_c, 5, 53, 0
6, 160096, Note_off_c, 5, 57, 0
6, 160112, Note_on_c, 5, 76, 72
6, 160112, Note_on_c, 5, 69, 88
6, 160304, Note_on_c, 5, 60, 111
6, 160480, Note_off_c, 5, 60, 0
6, 160496, Note_on_c, 5, 62, 111
6, 160576, Note_off_c, 5, 62, 0
6, 160688, Note_on_c, 5, 67, 111
6, 160688, Note_on_c, 5, 64, 111
6, 160960, Note_off_c, 5, 67, 0
6, 160960, Note_off_c, 5, 64, 0
6, 161072, Note_on_c, 5, 67, 111
6, 161072, Note_on_c, 5, 64, 111
6, 161248, Note_off_c, 5, 67, 0
6, 161248, Note_off_c, 5, 64, 0
6, 161456, Note_on_c, 5, 67, 111
6, 161456, Note_on_c, 5, 64, 111
6, 161600, Note_off_c, 5, 67, 0
6, 161600, Note_off_c, 5, 64, 0
6, 161648, Note_on_c, 5, 67, 111
6, 161648, Note_on_c, 5, 64, 111
6, 161696, Note_off_c, 5, 67, 0
6, 161696, Note_off_c, 5, 64, 0
6, 161744, Note_on_c, 5, 67, 111
6, 161744, Note_on_c, 5, 64, 111
6, 161952, Note_off_c, 5, 67, 0
6, 161952, Note_off_c, 5, 64, 0
6, 162032, Note_on_c, 5, 67, 111
6, 162032, Note_on_c, 5, 64, 111
6, 162208, Note_off_c, 5, 67, 0
6, 162208, Note_off_c, 5, 64, 0
6, 162320, Note_on_c, 5, 67, 111
6, 162320, Note_on_c, 5, 64, 111
6, 162464, Note_off_c, 5, 64, 0
6, 162464, Note_off_c, 5, 67, 0
6, 162512, Note_on_c, 5, 67, 111
6, 162512, Note_on_c, 5, 64, 111
6, 162576, Note_off_c, 5, 67, 0
6, 162576, Note_off_c, 5, 64, 0
6, 162608, Note_on_c, 5, 67, 111
6, 162608, Note_on_c, 5, 64, 111
6, 162784, Note_off_c, 5, 67, 0
6, 162784, Note_off_c, 5, 64, 0
6, 162896, Note_on_c, 5, 67, 111
6, 162896, Note_on_c, 5, 64, 111
6, 163024, Note_off_c, 5, 67, 0
6, 163024, Note_off_c, 5, 64, 0
6, 163088, Note_on_c, 5, 67, 111
6, 163088, Note_on_c, 5, 64, 111
6, 163136, Note_off_c, 5, 67, 0
6, 163136, Note_off_c, 5, 64, 0
6, 163184, Note_on_c, 5, 67, 111
6, 163184, Note_on_c, 5, 64, 111
6, 163360, Note_off_c, 5, 67, 0
6, 163360, Note_off_c, 5, 64, 0
6, 163472, Note_on_c, 5, 67, 111
6, 163472, Note_on_c, 5, 64, 111
6, 163600, Note_off_c, 5, 64, 0
6, 163600, Note_off_c, 5, 67, 0
6, 163664, Note_on_c, 5, 67, 111
6, 163664, Note_on_c, 5, 64, 111
6, 163728, Note_off_c, 5, 67, 0
6, 163728, Note_off_c, 5, 64, 0
6, 163760, Note_on_c, 5, 67, 111
6, 163760, Note_on_c, 5, 64, 111
6, 164096, Note_off_c, 5, 67, 0
6, 164096, Note_off_c, 5, 64, 0
6, 164144, Note_on_c, 5, 62, 111
6, 164240, Note_on_c, 5, 60, 111
6, 164272, Note_off_c, 5, 62, 0
6, 164336, Note_off_c, 5, 60, 0
6, 164336, Note_on_c, 5, 57, 111
6, 164448, Note_off_c, 5, 57, 0
6, 164528, Note_on_c, 5, 57, 111
6, 164640, Note_off_c, 5, 69, 0
6, 164640, Note_off_c, 5, 76, 0
6, 164640, Note_off_c, 5, 57, 0
6, 164720, Note_on_c, 5, 60, 82
6, 164720, Note_on_c, 5, 57, 82
6, 164720, Note_on_c, 5, 52, 82
6, 164720, Note_on_c, 5, 45, 82
6, 165872, Note_off_c, 5, 45, 0
6, 165872, Note_off_c, 5, 57, 0
6, 165872, Note_on_c, 5, 55, 82
6, 165872, Note_on_c, 5, 48, 82
6, 167024, Note_off_c, 5, 48, 0
6, 167024, Note_off_c, 5, 52, 0
6, 167024, Note_off_c, 5, 55, 0
6, 167024, Note_off_c, 5, 60, 0
6, 167024, Note_on_c, 5, 62, 82
6, 167024, Note_on_c, 5, 57, 82
6, 167024, Note_on_c, 5, 50, 82
6, 168176, Note_off_c, 5, 50, 0
6, 168176, Note_off_c, 5, 57, 0
6, 168176, Note_off_c, 5, 62, 0
6, 168176, Note_on_c, 5, 65, 82
6, 168176, Note_on_c, 5, 63, 82
6, 168176, Note_on_c, 5, 60, 82
6, 168176, Note_on_c, 5, 53, 82
6, 169328, Note_off_c, 5, 53, 0
6, 169328, Note_off_c, 5, 60, 0
6, 169328, Note_off_c, 5, 63, 0
6, 169328, Note_off_c, 5, 65, 0
6, 169328, Note_on_c, 5, 64, 82
6, 169328, Note_on_c, 5, 60, 82
6, 169328, Note_on_c, 5, 57, 82
6, 169328, Note_on_c, 5, 45, 82
6, 170480, Note_off_c, 5, 45, 0
6, 170480, Note_off_c, 5, 57, 0
6, 170480, Note_on_c, 5, 55, 82
6, 170480, Note_on_c, 5, 48, 82
6, 171552, Note_off_c, 5, 60, 0
6, 171552, Note_off_c, 5, 64, 0
6, 171632, Note_off_c, 5, 48, 0
6, 171632, Note_off_c, 5, 55, 0
6, 171632, Note_on_c, 5, 52, 82
6, 171824, Note_on_c, 5, 71, 88
6, 171824, Note_on_c, 5, 68, 113
6, 172000, Note_off_c, 5, 71, 0
6, 172000, Note_off_c, 5, 68, 0
6, 172016, Note_on_c, 5, 72, 88
6, 172016, Note_on_c, 5, 69, 113
6, 172160, Note_off_c, 5, 69, 0
6, 172208, Note_off_c, 5, 72, 0
6, 172208, Note_on_c, 5, 74, 88
6, 172208, Note_on_c, 5, 69, 113
6, 172224, Note_on_c, 5, 71, 113
6, 172272, Note_off_c, 5, 69, 0
6, 172304, Note_off_c, 5, 74, 0
6, 172336, Note_off_c, 5, 71, 0
6, 172384, Note_on_c, 5, 71, 113
6, 172400, Note_on_c, 5, 74, 88
6, 172768, Note_off_c, 5, 71, 0
6, 172768, Note_off_c, 5, 74, 0
6, 172768, Note_on_c, 5, 69, 113
6, 172784, Note_on_c, 5, 74, 88
6, 172784, Note_on_c, 5, 71, 113
6, 172864, Note_off_c, 5, 69, 0
6, 172912, Note_off_c, 5, 71, 0
6, 172976, Note_off_c, 5, 74, 0
6, 172976, Note_on_c, 5, 74, 88
6, 172976, Note_on_c, 5, 71, 113
6, 173360, Note_on_c, 5, 69, 113
6, 173376, Note_off_c, 5, 71, 0
6, 173456, Note_off_c, 5, 69, 0
6, 173456, Note_on_c, 5, 68, 113
6, 173552, Note_off_c, 5, 68, 0
6, 173552, Note_on_c, 5, 64, 113
6, 173648, Note_off_c, 5, 64, 0
6, 173744, Note_on_c, 5, 64, 113
6, 173840, Note_off_c, 5, 64, 0
6, 173936, Note_off_c, 5, 52, 0
6, 173936, Note_off_c, 5, 74, 0
6, 173936, Note_on_c, 5, 64, 82
6, 173936, Note_on_c, 5, 60, 82
6, 173936, Note_on_c, 5, 57, 82
6, 174992, Note_off_c, 5, 57, 0
6, 175088, Note_on_c, 5, 55, 82
6, 176208, Note_off_c, 5, 64, 0
6, 176240, Note_off_c, 5, 55, 0
6, 176240, Note_off_c, 5, 60, 0
6, 176240, Note_on_c, 5, 62, 82
6, 176240, Note_on_c, 5, 57, 82
6, 176240, Note_on_c, 5, 54, 82
6, 176240, Note_on_c, 5, 50, 82
6, 177392, Note_off_c, 5, 50, 0
6, 177392, Note_off_c, 5, 54, 0
6, 177392, Note_off_c, 5, 57, 0
6, 177392, Note_off_c, 5, 62, 0
6, 177392, Note_on_c, 5, 65, 82
6, 177392, Note_on_c, 5, 60, 82
6, 177392, Note_on_c, 5, 57, 82
6, 177392, Note_on_c, 5, 53, 82
6, 178464, Note_off_c, 5, 53, 0
6, 178464, Note_off_c, 5, 57, 0
6, 178464, Note_off_c, 5, 60, 0
6, 178464, Note_off_c, 5, 65, 0
6, 178544, Note_on_c, 5, 57, 82
6, 178640, Note_on_c, 5, 64, 82
6, 178712, Note_off_c, 5, 57, 0
6, 178736, Note_on_c, 5, 69, 82
6, 178736, Note_on_c, 5, 57, 107
6, 178816, Note_off_c, 5, 64, 0
6, 178832, Note_on_c, 5, 64, 82
6, 178912, Note_off_c, 5, 69, 0
6, 178912, Note_off_c, 5, 57, 0
6, 178928, Note_on_c, 5, 69, 82
6, 178928, Note_on_c, 5, 60, 107
6, 179008, Note_off_c, 5, 64, 0
6, 179024, Note_on_c, 5, 64, 82
6, 179104, Note_off_c, 5, 69, 0
6, 179104, Note_off_c, 5, 60, 0
6, 179104, Note_off_c, 5, 64, 0
6, 179120, Note_on_c, 5, 69, 82
6, 179120, Note_on_c, 5, 64, 107
6, 179200, Note_off_c, 5, 64, 0
6, 179216, Note_on_c, 5, 64, 82
6, 179296, Note_off_c, 5, 69, 0
6, 179296, Note_off_c, 5, 64, 0
6, 179312, Note_on_c, 5, 69, 82
6, 179312, Note_on_c, 5, 60, 107
6, 179408, Note_on_c, 5, 64, 82
6, 179488, Note_off_c, 5, 69, 0
6, 179488, Note_off_c, 5, 60, 0
6, 179504, Note_on_c, 5, 69, 82
6, 179504, Note_on_c, 5, 57, 107
6, 179584, Note_off_c, 5, 64, 0
6, 179600, Note_on_c, 5, 64, 82
6, 179680, Note_off_c, 5, 69, 0
6, 179680, Note_off_c, 5, 57, 0
6, 179696, Note_on_c, 5, 52, 82
6, 179776, Note_off_c, 5, 64, 0
6, 179792, Note_on_c, 5, 64, 82
6, 179888, Note_on_c, 5, 68, 82
6, 179888, Note_on_c, 5, 56, 107
6, 179968, Note_off_c, 5, 64, 0
6, 179984, Note_on_c, 5, 64, 82
6, 180064, Note_off_c, 5, 68, 0
6, 180064, Note_off_c, 5, 56, 0
6, 180080, Note_on_c, 5, 68, 82
6, 180080, Note_on_c, 5, 59, 107
6, 180160, Note_off_c, 5, 64, 0
6, 180176, Note_on_c, 5, 64, 82
6, 180256, Note_off_c, 5, 68, 0
6, 180256, Note_off_c, 5, 59, 0
6, 180272, Note_on_c, 5, 68, 82
6, 180272, Note_on_c, 5, 62, 107
6, 180352, Note_off_c, 5, 64, 0
6, 180368, Note_on_c, 5, 64, 82
6, 180448, Note_off_c, 5, 68, 0
6, 180448, Note_off_c, 5, 62, 0
6, 180464, Note_on_c, 5, 68, 82
6, 180464, Note_on_c, 5, 59, 107
6, 180544, Note_off_c, 5, 64, 0
6, 180560, Note_on_c, 5, 64, 82
6, 180640, Note_off_c, 5, 68, 0
6, 180640, Note_off_c, 5, 59, 0
6, 180656, Note_on_c, 5, 68, 82
6, 180656, Note_on_c, 5, 56, 107
6, 180736, Note_off_c, 5, 64, 0
6, 180752, Note_on_c, 5, 64, 82
6, 180832, Note_off_c, 5, 52, 0
6, 180832, Note_off_c, 5, 68, 0
6, 180832, Note_off_c, 5, 56, 0
6, 180848, Note_on_c, 5, 60, 82
6, 180848, Note_on_c, 5, 57, 82
6, 180928, Note_off_c, 5, 64, 0
6, 181040, Note_on_c, 5, 76, 121
6, 181992, Note_off_c, 5, 60, 0
6, 182000, Note_off_c, 5, 57, 0
6, 182000, Note_on_c, 5, 64, 82
6, 182000, Note_on_c, 5, 60, 82
6, 182736, Note_off_c, 5, 76, 0
6, 182768, Note_on_c, 5, 74, 105
6, 182800, Note_on_c, 5, 76, 105
6, 182832, Note_off_c, 5, 74, 0
6, 182928, Note_off_c, 5, 76, 0
6, 182944, Note_on_c, 5, 74, 105
6, 182960, Note_on_c, 5, 76, 105
6, 183024, Note_off_c, 5, 74, 0
6, 183152, Note_off_c, 5, 60, 0
6, 183152, Note_off_c, 5, 64, 0
6, 183152, Note_on_c, 5, 66, 82
6, 183152, Note_on_c, 5, 62, 82
6, 183168, Note_off_c, 5, 76, 0
6, 183168, Note_on_c, 5, 74, 105
6, 183264, Note_on_c, 5, 72, 105
6, 183280, Note_off_c, 5, 74, 0
6, 183328, Note_on_c, 5, 69, 105
6, 183392, Note_off_c, 5, 72, 0
6, 183912, Note_off_c, 5, 69, 0
6, 183952, Note_on_c, 5, 69, 105
6, 184128, Note_on_c, 5, 67, 105
6, 184144, Note_off_c, 5, 69, 0
6, 184304, Note_off_c, 5, 62, 0
6, 184304, Note_off_c, 5, 66, 0
6, 184304, Note_on_c, 5, 65, 82
6, 184304, Note_on_c, 5, 63, 82
6, 184336, Note_on_c, 5, 69, 105
6, 184368, Note_off_c, 5, 67, 0
6, 185040, Note_off_c, 5, 69, 0
6, 185072, Note_on_c, 5, 71, 105
6, 185088, Note_on_c, 5, 72, 105
6, 185136, Note_off_c, 5, 71, 0
6, 185280, Note_on_c, 5, 74, 105
6, 185312, Note_off_c, 5, 72, 0
6, 185456, Note_off_c, 5, 63, 0
6, 185456, Note_off_c, 5, 65, 0
6, 185456, Note_off_c, 5, 74, 0
6, 185456, Note_on_c, 5, 75, 105
6, 185456, Note_on_c, 5, 60, 82
6, 185456, Note_on_c, 5, 57, 82
6, 185504, Note_on_c, 5, 76, 105
6, 185536, Note_off_c, 5, 75, 0
6, 185616, Note_on_c, 5, 81, 105
6, 185648, Note_off_c, 5, 76, 0
6, 186416, Note_on_c, 5, 75, 105
6, 186448, Note_off_c, 5, 81, 0
6, 186464, Note_on_c, 5, 76, 105
6, 186480, Note_off_c, 5, 75, 0
6, 186560, Note_off_c, 5, 76, 0
6, 186608, Note_off_c, 5, 57, 0
6, 186608, Note_off_c, 5, 60, 0
6, 186608, Note_on_c, 5, 75, 105
6, 186608, Note_on_c, 5, 59, 82
6, 186608, Note_on_c, 5, 56, 82
6, 186640, Note_on_c, 5, 76, 105
6, 186688, Note_off_c, 5, 75, 0
6, 186832, Note_on_c, 5, 74, 105
6, 186848, Note_off_c, 5, 76, 0
6, 187184, Note_off_c, 5, 74, 0
6, 187184, Note_on_c, 5, 74, 105
6, 187280, Note_off_c, 5, 74, 0
6, 187280, Note_on_c, 5, 72, 105
6, 187376, Note_on_c, 5, 69, 105
6, 187392, Note_off_c, 5, 72, 0
6, 187568, Note_on_c, 5, 67, 105
6, 187616, Note_off_c, 5, 69, 0
6, 187760, Note_off_c, 5, 56, 0
6, 187760, Note_off_c, 5, 59, 0
6, 187760, Note_off_c, 5, 67, 0
6, 187760, Note_on_c, 5, 69, 106
6, 187760, Note_on_c, 5, 64, 67
6, 187760, Note_on_c, 5, 60, 67
6, 188880, Note_off_c, 5, 69, 0
6, 188912, Note_off_c, 5, 60, 0
6, 188912, Note_off_c, 5, 64, 0
6, 188912, Note_on_c, 5, 65, 67
6, 188912, Note_on_c, 5, 62, 67
6, 189104, Note_on_c, 5, 75, 106
6, 189136, Note_on_c, 5, 76, 106
6, 189152, Note_off_c, 5, 75, 0
6, 189248, Note_off_c, 5, 76, 0
6, 189280, Note_on_c, 5, 75, 106
6, 189312, Note_on_c, 5, 76, 106
6, 189328, Note_off_c, 5, 75, 0
6, 189488, Note_on_c, 5, 74, 106
6, 189520, Note_off_c, 5, 76, 0
6, 189568, Note_off_c, 5, 74, 0
6, 189584, Note_on_c, 5, 72, 106
6, 189680, Note_off_c, 5, 72, 0
6, 189680, Note_on_c, 5, 69, 106
6, 189856, Note_off_c, 5, 69, 0
6, 189872, Note_on_c, 5, 69, 106
6, 190048, Note_off_c, 5, 62, 0
6, 190048, Note_off_c, 5, 65, 0
6, 190048, Note_off_c, 5, 69, 0
6, 190064, Note_on_c, 5, 69, 106
6, 190064, Note_on_c, 5, 64, 67
6, 190064, Note_on_c, 5, 60, 67
6, 191184, Note_off_c, 5, 69, 0
6, 191216, Note_off_c, 5, 60, 0
6, 191216, Note_off_c, 5, 64, 0
6, 191216, Note_on_c, 5, 65, 67
6, 191216, Note_on_c, 5, 62, 67
6, 191408, Note_on_c, 5, 74, 106
6, 191440, Note_on_c, 5, 76, 106
6, 191488, Note_off_c, 5, 74, 0
6, 191568, Note_off_c, 5, 76, 0
6, 191600, Note_on_c, 5, 74, 106
6, 191616, Note_on_c, 5, 76, 106
6, 191664, Note_off_c, 5, 74, 0
6, 191760, Note_off_c, 5, 76, 0
6, 191792, Note_on_c, 5, 76, 106
6, 191984, Note_on_c, 5, 81, 106
6, 192080, Note_off_c, 5, 76, 0
6, 192160, Note_off_c, 5, 81, 0
6, 192176, Note_on_c, 5, 79, 106
6, 192368, Note_off_c, 5, 62, 0
6, 192368, Note_off_c, 5, 65, 0
6, 192368, Note_off_c, 5, 79, 0
6, 192368, Note_on_c, 5, 81, 106
6, 192368, Note_on_c, 5, 64, 67
6, 192368, Note_on_c, 5, 60, 67
6, 193520, Note_off_c, 5, 60, 0
6, 193520, Note_off_c, 5, 64, 0
6, 193520, Note_on_c, 5, 65, 67
6, 193520, Note_on_c, 5, 62, 67
6, 193600, Note_off_c, 5, 81, 0
6, 193712, Note_on_c, 5, 63, 106
6, 193760, Note_on_c, 5, 64, 106
6, 193776, Note_off_c, 5, 63, 0
6, 193904, Note_on_c, 5, 69, 106
6, 193920, Note_off_c, 5, 64, 0
6, 194064, Note_off_c, 5, 69, 0
6, 194096, Note_on_c, 5, 63, 106
6, 194144, Note_on_c, 5, 64, 106
6, 194160, Note_off_c, 5, 63, 0
6, 194192, Note_on_c, 5, 69, 106
6, 194208, Note_off_c, 5, 64, 0
6, 194288, Note_off_c, 5, 69, 0
6, 194288, Note_on_c, 5, 63, 106
6, 194336, Note_on_c, 5, 64, 106
6, 194352, Note_off_c, 5, 63, 0
6, 194384, Note_on_c, 5, 69, 106
6, 194400, Note_off_c, 5, 64, 0
6, 194480, Note_off_c, 5, 69, 0
6, 194480, Note_on_c, 5, 63, 106
6, 194528, Note_on_c, 5, 64, 106
6, 194544, Note_off_c, 5, 63, 0
6, 194576, Note_on_c, 5, 69, 106
6, 194592, Note_off_c, 5, 64, 0
6, 194672, Note_off_c, 5, 62, 0
6, 194672, Note_off_c, 5, 65, 0
6, 194672, Note_off_c, 5, 69, 0
6, 194672, Note_on_c, 5, 62, 106
6, 194672, Note_on_c, 5, 60, 67
6, 194720, Note_on_c, 5, 64, 106
6, 194736, Note_off_c, 5, 62, 0
6, 194864, Note_off_c, 5, 64, 0
6, 194864, Note_on_c, 5, 62, 106
6, 194912, Note_on_c, 5, 64, 106
6, 194928, Note_off_c, 5, 62, 0
6, 195040, Note_off_c, 5, 64, 0
6, 195056, Note_on_c, 5, 62, 106
6, 195104, Note_on_c, 5, 64, 106
6, 195120, Note_off_c, 5, 62, 0
6, 195232, Note_off_c, 5, 64, 0
6, 195248, Note_on_c, 5, 64, 106
6, 195344, Note_on_c, 5, 62, 106
6, 195360, Note_off_c, 5, 64, 0
6, 195424, Note_off_c, 5, 60, 0
6, 195440, Note_on_c, 5, 60, 106
6, 195456, Note_off_c, 5, 62, 0
6, 195632, Note_off_c, 5, 60, 0
6, 195632, Note_on_c, 5, 57, 106
6, 195824, Note_off_c, 5, 57, 0
6, 195824, Note_on_c, 5, 65, 67
6, 195824, Note_on_c, 5, 62, 67
6, 195840, Note_on_c, 5, 64, 106
6, 195904, Note_off_c, 5, 62, 0
6, 196000, Note_off_c, 5, 64, 0
6, 196000, Note_on_c, 5, 62, 106
6, 196032, Note_on_c, 5, 64, 106
6, 196080, Note_off_c, 5, 62, 0
6, 196192, Note_off_c, 5, 64, 0
6, 196208, Note_on_c, 5, 64, 106
6, 196240, Note_on_c, 5, 62, 106
6, 196272, Note_off_c, 5, 64, 0
6, 196400, Note_off_c, 5, 62, 0
6, 196400, Note_on_c, 5, 60, 106
6, 196592, Note_on_c, 5, 57, 106
6, 196608, Note_off_c, 5, 60, 0
6, 196784, Note_on_c, 5, 60, 106
6, 196832, Note_off_c, 5, 57, 0
6, 196944, Note_off_c, 5, 60, 0
6, 196976, Note_off_c, 5, 65, 0
6, 196976, Note_on_c, 5, 62, 106
6, 196976, Note_on_c, 5, 60, 67
6, 197024, Note_on_c, 5, 64, 106
6, 197040, Note_off_c, 5, 62, 0
6, 197160, Note_off_c, 5, 64, 0
6, 197168, Note_on_c, 5, 62, 106
6, 197216, Note_on_c, 5, 64, 106
6, 197232, Note_off_c, 5, 62, 0
6, 197344, Note_off_c, 5, 64, 0
6, 197360, Note_on_c, 5, 62, 106
6, 197408, Note_on_c, 5, 64, 106
6, 197424, Note_off_c, 5, 62, 0
6, 197536, Note_off_c, 5, 64, 0
6, 197552, Note_on_c, 5, 62, 106
6, 197720, Note_off_c, 5, 60, 0
6, 197744, Note_off_c, 5, 62, 0
6, 197744, Note_on_c, 5, 60, 106
6, 197936, Note_off_c, 5, 60, 0
6, 197936, Note_on_c, 5, 57, 106
6, 198128, Note_off_c, 5, 57, 0
6, 198128, Note_on_c, 5, 65, 67
6, 198128, Note_on_c, 5, 62, 67
6, 198144, Note_on_c, 5, 64, 106
6, 198208, Note_off_c, 5, 62, 0
6, 198304, Note_off_c, 5, 64, 0
6, 198304, Note_on_c, 5, 62, 106
6, 198336, Note_on_c, 5, 64, 106
6, 198384, Note_off_c, 5, 62, 0
6, 198496, Note_off_c, 5, 64, 0
6, 198512, Note_on_c, 5, 62, 106
6, 198544, Note_on_c, 5, 64, 106
6, 198576, Note_off_c, 5, 62, 0
6, 198656, Note_off_c, 5, 64, 0
6, 198704, Note_on_c, 5, 62, 106
6, 199088, Note_off_c, 5, 62, 0
6, 199088, Note_on_c, 5, 60, 106
6, 199264, Note_off_c, 5, 65, 0
6, 199264, Note_off_c, 5, 60, 0
6, 199280, Note_on_c, 5, 57, 92
6, 199504, Note_on_c, 5, 60, 92
6, 199760, Note_on_c, 5, 64, 92
6, 200000, Note_on_c, 5, 67, 92
6, 200240, Note_off_c, 5, 57, 0
6, 200240, Note_on_c, 5, 71, 92
6, 202736, Note_off_c, 5, 60, 0
6, 202736, Note_off_c, 5, 64, 0
6, 202736, Note_off_c, 5, 67, 0
6, 202736, Note_off_c, 5, 71, 0
6, 202736, End_track
7, 0, Start_track
7, 0, Title_t, "Drums               "
7, 0, Control_c, 9, 0, 1
7, 0, Program_c, 9, 0
7, 0, Control_c, 9, 7, 127
7, 0, Control_c, 9, 10, 64
7, 0, Control_c, 9, 91, 42
7, 0, Control_c, 9, 93, 37
7, 0, Key_signature, 0, "major"
7, 1152, Note_on_c, 9, 42, 85
7, 1168, Note_off_c, 9, 42, 0
7, 1728, Note_on_c, 9, 42, 67
7, 1744, Note_off_c, 9, 42, 0
7, 2304, Note_on_c, 9, 42, 67
7, 2320, Note_off_c, 9, 42, 0
7, 2880, Note_on_c, 9, 42, 67
7, 2896, Note_off_c, 9, 42, 0
7, 12672, Note_on_c, 9, 35, 107
7, 12672, Note_on_c, 9, 51, 107
7, 12688, Note_off_c, 9, 35, 0
7, 12688, Note_off_c, 9, 51, 0
7, 12864, Note_on_c, 9, 51, 67
7, 12880, Note_off_c, 9, 51, 0
7, 12960, Note_on_c, 9, 51, 67
7, 12976, Note_off_c, 9, 51, 0
7, 13056, Note_on_c, 9, 51, 77
7, 13072, Note_off_c, 9, 51, 0
7, 13248, Note_on_c, 9, 38, 97
7, 13248, Note_on_c, 9, 51, 97
7, 13264, Note_off_c, 9, 38, 0
7, 13264, Note_off_c, 9, 51, 0
7, 13440, Note_on_c, 9, 35, 107
7, 13440, Note_on_c, 9, 51, 67
7, 13456, Note_off_c, 9, 35, 0
7, 13456, Note_off_c, 9, 51, 0
7, 13632, Note_on_c, 9, 35, 107
7, 13632, Note_on_c, 9, 51, 87
7, 13648, Note_off_c, 9, 35, 0
7, 13648, Note_off_c, 9, 51, 0
7, 13824, Note_on_c, 9, 35, 107
7, 13824, Note_on_c, 9, 51, 107
7, 13840, Note_off_c, 9, 35, 0
7, 13840, Note_off_c, 9, 51, 0
7, 14016, Note_on_c, 9, 51, 67
7, 14032, Note_off_c, 9, 51, 0
7, 14112, Note_on_c, 9, 51, 67
7, 14128, Note_off_c, 9, 51, 0
7, 14208, Note_on_c, 9, 51, 77
7, 14224, Note_off_c, 9, 51, 0
7, 14400, Note_on_c, 9, 38, 97
7, 14400, Note_on_c, 9, 51, 97
7, 14416, Note_off_c, 9, 38, 0
7, 14416, Note_off_c, 9, 51, 0
7, 14592, Note_on_c, 9, 35, 107
7, 14592, Note_on_c, 9, 51, 67
7, 14608, Note_off_c, 9, 35, 0
7, 14608, Note_off_c, 9, 51, 0
7, 14784, Note_on_c, 9, 35, 107
7, 14784, Note_on_c, 9, 51, 87
7, 14800, Note_off_c, 9, 35, 0
7, 14800, Note_off_c, 9, 51, 0
7, 14976, Note_on_c, 9, 35, 107
7, 14976, Note_on_c, 9, 51, 107
7, 14992, Note_off_c, 9, 35, 0
7, 14992, Note_off_c, 9, 51, 0
7, 15168, Note_on_c, 9, 51, 67
7, 15184, Note_off_c, 9, 51, 0
7, 15264, Note_on_c, 9, 51, 67
7, 15280, Note_off_c, 9, 51, 0
7, 15360, Note_on_c, 9, 51, 77
7, 15376, Note_off_c, 9, 51, 0
7, 15552, Note_on_c, 9, 38, 97
7, 15552, Note_on_c, 9, 51, 97
7, 15568, Note_off_c, 9, 38, 0
7, 15568, Note_off_c, 9, 51, 0
7, 15744, Note_on_c, 9, 35, 107
7, 15744, Note_on_c, 9, 51, 67
7, 15760, Note_off_c, 9, 35, 0
7, 15760, Note_off_c, 9, 51, 0
7, 15936, Note_on_c, 9, 35, 107
7, 15936, Note_on_c, 9, 51, 87
7, 15952, Note_off_c, 9, 35, 0
7, 15952, Note_off_c, 9, 51, 0
7, 16128, Note_on_c, 9, 35, 107
7, 16128, Note_on_c, 9, 51, 107
7, 16144, Note_off_c, 9, 35, 0
7, 16144, Note_off_c, 9, 51, 0
7, 16320, Note_on_c, 9, 51, 67
7, 16336, Note_off_c, 9, 51, 0
7, 16416, Note_on_c, 9, 51, 67
7, 16432, Note_off_c, 9, 51, 0
7, 16512, Note_on_c, 9, 51, 77
7, 16528, Note_off_c, 9, 51, 0
7, 16704, Note_on_c, 9, 38, 97
7, 16704, Note_on_c, 9, 51, 97
7, 16720, Note_off_c, 9, 38, 0
7, 16720, Note_off_c, 9, 51, 0
7, 16896, Note_on_c, 9, 35, 107
7, 16896, Note_on_c, 9, 51, 67
7, 16912, Note_off_c, 9, 35, 0
7, 16912, Note_off_c, 9, 51, 0
7, 17088, Note_on_c, 9, 35, 107
7, 17088, Note_on_c, 9, 51, 87
7, 17104, Note_off_c, 9, 35, 0
7, 17104, Note_off_c, 9, 51, 0
7, 17280, Note_on_c, 9, 35, 107
7, 17280, Note_on_c, 9, 51, 107
7, 17296, Note_off_c, 9, 35, 0
7, 17296, Note_off_c, 9, 51, 0
7, 17472, Note_on_c, 9, 51, 67
7, 17488, Note_off_c, 9, 51, 0
7, 17568, Note_on_c, 9, 51, 67
7, 17584, Note_off_c, 9, 51, 0
7, 17664, Note_on_c, 9, 51, 77
7, 17680, Note_off_c, 9, 51, 0
7, 17856, Note_on_c, 9, 38, 97
7, 17856, Note_on_c, 9, 51, 97
7, 17872, Note_off_c, 9, 38, 0
7, 17872, Note_off_c, 9, 51, 0
7, 18048, Note_on_c, 9, 35, 107
7, 18048, Note_on_c, 9, 51, 67
7, 18064, Note_off_c, 9, 35, 0
7, 18064, Note_off_c, 9, 51, 0
7, 18240, Note_on_c, 9, 35, 107
7, 18240, Note_on_c, 9, 51, 87
7, 18256, Note_off_c, 9, 35, 0
7, 18256, Note_off_c, 9, 51, 0
7, 18432, Note_on_c, 9, 35, 107
7, 18432, Note_on_c, 9, 51, 107
7, 18448, Note_off_c, 9, 35, 0
7, 18448, Note_off_c, 9, 51, 0
7, 18624, Note_on_c, 9, 51, 67
7, 18640, Note_off_c, 9, 51, 0
7, 18720, Note_on_c, 9, 51, 67
7, 18736, Note_off_c, 9, 51, 0
7, 18816, Note_on_c, 9, 51, 77
7, 18832, Note_off_c, 9, 51, 0
7, 19008, Note_on_c, 9, 38, 97
7, 19008, Note_on_c, 9, 51, 97
7, 19024, Note_off_c, 9, 38, 0
7, 19024, Note_off_c, 9, 51, 0
7, 19200, Note_on_c, 9, 35, 107
7, 19200, Note_on_c, 9, 51, 67
7, 19216, Note_off_c, 9, 35, 0
7, 19216, Note_off_c, 9, 51, 0
7, 19392, Note_on_c, 9, 35, 107
7, 19392, Note_on_c, 9, 51, 87
7, 19408, Note_off_c, 9, 35, 0
7, 19408, Note_off_c, 9, 51, 0
7, 19584, Note_on_c, 9, 35, 107
7, 19584, Note_on_c, 9, 51, 107
7, 19600, Note_off_c, 9, 35, 0
7, 19600, Note_off_c, 9, 51, 0
7, 19776, Note_on_c, 9, 51, 67
7, 19792, Note_off_c, 9, 51, 0
7, 19872, Note_on_c, 9, 51, 67
7, 19888, Note_off_c, 9, 51, 0
7, 19968, Note_on_c, 9, 51, 77
7, 19984, Note_off_c, 9, 51, 0
7, 20160, Note_on_c, 9, 38, 97
7, 20160, Note_on_c, 9, 51, 97
7, 20176, Note_off_c, 9, 38, 0
7, 20176, Note_off_c, 9, 51, 0
7, 20352, Note_on_c, 9, 35, 107
7, 20352, Note_on_c, 9, 51, 67
7, 20368, Note_off_c, 9, 35, 0
7, 20368, Note_off_c, 9, 51, 0
7, 20544, Note_on_c, 9, 35, 107
7, 20544, Note_on_c, 9, 51, 87
7, 20560, Note_off_c, 9, 35, 0
7, 20560, Note_off_c, 9, 51, 0
7, 20736, Note_on_c, 9, 35, 107
7, 20736, Note_on_c, 9, 51, 107
7, 20752, Note_off_c, 9, 35, 0
7, 20752, Note_off_c, 9, 51, 0
7, 20928, Note_on_c, 9, 51, 67
7, 20944, Note_off_c, 9, 51, 0
7, 21024, Note_on_c, 9, 51, 67
7, 21040, Note_off_c, 9, 51, 0
7, 21120, Note_on_c, 9, 51, 77
7, 21136, Note_off_c, 9, 51, 0
7, 21312, Note_on_c, 9, 38, 97
7, 21312, Note_on_c, 9, 51, 97
7, 21328, Note_off_c, 9, 38, 0
7, 21328, Note_off_c, 9, 51, 0
7, 21504, Note_on_c, 9, 35, 107
7, 21504, Note_on_c, 9, 51, 67
7, 21520, Note_off_c, 9, 35, 0
7, 21520, Note_off_c, 9, 51, 0
7, 21696, Note_on_c, 9, 35, 107
7, 21696, Note_on_c, 9, 51, 87
7, 21712, Note_off_c, 9, 35, 0
7, 21712, Note_off_c, 9, 51, 0
7, 21888, Note_on_c, 9, 35, 107
7, 21888, Note_on_c, 9, 51, 107
7, 21904, Note_off_c, 9, 35, 0
7, 21904, Note_off_c, 9, 51, 0
7, 22080, Note_on_c, 9, 51, 67
7, 22096, Note_off_c, 9, 51, 0
7, 22176, Note_on_c, 9, 51, 67
7, 22192, Note_off_c, 9, 51, 0
7, 22272, Note_on_c, 9, 51, 77
7, 22288, Note_off_c, 9, 51, 0
7, 22464, Note_on_c, 9, 38, 97
7, 22464, Note_on_c, 9, 51, 97
7, 22480, Note_off_c, 9, 38, 0
7, 22480, Note_off_c, 9, 51, 0
7, 22656, Note_on_c, 9, 35, 107
7, 22656, Note_on_c, 9, 51, 67
7, 22672, Note_off_c, 9, 35, 0
7, 22672, Note_off_c, 9, 51, 0
7, 22848, Note_on_c, 9, 35, 107
7, 22848, Note_on_c, 9, 51, 87
7, 22864, Note_off_c, 9, 35, 0
7, 22864, Note_off_c, 9, 51, 0
7, 23040, Note_on_c, 9, 35, 107
7, 23040, Note_on_c, 9, 51, 107
7, 23056, Note_off_c, 9, 35, 0
7, 23056, Note_off_c, 9, 51, 0
7, 23232, Note_on_c, 9, 51, 67
7, 23248, Note_off_c, 9, 51, 0
7, 23328, Note_on_c, 9, 51, 67
7, 23344, Note_off_c, 9, 51, 0
7, 23424, Note_on_c, 9, 51, 77
7, 23440, Note_off_c, 9, 51, 0
7, 23616, Note_on_c, 9, 38, 97
7, 23616, Note_on_c, 9, 51, 97
7, 23632, Note_off_c, 9, 38, 0
7, 23632, Note_off_c, 9, 51, 0
7, 23808, Note_on_c, 9, 35, 107
7, 23808, Note_on_c, 9, 51, 67
7, 23824, Note_off_c, 9, 35, 0
7, 23824, Note_off_c, 9, 51, 0
7, 24000, Note_on_c, 9, 35, 107
7, 24000, Note_on_c, 9, 51, 87
7, 24016, Note_off_c, 9, 35, 0
7, 24016, Note_off_c, 9, 51, 0
7, 24192, Note_on_c, 9, 35, 107
7, 24192, Note_on_c, 9, 51, 107
7, 24208, Note_off_c, 9, 35, 0
7, 24208, Note_off_c, 9, 51, 0
7, 24384, Note_on_c, 9, 51, 67
7, 24400, Note_off_c, 9, 51, 0
7, 24480, Note_on_c, 9, 51, 67
7, 24496, Note_off_c, 9, 51, 0
7, 24576, Note_on_c, 9, 51, 77
7, 24592, Note_off_c, 9, 51, 0
7, 24768, Note_on_c, 9, 38, 97
7, 24768, Note_on_c, 9, 51, 97
7, 24784, Note_off_c, 9, 38, 0
7, 24784, Note_off_c, 9, 51, 0
7, 24960, Note_on_c, 9, 35, 107
7, 24960, Note_on_c, 9, 51, 67
7, 24976, Note_off_c, 9, 35, 0
7, 24976, Note_off_c, 9, 51, 0
7, 25152, Note_on_c, 9, 35, 107
7, 25152, Note_on_c, 9, 51, 87
7, 25168, Note_off_c, 9, 35, 0
7, 25168, Note_off_c, 9, 51, 0
7, 25344, Note_on_c, 9, 35, 107
7, 25344, Note_on_c, 9, 51, 107
7, 25360, Note_off_c, 9, 35, 0
7, 25360, Note_off_c, 9, 51, 0
7, 25536, Note_on_c, 9, 51, 67
7, 25552, Note_off_c, 9, 51, 0
7, 25632, Note_on_c, 9, 51, 67
7, 25648, Note_off_c, 9, 51, 0
7, 25728, Note_on_c, 9, 51, 77
7, 25744, Note_off_c, 9, 51, 0
7, 25920, Note_on_c, 9, 38, 97
7, 25920, Note_on_c, 9, 51, 97
7, 25936, Note_off_c, 9, 38, 0
7, 25936, Note_off_c, 9, 51, 0
7, 26112, Note_on_c, 9, 35, 107
7, 26112, Note_on_c, 9, 51, 67
7, 26128, Note_off_c, 9, 35, 0
7, 26128, Note_off_c, 9, 51, 0
7, 26304, Note_on_c, 9, 35, 107
7, 26304, Note_on_c, 9, 51, 87
7, 26320, Note_off_c, 9, 35, 0
7, 26320, Note_off_c, 9, 51, 0
7, 26496, Note_on_c, 9, 35, 107
7, 26496, Note_on_c, 9, 51, 107
7, 26512, Note_off_c, 9, 35, 0
7, 26512, Note_off_c, 9, 51, 0
7, 26688, Note_on_c, 9, 51, 67
7, 26704, Note_off_c, 9, 51, 0
7, 26784, Note_on_c, 9, 51, 67
7, 26800, Note_off_c, 9, 51, 0
7, 26880, Note_on_c, 9, 51, 77
7, 26896, Note_off_c, 9, 51, 0
7, 27072, Note_on_c, 9, 38, 97
7, 27072, Note_on_c, 9, 51, 97
7, 27088, Note_off_c, 9, 38, 0
7, 27088, Note_off_c, 9, 51, 0
7, 27264, Note_on_c, 9, 35, 107
7, 27264, Note_on_c, 9, 51, 67
7, 27280, Note_off_c, 9, 35, 0
7, 27280, Note_off_c, 9, 51, 0
7, 27456, Note_on_c, 9, 35, 107
7, 27456, Note_on_c, 9, 51, 87
7, 27472, Note_off_c, 9, 35, 0
7, 27472, Note_off_c, 9, 51, 0
7, 27648, Note_on_c, 9, 35, 107
7, 27648, Note_on_c, 9, 51, 107
7, 27664, Note_off_c, 9, 35, 0
7, 27664, Note_off_c, 9, 51, 0
7, 27840, Note_on_c, 9, 51, 67
7, 27856, Note_off_c, 9, 51, 0
7, 27936, Note_on_c, 9, 51, 67
7, 27952, Note_off_c, 9, 51, 0
7, 28032, Note_on_c, 9, 51, 77
7, 28048, Note_off_c, 9, 51, 0
7, 28224, Note_on_c, 9, 38, 97
7, 28224, Note_on_c, 9, 51, 97
7, 28240, Note_off_c, 9, 38, 0
7, 28240, Note_off_c, 9, 51, 0
7, 28416, Note_on_c, 9, 35, 107
7, 28416, Note_on_c, 9, 51, 67
7, 28432, Note_off_c, 9, 35, 0
7, 28432, Note_off_c, 9, 51, 0
7, 28608, Note_on_c, 9, 35, 107
7, 28608, Note_on_c, 9, 51, 87
7, 28624, Note_off_c, 9, 35, 0
7, 28624, Note_off_c, 9, 51, 0
7, 28800, Note_on_c, 9, 35, 107
7, 28800, Note_on_c, 9, 51, 107
7, 28816, Note_off_c, 9, 35, 0
7, 28816, Note_off_c, 9, 51, 0
7, 28992, Note_on_c, 9, 51, 67
7, 29008, Note_off_c, 9, 51, 0
7, 29088, Note_on_c, 9, 51, 67
7, 29104, Note_off_c, 9, 51, 0
7, 29184, Note_on_c, 9, 51, 77
7, 29200, Note_off_c, 9, 51, 0
7, 29376, Note_on_c, 9, 38, 97
7, 29376, Note_on_c, 9, 51, 97
7, 29392, Note_off_c, 9, 38, 0
7, 29392, Note_off_c, 9, 51, 0
7, 29568, Note_on_c, 9, 35, 107
7, 29568, Note_on_c, 9, 51, 67
7, 29584, Note_off_c, 9, 35, 0
7, 29584, Note_off_c, 9, 51, 0
7, 29760, Note_on_c, 9, 35, 107
7, 29760, Note_on_c, 9, 51, 87
7, 29776, Note_off_c, 9, 35, 0
7, 29776, Note_off_c, 9, 51, 0
7, 29952, Note_on_c, 9, 35, 107
7, 29952, Note_on_c, 9, 51, 107
7, 29968, Note_off_c, 9, 35, 0
7, 29968, Note_off_c, 9, 51, 0
7, 30144, Note_on_c, 9, 51, 67
7, 30160, Note_off_c, 9, 51, 0
7, 30240, Note_on_c, 9, 51, 67
7, 30256, Note_off_c, 9, 51, 0
7, 30336, Note_on_c, 9, 51, 77
7, 30352, Note_off_c, 9, 51, 0
7, 30528, Note_on_c, 9, 38, 97
7, 30528, Note_on_c, 9, 51, 97
7, 30544, Note_off_c, 9, 38, 0
7, 30544, Note_off_c, 9, 51, 0
7, 30720, Note_on_c, 9, 35, 107
7, 30720, Note_on_c, 9, 51, 67
7, 30736, Note_off_c, 9, 35, 0
7, 30736, Note_off_c, 9, 51, 0
7, 30912, Note_on_c, 9, 35, 107
7, 30912, Note_on_c, 9, 51, 87
7, 30928, Note_off_c, 9, 35, 0
7, 30928, Note_off_c, 9, 51, 0
7, 31104, Note_on_c, 9, 35, 107
7, 31104, Note_on_c, 9, 51, 107
7, 31120, Note_off_c, 9, 35, 0
7, 31120, Note_off_c, 9, 51, 0
7, 31296, Note_on_c, 9, 51, 67
7, 31312, Note_off_c, 9, 51, 0
7, 31392, Note_on_c, 9, 51, 67
7, 31408, Note_off_c, 9, 51, 0
7, 31488, Note_on_c, 9, 51, 77
7, 31504, Note_off_c, 9, 51, 0
7, 31680, Note_on_c, 9, 38, 97
7, 31680, Note_on_c, 9, 51, 97
7, 31696, Note_off_c, 9, 38, 0
7, 31696, Note_off_c, 9, 51, 0
7, 31872, Note_on_c, 9, 35, 107
7, 31872, Note_on_c, 9, 51, 67
7, 31888, Note_off_c, 9, 35, 0
7, 31888, Note_off_c, 9, 51, 0
7, 32064, Note_on_c, 9, 35, 107
7, 32064, Note_on_c, 9, 51, 87
7, 32080, Note_off_c, 9, 35, 0
7, 32080, Note_off_c, 9, 51, 0
7, 32256, Note_on_c, 9, 35, 107
7, 32256, Note_on_c, 9, 51, 107
7, 32272, Note_off_c, 9, 35, 0
7, 32272, Note_off_c, 9, 51, 0
7, 32448, Note_on_c, 9, 51, 67
7, 32464, Note_off_c, 9, 51, 0
7, 32544, Note_on_c, 9, 51, 67
7, 32560, Note_off_c, 9, 51, 0
7, 32640, Note_on_c, 9, 51, 77
7, 32656, Note_off_c, 9, 51, 0
7, 32832, Note_on_c, 9, 38, 97
7, 32832, Note_on_c, 9, 51, 97
7, 32848, Note_off_c, 9, 38, 0
7, 32848, Note_off_c, 9, 51, 0
7, 33024, Note_on_c, 9, 35, 107
7, 33024, Note_on_c, 9, 51, 67
7, 33040, Note_off_c, 9, 35, 0
7, 33040, Note_off_c, 9, 51, 0
7, 33216, Note_on_c, 9, 35, 107
7, 33216, Note_on_c, 9, 51, 87
7, 33232, Note_off_c, 9, 35, 0
7, 33232, Note_off_c, 9, 51, 0
7, 33408, Note_on_c, 9, 35, 107
7, 33408, Note_on_c, 9, 51, 107
7, 33424, Note_off_c, 9, 35, 0
7, 33424, Note_off_c, 9, 51, 0
7, 33600, Note_on_c, 9, 51, 67
7, 33616, Note_off_c, 9, 51, 0
7, 33696, Note_on_c, 9, 51, 67
7, 33712, Note_off_c, 9, 51, 0
7, 33792, Note_on_c, 9, 51, 77
7, 33808, Note_off_c, 9, 51, 0
7, 33984, Note_on_c, 9, 38, 97
7, 33984, Note_on_c, 9, 51, 97
7, 34000, Note_off_c, 9, 38, 0
7, 34000, Note_off_c, 9, 51, 0
7, 34176, Note_on_c, 9, 35, 107
7, 34176, Note_on_c, 9, 51, 67
7, 34192, Note_off_c, 9, 35, 0
7, 34192, Note_off_c, 9, 51, 0
7, 34368, Note_on_c, 9, 35, 107
7, 34368, Note_on_c, 9, 51, 87
7, 34384, Note_off_c, 9, 35, 0
7, 34384, Note_off_c, 9, 51, 0
7, 34560, Note_on_c, 9, 35, 107
7, 34560, Note_on_c, 9, 51, 107
7, 34576, Note_off_c, 9, 35, 0
7, 34576, Note_off_c, 9, 51, 0
7, 34752, Note_on_c, 9, 51, 67
7, 34768, Note_off_c, 9, 51, 0
7, 34848, Note_on_c, 9, 51, 67
7, 34864, Note_off_c, 9, 51, 0
7, 34944, Note_on_c, 9, 51, 77
7, 34960, Note_off_c, 9, 51, 0
7, 35136, Note_on_c, 9, 38, 97
7, 35136, Note_on_c, 9, 51, 97
7, 35152, Note_off_c, 9, 38, 0
7, 35152, Note_off_c, 9, 51, 0
7, 35328, Note_on_c, 9, 35, 107
7, 35328, Note_on_c, 9, 51, 67
7, 35344, Note_off_c, 9, 35, 0
7, 35344, Note_off_c, 9, 51, 0
7, 35520, Note_on_c, 9, 35, 107
7, 35520, Note_on_c, 9, 51, 87
7, 35536, Note_off_c, 9, 35, 0
7, 35536, Note_off_c, 9, 51, 0
7, 35712, Note_on_c, 9, 35, 107
7, 35712, Note_on_c, 9, 51, 107
7, 35728, Note_off_c, 9, 35, 0
7, 35728, Note_off_c, 9, 51, 0
7, 35904, Note_on_c, 9, 51, 67
7, 35920, Note_off_c, 9, 51, 0
7, 36000, Note_on_c, 9, 51, 67
7, 36016, Note_off_c, 9, 51, 0
7, 36096, Note_on_c, 9, 51, 77
7, 36112, Note_off_c, 9, 51, 0
7, 36288, Note_on_c, 9, 38, 97
7, 36288, Note_on_c, 9, 51, 97
7, 36304, Note_off_c, 9, 38, 0
7, 36304, Note_off_c, 9, 51, 0
7, 36480, Note_on_c, 9, 35, 107
7, 36480, Note_on_c, 9, 51, 67
7, 36496, Note_off_c, 9, 35, 0
7, 36496, Note_off_c, 9, 51, 0
7, 36672, Note_on_c, 9, 35, 107
7, 36672, Note_on_c, 9, 51, 87
7, 36688, Note_off_c, 9, 35, 0
7, 36688, Note_off_c, 9, 51, 0
7, 36864, Note_on_c, 9, 35, 107
7, 36864, Note_on_c, 9, 51, 107
7, 36880, Note_off_c, 9, 35, 0
7, 36880, Note_off_c, 9, 51, 0
7, 37056, Note_on_c, 9, 51, 67
7, 37072, Note_off_c, 9, 51, 0
7, 37152, Note_on_c, 9, 51, 67
7, 37168, Note_off_c, 9, 51, 0
7, 37248, Note_on_c, 9, 51, 77
7, 37264, Note_off_c, 9, 51, 0
7, 37440, Note_on_c, 9, 38, 97
7, 37440, Note_on_c, 9, 51, 97
7, 37456, Note_off_c, 9, 38, 0
7, 37456, Note_off_c, 9, 51, 0
7, 37632, Note_on_c, 9, 35, 107
7, 37632, Note_on_c, 9, 51, 67
7, 37648, Note_off_c, 9, 35, 0
7, 37648, Note_off_c, 9, 51, 0
7, 37824, Note_on_c, 9, 35, 107
7, 37824, Note_on_c, 9, 51, 87
7, 37840, Note_off_c, 9, 35, 0
7, 37840, Note_off_c, 9, 51, 0
7, 38016, Note_on_c, 9, 35, 107
7, 38016, Note_on_c, 9, 51, 107
7, 38032, Note_off_c, 9, 35, 0
7, 38032, Note_off_c, 9, 51, 0
7, 38208, Note_on_c, 9, 51, 67
7, 38224, Note_off_c, 9, 51, 0
7, 38304, Note_on_c, 9, 51, 67
7, 38320, Note_off_c, 9, 51, 0
7, 38400, Note_on_c, 9, 51, 77
7, 38416, Note_off_c, 9, 51, 0
7, 38592, Note_on_c, 9, 38, 97
7, 38592, Note_on_c, 9, 51, 97
7, 38608, Note_off_c, 9, 38, 0
7, 38608, Note_off_c, 9, 51, 0
7, 38784, Note_on_c, 9, 35, 107
7, 38784, Note_on_c, 9, 51, 67
7, 38800, Note_off_c, 9, 35, 0
7, 38800, Note_off_c, 9, 51, 0
7, 38976, Note_on_c, 9, 35, 107
7, 38976, Note_on_c, 9, 51, 87
7, 38992, Note_off_c, 9, 35, 0
7, 38992, Note_off_c, 9, 51, 0
7, 39168, Note_on_c, 9, 35, 107
7, 39168, Note_on_c, 9, 51, 107
7, 39184, Note_off_c, 9, 35, 0
7, 39184, Note_off_c, 9, 51, 0
7, 39360, Note_on_c, 9, 51, 67
7, 39376, Note_off_c, 9, 51, 0
7, 39456, Note_on_c, 9, 51, 67
7, 39472, Note_off_c, 9, 51, 0
7, 39552, Note_on_c, 9, 51, 77
7, 39568, Note_off_c, 9, 51, 0
7, 39744, Note_on_c, 9, 38, 97
7, 39744, Note_on_c, 9, 51, 97
7, 39760, Note_off_c, 9, 38, 0
7, 39760, Note_off_c, 9, 51, 0
7, 39936, Note_on_c, 9, 35, 107
7, 39936, Note_on_c, 9, 51, 67
7, 39952, Note_off_c, 9, 35, 0
7, 39952, Note_off_c, 9, 51, 0
7, 40128, Note_on_c, 9, 35, 107
7, 40128, Note_on_c, 9, 51, 87
7, 40144, Note_off_c, 9, 35, 0
7, 40144, Note_off_c, 9, 51, 0
7, 40320, Note_on_c, 9, 35, 107
7, 40320, Note_on_c, 9, 51, 107
7, 40336, Note_off_c, 9, 35, 0
7, 40336, Note_off_c, 9, 51, 0
7, 40512, Note_on_c, 9, 51, 67
7, 40528, Note_off_c, 9, 51, 0
7, 40608, Note_on_c, 9, 51, 67
7, 40624, Note_off_c, 9, 51, 0
7, 40704, Note_on_c, 9, 51, 77
7, 40720, Note_off_c, 9, 51, 0
7, 40896, Note_on_c, 9, 38, 97
7, 40896, Note_on_c, 9, 51, 97
7, 40912, Note_off_c, 9, 38, 0
7, 40912, Note_off_c, 9, 51, 0
7, 41088, Note_on_c, 9, 35, 107
7, 41088, Note_on_c, 9, 51, 67
7, 41104, Note_off_c, 9, 35, 0
7, 41104, Note_off_c, 9, 51, 0
7, 41280, Note_on_c, 9, 35, 107
7, 41280, Note_on_c, 9, 51, 87
7, 41296, Note_off_c, 9, 35, 0
7, 41296, Note_off_c, 9, 51, 0
7, 41472, Note_on_c, 9, 35, 107
7, 41472, Note_on_c, 9, 51, 107
7, 41488, Note_off_c, 9, 35, 0
7, 41488, Note_off_c, 9, 51, 0
7, 41664, Note_on_c, 9, 51, 67
7, 41680, Note_off_c, 9, 51, 0
7, 41760, Note_on_c, 9, 51, 67
7, 41776, Note_off_c, 9, 51, 0
7, 41856, Note_on_c, 9, 51, 77
7, 41872, Note_off_c, 9, 51, 0
7, 42048, Note_on_c, 9, 38, 97
7, 42048, Note_on_c, 9, 51, 97
7, 42064, Note_off_c, 9, 38, 0
7, 42064, Note_off_c, 9, 51, 0
7, 42240, Note_on_c, 9, 35, 107
7, 42240, Note_on_c, 9, 51, 67
7, 42256, Note_off_c, 9, 35, 0
7, 42256, Note_off_c, 9, 51, 0
7, 42432, Note_on_c, 9, 35, 107
7, 42432, Note_on_c, 9, 51, 87
7, 42448, Note_off_c, 9, 35, 0
7, 42448, Note_off_c, 9, 51, 0
7, 42624, Note_on_c, 9, 35, 107
7, 42624, Note_on_c, 9, 51, 107
7, 42640, Note_off_c, 9, 35, 0
7, 42640, Note_off_c, 9, 51, 0
7, 42816, Note_on_c, 9, 51, 67
7, 42832, Note_off_c, 9, 51, 0
7, 42912, Note_on_c, 9, 51, 67
7, 42928, Note_off_c, 9, 51, 0
7, 43008, Note_on_c, 9, 51, 77
7, 43024, Note_off_c, 9, 51, 0
7, 43200, Note_on_c, 9, 38, 97
7, 43200, Note_on_c, 9, 51, 97
7, 43216, Note_off_c, 9, 38, 0
7, 43216, Note_off_c, 9, 51, 0
7, 43392, Note_on_c, 9, 35, 107
7, 43392, Note_on_c, 9, 51, 67
7, 43408, Note_off_c, 9, 35, 0
7, 43408, Note_off_c, 9, 51, 0
7, 43584, Note_on_c, 9, 35, 107
7, 43584, Note_on_c, 9, 51, 87
7, 43600, Note_off_c, 9, 35, 0
7, 43600, Note_off_c, 9, 51, 0
7, 43776, Note_on_c, 9, 35, 107
7, 43776, Note_on_c, 9, 51, 107
7, 43792, Note_off_c, 9, 35, 0
7, 43792, Note_off_c, 9, 51, 0
7, 43968, Note_on_c, 9, 51, 67
7, 43984, Note_off_c, 9, 51, 0
7, 44064, Note_on_c, 9, 51, 67
7, 44080, Note_off_c, 9, 51, 0
7, 44160, Note_on_c, 9, 51, 77
7, 44176, Note_off_c, 9, 51, 0
7, 44352, Note_on_c, 9, 38, 97
7, 44352, Note_on_c, 9, 51, 97
7, 44368, Note_off_c, 9, 38, 0
7, 44368, Note_off_c, 9, 51, 0
7, 44544, Note_on_c, 9, 35, 107
7, 44544, Note_on_c, 9, 51, 67
7, 44560, Note_off_c, 9, 35, 0
7, 44560, Note_off_c, 9, 51, 0
7, 44736, Note_on_c, 9, 35, 107
7, 44736, Note_on_c, 9, 51, 87
7, 44752, Note_off_c, 9, 35, 0
7, 44752, Note_off_c, 9, 51, 0
7, 44928, Note_on_c, 9, 35, 107
7, 44928, Note_on_c, 9, 51, 107
7, 44944, Note_off_c, 9, 35, 0
7, 44944, Note_off_c, 9, 51, 0
7, 45120, Note_on_c, 9, 51, 67
7, 45136, Note_off_c, 9, 51, 0
7, 45216, Note_on_c, 9, 51, 67
7, 45232, Note_off_c, 9, 51, 0
7, 45312, Note_on_c, 9, 51, 77
7, 45328, Note_off_c, 9, 51, 0
7, 45504, Note_on_c, 9, 38, 97
7, 45504, Note_on_c, 9, 51, 97
7, 45520, Note_off_c, 9, 38, 0
7, 45520, Note_off_c, 9, 51, 0
7, 45696, Note_on_c, 9, 35, 107
7, 45696, Note_on_c, 9, 51, 67
7, 45712, Note_off_c, 9, 35, 0
7, 45712, Note_off_c, 9, 51, 0
7, 45888, Note_on_c, 9, 35, 107
7, 45888, Note_on_c, 9, 51, 87
7, 45904, Note_off_c, 9, 35, 0
7, 45904, Note_off_c, 9, 51, 0
7, 46080, Note_on_c, 9, 35, 107
7, 46080, Note_on_c, 9, 51, 107
7, 46096, Note_off_c, 9, 35, 0
7, 46096, Note_off_c, 9, 51, 0
7, 46272, Note_on_c, 9, 51, 67
7, 46288, Note_off_c, 9, 51, 0
7, 46368, Note_on_c, 9, 51, 67
7, 46384, Note_off_c, 9, 51, 0
7, 46464, Note_on_c, 9, 51, 77
7, 46480, Note_off_c, 9, 51, 0
7, 46656, Note_on_c, 9, 38, 97
7, 46656, Note_on_c, 9, 51, 97
7, 46672, Note_off_c, 9, 38, 0
7, 46672, Note_off_c, 9, 51, 0
7, 46848, Note_on_c, 9, 35, 107
7, 46848, Note_on_c, 9, 51, 67
7, 46864, Note_off_c, 9, 35, 0
7, 46864, Note_off_c, 9, 51, 0
7, 47040, Note_on_c, 9, 35, 107
7, 47040, Note_on_c, 9, 51, 87
7, 47056, Note_off_c, 9, 35, 0
7, 47056, Note_off_c, 9, 51, 0
7, 47232, Note_on_c, 9, 35, 107
7, 47232, Note_on_c, 9, 51, 107
7, 47248, Note_off_c, 9, 35, 0
7, 47248, Note_off_c, 9, 51, 0
7, 47424, Note_on_c, 9, 51, 67
7, 47440, Note_off_c, 9, 51, 0
7, 47520, Note_on_c, 9, 51, 67
7, 47536, Note_off_c, 9, 51, 0
7, 47616, Note_on_c, 9, 51, 77
7, 47632, Note_off_c, 9, 51, 0
7, 47808, Note_on_c, 9, 38, 97
7, 47808, Note_on_c, 9, 51, 97
7, 47824, Note_off_c, 9, 38, 0
7, 47824, Note_off_c, 9, 51, 0
7, 48000, Note_on_c, 9, 35, 107
7, 48000, Note_on_c, 9, 51, 67
7, 48016, Note_off_c, 9, 35, 0
7, 48016, Note_off_c, 9, 51, 0
7, 48192, Note_on_c, 9, 35, 107
7, 48192, Note_on_c, 9, 51, 87
7, 48208, Note_off_c, 9, 35, 0
7, 48208, Note_off_c, 9, 51, 0
7, 48384, Note_on_c, 9, 35, 107
7, 48384, Note_on_c, 9, 51, 107
7, 48400, Note_off_c, 9, 35, 0
7, 48400, Note_off_c, 9, 51, 0
7, 48576, Note_on_c, 9, 51, 67
7, 48592, Note_off_c, 9, 51, 0
7, 48672, Note_on_c, 9, 51, 67
7, 48688, Note_off_c, 9, 51, 0
7, 48768, Note_on_c, 9, 51, 77
7, 48784, Note_off_c, 9, 51, 0
7, 48960, Note_on_c, 9, 38, 97
7, 48960, Note_on_c, 9, 51, 97
7, 48976, Note_off_c, 9, 38, 0
7, 48976, Note_off_c, 9, 51, 0
7, 49152, Note_on_c, 9, 35, 107
7, 49152, Note_on_c, 9, 51, 67
7, 49168, Note_off_c, 9, 35, 0
7, 49168, Note_off_c, 9, 51, 0
7, 49344, Note_on_c, 9, 35, 107
7, 49344, Note_on_c, 9, 51, 87
7, 49360, Note_off_c, 9, 35, 0
7, 49360, Note_off_c, 9, 51, 0
7, 49536, Note_on_c, 9, 35, 107
7, 49536, Note_on_c, 9, 51, 107
7, 49552, Note_off_c, 9, 35, 0
7, 49552, Note_off_c, 9, 51, 0
7, 49728, Note_on_c, 9, 51, 67
7, 49744, Note_off_c, 9, 51, 0
7, 49824, Note_on_c, 9, 51, 67
7, 49840, Note_off_c, 9, 51, 0
7, 49920, Note_on_c, 9, 51, 77
7, 49936, Note_off_c, 9, 51, 0
7, 50112, Note_on_c, 9, 38, 97
7, 50112, Note_on_c, 9, 51, 97
7, 50128, Note_off_c, 9, 38, 0
7, 50128, Note_off_c, 9, 51, 0
7, 50304, Note_on_c, 9, 35, 107
7, 50304, Note_on_c, 9, 51, 67
7, 50320, Note_off_c, 9, 35, 0
7, 50320, Note_off_c, 9, 51, 0
7, 50496, Note_on_c, 9, 35, 107
7, 50496, Note_on_c, 9, 51, 87
7, 50512, Note_off_c, 9, 35, 0
7, 50512, Note_off_c, 9, 51, 0
7, 50688, Note_on_c, 9, 35, 107
7, 50688, Note_on_c, 9, 51, 107
7, 50704, Note_off_c, 9, 35, 0
7, 50704, Note_off_c, 9, 51, 0
7, 50880, Note_on_c, 9, 51, 67
7, 50896, Note_off_c, 9, 51, 0
7, 50976, Note_on_c, 9, 51, 67
7, 50992, Note_off_c, 9, 51, 0
7, 51072, Note_on_c, 9, 51, 77
7, 51088, Note_off_c, 9, 51, 0
7, 51264, Note_on_c, 9, 38, 97
7, 51264, Note_on_c, 9, 51, 97
7, 51280, Note_off_c, 9, 38, 0
7, 51280, Note_off_c, 9, 51, 0
7, 51456, Note_on_c, 9, 35, 107
7, 51456, Note_on_c, 9, 51, 67
7, 51472, Note_off_c, 9, 35, 0
7, 51472, Note_off_c, 9, 51, 0
7, 51648, Note_on_c, 9, 35, 107
7, 51648, Note_on_c, 9, 51, 87
7, 51664, Note_off_c, 9, 35, 0
7, 51664, Note_off_c, 9, 51, 0
7, 51840, Note_on_c, 9, 35, 107
7, 51840, Note_on_c, 9, 51, 107
7, 51856, Note_off_c, 9, 35, 0
7, 51856, Note_off_c, 9, 51, 0
7, 52032, Note_on_c, 9, 51, 67
7, 52048, Note_off_c, 9, 51, 0
7, 52128, Note_on_c, 9, 51, 67
7, 52144, Note_off_c, 9, 51, 0
7, 52224, Note_on_c, 9, 51, 77
7, 52240, Note_off_c, 9, 51, 0
7, 52416, Note_on_c, 9, 38, 97
7, 52416, Note_on_c, 9, 51, 97
7, 52432, Note_off_c, 9, 38, 0
7, 52432, Note_off_c, 9, 51, 0
7, 52608, Note_on_c, 9, 35, 107
7, 52608, Note_on_c, 9, 51, 67
7, 52624, Note_off_c, 9, 35, 0
7, 52624, Note_off_c, 9, 51, 0
7, 52800, Note_on_c, 9, 35, 107
7, 52800, Note_on_c, 9, 51, 87
7, 52816, Note_off_c, 9, 35, 0
7, 52816, Note_off_c, 9, 51, 0
7, 52992, Note_on_c, 9, 35, 107
7, 52992, Note_on_c, 9, 51, 107
7, 53008, Note_off_c, 9, 35, 0
7, 53008, Note_off_c, 9, 51, 0
7, 53184, Note_on_c, 9, 51, 67
7, 53200, Note_off_c, 9, 51, 0
7, 53280, Note_on_c, 9, 51, 67
7, 53296, Note_off_c, 9, 51, 0
7, 53376, Note_on_c, 9, 51, 77
7, 53392, Note_off_c, 9, 51, 0
7, 53568, Note_on_c, 9, 38, 97
7, 53568, Note_on_c, 9, 51, 97
7, 53584, Note_off_c, 9, 38, 0
7, 53584, Note_off_c, 9, 51, 0
7, 53760, Note_on_c, 9, 35, 107
7, 53760, Note_on_c, 9, 51, 67
7, 53776, Note_off_c, 9, 35, 0
7, 53776, Note_off_c, 9, 51, 0
7, 53952, Note_on_c, 9, 35, 107
7, 53952, Note_on_c, 9, 51, 87
7, 53968, Note_off_c, 9, 35, 0
7, 53968, Note_off_c, 9, 51, 0
7, 54144, Note_on_c, 9, 35, 107
7, 54144, Note_on_c, 9, 51, 107
7, 54160, Note_off_c, 9, 35, 0
7, 54160, Note_off_c, 9, 51, 0
7, 54336, Note_on_c, 9, 51, 67
7, 54352, Note_off_c, 9, 51, 0
7, 54432, Note_on_c, 9, 51, 67
7, 54448, Note_off_c, 9, 51, 0
7, 54528, Note_on_c, 9, 51, 77
7, 54544, Note_off_c, 9, 51, 0
7, 54720, Note_on_c, 9, 38, 97
7, 54720, Note_on_c, 9, 51, 97
7, 54736, Note_off_c, 9, 38, 0
7, 54736, Note_off_c, 9, 51, 0
7, 54912, Note_on_c, 9, 35, 107
7, 54912, Note_on_c, 9, 51, 67
7, 54928, Note_off_c, 9, 35, 0
7, 54928, Note_off_c, 9, 51, 0
7, 55104, Note_on_c, 9, 35, 107
7, 55104, Note_on_c, 9, 51, 87
7, 55120, Note_off_c, 9, 35, 0
7, 55120, Note_off_c, 9, 51, 0
7, 55296, Note_on_c, 9, 35, 107
7, 55296, Note_on_c, 9, 51, 107
7, 55312, Note_off_c, 9, 35, 0
7, 55312, Note_off_c, 9, 51, 0
7, 55488, Note_on_c, 9, 51, 67
7, 55504, Note_off_c, 9, 51, 0
7, 55584, Note_on_c, 9, 51, 67
7, 55600, Note_off_c, 9, 51, 0
7, 55680, Note_on_c, 9, 51, 77
7, 55696, Note_off_c, 9, 51, 0
7, 55872, Note_on_c, 9, 38, 97
7, 55872, Note_on_c, 9, 51, 97
7, 55888, Note_off_c, 9, 38, 0
7, 55888, Note_off_c, 9, 51, 0
7, 56064, Note_on_c, 9, 35, 107
7, 56064, Note_on_c, 9, 51, 67
7, 56080, Note_off_c, 9, 35, 0
7, 56080, Note_off_c, 9, 51, 0
7, 56256, Note_on_c, 9, 35, 107
7, 56256, Note_on_c, 9, 51, 87
7, 56272, Note_off_c, 9, 35, 0
7, 56272, Note_off_c, 9, 51, 0
7, 56448, Note_on_c, 9, 35, 107
7, 56448, Note_on_c, 9, 51, 107
7, 56464, Note_off_c, 9, 35, 0
7, 56464, Note_off_c, 9, 51, 0
7, 56640, Note_on_c, 9, 51, 67
7, 56656, Note_off_c, 9, 51, 0
7, 56736, Note_on_c, 9, 51, 67
7, 56752, Note_off_c, 9, 51, 0
7, 56832, Note_on_c, 9, 51, 77
7, 56848, Note_off_c, 9, 51, 0
7, 57024, Note_on_c, 9, 38, 97
7, 57024, Note_on_c, 9, 51, 97
7, 57040, Note_off_c, 9, 38, 0
7, 57040, Note_off_c, 9, 51, 0
7, 57216, Note_on_c, 9, 35, 107
7, 57216, Note_on_c, 9, 51, 67
7, 57232, Note_off_c, 9, 35, 0
7, 57232, Note_off_c, 9, 51, 0
7, 57408, Note_on_c, 9, 35, 107
7, 57408, Note_on_c, 9, 51, 87
7, 57424, Note_off_c, 9, 35, 0
7, 57424, Note_off_c, 9, 51, 0
7, 57600, Note_on_c, 9, 35, 107
7, 57600, Note_on_c, 9, 51, 107
7, 57616, Note_off_c, 9, 35, 0
7, 57616, Note_off_c, 9, 51, 0
7, 57792, Note_on_c, 9, 51, 67
7, 57808, Note_off_c, 9, 51, 0
7, 57888, Note_on_c, 9, 51, 67
7, 57904, Note_off_c, 9, 51, 0
7, 57984, Note_on_c, 9, 51, 77
7, 58000, Note_off_c, 9, 51, 0
7, 58176, Note_on_c, 9, 38, 97
7, 58176, Note_on_c, 9, 51, 97
7, 58192, Note_off_c, 9, 38, 0
7, 58192, Note_off_c, 9, 51, 0
7, 58368, Note_on_c, 9, 35, 107
7, 58368, Note_on_c, 9, 51, 67
7, 58384, Note_off_c, 9, 35, 0
7, 58384, Note_off_c, 9, 51, 0
7, 58560, Note_on_c, 9, 35, 107
7, 58560, Note_on_c, 9, 51, 87
7, 58576, Note_off_c, 9, 35, 0
7, 58576, Note_off_c, 9, 51, 0
7, 58752, Note_on_c, 9, 35, 107
7, 58752, Note_on_c, 9, 51, 107
7, 58768, Note_off_c, 9, 35, 0
7, 58768, Note_off_c, 9, 51, 0
7, 58944, Note_on_c, 9, 51, 67
7, 58960, Note_off_c, 9, 51, 0
7, 59040, Note_on_c, 9, 51, 67
7, 59056, Note_off_c, 9, 51, 0
7, 59136, Note_on_c, 9, 51, 77
7, 59152, Note_off_c, 9, 51, 0
7, 59328, Note_on_c, 9, 38, 97
7, 59328, Note_on_c, 9, 51, 97
7, 59344, Note_off_c, 9, 38, 0
7, 59344, Note_off_c, 9, 51, 0
7, 59520, Note_on_c, 9, 35, 107
7, 59520, Note_on_c, 9, 51, 67
7, 59536, Note_off_c, 9, 35, 0
7, 59536, Note_off_c, 9, 51, 0
7, 59712, Note_on_c, 9, 35, 107
7, 59712, Note_on_c, 9, 51, 87
7, 59728, Note_off_c, 9, 35, 0
7, 59728, Note_off_c, 9, 51, 0
7, 59904, Note_on_c, 9, 35, 107
7, 59904, Note_on_c, 9, 51, 107
7, 59920, Note_off_c, 9, 35, 0
7, 59920, Note_off_c, 9, 51, 0
7, 60096, Note_on_c, 9, 51, 67
7, 60112, Note_off_c, 9, 51, 0
7, 60192, Note_on_c, 9, 51, 67
7, 60208, Note_off_c, 9, 51, 0
7, 60288, Note_on_c, 9, 51, 77
7, 60304, Note_off_c, 9, 51, 0
7, 60480, Note_on_c, 9, 38, 97
7, 60480, Note_on_c, 9, 51, 97
7, 60496, Note_off_c, 9, 38, 0
7, 60496, Note_off_c, 9, 51, 0
7, 60672, Note_on_c, 9, 35, 107
7, 60672, Note_on_c, 9, 51, 67
7, 60688, Note_off_c, 9, 35, 0
7, 60688, Note_off_c, 9, 51, 0
7, 60864, Note_on_c, 9, 35, 107
7, 60864, Note_on_c, 9, 51, 87
7, 60880, Note_off_c, 9, 35, 0
7, 60880, Note_off_c, 9, 51, 0
7, 61056, Note_on_c, 9, 35, 107
7, 61056, Note_on_c, 9, 51, 107
7, 61072, Note_off_c, 9, 35, 0
7, 61072, Note_off_c, 9, 51, 0
7, 61248, Note_on_c, 9, 51, 67
7, 61264, Note_off_c, 9, 51, 0
7, 61344, Note_on_c, 9, 51, 67
7, 61360, Note_off_c, 9, 51, 0
7, 61440, Note_on_c, 9, 51, 77
7, 61456, Note_off_c, 9, 51, 0
7, 61632, Note_on_c, 9, 38, 97
7, 61632, Note_on_c, 9, 51, 97
7, 61648, Note_off_c, 9, 38, 0
7, 61648, Note_off_c, 9, 51, 0
7, 61824, Note_on_c, 9, 35, 107
7, 61824, Note_on_c, 9, 51, 67
7, 61840, Note_off_c, 9, 35, 0
7, 61840, Note_off_c, 9, 51, 0
7, 62016, Note_on_c, 9, 35, 107
7, 62016, Note_on_c, 9, 51, 87
7, 62032, Note_off_c, 9, 35, 0
7, 62032, Note_off_c, 9, 51, 0
7, 62208, Note_on_c, 9, 35, 107
7, 62208, Note_on_c, 9, 51, 107
7, 62224, Note_off_c, 9, 35, 0
7, 62224, Note_off_c, 9, 51, 0
7, 62400, Note_on_c, 9, 51, 67
7, 62416, Note_off_c, 9, 51, 0
7, 62496, Note_on_c, 9, 51, 67
7, 62512, Note_off_c, 9, 51, 0
7, 62592, Note_on_c, 9, 51, 77
7, 62608, Note_off_c, 9, 51, 0
7, 62784, Note_on_c, 9, 38, 97
7, 62784, Note_on_c, 9, 51, 97
7, 62800, Note_off_c, 9, 38, 0
7, 62800, Note_off_c, 9, 51, 0
7, 62976, Note_on_c, 9, 35, 107
7, 62976, Note_on_c, 9, 51, 67
7, 62992, Note_off_c, 9, 35, 0
7, 62992, Note_off_c, 9, 51, 0
7, 63168, Note_on_c, 9, 35, 107
7, 63168, Note_on_c, 9, 51, 87
7, 63184, Note_off_c, 9, 35, 0
7, 63184, Note_off_c, 9, 51, 0
7, 63360, Note_on_c, 9, 35, 107
7, 63360, Note_on_c, 9, 51, 107
7, 63376, Note_off_c, 9, 35, 0
7, 63376, Note_off_c, 9, 51, 0
7, 63552, Note_on_c, 9, 51, 67
7, 63568, Note_off_c, 9, 51, 0
7, 63648, Note_on_c, 9, 51, 67
7, 63664, Note_off_c, 9, 51, 0
7, 63744, Note_on_c, 9, 51, 77
7, 63760, Note_off_c, 9, 51, 0
7, 63936, Note_on_c, 9, 38, 97
7, 63936, Note_on_c, 9, 51, 97
7, 63952, Note_off_c, 9, 38, 0
7, 63952, Note_off_c, 9, 51, 0
7, 64128, Note_on_c, 9, 35, 107
7, 64128, Note_on_c, 9, 51, 67
7, 64144, Note_off_c, 9, 35, 0
7, 64144, Note_off_c, 9, 51, 0
7, 64320, Note_on_c, 9, 35, 107
7, 64320, Note_on_c, 9, 51, 87
7, 64336, Note_off_c, 9, 35, 0
7, 64336, Note_off_c, 9, 51, 0
7, 64512, Note_on_c, 9, 35, 107
7, 64512, Note_on_c, 9, 51, 107
7, 64528, Note_off_c, 9, 35, 0
7, 64528, Note_off_c, 9, 51, 0
7, 64704, Note_on_c, 9, 51, 67
7, 64720, Note_off_c, 9, 51, 0
7, 64800, Note_on_c, 9, 51, 67
7, 64816, Note_off_c, 9, 51, 0
7, 64896, Note_on_c, 9, 51, 77
7, 64912, Note_off_c, 9, 51, 0
7, 65088, Note_on_c, 9, 38, 97
7, 65088, Note_on_c, 9, 51, 97
7, 65104, Note_off_c, 9, 38, 0
7, 65104, Note_off_c, 9, 51, 0
7, 65280, Note_on_c, 9, 35, 107
7, 65280, Note_on_c, 9, 51, 67
7, 65296, Note_off_c, 9, 35, 0
7, 65296, Note_off_c, 9, 51, 0
7, 65472, Note_on_c, 9, 35, 107
7, 65472, Note_on_c, 9, 51, 87
7, 65488, Note_off_c, 9, 35, 0
7, 65488, Note_off_c, 9, 51, 0
7, 65664, Note_on_c, 9, 35, 107
7, 65664, Note_on_c, 9, 51, 107
7, 65680, Note_off_c, 9, 35, 0
7, 65680, Note_off_c, 9, 51, 0
7, 65856, Note_on_c, 9, 51, 67
7, 65872, Note_off_c, 9, 51, 0
7, 65952, Note_on_c, 9, 51, 67
7, 65968, Note_off_c, 9, 51, 0
7, 66048, Note_on_c, 9, 51, 77
7, 66064, Note_off_c, 9, 51, 0
7, 66240, Note_on_c, 9, 38, 97
7, 66240, Note_on_c, 9, 51, 97
7, 66256, Note_off_c, 9, 38, 0
7, 66256, Note_off_c, 9, 51, 0
7, 66432, Note_on_c, 9, 35, 107
7, 66432, Note_on_c, 9, 51, 67
7, 66448, Note_off_c, 9, 35, 0
7, 66448, Note_off_c, 9, 51, 0
7, 66624, Note_on_c, 9, 35, 107
7, 66624, Note_on_c, 9, 51, 87
7, 66640, Note_off_c, 9, 35, 0
7, 66640, Note_off_c, 9, 51, 0
7, 66816, Note_on_c, 9, 35, 107
7, 66816, Note_on_c, 9, 51, 107
7, 66832, Note_off_c, 9, 35, 0
7, 66832, Note_off_c, 9, 51, 0
7, 67008, Note_on_c, 9, 51, 67
7, 67024, Note_off_c, 9, 51, 0
7, 67104, Note_on_c, 9, 51, 67
7, 67120, Note_off_c, 9, 51, 0
7, 67200, Note_on_c, 9, 51, 77
7, 67216, Note_off_c, 9, 51, 0
7, 67392, Note_on_c, 9, 38, 97
7, 67392, Note_on_c, 9, 51, 97
7, 67408, Note_off_c, 9, 38, 0
7, 67408, Note_off_c, 9, 51, 0
7, 67584, Note_on_c, 9, 35, 107
7, 67584, Note_on_c, 9, 51, 67
7, 67600, Note_off_c, 9, 35, 0
7, 67600, Note_off_c, 9, 51, 0
7, 67776, Note_on_c, 9, 35, 107
7, 67776, Note_on_c, 9, 51, 87
7, 67792, Note_off_c, 9, 35, 0
7, 67792, Note_off_c, 9, 51, 0
7, 67968, Note_on_c, 9, 35, 107
7, 67968, Note_on_c, 9, 51, 107
7, 67984, Note_off_c, 9, 35, 0
7, 67984, Note_off_c, 9, 51, 0
7, 68160, Note_on_c, 9, 51, 67
7, 68176, Note_off_c, 9, 51, 0
7, 68256, Note_on_c, 9, 51, 67
7, 68272, Note_off_c, 9, 51, 0
7, 68352, Note_on_c, 9, 51, 77
7, 68368, Note_off_c, 9, 51, 0
7, 68544, Note_on_c, 9, 38, 97
7, 68544, Note_on_c, 9, 51, 97
7, 68560, Note_off_c, 9, 38, 0
7, 68560, Note_off_c, 9, 51, 0
7, 68736, Note_on_c, 9, 35, 107
7, 68736, Note_on_c, 9, 51, 67
7, 68752, Note_off_c, 9, 35, 0
7, 68752, Note_off_c, 9, 51, 0
7, 68928, Note_on_c, 9, 35, 107
7, 68928, Note_on_c, 9, 51, 87
7, 68944, Note_off_c, 9, 35, 0
7, 68944, Note_off_c, 9, 51, 0
7, 69120, Note_on_c, 9, 35, 107
7, 69120, Note_on_c, 9, 51, 107
7, 69136, Note_off_c, 9, 35, 0
7, 69136, Note_off_c, 9, 51, 0
7, 69312, Note_on_c, 9, 51, 67
7, 69328, Note_off_c, 9, 51, 0
7, 69408, Note_on_c, 9, 51, 67
7, 69424, Note_off_c, 9, 51, 0
7, 69504, Note_on_c, 9, 51, 77
7, 69520, Note_off_c, 9, 51, 0
7, 69696, Note_on_c, 9, 38, 97
7, 69696, Note_on_c, 9, 51, 97
7, 69712, Note_off_c, 9, 38, 0
7, 69712, Note_off_c, 9, 51, 0
7, 69888, Note_on_c, 9, 35, 107
7, 69888, Note_on_c, 9, 51, 67
7, 69904, Note_off_c, 9, 35, 0
7, 69904, Note_off_c, 9, 51, 0
7, 70080, Note_on_c, 9, 35, 107
7, 70080, Note_on_c, 9, 51, 87
7, 70096, Note_off_c, 9, 35, 0
7, 70096, Note_off_c, 9, 51, 0
7, 70272, Note_on_c, 9, 35, 107
7, 70272, Note_on_c, 9, 51, 107
7, 70288, Note_off_c, 9, 35, 0
7, 70288, Note_off_c, 9, 51, 0
7, 70464, Note_on_c, 9, 51, 67
7, 70480, Note_off_c, 9, 51, 0
7, 70560, Note_on_c, 9, 51, 67
7, 70576, Note_off_c, 9, 51, 0
7, 70656, Note_on_c, 9, 51, 77
7, 70672, Note_off_c, 9, 51, 0
7, 70848, Note_on_c, 9, 38, 97
7, 70848, Note_on_c, 9, 51, 97
7, 70864, Note_off_c, 9, 38, 0
7, 70864, Note_off_c, 9, 51, 0
7, 71040, Note_on_c, 9, 35, 107
7, 71040, Note_on_c, 9, 51, 67
7, 71056, Note_off_c, 9, 35, 0
7, 71056, Note_off_c, 9, 51, 0
7, 71232, Note_on_c, 9, 35, 107
7, 71232, Note_on_c, 9, 51, 87
7, 71248, Note_off_c, 9, 35, 0
7, 71248, Note_off_c, 9, 51, 0
7, 71424, Note_on_c, 9, 35, 107
7, 71424, Note_on_c, 9, 51, 107
7, 71440, Note_off_c, 9, 35, 0
7, 71440, Note_off_c, 9, 51, 0
7, 71616, Note_on_c, 9, 51, 67
7, 71632, Note_off_c, 9, 51, 0
7, 71712, Note_on_c, 9, 51, 67
7, 71728, Note_off_c, 9, 51, 0
7, 71808, Note_on_c, 9, 51, 77
7, 71824, Note_off_c, 9, 51, 0
7, 72000, Note_on_c, 9, 38, 97
7, 72000, Note_on_c, 9, 51, 97
7, 72016, Note_off_c, 9, 38, 0
7, 72016, Note_off_c, 9, 51, 0
7, 72192, Note_on_c, 9, 35, 107
7, 72192, Note_on_c, 9, 51, 67
7, 72208, Note_off_c, 9, 35, 0
7, 72208, Note_off_c, 9, 51, 0
7, 72384, Note_on_c, 9, 35, 107
7, 72384, Note_on_c, 9, 51, 87
7, 72400, Note_off_c, 9, 35, 0
7, 72400, Note_off_c, 9, 51, 0
7, 72576, Note_on_c, 9, 35, 107
7, 72576, Note_on_c, 9, 51, 107
7, 72592, Note_off_c, 9, 35, 0
7, 72592, Note_off_c, 9, 51, 0
7, 72768, Note_on_c, 9, 51, 67
7, 72784, Note_off_c, 9, 51, 0
7, 72864, Note_on_c, 9, 51, 67
7, 72880, Note_off_c, 9, 51, 0
7, 72960, Note_on_c, 9, 51, 77
7, 72976, Note_off_c, 9, 51, 0
7, 73152, Note_on_c, 9, 38, 97
7, 73152, Note_on_c, 9, 51, 97
7, 73168, Note_off_c, 9, 38, 0
7, 73168, Note_off_c, 9, 51, 0
7, 73344, Note_on_c, 9, 35, 107
7, 73344, Note_on_c, 9, 51, 67
7, 73360, Note_off_c, 9, 35, 0
7, 73360, Note_off_c, 9, 51, 0
7, 73536, Note_on_c, 9, 35, 107
7, 73536, Note_on_c, 9, 51, 87
7, 73552, Note_off_c, 9, 35, 0
7, 73552, Note_off_c, 9, 51, 0
7, 73728, Note_on_c, 9, 35, 107
7, 73728, Note_on_c, 9, 51, 107
7, 73744, Note_off_c, 9, 35, 0
7, 73744, Note_off_c, 9, 51, 0
7, 73920, Note_on_c, 9, 51, 67
7, 73936, Note_off_c, 9, 51, 0
7, 74016, Note_on_c, 9, 51, 67
7, 74032, Note_off_c, 9, 51, 0
7, 74112, Note_on_c, 9, 51, 77
7, 74128, Note_off_c, 9, 51, 0
7, 74304, Note_on_c, 9, 38, 97
7, 74304, Note_on_c, 9, 51, 97
7, 74320, Note_off_c, 9, 38, 0
7, 74320, Note_off_c, 9, 51, 0
7, 74496, Note_on_c, 9, 35, 107
7, 74496, Note_on_c, 9, 51, 67
7, 74512, Note_off_c, 9, 35, 0
7, 74512, Note_off_c, 9, 51, 0
7, 74688, Note_on_c, 9, 35, 107
7, 74688, Note_on_c, 9, 51, 87
7, 74704, Note_off_c, 9, 35, 0
7, 74704, Note_off_c, 9, 51, 0
7, 74880, Note_on_c, 9, 35, 107
7, 74880, Note_on_c, 9, 51, 107
7, 74896, Note_off_c, 9, 35, 0
7, 74896, Note_off_c, 9, 51, 0
7, 75072, Note_on_c, 9, 51, 67
7, 75088, Note_off_c, 9, 51, 0
7, 75168, Note_on_c, 9, 51, 67
7, 75184, Note_off_c, 9, 51, 0
7, 75264, Note_on_c, 9, 51, 77
7, 75280, Note_off_c, 9, 51, 0
7, 75456, Note_on_c, 9, 38, 97
7, 75456, Note_on_c, 9, 51, 97
7, 75472, Note_off_c, 9, 38, 0
7, 75472, Note_off_c, 9, 51, 0
7, 75648, Note_on_c, 9, 35, 107
7, 75648, Note_on_c, 9, 51, 67
7, 75664, Note_off_c, 9, 35, 0
7, 75664, Note_off_c, 9, 51, 0
7, 75840, Note_on_c, 9, 35, 107
7, 75840, Note_on_c, 9, 51, 87
7, 75856, Note_off_c, 9, 35, 0
7, 75856, Note_off_c, 9, 51, 0
7, 76032, Note_on_c, 9, 35, 107
7, 76032, Note_on_c, 9, 51, 107
7, 76048, Note_off_c, 9, 35, 0
7, 76048, Note_off_c, 9, 51, 0
7, 76224, Note_on_c, 9, 51, 67
7, 76240, Note_off_c, 9, 51, 0
7, 76320, Note_on_c, 9, 51, 67
7, 76336, Note_off_c, 9, 51, 0
7, 76416, Note_on_c, 9, 51, 77
7, 76432, Note_off_c, 9, 51, 0
7, 76608, Note_on_c, 9, 38, 97
7, 76608, Note_on_c, 9, 51, 97
7, 76624, Note_off_c, 9, 38, 0
7, 76624, Note_off_c, 9, 51, 0
7, 76800, Note_on_c, 9, 35, 107
7, 76800, Note_on_c, 9, 51, 67
7, 76816, Note_off_c, 9, 35, 0
7, 76816, Note_off_c, 9, 51, 0
7, 76992, Note_on_c, 9, 35, 107
7, 76992, Note_on_c, 9, 51, 87
7, 77008, Note_off_c, 9, 35, 0
7, 77008, Note_off_c, 9, 51, 0
7, 77184, Note_on_c, 9, 35, 107
7, 77184, Note_on_c, 9, 51, 107
7, 77200, Note_off_c, 9, 35, 0
7, 77200, Note_off_c, 9, 51, 0
7, 77376, Note_on_c, 9, 51, 67
7, 77392, Note_off_c, 9, 51, 0
7, 77472, Note_on_c, 9, 51, 67
7, 77488, Note_off_c, 9, 51, 0
7, 77568, Note_on_c, 9, 51, 77
7, 77584, Note_off_c, 9, 51, 0
7, 77760, Note_on_c, 9, 38, 97
7, 77760, Note_on_c, 9, 51, 97
7, 77776, Note_off_c, 9, 38, 0
7, 77776, Note_off_c, 9, 51, 0
7, 77952, Note_on_c, 9, 35, 107
7, 77952, Note_on_c, 9, 51, 67
7, 77968, Note_off_c, 9, 35, 0
7, 77968, Note_off_c, 9, 51, 0
7, 78144, Note_on_c, 9, 35, 107
7, 78144, Note_on_c, 9, 51, 87
7, 78160, Note_off_c, 9, 35, 0
7, 78160, Note_off_c, 9, 51, 0
7, 78336, Note_on_c, 9, 35, 107
7, 78336, Note_on_c, 9, 51, 107
7, 78352, Note_off_c, 9, 35, 0
7, 78352, Note_off_c, 9, 51, 0
7, 78528, Note_on_c, 9, 51, 67
7, 78544, Note_off_c, 9, 51, 0
7, 78624, Note_on_c, 9, 51, 67
7, 78640, Note_off_c, 9, 51, 0
7, 78720, Note_on_c, 9, 51, 77
7, 78736, Note_off_c, 9, 51, 0
7, 78912, Note_on_c, 9, 38, 97
7, 78912, Note_on_c, 9, 51, 97
7, 78928, Note_off_c, 9, 38, 0
7, 78928, Note_off_c, 9, 51, 0
7, 79104, Note_on_c, 9, 35, 107
7, 79104, Note_on_c, 9, 51, 67
7, 79120, Note_off_c, 9, 35, 0
7, 79120, Note_off_c, 9, 51, 0
7, 79296, Note_on_c, 9, 35, 107
7, 79296, Note_on_c, 9, 51, 87
7, 79312, Note_off_c, 9, 35, 0
7, 79312, Note_off_c, 9, 51, 0
7, 79488, Note_on_c, 9, 35, 117
7, 79488, Note_on_c, 9, 51, 117
7, 79504, Note_off_c, 9, 35, 0
7, 79504, Note_off_c, 9, 51, 0
7, 79680, Note_on_c, 9, 51, 77
7, 79696, Note_off_c, 9, 51, 0
7, 79776, Note_on_c, 9, 51, 77
7, 79792, Note_off_c, 9, 51, 0
7, 79872, Note_on_c, 9, 51, 87
7, 79888, Note_off_c, 9, 51, 0
7, 80064, Note_on_c, 9, 38, 107
7, 80064, Note_on_c, 9, 51, 107
7, 80080, Note_off_c, 9, 38, 0
7, 80080, Note_off_c, 9, 51, 0
7, 80256, Note_on_c, 9, 35, 117
7, 80256, Note_on_c, 9, 51, 77
7, 80272, Note_off_c, 9, 35, 0
7, 80272, Note_off_c, 9, 51, 0
7, 80448, Note_on_c, 9, 35, 117
7, 80448, Note_on_c, 9, 51, 97
7, 80464, Note_off_c, 9, 35, 0
7, 80464, Note_off_c, 9, 51, 0
7, 80640, Note_on_c, 9, 35, 117
7, 80640, Note_on_c, 9, 51, 117
7, 80656, Note_off_c, 9, 35, 0
7, 80656, Note_off_c, 9, 51, 0
7, 80832, Note_on_c, 9, 51, 77
7, 80848, Note_off_c, 9, 51, 0
7, 80928, Note_on_c, 9, 51, 77
7, 80944, Note_off_c, 9, 51, 0
7, 81024, Note_on_c, 9, 51, 87
7, 81040, Note_off_c, 9, 51, 0
7, 81216, Note_on_c, 9, 38, 107
7, 81216, Note_on_c, 9, 51, 107
7, 81232, Note_off_c, 9, 38, 0
7, 81232, Note_off_c, 9, 51, 0
7, 81408, Note_on_c, 9, 35, 117
7, 81408, Note_on_c, 9, 51, 77
7, 81424, Note_off_c, 9, 35, 0
7, 81424, Note_off_c, 9, 51, 0
7, 81600, Note_on_c, 9, 35, 117
7, 81600, Note_on_c, 9, 51, 97
7, 81616, Note_off_c, 9, 35, 0
7, 81616, Note_off_c, 9, 51, 0
7, 81792, Note_on_c, 9, 35, 117
7, 81792, Note_on_c, 9, 51, 117
7, 81808, Note_off_c, 9, 35, 0
7, 81808, Note_off_c, 9, 51, 0
7, 81984, Note_on_c, 9, 51, 77
7, 82000, Note_off_c, 9, 51, 0
7, 82080, Note_on_c, 9, 51, 77
7, 82096, Note_off_c, 9, 51, 0
7, 82176, Note_on_c, 9, 51, 87
7, 82192, Note_off_c, 9, 51, 0
7, 82368, Note_on_c, 9, 38, 107
7, 82368, Note_on_c, 9, 51, 107
7, 82384, Note_off_c, 9, 38, 0
7, 82384, Note_off_c, 9, 51, 0
7, 82560, Note_on_c, 9, 35, 117
7, 82560, Note_on_c, 9, 51, 77
7, 82576, Note_off_c, 9, 35, 0
7, 82576, Note_off_c, 9, 51, 0
7, 82752, Note_on_c, 9, 35, 117
7, 82752, Note_on_c, 9, 51, 97
7, 82768, Note_off_c, 9, 35, 0
7, 82768, Note_off_c, 9, 51, 0
7, 82944, Note_on_c, 9, 35, 117
7, 82944, Note_on_c, 9, 51, 117
7, 82960, Note_off_c, 9, 35, 0
7, 82960, Note_off_c, 9, 51, 0
7, 83136, Note_on_c, 9, 51, 77
7, 83152, Note_off_c, 9, 51, 0
7, 83232, Note_on_c, 9, 51, 77
7, 83248, Note_off_c, 9, 51, 0
7, 83328, Note_on_c, 9, 51, 87
7, 83344, Note_off_c, 9, 51, 0
7, 83520, Note_on_c, 9, 38, 107
7, 83520, Note_on_c, 9, 51, 107
7, 83536, Note_off_c, 9, 38, 0
7, 83536, Note_off_c, 9, 51, 0
7, 83712, Note_on_c, 9, 35, 117
7, 83712, Note_on_c, 9, 51, 77
7, 83728, Note_off_c, 9, 35, 0
7, 83728, Note_off_c, 9, 51, 0
7, 83904, Note_on_c, 9, 35, 117
7, 83904, Note_on_c, 9, 51, 97
7, 83920, Note_off_c, 9, 35, 0
7, 83920, Note_off_c, 9, 51, 0
7, 84096, Note_on_c, 9, 35, 117
7, 84096, Note_on_c, 9, 51, 117
7, 84112, Note_off_c, 9, 35, 0
7, 84112, Note_off_c, 9, 51, 0
7, 84288, Note_on_c, 9, 51, 77
7, 84304, Note_off_c, 9, 51, 0
7, 84384, Note_on_c, 9, 51, 77
7, 84400, Note_off_c, 9, 51, 0
7, 84480, Note_on_c, 9, 51, 87
7, 84496, Note_off_c, 9, 51, 0
7, 84672, Note_on_c, 9, 38, 107
7, 84672, Note_on_c, 9, 51, 107
7, 84688, Note_off_c, 9, 38, 0
7, 84688, Note_off_c, 9, 51, 0
7, 84864, Note_on_c, 9, 35, 117
7, 84864, Note_on_c, 9, 51, 77
7, 84880, Note_off_c, 9, 35, 0
7, 84880, Note_off_c, 9, 51, 0
7, 85056, Note_on_c, 9, 35, 117
7, 85056, Note_on_c, 9, 51, 97
7, 85072, Note_off_c, 9, 35, 0
7, 85072, Note_off_c, 9, 51, 0
7, 85248, Note_on_c, 9, 35, 117
7, 85248, Note_on_c, 9, 51, 117
7, 85264, Note_off_c, 9, 35, 0
7, 85264, Note_off_c, 9, 51, 0
7, 85440, Note_on_c, 9, 51, 77
7, 85456, Note_off_c, 9, 51, 0
7, 85536, Note_on_c, 9, 51, 77
7, 85552, Note_off_c, 9, 51, 0
7, 85632, Note_on_c, 9, 51, 87
7, 85648, Note_off_c, 9, 51, 0
7, 85824, Note_on_c, 9, 38, 107
7, 85824, Note_on_c, 9, 51, 107
7, 85840, Note_off_c, 9, 38, 0
7, 85840, Note_off_c, 9, 51, 0
7, 86016, Note_on_c, 9, 35, 117
7, 86016, Note_on_c, 9, 51, 77
7, 86032, Note_off_c, 9, 35, 0
7, 86032, Note_off_c, 9, 51, 0
7, 86208, Note_on_c, 9, 35, 117
7, 86208, Note_on_c, 9, 51, 97
7, 86224, Note_off_c, 9, 35, 0
7, 86224, Note_off_c, 9, 51, 0
7, 86400, Note_on_c, 9, 35, 117
7, 86400, Note_on_c, 9, 51, 117
7, 86416, Note_off_c, 9, 35, 0
7, 86416, Note_off_c, 9, 51, 0
7, 86592, Note_on_c, 9, 51, 77
7, 86608, Note_off_c, 9, 51, 0
7, 86688, Note_on_c, 9, 51, 77
7, 86704, Note_off_c, 9, 51, 0
7, 86784, Note_on_c, 9, 51, 87
7, 86800, Note_off_c, 9, 51, 0
7, 86976, Note_on_c, 9, 38, 107
7, 86976, Note_on_c, 9, 51, 107
7, 86992, Note_off_c, 9, 38, 0
7, 86992, Note_off_c, 9, 51, 0
7, 87168, Note_on_c, 9, 35, 117
7, 87168, Note_on_c, 9, 51, 77
7, 87184, Note_off_c, 9, 35, 0
7, 87184, Note_off_c, 9, 51, 0
7, 87360, Note_on_c, 9, 35, 117
7, 87360, Note_on_c, 9, 51, 97
7, 87376, Note_off_c, 9, 35, 0
7, 87376, Note_off_c, 9, 51, 0
7, 87552, Note_on_c, 9, 35, 117
7, 87552, Note_on_c, 9, 51, 117
7, 87568, Note_off_c, 9, 35, 0
7, 87568, Note_off_c, 9, 51, 0
7, 87744, Note_on_c, 9, 51, 77
7, 87760, Note_off_c, 9, 51, 0
7, 87840, Note_on_c, 9, 51, 77
7, 87856, Note_off_c, 9, 51, 0
7, 87936, Note_on_c, 9, 51, 87
7, 87952, Note_off_c, 9, 51, 0
7, 88128, Note_on_c, 9, 38, 107
7, 88128, Note_on_c, 9, 51, 107
7, 88144, Note_off_c, 9, 38, 0
7, 88144, Note_off_c, 9, 51, 0
7, 88320, Note_on_c, 9, 35, 117
7, 88320, Note_on_c, 9, 51, 77
7, 88336, Note_off_c, 9, 35, 0
7, 88336, Note_off_c, 9, 51, 0
7, 88512, Note_on_c, 9, 35, 117
7, 88512, Note_on_c, 9, 51, 97
7, 88528, Note_off_c, 9, 35, 0
7, 88528, Note_off_c, 9, 51, 0
7, 88704, Note_on_c, 9, 35, 127
7, 88704, Note_on_c, 9, 46, 81
7, 88704, Note_on_c, 9, 51, 127
7, 88720, Note_off_c, 9, 35, 0
7, 88720, Note_off_c, 9, 46, 0
7, 88720, Note_off_c, 9, 51, 0
7, 88896, Note_on_c, 9, 51, 87
7, 88912, Note_off_c, 9, 51, 0
7, 88992, Note_on_c, 9, 51, 87
7, 89008, Note_off_c, 9, 51, 0
7, 89088, Note_on_c, 9, 51, 97
7, 89104, Note_off_c, 9, 51, 0
7, 89280, Note_on_c, 9, 38, 117
7, 89280, Note_on_c, 9, 46, 81
7, 89280, Note_on_c, 9, 51, 117
7, 89296, Note_off_c, 9, 38, 0
7, 89296, Note_off_c, 9, 46, 0
7, 89296, Note_off_c, 9, 51, 0
7, 89472, Note_on_c, 9, 35, 127
7, 89472, Note_on_c, 9, 51, 87
7, 89488, Note_off_c, 9, 35, 0
7, 89488, Note_off_c, 9, 51, 0
7, 89664, Note_on_c, 9, 35, 127
7, 89664, Note_on_c, 9, 51, 107
7, 89680, Note_off_c, 9, 35, 0
7, 89680, Note_off_c, 9, 51, 0
7, 89856, Note_on_c, 9, 35, 127
7, 89856, Note_on_c, 9, 46, 81
7, 89856, Note_on_c, 9, 51, 127
7, 89872, Note_off_c, 9, 35, 0
7, 89872, Note_off_c, 9, 46, 0
7, 89872, Note_off_c, 9, 51, 0
7, 90048, Note_on_c, 9, 51, 87
7, 90064, Note_off_c, 9, 51, 0
7, 90144, Note_on_c, 9, 51, 87
7, 90160, Note_off_c, 9, 51, 0
7, 90240, Note_on_c, 9, 51, 97
7, 90256, Note_off_c, 9, 51, 0
7, 90432, Note_on_c, 9, 38, 117
7, 90432, Note_on_c, 9, 46, 81
7, 90432, Note_on_c, 9, 51, 117
7, 90448, Note_off_c, 9, 38, 0
7, 90448, Note_off_c, 9, 46, 0
7, 90448, Note_off_c, 9, 51, 0
7, 90624, Note_on_c, 9, 35, 127
7, 90624, Note_on_c, 9, 51, 87
7, 90640, Note_off_c, 9, 35, 0
7, 90640, Note_off_c, 9, 51, 0
7, 90816, Note_on_c, 9, 35, 127
7, 90816, Note_on_c, 9, 51, 107
7, 90832, Note_off_c, 9, 35, 0
7, 90832, Note_off_c, 9, 51, 0
7, 91008, Note_on_c, 9, 35, 127
7, 91008, Note_on_c, 9, 46, 81
7, 91008, Note_on_c, 9, 51, 127
7, 91024, Note_off_c, 9, 35, 0
7, 91024, Note_off_c, 9, 46, 0
7, 91024, Note_off_c, 9, 51, 0
7, 91200, Note_on_c, 9, 51, 87
7, 91216, Note_off_c, 9, 51, 0
7, 91296, Note_on_c, 9, 51, 87
7, 91312, Note_off_c, 9, 51, 0
7, 91392, Note_on_c, 9, 51, 97
7, 91408, Note_off_c, 9, 51, 0
7, 91584, Note_on_c, 9, 38, 117
7, 91584, Note_on_c, 9, 46, 81
7, 91584, Note_on_c, 9, 51, 117
7, 91600, Note_off_c, 9, 38, 0
7, 91600, Note_off_c, 9, 46, 0
7, 91600, Note_off_c, 9, 51, 0
7, 91776, Note_on_c, 9, 35, 127
7, 91776, Note_on_c, 9, 51, 87
7, 91792, Note_off_c, 9, 35, 0
7, 91792, Note_off_c, 9, 51, 0
7, 91968, Note_on_c, 9, 35, 127
7, 91968, Note_on_c, 9, 51, 107
7, 91984, Note_off_c, 9, 35, 0
7, 91984, Note_off_c, 9, 51, 0
7, 92160, Note_on_c, 9, 35, 127
7, 92160, Note_on_c, 9, 46, 81
7, 92160, Note_on_c, 9, 51, 127
7, 92176, Note_off_c, 9, 35, 0
7, 92176, Note_off_c, 9, 46, 0
7, 92176, Note_off_c, 9, 51, 0
7, 92352, Note_on_c, 9, 51, 87
7, 92368, Note_off_c, 9, 51, 0
7, 92448, Note_on_c, 9, 51, 87
7, 92464, Note_off_c, 9, 51, 0
7, 92544, Note_on_c, 9, 51, 97
7, 92560, Note_off_c, 9, 51, 0
7, 92736, Note_on_c, 9, 38, 117
7, 92736, Note_on_c, 9, 46, 81
7, 92736, Note_on_c, 9, 51, 117
7, 92752, Note_off_c, 9, 38, 0
7, 92752, Note_off_c, 9, 46, 0
7, 92752, Note_off_c, 9, 51, 0
7, 92928, Note_on_c, 9, 35, 127
7, 92928, Note_on_c, 9, 51, 87
7, 92944, Note_off_c, 9, 35, 0
7, 92944, Note_off_c, 9, 51, 0
7, 93120, Note_on_c, 9, 35, 127
7, 93120, Note_on_c, 9, 51, 107
7, 93136, Note_off_c, 9, 35, 0
7, 93136, Note_off_c, 9, 51, 0
7, 93312, Note_on_c, 9, 35, 127
7, 93312, Note_on_c, 9, 49, 81
7, 93312, Note_on_c, 9, 51, 127
7, 93328, Note_off_c, 9, 35, 0
7, 93328, Note_off_c, 9, 49, 0
7, 93328, Note_off_c, 9, 51, 0
7, 93504, Note_on_c, 9, 51, 87
7, 93520, Note_off_c, 9, 51, 0
7, 93600, Note_on_c, 9, 51, 87
7, 93616, Note_off_c, 9, 51, 0
7, 93696, Note_on_c, 9, 51, 97
7, 93712, Note_off_c, 9, 51, 0
7, 93888, Note_on_c, 9, 38, 117
7, 93888, Note_on_c, 9, 46, 81
7, 93888, Note_on_c, 9, 51, 117
7, 93904, Note_off_c, 9, 38, 0
7, 93904, Note_off_c, 9, 46, 0
7, 93904, Note_off_c, 9, 51, 0
7, 94080, Note_on_c, 9, 35, 127
7, 94080, Note_on_c, 9, 51, 87
7, 94096, Note_off_c, 9, 35, 0
7, 94096, Note_off_c, 9, 51, 0
7, 94272, Note_on_c, 9, 35, 127
7, 94272, Note_on_c, 9, 51, 107
7, 94288, Note_off_c, 9, 35, 0
7, 94288, Note_off_c, 9, 51, 0
7, 94464, Note_on_c, 9, 35, 127
7, 94464, Note_on_c, 9, 46, 81
7, 94464, Note_on_c, 9, 51, 127
7, 94480, Note_off_c, 9, 35, 0
7, 94480, Note_off_c, 9, 46, 0
7, 94480, Note_off_c, 9, 51, 0
7, 94656, Note_on_c, 9, 51, 87
7, 94672, Note_off_c, 9, 51, 0
7, 94752, Note_on_c, 9, 51, 87
7, 94768, Note_off_c, 9, 51, 0
7, 94848, Note_on_c, 9, 51, 97
7, 94864, Note_off_c, 9, 51, 0
7, 95040, Note_on_c, 9, 38, 117
7, 95040, Note_on_c, 9, 46, 81
7, 95040, Note_on_c, 9, 51, 117
7, 95056, Note_off_c, 9, 38, 0
7, 95056, Note_off_c, 9, 46, 0
7, 95056, Note_off_c, 9, 51, 0
7, 95232, Note_on_c, 9, 35, 127
7, 95232, Note_on_c, 9, 51, 87
7, 95248, Note_off_c, 9, 35, 0
7, 95248, Note_off_c, 9, 51, 0
7, 95424, Note_on_c, 9, 35, 127
7, 95424, Note_on_c, 9, 51, 107
7, 95440, Note_off_c, 9, 35, 0
7, 95440, Note_off_c, 9, 51, 0
7, 95616, Note_on_c, 9, 35, 127
7, 95616, Note_on_c, 9, 49, 81
7, 95616, Note_on_c, 9, 51, 127
7, 95632, Note_off_c, 9, 35, 0
7, 95632, Note_off_c, 9, 49, 0
7, 95632, Note_off_c, 9, 51, 0
7, 95808, Note_on_c, 9, 51, 87
7, 95824, Note_off_c, 9, 51, 0
7, 95904, Note_on_c, 9, 51, 87
7, 95920, Note_off_c, 9, 51, 0
7, 96000, Note_on_c, 9, 51, 97
7, 96016, Note_off_c, 9, 51, 0
7, 96192, Note_on_c, 9, 38, 117
7, 96192, Note_on_c, 9, 46, 81
7, 96192, Note_on_c, 9, 51, 117
7, 96208, Note_off_c, 9, 38, 0
7, 96208, Note_off_c, 9, 46, 0
7, 96208, Note_off_c, 9, 51, 0
7, 96384, Note_on_c, 9, 35, 127
7, 96384, Note_on_c, 9, 51, 87
7, 96400, Note_off_c, 9, 35, 0
7, 96400, Note_off_c, 9, 51, 0
7, 96576, Note_on_c, 9, 35, 127
7, 96576, Note_on_c, 9, 51, 107
7, 96592, Note_off_c, 9, 35, 0
7, 96592, Note_off_c, 9, 51, 0
7, 96768, Note_on_c, 9, 35, 127
7, 96768, Note_on_c, 9, 46, 81
7, 96768, Note_on_c, 9, 51, 127
7, 96784, Note_off_c, 9, 35, 0
7, 96784, Note_off_c, 9, 46, 0
7, 96784, Note_off_c, 9, 51, 0
7, 96960, Note_on_c, 9, 51, 87
7, 96976, Note_off_c, 9, 51, 0
7, 97056, Note_on_c, 9, 51, 87
7, 97072, Note_off_c, 9, 51, 0
7, 97152, Note_on_c, 9, 51, 97
7, 97168, Note_off_c, 9, 51, 0
7, 97344, Note_on_c, 9, 38, 117
7, 97344, Note_on_c, 9, 46, 81
7, 97344, Note_on_c, 9, 51, 117
7, 97360, Note_off_c, 9, 38, 0
7, 97360, Note_off_c, 9, 46, 0
7, 97360, Note_off_c, 9, 51, 0
7, 97536, Note_on_c, 9, 35, 127
7, 97536, Note_on_c, 9, 51, 87
7, 97552, Note_off_c, 9, 35, 0
7, 97552, Note_off_c, 9, 51, 0
7, 97728, Note_on_c, 9, 35, 127
7, 97728, Note_on_c, 9, 51, 107
7, 97744, Note_off_c, 9, 35, 0
7, 97744, Note_off_c, 9, 51, 0
7, 97920, Note_on_c, 9, 35, 127
7, 97920, Note_on_c, 9, 49, 81
7, 97920, Note_on_c, 9, 51, 127
7, 97936, Note_off_c, 9, 35, 0
7, 97936, Note_off_c, 9, 49, 0
7, 97936, Note_off_c, 9, 51, 0
7, 98112, Note_on_c, 9, 51, 87
7, 98128, Note_off_c, 9, 51, 0
7, 98208, Note_on_c, 9, 51, 87
7, 98224, Note_off_c, 9, 51, 0
7, 98304, Note_on_c, 9, 51, 97
7, 98320, Note_off_c, 9, 51, 0
7, 98496, Note_on_c, 9, 38, 117
7, 98496, Note_on_c, 9, 46, 81
7, 98496, Note_on_c, 9, 51, 117
7, 98512, Note_off_c, 9, 38, 0
7, 98512, Note_off_c, 9, 46, 0
7, 98512, Note_off_c, 9, 51, 0
7, 98688, Note_on_c, 9, 35, 127
7, 98688, Note_on_c, 9, 51, 87
7, 98704, Note_off_c, 9, 35, 0
7, 98704, Note_off_c, 9, 51, 0
7, 98880, Note_on_c, 9, 35, 127
7, 98880, Note_on_c, 9, 51, 107
7, 98896, Note_off_c, 9, 35, 0
7, 98896, Note_off_c, 9, 51, 0
7, 99072, Note_on_c, 9, 35, 127
7, 99072, Note_on_c, 9, 46, 81
7, 99072, Note_on_c, 9, 51, 127
7, 99088, Note_off_c, 9, 35, 0
7, 99088, Note_off_c, 9, 46, 0
7, 99088, Note_off_c, 9, 51, 0
7, 99264, Note_on_c, 9, 51, 87
7, 99280, Note_off_c, 9, 51, 0
7, 99360, Note_on_c, 9, 51, 87
7, 99376, Note_off_c, 9, 51, 0
7, 99456, Note_on_c, 9, 51, 97
7, 99472, Note_off_c, 9, 51, 0
7, 99648, Note_on_c, 9, 38, 117
7, 99648, Note_on_c, 9, 46, 81
7, 99648, Note_on_c, 9, 51, 117
7, 99664, Note_off_c, 9, 38, 0
7, 99664, Note_off_c, 9, 46, 0
7, 99664, Note_off_c, 9, 51, 0
7, 99840, Note_on_c, 9, 35, 127
7, 99840, Note_on_c, 9, 51, 87
7, 99856, Note_off_c, 9, 35, 0
7, 99856, Note_off_c, 9, 51, 0
7, 100032, Note_on_c, 9, 35, 127
7, 100032, Note_on_c, 9, 51, 107
7, 100048, Note_off_c, 9, 35, 0
7, 100048, Note_off_c, 9, 51, 0
7, 100224, Note_on_c, 9, 35, 127
7, 100224, Note_on_c, 9, 46, 81
7, 100224, Note_on_c, 9, 51, 127
7, 100240, Note_off_c, 9, 35, 0
7, 100240, Note_off_c, 9, 46, 0
7, 100240, Note_off_c, 9, 51, 0
7, 100416, Note_on_c, 9, 51, 87
7, 100432, Note_off_c, 9, 51, 0
7, 100512, Note_on_c, 9, 51, 87
7, 100528, Note_off_c, 9, 51, 0
7, 100608, Note_on_c, 9, 51, 97
7, 100624, Note_off_c, 9, 51, 0
7, 100800, Note_on_c, 9, 38, 117
7, 100800, Note_on_c, 9, 46, 81
7, 100800, Note_on_c, 9, 51, 117
7, 100816, Note_off_c, 9, 38, 0
7, 100816, Note_off_c, 9, 46, 0
7, 100816, Note_off_c, 9, 51, 0
7, 100992, Note_on_c, 9, 35, 127
7, 100992, Note_on_c, 9, 51, 87
7, 101008, Note_off_c, 9, 35, 0
7, 101008, Note_off_c, 9, 51, 0
7, 101184, Note_on_c, 9, 35, 127
7, 101184, Note_on_c, 9, 51, 107
7, 101200, Note_off_c, 9, 35, 0
7, 101200, Note_off_c, 9, 51, 0
7, 101376, Note_on_c, 9, 35, 127
7, 101376, Note_on_c, 9, 46, 81
7, 101376, Note_on_c, 9, 51, 127
7, 101392, Note_off_c, 9, 35, 0
7, 101392, Note_off_c, 9, 46, 0
7, 101392, Note_off_c, 9, 51, 0
7, 101568, Note_on_c, 9, 51, 87
7, 101584, Note_off_c, 9, 51, 0
7, 101664, Note_on_c, 9, 51, 87
7, 101680, Note_off_c, 9, 51, 0
7, 101760, Note_on_c, 9, 51, 97
7, 101776, Note_off_c, 9, 51, 0
7, 101952, Note_on_c, 9, 38, 117
7, 101952, Note_on_c, 9, 46, 81
7, 101952, Note_on_c, 9, 51, 117
7, 101968, Note_off_c, 9, 38, 0
7, 101968, Note_off_c, 9, 46, 0
7, 101968, Note_off_c, 9, 51, 0
7, 102144, Note_on_c, 9, 35, 127
7, 102144, Note_on_c, 9, 51, 87
7, 102160, Note_off_c, 9, 35, 0
7, 102160, Note_off_c, 9, 51, 0
7, 102336, Note_on_c, 9, 35, 127
7, 102336, Note_on_c, 9, 51, 107
7, 102352, Note_off_c, 9, 35, 0
7, 102352, Note_off_c, 9, 51, 0
7, 102528, Note_on_c, 9, 35, 127
7, 102528, Note_on_c, 9, 46, 81
7, 102528, Note_on_c, 9, 51, 127
7, 102544, Note_off_c, 9, 35, 0
7, 102544, Note_off_c, 9, 46, 0
7, 102544, Note_off_c, 9, 51, 0
7, 102720, Note_on_c, 9, 51, 87
7, 102736, Note_off_c, 9, 51, 0
7, 102816, Note_on_c, 9, 51, 87
7, 102832, Note_off_c, 9, 51, 0
7, 102912, Note_on_c, 9, 51, 97
7, 102928, Note_off_c, 9, 51, 0
7, 103104, Note_on_c, 9, 38, 117
7, 103104, Note_on_c, 9, 46, 81
7, 103104, Note_on_c, 9, 51, 117
7, 103120, Note_off_c, 9, 38, 0
7, 103120, Note_off_c, 9, 46, 0
7, 103120, Note_off_c, 9, 51, 0
7, 103296, Note_on_c, 9, 35, 127
7, 103296, Note_on_c, 9, 51, 87
7, 103312, Note_off_c, 9, 35, 0
7, 103312, Note_off_c, 9, 51, 0
7, 103488, Note_on_c, 9, 35, 127
7, 103488, Note_on_c, 9, 51, 107
7, 103504, Note_off_c, 9, 35, 0
7, 103504, Note_off_c, 9, 51, 0
7, 103680, Note_on_c, 9, 35, 127
7, 103680, Note_on_c, 9, 46, 81
7, 103680, Note_on_c, 9, 51, 127
7, 103696, Note_off_c, 9, 35, 0
7, 103696, Note_off_c, 9, 46, 0
7, 103696, Note_off_c, 9, 51, 0
7, 103872, Note_on_c, 9, 51, 87
7, 103888, Note_off_c, 9, 51, 0
7, 103968, Note_on_c, 9, 51, 87
7, 103984, Note_off_c, 9, 51, 0
7, 104064, Note_on_c, 9, 51, 97
7, 104080, Note_off_c, 9, 51, 0
7, 104256, Note_on_c, 9, 38, 117
7, 104256, Note_on_c, 9, 46, 81
7, 104256, Note_on_c, 9, 51, 117
7, 104272, Note_off_c, 9, 38, 0
7, 104272, Note_off_c, 9, 46, 0
7, 104272, Note_off_c, 9, 51, 0
7, 104448, Note_on_c, 9, 35, 127
7, 104448, Note_on_c, 9, 51, 87
7, 104464, Note_off_c, 9, 35, 0
7, 104464, Note_off_c, 9, 51, 0
7, 104640, Note_on_c, 9, 35, 127
7, 104640, Note_on_c, 9, 51, 107
7, 104656, Note_off_c, 9, 35, 0
7, 104656, Note_off_c, 9, 51, 0
7, 104832, Note_on_c, 9, 35, 117
7, 104832, Note_on_c, 9, 49, 81
7, 104832, Note_on_c, 9, 51, 117
7, 104848, Note_off_c, 9, 35, 0
7, 104848, Note_off_c, 9, 49, 0
7, 104848, Note_off_c, 9, 51, 0
7, 105024, Note_on_c, 9, 51, 77
7, 105040, Note_off_c, 9, 51, 0
7, 105120, Note_on_c, 9, 51, 77
7, 105136, Note_off_c, 9, 51, 0
7, 105216, Note_on_c, 9, 51, 87
7, 105232, Note_off_c, 9, 51, 0
7, 105408, Note_on_c, 9, 38, 107
7, 105408, Note_on_c, 9, 51, 107
7, 105424, Note_off_c, 9, 38, 0
7, 105424, Note_off_c, 9, 51, 0
7, 105600, Note_on_c, 9, 35, 117
7, 105600, Note_on_c, 9, 51, 77
7, 105616, Note_off_c, 9, 35, 0
7, 105616, Note_off_c, 9, 51, 0
7, 105792, Note_on_c, 9, 35, 117
7, 105792, Note_on_c, 9, 51, 97
7, 105808, Note_off_c, 9, 35, 0
7, 105808, Note_off_c, 9, 51, 0
7, 105984, Note_on_c, 9, 35, 117
7, 105984, Note_on_c, 9, 49, 81
7, 105984, Note_on_c, 9, 51, 117
7, 106000, Note_off_c, 9, 35, 0
7, 106000, Note_off_c, 9, 49, 0
7, 106000, Note_off_c, 9, 51, 0
7, 106176, Note_on_c, 9, 51, 77
7, 106192, Note_off_c, 9, 51, 0
7, 106272, Note_on_c, 9, 51, 77
7, 106288, Note_off_c, 9, 51, 0
7, 106368, Note_on_c, 9, 51, 87
7, 106384, Note_off_c, 9, 51, 0
7, 106560, Note_on_c, 9, 38, 107
7, 106560, Note_on_c, 9, 51, 107
7, 106576, Note_off_c, 9, 38, 0
7, 106576, Note_off_c, 9, 51, 0
7, 106752, Note_on_c, 9, 35, 117
7, 106752, Note_on_c, 9, 51, 77
7, 106768, Note_off_c, 9, 35, 0
7, 106768, Note_off_c, 9, 51, 0
7, 106944, Note_on_c, 9, 35, 117
7, 106944, Note_on_c, 9, 51, 97
7, 106960, Note_off_c, 9, 35, 0
7, 106960, Note_off_c, 9, 51, 0
7, 107136, Note_on_c, 9, 35, 117
7, 107136, Note_on_c, 9, 49, 81
7, 107136, Note_on_c, 9, 51, 117
7, 107152, Note_off_c, 9, 35, 0
7, 107152, Note_off_c, 9, 49, 0
7, 107152, Note_off_c, 9, 51, 0
7, 107328, Note_on_c, 9, 51, 77
7, 107344, Note_off_c, 9, 51, 0
7, 107424, Note_on_c, 9, 51, 77
7, 107440, Note_off_c, 9, 51, 0
7, 107520, Note_on_c, 9, 51, 87
7, 107536, Note_off_c, 9, 51, 0
7, 107712, Note_on_c, 9, 38, 107
7, 107712, Note_on_c, 9, 51, 107
7, 107728, Note_off_c, 9, 38, 0
7, 107728, Note_off_c, 9, 51, 0
7, 107904, Note_on_c, 9, 35, 117
7, 107904, Note_on_c, 9, 51, 77
7, 107920, Note_off_c, 9, 35, 0
7, 107920, Note_off_c, 9, 51, 0
7, 108096, Note_on_c, 9, 35, 117
7, 108096, Note_on_c, 9, 51, 97
7, 108112, Note_off_c, 9, 35, 0
7, 108112, Note_off_c, 9, 51, 0
7, 108288, Note_on_c, 9, 35, 117
7, 108288, Note_on_c, 9, 49, 81
7, 108288, Note_on_c, 9, 51, 117
7, 108304, Note_off_c, 9, 35, 0
7, 108304, Note_off_c, 9, 49, 0
7, 108304, Note_off_c, 9, 51, 0
7, 108480, Note_on_c, 9, 51, 77
7, 108496, Note_off_c, 9, 51, 0
7, 108576, Note_on_c, 9, 51, 77
7, 108592, Note_off_c, 9, 51, 0
7, 108672, Note_on_c, 9, 51, 87
7, 108688, Note_off_c, 9, 51, 0
7, 108880, Note_on_c, 9, 38, 107
7, 108880, Note_on_c, 9, 49, 81
7, 108880, Note_on_c, 9, 51, 107
7, 108896, Note_off_c, 9, 38, 0
7, 108896, Note_off_c, 9, 49, 0
7, 108896, Note_off_c, 9, 51, 0
7, 109056, Note_on_c, 9, 35, 117
7, 109056, Note_on_c, 9, 51, 77
7, 109072, Note_off_c, 9, 35, 0
7, 109072, Note_off_c, 9, 51, 0
7, 109248, Note_on_c, 9, 35, 117
7, 109248, Note_on_c, 9, 51, 97
7, 109264, Note_off_c, 9, 35, 0
7, 109264, Note_off_c, 9, 51, 0
7, 109440, Note_on_c, 9, 35, 117
7, 109440, Note_on_c, 9, 49, 81
7, 109440, Note_on_c, 9, 51, 117
7, 109456, Note_off_c, 9, 35, 0
7, 109456, Note_off_c, 9, 49, 0
7, 109456, Note_off_c, 9, 51, 0
7, 109632, Note_on_c, 9, 51, 77
7, 109648, Note_off_c, 9, 51, 0
7, 109728, Note_on_c, 9, 51, 77
7, 109744, Note_off_c, 9, 51, 0
7, 109824, Note_on_c, 9, 51, 87
7, 109840, Note_off_c, 9, 51, 0
7, 110016, Note_on_c, 9, 38, 107
7, 110016, Note_on_c, 9, 51, 107
7, 110032, Note_off_c, 9, 38, 0
7, 110032, Note_off_c, 9, 51, 0
7, 110208, Note_on_c, 9, 35, 117
7, 110208, Note_on_c, 9, 51, 77
7, 110224, Note_off_c, 9, 35, 0
7, 110224, Note_off_c, 9, 51, 0
7, 110400, Note_on_c, 9, 35, 117
7, 110400, Note_on_c, 9, 51, 97
7, 110416, Note_off_c, 9, 35, 0
7, 110416, Note_off_c, 9, 51, 0
7, 110592, Note_on_c, 9, 35, 117
7, 110592, Note_on_c, 9, 49, 81
7, 110592, Note_on_c, 9, 51, 117
7, 110608, Note_off_c, 9, 35, 0
7, 110608, Note_off_c, 9, 49, 0
7, 110608, Note_off_c, 9, 51, 0
7, 110784, Note_on_c, 9, 51, 77
7, 110800, Note_off_c, 9, 51, 0
7, 110880, Note_on_c, 9, 51, 77
7, 110896, Note_off_c, 9, 51, 0
7, 110976, Note_on_c, 9, 51, 87
7, 110992, Note_off_c, 9, 51, 0
7, 111168, Note_on_c, 9, 38, 107
7, 111168, Note_on_c, 9, 51, 107
7, 111184, Note_off_c, 9, 38, 0
7, 111184, Note_off_c, 9, 51, 0
7, 111360, Note_on_c, 9, 35, 117
7, 111360, Note_on_c, 9, 51, 77
7, 111376, Note_off_c, 9, 35, 0
7, 111376, Note_off_c, 9, 51, 0
7, 111552, Note_on_c, 9, 35, 117
7, 111552, Note_on_c, 9, 51, 97
7, 111568, Note_off_c, 9, 35, 0
7, 111568, Note_off_c, 9, 51, 0
7, 111744, Note_on_c, 9, 35, 117
7, 111744, Note_on_c, 9, 46, 81
7, 111744, Note_on_c, 9, 51, 117
7, 111760, Note_off_c, 9, 35, 0
7, 111760, Note_off_c, 9, 46, 0
7, 111760, Note_off_c, 9, 51, 0
7, 111936, Note_on_c, 9, 51, 77
7, 111952, Note_off_c, 9, 51, 0
7, 112032, Note_on_c, 9, 51, 77
7, 112048, Note_off_c, 9, 51, 0
7, 112128, Note_on_c, 9, 51, 87
7, 112144, Note_off_c, 9, 51, 0
7, 112320, Note_on_c, 9, 38, 107
7, 112320, Note_on_c, 9, 51, 107
7, 112336, Note_off_c, 9, 38, 0
7, 112336, Note_off_c, 9, 51, 0
7, 112512, Note_on_c, 9, 35, 117
7, 112512, Note_on_c, 9, 51, 77
7, 112528, Note_off_c, 9, 35, 0
7, 112528, Note_off_c, 9, 51, 0
7, 112704, Note_on_c, 9, 35, 117
7, 112704, Note_on_c, 9, 51, 97
7, 112720, Note_off_c, 9, 35, 0
7, 112720, Note_off_c, 9, 51, 0
7, 112896, Note_on_c, 9, 35, 117
7, 112896, Note_on_c, 9, 51, 117
7, 112912, Note_off_c, 9, 35, 0
7, 112912, Note_off_c, 9, 51, 0
7, 113088, Note_on_c, 9, 51, 77
7, 113104, Note_off_c, 9, 51, 0
7, 113184, Note_on_c, 9, 51, 77
7, 113200, Note_off_c, 9, 51, 0
7, 113280, Note_on_c, 9, 51, 87
7, 113296, Note_off_c, 9, 51, 0
7, 113472, Note_on_c, 9, 38, 107
7, 113472, Note_on_c, 9, 45, 81
7, 113472, Note_on_c, 9, 51, 107
7, 113488, Note_off_c, 9, 38, 0
7, 113488, Note_off_c, 9, 45, 0
7, 113488, Note_off_c, 9, 51, 0
7, 113664, Note_on_c, 9, 35, 117
7, 113664, Note_on_c, 9, 45, 81
7, 113664, Note_on_c, 9, 51, 77
7, 113680, Note_off_c, 9, 35, 0
7, 113680, Note_off_c, 9, 45, 0
7, 113680, Note_off_c, 9, 51, 0
7, 113856, Note_on_c, 9, 35, 117
7, 113856, Note_on_c, 9, 45, 81
7, 113856, Note_on_c, 9, 51, 97
7, 113872, Note_off_c, 9, 35, 0
7, 113872, Note_off_c, 9, 45, 0
7, 113872, Note_off_c, 9, 51, 0
7, 114048, Note_on_c, 9, 35, 117
7, 114048, Note_on_c, 9, 51, 117
7, 114064, Note_off_c, 9, 35, 0
7, 114064, Note_off_c, 9, 51, 0
7, 114240, Note_on_c, 9, 51, 77
7, 114256, Note_off_c, 9, 51, 0
7, 114336, Note_on_c, 9, 51, 77
7, 114352, Note_off_c, 9, 51, 0
7, 114432, Note_on_c, 9, 51, 87
7, 114448, Note_off_c, 9, 51, 0
7, 114624, Note_on_c, 9, 38, 107
7, 114624, Note_on_c, 9, 51, 107
7, 114640, Note_off_c, 9, 38, 0
7, 114640, Note_off_c, 9, 51, 0
7, 114816, Note_on_c, 9, 35, 117
7, 114816, Note_on_c, 9, 51, 77
7, 114832, Note_off_c, 9, 35, 0
7, 114832, Note_off_c, 9, 51, 0
7, 115008, Note_on_c, 9, 35, 117
7, 115008, Note_on_c, 9, 51, 97
7, 115024, Note_off_c, 9, 35, 0
7, 115024, Note_off_c, 9, 51, 0
7, 115200, Note_on_c, 9, 35, 117
7, 115200, Note_on_c, 9, 51, 117
7, 115216, Note_off_c, 9, 35, 0
7, 115216, Note_off_c, 9, 51, 0
7, 115392, Note_on_c, 9, 51, 77
7, 115408, Note_off_c, 9, 51, 0
7, 115488, Note_on_c, 9, 51, 77
7, 115504, Note_off_c, 9, 51, 0
7, 115584, Note_on_c, 9, 51, 87
7, 115600, Note_off_c, 9, 51, 0
7, 115776, Note_on_c, 9, 38, 107
7, 115776, Note_on_c, 9, 51, 107
7, 115792, Note_off_c, 9, 38, 0
7, 115792, Note_off_c, 9, 51, 0
7, 115968, Note_on_c, 9, 35, 117
7, 115968, Note_on_c, 9, 51, 77
7, 115984, Note_off_c, 9, 35, 0
7, 115984, Note_off_c, 9, 51, 0
7, 116160, Note_on_c, 9, 35, 117
7, 116160, Note_on_c, 9, 51, 97
7, 116176, Note_off_c, 9, 35, 0
7, 116176, Note_off_c, 9, 51, 0
7, 116352, Note_on_c, 9, 35, 117
7, 116352, Note_on_c, 9, 51, 117
7, 116368, Note_off_c, 9, 35, 0
7, 116368, Note_off_c, 9, 51, 0
7, 116544, Note_on_c, 9, 51, 77
7, 116560, Note_off_c, 9, 51, 0
7, 116640, Note_on_c, 9, 51, 77
7, 116656, Note_off_c, 9, 51, 0
7, 116736, Note_on_c, 9, 51, 87
7, 116752, Note_off_c, 9, 51, 0
7, 116928, Note_on_c, 9, 38, 107
7, 116928, Note_on_c, 9, 51, 107
7, 116944, Note_off_c, 9, 38, 0
7, 116944, Note_off_c, 9, 51, 0
7, 117120, Note_on_c, 9, 35, 117
7, 117120, Note_on_c, 9, 51, 77
7, 117136, Note_off_c, 9, 35, 0
7, 117136, Note_off_c, 9, 51, 0
7, 117312, Note_on_c, 9, 35, 117
7, 117312, Note_on_c, 9, 51, 97
7, 117328, Note_off_c, 9, 35, 0
7, 117328, Note_off_c, 9, 51, 0
7, 117504, Note_on_c, 9, 35, 117
7, 117504, Note_on_c, 9, 51, 117
7, 117520, Note_off_c, 9, 35, 0
7, 117520, Note_off_c, 9, 51, 0
7, 117696, Note_on_c, 9, 51, 77
7, 117712, Note_off_c, 9, 51, 0
7, 117792, Note_on_c, 9, 51, 77
7, 117808, Note_off_c, 9, 51, 0
7, 117888, Note_on_c, 9, 51, 87
7, 117904, Note_off_c, 9, 51, 0
7, 118080, Note_on_c, 9, 38, 107
7, 118080, Note_on_c, 9, 51, 107
7, 118096, Note_off_c, 9, 38, 0
7, 118096, Note_off_c, 9, 51, 0
7, 118272, Note_on_c, 9, 35, 117
7, 118272, Note_on_c, 9, 51, 77
7, 118288, Note_off_c, 9, 35, 0
7, 118288, Note_off_c, 9, 51, 0
7, 118464, Note_on_c, 9, 35, 117
7, 118464, Note_on_c, 9, 51, 97
7, 118480, Note_off_c, 9, 35, 0
7, 118480, Note_off_c, 9, 51, 0
7, 118656, Note_on_c, 9, 35, 117
7, 118656, Note_on_c, 9, 51, 117
7, 118672, Note_off_c, 9, 35, 0
7, 118672, Note_off_c, 9, 51, 0
7, 118848, Note_on_c, 9, 51, 77
7, 118864, Note_off_c, 9, 51, 0
7, 118944, Note_on_c, 9, 51, 77
7, 118960, Note_off_c, 9, 51, 0
7, 119040, Note_on_c, 9, 51, 87
7, 119056, Note_off_c, 9, 51, 0
7, 119232, Note_on_c, 9, 38, 107
7, 119232, Note_on_c, 9, 51, 107
7, 119248, Note_off_c, 9, 38, 0
7, 119248, Note_off_c, 9, 51, 0
7, 119424, Note_on_c, 9, 35, 117
7, 119424, Note_on_c, 9, 51, 77
7, 119440, Note_off_c, 9, 35, 0
7, 119440, Note_off_c, 9, 51, 0
7, 119616, Note_on_c, 9, 35, 117
7, 119616, Note_on_c, 9, 51, 97
7, 119632, Note_off_c, 9, 35, 0
7, 119632, Note_off_c, 9, 51, 0
7, 119808, Note_on_c, 9, 35, 117
7, 119808, Note_on_c, 9, 51, 117
7, 119824, Note_off_c, 9, 35, 0
7, 119824, Note_off_c, 9, 51, 0
7, 120000, Note_on_c, 9, 51, 77
7, 120016, Note_off_c, 9, 51, 0
7, 120096, Note_on_c, 9, 51, 77
7, 120112, Note_off_c, 9, 51, 0
7, 120192, Note_on_c, 9, 51, 87
7, 120208, Note_off_c, 9, 51, 0
7, 120384, Note_on_c, 9, 38, 107
7, 120384, Note_on_c, 9, 51, 107
7, 120400, Note_off_c, 9, 38, 0
7, 120400, Note_off_c, 9, 51, 0
7, 120576, Note_on_c, 9, 35, 117
7, 120576, Note_on_c, 9, 51, 77
7, 120592, Note_off_c, 9, 35, 0
7, 120592, Note_off_c, 9, 51, 0
7, 120768, Note_on_c, 9, 35, 117
7, 120768, Note_on_c, 9, 51, 97
7, 120784, Note_off_c, 9, 35, 0
7, 120784, Note_off_c, 9, 51, 0
7, 120960, Note_on_c, 9, 35, 117
7, 120960, Note_on_c, 9, 51, 117
7, 120976, Note_off_c, 9, 35, 0
7, 120976, Note_off_c, 9, 51, 0
7, 121152, Note_on_c, 9, 51, 77
7, 121168, Note_off_c, 9, 51, 0
7, 121248, Note_on_c, 9, 51, 77
7, 121264, Note_off_c, 9, 51, 0
7, 121344, Note_on_c, 9, 51, 87
7, 121360, Note_off_c, 9, 51, 0
7, 121536, Note_on_c, 9, 38, 107
7, 121536, Note_on_c, 9, 51, 107
7, 121552, Note_off_c, 9, 38, 0
7, 121552, Note_off_c, 9, 51, 0
7, 121728, Note_on_c, 9, 35, 117
7, 121728, Note_on_c, 9, 51, 77
7, 121744, Note_off_c, 9, 35, 0
7, 121744, Note_off_c, 9, 51, 0
7, 121920, Note_on_c, 9, 35, 117
7, 121920, Note_on_c, 9, 51, 97
7, 121936, Note_off_c, 9, 35, 0
7, 121936, Note_off_c, 9, 51, 0
7, 122112, Note_on_c, 9, 35, 117
7, 122112, Note_on_c, 9, 51, 117
7, 122128, Note_off_c, 9, 35, 0
7, 122128, Note_off_c, 9, 51, 0
7, 122304, Note_on_c, 9, 51, 77
7, 122320, Note_off_c, 9, 51, 0
7, 122400, Note_on_c, 9, 51, 77
7, 122416, Note_off_c, 9, 51, 0
7, 122496, Note_on_c, 9, 51, 87
7, 122512, Note_off_c, 9, 51, 0
7, 122688, Note_on_c, 9, 38, 107
7, 122688, Note_on_c, 9, 51, 107
7, 122704, Note_off_c, 9, 38, 0
7, 122704, Note_off_c, 9, 51, 0
7, 122880, Note_on_c, 9, 35, 117
7, 122880, Note_on_c, 9, 51, 77
7, 122896, Note_off_c, 9, 35, 0
7, 122896, Note_off_c, 9, 51, 0
7, 123072, Note_on_c, 9, 35, 117
7, 123072, Note_on_c, 9, 51, 97
7, 123088, Note_off_c, 9, 35, 0
7, 123088, Note_off_c, 9, 51, 0
7, 123264, Note_on_c, 9, 35, 117
7, 123264, Note_on_c, 9, 51, 117
7, 123280, Note_off_c, 9, 35, 0
7, 123280, Note_off_c, 9, 51, 0
7, 123456, Note_on_c, 9, 51, 77
7, 123472, Note_off_c, 9, 51, 0
7, 123552, Note_on_c, 9, 51, 77
7, 123568, Note_off_c, 9, 51, 0
7, 123648, Note_on_c, 9, 51, 87
7, 123664, Note_off_c, 9, 51, 0
7, 123840, Note_on_c, 9, 38, 107
7, 123840, Note_on_c, 9, 51, 107
7, 123856, Note_off_c, 9, 38, 0
7, 123856, Note_off_c, 9, 51, 0
7, 124032, Note_on_c, 9, 35, 117
7, 124032, Note_on_c, 9, 51, 77
7, 124048, Note_off_c, 9, 35, 0
7, 124048, Note_off_c, 9, 51, 0
7, 124224, Note_on_c, 9, 35, 117
7, 124224, Note_on_c, 9, 51, 97
7, 124240, Note_off_c, 9, 35, 0
7, 124240, Note_off_c, 9, 51, 0
7, 124416, Note_on_c, 9, 35, 117
7, 124416, Note_on_c, 9, 51, 117
7, 124432, Note_off_c, 9, 35, 0
7, 124432, Note_off_c, 9, 51, 0
7, 124608, Note_on_c, 9, 51, 77
7, 124624, Note_off_c, 9, 51, 0
7, 124704, Note_on_c, 9, 51, 77
7, 124720, Note_off_c, 9, 51, 0
7, 124800, Note_on_c, 9, 51, 87
7, 124816, Note_off_c, 9, 51, 0
7, 124992, Note_on_c, 9, 38, 107
7, 124992, Note_on_c, 9, 51, 107
7, 125008, Note_off_c, 9, 38, 0
7, 125008, Note_off_c, 9, 51, 0
7, 125184, Note_on_c, 9, 35, 117
7, 125184, Note_on_c, 9, 51, 77
7, 125200, Note_off_c, 9, 35, 0
7, 125200, Note_off_c, 9, 51, 0
7, 125376, Note_on_c, 9, 35, 117
7, 125376, Note_on_c, 9, 51, 97
7, 125392, Note_off_c, 9, 35, 0
7, 125392, Note_off_c, 9, 51, 0
7, 125568, Note_on_c, 9, 35, 117
7, 125568, Note_on_c, 9, 51, 117
7, 125584, Note_off_c, 9, 35, 0
7, 125584, Note_off_c, 9, 51, 0
7, 125760, Note_on_c, 9, 51, 77
7, 125776, Note_off_c, 9, 51, 0
7, 125856, Note_on_c, 9, 51, 77
7, 125872, Note_off_c, 9, 51, 0
7, 125952, Note_on_c, 9, 51, 87
7, 125968, Note_off_c, 9, 51, 0
7, 126144, Note_on_c, 9, 38, 107
7, 126144, Note_on_c, 9, 51, 107
7, 126160, Note_off_c, 9, 38, 0
7, 126160, Note_off_c, 9, 51, 0
7, 126336, Note_on_c, 9, 35, 117
7, 126336, Note_on_c, 9, 51, 77
7, 126352, Note_off_c, 9, 35, 0
7, 126352, Note_off_c, 9, 51, 0
7, 126528, Note_on_c, 9, 35, 117
7, 126528, Note_on_c, 9, 51, 97
7, 126544, Note_off_c, 9, 35, 0
7, 126544, Note_off_c, 9, 51, 0
7, 126720, Note_on_c, 9, 35, 117
7, 126720, Note_on_c, 9, 51, 117
7, 126736, Note_off_c, 9, 35, 0
7, 126736, Note_off_c, 9, 51, 0
7, 126912, Note_on_c, 9, 51, 77
7, 126928, Note_off_c, 9, 51, 0
7, 127008, Note_on_c, 9, 51, 77
7, 127024, Note_off_c, 9, 51, 0
7, 127104, Note_on_c, 9, 51, 87
7, 127120, Note_off_c, 9, 51, 0
7, 127296, Note_on_c, 9, 38, 107
7, 127296, Note_on_c, 9, 51, 107
7, 127312, Note_off_c, 9, 38, 0
7, 127312, Note_off_c, 9, 51, 0
7, 127488, Note_on_c, 9, 35, 117
7, 127488, Note_on_c, 9, 51, 77
7, 127504, Note_off_c, 9, 35, 0
7, 127504, Note_off_c, 9, 51, 0
7, 127680, Note_on_c, 9, 35, 117
7, 127680, Note_on_c, 9, 51, 97
7, 127696, Note_off_c, 9, 35, 0
7, 127696, Note_off_c, 9, 51, 0
7, 127872, Note_on_c, 9, 35, 117
7, 127872, Note_on_c, 9, 51, 117
7, 127888, Note_off_c, 9, 35, 0
7, 127888, Note_off_c, 9, 51, 0
7, 128064, Note_on_c, 9, 51, 77
7, 128080, Note_off_c, 9, 51, 0
7, 128160, Note_on_c, 9, 51, 77
7, 128176, Note_off_c, 9, 51, 0
7, 128256, Note_on_c, 9, 51, 87
7, 128272, Note_off_c, 9, 51, 0
7, 128448, Note_on_c, 9, 38, 107
7, 128448, Note_on_c, 9, 51, 107
7, 128464, Note_off_c, 9, 38, 0
7, 128464, Note_off_c, 9, 51, 0
7, 128640, Note_on_c, 9, 35, 117
7, 128640, Note_on_c, 9, 51, 77
7, 128656, Note_off_c, 9, 35, 0
7, 128656, Note_off_c, 9, 51, 0
7, 128832, Note_on_c, 9, 35, 117
7, 128832, Note_on_c, 9, 51, 97
7, 128848, Note_off_c, 9, 35, 0
7, 128848, Note_off_c, 9, 51, 0
7, 129024, Note_on_c, 9, 35, 117
7, 129024, Note_on_c, 9, 51, 117
7, 129040, Note_off_c, 9, 35, 0
7, 129040, Note_off_c, 9, 51, 0
7, 129216, Note_on_c, 9, 51, 77
7, 129232, Note_off_c, 9, 51, 0
7, 129312, Note_on_c, 9, 51, 77
7, 129328, Note_off_c, 9, 51, 0
7, 129408, Note_on_c, 9, 51, 87
7, 129424, Note_off_c, 9, 51, 0
7, 129600, Note_on_c, 9, 38, 107
7, 129600, Note_on_c, 9, 51, 107
7, 129616, Note_off_c, 9, 38, 0
7, 129616, Note_off_c, 9, 51, 0
7, 129792, Note_on_c, 9, 35, 117
7, 129792, Note_on_c, 9, 51, 77
7, 129808, Note_off_c, 9, 35, 0
7, 129808, Note_off_c, 9, 51, 0
7, 129984, Note_on_c, 9, 35, 117
7, 129984, Note_on_c, 9, 51, 97
7, 130000, Note_off_c, 9, 35, 0
7, 130000, Note_off_c, 9, 51, 0
7, 130176, Note_on_c, 9, 35, 117
7, 130176, Note_on_c, 9, 51, 117
7, 130192, Note_off_c, 9, 35, 0
7, 130192, Note_off_c, 9, 51, 0
7, 130368, Note_on_c, 9, 51, 77
7, 130384, Note_off_c, 9, 51, 0
7, 130464, Note_on_c, 9, 51, 77
7, 130480, Note_off_c, 9, 51, 0
7, 130560, Note_on_c, 9, 51, 87
7, 130576, Note_off_c, 9, 51, 0
7, 130752, Note_on_c, 9, 38, 107
7, 130752, Note_on_c, 9, 51, 107
7, 130768, Note_off_c, 9, 38, 0
7, 130768, Note_off_c, 9, 51, 0
7, 130944, Note_on_c, 9, 35, 117
7, 130944, Note_on_c, 9, 51, 77
7, 130960, Note_off_c, 9, 35, 0
7, 130960, Note_off_c, 9, 51, 0
7, 131136, Note_on_c, 9, 35, 117
7, 131136, Note_on_c, 9, 51, 97
7, 131152, Note_off_c, 9, 35, 0
7, 131152, Note_off_c, 9, 51, 0
7, 131328, Note_on_c, 9, 35, 117
7, 131328, Note_on_c, 9, 51, 117
7, 131344, Note_off_c, 9, 35, 0
7, 131344, Note_off_c, 9, 51, 0
7, 131520, Note_on_c, 9, 51, 77
7, 131536, Note_off_c, 9, 51, 0
7, 131616, Note_on_c, 9, 51, 77
7, 131632, Note_off_c, 9, 51, 0
7, 131712, Note_on_c, 9, 51, 87
7, 131728, Note_off_c, 9, 51, 0
7, 131904, Note_on_c, 9, 38, 107
7, 131904, Note_on_c, 9, 51, 107
7, 131920, Note_off_c, 9, 38, 0
7, 131920, Note_off_c, 9, 51, 0
7, 132096, Note_on_c, 9, 35, 117
7, 132096, Note_on_c, 9, 51, 77
7, 132112, Note_off_c, 9, 35, 0
7, 132112, Note_off_c, 9, 51, 0
7, 132288, Note_on_c, 9, 35, 117
7, 132288, Note_on_c, 9, 51, 97
7, 132304, Note_off_c, 9, 35, 0
7, 132304, Note_off_c, 9, 51, 0
7, 132480, Note_on_c, 9, 35, 117
7, 132480, Note_on_c, 9, 51, 117
7, 132496, Note_off_c, 9, 35, 0
7, 132496, Note_off_c, 9, 51, 0
7, 132672, Note_on_c, 9, 51, 77
7, 132688, Note_off_c, 9, 51, 0
7, 132768, Note_on_c, 9, 51, 77
7, 132784, Note_off_c, 9, 51, 0
7, 132864, Note_on_c, 9, 51, 87
7, 132880, Note_off_c, 9, 51, 0
7, 133056, Note_on_c, 9, 38, 107
7, 133056, Note_on_c, 9, 51, 107
7, 133072, Note_off_c, 9, 38, 0
7, 133072, Note_off_c, 9, 51, 0
7, 133248, Note_on_c, 9, 35, 117
7, 133248, Note_on_c, 9, 51, 77
7, 133264, Note_off_c, 9, 35, 0
7, 133264, Note_off_c, 9, 51, 0
7, 133440, Note_on_c, 9, 35, 117
7, 133440, Note_on_c, 9, 51, 97
7, 133456, Note_off_c, 9, 35, 0
7, 133456, Note_off_c, 9, 51, 0
7, 133632, Note_on_c, 9, 35, 117
7, 133632, Note_on_c, 9, 51, 117
7, 133648, Note_off_c, 9, 35, 0
7, 133648, Note_off_c, 9, 51, 0
7, 133824, Note_on_c, 9, 51, 77
7, 133840, Note_off_c, 9, 51, 0
7, 133920, Note_on_c, 9, 51, 77
7, 133936, Note_off_c, 9, 51, 0
7, 134016, Note_on_c, 9, 51, 87
7, 134032, Note_off_c, 9, 51, 0
7, 134208, Note_on_c, 9, 38, 107
7, 134208, Note_on_c, 9, 51, 107
7, 134224, Note_off_c, 9, 38, 0
7, 134224, Note_off_c, 9, 51, 0
7, 134400, Note_on_c, 9, 35, 117
7, 134400, Note_on_c, 9, 51, 77
7, 134416, Note_off_c, 9, 35, 0
7, 134416, Note_off_c, 9, 51, 0
7, 134592, Note_on_c, 9, 35, 117
7, 134592, Note_on_c, 9, 51, 97
7, 134608, Note_off_c, 9, 35, 0
7, 134608, Note_off_c, 9, 51, 0
7, 134784, Note_on_c, 9, 35, 117
7, 134784, Note_on_c, 9, 51, 117
7, 134800, Note_off_c, 9, 35, 0
7, 134800, Note_off_c, 9, 51, 0
7, 134976, Note_on_c, 9, 51, 77
7, 134992, Note_off_c, 9, 51, 0
7, 135072, Note_on_c, 9, 51, 77
7, 135088, Note_off_c, 9, 51, 0
7, 135168, Note_on_c, 9, 51, 87
7, 135184, Note_off_c, 9, 51, 0
7, 135360, Note_on_c, 9, 38, 107
7, 135360, Note_on_c, 9, 51, 107
7, 135376, Note_off_c, 9, 38, 0
7, 135376, Note_off_c, 9, 51, 0
7, 135552, Note_on_c, 9, 35, 117
7, 135552, Note_on_c, 9, 51, 77
7, 135568, Note_off_c, 9, 35, 0
7, 135568, Note_off_c, 9, 51, 0
7, 135744, Note_on_c, 9, 35, 117
7, 135744, Note_on_c, 9, 51, 97
7, 135760, Note_off_c, 9, 35, 0
7, 135760, Note_off_c, 9, 51, 0
7, 135936, Note_on_c, 9, 35, 117
7, 135936, Note_on_c, 9, 51, 117
7, 135952, Note_off_c, 9, 35, 0
7, 135952, Note_off_c, 9, 51, 0
7, 136128, Note_on_c, 9, 51, 77
7, 136144, Note_off_c, 9, 51, 0
7, 136224, Note_on_c, 9, 51, 77
7, 136240, Note_off_c, 9, 51, 0
7, 136320, Note_on_c, 9, 51, 87
7, 136336, Note_off_c, 9, 51, 0
7, 136512, Note_on_c, 9, 38, 107
7, 136512, Note_on_c, 9, 51, 107
7, 136528, Note_off_c, 9, 38, 0
7, 136528, Note_off_c, 9, 51, 0
7, 136704, Note_on_c, 9, 35, 117
7, 136704, Note_on_c, 9, 51, 77
7, 136720, Note_off_c, 9, 35, 0
7, 136720, Note_off_c, 9, 51, 0
7, 136896, Note_on_c, 9, 35, 117
7, 136896, Note_on_c, 9, 51, 97
7, 136912, Note_off_c, 9, 35, 0
7, 136912, Note_off_c, 9, 51, 0
7, 137088, Note_on_c, 9, 35, 117
7, 137088, Note_on_c, 9, 51, 117
7, 137104, Note_off_c, 9, 35, 0
7, 137104, Note_off_c, 9, 51, 0
7, 137280, Note_on_c, 9, 51, 77
7, 137296, Note_off_c, 9, 51, 0
7, 137376, Note_on_c, 9, 51, 77
7, 137392, Note_off_c, 9, 51, 0
7, 137472, Note_on_c, 9, 51, 87
7, 137488, Note_off_c, 9, 51, 0
7, 137664, Note_on_c, 9, 38, 107
7, 137664, Note_on_c, 9, 51, 107
7, 137680, Note_off_c, 9, 38, 0
7, 137680, Note_off_c, 9, 51, 0
7, 137856, Note_on_c, 9, 35, 117
7, 137856, Note_on_c, 9, 51, 77
7, 137872, Note_off_c, 9, 35, 0
7, 137872, Note_off_c, 9, 51, 0
7, 138048, Note_on_c, 9, 35, 117
7, 138048, Note_on_c, 9, 51, 97
7, 138064, Note_off_c, 9, 35, 0
7, 138064, Note_off_c, 9, 51, 0
7, 138240, Note_on_c, 9, 35, 117
7, 138240, Note_on_c, 9, 41, 81
7, 138240, Note_on_c, 9, 45, 81
7, 138240, Note_on_c, 9, 51, 117
7, 138256, Note_off_c, 9, 35, 0
7, 138256, Note_off_c, 9, 41, 0
7, 138256, Note_off_c, 9, 45, 0
7, 138256, Note_off_c, 9, 51, 0
7, 138432, Note_on_c, 9, 41, 85
7, 138432, Note_on_c, 9, 45, 85
7, 138432, Note_on_c, 9, 51, 77
7, 138448, Note_off_c, 9, 41, 0
7, 138448, Note_off_c, 9, 45, 0
7, 138448, Note_off_c, 9, 51, 0
7, 138528, Note_on_c, 9, 51, 77
7, 138544, Note_off_c, 9, 51, 0
7, 138624, Note_on_c, 9, 41, 90
7, 138624, Note_on_c, 9, 45, 90
7, 138624, Note_on_c, 9, 51, 87
7, 138640, Note_off_c, 9, 41, 0
7, 138640, Note_off_c, 9, 45, 0
7, 138640, Note_off_c, 9, 51, 0
7, 138816, Note_on_c, 9, 38, 107
7, 138816, Note_on_c, 9, 41, 94
7, 138816, Note_on_c, 9, 45, 94
7, 138816, Note_on_c, 9, 51, 107
7, 138832, Note_off_c, 9, 38, 0
7, 138832, Note_off_c, 9, 41, 0
7, 138832, Note_off_c, 9, 45, 0
7, 138832, Note_off_c, 9, 51, 0
7, 139008, Note_on_c, 9, 35, 117
7, 139008, Note_on_c, 9, 41, 99
7, 139008, Note_on_c, 9, 45, 99
7, 139008, Note_on_c, 9, 51, 77
7, 139024, Note_off_c, 9, 35, 0
7, 139024, Note_off_c, 9, 41, 0
7, 139024, Note_off_c, 9, 45, 0
7, 139024, Note_off_c, 9, 51, 0
7, 139200, Note_on_c, 9, 35, 117
7, 139200, Note_on_c, 9, 41, 104
7, 139200, Note_on_c, 9, 45, 104
7, 139200, Note_on_c, 9, 51, 97
7, 139216, Note_off_c, 9, 35, 0
7, 139216, Note_off_c, 9, 41, 0
7, 139216, Note_off_c, 9, 45, 0
7, 139216, Note_off_c, 9, 51, 0
7, 139392, Note_on_c, 9, 35, 127
7, 139392, Note_on_c, 9, 46, 91
7, 139392, Note_on_c, 9, 51, 127
7, 139408, Note_off_c, 9, 35, 0
7, 139408, Note_off_c, 9, 46, 0
7, 139408, Note_off_c, 9, 51, 0
7, 139584, Note_on_c, 9, 51, 87
7, 139600, Note_off_c, 9, 51, 0
7, 139680, Note_on_c, 9, 38, 85
7, 139680, Note_on_c, 9, 51, 87
7, 139696, Note_off_c, 9, 38, 0
7, 139696, Note_off_c, 9, 51, 0
7, 139776, Note_on_c, 9, 38, 85
7, 139776, Note_on_c, 9, 51, 97
7, 139792, Note_off_c, 9, 38, 0
7, 139792, Note_off_c, 9, 51, 0
7, 139968, Note_on_c, 9, 38, 117
7, 139968, Note_on_c, 9, 46, 91
7, 139968, Note_on_c, 9, 51, 117
7, 139984, Note_off_c, 9, 38, 0
7, 139984, Note_off_c, 9, 46, 0
7, 139984, Note_off_c, 9, 51, 0
7, 140160, Note_on_c, 9, 35, 127
7, 140160, Note_on_c, 9, 51, 87
7, 140176, Note_off_c, 9, 35, 0
7, 140176, Note_off_c, 9, 51, 0
7, 140352, Note_on_c, 9, 35, 127
7, 140352, Note_on_c, 9, 51, 107
7, 140368, Note_off_c, 9, 35, 0
7, 140368, Note_off_c, 9, 51, 0
7, 140544, Note_on_c, 9, 35, 127
7, 140544, Note_on_c, 9, 46, 91
7, 140544, Note_on_c, 9, 51, 127
7, 140560, Note_off_c, 9, 35, 0
7, 140560, Note_off_c, 9, 46, 0
7, 140560, Note_off_c, 9, 51, 0
7, 140736, Note_on_c, 9, 51, 87
7, 140752, Note_off_c, 9, 51, 0
7, 140832, Note_on_c, 9, 38, 85
7, 140832, Note_on_c, 9, 51, 87
7, 140848, Note_off_c, 9, 38, 0
7, 140848, Note_off_c, 9, 51, 0
7, 140928, Note_on_c, 9, 38, 85
7, 140928, Note_on_c, 9, 51, 97
7, 140944, Note_off_c, 9, 38, 0
7, 140944, Note_off_c, 9, 51, 0
7, 141120, Note_on_c, 9, 38, 117
7, 141120, Note_on_c, 9, 46, 91
7, 141120, Note_on_c, 9, 51, 117
7, 141136, Note_off_c, 9, 38, 0
7, 141136, Note_off_c, 9, 46, 0
7, 141136, Note_off_c, 9, 51, 0
7, 141312, Note_on_c, 9, 35, 127
7, 141312, Note_on_c, 9, 51, 87
7, 141328, Note_off_c, 9, 35, 0
7, 141328, Note_off_c, 9, 51, 0
7, 141504, Note_on_c, 9, 35, 127
7, 141504, Note_on_c, 9, 51, 107
7, 141520, Note_off_c, 9, 35, 0
7, 141520, Note_off_c, 9, 51, 0
7, 141696, Note_on_c, 9, 35, 127
7, 141696, Note_on_c, 9, 46, 91
7, 141696, Note_on_c, 9, 51, 127
7, 141712, Note_off_c, 9, 35, 0
7, 141712, Note_off_c, 9, 46, 0
7, 141712, Note_off_c, 9, 51, 0
7, 141888, Note_on_c, 9, 38, 85
7, 141888, Note_on_c, 9, 51, 87
7, 141904, Note_off_c, 9, 38, 0
7, 141904, Note_off_c, 9, 51, 0
7, 141984, Note_on_c, 9, 38, 85
7, 141984, Note_on_c, 9, 51, 87
7, 142000, Note_off_c, 9, 38, 0
7, 142000, Note_off_c, 9, 51, 0
7, 142080, Note_on_c, 9, 38, 85
7, 142080, Note_on_c, 9, 51, 97
7, 142096, Note_off_c, 9, 38, 0
7, 142096, Note_off_c, 9, 51, 0
7, 142272, Note_on_c, 9, 38, 117
7, 142272, Note_on_c, 9, 46, 91
7, 142272, Note_on_c, 9, 51, 117
7, 142288, Note_off_c, 9, 38, 0
7, 142288, Note_off_c, 9, 46, 0
7, 142288, Note_off_c, 9, 51, 0
7, 142464, Note_on_c, 9, 35, 127
7, 142464, Note_on_c, 9, 51, 87
7, 142480, Note_off_c, 9, 35, 0
7, 142480, Note_off_c, 9, 51, 0
7, 142656, Note_on_c, 9, 35, 127
7, 142656, Note_on_c, 9, 51, 107
7, 142672, Note_off_c, 9, 35, 0
7, 142672, Note_off_c, 9, 51, 0
7, 142848, Note_on_c, 9, 35, 127
7, 142848, Note_on_c, 9, 46, 91
7, 142848, Note_on_c, 9, 51, 127
7, 142864, Note_off_c, 9, 35, 0
7, 142864, Note_off_c, 9, 46, 0
7, 142864, Note_off_c, 9, 51, 0
7, 143040, Note_on_c, 9, 38, 85
7, 143040, Note_on_c, 9, 51, 87
7, 143056, Note_off_c, 9, 38, 0
7, 143056, Note_off_c, 9, 51, 0
7, 143136, Note_on_c, 9, 38, 85
7, 143136, Note_on_c, 9, 51, 87
7, 143152, Note_off_c, 9, 38, 0
7, 143152, Note_off_c, 9, 51, 0
7, 143232, Note_on_c, 9, 38, 85
7, 143232, Note_on_c, 9, 51, 97
7, 143248, Note_off_c, 9, 38, 0
7, 143248, Note_off_c, 9, 51, 0
7, 143424, Note_on_c, 9, 38, 117
7, 143424, Note_on_c, 9, 46, 91
7, 143424, Note_on_c, 9, 51, 117
7, 143440, Note_off_c, 9, 38, 0
7, 143440, Note_off_c, 9, 46, 0
7, 143440, Note_off_c, 9, 51, 0
7, 143616, Note_on_c, 9, 35, 127
7, 143616, Note_on_c, 9, 51, 87
7, 143632, Note_off_c, 9, 35, 0
7, 143632, Note_off_c, 9, 51, 0
7, 143808, Note_on_c, 9, 35, 127
7, 143808, Note_on_c, 9, 51, 107
7, 143824, Note_off_c, 9, 35, 0
7, 143824, Note_off_c, 9, 51, 0
7, 144000, Note_on_c, 9, 35, 127
7, 144000, Note_on_c, 9, 49, 91
7, 144000, Note_on_c, 9, 51, 127
7, 144016, Note_off_c, 9, 35, 0
7, 144016, Note_off_c, 9, 49, 0
7, 144016, Note_off_c, 9, 51, 0
7, 144192, Note_on_c, 9, 51, 87
7, 144208, Note_off_c, 9, 51, 0
7, 144288, Note_on_c, 9, 38, 85
7, 144288, Note_on_c, 9, 51, 87
7, 144304, Note_off_c, 9, 38, 0
7, 144304, Note_off_c, 9, 51, 0
7, 144384, Note_on_c, 9, 38, 85
7, 144384, Note_on_c, 9, 51, 97
7, 144400, Note_off_c, 9, 38, 0
7, 144400, Note_off_c, 9, 51, 0
7, 144576, Note_on_c, 9, 38, 117
7, 144576, Note_on_c, 9, 46, 91
7, 144576, Note_on_c, 9, 51, 117
7, 144592, Note_off_c, 9, 38, 0
7, 144592, Note_off_c, 9, 46, 0
7, 144592, Note_off_c, 9, 51, 0
7, 144768, Note_on_c, 9, 35, 127
7, 144768, Note_on_c, 9, 51, 87
7, 144784, Note_off_c, 9, 35, 0
7, 144784, Note_off_c, 9, 51, 0
7, 144960, Note_on_c, 9, 35, 127
7, 144960, Note_on_c, 9, 51, 107
7, 144976, Note_off_c, 9, 35, 0
7, 144976, Note_off_c, 9, 51, 0
7, 145152, Note_on_c, 9, 35, 127
7, 145152, Note_on_c, 9, 46, 91
7, 145152, Note_on_c, 9, 51, 127
7, 145168, Note_off_c, 9, 35, 0
7, 145168, Note_off_c, 9, 46, 0
7, 145168, Note_off_c, 9, 51, 0
7, 145344, Note_on_c, 9, 51, 87
7, 145360, Note_off_c, 9, 51, 0
7, 145440, Note_on_c, 9, 38, 85
7, 145440, Note_on_c, 9, 51, 87
7, 145456, Note_off_c, 9, 38, 0
7, 145456, Note_off_c, 9, 51, 0
7, 145536, Note_on_c, 9, 38, 85
7, 145536, Note_on_c, 9, 51, 97
7, 145552, Note_off_c, 9, 38, 0
7, 145552, Note_off_c, 9, 51, 0
7, 145728, Note_on_c, 9, 38, 117
7, 145728, Note_on_c, 9, 46, 91
7, 145728, Note_on_c, 9, 51, 117
7, 145744, Note_off_c, 9, 38, 0
7, 145744, Note_off_c, 9, 46, 0
7, 145744, Note_off_c, 9, 51, 0
7, 145920, Note_on_c, 9, 35, 127
7, 145920, Note_on_c, 9, 51, 87
7, 145936, Note_off_c, 9, 35, 0
7, 145936, Note_off_c, 9, 51, 0
7, 146112, Note_on_c, 9, 35, 127
7, 146112, Note_on_c, 9, 51, 107
7, 146128, Note_off_c, 9, 35, 0
7, 146128, Note_off_c, 9, 51, 0
7, 146304, Note_on_c, 9, 35, 127
7, 146304, Note_on_c, 9, 49, 91
7, 146304, Note_on_c, 9, 51, 127
7, 146320, Note_off_c, 9, 35, 0
7, 146320, Note_off_c, 9, 49, 0
7, 146320, Note_off_c, 9, 51, 0
7, 146496, Note_on_c, 9, 51, 87
7, 146512, Note_off_c, 9, 51, 0
7, 146592, Note_on_c, 9, 51, 87
7, 146608, Note_off_c, 9, 51, 0
7, 146688, Note_on_c, 9, 51, 97
7, 146704, Note_off_c, 9, 51, 0
7, 146880, Note_on_c, 9, 38, 117
7, 146880, Note_on_c, 9, 46, 91
7, 146880, Note_on_c, 9, 51, 117
7, 146896, Note_off_c, 9, 38, 0
7, 146896, Note_off_c, 9, 46, 0
7, 146896, Note_off_c, 9, 51, 0
7, 147072, Note_on_c, 9, 35, 127
7, 147072, Note_on_c, 9, 38, 85
7, 147072, Note_on_c, 9, 51, 87
7, 147088, Note_off_c, 9, 35, 0
7, 147088, Note_off_c, 9, 38, 0
7, 147088, Note_off_c, 9, 51, 0
7, 147264, Note_on_c, 9, 35, 127
7, 147264, Note_on_c, 9, 38, 85
7, 147264, Note_on_c, 9, 51, 107
7, 147280, Note_off_c, 9, 35, 0
7, 147280, Note_off_c, 9, 38, 0
7, 147280, Note_off_c, 9, 51, 0
7, 147456, Note_on_c, 9, 35, 127
7, 147456, Note_on_c, 9, 38, 85
7, 147456, Note_on_c, 9, 46, 91
7, 147456, Note_on_c, 9, 51, 127
7, 147472, Note_off_c, 9, 35, 0
7, 147472, Note_off_c, 9, 38, 0
7, 147472, Note_off_c, 9, 46, 0
7, 147472, Note_off_c, 9, 51, 0
7, 147648, Note_on_c, 9, 38, 85
7, 147648, Note_on_c, 9, 51, 87
7, 147664, Note_off_c, 9, 38, 0
7, 147664, Note_off_c, 9, 51, 0
7, 147744, Note_on_c, 9, 51, 87
7, 147760, Note_off_c, 9, 51, 0
7, 147840, Note_on_c, 9, 38, 85
7, 147840, Note_on_c, 9, 51, 97
7, 147856, Note_off_c, 9, 38, 0
7, 147856, Note_off_c, 9, 51, 0
7, 148032, Note_on_c, 9, 38, 117
7, 148032, Note_on_c, 9, 46, 91
7, 148032, Note_on_c, 9, 51, 117
7, 148048, Note_off_c, 9, 38, 0
7, 148048, Note_off_c, 9, 46, 0
7, 148048, Note_off_c, 9, 51, 0
7, 148224, Note_on_c, 9, 35, 127
7, 148224, Note_on_c, 9, 38, 85
7, 148224, Note_on_c, 9, 51, 87
7, 148240, Note_off_c, 9, 35, 0
7, 148240, Note_off_c, 9, 38, 0
7, 148240, Note_off_c, 9, 51, 0
7, 148416, Note_on_c, 9, 35, 127
7, 148416, Note_on_c, 9, 38, 85
7, 148416, Note_on_c, 9, 51, 107
7, 148432, Note_off_c, 9, 35, 0
7, 148432, Note_off_c, 9, 38, 0
7, 148432, Note_off_c, 9, 51, 0
7, 148608, Note_on_c, 9, 35, 127
7, 148608, Note_on_c, 9, 49, 91
7, 148608, Note_on_c, 9, 51, 127
7, 148624, Note_off_c, 9, 35, 0
7, 148624, Note_off_c, 9, 49, 0
7, 148624, Note_off_c, 9, 51, 0
7, 148800, Note_on_c, 9, 51, 87
7, 148816, Note_off_c, 9, 51, 0
7, 148896, Note_on_c, 9, 51, 87
7, 148912, Note_off_c, 9, 51, 0
7, 148992, Note_on_c, 9, 51, 97
7, 149008, Note_off_c, 9, 51, 0
7, 149184, Note_on_c, 9, 38, 117
7, 149184, Note_on_c, 9, 46, 91
7, 149184, Note_on_c, 9, 51, 117
7, 149200, Note_off_c, 9, 38, 0
7, 149200, Note_off_c, 9, 46, 0
7, 149200, Note_off_c, 9, 51, 0
7, 149376, Note_on_c, 9, 35, 127
7, 149376, Note_on_c, 9, 51, 87
7, 149392, Note_off_c, 9, 35, 0
7, 149392, Note_off_c, 9, 51, 0
7, 149568, Note_on_c, 9, 35, 127
7, 149568, Note_on_c, 9, 51, 107
7, 149584, Note_off_c, 9, 35, 0
7, 149584, Note_off_c, 9, 51, 0
7, 149760, Note_on_c, 9, 35, 127
7, 149760, Note_on_c, 9, 46, 91
7, 149760, Note_on_c, 9, 51, 127
7, 149776, Note_off_c, 9, 35, 0
7, 149776, Note_off_c, 9, 46, 0
7, 149776, Note_off_c, 9, 51, 0
7, 149952, Note_on_c, 9, 51, 87
7, 149968, Note_off_c, 9, 51, 0
7, 150048, Note_on_c, 9, 51, 87
7, 150064, Note_off_c, 9, 51, 0
7, 150144, Note_on_c, 9, 51, 97
7, 150160, Note_off_c, 9, 51, 0
7, 150336, Note_on_c, 9, 38, 117
7, 150336, Note_on_c, 9, 46, 91
7, 150336, Note_on_c, 9, 51, 117
7, 150352, Note_off_c, 9, 38, 0
7, 150352, Note_off_c, 9, 46, 0
7, 150352, Note_off_c, 9, 51, 0
7, 150528, Note_on_c, 9, 35, 127
7, 150528, Note_on_c, 9, 51, 87
7, 150544, Note_off_c, 9, 35, 0
7, 150544, Note_off_c, 9, 51, 0
7, 150720, Note_on_c, 9, 35, 127
7, 150720, Note_on_c, 9, 51, 107
7, 150736, Note_off_c, 9, 35, 0
7, 150736, Note_off_c, 9, 51, 0
7, 150912, Note_on_c, 9, 35, 127
7, 150912, Note_on_c, 9, 46, 91
7, 150912, Note_on_c, 9, 51, 127
7, 150928, Note_off_c, 9, 35, 0
7, 150928, Note_off_c, 9, 46, 0
7, 150928, Note_off_c, 9, 51, 0
7, 151104, Note_on_c, 9, 51, 87
7, 151120, Note_off_c, 9, 51, 0
7, 151200, Note_on_c, 9, 51, 87
7, 151216, Note_off_c, 9, 51, 0
7, 151296, Note_on_c, 9, 51, 97
7, 151312, Note_off_c, 9, 51, 0
7, 151488, Note_on_c, 9, 38, 117
7, 151488, Note_on_c, 9, 46, 91
7, 151488, Note_on_c, 9, 51, 117
7, 151504, Note_off_c, 9, 38, 0
7, 151504, Note_off_c, 9, 46, 0
7, 151504, Note_off_c, 9, 51, 0
7, 151680, Note_on_c, 9, 35, 127
7, 151680, Note_on_c, 9, 51, 87
7, 151696, Note_off_c, 9, 35, 0
7, 151696, Note_off_c, 9, 51, 0
7, 151872, Note_on_c, 9, 35, 127
7, 151872, Note_on_c, 9, 51, 107
7, 151888, Note_off_c, 9, 35, 0
7, 151888, Note_off_c, 9, 51, 0
7, 152064, Note_on_c, 9, 35, 127
7, 152064, Note_on_c, 9, 46, 91
7, 152064, Note_on_c, 9, 51, 127
7, 152080, Note_off_c, 9, 35, 0
7, 152080, Note_off_c, 9, 46, 0
7, 152080, Note_off_c, 9, 51, 0
7, 152256, Note_on_c, 9, 51, 87
7, 152272, Note_off_c, 9, 51, 0
7, 152352, Note_on_c, 9, 38, 85
7, 152352, Note_on_c, 9, 51, 87
7, 152368, Note_off_c, 9, 38, 0
7, 152368, Note_off_c, 9, 51, 0
7, 152448, Note_on_c, 9, 38, 85
7, 152448, Note_on_c, 9, 51, 97
7, 152464, Note_off_c, 9, 38, 0
7, 152464, Note_off_c, 9, 51, 0
7, 152640, Note_on_c, 9, 38, 85
7, 152640, Note_on_c, 9, 46, 91
7, 152640, Note_on_c, 9, 51, 117
7, 152656, Note_off_c, 9, 38, 0
7, 152656, Note_off_c, 9, 46, 0
7, 152656, Note_off_c, 9, 51, 0
7, 152832, Note_on_c, 9, 35, 127
7, 152832, Note_on_c, 9, 38, 85
7, 152832, Note_on_c, 9, 51, 87
7, 152848, Note_off_c, 9, 35, 0
7, 152848, Note_off_c, 9, 38, 0
7, 152848, Note_off_c, 9, 51, 0
7, 153024, Note_on_c, 9, 35, 127
7, 153024, Note_on_c, 9, 38, 85
7, 153024, Note_on_c, 9, 51, 107
7, 153040, Note_off_c, 9, 35, 0
7, 153040, Note_off_c, 9, 38, 0
7, 153040, Note_off_c, 9, 51, 0
7, 153216, Note_on_c, 9, 35, 127
7, 153216, Note_on_c, 9, 46, 91
7, 153216, Note_on_c, 9, 51, 127
7, 153232, Note_off_c, 9, 35, 0
7, 153232, Note_off_c, 9, 46, 0
7, 153232, Note_off_c, 9, 51, 0
7, 153408, Note_on_c, 9, 51, 87
7, 153424, Note_off_c, 9, 51, 0
7, 153504, Note_on_c, 9, 51, 87
7, 153520, Note_off_c, 9, 51, 0
7, 153600, Note_on_c, 9, 51, 97
7, 153616, Note_off_c, 9, 51, 0
7, 153792, Note_on_c, 9, 38, 117
7, 153792, Note_on_c, 9, 46, 91
7, 153792, Note_on_c, 9, 51, 117
7, 153808, Note_off_c, 9, 38, 0
7, 153808, Note_off_c, 9, 46, 0
7, 153808, Note_off_c, 9, 51, 0
7, 153984, Note_on_c, 9, 35, 127
7, 153984, Note_on_c, 9, 51, 87
7, 154000, Note_off_c, 9, 35, 0
7, 154000, Note_off_c, 9, 51, 0
7, 154176, Note_on_c, 9, 35, 127
7, 154176, Note_on_c, 9, 51, 107
7, 154192, Note_off_c, 9, 35, 0
7, 154192, Note_off_c, 9, 51, 0
7, 154368, Note_on_c, 9, 35, 127
7, 154368, Note_on_c, 9, 46, 91
7, 154368, Note_on_c, 9, 51, 127
7, 154384, Note_off_c, 9, 35, 0
7, 154384, Note_off_c, 9, 46, 0
7, 154384, Note_off_c, 9, 51, 0
7, 154560, Note_on_c, 9, 48, 85
7, 154560, Note_on_c, 9, 51, 87
7, 154576, Note_off_c, 9, 48, 0
7, 154576, Note_off_c, 9, 51, 0
7, 154656, Note_on_c, 9, 51, 87
7, 154672, Note_off_c, 9, 51, 0
7, 154752, Note_on_c, 9, 48, 85
7, 154752, Note_on_c, 9, 51, 97
7, 154768, Note_off_c, 9, 48, 0
7, 154768, Note_off_c, 9, 51, 0
7, 154944, Note_on_c, 9, 38, 117
7, 154944, Note_on_c, 9, 45, 85
7, 154944, Note_on_c, 9, 46, 91
7, 154944, Note_on_c, 9, 51, 117
7, 154960, Note_off_c, 9, 38, 0
7, 154960, Note_off_c, 9, 45, 0
7, 154960, Note_off_c, 9, 46, 0
7, 154960, Note_off_c, 9, 51, 0
7, 155040, Note_on_c, 9, 41, 85
7, 155040, Note_on_c, 9, 45, 85
7, 155056, Note_off_c, 9, 41, 0
7, 155056, Note_off_c, 9, 45, 0
7, 155136, Note_on_c, 9, 35, 127
7, 155136, Note_on_c, 9, 45, 85
7, 155136, Note_on_c, 9, 51, 87
7, 155152, Note_off_c, 9, 35, 0
7, 155152, Note_off_c, 9, 45, 0
7, 155152, Note_off_c, 9, 51, 0
7, 155232, Note_on_c, 9, 41, 85
7, 155232, Note_on_c, 9, 45, 85
7, 155248, Note_off_c, 9, 41, 0
7, 155248, Note_off_c, 9, 45, 0
7, 155328, Note_on_c, 9, 35, 127
7, 155328, Note_on_c, 9, 41, 85
7, 155328, Note_on_c, 9, 51, 107
7, 155344, Note_off_c, 9, 35, 0
7, 155344, Note_off_c, 9, 41, 0
7, 155344, Note_off_c, 9, 51, 0
7, 155424, Note_on_c, 9, 41, 85
7, 155440, Note_off_c, 9, 41, 0
7, 155520, Note_on_c, 9, 35, 127
7, 155520, Note_on_c, 9, 49, 81
7, 155520, Note_on_c, 9, 51, 127
7, 155536, Note_off_c, 9, 35, 0
7, 155536, Note_off_c, 9, 49, 0
7, 155536, Note_off_c, 9, 51, 0
7, 155712, Note_on_c, 9, 51, 87
7, 155728, Note_off_c, 9, 51, 0
7, 155808, Note_on_c, 9, 51, 87
7, 155824, Note_off_c, 9, 51, 0
7, 155904, Note_on_c, 9, 51, 97
7, 155920, Note_off_c, 9, 51, 0
7, 156096, Note_on_c, 9, 38, 117
7, 156096, Note_on_c, 9, 51, 117
7, 156112, Note_off_c, 9, 38, 0
7, 156112, Note_off_c, 9, 51, 0
7, 156288, Note_on_c, 9, 35, 127
7, 156288, Note_on_c, 9, 51, 87
7, 156304, Note_off_c, 9, 35, 0
7, 156304, Note_off_c, 9, 51, 0
7, 156480, Note_on_c, 9, 35, 127
7, 156480, Note_on_c, 9, 51, 107
7, 156496, Note_off_c, 9, 35, 0
7, 156496, Note_off_c, 9, 51, 0
7, 156672, Note_on_c, 9, 35, 127
7, 156672, Note_on_c, 9, 49, 81
7, 156672, Note_on_c, 9, 51, 127
7, 156688, Note_off_c, 9, 35, 0
7, 156688, Note_off_c, 9, 49, 0
7, 156688, Note_off_c, 9, 51, 0
7, 156864, Note_on_c, 9, 51, 87
7, 156880, Note_off_c, 9, 51, 0
7, 156960, Note_on_c, 9, 51, 87
7, 156976, Note_off_c, 9, 51, 0
7, 157056, Note_on_c, 9, 51, 97
7, 157072, Note_off_c, 9, 51, 0
7, 157248, Note_on_c, 9, 38, 117
7, 157248, Note_on_c, 9, 51, 117
7, 157264, Note_off_c, 9, 38, 0
7, 157264, Note_off_c, 9, 51, 0
7, 157440, Note_on_c, 9, 35, 127
7, 157440, Note_on_c, 9, 51, 87
7, 157456, Note_off_c, 9, 35, 0
7, 157456, Note_off_c, 9, 51, 0
7, 157632, Note_on_c, 9, 35, 127
7, 157632, Note_on_c, 9, 51, 107
7, 157648, Note_off_c, 9, 35, 0
7, 157648, Note_off_c, 9, 51, 0
7, 157824, Note_on_c, 9, 35, 127
7, 157824, Note_on_c, 9, 49, 81
7, 157824, Note_on_c, 9, 51, 127
7, 157840, Note_off_c, 9, 35, 0
7, 157840, Note_off_c, 9, 49, 0
7, 157840, Note_off_c, 9, 51, 0
7, 158016, Note_on_c, 9, 51, 87
7, 158032, Note_off_c, 9, 51, 0
7, 158112, Note_on_c, 9, 51, 87
7, 158128, Note_off_c, 9, 51, 0
7, 158208, Note_on_c, 9, 51, 97
7, 158224, Note_off_c, 9, 51, 0
7, 158400, Note_on_c, 9, 38, 117
7, 158400, Note_on_c, 9, 51, 117
7, 158416, Note_off_c, 9, 38, 0
7, 158416, Note_off_c, 9, 51, 0
7, 158592, Note_on_c, 9, 35, 127
7, 158592, Note_on_c, 9, 51, 87
7, 158608, Note_off_c, 9, 35, 0
7, 158608, Note_off_c, 9, 51, 0
7, 158784, Note_on_c, 9, 35, 127
7, 158784, Note_on_c, 9, 51, 107
7, 158800, Note_off_c, 9, 35, 0
7, 158800, Note_off_c, 9, 51, 0
7, 158976, Note_on_c, 9, 35, 127
7, 158976, Note_on_c, 9, 49, 81
7, 158976, Note_on_c, 9, 51, 127
7, 158992, Note_off_c, 9, 35, 0
7, 158992, Note_off_c, 9, 49, 0
7, 158992, Note_off_c, 9, 51, 0
7, 159168, Note_on_c, 9, 51, 87
7, 159184, Note_off_c, 9, 51, 0
7, 159264, Note_on_c, 9, 51, 87
7, 159280, Note_off_c, 9, 51, 0
7, 159360, Note_on_c, 9, 51, 97
7, 159376, Note_off_c, 9, 51, 0
7, 159568, Note_on_c, 9, 38, 117
7, 159568, Note_on_c, 9, 49, 81
7, 159568, Note_on_c, 9, 51, 117
7, 159584, Note_off_c, 9, 38, 0
7, 159584, Note_off_c, 9, 49, 0
7, 159584, Note_off_c, 9, 51, 0
7, 159744, Note_on_c, 9, 35, 127
7, 159744, Note_on_c, 9, 51, 87
7, 159760, Note_off_c, 9, 35, 0
7, 159760, Note_off_c, 9, 51, 0
7, 159936, Note_on_c, 9, 35, 127
7, 159936, Note_on_c, 9, 51, 107
7, 159952, Note_off_c, 9, 35, 0
7, 159952, Note_off_c, 9, 51, 0
7, 160128, Note_on_c, 9, 35, 127
7, 160128, Note_on_c, 9, 49, 81
7, 160128, Note_on_c, 9, 51, 127
7, 160144, Note_off_c, 9, 35, 0
7, 160144, Note_off_c, 9, 49, 0
7, 160144, Note_off_c, 9, 51, 0
7, 160320, Note_on_c, 9, 51, 87
7, 160336, Note_off_c, 9, 51, 0
7, 160416, Note_on_c, 9, 51, 87
7, 160432, Note_off_c, 9, 51, 0
7, 160512, Note_on_c, 9, 51, 97
7, 160528, Note_off_c, 9, 51, 0
7, 160704, Note_on_c, 9, 38, 117
7, 160704, Note_on_c, 9, 51, 117
7, 160720, Note_off_c, 9, 38, 0
7, 160720, Note_off_c, 9, 51, 0
7, 160896, Note_on_c, 9, 35, 127
7, 160896, Note_on_c, 9, 51, 87
7, 160912, Note_off_c, 9, 35, 0
7, 160912, Note_off_c, 9, 51, 0
7, 161088, Note_on_c, 9, 35, 127
7, 161088, Note_on_c, 9, 51, 107
7, 161104, Note_off_c, 9, 35, 0
7, 161104, Note_off_c, 9, 51, 0
7, 161280, Note_on_c, 9, 35, 127
7, 161280, Note_on_c, 9, 49, 81
7, 161280, Note_on_c, 9, 51, 127
7, 161296, Note_off_c, 9, 35, 0
7, 161296, Note_off_c, 9, 49, 0
7, 161296, Note_off_c, 9, 51, 0
7, 161472, Note_on_c, 9, 51, 87
7, 161488, Note_off_c, 9, 51, 0
7, 161568, Note_on_c, 9, 51, 87
7, 161584, Note_off_c, 9, 51, 0
7, 161664, Note_on_c, 9, 51, 97
7, 161680, Note_off_c, 9, 51, 0
7, 161856, Note_on_c, 9, 38, 117
7, 161856, Note_on_c, 9, 51, 117
7, 161872, Note_off_c, 9, 38, 0
7, 161872, Note_off_c, 9, 51, 0
7, 162048, Note_on_c, 9, 35, 127
7, 162048, Note_on_c, 9, 51, 87
7, 162064, Note_off_c, 9, 35, 0
7, 162064, Note_off_c, 9, 51, 0
7, 162240, Note_on_c, 9, 35, 127
7, 162240, Note_on_c, 9, 51, 107
7, 162256, Note_off_c, 9, 35, 0
7, 162256, Note_off_c, 9, 51, 0
7, 162432, Note_on_c, 9, 35, 127
7, 162432, Note_on_c, 9, 51, 127
7, 162448, Note_off_c, 9, 35, 0
7, 162448, Note_off_c, 9, 51, 0
7, 162624, Note_on_c, 9, 51, 87
7, 162640, Note_off_c, 9, 51, 0
7, 162720, Note_on_c, 9, 51, 87
7, 162736, Note_off_c, 9, 51, 0
7, 162816, Note_on_c, 9, 51, 97
7, 162832, Note_off_c, 9, 51, 0
7, 163008, Note_on_c, 9, 38, 117
7, 163008, Note_on_c, 9, 51, 117
7, 163024, Note_off_c, 9, 38, 0
7, 163024, Note_off_c, 9, 51, 0
7, 163200, Note_on_c, 9, 35, 127
7, 163200, Note_on_c, 9, 51, 87
7, 163216, Note_off_c, 9, 35, 0
7, 163216, Note_off_c, 9, 51, 0
7, 163392, Note_on_c, 9, 35, 127
7, 163392, Note_on_c, 9, 51, 107
7, 163408, Note_off_c, 9, 35, 0
7, 163408, Note_off_c, 9, 51, 0
7, 163584, Note_on_c, 9, 35, 127
7, 163584, Note_on_c, 9, 38, 127
7, 163584, Note_on_c, 9, 51, 127
7, 163600, Note_off_c, 9, 35, 0
7, 163600, Note_off_c, 9, 38, 0
7, 163600, Note_off_c, 9, 51, 0
7, 163776, Note_on_c, 9, 51, 87
7, 163792, Note_off_c, 9, 51, 0
7, 163872, Note_on_c, 9, 51, 87
7, 163888, Note_off_c, 9, 51, 0
7, 163968, Note_on_c, 9, 51, 97
7, 163984, Note_off_c, 9, 51, 0
7, 164160, Note_on_c, 9, 38, 117
7, 164160, Note_on_c, 9, 49, 97
7, 164160, Note_on_c, 9, 51, 117
7, 164176, Note_off_c, 9, 38, 0
7, 164176, Note_off_c, 9, 49, 0
7, 164176, Note_off_c, 9, 51, 0
7, 164176, Note_on_c, 9, 41, 97
7, 164192, Note_off_c, 9, 41, 0
7, 164272, Note_on_c, 9, 41, 97
7, 164288, Note_off_c, 9, 41, 0
7, 164368, Note_on_c, 9, 41, 97
7, 164384, Note_off_c, 9, 41, 0
7, 164464, Note_on_c, 9, 41, 97
7, 164480, Note_off_c, 9, 41, 0
7, 164560, Note_on_c, 9, 41, 97
7, 164576, Note_off_c, 9, 41, 0
7, 164656, Note_on_c, 9, 41, 97
7, 164672, Note_off_c, 9, 41, 0
7, 164736, Note_on_c, 9, 35, 127
7, 164736, Note_on_c, 9, 46, 91
7, 164736, Note_on_c, 9, 51, 127
7, 164752, Note_off_c, 9, 35, 0
7, 164752, Note_off_c, 9, 46, 0
7, 164752, Note_off_c, 9, 51, 0
7, 164928, Note_on_c, 9, 51, 87
7, 164944, Note_off_c, 9, 51, 0
7, 165024, Note_on_c, 9, 38, 95
7, 165024, Note_on_c, 9, 51, 87
7, 165040, Note_off_c, 9, 38, 0
7, 165040, Note_off_c, 9, 51, 0
7, 165120, Note_on_c, 9, 38, 95
7, 165120, Note_on_c, 9, 51, 97
7, 165136, Note_off_c, 9, 38, 0
7, 165136, Note_off_c, 9, 51, 0
7, 165312, Note_on_c, 9, 38, 117
7, 165312, Note_on_c, 9, 46, 91
7, 165312, Note_on_c, 9, 51, 117
7, 165328, Note_off_c, 9, 38, 0
7, 165328, Note_off_c, 9, 46, 0
7, 165328, Note_off_c, 9, 51, 0
7, 165504, Note_on_c, 9, 35, 127
7, 165504, Note_on_c, 9, 51, 87
7, 165520, Note_off_c, 9, 35, 0
7, 165520, Note_off_c, 9, 51, 0
7, 165696, Note_on_c, 9, 35, 127
7, 165696, Note_on_c, 9, 51, 107
7, 165712, Note_off_c, 9, 35, 0
7, 165712, Note_off_c, 9, 51, 0
7, 165888, Note_on_c, 9, 35, 127
7, 165888, Note_on_c, 9, 46, 91
7, 165888, Note_on_c, 9, 51, 127
7, 165904, Note_off_c, 9, 35, 0
7, 165904, Note_off_c, 9, 46, 0
7, 165904, Note_off_c, 9, 51, 0
7, 166080, Note_on_c, 9, 51, 87
7, 166096, Note_off_c, 9, 51, 0
7, 166176, Note_on_c, 9, 38, 95
7, 166176, Note_on_c, 9, 51, 87
7, 166192, Note_off_c, 9, 38, 0
7, 166192, Note_off_c, 9, 51, 0
7, 166272, Note_on_c, 9, 38, 95
7, 166272, Note_on_c, 9, 51, 97
7, 166288, Note_off_c, 9, 38, 0
7, 166288, Note_off_c, 9, 51, 0
7, 166464, Note_on_c, 9, 38, 117
7, 166464, Note_on_c, 9, 46, 91
7, 166464, Note_on_c, 9, 51, 117
7, 166480, Note_off_c, 9, 38, 0
7, 166480, Note_off_c, 9, 46, 0
7, 166480, Note_off_c, 9, 51, 0
7, 166656, Note_on_c, 9, 35, 127
7, 166656, Note_on_c, 9, 51, 87
7, 166672, Note_off_c, 9, 35, 0
7, 166672, Note_off_c, 9, 51, 0
7, 166848, Note_on_c, 9, 35, 127
7, 166848, Note_on_c, 9, 51, 107
7, 166864, Note_off_c, 9, 35, 0
7, 166864, Note_off_c, 9, 51, 0
7, 167040, Note_on_c, 9, 35, 127
7, 167040, Note_on_c, 9, 46, 91
7, 167040, Note_on_c, 9, 51, 127
7, 167056, Note_off_c, 9, 35, 0
7, 167056, Note_off_c, 9, 46, 0
7, 167056, Note_off_c, 9, 51, 0
7, 167232, Note_on_c, 9, 38, 95
7, 167232, Note_on_c, 9, 51, 87
7, 167248, Note_off_c, 9, 38, 0
7, 167248, Note_off_c, 9, 51, 0
7, 167328, Note_on_c, 9, 38, 95
7, 167328, Note_on_c, 9, 51, 87
7, 167344, Note_off_c, 9, 38, 0
7, 167344, Note_off_c, 9, 51, 0
7, 167424, Note_on_c, 9, 38, 95
7, 167424, Note_on_c, 9, 51, 97
7, 167440, Note_off_c, 9, 38, 0
7, 167440, Note_off_c, 9, 51, 0
7, 167616, Note_on_c, 9, 38, 117
7, 167616, Note_on_c, 9, 46, 91
7, 167616, Note_on_c, 9, 51, 117
7, 167632, Note_off_c, 9, 38, 0
7, 167632, Note_off_c, 9, 46, 0
7, 167632, Note_off_c, 9, 51, 0
7, 167808, Note_on_c, 9, 35, 127
7, 167808, Note_on_c, 9, 51, 87
7, 167824, Note_off_c, 9, 35, 0
7, 167824, Note_off_c, 9, 51, 0
7, 168000, Note_on_c, 9, 35, 127
7, 168000, Note_on_c, 9, 51, 107
7, 168016, Note_off_c, 9, 35, 0
7, 168016, Note_off_c, 9, 51, 0
7, 168192, Note_on_c, 9, 35, 127
7, 168192, Note_on_c, 9, 46, 91
7, 168192, Note_on_c, 9, 51, 127
7, 168208, Note_off_c, 9, 35, 0
7, 168208, Note_off_c, 9, 46, 0
7, 168208, Note_off_c, 9, 51, 0
7, 168384, Note_on_c, 9, 38, 95
7, 168384, Note_on_c, 9, 51, 87
7, 168400, Note_off_c, 9, 38, 0
7, 168400, Note_off_c, 9, 51, 0
7, 168480, Note_on_c, 9, 38, 95
7, 168480, Note_on_c, 9, 51, 87
7, 168496, Note_off_c, 9, 38, 0
7, 168496, Note_off_c, 9, 51, 0
7, 168576, Note_on_c, 9, 38, 95
7, 168576, Note_on_c, 9, 51, 97
7, 168592, Note_off_c, 9, 38, 0
7, 168592, Note_off_c, 9, 51, 0
7, 168768, Note_on_c, 9, 38, 117
7, 168768, Note_on_c, 9, 46, 91
7, 168768, Note_on_c, 9, 51, 117
7, 168784, Note_off_c, 9, 38, 0
7, 168784, Note_off_c, 9, 46, 0
7, 168784, Note_off_c, 9, 51, 0
7, 168960, Note_on_c, 9, 35, 127
7, 168960, Note_on_c, 9, 51, 87
7, 168976, Note_off_c, 9, 35, 0
7, 168976, Note_off_c, 9, 51, 0
7, 169152, Note_on_c, 9, 35, 127
7, 169152, Note_on_c, 9, 51, 107
7, 169168, Note_off_c, 9, 35, 0
7, 169168, Note_off_c, 9, 51, 0
7, 169344, Note_on_c, 9, 35, 127
7, 169344, Note_on_c, 9, 49, 91
7, 169344, Note_on_c, 9, 51, 127
7, 169360, Note_off_c, 9, 35, 0
7, 169360, Note_off_c, 9, 49, 0
7, 169360, Note_off_c, 9, 51, 0
7, 169536, Note_on_c, 9, 51, 87
7, 169552, Note_off_c, 9, 51, 0
7, 169632, Note_on_c, 9, 38, 95
7, 169632, Note_on_c, 9, 51, 87
7, 169648, Note_off_c, 9, 38, 0
7, 169648, Note_off_c, 9, 51, 0
7, 169728, Note_on_c, 9, 38, 95
7, 169728, Note_on_c, 9, 51, 97
7, 169744, Note_off_c, 9, 38, 0
7, 169744, Note_off_c, 9, 51, 0
7, 169920, Note_on_c, 9, 38, 117
7, 169920, Note_on_c, 9, 46, 91
7, 169920, Note_on_c, 9, 51, 117
7, 169936, Note_off_c, 9, 38, 0
7, 169936, Note_off_c, 9, 46, 0
7, 169936, Note_off_c, 9, 51, 0
7, 170112, Note_on_c, 9, 35, 127
7, 170112, Note_on_c, 9, 51, 87
7, 170128, Note_off_c, 9, 35, 0
7, 170128, Note_off_c, 9, 51, 0
7, 170304, Note_on_c, 9, 35, 127
7, 170304, Note_on_c, 9, 51, 107
7, 170320, Note_off_c, 9, 35, 0
7, 170320, Note_off_c, 9, 51, 0
7, 170496, Note_on_c, 9, 35, 127
7, 170496, Note_on_c, 9, 46, 91
7, 170496, Note_on_c, 9, 51, 127
7, 170512, Note_off_c, 9, 35, 0
7, 170512, Note_off_c, 9, 46, 0
7, 170512, Note_off_c, 9, 51, 0
7, 170688, Note_on_c, 9, 51, 87
7, 170704, Note_off_c, 9, 51, 0
7, 170784, Note_on_c, 9, 38, 95
7, 170784, Note_on_c, 9, 51, 87
7, 170800, Note_off_c, 9, 38, 0
7, 170800, Note_off_c, 9, 51, 0
7, 170880, Note_on_c, 9, 38, 95
7, 170880, Note_on_c, 9, 51, 97
7, 170896, Note_off_c, 9, 38, 0
7, 170896, Note_off_c, 9, 51, 0
7, 171072, Note_on_c, 9, 38, 117
7, 171072, Note_on_c, 9, 46, 91
7, 171072, Note_on_c, 9, 51, 117
7, 171088, Note_off_c, 9, 38, 0
7, 171088, Note_off_c, 9, 46, 0
7, 171088, Note_off_c, 9, 51, 0
7, 171264, Note_on_c, 9, 35, 127
7, 171264, Note_on_c, 9, 51, 87
7, 171280, Note_off_c, 9, 35, 0
7, 171280, Note_off_c, 9, 51, 0
7, 171456, Note_on_c, 9, 35, 127
7, 171456, Note_on_c, 9, 51, 107
7, 171472, Note_off_c, 9, 35, 0
7, 171472, Note_off_c, 9, 51, 0
7, 171648, Note_on_c, 9, 35, 127
7, 171648, Note_on_c, 9, 49, 91
7, 171648, Note_on_c, 9, 51, 127
7, 171664, Note_off_c, 9, 35, 0
7, 171664, Note_off_c, 9, 49, 0
7, 171664, Note_off_c, 9, 51, 0
7, 171840, Note_on_c, 9, 51, 87
7, 171856, Note_off_c, 9, 51, 0
7, 171936, Note_on_c, 9, 51, 87
7, 171952, Note_off_c, 9, 51, 0
7, 172032, Note_on_c, 9, 51, 97
7, 172048, Note_off_c, 9, 51, 0
7, 172224, Note_on_c, 9, 38, 117
7, 172224, Note_on_c, 9, 46, 91
7, 172224, Note_on_c, 9, 51, 117
7, 172240, Note_off_c, 9, 38, 0
7, 172240, Note_off_c, 9, 46, 0
7, 172240, Note_off_c, 9, 51, 0
7, 172416, Note_on_c, 9, 35, 127
7, 172416, Note_on_c, 9, 38, 95
7, 172416, Note_on_c, 9, 51, 87
7, 172432, Note_off_c, 9, 35, 0
7, 172432, Note_off_c, 9, 38, 0
7, 172432, Note_off_c, 9, 51, 0
7, 172608, Note_on_c, 9, 35, 127
7, 172608, Note_on_c, 9, 38, 95
7, 172608, Note_on_c, 9, 51, 107
7, 172624, Note_off_c, 9, 35, 0
7, 172624, Note_off_c, 9, 38, 0
7, 172624, Note_off_c, 9, 51, 0
7, 172800, Note_on_c, 9, 35, 127
7, 172800, Note_on_c, 9, 38, 95
7, 172800, Note_on_c, 9, 46, 91
7, 172800, Note_on_c, 9, 51, 127
7, 172816, Note_off_c, 9, 35, 0
7, 172816, Note_off_c, 9, 38, 0
7, 172816, Note_off_c, 9, 46, 0
7, 172816, Note_off_c, 9, 51, 0
7, 172992, Note_on_c, 9, 38, 95
7, 172992, Note_on_c, 9, 51, 87
7, 173008, Note_off_c, 9, 38, 0
7, 173008, Note_off_c, 9, 51, 0
7, 173088, Note_on_c, 9, 51, 87
7, 173104, Note_off_c, 9, 51, 0
7, 173184, Note_on_c, 9, 38, 95
7, 173184, Note_on_c, 9, 51, 97
7, 173200, Note_off_c, 9, 38, 0
7, 173200, Note_off_c, 9, 51, 0
7, 173376, Note_on_c, 9, 38, 117
7, 173376, Note_on_c, 9, 46, 91
7, 173376, Note_on_c, 9, 51, 117
7, 173392, Note_off_c, 9, 38, 0
7, 173392, Note_off_c, 9, 46, 0
7, 173392, Note_off_c, 9, 51, 0
7, 173568, Note_on_c, 9, 35, 127
7, 173568, Note_on_c, 9, 38, 95
7, 173568, Note_on_c, 9, 51, 87
7, 173584, Note_off_c, 9, 35, 0
7, 173584, Note_off_c, 9, 38, 0
7, 173584, Note_off_c, 9, 51, 0
7, 173760, Note_on_c, 9, 35, 127
7, 173760, Note_on_c, 9, 38, 95
7, 173760, Note_on_c, 9, 51, 107
7, 173776, Note_off_c, 9, 35, 0
7, 173776, Note_off_c, 9, 38, 0
7, 173776, Note_off_c, 9, 51, 0
7, 173952, Note_on_c, 9, 35, 127
7, 173952, Note_on_c, 9, 49, 91
7, 173952, Note_on_c, 9, 51, 127
7, 173968, Note_off_c, 9, 35, 0
7, 173968, Note_off_c, 9, 49, 0
7, 173968, Note_off_c, 9, 51, 0
7, 174144, Note_on_c, 9, 51, 87
7, 174160, Note_off_c, 9, 51, 0
7, 174240, Note_on_c, 9, 51, 87
7, 174256, Note_off_c, 9, 51, 0
7, 174336, Note_on_c, 9, 51, 97
7, 174352, Note_off_c, 9, 51, 0
7, 174528, Note_on_c, 9, 38, 117
7, 174528, Note_on_c, 9, 46, 91
7, 174528, Note_on_c, 9, 51, 117
7, 174544, Note_off_c, 9, 38, 0
7, 174544, Note_off_c, 9, 46, 0
7, 174544, Note_off_c, 9, 51, 0
7, 174720, Note_on_c, 9, 35, 127
7, 174720, Note_on_c, 9, 51, 87
7, 174736, Note_off_c, 9, 35, 0
7, 174736, Note_off_c, 9, 51, 0
7, 174912, Note_on_c, 9, 35, 127
7, 174912, Note_on_c, 9, 51, 107
7, 174928, Note_off_c, 9, 35, 0
7, 174928, Note_off_c, 9, 51, 0
7, 175104, Note_on_c, 9, 35, 127
7, 175104, Note_on_c, 9, 46, 91
7, 175104, Note_on_c, 9, 51, 127
7, 175120, Note_off_c, 9, 35, 0
7, 175120, Note_off_c, 9, 46, 0
7, 175120, Note_off_c, 9, 51, 0
7, 175296, Note_on_c, 9, 51, 87
7, 175312, Note_off_c, 9, 51, 0
7, 175392, Note_on_c, 9, 51, 87
7, 175408, Note_off_c, 9, 51, 0
7, 175488, Note_on_c, 9, 51, 97
7, 175504, Note_off_c, 9, 51, 0
7, 175680, Note_on_c, 9, 38, 117
7, 175680, Note_on_c, 9, 46, 91
7, 175680, Note_on_c, 9, 51, 117
7, 175696, Note_off_c, 9, 38, 0
7, 175696, Note_off_c, 9, 46, 0
7, 175696, Note_off_c, 9, 51, 0
7, 175872, Note_on_c, 9, 35, 127
7, 175872, Note_on_c, 9, 51, 87
7, 175888, Note_off_c, 9, 35, 0
7, 175888, Note_off_c, 9, 51, 0
7, 176064, Note_on_c, 9, 35, 127
7, 176064, Note_on_c, 9, 51, 107
7, 176080, Note_off_c, 9, 35, 0
7, 176080, Note_off_c, 9, 51, 0
7, 176256, Note_on_c, 9, 35, 127
7, 176256, Note_on_c, 9, 46, 91
7, 176256, Note_on_c, 9, 51, 127
7, 176272, Note_off_c, 9, 35, 0
7, 176272, Note_off_c, 9, 46, 0
7, 176272, Note_off_c, 9, 51, 0
7, 176448, Note_on_c, 9, 51, 87
7, 176464, Note_off_c, 9, 51, 0
7, 176544, Note_on_c, 9, 51, 87
7, 176560, Note_off_c, 9, 51, 0
7, 176640, Note_on_c, 9, 51, 97
7, 176656, Note_off_c, 9, 51, 0
7, 176832, Note_on_c, 9, 38, 117
7, 176832, Note_on_c, 9, 46, 91
7, 176832, Note_on_c, 9, 51, 117
7, 176848, Note_off_c, 9, 38, 0
7, 176848, Note_off_c, 9, 46, 0
7, 176848, Note_off_c, 9, 51, 0
7, 177024, Note_on_c, 9, 35, 127
7, 177024, Note_on_c, 9, 51, 87
7, 177040, Note_off_c, 9, 35, 0
7, 177040, Note_off_c, 9, 51, 0
7, 177216, Note_on_c, 9, 35, 127
7, 177216, Note_on_c, 9, 51, 107
7, 177232, Note_off_c, 9, 35, 0
7, 177232, Note_off_c, 9, 51, 0
7, 177408, Note_on_c, 9, 35, 127
7, 177408, Note_on_c, 9, 46, 91
7, 177408, Note_on_c, 9, 51, 127
7, 177424, Note_off_c, 9, 35, 0
7, 177424, Note_off_c, 9, 46, 0
7, 177424, Note_off_c, 9, 51, 0
7, 177600, Note_on_c, 9, 51, 87
7, 177616, Note_off_c, 9, 51, 0
7, 177696, Note_on_c, 9, 38, 95
7, 177696, Note_on_c, 9, 51, 87
7, 177712, Note_off_c, 9, 38, 0
7, 177712, Note_off_c, 9, 51, 0
7, 177792, Note_on_c, 9, 38, 95
7, 177792, Note_on_c, 9, 51, 97
7, 177808, Note_off_c, 9, 38, 0
7, 177808, Note_off_c, 9, 51, 0
7, 177984, Note_on_c, 9, 38, 95
7, 177984, Note_on_c, 9, 46, 91
7, 177984, Note_on_c, 9, 51, 117
7, 178000, Note_off_c, 9, 38, 0
7, 178000, Note_off_c, 9, 46, 0
7, 178000, Note_off_c, 9, 51, 0
7, 178176, Note_on_c, 9, 35, 127
7, 178176, Note_on_c, 9, 38, 95
7, 178176, Note_on_c, 9, 51, 87
7, 178192, Note_off_c, 9, 35, 0
7, 178192, Note_off_c, 9, 38, 0
7, 178192, Note_off_c, 9, 51, 0
7, 178368, Note_on_c, 9, 35, 127
7, 178368, Note_on_c, 9, 38, 95
7, 178368, Note_on_c, 9, 51, 107
7, 178384, Note_off_c, 9, 35, 0
7, 178384, Note_off_c, 9, 38, 0
7, 178384, Note_off_c, 9, 51, 0
7, 178560, Note_on_c, 9, 35, 127
7, 178560, Note_on_c, 9, 46, 91
7, 178560, Note_on_c, 9, 51, 127
7, 178576, Note_off_c, 9, 35, 0
7, 178576, Note_off_c, 9, 46, 0
7, 178576, Note_off_c, 9, 51, 0
7, 178752, Note_on_c, 9, 51, 87
7, 178768, Note_off_c, 9, 51, 0
7, 178848, Note_on_c, 9, 51, 87
7, 178864, Note_off_c, 9, 51, 0
7, 178944, Note_on_c, 9, 51, 97
7, 178960, Note_off_c, 9, 51, 0
7, 179136, Note_on_c, 9, 38, 117
7, 179136, Note_on_c, 9, 46, 91
7, 179136, Note_on_c, 9, 51, 117
7, 179152, Note_off_c, 9, 38, 0
7, 179152, Note_off_c, 9, 46, 0
7, 179152, Note_off_c, 9, 51, 0
7, 179328, Note_on_c, 9, 35, 127
7, 179328, Note_on_c, 9, 51, 87
7, 179344, Note_off_c, 9, 35, 0
7, 179344, Note_off_c, 9, 51, 0
7, 179520, Note_on_c, 9, 35, 127
7, 179520, Note_on_c, 9, 51, 107
7, 179536, Note_off_c, 9, 35, 0
7, 179536, Note_off_c, 9, 51, 0
7, 179712, Note_on_c, 9, 35, 127
7, 179712, Note_on_c, 9, 46, 91
7, 179712, Note_on_c, 9, 51, 127
7, 179728, Note_off_c, 9, 35, 0
7, 179728, Note_off_c, 9, 46, 0
7, 179728, Note_off_c, 9, 51, 0
7, 179904, Note_on_c, 9, 48, 95
7, 179904, Note_on_c, 9, 51, 87
7, 179920, Note_off_c, 9, 48, 0
7, 179920, Note_off_c, 9, 51, 0
7, 180000, Note_on_c, 9, 51, 87
7, 180016, Note_off_c, 9, 51, 0
7, 180096, Note_on_c, 9, 48, 95
7, 180096, Note_on_c, 9, 51, 97
7, 180112, Note_off_c, 9, 48, 0
7, 180112, Note_off_c, 9, 51, 0
7, 180288, Note_on_c, 9, 38, 117
7, 180288, Note_on_c, 9, 45, 95
7, 180288, Note_on_c, 9, 46, 91
7, 180288, Note_on_c, 9, 51, 117
7, 180304, Note_off_c, 9, 38, 0
7, 180304, Note_off_c, 9, 45, 0
7, 180304, Note_off_c, 9, 46, 0
7, 180304, Note_off_c, 9, 51, 0
7, 180384, Note_on_c, 9, 41, 95
7, 180384, Note_on_c, 9, 45, 95
7, 180400, Note_off_c, 9, 41, 0
7, 180400, Note_off_c, 9, 45, 0
7, 180480, Note_on_c, 9, 35, 127
7, 180480, Note_on_c, 9, 45, 95
7, 180480, Note_on_c, 9, 51, 87
7, 180496, Note_off_c, 9, 35, 0
7, 180496, Note_off_c, 9, 45, 0
7, 180496, Note_off_c, 9, 51, 0
7, 180576, Note_on_c, 9, 41, 95
7, 180576, Note_on_c, 9, 45, 95
7, 180592, Note_off_c, 9, 41, 0
7, 180592, Note_off_c, 9, 45, 0
7, 180672, Note_on_c, 9, 35, 127
7, 180672, Note_on_c, 9, 41, 95
7, 180672, Note_on_c, 9, 51, 107
7, 180688, Note_off_c, 9, 35, 0
7, 180688, Note_off_c, 9, 41, 0
7, 180688, Note_off_c, 9, 51, 0
7, 180768, Note_on_c, 9, 41, 95
7, 180784, Note_off_c, 9, 41, 0
7, 180864, Note_on_c, 9, 35, 127
7, 180864, Note_on_c, 9, 49, 91
7, 180864, Note_on_c, 9, 51, 127
7, 180880, Note_off_c, 9, 35, 0
7, 180880, Note_off_c, 9, 49, 0
7, 180880, Note_off_c, 9, 51, 0
7, 181056, Note_on_c, 9, 51, 87
7, 181072, Note_off_c, 9, 51, 0
7, 181152, Note_on_c, 9, 51, 87
7, 181168, Note_off_c, 9, 51, 0
7, 181248, Note_on_c, 9, 51, 97
7, 181264, Note_off_c, 9, 51, 0
7, 181440, Note_on_c, 9, 38, 117
7, 181440, Note_on_c, 9, 51, 117
7, 181456, Note_off_c, 9, 38, 0
7, 181456, Note_off_c, 9, 51, 0
7, 181632, Note_on_c, 9, 35, 127
7, 181632, Note_on_c, 9, 51, 87
7, 181648, Note_off_c, 9, 35, 0
7, 181648, Note_off_c, 9, 51, 0
7, 181824, Note_on_c, 9, 35, 127
7, 181824, Note_on_c, 9, 51, 107
7, 181840, Note_off_c, 9, 35, 0
7, 181840, Note_off_c, 9, 51, 0
7, 182016, Note_on_c, 9, 35, 127
7, 182016, Note_on_c, 9, 49, 91
7, 182016, Note_on_c, 9, 51, 127
7, 182032, Note_off_c, 9, 35, 0
7, 182032, Note_off_c, 9, 49, 0
7, 182032, Note_off_c, 9, 51, 0
7, 182208, Note_on_c, 9, 51, 87
7, 182224, Note_off_c, 9, 51, 0
7, 182304, Note_on_c, 9, 51, 87
7, 182320, Note_off_c, 9, 51, 0
7, 182400, Note_on_c, 9, 51, 97
7, 182416, Note_off_c, 9, 51, 0
7, 182592, Note_on_c, 9, 38, 117
7, 182592, Note_on_c, 9, 51, 117
7, 182608, Note_off_c, 9, 38, 0
7, 182608, Note_off_c, 9, 51, 0
7, 182784, Note_on_c, 9, 35, 127
7, 182784, Note_on_c, 9, 51, 87
7, 182800, Note_off_c, 9, 35, 0
7, 182800, Note_off_c, 9, 51, 0
7, 182976, Note_on_c, 9, 35, 127
7, 182976, Note_on_c, 9, 51, 107
7, 182992, Note_off_c, 9, 35, 0
7, 182992, Note_off_c, 9, 51, 0
7, 183168, Note_on_c, 9, 35, 127
7, 183168, Note_on_c, 9, 49, 91
7, 183168, Note_on_c, 9, 51, 127
7, 183184, Note_off_c, 9, 35, 0
7, 183184, Note_off_c, 9, 49, 0
7, 183184, Note_off_c, 9, 51, 0
7, 183360, Note_on_c, 9, 51, 87
7, 183376, Note_off_c, 9, 51, 0
7, 183456, Note_on_c, 9, 51, 87
7, 183472, Note_off_c, 9, 51, 0
7, 183552, Note_on_c, 9, 51, 97
7, 183568, Note_off_c, 9, 51, 0
7, 183744, Note_on_c, 9, 38, 117
7, 183744, Note_on_c, 9, 51, 117
7, 183760, Note_off_c, 9, 38, 0
7, 183760, Note_off_c, 9, 51, 0
7, 183936, Note_on_c, 9, 35, 127
7, 183936, Note_on_c, 9, 51, 87
7, 183952, Note_off_c, 9, 35, 0
7, 183952, Note_off_c, 9, 51, 0
7, 184128, Note_on_c, 9, 35, 127
7, 184128, Note_on_c, 9, 51, 107
7, 184144, Note_off_c, 9, 35, 0
7, 184144, Note_off_c, 9, 51, 0
7, 184320, Note_on_c, 9, 35, 127
7, 184320, Note_on_c, 9, 49, 91
7, 184320, Note_on_c, 9, 51, 127
7, 184336, Note_off_c, 9, 35, 0
7, 184336, Note_off_c, 9, 49, 0
7, 184336, Note_off_c, 9, 51, 0
7, 184512, Note_on_c, 9, 51, 87
7, 184528, Note_off_c, 9, 51, 0
7, 184608, Note_on_c, 9, 51, 87
7, 184624, Note_off_c, 9, 51, 0
7, 184704, Note_on_c, 9, 51, 97
7, 184720, Note_off_c, 9, 51, 0
7, 184912, Note_on_c, 9, 38, 117
7, 184912, Note_on_c, 9, 49, 91
7, 184912, Note_on_c, 9, 51, 117
7, 184928, Note_off_c, 9, 38, 0
7, 184928, Note_off_c, 9, 49, 0
7, 184928, Note_off_c, 9, 51, 0
7, 185088, Note_on_c, 9, 35, 127
7, 185088, Note_on_c, 9, 51, 87
7, 185104, Note_off_c, 9, 35, 0
7, 185104, Note_off_c, 9, 51, 0
7, 185280, Note_on_c, 9, 35, 127
7, 185280, Note_on_c, 9, 51, 107
7, 185296, Note_off_c, 9, 35, 0
7, 185296, Note_off_c, 9, 51, 0
7, 185472, Note_on_c, 9, 35, 127
7, 185472, Note_on_c, 9, 49, 91
7, 185472, Note_on_c, 9, 51, 127
7, 185488, Note_off_c, 9, 35, 0
7, 185488, Note_off_c, 9, 49, 0
7, 185488, Note_off_c, 9, 51, 0
7, 185664, Note_on_c, 9, 51, 87
7, 185680, Note_off_c, 9, 51, 0
7, 185760, Note_on_c, 9, 51, 87
7, 185776, Note_off_c, 9, 51, 0
7, 185856, Note_on_c, 9, 51, 97
7, 185872, Note_off_c, 9, 51, 0
7, 186048, Note_on_c, 9, 38, 117
7, 186048, Note_on_c, 9, 51, 117
7, 186064, Note_off_c, 9, 38, 0
7, 186064, Note_off_c, 9, 51, 0
7, 186240, Note_on_c, 9, 35, 127
7, 186240, Note_on_c, 9, 51, 87
7, 186256, Note_off_c, 9, 35, 0
7, 186256, Note_off_c, 9, 51, 0
7, 186432, Note_on_c, 9, 35, 127
7, 186432, Note_on_c, 9, 51, 107
7, 186448, Note_off_c, 9, 35, 0
7, 186448, Note_off_c, 9, 51, 0
7, 186624, Note_on_c, 9, 35, 127
7, 186624, Note_on_c, 9, 49, 91
7, 186624, Note_on_c, 9, 51, 127
7, 186640, Note_off_c, 9, 35, 0
7, 186640, Note_off_c, 9, 49, 0
7, 186640, Note_off_c, 9, 51, 0
7, 186816, Note_on_c, 9, 51, 87
7, 186832, Note_off_c, 9, 51, 0
7, 186912, Note_on_c, 9, 51, 87
7, 186928, Note_off_c, 9, 51, 0
7, 187008, Note_on_c, 9, 51, 97
7, 187024, Note_off_c, 9, 51, 0
7, 187200, Note_on_c, 9, 38, 117
7, 187200, Note_on_c, 9, 51, 117
7, 187216, Note_off_c, 9, 38, 0
7, 187216, Note_off_c, 9, 51, 0
7, 187392, Note_on_c, 9, 35, 127
7, 187392, Note_on_c, 9, 51, 87
7, 187408, Note_off_c, 9, 35, 0
7, 187408, Note_off_c, 9, 51, 0
7, 187584, Note_on_c, 9, 35, 127
7, 187584, Note_on_c, 9, 51, 107
7, 187600, Note_off_c, 9, 35, 0
7, 187600, Note_off_c, 9, 51, 0
7, 187776, Note_on_c, 9, 35, 127
7, 187776, Note_on_c, 9, 51, 127
7, 187792, Note_off_c, 9, 35, 0
7, 187792, Note_off_c, 9, 51, 0
7, 187968, Note_on_c, 9, 51, 87
7, 187984, Note_off_c, 9, 51, 0
7, 188064, Note_on_c, 9, 51, 87
7, 188080, Note_off_c, 9, 51, 0
7, 188160, Note_on_c, 9, 51, 97
7, 188176, Note_off_c, 9, 51, 0
7, 188352, Note_on_c, 9, 38, 117
7, 188352, Note_on_c, 9, 51, 117
7, 188368, Note_off_c, 9, 38, 0
7, 188368, Note_off_c, 9, 51, 0
7, 188544, Note_on_c, 9, 35, 127
7, 188544, Note_on_c, 9, 51, 87
7, 188560, Note_off_c, 9, 35, 0
7, 188560, Note_off_c, 9, 51, 0
7, 188736, Note_on_c, 9, 35, 127
7, 188736, Note_on_c, 9, 51, 107
7, 188752, Note_off_c, 9, 35, 0
7, 188752, Note_off_c, 9, 51, 0
7, 188928, Note_on_c, 9, 35, 127
7, 188928, Note_on_c, 9, 51, 127
7, 188944, Note_off_c, 9, 35, 0
7, 188944, Note_off_c, 9, 51, 0
7, 189120, Note_on_c, 9, 51, 87
7, 189136, Note_off_c, 9, 51, 0
7, 189216, Note_on_c, 9, 51, 87
7, 189232, Note_off_c, 9, 51, 0
7, 189312, Note_on_c, 9, 51, 97
7, 189328, Note_off_c, 9, 51, 0
7, 189504, Note_on_c, 9, 38, 117
7, 189504, Note_on_c, 9, 51, 117
7, 189520, Note_off_c, 9, 38, 0
7, 189520, Note_off_c, 9, 51, 0
7, 189696, Note_on_c, 9, 35, 127
7, 189696, Note_on_c, 9, 51, 87
7, 189712, Note_off_c, 9, 35, 0
7, 189712, Note_off_c, 9, 51, 0
7, 189888, Note_on_c, 9, 35, 127
7, 189888, Note_on_c, 9, 51, 107
7, 189904, Note_off_c, 9, 35, 0
7, 189904, Note_off_c, 9, 51, 0
7, 190080, Note_on_c, 9, 35, 127
7, 190080, Note_on_c, 9, 51, 127
7, 190096, Note_off_c, 9, 35, 0
7, 190096, Note_off_c, 9, 51, 0
7, 190272, Note_on_c, 9, 51, 87
7, 190288, Note_off_c, 9, 51, 0
7, 190368, Note_on_c, 9, 51, 87
7, 190384, Note_off_c, 9, 51, 0
7, 190464, Note_on_c, 9, 51, 97
7, 190480, Note_off_c, 9, 51, 0
7, 190656, Note_on_c, 9, 38, 117
7, 190656, Note_on_c, 9, 51, 117
7, 190672, Note_off_c, 9, 38, 0
7, 190672, Note_off_c, 9, 51, 0
7, 190848, Note_on_c, 9, 35, 127
7, 190848, Note_on_c, 9, 51, 87
7, 190864, Note_off_c, 9, 35, 0
7, 190864, Note_off_c, 9, 51, 0
7, 191040, Note_on_c, 9, 35, 127
7, 191040, Note_on_c, 9, 51, 107
7, 191056, Note_off_c, 9, 35, 0
7, 191056, Note_off_c, 9, 51, 0
7, 191232, Note_on_c, 9, 35, 127
7, 191232, Note_on_c, 9, 51, 127
7, 191248, Note_off_c, 9, 35, 0
7, 191248, Note_off_c, 9, 51, 0
7, 191424, Note_on_c, 9, 51, 87
7, 191440, Note_off_c, 9, 51, 0
7, 191520, Note_on_c, 9, 51, 87
7, 191536, Note_off_c, 9, 51, 0
7, 191616, Note_on_c, 9, 51, 97
7, 191632, Note_off_c, 9, 51, 0
7, 191808, Note_on_c, 9, 38, 117
7, 191808, Note_on_c, 9, 51, 117
7, 191824, Note_off_c, 9, 38, 0
7, 191824, Note_off_c, 9, 51, 0
7, 192000, Note_on_c, 9, 35, 127
7, 192000, Note_on_c, 9, 51, 87
7, 192016, Note_off_c, 9, 35, 0
7, 192016, Note_off_c, 9, 51, 0
7, 192192, Note_on_c, 9, 35, 127
7, 192192, Note_on_c, 9, 51, 107
7, 192208, Note_off_c, 9, 35, 0
7, 192208, Note_off_c, 9, 51, 0
7, 192384, Note_on_c, 9, 35, 127
7, 192384, Note_on_c, 9, 51, 127
7, 192400, Note_off_c, 9, 35, 0
7, 192400, Note_off_c, 9, 51, 0
7, 192576, Note_on_c, 9, 51, 87
7, 192592, Note_off_c, 9, 51, 0
7, 192672, Note_on_c, 9, 51, 87
7, 192688, Note_off_c, 9, 51, 0
7, 192768, Note_on_c, 9, 51, 97
7, 192784, Note_off_c, 9, 51, 0
7, 192960, Note_on_c, 9, 38, 117
7, 192960, Note_on_c, 9, 51, 117
7, 192976, Note_off_c, 9, 38, 0
7, 192976, Note_off_c, 9, 51, 0
7, 193152, Note_on_c, 9, 35, 127
7, 193152, Note_on_c, 9, 51, 87
7, 193168, Note_off_c, 9, 35, 0
7, 193168, Note_off_c, 9, 51, 0
7, 193344, Note_on_c, 9, 35, 127
7, 193344, Note_on_c, 9, 51, 107
7, 193360, Note_off_c, 9, 35, 0
7, 193360, Note_off_c, 9, 51, 0
7, 193536, Note_on_c, 9, 35, 127
7, 193536, Note_on_c, 9, 51, 127
7, 193552, Note_off_c, 9, 35, 0
7, 193552, Note_off_c, 9, 51, 0
7, 193728, Note_on_c, 9, 51, 87
7, 193744, Note_off_c, 9, 51, 0
7, 193824, Note_on_c, 9, 51, 87
7, 193840, Note_off_c, 9, 51, 0
7, 193920, Note_on_c, 9, 51, 97
7, 193936, Note_off_c, 9, 51, 0
7, 194112, Note_on_c, 9, 38, 117
7, 194112, Note_on_c, 9, 51, 117
7, 194128, Note_off_c, 9, 38, 0
7, 194128, Note_off_c, 9, 51, 0
7, 194304, Note_on_c, 9, 35, 127
7, 194304, Note_on_c, 9, 51, 87
7, 194320, Note_off_c, 9, 35, 0
7, 194320, Note_off_c, 9, 51, 0
7, 194496, Note_on_c, 9, 35, 127
7, 194496, Note_on_c, 9, 51, 107
7, 194512, Note_off_c, 9, 35, 0
7, 194512, Note_off_c, 9, 51, 0
7, 194688, Note_on_c, 9, 35, 127
7, 194688, Note_on_c, 9, 51, 127
7, 194704, Note_off_c, 9, 35, 0
7, 194704, Note_off_c, 9, 51, 0
7, 194880, Note_on_c, 9, 35, 107
7, 194880, Note_on_c, 9, 51, 87
7, 194896, Note_off_c, 9, 35, 0
7, 194896, Note_off_c, 9, 51, 0
7, 194976, Note_on_c, 9, 51, 87
7, 194992, Note_off_c, 9, 51, 0
7, 195072, Note_on_c, 9, 35, 107
7, 195072, Note_on_c, 9, 51, 97
7, 195088, Note_off_c, 9, 35, 0
7, 195088, Note_off_c, 9, 51, 0
7, 195264, Note_on_c, 9, 35, 107
7, 195264, Note_on_c, 9, 38, 117
7, 195264, Note_on_c, 9, 51, 117
7, 195280, Note_off_c, 9, 35, 0
7, 195280, Note_off_c, 9, 38, 0
7, 195280, Note_off_c, 9, 51, 0
7, 195456, Note_on_c, 9, 35, 127
7, 195456, Note_on_c, 9, 51, 87
7, 195472, Note_off_c, 9, 35, 0
7, 195472, Note_off_c, 9, 51, 0
7, 195648, Note_on_c, 9, 35, 127
7, 195648, Note_on_c, 9, 51, 107
7, 195664, Note_off_c, 9, 35, 0
7, 195664, Note_off_c, 9, 51, 0
7, 195840, Note_on_c, 9, 35, 127
7, 195840, Note_on_c, 9, 51, 127
7, 195856, Note_off_c, 9, 35, 0
7, 195856, Note_off_c, 9, 51, 0
7, 196032, Note_on_c, 9, 35, 107
7, 196032, Note_on_c, 9, 51, 87
7, 196048, Note_off_c, 9, 35, 0
7, 196048, Note_off_c, 9, 51, 0
7, 196128, Note_on_c, 9, 51, 87
7, 196144, Note_off_c, 9, 51, 0
7, 196224, Note_on_c, 9, 35, 107
7, 196224, Note_on_c, 9, 51, 97
7, 196240, Note_off_c, 9, 35, 0
7, 196240, Note_off_c, 9, 51, 0
7, 196416, Note_on_c, 9, 35, 107
7, 196416, Note_on_c, 9, 38, 117
7, 196416, Note_on_c, 9, 51, 117
7, 196432, Note_off_c, 9, 35, 0
7, 196432, Note_off_c, 9, 38, 0
7, 196432, Note_off_c, 9, 51, 0
7, 196608, Note_on_c, 9, 35, 127
7, 196608, Note_on_c, 9, 51, 87
7, 196624, Note_off_c, 9, 35, 0
7, 196624, Note_off_c, 9, 51, 0
7, 196800, Note_on_c, 9, 35, 127
7, 196800, Note_on_c, 9, 51, 107
7, 196816, Note_off_c, 9, 35, 0
7, 196816, Note_off_c, 9, 51, 0
7, 196992, Note_on_c, 9, 35, 127
7, 196992, Note_on_c, 9, 38, 97
7, 196992, Note_on_c, 9, 51, 127
7, 197008, Note_off_c, 9, 35, 0
7, 197008, Note_off_c, 9, 38, 0
7, 197008, Note_off_c, 9, 51, 0
7, 197184, Note_on_c, 9, 35, 107
7, 197184, Note_on_c, 9, 38, 97
7, 197184, Note_on_c, 9, 51, 87
7, 197200, Note_off_c, 9, 35, 0
7, 197200, Note_off_c, 9, 38, 0
7, 197200, Note_off_c, 9, 51, 0
7, 197280, Note_on_c, 9, 51, 87
7, 197296, Note_off_c, 9, 51, 0
7, 197376, Note_on_c, 9, 35, 107
7, 197376, Note_on_c, 9, 38, 97
7, 197376, Note_on_c, 9, 51, 97
7, 197392, Note_off_c, 9, 35, 0
7, 197392, Note_off_c, 9, 38, 0
7, 197392, Note_off_c, 9, 51, 0
7, 197568, Note_on_c, 9, 35, 107
7, 197568, Note_on_c, 9, 38, 117
7, 197568, Note_on_c, 9, 51, 117
7, 197584, Note_off_c, 9, 35, 0
7, 197584, Note_off_c, 9, 38, 0
7, 197584, Note_off_c, 9, 51, 0
7, 197760, Note_on_c, 9, 35, 127
7, 197760, Note_on_c, 9, 38, 97
7, 197760, Note_on_c, 9, 51, 87
7, 197776, Note_off_c, 9, 35, 0
7, 197776, Note_off_c, 9, 38, 0
7, 197776, Note_off_c, 9, 51, 0
7, 197952, Note_on_c, 9, 35, 127
7, 197952, Note_on_c, 9, 38, 97
7, 197952, Note_on_c, 9, 51, 107
7, 197968, Note_off_c, 9, 35, 0
7, 197968, Note_off_c, 9, 38, 0
7, 197968, Note_off_c, 9, 51, 0
7, 198144, Note_on_c, 9, 35, 127
7, 198144, Note_on_c, 9, 38, 97
7, 198144, Note_on_c, 9, 45, 97
7, 198144, Note_on_c, 9, 48, 97
7, 198144, Note_on_c, 9, 51, 127
7, 198160, Note_off_c, 9, 35, 0
7, 198160, Note_off_c, 9, 38, 0
7, 198160, Note_off_c, 9, 45, 0
7, 198160, Note_off_c, 9, 48, 0
7, 198160, Note_off_c, 9, 51, 0
7, 198336, Note_on_c, 9, 35, 107
7, 198336, Note_on_c, 9, 38, 97
7, 198336, Note_on_c, 9, 45, 97
7, 198336, Note_on_c, 9, 48, 97
7, 198336, Note_on_c, 9, 51, 87
7, 198352, Note_off_c, 9, 35, 0
7, 198352, Note_off_c, 9, 38, 0
7, 198352, Note_off_c, 9, 45, 0
7, 198352, Note_off_c, 9, 48, 0
7, 198352, Note_off_c, 9, 51, 0
7, 198432, Note_on_c, 9, 51, 87
7, 198448, Note_off_c, 9, 51, 0
7, 198528, Note_on_c, 9, 35, 107
7, 198528, Note_on_c, 9, 38, 97
7, 198528, Note_on_c, 9, 45, 97
7, 198528, Note_on_c, 9, 48, 97
7, 198528, Note_on_c, 9, 51, 97
7, 198544, Note_off_c, 9, 35, 0
7, 198544, Note_off_c, 9, 38, 0
7, 198544, Note_off_c, 9, 45, 0
7, 198544, Note_off_c, 9, 48, 0
7, 198544, Note_off_c, 9, 51, 0
7, 198720, Note_on_c, 9, 35, 107
7, 198720, Note_on_c, 9, 38, 117
7, 198720, Note_on_c, 9, 41, 97
7, 198720, Note_on_c, 9, 45, 97
7, 198720, Note_on_c, 9, 51, 117
7, 198736, Note_off_c, 9, 35, 0
7, 198736, Note_off_c, 9, 38, 0
7, 198736, Note_off_c, 9, 41, 0
7, 198736, Note_off_c, 9, 45, 0
7, 198736, Note_off_c, 9, 51, 0
7, 198912, Note_on_c, 9, 35, 127
7, 198912, Note_on_c, 9, 38, 97
7, 198912, Note_on_c, 9, 41, 97
7, 198912, Note_on_c, 9, 45, 97
7, 198912, Note_on_c, 9, 51, 87
7, 198928, Note_off_c, 9, 35, 0
7, 198928, Note_off_c, 9, 38, 0
7, 198928, Note_off_c, 9, 41, 0
7, 198928, Note_off_c, 9, 45, 0
7, 198928, Note_off_c, 9, 51, 0
7, 199104, Note_on_c, 9, 35, 127
7, 199104, Note_on_c, 9, 38, 97
7, 199104, Note_on_c, 9, 41, 97
7, 199104, Note_on_c, 9, 45, 97
7, 199104, Note_on_c, 9, 51, 107
7, 199120, Note_off_c, 9, 35, 0
7, 199120, Note_off_c, 9, 38, 0
7, 199120, Note_off_c, 9, 41, 0
7, 199120, Note_off_c, 9, 45, 0
7, 199120, Note_off_c, 9, 51, 0
7, 199296, Note_on_c, 9, 35, 127
7, 199296, Note_on_c, 9, 38, 97
7, 199296, Note_on_c, 9, 49, 116
7, 199296, Note_on_c, 9, 51, 127
7, 199312, Note_off_c, 9, 35, 0
7, 199312, Note_off_c, 9, 38, 0
7, 199312, Note_off_c, 9, 49, 0
7, 199312, Note_off_c, 9, 51, 0
7, 201632, Note_on_c, 9, 45, 18
7, 201648, Note_off_c, 9, 45, 0
7, 201680, Note_on_c, 9, 41, 22
7, 201696, Note_off_c, 9, 41, 0
7, 201728, Note_on_c, 9, 45, 27
7, 201744, Note_off_c, 9, 45, 0
7, 201776, Note_on_c, 9, 41, 31
7, 201792, Note_off_c, 9, 41, 0
7, 201824, Note_on_c, 9, 45, 36
7, 201840, Note_off_c, 9, 45, 0
7, 201872, Note_on_c, 9, 41, 41
7, 201888, Note_off_c, 9, 41, 0
7, 201920, Note_on_c, 9, 45, 45
7, 201936, Note_off_c, 9, 45, 0
7, 201968, Note_on_c, 9, 41, 50
7, 201984, Note_off_c, 9, 41, 0
7, 202016, Note_on_c, 9, 45, 54
7, 202032, Note_off_c, 9, 45, 0
7, 202064, Note_on_c, 9, 41, 59
7, 202080, Note_off_c, 9, 41, 0
7, 202112, Note_on_c, 9, 45, 64
7, 202128, Note_off_c, 9, 45, 0
7, 202160, Note_on_c, 9, 41, 68
7, 202176, Note_off_c, 9, 41, 0
7, 202208, Note_on_c, 9, 45, 73
7, 202224, Note_off_c, 9, 45, 0
7, 202256, Note_on_c, 9, 41, 77
7, 202272, Note_off_c, 9, 41, 0
7, 202304, Note_on_c, 9, 45, 82
7, 202320, Note_off_c, 9, 45, 0
7, 202352, Note_on_c, 9, 41, 87
7, 202368, Note_off_c, 9, 41, 0
7, 202400, Note_on_c, 9, 45, 91
7, 202416, Note_off_c, 9, 45, 0
7, 202448, Note_on_c, 9, 41, 96
7, 202464, Note_off_c, 9, 41, 0
7, 202496, Note_on_c, 9, 45, 100
7, 202512, Note_off_c, 9, 45, 0
7, 202544, Note_on_c, 9, 41, 105
7, 202560, Note_off_c, 9, 41, 0
7, 202592, Note_on_c, 9, 45, 110
7, 202608, Note_off_c, 9, 45, 0
7, 202640, Note_on_c, 9, 41, 114
7, 202656, Note_off_c, 9, 41, 0
7, 202688, Note_on_c, 9, 45, 119
7, 202704, Note_off_c, 9, 45, 0
7, 202736, Note_on_c, 9, 35, 127
7, 202736, Note_on_c, 9, 38, 124
7, 202752, Note_off_c, 9, 35, 0
7, 202752, Note_off_c, 9, 38, 0
7, 202752, End_track
8, 0, Start_track
8, 0, Title_t, "Re-mix by alex@primenet.com"
8, 0, Control_c, 9, 0, 1
8, 0, Program_c, 9, 0
8, 0, Control_c, 9, 7, 127
8, 0, Control_c, 9, 10, 64
8, 0, Control_c, 9, 91, 42
8, 0, Control_c, 9, 93, 37
8, 0, Key_signature, 0, "major"
8, 0, End_track
0, 0, End_of_file
