0, 0, Header, 1, 10, 960
1, 0, Start_track
1, 0, Control_c, 0, 101, 0
1, 0, Control_c, 0, 100, 0
1, 0, Control_c, 0, 6, 12
1, 0, Control_c, 0, 38, 0
1, 0, Control_c, 1, 101, 0
1, 0, Control_c, 1, 100, 0
1, 0, Control_c, 1, 6, 12
1, 0, Control_c, 1, 38, 0
1, 0, Control_c, 2, 101, 0
1, 0, Control_c, 2, 100, 0
1, 0, Control_c, 2, 6, 12
1, 0, Control_c, 2, 38, 0
1, 0, Control_c, 3, 101, 0
1, 0, Control_c, 3, 100, 0
1, 0, Control_c, 3, 6, 12
1, 0, Control_c, 3, 38, 0
1, 0, Control_c, 4, 101, 0
1, 0, Control_c, 4, 100, 0
1, 0, Control_c, 4, 6, 12
1, 0, Control_c, 4, 38, 0
1, 0, Control_c, 5, 101, 0
1, 0, Control_c, 5, 100, 0
1, 0, Control_c, 5, 6, 12
1, 0, Control_c, 5, 38, 0
1, 0, Control_c, 6, 101, 0
1, 0, Control_c, 6, 100, 0
1, 0, Control_c, 6, 6, 12
1, 0, Control_c, 6, 38, 0
1, 0, Control_c, 7, 101, 0
1, 0, Control_c, 7, 100, 0
1, 0, Control_c, 7, 6, 12
1, 0, Control_c, 7, 38, 0
1, 0, Control_c, 8, 101, 0
1, 0, Control_c, 8, 100, 0
1, 0, Control_c, 8, 6, 12
1, 0, Control_c, 8, 38, 0
1, 0, Control_c, 9, 101, 0
1, 0, Control_c, 9, 100, 0
1, 0, Control_c, 9, 6, 12
1, 0, Control_c, 9, 38, 0
1, 0, Control_c, 10, 101, 0
1, 0, Control_c, 10, 100, 0
1, 0, Control_c, 10, 6, 12
1, 0, Control_c, 10, 38, 0
1, 0, Control_c, 11, 101, 0
1, 0, Control_c, 11, 100, 0
1, 0, Control_c, 11, 6, 12
1, 0, Control_c, 11, 38, 0
1, 0, Control_c, 12, 101, 0
1, 0, Control_c, 12, 100, 0
1, 0, Control_c, 12, 6, 12
1, 0, Control_c, 12, 38, 0
1, 0, Control_c, 13, 101, 0
1, 0, Control_c, 13, 100, 0
1, 0, Control_c, 13, 6, 12
1, 0, Control_c, 13, 38, 0
1, 0, Control_c, 14, 101, 0
1, 0, Control_c, 14, 100, 0
1, 0, Control_c, 14, 6, 12
1, 0, Control_c, 14, 38, 0
1, 0, Control_c, 15, 101, 0
1, 0, Control_c, 15, 100, 0
1, 0, Control_c, 15, 6, 12
1, 0, Control_c, 15, 38, 0
1, 0, Time_signature, 4, 2, 24, 8
1, 0, Tempo, 600000
1, 0, End_track
2, 0, Start_track
2, 0, Pitch_bend_c, 0, 8192
2, 0, Control_c, 0, 7, 127
2, 0, Control_c, 0, 10, 63
2, 0, Control_c, 0, 93, 71
2, 0, Control_c, 0, 91, 71
2, 0, Control_c, 0, 95, 0
2, 0, Control_c, 0, 92, 0
2, 0, Control_c, 0, 11, 127
2, 0, Program_c, 0, 48
2, 0, Control_c, 1, 7, 127
2, 0, Control_c, 1, 10, 63
2, 0, Control_c, 1, 93, 71
2, 0, Control_c, 1, 91, 71
2, 0, Control_c, 1, 95, 0
2, 0, Control_c, 1, 92, 0
2, 0, Control_c, 1, 11, 127
2, 0, Program_c, 1, 48
2, 6240, Note_on_c, 0, 63, 95
2, 23040, Note_off_c, 0, 63, 95
2, 23040, Note_on_c, 0, 63, 95
2, 26880, Note_off_c, 0, 63, 95
2, 29280, Note_on_c, 0, 46, 95
2, 29760, Note_off_c, 0, 46, 95
2, 29760, Note_on_c, 0, 51, 95
2, 30240, Note_off_c, 0, 51, 95
2, 30240, Note_on_c, 0, 53, 95
2, 30720, Note_off_c, 0, 53, 95
2, 30720, Note_on_c, 0, 55, 95
2, 31680, Note_off_c, 0, 55, 95
2, 31680, Note_on_c, 0, 55, 95
2, 32160, Note_off_c, 0, 55, 95
2, 32160, Note_on_c, 0, 51, 95
2, 32640, Note_off_c, 0, 51, 95
2, 32640, Note_on_c, 0, 53, 95
2, 33600, Note_off_c, 0, 53, 95
2, 33600, Note_on_c, 0, 55, 95
2, 34080, Note_off_c, 0, 55, 95
2, 34080, Note_on_c, 0, 53, 95
2, 34560, Note_off_c, 0, 53, 95
2, 34560, Note_on_c, 0, 51, 70
2, 35520, Note_off_c, 0, 51, 70
2, 36480, Note_on_c, 0, 52, 95
2, 36960, Note_off_c, 0, 52, 95
2, 36960, Note_on_c, 0, 53, 95
2, 37440, Note_off_c, 0, 53, 95
2, 37440, Note_on_c, 0, 55, 95
2, 37920, Note_off_c, 0, 55, 95
2, 37920, Note_on_c, 0, 56, 95
2, 38880, Note_off_c, 0, 56, 95
2, 38880, Note_on_c, 0, 56, 95
2, 39360, Note_off_c, 0, 56, 95
2, 39360, Note_on_c, 0, 56, 95
2, 39840, Note_off_c, 0, 56, 95
2, 39840, Note_on_c, 0, 48, 95
2, 40320, Note_off_c, 0, 48, 95
2, 40320, Note_on_c, 0, 55, 95
2, 41280, Note_off_c, 0, 55, 95
2, 41280, Note_on_c, 0, 56, 95
2, 41760, Note_off_c, 0, 56, 95
2, 41760, Note_on_c, 0, 55, 95
2, 42240, Note_off_c, 0, 55, 95
2, 42240, Note_on_c, 0, 53, 70
2, 43200, Note_off_c, 0, 53, 70
2, 44640, Note_on_c, 0, 55, 95
2, 45120, Note_off_c, 0, 55, 95
2, 45120, Note_on_c, 0, 56, 95
2, 45600, Note_off_c, 0, 56, 95
2, 45600, Note_on_c, 0, 58, 95
2, 46560, Note_off_c, 0, 58, 95
2, 46560, Note_on_c, 0, 58, 95
2, 47040, Note_off_c, 0, 58, 95
2, 47040, Note_on_c, 0, 58, 95
2, 47520, Note_off_c, 0, 58, 95
2, 47520, Note_on_c, 0, 55, 95
2, 48000, Note_off_c, 0, 55, 95
2, 48000, Note_on_c, 0, 58, 95
2, 48480, Note_off_c, 0, 58, 95
2, 48480, Note_on_c, 0, 60, 95
2, 49440, Note_off_c, 0, 60, 95
2, 49440, Note_on_c, 0, 58, 95
2, 50400, Note_off_c, 0, 58, 95
2, 50400, Note_on_c, 0, 55, 95
2, 50880, Note_off_c, 0, 55, 95
2, 50880, Note_on_c, 0, 53, 95
2, 51360, Note_off_c, 0, 53, 95
2, 51360, Note_on_c, 0, 55, 95
2, 51600, Note_off_c, 0, 55, 95
2, 51600, Note_on_c, 0, 53, 95
2, 51840, Note_off_c, 0, 53, 95
2, 52320, Note_on_c, 0, 51, 95
2, 52800, Note_off_c, 0, 51, 95
2, 52800, Note_on_c, 0, 53, 95
2, 53280, Note_off_c, 0, 53, 95
2, 53280, Note_on_c, 0, 55, 95
2, 53760, Note_off_c, 0, 55, 95
2, 53760, Note_on_c, 0, 56, 95
2, 54240, Note_off_c, 0, 56, 95
2, 54240, Note_on_c, 0, 56, 95
2, 54720, Note_off_c, 0, 56, 95
2, 54720, Note_on_c, 0, 56, 95
2, 55200, Note_off_c, 0, 56, 95
2, 55200, Note_on_c, 0, 56, 95
2, 55680, Note_off_c, 0, 56, 95
2, 55680, Note_on_c, 0, 58, 95
2, 56640, Note_off_c, 0, 58, 95
2, 56640, Note_on_c, 0, 55, 95
2, 57120, Note_off_c, 0, 55, 95
2, 57120, Note_on_c, 0, 55, 95
2, 57600, Note_off_c, 0, 55, 95
2, 57600, Note_on_c, 0, 53, 70
2, 58560, Note_off_c, 0, 53, 70
2, 60000, Note_on_c, 0, 51, 95
2, 60480, Note_off_c, 0, 51, 95
2, 60480, Note_on_c, 0, 51, 95
2, 60960, Note_off_c, 0, 51, 95
2, 60960, Note_on_c, 0, 60, 95
2, 61920, Note_off_c, 0, 60, 95
2, 61920, Note_on_c, 0, 60, 95
2, 62880, Note_off_c, 0, 60, 95
2, 62880, Note_on_c, 0, 60, 95
2, 63840, Note_off_c, 0, 60, 95
2, 63840, Note_on_c, 0, 63, 95
2, 64320, Note_off_c, 0, 63, 95
2, 64320, Note_on_c, 0, 60, 95
2, 64800, Note_off_c, 0, 60, 95
2, 64800, Note_on_c, 0, 65, 95
2, 65760, Note_off_c, 0, 65, 95
2, 65760, Note_on_c, 0, 62, 95
2, 66240, Note_off_c, 0, 62, 95
2, 66240, Note_on_c, 0, 60, 95
2, 66720, Note_off_c, 0, 60, 95
2, 66720, Note_on_c, 0, 62, 95
2, 66960, Note_off_c, 0, 62, 95
2, 66960, Note_on_c, 0, 60, 95
2, 67200, Note_off_c, 0, 60, 95
2, 67200, Note_on_c, 0, 58, 95
2, 67680, Note_off_c, 0, 58, 95
2, 67680, Note_on_c, 0, 58, 95
2, 68160, Note_off_c, 0, 58, 95
2, 68160, Note_on_c, 0, 60, 95
2, 68640, Note_off_c, 0, 60, 95
2, 68640, Note_on_c, 0, 63, 95
2, 69600, Note_off_c, 0, 63, 95
2, 69600, Note_on_c, 0, 60, 95
2, 70080, Note_off_c, 0, 60, 95
2, 70080, Note_on_c, 0, 58, 95
2, 70560, Note_off_c, 0, 58, 95
2, 70560, Note_on_c, 0, 60, 95
2, 71520, Note_off_c, 0, 60, 95
2, 71520, Note_on_c, 0, 58, 95
2, 72000, Note_off_c, 0, 58, 95
2, 72000, Note_on_c, 0, 55, 95
2, 72480, Note_off_c, 0, 55, 95
2, 72480, Note_on_c, 0, 58, 95
2, 73440, Note_off_c, 0, 58, 95
2, 73440, Note_on_c, 0, 55, 95
2, 73920, Note_off_c, 0, 55, 95
2, 73920, Note_on_c, 0, 53, 95
2, 74400, Note_off_c, 0, 53, 95
2, 74400, Note_on_c, 0, 55, 95
2, 74640, Note_off_c, 0, 55, 95
2, 74640, Note_on_c, 0, 53, 95
2, 75840, Note_off_c, 0, 53, 95
2, 75840, Note_on_c, 0, 51, 95
2, 76320, Note_off_c, 0, 51, 95
2, 76320, Note_on_c, 0, 53, 95
2, 76800, Note_off_c, 0, 53, 95
2, 76800, Note_on_c, 0, 55, 95
2, 77280, Note_off_c, 0, 55, 95
2, 77280, Note_on_c, 0, 58, 95
2, 78240, Note_off_c, 0, 58, 95
2, 78240, Note_on_c, 0, 60, 95
2, 79200, Note_off_c, 0, 60, 95
2, 79200, Note_on_c, 0, 63, 95
2, 79680, Note_off_c, 0, 63, 95
2, 79680, Note_on_c, 0, 67, 95
2, 80640, Note_off_c, 0, 67, 95
2, 83520, Note_on_c, 0, 46, 95
2, 84000, Note_off_c, 0, 46, 95
2, 84000, Note_on_c, 0, 46, 95
2, 84960, Note_off_c, 0, 46, 95
2, 84960, Note_on_c, 0, 46, 95
2, 85440, Note_off_c, 0, 46, 95
2, 85440, Note_on_c, 0, 51, 95
2, 85920, Note_off_c, 0, 51, 95
2, 85920, Note_on_c, 0, 50, 95
2, 86880, Note_off_c, 0, 50, 95
2, 86880, Note_on_c, 0, 48, 95
2, 87840, Note_off_c, 0, 48, 95
2, 87840, Note_on_c, 0, 46, 95
2, 88800, Note_off_c, 0, 46, 95
2, 88800, Note_on_c, 0, 51, 95
2, 89760, Note_off_c, 0, 51, 95
2, 89760, Note_on_c, 0, 50, 95
2, 90720, Note_off_c, 0, 50, 95
2, 90720, Note_on_c, 0, 48, 95
2, 92160, Note_off_c, 0, 48, 95
2, 92160, Note_on_c, 0, 46, 95
2, 92640, Note_off_c, 0, 46, 95
2, 92640, Note_on_c, 0, 48, 95
2, 93120, Note_off_c, 0, 48, 95
2, 93120, Note_on_c, 0, 51, 95
2, 93600, Note_off_c, 0, 51, 95
2, 93600, Note_on_c, 0, 55, 95
2, 95040, Note_off_c, 0, 55, 95
2, 95040, Note_on_c, 0, 56, 95
2, 95520, Note_off_c, 0, 56, 95
2, 95520, Note_on_c, 0, 55, 95
2, 96000, Note_off_c, 0, 55, 95
2, 96000, Note_on_c, 0, 53, 95
2, 97920, Note_off_c, 0, 53, 95
2, 97920, Note_on_c, 0, 55, 95
2, 98880, Note_off_c, 0, 55, 95
2, 98880, Note_on_c, 0, 56, 95
2, 99840, Note_off_c, 0, 56, 95
2, 99840, Note_on_c, 0, 58, 95
2, 100320, Note_off_c, 0, 58, 95
2, 100320, Note_on_c, 0, 58, 95
2, 100800, Note_off_c, 0, 58, 95
2, 100800, Note_on_c, 0, 58, 95
2, 101280, Note_off_c, 0, 58, 95
2, 101280, Note_on_c, 0, 58, 95
2, 101760, Note_off_c, 0, 58, 95
2, 101760, Note_on_c, 0, 58, 95
2, 102240, Note_off_c, 0, 58, 95
2, 102240, Note_on_c, 0, 60, 95
2, 103200, Note_off_c, 0, 60, 95
2, 103200, Note_on_c, 0, 58, 95
2, 104640, Note_off_c, 0, 58, 95
2, 105600, Note_on_c, 0, 58, 95
2, 106320, Note_off_c, 0, 58, 95
2, 106320, Note_on_c, 0, 60, 95
2, 107040, Note_off_c, 0, 60, 95
2, 107040, Note_on_c, 0, 61, 95
2, 107520, Note_off_c, 0, 61, 95
2, 107520, Note_on_c, 0, 58, 95
2, 108480, Note_off_c, 0, 58, 95
2, 109920, Note_on_c, 0, 58, 95
2, 110400, Note_off_c, 0, 58, 95
2, 110400, Note_on_c, 0, 60, 95
2, 110880, Note_off_c, 0, 60, 95
2, 110880, Note_on_c, 0, 61, 95
2, 112320, Note_off_c, 0, 61, 95
2, 112320, Note_on_c, 0, 61, 95
2, 113280, Note_off_c, 0, 61, 95
2, 113280, Note_on_c, 0, 60, 95
2, 113760, Note_off_c, 0, 60, 95
2, 113760, Note_on_c, 0, 58, 95
2, 114720, Note_off_c, 0, 58, 95
2, 114720, Note_on_c, 0, 60, 95
2, 114960, Note_off_c, 0, 60, 95
2, 114960, Note_on_c, 0, 58, 70
2, 115200, Note_off_c, 0, 58, 70
2, 115200, Note_on_c, 0, 56, 70
2, 116160, Note_off_c, 0, 56, 70
2, 117600, Note_on_c, 0, 56, 95
2, 118080, Note_off_c, 0, 56, 95
2, 118080, Note_on_c, 0, 58, 95
2, 118560, Note_off_c, 0, 58, 95
2, 118560, Note_on_c, 0, 59, 95
2, 120000, Note_off_c, 0, 59, 95
2, 120000, Note_on_c, 0, 59, 95
2, 120480, Note_off_c, 0, 59, 95
2, 120480, Note_on_c, 0, 58, 95
2, 121440, Note_off_c, 0, 58, 95
2, 121440, Note_on_c, 0, 56, 95
2, 122400, Note_off_c, 0, 56, 95
2, 122400, Note_on_c, 0, 55, 95
2, 123840, Note_off_c, 0, 55, 95
2, 123840, Note_on_c, 0, 55, 95
2, 124320, Note_off_c, 0, 55, 95
2, 124320, Note_on_c, 0, 51, 95
2, 124800, Note_off_c, 0, 51, 95
2, 124800, Note_on_c, 0, 53, 95
2, 125760, Note_off_c, 0, 53, 95
2, 125760, Note_on_c, 0, 55, 95
2, 126240, Note_off_c, 0, 55, 95
2, 126240, Note_on_c, 0, 53, 95
2, 126720, Note_off_c, 0, 53, 95
2, 126720, Note_on_c, 0, 51, 70
2, 127680, Note_off_c, 0, 51, 70
2, 128640, Note_on_c, 0, 52, 95
2, 129120, Note_off_c, 0, 52, 95
2, 129120, Note_on_c, 0, 53, 95
2, 129600, Note_off_c, 0, 53, 95
2, 129600, Note_on_c, 0, 55, 95
2, 130080, Note_off_c, 0, 55, 95
2, 130080, Note_on_c, 0, 56, 95
2, 131040, Note_off_c, 0, 56, 95
2, 131040, Note_on_c, 0, 56, 95
2, 131520, Note_off_c, 0, 56, 95
2, 131520, Note_on_c, 0, 56, 95
2, 132000, Note_off_c, 0, 56, 95
2, 132000, Note_on_c, 0, 48, 95
2, 132480, Note_off_c, 0, 48, 95
2, 132480, Note_on_c, 0, 55, 95
2, 133440, Note_off_c, 0, 55, 95
2, 133440, Note_on_c, 0, 56, 95
2, 133920, Note_off_c, 0, 56, 95
2, 133920, Note_on_c, 0, 55, 95
2, 134400, Note_off_c, 0, 55, 95
2, 134400, Note_on_c, 0, 53, 70
2, 135360, Note_off_c, 0, 53, 70
2, 136800, Note_on_c, 0, 55, 95
2, 137280, Note_off_c, 0, 55, 95
2, 137280, Note_on_c, 0, 56, 95
2, 137760, Note_off_c, 0, 56, 95
2, 137760, Note_on_c, 0, 58, 95
2, 138720, Note_off_c, 0, 58, 95
2, 138720, Note_on_c, 0, 58, 95
2, 139200, Note_off_c, 0, 58, 95
2, 139200, Note_on_c, 0, 58, 95
2, 139680, Note_off_c, 0, 58, 95
2, 139680, Note_on_c, 0, 55, 95
2, 140160, Note_off_c, 0, 55, 95
2, 140160, Note_on_c, 0, 58, 95
2, 140640, Note_off_c, 0, 58, 95
2, 140640, Note_on_c, 0, 60, 95
2, 141600, Note_off_c, 0, 60, 95
2, 141600, Note_on_c, 0, 58, 95
2, 142560, Note_off_c, 0, 58, 95
2, 142560, Note_on_c, 0, 55, 95
2, 143040, Note_off_c, 0, 55, 95
2, 143040, Note_on_c, 0, 53, 95
2, 143520, Note_off_c, 0, 53, 95
2, 143520, Note_on_c, 0, 55, 95
2, 143760, Note_off_c, 0, 55, 95
2, 143760, Note_on_c, 0, 53, 95
2, 144000, Note_off_c, 0, 53, 95
2, 144480, Note_on_c, 0, 51, 95
2, 144960, Note_off_c, 0, 51, 95
2, 144960, Note_on_c, 0, 53, 95
2, 145440, Note_off_c, 0, 53, 95
2, 145440, Note_on_c, 0, 55, 95
2, 145920, Note_off_c, 0, 55, 95
2, 145920, Note_on_c, 0, 56, 95
2, 146400, Note_off_c, 0, 56, 95
2, 146400, Note_on_c, 0, 56, 95
2, 146880, Note_off_c, 0, 56, 95
2, 146880, Note_on_c, 0, 56, 95
2, 147360, Note_off_c, 0, 56, 95
2, 147360, Note_on_c, 0, 56, 95
2, 147840, Note_off_c, 0, 56, 95
2, 147840, Note_on_c, 0, 58, 95
2, 148800, Note_off_c, 0, 58, 95
2, 148800, Note_on_c, 0, 55, 95
2, 149280, Note_off_c, 0, 55, 95
2, 149280, Note_on_c, 0, 55, 95
2, 149760, Note_off_c, 0, 55, 95
2, 149760, Note_on_c, 0, 53, 70
2, 150720, Note_off_c, 0, 53, 70
2, 152160, Note_on_c, 0, 51, 95
2, 152640, Note_off_c, 0, 51, 95
2, 152640, Note_on_c, 0, 51, 95
2, 153120, Note_off_c, 0, 51, 95
2, 153120, Note_on_c, 0, 60, 95
2, 154080, Note_off_c, 0, 60, 95
2, 154080, Note_on_c, 0, 60, 95
2, 155040, Note_off_c, 0, 60, 95
2, 155040, Note_on_c, 0, 60, 95
2, 156000, Note_off_c, 0, 60, 95
2, 156000, Note_on_c, 0, 63, 95
2, 156480, Note_off_c, 0, 63, 95
2, 156480, Note_on_c, 0, 60, 95
2, 156960, Note_off_c, 0, 60, 95
2, 156960, Note_on_c, 0, 65, 95
2, 157920, Note_off_c, 0, 65, 95
2, 157920, Note_on_c, 0, 62, 95
2, 158400, Note_off_c, 0, 62, 95
2, 158400, Note_on_c, 0, 60, 95
2, 158880, Note_off_c, 0, 60, 95
2, 158880, Note_on_c, 0, 62, 95
2, 159120, Note_off_c, 0, 62, 95
2, 159120, Note_on_c, 0, 60, 95
2, 159360, Note_off_c, 0, 60, 95
2, 159360, Note_on_c, 0, 58, 95
2, 159840, Note_off_c, 0, 58, 95
2, 159840, Note_on_c, 0, 58, 95
2, 160320, Note_off_c, 0, 58, 95
2, 160320, Note_on_c, 0, 60, 95
2, 160800, Note_off_c, 0, 60, 95
2, 160800, Note_on_c, 0, 63, 95
2, 161760, Note_off_c, 0, 63, 95
2, 161760, Note_on_c, 0, 60, 95
2, 162240, Note_off_c, 0, 60, 95
2, 162240, Note_on_c, 0, 58, 95
2, 162720, Note_off_c, 0, 58, 95
2, 162720, Note_on_c, 0, 60, 95
2, 163680, Note_off_c, 0, 60, 95
2, 163680, Note_on_c, 0, 58, 95
2, 164160, Note_off_c, 0, 58, 95
2, 164160, Note_on_c, 0, 55, 95
2, 164640, Note_off_c, 0, 55, 95
2, 164640, Note_on_c, 0, 58, 95
2, 165600, Note_off_c, 0, 58, 95
2, 165600, Note_on_c, 0, 55, 95
2, 166080, Note_off_c, 0, 55, 95
2, 166080, Note_on_c, 0, 53, 95
2, 166560, Note_off_c, 0, 53, 95
2, 166560, Note_on_c, 0, 55, 95
2, 166800, Note_off_c, 0, 55, 95
2, 166800, Note_on_c, 0, 53, 95
2, 168000, Note_off_c, 0, 53, 95
2, 168000, Note_on_c, 0, 51, 95
2, 168480, Note_off_c, 0, 51, 95
2, 168480, Note_on_c, 0, 53, 95
2, 168960, Note_off_c, 0, 53, 95
2, 168960, Note_on_c, 0, 55, 95
2, 169440, Note_off_c, 0, 55, 95
2, 169440, Note_on_c, 0, 58, 95
2, 170400, Note_off_c, 0, 58, 95
2, 170400, Note_on_c, 0, 60, 95
2, 171360, Note_off_c, 0, 60, 95
2, 171360, Note_on_c, 0, 63, 95
2, 171840, Note_off_c, 0, 63, 95
2, 171840, Note_on_c, 0, 67, 95
2, 172800, Note_off_c, 0, 67, 95
2, 175680, Note_on_c, 0, 46, 95
2, 176160, Note_off_c, 0, 46, 95
2, 176160, Note_on_c, 0, 46, 95
2, 177120, Note_off_c, 0, 46, 95
2, 177120, Note_on_c, 0, 46, 95
2, 177600, Note_off_c, 0, 46, 95
2, 177600, Note_on_c, 0, 51, 95
2, 178080, Note_off_c, 0, 51, 95
2, 178080, Note_on_c, 0, 50, 95
2, 179040, Note_off_c, 0, 50, 95
2, 179040, Note_on_c, 0, 48, 95
2, 180000, Note_off_c, 0, 48, 95
2, 180000, Note_on_c, 0, 46, 95
2, 180960, Note_off_c, 0, 46, 95
2, 180960, Note_on_c, 0, 51, 95
2, 181920, Note_off_c, 0, 51, 95
2, 181920, Note_on_c, 0, 50, 95
2, 182880, Note_off_c, 0, 50, 95
2, 182880, Note_on_c, 0, 48, 95
2, 184320, Note_off_c, 0, 48, 95
2, 184320, Note_on_c, 0, 46, 95
2, 184800, Note_off_c, 0, 46, 95
2, 184800, Note_on_c, 0, 48, 95
2, 185280, Note_off_c, 0, 48, 95
2, 185280, Note_on_c, 0, 51, 95
2, 185760, Note_off_c, 0, 51, 95
2, 185760, Note_on_c, 0, 55, 95
2, 187200, Note_off_c, 0, 55, 95
2, 187200, Note_on_c, 0, 56, 95
2, 187680, Note_off_c, 0, 56, 95
2, 187680, Note_on_c, 0, 55, 95
2, 188160, Note_off_c, 0, 55, 95
2, 188160, Note_on_c, 0, 53, 95
2, 190080, Note_off_c, 0, 53, 95
2, 190080, Note_on_c, 0, 55, 95
2, 191040, Note_off_c, 0, 55, 95
2, 191040, Note_on_c, 0, 56, 95
2, 192000, Note_off_c, 0, 56, 95
2, 192000, Note_on_c, 0, 58, 95
2, 192480, Note_off_c, 0, 58, 95
2, 192480, Note_on_c, 0, 58, 95
2, 192960, Note_off_c, 0, 58, 95
2, 192960, Note_on_c, 0, 58, 95
2, 193440, Note_off_c, 0, 58, 95
2, 193440, Note_on_c, 0, 58, 95
2, 193920, Note_off_c, 0, 58, 95
2, 193920, Note_on_c, 0, 58, 95
2, 194400, Note_off_c, 0, 58, 95
2, 194400, Note_on_c, 0, 60, 95
2, 195360, Note_off_c, 0, 60, 95
2, 195360, Note_on_c, 0, 58, 95
2, 196800, Note_off_c, 0, 58, 95
2, 197760, Note_on_c, 0, 58, 95
2, 198480, Note_off_c, 0, 58, 95
2, 198480, Note_on_c, 0, 60, 95
2, 199200, Note_off_c, 0, 60, 95
2, 199200, Note_on_c, 0, 61, 95
2, 199680, Note_off_c, 0, 61, 95
2, 199680, Note_on_c, 0, 58, 95
2, 200640, Note_off_c, 0, 58, 95
2, 202080, Note_on_c, 0, 58, 95
2, 202560, Note_off_c, 0, 58, 95
2, 202560, Note_on_c, 0, 60, 95
2, 203040, Note_off_c, 0, 60, 95
2, 203040, Note_on_c, 0, 61, 95
2, 204480, Note_off_c, 0, 61, 95
2, 204480, Note_on_c, 0, 61, 95
2, 205440, Note_off_c, 0, 61, 95
2, 205440, Note_on_c, 0, 60, 95
2, 205920, Note_off_c, 0, 60, 95
2, 205920, Note_on_c, 0, 58, 95
2, 206880, Note_off_c, 0, 58, 95
2, 206880, Note_on_c, 0, 60, 95
2, 207120, Note_off_c, 0, 60, 95
2, 207120, Note_on_c, 0, 58, 70
2, 207360, Note_off_c, 0, 58, 70
2, 207360, Note_on_c, 0, 56, 70
2, 208320, Note_off_c, 0, 56, 70
2, 209760, Note_on_c, 0, 56, 95
2, 210240, Note_off_c, 0, 56, 95
2, 210240, Note_on_c, 0, 58, 95
2, 210720, Note_off_c, 0, 58, 95
2, 210720, Note_on_c, 0, 59, 95
2, 212160, Note_off_c, 0, 59, 95
2, 212160, Note_on_c, 0, 59, 95
2, 212640, Note_off_c, 0, 59, 95
2, 212640, Note_on_c, 0, 58, 95
2, 213600, Note_off_c, 0, 58, 95
2, 213600, Note_on_c, 0, 56, 95
2, 214560, Note_off_c, 0, 56, 95
2, 214560, Note_on_c, 0, 55, 95
2, 216000, Note_off_c, 0, 55, 95
2, 244320, Note_on_c, 0, 51, 95
2, 244800, Note_off_c, 0, 51, 95
2, 244800, Note_on_c, 0, 51, 95
2, 245280, Note_off_c, 0, 51, 95
2, 245280, Note_on_c, 0, 60, 95
2, 246240, Note_off_c, 0, 60, 95
2, 246240, Note_on_c, 0, 60, 95
2, 247200, Note_off_c, 0, 60, 95
2, 247200, Note_on_c, 0, 60, 95
2, 248160, Note_off_c, 0, 60, 95
2, 248160, Note_on_c, 0, 63, 95
2, 248640, Note_off_c, 0, 63, 95
2, 248640, Note_on_c, 0, 60, 95
2, 249120, Note_off_c, 0, 60, 95
2, 249120, Note_on_c, 0, 65, 95
2, 250080, Note_off_c, 0, 65, 95
2, 250080, Note_on_c, 0, 62, 95
2, 250560, Note_off_c, 0, 62, 95
2, 250560, Note_on_c, 0, 60, 95
2, 251040, Note_off_c, 0, 60, 95
2, 251040, Note_on_c, 0, 62, 95
2, 251280, Note_off_c, 0, 62, 95
2, 251280, Note_on_c, 0, 60, 95
2, 251520, Note_off_c, 0, 60, 95
2, 251520, Note_on_c, 0, 58, 95
2, 252000, Note_off_c, 0, 58, 95
2, 252000, Note_on_c, 0, 58, 95
2, 252480, Note_off_c, 0, 58, 95
2, 252480, Note_on_c, 0, 60, 95
2, 252960, Note_off_c, 0, 60, 95
2, 252960, Note_on_c, 0, 63, 95
2, 253920, Note_off_c, 0, 63, 95
2, 253920, Note_on_c, 0, 60, 95
2, 254400, Note_off_c, 0, 60, 95
2, 254400, Note_on_c, 0, 58, 95
2, 254880, Note_off_c, 0, 58, 95
2, 254880, Note_on_c, 0, 60, 95
2, 255840, Note_off_c, 0, 60, 95
2, 255840, Note_on_c, 0, 58, 95
2, 256320, Note_off_c, 0, 58, 95
2, 256320, Note_on_c, 0, 55, 95
2, 256800, Note_off_c, 0, 55, 95
2, 256800, Note_on_c, 0, 58, 95
2, 257760, Note_off_c, 0, 58, 95
2, 257760, Note_on_c, 0, 55, 95
2, 258240, Note_off_c, 0, 55, 95
2, 258240, Note_on_c, 0, 53, 95
2, 258720, Note_off_c, 0, 53, 95
2, 258720, Note_on_c, 0, 55, 95
2, 258960, Note_off_c, 0, 55, 95
2, 258960, Note_on_c, 0, 53, 95
2, 260160, Note_off_c, 0, 53, 95
2, 260160, Note_on_c, 0, 51, 95
2, 260640, Note_off_c, 0, 51, 95
2, 260640, Note_on_c, 0, 53, 95
2, 261120, Note_off_c, 0, 53, 95
2, 261120, Note_on_c, 0, 55, 95
2, 261600, Note_off_c, 0, 55, 95
2, 261600, Note_on_c, 0, 58, 95
2, 262560, Note_off_c, 0, 58, 95
2, 262560, Note_on_c, 0, 60, 95
2, 263520, Note_off_c, 0, 60, 95
2, 263520, Note_on_c, 0, 63, 95
2, 264000, Note_off_c, 0, 63, 95
2, 264000, Note_on_c, 0, 67, 95
2, 264960, Note_off_c, 0, 67, 95
2, 267840, Note_on_c, 0, 46, 95
2, 268320, Note_off_c, 0, 46, 95
2, 268320, Note_on_c, 0, 46, 95
2, 269280, Note_off_c, 0, 46, 95
2, 269280, Note_on_c, 0, 46, 95
2, 269760, Note_off_c, 0, 46, 95
2, 269760, Note_on_c, 0, 51, 95
2, 270240, Note_off_c, 0, 51, 95
2, 270240, Note_on_c, 0, 50, 95
2, 271200, Note_off_c, 0, 50, 95
2, 271200, Note_on_c, 0, 48, 95
2, 272160, Note_off_c, 0, 48, 95
2, 272160, Note_on_c, 0, 46, 95
2, 273120, Note_off_c, 0, 46, 95
2, 273120, Note_on_c, 0, 51, 95
2, 274080, Note_off_c, 0, 51, 95
2, 274080, Note_on_c, 0, 50, 95
2, 275040, Note_off_c, 0, 50, 95
2, 275040, Note_on_c, 0, 48, 95
2, 276480, Note_off_c, 0, 48, 95
2, 276480, Note_on_c, 0, 46, 95
2, 276960, Note_off_c, 0, 46, 95
2, 276960, Note_on_c, 0, 48, 95
2, 277440, Note_off_c, 0, 48, 95
2, 277440, Note_on_c, 0, 51, 95
2, 277920, Note_off_c, 0, 51, 95
2, 277920, Note_on_c, 0, 55, 95
2, 279360, Note_off_c, 0, 55, 95
2, 279360, Note_on_c, 0, 56, 95
2, 279840, Note_off_c, 0, 56, 95
2, 279840, Note_on_c, 0, 55, 95
2, 280320, Note_off_c, 0, 55, 95
2, 280320, Note_on_c, 0, 53, 95
2, 282240, Note_off_c, 0, 53, 95
2, 282240, Note_on_c, 0, 55, 95
2, 283200, Note_off_c, 0, 55, 95
2, 283200, Note_on_c, 0, 56, 95
2, 284160, Note_off_c, 0, 56, 95
2, 284160, Note_on_c, 0, 58, 95
2, 284640, Note_off_c, 0, 58, 95
2, 284640, Note_on_c, 0, 58, 95
2, 285120, Note_off_c, 0, 58, 95
2, 285120, Note_on_c, 0, 58, 95
2, 285600, Note_off_c, 0, 58, 95
2, 285600, Note_on_c, 0, 58, 95
2, 286080, Note_off_c, 0, 58, 95
2, 286080, Note_on_c, 0, 58, 95
2, 286560, Note_off_c, 0, 58, 95
2, 286560, Note_on_c, 0, 60, 95
2, 287520, Note_off_c, 0, 60, 95
2, 287520, Note_on_c, 0, 58, 95
2, 288960, Note_off_c, 0, 58, 95
2, 289920, Note_on_c, 0, 58, 95
2, 290640, Note_off_c, 0, 58, 95
2, 290640, Note_on_c, 0, 60, 95
2, 291360, Note_off_c, 0, 60, 95
2, 291360, Note_on_c, 0, 61, 95
2, 291840, Note_off_c, 0, 61, 95
2, 291840, Note_on_c, 0, 58, 95
2, 292800, Note_off_c, 0, 58, 95
2, 294240, Note_on_c, 0, 58, 95
2, 294720, Note_off_c, 0, 58, 95
2, 294720, Note_on_c, 0, 60, 95
2, 295200, Note_off_c, 0, 60, 95
2, 295200, Note_on_c, 0, 61, 95
2, 296640, Note_off_c, 0, 61, 95
2, 296640, Note_on_c, 0, 61, 95
2, 297600, Note_off_c, 0, 61, 95
2, 297600, Note_on_c, 0, 60, 95
2, 298080, Note_off_c, 0, 60, 95
2, 298080, Note_on_c, 0, 58, 95
2, 299040, Note_off_c, 0, 58, 95
2, 299040, Note_on_c, 0, 60, 95
2, 299280, Note_off_c, 0, 60, 95
2, 299280, Note_on_c, 0, 58, 70
2, 299520, Note_off_c, 0, 58, 70
2, 299520, Note_on_c, 0, 56, 70
2, 300480, Note_off_c, 0, 56, 70
2, 301920, Note_on_c, 0, 56, 95
2, 302400, Note_off_c, 0, 56, 95
2, 302400, Note_on_c, 0, 58, 95
2, 302880, Note_off_c, 0, 58, 95
2, 302880, Note_on_c, 0, 59, 95
2, 304320, Note_off_c, 0, 59, 95
2, 304320, Note_on_c, 0, 59, 95
2, 304800, Note_off_c, 0, 59, 95
2, 304800, Note_on_c, 0, 58, 95
2, 305760, Note_off_c, 0, 58, 95
2, 305760, Note_on_c, 0, 56, 95
2, 306720, Note_off_c, 0, 56, 95
2, 306720, Note_on_c, 0, 55, 95
2, 308160, Note_off_c, 0, 55, 95
2, 308160, Note_on_c, 0, 55, 95
2, 308640, Note_off_c, 0, 55, 95
2, 308640, Note_on_c, 0, 51, 95
2, 309120, Note_off_c, 0, 51, 95
2, 309120, Note_on_c, 0, 53, 95
2, 310080, Note_off_c, 0, 53, 95
2, 310080, Note_on_c, 0, 55, 95
2, 310560, Note_off_c, 0, 55, 95
2, 310560, Note_on_c, 0, 51, 95
2, 314880, Note_off_c, 0, 51, 95
2, 317760, Note_on_c, 0, 46, 95
2, 318240, Note_off_c, 0, 46, 95
2, 318240, Note_on_c, 0, 46, 95
2, 319200, Note_off_c, 0, 46, 95
2, 319200, Note_on_c, 0, 46, 95
2, 319680, Note_off_c, 0, 46, 95
2, 319680, Note_on_c, 0, 51, 95
2, 320160, Note_off_c, 0, 51, 95
2, 320160, Note_on_c, 0, 50, 95
2, 321120, Note_off_c, 0, 50, 95
2, 321120, Note_on_c, 0, 48, 95
2, 322080, Note_off_c, 0, 48, 95
2, 322080, Note_on_c, 0, 46, 95
2, 323040, Note_off_c, 0, 46, 95
2, 323040, Note_on_c, 0, 51, 95
2, 324000, Note_off_c, 0, 51, 95
2, 324000, Note_on_c, 0, 50, 95
2, 324960, Note_off_c, 0, 50, 95
2, 324960, Note_on_c, 0, 48, 95
2, 326400, Note_off_c, 0, 48, 95
2, 326400, Note_on_c, 0, 46, 95
2, 326880, Note_off_c, 0, 46, 95
2, 326880, Note_on_c, 0, 48, 95
2, 327360, Note_off_c, 0, 48, 95
2, 327360, Note_on_c, 0, 51, 95
2, 327840, Note_off_c, 0, 51, 95
2, 327840, Note_on_c, 0, 55, 95
2, 329280, Note_off_c, 0, 55, 95
2, 329280, Note_on_c, 0, 56, 95
2, 329760, Note_off_c, 0, 56, 95
2, 329760, Note_on_c, 0, 55, 95
2, 330240, Note_off_c, 0, 55, 95
2, 330240, Note_on_c, 0, 53, 95
2, 332160, Note_off_c, 0, 53, 95
2, 332160, Note_on_c, 0, 55, 95
2, 333120, Note_off_c, 0, 55, 95
2, 333120, Note_on_c, 0, 56, 95
2, 334080, Note_off_c, 0, 56, 95
2, 334080, Note_on_c, 0, 58, 95
2, 334560, Note_off_c, 0, 58, 95
2, 334560, Note_on_c, 0, 58, 95
2, 335040, Note_off_c, 0, 58, 95
2, 335040, Note_on_c, 0, 58, 95
2, 335520, Note_off_c, 0, 58, 95
2, 335520, Note_on_c, 0, 58, 95
2, 336000, Note_off_c, 0, 58, 95
2, 336000, Note_on_c, 0, 58, 95
2, 336480, Note_off_c, 0, 58, 95
2, 336480, Note_on_c, 0, 60, 95
2, 337440, Note_off_c, 0, 60, 95
2, 337440, Note_on_c, 0, 58, 95
2, 338880, Note_off_c, 0, 58, 95
2, 339840, Note_on_c, 0, 58, 95
2, 340560, Note_off_c, 0, 58, 95
2, 340560, Note_on_c, 0, 60, 95
2, 341280, Note_off_c, 0, 60, 95
2, 341280, Note_on_c, 0, 61, 95
2, 341760, Note_off_c, 0, 61, 95
2, 341760, Note_on_c, 0, 58, 95
2, 342720, Note_off_c, 0, 58, 95
2, 344160, Note_on_c, 0, 58, 95
2, 344640, Note_off_c, 0, 58, 95
2, 344640, Note_on_c, 0, 60, 95
2, 345120, Note_off_c, 0, 60, 95
2, 345120, Note_on_c, 0, 61, 95
2, 346560, Note_off_c, 0, 61, 95
2, 346560, Note_on_c, 0, 61, 95
2, 347520, Note_off_c, 0, 61, 95
2, 347520, Note_on_c, 0, 60, 95
2, 348000, Note_off_c, 0, 60, 95
2, 348000, Note_on_c, 0, 58, 95
2, 348960, Note_off_c, 0, 58, 95
2, 348960, Note_on_c, 0, 60, 95
2, 349200, Note_off_c, 0, 60, 95
2, 349200, Note_on_c, 0, 58, 70
2, 349440, Note_off_c, 0, 58, 70
2, 349440, Note_on_c, 0, 56, 70
2, 350400, Note_off_c, 0, 56, 70
2, 351840, Note_on_c, 0, 56, 95
2, 352320, Note_off_c, 0, 56, 95
2, 352320, Note_on_c, 0, 58, 95
2, 352800, Note_off_c, 0, 58, 95
2, 352800, Note_on_c, 0, 59, 95
2, 354240, Note_off_c, 0, 59, 95
2, 354240, Note_on_c, 0, 59, 95
2, 354720, Note_off_c, 0, 59, 95
2, 354720, Note_on_c, 0, 58, 95
2, 355680, Note_off_c, 0, 58, 95
2, 355680, Note_on_c, 0, 56, 95
2, 356640, Note_off_c, 0, 56, 95
2, 356640, Note_on_c, 0, 55, 95
2, 358080, Note_off_c, 0, 55, 95
2, 358080, Note_on_c, 0, 55, 95
2, 358560, Note_off_c, 0, 55, 95
2, 358560, Note_on_c, 0, 51, 95
2, 359040, Note_off_c, 0, 51, 95
2, 359040, Note_on_c, 0, 53, 95
2, 360000, Note_off_c, 0, 53, 95
2, 360000, Note_on_c, 0, 55, 95
2, 360480, Note_off_c, 0, 55, 95
2, 360480, Note_on_c, 0, 51, 95
2, 364800, Note_off_c, 0, 51, 95
2, 367680, Note_on_c, 0, 46, 95
2, 368160, Note_off_c, 0, 46, 95
2, 368160, Note_on_c, 0, 46, 95
2, 368640, Note_off_c, 0, 46, 95
2, 368640, End_track
3, 0, Start_track
3, 0, Pitch_bend_c, 2, 8192
3, 0, Control_c, 2, 7, 103
3, 0, Control_c, 2, 10, 63
3, 0, Control_c, 2, 93, 55
3, 0, Control_c, 2, 91, 0
3, 0, Control_c, 2, 95, 0
3, 0, Control_c, 2, 92, 0
3, 0, Control_c, 2, 11, 127
3, 0, Program_c, 2, 4
3, 0, Control_c, 3, 7, 103
3, 0, Control_c, 3, 10, 63
3, 0, Control_c, 3, 93, 55
3, 0, Control_c, 3, 91, 0
3, 0, Control_c, 3, 95, 0
3, 0, Control_c, 3, 92, 0
3, 0, Control_c, 3, 11, 127
3, 0, Program_c, 3, 4
3, 480, Note_on_c, 2, 70, 95
3, 960, Note_off_c, 2, 70, 95
3, 960, Note_on_c, 2, 75, 95
3, 1440, Note_off_c, 2, 75, 95
3, 1440, Note_on_c, 2, 77, 95
3, 2400, Note_off_c, 2, 77, 95
3, 2400, Note_on_c, 2, 79, 95
3, 3840, Note_off_c, 2, 79, 95
3, 4320, Note_on_c, 2, 70, 95
3, 4800, Note_off_c, 2, 70, 95
3, 4800, Note_on_c, 2, 74, 95
3, 5280, Note_off_c, 2, 74, 95
3, 5280, Note_on_c, 2, 77, 95
3, 6240, Note_off_c, 2, 77, 95
3, 6240, Note_on_c, 2, 79, 95
3, 7200, Note_off_c, 2, 79, 95
3, 7200, Note_on_c, 2, 72, 95
3, 7680, Note_off_c, 2, 72, 95
3, 7680, Note_on_c, 2, 79, 95
3, 7680, Note_on_c, 2, 72, 95
3, 8640, Note_off_c, 2, 79, 95
3, 8640, Note_off_c, 2, 72, 95
3, 8640, Note_on_c, 2, 75, 95
3, 8640, Note_on_c, 2, 67, 95
3, 9120, Note_off_c, 2, 75, 95
3, 9120, Note_off_c, 2, 67, 95
3, 9120, Note_on_c, 2, 67, 95
3, 11040, Note_off_c, 2, 67, 95
3, 11040, Note_on_c, 2, 70, 95
3, 11520, Note_off_c, 2, 70, 95
3, 11520, Note_on_c, 2, 70, 95
3, 12480, Note_off_c, 2, 70, 95
3, 12480, Note_on_c, 2, 67, 95
3, 12960, Note_off_c, 2, 67, 95
3, 12960, Note_on_c, 2, 62, 95
3, 13440, Note_off_c, 2, 62, 95
3, 13440, Note_on_c, 2, 62, 95
3, 13920, Note_off_c, 2, 62, 95
3, 13920, Note_on_c, 2, 60, 95
3, 14880, Note_off_c, 2, 60, 95
3, 14880, Note_on_c, 2, 53, 95
3, 15360, Note_off_c, 2, 53, 95
3, 15360, Note_on_c, 2, 55, 95
3, 15840, Note_off_c, 2, 55, 95
3, 15840, Note_on_c, 2, 58, 95
3, 16320, Note_off_c, 2, 58, 95
3, 16320, Note_on_c, 2, 63, 95
3, 16800, Note_off_c, 2, 63, 95
3, 16800, Note_on_c, 2, 65, 95
3, 17760, Note_off_c, 2, 65, 95
3, 17760, Note_on_c, 2, 67, 95
3, 19200, Note_off_c, 2, 67, 95
3, 19680, Note_on_c, 2, 67, 95
3, 20160, Note_off_c, 2, 67, 95
3, 20160, Note_on_c, 2, 70, 95
3, 20640, Note_off_c, 2, 70, 95
3, 20640, Note_on_c, 2, 74, 95
3, 21600, Note_off_c, 2, 74, 95
3, 21600, Note_on_c, 2, 75, 95
3, 23040, Note_off_c, 2, 75, 95
3, 23040, Note_on_c, 2, 72, 95
3, 24480, Note_off_c, 2, 72, 95
3, 24480, Note_on_c, 2, 75, 95
3, 25440, Note_off_c, 2, 75, 95
3, 25440, Note_on_c, 2, 72, 95
3, 26400, Note_off_c, 2, 72, 95
3, 26400, Note_on_c, 2, 67, 95
3, 26880, Note_off_c, 2, 67, 95
3, 26880, Note_on_c, 2, 70, 95
3, 27360, Note_off_c, 2, 70, 95
3, 27840, Note_on_c, 2, 70, 95
3, 30720, Note_off_c, 2, 70, 95
3, 30720, Note_on_c, 2, 70, 95
3, 30720, Note_on_c, 2, 67, 95
3, 30720, Note_on_c, 2, 62, 95
3, 32640, Note_off_c, 2, 70, 95
3, 32640, Note_off_c, 2, 67, 95
3, 32640, Note_off_c, 2, 62, 95
3, 32640, Note_on_c, 2, 65, 95
3, 32640, Note_on_c, 2, 62, 95
3, 32640, Note_on_c, 2, 58, 95
3, 32640, Note_on_c, 2, 55, 95
3, 34560, Note_off_c, 2, 65, 95
3, 34560, Note_off_c, 2, 62, 95
3, 34560, Note_off_c, 2, 58, 95
3, 34560, Note_off_c, 2, 55, 95
3, 34560, Note_on_c, 2, 63, 95
3, 34560, Note_on_c, 2, 60, 95
3, 34560, Note_on_c, 2, 56, 95
3, 34560, Note_on_c, 2, 53, 95
3, 36480, Note_off_c, 2, 63, 95
3, 36480, Note_off_c, 2, 60, 95
3, 36480, Note_off_c, 2, 56, 95
3, 36480, Note_off_c, 2, 53, 95
3, 36480, Note_on_c, 2, 64, 95
3, 36480, Note_on_c, 2, 60, 95
3, 36480, Note_on_c, 2, 58, 95
3, 36480, Note_on_c, 2, 52, 95
3, 38400, Note_off_c, 2, 64, 95
3, 38400, Note_off_c, 2, 60, 95
3, 38400, Note_off_c, 2, 58, 95
3, 38400, Note_off_c, 2, 52, 95
3, 38400, Note_on_c, 2, 68, 95
3, 38400, Note_on_c, 2, 65, 95
3, 38400, Note_on_c, 2, 63, 95
3, 38400, Note_on_c, 2, 60, 95
3, 40320, Note_off_c, 2, 68, 95
3, 40320, Note_off_c, 2, 65, 95
3, 40320, Note_off_c, 2, 63, 95
3, 40320, Note_off_c, 2, 60, 95
3, 40320, Note_on_c, 2, 65, 95
3, 40320, Note_on_c, 2, 62, 95
3, 40320, Note_on_c, 2, 59, 95
3, 40320, Note_on_c, 2, 55, 95
3, 42240, Note_off_c, 2, 65, 95
3, 42240, Note_off_c, 2, 62, 95
3, 42240, Note_off_c, 2, 59, 95
3, 42240, Note_off_c, 2, 55, 95
3, 42720, Note_on_c, 2, 68, 95
3, 43200, Note_off_c, 2, 68, 95
3, 43200, Note_on_c, 2, 75, 95
3, 43680, Note_off_c, 2, 75, 95
3, 43680, Note_on_c, 2, 65, 95
3, 44640, Note_off_c, 2, 65, 95
3, 44640, Note_on_c, 2, 72, 95
3, 46080, Note_off_c, 2, 72, 95
3, 46080, Note_on_c, 2, 67, 95
3, 47040, Note_off_c, 2, 67, 95
3, 47040, Note_on_c, 2, 70, 95
3, 48000, Note_off_c, 2, 70, 95
3, 48000, Note_on_c, 2, 65, 95
3, 48000, Note_on_c, 2, 62, 95
3, 48000, Note_on_c, 2, 58, 95
3, 48000, Note_on_c, 2, 55, 95
3, 49920, Note_off_c, 2, 65, 95
3, 49920, Note_off_c, 2, 62, 95
3, 49920, Note_off_c, 2, 58, 95
3, 49920, Note_off_c, 2, 55, 95
3, 49920, Note_on_c, 2, 74, 95
3, 50400, Note_off_c, 2, 74, 95
3, 50400, Note_on_c, 2, 75, 95
3, 50880, Note_off_c, 2, 75, 95
3, 50880, Note_on_c, 2, 72, 95
3, 51360, Note_off_c, 2, 72, 95
3, 51360, Note_on_c, 2, 70, 95
3, 51840, Note_off_c, 2, 70, 95
3, 51840, Note_on_c, 2, 67, 95
3, 52320, Note_off_c, 2, 67, 95
3, 52320, Note_on_c, 2, 63, 95
3, 52800, Note_off_c, 2, 63, 95
3, 52800, Note_on_c, 2, 60, 95
3, 53280, Note_off_c, 2, 60, 95
3, 53280, Note_on_c, 2, 58, 95
3, 53760, Note_off_c, 2, 58, 95
3, 53760, Note_on_c, 2, 56, 95
3, 56160, Note_off_c, 2, 56, 95
3, 56160, Note_on_c, 2, 60, 95
3, 56640, Note_off_c, 2, 60, 95
3, 56640, Note_on_c, 2, 68, 95
3, 57600, Note_off_c, 2, 68, 95
3, 58080, Note_on_c, 2, 72, 95
3, 58080, Note_on_c, 2, 68, 95
3, 58080, Note_on_c, 2, 67, 95
3, 58560, Note_off_c, 2, 72, 95
3, 58560, Note_off_c, 2, 68, 95
3, 58560, Note_off_c, 2, 67, 95
3, 58560, Note_on_c, 2, 72, 95
3, 58560, Note_on_c, 2, 68, 95
3, 58560, Note_on_c, 2, 67, 95
3, 59040, Note_off_c, 2, 72, 95
3, 59040, Note_off_c, 2, 68, 95
3, 59040, Note_off_c, 2, 67, 95
3, 59040, Note_on_c, 2, 65, 95
3, 59520, Note_off_c, 2, 65, 95
3, 59520, Note_on_c, 2, 68, 95
3, 61440, Note_off_c, 2, 68, 95
3, 61440, Note_on_c, 2, 67, 95
3, 61440, Note_on_c, 2, 63, 95
3, 61440, Note_on_c, 2, 60, 95
3, 61440, Note_on_c, 2, 56, 95
3, 65280, Note_off_c, 2, 67, 95
3, 65280, Note_off_c, 2, 63, 95
3, 65280, Note_off_c, 2, 60, 95
3, 65280, Note_off_c, 2, 56, 95
3, 65280, Note_on_c, 2, 70, 95
3, 65280, Note_on_c, 2, 67, 95
3, 65280, Note_on_c, 2, 65, 95
3, 65280, Note_on_c, 2, 62, 95
3, 69120, Note_off_c, 2, 70, 95
3, 69120, Note_off_c, 2, 67, 95
3, 69120, Note_off_c, 2, 65, 95
3, 69120, Note_off_c, 2, 62, 95
3, 69120, Note_on_c, 2, 63, 95
3, 69120, Note_on_c, 2, 60, 95
3, 69120, Note_on_c, 2, 56, 95
3, 69120, Note_on_c, 2, 53, 95
3, 72960, Note_off_c, 2, 63, 95
3, 72960, Note_off_c, 2, 60, 95
3, 72960, Note_off_c, 2, 56, 95
3, 72960, Note_off_c, 2, 53, 95
3, 72960, Note_on_c, 2, 49, 95
3, 74400, Note_off_c, 2, 49, 95
3, 74400, Note_on_c, 2, 65, 95
3, 75360, Note_off_c, 2, 65, 95
3, 75360, Note_on_c, 2, 72, 95
3, 75840, Note_off_c, 2, 72, 95
3, 75840, Note_on_c, 2, 77, 95
3, 76800, Note_off_c, 2, 77, 95
3, 76800, Note_on_c, 2, 70, 95
3, 76800, Note_on_c, 2, 67, 95
3, 76800, Note_on_c, 2, 65, 95
3, 76800, Note_on_c, 2, 62, 95
3, 80640, Note_off_c, 2, 70, 95
3, 80640, Note_off_c, 2, 67, 95
3, 80640, Note_off_c, 2, 65, 95
3, 80640, Note_off_c, 2, 62, 95
3, 80640, Note_on_c, 2, 63, 95
3, 80640, Note_on_c, 2, 60, 95
3, 80640, Note_on_c, 2, 56, 95
3, 80640, Note_on_c, 2, 53, 95
3, 84480, Note_off_c, 2, 63, 95
3, 84480, Note_off_c, 2, 60, 95
3, 84480, Note_off_c, 2, 56, 95
3, 84480, Note_off_c, 2, 53, 95
3, 84480, Note_on_c, 2, 67, 95
3, 84480, Note_on_c, 2, 63, 95
3, 84480, Note_on_c, 2, 58, 95
3, 88320, Note_off_c, 2, 67, 95
3, 88320, Note_off_c, 2, 63, 95
3, 88320, Note_off_c, 2, 58, 95
3, 88320, Note_on_c, 2, 70, 95
3, 88320, Note_on_c, 2, 67, 95
3, 88320, Note_on_c, 2, 65, 95
3, 88320, Note_on_c, 2, 62, 95
3, 92160, Note_off_c, 2, 70, 95
3, 92160, Note_off_c, 2, 67, 95
3, 92160, Note_off_c, 2, 65, 95
3, 92160, Note_off_c, 2, 62, 95
3, 92160, Note_on_c, 2, 67, 95
3, 92160, Note_on_c, 2, 63, 95
3, 92160, Note_on_c, 2, 60, 95
3, 92160, Note_on_c, 2, 56, 95
3, 96000, Note_off_c, 2, 67, 95
3, 96000, Note_off_c, 2, 63, 95
3, 96000, Note_off_c, 2, 60, 95
3, 96000, Note_off_c, 2, 56, 95
3, 96000, Note_on_c, 2, 68, 95
3, 96000, Note_on_c, 2, 65, 95
3, 96000, Note_on_c, 2, 63, 95
3, 96000, Note_on_c, 2, 59, 95
3, 96960, Note_off_c, 2, 68, 95
3, 96960, Note_off_c, 2, 65, 95
3, 96960, Note_off_c, 2, 63, 95
3, 96960, Note_off_c, 2, 59, 95
3, 96960, Note_on_c, 2, 59, 95
3, 97440, Note_off_c, 2, 59, 95
3, 97440, Note_on_c, 2, 63, 95
3, 98400, Note_off_c, 2, 63, 95
3, 98400, Note_on_c, 2, 65, 95
3, 98880, Note_off_c, 2, 65, 95
3, 98880, Note_on_c, 2, 68, 95
3, 99840, Note_off_c, 2, 68, 95
3, 99840, Note_on_c, 2, 70, 95
3, 99840, Note_on_c, 2, 67, 95
3, 99840, Note_on_c, 2, 63, 95
3, 103680, Note_off_c, 2, 70, 95
3, 103680, Note_off_c, 2, 67, 95
3, 103680, Note_off_c, 2, 63, 95
3, 122880, Note_on_c, 2, 70, 95
3, 122880, Note_on_c, 2, 67, 95
3, 122880, Note_on_c, 2, 62, 95
3, 124800, Note_off_c, 2, 70, 95
3, 124800, Note_off_c, 2, 67, 95
3, 124800, Note_off_c, 2, 62, 95
3, 124800, Note_on_c, 2, 65, 95
3, 124800, Note_on_c, 2, 62, 95
3, 124800, Note_on_c, 2, 58, 95
3, 124800, Note_on_c, 2, 55, 95
3, 126720, Note_off_c, 2, 65, 95
3, 126720, Note_off_c, 2, 62, 95
3, 126720, Note_off_c, 2, 58, 95
3, 126720, Note_off_c, 2, 55, 95
3, 126720, Note_on_c, 2, 63, 95
3, 126720, Note_on_c, 2, 60, 95
3, 126720, Note_on_c, 2, 56, 95
3, 126720, Note_on_c, 2, 53, 95
3, 128640, Note_off_c, 2, 63, 95
3, 128640, Note_off_c, 2, 60, 95
3, 128640, Note_off_c, 2, 56, 95
3, 128640, Note_off_c, 2, 53, 95
3, 128640, Note_on_c, 2, 64, 95
3, 128640, Note_on_c, 2, 60, 95
3, 128640, Note_on_c, 2, 58, 95
3, 128640, Note_on_c, 2, 52, 95
3, 130560, Note_off_c, 2, 64, 95
3, 130560, Note_off_c, 2, 60, 95
3, 130560, Note_off_c, 2, 58, 95
3, 130560, Note_off_c, 2, 52, 95
3, 130560, Note_on_c, 2, 68, 95
3, 130560, Note_on_c, 2, 65, 95
3, 130560, Note_on_c, 2, 63, 95
3, 130560, Note_on_c, 2, 60, 95
3, 132480, Note_off_c, 2, 68, 95
3, 132480, Note_off_c, 2, 65, 95
3, 132480, Note_off_c, 2, 63, 95
3, 132480, Note_off_c, 2, 60, 95
3, 132480, Note_on_c, 2, 65, 95
3, 132480, Note_on_c, 2, 62, 95
3, 132480, Note_on_c, 2, 59, 95
3, 132480, Note_on_c, 2, 55, 95
3, 134400, Note_off_c, 2, 65, 95
3, 134400, Note_off_c, 2, 62, 95
3, 134400, Note_off_c, 2, 59, 95
3, 134400, Note_off_c, 2, 55, 95
3, 134880, Note_on_c, 2, 68, 95
3, 135360, Note_off_c, 2, 68, 95
3, 135360, Note_on_c, 2, 75, 95
3, 135840, Note_off_c, 2, 75, 95
3, 135840, Note_on_c, 2, 65, 95
3, 136800, Note_off_c, 2, 65, 95
3, 136800, Note_on_c, 2, 72, 95
3, 138240, Note_off_c, 2, 72, 95
3, 138240, Note_on_c, 2, 67, 95
3, 139200, Note_off_c, 2, 67, 95
3, 139200, Note_on_c, 2, 70, 95
3, 140160, Note_off_c, 2, 70, 95
3, 140160, Note_on_c, 2, 65, 95
3, 140160, Note_on_c, 2, 62, 95
3, 140160, Note_on_c, 2, 58, 95
3, 140160, Note_on_c, 2, 55, 95
3, 142080, Note_off_c, 2, 65, 95
3, 142080, Note_off_c, 2, 62, 95
3, 142080, Note_off_c, 2, 58, 95
3, 142080, Note_off_c, 2, 55, 95
3, 142080, Note_on_c, 2, 74, 95
3, 142560, Note_off_c, 2, 74, 95
3, 142560, Note_on_c, 2, 75, 95
3, 143040, Note_off_c, 2, 75, 95
3, 143040, Note_on_c, 2, 72, 95
3, 143520, Note_off_c, 2, 72, 95
3, 143520, Note_on_c, 2, 70, 95
3, 144000, Note_off_c, 2, 70, 95
3, 144000, Note_on_c, 2, 67, 95
3, 144480, Note_off_c, 2, 67, 95
3, 144480, Note_on_c, 2, 63, 95
3, 144960, Note_off_c, 2, 63, 95
3, 144960, Note_on_c, 2, 60, 95
3, 145440, Note_off_c, 2, 60, 95
3, 145440, Note_on_c, 2, 58, 95
3, 145920, Note_off_c, 2, 58, 95
3, 145920, Note_on_c, 2, 56, 95
3, 148320, Note_off_c, 2, 56, 95
3, 148320, Note_on_c, 2, 60, 95
3, 148800, Note_off_c, 2, 60, 95
3, 148800, Note_on_c, 2, 68, 95
3, 149760, Note_off_c, 2, 68, 95
3, 150240, Note_on_c, 2, 72, 95
3, 150240, Note_on_c, 2, 68, 95
3, 150240, Note_on_c, 2, 67, 95
3, 150720, Note_off_c, 2, 72, 95
3, 150720, Note_off_c, 2, 68, 95
3, 150720, Note_off_c, 2, 67, 95
3, 150720, Note_on_c, 2, 72, 95
3, 150720, Note_on_c, 2, 68, 95
3, 150720, Note_on_c, 2, 67, 95
3, 151200, Note_off_c, 2, 72, 95
3, 151200, Note_off_c, 2, 68, 95
3, 151200, Note_off_c, 2, 67, 95
3, 151200, Note_on_c, 2, 65, 95
3, 151680, Note_off_c, 2, 65, 95
3, 151680, Note_on_c, 2, 68, 95
3, 153600, Note_off_c, 2, 68, 95
3, 153600, Note_on_c, 2, 67, 95
3, 153600, Note_on_c, 2, 63, 95
3, 153600, Note_on_c, 2, 60, 95
3, 153600, Note_on_c, 2, 56, 95
3, 157440, Note_off_c, 2, 67, 95
3, 157440, Note_off_c, 2, 63, 95
3, 157440, Note_off_c, 2, 60, 95
3, 157440, Note_off_c, 2, 56, 95
3, 157440, Note_on_c, 2, 70, 95
3, 157440, Note_on_c, 2, 67, 95
3, 157440, Note_on_c, 2, 65, 95
3, 157440, Note_on_c, 2, 62, 95
3, 161280, Note_off_c, 2, 70, 95
3, 161280, Note_off_c, 2, 67, 95
3, 161280, Note_off_c, 2, 65, 95
3, 161280, Note_off_c, 2, 62, 95
3, 161280, Note_on_c, 2, 63, 95
3, 161280, Note_on_c, 2, 60, 95
3, 161280, Note_on_c, 2, 56, 95
3, 161280, Note_on_c, 2, 53, 95
3, 165120, Note_off_c, 2, 63, 95
3, 165120, Note_off_c, 2, 60, 95
3, 165120, Note_off_c, 2, 56, 95
3, 165120, Note_off_c, 2, 53, 95
3, 165120, Note_on_c, 2, 49, 95
3, 166560, Note_off_c, 2, 49, 95
3, 166560, Note_on_c, 2, 65, 95
3, 167520, Note_off_c, 2, 65, 95
3, 167520, Note_on_c, 2, 72, 95
3, 168000, Note_off_c, 2, 72, 95
3, 168000, Note_on_c, 2, 77, 95
3, 168960, Note_off_c, 2, 77, 95
3, 168960, Note_on_c, 2, 70, 95
3, 168960, Note_on_c, 2, 67, 95
3, 168960, Note_on_c, 2, 65, 95
3, 168960, Note_on_c, 2, 62, 95
3, 172800, Note_off_c, 2, 70, 95
3, 172800, Note_off_c, 2, 67, 95
3, 172800, Note_off_c, 2, 65, 95
3, 172800, Note_off_c, 2, 62, 95
3, 172800, Note_on_c, 2, 63, 95
3, 172800, Note_on_c, 2, 60, 95
3, 172800, Note_on_c, 2, 56, 95
3, 172800, Note_on_c, 2, 53, 95
3, 176640, Note_off_c, 2, 63, 95
3, 176640, Note_off_c, 2, 60, 95
3, 176640, Note_off_c, 2, 56, 95
3, 176640, Note_off_c, 2, 53, 95
3, 176640, Note_on_c, 2, 67, 95
3, 176640, Note_on_c, 2, 63, 95
3, 176640, Note_on_c, 2, 58, 95
3, 180480, Note_off_c, 2, 67, 95
3, 180480, Note_off_c, 2, 63, 95
3, 180480, Note_off_c, 2, 58, 95
3, 180480, Note_on_c, 2, 70, 95
3, 180480, Note_on_c, 2, 67, 95
3, 180480, Note_on_c, 2, 65, 95
3, 180480, Note_on_c, 2, 62, 95
3, 184320, Note_off_c, 2, 70, 95
3, 184320, Note_off_c, 2, 67, 95
3, 184320, Note_off_c, 2, 65, 95
3, 184320, Note_off_c, 2, 62, 95
3, 184320, Note_on_c, 2, 67, 95
3, 184320, Note_on_c, 2, 63, 95
3, 184320, Note_on_c, 2, 60, 95
3, 184320, Note_on_c, 2, 56, 95
3, 188160, Note_off_c, 2, 67, 95
3, 188160, Note_off_c, 2, 63, 95
3, 188160, Note_off_c, 2, 60, 95
3, 188160, Note_off_c, 2, 56, 95
3, 188160, Note_on_c, 2, 68, 95
3, 188160, Note_on_c, 2, 65, 95
3, 188160, Note_on_c, 2, 63, 95
3, 188160, Note_on_c, 2, 59, 95
3, 189120, Note_off_c, 2, 68, 95
3, 189120, Note_off_c, 2, 65, 95
3, 189120, Note_off_c, 2, 63, 95
3, 189120, Note_off_c, 2, 59, 95
3, 189120, Note_on_c, 2, 59, 95
3, 189600, Note_off_c, 2, 59, 95
3, 189600, Note_on_c, 2, 63, 95
3, 190560, Note_off_c, 2, 63, 95
3, 190560, Note_on_c, 2, 65, 95
3, 191040, Note_off_c, 2, 65, 95
3, 191040, Note_on_c, 2, 68, 95
3, 192000, Note_off_c, 2, 68, 95
3, 192000, Note_on_c, 2, 70, 95
3, 192000, Note_on_c, 2, 67, 95
3, 192000, Note_on_c, 2, 63, 95
3, 195840, Note_off_c, 2, 70, 95
3, 195840, Note_off_c, 2, 67, 95
3, 195840, Note_off_c, 2, 63, 95
3, 215040, Note_on_c, 2, 70, 95
3, 215040, Note_on_c, 2, 67, 95
3, 215040, Note_on_c, 2, 62, 95
3, 216960, Note_off_c, 2, 70, 95
3, 216960, Note_off_c, 2, 67, 95
3, 216960, Note_off_c, 2, 62, 95
3, 216960, Note_on_c, 2, 65, 95
3, 216960, Note_on_c, 2, 62, 95
3, 216960, Note_on_c, 2, 58, 95
3, 216960, Note_on_c, 2, 55, 95
3, 218880, Note_off_c, 2, 65, 95
3, 218880, Note_off_c, 2, 62, 95
3, 218880, Note_off_c, 2, 58, 95
3, 218880, Note_off_c, 2, 55, 95
3, 218880, Note_on_c, 2, 63, 95
3, 218880, Note_on_c, 2, 60, 95
3, 218880, Note_on_c, 2, 56, 95
3, 218880, Note_on_c, 2, 53, 95
3, 220800, Note_off_c, 2, 63, 95
3, 220800, Note_off_c, 2, 60, 95
3, 220800, Note_off_c, 2, 56, 95
3, 220800, Note_off_c, 2, 53, 95
3, 220800, Note_on_c, 2, 64, 95
3, 220800, Note_on_c, 2, 60, 95
3, 220800, Note_on_c, 2, 58, 95
3, 220800, Note_on_c, 2, 52, 95
3, 222720, Note_off_c, 2, 64, 95
3, 222720, Note_off_c, 2, 60, 95
3, 222720, Note_off_c, 2, 58, 95
3, 222720, Note_off_c, 2, 52, 95
3, 222720, Note_on_c, 2, 68, 95
3, 222720, Note_on_c, 2, 65, 95
3, 222720, Note_on_c, 2, 63, 95
3, 222720, Note_on_c, 2, 60, 95
3, 224640, Note_off_c, 2, 68, 95
3, 224640, Note_off_c, 2, 65, 95
3, 224640, Note_off_c, 2, 63, 95
3, 224640, Note_off_c, 2, 60, 95
3, 224640, Note_on_c, 2, 65, 95
3, 224640, Note_on_c, 2, 62, 95
3, 224640, Note_on_c, 2, 59, 95
3, 224640, Note_on_c, 2, 55, 95
3, 226560, Note_off_c, 2, 65, 95
3, 226560, Note_off_c, 2, 62, 95
3, 226560, Note_off_c, 2, 59, 95
3, 226560, Note_off_c, 2, 55, 95
3, 227040, Note_on_c, 2, 68, 95
3, 227520, Note_off_c, 2, 68, 95
3, 227520, Note_on_c, 2, 75, 95
3, 228000, Note_off_c, 2, 75, 95
3, 228000, Note_on_c, 2, 65, 95
3, 228960, Note_off_c, 2, 65, 95
3, 228960, Note_on_c, 2, 72, 95
3, 230400, Note_off_c, 2, 72, 95
3, 230400, Note_on_c, 2, 67, 95
3, 231360, Note_off_c, 2, 67, 95
3, 231360, Note_on_c, 2, 70, 95
3, 232320, Note_off_c, 2, 70, 95
3, 232320, Note_on_c, 2, 65, 95
3, 232320, Note_on_c, 2, 62, 95
3, 232320, Note_on_c, 2, 58, 95
3, 232320, Note_on_c, 2, 55, 95
3, 234240, Note_off_c, 2, 65, 95
3, 234240, Note_off_c, 2, 62, 95
3, 234240, Note_off_c, 2, 58, 95
3, 234240, Note_off_c, 2, 55, 95
3, 234240, Note_on_c, 2, 74, 95
3, 234720, Note_off_c, 2, 74, 95
3, 234720, Note_on_c, 2, 75, 95
3, 235200, Note_off_c, 2, 75, 95
3, 235200, Note_on_c, 2, 72, 95
3, 235680, Note_off_c, 2, 72, 95
3, 235680, Note_on_c, 2, 70, 95
3, 236160, Note_off_c, 2, 70, 95
3, 236160, Note_on_c, 2, 67, 95
3, 236640, Note_off_c, 2, 67, 95
3, 236640, Note_on_c, 2, 63, 95
3, 237120, Note_off_c, 2, 63, 95
3, 237120, Note_on_c, 2, 60, 95
3, 237600, Note_off_c, 2, 60, 95
3, 237600, Note_on_c, 2, 58, 95
3, 238080, Note_off_c, 2, 58, 95
3, 238080, Note_on_c, 2, 56, 95
3, 240480, Note_off_c, 2, 56, 95
3, 240480, Note_on_c, 2, 60, 95
3, 240960, Note_off_c, 2, 60, 95
3, 240960, Note_on_c, 2, 68, 95
3, 241920, Note_off_c, 2, 68, 95
3, 242400, Note_on_c, 2, 72, 95
3, 242400, Note_on_c, 2, 68, 95
3, 242400, Note_on_c, 2, 67, 95
3, 242880, Note_off_c, 2, 72, 95
3, 242880, Note_off_c, 2, 68, 95
3, 242880, Note_off_c, 2, 67, 95
3, 242880, Note_on_c, 2, 72, 95
3, 242880, Note_on_c, 2, 68, 95
3, 242880, Note_on_c, 2, 67, 95
3, 243360, Note_off_c, 2, 72, 95
3, 243360, Note_off_c, 2, 68, 95
3, 243360, Note_off_c, 2, 67, 95
3, 243360, Note_on_c, 2, 65, 95
3, 243840, Note_off_c, 2, 65, 95
3, 243840, Note_on_c, 2, 68, 95
3, 245760, Note_off_c, 2, 68, 95
3, 245760, Note_on_c, 2, 67, 95
3, 245760, Note_on_c, 2, 63, 95
3, 245760, Note_on_c, 2, 60, 95
3, 245760, Note_on_c, 2, 56, 95
3, 249600, Note_off_c, 2, 67, 95
3, 249600, Note_off_c, 2, 63, 95
3, 249600, Note_off_c, 2, 60, 95
3, 249600, Note_off_c, 2, 56, 95
3, 249600, Note_on_c, 2, 70, 95
3, 249600, Note_on_c, 2, 67, 95
3, 249600, Note_on_c, 2, 65, 95
3, 249600, Note_on_c, 2, 62, 95
3, 253440, Note_off_c, 2, 70, 95
3, 253440, Note_off_c, 2, 67, 95
3, 253440, Note_off_c, 2, 65, 95
3, 253440, Note_off_c, 2, 62, 95
3, 253440, Note_on_c, 2, 63, 95
3, 253440, Note_on_c, 2, 60, 95
3, 253440, Note_on_c, 2, 56, 95
3, 253440, Note_on_c, 2, 53, 95
3, 257280, Note_off_c, 2, 63, 95
3, 257280, Note_off_c, 2, 60, 95
3, 257280, Note_off_c, 2, 56, 95
3, 257280, Note_off_c, 2, 53, 95
3, 257280, Note_on_c, 2, 49, 95
3, 258720, Note_off_c, 2, 49, 95
3, 258720, Note_on_c, 2, 65, 95
3, 259680, Note_off_c, 2, 65, 95
3, 259680, Note_on_c, 2, 72, 95
3, 260160, Note_off_c, 2, 72, 95
3, 260160, Note_on_c, 2, 77, 95
3, 261120, Note_off_c, 2, 77, 95
3, 261120, Note_on_c, 2, 70, 95
3, 261120, Note_on_c, 2, 67, 95
3, 261120, Note_on_c, 2, 65, 95
3, 261120, Note_on_c, 2, 62, 95
3, 264960, Note_off_c, 2, 70, 95
3, 264960, Note_off_c, 2, 67, 95
3, 264960, Note_off_c, 2, 65, 95
3, 264960, Note_off_c, 2, 62, 95
3, 264960, Note_on_c, 2, 63, 95
3, 264960, Note_on_c, 2, 60, 95
3, 264960, Note_on_c, 2, 56, 95
3, 264960, Note_on_c, 2, 53, 95
3, 265440, Note_off_c, 2, 63, 95
3, 265440, Note_off_c, 2, 60, 95
3, 265440, Note_off_c, 2, 56, 95
3, 265440, Note_off_c, 2, 53, 95
3, 265920, Note_on_c, 2, 63, 95
3, 265920, Note_on_c, 2, 60, 95
3, 265920, Note_on_c, 2, 56, 95
3, 265920, Note_on_c, 2, 53, 95
3, 268800, Note_off_c, 2, 63, 95
3, 268800, Note_off_c, 2, 60, 95
3, 268800, Note_off_c, 2, 56, 95
3, 268800, Note_off_c, 2, 53, 95
3, 268800, Note_on_c, 2, 67, 95
3, 268800, Note_on_c, 2, 63, 95
3, 268800, Note_on_c, 2, 58, 95
3, 272640, Note_off_c, 2, 67, 95
3, 272640, Note_off_c, 2, 63, 95
3, 272640, Note_off_c, 2, 58, 95
3, 272640, Note_on_c, 2, 67, 95
3, 272640, Note_on_c, 2, 63, 95
3, 272640, Note_on_c, 2, 62, 95
3, 272640, Note_on_c, 2, 58, 95
3, 276480, Note_off_c, 2, 67, 95
3, 276480, Note_off_c, 2, 63, 95
3, 276480, Note_off_c, 2, 62, 95
3, 276480, Note_off_c, 2, 58, 95
3, 276480, Note_on_c, 2, 67, 95
3, 276480, Note_on_c, 2, 63, 95
3, 276480, Note_on_c, 2, 60, 95
3, 276480, Note_on_c, 2, 56, 95
3, 280320, Note_off_c, 2, 67, 95
3, 280320, Note_off_c, 2, 63, 95
3, 280320, Note_off_c, 2, 60, 95
3, 280320, Note_off_c, 2, 56, 95
3, 280320, Note_on_c, 2, 83, 95
3, 280320, Note_on_c, 2, 80, 95
3, 280320, Note_on_c, 2, 77, 95
3, 284160, Note_off_c, 2, 83, 95
3, 284160, Note_off_c, 2, 80, 95
3, 284160, Note_off_c, 2, 77, 95
3, 284160, Note_on_c, 2, 70, 95
3, 284160, Note_on_c, 2, 67, 95
3, 284160, Note_on_c, 2, 63, 95
3, 288000, Note_off_c, 2, 70, 95
3, 288000, Note_off_c, 2, 67, 95
3, 288000, Note_off_c, 2, 63, 95
3, 288000, Note_on_c, 2, 70, 95
3, 288000, Note_on_c, 2, 65, 95
3, 288000, Note_on_c, 2, 61, 95
3, 291840, Note_off_c, 2, 70, 95
3, 291840, Note_off_c, 2, 65, 95
3, 291840, Note_off_c, 2, 61, 95
3, 291840, Note_on_c, 2, 70, 95
3, 291840, Note_on_c, 2, 67, 95
3, 291840, Note_on_c, 2, 64, 95
3, 291840, Note_on_c, 2, 60, 95
3, 299520, Note_off_c, 2, 70, 95
3, 299520, Note_off_c, 2, 67, 95
3, 299520, Note_off_c, 2, 64, 95
3, 299520, Note_off_c, 2, 60, 95
3, 299520, Note_on_c, 2, 68, 95
3, 299520, Note_on_c, 2, 65, 95
3, 299520, Note_on_c, 2, 63, 95
3, 299520, Note_on_c, 2, 60, 95
3, 303360, Note_off_c, 2, 68, 95
3, 303360, Note_off_c, 2, 65, 95
3, 303360, Note_off_c, 2, 63, 95
3, 303360, Note_off_c, 2, 60, 95
3, 303360, Note_on_c, 2, 68, 95
3, 303360, Note_on_c, 2, 65, 95
3, 303360, Note_on_c, 2, 61, 95
3, 307200, Note_off_c, 2, 68, 95
3, 307200, Note_off_c, 2, 65, 95
3, 307200, Note_off_c, 2, 61, 95
3, 307200, Note_on_c, 2, 67, 95
3, 307200, Note_on_c, 2, 63, 95
3, 307200, Note_on_c, 2, 58, 95
3, 309120, Note_off_c, 2, 67, 95
3, 309120, Note_off_c, 2, 63, 95
3, 309120, Note_off_c, 2, 58, 95
3, 309120, Note_on_c, 2, 65, 95
3, 309120, Note_on_c, 2, 62, 95
3, 309120, Note_on_c, 2, 58, 95
3, 309120, Note_on_c, 2, 55, 95
3, 311040, Note_off_c, 2, 65, 95
3, 311040, Note_off_c, 2, 62, 95
3, 311040, Note_off_c, 2, 58, 95
3, 311040, Note_off_c, 2, 55, 95
3, 311040, Note_on_c, 2, 63, 95
3, 311040, Note_on_c, 2, 60, 95
3, 311040, Note_on_c, 2, 56, 95
3, 311040, Note_on_c, 2, 53, 95
3, 313440, Note_off_c, 2, 63, 95
3, 313440, Note_off_c, 2, 60, 95
3, 313440, Note_off_c, 2, 56, 95
3, 313440, Note_off_c, 2, 53, 95
3, 313440, Note_on_c, 2, 65, 95
3, 314880, Note_off_c, 2, 65, 95
3, 314880, Note_on_c, 2, 67, 95
3, 314880, Note_on_c, 2, 63, 95
3, 314880, Note_on_c, 2, 60, 95
3, 314880, Note_on_c, 2, 56, 95
3, 317280, Note_off_c, 2, 67, 95
3, 317280, Note_off_c, 2, 63, 95
3, 317280, Note_off_c, 2, 60, 95
3, 317280, Note_off_c, 2, 56, 95
3, 317280, Note_on_c, 2, 70, 95
3, 318720, Note_off_c, 2, 70, 95
3, 318720, Note_on_c, 2, 67, 95
3, 318720, Note_on_c, 2, 63, 95
3, 318720, Note_on_c, 2, 58, 95
3, 322560, Note_off_c, 2, 67, 95
3, 322560, Note_off_c, 2, 63, 95
3, 322560, Note_off_c, 2, 58, 95
3, 322560, Note_on_c, 2, 67, 95
3, 322560, Note_on_c, 2, 63, 95
3, 322560, Note_on_c, 2, 62, 95
3, 322560, Note_on_c, 2, 58, 95
3, 326400, Note_off_c, 2, 67, 95
3, 326400, Note_off_c, 2, 63, 95
3, 326400, Note_off_c, 2, 62, 95
3, 326400, Note_off_c, 2, 58, 95
3, 326400, Note_on_c, 2, 67, 95
3, 326400, Note_on_c, 2, 63, 95
3, 326400, Note_on_c, 2, 60, 95
3, 326400, Note_on_c, 2, 56, 95
3, 330240, Note_off_c, 2, 67, 95
3, 330240, Note_off_c, 2, 63, 95
3, 330240, Note_off_c, 2, 60, 95
3, 330240, Note_off_c, 2, 56, 95
3, 330240, Note_on_c, 2, 83, 95
3, 330240, Note_on_c, 2, 80, 95
3, 330240, Note_on_c, 2, 77, 95
3, 334080, Note_off_c, 2, 83, 95
3, 334080, Note_off_c, 2, 80, 95
3, 334080, Note_off_c, 2, 77, 95
3, 334080, Note_on_c, 2, 70, 95
3, 334080, Note_on_c, 2, 67, 95
3, 334080, Note_on_c, 2, 63, 95
3, 337920, Note_off_c, 2, 70, 95
3, 337920, Note_off_c, 2, 67, 95
3, 337920, Note_off_c, 2, 63, 95
3, 337920, Note_on_c, 2, 70, 95
3, 337920, Note_on_c, 2, 65, 95
3, 337920, Note_on_c, 2, 61, 95
3, 341760, Note_off_c, 2, 70, 95
3, 341760, Note_off_c, 2, 65, 95
3, 341760, Note_off_c, 2, 61, 95
3, 341760, Note_on_c, 2, 70, 95
3, 341760, Note_on_c, 2, 67, 95
3, 341760, Note_on_c, 2, 64, 95
3, 341760, Note_on_c, 2, 60, 95
3, 349440, Note_off_c, 2, 70, 95
3, 349440, Note_off_c, 2, 67, 95
3, 349440, Note_off_c, 2, 64, 95
3, 349440, Note_off_c, 2, 60, 95
3, 349440, Note_on_c, 2, 68, 95
3, 349440, Note_on_c, 2, 65, 95
3, 349440, Note_on_c, 2, 63, 95
3, 349440, Note_on_c, 2, 60, 95
3, 353280, Note_off_c, 2, 68, 95
3, 353280, Note_off_c, 2, 65, 95
3, 353280, Note_off_c, 2, 63, 95
3, 353280, Note_off_c, 2, 60, 95
3, 353280, Note_on_c, 2, 68, 95
3, 353280, Note_on_c, 2, 65, 95
3, 353280, Note_on_c, 2, 61, 95
3, 357120, Note_off_c, 2, 68, 95
3, 357120, Note_off_c, 2, 65, 95
3, 357120, Note_off_c, 2, 61, 95
3, 357120, Note_on_c, 2, 67, 95
3, 357120, Note_on_c, 2, 63, 95
3, 357120, Note_on_c, 2, 58, 95
3, 359040, Note_off_c, 2, 67, 95
3, 359040, Note_off_c, 2, 63, 95
3, 359040, Note_off_c, 2, 58, 95
3, 359040, Note_on_c, 2, 65, 95
3, 359040, Note_on_c, 2, 62, 95
3, 359040, Note_on_c, 2, 58, 95
3, 359040, Note_on_c, 2, 55, 95
3, 360960, Note_off_c, 2, 65, 95
3, 360960, Note_off_c, 2, 62, 95
3, 360960, Note_off_c, 2, 58, 95
3, 360960, Note_off_c, 2, 55, 95
3, 360960, Note_on_c, 2, 63, 95
3, 360960, Note_on_c, 2, 60, 95
3, 360960, Note_on_c, 2, 56, 95
3, 360960, Note_on_c, 2, 53, 95
3, 363360, Note_off_c, 2, 63, 95
3, 363360, Note_off_c, 2, 60, 95
3, 363360, Note_off_c, 2, 56, 95
3, 363360, Note_off_c, 2, 53, 95
3, 363360, Note_on_c, 2, 65, 95
3, 364800, Note_off_c, 2, 65, 95
3, 364800, Note_on_c, 2, 67, 95
3, 364800, Note_on_c, 2, 63, 95
3, 364800, Note_on_c, 2, 60, 95
3, 364800, Note_on_c, 2, 56, 95
3, 367200, Note_off_c, 2, 67, 95
3, 367200, Note_off_c, 2, 63, 95
3, 367200, Note_off_c, 2, 60, 95
3, 367200, Note_off_c, 2, 56, 95
3, 367200, Note_on_c, 2, 70, 95
3, 368640, Note_off_c, 2, 70, 95
3, 368640, End_track
4, 0, Start_track
4, 0, Pitch_bend_c, 4, 8192
4, 0, Control_c, 4, 7, 103
4, 0, Control_c, 4, 10, 7
4, 0, Control_c, 4, 93, 127
4, 0, Control_c, 4, 91, 71
4, 0, Control_c, 4, 95, 0
4, 0, Control_c, 4, 92, 0
4, 0, Control_c, 4, 11, 127
4, 0, Program_c, 4, 52
4, 0, Control_c, 5, 7, 103
4, 0, Control_c, 5, 10, 7
4, 0, Control_c, 5, 93, 127
4, 0, Control_c, 5, 91, 71
4, 0, Control_c, 5, 95, 0
4, 0, Control_c, 5, 92, 0
4, 0, Control_c, 5, 11, 127
4, 0, Program_c, 5, 52
4, 6240, Note_on_c, 4, 70, 95
4, 23040, Note_off_c, 4, 70, 95
4, 23040, Note_on_c, 4, 70, 95
4, 26880, Note_off_c, 4, 70, 95
4, 83520, Note_on_c, 4, 58, 95
4, 84000, Note_off_c, 4, 58, 95
4, 84000, Note_on_c, 4, 58, 95
4, 84960, Note_off_c, 4, 58, 95
4, 84960, Note_on_c, 4, 58, 95
4, 85440, Note_off_c, 4, 58, 95
4, 85440, Note_on_c, 4, 63, 95
4, 85920, Note_off_c, 4, 63, 95
4, 85920, Note_on_c, 4, 62, 95
4, 86880, Note_off_c, 4, 62, 95
4, 86880, Note_on_c, 4, 60, 95
4, 87840, Note_off_c, 4, 60, 95
4, 87840, Note_on_c, 4, 58, 95
4, 88800, Note_off_c, 4, 58, 95
4, 88800, Note_on_c, 4, 63, 95
4, 89760, Note_off_c, 4, 63, 95
4, 89760, Note_on_c, 4, 62, 95
4, 90720, Note_off_c, 4, 62, 95
4, 90720, Note_on_c, 4, 60, 95
4, 92160, Note_off_c, 4, 60, 95
4, 92160, Note_on_c, 4, 58, 95
4, 92640, Note_off_c, 4, 58, 95
4, 92640, Note_on_c, 4, 60, 95
4, 93120, Note_off_c, 4, 60, 95
4, 93120, Note_on_c, 4, 63, 95
4, 93600, Note_off_c, 4, 63, 95
4, 93600, Note_on_c, 4, 67, 95
4, 95040, Note_off_c, 4, 67, 95
4, 95040, Note_on_c, 4, 68, 95
4, 95520, Note_off_c, 4, 68, 95
4, 95520, Note_on_c, 4, 67, 95
4, 96000, Note_off_c, 4, 67, 95
4, 96000, Note_on_c, 4, 65, 95
4, 97920, Note_off_c, 4, 65, 95
4, 97920, Note_on_c, 4, 67, 95
4, 98880, Note_off_c, 4, 67, 95
4, 98880, Note_on_c, 4, 68, 95
4, 99840, Note_off_c, 4, 68, 95
4, 99840, Note_on_c, 4, 70, 95
4, 100320, Note_off_c, 4, 70, 95
4, 100320, Note_on_c, 4, 70, 95
4, 100800, Note_off_c, 4, 70, 95
4, 100800, Note_on_c, 4, 70, 95
4, 101280, Note_off_c, 4, 70, 95
4, 101280, Note_on_c, 4, 70, 95
4, 101760, Note_off_c, 4, 70, 95
4, 101760, Note_on_c, 4, 70, 95
4, 102240, Note_off_c, 4, 70, 95
4, 102240, Note_on_c, 4, 72, 95
4, 103200, Note_off_c, 4, 72, 95
4, 103200, Note_on_c, 4, 70, 95
4, 104640, Note_off_c, 4, 70, 95
4, 105600, Note_on_c, 4, 70, 95
4, 106320, Note_off_c, 4, 70, 95
4, 106320, Note_on_c, 4, 72, 95
4, 107040, Note_off_c, 4, 72, 95
4, 107040, Note_on_c, 4, 73, 95
4, 107520, Note_off_c, 4, 73, 95
4, 107520, Note_on_c, 4, 70, 95
4, 108480, Note_off_c, 4, 70, 95
4, 109920, Note_on_c, 4, 70, 95
4, 110400, Note_off_c, 4, 70, 95
4, 110400, Note_on_c, 4, 72, 95
4, 110880, Note_off_c, 4, 72, 95
4, 110880, Note_on_c, 4, 73, 95
4, 112320, Note_off_c, 4, 73, 95
4, 112320, Note_on_c, 4, 73, 95
4, 113280, Note_off_c, 4, 73, 95
4, 113280, Note_on_c, 4, 72, 95
4, 113760, Note_off_c, 4, 72, 95
4, 113760, Note_on_c, 4, 70, 95
4, 114720, Note_off_c, 4, 70, 95
4, 114720, Note_on_c, 4, 72, 95
4, 114960, Note_off_c, 4, 72, 95
4, 114960, Note_on_c, 4, 70, 70
4, 115200, Note_off_c, 4, 70, 70
4, 115200, Note_on_c, 4, 68, 70
4, 116160, Note_off_c, 4, 68, 70
4, 117600, Note_on_c, 4, 68, 95
4, 118080, Note_off_c, 4, 68, 95
4, 118080, Note_on_c, 4, 70, 95
4, 118560, Note_off_c, 4, 70, 95
4, 118560, Note_on_c, 4, 71, 95
4, 120000, Note_off_c, 4, 71, 95
4, 120000, Note_on_c, 4, 71, 95
4, 120480, Note_off_c, 4, 71, 95
4, 120480, Note_on_c, 4, 70, 95
4, 121440, Note_off_c, 4, 70, 95
4, 121440, Note_on_c, 4, 68, 95
4, 122400, Note_off_c, 4, 68, 95
4, 122400, Note_on_c, 4, 67, 95
4, 122880, Note_off_c, 4, 67, 95
4, 175680, Note_on_c, 4, 58, 95
4, 176160, Note_off_c, 4, 58, 95
4, 176160, Note_on_c, 4, 58, 95
4, 177120, Note_off_c, 4, 58, 95
4, 177120, Note_on_c, 4, 58, 95
4, 177600, Note_off_c, 4, 58, 95
4, 177600, Note_on_c, 4, 63, 95
4, 178080, Note_off_c, 4, 63, 95
4, 178080, Note_on_c, 4, 62, 95
4, 179040, Note_off_c, 4, 62, 95
4, 179040, Note_on_c, 4, 60, 95
4, 180000, Note_off_c, 4, 60, 95
4, 180000, Note_on_c, 4, 58, 95
4, 180960, Note_off_c, 4, 58, 95
4, 180960, Note_on_c, 4, 63, 95
4, 181920, Note_off_c, 4, 63, 95
4, 181920, Note_on_c, 4, 62, 95
4, 182880, Note_off_c, 4, 62, 95
4, 182880, Note_on_c, 4, 60, 95
4, 184320, Note_off_c, 4, 60, 95
4, 184320, Note_on_c, 4, 58, 95
4, 184800, Note_off_c, 4, 58, 95
4, 184800, Note_on_c, 4, 60, 95
4, 185280, Note_off_c, 4, 60, 95
4, 185280, Note_on_c, 4, 63, 95
4, 185760, Note_off_c, 4, 63, 95
4, 185760, Note_on_c, 4, 67, 95
4, 187200, Note_off_c, 4, 67, 95
4, 187200, Note_on_c, 4, 68, 95
4, 187680, Note_off_c, 4, 68, 95
4, 187680, Note_on_c, 4, 67, 95
4, 188160, Note_off_c, 4, 67, 95
4, 188160, Note_on_c, 4, 65, 95
4, 190080, Note_off_c, 4, 65, 95
4, 190080, Note_on_c, 4, 67, 95
4, 191040, Note_off_c, 4, 67, 95
4, 191040, Note_on_c, 4, 68, 95
4, 192000, Note_off_c, 4, 68, 95
4, 192000, Note_on_c, 4, 70, 95
4, 192480, Note_off_c, 4, 70, 95
4, 192480, Note_on_c, 4, 70, 95
4, 192960, Note_off_c, 4, 70, 95
4, 192960, Note_on_c, 4, 70, 95
4, 193440, Note_off_c, 4, 70, 95
4, 193440, Note_on_c, 4, 70, 95
4, 193920, Note_off_c, 4, 70, 95
4, 193920, Note_on_c, 4, 70, 95
4, 194400, Note_off_c, 4, 70, 95
4, 194400, Note_on_c, 4, 72, 95
4, 195360, Note_off_c, 4, 72, 95
4, 195360, Note_on_c, 4, 70, 95
4, 196800, Note_off_c, 4, 70, 95
4, 197760, Note_on_c, 4, 70, 95
4, 198480, Note_off_c, 4, 70, 95
4, 198480, Note_on_c, 4, 72, 95
4, 199200, Note_off_c, 4, 72, 95
4, 199200, Note_on_c, 4, 73, 95
4, 199680, Note_off_c, 4, 73, 95
4, 199680, Note_on_c, 4, 70, 95
4, 200640, Note_off_c, 4, 70, 95
4, 202080, Note_on_c, 4, 70, 95
4, 202560, Note_off_c, 4, 70, 95
4, 202560, Note_on_c, 4, 72, 95
4, 203040, Note_off_c, 4, 72, 95
4, 203040, Note_on_c, 4, 73, 95
4, 204480, Note_off_c, 4, 73, 95
4, 204480, Note_on_c, 4, 73, 95
4, 205440, Note_off_c, 4, 73, 95
4, 205440, Note_on_c, 4, 72, 95
4, 205920, Note_off_c, 4, 72, 95
4, 205920, Note_on_c, 4, 70, 95
4, 206880, Note_off_c, 4, 70, 95
4, 206880, Note_on_c, 4, 72, 95
4, 207120, Note_off_c, 4, 72, 95
4, 207120, Note_on_c, 4, 70, 70
4, 207360, Note_off_c, 4, 70, 70
4, 207360, Note_on_c, 4, 68, 70
4, 208320, Note_off_c, 4, 68, 70
4, 209760, Note_on_c, 4, 68, 95
4, 210240, Note_off_c, 4, 68, 95
4, 210240, Note_on_c, 4, 70, 95
4, 210720, Note_off_c, 4, 70, 95
4, 210720, Note_on_c, 4, 71, 95
4, 212160, Note_off_c, 4, 71, 95
4, 212160, Note_on_c, 4, 71, 95
4, 212640, Note_off_c, 4, 71, 95
4, 212640, Note_on_c, 4, 70, 95
4, 213600, Note_off_c, 4, 70, 95
4, 213600, Note_on_c, 4, 68, 95
4, 214560, Note_off_c, 4, 68, 95
4, 214560, Note_on_c, 4, 67, 95
4, 215040, Note_off_c, 4, 67, 95
4, 266400, Note_on_c, 4, 70, 95
4, 266880, Note_off_c, 4, 70, 95
4, 266880, Note_on_c, 4, 70, 95
4, 267360, Note_off_c, 4, 70, 95
4, 267360, Note_on_c, 4, 70, 95
4, 267840, Note_off_c, 4, 70, 95
4, 267840, Note_on_c, 4, 70, 95
4, 268320, Note_off_c, 4, 70, 95
4, 268320, Note_on_c, 4, 70, 95
4, 268800, Note_off_c, 4, 70, 95
4, 313440, Note_on_c, 4, 70, 95
4, 318720, Note_off_c, 4, 70, 95
4, 363360, Note_on_c, 4, 70, 95
4, 368640, Note_off_c, 4, 70, 95
4, 368640, End_track
5, 0, Start_track
5, 0, Pitch_bend_c, 6, 8192
5, 0, Control_c, 6, 7, 103
5, 0, Control_c, 6, 10, 23
5, 0, Control_c, 6, 93, 127
5, 0, Control_c, 6, 91, 63
5, 0, Control_c, 6, 95, 0
5, 0, Control_c, 6, 92, 0
5, 0, Control_c, 6, 11, 127
5, 0, Program_c, 6, 54
5, 0, Control_c, 7, 7, 103
5, 0, Control_c, 7, 10, 23
5, 0, Control_c, 7, 93, 127
5, 0, Control_c, 7, 91, 63
5, 0, Control_c, 7, 95, 0
5, 0, Control_c, 7, 92, 0
5, 0, Control_c, 7, 11, 127
5, 0, Program_c, 7, 54
5, 6240, Note_on_c, 6, 67, 95
5, 23040, Note_off_c, 6, 67, 95
5, 23040, Note_on_c, 6, 67, 95
5, 26880, Note_off_c, 6, 67, 95
5, 99840, Note_on_c, 6, 67, 95
5, 100320, Note_off_c, 6, 67, 95
5, 100320, Note_on_c, 6, 67, 95
5, 100800, Note_off_c, 6, 67, 95
5, 100800, Note_on_c, 6, 67, 95
5, 101280, Note_off_c, 6, 67, 95
5, 101280, Note_on_c, 6, 67, 95
5, 101760, Note_off_c, 6, 67, 95
5, 101760, Note_on_c, 6, 67, 95
5, 102240, Note_off_c, 6, 67, 95
5, 102240, Note_on_c, 6, 68, 95
5, 103200, Note_off_c, 6, 68, 95
5, 103200, Note_on_c, 6, 67, 95
5, 104640, Note_off_c, 6, 67, 95
5, 105600, Note_on_c, 6, 67, 95
5, 106320, Note_off_c, 6, 67, 95
5, 106320, Note_on_c, 6, 68, 95
5, 107040, Note_off_c, 6, 68, 95
5, 107040, Note_on_c, 6, 68, 95
5, 107520, Note_off_c, 6, 68, 95
5, 107520, Note_on_c, 6, 67, 95
5, 108480, Note_off_c, 6, 67, 95
5, 109920, Note_on_c, 6, 67, 95
5, 110400, Note_off_c, 6, 67, 95
5, 110400, Note_on_c, 6, 68, 95
5, 110880, Note_off_c, 6, 68, 95
5, 110880, Note_on_c, 6, 70, 95
5, 112320, Note_off_c, 6, 70, 95
5, 112320, Note_on_c, 6, 70, 95
5, 113280, Note_off_c, 6, 70, 95
5, 113280, Note_on_c, 6, 68, 95
5, 113760, Note_off_c, 6, 68, 95
5, 113760, Note_on_c, 6, 67, 95
5, 114720, Note_off_c, 6, 67, 95
5, 114720, Note_on_c, 6, 68, 95
5, 114960, Note_off_c, 6, 68, 95
5, 114960, Note_on_c, 6, 67, 70
5, 115200, Note_off_c, 6, 67, 70
5, 115200, Note_on_c, 6, 65, 70
5, 116160, Note_off_c, 6, 65, 70
5, 117600, Note_on_c, 6, 65, 95
5, 118080, Note_off_c, 6, 65, 95
5, 118080, Note_on_c, 6, 67, 95
5, 118560, Note_off_c, 6, 67, 95
5, 118560, Note_on_c, 6, 68, 95
5, 120000, Note_off_c, 6, 68, 95
5, 120000, Note_on_c, 6, 68, 95
5, 120480, Note_off_c, 6, 68, 95
5, 120480, Note_on_c, 6, 67, 95
5, 121440, Note_off_c, 6, 67, 95
5, 121440, Note_on_c, 6, 65, 95
5, 122400, Note_off_c, 6, 65, 95
5, 122400, Note_on_c, 6, 63, 95
5, 122880, Note_off_c, 6, 63, 95
5, 192000, Note_on_c, 6, 67, 95
5, 192480, Note_off_c, 6, 67, 95
5, 192480, Note_on_c, 6, 67, 95
5, 192960, Note_off_c, 6, 67, 95
5, 192960, Note_on_c, 6, 67, 95
5, 193440, Note_off_c, 6, 67, 95
5, 193440, Note_on_c, 6, 67, 95
5, 193920, Note_off_c, 6, 67, 95
5, 193920, Note_on_c, 6, 67, 95
5, 194400, Note_off_c, 6, 67, 95
5, 194400, Note_on_c, 6, 68, 95
5, 195360, Note_off_c, 6, 68, 95
5, 195360, Note_on_c, 6, 67, 95
5, 196800, Note_off_c, 6, 67, 95
5, 197760, Note_on_c, 6, 67, 95
5, 198480, Note_off_c, 6, 67, 95
5, 198480, Note_on_c, 6, 68, 95
5, 199200, Note_off_c, 6, 68, 95
5, 199200, Note_on_c, 6, 68, 95
5, 199680, Note_off_c, 6, 68, 95
5, 199680, Note_on_c, 6, 67, 95
5, 200640, Note_off_c, 6, 67, 95
5, 202080, Note_on_c, 6, 67, 95
5, 202560, Note_off_c, 6, 67, 95
5, 202560, Note_on_c, 6, 68, 95
5, 203040, Note_off_c, 6, 68, 95
5, 203040, Note_on_c, 6, 70, 95
5, 204480, Note_off_c, 6, 70, 95
5, 204480, Note_on_c, 6, 70, 95
5, 205440, Note_off_c, 6, 70, 95
5, 205440, Note_on_c, 6, 68, 95
5, 205920, Note_off_c, 6, 68, 95
5, 205920, Note_on_c, 6, 67, 95
5, 206880, Note_off_c, 6, 67, 95
5, 206880, Note_on_c, 6, 68, 95
5, 207120, Note_off_c, 6, 68, 95
5, 207120, Note_on_c, 6, 67, 70
5, 207360, Note_off_c, 6, 67, 70
5, 207360, Note_on_c, 6, 65, 70
5, 208320, Note_off_c, 6, 65, 70
5, 209760, Note_on_c, 6, 65, 95
5, 210240, Note_off_c, 6, 65, 95
5, 210240, Note_on_c, 6, 67, 95
5, 210720, Note_off_c, 6, 67, 95
5, 210720, Note_on_c, 6, 68, 95
5, 212160, Note_off_c, 6, 68, 95
5, 212160, Note_on_c, 6, 68, 95
5, 212640, Note_off_c, 6, 68, 95
5, 212640, Note_on_c, 6, 67, 95
5, 213600, Note_off_c, 6, 67, 95
5, 213600, Note_on_c, 6, 65, 95
5, 214560, Note_off_c, 6, 65, 95
5, 214560, Note_on_c, 6, 63, 95
5, 215040, Note_off_c, 6, 63, 95
5, 216000, Note_on_c, 6, 55, 95
5, 216480, Note_off_c, 6, 55, 95
5, 216480, Note_on_c, 6, 51, 95
5, 216960, Note_off_c, 6, 51, 95
5, 216960, Note_on_c, 6, 53, 95
5, 217920, Note_off_c, 6, 53, 95
5, 217920, Note_on_c, 6, 55, 95
5, 218400, Note_off_c, 6, 55, 95
5, 218400, Note_on_c, 6, 53, 95
5, 218880, Note_off_c, 6, 53, 95
5, 218880, Note_on_c, 6, 51, 70
5, 219840, Note_off_c, 6, 51, 70
5, 220800, Note_on_c, 6, 52, 95
5, 221280, Note_off_c, 6, 52, 95
5, 221280, Note_on_c, 6, 53, 95
5, 221760, Note_off_c, 6, 53, 95
5, 221760, Note_on_c, 6, 55, 95
5, 222240, Note_off_c, 6, 55, 95
5, 222240, Note_on_c, 6, 56, 95
5, 223200, Note_off_c, 6, 56, 95
5, 223200, Note_on_c, 6, 56, 95
5, 223680, Note_off_c, 6, 56, 95
5, 223680, Note_on_c, 6, 56, 95
5, 224160, Note_off_c, 6, 56, 95
5, 224160, Note_on_c, 6, 48, 95
5, 224640, Note_off_c, 6, 48, 95
5, 224640, Note_on_c, 6, 55, 95
5, 225600, Note_off_c, 6, 55, 95
5, 225600, Note_on_c, 6, 56, 95
5, 226080, Note_off_c, 6, 56, 95
5, 226080, Note_on_c, 6, 55, 95
5, 226560, Note_off_c, 6, 55, 95
5, 226560, Note_on_c, 6, 53, 70
5, 227520, Note_off_c, 6, 53, 70
5, 228960, Note_on_c, 6, 55, 95
5, 229440, Note_off_c, 6, 55, 95
5, 229440, Note_on_c, 6, 56, 95
5, 229920, Note_off_c, 6, 56, 95
5, 229920, Note_on_c, 6, 58, 95
5, 230880, Note_off_c, 6, 58, 95
5, 230880, Note_on_c, 6, 58, 95
5, 231360, Note_off_c, 6, 58, 95
5, 231360, Note_on_c, 6, 58, 95
5, 231840, Note_off_c, 6, 58, 95
5, 231840, Note_on_c, 6, 55, 95
5, 232320, Note_off_c, 6, 55, 95
5, 232320, Note_on_c, 6, 58, 95
5, 232800, Note_off_c, 6, 58, 95
5, 232800, Note_on_c, 6, 60, 95
5, 233760, Note_off_c, 6, 60, 95
5, 233760, Note_on_c, 6, 58, 95
5, 234720, Note_off_c, 6, 58, 95
5, 234720, Note_on_c, 6, 55, 95
5, 235200, Note_off_c, 6, 55, 95
5, 235200, Note_on_c, 6, 53, 95
5, 235680, Note_off_c, 6, 53, 95
5, 235680, Note_on_c, 6, 55, 95
5, 235920, Note_off_c, 6, 55, 95
5, 235920, Note_on_c, 6, 53, 95
5, 236160, Note_off_c, 6, 53, 95
5, 236640, Note_on_c, 6, 51, 95
5, 237120, Note_off_c, 6, 51, 95
5, 237120, Note_on_c, 6, 53, 95
5, 237600, Note_off_c, 6, 53, 95
5, 237600, Note_on_c, 6, 55, 95
5, 238080, Note_off_c, 6, 55, 95
5, 238080, Note_on_c, 6, 56, 95
5, 238560, Note_off_c, 6, 56, 95
5, 238560, Note_on_c, 6, 56, 95
5, 239040, Note_off_c, 6, 56, 95
5, 239040, Note_on_c, 6, 56, 95
5, 239520, Note_off_c, 6, 56, 95
5, 239520, Note_on_c, 6, 56, 95
5, 240000, Note_off_c, 6, 56, 95
5, 240000, Note_on_c, 6, 58, 95
5, 240960, Note_off_c, 6, 58, 95
5, 240960, Note_on_c, 6, 55, 95
5, 241440, Note_off_c, 6, 55, 95
5, 241440, Note_on_c, 6, 55, 95
5, 241920, Note_off_c, 6, 55, 95
5, 241920, Note_on_c, 6, 53, 70
5, 242880, Note_off_c, 6, 53, 70
5, 266400, Note_on_c, 6, 67, 95
5, 266880, Note_off_c, 6, 67, 95
5, 266880, Note_on_c, 6, 67, 95
5, 267360, Note_off_c, 6, 67, 95
5, 267360, Note_on_c, 6, 67, 95
5, 267840, Note_off_c, 6, 67, 95
5, 267840, Note_on_c, 6, 67, 95
5, 268320, Note_off_c, 6, 67, 95
5, 268320, Note_on_c, 6, 67, 95
5, 268800, Note_off_c, 6, 67, 95
5, 284160, Note_on_c, 6, 67, 95
5, 284640, Note_off_c, 6, 67, 95
5, 284640, Note_on_c, 6, 67, 95
5, 285120, Note_off_c, 6, 67, 95
5, 285120, Note_on_c, 6, 67, 95
5, 285600, Note_off_c, 6, 67, 95
5, 285600, Note_on_c, 6, 67, 95
5, 286080, Note_off_c, 6, 67, 95
5, 286080, Note_on_c, 6, 67, 95
5, 286560, Note_off_c, 6, 67, 95
5, 286560, Note_on_c, 6, 68, 95
5, 287520, Note_off_c, 6, 68, 95
5, 287520, Note_on_c, 6, 67, 95
5, 288960, Note_off_c, 6, 67, 95
5, 289920, Note_on_c, 6, 67, 95
5, 290640, Note_off_c, 6, 67, 95
5, 290640, Note_on_c, 6, 68, 95
5, 291360, Note_off_c, 6, 68, 95
5, 291360, Note_on_c, 6, 68, 95
5, 291840, Note_off_c, 6, 68, 95
5, 291840, Note_on_c, 6, 67, 95
5, 292800, Note_off_c, 6, 67, 95
5, 294240, Note_on_c, 6, 67, 95
5, 294720, Note_off_c, 6, 67, 95
5, 294720, Note_on_c, 6, 68, 95
5, 295200, Note_off_c, 6, 68, 95
5, 295200, Note_on_c, 6, 70, 95
5, 296640, Note_off_c, 6, 70, 95
5, 296640, Note_on_c, 6, 70, 95
5, 297600, Note_off_c, 6, 70, 95
5, 297600, Note_on_c, 6, 68, 95
5, 298080, Note_off_c, 6, 68, 95
5, 298080, Note_on_c, 6, 67, 95
5, 299040, Note_off_c, 6, 67, 95
5, 299040, Note_on_c, 6, 68, 95
5, 299280, Note_off_c, 6, 68, 95
5, 299280, Note_on_c, 6, 67, 70
5, 299520, Note_off_c, 6, 67, 70
5, 299520, Note_on_c, 6, 65, 70
5, 300480, Note_off_c, 6, 65, 70
5, 301920, Note_on_c, 6, 65, 95
5, 302400, Note_off_c, 6, 65, 95
5, 302400, Note_on_c, 6, 67, 95
5, 302880, Note_off_c, 6, 67, 95
5, 302880, Note_on_c, 6, 68, 95
5, 304320, Note_off_c, 6, 68, 95
5, 304320, Note_on_c, 6, 68, 95
5, 304800, Note_off_c, 6, 68, 95
5, 304800, Note_on_c, 6, 67, 95
5, 305760, Note_off_c, 6, 67, 95
5, 305760, Note_on_c, 6, 65, 95
5, 306720, Note_off_c, 6, 65, 95
5, 306720, Note_on_c, 6, 63, 95
5, 308160, Note_off_c, 6, 63, 95
5, 334080, Note_on_c, 6, 67, 95
5, 334560, Note_off_c, 6, 67, 95
5, 334560, Note_on_c, 6, 67, 95
5, 335040, Note_off_c, 6, 67, 95
5, 335040, Note_on_c, 6, 67, 95
5, 335520, Note_off_c, 6, 67, 95
5, 335520, Note_on_c, 6, 67, 95
5, 336000, Note_off_c, 6, 67, 95
5, 336000, Note_on_c, 6, 67, 95
5, 336480, Note_off_c, 6, 67, 95
5, 336480, Note_on_c, 6, 68, 95
5, 337440, Note_off_c, 6, 68, 95
5, 337440, Note_on_c, 6, 67, 95
5, 338880, Note_off_c, 6, 67, 95
5, 339840, Note_on_c, 6, 67, 95
5, 340560, Note_off_c, 6, 67, 95
5, 340560, Note_on_c, 6, 68, 95
5, 341280, Note_off_c, 6, 68, 95
5, 341280, Note_on_c, 6, 68, 95
5, 341760, Note_off_c, 6, 68, 95
5, 341760, Note_on_c, 6, 67, 95
5, 342720, Note_off_c, 6, 67, 95
5, 344160, Note_on_c, 6, 67, 95
5, 344640, Note_off_c, 6, 67, 95
5, 344640, Note_on_c, 6, 68, 95
5, 345120, Note_off_c, 6, 68, 95
5, 345120, Note_on_c, 6, 70, 95
5, 346560, Note_off_c, 6, 70, 95
5, 346560, Note_on_c, 6, 70, 95
5, 347520, Note_off_c, 6, 70, 95
5, 347520, Note_on_c, 6, 68, 95
5, 348000, Note_off_c, 6, 68, 95
5, 348000, Note_on_c, 6, 67, 95
5, 348960, Note_off_c, 6, 67, 95
5, 348960, Note_on_c, 6, 68, 95
5, 349200, Note_off_c, 6, 68, 95
5, 349200, Note_on_c, 6, 67, 70
5, 349440, Note_off_c, 6, 67, 70
5, 349440, Note_on_c, 6, 65, 70
5, 350400, Note_off_c, 6, 65, 70
5, 351840, Note_on_c, 6, 65, 95
5, 352320, Note_off_c, 6, 65, 95
5, 352320, Note_on_c, 6, 67, 95
5, 352800, Note_off_c, 6, 67, 95
5, 352800, Note_on_c, 6, 68, 95
5, 354240, Note_off_c, 6, 68, 95
5, 354240, Note_on_c, 6, 68, 95
5, 354720, Note_off_c, 6, 68, 95
5, 354720, Note_on_c, 6, 67, 95
5, 355680, Note_off_c, 6, 67, 95
5, 355680, Note_on_c, 6, 65, 95
5, 356640, Note_off_c, 6, 65, 95
5, 356640, Note_on_c, 6, 63, 95
5, 358080, Note_off_c, 6, 63, 95
5, 358080, End_track
6, 0, Start_track
6, 0, Pitch_bend_c, 8, 8192
6, 0, Control_c, 8, 7, 79
6, 0, Control_c, 8, 10, 63
6, 0, Control_c, 8, 93, 0
6, 0, Control_c, 8, 91, 0
6, 0, Control_c, 8, 95, 0
6, 0, Control_c, 8, 92, 0
6, 0, Control_c, 8, 11, 127
6, 0, Program_c, 8, 26
6, 0, Control_c, 10, 7, 79
6, 0, Control_c, 10, 10, 63
6, 0, Control_c, 10, 93, 0
6, 0, Control_c, 10, 91, 0
6, 0, Control_c, 10, 95, 0
6, 0, Control_c, 10, 92, 0
6, 0, Control_c, 10, 11, 127
6, 0, Program_c, 10, 26
6, 16320, Note_on_c, 8, 75, 95
6, 16320, Note_on_c, 8, 70, 95
6, 16320, Note_on_c, 8, 67, 95
6, 16320, Note_on_c, 8, 63, 95
6, 17280, Note_off_c, 8, 75, 95
6, 17280, Note_off_c, 8, 70, 95
6, 17280, Note_off_c, 8, 67, 95
6, 17280, Note_off_c, 8, 63, 95
6, 20160, Note_on_c, 8, 74, 95
6, 20160, Note_on_c, 8, 70, 95
6, 20160, Note_on_c, 8, 67, 95
6, 20160, Note_on_c, 8, 63, 95
6, 21120, Note_off_c, 8, 74, 95
6, 21120, Note_off_c, 8, 70, 95
6, 21120, Note_off_c, 8, 67, 95
6, 21120, Note_off_c, 8, 63, 95
6, 24000, Note_on_c, 8, 72, 95
6, 24000, Note_on_c, 8, 67, 95
6, 24000, Note_on_c, 8, 63, 95
6, 24000, Note_on_c, 8, 56, 95
6, 24960, Note_off_c, 8, 72, 95
6, 24960, Note_off_c, 8, 67, 95
6, 24960, Note_off_c, 8, 63, 95
6, 24960, Note_off_c, 8, 56, 95
6, 31680, Note_on_c, 8, 75, 95
6, 31680, Note_on_c, 8, 70, 95
6, 31680, Note_on_c, 8, 67, 95
6, 31680, Note_on_c, 8, 63, 95
6, 32640, Note_off_c, 8, 75, 95
6, 32640, Note_off_c, 8, 70, 95
6, 32640, Note_off_c, 8, 67, 95
6, 32640, Note_off_c, 8, 63, 95
6, 35520, Note_on_c, 8, 72, 95
6, 35520, Note_on_c, 8, 68, 95
6, 35520, Note_on_c, 8, 63, 95
6, 35520, Note_on_c, 8, 60, 95
6, 35520, Note_on_c, 8, 53, 95
6, 36480, Note_off_c, 8, 72, 95
6, 36480, Note_off_c, 8, 68, 95
6, 36480, Note_off_c, 8, 63, 95
6, 36480, Note_off_c, 8, 60, 95
6, 36480, Note_off_c, 8, 53, 95
6, 39360, Note_on_c, 8, 72, 95
6, 39360, Note_on_c, 8, 68, 95
6, 39360, Note_on_c, 8, 63, 95
6, 39360, Note_on_c, 8, 60, 95
6, 39360, Note_on_c, 8, 53, 95
6, 40320, Note_off_c, 8, 72, 95
6, 40320, Note_off_c, 8, 68, 95
6, 40320, Note_off_c, 8, 63, 95
6, 40320, Note_off_c, 8, 60, 95
6, 40320, Note_off_c, 8, 53, 95
6, 43200, Note_on_c, 8, 72, 95
6, 43200, Note_on_c, 8, 68, 95
6, 43200, Note_on_c, 8, 63, 95
6, 43200, Note_on_c, 8, 58, 95
6, 44160, Note_off_c, 8, 72, 95
6, 44160, Note_off_c, 8, 68, 95
6, 44160, Note_off_c, 8, 63, 95
6, 44160, Note_off_c, 8, 58, 95
6, 47040, Note_on_c, 8, 75, 95
6, 47040, Note_on_c, 8, 70, 95
6, 47040, Note_on_c, 8, 67, 95
6, 47040, Note_on_c, 8, 63, 95
6, 48000, Note_off_c, 8, 75, 95
6, 48000, Note_off_c, 8, 70, 95
6, 48000, Note_off_c, 8, 67, 95
6, 48000, Note_off_c, 8, 63, 95
6, 50880, Note_on_c, 8, 72, 95
6, 50880, Note_on_c, 8, 67, 95
6, 50880, Note_on_c, 8, 63, 95
6, 50880, Note_on_c, 8, 58, 95
6, 50880, Note_on_c, 8, 55, 95
6, 50880, Note_on_c, 8, 48, 95
6, 51840, Note_off_c, 8, 72, 95
6, 51840, Note_off_c, 8, 67, 95
6, 51840, Note_off_c, 8, 63, 95
6, 51840, Note_off_c, 8, 58, 95
6, 51840, Note_off_c, 8, 55, 95
6, 51840, Note_off_c, 8, 48, 95
6, 54720, Note_on_c, 8, 72, 95
6, 54720, Note_on_c, 8, 68, 95
6, 54720, Note_on_c, 8, 63, 95
6, 54720, Note_on_c, 8, 60, 95
6, 54720, Note_on_c, 8, 53, 95
6, 55680, Note_off_c, 8, 72, 95
6, 55680, Note_off_c, 8, 68, 95
6, 55680, Note_off_c, 8, 63, 95
6, 55680, Note_off_c, 8, 60, 95
6, 55680, Note_off_c, 8, 53, 95
6, 58560, Note_on_c, 8, 72, 95
6, 58560, Note_on_c, 8, 68, 95
6, 58560, Note_on_c, 8, 63, 95
6, 58560, Note_on_c, 8, 58, 95
6, 59520, Note_off_c, 8, 72, 95
6, 59520, Note_off_c, 8, 68, 95
6, 59520, Note_off_c, 8, 63, 95
6, 59520, Note_off_c, 8, 58, 95
6, 61440, Note_on_c, 8, 67, 95
6, 61440, Note_on_c, 8, 63, 95
6, 61440, Note_on_c, 8, 60, 95
6, 61440, Note_on_c, 8, 56, 95
6, 65280, Note_off_c, 8, 67, 95
6, 65280, Note_off_c, 8, 63, 95
6, 65280, Note_off_c, 8, 60, 95
6, 65280, Note_off_c, 8, 56, 95
6, 65280, Note_on_c, 8, 67, 95
6, 65280, Note_on_c, 8, 62, 95
6, 65280, Note_on_c, 8, 58, 95
6, 65280, Note_on_c, 8, 53, 95
6, 65280, Note_on_c, 8, 50, 95
6, 65280, Note_on_c, 8, 43, 95
6, 69120, Note_off_c, 8, 67, 95
6, 69120, Note_off_c, 8, 62, 95
6, 69120, Note_off_c, 8, 58, 95
6, 69120, Note_off_c, 8, 53, 95
6, 69120, Note_off_c, 8, 50, 95
6, 69120, Note_off_c, 8, 43, 95
6, 69120, Note_on_c, 8, 65, 95
6, 69120, Note_on_c, 8, 60, 95
6, 69120, Note_on_c, 8, 56, 95
6, 69120, Note_on_c, 8, 51, 95
6, 69120, Note_on_c, 8, 48, 95
6, 69120, Note_on_c, 8, 41, 95
6, 72960, Note_off_c, 8, 65, 95
6, 72960, Note_off_c, 8, 60, 95
6, 72960, Note_off_c, 8, 56, 95
6, 72960, Note_off_c, 8, 51, 95
6, 72960, Note_off_c, 8, 48, 95
6, 72960, Note_off_c, 8, 41, 95
6, 72960, Note_on_c, 8, 68, 95
6, 72960, Note_on_c, 8, 65, 95
6, 72960, Note_on_c, 8, 60, 95
6, 72960, Note_on_c, 8, 56, 95
6, 72960, Note_on_c, 8, 49, 95
6, 76800, Note_off_c, 8, 68, 95
6, 76800, Note_off_c, 8, 65, 95
6, 76800, Note_off_c, 8, 60, 95
6, 76800, Note_off_c, 8, 56, 95
6, 76800, Note_off_c, 8, 49, 95
6, 76800, Note_on_c, 8, 67, 95
6, 76800, Note_on_c, 8, 62, 95
6, 76800, Note_on_c, 8, 58, 95
6, 76800, Note_on_c, 8, 53, 95
6, 76800, Note_on_c, 8, 50, 95
6, 76800, Note_on_c, 8, 43, 95
6, 80640, Note_off_c, 8, 67, 95
6, 80640, Note_off_c, 8, 62, 95
6, 80640, Note_off_c, 8, 58, 95
6, 80640, Note_off_c, 8, 53, 95
6, 80640, Note_off_c, 8, 50, 95
6, 80640, Note_off_c, 8, 43, 95
6, 80640, Note_on_c, 8, 65, 95
6, 80640, Note_on_c, 8, 60, 95
6, 80640, Note_on_c, 8, 56, 95
6, 80640, Note_on_c, 8, 51, 95
6, 80640, Note_on_c, 8, 46, 95
6, 84480, Note_off_c, 8, 65, 95
6, 84480, Note_off_c, 8, 60, 95
6, 84480, Note_off_c, 8, 56, 95
6, 84480, Note_off_c, 8, 51, 95
6, 84480, Note_off_c, 8, 46, 95
6, 85440, Note_on_c, 8, 70, 95
6, 85440, Note_on_c, 8, 67, 95
6, 85440, Note_on_c, 8, 63, 95
6, 85440, Note_on_c, 8, 58, 95
6, 85440, Note_on_c, 8, 51, 95
6, 86400, Note_off_c, 8, 70, 95
6, 86400, Note_off_c, 8, 67, 95
6, 86400, Note_off_c, 8, 63, 95
6, 86400, Note_off_c, 8, 58, 95
6, 86400, Note_off_c, 8, 51, 95
6, 89280, Note_on_c, 8, 70, 95
6, 89280, Note_on_c, 8, 67, 95
6, 89280, Note_on_c, 8, 62, 95
6, 89280, Note_on_c, 8, 58, 95
6, 89280, Note_on_c, 8, 51, 95
6, 90240, Note_off_c, 8, 70, 95
6, 90240, Note_off_c, 8, 67, 95
6, 90240, Note_off_c, 8, 62, 95
6, 90240, Note_off_c, 8, 58, 95
6, 90240, Note_off_c, 8, 51, 95
6, 93120, Note_on_c, 8, 72, 95
6, 93120, Note_on_c, 8, 67, 95
6, 93120, Note_on_c, 8, 63, 95
6, 93120, Note_on_c, 8, 56, 95
6, 94080, Note_off_c, 8, 72, 95
6, 94080, Note_off_c, 8, 67, 95
6, 94080, Note_off_c, 8, 63, 95
6, 94080, Note_off_c, 8, 56, 95
6, 96960, Note_on_c, 8, 68, 95
6, 96960, Note_on_c, 8, 63, 95
6, 96960, Note_on_c, 8, 59, 95
6, 96960, Note_on_c, 8, 53, 95
6, 96960, Note_on_c, 8, 44, 95
6, 97920, Note_off_c, 8, 68, 95
6, 97920, Note_off_c, 8, 63, 95
6, 97920, Note_off_c, 8, 59, 95
6, 97920, Note_off_c, 8, 53, 95
6, 97920, Note_off_c, 8, 44, 95
6, 100800, Note_on_c, 8, 70, 95
6, 100800, Note_on_c, 8, 67, 95
6, 100800, Note_on_c, 8, 63, 95
6, 100800, Note_on_c, 8, 58, 95
6, 100800, Note_on_c, 8, 51, 95
6, 101760, Note_off_c, 8, 70, 95
6, 101760, Note_off_c, 8, 67, 95
6, 101760, Note_off_c, 8, 63, 95
6, 101760, Note_off_c, 8, 58, 95
6, 101760, Note_off_c, 8, 51, 95
6, 104640, Note_on_c, 8, 70, 95
6, 104640, Note_on_c, 8, 65, 95
6, 104640, Note_on_c, 8, 61, 95
6, 104640, Note_on_c, 8, 54, 95
6, 105600, Note_off_c, 8, 70, 95
6, 105600, Note_off_c, 8, 65, 95
6, 105600, Note_off_c, 8, 61, 95
6, 105600, Note_off_c, 8, 54, 95
6, 108480, Note_on_c, 8, 67, 95
6, 108480, Note_on_c, 8, 64, 95
6, 108480, Note_on_c, 8, 58, 95
6, 108480, Note_on_c, 8, 55, 95
6, 108480, Note_on_c, 8, 48, 95
6, 109440, Note_off_c, 8, 67, 95
6, 109440, Note_off_c, 8, 64, 95
6, 109440, Note_off_c, 8, 58, 95
6, 109440, Note_off_c, 8, 55, 95
6, 109440, Note_off_c, 8, 48, 95
6, 112320, Note_on_c, 8, 67, 95
6, 112320, Note_on_c, 8, 64, 95
6, 112320, Note_on_c, 8, 58, 95
6, 112320, Note_on_c, 8, 55, 95
6, 112320, Note_on_c, 8, 48, 95
6, 113280, Note_off_c, 8, 67, 95
6, 113280, Note_off_c, 8, 64, 95
6, 113280, Note_off_c, 8, 58, 95
6, 113280, Note_off_c, 8, 55, 95
6, 113280, Note_off_c, 8, 48, 95
6, 116160, Note_on_c, 8, 72, 95
6, 116160, Note_on_c, 8, 68, 95
6, 116160, Note_on_c, 8, 63, 95
6, 116160, Note_on_c, 8, 60, 95
6, 116160, Note_on_c, 8, 53, 95
6, 117120, Note_off_c, 8, 72, 95
6, 117120, Note_off_c, 8, 68, 95
6, 117120, Note_off_c, 8, 63, 95
6, 117120, Note_off_c, 8, 60, 95
6, 117120, Note_off_c, 8, 53, 95
6, 120000, Note_on_c, 8, 68, 95
6, 120000, Note_on_c, 8, 63, 95
6, 120000, Note_on_c, 8, 59, 95
6, 120000, Note_on_c, 8, 53, 95
6, 120000, Note_on_c, 8, 44, 95
6, 120960, Note_off_c, 8, 68, 95
6, 120960, Note_off_c, 8, 63, 95
6, 120960, Note_off_c, 8, 59, 95
6, 120960, Note_off_c, 8, 53, 95
6, 120960, Note_off_c, 8, 44, 95
6, 123840, Note_on_c, 8, 75, 95
6, 123840, Note_on_c, 8, 70, 95
6, 123840, Note_on_c, 8, 67, 95
6, 123840, Note_on_c, 8, 63, 95
6, 124800, Note_off_c, 8, 75, 95
6, 124800, Note_off_c, 8, 70, 95
6, 124800, Note_off_c, 8, 67, 95
6, 124800, Note_off_c, 8, 63, 95
6, 127680, Note_on_c, 8, 72, 95
6, 127680, Note_on_c, 8, 68, 95
6, 127680, Note_on_c, 8, 63, 95
6, 127680, Note_on_c, 8, 60, 95
6, 127680, Note_on_c, 8, 53, 95
6, 128640, Note_off_c, 8, 72, 95
6, 128640, Note_off_c, 8, 68, 95
6, 128640, Note_off_c, 8, 63, 95
6, 128640, Note_off_c, 8, 60, 95
6, 128640, Note_off_c, 8, 53, 95
6, 131520, Note_on_c, 8, 72, 95
6, 131520, Note_on_c, 8, 68, 95
6, 131520, Note_on_c, 8, 63, 95
6, 131520, Note_on_c, 8, 60, 95
6, 131520, Note_on_c, 8, 53, 95
6, 132480, Note_off_c, 8, 72, 95
6, 132480, Note_off_c, 8, 68, 95
6, 132480, Note_off_c, 8, 63, 95
6, 132480, Note_off_c, 8, 60, 95
6, 132480, Note_off_c, 8, 53, 95
6, 135360, Note_on_c, 8, 72, 95
6, 135360, Note_on_c, 8, 68, 95
6, 135360, Note_on_c, 8, 63, 95
6, 135360, Note_on_c, 8, 58, 95
6, 136320, Note_off_c, 8, 72, 95
6, 136320, Note_off_c, 8, 68, 95
6, 136320, Note_off_c, 8, 63, 95
6, 136320, Note_off_c, 8, 58, 95
6, 139200, Note_on_c, 8, 75, 95
6, 139200, Note_on_c, 8, 70, 95
6, 139200, Note_on_c, 8, 67, 95
6, 139200, Note_on_c, 8, 63, 95
6, 140160, Note_off_c, 8, 75, 95
6, 140160, Note_off_c, 8, 70, 95
6, 140160, Note_off_c, 8, 67, 95
6, 140160, Note_off_c, 8, 63, 95
6, 143040, Note_on_c, 8, 72, 95
6, 143040, Note_on_c, 8, 67, 95
6, 143040, Note_on_c, 8, 63, 95
6, 143040, Note_on_c, 8, 58, 95
6, 143040, Note_on_c, 8, 55, 95
6, 143040, Note_on_c, 8, 48, 95
6, 144000, Note_off_c, 8, 72, 95
6, 144000, Note_off_c, 8, 67, 95
6, 144000, Note_off_c, 8, 63, 95
6, 144000, Note_off_c, 8, 58, 95
6, 144000, Note_off_c, 8, 55, 95
6, 144000, Note_off_c, 8, 48, 95
6, 146880, Note_on_c, 8, 72, 95
6, 146880, Note_on_c, 8, 68, 95
6, 146880, Note_on_c, 8, 63, 95
6, 146880, Note_on_c, 8, 60, 95
6, 146880, Note_on_c, 8, 53, 95
6, 147840, Note_off_c, 8, 72, 95
6, 147840, Note_off_c, 8, 68, 95
6, 147840, Note_off_c, 8, 63, 95
6, 147840, Note_off_c, 8, 60, 95
6, 147840, Note_off_c, 8, 53, 95
6, 150720, Note_on_c, 8, 72, 95
6, 150720, Note_on_c, 8, 68, 95
6, 150720, Note_on_c, 8, 63, 95
6, 150720, Note_on_c, 8, 58, 95
6, 151680, Note_off_c, 8, 72, 95
6, 151680, Note_off_c, 8, 68, 95
6, 151680, Note_off_c, 8, 63, 95
6, 151680, Note_off_c, 8, 58, 95
6, 153600, Note_on_c, 8, 67, 95
6, 153600, Note_on_c, 8, 63, 95
6, 153600, Note_on_c, 8, 60, 95
6, 153600, Note_on_c, 8, 56, 95
6, 157440, Note_off_c, 8, 67, 95
6, 157440, Note_off_c, 8, 63, 95
6, 157440, Note_off_c, 8, 60, 95
6, 157440, Note_off_c, 8, 56, 95
6, 157440, Note_on_c, 8, 67, 95
6, 157440, Note_on_c, 8, 62, 95
6, 157440, Note_on_c, 8, 58, 95
6, 157440, Note_on_c, 8, 53, 95
6, 157440, Note_on_c, 8, 50, 95
6, 157440, Note_on_c, 8, 43, 95
6, 161280, Note_off_c, 8, 67, 95
6, 161280, Note_off_c, 8, 62, 95
6, 161280, Note_off_c, 8, 58, 95
6, 161280, Note_off_c, 8, 53, 95
6, 161280, Note_off_c, 8, 50, 95
6, 161280, Note_off_c, 8, 43, 95
6, 161280, Note_on_c, 8, 65, 95
6, 161280, Note_on_c, 8, 60, 95
6, 161280, Note_on_c, 8, 56, 95
6, 161280, Note_on_c, 8, 51, 95
6, 161280, Note_on_c, 8, 48, 95
6, 161280, Note_on_c, 8, 41, 95
6, 165120, Note_off_c, 8, 65, 95
6, 165120, Note_off_c, 8, 60, 95
6, 165120, Note_off_c, 8, 56, 95
6, 165120, Note_off_c, 8, 51, 95
6, 165120, Note_off_c, 8, 48, 95
6, 165120, Note_off_c, 8, 41, 95
6, 165120, Note_on_c, 8, 68, 95
6, 165120, Note_on_c, 8, 65, 95
6, 165120, Note_on_c, 8, 60, 95
6, 165120, Note_on_c, 8, 56, 95
6, 165120, Note_on_c, 8, 49, 95
6, 168960, Note_off_c, 8, 68, 95
6, 168960, Note_off_c, 8, 65, 95
6, 168960, Note_off_c, 8, 60, 95
6, 168960, Note_off_c, 8, 56, 95
6, 168960, Note_off_c, 8, 49, 95
6, 168960, Note_on_c, 8, 67, 95
6, 168960, Note_on_c, 8, 62, 95
6, 168960, Note_on_c, 8, 58, 95
6, 168960, Note_on_c, 8, 53, 95
6, 168960, Note_on_c, 8, 50, 95
6, 168960, Note_on_c, 8, 43, 95
6, 172800, Note_off_c, 8, 67, 95
6, 172800, Note_off_c, 8, 62, 95
6, 172800, Note_off_c, 8, 58, 95
6, 172800, Note_off_c, 8, 53, 95
6, 172800, Note_off_c, 8, 50, 95
6, 172800, Note_off_c, 8, 43, 95
6, 172800, Note_on_c, 8, 65, 95
6, 172800, Note_on_c, 8, 60, 95
6, 172800, Note_on_c, 8, 56, 95
6, 172800, Note_on_c, 8, 51, 95
6, 172800, Note_on_c, 8, 46, 95
6, 176640, Note_off_c, 8, 65, 95
6, 176640, Note_off_c, 8, 60, 95
6, 176640, Note_off_c, 8, 56, 95
6, 176640, Note_off_c, 8, 51, 95
6, 176640, Note_off_c, 8, 46, 95
6, 177600, Note_on_c, 8, 70, 95
6, 177600, Note_on_c, 8, 67, 95
6, 177600, Note_on_c, 8, 63, 95
6, 177600, Note_on_c, 8, 58, 95
6, 177600, Note_on_c, 8, 51, 95
6, 178560, Note_off_c, 8, 70, 95
6, 178560, Note_off_c, 8, 67, 95
6, 178560, Note_off_c, 8, 63, 95
6, 178560, Note_off_c, 8, 58, 95
6, 178560, Note_off_c, 8, 51, 95
6, 181440, Note_on_c, 8, 70, 95
6, 181440, Note_on_c, 8, 67, 95
6, 181440, Note_on_c, 8, 62, 95
6, 181440, Note_on_c, 8, 58, 95
6, 181440, Note_on_c, 8, 51, 95
6, 182400, Note_off_c, 8, 70, 95
6, 182400, Note_off_c, 8, 67, 95
6, 182400, Note_off_c, 8, 62, 95
6, 182400, Note_off_c, 8, 58, 95
6, 182400, Note_off_c, 8, 51, 95
6, 185280, Note_on_c, 8, 72, 95
6, 185280, Note_on_c, 8, 67, 95
6, 185280, Note_on_c, 8, 63, 95
6, 185280, Note_on_c, 8, 56, 95
6, 186240, Note_off_c, 8, 72, 95
6, 186240, Note_off_c, 8, 67, 95
6, 186240, Note_off_c, 8, 63, 95
6, 186240, Note_off_c, 8, 56, 95
6, 189120, Note_on_c, 8, 68, 95
6, 189120, Note_on_c, 8, 63, 95
6, 189120, Note_on_c, 8, 59, 95
6, 189120, Note_on_c, 8, 53, 95
6, 189120, Note_on_c, 8, 44, 95
6, 190080, Note_off_c, 8, 68, 95
6, 190080, Note_off_c, 8, 63, 95
6, 190080, Note_off_c, 8, 59, 95
6, 190080, Note_off_c, 8, 53, 95
6, 190080, Note_off_c, 8, 44, 95
6, 192960, Note_on_c, 8, 70, 95
6, 192960, Note_on_c, 8, 67, 95
6, 192960, Note_on_c, 8, 63, 95
6, 192960, Note_on_c, 8, 58, 95
6, 192960, Note_on_c, 8, 51, 95
6, 193920, Note_off_c, 8, 70, 95
6, 193920, Note_off_c, 8, 67, 95
6, 193920, Note_off_c, 8, 63, 95
6, 193920, Note_off_c, 8, 58, 95
6, 193920, Note_off_c, 8, 51, 95
6, 196800, Note_on_c, 8, 70, 95
6, 196800, Note_on_c, 8, 65, 95
6, 196800, Note_on_c, 8, 61, 95
6, 196800, Note_on_c, 8, 54, 95
6, 197760, Note_off_c, 8, 70, 95
6, 197760, Note_off_c, 8, 65, 95
6, 197760, Note_off_c, 8, 61, 95
6, 197760, Note_off_c, 8, 54, 95
6, 200640, Note_on_c, 8, 67, 95
6, 200640, Note_on_c, 8, 64, 95
6, 200640, Note_on_c, 8, 58, 95
6, 200640, Note_on_c, 8, 55, 95
6, 200640, Note_on_c, 8, 48, 95
6, 201600, Note_off_c, 8, 67, 95
6, 201600, Note_off_c, 8, 64, 95
6, 201600, Note_off_c, 8, 58, 95
6, 201600, Note_off_c, 8, 55, 95
6, 201600, Note_off_c, 8, 48, 95
6, 204480, Note_on_c, 8, 67, 95
6, 204480, Note_on_c, 8, 64, 95
6, 204480, Note_on_c, 8, 58, 95
6, 204480, Note_on_c, 8, 55, 95
6, 204480, Note_on_c, 8, 48, 95
6, 205440, Note_off_c, 8, 67, 95
6, 205440, Note_off_c, 8, 64, 95
6, 205440, Note_off_c, 8, 58, 95
6, 205440, Note_off_c, 8, 55, 95
6, 205440, Note_off_c, 8, 48, 95
6, 208320, Note_on_c, 8, 72, 95
6, 208320, Note_on_c, 8, 68, 95
6, 208320, Note_on_c, 8, 63, 95
6, 208320, Note_on_c, 8, 60, 95
6, 208320, Note_on_c, 8, 53, 95
6, 209280, Note_off_c, 8, 72, 95
6, 209280, Note_off_c, 8, 68, 95
6, 209280, Note_off_c, 8, 63, 95
6, 209280, Note_off_c, 8, 60, 95
6, 209280, Note_off_c, 8, 53, 95
6, 212160, Note_on_c, 8, 68, 95
6, 212160, Note_on_c, 8, 63, 95
6, 212160, Note_on_c, 8, 59, 95
6, 212160, Note_on_c, 8, 53, 95
6, 212160, Note_on_c, 8, 44, 95
6, 213120, Note_off_c, 8, 68, 95
6, 213120, Note_off_c, 8, 63, 95
6, 213120, Note_off_c, 8, 59, 95
6, 213120, Note_off_c, 8, 53, 95
6, 213120, Note_off_c, 8, 44, 95
6, 216000, Note_on_c, 8, 75, 95
6, 216000, Note_on_c, 8, 70, 95
6, 216000, Note_on_c, 8, 67, 95
6, 216000, Note_on_c, 8, 63, 95
6, 216960, Note_off_c, 8, 75, 95
6, 216960, Note_off_c, 8, 70, 95
6, 216960, Note_off_c, 8, 67, 95
6, 216960, Note_off_c, 8, 63, 95
6, 219840, Note_on_c, 8, 72, 95
6, 219840, Note_on_c, 8, 68, 95
6, 219840, Note_on_c, 8, 63, 95
6, 219840, Note_on_c, 8, 60, 95
6, 219840, Note_on_c, 8, 53, 95
6, 220800, Note_off_c, 8, 72, 95
6, 220800, Note_off_c, 8, 68, 95
6, 220800, Note_off_c, 8, 63, 95
6, 220800, Note_off_c, 8, 60, 95
6, 220800, Note_off_c, 8, 53, 95
6, 223680, Note_on_c, 8, 72, 95
6, 223680, Note_on_c, 8, 68, 95
6, 223680, Note_on_c, 8, 63, 95
6, 223680, Note_on_c, 8, 60, 95
6, 223680, Note_on_c, 8, 53, 95
6, 224640, Note_off_c, 8, 72, 95
6, 224640, Note_off_c, 8, 68, 95
6, 224640, Note_off_c, 8, 63, 95
6, 224640, Note_off_c, 8, 60, 95
6, 224640, Note_off_c, 8, 53, 95
6, 227520, Note_on_c, 8, 72, 95
6, 227520, Note_on_c, 8, 68, 95
6, 227520, Note_on_c, 8, 63, 95
6, 227520, Note_on_c, 8, 58, 95
6, 228480, Note_off_c, 8, 72, 95
6, 228480, Note_off_c, 8, 68, 95
6, 228480, Note_off_c, 8, 63, 95
6, 228480, Note_off_c, 8, 58, 95
6, 231360, Note_on_c, 8, 75, 95
6, 231360, Note_on_c, 8, 70, 95
6, 231360, Note_on_c, 8, 67, 95
6, 231360, Note_on_c, 8, 63, 95
6, 232320, Note_off_c, 8, 75, 95
6, 232320, Note_off_c, 8, 70, 95
6, 232320, Note_off_c, 8, 67, 95
6, 232320, Note_off_c, 8, 63, 95
6, 235200, Note_on_c, 8, 72, 95
6, 235200, Note_on_c, 8, 67, 95
6, 235200, Note_on_c, 8, 63, 95
6, 235200, Note_on_c, 8, 58, 95
6, 235200, Note_on_c, 8, 55, 95
6, 235200, Note_on_c, 8, 48, 95
6, 236160, Note_off_c, 8, 72, 95
6, 236160, Note_off_c, 8, 67, 95
6, 236160, Note_off_c, 8, 63, 95
6, 236160, Note_off_c, 8, 58, 95
6, 236160, Note_off_c, 8, 55, 95
6, 236160, Note_off_c, 8, 48, 95
6, 239040, Note_on_c, 8, 72, 95
6, 239040, Note_on_c, 8, 68, 95
6, 239040, Note_on_c, 8, 63, 95
6, 239040, Note_on_c, 8, 60, 95
6, 239040, Note_on_c, 8, 53, 95
6, 240000, Note_off_c, 8, 72, 95
6, 240000, Note_off_c, 8, 68, 95
6, 240000, Note_off_c, 8, 63, 95
6, 240000, Note_off_c, 8, 60, 95
6, 240000, Note_off_c, 8, 53, 95
6, 242880, Note_on_c, 8, 72, 95
6, 242880, Note_on_c, 8, 68, 95
6, 242880, Note_on_c, 8, 63, 95
6, 242880, Note_on_c, 8, 58, 95
6, 243840, Note_off_c, 8, 72, 95
6, 243840, Note_off_c, 8, 68, 95
6, 243840, Note_off_c, 8, 63, 95
6, 243840, Note_off_c, 8, 58, 95
6, 245760, Note_on_c, 8, 67, 95
6, 245760, Note_on_c, 8, 63, 95
6, 245760, Note_on_c, 8, 60, 95
6, 245760, Note_on_c, 8, 56, 95
6, 249600, Note_off_c, 8, 67, 95
6, 249600, Note_off_c, 8, 63, 95
6, 249600, Note_off_c, 8, 60, 95
6, 249600, Note_off_c, 8, 56, 95
6, 249600, Note_on_c, 8, 67, 95
6, 249600, Note_on_c, 8, 62, 95
6, 249600, Note_on_c, 8, 58, 95
6, 249600, Note_on_c, 8, 53, 95
6, 249600, Note_on_c, 8, 50, 95
6, 249600, Note_on_c, 8, 43, 95
6, 253440, Note_off_c, 8, 67, 95
6, 253440, Note_off_c, 8, 62, 95
6, 253440, Note_off_c, 8, 58, 95
6, 253440, Note_off_c, 8, 53, 95
6, 253440, Note_off_c, 8, 50, 95
6, 253440, Note_off_c, 8, 43, 95
6, 253440, Note_on_c, 8, 65, 95
6, 253440, Note_on_c, 8, 60, 95
6, 253440, Note_on_c, 8, 56, 95
6, 253440, Note_on_c, 8, 51, 95
6, 253440, Note_on_c, 8, 48, 95
6, 253440, Note_on_c, 8, 41, 95
6, 257280, Note_off_c, 8, 65, 95
6, 257280, Note_off_c, 8, 60, 95
6, 257280, Note_off_c, 8, 56, 95
6, 257280, Note_off_c, 8, 51, 95
6, 257280, Note_off_c, 8, 48, 95
6, 257280, Note_off_c, 8, 41, 95
6, 257280, Note_on_c, 8, 68, 95
6, 257280, Note_on_c, 8, 65, 95
6, 257280, Note_on_c, 8, 60, 95
6, 257280, Note_on_c, 8, 56, 95
6, 257280, Note_on_c, 8, 49, 95
6, 261120, Note_off_c, 8, 68, 95
6, 261120, Note_off_c, 8, 65, 95
6, 261120, Note_off_c, 8, 60, 95
6, 261120, Note_off_c, 8, 56, 95
6, 261120, Note_off_c, 8, 49, 95
6, 261120, Note_on_c, 8, 67, 95
6, 261120, Note_on_c, 8, 62, 95
6, 261120, Note_on_c, 8, 58, 95
6, 261120, Note_on_c, 8, 53, 95
6, 261120, Note_on_c, 8, 50, 95
6, 261120, Note_on_c, 8, 43, 95
6, 264960, Note_off_c, 8, 67, 95
6, 264960, Note_off_c, 8, 62, 95
6, 264960, Note_off_c, 8, 58, 95
6, 264960, Note_off_c, 8, 53, 95
6, 264960, Note_off_c, 8, 50, 95
6, 264960, Note_off_c, 8, 43, 95
6, 264960, Note_on_c, 8, 65, 95
6, 264960, Note_on_c, 8, 60, 95
6, 264960, Note_on_c, 8, 56, 95
6, 264960, Note_on_c, 8, 51, 95
6, 264960, Note_on_c, 8, 46, 95
6, 268800, Note_off_c, 8, 65, 95
6, 268800, Note_off_c, 8, 60, 95
6, 268800, Note_off_c, 8, 56, 95
6, 268800, Note_off_c, 8, 51, 95
6, 268800, Note_off_c, 8, 46, 95
6, 269760, Note_on_c, 8, 70, 95
6, 269760, Note_on_c, 8, 67, 95
6, 269760, Note_on_c, 8, 63, 95
6, 269760, Note_on_c, 8, 58, 95
6, 269760, Note_on_c, 8, 51, 95
6, 270720, Note_off_c, 8, 70, 95
6, 270720, Note_off_c, 8, 67, 95
6, 270720, Note_off_c, 8, 63, 95
6, 270720, Note_off_c, 8, 58, 95
6, 270720, Note_off_c, 8, 51, 95
6, 273600, Note_on_c, 8, 70, 95
6, 273600, Note_on_c, 8, 67, 95
6, 273600, Note_on_c, 8, 62, 95
6, 273600, Note_on_c, 8, 58, 95
6, 273600, Note_on_c, 8, 51, 95
6, 274560, Note_off_c, 8, 70, 95
6, 274560, Note_off_c, 8, 67, 95
6, 274560, Note_off_c, 8, 62, 95
6, 274560, Note_off_c, 8, 58, 95
6, 274560, Note_off_c, 8, 51, 95
6, 277440, Note_on_c, 8, 72, 95
6, 277440, Note_on_c, 8, 67, 95
6, 277440, Note_on_c, 8, 63, 95
6, 277440, Note_on_c, 8, 56, 95
6, 278400, Note_off_c, 8, 72, 95
6, 278400, Note_off_c, 8, 67, 95
6, 278400, Note_off_c, 8, 63, 95
6, 278400, Note_off_c, 8, 56, 95
6, 281280, Note_on_c, 8, 68, 95
6, 281280, Note_on_c, 8, 63, 95
6, 281280, Note_on_c, 8, 59, 95
6, 281280, Note_on_c, 8, 53, 95
6, 281280, Note_on_c, 8, 44, 95
6, 282240, Note_off_c, 8, 68, 95
6, 282240, Note_off_c, 8, 63, 95
6, 282240, Note_off_c, 8, 59, 95
6, 282240, Note_off_c, 8, 53, 95
6, 282240, Note_off_c, 8, 44, 95
6, 285120, Note_on_c, 8, 70, 95
6, 285120, Note_on_c, 8, 67, 95
6, 285120, Note_on_c, 8, 63, 95
6, 285120, Note_on_c, 8, 58, 95
6, 285120, Note_on_c, 8, 51, 95
6, 286080, Note_off_c, 8, 70, 95
6, 286080, Note_off_c, 8, 67, 95
6, 286080, Note_off_c, 8, 63, 95
6, 286080, Note_off_c, 8, 58, 95
6, 286080, Note_off_c, 8, 51, 95
6, 288960, Note_on_c, 8, 70, 95
6, 288960, Note_on_c, 8, 65, 95
6, 288960, Note_on_c, 8, 61, 95
6, 288960, Note_on_c, 8, 56, 95
6, 288960, Note_on_c, 8, 49, 95
6, 289920, Note_off_c, 8, 70, 95
6, 289920, Note_off_c, 8, 65, 95
6, 289920, Note_off_c, 8, 61, 95
6, 289920, Note_off_c, 8, 56, 95
6, 289920, Note_off_c, 8, 49, 95
6, 292800, Note_on_c, 8, 67, 95
6, 292800, Note_on_c, 8, 64, 95
6, 292800, Note_on_c, 8, 58, 95
6, 292800, Note_on_c, 8, 55, 95
6, 292800, Note_on_c, 8, 48, 95
6, 293760, Note_off_c, 8, 67, 95
6, 293760, Note_off_c, 8, 64, 95
6, 293760, Note_off_c, 8, 58, 95
6, 293760, Note_off_c, 8, 55, 95
6, 293760, Note_off_c, 8, 48, 95
6, 296640, Note_on_c, 8, 67, 95
6, 296640, Note_on_c, 8, 64, 95
6, 296640, Note_on_c, 8, 58, 95
6, 296640, Note_on_c, 8, 55, 95
6, 296640, Note_on_c, 8, 48, 95
6, 297600, Note_off_c, 8, 67, 95
6, 297600, Note_off_c, 8, 64, 95
6, 297600, Note_off_c, 8, 58, 95
6, 297600, Note_off_c, 8, 55, 95
6, 297600, Note_off_c, 8, 48, 95
6, 300480, Note_on_c, 8, 72, 95
6, 300480, Note_on_c, 8, 68, 95
6, 300480, Note_on_c, 8, 63, 95
6, 300480, Note_on_c, 8, 60, 95
6, 300480, Note_on_c, 8, 53, 95
6, 301440, Note_off_c, 8, 72, 95
6, 301440, Note_off_c, 8, 68, 95
6, 301440, Note_off_c, 8, 63, 95
6, 301440, Note_off_c, 8, 60, 95
6, 301440, Note_off_c, 8, 53, 95
6, 304320, Note_on_c, 8, 68, 95
6, 304320, Note_on_c, 8, 63, 95
6, 304320, Note_on_c, 8, 59, 95
6, 304320, Note_on_c, 8, 53, 95
6, 304320, Note_on_c, 8, 44, 95
6, 305280, Note_off_c, 8, 68, 95
6, 305280, Note_off_c, 8, 63, 95
6, 305280, Note_off_c, 8, 59, 95
6, 305280, Note_off_c, 8, 53, 95
6, 305280, Note_off_c, 8, 44, 95
6, 308160, Note_on_c, 8, 70, 95
6, 308160, Note_on_c, 8, 67, 95
6, 308160, Note_on_c, 8, 63, 95
6, 308160, Note_on_c, 8, 58, 95
6, 308160, Note_on_c, 8, 51, 95
6, 309120, Note_off_c, 8, 70, 95
6, 309120, Note_off_c, 8, 67, 95
6, 309120, Note_off_c, 8, 63, 95
6, 309120, Note_off_c, 8, 58, 95
6, 309120, Note_off_c, 8, 51, 95
6, 312000, Note_on_c, 8, 72, 95
6, 312000, Note_on_c, 8, 68, 95
6, 312000, Note_on_c, 8, 63, 95
6, 312000, Note_on_c, 8, 58, 95
6, 312960, Note_off_c, 8, 72, 95
6, 312960, Note_off_c, 8, 68, 95
6, 312960, Note_off_c, 8, 63, 95
6, 312960, Note_off_c, 8, 58, 95
6, 315840, Note_on_c, 8, 72, 95
6, 315840, Note_on_c, 8, 68, 95
6, 315840, Note_on_c, 8, 63, 95
6, 315840, Note_on_c, 8, 58, 95
6, 316800, Note_off_c, 8, 72, 95
6, 316800, Note_off_c, 8, 68, 95
6, 316800, Note_off_c, 8, 63, 95
6, 316800, Note_off_c, 8, 58, 95
6, 319680, Note_on_c, 8, 70, 95
6, 319680, Note_on_c, 8, 67, 95
6, 319680, Note_on_c, 8, 63, 95
6, 319680, Note_on_c, 8, 58, 95
6, 319680, Note_on_c, 8, 51, 95
6, 320640, Note_off_c, 8, 70, 95
6, 320640, Note_off_c, 8, 67, 95
6, 320640, Note_off_c, 8, 63, 95
6, 320640, Note_off_c, 8, 58, 95
6, 320640, Note_off_c, 8, 51, 95
6, 323520, Note_on_c, 8, 70, 95
6, 323520, Note_on_c, 8, 67, 95
6, 323520, Note_on_c, 8, 62, 95
6, 323520, Note_on_c, 8, 58, 95
6, 323520, Note_on_c, 8, 51, 95
6, 324480, Note_off_c, 8, 70, 95
6, 324480, Note_off_c, 8, 67, 95
6, 324480, Note_off_c, 8, 62, 95
6, 324480, Note_off_c, 8, 58, 95
6, 324480, Note_off_c, 8, 51, 95
6, 327360, Note_on_c, 8, 72, 95
6, 327360, Note_on_c, 8, 67, 95
6, 327360, Note_on_c, 8, 63, 95
6, 327360, Note_on_c, 8, 56, 95
6, 328320, Note_off_c, 8, 72, 95
6, 328320, Note_off_c, 8, 67, 95
6, 328320, Note_off_c, 8, 63, 95
6, 328320, Note_off_c, 8, 56, 95
6, 331200, Note_on_c, 8, 68, 95
6, 331200, Note_on_c, 8, 63, 95
6, 331200, Note_on_c, 8, 59, 95
6, 331200, Note_on_c, 8, 53, 95
6, 331200, Note_on_c, 8, 44, 95
6, 332160, Note_off_c, 8, 68, 95
6, 332160, Note_off_c, 8, 63, 95
6, 332160, Note_off_c, 8, 59, 95
6, 332160, Note_off_c, 8, 53, 95
6, 332160, Note_off_c, 8, 44, 95
6, 335040, Note_on_c, 8, 70, 95
6, 335040, Note_on_c, 8, 67, 95
6, 335040, Note_on_c, 8, 63, 95
6, 335040, Note_on_c, 8, 58, 95
6, 335040, Note_on_c, 8, 51, 95
6, 336000, Note_off_c, 8, 70, 95
6, 336000, Note_off_c, 8, 67, 95
6, 336000, Note_off_c, 8, 63, 95
6, 336000, Note_off_c, 8, 58, 95
6, 336000, Note_off_c, 8, 51, 95
6, 338880, Note_on_c, 8, 70, 95
6, 338880, Note_on_c, 8, 65, 95
6, 338880, Note_on_c, 8, 61, 95
6, 338880, Note_on_c, 8, 56, 95
6, 338880, Note_on_c, 8, 49, 95
6, 339840, Note_off_c, 8, 70, 95
6, 339840, Note_off_c, 8, 65, 95
6, 339840, Note_off_c, 8, 61, 95
6, 339840, Note_off_c, 8, 56, 95
6, 339840, Note_off_c, 8, 49, 95
6, 342720, Note_on_c, 8, 67, 95
6, 342720, Note_on_c, 8, 64, 95
6, 342720, Note_on_c, 8, 58, 95
6, 342720, Note_on_c, 8, 55, 95
6, 342720, Note_on_c, 8, 48, 95
6, 343680, Note_off_c, 8, 67, 95
6, 343680, Note_off_c, 8, 64, 95
6, 343680, Note_off_c, 8, 58, 95
6, 343680, Note_off_c, 8, 55, 95
6, 343680, Note_off_c, 8, 48, 95
6, 346560, Note_on_c, 8, 67, 95
6, 346560, Note_on_c, 8, 64, 95
6, 346560, Note_on_c, 8, 58, 95
6, 346560, Note_on_c, 8, 55, 95
6, 346560, Note_on_c, 8, 48, 95
6, 347520, Note_off_c, 8, 67, 95
6, 347520, Note_off_c, 8, 64, 95
6, 347520, Note_off_c, 8, 58, 95
6, 347520, Note_off_c, 8, 55, 95
6, 347520, Note_off_c, 8, 48, 95
6, 350400, Note_on_c, 8, 72, 95
6, 350400, Note_on_c, 8, 68, 95
6, 350400, Note_on_c, 8, 63, 95
6, 350400, Note_on_c, 8, 60, 95
6, 350400, Note_on_c, 8, 53, 95
6, 351360, Note_off_c, 8, 72, 95
6, 351360, Note_off_c, 8, 68, 95
6, 351360, Note_off_c, 8, 63, 95
6, 351360, Note_off_c, 8, 60, 95
6, 351360, Note_off_c, 8, 53, 95
6, 354240, Note_on_c, 8, 68, 95
6, 354240, Note_on_c, 8, 63, 95
6, 354240, Note_on_c, 8, 59, 95
6, 354240, Note_on_c, 8, 53, 95
6, 354240, Note_on_c, 8, 44, 95
6, 355200, Note_off_c, 8, 68, 95
6, 355200, Note_off_c, 8, 63, 95
6, 355200, Note_off_c, 8, 59, 95
6, 355200, Note_off_c, 8, 53, 95
6, 355200, Note_off_c, 8, 44, 95
6, 358080, Note_on_c, 8, 70, 95
6, 358080, Note_on_c, 8, 67, 95
6, 358080, Note_on_c, 8, 63, 95
6, 358080, Note_on_c, 8, 58, 95
6, 358080, Note_on_c, 8, 51, 95
6, 359040, Note_off_c, 8, 70, 95
6, 359040, Note_off_c, 8, 67, 95
6, 359040, Note_off_c, 8, 63, 95
6, 359040, Note_off_c, 8, 58, 95
6, 359040, Note_off_c, 8, 51, 95
6, 361920, Note_on_c, 8, 72, 95
6, 361920, Note_on_c, 8, 68, 95
6, 361920, Note_on_c, 8, 63, 95
6, 361920, Note_on_c, 8, 58, 95
6, 362880, Note_off_c, 8, 72, 95
6, 362880, Note_off_c, 8, 68, 95
6, 362880, Note_off_c, 8, 63, 95
6, 362880, Note_off_c, 8, 58, 95
6, 365760, Note_on_c, 8, 72, 95
6, 365760, Note_on_c, 8, 68, 95
6, 365760, Note_on_c, 8, 63, 95
6, 365760, Note_on_c, 8, 58, 95
6, 366720, Note_off_c, 8, 72, 95
6, 366720, Note_off_c, 8, 68, 95
6, 366720, Note_off_c, 8, 63, 95
6, 366720, Note_off_c, 8, 58, 95
6, 366720, End_track
7, 0, Start_track
7, 0, Pitch_bend_c, 15, 8192
7, 0, Control_c, 15, 7, 71
7, 0, Control_c, 15, 10, 63
7, 0, Control_c, 15, 93, 0
7, 0, Control_c, 15, 91, 0
7, 0, Control_c, 15, 95, 0
7, 0, Control_c, 15, 92, 0
7, 0, Control_c, 15, 11, 127
7, 0, Program_c, 15, 24
7, 84480, Note_on_c, 15, 70, 95
7, 84480, Note_on_c, 15, 67, 95
7, 84480, Note_on_c, 15, 63, 95
7, 84480, Note_on_c, 15, 58, 95
7, 84480, Note_on_c, 15, 51, 95
7, 84960, Note_off_c, 15, 70, 95
7, 84960, Note_off_c, 15, 67, 95
7, 84960, Note_off_c, 15, 63, 95
7, 84960, Note_off_c, 15, 58, 95
7, 84960, Note_off_c, 15, 51, 95
7, 84960, Note_on_c, 15, 70, 95
7, 84960, Note_on_c, 15, 67, 95
7, 84960, Note_on_c, 15, 63, 95
7, 84960, Note_on_c, 15, 58, 95
7, 84960, Note_on_c, 15, 51, 95
7, 85440, Note_off_c, 15, 70, 95
7, 85440, Note_off_c, 15, 67, 95
7, 85440, Note_off_c, 15, 63, 95
7, 85440, Note_off_c, 15, 58, 95
7, 85440, Note_off_c, 15, 51, 95
7, 85440, Note_on_c, 15, 70, 95
7, 85440, Note_on_c, 15, 67, 95
7, 85440, Note_on_c, 15, 63, 95
7, 85440, Note_on_c, 15, 58, 95
7, 85440, Note_on_c, 15, 51, 95
7, 85920, Note_off_c, 15, 70, 95
7, 85920, Note_off_c, 15, 67, 95
7, 85920, Note_off_c, 15, 63, 95
7, 85920, Note_off_c, 15, 58, 95
7, 85920, Note_off_c, 15, 51, 95
7, 85920, Note_on_c, 15, 70, 95
7, 85920, Note_on_c, 15, 67, 95
7, 85920, Note_on_c, 15, 63, 95
7, 85920, Note_on_c, 15, 58, 95
7, 85920, Note_on_c, 15, 51, 95
7, 86880, Note_off_c, 15, 70, 95
7, 86880, Note_off_c, 15, 67, 95
7, 86880, Note_off_c, 15, 63, 95
7, 86880, Note_off_c, 15, 58, 95
7, 86880, Note_off_c, 15, 51, 95
7, 86880, Note_on_c, 15, 70, 95
7, 86880, Note_on_c, 15, 67, 95
7, 86880, Note_on_c, 15, 63, 95
7, 86880, Note_on_c, 15, 58, 95
7, 86880, Note_on_c, 15, 51, 95
7, 87360, Note_off_c, 15, 70, 95
7, 87360, Note_off_c, 15, 67, 95
7, 87360, Note_off_c, 15, 63, 95
7, 87360, Note_off_c, 15, 58, 95
7, 87360, Note_off_c, 15, 51, 95
7, 87360, Note_on_c, 15, 70, 95
7, 87360, Note_on_c, 15, 67, 95
7, 87360, Note_on_c, 15, 63, 95
7, 87360, Note_on_c, 15, 58, 95
7, 87360, Note_on_c, 15, 51, 95
7, 87840, Note_off_c, 15, 70, 95
7, 87840, Note_off_c, 15, 67, 95
7, 87840, Note_off_c, 15, 63, 95
7, 87840, Note_off_c, 15, 58, 95
7, 87840, Note_off_c, 15, 51, 95
7, 87840, Note_on_c, 15, 70, 95
7, 87840, Note_on_c, 15, 67, 95
7, 87840, Note_on_c, 15, 63, 95
7, 87840, Note_on_c, 15, 58, 95
7, 87840, Note_on_c, 15, 51, 95
7, 88320, Note_off_c, 15, 70, 95
7, 88320, Note_off_c, 15, 67, 95
7, 88320, Note_off_c, 15, 63, 95
7, 88320, Note_off_c, 15, 58, 95
7, 88320, Note_off_c, 15, 51, 95
7, 88320, Note_on_c, 15, 70, 95
7, 88320, Note_on_c, 15, 67, 95
7, 88320, Note_on_c, 15, 62, 95
7, 88320, Note_on_c, 15, 58, 95
7, 88320, Note_on_c, 15, 51, 95
7, 88800, Note_off_c, 15, 70, 95
7, 88800, Note_off_c, 15, 67, 95
7, 88800, Note_off_c, 15, 62, 95
7, 88800, Note_off_c, 15, 58, 95
7, 88800, Note_off_c, 15, 51, 95
7, 88800, Note_on_c, 15, 70, 95
7, 88800, Note_on_c, 15, 67, 95
7, 88800, Note_on_c, 15, 62, 95
7, 88800, Note_on_c, 15, 58, 95
7, 88800, Note_on_c, 15, 51, 95
7, 89280, Note_off_c, 15, 70, 95
7, 89280, Note_off_c, 15, 67, 95
7, 89280, Note_off_c, 15, 62, 95
7, 89280, Note_off_c, 15, 58, 95
7, 89280, Note_off_c, 15, 51, 95
7, 89280, Note_on_c, 15, 70, 95
7, 89280, Note_on_c, 15, 67, 95
7, 89280, Note_on_c, 15, 62, 95
7, 89280, Note_on_c, 15, 58, 95
7, 89280, Note_on_c, 15, 51, 95
7, 89760, Note_off_c, 15, 70, 95
7, 89760, Note_off_c, 15, 67, 95
7, 89760, Note_off_c, 15, 62, 95
7, 89760, Note_off_c, 15, 58, 95
7, 89760, Note_off_c, 15, 51, 95
7, 89760, Note_on_c, 15, 70, 95
7, 89760, Note_on_c, 15, 67, 95
7, 89760, Note_on_c, 15, 62, 95
7, 89760, Note_on_c, 15, 58, 95
7, 89760, Note_on_c, 15, 51, 95
7, 90720, Note_off_c, 15, 70, 95
7, 90720, Note_off_c, 15, 67, 95
7, 90720, Note_off_c, 15, 62, 95
7, 90720, Note_off_c, 15, 58, 95
7, 90720, Note_off_c, 15, 51, 95
7, 90720, Note_on_c, 15, 70, 95
7, 90720, Note_on_c, 15, 67, 95
7, 90720, Note_on_c, 15, 62, 95
7, 90720, Note_on_c, 15, 58, 95
7, 90720, Note_on_c, 15, 51, 95
7, 91200, Note_off_c, 15, 70, 95
7, 91200, Note_off_c, 15, 67, 95
7, 91200, Note_off_c, 15, 62, 95
7, 91200, Note_off_c, 15, 58, 95
7, 91200, Note_off_c, 15, 51, 95
7, 91200, Note_on_c, 15, 70, 95
7, 91200, Note_on_c, 15, 67, 95
7, 91200, Note_on_c, 15, 62, 95
7, 91200, Note_on_c, 15, 58, 95
7, 91200, Note_on_c, 15, 51, 95
7, 91680, Note_off_c, 15, 70, 95
7, 91680, Note_off_c, 15, 67, 95
7, 91680, Note_off_c, 15, 62, 95
7, 91680, Note_off_c, 15, 58, 95
7, 91680, Note_off_c, 15, 51, 95
7, 91680, Note_on_c, 15, 70, 95
7, 91680, Note_on_c, 15, 67, 95
7, 91680, Note_on_c, 15, 62, 95
7, 91680, Note_on_c, 15, 58, 95
7, 91680, Note_on_c, 15, 51, 95
7, 92160, Note_off_c, 15, 70, 95
7, 92160, Note_off_c, 15, 67, 95
7, 92160, Note_off_c, 15, 62, 95
7, 92160, Note_off_c, 15, 58, 95
7, 92160, Note_off_c, 15, 51, 95
7, 92160, Note_on_c, 15, 67, 95
7, 92160, Note_on_c, 15, 63, 95
7, 92160, Note_on_c, 15, 60, 95
7, 92160, Note_on_c, 15, 56, 95
7, 92640, Note_off_c, 15, 67, 95
7, 92640, Note_off_c, 15, 63, 95
7, 92640, Note_off_c, 15, 60, 95
7, 92640, Note_off_c, 15, 56, 95
7, 92640, Note_on_c, 15, 67, 95
7, 92640, Note_on_c, 15, 63, 95
7, 92640, Note_on_c, 15, 60, 95
7, 92640, Note_on_c, 15, 56, 95
7, 93120, Note_off_c, 15, 67, 95
7, 93120, Note_off_c, 15, 63, 95
7, 93120, Note_off_c, 15, 60, 95
7, 93120, Note_off_c, 15, 56, 95
7, 93120, Note_on_c, 15, 67, 95
7, 93120, Note_on_c, 15, 63, 95
7, 93120, Note_on_c, 15, 60, 95
7, 93120, Note_on_c, 15, 56, 95
7, 93600, Note_off_c, 15, 67, 95
7, 93600, Note_off_c, 15, 63, 95
7, 93600, Note_off_c, 15, 60, 95
7, 93600, Note_off_c, 15, 56, 95
7, 93600, Note_on_c, 15, 67, 95
7, 93600, Note_on_c, 15, 63, 95
7, 93600, Note_on_c, 15, 60, 95
7, 93600, Note_on_c, 15, 56, 95
7, 94560, Note_off_c, 15, 67, 95
7, 94560, Note_off_c, 15, 63, 95
7, 94560, Note_off_c, 15, 60, 95
7, 94560, Note_off_c, 15, 56, 95
7, 94560, Note_on_c, 15, 67, 95
7, 94560, Note_on_c, 15, 63, 95
7, 94560, Note_on_c, 15, 60, 95
7, 94560, Note_on_c, 15, 56, 95
7, 95040, Note_off_c, 15, 67, 95
7, 95040, Note_off_c, 15, 63, 95
7, 95040, Note_off_c, 15, 60, 95
7, 95040, Note_off_c, 15, 56, 95
7, 95040, Note_on_c, 15, 67, 95
7, 95040, Note_on_c, 15, 63, 95
7, 95040, Note_on_c, 15, 60, 95
7, 95040, Note_on_c, 15, 56, 95
7, 95520, Note_off_c, 15, 67, 95
7, 95520, Note_off_c, 15, 63, 95
7, 95520, Note_off_c, 15, 60, 95
7, 95520, Note_off_c, 15, 56, 95
7, 95520, Note_on_c, 15, 67, 95
7, 95520, Note_on_c, 15, 63, 95
7, 95520, Note_on_c, 15, 60, 95
7, 95520, Note_on_c, 15, 56, 95
7, 96000, Note_off_c, 15, 67, 95
7, 96000, Note_off_c, 15, 63, 95
7, 96000, Note_off_c, 15, 60, 95
7, 96000, Note_off_c, 15, 56, 95
7, 96000, Note_on_c, 15, 68, 95
7, 96000, Note_on_c, 15, 63, 95
7, 96000, Note_on_c, 15, 59, 95
7, 96000, Note_on_c, 15, 56, 95
7, 96000, Note_on_c, 15, 51, 95
7, 96000, Note_on_c, 15, 44, 95
7, 96480, Note_off_c, 15, 68, 95
7, 96480, Note_off_c, 15, 63, 95
7, 96480, Note_off_c, 15, 59, 95
7, 96480, Note_off_c, 15, 56, 95
7, 96480, Note_off_c, 15, 51, 95
7, 96480, Note_off_c, 15, 44, 95
7, 96480, Note_on_c, 15, 68, 95
7, 96480, Note_on_c, 15, 63, 95
7, 96480, Note_on_c, 15, 59, 95
7, 96480, Note_on_c, 15, 56, 95
7, 96480, Note_on_c, 15, 51, 95
7, 96480, Note_on_c, 15, 44, 95
7, 96960, Note_off_c, 15, 68, 95
7, 96960, Note_off_c, 15, 63, 95
7, 96960, Note_off_c, 15, 59, 95
7, 96960, Note_off_c, 15, 56, 95
7, 96960, Note_off_c, 15, 51, 95
7, 96960, Note_off_c, 15, 44, 95
7, 96960, Note_on_c, 15, 68, 95
7, 96960, Note_on_c, 15, 63, 95
7, 96960, Note_on_c, 15, 59, 95
7, 96960, Note_on_c, 15, 56, 95
7, 96960, Note_on_c, 15, 51, 95
7, 96960, Note_on_c, 15, 44, 95
7, 97440, Note_off_c, 15, 68, 95
7, 97440, Note_off_c, 15, 63, 95
7, 97440, Note_off_c, 15, 59, 95
7, 97440, Note_off_c, 15, 56, 95
7, 97440, Note_off_c, 15, 51, 95
7, 97440, Note_off_c, 15, 44, 95
7, 97440, Note_on_c, 15, 68, 95
7, 97440, Note_on_c, 15, 63, 95
7, 97440, Note_on_c, 15, 59, 95
7, 97440, Note_on_c, 15, 56, 95
7, 97440, Note_on_c, 15, 51, 95
7, 97440, Note_on_c, 15, 44, 95
7, 98400, Note_off_c, 15, 68, 95
7, 98400, Note_off_c, 15, 63, 95
7, 98400, Note_off_c, 15, 59, 95
7, 98400, Note_off_c, 15, 56, 95
7, 98400, Note_off_c, 15, 51, 95
7, 98400, Note_off_c, 15, 44, 95
7, 98400, Note_on_c, 15, 68, 95
7, 98400, Note_on_c, 15, 63, 95
7, 98400, Note_on_c, 15, 59, 95
7, 98400, Note_on_c, 15, 56, 95
7, 98400, Note_on_c, 15, 51, 95
7, 98400, Note_on_c, 15, 44, 95
7, 98880, Note_off_c, 15, 68, 95
7, 98880, Note_off_c, 15, 63, 95
7, 98880, Note_off_c, 15, 59, 95
7, 98880, Note_off_c, 15, 56, 95
7, 98880, Note_off_c, 15, 51, 95
7, 98880, Note_off_c, 15, 44, 95
7, 98880, Note_on_c, 15, 68, 95
7, 98880, Note_on_c, 15, 63, 95
7, 98880, Note_on_c, 15, 59, 95
7, 98880, Note_on_c, 15, 56, 95
7, 98880, Note_on_c, 15, 51, 95
7, 98880, Note_on_c, 15, 44, 95
7, 99360, Note_off_c, 15, 68, 95
7, 99360, Note_off_c, 15, 63, 95
7, 99360, Note_off_c, 15, 59, 95
7, 99360, Note_off_c, 15, 56, 95
7, 99360, Note_off_c, 15, 51, 95
7, 99360, Note_off_c, 15, 44, 95
7, 99360, Note_on_c, 15, 68, 95
7, 99360, Note_on_c, 15, 63, 95
7, 99360, Note_on_c, 15, 59, 95
7, 99360, Note_on_c, 15, 56, 95
7, 99360, Note_on_c, 15, 51, 95
7, 99360, Note_on_c, 15, 44, 95
7, 99840, Note_off_c, 15, 68, 95
7, 99840, Note_off_c, 15, 63, 95
7, 99840, Note_off_c, 15, 59, 95
7, 99840, Note_off_c, 15, 56, 95
7, 99840, Note_off_c, 15, 51, 95
7, 99840, Note_off_c, 15, 44, 95
7, 99840, Note_on_c, 15, 70, 95
7, 99840, Note_on_c, 15, 67, 95
7, 99840, Note_on_c, 15, 63, 95
7, 99840, Note_on_c, 15, 58, 95
7, 99840, Note_on_c, 15, 51, 95
7, 100320, Note_off_c, 15, 70, 95
7, 100320, Note_off_c, 15, 67, 95
7, 100320, Note_off_c, 15, 63, 95
7, 100320, Note_off_c, 15, 58, 95
7, 100320, Note_off_c, 15, 51, 95
7, 100320, Note_on_c, 15, 70, 95
7, 100320, Note_on_c, 15, 67, 95
7, 100320, Note_on_c, 15, 63, 95
7, 100320, Note_on_c, 15, 58, 95
7, 100320, Note_on_c, 15, 51, 95
7, 100800, Note_off_c, 15, 70, 95
7, 100800, Note_off_c, 15, 67, 95
7, 100800, Note_off_c, 15, 63, 95
7, 100800, Note_off_c, 15, 58, 95
7, 100800, Note_off_c, 15, 51, 95
7, 100800, Note_on_c, 15, 70, 95
7, 100800, Note_on_c, 15, 67, 95
7, 100800, Note_on_c, 15, 63, 95
7, 100800, Note_on_c, 15, 58, 95
7, 100800, Note_on_c, 15, 51, 95
7, 101280, Note_off_c, 15, 70, 95
7, 101280, Note_off_c, 15, 67, 95
7, 101280, Note_off_c, 15, 63, 95
7, 101280, Note_off_c, 15, 58, 95
7, 101280, Note_off_c, 15, 51, 95
7, 101280, Note_on_c, 15, 70, 95
7, 101280, Note_on_c, 15, 67, 95
7, 101280, Note_on_c, 15, 63, 95
7, 101280, Note_on_c, 15, 58, 95
7, 101280, Note_on_c, 15, 51, 95
7, 102240, Note_off_c, 15, 70, 95
7, 102240, Note_off_c, 15, 67, 95
7, 102240, Note_off_c, 15, 63, 95
7, 102240, Note_off_c, 15, 58, 95
7, 102240, Note_off_c, 15, 51, 95
7, 102240, Note_on_c, 15, 70, 95
7, 102240, Note_on_c, 15, 67, 95
7, 102240, Note_on_c, 15, 63, 95
7, 102240, Note_on_c, 15, 58, 95
7, 102240, Note_on_c, 15, 51, 95
7, 102720, Note_off_c, 15, 70, 95
7, 102720, Note_off_c, 15, 67, 95
7, 102720, Note_off_c, 15, 63, 95
7, 102720, Note_off_c, 15, 58, 95
7, 102720, Note_off_c, 15, 51, 95
7, 102720, Note_on_c, 15, 70, 95
7, 102720, Note_on_c, 15, 67, 95
7, 102720, Note_on_c, 15, 63, 95
7, 102720, Note_on_c, 15, 58, 95
7, 102720, Note_on_c, 15, 51, 95
7, 103200, Note_off_c, 15, 70, 95
7, 103200, Note_off_c, 15, 67, 95
7, 103200, Note_off_c, 15, 63, 95
7, 103200, Note_off_c, 15, 58, 95
7, 103200, Note_off_c, 15, 51, 95
7, 103200, Note_on_c, 15, 70, 95
7, 103200, Note_on_c, 15, 67, 95
7, 103200, Note_on_c, 15, 63, 95
7, 103200, Note_on_c, 15, 58, 95
7, 103200, Note_on_c, 15, 51, 95
7, 103680, Note_off_c, 15, 70, 95
7, 103680, Note_off_c, 15, 67, 95
7, 103680, Note_off_c, 15, 63, 95
7, 103680, Note_off_c, 15, 58, 95
7, 103680, Note_off_c, 15, 51, 95
7, 103680, Note_on_c, 15, 70, 95
7, 103680, Note_on_c, 15, 65, 95
7, 103680, Note_on_c, 15, 61, 95
7, 103680, Note_on_c, 15, 56, 95
7, 103680, Note_on_c, 15, 49, 95
7, 104160, Note_off_c, 15, 70, 95
7, 104160, Note_off_c, 15, 65, 95
7, 104160, Note_off_c, 15, 61, 95
7, 104160, Note_off_c, 15, 56, 95
7, 104160, Note_off_c, 15, 49, 95
7, 104160, Note_on_c, 15, 70, 95
7, 104160, Note_on_c, 15, 65, 95
7, 104160, Note_on_c, 15, 61, 95
7, 104160, Note_on_c, 15, 56, 95
7, 104160, Note_on_c, 15, 49, 95
7, 104640, Note_off_c, 15, 70, 95
7, 104640, Note_off_c, 15, 65, 95
7, 104640, Note_off_c, 15, 61, 95
7, 104640, Note_off_c, 15, 56, 95
7, 104640, Note_off_c, 15, 49, 95
7, 104640, Note_on_c, 15, 70, 95
7, 104640, Note_on_c, 15, 65, 95
7, 104640, Note_on_c, 15, 61, 95
7, 104640, Note_on_c, 15, 56, 95
7, 104640, Note_on_c, 15, 49, 95
7, 105120, Note_off_c, 15, 70, 95
7, 105120, Note_off_c, 15, 65, 95
7, 105120, Note_off_c, 15, 61, 95
7, 105120, Note_off_c, 15, 56, 95
7, 105120, Note_off_c, 15, 49, 95
7, 105120, Note_on_c, 15, 70, 95
7, 105120, Note_on_c, 15, 65, 95
7, 105120, Note_on_c, 15, 61, 95
7, 105120, Note_on_c, 15, 56, 95
7, 105120, Note_on_c, 15, 49, 95
7, 106080, Note_off_c, 15, 70, 95
7, 106080, Note_off_c, 15, 65, 95
7, 106080, Note_off_c, 15, 61, 95
7, 106080, Note_off_c, 15, 56, 95
7, 106080, Note_off_c, 15, 49, 95
7, 106080, Note_on_c, 15, 70, 95
7, 106080, Note_on_c, 15, 65, 95
7, 106080, Note_on_c, 15, 61, 95
7, 106080, Note_on_c, 15, 56, 95
7, 106080, Note_on_c, 15, 49, 95
7, 106560, Note_off_c, 15, 70, 95
7, 106560, Note_off_c, 15, 65, 95
7, 106560, Note_off_c, 15, 61, 95
7, 106560, Note_off_c, 15, 56, 95
7, 106560, Note_off_c, 15, 49, 95
7, 106560, Note_on_c, 15, 70, 95
7, 106560, Note_on_c, 15, 65, 95
7, 106560, Note_on_c, 15, 61, 95
7, 106560, Note_on_c, 15, 56, 95
7, 106560, Note_on_c, 15, 49, 95
7, 107040, Note_off_c, 15, 70, 95
7, 107040, Note_off_c, 15, 65, 95
7, 107040, Note_off_c, 15, 61, 95
7, 107040, Note_off_c, 15, 56, 95
7, 107040, Note_off_c, 15, 49, 95
7, 107040, Note_on_c, 15, 70, 95
7, 107040, Note_on_c, 15, 65, 95
7, 107040, Note_on_c, 15, 61, 95
7, 107040, Note_on_c, 15, 56, 95
7, 107040, Note_on_c, 15, 49, 95
7, 107520, Note_off_c, 15, 70, 95
7, 107520, Note_off_c, 15, 65, 95
7, 107520, Note_off_c, 15, 61, 95
7, 107520, Note_off_c, 15, 56, 95
7, 107520, Note_off_c, 15, 49, 95
7, 107520, Note_on_c, 15, 67, 95
7, 107520, Note_on_c, 15, 64, 95
7, 107520, Note_on_c, 15, 58, 95
7, 107520, Note_on_c, 15, 55, 95
7, 107520, Note_on_c, 15, 48, 95
7, 108000, Note_off_c, 15, 67, 95
7, 108000, Note_off_c, 15, 64, 95
7, 108000, Note_off_c, 15, 58, 95
7, 108000, Note_off_c, 15, 55, 95
7, 108000, Note_off_c, 15, 48, 95
7, 108000, Note_on_c, 15, 67, 95
7, 108000, Note_on_c, 15, 64, 95
7, 108000, Note_on_c, 15, 58, 95
7, 108000, Note_on_c, 15, 55, 95
7, 108000, Note_on_c, 15, 48, 95
7, 108480, Note_off_c, 15, 67, 95
7, 108480, Note_off_c, 15, 64, 95
7, 108480, Note_off_c, 15, 58, 95
7, 108480, Note_off_c, 15, 55, 95
7, 108480, Note_off_c, 15, 48, 95
7, 108480, Note_on_c, 15, 67, 95
7, 108480, Note_on_c, 15, 64, 95
7, 108480, Note_on_c, 15, 58, 95
7, 108480, Note_on_c, 15, 55, 95
7, 108480, Note_on_c, 15, 48, 95
7, 108960, Note_off_c, 15, 67, 95
7, 108960, Note_off_c, 15, 64, 95
7, 108960, Note_off_c, 15, 58, 95
7, 108960, Note_off_c, 15, 55, 95
7, 108960, Note_off_c, 15, 48, 95
7, 108960, Note_on_c, 15, 67, 95
7, 108960, Note_on_c, 15, 64, 95
7, 108960, Note_on_c, 15, 58, 95
7, 108960, Note_on_c, 15, 55, 95
7, 108960, Note_on_c, 15, 48, 95
7, 109920, Note_off_c, 15, 67, 95
7, 109920, Note_off_c, 15, 64, 95
7, 109920, Note_off_c, 15, 58, 95
7, 109920, Note_off_c, 15, 55, 95
7, 109920, Note_off_c, 15, 48, 95
7, 109920, Note_on_c, 15, 67, 95
7, 109920, Note_on_c, 15, 64, 95
7, 109920, Note_on_c, 15, 58, 95
7, 109920, Note_on_c, 15, 55, 95
7, 109920, Note_on_c, 15, 48, 95
7, 110400, Note_off_c, 15, 67, 95
7, 110400, Note_off_c, 15, 64, 95
7, 110400, Note_off_c, 15, 58, 95
7, 110400, Note_off_c, 15, 55, 95
7, 110400, Note_off_c, 15, 48, 95
7, 110400, Note_on_c, 15, 67, 95
7, 110400, Note_on_c, 15, 64, 95
7, 110400, Note_on_c, 15, 58, 95
7, 110400, Note_on_c, 15, 55, 95
7, 110400, Note_on_c, 15, 48, 95
7, 110880, Note_off_c, 15, 67, 95
7, 110880, Note_off_c, 15, 64, 95
7, 110880, Note_off_c, 15, 58, 95
7, 110880, Note_off_c, 15, 55, 95
7, 110880, Note_off_c, 15, 48, 95
7, 110880, Note_on_c, 15, 67, 95
7, 110880, Note_on_c, 15, 64, 95
7, 110880, Note_on_c, 15, 58, 95
7, 110880, Note_on_c, 15, 55, 95
7, 110880, Note_on_c, 15, 48, 95
7, 111360, Note_off_c, 15, 67, 95
7, 111360, Note_off_c, 15, 64, 95
7, 111360, Note_off_c, 15, 58, 95
7, 111360, Note_off_c, 15, 55, 95
7, 111360, Note_off_c, 15, 48, 95
7, 111360, Note_on_c, 15, 67, 95
7, 111360, Note_on_c, 15, 64, 95
7, 111360, Note_on_c, 15, 58, 95
7, 111360, Note_on_c, 15, 55, 95
7, 111360, Note_on_c, 15, 48, 95
7, 111840, Note_off_c, 15, 67, 95
7, 111840, Note_off_c, 15, 64, 95
7, 111840, Note_off_c, 15, 58, 95
7, 111840, Note_off_c, 15, 55, 95
7, 111840, Note_off_c, 15, 48, 95
7, 111840, Note_on_c, 15, 67, 95
7, 111840, Note_on_c, 15, 64, 95
7, 111840, Note_on_c, 15, 58, 95
7, 111840, Note_on_c, 15, 55, 95
7, 111840, Note_on_c, 15, 48, 95
7, 112320, Note_off_c, 15, 67, 95
7, 112320, Note_off_c, 15, 64, 95
7, 112320, Note_off_c, 15, 58, 95
7, 112320, Note_off_c, 15, 55, 95
7, 112320, Note_off_c, 15, 48, 95
7, 112320, Note_on_c, 15, 67, 95
7, 112320, Note_on_c, 15, 64, 95
7, 112320, Note_on_c, 15, 58, 95
7, 112320, Note_on_c, 15, 55, 95
7, 112320, Note_on_c, 15, 48, 95
7, 112800, Note_off_c, 15, 67, 95
7, 112800, Note_off_c, 15, 64, 95
7, 112800, Note_off_c, 15, 58, 95
7, 112800, Note_off_c, 15, 55, 95
7, 112800, Note_off_c, 15, 48, 95
7, 112800, Note_on_c, 15, 67, 95
7, 112800, Note_on_c, 15, 64, 95
7, 112800, Note_on_c, 15, 58, 95
7, 112800, Note_on_c, 15, 55, 95
7, 112800, Note_on_c, 15, 48, 95
7, 113760, Note_off_c, 15, 67, 95
7, 113760, Note_off_c, 15, 64, 95
7, 113760, Note_off_c, 15, 58, 95
7, 113760, Note_off_c, 15, 55, 95
7, 113760, Note_off_c, 15, 48, 95
7, 113760, Note_on_c, 15, 67, 95
7, 113760, Note_on_c, 15, 64, 95
7, 113760, Note_on_c, 15, 58, 95
7, 113760, Note_on_c, 15, 55, 95
7, 113760, Note_on_c, 15, 48, 95
7, 114240, Note_off_c, 15, 67, 95
7, 114240, Note_off_c, 15, 64, 95
7, 114240, Note_off_c, 15, 58, 95
7, 114240, Note_off_c, 15, 55, 95
7, 114240, Note_off_c, 15, 48, 95
7, 114240, Note_on_c, 15, 67, 95
7, 114240, Note_on_c, 15, 64, 95
7, 114240, Note_on_c, 15, 58, 95
7, 114240, Note_on_c, 15, 55, 95
7, 114240, Note_on_c, 15, 48, 95
7, 114720, Note_off_c, 15, 67, 95
7, 114720, Note_off_c, 15, 64, 95
7, 114720, Note_off_c, 15, 58, 95
7, 114720, Note_off_c, 15, 55, 95
7, 114720, Note_off_c, 15, 48, 95
7, 114720, Note_on_c, 15, 67, 95
7, 114720, Note_on_c, 15, 64, 95
7, 114720, Note_on_c, 15, 58, 95
7, 114720, Note_on_c, 15, 55, 95
7, 114720, Note_on_c, 15, 48, 95
7, 115200, Note_off_c, 15, 67, 95
7, 115200, Note_off_c, 15, 64, 95
7, 115200, Note_off_c, 15, 58, 95
7, 115200, Note_off_c, 15, 55, 95
7, 115200, Note_off_c, 15, 48, 95
7, 115200, Note_on_c, 15, 65, 95
7, 115200, Note_on_c, 15, 60, 95
7, 115200, Note_on_c, 15, 56, 95
7, 115200, Note_on_c, 15, 51, 95
7, 115200, Note_on_c, 15, 48, 95
7, 115200, Note_on_c, 15, 41, 95
7, 115680, Note_off_c, 15, 65, 95
7, 115680, Note_off_c, 15, 60, 95
7, 115680, Note_off_c, 15, 56, 95
7, 115680, Note_off_c, 15, 51, 95
7, 115680, Note_off_c, 15, 48, 95
7, 115680, Note_off_c, 15, 41, 95
7, 115680, Note_on_c, 15, 65, 95
7, 115680, Note_on_c, 15, 60, 95
7, 115680, Note_on_c, 15, 56, 95
7, 115680, Note_on_c, 15, 51, 95
7, 115680, Note_on_c, 15, 48, 95
7, 115680, Note_on_c, 15, 41, 95
7, 116160, Note_off_c, 15, 65, 95
7, 116160, Note_off_c, 15, 60, 95
7, 116160, Note_off_c, 15, 56, 95
7, 116160, Note_off_c, 15, 51, 95
7, 116160, Note_off_c, 15, 48, 95
7, 116160, Note_off_c, 15, 41, 95
7, 116160, Note_on_c, 15, 65, 95
7, 116160, Note_on_c, 15, 60, 95
7, 116160, Note_on_c, 15, 56, 95
7, 116160, Note_on_c, 15, 51, 95
7, 116160, Note_on_c, 15, 48, 95
7, 116160, Note_on_c, 15, 41, 95
7, 116640, Note_off_c, 15, 65, 95
7, 116640, Note_off_c, 15, 60, 95
7, 116640, Note_off_c, 15, 56, 95
7, 116640, Note_off_c, 15, 51, 95
7, 116640, Note_off_c, 15, 48, 95
7, 116640, Note_off_c, 15, 41, 95
7, 116640, Note_on_c, 15, 65, 95
7, 116640, Note_on_c, 15, 60, 95
7, 116640, Note_on_c, 15, 56, 95
7, 116640, Note_on_c, 15, 51, 95
7, 116640, Note_on_c, 15, 48, 95
7, 116640, Note_on_c, 15, 41, 95
7, 117600, Note_off_c, 15, 65, 95
7, 117600, Note_off_c, 15, 60, 95
7, 117600, Note_off_c, 15, 56, 95
7, 117600, Note_off_c, 15, 51, 95
7, 117600, Note_off_c, 15, 48, 95
7, 117600, Note_off_c, 15, 41, 95
7, 117600, Note_on_c, 15, 65, 95
7, 117600, Note_on_c, 15, 60, 95
7, 117600, Note_on_c, 15, 56, 95
7, 117600, Note_on_c, 15, 51, 95
7, 117600, Note_on_c, 15, 48, 95
7, 117600, Note_on_c, 15, 41, 95
7, 118080, Note_off_c, 15, 65, 95
7, 118080, Note_off_c, 15, 60, 95
7, 118080, Note_off_c, 15, 56, 95
7, 118080, Note_off_c, 15, 51, 95
7, 118080, Note_off_c, 15, 48, 95
7, 118080, Note_off_c, 15, 41, 95
7, 118080, Note_on_c, 15, 65, 95
7, 118080, Note_on_c, 15, 60, 95
7, 118080, Note_on_c, 15, 56, 95
7, 118080, Note_on_c, 15, 51, 95
7, 118080, Note_on_c, 15, 48, 95
7, 118080, Note_on_c, 15, 41, 95
7, 118560, Note_off_c, 15, 65, 95
7, 118560, Note_off_c, 15, 60, 95
7, 118560, Note_off_c, 15, 56, 95
7, 118560, Note_off_c, 15, 51, 95
7, 118560, Note_off_c, 15, 48, 95
7, 118560, Note_off_c, 15, 41, 95
7, 118560, Note_on_c, 15, 65, 95
7, 118560, Note_on_c, 15, 60, 95
7, 118560, Note_on_c, 15, 56, 95
7, 118560, Note_on_c, 15, 51, 95
7, 118560, Note_on_c, 15, 48, 95
7, 118560, Note_on_c, 15, 41, 95
7, 119040, Note_off_c, 15, 65, 95
7, 119040, Note_off_c, 15, 60, 95
7, 119040, Note_off_c, 15, 56, 95
7, 119040, Note_off_c, 15, 51, 95
7, 119040, Note_off_c, 15, 48, 95
7, 119040, Note_off_c, 15, 41, 95
7, 119040, Note_on_c, 15, 68, 95
7, 119040, Note_on_c, 15, 63, 95
7, 119040, Note_on_c, 15, 59, 95
7, 119040, Note_on_c, 15, 53, 95
7, 119040, Note_on_c, 15, 44, 95
7, 119520, Note_off_c, 15, 68, 95
7, 119520, Note_off_c, 15, 63, 95
7, 119520, Note_off_c, 15, 59, 95
7, 119520, Note_off_c, 15, 53, 95
7, 119520, Note_off_c, 15, 44, 95
7, 119520, Note_on_c, 15, 68, 95
7, 119520, Note_on_c, 15, 63, 95
7, 119520, Note_on_c, 15, 59, 95
7, 119520, Note_on_c, 15, 53, 95
7, 119520, Note_on_c, 15, 44, 95
7, 120000, Note_off_c, 15, 68, 95
7, 120000, Note_off_c, 15, 63, 95
7, 120000, Note_off_c, 15, 59, 95
7, 120000, Note_off_c, 15, 53, 95
7, 120000, Note_off_c, 15, 44, 95
7, 120000, Note_on_c, 15, 68, 95
7, 120000, Note_on_c, 15, 63, 95
7, 120000, Note_on_c, 15, 59, 95
7, 120000, Note_on_c, 15, 53, 95
7, 120000, Note_on_c, 15, 44, 95
7, 120480, Note_off_c, 15, 68, 95
7, 120480, Note_off_c, 15, 63, 95
7, 120480, Note_off_c, 15, 59, 95
7, 120480, Note_off_c, 15, 53, 95
7, 120480, Note_off_c, 15, 44, 95
7, 120480, Note_on_c, 15, 68, 95
7, 120480, Note_on_c, 15, 63, 95
7, 120480, Note_on_c, 15, 59, 95
7, 120480, Note_on_c, 15, 53, 95
7, 120480, Note_on_c, 15, 44, 95
7, 121440, Note_off_c, 15, 68, 95
7, 121440, Note_off_c, 15, 63, 95
7, 121440, Note_off_c, 15, 59, 95
7, 121440, Note_off_c, 15, 53, 95
7, 121440, Note_off_c, 15, 44, 95
7, 121440, Note_on_c, 15, 68, 95
7, 121440, Note_on_c, 15, 63, 95
7, 121440, Note_on_c, 15, 59, 95
7, 121440, Note_on_c, 15, 53, 95
7, 121440, Note_on_c, 15, 44, 95
7, 121920, Note_off_c, 15, 68, 95
7, 121920, Note_off_c, 15, 63, 95
7, 121920, Note_off_c, 15, 59, 95
7, 121920, Note_off_c, 15, 53, 95
7, 121920, Note_off_c, 15, 44, 95
7, 121920, Note_on_c, 15, 68, 95
7, 121920, Note_on_c, 15, 63, 95
7, 121920, Note_on_c, 15, 59, 95
7, 121920, Note_on_c, 15, 53, 95
7, 121920, Note_on_c, 15, 44, 95
7, 122400, Note_off_c, 15, 68, 95
7, 122400, Note_off_c, 15, 63, 95
7, 122400, Note_off_c, 15, 59, 95
7, 122400, Note_off_c, 15, 53, 95
7, 122400, Note_off_c, 15, 44, 95
7, 122400, Note_on_c, 15, 68, 95
7, 122400, Note_on_c, 15, 63, 95
7, 122400, Note_on_c, 15, 59, 95
7, 122400, Note_on_c, 15, 53, 95
7, 122400, Note_on_c, 15, 44, 95
7, 122880, Note_off_c, 15, 68, 95
7, 122880, Note_off_c, 15, 63, 95
7, 122880, Note_off_c, 15, 59, 95
7, 122880, Note_off_c, 15, 53, 95
7, 122880, Note_off_c, 15, 44, 95
7, 176640, Note_on_c, 15, 70, 95
7, 176640, Note_on_c, 15, 67, 95
7, 176640, Note_on_c, 15, 63, 95
7, 176640, Note_on_c, 15, 58, 95
7, 176640, Note_on_c, 15, 51, 95
7, 177120, Note_off_c, 15, 70, 95
7, 177120, Note_off_c, 15, 67, 95
7, 177120, Note_off_c, 15, 63, 95
7, 177120, Note_off_c, 15, 58, 95
7, 177120, Note_off_c, 15, 51, 95
7, 177120, Note_on_c, 15, 70, 95
7, 177120, Note_on_c, 15, 67, 95
7, 177120, Note_on_c, 15, 63, 95
7, 177120, Note_on_c, 15, 58, 95
7, 177120, Note_on_c, 15, 51, 95
7, 177600, Note_off_c, 15, 70, 95
7, 177600, Note_off_c, 15, 67, 95
7, 177600, Note_off_c, 15, 63, 95
7, 177600, Note_off_c, 15, 58, 95
7, 177600, Note_off_c, 15, 51, 95
7, 177600, Note_on_c, 15, 70, 95
7, 177600, Note_on_c, 15, 67, 95
7, 177600, Note_on_c, 15, 63, 95
7, 177600, Note_on_c, 15, 58, 95
7, 177600, Note_on_c, 15, 51, 95
7, 178080, Note_off_c, 15, 70, 95
7, 178080, Note_off_c, 15, 67, 95
7, 178080, Note_off_c, 15, 63, 95
7, 178080, Note_off_c, 15, 58, 95
7, 178080, Note_off_c, 15, 51, 95
7, 178080, Note_on_c, 15, 70, 95
7, 178080, Note_on_c, 15, 67, 95
7, 178080, Note_on_c, 15, 63, 95
7, 178080, Note_on_c, 15, 58, 95
7, 178080, Note_on_c, 15, 51, 95
7, 179040, Note_off_c, 15, 70, 95
7, 179040, Note_off_c, 15, 67, 95
7, 179040, Note_off_c, 15, 63, 95
7, 179040, Note_off_c, 15, 58, 95
7, 179040, Note_off_c, 15, 51, 95
7, 179040, Note_on_c, 15, 70, 95
7, 179040, Note_on_c, 15, 67, 95
7, 179040, Note_on_c, 15, 63, 95
7, 179040, Note_on_c, 15, 58, 95
7, 179040, Note_on_c, 15, 51, 95
7, 179520, Note_off_c, 15, 70, 95
7, 179520, Note_off_c, 15, 67, 95
7, 179520, Note_off_c, 15, 63, 95
7, 179520, Note_off_c, 15, 58, 95
7, 179520, Note_off_c, 15, 51, 95
7, 179520, Note_on_c, 15, 70, 95
7, 179520, Note_on_c, 15, 67, 95
7, 179520, Note_on_c, 15, 63, 95
7, 179520, Note_on_c, 15, 58, 95
7, 179520, Note_on_c, 15, 51, 95
7, 180000, Note_off_c, 15, 70, 95
7, 180000, Note_off_c, 15, 67, 95
7, 180000, Note_off_c, 15, 63, 95
7, 180000, Note_off_c, 15, 58, 95
7, 180000, Note_off_c, 15, 51, 95
7, 180000, Note_on_c, 15, 70, 95
7, 180000, Note_on_c, 15, 67, 95
7, 180000, Note_on_c, 15, 63, 95
7, 180000, Note_on_c, 15, 58, 95
7, 180000, Note_on_c, 15, 51, 95
7, 180480, Note_off_c, 15, 70, 95
7, 180480, Note_off_c, 15, 67, 95
7, 180480, Note_off_c, 15, 63, 95
7, 180480, Note_off_c, 15, 58, 95
7, 180480, Note_off_c, 15, 51, 95
7, 180480, Note_on_c, 15, 70, 95
7, 180480, Note_on_c, 15, 67, 95
7, 180480, Note_on_c, 15, 62, 95
7, 180480, Note_on_c, 15, 58, 95
7, 180480, Note_on_c, 15, 51, 95
7, 180960, Note_off_c, 15, 70, 95
7, 180960, Note_off_c, 15, 67, 95
7, 180960, Note_off_c, 15, 62, 95
7, 180960, Note_off_c, 15, 58, 95
7, 180960, Note_off_c, 15, 51, 95
7, 180960, Note_on_c, 15, 70, 95
7, 180960, Note_on_c, 15, 67, 95
7, 180960, Note_on_c, 15, 62, 95
7, 180960, Note_on_c, 15, 58, 95
7, 180960, Note_on_c, 15, 51, 95
7, 181440, Note_off_c, 15, 70, 95
7, 181440, Note_off_c, 15, 67, 95
7, 181440, Note_off_c, 15, 62, 95
7, 181440, Note_off_c, 15, 58, 95
7, 181440, Note_off_c, 15, 51, 95
7, 181440, Note_on_c, 15, 70, 95
7, 181440, Note_on_c, 15, 67, 95
7, 181440, Note_on_c, 15, 62, 95
7, 181440, Note_on_c, 15, 58, 95
7, 181440, Note_on_c, 15, 51, 95
7, 181920, Note_off_c, 15, 70, 95
7, 181920, Note_off_c, 15, 67, 95
7, 181920, Note_off_c, 15, 62, 95
7, 181920, Note_off_c, 15, 58, 95
7, 181920, Note_off_c, 15, 51, 95
7, 181920, Note_on_c, 15, 70, 95
7, 181920, Note_on_c, 15, 67, 95
7, 181920, Note_on_c, 15, 62, 95
7, 181920, Note_on_c, 15, 58, 95
7, 181920, Note_on_c, 15, 51, 95
7, 182880, Note_off_c, 15, 70, 95
7, 182880, Note_off_c, 15, 67, 95
7, 182880, Note_off_c, 15, 62, 95
7, 182880, Note_off_c, 15, 58, 95
7, 182880, Note_off_c, 15, 51, 95
7, 182880, Note_on_c, 15, 70, 95
7, 182880, Note_on_c, 15, 67, 95
7, 182880, Note_on_c, 15, 62, 95
7, 182880, Note_on_c, 15, 58, 95
7, 182880, Note_on_c, 15, 51, 95
7, 183360, Note_off_c, 15, 70, 95
7, 183360, Note_off_c, 15, 67, 95
7, 183360, Note_off_c, 15, 62, 95
7, 183360, Note_off_c, 15, 58, 95
7, 183360, Note_off_c, 15, 51, 95
7, 183360, Note_on_c, 15, 70, 95
7, 183360, Note_on_c, 15, 67, 95
7, 183360, Note_on_c, 15, 62, 95
7, 183360, Note_on_c, 15, 58, 95
7, 183360, Note_on_c, 15, 51, 95
7, 183840, Note_off_c, 15, 70, 95
7, 183840, Note_off_c, 15, 67, 95
7, 183840, Note_off_c, 15, 62, 95
7, 183840, Note_off_c, 15, 58, 95
7, 183840, Note_off_c, 15, 51, 95
7, 183840, Note_on_c, 15, 70, 95
7, 183840, Note_on_c, 15, 67, 95
7, 183840, Note_on_c, 15, 62, 95
7, 183840, Note_on_c, 15, 58, 95
7, 183840, Note_on_c, 15, 51, 95
7, 184320, Note_off_c, 15, 70, 95
7, 184320, Note_off_c, 15, 67, 95
7, 184320, Note_off_c, 15, 62, 95
7, 184320, Note_off_c, 15, 58, 95
7, 184320, Note_off_c, 15, 51, 95
7, 184320, Note_on_c, 15, 67, 95
7, 184320, Note_on_c, 15, 63, 95
7, 184320, Note_on_c, 15, 60, 95
7, 184320, Note_on_c, 15, 56, 95
7, 184800, Note_off_c, 15, 67, 95
7, 184800, Note_off_c, 15, 63, 95
7, 184800, Note_off_c, 15, 60, 95
7, 184800, Note_off_c, 15, 56, 95
7, 184800, Note_on_c, 15, 67, 95
7, 184800, Note_on_c, 15, 63, 95
7, 184800, Note_on_c, 15, 60, 95
7, 184800, Note_on_c, 15, 56, 95
7, 185280, Note_off_c, 15, 67, 95
7, 185280, Note_off_c, 15, 63, 95
7, 185280, Note_off_c, 15, 60, 95
7, 185280, Note_off_c, 15, 56, 95
7, 185280, Note_on_c, 15, 67, 95
7, 185280, Note_on_c, 15, 63, 95
7, 185280, Note_on_c, 15, 60, 95
7, 185280, Note_on_c, 15, 56, 95
7, 185760, Note_off_c, 15, 67, 95
7, 185760, Note_off_c, 15, 63, 95
7, 185760, Note_off_c, 15, 60, 95
7, 185760, Note_off_c, 15, 56, 95
7, 185760, Note_on_c, 15, 67, 95
7, 185760, Note_on_c, 15, 63, 95
7, 185760, Note_on_c, 15, 60, 95
7, 185760, Note_on_c, 15, 56, 95
7, 186720, Note_off_c, 15, 67, 95
7, 186720, Note_off_c, 15, 63, 95
7, 186720, Note_off_c, 15, 60, 95
7, 186720, Note_off_c, 15, 56, 95
7, 186720, Note_on_c, 15, 67, 95
7, 186720, Note_on_c, 15, 63, 95
7, 186720, Note_on_c, 15, 60, 95
7, 186720, Note_on_c, 15, 56, 95
7, 187200, Note_off_c, 15, 67, 95
7, 187200, Note_off_c, 15, 63, 95
7, 187200, Note_off_c, 15, 60, 95
7, 187200, Note_off_c, 15, 56, 95
7, 187200, Note_on_c, 15, 67, 95
7, 187200, Note_on_c, 15, 63, 95
7, 187200, Note_on_c, 15, 60, 95
7, 187200, Note_on_c, 15, 56, 95
7, 187680, Note_off_c, 15, 67, 95
7, 187680, Note_off_c, 15, 63, 95
7, 187680, Note_off_c, 15, 60, 95
7, 187680, Note_off_c, 15, 56, 95
7, 187680, Note_on_c, 15, 67, 95
7, 187680, Note_on_c, 15, 63, 95
7, 187680, Note_on_c, 15, 60, 95
7, 187680, Note_on_c, 15, 56, 95
7, 188160, Note_off_c, 15, 67, 95
7, 188160, Note_off_c, 15, 63, 95
7, 188160, Note_off_c, 15, 60, 95
7, 188160, Note_off_c, 15, 56, 95
7, 188160, Note_on_c, 15, 68, 95
7, 188160, Note_on_c, 15, 63, 95
7, 188160, Note_on_c, 15, 59, 95
7, 188160, Note_on_c, 15, 56, 95
7, 188160, Note_on_c, 15, 51, 95
7, 188160, Note_on_c, 15, 44, 95
7, 188640, Note_off_c, 15, 68, 95
7, 188640, Note_off_c, 15, 63, 95
7, 188640, Note_off_c, 15, 59, 95
7, 188640, Note_off_c, 15, 56, 95
7, 188640, Note_off_c, 15, 51, 95
7, 188640, Note_off_c, 15, 44, 95
7, 188640, Note_on_c, 15, 68, 95
7, 188640, Note_on_c, 15, 63, 95
7, 188640, Note_on_c, 15, 59, 95
7, 188640, Note_on_c, 15, 56, 95
7, 188640, Note_on_c, 15, 51, 95
7, 188640, Note_on_c, 15, 44, 95
7, 189120, Note_off_c, 15, 68, 95
7, 189120, Note_off_c, 15, 63, 95
7, 189120, Note_off_c, 15, 59, 95
7, 189120, Note_off_c, 15, 56, 95
7, 189120, Note_off_c, 15, 51, 95
7, 189120, Note_off_c, 15, 44, 95
7, 189120, Note_on_c, 15, 68, 95
7, 189120, Note_on_c, 15, 63, 95
7, 189120, Note_on_c, 15, 59, 95
7, 189120, Note_on_c, 15, 56, 95
7, 189120, Note_on_c, 15, 51, 95
7, 189120, Note_on_c, 15, 44, 95
7, 189600, Note_off_c, 15, 68, 95
7, 189600, Note_off_c, 15, 63, 95
7, 189600, Note_off_c, 15, 59, 95
7, 189600, Note_off_c, 15, 56, 95
7, 189600, Note_off_c, 15, 51, 95
7, 189600, Note_off_c, 15, 44, 95
7, 189600, Note_on_c, 15, 68, 95
7, 189600, Note_on_c, 15, 63, 95
7, 189600, Note_on_c, 15, 59, 95
7, 189600, Note_on_c, 15, 56, 95
7, 189600, Note_on_c, 15, 51, 95
7, 189600, Note_on_c, 15, 44, 95
7, 190560, Note_off_c, 15, 68, 95
7, 190560, Note_off_c, 15, 63, 95
7, 190560, Note_off_c, 15, 59, 95
7, 190560, Note_off_c, 15, 56, 95
7, 190560, Note_off_c, 15, 51, 95
7, 190560, Note_off_c, 15, 44, 95
7, 190560, Note_on_c, 15, 68, 95
7, 190560, Note_on_c, 15, 63, 95
7, 190560, Note_on_c, 15, 59, 95
7, 190560, Note_on_c, 15, 56, 95
7, 190560, Note_on_c, 15, 51, 95
7, 190560, Note_on_c, 15, 44, 95
7, 191040, Note_off_c, 15, 68, 95
7, 191040, Note_off_c, 15, 63, 95
7, 191040, Note_off_c, 15, 59, 95
7, 191040, Note_off_c, 15, 56, 95
7, 191040, Note_off_c, 15, 51, 95
7, 191040, Note_off_c, 15, 44, 95
7, 191040, Note_on_c, 15, 68, 95
7, 191040, Note_on_c, 15, 63, 95
7, 191040, Note_on_c, 15, 59, 95
7, 191040, Note_on_c, 15, 56, 95
7, 191040, Note_on_c, 15, 51, 95
7, 191040, Note_on_c, 15, 44, 95
7, 191520, Note_off_c, 15, 68, 95
7, 191520, Note_off_c, 15, 63, 95
7, 191520, Note_off_c, 15, 59, 95
7, 191520, Note_off_c, 15, 56, 95
7, 191520, Note_off_c, 15, 51, 95
7, 191520, Note_off_c, 15, 44, 95
7, 191520, Note_on_c, 15, 68, 95
7, 191520, Note_on_c, 15, 63, 95
7, 191520, Note_on_c, 15, 59, 95
7, 191520, Note_on_c, 15, 56, 95
7, 191520, Note_on_c, 15, 51, 95
7, 191520, Note_on_c, 15, 44, 95
7, 192000, Note_off_c, 15, 68, 95
7, 192000, Note_off_c, 15, 63, 95
7, 192000, Note_off_c, 15, 59, 95
7, 192000, Note_off_c, 15, 56, 95
7, 192000, Note_off_c, 15, 51, 95
7, 192000, Note_off_c, 15, 44, 95
7, 192000, Note_on_c, 15, 70, 95
7, 192000, Note_on_c, 15, 67, 95
7, 192000, Note_on_c, 15, 63, 95
7, 192000, Note_on_c, 15, 58, 95
7, 192000, Note_on_c, 15, 51, 95
7, 192480, Note_off_c, 15, 70, 95
7, 192480, Note_off_c, 15, 67, 95
7, 192480, Note_off_c, 15, 63, 95
7, 192480, Note_off_c, 15, 58, 95
7, 192480, Note_off_c, 15, 51, 95
7, 192480, Note_on_c, 15, 70, 95
7, 192480, Note_on_c, 15, 67, 95
7, 192480, Note_on_c, 15, 63, 95
7, 192480, Note_on_c, 15, 58, 95
7, 192480, Note_on_c, 15, 51, 95
7, 192960, Note_off_c, 15, 70, 95
7, 192960, Note_off_c, 15, 67, 95
7, 192960, Note_off_c, 15, 63, 95
7, 192960, Note_off_c, 15, 58, 95
7, 192960, Note_off_c, 15, 51, 95
7, 192960, Note_on_c, 15, 70, 95
7, 192960, Note_on_c, 15, 67, 95
7, 192960, Note_on_c, 15, 63, 95
7, 192960, Note_on_c, 15, 58, 95
7, 192960, Note_on_c, 15, 51, 95
7, 193440, Note_off_c, 15, 70, 95
7, 193440, Note_off_c, 15, 67, 95
7, 193440, Note_off_c, 15, 63, 95
7, 193440, Note_off_c, 15, 58, 95
7, 193440, Note_off_c, 15, 51, 95
7, 193440, Note_on_c, 15, 70, 95
7, 193440, Note_on_c, 15, 67, 95
7, 193440, Note_on_c, 15, 63, 95
7, 193440, Note_on_c, 15, 58, 95
7, 193440, Note_on_c, 15, 51, 95
7, 194400, Note_off_c, 15, 70, 95
7, 194400, Note_off_c, 15, 67, 95
7, 194400, Note_off_c, 15, 63, 95
7, 194400, Note_off_c, 15, 58, 95
7, 194400, Note_off_c, 15, 51, 95
7, 194400, Note_on_c, 15, 70, 95
7, 194400, Note_on_c, 15, 67, 95
7, 194400, Note_on_c, 15, 63, 95
7, 194400, Note_on_c, 15, 58, 95
7, 194400, Note_on_c, 15, 51, 95
7, 194880, Note_off_c, 15, 70, 95
7, 194880, Note_off_c, 15, 67, 95
7, 194880, Note_off_c, 15, 63, 95
7, 194880, Note_off_c, 15, 58, 95
7, 194880, Note_off_c, 15, 51, 95
7, 194880, Note_on_c, 15, 70, 95
7, 194880, Note_on_c, 15, 67, 95
7, 194880, Note_on_c, 15, 63, 95
7, 194880, Note_on_c, 15, 58, 95
7, 194880, Note_on_c, 15, 51, 95
7, 195360, Note_off_c, 15, 70, 95
7, 195360, Note_off_c, 15, 67, 95
7, 195360, Note_off_c, 15, 63, 95
7, 195360, Note_off_c, 15, 58, 95
7, 195360, Note_off_c, 15, 51, 95
7, 195360, Note_on_c, 15, 70, 95
7, 195360, Note_on_c, 15, 67, 95
7, 195360, Note_on_c, 15, 63, 95
7, 195360, Note_on_c, 15, 58, 95
7, 195360, Note_on_c, 15, 51, 95
7, 195840, Note_off_c, 15, 70, 95
7, 195840, Note_off_c, 15, 67, 95
7, 195840, Note_off_c, 15, 63, 95
7, 195840, Note_off_c, 15, 58, 95
7, 195840, Note_off_c, 15, 51, 95
7, 195840, Note_on_c, 15, 70, 95
7, 195840, Note_on_c, 15, 65, 95
7, 195840, Note_on_c, 15, 61, 95
7, 195840, Note_on_c, 15, 56, 95
7, 195840, Note_on_c, 15, 49, 95
7, 196320, Note_off_c, 15, 70, 95
7, 196320, Note_off_c, 15, 65, 95
7, 196320, Note_off_c, 15, 61, 95
7, 196320, Note_off_c, 15, 56, 95
7, 196320, Note_off_c, 15, 49, 95
7, 196320, Note_on_c, 15, 70, 95
7, 196320, Note_on_c, 15, 65, 95
7, 196320, Note_on_c, 15, 61, 95
7, 196320, Note_on_c, 15, 56, 95
7, 196320, Note_on_c, 15, 49, 95
7, 196800, Note_off_c, 15, 70, 95
7, 196800, Note_off_c, 15, 65, 95
7, 196800, Note_off_c, 15, 61, 95
7, 196800, Note_off_c, 15, 56, 95
7, 196800, Note_off_c, 15, 49, 95
7, 196800, Note_on_c, 15, 70, 95
7, 196800, Note_on_c, 15, 65, 95
7, 196800, Note_on_c, 15, 61, 95
7, 196800, Note_on_c, 15, 56, 95
7, 196800, Note_on_c, 15, 49, 95
7, 197280, Note_off_c, 15, 70, 95
7, 197280, Note_off_c, 15, 65, 95
7, 197280, Note_off_c, 15, 61, 95
7, 197280, Note_off_c, 15, 56, 95
7, 197280, Note_off_c, 15, 49, 95
7, 197280, Note_on_c, 15, 70, 95
7, 197280, Note_on_c, 15, 65, 95
7, 197280, Note_on_c, 15, 61, 95
7, 197280, Note_on_c, 15, 56, 95
7, 197280, Note_on_c, 15, 49, 95
7, 198240, Note_off_c, 15, 70, 95
7, 198240, Note_off_c, 15, 65, 95
7, 198240, Note_off_c, 15, 61, 95
7, 198240, Note_off_c, 15, 56, 95
7, 198240, Note_off_c, 15, 49, 95
7, 198240, Note_on_c, 15, 70, 95
7, 198240, Note_on_c, 15, 65, 95
7, 198240, Note_on_c, 15, 61, 95
7, 198240, Note_on_c, 15, 56, 95
7, 198240, Note_on_c, 15, 49, 95
7, 198720, Note_off_c, 15, 70, 95
7, 198720, Note_off_c, 15, 65, 95
7, 198720, Note_off_c, 15, 61, 95
7, 198720, Note_off_c, 15, 56, 95
7, 198720, Note_off_c, 15, 49, 95
7, 198720, Note_on_c, 15, 70, 95
7, 198720, Note_on_c, 15, 65, 95
7, 198720, Note_on_c, 15, 61, 95
7, 198720, Note_on_c, 15, 56, 95
7, 198720, Note_on_c, 15, 49, 95
7, 199200, Note_off_c, 15, 70, 95
7, 199200, Note_off_c, 15, 65, 95
7, 199200, Note_off_c, 15, 61, 95
7, 199200, Note_off_c, 15, 56, 95
7, 199200, Note_off_c, 15, 49, 95
7, 199200, Note_on_c, 15, 70, 95
7, 199200, Note_on_c, 15, 65, 95
7, 199200, Note_on_c, 15, 61, 95
7, 199200, Note_on_c, 15, 56, 95
7, 199200, Note_on_c, 15, 49, 95
7, 199680, Note_off_c, 15, 70, 95
7, 199680, Note_off_c, 15, 65, 95
7, 199680, Note_off_c, 15, 61, 95
7, 199680, Note_off_c, 15, 56, 95
7, 199680, Note_off_c, 15, 49, 95
7, 199680, Note_on_c, 15, 67, 95
7, 199680, Note_on_c, 15, 64, 95
7, 199680, Note_on_c, 15, 58, 95
7, 199680, Note_on_c, 15, 55, 95
7, 199680, Note_on_c, 15, 48, 95
7, 200160, Note_off_c, 15, 67, 95
7, 200160, Note_off_c, 15, 64, 95
7, 200160, Note_off_c, 15, 58, 95
7, 200160, Note_off_c, 15, 55, 95
7, 200160, Note_off_c, 15, 48, 95
7, 200160, Note_on_c, 15, 67, 95
7, 200160, Note_on_c, 15, 64, 95
7, 200160, Note_on_c, 15, 58, 95
7, 200160, Note_on_c, 15, 55, 95
7, 200160, Note_on_c, 15, 48, 95
7, 200640, Note_off_c, 15, 67, 95
7, 200640, Note_off_c, 15, 64, 95
7, 200640, Note_off_c, 15, 58, 95
7, 200640, Note_off_c, 15, 55, 95
7, 200640, Note_off_c, 15, 48, 95
7, 200640, Note_on_c, 15, 67, 95
7, 200640, Note_on_c, 15, 64, 95
7, 200640, Note_on_c, 15, 58, 95
7, 200640, Note_on_c, 15, 55, 95
7, 200640, Note_on_c, 15, 48, 95
7, 201120, Note_off_c, 15, 67, 95
7, 201120, Note_off_c, 15, 64, 95
7, 201120, Note_off_c, 15, 58, 95
7, 201120, Note_off_c, 15, 55, 95
7, 201120, Note_off_c, 15, 48, 95
7, 201120, Note_on_c, 15, 67, 95
7, 201120, Note_on_c, 15, 64, 95
7, 201120, Note_on_c, 15, 58, 95
7, 201120, Note_on_c, 15, 55, 95
7, 201120, Note_on_c, 15, 48, 95
7, 202080, Note_off_c, 15, 67, 95
7, 202080, Note_off_c, 15, 64, 95
7, 202080, Note_off_c, 15, 58, 95
7, 202080, Note_off_c, 15, 55, 95
7, 202080, Note_off_c, 15, 48, 95
7, 202080, Note_on_c, 15, 67, 95
7, 202080, Note_on_c, 15, 64, 95
7, 202080, Note_on_c, 15, 58, 95
7, 202080, Note_on_c, 15, 55, 95
7, 202080, Note_on_c, 15, 48, 95
7, 202560, Note_off_c, 15, 67, 95
7, 202560, Note_off_c, 15, 64, 95
7, 202560, Note_off_c, 15, 58, 95
7, 202560, Note_off_c, 15, 55, 95
7, 202560, Note_off_c, 15, 48, 95
7, 202560, Note_on_c, 15, 67, 95
7, 202560, Note_on_c, 15, 64, 95
7, 202560, Note_on_c, 15, 58, 95
7, 202560, Note_on_c, 15, 55, 95
7, 202560, Note_on_c, 15, 48, 95
7, 203040, Note_off_c, 15, 67, 95
7, 203040, Note_off_c, 15, 64, 95
7, 203040, Note_off_c, 15, 58, 95
7, 203040, Note_off_c, 15, 55, 95
7, 203040, Note_off_c, 15, 48, 95
7, 203040, Note_on_c, 15, 67, 95
7, 203040, Note_on_c, 15, 64, 95
7, 203040, Note_on_c, 15, 58, 95
7, 203040, Note_on_c, 15, 55, 95
7, 203040, Note_on_c, 15, 48, 95
7, 203520, Note_off_c, 15, 67, 95
7, 203520, Note_off_c, 15, 64, 95
7, 203520, Note_off_c, 15, 58, 95
7, 203520, Note_off_c, 15, 55, 95
7, 203520, Note_off_c, 15, 48, 95
7, 203520, Note_on_c, 15, 67, 95
7, 203520, Note_on_c, 15, 64, 95
7, 203520, Note_on_c, 15, 58, 95
7, 203520, Note_on_c, 15, 55, 95
7, 203520, Note_on_c, 15, 48, 95
7, 204000, Note_off_c, 15, 67, 95
7, 204000, Note_off_c, 15, 64, 95
7, 204000, Note_off_c, 15, 58, 95
7, 204000, Note_off_c, 15, 55, 95
7, 204000, Note_off_c, 15, 48, 95
7, 204000, Note_on_c, 15, 67, 95
7, 204000, Note_on_c, 15, 64, 95
7, 204000, Note_on_c, 15, 58, 95
7, 204000, Note_on_c, 15, 55, 95
7, 204000, Note_on_c, 15, 48, 95
7, 204480, Note_off_c, 15, 67, 95
7, 204480, Note_off_c, 15, 64, 95
7, 204480, Note_off_c, 15, 58, 95
7, 204480, Note_off_c, 15, 55, 95
7, 204480, Note_off_c, 15, 48, 95
7, 204480, Note_on_c, 15, 67, 95
7, 204480, Note_on_c, 15, 64, 95
7, 204480, Note_on_c, 15, 58, 95
7, 204480, Note_on_c, 15, 55, 95
7, 204480, Note_on_c, 15, 48, 95
7, 204960, Note_off_c, 15, 67, 95
7, 204960, Note_off_c, 15, 64, 95
7, 204960, Note_off_c, 15, 58, 95
7, 204960, Note_off_c, 15, 55, 95
7, 204960, Note_off_c, 15, 48, 95
7, 204960, Note_on_c, 15, 67, 95
7, 204960, Note_on_c, 15, 64, 95
7, 204960, Note_on_c, 15, 58, 95
7, 204960, Note_on_c, 15, 55, 95
7, 204960, Note_on_c, 15, 48, 95
7, 205920, Note_off_c, 15, 67, 95
7, 205920, Note_off_c, 15, 64, 95
7, 205920, Note_off_c, 15, 58, 95
7, 205920, Note_off_c, 15, 55, 95
7, 205920, Note_off_c, 15, 48, 95
7, 205920, Note_on_c, 15, 67, 95
7, 205920, Note_on_c, 15, 64, 95
7, 205920, Note_on_c, 15, 58, 95
7, 205920, Note_on_c, 15, 55, 95
7, 205920, Note_on_c, 15, 48, 95
7, 206400, Note_off_c, 15, 67, 95
7, 206400, Note_off_c, 15, 64, 95
7, 206400, Note_off_c, 15, 58, 95
7, 206400, Note_off_c, 15, 55, 95
7, 206400, Note_off_c, 15, 48, 95
7, 206400, Note_on_c, 15, 67, 95
7, 206400, Note_on_c, 15, 64, 95
7, 206400, Note_on_c, 15, 58, 95
7, 206400, Note_on_c, 15, 55, 95
7, 206400, Note_on_c, 15, 48, 95
7, 206880, Note_off_c, 15, 67, 95
7, 206880, Note_off_c, 15, 64, 95
7, 206880, Note_off_c, 15, 58, 95
7, 206880, Note_off_c, 15, 55, 95
7, 206880, Note_off_c, 15, 48, 95
7, 206880, Note_on_c, 15, 67, 95
7, 206880, Note_on_c, 15, 64, 95
7, 206880, Note_on_c, 15, 58, 95
7, 206880, Note_on_c, 15, 55, 95
7, 206880, Note_on_c, 15, 48, 95
7, 207360, Note_off_c, 15, 67, 95
7, 207360, Note_off_c, 15, 64, 95
7, 207360, Note_off_c, 15, 58, 95
7, 207360, Note_off_c, 15, 55, 95
7, 207360, Note_off_c, 15, 48, 95
7, 207360, Note_on_c, 15, 65, 95
7, 207360, Note_on_c, 15, 60, 95
7, 207360, Note_on_c, 15, 56, 95
7, 207360, Note_on_c, 15, 51, 95
7, 207360, Note_on_c, 15, 48, 95
7, 207360, Note_on_c, 15, 41, 95
7, 207840, Note_off_c, 15, 65, 95
7, 207840, Note_off_c, 15, 60, 95
7, 207840, Note_off_c, 15, 56, 95
7, 207840, Note_off_c, 15, 51, 95
7, 207840, Note_off_c, 15, 48, 95
7, 207840, Note_off_c, 15, 41, 95
7, 207840, Note_on_c, 15, 65, 95
7, 207840, Note_on_c, 15, 60, 95
7, 207840, Note_on_c, 15, 56, 95
7, 207840, Note_on_c, 15, 51, 95
7, 207840, Note_on_c, 15, 48, 95
7, 207840, Note_on_c, 15, 41, 95
7, 208320, Note_off_c, 15, 65, 95
7, 208320, Note_off_c, 15, 60, 95
7, 208320, Note_off_c, 15, 56, 95
7, 208320, Note_off_c, 15, 51, 95
7, 208320, Note_off_c, 15, 48, 95
7, 208320, Note_off_c, 15, 41, 95
7, 208320, Note_on_c, 15, 65, 95
7, 208320, Note_on_c, 15, 60, 95
7, 208320, Note_on_c, 15, 56, 95
7, 208320, Note_on_c, 15, 51, 95
7, 208320, Note_on_c, 15, 48, 95
7, 208320, Note_on_c, 15, 41, 95
7, 208800, Note_off_c, 15, 65, 95
7, 208800, Note_off_c, 15, 60, 95
7, 208800, Note_off_c, 15, 56, 95
7, 208800, Note_off_c, 15, 51, 95
7, 208800, Note_off_c, 15, 48, 95
7, 208800, Note_off_c, 15, 41, 95
7, 208800, Note_on_c, 15, 65, 95
7, 208800, Note_on_c, 15, 60, 95
7, 208800, Note_on_c, 15, 56, 95
7, 208800, Note_on_c, 15, 51, 95
7, 208800, Note_on_c, 15, 48, 95
7, 208800, Note_on_c, 15, 41, 95
7, 209760, Note_off_c, 15, 65, 95
7, 209760, Note_off_c, 15, 60, 95
7, 209760, Note_off_c, 15, 56, 95
7, 209760, Note_off_c, 15, 51, 95
7, 209760, Note_off_c, 15, 48, 95
7, 209760, Note_off_c, 15, 41, 95
7, 209760, Note_on_c, 15, 65, 95
7, 209760, Note_on_c, 15, 60, 95
7, 209760, Note_on_c, 15, 56, 95
7, 209760, Note_on_c, 15, 51, 95
7, 209760, Note_on_c, 15, 48, 95
7, 209760, Note_on_c, 15, 41, 95
7, 210240, Note_off_c, 15, 65, 95
7, 210240, Note_off_c, 15, 60, 95
7, 210240, Note_off_c, 15, 56, 95
7, 210240, Note_off_c, 15, 51, 95
7, 210240, Note_off_c, 15, 48, 95
7, 210240, Note_off_c, 15, 41, 95
7, 210240, Note_on_c, 15, 65, 95
7, 210240, Note_on_c, 15, 60, 95
7, 210240, Note_on_c, 15, 56, 95
7, 210240, Note_on_c, 15, 51, 95
7, 210240, Note_on_c, 15, 48, 95
7, 210240, Note_on_c, 15, 41, 95
7, 210720, Note_off_c, 15, 65, 95
7, 210720, Note_off_c, 15, 60, 95
7, 210720, Note_off_c, 15, 56, 95
7, 210720, Note_off_c, 15, 51, 95
7, 210720, Note_off_c, 15, 48, 95
7, 210720, Note_off_c, 15, 41, 95
7, 210720, Note_on_c, 15, 65, 95
7, 210720, Note_on_c, 15, 60, 95
7, 210720, Note_on_c, 15, 56, 95
7, 210720, Note_on_c, 15, 51, 95
7, 210720, Note_on_c, 15, 48, 95
7, 210720, Note_on_c, 15, 41, 95
7, 211200, Note_off_c, 15, 65, 95
7, 211200, Note_off_c, 15, 60, 95
7, 211200, Note_off_c, 15, 56, 95
7, 211200, Note_off_c, 15, 51, 95
7, 211200, Note_off_c, 15, 48, 95
7, 211200, Note_off_c, 15, 41, 95
7, 211200, Note_on_c, 15, 68, 95
7, 211200, Note_on_c, 15, 63, 95
7, 211200, Note_on_c, 15, 59, 95
7, 211200, Note_on_c, 15, 53, 95
7, 211200, Note_on_c, 15, 44, 95
7, 211680, Note_off_c, 15, 68, 95
7, 211680, Note_off_c, 15, 63, 95
7, 211680, Note_off_c, 15, 59, 95
7, 211680, Note_off_c, 15, 53, 95
7, 211680, Note_off_c, 15, 44, 95
7, 211680, Note_on_c, 15, 68, 95
7, 211680, Note_on_c, 15, 63, 95
7, 211680, Note_on_c, 15, 59, 95
7, 211680, Note_on_c, 15, 53, 95
7, 211680, Note_on_c, 15, 44, 95
7, 212160, Note_off_c, 15, 68, 95
7, 212160, Note_off_c, 15, 63, 95
7, 212160, Note_off_c, 15, 59, 95
7, 212160, Note_off_c, 15, 53, 95
7, 212160, Note_off_c, 15, 44, 95
7, 212160, Note_on_c, 15, 68, 95
7, 212160, Note_on_c, 15, 63, 95
7, 212160, Note_on_c, 15, 59, 95
7, 212160, Note_on_c, 15, 53, 95
7, 212160, Note_on_c, 15, 44, 95
7, 212640, Note_off_c, 15, 68, 95
7, 212640, Note_off_c, 15, 63, 95
7, 212640, Note_off_c, 15, 59, 95
7, 212640, Note_off_c, 15, 53, 95
7, 212640, Note_off_c, 15, 44, 95
7, 212640, Note_on_c, 15, 68, 95
7, 212640, Note_on_c, 15, 63, 95
7, 212640, Note_on_c, 15, 59, 95
7, 212640, Note_on_c, 15, 53, 95
7, 212640, Note_on_c, 15, 44, 95
7, 213600, Note_off_c, 15, 68, 95
7, 213600, Note_off_c, 15, 63, 95
7, 213600, Note_off_c, 15, 59, 95
7, 213600, Note_off_c, 15, 53, 95
7, 213600, Note_off_c, 15, 44, 95
7, 213600, Note_on_c, 15, 68, 95
7, 213600, Note_on_c, 15, 63, 95
7, 213600, Note_on_c, 15, 59, 95
7, 213600, Note_on_c, 15, 53, 95
7, 213600, Note_on_c, 15, 44, 95
7, 214080, Note_off_c, 15, 68, 95
7, 214080, Note_off_c, 15, 63, 95
7, 214080, Note_off_c, 15, 59, 95
7, 214080, Note_off_c, 15, 53, 95
7, 214080, Note_off_c, 15, 44, 95
7, 214080, Note_on_c, 15, 68, 95
7, 214080, Note_on_c, 15, 63, 95
7, 214080, Note_on_c, 15, 59, 95
7, 214080, Note_on_c, 15, 53, 95
7, 214080, Note_on_c, 15, 44, 95
7, 214560, Note_off_c, 15, 68, 95
7, 214560, Note_off_c, 15, 63, 95
7, 214560, Note_off_c, 15, 59, 95
7, 214560, Note_off_c, 15, 53, 95
7, 214560, Note_off_c, 15, 44, 95
7, 214560, Note_on_c, 15, 68, 95
7, 214560, Note_on_c, 15, 63, 95
7, 214560, Note_on_c, 15, 59, 95
7, 214560, Note_on_c, 15, 53, 95
7, 214560, Note_on_c, 15, 44, 95
7, 215040, Note_off_c, 15, 68, 95
7, 215040, Note_off_c, 15, 63, 95
7, 215040, Note_off_c, 15, 59, 95
7, 215040, Note_off_c, 15, 53, 95
7, 215040, Note_off_c, 15, 44, 95
7, 215040, Note_on_c, 15, 70, 95
7, 215040, Note_on_c, 15, 67, 95
7, 215040, Note_on_c, 15, 63, 95
7, 215040, Note_on_c, 15, 58, 95
7, 215040, Note_on_c, 15, 51, 95
7, 215520, Note_off_c, 15, 70, 95
7, 215520, Note_off_c, 15, 67, 95
7, 215520, Note_off_c, 15, 63, 95
7, 215520, Note_off_c, 15, 58, 95
7, 215520, Note_off_c, 15, 51, 95
7, 215520, Note_on_c, 15, 70, 95
7, 215520, Note_on_c, 15, 67, 95
7, 215520, Note_on_c, 15, 63, 95
7, 215520, Note_on_c, 15, 58, 95
7, 215520, Note_on_c, 15, 51, 95
7, 216000, Note_off_c, 15, 70, 95
7, 216000, Note_off_c, 15, 67, 95
7, 216000, Note_off_c, 15, 63, 95
7, 216000, Note_off_c, 15, 58, 95
7, 216000, Note_off_c, 15, 51, 95
7, 216000, Note_on_c, 15, 70, 95
7, 216000, Note_on_c, 15, 67, 95
7, 216000, Note_on_c, 15, 63, 95
7, 216000, Note_on_c, 15, 58, 95
7, 216000, Note_on_c, 15, 51, 95
7, 216480, Note_off_c, 15, 70, 95
7, 216480, Note_off_c, 15, 67, 95
7, 216480, Note_off_c, 15, 63, 95
7, 216480, Note_off_c, 15, 58, 95
7, 216480, Note_off_c, 15, 51, 95
7, 216480, Note_on_c, 15, 67, 95
7, 216480, Note_on_c, 15, 62, 95
7, 216480, Note_on_c, 15, 58, 95
7, 216480, Note_on_c, 15, 53, 95
7, 216480, Note_on_c, 15, 50, 95
7, 216480, Note_on_c, 15, 43, 95
7, 217440, Note_off_c, 15, 67, 95
7, 217440, Note_off_c, 15, 62, 95
7, 217440, Note_off_c, 15, 58, 95
7, 217440, Note_off_c, 15, 53, 95
7, 217440, Note_off_c, 15, 50, 95
7, 217440, Note_off_c, 15, 43, 95
7, 217440, Note_on_c, 15, 67, 95
7, 217440, Note_on_c, 15, 62, 95
7, 217440, Note_on_c, 15, 58, 95
7, 217440, Note_on_c, 15, 53, 95
7, 217440, Note_on_c, 15, 50, 95
7, 217440, Note_on_c, 15, 43, 95
7, 217920, Note_off_c, 15, 67, 95
7, 217920, Note_off_c, 15, 62, 95
7, 217920, Note_off_c, 15, 58, 95
7, 217920, Note_off_c, 15, 53, 95
7, 217920, Note_off_c, 15, 50, 95
7, 217920, Note_off_c, 15, 43, 95
7, 217920, Note_on_c, 15, 67, 95
7, 217920, Note_on_c, 15, 62, 95
7, 217920, Note_on_c, 15, 58, 95
7, 217920, Note_on_c, 15, 53, 95
7, 217920, Note_on_c, 15, 50, 95
7, 217920, Note_on_c, 15, 43, 95
7, 218400, Note_off_c, 15, 67, 95
7, 218400, Note_off_c, 15, 62, 95
7, 218400, Note_off_c, 15, 58, 95
7, 218400, Note_off_c, 15, 53, 95
7, 218400, Note_off_c, 15, 50, 95
7, 218400, Note_off_c, 15, 43, 95
7, 218400, Note_on_c, 15, 67, 95
7, 218400, Note_on_c, 15, 62, 95
7, 218400, Note_on_c, 15, 58, 95
7, 218400, Note_on_c, 15, 53, 95
7, 218400, Note_on_c, 15, 50, 95
7, 218400, Note_on_c, 15, 43, 95
7, 218880, Note_off_c, 15, 67, 95
7, 218880, Note_off_c, 15, 62, 95
7, 218880, Note_off_c, 15, 58, 95
7, 218880, Note_off_c, 15, 53, 95
7, 218880, Note_off_c, 15, 50, 95
7, 218880, Note_off_c, 15, 43, 95
7, 218880, Note_on_c, 15, 65, 95
7, 218880, Note_on_c, 15, 60, 95
7, 218880, Note_on_c, 15, 56, 95
7, 218880, Note_on_c, 15, 51, 95
7, 218880, Note_on_c, 15, 48, 95
7, 218880, Note_on_c, 15, 41, 95
7, 219360, Note_off_c, 15, 65, 95
7, 219360, Note_off_c, 15, 60, 95
7, 219360, Note_off_c, 15, 56, 95
7, 219360, Note_off_c, 15, 51, 95
7, 219360, Note_off_c, 15, 48, 95
7, 219360, Note_off_c, 15, 41, 95
7, 219360, Note_on_c, 15, 65, 95
7, 219360, Note_on_c, 15, 60, 95
7, 219360, Note_on_c, 15, 56, 95
7, 219360, Note_on_c, 15, 51, 95
7, 219360, Note_on_c, 15, 48, 95
7, 219360, Note_on_c, 15, 41, 95
7, 219840, Note_off_c, 15, 65, 95
7, 219840, Note_off_c, 15, 60, 95
7, 219840, Note_off_c, 15, 56, 95
7, 219840, Note_off_c, 15, 51, 95
7, 219840, Note_off_c, 15, 48, 95
7, 219840, Note_off_c, 15, 41, 95
7, 219840, Note_on_c, 15, 65, 95
7, 219840, Note_on_c, 15, 60, 95
7, 219840, Note_on_c, 15, 56, 95
7, 219840, Note_on_c, 15, 51, 95
7, 219840, Note_on_c, 15, 48, 95
7, 219840, Note_on_c, 15, 41, 95
7, 220320, Note_off_c, 15, 65, 95
7, 220320, Note_off_c, 15, 60, 95
7, 220320, Note_off_c, 15, 56, 95
7, 220320, Note_off_c, 15, 51, 95
7, 220320, Note_off_c, 15, 48, 95
7, 220320, Note_off_c, 15, 41, 95
7, 220320, Note_on_c, 15, 67, 95
7, 220320, Note_on_c, 15, 64, 95
7, 220320, Note_on_c, 15, 58, 95
7, 220320, Note_on_c, 15, 55, 95
7, 220320, Note_on_c, 15, 48, 95
7, 221280, Note_off_c, 15, 67, 95
7, 221280, Note_off_c, 15, 64, 95
7, 221280, Note_off_c, 15, 58, 95
7, 221280, Note_off_c, 15, 55, 95
7, 221280, Note_off_c, 15, 48, 95
7, 221280, Note_on_c, 15, 67, 95
7, 221280, Note_on_c, 15, 64, 95
7, 221280, Note_on_c, 15, 58, 95
7, 221280, Note_on_c, 15, 55, 95
7, 221280, Note_on_c, 15, 48, 95
7, 221760, Note_off_c, 15, 67, 95
7, 221760, Note_off_c, 15, 64, 95
7, 221760, Note_off_c, 15, 58, 95
7, 221760, Note_off_c, 15, 55, 95
7, 221760, Note_off_c, 15, 48, 95
7, 221760, Note_on_c, 15, 67, 95
7, 221760, Note_on_c, 15, 64, 95
7, 221760, Note_on_c, 15, 58, 95
7, 221760, Note_on_c, 15, 55, 95
7, 221760, Note_on_c, 15, 48, 95
7, 222240, Note_off_c, 15, 67, 95
7, 222240, Note_off_c, 15, 64, 95
7, 222240, Note_off_c, 15, 58, 95
7, 222240, Note_off_c, 15, 55, 95
7, 222240, Note_off_c, 15, 48, 95
7, 222240, Note_on_c, 15, 67, 95
7, 222240, Note_on_c, 15, 64, 95
7, 222240, Note_on_c, 15, 58, 95
7, 222240, Note_on_c, 15, 55, 95
7, 222240, Note_on_c, 15, 48, 95
7, 222720, Note_off_c, 15, 67, 95
7, 222720, Note_off_c, 15, 64, 95
7, 222720, Note_off_c, 15, 58, 95
7, 222720, Note_off_c, 15, 55, 95
7, 222720, Note_off_c, 15, 48, 95
7, 222720, Note_on_c, 15, 65, 95
7, 222720, Note_on_c, 15, 60, 95
7, 222720, Note_on_c, 15, 56, 95
7, 222720, Note_on_c, 15, 51, 95
7, 222720, Note_on_c, 15, 48, 95
7, 222720, Note_on_c, 15, 41, 95
7, 223200, Note_off_c, 15, 65, 95
7, 223200, Note_off_c, 15, 60, 95
7, 223200, Note_off_c, 15, 56, 95
7, 223200, Note_off_c, 15, 51, 95
7, 223200, Note_off_c, 15, 48, 95
7, 223200, Note_off_c, 15, 41, 95
7, 223200, Note_on_c, 15, 65, 95
7, 223200, Note_on_c, 15, 60, 95
7, 223200, Note_on_c, 15, 56, 95
7, 223200, Note_on_c, 15, 51, 95
7, 223200, Note_on_c, 15, 48, 95
7, 223200, Note_on_c, 15, 41, 95
7, 223680, Note_off_c, 15, 65, 95
7, 223680, Note_off_c, 15, 60, 95
7, 223680, Note_off_c, 15, 56, 95
7, 223680, Note_off_c, 15, 51, 95
7, 223680, Note_off_c, 15, 48, 95
7, 223680, Note_off_c, 15, 41, 95
7, 223680, Note_on_c, 15, 65, 95
7, 223680, Note_on_c, 15, 60, 95
7, 223680, Note_on_c, 15, 56, 95
7, 223680, Note_on_c, 15, 51, 95
7, 223680, Note_on_c, 15, 48, 95
7, 223680, Note_on_c, 15, 41, 95
7, 224160, Note_off_c, 15, 65, 95
7, 224160, Note_off_c, 15, 60, 95
7, 224160, Note_off_c, 15, 56, 95
7, 224160, Note_off_c, 15, 51, 95
7, 224160, Note_off_c, 15, 48, 95
7, 224160, Note_off_c, 15, 41, 95
7, 224160, Note_on_c, 15, 67, 95
7, 224160, Note_on_c, 15, 62, 95
7, 224160, Note_on_c, 15, 59, 95
7, 224160, Note_on_c, 15, 53, 95
7, 224160, Note_on_c, 15, 50, 95
7, 224160, Note_on_c, 15, 43, 95
7, 225120, Note_off_c, 15, 67, 95
7, 225120, Note_off_c, 15, 62, 95
7, 225120, Note_off_c, 15, 59, 95
7, 225120, Note_off_c, 15, 53, 95
7, 225120, Note_off_c, 15, 50, 95
7, 225120, Note_off_c, 15, 43, 95
7, 225120, Note_on_c, 15, 67, 95
7, 225120, Note_on_c, 15, 62, 95
7, 225120, Note_on_c, 15, 59, 95
7, 225120, Note_on_c, 15, 53, 95
7, 225120, Note_on_c, 15, 50, 95
7, 225120, Note_on_c, 15, 43, 95
7, 225600, Note_off_c, 15, 67, 95
7, 225600, Note_off_c, 15, 62, 95
7, 225600, Note_off_c, 15, 59, 95
7, 225600, Note_off_c, 15, 53, 95
7, 225600, Note_off_c, 15, 50, 95
7, 225600, Note_off_c, 15, 43, 95
7, 225600, Note_on_c, 15, 67, 95
7, 225600, Note_on_c, 15, 62, 95
7, 225600, Note_on_c, 15, 59, 95
7, 225600, Note_on_c, 15, 53, 95
7, 225600, Note_on_c, 15, 50, 95
7, 225600, Note_on_c, 15, 43, 95
7, 226080, Note_off_c, 15, 67, 95
7, 226080, Note_off_c, 15, 62, 95
7, 226080, Note_off_c, 15, 59, 95
7, 226080, Note_off_c, 15, 53, 95
7, 226080, Note_off_c, 15, 50, 95
7, 226080, Note_off_c, 15, 43, 95
7, 226080, Note_on_c, 15, 67, 95
7, 226080, Note_on_c, 15, 62, 95
7, 226080, Note_on_c, 15, 59, 95
7, 226080, Note_on_c, 15, 53, 95
7, 226080, Note_on_c, 15, 50, 95
7, 226080, Note_on_c, 15, 43, 95
7, 226560, Note_off_c, 15, 67, 95
7, 226560, Note_off_c, 15, 62, 95
7, 226560, Note_off_c, 15, 59, 95
7, 226560, Note_off_c, 15, 53, 95
7, 226560, Note_off_c, 15, 50, 95
7, 226560, Note_off_c, 15, 43, 95
7, 226560, Note_on_c, 15, 65, 95
7, 226560, Note_on_c, 15, 60, 95
7, 226560, Note_on_c, 15, 56, 95
7, 226560, Note_on_c, 15, 51, 95
7, 226560, Note_on_c, 15, 46, 95
7, 227040, Note_off_c, 15, 65, 95
7, 227040, Note_off_c, 15, 60, 95
7, 227040, Note_off_c, 15, 56, 95
7, 227040, Note_off_c, 15, 51, 95
7, 227040, Note_off_c, 15, 46, 95
7, 227040, Note_on_c, 15, 65, 95
7, 227040, Note_on_c, 15, 60, 95
7, 227040, Note_on_c, 15, 56, 95
7, 227040, Note_on_c, 15, 51, 95
7, 227040, Note_on_c, 15, 46, 95
7, 227520, Note_off_c, 15, 65, 95
7, 227520, Note_off_c, 15, 60, 95
7, 227520, Note_off_c, 15, 56, 95
7, 227520, Note_off_c, 15, 51, 95
7, 227520, Note_off_c, 15, 46, 95
7, 227520, Note_on_c, 15, 65, 95
7, 227520, Note_on_c, 15, 60, 95
7, 227520, Note_on_c, 15, 56, 95
7, 227520, Note_on_c, 15, 51, 95
7, 227520, Note_on_c, 15, 46, 95
7, 228000, Note_off_c, 15, 65, 95
7, 228000, Note_off_c, 15, 60, 95
7, 228000, Note_off_c, 15, 56, 95
7, 228000, Note_off_c, 15, 51, 95
7, 228000, Note_off_c, 15, 46, 95
7, 228000, Note_on_c, 15, 65, 95
7, 228000, Note_on_c, 15, 60, 95
7, 228000, Note_on_c, 15, 56, 95
7, 228000, Note_on_c, 15, 51, 95
7, 228000, Note_on_c, 15, 46, 95
7, 228960, Note_off_c, 15, 65, 95
7, 228960, Note_off_c, 15, 60, 95
7, 228960, Note_off_c, 15, 56, 95
7, 228960, Note_off_c, 15, 51, 95
7, 228960, Note_off_c, 15, 46, 95
7, 228960, Note_on_c, 15, 65, 95
7, 228960, Note_on_c, 15, 60, 95
7, 228960, Note_on_c, 15, 56, 95
7, 228960, Note_on_c, 15, 51, 95
7, 228960, Note_on_c, 15, 46, 95
7, 229440, Note_off_c, 15, 65, 95
7, 229440, Note_off_c, 15, 60, 95
7, 229440, Note_off_c, 15, 56, 95
7, 229440, Note_off_c, 15, 51, 95
7, 229440, Note_off_c, 15, 46, 95
7, 229440, Note_on_c, 15, 65, 95
7, 229440, Note_on_c, 15, 60, 95
7, 229440, Note_on_c, 15, 56, 95
7, 229440, Note_on_c, 15, 51, 95
7, 229440, Note_on_c, 15, 46, 95
7, 229920, Note_off_c, 15, 65, 95
7, 229920, Note_off_c, 15, 60, 95
7, 229920, Note_off_c, 15, 56, 95
7, 229920, Note_off_c, 15, 51, 95
7, 229920, Note_off_c, 15, 46, 95
7, 229920, Note_on_c, 15, 65, 95
7, 229920, Note_on_c, 15, 60, 95
7, 229920, Note_on_c, 15, 56, 95
7, 229920, Note_on_c, 15, 51, 95
7, 229920, Note_on_c, 15, 46, 95
7, 230400, Note_off_c, 15, 65, 95
7, 230400, Note_off_c, 15, 60, 95
7, 230400, Note_off_c, 15, 56, 95
7, 230400, Note_off_c, 15, 51, 95
7, 230400, Note_off_c, 15, 46, 95
7, 230400, Note_on_c, 15, 70, 95
7, 230400, Note_on_c, 15, 67, 95
7, 230400, Note_on_c, 15, 63, 95
7, 230400, Note_on_c, 15, 58, 95
7, 230400, Note_on_c, 15, 51, 95
7, 230880, Note_off_c, 15, 70, 95
7, 230880, Note_off_c, 15, 67, 95
7, 230880, Note_off_c, 15, 63, 95
7, 230880, Note_off_c, 15, 58, 95
7, 230880, Note_off_c, 15, 51, 95
7, 230880, Note_on_c, 15, 70, 95
7, 230880, Note_on_c, 15, 67, 95
7, 230880, Note_on_c, 15, 63, 95
7, 230880, Note_on_c, 15, 58, 95
7, 230880, Note_on_c, 15, 51, 95
7, 231360, Note_off_c, 15, 70, 95
7, 231360, Note_off_c, 15, 67, 95
7, 231360, Note_off_c, 15, 63, 95
7, 231360, Note_off_c, 15, 58, 95
7, 231360, Note_off_c, 15, 51, 95
7, 231360, Note_on_c, 15, 70, 95
7, 231360, Note_on_c, 15, 67, 95
7, 231360, Note_on_c, 15, 63, 95
7, 231360, Note_on_c, 15, 58, 95
7, 231360, Note_on_c, 15, 51, 95
7, 231840, Note_off_c, 15, 70, 95
7, 231840, Note_off_c, 15, 67, 95
7, 231840, Note_off_c, 15, 63, 95
7, 231840, Note_off_c, 15, 58, 95
7, 231840, Note_off_c, 15, 51, 95
7, 231840, Note_on_c, 15, 67, 95
7, 231840, Note_on_c, 15, 62, 95
7, 231840, Note_on_c, 15, 58, 95
7, 231840, Note_on_c, 15, 53, 95
7, 231840, Note_on_c, 15, 50, 95
7, 231840, Note_on_c, 15, 43, 95
7, 232800, Note_off_c, 15, 67, 95
7, 232800, Note_off_c, 15, 62, 95
7, 232800, Note_off_c, 15, 58, 95
7, 232800, Note_off_c, 15, 53, 95
7, 232800, Note_off_c, 15, 50, 95
7, 232800, Note_off_c, 15, 43, 95
7, 232800, Note_on_c, 15, 67, 95
7, 232800, Note_on_c, 15, 62, 95
7, 232800, Note_on_c, 15, 58, 95
7, 232800, Note_on_c, 15, 53, 95
7, 232800, Note_on_c, 15, 50, 95
7, 232800, Note_on_c, 15, 43, 95
7, 233280, Note_off_c, 15, 67, 95
7, 233280, Note_off_c, 15, 62, 95
7, 233280, Note_off_c, 15, 58, 95
7, 233280, Note_off_c, 15, 53, 95
7, 233280, Note_off_c, 15, 50, 95
7, 233280, Note_off_c, 15, 43, 95
7, 233280, Note_on_c, 15, 67, 95
7, 233280, Note_on_c, 15, 62, 95
7, 233280, Note_on_c, 15, 58, 95
7, 233280, Note_on_c, 15, 53, 95
7, 233280, Note_on_c, 15, 50, 95
7, 233280, Note_on_c, 15, 43, 95
7, 233760, Note_off_c, 15, 67, 95
7, 233760, Note_off_c, 15, 62, 95
7, 233760, Note_off_c, 15, 58, 95
7, 233760, Note_off_c, 15, 53, 95
7, 233760, Note_off_c, 15, 50, 95
7, 233760, Note_off_c, 15, 43, 95
7, 233760, Note_on_c, 15, 67, 95
7, 233760, Note_on_c, 15, 62, 95
7, 233760, Note_on_c, 15, 58, 95
7, 233760, Note_on_c, 15, 53, 95
7, 233760, Note_on_c, 15, 50, 95
7, 233760, Note_on_c, 15, 43, 95
7, 234240, Note_off_c, 15, 67, 95
7, 234240, Note_off_c, 15, 62, 95
7, 234240, Note_off_c, 15, 58, 95
7, 234240, Note_off_c, 15, 53, 95
7, 234240, Note_off_c, 15, 50, 95
7, 234240, Note_off_c, 15, 43, 95
7, 234240, Note_on_c, 15, 67, 95
7, 234240, Note_on_c, 15, 63, 95
7, 234240, Note_on_c, 15, 58, 95
7, 234240, Note_on_c, 15, 55, 95
7, 234240, Note_on_c, 15, 48, 95
7, 234720, Note_off_c, 15, 67, 95
7, 234720, Note_off_c, 15, 63, 95
7, 234720, Note_off_c, 15, 58, 95
7, 234720, Note_off_c, 15, 55, 95
7, 234720, Note_off_c, 15, 48, 95
7, 234720, Note_on_c, 15, 67, 95
7, 234720, Note_on_c, 15, 63, 95
7, 234720, Note_on_c, 15, 58, 95
7, 234720, Note_on_c, 15, 55, 95
7, 234720, Note_on_c, 15, 48, 95
7, 235200, Note_off_c, 15, 67, 95
7, 235200, Note_off_c, 15, 63, 95
7, 235200, Note_off_c, 15, 58, 95
7, 235200, Note_off_c, 15, 55, 95
7, 235200, Note_off_c, 15, 48, 95
7, 235200, Note_on_c, 15, 67, 95
7, 235200, Note_on_c, 15, 63, 95
7, 235200, Note_on_c, 15, 58, 95
7, 235200, Note_on_c, 15, 55, 95
7, 235200, Note_on_c, 15, 48, 95
7, 235680, Note_off_c, 15, 67, 95
7, 235680, Note_off_c, 15, 63, 95
7, 235680, Note_off_c, 15, 58, 95
7, 235680, Note_off_c, 15, 55, 95
7, 235680, Note_off_c, 15, 48, 95
7, 235680, Note_on_c, 15, 67, 95
7, 235680, Note_on_c, 15, 63, 95
7, 235680, Note_on_c, 15, 58, 95
7, 235680, Note_on_c, 15, 55, 95
7, 235680, Note_on_c, 15, 48, 95
7, 236640, Note_off_c, 15, 67, 95
7, 236640, Note_off_c, 15, 63, 95
7, 236640, Note_off_c, 15, 58, 95
7, 236640, Note_off_c, 15, 55, 95
7, 236640, Note_off_c, 15, 48, 95
7, 236640, Note_on_c, 15, 67, 95
7, 236640, Note_on_c, 15, 63, 95
7, 236640, Note_on_c, 15, 58, 95
7, 236640, Note_on_c, 15, 55, 95
7, 236640, Note_on_c, 15, 48, 95
7, 237120, Note_off_c, 15, 67, 95
7, 237120, Note_off_c, 15, 63, 95
7, 237120, Note_off_c, 15, 58, 95
7, 237120, Note_off_c, 15, 55, 95
7, 237120, Note_off_c, 15, 48, 95
7, 237120, Note_on_c, 15, 67, 95
7, 237120, Note_on_c, 15, 63, 95
7, 237120, Note_on_c, 15, 58, 95
7, 237120, Note_on_c, 15, 55, 95
7, 237120, Note_on_c, 15, 48, 95
7, 237600, Note_off_c, 15, 67, 95
7, 237600, Note_off_c, 15, 63, 95
7, 237600, Note_off_c, 15, 58, 95
7, 237600, Note_off_c, 15, 55, 95
7, 237600, Note_off_c, 15, 48, 95
7, 237600, Note_on_c, 15, 67, 95
7, 237600, Note_on_c, 15, 63, 95
7, 237600, Note_on_c, 15, 58, 95
7, 237600, Note_on_c, 15, 55, 95
7, 237600, Note_on_c, 15, 48, 95
7, 238080, Note_off_c, 15, 67, 95
7, 238080, Note_off_c, 15, 63, 95
7, 238080, Note_off_c, 15, 58, 95
7, 238080, Note_off_c, 15, 55, 95
7, 238080, Note_off_c, 15, 48, 95
7, 238080, Note_on_c, 15, 65, 95
7, 238080, Note_on_c, 15, 60, 95
7, 238080, Note_on_c, 15, 56, 95
7, 238080, Note_on_c, 15, 51, 95
7, 238080, Note_on_c, 15, 48, 95
7, 238080, Note_on_c, 15, 41, 95
7, 238560, Note_off_c, 15, 65, 95
7, 238560, Note_off_c, 15, 60, 95
7, 238560, Note_off_c, 15, 56, 95
7, 238560, Note_off_c, 15, 51, 95
7, 238560, Note_off_c, 15, 48, 95
7, 238560, Note_off_c, 15, 41, 95
7, 238560, Note_on_c, 15, 65, 95
7, 238560, Note_on_c, 15, 60, 95
7, 238560, Note_on_c, 15, 56, 95
7, 238560, Note_on_c, 15, 51, 95
7, 238560, Note_on_c, 15, 48, 95
7, 238560, Note_on_c, 15, 41, 95
7, 239040, Note_off_c, 15, 65, 95
7, 239040, Note_off_c, 15, 60, 95
7, 239040, Note_off_c, 15, 56, 95
7, 239040, Note_off_c, 15, 51, 95
7, 239040, Note_off_c, 15, 48, 95
7, 239040, Note_off_c, 15, 41, 95
7, 239040, Note_on_c, 15, 65, 95
7, 239040, Note_on_c, 15, 60, 95
7, 239040, Note_on_c, 15, 56, 95
7, 239040, Note_on_c, 15, 51, 95
7, 239040, Note_on_c, 15, 48, 95
7, 239040, Note_on_c, 15, 41, 95
7, 239520, Note_off_c, 15, 65, 95
7, 239520, Note_off_c, 15, 60, 95
7, 239520, Note_off_c, 15, 56, 95
7, 239520, Note_off_c, 15, 51, 95
7, 239520, Note_off_c, 15, 48, 95
7, 239520, Note_off_c, 15, 41, 95
7, 239520, Note_on_c, 15, 65, 95
7, 239520, Note_on_c, 15, 60, 95
7, 239520, Note_on_c, 15, 56, 95
7, 239520, Note_on_c, 15, 51, 95
7, 239520, Note_on_c, 15, 48, 95
7, 239520, Note_on_c, 15, 41, 95
7, 240480, Note_off_c, 15, 65, 95
7, 240480, Note_off_c, 15, 60, 95
7, 240480, Note_off_c, 15, 56, 95
7, 240480, Note_off_c, 15, 51, 95
7, 240480, Note_off_c, 15, 48, 95
7, 240480, Note_off_c, 15, 41, 95
7, 240480, Note_on_c, 15, 65, 95
7, 240480, Note_on_c, 15, 60, 95
7, 240480, Note_on_c, 15, 56, 95
7, 240480, Note_on_c, 15, 51, 95
7, 240480, Note_on_c, 15, 48, 95
7, 240480, Note_on_c, 15, 41, 95
7, 240960, Note_off_c, 15, 65, 95
7, 240960, Note_off_c, 15, 60, 95
7, 240960, Note_off_c, 15, 56, 95
7, 240960, Note_off_c, 15, 51, 95
7, 240960, Note_off_c, 15, 48, 95
7, 240960, Note_off_c, 15, 41, 95
7, 240960, Note_on_c, 15, 65, 95
7, 240960, Note_on_c, 15, 60, 95
7, 240960, Note_on_c, 15, 56, 95
7, 240960, Note_on_c, 15, 51, 95
7, 240960, Note_on_c, 15, 48, 95
7, 240960, Note_on_c, 15, 41, 95
7, 241440, Note_off_c, 15, 65, 95
7, 241440, Note_off_c, 15, 60, 95
7, 241440, Note_off_c, 15, 56, 95
7, 241440, Note_off_c, 15, 51, 95
7, 241440, Note_off_c, 15, 48, 95
7, 241440, Note_off_c, 15, 41, 95
7, 241440, Note_on_c, 15, 65, 95
7, 241440, Note_on_c, 15, 60, 95
7, 241440, Note_on_c, 15, 56, 95
7, 241440, Note_on_c, 15, 51, 95
7, 241440, Note_on_c, 15, 48, 95
7, 241440, Note_on_c, 15, 41, 95
7, 241920, Note_off_c, 15, 65, 95
7, 241920, Note_off_c, 15, 60, 95
7, 241920, Note_off_c, 15, 56, 95
7, 241920, Note_off_c, 15, 51, 95
7, 241920, Note_off_c, 15, 48, 95
7, 241920, Note_off_c, 15, 41, 95
7, 241920, Note_on_c, 15, 65, 95
7, 241920, Note_on_c, 15, 60, 95
7, 241920, Note_on_c, 15, 56, 95
7, 241920, Note_on_c, 15, 51, 95
7, 241920, Note_on_c, 15, 46, 95
7, 242400, Note_off_c, 15, 65, 95
7, 242400, Note_off_c, 15, 60, 95
7, 242400, Note_off_c, 15, 56, 95
7, 242400, Note_off_c, 15, 51, 95
7, 242400, Note_off_c, 15, 46, 95
7, 242400, Note_on_c, 15, 65, 95
7, 242400, Note_on_c, 15, 60, 95
7, 242400, Note_on_c, 15, 56, 95
7, 242400, Note_on_c, 15, 51, 95
7, 242400, Note_on_c, 15, 46, 95
7, 242880, Note_off_c, 15, 65, 95
7, 242880, Note_off_c, 15, 60, 95
7, 242880, Note_off_c, 15, 56, 95
7, 242880, Note_off_c, 15, 51, 95
7, 242880, Note_off_c, 15, 46, 95
7, 242880, Note_on_c, 15, 65, 95
7, 242880, Note_on_c, 15, 60, 95
7, 242880, Note_on_c, 15, 56, 95
7, 242880, Note_on_c, 15, 51, 95
7, 242880, Note_on_c, 15, 46, 95
7, 243360, Note_off_c, 15, 65, 95
7, 243360, Note_off_c, 15, 60, 95
7, 243360, Note_off_c, 15, 56, 95
7, 243360, Note_off_c, 15, 51, 95
7, 243360, Note_off_c, 15, 46, 95
7, 243360, Note_on_c, 15, 65, 95
7, 243360, Note_on_c, 15, 60, 95
7, 243360, Note_on_c, 15, 56, 95
7, 243360, Note_on_c, 15, 51, 95
7, 243360, Note_on_c, 15, 46, 95
7, 244320, Note_off_c, 15, 65, 95
7, 244320, Note_off_c, 15, 60, 95
7, 244320, Note_off_c, 15, 56, 95
7, 244320, Note_off_c, 15, 51, 95
7, 244320, Note_off_c, 15, 46, 95
7, 244320, Note_on_c, 15, 65, 95
7, 244320, Note_on_c, 15, 60, 95
7, 244320, Note_on_c, 15, 56, 95
7, 244320, Note_on_c, 15, 51, 95
7, 244320, Note_on_c, 15, 46, 95
7, 244800, Note_off_c, 15, 65, 95
7, 244800, Note_off_c, 15, 60, 95
7, 244800, Note_off_c, 15, 56, 95
7, 244800, Note_off_c, 15, 51, 95
7, 244800, Note_off_c, 15, 46, 95
7, 244800, Note_on_c, 15, 65, 95
7, 244800, Note_on_c, 15, 60, 95
7, 244800, Note_on_c, 15, 56, 95
7, 244800, Note_on_c, 15, 51, 95
7, 244800, Note_on_c, 15, 46, 95
7, 245280, Note_off_c, 15, 65, 95
7, 245280, Note_off_c, 15, 60, 95
7, 245280, Note_off_c, 15, 56, 95
7, 245280, Note_off_c, 15, 51, 95
7, 245280, Note_off_c, 15, 46, 95
7, 245280, Note_on_c, 15, 65, 95
7, 245280, Note_on_c, 15, 60, 95
7, 245280, Note_on_c, 15, 56, 95
7, 245280, Note_on_c, 15, 51, 95
7, 245280, Note_on_c, 15, 46, 95
7, 245760, Note_off_c, 15, 65, 95
7, 245760, Note_off_c, 15, 60, 95
7, 245760, Note_off_c, 15, 56, 95
7, 245760, Note_off_c, 15, 51, 95
7, 245760, Note_off_c, 15, 46, 95
7, 268800, Note_on_c, 15, 70, 95
7, 268800, Note_on_c, 15, 67, 95
7, 268800, Note_on_c, 15, 63, 95
7, 268800, Note_on_c, 15, 58, 95
7, 268800, Note_on_c, 15, 51, 95
7, 269280, Note_off_c, 15, 70, 95
7, 269280, Note_off_c, 15, 67, 95
7, 269280, Note_off_c, 15, 63, 95
7, 269280, Note_off_c, 15, 58, 95
7, 269280, Note_off_c, 15, 51, 95
7, 269280, Note_on_c, 15, 70, 95
7, 269280, Note_on_c, 15, 67, 95
7, 269280, Note_on_c, 15, 63, 95
7, 269280, Note_on_c, 15, 58, 95
7, 269280, Note_on_c, 15, 51, 95
7, 269760, Note_off_c, 15, 70, 95
7, 269760, Note_off_c, 15, 67, 95
7, 269760, Note_off_c, 15, 63, 95
7, 269760, Note_off_c, 15, 58, 95
7, 269760, Note_off_c, 15, 51, 95
7, 269760, Note_on_c, 15, 70, 95
7, 269760, Note_on_c, 15, 67, 95
7, 269760, Note_on_c, 15, 63, 95
7, 269760, Note_on_c, 15, 58, 95
7, 269760, Note_on_c, 15, 51, 95
7, 270240, Note_off_c, 15, 70, 95
7, 270240, Note_off_c, 15, 67, 95
7, 270240, Note_off_c, 15, 63, 95
7, 270240, Note_off_c, 15, 58, 95
7, 270240, Note_off_c, 15, 51, 95
7, 270240, Note_on_c, 15, 70, 95
7, 270240, Note_on_c, 15, 67, 95
7, 270240, Note_on_c, 15, 63, 95
7, 270240, Note_on_c, 15, 58, 95
7, 270240, Note_on_c, 15, 51, 95
7, 271200, Note_off_c, 15, 70, 95
7, 271200, Note_off_c, 15, 67, 95
7, 271200, Note_off_c, 15, 63, 95
7, 271200, Note_off_c, 15, 58, 95
7, 271200, Note_off_c, 15, 51, 95
7, 271200, Note_on_c, 15, 70, 95
7, 271200, Note_on_c, 15, 67, 95
7, 271200, Note_on_c, 15, 63, 95
7, 271200, Note_on_c, 15, 58, 95
7, 271200, Note_on_c, 15, 51, 95
7, 271680, Note_off_c, 15, 70, 95
7, 271680, Note_off_c, 15, 67, 95
7, 271680, Note_off_c, 15, 63, 95
7, 271680, Note_off_c, 15, 58, 95
7, 271680, Note_off_c, 15, 51, 95
7, 271680, Note_on_c, 15, 70, 95
7, 271680, Note_on_c, 15, 67, 95
7, 271680, Note_on_c, 15, 63, 95
7, 271680, Note_on_c, 15, 58, 95
7, 271680, Note_on_c, 15, 51, 95
7, 272160, Note_off_c, 15, 70, 95
7, 272160, Note_off_c, 15, 67, 95
7, 272160, Note_off_c, 15, 63, 95
7, 272160, Note_off_c, 15, 58, 95
7, 272160, Note_off_c, 15, 51, 95
7, 272160, Note_on_c, 15, 70, 95
7, 272160, Note_on_c, 15, 67, 95
7, 272160, Note_on_c, 15, 63, 95
7, 272160, Note_on_c, 15, 58, 95
7, 272160, Note_on_c, 15, 51, 95
7, 272640, Note_off_c, 15, 70, 95
7, 272640, Note_off_c, 15, 67, 95
7, 272640, Note_off_c, 15, 63, 95
7, 272640, Note_off_c, 15, 58, 95
7, 272640, Note_off_c, 15, 51, 95
7, 272640, Note_on_c, 15, 70, 95
7, 272640, Note_on_c, 15, 67, 95
7, 272640, Note_on_c, 15, 62, 95
7, 272640, Note_on_c, 15, 58, 95
7, 272640, Note_on_c, 15, 51, 95
7, 273120, Note_off_c, 15, 70, 95
7, 273120, Note_off_c, 15, 67, 95
7, 273120, Note_off_c, 15, 62, 95
7, 273120, Note_off_c, 15, 58, 95
7, 273120, Note_off_c, 15, 51, 95
7, 273120, Note_on_c, 15, 70, 95
7, 273120, Note_on_c, 15, 67, 95
7, 273120, Note_on_c, 15, 62, 95
7, 273120, Note_on_c, 15, 58, 95
7, 273120, Note_on_c, 15, 51, 95
7, 273600, Note_off_c, 15, 70, 95
7, 273600, Note_off_c, 15, 67, 95
7, 273600, Note_off_c, 15, 62, 95
7, 273600, Note_off_c, 15, 58, 95
7, 273600, Note_off_c, 15, 51, 95
7, 273600, Note_on_c, 15, 70, 95
7, 273600, Note_on_c, 15, 67, 95
7, 273600, Note_on_c, 15, 62, 95
7, 273600, Note_on_c, 15, 58, 95
7, 273600, Note_on_c, 15, 51, 95
7, 274080, Note_off_c, 15, 70, 95
7, 274080, Note_off_c, 15, 67, 95
7, 274080, Note_off_c, 15, 62, 95
7, 274080, Note_off_c, 15, 58, 95
7, 274080, Note_off_c, 15, 51, 95
7, 274080, Note_on_c, 15, 70, 95
7, 274080, Note_on_c, 15, 67, 95
7, 274080, Note_on_c, 15, 62, 95
7, 274080, Note_on_c, 15, 58, 95
7, 274080, Note_on_c, 15, 51, 95
7, 275040, Note_off_c, 15, 70, 95
7, 275040, Note_off_c, 15, 67, 95
7, 275040, Note_off_c, 15, 62, 95
7, 275040, Note_off_c, 15, 58, 95
7, 275040, Note_off_c, 15, 51, 95
7, 275040, Note_on_c, 15, 70, 95
7, 275040, Note_on_c, 15, 67, 95
7, 275040, Note_on_c, 15, 62, 95
7, 275040, Note_on_c, 15, 58, 95
7, 275040, Note_on_c, 15, 51, 95
7, 275520, Note_off_c, 15, 70, 95
7, 275520, Note_off_c, 15, 67, 95
7, 275520, Note_off_c, 15, 62, 95
7, 275520, Note_off_c, 15, 58, 95
7, 275520, Note_off_c, 15, 51, 95
7, 275520, Note_on_c, 15, 70, 95
7, 275520, Note_on_c, 15, 67, 95
7, 275520, Note_on_c, 15, 62, 95
7, 275520, Note_on_c, 15, 58, 95
7, 275520, Note_on_c, 15, 51, 95
7, 276000, Note_off_c, 15, 70, 95
7, 276000, Note_off_c, 15, 67, 95
7, 276000, Note_off_c, 15, 62, 95
7, 276000, Note_off_c, 15, 58, 95
7, 276000, Note_off_c, 15, 51, 95
7, 276000, Note_on_c, 15, 70, 95
7, 276000, Note_on_c, 15, 67, 95
7, 276000, Note_on_c, 15, 62, 95
7, 276000, Note_on_c, 15, 58, 95
7, 276000, Note_on_c, 15, 51, 95
7, 276480, Note_off_c, 15, 70, 95
7, 276480, Note_off_c, 15, 67, 95
7, 276480, Note_off_c, 15, 62, 95
7, 276480, Note_off_c, 15, 58, 95
7, 276480, Note_off_c, 15, 51, 95
7, 276480, Note_on_c, 15, 67, 95
7, 276480, Note_on_c, 15, 63, 95
7, 276480, Note_on_c, 15, 60, 95
7, 276480, Note_on_c, 15, 56, 95
7, 276960, Note_off_c, 15, 67, 95
7, 276960, Note_off_c, 15, 63, 95
7, 276960, Note_off_c, 15, 60, 95
7, 276960, Note_off_c, 15, 56, 95
7, 276960, Note_on_c, 15, 67, 95
7, 276960, Note_on_c, 15, 63, 95
7, 276960, Note_on_c, 15, 60, 95
7, 276960, Note_on_c, 15, 56, 95
7, 277440, Note_off_c, 15, 67, 95
7, 277440, Note_off_c, 15, 63, 95
7, 277440, Note_off_c, 15, 60, 95
7, 277440, Note_off_c, 15, 56, 95
7, 277440, Note_on_c, 15, 67, 95
7, 277440, Note_on_c, 15, 63, 95
7, 277440, Note_on_c, 15, 60, 95
7, 277440, Note_on_c, 15, 56, 95
7, 277920, Note_off_c, 15, 67, 95
7, 277920, Note_off_c, 15, 63, 95
7, 277920, Note_off_c, 15, 60, 95
7, 277920, Note_off_c, 15, 56, 95
7, 277920, Note_on_c, 15, 67, 95
7, 277920, Note_on_c, 15, 63, 95
7, 277920, Note_on_c, 15, 60, 95
7, 277920, Note_on_c, 15, 56, 95
7, 278880, Note_off_c, 15, 67, 95
7, 278880, Note_off_c, 15, 63, 95
7, 278880, Note_off_c, 15, 60, 95
7, 278880, Note_off_c, 15, 56, 95
7, 278880, Note_on_c, 15, 67, 95
7, 278880, Note_on_c, 15, 63, 95
7, 278880, Note_on_c, 15, 60, 95
7, 278880, Note_on_c, 15, 56, 95
7, 279360, Note_off_c, 15, 67, 95
7, 279360, Note_off_c, 15, 63, 95
7, 279360, Note_off_c, 15, 60, 95
7, 279360, Note_off_c, 15, 56, 95
7, 279360, Note_on_c, 15, 67, 95
7, 279360, Note_on_c, 15, 63, 95
7, 279360, Note_on_c, 15, 60, 95
7, 279360, Note_on_c, 15, 56, 95
7, 279840, Note_off_c, 15, 67, 95
7, 279840, Note_off_c, 15, 63, 95
7, 279840, Note_off_c, 15, 60, 95
7, 279840, Note_off_c, 15, 56, 95
7, 279840, Note_on_c, 15, 67, 95
7, 279840, Note_on_c, 15, 63, 95
7, 279840, Note_on_c, 15, 60, 95
7, 279840, Note_on_c, 15, 56, 95
7, 280320, Note_off_c, 15, 67, 95
7, 280320, Note_off_c, 15, 63, 95
7, 280320, Note_off_c, 15, 60, 95
7, 280320, Note_off_c, 15, 56, 95
7, 280320, Note_on_c, 15, 68, 95
7, 280320, Note_on_c, 15, 65, 95
7, 280320, Note_on_c, 15, 61, 95
7, 280320, Note_on_c, 15, 56, 95
7, 280320, Note_on_c, 15, 49, 95
7, 280800, Note_off_c, 15, 68, 95
7, 280800, Note_off_c, 15, 65, 95
7, 280800, Note_off_c, 15, 61, 95
7, 280800, Note_off_c, 15, 56, 95
7, 280800, Note_off_c, 15, 49, 95
7, 280800, Note_on_c, 15, 68, 95
7, 280800, Note_on_c, 15, 65, 95
7, 280800, Note_on_c, 15, 61, 95
7, 280800, Note_on_c, 15, 56, 95
7, 280800, Note_on_c, 15, 49, 95
7, 281280, Note_off_c, 15, 68, 95
7, 281280, Note_off_c, 15, 65, 95
7, 281280, Note_off_c, 15, 61, 95
7, 281280, Note_off_c, 15, 56, 95
7, 281280, Note_off_c, 15, 49, 95
7, 281280, Note_on_c, 15, 68, 95
7, 281280, Note_on_c, 15, 65, 95
7, 281280, Note_on_c, 15, 61, 95
7, 281280, Note_on_c, 15, 56, 95
7, 281280, Note_on_c, 15, 49, 95
7, 281760, Note_off_c, 15, 68, 95
7, 281760, Note_off_c, 15, 65, 95
7, 281760, Note_off_c, 15, 61, 95
7, 281760, Note_off_c, 15, 56, 95
7, 281760, Note_off_c, 15, 49, 95
7, 281760, Note_on_c, 15, 68, 95
7, 281760, Note_on_c, 15, 65, 95
7, 281760, Note_on_c, 15, 61, 95
7, 281760, Note_on_c, 15, 56, 95
7, 281760, Note_on_c, 15, 49, 95
7, 282720, Note_off_c, 15, 68, 95
7, 282720, Note_off_c, 15, 65, 95
7, 282720, Note_off_c, 15, 61, 95
7, 282720, Note_off_c, 15, 56, 95
7, 282720, Note_off_c, 15, 49, 95
7, 282720, Note_on_c, 15, 68, 95
7, 282720, Note_on_c, 15, 65, 95
7, 282720, Note_on_c, 15, 61, 95
7, 282720, Note_on_c, 15, 56, 95
7, 282720, Note_on_c, 15, 49, 95
7, 283200, Note_off_c, 15, 68, 95
7, 283200, Note_off_c, 15, 65, 95
7, 283200, Note_off_c, 15, 61, 95
7, 283200, Note_off_c, 15, 56, 95
7, 283200, Note_off_c, 15, 49, 95
7, 283200, Note_on_c, 15, 68, 95
7, 283200, Note_on_c, 15, 65, 95
7, 283200, Note_on_c, 15, 61, 95
7, 283200, Note_on_c, 15, 56, 95
7, 283200, Note_on_c, 15, 49, 95
7, 283680, Note_off_c, 15, 68, 95
7, 283680, Note_off_c, 15, 65, 95
7, 283680, Note_off_c, 15, 61, 95
7, 283680, Note_off_c, 15, 56, 95
7, 283680, Note_off_c, 15, 49, 95
7, 283680, Note_on_c, 15, 68, 95
7, 283680, Note_on_c, 15, 65, 95
7, 283680, Note_on_c, 15, 61, 95
7, 283680, Note_on_c, 15, 56, 95
7, 283680, Note_on_c, 15, 49, 95
7, 284160, Note_off_c, 15, 68, 95
7, 284160, Note_off_c, 15, 65, 95
7, 284160, Note_off_c, 15, 61, 95
7, 284160, Note_off_c, 15, 56, 95
7, 284160, Note_off_c, 15, 49, 95
7, 284160, Note_on_c, 15, 70, 95
7, 284160, Note_on_c, 15, 67, 95
7, 284160, Note_on_c, 15, 63, 95
7, 284160, Note_on_c, 15, 58, 95
7, 284160, Note_on_c, 15, 51, 95
7, 284640, Note_off_c, 15, 70, 95
7, 284640, Note_off_c, 15, 67, 95
7, 284640, Note_off_c, 15, 63, 95
7, 284640, Note_off_c, 15, 58, 95
7, 284640, Note_off_c, 15, 51, 95
7, 284640, Note_on_c, 15, 70, 95
7, 284640, Note_on_c, 15, 67, 95
7, 284640, Note_on_c, 15, 63, 95
7, 284640, Note_on_c, 15, 58, 95
7, 284640, Note_on_c, 15, 51, 95
7, 285120, Note_off_c, 15, 70, 95
7, 285120, Note_off_c, 15, 67, 95
7, 285120, Note_off_c, 15, 63, 95
7, 285120, Note_off_c, 15, 58, 95
7, 285120, Note_off_c, 15, 51, 95
7, 285120, Note_on_c, 15, 70, 95
7, 285120, Note_on_c, 15, 67, 95
7, 285120, Note_on_c, 15, 63, 95
7, 285120, Note_on_c, 15, 58, 95
7, 285120, Note_on_c, 15, 51, 95
7, 285600, Note_off_c, 15, 70, 95
7, 285600, Note_off_c, 15, 67, 95
7, 285600, Note_off_c, 15, 63, 95
7, 285600, Note_off_c, 15, 58, 95
7, 285600, Note_off_c, 15, 51, 95
7, 285600, Note_on_c, 15, 70, 95
7, 285600, Note_on_c, 15, 67, 95
7, 285600, Note_on_c, 15, 63, 95
7, 285600, Note_on_c, 15, 58, 95
7, 285600, Note_on_c, 15, 51, 95
7, 286560, Note_off_c, 15, 70, 95
7, 286560, Note_off_c, 15, 67, 95
7, 286560, Note_off_c, 15, 63, 95
7, 286560, Note_off_c, 15, 58, 95
7, 286560, Note_off_c, 15, 51, 95
7, 286560, Note_on_c, 15, 70, 95
7, 286560, Note_on_c, 15, 67, 95
7, 286560, Note_on_c, 15, 63, 95
7, 286560, Note_on_c, 15, 58, 95
7, 286560, Note_on_c, 15, 51, 95
7, 287040, Note_off_c, 15, 70, 95
7, 287040, Note_off_c, 15, 67, 95
7, 287040, Note_off_c, 15, 63, 95
7, 287040, Note_off_c, 15, 58, 95
7, 287040, Note_off_c, 15, 51, 95
7, 287040, Note_on_c, 15, 70, 95
7, 287040, Note_on_c, 15, 67, 95
7, 287040, Note_on_c, 15, 63, 95
7, 287040, Note_on_c, 15, 58, 95
7, 287040, Note_on_c, 15, 51, 95
7, 287520, Note_off_c, 15, 70, 95
7, 287520, Note_off_c, 15, 67, 95
7, 287520, Note_off_c, 15, 63, 95
7, 287520, Note_off_c, 15, 58, 95
7, 287520, Note_off_c, 15, 51, 95
7, 287520, Note_on_c, 15, 70, 95
7, 287520, Note_on_c, 15, 67, 95
7, 287520, Note_on_c, 15, 63, 95
7, 287520, Note_on_c, 15, 58, 95
7, 287520, Note_on_c, 15, 51, 95
7, 288000, Note_off_c, 15, 70, 95
7, 288000, Note_off_c, 15, 67, 95
7, 288000, Note_off_c, 15, 63, 95
7, 288000, Note_off_c, 15, 58, 95
7, 288000, Note_off_c, 15, 51, 95
7, 288000, Note_on_c, 15, 70, 95
7, 288000, Note_on_c, 15, 65, 95
7, 288000, Note_on_c, 15, 61, 95
7, 288000, Note_on_c, 15, 56, 95
7, 288000, Note_on_c, 15, 49, 95
7, 288480, Note_off_c, 15, 70, 95
7, 288480, Note_off_c, 15, 65, 95
7, 288480, Note_off_c, 15, 61, 95
7, 288480, Note_off_c, 15, 56, 95
7, 288480, Note_off_c, 15, 49, 95
7, 288480, Note_on_c, 15, 70, 95
7, 288480, Note_on_c, 15, 65, 95
7, 288480, Note_on_c, 15, 61, 95
7, 288480, Note_on_c, 15, 56, 95
7, 288480, Note_on_c, 15, 49, 95
7, 288960, Note_off_c, 15, 70, 95
7, 288960, Note_off_c, 15, 65, 95
7, 288960, Note_off_c, 15, 61, 95
7, 288960, Note_off_c, 15, 56, 95
7, 288960, Note_off_c, 15, 49, 95
7, 288960, Note_on_c, 15, 70, 95
7, 288960, Note_on_c, 15, 65, 95
7, 288960, Note_on_c, 15, 61, 95
7, 288960, Note_on_c, 15, 56, 95
7, 288960, Note_on_c, 15, 49, 95
7, 289440, Note_off_c, 15, 70, 95
7, 289440, Note_off_c, 15, 65, 95
7, 289440, Note_off_c, 15, 61, 95
7, 289440, Note_off_c, 15, 56, 95
7, 289440, Note_off_c, 15, 49, 95
7, 289440, Note_on_c, 15, 70, 95
7, 289440, Note_on_c, 15, 65, 95
7, 289440, Note_on_c, 15, 61, 95
7, 289440, Note_on_c, 15, 56, 95
7, 289440, Note_on_c, 15, 49, 95
7, 290400, Note_off_c, 15, 70, 95
7, 290400, Note_off_c, 15, 65, 95
7, 290400, Note_off_c, 15, 61, 95
7, 290400, Note_off_c, 15, 56, 95
7, 290400, Note_off_c, 15, 49, 95
7, 290400, Note_on_c, 15, 70, 95
7, 290400, Note_on_c, 15, 65, 95
7, 290400, Note_on_c, 15, 61, 95
7, 290400, Note_on_c, 15, 56, 95
7, 290400, Note_on_c, 15, 49, 95
7, 290880, Note_off_c, 15, 70, 95
7, 290880, Note_off_c, 15, 65, 95
7, 290880, Note_off_c, 15, 61, 95
7, 290880, Note_off_c, 15, 56, 95
7, 290880, Note_off_c, 15, 49, 95
7, 290880, Note_on_c, 15, 70, 95
7, 290880, Note_on_c, 15, 65, 95
7, 290880, Note_on_c, 15, 61, 95
7, 290880, Note_on_c, 15, 56, 95
7, 290880, Note_on_c, 15, 49, 95
7, 291360, Note_off_c, 15, 70, 95
7, 291360, Note_off_c, 15, 65, 95
7, 291360, Note_off_c, 15, 61, 95
7, 291360, Note_off_c, 15, 56, 95
7, 291360, Note_off_c, 15, 49, 95
7, 291360, Note_on_c, 15, 70, 95
7, 291360, Note_on_c, 15, 65, 95
7, 291360, Note_on_c, 15, 61, 95
7, 291360, Note_on_c, 15, 56, 95
7, 291360, Note_on_c, 15, 49, 95
7, 291840, Note_off_c, 15, 70, 95
7, 291840, Note_off_c, 15, 65, 95
7, 291840, Note_off_c, 15, 61, 95
7, 291840, Note_off_c, 15, 56, 95
7, 291840, Note_off_c, 15, 49, 95
7, 291840, Note_on_c, 15, 67, 95
7, 291840, Note_on_c, 15, 64, 95
7, 291840, Note_on_c, 15, 58, 95
7, 291840, Note_on_c, 15, 55, 95
7, 291840, Note_on_c, 15, 48, 95
7, 292320, Note_off_c, 15, 67, 95
7, 292320, Note_off_c, 15, 64, 95
7, 292320, Note_off_c, 15, 58, 95
7, 292320, Note_off_c, 15, 55, 95
7, 292320, Note_off_c, 15, 48, 95
7, 292320, Note_on_c, 15, 67, 95
7, 292320, Note_on_c, 15, 64, 95
7, 292320, Note_on_c, 15, 58, 95
7, 292320, Note_on_c, 15, 55, 95
7, 292320, Note_on_c, 15, 48, 95
7, 292800, Note_off_c, 15, 67, 95
7, 292800, Note_off_c, 15, 64, 95
7, 292800, Note_off_c, 15, 58, 95
7, 292800, Note_off_c, 15, 55, 95
7, 292800, Note_off_c, 15, 48, 95
7, 292800, Note_on_c, 15, 67, 95
7, 292800, Note_on_c, 15, 64, 95
7, 292800, Note_on_c, 15, 58, 95
7, 292800, Note_on_c, 15, 55, 95
7, 292800, Note_on_c, 15, 48, 95
7, 293280, Note_off_c, 15, 67, 95
7, 293280, Note_off_c, 15, 64, 95
7, 293280, Note_off_c, 15, 58, 95
7, 293280, Note_off_c, 15, 55, 95
7, 293280, Note_off_c, 15, 48, 95
7, 293280, Note_on_c, 15, 67, 95
7, 293280, Note_on_c, 15, 64, 95
7, 293280, Note_on_c, 15, 58, 95
7, 293280, Note_on_c, 15, 55, 95
7, 293280, Note_on_c, 15, 48, 95
7, 294240, Note_off_c, 15, 67, 95
7, 294240, Note_off_c, 15, 64, 95
7, 294240, Note_off_c, 15, 58, 95
7, 294240, Note_off_c, 15, 55, 95
7, 294240, Note_off_c, 15, 48, 95
7, 294240, Note_on_c, 15, 67, 95
7, 294240, Note_on_c, 15, 64, 95
7, 294240, Note_on_c, 15, 58, 95
7, 294240, Note_on_c, 15, 55, 95
7, 294240, Note_on_c, 15, 48, 95
7, 294720, Note_off_c, 15, 67, 95
7, 294720, Note_off_c, 15, 64, 95
7, 294720, Note_off_c, 15, 58, 95
7, 294720, Note_off_c, 15, 55, 95
7, 294720, Note_off_c, 15, 48, 95
7, 294720, Note_on_c, 15, 67, 95
7, 294720, Note_on_c, 15, 64, 95
7, 294720, Note_on_c, 15, 58, 95
7, 294720, Note_on_c, 15, 55, 95
7, 294720, Note_on_c, 15, 48, 95
7, 295200, Note_off_c, 15, 67, 95
7, 295200, Note_off_c, 15, 64, 95
7, 295200, Note_off_c, 15, 58, 95
7, 295200, Note_off_c, 15, 55, 95
7, 295200, Note_off_c, 15, 48, 95
7, 295200, Note_on_c, 15, 67, 95
7, 295200, Note_on_c, 15, 64, 95
7, 295200, Note_on_c, 15, 58, 95
7, 295200, Note_on_c, 15, 55, 95
7, 295200, Note_on_c, 15, 48, 95
7, 295680, Note_off_c, 15, 67, 95
7, 295680, Note_off_c, 15, 64, 95
7, 295680, Note_off_c, 15, 58, 95
7, 295680, Note_off_c, 15, 55, 95
7, 295680, Note_off_c, 15, 48, 95
7, 295680, Note_on_c, 15, 67, 95
7, 295680, Note_on_c, 15, 64, 95
7, 295680, Note_on_c, 15, 58, 95
7, 295680, Note_on_c, 15, 55, 95
7, 295680, Note_on_c, 15, 48, 95
7, 296160, Note_off_c, 15, 67, 95
7, 296160, Note_off_c, 15, 64, 95
7, 296160, Note_off_c, 15, 58, 95
7, 296160, Note_off_c, 15, 55, 95
7, 296160, Note_off_c, 15, 48, 95
7, 296160, Note_on_c, 15, 67, 95
7, 296160, Note_on_c, 15, 64, 95
7, 296160, Note_on_c, 15, 58, 95
7, 296160, Note_on_c, 15, 55, 95
7, 296160, Note_on_c, 15, 48, 95
7, 296640, Note_off_c, 15, 67, 95
7, 296640, Note_off_c, 15, 64, 95
7, 296640, Note_off_c, 15, 58, 95
7, 296640, Note_off_c, 15, 55, 95
7, 296640, Note_off_c, 15, 48, 95
7, 296640, Note_on_c, 15, 67, 95
7, 296640, Note_on_c, 15, 64, 95
7, 296640, Note_on_c, 15, 58, 95
7, 296640, Note_on_c, 15, 55, 95
7, 296640, Note_on_c, 15, 48, 95
7, 297120, Note_off_c, 15, 67, 95
7, 297120, Note_off_c, 15, 64, 95
7, 297120, Note_off_c, 15, 58, 95
7, 297120, Note_off_c, 15, 55, 95
7, 297120, Note_off_c, 15, 48, 95
7, 297120, Note_on_c, 15, 67, 95
7, 297120, Note_on_c, 15, 64, 95
7, 297120, Note_on_c, 15, 58, 95
7, 297120, Note_on_c, 15, 55, 95
7, 297120, Note_on_c, 15, 48, 95
7, 298080, Note_off_c, 15, 67, 95
7, 298080, Note_off_c, 15, 64, 95
7, 298080, Note_off_c, 15, 58, 95
7, 298080, Note_off_c, 15, 55, 95
7, 298080, Note_off_c, 15, 48, 95
7, 298080, Note_on_c, 15, 67, 95
7, 298080, Note_on_c, 15, 64, 95
7, 298080, Note_on_c, 15, 58, 95
7, 298080, Note_on_c, 15, 55, 95
7, 298080, Note_on_c, 15, 48, 95
7, 298560, Note_off_c, 15, 67, 95
7, 298560, Note_off_c, 15, 64, 95
7, 298560, Note_off_c, 15, 58, 95
7, 298560, Note_off_c, 15, 55, 95
7, 298560, Note_off_c, 15, 48, 95
7, 298560, Note_on_c, 15, 67, 95
7, 298560, Note_on_c, 15, 64, 95
7, 298560, Note_on_c, 15, 58, 95
7, 298560, Note_on_c, 15, 55, 95
7, 298560, Note_on_c, 15, 48, 95
7, 299040, Note_off_c, 15, 67, 95
7, 299040, Note_off_c, 15, 64, 95
7, 299040, Note_off_c, 15, 58, 95
7, 299040, Note_off_c, 15, 55, 95
7, 299040, Note_off_c, 15, 48, 95
7, 299040, Note_on_c, 15, 67, 95
7, 299040, Note_on_c, 15, 64, 95
7, 299040, Note_on_c, 15, 58, 95
7, 299040, Note_on_c, 15, 55, 95
7, 299040, Note_on_c, 15, 48, 95
7, 299520, Note_off_c, 15, 67, 95
7, 299520, Note_off_c, 15, 64, 95
7, 299520, Note_off_c, 15, 58, 95
7, 299520, Note_off_c, 15, 55, 95
7, 299520, Note_off_c, 15, 48, 95
7, 299520, Note_on_c, 15, 65, 95
7, 299520, Note_on_c, 15, 60, 95
7, 299520, Note_on_c, 15, 56, 95
7, 299520, Note_on_c, 15, 51, 95
7, 299520, Note_on_c, 15, 48, 95
7, 299520, Note_on_c, 15, 41, 95
7, 300000, Note_off_c, 15, 65, 95
7, 300000, Note_off_c, 15, 60, 95
7, 300000, Note_off_c, 15, 56, 95
7, 300000, Note_off_c, 15, 51, 95
7, 300000, Note_off_c, 15, 48, 95
7, 300000, Note_off_c, 15, 41, 95
7, 300000, Note_on_c, 15, 65, 95
7, 300000, Note_on_c, 15, 60, 95
7, 300000, Note_on_c, 15, 56, 95
7, 300000, Note_on_c, 15, 51, 95
7, 300000, Note_on_c, 15, 48, 95
7, 300000, Note_on_c, 15, 41, 95
7, 300480, Note_off_c, 15, 65, 95
7, 300480, Note_off_c, 15, 60, 95
7, 300480, Note_off_c, 15, 56, 95
7, 300480, Note_off_c, 15, 51, 95
7, 300480, Note_off_c, 15, 48, 95
7, 300480, Note_off_c, 15, 41, 95
7, 300480, Note_on_c, 15, 65, 95
7, 300480, Note_on_c, 15, 60, 95
7, 300480, Note_on_c, 15, 56, 95
7, 300480, Note_on_c, 15, 51, 95
7, 300480, Note_on_c, 15, 48, 95
7, 300480, Note_on_c, 15, 41, 95
7, 300960, Note_off_c, 15, 65, 95
7, 300960, Note_off_c, 15, 60, 95
7, 300960, Note_off_c, 15, 56, 95
7, 300960, Note_off_c, 15, 51, 95
7, 300960, Note_off_c, 15, 48, 95
7, 300960, Note_off_c, 15, 41, 95
7, 300960, Note_on_c, 15, 65, 95
7, 300960, Note_on_c, 15, 60, 95
7, 300960, Note_on_c, 15, 56, 95
7, 300960, Note_on_c, 15, 51, 95
7, 300960, Note_on_c, 15, 48, 95
7, 300960, Note_on_c, 15, 41, 95
7, 301920, Note_off_c, 15, 65, 95
7, 301920, Note_off_c, 15, 60, 95
7, 301920, Note_off_c, 15, 56, 95
7, 301920, Note_off_c, 15, 51, 95
7, 301920, Note_off_c, 15, 48, 95
7, 301920, Note_off_c, 15, 41, 95
7, 301920, Note_on_c, 15, 65, 95
7, 301920, Note_on_c, 15, 60, 95
7, 301920, Note_on_c, 15, 56, 95
7, 301920, Note_on_c, 15, 51, 95
7, 301920, Note_on_c, 15, 48, 95
7, 301920, Note_on_c, 15, 41, 95
7, 302400, Note_off_c, 15, 65, 95
7, 302400, Note_off_c, 15, 60, 95
7, 302400, Note_off_c, 15, 56, 95
7, 302400, Note_off_c, 15, 51, 95
7, 302400, Note_off_c, 15, 48, 95
7, 302400, Note_off_c, 15, 41, 95
7, 302400, Note_on_c, 15, 65, 95
7, 302400, Note_on_c, 15, 60, 95
7, 302400, Note_on_c, 15, 56, 95
7, 302400, Note_on_c, 15, 51, 95
7, 302400, Note_on_c, 15, 48, 95
7, 302400, Note_on_c, 15, 41, 95
7, 302880, Note_off_c, 15, 65, 95
7, 302880, Note_off_c, 15, 60, 95
7, 302880, Note_off_c, 15, 56, 95
7, 302880, Note_off_c, 15, 51, 95
7, 302880, Note_off_c, 15, 48, 95
7, 302880, Note_off_c, 15, 41, 95
7, 302880, Note_on_c, 15, 65, 95
7, 302880, Note_on_c, 15, 60, 95
7, 302880, Note_on_c, 15, 56, 95
7, 302880, Note_on_c, 15, 51, 95
7, 302880, Note_on_c, 15, 48, 95
7, 302880, Note_on_c, 15, 41, 95
7, 303360, Note_off_c, 15, 65, 95
7, 303360, Note_off_c, 15, 60, 95
7, 303360, Note_off_c, 15, 56, 95
7, 303360, Note_off_c, 15, 51, 95
7, 303360, Note_off_c, 15, 48, 95
7, 303360, Note_off_c, 15, 41, 95
7, 303360, Note_on_c, 15, 68, 95
7, 303360, Note_on_c, 15, 63, 95
7, 303360, Note_on_c, 15, 59, 95
7, 303360, Note_on_c, 15, 53, 95
7, 303360, Note_on_c, 15, 44, 95
7, 303840, Note_off_c, 15, 68, 95
7, 303840, Note_off_c, 15, 63, 95
7, 303840, Note_off_c, 15, 59, 95
7, 303840, Note_off_c, 15, 53, 95
7, 303840, Note_off_c, 15, 44, 95
7, 303840, Note_on_c, 15, 68, 95
7, 303840, Note_on_c, 15, 63, 95
7, 303840, Note_on_c, 15, 59, 95
7, 303840, Note_on_c, 15, 53, 95
7, 303840, Note_on_c, 15, 44, 95
7, 304320, Note_off_c, 15, 68, 95
7, 304320, Note_off_c, 15, 63, 95
7, 304320, Note_off_c, 15, 59, 95
7, 304320, Note_off_c, 15, 53, 95
7, 304320, Note_off_c, 15, 44, 95
7, 304320, Note_on_c, 15, 68, 95
7, 304320, Note_on_c, 15, 63, 95
7, 304320, Note_on_c, 15, 59, 95
7, 304320, Note_on_c, 15, 53, 95
7, 304320, Note_on_c, 15, 44, 95
7, 304800, Note_off_c, 15, 68, 95
7, 304800, Note_off_c, 15, 63, 95
7, 304800, Note_off_c, 15, 59, 95
7, 304800, Note_off_c, 15, 53, 95
7, 304800, Note_off_c, 15, 44, 95
7, 304800, Note_on_c, 15, 68, 95
7, 304800, Note_on_c, 15, 63, 95
7, 304800, Note_on_c, 15, 59, 95
7, 304800, Note_on_c, 15, 53, 95
7, 304800, Note_on_c, 15, 44, 95
7, 305760, Note_off_c, 15, 68, 95
7, 305760, Note_off_c, 15, 63, 95
7, 305760, Note_off_c, 15, 59, 95
7, 305760, Note_off_c, 15, 53, 95
7, 305760, Note_off_c, 15, 44, 95
7, 305760, Note_on_c, 15, 68, 95
7, 305760, Note_on_c, 15, 63, 95
7, 305760, Note_on_c, 15, 59, 95
7, 305760, Note_on_c, 15, 53, 95
7, 305760, Note_on_c, 15, 44, 95
7, 306240, Note_off_c, 15, 68, 95
7, 306240, Note_off_c, 15, 63, 95
7, 306240, Note_off_c, 15, 59, 95
7, 306240, Note_off_c, 15, 53, 95
7, 306240, Note_off_c, 15, 44, 95
7, 306240, Note_on_c, 15, 68, 95
7, 306240, Note_on_c, 15, 63, 95
7, 306240, Note_on_c, 15, 59, 95
7, 306240, Note_on_c, 15, 53, 95
7, 306240, Note_on_c, 15, 44, 95
7, 306720, Note_off_c, 15, 68, 95
7, 306720, Note_off_c, 15, 63, 95
7, 306720, Note_off_c, 15, 59, 95
7, 306720, Note_off_c, 15, 53, 95
7, 306720, Note_off_c, 15, 44, 95
7, 306720, Note_on_c, 15, 68, 95
7, 306720, Note_on_c, 15, 63, 95
7, 306720, Note_on_c, 15, 59, 95
7, 306720, Note_on_c, 15, 53, 95
7, 306720, Note_on_c, 15, 44, 95
7, 307200, Note_off_c, 15, 68, 95
7, 307200, Note_off_c, 15, 63, 95
7, 307200, Note_off_c, 15, 59, 95
7, 307200, Note_off_c, 15, 53, 95
7, 307200, Note_off_c, 15, 44, 95
7, 307200, Note_on_c, 15, 70, 95
7, 307200, Note_on_c, 15, 67, 95
7, 307200, Note_on_c, 15, 63, 95
7, 307200, Note_on_c, 15, 58, 95
7, 307200, Note_on_c, 15, 51, 95
7, 307680, Note_off_c, 15, 70, 95
7, 307680, Note_off_c, 15, 67, 95
7, 307680, Note_off_c, 15, 63, 95
7, 307680, Note_off_c, 15, 58, 95
7, 307680, Note_off_c, 15, 51, 95
7, 307680, Note_on_c, 15, 70, 95
7, 307680, Note_on_c, 15, 67, 95
7, 307680, Note_on_c, 15, 63, 95
7, 307680, Note_on_c, 15, 58, 95
7, 307680, Note_on_c, 15, 51, 95
7, 308160, Note_off_c, 15, 70, 95
7, 308160, Note_off_c, 15, 67, 95
7, 308160, Note_off_c, 15, 63, 95
7, 308160, Note_off_c, 15, 58, 95
7, 308160, Note_off_c, 15, 51, 95
7, 308160, Note_on_c, 15, 70, 95
7, 308160, Note_on_c, 15, 67, 95
7, 308160, Note_on_c, 15, 63, 95
7, 308160, Note_on_c, 15, 58, 95
7, 308160, Note_on_c, 15, 51, 95
7, 308640, Note_off_c, 15, 70, 95
7, 308640, Note_off_c, 15, 67, 95
7, 308640, Note_off_c, 15, 63, 95
7, 308640, Note_off_c, 15, 58, 95
7, 308640, Note_off_c, 15, 51, 95
7, 308640, Note_on_c, 15, 67, 95
7, 308640, Note_on_c, 15, 62, 95
7, 308640, Note_on_c, 15, 58, 95
7, 308640, Note_on_c, 15, 53, 95
7, 308640, Note_on_c, 15, 50, 95
7, 308640, Note_on_c, 15, 43, 95
7, 309600, Note_off_c, 15, 67, 95
7, 309600, Note_off_c, 15, 62, 95
7, 309600, Note_off_c, 15, 58, 95
7, 309600, Note_off_c, 15, 53, 95
7, 309600, Note_off_c, 15, 50, 95
7, 309600, Note_off_c, 15, 43, 95
7, 309600, Note_on_c, 15, 67, 95
7, 309600, Note_on_c, 15, 62, 95
7, 309600, Note_on_c, 15, 58, 95
7, 309600, Note_on_c, 15, 53, 95
7, 309600, Note_on_c, 15, 50, 95
7, 309600, Note_on_c, 15, 43, 95
7, 310080, Note_off_c, 15, 67, 95
7, 310080, Note_off_c, 15, 62, 95
7, 310080, Note_off_c, 15, 58, 95
7, 310080, Note_off_c, 15, 53, 95
7, 310080, Note_off_c, 15, 50, 95
7, 310080, Note_off_c, 15, 43, 95
7, 310080, Note_on_c, 15, 67, 95
7, 310080, Note_on_c, 15, 62, 95
7, 310080, Note_on_c, 15, 58, 95
7, 310080, Note_on_c, 15, 53, 95
7, 310080, Note_on_c, 15, 50, 95
7, 310080, Note_on_c, 15, 43, 95
7, 310560, Note_off_c, 15, 67, 95
7, 310560, Note_off_c, 15, 62, 95
7, 310560, Note_off_c, 15, 58, 95
7, 310560, Note_off_c, 15, 53, 95
7, 310560, Note_off_c, 15, 50, 95
7, 310560, Note_off_c, 15, 43, 95
7, 310560, Note_on_c, 15, 67, 95
7, 310560, Note_on_c, 15, 62, 95
7, 310560, Note_on_c, 15, 58, 95
7, 310560, Note_on_c, 15, 53, 95
7, 310560, Note_on_c, 15, 50, 95
7, 310560, Note_on_c, 15, 43, 95
7, 311040, Note_off_c, 15, 67, 95
7, 311040, Note_off_c, 15, 62, 95
7, 311040, Note_off_c, 15, 58, 95
7, 311040, Note_off_c, 15, 53, 95
7, 311040, Note_off_c, 15, 50, 95
7, 311040, Note_off_c, 15, 43, 95
7, 311040, Note_on_c, 15, 65, 95
7, 311040, Note_on_c, 15, 60, 95
7, 311040, Note_on_c, 15, 56, 95
7, 311040, Note_on_c, 15, 51, 95
7, 311040, Note_on_c, 15, 46, 95
7, 311520, Note_off_c, 15, 65, 95
7, 311520, Note_off_c, 15, 60, 95
7, 311520, Note_off_c, 15, 56, 95
7, 311520, Note_off_c, 15, 51, 95
7, 311520, Note_off_c, 15, 46, 95
7, 311520, Note_on_c, 15, 65, 95
7, 311520, Note_on_c, 15, 60, 95
7, 311520, Note_on_c, 15, 56, 95
7, 311520, Note_on_c, 15, 51, 95
7, 311520, Note_on_c, 15, 46, 95
7, 312000, Note_off_c, 15, 65, 95
7, 312000, Note_off_c, 15, 60, 95
7, 312000, Note_off_c, 15, 56, 95
7, 312000, Note_off_c, 15, 51, 95
7, 312000, Note_off_c, 15, 46, 95
7, 312000, Note_on_c, 15, 65, 95
7, 312000, Note_on_c, 15, 60, 95
7, 312000, Note_on_c, 15, 56, 95
7, 312000, Note_on_c, 15, 51, 95
7, 312000, Note_on_c, 15, 46, 95
7, 312480, Note_off_c, 15, 65, 95
7, 312480, Note_off_c, 15, 60, 95
7, 312480, Note_off_c, 15, 56, 95
7, 312480, Note_off_c, 15, 51, 95
7, 312480, Note_off_c, 15, 46, 95
7, 312480, Note_on_c, 15, 65, 95
7, 312480, Note_on_c, 15, 60, 95
7, 312480, Note_on_c, 15, 56, 95
7, 312480, Note_on_c, 15, 51, 95
7, 312480, Note_on_c, 15, 46, 95
7, 313440, Note_off_c, 15, 65, 95
7, 313440, Note_off_c, 15, 60, 95
7, 313440, Note_off_c, 15, 56, 95
7, 313440, Note_off_c, 15, 51, 95
7, 313440, Note_off_c, 15, 46, 95
7, 313440, Note_on_c, 15, 65, 95
7, 313440, Note_on_c, 15, 60, 95
7, 313440, Note_on_c, 15, 56, 95
7, 313440, Note_on_c, 15, 51, 95
7, 313440, Note_on_c, 15, 46, 95
7, 313920, Note_off_c, 15, 65, 95
7, 313920, Note_off_c, 15, 60, 95
7, 313920, Note_off_c, 15, 56, 95
7, 313920, Note_off_c, 15, 51, 95
7, 313920, Note_off_c, 15, 46, 95
7, 313920, Note_on_c, 15, 65, 95
7, 313920, Note_on_c, 15, 60, 95
7, 313920, Note_on_c, 15, 56, 95
7, 313920, Note_on_c, 15, 51, 95
7, 313920, Note_on_c, 15, 46, 95
7, 314400, Note_off_c, 15, 65, 95
7, 314400, Note_off_c, 15, 60, 95
7, 314400, Note_off_c, 15, 56, 95
7, 314400, Note_off_c, 15, 51, 95
7, 314400, Note_off_c, 15, 46, 95
7, 314400, Note_on_c, 15, 65, 95
7, 314400, Note_on_c, 15, 60, 95
7, 314400, Note_on_c, 15, 56, 95
7, 314400, Note_on_c, 15, 51, 95
7, 314400, Note_on_c, 15, 46, 95
7, 314880, Note_off_c, 15, 65, 95
7, 314880, Note_off_c, 15, 60, 95
7, 314880, Note_off_c, 15, 56, 95
7, 314880, Note_off_c, 15, 51, 95
7, 314880, Note_off_c, 15, 46, 95
7, 314880, Note_on_c, 15, 65, 95
7, 314880, Note_on_c, 15, 60, 95
7, 314880, Note_on_c, 15, 56, 95
7, 314880, Note_on_c, 15, 51, 95
7, 314880, Note_on_c, 15, 46, 95
7, 315360, Note_off_c, 15, 65, 95
7, 315360, Note_off_c, 15, 60, 95
7, 315360, Note_off_c, 15, 56, 95
7, 315360, Note_off_c, 15, 51, 95
7, 315360, Note_off_c, 15, 46, 95
7, 315360, Note_on_c, 15, 65, 95
7, 315360, Note_on_c, 15, 60, 95
7, 315360, Note_on_c, 15, 56, 95
7, 315360, Note_on_c, 15, 51, 95
7, 315360, Note_on_c, 15, 46, 95
7, 315840, Note_off_c, 15, 65, 95
7, 315840, Note_off_c, 15, 60, 95
7, 315840, Note_off_c, 15, 56, 95
7, 315840, Note_off_c, 15, 51, 95
7, 315840, Note_off_c, 15, 46, 95
7, 315840, Note_on_c, 15, 65, 95
7, 315840, Note_on_c, 15, 60, 95
7, 315840, Note_on_c, 15, 56, 95
7, 315840, Note_on_c, 15, 51, 95
7, 315840, Note_on_c, 15, 46, 95
7, 316320, Note_off_c, 15, 65, 95
7, 316320, Note_off_c, 15, 60, 95
7, 316320, Note_off_c, 15, 56, 95
7, 316320, Note_off_c, 15, 51, 95
7, 316320, Note_off_c, 15, 46, 95
7, 316320, Note_on_c, 15, 65, 95
7, 316320, Note_on_c, 15, 60, 95
7, 316320, Note_on_c, 15, 56, 95
7, 316320, Note_on_c, 15, 51, 95
7, 316320, Note_on_c, 15, 46, 95
7, 317280, Note_off_c, 15, 65, 95
7, 317280, Note_off_c, 15, 60, 95
7, 317280, Note_off_c, 15, 56, 95
7, 317280, Note_off_c, 15, 51, 95
7, 317280, Note_off_c, 15, 46, 95
7, 317280, Note_on_c, 15, 65, 95
7, 317280, Note_on_c, 15, 60, 95
7, 317280, Note_on_c, 15, 56, 95
7, 317280, Note_on_c, 15, 51, 95
7, 317280, Note_on_c, 15, 46, 95
7, 317760, Note_off_c, 15, 65, 95
7, 317760, Note_off_c, 15, 60, 95
7, 317760, Note_off_c, 15, 56, 95
7, 317760, Note_off_c, 15, 51, 95
7, 317760, Note_off_c, 15, 46, 95
7, 317760, Note_on_c, 15, 65, 95
7, 317760, Note_on_c, 15, 60, 95
7, 317760, Note_on_c, 15, 56, 95
7, 317760, Note_on_c, 15, 51, 95
7, 317760, Note_on_c, 15, 46, 95
7, 318240, Note_off_c, 15, 65, 95
7, 318240, Note_off_c, 15, 60, 95
7, 318240, Note_off_c, 15, 56, 95
7, 318240, Note_off_c, 15, 51, 95
7, 318240, Note_off_c, 15, 46, 95
7, 318240, Note_on_c, 15, 65, 95
7, 318240, Note_on_c, 15, 60, 95
7, 318240, Note_on_c, 15, 56, 95
7, 318240, Note_on_c, 15, 51, 95
7, 318240, Note_on_c, 15, 46, 95
7, 318720, Note_off_c, 15, 65, 95
7, 318720, Note_off_c, 15, 60, 95
7, 318720, Note_off_c, 15, 56, 95
7, 318720, Note_off_c, 15, 51, 95
7, 318720, Note_off_c, 15, 46, 95
7, 318720, Note_on_c, 15, 70, 95
7, 318720, Note_on_c, 15, 67, 95
7, 318720, Note_on_c, 15, 63, 95
7, 318720, Note_on_c, 15, 58, 95
7, 318720, Note_on_c, 15, 51, 95
7, 319200, Note_off_c, 15, 70, 95
7, 319200, Note_off_c, 15, 67, 95
7, 319200, Note_off_c, 15, 63, 95
7, 319200, Note_off_c, 15, 58, 95
7, 319200, Note_off_c, 15, 51, 95
7, 319200, Note_on_c, 15, 70, 95
7, 319200, Note_on_c, 15, 67, 95
7, 319200, Note_on_c, 15, 63, 95
7, 319200, Note_on_c, 15, 58, 95
7, 319200, Note_on_c, 15, 51, 95
7, 319680, Note_off_c, 15, 70, 95
7, 319680, Note_off_c, 15, 67, 95
7, 319680, Note_off_c, 15, 63, 95
7, 319680, Note_off_c, 15, 58, 95
7, 319680, Note_off_c, 15, 51, 95
7, 319680, Note_on_c, 15, 70, 95
7, 319680, Note_on_c, 15, 67, 95
7, 319680, Note_on_c, 15, 63, 95
7, 319680, Note_on_c, 15, 58, 95
7, 319680, Note_on_c, 15, 51, 95
7, 320160, Note_off_c, 15, 70, 95
7, 320160, Note_off_c, 15, 67, 95
7, 320160, Note_off_c, 15, 63, 95
7, 320160, Note_off_c, 15, 58, 95
7, 320160, Note_off_c, 15, 51, 95
7, 320160, Note_on_c, 15, 70, 95
7, 320160, Note_on_c, 15, 67, 95
7, 320160, Note_on_c, 15, 63, 95
7, 320160, Note_on_c, 15, 58, 95
7, 320160, Note_on_c, 15, 51, 95
7, 321120, Note_off_c, 15, 70, 95
7, 321120, Note_off_c, 15, 67, 95
7, 321120, Note_off_c, 15, 63, 95
7, 321120, Note_off_c, 15, 58, 95
7, 321120, Note_off_c, 15, 51, 95
7, 321120, Note_on_c, 15, 70, 95
7, 321120, Note_on_c, 15, 67, 95
7, 321120, Note_on_c, 15, 63, 95
7, 321120, Note_on_c, 15, 58, 95
7, 321120, Note_on_c, 15, 51, 95
7, 321600, Note_off_c, 15, 70, 95
7, 321600, Note_off_c, 15, 67, 95
7, 321600, Note_off_c, 15, 63, 95
7, 321600, Note_off_c, 15, 58, 95
7, 321600, Note_off_c, 15, 51, 95
7, 321600, Note_on_c, 15, 70, 95
7, 321600, Note_on_c, 15, 67, 95
7, 321600, Note_on_c, 15, 63, 95
7, 321600, Note_on_c, 15, 58, 95
7, 321600, Note_on_c, 15, 51, 95
7, 322080, Note_off_c, 15, 70, 95
7, 322080, Note_off_c, 15, 67, 95
7, 322080, Note_off_c, 15, 63, 95
7, 322080, Note_off_c, 15, 58, 95
7, 322080, Note_off_c, 15, 51, 95
7, 322080, Note_on_c, 15, 70, 95
7, 322080, Note_on_c, 15, 67, 95
7, 322080, Note_on_c, 15, 63, 95
7, 322080, Note_on_c, 15, 58, 95
7, 322080, Note_on_c, 15, 51, 95
7, 322560, Note_off_c, 15, 70, 95
7, 322560, Note_off_c, 15, 67, 95
7, 322560, Note_off_c, 15, 63, 95
7, 322560, Note_off_c, 15, 58, 95
7, 322560, Note_off_c, 15, 51, 95
7, 322560, Note_on_c, 15, 70, 95
7, 322560, Note_on_c, 15, 67, 95
7, 322560, Note_on_c, 15, 62, 95
7, 322560, Note_on_c, 15, 58, 95
7, 322560, Note_on_c, 15, 51, 95
7, 323040, Note_off_c, 15, 70, 95
7, 323040, Note_off_c, 15, 67, 95
7, 323040, Note_off_c, 15, 62, 95
7, 323040, Note_off_c, 15, 58, 95
7, 323040, Note_off_c, 15, 51, 95
7, 323040, Note_on_c, 15, 70, 95
7, 323040, Note_on_c, 15, 67, 95
7, 323040, Note_on_c, 15, 62, 95
7, 323040, Note_on_c, 15, 58, 95
7, 323040, Note_on_c, 15, 51, 95
7, 323520, Note_off_c, 15, 70, 95
7, 323520, Note_off_c, 15, 67, 95
7, 323520, Note_off_c, 15, 62, 95
7, 323520, Note_off_c, 15, 58, 95
7, 323520, Note_off_c, 15, 51, 95
7, 323520, Note_on_c, 15, 70, 95
7, 323520, Note_on_c, 15, 67, 95
7, 323520, Note_on_c, 15, 62, 95
7, 323520, Note_on_c, 15, 58, 95
7, 323520, Note_on_c, 15, 51, 95
7, 324000, Note_off_c, 15, 70, 95
7, 324000, Note_off_c, 15, 67, 95
7, 324000, Note_off_c, 15, 62, 95
7, 324000, Note_off_c, 15, 58, 95
7, 324000, Note_off_c, 15, 51, 95
7, 324000, Note_on_c, 15, 70, 95
7, 324000, Note_on_c, 15, 67, 95
7, 324000, Note_on_c, 15, 62, 95
7, 324000, Note_on_c, 15, 58, 95
7, 324000, Note_on_c, 15, 51, 95
7, 324960, Note_off_c, 15, 70, 95
7, 324960, Note_off_c, 15, 67, 95
7, 324960, Note_off_c, 15, 62, 95
7, 324960, Note_off_c, 15, 58, 95
7, 324960, Note_off_c, 15, 51, 95
7, 324960, Note_on_c, 15, 70, 95
7, 324960, Note_on_c, 15, 67, 95
7, 324960, Note_on_c, 15, 62, 95
7, 324960, Note_on_c, 15, 58, 95
7, 324960, Note_on_c, 15, 51, 95
7, 325440, Note_off_c, 15, 70, 95
7, 325440, Note_off_c, 15, 67, 95
7, 325440, Note_off_c, 15, 62, 95
7, 325440, Note_off_c, 15, 58, 95
7, 325440, Note_off_c, 15, 51, 95
7, 325440, Note_on_c, 15, 70, 95
7, 325440, Note_on_c, 15, 67, 95
7, 325440, Note_on_c, 15, 62, 95
7, 325440, Note_on_c, 15, 58, 95
7, 325440, Note_on_c, 15, 51, 95
7, 325920, Note_off_c, 15, 70, 95
7, 325920, Note_off_c, 15, 67, 95
7, 325920, Note_off_c, 15, 62, 95
7, 325920, Note_off_c, 15, 58, 95
7, 325920, Note_off_c, 15, 51, 95
7, 325920, Note_on_c, 15, 70, 95
7, 325920, Note_on_c, 15, 67, 95
7, 325920, Note_on_c, 15, 62, 95
7, 325920, Note_on_c, 15, 58, 95
7, 325920, Note_on_c, 15, 51, 95
7, 326400, Note_off_c, 15, 70, 95
7, 326400, Note_off_c, 15, 67, 95
7, 326400, Note_off_c, 15, 62, 95
7, 326400, Note_off_c, 15, 58, 95
7, 326400, Note_off_c, 15, 51, 95
7, 326400, Note_on_c, 15, 67, 95
7, 326400, Note_on_c, 15, 63, 95
7, 326400, Note_on_c, 15, 60, 95
7, 326400, Note_on_c, 15, 56, 95
7, 326880, Note_off_c, 15, 67, 95
7, 326880, Note_off_c, 15, 63, 95
7, 326880, Note_off_c, 15, 60, 95
7, 326880, Note_off_c, 15, 56, 95
7, 326880, Note_on_c, 15, 67, 95
7, 326880, Note_on_c, 15, 63, 95
7, 326880, Note_on_c, 15, 60, 95
7, 326880, Note_on_c, 15, 56, 95
7, 327360, Note_off_c, 15, 67, 95
7, 327360, Note_off_c, 15, 63, 95
7, 327360, Note_off_c, 15, 60, 95
7, 327360, Note_off_c, 15, 56, 95
7, 327360, Note_on_c, 15, 67, 95
7, 327360, Note_on_c, 15, 63, 95
7, 327360, Note_on_c, 15, 60, 95
7, 327360, Note_on_c, 15, 56, 95
7, 327840, Note_off_c, 15, 67, 95
7, 327840, Note_off_c, 15, 63, 95
7, 327840, Note_off_c, 15, 60, 95
7, 327840, Note_off_c, 15, 56, 95
7, 327840, Note_on_c, 15, 67, 95
7, 327840, Note_on_c, 15, 63, 95
7, 327840, Note_on_c, 15, 60, 95
7, 327840, Note_on_c, 15, 56, 95
7, 328800, Note_off_c, 15, 67, 95
7, 328800, Note_off_c, 15, 63, 95
7, 328800, Note_off_c, 15, 60, 95
7, 328800, Note_off_c, 15, 56, 95
7, 328800, Note_on_c, 15, 67, 95
7, 328800, Note_on_c, 15, 63, 95
7, 328800, Note_on_c, 15, 60, 95
7, 328800, Note_on_c, 15, 56, 95
7, 329280, Note_off_c, 15, 67, 95
7, 329280, Note_off_c, 15, 63, 95
7, 329280, Note_off_c, 15, 60, 95
7, 329280, Note_off_c, 15, 56, 95
7, 329280, Note_on_c, 15, 67, 95
7, 329280, Note_on_c, 15, 63, 95
7, 329280, Note_on_c, 15, 60, 95
7, 329280, Note_on_c, 15, 56, 95
7, 329760, Note_off_c, 15, 67, 95
7, 329760, Note_off_c, 15, 63, 95
7, 329760, Note_off_c, 15, 60, 95
7, 329760, Note_off_c, 15, 56, 95
7, 329760, Note_on_c, 15, 67, 95
7, 329760, Note_on_c, 15, 63, 95
7, 329760, Note_on_c, 15, 60, 95
7, 329760, Note_on_c, 15, 56, 95
7, 330240, Note_off_c, 15, 67, 95
7, 330240, Note_off_c, 15, 63, 95
7, 330240, Note_off_c, 15, 60, 95
7, 330240, Note_off_c, 15, 56, 95
7, 330240, Note_on_c, 15, 68, 95
7, 330240, Note_on_c, 15, 65, 95
7, 330240, Note_on_c, 15, 61, 95
7, 330240, Note_on_c, 15, 56, 95
7, 330240, Note_on_c, 15, 49, 95
7, 330720, Note_off_c, 15, 68, 95
7, 330720, Note_off_c, 15, 65, 95
7, 330720, Note_off_c, 15, 61, 95
7, 330720, Note_off_c, 15, 56, 95
7, 330720, Note_off_c, 15, 49, 95
7, 330720, Note_on_c, 15, 68, 95
7, 330720, Note_on_c, 15, 65, 95
7, 330720, Note_on_c, 15, 61, 95
7, 330720, Note_on_c, 15, 56, 95
7, 330720, Note_on_c, 15, 49, 95
7, 331200, Note_off_c, 15, 68, 95
7, 331200, Note_off_c, 15, 65, 95
7, 331200, Note_off_c, 15, 61, 95
7, 331200, Note_off_c, 15, 56, 95
7, 331200, Note_off_c, 15, 49, 95
7, 331200, Note_on_c, 15, 68, 95
7, 331200, Note_on_c, 15, 65, 95
7, 331200, Note_on_c, 15, 61, 95
7, 331200, Note_on_c, 15, 56, 95
7, 331200, Note_on_c, 15, 49, 95
7, 331680, Note_off_c, 15, 68, 95
7, 331680, Note_off_c, 15, 65, 95
7, 331680, Note_off_c, 15, 61, 95
7, 331680, Note_off_c, 15, 56, 95
7, 331680, Note_off_c, 15, 49, 95
7, 331680, Note_on_c, 15, 68, 95
7, 331680, Note_on_c, 15, 65, 95
7, 331680, Note_on_c, 15, 61, 95
7, 331680, Note_on_c, 15, 56, 95
7, 331680, Note_on_c, 15, 49, 95
7, 332640, Note_off_c, 15, 68, 95
7, 332640, Note_off_c, 15, 65, 95
7, 332640, Note_off_c, 15, 61, 95
7, 332640, Note_off_c, 15, 56, 95
7, 332640, Note_off_c, 15, 49, 95
7, 332640, Note_on_c, 15, 68, 95
7, 332640, Note_on_c, 15, 65, 95
7, 332640, Note_on_c, 15, 61, 95
7, 332640, Note_on_c, 15, 56, 95
7, 332640, Note_on_c, 15, 49, 95
7, 333120, Note_off_c, 15, 68, 95
7, 333120, Note_off_c, 15, 65, 95
7, 333120, Note_off_c, 15, 61, 95
7, 333120, Note_off_c, 15, 56, 95
7, 333120, Note_off_c, 15, 49, 95
7, 333120, Note_on_c, 15, 68, 95
7, 333120, Note_on_c, 15, 65, 95
7, 333120, Note_on_c, 15, 61, 95
7, 333120, Note_on_c, 15, 56, 95
7, 333120, Note_on_c, 15, 49, 95
7, 333600, Note_off_c, 15, 68, 95
7, 333600, Note_off_c, 15, 65, 95
7, 333600, Note_off_c, 15, 61, 95
7, 333600, Note_off_c, 15, 56, 95
7, 333600, Note_off_c, 15, 49, 95
7, 333600, Note_on_c, 15, 68, 95
7, 333600, Note_on_c, 15, 65, 95
7, 333600, Note_on_c, 15, 61, 95
7, 333600, Note_on_c, 15, 56, 95
7, 333600, Note_on_c, 15, 49, 95
7, 334080, Note_off_c, 15, 68, 95
7, 334080, Note_off_c, 15, 65, 95
7, 334080, Note_off_c, 15, 61, 95
7, 334080, Note_off_c, 15, 56, 95
7, 334080, Note_off_c, 15, 49, 95
7, 334080, Note_on_c, 15, 70, 95
7, 334080, Note_on_c, 15, 67, 95
7, 334080, Note_on_c, 15, 63, 95
7, 334080, Note_on_c, 15, 58, 95
7, 334080, Note_on_c, 15, 51, 95
7, 334560, Note_off_c, 15, 70, 95
7, 334560, Note_off_c, 15, 67, 95
7, 334560, Note_off_c, 15, 63, 95
7, 334560, Note_off_c, 15, 58, 95
7, 334560, Note_off_c, 15, 51, 95
7, 334560, Note_on_c, 15, 70, 95
7, 334560, Note_on_c, 15, 67, 95
7, 334560, Note_on_c, 15, 63, 95
7, 334560, Note_on_c, 15, 58, 95
7, 334560, Note_on_c, 15, 51, 95
7, 335040, Note_off_c, 15, 70, 95
7, 335040, Note_off_c, 15, 67, 95
7, 335040, Note_off_c, 15, 63, 95
7, 335040, Note_off_c, 15, 58, 95
7, 335040, Note_off_c, 15, 51, 95
7, 335040, Note_on_c, 15, 70, 95
7, 335040, Note_on_c, 15, 67, 95
7, 335040, Note_on_c, 15, 63, 95
7, 335040, Note_on_c, 15, 58, 95
7, 335040, Note_on_c, 15, 51, 95
7, 335520, Note_off_c, 15, 70, 95
7, 335520, Note_off_c, 15, 67, 95
7, 335520, Note_off_c, 15, 63, 95
7, 335520, Note_off_c, 15, 58, 95
7, 335520, Note_off_c, 15, 51, 95
7, 335520, Note_on_c, 15, 70, 95
7, 335520, Note_on_c, 15, 67, 95
7, 335520, Note_on_c, 15, 63, 95
7, 335520, Note_on_c, 15, 58, 95
7, 335520, Note_on_c, 15, 51, 95
7, 336480, Note_off_c, 15, 70, 95
7, 336480, Note_off_c, 15, 67, 95
7, 336480, Note_off_c, 15, 63, 95
7, 336480, Note_off_c, 15, 58, 95
7, 336480, Note_off_c, 15, 51, 95
7, 336480, Note_on_c, 15, 70, 95
7, 336480, Note_on_c, 15, 67, 95
7, 336480, Note_on_c, 15, 63, 95
7, 336480, Note_on_c, 15, 58, 95
7, 336480, Note_on_c, 15, 51, 95
7, 336960, Note_off_c, 15, 70, 95
7, 336960, Note_off_c, 15, 67, 95
7, 336960, Note_off_c, 15, 63, 95
7, 336960, Note_off_c, 15, 58, 95
7, 336960, Note_off_c, 15, 51, 95
7, 336960, Note_on_c, 15, 70, 95
7, 336960, Note_on_c, 15, 67, 95
7, 336960, Note_on_c, 15, 63, 95
7, 336960, Note_on_c, 15, 58, 95
7, 336960, Note_on_c, 15, 51, 95
7, 337440, Note_off_c, 15, 70, 95
7, 337440, Note_off_c, 15, 67, 95
7, 337440, Note_off_c, 15, 63, 95
7, 337440, Note_off_c, 15, 58, 95
7, 337440, Note_off_c, 15, 51, 95
7, 337440, Note_on_c, 15, 70, 95
7, 337440, Note_on_c, 15, 67, 95
7, 337440, Note_on_c, 15, 63, 95
7, 337440, Note_on_c, 15, 58, 95
7, 337440, Note_on_c, 15, 51, 95
7, 337920, Note_off_c, 15, 70, 95
7, 337920, Note_off_c, 15, 67, 95
7, 337920, Note_off_c, 15, 63, 95
7, 337920, Note_off_c, 15, 58, 95
7, 337920, Note_off_c, 15, 51, 95
7, 337920, Note_on_c, 15, 70, 95
7, 337920, Note_on_c, 15, 65, 95
7, 337920, Note_on_c, 15, 61, 95
7, 337920, Note_on_c, 15, 56, 95
7, 337920, Note_on_c, 15, 49, 95
7, 338400, Note_off_c, 15, 70, 95
7, 338400, Note_off_c, 15, 65, 95
7, 338400, Note_off_c, 15, 61, 95
7, 338400, Note_off_c, 15, 56, 95
7, 338400, Note_off_c, 15, 49, 95
7, 338400, Note_on_c, 15, 70, 95
7, 338400, Note_on_c, 15, 65, 95
7, 338400, Note_on_c, 15, 61, 95
7, 338400, Note_on_c, 15, 56, 95
7, 338400, Note_on_c, 15, 49, 95
7, 338880, Note_off_c, 15, 70, 95
7, 338880, Note_off_c, 15, 65, 95
7, 338880, Note_off_c, 15, 61, 95
7, 338880, Note_off_c, 15, 56, 95
7, 338880, Note_off_c, 15, 49, 95
7, 338880, Note_on_c, 15, 70, 95
7, 338880, Note_on_c, 15, 65, 95
7, 338880, Note_on_c, 15, 61, 95
7, 338880, Note_on_c, 15, 56, 95
7, 338880, Note_on_c, 15, 49, 95
7, 339360, Note_off_c, 15, 70, 95
7, 339360, Note_off_c, 15, 65, 95
7, 339360, Note_off_c, 15, 61, 95
7, 339360, Note_off_c, 15, 56, 95
7, 339360, Note_off_c, 15, 49, 95
7, 339360, Note_on_c, 15, 70, 95
7, 339360, Note_on_c, 15, 65, 95
7, 339360, Note_on_c, 15, 61, 95
7, 339360, Note_on_c, 15, 56, 95
7, 339360, Note_on_c, 15, 49, 95
7, 340320, Note_off_c, 15, 70, 95
7, 340320, Note_off_c, 15, 65, 95
7, 340320, Note_off_c, 15, 61, 95
7, 340320, Note_off_c, 15, 56, 95
7, 340320, Note_off_c, 15, 49, 95
7, 340320, Note_on_c, 15, 70, 95
7, 340320, Note_on_c, 15, 65, 95
7, 340320, Note_on_c, 15, 61, 95
7, 340320, Note_on_c, 15, 56, 95
7, 340320, Note_on_c, 15, 49, 95
7, 340800, Note_off_c, 15, 70, 95
7, 340800, Note_off_c, 15, 65, 95
7, 340800, Note_off_c, 15, 61, 95
7, 340800, Note_off_c, 15, 56, 95
7, 340800, Note_off_c, 15, 49, 95
7, 340800, Note_on_c, 15, 70, 95
7, 340800, Note_on_c, 15, 65, 95
7, 340800, Note_on_c, 15, 61, 95
7, 340800, Note_on_c, 15, 56, 95
7, 340800, Note_on_c, 15, 49, 95
7, 341280, Note_off_c, 15, 70, 95
7, 341280, Note_off_c, 15, 65, 95
7, 341280, Note_off_c, 15, 61, 95
7, 341280, Note_off_c, 15, 56, 95
7, 341280, Note_off_c, 15, 49, 95
7, 341280, Note_on_c, 15, 70, 95
7, 341280, Note_on_c, 15, 65, 95
7, 341280, Note_on_c, 15, 61, 95
7, 341280, Note_on_c, 15, 56, 95
7, 341280, Note_on_c, 15, 49, 95
7, 341760, Note_off_c, 15, 70, 95
7, 341760, Note_off_c, 15, 65, 95
7, 341760, Note_off_c, 15, 61, 95
7, 341760, Note_off_c, 15, 56, 95
7, 341760, Note_off_c, 15, 49, 95
7, 341760, Note_on_c, 15, 67, 95
7, 341760, Note_on_c, 15, 64, 95
7, 341760, Note_on_c, 15, 58, 95
7, 341760, Note_on_c, 15, 55, 95
7, 341760, Note_on_c, 15, 48, 95
7, 342240, Note_off_c, 15, 67, 95
7, 342240, Note_off_c, 15, 64, 95
7, 342240, Note_off_c, 15, 58, 95
7, 342240, Note_off_c, 15, 55, 95
7, 342240, Note_off_c, 15, 48, 95
7, 342240, Note_on_c, 15, 67, 95
7, 342240, Note_on_c, 15, 64, 95
7, 342240, Note_on_c, 15, 58, 95
7, 342240, Note_on_c, 15, 55, 95
7, 342240, Note_on_c, 15, 48, 95
7, 342720, Note_off_c, 15, 67, 95
7, 342720, Note_off_c, 15, 64, 95
7, 342720, Note_off_c, 15, 58, 95
7, 342720, Note_off_c, 15, 55, 95
7, 342720, Note_off_c, 15, 48, 95
7, 342720, Note_on_c, 15, 67, 95
7, 342720, Note_on_c, 15, 64, 95
7, 342720, Note_on_c, 15, 58, 95
7, 342720, Note_on_c, 15, 55, 95
7, 342720, Note_on_c, 15, 48, 95
7, 343200, Note_off_c, 15, 67, 95
7, 343200, Note_off_c, 15, 64, 95
7, 343200, Note_off_c, 15, 58, 95
7, 343200, Note_off_c, 15, 55, 95
7, 343200, Note_off_c, 15, 48, 95
7, 343200, Note_on_c, 15, 67, 95
7, 343200, Note_on_c, 15, 64, 95
7, 343200, Note_on_c, 15, 58, 95
7, 343200, Note_on_c, 15, 55, 95
7, 343200, Note_on_c, 15, 48, 95
7, 344160, Note_off_c, 15, 67, 95
7, 344160, Note_off_c, 15, 64, 95
7, 344160, Note_off_c, 15, 58, 95
7, 344160, Note_off_c, 15, 55, 95
7, 344160, Note_off_c, 15, 48, 95
7, 344160, Note_on_c, 15, 67, 95
7, 344160, Note_on_c, 15, 64, 95
7, 344160, Note_on_c, 15, 58, 95
7, 344160, Note_on_c, 15, 55, 95
7, 344160, Note_on_c, 15, 48, 95
7, 344640, Note_off_c, 15, 67, 95
7, 344640, Note_off_c, 15, 64, 95
7, 344640, Note_off_c, 15, 58, 95
7, 344640, Note_off_c, 15, 55, 95
7, 344640, Note_off_c, 15, 48, 95
7, 344640, Note_on_c, 15, 67, 95
7, 344640, Note_on_c, 15, 64, 95
7, 344640, Note_on_c, 15, 58, 95
7, 344640, Note_on_c, 15, 55, 95
7, 344640, Note_on_c, 15, 48, 95
7, 345120, Note_off_c, 15, 67, 95
7, 345120, Note_off_c, 15, 64, 95
7, 345120, Note_off_c, 15, 58, 95
7, 345120, Note_off_c, 15, 55, 95
7, 345120, Note_off_c, 15, 48, 95
7, 345120, Note_on_c, 15, 67, 95
7, 345120, Note_on_c, 15, 64, 95
7, 345120, Note_on_c, 15, 58, 95
7, 345120, Note_on_c, 15, 55, 95
7, 345120, Note_on_c, 15, 48, 95
7, 345600, Note_off_c, 15, 67, 95
7, 345600, Note_off_c, 15, 64, 95
7, 345600, Note_off_c, 15, 58, 95
7, 345600, Note_off_c, 15, 55, 95
7, 345600, Note_off_c, 15, 48, 95
7, 345600, Note_on_c, 15, 67, 95
7, 345600, Note_on_c, 15, 64, 95
7, 345600, Note_on_c, 15, 58, 95
7, 345600, Note_on_c, 15, 55, 95
7, 345600, Note_on_c, 15, 48, 95
7, 346080, Note_off_c, 15, 67, 95
7, 346080, Note_off_c, 15, 64, 95
7, 346080, Note_off_c, 15, 58, 95
7, 346080, Note_off_c, 15, 55, 95
7, 346080, Note_off_c, 15, 48, 95
7, 346080, Note_on_c, 15, 67, 95
7, 346080, Note_on_c, 15, 64, 95
7, 346080, Note_on_c, 15, 58, 95
7, 346080, Note_on_c, 15, 55, 95
7, 346080, Note_on_c, 15, 48, 95
7, 346560, Note_off_c, 15, 67, 95
7, 346560, Note_off_c, 15, 64, 95
7, 346560, Note_off_c, 15, 58, 95
7, 346560, Note_off_c, 15, 55, 95
7, 346560, Note_off_c, 15, 48, 95
7, 346560, Note_on_c, 15, 67, 95
7, 346560, Note_on_c, 15, 64, 95
7, 346560, Note_on_c, 15, 58, 95
7, 346560, Note_on_c, 15, 55, 95
7, 346560, Note_on_c, 15, 48, 95
7, 347040, Note_off_c, 15, 67, 95
7, 347040, Note_off_c, 15, 64, 95
7, 347040, Note_off_c, 15, 58, 95
7, 347040, Note_off_c, 15, 55, 95
7, 347040, Note_off_c, 15, 48, 95
7, 347040, Note_on_c, 15, 67, 95
7, 347040, Note_on_c, 15, 64, 95
7, 347040, Note_on_c, 15, 58, 95
7, 347040, Note_on_c, 15, 55, 95
7, 347040, Note_on_c, 15, 48, 95
7, 348000, Note_off_c, 15, 67, 95
7, 348000, Note_off_c, 15, 64, 95
7, 348000, Note_off_c, 15, 58, 95
7, 348000, Note_off_c, 15, 55, 95
7, 348000, Note_off_c, 15, 48, 95
7, 348000, Note_on_c, 15, 67, 95
7, 348000, Note_on_c, 15, 64, 95
7, 348000, Note_on_c, 15, 58, 95
7, 348000, Note_on_c, 15, 55, 95
7, 348000, Note_on_c, 15, 48, 95
7, 348480, Note_off_c, 15, 67, 95
7, 348480, Note_off_c, 15, 64, 95
7, 348480, Note_off_c, 15, 58, 95
7, 348480, Note_off_c, 15, 55, 95
7, 348480, Note_off_c, 15, 48, 95
7, 348480, Note_on_c, 15, 67, 95
7, 348480, Note_on_c, 15, 64, 95
7, 348480, Note_on_c, 15, 58, 95
7, 348480, Note_on_c, 15, 55, 95
7, 348480, Note_on_c, 15, 48, 95
7, 348960, Note_off_c, 15, 67, 95
7, 348960, Note_off_c, 15, 64, 95
7, 348960, Note_off_c, 15, 58, 95
7, 348960, Note_off_c, 15, 55, 95
7, 348960, Note_off_c, 15, 48, 95
7, 348960, Note_on_c, 15, 67, 95
7, 348960, Note_on_c, 15, 64, 95
7, 348960, Note_on_c, 15, 58, 95
7, 348960, Note_on_c, 15, 55, 95
7, 348960, Note_on_c, 15, 48, 95
7, 349440, Note_off_c, 15, 67, 95
7, 349440, Note_off_c, 15, 64, 95
7, 349440, Note_off_c, 15, 58, 95
7, 349440, Note_off_c, 15, 55, 95
7, 349440, Note_off_c, 15, 48, 95
7, 349440, Note_on_c, 15, 65, 95
7, 349440, Note_on_c, 15, 60, 95
7, 349440, Note_on_c, 15, 56, 95
7, 349440, Note_on_c, 15, 51, 95
7, 349440, Note_on_c, 15, 48, 95
7, 349440, Note_on_c, 15, 41, 95
7, 349920, Note_off_c, 15, 65, 95
7, 349920, Note_off_c, 15, 60, 95
7, 349920, Note_off_c, 15, 56, 95
7, 349920, Note_off_c, 15, 51, 95
7, 349920, Note_off_c, 15, 48, 95
7, 349920, Note_off_c, 15, 41, 95
7, 349920, Note_on_c, 15, 65, 95
7, 349920, Note_on_c, 15, 60, 95
7, 349920, Note_on_c, 15, 56, 95
7, 349920, Note_on_c, 15, 51, 95
7, 349920, Note_on_c, 15, 48, 95
7, 349920, Note_on_c, 15, 41, 95
7, 350400, Note_off_c, 15, 65, 95
7, 350400, Note_off_c, 15, 60, 95
7, 350400, Note_off_c, 15, 56, 95
7, 350400, Note_off_c, 15, 51, 95
7, 350400, Note_off_c, 15, 48, 95
7, 350400, Note_off_c, 15, 41, 95
7, 350400, Note_on_c, 15, 65, 95
7, 350400, Note_on_c, 15, 60, 95
7, 350400, Note_on_c, 15, 56, 95
7, 350400, Note_on_c, 15, 51, 95
7, 350400, Note_on_c, 15, 48, 95
7, 350400, Note_on_c, 15, 41, 95
7, 350880, Note_off_c, 15, 65, 95
7, 350880, Note_off_c, 15, 60, 95
7, 350880, Note_off_c, 15, 56, 95
7, 350880, Note_off_c, 15, 51, 95
7, 350880, Note_off_c, 15, 48, 95
7, 350880, Note_off_c, 15, 41, 95
7, 350880, Note_on_c, 15, 65, 95
7, 350880, Note_on_c, 15, 60, 95
7, 350880, Note_on_c, 15, 56, 95
7, 350880, Note_on_c, 15, 51, 95
7, 350880, Note_on_c, 15, 48, 95
7, 350880, Note_on_c, 15, 41, 95
7, 351840, Note_off_c, 15, 65, 95
7, 351840, Note_off_c, 15, 60, 95
7, 351840, Note_off_c, 15, 56, 95
7, 351840, Note_off_c, 15, 51, 95
7, 351840, Note_off_c, 15, 48, 95
7, 351840, Note_off_c, 15, 41, 95
7, 351840, Note_on_c, 15, 65, 95
7, 351840, Note_on_c, 15, 60, 95
7, 351840, Note_on_c, 15, 56, 95
7, 351840, Note_on_c, 15, 51, 95
7, 351840, Note_on_c, 15, 48, 95
7, 351840, Note_on_c, 15, 41, 95
7, 352320, Note_off_c, 15, 65, 95
7, 352320, Note_off_c, 15, 60, 95
7, 352320, Note_off_c, 15, 56, 95
7, 352320, Note_off_c, 15, 51, 95
7, 352320, Note_off_c, 15, 48, 95
7, 352320, Note_off_c, 15, 41, 95
7, 352320, Note_on_c, 15, 65, 95
7, 352320, Note_on_c, 15, 60, 95
7, 352320, Note_on_c, 15, 56, 95
7, 352320, Note_on_c, 15, 51, 95
7, 352320, Note_on_c, 15, 48, 95
7, 352320, Note_on_c, 15, 41, 95
7, 352800, Note_off_c, 15, 65, 95
7, 352800, Note_off_c, 15, 60, 95
7, 352800, Note_off_c, 15, 56, 95
7, 352800, Note_off_c, 15, 51, 95
7, 352800, Note_off_c, 15, 48, 95
7, 352800, Note_off_c, 15, 41, 95
7, 352800, Note_on_c, 15, 65, 95
7, 352800, Note_on_c, 15, 60, 95
7, 352800, Note_on_c, 15, 56, 95
7, 352800, Note_on_c, 15, 51, 95
7, 352800, Note_on_c, 15, 48, 95
7, 352800, Note_on_c, 15, 41, 95
7, 353280, Note_off_c, 15, 65, 95
7, 353280, Note_off_c, 15, 60, 95
7, 353280, Note_off_c, 15, 56, 95
7, 353280, Note_off_c, 15, 51, 95
7, 353280, Note_off_c, 15, 48, 95
7, 353280, Note_off_c, 15, 41, 95
7, 353280, Note_on_c, 15, 68, 95
7, 353280, Note_on_c, 15, 63, 95
7, 353280, Note_on_c, 15, 59, 95
7, 353280, Note_on_c, 15, 53, 95
7, 353280, Note_on_c, 15, 44, 95
7, 353760, Note_off_c, 15, 68, 95
7, 353760, Note_off_c, 15, 63, 95
7, 353760, Note_off_c, 15, 59, 95
7, 353760, Note_off_c, 15, 53, 95
7, 353760, Note_off_c, 15, 44, 95
7, 353760, Note_on_c, 15, 68, 95
7, 353760, Note_on_c, 15, 63, 95
7, 353760, Note_on_c, 15, 59, 95
7, 353760, Note_on_c, 15, 53, 95
7, 353760, Note_on_c, 15, 44, 95
7, 354240, Note_off_c, 15, 68, 95
7, 354240, Note_off_c, 15, 63, 95
7, 354240, Note_off_c, 15, 59, 95
7, 354240, Note_off_c, 15, 53, 95
7, 354240, Note_off_c, 15, 44, 95
7, 354240, Note_on_c, 15, 68, 95
7, 354240, Note_on_c, 15, 63, 95
7, 354240, Note_on_c, 15, 59, 95
7, 354240, Note_on_c, 15, 53, 95
7, 354240, Note_on_c, 15, 44, 95
7, 354720, Note_off_c, 15, 68, 95
7, 354720, Note_off_c, 15, 63, 95
7, 354720, Note_off_c, 15, 59, 95
7, 354720, Note_off_c, 15, 53, 95
7, 354720, Note_off_c, 15, 44, 95
7, 354720, Note_on_c, 15, 68, 95
7, 354720, Note_on_c, 15, 63, 95
7, 354720, Note_on_c, 15, 59, 95
7, 354720, Note_on_c, 15, 53, 95
7, 354720, Note_on_c, 15, 44, 95
7, 355680, Note_off_c, 15, 68, 95
7, 355680, Note_off_c, 15, 63, 95
7, 355680, Note_off_c, 15, 59, 95
7, 355680, Note_off_c, 15, 53, 95
7, 355680, Note_off_c, 15, 44, 95
7, 355680, Note_on_c, 15, 68, 95
7, 355680, Note_on_c, 15, 63, 95
7, 355680, Note_on_c, 15, 59, 95
7, 355680, Note_on_c, 15, 53, 95
7, 355680, Note_on_c, 15, 44, 95
7, 356160, Note_off_c, 15, 68, 95
7, 356160, Note_off_c, 15, 63, 95
7, 356160, Note_off_c, 15, 59, 95
7, 356160, Note_off_c, 15, 53, 95
7, 356160, Note_off_c, 15, 44, 95
7, 356160, Note_on_c, 15, 68, 95
7, 356160, Note_on_c, 15, 63, 95
7, 356160, Note_on_c, 15, 59, 95
7, 356160, Note_on_c, 15, 53, 95
7, 356160, Note_on_c, 15, 44, 95
7, 356640, Note_off_c, 15, 68, 95
7, 356640, Note_off_c, 15, 63, 95
7, 356640, Note_off_c, 15, 59, 95
7, 356640, Note_off_c, 15, 53, 95
7, 356640, Note_off_c, 15, 44, 95
7, 356640, Note_on_c, 15, 68, 95
7, 356640, Note_on_c, 15, 63, 95
7, 356640, Note_on_c, 15, 59, 95
7, 356640, Note_on_c, 15, 53, 95
7, 356640, Note_on_c, 15, 44, 95
7, 357120, Note_off_c, 15, 68, 95
7, 357120, Note_off_c, 15, 63, 95
7, 357120, Note_off_c, 15, 59, 95
7, 357120, Note_off_c, 15, 53, 95
7, 357120, Note_off_c, 15, 44, 95
7, 357120, Note_on_c, 15, 70, 95
7, 357120, Note_on_c, 15, 67, 95
7, 357120, Note_on_c, 15, 63, 95
7, 357120, Note_on_c, 15, 58, 95
7, 357120, Note_on_c, 15, 51, 95
7, 357600, Note_off_c, 15, 70, 95
7, 357600, Note_off_c, 15, 67, 95
7, 357600, Note_off_c, 15, 63, 95
7, 357600, Note_off_c, 15, 58, 95
7, 357600, Note_off_c, 15, 51, 95
7, 357600, Note_on_c, 15, 70, 95
7, 357600, Note_on_c, 15, 67, 95
7, 357600, Note_on_c, 15, 63, 95
7, 357600, Note_on_c, 15, 58, 95
7, 357600, Note_on_c, 15, 51, 95
7, 358080, Note_off_c, 15, 70, 95
7, 358080, Note_off_c, 15, 67, 95
7, 358080, Note_off_c, 15, 63, 95
7, 358080, Note_off_c, 15, 58, 95
7, 358080, Note_off_c, 15, 51, 95
7, 358080, Note_on_c, 15, 70, 95
7, 358080, Note_on_c, 15, 67, 95
7, 358080, Note_on_c, 15, 63, 95
7, 358080, Note_on_c, 15, 58, 95
7, 358080, Note_on_c, 15, 51, 95
7, 358560, Note_off_c, 15, 70, 95
7, 358560, Note_off_c, 15, 67, 95
7, 358560, Note_off_c, 15, 63, 95
7, 358560, Note_off_c, 15, 58, 95
7, 358560, Note_off_c, 15, 51, 95
7, 358560, Note_on_c, 15, 67, 95
7, 358560, Note_on_c, 15, 62, 95
7, 358560, Note_on_c, 15, 58, 95
7, 358560, Note_on_c, 15, 53, 95
7, 358560, Note_on_c, 15, 50, 95
7, 358560, Note_on_c, 15, 43, 95
7, 359520, Note_off_c, 15, 67, 95
7, 359520, Note_off_c, 15, 62, 95
7, 359520, Note_off_c, 15, 58, 95
7, 359520, Note_off_c, 15, 53, 95
7, 359520, Note_off_c, 15, 50, 95
7, 359520, Note_off_c, 15, 43, 95
7, 359520, Note_on_c, 15, 67, 95
7, 359520, Note_on_c, 15, 62, 95
7, 359520, Note_on_c, 15, 58, 95
7, 359520, Note_on_c, 15, 53, 95
7, 359520, Note_on_c, 15, 50, 95
7, 359520, Note_on_c, 15, 43, 95
7, 360000, Note_off_c, 15, 67, 95
7, 360000, Note_off_c, 15, 62, 95
7, 360000, Note_off_c, 15, 58, 95
7, 360000, Note_off_c, 15, 53, 95
7, 360000, Note_off_c, 15, 50, 95
7, 360000, Note_off_c, 15, 43, 95
7, 360000, Note_on_c, 15, 67, 95
7, 360000, Note_on_c, 15, 62, 95
7, 360000, Note_on_c, 15, 58, 95
7, 360000, Note_on_c, 15, 53, 95
7, 360000, Note_on_c, 15, 50, 95
7, 360000, Note_on_c, 15, 43, 95
7, 360480, Note_off_c, 15, 67, 95
7, 360480, Note_off_c, 15, 62, 95
7, 360480, Note_off_c, 15, 58, 95
7, 360480, Note_off_c, 15, 53, 95
7, 360480, Note_off_c, 15, 50, 95
7, 360480, Note_off_c, 15, 43, 95
7, 360480, Note_on_c, 15, 67, 95
7, 360480, Note_on_c, 15, 62, 95
7, 360480, Note_on_c, 15, 58, 95
7, 360480, Note_on_c, 15, 53, 95
7, 360480, Note_on_c, 15, 50, 95
7, 360480, Note_on_c, 15, 43, 95
7, 360960, Note_off_c, 15, 67, 95
7, 360960, Note_off_c, 15, 62, 95
7, 360960, Note_off_c, 15, 58, 95
7, 360960, Note_off_c, 15, 53, 95
7, 360960, Note_off_c, 15, 50, 95
7, 360960, Note_off_c, 15, 43, 95
7, 360960, Note_on_c, 15, 65, 95
7, 360960, Note_on_c, 15, 60, 95
7, 360960, Note_on_c, 15, 56, 95
7, 360960, Note_on_c, 15, 51, 95
7, 360960, Note_on_c, 15, 46, 95
7, 361440, Note_off_c, 15, 65, 95
7, 361440, Note_off_c, 15, 60, 95
7, 361440, Note_off_c, 15, 56, 95
7, 361440, Note_off_c, 15, 51, 95
7, 361440, Note_off_c, 15, 46, 95
7, 361440, Note_on_c, 15, 65, 95
7, 361440, Note_on_c, 15, 60, 95
7, 361440, Note_on_c, 15, 56, 95
7, 361440, Note_on_c, 15, 51, 95
7, 361440, Note_on_c, 15, 46, 95
7, 361920, Note_off_c, 15, 65, 95
7, 361920, Note_off_c, 15, 60, 95
7, 361920, Note_off_c, 15, 56, 95
7, 361920, Note_off_c, 15, 51, 95
7, 361920, Note_off_c, 15, 46, 95
7, 361920, Note_on_c, 15, 65, 95
7, 361920, Note_on_c, 15, 60, 95
7, 361920, Note_on_c, 15, 56, 95
7, 361920, Note_on_c, 15, 51, 95
7, 361920, Note_on_c, 15, 46, 95
7, 362400, Note_off_c, 15, 65, 95
7, 362400, Note_off_c, 15, 60, 95
7, 362400, Note_off_c, 15, 56, 95
7, 362400, Note_off_c, 15, 51, 95
7, 362400, Note_off_c, 15, 46, 95
7, 362400, Note_on_c, 15, 65, 95
7, 362400, Note_on_c, 15, 60, 95
7, 362400, Note_on_c, 15, 56, 95
7, 362400, Note_on_c, 15, 51, 95
7, 362400, Note_on_c, 15, 46, 95
7, 363360, Note_off_c, 15, 65, 95
7, 363360, Note_off_c, 15, 60, 95
7, 363360, Note_off_c, 15, 56, 95
7, 363360, Note_off_c, 15, 51, 95
7, 363360, Note_off_c, 15, 46, 95
7, 363360, Note_on_c, 15, 65, 95
7, 363360, Note_on_c, 15, 60, 95
7, 363360, Note_on_c, 15, 56, 95
7, 363360, Note_on_c, 15, 51, 95
7, 363360, Note_on_c, 15, 46, 95
7, 363840, Note_off_c, 15, 65, 95
7, 363840, Note_off_c, 15, 60, 95
7, 363840, Note_off_c, 15, 56, 95
7, 363840, Note_off_c, 15, 51, 95
7, 363840, Note_off_c, 15, 46, 95
7, 363840, Note_on_c, 15, 65, 95
7, 363840, Note_on_c, 15, 60, 95
7, 363840, Note_on_c, 15, 56, 95
7, 363840, Note_on_c, 15, 51, 95
7, 363840, Note_on_c, 15, 46, 95
7, 364320, Note_off_c, 15, 65, 95
7, 364320, Note_off_c, 15, 60, 95
7, 364320, Note_off_c, 15, 56, 95
7, 364320, Note_off_c, 15, 51, 95
7, 364320, Note_off_c, 15, 46, 95
7, 364320, Note_on_c, 15, 65, 95
7, 364320, Note_on_c, 15, 60, 95
7, 364320, Note_on_c, 15, 56, 95
7, 364320, Note_on_c, 15, 51, 95
7, 364320, Note_on_c, 15, 46, 95
7, 364800, Note_off_c, 15, 65, 95
7, 364800, Note_off_c, 15, 60, 95
7, 364800, Note_off_c, 15, 56, 95
7, 364800, Note_off_c, 15, 51, 95
7, 364800, Note_off_c, 15, 46, 95
7, 364800, Note_on_c, 15, 65, 95
7, 364800, Note_on_c, 15, 60, 95
7, 364800, Note_on_c, 15, 56, 95
7, 364800, Note_on_c, 15, 51, 95
7, 364800, Note_on_c, 15, 46, 95
7, 365280, Note_off_c, 15, 65, 95
7, 365280, Note_off_c, 15, 60, 95
7, 365280, Note_off_c, 15, 56, 95
7, 365280, Note_off_c, 15, 51, 95
7, 365280, Note_off_c, 15, 46, 95
7, 365280, Note_on_c, 15, 65, 95
7, 365280, Note_on_c, 15, 60, 95
7, 365280, Note_on_c, 15, 56, 95
7, 365280, Note_on_c, 15, 51, 95
7, 365280, Note_on_c, 15, 46, 95
7, 365760, Note_off_c, 15, 65, 95
7, 365760, Note_off_c, 15, 60, 95
7, 365760, Note_off_c, 15, 56, 95
7, 365760, Note_off_c, 15, 51, 95
7, 365760, Note_off_c, 15, 46, 95
7, 365760, Note_on_c, 15, 65, 95
7, 365760, Note_on_c, 15, 60, 95
7, 365760, Note_on_c, 15, 56, 95
7, 365760, Note_on_c, 15, 51, 95
7, 365760, Note_on_c, 15, 46, 95
7, 366240, Note_off_c, 15, 65, 95
7, 366240, Note_off_c, 15, 60, 95
7, 366240, Note_off_c, 15, 56, 95
7, 366240, Note_off_c, 15, 51, 95
7, 366240, Note_off_c, 15, 46, 95
7, 366240, Note_on_c, 15, 65, 95
7, 366240, Note_on_c, 15, 60, 95
7, 366240, Note_on_c, 15, 56, 95
7, 366240, Note_on_c, 15, 51, 95
7, 366240, Note_on_c, 15, 46, 95
7, 367200, Note_off_c, 15, 65, 95
7, 367200, Note_off_c, 15, 60, 95
7, 367200, Note_off_c, 15, 56, 95
7, 367200, Note_off_c, 15, 51, 95
7, 367200, Note_off_c, 15, 46, 95
7, 367200, Note_on_c, 15, 65, 95
7, 367200, Note_on_c, 15, 60, 95
7, 367200, Note_on_c, 15, 56, 95
7, 367200, Note_on_c, 15, 51, 95
7, 367200, Note_on_c, 15, 46, 95
7, 367680, Note_off_c, 15, 65, 95
7, 367680, Note_off_c, 15, 60, 95
7, 367680, Note_off_c, 15, 56, 95
7, 367680, Note_off_c, 15, 51, 95
7, 367680, Note_off_c, 15, 46, 95
7, 367680, Note_on_c, 15, 65, 95
7, 367680, Note_on_c, 15, 60, 95
7, 367680, Note_on_c, 15, 56, 95
7, 367680, Note_on_c, 15, 51, 95
7, 367680, Note_on_c, 15, 46, 95
7, 368160, Note_off_c, 15, 65, 95
7, 368160, Note_off_c, 15, 60, 95
7, 368160, Note_off_c, 15, 56, 95
7, 368160, Note_off_c, 15, 51, 95
7, 368160, Note_off_c, 15, 46, 95
7, 368160, Note_on_c, 15, 65, 95
7, 368160, Note_on_c, 15, 60, 95
7, 368160, Note_on_c, 15, 56, 95
7, 368160, Note_on_c, 15, 51, 95
7, 368160, Note_on_c, 15, 46, 95
7, 368640, Note_off_c, 15, 65, 95
7, 368640, Note_off_c, 15, 60, 95
7, 368640, Note_off_c, 15, 56, 95
7, 368640, Note_off_c, 15, 51, 95
7, 368640, Note_off_c, 15, 46, 95
7, 368640, End_track
8, 0, Start_track
8, 0, Pitch_bend_c, 11, 8192
8, 0, Control_c, 11, 7, 103
8, 0, Control_c, 11, 10, 111
8, 0, Control_c, 11, 93, 127
8, 0, Control_c, 11, 91, 63
8, 0, Control_c, 11, 95, 0
8, 0, Control_c, 11, 92, 0
8, 0, Control_c, 11, 11, 127
8, 0, Program_c, 11, 52
8, 0, Control_c, 12, 7, 103
8, 0, Control_c, 12, 10, 111
8, 0, Control_c, 12, 93, 127
8, 0, Control_c, 12, 91, 63
8, 0, Control_c, 12, 95, 0
8, 0, Control_c, 12, 92, 0
8, 0, Control_c, 12, 11, 127
8, 0, Program_c, 12, 52
8, 15360, Control_c, 12, 11, 31
8, 15360, Note_on_c, 12, 70, 95
8, 15360, Control_c, 12, 11, 31
8, 15360, Note_on_c, 12, 67, 95
8, 15400, Control_c, 12, 11, 32
8, 15400, Control_c, 12, 11, 32
8, 15440, Control_c, 12, 11, 33
8, 15440, Control_c, 12, 11, 33
8, 15480, Control_c, 12, 11, 34
8, 15480, Control_c, 12, 11, 34
8, 15520, Control_c, 12, 11, 35
8, 15520, Control_c, 12, 11, 35
8, 15560, Control_c, 12, 11, 36
8, 15560, Control_c, 12, 11, 36
8, 15600, Control_c, 12, 11, 37
8, 15600, Control_c, 12, 11, 37
8, 15640, Control_c, 12, 11, 38
8, 15640, Control_c, 12, 11, 38
8, 15680, Control_c, 12, 11, 39
8, 15680, Control_c, 12, 11, 39
8, 15720, Control_c, 12, 11, 40
8, 15720, Control_c, 12, 11, 40
8, 15760, Control_c, 12, 11, 41
8, 15760, Control_c, 12, 11, 41
8, 15800, Control_c, 12, 11, 42
8, 15800, Control_c, 12, 11, 42
8, 15840, Control_c, 12, 11, 43
8, 15840, Control_c, 12, 11, 43
8, 15880, Control_c, 12, 11, 44
8, 15880, Control_c, 12, 11, 44
8, 15920, Control_c, 12, 11, 45
8, 15920, Control_c, 12, 11, 45
8, 15960, Control_c, 12, 11, 46
8, 15960, Control_c, 12, 11, 46
8, 16000, Control_c, 12, 11, 47
8, 16000, Control_c, 12, 11, 47
8, 16040, Control_c, 12, 11, 48
8, 16040, Control_c, 12, 11, 48
8, 16080, Control_c, 12, 11, 49
8, 16080, Control_c, 12, 11, 49
8, 16120, Control_c, 12, 11, 50
8, 16120, Control_c, 12, 11, 50
8, 16160, Control_c, 12, 11, 51
8, 16160, Control_c, 12, 11, 51
8, 16200, Control_c, 12, 11, 52
8, 16200, Control_c, 12, 11, 52
8, 16240, Control_c, 12, 11, 53
8, 16240, Control_c, 12, 11, 53
8, 16280, Control_c, 12, 11, 54
8, 16280, Control_c, 12, 11, 54
8, 16320, Control_c, 12, 11, 55
8, 16320, Control_c, 12, 11, 55
8, 16360, Control_c, 12, 11, 56
8, 16360, Control_c, 12, 11, 56
8, 16400, Control_c, 12, 11, 57
8, 16400, Control_c, 12, 11, 57
8, 16440, Control_c, 12, 11, 58
8, 16440, Control_c, 12, 11, 58
8, 16480, Control_c, 12, 11, 59
8, 16480, Control_c, 12, 11, 59
8, 16520, Control_c, 12, 11, 60
8, 16520, Control_c, 12, 11, 60
8, 16560, Control_c, 12, 11, 61
8, 16560, Control_c, 12, 11, 61
8, 16600, Control_c, 12, 11, 62
8, 16600, Control_c, 12, 11, 62
8, 16640, Control_c, 12, 11, 63
8, 16640, Control_c, 12, 11, 63
8, 16680, Control_c, 12, 11, 64
8, 16680, Control_c, 12, 11, 64
8, 16720, Control_c, 12, 11, 65
8, 16720, Control_c, 12, 11, 65
8, 16760, Control_c, 12, 11, 66
8, 16760, Control_c, 12, 11, 66
8, 16800, Control_c, 12, 11, 67
8, 16800, Control_c, 12, 11, 67
8, 16840, Control_c, 12, 11, 68
8, 16840, Control_c, 12, 11, 68
8, 16880, Control_c, 12, 11, 69
8, 16880, Control_c, 12, 11, 69
8, 16920, Control_c, 12, 11, 70
8, 16920, Control_c, 12, 11, 70
8, 16960, Control_c, 12, 11, 71
8, 16960, Control_c, 12, 11, 71
8, 17000, Control_c, 12, 11, 72
8, 17000, Control_c, 12, 11, 72
8, 17040, Control_c, 12, 11, 73
8, 17040, Control_c, 12, 11, 73
8, 17080, Control_c, 12, 11, 74
8, 17080, Control_c, 12, 11, 74
8, 17120, Control_c, 12, 11, 75
8, 17120, Control_c, 12, 11, 75
8, 17160, Control_c, 12, 11, 76
8, 17160, Control_c, 12, 11, 76
8, 17200, Control_c, 12, 11, 77
8, 17200, Control_c, 12, 11, 77
8, 17240, Control_c, 12, 11, 78
8, 17240, Control_c, 12, 11, 78
8, 17280, Control_c, 12, 11, 79
8, 17280, Control_c, 12, 11, 79
8, 17320, Control_c, 12, 11, 80
8, 17320, Control_c, 12, 11, 80
8, 17360, Control_c, 12, 11, 81
8, 17360, Control_c, 12, 11, 81
8, 17400, Control_c, 12, 11, 82
8, 17400, Control_c, 12, 11, 82
8, 17440, Control_c, 12, 11, 83
8, 17440, Control_c, 12, 11, 83
8, 17480, Control_c, 12, 11, 84
8, 17480, Control_c, 12, 11, 84
8, 17520, Control_c, 12, 11, 85
8, 17520, Control_c, 12, 11, 85
8, 17560, Control_c, 12, 11, 86
8, 17560, Control_c, 12, 11, 86
8, 17600, Control_c, 12, 11, 87
8, 17600, Control_c, 12, 11, 87
8, 17640, Control_c, 12, 11, 88
8, 17640, Control_c, 12, 11, 88
8, 17680, Control_c, 12, 11, 89
8, 17680, Control_c, 12, 11, 89
8, 17720, Control_c, 12, 11, 90
8, 17720, Control_c, 12, 11, 90
8, 17760, Control_c, 12, 11, 91
8, 17760, Control_c, 12, 11, 91
8, 17800, Control_c, 12, 11, 92
8, 17800, Control_c, 12, 11, 92
8, 17840, Control_c, 12, 11, 93
8, 17840, Control_c, 12, 11, 93
8, 17880, Control_c, 12, 11, 94
8, 17880, Control_c, 12, 11, 94
8, 17920, Control_c, 12, 11, 95
8, 17920, Control_c, 12, 11, 95
8, 17960, Control_c, 12, 11, 96
8, 17960, Control_c, 12, 11, 96
8, 18000, Control_c, 12, 11, 97
8, 18000, Control_c, 12, 11, 97
8, 18040, Control_c, 12, 11, 98
8, 18040, Control_c, 12, 11, 98
8, 18080, Control_c, 12, 11, 99
8, 18080, Control_c, 12, 11, 99
8, 18120, Control_c, 12, 11, 100
8, 18120, Control_c, 12, 11, 100
8, 18160, Control_c, 12, 11, 101
8, 18160, Control_c, 12, 11, 101
8, 18200, Control_c, 12, 11, 102
8, 18200, Control_c, 12, 11, 102
8, 18240, Control_c, 12, 11, 103
8, 18240, Control_c, 12, 11, 103
8, 18280, Control_c, 12, 11, 104
8, 18280, Control_c, 12, 11, 104
8, 18320, Control_c, 12, 11, 105
8, 18320, Control_c, 12, 11, 105
8, 18360, Control_c, 12, 11, 106
8, 18360, Control_c, 12, 11, 106
8, 18400, Control_c, 12, 11, 107
8, 18400, Control_c, 12, 11, 107
8, 18440, Control_c, 12, 11, 108
8, 18440, Control_c, 12, 11, 108
8, 18480, Control_c, 12, 11, 109
8, 18480, Control_c, 12, 11, 109
8, 18520, Control_c, 12, 11, 110
8, 18520, Control_c, 12, 11, 110
8, 18560, Control_c, 12, 11, 111
8, 18560, Control_c, 12, 11, 111
8, 18600, Control_c, 12, 11, 112
8, 18600, Control_c, 12, 11, 112
8, 18640, Control_c, 12, 11, 113
8, 18640, Control_c, 12, 11, 113
8, 18680, Control_c, 12, 11, 114
8, 18680, Control_c, 12, 11, 114
8, 18720, Control_c, 12, 11, 115
8, 18720, Control_c, 12, 11, 115
8, 18760, Control_c, 12, 11, 116
8, 18760, Control_c, 12, 11, 116
8, 18800, Control_c, 12, 11, 117
8, 18800, Control_c, 12, 11, 117
8, 18840, Control_c, 12, 11, 118
8, 18840, Control_c, 12, 11, 118
8, 18880, Control_c, 12, 11, 119
8, 18880, Control_c, 12, 11, 119
8, 18920, Control_c, 12, 11, 120
8, 18920, Control_c, 12, 11, 120
8, 18960, Control_c, 12, 11, 121
8, 18960, Control_c, 12, 11, 121
8, 19000, Control_c, 12, 11, 122
8, 19000, Control_c, 12, 11, 122
8, 19040, Control_c, 12, 11, 123
8, 19040, Control_c, 12, 11, 123
8, 19080, Control_c, 12, 11, 124
8, 19080, Control_c, 12, 11, 124
8, 19120, Control_c, 12, 11, 125
8, 19120, Control_c, 12, 11, 125
8, 19160, Control_c, 12, 11, 126
8, 19160, Control_c, 12, 11, 126
8, 19200, Control_c, 12, 11, 127
8, 19200, Note_off_c, 12, 70, 95
8, 19200, Control_c, 12, 11, 127
8, 19200, Note_off_c, 12, 67, 95
8, 19200, Note_on_c, 11, 67, 70
8, 19200, Note_on_c, 11, 62, 70
8, 23040, Note_off_c, 11, 67, 70
8, 23040, Note_off_c, 11, 62, 70
8, 23040, Note_on_c, 11, 63, 70
8, 26880, Note_off_c, 11, 63, 70
8, 82080, Note_on_c, 11, 70, 95
8, 82080, Note_on_c, 11, 67, 95
8, 82560, Note_off_c, 11, 70, 95
8, 82560, Note_off_c, 11, 67, 95
8, 82560, Note_on_c, 11, 70, 95
8, 82560, Note_on_c, 11, 67, 95
8, 83040, Note_off_c, 11, 70, 95
8, 83040, Note_off_c, 11, 67, 95
8, 83040, Note_on_c, 11, 70, 95
8, 83040, Note_on_c, 11, 67, 95
8, 83520, Note_off_c, 11, 70, 95
8, 83520, Note_off_c, 11, 67, 95
8, 83520, Note_on_c, 11, 70, 95
8, 83520, Note_on_c, 11, 67, 95
8, 84000, Note_off_c, 11, 70, 95
8, 84000, Note_off_c, 11, 67, 95
8, 84000, Note_on_c, 11, 70, 95
8, 84000, Note_on_c, 11, 67, 95
8, 85440, Note_off_c, 11, 70, 95
8, 85440, Note_off_c, 11, 67, 95
8, 174240, Note_on_c, 11, 70, 95
8, 174240, Note_on_c, 11, 67, 95
8, 174720, Note_off_c, 11, 70, 95
8, 174720, Note_off_c, 11, 67, 95
8, 174720, Note_on_c, 11, 70, 95
8, 174720, Note_on_c, 11, 67, 95
8, 175200, Note_off_c, 11, 70, 95
8, 175200, Note_off_c, 11, 67, 95
8, 175200, Note_on_c, 11, 70, 95
8, 175200, Note_on_c, 11, 67, 95
8, 175680, Note_off_c, 11, 70, 95
8, 175680, Note_off_c, 11, 67, 95
8, 175680, Note_on_c, 11, 70, 95
8, 175680, Note_on_c, 11, 67, 95
8, 176160, Note_off_c, 11, 70, 95
8, 176160, Note_off_c, 11, 67, 95
8, 176160, Note_on_c, 11, 70, 95
8, 176160, Note_on_c, 11, 67, 95
8, 177600, Note_off_c, 11, 70, 95
8, 177600, Note_off_c, 11, 67, 95
8, 267840, Note_on_c, 11, 58, 95
8, 268320, Note_off_c, 11, 58, 95
8, 268320, Note_on_c, 11, 58, 95
8, 269280, Note_off_c, 11, 58, 95
8, 269280, Note_on_c, 11, 58, 95
8, 269760, Note_off_c, 11, 58, 95
8, 269760, Note_on_c, 11, 63, 95
8, 270240, Note_off_c, 11, 63, 95
8, 270240, Note_on_c, 11, 62, 95
8, 271200, Note_off_c, 11, 62, 95
8, 271200, Note_on_c, 11, 60, 95
8, 272160, Note_off_c, 11, 60, 95
8, 272160, Note_on_c, 11, 58, 95
8, 273120, Note_off_c, 11, 58, 95
8, 273120, Note_on_c, 11, 63, 95
8, 274080, Note_off_c, 11, 63, 95
8, 274080, Note_on_c, 11, 62, 95
8, 274560, Note_off_c, 11, 62, 95
8, 274560, Note_on_c, 11, 62, 95
8, 275040, Note_off_c, 11, 62, 95
8, 275040, Note_on_c, 11, 60, 95
8, 276480, Note_off_c, 11, 60, 95
8, 276480, Note_on_c, 11, 58, 95
8, 276960, Note_off_c, 11, 58, 95
8, 276960, Note_on_c, 11, 60, 95
8, 277440, Note_off_c, 11, 60, 95
8, 277440, Note_on_c, 11, 63, 95
8, 277920, Note_off_c, 11, 63, 95
8, 277920, Note_on_c, 11, 67, 95
8, 279360, Note_off_c, 11, 67, 95
8, 279360, Note_on_c, 11, 68, 95
8, 279840, Note_off_c, 11, 68, 95
8, 279840, Note_on_c, 11, 67, 95
8, 280320, Note_off_c, 11, 67, 95
8, 280320, Note_on_c, 11, 65, 70
8, 282240, Note_off_c, 11, 65, 70
8, 282240, Note_on_c, 11, 67, 95
8, 283200, Note_off_c, 11, 67, 95
8, 283200, Note_on_c, 11, 68, 95
8, 284160, Note_off_c, 11, 68, 95
8, 284160, Note_on_c, 11, 70, 95
8, 284640, Note_off_c, 11, 70, 95
8, 284640, Note_on_c, 11, 70, 95
8, 285120, Note_off_c, 11, 70, 95
8, 285120, Note_on_c, 11, 70, 95
8, 285600, Note_off_c, 11, 70, 95
8, 285600, Note_on_c, 11, 70, 95
8, 286080, Note_off_c, 11, 70, 95
8, 286080, Note_on_c, 11, 70, 95
8, 286560, Note_off_c, 11, 70, 95
8, 286560, Note_on_c, 11, 72, 95
8, 287520, Note_off_c, 11, 72, 95
8, 287520, Note_on_c, 11, 70, 95
8, 288960, Note_off_c, 11, 70, 95
8, 289920, Note_on_c, 11, 70, 95
8, 290640, Note_off_c, 11, 70, 95
8, 290640, Note_on_c, 11, 72, 95
8, 291360, Note_off_c, 11, 72, 95
8, 291360, Note_on_c, 11, 73, 95
8, 291840, Note_off_c, 11, 73, 95
8, 291840, Note_on_c, 11, 70, 95
8, 292800, Note_off_c, 11, 70, 95
8, 294240, Note_on_c, 11, 70, 95
8, 294720, Note_off_c, 11, 70, 95
8, 294720, Note_on_c, 11, 72, 95
8, 295200, Note_off_c, 11, 72, 95
8, 295200, Note_on_c, 11, 73, 95
8, 296640, Note_off_c, 11, 73, 95
8, 296640, Note_on_c, 11, 73, 95
8, 297600, Note_off_c, 11, 73, 95
8, 297600, Note_on_c, 11, 72, 95
8, 298080, Note_off_c, 11, 72, 95
8, 298080, Note_on_c, 11, 70, 95
8, 299040, Note_off_c, 11, 70, 95
8, 299040, Note_on_c, 11, 72, 95
8, 299280, Note_off_c, 11, 72, 95
8, 299280, Note_on_c, 11, 70, 70
8, 299520, Note_off_c, 11, 70, 70
8, 299520, Note_on_c, 11, 68, 70
8, 300480, Note_off_c, 11, 68, 70
8, 301920, Note_on_c, 11, 68, 95
8, 302400, Note_off_c, 11, 68, 95
8, 302400, Note_on_c, 11, 70, 95
8, 302880, Note_off_c, 11, 70, 95
8, 302880, Note_on_c, 11, 71, 95
8, 304320, Note_off_c, 11, 71, 95
8, 304320, Note_on_c, 11, 71, 95
8, 304800, Note_off_c, 11, 71, 95
8, 304800, Note_on_c, 11, 70, 95
8, 305760, Note_off_c, 11, 70, 95
8, 305760, Note_on_c, 11, 68, 95
8, 306720, Note_off_c, 11, 68, 95
8, 306720, Note_on_c, 11, 67, 95
8, 308160, Note_off_c, 11, 67, 95
8, 313440, Note_on_c, 11, 70, 95
8, 318720, Note_off_c, 11, 70, 95
8, 319200, Note_on_c, 11, 58, 95
8, 319680, Note_off_c, 11, 58, 95
8, 319680, Note_on_c, 11, 63, 95
8, 320160, Note_off_c, 11, 63, 95
8, 320160, Note_on_c, 11, 62, 95
8, 321120, Note_off_c, 11, 62, 95
8, 321120, Note_on_c, 11, 60, 95
8, 322080, Note_off_c, 11, 60, 95
8, 322080, Note_on_c, 11, 58, 95
8, 323040, Note_off_c, 11, 58, 95
8, 323040, Note_on_c, 11, 63, 95
8, 324000, Note_off_c, 11, 63, 95
8, 324000, Note_on_c, 11, 62, 95
8, 324480, Note_off_c, 11, 62, 95
8, 324480, Note_on_c, 11, 62, 95
8, 324960, Note_off_c, 11, 62, 95
8, 324960, Note_on_c, 11, 60, 95
8, 326400, Note_off_c, 11, 60, 95
8, 326400, Note_on_c, 11, 58, 95
8, 326880, Note_off_c, 11, 58, 95
8, 326880, Note_on_c, 11, 60, 95
8, 327360, Note_off_c, 11, 60, 95
8, 327360, Note_on_c, 11, 63, 95
8, 327840, Note_off_c, 11, 63, 95
8, 327840, Note_on_c, 11, 67, 95
8, 329280, Note_off_c, 11, 67, 95
8, 329280, Note_on_c, 11, 68, 95
8, 329760, Note_off_c, 11, 68, 95
8, 329760, Note_on_c, 11, 67, 95
8, 330240, Note_off_c, 11, 67, 95
8, 330240, Note_on_c, 11, 65, 70
8, 332160, Note_off_c, 11, 65, 70
8, 332160, Note_on_c, 11, 67, 95
8, 333120, Note_off_c, 11, 67, 95
8, 333120, Note_on_c, 11, 68, 95
8, 334080, Note_off_c, 11, 68, 95
8, 334080, Note_on_c, 11, 70, 95
8, 334560, Note_off_c, 11, 70, 95
8, 334560, Note_on_c, 11, 70, 95
8, 335040, Note_off_c, 11, 70, 95
8, 335040, Note_on_c, 11, 70, 95
8, 335520, Note_off_c, 11, 70, 95
8, 335520, Note_on_c, 11, 70, 95
8, 336000, Note_off_c, 11, 70, 95
8, 336000, Note_on_c, 11, 70, 95
8, 336480, Note_off_c, 11, 70, 95
8, 336480, Note_on_c, 11, 72, 95
8, 337440, Note_off_c, 11, 72, 95
8, 337440, Note_on_c, 11, 70, 95
8, 338880, Note_off_c, 11, 70, 95
8, 339840, Note_on_c, 11, 70, 95
8, 340560, Note_off_c, 11, 70, 95
8, 340560, Note_on_c, 11, 72, 95
8, 341280, Note_off_c, 11, 72, 95
8, 341280, Note_on_c, 11, 73, 95
8, 341760, Note_off_c, 11, 73, 95
8, 341760, Note_on_c, 11, 70, 95
8, 342720, Note_off_c, 11, 70, 95
8, 344160, Note_on_c, 11, 70, 95
8, 344640, Note_off_c, 11, 70, 95
8, 344640, Note_on_c, 11, 72, 95
8, 345120, Note_off_c, 11, 72, 95
8, 345120, Note_on_c, 11, 73, 95
8, 346560, Note_off_c, 11, 73, 95
8, 346560, Note_on_c, 11, 73, 95
8, 347520, Note_off_c, 11, 73, 95
8, 347520, Note_on_c, 11, 72, 95
8, 348000, Note_off_c, 11, 72, 95
8, 348000, Note_on_c, 11, 70, 95
8, 348960, Note_off_c, 11, 70, 95
8, 348960, Note_on_c, 11, 72, 95
8, 349200, Note_off_c, 11, 72, 95
8, 349200, Note_on_c, 11, 70, 70
8, 349440, Note_off_c, 11, 70, 70
8, 349440, Note_on_c, 11, 68, 70
8, 350400, Note_off_c, 11, 68, 70
8, 351840, Note_on_c, 11, 68, 95
8, 352320, Note_off_c, 11, 68, 95
8, 352320, Note_on_c, 11, 70, 95
8, 352800, Note_off_c, 11, 70, 95
8, 352800, Note_on_c, 11, 71, 95
8, 354240, Note_off_c, 11, 71, 95
8, 354240, Note_on_c, 11, 71, 95
8, 354720, Note_off_c, 11, 71, 95
8, 354720, Note_on_c, 11, 70, 95
8, 355680, Note_off_c, 11, 70, 95
8, 355680, Note_on_c, 11, 68, 95
8, 356640, Note_off_c, 11, 68, 95
8, 356640, Note_on_c, 11, 67, 95
8, 358080, Note_off_c, 11, 67, 95
8, 363360, Note_on_c, 11, 70, 95
8, 368640, Note_off_c, 11, 70, 95
8, 368640, End_track
9, 0, Start_track
9, 0, Pitch_bend_c, 13, 8192
9, 0, Control_c, 13, 7, 103
9, 0, Control_c, 13, 10, 63
9, 0, Control_c, 13, 93, 0
9, 0, Control_c, 13, 91, 0
9, 0, Control_c, 13, 95, 0
9, 0, Control_c, 13, 92, 0
9, 0, Control_c, 13, 11, 127
9, 0, Program_c, 13, 33
9, 0, Control_c, 14, 7, 103
9, 0, Control_c, 14, 10, 63
9, 0, Control_c, 14, 93, 0
9, 0, Control_c, 14, 91, 0
9, 0, Control_c, 14, 95, 0
9, 0, Control_c, 14, 92, 0
9, 0, Control_c, 14, 11, 127
9, 0, Program_c, 14, 33
9, 0, Note_on_c, 13, 39, 95
9, 2400, Note_off_c, 13, 39, 95
9, 2400, Note_on_c, 13, 46, 95
9, 3360, Note_off_c, 13, 46, 95
9, 3360, Note_on_c, 13, 34, 95
9, 3840, Note_off_c, 13, 34, 95
9, 3840, Note_on_c, 13, 39, 95
9, 6720, Note_off_c, 13, 39, 95
9, 6720, Note_on_c, 13, 34, 95
9, 7680, Note_off_c, 13, 34, 95
9, 7680, Note_on_c, 13, 32, 95
9, 11520, Note_off_c, 13, 32, 95
9, 11520, Note_on_c, 13, 46, 95
9, 12000, Note_off_c, 13, 46, 95
9, 12000, Note_on_c, 13, 41, 95
9, 12480, Note_off_c, 13, 41, 95
9, 12480, Note_on_c, 13, 34, 95
9, 13920, Note_off_c, 13, 34, 95
9, 13920, Note_on_c, 13, 41, 95
9, 14400, Note_off_c, 13, 41, 95
9, 14400, Note_on_c, 13, 46, 95
9, 14880, Note_off_c, 13, 46, 95
9, 14880, Note_on_c, 13, 41, 95
9, 15360, Note_off_c, 13, 41, 95
9, 15360, Note_on_c, 13, 39, 95
9, 18720, Note_off_c, 13, 39, 95
9, 18720, Note_on_c, 13, 34, 95
9, 19200, Note_off_c, 13, 34, 95
9, 19200, Note_on_c, 13, 39, 95
9, 22560, Note_off_c, 13, 39, 95
9, 22560, Note_on_c, 13, 34, 95
9, 23040, Note_off_c, 13, 34, 95
9, 23040, Note_on_c, 13, 32, 95
9, 26880, Note_off_c, 13, 32, 95
9, 26880, Note_on_c, 13, 34, 95
9, 27360, Note_off_c, 13, 34, 95
9, 27360, Note_on_c, 13, 46, 95
9, 30720, Note_off_c, 13, 46, 95
9, 30720, Note_on_c, 13, 39, 95
9, 32160, Note_off_c, 13, 39, 95
9, 32160, Note_on_c, 13, 39, 95
9, 32640, Note_off_c, 13, 39, 95
9, 32640, Note_on_c, 13, 31, 95
9, 34080, Note_off_c, 13, 31, 95
9, 34080, Note_on_c, 13, 43, 95
9, 34560, Note_off_c, 13, 43, 95
9, 34560, Note_on_c, 13, 41, 95
9, 36000, Note_off_c, 13, 41, 95
9, 36000, Note_on_c, 13, 41, 95
9, 36480, Note_off_c, 13, 41, 95
9, 36480, Note_on_c, 13, 36, 95
9, 37920, Note_off_c, 13, 36, 95
9, 37920, Note_on_c, 13, 36, 95
9, 38400, Note_off_c, 13, 36, 95
9, 38400, Note_on_c, 13, 41, 95
9, 39840, Note_off_c, 13, 41, 95
9, 39840, Note_on_c, 13, 41, 95
9, 40320, Note_off_c, 13, 41, 95
9, 40320, Note_on_c, 13, 31, 95
9, 41760, Note_off_c, 13, 31, 95
9, 41760, Note_on_c, 13, 31, 95
9, 42240, Note_off_c, 13, 31, 95
9, 42240, Note_on_c, 13, 34, 95
9, 43680, Note_off_c, 13, 34, 95
9, 43680, Note_on_c, 13, 41, 95
9, 44160, Note_off_c, 13, 41, 95
9, 44640, Note_on_c, 13, 46, 95
9, 45120, Note_off_c, 13, 46, 95
9, 45600, Note_on_c, 13, 41, 95
9, 46080, Note_off_c, 13, 41, 95
9, 46080, Note_on_c, 13, 39, 95
9, 47520, Note_off_c, 13, 39, 95
9, 47520, Note_on_c, 13, 39, 95
9, 48000, Note_off_c, 13, 39, 95
9, 48000, Note_on_c, 13, 31, 95
9, 49440, Note_off_c, 13, 31, 95
9, 49440, Note_on_c, 13, 31, 95
9, 49920, Note_off_c, 13, 31, 95
9, 49920, Note_on_c, 13, 36, 95
9, 51360, Note_off_c, 13, 36, 95
9, 51360, Note_on_c, 13, 43, 95
9, 51840, Note_off_c, 13, 43, 95
9, 51840, Note_on_c, 13, 36, 95
9, 53280, Note_off_c, 13, 36, 95
9, 53280, Note_on_c, 13, 36, 95
9, 53760, Note_off_c, 13, 36, 95
9, 53760, Note_on_c, 13, 41, 95
9, 55200, Note_off_c, 13, 41, 95
9, 55200, Note_on_c, 13, 36, 95
9, 55680, Note_off_c, 13, 36, 95
9, 55680, Note_on_c, 13, 41, 95
9, 57120, Note_off_c, 13, 41, 95
9, 57120, Note_on_c, 13, 41, 95
9, 57600, Note_off_c, 13, 41, 95
9, 57600, Note_on_c, 13, 34, 95
9, 59040, Note_off_c, 13, 34, 95
9, 59040, Note_on_c, 13, 34, 95
9, 59520, Note_off_c, 13, 34, 95
9, 59520, Note_on_c, 13, 41, 95
9, 60000, Note_off_c, 13, 41, 95
9, 60000, Note_on_c, 13, 46, 95
9, 60960, Note_off_c, 13, 46, 95
9, 60960, Note_on_c, 13, 41, 95
9, 61440, Note_off_c, 13, 41, 95
9, 61440, Note_on_c, 13, 44, 95
9, 63360, Note_off_c, 13, 44, 95
9, 63840, Note_on_c, 13, 44, 95
9, 64320, Note_off_c, 13, 44, 95
9, 64800, Note_on_c, 13, 39, 95
9, 65280, Note_off_c, 13, 39, 95
9, 65280, Note_on_c, 13, 43, 95
9, 66720, Note_off_c, 13, 43, 95
9, 66720, Note_on_c, 13, 43, 95
9, 67200, Note_off_c, 13, 43, 95
9, 67200, Note_on_c, 13, 38, 95
9, 68160, Note_off_c, 13, 38, 95
9, 68160, Note_on_c, 13, 43, 95
9, 68640, Note_off_c, 13, 43, 95
9, 68640, Note_on_c, 13, 42, 95
9, 69120, Note_off_c, 13, 42, 95
9, 69120, Note_on_c, 13, 41, 95
9, 71520, Note_off_c, 13, 41, 95
9, 71520, Note_on_c, 13, 36, 95
9, 72000, Note_off_c, 13, 36, 95
9, 72000, Note_on_c, 13, 41, 95
9, 72480, Note_off_c, 13, 41, 95
9, 72480, Note_on_c, 13, 36, 95
9, 72960, Note_off_c, 13, 36, 95
9, 72960, Note_on_c, 13, 37, 95
9, 76320, Note_off_c, 13, 37, 95
9, 76320, Note_on_c, 13, 37, 95
9, 76800, Note_off_c, 13, 37, 95
9, 76800, Note_on_c, 13, 43, 95
9, 78240, Note_off_c, 13, 43, 95
9, 78240, Note_on_c, 13, 43, 95
9, 78720, Note_off_c, 13, 43, 95
9, 78720, Note_on_c, 13, 38, 95
9, 79680, Note_off_c, 13, 38, 95
9, 79680, Note_on_c, 13, 31, 95
9, 80640, Note_off_c, 13, 31, 95
9, 80640, Note_on_c, 13, 34, 95
9, 81120, Note_off_c, 13, 34, 95
9, 81120, Note_on_c, 13, 46, 95
9, 84480, Note_off_c, 13, 46, 95
9, 84480, Note_on_c, 13, 39, 95
9, 86880, Note_off_c, 13, 39, 95
9, 86880, Note_on_c, 13, 46, 95
9, 87840, Note_off_c, 13, 46, 95
9, 87840, Note_on_c, 13, 34, 95
9, 88320, Note_off_c, 13, 34, 95
9, 88320, Note_on_c, 13, 39, 95
9, 90720, Note_off_c, 13, 39, 95
9, 90720, Note_on_c, 13, 46, 95
9, 91680, Note_off_c, 13, 46, 95
9, 91680, Note_on_c, 13, 39, 95
9, 92160, Note_off_c, 13, 39, 95
9, 92160, Note_on_c, 13, 32, 95
9, 94080, Note_off_c, 13, 32, 95
9, 94080, Note_on_c, 13, 39, 95
9, 95040, Note_off_c, 13, 39, 95
9, 95040, Note_on_c, 13, 41, 95
9, 96000, Note_off_c, 13, 41, 95
9, 96000, Note_on_c, 13, 44, 95
9, 98400, Note_off_c, 13, 44, 95
9, 98400, Note_on_c, 13, 35, 95
9, 99360, Note_off_c, 13, 35, 95
9, 99360, Note_on_c, 13, 37, 95
9, 99840, Note_off_c, 13, 37, 95
9, 99840, Note_on_c, 13, 39, 95
9, 103200, Note_off_c, 13, 39, 95
9, 103200, Note_on_c, 13, 39, 95
9, 103680, Note_off_c, 13, 39, 95
9, 103680, Note_on_c, 13, 37, 95
9, 107040, Note_off_c, 13, 37, 95
9, 107040, Note_on_c, 13, 37, 95
9, 107520, Note_off_c, 13, 37, 95
9, 107520, Note_on_c, 13, 36, 95
9, 108960, Note_off_c, 13, 36, 95
9, 108960, Note_on_c, 13, 36, 95
9, 109440, Note_off_c, 13, 36, 95
9, 109440, Note_on_c, 13, 31, 95
9, 110400, Note_off_c, 13, 31, 95
9, 110400, Note_on_c, 13, 36, 95
9, 111360, Note_off_c, 13, 36, 95
9, 111840, Note_on_c, 13, 44, 95
9, 112320, Note_off_c, 13, 44, 95
9, 112800, Note_on_c, 13, 43, 95
9, 113280, Note_off_c, 13, 43, 95
9, 113760, Note_on_c, 13, 40, 95
9, 114240, Note_off_c, 13, 40, 95
9, 114720, Note_on_c, 13, 36, 95
9, 115200, Note_off_c, 13, 36, 95
9, 115200, Note_on_c, 13, 41, 95
9, 116640, Note_off_c, 13, 41, 95
9, 116640, Note_on_c, 13, 41, 95
9, 117120, Note_off_c, 13, 41, 95
9, 117600, Note_on_c, 13, 36, 95
9, 118080, Note_off_c, 13, 36, 95
9, 118080, Note_on_c, 13, 41, 95
9, 118560, Note_off_c, 13, 41, 95
9, 118560, Note_on_c, 13, 43, 95
9, 119040, Note_off_c, 13, 43, 95
9, 119040, Note_on_c, 13, 44, 95
9, 120480, Note_off_c, 13, 44, 95
9, 120480, Note_on_c, 13, 39, 95
9, 120960, Note_off_c, 13, 39, 95
9, 120960, Note_on_c, 13, 32, 95
9, 122880, Note_off_c, 13, 32, 95
9, 122880, Note_on_c, 13, 39, 95
9, 124320, Note_off_c, 13, 39, 95
9, 124320, Note_on_c, 13, 39, 95
9, 124800, Note_off_c, 13, 39, 95
9, 124800, Note_on_c, 13, 31, 95
9, 126240, Note_off_c, 13, 31, 95
9, 126240, Note_on_c, 13, 43, 95
9, 126720, Note_off_c, 13, 43, 95
9, 126720, Note_on_c, 13, 41, 95
9, 128160, Note_off_c, 13, 41, 95
9, 128160, Note_on_c, 13, 41, 95
9, 128640, Note_off_c, 13, 41, 95
9, 128640, Note_on_c, 13, 36, 95
9, 130080, Note_off_c, 13, 36, 95
9, 130080, Note_on_c, 13, 36, 95
9, 130560, Note_off_c, 13, 36, 95
9, 130560, Note_on_c, 13, 41, 95
9, 132000, Note_off_c, 13, 41, 95
9, 132000, Note_on_c, 13, 41, 95
9, 132480, Note_off_c, 13, 41, 95
9, 132480, Note_on_c, 13, 31, 95
9, 133920, Note_off_c, 13, 31, 95
9, 133920, Note_on_c, 13, 31, 95
9, 134400, Note_off_c, 13, 31, 95
9, 134400, Note_on_c, 13, 34, 95
9, 135840, Note_off_c, 13, 34, 95
9, 135840, Note_on_c, 13, 41, 95
9, 136320, Note_off_c, 13, 41, 95
9, 136800, Note_on_c, 13, 46, 95
9, 137280, Note_off_c, 13, 46, 95
9, 137760, Note_on_c, 13, 41, 95
9, 138240, Note_off_c, 13, 41, 95
9, 138240, Note_on_c, 13, 39, 95
9, 139680, Note_off_c, 13, 39, 95
9, 139680, Note_on_c, 13, 39, 95
9, 140160, Note_off_c, 13, 39, 95
9, 140160, Note_on_c, 13, 31, 95
9, 141600, Note_off_c, 13, 31, 95
9, 141600, Note_on_c, 13, 31, 95
9, 142080, Note_off_c, 13, 31, 95
9, 142080, Note_on_c, 13, 36, 95
9, 143520, Note_off_c, 13, 36, 95
9, 143520, Note_on_c, 13, 43, 95
9, 144000, Note_off_c, 13, 43, 95
9, 144000, Note_on_c, 13, 36, 95
9, 145440, Note_off_c, 13, 36, 95
9, 145440, Note_on_c, 13, 36, 95
9, 145920, Note_off_c, 13, 36, 95
9, 145920, Note_on_c, 13, 41, 95
9, 147360, Note_off_c, 13, 41, 95
9, 147360, Note_on_c, 13, 36, 95
9, 147840, Note_off_c, 13, 36, 95
9, 147840, Note_on_c, 13, 41, 95
9, 149280, Note_off_c, 13, 41, 95
9, 149280, Note_on_c, 13, 41, 95
9, 149760, Note_off_c, 13, 41, 95
9, 149760, Note_on_c, 13, 34, 95
9, 151200, Note_off_c, 13, 34, 95
9, 151200, Note_on_c, 13, 34, 95
9, 151680, Note_off_c, 13, 34, 95
9, 151680, Note_on_c, 13, 41, 95
9, 152160, Note_off_c, 13, 41, 95
9, 152160, Note_on_c, 13, 46, 95
9, 153120, Note_off_c, 13, 46, 95
9, 153120, Note_on_c, 13, 41, 95
9, 153600, Note_off_c, 13, 41, 95
9, 153600, Note_on_c, 13, 44, 95
9, 155520, Note_off_c, 13, 44, 95
9, 156000, Note_on_c, 13, 44, 95
9, 156480, Note_off_c, 13, 44, 95
9, 156960, Note_on_c, 13, 39, 95
9, 157440, Note_off_c, 13, 39, 95
9, 157440, Note_on_c, 13, 43, 95
9, 158880, Note_off_c, 13, 43, 95
9, 158880, Note_on_c, 13, 43, 95
9, 159360, Note_off_c, 13, 43, 95
9, 159360, Note_on_c, 13, 38, 95
9, 160320, Note_off_c, 13, 38, 95
9, 160320, Note_on_c, 13, 43, 95
9, 160800, Note_off_c, 13, 43, 95
9, 160800, Note_on_c, 13, 42, 95
9, 161280, Note_off_c, 13, 42, 95
9, 161280, Note_on_c, 13, 41, 95
9, 163680, Note_off_c, 13, 41, 95
9, 163680, Note_on_c, 13, 36, 95
9, 164160, Note_off_c, 13, 36, 95
9, 164160, Note_on_c, 13, 41, 95
9, 164640, Note_off_c, 13, 41, 95
9, 164640, Note_on_c, 13, 36, 95
9, 165120, Note_off_c, 13, 36, 95
9, 165120, Note_on_c, 13, 37, 95
9, 168480, Note_off_c, 13, 37, 95
9, 168480, Note_on_c, 13, 37, 95
9, 168960, Note_off_c, 13, 37, 95
9, 168960, Note_on_c, 13, 43, 95
9, 170400, Note_off_c, 13, 43, 95
9, 170400, Note_on_c, 13, 43, 95
9, 170880, Note_off_c, 13, 43, 95
9, 170880, Note_on_c, 13, 38, 95
9, 171840, Note_off_c, 13, 38, 95
9, 171840, Note_on_c, 13, 31, 95
9, 172800, Note_off_c, 13, 31, 95
9, 172800, Note_on_c, 13, 34, 95
9, 173280, Note_off_c, 13, 34, 95
9, 173280, Note_on_c, 13, 46, 95
9, 176640, Note_off_c, 13, 46, 95
9, 176640, Note_on_c, 13, 39, 95
9, 179040, Note_off_c, 13, 39, 95
9, 179040, Note_on_c, 13, 46, 95
9, 180000, Note_off_c, 13, 46, 95
9, 180000, Note_on_c, 13, 34, 95
9, 180480, Note_off_c, 13, 34, 95
9, 180480, Note_on_c, 13, 39, 95
9, 182880, Note_off_c, 13, 39, 95
9, 182880, Note_on_c, 13, 46, 95
9, 183840, Note_off_c, 13, 46, 95
9, 183840, Note_on_c, 13, 39, 95
9, 184320, Note_off_c, 13, 39, 95
9, 184320, Note_on_c, 13, 32, 95
9, 186240, Note_off_c, 13, 32, 95
9, 186240, Note_on_c, 13, 39, 95
9, 187200, Note_off_c, 13, 39, 95
9, 187200, Note_on_c, 13, 41, 95
9, 188160, Note_off_c, 13, 41, 95
9, 188160, Note_on_c, 13, 44, 95
9, 190560, Note_off_c, 13, 44, 95
9, 190560, Note_on_c, 13, 35, 95
9, 191520, Note_off_c, 13, 35, 95
9, 191520, Note_on_c, 13, 37, 95
9, 192000, Note_off_c, 13, 37, 95
9, 192000, Note_on_c, 13, 39, 95
9, 195360, Note_off_c, 13, 39, 95
9, 195360, Note_on_c, 13, 39, 95
9, 195840, Note_off_c, 13, 39, 95
9, 195840, Note_on_c, 13, 37, 95
9, 199200, Note_off_c, 13, 37, 95
9, 199200, Note_on_c, 13, 37, 95
9, 199680, Note_off_c, 13, 37, 95
9, 199680, Note_on_c, 13, 36, 95
9, 201120, Note_off_c, 13, 36, 95
9, 201120, Note_on_c, 13, 36, 95
9, 201600, Note_off_c, 13, 36, 95
9, 201600, Note_on_c, 13, 31, 95
9, 202560, Note_off_c, 13, 31, 95
9, 202560, Note_on_c, 13, 36, 95
9, 203520, Note_off_c, 13, 36, 95
9, 204000, Note_on_c, 13, 44, 95
9, 204480, Note_off_c, 13, 44, 95
9, 204960, Note_on_c, 13, 43, 95
9, 205440, Note_off_c, 13, 43, 95
9, 205920, Note_on_c, 13, 40, 95
9, 206400, Note_off_c, 13, 40, 95
9, 206880, Note_on_c, 13, 36, 95
9, 207360, Note_off_c, 13, 36, 95
9, 207360, Note_on_c, 13, 41, 95
9, 208800, Note_off_c, 13, 41, 95
9, 208800, Note_on_c, 13, 41, 95
9, 209280, Note_off_c, 13, 41, 95
9, 209760, Note_on_c, 13, 36, 95
9, 210240, Note_off_c, 13, 36, 95
9, 210240, Note_on_c, 13, 41, 95
9, 210720, Note_off_c, 13, 41, 95
9, 210720, Note_on_c, 13, 43, 95
9, 211200, Note_off_c, 13, 43, 95
9, 211200, Note_on_c, 13, 44, 95
9, 212640, Note_off_c, 13, 44, 95
9, 212640, Note_on_c, 13, 39, 95
9, 213120, Note_off_c, 13, 39, 95
9, 213120, Note_on_c, 13, 32, 95
9, 215040, Note_off_c, 13, 32, 95
9, 215040, Note_on_c, 13, 39, 95
9, 216480, Note_off_c, 13, 39, 95
9, 216480, Note_on_c, 13, 39, 95
9, 216960, Note_off_c, 13, 39, 95
9, 216960, Note_on_c, 13, 31, 95
9, 218400, Note_off_c, 13, 31, 95
9, 218400, Note_on_c, 13, 43, 95
9, 218880, Note_off_c, 13, 43, 95
9, 218880, Note_on_c, 13, 41, 95
9, 220320, Note_off_c, 13, 41, 95
9, 220320, Note_on_c, 13, 41, 95
9, 220800, Note_off_c, 13, 41, 95
9, 220800, Note_on_c, 13, 36, 95
9, 222240, Note_off_c, 13, 36, 95
9, 222240, Note_on_c, 13, 36, 95
9, 222720, Note_off_c, 13, 36, 95
9, 222720, Note_on_c, 13, 41, 95
9, 224160, Note_off_c, 13, 41, 95
9, 224160, Note_on_c, 13, 41, 95
9, 224640, Note_off_c, 13, 41, 95
9, 224640, Note_on_c, 13, 31, 95
9, 226080, Note_off_c, 13, 31, 95
9, 226080, Note_on_c, 13, 31, 95
9, 226560, Note_off_c, 13, 31, 95
9, 226560, Note_on_c, 13, 34, 95
9, 228000, Note_off_c, 13, 34, 95
9, 228000, Note_on_c, 13, 41, 95
9, 228480, Note_off_c, 13, 41, 95
9, 228960, Note_on_c, 13, 46, 95
9, 229440, Note_off_c, 13, 46, 95
9, 229920, Note_on_c, 13, 41, 95
9, 230400, Note_off_c, 13, 41, 95
9, 230400, Note_on_c, 13, 39, 95
9, 231840, Note_off_c, 13, 39, 95
9, 231840, Note_on_c, 13, 39, 95
9, 232320, Note_off_c, 13, 39, 95
9, 232320, Note_on_c, 13, 31, 95
9, 233760, Note_off_c, 13, 31, 95
9, 233760, Note_on_c, 13, 31, 95
9, 234240, Note_off_c, 13, 31, 95
9, 234240, Note_on_c, 13, 36, 95
9, 235680, Note_off_c, 13, 36, 95
9, 235680, Note_on_c, 13, 43, 95
9, 236160, Note_off_c, 13, 43, 95
9, 236160, Note_on_c, 13, 36, 95
9, 237600, Note_off_c, 13, 36, 95
9, 237600, Note_on_c, 13, 36, 95
9, 238080, Note_off_c, 13, 36, 95
9, 238080, Note_on_c, 13, 41, 95
9, 239520, Note_off_c, 13, 41, 95
9, 239520, Note_on_c, 13, 36, 95
9, 240000, Note_off_c, 13, 36, 95
9, 240000, Note_on_c, 13, 41, 95
9, 241440, Note_off_c, 13, 41, 95
9, 241440, Note_on_c, 13, 41, 95
9, 241920, Note_off_c, 13, 41, 95
9, 241920, Note_on_c, 13, 34, 95
9, 243360, Note_off_c, 13, 34, 95
9, 243360, Note_on_c, 13, 34, 95
9, 243840, Note_off_c, 13, 34, 95
9, 243840, Note_on_c, 13, 41, 95
9, 244320, Note_off_c, 13, 41, 95
9, 244320, Note_on_c, 13, 46, 95
9, 245280, Note_off_c, 13, 46, 95
9, 245280, Note_on_c, 13, 41, 95
9, 245760, Note_off_c, 13, 41, 95
9, 245760, Note_on_c, 13, 44, 95
9, 247680, Note_off_c, 13, 44, 95
9, 248160, Note_on_c, 13, 44, 95
9, 248640, Note_off_c, 13, 44, 95
9, 249120, Note_on_c, 13, 39, 95
9, 249600, Note_off_c, 13, 39, 95
9, 249600, Note_on_c, 13, 43, 95
9, 251040, Note_off_c, 13, 43, 95
9, 251040, Note_on_c, 13, 43, 95
9, 251520, Note_off_c, 13, 43, 95
9, 251520, Note_on_c, 13, 38, 95
9, 252480, Note_off_c, 13, 38, 95
9, 252480, Note_on_c, 13, 43, 95
9, 252960, Note_off_c, 13, 43, 95
9, 252960, Note_on_c, 13, 42, 95
9, 253440, Note_off_c, 13, 42, 95
9, 253440, Note_on_c, 13, 41, 95
9, 255840, Note_off_c, 13, 41, 95
9, 255840, Note_on_c, 13, 36, 95
9, 256320, Note_off_c, 13, 36, 95
9, 256320, Note_on_c, 13, 41, 95
9, 256800, Note_off_c, 13, 41, 95
9, 256800, Note_on_c, 13, 36, 95
9, 257280, Note_off_c, 13, 36, 95
9, 257280, Note_on_c, 13, 37, 95
9, 260640, Note_off_c, 13, 37, 95
9, 260640, Note_on_c, 13, 37, 95
9, 261120, Note_off_c, 13, 37, 95
9, 261120, Note_on_c, 13, 43, 95
9, 262560, Note_off_c, 13, 43, 95
9, 262560, Note_on_c, 13, 43, 95
9, 263040, Note_off_c, 13, 43, 95
9, 263040, Note_on_c, 13, 38, 95
9, 264000, Note_off_c, 13, 38, 95
9, 264000, Note_on_c, 13, 31, 95
9, 264960, Note_off_c, 13, 31, 95
9, 264960, Note_on_c, 13, 34, 95
9, 265440, Note_off_c, 13, 34, 95
9, 265440, Note_on_c, 13, 46, 95
9, 268800, Note_off_c, 13, 46, 95
9, 268800, Note_on_c, 13, 39, 95
9, 271200, Note_off_c, 13, 39, 95
9, 271200, Note_on_c, 13, 46, 95
9, 272160, Note_off_c, 13, 46, 95
9, 272160, Note_on_c, 13, 34, 95
9, 272640, Note_off_c, 13, 34, 95
9, 272640, Note_on_c, 13, 39, 95
9, 275040, Note_off_c, 13, 39, 95
9, 275040, Note_on_c, 13, 46, 95
9, 276000, Note_off_c, 13, 46, 95
9, 276000, Note_on_c, 13, 34, 95
9, 276480, Note_off_c, 13, 34, 95
9, 276480, Note_on_c, 13, 32, 95
9, 278400, Note_off_c, 13, 32, 95
9, 278400, Note_on_c, 13, 39, 95
9, 279360, Note_off_c, 13, 39, 95
9, 279360, Note_on_c, 13, 41, 95
9, 280320, Note_off_c, 13, 41, 95
9, 280320, Note_on_c, 13, 44, 95
9, 282720, Note_off_c, 13, 44, 95
9, 282720, Note_on_c, 13, 35, 95
9, 283680, Note_off_c, 13, 35, 95
9, 283680, Note_on_c, 13, 37, 95
9, 284160, Note_off_c, 13, 37, 95
9, 284160, Note_on_c, 13, 39, 95
9, 287520, Note_off_c, 13, 39, 95
9, 287520, Note_on_c, 13, 39, 95
9, 288000, Note_off_c, 13, 39, 95
9, 288000, Note_on_c, 13, 37, 95
9, 291360, Note_off_c, 13, 37, 95
9, 291360, Note_on_c, 13, 37, 95
9, 291840, Note_off_c, 13, 37, 95
9, 291840, Note_on_c, 13, 36, 95
9, 293280, Note_off_c, 13, 36, 95
9, 293280, Note_on_c, 13, 36, 95
9, 293760, Note_off_c, 13, 36, 95
9, 293760, Note_on_c, 13, 31, 95
9, 294720, Note_off_c, 13, 31, 95
9, 294720, Note_on_c, 13, 36, 95
9, 295680, Note_off_c, 13, 36, 95
9, 296160, Note_on_c, 13, 46, 95
9, 296640, Note_off_c, 13, 46, 95
9, 297120, Note_on_c, 13, 43, 95
9, 297600, Note_off_c, 13, 43, 95
9, 298080, Note_on_c, 13, 40, 95
9, 298560, Note_off_c, 13, 40, 95
9, 299040, Note_on_c, 13, 36, 95
9, 299520, Note_off_c, 13, 36, 95
9, 299520, Note_on_c, 13, 41, 95
9, 301920, Note_off_c, 13, 41, 95
9, 301920, Note_on_c, 13, 36, 95
9, 302400, Note_off_c, 13, 36, 95
9, 302400, Note_on_c, 13, 41, 95
9, 302880, Note_off_c, 13, 41, 95
9, 302880, Note_on_c, 13, 43, 95
9, 303360, Note_off_c, 13, 43, 95
9, 303360, Note_on_c, 13, 44, 95
9, 304800, Note_off_c, 13, 44, 95
9, 304800, Note_on_c, 13, 39, 95
9, 305280, Note_off_c, 13, 39, 95
9, 305280, Note_on_c, 13, 32, 95
9, 307200, Note_off_c, 13, 32, 95
9, 307200, Note_on_c, 13, 39, 95
9, 308640, Note_off_c, 13, 39, 95
9, 308640, Note_on_c, 13, 39, 95
9, 309120, Note_off_c, 13, 39, 95
9, 309120, Note_on_c, 13, 31, 95
9, 310560, Note_off_c, 13, 31, 95
9, 310560, Note_on_c, 13, 31, 95
9, 311040, Note_off_c, 13, 31, 95
9, 311040, Note_on_c, 13, 46, 95
9, 311520, Note_off_c, 13, 46, 95
9, 311520, Note_on_c, 13, 41, 95
9, 312000, Note_off_c, 13, 41, 95
9, 312000, Note_on_c, 13, 34, 95
9, 314880, Note_off_c, 13, 34, 95
9, 314880, Note_on_c, 13, 41, 95
9, 315360, Note_off_c, 13, 41, 95
9, 315360, Note_on_c, 13, 34, 95
9, 316320, Note_off_c, 13, 34, 95
9, 316320, Note_on_c, 13, 41, 95
9, 316800, Note_off_c, 13, 41, 95
9, 316800, Note_on_c, 13, 34, 95
9, 317760, Note_off_c, 13, 34, 95
9, 317760, Note_on_c, 13, 34, 95
9, 318720, Note_off_c, 13, 34, 95
9, 318720, Note_on_c, 13, 39, 95
9, 321120, Note_off_c, 13, 39, 95
9, 321120, Note_on_c, 13, 46, 95
9, 322080, Note_off_c, 13, 46, 95
9, 322080, Note_on_c, 13, 34, 95
9, 322560, Note_off_c, 13, 34, 95
9, 322560, Note_on_c, 13, 39, 95
9, 324960, Note_off_c, 13, 39, 95
9, 324960, Note_on_c, 13, 46, 95
9, 325920, Note_off_c, 13, 46, 95
9, 325920, Note_on_c, 13, 34, 95
9, 326400, Note_off_c, 13, 34, 95
9, 326400, Note_on_c, 13, 32, 95
9, 328320, Note_off_c, 13, 32, 95
9, 328320, Note_on_c, 13, 39, 95
9, 329280, Note_off_c, 13, 39, 95
9, 329280, Note_on_c, 13, 41, 95
9, 330240, Note_off_c, 13, 41, 95
9, 330240, Note_on_c, 13, 44, 95
9, 332640, Note_off_c, 13, 44, 95
9, 332640, Note_on_c, 13, 35, 95
9, 333600, Note_off_c, 13, 35, 95
9, 333600, Note_on_c, 13, 37, 95
9, 334080, Note_off_c, 13, 37, 95
9, 334080, Note_on_c, 13, 39, 95
9, 337440, Note_off_c, 13, 39, 95
9, 337440, Note_on_c, 13, 39, 95
9, 337920, Note_off_c, 13, 39, 95
9, 337920, Note_on_c, 13, 37, 95
9, 341280, Note_off_c, 13, 37, 95
9, 341280, Note_on_c, 13, 37, 95
9, 341760, Note_off_c, 13, 37, 95
9, 341760, Note_on_c, 13, 36, 95
9, 343200, Note_off_c, 13, 36, 95
9, 343200, Note_on_c, 13, 36, 95
9, 343680, Note_off_c, 13, 36, 95
9, 343680, Note_on_c, 13, 31, 95
9, 344640, Note_off_c, 13, 31, 95
9, 344640, Note_on_c, 13, 36, 95
9, 345600, Note_off_c, 13, 36, 95
9, 346080, Note_on_c, 13, 46, 95
9, 346560, Note_off_c, 13, 46, 95
9, 347040, Note_on_c, 13, 43, 95
9, 347520, Note_off_c, 13, 43, 95
9, 348000, Note_on_c, 13, 40, 95
9, 348480, Note_off_c, 13, 40, 95
9, 348960, Note_on_c, 13, 36, 95
9, 349440, Note_off_c, 13, 36, 95
9, 349440, Note_on_c, 13, 41, 95
9, 351840, Note_off_c, 13, 41, 95
9, 351840, Note_on_c, 13, 36, 95
9, 352320, Note_off_c, 13, 36, 95
9, 352320, Note_on_c, 13, 41, 95
9, 352800, Note_off_c, 13, 41, 95
9, 352800, Note_on_c, 13, 43, 95
9, 353280, Note_off_c, 13, 43, 95
9, 353280, Note_on_c, 13, 44, 95
9, 354720, Note_off_c, 13, 44, 95
9, 354720, Note_on_c, 13, 39, 95
9, 355200, Note_off_c, 13, 39, 95
9, 355200, Note_on_c, 13, 32, 95
9, 357120, Note_off_c, 13, 32, 95
9, 357120, Note_on_c, 13, 39, 95
9, 358560, Note_off_c, 13, 39, 95
9, 358560, Note_on_c, 13, 39, 95
9, 359040, Note_off_c, 13, 39, 95
9, 359040, Note_on_c, 13, 31, 95
9, 360480, Note_off_c, 13, 31, 95
9, 360480, Note_on_c, 13, 31, 95
9, 360960, Note_off_c, 13, 31, 95
9, 360960, Note_on_c, 13, 46, 95
9, 361440, Note_off_c, 13, 46, 95
9, 361440, Note_on_c, 13, 41, 95
9, 361920, Note_off_c, 13, 41, 95
9, 361920, Note_on_c, 13, 34, 95
9, 364800, Note_off_c, 13, 34, 95
9, 364800, Note_on_c, 13, 41, 95
9, 365280, Note_off_c, 13, 41, 95
9, 365280, Note_on_c, 13, 34, 95
9, 366240, Note_off_c, 13, 34, 95
9, 366240, Note_on_c, 13, 41, 95
9, 366720, Note_off_c, 13, 41, 95
9, 366720, Note_on_c, 13, 34, 95
9, 367680, Note_off_c, 13, 34, 95
9, 367680, Note_on_c, 13, 34, 95
9, 368640, Note_off_c, 13, 34, 95
9, 368640, End_track
10, 0, Start_track
10, 0, Pitch_bend_c, 9, 8192
10, 0, Control_c, 9, 7, 103
10, 0, Control_c, 9, 10, 63
10, 0, Control_c, 9, 93, 0
10, 0, Control_c, 9, 91, 0
10, 0, Control_c, 9, 95, 0
10, 0, Control_c, 9, 92, 0
10, 0, Control_c, 9, 11, 127
10, 0, Program_c, 9, 0
10, 0, Note_on_c, 9, 42, 95
10, 0, Note_on_c, 9, 35, 95
10, 480, Note_off_c, 9, 42, 95
10, 480, Note_off_c, 9, 35, 95
10, 480, Note_on_c, 9, 42, 95
10, 960, Note_off_c, 9, 42, 95
10, 960, Note_on_c, 9, 42, 95
10, 960, Note_on_c, 9, 37, 95
10, 1440, Note_off_c, 9, 42, 95
10, 1440, Note_off_c, 9, 37, 95
10, 1440, Note_on_c, 9, 42, 95
10, 1440, Note_on_c, 9, 35, 95
10, 1920, Note_off_c, 9, 42, 95
10, 1920, Note_off_c, 9, 35, 95
10, 1920, Note_on_c, 9, 42, 95
10, 1920, Note_on_c, 9, 35, 95
10, 2400, Note_off_c, 9, 42, 95
10, 2400, Note_off_c, 9, 35, 95
10, 2400, Note_on_c, 9, 42, 95
10, 2880, Note_off_c, 9, 42, 95
10, 2880, Note_on_c, 9, 42, 95
10, 2880, Note_on_c, 9, 37, 95
10, 3360, Note_off_c, 9, 42, 95
10, 3360, Note_off_c, 9, 37, 95
10, 3360, Note_on_c, 9, 42, 95
10, 3840, Note_off_c, 9, 42, 95
10, 3840, Note_on_c, 9, 42, 95
10, 3840, Note_on_c, 9, 35, 95
10, 4320, Note_off_c, 9, 42, 95
10, 4320, Note_off_c, 9, 35, 95
10, 4320, Note_on_c, 9, 42, 95
10, 4800, Note_off_c, 9, 42, 95
10, 4800, Note_on_c, 9, 42, 95
10, 4800, Note_on_c, 9, 37, 95
10, 5280, Note_off_c, 9, 42, 95
10, 5280, Note_off_c, 9, 37, 95
10, 5280, Note_on_c, 9, 42, 95
10, 5280, Note_on_c, 9, 35, 95
10, 5760, Note_off_c, 9, 42, 95
10, 5760, Note_off_c, 9, 35, 95
10, 5760, Note_on_c, 9, 42, 95
10, 5760, Note_on_c, 9, 35, 95
10, 6240, Note_off_c, 9, 42, 95
10, 6240, Note_off_c, 9, 35, 95
10, 6240, Note_on_c, 9, 42, 95
10, 6720, Note_off_c, 9, 42, 95
10, 6720, Note_on_c, 9, 42, 95
10, 6720, Note_on_c, 9, 37, 95
10, 7200, Note_off_c, 9, 42, 95
10, 7200, Note_off_c, 9, 37, 95
10, 7200, Note_on_c, 9, 42, 95
10, 7680, Note_off_c, 9, 42, 95
10, 7680, Note_on_c, 9, 42, 95
10, 7680, Note_on_c, 9, 35, 95
10, 8160, Note_off_c, 9, 42, 95
10, 8160, Note_off_c, 9, 35, 95
10, 8160, Note_on_c, 9, 42, 95
10, 8640, Note_off_c, 9, 42, 95
10, 8640, Note_on_c, 9, 42, 95
10, 8640, Note_on_c, 9, 37, 95
10, 9120, Note_off_c, 9, 42, 95
10, 9120, Note_off_c, 9, 37, 95
10, 9120, Note_on_c, 9, 42, 95
10, 9120, Note_on_c, 9, 35, 95
10, 9600, Note_off_c, 9, 42, 95
10, 9600, Note_off_c, 9, 35, 95
10, 9600, Note_on_c, 9, 42, 95
10, 9600, Note_on_c, 9, 35, 95
10, 10080, Note_off_c, 9, 42, 95
10, 10080, Note_off_c, 9, 35, 95
10, 10080, Note_on_c, 9, 42, 95
10, 10560, Note_off_c, 9, 42, 95
10, 10560, Note_on_c, 9, 42, 95
10, 10560, Note_on_c, 9, 37, 95
10, 11040, Note_off_c, 9, 42, 95
10, 11040, Note_off_c, 9, 37, 95
10, 11040, Note_on_c, 9, 42, 95
10, 11520, Note_off_c, 9, 42, 95
10, 11520, Note_on_c, 9, 42, 95
10, 11520, Note_on_c, 9, 35, 95
10, 12000, Note_off_c, 9, 42, 95
10, 12000, Note_off_c, 9, 35, 95
10, 12000, Note_on_c, 9, 42, 95
10, 12480, Note_off_c, 9, 42, 95
10, 12480, Note_on_c, 9, 42, 95
10, 12480, Note_on_c, 9, 37, 95
10, 12960, Note_off_c, 9, 42, 95
10, 12960, Note_off_c, 9, 37, 95
10, 12960, Note_on_c, 9, 42, 95
10, 12960, Note_on_c, 9, 35, 95
10, 13440, Note_off_c, 9, 42, 95
10, 13440, Note_off_c, 9, 35, 95
10, 13440, Note_on_c, 9, 42, 95
10, 13440, Note_on_c, 9, 35, 95
10, 13920, Note_off_c, 9, 42, 95
10, 13920, Note_off_c, 9, 35, 95
10, 13920, Note_on_c, 9, 42, 95
10, 14400, Note_off_c, 9, 42, 95
10, 14400, Note_on_c, 9, 42, 95
10, 14400, Note_on_c, 9, 37, 95
10, 14880, Note_off_c, 9, 42, 95
10, 14880, Note_off_c, 9, 37, 95
10, 14880, Note_on_c, 9, 46, 95
10, 15360, Note_off_c, 9, 46, 95
10, 15360, Note_on_c, 9, 42, 95
10, 15360, Note_on_c, 9, 35, 95
10, 15840, Note_off_c, 9, 42, 95
10, 15840, Note_off_c, 9, 35, 95
10, 15840, Note_on_c, 9, 42, 95
10, 16320, Note_off_c, 9, 42, 95
10, 16320, Note_on_c, 9, 42, 95
10, 16320, Note_on_c, 9, 37, 95
10, 16800, Note_off_c, 9, 42, 95
10, 16800, Note_off_c, 9, 37, 95
10, 16800, Note_on_c, 9, 42, 95
10, 16800, Note_on_c, 9, 35, 95
10, 17280, Note_off_c, 9, 42, 95
10, 17280, Note_off_c, 9, 35, 95
10, 17280, Note_on_c, 9, 42, 95
10, 17280, Note_on_c, 9, 35, 95
10, 17760, Note_off_c, 9, 42, 95
10, 17760, Note_off_c, 9, 35, 95
10, 17760, Note_on_c, 9, 42, 95
10, 18240, Note_off_c, 9, 42, 95
10, 18240, Note_on_c, 9, 42, 95
10, 18240, Note_on_c, 9, 37, 95
10, 18720, Note_off_c, 9, 42, 95
10, 18720, Note_off_c, 9, 37, 95
10, 18720, Note_on_c, 9, 42, 95
10, 19200, Note_off_c, 9, 42, 95
10, 19200, Note_on_c, 9, 42, 95
10, 19200, Note_on_c, 9, 35, 95
10, 19680, Note_off_c, 9, 42, 95
10, 19680, Note_off_c, 9, 35, 95
10, 19680, Note_on_c, 9, 42, 95
10, 20160, Note_off_c, 9, 42, 95
10, 20160, Note_on_c, 9, 42, 95
10, 20160, Note_on_c, 9, 37, 95
10, 20640, Note_off_c, 9, 42, 95
10, 20640, Note_off_c, 9, 37, 95
10, 20640, Note_on_c, 9, 42, 95
10, 20640, Note_on_c, 9, 35, 95
10, 21120, Note_off_c, 9, 42, 95
10, 21120, Note_off_c, 9, 35, 95
10, 21120, Note_on_c, 9, 42, 95
10, 21120, Note_on_c, 9, 35, 95
10, 21600, Note_off_c, 9, 42, 95
10, 21600, Note_off_c, 9, 35, 95
10, 21600, Note_on_c, 9, 42, 95
10, 22080, Note_off_c, 9, 42, 95
10, 22080, Note_on_c, 9, 42, 95
10, 22080, Note_on_c, 9, 37, 95
10, 22560, Note_off_c, 9, 42, 95
10, 22560, Note_off_c, 9, 37, 95
10, 22560, Note_on_c, 9, 42, 95
10, 23040, Note_off_c, 9, 42, 95
10, 23040, Note_on_c, 9, 42, 95
10, 23040, Note_on_c, 9, 35, 95
10, 23520, Note_off_c, 9, 42, 95
10, 23520, Note_off_c, 9, 35, 95
10, 23520, Note_on_c, 9, 42, 95
10, 24000, Note_off_c, 9, 42, 95
10, 24000, Note_on_c, 9, 42, 95
10, 24000, Note_on_c, 9, 37, 95
10, 24480, Note_off_c, 9, 42, 95
10, 24480, Note_off_c, 9, 37, 95
10, 24480, Note_on_c, 9, 42, 95
10, 24480, Note_on_c, 9, 35, 95
10, 24960, Note_off_c, 9, 42, 95
10, 24960, Note_off_c, 9, 35, 95
10, 24960, Note_on_c, 9, 42, 95
10, 24960, Note_on_c, 9, 35, 95
10, 25440, Note_off_c, 9, 42, 95
10, 25440, Note_off_c, 9, 35, 95
10, 25440, Note_on_c, 9, 42, 95
10, 25920, Note_off_c, 9, 42, 95
10, 25920, Note_on_c, 9, 42, 95
10, 25920, Note_on_c, 9, 37, 95
10, 26400, Note_off_c, 9, 42, 95
10, 26400, Note_off_c, 9, 37, 95
10, 26400, Note_on_c, 9, 42, 95
10, 26880, Note_off_c, 9, 42, 95
10, 26880, Note_on_c, 9, 42, 95
10, 26880, Note_on_c, 9, 35, 95
10, 27360, Note_off_c, 9, 42, 95
10, 27360, Note_off_c, 9, 35, 95
10, 27360, Note_on_c, 9, 42, 95
10, 27840, Note_off_c, 9, 42, 95
10, 27840, Note_on_c, 9, 42, 95
10, 27840, Note_on_c, 9, 37, 95
10, 28320, Note_off_c, 9, 42, 95
10, 28320, Note_off_c, 9, 37, 95
10, 28320, Note_on_c, 9, 42, 95
10, 28800, Note_off_c, 9, 42, 95
10, 28800, Note_on_c, 9, 42, 95
10, 28800, Note_on_c, 9, 35, 95
10, 29280, Note_off_c, 9, 42, 95
10, 29280, Note_off_c, 9, 35, 95
10, 29280, Note_on_c, 9, 46, 95
10, 29760, Note_off_c, 9, 46, 95
10, 29760, Note_on_c, 9, 42, 95
10, 30000, Note_off_c, 9, 42, 95
10, 30000, Note_on_c, 9, 48, 95
10, 30240, Note_off_c, 9, 48, 95
10, 30240, Note_on_c, 9, 47, 95
10, 30720, Note_off_c, 9, 47, 95
10, 30720, Note_on_c, 9, 42, 95
10, 30720, Note_on_c, 9, 35, 95
10, 31200, Note_off_c, 9, 42, 95
10, 31200, Note_off_c, 9, 35, 95
10, 31200, Note_on_c, 9, 42, 95
10, 31680, Note_off_c, 9, 42, 95
10, 31680, Note_on_c, 9, 42, 95
10, 31680, Note_on_c, 9, 37, 95
10, 32160, Note_off_c, 9, 42, 95
10, 32160, Note_off_c, 9, 37, 95
10, 32160, Note_on_c, 9, 42, 95
10, 32160, Note_on_c, 9, 35, 95
10, 32640, Note_off_c, 9, 42, 95
10, 32640, Note_off_c, 9, 35, 95
10, 32640, Note_on_c, 9, 42, 95
10, 32640, Note_on_c, 9, 35, 95
10, 33120, Note_off_c, 9, 42, 95
10, 33120, Note_off_c, 9, 35, 95
10, 33120, Note_on_c, 9, 42, 95
10, 33600, Note_off_c, 9, 42, 95
10, 33600, Note_on_c, 9, 42, 95
10, 33600, Note_on_c, 9, 37, 95
10, 34080, Note_off_c, 9, 42, 95
10, 34080, Note_off_c, 9, 37, 95
10, 34080, Note_on_c, 9, 42, 95
10, 34560, Note_off_c, 9, 42, 95
10, 34560, Note_on_c, 9, 42, 95
10, 34560, Note_on_c, 9, 35, 95
10, 35040, Note_off_c, 9, 42, 95
10, 35040, Note_off_c, 9, 35, 95
10, 35040, Note_on_c, 9, 42, 95
10, 35520, Note_off_c, 9, 42, 95
10, 35520, Note_on_c, 9, 42, 95
10, 35520, Note_on_c, 9, 37, 95
10, 36000, Note_off_c, 9, 42, 95
10, 36000, Note_off_c, 9, 37, 95
10, 36000, Note_on_c, 9, 42, 95
10, 36000, Note_on_c, 9, 35, 95
10, 36480, Note_off_c, 9, 42, 95
10, 36480, Note_off_c, 9, 35, 95
10, 36480, Note_on_c, 9, 42, 95
10, 36480, Note_on_c, 9, 35, 95
10, 36960, Note_off_c, 9, 42, 95
10, 36960, Note_off_c, 9, 35, 95
10, 36960, Note_on_c, 9, 42, 95
10, 37440, Note_off_c, 9, 42, 95
10, 37440, Note_on_c, 9, 42, 95
10, 37440, Note_on_c, 9, 37, 95
10, 37920, Note_off_c, 9, 42, 95
10, 37920, Note_off_c, 9, 37, 95
10, 37920, Note_on_c, 9, 42, 95
10, 38400, Note_off_c, 9, 42, 95
10, 38400, Note_on_c, 9, 42, 95
10, 38400, Note_on_c, 9, 35, 95
10, 38880, Note_off_c, 9, 42, 95
10, 38880, Note_off_c, 9, 35, 95
10, 38880, Note_on_c, 9, 42, 95
10, 39360, Note_off_c, 9, 42, 95
10, 39360, Note_on_c, 9, 42, 95
10, 39360, Note_on_c, 9, 37, 95
10, 39840, Note_off_c, 9, 42, 95
10, 39840, Note_off_c, 9, 37, 95
10, 39840, Note_on_c, 9, 42, 95
10, 39840, Note_on_c, 9, 35, 95
10, 40320, Note_off_c, 9, 42, 95
10, 40320, Note_off_c, 9, 35, 95
10, 40320, Note_on_c, 9, 42, 95
10, 40320, Note_on_c, 9, 35, 95
10, 40800, Note_off_c, 9, 42, 95
10, 40800, Note_off_c, 9, 35, 95
10, 40800, Note_on_c, 9, 42, 95
10, 41280, Note_off_c, 9, 42, 95
10, 41280, Note_on_c, 9, 42, 95
10, 41280, Note_on_c, 9, 37, 95
10, 41760, Note_off_c, 9, 42, 95
10, 41760, Note_off_c, 9, 37, 95
10, 41760, Note_on_c, 9, 42, 95
10, 42240, Note_off_c, 9, 42, 95
10, 42240, Note_on_c, 9, 42, 95
10, 42240, Note_on_c, 9, 35, 95
10, 42720, Note_off_c, 9, 42, 95
10, 42720, Note_off_c, 9, 35, 95
10, 42720, Note_on_c, 9, 42, 95
10, 43200, Note_off_c, 9, 42, 95
10, 43200, Note_on_c, 9, 42, 95
10, 43200, Note_on_c, 9, 37, 95
10, 43680, Note_off_c, 9, 42, 95
10, 43680, Note_off_c, 9, 37, 95
10, 43680, Note_on_c, 9, 42, 95
10, 43680, Note_on_c, 9, 35, 95
10, 44160, Note_off_c, 9, 42, 95
10, 44160, Note_off_c, 9, 35, 95
10, 44160, Note_on_c, 9, 42, 95
10, 44160, Note_on_c, 9, 35, 95
10, 44640, Note_off_c, 9, 42, 95
10, 44640, Note_off_c, 9, 35, 95
10, 44640, Note_on_c, 9, 42, 95
10, 45120, Note_off_c, 9, 42, 95
10, 45120, Note_on_c, 9, 42, 95
10, 45120, Note_on_c, 9, 37, 95
10, 45600, Note_off_c, 9, 42, 95
10, 45600, Note_off_c, 9, 37, 95
10, 45600, Note_on_c, 9, 42, 95
10, 46080, Note_off_c, 9, 42, 95
10, 46080, Note_on_c, 9, 42, 95
10, 46080, Note_on_c, 9, 35, 95
10, 46560, Note_off_c, 9, 42, 95
10, 46560, Note_off_c, 9, 35, 95
10, 46560, Note_on_c, 9, 42, 95
10, 47040, Note_off_c, 9, 42, 95
10, 47040, Note_on_c, 9, 42, 95
10, 47040, Note_on_c, 9, 37, 95
10, 47520, Note_off_c, 9, 42, 95
10, 47520, Note_off_c, 9, 37, 95
10, 47520, Note_on_c, 9, 42, 95
10, 47520, Note_on_c, 9, 35, 95
10, 48000, Note_off_c, 9, 42, 95
10, 48000, Note_off_c, 9, 35, 95
10, 48000, Note_on_c, 9, 42, 95
10, 48000, Note_on_c, 9, 35, 95
10, 48480, Note_off_c, 9, 42, 95
10, 48480, Note_off_c, 9, 35, 95
10, 48480, Note_on_c, 9, 42, 95
10, 48960, Note_off_c, 9, 42, 95
10, 48960, Note_on_c, 9, 42, 95
10, 48960, Note_on_c, 9, 37, 95
10, 49440, Note_off_c, 9, 42, 95
10, 49440, Note_off_c, 9, 37, 95
10, 49440, Note_on_c, 9, 42, 95
10, 49920, Note_off_c, 9, 42, 95
10, 49920, Note_on_c, 9, 42, 95
10, 49920, Note_on_c, 9, 35, 95
10, 50400, Note_off_c, 9, 42, 95
10, 50400, Note_off_c, 9, 35, 95
10, 50400, Note_on_c, 9, 42, 95
10, 50880, Note_off_c, 9, 42, 95
10, 50880, Note_on_c, 9, 42, 95
10, 50880, Note_on_c, 9, 37, 95
10, 51360, Note_off_c, 9, 42, 95
10, 51360, Note_off_c, 9, 37, 95
10, 51360, Note_on_c, 9, 42, 95
10, 51360, Note_on_c, 9, 35, 95
10, 51840, Note_off_c, 9, 42, 95
10, 51840, Note_off_c, 9, 35, 95
10, 51840, Note_on_c, 9, 42, 95
10, 51840, Note_on_c, 9, 35, 95
10, 52320, Note_off_c, 9, 42, 95
10, 52320, Note_off_c, 9, 35, 95
10, 52320, Note_on_c, 9, 42, 95
10, 52800, Note_off_c, 9, 42, 95
10, 52800, Note_on_c, 9, 42, 95
10, 52800, Note_on_c, 9, 37, 95
10, 53280, Note_off_c, 9, 42, 95
10, 53280, Note_off_c, 9, 37, 95
10, 53280, Note_on_c, 9, 42, 95
10, 53760, Note_off_c, 9, 42, 95
10, 53760, Note_on_c, 9, 42, 95
10, 53760, Note_on_c, 9, 35, 95
10, 54240, Note_off_c, 9, 42, 95
10, 54240, Note_off_c, 9, 35, 95
10, 54240, Note_on_c, 9, 42, 95
10, 54720, Note_off_c, 9, 42, 95
10, 54720, Note_on_c, 9, 42, 95
10, 54720, Note_on_c, 9, 37, 95
10, 55200, Note_off_c, 9, 42, 95
10, 55200, Note_off_c, 9, 37, 95
10, 55200, Note_on_c, 9, 42, 95
10, 55200, Note_on_c, 9, 35, 95
10, 55680, Note_off_c, 9, 42, 95
10, 55680, Note_off_c, 9, 35, 95
10, 55680, Note_on_c, 9, 42, 95
10, 55680, Note_on_c, 9, 35, 95
10, 56160, Note_off_c, 9, 42, 95
10, 56160, Note_off_c, 9, 35, 95
10, 56160, Note_on_c, 9, 42, 95
10, 56640, Note_off_c, 9, 42, 95
10, 56640, Note_on_c, 9, 42, 95
10, 56640, Note_on_c, 9, 37, 95
10, 57120, Note_off_c, 9, 42, 95
10, 57120, Note_off_c, 9, 37, 95
10, 57120, Note_on_c, 9, 42, 95
10, 57600, Note_off_c, 9, 42, 95
10, 57600, Note_on_c, 9, 42, 95
10, 57600, Note_on_c, 9, 35, 95
10, 58080, Note_off_c, 9, 42, 95
10, 58080, Note_off_c, 9, 35, 95
10, 58080, Note_on_c, 9, 42, 95
10, 58560, Note_off_c, 9, 42, 95
10, 58560, Note_on_c, 9, 42, 95
10, 58560, Note_on_c, 9, 37, 95
10, 59040, Note_off_c, 9, 42, 95
10, 59040, Note_off_c, 9, 37, 95
10, 59040, Note_on_c, 9, 42, 95
10, 59040, Note_on_c, 9, 35, 95
10, 59520, Note_off_c, 9, 42, 95
10, 59520, Note_off_c, 9, 35, 95
10, 59520, Note_on_c, 9, 42, 95
10, 59520, Note_on_c, 9, 35, 95
10, 60000, Note_off_c, 9, 42, 95
10, 60000, Note_off_c, 9, 35, 95
10, 60000, Note_on_c, 9, 42, 95
10, 60480, Note_off_c, 9, 42, 95
10, 60480, Note_on_c, 9, 42, 95
10, 60480, Note_on_c, 9, 37, 95
10, 60960, Note_off_c, 9, 42, 95
10, 60960, Note_off_c, 9, 37, 95
10, 60960, Note_on_c, 9, 46, 95
10, 61440, Note_off_c, 9, 46, 95
10, 61440, Note_on_c, 9, 42, 95
10, 61440, Note_on_c, 9, 35, 95
10, 61920, Note_off_c, 9, 42, 95
10, 61920, Note_off_c, 9, 35, 95
10, 61920, Note_on_c, 9, 42, 95
10, 62400, Note_off_c, 9, 42, 95
10, 62400, Note_on_c, 9, 42, 95
10, 62400, Note_on_c, 9, 37, 95
10, 62880, Note_off_c, 9, 42, 95
10, 62880, Note_off_c, 9, 37, 95
10, 62880, Note_on_c, 9, 42, 95
10, 62880, Note_on_c, 9, 35, 95
10, 63360, Note_off_c, 9, 42, 95
10, 63360, Note_off_c, 9, 35, 95
10, 63360, Note_on_c, 9, 42, 95
10, 63360, Note_on_c, 9, 35, 95
10, 63840, Note_off_c, 9, 42, 95
10, 63840, Note_off_c, 9, 35, 95
10, 63840, Note_on_c, 9, 42, 95
10, 64320, Note_off_c, 9, 42, 95
10, 64320, Note_on_c, 9, 42, 95
10, 64320, Note_on_c, 9, 37, 95
10, 64800, Note_off_c, 9, 42, 95
10, 64800, Note_off_c, 9, 37, 95
10, 64800, Note_on_c, 9, 42, 95
10, 65280, Note_off_c, 9, 42, 95
10, 65280, Note_on_c, 9, 42, 95
10, 65280, Note_on_c, 9, 35, 95
10, 65760, Note_off_c, 9, 42, 95
10, 65760, Note_off_c, 9, 35, 95
10, 65760, Note_on_c, 9, 42, 95
10, 66240, Note_off_c, 9, 42, 95
10, 66240, Note_on_c, 9, 42, 95
10, 66240, Note_on_c, 9, 37, 95
10, 66720, Note_off_c, 9, 42, 95
10, 66720, Note_off_c, 9, 37, 95
10, 66720, Note_on_c, 9, 42, 95
10, 66720, Note_on_c, 9, 35, 95
10, 67200, Note_off_c, 9, 42, 95
10, 67200, Note_off_c, 9, 35, 95
10, 67200, Note_on_c, 9, 42, 95
10, 67200, Note_on_c, 9, 35, 95
10, 67680, Note_off_c, 9, 42, 95
10, 67680, Note_off_c, 9, 35, 95
10, 67680, Note_on_c, 9, 42, 95
10, 68160, Note_off_c, 9, 42, 95
10, 68160, Note_on_c, 9, 42, 95
10, 68160, Note_on_c, 9, 37, 95
10, 68640, Note_off_c, 9, 42, 95
10, 68640, Note_off_c, 9, 37, 95
10, 68640, Note_on_c, 9, 42, 95
10, 69120, Note_off_c, 9, 42, 95
10, 69120, Note_on_c, 9, 42, 95
10, 69120, Note_on_c, 9, 35, 95
10, 69600, Note_off_c, 9, 42, 95
10, 69600, Note_off_c, 9, 35, 95
10, 69600, Note_on_c, 9, 42, 95
10, 70080, Note_off_c, 9, 42, 95
10, 70080, Note_on_c, 9, 42, 95
10, 70080, Note_on_c, 9, 37, 95
10, 70560, Note_off_c, 9, 42, 95
10, 70560, Note_off_c, 9, 37, 95
10, 70560, Note_on_c, 9, 42, 95
10, 70560, Note_on_c, 9, 35, 95
10, 71040, Note_off_c, 9, 42, 95
10, 71040, Note_off_c, 9, 35, 95
10, 71040, Note_on_c, 9, 42, 95
10, 71040, Note_on_c, 9, 35, 95
10, 71520, Note_off_c, 9, 42, 95
10, 71520, Note_off_c, 9, 35, 95
10, 71520, Note_on_c, 9, 42, 95
10, 72000, Note_off_c, 9, 42, 95
10, 72000, Note_on_c, 9, 42, 95
10, 72000, Note_on_c, 9, 37, 95
10, 72480, Note_off_c, 9, 42, 95
10, 72480, Note_off_c, 9, 37, 95
10, 72480, Note_on_c, 9, 42, 95
10, 72960, Note_off_c, 9, 42, 95
10, 72960, Note_on_c, 9, 42, 95
10, 72960, Note_on_c, 9, 35, 95
10, 73440, Note_off_c, 9, 42, 95
10, 73440, Note_off_c, 9, 35, 95
10, 73440, Note_on_c, 9, 42, 95
10, 73920, Note_off_c, 9, 42, 95
10, 73920, Note_on_c, 9, 42, 95
10, 73920, Note_on_c, 9, 37, 95
10, 74400, Note_off_c, 9, 42, 95
10, 74400, Note_off_c, 9, 37, 95
10, 74400, Note_on_c, 9, 42, 95
10, 74400, Note_on_c, 9, 35, 95
10, 74880, Note_off_c, 9, 42, 95
10, 74880, Note_off_c, 9, 35, 95
10, 74880, Note_on_c, 9, 42, 95
10, 74880, Note_on_c, 9, 35, 95
10, 75360, Note_off_c, 9, 42, 95
10, 75360, Note_off_c, 9, 35, 95
10, 75360, Note_on_c, 9, 42, 95
10, 75840, Note_off_c, 9, 42, 95
10, 75840, Note_on_c, 9, 42, 95
10, 75840, Note_on_c, 9, 37, 95
10, 76320, Note_off_c, 9, 42, 95
10, 76320, Note_off_c, 9, 37, 95
10, 76320, Note_on_c, 9, 42, 95
10, 76800, Note_off_c, 9, 42, 95
10, 76800, Note_on_c, 9, 42, 95
10, 76800, Note_on_c, 9, 35, 95
10, 77280, Note_off_c, 9, 42, 95
10, 77280, Note_off_c, 9, 35, 95
10, 77280, Note_on_c, 9, 42, 95
10, 77760, Note_off_c, 9, 42, 95
10, 77760, Note_on_c, 9, 42, 95
10, 77760, Note_on_c, 9, 37, 95
10, 78240, Note_off_c, 9, 42, 95
10, 78240, Note_off_c, 9, 37, 95
10, 78240, Note_on_c, 9, 42, 95
10, 78240, Note_on_c, 9, 35, 95
10, 78720, Note_off_c, 9, 42, 95
10, 78720, Note_off_c, 9, 35, 95
10, 78720, Note_on_c, 9, 42, 95
10, 78720, Note_on_c, 9, 35, 95
10, 79200, Note_off_c, 9, 42, 95
10, 79200, Note_off_c, 9, 35, 95
10, 79200, Note_on_c, 9, 42, 95
10, 79680, Note_off_c, 9, 42, 95
10, 79680, Note_on_c, 9, 42, 95
10, 79680, Note_on_c, 9, 37, 95
10, 80160, Note_off_c, 9, 42, 95
10, 80160, Note_off_c, 9, 37, 95
10, 80160, Note_on_c, 9, 42, 95
10, 80640, Note_off_c, 9, 42, 95
10, 80640, Note_on_c, 9, 42, 95
10, 80640, Note_on_c, 9, 35, 95
10, 81120, Note_off_c, 9, 42, 95
10, 81120, Note_off_c, 9, 35, 95
10, 81120, Note_on_c, 9, 42, 95
10, 81600, Note_off_c, 9, 42, 95
10, 81600, Note_on_c, 9, 42, 95
10, 81600, Note_on_c, 9, 37, 95
10, 82080, Note_off_c, 9, 42, 95
10, 82080, Note_off_c, 9, 37, 95
10, 82080, Note_on_c, 9, 42, 95
10, 82080, Note_on_c, 9, 35, 95
10, 82560, Note_off_c, 9, 42, 95
10, 82560, Note_off_c, 9, 35, 95
10, 82560, Note_on_c, 9, 42, 95
10, 82560, Note_on_c, 9, 35, 95
10, 83040, Note_off_c, 9, 42, 95
10, 83040, Note_off_c, 9, 35, 95
10, 83040, Note_on_c, 9, 42, 95
10, 83520, Note_off_c, 9, 42, 95
10, 83520, Note_on_c, 9, 42, 95
10, 83520, Note_on_c, 9, 37, 95
10, 84000, Note_off_c, 9, 42, 95
10, 84000, Note_off_c, 9, 37, 95
10, 84000, Note_on_c, 9, 46, 95
10, 84480, Note_off_c, 9, 46, 95
10, 84480, Note_on_c, 9, 42, 95
10, 84480, Note_on_c, 9, 35, 95
10, 84960, Note_off_c, 9, 42, 95
10, 84960, Note_off_c, 9, 35, 95
10, 84960, Note_on_c, 9, 42, 95
10, 85440, Note_off_c, 9, 42, 95
10, 85440, Note_on_c, 9, 42, 95
10, 85440, Note_on_c, 9, 37, 95
10, 85920, Note_off_c, 9, 42, 95
10, 85920, Note_off_c, 9, 37, 95
10, 85920, Note_on_c, 9, 42, 95
10, 85920, Note_on_c, 9, 35, 95
10, 86400, Note_off_c, 9, 42, 95
10, 86400, Note_off_c, 9, 35, 95
10, 86400, Note_on_c, 9, 42, 95
10, 86400, Note_on_c, 9, 35, 95
10, 86880, Note_off_c, 9, 42, 95
10, 86880, Note_off_c, 9, 35, 95
10, 86880, Note_on_c, 9, 42, 95
10, 87360, Note_off_c, 9, 42, 95
10, 87360, Note_on_c, 9, 42, 95
10, 87360, Note_on_c, 9, 37, 95
10, 87840, Note_off_c, 9, 42, 95
10, 87840, Note_off_c, 9, 37, 95
10, 87840, Note_on_c, 9, 42, 95
10, 88320, Note_off_c, 9, 42, 95
10, 88320, Note_on_c, 9, 42, 95
10, 88320, Note_on_c, 9, 35, 95
10, 88800, Note_off_c, 9, 42, 95
10, 88800, Note_off_c, 9, 35, 95
10, 88800, Note_on_c, 9, 42, 95
10, 89280, Note_off_c, 9, 42, 95
10, 89280, Note_on_c, 9, 42, 95
10, 89280, Note_on_c, 9, 37, 95
10, 89760, Note_off_c, 9, 42, 95
10, 89760, Note_off_c, 9, 37, 95
10, 89760, Note_on_c, 9, 42, 95
10, 89760, Note_on_c, 9, 35, 95
10, 90240, Note_off_c, 9, 42, 95
10, 90240, Note_off_c, 9, 35, 95
10, 90240, Note_on_c, 9, 42, 95
10, 90240, Note_on_c, 9, 35, 95
10, 90720, Note_off_c, 9, 42, 95
10, 90720, Note_off_c, 9, 35, 95
10, 90720, Note_on_c, 9, 42, 95
10, 91200, Note_off_c, 9, 42, 95
10, 91200, Note_on_c, 9, 42, 95
10, 91200, Note_on_c, 9, 37, 95
10, 91680, Note_off_c, 9, 42, 95
10, 91680, Note_off_c, 9, 37, 95
10, 91680, Note_on_c, 9, 42, 95
10, 92160, Note_off_c, 9, 42, 95
10, 92160, Note_on_c, 9, 42, 95
10, 92160, Note_on_c, 9, 35, 95
10, 92640, Note_off_c, 9, 42, 95
10, 92640, Note_off_c, 9, 35, 95
10, 92640, Note_on_c, 9, 42, 95
10, 93120, Note_off_c, 9, 42, 95
10, 93120, Note_on_c, 9, 42, 95
10, 93120, Note_on_c, 9, 37, 95
10, 93600, Note_off_c, 9, 42, 95
10, 93600, Note_off_c, 9, 37, 95
10, 93600, Note_on_c, 9, 42, 95
10, 93600, Note_on_c, 9, 35, 95
10, 94080, Note_off_c, 9, 42, 95
10, 94080, Note_off_c, 9, 35, 95
10, 94080, Note_on_c, 9, 42, 95
10, 94080, Note_on_c, 9, 35, 95
10, 94560, Note_off_c, 9, 42, 95
10, 94560, Note_off_c, 9, 35, 95
10, 94560, Note_on_c, 9, 42, 95
10, 95040, Note_off_c, 9, 42, 95
10, 95040, Note_on_c, 9, 42, 95
10, 95040, Note_on_c, 9, 37, 95
10, 95520, Note_off_c, 9, 42, 95
10, 95520, Note_off_c, 9, 37, 95
10, 95520, Note_on_c, 9, 42, 95
10, 96000, Note_off_c, 9, 42, 95
10, 96000, Note_on_c, 9, 42, 95
10, 96000, Note_on_c, 9, 35, 95
10, 96480, Note_off_c, 9, 42, 95
10, 96480, Note_off_c, 9, 35, 95
10, 96480, Note_on_c, 9, 42, 95
10, 96960, Note_off_c, 9, 42, 95
10, 96960, Note_on_c, 9, 42, 95
10, 96960, Note_on_c, 9, 37, 95
10, 97440, Note_off_c, 9, 42, 95
10, 97440, Note_off_c, 9, 37, 95
10, 97440, Note_on_c, 9, 42, 95
10, 97440, Note_on_c, 9, 35, 95
10, 97920, Note_off_c, 9, 42, 95
10, 97920, Note_off_c, 9, 35, 95
10, 97920, Note_on_c, 9, 42, 95
10, 97920, Note_on_c, 9, 35, 95
10, 98400, Note_off_c, 9, 42, 95
10, 98400, Note_off_c, 9, 35, 95
10, 98400, Note_on_c, 9, 42, 95
10, 98880, Note_off_c, 9, 42, 95
10, 98880, Note_on_c, 9, 42, 95
10, 98880, Note_on_c, 9, 37, 95
10, 99360, Note_off_c, 9, 42, 95
10, 99360, Note_off_c, 9, 37, 95
10, 99360, Note_on_c, 9, 46, 95
10, 99840, Note_off_c, 9, 46, 95
10, 99840, Note_on_c, 9, 42, 95
10, 99840, Note_on_c, 9, 35, 95
10, 100320, Note_off_c, 9, 42, 95
10, 100320, Note_off_c, 9, 35, 95
10, 100320, Note_on_c, 9, 42, 95
10, 100800, Note_off_c, 9, 42, 95
10, 100800, Note_on_c, 9, 42, 95
10, 100800, Note_on_c, 9, 37, 95
10, 101280, Note_off_c, 9, 42, 95
10, 101280, Note_off_c, 9, 37, 95
10, 101280, Note_on_c, 9, 42, 95
10, 101280, Note_on_c, 9, 35, 95
10, 101760, Note_off_c, 9, 42, 95
10, 101760, Note_off_c, 9, 35, 95
10, 101760, Note_on_c, 9, 42, 95
10, 101760, Note_on_c, 9, 35, 95
10, 102240, Note_off_c, 9, 42, 95
10, 102240, Note_off_c, 9, 35, 95
10, 102240, Note_on_c, 9, 42, 95
10, 102720, Note_off_c, 9, 42, 95
10, 102720, Note_on_c, 9, 42, 95
10, 102720, Note_on_c, 9, 37, 95
10, 103200, Note_off_c, 9, 42, 95
10, 103200, Note_off_c, 9, 37, 95
10, 103200, Note_on_c, 9, 42, 95
10, 103680, Note_off_c, 9, 42, 95
10, 103680, Note_on_c, 9, 42, 95
10, 103680, Note_on_c, 9, 35, 95
10, 104160, Note_off_c, 9, 42, 95
10, 104160, Note_off_c, 9, 35, 95
10, 104160, Note_on_c, 9, 42, 95
10, 104640, Note_off_c, 9, 42, 95
10, 104640, Note_on_c, 9, 42, 95
10, 104640, Note_on_c, 9, 37, 95
10, 105120, Note_off_c, 9, 42, 95
10, 105120, Note_off_c, 9, 37, 95
10, 105120, Note_on_c, 9, 42, 95
10, 105120, Note_on_c, 9, 35, 95
10, 105600, Note_off_c, 9, 42, 95
10, 105600, Note_off_c, 9, 35, 95
10, 105600, Note_on_c, 9, 42, 95
10, 105600, Note_on_c, 9, 35, 95
10, 106080, Note_off_c, 9, 42, 95
10, 106080, Note_off_c, 9, 35, 95
10, 106080, Note_on_c, 9, 42, 95
10, 106560, Note_off_c, 9, 42, 95
10, 106560, Note_on_c, 9, 42, 95
10, 106560, Note_on_c, 9, 37, 95
10, 107040, Note_off_c, 9, 42, 95
10, 107040, Note_off_c, 9, 37, 95
10, 107040, Note_on_c, 9, 42, 95
10, 107520, Note_off_c, 9, 42, 95
10, 107520, Note_on_c, 9, 42, 95
10, 107520, Note_on_c, 9, 35, 95
10, 108000, Note_off_c, 9, 42, 95
10, 108000, Note_off_c, 9, 35, 95
10, 108000, Note_on_c, 9, 42, 95
10, 108480, Note_off_c, 9, 42, 95
10, 108480, Note_on_c, 9, 42, 95
10, 108480, Note_on_c, 9, 37, 95
10, 108960, Note_off_c, 9, 42, 95
10, 108960, Note_off_c, 9, 37, 95
10, 108960, Note_on_c, 9, 42, 95
10, 108960, Note_on_c, 9, 35, 95
10, 109440, Note_off_c, 9, 42, 95
10, 109440, Note_off_c, 9, 35, 95
10, 109440, Note_on_c, 9, 42, 95
10, 109440, Note_on_c, 9, 35, 95
10, 109920, Note_off_c, 9, 42, 95
10, 109920, Note_off_c, 9, 35, 95
10, 109920, Note_on_c, 9, 42, 95
10, 110400, Note_off_c, 9, 42, 95
10, 110400, Note_on_c, 9, 42, 95
10, 110400, Note_on_c, 9, 37, 95
10, 110880, Note_off_c, 9, 42, 95
10, 110880, Note_off_c, 9, 37, 95
10, 110880, Note_on_c, 9, 42, 95
10, 111360, Note_off_c, 9, 42, 95
10, 111360, Note_on_c, 9, 42, 95
10, 111360, Note_on_c, 9, 35, 95
10, 111840, Note_off_c, 9, 42, 95
10, 111840, Note_off_c, 9, 35, 95
10, 111840, Note_on_c, 9, 42, 95
10, 112320, Note_off_c, 9, 42, 95
10, 112320, Note_on_c, 9, 42, 95
10, 112320, Note_on_c, 9, 37, 95
10, 112800, Note_off_c, 9, 42, 95
10, 112800, Note_off_c, 9, 37, 95
10, 112800, Note_on_c, 9, 42, 95
10, 112800, Note_on_c, 9, 35, 95
10, 113280, Note_off_c, 9, 42, 95
10, 113280, Note_off_c, 9, 35, 95
10, 113280, Note_on_c, 9, 42, 95
10, 113280, Note_on_c, 9, 35, 95
10, 113760, Note_off_c, 9, 42, 95
10, 113760, Note_off_c, 9, 35, 95
10, 113760, Note_on_c, 9, 42, 95
10, 114240, Note_off_c, 9, 42, 95
10, 114240, Note_on_c, 9, 42, 95
10, 114240, Note_on_c, 9, 37, 95
10, 114720, Note_off_c, 9, 42, 95
10, 114720, Note_off_c, 9, 37, 95
10, 114720, Note_on_c, 9, 42, 95
10, 115200, Note_off_c, 9, 42, 95
10, 115200, Note_on_c, 9, 42, 95
10, 115200, Note_on_c, 9, 35, 95
10, 115680, Note_off_c, 9, 42, 95
10, 115680, Note_off_c, 9, 35, 95
10, 115680, Note_on_c, 9, 42, 95
10, 116160, Note_off_c, 9, 42, 95
10, 116160, Note_on_c, 9, 42, 95
10, 116160, Note_on_c, 9, 37, 95
10, 116640, Note_off_c, 9, 42, 95
10, 116640, Note_off_c, 9, 37, 95
10, 116640, Note_on_c, 9, 42, 95
10, 116640, Note_on_c, 9, 35, 95
10, 117120, Note_off_c, 9, 42, 95
10, 117120, Note_off_c, 9, 35, 95
10, 117120, Note_on_c, 9, 42, 95
10, 117120, Note_on_c, 9, 35, 95
10, 117600, Note_off_c, 9, 42, 95
10, 117600, Note_off_c, 9, 35, 95
10, 117600, Note_on_c, 9, 42, 95
10, 118080, Note_off_c, 9, 42, 95
10, 118080, Note_on_c, 9, 42, 95
10, 118080, Note_on_c, 9, 37, 95
10, 118560, Note_off_c, 9, 42, 95
10, 118560, Note_off_c, 9, 37, 95
10, 118560, Note_on_c, 9, 42, 95
10, 119040, Note_off_c, 9, 42, 95
10, 119040, Note_on_c, 9, 42, 95
10, 119040, Note_on_c, 9, 35, 95
10, 119520, Note_off_c, 9, 42, 95
10, 119520, Note_off_c, 9, 35, 95
10, 119520, Note_on_c, 9, 42, 95
10, 120000, Note_off_c, 9, 42, 95
10, 120000, Note_on_c, 9, 42, 95
10, 120000, Note_on_c, 9, 37, 95
10, 120480, Note_off_c, 9, 42, 95
10, 120480, Note_off_c, 9, 37, 95
10, 120480, Note_on_c, 9, 42, 95
10, 120480, Note_on_c, 9, 35, 95
10, 120960, Note_off_c, 9, 42, 95
10, 120960, Note_off_c, 9, 35, 95
10, 120960, Note_on_c, 9, 42, 95
10, 120960, Note_on_c, 9, 35, 95
10, 121440, Note_off_c, 9, 42, 95
10, 121440, Note_off_c, 9, 35, 95
10, 121440, Note_on_c, 9, 42, 95
10, 121920, Note_off_c, 9, 42, 95
10, 121920, Note_on_c, 9, 42, 95
10, 121920, Note_on_c, 9, 37, 95
10, 122400, Note_off_c, 9, 42, 95
10, 122400, Note_off_c, 9, 37, 95
10, 122400, Note_on_c, 9, 46, 95
10, 122880, Note_off_c, 9, 46, 95
10, 122880, Note_on_c, 9, 42, 95
10, 122880, Note_on_c, 9, 35, 95
10, 123360, Note_off_c, 9, 42, 95
10, 123360, Note_off_c, 9, 35, 95
10, 123360, Note_on_c, 9, 42, 95
10, 123840, Note_off_c, 9, 42, 95
10, 123840, Note_on_c, 9, 42, 95
10, 123840, Note_on_c, 9, 37, 95
10, 124320, Note_off_c, 9, 42, 95
10, 124320, Note_off_c, 9, 37, 95
10, 124320, Note_on_c, 9, 42, 95
10, 124320, Note_on_c, 9, 35, 95
10, 124800, Note_off_c, 9, 42, 95
10, 124800, Note_off_c, 9, 35, 95
10, 124800, Note_on_c, 9, 42, 95
10, 124800, Note_on_c, 9, 35, 95
10, 125280, Note_off_c, 9, 42, 95
10, 125280, Note_off_c, 9, 35, 95
10, 125280, Note_on_c, 9, 42, 95
10, 125760, Note_off_c, 9, 42, 95
10, 125760, Note_on_c, 9, 42, 95
10, 125760, Note_on_c, 9, 37, 95
10, 126240, Note_off_c, 9, 42, 95
10, 126240, Note_off_c, 9, 37, 95
10, 126240, Note_on_c, 9, 42, 95
10, 126720, Note_off_c, 9, 42, 95
10, 126720, Note_on_c, 9, 42, 95
10, 126720, Note_on_c, 9, 35, 95
10, 127200, Note_off_c, 9, 42, 95
10, 127200, Note_off_c, 9, 35, 95
10, 127200, Note_on_c, 9, 42, 95
10, 127680, Note_off_c, 9, 42, 95
10, 127680, Note_on_c, 9, 42, 95
10, 127680, Note_on_c, 9, 37, 95
10, 128160, Note_off_c, 9, 42, 95
10, 128160, Note_off_c, 9, 37, 95
10, 128160, Note_on_c, 9, 42, 95
10, 128160, Note_on_c, 9, 35, 95
10, 128640, Note_off_c, 9, 42, 95
10, 128640, Note_off_c, 9, 35, 95
10, 128640, Note_on_c, 9, 42, 95
10, 128640, Note_on_c, 9, 35, 95
10, 129120, Note_off_c, 9, 42, 95
10, 129120, Note_off_c, 9, 35, 95
10, 129120, Note_on_c, 9, 42, 95
10, 129600, Note_off_c, 9, 42, 95
10, 129600, Note_on_c, 9, 42, 95
10, 129600, Note_on_c, 9, 37, 95
10, 130080, Note_off_c, 9, 42, 95
10, 130080, Note_off_c, 9, 37, 95
10, 130080, Note_on_c, 9, 42, 95
10, 130560, Note_off_c, 9, 42, 95
10, 130560, Note_on_c, 9, 42, 95
10, 130560, Note_on_c, 9, 35, 95
10, 131040, Note_off_c, 9, 42, 95
10, 131040, Note_off_c, 9, 35, 95
10, 131040, Note_on_c, 9, 42, 95
10, 131520, Note_off_c, 9, 42, 95
10, 131520, Note_on_c, 9, 42, 95
10, 131520, Note_on_c, 9, 37, 95
10, 132000, Note_off_c, 9, 42, 95
10, 132000, Note_off_c, 9, 37, 95
10, 132000, Note_on_c, 9, 42, 95
10, 132000, Note_on_c, 9, 35, 95
10, 132480, Note_off_c, 9, 42, 95
10, 132480, Note_off_c, 9, 35, 95
10, 132480, Note_on_c, 9, 42, 95
10, 132480, Note_on_c, 9, 35, 95
10, 132960, Note_off_c, 9, 42, 95
10, 132960, Note_off_c, 9, 35, 95
10, 132960, Note_on_c, 9, 42, 95
10, 133440, Note_off_c, 9, 42, 95
10, 133440, Note_on_c, 9, 42, 95
10, 133440, Note_on_c, 9, 37, 95
10, 133920, Note_off_c, 9, 42, 95
10, 133920, Note_off_c, 9, 37, 95
10, 133920, Note_on_c, 9, 42, 95
10, 134400, Note_off_c, 9, 42, 95
10, 134400, Note_on_c, 9, 42, 95
10, 134400, Note_on_c, 9, 35, 95
10, 134880, Note_off_c, 9, 42, 95
10, 134880, Note_off_c, 9, 35, 95
10, 134880, Note_on_c, 9, 42, 95
10, 135360, Note_off_c, 9, 42, 95
10, 135360, Note_on_c, 9, 42, 95
10, 135360, Note_on_c, 9, 37, 95
10, 135840, Note_off_c, 9, 42, 95
10, 135840, Note_off_c, 9, 37, 95
10, 135840, Note_on_c, 9, 42, 95
10, 135840, Note_on_c, 9, 35, 95
10, 136320, Note_off_c, 9, 42, 95
10, 136320, Note_off_c, 9, 35, 95
10, 136320, Note_on_c, 9, 42, 95
10, 136320, Note_on_c, 9, 35, 95
10, 136800, Note_off_c, 9, 42, 95
10, 136800, Note_off_c, 9, 35, 95
10, 136800, Note_on_c, 9, 42, 95
10, 137280, Note_off_c, 9, 42, 95
10, 137280, Note_on_c, 9, 42, 95
10, 137280, Note_on_c, 9, 37, 95
10, 137760, Note_off_c, 9, 42, 95
10, 137760, Note_off_c, 9, 37, 95
10, 137760, Note_on_c, 9, 42, 95
10, 138240, Note_off_c, 9, 42, 95
10, 138240, Note_on_c, 9, 42, 95
10, 138240, Note_on_c, 9, 35, 95
10, 138720, Note_off_c, 9, 42, 95
10, 138720, Note_off_c, 9, 35, 95
10, 138720, Note_on_c, 9, 42, 95
10, 139200, Note_off_c, 9, 42, 95
10, 139200, Note_on_c, 9, 42, 95
10, 139200, Note_on_c, 9, 37, 95
10, 139680, Note_off_c, 9, 42, 95
10, 139680, Note_off_c, 9, 37, 95
10, 139680, Note_on_c, 9, 42, 95
10, 139680, Note_on_c, 9, 35, 95
10, 140160, Note_off_c, 9, 42, 95
10, 140160, Note_off_c, 9, 35, 95
10, 140160, Note_on_c, 9, 42, 95
10, 140160, Note_on_c, 9, 35, 95
10, 140640, Note_off_c, 9, 42, 95
10, 140640, Note_off_c, 9, 35, 95
10, 140640, Note_on_c, 9, 42, 95
10, 141120, Note_off_c, 9, 42, 95
10, 141120, Note_on_c, 9, 42, 95
10, 141120, Note_on_c, 9, 37, 95
10, 141600, Note_off_c, 9, 42, 95
10, 141600, Note_off_c, 9, 37, 95
10, 141600, Note_on_c, 9, 42, 95
10, 142080, Note_off_c, 9, 42, 95
10, 142080, Note_on_c, 9, 42, 95
10, 142080, Note_on_c, 9, 35, 95
10, 142560, Note_off_c, 9, 42, 95
10, 142560, Note_off_c, 9, 35, 95
10, 142560, Note_on_c, 9, 42, 95
10, 143040, Note_off_c, 9, 42, 95
10, 143040, Note_on_c, 9, 42, 95
10, 143040, Note_on_c, 9, 37, 95
10, 143520, Note_off_c, 9, 42, 95
10, 143520, Note_off_c, 9, 37, 95
10, 143520, Note_on_c, 9, 42, 95
10, 143520, Note_on_c, 9, 35, 95
10, 144000, Note_off_c, 9, 42, 95
10, 144000, Note_off_c, 9, 35, 95
10, 144000, Note_on_c, 9, 42, 95
10, 144000, Note_on_c, 9, 35, 95
10, 144480, Note_off_c, 9, 42, 95
10, 144480, Note_off_c, 9, 35, 95
10, 144480, Note_on_c, 9, 42, 95
10, 144960, Note_off_c, 9, 42, 95
10, 144960, Note_on_c, 9, 42, 95
10, 144960, Note_on_c, 9, 37, 95
10, 145440, Note_off_c, 9, 42, 95
10, 145440, Note_off_c, 9, 37, 95
10, 145440, Note_on_c, 9, 42, 95
10, 145920, Note_off_c, 9, 42, 95
10, 145920, Note_on_c, 9, 42, 95
10, 145920, Note_on_c, 9, 35, 95
10, 146400, Note_off_c, 9, 42, 95
10, 146400, Note_off_c, 9, 35, 95
10, 146400, Note_on_c, 9, 42, 95
10, 146880, Note_off_c, 9, 42, 95
10, 146880, Note_on_c, 9, 42, 95
10, 146880, Note_on_c, 9, 37, 95
10, 147360, Note_off_c, 9, 42, 95
10, 147360, Note_off_c, 9, 37, 95
10, 147360, Note_on_c, 9, 42, 95
10, 147360, Note_on_c, 9, 35, 95
10, 147840, Note_off_c, 9, 42, 95
10, 147840, Note_off_c, 9, 35, 95
10, 147840, Note_on_c, 9, 42, 95
10, 147840, Note_on_c, 9, 35, 95
10, 148320, Note_off_c, 9, 42, 95
10, 148320, Note_off_c, 9, 35, 95
10, 148320, Note_on_c, 9, 42, 95
10, 148800, Note_off_c, 9, 42, 95
10, 148800, Note_on_c, 9, 42, 95
10, 148800, Note_on_c, 9, 37, 95
10, 149280, Note_off_c, 9, 42, 95
10, 149280, Note_off_c, 9, 37, 95
10, 149280, Note_on_c, 9, 42, 95
10, 149760, Note_off_c, 9, 42, 95
10, 149760, Note_on_c, 9, 42, 95
10, 149760, Note_on_c, 9, 35, 95
10, 150240, Note_off_c, 9, 42, 95
10, 150240, Note_off_c, 9, 35, 95
10, 150240, Note_on_c, 9, 42, 95
10, 150720, Note_off_c, 9, 42, 95
10, 150720, Note_on_c, 9, 42, 95
10, 150720, Note_on_c, 9, 37, 95
10, 151200, Note_off_c, 9, 42, 95
10, 151200, Note_off_c, 9, 37, 95
10, 151200, Note_on_c, 9, 42, 95
10, 151200, Note_on_c, 9, 35, 95
10, 151680, Note_off_c, 9, 42, 95
10, 151680, Note_off_c, 9, 35, 95
10, 151680, Note_on_c, 9, 42, 95
10, 151680, Note_on_c, 9, 35, 95
10, 152160, Note_off_c, 9, 42, 95
10, 152160, Note_off_c, 9, 35, 95
10, 152160, Note_on_c, 9, 42, 95
10, 152640, Note_off_c, 9, 42, 95
10, 152640, Note_on_c, 9, 42, 95
10, 152640, Note_on_c, 9, 37, 95
10, 153120, Note_off_c, 9, 42, 95
10, 153120, Note_off_c, 9, 37, 95
10, 153120, Note_on_c, 9, 46, 95
10, 153600, Note_off_c, 9, 46, 95
10, 153600, Note_on_c, 9, 42, 95
10, 153600, Note_on_c, 9, 35, 95
10, 154080, Note_off_c, 9, 42, 95
10, 154080, Note_off_c, 9, 35, 95
10, 154080, Note_on_c, 9, 42, 95
10, 154560, Note_off_c, 9, 42, 95
10, 154560, Note_on_c, 9, 42, 95
10, 154560, Note_on_c, 9, 37, 95
10, 155040, Note_off_c, 9, 42, 95
10, 155040, Note_off_c, 9, 37, 95
10, 155040, Note_on_c, 9, 42, 95
10, 155040, Note_on_c, 9, 35, 95
10, 155520, Note_off_c, 9, 42, 95
10, 155520, Note_off_c, 9, 35, 95
10, 155520, Note_on_c, 9, 42, 95
10, 155520, Note_on_c, 9, 35, 95
10, 156000, Note_off_c, 9, 42, 95
10, 156000, Note_off_c, 9, 35, 95
10, 156000, Note_on_c, 9, 42, 95
10, 156480, Note_off_c, 9, 42, 95
10, 156480, Note_on_c, 9, 42, 95
10, 156480, Note_on_c, 9, 37, 95
10, 156960, Note_off_c, 9, 42, 95
10, 156960, Note_off_c, 9, 37, 95
10, 156960, Note_on_c, 9, 42, 95
10, 157440, Note_off_c, 9, 42, 95
10, 157440, Note_on_c, 9, 42, 95
10, 157440, Note_on_c, 9, 35, 95
10, 157920, Note_off_c, 9, 42, 95
10, 157920, Note_off_c, 9, 35, 95
10, 157920, Note_on_c, 9, 42, 95
10, 158400, Note_off_c, 9, 42, 95
10, 158400, Note_on_c, 9, 42, 95
10, 158400, Note_on_c, 9, 37, 95
10, 158880, Note_off_c, 9, 42, 95
10, 158880, Note_off_c, 9, 37, 95
10, 158880, Note_on_c, 9, 42, 95
10, 158880, Note_on_c, 9, 35, 95
10, 159360, Note_off_c, 9, 42, 95
10, 159360, Note_off_c, 9, 35, 95
10, 159360, Note_on_c, 9, 42, 95
10, 159360, Note_on_c, 9, 35, 95
10, 159840, Note_off_c, 9, 42, 95
10, 159840, Note_off_c, 9, 35, 95
10, 159840, Note_on_c, 9, 42, 95
10, 160320, Note_off_c, 9, 42, 95
10, 160320, Note_on_c, 9, 42, 95
10, 160320, Note_on_c, 9, 37, 95
10, 160800, Note_off_c, 9, 42, 95
10, 160800, Note_off_c, 9, 37, 95
10, 160800, Note_on_c, 9, 42, 95
10, 161280, Note_off_c, 9, 42, 95
10, 161280, Note_on_c, 9, 42, 95
10, 161280, Note_on_c, 9, 35, 95
10, 161760, Note_off_c, 9, 42, 95
10, 161760, Note_off_c, 9, 35, 95
10, 161760, Note_on_c, 9, 42, 95
10, 162240, Note_off_c, 9, 42, 95
10, 162240, Note_on_c, 9, 42, 95
10, 162240, Note_on_c, 9, 37, 95
10, 162720, Note_off_c, 9, 42, 95
10, 162720, Note_off_c, 9, 37, 95
10, 162720, Note_on_c, 9, 42, 95
10, 162720, Note_on_c, 9, 35, 95
10, 163200, Note_off_c, 9, 42, 95
10, 163200, Note_off_c, 9, 35, 95
10, 163200, Note_on_c, 9, 42, 95
10, 163200, Note_on_c, 9, 35, 95
10, 163680, Note_off_c, 9, 42, 95
10, 163680, Note_off_c, 9, 35, 95
10, 163680, Note_on_c, 9, 42, 95
10, 164160, Note_off_c, 9, 42, 95
10, 164160, Note_on_c, 9, 42, 95
10, 164160, Note_on_c, 9, 37, 95
10, 164640, Note_off_c, 9, 42, 95
10, 164640, Note_off_c, 9, 37, 95
10, 164640, Note_on_c, 9, 42, 95
10, 165120, Note_off_c, 9, 42, 95
10, 165120, Note_on_c, 9, 42, 95
10, 165120, Note_on_c, 9, 35, 95
10, 165600, Note_off_c, 9, 42, 95
10, 165600, Note_off_c, 9, 35, 95
10, 165600, Note_on_c, 9, 42, 95
10, 166080, Note_off_c, 9, 42, 95
10, 166080, Note_on_c, 9, 42, 95
10, 166080, Note_on_c, 9, 37, 95
10, 166560, Note_off_c, 9, 42, 95
10, 166560, Note_off_c, 9, 37, 95
10, 166560, Note_on_c, 9, 42, 95
10, 166560, Note_on_c, 9, 35, 95
10, 167040, Note_off_c, 9, 42, 95
10, 167040, Note_off_c, 9, 35, 95
10, 167040, Note_on_c, 9, 42, 95
10, 167040, Note_on_c, 9, 35, 95
10, 167520, Note_off_c, 9, 42, 95
10, 167520, Note_off_c, 9, 35, 95
10, 167520, Note_on_c, 9, 42, 95
10, 168000, Note_off_c, 9, 42, 95
10, 168000, Note_on_c, 9, 42, 95
10, 168000, Note_on_c, 9, 37, 95
10, 168480, Note_off_c, 9, 42, 95
10, 168480, Note_off_c, 9, 37, 95
10, 168480, Note_on_c, 9, 42, 95
10, 168960, Note_off_c, 9, 42, 95
10, 168960, Note_on_c, 9, 42, 95
10, 168960, Note_on_c, 9, 35, 95
10, 169440, Note_off_c, 9, 42, 95
10, 169440, Note_off_c, 9, 35, 95
10, 169440, Note_on_c, 9, 42, 95
10, 169920, Note_off_c, 9, 42, 95
10, 169920, Note_on_c, 9, 42, 95
10, 169920, Note_on_c, 9, 37, 95
10, 170400, Note_off_c, 9, 42, 95
10, 170400, Note_off_c, 9, 37, 95
10, 170400, Note_on_c, 9, 42, 95
10, 170400, Note_on_c, 9, 35, 95
10, 170880, Note_off_c, 9, 42, 95
10, 170880, Note_off_c, 9, 35, 95
10, 170880, Note_on_c, 9, 42, 95
10, 170880, Note_on_c, 9, 35, 95
10, 171360, Note_off_c, 9, 42, 95
10, 171360, Note_off_c, 9, 35, 95
10, 171360, Note_on_c, 9, 42, 95
10, 171840, Note_off_c, 9, 42, 95
10, 171840, Note_on_c, 9, 42, 95
10, 171840, Note_on_c, 9, 37, 95
10, 172320, Note_off_c, 9, 42, 95
10, 172320, Note_off_c, 9, 37, 95
10, 172320, Note_on_c, 9, 42, 95
10, 172800, Note_off_c, 9, 42, 95
10, 172800, Note_on_c, 9, 42, 95
10, 172800, Note_on_c, 9, 35, 95
10, 173280, Note_off_c, 9, 42, 95
10, 173280, Note_off_c, 9, 35, 95
10, 173280, Note_on_c, 9, 42, 95
10, 173760, Note_off_c, 9, 42, 95
10, 173760, Note_on_c, 9, 42, 95
10, 173760, Note_on_c, 9, 37, 95
10, 174240, Note_off_c, 9, 42, 95
10, 174240, Note_off_c, 9, 37, 95
10, 174240, Note_on_c, 9, 42, 95
10, 174240, Note_on_c, 9, 35, 95
10, 174720, Note_off_c, 9, 42, 95
10, 174720, Note_off_c, 9, 35, 95
10, 174720, Note_on_c, 9, 42, 95
10, 174720, Note_on_c, 9, 35, 95
10, 175200, Note_off_c, 9, 42, 95
10, 175200, Note_off_c, 9, 35, 95
10, 175200, Note_on_c, 9, 42, 95
10, 175680, Note_off_c, 9, 42, 95
10, 175680, Note_on_c, 9, 42, 95
10, 175680, Note_on_c, 9, 37, 95
10, 176160, Note_off_c, 9, 42, 95
10, 176160, Note_off_c, 9, 37, 95
10, 176160, Note_on_c, 9, 46, 95
10, 176640, Note_off_c, 9, 46, 95
10, 176640, Note_on_c, 9, 42, 95
10, 176640, Note_on_c, 9, 35, 95
10, 177120, Note_off_c, 9, 42, 95
10, 177120, Note_off_c, 9, 35, 95
10, 177120, Note_on_c, 9, 42, 95
10, 177600, Note_off_c, 9, 42, 95
10, 177600, Note_on_c, 9, 42, 95
10, 177600, Note_on_c, 9, 37, 95
10, 178080, Note_off_c, 9, 42, 95
10, 178080, Note_off_c, 9, 37, 95
10, 178080, Note_on_c, 9, 42, 95
10, 178080, Note_on_c, 9, 35, 95
10, 178560, Note_off_c, 9, 42, 95
10, 178560, Note_off_c, 9, 35, 95
10, 178560, Note_on_c, 9, 42, 95
10, 178560, Note_on_c, 9, 35, 95
10, 179040, Note_off_c, 9, 42, 95
10, 179040, Note_off_c, 9, 35, 95
10, 179040, Note_on_c, 9, 42, 95
10, 179520, Note_off_c, 9, 42, 95
10, 179520, Note_on_c, 9, 42, 95
10, 179520, Note_on_c, 9, 37, 95
10, 180000, Note_off_c, 9, 42, 95
10, 180000, Note_off_c, 9, 37, 95
10, 180000, Note_on_c, 9, 42, 95
10, 180480, Note_off_c, 9, 42, 95
10, 180480, Note_on_c, 9, 42, 95
10, 180480, Note_on_c, 9, 35, 95
10, 180960, Note_off_c, 9, 42, 95
10, 180960, Note_off_c, 9, 35, 95
10, 180960, Note_on_c, 9, 42, 95
10, 181440, Note_off_c, 9, 42, 95
10, 181440, Note_on_c, 9, 42, 95
10, 181440, Note_on_c, 9, 37, 95
10, 181920, Note_off_c, 9, 42, 95
10, 181920, Note_off_c, 9, 37, 95
10, 181920, Note_on_c, 9, 42, 95
10, 181920, Note_on_c, 9, 35, 95
10, 182400, Note_off_c, 9, 42, 95
10, 182400, Note_off_c, 9, 35, 95
10, 182400, Note_on_c, 9, 42, 95
10, 182400, Note_on_c, 9, 35, 95
10, 182880, Note_off_c, 9, 42, 95
10, 182880, Note_off_c, 9, 35, 95
10, 182880, Note_on_c, 9, 42, 95
10, 183360, Note_off_c, 9, 42, 95
10, 183360, Note_on_c, 9, 42, 95
10, 183360, Note_on_c, 9, 37, 95
10, 183840, Note_off_c, 9, 42, 95
10, 183840, Note_off_c, 9, 37, 95
10, 183840, Note_on_c, 9, 42, 95
10, 184320, Note_off_c, 9, 42, 95
10, 184320, Note_on_c, 9, 42, 95
10, 184320, Note_on_c, 9, 35, 95
10, 184800, Note_off_c, 9, 42, 95
10, 184800, Note_off_c, 9, 35, 95
10, 184800, Note_on_c, 9, 42, 95
10, 185280, Note_off_c, 9, 42, 95
10, 185280, Note_on_c, 9, 42, 95
10, 185280, Note_on_c, 9, 37, 95
10, 185760, Note_off_c, 9, 42, 95
10, 185760, Note_off_c, 9, 37, 95
10, 185760, Note_on_c, 9, 42, 95
10, 185760, Note_on_c, 9, 35, 95
10, 186240, Note_off_c, 9, 42, 95
10, 186240, Note_off_c, 9, 35, 95
10, 186240, Note_on_c, 9, 42, 95
10, 186240, Note_on_c, 9, 35, 95
10, 186720, Note_off_c, 9, 42, 95
10, 186720, Note_off_c, 9, 35, 95
10, 186720, Note_on_c, 9, 42, 95
10, 187200, Note_off_c, 9, 42, 95
10, 187200, Note_on_c, 9, 42, 95
10, 187200, Note_on_c, 9, 37, 95
10, 187680, Note_off_c, 9, 42, 95
10, 187680, Note_off_c, 9, 37, 95
10, 187680, Note_on_c, 9, 42, 95
10, 188160, Note_off_c, 9, 42, 95
10, 188160, Note_on_c, 9, 42, 95
10, 188160, Note_on_c, 9, 35, 95
10, 188640, Note_off_c, 9, 42, 95
10, 188640, Note_off_c, 9, 35, 95
10, 188640, Note_on_c, 9, 42, 95
10, 189120, Note_off_c, 9, 42, 95
10, 189120, Note_on_c, 9, 42, 95
10, 189120, Note_on_c, 9, 37, 95
10, 189600, Note_off_c, 9, 42, 95
10, 189600, Note_off_c, 9, 37, 95
10, 189600, Note_on_c, 9, 42, 95
10, 189600, Note_on_c, 9, 35, 95
10, 190080, Note_off_c, 9, 42, 95
10, 190080, Note_off_c, 9, 35, 95
10, 190080, Note_on_c, 9, 42, 95
10, 190080, Note_on_c, 9, 35, 95
10, 190560, Note_off_c, 9, 42, 95
10, 190560, Note_off_c, 9, 35, 95
10, 190560, Note_on_c, 9, 42, 95
10, 191040, Note_off_c, 9, 42, 95
10, 191040, Note_on_c, 9, 42, 95
10, 191040, Note_on_c, 9, 37, 95
10, 191520, Note_off_c, 9, 42, 95
10, 191520, Note_off_c, 9, 37, 95
10, 191520, Note_on_c, 9, 46, 95
10, 192000, Note_off_c, 9, 46, 95
10, 192000, Note_on_c, 9, 42, 95
10, 192000, Note_on_c, 9, 35, 95
10, 192480, Note_off_c, 9, 42, 95
10, 192480, Note_off_c, 9, 35, 95
10, 192480, Note_on_c, 9, 42, 95
10, 192960, Note_off_c, 9, 42, 95
10, 192960, Note_on_c, 9, 42, 95
10, 192960, Note_on_c, 9, 37, 95
10, 193440, Note_off_c, 9, 42, 95
10, 193440, Note_off_c, 9, 37, 95
10, 193440, Note_on_c, 9, 42, 95
10, 193440, Note_on_c, 9, 35, 95
10, 193920, Note_off_c, 9, 42, 95
10, 193920, Note_off_c, 9, 35, 95
10, 193920, Note_on_c, 9, 42, 95
10, 193920, Note_on_c, 9, 35, 95
10, 194400, Note_off_c, 9, 42, 95
10, 194400, Note_off_c, 9, 35, 95
10, 194400, Note_on_c, 9, 42, 95
10, 194880, Note_off_c, 9, 42, 95
10, 194880, Note_on_c, 9, 42, 95
10, 194880, Note_on_c, 9, 37, 95
10, 195360, Note_off_c, 9, 42, 95
10, 195360, Note_off_c, 9, 37, 95
10, 195360, Note_on_c, 9, 42, 95
10, 195840, Note_off_c, 9, 42, 95
10, 195840, Note_on_c, 9, 42, 95
10, 195840, Note_on_c, 9, 35, 95
10, 196320, Note_off_c, 9, 42, 95
10, 196320, Note_off_c, 9, 35, 95
10, 196320, Note_on_c, 9, 42, 95
10, 196800, Note_off_c, 9, 42, 95
10, 196800, Note_on_c, 9, 42, 95
10, 196800, Note_on_c, 9, 37, 95
10, 197280, Note_off_c, 9, 42, 95
10, 197280, Note_off_c, 9, 37, 95
10, 197280, Note_on_c, 9, 42, 95
10, 197280, Note_on_c, 9, 35, 95
10, 197760, Note_off_c, 9, 42, 95
10, 197760, Note_off_c, 9, 35, 95
10, 197760, Note_on_c, 9, 42, 95
10, 197760, Note_on_c, 9, 35, 95
10, 198240, Note_off_c, 9, 42, 95
10, 198240, Note_off_c, 9, 35, 95
10, 198240, Note_on_c, 9, 42, 95
10, 198720, Note_off_c, 9, 42, 95
10, 198720, Note_on_c, 9, 42, 95
10, 198720, Note_on_c, 9, 37, 95
10, 199200, Note_off_c, 9, 42, 95
10, 199200, Note_off_c, 9, 37, 95
10, 199200, Note_on_c, 9, 42, 95
10, 199680, Note_off_c, 9, 42, 95
10, 199680, Note_on_c, 9, 42, 95
10, 199680, Note_on_c, 9, 35, 95
10, 200160, Note_off_c, 9, 42, 95
10, 200160, Note_off_c, 9, 35, 95
10, 200160, Note_on_c, 9, 42, 95
10, 200640, Note_off_c, 9, 42, 95
10, 200640, Note_on_c, 9, 42, 95
10, 200640, Note_on_c, 9, 37, 95
10, 201120, Note_off_c, 9, 42, 95
10, 201120, Note_off_c, 9, 37, 95
10, 201120, Note_on_c, 9, 42, 95
10, 201120, Note_on_c, 9, 35, 95
10, 201600, Note_off_c, 9, 42, 95
10, 201600, Note_off_c, 9, 35, 95
10, 201600, Note_on_c, 9, 42, 95
10, 201600, Note_on_c, 9, 35, 95
10, 202080, Note_off_c, 9, 42, 95
10, 202080, Note_off_c, 9, 35, 95
10, 202080, Note_on_c, 9, 42, 95
10, 202560, Note_off_c, 9, 42, 95
10, 202560, Note_on_c, 9, 42, 95
10, 202560, Note_on_c, 9, 37, 95
10, 203040, Note_off_c, 9, 42, 95
10, 203040, Note_off_c, 9, 37, 95
10, 203040, Note_on_c, 9, 42, 95
10, 203520, Note_off_c, 9, 42, 95
10, 203520, Note_on_c, 9, 42, 95
10, 203520, Note_on_c, 9, 35, 95
10, 204000, Note_off_c, 9, 42, 95
10, 204000, Note_off_c, 9, 35, 95
10, 204000, Note_on_c, 9, 42, 95
10, 204480, Note_off_c, 9, 42, 95
10, 204480, Note_on_c, 9, 42, 95
10, 204480, Note_on_c, 9, 37, 95
10, 204960, Note_off_c, 9, 42, 95
10, 204960, Note_off_c, 9, 37, 95
10, 204960, Note_on_c, 9, 42, 95
10, 204960, Note_on_c, 9, 35, 95
10, 205440, Note_off_c, 9, 42, 95
10, 205440, Note_off_c, 9, 35, 95
10, 205440, Note_on_c, 9, 42, 95
10, 205440, Note_on_c, 9, 35, 95
10, 205920, Note_off_c, 9, 42, 95
10, 205920, Note_off_c, 9, 35, 95
10, 205920, Note_on_c, 9, 42, 95
10, 206400, Note_off_c, 9, 42, 95
10, 206400, Note_on_c, 9, 42, 95
10, 206400, Note_on_c, 9, 37, 95
10, 206880, Note_off_c, 9, 42, 95
10, 206880, Note_off_c, 9, 37, 95
10, 206880, Note_on_c, 9, 42, 95
10, 207360, Note_off_c, 9, 42, 95
10, 207360, Note_on_c, 9, 42, 95
10, 207360, Note_on_c, 9, 35, 95
10, 207840, Note_off_c, 9, 42, 95
10, 207840, Note_off_c, 9, 35, 95
10, 207840, Note_on_c, 9, 42, 95
10, 208320, Note_off_c, 9, 42, 95
10, 208320, Note_on_c, 9, 42, 95
10, 208320, Note_on_c, 9, 37, 95
10, 208800, Note_off_c, 9, 42, 95
10, 208800, Note_off_c, 9, 37, 95
10, 208800, Note_on_c, 9, 42, 95
10, 208800, Note_on_c, 9, 35, 95
10, 209280, Note_off_c, 9, 42, 95
10, 209280, Note_off_c, 9, 35, 95
10, 209280, Note_on_c, 9, 42, 95
10, 209280, Note_on_c, 9, 35, 95
10, 209760, Note_off_c, 9, 42, 95
10, 209760, Note_off_c, 9, 35, 95
10, 209760, Note_on_c, 9, 42, 95
10, 210240, Note_off_c, 9, 42, 95
10, 210240, Note_on_c, 9, 42, 95
10, 210240, Note_on_c, 9, 37, 95
10, 210720, Note_off_c, 9, 42, 95
10, 210720, Note_off_c, 9, 37, 95
10, 210720, Note_on_c, 9, 42, 95
10, 211200, Note_off_c, 9, 42, 95
10, 211200, Note_on_c, 9, 42, 95
10, 211200, Note_on_c, 9, 35, 95
10, 211680, Note_off_c, 9, 42, 95
10, 211680, Note_off_c, 9, 35, 95
10, 211680, Note_on_c, 9, 42, 95
10, 212160, Note_off_c, 9, 42, 95
10, 212160, Note_on_c, 9, 42, 95
10, 212160, Note_on_c, 9, 37, 95
10, 212640, Note_off_c, 9, 42, 95
10, 212640, Note_off_c, 9, 37, 95
10, 212640, Note_on_c, 9, 42, 95
10, 212640, Note_on_c, 9, 35, 95
10, 213120, Note_off_c, 9, 42, 95
10, 213120, Note_off_c, 9, 35, 95
10, 213120, Note_on_c, 9, 42, 95
10, 213120, Note_on_c, 9, 35, 95
10, 213600, Note_off_c, 9, 42, 95
10, 213600, Note_off_c, 9, 35, 95
10, 213600, Note_on_c, 9, 42, 95
10, 214080, Note_off_c, 9, 42, 95
10, 214080, Note_on_c, 9, 42, 95
10, 214080, Note_on_c, 9, 37, 95
10, 214560, Note_off_c, 9, 42, 95
10, 214560, Note_off_c, 9, 37, 95
10, 214560, Note_on_c, 9, 46, 95
10, 215040, Note_off_c, 9, 46, 95
10, 215040, Note_on_c, 9, 42, 95
10, 215040, Note_on_c, 9, 35, 95
10, 215520, Note_off_c, 9, 42, 95
10, 215520, Note_off_c, 9, 35, 95
10, 215520, Note_on_c, 9, 42, 95
10, 216000, Note_off_c, 9, 42, 95
10, 216000, Note_on_c, 9, 42, 95
10, 216000, Note_on_c, 9, 37, 95
10, 216480, Note_off_c, 9, 42, 95
10, 216480, Note_off_c, 9, 37, 95
10, 216480, Note_on_c, 9, 42, 95
10, 216480, Note_on_c, 9, 35, 95
10, 216960, Note_off_c, 9, 42, 95
10, 216960, Note_off_c, 9, 35, 95
10, 216960, Note_on_c, 9, 42, 95
10, 216960, Note_on_c, 9, 35, 95
10, 217440, Note_off_c, 9, 42, 95
10, 217440, Note_off_c, 9, 35, 95
10, 217440, Note_on_c, 9, 42, 95
10, 217920, Note_off_c, 9, 42, 95
10, 217920, Note_on_c, 9, 42, 95
10, 217920, Note_on_c, 9, 37, 95
10, 218400, Note_off_c, 9, 42, 95
10, 218400, Note_off_c, 9, 37, 95
10, 218400, Note_on_c, 9, 42, 95
10, 218880, Note_off_c, 9, 42, 95
10, 218880, Note_on_c, 9, 42, 95
10, 218880, Note_on_c, 9, 35, 95
10, 219360, Note_off_c, 9, 42, 95
10, 219360, Note_off_c, 9, 35, 95
10, 219360, Note_on_c, 9, 42, 95
10, 219840, Note_off_c, 9, 42, 95
10, 219840, Note_on_c, 9, 42, 95
10, 219840, Note_on_c, 9, 37, 95
10, 220320, Note_off_c, 9, 42, 95
10, 220320, Note_off_c, 9, 37, 95
10, 220320, Note_on_c, 9, 42, 95
10, 220320, Note_on_c, 9, 35, 95
10, 220800, Note_off_c, 9, 42, 95
10, 220800, Note_off_c, 9, 35, 95
10, 220800, Note_on_c, 9, 42, 95
10, 220800, Note_on_c, 9, 35, 95
10, 221280, Note_off_c, 9, 42, 95
10, 221280, Note_off_c, 9, 35, 95
10, 221280, Note_on_c, 9, 42, 95
10, 221760, Note_off_c, 9, 42, 95
10, 221760, Note_on_c, 9, 42, 95
10, 221760, Note_on_c, 9, 37, 95
10, 222240, Note_off_c, 9, 42, 95
10, 222240, Note_off_c, 9, 37, 95
10, 222240, Note_on_c, 9, 42, 95
10, 222720, Note_off_c, 9, 42, 95
10, 222720, Note_on_c, 9, 42, 95
10, 222720, Note_on_c, 9, 35, 95
10, 223200, Note_off_c, 9, 42, 95
10, 223200, Note_off_c, 9, 35, 95
10, 223200, Note_on_c, 9, 42, 95
10, 223680, Note_off_c, 9, 42, 95
10, 223680, Note_on_c, 9, 42, 95
10, 223680, Note_on_c, 9, 37, 95
10, 224160, Note_off_c, 9, 42, 95
10, 224160, Note_off_c, 9, 37, 95
10, 224160, Note_on_c, 9, 42, 95
10, 224160, Note_on_c, 9, 35, 95
10, 224640, Note_off_c, 9, 42, 95
10, 224640, Note_off_c, 9, 35, 95
10, 224640, Note_on_c, 9, 42, 95
10, 224640, Note_on_c, 9, 35, 95
10, 225120, Note_off_c, 9, 42, 95
10, 225120, Note_off_c, 9, 35, 95
10, 225120, Note_on_c, 9, 42, 95
10, 225600, Note_off_c, 9, 42, 95
10, 225600, Note_on_c, 9, 42, 95
10, 225600, Note_on_c, 9, 37, 95
10, 226080, Note_off_c, 9, 42, 95
10, 226080, Note_off_c, 9, 37, 95
10, 226080, Note_on_c, 9, 42, 95
10, 226560, Note_off_c, 9, 42, 95
10, 226560, Note_on_c, 9, 42, 95
10, 226560, Note_on_c, 9, 35, 95
10, 227040, Note_off_c, 9, 42, 95
10, 227040, Note_off_c, 9, 35, 95
10, 227040, Note_on_c, 9, 42, 95
10, 227520, Note_off_c, 9, 42, 95
10, 227520, Note_on_c, 9, 42, 95
10, 227520, Note_on_c, 9, 37, 95
10, 228000, Note_off_c, 9, 42, 95
10, 228000, Note_off_c, 9, 37, 95
10, 228000, Note_on_c, 9, 42, 95
10, 228000, Note_on_c, 9, 35, 95
10, 228480, Note_off_c, 9, 42, 95
10, 228480, Note_off_c, 9, 35, 95
10, 228480, Note_on_c, 9, 42, 95
10, 228480, Note_on_c, 9, 35, 95
10, 228960, Note_off_c, 9, 42, 95
10, 228960, Note_off_c, 9, 35, 95
10, 228960, Note_on_c, 9, 42, 95
10, 229440, Note_off_c, 9, 42, 95
10, 229440, Note_on_c, 9, 42, 95
10, 229440, Note_on_c, 9, 37, 95
10, 229920, Note_off_c, 9, 42, 95
10, 229920, Note_off_c, 9, 37, 95
10, 229920, Note_on_c, 9, 42, 95
10, 230400, Note_off_c, 9, 42, 95
10, 230400, Note_on_c, 9, 42, 95
10, 230400, Note_on_c, 9, 35, 95
10, 230880, Note_off_c, 9, 42, 95
10, 230880, Note_off_c, 9, 35, 95
10, 230880, Note_on_c, 9, 42, 95
10, 231360, Note_off_c, 9, 42, 95
10, 231360, Note_on_c, 9, 42, 95
10, 231360, Note_on_c, 9, 37, 95
10, 231840, Note_off_c, 9, 42, 95
10, 231840, Note_off_c, 9, 37, 95
10, 231840, Note_on_c, 9, 42, 95
10, 231840, Note_on_c, 9, 35, 95
10, 232320, Note_off_c, 9, 42, 95
10, 232320, Note_off_c, 9, 35, 95
10, 232320, Note_on_c, 9, 42, 95
10, 232320, Note_on_c, 9, 35, 95
10, 232800, Note_off_c, 9, 42, 95
10, 232800, Note_off_c, 9, 35, 95
10, 232800, Note_on_c, 9, 42, 95
10, 233280, Note_off_c, 9, 42, 95
10, 233280, Note_on_c, 9, 42, 95
10, 233280, Note_on_c, 9, 37, 95
10, 233760, Note_off_c, 9, 42, 95
10, 233760, Note_off_c, 9, 37, 95
10, 233760, Note_on_c, 9, 42, 95
10, 234240, Note_off_c, 9, 42, 95
10, 234240, Note_on_c, 9, 42, 95
10, 234240, Note_on_c, 9, 35, 95
10, 234720, Note_off_c, 9, 42, 95
10, 234720, Note_off_c, 9, 35, 95
10, 234720, Note_on_c, 9, 42, 95
10, 235200, Note_off_c, 9, 42, 95
10, 235200, Note_on_c, 9, 42, 95
10, 235200, Note_on_c, 9, 37, 95
10, 235680, Note_off_c, 9, 42, 95
10, 235680, Note_off_c, 9, 37, 95
10, 235680, Note_on_c, 9, 42, 95
10, 235680, Note_on_c, 9, 35, 95
10, 236160, Note_off_c, 9, 42, 95
10, 236160, Note_off_c, 9, 35, 95
10, 236160, Note_on_c, 9, 42, 95
10, 236160, Note_on_c, 9, 35, 95
10, 236640, Note_off_c, 9, 42, 95
10, 236640, Note_off_c, 9, 35, 95
10, 236640, Note_on_c, 9, 42, 95
10, 237120, Note_off_c, 9, 42, 95
10, 237120, Note_on_c, 9, 42, 95
10, 237120, Note_on_c, 9, 37, 95
10, 237600, Note_off_c, 9, 42, 95
10, 237600, Note_off_c, 9, 37, 95
10, 237600, Note_on_c, 9, 42, 95
10, 238080, Note_off_c, 9, 42, 95
10, 238080, Note_on_c, 9, 42, 95
10, 238080, Note_on_c, 9, 35, 95
10, 238560, Note_off_c, 9, 42, 95
10, 238560, Note_off_c, 9, 35, 95
10, 238560, Note_on_c, 9, 42, 95
10, 239040, Note_off_c, 9, 42, 95
10, 239040, Note_on_c, 9, 42, 95
10, 239040, Note_on_c, 9, 37, 95
10, 239520, Note_off_c, 9, 42, 95
10, 239520, Note_off_c, 9, 37, 95
10, 239520, Note_on_c, 9, 42, 95
10, 239520, Note_on_c, 9, 35, 95
10, 240000, Note_off_c, 9, 42, 95
10, 240000, Note_off_c, 9, 35, 95
10, 240000, Note_on_c, 9, 42, 95
10, 240000, Note_on_c, 9, 35, 95
10, 240480, Note_off_c, 9, 42, 95
10, 240480, Note_off_c, 9, 35, 95
10, 240480, Note_on_c, 9, 42, 95
10, 240960, Note_off_c, 9, 42, 95
10, 240960, Note_on_c, 9, 42, 95
10, 240960, Note_on_c, 9, 37, 95
10, 241440, Note_off_c, 9, 42, 95
10, 241440, Note_off_c, 9, 37, 95
10, 241440, Note_on_c, 9, 42, 95
10, 241920, Note_off_c, 9, 42, 95
10, 241920, Note_on_c, 9, 42, 95
10, 241920, Note_on_c, 9, 35, 95
10, 242400, Note_off_c, 9, 42, 95
10, 242400, Note_off_c, 9, 35, 95
10, 242400, Note_on_c, 9, 42, 95
10, 242880, Note_off_c, 9, 42, 95
10, 242880, Note_on_c, 9, 42, 95
10, 242880, Note_on_c, 9, 37, 95
10, 243360, Note_off_c, 9, 42, 95
10, 243360, Note_off_c, 9, 37, 95
10, 243360, Note_on_c, 9, 42, 95
10, 243360, Note_on_c, 9, 35, 95
10, 243840, Note_off_c, 9, 42, 95
10, 243840, Note_off_c, 9, 35, 95
10, 243840, Note_on_c, 9, 42, 95
10, 243840, Note_on_c, 9, 35, 95
10, 244320, Note_off_c, 9, 42, 95
10, 244320, Note_off_c, 9, 35, 95
10, 244320, Note_on_c, 9, 42, 95
10, 244800, Note_off_c, 9, 42, 95
10, 244800, Note_on_c, 9, 42, 95
10, 244800, Note_on_c, 9, 37, 95
10, 245280, Note_off_c, 9, 42, 95
10, 245280, Note_off_c, 9, 37, 95
10, 245280, Note_on_c, 9, 46, 95
10, 245760, Note_off_c, 9, 46, 95
10, 245760, Note_on_c, 9, 42, 95
10, 245760, Note_on_c, 9, 35, 95
10, 246240, Note_off_c, 9, 42, 95
10, 246240, Note_off_c, 9, 35, 95
10, 246240, Note_on_c, 9, 42, 95
10, 246720, Note_off_c, 9, 42, 95
10, 246720, Note_on_c, 9, 42, 95
10, 246720, Note_on_c, 9, 37, 95
10, 247200, Note_off_c, 9, 42, 95
10, 247200, Note_off_c, 9, 37, 95
10, 247200, Note_on_c, 9, 42, 95
10, 247200, Note_on_c, 9, 35, 95
10, 247680, Note_off_c, 9, 42, 95
10, 247680, Note_off_c, 9, 35, 95
10, 247680, Note_on_c, 9, 42, 95
10, 247680, Note_on_c, 9, 35, 95
10, 248160, Note_off_c, 9, 42, 95
10, 248160, Note_off_c, 9, 35, 95
10, 248160, Note_on_c, 9, 42, 95
10, 248640, Note_off_c, 9, 42, 95
10, 248640, Note_on_c, 9, 42, 95
10, 248640, Note_on_c, 9, 37, 95
10, 249120, Note_off_c, 9, 42, 95
10, 249120, Note_off_c, 9, 37, 95
10, 249120, Note_on_c, 9, 42, 95
10, 249600, Note_off_c, 9, 42, 95
10, 249600, Note_on_c, 9, 42, 95
10, 249600, Note_on_c, 9, 35, 95
10, 250080, Note_off_c, 9, 42, 95
10, 250080, Note_off_c, 9, 35, 95
10, 250080, Note_on_c, 9, 42, 95
10, 250560, Note_off_c, 9, 42, 95
10, 250560, Note_on_c, 9, 42, 95
10, 250560, Note_on_c, 9, 37, 95
10, 251040, Note_off_c, 9, 42, 95
10, 251040, Note_off_c, 9, 37, 95
10, 251040, Note_on_c, 9, 42, 95
10, 251040, Note_on_c, 9, 35, 95
10, 251520, Note_off_c, 9, 42, 95
10, 251520, Note_off_c, 9, 35, 95
10, 251520, Note_on_c, 9, 42, 95
10, 251520, Note_on_c, 9, 35, 95
10, 252000, Note_off_c, 9, 42, 95
10, 252000, Note_off_c, 9, 35, 95
10, 252000, Note_on_c, 9, 42, 95
10, 252480, Note_off_c, 9, 42, 95
10, 252480, Note_on_c, 9, 42, 95
10, 252480, Note_on_c, 9, 37, 95
10, 252960, Note_off_c, 9, 42, 95
10, 252960, Note_off_c, 9, 37, 95
10, 252960, Note_on_c, 9, 42, 95
10, 253440, Note_off_c, 9, 42, 95
10, 253440, Note_on_c, 9, 42, 95
10, 253440, Note_on_c, 9, 35, 95
10, 253920, Note_off_c, 9, 42, 95
10, 253920, Note_off_c, 9, 35, 95
10, 253920, Note_on_c, 9, 42, 95
10, 254400, Note_off_c, 9, 42, 95
10, 254400, Note_on_c, 9, 42, 95
10, 254400, Note_on_c, 9, 37, 95
10, 254880, Note_off_c, 9, 42, 95
10, 254880, Note_off_c, 9, 37, 95
10, 254880, Note_on_c, 9, 42, 95
10, 254880, Note_on_c, 9, 35, 95
10, 255360, Note_off_c, 9, 42, 95
10, 255360, Note_off_c, 9, 35, 95
10, 255360, Note_on_c, 9, 42, 95
10, 255360, Note_on_c, 9, 35, 95
10, 255840, Note_off_c, 9, 42, 95
10, 255840, Note_off_c, 9, 35, 95
10, 255840, Note_on_c, 9, 42, 95
10, 256320, Note_off_c, 9, 42, 95
10, 256320, Note_on_c, 9, 42, 95
10, 256320, Note_on_c, 9, 37, 95
10, 256800, Note_off_c, 9, 42, 95
10, 256800, Note_off_c, 9, 37, 95
10, 256800, Note_on_c, 9, 42, 95
10, 257280, Note_off_c, 9, 42, 95
10, 257280, Note_on_c, 9, 42, 95
10, 257280, Note_on_c, 9, 35, 95
10, 257760, Note_off_c, 9, 42, 95
10, 257760, Note_off_c, 9, 35, 95
10, 257760, Note_on_c, 9, 42, 95
10, 258240, Note_off_c, 9, 42, 95
10, 258240, Note_on_c, 9, 42, 95
10, 258240, Note_on_c, 9, 37, 95
10, 258720, Note_off_c, 9, 42, 95
10, 258720, Note_off_c, 9, 37, 95
10, 258720, Note_on_c, 9, 42, 95
10, 258720, Note_on_c, 9, 35, 95
10, 259200, Note_off_c, 9, 42, 95
10, 259200, Note_off_c, 9, 35, 95
10, 259200, Note_on_c, 9, 42, 95
10, 259200, Note_on_c, 9, 35, 95
10, 259680, Note_off_c, 9, 42, 95
10, 259680, Note_off_c, 9, 35, 95
10, 259680, Note_on_c, 9, 42, 95
10, 260160, Note_off_c, 9, 42, 95
10, 260160, Note_on_c, 9, 42, 95
10, 260160, Note_on_c, 9, 37, 95
10, 260640, Note_off_c, 9, 42, 95
10, 260640, Note_off_c, 9, 37, 95
10, 260640, Note_on_c, 9, 42, 95
10, 261120, Note_off_c, 9, 42, 95
10, 261120, Note_on_c, 9, 42, 95
10, 261120, Note_on_c, 9, 35, 95
10, 261600, Note_off_c, 9, 42, 95
10, 261600, Note_off_c, 9, 35, 95
10, 261600, Note_on_c, 9, 42, 95
10, 262080, Note_off_c, 9, 42, 95
10, 262080, Note_on_c, 9, 42, 95
10, 262080, Note_on_c, 9, 37, 95
10, 262560, Note_off_c, 9, 42, 95
10, 262560, Note_off_c, 9, 37, 95
10, 262560, Note_on_c, 9, 42, 95
10, 262560, Note_on_c, 9, 35, 95
10, 263040, Note_off_c, 9, 42, 95
10, 263040, Note_off_c, 9, 35, 95
10, 263040, Note_on_c, 9, 42, 95
10, 263040, Note_on_c, 9, 35, 95
10, 263520, Note_off_c, 9, 42, 95
10, 263520, Note_off_c, 9, 35, 95
10, 263520, Note_on_c, 9, 42, 95
10, 264000, Note_off_c, 9, 42, 95
10, 264000, Note_on_c, 9, 42, 95
10, 264000, Note_on_c, 9, 37, 95
10, 264480, Note_off_c, 9, 42, 95
10, 264480, Note_off_c, 9, 37, 95
10, 264480, Note_on_c, 9, 42, 95
10, 264960, Note_off_c, 9, 42, 95
10, 264960, Note_on_c, 9, 42, 95
10, 264960, Note_on_c, 9, 35, 95
10, 265440, Note_off_c, 9, 42, 95
10, 265440, Note_off_c, 9, 35, 95
10, 265440, Note_on_c, 9, 42, 95
10, 265920, Note_off_c, 9, 42, 95
10, 265920, Note_on_c, 9, 42, 95
10, 265920, Note_on_c, 9, 37, 95
10, 266400, Note_off_c, 9, 42, 95
10, 266400, Note_off_c, 9, 37, 95
10, 266400, Note_on_c, 9, 42, 95
10, 266400, Note_on_c, 9, 35, 95
10, 266880, Note_off_c, 9, 42, 95
10, 266880, Note_off_c, 9, 35, 95
10, 266880, Note_on_c, 9, 42, 95
10, 266880, Note_on_c, 9, 35, 95
10, 267360, Note_off_c, 9, 42, 95
10, 267360, Note_off_c, 9, 35, 95
10, 267360, Note_on_c, 9, 46, 95
10, 267840, Note_off_c, 9, 46, 95
10, 267840, Note_on_c, 9, 38, 95
10, 268320, Note_off_c, 9, 38, 95
10, 268320, Note_on_c, 9, 48, 95
10, 268800, Note_off_c, 9, 48, 95
10, 268800, Note_on_c, 9, 57, 95
10, 268800, Note_on_c, 9, 35, 95
10, 269280, Note_off_c, 9, 57, 95
10, 269280, Note_off_c, 9, 35, 95
10, 269280, Note_on_c, 9, 42, 95
10, 269760, Note_off_c, 9, 42, 95
10, 269760, Note_on_c, 9, 42, 95
10, 269760, Note_on_c, 9, 37, 95
10, 270240, Note_off_c, 9, 42, 95
10, 270240, Note_off_c, 9, 37, 95
10, 270240, Note_on_c, 9, 42, 95
10, 270240, Note_on_c, 9, 35, 95
10, 270720, Note_off_c, 9, 42, 95
10, 270720, Note_off_c, 9, 35, 95
10, 270720, Note_on_c, 9, 42, 95
10, 270720, Note_on_c, 9, 35, 95
10, 271200, Note_off_c, 9, 42, 95
10, 271200, Note_off_c, 9, 35, 95
10, 271200, Note_on_c, 9, 42, 95
10, 271680, Note_off_c, 9, 42, 95
10, 271680, Note_on_c, 9, 42, 95
10, 271680, Note_on_c, 9, 37, 95
10, 272160, Note_off_c, 9, 42, 95
10, 272160, Note_off_c, 9, 37, 95
10, 272160, Note_on_c, 9, 42, 95
10, 272640, Note_off_c, 9, 42, 95
10, 272640, Note_on_c, 9, 42, 95
10, 272640, Note_on_c, 9, 35, 95
10, 273120, Note_off_c, 9, 42, 95
10, 273120, Note_off_c, 9, 35, 95
10, 273120, Note_on_c, 9, 42, 95
10, 273600, Note_off_c, 9, 42, 95
10, 273600, Note_on_c, 9, 42, 95
10, 273600, Note_on_c, 9, 37, 95
10, 274080, Note_off_c, 9, 42, 95
10, 274080, Note_off_c, 9, 37, 95
10, 274080, Note_on_c, 9, 42, 95
10, 274080, Note_on_c, 9, 35, 95
10, 274560, Note_off_c, 9, 42, 95
10, 274560, Note_off_c, 9, 35, 95
10, 274560, Note_on_c, 9, 42, 95
10, 274560, Note_on_c, 9, 35, 95
10, 275040, Note_off_c, 9, 42, 95
10, 275040, Note_off_c, 9, 35, 95
10, 275040, Note_on_c, 9, 42, 95
10, 275520, Note_off_c, 9, 42, 95
10, 275520, Note_on_c, 9, 42, 95
10, 275520, Note_on_c, 9, 37, 95
10, 276000, Note_off_c, 9, 42, 95
10, 276000, Note_off_c, 9, 37, 95
10, 276000, Note_on_c, 9, 42, 95
10, 276480, Note_off_c, 9, 42, 95
10, 276480, Note_on_c, 9, 42, 95
10, 276480, Note_on_c, 9, 35, 95
10, 276960, Note_off_c, 9, 42, 95
10, 276960, Note_off_c, 9, 35, 95
10, 276960, Note_on_c, 9, 42, 95
10, 277440, Note_off_c, 9, 42, 95
10, 277440, Note_on_c, 9, 42, 95
10, 277440, Note_on_c, 9, 37, 95
10, 277920, Note_off_c, 9, 42, 95
10, 277920, Note_off_c, 9, 37, 95
10, 277920, Note_on_c, 9, 42, 95
10, 277920, Note_on_c, 9, 35, 95
10, 278400, Note_off_c, 9, 42, 95
10, 278400, Note_off_c, 9, 35, 95
10, 278400, Note_on_c, 9, 42, 95
10, 278400, Note_on_c, 9, 35, 95
10, 278880, Note_off_c, 9, 42, 95
10, 278880, Note_off_c, 9, 35, 95
10, 278880, Note_on_c, 9, 42, 95
10, 279360, Note_off_c, 9, 42, 95
10, 279360, Note_on_c, 9, 42, 95
10, 279360, Note_on_c, 9, 37, 95
10, 279840, Note_off_c, 9, 42, 95
10, 279840, Note_off_c, 9, 37, 95
10, 279840, Note_on_c, 9, 42, 95
10, 280320, Note_off_c, 9, 42, 95
10, 280320, Note_on_c, 9, 42, 95
10, 280320, Note_on_c, 9, 35, 95
10, 280800, Note_off_c, 9, 42, 95
10, 280800, Note_off_c, 9, 35, 95
10, 280800, Note_on_c, 9, 42, 95
10, 281280, Note_off_c, 9, 42, 95
10, 281280, Note_on_c, 9, 42, 95
10, 281280, Note_on_c, 9, 37, 95
10, 281760, Note_off_c, 9, 42, 95
10, 281760, Note_off_c, 9, 37, 95
10, 281760, Note_on_c, 9, 42, 95
10, 281760, Note_on_c, 9, 35, 95
10, 282240, Note_off_c, 9, 42, 95
10, 282240, Note_off_c, 9, 35, 95
10, 282240, Note_on_c, 9, 42, 95
10, 282240, Note_on_c, 9, 35, 95
10, 282720, Note_off_c, 9, 42, 95
10, 282720, Note_off_c, 9, 35, 95
10, 282720, Note_on_c, 9, 42, 95
10, 283200, Note_off_c, 9, 42, 95
10, 283200, Note_on_c, 9, 42, 95
10, 283200, Note_on_c, 9, 37, 95
10, 283680, Note_off_c, 9, 42, 95
10, 283680, Note_off_c, 9, 37, 95
10, 283680, Note_on_c, 9, 42, 95
10, 284160, Note_off_c, 9, 42, 95
10, 284160, Note_on_c, 9, 42, 95
10, 284160, Note_on_c, 9, 35, 95
10, 284640, Note_off_c, 9, 42, 95
10, 284640, Note_off_c, 9, 35, 95
10, 284640, Note_on_c, 9, 42, 95
10, 285120, Note_off_c, 9, 42, 95
10, 285120, Note_on_c, 9, 42, 95
10, 285120, Note_on_c, 9, 37, 95
10, 285600, Note_off_c, 9, 42, 95
10, 285600, Note_off_c, 9, 37, 95
10, 285600, Note_on_c, 9, 42, 95
10, 285600, Note_on_c, 9, 35, 95
10, 286080, Note_off_c, 9, 42, 95
10, 286080, Note_off_c, 9, 35, 95
10, 286080, Note_on_c, 9, 42, 95
10, 286080, Note_on_c, 9, 35, 95
10, 286560, Note_off_c, 9, 42, 95
10, 286560, Note_off_c, 9, 35, 95
10, 286560, Note_on_c, 9, 42, 95
10, 287040, Note_off_c, 9, 42, 95
10, 287040, Note_on_c, 9, 42, 95
10, 287040, Note_on_c, 9, 37, 95
10, 287520, Note_off_c, 9, 42, 95
10, 287520, Note_off_c, 9, 37, 95
10, 287520, Note_on_c, 9, 42, 95
10, 288000, Note_off_c, 9, 42, 95
10, 288000, Note_on_c, 9, 42, 95
10, 288000, Note_on_c, 9, 35, 95
10, 288480, Note_off_c, 9, 42, 95
10, 288480, Note_off_c, 9, 35, 95
10, 288480, Note_on_c, 9, 42, 95
10, 288960, Note_off_c, 9, 42, 95
10, 288960, Note_on_c, 9, 42, 95
10, 288960, Note_on_c, 9, 37, 95
10, 289440, Note_off_c, 9, 42, 95
10, 289440, Note_off_c, 9, 37, 95
10, 289440, Note_on_c, 9, 42, 95
10, 289440, Note_on_c, 9, 35, 95
10, 289920, Note_off_c, 9, 42, 95
10, 289920, Note_off_c, 9, 35, 95
10, 289920, Note_on_c, 9, 42, 95
10, 289920, Note_on_c, 9, 35, 95
10, 290400, Note_off_c, 9, 42, 95
10, 290400, Note_off_c, 9, 35, 95
10, 290400, Note_on_c, 9, 42, 95
10, 290880, Note_off_c, 9, 42, 95
10, 290880, Note_on_c, 9, 42, 95
10, 290880, Note_on_c, 9, 37, 95
10, 291360, Note_off_c, 9, 42, 95
10, 291360, Note_off_c, 9, 37, 95
10, 291360, Note_on_c, 9, 42, 95
10, 291840, Note_off_c, 9, 42, 95
10, 291840, Note_on_c, 9, 42, 95
10, 291840, Note_on_c, 9, 35, 95
10, 292320, Note_off_c, 9, 42, 95
10, 292320, Note_off_c, 9, 35, 95
10, 292320, Note_on_c, 9, 42, 95
10, 292800, Note_off_c, 9, 42, 95
10, 292800, Note_on_c, 9, 42, 95
10, 292800, Note_on_c, 9, 37, 95
10, 293280, Note_off_c, 9, 42, 95
10, 293280, Note_off_c, 9, 37, 95
10, 293280, Note_on_c, 9, 42, 95
10, 293280, Note_on_c, 9, 35, 95
10, 293760, Note_off_c, 9, 42, 95
10, 293760, Note_off_c, 9, 35, 95
10, 293760, Note_on_c, 9, 42, 95
10, 293760, Note_on_c, 9, 35, 95
10, 294240, Note_off_c, 9, 42, 95
10, 294240, Note_off_c, 9, 35, 95
10, 294240, Note_on_c, 9, 42, 95
10, 294720, Note_off_c, 9, 42, 95
10, 294720, Note_on_c, 9, 42, 95
10, 294720, Note_on_c, 9, 37, 95
10, 295200, Note_off_c, 9, 42, 95
10, 295200, Note_off_c, 9, 37, 95
10, 295200, Note_on_c, 9, 42, 95
10, 295680, Note_off_c, 9, 42, 95
10, 295680, Note_on_c, 9, 42, 95
10, 295680, Note_on_c, 9, 35, 95
10, 296160, Note_off_c, 9, 42, 95
10, 296160, Note_off_c, 9, 35, 95
10, 296160, Note_on_c, 9, 42, 95
10, 296640, Note_off_c, 9, 42, 95
10, 296640, Note_on_c, 9, 42, 95
10, 296640, Note_on_c, 9, 37, 95
10, 297120, Note_off_c, 9, 42, 95
10, 297120, Note_off_c, 9, 37, 95
10, 297120, Note_on_c, 9, 42, 95
10, 297120, Note_on_c, 9, 35, 95
10, 297600, Note_off_c, 9, 42, 95
10, 297600, Note_off_c, 9, 35, 95
10, 297600, Note_on_c, 9, 42, 95
10, 297600, Note_on_c, 9, 35, 95
10, 298080, Note_off_c, 9, 42, 95
10, 298080, Note_off_c, 9, 35, 95
10, 298080, Note_on_c, 9, 42, 95
10, 298560, Note_off_c, 9, 42, 95
10, 298560, Note_on_c, 9, 42, 95
10, 298560, Note_on_c, 9, 37, 95
10, 299040, Note_off_c, 9, 42, 95
10, 299040, Note_off_c, 9, 37, 95
10, 299040, Note_on_c, 9, 42, 95
10, 299520, Note_off_c, 9, 42, 95
10, 299520, Note_on_c, 9, 42, 95
10, 299520, Note_on_c, 9, 35, 95
10, 300000, Note_off_c, 9, 42, 95
10, 300000, Note_off_c, 9, 35, 95
10, 300000, Note_on_c, 9, 42, 95
10, 300480, Note_off_c, 9, 42, 95
10, 300480, Note_on_c, 9, 42, 95
10, 300480, Note_on_c, 9, 37, 95
10, 300960, Note_off_c, 9, 42, 95
10, 300960, Note_off_c, 9, 37, 95
10, 300960, Note_on_c, 9, 42, 95
10, 300960, Note_on_c, 9, 35, 95
10, 301440, Note_off_c, 9, 42, 95
10, 301440, Note_off_c, 9, 35, 95
10, 301440, Note_on_c, 9, 42, 95
10, 301440, Note_on_c, 9, 35, 95
10, 301920, Note_off_c, 9, 42, 95
10, 301920, Note_off_c, 9, 35, 95
10, 301920, Note_on_c, 9, 42, 95
10, 302400, Note_off_c, 9, 42, 95
10, 302400, Note_on_c, 9, 42, 95
10, 302400, Note_on_c, 9, 37, 95
10, 302880, Note_off_c, 9, 42, 95
10, 302880, Note_off_c, 9, 37, 95
10, 302880, Note_on_c, 9, 42, 95
10, 303360, Note_off_c, 9, 42, 95
10, 303360, Note_on_c, 9, 42, 95
10, 303360, Note_on_c, 9, 35, 95
10, 303840, Note_off_c, 9, 42, 95
10, 303840, Note_off_c, 9, 35, 95
10, 303840, Note_on_c, 9, 42, 95
10, 304320, Note_off_c, 9, 42, 95
10, 304320, Note_on_c, 9, 42, 95
10, 304320, Note_on_c, 9, 37, 95
10, 304800, Note_off_c, 9, 42, 95
10, 304800, Note_off_c, 9, 37, 95
10, 304800, Note_on_c, 9, 42, 95
10, 304800, Note_on_c, 9, 35, 95
10, 305280, Note_off_c, 9, 42, 95
10, 305280, Note_off_c, 9, 35, 95
10, 305280, Note_on_c, 9, 42, 95
10, 305280, Note_on_c, 9, 35, 95
10, 305760, Note_off_c, 9, 42, 95
10, 305760, Note_off_c, 9, 35, 95
10, 305760, Note_on_c, 9, 42, 95
10, 306240, Note_off_c, 9, 42, 95
10, 306240, Note_on_c, 9, 42, 95
10, 306240, Note_on_c, 9, 37, 95
10, 306720, Note_off_c, 9, 42, 95
10, 306720, Note_off_c, 9, 37, 95
10, 306720, Note_on_c, 9, 42, 95
10, 307200, Note_off_c, 9, 42, 95
10, 307200, Note_on_c, 9, 42, 95
10, 307200, Note_on_c, 9, 35, 95
10, 307680, Note_off_c, 9, 42, 95
10, 307680, Note_off_c, 9, 35, 95
10, 307680, Note_on_c, 9, 42, 95
10, 308160, Note_off_c, 9, 42, 95
10, 308160, Note_on_c, 9, 42, 95
10, 308160, Note_on_c, 9, 37, 95
10, 308640, Note_off_c, 9, 42, 95
10, 308640, Note_off_c, 9, 37, 95
10, 308640, Note_on_c, 9, 42, 95
10, 308640, Note_on_c, 9, 35, 95
10, 309120, Note_off_c, 9, 42, 95
10, 309120, Note_off_c, 9, 35, 95
10, 309120, Note_on_c, 9, 42, 95
10, 309120, Note_on_c, 9, 35, 95
10, 309600, Note_off_c, 9, 42, 95
10, 309600, Note_off_c, 9, 35, 95
10, 309600, Note_on_c, 9, 42, 95
10, 310080, Note_off_c, 9, 42, 95
10, 310080, Note_on_c, 9, 42, 95
10, 310080, Note_on_c, 9, 37, 95
10, 310560, Note_off_c, 9, 42, 95
10, 310560, Note_off_c, 9, 37, 95
10, 310560, Note_on_c, 9, 42, 95
10, 311040, Note_off_c, 9, 42, 95
10, 311040, Note_on_c, 9, 46, 95
10, 311040, Note_on_c, 9, 35, 95
10, 312000, Note_off_c, 9, 46, 95
10, 312000, Note_off_c, 9, 35, 95
10, 312000, Note_on_c, 9, 46, 95
10, 312000, Note_on_c, 9, 37, 95
10, 312480, Note_off_c, 9, 46, 95
10, 312480, Note_off_c, 9, 37, 95
10, 312480, Note_on_c, 9, 35, 95
10, 312960, Note_off_c, 9, 35, 95
10, 312960, Note_on_c, 9, 46, 95
10, 312960, Note_on_c, 9, 35, 95
10, 313920, Note_off_c, 9, 46, 95
10, 313920, Note_off_c, 9, 35, 95
10, 313920, Note_on_c, 9, 46, 95
10, 313920, Note_on_c, 9, 37, 95
10, 314880, Note_off_c, 9, 46, 95
10, 314880, Note_off_c, 9, 37, 95
10, 314880, Note_on_c, 9, 46, 95
10, 314880, Note_on_c, 9, 35, 95
10, 315840, Note_off_c, 9, 46, 95
10, 315840, Note_off_c, 9, 35, 95
10, 315840, Note_on_c, 9, 46, 95
10, 315840, Note_on_c, 9, 37, 95
10, 316320, Note_off_c, 9, 46, 95
10, 316320, Note_off_c, 9, 37, 95
10, 316320, Note_on_c, 9, 35, 95
10, 316800, Note_off_c, 9, 35, 95
10, 316800, Note_on_c, 9, 46, 95
10, 316800, Note_on_c, 9, 35, 95
10, 317760, Note_off_c, 9, 46, 95
10, 317760, Note_off_c, 9, 35, 95
10, 317760, Note_on_c, 9, 46, 95
10, 317760, Note_on_c, 9, 37, 95
10, 318240, Note_off_c, 9, 46, 95
10, 318240, Note_off_c, 9, 37, 95
10, 318240, Note_on_c, 9, 46, 95
10, 318720, Note_off_c, 9, 46, 95
10, 318720, Note_on_c, 9, 57, 95
10, 318720, Note_on_c, 9, 35, 95
10, 319200, Note_off_c, 9, 57, 95
10, 319200, Note_off_c, 9, 35, 95
10, 319200, Note_on_c, 9, 42, 95
10, 319680, Note_off_c, 9, 42, 95
10, 319680, Note_on_c, 9, 42, 95
10, 319680, Note_on_c, 9, 37, 95
10, 320160, Note_off_c, 9, 42, 95
10, 320160, Note_off_c, 9, 37, 95
10, 320160, Note_on_c, 9, 42, 95
10, 320160, Note_on_c, 9, 35, 95
10, 320640, Note_off_c, 9, 42, 95
10, 320640, Note_off_c, 9, 35, 95
10, 320640, Note_on_c, 9, 42, 95
10, 320640, Note_on_c, 9, 35, 95
10, 321120, Note_off_c, 9, 42, 95
10, 321120, Note_off_c, 9, 35, 95
10, 321120, Note_on_c, 9, 42, 95
10, 321600, Note_off_c, 9, 42, 95
10, 321600, Note_on_c, 9, 42, 95
10, 321600, Note_on_c, 9, 37, 95
10, 322080, Note_off_c, 9, 42, 95
10, 322080, Note_off_c, 9, 37, 95
10, 322080, Note_on_c, 9, 42, 95
10, 322560, Note_off_c, 9, 42, 95
10, 322560, Note_on_c, 9, 42, 95
10, 322560, Note_on_c, 9, 35, 95
10, 323040, Note_off_c, 9, 42, 95
10, 323040, Note_off_c, 9, 35, 95
10, 323040, Note_on_c, 9, 42, 95
10, 323520, Note_off_c, 9, 42, 95
10, 323520, Note_on_c, 9, 42, 95
10, 323520, Note_on_c, 9, 37, 95
10, 324000, Note_off_c, 9, 42, 95
10, 324000, Note_off_c, 9, 37, 95
10, 324000, Note_on_c, 9, 42, 95
10, 324000, Note_on_c, 9, 35, 95
10, 324480, Note_off_c, 9, 42, 95
10, 324480, Note_off_c, 9, 35, 95
10, 324480, Note_on_c, 9, 42, 95
10, 324480, Note_on_c, 9, 35, 95
10, 324960, Note_off_c, 9, 42, 95
10, 324960, Note_off_c, 9, 35, 95
10, 324960, Note_on_c, 9, 42, 95
10, 325440, Note_off_c, 9, 42, 95
10, 325440, Note_on_c, 9, 42, 95
10, 325440, Note_on_c, 9, 37, 95
10, 325920, Note_off_c, 9, 42, 95
10, 325920, Note_off_c, 9, 37, 95
10, 325920, Note_on_c, 9, 42, 95
10, 326400, Note_off_c, 9, 42, 95
10, 326400, Note_on_c, 9, 42, 95
10, 326400, Note_on_c, 9, 35, 95
10, 326880, Note_off_c, 9, 42, 95
10, 326880, Note_off_c, 9, 35, 95
10, 326880, Note_on_c, 9, 42, 95
10, 327360, Note_off_c, 9, 42, 95
10, 327360, Note_on_c, 9, 42, 95
10, 327360, Note_on_c, 9, 37, 95
10, 327840, Note_off_c, 9, 42, 95
10, 327840, Note_off_c, 9, 37, 95
10, 327840, Note_on_c, 9, 42, 95
10, 327840, Note_on_c, 9, 35, 95
10, 328320, Note_off_c, 9, 42, 95
10, 328320, Note_off_c, 9, 35, 95
10, 328320, Note_on_c, 9, 42, 95
10, 328320, Note_on_c, 9, 35, 95
10, 328800, Note_off_c, 9, 42, 95
10, 328800, Note_off_c, 9, 35, 95
10, 328800, Note_on_c, 9, 42, 95
10, 329280, Note_off_c, 9, 42, 95
10, 329280, Note_on_c, 9, 42, 95
10, 329280, Note_on_c, 9, 37, 95
10, 329760, Note_off_c, 9, 42, 95
10, 329760, Note_off_c, 9, 37, 95
10, 329760, Note_on_c, 9, 42, 95
10, 330240, Note_off_c, 9, 42, 95
10, 330240, Note_on_c, 9, 42, 95
10, 330240, Note_on_c, 9, 35, 95
10, 330720, Note_off_c, 9, 42, 95
10, 330720, Note_off_c, 9, 35, 95
10, 330720, Note_on_c, 9, 42, 95
10, 331200, Note_off_c, 9, 42, 95
10, 331200, Note_on_c, 9, 42, 95
10, 331200, Note_on_c, 9, 37, 95
10, 331680, Note_off_c, 9, 42, 95
10, 331680, Note_off_c, 9, 37, 95
10, 331680, Note_on_c, 9, 42, 95
10, 331680, Note_on_c, 9, 35, 95
10, 332160, Note_off_c, 9, 42, 95
10, 332160, Note_off_c, 9, 35, 95
10, 332160, Note_on_c, 9, 42, 95
10, 332160, Note_on_c, 9, 35, 95
10, 332640, Note_off_c, 9, 42, 95
10, 332640, Note_off_c, 9, 35, 95
10, 332640, Note_on_c, 9, 42, 95
10, 333120, Note_off_c, 9, 42, 95
10, 333120, Note_on_c, 9, 42, 95
10, 333120, Note_on_c, 9, 37, 95
10, 333600, Note_off_c, 9, 42, 95
10, 333600, Note_off_c, 9, 37, 95
10, 333600, Note_on_c, 9, 42, 95
10, 334080, Note_off_c, 9, 42, 95
10, 334080, Note_on_c, 9, 42, 95
10, 334080, Note_on_c, 9, 35, 95
10, 334560, Note_off_c, 9, 42, 95
10, 334560, Note_off_c, 9, 35, 95
10, 334560, Note_on_c, 9, 42, 95
10, 335040, Note_off_c, 9, 42, 95
10, 335040, Note_on_c, 9, 42, 95
10, 335040, Note_on_c, 9, 37, 95
10, 335520, Note_off_c, 9, 42, 95
10, 335520, Note_off_c, 9, 37, 95
10, 335520, Note_on_c, 9, 42, 95
10, 335520, Note_on_c, 9, 35, 95
10, 336000, Note_off_c, 9, 42, 95
10, 336000, Note_off_c, 9, 35, 95
10, 336000, Note_on_c, 9, 42, 95
10, 336000, Note_on_c, 9, 35, 95
10, 336480, Note_off_c, 9, 42, 95
10, 336480, Note_off_c, 9, 35, 95
10, 336480, Note_on_c, 9, 42, 95
10, 336960, Note_off_c, 9, 42, 95
10, 336960, Note_on_c, 9, 42, 95
10, 336960, Note_on_c, 9, 37, 95
10, 337440, Note_off_c, 9, 42, 95
10, 337440, Note_off_c, 9, 37, 95
10, 337440, Note_on_c, 9, 42, 95
10, 337920, Note_off_c, 9, 42, 95
10, 337920, Note_on_c, 9, 42, 95
10, 337920, Note_on_c, 9, 35, 95
10, 338400, Note_off_c, 9, 42, 95
10, 338400, Note_off_c, 9, 35, 95
10, 338400, Note_on_c, 9, 42, 95
10, 338880, Note_off_c, 9, 42, 95
10, 338880, Note_on_c, 9, 42, 95
10, 338880, Note_on_c, 9, 37, 95
10, 339360, Note_off_c, 9, 42, 95
10, 339360, Note_off_c, 9, 37, 95
10, 339360, Note_on_c, 9, 42, 95
10, 339360, Note_on_c, 9, 35, 95
10, 339840, Note_off_c, 9, 42, 95
10, 339840, Note_off_c, 9, 35, 95
10, 339840, Note_on_c, 9, 42, 95
10, 339840, Note_on_c, 9, 35, 95
10, 340320, Note_off_c, 9, 42, 95
10, 340320, Note_off_c, 9, 35, 95
10, 340320, Note_on_c, 9, 42, 95
10, 340800, Note_off_c, 9, 42, 95
10, 340800, Note_on_c, 9, 42, 95
10, 340800, Note_on_c, 9, 37, 95
10, 341280, Note_off_c, 9, 42, 95
10, 341280, Note_off_c, 9, 37, 95
10, 341280, Note_on_c, 9, 42, 95
10, 341760, Note_off_c, 9, 42, 95
10, 341760, Note_on_c, 9, 42, 95
10, 341760, Note_on_c, 9, 35, 95
10, 342240, Note_off_c, 9, 42, 95
10, 342240, Note_off_c, 9, 35, 95
10, 342240, Note_on_c, 9, 42, 95
10, 342720, Note_off_c, 9, 42, 95
10, 342720, Note_on_c, 9, 42, 95
10, 342720, Note_on_c, 9, 37, 95
10, 343200, Note_off_c, 9, 42, 95
10, 343200, Note_off_c, 9, 37, 95
10, 343200, Note_on_c, 9, 42, 95
10, 343200, Note_on_c, 9, 35, 95
10, 343680, Note_off_c, 9, 42, 95
10, 343680, Note_off_c, 9, 35, 95
10, 343680, Note_on_c, 9, 42, 95
10, 343680, Note_on_c, 9, 35, 95
10, 344160, Note_off_c, 9, 42, 95
10, 344160, Note_off_c, 9, 35, 95
10, 344160, Note_on_c, 9, 42, 95
10, 344640, Note_off_c, 9, 42, 95
10, 344640, Note_on_c, 9, 42, 95
10, 344640, Note_on_c, 9, 37, 95
10, 345120, Note_off_c, 9, 42, 95
10, 345120, Note_off_c, 9, 37, 95
10, 345120, Note_on_c, 9, 42, 95
10, 345600, Note_off_c, 9, 42, 95
10, 345600, Note_on_c, 9, 42, 95
10, 345600, Note_on_c, 9, 35, 95
10, 346080, Note_off_c, 9, 42, 95
10, 346080, Note_off_c, 9, 35, 95
10, 346080, Note_on_c, 9, 42, 95
10, 346560, Note_off_c, 9, 42, 95
10, 346560, Note_on_c, 9, 42, 95
10, 346560, Note_on_c, 9, 37, 95
10, 347040, Note_off_c, 9, 42, 95
10, 347040, Note_off_c, 9, 37, 95
10, 347040, Note_on_c, 9, 42, 95
10, 347040, Note_on_c, 9, 35, 95
10, 347520, Note_off_c, 9, 42, 95
10, 347520, Note_off_c, 9, 35, 95
10, 347520, Note_on_c, 9, 42, 95
10, 347520, Note_on_c, 9, 35, 95
10, 348000, Note_off_c, 9, 42, 95
10, 348000, Note_off_c, 9, 35, 95
10, 348000, Note_on_c, 9, 42, 95
10, 348480, Note_off_c, 9, 42, 95
10, 348480, Note_on_c, 9, 42, 95
10, 348480, Note_on_c, 9, 37, 95
10, 348960, Note_off_c, 9, 42, 95
10, 348960, Note_off_c, 9, 37, 95
10, 348960, Note_on_c, 9, 42, 95
10, 349440, Note_off_c, 9, 42, 95
10, 349440, Note_on_c, 9, 42, 95
10, 349440, Note_on_c, 9, 35, 95
10, 349920, Note_off_c, 9, 42, 95
10, 349920, Note_off_c, 9, 35, 95
10, 349920, Note_on_c, 9, 42, 95
10, 350400, Note_off_c, 9, 42, 95
10, 350400, Note_on_c, 9, 42, 95
10, 350400, Note_on_c, 9, 37, 95
10, 350880, Note_off_c, 9, 42, 95
10, 350880, Note_off_c, 9, 37, 95
10, 350880, Note_on_c, 9, 42, 95
10, 350880, Note_on_c, 9, 35, 95
10, 351360, Note_off_c, 9, 42, 95
10, 351360, Note_off_c, 9, 35, 95
10, 351360, Note_on_c, 9, 42, 95
10, 351360, Note_on_c, 9, 35, 95
10, 351840, Note_off_c, 9, 42, 95
10, 351840, Note_off_c, 9, 35, 95
10, 351840, Note_on_c, 9, 42, 95
10, 352320, Note_off_c, 9, 42, 95
10, 352320, Note_on_c, 9, 42, 95
10, 352320, Note_on_c, 9, 37, 95
10, 352800, Note_off_c, 9, 42, 95
10, 352800, Note_off_c, 9, 37, 95
10, 352800, Note_on_c, 9, 42, 95
10, 353280, Note_off_c, 9, 42, 95
10, 353280, Note_on_c, 9, 42, 95
10, 353280, Note_on_c, 9, 35, 95
10, 353760, Note_off_c, 9, 42, 95
10, 353760, Note_off_c, 9, 35, 95
10, 353760, Note_on_c, 9, 42, 95
10, 354240, Note_off_c, 9, 42, 95
10, 354240, Note_on_c, 9, 42, 95
10, 354240, Note_on_c, 9, 37, 95
10, 354720, Note_off_c, 9, 42, 95
10, 354720, Note_off_c, 9, 37, 95
10, 354720, Note_on_c, 9, 42, 95
10, 354720, Note_on_c, 9, 35, 95
10, 355200, Note_off_c, 9, 42, 95
10, 355200, Note_off_c, 9, 35, 95
10, 355200, Note_on_c, 9, 42, 95
10, 355200, Note_on_c, 9, 35, 95
10, 355680, Note_off_c, 9, 42, 95
10, 355680, Note_off_c, 9, 35, 95
10, 355680, Note_on_c, 9, 42, 95
10, 356160, Note_off_c, 9, 42, 95
10, 356160, Note_on_c, 9, 42, 95
10, 356160, Note_on_c, 9, 37, 95
10, 356640, Note_off_c, 9, 42, 95
10, 356640, Note_off_c, 9, 37, 95
10, 356640, Note_on_c, 9, 42, 95
10, 357120, Note_off_c, 9, 42, 95
10, 357120, Note_on_c, 9, 42, 95
10, 357120, Note_on_c, 9, 35, 95
10, 357600, Note_off_c, 9, 42, 95
10, 357600, Note_off_c, 9, 35, 95
10, 357600, Note_on_c, 9, 42, 95
10, 358080, Note_off_c, 9, 42, 95
10, 358080, Note_on_c, 9, 42, 95
10, 358080, Note_on_c, 9, 37, 95
10, 358560, Note_off_c, 9, 42, 95
10, 358560, Note_off_c, 9, 37, 95
10, 358560, Note_on_c, 9, 42, 95
10, 358560, Note_on_c, 9, 35, 95
10, 359040, Note_off_c, 9, 42, 95
10, 359040, Note_off_c, 9, 35, 95
10, 359040, Note_on_c, 9, 42, 95
10, 359040, Note_on_c, 9, 35, 95
10, 359520, Note_off_c, 9, 42, 95
10, 359520, Note_off_c, 9, 35, 95
10, 359520, Note_on_c, 9, 42, 95
10, 360000, Note_off_c, 9, 42, 95
10, 360000, Note_on_c, 9, 42, 95
10, 360000, Note_on_c, 9, 37, 95
10, 360480, Note_off_c, 9, 42, 95
10, 360480, Note_off_c, 9, 37, 95
10, 360480, Note_on_c, 9, 42, 95
10, 360960, Note_off_c, 9, 42, 95
10, 360960, Note_on_c, 9, 46, 95
10, 360960, Note_on_c, 9, 35, 95
10, 361920, Note_off_c, 9, 46, 95
10, 361920, Note_off_c, 9, 35, 95
10, 361920, Note_on_c, 9, 46, 95
10, 361920, Note_on_c, 9, 37, 95
10, 362400, Note_off_c, 9, 46, 95
10, 362400, Note_off_c, 9, 37, 95
10, 362400, Note_on_c, 9, 35, 95
10, 362880, Note_off_c, 9, 35, 95
10, 362880, Note_on_c, 9, 46, 95
10, 362880, Note_on_c, 9, 35, 95
10, 363840, Note_off_c, 9, 46, 95
10, 363840, Note_off_c, 9, 35, 95
10, 363840, Note_on_c, 9, 46, 95
10, 363840, Note_on_c, 9, 37, 95
10, 364800, Note_off_c, 9, 46, 95
10, 364800, Note_off_c, 9, 37, 95
10, 364800, Note_on_c, 9, 46, 95
10, 364800, Note_on_c, 9, 35, 95
10, 365760, Note_off_c, 9, 46, 95
10, 365760, Note_off_c, 9, 35, 95
10, 365760, Note_on_c, 9, 46, 95
10, 365760, Note_on_c, 9, 37, 95
10, 366240, Note_off_c, 9, 46, 95
10, 366240, Note_off_c, 9, 37, 95
10, 366240, Note_on_c, 9, 35, 95
10, 366720, Note_off_c, 9, 35, 95
10, 366720, Note_on_c, 9, 46, 95
10, 366720, Note_on_c, 9, 35, 95
10, 367680, Note_off_c, 9, 46, 95
10, 367680, Note_off_c, 9, 35, 95
10, 367680, Note_on_c, 9, 46, 95
10, 367680, Note_on_c, 9, 37, 95
10, 368160, Note_off_c, 9, 46, 95
10, 368160, Note_off_c, 9, 37, 95
10, 368160, Note_on_c, 9, 46, 95
10, 368640, Note_off_c, 9, 46, 95
10, 368640, End_track
0, 0, End_of_file
