0, 0, Header, 0, 1, 192
1, 0, Start_track
1, 0, Sequencer_specific, 13, 5, 15, 28, 50, 48, 48, 50, 46, 48, 54, 46, 48, 51
1, 0, Sequencer_specific, 5, 5, 15, 9, 64, 72
1, 0, Sequencer_specific, 15, 5, 15, 6, 71, 101, 110, 101, 114, 97, 108, 32, 77, 73, 68, 73
1, 0, Sequencer_specific, 8, 5, 15, 18, 0, 0, 127, 127, 0
1, 0, Tempo, 697674
1, 0, Time_signature, 4, 2, 24, 8
1, 0, Note_on_c, 9, 42, 110
1, 0, System_exclusive, 5, 126, 127, 9, 1, 247
1, 0, Copyright_t, "MMC-DEMO  All rights reserved by GEERDES midisystems Berlin !\000"
1, 6, System_exclusive, 10, 65, 16, 66, 18, 64, 1, 52, 93, 46, 247
1, 12, System_exclusive, 25, 65, 16, 66, 18, 64, 1, 16, 2, 0, 2, 2, 2, 2, 2, 2, 2, 1, 1, 1, 1, 1, 0, 0, 26, 247
1, 13, Note_off_c, 9, 42, 0
1, 18, System_exclusive, 38, 65, 16, 69, 18, 16, 0, 0, 40, 99, 41, 32, 49, 57, 57, 56, 32, 98, 121, 32, 71, 69, 69, 82, 68, 69, 83, 32, 109, 105, 100, 105, 109, 117, 115, 105, 99, 67, 247
1, 146, Control_c, 1, 121, 0
1, 148, Control_c, 2, 121, 0
1, 150, Control_c, 3, 121, 0
1, 152, Control_c, 4, 121, 0
1, 154, Control_c, 5, 121, 0
1, 156, Control_c, 6, 121, 0
1, 158, Control_c, 7, 121, 0
1, 160, Control_c, 8, 121, 0
1, 162, Control_c, 9, 121, 0
1, 164, Control_c, 10, 121, 0
1, 166, Control_c, 11, 121, 0
1, 168, Control_c, 12, 121, 0
1, 170, Control_c, 13, 121, 0
1, 172, Control_c, 14, 121, 0
1, 192, Note_on_c, 9, 42, 90
1, 207, Note_off_c, 9, 42, 0
1, 214, Program_c, 1, 35
1, 220, Control_c, 1, 11, 127
1, 222, Control_c, 1, 91, 12
1, 224, Control_c, 1, 93, 28
1, 230, Program_c, 2, 5
1, 236, Control_c, 2, 11, 127
1, 238, Control_c, 2, 91, 59
1, 240, Control_c, 2, 93, 77
1, 246, Program_c, 3, 60
1, 252, Control_c, 3, 11, 127
1, 254, Control_c, 3, 91, 67
1, 256, Control_c, 3, 93, 45
1, 262, Program_c, 4, 52
1, 268, Control_c, 4, 11, 127
1, 270, Control_c, 4, 91, 61
1, 272, Control_c, 4, 93, 64
1, 278, Program_c, 5, 51
1, 284, Control_c, 5, 11, 127
1, 286, Control_c, 5, 91, 64
1, 288, Control_c, 5, 93, 48
1, 294, Program_c, 6, 48
1, 300, Control_c, 6, 11, 127
1, 302, Control_c, 6, 91, 67
1, 304, Control_c, 6, 93, 47
1, 310, Program_c, 7, 24
1, 316, Control_c, 7, 11, 127
1, 318, Control_c, 7, 91, 67
1, 320, Control_c, 7, 93, 56
1, 326, Program_c, 8, 58
1, 332, Control_c, 8, 11, 127
1, 334, Control_c, 8, 91, 52
1, 336, Control_c, 8, 93, 50
1, 342, Program_c, 9, 0
1, 348, Control_c, 9, 11, 127
1, 350, Control_c, 9, 91, 20
1, 352, Control_c, 9, 93, 0
1, 358, Program_c, 10, 73
1, 364, Control_c, 10, 11, 127
1, 366, Control_c, 10, 91, 60
1, 368, Control_c, 10, 93, 53
1, 374, Program_c, 11, 102
1, 380, Control_c, 11, 11, 127
1, 382, Control_c, 11, 91, 52
1, 384, Note_on_c, 9, 42, 90
1, 384, Control_c, 11, 93, 58
1, 390, Program_c, 12, 121
1, 396, Control_c, 12, 11, 127
1, 398, Control_c, 12, 91, 67
1, 399, Note_off_c, 9, 42, 0
1, 400, Control_c, 12, 93, 120
1, 406, Program_c, 13, 82
1, 412, Control_c, 13, 11, 127
1, 414, Control_c, 13, 91, 57
1, 416, Control_c, 13, 93, 52
1, 422, Program_c, 14, 119
1, 428, Control_c, 14, 11, 127
1, 430, Control_c, 14, 91, 57
1, 432, Control_c, 14, 93, 52
1, 576, Note_on_c, 9, 42, 90
1, 590, Note_off_c, 9, 42, 0
1, 768, Note_on_c, 9, 36, 109
1, 768, Note_on_c, 9, 69, 74
1, 789, Note_off_c, 9, 69, 0
1, 816, Note_on_c, 9, 70, 67
1, 832, Note_off_c, 9, 70, 0
1, 960, Note_on_c, 9, 70, 82
1, 978, Note_off_c, 9, 70, 0
1, 1058, Note_off_c, 9, 36, 0
1, 1104, Note_on_c, 9, 70, 60
1, 1120, Note_off_c, 9, 70, 0
1, 1152, Note_on_c, 9, 42, 109
1, 1152, Note_on_c, 9, 70, 66
1, 1152, Note_on_c, 14, 44, 104
1, 1169, Note_off_c, 9, 70, 0
1, 1177, Note_off_c, 9, 42, 0
1, 1200, Note_on_c, 9, 70, 82
1, 1216, Note_off_c, 9, 70, 0
1, 1248, Note_on_c, 9, 70, 80
1, 1264, Note_off_c, 9, 70, 0
1, 1296, Note_on_c, 9, 70, 88
1, 1312, Note_off_c, 9, 70, 0
1, 1344, Note_on_c, 9, 42, 124
1, 1344, Note_on_c, 9, 70, 91
1, 1362, Note_off_c, 9, 70, 0
1, 1366, Note_off_c, 9, 42, 0
1, 1392, Note_on_c, 9, 70, 95
1, 1408, Note_off_c, 9, 70, 0
1, 1440, Note_on_c, 3, 70, 124
1, 1481, Note_off_c, 14, 44, 0
1, 1536, Note_on_c, 9, 36, 119
1, 1536, Note_on_c, 9, 42, 114
1, 1536, Note_on_c, 9, 57, 76
1, 1536, Note_on_c, 9, 69, 68
1, 1536, Note_on_c, 1, 27, 127
1, 1536, Note_on_c, 2, 61, 61
1, 1536, Note_on_c, 2, 63, 66
1, 1536, Note_on_c, 2, 66, 73
1, 1536, Note_on_c, 2, 70, 68
1, 1536, Note_on_c, 5, 58, 57
1, 1536, Note_on_c, 5, 61, 33
1, 1536, Note_on_c, 5, 63, 43
1, 1536, Note_on_c, 5, 66, 53
1, 1536, Note_on_c, 7, 70, 109
1, 1555, Note_off_c, 9, 69, 0
1, 1557, Note_off_c, 9, 36, 0
1, 1558, Note_off_c, 1, 27, 0
1, 1560, Note_on_c, 7, 68, 91
1, 1562, Note_off_c, 9, 42, 0
1, 1574, Note_off_c, 7, 70, 0
1, 1582, Note_off_c, 7, 68, 0
1, 1584, Note_on_c, 9, 36, 86
1, 1584, Note_on_c, 9, 42, 80
1, 1584, Note_on_c, 9, 69, 63
1, 1584, Note_on_c, 1, 27, 124
1, 1584, Note_on_c, 7, 70, 114
1, 1605, Note_off_c, 9, 69, 0
1, 1610, Note_off_c, 9, 36, 0
1, 1625, Note_off_c, 9, 42, 0
1, 1632, Note_on_c, 8, 54, 95
1, 1649, Note_off_c, 1, 27, 0
1, 1659, Note_off_c, 8, 54, 0
1, 1728, Note_on_c, 9, 40, 124
1, 1728, Note_on_c, 9, 42, 104
1, 1728, Note_on_c, 9, 69, 62
1, 1728, Note_on_c, 1, 27, 124
1, 1733, Note_off_c, 9, 57, 0
1, 1746, Note_off_c, 9, 40, 0
1, 1750, Note_off_c, 9, 69, 0
1, 1765, Note_off_c, 9, 42, 0
1, 1776, Note_on_c, 8, 53, 95
1, 1804, Note_off_c, 8, 53, 0
1, 1824, Note_on_c, 9, 42, 82
1, 1849, Note_off_c, 9, 42, 0
1, 1856, Note_off_c, 1, 27, 0
1, 1872, Note_on_c, 9, 42, 66
1, 1872, Note_on_c, 9, 69, 70
1, 1895, Note_off_c, 9, 69, 0
1, 1898, Note_off_c, 3, 70, 0
1, 1899, Note_off_c, 9, 42, 0
1, 1920, Note_on_c, 3, 68, 109
1, 1920, Note_on_c, 8, 51, 91
1, 1956, Note_off_c, 8, 51, 0
1, 1968, Note_on_c, 9, 69, 71
1, 1968, Note_on_c, 3, 66, 104
1, 1970, Note_off_c, 3, 68, 0
1, 1989, Note_off_c, 9, 69, 0
1, 2007, Note_off_c, 3, 66, 0
1, 2016, Note_on_c, 9, 42, 82
1, 2016, Note_on_c, 3, 63, 104
1, 2043, Note_off_c, 9, 42, 0
1, 2064, Note_on_c, 8, 49, 88
1, 2074, Note_off_c, 2, 63, 0
1, 2076, Note_off_c, 2, 61, 0
1, 2076, Note_off_c, 2, 66, 0
1, 2081, Note_off_c, 2, 70, 0
1, 2088, Note_off_c, 7, 70, 0
1, 2094, Note_off_c, 3, 63, 0
1, 2097, Note_off_c, 8, 49, 0
1, 2112, Note_on_c, 9, 40, 124
1, 2112, Note_on_c, 9, 42, 104
1, 2112, Note_on_c, 9, 69, 74
1, 2112, Note_on_c, 2, 58, 74
1, 2112, Note_on_c, 2, 61, 60
1, 2112, Note_on_c, 2, 63, 78
1, 2112, Note_on_c, 2, 66, 63
1, 2112, Note_on_c, 3, 63, 114
1, 2112, Note_on_c, 7, 63, 114
1, 2130, Note_off_c, 9, 69, 0
1, 2133, Note_off_c, 9, 40, 0
1, 2145, Note_off_c, 9, 42, 0
1, 2160, Note_on_c, 1, 27, 95
1, 2160, Note_on_c, 7, 65, 104
1, 2164, Note_off_c, 7, 63, 0
1, 2208, Note_on_c, 9, 42, 80
1, 2208, Note_on_c, 7, 66, 104
1, 2208, Note_on_c, 8, 51, 91
1, 2212, Note_off_c, 7, 65, 0
1, 2233, Note_off_c, 9, 42, 0
1, 2234, Note_off_c, 8, 51, 0
1, 2246, Note_off_c, 7, 66, 0
1, 2256, Note_on_c, 9, 42, 66
1, 2256, Note_on_c, 7, 68, 82
1, 2263, Note_off_c, 5, 61, 0
1, 2263, Note_off_c, 5, 66, 0
1, 2267, Note_off_c, 5, 63, 0
1, 2270, Note_off_c, 1, 27, 0
1, 2270, Note_off_c, 2, 66, 0
1, 2272, Note_off_c, 5, 58, 0
1, 2274, Note_off_c, 2, 61, 0
1, 2275, Note_off_c, 2, 63, 0
1, 2276, Note_off_c, 9, 42, 0
1, 2281, Note_off_c, 7, 68, 0
1, 2299, Note_off_c, 2, 58, 0
1, 2304, Note_on_c, 9, 36, 122
1, 2304, Note_on_c, 9, 42, 88
1, 2304, Note_on_c, 9, 69, 68
1, 2304, Note_on_c, 1, 25, 114
1, 2304, Note_on_c, 2, 61, 66
1, 2304, Note_on_c, 2, 65, 63
1, 2304, Note_on_c, 2, 68, 73
1, 2304, Note_on_c, 5, 56, 66
1, 2304, Note_on_c, 5, 61, 48
1, 2304, Note_on_c, 5, 65, 62
1, 2304, Note_on_c, 7, 68, 114
1, 2304, Note_on_c, 8, 49, 88
1, 2323, Note_off_c, 9, 69, 0
1, 2324, Note_off_c, 1, 25, 0
1, 2325, Note_off_c, 9, 36, 0
1, 2331, Note_off_c, 9, 42, 0
1, 2334, Note_off_c, 8, 49, 0
1, 2352, Note_on_c, 9, 36, 115
1, 2352, Note_on_c, 9, 42, 91
1, 2352, Note_on_c, 9, 69, 63
1, 2352, Note_on_c, 1, 25, 109
1, 2373, Note_off_c, 9, 69, 0
1, 2375, Note_off_c, 9, 36, 0
1, 2380, Note_off_c, 9, 42, 0
1, 2400, Note_on_c, 7, 61, 109
1, 2400, Note_on_c, 8, 51, 95
1, 2409, Note_off_c, 7, 68, 0
1, 2420, Note_off_c, 1, 25, 0
1, 2421, Note_off_c, 7, 61, 0
1, 2439, Note_off_c, 8, 51, 0
1, 2448, Note_on_c, 7, 61, 104
1, 2448, Note_on_c, 8, 49, 73
1, 2472, Note_off_c, 8, 49, 0
1, 2496, Note_on_c, 9, 40, 124
1, 2496, Note_on_c, 9, 42, 104
1, 2496, Note_on_c, 9, 69, 62
1, 2496, Note_on_c, 1, 25, 124
1, 2496, Note_on_c, 8, 53, 98
1, 2498, Note_off_c, 3, 63, 0
1, 2514, Note_off_c, 9, 40, 0
1, 2518, Note_off_c, 9, 69, 0
1, 2530, Note_off_c, 8, 53, 0
1, 2533, Note_off_c, 9, 42, 0
1, 2591, Note_off_c, 1, 25, 0
1, 2592, Note_on_c, 9, 36, 119
1, 2592, Note_on_c, 9, 42, 82
1, 2592, Note_on_c, 8, 51, 91
1, 2608, Note_off_c, 9, 36, 0
1, 2621, Note_off_c, 9, 42, 0
1, 2638, Note_off_c, 8, 51, 0
1, 2640, Note_on_c, 9, 36, 115
1, 2640, Note_on_c, 9, 42, 64
1, 2640, Note_on_c, 9, 69, 70
1, 2640, Note_on_c, 8, 49, 82
1, 2658, Note_off_c, 9, 36, 0
1, 2663, Note_off_c, 9, 69, 0
1, 2675, Note_off_c, 9, 42, 0
1, 2718, Note_off_c, 8, 49, 0
1, 2736, Note_on_c, 9, 36, 115
1, 2736, Note_on_c, 9, 40, 118
1, 2736, Note_on_c, 9, 42, 91
1, 2736, Note_on_c, 9, 69, 71
1, 2752, Note_off_c, 9, 36, 0
1, 2754, Note_off_c, 9, 40, 0
1, 2757, Note_off_c, 9, 69, 0
1, 2772, Note_off_c, 9, 42, 0
1, 2832, Note_on_c, 9, 42, 91
1, 2847, Note_off_c, 2, 61, 0
1, 2849, Note_off_c, 2, 68, 0
1, 2850, Note_off_c, 2, 65, 0
1, 2858, Note_off_c, 9, 42, 0
1, 2880, Note_on_c, 9, 42, 88
1, 2880, Note_on_c, 9, 69, 74
1, 2880, Note_on_c, 2, 56, 82
1, 2880, Note_on_c, 2, 61, 74
1, 2880, Note_on_c, 2, 65, 64
1, 2880, Note_on_c, 3, 63, 114
1, 2898, Note_off_c, 9, 69, 0
1, 2928, Note_on_c, 1, 37, 91
1, 2928, Note_on_c, 3, 61, 91
1, 2932, Note_off_c, 9, 42, 0
1, 2941, Note_off_c, 3, 63, 0
1, 2967, Note_off_c, 3, 61, 0
1, 2976, Note_on_c, 9, 42, 91
1, 2976, Note_on_c, 3, 59, 98
1, 2976, Note_on_c, 8, 49, 104
1, 3005, Note_off_c, 9, 42, 0
1, 3013, Note_off_c, 5, 65, 0
1, 3013, Note_off_c, 8, 49, 0
1, 3017, Note_off_c, 5, 56, 0
1, 3018, Note_off_c, 7, 61, 0
1, 3021, Note_off_c, 5, 61, 0
1, 3024, Note_on_c, 9, 42, 74
1, 3024, Note_on_c, 8, 51, 80
1, 3029, Note_off_c, 2, 65, 0
1, 3030, Note_off_c, 3, 59, 0
1, 3034, Note_off_c, 2, 61, 0
1, 3041, Note_off_c, 8, 51, 0
1, 3042, Note_off_c, 2, 56, 0
1, 3051, Note_off_c, 9, 42, 0
1, 3071, Note_off_c, 1, 37, 0
1, 3072, Note_on_c, 9, 36, 122
1, 3072, Note_on_c, 9, 42, 91
1, 3072, Note_on_c, 9, 69, 68
1, 3072, Note_on_c, 1, 35, 109
1, 3072, Note_on_c, 2, 54, 71
1, 3072, Note_on_c, 2, 61, 63
1, 3072, Note_on_c, 2, 63, 68
1, 3072, Note_on_c, 2, 66, 71
1, 3072, Note_on_c, 3, 58, 124
1, 3072, Note_on_c, 5, 54, 68
1, 3072, Note_on_c, 5, 61, 61
1, 3072, Note_on_c, 5, 63, 56
1, 3072, Note_on_c, 5, 66, 57
1, 3072, Note_on_c, 7, 54, 109
1, 3072, Note_on_c, 8, 51, 104
1, 3091, Note_off_c, 9, 36, 0
1, 3091, Note_off_c, 9, 69, 0
1, 3098, Note_off_c, 1, 35, 0
1, 3118, Note_off_c, 9, 42, 0
1, 3120, Note_on_c, 9, 36, 93
1, 3120, Note_on_c, 9, 69, 63
1, 3120, Note_on_c, 1, 35, 120
1, 3120, Note_on_c, 8, 49, 88
1, 3126, Note_off_c, 8, 51, 0
1, 3136, Note_off_c, 9, 36, 0
1, 3141, Note_off_c, 9, 69, 0
1, 3156, Note_off_c, 8, 49, 0
1, 3168, Note_on_c, 9, 42, 91
1, 3168, Note_on_c, 3, 56, 104
1, 3168, Note_on_c, 8, 47, 95
1, 3177, Note_off_c, 3, 58, 0
1, 3182, Note_off_c, 1, 35, 0
1, 3193, Note_off_c, 9, 42, 0
1, 3204, Note_off_c, 3, 56, 0
1, 3205, Note_off_c, 7, 54, 0
1, 3216, Note_on_c, 9, 42, 63
1, 3216, Note_on_c, 3, 54, 104
1, 3216, Note_on_c, 7, 61, 109
1, 3230, Note_off_c, 8, 47, 0
1, 3235, Note_off_c, 7, 61, 0
1, 3240, Note_on_c, 7, 63, 124
1, 3243, Note_off_c, 9, 42, 0
1, 3244, Note_off_c, 3, 54, 0
1, 3264, Note_on_c, 9, 40, 124
1, 3264, Note_on_c, 9, 42, 80
1, 3264, Note_on_c, 9, 69, 62
1, 3264, Note_on_c, 1, 35, 120
1, 3264, Note_on_c, 3, 56, 104
1, 3264, Note_on_c, 7, 61, 124
1, 3276, Note_off_c, 7, 63, 0
1, 3281, Note_off_c, 9, 40, 0
1, 3286, Note_off_c, 9, 69, 0
1, 3305, Note_off_c, 9, 42, 0
1, 3326, Note_off_c, 3, 56, 0
1, 3343, Note_off_c, 1, 35, 0
1, 3360, Note_on_c, 9, 42, 91
1, 3360, Note_on_c, 3, 58, 124
1, 3392, Note_off_c, 9, 42, 0
1, 3408, Note_on_c, 9, 42, 88
1, 3408, Note_on_c, 9, 69, 70
1, 3431, Note_off_c, 9, 69, 0
1, 3463, Note_off_c, 9, 42, 0
1, 3504, Note_on_c, 9, 42, 91
1, 3504, Note_on_c, 9, 69, 71
1, 3525, Note_off_c, 9, 69, 0
1, 3552, Note_on_c, 8, 49, 124
1, 3556, Note_off_c, 9, 42, 0
1, 3598, Note_off_c, 8, 49, 0
1, 3600, Note_on_c, 9, 42, 80
1, 3600, Note_on_c, 8, 51, 91
1, 3618, Note_off_c, 3, 58, 0
1, 3618, Note_off_c, 8, 51, 0
1, 3623, Note_off_c, 9, 42, 0
1, 3648, Note_on_c, 9, 36, 115
1, 3648, Note_on_c, 9, 40, 124
1, 3648, Note_on_c, 9, 42, 91
1, 3648, Note_on_c, 9, 69, 74
1, 3648, Note_on_c, 8, 51, 95
1, 3664, Note_off_c, 9, 36, 0
1, 3666, Note_off_c, 9, 40, 0
1, 3666, Note_off_c, 9, 69, 0
1, 3693, Note_off_c, 8, 51, 0
1, 3696, Note_on_c, 1, 35, 85
1, 3696, Note_on_c, 3, 63, 109
1, 3696, Note_on_c, 8, 49, 91
1, 3703, Note_off_c, 9, 42, 0
1, 3726, Note_off_c, 7, 61, 0
1, 3729, Note_off_c, 8, 49, 0
1, 3733, Note_off_c, 3, 63, 0
1, 3744, Note_on_c, 9, 42, 82
1, 3744, Note_on_c, 3, 65, 95
1, 3744, Note_on_c, 7, 59, 104
1, 3744, Note_on_c, 8, 47, 104
1, 3753, Note_off_c, 5, 61, 0
1, 3759, Note_off_c, 5, 66, 0
1, 3763, Note_off_c, 5, 63, 0
1, 3766, Note_off_c, 5, 54, 0
1, 3768, Note_off_c, 9, 42, 0
1, 3784, Note_off_c, 8, 47, 0
1, 3790, Note_off_c, 1, 35, 0
1, 3792, Note_on_c, 9, 42, 60
1, 3792, Note_off_c, 2, 61, 0
1, 3792, Note_on_c, 3, 66, 104
1, 3792, Note_on_c, 8, 49, 71
1, 3792, Note_on_c, 8, 51, 88
1, 3794, Note_off_c, 2, 63, 0
1, 3797, Note_off_c, 2, 66, 0
1, 3798, Note_off_c, 2, 54, 0
1, 3801, Note_off_c, 8, 49, 0
1, 3802, Note_off_c, 3, 65, 0
1, 3821, Note_off_c, 9, 42, 0
1, 3821, Note_off_c, 3, 66, 0
1, 3826, Note_off_c, 7, 59, 0
1, 3829, Note_off_c, 8, 51, 0
1, 3840, Note_on_c, 9, 36, 122
1, 3840, Note_on_c, 9, 42, 104
1, 3840, Note_on_c, 9, 69, 68
1, 3840, Note_on_c, 1, 34, 114
1, 3840, Note_on_c, 2, 58, 82
1, 3840, Note_on_c, 2, 63, 78
1, 3840, Note_on_c, 2, 65, 74
1, 3840, Note_on_c, 2, 68, 78
1, 3840, Note_on_c, 3, 65, 114
1, 3840, Note_on_c, 5, 58, 61
1, 3840, Note_on_c, 5, 63, 58
1, 3840, Note_on_c, 5, 65, 61
1, 3840, Note_on_c, 5, 68, 64
1, 3840, Note_on_c, 7, 58, 114
1, 3840, Note_on_c, 8, 46, 91
1, 3857, Note_off_c, 9, 36, 0
1, 3859, Note_off_c, 9, 69, 0
1, 3861, Note_off_c, 7, 58, 0
1, 3863, Note_off_c, 1, 34, 0
1, 3864, Note_on_c, 7, 59, 98
1, 3888, Note_on_c, 9, 36, 115
1, 3888, Note_on_c, 9, 69, 63
1, 3888, Note_on_c, 1, 34, 114
1, 3888, Note_on_c, 7, 58, 104
1, 3891, Note_off_c, 9, 42, 0
1, 3893, Note_off_c, 7, 59, 0
1, 3905, Note_off_c, 9, 36, 0
1, 3909, Note_off_c, 9, 69, 0
1, 3913, Note_off_c, 1, 34, 0
1, 3926, Note_off_c, 8, 46, 0
1, 3936, Note_on_c, 9, 42, 74
1, 3936, Note_on_c, 3, 58, 95
1, 3938, Note_off_c, 3, 65, 0
1, 3954, Note_off_c, 3, 58, 0
1, 3963, Note_off_c, 9, 42, 0
1, 3984, Note_on_c, 9, 42, 71
1, 3984, Note_on_c, 3, 58, 114
1, 4012, Note_off_c, 9, 42, 0
1, 4032, Note_on_c, 9, 40, 124
1, 4032, Note_on_c, 9, 42, 82
1, 4032, Note_on_c, 9, 69, 62
1, 4032, Note_on_c, 1, 34, 114
1, 4050, Note_off_c, 9, 40, 0
1, 4054, Note_off_c, 9, 69, 0
1, 4082, Note_off_c, 9, 42, 0
1, 4106, Note_off_c, 1, 34, 0
1, 4128, Note_on_c, 9, 36, 119
1, 4128, Note_on_c, 9, 42, 82
1, 4128, Note_on_c, 8, 46, 104
1, 4144, Note_off_c, 9, 36, 0
1, 4155, Note_off_c, 9, 42, 0
1, 4164, Note_off_c, 8, 46, 0
1, 4176, Note_on_c, 9, 36, 115
1, 4176, Note_on_c, 9, 42, 71
1, 4176, Note_on_c, 9, 69, 70
1, 4176, Note_on_c, 8, 49, 91
1, 4182, Note_off_c, 5, 65, 0
1, 4184, Note_off_c, 5, 68, 0
1, 4185, Note_off_c, 5, 63, 0
1, 4189, Note_off_c, 5, 58, 0
1, 4194, Note_off_c, 9, 36, 0
1, 4199, Note_off_c, 9, 69, 0
1, 4219, Note_off_c, 8, 49, 0
1, 4222, Note_off_c, 2, 58, 0
1, 4223, Note_off_c, 2, 63, 0
1, 4224, Note_off_c, 2, 65, 0
1, 4224, Note_on_c, 5, 58, 66
1, 4224, Note_on_c, 5, 62, 62
1, 4224, Note_on_c, 5, 65, 59
1, 4224, Note_on_c, 5, 68, 64
1, 4224, Note_on_c, 8, 50, 95
1, 4225, Note_off_c, 9, 42, 0
1, 4226, Note_off_c, 2, 68, 0
1, 4266, Note_off_c, 8, 50, 0
1, 4272, Note_on_c, 9, 36, 115
1, 4272, Note_on_c, 9, 40, 124
1, 4272, Note_on_c, 9, 42, 91
1, 4272, Note_on_c, 9, 69, 71
1, 4272, Note_on_c, 2, 58, 82
1, 4272, Note_on_c, 2, 62, 85
1, 4272, Note_on_c, 2, 65, 80
1, 4272, Note_on_c, 2, 68, 80
1, 4272, Note_on_c, 8, 53, 91
1, 4288, Note_off_c, 9, 36, 0
1, 4288, Note_off_c, 9, 40, 0
1, 4293, Note_off_c, 9, 69, 0
1, 4308, Note_off_c, 9, 42, 0
1, 4316, Note_off_c, 7, 58, 0
1, 4318, Note_off_c, 8, 53, 0
1, 4320, Note_on_c, 9, 40, 118
1, 4320, Note_on_c, 1, 26, 120
1, 4320, Note_on_c, 7, 65, 104
1, 4320, Note_on_c, 7, 68, 114
1, 4320, Note_on_c, 8, 46, 91
1, 4368, Note_on_c, 9, 42, 91
1, 4376, Note_off_c, 3, 58, 0
1, 4379, Note_off_c, 8, 46, 0
1, 4403, Note_off_c, 9, 42, 0
1, 4415, Note_off_c, 9, 40, 0
1, 4416, Note_on_c, 9, 40, 118
1, 4416, Note_on_c, 9, 46, 95
1, 4416, Note_on_c, 9, 69, 74
1, 4416, Note_on_c, 8, 50, 98
1, 4434, Note_off_c, 9, 69, 0
1, 4443, Control_c, 3, 1, 0
1, 4444, Note_off_c, 9, 46, 0
1, 4460, Note_off_c, 8, 50, 0
1, 4464, Note_on_c, 8, 56, 104
1, 4511, Note_off_c, 9, 40, 0
1, 4511, Note_off_c, 1, 26, 0
1, 4512, Note_on_c, 1, 26, 114
1, 4512, Note_on_c, 3, 70, 124
1, 4513, Note_off_c, 7, 65, 0
1, 4513, Note_off_c, 7, 68, 0
1, 4528, Note_off_c, 5, 58, 0
1, 4529, Note_off_c, 5, 62, 0
1, 4534, Note_off_c, 5, 65, 0
1, 4535, Note_off_c, 8, 56, 0
1, 4536, Note_off_c, 5, 68, 0
1, 4562, Control_c, 3, 1, 2
1, 4565, Note_off_c, 1, 26, 0
1, 4579, Note_off_c, 2, 58, 0
1, 4580, Note_off_c, 2, 62, 0
1, 4581, Note_off_c, 2, 65, 0
1, 4582, Control_c, 3, 1, 3
1, 4586, Note_off_c, 2, 68, 0
1, 4597, Control_c, 3, 1, 6
1, 4608, Note_on_c, 9, 36, 119
1, 4608, Note_on_c, 9, 42, 114
1, 4608, Note_on_c, 9, 69, 68
1, 4608, Note_on_c, 1, 27, 127
1, 4608, Note_on_c, 2, 61, 61
1, 4608, Note_on_c, 2, 63, 66
1, 4608, Note_on_c, 2, 66, 73
1, 4608, Note_on_c, 2, 70, 68
1, 4608, Note_on_c, 5, 58, 57
1, 4608, Note_on_c, 5, 61, 33
1, 4608, Note_on_c, 5, 63, 43
1, 4608, Note_on_c, 5, 66, 53
1, 4608, Note_on_c, 7, 70, 109
1, 4612, Control_c, 3, 1, 12
1, 4627, Note_off_c, 9, 69, 0
1, 4627, Control_c, 3, 1, 18
1, 4629, Note_off_c, 9, 36, 0
1, 4630, Note_off_c, 1, 27, 0
1, 4632, Note_on_c, 7, 68, 91
1, 4634, Note_off_c, 9, 42, 0
1, 4646, Note_off_c, 7, 70, 0
1, 4654, Note_off_c, 7, 68, 0
1, 4656, Note_on_c, 9, 36, 86
1, 4656, Note_on_c, 9, 42, 80
1, 4656, Note_on_c, 9, 69, 63
1, 4656, Note_on_c, 1, 27, 124
1, 4656, Note_on_c, 7, 70, 114
1, 4677, Note_off_c, 9, 69, 0
1, 4677, Control_c, 3, 1, 21
1, 4682, Note_off_c, 9, 36, 0
1, 4697, Note_off_c, 9, 42, 0
1, 4704, Note_on_c, 8, 54, 95
1, 4721, Note_off_c, 1, 27, 0
1, 4722, Control_c, 3, 1, 22
1, 4731, Note_off_c, 8, 54, 0
1, 4737, Control_c, 3, 1, 23
1, 4752, Control_c, 3, 1, 26
1, 4800, Note_on_c, 9, 40, 124
1, 4800, Note_on_c, 9, 42, 104
1, 4800, Note_on_c, 9, 69, 62
1, 4800, Note_on_c, 1, 27, 124
1, 4817, Control_c, 3, 1, 25
1, 4818, Note_off_c, 9, 40, 0
1, 4822, Note_off_c, 9, 69, 0
1, 4832, Control_c, 3, 1, 16
1, 4837, Note_off_c, 9, 42, 0
1, 4847, Control_c, 3, 1, 0
1, 4848, Note_on_c, 8, 53, 95
1, 4876, Note_off_c, 8, 53, 0
1, 4896, Note_on_c, 9, 42, 82
1, 4921, Note_off_c, 9, 42, 0
1, 4928, Note_off_c, 1, 27, 0
1, 4944, Note_on_c, 9, 42, 66
1, 4944, Note_on_c, 9, 69, 70
1, 4967, Note_off_c, 9, 69, 0
1, 4971, Note_off_c, 9, 42, 0
1, 4982, Note_off_c, 3, 70, 0
1, 4992, Note_on_c, 3, 69, 114
1, 4992, Note_on_c, 8, 51, 91
1, 5028, Note_off_c, 8, 51, 0
1, 5040, Note_on_c, 9, 69, 71
1, 5040, Note_on_c, 3, 68, 95
1, 5049, Note_off_c, 3, 69, 0
1, 5061, Note_off_c, 9, 69, 0
1, 5084, Note_off_c, 3, 68, 0
1, 5088, Note_on_c, 9, 42, 82
1, 5088, Note_on_c, 3, 66, 95
1, 5115, Note_off_c, 9, 42, 0
1, 5122, Note_off_c, 3, 66, 0
1, 5136, Note_on_c, 3, 63, 109
1, 5136, Note_on_c, 8, 49, 88
1, 5146, Note_off_c, 2, 63, 0
1, 5148, Note_off_c, 2, 61, 0
1, 5148, Note_off_c, 2, 66, 0
1, 5153, Note_off_c, 2, 70, 0
1, 5160, Note_off_c, 7, 70, 0
1, 5169, Note_off_c, 8, 49, 0
1, 5184, Note_on_c, 9, 40, 124
1, 5184, Note_on_c, 9, 42, 104
1, 5184, Note_on_c, 9, 69, 74
1, 5184, Note_on_c, 2, 58, 74
1, 5184, Note_on_c, 2, 61, 60
1, 5184, Note_on_c, 2, 63, 78
1, 5184, Note_on_c, 2, 66, 63
1, 5184, Note_on_c, 7, 63, 114
1, 5202, Note_off_c, 9, 69, 0
1, 5205, Note_off_c, 9, 40, 0
1, 5217, Note_off_c, 9, 42, 0
1, 5232, Note_on_c, 1, 27, 95
1, 5232, Note_on_c, 7, 65, 104
1, 5236, Note_off_c, 7, 63, 0
1, 5267, Note_off_c, 3, 63, 0
1, 5280, Note_on_c, 9, 42, 80
1, 5280, Note_on_c, 3, 63, 114
1, 5280, Note_on_c, 7, 66, 104
1, 5280, Note_on_c, 8, 51, 91
1, 5284, Note_off_c, 7, 65, 0
1, 5305, Note_off_c, 9, 42, 0
1, 5306, Note_off_c, 8, 51, 0
1, 5318, Note_off_c, 7, 66, 0
1, 5328, Note_on_c, 9, 42, 66
1, 5328, Note_on_c, 7, 68, 82
1, 5335, Note_off_c, 5, 61, 0
1, 5335, Note_off_c, 5, 66, 0
1, 5339, Note_off_c, 5, 63, 0
1, 5342, Note_off_c, 1, 27, 0
1, 5342, Note_off_c, 2, 66, 0
1, 5344, Note_off_c, 5, 58, 0
1, 5346, Note_off_c, 2, 61, 0
1, 5347, Note_off_c, 2, 63, 0
1, 5348, Note_off_c, 9, 42, 0
1, 5353, Note_off_c, 7, 68, 0
1, 5357, Note_off_c, 3, 63, 0
1, 5371, Note_off_c, 2, 58, 0
1, 5376, Note_on_c, 9, 36, 122
1, 5376, Note_on_c, 9, 42, 88
1, 5376, Note_on_c, 9, 69, 68
1, 5376, Note_on_c, 1, 25, 114
1, 5376, Note_on_c, 2, 61, 66
1, 5376, Note_on_c, 2, 65, 63
1, 5376, Note_on_c, 2, 68, 73
1, 5376, Note_on_c, 3, 68, 104
1, 5376, Note_on_c, 5, 56, 66
1, 5376, Note_on_c, 5, 61, 48
1, 5376, Note_on_c, 5, 65, 62
1, 5376, Note_on_c, 7, 68, 114
1, 5376, Note_on_c, 8, 49, 88
1, 5395, Note_off_c, 9, 69, 0
1, 5396, Note_off_c, 1, 25, 0
1, 5397, Note_off_c, 9, 36, 0
1, 5403, Note_off_c, 9, 42, 0
1, 5406, Note_off_c, 8, 49, 0
1, 5424, Note_on_c, 9, 36, 115
1, 5424, Note_on_c, 9, 42, 91
1, 5424, Note_on_c, 9, 69, 63
1, 5424, Note_on_c, 1, 25, 109
1, 5445, Note_off_c, 9, 69, 0
1, 5447, Note_off_c, 9, 36, 0
1, 5452, Note_off_c, 9, 42, 0
1, 5472, Note_on_c, 7, 61, 109
1, 5472, Note_on_c, 8, 51, 95
1, 5481, Note_off_c, 7, 68, 0
1, 5492, Note_off_c, 1, 25, 0
1, 5493, Note_off_c, 7, 61, 0
1, 5511, Note_off_c, 8, 51, 0
1, 5520, Note_on_c, 7, 61, 104
1, 5520, Note_on_c, 8, 49, 73
1, 5544, Note_off_c, 8, 49, 0
1, 5568, Note_on_c, 9, 40, 124
1, 5568, Note_on_c, 9, 42, 104
1, 5568, Note_on_c, 9, 69, 62
1, 5568, Note_on_c, 1, 25, 124
1, 5568, Note_on_c, 8, 53, 98
1, 5586, Note_off_c, 9, 40, 0
1, 5590, Note_off_c, 9, 69, 0
1, 5602, Note_off_c, 8, 53, 0
1, 5605, Note_off_c, 9, 42, 0
1, 5643, Note_off_c, 3, 68, 0
1, 5663, Note_off_c, 1, 25, 0
1, 5664, Note_on_c, 9, 36, 119
1, 5664, Note_on_c, 9, 42, 82
1, 5664, Note_on_c, 8, 51, 91
1, 5680, Note_off_c, 9, 36, 0
1, 5693, Note_off_c, 9, 42, 0
1, 5710, Note_off_c, 8, 51, 0
1, 5712, Note_on_c, 9, 36, 115
1, 5712, Note_on_c, 9, 42, 64
1, 5712, Note_on_c, 9, 69, 70
1, 5712, Note_on_c, 8, 49, 82
1, 5730, Note_off_c, 9, 36, 0
1, 5735, Note_off_c, 9, 69, 0
1, 5747, Note_off_c, 9, 42, 0
1, 5790, Note_off_c, 8, 49, 0
1, 5808, Note_on_c, 9, 36, 115
1, 5808, Note_on_c, 9, 40, 118
1, 5808, Note_on_c, 9, 42, 91
1, 5808, Note_on_c, 9, 69, 71
1, 5824, Note_off_c, 9, 36, 0
1, 5826, Note_off_c, 9, 40, 0
1, 5829, Note_off_c, 9, 69, 0
1, 5844, Note_off_c, 9, 42, 0
1, 5904, Note_on_c, 9, 42, 91
1, 5919, Note_off_c, 2, 61, 0
1, 5921, Note_off_c, 2, 68, 0
1, 5922, Note_off_c, 2, 65, 0
1, 5930, Note_off_c, 9, 42, 0
1, 5952, Note_on_c, 9, 42, 88
1, 5952, Note_on_c, 9, 69, 74
1, 5952, Note_on_c, 2, 56, 82
1, 5952, Note_on_c, 2, 61, 74
1, 5952, Note_on_c, 2, 65, 64
1, 5970, Note_off_c, 9, 69, 0
1, 6000, Note_on_c, 1, 37, 91
1, 6000, Note_on_c, 3, 63, 109
1, 6004, Note_off_c, 9, 42, 0
1, 6048, Note_on_c, 9, 42, 91
1, 6048, Note_on_c, 8, 49, 104
1, 6077, Note_off_c, 9, 42, 0
1, 6085, Note_off_c, 5, 65, 0
1, 6085, Note_off_c, 8, 49, 0
1, 6089, Note_off_c, 5, 56, 0
1, 6090, Note_off_c, 7, 61, 0
1, 6093, Note_off_c, 5, 61, 0
1, 6096, Note_on_c, 9, 42, 74
1, 6096, Note_on_c, 3, 61, 91
1, 6096, Note_on_c, 8, 51, 80
1, 6101, Note_off_c, 2, 65, 0
1, 6106, Note_off_c, 2, 61, 0
1, 6108, Note_off_c, 3, 63, 0
1, 6113, Note_off_c, 8, 51, 0
1, 6114, Note_off_c, 2, 56, 0
1, 6123, Note_off_c, 9, 42, 0
1, 6135, Note_off_c, 3, 61, 0
1, 6143, Note_off_c, 1, 37, 0
1, 6144, Note_on_c, 9, 36, 122
1, 6144, Note_on_c, 9, 42, 91
1, 6144, Note_on_c, 9, 69, 68
1, 6144, Note_on_c, 1, 35, 109
1, 6144, Note_on_c, 2, 54, 71
1, 6144, Note_on_c, 2, 61, 63
1, 6144, Note_on_c, 2, 63, 68
1, 6144, Note_on_c, 2, 66, 71
1, 6144, Note_on_c, 3, 59, 104
1, 6144, Note_on_c, 5, 54, 68
1, 6144, Note_on_c, 5, 61, 61
1, 6144, Note_on_c, 5, 63, 56
1, 6144, Note_on_c, 5, 66, 57
1, 6144, Note_on_c, 7, 54, 109
1, 6144, Note_on_c, 8, 51, 104
1, 6163, Note_off_c, 9, 36, 0
1, 6163, Note_off_c, 9, 69, 0
1, 6170, Note_off_c, 1, 35, 0
1, 6190, Note_off_c, 9, 42, 0
1, 6192, Note_on_c, 9, 36, 93
1, 6192, Note_on_c, 9, 69, 63
1, 6192, Note_on_c, 1, 35, 120
1, 6192, Note_on_c, 8, 49, 88
1, 6198, Note_off_c, 8, 51, 0
1, 6208, Note_off_c, 9, 36, 0
1, 6213, Note_off_c, 9, 69, 0
1, 6228, Note_off_c, 8, 49, 0
1, 6236, Note_off_c, 3, 59, 0
1, 6240, Note_on_c, 9, 42, 91
1, 6240, Note_on_c, 3, 58, 104
1, 6240, Note_on_c, 8, 47, 95
1, 6254, Note_off_c, 1, 35, 0
1, 6262, Note_off_c, 3, 58, 0
1, 6265, Note_off_c, 9, 42, 0
1, 6277, Note_off_c, 7, 54, 0
1, 6288, Note_on_c, 9, 42, 63
1, 6288, Note_on_c, 3, 58, 114
1, 6288, Note_on_c, 7, 61, 109
1, 6302, Note_off_c, 8, 47, 0
1, 6307, Note_off_c, 7, 61, 0
1, 6312, Note_on_c, 7, 63, 124
1, 6315, Note_off_c, 9, 42, 0
1, 6336, Note_on_c, 9, 40, 124
1, 6336, Note_on_c, 9, 42, 80
1, 6336, Note_on_c, 9, 69, 62
1, 6336, Note_on_c, 1, 35, 120
1, 6336, Note_on_c, 7, 61, 124
1, 6348, Note_off_c, 7, 63, 0
1, 6353, Note_off_c, 9, 40, 0
1, 6358, Note_off_c, 9, 69, 0
1, 6377, Note_off_c, 9, 42, 0
1, 6415, Note_off_c, 1, 35, 0
1, 6432, Note_on_c, 9, 42, 91
1, 6432, Note_on_c, 3, 56, 104
1, 6435, Note_off_c, 3, 58, 0
1, 6464, Note_off_c, 9, 42, 0
1, 6469, Note_off_c, 3, 56, 0
1, 6480, Note_on_c, 9, 42, 88
1, 6480, Note_on_c, 9, 69, 70
1, 6480, Note_on_c, 3, 54, 104
1, 6503, Note_off_c, 9, 69, 0
1, 6535, Note_off_c, 9, 42, 0
1, 6576, Note_on_c, 9, 42, 91
1, 6576, Note_on_c, 9, 69, 71
1, 6597, Note_off_c, 9, 69, 0
1, 6613, Note_off_c, 3, 54, 0
1, 6624, Note_on_c, 3, 51, 114
1, 6624, Note_on_c, 8, 49, 124
1, 6628, Note_off_c, 9, 42, 0
1, 6670, Note_off_c, 8, 49, 0
1, 6672, Note_on_c, 9, 42, 80
1, 6672, Note_on_c, 8, 51, 91
1, 6684, Note_off_c, 3, 51, 0
1, 6690, Note_off_c, 8, 51, 0
1, 6695, Note_off_c, 9, 42, 0
1, 6720, Note_on_c, 9, 36, 115
1, 6720, Note_on_c, 9, 40, 124
1, 6720, Note_on_c, 9, 42, 91
1, 6720, Note_on_c, 9, 69, 74
1, 6720, Note_on_c, 3, 54, 114
1, 6720, Note_on_c, 8, 51, 95
1, 6736, Note_off_c, 9, 36, 0
1, 6738, Note_off_c, 9, 40, 0
1, 6738, Note_off_c, 9, 69, 0
1, 6765, Note_off_c, 8, 51, 0
1, 6768, Note_on_c, 1, 35, 85
1, 6768, Note_on_c, 8, 49, 91
1, 6775, Note_off_c, 9, 42, 0
1, 6798, Note_off_c, 7, 61, 0
1, 6800, Note_off_c, 3, 54, 0
1, 6801, Note_off_c, 8, 49, 0
1, 6816, Note_on_c, 9, 42, 82
1, 6816, Note_on_c, 3, 56, 109
1, 6816, Note_on_c, 7, 59, 104
1, 6816, Note_on_c, 8, 47, 104
1, 6825, Note_off_c, 5, 61, 0
1, 6831, Note_off_c, 5, 66, 0
1, 6835, Note_off_c, 5, 63, 0
1, 6838, Note_off_c, 5, 54, 0
1, 6840, Note_off_c, 9, 42, 0
1, 6856, Note_off_c, 8, 47, 0
1, 6862, Note_off_c, 1, 35, 0
1, 6864, Note_on_c, 9, 42, 60
1, 6864, Note_off_c, 2, 61, 0
1, 6864, Note_on_c, 8, 49, 71
1, 6864, Note_on_c, 8, 51, 88
1, 6866, Note_off_c, 2, 63, 0
1, 6869, Note_off_c, 2, 66, 0
1, 6870, Note_off_c, 2, 54, 0
1, 6873, Note_off_c, 8, 49, 0
1, 6893, Note_off_c, 9, 42, 0
1, 6898, Note_off_c, 7, 59, 0
1, 6899, Note_off_c, 3, 56, 0
1, 6901, Note_off_c, 8, 51, 0
1, 6912, Note_on_c, 9, 36, 122
1, 6912, Note_on_c, 9, 42, 104
1, 6912, Note_on_c, 9, 69, 68
1, 6912, Note_on_c, 1, 34, 114
1, 6912, Note_on_c, 2, 58, 82
1, 6912, Note_on_c, 2, 63, 78
1, 6912, Note_on_c, 2, 65, 74
1, 6912, Note_on_c, 2, 68, 78
1, 6912, Note_on_c, 3, 54, 124
1, 6912, Note_on_c, 5, 58, 61
1, 6912, Note_on_c, 5, 63, 58
1, 6912, Note_on_c, 5, 65, 61
1, 6912, Note_on_c, 5, 68, 64
1, 6912, Note_on_c, 7, 58, 114
1, 6912, Note_on_c, 8, 46, 91
1, 6929, Note_off_c, 9, 36, 0
1, 6931, Note_off_c, 9, 69, 0
1, 6933, Note_off_c, 7, 58, 0
1, 6935, Note_off_c, 1, 34, 0
1, 6936, Note_on_c, 7, 59, 98
1, 6960, Note_on_c, 9, 36, 115
1, 6960, Note_on_c, 9, 69, 63
1, 6960, Note_on_c, 1, 34, 114
1, 6960, Note_on_c, 7, 58, 104
1, 6963, Note_off_c, 9, 42, 0
1, 6965, Note_off_c, 7, 59, 0
1, 6977, Note_off_c, 9, 36, 0
1, 6981, Note_off_c, 9, 69, 0
1, 6985, Note_off_c, 1, 34, 0
1, 6998, Note_off_c, 8, 46, 0
1, 7008, Note_on_c, 9, 42, 74
1, 7008, Note_on_c, 3, 56, 95
1, 7011, Note_off_c, 3, 54, 0
1, 7035, Note_off_c, 9, 42, 0
1, 7056, Note_on_c, 9, 42, 71
1, 7056, Note_on_c, 3, 54, 95
1, 7061, Note_off_c, 3, 56, 0
1, 7084, Note_off_c, 9, 42, 0
1, 7100, Note_off_c, 3, 54, 0
1, 7104, Note_on_c, 9, 40, 124
1, 7104, Note_on_c, 9, 42, 82
1, 7104, Note_on_c, 9, 69, 62
1, 7104, Note_on_c, 1, 34, 114
1, 7104, Note_on_c, 3, 53, 104
1, 7122, Note_off_c, 9, 40, 0
1, 7126, Note_off_c, 9, 69, 0
1, 7154, Note_off_c, 9, 42, 0
1, 7178, Note_off_c, 1, 34, 0
1, 7200, Note_on_c, 9, 36, 119
1, 7200, Note_on_c, 9, 42, 82
1, 7200, Note_on_c, 8, 46, 104
1, 7216, Note_off_c, 9, 36, 0
1, 7227, Note_off_c, 9, 42, 0
1, 7236, Note_off_c, 8, 46, 0
1, 7246, Control_c, 3, 1, 3
1, 7248, Note_on_c, 9, 36, 115
1, 7248, Note_on_c, 9, 42, 71
1, 7248, Note_on_c, 9, 69, 70
1, 7248, Note_on_c, 8, 49, 91
1, 7254, Note_off_c, 5, 65, 0
1, 7256, Note_off_c, 5, 68, 0
1, 7257, Note_off_c, 5, 63, 0
1, 7261, Note_off_c, 5, 58, 0
1, 7266, Note_off_c, 9, 36, 0
1, 7266, Control_c, 3, 1, 5
1, 7271, Note_off_c, 9, 69, 0
1, 7281, Control_c, 3, 1, 6
1, 7291, Note_off_c, 8, 49, 0
1, 7294, Note_off_c, 2, 58, 0
1, 7295, Note_off_c, 2, 63, 0
1, 7296, Note_off_c, 2, 65, 0
1, 7296, Note_on_c, 5, 58, 66
1, 7296, Note_on_c, 5, 62, 62
1, 7296, Note_on_c, 5, 65, 59
1, 7296, Note_on_c, 5, 68, 64
1, 7296, Note_on_c, 8, 50, 95
1, 7297, Note_off_c, 9, 42, 0
1, 7298, Note_off_c, 2, 68, 0
1, 7300, Control_c, 3, 1, 7
1, 7315, Control_c, 3, 1, 8
1, 7335, Control_c, 3, 1, 9
1, 7338, Note_off_c, 8, 50, 0
1, 7344, Note_on_c, 9, 36, 115
1, 7344, Note_on_c, 9, 40, 124
1, 7344, Note_on_c, 9, 42, 91
1, 7344, Note_on_c, 9, 69, 71
1, 7344, Note_on_c, 2, 58, 82
1, 7344, Note_on_c, 2, 62, 85
1, 7344, Note_on_c, 2, 65, 80
1, 7344, Note_on_c, 2, 68, 80
1, 7344, Note_on_c, 8, 53, 91
1, 7355, Control_c, 3, 1, 11
1, 7358, Note_off_c, 3, 53, 0
1, 7360, Note_off_c, 9, 36, 0
1, 7360, Note_off_c, 9, 40, 0
1, 7365, Note_off_c, 9, 69, 0
1, 7380, Note_off_c, 9, 42, 0
1, 7385, Control_c, 3, 1, 7
1, 7388, Note_off_c, 7, 58, 0
1, 7390, Note_off_c, 8, 53, 0
1, 7392, Note_on_c, 9, 40, 118
1, 7392, Note_on_c, 1, 26, 120
1, 7392, Note_on_c, 7, 65, 104
1, 7392, Note_on_c, 7, 68, 114
1, 7392, Note_on_c, 8, 46, 91
1, 7400, Control_c, 3, 1, 0
1, 7440, Note_on_c, 9, 42, 91
1, 7451, Note_off_c, 8, 46, 0
1, 7475, Note_off_c, 9, 42, 0
1, 7487, Note_off_c, 9, 40, 0
1, 7488, Note_on_c, 9, 40, 118
1, 7488, Note_on_c, 9, 46, 95
1, 7488, Note_on_c, 9, 69, 74
1, 7488, Note_on_c, 8, 50, 98
1, 7506, Note_off_c, 9, 69, 0
1, 7516, Note_off_c, 9, 46, 0
1, 7532, Note_off_c, 8, 50, 0
1, 7536, Note_on_c, 8, 56, 104
1, 7583, Note_off_c, 9, 40, 0
1, 7583, Note_off_c, 1, 26, 0
1, 7584, Note_on_c, 1, 26, 114
1, 7585, Note_off_c, 7, 65, 0
1, 7585, Note_off_c, 7, 68, 0
1, 7600, Note_off_c, 5, 58, 0
1, 7601, Note_off_c, 5, 62, 0
1, 7606, Note_off_c, 5, 65, 0
1, 7607, Note_off_c, 8, 56, 0
1, 7608, Note_off_c, 5, 68, 0
1, 7637, Note_off_c, 1, 26, 0
1, 7651, Note_off_c, 2, 58, 0
1, 7652, Note_off_c, 2, 62, 0
1, 7653, Note_off_c, 2, 65, 0
1, 7658, Note_off_c, 2, 68, 0
1, 7680, Note_on_c, 9, 36, 119
1, 7680, Note_on_c, 9, 42, 114
1, 7680, Note_on_c, 9, 69, 68
1, 7680, Note_on_c, 1, 27, 127
1, 7680, Note_on_c, 2, 61, 61
1, 7680, Note_on_c, 2, 63, 66
1, 7680, Note_on_c, 2, 66, 73
1, 7680, Note_on_c, 2, 70, 68
1, 7680, Note_on_c, 3, 51, 127
1, 7680, Note_on_c, 5, 58, 57
1, 7680, Note_on_c, 5, 61, 33
1, 7680, Note_on_c, 5, 63, 43
1, 7680, Note_on_c, 5, 66, 53
1, 7680, Note_on_c, 7, 63, 104
1, 7680, Note_on_c, 7, 66, 95
1, 7699, Note_off_c, 9, 69, 0
1, 7701, Note_off_c, 9, 36, 0
1, 7702, Note_off_c, 1, 27, 0
1, 7706, Note_off_c, 9, 42, 0
1, 7719, Note_off_c, 3, 51, 0
1, 7728, Note_on_c, 9, 36, 86
1, 7728, Note_on_c, 9, 42, 80
1, 7728, Note_on_c, 9, 69, 63
1, 7728, Note_on_c, 1, 27, 124
1, 7749, Note_off_c, 9, 69, 0
1, 7754, Note_off_c, 9, 36, 0
1, 7769, Note_off_c, 9, 42, 0
1, 7776, Note_on_c, 3, 51, 109
1, 7793, Note_off_c, 1, 27, 0
1, 7845, Note_off_c, 3, 51, 0
1, 7872, Note_on_c, 9, 37, 124
1, 7872, Note_on_c, 9, 42, 104
1, 7872, Note_on_c, 9, 69, 62
1, 7872, Note_on_c, 1, 27, 124
1, 7872, Note_on_c, 11, 70, 57
1, 7890, Note_off_c, 9, 37, 0
1, 7894, Note_off_c, 9, 69, 0
1, 7909, Note_off_c, 9, 42, 0
1, 7920, Note_on_c, 3, 51, 109
1, 7942, Note_off_c, 3, 51, 0
1, 7968, Note_on_c, 9, 42, 82
1, 7968, Note_on_c, 3, 51, 91
1, 7988, Note_off_c, 3, 51, 0
1, 7993, Note_off_c, 9, 42, 0
1, 8000, Note_off_c, 1, 27, 0
1, 8016, Note_on_c, 9, 42, 66
1, 8016, Note_on_c, 9, 69, 70
1, 8016, Note_on_c, 3, 51, 91
1, 8035, Note_off_c, 3, 51, 0
1, 8039, Note_off_c, 9, 69, 0
1, 8043, Note_off_c, 9, 42, 0
1, 8055, Note_off_c, 7, 63, 0
1, 8056, Note_off_c, 7, 66, 0
1, 8064, Note_on_c, 3, 51, 109
1, 8112, Note_on_c, 9, 69, 71
1, 8123, Note_off_c, 3, 51, 0
1, 8133, Note_off_c, 9, 69, 0
1, 8160, Note_on_c, 9, 42, 82
1, 8160, Note_on_c, 3, 51, 104
1, 8160, Note_on_c, 7, 63, 109
1, 8180, Note_off_c, 7, 63, 0
1, 8181, Note_off_c, 3, 51, 0
1, 8187, Note_off_c, 9, 42, 0
1, 8208, Note_on_c, 3, 51, 95
1, 8218, Note_off_c, 2, 63, 0
1, 8220, Note_off_c, 2, 61, 0
1, 8220, Note_off_c, 2, 66, 0
1, 8225, Note_off_c, 2, 70, 0
1, 8228, Note_off_c, 3, 51, 0
1, 8256, Note_on_c, 9, 37, 124
1, 8256, Note_on_c, 9, 42, 104
1, 8256, Note_on_c, 9, 69, 74
1, 8256, Note_on_c, 2, 58, 74
1, 8256, Note_on_c, 2, 61, 60
1, 8256, Note_on_c, 2, 63, 78
1, 8256, Note_on_c, 2, 66, 63
1, 8256, Note_on_c, 3, 53, 104
1, 8256, Note_on_c, 7, 63, 88
1, 8274, Note_off_c, 9, 69, 0
1, 8277, Note_off_c, 9, 37, 0
1, 8289, Note_off_c, 9, 42, 0
1, 8304, Note_on_c, 1, 27, 95
1, 8347, Note_off_c, 7, 63, 0
1, 8351, Note_off_c, 3, 53, 0
1, 8352, Note_on_c, 9, 42, 80
1, 8352, Note_on_c, 3, 54, 95
1, 8352, Note_on_c, 7, 65, 95
1, 8377, Note_off_c, 9, 42, 0
1, 8400, Note_on_c, 9, 42, 66
1, 8407, Note_off_c, 5, 61, 0
1, 8407, Note_off_c, 5, 66, 0
1, 8411, Note_off_c, 5, 63, 0
1, 8414, Note_off_c, 1, 27, 0
1, 8414, Note_off_c, 2, 66, 0
1, 8416, Note_off_c, 5, 58, 0
1, 8418, Note_off_c, 2, 61, 0
1, 8419, Note_off_c, 2, 63, 0
1, 8420, Note_off_c, 9, 42, 0
1, 8439, Note_off_c, 7, 65, 0
1, 8440, Note_off_c, 3, 54, 0
1, 8443, Note_off_c, 2, 58, 0
1, 8448, Note_on_c, 9, 36, 122
1, 8448, Note_on_c, 9, 42, 88
1, 8448, Note_on_c, 9, 69, 68
1, 8448, Note_on_c, 1, 25, 114
1, 8448, Note_on_c, 2, 61, 66
1, 8448, Note_on_c, 2, 65, 63
1, 8448, Note_on_c, 2, 68, 73
1, 8448, Note_on_c, 3, 51, 95
1, 8448, Note_on_c, 5, 56, 66
1, 8448, Note_on_c, 5, 61, 48
1, 8448, Note_on_c, 5, 65, 62
1, 8448, Note_on_c, 7, 61, 104
1, 8448, Note_on_c, 11, 68, 63
1, 8448, Note_on_c, 11, 73, 49
1, 8458, Note_off_c, 11, 70, 0
1, 8467, Note_off_c, 9, 69, 0
1, 8468, Note_off_c, 1, 25, 0
1, 8469, Note_off_c, 9, 36, 0
1, 8475, Note_off_c, 9, 42, 0
1, 8481, Note_off_c, 3, 51, 0
1, 8492, Note_off_c, 7, 61, 0
1, 8496, Note_on_c, 9, 36, 115
1, 8496, Note_on_c, 9, 42, 91
1, 8496, Note_on_c, 9, 69, 63
1, 8496, Note_on_c, 1, 25, 109
1, 8496, Note_on_c, 3, 49, 104
1, 8496, Note_on_c, 7, 63, 91
1, 8517, Note_off_c, 9, 69, 0
1, 8519, Note_off_c, 9, 36, 0
1, 8524, Note_off_c, 9, 42, 0
1, 8525, Note_off_c, 7, 63, 0
1, 8544, Note_on_c, 7, 61, 78
1, 8564, Note_off_c, 1, 25, 0
1, 8568, Note_off_c, 3, 49, 0
1, 8640, Note_on_c, 9, 37, 124
1, 8640, Note_on_c, 9, 42, 104
1, 8640, Note_on_c, 9, 69, 62
1, 8640, Note_on_c, 1, 25, 124
1, 8658, Note_off_c, 9, 37, 0
1, 8662, Note_off_c, 9, 69, 0
1, 8677, Note_off_c, 9, 42, 0
1, 8688, Note_on_c, 3, 46, 109
1, 8717, Note_off_c, 3, 46, 0
1, 8735, Note_off_c, 1, 25, 0
1, 8736, Note_on_c, 9, 36, 119
1, 8736, Note_on_c, 9, 42, 82
1, 8736, Note_on_c, 3, 49, 109
1, 8752, Note_off_c, 9, 36, 0
1, 8765, Note_off_c, 9, 42, 0
1, 8784, Note_on_c, 9, 36, 115
1, 8784, Note_on_c, 9, 42, 64
1, 8784, Note_on_c, 9, 69, 70
1, 8802, Note_off_c, 9, 36, 0
1, 8807, Note_off_c, 9, 69, 0
1, 8807, Note_off_c, 3, 49, 0
1, 8819, Note_off_c, 9, 42, 0
1, 8880, Note_on_c, 9, 36, 115
1, 8880, Note_on_c, 9, 37, 118
1, 8880, Note_on_c, 9, 42, 91
1, 8880, Note_on_c, 9, 69, 71
1, 8880, Note_on_c, 3, 46, 104
1, 8896, Note_off_c, 9, 36, 0
1, 8898, Note_off_c, 9, 37, 0
1, 8901, Note_off_c, 9, 69, 0
1, 8916, Note_off_c, 9, 42, 0
1, 8916, Note_off_c, 3, 46, 0
1, 8928, Note_on_c, 3, 49, 109
1, 8976, Note_on_c, 9, 42, 91
1, 8984, Note_off_c, 11, 73, 0
1, 8988, Note_off_c, 11, 68, 0
1, 8991, Note_off_c, 2, 61, 0
1, 8993, Note_off_c, 2, 68, 0
1, 8994, Note_off_c, 2, 65, 0
1, 8994, Note_off_c, 3, 49, 0
1, 9002, Note_off_c, 9, 42, 0
1, 9024, Note_on_c, 9, 42, 88
1, 9024, Note_on_c, 9, 69, 74
1, 9024, Note_on_c, 2, 56, 82
1, 9024, Note_on_c, 2, 61, 74
1, 9024, Note_on_c, 2, 65, 64
1, 9042, Note_off_c, 9, 69, 0
1, 9072, Note_on_c, 1, 37, 91
1, 9072, Note_on_c, 3, 46, 109
1, 9076, Note_off_c, 9, 42, 0
1, 9110, Note_off_c, 3, 46, 0
1, 9120, Note_on_c, 9, 42, 91
1, 9120, Note_on_c, 3, 49, 109
1, 9149, Note_off_c, 9, 42, 0
1, 9157, Note_off_c, 5, 65, 0
1, 9161, Note_off_c, 3, 49, 0
1, 9161, Note_off_c, 5, 56, 0
1, 9165, Note_off_c, 5, 61, 0
1, 9168, Note_on_c, 9, 42, 74
1, 9173, Note_off_c, 2, 65, 0
1, 9178, Note_off_c, 2, 61, 0
1, 9186, Note_off_c, 2, 56, 0
1, 9195, Note_off_c, 9, 42, 0
1, 9202, Note_off_c, 7, 61, 0
1, 9215, Note_off_c, 1, 37, 0
1, 9216, Note_on_c, 9, 36, 122
1, 9216, Note_on_c, 9, 42, 91
1, 9216, Note_on_c, 9, 69, 68
1, 9216, Note_on_c, 1, 35, 109
1, 9216, Note_on_c, 2, 54, 71
1, 9216, Note_on_c, 2, 61, 63
1, 9216, Note_on_c, 2, 63, 68
1, 9216, Note_on_c, 2, 66, 71
1, 9216, Note_on_c, 3, 49, 124
1, 9216, Note_on_c, 5, 54, 68
1, 9216, Note_on_c, 5, 61, 61
1, 9216, Note_on_c, 5, 63, 56
1, 9216, Note_on_c, 5, 66, 57
1, 9235, Note_off_c, 9, 36, 0
1, 9235, Note_off_c, 9, 69, 0
1, 9242, Note_off_c, 1, 35, 0
1, 9262, Note_off_c, 9, 42, 0
1, 9264, Note_on_c, 9, 36, 93
1, 9264, Note_on_c, 9, 69, 63
1, 9264, Note_on_c, 1, 35, 120
1, 9280, Note_off_c, 9, 36, 0
1, 9285, Note_off_c, 9, 69, 0
1, 9308, Note_off_c, 3, 49, 0
1, 9312, Note_on_c, 9, 42, 91
1, 9312, Note_on_c, 3, 51, 114
1, 9326, Note_off_c, 1, 35, 0
1, 9337, Note_off_c, 9, 42, 0
1, 9360, Note_on_c, 9, 42, 63
1, 9360, Note_on_c, 7, 51, 109
1, 9385, Note_off_c, 3, 51, 0
1, 9387, Note_off_c, 9, 42, 0
1, 9400, Note_off_c, 7, 51, 0
1, 9408, Note_on_c, 9, 37, 124
1, 9408, Note_on_c, 9, 42, 80
1, 9408, Note_on_c, 9, 69, 62
1, 9408, Note_on_c, 1, 35, 120
1, 9408, Note_on_c, 7, 61, 95
1, 9408, Note_on_c, 11, 70, 67
1, 9425, Note_off_c, 9, 37, 0
1, 9430, Note_off_c, 9, 69, 0
1, 9449, Note_off_c, 9, 42, 0
1, 9487, Note_off_c, 1, 35, 0
1, 9495, Note_off_c, 7, 61, 0
1, 9504, Note_on_c, 9, 42, 91
1, 9504, Note_on_c, 3, 51, 124
1, 9504, Note_on_c, 7, 63, 104
1, 9536, Note_off_c, 9, 42, 0
1, 9552, Note_on_c, 9, 42, 88
1, 9552, Note_on_c, 9, 69, 70
1, 9565, Note_off_c, 3, 51, 0
1, 9575, Note_off_c, 9, 69, 0
1, 9588, Note_off_c, 11, 70, 0
1, 9600, Note_on_c, 3, 58, 114
1, 9600, Note_on_c, 11, 66, 67
1, 9607, Note_off_c, 9, 42, 0
1, 9648, Note_on_c, 9, 42, 91
1, 9648, Note_on_c, 9, 69, 71
1, 9669, Note_off_c, 9, 69, 0
1, 9695, Note_off_c, 3, 58, 0
1, 9696, Note_on_c, 3, 56, 109
1, 9700, Note_off_c, 9, 42, 0
1, 9744, Note_on_c, 9, 42, 80
1, 9767, Note_off_c, 9, 42, 0
1, 9791, Note_off_c, 3, 56, 0
1, 9792, Note_on_c, 9, 36, 115
1, 9792, Note_on_c, 9, 37, 124
1, 9792, Note_on_c, 9, 42, 91
1, 9792, Note_on_c, 9, 69, 74
1, 9792, Note_on_c, 3, 54, 104
1, 9808, Note_off_c, 9, 36, 0
1, 9810, Note_off_c, 9, 37, 0
1, 9810, Note_off_c, 9, 69, 0
1, 9840, Note_on_c, 1, 35, 85
1, 9847, Note_off_c, 9, 42, 0
1, 9881, Note_off_c, 7, 63, 0
1, 9885, Note_off_c, 3, 54, 0
1, 9888, Note_on_c, 9, 42, 82
1, 9888, Note_on_c, 3, 53, 114
1, 9888, Note_on_c, 7, 61, 95
1, 9897, Note_off_c, 5, 61, 0
1, 9903, Note_off_c, 5, 66, 0
1, 9907, Note_off_c, 5, 63, 0
1, 9910, Note_off_c, 5, 54, 0
1, 9912, Note_off_c, 9, 42, 0
1, 9934, Note_off_c, 1, 35, 0
1, 9936, Note_on_c, 9, 42, 60
1, 9936, Note_off_c, 2, 61, 0
1, 9936, Note_on_c, 7, 63, 95
1, 9938, Note_off_c, 2, 63, 0
1, 9941, Note_off_c, 2, 66, 0
1, 9942, Note_off_c, 2, 54, 0
1, 9947, Note_off_c, 7, 61, 0
1, 9965, Note_off_c, 9, 42, 0
1, 9970, Note_off_c, 11, 66, 0
1, 9983, Note_off_c, 3, 53, 0
1, 9984, Note_on_c, 9, 36, 122
1, 9984, Note_on_c, 9, 42, 104
1, 9984, Note_on_c, 9, 69, 68
1, 9984, Note_on_c, 1, 34, 114
1, 9984, Note_on_c, 2, 58, 82
1, 9984, Note_on_c, 2, 63, 78
1, 9984, Note_on_c, 2, 65, 74
1, 9984, Note_on_c, 2, 68, 78
1, 9984, Note_on_c, 3, 56, 109
1, 9984, Note_on_c, 5, 58, 61
1, 9984, Note_on_c, 5, 63, 58
1, 9984, Note_on_c, 5, 65, 61
1, 9984, Note_on_c, 5, 68, 64
1, 9984, Note_on_c, 7, 58, 95
1, 9984, Note_on_c, 11, 65, 58
1, 9992, Note_off_c, 7, 63, 0
1, 10001, Note_off_c, 9, 36, 0
1, 10003, Note_off_c, 9, 69, 0
1, 10007, Note_off_c, 1, 34, 0
1, 10032, Note_on_c, 9, 36, 115
1, 10032, Note_on_c, 9, 69, 63
1, 10032, Note_on_c, 1, 34, 114
1, 10033, Note_off_c, 3, 56, 0
1, 10035, Note_off_c, 9, 42, 0
1, 10049, Note_off_c, 9, 36, 0
1, 10053, Note_off_c, 9, 69, 0
1, 10057, Note_off_c, 1, 34, 0
1, 10080, Note_on_c, 9, 42, 74
1, 10080, Note_on_c, 3, 56, 114
1, 10107, Note_off_c, 9, 42, 0
1, 10128, Note_on_c, 9, 42, 71
1, 10156, Note_off_c, 9, 42, 0
1, 10163, Note_off_c, 3, 56, 0
1, 10176, Note_on_c, 9, 37, 124
1, 10176, Note_on_c, 9, 42, 82
1, 10176, Note_on_c, 9, 69, 62
1, 10176, Note_on_c, 1, 34, 114
1, 10176, Note_on_c, 3, 58, 104
1, 10194, Note_off_c, 9, 37, 0
1, 10198, Note_off_c, 9, 69, 0
1, 10206, Note_off_c, 3, 58, 0
1, 10226, Note_off_c, 9, 42, 0
1, 10250, Note_off_c, 1, 34, 0
1, 10272, Note_on_c, 9, 36, 119
1, 10272, Note_on_c, 9, 42, 82
1, 10272, Note_on_c, 3, 56, 114
1, 10272, Note_on_c, 11, 58, 48
1, 10288, Note_off_c, 9, 36, 0
1, 10299, Note_off_c, 9, 42, 0
1, 10320, Note_on_c, 9, 36, 115
1, 10320, Note_on_c, 9, 42, 71
1, 10320, Note_on_c, 9, 69, 70
1, 10326, Note_off_c, 5, 65, 0
1, 10328, Note_off_c, 5, 68, 0
1, 10329, Note_off_c, 5, 63, 0
1, 10333, Note_off_c, 5, 58, 0
1, 10336, Note_off_c, 11, 65, 0
1, 10338, Note_off_c, 9, 36, 0
1, 10343, Note_off_c, 9, 69, 0
1, 10366, Note_off_c, 2, 58, 0
1, 10367, Note_off_c, 2, 63, 0
1, 10368, Note_off_c, 2, 65, 0
1, 10368, Note_on_c, 5, 58, 66
1, 10368, Note_on_c, 5, 62, 62
1, 10368, Note_on_c, 5, 65, 59
1, 10368, Note_on_c, 5, 68, 64
1, 10369, Note_off_c, 9, 42, 0
1, 10370, Note_off_c, 2, 68, 0
1, 10416, Note_on_c, 9, 36, 115
1, 10416, Note_on_c, 9, 37, 124
1, 10416, Note_on_c, 9, 42, 91
1, 10416, Note_on_c, 9, 69, 71
1, 10416, Note_on_c, 2, 58, 82
1, 10416, Note_on_c, 2, 62, 85
1, 10416, Note_on_c, 2, 65, 80
1, 10416, Note_on_c, 2, 68, 80
1, 10432, Note_off_c, 9, 36, 0
1, 10432, Note_off_c, 9, 37, 0
1, 10437, Note_off_c, 9, 69, 0
1, 10444, Note_off_c, 7, 58, 0
1, 10452, Note_off_c, 9, 42, 0
1, 10462, Note_off_c, 3, 56, 0
1, 10464, Note_on_c, 9, 37, 118
1, 10464, Note_on_c, 1, 26, 120
1, 10464, Note_on_c, 7, 56, 104
1, 10512, Note_on_c, 9, 42, 91
1, 10512, Note_on_c, 7, 58, 91
1, 10519, Note_off_c, 7, 56, 0
1, 10547, Note_off_c, 9, 42, 0
1, 10559, Note_off_c, 9, 37, 0
1, 10560, Note_on_c, 9, 37, 118
1, 10560, Note_on_c, 9, 46, 95
1, 10560, Note_on_c, 9, 69, 74
1, 10578, Note_off_c, 9, 69, 0
1, 10588, Note_off_c, 9, 46, 0
1, 10608, Note_on_c, 3, 53, 120
1, 10655, Note_off_c, 9, 37, 0
1, 10655, Note_off_c, 1, 26, 0
1, 10656, Note_on_c, 1, 26, 114
1, 10656, Note_on_c, 7, 62, 88
1, 10657, Note_off_c, 7, 58, 0
1, 10670, Note_off_c, 11, 58, 0
1, 10672, Note_off_c, 5, 58, 0
1, 10673, Note_off_c, 5, 62, 0
1, 10678, Note_off_c, 5, 65, 0
1, 10680, Note_off_c, 5, 68, 0
1, 10709, Note_off_c, 1, 26, 0
1, 10723, Note_off_c, 2, 58, 0
1, 10724, Note_off_c, 2, 62, 0
1, 10725, Note_off_c, 2, 65, 0
1, 10730, Note_off_c, 2, 68, 0
1, 10739, Note_off_c, 3, 53, 0
1, 10752, Note_on_c, 9, 36, 119
1, 10752, Note_on_c, 9, 42, 114
1, 10752, Note_on_c, 9, 69, 68
1, 10752, Note_on_c, 1, 27, 127
1, 10752, Note_on_c, 2, 61, 61
1, 10752, Note_on_c, 2, 63, 66
1, 10752, Note_on_c, 2, 66, 73
1, 10752, Note_on_c, 2, 70, 68
1, 10752, Note_on_c, 3, 51, 114
1, 10752, Note_on_c, 5, 58, 57
1, 10752, Note_on_c, 5, 61, 33
1, 10752, Note_on_c, 5, 63, 43
1, 10752, Note_on_c, 5, 66, 53
1, 10752, Note_on_c, 7, 63, 109
1, 10758, Note_off_c, 7, 62, 0
1, 10771, Note_off_c, 9, 69, 0
1, 10773, Note_off_c, 9, 36, 0
1, 10774, Note_off_c, 1, 27, 0
1, 10778, Note_off_c, 9, 42, 0
1, 10800, Note_on_c, 9, 36, 86
1, 10800, Note_on_c, 9, 42, 80
1, 10800, Note_on_c, 9, 69, 63
1, 10800, Note_on_c, 1, 27, 124
1, 10821, Note_off_c, 9, 69, 0
1, 10826, Note_off_c, 9, 36, 0
1, 10840, Note_off_c, 3, 51, 0
1, 10841, Note_off_c, 9, 42, 0
1, 10865, Note_off_c, 1, 27, 0
1, 10944, Note_on_c, 9, 37, 124
1, 10944, Note_on_c, 9, 42, 104
1, 10944, Note_on_c, 9, 69, 62
1, 10944, Note_on_c, 1, 27, 124
1, 10944, Note_on_c, 11, 70, 57
1, 10962, Note_off_c, 9, 37, 0
1, 10966, Note_off_c, 9, 69, 0
1, 10981, Note_off_c, 9, 42, 0
1, 10992, Note_on_c, 3, 51, 75
1, 11004, Note_off_c, 3, 51, 0
1, 11040, Note_on_c, 9, 42, 82
1, 11040, Note_on_c, 3, 51, 95
1, 11065, Note_off_c, 9, 42, 0
1, 11068, Note_off_c, 3, 51, 0
1, 11072, Note_off_c, 1, 27, 0
1, 11088, Note_on_c, 9, 42, 66
1, 11088, Note_on_c, 9, 69, 70
1, 11088, Note_on_c, 3, 51, 91
1, 11109, Note_off_c, 3, 51, 0
1, 11111, Note_off_c, 9, 69, 0
1, 11115, Note_off_c, 9, 42, 0
1, 11136, Note_on_c, 3, 51, 104
1, 11155, Note_off_c, 3, 51, 0
1, 11184, Note_on_c, 9, 69, 71
1, 11184, Note_on_c, 3, 51, 95
1, 11203, Note_off_c, 7, 63, 0
1, 11205, Note_off_c, 9, 69, 0
1, 11205, Note_off_c, 3, 51, 0
1, 11232, Note_on_c, 9, 42, 82
1, 11232, Note_on_c, 3, 51, 95
1, 11232, Note_on_c, 7, 63, 104
1, 11255, Note_off_c, 3, 51, 0
1, 11259, Note_off_c, 9, 42, 0
1, 11280, Note_on_c, 3, 51, 82
1, 11290, Note_off_c, 2, 63, 0
1, 11292, Note_off_c, 2, 61, 0
1, 11292, Note_off_c, 2, 66, 0
1, 11297, Note_off_c, 2, 70, 0
1, 11301, Note_off_c, 3, 51, 0
1, 11307, Note_off_c, 7, 63, 0
1, 11328, Note_on_c, 9, 37, 124
1, 11328, Note_on_c, 9, 42, 104
1, 11328, Note_on_c, 9, 69, 74
1, 11328, Note_on_c, 2, 58, 74
1, 11328, Note_on_c, 2, 61, 60
1, 11328, Note_on_c, 2, 63, 78
1, 11328, Note_on_c, 2, 66, 63
1, 11328, Note_on_c, 3, 51, 124
1, 11328, Note_on_c, 7, 63, 91
1, 11334, Control_c, 0, 123, 0
1, 11336, Control_c, 0, 120, 0
1, 11338, Control_c, 0, 121, 0
1, 11342, Control_c, 1, 123, 0
1, 11344, Control_c, 1, 120, 0
1, 11346, Control_c, 1, 121, 0
1, 11350, Control_c, 2, 123, 0
1, 11352, Control_c, 2, 120, 0
1, 11354, Control_c, 2, 121, 0
1, 11358, Control_c, 3, 123, 0
1, 11360, Control_c, 3, 120, 0
1, 11362, Control_c, 3, 121, 0
1, 11366, Control_c, 4, 123, 0
1, 11368, Control_c, 4, 120, 0
1, 11370, Control_c, 4, 121, 0
1, 11374, Control_c, 5, 123, 0
1, 11376, Control_c, 5, 120, 0
1, 11378, Control_c, 5, 121, 0
1, 11382, Control_c, 6, 123, 0
1, 11384, Control_c, 6, 120, 0
1, 11386, Control_c, 6, 121, 0
1, 11390, Control_c, 7, 123, 0
1, 11392, Control_c, 7, 120, 0
1, 11394, Control_c, 7, 121, 0
1, 11398, Control_c, 8, 123, 0
1, 11400, Control_c, 8, 120, 0
1, 11402, Control_c, 8, 121, 0
1, 11406, Control_c, 9, 123, 0
1, 11408, Control_c, 9, 120, 0
1, 11410, Control_c, 9, 121, 0
1, 11414, Control_c, 10, 123, 0
1, 11416, Control_c, 10, 120, 0
1, 11418, Control_c, 10, 121, 0
1, 11422, Control_c, 11, 123, 0
1, 11424, Control_c, 11, 120, 0
1, 11426, Control_c, 11, 121, 0
1, 11430, Control_c, 12, 123, 0
1, 11432, Control_c, 12, 120, 0
1, 11434, Control_c, 12, 121, 0
1, 11438, Control_c, 13, 123, 0
1, 11440, Control_c, 13, 120, 0
1, 11442, Control_c, 13, 121, 0
1, 11446, Control_c, 14, 123, 0
1, 11448, Control_c, 14, 120, 0
1, 11450, Control_c, 14, 121, 0
1, 11454, Control_c, 15, 123, 0
1, 11456, Control_c, 15, 120, 0
1, 11458, Control_c, 15, 121, 0
1, 11462, System_exclusive, 5, 126, 127, 9, 2, 247
1, 11464, System_exclusive, 10, 65, 16, 66, 18, 64, 0, 127, 127, 66, 247
1, 11464, End_track
0, 0, End_of_file
