0, 0, Header, 1, 14, 192
1, 0, Start_track
1, 0, Title_t, "untitled"
1, 0, SMPTE_offset, 96, 0, 3, 0, 0
1, 0, MIDI_port, 0
1, 0, System_exclusive, 5, 126, 127, 9, 1, 247
1, 0, MIDI_port, 0
1, 0, System_exclusive, 10, 65, 16, 66, 18, 64, 0, 127, 0, 65, 247
1, 0, MIDI_port, 0
1, 0, System_exclusive, 8, 67, 16, 76, 0, 0, 126, 0, 247
1, 0, MIDI_port, 0
1, 0, Time_signature, 4, 2, 24, 8
1, 0, Key_signature, 1, "major"
1, 0, Tempo, 408163
1, 0, Marker_t, "HOW HIGH THE MOON"
1, 0, End_track
2, 0, Start_track
2, 0, MIDI_port, 0
2, 0, End_track
3, 0, Start_track
3, 0, MIDI_port, 0
3, 0, Title_t, "Bass"
3, 0, Control_c, 1, 0, 0
3, 0, Control_c, 1, 121, 0
3, 2, Control_c, 1, 91, 40
3, 197, Control_c, 1, 0, 0
3, 198, Control_c, 1, 32, 0
3, 199, Program_c, 1, 33
3, 200, Control_c, 1, 7, 90
3, 200, Control_c, 1, 10, 34
3, 1536, Note_on_c, 1, 35, 100
3, 1912, Note_on_c, 1, 35, 0
3, 1920, Note_on_c, 1, 34, 100
3, 1998, Note_on_c, 1, 34, 0
3, 2112, Note_on_c, 1, 34, 100
3, 2222, Note_on_c, 1, 34, 0
3, 2304, Note_on_c, 1, 33, 100
3, 2680, Note_on_c, 1, 33, 0
3, 2688, Note_on_c, 1, 38, 100
3, 2766, Note_on_c, 1, 38, 0
3, 2880, Note_on_c, 1, 38, 100
3, 2990, Note_on_c, 1, 38, 0
3, 3072, Note_on_c, 1, 31, 100
3, 3495, Note_on_c, 1, 31, 0
3, 3552, Note_on_c, 1, 31, 80
3, 3740, Note_on_c, 1, 31, 0
3, 3744, Note_on_c, 1, 32, 80
3, 3838, Note_on_c, 1, 32, 0
3, 3840, Note_on_c, 1, 33, 100
3, 4216, Note_on_c, 1, 33, 0
3, 4224, Note_on_c, 1, 38, 100
3, 4600, Note_on_c, 1, 38, 0
3, 4608, Note_on_c, 1, 31, 100
3, 4702, Note_on_c, 1, 31, 0
3, 4704, Note_on_c, 1, 31, 100
3, 4767, Note_on_c, 1, 31, 0
3, 4896, Note_on_c, 1, 31, 100
3, 5079, Note_on_c, 1, 31, 0
3, 5088, Note_on_c, 1, 29, 80
3, 5276, Note_on_c, 1, 29, 0
3, 5280, Note_on_c, 1, 30, 80
3, 5292, Note_on_c, 1, 30, 0
3, 5376, Note_on_c, 1, 31, 100
3, 5470, Note_on_c, 1, 31, 0
3, 5664, Note_on_c, 1, 35, 80
3, 5676, Note_on_c, 1, 35, 0
3, 5760, Note_on_c, 1, 31, 100
3, 5854, Note_on_c, 1, 31, 0
3, 5856, Note_on_c, 1, 30, 80
3, 5950, Note_on_c, 1, 30, 0
3, 5952, Note_on_c, 1, 29, 80
3, 6046, Note_on_c, 1, 29, 0
3, 6048, Note_on_c, 1, 30, 80
3, 6079, Note_on_c, 1, 30, 0
3, 6144, Note_on_c, 1, 31, 100
3, 6238, Note_on_c, 1, 31, 0
3, 6240, Note_on_c, 1, 31, 100
3, 6303, Note_on_c, 1, 31, 0
3, 6432, Note_on_c, 1, 31, 100
3, 6526, Note_on_c, 1, 31, 0
3, 6528, Note_on_c, 1, 29, 80
3, 6559, Note_on_c, 1, 29, 0
3, 6624, Note_on_c, 1, 31, 80
3, 6718, Note_on_c, 1, 31, 0
3, 6720, Note_on_c, 1, 34, 80
3, 6732, Note_on_c, 1, 34, 0
3, 6816, Note_on_c, 1, 35, 80
3, 6910, Note_on_c, 1, 35, 0
3, 6912, Note_on_c, 1, 36, 100
3, 7006, Note_on_c, 1, 36, 0
3, 7200, Note_on_c, 1, 36, 100
3, 7383, Note_on_c, 1, 36, 0
3, 7392, Note_on_c, 1, 31, 80
3, 7486, Note_on_c, 1, 31, 0
3, 7488, Note_on_c, 1, 29, 80
3, 7582, Note_on_c, 1, 29, 0
3, 7584, Note_on_c, 1, 28, 80
3, 7678, Note_on_c, 1, 28, 0
3, 7680, Note_on_c, 1, 29, 100
3, 7774, Note_on_c, 1, 29, 0
3, 7968, Note_on_c, 1, 29, 100
3, 8057, Note_on_c, 1, 29, 0
3, 8064, Note_on_c, 1, 29, 100
3, 8158, Note_on_c, 1, 29, 0
3, 8160, Note_on_c, 1, 31, 80
3, 8172, Note_on_c, 1, 31, 0
3, 8256, Note_on_c, 1, 33, 80
3, 8350, Note_on_c, 1, 33, 0
3, 8352, Note_on_c, 1, 31, 80
3, 8364, Note_on_c, 1, 31, 0
3, 8448, Note_on_c, 1, 29, 100
3, 8537, Note_on_c, 1, 29, 0
3, 8544, Note_on_c, 1, 36, 80
3, 8638, Note_on_c, 1, 36, 0
3, 8640, Note_on_c, 1, 33, 80
3, 8734, Note_on_c, 1, 33, 0
3, 8736, Note_on_c, 1, 31, 100
3, 8748, Note_on_c, 1, 31, 0
3, 8832, Note_on_c, 1, 29, 80
3, 8926, Note_on_c, 1, 29, 0
3, 8928, Note_on_c, 1, 31, 80
3, 9022, Note_on_c, 1, 31, 0
3, 9024, Note_on_c, 1, 29, 80
3, 9036, Note_on_c, 1, 29, 0
3, 9120, Note_on_c, 1, 31, 80
3, 9151, Note_on_c, 1, 31, 0
3, 9216, Note_on_c, 1, 29, 100
3, 9310, Note_on_c, 1, 29, 0
3, 9504, Note_on_c, 1, 29, 100
3, 9687, Note_on_c, 1, 29, 0
3, 9696, Note_on_c, 1, 32, 80
3, 9884, Note_on_c, 1, 32, 0
3, 9888, Note_on_c, 1, 33, 80
3, 9982, Note_on_c, 1, 33, 0
3, 9984, Note_on_c, 1, 34, 100
3, 10073, Note_on_c, 1, 34, 0
3, 10080, Note_on_c, 1, 34, 80
3, 10174, Note_on_c, 1, 34, 0
3, 10176, Note_on_c, 1, 31, 80
3, 10270, Note_on_c, 1, 31, 0
3, 10272, Note_on_c, 1, 34, 100
3, 10303, Note_on_c, 1, 34, 0
3, 10464, Note_on_c, 1, 36, 80
3, 10558, Note_on_c, 1, 36, 0
3, 10560, Note_on_c, 1, 37, 80
3, 10572, Note_on_c, 1, 37, 0
3, 10656, Note_on_c, 1, 38, 80
3, 10750, Note_on_c, 1, 38, 0
3, 10752, Note_on_c, 1, 39, 100
3, 10846, Note_on_c, 1, 39, 0
3, 10848, Note_on_c, 1, 39, 100
3, 10911, Note_on_c, 1, 39, 0
3, 11040, Note_on_c, 1, 39, 100
3, 11223, Note_on_c, 1, 39, 0
3, 11232, Note_on_c, 1, 38, 80
3, 11244, Note_on_c, 1, 38, 0
3, 11328, Note_on_c, 1, 34, 100
3, 11340, Note_on_c, 1, 34, 0
3, 11424, Note_on_c, 1, 31, 80
3, 11518, Note_on_c, 1, 31, 0
3, 11520, Note_on_c, 1, 33, 100
3, 11614, Note_on_c, 1, 33, 0
3, 11616, Note_on_c, 1, 33, 80
3, 11710, Note_on_c, 1, 33, 0
3, 11712, Note_on_c, 1, 36, 80
3, 11806, Note_on_c, 1, 36, 0
3, 11808, Note_on_c, 1, 37, 80
3, 11902, Note_on_c, 1, 37, 0
3, 11904, Note_on_c, 1, 38, 100
3, 11993, Note_on_c, 1, 38, 0
3, 12000, Note_on_c, 1, 28, 80
3, 12094, Note_on_c, 1, 28, 0
3, 12096, Note_on_c, 1, 29, 80
3, 12127, Note_on_c, 1, 29, 0
3, 12192, Note_on_c, 1, 30, 80
3, 12286, Note_on_c, 1, 30, 0
3, 12288, Note_on_c, 1, 31, 100
3, 12377, Note_on_c, 1, 31, 0
3, 12384, Note_on_c, 1, 36, 80
3, 12572, Note_on_c, 1, 36, 0
3, 12576, Note_on_c, 1, 34, 80
3, 12670, Note_on_c, 1, 34, 0
3, 12672, Note_on_c, 1, 31, 100
3, 12766, Note_on_c, 1, 31, 0
3, 12768, Note_on_c, 1, 29, 80
3, 12862, Note_on_c, 1, 29, 0
3, 12864, Note_on_c, 1, 31, 80
3, 12958, Note_on_c, 1, 31, 0
3, 12960, Note_on_c, 1, 32, 80
3, 12972, Note_on_c, 1, 32, 0
3, 13056, Note_on_c, 1, 33, 100
3, 13150, Note_on_c, 1, 33, 0
3, 13152, Note_on_c, 1, 33, 80
3, 13246, Note_on_c, 1, 33, 0
3, 13248, Note_on_c, 1, 36, 80
3, 13342, Note_on_c, 1, 36, 0
3, 13344, Note_on_c, 1, 37, 80
3, 13375, Note_on_c, 1, 37, 0
3, 13440, Note_on_c, 1, 38, 100
3, 13534, Note_on_c, 1, 38, 0
3, 13536, Note_on_c, 1, 30, 80
3, 13630, Note_on_c, 1, 30, 0
3, 13632, Note_on_c, 1, 29, 80
3, 13644, Note_on_c, 1, 29, 0
3, 13728, Note_on_c, 1, 30, 80
3, 13740, Note_on_c, 1, 30, 0
3, 13824, Note_on_c, 1, 31, 100
3, 13918, Note_on_c, 1, 31, 0
3, 13920, Note_on_c, 1, 31, 100
3, 13983, Note_on_c, 1, 31, 0
3, 14112, Note_on_c, 1, 31, 100
3, 14295, Note_on_c, 1, 31, 0
3, 14304, Note_on_c, 1, 31, 80
3, 14316, Note_on_c, 1, 31, 0
3, 14400, Note_on_c, 1, 33, 100
3, 14412, Note_on_c, 1, 33, 0
3, 14496, Note_on_c, 1, 31, 80
3, 14590, Note_on_c, 1, 31, 0
3, 14592, Note_on_c, 1, 33, 100
3, 14686, Note_on_c, 1, 33, 0
3, 14688, Note_on_c, 1, 36, 80
3, 14700, Note_on_c, 1, 36, 0
3, 14880, Note_on_c, 1, 37, 80
3, 14974, Note_on_c, 1, 37, 0
3, 14976, Note_on_c, 1, 38, 100
3, 15070, Note_on_c, 1, 38, 0
3, 15072, Note_on_c, 1, 30, 80
3, 15166, Note_on_c, 1, 30, 0
3, 15168, Note_on_c, 1, 33, 80
3, 15262, Note_on_c, 1, 33, 0
3, 15264, Note_on_c, 1, 34, 80
3, 15358, Note_on_c, 1, 34, 0
3, 15360, Note_on_c, 1, 35, 100
3, 15454, Note_on_c, 1, 35, 0
3, 15456, Note_on_c, 1, 30, 80
3, 15550, Note_on_c, 1, 30, 0
3, 15552, Note_on_c, 1, 32, 80
3, 15646, Note_on_c, 1, 32, 0
3, 15648, Note_on_c, 1, 33, 80
3, 15660, Note_on_c, 1, 33, 0
3, 15744, Note_on_c, 1, 34, 100
3, 15833, Note_on_c, 1, 34, 0
3, 15840, Note_on_c, 1, 31, 80
3, 15934, Note_on_c, 1, 31, 0
3, 15936, Note_on_c, 1, 29, 100
3, 16030, Note_on_c, 1, 29, 0
3, 16032, Note_on_c, 1, 31, 80
3, 16126, Note_on_c, 1, 31, 0
3, 16128, Note_on_c, 1, 33, 100
3, 16222, Note_on_c, 1, 33, 0
3, 16224, Note_on_c, 1, 33, 80
3, 16318, Note_on_c, 1, 33, 0
3, 16320, Note_on_c, 1, 36, 80
3, 16414, Note_on_c, 1, 36, 0
3, 16416, Note_on_c, 1, 37, 80
3, 16510, Note_on_c, 1, 37, 0
3, 16512, Note_on_c, 1, 38, 100
3, 16606, Note_on_c, 1, 38, 0
3, 16608, Note_on_c, 1, 30, 80
3, 16620, Note_on_c, 1, 30, 0
3, 16704, Note_on_c, 1, 29, 80
3, 16798, Note_on_c, 1, 29, 0
3, 16800, Note_on_c, 1, 30, 80
3, 16894, Note_on_c, 1, 30, 0
3, 16896, Note_on_c, 1, 31, 100
3, 16990, Note_on_c, 1, 31, 0
3, 16992, Note_on_c, 1, 31, 100
3, 17055, Note_on_c, 1, 31, 0
3, 17184, Note_on_c, 1, 31, 100
3, 17262, Note_on_c, 1, 31, 0
3, 17376, Note_on_c, 1, 31, 100
3, 17658, Note_on_c, 1, 31, 0
3, 17664, Note_on_c, 1, 31, 100
3, 17758, Note_on_c, 1, 31, 0
3, 17952, Note_on_c, 1, 33, 80
3, 18046, Note_on_c, 1, 33, 0
3, 18048, Note_on_c, 1, 31, 100
3, 18142, Note_on_c, 1, 31, 0
3, 18144, Note_on_c, 1, 28, 80
3, 18238, Note_on_c, 1, 28, 0
3, 18240, Note_on_c, 1, 29, 80
3, 18252, Note_on_c, 1, 29, 0
3, 18336, Note_on_c, 1, 30, 80
3, 18430, Note_on_c, 1, 30, 0
3, 18432, Note_on_c, 1, 31, 100
3, 18526, Note_on_c, 1, 31, 0
3, 18528, Note_on_c, 1, 31, 100
3, 18591, Note_on_c, 1, 31, 0
3, 18720, Note_on_c, 1, 29, 80
3, 18814, Note_on_c, 1, 29, 0
3, 18816, Note_on_c, 1, 31, 100
3, 18910, Note_on_c, 1, 31, 0
3, 18912, Note_on_c, 1, 29, 80
3, 18943, Note_on_c, 1, 29, 0
3, 19008, Note_on_c, 1, 31, 80
3, 19102, Note_on_c, 1, 31, 0
3, 19104, Note_on_c, 1, 34, 80
3, 19198, Note_on_c, 1, 34, 0
3, 19200, Note_on_c, 1, 36, 100
3, 19294, Note_on_c, 1, 36, 0
3, 19296, Note_on_c, 1, 38, 80
3, 19390, Note_on_c, 1, 38, 0
3, 19392, Note_on_c, 1, 36, 100
3, 19486, Note_on_c, 1, 36, 0
3, 19488, Note_on_c, 1, 33, 80
3, 19582, Note_on_c, 1, 33, 0
3, 19584, Note_on_c, 1, 31, 100
3, 19678, Note_on_c, 1, 31, 0
3, 19680, Note_on_c, 1, 29, 80
3, 19868, Note_on_c, 1, 29, 0
3, 19872, Note_on_c, 1, 28, 80
3, 19966, Note_on_c, 1, 28, 0
3, 19968, Note_on_c, 1, 29, 100
3, 20062, Note_on_c, 1, 29, 0
3, 20064, Note_on_c, 1, 29, 100
3, 20127, Note_on_c, 1, 29, 0
3, 20256, Note_on_c, 1, 29, 100
3, 20627, Note_on_c, 1, 29, 0
3, 20640, Note_on_c, 1, 29, 80
3, 20734, Note_on_c, 1, 29, 0
3, 20736, Note_on_c, 1, 31, 100
3, 20830, Note_on_c, 1, 31, 0
3, 20832, Note_on_c, 1, 33, 80
3, 20926, Note_on_c, 1, 33, 0
3, 20928, Note_on_c, 1, 31, 80
3, 21022, Note_on_c, 1, 31, 0
3, 21024, Note_on_c, 1, 29, 100
3, 21212, Note_on_c, 1, 29, 0
3, 21216, Note_on_c, 1, 31, 80
3, 21310, Note_on_c, 1, 31, 0
3, 21312, Note_on_c, 1, 29, 80
3, 21406, Note_on_c, 1, 29, 0
3, 21408, Note_on_c, 1, 28, 80
3, 21502, Note_on_c, 1, 28, 0
3, 21504, Note_on_c, 1, 29, 100
3, 21598, Note_on_c, 1, 29, 0
3, 21792, Note_on_c, 1, 29, 100
3, 21975, Note_on_c, 1, 29, 0
3, 21984, Note_on_c, 1, 29, 100
3, 22172, Note_on_c, 1, 29, 0
3, 22176, Note_on_c, 1, 32, 80
3, 22188, Note_on_c, 1, 32, 0
3, 22272, Note_on_c, 1, 34, 100
3, 22366, Note_on_c, 1, 34, 0
3, 22368, Note_on_c, 1, 34, 100
3, 22431, Note_on_c, 1, 34, 0
3, 22560, Note_on_c, 1, 34, 80
3, 22654, Note_on_c, 1, 34, 0
3, 22656, Note_on_c, 1, 38, 100
3, 22750, Note_on_c, 1, 38, 0
3, 22752, Note_on_c, 1, 37, 80
3, 22940, Note_on_c, 1, 37, 0
3, 22944, Note_on_c, 1, 38, 80
3, 23038, Note_on_c, 1, 38, 0
3, 23040, Note_on_c, 1, 39, 100
3, 23134, Note_on_c, 1, 39, 0
3, 23136, Note_on_c, 1, 36, 100
3, 23148, Note_on_c, 1, 36, 0
3, 23328, Note_on_c, 1, 34, 100
3, 23516, Note_on_c, 1, 34, 0
3, 23520, Note_on_c, 1, 31, 80
3, 23708, Note_on_c, 1, 31, 0
3, 23712, Note_on_c, 1, 32, 80
3, 23806, Note_on_c, 1, 32, 0
3, 23808, Note_on_c, 1, 33, 100
3, 23902, Note_on_c, 1, 33, 0
3, 23904, Note_on_c, 1, 33, 80
3, 23916, Note_on_c, 1, 33, 0
3, 24000, Note_on_c, 1, 36, 80
3, 24094, Note_on_c, 1, 36, 0
3, 24096, Note_on_c, 1, 37, 80
3, 24190, Note_on_c, 1, 37, 0
3, 24192, Note_on_c, 1, 38, 100
3, 24286, Note_on_c, 1, 38, 0
3, 24288, Note_on_c, 1, 28, 80
3, 24382, Note_on_c, 1, 28, 0
3, 24384, Note_on_c, 1, 29, 80
3, 24478, Note_on_c, 1, 29, 0
3, 24480, Note_on_c, 1, 30, 80
3, 24574, Note_on_c, 1, 30, 0
3, 24576, Note_on_c, 1, 31, 100
3, 24670, Note_on_c, 1, 31, 0
3, 24864, Note_on_c, 1, 31, 100
3, 25047, Note_on_c, 1, 31, 0
3, 25056, Note_on_c, 1, 38, 80
3, 25068, Note_on_c, 1, 38, 0
3, 25152, Note_on_c, 1, 35, 100
3, 25246, Note_on_c, 1, 35, 0
3, 25248, Note_on_c, 1, 31, 80
3, 25279, Note_on_c, 1, 31, 0
3, 25344, Note_on_c, 1, 33, 100
3, 25438, Note_on_c, 1, 33, 0
3, 25440, Note_on_c, 1, 36, 80
3, 25452, Note_on_c, 1, 36, 0
3, 25536, Note_on_c, 1, 33, 100
3, 25630, Note_on_c, 1, 33, 0
3, 25632, Note_on_c, 1, 36, 80
3, 25726, Note_on_c, 1, 36, 0
3, 25728, Note_on_c, 1, 38, 100
3, 25822, Note_on_c, 1, 38, 0
3, 25824, Note_on_c, 1, 32, 80
3, 25918, Note_on_c, 1, 32, 0
3, 25920, Note_on_c, 1, 33, 80
3, 25951, Note_on_c, 1, 33, 0
3, 26016, Note_on_c, 1, 34, 80
3, 26110, Note_on_c, 1, 34, 0
3, 26112, Note_on_c, 1, 35, 100
3, 26206, Note_on_c, 1, 35, 0
3, 26208, Note_on_c, 1, 33, 80
3, 26302, Note_on_c, 1, 33, 0
3, 26304, Note_on_c, 1, 30, 100
3, 26398, Note_on_c, 1, 30, 0
3, 26400, Note_on_c, 1, 33, 80
3, 26494, Note_on_c, 1, 33, 0
3, 26496, Note_on_c, 1, 34, 100
3, 26585, Note_on_c, 1, 34, 0
3, 26592, Note_on_c, 1, 29, 80
3, 26623, Note_on_c, 1, 29, 0
3, 26688, Note_on_c, 1, 31, 80
3, 26782, Note_on_c, 1, 31, 0
3, 26784, Note_on_c, 1, 32, 80
3, 26878, Note_on_c, 1, 32, 0
3, 26880, Note_on_c, 1, 33, 100
3, 26974, Note_on_c, 1, 33, 0
3, 26976, Note_on_c, 1, 36, 80
3, 27070, Note_on_c, 1, 36, 0
3, 27072, Note_on_c, 1, 33, 100
3, 27166, Note_on_c, 1, 33, 0
3, 27168, Note_on_c, 1, 36, 80
3, 27262, Note_on_c, 1, 36, 0
3, 27264, Note_on_c, 1, 38, 100
3, 27358, Note_on_c, 1, 38, 0
3, 27360, Note_on_c, 1, 28, 80
3, 27454, Note_on_c, 1, 28, 0
3, 27456, Note_on_c, 1, 29, 80
3, 27487, Note_on_c, 1, 29, 0
3, 27552, Note_on_c, 1, 30, 80
3, 27646, Note_on_c, 1, 30, 0
3, 27648, Note_on_c, 1, 31, 100
3, 27742, Note_on_c, 1, 31, 0
3, 27744, Note_on_c, 1, 31, 100
3, 27807, Note_on_c, 1, 31, 0
3, 27936, Note_on_c, 1, 31, 100
3, 28014, Note_on_c, 1, 31, 0
3, 28128, Note_on_c, 1, 31, 80
3, 28222, Note_on_c, 1, 31, 0
3, 28224, Note_on_c, 1, 28, 100
3, 28318, Note_on_c, 1, 28, 0
3, 28320, Note_on_c, 1, 31, 80
3, 28414, Note_on_c, 1, 31, 0
3, 28416, Note_on_c, 1, 33, 100
3, 28510, Note_on_c, 1, 33, 0
3, 28512, Note_on_c, 1, 38, 80
3, 28606, Note_on_c, 1, 38, 0
3, 28608, Note_on_c, 1, 36, 80
3, 28702, Note_on_c, 1, 36, 0
3, 28704, Note_on_c, 1, 37, 80
3, 28798, Note_on_c, 1, 37, 0
3, 28800, Note_on_c, 1, 38, 100
3, 28894, Note_on_c, 1, 38, 0
3, 28896, Note_on_c, 1, 38, 100
3, 28959, Note_on_c, 1, 38, 0
3, 29088, Note_on_c, 1, 38, 100
3, 29182, Note_on_c, 1, 38, 0
3, 29184, Note_on_c, 1, 31, 100
3, 29278, Note_on_c, 1, 31, 0
3, 29280, Note_on_c, 1, 31, 100
3, 29343, Note_on_c, 1, 31, 0
3, 29472, Note_on_c, 1, 31, 100
3, 29550, Note_on_c, 1, 31, 0
3, 29664, Note_on_c, 1, 31, 100
3, 29946, Note_on_c, 1, 31, 0
3, 29952, Note_on_c, 1, 31, 100
3, 30046, Note_on_c, 1, 31, 0
3, 30048, Note_on_c, 1, 31, 100
3, 30111, Note_on_c, 1, 31, 0
3, 30240, Note_on_c, 1, 35, 100
3, 30334, Note_on_c, 1, 35, 0
3, 30336, Note_on_c, 1, 31, 80
3, 30430, Note_on_c, 1, 31, 0
3, 30432, Note_on_c, 1, 30, 80
3, 30526, Note_on_c, 1, 30, 0
3, 30528, Note_on_c, 1, 29, 80
3, 30622, Note_on_c, 1, 29, 0
3, 30624, Note_on_c, 1, 30, 80
3, 30718, Note_on_c, 1, 30, 0
3, 30720, Note_on_c, 1, 31, 100
3, 30814, Note_on_c, 1, 31, 0
3, 30816, Note_on_c, 1, 31, 100
3, 30879, Note_on_c, 1, 31, 0
3, 31008, Note_on_c, 1, 31, 80
3, 31102, Note_on_c, 1, 31, 0
3, 31104, Note_on_c, 1, 29, 100
3, 31116, Note_on_c, 1, 29, 0
3, 31200, Note_on_c, 1, 31, 80
3, 31388, Note_on_c, 1, 31, 0
3, 31392, Note_on_c, 1, 34, 80
3, 31486, Note_on_c, 1, 34, 0
3, 31488, Note_on_c, 1, 36, 100
3, 31582, Note_on_c, 1, 36, 0
3, 31584, Note_on_c, 1, 28, 80
3, 31615, Note_on_c, 1, 28, 0
3, 31680, Note_on_c, 1, 31, 80
3, 31774, Note_on_c, 1, 31, 0
3, 31776, Note_on_c, 1, 34, 100
3, 31964, Note_on_c, 1, 34, 0
3, 31968, Note_on_c, 1, 31, 80
3, 32062, Note_on_c, 1, 31, 0
3, 32064, Note_on_c, 1, 29, 80
3, 32158, Note_on_c, 1, 29, 0
3, 32160, Note_on_c, 1, 28, 80
3, 32254, Note_on_c, 1, 28, 0
3, 32256, Note_on_c, 1, 29, 100
3, 32350, Note_on_c, 1, 29, 0
3, 32352, Note_on_c, 1, 29, 100
3, 32415, Note_on_c, 1, 29, 0
3, 32544, Note_on_c, 1, 29, 100
3, 32622, Note_on_c, 1, 29, 0
3, 32736, Note_on_c, 1, 29, 100
3, 33018, Note_on_c, 1, 29, 0
3, 33024, Note_on_c, 1, 29, 100
3, 33113, Note_on_c, 1, 29, 0
3, 33120, Note_on_c, 1, 36, 80
3, 33151, Note_on_c, 1, 36, 0
3, 33216, Note_on_c, 1, 38, 100
3, 33228, Note_on_c, 1, 38, 0
3, 33312, Note_on_c, 1, 36, 80
3, 33406, Note_on_c, 1, 36, 0
3, 33408, Note_on_c, 1, 33, 100
3, 33502, Note_on_c, 1, 33, 0
3, 33504, Note_on_c, 1, 31, 80
3, 33598, Note_on_c, 1, 31, 0
3, 33600, Note_on_c, 1, 29, 80
3, 33612, Note_on_c, 1, 29, 0
3, 33696, Note_on_c, 1, 28, 80
3, 33790, Note_on_c, 1, 28, 0
3, 33792, Note_on_c, 1, 29, 100
3, 33886, Note_on_c, 1, 29, 0
3, 33888, Note_on_c, 1, 36, 100
3, 33900, Note_on_c, 1, 36, 0
3, 34080, Note_on_c, 1, 34, 80
3, 34174, Note_on_c, 1, 34, 0
3, 34176, Note_on_c, 1, 32, 100
3, 34188, Note_on_c, 1, 32, 0
3, 34272, Note_on_c, 1, 29, 80
3, 34366, Note_on_c, 1, 29, 0
3, 34368, Note_on_c, 1, 32, 80
3, 34462, Note_on_c, 1, 32, 0
3, 34464, Note_on_c, 1, 33, 80
3, 34558, Note_on_c, 1, 33, 0
3, 34560, Note_on_c, 1, 34, 100
3, 34654, Note_on_c, 1, 34, 0
3, 34656, Note_on_c, 1, 34, 100
3, 34719, Note_on_c, 1, 34, 0
3, 34848, Note_on_c, 1, 34, 100
3, 35031, Note_on_c, 1, 34, 0
3, 35040, Note_on_c, 1, 38, 80
3, 35052, Note_on_c, 1, 38, 0
3, 35136, Note_on_c, 1, 37, 80
3, 35230, Note_on_c, 1, 37, 0
3, 35232, Note_on_c, 1, 38, 80
3, 35326, Note_on_c, 1, 38, 0
3, 35328, Note_on_c, 1, 39, 100
3, 35422, Note_on_c, 1, 39, 0
3, 35616, Note_on_c, 1, 39, 100
3, 35705, Note_on_c, 1, 39, 0
3, 35712, Note_on_c, 1, 31, 100
3, 35806, Note_on_c, 1, 31, 0
3, 35808, Note_on_c, 1, 29, 80
3, 35902, Note_on_c, 1, 29, 0
3, 35904, Note_on_c, 1, 31, 80
3, 35998, Note_on_c, 1, 31, 0
3, 36000, Note_on_c, 1, 32, 80
3, 36094, Note_on_c, 1, 32, 0
3, 36096, Note_on_c, 1, 33, 100
3, 36190, Note_on_c, 1, 33, 0
3, 36192, Note_on_c, 1, 33, 80
3, 36286, Note_on_c, 1, 33, 0
3, 36288, Note_on_c, 1, 36, 80
3, 36382, Note_on_c, 1, 36, 0
3, 36384, Note_on_c, 1, 37, 80
3, 36478, Note_on_c, 1, 37, 0
3, 36480, Note_on_c, 1, 38, 100
3, 36574, Note_on_c, 1, 38, 0
3, 36576, Note_on_c, 1, 30, 80
3, 36670, Note_on_c, 1, 30, 0
3, 36672, Note_on_c, 1, 29, 80
3, 36684, Note_on_c, 1, 29, 0
3, 36768, Note_on_c, 1, 30, 80
3, 36862, Note_on_c, 1, 30, 0
3, 36864, Note_on_c, 1, 31, 100
3, 36958, Note_on_c, 1, 31, 0
3, 36960, Note_on_c, 1, 31, 100
3, 37023, Note_on_c, 1, 31, 0
3, 37152, Note_on_c, 1, 31, 100
3, 37335, Note_on_c, 1, 31, 0
3, 37344, Note_on_c, 1, 29, 80
3, 37438, Note_on_c, 1, 29, 0
3, 37440, Note_on_c, 1, 31, 80
3, 37452, Note_on_c, 1, 31, 0
3, 37536, Note_on_c, 1, 32, 80
3, 37630, Note_on_c, 1, 32, 0
3, 37632, Note_on_c, 1, 33, 100
3, 37721, Note_on_c, 1, 33, 0
3, 37728, Note_on_c, 1, 40, 80
3, 37822, Note_on_c, 1, 40, 0
3, 37824, Note_on_c, 1, 38, 80
3, 37855, Note_on_c, 1, 38, 0
3, 37920, Note_on_c, 1, 36, 80
3, 38014, Note_on_c, 1, 36, 0
3, 38016, Note_on_c, 1, 38, 100
3, 38110, Note_on_c, 1, 38, 0
3, 38112, Note_on_c, 1, 30, 80
3, 38206, Note_on_c, 1, 30, 0
3, 38208, Note_on_c, 1, 29, 80
3, 38302, Note_on_c, 1, 29, 0
3, 38304, Note_on_c, 1, 30, 80
3, 38316, Note_on_c, 1, 30, 0
3, 38400, Note_on_c, 1, 31, 100
3, 38489, Note_on_c, 1, 31, 0
3, 38496, Note_on_c, 1, 28, 80
3, 38527, Note_on_c, 1, 28, 0
3, 38592, Note_on_c, 1, 31, 80
3, 38686, Note_on_c, 1, 31, 0
3, 38688, Note_on_c, 1, 33, 100
3, 38782, Note_on_c, 1, 33, 0
3, 38784, Note_on_c, 1, 35, 80
3, 38878, Note_on_c, 1, 35, 0
3, 38880, Note_on_c, 1, 33, 80
3, 38911, Note_on_c, 1, 33, 0
3, 38976, Note_on_c, 1, 31, 80
3, 39070, Note_on_c, 1, 31, 0
3, 39072, Note_on_c, 1, 32, 80
3, 39166, Note_on_c, 1, 32, 0
3, 39168, Note_on_c, 1, 33, 100
3, 39262, Note_on_c, 1, 33, 0
3, 39264, Note_on_c, 1, 38, 80
3, 39276, Note_on_c, 1, 38, 0
3, 39360, Note_on_c, 1, 36, 80
3, 39372, Note_on_c, 1, 36, 0
3, 39456, Note_on_c, 1, 37, 80
3, 39468, Note_on_c, 1, 37, 0
3, 39552, Note_on_c, 1, 38, 100
3, 39646, Note_on_c, 1, 38, 0
3, 39648, Note_on_c, 1, 30, 80
3, 39742, Note_on_c, 1, 30, 0
3, 39744, Note_on_c, 1, 33, 80
3, 39838, Note_on_c, 1, 33, 0
3, 39840, Note_on_c, 1, 34, 80
3, 39852, Note_on_c, 1, 34, 0
3, 39936, Note_on_c, 1, 35, 100
3, 40025, Note_on_c, 1, 35, 0
3, 40032, Note_on_c, 1, 33, 80
3, 40126, Note_on_c, 1, 33, 0
3, 40128, Note_on_c, 1, 32, 80
3, 40222, Note_on_c, 1, 32, 0
3, 40224, Note_on_c, 1, 33, 80
3, 40318, Note_on_c, 1, 33, 0
3, 40320, Note_on_c, 1, 34, 100
3, 40414, Note_on_c, 1, 34, 0
3, 40416, Note_on_c, 1, 29, 80
3, 40510, Note_on_c, 1, 29, 0
3, 40512, Note_on_c, 1, 31, 80
3, 40606, Note_on_c, 1, 31, 0
3, 40608, Note_on_c, 1, 32, 80
3, 40702, Note_on_c, 1, 32, 0
3, 40704, Note_on_c, 1, 33, 100
3, 40798, Note_on_c, 1, 33, 0
3, 40800, Note_on_c, 1, 38, 80
3, 40812, Note_on_c, 1, 38, 0
3, 40896, Note_on_c, 1, 36, 80
3, 40990, Note_on_c, 1, 36, 0
3, 40992, Note_on_c, 1, 37, 80
3, 41004, Note_on_c, 1, 37, 0
3, 41088, Note_on_c, 1, 38, 100
3, 41182, Note_on_c, 1, 38, 0
3, 41184, Note_on_c, 1, 29, 80
3, 41372, Note_on_c, 1, 29, 0
3, 41376, Note_on_c, 1, 30, 80
3, 41470, Note_on_c, 1, 30, 0
3, 41472, Note_on_c, 1, 31, 100
3, 41566, Note_on_c, 1, 31, 0
3, 41568, Note_on_c, 1, 31, 100
3, 41631, Note_on_c, 1, 31, 0
3, 41760, Note_on_c, 1, 31, 100
3, 41849, Note_on_c, 1, 31, 0
3, 41856, Note_on_c, 1, 28, 100
3, 41950, Note_on_c, 1, 28, 0
3, 41952, Note_on_c, 1, 31, 80
3, 41964, Note_on_c, 1, 31, 0
3, 42048, Note_on_c, 1, 29, 80
3, 42142, Note_on_c, 1, 29, 0
3, 42144, Note_on_c, 1, 30, 80
3, 42238, Note_on_c, 1, 30, 0
3, 42240, Note_on_c, 1, 31, 100
3, 42334, Note_on_c, 1, 31, 0
3, 42336, Note_on_c, 1, 31, 100
3, 42399, Note_on_c, 1, 31, 0
3, 42528, Note_on_c, 1, 31, 80
3, 42540, Note_on_c, 1, 31, 0
3, 42720, Note_on_c, 1, 28, 80
3, 42814, Note_on_c, 1, 28, 0
3, 42816, Note_on_c, 1, 29, 80
3, 42910, Note_on_c, 1, 29, 0
3, 42912, Note_on_c, 1, 30, 80
3, 43006, Note_on_c, 1, 30, 0
3, 43008, Note_on_c, 1, 31, 100
3, 43097, Note_on_c, 1, 31, 0
3, 43104, Note_on_c, 1, 34, 100
3, 43292, Note_on_c, 1, 34, 0
3, 43296, Note_on_c, 1, 31, 80
3, 43308, Note_on_c, 1, 31, 0
3, 43392, Note_on_c, 1, 34, 100
3, 43486, Note_on_c, 1, 34, 0
3, 43488, Note_on_c, 1, 36, 80
3, 43582, Note_on_c, 1, 36, 0
3, 43584, Note_on_c, 1, 34, 80
3, 43678, Note_on_c, 1, 34, 0
3, 43680, Note_on_c, 1, 35, 80
3, 43774, Note_on_c, 1, 35, 0
3, 43776, Note_on_c, 1, 36, 100
3, 43870, Note_on_c, 1, 36, 0
3, 43872, Note_on_c, 1, 36, 100
3, 43935, Note_on_c, 1, 36, 0
3, 44064, Note_on_c, 1, 36, 100
3, 44153, Note_on_c, 1, 36, 0
3, 44160, Note_on_c, 1, 33, 100
3, 44191, Note_on_c, 1, 33, 0
3, 44256, Note_on_c, 1, 31, 80
3, 44350, Note_on_c, 1, 31, 0
3, 44352, Note_on_c, 1, 29, 80
3, 44364, Note_on_c, 1, 29, 0
3, 44448, Note_on_c, 1, 28, 80
3, 44479, Note_on_c, 1, 28, 0
3, 44544, Note_on_c, 1, 29, 100
3, 44638, Note_on_c, 1, 29, 0
3, 44640, Note_on_c, 1, 29, 100
3, 44703, Note_on_c, 1, 29, 0
3, 44832, Note_on_c, 1, 29, 100
3, 44910, Note_on_c, 1, 29, 0
3, 45024, Note_on_c, 1, 29, 100
3, 45306, Note_on_c, 1, 29, 0
3, 45312, Note_on_c, 1, 29, 100
3, 45401, Note_on_c, 1, 29, 0
3, 45408, Note_on_c, 1, 36, 100
3, 45439, Note_on_c, 1, 36, 0
3, 45600, Note_on_c, 1, 40, 80
3, 45694, Note_on_c, 1, 40, 0
3, 45696, Note_on_c, 1, 36, 100
3, 45727, Note_on_c, 1, 36, 0
3, 45792, Note_on_c, 1, 33, 80
3, 45804, Note_on_c, 1, 33, 0
3, 45888, Note_on_c, 1, 29, 80
3, 45982, Note_on_c, 1, 29, 0
3, 45984, Note_on_c, 1, 28, 80
3, 45996, Note_on_c, 1, 28, 0
3, 46080, Note_on_c, 1, 29, 100
3, 46169, Note_on_c, 1, 29, 0
3, 46176, Note_on_c, 1, 36, 100
3, 46364, Note_on_c, 1, 36, 0
3, 46368, Note_on_c, 1, 34, 80
3, 46380, Note_on_c, 1, 34, 0
3, 46464, Note_on_c, 1, 32, 100
3, 46476, Note_on_c, 1, 32, 0
3, 46560, Note_on_c, 1, 29, 80
3, 46654, Note_on_c, 1, 29, 0
3, 46656, Note_on_c, 1, 32, 80
3, 46687, Note_on_c, 1, 32, 0
3, 46752, Note_on_c, 1, 33, 80
3, 46846, Note_on_c, 1, 33, 0
3, 46848, Note_on_c, 1, 34, 100
3, 46942, Note_on_c, 1, 34, 0
3, 46944, Note_on_c, 1, 34, 100
3, 47007, Note_on_c, 1, 34, 0
3, 47136, Note_on_c, 1, 34, 80
3, 47148, Note_on_c, 1, 34, 0
3, 47232, Note_on_c, 1, 36, 100
3, 47326, Note_on_c, 1, 36, 0
3, 47328, Note_on_c, 1, 38, 80
3, 47340, Note_on_c, 1, 38, 0
3, 47424, Note_on_c, 1, 36, 100
3, 47518, Note_on_c, 1, 36, 0
3, 47520, Note_on_c, 1, 38, 80
3, 47614, Note_on_c, 1, 38, 0
3, 47616, Note_on_c, 1, 39, 100
3, 47710, Note_on_c, 1, 39, 0
3, 47904, Note_on_c, 1, 38, 100
3, 48092, Note_on_c, 1, 38, 0
3, 48096, Note_on_c, 1, 34, 80
3, 48190, Note_on_c, 1, 34, 0
3, 48192, Note_on_c, 1, 31, 80
3, 48286, Note_on_c, 1, 31, 0
3, 48288, Note_on_c, 1, 32, 80
3, 48300, Note_on_c, 1, 32, 0
3, 48384, Note_on_c, 1, 33, 100
3, 48478, Note_on_c, 1, 33, 0
3, 48480, Note_on_c, 1, 33, 80
3, 48574, Note_on_c, 1, 33, 0
3, 48576, Note_on_c, 1, 36, 80
3, 48588, Note_on_c, 1, 36, 0
3, 48672, Note_on_c, 1, 37, 80
3, 48766, Note_on_c, 1, 37, 0
3, 48768, Note_on_c, 1, 38, 100
3, 48857, Note_on_c, 1, 38, 0
3, 48864, Note_on_c, 1, 28, 80
3, 48958, Note_on_c, 1, 28, 0
3, 48960, Note_on_c, 1, 29, 80
3, 49054, Note_on_c, 1, 29, 0
3, 49056, Note_on_c, 1, 30, 80
3, 49150, Note_on_c, 1, 30, 0
3, 49152, Note_on_c, 1, 31, 100
3, 49246, Note_on_c, 1, 31, 0
3, 49248, Note_on_c, 1, 31, 100
3, 49311, Note_on_c, 1, 31, 0
3, 49344, Note_on_c, 1, 33, 80
3, 49356, Note_on_c, 1, 33, 0
3, 49440, Note_on_c, 1, 31, 100
3, 49452, Note_on_c, 1, 31, 0
3, 49632, Note_on_c, 1, 28, 80
3, 49663, Note_on_c, 1, 28, 0
3, 49728, Note_on_c, 1, 31, 80
3, 49822, Note_on_c, 1, 31, 0
3, 49824, Note_on_c, 1, 32, 80
3, 49918, Note_on_c, 1, 32, 0
3, 49920, Note_on_c, 1, 33, 100
3, 50014, Note_on_c, 1, 33, 0
3, 50016, Note_on_c, 1, 33, 80
3, 50110, Note_on_c, 1, 33, 0
3, 50112, Note_on_c, 1, 36, 80
3, 50206, Note_on_c, 1, 36, 0
3, 50208, Note_on_c, 1, 37, 80
3, 50302, Note_on_c, 1, 37, 0
3, 50304, Note_on_c, 1, 38, 100
3, 50398, Note_on_c, 1, 38, 0
3, 50400, Note_on_c, 1, 32, 80
3, 50494, Note_on_c, 1, 32, 0
3, 50496, Note_on_c, 1, 33, 80
3, 50590, Note_on_c, 1, 33, 0
3, 50592, Note_on_c, 1, 34, 80
3, 50686, Note_on_c, 1, 34, 0
3, 50688, Note_on_c, 1, 35, 100
3, 50782, Note_on_c, 1, 35, 0
3, 50784, Note_on_c, 1, 30, 80
3, 50878, Note_on_c, 1, 30, 0
3, 50880, Note_on_c, 1, 32, 80
3, 50974, Note_on_c, 1, 32, 0
3, 50976, Note_on_c, 1, 33, 80
3, 51070, Note_on_c, 1, 33, 0
3, 51072, Note_on_c, 1, 34, 100
3, 51161, Note_on_c, 1, 34, 0
3, 51168, Note_on_c, 1, 29, 100
3, 51180, Note_on_c, 1, 29, 0
3, 51360, Note_on_c, 1, 31, 80
3, 51454, Note_on_c, 1, 31, 0
3, 51456, Note_on_c, 1, 33, 100
3, 51550, Note_on_c, 1, 33, 0
3, 51552, Note_on_c, 1, 31, 80
3, 51646, Note_on_c, 1, 31, 0
3, 51648, Note_on_c, 1, 33, 80
3, 51660, Note_on_c, 1, 33, 0
3, 51744, Note_on_c, 1, 36, 80
3, 51838, Note_on_c, 1, 36, 0
3, 51840, Note_on_c, 1, 38, 100
3, 51929, Note_on_c, 1, 38, 0
3, 51936, Note_on_c, 1, 29, 80
3, 51948, Note_on_c, 1, 29, 0
3, 52128, Note_on_c, 1, 30, 80
3, 52140, Note_on_c, 1, 30, 0
3, 52224, Note_on_c, 1, 31, 100
3, 52318, Note_on_c, 1, 31, 0
3, 52320, Note_on_c, 1, 31, 100
3, 52383, Note_on_c, 1, 31, 0
3, 52512, Note_on_c, 1, 31, 100
3, 52695, Note_on_c, 1, 31, 0
3, 52704, Note_on_c, 1, 28, 80
3, 52798, Note_on_c, 1, 28, 0
3, 52800, Note_on_c, 1, 31, 80
3, 52812, Note_on_c, 1, 31, 0
3, 52896, Note_on_c, 1, 32, 80
3, 52990, Note_on_c, 1, 32, 0
3, 52992, Note_on_c, 1, 33, 100
3, 53086, Note_on_c, 1, 33, 0
3, 53088, Note_on_c, 1, 36, 80
3, 53100, Note_on_c, 1, 36, 0
3, 53280, Note_on_c, 1, 37, 80
3, 53292, Note_on_c, 1, 37, 0
3, 53376, Note_on_c, 1, 38, 100
3, 53470, Note_on_c, 1, 38, 0
3, 53472, Note_on_c, 1, 33, 100
3, 53660, Note_on_c, 1, 33, 0
3, 53664, Note_on_c, 1, 35, 80
3, 53676, Note_on_c, 1, 35, 0
3, 53760, Note_on_c, 1, 31, 100
3, 53854, Note_on_c, 1, 31, 0
3, 53856, Note_on_c, 1, 31, 100
3, 53919, Note_on_c, 1, 31, 0
3, 54048, Note_on_c, 1, 31, 100
3, 54231, Note_on_c, 1, 31, 0
3, 54240, Note_on_c, 1, 29, 80
3, 54428, Note_on_c, 1, 29, 0
3, 54432, Note_on_c, 1, 30, 80
3, 54444, Note_on_c, 1, 30, 0
3, 54528, Note_on_c, 1, 31, 100
3, 54622, Note_on_c, 1, 31, 0
3, 54816, Note_on_c, 1, 35, 80
3, 54828, Note_on_c, 1, 35, 0
3, 54912, Note_on_c, 1, 31, 100
3, 55006, Note_on_c, 1, 31, 0
3, 55008, Note_on_c, 1, 30, 80
3, 55102, Note_on_c, 1, 30, 0
3, 55104, Note_on_c, 1, 29, 80
3, 55198, Note_on_c, 1, 29, 0
3, 55200, Note_on_c, 1, 30, 80
3, 55231, Note_on_c, 1, 30, 0
3, 55296, Note_on_c, 1, 31, 100
3, 55390, Note_on_c, 1, 31, 0
3, 55392, Note_on_c, 1, 31, 100
3, 55455, Note_on_c, 1, 31, 0
3, 55584, Note_on_c, 1, 31, 100
3, 55678, Note_on_c, 1, 31, 0
3, 55680, Note_on_c, 1, 29, 80
3, 55711, Note_on_c, 1, 29, 0
3, 55776, Note_on_c, 1, 31, 80
3, 55870, Note_on_c, 1, 31, 0
3, 55872, Note_on_c, 1, 34, 80
3, 55884, Note_on_c, 1, 34, 0
3, 55968, Note_on_c, 1, 35, 80
3, 56062, Note_on_c, 1, 35, 0
3, 56064, Note_on_c, 1, 36, 100
3, 56158, Note_on_c, 1, 36, 0
3, 56352, Note_on_c, 1, 36, 100
3, 56535, Note_on_c, 1, 36, 0
3, 56544, Note_on_c, 1, 31, 80
3, 56638, Note_on_c, 1, 31, 0
3, 56640, Note_on_c, 1, 29, 80
3, 56734, Note_on_c, 1, 29, 0
3, 56736, Note_on_c, 1, 28, 80
3, 56830, Note_on_c, 1, 28, 0
3, 56832, Note_on_c, 1, 29, 100
3, 56926, Note_on_c, 1, 29, 0
3, 57120, Note_on_c, 1, 29, 100
3, 57209, Note_on_c, 1, 29, 0
3, 57216, Note_on_c, 1, 29, 100
3, 57310, Note_on_c, 1, 29, 0
3, 57312, Note_on_c, 1, 31, 80
3, 57324, Note_on_c, 1, 31, 0
3, 57408, Note_on_c, 1, 33, 80
3, 57502, Note_on_c, 1, 33, 0
3, 57504, Note_on_c, 1, 31, 80
3, 57516, Note_on_c, 1, 31, 0
3, 57600, Note_on_c, 1, 29, 100
3, 57689, Note_on_c, 1, 29, 0
3, 57696, Note_on_c, 1, 36, 80
3, 57790, Note_on_c, 1, 36, 0
3, 57792, Note_on_c, 1, 33, 80
3, 57886, Note_on_c, 1, 33, 0
3, 57888, Note_on_c, 1, 31, 100
3, 57900, Note_on_c, 1, 31, 0
3, 57984, Note_on_c, 1, 29, 80
3, 58078, Note_on_c, 1, 29, 0
3, 58080, Note_on_c, 1, 31, 80
3, 58174, Note_on_c, 1, 31, 0
3, 58176, Note_on_c, 1, 29, 80
3, 58188, Note_on_c, 1, 29, 0
3, 58272, Note_on_c, 1, 31, 80
3, 58303, Note_on_c, 1, 31, 0
3, 58368, Note_on_c, 1, 29, 100
3, 58462, Note_on_c, 1, 29, 0
3, 58656, Note_on_c, 1, 29, 100
3, 58839, Note_on_c, 1, 29, 0
3, 58848, Note_on_c, 1, 32, 80
3, 59036, Note_on_c, 1, 32, 0
3, 59040, Note_on_c, 1, 33, 80
3, 59134, Note_on_c, 1, 33, 0
3, 59136, Note_on_c, 1, 34, 100
3, 59225, Note_on_c, 1, 34, 0
3, 59232, Note_on_c, 1, 34, 80
3, 59326, Note_on_c, 1, 34, 0
3, 59328, Note_on_c, 1, 31, 80
3, 59422, Note_on_c, 1, 31, 0
3, 59424, Note_on_c, 1, 34, 100
3, 59455, Note_on_c, 1, 34, 0
3, 59616, Note_on_c, 1, 36, 80
3, 59710, Note_on_c, 1, 36, 0
3, 59712, Note_on_c, 1, 37, 80
3, 59724, Note_on_c, 1, 37, 0
3, 59808, Note_on_c, 1, 38, 80
3, 59902, Note_on_c, 1, 38, 0
3, 59904, Note_on_c, 1, 39, 100
3, 59998, Note_on_c, 1, 39, 0
3, 60000, Note_on_c, 1, 39, 100
3, 60063, Note_on_c, 1, 39, 0
3, 60192, Note_on_c, 1, 39, 100
3, 60375, Note_on_c, 1, 39, 0
3, 60384, Note_on_c, 1, 38, 80
3, 60396, Note_on_c, 1, 38, 0
3, 60480, Note_on_c, 1, 34, 100
3, 60492, Note_on_c, 1, 34, 0
3, 60576, Note_on_c, 1, 31, 80
3, 60670, Note_on_c, 1, 31, 0
3, 60672, Note_on_c, 1, 33, 100
3, 60766, Note_on_c, 1, 33, 0
3, 60768, Note_on_c, 1, 33, 80
3, 60862, Note_on_c, 1, 33, 0
3, 60864, Note_on_c, 1, 36, 80
3, 60958, Note_on_c, 1, 36, 0
3, 60960, Note_on_c, 1, 37, 80
3, 61054, Note_on_c, 1, 37, 0
3, 61056, Note_on_c, 1, 38, 100
3, 61145, Note_on_c, 1, 38, 0
3, 61152, Note_on_c, 1, 28, 80
3, 61246, Note_on_c, 1, 28, 0
3, 61248, Note_on_c, 1, 29, 80
3, 61279, Note_on_c, 1, 29, 0
3, 61344, Note_on_c, 1, 30, 80
3, 61438, Note_on_c, 1, 30, 0
3, 61440, Note_on_c, 1, 31, 100
3, 61529, Note_on_c, 1, 31, 0
3, 61536, Note_on_c, 1, 36, 80
3, 61724, Note_on_c, 1, 36, 0
3, 61728, Note_on_c, 1, 34, 80
3, 61822, Note_on_c, 1, 34, 0
3, 61824, Note_on_c, 1, 31, 100
3, 61918, Note_on_c, 1, 31, 0
3, 61920, Note_on_c, 1, 29, 80
3, 62014, Note_on_c, 1, 29, 0
3, 62016, Note_on_c, 1, 31, 80
3, 62110, Note_on_c, 1, 31, 0
3, 62112, Note_on_c, 1, 32, 80
3, 62124, Note_on_c, 1, 32, 0
3, 62208, Note_on_c, 1, 33, 100
3, 62302, Note_on_c, 1, 33, 0
3, 62304, Note_on_c, 1, 33, 80
3, 62398, Note_on_c, 1, 33, 0
3, 62400, Note_on_c, 1, 36, 80
3, 62494, Note_on_c, 1, 36, 0
3, 62496, Note_on_c, 1, 37, 80
3, 62527, Note_on_c, 1, 37, 0
3, 62592, Note_on_c, 1, 38, 100
3, 62686, Note_on_c, 1, 38, 0
3, 62688, Note_on_c, 1, 30, 80
3, 62782, Note_on_c, 1, 30, 0
3, 62784, Note_on_c, 1, 29, 80
3, 62796, Note_on_c, 1, 29, 0
3, 62880, Note_on_c, 1, 30, 80
3, 62892, Note_on_c, 1, 30, 0
3, 62976, Note_on_c, 1, 31, 100
3, 63070, Note_on_c, 1, 31, 0
3, 63072, Note_on_c, 1, 31, 100
3, 63135, Note_on_c, 1, 31, 0
3, 63264, Note_on_c, 1, 31, 100
3, 63447, Note_on_c, 1, 31, 0
3, 63456, Note_on_c, 1, 31, 80
3, 63468, Note_on_c, 1, 31, 0
3, 63552, Note_on_c, 1, 33, 100
3, 63564, Note_on_c, 1, 33, 0
3, 63648, Note_on_c, 1, 31, 80
3, 63742, Note_on_c, 1, 31, 0
3, 63744, Note_on_c, 1, 33, 100
3, 63838, Note_on_c, 1, 33, 0
3, 63840, Note_on_c, 1, 36, 80
3, 63852, Note_on_c, 1, 36, 0
3, 64032, Note_on_c, 1, 37, 80
3, 64126, Note_on_c, 1, 37, 0
3, 64128, Note_on_c, 1, 38, 100
3, 64222, Note_on_c, 1, 38, 0
3, 64224, Note_on_c, 1, 30, 80
3, 64318, Note_on_c, 1, 30, 0
3, 64320, Note_on_c, 1, 33, 80
3, 64414, Note_on_c, 1, 33, 0
3, 64416, Note_on_c, 1, 34, 80
3, 64510, Note_on_c, 1, 34, 0
3, 64512, Note_on_c, 1, 35, 100
3, 64606, Note_on_c, 1, 35, 0
3, 64608, Note_on_c, 1, 30, 80
3, 64702, Note_on_c, 1, 30, 0
3, 64704, Note_on_c, 1, 32, 80
3, 64798, Note_on_c, 1, 32, 0
3, 64800, Note_on_c, 1, 33, 80
3, 64812, Note_on_c, 1, 33, 0
3, 64896, Note_on_c, 1, 34, 100
3, 64985, Note_on_c, 1, 34, 0
3, 64992, Note_on_c, 1, 31, 80
3, 65086, Note_on_c, 1, 31, 0
3, 65088, Note_on_c, 1, 29, 100
3, 65182, Note_on_c, 1, 29, 0
3, 65184, Note_on_c, 1, 31, 80
3, 65278, Note_on_c, 1, 31, 0
3, 65280, Note_on_c, 1, 33, 100
3, 65374, Note_on_c, 1, 33, 0
3, 65376, Note_on_c, 1, 33, 80
3, 65470, Note_on_c, 1, 33, 0
3, 65472, Note_on_c, 1, 36, 80
3, 65566, Note_on_c, 1, 36, 0
3, 65568, Note_on_c, 1, 37, 80
3, 65662, Note_on_c, 1, 37, 0
3, 65664, Note_on_c, 1, 38, 100
3, 65758, Note_on_c, 1, 38, 0
3, 65760, Note_on_c, 1, 30, 80
3, 65772, Note_on_c, 1, 30, 0
3, 65856, Note_on_c, 1, 29, 80
3, 65950, Note_on_c, 1, 29, 0
3, 65952, Note_on_c, 1, 30, 80
3, 66046, Note_on_c, 1, 30, 0
3, 66048, Note_on_c, 1, 31, 100
3, 66142, Note_on_c, 1, 31, 0
3, 66144, Note_on_c, 1, 31, 100
3, 66207, Note_on_c, 1, 31, 0
3, 66336, Note_on_c, 1, 31, 100
3, 66414, Note_on_c, 1, 31, 0
3, 66528, Note_on_c, 1, 31, 100
3, 66810, Note_on_c, 1, 31, 0
3, 66816, Note_on_c, 1, 31, 100
3, 66910, Note_on_c, 1, 31, 0
3, 67104, Note_on_c, 1, 33, 80
3, 67198, Note_on_c, 1, 33, 0
3, 67200, Note_on_c, 1, 31, 100
3, 67294, Note_on_c, 1, 31, 0
3, 67296, Note_on_c, 1, 28, 80
3, 67390, Note_on_c, 1, 28, 0
3, 67392, Note_on_c, 1, 29, 80
3, 67404, Note_on_c, 1, 29, 0
3, 67488, Note_on_c, 1, 30, 80
3, 67582, Note_on_c, 1, 30, 0
3, 67584, Note_on_c, 1, 31, 100
3, 67678, Note_on_c, 1, 31, 0
3, 67680, Note_on_c, 1, 31, 100
3, 67743, Note_on_c, 1, 31, 0
3, 67872, Note_on_c, 1, 29, 80
3, 67966, Note_on_c, 1, 29, 0
3, 67968, Note_on_c, 1, 31, 100
3, 68062, Note_on_c, 1, 31, 0
3, 68064, Note_on_c, 1, 29, 80
3, 68095, Note_on_c, 1, 29, 0
3, 68160, Note_on_c, 1, 31, 80
3, 68254, Note_on_c, 1, 31, 0
3, 68256, Note_on_c, 1, 34, 80
3, 68350, Note_on_c, 1, 34, 0
3, 68352, Note_on_c, 1, 36, 100
3, 68446, Note_on_c, 1, 36, 0
3, 68448, Note_on_c, 1, 38, 80
3, 68542, Note_on_c, 1, 38, 0
3, 68544, Note_on_c, 1, 36, 100
3, 68638, Note_on_c, 1, 36, 0
3, 68640, Note_on_c, 1, 33, 80
3, 68734, Note_on_c, 1, 33, 0
3, 68736, Note_on_c, 1, 31, 100
3, 68830, Note_on_c, 1, 31, 0
3, 68832, Note_on_c, 1, 29, 80
3, 69020, Note_on_c, 1, 29, 0
3, 69024, Note_on_c, 1, 28, 80
3, 69118, Note_on_c, 1, 28, 0
3, 69120, Note_on_c, 1, 29, 100
3, 69214, Note_on_c, 1, 29, 0
3, 69216, Note_on_c, 1, 29, 100
3, 69279, Note_on_c, 1, 29, 0
3, 69408, Note_on_c, 1, 29, 100
3, 69779, Note_on_c, 1, 29, 0
3, 69792, Note_on_c, 1, 29, 80
3, 69886, Note_on_c, 1, 29, 0
3, 69888, Note_on_c, 1, 31, 100
3, 69982, Note_on_c, 1, 31, 0
3, 69984, Note_on_c, 1, 33, 80
3, 70078, Note_on_c, 1, 33, 0
3, 70080, Note_on_c, 1, 31, 80
3, 70174, Note_on_c, 1, 31, 0
3, 70176, Note_on_c, 1, 29, 100
3, 70364, Note_on_c, 1, 29, 0
3, 70368, Note_on_c, 1, 31, 80
3, 70462, Note_on_c, 1, 31, 0
3, 70464, Note_on_c, 1, 29, 80
3, 70558, Note_on_c, 1, 29, 0
3, 70560, Note_on_c, 1, 28, 80
3, 70654, Note_on_c, 1, 28, 0
3, 70656, Note_on_c, 1, 29, 100
3, 70750, Note_on_c, 1, 29, 0
3, 70944, Note_on_c, 1, 29, 100
3, 71127, Note_on_c, 1, 29, 0
3, 71136, Note_on_c, 1, 29, 100
3, 71324, Note_on_c, 1, 29, 0
3, 71328, Note_on_c, 1, 32, 80
3, 71340, Note_on_c, 1, 32, 0
3, 71424, Note_on_c, 1, 34, 100
3, 71518, Note_on_c, 1, 34, 0
3, 71520, Note_on_c, 1, 34, 100
3, 71583, Note_on_c, 1, 34, 0
3, 71712, Note_on_c, 1, 34, 80
3, 71806, Note_on_c, 1, 34, 0
3, 71808, Note_on_c, 1, 38, 100
3, 71902, Note_on_c, 1, 38, 0
3, 71904, Note_on_c, 1, 37, 80
3, 72092, Note_on_c, 1, 37, 0
3, 72096, Note_on_c, 1, 38, 80
3, 72190, Note_on_c, 1, 38, 0
3, 72192, Note_on_c, 1, 39, 100
3, 72286, Note_on_c, 1, 39, 0
3, 72288, Note_on_c, 1, 36, 100
3, 72300, Note_on_c, 1, 36, 0
3, 72480, Note_on_c, 1, 34, 100
3, 72668, Note_on_c, 1, 34, 0
3, 72672, Note_on_c, 1, 31, 80
3, 72860, Note_on_c, 1, 31, 0
3, 72864, Note_on_c, 1, 32, 80
3, 72958, Note_on_c, 1, 32, 0
3, 72960, Note_on_c, 1, 33, 100
3, 73054, Note_on_c, 1, 33, 0
3, 73056, Note_on_c, 1, 33, 80
3, 73068, Note_on_c, 1, 33, 0
3, 73152, Note_on_c, 1, 36, 80
3, 73246, Note_on_c, 1, 36, 0
3, 73248, Note_on_c, 1, 37, 80
3, 73342, Note_on_c, 1, 37, 0
3, 73344, Note_on_c, 1, 38, 100
3, 73438, Note_on_c, 1, 38, 0
3, 73440, Note_on_c, 1, 28, 80
3, 73534, Note_on_c, 1, 28, 0
3, 73536, Note_on_c, 1, 29, 80
3, 73630, Note_on_c, 1, 29, 0
3, 73632, Note_on_c, 1, 30, 80
3, 73726, Note_on_c, 1, 30, 0
3, 73728, Note_on_c, 1, 31, 100
3, 73822, Note_on_c, 1, 31, 0
3, 74016, Note_on_c, 1, 31, 100
3, 74199, Note_on_c, 1, 31, 0
3, 74208, Note_on_c, 1, 38, 80
3, 74220, Note_on_c, 1, 38, 0
3, 74304, Note_on_c, 1, 35, 100
3, 74398, Note_on_c, 1, 35, 0
3, 74400, Note_on_c, 1, 31, 80
3, 74431, Note_on_c, 1, 31, 0
3, 74496, Note_on_c, 1, 33, 100
3, 74590, Note_on_c, 1, 33, 0
3, 74592, Note_on_c, 1, 36, 80
3, 74604, Note_on_c, 1, 36, 0
3, 74688, Note_on_c, 1, 33, 100
3, 74782, Note_on_c, 1, 33, 0
3, 74784, Note_on_c, 1, 36, 80
3, 74878, Note_on_c, 1, 36, 0
3, 74880, Note_on_c, 1, 38, 100
3, 74974, Note_on_c, 1, 38, 0
3, 74976, Note_on_c, 1, 32, 80
3, 75070, Note_on_c, 1, 32, 0
3, 75072, Note_on_c, 1, 33, 80
3, 75103, Note_on_c, 1, 33, 0
3, 75168, Note_on_c, 1, 34, 80
3, 75262, Note_on_c, 1, 34, 0
3, 75264, Note_on_c, 1, 35, 100
3, 75358, Note_on_c, 1, 35, 0
3, 75360, Note_on_c, 1, 33, 80
3, 75454, Note_on_c, 1, 33, 0
3, 75456, Note_on_c, 1, 30, 100
3, 75550, Note_on_c, 1, 30, 0
3, 75552, Note_on_c, 1, 33, 80
3, 75646, Note_on_c, 1, 33, 0
3, 75648, Note_on_c, 1, 34, 100
3, 75737, Note_on_c, 1, 34, 0
3, 75744, Note_on_c, 1, 29, 80
3, 75775, Note_on_c, 1, 29, 0
3, 75840, Note_on_c, 1, 31, 80
3, 75934, Note_on_c, 1, 31, 0
3, 75936, Note_on_c, 1, 32, 80
3, 76030, Note_on_c, 1, 32, 0
3, 76032, Note_on_c, 1, 33, 100
3, 76126, Note_on_c, 1, 33, 0
3, 76128, Note_on_c, 1, 36, 80
3, 76222, Note_on_c, 1, 36, 0
3, 76224, Note_on_c, 1, 33, 100
3, 76318, Note_on_c, 1, 33, 0
3, 76320, Note_on_c, 1, 36, 80
3, 76414, Note_on_c, 1, 36, 0
3, 76416, Note_on_c, 1, 38, 100
3, 76510, Note_on_c, 1, 38, 0
3, 76512, Note_on_c, 1, 28, 80
3, 76606, Note_on_c, 1, 28, 0
3, 76608, Note_on_c, 1, 29, 80
3, 76639, Note_on_c, 1, 29, 0
3, 76704, Note_on_c, 1, 30, 80
3, 76798, Note_on_c, 1, 30, 0
3, 76800, Note_on_c, 1, 31, 100
3, 77553, Note_on_c, 1, 31, 0
3, 77568, Note_on_c, 1, 33, 100
3, 77944, Note_on_c, 1, 33, 0
3, 77952, Note_on_c, 1, 38, 100
3, 78328, Note_on_c, 1, 38, 0
3, 78336, Note_on_c, 1, 35, 100
3, 78712, Note_on_c, 1, 35, 0
3, 78720, Note_on_c, 1, 34, 100
3, 79096, Note_on_c, 1, 34, 0
3, 79104, Note_on_c, 1, 33, 100
3, 79480, Note_on_c, 1, 33, 0
3, 79488, Note_on_c, 1, 38, 100
3, 79864, Note_on_c, 1, 38, 0
3, 79872, Note_on_c, 1, 31, 100
3, 81377, Note_on_c, 1, 31, 0
3, 81408, Note_on_c, 1, 31, 100
3, 81527, Note_on_c, 1, 31, 0
3, 81527, End_track
4, 0, Start_track
4, 0, MIDI_port, 0
4, 0, Title_t, "Piano"
4, 0, Control_c, 3, 0, 0
4, 6, Control_c, 3, 121, 0
4, 8, Control_c, 3, 91, 60
4, 207, Control_c, 3, 0, 0
4, 208, Control_c, 3, 32, 0
4, 209, Program_c, 3, 0
4, 210, Control_c, 3, 7, 90
4, 210, Control_c, 3, 10, 94
4, 4608, Note_on_c, 3, 62, 100
4, 5172, Note_on_c, 3, 62, 0
4, 5184, Note_on_c, 3, 59, 80
4, 5278, Note_on_c, 3, 59, 0
4, 5280, Note_on_c, 3, 55, 80
4, 5374, Note_on_c, 3, 55, 0
4, 5376, Note_on_c, 3, 50, 100
4, 5658, Note_on_c, 3, 50, 0
4, 5664, Note_on_c, 3, 55, 80
4, 5847, Note_on_c, 3, 55, 0
4, 5856, Note_on_c, 3, 62, 100
4, 6044, Note_on_c, 3, 62, 0
4, 6048, Note_on_c, 3, 59, 80
4, 6142, Note_on_c, 3, 59, 0
4, 6144, Note_on_c, 3, 58, 100
4, 6426, Note_on_c, 3, 58, 0
4, 6432, Note_on_c, 3, 62, 80
4, 6620, Note_on_c, 3, 62, 0
4, 6624, Note_on_c, 3, 58, 80
4, 6713, Note_on_c, 3, 58, 0
4, 6720, Note_on_c, 3, 50, 100
4, 6908, Note_on_c, 3, 50, 0
4, 6912, Note_on_c, 3, 52, 100
4, 7382, Note_on_c, 3, 52, 0
4, 7392, Note_on_c, 3, 55, 80
4, 7481, Note_on_c, 3, 55, 0
4, 7488, Note_on_c, 3, 58, 100
4, 7676, Note_on_c, 3, 58, 0
4, 7680, Note_on_c, 3, 57, 100
4, 7962, Note_on_c, 3, 57, 0
4, 7968, Note_on_c, 3, 53, 80
4, 8438, Note_on_c, 3, 53, 0
4, 8448, Note_on_c, 3, 52, 100
4, 9008, Note_on_c, 3, 52, 0
4, 9024, Note_on_c, 3, 57, 100
4, 9212, Note_on_c, 3, 57, 0
4, 9216, Note_on_c, 3, 56, 100
4, 9587, Note_on_c, 3, 56, 0
4, 9600, Note_on_c, 3, 53, 100
4, 9788, Note_on_c, 3, 53, 0
4, 9792, Note_on_c, 3, 51, 100
4, 9980, Note_on_c, 3, 51, 0
4, 9984, Note_on_c, 3, 50, 100
4, 10548, Note_on_c, 3, 50, 0
4, 10560, Note_on_c, 3, 56, 100
4, 10748, Note_on_c, 3, 56, 0
4, 10752, Note_on_c, 3, 58, 100
4, 11123, Note_on_c, 3, 58, 0
4, 11136, Note_on_c, 3, 58, 100
4, 11324, Note_on_c, 3, 58, 0
4, 11328, Note_on_c, 3, 62, 100
4, 11516, Note_on_c, 3, 62, 0
4, 11520, Note_on_c, 3, 60, 100
4, 11609, Note_on_c, 3, 60, 0
4, 11616, Note_on_c, 3, 57, 100
4, 11804, Note_on_c, 3, 57, 0
4, 11808, Note_on_c, 3, 55, 80
4, 11902, Note_on_c, 3, 55, 0
4, 11904, Note_on_c, 3, 54, 100
4, 11993, Note_on_c, 3, 54, 0
4, 12000, Note_on_c, 3, 54, 80
4, 12094, Note_on_c, 3, 54, 0
4, 12096, Note_on_c, 3, 52, 100
4, 12284, Note_on_c, 3, 52, 0
4, 12288, Note_on_c, 3, 50, 100
4, 12664, Note_on_c, 3, 50, 0
4, 12672, Note_on_c, 3, 51, 80
4, 12949, Note_on_c, 3, 51, 0
4, 12960, Note_on_c, 3, 55, 80
4, 13054, Note_on_c, 3, 55, 0
4, 13056, Note_on_c, 3, 57, 100
4, 13333, Note_on_c, 3, 57, 0
4, 13344, Note_on_c, 3, 60, 80
4, 13438, Note_on_c, 3, 60, 0
4, 13440, Note_on_c, 3, 62, 100
4, 13529, Note_on_c, 3, 62, 0
4, 13536, Note_on_c, 3, 54, 100
4, 13724, Note_on_c, 3, 54, 0
4, 13728, Note_on_c, 3, 57, 80
4, 13822, Note_on_c, 3, 57, 0
4, 13824, Note_on_c, 3, 59, 100
4, 14384, Note_on_c, 3, 59, 0
4, 14400, Note_on_c, 3, 50, 100
4, 14588, Note_on_c, 3, 50, 0
4, 14592, Note_on_c, 3, 52, 100
4, 14775, Note_on_c, 3, 52, 0
4, 14784, Note_on_c, 3, 60, 100
4, 14972, Note_on_c, 3, 60, 0
4, 14976, Note_on_c, 3, 57, 100
4, 15159, Note_on_c, 3, 57, 0
4, 15168, Note_on_c, 3, 60, 100
4, 15356, Note_on_c, 3, 60, 0
4, 15360, Note_on_c, 3, 62, 100
4, 15543, Note_on_c, 3, 62, 0
4, 15552, Note_on_c, 3, 59, 100
4, 15740, Note_on_c, 3, 59, 0
4, 15744, Note_on_c, 3, 58, 100
4, 15927, Note_on_c, 3, 58, 0
4, 15936, Note_on_c, 3, 53, 100
4, 16124, Note_on_c, 3, 53, 0
4, 16128, Note_on_c, 3, 55, 100
4, 16217, Note_on_c, 3, 55, 0
4, 16224, Note_on_c, 3, 57, 100
4, 16412, Note_on_c, 3, 57, 0
4, 16416, Note_on_c, 3, 55, 80
4, 16510, Note_on_c, 3, 55, 0
4, 16512, Note_on_c, 3, 54, 100
4, 16794, Note_on_c, 3, 54, 0
4, 16800, Note_on_c, 3, 52, 80
4, 16894, Note_on_c, 3, 52, 0
4, 16896, Note_on_c, 3, 50, 100
4, 17079, Note_on_c, 3, 50, 0
4, 17088, Note_on_c, 3, 55, 100
4, 17182, Note_on_c, 3, 55, 0
4, 17184, Note_on_c, 3, 54, 80
4, 17372, Note_on_c, 3, 54, 0
4, 17376, Note_on_c, 3, 55, 80
4, 17470, Note_on_c, 3, 55, 0
4, 17472, Note_on_c, 3, 59, 80
4, 17566, Note_on_c, 3, 59, 0
4, 17568, Note_on_c, 3, 62, 80
4, 17662, Note_on_c, 3, 62, 0
4, 17664, Note_on_c, 3, 59, 100
4, 18040, Note_on_c, 3, 59, 0
4, 18048, Note_on_c, 3, 55, 80
4, 18231, Note_on_c, 3, 55, 0
4, 18240, Note_on_c, 3, 52, 100
4, 18428, Note_on_c, 3, 52, 0
4, 18432, Note_on_c, 3, 50, 100
4, 18808, Note_on_c, 3, 50, 0
4, 18816, Note_on_c, 3, 53, 80
4, 19004, Note_on_c, 3, 53, 0
4, 19008, Note_on_c, 3, 62, 100
4, 19196, Note_on_c, 3, 62, 0
4, 19200, Note_on_c, 3, 60, 100
4, 19482, Note_on_c, 3, 60, 0
4, 19488, Note_on_c, 3, 55, 80
4, 19765, Note_on_c, 3, 55, 0
4, 19776, Note_on_c, 3, 52, 100
4, 19964, Note_on_c, 3, 52, 0
4, 19968, Note_on_c, 3, 53, 100
4, 20339, Note_on_c, 3, 53, 0
4, 20352, Note_on_c, 3, 53, 100
4, 20540, Note_on_c, 3, 53, 0
4, 20544, Note_on_c, 3, 52, 80
4, 20638, Note_on_c, 3, 52, 0
4, 20640, Note_on_c, 3, 53, 80
4, 20734, Note_on_c, 3, 53, 0
4, 20736, Note_on_c, 3, 57, 100
4, 21296, Note_on_c, 3, 57, 0
4, 21312, Note_on_c, 3, 55, 100
4, 21500, Note_on_c, 3, 55, 0
4, 21504, Note_on_c, 3, 56, 100
4, 22064, Note_on_c, 3, 56, 0
4, 22080, Note_on_c, 3, 55, 100
4, 22268, Note_on_c, 3, 55, 0
4, 22272, Note_on_c, 3, 53, 100
4, 22554, Note_on_c, 3, 53, 0
4, 22560, Note_on_c, 3, 50, 80
4, 22842, Note_on_c, 3, 50, 0
4, 22848, Note_on_c, 3, 56, 100
4, 23036, Note_on_c, 3, 56, 0
4, 23040, Note_on_c, 3, 55, 100
4, 23322, Note_on_c, 3, 55, 0
4, 23328, Note_on_c, 3, 58, 80
4, 23511, Note_on_c, 3, 58, 0
4, 23520, Note_on_c, 3, 56, 100
4, 23708, Note_on_c, 3, 56, 0
4, 23712, Note_on_c, 3, 58, 80
4, 23806, Note_on_c, 3, 58, 0
4, 23808, Note_on_c, 3, 60, 100
4, 23991, Note_on_c, 3, 60, 0
4, 24000, Note_on_c, 3, 53, 100
4, 24188, Note_on_c, 3, 53, 0
4, 24192, Note_on_c, 3, 54, 100
4, 24375, Note_on_c, 3, 54, 0
4, 24384, Note_on_c, 3, 54, 100
4, 24572, Note_on_c, 3, 54, 0
4, 24576, Note_on_c, 3, 50, 100
4, 24858, Note_on_c, 3, 50, 0
4, 24864, Note_on_c, 3, 54, 80
4, 24953, Note_on_c, 3, 54, 0
4, 24960, Note_on_c, 3, 55, 100
4, 25148, Note_on_c, 3, 55, 0
4, 25152, Note_on_c, 3, 59, 100
4, 25340, Note_on_c, 3, 59, 0
4, 25344, Note_on_c, 3, 60, 100
4, 25527, Note_on_c, 3, 60, 0
4, 25536, Note_on_c, 3, 52, 100
4, 25724, Note_on_c, 3, 52, 0
4, 25728, Note_on_c, 3, 54, 100
4, 25911, Note_on_c, 3, 54, 0
4, 25920, Note_on_c, 3, 51, 100
4, 26108, Note_on_c, 3, 51, 0
4, 26112, Note_on_c, 3, 50, 100
4, 26295, Note_on_c, 3, 50, 0
4, 26304, Note_on_c, 3, 55, 100
4, 26492, Note_on_c, 3, 55, 0
4, 26496, Note_on_c, 3, 56, 100
4, 26679, Note_on_c, 3, 56, 0
4, 26688, Note_on_c, 3, 58, 100
4, 26876, Note_on_c, 3, 58, 0
4, 26880, Note_on_c, 3, 60, 100
4, 26969, Note_on_c, 3, 60, 0
4, 26976, Note_on_c, 3, 59, 100
4, 27164, Note_on_c, 3, 59, 0
4, 27168, Note_on_c, 3, 60, 80
4, 27262, Note_on_c, 3, 60, 0
4, 27264, Note_on_c, 3, 62, 100
4, 27353, Note_on_c, 3, 62, 0
4, 27360, Note_on_c, 3, 62, 100
4, 27548, Note_on_c, 3, 62, 0
4, 27552, Note_on_c, 3, 60, 80
4, 27646, Note_on_c, 3, 60, 0
4, 27648, Note_on_c, 3, 59, 100
4, 27831, Note_on_c, 3, 59, 0
4, 27840, Note_on_c, 3, 53, 100
4, 27934, Note_on_c, 3, 53, 0
4, 27936, Note_on_c, 3, 55, 80
4, 28119, Note_on_c, 3, 55, 0
4, 28128, Note_on_c, 3, 55, 80
4, 28222, Note_on_c, 3, 55, 0
4, 28224, Note_on_c, 3, 53, 100
4, 28412, Note_on_c, 3, 53, 0
4, 28416, Note_on_c, 3, 52, 100
4, 28599, Note_on_c, 3, 52, 0
4, 28608, Note_on_c, 3, 55, 100
4, 28796, Note_on_c, 3, 55, 0
4, 28800, Note_on_c, 3, 54, 100
4, 29176, Note_on_c, 3, 54, 0
4, 53760, Note_on_c, 3, 62, 100
4, 54324, Note_on_c, 3, 62, 0
4, 54336, Note_on_c, 3, 59, 80
4, 54430, Note_on_c, 3, 59, 0
4, 54432, Note_on_c, 3, 55, 80
4, 54526, Note_on_c, 3, 55, 0
4, 54528, Note_on_c, 3, 50, 100
4, 54810, Note_on_c, 3, 50, 0
4, 54816, Note_on_c, 3, 55, 80
4, 54999, Note_on_c, 3, 55, 0
4, 55008, Note_on_c, 3, 62, 100
4, 55196, Note_on_c, 3, 62, 0
4, 55200, Note_on_c, 3, 59, 80
4, 55294, Note_on_c, 3, 59, 0
4, 55296, Note_on_c, 3, 58, 100
4, 55578, Note_on_c, 3, 58, 0
4, 55584, Note_on_c, 3, 62, 80
4, 55772, Note_on_c, 3, 62, 0
4, 55776, Note_on_c, 3, 58, 80
4, 55865, Note_on_c, 3, 58, 0
4, 55872, Note_on_c, 3, 50, 100
4, 56060, Note_on_c, 3, 50, 0
4, 56064, Note_on_c, 3, 52, 100
4, 56534, Note_on_c, 3, 52, 0
4, 56544, Note_on_c, 3, 55, 80
4, 56633, Note_on_c, 3, 55, 0
4, 56640, Note_on_c, 3, 58, 100
4, 56828, Note_on_c, 3, 58, 0
4, 56832, Note_on_c, 3, 57, 100
4, 57114, Note_on_c, 3, 57, 0
4, 57120, Note_on_c, 3, 53, 80
4, 57590, Note_on_c, 3, 53, 0
4, 57600, Note_on_c, 3, 52, 100
4, 58160, Note_on_c, 3, 52, 0
4, 58176, Note_on_c, 3, 57, 100
4, 58364, Note_on_c, 3, 57, 0
4, 58368, Note_on_c, 3, 56, 100
4, 58739, Note_on_c, 3, 56, 0
4, 58752, Note_on_c, 3, 53, 100
4, 58940, Note_on_c, 3, 53, 0
4, 58944, Note_on_c, 3, 51, 100
4, 59132, Note_on_c, 3, 51, 0
4, 59136, Note_on_c, 3, 50, 100
4, 59700, Note_on_c, 3, 50, 0
4, 59712, Note_on_c, 3, 56, 100
4, 59900, Note_on_c, 3, 56, 0
4, 59904, Note_on_c, 3, 58, 100
4, 60275, Note_on_c, 3, 58, 0
4, 60288, Note_on_c, 3, 58, 100
4, 60476, Note_on_c, 3, 58, 0
4, 60480, Note_on_c, 3, 62, 100
4, 60668, Note_on_c, 3, 62, 0
4, 60672, Note_on_c, 3, 60, 100
4, 60761, Note_on_c, 3, 60, 0
4, 60768, Note_on_c, 3, 57, 100
4, 60956, Note_on_c, 3, 57, 0
4, 60960, Note_on_c, 3, 55, 80
4, 61054, Note_on_c, 3, 55, 0
4, 61056, Note_on_c, 3, 54, 100
4, 61145, Note_on_c, 3, 54, 0
4, 61152, Note_on_c, 3, 54, 80
4, 61246, Note_on_c, 3, 54, 0
4, 61248, Note_on_c, 3, 52, 100
4, 61436, Note_on_c, 3, 52, 0
4, 61440, Note_on_c, 3, 50, 100
4, 61816, Note_on_c, 3, 50, 0
4, 61824, Note_on_c, 3, 51, 80
4, 62101, Note_on_c, 3, 51, 0
4, 62112, Note_on_c, 3, 55, 80
4, 62206, Note_on_c, 3, 55, 0
4, 62208, Note_on_c, 3, 57, 100
4, 62485, Note_on_c, 3, 57, 0
4, 62496, Note_on_c, 3, 60, 80
4, 62590, Note_on_c, 3, 60, 0
4, 62592, Note_on_c, 3, 62, 100
4, 62681, Note_on_c, 3, 62, 0
4, 62688, Note_on_c, 3, 54, 100
4, 62876, Note_on_c, 3, 54, 0
4, 62880, Note_on_c, 3, 57, 80
4, 62974, Note_on_c, 3, 57, 0
4, 62976, Note_on_c, 3, 59, 100
4, 63536, Note_on_c, 3, 59, 0
4, 63552, Note_on_c, 3, 50, 100
4, 63740, Note_on_c, 3, 50, 0
4, 63744, Note_on_c, 3, 52, 100
4, 63927, Note_on_c, 3, 52, 0
4, 63936, Note_on_c, 3, 60, 100
4, 64124, Note_on_c, 3, 60, 0
4, 64128, Note_on_c, 3, 57, 100
4, 64311, Note_on_c, 3, 57, 0
4, 64320, Note_on_c, 3, 60, 100
4, 64508, Note_on_c, 3, 60, 0
4, 64512, Note_on_c, 3, 62, 100
4, 64695, Note_on_c, 3, 62, 0
4, 64704, Note_on_c, 3, 59, 100
4, 64892, Note_on_c, 3, 59, 0
4, 64896, Note_on_c, 3, 58, 100
4, 65079, Note_on_c, 3, 58, 0
4, 65088, Note_on_c, 3, 53, 100
4, 65276, Note_on_c, 3, 53, 0
4, 65280, Note_on_c, 3, 55, 100
4, 65369, Note_on_c, 3, 55, 0
4, 65376, Note_on_c, 3, 57, 100
4, 65564, Note_on_c, 3, 57, 0
4, 65568, Note_on_c, 3, 55, 80
4, 65662, Note_on_c, 3, 55, 0
4, 65664, Note_on_c, 3, 54, 100
4, 65946, Note_on_c, 3, 54, 0
4, 65952, Note_on_c, 3, 52, 80
4, 66046, Note_on_c, 3, 52, 0
4, 66048, Note_on_c, 3, 50, 100
4, 66231, Note_on_c, 3, 50, 0
4, 66240, Note_on_c, 3, 55, 100
4, 66334, Note_on_c, 3, 55, 0
4, 66336, Note_on_c, 3, 54, 80
4, 66524, Note_on_c, 3, 54, 0
4, 66528, Note_on_c, 3, 55, 80
4, 66622, Note_on_c, 3, 55, 0
4, 66624, Note_on_c, 3, 59, 80
4, 66718, Note_on_c, 3, 59, 0
4, 66720, Note_on_c, 3, 62, 80
4, 66814, Note_on_c, 3, 62, 0
4, 66816, Note_on_c, 3, 59, 100
4, 67192, Note_on_c, 3, 59, 0
4, 67200, Note_on_c, 3, 55, 80
4, 67383, Note_on_c, 3, 55, 0
4, 67392, Note_on_c, 3, 52, 100
4, 67580, Note_on_c, 3, 52, 0
4, 67584, Note_on_c, 3, 50, 100
4, 67960, Note_on_c, 3, 50, 0
4, 67968, Note_on_c, 3, 53, 80
4, 68156, Note_on_c, 3, 53, 0
4, 68160, Note_on_c, 3, 62, 100
4, 68348, Note_on_c, 3, 62, 0
4, 68352, Note_on_c, 3, 60, 100
4, 68634, Note_on_c, 3, 60, 0
4, 68640, Note_on_c, 3, 55, 80
4, 68917, Note_on_c, 3, 55, 0
4, 68928, Note_on_c, 3, 52, 100
4, 69116, Note_on_c, 3, 52, 0
4, 69120, Note_on_c, 3, 53, 100
4, 69491, Note_on_c, 3, 53, 0
4, 69504, Note_on_c, 3, 53, 100
4, 69692, Note_on_c, 3, 53, 0
4, 69696, Note_on_c, 3, 52, 80
4, 69790, Note_on_c, 3, 52, 0
4, 69792, Note_on_c, 3, 53, 80
4, 69886, Note_on_c, 3, 53, 0
4, 69888, Note_on_c, 3, 57, 100
4, 70448, Note_on_c, 3, 57, 0
4, 70464, Note_on_c, 3, 55, 100
4, 70652, Note_on_c, 3, 55, 0
4, 70656, Note_on_c, 3, 56, 100
4, 71216, Note_on_c, 3, 56, 0
4, 71232, Note_on_c, 3, 55, 100
4, 71420, Note_on_c, 3, 55, 0
4, 71424, Note_on_c, 3, 53, 100
4, 71706, Note_on_c, 3, 53, 0
4, 71712, Note_on_c, 3, 50, 80
4, 71994, Note_on_c, 3, 50, 0
4, 72000, Note_on_c, 3, 56, 100
4, 72188, Note_on_c, 3, 56, 0
4, 72192, Note_on_c, 3, 55, 100
4, 72474, Note_on_c, 3, 55, 0
4, 72480, Note_on_c, 3, 58, 80
4, 72663, Note_on_c, 3, 58, 0
4, 72672, Note_on_c, 3, 56, 100
4, 72860, Note_on_c, 3, 56, 0
4, 72864, Note_on_c, 3, 58, 80
4, 72958, Note_on_c, 3, 58, 0
4, 72960, Note_on_c, 3, 60, 100
4, 73143, Note_on_c, 3, 60, 0
4, 73152, Note_on_c, 3, 53, 100
4, 73340, Note_on_c, 3, 53, 0
4, 73344, Note_on_c, 3, 54, 100
4, 73527, Note_on_c, 3, 54, 0
4, 73536, Note_on_c, 3, 54, 100
4, 73724, Note_on_c, 3, 54, 0
4, 73728, Note_on_c, 3, 50, 100
4, 74010, Note_on_c, 3, 50, 0
4, 74016, Note_on_c, 3, 54, 80
4, 74105, Note_on_c, 3, 54, 0
4, 74112, Note_on_c, 3, 55, 100
4, 74300, Note_on_c, 3, 55, 0
4, 74304, Note_on_c, 3, 59, 100
4, 74492, Note_on_c, 3, 59, 0
4, 74496, Note_on_c, 3, 60, 100
4, 74679, Note_on_c, 3, 60, 0
4, 74688, Note_on_c, 3, 52, 100
4, 74876, Note_on_c, 3, 52, 0
4, 74880, Note_on_c, 3, 54, 100
4, 75063, Note_on_c, 3, 54, 0
4, 75072, Note_on_c, 3, 51, 100
4, 75260, Note_on_c, 3, 51, 0
4, 75264, Note_on_c, 3, 50, 100
4, 75447, Note_on_c, 3, 50, 0
4, 75456, Note_on_c, 3, 55, 100
4, 75644, Note_on_c, 3, 55, 0
4, 75648, Note_on_c, 3, 56, 100
4, 75831, Note_on_c, 3, 56, 0
4, 75840, Note_on_c, 3, 58, 100
4, 76028, Note_on_c, 3, 58, 0
4, 76032, Note_on_c, 3, 60, 100
4, 76121, Note_on_c, 3, 60, 0
4, 76128, Note_on_c, 3, 59, 100
4, 76316, Note_on_c, 3, 59, 0
4, 76320, Note_on_c, 3, 60, 80
4, 76414, Note_on_c, 3, 60, 0
4, 76416, Note_on_c, 3, 62, 100
4, 76505, Note_on_c, 3, 62, 0
4, 76512, Note_on_c, 3, 62, 100
4, 76700, Note_on_c, 3, 62, 0
4, 76704, Note_on_c, 3, 60, 80
4, 76798, Note_on_c, 3, 60, 0
4, 76798, End_track
5, 0, Start_track
5, 0, MIDI_port, 0
5, 0, Title_t, "Rock Organ"
5, 0, Control_c, 4, 0, 0
5, 0, Control_c, 4, 121, 0
5, 0, Control_c, 4, 0, 0
5, 14, Control_c, 4, 91, 50
5, 212, Control_c, 4, 0, 0
5, 213, Control_c, 4, 32, 0
5, 214, Program_c, 4, 18
5, 215, Control_c, 4, 7, 90
5, 215, Control_c, 4, 10, 44
5, 1536, Note_on_c, 4, 66, 45
5, 1536, Note_on_c, 4, 74, 45
5, 1536, Note_on_c, 4, 69, 45
5, 1536, Note_on_c, 4, 83, 45
5, 1905, Note_on_c, 4, 74, 0
5, 1908, Note_on_c, 4, 66, 0
5, 1908, Note_on_c, 4, 69, 0
5, 1912, Note_on_c, 4, 83, 0
5, 1920, Note_on_c, 4, 68, 45
5, 1920, Note_on_c, 4, 74, 45
5, 1920, Note_on_c, 4, 77, 45
5, 1920, Note_on_c, 4, 82, 45
5, 2289, Note_on_c, 4, 74, 0
5, 2291, Note_on_c, 4, 77, 0
5, 2292, Note_on_c, 4, 68, 0
5, 2296, Note_on_c, 4, 82, 0
5, 2304, Note_on_c, 4, 72, 45
5, 2304, Note_on_c, 4, 76, 45
5, 2304, Note_on_c, 4, 79, 45
5, 2304, Note_on_c, 4, 81, 45
5, 2673, Note_on_c, 4, 79, 0
5, 2673, Note_on_c, 4, 76, 0
5, 2676, Note_on_c, 4, 72, 0
5, 2680, Note_on_c, 4, 81, 0
5, 2688, Note_on_c, 4, 69, 45
5, 2688, Note_on_c, 4, 72, 45
5, 2688, Note_on_c, 4, 78, 45
5, 2688, Note_on_c, 4, 86, 45
5, 3057, Note_on_c, 4, 72, 0
5, 3057, Note_on_c, 4, 69, 0
5, 3059, Note_on_c, 4, 78, 0
5, 3064, Note_on_c, 4, 86, 0
5, 3072, Note_on_c, 4, 67, 45
5, 3072, Note_on_c, 4, 71, 45
5, 3072, Note_on_c, 4, 74, 45
5, 3072, Note_on_c, 4, 76, 45
5, 3072, Note_on_c, 4, 79, 45
5, 3818, Note_on_c, 4, 76, 0
5, 3818, Note_on_c, 4, 67, 0
5, 3820, Note_on_c, 4, 71, 0
5, 3821, Note_on_c, 4, 74, 0
5, 3825, Note_on_c, 4, 79, 0
5, 3840, Note_on_c, 4, 67, 45
5, 3840, Note_on_c, 4, 72, 45
5, 3840, Note_on_c, 4, 76, 45
5, 3840, Note_on_c, 4, 81, 45
5, 4211, Note_on_c, 4, 72, 0
5, 4212, Note_on_c, 4, 67, 0
5, 4212, Note_on_c, 4, 76, 0
5, 4216, Note_on_c, 4, 81, 0
5, 4224, Note_on_c, 4, 66, 45
5, 4224, Note_on_c, 4, 69, 45
5, 4224, Note_on_c, 4, 72, 45
5, 4224, Note_on_c, 4, 86, 45
5, 4595, Note_on_c, 4, 66, 0
5, 4596, Note_on_c, 4, 69, 0
5, 4596, Note_on_c, 4, 72, 0
5, 4600, Note_on_c, 4, 86, 0
5, 4608, Note_on_c, 4, 62, 60
5, 4608, Note_on_c, 4, 66, 60
5, 4608, Note_on_c, 4, 67, 60
5, 4608, Note_on_c, 4, 71, 60
5, 5354, Note_on_c, 4, 71, 0
5, 5354, Note_on_c, 4, 66, 0
5, 5357, Note_on_c, 4, 67, 0
5, 5357, Note_on_c, 4, 62, 0
5, 5376, Note_on_c, 4, 62, 60
5, 5376, Note_on_c, 4, 66, 60
5, 5376, Note_on_c, 4, 67, 60
5, 5376, Note_on_c, 4, 71, 60
5, 5856, Note_on_c, 4, 66, 60
5, 5950, Note_on_c, 4, 66, 0
5, 5952, Note_on_c, 4, 62, 65
5, 5964, Note_on_c, 4, 62, 0
5, 6124, Note_on_c, 4, 66, 0
5, 6124, Note_on_c, 4, 71, 0
5, 6124, Note_on_c, 4, 67, 0
5, 6124, Note_on_c, 4, 62, 0
5, 6144, Note_on_c, 4, 65, 60
5, 6144, Note_on_c, 4, 70, 60
5, 6144, Note_on_c, 4, 74, 60
5, 6528, Note_on_c, 4, 67, 60
5, 6540, Note_on_c, 4, 67, 0
5, 6720, Note_on_c, 4, 65, 65
5, 6892, Note_on_c, 4, 74, 0
5, 6892, Note_on_c, 4, 70, 0
5, 6897, Note_on_c, 4, 65, 0
5, 6903, Note_on_c, 4, 65, 0
5, 6912, Note_on_c, 4, 64, 60
5, 6912, Note_on_c, 4, 67, 60
5, 6912, Note_on_c, 4, 70, 60
5, 7296, Note_on_c, 4, 70, 65
5, 7484, Note_on_c, 4, 70, 0
5, 7488, Note_on_c, 4, 67, 65
5, 7660, Note_on_c, 4, 70, 0
5, 7660, Note_on_c, 4, 64, 0
5, 7665, Note_on_c, 4, 67, 0
5, 7671, Note_on_c, 4, 67, 0
5, 7680, Note_on_c, 4, 64, 60
5, 7680, Note_on_c, 4, 65, 60
5, 7680, Note_on_c, 4, 69, 60
5, 7680, Note_on_c, 4, 72, 60
5, 8426, Note_on_c, 4, 69, 0
5, 8426, Note_on_c, 4, 65, 0
5, 8428, Note_on_c, 4, 72, 0
5, 8429, Note_on_c, 4, 64, 0
5, 8448, Note_on_c, 4, 64, 60
5, 8448, Note_on_c, 4, 65, 60
5, 8448, Note_on_c, 4, 69, 60
5, 8448, Note_on_c, 4, 72, 60
5, 8832, Note_on_c, 4, 72, 65
5, 8844, Note_on_c, 4, 72, 0
5, 9024, Note_on_c, 4, 69, 65
5, 9196, Note_on_c, 4, 65, 0
5, 9196, Note_on_c, 4, 72, 0
5, 9196, Note_on_c, 4, 64, 0
5, 9201, Note_on_c, 4, 69, 0
5, 9207, Note_on_c, 4, 69, 0
5, 9216, Note_on_c, 4, 68, 60
5, 9216, Note_on_c, 4, 72, 60
5, 9216, Note_on_c, 4, 75, 60
5, 9696, Note_on_c, 4, 65, 65
5, 9884, Note_on_c, 4, 65, 0
5, 9888, Note_on_c, 4, 63, 60
5, 9900, Note_on_c, 4, 63, 0
5, 9964, Note_on_c, 4, 75, 0
5, 9964, Note_on_c, 4, 72, 0
5, 9964, Note_on_c, 4, 68, 0
5, 9984, Note_on_c, 4, 65, 60
5, 9984, Note_on_c, 4, 68, 60
5, 9984, Note_on_c, 4, 74, 60
5, 10272, Note_on_c, 4, 74, 60
5, 10284, Note_on_c, 4, 74, 0
5, 10368, Note_on_c, 4, 70, 65
5, 10556, Note_on_c, 4, 70, 0
5, 10560, Note_on_c, 4, 68, 60
5, 10732, Note_on_c, 4, 74, 0
5, 10732, Note_on_c, 4, 65, 0
5, 10737, Note_on_c, 4, 68, 0
5, 10743, Note_on_c, 4, 68, 0
5, 10752, Note_on_c, 4, 67, 60
5, 10752, Note_on_c, 4, 70, 60
5, 10752, Note_on_c, 4, 74, 60
5, 10752, Note_on_c, 4, 75, 60
5, 11232, Note_on_c, 4, 62, 65
5, 11420, Note_on_c, 4, 62, 0
5, 11424, Note_on_c, 4, 63, 60
5, 11500, Note_on_c, 4, 74, 0
5, 11500, Note_on_c, 4, 75, 0
5, 11500, Note_on_c, 4, 67, 0
5, 11500, Note_on_c, 4, 70, 0
5, 11518, Note_on_c, 4, 63, 0
5, 11520, Note_on_c, 4, 64, 60
5, 11520, Note_on_c, 4, 67, 60
5, 11520, Note_on_c, 4, 72, 60
5, 11808, Note_on_c, 4, 64, 65
5, 11820, Note_on_c, 4, 64, 0
5, 12000, Note_on_c, 4, 62, 65
5, 12031, Note_on_c, 4, 62, 0
5, 12192, Note_on_c, 4, 66, 60
5, 12268, Note_on_c, 4, 64, 0
5, 12268, Note_on_c, 4, 67, 0
5, 12268, Note_on_c, 4, 72, 0
5, 12286, Note_on_c, 4, 66, 0
5, 12288, Note_on_c, 4, 62, 60
5, 12288, Note_on_c, 4, 65, 60
5, 12288, Note_on_c, 4, 70, 60
5, 12672, Note_on_c, 4, 65, 65
5, 12703, Note_on_c, 4, 65, 0
5, 12864, Note_on_c, 4, 62, 60
5, 12876, Note_on_c, 4, 62, 0
5, 13036, Note_on_c, 4, 65, 0
5, 13036, Note_on_c, 4, 70, 0
5, 13036, Note_on_c, 4, 62, 0
5, 13056, Note_on_c, 4, 63, 60
5, 13056, Note_on_c, 4, 67, 60
5, 13056, Note_on_c, 4, 72, 60
5, 13425, Note_on_c, 4, 63, 0
5, 13427, Note_on_c, 4, 67, 0
5, 13428, Note_on_c, 4, 72, 0
5, 13440, Note_on_c, 4, 63, 60
5, 13440, Note_on_c, 4, 66, 60
5, 13440, Note_on_c, 4, 69, 60
5, 13440, Note_on_c, 4, 72, 60
5, 13536, Note_on_c, 4, 62, 65
5, 13548, Note_on_c, 4, 62, 0
5, 13728, Note_on_c, 4, 63, 60
5, 13740, Note_on_c, 4, 63, 0
5, 13811, Note_on_c, 4, 72, 0
5, 13811, Note_on_c, 4, 66, 0
5, 13811, Note_on_c, 4, 69, 0
5, 13811, Note_on_c, 4, 63, 0
5, 13824, Note_on_c, 4, 62, 60
5, 13824, Note_on_c, 4, 66, 60
5, 13824, Note_on_c, 4, 67, 60
5, 13824, Note_on_c, 4, 71, 60
5, 14112, Note_on_c, 4, 67, 65
5, 14124, Note_on_c, 4, 67, 0
5, 14304, Note_on_c, 4, 66, 60
5, 14335, Note_on_c, 4, 66, 0
5, 14400, Note_on_c, 4, 62, 65
5, 14431, Note_on_c, 4, 62, 0
5, 14572, Note_on_c, 4, 66, 0
5, 14572, Note_on_c, 4, 71, 0
5, 14572, Note_on_c, 4, 67, 0
5, 14572, Note_on_c, 4, 62, 0
5, 14592, Note_on_c, 4, 64, 60
5, 14592, Note_on_c, 4, 67, 60
5, 14592, Note_on_c, 4, 72, 60
5, 14976, Note_on_c, 4, 72, 60
5, 15007, Note_on_c, 4, 72, 0
5, 15168, Note_on_c, 4, 69, 65
5, 15340, Note_on_c, 4, 64, 0
5, 15340, Note_on_c, 4, 72, 0
5, 15340, Note_on_c, 4, 67, 0
5, 15356, Note_on_c, 4, 69, 0
5, 15360, Note_on_c, 4, 66, 60
5, 15360, Note_on_c, 4, 69, 60
5, 15360, Note_on_c, 4, 74, 60
5, 15840, Note_on_c, 4, 65, 65
5, 15852, Note_on_c, 4, 65, 0
5, 16032, Note_on_c, 4, 62, 60
5, 16108, Note_on_c, 4, 66, 0
5, 16108, Note_on_c, 4, 74, 0
5, 16108, Note_on_c, 4, 69, 0
5, 16126, Note_on_c, 4, 62, 0
5, 16128, Note_on_c, 4, 64, 60
5, 16128, Note_on_c, 4, 67, 60
5, 16128, Note_on_c, 4, 72, 60
5, 16512, Note_on_c, 4, 69, 65
5, 16524, Note_on_c, 4, 69, 0
5, 16704, Note_on_c, 4, 66, 60
5, 16876, Note_on_c, 4, 64, 0
5, 16876, Note_on_c, 4, 72, 0
5, 16876, Note_on_c, 4, 67, 0
5, 16892, Note_on_c, 4, 66, 0
5, 16896, Note_on_c, 4, 62, 60
5, 16896, Note_on_c, 4, 66, 60
5, 16896, Note_on_c, 4, 67, 60
5, 16896, Note_on_c, 4, 71, 60
5, 17644, Note_on_c, 4, 71, 0
5, 17644, Note_on_c, 4, 62, 0
5, 17644, Note_on_c, 4, 66, 0
5, 17644, Note_on_c, 4, 67, 0
5, 17664, Note_on_c, 4, 62, 60
5, 17664, Note_on_c, 4, 66, 60
5, 17664, Note_on_c, 4, 67, 60
5, 17664, Note_on_c, 4, 71, 60
5, 18144, Note_on_c, 4, 67, 65
5, 18332, Note_on_c, 4, 67, 0
5, 18336, Note_on_c, 4, 66, 60
5, 18412, Note_on_c, 4, 71, 0
5, 18412, Note_on_c, 4, 67, 0
5, 18412, Note_on_c, 4, 62, 0
5, 18417, Note_on_c, 4, 66, 0
5, 18425, Note_on_c, 4, 66, 0
5, 18432, Note_on_c, 4, 62, 60
5, 18432, Note_on_c, 4, 65, 60
5, 18432, Note_on_c, 4, 70, 60
5, 18912, Note_on_c, 4, 65, 60
5, 19006, Note_on_c, 4, 65, 0
5, 19008, Note_on_c, 4, 62, 65
5, 19039, Note_on_c, 4, 62, 0
5, 19180, Note_on_c, 4, 65, 0
5, 19180, Note_on_c, 4, 70, 0
5, 19180, Note_on_c, 4, 62, 0
5, 19200, Note_on_c, 4, 64, 60
5, 19200, Note_on_c, 4, 67, 60
5, 19200, Note_on_c, 4, 70, 60
5, 19776, Note_on_c, 4, 67, 65
5, 19788, Note_on_c, 4, 67, 0
5, 19948, Note_on_c, 4, 64, 0
5, 19948, Note_on_c, 4, 70, 0
5, 19948, Note_on_c, 4, 67, 0
5, 19968, Note_on_c, 4, 64, 60
5, 19968, Note_on_c, 4, 65, 60
5, 19968, Note_on_c, 4, 69, 60
5, 19968, Note_on_c, 4, 72, 60
5, 20714, Note_on_c, 4, 64, 0
5, 20716, Note_on_c, 4, 65, 0
5, 20716, Note_on_c, 4, 69, 0
5, 20716, Note_on_c, 4, 72, 0
5, 20736, Note_on_c, 4, 64, 60
5, 20736, Note_on_c, 4, 65, 60
5, 20736, Note_on_c, 4, 69, 60
5, 20736, Note_on_c, 4, 72, 60
5, 21216, Note_on_c, 4, 64, 65
5, 21404, Note_on_c, 4, 64, 0
5, 21408, Note_on_c, 4, 65, 60
5, 21420, Note_on_c, 4, 65, 0
5, 21484, Note_on_c, 4, 64, 0
5, 21484, Note_on_c, 4, 72, 0
5, 21484, Note_on_c, 4, 69, 0
5, 21484, Note_on_c, 4, 65, 0
5, 21504, Note_on_c, 4, 68, 60
5, 21504, Note_on_c, 4, 72, 60
5, 21504, Note_on_c, 4, 75, 60
5, 21792, Note_on_c, 4, 68, 65
5, 21804, Note_on_c, 4, 68, 0
5, 21984, Note_on_c, 4, 65, 65
5, 22015, Note_on_c, 4, 65, 0
5, 22176, Note_on_c, 4, 63, 60
5, 22252, Note_on_c, 4, 68, 0
5, 22252, Note_on_c, 4, 72, 0
5, 22252, Note_on_c, 4, 75, 0
5, 22270, Note_on_c, 4, 63, 0
5, 22272, Note_on_c, 4, 62, 60
5, 22272, Note_on_c, 4, 65, 60
5, 22272, Note_on_c, 4, 68, 60
5, 22752, Note_on_c, 4, 68, 60
5, 22764, Note_on_c, 4, 68, 0
5, 22848, Note_on_c, 4, 65, 65
5, 22860, Note_on_c, 4, 65, 0
5, 23020, Note_on_c, 4, 68, 0
5, 23020, Note_on_c, 4, 62, 0
5, 23020, Note_on_c, 4, 65, 0
5, 23040, Note_on_c, 4, 63, 60
5, 23040, Note_on_c, 4, 67, 60
5, 23040, Note_on_c, 4, 70, 60
5, 23040, Note_on_c, 4, 74, 60
5, 23328, Note_on_c, 4, 63, 60
5, 23422, Note_on_c, 4, 63, 0
5, 23424, Note_on_c, 4, 62, 65
5, 23455, Note_on_c, 4, 62, 0
5, 23616, Note_on_c, 4, 63, 65
5, 23788, Note_on_c, 4, 67, 0
5, 23788, Note_on_c, 4, 74, 0
5, 23788, Note_on_c, 4, 70, 0
5, 23793, Note_on_c, 4, 63, 0
5, 23799, Note_on_c, 4, 63, 0
5, 23808, Note_on_c, 4, 64, 60
5, 23808, Note_on_c, 4, 67, 60
5, 23808, Note_on_c, 4, 72, 60
5, 24288, Note_on_c, 4, 66, 65
5, 24476, Note_on_c, 4, 66, 0
5, 24480, Note_on_c, 4, 62, 60
5, 24492, Note_on_c, 4, 62, 0
5, 24556, Note_on_c, 4, 72, 0
5, 24556, Note_on_c, 4, 67, 0
5, 24556, Note_on_c, 4, 64, 0
5, 24576, Note_on_c, 4, 66, 60
5, 24576, Note_on_c, 4, 67, 60
5, 24576, Note_on_c, 4, 71, 60
5, 24576, Note_on_c, 4, 74, 60
5, 25056, Note_on_c, 4, 66, 60
5, 25087, Note_on_c, 4, 66, 0
5, 25152, Note_on_c, 4, 62, 65
5, 25164, Note_on_c, 4, 62, 0
5, 25324, Note_on_c, 4, 66, 0
5, 25324, Note_on_c, 4, 67, 0
5, 25324, Note_on_c, 4, 71, 0
5, 25324, Note_on_c, 4, 74, 0
5, 25344, Note_on_c, 4, 64, 60
5, 25344, Note_on_c, 4, 67, 60
5, 25344, Note_on_c, 4, 72, 60
5, 25713, Note_on_c, 4, 72, 0
5, 25715, Note_on_c, 4, 67, 0
5, 25715, Note_on_c, 4, 64, 0
5, 25728, Note_on_c, 4, 66, 60
5, 25728, Note_on_c, 4, 69, 60
5, 25728, Note_on_c, 4, 72, 60
5, 25728, Note_on_c, 4, 75, 60
5, 25824, Note_on_c, 4, 66, 65
5, 25836, Note_on_c, 4, 66, 0
5, 26016, Note_on_c, 4, 63, 60
5, 26028, Note_on_c, 4, 63, 0
5, 26099, Note_on_c, 4, 66, 0
5, 26099, Note_on_c, 4, 69, 0
5, 26099, Note_on_c, 4, 72, 0
5, 26099, Note_on_c, 4, 75, 0
5, 26112, Note_on_c, 4, 62, 60
5, 26112, Note_on_c, 4, 66, 60
5, 26112, Note_on_c, 4, 69, 60
5, 26481, Note_on_c, 4, 66, 0
5, 26483, Note_on_c, 4, 62, 0
5, 26484, Note_on_c, 4, 69, 0
5, 26496, Note_on_c, 4, 62, 60
5, 26496, Note_on_c, 4, 65, 60
5, 26496, Note_on_c, 4, 68, 60
5, 26592, Note_on_c, 4, 68, 65
5, 26623, Note_on_c, 4, 68, 0
5, 26784, Note_on_c, 4, 65, 60
5, 26867, Note_on_c, 4, 68, 0
5, 26867, Note_on_c, 4, 62, 0
5, 26872, Note_on_c, 4, 65, 0
5, 26873, Note_on_c, 4, 65, 0
5, 26880, Note_on_c, 4, 64, 60
5, 26880, Note_on_c, 4, 67, 60
5, 26880, Note_on_c, 4, 72, 60
5, 27264, Note_on_c, 4, 66, 65
5, 27452, Note_on_c, 4, 66, 0
5, 27456, Note_on_c, 4, 62, 60
5, 27487, Note_on_c, 4, 62, 0
5, 27628, Note_on_c, 4, 72, 0
5, 27628, Note_on_c, 4, 67, 0
5, 27628, Note_on_c, 4, 64, 0
5, 27648, Note_on_c, 4, 64, 60
5, 27648, Note_on_c, 4, 67, 60
5, 27648, Note_on_c, 4, 71, 60
5, 27648, Note_on_c, 4, 74, 60
5, 27936, Note_on_c, 4, 67, 65
5, 27967, Note_on_c, 4, 67, 0
5, 28128, Note_on_c, 4, 64, 65
5, 28140, Note_on_c, 4, 64, 0
5, 28320, Note_on_c, 4, 62, 60
5, 28396, Note_on_c, 4, 67, 0
5, 28396, Note_on_c, 4, 64, 0
5, 28396, Note_on_c, 4, 74, 0
5, 28396, Note_on_c, 4, 71, 0
5, 28414, Note_on_c, 4, 62, 0
5, 28416, Note_on_c, 4, 64, 60
5, 28416, Note_on_c, 4, 67, 60
5, 28416, Note_on_c, 4, 72, 60
5, 28785, Note_on_c, 4, 67, 0
5, 28787, Note_on_c, 4, 72, 0
5, 28787, Note_on_c, 4, 64, 0
5, 28800, Note_on_c, 4, 66, 60
5, 28800, Note_on_c, 4, 69, 60
5, 28800, Note_on_c, 4, 72, 60
5, 29169, Note_on_c, 4, 72, 0
5, 29171, Note_on_c, 4, 66, 0
5, 29172, Note_on_c, 4, 69, 0
5, 29184, Note_on_c, 4, 66, 60
5, 29184, Note_on_c, 4, 67, 60
5, 29184, Note_on_c, 4, 71, 60
5, 29184, Note_on_c, 4, 74, 60
5, 29930, Note_on_c, 4, 71, 0
5, 29932, Note_on_c, 4, 74, 0
5, 29933, Note_on_c, 4, 67, 0
5, 29933, Note_on_c, 4, 66, 0
5, 29952, Note_on_c, 4, 66, 60
5, 29952, Note_on_c, 4, 67, 60
5, 29952, Note_on_c, 4, 71, 60
5, 29952, Note_on_c, 4, 74, 60
5, 30240, Note_on_c, 4, 71, 65
5, 30271, Note_on_c, 4, 71, 0
5, 30432, Note_on_c, 4, 67, 60
5, 30463, Note_on_c, 4, 67, 0
5, 30528, Note_on_c, 4, 66, 65
5, 30540, Note_on_c, 4, 66, 0
5, 30700, Note_on_c, 4, 67, 0
5, 30700, Note_on_c, 4, 74, 0
5, 30700, Note_on_c, 4, 71, 0
5, 30700, Note_on_c, 4, 66, 0
5, 30720, Note_on_c, 4, 62, 60
5, 30720, Note_on_c, 4, 65, 60
5, 30720, Note_on_c, 4, 70, 60
5, 31200, Note_on_c, 4, 65, 60
5, 31212, Note_on_c, 4, 65, 0
5, 31296, Note_on_c, 4, 62, 65
5, 31327, Note_on_c, 4, 62, 0
5, 31468, Note_on_c, 4, 65, 0
5, 31468, Note_on_c, 4, 70, 0
5, 31468, Note_on_c, 4, 62, 0
5, 31488, Note_on_c, 4, 64, 60
5, 31488, Note_on_c, 4, 67, 60
5, 31488, Note_on_c, 4, 70, 60
5, 31776, Note_on_c, 4, 72, 60
5, 31870, Note_on_c, 4, 72, 0
5, 31872, Note_on_c, 4, 70, 65
5, 31903, Note_on_c, 4, 70, 0
5, 32064, Note_on_c, 4, 67, 60
5, 32076, Note_on_c, 4, 67, 0
5, 32236, Note_on_c, 4, 70, 0
5, 32236, Note_on_c, 4, 64, 0
5, 32236, Note_on_c, 4, 67, 0
5, 32256, Note_on_c, 4, 64, 60
5, 32256, Note_on_c, 4, 65, 60
5, 32256, Note_on_c, 4, 69, 60
5, 32256, Note_on_c, 4, 72, 60
5, 33002, Note_on_c, 4, 64, 0
5, 33004, Note_on_c, 4, 65, 0
5, 33004, Note_on_c, 4, 69, 0
5, 33004, Note_on_c, 4, 72, 0
5, 33024, Note_on_c, 4, 64, 60
5, 33024, Note_on_c, 4, 65, 60
5, 33024, Note_on_c, 4, 69, 60
5, 33024, Note_on_c, 4, 72, 60
5, 33600, Note_on_c, 4, 64, 60
5, 33772, Note_on_c, 4, 72, 0
5, 33772, Note_on_c, 4, 69, 0
5, 33772, Note_on_c, 4, 65, 0
5, 33777, Note_on_c, 4, 64, 0
5, 33783, Note_on_c, 4, 64, 0
5, 33792, Note_on_c, 4, 63, 60
5, 33792, Note_on_c, 4, 68, 60
5, 33792, Note_on_c, 4, 72, 60
5, 34272, Note_on_c, 4, 65, 65
5, 34284, Note_on_c, 4, 65, 0
5, 34464, Note_on_c, 4, 63, 60
5, 34495, Note_on_c, 4, 63, 0
5, 34540, Note_on_c, 4, 68, 0
5, 34540, Note_on_c, 4, 72, 0
5, 34540, Note_on_c, 4, 63, 0
5, 34560, Note_on_c, 4, 62, 60
5, 34560, Note_on_c, 4, 65, 60
5, 34560, Note_on_c, 4, 68, 60
5, 35040, Note_on_c, 4, 62, 60
5, 35052, Note_on_c, 4, 62, 0
5, 35136, Note_on_c, 4, 65, 65
5, 35148, Note_on_c, 4, 65, 0
5, 35308, Note_on_c, 4, 62, 0
5, 35308, Note_on_c, 4, 68, 0
5, 35308, Note_on_c, 4, 65, 0
5, 35328, Note_on_c, 4, 67, 60
5, 35328, Note_on_c, 4, 70, 60
5, 35328, Note_on_c, 4, 74, 60
5, 35328, Note_on_c, 4, 75, 60
5, 35808, Note_on_c, 4, 62, 65
5, 35820, Note_on_c, 4, 62, 0
5, 36000, Note_on_c, 4, 63, 60
5, 36076, Note_on_c, 4, 74, 0
5, 36076, Note_on_c, 4, 75, 0
5, 36076, Note_on_c, 4, 67, 0
5, 36076, Note_on_c, 4, 70, 0
5, 36094, Note_on_c, 4, 63, 0
5, 36096, Note_on_c, 4, 64, 60
5, 36096, Note_on_c, 4, 67, 60
5, 36096, Note_on_c, 4, 72, 60
5, 36576, Note_on_c, 4, 69, 60
5, 36588, Note_on_c, 4, 69, 0
5, 36672, Note_on_c, 4, 66, 65
5, 36703, Note_on_c, 4, 66, 0
5, 36844, Note_on_c, 4, 72, 0
5, 36844, Note_on_c, 4, 67, 0
5, 36844, Note_on_c, 4, 64, 0
5, 36864, Note_on_c, 4, 65, 60
5, 36864, Note_on_c, 4, 70, 60
5, 36864, Note_on_c, 4, 74, 60
5, 37152, Note_on_c, 4, 67, 65
5, 37183, Note_on_c, 4, 67, 0
5, 37344, Note_on_c, 4, 65, 65
5, 37375, Note_on_c, 4, 65, 0
5, 37536, Note_on_c, 4, 62, 60
5, 37567, Note_on_c, 4, 62, 0
5, 37612, Note_on_c, 4, 65, 0
5, 37612, Note_on_c, 4, 74, 0
5, 37612, Note_on_c, 4, 70, 0
5, 37632, Note_on_c, 4, 63, 60
5, 37632, Note_on_c, 4, 67, 60
5, 37632, Note_on_c, 4, 72, 60
5, 38001, Note_on_c, 4, 72, 0
5, 38001, Note_on_c, 4, 67, 0
5, 38004, Note_on_c, 4, 63, 0
5, 38016, Note_on_c, 4, 66, 60
5, 38016, Note_on_c, 4, 69, 60
5, 38016, Note_on_c, 4, 72, 60
5, 38016, Note_on_c, 4, 75, 60
5, 38112, Note_on_c, 4, 62, 65
5, 38300, Note_on_c, 4, 62, 0
5, 38304, Note_on_c, 4, 63, 60
5, 38316, Note_on_c, 4, 63, 0
5, 38387, Note_on_c, 4, 75, 0
5, 38387, Note_on_c, 4, 66, 0
5, 38387, Note_on_c, 4, 69, 0
5, 38387, Note_on_c, 4, 72, 0
5, 38400, Note_on_c, 4, 62, 60
5, 38400, Note_on_c, 4, 66, 60
5, 38400, Note_on_c, 4, 67, 60
5, 38400, Note_on_c, 4, 71, 60
5, 38976, Note_on_c, 4, 66, 60
5, 38988, Note_on_c, 4, 66, 0
5, 39148, Note_on_c, 4, 71, 0
5, 39148, Note_on_c, 4, 62, 0
5, 39148, Note_on_c, 4, 67, 0
5, 39148, Note_on_c, 4, 66, 0
5, 39168, Note_on_c, 4, 64, 60
5, 39168, Note_on_c, 4, 67, 60
5, 39168, Note_on_c, 4, 72, 60
5, 39648, Note_on_c, 4, 66, 65
5, 39836, Note_on_c, 4, 66, 0
5, 39840, Note_on_c, 4, 62, 60
5, 39871, Note_on_c, 4, 62, 0
5, 39916, Note_on_c, 4, 72, 0
5, 39916, Note_on_c, 4, 67, 0
5, 39916, Note_on_c, 4, 64, 0
5, 39936, Note_on_c, 4, 66, 60
5, 39936, Note_on_c, 4, 69, 60
5, 39936, Note_on_c, 4, 74, 60
5, 40224, Note_on_c, 4, 66, 65
5, 40412, Note_on_c, 4, 66, 0
5, 40416, Note_on_c, 4, 68, 65
5, 40604, Note_on_c, 4, 68, 0
5, 40608, Note_on_c, 4, 65, 60
5, 40620, Note_on_c, 4, 65, 0
5, 40684, Note_on_c, 4, 69, 0
5, 40684, Note_on_c, 4, 74, 0
5, 40684, Note_on_c, 4, 66, 0
5, 40704, Note_on_c, 4, 64, 60
5, 40704, Note_on_c, 4, 67, 60
5, 40704, Note_on_c, 4, 72, 60
5, 41073, Note_on_c, 4, 64, 0
5, 41075, Note_on_c, 4, 72, 0
5, 41076, Note_on_c, 4, 67, 0
5, 41088, Note_on_c, 4, 66, 60
5, 41088, Note_on_c, 4, 69, 60
5, 41088, Note_on_c, 4, 72, 60
5, 41280, Note_on_c, 4, 66, 65
5, 41311, Note_on_c, 4, 66, 0
5, 41459, Note_on_c, 4, 69, 0
5, 41459, Note_on_c, 4, 72, 0
5, 41459, Note_on_c, 4, 66, 0
5, 41472, Note_on_c, 4, 62, 60
5, 41472, Note_on_c, 4, 66, 60
5, 41472, Note_on_c, 4, 67, 60
5, 41472, Note_on_c, 4, 71, 60
5, 42218, Note_on_c, 4, 67, 0
5, 42218, Note_on_c, 4, 66, 0
5, 42221, Note_on_c, 4, 62, 0
5, 42221, Note_on_c, 4, 71, 0
5, 42240, Note_on_c, 4, 62, 60
5, 42240, Note_on_c, 4, 66, 60
5, 42240, Note_on_c, 4, 67, 60
5, 42240, Note_on_c, 4, 71, 60
5, 42528, Note_on_c, 4, 71, 60
5, 42622, Note_on_c, 4, 71, 0
5, 42624, Note_on_c, 4, 67, 65
5, 42655, Note_on_c, 4, 67, 0
5, 42816, Note_on_c, 4, 66, 60
5, 42828, Note_on_c, 4, 66, 0
5, 42988, Note_on_c, 4, 67, 0
5, 42988, Note_on_c, 4, 62, 0
5, 42988, Note_on_c, 4, 71, 0
5, 42988, Note_on_c, 4, 66, 0
5, 43008, Note_on_c, 4, 65, 60
5, 43008, Note_on_c, 4, 70, 60
5, 43008, Note_on_c, 4, 74, 60
5, 43488, Note_on_c, 4, 65, 65
5, 43676, Note_on_c, 4, 65, 0
5, 43680, Note_on_c, 4, 62, 60
5, 43756, Note_on_c, 4, 70, 0
5, 43756, Note_on_c, 4, 65, 0
5, 43756, Note_on_c, 4, 74, 0
5, 43774, Note_on_c, 4, 62, 0
5, 43776, Note_on_c, 4, 64, 60
5, 43776, Note_on_c, 4, 67, 60
5, 43776, Note_on_c, 4, 70, 60
5, 44160, Note_on_c, 4, 70, 60
5, 44191, Note_on_c, 4, 70, 0
5, 44352, Note_on_c, 4, 67, 65
5, 44383, Note_on_c, 4, 67, 0
5, 44524, Note_on_c, 4, 70, 0
5, 44524, Note_on_c, 4, 64, 0
5, 44524, Note_on_c, 4, 67, 0
5, 44544, Note_on_c, 4, 64, 60
5, 44544, Note_on_c, 4, 65, 60
5, 44544, Note_on_c, 4, 69, 60
5, 44544, Note_on_c, 4, 72, 60
5, 45290, Note_on_c, 4, 72, 0
5, 45290, Note_on_c, 4, 69, 0
5, 45290, Note_on_c, 4, 65, 0
5, 45293, Note_on_c, 4, 64, 0
5, 45312, Note_on_c, 4, 64, 60
5, 45312, Note_on_c, 4, 65, 60
5, 45312, Note_on_c, 4, 69, 60
5, 45312, Note_on_c, 4, 72, 60
5, 45792, Note_on_c, 4, 65, 65
5, 45823, Note_on_c, 4, 65, 0
5, 45984, Note_on_c, 4, 64, 60
5, 46060, Note_on_c, 4, 72, 0
5, 46060, Note_on_c, 4, 65, 0
5, 46060, Note_on_c, 4, 69, 0
5, 46065, Note_on_c, 4, 64, 0
5, 46073, Note_on_c, 4, 64, 0
5, 46080, Note_on_c, 4, 63, 60
5, 46080, Note_on_c, 4, 68, 60
5, 46080, Note_on_c, 4, 72, 60
5, 46368, Note_on_c, 4, 68, 65
5, 46556, Note_on_c, 4, 68, 0
5, 46560, Note_on_c, 4, 65, 65
5, 46591, Note_on_c, 4, 65, 0
5, 46752, Note_on_c, 4, 63, 60
5, 46828, Note_on_c, 4, 68, 0
5, 46828, Note_on_c, 4, 72, 0
5, 46833, Note_on_c, 4, 63, 0
5, 46841, Note_on_c, 4, 63, 0
5, 46848, Note_on_c, 4, 62, 60
5, 46848, Note_on_c, 4, 65, 60
5, 46848, Note_on_c, 4, 68, 60
5, 47328, Note_on_c, 4, 65, 65
5, 47340, Note_on_c, 4, 65, 0
5, 47520, Note_on_c, 4, 62, 60
5, 47596, Note_on_c, 4, 65, 0
5, 47596, Note_on_c, 4, 68, 0
5, 47601, Note_on_c, 4, 62, 0
5, 47609, Note_on_c, 4, 62, 0
5, 47616, Note_on_c, 4, 63, 60
5, 47616, Note_on_c, 4, 67, 60
5, 47616, Note_on_c, 4, 70, 60
5, 47616, Note_on_c, 4, 74, 60
5, 48096, Note_on_c, 4, 62, 65
5, 48108, Note_on_c, 4, 62, 0
5, 48288, Note_on_c, 4, 63, 60
5, 48364, Note_on_c, 4, 70, 0
5, 48364, Note_on_c, 4, 74, 0
5, 48364, Note_on_c, 4, 67, 0
5, 48369, Note_on_c, 4, 63, 0
5, 48377, Note_on_c, 4, 63, 0
5, 48384, Note_on_c, 4, 64, 60
5, 48384, Note_on_c, 4, 67, 60
5, 48384, Note_on_c, 4, 72, 60
5, 48672, Note_on_c, 4, 72, 60
5, 48703, Note_on_c, 4, 72, 0
5, 48768, Note_on_c, 4, 69, 65
5, 48799, Note_on_c, 4, 69, 0
5, 48960, Note_on_c, 4, 66, 60
5, 49132, Note_on_c, 4, 72, 0
5, 49132, Note_on_c, 4, 64, 0
5, 49132, Note_on_c, 4, 67, 0
5, 49148, Note_on_c, 4, 66, 0
5, 49152, Note_on_c, 4, 62, 60
5, 49152, Note_on_c, 4, 66, 60
5, 49152, Note_on_c, 4, 67, 60
5, 49152, Note_on_c, 4, 71, 60
5, 49632, Note_on_c, 4, 67, 65
5, 49644, Note_on_c, 4, 67, 0
5, 49824, Note_on_c, 4, 66, 60
5, 49836, Note_on_c, 4, 66, 0
5, 49900, Note_on_c, 4, 67, 0
5, 49900, Note_on_c, 4, 62, 0
5, 49900, Note_on_c, 4, 71, 0
5, 49900, Note_on_c, 4, 66, 0
5, 49920, Note_on_c, 4, 64, 60
5, 49920, Note_on_c, 4, 67, 60
5, 49920, Note_on_c, 4, 72, 60
5, 50304, Note_on_c, 4, 66, 60
5, 50335, Note_on_c, 4, 66, 0
5, 50496, Note_on_c, 4, 63, 65
5, 50527, Note_on_c, 4, 63, 0
5, 50668, Note_on_c, 4, 72, 0
5, 50668, Note_on_c, 4, 67, 0
5, 50668, Note_on_c, 4, 64, 0
5, 50688, Note_on_c, 4, 62, 60
5, 50688, Note_on_c, 4, 66, 60
5, 50688, Note_on_c, 4, 69, 60
5, 51072, Note_on_c, 4, 65, 65
5, 51260, Note_on_c, 4, 65, 0
5, 51264, Note_on_c, 4, 62, 65
5, 51295, Note_on_c, 4, 62, 0
5, 51436, Note_on_c, 4, 66, 0
5, 51436, Note_on_c, 4, 69, 0
5, 51436, Note_on_c, 4, 62, 0
5, 51456, Note_on_c, 4, 64, 60
5, 51456, Note_on_c, 4, 67, 60
5, 51456, Note_on_c, 4, 72, 60
5, 51744, Note_on_c, 4, 64, 65
5, 51756, Note_on_c, 4, 64, 0
5, 51936, Note_on_c, 4, 62, 60
5, 51967, Note_on_c, 4, 62, 0
5, 52032, Note_on_c, 4, 66, 65
5, 52044, Note_on_c, 4, 66, 0
5, 52204, Note_on_c, 4, 67, 0
5, 52204, Note_on_c, 4, 72, 0
5, 52204, Note_on_c, 4, 64, 0
5, 52224, Note_on_c, 4, 62, 60
5, 52224, Note_on_c, 4, 64, 60
5, 52224, Note_on_c, 4, 67, 60
5, 52224, Note_on_c, 4, 71, 60
5, 52704, Note_on_c, 4, 64, 65
5, 52735, Note_on_c, 4, 64, 0
5, 52896, Note_on_c, 4, 62, 60
5, 52927, Note_on_c, 4, 62, 0
5, 52972, Note_on_c, 4, 64, 0
5, 52972, Note_on_c, 4, 71, 0
5, 52972, Note_on_c, 4, 67, 0
5, 52972, Note_on_c, 4, 62, 0
5, 52992, Note_on_c, 4, 64, 60
5, 52992, Note_on_c, 4, 67, 60
5, 52992, Note_on_c, 4, 72, 60
5, 53361, Note_on_c, 4, 72, 0
5, 53361, Note_on_c, 4, 67, 0
5, 53361, Note_on_c, 4, 64, 0
5, 53376, Note_on_c, 4, 66, 60
5, 53376, Note_on_c, 4, 69, 60
5, 53376, Note_on_c, 4, 72, 60
5, 53472, Note_on_c, 4, 72, 65
5, 53484, Note_on_c, 4, 72, 0
5, 53664, Note_on_c, 4, 74, 60
5, 53676, Note_on_c, 4, 74, 0
5, 53747, Note_on_c, 4, 72, 0
5, 53747, Note_on_c, 4, 69, 0
5, 53747, Note_on_c, 4, 66, 0
5, 53760, Note_on_c, 4, 62, 60
5, 53760, Note_on_c, 4, 66, 60
5, 53760, Note_on_c, 4, 67, 60
5, 53760, Note_on_c, 4, 71, 60
5, 54506, Note_on_c, 4, 71, 0
5, 54506, Note_on_c, 4, 66, 0
5, 54509, Note_on_c, 4, 67, 0
5, 54509, Note_on_c, 4, 62, 0
5, 54528, Note_on_c, 4, 62, 60
5, 54528, Note_on_c, 4, 66, 60
5, 54528, Note_on_c, 4, 67, 60
5, 54528, Note_on_c, 4, 71, 60
5, 55008, Note_on_c, 4, 66, 60
5, 55102, Note_on_c, 4, 66, 0
5, 55104, Note_on_c, 4, 62, 65
5, 55116, Note_on_c, 4, 62, 0
5, 55276, Note_on_c, 4, 66, 0
5, 55276, Note_on_c, 4, 71, 0
5, 55276, Note_on_c, 4, 67, 0
5, 55276, Note_on_c, 4, 62, 0
5, 55296, Note_on_c, 4, 65, 60
5, 55296, Note_on_c, 4, 70, 60
5, 55296, Note_on_c, 4, 74, 60
5, 55680, Note_on_c, 4, 67, 60
5, 55692, Note_on_c, 4, 67, 0
5, 55872, Note_on_c, 4, 65, 65
5, 56044, Note_on_c, 4, 74, 0
5, 56044, Note_on_c, 4, 70, 0
5, 56049, Note_on_c, 4, 65, 0
5, 56055, Note_on_c, 4, 65, 0
5, 56064, Note_on_c, 4, 64, 60
5, 56064, Note_on_c, 4, 67, 60
5, 56064, Note_on_c, 4, 70, 60
5, 56448, Note_on_c, 4, 70, 65
5, 56636, Note_on_c, 4, 70, 0
5, 56640, Note_on_c, 4, 67, 65
5, 56812, Note_on_c, 4, 70, 0
5, 56812, Note_on_c, 4, 64, 0
5, 56817, Note_on_c, 4, 67, 0
5, 56823, Note_on_c, 4, 67, 0
5, 56832, Note_on_c, 4, 64, 60
5, 56832, Note_on_c, 4, 65, 60
5, 56832, Note_on_c, 4, 69, 60
5, 56832, Note_on_c, 4, 72, 60
5, 57578, Note_on_c, 4, 69, 0
5, 57578, Note_on_c, 4, 65, 0
5, 57580, Note_on_c, 4, 72, 0
5, 57581, Note_on_c, 4, 64, 0
5, 57600, Note_on_c, 4, 64, 60
5, 57600, Note_on_c, 4, 65, 60
5, 57600, Note_on_c, 4, 69, 60
5, 57600, Note_on_c, 4, 72, 60
5, 57984, Note_on_c, 4, 72, 65
5, 57996, Note_on_c, 4, 72, 0
5, 58176, Note_on_c, 4, 69, 65
5, 58348, Note_on_c, 4, 65, 0
5, 58348, Note_on_c, 4, 72, 0
5, 58348, Note_on_c, 4, 64, 0
5, 58353, Note_on_c, 4, 69, 0
5, 58359, Note_on_c, 4, 69, 0
5, 58368, Note_on_c, 4, 68, 60
5, 58368, Note_on_c, 4, 72, 60
5, 58368, Note_on_c, 4, 75, 60
5, 58848, Note_on_c, 4, 65, 65
5, 59036, Note_on_c, 4, 65, 0
5, 59040, Note_on_c, 4, 63, 60
5, 59052, Note_on_c, 4, 63, 0
5, 59116, Note_on_c, 4, 75, 0
5, 59116, Note_on_c, 4, 72, 0
5, 59116, Note_on_c, 4, 68, 0
5, 59136, Note_on_c, 4, 65, 60
5, 59136, Note_on_c, 4, 68, 60
5, 59136, Note_on_c, 4, 74, 60
5, 59424, Note_on_c, 4, 74, 60
5, 59436, Note_on_c, 4, 74, 0
5, 59520, Note_on_c, 4, 70, 65
5, 59708, Note_on_c, 4, 70, 0
5, 59712, Note_on_c, 4, 68, 60
5, 59884, Note_on_c, 4, 74, 0
5, 59884, Note_on_c, 4, 65, 0
5, 59889, Note_on_c, 4, 68, 0
5, 59895, Note_on_c, 4, 68, 0
5, 59904, Note_on_c, 4, 67, 60
5, 59904, Note_on_c, 4, 70, 60
5, 59904, Note_on_c, 4, 74, 60
5, 59904, Note_on_c, 4, 75, 60
5, 60384, Note_on_c, 4, 62, 65
5, 60572, Note_on_c, 4, 62, 0
5, 60576, Note_on_c, 4, 63, 60
5, 60652, Note_on_c, 4, 74, 0
5, 60652, Note_on_c, 4, 75, 0
5, 60652, Note_on_c, 4, 67, 0
5, 60652, Note_on_c, 4, 70, 0
5, 60670, Note_on_c, 4, 63, 0
5, 60672, Note_on_c, 4, 64, 60
5, 60672, Note_on_c, 4, 67, 60
5, 60672, Note_on_c, 4, 72, 60
5, 60960, Note_on_c, 4, 64, 65
5, 60972, Note_on_c, 4, 64, 0
5, 61152, Note_on_c, 4, 62, 65
5, 61183, Note_on_c, 4, 62, 0
5, 61344, Note_on_c, 4, 66, 60
5, 61420, Note_on_c, 4, 64, 0
5, 61420, Note_on_c, 4, 67, 0
5, 61420, Note_on_c, 4, 72, 0
5, 61438, Note_on_c, 4, 66, 0
5, 61440, Note_on_c, 4, 62, 60
5, 61440, Note_on_c, 4, 65, 60
5, 61440, Note_on_c, 4, 70, 60
5, 61824, Note_on_c, 4, 65, 65
5, 61855, Note_on_c, 4, 65, 0
5, 62016, Note_on_c, 4, 62, 60
5, 62028, Note_on_c, 4, 62, 0
5, 62188, Note_on_c, 4, 65, 0
5, 62188, Note_on_c, 4, 70, 0
5, 62188, Note_on_c, 4, 62, 0
5, 62208, Note_on_c, 4, 63, 60
5, 62208, Note_on_c, 4, 67, 60
5, 62208, Note_on_c, 4, 72, 60
5, 62577, Note_on_c, 4, 63, 0
5, 62579, Note_on_c, 4, 67, 0
5, 62580, Note_on_c, 4, 72, 0
5, 62592, Note_on_c, 4, 63, 60
5, 62592, Note_on_c, 4, 66, 60
5, 62592, Note_on_c, 4, 69, 60
5, 62592, Note_on_c, 4, 72, 60
5, 62688, Note_on_c, 4, 62, 65
5, 62700, Note_on_c, 4, 62, 0
5, 62880, Note_on_c, 4, 63, 60
5, 62892, Note_on_c, 4, 63, 0
5, 62963, Note_on_c, 4, 72, 0
5, 62963, Note_on_c, 4, 66, 0
5, 62963, Note_on_c, 4, 69, 0
5, 62963, Note_on_c, 4, 63, 0
5, 62976, Note_on_c, 4, 62, 60
5, 62976, Note_on_c, 4, 66, 60
5, 62976, Note_on_c, 4, 67, 60
5, 62976, Note_on_c, 4, 71, 60
5, 63264, Note_on_c, 4, 67, 65
5, 63276, Note_on_c, 4, 67, 0
5, 63456, Note_on_c, 4, 66, 60
5, 63487, Note_on_c, 4, 66, 0
5, 63552, Note_on_c, 4, 62, 65
5, 63583, Note_on_c, 4, 62, 0
5, 63724, Note_on_c, 4, 66, 0
5, 63724, Note_on_c, 4, 71, 0
5, 63724, Note_on_c, 4, 67, 0
5, 63724, Note_on_c, 4, 62, 0
5, 63744, Note_on_c, 4, 64, 60
5, 63744, Note_on_c, 4, 67, 60
5, 63744, Note_on_c, 4, 72, 60
5, 64128, Note_on_c, 4, 72, 60
5, 64159, Note_on_c, 4, 72, 0
5, 64320, Note_on_c, 4, 69, 65
5, 64492, Note_on_c, 4, 64, 0
5, 64492, Note_on_c, 4, 72, 0
5, 64492, Note_on_c, 4, 67, 0
5, 64508, Note_on_c, 4, 69, 0
5, 64512, Note_on_c, 4, 66, 60
5, 64512, Note_on_c, 4, 69, 60
5, 64512, Note_on_c, 4, 74, 60
5, 64992, Note_on_c, 4, 65, 65
5, 65004, Note_on_c, 4, 65, 0
5, 65184, Note_on_c, 4, 62, 60
5, 65260, Note_on_c, 4, 66, 0
5, 65260, Note_on_c, 4, 74, 0
5, 65260, Note_on_c, 4, 69, 0
5, 65278, Note_on_c, 4, 62, 0
5, 65280, Note_on_c, 4, 64, 60
5, 65280, Note_on_c, 4, 67, 60
5, 65280, Note_on_c, 4, 72, 60
5, 65664, Note_on_c, 4, 69, 65
5, 65676, Note_on_c, 4, 69, 0
5, 65856, Note_on_c, 4, 66, 60
5, 66028, Note_on_c, 4, 64, 0
5, 66028, Note_on_c, 4, 72, 0
5, 66028, Note_on_c, 4, 67, 0
5, 66044, Note_on_c, 4, 66, 0
5, 66048, Note_on_c, 4, 62, 60
5, 66048, Note_on_c, 4, 66, 60
5, 66048, Note_on_c, 4, 67, 60
5, 66048, Note_on_c, 4, 71, 60
5, 66796, Note_on_c, 4, 71, 0
5, 66796, Note_on_c, 4, 62, 0
5, 66796, Note_on_c, 4, 66, 0
5, 66796, Note_on_c, 4, 67, 0
5, 66816, Note_on_c, 4, 62, 60
5, 66816, Note_on_c, 4, 66, 60
5, 66816, Note_on_c, 4, 67, 60
5, 66816, Note_on_c, 4, 71, 60
5, 67296, Note_on_c, 4, 67, 65
5, 67484, Note_on_c, 4, 67, 0
5, 67488, Note_on_c, 4, 66, 60
5, 67564, Note_on_c, 4, 71, 0
5, 67564, Note_on_c, 4, 67, 0
5, 67564, Note_on_c, 4, 62, 0
5, 67569, Note_on_c, 4, 66, 0
5, 67577, Note_on_c, 4, 66, 0
5, 67584, Note_on_c, 4, 62, 60
5, 67584, Note_on_c, 4, 65, 60
5, 67584, Note_on_c, 4, 70, 60
5, 68064, Note_on_c, 4, 65, 60
5, 68158, Note_on_c, 4, 65, 0
5, 68160, Note_on_c, 4, 62, 65
5, 68191, Note_on_c, 4, 62, 0
5, 68332, Note_on_c, 4, 65, 0
5, 68332, Note_on_c, 4, 70, 0
5, 68332, Note_on_c, 4, 62, 0
5, 68352, Note_on_c, 4, 64, 60
5, 68352, Note_on_c, 4, 67, 60
5, 68352, Note_on_c, 4, 70, 60
5, 68928, Note_on_c, 4, 67, 65
5, 68940, Note_on_c, 4, 67, 0
5, 69100, Note_on_c, 4, 64, 0
5, 69100, Note_on_c, 4, 70, 0
5, 69100, Note_on_c, 4, 67, 0
5, 69120, Note_on_c, 4, 64, 60
5, 69120, Note_on_c, 4, 65, 60
5, 69120, Note_on_c, 4, 69, 60
5, 69120, Note_on_c, 4, 72, 60
5, 69866, Note_on_c, 4, 64, 0
5, 69868, Note_on_c, 4, 65, 0
5, 69868, Note_on_c, 4, 69, 0
5, 69868, Note_on_c, 4, 72, 0
5, 69888, Note_on_c, 4, 64, 60
5, 69888, Note_on_c, 4, 65, 60
5, 69888, Note_on_c, 4, 69, 60
5, 69888, Note_on_c, 4, 72, 60
5, 70368, Note_on_c, 4, 64, 65
5, 70556, Note_on_c, 4, 64, 0
5, 70560, Note_on_c, 4, 65, 60
5, 70572, Note_on_c, 4, 65, 0
5, 70636, Note_on_c, 4, 64, 0
5, 70636, Note_on_c, 4, 72, 0
5, 70636, Note_on_c, 4, 69, 0
5, 70636, Note_on_c, 4, 65, 0
5, 70656, Note_on_c, 4, 68, 60
5, 70656, Note_on_c, 4, 72, 60
5, 70656, Note_on_c, 4, 75, 60
5, 70944, Note_on_c, 4, 68, 65
5, 70956, Note_on_c, 4, 68, 0
5, 71136, Note_on_c, 4, 65, 65
5, 71167, Note_on_c, 4, 65, 0
5, 71328, Note_on_c, 4, 63, 60
5, 71404, Note_on_c, 4, 68, 0
5, 71404, Note_on_c, 4, 72, 0
5, 71404, Note_on_c, 4, 75, 0
5, 71422, Note_on_c, 4, 63, 0
5, 71424, Note_on_c, 4, 62, 60
5, 71424, Note_on_c, 4, 65, 60
5, 71424, Note_on_c, 4, 68, 60
5, 71904, Note_on_c, 4, 68, 60
5, 71916, Note_on_c, 4, 68, 0
5, 72000, Note_on_c, 4, 65, 65
5, 72012, Note_on_c, 4, 65, 0
5, 72172, Note_on_c, 4, 68, 0
5, 72172, Note_on_c, 4, 62, 0
5, 72172, Note_on_c, 4, 65, 0
5, 72192, Note_on_c, 4, 63, 60
5, 72192, Note_on_c, 4, 67, 60
5, 72192, Note_on_c, 4, 70, 60
5, 72192, Note_on_c, 4, 74, 60
5, 72480, Note_on_c, 4, 63, 60
5, 72574, Note_on_c, 4, 63, 0
5, 72576, Note_on_c, 4, 62, 65
5, 72607, Note_on_c, 4, 62, 0
5, 72768, Note_on_c, 4, 63, 65
5, 72940, Note_on_c, 4, 67, 0
5, 72940, Note_on_c, 4, 74, 0
5, 72940, Note_on_c, 4, 70, 0
5, 72945, Note_on_c, 4, 63, 0
5, 72951, Note_on_c, 4, 63, 0
5, 72960, Note_on_c, 4, 64, 60
5, 72960, Note_on_c, 4, 67, 60
5, 72960, Note_on_c, 4, 72, 60
5, 73440, Note_on_c, 4, 66, 65
5, 73628, Note_on_c, 4, 66, 0
5, 73632, Note_on_c, 4, 62, 60
5, 73644, Note_on_c, 4, 62, 0
5, 73708, Note_on_c, 4, 72, 0
5, 73708, Note_on_c, 4, 67, 0
5, 73708, Note_on_c, 4, 64, 0
5, 73728, Note_on_c, 4, 66, 60
5, 73728, Note_on_c, 4, 67, 60
5, 73728, Note_on_c, 4, 71, 60
5, 73728, Note_on_c, 4, 74, 60
5, 74208, Note_on_c, 4, 66, 60
5, 74239, Note_on_c, 4, 66, 0
5, 74304, Note_on_c, 4, 62, 65
5, 74316, Note_on_c, 4, 62, 0
5, 74476, Note_on_c, 4, 66, 0
5, 74476, Note_on_c, 4, 67, 0
5, 74476, Note_on_c, 4, 71, 0
5, 74476, Note_on_c, 4, 74, 0
5, 74496, Note_on_c, 4, 64, 60
5, 74496, Note_on_c, 4, 67, 60
5, 74496, Note_on_c, 4, 72, 60
5, 74865, Note_on_c, 4, 72, 0
5, 74867, Note_on_c, 4, 67, 0
5, 74867, Note_on_c, 4, 64, 0
5, 74880, Note_on_c, 4, 66, 60
5, 74880, Note_on_c, 4, 69, 60
5, 74880, Note_on_c, 4, 72, 60
5, 74880, Note_on_c, 4, 75, 60
5, 74976, Note_on_c, 4, 66, 65
5, 74988, Note_on_c, 4, 66, 0
5, 75168, Note_on_c, 4, 63, 60
5, 75180, Note_on_c, 4, 63, 0
5, 75251, Note_on_c, 4, 66, 0
5, 75251, Note_on_c, 4, 69, 0
5, 75251, Note_on_c, 4, 72, 0
5, 75251, Note_on_c, 4, 75, 0
5, 75264, Note_on_c, 4, 62, 60
5, 75264, Note_on_c, 4, 66, 60
5, 75264, Note_on_c, 4, 69, 60
5, 75633, Note_on_c, 4, 66, 0
5, 75635, Note_on_c, 4, 62, 0
5, 75636, Note_on_c, 4, 69, 0
5, 75648, Note_on_c, 4, 62, 60
5, 75648, Note_on_c, 4, 65, 60
5, 75648, Note_on_c, 4, 68, 60
5, 75744, Note_on_c, 4, 68, 65
5, 75775, Note_on_c, 4, 68, 0
5, 75936, Note_on_c, 4, 65, 60
5, 76019, Note_on_c, 4, 68, 0
5, 76019, Note_on_c, 4, 62, 0
5, 76024, Note_on_c, 4, 65, 0
5, 76025, Note_on_c, 4, 65, 0
5, 76032, Note_on_c, 4, 64, 60
5, 76032, Note_on_c, 4, 67, 60
5, 76032, Note_on_c, 4, 72, 60
5, 76416, Note_on_c, 4, 66, 65
5, 76604, Note_on_c, 4, 66, 0
5, 76608, Note_on_c, 4, 62, 60
5, 76639, Note_on_c, 4, 62, 0
5, 76780, Note_on_c, 4, 72, 0
5, 76780, Note_on_c, 4, 67, 0
5, 76780, Note_on_c, 4, 64, 0
5, 76800, Note_on_c, 4, 64, 35
5, 76800, Note_on_c, 4, 67, 35
5, 76800, Note_on_c, 4, 71, 35
5, 76800, Note_on_c, 4, 74, 35
5, 77546, Note_on_c, 4, 67, 0
5, 77548, Note_on_c, 4, 64, 0
5, 77548, Note_on_c, 4, 71, 0
5, 77548, Note_on_c, 4, 74, 0
5, 77568, Note_on_c, 4, 67, 35
5, 77568, Note_on_c, 4, 72, 35
5, 77568, Note_on_c, 4, 76, 35
5, 77937, Note_on_c, 4, 76, 0
5, 77939, Note_on_c, 4, 67, 0
5, 77940, Note_on_c, 4, 72, 0
5, 77952, Note_on_c, 4, 66, 35
5, 77952, Note_on_c, 4, 69, 35
5, 77952, Note_on_c, 4, 72, 35
5, 77952, Note_on_c, 4, 75, 35
5, 78321, Note_on_c, 4, 72, 0
5, 78324, Note_on_c, 4, 66, 0
5, 78324, Note_on_c, 4, 69, 0
5, 78324, Note_on_c, 4, 75, 0
5, 78336, Note_on_c, 4, 66, 35
5, 78336, Note_on_c, 4, 69, 35
5, 78336, Note_on_c, 4, 74, 35
5, 78705, Note_on_c, 4, 74, 0
5, 78708, Note_on_c, 4, 69, 0
5, 78708, Note_on_c, 4, 66, 0
5, 78720, Note_on_c, 4, 65, 35
5, 78720, Note_on_c, 4, 68, 35
5, 78720, Note_on_c, 4, 74, 35
5, 79089, Note_on_c, 4, 68, 0
5, 79091, Note_on_c, 4, 65, 0
5, 79092, Note_on_c, 4, 74, 0
5, 79104, Note_on_c, 4, 67, 35
5, 79104, Note_on_c, 4, 72, 35
5, 79104, Note_on_c, 4, 76, 35
5, 79473, Note_on_c, 4, 76, 0
5, 79475, Note_on_c, 4, 72, 0
5, 79475, Note_on_c, 4, 67, 0
5, 79488, Note_on_c, 4, 66, 35
5, 79488, Note_on_c, 4, 69, 35
5, 79488, Note_on_c, 4, 72, 35
5, 79857, Note_on_c, 4, 66, 0
5, 79860, Note_on_c, 4, 72, 0
5, 79860, Note_on_c, 4, 69, 0
5, 79872, Note_on_c, 4, 64, 35
5, 79872, Note_on_c, 4, 67, 35
5, 79872, Note_on_c, 4, 71, 35
5, 79872, Note_on_c, 4, 74, 35
5, 81370, Note_on_c, 4, 67, 0
5, 81372, Note_on_c, 4, 64, 0
5, 81372, Note_on_c, 4, 74, 0
5, 81373, Note_on_c, 4, 71, 0
5, 81408, Note_on_c, 4, 69, 55
5, 81408, Note_on_c, 4, 71, 55
5, 81408, Note_on_c, 4, 74, 55
5, 81408, Note_on_c, 4, 76, 55
5, 81522, Note_on_c, 4, 76, 0
5, 81522, Note_on_c, 4, 69, 0
5, 81522, Note_on_c, 4, 71, 0
5, 81524, Note_on_c, 4, 74, 0
5, 81524, End_track
6, 0, Start_track
6, 0, MIDI_port, 0
6, 0, Title_t, "Electric Piano1"
6, 0, Control_c, 5, 0, 0
6, 0, Control_c, 5, 121, 0
6, 14, Control_c, 5, 93, 20
6, 16, Control_c, 5, 91, 60
6, 217, Control_c, 5, 0, 0
6, 218, Control_c, 5, 32, 0
6, 219, Program_c, 5, 4
6, 220, Control_c, 5, 7, 70
6, 220, Control_c, 5, 10, 84
6, 1536, Note_on_c, 5, 78, 70
6, 1719, Note_on_c, 5, 78, 0
6, 1728, Note_on_c, 5, 78, 70
6, 1822, Note_on_c, 5, 78, 0
6, 1824, Note_on_c, 5, 83, 60
6, 1918, Note_on_c, 5, 83, 0
6, 1920, Note_on_c, 5, 82, 70
6, 2014, Note_on_c, 5, 82, 0
6, 2016, Note_on_c, 5, 77, 60
6, 2204, Note_on_c, 5, 77, 0
6, 2208, Note_on_c, 5, 80, 60
6, 2302, Note_on_c, 5, 80, 0
6, 2304, Note_on_c, 5, 81, 70
6, 2398, Note_on_c, 5, 81, 0
6, 2400, Note_on_c, 5, 81, 60
6, 2489, Note_on_c, 5, 81, 0
6, 2496, Note_on_c, 5, 76, 60
6, 2543, Note_on_c, 5, 76, 0
6, 2544, Note_on_c, 5, 81, 70
6, 2591, Note_on_c, 5, 81, 0
6, 2592, Note_on_c, 5, 79, 60
6, 2639, Note_on_c, 5, 79, 0
6, 2640, Note_on_c, 5, 76, 60
6, 2687, Note_on_c, 5, 76, 0
6, 2688, Note_on_c, 5, 90, 70
6, 2782, Note_on_c, 5, 90, 0
6, 2784, Note_on_c, 5, 81, 60
6, 2873, Note_on_c, 5, 81, 0
6, 2880, Note_on_c, 5, 74, 60
6, 2927, Note_on_c, 5, 74, 0
6, 2928, Note_on_c, 5, 77, 60
6, 2975, Note_on_c, 5, 77, 0
6, 2976, Note_on_c, 5, 78, 60
6, 3023, Note_on_c, 5, 78, 0
6, 3024, Note_on_c, 5, 86, 60
6, 3071, Note_on_c, 5, 86, 0
6, 3072, Note_on_c, 5, 77, 70
6, 3166, Note_on_c, 5, 77, 0
6, 3168, Note_on_c, 5, 74, 60
6, 3262, Note_on_c, 5, 74, 0
6, 3552, Note_on_c, 5, 76, 60
6, 3599, Note_on_c, 5, 76, 0
6, 3600, Note_on_c, 5, 79, 60
6, 3647, Note_on_c, 5, 79, 0
6, 3648, Note_on_c, 5, 76, 60
6, 3695, Note_on_c, 5, 76, 0
6, 3696, Note_on_c, 5, 74, 60
6, 3743, Note_on_c, 5, 74, 0
6, 3744, Note_on_c, 5, 76, 60
6, 3791, Note_on_c, 5, 76, 0
6, 3792, Note_on_c, 5, 74, 60
6, 3839, Note_on_c, 5, 74, 0
6, 3840, Note_on_c, 5, 71, 60
6, 3856, Note_on_c, 5, 71, 0
6, 3856, Note_on_c, 5, 72, 60
6, 3934, Note_on_c, 5, 72, 0
6, 3936, Note_on_c, 5, 76, 70
6, 4025, Note_on_c, 5, 76, 0
6, 4032, Note_on_c, 5, 76, 60
6, 4079, Note_on_c, 5, 76, 0
6, 4080, Note_on_c, 5, 79, 60
6, 4127, Note_on_c, 5, 79, 0
6, 4128, Note_on_c, 5, 74, 60
6, 4175, Note_on_c, 5, 74, 0
6, 4176, Note_on_c, 5, 76, 60
6, 4223, Note_on_c, 5, 76, 0
6, 4224, Note_on_c, 5, 74, 70
6, 4266, Note_on_c, 5, 74, 0
6, 4272, Note_on_c, 5, 77, 60
6, 4319, Note_on_c, 5, 77, 0
6, 4320, Note_on_c, 5, 74, 70
6, 4367, Note_on_c, 5, 74, 0
6, 4368, Note_on_c, 5, 77, 60
6, 4415, Note_on_c, 5, 77, 0
6, 4416, Note_on_c, 5, 78, 60
6, 4463, Note_on_c, 5, 78, 0
6, 4464, Note_on_c, 5, 77, 60
6, 4511, Note_on_c, 5, 77, 0
6, 4512, Note_on_c, 5, 78, 60
6, 4559, Note_on_c, 5, 78, 0
6, 4560, Note_on_c, 5, 84, 60
6, 4607, Note_on_c, 5, 84, 0
6, 4608, Note_on_c, 5, 78, 60
6, 4624, Note_on_c, 5, 78, 0
6, 4624, Note_on_c, 5, 79, 70
6, 4702, Note_on_c, 5, 79, 0
6, 4704, Note_on_c, 5, 78, 60
6, 4720, Note_on_c, 5, 78, 0
6, 4720, Note_on_c, 5, 79, 70
6, 5170, Note_on_c, 5, 79, 0
6, 5184, Note_on_c, 5, 74, 70
6, 5372, Note_on_c, 5, 74, 0
6, 5376, Note_on_c, 5, 78, 60
6, 5392, Note_on_c, 5, 78, 0
6, 5392, Note_on_c, 5, 79, 70
6, 5470, Note_on_c, 5, 79, 0
6, 5472, Note_on_c, 5, 79, 70
6, 5938, Note_on_c, 5, 79, 0
6, 5952, Note_on_c, 5, 79, 70
6, 6140, Note_on_c, 5, 79, 0
6, 6144, Note_on_c, 5, 78, 60
6, 6160, Note_on_c, 5, 78, 0
6, 6160, Note_on_c, 5, 79, 70
6, 6332, Note_on_c, 5, 79, 0
6, 6336, Note_on_c, 5, 78, 60
6, 6352, Note_on_c, 5, 78, 0
6, 6352, Note_on_c, 5, 79, 70
6, 6430, Note_on_c, 5, 79, 0
6, 6432, Note_on_c, 5, 79, 70
6, 6709, Note_on_c, 5, 79, 0
6, 6720, Note_on_c, 5, 74, 70
6, 6908, Note_on_c, 5, 74, 0
6, 6912, Note_on_c, 5, 72, 70
6, 7100, Note_on_c, 5, 72, 0
6, 7104, Note_on_c, 5, 79, 70
6, 7120, Note_on_c, 5, 79, 0
6, 7120, Note_on_c, 5, 81, 70
6, 7198, Note_on_c, 5, 81, 0
6, 7200, Note_on_c, 5, 84, 70
6, 7477, Note_on_c, 5, 84, 0
6, 7488, Note_on_c, 5, 82, 70
6, 7676, Note_on_c, 5, 82, 0
6, 7680, Note_on_c, 5, 80, 60
6, 7696, Note_on_c, 5, 80, 0
6, 7696, Note_on_c, 5, 81, 60
6, 7774, Note_on_c, 5, 81, 0
6, 7776, Note_on_c, 5, 84, 70
6, 8435, Note_on_c, 5, 84, 0
6, 8448, Note_on_c, 5, 80, 60
6, 8464, Note_on_c, 5, 80, 0
6, 8464, Note_on_c, 5, 81, 60
6, 8542, Note_on_c, 5, 81, 0
6, 8544, Note_on_c, 5, 84, 70
6, 9104, Note_on_c, 5, 84, 0
6, 9120, Note_on_c, 5, 81, 60
6, 9214, Note_on_c, 5, 81, 0
6, 9216, Note_on_c, 5, 84, 70
6, 9232, Note_on_c, 5, 84, 0
6, 9232, Note_on_c, 5, 87, 70
6, 9310, Note_on_c, 5, 87, 0
6, 9312, Note_on_c, 5, 89, 70
6, 9778, Note_on_c, 5, 89, 0
6, 9792, Note_on_c, 5, 80, 70
6, 9980, Note_on_c, 5, 80, 0
6, 9984, Note_on_c, 5, 77, 70
6, 10000, Note_on_c, 5, 77, 0
6, 10000, Note_on_c, 5, 79, 70
6, 10078, Note_on_c, 5, 79, 0
6, 10080, Note_on_c, 5, 82, 70
6, 10546, Note_on_c, 5, 82, 0
6, 10560, Note_on_c, 5, 80, 70
6, 10748, Note_on_c, 5, 80, 0
6, 10752, Note_on_c, 5, 82, 70
6, 10768, Note_on_c, 5, 82, 0
6, 10768, Note_on_c, 5, 84, 70
6, 10846, Note_on_c, 5, 84, 0
6, 10848, Note_on_c, 5, 87, 70
6, 11314, Note_on_c, 5, 87, 0
6, 11328, Note_on_c, 5, 79, 70
6, 11516, Note_on_c, 5, 79, 0
6, 11520, Note_on_c, 5, 76, 70
6, 11536, Note_on_c, 5, 76, 0
6, 11536, Note_on_c, 5, 79, 70
6, 11614, Note_on_c, 5, 79, 0
6, 11616, Note_on_c, 5, 81, 70
6, 11705, Note_on_c, 5, 81, 0
6, 11712, Note_on_c, 5, 76, 70
6, 11900, Note_on_c, 5, 76, 0
6, 11904, Note_on_c, 5, 78, 70
6, 12087, Note_on_c, 5, 78, 0
6, 12096, Note_on_c, 5, 81, 70
6, 12284, Note_on_c, 5, 81, 0
6, 12288, Note_on_c, 5, 79, 70
6, 12852, Note_on_c, 5, 79, 0
6, 12864, Note_on_c, 5, 70, 70
6, 13052, Note_on_c, 5, 70, 0
6, 13056, Note_on_c, 5, 72, 70
6, 13239, Note_on_c, 5, 72, 0
6, 13248, Note_on_c, 5, 72, 70
6, 13436, Note_on_c, 5, 72, 0
6, 13440, Note_on_c, 5, 74, 70
6, 13623, Note_on_c, 5, 74, 0
6, 13632, Note_on_c, 5, 78, 70
6, 13820, Note_on_c, 5, 78, 0
6, 13824, Note_on_c, 5, 79, 70
6, 14195, Note_on_c, 5, 79, 0
6, 14208, Note_on_c, 5, 74, 70
6, 14302, Note_on_c, 5, 74, 0
6, 14304, Note_on_c, 5, 78, 60
6, 14393, Note_on_c, 5, 78, 0
6, 14400, Note_on_c, 5, 79, 70
6, 14588, Note_on_c, 5, 79, 0
6, 14592, Note_on_c, 5, 81, 70
6, 14780, Note_on_c, 5, 81, 0
6, 14784, Note_on_c, 5, 76, 70
6, 14972, Note_on_c, 5, 76, 0
6, 14976, Note_on_c, 5, 86, 70
6, 15159, Note_on_c, 5, 86, 0
6, 15168, Note_on_c, 5, 74, 70
6, 15356, Note_on_c, 5, 74, 0
6, 15360, Note_on_c, 5, 78, 70
6, 15543, Note_on_c, 5, 78, 0
6, 15552, Note_on_c, 5, 81, 70
6, 15740, Note_on_c, 5, 81, 0
6, 15744, Note_on_c, 5, 82, 70
6, 15927, Note_on_c, 5, 82, 0
6, 15936, Note_on_c, 5, 77, 70
6, 16124, Note_on_c, 5, 77, 0
6, 16128, Note_on_c, 5, 76, 70
6, 16144, Note_on_c, 5, 76, 0
6, 16144, Note_on_c, 5, 79, 70
6, 16222, Note_on_c, 5, 79, 0
6, 16224, Note_on_c, 5, 81, 70
6, 16313, Note_on_c, 5, 81, 0
6, 16320, Note_on_c, 5, 76, 70
6, 16508, Note_on_c, 5, 76, 0
6, 16512, Note_on_c, 5, 78, 70
6, 16601, Note_on_c, 5, 78, 0
6, 16608, Note_on_c, 5, 81, 70
6, 16796, Note_on_c, 5, 81, 0
6, 16800, Note_on_c, 5, 84, 60
6, 16894, Note_on_c, 5, 84, 0
6, 16896, Note_on_c, 5, 86, 70
6, 16990, Note_on_c, 5, 86, 0
6, 16992, Note_on_c, 5, 79, 60
6, 17086, Note_on_c, 5, 79, 0
6, 17088, Note_on_c, 5, 86, 70
6, 17104, Note_on_c, 5, 86, 0
6, 17104, Note_on_c, 5, 88, 70
6, 17182, Note_on_c, 5, 88, 0
6, 17184, Note_on_c, 5, 91, 70
6, 17654, Note_on_c, 5, 91, 0
6, 17664, Note_on_c, 5, 86, 70
6, 17758, Note_on_c, 5, 86, 0
6, 17760, Note_on_c, 5, 79, 60
6, 17854, Note_on_c, 5, 79, 0
6, 17856, Note_on_c, 5, 86, 70
6, 17872, Note_on_c, 5, 86, 0
6, 17872, Note_on_c, 5, 88, 70
6, 17950, Note_on_c, 5, 88, 0
6, 17952, Note_on_c, 5, 91, 70
6, 18229, Note_on_c, 5, 91, 0
6, 18240, Note_on_c, 5, 83, 70
6, 18428, Note_on_c, 5, 83, 0
6, 18432, Note_on_c, 5, 86, 70
6, 18992, Note_on_c, 5, 86, 0
6, 19008, Note_on_c, 5, 77, 70
6, 19196, Note_on_c, 5, 77, 0
6, 19200, Note_on_c, 5, 75, 60
6, 19216, Note_on_c, 5, 75, 0
6, 19216, Note_on_c, 5, 76, 60
6, 19294, Note_on_c, 5, 76, 0
6, 19296, Note_on_c, 5, 79, 70
6, 19762, Note_on_c, 5, 79, 0
6, 19776, Note_on_c, 5, 79, 70
6, 19964, Note_on_c, 5, 79, 0
6, 19968, Note_on_c, 5, 77, 70
6, 20250, Note_on_c, 5, 77, 0
6, 20256, Note_on_c, 5, 72, 60
6, 20538, Note_on_c, 5, 72, 0
6, 20544, Note_on_c, 5, 76, 60
6, 20638, Note_on_c, 5, 76, 0
6, 20640, Note_on_c, 5, 77, 60
6, 20734, Note_on_c, 5, 77, 0
6, 20736, Note_on_c, 5, 72, 70
6, 21018, Note_on_c, 5, 72, 0
6, 21024, Note_on_c, 5, 77, 60
6, 21113, Note_on_c, 5, 77, 0
6, 21120, Note_on_c, 5, 77, 70
6, 21308, Note_on_c, 5, 77, 0
6, 21312, Note_on_c, 5, 76, 70
6, 21500, Note_on_c, 5, 76, 0
6, 21504, Note_on_c, 5, 72, 70
6, 21520, Note_on_c, 5, 72, 0
6, 21520, Note_on_c, 5, 75, 70
6, 21598, Note_on_c, 5, 75, 0
6, 21600, Note_on_c, 5, 77, 70
6, 22160, Note_on_c, 5, 77, 0
6, 22176, Note_on_c, 5, 80, 60
6, 22270, Note_on_c, 5, 80, 0
6, 22272, Note_on_c, 5, 77, 70
6, 22288, Note_on_c, 5, 77, 0
6, 22288, Note_on_c, 5, 79, 70
6, 22366, Note_on_c, 5, 79, 0
6, 22368, Note_on_c, 5, 82, 70
6, 22834, Note_on_c, 5, 82, 0
6, 22848, Note_on_c, 5, 77, 70
6, 23036, Note_on_c, 5, 77, 0
6, 23040, Note_on_c, 5, 78, 60
6, 23056, Note_on_c, 5, 78, 0
6, 23056, Note_on_c, 5, 79, 60
6, 23134, Note_on_c, 5, 79, 0
6, 23136, Note_on_c, 5, 82, 70
6, 23696, Note_on_c, 5, 82, 0
6, 23712, Note_on_c, 5, 79, 60
6, 23806, Note_on_c, 5, 79, 0
6, 23808, Note_on_c, 5, 76, 70
6, 23824, Note_on_c, 5, 76, 0
6, 23824, Note_on_c, 5, 79, 70
6, 23902, Note_on_c, 5, 79, 0
6, 23904, Note_on_c, 5, 81, 70
6, 24087, Note_on_c, 5, 81, 0
6, 24096, Note_on_c, 5, 79, 60
6, 24190, Note_on_c, 5, 79, 0
6, 24192, Note_on_c, 5, 77, 60
6, 24375, Note_on_c, 5, 77, 0
6, 24384, Note_on_c, 5, 74, 70
6, 24572, Note_on_c, 5, 74, 0
6, 24576, Note_on_c, 5, 78, 60
6, 24592, Note_on_c, 5, 78, 0
6, 24592, Note_on_c, 5, 79, 70
6, 24670, Note_on_c, 5, 79, 0
6, 24672, Note_on_c, 5, 78, 60
6, 24688, Note_on_c, 5, 78, 0
6, 24688, Note_on_c, 5, 79, 70
6, 25138, Note_on_c, 5, 79, 0
6, 25152, Note_on_c, 5, 78, 70
6, 25340, Note_on_c, 5, 78, 0
6, 25344, Note_on_c, 5, 88, 70
6, 25438, Note_on_c, 5, 88, 0
6, 25440, Note_on_c, 5, 81, 60
6, 25529, Note_on_c, 5, 81, 0
6, 25536, Note_on_c, 5, 72, 70
6, 25724, Note_on_c, 5, 72, 0
6, 25728, Note_on_c, 5, 73, 60
6, 25911, Note_on_c, 5, 73, 0
6, 25920, Note_on_c, 5, 81, 70
6, 26108, Note_on_c, 5, 81, 0
6, 26112, Note_on_c, 5, 78, 70
6, 26295, Note_on_c, 5, 78, 0
6, 26304, Note_on_c, 5, 78, 70
6, 26492, Note_on_c, 5, 78, 0
6, 26496, Note_on_c, 5, 81, 60
6, 26512, Note_on_c, 5, 81, 0
6, 26512, Note_on_c, 5, 82, 70
6, 26590, Note_on_c, 5, 82, 0
6, 26592, Note_on_c, 5, 81, 60
6, 26608, Note_on_c, 5, 81, 0
6, 26608, Note_on_c, 5, 82, 70
6, 26682, Note_on_c, 5, 82, 0
6, 26688, Note_on_c, 5, 80, 70
6, 26876, Note_on_c, 5, 80, 0
6, 26880, Note_on_c, 5, 81, 70
6, 27063, Note_on_c, 5, 81, 0
6, 27072, Note_on_c, 5, 72, 70
6, 27260, Note_on_c, 5, 72, 0
6, 27264, Note_on_c, 5, 78, 70
6, 27447, Note_on_c, 5, 78, 0
6, 27456, Note_on_c, 5, 74, 70
6, 27644, Note_on_c, 5, 74, 0
6, 27648, Note_on_c, 5, 78, 60
6, 27664, Note_on_c, 5, 78, 0
6, 27664, Note_on_c, 5, 79, 70
6, 27742, Note_on_c, 5, 79, 0
6, 27744, Note_on_c, 5, 79, 70
6, 28021, Note_on_c, 5, 79, 0
6, 28032, Note_on_c, 5, 76, 70
6, 28220, Note_on_c, 5, 76, 0
6, 28224, Note_on_c, 5, 79, 70
6, 28412, Note_on_c, 5, 79, 0
6, 28416, Note_on_c, 5, 76, 70
6, 28432, Note_on_c, 5, 76, 0
6, 28432, Note_on_c, 5, 79, 70
6, 28510, Note_on_c, 5, 79, 0
6, 28512, Note_on_c, 5, 81, 70
6, 28601, Note_on_c, 5, 81, 0
6, 28608, Note_on_c, 5, 79, 70
6, 28796, Note_on_c, 5, 79, 0
6, 28800, Note_on_c, 5, 77, 60
6, 28983, Note_on_c, 5, 77, 0
6, 28992, Note_on_c, 5, 74, 70
6, 29180, Note_on_c, 5, 74, 0
6, 53760, Note_on_c, 5, 71, 70
6, 54230, Note_on_c, 5, 71, 0
6, 54240, Note_on_c, 5, 74, 60
6, 54334, Note_on_c, 5, 74, 0
6, 54336, Note_on_c, 5, 76, 60
6, 54430, Note_on_c, 5, 76, 0
6, 54432, Note_on_c, 5, 71, 60
6, 54526, Note_on_c, 5, 71, 0
6, 54528, Note_on_c, 5, 74, 70
6, 54998, Note_on_c, 5, 74, 0
6, 55008, Note_on_c, 5, 71, 60
6, 55097, Note_on_c, 5, 71, 0
6, 55104, Note_on_c, 5, 76, 60
6, 55151, Note_on_c, 5, 76, 0
6, 55152, Note_on_c, 5, 78, 60
6, 55199, Note_on_c, 5, 78, 0
6, 55200, Note_on_c, 5, 81, 60
6, 55247, Note_on_c, 5, 81, 0
6, 55248, Note_on_c, 5, 78, 60
6, 55295, Note_on_c, 5, 78, 0
6, 55296, Note_on_c, 5, 77, 70
6, 55672, Note_on_c, 5, 77, 0
6, 55680, Note_on_c, 5, 79, 60
6, 55863, Note_on_c, 5, 79, 0
6, 55872, Note_on_c, 5, 82, 60
6, 55919, Note_on_c, 5, 82, 0
6, 55920, Note_on_c, 5, 81, 60
6, 55967, Note_on_c, 5, 81, 0
6, 55968, Note_on_c, 5, 82, 60
6, 56015, Note_on_c, 5, 82, 0
6, 56016, Note_on_c, 5, 89, 60
6, 56063, Note_on_c, 5, 89, 0
6, 56064, Note_on_c, 5, 75, 60
6, 56080, Note_on_c, 5, 75, 0
6, 56080, Note_on_c, 5, 76, 60
6, 56158, Note_on_c, 5, 76, 0
6, 56160, Note_on_c, 5, 79, 70
6, 56437, Note_on_c, 5, 79, 0
6, 56448, Note_on_c, 5, 74, 70
6, 56495, Note_on_c, 5, 74, 0
6, 56496, Note_on_c, 5, 76, 60
6, 56543, Note_on_c, 5, 76, 0
6, 56544, Note_on_c, 5, 79, 70
6, 56591, Note_on_c, 5, 79, 0
6, 56592, Note_on_c, 5, 81, 60
6, 56639, Note_on_c, 5, 81, 0
6, 56640, Note_on_c, 5, 79, 60
6, 56687, Note_on_c, 5, 79, 0
6, 56688, Note_on_c, 5, 74, 60
6, 56735, Note_on_c, 5, 74, 0
6, 56736, Note_on_c, 5, 72, 60
6, 56783, Note_on_c, 5, 72, 0
6, 56784, Note_on_c, 5, 74, 60
6, 56831, Note_on_c, 5, 74, 0
6, 56832, Note_on_c, 5, 76, 60
6, 56848, Note_on_c, 5, 76, 0
6, 56848, Note_on_c, 5, 77, 70
6, 56926, Note_on_c, 5, 77, 0
6, 56928, Note_on_c, 5, 77, 70
6, 57587, Note_on_c, 5, 77, 0
6, 57600, Note_on_c, 5, 81, 70
6, 57788, Note_on_c, 5, 81, 0
6, 57792, Note_on_c, 5, 80, 70
6, 57886, Note_on_c, 5, 80, 0
6, 57888, Note_on_c, 5, 81, 60
6, 57982, Note_on_c, 5, 81, 0
6, 57984, Note_on_c, 5, 76, 70
6, 58073, Note_on_c, 5, 76, 0
6, 58080, Note_on_c, 5, 80, 60
6, 58127, Note_on_c, 5, 80, 0
6, 58128, Note_on_c, 5, 81, 60
6, 58175, Note_on_c, 5, 81, 0
6, 58176, Note_on_c, 5, 77, 60
6, 58223, Note_on_c, 5, 77, 0
6, 58224, Note_on_c, 5, 80, 60
6, 58271, Note_on_c, 5, 80, 0
6, 58272, Note_on_c, 5, 81, 60
6, 58319, Note_on_c, 5, 81, 0
6, 58320, Note_on_c, 5, 77, 60
6, 58367, Note_on_c, 5, 77, 0
6, 58368, Note_on_c, 5, 80, 70
6, 58744, Note_on_c, 5, 80, 0
6, 58752, Note_on_c, 5, 77, 60
6, 58935, Note_on_c, 5, 77, 0
6, 58944, Note_on_c, 5, 75, 60
6, 59038, Note_on_c, 5, 75, 0
6, 59040, Note_on_c, 5, 77, 60
6, 59087, Note_on_c, 5, 77, 0
6, 59088, Note_on_c, 5, 80, 60
6, 59135, Note_on_c, 5, 80, 0
6, 59136, Note_on_c, 5, 82, 70
6, 59230, Note_on_c, 5, 82, 0
6, 59232, Note_on_c, 5, 80, 60
6, 59326, Note_on_c, 5, 80, 0
6, 59328, Note_on_c, 5, 77, 60
6, 59422, Note_on_c, 5, 77, 0
6, 59424, Note_on_c, 5, 73, 60
6, 59518, Note_on_c, 5, 73, 0
6, 59520, Note_on_c, 5, 74, 60
6, 59609, Note_on_c, 5, 74, 0
6, 59616, Note_on_c, 5, 85, 60
6, 59710, Note_on_c, 5, 85, 0
6, 59712, Note_on_c, 5, 86, 60
6, 59806, Note_on_c, 5, 86, 0
6, 59808, Note_on_c, 5, 82, 60
6, 59902, Note_on_c, 5, 82, 0
6, 59904, Note_on_c, 5, 79, 70
6, 59998, Note_on_c, 5, 79, 0
6, 60000, Note_on_c, 5, 80, 60
6, 60016, Note_on_c, 5, 80, 0
6, 60016, Note_on_c, 5, 81, 60
6, 60047, Note_on_c, 5, 81, 0
6, 60048, Note_on_c, 5, 82, 60
6, 60095, Note_on_c, 5, 82, 0
6, 60096, Note_on_c, 5, 87, 70
6, 60143, Note_on_c, 5, 87, 0
6, 60144, Note_on_c, 5, 82, 60
6, 60191, Note_on_c, 5, 82, 0
6, 60192, Note_on_c, 5, 74, 60
6, 60375, Note_on_c, 5, 74, 0
6, 60384, Note_on_c, 5, 79, 60
6, 60478, Note_on_c, 5, 79, 0
6, 60480, Note_on_c, 5, 75, 60
6, 60574, Note_on_c, 5, 75, 0
6, 60576, Note_on_c, 5, 74, 60
6, 60670, Note_on_c, 5, 74, 0
6, 60672, Note_on_c, 5, 76, 70
6, 60761, Note_on_c, 5, 76, 0
6, 60768, Note_on_c, 5, 93, 70
6, 60862, Note_on_c, 5, 93, 0
6, 60864, Note_on_c, 5, 83, 60
6, 60880, Note_on_c, 5, 83, 0
6, 60880, Note_on_c, 5, 84, 60
6, 60958, Note_on_c, 5, 84, 0
6, 60960, Note_on_c, 5, 88, 60
6, 61054, Note_on_c, 5, 88, 0
6, 61056, Note_on_c, 5, 78, 70
6, 61145, Note_on_c, 5, 78, 0
6, 61152, Note_on_c, 5, 77, 60
6, 61246, Note_on_c, 5, 77, 0
6, 61248, Note_on_c, 5, 78, 60
6, 61342, Note_on_c, 5, 78, 0
6, 61344, Note_on_c, 5, 74, 60
6, 61438, Note_on_c, 5, 74, 0
6, 61440, Note_on_c, 5, 79, 70
6, 61534, Note_on_c, 5, 79, 0
6, 61536, Note_on_c, 5, 79, 60
6, 61630, Note_on_c, 5, 79, 0
6, 61632, Note_on_c, 5, 86, 70
6, 61648, Note_on_c, 5, 86, 0
6, 61648, Note_on_c, 5, 89, 70
6, 61726, Note_on_c, 5, 89, 0
6, 61728, Note_on_c, 5, 91, 70
6, 61911, Note_on_c, 5, 91, 0
6, 61920, Note_on_c, 5, 79, 60
6, 61967, Note_on_c, 5, 79, 0
6, 61968, Note_on_c, 5, 82, 60
6, 62015, Note_on_c, 5, 82, 0
6, 62016, Note_on_c, 5, 79, 70
6, 62110, Note_on_c, 5, 79, 0
6, 62112, Note_on_c, 5, 77, 60
6, 62206, Note_on_c, 5, 77, 0
6, 62208, Note_on_c, 5, 87, 70
6, 62302, Note_on_c, 5, 87, 0
6, 62304, Note_on_c, 5, 81, 60
6, 62393, Note_on_c, 5, 81, 0
6, 62400, Note_on_c, 5, 71, 60
6, 62494, Note_on_c, 5, 71, 0
6, 62496, Note_on_c, 5, 72, 60
6, 62590, Note_on_c, 5, 72, 0
6, 62592, Note_on_c, 5, 81, 70
6, 62681, Note_on_c, 5, 81, 0
6, 62688, Note_on_c, 5, 81, 60
6, 62782, Note_on_c, 5, 81, 0
6, 62784, Note_on_c, 5, 80, 60
6, 62831, Note_on_c, 5, 80, 0
6, 62832, Note_on_c, 5, 78, 60
6, 62879, Note_on_c, 5, 78, 0
6, 62880, Note_on_c, 5, 75, 60
6, 62927, Note_on_c, 5, 75, 0
6, 62928, Note_on_c, 5, 78, 60
6, 62975, Note_on_c, 5, 78, 0
6, 62976, Note_on_c, 5, 79, 70
6, 63258, Note_on_c, 5, 79, 0
6, 63264, Note_on_c, 5, 71, 60
6, 63447, Note_on_c, 5, 71, 0
6, 63456, Note_on_c, 5, 70, 60
6, 63503, Note_on_c, 5, 70, 0
6, 63504, Note_on_c, 5, 71, 60
6, 63551, Note_on_c, 5, 71, 0
6, 63552, Note_on_c, 5, 79, 60
6, 63599, Note_on_c, 5, 79, 0
6, 63600, Note_on_c, 5, 70, 60
6, 63647, Note_on_c, 5, 70, 0
6, 63648, Note_on_c, 5, 71, 60
6, 63695, Note_on_c, 5, 71, 0
6, 63696, Note_on_c, 5, 78, 60
6, 63743, Note_on_c, 5, 78, 0
6, 63744, Note_on_c, 5, 72, 70
6, 63833, Note_on_c, 5, 72, 0
6, 63840, Note_on_c, 5, 76, 60
6, 63934, Note_on_c, 5, 76, 0
6, 63936, Note_on_c, 5, 75, 60
6, 64030, Note_on_c, 5, 75, 0
6, 64032, Note_on_c, 5, 74, 60
6, 64079, Note_on_c, 5, 74, 0
6, 64080, Note_on_c, 5, 72, 60
6, 64127, Note_on_c, 5, 72, 0
6, 64128, Note_on_c, 5, 74, 70
6, 64311, Note_on_c, 5, 74, 0
6, 64320, Note_on_c, 5, 78, 60
6, 64414, Note_on_c, 5, 78, 0
6, 64416, Note_on_c, 5, 84, 60
6, 64510, Note_on_c, 5, 84, 0
6, 64512, Note_on_c, 5, 74, 70
6, 64601, Note_on_c, 5, 74, 0
6, 64608, Note_on_c, 5, 73, 60
6, 64702, Note_on_c, 5, 73, 0
6, 64704, Note_on_c, 5, 74, 60
6, 64798, Note_on_c, 5, 74, 0
6, 64800, Note_on_c, 5, 71, 60
6, 64894, Note_on_c, 5, 71, 0
6, 64896, Note_on_c, 5, 73, 60
6, 64912, Note_on_c, 5, 73, 0
6, 64912, Note_on_c, 5, 74, 60
6, 64990, Note_on_c, 5, 74, 0
6, 64992, Note_on_c, 5, 77, 70
6, 65081, Note_on_c, 5, 77, 0
6, 65088, Note_on_c, 5, 80, 60
6, 65182, Note_on_c, 5, 80, 0
6, 65184, Note_on_c, 5, 77, 60
6, 65278, Note_on_c, 5, 77, 0
6, 65280, Note_on_c, 5, 81, 70
6, 65463, Note_on_c, 5, 81, 0
6, 65472, Note_on_c, 5, 75, 60
6, 65566, Note_on_c, 5, 75, 0
6, 65568, Note_on_c, 5, 76, 60
6, 65662, Note_on_c, 5, 76, 0
6, 65664, Note_on_c, 5, 78, 70
6, 65753, Note_on_c, 5, 78, 0
6, 65760, Note_on_c, 5, 72, 60
6, 65854, Note_on_c, 5, 72, 0
6, 65856, Note_on_c, 5, 74, 60
6, 65950, Note_on_c, 5, 74, 0
6, 65952, Note_on_c, 5, 78, 60
6, 65999, Note_on_c, 5, 78, 0
6, 66000, Note_on_c, 5, 81, 60
6, 66047, Note_on_c, 5, 81, 0
6, 66048, Note_on_c, 5, 79, 70
6, 66142, Note_on_c, 5, 79, 0
6, 66144, Note_on_c, 5, 71, 60
6, 66238, Note_on_c, 5, 71, 0
6, 66624, Note_on_c, 5, 74, 60
6, 66718, Note_on_c, 5, 74, 0
6, 66720, Note_on_c, 5, 76, 60
6, 66814, Note_on_c, 5, 76, 0
6, 66816, Note_on_c, 5, 78, 70
6, 67098, Note_on_c, 5, 78, 0
6, 67104, Note_on_c, 5, 79, 60
6, 67287, Note_on_c, 5, 79, 0
6, 67296, Note_on_c, 5, 78, 60
6, 67390, Note_on_c, 5, 78, 0
6, 67392, Note_on_c, 5, 81, 60
6, 67486, Note_on_c, 5, 81, 0
6, 67488, Note_on_c, 5, 78, 60
6, 67535, Note_on_c, 5, 78, 0
6, 67536, Note_on_c, 5, 81, 60
6, 67583, Note_on_c, 5, 81, 0
6, 67584, Note_on_c, 5, 82, 70
6, 67866, Note_on_c, 5, 82, 0
6, 67872, Note_on_c, 5, 79, 60
6, 68149, Note_on_c, 5, 79, 0
6, 68160, Note_on_c, 5, 79, 60
6, 68254, Note_on_c, 5, 79, 0
6, 68256, Note_on_c, 5, 77, 60
6, 68303, Note_on_c, 5, 77, 0
6, 68304, Note_on_c, 5, 74, 60
6, 68351, Note_on_c, 5, 74, 0
6, 68352, Note_on_c, 5, 76, 70
6, 68634, Note_on_c, 5, 76, 0
6, 68640, Note_on_c, 5, 72, 60
6, 68823, Note_on_c, 5, 72, 0
6, 68832, Note_on_c, 5, 82, 60
6, 68926, Note_on_c, 5, 82, 0
6, 68928, Note_on_c, 5, 81, 60
6, 69022, Note_on_c, 5, 81, 0
6, 69024, Note_on_c, 5, 79, 60
6, 69071, Note_on_c, 5, 79, 0
6, 69072, Note_on_c, 5, 77, 60
6, 69119, Note_on_c, 5, 77, 0
6, 69120, Note_on_c, 5, 72, 70
6, 69590, Note_on_c, 5, 72, 0
6, 69600, Note_on_c, 5, 76, 60
6, 69694, Note_on_c, 5, 76, 0
6, 69696, Note_on_c, 5, 74, 60
6, 69790, Note_on_c, 5, 74, 0
6, 69792, Note_on_c, 5, 76, 60
6, 69886, Note_on_c, 5, 76, 0
6, 69888, Note_on_c, 5, 84, 70
6, 70076, Note_on_c, 5, 84, 0
6, 70080, Note_on_c, 5, 84, 70
6, 70096, Note_on_c, 5, 84, 0
6, 70096, Note_on_c, 5, 86, 70
6, 70174, Note_on_c, 5, 86, 0
6, 70176, Note_on_c, 5, 89, 70
6, 70453, Note_on_c, 5, 89, 0
6, 70464, Note_on_c, 5, 76, 60
6, 70558, Note_on_c, 5, 76, 0
6, 70560, Note_on_c, 5, 72, 60
6, 70654, Note_on_c, 5, 72, 0
6, 70656, Note_on_c, 5, 80, 70
6, 70938, Note_on_c, 5, 80, 0
6, 70944, Note_on_c, 5, 77, 60
6, 71033, Note_on_c, 5, 77, 0
6, 71040, Note_on_c, 5, 75, 60
6, 71134, Note_on_c, 5, 75, 0
6, 71136, Note_on_c, 5, 77, 70
6, 71230, Note_on_c, 5, 77, 0
6, 71232, Note_on_c, 5, 80, 60
6, 71326, Note_on_c, 5, 80, 0
6, 71328, Note_on_c, 5, 82, 60
6, 71422, Note_on_c, 5, 82, 0
6, 71424, Note_on_c, 5, 81, 60
6, 71440, Note_on_c, 5, 81, 0
6, 71440, Note_on_c, 5, 82, 70
6, 71518, Note_on_c, 5, 82, 0
6, 71520, Note_on_c, 5, 81, 60
6, 71536, Note_on_c, 5, 81, 0
6, 71536, Note_on_c, 5, 82, 70
6, 71798, Note_on_c, 5, 82, 0
6, 71808, Note_on_c, 5, 77, 70
6, 71902, Note_on_c, 5, 77, 0
6, 71904, Note_on_c, 5, 80, 60
6, 71998, Note_on_c, 5, 80, 0
6, 72000, Note_on_c, 5, 82, 60
6, 72094, Note_on_c, 5, 82, 0
6, 72096, Note_on_c, 5, 74, 60
6, 72143, Note_on_c, 5, 74, 0
6, 72144, Note_on_c, 5, 70, 60
6, 72191, Note_on_c, 5, 70, 0
6, 72192, Note_on_c, 5, 74, 60
6, 72208, Note_on_c, 5, 74, 0
6, 72208, Note_on_c, 5, 75, 70
6, 72286, Note_on_c, 5, 75, 0
6, 72288, Note_on_c, 5, 74, 60
6, 72304, Note_on_c, 5, 74, 0
6, 72304, Note_on_c, 5, 75, 70
6, 72754, Note_on_c, 5, 75, 0
6, 72768, Note_on_c, 5, 79, 60
6, 72862, Note_on_c, 5, 79, 0
6, 72864, Note_on_c, 5, 82, 60
6, 72958, Note_on_c, 5, 82, 0
6, 72960, Note_on_c, 5, 81, 70
6, 73054, Note_on_c, 5, 81, 0
6, 73056, Note_on_c, 5, 72, 60
6, 73150, Note_on_c, 5, 72, 0
6, 73152, Note_on_c, 5, 74, 60
6, 73199, Note_on_c, 5, 74, 0
6, 73200, Note_on_c, 5, 75, 60
6, 73247, Note_on_c, 5, 75, 0
6, 73248, Note_on_c, 5, 76, 60
6, 73295, Note_on_c, 5, 76, 0
6, 73296, Note_on_c, 5, 79, 60
6, 73343, Note_on_c, 5, 79, 0
6, 73344, Note_on_c, 5, 81, 70
6, 73433, Note_on_c, 5, 81, 0
6, 73440, Note_on_c, 5, 79, 60
6, 73534, Note_on_c, 5, 79, 0
6, 73536, Note_on_c, 5, 77, 60
6, 73583, Note_on_c, 5, 77, 0
6, 73584, Note_on_c, 5, 79, 60
6, 73631, Note_on_c, 5, 79, 0
6, 73632, Note_on_c, 5, 80, 60
6, 73679, Note_on_c, 5, 80, 0
6, 73680, Note_on_c, 5, 81, 60
6, 73727, Note_on_c, 5, 81, 0
6, 73728, Note_on_c, 5, 84, 70
6, 73822, Note_on_c, 5, 84, 0
6, 73824, Note_on_c, 5, 79, 60
6, 73918, Note_on_c, 5, 79, 0
6, 73920, Note_on_c, 5, 82, 60
6, 74014, Note_on_c, 5, 82, 0
6, 74016, Note_on_c, 5, 83, 60
6, 74110, Note_on_c, 5, 83, 0
6, 74112, Note_on_c, 5, 79, 60
6, 74206, Note_on_c, 5, 79, 0
6, 74208, Note_on_c, 5, 82, 60
6, 74297, Note_on_c, 5, 82, 0
6, 74304, Note_on_c, 5, 78, 60
6, 74351, Note_on_c, 5, 78, 0
6, 74352, Note_on_c, 5, 74, 60
6, 74399, Note_on_c, 5, 74, 0
6, 74400, Note_on_c, 5, 76, 60
6, 74447, Note_on_c, 5, 76, 0
6, 74448, Note_on_c, 5, 78, 60
6, 74495, Note_on_c, 5, 78, 0
6, 74496, Note_on_c, 5, 81, 70
6, 74585, Note_on_c, 5, 81, 0
6, 74592, Note_on_c, 5, 72, 60
6, 74686, Note_on_c, 5, 72, 0
6, 74688, Note_on_c, 5, 76, 60
6, 74735, Note_on_c, 5, 76, 0
6, 74736, Note_on_c, 5, 79, 60
6, 74783, Note_on_c, 5, 79, 0
6, 74784, Note_on_c, 5, 81, 60
6, 74831, Note_on_c, 5, 81, 0
6, 74832, Note_on_c, 5, 76, 60
6, 74879, Note_on_c, 5, 76, 0
6, 74880, Note_on_c, 5, 74, 70
6, 74974, Note_on_c, 5, 74, 0
6, 74976, Note_on_c, 5, 75, 60
6, 75070, Note_on_c, 5, 75, 0
6, 75072, Note_on_c, 5, 74, 60
6, 75119, Note_on_c, 5, 74, 0
6, 75120, Note_on_c, 5, 78, 60
6, 75167, Note_on_c, 5, 78, 0
6, 75168, Note_on_c, 5, 75, 60
6, 75215, Note_on_c, 5, 75, 0
6, 75216, Note_on_c, 5, 72, 60
6, 75263, Note_on_c, 5, 72, 0
6, 75264, Note_on_c, 5, 74, 70
6, 75306, Note_on_c, 5, 74, 0
6, 75312, Note_on_c, 5, 74, 60
6, 75359, Note_on_c, 5, 74, 0
6, 75360, Note_on_c, 5, 71, 60
6, 75454, Note_on_c, 5, 71, 0
6, 75456, Note_on_c, 5, 74, 70
6, 75503, Note_on_c, 5, 74, 0
6, 75504, Note_on_c, 5, 76, 60
6, 75551, Note_on_c, 5, 76, 0
6, 75552, Note_on_c, 5, 74, 70
6, 75599, Note_on_c, 5, 74, 0
6, 75600, Note_on_c, 5, 71, 60
6, 75647, Note_on_c, 5, 71, 0
6, 75648, Note_on_c, 5, 73, 60
6, 75664, Note_on_c, 5, 73, 0
6, 75664, Note_on_c, 5, 74, 60
6, 75742, Note_on_c, 5, 74, 0
6, 75744, Note_on_c, 5, 77, 70
6, 75833, Note_on_c, 5, 77, 0
6, 75840, Note_on_c, 5, 73, 60
6, 75934, Note_on_c, 5, 73, 0
6, 75936, Note_on_c, 5, 74, 60
6, 76030, Note_on_c, 5, 74, 0
6, 76032, Note_on_c, 5, 71, 60
6, 76048, Note_on_c, 5, 71, 0
6, 76048, Note_on_c, 5, 72, 60
6, 76122, Note_on_c, 5, 72, 0
6, 76128, Note_on_c, 5, 72, 60
6, 76316, Note_on_c, 5, 72, 0
6, 76320, Note_on_c, 5, 71, 60
6, 76414, Note_on_c, 5, 71, 0
6, 76416, Note_on_c, 5, 72, 70
6, 76505, Note_on_c, 5, 72, 0
6, 76512, Note_on_c, 5, 74, 60
6, 76700, Note_on_c, 5, 74, 0
6, 76704, Note_on_c, 5, 71, 60
6, 76798, Note_on_c, 5, 71, 0
6, 76798, End_track
7, 0, Start_track
7, 0, MIDI_port, 0
7, 0, Title_t, "SynthBrass 1"
7, 0, Control_c, 6, 0, 0
7, 222, Control_c, 6, 0, 0
7, 223, Control_c, 6, 32, 0
7, 224, Program_c, 6, 62
7, 225, Control_c, 6, 7, 90
7, 225, Control_c, 6, 10, 54
7, 386, Control_c, 6, 121, 0
7, 388, Control_c, 6, 93, 20
7, 390, Control_c, 6, 91, 64
7, 76800, Note_on_c, 6, 55, 70
7, 76800, Note_on_c, 6, 59, 70
7, 76800, Note_on_c, 6, 62, 70
7, 76800, Note_on_c, 6, 64, 70
7, 77546, Note_on_c, 6, 55, 0
7, 77548, Note_on_c, 6, 59, 0
7, 77548, Note_on_c, 6, 62, 0
7, 77549, Note_on_c, 6, 64, 0
7, 77568, Note_on_c, 6, 55, 70
7, 77568, Note_on_c, 6, 60, 70
7, 77568, Note_on_c, 6, 64, 70
7, 77937, Note_on_c, 6, 60, 0
7, 77939, Note_on_c, 6, 64, 0
7, 77939, Note_on_c, 6, 55, 0
7, 77952, Note_on_c, 6, 57, 70
7, 77952, Note_on_c, 6, 60, 70
7, 77952, Note_on_c, 6, 63, 70
7, 77952, Note_on_c, 6, 66, 70
7, 78321, Note_on_c, 6, 63, 0
7, 78321, Note_on_c, 6, 57, 0
7, 78323, Note_on_c, 6, 60, 0
7, 78324, Note_on_c, 6, 66, 0
7, 78336, Note_on_c, 6, 62, 70
7, 78336, Note_on_c, 6, 66, 70
7, 78336, Note_on_c, 6, 69, 70
7, 78707, Note_on_c, 6, 69, 0
7, 78708, Note_on_c, 6, 66, 0
7, 78708, Note_on_c, 6, 62, 0
7, 78720, Note_on_c, 6, 56, 70
7, 78720, Note_on_c, 6, 62, 70
7, 78720, Note_on_c, 6, 65, 70
7, 79089, Note_on_c, 6, 65, 0
7, 79089, Note_on_c, 6, 62, 0
7, 79089, Note_on_c, 6, 56, 0
7, 79104, Note_on_c, 6, 55, 70
7, 79104, Note_on_c, 6, 60, 70
7, 79104, Note_on_c, 6, 64, 70
7, 79475, Note_on_c, 6, 64, 0
7, 79475, Note_on_c, 6, 60, 0
7, 79476, Note_on_c, 6, 55, 0
7, 79488, Note_on_c, 6, 57, 70
7, 79488, Note_on_c, 6, 60, 70
7, 79488, Note_on_c, 6, 66, 70
7, 79857, Note_on_c, 6, 60, 0
7, 79859, Note_on_c, 6, 66, 0
7, 79859, Note_on_c, 6, 57, 0
7, 79872, Note_on_c, 6, 59, 70
7, 79872, Note_on_c, 6, 62, 70
7, 79872, Note_on_c, 6, 64, 70
7, 79872, Note_on_c, 6, 67, 70
7, 81216, Note_on_c, 6, 59, 70
7, 81263, Note_on_c, 6, 59, 0
7, 81372, Note_on_c, 6, 67, 0
7, 81372, Note_on_c, 6, 64, 0
7, 81373, Note_on_c, 6, 62, 0
7, 81373, Note_on_c, 6, 59, 0
7, 81408, Note_on_c, 6, 62, 70
7, 81408, Note_on_c, 6, 64, 70
7, 81408, Note_on_c, 6, 67, 70
7, 81448, Note_on_c, 6, 62, 0
7, 81450, Note_on_c, 6, 64, 0
7, 81455, Note_on_c, 6, 67, 0
7, 81455, End_track
8, 0, Start_track
8, 0, MIDI_port, 0
8, 0, Title_t, "Drums"
8, 0, Control_c, 9, 0, 0
8, 0, Control_c, 9, 32, 0
8, 24, Control_c, 9, 121, 0
8, 26, Control_c, 9, 91, 60
8, 237, Control_c, 9, 0, 127
8, 238, Control_c, 9, 32, 0
8, 239, Program_c, 9, 0
8, 240, Control_c, 9, 7, 90
8, 240, Control_c, 9, 10, 64
8, 1536, Note_on_c, 9, 35, 110
8, 1536, Note_on_c, 9, 42, 91
8, 1536, Note_on_c, 9, 57, 90
8, 1552, Note_on_c, 9, 42, 0
8, 1584, Note_on_c, 9, 42, 69
8, 1600, Note_on_c, 9, 42, 0
8, 1632, Note_on_c, 9, 42, 48
8, 1648, Note_on_c, 9, 42, 0
8, 1680, Note_on_c, 9, 42, 90
8, 1696, Note_on_c, 9, 42, 0
8, 1728, Note_on_c, 9, 42, 51
8, 1744, Note_on_c, 9, 42, 0
8, 1776, Note_on_c, 9, 42, 52
8, 1792, Note_on_c, 9, 42, 0
8, 1824, Note_on_c, 9, 42, 91
8, 1840, Note_on_c, 9, 42, 0
8, 1872, Note_on_c, 9, 42, 53
8, 1888, Note_on_c, 9, 42, 0
8, 1912, Note_on_c, 9, 57, 0
8, 1912, Note_on_c, 9, 35, 0
8, 1920, Note_on_c, 9, 35, 110
8, 1920, Note_on_c, 9, 42, 91
8, 1920, Note_on_c, 9, 57, 90
8, 1936, Note_on_c, 9, 42, 0
8, 1968, Note_on_c, 9, 46, 68
8, 1984, Note_on_c, 9, 46, 0
8, 1998, Note_on_c, 9, 57, 0
8, 1998, Note_on_c, 9, 35, 0
8, 2016, Note_on_c, 9, 42, 53
8, 2032, Note_on_c, 9, 42, 0
8, 2064, Note_on_c, 9, 42, 88
8, 2080, Note_on_c, 9, 42, 0
8, 2112, Note_on_c, 9, 35, 110
8, 2112, Note_on_c, 9, 42, 51
8, 2112, Note_on_c, 9, 57, 90
8, 2128, Note_on_c, 9, 42, 0
8, 2160, Note_on_c, 9, 42, 53
8, 2176, Note_on_c, 9, 42, 0
8, 2208, Note_on_c, 9, 42, 91
8, 2222, Note_on_c, 9, 57, 0
8, 2222, Note_on_c, 9, 35, 0
8, 2224, Note_on_c, 9, 42, 0
8, 2256, Note_on_c, 9, 46, 51
8, 2272, Note_on_c, 9, 46, 0
8, 2304, Note_on_c, 9, 40, 111
8, 2304, Note_on_c, 9, 49, 80
8, 2320, Note_on_c, 9, 40, 0
8, 2320, Note_on_c, 9, 47, 90
8, 2336, Note_on_c, 9, 47, 0
8, 2400, Note_on_c, 9, 35, 109
8, 2416, Note_on_c, 9, 35, 0
8, 2496, Note_on_c, 9, 40, 36
8, 2512, Note_on_c, 9, 40, 0
8, 2544, Note_on_c, 9, 47, 72
8, 2560, Note_on_c, 9, 47, 0
8, 2592, Note_on_c, 9, 47, 109
8, 2608, Note_on_c, 9, 47, 0
8, 2680, Note_on_c, 9, 49, 0
8, 2688, Note_on_c, 9, 40, 36
8, 2688, Note_on_c, 9, 49, 80
8, 2704, Note_on_c, 9, 40, 0
8, 2736, Note_on_c, 9, 47, 69
8, 2752, Note_on_c, 9, 47, 0
8, 2766, Note_on_c, 9, 49, 0
8, 2784, Note_on_c, 9, 35, 111
8, 2800, Note_on_c, 9, 35, 0
8, 2880, Note_on_c, 9, 40, 111
8, 2896, Note_on_c, 9, 40, 0
8, 2896, Note_on_c, 9, 40, 88
8, 2912, Note_on_c, 9, 40, 0
8, 3067, Note_on_c, 9, 57, 100
8, 3071, Note_on_c, 9, 57, 0
8, 3072, Note_on_c, 9, 35, 110
8, 3072, Note_on_c, 9, 42, 89
8, 3072, Note_on_c, 9, 57, 90
8, 3088, Note_on_c, 9, 42, 0
8, 3120, Note_on_c, 9, 42, 68
8, 3136, Note_on_c, 9, 42, 0
8, 3168, Note_on_c, 9, 42, 49
8, 3184, Note_on_c, 9, 42, 0
8, 3216, Note_on_c, 9, 42, 71
8, 3232, Note_on_c, 9, 42, 0
8, 3264, Note_on_c, 9, 42, 53
8, 3280, Note_on_c, 9, 42, 0
8, 3312, Note_on_c, 9, 42, 47
8, 3328, Note_on_c, 9, 42, 0
8, 3360, Note_on_c, 9, 42, 70
8, 3376, Note_on_c, 9, 42, 0
8, 3408, Note_on_c, 9, 42, 48
8, 3424, Note_on_c, 9, 42, 0
8, 3456, Note_on_c, 9, 42, 88
8, 3472, Note_on_c, 9, 42, 0
8, 3495, Note_on_c, 9, 57, 0
8, 3495, Note_on_c, 9, 35, 0
8, 3504, Note_on_c, 9, 40, 68
8, 3520, Note_on_c, 9, 40, 0
8, 3552, Note_on_c, 9, 35, 108
8, 3552, Note_on_c, 9, 49, 60
8, 3568, Note_on_c, 9, 35, 0
8, 3648, Note_on_c, 9, 40, 109
8, 3664, Note_on_c, 9, 40, 0
8, 3740, Note_on_c, 9, 49, 0
8, 3744, Note_on_c, 9, 35, 90
8, 3760, Note_on_c, 9, 35, 0
8, 3835, Note_on_c, 9, 57, 98
8, 3839, Note_on_c, 9, 57, 0
8, 3840, Note_on_c, 9, 35, 110
8, 3840, Note_on_c, 9, 42, 89
8, 3840, Note_on_c, 9, 57, 90
8, 3840, Note_on_c, 9, 49, 80
8, 3856, Note_on_c, 9, 42, 0
8, 3888, Note_on_c, 9, 42, 69
8, 3904, Note_on_c, 9, 42, 0
8, 3936, Note_on_c, 9, 42, 49
8, 3952, Note_on_c, 9, 42, 0
8, 3984, Note_on_c, 9, 42, 70
8, 4000, Note_on_c, 9, 42, 0
8, 4032, Note_on_c, 9, 42, 52
8, 4048, Note_on_c, 9, 42, 0
8, 4080, Note_on_c, 9, 42, 50
8, 4096, Note_on_c, 9, 42, 0
8, 4128, Note_on_c, 9, 42, 71
8, 4144, Note_on_c, 9, 42, 0
8, 4176, Note_on_c, 9, 42, 49
8, 4192, Note_on_c, 9, 42, 0
8, 4216, Note_on_c, 9, 49, 0
8, 4216, Note_on_c, 9, 57, 0
8, 4216, Note_on_c, 9, 35, 0
8, 4224, Note_on_c, 9, 35, 110
8, 4224, Note_on_c, 9, 40, 111
8, 4224, Note_on_c, 9, 49, 80
8, 4240, Note_on_c, 9, 40, 0
8, 4272, Note_on_c, 9, 47, 90
8, 4288, Note_on_c, 9, 47, 0
8, 4320, Note_on_c, 9, 47, 91
8, 4336, Note_on_c, 9, 47, 0
8, 4416, Note_on_c, 9, 47, 111
8, 4432, Note_on_c, 9, 47, 0
8, 4464, Note_on_c, 9, 47, 90
8, 4480, Note_on_c, 9, 47, 0
8, 4512, Note_on_c, 9, 45, 88
8, 4528, Note_on_c, 9, 45, 0
8, 4600, Note_on_c, 9, 49, 0
8, 4600, Note_on_c, 9, 35, 0
8, 4603, Note_on_c, 9, 57, 101
8, 4607, Note_on_c, 9, 57, 0
8, 4608, Note_on_c, 9, 35, 109
8, 4608, Note_on_c, 9, 51, 91
8, 4624, Note_on_c, 9, 51, 0
8, 4624, Note_on_c, 9, 35, 0
8, 4704, Note_on_c, 9, 35, 88
8, 4720, Note_on_c, 9, 35, 0
8, 4800, Note_on_c, 9, 40, 111
8, 4800, Note_on_c, 9, 42, 91
8, 4800, Note_on_c, 9, 51, 89
8, 4816, Note_on_c, 9, 51, 0
8, 4816, Note_on_c, 9, 42, 0
8, 4816, Note_on_c, 9, 40, 0
8, 4896, Note_on_c, 9, 35, 109
8, 4912, Note_on_c, 9, 35, 0
8, 4992, Note_on_c, 9, 51, 88
8, 5008, Note_on_c, 9, 51, 0
8, 5184, Note_on_c, 9, 40, 111
8, 5184, Note_on_c, 9, 42, 88
8, 5184, Note_on_c, 9, 51, 88
8, 5200, Note_on_c, 9, 51, 0
8, 5200, Note_on_c, 9, 42, 0
8, 5200, Note_on_c, 9, 40, 0
8, 5280, Note_on_c, 9, 35, 91
8, 5280, Note_on_c, 9, 51, 69
8, 5296, Note_on_c, 9, 51, 0
8, 5296, Note_on_c, 9, 35, 0
8, 5376, Note_on_c, 9, 35, 108
8, 5376, Note_on_c, 9, 51, 108
8, 5392, Note_on_c, 9, 51, 0
8, 5392, Note_on_c, 9, 35, 0
8, 5472, Note_on_c, 9, 35, 90
8, 5488, Note_on_c, 9, 35, 0
8, 5568, Note_on_c, 9, 40, 110
8, 5568, Note_on_c, 9, 42, 89
8, 5568, Note_on_c, 9, 51, 90
8, 5584, Note_on_c, 9, 51, 0
8, 5584, Note_on_c, 9, 42, 0
8, 5584, Note_on_c, 9, 40, 0
8, 5664, Note_on_c, 9, 35, 110
8, 5680, Note_on_c, 9, 35, 0
8, 5760, Note_on_c, 9, 51, 89
8, 5776, Note_on_c, 9, 51, 0
8, 5952, Note_on_c, 9, 40, 109
8, 5952, Note_on_c, 9, 42, 89
8, 5952, Note_on_c, 9, 51, 91
8, 5968, Note_on_c, 9, 51, 0
8, 5968, Note_on_c, 9, 42, 0
8, 5968, Note_on_c, 9, 40, 0
8, 6048, Note_on_c, 9, 35, 90
8, 6064, Note_on_c, 9, 35, 0
8, 6144, Note_on_c, 9, 35, 109
8, 6144, Note_on_c, 9, 51, 91
8, 6160, Note_on_c, 9, 51, 0
8, 6160, Note_on_c, 9, 35, 0
8, 6240, Note_on_c, 9, 35, 90
8, 6256, Note_on_c, 9, 35, 0
8, 6336, Note_on_c, 9, 40, 110
8, 6336, Note_on_c, 9, 42, 90
8, 6336, Note_on_c, 9, 51, 89
8, 6352, Note_on_c, 9, 51, 0
8, 6352, Note_on_c, 9, 42, 0
8, 6352, Note_on_c, 9, 40, 0
8, 6432, Note_on_c, 9, 35, 109
8, 6448, Note_on_c, 9, 35, 0
8, 6528, Note_on_c, 9, 51, 88
8, 6544, Note_on_c, 9, 51, 0
8, 6576, Note_on_c, 9, 40, 36
8, 6592, Note_on_c, 9, 40, 0
8, 6624, Note_on_c, 9, 35, 110
8, 6624, Note_on_c, 9, 40, 109
8, 6640, Note_on_c, 9, 40, 0
8, 6640, Note_on_c, 9, 35, 0
8, 6720, Note_on_c, 9, 40, 33
8, 6736, Note_on_c, 9, 40, 0
8, 6768, Note_on_c, 9, 40, 35
8, 6784, Note_on_c, 9, 40, 0
8, 6816, Note_on_c, 9, 40, 109
8, 6832, Note_on_c, 9, 40, 0
8, 6864, Note_on_c, 9, 40, 91
8, 6880, Note_on_c, 9, 40, 0
8, 6907, Note_on_c, 9, 57, 100
8, 6911, Note_on_c, 9, 57, 0
8, 6912, Note_on_c, 9, 35, 111
8, 6912, Note_on_c, 9, 51, 108
8, 6928, Note_on_c, 9, 51, 0
8, 6928, Note_on_c, 9, 35, 0
8, 7104, Note_on_c, 9, 40, 111
8, 7104, Note_on_c, 9, 42, 89
8, 7104, Note_on_c, 9, 51, 90
8, 7120, Note_on_c, 9, 51, 0
8, 7120, Note_on_c, 9, 42, 0
8, 7120, Note_on_c, 9, 40, 0
8, 7200, Note_on_c, 9, 35, 111
8, 7216, Note_on_c, 9, 35, 0
8, 7296, Note_on_c, 9, 51, 89
8, 7312, Note_on_c, 9, 51, 0
8, 7392, Note_on_c, 9, 35, 110
8, 7408, Note_on_c, 9, 35, 0
8, 7488, Note_on_c, 9, 40, 111
8, 7488, Note_on_c, 9, 42, 89
8, 7488, Note_on_c, 9, 51, 91
8, 7504, Note_on_c, 9, 51, 0
8, 7504, Note_on_c, 9, 42, 0
8, 7504, Note_on_c, 9, 40, 0
8, 7680, Note_on_c, 9, 35, 109
8, 7680, Note_on_c, 9, 51, 91
8, 7696, Note_on_c, 9, 51, 0
8, 7696, Note_on_c, 9, 35, 0
8, 7872, Note_on_c, 9, 40, 109
8, 7872, Note_on_c, 9, 42, 90
8, 7872, Note_on_c, 9, 51, 89
8, 7888, Note_on_c, 9, 51, 0
8, 7888, Note_on_c, 9, 42, 0
8, 7888, Note_on_c, 9, 40, 0
8, 7968, Note_on_c, 9, 35, 109
8, 7984, Note_on_c, 9, 35, 0
8, 8064, Note_on_c, 9, 51, 88
8, 8080, Note_on_c, 9, 51, 0
8, 8160, Note_on_c, 9, 35, 111
8, 8176, Note_on_c, 9, 35, 0
8, 8256, Note_on_c, 9, 40, 108
8, 8256, Note_on_c, 9, 42, 89
8, 8256, Note_on_c, 9, 51, 88
8, 8272, Note_on_c, 9, 51, 0
8, 8272, Note_on_c, 9, 42, 0
8, 8272, Note_on_c, 9, 40, 0
8, 8352, Note_on_c, 9, 51, 69
8, 8368, Note_on_c, 9, 51, 0
8, 8448, Note_on_c, 9, 35, 111
8, 8448, Note_on_c, 9, 51, 109
8, 8464, Note_on_c, 9, 51, 0
8, 8464, Note_on_c, 9, 35, 0
8, 8640, Note_on_c, 9, 40, 110
8, 8640, Note_on_c, 9, 42, 91
8, 8640, Note_on_c, 9, 51, 90
8, 8656, Note_on_c, 9, 51, 0
8, 8656, Note_on_c, 9, 42, 0
8, 8656, Note_on_c, 9, 40, 0
8, 8736, Note_on_c, 9, 35, 109
8, 8752, Note_on_c, 9, 35, 0
8, 8832, Note_on_c, 9, 51, 88
8, 8848, Note_on_c, 9, 51, 0
8, 8928, Note_on_c, 9, 51, 70
8, 8944, Note_on_c, 9, 51, 0
8, 9024, Note_on_c, 9, 40, 109
8, 9024, Note_on_c, 9, 42, 91
8, 9024, Note_on_c, 9, 51, 90
8, 9040, Note_on_c, 9, 51, 0
8, 9040, Note_on_c, 9, 42, 0
8, 9040, Note_on_c, 9, 40, 0
8, 9216, Note_on_c, 9, 40, 109
8, 9232, Note_on_c, 9, 40, 0
8, 9232, Note_on_c, 9, 47, 88
8, 9248, Note_on_c, 9, 47, 0
8, 9312, Note_on_c, 9, 35, 111
8, 9328, Note_on_c, 9, 35, 0
8, 9408, Note_on_c, 9, 40, 37
8, 9424, Note_on_c, 9, 40, 0
8, 9456, Note_on_c, 9, 47, 69
8, 9472, Note_on_c, 9, 47, 0
8, 9504, Note_on_c, 9, 47, 110
8, 9520, Note_on_c, 9, 47, 0
8, 9600, Note_on_c, 9, 40, 34
8, 9616, Note_on_c, 9, 40, 0
8, 9696, Note_on_c, 9, 35, 109
8, 9712, Note_on_c, 9, 35, 0
8, 9792, Note_on_c, 9, 47, 111
8, 9808, Note_on_c, 9, 47, 0
8, 9888, Note_on_c, 9, 35, 90
8, 9904, Note_on_c, 9, 35, 0
8, 9979, Note_on_c, 9, 57, 101
8, 9983, Note_on_c, 9, 57, 0
8, 9984, Note_on_c, 9, 35, 111
8, 9984, Note_on_c, 9, 51, 109
8, 10000, Note_on_c, 9, 51, 0
8, 10000, Note_on_c, 9, 35, 0
8, 10176, Note_on_c, 9, 40, 111
8, 10176, Note_on_c, 9, 42, 88
8, 10176, Note_on_c, 9, 51, 90
8, 10192, Note_on_c, 9, 51, 0
8, 10192, Note_on_c, 9, 42, 0
8, 10192, Note_on_c, 9, 40, 0
8, 10272, Note_on_c, 9, 35, 111
8, 10288, Note_on_c, 9, 35, 0
8, 10368, Note_on_c, 9, 35, 89
8, 10368, Note_on_c, 9, 51, 88
8, 10384, Note_on_c, 9, 51, 0
8, 10384, Note_on_c, 9, 35, 0
8, 10464, Note_on_c, 9, 51, 70
8, 10480, Note_on_c, 9, 51, 0
8, 10560, Note_on_c, 9, 40, 108
8, 10560, Note_on_c, 9, 42, 89
8, 10560, Note_on_c, 9, 51, 90
8, 10576, Note_on_c, 9, 51, 0
8, 10576, Note_on_c, 9, 42, 0
8, 10576, Note_on_c, 9, 40, 0
8, 10752, Note_on_c, 9, 35, 110
8, 10752, Note_on_c, 9, 51, 110
8, 10768, Note_on_c, 9, 51, 0
8, 10768, Note_on_c, 9, 35, 0
8, 10848, Note_on_c, 9, 35, 89
8, 10864, Note_on_c, 9, 35, 0
8, 10944, Note_on_c, 9, 40, 108
8, 10944, Note_on_c, 9, 42, 88
8, 10944, Note_on_c, 9, 51, 89
8, 10960, Note_on_c, 9, 51, 0
8, 10960, Note_on_c, 9, 42, 0
8, 10960, Note_on_c, 9, 40, 0
8, 11040, Note_on_c, 9, 35, 108
8, 11056, Note_on_c, 9, 35, 0
8, 11136, Note_on_c, 9, 51, 90
8, 11152, Note_on_c, 9, 51, 0
8, 11232, Note_on_c, 9, 35, 111
8, 11248, Note_on_c, 9, 35, 0
8, 11328, Note_on_c, 9, 40, 110
8, 11328, Note_on_c, 9, 42, 89
8, 11328, Note_on_c, 9, 51, 90
8, 11344, Note_on_c, 9, 51, 0
8, 11344, Note_on_c, 9, 42, 0
8, 11344, Note_on_c, 9, 40, 0
8, 11520, Note_on_c, 9, 35, 109
8, 11520, Note_on_c, 9, 51, 110
8, 11536, Note_on_c, 9, 51, 0
8, 11536, Note_on_c, 9, 35, 0
8, 11712, Note_on_c, 9, 40, 111
8, 11712, Note_on_c, 9, 42, 88
8, 11712, Note_on_c, 9, 51, 90
8, 11728, Note_on_c, 9, 51, 0
8, 11728, Note_on_c, 9, 42, 0
8, 11728, Note_on_c, 9, 40, 0
8, 11808, Note_on_c, 9, 35, 109
8, 11824, Note_on_c, 9, 35, 0
8, 11904, Note_on_c, 9, 35, 88
8, 11904, Note_on_c, 9, 51, 89
8, 11920, Note_on_c, 9, 51, 0
8, 11920, Note_on_c, 9, 35, 0
8, 12096, Note_on_c, 9, 40, 111
8, 12096, Note_on_c, 9, 42, 89
8, 12096, Note_on_c, 9, 51, 90
8, 12112, Note_on_c, 9, 51, 0
8, 12112, Note_on_c, 9, 42, 0
8, 12112, Note_on_c, 9, 40, 0
8, 12288, Note_on_c, 9, 35, 108
8, 12288, Note_on_c, 9, 40, 33
8, 12304, Note_on_c, 9, 40, 0
8, 12304, Note_on_c, 9, 35, 0
8, 12336, Note_on_c, 9, 40, 33
8, 12352, Note_on_c, 9, 40, 0
8, 12384, Note_on_c, 9, 35, 89
8, 12384, Note_on_c, 9, 40, 109
8, 12400, Note_on_c, 9, 40, 0
8, 12400, Note_on_c, 9, 35, 0
8, 12480, Note_on_c, 9, 47, 111
8, 12496, Note_on_c, 9, 47, 0
8, 12528, Note_on_c, 9, 47, 88
8, 12544, Note_on_c, 9, 47, 0
8, 12576, Note_on_c, 9, 35, 109
8, 12576, Note_on_c, 9, 47, 71
8, 12592, Note_on_c, 9, 47, 0
8, 12592, Note_on_c, 9, 35, 0
8, 12672, Note_on_c, 9, 40, 37
8, 12688, Note_on_c, 9, 40, 0
8, 12720, Note_on_c, 9, 40, 38
8, 12736, Note_on_c, 9, 40, 0
8, 12768, Note_on_c, 9, 47, 110
8, 12784, Note_on_c, 9, 47, 0
8, 12816, Note_on_c, 9, 45, 91
8, 12832, Note_on_c, 9, 45, 0
8, 12864, Note_on_c, 9, 41, 111
8, 12880, Note_on_c, 9, 41, 0
8, 12960, Note_on_c, 9, 41, 89
8, 12976, Note_on_c, 9, 41, 0
8, 13051, Note_on_c, 9, 57, 98
8, 13055, Note_on_c, 9, 57, 0
8, 13056, Note_on_c, 9, 35, 108
8, 13056, Note_on_c, 9, 51, 110
8, 13072, Note_on_c, 9, 51, 0
8, 13072, Note_on_c, 9, 35, 0
8, 13248, Note_on_c, 9, 40, 110
8, 13248, Note_on_c, 9, 42, 88
8, 13248, Note_on_c, 9, 51, 90
8, 13264, Note_on_c, 9, 51, 0
8, 13264, Note_on_c, 9, 42, 0
8, 13264, Note_on_c, 9, 40, 0
8, 13344, Note_on_c, 9, 35, 111
8, 13360, Note_on_c, 9, 35, 0
8, 13440, Note_on_c, 9, 51, 89
8, 13456, Note_on_c, 9, 51, 0
8, 13632, Note_on_c, 9, 40, 109
8, 13632, Note_on_c, 9, 42, 88
8, 13632, Note_on_c, 9, 51, 90
8, 13648, Note_on_c, 9, 51, 0
8, 13648, Note_on_c, 9, 42, 0
8, 13648, Note_on_c, 9, 40, 0
8, 13824, Note_on_c, 9, 35, 108
8, 13824, Note_on_c, 9, 51, 108
8, 13840, Note_on_c, 9, 51, 0
8, 13840, Note_on_c, 9, 35, 0
8, 14016, Note_on_c, 9, 40, 110
8, 14016, Note_on_c, 9, 42, 91
8, 14016, Note_on_c, 9, 51, 90
8, 14032, Note_on_c, 9, 51, 0
8, 14032, Note_on_c, 9, 42, 0
8, 14032, Note_on_c, 9, 40, 0
8, 14112, Note_on_c, 9, 35, 108
8, 14128, Note_on_c, 9, 35, 0
8, 14208, Note_on_c, 9, 40, 36
8, 14224, Note_on_c, 9, 40, 0
8, 14256, Note_on_c, 9, 40, 38
8, 14272, Note_on_c, 9, 40, 0
8, 14304, Note_on_c, 9, 40, 110
8, 14320, Note_on_c, 9, 40, 0
8, 14352, Note_on_c, 9, 47, 91
8, 14368, Note_on_c, 9, 47, 0
8, 14400, Note_on_c, 9, 47, 108
8, 14416, Note_on_c, 9, 47, 0
8, 14496, Note_on_c, 9, 45, 89
8, 14512, Note_on_c, 9, 45, 0
8, 14587, Note_on_c, 9, 57, 100
8, 14591, Note_on_c, 9, 57, 0
8, 14592, Note_on_c, 9, 35, 108
8, 14592, Note_on_c, 9, 51, 108
8, 14608, Note_on_c, 9, 51, 0
8, 14608, Note_on_c, 9, 35, 0
8, 14784, Note_on_c, 9, 40, 110
8, 14784, Note_on_c, 9, 46, 90
8, 14784, Note_on_c, 9, 51, 91
8, 14800, Note_on_c, 9, 51, 0
8, 14800, Note_on_c, 9, 46, 0
8, 14800, Note_on_c, 9, 40, 0
8, 14880, Note_on_c, 9, 35, 108
8, 14896, Note_on_c, 9, 35, 0
8, 14976, Note_on_c, 9, 51, 90
8, 14992, Note_on_c, 9, 51, 0
8, 15168, Note_on_c, 9, 40, 110
8, 15168, Note_on_c, 9, 42, 88
8, 15168, Note_on_c, 9, 51, 91
8, 15184, Note_on_c, 9, 51, 0
8, 15184, Note_on_c, 9, 42, 0
8, 15184, Note_on_c, 9, 40, 0
8, 15264, Note_on_c, 9, 35, 89
8, 15280, Note_on_c, 9, 35, 0
8, 15360, Note_on_c, 9, 35, 111
8, 15360, Note_on_c, 9, 51, 89
8, 15376, Note_on_c, 9, 51, 0
8, 15376, Note_on_c, 9, 35, 0
8, 15552, Note_on_c, 9, 40, 109
8, 15552, Note_on_c, 9, 42, 91
8, 15552, Note_on_c, 9, 51, 91
8, 15568, Note_on_c, 9, 51, 0
8, 15568, Note_on_c, 9, 42, 0
8, 15568, Note_on_c, 9, 40, 0
8, 15648, Note_on_c, 9, 35, 110
8, 15664, Note_on_c, 9, 35, 0
8, 15744, Note_on_c, 9, 51, 89
8, 15760, Note_on_c, 9, 51, 0
8, 15936, Note_on_c, 9, 40, 111
8, 15936, Note_on_c, 9, 42, 88
8, 15936, Note_on_c, 9, 51, 91
8, 15952, Note_on_c, 9, 51, 0
8, 15952, Note_on_c, 9, 42, 0
8, 15952, Note_on_c, 9, 40, 0
8, 16032, Note_on_c, 9, 51, 72
8, 16048, Note_on_c, 9, 51, 0
8, 16128, Note_on_c, 9, 35, 109
8, 16128, Note_on_c, 9, 51, 108
8, 16144, Note_on_c, 9, 51, 0
8, 16144, Note_on_c, 9, 35, 0
8, 16320, Note_on_c, 9, 40, 109
8, 16320, Note_on_c, 9, 46, 90
8, 16320, Note_on_c, 9, 51, 91
8, 16336, Note_on_c, 9, 51, 0
8, 16336, Note_on_c, 9, 46, 0
8, 16336, Note_on_c, 9, 40, 0
8, 16416, Note_on_c, 9, 35, 110
8, 16432, Note_on_c, 9, 35, 0
8, 16512, Note_on_c, 9, 51, 90
8, 16528, Note_on_c, 9, 51, 0
8, 16608, Note_on_c, 9, 35, 109
8, 16624, Note_on_c, 9, 35, 0
8, 16704, Note_on_c, 9, 40, 109
8, 16704, Note_on_c, 9, 42, 88
8, 16704, Note_on_c, 9, 51, 91
8, 16720, Note_on_c, 9, 51, 0
8, 16720, Note_on_c, 9, 42, 0
8, 16720, Note_on_c, 9, 40, 0
8, 16800, Note_on_c, 9, 35, 91
8, 16816, Note_on_c, 9, 35, 0
8, 16896, Note_on_c, 9, 35, 110
8, 16896, Note_on_c, 9, 51, 89
8, 16912, Note_on_c, 9, 51, 0
8, 16912, Note_on_c, 9, 35, 0
8, 17088, Note_on_c, 9, 40, 108
8, 17088, Note_on_c, 9, 42, 91
8, 17088, Note_on_c, 9, 51, 91
8, 17104, Note_on_c, 9, 51, 0
8, 17104, Note_on_c, 9, 42, 0
8, 17104, Note_on_c, 9, 40, 0
8, 17184, Note_on_c, 9, 35, 109
8, 17200, Note_on_c, 9, 35, 0
8, 17280, Note_on_c, 9, 51, 89
8, 17296, Note_on_c, 9, 51, 0
8, 17376, Note_on_c, 9, 35, 89
8, 17392, Note_on_c, 9, 35, 0
8, 17472, Note_on_c, 9, 40, 110
8, 17488, Note_on_c, 9, 40, 0
8, 17488, Note_on_c, 9, 40, 88
8, 17504, Note_on_c, 9, 40, 0
8, 17659, Note_on_c, 9, 57, 98
8, 17663, Note_on_c, 9, 57, 0
8, 17664, Note_on_c, 9, 35, 110
8, 17664, Note_on_c, 9, 51, 108
8, 17680, Note_on_c, 9, 51, 0
8, 17680, Note_on_c, 9, 35, 0
8, 17856, Note_on_c, 9, 40, 111
8, 17856, Note_on_c, 9, 46, 90
8, 17856, Note_on_c, 9, 51, 91
8, 17872, Note_on_c, 9, 51, 0
8, 17872, Note_on_c, 9, 46, 0
8, 17872, Note_on_c, 9, 40, 0
8, 17952, Note_on_c, 9, 35, 108
8, 17968, Note_on_c, 9, 35, 0
8, 18048, Note_on_c, 9, 51, 90
8, 18064, Note_on_c, 9, 51, 0
8, 18144, Note_on_c, 9, 35, 110
8, 18160, Note_on_c, 9, 35, 0
8, 18240, Note_on_c, 9, 40, 111
8, 18240, Note_on_c, 9, 42, 88
8, 18240, Note_on_c, 9, 51, 91
8, 18256, Note_on_c, 9, 51, 0
8, 18256, Note_on_c, 9, 42, 0
8, 18256, Note_on_c, 9, 40, 0
8, 18336, Note_on_c, 9, 35, 88
8, 18352, Note_on_c, 9, 35, 0
8, 18432, Note_on_c, 9, 35, 109
8, 18432, Note_on_c, 9, 40, 33
8, 18448, Note_on_c, 9, 40, 0
8, 18448, Note_on_c, 9, 35, 0
8, 18464, Note_on_c, 9, 40, 33
8, 18480, Note_on_c, 9, 40, 0
8, 18496, Note_on_c, 9, 40, 35
8, 18512, Note_on_c, 9, 40, 0
8, 18528, Note_on_c, 9, 40, 108
8, 18544, Note_on_c, 9, 40, 0
8, 18624, Note_on_c, 9, 40, 37
8, 18640, Note_on_c, 9, 40, 0
8, 18672, Note_on_c, 9, 40, 70
8, 18688, Note_on_c, 9, 40, 0
8, 18720, Note_on_c, 9, 35, 111
8, 18720, Note_on_c, 9, 40, 108
8, 18736, Note_on_c, 9, 40, 0
8, 18736, Note_on_c, 9, 35, 0
8, 18816, Note_on_c, 9, 35, 88
8, 18816, Note_on_c, 9, 40, 36
8, 18832, Note_on_c, 9, 40, 0
8, 18832, Note_on_c, 9, 35, 0
8, 18864, Note_on_c, 9, 40, 67
8, 18880, Note_on_c, 9, 40, 0
8, 18912, Note_on_c, 9, 40, 109
8, 18928, Note_on_c, 9, 40, 0
8, 19008, Note_on_c, 9, 40, 108
8, 19024, Note_on_c, 9, 40, 0
8, 19056, Note_on_c, 9, 40, 91
8, 19072, Note_on_c, 9, 40, 0
8, 19104, Note_on_c, 9, 35, 89
8, 19104, Note_on_c, 9, 40, 111
8, 19120, Note_on_c, 9, 40, 0
8, 19120, Note_on_c, 9, 35, 0
8, 19195, Note_on_c, 9, 57, 99
8, 19199, Note_on_c, 9, 57, 0
8, 19200, Note_on_c, 9, 35, 111
8, 19200, Note_on_c, 9, 51, 108
8, 19216, Note_on_c, 9, 51, 0
8, 19216, Note_on_c, 9, 35, 0
8, 19296, Note_on_c, 9, 35, 88
8, 19312, Note_on_c, 9, 35, 0
8, 19392, Note_on_c, 9, 40, 110
8, 19392, Note_on_c, 9, 42, 88
8, 19392, Note_on_c, 9, 51, 91
8, 19408, Note_on_c, 9, 51, 0
8, 19408, Note_on_c, 9, 42, 0
8, 19408, Note_on_c, 9, 40, 0
8, 19488, Note_on_c, 9, 35, 111
8, 19504, Note_on_c, 9, 35, 0
8, 19584, Note_on_c, 9, 51, 90
8, 19600, Note_on_c, 9, 51, 0
8, 19680, Note_on_c, 9, 35, 109
8, 19696, Note_on_c, 9, 35, 0
8, 19776, Note_on_c, 9, 40, 111
8, 19776, Note_on_c, 9, 42, 91
8, 19776, Note_on_c, 9, 51, 91
8, 19792, Note_on_c, 9, 51, 0
8, 19792, Note_on_c, 9, 42, 0
8, 19792, Note_on_c, 9, 40, 0
8, 19872, Note_on_c, 9, 35, 90
8, 19888, Note_on_c, 9, 35, 0
8, 19968, Note_on_c, 9, 35, 111
8, 19968, Note_on_c, 9, 51, 89
8, 19984, Note_on_c, 9, 51, 0
8, 19984, Note_on_c, 9, 35, 0
8, 20064, Note_on_c, 9, 35, 90
8, 20080, Note_on_c, 9, 35, 0
8, 20160, Note_on_c, 9, 40, 109
8, 20160, Note_on_c, 9, 46, 91
8, 20160, Note_on_c, 9, 51, 91
8, 20176, Note_on_c, 9, 51, 0
8, 20176, Note_on_c, 9, 46, 0
8, 20176, Note_on_c, 9, 40, 0
8, 20256, Note_on_c, 9, 35, 110
8, 20272, Note_on_c, 9, 35, 0
8, 20352, Note_on_c, 9, 51, 89
8, 20368, Note_on_c, 9, 51, 0
8, 20448, Note_on_c, 9, 35, 108
8, 20464, Note_on_c, 9, 35, 0
8, 20544, Note_on_c, 9, 40, 110
8, 20544, Note_on_c, 9, 42, 91
8, 20544, Note_on_c, 9, 51, 91
8, 20560, Note_on_c, 9, 51, 0
8, 20560, Note_on_c, 9, 42, 0
8, 20560, Note_on_c, 9, 40, 0
8, 20640, Note_on_c, 9, 51, 72
8, 20656, Note_on_c, 9, 51, 0
8, 20736, Note_on_c, 9, 35, 109
8, 20736, Note_on_c, 9, 51, 108
8, 20752, Note_on_c, 9, 51, 0
8, 20752, Note_on_c, 9, 35, 0
8, 20928, Note_on_c, 9, 40, 109
8, 20928, Note_on_c, 9, 42, 89
8, 20928, Note_on_c, 9, 51, 91
8, 20944, Note_on_c, 9, 51, 0
8, 20944, Note_on_c, 9, 42, 0
8, 20944, Note_on_c, 9, 40, 0
8, 21024, Note_on_c, 9, 35, 111
8, 21040, Note_on_c, 9, 35, 0
8, 21120, Note_on_c, 9, 35, 90
8, 21120, Note_on_c, 9, 40, 109
8, 21136, Note_on_c, 9, 40, 0
8, 21136, Note_on_c, 9, 35, 0
8, 21168, Note_on_c, 9, 40, 89
8, 21184, Note_on_c, 9, 40, 0
8, 21216, Note_on_c, 9, 40, 71
8, 21232, Note_on_c, 9, 40, 0
8, 21264, Note_on_c, 9, 40, 73
8, 21280, Note_on_c, 9, 40, 0
8, 21312, Note_on_c, 9, 40, 111
8, 21328, Note_on_c, 9, 40, 0
8, 21360, Note_on_c, 9, 40, 71
8, 21376, Note_on_c, 9, 40, 0
8, 21408, Note_on_c, 9, 40, 89
8, 21424, Note_on_c, 9, 40, 0
8, 21456, Note_on_c, 9, 40, 72
8, 21472, Note_on_c, 9, 40, 0
8, 21499, Note_on_c, 9, 57, 101
8, 21503, Note_on_c, 9, 57, 0
8, 21504, Note_on_c, 9, 35, 111
8, 21504, Note_on_c, 9, 40, 33
8, 21520, Note_on_c, 9, 40, 0
8, 21520, Note_on_c, 9, 35, 0
8, 21552, Note_on_c, 9, 40, 36
8, 21568, Note_on_c, 9, 40, 0
8, 21600, Note_on_c, 9, 40, 111
8, 21616, Note_on_c, 9, 40, 0
8, 21696, Note_on_c, 9, 47, 110
8, 21712, Note_on_c, 9, 47, 0
8, 21744, Note_on_c, 9, 45, 90
8, 21760, Note_on_c, 9, 45, 0
8, 21792, Note_on_c, 9, 35, 109
8, 21792, Note_on_c, 9, 45, 70
8, 21808, Note_on_c, 9, 45, 0
8, 21808, Note_on_c, 9, 35, 0
8, 21888, Note_on_c, 9, 40, 38
8, 21904, Note_on_c, 9, 40, 0
8, 21936, Note_on_c, 9, 40, 32
8, 21952, Note_on_c, 9, 40, 0
8, 21984, Note_on_c, 9, 45, 110
8, 22000, Note_on_c, 9, 45, 0
8, 22032, Note_on_c, 9, 45, 88
8, 22048, Note_on_c, 9, 45, 0
8, 22080, Note_on_c, 9, 45, 108
8, 22096, Note_on_c, 9, 45, 0
8, 22176, Note_on_c, 9, 45, 91
8, 22192, Note_on_c, 9, 45, 0
8, 22267, Note_on_c, 9, 57, 99
8, 22271, Note_on_c, 9, 57, 0
8, 22272, Note_on_c, 9, 35, 108
8, 22272, Note_on_c, 9, 51, 111
8, 22288, Note_on_c, 9, 51, 0
8, 22288, Note_on_c, 9, 35, 0
8, 22464, Note_on_c, 9, 40, 110
8, 22464, Note_on_c, 9, 46, 88
8, 22464, Note_on_c, 9, 51, 88
8, 22480, Note_on_c, 9, 51, 0
8, 22480, Note_on_c, 9, 46, 0
8, 22480, Note_on_c, 9, 40, 0
8, 22560, Note_on_c, 9, 35, 108
8, 22576, Note_on_c, 9, 35, 0
8, 22656, Note_on_c, 9, 51, 91
8, 22672, Note_on_c, 9, 51, 0
8, 22848, Note_on_c, 9, 40, 110
8, 22848, Note_on_c, 9, 42, 91
8, 22848, Note_on_c, 9, 51, 90
8, 22864, Note_on_c, 9, 51, 0
8, 22864, Note_on_c, 9, 42, 0
8, 22864, Note_on_c, 9, 40, 0
8, 23040, Note_on_c, 9, 35, 109
8, 23040, Note_on_c, 9, 51, 88
8, 23056, Note_on_c, 9, 51, 0
8, 23056, Note_on_c, 9, 35, 0
8, 23184, Note_on_c, 9, 40, 33
8, 23200, Note_on_c, 9, 40, 0
8, 23232, Note_on_c, 9, 40, 111
8, 23232, Note_on_c, 9, 42, 88
8, 23232, Note_on_c, 9, 51, 88
8, 23248, Note_on_c, 9, 51, 0
8, 23248, Note_on_c, 9, 42, 0
8, 23248, Note_on_c, 9, 40, 0
8, 23328, Note_on_c, 9, 35, 111
8, 23344, Note_on_c, 9, 35, 0
8, 23424, Note_on_c, 9, 51, 90
8, 23440, Note_on_c, 9, 51, 0
8, 23520, Note_on_c, 9, 35, 110
8, 23520, Note_on_c, 9, 51, 70
8, 23536, Note_on_c, 9, 51, 0
8, 23536, Note_on_c, 9, 35, 0
8, 23616, Note_on_c, 9, 40, 109
8, 23616, Note_on_c, 9, 42, 90
8, 23616, Note_on_c, 9, 51, 90
8, 23632, Note_on_c, 9, 51, 0
8, 23632, Note_on_c, 9, 42, 0
8, 23632, Note_on_c, 9, 40, 0
8, 23808, Note_on_c, 9, 35, 108
8, 23808, Note_on_c, 9, 51, 109
8, 23824, Note_on_c, 9, 51, 0
8, 23824, Note_on_c, 9, 35, 0
8, 24000, Note_on_c, 9, 40, 110
8, 24000, Note_on_c, 9, 42, 91
8, 24000, Note_on_c, 9, 51, 91
8, 24016, Note_on_c, 9, 51, 0
8, 24016, Note_on_c, 9, 42, 0
8, 24016, Note_on_c, 9, 40, 0
8, 24096, Note_on_c, 9, 35, 110
8, 24112, Note_on_c, 9, 35, 0
8, 24192, Note_on_c, 9, 51, 88
8, 24208, Note_on_c, 9, 51, 0
8, 24288, Note_on_c, 9, 35, 110
8, 24304, Note_on_c, 9, 35, 0
8, 24384, Note_on_c, 9, 40, 109
8, 24384, Note_on_c, 9, 42, 91
8, 24384, Note_on_c, 9, 51, 91
8, 24400, Note_on_c, 9, 51, 0
8, 24400, Note_on_c, 9, 42, 0
8, 24400, Note_on_c, 9, 40, 0
8, 24480, Note_on_c, 9, 35, 90
8, 24496, Note_on_c, 9, 35, 0
8, 24576, Note_on_c, 9, 40, 109
8, 24592, Note_on_c, 9, 40, 0
8, 24592, Note_on_c, 9, 47, 88
8, 24608, Note_on_c, 9, 47, 0
8, 24672, Note_on_c, 9, 35, 109
8, 24688, Note_on_c, 9, 35, 0
8, 24768, Note_on_c, 9, 40, 34
8, 24784, Note_on_c, 9, 40, 0
8, 24816, Note_on_c, 9, 47, 69
8, 24832, Note_on_c, 9, 47, 0
8, 24864, Note_on_c, 9, 47, 109
8, 24880, Note_on_c, 9, 47, 0
8, 24960, Note_on_c, 9, 40, 36
8, 24976, Note_on_c, 9, 40, 0
8, 25008, Note_on_c, 9, 47, 72
8, 25024, Note_on_c, 9, 47, 0
8, 25056, Note_on_c, 9, 35, 111
8, 25072, Note_on_c, 9, 35, 0
8, 25152, Note_on_c, 9, 47, 110
8, 25168, Note_on_c, 9, 47, 0
8, 25248, Note_on_c, 9, 35, 91
8, 25264, Note_on_c, 9, 35, 0
8, 25339, Note_on_c, 9, 57, 100
8, 25343, Note_on_c, 9, 57, 0
8, 25344, Note_on_c, 9, 35, 110
8, 25344, Note_on_c, 9, 51, 109
8, 25360, Note_on_c, 9, 51, 0
8, 25360, Note_on_c, 9, 35, 0
8, 25536, Note_on_c, 9, 40, 109
8, 25536, Note_on_c, 9, 42, 91
8, 25536, Note_on_c, 9, 51, 91
8, 25552, Note_on_c, 9, 51, 0
8, 25552, Note_on_c, 9, 42, 0
8, 25552, Note_on_c, 9, 40, 0
8, 25632, Note_on_c, 9, 35, 109
8, 25648, Note_on_c, 9, 35, 0
8, 25728, Note_on_c, 9, 51, 88
8, 25744, Note_on_c, 9, 51, 0
8, 25920, Note_on_c, 9, 40, 111
8, 25920, Note_on_c, 9, 42, 91
8, 25920, Note_on_c, 9, 51, 91
8, 25936, Note_on_c, 9, 51, 0
8, 25936, Note_on_c, 9, 42, 0
8, 25936, Note_on_c, 9, 40, 0
8, 26112, Note_on_c, 9, 35, 108
8, 26112, Note_on_c, 9, 51, 110
8, 26128, Note_on_c, 9, 51, 0
8, 26128, Note_on_c, 9, 35, 0
8, 26304, Note_on_c, 9, 40, 109
8, 26304, Note_on_c, 9, 42, 91
8, 26304, Note_on_c, 9, 51, 90
8, 26320, Note_on_c, 9, 51, 0
8, 26320, Note_on_c, 9, 42, 0
8, 26320, Note_on_c, 9, 40, 0
8, 26400, Note_on_c, 9, 35, 111
8, 26416, Note_on_c, 9, 35, 0
8, 26496, Note_on_c, 9, 51, 91
8, 26512, Note_on_c, 9, 51, 0
8, 26688, Note_on_c, 9, 40, 110
8, 26688, Note_on_c, 9, 42, 90
8, 26688, Note_on_c, 9, 51, 88
8, 26704, Note_on_c, 9, 51, 0
8, 26704, Note_on_c, 9, 42, 0
8, 26704, Note_on_c, 9, 40, 0
8, 26880, Note_on_c, 9, 35, 110
8, 26880, Note_on_c, 9, 51, 111
8, 26896, Note_on_c, 9, 51, 0
8, 26896, Note_on_c, 9, 35, 0
8, 27072, Note_on_c, 9, 40, 110
8, 27072, Note_on_c, 9, 42, 91
8, 27072, Note_on_c, 9, 51, 90
8, 27088, Note_on_c, 9, 51, 0
8, 27088, Note_on_c, 9, 42, 0
8, 27088, Note_on_c, 9, 40, 0
8, 27168, Note_on_c, 9, 35, 110
8, 27184, Note_on_c, 9, 35, 0
8, 27264, Note_on_c, 9, 51, 90
8, 27280, Note_on_c, 9, 51, 0
8, 27360, Note_on_c, 9, 35, 108
8, 27376, Note_on_c, 9, 35, 0
8, 27456, Note_on_c, 9, 40, 110
8, 27456, Note_on_c, 9, 42, 91
8, 27456, Note_on_c, 9, 51, 91
8, 27472, Note_on_c, 9, 51, 0
8, 27472, Note_on_c, 9, 42, 0
8, 27472, Note_on_c, 9, 40, 0
8, 27648, Note_on_c, 9, 40, 111
8, 27664, Note_on_c, 9, 40, 0
8, 27696, Note_on_c, 9, 40, 89
8, 27712, Note_on_c, 9, 40, 0
8, 27744, Note_on_c, 9, 35, 91
8, 27760, Note_on_c, 9, 35, 0
8, 27840, Note_on_c, 9, 35, 88
8, 27856, Note_on_c, 9, 35, 0
8, 27936, Note_on_c, 9, 40, 111
8, 27952, Note_on_c, 9, 40, 0
8, 27952, Note_on_c, 9, 40, 90
8, 27968, Note_on_c, 9, 40, 0
8, 28032, Note_on_c, 9, 35, 91
8, 28048, Note_on_c, 9, 35, 0
8, 28128, Note_on_c, 9, 35, 91
8, 28144, Note_on_c, 9, 35, 0
8, 28224, Note_on_c, 9, 40, 111
8, 28240, Note_on_c, 9, 40, 0
8, 28240, Note_on_c, 9, 40, 89
8, 28256, Note_on_c, 9, 40, 0
8, 28320, Note_on_c, 9, 35, 89
8, 28336, Note_on_c, 9, 35, 0
8, 28411, Note_on_c, 9, 57, 98
8, 28415, Note_on_c, 9, 57, 0
8, 28416, Note_on_c, 9, 35, 108
8, 28416, Note_on_c, 9, 51, 108
8, 28432, Note_on_c, 9, 51, 0
8, 28432, Note_on_c, 9, 35, 0
8, 28512, Note_on_c, 9, 35, 90
8, 28528, Note_on_c, 9, 35, 0
8, 28608, Note_on_c, 9, 40, 110
8, 28608, Note_on_c, 9, 42, 90
8, 28608, Note_on_c, 9, 51, 90
8, 28624, Note_on_c, 9, 51, 0
8, 28624, Note_on_c, 9, 42, 0
8, 28624, Note_on_c, 9, 40, 0
8, 28704, Note_on_c, 9, 35, 109
8, 28720, Note_on_c, 9, 35, 0
8, 28800, Note_on_c, 9, 51, 89
8, 28816, Note_on_c, 9, 51, 0
8, 28848, Note_on_c, 9, 40, 68
8, 28864, Note_on_c, 9, 40, 0
8, 28896, Note_on_c, 9, 35, 108
8, 28896, Note_on_c, 9, 40, 90
8, 28912, Note_on_c, 9, 40, 0
8, 28912, Note_on_c, 9, 35, 0
8, 28944, Note_on_c, 9, 40, 89
8, 28960, Note_on_c, 9, 40, 0
8, 28992, Note_on_c, 9, 47, 110
8, 29008, Note_on_c, 9, 47, 0
8, 29040, Note_on_c, 9, 47, 88
8, 29056, Note_on_c, 9, 47, 0
8, 29088, Note_on_c, 9, 35, 90
8, 29088, Note_on_c, 9, 47, 89
8, 29104, Note_on_c, 9, 47, 0
8, 29104, Note_on_c, 9, 35, 0
8, 29136, Note_on_c, 9, 47, 71
8, 29152, Note_on_c, 9, 47, 0
8, 29179, Note_on_c, 9, 57, 101
8, 29183, Note_on_c, 9, 57, 0
8, 29184, Note_on_c, 9, 35, 109
8, 29184, Note_on_c, 9, 51, 109
8, 29200, Note_on_c, 9, 51, 0
8, 29200, Note_on_c, 9, 35, 0
8, 29280, Note_on_c, 9, 35, 90
8, 29296, Note_on_c, 9, 35, 0
8, 29376, Note_on_c, 9, 40, 110
8, 29376, Note_on_c, 9, 42, 90
8, 29376, Note_on_c, 9, 51, 91
8, 29392, Note_on_c, 9, 51, 0
8, 29392, Note_on_c, 9, 42, 0
8, 29392, Note_on_c, 9, 40, 0
8, 29472, Note_on_c, 9, 35, 111
8, 29488, Note_on_c, 9, 35, 0
8, 29568, Note_on_c, 9, 51, 91
8, 29584, Note_on_c, 9, 51, 0
8, 29760, Note_on_c, 9, 40, 109
8, 29760, Note_on_c, 9, 42, 89
8, 29760, Note_on_c, 9, 51, 89
8, 29776, Note_on_c, 9, 51, 0
8, 29776, Note_on_c, 9, 42, 0
8, 29776, Note_on_c, 9, 40, 0
8, 29952, Note_on_c, 9, 35, 108
8, 29952, Note_on_c, 9, 51, 108
8, 29968, Note_on_c, 9, 51, 0
8, 29968, Note_on_c, 9, 35, 0
8, 30048, Note_on_c, 9, 35, 89
8, 30064, Note_on_c, 9, 35, 0
8, 30144, Note_on_c, 9, 40, 108
8, 30144, Note_on_c, 9, 42, 88
8, 30144, Note_on_c, 9, 51, 91
8, 30160, Note_on_c, 9, 51, 0
8, 30160, Note_on_c, 9, 42, 0
8, 30160, Note_on_c, 9, 40, 0
8, 30240, Note_on_c, 9, 35, 109
8, 30256, Note_on_c, 9, 35, 0
8, 30336, Note_on_c, 9, 51, 89
8, 30352, Note_on_c, 9, 51, 0
8, 30432, Note_on_c, 9, 35, 108
8, 30448, Note_on_c, 9, 35, 0
8, 30528, Note_on_c, 9, 40, 108
8, 30528, Note_on_c, 9, 42, 91
8, 30528, Note_on_c, 9, 51, 89
8, 30544, Note_on_c, 9, 51, 0
8, 30544, Note_on_c, 9, 42, 0
8, 30544, Note_on_c, 9, 40, 0
8, 30624, Note_on_c, 9, 51, 67
8, 30640, Note_on_c, 9, 51, 0
8, 30720, Note_on_c, 9, 35, 111
8, 30720, Note_on_c, 9, 51, 109
8, 30736, Note_on_c, 9, 51, 0
8, 30736, Note_on_c, 9, 35, 0
8, 30816, Note_on_c, 9, 35, 89
8, 30832, Note_on_c, 9, 35, 0
8, 30912, Note_on_c, 9, 40, 108
8, 30912, Note_on_c, 9, 42, 90
8, 30912, Note_on_c, 9, 51, 91
8, 30928, Note_on_c, 9, 51, 0
8, 30928, Note_on_c, 9, 42, 0
8, 30928, Note_on_c, 9, 40, 0
8, 31008, Note_on_c, 9, 35, 110
8, 31024, Note_on_c, 9, 35, 0
8, 31104, Note_on_c, 9, 40, 111
8, 31120, Note_on_c, 9, 40, 0
8, 31152, Note_on_c, 9, 40, 72
8, 31168, Note_on_c, 9, 40, 0
8, 31200, Note_on_c, 9, 35, 88
8, 31216, Note_on_c, 9, 35, 0
8, 31248, Note_on_c, 9, 40, 73
8, 31264, Note_on_c, 9, 40, 0
8, 31296, Note_on_c, 9, 40, 110
8, 31312, Note_on_c, 9, 40, 0
8, 31344, Note_on_c, 9, 40, 90
8, 31360, Note_on_c, 9, 40, 0
8, 31392, Note_on_c, 9, 40, 69
8, 31408, Note_on_c, 9, 40, 0
8, 31440, Note_on_c, 9, 40, 70
8, 31456, Note_on_c, 9, 40, 0
8, 31483, Note_on_c, 9, 57, 101
8, 31487, Note_on_c, 9, 57, 0
8, 31488, Note_on_c, 9, 35, 108
8, 31488, Note_on_c, 9, 51, 108
8, 31504, Note_on_c, 9, 51, 0
8, 31504, Note_on_c, 9, 35, 0
8, 31680, Note_on_c, 9, 40, 111
8, 31680, Note_on_c, 9, 42, 88
8, 31680, Note_on_c, 9, 51, 91
8, 31696, Note_on_c, 9, 51, 0
8, 31696, Note_on_c, 9, 42, 0
8, 31696, Note_on_c, 9, 40, 0
8, 31776, Note_on_c, 9, 35, 108
8, 31792, Note_on_c, 9, 35, 0
8, 31872, Note_on_c, 9, 51, 89
8, 31888, Note_on_c, 9, 51, 0
8, 32064, Note_on_c, 9, 40, 108
8, 32064, Note_on_c, 9, 42, 91
8, 32064, Note_on_c, 9, 51, 89
8, 32080, Note_on_c, 9, 51, 0
8, 32080, Note_on_c, 9, 42, 0
8, 32080, Note_on_c, 9, 40, 0
8, 32160, Note_on_c, 9, 51, 67
8, 32176, Note_on_c, 9, 51, 0
8, 32256, Note_on_c, 9, 35, 110
8, 32256, Note_on_c, 9, 51, 109
8, 32272, Note_on_c, 9, 51, 0
8, 32272, Note_on_c, 9, 35, 0
8, 32448, Note_on_c, 9, 40, 108
8, 32448, Note_on_c, 9, 42, 90
8, 32448, Note_on_c, 9, 51, 91
8, 32464, Note_on_c, 9, 51, 0
8, 32464, Note_on_c, 9, 42, 0
8, 32464, Note_on_c, 9, 40, 0
8, 32544, Note_on_c, 9, 35, 108
8, 32560, Note_on_c, 9, 35, 0
8, 32640, Note_on_c, 9, 51, 91
8, 32656, Note_on_c, 9, 51, 0
8, 32832, Note_on_c, 9, 40, 109
8, 32832, Note_on_c, 9, 42, 88
8, 32832, Note_on_c, 9, 51, 89
8, 32848, Note_on_c, 9, 51, 0
8, 32848, Note_on_c, 9, 42, 0
8, 32848, Note_on_c, 9, 40, 0
8, 33024, Note_on_c, 9, 35, 110
8, 33024, Note_on_c, 9, 51, 108
8, 33040, Note_on_c, 9, 51, 0
8, 33040, Note_on_c, 9, 35, 0
8, 33216, Note_on_c, 9, 40, 109
8, 33216, Note_on_c, 9, 42, 89
8, 33216, Note_on_c, 9, 51, 91
8, 33232, Note_on_c, 9, 51, 0
8, 33232, Note_on_c, 9, 42, 0
8, 33232, Note_on_c, 9, 40, 0
8, 33312, Note_on_c, 9, 35, 110
8, 33328, Note_on_c, 9, 35, 0
8, 33408, Note_on_c, 9, 51, 89
8, 33424, Note_on_c, 9, 51, 0
8, 33504, Note_on_c, 9, 35, 108
8, 33520, Note_on_c, 9, 35, 0
8, 33600, Note_on_c, 9, 40, 110
8, 33600, Note_on_c, 9, 42, 89
8, 33600, Note_on_c, 9, 51, 89
8, 33616, Note_on_c, 9, 51, 0
8, 33616, Note_on_c, 9, 42, 0
8, 33616, Note_on_c, 9, 40, 0
8, 33696, Note_on_c, 9, 51, 67
8, 33712, Note_on_c, 9, 51, 0
8, 33792, Note_on_c, 9, 40, 111
8, 33808, Note_on_c, 9, 40, 0
8, 33808, Note_on_c, 9, 40, 91
8, 33824, Note_on_c, 9, 40, 0
8, 33888, Note_on_c, 9, 35, 89
8, 33904, Note_on_c, 9, 35, 0
8, 33984, Note_on_c, 9, 35, 89
8, 34000, Note_on_c, 9, 35, 0
8, 34080, Note_on_c, 9, 40, 108
8, 34096, Note_on_c, 9, 40, 0
8, 34096, Note_on_c, 9, 40, 90
8, 34112, Note_on_c, 9, 40, 0
8, 34176, Note_on_c, 9, 35, 90
8, 34192, Note_on_c, 9, 35, 0
8, 34272, Note_on_c, 9, 35, 91
8, 34288, Note_on_c, 9, 35, 0
8, 34368, Note_on_c, 9, 40, 111
8, 34384, Note_on_c, 9, 40, 0
8, 34384, Note_on_c, 9, 40, 90
8, 34400, Note_on_c, 9, 40, 0
8, 34464, Note_on_c, 9, 35, 90
8, 34480, Note_on_c, 9, 35, 0
8, 34555, Note_on_c, 9, 57, 99
8, 34559, Note_on_c, 9, 57, 0
8, 34560, Note_on_c, 9, 35, 109
8, 34560, Note_on_c, 9, 51, 108
8, 34576, Note_on_c, 9, 51, 0
8, 34576, Note_on_c, 9, 35, 0
8, 34656, Note_on_c, 9, 35, 90
8, 34672, Note_on_c, 9, 35, 0
8, 34752, Note_on_c, 9, 40, 110
8, 34752, Note_on_c, 9, 42, 89
8, 34752, Note_on_c, 9, 51, 91
8, 34768, Note_on_c, 9, 51, 0
8, 34768, Note_on_c, 9, 42, 0
8, 34768, Note_on_c, 9, 40, 0
8, 34848, Note_on_c, 9, 35, 109
8, 34864, Note_on_c, 9, 35, 0
8, 34944, Note_on_c, 9, 51, 89
8, 34960, Note_on_c, 9, 51, 0
8, 35136, Note_on_c, 9, 40, 109
8, 35136, Note_on_c, 9, 42, 89
8, 35136, Note_on_c, 9, 51, 89
8, 35152, Note_on_c, 9, 51, 0
8, 35152, Note_on_c, 9, 42, 0
8, 35152, Note_on_c, 9, 40, 0
8, 35232, Note_on_c, 9, 51, 67
8, 35248, Note_on_c, 9, 51, 0
8, 35328, Note_on_c, 9, 35, 111
8, 35328, Note_on_c, 9, 51, 109
8, 35344, Note_on_c, 9, 51, 0
8, 35344, Note_on_c, 9, 35, 0
8, 35520, Note_on_c, 9, 40, 111
8, 35520, Note_on_c, 9, 42, 89
8, 35520, Note_on_c, 9, 51, 91
8, 35536, Note_on_c, 9, 51, 0
8, 35536, Note_on_c, 9, 42, 0
8, 35536, Note_on_c, 9, 40, 0
8, 35616, Note_on_c, 9, 35, 109
8, 35632, Note_on_c, 9, 35, 0
8, 35712, Note_on_c, 9, 35, 90
8, 35712, Note_on_c, 9, 51, 91
8, 35728, Note_on_c, 9, 51, 0
8, 35728, Note_on_c, 9, 35, 0
8, 35904, Note_on_c, 9, 40, 111
8, 35904, Note_on_c, 9, 42, 88
8, 35904, Note_on_c, 9, 51, 89
8, 35920, Note_on_c, 9, 51, 0
8, 35920, Note_on_c, 9, 42, 0
8, 35920, Note_on_c, 9, 40, 0
8, 36000, Note_on_c, 9, 35, 90
8, 36016, Note_on_c, 9, 35, 0
8, 36096, Note_on_c, 9, 35, 110
8, 36096, Note_on_c, 9, 51, 108
8, 36112, Note_on_c, 9, 51, 0
8, 36112, Note_on_c, 9, 35, 0
8, 36288, Note_on_c, 9, 40, 108
8, 36288, Note_on_c, 9, 42, 91
8, 36288, Note_on_c, 9, 51, 91
8, 36304, Note_on_c, 9, 51, 0
8, 36304, Note_on_c, 9, 42, 0
8, 36304, Note_on_c, 9, 40, 0
8, 36384, Note_on_c, 9, 35, 109
8, 36400, Note_on_c, 9, 35, 0
8, 36480, Note_on_c, 9, 51, 89
8, 36496, Note_on_c, 9, 51, 0
8, 36576, Note_on_c, 9, 35, 110
8, 36592, Note_on_c, 9, 35, 0
8, 36672, Note_on_c, 9, 40, 110
8, 36672, Note_on_c, 9, 42, 90
8, 36672, Note_on_c, 9, 51, 89
8, 36688, Note_on_c, 9, 51, 0
8, 36688, Note_on_c, 9, 42, 0
8, 36688, Note_on_c, 9, 40, 0
8, 36768, Note_on_c, 9, 51, 67
8, 36784, Note_on_c, 9, 51, 0
8, 36864, Note_on_c, 9, 40, 109
8, 36880, Note_on_c, 9, 40, 0
8, 36912, Note_on_c, 9, 40, 71
8, 36928, Note_on_c, 9, 40, 0
8, 36960, Note_on_c, 9, 35, 89
8, 36976, Note_on_c, 9, 35, 0
8, 37008, Note_on_c, 9, 35, 91
8, 37024, Note_on_c, 9, 35, 0
8, 37056, Note_on_c, 9, 40, 111
8, 37072, Note_on_c, 9, 40, 0
8, 37104, Note_on_c, 9, 40, 73
8, 37120, Note_on_c, 9, 40, 0
8, 37152, Note_on_c, 9, 35, 88
8, 37168, Note_on_c, 9, 35, 0
8, 37200, Note_on_c, 9, 40, 69
8, 37216, Note_on_c, 9, 40, 0
8, 37248, Note_on_c, 9, 35, 88
8, 37264, Note_on_c, 9, 35, 0
8, 37344, Note_on_c, 9, 35, 89
8, 37360, Note_on_c, 9, 35, 0
8, 37440, Note_on_c, 9, 40, 111
8, 37456, Note_on_c, 9, 40, 0
8, 37456, Note_on_c, 9, 40, 89
8, 37472, Note_on_c, 9, 40, 0
8, 37536, Note_on_c, 9, 35, 89
8, 37552, Note_on_c, 9, 35, 0
8, 37627, Note_on_c, 9, 57, 99
8, 37631, Note_on_c, 9, 57, 0
8, 37632, Note_on_c, 9, 35, 109
8, 37632, Note_on_c, 9, 51, 109
8, 37648, Note_on_c, 9, 51, 0
8, 37648, Note_on_c, 9, 35, 0
8, 37824, Note_on_c, 9, 40, 110
8, 37824, Note_on_c, 9, 42, 89
8, 37824, Note_on_c, 9, 51, 91
8, 37840, Note_on_c, 9, 51, 0
8, 37840, Note_on_c, 9, 42, 0
8, 37840, Note_on_c, 9, 40, 0
8, 37920, Note_on_c, 9, 35, 109
8, 37936, Note_on_c, 9, 35, 0
8, 38016, Note_on_c, 9, 51, 90
8, 38032, Note_on_c, 9, 51, 0
8, 38208, Note_on_c, 9, 40, 108
8, 38208, Note_on_c, 9, 42, 91
8, 38208, Note_on_c, 9, 51, 89
8, 38224, Note_on_c, 9, 51, 0
8, 38224, Note_on_c, 9, 42, 0
8, 38224, Note_on_c, 9, 40, 0
8, 38400, Note_on_c, 9, 35, 109
8, 38400, Note_on_c, 9, 51, 111
8, 38416, Note_on_c, 9, 51, 0
8, 38416, Note_on_c, 9, 35, 0
8, 38496, Note_on_c, 9, 35, 91
8, 38512, Note_on_c, 9, 35, 0
8, 38592, Note_on_c, 9, 40, 110
8, 38592, Note_on_c, 9, 42, 89
8, 38592, Note_on_c, 9, 51, 89
8, 38608, Note_on_c, 9, 51, 0
8, 38608, Note_on_c, 9, 42, 0
8, 38608, Note_on_c, 9, 40, 0
8, 38688, Note_on_c, 9, 35, 109
8, 38704, Note_on_c, 9, 35, 0
8, 38784, Note_on_c, 9, 35, 90
8, 38800, Note_on_c, 9, 35, 0
8, 38880, Note_on_c, 9, 35, 88
8, 38896, Note_on_c, 9, 35, 0
8, 38928, Note_on_c, 9, 40, 72
8, 38944, Note_on_c, 9, 40, 0
8, 38976, Note_on_c, 9, 47, 108
8, 38992, Note_on_c, 9, 47, 0
8, 39072, Note_on_c, 9, 35, 90
8, 39088, Note_on_c, 9, 35, 0
8, 39120, Note_on_c, 9, 47, 70
8, 39136, Note_on_c, 9, 47, 0
8, 39163, Note_on_c, 9, 57, 98
8, 39167, Note_on_c, 9, 57, 0
8, 39168, Note_on_c, 9, 35, 110
8, 39168, Note_on_c, 9, 51, 89
8, 39184, Note_on_c, 9, 51, 0
8, 39184, Note_on_c, 9, 35, 0
8, 39360, Note_on_c, 9, 40, 111
8, 39360, Note_on_c, 9, 42, 89
8, 39360, Note_on_c, 9, 51, 89
8, 39376, Note_on_c, 9, 51, 0
8, 39376, Note_on_c, 9, 42, 0
8, 39376, Note_on_c, 9, 40, 0
8, 39456, Note_on_c, 9, 35, 109
8, 39472, Note_on_c, 9, 35, 0
8, 39552, Note_on_c, 9, 35, 88
8, 39552, Note_on_c, 9, 51, 88
8, 39568, Note_on_c, 9, 51, 0
8, 39568, Note_on_c, 9, 35, 0
8, 39648, Note_on_c, 9, 51, 69
8, 39664, Note_on_c, 9, 51, 0
8, 39744, Note_on_c, 9, 40, 108
8, 39744, Note_on_c, 9, 42, 91
8, 39744, Note_on_c, 9, 51, 88
8, 39760, Note_on_c, 9, 51, 0
8, 39760, Note_on_c, 9, 42, 0
8, 39760, Note_on_c, 9, 40, 0
8, 39936, Note_on_c, 9, 35, 111
8, 39936, Note_on_c, 9, 51, 111
8, 39952, Note_on_c, 9, 51, 0
8, 39952, Note_on_c, 9, 35, 0
8, 40128, Note_on_c, 9, 40, 110
8, 40128, Note_on_c, 9, 42, 89
8, 40128, Note_on_c, 9, 51, 89
8, 40144, Note_on_c, 9, 51, 0
8, 40144, Note_on_c, 9, 42, 0
8, 40144, Note_on_c, 9, 40, 0
8, 40224, Note_on_c, 9, 35, 109
8, 40240, Note_on_c, 9, 35, 0
8, 40320, Note_on_c, 9, 51, 89
8, 40336, Note_on_c, 9, 51, 0
8, 40512, Note_on_c, 9, 40, 111
8, 40512, Note_on_c, 9, 42, 89
8, 40512, Note_on_c, 9, 51, 89
8, 40528, Note_on_c, 9, 51, 0
8, 40528, Note_on_c, 9, 42, 0
8, 40528, Note_on_c, 9, 40, 0
8, 40704, Note_on_c, 9, 35, 108
8, 40704, Note_on_c, 9, 51, 89
8, 40720, Note_on_c, 9, 51, 0
8, 40720, Note_on_c, 9, 35, 0
8, 40896, Note_on_c, 9, 40, 108
8, 40896, Note_on_c, 9, 42, 89
8, 40896, Note_on_c, 9, 51, 89
8, 40912, Note_on_c, 9, 51, 0
8, 40912, Note_on_c, 9, 42, 0
8, 40912, Note_on_c, 9, 40, 0
8, 40992, Note_on_c, 9, 35, 111
8, 41008, Note_on_c, 9, 35, 0
8, 41088, Note_on_c, 9, 51, 88
8, 41104, Note_on_c, 9, 51, 0
8, 41184, Note_on_c, 9, 51, 69
8, 41200, Note_on_c, 9, 51, 0
8, 41280, Note_on_c, 9, 40, 108
8, 41280, Note_on_c, 9, 42, 91
8, 41280, Note_on_c, 9, 51, 88
8, 41296, Note_on_c, 9, 51, 0
8, 41296, Note_on_c, 9, 42, 0
8, 41296, Note_on_c, 9, 40, 0
8, 41472, Note_on_c, 9, 35, 111
8, 41472, Note_on_c, 9, 51, 111
8, 41488, Note_on_c, 9, 51, 0
8, 41488, Note_on_c, 9, 35, 0
8, 41664, Note_on_c, 9, 40, 111
8, 41664, Note_on_c, 9, 42, 89
8, 41664, Note_on_c, 9, 51, 89
8, 41680, Note_on_c, 9, 51, 0
8, 41680, Note_on_c, 9, 42, 0
8, 41680, Note_on_c, 9, 40, 0
8, 41760, Note_on_c, 9, 35, 111
8, 41776, Note_on_c, 9, 35, 0
8, 41856, Note_on_c, 9, 51, 89
8, 41872, Note_on_c, 9, 51, 0
8, 42000, Note_on_c, 9, 40, 68
8, 42016, Note_on_c, 9, 40, 0
8, 42048, Note_on_c, 9, 47, 109
8, 42064, Note_on_c, 9, 47, 0
8, 42096, Note_on_c, 9, 47, 67
8, 42112, Note_on_c, 9, 47, 0
8, 42144, Note_on_c, 9, 35, 88
8, 42160, Note_on_c, 9, 35, 0
8, 42192, Note_on_c, 9, 45, 69
8, 42208, Note_on_c, 9, 45, 0
8, 42235, Note_on_c, 9, 57, 100
8, 42239, Note_on_c, 9, 57, 0
8, 42240, Note_on_c, 9, 35, 109
8, 42240, Note_on_c, 9, 51, 109
8, 42256, Note_on_c, 9, 51, 0
8, 42256, Note_on_c, 9, 35, 0
8, 42432, Note_on_c, 9, 40, 111
8, 42432, Note_on_c, 9, 42, 89
8, 42432, Note_on_c, 9, 51, 91
8, 42448, Note_on_c, 9, 51, 0
8, 42448, Note_on_c, 9, 42, 0
8, 42448, Note_on_c, 9, 40, 0
8, 42528, Note_on_c, 9, 35, 109
8, 42544, Note_on_c, 9, 35, 0
8, 42624, Note_on_c, 9, 51, 89
8, 42640, Note_on_c, 9, 51, 0
8, 42816, Note_on_c, 9, 40, 108
8, 42816, Note_on_c, 9, 42, 91
8, 42816, Note_on_c, 9, 51, 91
8, 42832, Note_on_c, 9, 51, 0
8, 42832, Note_on_c, 9, 42, 0
8, 42832, Note_on_c, 9, 40, 0
8, 43008, Note_on_c, 9, 40, 111
8, 43024, Note_on_c, 9, 40, 0
8, 43056, Note_on_c, 9, 40, 72
8, 43072, Note_on_c, 9, 40, 0
8, 43104, Note_on_c, 9, 35, 88
8, 43120, Note_on_c, 9, 35, 0
8, 43152, Note_on_c, 9, 35, 89
8, 43168, Note_on_c, 9, 35, 0
8, 43200, Note_on_c, 9, 40, 111
8, 43216, Note_on_c, 9, 40, 0
8, 43248, Note_on_c, 9, 40, 91
8, 43264, Note_on_c, 9, 40, 0
8, 43296, Note_on_c, 9, 40, 67
8, 43312, Note_on_c, 9, 40, 0
8, 43344, Note_on_c, 9, 40, 73
8, 43360, Note_on_c, 9, 40, 0
8, 43392, Note_on_c, 9, 40, 37
8, 43408, Note_on_c, 9, 40, 0
8, 43440, Note_on_c, 9, 40, 72
8, 43456, Note_on_c, 9, 40, 0
8, 43488, Note_on_c, 9, 40, 109
8, 43504, Note_on_c, 9, 40, 0
8, 43584, Note_on_c, 9, 40, 110
8, 43600, Note_on_c, 9, 40, 0
8, 43632, Note_on_c, 9, 40, 91
8, 43648, Note_on_c, 9, 40, 0
8, 43680, Note_on_c, 9, 40, 111
8, 43696, Note_on_c, 9, 40, 0
8, 43771, Note_on_c, 9, 57, 101
8, 43775, Note_on_c, 9, 57, 0
8, 43776, Note_on_c, 9, 35, 108
8, 43776, Note_on_c, 9, 51, 109
8, 43792, Note_on_c, 9, 51, 0
8, 43792, Note_on_c, 9, 35, 0
8, 43872, Note_on_c, 9, 35, 90
8, 43888, Note_on_c, 9, 35, 0
8, 43968, Note_on_c, 9, 40, 108
8, 43968, Note_on_c, 9, 42, 89
8, 43968, Note_on_c, 9, 51, 91
8, 43984, Note_on_c, 9, 51, 0
8, 43984, Note_on_c, 9, 42, 0
8, 43984, Note_on_c, 9, 40, 0
8, 44064, Note_on_c, 9, 35, 108
8, 44080, Note_on_c, 9, 35, 0
8, 44160, Note_on_c, 9, 51, 89
8, 44176, Note_on_c, 9, 51, 0
8, 44352, Note_on_c, 9, 40, 109
8, 44352, Note_on_c, 9, 42, 89
8, 44352, Note_on_c, 9, 51, 91
8, 44368, Note_on_c, 9, 51, 0
8, 44368, Note_on_c, 9, 42, 0
8, 44368, Note_on_c, 9, 40, 0
8, 44544, Note_on_c, 9, 35, 108
8, 44544, Note_on_c, 9, 51, 111
8, 44560, Note_on_c, 9, 51, 0
8, 44560, Note_on_c, 9, 35, 0
8, 44736, Note_on_c, 9, 40, 110
8, 44736, Note_on_c, 9, 42, 91
8, 44736, Note_on_c, 9, 51, 89
8, 44752, Note_on_c, 9, 51, 0
8, 44752, Note_on_c, 9, 42, 0
8, 44752, Note_on_c, 9, 40, 0
8, 44832, Note_on_c, 9, 35, 110
8, 44848, Note_on_c, 9, 35, 0
8, 44928, Note_on_c, 9, 51, 89
8, 44944, Note_on_c, 9, 51, 0
8, 45120, Note_on_c, 9, 40, 111
8, 45120, Note_on_c, 9, 42, 90
8, 45120, Note_on_c, 9, 51, 88
8, 45136, Note_on_c, 9, 51, 0
8, 45136, Note_on_c, 9, 42, 0
8, 45136, Note_on_c, 9, 40, 0
8, 45216, Note_on_c, 9, 35, 89
8, 45232, Note_on_c, 9, 35, 0
8, 45312, Note_on_c, 9, 35, 111
8, 45312, Note_on_c, 9, 51, 109
8, 45328, Note_on_c, 9, 51, 0
8, 45328, Note_on_c, 9, 35, 0
8, 45504, Note_on_c, 9, 40, 110
8, 45504, Note_on_c, 9, 42, 89
8, 45504, Note_on_c, 9, 51, 91
8, 45520, Note_on_c, 9, 51, 0
8, 45520, Note_on_c, 9, 42, 0
8, 45520, Note_on_c, 9, 40, 0
8, 45600, Note_on_c, 9, 35, 110
8, 45616, Note_on_c, 9, 35, 0
8, 45696, Note_on_c, 9, 51, 89
8, 45712, Note_on_c, 9, 51, 0
8, 45792, Note_on_c, 9, 35, 90
8, 45808, Note_on_c, 9, 35, 0
8, 45888, Note_on_c, 9, 40, 109
8, 45904, Note_on_c, 9, 40, 0
8, 45904, Note_on_c, 9, 40, 89
8, 45920, Note_on_c, 9, 40, 0
8, 45984, Note_on_c, 9, 40, 91
8, 46000, Note_on_c, 9, 40, 0
8, 46032, Note_on_c, 9, 40, 91
8, 46048, Note_on_c, 9, 40, 0
8, 46075, Note_on_c, 9, 57, 101
8, 46079, Note_on_c, 9, 57, 0
8, 46080, Note_on_c, 9, 40, 111
8, 46096, Note_on_c, 9, 40, 0
8, 46096, Note_on_c, 9, 40, 89
8, 46112, Note_on_c, 9, 40, 0
8, 46176, Note_on_c, 9, 35, 91
8, 46192, Note_on_c, 9, 35, 0
8, 46272, Note_on_c, 9, 35, 91
8, 46288, Note_on_c, 9, 35, 0
8, 46320, Note_on_c, 9, 35, 90
8, 46336, Note_on_c, 9, 35, 0
8, 46368, Note_on_c, 9, 40, 110
8, 46384, Note_on_c, 9, 40, 0
8, 46384, Note_on_c, 9, 40, 89
8, 46400, Note_on_c, 9, 40, 0
8, 46464, Note_on_c, 9, 35, 90
8, 46480, Note_on_c, 9, 35, 0
8, 46560, Note_on_c, 9, 35, 90
8, 46576, Note_on_c, 9, 35, 0
8, 46608, Note_on_c, 9, 35, 91
8, 46624, Note_on_c, 9, 35, 0
8, 46656, Note_on_c, 9, 47, 110
8, 46672, Note_on_c, 9, 47, 0
8, 46672, Note_on_c, 9, 47, 88
8, 46688, Note_on_c, 9, 47, 0
8, 46752, Note_on_c, 9, 35, 91
8, 46768, Note_on_c, 9, 35, 0
8, 46800, Note_on_c, 9, 35, 91
8, 46816, Note_on_c, 9, 35, 0
8, 46843, Note_on_c, 9, 57, 100
8, 46847, Note_on_c, 9, 57, 0
8, 46848, Note_on_c, 9, 35, 109
8, 46848, Note_on_c, 9, 51, 109
8, 46864, Note_on_c, 9, 51, 0
8, 46864, Note_on_c, 9, 35, 0
8, 46944, Note_on_c, 9, 35, 91
8, 46960, Note_on_c, 9, 35, 0
8, 46992, Note_on_c, 9, 40, 69
8, 47008, Note_on_c, 9, 40, 0
8, 47040, Note_on_c, 9, 40, 111
8, 47040, Note_on_c, 9, 42, 90
8, 47040, Note_on_c, 9, 51, 91
8, 47056, Note_on_c, 9, 51, 0
8, 47056, Note_on_c, 9, 42, 0
8, 47056, Note_on_c, 9, 40, 0
8, 47136, Note_on_c, 9, 35, 109
8, 47152, Note_on_c, 9, 35, 0
8, 47232, Note_on_c, 9, 51, 89
8, 47248, Note_on_c, 9, 51, 0
8, 47328, Note_on_c, 9, 35, 110
8, 47344, Note_on_c, 9, 35, 0
8, 47424, Note_on_c, 9, 40, 111
8, 47424, Note_on_c, 9, 42, 88
8, 47424, Note_on_c, 9, 51, 91
8, 47440, Note_on_c, 9, 51, 0
8, 47440, Note_on_c, 9, 42, 0
8, 47440, Note_on_c, 9, 40, 0
8, 47616, Note_on_c, 9, 35, 111
8, 47616, Note_on_c, 9, 51, 111
8, 47632, Note_on_c, 9, 51, 0
8, 47632, Note_on_c, 9, 35, 0
8, 47808, Note_on_c, 9, 40, 108
8, 47808, Note_on_c, 9, 42, 88
8, 47808, Note_on_c, 9, 51, 89
8, 47824, Note_on_c, 9, 51, 0
8, 47824, Note_on_c, 9, 42, 0
8, 47824, Note_on_c, 9, 40, 0
8, 47904, Note_on_c, 9, 35, 108
8, 47920, Note_on_c, 9, 35, 0
8, 48000, Note_on_c, 9, 51, 89
8, 48016, Note_on_c, 9, 51, 0
8, 48192, Note_on_c, 9, 40, 110
8, 48192, Note_on_c, 9, 42, 89
8, 48192, Note_on_c, 9, 51, 88
8, 48208, Note_on_c, 9, 51, 0
8, 48208, Note_on_c, 9, 42, 0
8, 48208, Note_on_c, 9, 40, 0
8, 48384, Note_on_c, 9, 35, 110
8, 48384, Note_on_c, 9, 51, 109
8, 48400, Note_on_c, 9, 51, 0
8, 48400, Note_on_c, 9, 35, 0
8, 48480, Note_on_c, 9, 35, 91
8, 48496, Note_on_c, 9, 35, 0
8, 48528, Note_on_c, 9, 40, 73
8, 48544, Note_on_c, 9, 40, 0
8, 48576, Note_on_c, 9, 40, 110
8, 48576, Note_on_c, 9, 42, 88
8, 48576, Note_on_c, 9, 51, 91
8, 48592, Note_on_c, 9, 51, 0
8, 48592, Note_on_c, 9, 42, 0
8, 48592, Note_on_c, 9, 40, 0
8, 48672, Note_on_c, 9, 35, 109
8, 48688, Note_on_c, 9, 35, 0
8, 48768, Note_on_c, 9, 51, 89
8, 48784, Note_on_c, 9, 51, 0
8, 48864, Note_on_c, 9, 35, 111
8, 48880, Note_on_c, 9, 35, 0
8, 48960, Note_on_c, 9, 40, 109
8, 48960, Note_on_c, 9, 42, 88
8, 48960, Note_on_c, 9, 51, 91
8, 48976, Note_on_c, 9, 51, 0
8, 48976, Note_on_c, 9, 42, 0
8, 48976, Note_on_c, 9, 40, 0
8, 49152, Note_on_c, 9, 35, 108
8, 49152, Note_on_c, 9, 40, 32
8, 49168, Note_on_c, 9, 40, 0
8, 49168, Note_on_c, 9, 35, 0
8, 49200, Note_on_c, 9, 40, 32
8, 49216, Note_on_c, 9, 40, 0
8, 49248, Note_on_c, 9, 35, 90
8, 49248, Note_on_c, 9, 40, 111
8, 49264, Note_on_c, 9, 40, 0
8, 49264, Note_on_c, 9, 35, 0
8, 49344, Note_on_c, 9, 47, 111
8, 49360, Note_on_c, 9, 47, 0
8, 49392, Note_on_c, 9, 47, 88
8, 49408, Note_on_c, 9, 47, 0
8, 49440, Note_on_c, 9, 35, 109
8, 49440, Note_on_c, 9, 47, 69
8, 49456, Note_on_c, 9, 47, 0
8, 49456, Note_on_c, 9, 35, 0
8, 49536, Note_on_c, 9, 40, 35
8, 49552, Note_on_c, 9, 40, 0
8, 49584, Note_on_c, 9, 40, 37
8, 49600, Note_on_c, 9, 40, 0
8, 49632, Note_on_c, 9, 35, 108
8, 49632, Note_on_c, 9, 45, 109
8, 49648, Note_on_c, 9, 45, 0
8, 49648, Note_on_c, 9, 35, 0
8, 49728, Note_on_c, 9, 45, 111
8, 49744, Note_on_c, 9, 45, 0
8, 49776, Note_on_c, 9, 41, 88
8, 49792, Note_on_c, 9, 41, 0
8, 49824, Note_on_c, 9, 35, 90
8, 49824, Note_on_c, 9, 41, 91
8, 49840, Note_on_c, 9, 41, 0
8, 49840, Note_on_c, 9, 35, 0
8, 49915, Note_on_c, 9, 57, 100
8, 49919, Note_on_c, 9, 57, 0
8, 49920, Note_on_c, 9, 35, 110
8, 49920, Note_on_c, 9, 51, 111
8, 49936, Note_on_c, 9, 51, 0
8, 49936, Note_on_c, 9, 35, 0
8, 50112, Note_on_c, 9, 40, 109
8, 50112, Note_on_c, 9, 42, 91
8, 50112, Note_on_c, 9, 51, 90
8, 50128, Note_on_c, 9, 51, 0
8, 50128, Note_on_c, 9, 42, 0
8, 50128, Note_on_c, 9, 40, 0
8, 50208, Note_on_c, 9, 35, 111
8, 50224, Note_on_c, 9, 35, 0
8, 50304, Note_on_c, 9, 51, 89
8, 50320, Note_on_c, 9, 51, 0
8, 50496, Note_on_c, 9, 40, 108
8, 50496, Note_on_c, 9, 42, 88
8, 50496, Note_on_c, 9, 51, 91
8, 50512, Note_on_c, 9, 51, 0
8, 50512, Note_on_c, 9, 42, 0
8, 50512, Note_on_c, 9, 40, 0
8, 50592, Note_on_c, 9, 51, 73
8, 50608, Note_on_c, 9, 51, 0
8, 50688, Note_on_c, 9, 35, 108
8, 50688, Note_on_c, 9, 51, 110
8, 50704, Note_on_c, 9, 51, 0
8, 50704, Note_on_c, 9, 35, 0
8, 50784, Note_on_c, 9, 35, 90
8, 50784, Note_on_c, 9, 51, 70
8, 50800, Note_on_c, 9, 51, 0
8, 50800, Note_on_c, 9, 35, 0
8, 50880, Note_on_c, 9, 40, 109
8, 50880, Note_on_c, 9, 42, 88
8, 50880, Note_on_c, 9, 51, 89
8, 50896, Note_on_c, 9, 51, 0
8, 50896, Note_on_c, 9, 42, 0
8, 50896, Note_on_c, 9, 40, 0
8, 50976, Note_on_c, 9, 35, 108
8, 50992, Note_on_c, 9, 35, 0
8, 51072, Note_on_c, 9, 51, 88
8, 51088, Note_on_c, 9, 51, 0
8, 51264, Note_on_c, 9, 40, 109
8, 51264, Note_on_c, 9, 42, 89
8, 51264, Note_on_c, 9, 51, 89
8, 51280, Note_on_c, 9, 51, 0
8, 51280, Note_on_c, 9, 42, 0
8, 51280, Note_on_c, 9, 40, 0
8, 51360, Note_on_c, 9, 35, 88
8, 51376, Note_on_c, 9, 35, 0
8, 51456, Note_on_c, 9, 35, 109
8, 51456, Note_on_c, 9, 51, 111
8, 51472, Note_on_c, 9, 51, 0
8, 51472, Note_on_c, 9, 35, 0
8, 51648, Note_on_c, 9, 40, 109
8, 51648, Note_on_c, 9, 42, 91
8, 51648, Note_on_c, 9, 51, 90
8, 51664, Note_on_c, 9, 51, 0
8, 51664, Note_on_c, 9, 42, 0
8, 51664, Note_on_c, 9, 40, 0
8, 51744, Note_on_c, 9, 35, 111
8, 51760, Note_on_c, 9, 35, 0
8, 51840, Note_on_c, 9, 35, 91
8, 51840, Note_on_c, 9, 51, 89
8, 51856, Note_on_c, 9, 51, 0
8, 51856, Note_on_c, 9, 35, 0
8, 52032, Note_on_c, 9, 40, 108
8, 52032, Note_on_c, 9, 42, 88
8, 52032, Note_on_c, 9, 51, 91
8, 52048, Note_on_c, 9, 51, 0
8, 52048, Note_on_c, 9, 42, 0
8, 52048, Note_on_c, 9, 40, 0
8, 52128, Note_on_c, 9, 51, 73
8, 52144, Note_on_c, 9, 51, 0
8, 52224, Note_on_c, 9, 40, 109
8, 52240, Note_on_c, 9, 40, 0
8, 52272, Note_on_c, 9, 40, 88
8, 52288, Note_on_c, 9, 40, 0
8, 52320, Note_on_c, 9, 35, 91
8, 52336, Note_on_c, 9, 35, 0
8, 52416, Note_on_c, 9, 35, 91
8, 52432, Note_on_c, 9, 35, 0
8, 52464, Note_on_c, 9, 40, 72
8, 52480, Note_on_c, 9, 40, 0
8, 52512, Note_on_c, 9, 40, 108
8, 52528, Note_on_c, 9, 40, 0
8, 52528, Note_on_c, 9, 40, 89
8, 52544, Note_on_c, 9, 40, 0
8, 52608, Note_on_c, 9, 35, 89
8, 52624, Note_on_c, 9, 35, 0
8, 52656, Note_on_c, 9, 40, 72
8, 52672, Note_on_c, 9, 40, 0
8, 52704, Note_on_c, 9, 35, 88
8, 52720, Note_on_c, 9, 35, 0
8, 52752, Note_on_c, 9, 35, 89
8, 52768, Note_on_c, 9, 35, 0
8, 52800, Note_on_c, 9, 40, 111
8, 52816, Note_on_c, 9, 40, 0
8, 52848, Note_on_c, 9, 40, 72
8, 52864, Note_on_c, 9, 40, 0
8, 52896, Note_on_c, 9, 35, 89
8, 52912, Note_on_c, 9, 35, 0
8, 52944, Note_on_c, 9, 35, 89
8, 52960, Note_on_c, 9, 35, 0
8, 52987, Note_on_c, 9, 57, 99
8, 52991, Note_on_c, 9, 57, 0
8, 52992, Note_on_c, 9, 35, 108
8, 52992, Note_on_c, 9, 51, 108
8, 53008, Note_on_c, 9, 51, 0
8, 53008, Note_on_c, 9, 35, 0
8, 53088, Note_on_c, 9, 35, 91
8, 53104, Note_on_c, 9, 35, 0
8, 53184, Note_on_c, 9, 40, 110
8, 53184, Note_on_c, 9, 42, 89
8, 53184, Note_on_c, 9, 51, 91
8, 53200, Note_on_c, 9, 51, 0
8, 53200, Note_on_c, 9, 42, 0
8, 53200, Note_on_c, 9, 40, 0
8, 53280, Note_on_c, 9, 35, 109
8, 53296, Note_on_c, 9, 35, 0
8, 53376, Note_on_c, 9, 35, 88
8, 53392, Note_on_c, 9, 35, 0
8, 53472, Note_on_c, 9, 35, 88
8, 53488, Note_on_c, 9, 35, 0
8, 53520, Note_on_c, 9, 35, 88
8, 53536, Note_on_c, 9, 35, 0
8, 53568, Note_on_c, 9, 40, 109
8, 53584, Note_on_c, 9, 40, 0
8, 53584, Note_on_c, 9, 47, 89
8, 53600, Note_on_c, 9, 47, 0
8, 53664, Note_on_c, 9, 35, 88
8, 53680, Note_on_c, 9, 35, 0
8, 53712, Note_on_c, 9, 35, 91
8, 53728, Note_on_c, 9, 35, 0
8, 53755, Note_on_c, 9, 57, 100
8, 53759, Note_on_c, 9, 57, 0
8, 53760, Note_on_c, 9, 35, 109
8, 53760, Note_on_c, 9, 51, 91
8, 53776, Note_on_c, 9, 51, 0
8, 53776, Note_on_c, 9, 35, 0
8, 53856, Note_on_c, 9, 35, 88
8, 53872, Note_on_c, 9, 35, 0
8, 53952, Note_on_c, 9, 40, 111
8, 53952, Note_on_c, 9, 42, 91
8, 53952, Note_on_c, 9, 51, 89
8, 53968, Note_on_c, 9, 51, 0
8, 53968, Note_on_c, 9, 42, 0
8, 53968, Note_on_c, 9, 40, 0
8, 54048, Note_on_c, 9, 35, 109
8, 54064, Note_on_c, 9, 35, 0
8, 54144, Note_on_c, 9, 51, 88
8, 54160, Note_on_c, 9, 51, 0
8, 54336, Note_on_c, 9, 40, 111
8, 54336, Note_on_c, 9, 42, 88
8, 54336, Note_on_c, 9, 51, 88
8, 54352, Note_on_c, 9, 51, 0
8, 54352, Note_on_c, 9, 42, 0
8, 54352, Note_on_c, 9, 40, 0
8, 54432, Note_on_c, 9, 35, 91
8, 54432, Note_on_c, 9, 51, 69
8, 54448, Note_on_c, 9, 51, 0
8, 54448, Note_on_c, 9, 35, 0
8, 54528, Note_on_c, 9, 35, 108
8, 54528, Note_on_c, 9, 51, 108
8, 54544, Note_on_c, 9, 51, 0
8, 54544, Note_on_c, 9, 35, 0
8, 54624, Note_on_c, 9, 35, 90
8, 54640, Note_on_c, 9, 35, 0
8, 54720, Note_on_c, 9, 40, 110
8, 54720, Note_on_c, 9, 42, 89
8, 54720, Note_on_c, 9, 51, 90
8, 54736, Note_on_c, 9, 51, 0
8, 54736, Note_on_c, 9, 42, 0
8, 54736, Note_on_c, 9, 40, 0
8, 54816, Note_on_c, 9, 35, 110
8, 54832, Note_on_c, 9, 35, 0
8, 54912, Note_on_c, 9, 51, 89
8, 54928, Note_on_c, 9, 51, 0
8, 55104, Note_on_c, 9, 40, 109
8, 55104, Note_on_c, 9, 42, 89
8, 55104, Note_on_c, 9, 51, 91
8, 55120, Note_on_c, 9, 51, 0
8, 55120, Note_on_c, 9, 42, 0
8, 55120, Note_on_c, 9, 40, 0
8, 55200, Note_on_c, 9, 35, 90
8, 55216, Note_on_c, 9, 35, 0
8, 55296, Note_on_c, 9, 35, 109
8, 55296, Note_on_c, 9, 51, 91
8, 55312, Note_on_c, 9, 51, 0
8, 55312, Note_on_c, 9, 35, 0
8, 55392, Note_on_c, 9, 35, 90
8, 55408, Note_on_c, 9, 35, 0
8, 55488, Note_on_c, 9, 40, 110
8, 55488, Note_on_c, 9, 42, 90
8, 55488, Note_on_c, 9, 51, 89
8, 55504, Note_on_c, 9, 51, 0
8, 55504, Note_on_c, 9, 42, 0
8, 55504, Note_on_c, 9, 40, 0
8, 55584, Note_on_c, 9, 35, 109
8, 55600, Note_on_c, 9, 35, 0
8, 55680, Note_on_c, 9, 51, 88
8, 55696, Note_on_c, 9, 51, 0
8, 55728, Note_on_c, 9, 40, 36
8, 55744, Note_on_c, 9, 40, 0
8, 55776, Note_on_c, 9, 35, 110
8, 55776, Note_on_c, 9, 40, 109
8, 55792, Note_on_c, 9, 40, 0
8, 55792, Note_on_c, 9, 35, 0
8, 55872, Note_on_c, 9, 40, 33
8, 55888, Note_on_c, 9, 40, 0
8, 55920, Note_on_c, 9, 40, 35
8, 55936, Note_on_c, 9, 40, 0
8, 55968, Note_on_c, 9, 40, 109
8, 55984, Note_on_c, 9, 40, 0
8, 56016, Note_on_c, 9, 40, 91
8, 56032, Note_on_c, 9, 40, 0
8, 56059, Note_on_c, 9, 57, 100
8, 56063, Note_on_c, 9, 57, 0
8, 56064, Note_on_c, 9, 35, 111
8, 56064, Note_on_c, 9, 51, 108
8, 56080, Note_on_c, 9, 51, 0
8, 56080, Note_on_c, 9, 35, 0
8, 56256, Note_on_c, 9, 40, 111
8, 56256, Note_on_c, 9, 42, 89
8, 56256, Note_on_c, 9, 51, 90
8, 56272, Note_on_c, 9, 51, 0
8, 56272, Note_on_c, 9, 42, 0
8, 56272, Note_on_c, 9, 40, 0
8, 56352, Note_on_c, 9, 35, 111
8, 56368, Note_on_c, 9, 35, 0
8, 56448, Note_on_c, 9, 51, 89
8, 56464, Note_on_c, 9, 51, 0
8, 56544, Note_on_c, 9, 35, 110
8, 56560, Note_on_c, 9, 35, 0
8, 56640, Note_on_c, 9, 40, 111
8, 56640, Note_on_c, 9, 42, 89
8, 56640, Note_on_c, 9, 51, 91
8, 56656, Note_on_c, 9, 51, 0
8, 56656, Note_on_c, 9, 42, 0
8, 56656, Note_on_c, 9, 40, 0
8, 56832, Note_on_c, 9, 35, 109
8, 56832, Note_on_c, 9, 51, 91
8, 56848, Note_on_c, 9, 51, 0
8, 56848, Note_on_c, 9, 35, 0
8, 57024, Note_on_c, 9, 40, 109
8, 57024, Note_on_c, 9, 42, 90
8, 57024, Note_on_c, 9, 51, 89
8, 57040, Note_on_c, 9, 51, 0
8, 57040, Note_on_c, 9, 42, 0
8, 57040, Note_on_c, 9, 40, 0
8, 57120, Note_on_c, 9, 35, 109
8, 57136, Note_on_c, 9, 35, 0
8, 57216, Note_on_c, 9, 51, 88
8, 57232, Note_on_c, 9, 51, 0
8, 57312, Note_on_c, 9, 35, 111
8, 57328, Note_on_c, 9, 35, 0
8, 57408, Note_on_c, 9, 40, 108
8, 57408, Note_on_c, 9, 42, 89
8, 57408, Note_on_c, 9, 51, 88
8, 57424, Note_on_c, 9, 51, 0
8, 57424, Note_on_c, 9, 42, 0
8, 57424, Note_on_c, 9, 40, 0
8, 57504, Note_on_c, 9, 51, 69
8, 57520, Note_on_c, 9, 51, 0
8, 57600, Note_on_c, 9, 35, 111
8, 57600, Note_on_c, 9, 51, 109
8, 57616, Note_on_c, 9, 51, 0
8, 57616, Note_on_c, 9, 35, 0
8, 57792, Note_on_c, 9, 40, 110
8, 57792, Note_on_c, 9, 42, 91
8, 57792, Note_on_c, 9, 51, 90
8, 57808, Note_on_c, 9, 51, 0
8, 57808, Note_on_c, 9, 42, 0
8, 57808, Note_on_c, 9, 40, 0
8, 57888, Note_on_c, 9, 35, 109
8, 57904, Note_on_c, 9, 35, 0
8, 57984, Note_on_c, 9, 51, 88
8, 58000, Note_on_c, 9, 51, 0
8, 58080, Note_on_c, 9, 51, 70
8, 58096, Note_on_c, 9, 51, 0
8, 58176, Note_on_c, 9, 40, 109
8, 58176, Note_on_c, 9, 42, 91
8, 58176, Note_on_c, 9, 51, 90
8, 58192, Note_on_c, 9, 51, 0
8, 58192, Note_on_c, 9, 42, 0
8, 58192, Note_on_c, 9, 40, 0
8, 58368, Note_on_c, 9, 40, 109
8, 58384, Note_on_c, 9, 40, 0
8, 58384, Note_on_c, 9, 47, 88
8, 58400, Note_on_c, 9, 47, 0
8, 58464, Note_on_c, 9, 35, 111
8, 58480, Note_on_c, 9, 35, 0
8, 58560, Note_on_c, 9, 40, 37
8, 58576, Note_on_c, 9, 40, 0
8, 58608, Note_on_c, 9, 47, 69
8, 58624, Note_on_c, 9, 47, 0
8, 58656, Note_on_c, 9, 47, 110
8, 58672, Note_on_c, 9, 47, 0
8, 58752, Note_on_c, 9, 40, 34
8, 58768, Note_on_c, 9, 40, 0
8, 58848, Note_on_c, 9, 35, 109
8, 58864, Note_on_c, 9, 35, 0
8, 58944, Note_on_c, 9, 47, 111
8, 58960, Note_on_c, 9, 47, 0
8, 59040, Note_on_c, 9, 35, 90
8, 59056, Note_on_c, 9, 35, 0
8, 59131, Note_on_c, 9, 57, 101
8, 59135, Note_on_c, 9, 57, 0
8, 59136, Note_on_c, 9, 35, 111
8, 59136, Note_on_c, 9, 51, 109
8, 59152, Note_on_c, 9, 51, 0
8, 59152, Note_on_c, 9, 35, 0
8, 59328, Note_on_c, 9, 40, 111
8, 59328, Note_on_c, 9, 42, 88
8, 59328, Note_on_c, 9, 51, 90
8, 59344, Note_on_c, 9, 51, 0
8, 59344, Note_on_c, 9, 42, 0
8, 59344, Note_on_c, 9, 40, 0
8, 59424, Note_on_c, 9, 35, 111
8, 59440, Note_on_c, 9, 35, 0
8, 59520, Note_on_c, 9, 35, 89
8, 59520, Note_on_c, 9, 51, 88
8, 59536, Note_on_c, 9, 51, 0
8, 59536, Note_on_c, 9, 35, 0
8, 59616, Note_on_c, 9, 51, 70
8, 59632, Note_on_c, 9, 51, 0
8, 59712, Note_on_c, 9, 40, 108
8, 59712, Note_on_c, 9, 42, 89
8, 59712, Note_on_c, 9, 51, 90
8, 59728, Note_on_c, 9, 51, 0
8, 59728, Note_on_c, 9, 42, 0
8, 59728, Note_on_c, 9, 40, 0
8, 59904, Note_on_c, 9, 35, 110
8, 59904, Note_on_c, 9, 51, 110
8, 59920, Note_on_c, 9, 51, 0
8, 59920, Note_on_c, 9, 35, 0
8, 60000, Note_on_c, 9, 35, 89
8, 60016, Note_on_c, 9, 35, 0
8, 60096, Note_on_c, 9, 40, 108
8, 60096, Note_on_c, 9, 42, 88
8, 60096, Note_on_c, 9, 51, 89
8, 60112, Note_on_c, 9, 51, 0
8, 60112, Note_on_c, 9, 42, 0
8, 60112, Note_on_c, 9, 40, 0
8, 60192, Note_on_c, 9, 35, 108
8, 60208, Note_on_c, 9, 35, 0
8, 60288, Note_on_c, 9, 51, 90
8, 60304, Note_on_c, 9, 51, 0
8, 60384, Note_on_c, 9, 35, 111
8, 60400, Note_on_c, 9, 35, 0
8, 60480, Note_on_c, 9, 40, 110
8, 60480, Note_on_c, 9, 42, 89
8, 60480, Note_on_c, 9, 51, 90
8, 60496, Note_on_c, 9, 51, 0
8, 60496, Note_on_c, 9, 42, 0
8, 60496, Note_on_c, 9, 40, 0
8, 60672, Note_on_c, 9, 35, 109
8, 60672, Note_on_c, 9, 51, 110
8, 60688, Note_on_c, 9, 51, 0
8, 60688, Note_on_c, 9, 35, 0
8, 60864, Note_on_c, 9, 40, 111
8, 60864, Note_on_c, 9, 42, 88
8, 60864, Note_on_c, 9, 51, 90
8, 60880, Note_on_c, 9, 51, 0
8, 60880, Note_on_c, 9, 42, 0
8, 60880, Note_on_c, 9, 40, 0
8, 60960, Note_on_c, 9, 35, 109
8, 60976, Note_on_c, 9, 35, 0
8, 61056, Note_on_c, 9, 35, 88
8, 61056, Note_on_c, 9, 51, 89
8, 61072, Note_on_c, 9, 51, 0
8, 61072, Note_on_c, 9, 35, 0
8, 61248, Note_on_c, 9, 40, 111
8, 61248, Note_on_c, 9, 42, 89
8, 61248, Note_on_c, 9, 51, 90
8, 61264, Note_on_c, 9, 51, 0
8, 61264, Note_on_c, 9, 42, 0
8, 61264, Note_on_c, 9, 40, 0
8, 61440, Note_on_c, 9, 35, 108
8, 61440, Note_on_c, 9, 40, 33
8, 61456, Note_on_c, 9, 40, 0
8, 61456, Note_on_c, 9, 35, 0
8, 61488, Note_on_c, 9, 40, 33
8, 61504, Note_on_c, 9, 40, 0
8, 61536, Note_on_c, 9, 35, 89
8, 61536, Note_on_c, 9, 40, 109
8, 61552, Note_on_c, 9, 40, 0
8, 61552, Note_on_c, 9, 35, 0
8, 61632, Note_on_c, 9, 47, 111
8, 61648, Note_on_c, 9, 47, 0
8, 61680, Note_on_c, 9, 47, 88
8, 61696, Note_on_c, 9, 47, 0
8, 61728, Note_on_c, 9, 35, 109
8, 61728, Note_on_c, 9, 47, 71
8, 61744, Note_on_c, 9, 47, 0
8, 61744, Note_on_c, 9, 35, 0
8, 61824, Note_on_c, 9, 40, 37
8, 61840, Note_on_c, 9, 40, 0
8, 61872, Note_on_c, 9, 40, 38
8, 61888, Note_on_c, 9, 40, 0
8, 61920, Note_on_c, 9, 47, 110
8, 61936, Note_on_c, 9, 47, 0
8, 61968, Note_on_c, 9, 45, 91
8, 61984, Note_on_c, 9, 45, 0
8, 62016, Note_on_c, 9, 41, 111
8, 62032, Note_on_c, 9, 41, 0
8, 62112, Note_on_c, 9, 41, 89
8, 62128, Note_on_c, 9, 41, 0
8, 62203, Note_on_c, 9, 57, 98
8, 62207, Note_on_c, 9, 57, 0
8, 62208, Note_on_c, 9, 35, 108
8, 62208, Note_on_c, 9, 51, 110
8, 62224, Note_on_c, 9, 51, 0
8, 62224, Note_on_c, 9, 35, 0
8, 62400, Note_on_c, 9, 40, 110
8, 62400, Note_on_c, 9, 42, 88
8, 62400, Note_on_c, 9, 51, 90
8, 62416, Note_on_c, 9, 51, 0
8, 62416, Note_on_c, 9, 42, 0
8, 62416, Note_on_c, 9, 40, 0
8, 62496, Note_on_c, 9, 35, 111
8, 62512, Note_on_c, 9, 35, 0
8, 62592, Note_on_c, 9, 51, 89
8, 62608, Note_on_c, 9, 51, 0
8, 62784, Note_on_c, 9, 40, 109
8, 62784, Note_on_c, 9, 42, 88
8, 62784, Note_on_c, 9, 51, 90
8, 62800, Note_on_c, 9, 51, 0
8, 62800, Note_on_c, 9, 42, 0
8, 62800, Note_on_c, 9, 40, 0
8, 62976, Note_on_c, 9, 35, 108
8, 62976, Note_on_c, 9, 51, 108
8, 62992, Note_on_c, 9, 51, 0
8, 62992, Note_on_c, 9, 35, 0
8, 63168, Note_on_c, 9, 40, 110
8, 63168, Note_on_c, 9, 42, 91
8, 63168, Note_on_c, 9, 51, 90
8, 63184, Note_on_c, 9, 51, 0
8, 63184, Note_on_c, 9, 42, 0
8, 63184, Note_on_c, 9, 40, 0
8, 63264, Note_on_c, 9, 35, 108
8, 63280, Note_on_c, 9, 35, 0
8, 63360, Note_on_c, 9, 40, 36
8, 63376, Note_on_c, 9, 40, 0
8, 63408, Note_on_c, 9, 40, 38
8, 63424, Note_on_c, 9, 40, 0
8, 63456, Note_on_c, 9, 40, 110
8, 63472, Note_on_c, 9, 40, 0
8, 63504, Note_on_c, 9, 47, 91
8, 63520, Note_on_c, 9, 47, 0
8, 63552, Note_on_c, 9, 47, 108
8, 63568, Note_on_c, 9, 47, 0
8, 63648, Note_on_c, 9, 45, 89
8, 63664, Note_on_c, 9, 45, 0
8, 63739, Note_on_c, 9, 57, 100
8, 63743, Note_on_c, 9, 57, 0
8, 63744, Note_on_c, 9, 35, 108
8, 63744, Note_on_c, 9, 51, 108
8, 63760, Note_on_c, 9, 51, 0
8, 63760, Note_on_c, 9, 35, 0
8, 63936, Note_on_c, 9, 40, 110
8, 63936, Note_on_c, 9, 46, 90
8, 63936, Note_on_c, 9, 51, 91
8, 63952, Note_on_c, 9, 51, 0
8, 63952, Note_on_c, 9, 46, 0
8, 63952, Note_on_c, 9, 40, 0
8, 64032, Note_on_c, 9, 35, 108
8, 64048, Note_on_c, 9, 35, 0
8, 64128, Note_on_c, 9, 51, 90
8, 64144, Note_on_c, 9, 51, 0
8, 64320, Note_on_c, 9, 40, 110
8, 64320, Note_on_c, 9, 42, 88
8, 64320, Note_on_c, 9, 51, 91
8, 64336, Note_on_c, 9, 51, 0
8, 64336, Note_on_c, 9, 42, 0
8, 64336, Note_on_c, 9, 40, 0
8, 64416, Note_on_c, 9, 35, 89
8, 64432, Note_on_c, 9, 35, 0
8, 64512, Note_on_c, 9, 35, 111
8, 64512, Note_on_c, 9, 51, 89
8, 64528, Note_on_c, 9, 51, 0
8, 64528, Note_on_c, 9, 35, 0
8, 64704, Note_on_c, 9, 40, 109
8, 64704, Note_on_c, 9, 42, 91
8, 64704, Note_on_c, 9, 51, 91
8, 64720, Note_on_c, 9, 51, 0
8, 64720, Note_on_c, 9, 42, 0
8, 64720, Note_on_c, 9, 40, 0
8, 64800, Note_on_c, 9, 35, 110
8, 64816, Note_on_c, 9, 35, 0
8, 64896, Note_on_c, 9, 51, 89
8, 64912, Note_on_c, 9, 51, 0
8, 65088, Note_on_c, 9, 40, 111
8, 65088, Note_on_c, 9, 42, 88
8, 65088, Note_on_c, 9, 51, 91
8, 65104, Note_on_c, 9, 51, 0
8, 65104, Note_on_c, 9, 42, 0
8, 65104, Note_on_c, 9, 40, 0
8, 65184, Note_on_c, 9, 51, 72
8, 65200, Note_on_c, 9, 51, 0
8, 65280, Note_on_c, 9, 35, 109
8, 65280, Note_on_c, 9, 51, 108
8, 65296, Note_on_c, 9, 51, 0
8, 65296, Note_on_c, 9, 35, 0
8, 65472, Note_on_c, 9, 40, 109
8, 65472, Note_on_c, 9, 46, 90
8, 65472, Note_on_c, 9, 51, 91
8, 65488, Note_on_c, 9, 51, 0
8, 65488, Note_on_c, 9, 46, 0
8, 65488, Note_on_c, 9, 40, 0
8, 65568, Note_on_c, 9, 35, 110
8, 65584, Note_on_c, 9, 35, 0
8, 65664, Note_on_c, 9, 51, 90
8, 65680, Note_on_c, 9, 51, 0
8, 65760, Note_on_c, 9, 35, 109
8, 65776, Note_on_c, 9, 35, 0
8, 65856, Note_on_c, 9, 40, 109
8, 65856, Note_on_c, 9, 42, 88
8, 65856, Note_on_c, 9, 51, 91
8, 65872, Note_on_c, 9, 51, 0
8, 65872, Note_on_c, 9, 42, 0
8, 65872, Note_on_c, 9, 40, 0
8, 65952, Note_on_c, 9, 35, 91
8, 65968, Note_on_c, 9, 35, 0
8, 66048, Note_on_c, 9, 35, 110
8, 66048, Note_on_c, 9, 51, 89
8, 66064, Note_on_c, 9, 51, 0
8, 66064, Note_on_c, 9, 35, 0
8, 66240, Note_on_c, 9, 40, 108
8, 66240, Note_on_c, 9, 42, 91
8, 66240, Note_on_c, 9, 51, 91
8, 66256, Note_on_c, 9, 51, 0
8, 66256, Note_on_c, 9, 42, 0
8, 66256, Note_on_c, 9, 40, 0
8, 66336, Note_on_c, 9, 35, 109
8, 66352, Note_on_c, 9, 35, 0
8, 66432, Note_on_c, 9, 51, 89
8, 66448, Note_on_c, 9, 51, 0
8, 66528, Note_on_c, 9, 35, 89
8, 66544, Note_on_c, 9, 35, 0
8, 66624, Note_on_c, 9, 40, 110
8, 66640, Note_on_c, 9, 40, 0
8, 66640, Note_on_c, 9, 40, 88
8, 66656, Note_on_c, 9, 40, 0
8, 66811, Note_on_c, 9, 57, 98
8, 66815, Note_on_c, 9, 57, 0
8, 66816, Note_on_c, 9, 35, 110
8, 66816, Note_on_c, 9, 51, 108
8, 66832, Note_on_c, 9, 51, 0
8, 66832, Note_on_c, 9, 35, 0
8, 67008, Note_on_c, 9, 40, 111
8, 67008, Note_on_c, 9, 46, 90
8, 67008, Note_on_c, 9, 51, 91
8, 67024, Note_on_c, 9, 51, 0
8, 67024, Note_on_c, 9, 46, 0
8, 67024, Note_on_c, 9, 40, 0
8, 67104, Note_on_c, 9, 35, 108
8, 67120, Note_on_c, 9, 35, 0
8, 67200, Note_on_c, 9, 51, 90
8, 67216, Note_on_c, 9, 51, 0
8, 67296, Note_on_c, 9, 35, 110
8, 67312, Note_on_c, 9, 35, 0
8, 67392, Note_on_c, 9, 40, 111
8, 67392, Note_on_c, 9, 42, 88
8, 67392, Note_on_c, 9, 51, 91
8, 67408, Note_on_c, 9, 51, 0
8, 67408, Note_on_c, 9, 42, 0
8, 67408, Note_on_c, 9, 40, 0
8, 67488, Note_on_c, 9, 35, 88
8, 67504, Note_on_c, 9, 35, 0
8, 67584, Note_on_c, 9, 35, 109
8, 67584, Note_on_c, 9, 40, 33
8, 67600, Note_on_c, 9, 40, 0
8, 67600, Note_on_c, 9, 35, 0
8, 67616, Note_on_c, 9, 40, 33
8, 67632, Note_on_c, 9, 40, 0
8, 67648, Note_on_c, 9, 40, 35
8, 67664, Note_on_c, 9, 40, 0
8, 67680, Note_on_c, 9, 40, 108
8, 67696, Note_on_c, 9, 40, 0
8, 67776, Note_on_c, 9, 40, 37
8, 67792, Note_on_c, 9, 40, 0
8, 67824, Note_on_c, 9, 40, 70
8, 67840, Note_on_c, 9, 40, 0
8, 67872, Note_on_c, 9, 35, 111
8, 67872, Note_on_c, 9, 40, 108
8, 67888, Note_on_c, 9, 40, 0
8, 67888, Note_on_c, 9, 35, 0
8, 67968, Note_on_c, 9, 35, 88
8, 67968, Note_on_c, 9, 40, 36
8, 67984, Note_on_c, 9, 40, 0
8, 67984, Note_on_c, 9, 35, 0
8, 68016, Note_on_c, 9, 40, 67
8, 68032, Note_on_c, 9, 40, 0
8, 68064, Note_on_c, 9, 40, 109
8, 68080, Note_on_c, 9, 40, 0
8, 68160, Note_on_c, 9, 40, 108
8, 68176, Note_on_c, 9, 40, 0
8, 68208, Note_on_c, 9, 40, 91
8, 68224, Note_on_c, 9, 40, 0
8, 68256, Note_on_c, 9, 35, 89
8, 68256, Note_on_c, 9, 40, 111
8, 68272, Note_on_c, 9, 40, 0
8, 68272, Note_on_c, 9, 35, 0
8, 68347, Note_on_c, 9, 57, 99
8, 68351, Note_on_c, 9, 57, 0
8, 68352, Note_on_c, 9, 35, 111
8, 68352, Note_on_c, 9, 51, 108
8, 68368, Note_on_c, 9, 51, 0
8, 68368, Note_on_c, 9, 35, 0
8, 68448, Note_on_c, 9, 35, 88
8, 68464, Note_on_c, 9, 35, 0
8, 68544, Note_on_c, 9, 40, 110
8, 68544, Note_on_c, 9, 42, 88
8, 68544, Note_on_c, 9, 51, 91
8, 68560, Note_on_c, 9, 51, 0
8, 68560, Note_on_c, 9, 42, 0
8, 68560, Note_on_c, 9, 40, 0
8, 68640, Note_on_c, 9, 35, 111
8, 68656, Note_on_c, 9, 35, 0
8, 68736, Note_on_c, 9, 51, 90
8, 68752, Note_on_c, 9, 51, 0
8, 68832, Note_on_c, 9, 35, 109
8, 68848, Note_on_c, 9, 35, 0
8, 68928, Note_on_c, 9, 40, 111
8, 68928, Note_on_c, 9, 42, 91
8, 68928, Note_on_c, 9, 51, 91
8, 68944, Note_on_c, 9, 51, 0
8, 68944, Note_on_c, 9, 42, 0
8, 68944, Note_on_c, 9, 40, 0
8, 69024, Note_on_c, 9, 35, 90
8, 69040, Note_on_c, 9, 35, 0
8, 69120, Note_on_c, 9, 35, 111
8, 69120, Note_on_c, 9, 51, 89
8, 69136, Note_on_c, 9, 51, 0
8, 69136, Note_on_c, 9, 35, 0
8, 69216, Note_on_c, 9, 35, 90
8, 69232, Note_on_c, 9, 35, 0
8, 69312, Note_on_c, 9, 40, 109
8, 69312, Note_on_c, 9, 46, 91
8, 69312, Note_on_c, 9, 51, 91
8, 69328, Note_on_c, 9, 51, 0
8, 69328, Note_on_c, 9, 46, 0
8, 69328, Note_on_c, 9, 40, 0
8, 69408, Note_on_c, 9, 35, 110
8, 69424, Note_on_c, 9, 35, 0
8, 69504, Note_on_c, 9, 51, 89
8, 69520, Note_on_c, 9, 51, 0
8, 69600, Note_on_c, 9, 35, 108
8, 69616, Note_on_c, 9, 35, 0
8, 69696, Note_on_c, 9, 40, 110
8, 69696, Note_on_c, 9, 42, 91
8, 69696, Note_on_c, 9, 51, 91
8, 69712, Note_on_c, 9, 51, 0
8, 69712, Note_on_c, 9, 42, 0
8, 69712, Note_on_c, 9, 40, 0
8, 69792, Note_on_c, 9, 51, 72
8, 69808, Note_on_c, 9, 51, 0
8, 69888, Note_on_c, 9, 35, 109
8, 69888, Note_on_c, 9, 51, 108
8, 69904, Note_on_c, 9, 51, 0
8, 69904, Note_on_c, 9, 35, 0
8, 70080, Note_on_c, 9, 40, 109
8, 70080, Note_on_c, 9, 42, 89
8, 70080, Note_on_c, 9, 51, 91
8, 70096, Note_on_c, 9, 51, 0
8, 70096, Note_on_c, 9, 42, 0
8, 70096, Note_on_c, 9, 40, 0
8, 70176, Note_on_c, 9, 35, 111
8, 70192, Note_on_c, 9, 35, 0
8, 70272, Note_on_c, 9, 35, 90
8, 70272, Note_on_c, 9, 40, 109
8, 70288, Note_on_c, 9, 40, 0
8, 70288, Note_on_c, 9, 35, 0
8, 70320, Note_on_c, 9, 40, 89
8, 70336, Note_on_c, 9, 40, 0
8, 70368, Note_on_c, 9, 40, 71
8, 70384, Note_on_c, 9, 40, 0
8, 70416, Note_on_c, 9, 40, 73
8, 70432, Note_on_c, 9, 40, 0
8, 70464, Note_on_c, 9, 40, 111
8, 70480, Note_on_c, 9, 40, 0
8, 70512, Note_on_c, 9, 40, 71
8, 70528, Note_on_c, 9, 40, 0
8, 70560, Note_on_c, 9, 40, 89
8, 70576, Note_on_c, 9, 40, 0
8, 70608, Note_on_c, 9, 40, 72
8, 70624, Note_on_c, 9, 40, 0
8, 70651, Note_on_c, 9, 57, 101
8, 70655, Note_on_c, 9, 57, 0
8, 70656, Note_on_c, 9, 35, 111
8, 70656, Note_on_c, 9, 40, 33
8, 70672, Note_on_c, 9, 40, 0
8, 70672, Note_on_c, 9, 35, 0
8, 70704, Note_on_c, 9, 40, 36
8, 70720, Note_on_c, 9, 40, 0
8, 70752, Note_on_c, 9, 40, 111
8, 70768, Note_on_c, 9, 40, 0
8, 70848, Note_on_c, 9, 47, 110
8, 70864, Note_on_c, 9, 47, 0
8, 70896, Note_on_c, 9, 45, 90
8, 70912, Note_on_c, 9, 45, 0
8, 70944, Note_on_c, 9, 35, 109
8, 70944, Note_on_c, 9, 45, 70
8, 70960, Note_on_c, 9, 45, 0
8, 70960, Note_on_c, 9, 35, 0
8, 71040, Note_on_c, 9, 40, 38
8, 71056, Note_on_c, 9, 40, 0
8, 71088, Note_on_c, 9, 40, 32
8, 71104, Note_on_c, 9, 40, 0
8, 71136, Note_on_c, 9, 45, 110
8, 71152, Note_on_c, 9, 45, 0
8, 71184, Note_on_c, 9, 45, 88
8, 71200, Note_on_c, 9, 45, 0
8, 71232, Note_on_c, 9, 45, 108
8, 71248, Note_on_c, 9, 45, 0
8, 71328, Note_on_c, 9, 45, 91
8, 71344, Note_on_c, 9, 45, 0
8, 71419, Note_on_c, 9, 57, 99
8, 71423, Note_on_c, 9, 57, 0
8, 71424, Note_on_c, 9, 35, 108
8, 71424, Note_on_c, 9, 51, 111
8, 71440, Note_on_c, 9, 51, 0
8, 71440, Note_on_c, 9, 35, 0
8, 71616, Note_on_c, 9, 40, 110
8, 71616, Note_on_c, 9, 46, 88
8, 71616, Note_on_c, 9, 51, 88
8, 71632, Note_on_c, 9, 51, 0
8, 71632, Note_on_c, 9, 46, 0
8, 71632, Note_on_c, 9, 40, 0
8, 71712, Note_on_c, 9, 35, 108
8, 71728, Note_on_c, 9, 35, 0
8, 71808, Note_on_c, 9, 51, 91
8, 71824, Note_on_c, 9, 51, 0
8, 72000, Note_on_c, 9, 40, 110
8, 72000, Note_on_c, 9, 42, 91
8, 72000, Note_on_c, 9, 51, 90
8, 72016, Note_on_c, 9, 51, 0
8, 72016, Note_on_c, 9, 42, 0
8, 72016, Note_on_c, 9, 40, 0
8, 72192, Note_on_c, 9, 35, 109
8, 72192, Note_on_c, 9, 51, 88
8, 72208, Note_on_c, 9, 51, 0
8, 72208, Note_on_c, 9, 35, 0
8, 72336, Note_on_c, 9, 40, 33
8, 72352, Note_on_c, 9, 40, 0
8, 72384, Note_on_c, 9, 40, 111
8, 72384, Note_on_c, 9, 42, 88
8, 72384, Note_on_c, 9, 51, 88
8, 72400, Note_on_c, 9, 51, 0
8, 72400, Note_on_c, 9, 42, 0
8, 72400, Note_on_c, 9, 40, 0
8, 72480, Note_on_c, 9, 35, 111
8, 72496, Note_on_c, 9, 35, 0
8, 72576, Note_on_c, 9, 51, 90
8, 72592, Note_on_c, 9, 51, 0
8, 72672, Note_on_c, 9, 35, 110
8, 72672, Note_on_c, 9, 51, 70
8, 72688, Note_on_c, 9, 51, 0
8, 72688, Note_on_c, 9, 35, 0
8, 72768, Note_on_c, 9, 40, 109
8, 72768, Note_on_c, 9, 42, 90
8, 72768, Note_on_c, 9, 51, 90
8, 72784, Note_on_c, 9, 51, 0
8, 72784, Note_on_c, 9, 42, 0
8, 72784, Note_on_c, 9, 40, 0
8, 72960, Note_on_c, 9, 35, 108
8, 72960, Note_on_c, 9, 51, 109
8, 72976, Note_on_c, 9, 51, 0
8, 72976, Note_on_c, 9, 35, 0
8, 73152, Note_on_c, 9, 40, 110
8, 73152, Note_on_c, 9, 42, 91
8, 73152, Note_on_c, 9, 51, 91
8, 73168, Note_on_c, 9, 51, 0
8, 73168, Note_on_c, 9, 42, 0
8, 73168, Note_on_c, 9, 40, 0
8, 73248, Note_on_c, 9, 35, 110
8, 73264, Note_on_c, 9, 35, 0
8, 73344, Note_on_c, 9, 51, 88
8, 73360, Note_on_c, 9, 51, 0
8, 73440, Note_on_c, 9, 35, 110
8, 73456, Note_on_c, 9, 35, 0
8, 73536, Note_on_c, 9, 40, 109
8, 73536, Note_on_c, 9, 42, 91
8, 73536, Note_on_c, 9, 51, 91
8, 73552, Note_on_c, 9, 51, 0
8, 73552, Note_on_c, 9, 42, 0
8, 73552, Note_on_c, 9, 40, 0
8, 73632, Note_on_c, 9, 35, 90
8, 73648, Note_on_c, 9, 35, 0
8, 73728, Note_on_c, 9, 40, 109
8, 73744, Note_on_c, 9, 40, 0
8, 73744, Note_on_c, 9, 47, 88
8, 73760, Note_on_c, 9, 47, 0
8, 73824, Note_on_c, 9, 35, 109
8, 73840, Note_on_c, 9, 35, 0
8, 73920, Note_on_c, 9, 40, 34
8, 73936, Note_on_c, 9, 40, 0
8, 73968, Note_on_c, 9, 47, 69
8, 73984, Note_on_c, 9, 47, 0
8, 74016, Note_on_c, 9, 47, 109
8, 74032, Note_on_c, 9, 47, 0
8, 74112, Note_on_c, 9, 40, 36
8, 74128, Note_on_c, 9, 40, 0
8, 74160, Note_on_c, 9, 47, 72
8, 74176, Note_on_c, 9, 47, 0
8, 74208, Note_on_c, 9, 35, 111
8, 74224, Note_on_c, 9, 35, 0
8, 74304, Note_on_c, 9, 47, 110
8, 74320, Note_on_c, 9, 47, 0
8, 74400, Note_on_c, 9, 35, 91
8, 74416, Note_on_c, 9, 35, 0
8, 74491, Note_on_c, 9, 57, 100
8, 74495, Note_on_c, 9, 57, 0
8, 74496, Note_on_c, 9, 35, 110
8, 74496, Note_on_c, 9, 51, 109
8, 74512, Note_on_c, 9, 51, 0
8, 74512, Note_on_c, 9, 35, 0
8, 74688, Note_on_c, 9, 40, 109
8, 74688, Note_on_c, 9, 42, 91
8, 74688, Note_on_c, 9, 51, 91
8, 74704, Note_on_c, 9, 51, 0
8, 74704, Note_on_c, 9, 42, 0
8, 74704, Note_on_c, 9, 40, 0
8, 74784, Note_on_c, 9, 35, 109
8, 74800, Note_on_c, 9, 35, 0
8, 74880, Note_on_c, 9, 51, 88
8, 74896, Note_on_c, 9, 51, 0
8, 75072, Note_on_c, 9, 40, 111
8, 75072, Note_on_c, 9, 42, 91
8, 75072, Note_on_c, 9, 51, 91
8, 75088, Note_on_c, 9, 51, 0
8, 75088, Note_on_c, 9, 42, 0
8, 75088, Note_on_c, 9, 40, 0
8, 75264, Note_on_c, 9, 35, 108
8, 75264, Note_on_c, 9, 51, 110
8, 75280, Note_on_c, 9, 51, 0
8, 75280, Note_on_c, 9, 35, 0
8, 75456, Note_on_c, 9, 40, 109
8, 75456, Note_on_c, 9, 42, 91
8, 75456, Note_on_c, 9, 51, 90
8, 75472, Note_on_c, 9, 51, 0
8, 75472, Note_on_c, 9, 42, 0
8, 75472, Note_on_c, 9, 40, 0
8, 75552, Note_on_c, 9, 35, 111
8, 75568, Note_on_c, 9, 35, 0
8, 75648, Note_on_c, 9, 51, 91
8, 75664, Note_on_c, 9, 51, 0
8, 75840, Note_on_c, 9, 40, 110
8, 75840, Note_on_c, 9, 42, 90
8, 75840, Note_on_c, 9, 51, 88
8, 75856, Note_on_c, 9, 51, 0
8, 75856, Note_on_c, 9, 42, 0
8, 75856, Note_on_c, 9, 40, 0
8, 76032, Note_on_c, 9, 35, 110
8, 76032, Note_on_c, 9, 51, 111
8, 76048, Note_on_c, 9, 51, 0
8, 76048, Note_on_c, 9, 35, 0
8, 76224, Note_on_c, 9, 40, 110
8, 76224, Note_on_c, 9, 42, 91
8, 76224, Note_on_c, 9, 51, 90
8, 76240, Note_on_c, 9, 51, 0
8, 76240, Note_on_c, 9, 42, 0
8, 76240, Note_on_c, 9, 40, 0
8, 76320, Note_on_c, 9, 35, 110
8, 76336, Note_on_c, 9, 35, 0
8, 76416, Note_on_c, 9, 51, 90
8, 76432, Note_on_c, 9, 51, 0
8, 76512, Note_on_c, 9, 35, 108
8, 76528, Note_on_c, 9, 35, 0
8, 76608, Note_on_c, 9, 40, 110
8, 76608, Note_on_c, 9, 42, 91
8, 76608, Note_on_c, 9, 51, 91
8, 76624, Note_on_c, 9, 51, 0
8, 76624, Note_on_c, 9, 42, 0
8, 76624, Note_on_c, 9, 40, 0
8, 76800, Note_on_c, 9, 35, 100
8, 76800, Note_on_c, 9, 40, 1
8, 76800, Note_on_c, 9, 49, 70
8, 76816, Note_on_c, 9, 40, 0
8, 76896, Note_on_c, 9, 40, 88
8, 76912, Note_on_c, 9, 40, 0
8, 76919, Note_on_c, 9, 49, 0
8, 76919, Note_on_c, 9, 35, 0
8, 76992, Note_on_c, 9, 40, 91
8, 77008, Note_on_c, 9, 40, 0
8, 77040, Note_on_c, 9, 40, 80
8, 77056, Note_on_c, 9, 40, 0
8, 77088, Note_on_c, 9, 40, 73
8, 77104, Note_on_c, 9, 40, 0
8, 77184, Note_on_c, 9, 40, 3
8, 77200, Note_on_c, 9, 40, 0
8, 77232, Note_on_c, 9, 40, 3
8, 77248, Note_on_c, 9, 40, 0
8, 77280, Note_on_c, 9, 40, 89
8, 77296, Note_on_c, 9, 40, 0
8, 77376, Note_on_c, 9, 40, 91
8, 77392, Note_on_c, 9, 40, 0
8, 77472, Note_on_c, 9, 40, 81
8, 77488, Note_on_c, 9, 40, 0
8, 77563, Note_on_c, 9, 57, 79
8, 77567, Note_on_c, 9, 57, 0
8, 77568, Note_on_c, 9, 35, 100
8, 77568, Note_on_c, 9, 40, 90
8, 77568, Note_on_c, 9, 57, 80
8, 77687, Note_on_c, 9, 57, 0
8, 77687, Note_on_c, 9, 40, 0
8, 77687, Note_on_c, 9, 35, 0
8, 77952, Note_on_c, 9, 35, 100
8, 77952, Note_on_c, 9, 40, 1
8, 77952, Note_on_c, 9, 49, 70
8, 77968, Note_on_c, 9, 40, 0
8, 78000, Note_on_c, 9, 40, 3
8, 78016, Note_on_c, 9, 40, 0
8, 78048, Note_on_c, 9, 40, 89
8, 78064, Note_on_c, 9, 40, 0
8, 78071, Note_on_c, 9, 49, 0
8, 78071, Note_on_c, 9, 35, 0
8, 78144, Note_on_c, 9, 40, 3
8, 78160, Note_on_c, 9, 40, 0
8, 78192, Note_on_c, 9, 40, 1
8, 78208, Note_on_c, 9, 40, 0
8, 78240, Note_on_c, 9, 47, 109
8, 78256, Note_on_c, 9, 47, 0
8, 78288, Note_on_c, 9, 45, 91
8, 78304, Note_on_c, 9, 45, 0
8, 78331, Note_on_c, 9, 57, 79
8, 78335, Note_on_c, 9, 57, 0
8, 78336, Note_on_c, 9, 35, 100
8, 78336, Note_on_c, 9, 40, 90
8, 78336, Note_on_c, 9, 57, 80
8, 78455, Note_on_c, 9, 57, 0
8, 78455, Note_on_c, 9, 40, 0
8, 78455, Note_on_c, 9, 35, 0
8, 78720, Note_on_c, 9, 35, 100
8, 78720, Note_on_c, 9, 40, 90
8, 78720, Note_on_c, 9, 57, 80
8, 78720, Note_on_c, 9, 49, 70
8, 78839, Note_on_c, 9, 49, 0
8, 78839, Note_on_c, 9, 35, 0
8, 78839, Note_on_c, 9, 40, 0
8, 78839, Note_on_c, 9, 57, 0
8, 79104, Note_on_c, 9, 40, 88
8, 79120, Note_on_c, 9, 40, 0
8, 79152, Note_on_c, 9, 47, 89
8, 79168, Note_on_c, 9, 47, 0
8, 79200, Note_on_c, 9, 35, 88
8, 79216, Note_on_c, 9, 35, 0
8, 79296, Note_on_c, 9, 35, 89
8, 79312, Note_on_c, 9, 35, 0
8, 79344, Note_on_c, 9, 47, 68
8, 79360, Note_on_c, 9, 47, 0
8, 79392, Note_on_c, 9, 45, 110
8, 79408, Note_on_c, 9, 45, 0
8, 79440, Note_on_c, 9, 45, 90
8, 79456, Note_on_c, 9, 45, 0
8, 79488, Note_on_c, 9, 35, 91
8, 79488, Note_on_c, 9, 49, 70
8, 79504, Note_on_c, 9, 35, 0
8, 79536, Note_on_c, 9, 45, 71
8, 79552, Note_on_c, 9, 45, 0
8, 79584, Note_on_c, 9, 35, 90
8, 79600, Note_on_c, 9, 35, 0
8, 79607, Note_on_c, 9, 49, 0
8, 79680, Note_on_c, 9, 40, 90
8, 79696, Note_on_c, 9, 40, 0
8, 79696, Note_on_c, 9, 40, 79
8, 79712, Note_on_c, 9, 40, 0
8, 79867, Note_on_c, 9, 57, 79
8, 79871, Note_on_c, 9, 57, 0
8, 79872, Note_on_c, 9, 35, 100
8, 79872, Note_on_c, 9, 40, 90
8, 79872, Note_on_c, 9, 57, 80
8, 79872, Note_on_c, 9, 49, 70
8, 79991, Note_on_c, 9, 49, 0
8, 79991, Note_on_c, 9, 35, 0
8, 79991, Note_on_c, 9, 40, 0
8, 79991, Note_on_c, 9, 57, 0
8, 80640, Note_on_c, 9, 35, 120
8, 80640, Note_on_c, 9, 40, 24
8, 80640, Note_on_c, 9, 49, 90
8, 80656, Note_on_c, 9, 40, 0
8, 80672, Note_on_c, 9, 40, 24
8, 80688, Note_on_c, 9, 40, 0
8, 80736, Note_on_c, 9, 40, 111
8, 80752, Note_on_c, 9, 40, 0
8, 80759, Note_on_c, 9, 49, 0
8, 80759, Note_on_c, 9, 35, 0
8, 80880, Note_on_c, 9, 40, 89
8, 80896, Note_on_c, 9, 40, 0
8, 80928, Note_on_c, 9, 40, 110
8, 80944, Note_on_c, 9, 40, 0
8, 81024, Note_on_c, 9, 40, 24
8, 81040, Note_on_c, 9, 40, 0
8, 81072, Note_on_c, 9, 40, 88
8, 81088, Note_on_c, 9, 40, 0
8, 81120, Note_on_c, 9, 40, 109
8, 81136, Note_on_c, 9, 40, 0
8, 81216, Note_on_c, 9, 40, 111
8, 81232, Note_on_c, 9, 40, 0
8, 81264, Note_on_c, 9, 40, 98
8, 81280, Note_on_c, 9, 40, 0
8, 81312, Note_on_c, 9, 40, 111
8, 81328, Note_on_c, 9, 40, 0
8, 81403, Note_on_c, 9, 57, 98
8, 81407, Note_on_c, 9, 57, 0
8, 81408, Note_on_c, 9, 35, 127
8, 81408, Note_on_c, 9, 40, 127
8, 81408, Note_on_c, 9, 57, 120
8, 81527, Note_on_c, 9, 57, 0
8, 81527, Note_on_c, 9, 40, 0
8, 81527, Note_on_c, 9, 35, 0
8, 81527, End_track
9, 0, Start_track
9, 0, MIDI_port, 0
9, 0, Title_t, "LEAD"
9, 0, Control_c, 8, 0, 0
9, 232, Control_c, 8, 0, 0
9, 233, Control_c, 8, 32, 0
9, 234, Program_c, 8, 56
9, 235, Control_c, 8, 7, 100
9, 235, Control_c, 8, 10, 74
9, 1540, Control_c, 8, 121, 0
9, 1542, Control_c, 8, 123, 0
9, 1544, Control_c, 8, 91, 90
9, 1548, Control_c, 8, 93, 0
9, 3944, Note_on_c, 8, 62, 92
9, 4148, Note_on_c, 8, 62, 0
9, 4226, Note_on_c, 8, 67, 77
9, 4344, Note_on_c, 8, 67, 0
9, 4416, Note_on_c, 8, 69, 72
9, 4532, Note_on_c, 8, 69, 0
9, 4602, Note_on_c, 8, 69, 81
9, 4888, Note_on_c, 8, 69, 0
9, 4900, Note_on_c, 8, 71, 90
9, 5476, Note_on_c, 8, 62, 85
9, 5480, Note_on_c, 8, 71, 0
9, 5697, Note_on_c, 8, 62, 0
9, 5770, Note_on_c, 8, 67, 79
9, 5844, Note_on_c, 8, 67, 0
9, 5952, Note_on_c, 8, 69, 66
9, 6056, Note_on_c, 8, 70, 77
9, 6066, Note_on_c, 8, 69, 0
9, 6985, Note_on_c, 8, 70, 0
9, 7004, Note_on_c, 8, 60, 92
9, 7233, Note_on_c, 8, 60, 0
9, 7302, Note_on_c, 8, 65, 75
9, 7408, Note_on_c, 8, 65, 0
9, 7488, Note_on_c, 8, 67, 88
9, 7582, Note_on_c, 8, 67, 0
9, 7680, Note_on_c, 8, 67, 83
9, 7966, Note_on_c, 8, 69, 79
9, 7994, Note_on_c, 8, 67, 0
9, 8523, Note_on_c, 8, 69, 0
9, 8546, Note_on_c, 8, 60, 83
9, 8785, Note_on_c, 8, 60, 0
9, 8848, Note_on_c, 8, 65, 81
9, 8928, Note_on_c, 8, 65, 0
9, 9032, Note_on_c, 8, 67, 85
9, 9146, Note_on_c, 8, 67, 0
9, 9148, Note_on_c, 8, 68, 75
9, 10055, Note_on_c, 8, 68, 0
9, 10100, Note_on_c, 8, 62, 90
9, 10329, Note_on_c, 8, 62, 0
9, 10374, Note_on_c, 8, 63, 75
9, 10488, Note_on_c, 8, 63, 0
9, 10564, Note_on_c, 8, 65, 85
9, 10666, Note_on_c, 8, 65, 0
9, 10754, Note_on_c, 8, 67, 85
9, 10985, Note_on_c, 8, 67, 0
9, 11018, Note_on_c, 8, 67, 90
9, 11100, Note_on_c, 8, 67, 0
9, 11162, Note_on_c, 8, 67, 62
9, 11372, Note_on_c, 8, 67, 0
9, 11404, Note_on_c, 8, 67, 83
9, 11475, Note_on_c, 8, 67, 0
9, 11550, Note_on_c, 8, 67, 72
9, 11754, Note_on_c, 8, 67, 0
9, 11792, Note_on_c, 8, 67, 88
9, 11855, Note_on_c, 8, 67, 0
9, 11914, Note_on_c, 8, 69, 72
9, 12002, Note_on_c, 8, 67, 53
9, 12024, Note_on_c, 8, 69, 0
9, 12076, Note_on_c, 8, 67, 0
9, 12102, Note_on_c, 8, 69, 60
9, 12194, Note_on_c, 8, 70, 83
9, 12204, Note_on_c, 8, 69, 0
9, 13221, Note_on_c, 8, 70, 0
9, 13446, Note_on_c, 8, 69, 81
9, 13552, Note_on_c, 8, 67, 58
9, 13564, Note_on_c, 8, 69, 0
9, 13611, Note_on_c, 8, 67, 0
9, 13634, Note_on_c, 8, 69, 90
9, 13744, Note_on_c, 8, 69, 0
9, 13752, Note_on_c, 8, 71, 88
9, 14663, Note_on_c, 8, 71, 0
9, 14696, Note_on_c, 8, 69, 83
9, 14888, Note_on_c, 8, 69, 0
9, 14990, Note_on_c, 8, 71, 64
9, 15076, Note_on_c, 8, 71, 0
9, 15168, Note_on_c, 8, 72, 85
9, 15272, Note_on_c, 8, 72, 0
9, 15362, Note_on_c, 8, 74, 81
9, 15597, Note_on_c, 8, 74, 0
9, 15628, Note_on_c, 8, 74, 83
9, 15708, Note_on_c, 8, 74, 0
9, 15778, Note_on_c, 8, 74, 79
9, 15868, Note_on_c, 8, 74, 0
9, 15934, Note_on_c, 8, 74, 77
9, 16008, Note_on_c, 8, 74, 0
9, 16050, Note_on_c, 8, 74, 77
9, 16117, Note_on_c, 8, 74, 0
9, 16228, Note_on_c, 8, 62, 92
9, 16453, Note_on_c, 8, 62, 0
9, 16520, Note_on_c, 8, 67, 85
9, 16608, Note_on_c, 8, 67, 0
9, 16706, Note_on_c, 8, 69, 88
9, 16798, Note_on_c, 8, 69, 0
9, 16900, Note_on_c, 8, 69, 88
9, 17186, Note_on_c, 8, 69, 0
9, 17208, Note_on_c, 8, 71, 83
9, 17769, Note_on_c, 8, 71, 0
9, 17780, Note_on_c, 8, 62, 92
9, 18001, Note_on_c, 8, 62, 0
9, 18066, Note_on_c, 8, 67, 92
9, 18137, Note_on_c, 8, 67, 0
9, 18246, Note_on_c, 8, 69, 72
9, 18360, Note_on_c, 8, 69, 0
9, 18364, Note_on_c, 8, 70, 85
9, 19299, Note_on_c, 8, 70, 0
9, 19300, Note_on_c, 8, 60, 92
9, 19527, Note_on_c, 8, 60, 0
9, 19592, Note_on_c, 8, 65, 79
9, 19690, Note_on_c, 8, 65, 0
9, 19780, Note_on_c, 8, 67, 92
9, 19888, Note_on_c, 8, 67, 0
9, 19968, Note_on_c, 8, 67, 88
9, 20256, Note_on_c, 8, 67, 0
9, 20256, Note_on_c, 8, 69, 79
9, 20801, Note_on_c, 8, 69, 0
9, 20840, Note_on_c, 8, 60, 85
9, 21075, Note_on_c, 8, 60, 0
9, 21128, Note_on_c, 8, 65, 81
9, 21236, Note_on_c, 8, 65, 0
9, 21316, Note_on_c, 8, 67, 90
9, 21422, Note_on_c, 8, 67, 0
9, 21446, Note_on_c, 8, 68, 85
9, 22359, Note_on_c, 8, 68, 0
9, 22386, Note_on_c, 8, 62, 90
9, 22606, Note_on_c, 8, 62, 0
9, 22666, Note_on_c, 8, 63, 70
9, 22766, Note_on_c, 8, 63, 0
9, 22852, Note_on_c, 8, 65, 85
9, 22974, Note_on_c, 8, 65, 0
9, 23040, Note_on_c, 8, 67, 79
9, 23291, Note_on_c, 8, 67, 0
9, 23314, Note_on_c, 8, 67, 88
9, 23381, Note_on_c, 8, 67, 0
9, 23448, Note_on_c, 8, 67, 66
9, 23648, Note_on_c, 8, 67, 0
9, 23698, Note_on_c, 8, 67, 79
9, 23761, Note_on_c, 8, 67, 0
9, 23834, Note_on_c, 8, 67, 77
9, 24050, Note_on_c, 8, 67, 0
9, 24092, Note_on_c, 8, 67, 72
9, 24151, Note_on_c, 8, 67, 0
9, 24198, Note_on_c, 8, 69, 77
9, 24296, Note_on_c, 8, 67, 42
9, 24302, Note_on_c, 8, 69, 0
9, 24374, Note_on_c, 8, 67, 0
9, 24390, Note_on_c, 8, 69, 81
9, 24480, Note_on_c, 8, 69, 0
9, 24498, Note_on_c, 8, 71, 95
9, 25325, Note_on_c, 8, 71, 0
9, 25454, Note_on_c, 8, 69, 92
9, 25634, Note_on_c, 8, 69, 0
9, 25736, Note_on_c, 8, 71, 77
9, 25822, Note_on_c, 8, 71, 0
9, 25920, Note_on_c, 8, 72, 77
9, 26032, Note_on_c, 8, 72, 0
9, 26112, Note_on_c, 8, 74, 90
9, 26345, Note_on_c, 8, 74, 0
9, 26390, Note_on_c, 8, 74, 90
9, 26457, Note_on_c, 8, 74, 0
9, 26536, Note_on_c, 8, 74, 70
9, 26614, Note_on_c, 8, 74, 0
9, 26688, Note_on_c, 8, 74, 70
9, 26768, Note_on_c, 8, 74, 0
9, 26812, Note_on_c, 8, 74, 68
9, 26898, Note_on_c, 8, 74, 0
9, 27000, Note_on_c, 8, 62, 90
9, 27180, Note_on_c, 8, 62, 0
9, 27272, Note_on_c, 8, 67, 81
9, 27366, Note_on_c, 8, 67, 0
9, 27458, Note_on_c, 8, 69, 81
9, 27560, Note_on_c, 8, 69, 0
9, 27568, Note_on_c, 8, 67, 79
9, 28438, Note_on_c, 8, 67, 0
9, 28504, Control_c, 8, 0, 0
9, 28504, Control_c, 8, 32, 1
9, 28504, Program_c, 8, 65
9, 28512, Note_on_c, 8, 62, 97
9, 28708, Note_on_c, 8, 62, 0
9, 28802, Note_on_c, 8, 67, 88
9, 28920, Note_on_c, 8, 67, 0
9, 28998, Note_on_c, 8, 69, 81
9, 29088, Note_on_c, 8, 69, 0
9, 29108, Note_on_c, 8, 69, 83
9, 29441, Note_on_c, 8, 69, 0
9, 29476, Note_on_c, 8, 71, 90
9, 30052, Note_on_c, 8, 62, 85
9, 30056, Note_on_c, 8, 71, 0
9, 30273, Note_on_c, 8, 62, 0
9, 30346, Note_on_c, 8, 67, 79
9, 30420, Note_on_c, 8, 67, 0
9, 30528, Note_on_c, 8, 69, 66
9, 30632, Note_on_c, 8, 70, 77
9, 30642, Note_on_c, 8, 69, 0
9, 31561, Note_on_c, 8, 70, 0
9, 31580, Note_on_c, 8, 60, 92
9, 31809, Note_on_c, 8, 60, 0
9, 31878, Note_on_c, 8, 65, 75
9, 31984, Note_on_c, 8, 65, 0
9, 32064, Note_on_c, 8, 67, 88
9, 32158, Note_on_c, 8, 67, 0
9, 32256, Note_on_c, 8, 67, 83
9, 32542, Note_on_c, 8, 69, 79
9, 32570, Note_on_c, 8, 67, 0
9, 33099, Note_on_c, 8, 69, 0
9, 33122, Note_on_c, 8, 60, 83
9, 33361, Note_on_c, 8, 60, 0
9, 33424, Note_on_c, 8, 65, 81
9, 33504, Note_on_c, 8, 65, 0
9, 33608, Note_on_c, 8, 67, 85
9, 33722, Note_on_c, 8, 67, 0
9, 33724, Note_on_c, 8, 68, 75
9, 34631, Note_on_c, 8, 68, 0
9, 34676, Note_on_c, 8, 62, 90
9, 34905, Note_on_c, 8, 62, 0
9, 34950, Note_on_c, 8, 63, 75
9, 35064, Note_on_c, 8, 63, 0
9, 35140, Note_on_c, 8, 65, 85
9, 35242, Note_on_c, 8, 65, 0
9, 35330, Note_on_c, 8, 67, 85
9, 35561, Note_on_c, 8, 67, 0
9, 35594, Note_on_c, 8, 67, 90
9, 35676, Note_on_c, 8, 67, 0
9, 35738, Note_on_c, 8, 67, 62
9, 35948, Note_on_c, 8, 67, 0
9, 35980, Note_on_c, 8, 67, 83
9, 36051, Note_on_c, 8, 67, 0
9, 36126, Note_on_c, 8, 67, 72
9, 36330, Note_on_c, 8, 67, 0
9, 36368, Note_on_c, 8, 67, 88
9, 36431, Note_on_c, 8, 67, 0
9, 36490, Note_on_c, 8, 69, 72
9, 36578, Note_on_c, 8, 67, 53
9, 36600, Note_on_c, 8, 69, 0
9, 36652, Note_on_c, 8, 67, 0
9, 36678, Note_on_c, 8, 69, 60
9, 36770, Note_on_c, 8, 70, 83
9, 36780, Note_on_c, 8, 69, 0
9, 37797, Note_on_c, 8, 70, 0
9, 38022, Note_on_c, 8, 69, 81
9, 38128, Note_on_c, 8, 67, 58
9, 38140, Note_on_c, 8, 69, 0
9, 38187, Note_on_c, 8, 67, 0
9, 38210, Note_on_c, 8, 69, 90
9, 38320, Note_on_c, 8, 69, 0
9, 38328, Note_on_c, 8, 71, 88
9, 39239, Note_on_c, 8, 71, 0
9, 39272, Note_on_c, 8, 69, 83
9, 39464, Note_on_c, 8, 69, 0
9, 39566, Note_on_c, 8, 71, 64
9, 39652, Note_on_c, 8, 71, 0
9, 39744, Note_on_c, 8, 72, 85
9, 39848, Note_on_c, 8, 72, 0
9, 39938, Note_on_c, 8, 74, 81
9, 40173, Note_on_c, 8, 74, 0
9, 40204, Note_on_c, 8, 74, 83
9, 40284, Note_on_c, 8, 74, 0
9, 40354, Note_on_c, 8, 74, 79
9, 40444, Note_on_c, 8, 74, 0
9, 40510, Note_on_c, 8, 74, 77
9, 40584, Note_on_c, 8, 74, 0
9, 40626, Note_on_c, 8, 74, 77
9, 40693, Note_on_c, 8, 74, 0
9, 40804, Note_on_c, 8, 62, 92
9, 41029, Note_on_c, 8, 62, 0
9, 41096, Note_on_c, 8, 67, 85
9, 41184, Note_on_c, 8, 67, 0
9, 41282, Note_on_c, 8, 69, 88
9, 41374, Note_on_c, 8, 69, 0
9, 41476, Note_on_c, 8, 69, 88
9, 41762, Note_on_c, 8, 69, 0
9, 41784, Note_on_c, 8, 71, 83
9, 42345, Note_on_c, 8, 71, 0
9, 42356, Note_on_c, 8, 62, 92
9, 42577, Note_on_c, 8, 62, 0
9, 42642, Note_on_c, 8, 67, 92
9, 42713, Note_on_c, 8, 67, 0
9, 42822, Note_on_c, 8, 69, 72
9, 42936, Note_on_c, 8, 69, 0
9, 42940, Note_on_c, 8, 70, 85
9, 43875, Note_on_c, 8, 70, 0
9, 43876, Note_on_c, 8, 60, 92
9, 44103, Note_on_c, 8, 60, 0
9, 44168, Note_on_c, 8, 65, 79
9, 44266, Note_on_c, 8, 65, 0
9, 44356, Note_on_c, 8, 67, 92
9, 44464, Note_on_c, 8, 67, 0
9, 44544, Note_on_c, 8, 67, 88
9, 44832, Note_on_c, 8, 67, 0
9, 44832, Note_on_c, 8, 69, 79
9, 45377, Note_on_c, 8, 69, 0
9, 45416, Note_on_c, 8, 60, 85
9, 45651, Note_on_c, 8, 60, 0
9, 45704, Note_on_c, 8, 65, 81
9, 45812, Note_on_c, 8, 65, 0
9, 45892, Note_on_c, 8, 67, 90
9, 45998, Note_on_c, 8, 67, 0
9, 46022, Note_on_c, 8, 68, 85
9, 46935, Note_on_c, 8, 68, 0
9, 46962, Note_on_c, 8, 62, 90
9, 47182, Note_on_c, 8, 62, 0
9, 47242, Note_on_c, 8, 63, 70
9, 47342, Note_on_c, 8, 63, 0
9, 47428, Note_on_c, 8, 65, 85
9, 47550, Note_on_c, 8, 65, 0
9, 47616, Note_on_c, 8, 67, 79
9, 47867, Note_on_c, 8, 67, 0
9, 47890, Note_on_c, 8, 67, 88
9, 47957, Note_on_c, 8, 67, 0
9, 48024, Note_on_c, 8, 67, 66
9, 48224, Note_on_c, 8, 67, 0
9, 48274, Note_on_c, 8, 67, 79
9, 48337, Note_on_c, 8, 67, 0
9, 48410, Note_on_c, 8, 67, 77
9, 48626, Note_on_c, 8, 67, 0
9, 48668, Note_on_c, 8, 67, 72
9, 48727, Note_on_c, 8, 67, 0
9, 48774, Note_on_c, 8, 69, 77
9, 48872, Note_on_c, 8, 67, 42
9, 48878, Note_on_c, 8, 69, 0
9, 48950, Note_on_c, 8, 67, 0
9, 48966, Note_on_c, 8, 69, 81
9, 49056, Note_on_c, 8, 69, 0
9, 49074, Note_on_c, 8, 71, 95
9, 49901, Note_on_c, 8, 71, 0
9, 50030, Note_on_c, 8, 69, 92
9, 50210, Note_on_c, 8, 69, 0
9, 50312, Note_on_c, 8, 71, 77
9, 50398, Note_on_c, 8, 71, 0
9, 50496, Note_on_c, 8, 72, 77
9, 50608, Note_on_c, 8, 72, 0
9, 50688, Note_on_c, 8, 74, 90
9, 50921, Note_on_c, 8, 74, 0
9, 50966, Note_on_c, 8, 74, 90
9, 51033, Note_on_c, 8, 74, 0
9, 51112, Note_on_c, 8, 74, 70
9, 51190, Note_on_c, 8, 74, 0
9, 51264, Note_on_c, 8, 74, 70
9, 51344, Note_on_c, 8, 74, 0
9, 51388, Note_on_c, 8, 74, 68
9, 51474, Note_on_c, 8, 74, 0
9, 51576, Note_on_c, 8, 62, 90
9, 51756, Note_on_c, 8, 62, 0
9, 51848, Note_on_c, 8, 67, 81
9, 51942, Note_on_c, 8, 67, 0
9, 52034, Note_on_c, 8, 69, 81
9, 52136, Note_on_c, 8, 69, 0
9, 52144, Note_on_c, 8, 67, 79
9, 53014, Note_on_c, 8, 67, 0
9, 53084, Control_c, 8, 0, 0
9, 53084, Control_c, 8, 32, 0
9, 53084, Program_c, 8, 56
9, 53088, Note_on_c, 8, 62, 97
9, 53284, Note_on_c, 8, 62, 0
9, 53378, Note_on_c, 8, 67, 88
9, 53496, Note_on_c, 8, 67, 0
9, 53574, Note_on_c, 8, 69, 81
9, 53664, Note_on_c, 8, 69, 0
9, 53684, Note_on_c, 8, 69, 83
9, 54017, Note_on_c, 8, 69, 0
9, 54052, Note_on_c, 8, 71, 90
9, 54628, Note_on_c, 8, 62, 85
9, 54632, Note_on_c, 8, 71, 0
9, 54849, Note_on_c, 8, 62, 0
9, 54922, Note_on_c, 8, 67, 79
9, 54996, Note_on_c, 8, 67, 0
9, 55104, Note_on_c, 8, 69, 66
9, 55208, Note_on_c, 8, 70, 77
9, 55218, Note_on_c, 8, 69, 0
9, 56137, Note_on_c, 8, 70, 0
9, 56156, Note_on_c, 8, 60, 92
9, 56385, Note_on_c, 8, 60, 0
9, 56454, Note_on_c, 8, 65, 75
9, 56560, Note_on_c, 8, 65, 0
9, 56640, Note_on_c, 8, 67, 88
9, 56734, Note_on_c, 8, 67, 0
9, 56832, Note_on_c, 8, 67, 83
9, 57118, Note_on_c, 8, 69, 79
9, 57146, Note_on_c, 8, 67, 0
9, 57675, Note_on_c, 8, 69, 0
9, 57698, Note_on_c, 8, 60, 83
9, 57937, Note_on_c, 8, 60, 0
9, 58000, Note_on_c, 8, 65, 81
9, 58080, Note_on_c, 8, 65, 0
9, 58184, Note_on_c, 8, 67, 85
9, 58298, Note_on_c, 8, 67, 0
9, 58300, Note_on_c, 8, 68, 75
9, 59207, Note_on_c, 8, 68, 0
9, 59252, Note_on_c, 8, 62, 90
9, 59481, Note_on_c, 8, 62, 0
9, 59526, Note_on_c, 8, 63, 75
9, 59640, Note_on_c, 8, 63, 0
9, 59716, Note_on_c, 8, 65, 85
9, 59818, Note_on_c, 8, 65, 0
9, 59906, Note_on_c, 8, 67, 85
9, 60137, Note_on_c, 8, 67, 0
9, 60170, Note_on_c, 8, 67, 90
9, 60252, Note_on_c, 8, 67, 0
9, 60314, Note_on_c, 8, 67, 62
9, 60524, Note_on_c, 8, 67, 0
9, 60556, Note_on_c, 8, 67, 83
9, 60627, Note_on_c, 8, 67, 0
9, 60702, Note_on_c, 8, 67, 72
9, 60906, Note_on_c, 8, 67, 0
9, 60944, Note_on_c, 8, 67, 88
9, 61007, Note_on_c, 8, 67, 0
9, 61066, Note_on_c, 8, 69, 72
9, 61154, Note_on_c, 8, 67, 53
9, 61176, Note_on_c, 8, 69, 0
9, 61228, Note_on_c, 8, 67, 0
9, 61254, Note_on_c, 8, 69, 60
9, 61346, Note_on_c, 8, 70, 83
9, 61356, Note_on_c, 8, 69, 0
9, 62373, Note_on_c, 8, 70, 0
9, 62598, Note_on_c, 8, 69, 81
9, 62704, Note_on_c, 8, 67, 58
9, 62716, Note_on_c, 8, 69, 0
9, 62763, Note_on_c, 8, 67, 0
9, 62786, Note_on_c, 8, 69, 90
9, 62896, Note_on_c, 8, 69, 0
9, 62904, Note_on_c, 8, 71, 88
9, 63815, Note_on_c, 8, 71, 0
9, 63848, Note_on_c, 8, 69, 83
9, 64040, Note_on_c, 8, 69, 0
9, 64142, Note_on_c, 8, 71, 64
9, 64228, Note_on_c, 8, 71, 0
9, 64320, Note_on_c, 8, 72, 85
9, 64424, Note_on_c, 8, 72, 0
9, 64514, Note_on_c, 8, 74, 81
9, 64749, Note_on_c, 8, 74, 0
9, 64780, Note_on_c, 8, 74, 83
9, 64860, Note_on_c, 8, 74, 0
9, 64930, Note_on_c, 8, 74, 79
9, 65020, Note_on_c, 8, 74, 0
9, 65086, Note_on_c, 8, 74, 77
9, 65160, Note_on_c, 8, 74, 0
9, 65202, Note_on_c, 8, 74, 77
9, 65269, Note_on_c, 8, 74, 0
9, 65380, Note_on_c, 8, 62, 92
9, 65605, Note_on_c, 8, 62, 0
9, 65672, Note_on_c, 8, 67, 85
9, 65760, Note_on_c, 8, 67, 0
9, 65858, Note_on_c, 8, 69, 88
9, 65950, Note_on_c, 8, 69, 0
9, 66052, Note_on_c, 8, 69, 88
9, 66338, Note_on_c, 8, 69, 0
9, 66360, Note_on_c, 8, 71, 83
9, 66921, Note_on_c, 8, 71, 0
9, 66932, Note_on_c, 8, 62, 92
9, 67153, Note_on_c, 8, 62, 0
9, 67218, Note_on_c, 8, 67, 92
9, 67289, Note_on_c, 8, 67, 0
9, 67398, Note_on_c, 8, 69, 72
9, 67512, Note_on_c, 8, 69, 0
9, 67516, Note_on_c, 8, 70, 85
9, 68451, Note_on_c, 8, 70, 0
9, 68452, Note_on_c, 8, 60, 92
9, 68679, Note_on_c, 8, 60, 0
9, 68744, Note_on_c, 8, 65, 79
9, 68842, Note_on_c, 8, 65, 0
9, 68932, Note_on_c, 8, 67, 92
9, 69040, Note_on_c, 8, 67, 0
9, 69120, Note_on_c, 8, 67, 88
9, 69408, Note_on_c, 8, 67, 0
9, 69408, Note_on_c, 8, 69, 79
9, 69953, Note_on_c, 8, 69, 0
9, 69992, Note_on_c, 8, 60, 85
9, 70227, Note_on_c, 8, 60, 0
9, 70280, Note_on_c, 8, 65, 81
9, 70388, Note_on_c, 8, 65, 0
9, 70468, Note_on_c, 8, 67, 90
9, 70574, Note_on_c, 8, 67, 0
9, 70598, Note_on_c, 8, 68, 85
9, 71511, Note_on_c, 8, 68, 0
9, 71538, Note_on_c, 8, 62, 90
9, 71758, Note_on_c, 8, 62, 0
9, 71818, Note_on_c, 8, 63, 70
9, 71918, Note_on_c, 8, 63, 0
9, 72004, Note_on_c, 8, 65, 85
9, 72126, Note_on_c, 8, 65, 0
9, 72192, Note_on_c, 8, 67, 79
9, 72443, Note_on_c, 8, 67, 0
9, 72466, Note_on_c, 8, 67, 88
9, 72533, Note_on_c, 8, 67, 0
9, 72600, Note_on_c, 8, 67, 66
9, 72800, Note_on_c, 8, 67, 0
9, 72850, Note_on_c, 8, 67, 79
9, 72913, Note_on_c, 8, 67, 0
9, 72986, Note_on_c, 8, 67, 77
9, 73202, Note_on_c, 8, 67, 0
9, 73244, Note_on_c, 8, 67, 72
9, 73303, Note_on_c, 8, 67, 0
9, 73350, Note_on_c, 8, 69, 77
9, 73448, Note_on_c, 8, 67, 42
9, 73454, Note_on_c, 8, 69, 0
9, 73526, Note_on_c, 8, 67, 0
9, 73542, Note_on_c, 8, 69, 81
9, 73632, Note_on_c, 8, 69, 0
9, 73650, Note_on_c, 8, 71, 95
9, 74477, Note_on_c, 8, 71, 0
9, 74606, Note_on_c, 8, 69, 92
9, 74786, Note_on_c, 8, 69, 0
9, 74888, Note_on_c, 8, 71, 77
9, 74974, Note_on_c, 8, 71, 0
9, 75072, Note_on_c, 8, 72, 77
9, 75184, Note_on_c, 8, 72, 0
9, 75264, Note_on_c, 8, 74, 90
9, 75497, Note_on_c, 8, 74, 0
9, 75542, Note_on_c, 8, 74, 90
9, 75609, Note_on_c, 8, 74, 0
9, 75688, Note_on_c, 8, 74, 70
9, 75766, Note_on_c, 8, 74, 0
9, 75840, Note_on_c, 8, 74, 70
9, 75920, Note_on_c, 8, 74, 0
9, 75964, Note_on_c, 8, 74, 68
9, 76050, Note_on_c, 8, 74, 0
9, 76152, Note_on_c, 8, 62, 90
9, 76332, Note_on_c, 8, 62, 0
9, 76424, Note_on_c, 8, 67, 81
9, 76518, Note_on_c, 8, 67, 0
9, 76610, Note_on_c, 8, 69, 81
9, 76712, Note_on_c, 8, 69, 0
9, 76720, Note_on_c, 8, 67, 79
9, 77590, Note_on_c, 8, 67, 0
9, 77678, Note_on_c, 8, 69, 92
9, 77858, Note_on_c, 8, 69, 0
9, 77960, Note_on_c, 8, 71, 77
9, 78046, Note_on_c, 8, 71, 0
9, 78144, Note_on_c, 8, 72, 77
9, 78256, Note_on_c, 8, 72, 0
9, 78336, Note_on_c, 8, 74, 90
9, 78569, Note_on_c, 8, 74, 0
9, 78614, Note_on_c, 8, 74, 90
9, 78681, Note_on_c, 8, 74, 0
9, 78760, Note_on_c, 8, 74, 70
9, 78838, Note_on_c, 8, 74, 0
9, 78912, Note_on_c, 8, 74, 70
9, 78992, Note_on_c, 8, 74, 0
9, 79036, Note_on_c, 8, 74, 68
9, 79122, Note_on_c, 8, 74, 0
9, 79224, Note_on_c, 8, 62, 90
9, 79404, Note_on_c, 8, 62, 0
9, 79496, Note_on_c, 8, 67, 81
9, 79590, Note_on_c, 8, 67, 0
9, 79682, Note_on_c, 8, 69, 81
9, 79784, Note_on_c, 8, 69, 0
9, 79792, Note_on_c, 8, 67, 89
9, 81321, Note_on_c, 8, 67, 0
9, 81321, End_track
10, 0, Start_track
10, 0, MIDI_port, 0
10, 0, Title_t, "VOICE"
10, 0, Control_c, 11, 0, 0
10, 247, Control_c, 11, 0, 0
10, 248, Control_c, 11, 32, 0
10, 249, Program_c, 11, 53
10, 250, Control_c, 11, 7, 90
10, 250, Control_c, 11, 10, 54
10, 1540, Control_c, 11, 121, 0
10, 1542, Control_c, 11, 123, 0
10, 1544, Control_c, 11, 91, 90
10, 1548, Control_c, 11, 93, 0
10, 53088, Note_on_c, 11, 62, 87
10, 53284, Note_on_c, 11, 62, 0
10, 53378, Note_on_c, 11, 67, 78
10, 53496, Note_on_c, 11, 67, 0
10, 53574, Note_on_c, 11, 69, 71
10, 53664, Note_on_c, 11, 69, 0
10, 53684, Note_on_c, 11, 69, 73
10, 54017, Note_on_c, 11, 69, 0
10, 54052, Note_on_c, 11, 71, 80
10, 54628, Note_on_c, 11, 62, 75
10, 54632, Note_on_c, 11, 71, 0
10, 54849, Note_on_c, 11, 62, 0
10, 54922, Note_on_c, 11, 67, 69
10, 54996, Note_on_c, 11, 67, 0
10, 55104, Note_on_c, 11, 69, 56
10, 55208, Note_on_c, 11, 70, 67
10, 55218, Note_on_c, 11, 69, 0
10, 56137, Note_on_c, 11, 70, 0
10, 56156, Note_on_c, 11, 60, 82
10, 56385, Note_on_c, 11, 60, 0
10, 56454, Note_on_c, 11, 65, 65
10, 56560, Note_on_c, 11, 65, 0
10, 56640, Note_on_c, 11, 67, 78
10, 56734, Note_on_c, 11, 67, 0
10, 56832, Note_on_c, 11, 67, 73
10, 57118, Note_on_c, 11, 69, 69
10, 57146, Note_on_c, 11, 67, 0
10, 57675, Note_on_c, 11, 69, 0
10, 57698, Note_on_c, 11, 60, 73
10, 57937, Note_on_c, 11, 60, 0
10, 58000, Note_on_c, 11, 65, 71
10, 58080, Note_on_c, 11, 65, 0
10, 58184, Note_on_c, 11, 67, 75
10, 58298, Note_on_c, 11, 67, 0
10, 58300, Note_on_c, 11, 68, 65
10, 59207, Note_on_c, 11, 68, 0
10, 59252, Note_on_c, 11, 62, 80
10, 59481, Note_on_c, 11, 62, 0
10, 59526, Note_on_c, 11, 63, 65
10, 59640, Note_on_c, 11, 63, 0
10, 59716, Note_on_c, 11, 65, 75
10, 59818, Note_on_c, 11, 65, 0
10, 59906, Note_on_c, 11, 67, 75
10, 60137, Note_on_c, 11, 67, 0
10, 60170, Note_on_c, 11, 67, 80
10, 60252, Note_on_c, 11, 67, 0
10, 60314, Note_on_c, 11, 67, 52
10, 60524, Note_on_c, 11, 67, 0
10, 60556, Note_on_c, 11, 67, 73
10, 60627, Note_on_c, 11, 67, 0
10, 60702, Note_on_c, 11, 67, 62
10, 60906, Note_on_c, 11, 67, 0
10, 60944, Note_on_c, 11, 67, 78
10, 61007, Note_on_c, 11, 67, 0
10, 61066, Note_on_c, 11, 69, 62
10, 61154, Note_on_c, 11, 67, 43
10, 61176, Note_on_c, 11, 69, 0
10, 61228, Note_on_c, 11, 67, 0
10, 61254, Note_on_c, 11, 69, 50
10, 61346, Note_on_c, 11, 70, 73
10, 61356, Note_on_c, 11, 69, 0
10, 62373, Note_on_c, 11, 70, 0
10, 62598, Note_on_c, 11, 69, 71
10, 62704, Note_on_c, 11, 67, 48
10, 62716, Note_on_c, 11, 69, 0
10, 62763, Note_on_c, 11, 67, 0
10, 62786, Note_on_c, 11, 69, 80
10, 62896, Note_on_c, 11, 69, 0
10, 62904, Note_on_c, 11, 71, 78
10, 63815, Note_on_c, 11, 71, 0
10, 63848, Note_on_c, 11, 69, 73
10, 64040, Note_on_c, 11, 69, 0
10, 64142, Note_on_c, 11, 71, 54
10, 64228, Note_on_c, 11, 71, 0
10, 64320, Note_on_c, 11, 72, 75
10, 64424, Note_on_c, 11, 72, 0
10, 64514, Note_on_c, 11, 74, 71
10, 64749, Note_on_c, 11, 74, 0
10, 64780, Note_on_c, 11, 74, 73
10, 64860, Note_on_c, 11, 74, 0
10, 64930, Note_on_c, 11, 74, 69
10, 65020, Note_on_c, 11, 74, 0
10, 65086, Note_on_c, 11, 74, 67
10, 65160, Note_on_c, 11, 74, 0
10, 65202, Note_on_c, 11, 74, 67
10, 65269, Note_on_c, 11, 74, 0
10, 65380, Note_on_c, 11, 62, 82
10, 65605, Note_on_c, 11, 62, 0
10, 65672, Note_on_c, 11, 67, 75
10, 65760, Note_on_c, 11, 67, 0
10, 65858, Note_on_c, 11, 69, 78
10, 65950, Note_on_c, 11, 69, 0
10, 66052, Note_on_c, 11, 69, 78
10, 66338, Note_on_c, 11, 69, 0
10, 66360, Note_on_c, 11, 71, 73
10, 66921, Note_on_c, 11, 71, 0
10, 66932, Note_on_c, 11, 62, 82
10, 67153, Note_on_c, 11, 62, 0
10, 67218, Note_on_c, 11, 67, 82
10, 67289, Note_on_c, 11, 67, 0
10, 67398, Note_on_c, 11, 69, 62
10, 67512, Note_on_c, 11, 69, 0
10, 67516, Note_on_c, 11, 70, 75
10, 68451, Note_on_c, 11, 70, 0
10, 68452, Note_on_c, 11, 60, 82
10, 68679, Note_on_c, 11, 60, 0
10, 68744, Note_on_c, 11, 65, 69
10, 68842, Note_on_c, 11, 65, 0
10, 68932, Note_on_c, 11, 67, 82
10, 69040, Note_on_c, 11, 67, 0
10, 69120, Note_on_c, 11, 67, 78
10, 69408, Note_on_c, 11, 67, 0
10, 69408, Note_on_c, 11, 69, 69
10, 69953, Note_on_c, 11, 69, 0
10, 69992, Note_on_c, 11, 60, 75
10, 70227, Note_on_c, 11, 60, 0
10, 70280, Note_on_c, 11, 65, 71
10, 70388, Note_on_c, 11, 65, 0
10, 70468, Note_on_c, 11, 67, 80
10, 70574, Note_on_c, 11, 67, 0
10, 70598, Note_on_c, 11, 68, 75
10, 71511, Note_on_c, 11, 68, 0
10, 71538, Note_on_c, 11, 62, 80
10, 71758, Note_on_c, 11, 62, 0
10, 71818, Note_on_c, 11, 63, 60
10, 71918, Note_on_c, 11, 63, 0
10, 72004, Note_on_c, 11, 65, 75
10, 72126, Note_on_c, 11, 65, 0
10, 72192, Note_on_c, 11, 67, 69
10, 72443, Note_on_c, 11, 67, 0
10, 72466, Note_on_c, 11, 67, 78
10, 72533, Note_on_c, 11, 67, 0
10, 72600, Note_on_c, 11, 67, 56
10, 72800, Note_on_c, 11, 67, 0
10, 72850, Note_on_c, 11, 67, 69
10, 72913, Note_on_c, 11, 67, 0
10, 72986, Note_on_c, 11, 67, 67
10, 73202, Note_on_c, 11, 67, 0
10, 73244, Note_on_c, 11, 67, 62
10, 73303, Note_on_c, 11, 67, 0
10, 73350, Note_on_c, 11, 69, 67
10, 73448, Note_on_c, 11, 67, 32
10, 73454, Note_on_c, 11, 69, 0
10, 73526, Note_on_c, 11, 67, 0
10, 73542, Note_on_c, 11, 69, 71
10, 73632, Note_on_c, 11, 69, 0
10, 73650, Note_on_c, 11, 71, 85
10, 74477, Note_on_c, 11, 71, 0
10, 74606, Note_on_c, 11, 69, 82
10, 74786, Note_on_c, 11, 69, 0
10, 74888, Note_on_c, 11, 71, 67
10, 74974, Note_on_c, 11, 71, 0
10, 75072, Note_on_c, 11, 72, 67
10, 75184, Note_on_c, 11, 72, 0
10, 75264, Note_on_c, 11, 74, 80
10, 75497, Note_on_c, 11, 74, 0
10, 75542, Note_on_c, 11, 74, 80
10, 75609, Note_on_c, 11, 74, 0
10, 75688, Note_on_c, 11, 74, 60
10, 75766, Note_on_c, 11, 74, 0
10, 75840, Note_on_c, 11, 74, 60
10, 75920, Note_on_c, 11, 74, 0
10, 75964, Note_on_c, 11, 74, 58
10, 76050, Note_on_c, 11, 74, 0
10, 76152, Note_on_c, 11, 62, 80
10, 76332, Note_on_c, 11, 62, 0
10, 76424, Note_on_c, 11, 67, 71
10, 76518, Note_on_c, 11, 67, 0
10, 76610, Note_on_c, 11, 69, 71
10, 76712, Note_on_c, 11, 69, 0
10, 76720, Note_on_c, 11, 67, 69
10, 77590, Note_on_c, 11, 67, 0
10, 77678, Note_on_c, 11, 69, 82
10, 77858, Note_on_c, 11, 69, 0
10, 77960, Note_on_c, 11, 71, 67
10, 78046, Note_on_c, 11, 71, 0
10, 78144, Note_on_c, 11, 72, 67
10, 78256, Note_on_c, 11, 72, 0
10, 78336, Note_on_c, 11, 74, 80
10, 78569, Note_on_c, 11, 74, 0
10, 78614, Note_on_c, 11, 74, 80
10, 78681, Note_on_c, 11, 74, 0
10, 78760, Note_on_c, 11, 74, 60
10, 78838, Note_on_c, 11, 74, 0
10, 78912, Note_on_c, 11, 74, 60
10, 78992, Note_on_c, 11, 74, 0
10, 79036, Note_on_c, 11, 74, 58
10, 79122, Note_on_c, 11, 74, 0
10, 79224, Note_on_c, 11, 62, 80
10, 79404, Note_on_c, 11, 62, 0
10, 79496, Note_on_c, 11, 67, 71
10, 79590, Note_on_c, 11, 67, 0
10, 79682, Note_on_c, 11, 69, 71
10, 79784, Note_on_c, 11, 69, 0
10, 79792, Note_on_c, 11, 67, 79
10, 81321, Note_on_c, 11, 67, 0
10, 81321, End_track
11, 0, Start_track
11, 0, MIDI_port, 0
11, 0, Title_t, "Sequence"
11, 0, End_track
12, 0, Start_track
12, 0, MIDI_port, 0
12, 0, Title_t, "By Dick"
12, 0, End_track
13, 0, Start_track
13, 0, MIDI_port, 0
13, 0, Title_t, "Anderson"
13, 0, End_track
14, 0, Start_track
14, 0, MIDI_port, 0
14, 0, Title_t, "djcc@c2i2.com"
14, 0, End_track
0, 0, End_of_file
