0, 0, Header, 1, 28, 480
1, 0, Start_track
1, 0, Tempo, 535714
1, 0, Time_signature, 4, 2, 24, 8
1, 236209, End_track
2, 0, Start_track
2, 0, Channel_prefix, 9
2, 0, Title_t, "drummix"
2, 236209, End_track
3, 0, Start_track
3, 0, Channel_prefix, 1
3, 0, Title_t, "bass"
3, 236209, End_track
4, 0, Start_track
4, 0, Channel_prefix, 2
4, 0, Title_t, "ac piano"
4, 236209, End_track
5, 0, Start_track
5, 0, Channel_prefix, 3
5, 0, Title_t, "Vocal"
5, 236209, End_track
6, 0, Start_track
6, 0, Channel_prefix, 4
6, 0, Title_t, "back voc"
6, 236209, End_track
7, 0, Start_track
7, 0, Channel_prefix, 5
7, 0, Title_t, "synth 1"
7, 236209, End_track
8, 0, Start_track
8, 0, Channel_prefix, 6
8, 0, Title_t, "organ"
8, 236209, End_track
9, 0, Start_track
9, 0, Channel_prefix, 7
9, 0, Title_t, "pad"
9, 236209, End_track
10, 0, Start_track
10, 0, Channel_prefix, 8
10, 0, Title_t, "el piano"
10, 236209, End_track
11, 0, Start_track
11, 0, Channel_prefix, 10
11, 0, Title_t, "synth 2"
11, 236209, End_track
12, 0, Start_track
12, 0, Channel_prefix, 11
12, 0, Title_t, "bells"
12, 236209, End_track
13, 0, Start_track
13, 0, Channel_prefix, 12
13, 0, Title_t, "rev cymbal"
13, 236209, End_track
14, 0, Start_track
14, 0, System_exclusive, 5, 126, 127, 9, 1, 247
14, 0, Title_t, "sysex"
14, 250, System_exclusive, 8, 67, 16, 76, 0, 0, 126, 0, 247
14, 236159, System_exclusive, 5, 126, 127, 9, 2, 247
14, 236209, End_track
15, 0, Start_track
15, 0, Title_t, "Soft karaoke"
15, 0, Text_t, ""
15, 0, End_track
16, 0, Start_track
16, 0, Title_t, "Words"
16, 0, Text_t, ""
16, 0, Text_t, ""
16, 0, Text_t, "@TAnastacia"
16, 240, Text_t, ""
16, 240, Text_t, "/Anastacia"
16, 480, Text_t, ""
16, 9120, Text_t, "\\whoo "
16, 18000, Text_t, "your "
16, 18240, Text_t, "/love "
16, 18480, Text_t, "is "
16, 18720, Text_t, "like "
16, 18960, Text_t, "a "
16, 19200, Text_t, "gen"
16, 19440, Text_t, "tle "
16, 19680, Text_t, "breeze "
16, 20640, Text_t, "up"
16, 20880, Text_t, "on "
16, 21840, Text_t, "a "
16, 22080, Text_t, "brand"
16, 22560, Text_t, "new "
16, 23040, Text_t, "day "
16, 25680, Text_t, "your "
16, 25920, Text_t, "/touch "
16, 26160, Text_t, "and "
16, 26400, Text_t, "what "
16, 26640, Text_t, "it "
16, 26880, Text_t, "does "
16, 27120, Text_t, "to "
16, 27360, Text_t, "me "
16, 28320, Text_t, "like "
16, 28560, Text_t, "a "
16, 28800, Text_t, "flow"
16, 29520, Text_t, "er "
16, 29760, Text_t, "needs "
16, 30000, Text_t, "its "
16, 30240, Text_t, "rain "
16, 31680, Text_t, "we "
16, 32040, Text_t, "\\are "
16, 32400, Text_t, "like "
16, 32640, Text_t, "one "
16, 33600, Text_t, "of "
16, 33840, Text_t, "a "
16, 34080, Text_t, "kind "
16, 36000, Text_t, "true "
16, 36240, Text_t, "love "
16, 36960, Text_t, "is "
16, 37200, Text_t, "hard "
16, 37680, Text_t, "to "
16, 37920, Text_t, "find "
16, 39360, Text_t, "/I "
16, 39720, Text_t, "can't "
16, 40080, Text_t, "go "
16, 40320, Text_t, "on "
16, 41520, Text_t, "an"
16, 41760, Text_t, "oth"
16, 42000, Text_t, "er "
16, 42240, Text_t, "day "
16, 43920, Text_t, "just "
16, 44160, Text_t, "/hear "
16, 44640, Text_t, "me "
16, 44880, Text_t, "when "
16, 45600, Text_t, "I "
16, 45840, Text_t, "say "
16, 47040, Text_t, "I "
16, 47400, Text_t, "\\ask "
16, 47760, Text_t, "of "
16, 48000, Text_t, "you "
16, 49200, Text_t, "would "
16, 49440, Text_t, "you "
16, 49680, Text_t, "love "
16, 50160, Text_t, "me "
16, 51600, Text_t, "/if "
16, 51840, Text_t, "noth"
16, 52320, Text_t, "ing "
16, 52560, Text_t, "else "
16, 53040, Text_t, "went "
16, 53280, Text_t, "right "
16, 54480, Text_t, "and "
16, 54720, Text_t, "/I "
16, 55080, Text_t, "ask "
16, 55440, Text_t, "of "
16, 55680, Text_t, "you "
16, 56880, Text_t, "would "
16, 57120, Text_t, "you "
16, 57360, Text_t, "hold "
16, 57840, Text_t, "me "
16, 59280, Text_t, "for"
16, 59520, Text_t, "\\ev"
16, 60000, Text_t, "er "
16, 60240, Text_t, "in "
16, 60720, Text_t, "your "
16, 61200, Text_t, "life "
16, 62400, Text_t, "/don't "
16, 62760, Text_t, "let "
16, 63120, Text_t, "m e"
16, 63360, Text_t, "fall "
16, 66480, Text_t, "'cause "
16, 66720, Text_t, "I "
16, 66960, Text_t, "can "
16, 67200, Text_t, "on"
16, 67680, Text_t, "ly "
16, 67920, Text_t, "give "
16, 68400, Text_t, "my "
16, 68880, Text_t, "all "
16, 71040, Text_t, "here "
16, 72000, Text_t, "/I "
16, 72720, Text_t, "am "
16, 75840, Text_t, "I "
16, 76320, Text_t, "\\ask "
16, 76560, Text_t, "of "
16, 76800, Text_t, "you "
16, 80640, Text_t, "ah "
16, 82320, Text_t, "ah "
16, 85200, Text_t, "I "
16, 85440, Text_t, "/found "
16, 85680, Text_t, "the "
16, 85920, Text_t, "place "
16, 86160, Text_t, "where "
16, 86400, Text_t, "I "
16, 86640, Text_t, "be"
16, 86880, Text_t, "long "
16, 88080, Text_t, "it's "
16, 88320, Text_t, "right "
16, 89040, Text_t, "here "
16, 89280, Text_t, "next "
16, 90000, Text_t, "to "
16, 90240, Text_t, "you "
16, 92640, Text_t, "and "
16, 93120, Text_t, "/noth"
16, 93360, Text_t, "ing "
16, 93600, Text_t, "else "
16, 94080, Text_t, "mat"
16, 94320, Text_t, "ters "
16, 94560, Text_t, "now "
16, 95760, Text_t, "with "
16, 96000, Text_t, "all "
16, 97200, Text_t, "we've "
16, 97440, Text_t, "been "
16, 97680, Text_t, "through "
16, 98880, Text_t, "I "
16, 99240, Text_t, "\\can't "
16, 99600, Text_t, "go "
16, 99840, Text_t, "on "
16, 101040, Text_t, "tryin' "
16, 101280, Text_t, "to "
16, 101520, Text_t, "de"
16, 101760, Text_t, "ny "
16, 103440, Text_t, "just "
16, 103680, Text_t, "/what "
16, 104160, Text_t, "I "
16, 104400, Text_t, "feel "
16, 104880, Text_t, "in"
16, 105120, Text_t, "side "
16, 106560, Text_t, "but "
16, 106920, Text_t, "/now "
16, 107280, Text_t, "be"
16, 107520, Text_t, "fore "
16, 108720, Text_t, "I "
16, 109200, Text_t, "let "
16, 109440, Text_t, "go "
16, 111120, Text_t, "you "
16, 111360, Text_t, "got"
16, 112080, Text_t, "ta "
16, 112320, Text_t, "let "
16, 112800, Text_t, "me "
16, 113040, Text_t, "know "
16, 114240, Text_t, "I "
16, 114600, Text_t, "\\ask "
16, 114960, Text_t, "of "
16, 115200, Text_t, "you "
16, 116400, Text_t, "would "
16, 116640, Text_t, "you "
16, 116880, Text_t, "love "
16, 117360, Text_t, "me "
16, 118800, Text_t, "/if "
16, 119040, Text_t, "noth"
16, 119520, Text_t, "ing "
16, 119760, Text_t, "else "
16, 120240, Text_t, "went "
16, 120480, Text_t, "right "
16, 121920, Text_t, "I "
16, 122280, Text_t, "/ask "
16, 122640, Text_t, "of "
16, 122880, Text_t, "you "
16, 124080, Text_t, "would "
16, 124320, Text_t, "you "
16, 124560, Text_t, "hold "
16, 125040, Text_t, "me "
16, 126480, Text_t, "for"
16, 126720, Text_t, "\\ev"
16, 127200, Text_t, "er "
16, 127440, Text_t, "in "
16, 127920, Text_t, "your "
16, 128400, Text_t, "life "
16, 129600, Text_t, "/don't "
16, 129960, Text_t, "let "
16, 130320, Text_t, "m e"
16, 131040, Text_t, "fall "
16, 134160, Text_t, "'cause "
16, 134400, Text_t, "I "
16, 134640, Text_t, "can "
16, 134880, Text_t, "on"
16, 135120, Text_t, "ly "
16, 135360, Text_t, "give "
16, 136080, Text_t, "my "
16, 136320, Text_t, "all "
16, 138240, Text_t, "here "
16, 139200, Text_t, "/I "
16, 139920, Text_t, "am "
16, 142560, Text_t, "I "
16, 142800, Text_t, "\\ask "
16, 143520, Text_t, "of "
16, 143760, Text_t, "you "
16, 147360, Text_t, "yes I "
16, 147600, Text_t, "do "
16, 150240, Text_t, "oh "
16, 151680, Text_t, "yeah "
16, 153120, Text_t, "you "
16, 153360, Text_t, "you "
16, 156720, Text_t, "oh "
16, 157440, Text_t, "oh "
16, 158160, Text_t, "I "
16, 158400, Text_t, "/nev"
16, 158640, Text_t, "er "
16, 158880, Text_t, "real"
16, 159120, Text_t, "ly "
16, 159360, Text_t, "thought "
16, 160080, Text_t, "that "
16, 160800, Text_t, "you'd "
16, 161040, Text_t, "be "
16, 163200, Text_t, "all "
16, 164640, Text_t, "/to "
16, 164880, Text_t, "me "
16, 166560, Text_t, "I'd "
16, 166800, Text_t, "\\give "
16, 167040, Text_t, "eve"
16, 167520, Text_t, "ry"
16, 168000, Text_t, "thing "
16, 168480, Text_t, "and "
16, 168720, Text_t, "all "
16, 169200, Text_t, "I "
16, 169680, Text_t, "am "
16, 170640, Text_t, "to "
16, 170880, Text_t, "you "
16, 172560, Text_t, "/oh "
16, 172800, Text_t, "ba"
16, 173280, Text_t, "by "
16, 173520, Text_t, "ba"
16, 174000, Text_t, "by "
16, 174720, Text_t, "I "
16, 175040, Text_t, "know "
16, 175360, Text_t, "you "
16, 175680, Text_t, "feel "
16, 176000, Text_t, "this "
16, 176320, Text_t, "way "
16, 176640, Text_t, "too "
16, 179040, Text_t, "/ooh "
16, 179520, Text_t, "yeah "
16, 180720, Text_t, "ooh "
16, 181440, Text_t, "ooh "
16, 181680, Text_t, "I "
16, 181920, Text_t, "ask "
16, 182160, Text_t, "of "
16, 182400, Text_t, "you "
16, 184080, Text_t, "when "
16, 184320, Text_t, "noth"
16, 184560, Text_t, "ing "
16, 184800, Text_t, "else "
16, 185040, Text_t, "went "
16, 185280, Text_t, "right "
16, 187680, Text_t, "I "
16, 188160, Text_t, "\\ask "
16, 188880, Text_t, "of "
16, 189120, Text_t, "you "
16, 191760, Text_t, "for"
16, 192000, Text_t, "ev"
16, 192240, Text_t, "er "
16, 192480, Text_t, "in "
16, 192720, Text_t, "your "
16, 192960, Text_t, "life "
16, 193680, Text_t, "/oh "
16, 193920, Text_t, "oh "
16, 197520, Text_t, "'cause "
16, 197760, Text_t, "I "
16, 198000, Text_t, "can "
16, 198240, Text_t, "on"
16, 198480, Text_t, "ly "
16, 198720, Text_t, "give "
16, 199200, Text_t, "my "
16, 199440, Text_t, "all "
16, 201600, Text_t, "I "
16, 202560, Text_t, "/can't "
16, 204000, Text_t, "pre"
16, 204480, Text_t, "tend "
16, 209760, Text_t, "I "
16, 210240, Text_t, "\\ask "
16, 211680, Text_t, "of "
16, 211920, Text_t, "you "
16, 215040, Text_t, "hm "
16, 215520, Text_t, "hm "
16, 217440, Text_t, "I "
16, 218880, Text_t, "ask "
16, 219600, Text_t, "of "
16, 219840, Text_t, "you "
16, 223440, Text_t, "oh "
16, 223680, Text_t, "yeah "
16, 236209, End_track
17, 0, Start_track
17, 375, Control_c, 1, 0, 0
17, 380, Control_c, 1, 32, 0
17, 385, Program_c, 1, 33
17, 390, Control_c, 1, 7, 127
17, 395, Control_c, 1, 10, 64
17, 400, Control_c, 1, 11, 127
17, 405, Control_c, 1, 91, 60
17, 410, Control_c, 1, 93, 0
17, 415, Control_c, 1, 74, 64
17, 420, Control_c, 1, 71, 64
17, 425, Control_c, 1, 73, 64
17, 430, Control_c, 1, 72, 64
17, 435, Control_c, 1, 94, 0
17, 46800, Note_on_c, 1, 26, 123
17, 47036, Note_off_c, 1, 26, 0
17, 47040, Note_on_c, 1, 38, 123
17, 47396, Note_off_c, 1, 38, 0
17, 47400, Note_on_c, 1, 33, 119
17, 47756, Note_off_c, 1, 33, 0
17, 47760, Note_on_c, 1, 26, 109
17, 47996, Note_off_c, 1, 26, 0
17, 48000, Note_on_c, 1, 36, 121
17, 49676, Note_off_c, 1, 36, 0
17, 49680, Note_on_c, 1, 31, 114
17, 49916, Note_off_c, 1, 31, 0
17, 49920, Note_on_c, 1, 36, 117
17, 51356, Note_off_c, 1, 36, 0
17, 51360, Note_on_c, 1, 31, 113
17, 51596, Note_off_c, 1, 31, 0
17, 51600, Note_on_c, 1, 36, 116
17, 51836, Note_off_c, 1, 36, 0
17, 51840, Note_on_c, 1, 35, 121
17, 53239, Note_off_c, 1, 35, 0
17, 53280, Note_on_c, 1, 35, 117
17, 53499, Note_off_c, 1, 35, 0
17, 53520, Note_on_c, 1, 35, 113
17, 53730, Note_off_c, 1, 35, 0
17, 53760, Note_on_c, 1, 28, 117
17, 54678, Note_off_c, 1, 28, 0
17, 54720, Note_on_c, 1, 40, 117
17, 55076, Note_off_c, 1, 40, 0
17, 55080, Note_on_c, 1, 38, 113
17, 55436, Note_off_c, 1, 38, 0
17, 55440, Note_on_c, 1, 35, 109
17, 55676, Note_off_c, 1, 35, 0
17, 55680, Note_on_c, 1, 36, 119
17, 57288, Note_off_c, 1, 36, 0
17, 57360, Note_on_c, 1, 31, 116
17, 57582, Note_off_c, 1, 31, 0
17, 57600, Note_on_c, 1, 36, 117
17, 58781, Note_off_c, 1, 36, 0
17, 58800, Note_on_c, 1, 31, 116
17, 59004, Note_off_c, 1, 31, 0
17, 59040, Note_on_c, 1, 36, 119
17, 59238, Note_off_c, 1, 36, 0
17, 59280, Note_on_c, 1, 36, 114
17, 59506, Note_off_c, 1, 36, 0
17, 59520, Note_on_c, 1, 35, 119
17, 61171, Note_off_c, 1, 35, 0
17, 61200, Note_on_c, 1, 35, 112
17, 61433, Note_off_c, 1, 35, 0
17, 61440, Note_on_c, 1, 31, 116
17, 62366, Note_off_c, 1, 31, 0
17, 62400, Note_on_c, 1, 43, 121
17, 62756, Note_off_c, 1, 43, 0
17, 62760, Note_on_c, 1, 41, 113
17, 63116, Note_off_c, 1, 41, 0
17, 63120, Note_on_c, 1, 38, 111
17, 63356, Note_off_c, 1, 38, 0
17, 63360, Note_on_c, 1, 36, 121
17, 65036, Note_off_c, 1, 36, 0
17, 65040, Note_on_c, 1, 31, 114
17, 65276, Note_off_c, 1, 31, 0
17, 65280, Note_on_c, 1, 36, 117
17, 66716, Note_off_c, 1, 36, 0
17, 66720, Note_on_c, 1, 31, 113
17, 66956, Note_off_c, 1, 31, 0
17, 66960, Note_on_c, 1, 36, 116
17, 67196, Note_off_c, 1, 36, 0
17, 67200, Note_on_c, 1, 35, 117
17, 68593, Note_off_c, 1, 35, 0
17, 68640, Note_on_c, 1, 35, 123
17, 68851, Note_off_c, 1, 35, 0
17, 68880, Note_on_c, 1, 30, 113
17, 69085, Note_off_c, 1, 30, 0
17, 69120, Note_on_c, 1, 28, 114
17, 70528, Note_off_c, 1, 28, 0
17, 70560, Note_on_c, 1, 40, 114
17, 70785, Note_off_c, 1, 40, 0
17, 70800, Note_on_c, 1, 28, 114
17, 71016, Note_off_c, 1, 28, 0
17, 71040, Note_on_c, 1, 33, 121
17, 71979, Note_off_c, 1, 33, 0
17, 72000, Note_on_c, 1, 35, 113
17, 72941, Note_off_c, 1, 35, 0
17, 72960, Note_on_c, 1, 36, 110
17, 75509, Control_c, 1, 7, 126
17, 75630, Control_c, 1, 7, 124
17, 75760, Control_c, 1, 7, 123
17, 75884, Control_c, 1, 7, 121
17, 75978, Control_c, 1, 7, 120
17, 76066, Control_c, 1, 7, 118
17, 76134, Control_c, 1, 7, 117
17, 76188, Control_c, 1, 7, 115
17, 76241, Control_c, 1, 7, 114
17, 76284, Control_c, 1, 7, 112
17, 76337, Control_c, 1, 7, 111
17, 76375, Control_c, 1, 7, 109
17, 76409, Control_c, 1, 7, 108
17, 76444, Control_c, 1, 7, 106
17, 76500, Control_c, 1, 7, 103
17, 76554, Control_c, 1, 7, 100
17, 76605, Control_c, 1, 7, 97
17, 76648, Control_c, 1, 7, 94
17, 76688, Control_c, 1, 7, 91
17, 76719, Control_c, 1, 7, 86
17, 76727, Note_off_c, 1, 36, 0
17, 76753, Control_c, 1, 7, 82
17, 76795, Control_c, 1, 7, 127
17, 76800, Note_on_c, 1, 35, 103
17, 78703, Note_off_c, 1, 35, 0
17, 78720, Note_on_c, 1, 28, 89
17, 80623, Note_off_c, 1, 28, 0
17, 80640, Note_on_c, 1, 27, 100
17, 82542, Note_off_c, 1, 27, 0
17, 82560, Note_on_c, 1, 26, 98
17, 84468, Note_off_c, 1, 26, 0
17, 84480, Note_on_c, 1, 35, 103
17, 86379, Note_off_c, 1, 35, 0
17, 86400, Note_on_c, 1, 28, 104
17, 88300, Note_off_c, 1, 28, 0
17, 88320, Note_on_c, 1, 33, 107
17, 90231, Note_off_c, 1, 33, 0
17, 90240, Note_on_c, 1, 38, 110
17, 91187, Note_off_c, 1, 38, 0
17, 91200, Note_on_c, 1, 36, 107
17, 92151, Note_off_c, 1, 36, 0
17, 92160, Note_on_c, 1, 35, 112
17, 93797, Note_off_c, 1, 35, 0
17, 93840, Note_on_c, 1, 35, 113
17, 94063, Note_off_c, 1, 35, 0
17, 94080, Note_on_c, 1, 28, 104
17, 95980, Note_off_c, 1, 28, 0
17, 96000, Note_on_c, 1, 33, 112
17, 97906, Note_off_c, 1, 33, 0
17, 97920, Note_on_c, 1, 26, 113
17, 98876, Note_off_c, 1, 26, 0
17, 98880, Note_on_c, 1, 36, 113
17, 99116, Note_off_c, 1, 36, 0
17, 99120, Note_on_c, 1, 33, 113
17, 99356, Note_off_c, 1, 33, 0
17, 99360, Note_on_c, 1, 24, 111
17, 99836, Note_off_c, 1, 24, 0
17, 99840, Note_on_c, 1, 35, 116
17, 101505, Note_off_c, 1, 35, 0
17, 101520, Note_on_c, 1, 35, 117
17, 101727, Note_off_c, 1, 35, 0
17, 101760, Note_on_c, 1, 28, 110
17, 103175, Note_off_c, 1, 28, 0
17, 103200, Note_on_c, 1, 40, 109
17, 103418, Note_off_c, 1, 40, 0
17, 103440, Note_on_c, 1, 28, 110
17, 103656, Note_off_c, 1, 28, 0
17, 103680, Note_on_c, 1, 33, 113
17, 105352, Note_off_c, 1, 33, 0
17, 105360, Note_on_c, 1, 35, 112
17, 105590, Note_off_c, 1, 35, 0
17, 105600, Note_on_c, 1, 36, 107
17, 106484, Note_off_c, 1, 36, 0
17, 106560, Note_on_c, 1, 36, 119
17, 106796, Note_off_c, 1, 36, 0
17, 106800, Note_on_c, 1, 31, 113
17, 107036, Note_off_c, 1, 31, 0
17, 107040, Note_on_c, 1, 27, 111
17, 107276, Note_off_c, 1, 27, 0
17, 107280, Note_on_c, 1, 24, 114
17, 107516, Note_off_c, 1, 24, 0
17, 107520, Note_on_c, 1, 35, 121
17, 109158, Note_off_c, 1, 35, 0
17, 109200, Note_on_c, 1, 35, 112
17, 109412, Note_off_c, 1, 35, 0
17, 109440, Note_on_c, 1, 28, 114
17, 110852, Note_off_c, 1, 28, 0
17, 110880, Note_on_c, 1, 28, 109
17, 111099, Note_off_c, 1, 28, 0
17, 111120, Note_on_c, 1, 31, 113
17, 111337, Note_off_c, 1, 31, 0
17, 111360, Note_on_c, 1, 33, 121
17, 112316, Note_off_c, 1, 33, 0
17, 112320, Note_on_c, 1, 35, 117
17, 112996, Note_off_c, 1, 35, 0
17, 113040, Note_on_c, 1, 35, 112
17, 113254, Note_off_c, 1, 35, 0
17, 113280, Note_on_c, 1, 36, 112
17, 114210, Note_off_c, 1, 36, 0
17, 114240, Note_on_c, 1, 38, 121
17, 114586, Note_off_c, 1, 38, 0
17, 114600, Note_on_c, 1, 26, 121
17, 114945, Note_off_c, 1, 26, 0
17, 114960, Note_on_c, 1, 26, 121
17, 115182, Note_off_c, 1, 26, 0
17, 115200, Note_on_c, 1, 36, 121
17, 116876, Note_off_c, 1, 36, 0
17, 116880, Note_on_c, 1, 31, 114
17, 117116, Note_off_c, 1, 31, 0
17, 117120, Note_on_c, 1, 36, 117
17, 118556, Note_off_c, 1, 36, 0
17, 118560, Note_on_c, 1, 31, 113
17, 118796, Note_off_c, 1, 31, 0
17, 118800, Note_on_c, 1, 24, 114
17, 119036, Note_off_c, 1, 24, 0
17, 119040, Note_on_c, 1, 35, 121
17, 120439, Note_off_c, 1, 35, 0
17, 120480, Note_on_c, 1, 35, 117
17, 120699, Note_off_c, 1, 35, 0
17, 120720, Note_on_c, 1, 35, 113
17, 120930, Note_off_c, 1, 35, 0
17, 120960, Note_on_c, 1, 28, 117
17, 121878, Note_off_c, 1, 28, 0
17, 121920, Note_on_c, 1, 40, 117
17, 122276, Note_off_c, 1, 40, 0
17, 122280, Note_on_c, 1, 38, 113
17, 122636, Note_off_c, 1, 38, 0
17, 122640, Note_on_c, 1, 36, 117
17, 122876, Note_off_c, 1, 36, 0
17, 122880, Note_on_c, 1, 36, 119
17, 124488, Note_off_c, 1, 36, 0
17, 124560, Note_on_c, 1, 31, 116
17, 124782, Note_off_c, 1, 31, 0
17, 124800, Note_on_c, 1, 36, 117
17, 125981, Note_off_c, 1, 36, 0
17, 126000, Note_on_c, 1, 31, 116
17, 126204, Note_off_c, 1, 31, 0
17, 126240, Note_on_c, 1, 36, 119
17, 126438, Note_off_c, 1, 36, 0
17, 126480, Note_on_c, 1, 36, 114
17, 126706, Note_off_c, 1, 36, 0
17, 126720, Note_on_c, 1, 35, 119
17, 128371, Note_off_c, 1, 35, 0
17, 128400, Note_on_c, 1, 35, 112
17, 128633, Note_off_c, 1, 35, 0
17, 128640, Note_on_c, 1, 31, 116
17, 129566, Note_off_c, 1, 31, 0
17, 129600, Note_on_c, 1, 43, 121
17, 129956, Note_off_c, 1, 43, 0
17, 129960, Note_on_c, 1, 41, 113
17, 130316, Note_off_c, 1, 41, 0
17, 130320, Note_on_c, 1, 38, 111
17, 130556, Note_off_c, 1, 38, 0
17, 130560, Note_on_c, 1, 36, 121
17, 132236, Note_off_c, 1, 36, 0
17, 132240, Note_on_c, 1, 31, 114
17, 132476, Note_off_c, 1, 31, 0
17, 132480, Note_on_c, 1, 36, 117
17, 133916, Note_off_c, 1, 36, 0
17, 133920, Note_on_c, 1, 31, 113
17, 134156, Note_off_c, 1, 31, 0
17, 134160, Note_on_c, 1, 24, 108
17, 134396, Note_off_c, 1, 24, 0
17, 134400, Note_on_c, 1, 35, 117
17, 135793, Note_off_c, 1, 35, 0
17, 135840, Note_on_c, 1, 35, 123
17, 136051, Note_off_c, 1, 35, 0
17, 136080, Note_on_c, 1, 30, 113
17, 136285, Note_off_c, 1, 30, 0
17, 136320, Note_on_c, 1, 28, 114
17, 137728, Note_off_c, 1, 28, 0
17, 137760, Note_on_c, 1, 40, 114
17, 137985, Note_off_c, 1, 40, 0
17, 138000, Note_on_c, 1, 28, 114
17, 138216, Note_off_c, 1, 28, 0
17, 138240, Note_on_c, 1, 33, 121
17, 139179, Note_off_c, 1, 33, 0
17, 139200, Note_on_c, 1, 35, 113
17, 140141, Note_off_c, 1, 35, 0
17, 140160, Note_on_c, 1, 36, 110
17, 142709, Control_c, 1, 7, 126
17, 142830, Control_c, 1, 7, 124
17, 142960, Control_c, 1, 7, 123
17, 143084, Control_c, 1, 7, 121
17, 143178, Control_c, 1, 7, 120
17, 143266, Control_c, 1, 7, 118
17, 143334, Control_c, 1, 7, 117
17, 143388, Control_c, 1, 7, 115
17, 143441, Control_c, 1, 7, 114
17, 143484, Control_c, 1, 7, 112
17, 143537, Control_c, 1, 7, 111
17, 143575, Control_c, 1, 7, 109
17, 143609, Control_c, 1, 7, 108
17, 143644, Control_c, 1, 7, 106
17, 143700, Control_c, 1, 7, 103
17, 143754, Control_c, 1, 7, 100
17, 143805, Control_c, 1, 7, 97
17, 143848, Control_c, 1, 7, 94
17, 143888, Control_c, 1, 7, 91
17, 143919, Control_c, 1, 7, 86
17, 143927, Note_off_c, 1, 36, 0
17, 143953, Control_c, 1, 7, 82
17, 143995, Control_c, 1, 7, 127
17, 144000, Note_on_c, 1, 35, 103
17, 145903, Note_off_c, 1, 35, 0
17, 145920, Note_on_c, 1, 28, 89
17, 147823, Note_off_c, 1, 28, 0
17, 147840, Note_on_c, 1, 27, 100
17, 149742, Note_off_c, 1, 27, 0
17, 149760, Note_on_c, 1, 26, 98
17, 151668, Note_off_c, 1, 26, 0
17, 151680, Note_on_c, 1, 35, 112
17, 153326, Note_off_c, 1, 35, 0
17, 153360, Note_on_c, 1, 35, 107
17, 153589, Note_off_c, 1, 35, 0
17, 153600, Note_on_c, 1, 28, 89
17, 155503, Note_off_c, 1, 28, 0
17, 155520, Note_on_c, 1, 27, 105
17, 157114, Note_off_c, 1, 27, 0
17, 157200, Note_on_c, 1, 27, 109
17, 157391, Note_off_c, 1, 27, 0
17, 157440, Note_on_c, 1, 26, 113
17, 157634, Note_off_c, 1, 26, 0
17, 157680, Note_on_c, 1, 26, 119
17, 157879, Note_off_c, 1, 26, 0
17, 157920, Note_on_c, 1, 26, 117
17, 158370, Note_off_c, 1, 26, 0
17, 158400, Note_on_c, 1, 26, 114
17, 158620, Note_off_c, 1, 26, 0
17, 158640, Note_on_c, 1, 26, 111
17, 158844, Note_off_c, 1, 26, 0
17, 158880, Note_on_c, 1, 26, 116
17, 159337, Note_off_c, 1, 26, 0
17, 159360, Note_on_c, 1, 29, 117
17, 161039, Control_c, 1, 7, 125
17, 161103, Control_c, 1, 7, 124
17, 161173, Control_c, 1, 7, 122
17, 161240, Note_off_c, 1, 29, 0
17, 161280, Note_on_c, 1, 24, 96
17, 161290, Control_c, 1, 7, 121
17, 161399, Control_c, 1, 7, 119
17, 162050, Control_c, 1, 7, 118
17, 162216, Note_off_c, 1, 24, 0
17, 162240, Note_on_c, 1, 36, 104
17, 162466, Note_off_c, 1, 36, 0
17, 162480, Note_on_c, 1, 31, 114
17, 162700, Note_off_c, 1, 31, 0
17, 162720, Note_on_c, 1, 24, 105
17, 163057, Note_off_c, 1, 24, 0
17, 163195, Control_c, 1, 7, 127
17, 163200, Note_on_c, 1, 27, 116
17, 164316, Note_off_c, 1, 27, 0
17, 164400, Note_on_c, 1, 27, 110
17, 164832, Note_off_c, 1, 27, 0
17, 164880, Note_on_c, 1, 27, 102
17, 165085, Note_off_c, 1, 27, 0
17, 165120, Note_on_c, 1, 34, 114
17, 166026, Note_off_c, 1, 34, 0
17, 166080, Note_on_c, 1, 34, 112
17, 166312, Note_off_c, 1, 34, 0
17, 166320, Note_on_c, 1, 33, 113
17, 166531, Note_off_c, 1, 33, 0
17, 166560, Note_on_c, 1, 31, 109
17, 166771, Note_off_c, 1, 31, 0
17, 166800, Note_on_c, 1, 29, 108
17, 167031, Note_off_c, 1, 29, 0
17, 167040, Note_on_c, 1, 29, 111
17, 168650, Note_off_c, 1, 29, 0
17, 168720, Note_on_c, 1, 29, 114
17, 168937, Note_off_c, 1, 29, 0
17, 168960, Note_on_c, 1, 24, 117
17, 170582, Note_off_c, 1, 24, 0
17, 170640, Note_on_c, 1, 24, 108
17, 170860, Note_off_c, 1, 24, 0
17, 170880, Note_on_c, 1, 26, 119
17, 172308, Note_off_c, 1, 26, 0
17, 172320, Note_on_c, 1, 33, 117
17, 172535, Note_off_c, 1, 33, 0
17, 172560, Note_on_c, 1, 26, 114
17, 172775, Note_off_c, 1, 26, 0
17, 172800, Note_on_c, 1, 26, 119
17, 173491, Note_off_c, 1, 26, 0
17, 173520, Note_on_c, 1, 38, 117
17, 173989, Note_off_c, 1, 38, 0
17, 174000, Note_on_c, 1, 35, 112
17, 174225, Note_off_c, 1, 35, 0
17, 174240, Note_on_c, 1, 33, 113
17, 174457, Note_off_c, 1, 33, 0
17, 174480, Note_on_c, 1, 26, 114
17, 174699, Note_off_c, 1, 26, 0
17, 174720, Note_on_c, 1, 26, 121
17, 175004, Note_off_c, 1, 26, 0
17, 175040, Note_on_c, 1, 26, 119
17, 175307, Note_off_c, 1, 26, 0
17, 175360, Note_on_c, 1, 26, 119
17, 175641, Note_off_c, 1, 26, 0
17, 175680, Note_on_c, 1, 26, 121
17, 175959, Note_off_c, 1, 26, 0
17, 176000, Note_on_c, 1, 26, 121
17, 176279, Note_off_c, 1, 26, 0
17, 176320, Note_on_c, 1, 26, 121
17, 176594, Note_off_c, 1, 26, 0
17, 176640, Note_on_c, 1, 26, 121
17, 176995, Note_off_c, 1, 26, 0
17, 177600, Note_on_c, 1, 26, 123
17, 177884, Note_off_c, 1, 26, 0
17, 177960, Note_on_c, 1, 26, 121
17, 178217, Note_off_c, 1, 26, 0
17, 178320, Note_on_c, 1, 26, 119
17, 178524, Note_off_c, 1, 26, 0
17, 178560, Note_on_c, 1, 24, 114
17, 180236, Note_off_c, 1, 24, 0
17, 180240, Note_on_c, 1, 31, 113
17, 180452, Note_off_c, 1, 31, 0
17, 180480, Note_on_c, 1, 36, 119
17, 181916, Note_off_c, 1, 36, 0
17, 181920, Note_on_c, 1, 31, 116
17, 182135, Note_off_c, 1, 31, 0
17, 182160, Note_on_c, 1, 24, 114
17, 182387, Note_off_c, 1, 24, 0
17, 182400, Note_on_c, 1, 35, 119
17, 183793, Note_off_c, 1, 35, 0
17, 183840, Note_on_c, 1, 35, 114
17, 184055, Note_off_c, 1, 35, 0
17, 184080, Note_on_c, 1, 30, 109
17, 184296, Note_off_c, 1, 30, 0
17, 184320, Note_on_c, 1, 28, 117
17, 185196, Note_off_c, 1, 28, 0
17, 185280, Note_on_c, 1, 40, 119
17, 185598, Note_off_c, 1, 40, 0
17, 185640, Note_on_c, 1, 38, 117
17, 185929, Note_off_c, 1, 38, 0
17, 186000, Note_on_c, 1, 36, 108
17, 186205, Note_off_c, 1, 36, 0
17, 186240, Note_on_c, 1, 36, 117
17, 187850, Note_off_c, 1, 36, 0
17, 187920, Note_on_c, 1, 31, 116
17, 188113, Note_off_c, 1, 31, 0
17, 188160, Note_on_c, 1, 36, 116
17, 189032, Note_off_c, 1, 36, 0
17, 189120, Note_on_c, 1, 36, 117
17, 189342, Note_off_c, 1, 36, 0
17, 189360, Note_on_c, 1, 31, 119
17, 189583, Note_off_c, 1, 31, 0
17, 189600, Note_on_c, 1, 24, 116
17, 189824, Note_off_c, 1, 24, 0
17, 189840, Note_on_c, 1, 36, 119
17, 190068, Note_off_c, 1, 36, 0
17, 190080, Note_on_c, 1, 35, 119
17, 191741, Note_off_c, 1, 35, 0
17, 191760, Note_on_c, 1, 35, 114
17, 191984, Note_off_c, 1, 35, 0
17, 192000, Note_on_c, 1, 31, 119
17, 192886, Note_off_c, 1, 31, 0
17, 192960, Note_on_c, 1, 43, 121
17, 193316, Note_off_c, 1, 43, 0
17, 193320, Note_on_c, 1, 41, 111
17, 193676, Note_off_c, 1, 41, 0
17, 193680, Note_on_c, 1, 38, 109
17, 193898, Note_off_c, 1, 38, 0
17, 193920, Note_on_c, 1, 36, 119
17, 195550, Note_off_c, 1, 36, 0
17, 195600, Note_on_c, 1, 31, 116
17, 195835, Note_off_c, 1, 31, 0
17, 195840, Note_on_c, 1, 36, 119
17, 197275, Note_off_c, 1, 36, 0
17, 197280, Note_on_c, 1, 31, 119
17, 197511, Note_off_c, 1, 31, 0
17, 197520, Note_on_c, 1, 24, 114
17, 197740, Note_off_c, 1, 24, 0
17, 197760, Note_on_c, 1, 35, 117
17, 199160, Note_off_c, 1, 35, 0
17, 199200, Note_on_c, 1, 35, 114
17, 199419, Note_off_c, 1, 35, 0
17, 199440, Note_on_c, 1, 30, 104
17, 199661, Note_off_c, 1, 30, 0
17, 199680, Note_on_c, 1, 28, 119
17, 201095, Note_off_c, 1, 28, 0
17, 201120, Note_on_c, 1, 40, 114
17, 201344, Note_off_c, 1, 40, 0
17, 201360, Note_on_c, 1, 28, 116
17, 201591, Note_off_c, 1, 28, 0
17, 201600, Note_on_c, 1, 33, 116
17, 202529, Note_off_c, 1, 33, 0
17, 202560, Note_on_c, 1, 35, 111
17, 203514, Note_off_c, 1, 35, 0
17, 203520, Note_on_c, 1, 36, 108
17, 205673, Control_c, 1, 7, 125
17, 206073, Control_c, 1, 7, 124
17, 206468, Control_c, 1, 7, 122
17, 206770, Control_c, 1, 7, 121
17, 207068, Control_c, 1, 7, 119
17, 207254, Control_c, 1, 7, 118
17, 207427, Control_c, 1, 7, 116
17, 207620, Control_c, 1, 7, 115
17, 207778, Control_c, 1, 7, 113
17, 207935, Control_c, 1, 7, 112
17, 208035, Control_c, 1, 7, 110
17, 208135, Control_c, 1, 7, 109
17, 208266, Control_c, 1, 7, 107
17, 208411, Control_c, 1, 7, 106
17, 208519, Control_c, 1, 7, 104
17, 208629, Control_c, 1, 7, 103
17, 208733, Control_c, 1, 7, 101
17, 208815, Control_c, 1, 7, 100
17, 208904, Control_c, 1, 7, 98
17, 208985, Control_c, 1, 7, 97
17, 209058, Control_c, 1, 7, 95
17, 209133, Control_c, 1, 7, 94
17, 209207, Control_c, 1, 7, 92
17, 209286, Control_c, 1, 7, 91
17, 209360, Control_c, 1, 7, 89
17, 209430, Control_c, 1, 7, 88
17, 209515, Control_c, 1, 7, 86
17, 209616, Control_c, 1, 7, 85
17, 209701, Control_c, 1, 7, 83
17, 209780, Control_c, 1, 7, 82
17, 209847, Control_c, 1, 7, 80
17, 209905, Control_c, 1, 7, 79
17, 209966, Control_c, 1, 7, 77
17, 210019, Control_c, 1, 7, 76
17, 210064, Control_c, 1, 7, 74
17, 210147, Control_c, 1, 7, 71
17, 210203, Control_c, 1, 7, 70
17, 210261, Control_c, 1, 7, 68
17, 210314, Control_c, 1, 7, 67
17, 210352, Control_c, 1, 7, 65
17, 210422, Control_c, 1, 7, 62
17, 210458, Control_c, 1, 7, 61
17, 210490, Control_c, 1, 7, 59
17, 210548, Control_c, 1, 7, 56
17, 210586, Note_off_c, 1, 36, 0
17, 210610, Control_c, 1, 7, 53
17, 210645, Control_c, 1, 7, 52
17, 210694, Control_c, 1, 7, 49
17, 210727, Control_c, 1, 7, 46
17, 210772, Control_c, 1, 7, 43
17, 210810, Control_c, 1, 7, 40
17, 210865, Control_c, 1, 7, 36
17, 210899, Control_c, 1, 7, 33
17, 210929, Control_c, 1, 7, 30
17, 210968, Control_c, 1, 7, 25
17, 211011, Control_c, 1, 7, 22
17, 211092, Control_c, 1, 7, 24
17, 211195, Control_c, 1, 7, 127
17, 236204, Control_c, 1, 7, 127
17, 236204, Control_c, 1, 121, 0
17, 236209, End_track
18, 0, Start_track
18, 445, Control_c, 2, 0, 0
18, 450, Control_c, 2, 32, 0
18, 455, Program_c, 2, 0
18, 460, Control_c, 2, 7, 127
18, 465, Control_c, 2, 10, 74
18, 470, Control_c, 2, 11, 127
18, 475, Control_c, 2, 91, 67
18, 480, Control_c, 2, 93, 0
18, 485, Control_c, 2, 74, 64
18, 490, Control_c, 2, 71, 64
18, 495, Control_c, 2, 73, 64
18, 500, Control_c, 2, 72, 64
18, 505, Control_c, 2, 94, 0
18, 1920, Note_on_c, 2, 47, 97
18, 1920, Note_on_c, 2, 54, 87
18, 1920, Note_on_c, 2, 57, 111
18, 1920, Note_on_c, 2, 62, 94
18, 2876, Note_off_c, 2, 54, 0
18, 2876, Note_off_c, 2, 57, 0
18, 2876, Note_off_c, 2, 62, 0
18, 2880, Note_on_c, 2, 54, 92
18, 2880, Note_on_c, 2, 57, 111
18, 2880, Note_on_c, 2, 62, 104
18, 3360, Note_on_c, 2, 50, 69
18, 3596, Note_off_c, 2, 54, 0
18, 3596, Note_off_c, 2, 57, 0
18, 3596, Note_off_c, 2, 62, 0
18, 3836, Note_off_c, 2, 47, 0
18, 3836, Note_off_c, 2, 50, 0
18, 3840, Note_on_c, 2, 40, 89
18, 3840, Note_on_c, 2, 52, 89
18, 3840, Note_on_c, 2, 55, 89
18, 3840, Note_on_c, 2, 59, 104
18, 3840, Note_on_c, 2, 62, 100
18, 4316, Note_off_c, 2, 52, 0
18, 4320, Note_on_c, 2, 52, 72
18, 4556, Note_off_c, 2, 55, 0
18, 4556, Note_off_c, 2, 59, 0
18, 4556, Note_off_c, 2, 62, 0
18, 4560, Note_on_c, 2, 55, 83
18, 4560, Note_on_c, 2, 59, 97
18, 4560, Note_on_c, 2, 62, 100
18, 5036, Note_off_c, 2, 52, 0
18, 5280, Note_on_c, 2, 52, 67
18, 5756, Note_off_c, 2, 40, 0
18, 5756, Note_off_c, 2, 52, 0
18, 5756, Note_off_c, 2, 55, 0
18, 5756, Note_off_c, 2, 59, 0
18, 5756, Note_off_c, 2, 62, 0
18, 5760, Note_on_c, 2, 46, 87
18, 5760, Note_on_c, 2, 55, 111
18, 5760, Note_on_c, 2, 58, 97
18, 5760, Note_on_c, 2, 62, 107
18, 6476, Note_off_c, 2, 58, 0
18, 6480, Note_on_c, 2, 60, 89
18, 6956, Note_off_c, 2, 60, 0
18, 6960, Note_on_c, 2, 58, 62
18, 7676, Note_off_c, 2, 46, 0
18, 7676, Note_off_c, 2, 55, 0
18, 7676, Note_off_c, 2, 58, 0
18, 7676, Note_off_c, 2, 62, 0
18, 7680, Note_on_c, 2, 45, 97
18, 7680, Note_on_c, 2, 50, 85
18, 7680, Note_on_c, 2, 52, 87
18, 7680, Note_on_c, 2, 57, 104
18, 8396, Note_off_c, 2, 52, 0
18, 8636, Note_off_c, 2, 57, 0
18, 8640, Note_on_c, 2, 52, 85
18, 8880, Note_on_c, 2, 55, 83
18, 9116, Note_off_c, 2, 55, 0
18, 9120, Note_on_c, 2, 57, 87
18, 9596, Note_off_c, 2, 45, 0
18, 9596, Note_off_c, 2, 50, 0
18, 9596, Note_off_c, 2, 52, 0
18, 9596, Note_off_c, 2, 57, 0
18, 9600, Note_on_c, 2, 47, 97
18, 9600, Note_on_c, 2, 54, 87
18, 9600, Note_on_c, 2, 57, 111
18, 9600, Note_on_c, 2, 62, 94
18, 10556, Note_off_c, 2, 54, 0
18, 10556, Note_off_c, 2, 57, 0
18, 10556, Note_off_c, 2, 62, 0
18, 10560, Note_on_c, 2, 54, 92
18, 10560, Note_on_c, 2, 57, 111
18, 10560, Note_on_c, 2, 62, 104
18, 11040, Note_on_c, 2, 50, 69
18, 11276, Note_off_c, 2, 54, 0
18, 11276, Note_off_c, 2, 57, 0
18, 11276, Note_off_c, 2, 62, 0
18, 11516, Note_off_c, 2, 47, 0
18, 11516, Note_off_c, 2, 50, 0
18, 11520, Note_on_c, 2, 40, 89
18, 11520, Note_on_c, 2, 52, 89
18, 11520, Note_on_c, 2, 55, 89
18, 11520, Note_on_c, 2, 59, 104
18, 11520, Note_on_c, 2, 62, 100
18, 11996, Note_off_c, 2, 52, 0
18, 12000, Note_on_c, 2, 52, 72
18, 12236, Note_off_c, 2, 55, 0
18, 12236, Note_off_c, 2, 59, 0
18, 12236, Note_off_c, 2, 62, 0
18, 12240, Note_on_c, 2, 55, 83
18, 12240, Note_on_c, 2, 59, 97
18, 12240, Note_on_c, 2, 62, 100
18, 12716, Note_off_c, 2, 52, 0
18, 12960, Note_on_c, 2, 52, 67
18, 13436, Note_off_c, 2, 40, 0
18, 13436, Note_off_c, 2, 52, 0
18, 13436, Note_off_c, 2, 55, 0
18, 13436, Note_off_c, 2, 59, 0
18, 13436, Note_off_c, 2, 62, 0
18, 13440, Note_on_c, 2, 46, 76
18, 13440, Note_on_c, 2, 55, 94
18, 13440, Note_on_c, 2, 58, 76
18, 13440, Note_on_c, 2, 62, 97
18, 15356, Note_off_c, 2, 46, 0
18, 15356, Note_off_c, 2, 55, 0
18, 15356, Note_off_c, 2, 58, 0
18, 15356, Note_off_c, 2, 62, 0
18, 15360, Note_on_c, 2, 45, 70
18, 15360, Note_on_c, 2, 50, 76
18, 15360, Note_on_c, 2, 52, 65
18, 15360, Note_on_c, 2, 57, 75
18, 17276, Note_off_c, 2, 45, 0
18, 17276, Note_off_c, 2, 50, 0
18, 17276, Note_off_c, 2, 52, 0
18, 17276, Note_off_c, 2, 57, 0
18, 17280, Note_on_c, 2, 47, 92
18, 17280, Note_on_c, 2, 54, 78
18, 17280, Note_on_c, 2, 57, 107
18, 17280, Note_on_c, 2, 62, 104
18, 18236, Note_off_c, 2, 54, 0
18, 18236, Note_off_c, 2, 57, 0
18, 18236, Note_off_c, 2, 62, 0
18, 18240, Note_on_c, 2, 54, 75
18, 18240, Note_on_c, 2, 57, 104
18, 18240, Note_on_c, 2, 62, 104
18, 18720, Note_on_c, 2, 50, 66
18, 19196, Note_off_c, 2, 47, 0
18, 19196, Note_off_c, 2, 50, 0
18, 19196, Note_off_c, 2, 54, 0
18, 19196, Note_off_c, 2, 57, 0
18, 19196, Note_off_c, 2, 62, 0
18, 19200, Note_on_c, 2, 40, 87
18, 19200, Note_on_c, 2, 50, 89
18, 19200, Note_on_c, 2, 55, 100
18, 19200, Note_on_c, 2, 59, 92
18, 19676, Note_off_c, 2, 55, 0
18, 19916, Note_off_c, 2, 59, 0
18, 19920, Note_on_c, 2, 55, 121
18, 20400, Note_on_c, 2, 62, 107
18, 20636, Note_off_c, 2, 50, 0
18, 20640, Note_on_c, 2, 50, 89
18, 20876, Note_off_c, 2, 40, 0
18, 20876, Note_off_c, 2, 55, 0
18, 21116, Note_off_c, 2, 50, 0
18, 21116, Note_off_c, 2, 62, 0
18, 21120, Note_on_c, 2, 45, 107
18, 21120, Note_on_c, 2, 52, 104
18, 21120, Note_on_c, 2, 55, 116
18, 21120, Note_on_c, 2, 60, 111
18, 21836, Note_off_c, 2, 60, 0
18, 21840, Note_on_c, 2, 59, 94
18, 22316, Note_off_c, 2, 59, 0
18, 22320, Note_on_c, 2, 62, 78
18, 23036, Note_off_c, 2, 45, 0
18, 23036, Note_off_c, 2, 52, 0
18, 23036, Note_off_c, 2, 55, 0
18, 23036, Note_off_c, 2, 62, 0
18, 23040, Note_on_c, 2, 50, 97
18, 23040, Note_on_c, 2, 55, 85
18, 23040, Note_on_c, 2, 57, 97
18, 23040, Note_on_c, 2, 60, 97
18, 23996, Note_off_c, 2, 50, 0
18, 23996, Note_off_c, 2, 55, 0
18, 23996, Note_off_c, 2, 57, 0
18, 23996, Note_off_c, 2, 60, 0
18, 24000, Note_on_c, 2, 48, 85
18, 24000, Note_on_c, 2, 54, 65
18, 24000, Note_on_c, 2, 57, 100
18, 24000, Note_on_c, 2, 62, 100
18, 24956, Note_off_c, 2, 48, 0
18, 24956, Note_off_c, 2, 54, 0
18, 24956, Note_off_c, 2, 57, 0
18, 24956, Note_off_c, 2, 62, 0
18, 24960, Note_on_c, 2, 47, 97
18, 24960, Note_on_c, 2, 54, 92
18, 24960, Note_on_c, 2, 57, 116
18, 24960, Note_on_c, 2, 62, 116
18, 25436, Note_off_c, 2, 57, 0
18, 25676, Note_off_c, 2, 62, 0
18, 25680, Note_on_c, 2, 57, 92
18, 25920, Note_on_c, 2, 62, 94
18, 26156, Note_off_c, 2, 54, 0
18, 26400, Note_on_c, 2, 54, 54
18, 26876, Note_off_c, 2, 47, 0
18, 26876, Note_off_c, 2, 54, 0
18, 26876, Note_off_c, 2, 57, 0
18, 26876, Note_off_c, 2, 62, 0
18, 26880, Note_on_c, 2, 40, 100
18, 26880, Note_on_c, 2, 55, 104
18, 26880, Note_on_c, 2, 59, 111
18, 26880, Note_on_c, 2, 62, 111
18, 27356, Note_off_c, 2, 55, 0
18, 27360, Note_on_c, 2, 52, 52
18, 27596, Note_off_c, 2, 59, 0
18, 27596, Note_off_c, 2, 62, 0
18, 27600, Note_on_c, 2, 55, 97
18, 27600, Note_on_c, 2, 59, 104
18, 28076, Note_off_c, 2, 52, 0
18, 28080, Note_on_c, 2, 62, 81
18, 28320, Note_on_c, 2, 52, 64
18, 28556, Note_off_c, 2, 55, 0
18, 28556, Note_off_c, 2, 59, 0
18, 28796, Note_off_c, 2, 40, 0
18, 28796, Note_off_c, 2, 52, 0
18, 28796, Note_off_c, 2, 62, 0
18, 28800, Note_on_c, 2, 45, 94
18, 28800, Note_on_c, 2, 55, 100
18, 28800, Note_on_c, 2, 57, 107
18, 28800, Note_on_c, 2, 60, 111
18, 29036, Note_off_c, 2, 45, 0
18, 29276, Note_off_c, 2, 55, 0
18, 29280, Note_on_c, 2, 45, 60
18, 29516, Note_off_c, 2, 57, 0
18, 29516, Note_off_c, 2, 60, 0
18, 29520, Note_on_c, 2, 55, 92
18, 29520, Note_on_c, 2, 57, 104
18, 29520, Note_on_c, 2, 60, 107
18, 29996, Note_off_c, 2, 60, 0
18, 30000, Note_on_c, 2, 62, 94
18, 30236, Note_off_c, 2, 55, 0
18, 30240, Note_on_c, 2, 55, 69
18, 30476, Note_off_c, 2, 55, 0
18, 30476, Note_off_c, 2, 57, 0
18, 30716, Note_off_c, 2, 45, 0
18, 30716, Note_off_c, 2, 62, 0
18, 30720, Note_on_c, 2, 50, 97
18, 30720, Note_on_c, 2, 52, 83
18, 30720, Note_on_c, 2, 55, 104
18, 30720, Note_on_c, 2, 60, 97
18, 30956, Note_off_c, 2, 50, 0
18, 31200, Note_on_c, 2, 50, 85
18, 31436, Note_off_c, 2, 55, 0
18, 31436, Note_off_c, 2, 60, 0
18, 31676, Note_off_c, 2, 50, 0
18, 31676, Note_off_c, 2, 52, 0
18, 31680, Note_on_c, 2, 48, 100
18, 31680, Note_on_c, 2, 54, 111
18, 31680, Note_on_c, 2, 57, 116
18, 31680, Note_on_c, 2, 62, 116
18, 32156, Note_off_c, 2, 48, 0
18, 32156, Note_off_c, 2, 54, 0
18, 32156, Note_off_c, 2, 57, 0
18, 32160, Note_on_c, 2, 48, 76
18, 32160, Note_on_c, 2, 54, 70
18, 32396, Note_off_c, 2, 48, 0
18, 32396, Note_off_c, 2, 54, 0
18, 32396, Note_off_c, 2, 62, 0
18, 32640, Note_on_c, 2, 47, 104
18, 32640, Note_on_c, 2, 54, 97
18, 32640, Note_on_c, 2, 57, 111
18, 32640, Note_on_c, 2, 62, 104
18, 33116, Note_off_c, 2, 54, 0
18, 33116, Note_off_c, 2, 57, 0
18, 33116, Note_off_c, 2, 62, 0
18, 33120, Note_on_c, 2, 54, 78
18, 33360, Note_on_c, 2, 57, 111
18, 33360, Note_on_c, 2, 62, 107
18, 33836, Note_off_c, 2, 54, 0
18, 33836, Note_off_c, 2, 57, 0
18, 33836, Note_off_c, 2, 62, 0
18, 33840, Note_on_c, 2, 54, 71
18, 33840, Note_on_c, 2, 57, 111
18, 33840, Note_on_c, 2, 62, 100
18, 34076, Note_off_c, 2, 54, 0
18, 34080, Note_on_c, 2, 54, 60
18, 34316, Note_off_c, 2, 57, 0
18, 34316, Note_off_c, 2, 62, 0
18, 34556, Note_off_c, 2, 47, 0
18, 34556, Note_off_c, 2, 54, 0
18, 34560, Note_on_c, 2, 40, 100
18, 34560, Note_on_c, 2, 52, 104
18, 34560, Note_on_c, 2, 57, 107
18, 34560, Note_on_c, 2, 62, 104
18, 35276, Note_off_c, 2, 52, 0
18, 35276, Note_off_c, 2, 62, 0
18, 35516, Note_off_c, 2, 57, 0
18, 35520, Note_on_c, 2, 52, 97
18, 35520, Note_on_c, 2, 56, 87
18, 35520, Note_on_c, 2, 62, 97
18, 35996, Note_off_c, 2, 56, 0
18, 36000, Note_on_c, 2, 57, 100
18, 36236, Note_off_c, 2, 57, 0
18, 36240, Note_on_c, 2, 59, 79
18, 36476, Note_off_c, 2, 40, 0
18, 36476, Note_off_c, 2, 52, 0
18, 36476, Note_off_c, 2, 59, 0
18, 36476, Note_off_c, 2, 62, 0
18, 36480, Note_on_c, 2, 45, 89
18, 36480, Note_on_c, 2, 52, 92
18, 36480, Note_on_c, 2, 55, 100
18, 36480, Note_on_c, 2, 60, 100
18, 36956, Note_off_c, 2, 52, 0
18, 36956, Note_off_c, 2, 55, 0
18, 36960, Note_on_c, 2, 52, 75
18, 37196, Note_off_c, 2, 52, 0
18, 37196, Note_off_c, 2, 60, 0
18, 37200, Note_on_c, 2, 52, 100
18, 37200, Note_on_c, 2, 55, 111
18, 37200, Note_on_c, 2, 60, 111
18, 37676, Note_off_c, 2, 52, 0
18, 37676, Note_off_c, 2, 55, 0
18, 37676, Note_off_c, 2, 60, 0
18, 37680, Note_on_c, 2, 52, 107
18, 37680, Note_on_c, 2, 55, 87
18, 37680, Note_on_c, 2, 62, 116
18, 37916, Note_off_c, 2, 52, 0
18, 37920, Note_on_c, 2, 52, 71
18, 38156, Note_off_c, 2, 52, 0
18, 38396, Note_off_c, 2, 45, 0
18, 38396, Note_off_c, 2, 55, 0
18, 38396, Note_off_c, 2, 62, 0
18, 38400, Note_on_c, 2, 48, 111
18, 38400, Note_on_c, 2, 55, 116
18, 38400, Note_on_c, 2, 58, 107
18, 38400, Note_on_c, 2, 63, 97
18, 38876, Note_off_c, 2, 55, 0
18, 39116, Note_off_c, 2, 58, 0
18, 39120, Note_on_c, 2, 55, 72
18, 39360, Note_on_c, 2, 57, 100
18, 39596, Note_off_c, 2, 55, 0
18, 39840, Note_on_c, 2, 55, 69
18, 40076, Note_off_c, 2, 48, 0
18, 40076, Note_off_c, 2, 57, 0
18, 40316, Note_off_c, 2, 55, 0
18, 40316, Note_off_c, 2, 63, 0
18, 40320, Note_on_c, 2, 47, 89
18, 40320, Note_on_c, 2, 54, 97
18, 40320, Note_on_c, 2, 57, 121
18, 40320, Note_on_c, 2, 62, 111
18, 40796, Note_off_c, 2, 57, 0
18, 40800, Note_on_c, 2, 57, 94
18, 41036, Note_off_c, 2, 62, 0
18, 41276, Note_off_c, 2, 54, 0
18, 41276, Note_off_c, 2, 57, 0
18, 41280, Note_on_c, 2, 54, 89
18, 41280, Note_on_c, 2, 57, 116
18, 41280, Note_on_c, 2, 62, 111
18, 41756, Note_off_c, 2, 54, 0
18, 41760, Note_on_c, 2, 54, 72
18, 42236, Note_off_c, 2, 47, 0
18, 42236, Note_off_c, 2, 54, 0
18, 42236, Note_off_c, 2, 57, 0
18, 42236, Note_off_c, 2, 62, 0
18, 42240, Note_on_c, 2, 40, 97
18, 42240, Note_on_c, 2, 52, 97
18, 42240, Note_on_c, 2, 55, 100
18, 42240, Note_on_c, 2, 59, 104
18, 42716, Note_off_c, 2, 52, 0
18, 42716, Note_off_c, 2, 55, 0
18, 42716, Note_off_c, 2, 59, 0
18, 42720, Note_on_c, 2, 52, 70
18, 42956, Note_off_c, 2, 52, 0
18, 42960, Note_on_c, 2, 52, 89
18, 42960, Note_on_c, 2, 55, 100
18, 42960, Note_on_c, 2, 59, 104
18, 43436, Note_off_c, 2, 52, 0
18, 43436, Note_off_c, 2, 59, 0
18, 43440, Note_on_c, 2, 62, 94
18, 43680, Note_on_c, 2, 50, 81
18, 44156, Note_off_c, 2, 40, 0
18, 44156, Note_off_c, 2, 50, 0
18, 44156, Note_off_c, 2, 55, 0
18, 44156, Note_off_c, 2, 62, 0
18, 44160, Note_on_c, 2, 45, 107
18, 44160, Note_on_c, 2, 52, 111
18, 44160, Note_on_c, 2, 57, 121
18, 44160, Note_on_c, 2, 60, 116
18, 45116, Note_off_c, 2, 45, 0
18, 45116, Note_off_c, 2, 52, 0
18, 45116, Note_off_c, 2, 57, 0
18, 45116, Note_off_c, 2, 60, 0
18, 45120, Note_on_c, 2, 47, 111
18, 45120, Note_on_c, 2, 55, 116
18, 45120, Note_on_c, 2, 59, 111
18, 45120, Note_on_c, 2, 62, 107
18, 46076, Note_off_c, 2, 47, 0
18, 46076, Note_off_c, 2, 55, 0
18, 46076, Note_off_c, 2, 59, 0
18, 46076, Note_off_c, 2, 62, 0
18, 46080, Note_on_c, 2, 48, 121
18, 46080, Note_on_c, 2, 55, 116
18, 46080, Note_on_c, 2, 58, 116
18, 46080, Note_on_c, 2, 63, 116
18, 47036, Note_off_c, 2, 48, 0
18, 47036, Note_off_c, 2, 55, 0
18, 47036, Note_off_c, 2, 58, 0
18, 47036, Note_off_c, 2, 63, 0
18, 47040, Note_on_c, 2, 50, 121
18, 47040, Note_on_c, 2, 55, 116
18, 47040, Note_on_c, 2, 60, 116
18, 47040, Note_on_c, 2, 64, 116
18, 47996, Note_off_c, 2, 50, 0
18, 47996, Note_off_c, 2, 55, 0
18, 47996, Note_off_c, 2, 60, 0
18, 47996, Note_off_c, 2, 64, 0
18, 48000, Note_on_c, 2, 55, 100
18, 48000, Note_on_c, 2, 59, 107
18, 48000, Note_on_c, 2, 64, 104
18, 48367, Note_off_c, 2, 55, 0
18, 48480, Note_on_c, 2, 55, 83
18, 48827, Note_off_c, 2, 59, 0
18, 48851, Note_off_c, 2, 64, 0
18, 48960, Note_on_c, 2, 59, 97
18, 48960, Note_on_c, 2, 64, 100
18, 49244, Note_off_c, 2, 55, 0
18, 49440, Note_on_c, 2, 55, 94
18, 49771, Note_off_c, 2, 59, 0
18, 49790, Note_off_c, 2, 64, 0
18, 49827, Note_off_c, 2, 55, 0
18, 49920, Note_on_c, 2, 57, 100
18, 49920, Note_on_c, 2, 62, 107
18, 49920, Note_on_c, 2, 66, 92
18, 50290, Note_off_c, 2, 57, 0
18, 50327, Note_off_c, 2, 66, 0
18, 50400, Note_on_c, 2, 57, 97
18, 50461, Note_off_c, 2, 62, 0
18, 50640, Note_on_c, 2, 66, 104
18, 50640, Note_on_c, 2, 69, 116
18, 50640, Note_on_c, 2, 74, 116
18, 50983, Note_off_c, 2, 66, 0
18, 51022, Note_off_c, 2, 74, 0
18, 51050, Note_off_c, 2, 57, 0
18, 51102, Note_off_c, 2, 69, 0
18, 51120, Note_on_c, 2, 57, 94
18, 51120, Note_on_c, 2, 62, 89
18, 51120, Note_on_c, 2, 66, 75
18, 51740, Note_off_c, 2, 57, 0
18, 51750, Note_off_c, 2, 62, 0
18, 51751, Note_off_c, 2, 66, 0
18, 51840, Note_on_c, 2, 62, 111
18, 51840, Note_on_c, 2, 66, 107
18, 51840, Note_on_c, 2, 69, 107
18, 52320, Note_on_c, 2, 57, 70
18, 52440, Note_off_c, 2, 62, 0
18, 52469, Note_off_c, 2, 66, 0
18, 52485, Note_off_c, 2, 69, 0
18, 52560, Note_on_c, 2, 62, 100
18, 52560, Note_on_c, 2, 66, 92
18, 52926, Note_off_c, 2, 66, 0
18, 52932, Note_off_c, 2, 62, 0
18, 53040, Note_on_c, 2, 62, 107
18, 53040, Note_on_c, 2, 66, 94
18, 53040, Note_on_c, 2, 69, 107
18, 53049, Note_off_c, 2, 57, 0
18, 53756, Note_off_c, 2, 62, 0
18, 53756, Note_off_c, 2, 66, 0
18, 53756, Note_off_c, 2, 69, 0
18, 53760, Note_on_c, 2, 59, 111
18, 53760, Note_on_c, 2, 62, 107
18, 53760, Note_on_c, 2, 67, 107
18, 54604, Note_off_c, 2, 62, 0
18, 54609, Note_off_c, 2, 67, 0
18, 54617, Note_off_c, 2, 59, 0
18, 54720, Note_on_c, 2, 59, 116
18, 54720, Note_on_c, 2, 62, 116
18, 54720, Note_on_c, 2, 67, 116
18, 54986, Note_off_c, 2, 62, 0
18, 55046, Note_off_c, 2, 67, 0
18, 55080, Note_on_c, 2, 62, 97
18, 55080, Note_on_c, 2, 69, 107
18, 55301, Note_off_c, 2, 62, 0
18, 55372, Note_off_c, 2, 59, 0
18, 55396, Note_off_c, 2, 69, 0
18, 55440, Note_on_c, 2, 62, 89
18, 55440, Note_on_c, 2, 71, 81
18, 55602, Note_off_c, 2, 71, 0
18, 55635, Note_off_c, 2, 62, 0
18, 55680, Note_on_c, 2, 55, 100
18, 55680, Note_on_c, 2, 59, 107
18, 55680, Note_on_c, 2, 64, 104
18, 56047, Note_off_c, 2, 55, 0
18, 56160, Note_on_c, 2, 55, 83
18, 56507, Note_off_c, 2, 59, 0
18, 56531, Note_off_c, 2, 64, 0
18, 56640, Note_on_c, 2, 59, 97
18, 56640, Note_on_c, 2, 64, 100
18, 56924, Note_off_c, 2, 55, 0
18, 57120, Note_on_c, 2, 55, 94
18, 57451, Note_off_c, 2, 59, 0
18, 57470, Note_off_c, 2, 64, 0
18, 57507, Note_off_c, 2, 55, 0
18, 57600, Note_on_c, 2, 57, 100
18, 57600, Note_on_c, 2, 62, 107
18, 57600, Note_on_c, 2, 66, 92
18, 57970, Note_off_c, 2, 57, 0
18, 58007, Note_off_c, 2, 66, 0
18, 58080, Note_on_c, 2, 57, 97
18, 58141, Note_off_c, 2, 62, 0
18, 58320, Note_on_c, 2, 66, 104
18, 58320, Note_on_c, 2, 69, 116
18, 58320, Note_on_c, 2, 74, 116
18, 58663, Note_off_c, 2, 66, 0
18, 58702, Note_off_c, 2, 74, 0
18, 58730, Note_off_c, 2, 57, 0
18, 58782, Note_off_c, 2, 69, 0
18, 58800, Note_on_c, 2, 57, 94
18, 58800, Note_on_c, 2, 62, 89
18, 58800, Note_on_c, 2, 66, 75
18, 59420, Note_off_c, 2, 57, 0
18, 59430, Note_off_c, 2, 62, 0
18, 59431, Note_off_c, 2, 66, 0
18, 59520, Note_on_c, 2, 57, 116
18, 59520, Note_on_c, 2, 62, 127
18, 59520, Note_on_c, 2, 66, 104
18, 59833, Note_off_c, 2, 57, 0
18, 60000, Note_on_c, 2, 57, 85
18, 60121, Note_off_c, 2, 57, 0
18, 60240, Note_on_c, 2, 57, 97
18, 60591, Note_off_c, 2, 66, 0
18, 60597, Note_off_c, 2, 62, 0
18, 60625, Note_off_c, 2, 57, 0
18, 60720, Note_on_c, 2, 57, 104
18, 60720, Note_on_c, 2, 62, 111
18, 60720, Note_on_c, 2, 66, 111
18, 61063, Note_off_c, 2, 57, 0
18, 61200, Note_on_c, 2, 57, 85
18, 61250, Note_off_c, 2, 62, 0
18, 61258, Note_off_c, 2, 66, 0
18, 61315, Note_off_c, 2, 57, 0
18, 61440, Note_on_c, 2, 65, 116
18, 61440, Note_on_c, 2, 69, 121
18, 61440, Note_on_c, 2, 72, 116
18, 62301, Note_off_c, 2, 69, 0
18, 62320, Note_off_c, 2, 72, 0
18, 62349, Note_off_c, 2, 65, 0
18, 62400, Note_on_c, 2, 62, 107
18, 62400, Note_on_c, 2, 67, 107
18, 62400, Note_on_c, 2, 71, 107
18, 63323, Note_off_c, 2, 67, 0
18, 63329, Note_off_c, 2, 71, 0
18, 63344, Note_off_c, 2, 62, 0
18, 63360, Note_on_c, 2, 55, 100
18, 63360, Note_on_c, 2, 59, 107
18, 63360, Note_on_c, 2, 64, 104
18, 63727, Note_off_c, 2, 55, 0
18, 63840, Note_on_c, 2, 55, 83
18, 64187, Note_off_c, 2, 59, 0
18, 64211, Note_off_c, 2, 64, 0
18, 64320, Note_on_c, 2, 59, 97
18, 64320, Note_on_c, 2, 64, 100
18, 64604, Note_off_c, 2, 55, 0
18, 64800, Note_on_c, 2, 55, 94
18, 65131, Note_off_c, 2, 59, 0
18, 65150, Note_off_c, 2, 64, 0
18, 65187, Note_off_c, 2, 55, 0
18, 65280, Note_on_c, 2, 57, 100
18, 65280, Note_on_c, 2, 62, 107
18, 65280, Note_on_c, 2, 66, 92
18, 65650, Note_off_c, 2, 57, 0
18, 65687, Note_off_c, 2, 66, 0
18, 65760, Note_on_c, 2, 57, 97
18, 65821, Note_off_c, 2, 62, 0
18, 66000, Note_on_c, 2, 66, 104
18, 66000, Note_on_c, 2, 69, 116
18, 66000, Note_on_c, 2, 74, 116
18, 66343, Note_off_c, 2, 66, 0
18, 66382, Note_off_c, 2, 74, 0
18, 66410, Note_off_c, 2, 57, 0
18, 66462, Note_off_c, 2, 69, 0
18, 66480, Note_on_c, 2, 57, 94
18, 66480, Note_on_c, 2, 62, 89
18, 66480, Note_on_c, 2, 66, 75
18, 67100, Note_off_c, 2, 57, 0
18, 67110, Note_off_c, 2, 62, 0
18, 67111, Note_off_c, 2, 66, 0
18, 67200, Note_on_c, 2, 57, 111
18, 67200, Note_on_c, 2, 62, 116
18, 67200, Note_on_c, 2, 66, 104
18, 67574, Note_off_c, 2, 57, 0
18, 67680, Note_on_c, 2, 57, 89
18, 67796, Note_off_c, 2, 62, 0
18, 67824, Note_off_c, 2, 66, 0
18, 67920, Note_on_c, 2, 62, 97
18, 67920, Note_on_c, 2, 66, 83
18, 68076, Note_off_c, 2, 57, 0
18, 68160, Note_on_c, 2, 57, 85
18, 68166, Note_off_c, 2, 66, 0
18, 68225, Note_off_c, 2, 62, 0
18, 68400, Note_on_c, 2, 66, 89
18, 68400, Note_on_c, 2, 69, 111
18, 68400, Note_on_c, 2, 74, 104
18, 68753, Note_off_c, 2, 57, 0
18, 68949, Note_off_c, 2, 66, 0
18, 68961, Note_off_c, 2, 69, 0
18, 68969, Note_off_c, 2, 74, 0
18, 69120, Note_on_c, 2, 59, 107
18, 69120, Note_on_c, 2, 62, 127
18, 69120, Note_on_c, 2, 67, 111
18, 69451, Note_off_c, 2, 59, 0
18, 69600, Note_on_c, 2, 59, 79
18, 69813, Note_off_c, 2, 67, 0
18, 69840, Note_on_c, 2, 66, 92
18, 70245, Note_off_c, 2, 62, 0
18, 70310, Note_off_c, 2, 66, 0
18, 70320, Note_on_c, 2, 62, 85
18, 70320, Note_on_c, 2, 67, 100
18, 70952, Note_off_c, 2, 62, 0
18, 70953, Note_off_c, 2, 67, 0
18, 70991, Note_off_c, 2, 59, 0
18, 71040, Note_on_c, 2, 55, 97
18, 71040, Note_on_c, 2, 60, 104
18, 71040, Note_on_c, 2, 64, 100
18, 71948, Note_off_c, 2, 64, 0
18, 71983, Note_off_c, 2, 60, 0
18, 72000, Note_on_c, 2, 59, 92
18, 72000, Note_on_c, 2, 62, 87
18, 72000, Note_on_c, 2, 67, 92
18, 72009, Note_off_c, 2, 55, 0
18, 72891, Note_off_c, 2, 67, 0
18, 72906, Note_off_c, 2, 59, 0
18, 72914, Note_off_c, 2, 62, 0
18, 72960, Note_on_c, 2, 60, 83
18, 72960, Note_on_c, 2, 63, 79
18, 72960, Note_on_c, 2, 67, 94
18, 73337, Note_off_c, 2, 60, 0
18, 73440, Note_on_c, 2, 60, 87
18, 73728, Note_off_c, 2, 67, 0
18, 73752, Note_off_c, 2, 63, 0
18, 73920, Note_on_c, 2, 63, 55
18, 73920, Note_on_c, 2, 67, 85
18, 74249, Note_off_c, 2, 60, 0
18, 74400, Note_on_c, 2, 60, 68
18, 74579, Note_off_c, 2, 63, 0
18, 74616, Note_off_c, 2, 67, 0
18, 74880, Note_on_c, 2, 63, 48
18, 74880, Note_on_c, 2, 67, 76
18, 75263, Note_off_c, 2, 60, 0
18, 75360, Note_on_c, 2, 60, 61
18, 75515, Note_off_c, 2, 63, 0
18, 75581, Note_off_c, 2, 67, 0
18, 75840, Note_on_c, 2, 63, 30
18, 75840, Note_on_c, 2, 67, 52
18, 76039, Note_off_c, 2, 60, 0
18, 76320, Note_on_c, 2, 60, 48
18, 76657, Note_off_c, 2, 63, 0
18, 76677, Note_off_c, 2, 60, 0
18, 76689, Note_off_c, 2, 67, 0
18, 76800, Note_on_c, 2, 54, 75
18, 76800, Note_on_c, 2, 57, 100
18, 76800, Note_on_c, 2, 62, 97
18, 77175, Note_off_c, 2, 54, 0
18, 77280, Note_on_c, 2, 54, 70
18, 77636, Note_off_c, 2, 62, 0
18, 77650, Note_off_c, 2, 57, 0
18, 77760, Note_on_c, 2, 57, 100
18, 77760, Note_on_c, 2, 62, 97
18, 78055, Note_off_c, 2, 54, 0
18, 78240, Note_on_c, 2, 54, 65
18, 78589, Note_off_c, 2, 57, 0
18, 78590, Note_off_c, 2, 54, 0
18, 78674, Note_off_c, 2, 62, 0
18, 78720, Note_on_c, 2, 55, 76
18, 78720, Note_on_c, 2, 59, 92
18, 78720, Note_on_c, 2, 62, 79
18, 79200, Note_on_c, 2, 52, 57
18, 79319, Note_off_c, 2, 59, 0
18, 79326, Note_off_c, 2, 55, 0
18, 79341, Note_off_c, 2, 62, 0
18, 79440, Note_on_c, 2, 55, 76
18, 79440, Note_on_c, 2, 59, 100
18, 79440, Note_on_c, 2, 62, 85
18, 79779, Note_off_c, 2, 52, 0
18, 79920, Note_on_c, 2, 52, 62
18, 79964, Note_off_c, 2, 55, 0
18, 79971, Note_off_c, 2, 59, 0
18, 80000, Note_off_c, 2, 62, 0
18, 80160, Note_on_c, 2, 55, 83
18, 80160, Note_on_c, 2, 59, 78
18, 80160, Note_on_c, 2, 62, 89
18, 80264, Note_off_c, 2, 52, 0
18, 80400, Note_on_c, 2, 52, 58
18, 80552, Note_off_c, 2, 59, 0
18, 80555, Note_off_c, 2, 55, 0
18, 80558, Note_off_c, 2, 52, 0
18, 80584, Note_off_c, 2, 62, 0
18, 80640, Note_on_c, 2, 55, 89
18, 80640, Note_on_c, 2, 58, 79
18, 80640, Note_on_c, 2, 62, 94
18, 81120, Note_on_c, 2, 46, 57
18, 81279, Note_off_c, 2, 62, 0
18, 81289, Note_off_c, 2, 58, 0
18, 81305, Note_off_c, 2, 55, 0
18, 81360, Note_on_c, 2, 55, 76
18, 81360, Note_on_c, 2, 58, 78
18, 81360, Note_on_c, 2, 62, 97
18, 81723, Note_off_c, 2, 62, 0
18, 81748, Note_off_c, 2, 58, 0
18, 81840, Note_on_c, 2, 58, 52
18, 81840, Note_on_c, 2, 62, 89
18, 81989, Note_off_c, 2, 46, 0
18, 82080, Note_on_c, 2, 46, 61
18, 82456, Note_off_c, 2, 55, 0
18, 82465, Note_off_c, 2, 58, 0
18, 82481, Note_off_c, 2, 62, 0
18, 82491, Note_off_c, 2, 46, 0
18, 82560, Note_on_c, 2, 45, 68
18, 82560, Note_on_c, 2, 52, 54
18, 82560, Note_on_c, 2, 55, 75
18, 82560, Note_on_c, 2, 57, 81
18, 83380, Note_off_c, 2, 45, 0
18, 83450, Note_off_c, 2, 52, 0
18, 83520, Note_on_c, 2, 45, 64
18, 83584, Note_off_c, 2, 55, 0
18, 83601, Note_off_c, 2, 57, 0
18, 83760, Note_on_c, 2, 55, 89
18, 83986, Note_off_c, 2, 55, 0
18, 84000, Note_on_c, 2, 57, 97
18, 84371, Note_off_c, 2, 57, 0
18, 84388, Note_off_c, 2, 45, 0
18, 84480, Note_on_c, 2, 54, 78
18, 84480, Note_on_c, 2, 57, 107
18, 84480, Note_on_c, 2, 62, 104
18, 85436, Note_off_c, 2, 54, 0
18, 85436, Note_off_c, 2, 57, 0
18, 85436, Note_off_c, 2, 62, 0
18, 85440, Note_on_c, 2, 54, 75
18, 85440, Note_on_c, 2, 57, 104
18, 85440, Note_on_c, 2, 62, 104
18, 85920, Note_on_c, 2, 50, 66
18, 86396, Note_off_c, 2, 50, 0
18, 86396, Note_off_c, 2, 54, 0
18, 86396, Note_off_c, 2, 57, 0
18, 86396, Note_off_c, 2, 62, 0
18, 86400, Note_on_c, 2, 50, 89
18, 86400, Note_on_c, 2, 55, 100
18, 86400, Note_on_c, 2, 59, 92
18, 86876, Note_off_c, 2, 55, 0
18, 87116, Note_off_c, 2, 59, 0
18, 87120, Note_on_c, 2, 55, 121
18, 87600, Note_on_c, 2, 62, 107
18, 87836, Note_off_c, 2, 50, 0
18, 87840, Note_on_c, 2, 50, 89
18, 88076, Note_off_c, 2, 55, 0
18, 88316, Note_off_c, 2, 50, 0
18, 88316, Note_off_c, 2, 62, 0
18, 88320, Note_on_c, 2, 52, 104
18, 88320, Note_on_c, 2, 55, 116
18, 88320, Note_on_c, 2, 60, 111
18, 89036, Note_off_c, 2, 60, 0
18, 89040, Note_on_c, 2, 59, 94
18, 89516, Note_off_c, 2, 59, 0
18, 89520, Note_on_c, 2, 62, 78
18, 90236, Note_off_c, 2, 52, 0
18, 90236, Note_off_c, 2, 55, 0
18, 90236, Note_off_c, 2, 62, 0
18, 90240, Note_on_c, 2, 50, 97
18, 90240, Note_on_c, 2, 55, 85
18, 90240, Note_on_c, 2, 57, 97
18, 90240, Note_on_c, 2, 60, 97
18, 91196, Note_off_c, 2, 50, 0
18, 91196, Note_off_c, 2, 55, 0
18, 91196, Note_off_c, 2, 57, 0
18, 91196, Note_off_c, 2, 60, 0
18, 91200, Note_on_c, 2, 48, 85
18, 91200, Note_on_c, 2, 54, 65
18, 91200, Note_on_c, 2, 57, 100
18, 91200, Note_on_c, 2, 62, 100
18, 92156, Note_off_c, 2, 48, 0
18, 92156, Note_off_c, 2, 54, 0
18, 92156, Note_off_c, 2, 57, 0
18, 92156, Note_off_c, 2, 62, 0
18, 92160, Note_on_c, 2, 54, 92
18, 92160, Note_on_c, 2, 57, 116
18, 92160, Note_on_c, 2, 62, 116
18, 92636, Note_off_c, 2, 57, 0
18, 92876, Note_off_c, 2, 62, 0
18, 92880, Note_on_c, 2, 57, 92
18, 93120, Note_on_c, 2, 62, 94
18, 93356, Note_off_c, 2, 54, 0
18, 93600, Note_on_c, 2, 54, 54
18, 94076, Note_off_c, 2, 54, 0
18, 94076, Note_off_c, 2, 57, 0
18, 94076, Note_off_c, 2, 62, 0
18, 94080, Note_on_c, 2, 55, 104
18, 94080, Note_on_c, 2, 59, 111
18, 94080, Note_on_c, 2, 62, 111
18, 94556, Note_off_c, 2, 55, 0
18, 94560, Note_on_c, 2, 52, 52
18, 94796, Note_off_c, 2, 59, 0
18, 94796, Note_off_c, 2, 62, 0
18, 94800, Note_on_c, 2, 55, 97
18, 94800, Note_on_c, 2, 59, 104
18, 95276, Note_off_c, 2, 52, 0
18, 95280, Note_on_c, 2, 62, 81
18, 95520, Note_on_c, 2, 52, 64
18, 95756, Note_off_c, 2, 55, 0
18, 95756, Note_off_c, 2, 59, 0
18, 95996, Note_off_c, 2, 52, 0
18, 95996, Note_off_c, 2, 62, 0
18, 96000, Note_on_c, 2, 55, 100
18, 96000, Note_on_c, 2, 57, 107
18, 96000, Note_on_c, 2, 60, 111
18, 96476, Note_off_c, 2, 55, 0
18, 96716, Note_off_c, 2, 57, 0
18, 96716, Note_off_c, 2, 60, 0
18, 96720, Note_on_c, 2, 55, 92
18, 96720, Note_on_c, 2, 57, 104
18, 96720, Note_on_c, 2, 60, 107
18, 97196, Note_off_c, 2, 60, 0
18, 97200, Note_on_c, 2, 62, 94
18, 97436, Note_off_c, 2, 55, 0
18, 97440, Note_on_c, 2, 55, 69
18, 97676, Note_off_c, 2, 55, 0
18, 97676, Note_off_c, 2, 57, 0
18, 97916, Note_off_c, 2, 62, 0
18, 97920, Note_on_c, 2, 50, 97
18, 97920, Note_on_c, 2, 52, 83
18, 97920, Note_on_c, 2, 55, 104
18, 97920, Note_on_c, 2, 60, 97
18, 98156, Note_off_c, 2, 50, 0
18, 98400, Note_on_c, 2, 50, 85
18, 98636, Note_off_c, 2, 55, 0
18, 98636, Note_off_c, 2, 60, 0
18, 98876, Note_off_c, 2, 50, 0
18, 98876, Note_off_c, 2, 52, 0
18, 98880, Note_on_c, 2, 48, 100
18, 98880, Note_on_c, 2, 54, 111
18, 98880, Note_on_c, 2, 57, 116
18, 98880, Note_on_c, 2, 62, 116
18, 99356, Note_off_c, 2, 48, 0
18, 99356, Note_off_c, 2, 54, 0
18, 99356, Note_off_c, 2, 57, 0
18, 99360, Note_on_c, 2, 48, 76
18, 99360, Note_on_c, 2, 54, 70
18, 99596, Note_off_c, 2, 48, 0
18, 99596, Note_off_c, 2, 54, 0
18, 99596, Note_off_c, 2, 62, 0
18, 99840, Note_on_c, 2, 47, 104
18, 99840, Note_on_c, 2, 54, 97
18, 99840, Note_on_c, 2, 57, 111
18, 99840, Note_on_c, 2, 62, 104
18, 100316, Note_off_c, 2, 54, 0
18, 100316, Note_off_c, 2, 57, 0
18, 100316, Note_off_c, 2, 62, 0
18, 100320, Note_on_c, 2, 54, 78
18, 100560, Note_on_c, 2, 57, 111
18, 100560, Note_on_c, 2, 62, 107
18, 101036, Note_off_c, 2, 54, 0
18, 101036, Note_off_c, 2, 57, 0
18, 101036, Note_off_c, 2, 62, 0
18, 101040, Note_on_c, 2, 54, 71
18, 101040, Note_on_c, 2, 57, 111
18, 101040, Note_on_c, 2, 62, 100
18, 101276, Note_off_c, 2, 54, 0
18, 101280, Note_on_c, 2, 54, 60
18, 101516, Note_off_c, 2, 57, 0
18, 101516, Note_off_c, 2, 62, 0
18, 101756, Note_off_c, 2, 47, 0
18, 101756, Note_off_c, 2, 54, 0
18, 101760, Note_on_c, 2, 52, 104
18, 101760, Note_on_c, 2, 57, 107
18, 101760, Note_on_c, 2, 62, 104
18, 102476, Note_off_c, 2, 52, 0
18, 102476, Note_off_c, 2, 62, 0
18, 102716, Note_off_c, 2, 57, 0
18, 102720, Note_on_c, 2, 52, 97
18, 102720, Note_on_c, 2, 56, 87
18, 102720, Note_on_c, 2, 62, 97
18, 103196, Note_off_c, 2, 56, 0
18, 103200, Note_on_c, 2, 57, 100
18, 103436, Note_off_c, 2, 57, 0
18, 103440, Note_on_c, 2, 59, 79
18, 103676, Note_off_c, 2, 52, 0
18, 103676, Note_off_c, 2, 59, 0
18, 103676, Note_off_c, 2, 62, 0
18, 103680, Note_on_c, 2, 45, 89
18, 103680, Note_on_c, 2, 52, 92
18, 103680, Note_on_c, 2, 55, 100
18, 103680, Note_on_c, 2, 60, 100
18, 104156, Note_off_c, 2, 52, 0
18, 104156, Note_off_c, 2, 55, 0
18, 104160, Note_on_c, 2, 52, 75
18, 104396, Note_off_c, 2, 52, 0
18, 104396, Note_off_c, 2, 60, 0
18, 104400, Note_on_c, 2, 52, 100
18, 104400, Note_on_c, 2, 55, 111
18, 104400, Note_on_c, 2, 60, 111
18, 104876, Note_off_c, 2, 52, 0
18, 104876, Note_off_c, 2, 55, 0
18, 104876, Note_off_c, 2, 60, 0
18, 104880, Note_on_c, 2, 52, 107
18, 104880, Note_on_c, 2, 55, 87
18, 104880, Note_on_c, 2, 62, 116
18, 105116, Note_off_c, 2, 52, 0
18, 105120, Note_on_c, 2, 52, 71
18, 105356, Note_off_c, 2, 52, 0
18, 105596, Note_off_c, 2, 45, 0
18, 105596, Note_off_c, 2, 55, 0
18, 105596, Note_off_c, 2, 62, 0
18, 105600, Note_on_c, 2, 48, 111
18, 105600, Note_on_c, 2, 55, 116
18, 105600, Note_on_c, 2, 58, 107
18, 105600, Note_on_c, 2, 63, 97
18, 106076, Note_off_c, 2, 55, 0
18, 106316, Note_off_c, 2, 58, 0
18, 106320, Note_on_c, 2, 55, 72
18, 106560, Note_on_c, 2, 57, 100
18, 106796, Note_off_c, 2, 55, 0
18, 107040, Note_on_c, 2, 55, 69
18, 107276, Note_off_c, 2, 48, 0
18, 107276, Note_off_c, 2, 57, 0
18, 107516, Note_off_c, 2, 55, 0
18, 107516, Note_off_c, 2, 63, 0
18, 107520, Note_on_c, 2, 47, 89
18, 107520, Note_on_c, 2, 54, 97
18, 107520, Note_on_c, 2, 57, 121
18, 107520, Note_on_c, 2, 62, 111
18, 107996, Note_off_c, 2, 57, 0
18, 108000, Note_on_c, 2, 57, 94
18, 108236, Note_off_c, 2, 62, 0
18, 108476, Note_off_c, 2, 54, 0
18, 108476, Note_off_c, 2, 57, 0
18, 108480, Note_on_c, 2, 54, 89
18, 108480, Note_on_c, 2, 57, 116
18, 108480, Note_on_c, 2, 62, 111
18, 108956, Note_off_c, 2, 54, 0
18, 108960, Note_on_c, 2, 54, 72
18, 109436, Note_off_c, 2, 47, 0
18, 109436, Note_off_c, 2, 54, 0
18, 109436, Note_off_c, 2, 57, 0
18, 109436, Note_off_c, 2, 62, 0
18, 109440, Note_on_c, 2, 52, 97
18, 109440, Note_on_c, 2, 55, 100
18, 109440, Note_on_c, 2, 59, 104
18, 109916, Note_off_c, 2, 52, 0
18, 109916, Note_off_c, 2, 55, 0
18, 109916, Note_off_c, 2, 59, 0
18, 109920, Note_on_c, 2, 52, 70
18, 110156, Note_off_c, 2, 52, 0
18, 110160, Note_on_c, 2, 52, 89
18, 110160, Note_on_c, 2, 55, 100
18, 110160, Note_on_c, 2, 59, 104
18, 110636, Note_off_c, 2, 52, 0
18, 110636, Note_off_c, 2, 59, 0
18, 110640, Note_on_c, 2, 62, 94
18, 110880, Note_on_c, 2, 50, 81
18, 111356, Note_off_c, 2, 50, 0
18, 111356, Note_off_c, 2, 55, 0
18, 111356, Note_off_c, 2, 62, 0
18, 111360, Note_on_c, 2, 52, 111
18, 111360, Note_on_c, 2, 57, 121
18, 111360, Note_on_c, 2, 60, 116
18, 112316, Note_off_c, 2, 52, 0
18, 112316, Note_off_c, 2, 57, 0
18, 112316, Note_off_c, 2, 60, 0
18, 112320, Note_on_c, 2, 55, 116
18, 112320, Note_on_c, 2, 59, 111
18, 112320, Note_on_c, 2, 62, 107
18, 113276, Note_off_c, 2, 55, 0
18, 113276, Note_off_c, 2, 59, 0
18, 113276, Note_off_c, 2, 62, 0
18, 113280, Note_on_c, 2, 55, 116
18, 113280, Note_on_c, 2, 58, 116
18, 113280, Note_on_c, 2, 63, 116
18, 114236, Note_off_c, 2, 55, 0
18, 114236, Note_off_c, 2, 58, 0
18, 114236, Note_off_c, 2, 63, 0
18, 114240, Note_on_c, 2, 50, 121
18, 114240, Note_on_c, 2, 55, 116
18, 114240, Note_on_c, 2, 60, 116
18, 114240, Note_on_c, 2, 64, 116
18, 115196, Note_off_c, 2, 50, 0
18, 115196, Note_off_c, 2, 55, 0
18, 115196, Note_off_c, 2, 60, 0
18, 115196, Note_off_c, 2, 64, 0
18, 115200, Note_on_c, 2, 55, 100
18, 115200, Note_on_c, 2, 59, 107
18, 115200, Note_on_c, 2, 64, 104
18, 115567, Note_off_c, 2, 55, 0
18, 115680, Note_on_c, 2, 55, 83
18, 116027, Note_off_c, 2, 59, 0
18, 116051, Note_off_c, 2, 64, 0
18, 116160, Note_on_c, 2, 59, 97
18, 116160, Note_on_c, 2, 64, 100
18, 116444, Note_off_c, 2, 55, 0
18, 116640, Note_on_c, 2, 55, 94
18, 116971, Note_off_c, 2, 59, 0
18, 116990, Note_off_c, 2, 64, 0
18, 117027, Note_off_c, 2, 55, 0
18, 117120, Note_on_c, 2, 57, 100
18, 117120, Note_on_c, 2, 62, 107
18, 117120, Note_on_c, 2, 66, 92
18, 117490, Note_off_c, 2, 57, 0
18, 117527, Note_off_c, 2, 66, 0
18, 117600, Note_on_c, 2, 57, 97
18, 117661, Note_off_c, 2, 62, 0
18, 117840, Note_on_c, 2, 66, 104
18, 117840, Note_on_c, 2, 69, 116
18, 117840, Note_on_c, 2, 74, 116
18, 118183, Note_off_c, 2, 66, 0
18, 118222, Note_off_c, 2, 74, 0
18, 118250, Note_off_c, 2, 57, 0
18, 118302, Note_off_c, 2, 69, 0
18, 118320, Note_on_c, 2, 57, 94
18, 118320, Note_on_c, 2, 62, 89
18, 118320, Note_on_c, 2, 66, 75
18, 118940, Note_off_c, 2, 57, 0
18, 118950, Note_off_c, 2, 62, 0
18, 118951, Note_off_c, 2, 66, 0
18, 119040, Note_on_c, 2, 62, 111
18, 119040, Note_on_c, 2, 66, 107
18, 119040, Note_on_c, 2, 69, 107
18, 119520, Note_on_c, 2, 57, 70
18, 119640, Note_off_c, 2, 62, 0
18, 119669, Note_off_c, 2, 66, 0
18, 119685, Note_off_c, 2, 69, 0
18, 119760, Note_on_c, 2, 62, 100
18, 119760, Note_on_c, 2, 66, 92
18, 120126, Note_off_c, 2, 66, 0
18, 120132, Note_off_c, 2, 62, 0
18, 120240, Note_on_c, 2, 62, 107
18, 120240, Note_on_c, 2, 66, 94
18, 120240, Note_on_c, 2, 69, 107
18, 120249, Note_off_c, 2, 57, 0
18, 120956, Note_off_c, 2, 62, 0
18, 120956, Note_off_c, 2, 66, 0
18, 120956, Note_off_c, 2, 69, 0
18, 120960, Note_on_c, 2, 59, 111
18, 120960, Note_on_c, 2, 62, 107
18, 120960, Note_on_c, 2, 67, 107
18, 121804, Note_off_c, 2, 62, 0
18, 121809, Note_off_c, 2, 67, 0
18, 121817, Note_off_c, 2, 59, 0
18, 121920, Note_on_c, 2, 59, 116
18, 121920, Note_on_c, 2, 62, 116
18, 121920, Note_on_c, 2, 67, 116
18, 122186, Note_off_c, 2, 62, 0
18, 122246, Note_off_c, 2, 67, 0
18, 122280, Note_on_c, 2, 62, 97
18, 122280, Note_on_c, 2, 69, 107
18, 122501, Note_off_c, 2, 62, 0
18, 122572, Note_off_c, 2, 59, 0
18, 122596, Note_off_c, 2, 69, 0
18, 122640, Note_on_c, 2, 62, 89
18, 122640, Note_on_c, 2, 71, 81
18, 122802, Note_off_c, 2, 71, 0
18, 122835, Note_off_c, 2, 62, 0
18, 122880, Note_on_c, 2, 55, 100
18, 122880, Note_on_c, 2, 59, 107
18, 122880, Note_on_c, 2, 64, 104
18, 123247, Note_off_c, 2, 55, 0
18, 123360, Note_on_c, 2, 55, 83
18, 123707, Note_off_c, 2, 59, 0
18, 123731, Note_off_c, 2, 64, 0
18, 123840, Note_on_c, 2, 59, 97
18, 123840, Note_on_c, 2, 64, 100
18, 124124, Note_off_c, 2, 55, 0
18, 124320, Note_on_c, 2, 55, 94
18, 124651, Note_off_c, 2, 59, 0
18, 124670, Note_off_c, 2, 64, 0
18, 124707, Note_off_c, 2, 55, 0
18, 124800, Note_on_c, 2, 57, 100
18, 124800, Note_on_c, 2, 62, 107
18, 124800, Note_on_c, 2, 66, 92
18, 125170, Note_off_c, 2, 57, 0
18, 125207, Note_off_c, 2, 66, 0
18, 125280, Note_on_c, 2, 57, 97
18, 125341, Note_off_c, 2, 62, 0
18, 125520, Note_on_c, 2, 66, 104
18, 125520, Note_on_c, 2, 69, 116
18, 125520, Note_on_c, 2, 74, 116
18, 125863, Note_off_c, 2, 66, 0
18, 125902, Note_off_c, 2, 74, 0
18, 125930, Note_off_c, 2, 57, 0
18, 125982, Note_off_c, 2, 69, 0
18, 126000, Note_on_c, 2, 57, 94
18, 126000, Note_on_c, 2, 62, 89
18, 126000, Note_on_c, 2, 66, 75
18, 126620, Note_off_c, 2, 57, 0
18, 126630, Note_off_c, 2, 62, 0
18, 126631, Note_off_c, 2, 66, 0
18, 126720, Note_on_c, 2, 57, 116
18, 126720, Note_on_c, 2, 62, 127
18, 126720, Note_on_c, 2, 66, 104
18, 127033, Note_off_c, 2, 57, 0
18, 127200, Note_on_c, 2, 57, 85
18, 127321, Note_off_c, 2, 57, 0
18, 127440, Note_on_c, 2, 57, 97
18, 127791, Note_off_c, 2, 66, 0
18, 127797, Note_off_c, 2, 62, 0
18, 127825, Note_off_c, 2, 57, 0
18, 127920, Note_on_c, 2, 57, 104
18, 127920, Note_on_c, 2, 62, 111
18, 127920, Note_on_c, 2, 66, 111
18, 128263, Note_off_c, 2, 57, 0
18, 128400, Note_on_c, 2, 57, 85
18, 128450, Note_off_c, 2, 62, 0
18, 128458, Note_off_c, 2, 66, 0
18, 128515, Note_off_c, 2, 57, 0
18, 128640, Note_on_c, 2, 65, 116
18, 128640, Note_on_c, 2, 69, 121
18, 128640, Note_on_c, 2, 72, 116
18, 129501, Note_off_c, 2, 69, 0
18, 129520, Note_off_c, 2, 72, 0
18, 129549, Note_off_c, 2, 65, 0
18, 129600, Note_on_c, 2, 62, 107
18, 129600, Note_on_c, 2, 67, 107
18, 129600, Note_on_c, 2, 71, 107
18, 130523, Note_off_c, 2, 67, 0
18, 130529, Note_off_c, 2, 71, 0
18, 130544, Note_off_c, 2, 62, 0
18, 130560, Note_on_c, 2, 55, 100
18, 130560, Note_on_c, 2, 59, 107
18, 130560, Note_on_c, 2, 64, 104
18, 130927, Note_off_c, 2, 55, 0
18, 131040, Note_on_c, 2, 55, 83
18, 131387, Note_off_c, 2, 59, 0
18, 131411, Note_off_c, 2, 64, 0
18, 131520, Note_on_c, 2, 59, 97
18, 131520, Note_on_c, 2, 64, 100
18, 131804, Note_off_c, 2, 55, 0
18, 132000, Note_on_c, 2, 55, 94
18, 132331, Note_off_c, 2, 59, 0
18, 132350, Note_off_c, 2, 64, 0
18, 132387, Note_off_c, 2, 55, 0
18, 132480, Note_on_c, 2, 57, 100
18, 132480, Note_on_c, 2, 62, 107
18, 132480, Note_on_c, 2, 66, 92
18, 132850, Note_off_c, 2, 57, 0
18, 132887, Note_off_c, 2, 66, 0
18, 132960, Note_on_c, 2, 57, 97
18, 133021, Note_off_c, 2, 62, 0
18, 133200, Note_on_c, 2, 66, 104
18, 133200, Note_on_c, 2, 69, 116
18, 133200, Note_on_c, 2, 74, 116
18, 133543, Note_off_c, 2, 66, 0
18, 133582, Note_off_c, 2, 74, 0
18, 133610, Note_off_c, 2, 57, 0
18, 133662, Note_off_c, 2, 69, 0
18, 133680, Note_on_c, 2, 57, 94
18, 133680, Note_on_c, 2, 62, 89
18, 133680, Note_on_c, 2, 66, 75
18, 134300, Note_off_c, 2, 57, 0
18, 134310, Note_off_c, 2, 62, 0
18, 134311, Note_off_c, 2, 66, 0
18, 134400, Note_on_c, 2, 57, 111
18, 134400, Note_on_c, 2, 62, 116
18, 134400, Note_on_c, 2, 66, 104
18, 134774, Note_off_c, 2, 57, 0
18, 134880, Note_on_c, 2, 57, 89
18, 134996, Note_off_c, 2, 62, 0
18, 135024, Note_off_c, 2, 66, 0
18, 135120, Note_on_c, 2, 62, 97
18, 135120, Note_on_c, 2, 66, 83
18, 135276, Note_off_c, 2, 57, 0
18, 135360, Note_on_c, 2, 57, 85
18, 135366, Note_off_c, 2, 66, 0
18, 135425, Note_off_c, 2, 62, 0
18, 135600, Note_on_c, 2, 66, 89
18, 135600, Note_on_c, 2, 69, 111
18, 135600, Note_on_c, 2, 74, 104
18, 135953, Note_off_c, 2, 57, 0
18, 136149, Note_off_c, 2, 66, 0
18, 136161, Note_off_c, 2, 69, 0
18, 136169, Note_off_c, 2, 74, 0
18, 136320, Note_on_c, 2, 59, 107
18, 136320, Note_on_c, 2, 62, 127
18, 136320, Note_on_c, 2, 67, 111
18, 136651, Note_off_c, 2, 59, 0
18, 136800, Note_on_c, 2, 59, 79
18, 137013, Note_off_c, 2, 67, 0
18, 137040, Note_on_c, 2, 66, 92
18, 137445, Note_off_c, 2, 62, 0
18, 137510, Note_off_c, 2, 66, 0
18, 137520, Note_on_c, 2, 62, 85
18, 137520, Note_on_c, 2, 67, 100
18, 138152, Note_off_c, 2, 62, 0
18, 138153, Note_off_c, 2, 67, 0
18, 138191, Note_off_c, 2, 59, 0
18, 138240, Note_on_c, 2, 55, 97
18, 138240, Note_on_c, 2, 60, 104
18, 138240, Note_on_c, 2, 64, 100
18, 139148, Note_off_c, 2, 64, 0
18, 139183, Note_off_c, 2, 60, 0
18, 139200, Note_on_c, 2, 59, 92
18, 139200, Note_on_c, 2, 62, 87
18, 139200, Note_on_c, 2, 67, 92
18, 139209, Note_off_c, 2, 55, 0
18, 140091, Note_off_c, 2, 67, 0
18, 140106, Note_off_c, 2, 59, 0
18, 140114, Note_off_c, 2, 62, 0
18, 140160, Note_on_c, 2, 60, 83
18, 140160, Note_on_c, 2, 63, 79
18, 140160, Note_on_c, 2, 67, 94
18, 140537, Note_off_c, 2, 60, 0
18, 140640, Note_on_c, 2, 60, 87
18, 140928, Note_off_c, 2, 67, 0
18, 140952, Note_off_c, 2, 63, 0
18, 141120, Note_on_c, 2, 63, 55
18, 141120, Note_on_c, 2, 67, 85
18, 141449, Note_off_c, 2, 60, 0
18, 141600, Note_on_c, 2, 60, 68
18, 141779, Note_off_c, 2, 63, 0
18, 141816, Note_off_c, 2, 67, 0
18, 142080, Note_on_c, 2, 63, 48
18, 142080, Note_on_c, 2, 67, 76
18, 142463, Note_off_c, 2, 60, 0
18, 142560, Note_on_c, 2, 60, 61
18, 142715, Note_off_c, 2, 63, 0
18, 142781, Note_off_c, 2, 67, 0
18, 143040, Note_on_c, 2, 63, 30
18, 143040, Note_on_c, 2, 67, 52
18, 143239, Note_off_c, 2, 60, 0
18, 143520, Note_on_c, 2, 60, 48
18, 143857, Note_off_c, 2, 63, 0
18, 143877, Note_off_c, 2, 60, 0
18, 143889, Note_off_c, 2, 67, 0
18, 144000, Note_on_c, 2, 54, 75
18, 144000, Note_on_c, 2, 57, 100
18, 144000, Note_on_c, 2, 62, 97
18, 144375, Note_off_c, 2, 54, 0
18, 144480, Note_on_c, 2, 54, 70
18, 144836, Note_off_c, 2, 62, 0
18, 144850, Note_off_c, 2, 57, 0
18, 144960, Note_on_c, 2, 57, 100
18, 144960, Note_on_c, 2, 62, 97
18, 145255, Note_off_c, 2, 54, 0
18, 145440, Note_on_c, 2, 54, 65
18, 145789, Note_off_c, 2, 57, 0
18, 145790, Note_off_c, 2, 54, 0
18, 145874, Note_off_c, 2, 62, 0
18, 145920, Note_on_c, 2, 55, 76
18, 145920, Note_on_c, 2, 59, 92
18, 145920, Note_on_c, 2, 62, 79
18, 146400, Note_on_c, 2, 52, 57
18, 146519, Note_off_c, 2, 59, 0
18, 146526, Note_off_c, 2, 55, 0
18, 146541, Note_off_c, 2, 62, 0
18, 146640, Note_on_c, 2, 55, 76
18, 146640, Note_on_c, 2, 59, 100
18, 146640, Note_on_c, 2, 62, 85
18, 146979, Note_off_c, 2, 52, 0
18, 147120, Note_on_c, 2, 52, 62
18, 147164, Note_off_c, 2, 55, 0
18, 147171, Note_off_c, 2, 59, 0
18, 147200, Note_off_c, 2, 62, 0
18, 147360, Note_on_c, 2, 55, 83
18, 147360, Note_on_c, 2, 59, 78
18, 147360, Note_on_c, 2, 62, 89
18, 147464, Note_off_c, 2, 52, 0
18, 147600, Note_on_c, 2, 52, 58
18, 147752, Note_off_c, 2, 59, 0
18, 147755, Note_off_c, 2, 55, 0
18, 147758, Note_off_c, 2, 52, 0
18, 147784, Note_off_c, 2, 62, 0
18, 147840, Note_on_c, 2, 55, 89
18, 147840, Note_on_c, 2, 58, 79
18, 147840, Note_on_c, 2, 62, 94
18, 148320, Note_on_c, 2, 46, 57
18, 148479, Note_off_c, 2, 62, 0
18, 148489, Note_off_c, 2, 58, 0
18, 148505, Note_off_c, 2, 55, 0
18, 148560, Note_on_c, 2, 55, 76
18, 148560, Note_on_c, 2, 58, 78
18, 148560, Note_on_c, 2, 62, 97
18, 148923, Note_off_c, 2, 62, 0
18, 148948, Note_off_c, 2, 58, 0
18, 149040, Note_on_c, 2, 58, 52
18, 149040, Note_on_c, 2, 62, 89
18, 149189, Note_off_c, 2, 46, 0
18, 149280, Note_on_c, 2, 46, 61
18, 149656, Note_off_c, 2, 55, 0
18, 149665, Note_off_c, 2, 58, 0
18, 149681, Note_off_c, 2, 62, 0
18, 149691, Note_off_c, 2, 46, 0
18, 149760, Note_on_c, 2, 45, 68
18, 149760, Note_on_c, 2, 52, 54
18, 149760, Note_on_c, 2, 55, 75
18, 149760, Note_on_c, 2, 57, 81
18, 150580, Note_off_c, 2, 45, 0
18, 150650, Note_off_c, 2, 52, 0
18, 150720, Note_on_c, 2, 45, 64
18, 150784, Note_off_c, 2, 55, 0
18, 150801, Note_off_c, 2, 57, 0
18, 150960, Note_on_c, 2, 55, 89
18, 151186, Note_off_c, 2, 55, 0
18, 151200, Note_on_c, 2, 57, 97
18, 151571, Note_off_c, 2, 57, 0
18, 151588, Note_off_c, 2, 45, 0
18, 151680, Note_on_c, 2, 54, 75
18, 151680, Note_on_c, 2, 57, 100
18, 151680, Note_on_c, 2, 62, 97
18, 152055, Note_off_c, 2, 54, 0
18, 152160, Note_on_c, 2, 54, 70
18, 152516, Note_off_c, 2, 62, 0
18, 152530, Note_off_c, 2, 57, 0
18, 152640, Note_on_c, 2, 57, 100
18, 152640, Note_on_c, 2, 62, 97
18, 152935, Note_off_c, 2, 54, 0
18, 153120, Note_on_c, 2, 54, 65
18, 153469, Note_off_c, 2, 57, 0
18, 153470, Note_off_c, 2, 54, 0
18, 153554, Note_off_c, 2, 62, 0
18, 153600, Note_on_c, 2, 55, 76
18, 153600, Note_on_c, 2, 59, 92
18, 153600, Note_on_c, 2, 62, 79
18, 154080, Note_on_c, 2, 52, 57
18, 154199, Note_off_c, 2, 59, 0
18, 154206, Note_off_c, 2, 55, 0
18, 154221, Note_off_c, 2, 62, 0
18, 154320, Note_on_c, 2, 55, 76
18, 154320, Note_on_c, 2, 59, 100
18, 154320, Note_on_c, 2, 62, 85
18, 154659, Note_off_c, 2, 52, 0
18, 154800, Note_on_c, 2, 52, 62
18, 154844, Note_off_c, 2, 55, 0
18, 154851, Note_off_c, 2, 59, 0
18, 154880, Note_off_c, 2, 62, 0
18, 155040, Note_on_c, 2, 55, 83
18, 155040, Note_on_c, 2, 59, 78
18, 155040, Note_on_c, 2, 62, 89
18, 155144, Note_off_c, 2, 52, 0
18, 155280, Note_on_c, 2, 52, 58
18, 155432, Note_off_c, 2, 59, 0
18, 155435, Note_off_c, 2, 55, 0
18, 155438, Note_off_c, 2, 52, 0
18, 155464, Note_off_c, 2, 62, 0
18, 155520, Note_on_c, 2, 46, 71
18, 155520, Note_on_c, 2, 55, 97
18, 155520, Note_on_c, 2, 58, 85
18, 155520, Note_on_c, 2, 62, 100
18, 155882, Note_off_c, 2, 46, 0
18, 156000, Note_on_c, 2, 46, 58
18, 156192, Note_off_c, 2, 62, 0
18, 156219, Note_off_c, 2, 58, 0
18, 156240, Note_on_c, 2, 60, 94
18, 156720, Note_on_c, 2, 58, 79
18, 156726, Note_off_c, 2, 60, 0
18, 157381, Note_off_c, 2, 58, 0
18, 157382, Note_off_c, 2, 46, 0
18, 157401, Note_off_c, 2, 55, 0
18, 157440, Note_on_c, 2, 45, 92
18, 157440, Note_on_c, 2, 55, 92
18, 157440, Note_on_c, 2, 57, 92
18, 157440, Note_on_c, 2, 62, 78
18, 158396, Note_off_c, 2, 45, 0
18, 158396, Note_off_c, 2, 55, 0
18, 158396, Note_off_c, 2, 57, 0
18, 158396, Note_off_c, 2, 62, 0
18, 158400, Note_on_c, 2, 50, 104
18, 158400, Note_on_c, 2, 55, 94
18, 158400, Note_on_c, 2, 57, 100
18, 158400, Note_on_c, 2, 62, 94
18, 159356, Note_off_c, 2, 50, 0
18, 159356, Note_off_c, 2, 55, 0
18, 159356, Note_off_c, 2, 57, 0
18, 159356, Note_off_c, 2, 62, 0
18, 159360, Note_on_c, 2, 60, 111
18, 159360, Note_on_c, 2, 65, 111
18, 159360, Note_on_c, 2, 69, 116
18, 160226, Note_off_c, 2, 65, 0
18, 160233, Note_off_c, 2, 69, 0
18, 160248, Note_off_c, 2, 60, 0
18, 160320, Note_on_c, 2, 60, 100
18, 160320, Note_on_c, 2, 65, 100
18, 160320, Note_on_c, 2, 69, 107
18, 160859, Note_off_c, 2, 65, 0
18, 160861, Note_off_c, 2, 69, 0
18, 160866, Note_off_c, 2, 60, 0
18, 161040, Note_on_c, 2, 60, 104
18, 161040, Note_on_c, 2, 65, 111
18, 161040, Note_on_c, 2, 69, 116
18, 161434, Note_off_c, 2, 69, 0
18, 161436, Note_off_c, 2, 65, 0
18, 161439, Note_off_c, 2, 60, 0
18, 161520, Note_on_c, 2, 60, 107
18, 161520, Note_on_c, 2, 64, 92
18, 161520, Note_on_c, 2, 67, 107
18, 161618, Note_off_c, 2, 64, 0
18, 161626, Note_off_c, 2, 67, 0
18, 161654, Note_off_c, 2, 60, 0
18, 161760, Note_on_c, 2, 60, 107
18, 161760, Note_on_c, 2, 64, 104
18, 161760, Note_on_c, 2, 67, 116
18, 161908, Note_off_c, 2, 64, 0
18, 161968, Note_off_c, 2, 67, 0
18, 161975, Note_off_c, 2, 60, 0
18, 162240, Note_on_c, 2, 64, 111
18, 162240, Note_on_c, 2, 67, 121
18, 162240, Note_on_c, 2, 72, 116
18, 163143, Note_off_c, 2, 64, 0
18, 163143, Note_off_c, 2, 67, 0
18, 163155, Note_off_c, 2, 72, 0
18, 163200, Note_on_c, 2, 58, 116
18, 163200, Note_on_c, 2, 63, 111
18, 163200, Note_on_c, 2, 67, 111
18, 164017, Note_off_c, 2, 67, 0
18, 164050, Note_off_c, 2, 63, 0
18, 164160, Note_on_c, 2, 63, 94
18, 164160, Note_on_c, 2, 67, 111
18, 164538, Note_off_c, 2, 58, 0
18, 164640, Note_on_c, 2, 58, 64
18, 164732, Note_off_c, 2, 67, 0
18, 164745, Note_off_c, 2, 58, 0
18, 164781, Note_off_c, 2, 63, 0
18, 164880, Note_on_c, 2, 58, 72
18, 164880, Note_on_c, 2, 63, 87
18, 164880, Note_on_c, 2, 67, 107
18, 165182, Note_off_c, 2, 67, 0
18, 165208, Note_off_c, 2, 58, 0
18, 165228, Note_off_c, 2, 63, 0
18, 165360, Note_on_c, 2, 58, 67
18, 165360, Note_on_c, 2, 62, 67
18, 165360, Note_on_c, 2, 65, 81
18, 165494, Note_off_c, 2, 58, 0
18, 165502, Note_off_c, 2, 62, 0
18, 165508, Note_off_c, 2, 65, 0
18, 165600, Note_on_c, 2, 58, 94
18, 165600, Note_on_c, 2, 62, 107
18, 165600, Note_on_c, 2, 65, 104
18, 165938, Note_off_c, 2, 58, 0
18, 166080, Note_on_c, 2, 58, 121
18, 166279, Note_off_c, 2, 58, 0
18, 166320, Note_on_c, 2, 57, 111
18, 166560, Note_on_c, 2, 55, 116
18, 166567, Note_off_c, 2, 57, 0
18, 166768, Note_off_c, 2, 55, 0
18, 166800, Note_on_c, 2, 53, 111
18, 167001, Note_off_c, 2, 65, 0
18, 167003, Note_off_c, 2, 53, 0
18, 167004, Note_off_c, 2, 62, 0
18, 167040, Note_on_c, 2, 60, 107
18, 167040, Note_on_c, 2, 65, 107
18, 167040, Note_on_c, 2, 69, 107
18, 167403, Note_off_c, 2, 60, 0
18, 167520, Note_on_c, 2, 60, 87
18, 167631, Note_off_c, 2, 69, 0
18, 167641, Note_off_c, 2, 65, 0
18, 167760, Note_on_c, 2, 65, 107
18, 167760, Note_on_c, 2, 69, 111
18, 167894, Note_off_c, 2, 69, 0
18, 167911, Note_off_c, 2, 65, 0
18, 167998, Note_off_c, 2, 60, 0
18, 168240, Note_on_c, 2, 60, 94
18, 168240, Note_on_c, 2, 65, 104
18, 168240, Note_on_c, 2, 69, 107
18, 168349, Note_off_c, 2, 69, 0
18, 168355, Note_off_c, 2, 65, 0
18, 168389, Note_off_c, 2, 60, 0
18, 168720, Note_on_c, 2, 60, 104
18, 168720, Note_on_c, 2, 65, 107
18, 168720, Note_on_c, 2, 69, 107
18, 169117, Note_off_c, 2, 65, 0
18, 169119, Note_off_c, 2, 60, 0
18, 169123, Note_off_c, 2, 69, 0
18, 169200, Note_on_c, 2, 60, 94
18, 169200, Note_on_c, 2, 64, 83
18, 169200, Note_on_c, 2, 67, 100
18, 169291, Note_off_c, 2, 60, 0
18, 169299, Note_off_c, 2, 64, 0
18, 169306, Note_off_c, 2, 67, 0
18, 169440, Note_on_c, 2, 60, 87
18, 169440, Note_on_c, 2, 64, 81
18, 169440, Note_on_c, 2, 67, 92
18, 169537, Note_off_c, 2, 67, 0
18, 169542, Note_off_c, 2, 64, 0
18, 169567, Note_off_c, 2, 60, 0
18, 169920, Note_on_c, 2, 60, 104
18, 169920, Note_on_c, 2, 64, 100
18, 169920, Note_on_c, 2, 67, 111
18, 170273, Note_off_c, 2, 60, 0
18, 170317, Note_off_c, 2, 64, 0
18, 170329, Note_off_c, 2, 67, 0
18, 170400, Note_on_c, 2, 64, 89
18, 170400, Note_on_c, 2, 67, 100
18, 170637, Note_off_c, 2, 64, 0
18, 170640, Note_on_c, 2, 60, 85
18, 170643, Note_off_c, 2, 67, 0
18, 170847, Note_off_c, 2, 60, 0
18, 170880, Note_on_c, 2, 55, 92
18, 170880, Note_on_c, 2, 57, 107
18, 170880, Note_on_c, 2, 62, 97
18, 171255, Note_off_c, 2, 57, 0
18, 171360, Note_on_c, 2, 57, 97
18, 171633, Note_off_c, 2, 62, 0
18, 171747, Note_off_c, 2, 57, 0
18, 171840, Note_on_c, 2, 57, 100
18, 171840, Note_on_c, 2, 62, 94
18, 172122, Note_off_c, 2, 57, 0
18, 172320, Note_on_c, 2, 57, 78
18, 172649, Note_off_c, 2, 55, 0
18, 172670, Note_off_c, 2, 57, 0
18, 172679, Note_off_c, 2, 62, 0
18, 172800, Note_on_c, 2, 55, 92
18, 172800, Note_on_c, 2, 57, 107
18, 172800, Note_on_c, 2, 62, 97
18, 173175, Note_off_c, 2, 57, 0
18, 173280, Note_on_c, 2, 57, 97
18, 173553, Note_off_c, 2, 62, 0
18, 173667, Note_off_c, 2, 57, 0
18, 173760, Note_on_c, 2, 57, 100
18, 173760, Note_on_c, 2, 62, 94
18, 174042, Note_off_c, 2, 57, 0
18, 174240, Note_on_c, 2, 57, 78
18, 174569, Note_off_c, 2, 55, 0
18, 174590, Note_off_c, 2, 57, 0
18, 174599, Note_off_c, 2, 62, 0
18, 174720, Note_on_c, 2, 60, 116
18, 174720, Note_on_c, 2, 67, 116
18, 174720, Note_on_c, 2, 71, 107
18, 175036, Note_off_c, 2, 60, 0
18, 175036, Note_off_c, 2, 67, 0
18, 175036, Note_off_c, 2, 71, 0
18, 175040, Note_on_c, 2, 60, 107
18, 175040, Note_on_c, 2, 67, 107
18, 175040, Note_on_c, 2, 71, 107
18, 175356, Note_off_c, 2, 60, 0
18, 175356, Note_off_c, 2, 67, 0
18, 175356, Note_off_c, 2, 71, 0
18, 175360, Note_on_c, 2, 60, 104
18, 175360, Note_on_c, 2, 67, 100
18, 175360, Note_on_c, 2, 71, 104
18, 175676, Note_off_c, 2, 60, 0
18, 175676, Note_off_c, 2, 67, 0
18, 175676, Note_off_c, 2, 71, 0
18, 175680, Note_on_c, 2, 60, 107
18, 175680, Note_on_c, 2, 67, 104
18, 175680, Note_on_c, 2, 71, 104
18, 175996, Note_off_c, 2, 60, 0
18, 175996, Note_off_c, 2, 67, 0
18, 175996, Note_off_c, 2, 71, 0
18, 176000, Note_on_c, 2, 60, 100
18, 176000, Note_on_c, 2, 67, 100
18, 176000, Note_on_c, 2, 71, 107
18, 176316, Note_off_c, 2, 60, 0
18, 176316, Note_off_c, 2, 67, 0
18, 176316, Note_off_c, 2, 71, 0
18, 176320, Note_on_c, 2, 60, 94
18, 176320, Note_on_c, 2, 67, 97
18, 176320, Note_on_c, 2, 71, 97
18, 176636, Note_off_c, 2, 60, 0
18, 176636, Note_off_c, 2, 67, 0
18, 176636, Note_off_c, 2, 71, 0
18, 176640, Note_on_c, 2, 60, 97
18, 176640, Note_on_c, 2, 67, 107
18, 176640, Note_on_c, 2, 71, 111
18, 177003, Note_off_c, 2, 67, 0
18, 177013, Note_off_c, 2, 71, 0
18, 177017, Note_off_c, 2, 60, 0
18, 177600, Note_on_c, 2, 60, 111
18, 177600, Note_on_c, 2, 64, 107
18, 177600, Note_on_c, 2, 67, 116
18, 177904, Note_off_c, 2, 64, 0
18, 177922, Note_off_c, 2, 67, 0
18, 177931, Note_off_c, 2, 60, 0
18, 177960, Note_on_c, 2, 60, 111
18, 177960, Note_on_c, 2, 64, 100
18, 177960, Note_on_c, 2, 69, 116
18, 178214, Note_off_c, 2, 64, 0
18, 178224, Note_off_c, 2, 60, 0
18, 178252, Note_off_c, 2, 69, 0
18, 178320, Note_on_c, 2, 60, 97
18, 178320, Note_on_c, 2, 64, 94
18, 178320, Note_on_c, 2, 71, 100
18, 178502, Note_off_c, 2, 64, 0
18, 178503, Note_off_c, 2, 71, 0
18, 178510, Note_off_c, 2, 60, 0
18, 178560, Note_on_c, 2, 55, 100
18, 178560, Note_on_c, 2, 59, 107
18, 178560, Note_on_c, 2, 64, 104
18, 178927, Note_off_c, 2, 55, 0
18, 179040, Note_on_c, 2, 55, 83
18, 179387, Note_off_c, 2, 59, 0
18, 179411, Note_off_c, 2, 64, 0
18, 179520, Note_on_c, 2, 59, 97
18, 179520, Note_on_c, 2, 64, 100
18, 179804, Note_off_c, 2, 55, 0
18, 180000, Note_on_c, 2, 55, 94
18, 180331, Note_off_c, 2, 59, 0
18, 180350, Note_off_c, 2, 64, 0
18, 180387, Note_off_c, 2, 55, 0
18, 180480, Note_on_c, 2, 57, 100
18, 180480, Note_on_c, 2, 62, 107
18, 180480, Note_on_c, 2, 66, 92
18, 180850, Note_off_c, 2, 57, 0
18, 180887, Note_off_c, 2, 66, 0
18, 180960, Note_on_c, 2, 57, 97
18, 181021, Note_off_c, 2, 62, 0
18, 181200, Note_on_c, 2, 66, 104
18, 181200, Note_on_c, 2, 69, 116
18, 181200, Note_on_c, 2, 74, 116
18, 181543, Note_off_c, 2, 66, 0
18, 181582, Note_off_c, 2, 74, 0
18, 181610, Note_off_c, 2, 57, 0
18, 181662, Note_off_c, 2, 69, 0
18, 181680, Note_on_c, 2, 57, 94
18, 181680, Note_on_c, 2, 62, 89
18, 181680, Note_on_c, 2, 66, 75
18, 182300, Note_off_c, 2, 57, 0
18, 182310, Note_off_c, 2, 62, 0
18, 182311, Note_off_c, 2, 66, 0
18, 182400, Note_on_c, 2, 62, 111
18, 182400, Note_on_c, 2, 66, 107
18, 182400, Note_on_c, 2, 69, 107
18, 182880, Note_on_c, 2, 57, 70
18, 183000, Note_off_c, 2, 62, 0
18, 183029, Note_off_c, 2, 66, 0
18, 183045, Note_off_c, 2, 69, 0
18, 183120, Note_on_c, 2, 62, 100
18, 183120, Note_on_c, 2, 66, 92
18, 183486, Note_off_c, 2, 66, 0
18, 183492, Note_off_c, 2, 62, 0
18, 183600, Note_on_c, 2, 62, 107
18, 183600, Note_on_c, 2, 66, 94
18, 183600, Note_on_c, 2, 69, 107
18, 183609, Note_off_c, 2, 57, 0
18, 184316, Note_off_c, 2, 62, 0
18, 184316, Note_off_c, 2, 66, 0
18, 184316, Note_off_c, 2, 69, 0
18, 184320, Note_on_c, 2, 59, 111
18, 184320, Note_on_c, 2, 62, 107
18, 184320, Note_on_c, 2, 67, 107
18, 185164, Note_off_c, 2, 62, 0
18, 185169, Note_off_c, 2, 67, 0
18, 185177, Note_off_c, 2, 59, 0
18, 185280, Note_on_c, 2, 59, 116
18, 185280, Note_on_c, 2, 62, 116
18, 185280, Note_on_c, 2, 67, 116
18, 185546, Note_off_c, 2, 62, 0
18, 185606, Note_off_c, 2, 67, 0
18, 185640, Note_on_c, 2, 62, 97
18, 185640, Note_on_c, 2, 69, 107
18, 185861, Note_off_c, 2, 62, 0
18, 185932, Note_off_c, 2, 59, 0
18, 185956, Note_off_c, 2, 69, 0
18, 186000, Note_on_c, 2, 62, 89
18, 186000, Note_on_c, 2, 71, 81
18, 186162, Note_off_c, 2, 71, 0
18, 186195, Note_off_c, 2, 62, 0
18, 186240, Note_on_c, 2, 55, 100
18, 186240, Note_on_c, 2, 59, 107
18, 186240, Note_on_c, 2, 64, 104
18, 186607, Note_off_c, 2, 55, 0
18, 186720, Note_on_c, 2, 55, 83
18, 187067, Note_off_c, 2, 59, 0
18, 187091, Note_off_c, 2, 64, 0
18, 187200, Note_on_c, 2, 59, 97
18, 187200, Note_on_c, 2, 64, 100
18, 187484, Note_off_c, 2, 55, 0
18, 187680, Note_on_c, 2, 55, 94
18, 188011, Note_off_c, 2, 59, 0
18, 188030, Note_off_c, 2, 64, 0
18, 188067, Note_off_c, 2, 55, 0
18, 188160, Note_on_c, 2, 57, 100
18, 188160, Note_on_c, 2, 62, 107
18, 188160, Note_on_c, 2, 66, 92
18, 188530, Note_off_c, 2, 57, 0
18, 188567, Note_off_c, 2, 66, 0
18, 188640, Note_on_c, 2, 57, 97
18, 188701, Note_off_c, 2, 62, 0
18, 188880, Note_on_c, 2, 66, 104
18, 188880, Note_on_c, 2, 69, 116
18, 188880, Note_on_c, 2, 74, 116
18, 189223, Note_off_c, 2, 66, 0
18, 189262, Note_off_c, 2, 74, 0
18, 189290, Note_off_c, 2, 57, 0
18, 189342, Note_off_c, 2, 69, 0
18, 189360, Note_on_c, 2, 57, 94
18, 189360, Note_on_c, 2, 62, 89
18, 189360, Note_on_c, 2, 66, 75
18, 189980, Note_off_c, 2, 57, 0
18, 189990, Note_off_c, 2, 62, 0
18, 189991, Note_off_c, 2, 66, 0
18, 190080, Note_on_c, 2, 57, 116
18, 190080, Note_on_c, 2, 62, 127
18, 190080, Note_on_c, 2, 66, 104
18, 190393, Note_off_c, 2, 57, 0
18, 190560, Note_on_c, 2, 57, 85
18, 190681, Note_off_c, 2, 57, 0
18, 190800, Note_on_c, 2, 57, 97
18, 191151, Note_off_c, 2, 66, 0
18, 191157, Note_off_c, 2, 62, 0
18, 191185, Note_off_c, 2, 57, 0
18, 191280, Note_on_c, 2, 57, 104
18, 191280, Note_on_c, 2, 62, 111
18, 191280, Note_on_c, 2, 66, 111
18, 191623, Note_off_c, 2, 57, 0
18, 191760, Note_on_c, 2, 57, 85
18, 191810, Note_off_c, 2, 62, 0
18, 191818, Note_off_c, 2, 66, 0
18, 191875, Note_off_c, 2, 57, 0
18, 192000, Note_on_c, 2, 65, 116
18, 192000, Note_on_c, 2, 69, 121
18, 192000, Note_on_c, 2, 72, 116
18, 192861, Note_off_c, 2, 69, 0
18, 192880, Note_off_c, 2, 72, 0
18, 192909, Note_off_c, 2, 65, 0
18, 192960, Note_on_c, 2, 62, 107
18, 192960, Note_on_c, 2, 67, 107
18, 192960, Note_on_c, 2, 71, 107
18, 193883, Note_off_c, 2, 67, 0
18, 193889, Note_off_c, 2, 71, 0
18, 193904, Note_off_c, 2, 62, 0
18, 193920, Note_on_c, 2, 55, 100
18, 193920, Note_on_c, 2, 59, 107
18, 193920, Note_on_c, 2, 64, 104
18, 194287, Note_off_c, 2, 55, 0
18, 194400, Note_on_c, 2, 55, 83
18, 194747, Note_off_c, 2, 59, 0
18, 194771, Note_off_c, 2, 64, 0
18, 194880, Note_on_c, 2, 59, 97
18, 194880, Note_on_c, 2, 64, 100
18, 195164, Note_off_c, 2, 55, 0
18, 195360, Note_on_c, 2, 55, 94
18, 195691, Note_off_c, 2, 59, 0
18, 195710, Note_off_c, 2, 64, 0
18, 195747, Note_off_c, 2, 55, 0
18, 195840, Note_on_c, 2, 57, 100
18, 195840, Note_on_c, 2, 62, 107
18, 195840, Note_on_c, 2, 66, 92
18, 196210, Note_off_c, 2, 57, 0
18, 196247, Note_off_c, 2, 66, 0
18, 196320, Note_on_c, 2, 57, 97
18, 196381, Note_off_c, 2, 62, 0
18, 196560, Note_on_c, 2, 66, 104
18, 196560, Note_on_c, 2, 69, 116
18, 196560, Note_on_c, 2, 74, 116
18, 196903, Note_off_c, 2, 66, 0
18, 196942, Note_off_c, 2, 74, 0
18, 196970, Note_off_c, 2, 57, 0
18, 197022, Note_off_c, 2, 69, 0
18, 197040, Note_on_c, 2, 57, 94
18, 197040, Note_on_c, 2, 62, 89
18, 197040, Note_on_c, 2, 66, 75
18, 197660, Note_off_c, 2, 57, 0
18, 197670, Note_off_c, 2, 62, 0
18, 197671, Note_off_c, 2, 66, 0
18, 197760, Note_on_c, 2, 57, 111
18, 197760, Note_on_c, 2, 62, 116
18, 197760, Note_on_c, 2, 66, 104
18, 198134, Note_off_c, 2, 57, 0
18, 198240, Note_on_c, 2, 57, 89
18, 198356, Note_off_c, 2, 62, 0
18, 198384, Note_off_c, 2, 66, 0
18, 198480, Note_on_c, 2, 62, 97
18, 198480, Note_on_c, 2, 66, 83
18, 198636, Note_off_c, 2, 57, 0
18, 198720, Note_on_c, 2, 57, 85
18, 198726, Note_off_c, 2, 66, 0
18, 198785, Note_off_c, 2, 62, 0
18, 198960, Note_on_c, 2, 66, 89
18, 198960, Note_on_c, 2, 69, 111
18, 198960, Note_on_c, 2, 74, 104
18, 199313, Note_off_c, 2, 57, 0
18, 199509, Note_off_c, 2, 66, 0
18, 199521, Note_off_c, 2, 69, 0
18, 199529, Note_off_c, 2, 74, 0
18, 199680, Note_on_c, 2, 59, 107
18, 199680, Note_on_c, 2, 62, 127
18, 199680, Note_on_c, 2, 67, 111
18, 200011, Note_off_c, 2, 59, 0
18, 200160, Note_on_c, 2, 59, 79
18, 200373, Note_off_c, 2, 67, 0
18, 200400, Note_on_c, 2, 66, 92
18, 200805, Note_off_c, 2, 62, 0
18, 200870, Note_off_c, 2, 66, 0
18, 200880, Note_on_c, 2, 62, 85
18, 200880, Note_on_c, 2, 67, 100
18, 201512, Note_off_c, 2, 62, 0
18, 201513, Note_off_c, 2, 67, 0
18, 201551, Note_off_c, 2, 59, 0
18, 201600, Note_on_c, 2, 55, 97
18, 201600, Note_on_c, 2, 60, 104
18, 201600, Note_on_c, 2, 64, 100
18, 202508, Note_off_c, 2, 64, 0
18, 202543, Note_off_c, 2, 60, 0
18, 202560, Note_on_c, 2, 59, 92
18, 202560, Note_on_c, 2, 62, 87
18, 202560, Note_on_c, 2, 67, 92
18, 202569, Note_off_c, 2, 55, 0
18, 203451, Note_off_c, 2, 67, 0
18, 203466, Note_off_c, 2, 59, 0
18, 203474, Note_off_c, 2, 62, 0
18, 203520, Note_on_c, 2, 60, 83
18, 203520, Note_on_c, 2, 63, 79
18, 203520, Note_on_c, 2, 67, 94
18, 207356, Note_off_c, 2, 60, 0
18, 207356, Note_off_c, 2, 63, 0
18, 207356, Note_off_c, 2, 67, 0
18, 211200, Note_on_c, 2, 47, 97
18, 211200, Note_on_c, 2, 54, 87
18, 211200, Note_on_c, 2, 57, 111
18, 211200, Note_on_c, 2, 62, 94
18, 212156, Note_off_c, 2, 54, 0
18, 212156, Note_off_c, 2, 57, 0
18, 212156, Note_off_c, 2, 62, 0
18, 212160, Note_on_c, 2, 54, 92
18, 212160, Note_on_c, 2, 57, 111
18, 212160, Note_on_c, 2, 62, 104
18, 212640, Note_on_c, 2, 50, 69
18, 212876, Note_off_c, 2, 54, 0
18, 212876, Note_off_c, 2, 57, 0
18, 212876, Note_off_c, 2, 62, 0
18, 213116, Note_off_c, 2, 47, 0
18, 213116, Note_off_c, 2, 50, 0
18, 213120, Note_on_c, 2, 40, 76
18, 213120, Note_on_c, 2, 52, 59
18, 213120, Note_on_c, 2, 55, 89
18, 213120, Note_on_c, 2, 59, 97
18, 213120, Note_on_c, 2, 62, 97
18, 213442, Note_off_c, 2, 52, 0
18, 213600, Note_on_c, 2, 52, 62
18, 213715, Note_off_c, 2, 59, 0
18, 213770, Note_off_c, 2, 55, 0
18, 213816, Note_off_c, 2, 62, 0
18, 213840, Note_on_c, 2, 55, 94
18, 213840, Note_on_c, 2, 59, 107
18, 214275, Note_off_c, 2, 52, 0
18, 214320, Note_on_c, 2, 62, 83
18, 214560, Note_on_c, 2, 50, 72
18, 214893, Note_off_c, 2, 59, 0
18, 214895, Note_off_c, 2, 55, 0
18, 214932, Note_off_c, 2, 62, 0
18, 214942, Note_off_c, 2, 50, 0
18, 214960, Note_off_c, 2, 40, 0
18, 215040, Note_on_c, 2, 46, 69
18, 215040, Note_on_c, 2, 55, 94
18, 215040, Note_on_c, 2, 58, 85
18, 215040, Note_on_c, 2, 62, 100
18, 215373, Note_off_c, 2, 46, 0
18, 215520, Note_on_c, 2, 46, 38
18, 215574, Note_off_c, 2, 58, 0
18, 215760, Note_on_c, 2, 60, 97
18, 215788, Note_off_c, 2, 62, 0
18, 216224, Note_off_c, 2, 60, 0
18, 216240, Note_on_c, 2, 58, 64
18, 216810, Note_off_c, 2, 58, 0
18, 216831, Note_off_c, 2, 55, 0
18, 216832, Note_on_c, 2, 45, 79
18, 216835, Note_on_c, 2, 52, 60
18, 216837, Note_off_c, 2, 46, 0
18, 216884, Note_on_c, 2, 55, 81
18, 216913, Note_on_c, 2, 57, 68
18, 216957, Note_on_c, 2, 62, 70
18, 217820, Note_off_c, 2, 57, 0
18, 217828, Note_off_c, 2, 62, 0
18, 217833, Note_off_c, 2, 55, 0
18, 217836, Note_off_c, 2, 52, 0
18, 217920, Note_on_c, 2, 52, 58
18, 218160, Note_on_c, 2, 55, 72
18, 218400, Note_on_c, 2, 62, 83
18, 218807, Note_off_c, 2, 45, 0
18, 218818, Note_off_c, 2, 52, 0
18, 218824, Note_off_c, 2, 55, 0
18, 218845, Note_off_c, 2, 62, 0
18, 218880, Note_on_c, 2, 47, 97
18, 218880, Note_on_c, 2, 54, 87
18, 218880, Note_on_c, 2, 57, 111
18, 218880, Note_on_c, 2, 62, 94
18, 219836, Note_off_c, 2, 54, 0
18, 219836, Note_off_c, 2, 57, 0
18, 219836, Note_off_c, 2, 62, 0
18, 219840, Note_on_c, 2, 54, 92
18, 219840, Note_on_c, 2, 57, 111
18, 219840, Note_on_c, 2, 62, 104
18, 220320, Note_on_c, 2, 50, 69
18, 220320, Note_on_c, 2, 69, 127
18, 220556, Note_off_c, 2, 54, 0
18, 220556, Note_off_c, 2, 57, 0
18, 220556, Note_off_c, 2, 62, 0
18, 220796, Note_off_c, 2, 47, 0
18, 220796, Note_off_c, 2, 50, 0
18, 220799, Note_off_c, 2, 69, 0
18, 220800, Note_on_c, 2, 40, 76
18, 220800, Note_on_c, 2, 52, 59
18, 220800, Note_on_c, 2, 55, 89
18, 220800, Note_on_c, 2, 59, 97
18, 220800, Note_on_c, 2, 62, 97
18, 220800, Note_on_c, 2, 67, 111
18, 221036, Note_off_c, 2, 52, 0
18, 221276, Note_off_c, 2, 59, 0
18, 221280, Note_on_c, 2, 52, 62
18, 221514, Note_off_c, 2, 67, 0
18, 221516, Note_off_c, 2, 55, 0
18, 221516, Note_off_c, 2, 62, 0
18, 221520, Note_on_c, 2, 55, 94
18, 221520, Note_on_c, 2, 59, 107
18, 221996, Note_off_c, 2, 52, 0
18, 222000, Note_on_c, 2, 62, 83
18, 222000, Note_on_c, 2, 67, 97
18, 222240, Note_on_c, 2, 50, 72
18, 222476, Note_off_c, 2, 55, 0
18, 222476, Note_off_c, 2, 59, 0
18, 222649, Note_on_c, 2, 51, 54
18, 222659, Note_off_c, 2, 67, 0
18, 222665, Note_on_c, 2, 55, 75
18, 222716, Note_off_c, 2, 40, 0
18, 222716, Note_off_c, 2, 50, 0
18, 222716, Note_off_c, 2, 62, 0
18, 222730, Note_on_c, 2, 58, 51
18, 222737, Note_on_c, 2, 62, 75
18, 222805, Note_on_c, 2, 67, 76
18, 224467, Note_off_c, 2, 67, 0
18, 224480, Note_off_c, 2, 58, 0
18, 224487, Note_off_c, 2, 55, 0
18, 224491, Note_off_c, 2, 62, 0
18, 224495, Note_off_c, 2, 51, 0
18, 225492, Note_on_c, 2, 38, 47
18, 225550, Note_on_c, 2, 55, 65
18, 225569, Note_on_c, 2, 50, 56
18, 225605, Note_on_c, 2, 60, 78
18, 225688, Note_on_c, 2, 64, 56
18, 227093, Note_off_c, 2, 64, 0
18, 227097, Note_on_c, 2, 62, 62
18, 228625, Note_on_c, 2, 76, 59
18, 228711, Note_on_c, 2, 79, 51
18, 228794, Note_on_c, 2, 86, 56
18, 228849, Note_off_c, 2, 55, 0
18, 228854, Note_off_c, 2, 60, 0
18, 228862, Note_off_c, 2, 62, 0
18, 232108, Note_off_c, 2, 76, 0
18, 232126, Note_off_c, 2, 79, 0
18, 232150, Note_off_c, 2, 86, 0
18, 232219, Note_off_c, 2, 50, 0
18, 232228, Note_off_c, 2, 38, 0
18, 236204, Control_c, 2, 7, 127
18, 236204, Control_c, 2, 121, 0
18, 236209, End_track
19, 0, Start_track
19, 515, Control_c, 3, 0, 0
19, 520, Control_c, 3, 32, 0
19, 525, Program_c, 3, 62
19, 530, Control_c, 3, 7, 127
19, 535, Control_c, 3, 10, 54
19, 540, Control_c, 3, 11, 127
19, 545, Control_c, 3, 91, 67
19, 550, Control_c, 3, 93, 0
19, 555, Control_c, 3, 74, 64
19, 560, Control_c, 3, 71, 64
19, 565, Control_c, 3, 73, 64
19, 570, Control_c, 3, 72, 64
19, 575, Control_c, 3, 94, 0
19, 8848, Control_c, 3, 7, 124
19, 8883, Control_c, 3, 7, 105
19, 8914, Control_c, 3, 7, 83
19, 8945, Control_c, 3, 7, 63
19, 8982, Control_c, 3, 7, 44
19, 9012, Control_c, 3, 7, 41
19, 9090, Control_c, 3, 7, 58
19, 9120, Note_on_c, 3, 67, 118
19, 9123, Control_c, 3, 7, 68
19, 9159, Control_c, 3, 7, 76
19, 9189, Control_c, 3, 7, 80
19, 9231, Control_c, 3, 7, 85
19, 9265, Control_c, 3, 7, 88
19, 9299, Control_c, 3, 7, 91
19, 9333, Control_c, 3, 7, 94
19, 9391, Control_c, 3, 7, 97
19, 9448, Control_c, 3, 7, 100
19, 9493, Control_c, 3, 7, 103
19, 9523, Control_c, 3, 7, 105
19, 9554, Control_c, 3, 7, 106
19, 9584, Control_c, 3, 7, 108
19, 9638, Control_c, 3, 7, 111
19, 9701, Control_c, 3, 7, 114
19, 9755, Control_c, 3, 7, 117
19, 9791, Control_c, 3, 7, 118
19, 9837, Control_c, 3, 7, 120
19, 9901, Control_c, 3, 7, 121
19, 9949, Control_c, 3, 7, 123
19, 9999, Control_c, 3, 7, 124
19, 10034, Control_c, 3, 7, 126
19, 10091, Control_c, 3, 7, 127
19, 10315, Note_off_c, 3, 67, 0
19, 10320, Note_on_c, 3, 66, 91
19, 10791, Note_off_c, 3, 66, 0
19, 10800, Note_on_c, 3, 64, 95
19, 11040, Note_on_c, 3, 62, 91
19, 11043, Note_off_c, 3, 64, 0
19, 12126, Control_c, 3, 7, 126
19, 12171, Control_c, 3, 7, 124
19, 12203, Control_c, 3, 7, 123
19, 12234, Control_c, 3, 7, 121
19, 12290, Control_c, 3, 7, 118
19, 12320, Control_c, 3, 7, 117
19, 12366, Control_c, 3, 7, 114
19, 12406, Control_c, 3, 7, 111
19, 12441, Control_c, 3, 7, 108
19, 12475, Control_c, 3, 7, 105
19, 12508, Control_c, 3, 7, 101
19, 12545, Control_c, 3, 7, 98
19, 12577, Control_c, 3, 7, 95
19, 12610, Control_c, 3, 7, 92
19, 12644, Control_c, 3, 7, 87
19, 12685, Control_c, 3, 7, 81
19, 12712, Note_off_c, 3, 62, 0
19, 12715, Control_c, 3, 7, 76
19, 12748, Control_c, 3, 7, 68
19, 12779, Control_c, 3, 7, 62
19, 12815, Control_c, 3, 7, 56
19, 12848, Control_c, 3, 7, 52
19, 12882, Control_c, 3, 7, 51
19, 12926, Control_c, 3, 7, 53
19, 12959, Control_c, 3, 7, 73
19, 12989, Control_c, 3, 7, 98
19, 13027, Control_c, 3, 7, 127
19, 18000, Note_on_c, 3, 55, 107
19, 18218, Note_off_c, 3, 55, 0
19, 18240, Note_on_c, 3, 59, 105
19, 18446, Note_off_c, 3, 59, 0
19, 18480, Note_on_c, 3, 57, 110
19, 18677, Note_off_c, 3, 57, 0
19, 18720, Note_on_c, 3, 57, 114
19, 18957, Note_off_c, 3, 57, 0
19, 18960, Note_on_c, 3, 55, 104
19, 19190, Note_off_c, 3, 55, 0
19, 19200, Note_on_c, 3, 57, 110
19, 19408, Note_off_c, 3, 57, 0
19, 19440, Note_on_c, 3, 59, 105
19, 19652, Note_off_c, 3, 59, 0
19, 19680, Note_on_c, 3, 59, 92
19, 20466, Note_off_c, 3, 59, 0
19, 20640, Note_on_c, 3, 62, 104
19, 20827, Note_off_c, 3, 62, 0
19, 20880, Note_on_c, 3, 62, 107
19, 21836, Note_off_c, 3, 62, 0
19, 21840, Note_on_c, 3, 60, 100
19, 22080, Note_on_c, 3, 59, 103
19, 22086, Note_off_c, 3, 60, 0
19, 22552, Note_off_c, 3, 59, 0
19, 22560, Note_on_c, 3, 57, 94
19, 22796, Note_off_c, 3, 57, 0
19, 22800, Note_on_c, 3, 55, 87
19, 23036, Note_off_c, 3, 55, 0
19, 23040, Note_on_c, 3, 57, 95
19, 23552, Control_c, 3, 7, 123
19, 23582, Control_c, 3, 7, 120
19, 23622, Control_c, 3, 7, 117
19, 23654, Control_c, 3, 7, 114
19, 23697, Control_c, 3, 7, 109
19, 23730, Control_c, 3, 7, 104
19, 23766, Control_c, 3, 7, 96
19, 23797, Control_c, 3, 7, 90
19, 23838, Control_c, 3, 7, 84
19, 23868, Control_c, 3, 7, 74
19, 23907, Control_c, 3, 7, 63
19, 23938, Control_c, 3, 7, 56
19, 23977, Control_c, 3, 7, 52
19, 24011, Note_off_c, 3, 57, 0
19, 24044, Control_c, 3, 7, 69
19, 24075, Control_c, 3, 7, 97
19, 24105, Control_c, 3, 7, 126
19, 25680, Note_on_c, 3, 55, 107
19, 25900, Note_off_c, 3, 55, 0
19, 25920, Note_on_c, 3, 59, 109
19, 26120, Note_off_c, 3, 59, 0
19, 26160, Note_on_c, 3, 57, 107
19, 26343, Note_off_c, 3, 57, 0
19, 26400, Note_on_c, 3, 57, 110
19, 26613, Note_off_c, 3, 57, 0
19, 26640, Note_on_c, 3, 55, 91
19, 26857, Note_off_c, 3, 55, 0
19, 26880, Note_on_c, 3, 62, 104
19, 27116, Note_off_c, 3, 62, 0
19, 27120, Note_on_c, 3, 59, 102
19, 27356, Note_off_c, 3, 59, 0
19, 27360, Note_on_c, 3, 57, 96
19, 27596, Note_off_c, 3, 57, 0
19, 27600, Note_on_c, 3, 55, 94
19, 28114, Note_off_c, 3, 55, 0
19, 28320, Note_on_c, 3, 55, 110
19, 28559, Note_off_c, 3, 55, 0
19, 28560, Note_on_c, 3, 62, 110
19, 28745, Note_off_c, 3, 62, 0
19, 28800, Note_on_c, 3, 62, 112
19, 29497, Note_off_c, 3, 62, 0
19, 29520, Note_on_c, 3, 60, 99
19, 29752, Note_off_c, 3, 60, 0
19, 29760, Note_on_c, 3, 59, 103
19, 29989, Note_off_c, 3, 59, 0
19, 30000, Note_on_c, 3, 62, 103
19, 30233, Note_off_c, 3, 62, 0
19, 30240, Note_on_c, 3, 57, 102
19, 30463, Note_off_c, 3, 57, 0
19, 30480, Note_on_c, 3, 55, 88
19, 31271, Note_off_c, 3, 55, 0
19, 31680, Note_on_c, 3, 67, 114
19, 32036, Note_off_c, 3, 67, 0
19, 32040, Note_on_c, 3, 66, 102
19, 32396, Note_off_c, 3, 66, 0
19, 32400, Note_on_c, 3, 64, 97
19, 32636, Note_off_c, 3, 64, 0
19, 32640, Note_on_c, 3, 62, 109
19, 33596, Note_off_c, 3, 62, 0
19, 33600, Note_on_c, 3, 59, 102
19, 33836, Note_off_c, 3, 59, 0
19, 33840, Note_on_c, 3, 64, 104
19, 34076, Note_off_c, 3, 64, 0
19, 34080, Note_on_c, 3, 62, 105
19, 34676, Note_off_c, 3, 62, 0
19, 34680, Note_on_c, 3, 59, 85
19, 34796, Note_off_c, 3, 59, 0
19, 34800, Note_on_c, 3, 57, 93
19, 34916, Note_off_c, 3, 57, 0
19, 34920, Note_on_c, 3, 55, 84
19, 35608, Note_off_c, 3, 55, 0
19, 36000, Note_on_c, 3, 57, 110
19, 36220, Note_off_c, 3, 57, 0
19, 36240, Note_on_c, 3, 60, 114
19, 36940, Note_off_c, 3, 60, 0
19, 36960, Note_on_c, 3, 59, 105
19, 37197, Note_off_c, 3, 59, 0
19, 37200, Note_on_c, 3, 62, 105
19, 37680, Note_on_c, 3, 59, 104
19, 37690, Note_off_c, 3, 62, 0
19, 37900, Note_off_c, 3, 59, 0
19, 37920, Note_on_c, 3, 57, 97
19, 38727, Note_off_c, 3, 57, 0
19, 39360, Note_on_c, 3, 67, 114
19, 39716, Note_off_c, 3, 67, 0
19, 39720, Note_on_c, 3, 69, 110
19, 40076, Note_off_c, 3, 69, 0
19, 40080, Note_on_c, 3, 67, 110
19, 40316, Note_off_c, 3, 67, 0
19, 40320, Note_on_c, 3, 66, 95
19, 40556, Note_off_c, 3, 66, 0
19, 40560, Note_on_c, 3, 64, 94
19, 40796, Note_off_c, 3, 64, 0
19, 40800, Note_on_c, 3, 62, 91
19, 41327, Note_off_c, 3, 62, 0
19, 41520, Note_on_c, 3, 62, 110
19, 41756, Note_off_c, 3, 62, 0
19, 41760, Note_on_c, 3, 64, 102
19, 41996, Note_off_c, 3, 64, 0
19, 42000, Note_on_c, 3, 59, 103
19, 42236, Note_off_c, 3, 59, 0
19, 42240, Note_on_c, 3, 64, 104
19, 42956, Note_off_c, 3, 64, 0
19, 42960, Note_on_c, 3, 62, 96
19, 43480, Note_off_c, 3, 62, 0
19, 43920, Note_on_c, 3, 64, 104
19, 44156, Note_off_c, 3, 64, 0
19, 44160, Note_on_c, 3, 67, 114
19, 44636, Note_off_c, 3, 67, 0
19, 44640, Note_on_c, 3, 64, 102
19, 44876, Note_off_c, 3, 64, 0
19, 44880, Note_on_c, 3, 67, 110
19, 45596, Note_off_c, 3, 67, 0
19, 45600, Note_on_c, 3, 69, 110
19, 45836, Note_off_c, 3, 69, 0
19, 45840, Note_on_c, 3, 71, 107
19, 46316, Note_off_c, 3, 71, 0
19, 46320, Note_on_c, 3, 69, 104
19, 46556, Note_off_c, 3, 69, 0
19, 46560, Note_on_c, 3, 67, 95
19, 46963, Note_off_c, 3, 67, 0
19, 47040, Note_on_c, 3, 67, 121
19, 47382, Note_off_c, 3, 67, 0
19, 47400, Note_on_c, 3, 69, 121
19, 47695, Note_off_c, 3, 69, 0
19, 47760, Note_on_c, 3, 71, 114
19, 47993, Note_off_c, 3, 71, 0
19, 48000, Note_on_c, 3, 71, 116
19, 48567, Note_off_c, 3, 71, 0
19, 49200, Note_on_c, 3, 67, 116
19, 49396, Note_off_c, 3, 67, 0
19, 49440, Note_on_c, 3, 69, 114
19, 49665, Note_off_c, 3, 69, 0
19, 49680, Note_on_c, 3, 71, 114
19, 50160, Note_on_c, 3, 69, 105
19, 50162, Note_off_c, 3, 71, 0
19, 50818, Note_off_c, 3, 69, 0
19, 51600, Note_on_c, 3, 62, 112
19, 51794, Note_off_c, 3, 62, 0
19, 51840, Note_on_c, 3, 69, 116
19, 52269, Note_off_c, 3, 69, 0
19, 52320, Note_on_c, 3, 69, 116
19, 52560, Note_on_c, 3, 69, 116
19, 52571, Note_off_c, 3, 69, 0
19, 53006, Note_off_c, 3, 69, 0
19, 53040, Note_on_c, 3, 66, 100
19, 53260, Note_off_c, 3, 66, 0
19, 53280, Note_on_c, 3, 69, 116
19, 53520, Note_on_c, 3, 67, 110
19, 53537, Note_off_c, 3, 69, 0
19, 54327, Note_off_c, 3, 67, 0
19, 54480, Note_on_c, 3, 67, 118
19, 54686, Note_off_c, 3, 67, 0
19, 54720, Note_on_c, 3, 67, 118
19, 55043, Note_off_c, 3, 67, 0
19, 55080, Note_on_c, 3, 69, 118
19, 55383, Note_off_c, 3, 69, 0
19, 55440, Note_on_c, 3, 71, 104
19, 55649, Note_off_c, 3, 71, 0
19, 55680, Note_on_c, 3, 71, 112
19, 56525, Note_off_c, 3, 71, 0
19, 56880, Note_on_c, 3, 67, 114
19, 57093, Note_off_c, 3, 67, 0
19, 57120, Note_on_c, 3, 69, 109
19, 57349, Note_off_c, 3, 69, 0
19, 57360, Note_on_c, 3, 71, 110
19, 57836, Note_off_c, 3, 71, 0
19, 57840, Note_on_c, 3, 69, 116
19, 58316, Note_off_c, 3, 69, 0
19, 58320, Note_on_c, 3, 66, 95
19, 58436, Note_off_c, 3, 66, 0
19, 58440, Note_on_c, 3, 64, 96
19, 58556, Note_off_c, 3, 64, 0
19, 58560, Note_on_c, 3, 62, 92
19, 59125, Note_off_c, 3, 62, 0
19, 59280, Note_on_c, 3, 62, 112
19, 59491, Note_off_c, 3, 62, 0
19, 59520, Note_on_c, 3, 69, 118
19, 59907, Note_off_c, 3, 69, 0
19, 60000, Note_on_c, 3, 69, 116
19, 60240, Note_on_c, 3, 71, 112
19, 60264, Note_off_c, 3, 69, 0
19, 60720, Note_on_c, 3, 72, 109
19, 60729, Note_off_c, 3, 71, 0
19, 61149, Note_off_c, 3, 72, 0
19, 61200, Note_on_c, 3, 71, 104
19, 61940, Note_off_c, 3, 71, 0
19, 62400, Note_on_c, 3, 67, 116
19, 62742, Note_off_c, 3, 67, 0
19, 62760, Note_on_c, 3, 69, 118
19, 63079, Note_off_c, 3, 69, 0
19, 63120, Note_on_c, 3, 71, 112
19, 63360, Note_on_c, 3, 71, 116
19, 63365, Note_off_c, 3, 71, 0
19, 64752, Note_off_c, 3, 71, 0
19, 64800, Note_on_c, 3, 72, 109
19, 65040, Note_on_c, 3, 69, 104
19, 65041, Note_off_c, 3, 72, 0
19, 66117, Note_off_c, 3, 69, 0
19, 66480, Note_on_c, 3, 66, 112
19, 66650, Note_off_c, 3, 66, 0
19, 66720, Note_on_c, 3, 66, 109
19, 66900, Note_off_c, 3, 66, 0
19, 66960, Note_on_c, 3, 67, 110
19, 67180, Note_off_c, 3, 67, 0
19, 67200, Note_on_c, 3, 69, 112
19, 67662, Note_off_c, 3, 69, 0
19, 67680, Note_on_c, 3, 71, 105
19, 67920, Note_on_c, 3, 67, 109
19, 67941, Note_off_c, 3, 71, 0
19, 68375, Note_off_c, 3, 67, 0
19, 68400, Note_on_c, 3, 66, 100
19, 68858, Note_off_c, 3, 66, 0
19, 68880, Note_on_c, 3, 69, 114
19, 69600, Note_on_c, 3, 67, 97
19, 69609, Note_off_c, 3, 69, 0
19, 70478, Note_off_c, 3, 67, 0
19, 71040, Note_on_c, 3, 67, 114
19, 71980, Note_off_c, 3, 67, 0
19, 72000, Note_on_c, 3, 69, 110
19, 72464, Note_off_c, 3, 69, 0
19, 72480, Note_on_c, 3, 71, 102
19, 72710, Note_off_c, 3, 71, 0
19, 72720, Note_on_c, 3, 69, 104
19, 73411, Note_off_c, 3, 69, 0
19, 73440, Note_on_c, 3, 67, 91
19, 74751, Note_off_c, 3, 67, 0
19, 75840, Note_on_c, 3, 58, 112
19, 76316, Note_off_c, 3, 58, 0
19, 76320, Note_on_c, 3, 57, 109
19, 76556, Note_off_c, 3, 57, 0
19, 76560, Note_on_c, 3, 55, 100
19, 76796, Note_off_c, 3, 55, 0
19, 76800, Note_on_c, 3, 62, 109
19, 78236, Note_off_c, 3, 62, 0
19, 78240, Note_on_c, 3, 64, 89
19, 78476, Note_off_c, 3, 64, 0
19, 78480, Note_on_c, 3, 62, 92
19, 80032, Note_off_c, 3, 62, 0
19, 80640, Note_on_c, 3, 67, 101
19, 82076, Note_off_c, 3, 67, 0
19, 82080, Note_on_c, 3, 70, 84
19, 82316, Note_off_c, 3, 70, 0
19, 82320, Note_on_c, 3, 69, 104
19, 83036, Note_off_c, 3, 69, 0
19, 83040, Note_on_c, 3, 67, 84
19, 83978, Note_off_c, 3, 67, 0
19, 85200, Note_on_c, 3, 59, 112
19, 85388, Note_off_c, 3, 59, 0
19, 85440, Note_on_c, 3, 59, 114
19, 85655, Note_off_c, 3, 59, 0
19, 85680, Note_on_c, 3, 57, 112
19, 85876, Note_off_c, 3, 57, 0
19, 85920, Note_on_c, 3, 57, 112
19, 86142, Note_off_c, 3, 57, 0
19, 86160, Note_on_c, 3, 55, 105
19, 86397, Note_off_c, 3, 55, 0
19, 86400, Note_on_c, 3, 57, 110
19, 86608, Note_off_c, 3, 57, 0
19, 86640, Note_on_c, 3, 59, 110
19, 86823, Note_off_c, 3, 59, 0
19, 86880, Note_on_c, 3, 59, 110
19, 87117, Note_off_c, 3, 59, 0
19, 87120, Note_on_c, 3, 57, 112
19, 87619, Note_off_c, 3, 57, 0
19, 88080, Note_on_c, 3, 62, 109
19, 88288, Note_off_c, 3, 62, 0
19, 88320, Note_on_c, 3, 62, 110
19, 89036, Note_off_c, 3, 62, 0
19, 89040, Note_on_c, 3, 60, 103
19, 89276, Note_off_c, 3, 60, 0
19, 89280, Note_on_c, 3, 62, 105
19, 89996, Note_off_c, 3, 62, 0
19, 90000, Note_on_c, 3, 60, 98
19, 90236, Note_off_c, 3, 60, 0
19, 90240, Note_on_c, 3, 59, 105
19, 90476, Note_off_c, 3, 59, 0
19, 90480, Note_on_c, 3, 57, 92
19, 91305, Note_off_c, 3, 57, 0
19, 92640, Note_on_c, 3, 59, 114
19, 93037, Note_off_c, 3, 59, 0
19, 93120, Note_on_c, 3, 64, 112
19, 93322, Note_off_c, 3, 64, 0
19, 93360, Note_on_c, 3, 59, 109
19, 93565, Note_off_c, 3, 59, 0
19, 93600, Note_on_c, 3, 59, 100
19, 93997, Note_off_c, 3, 59, 0
19, 94080, Note_on_c, 3, 64, 105
19, 94288, Note_off_c, 3, 64, 0
19, 94320, Note_on_c, 3, 59, 99
19, 94541, Note_off_c, 3, 59, 0
19, 94560, Note_on_c, 3, 57, 95
19, 94782, Note_off_c, 3, 57, 0
19, 94800, Note_on_c, 3, 55, 96
19, 95437, Note_off_c, 3, 55, 0
19, 95760, Note_on_c, 3, 62, 101
19, 95961, Note_off_c, 3, 62, 0
19, 96000, Note_on_c, 3, 62, 112
19, 97177, Note_off_c, 3, 62, 0
19, 97200, Note_on_c, 3, 62, 112
19, 97407, Note_off_c, 3, 62, 0
19, 97440, Note_on_c, 3, 59, 107
19, 97677, Note_off_c, 3, 59, 0
19, 97680, Note_on_c, 3, 64, 102
19, 98123, Note_off_c, 3, 64, 0
19, 98160, Note_on_c, 3, 62, 103
19, 98830, Note_off_c, 3, 62, 0
19, 98880, Note_on_c, 3, 67, 118
19, 99240, Note_on_c, 3, 69, 114
19, 99251, Note_off_c, 3, 67, 0
19, 99554, Note_off_c, 3, 69, 0
19, 99600, Note_on_c, 3, 67, 112
19, 99840, Note_on_c, 3, 66, 104
19, 99843, Note_off_c, 3, 67, 0
19, 100979, Note_off_c, 3, 66, 0
19, 101040, Note_on_c, 3, 64, 107
19, 101247, Note_off_c, 3, 64, 0
19, 101280, Note_on_c, 3, 64, 104
19, 101504, Note_off_c, 3, 64, 0
19, 101520, Note_on_c, 3, 59, 103
19, 101760, Note_on_c, 3, 64, 100
19, 101766, Note_off_c, 3, 59, 0
19, 102443, Note_off_c, 3, 64, 0
19, 102480, Note_on_c, 3, 62, 94
19, 103256, Note_off_c, 3, 62, 0
19, 103440, Note_on_c, 3, 59, 110
19, 103671, Note_off_c, 3, 59, 0
19, 103680, Note_on_c, 3, 60, 112
19, 104135, Note_off_c, 3, 60, 0
19, 104160, Note_on_c, 3, 59, 105
19, 104380, Note_off_c, 3, 59, 0
19, 104400, Note_on_c, 3, 62, 109
19, 104834, Note_off_c, 3, 62, 0
19, 104880, Note_on_c, 3, 62, 110
19, 105086, Note_off_c, 3, 62, 0
19, 105120, Note_on_c, 3, 62, 105
19, 105356, Note_off_c, 3, 62, 0
19, 105360, Note_on_c, 3, 59, 110
19, 105596, Note_off_c, 3, 59, 0
19, 105600, Note_on_c, 3, 57, 105
19, 106415, Note_off_c, 3, 57, 0
19, 106560, Note_on_c, 3, 67, 118
19, 106908, Note_off_c, 3, 67, 0
19, 106920, Note_on_c, 3, 69, 116
19, 107219, Note_off_c, 3, 69, 0
19, 107280, Note_on_c, 3, 67, 107
19, 107480, Note_off_c, 3, 67, 0
19, 107520, Note_on_c, 3, 71, 109
19, 108465, Note_off_c, 3, 71, 0
19, 108720, Note_on_c, 3, 69, 118
19, 109146, Note_off_c, 3, 69, 0
19, 109200, Note_on_c, 3, 71, 105
19, 109422, Note_off_c, 3, 71, 0
19, 109440, Note_on_c, 3, 69, 109
19, 109680, Note_on_c, 3, 67, 107
19, 109687, Note_off_c, 3, 69, 0
19, 110424, Note_off_c, 3, 67, 0
19, 111120, Note_on_c, 3, 67, 110
19, 111331, Note_off_c, 3, 67, 0
19, 111360, Note_on_c, 3, 74, 116
19, 112002, Note_off_c, 3, 74, 0
19, 112080, Note_on_c, 3, 72, 112
19, 112307, Note_off_c, 3, 72, 0
19, 112320, Note_on_c, 3, 71, 104
19, 112769, Note_off_c, 3, 71, 0
19, 112800, Note_on_c, 3, 74, 110
19, 113029, Note_off_c, 3, 74, 0
19, 113040, Note_on_c, 3, 74, 114
19, 113276, Note_off_c, 3, 74, 0
19, 113280, Note_on_c, 3, 72, 96
19, 113516, Note_off_c, 3, 72, 0
19, 113520, Note_on_c, 3, 71, 95
19, 113636, Note_off_c, 3, 71, 0
19, 113640, Note_on_c, 3, 69, 102
19, 113756, Note_off_c, 3, 69, 0
19, 113760, Note_on_c, 3, 67, 91
19, 114147, Note_off_c, 3, 67, 0
19, 114240, Note_on_c, 3, 67, 121
19, 114582, Note_off_c, 3, 67, 0
19, 114600, Note_on_c, 3, 69, 121
19, 114895, Note_off_c, 3, 69, 0
19, 114960, Note_on_c, 3, 71, 114
19, 115193, Note_off_c, 3, 71, 0
19, 115200, Note_on_c, 3, 71, 116
19, 115767, Note_off_c, 3, 71, 0
19, 116400, Note_on_c, 3, 67, 116
19, 116596, Note_off_c, 3, 67, 0
19, 116640, Note_on_c, 3, 69, 114
19, 116865, Note_off_c, 3, 69, 0
19, 116880, Note_on_c, 3, 71, 114
19, 117360, Note_on_c, 3, 69, 105
19, 117362, Note_off_c, 3, 71, 0
19, 118018, Note_off_c, 3, 69, 0
19, 118800, Note_on_c, 3, 62, 112
19, 118994, Note_off_c, 3, 62, 0
19, 119040, Note_on_c, 3, 69, 116
19, 119469, Note_off_c, 3, 69, 0
19, 119520, Note_on_c, 3, 69, 116
19, 119760, Note_on_c, 3, 69, 116
19, 119771, Note_off_c, 3, 69, 0
19, 120206, Note_off_c, 3, 69, 0
19, 120240, Note_on_c, 3, 66, 100
19, 120460, Note_off_c, 3, 66, 0
19, 120480, Note_on_c, 3, 69, 116
19, 120720, Note_on_c, 3, 67, 110
19, 120737, Note_off_c, 3, 69, 0
19, 121527, Note_off_c, 3, 67, 0
19, 121920, Note_on_c, 3, 67, 118
19, 122243, Note_off_c, 3, 67, 0
19, 122280, Note_on_c, 3, 69, 118
19, 122583, Note_off_c, 3, 69, 0
19, 122640, Note_on_c, 3, 71, 104
19, 122849, Note_off_c, 3, 71, 0
19, 122880, Note_on_c, 3, 71, 112
19, 123725, Note_off_c, 3, 71, 0
19, 124080, Note_on_c, 3, 67, 114
19, 124293, Note_off_c, 3, 67, 0
19, 124320, Note_on_c, 3, 69, 109
19, 124549, Note_off_c, 3, 69, 0
19, 124560, Note_on_c, 3, 71, 110
19, 125036, Note_off_c, 3, 71, 0
19, 125040, Note_on_c, 3, 69, 116
19, 125516, Note_off_c, 3, 69, 0
19, 125520, Note_on_c, 3, 66, 95
19, 125636, Note_off_c, 3, 66, 0
19, 125640, Note_on_c, 3, 64, 96
19, 125756, Note_off_c, 3, 64, 0
19, 125760, Note_on_c, 3, 62, 92
19, 126325, Note_off_c, 3, 62, 0
19, 126480, Note_on_c, 3, 62, 112
19, 126691, Note_off_c, 3, 62, 0
19, 126720, Note_on_c, 3, 69, 118
19, 127107, Note_off_c, 3, 69, 0
19, 127200, Note_on_c, 3, 69, 116
19, 127440, Note_on_c, 3, 71, 112
19, 127464, Note_off_c, 3, 69, 0
19, 127920, Note_on_c, 3, 72, 109
19, 127929, Note_off_c, 3, 71, 0
19, 128349, Note_off_c, 3, 72, 0
19, 128400, Note_on_c, 3, 71, 104
19, 129140, Note_off_c, 3, 71, 0
19, 129600, Note_on_c, 3, 74, 112
19, 129942, Note_off_c, 3, 74, 0
19, 129960, Note_on_c, 3, 72, 110
19, 130279, Note_off_c, 3, 72, 0
19, 130320, Note_on_c, 3, 71, 112
19, 130565, Note_off_c, 3, 71, 0
19, 131040, Note_on_c, 3, 71, 114
19, 131276, Note_off_c, 3, 71, 0
19, 131280, Note_on_c, 3, 69, 109
19, 132116, Note_off_c, 3, 69, 0
19, 132120, Note_on_c, 3, 67, 102
19, 132236, Note_off_c, 3, 67, 0
19, 132240, Note_on_c, 3, 69, 107
19, 132356, Note_off_c, 3, 69, 0
19, 132360, Note_on_c, 3, 71, 99
19, 132476, Note_off_c, 3, 71, 0
19, 132480, Note_on_c, 3, 69, 105
19, 133408, Note_off_c, 3, 69, 0
19, 134160, Note_on_c, 3, 62, 110
19, 134386, Note_off_c, 3, 62, 0
19, 134400, Note_on_c, 3, 62, 116
19, 134640, Note_on_c, 3, 64, 112
19, 134657, Note_off_c, 3, 62, 0
19, 134872, Note_off_c, 3, 64, 0
19, 134880, Note_on_c, 3, 67, 112
19, 135099, Note_off_c, 3, 67, 0
19, 135120, Note_on_c, 3, 69, 112
19, 135343, Note_off_c, 3, 69, 0
19, 135360, Note_on_c, 3, 71, 112
19, 136080, Note_on_c, 3, 67, 109
19, 136201, Note_off_c, 3, 71, 0
19, 136320, Note_on_c, 3, 69, 110
19, 136324, Note_off_c, 3, 67, 0
19, 136800, Note_on_c, 3, 67, 95
19, 136800, Note_off_c, 3, 69, 0
19, 137580, Note_off_c, 3, 67, 0
19, 138240, Note_on_c, 3, 67, 114
19, 139180, Note_off_c, 3, 67, 0
19, 139200, Note_on_c, 3, 69, 110
19, 139664, Note_off_c, 3, 69, 0
19, 139680, Note_on_c, 3, 71, 102
19, 139910, Note_off_c, 3, 71, 0
19, 139920, Note_on_c, 3, 69, 104
19, 140611, Note_off_c, 3, 69, 0
19, 140640, Note_on_c, 3, 67, 91
19, 141951, Note_off_c, 3, 67, 0
19, 142560, Note_on_c, 3, 67, 114
19, 142786, Note_off_c, 3, 67, 0
19, 142800, Note_on_c, 3, 66, 109
19, 143471, Note_off_c, 3, 66, 0
19, 143520, Note_on_c, 3, 59, 103
19, 143760, Note_on_c, 3, 64, 99
19, 143775, Note_off_c, 3, 59, 0
19, 144432, Note_off_c, 3, 64, 0
19, 144480, Note_on_c, 3, 62, 90
19, 145416, Note_off_c, 3, 62, 0
19, 147360, Note_on_c, 3, 62, 105
19, 147588, Note_off_c, 3, 62, 0
19, 147600, Note_on_c, 3, 64, 91
19, 147810, Note_off_c, 3, 64, 0
19, 147840, Note_on_c, 3, 62, 97
19, 148921, Note_off_c, 3, 62, 0
19, 150240, Note_on_c, 3, 67, 116
19, 151646, Note_off_c, 3, 67, 0
19, 151680, Note_on_c, 3, 66, 99
19, 151916, Note_off_c, 3, 66, 0
19, 151920, Note_on_c, 3, 64, 99
19, 152036, Note_off_c, 3, 64, 0
19, 152040, Note_on_c, 3, 62, 97
19, 152156, Note_off_c, 3, 62, 0
19, 152160, Note_on_c, 3, 64, 105
19, 152396, Note_off_c, 3, 64, 0
19, 152400, Note_on_c, 3, 62, 104
19, 153097, Note_off_c, 3, 62, 0
19, 153120, Note_on_c, 3, 59, 107
19, 153356, Note_off_c, 3, 59, 0
19, 153360, Note_on_c, 3, 57, 109
19, 154070, Note_off_c, 3, 57, 0
19, 154080, Note_on_c, 3, 55, 88
19, 154775, Note_off_c, 3, 55, 0
19, 156720, Note_on_c, 3, 67, 118
19, 157196, Note_off_c, 3, 67, 0
19, 157200, Note_on_c, 3, 69, 118
19, 157436, Note_off_c, 3, 69, 0
19, 157440, Note_on_c, 3, 71, 118
19, 157849, Note_off_c, 3, 71, 0
19, 158160, Note_on_c, 3, 67, 118
19, 158384, Note_off_c, 3, 67, 0
19, 158400, Note_on_c, 3, 67, 121
19, 158614, Note_off_c, 3, 67, 0
19, 158640, Note_on_c, 3, 69, 121
19, 158877, Note_off_c, 3, 69, 0
19, 158880, Note_on_c, 3, 71, 112
19, 159095, Note_off_c, 3, 71, 0
19, 159120, Note_on_c, 3, 72, 109
19, 159330, Note_off_c, 3, 72, 0
19, 159360, Note_on_c, 3, 72, 114
19, 160038, Note_off_c, 3, 72, 0
19, 160080, Note_on_c, 3, 72, 112
19, 160542, Note_off_c, 3, 72, 0
19, 160800, Note_on_c, 3, 70, 99
19, 161036, Note_off_c, 3, 70, 0
19, 161040, Note_on_c, 3, 72, 109
19, 161756, Note_off_c, 3, 72, 0
19, 161760, Note_on_c, 3, 70, 90
19, 161876, Note_off_c, 3, 70, 0
19, 161880, Note_on_c, 3, 69, 99
19, 161996, Note_off_c, 3, 69, 0
19, 162000, Note_on_c, 3, 67, 97
19, 162720, Note_off_c, 3, 67, 0
19, 163200, Note_on_c, 3, 70, 116
19, 164587, Note_off_c, 3, 70, 0
19, 164640, Note_on_c, 3, 69, 116
19, 164867, Note_off_c, 3, 69, 0
19, 164880, Note_on_c, 3, 72, 109
19, 165360, Note_on_c, 3, 70, 102
19, 165378, Note_off_c, 3, 72, 0
19, 166111, Note_off_c, 3, 70, 0
19, 166560, Note_on_c, 3, 70, 116
19, 166769, Note_off_c, 3, 70, 0
19, 166800, Note_on_c, 3, 72, 114
19, 167040, Note_off_c, 3, 72, 0
19, 167040, Note_on_c, 3, 74, 118
19, 167513, Note_off_c, 3, 74, 0
19, 167520, Note_on_c, 3, 72, 116
19, 167918, Note_off_c, 3, 72, 0
19, 168000, Note_on_c, 3, 72, 116
19, 168446, Note_off_c, 3, 72, 0
19, 168480, Note_on_c, 3, 70, 104
19, 168709, Note_off_c, 3, 70, 0
19, 168720, Note_on_c, 3, 74, 116
19, 169182, Note_off_c, 3, 74, 0
19, 169200, Note_on_c, 3, 72, 116
19, 169576, Note_off_c, 3, 72, 0
19, 169680, Note_on_c, 3, 72, 112
19, 170153, Note_off_c, 3, 72, 0
19, 170160, Note_on_c, 3, 70, 101
19, 170382, Note_off_c, 3, 70, 0
19, 170400, Note_on_c, 3, 67, 102
19, 170622, Note_off_c, 3, 67, 0
19, 170640, Note_on_c, 3, 67, 112
19, 170830, Note_off_c, 3, 67, 0
19, 170880, Note_on_c, 3, 69, 112
19, 172518, Note_off_c, 3, 69, 0
19, 172560, Note_on_c, 3, 67, 116
19, 172751, Note_off_c, 3, 67, 0
19, 172800, Note_on_c, 3, 71, 116
19, 173255, Note_off_c, 3, 71, 0
19, 173280, Note_on_c, 3, 69, 114
19, 173480, Note_off_c, 3, 69, 0
19, 173520, Note_on_c, 3, 69, 114
19, 173960, Note_off_c, 3, 69, 0
19, 174000, Note_on_c, 3, 71, 89
19, 174201, Note_off_c, 3, 71, 0
19, 174720, Note_on_c, 3, 67, 116
19, 175029, Note_off_c, 3, 67, 0
19, 175040, Note_on_c, 3, 67, 118
19, 175334, Note_off_c, 3, 67, 0
19, 175360, Note_on_c, 3, 67, 118
19, 175591, Note_off_c, 3, 67, 0
19, 175680, Note_on_c, 3, 74, 118
19, 175989, Note_off_c, 3, 74, 0
19, 176000, Note_on_c, 3, 72, 121
19, 176287, Note_off_c, 3, 72, 0
19, 176320, Note_on_c, 3, 71, 112
19, 176571, Note_off_c, 3, 71, 0
19, 176640, Note_on_c, 3, 71, 116
19, 177067, Note_off_c, 3, 71, 0
19, 179040, Note_on_c, 3, 74, 121
19, 179516, Note_off_c, 3, 74, 0
19, 179520, Note_on_c, 3, 76, 114
19, 180046, Note_off_c, 3, 76, 0
19, 180720, Note_on_c, 3, 76, 118
19, 181187, Note_off_c, 3, 76, 0
19, 181200, Note_on_c, 3, 74, 116
19, 181436, Note_off_c, 3, 74, 0
19, 181440, Note_on_c, 3, 72, 105
19, 181659, Note_off_c, 3, 72, 0
19, 181680, Note_on_c, 3, 71, 107
19, 181913, Note_off_c, 3, 71, 0
19, 181920, Note_on_c, 3, 74, 105
19, 182148, Note_off_c, 3, 74, 0
19, 182160, Note_on_c, 3, 71, 109
19, 182352, Note_off_c, 3, 71, 0
19, 182400, Note_on_c, 3, 69, 107
19, 183400, Note_off_c, 3, 69, 0
19, 184080, Note_on_c, 3, 67, 116
19, 184275, Note_off_c, 3, 67, 0
19, 184320, Note_on_c, 3, 71, 112
19, 184515, Note_off_c, 3, 71, 0
19, 184560, Note_on_c, 3, 69, 116
19, 184745, Note_off_c, 3, 69, 0
19, 184800, Note_on_c, 3, 69, 121
19, 185010, Note_off_c, 3, 69, 0
19, 185040, Note_on_c, 3, 67, 116
19, 185258, Note_off_c, 3, 67, 0
19, 185280, Note_on_c, 3, 71, 118
19, 185608, Note_off_c, 3, 71, 0
19, 185640, Note_on_c, 3, 69, 118
19, 185962, Note_off_c, 3, 69, 0
19, 186000, Note_on_c, 3, 67, 96
19, 186192, Note_off_c, 3, 67, 0
19, 187680, Note_on_c, 3, 67, 124
19, 188116, Note_off_c, 3, 67, 0
19, 188160, Note_on_c, 3, 71, 118
19, 188876, Note_off_c, 3, 71, 0
19, 188880, Note_on_c, 3, 67, 110
19, 189116, Note_off_c, 3, 67, 0
19, 189120, Note_on_c, 3, 69, 105
19, 189356, Note_off_c, 3, 69, 0
19, 189360, Note_on_c, 3, 67, 107
19, 189993, Note_off_c, 3, 67, 0
19, 191760, Note_on_c, 3, 62, 116
19, 191973, Note_off_c, 3, 62, 0
19, 192000, Note_on_c, 3, 62, 112
19, 192240, Note_on_c, 3, 64, 112
19, 192250, Note_off_c, 3, 62, 0
19, 192458, Note_off_c, 3, 64, 0
19, 192480, Note_on_c, 3, 67, 114
19, 192703, Note_off_c, 3, 67, 0
19, 192720, Note_on_c, 3, 69, 112
19, 192960, Note_on_c, 3, 67, 114
19, 192976, Note_off_c, 3, 69, 0
19, 193523, Note_off_c, 3, 67, 0
19, 193680, Note_on_c, 3, 71, 118
19, 193866, Note_off_c, 3, 71, 0
19, 193920, Note_on_c, 3, 71, 118
19, 195357, Note_off_c, 3, 71, 0
19, 195360, Note_on_c, 3, 72, 112
19, 195591, Note_off_c, 3, 72, 0
19, 195600, Note_on_c, 3, 71, 110
19, 196056, Note_off_c, 3, 71, 0
19, 196080, Note_on_c, 3, 69, 96
19, 196631, Note_off_c, 3, 69, 0
19, 197520, Note_on_c, 3, 62, 112
19, 197744, Note_off_c, 3, 62, 0
19, 197760, Note_on_c, 3, 62, 110
19, 198000, Note_on_c, 3, 64, 112
19, 198020, Note_off_c, 3, 62, 0
19, 198207, Note_off_c, 3, 64, 0
19, 198240, Note_on_c, 3, 67, 114
19, 198474, Note_off_c, 3, 67, 0
19, 198480, Note_on_c, 3, 69, 116
19, 198702, Note_off_c, 3, 69, 0
19, 198720, Note_on_c, 3, 71, 116
19, 199200, Note_on_c, 3, 74, 118
19, 199211, Note_off_c, 3, 71, 0
19, 199432, Note_off_c, 3, 74, 0
19, 199440, Note_on_c, 3, 69, 114
19, 199906, Note_off_c, 3, 69, 0
19, 199920, Note_on_c, 3, 67, 99
19, 200578, Note_off_c, 3, 67, 0
19, 201600, Note_on_c, 3, 67, 116
19, 202556, Note_off_c, 3, 67, 0
19, 202560, Note_on_c, 3, 69, 112
19, 203036, Note_off_c, 3, 69, 0
19, 203040, Note_on_c, 3, 67, 101
19, 203525, Note_off_c, 3, 67, 0
19, 204000, Note_on_c, 3, 70, 91
19, 204476, Note_off_c, 3, 70, 0
19, 204480, Note_on_c, 3, 69, 109
19, 204716, Note_off_c, 3, 69, 0
19, 204720, Note_on_c, 3, 67, 90
19, 206155, Note_off_c, 3, 67, 0
19, 209760, Note_on_c, 3, 67, 105
19, 210194, Note_off_c, 3, 67, 0
19, 210240, Note_on_c, 3, 66, 92
19, 210474, Note_off_c, 3, 66, 0
19, 210480, Note_on_c, 3, 64, 91
19, 211626, Note_off_c, 3, 64, 0
19, 211680, Note_on_c, 3, 66, 88
19, 211916, Note_off_c, 3, 66, 0
19, 211920, Note_on_c, 3, 64, 90
19, 212396, Note_off_c, 3, 64, 0
19, 212400, Note_on_c, 3, 62, 86
19, 213573, Note_off_c, 3, 62, 0
19, 215040, Note_on_c, 3, 64, 95
19, 215520, Note_on_c, 3, 62, 90
19, 215538, Note_off_c, 3, 64, 0
19, 216716, Note_off_c, 3, 62, 0
19, 217440, Note_on_c, 3, 67, 103
19, 218880, Note_on_c, 3, 66, 91
19, 218882, Note_off_c, 3, 67, 0
19, 219600, Note_on_c, 3, 64, 83
19, 219640, Note_off_c, 3, 66, 0
19, 219840, Note_on_c, 3, 62, 94
19, 219842, Note_off_c, 3, 64, 0
19, 220320, Note_off_c, 3, 62, 0
19, 220320, Note_on_c, 3, 64, 80
19, 222037, Note_off_c, 3, 64, 0
19, 223440, Note_on_c, 3, 62, 88
19, 223609, Note_off_c, 3, 62, 0
19, 223680, Note_on_c, 3, 62, 101
19, 224114, Note_off_c, 3, 62, 0
19, 224160, Note_on_c, 3, 60, 93
19, 224400, Note_on_c, 3, 62, 90
19, 224421, Note_off_c, 3, 60, 0
19, 225596, Note_off_c, 3, 62, 0
19, 225600, Note_on_c, 3, 67, 75
19, 226556, Note_off_c, 3, 67, 0
19, 226560, Note_on_c, 3, 69, 91
19, 226981, Note_off_c, 3, 69, 0
19, 227040, Note_on_c, 3, 69, 85
19, 227981, Note_off_c, 3, 69, 0
19, 228000, Note_on_c, 3, 67, 71
19, 229863, Note_off_c, 3, 67, 0
19, 236204, Control_c, 3, 7, 127
19, 236204, Control_c, 3, 121, 0
19, 236209, End_track
20, 0, Start_track
20, 585, Control_c, 4, 0, 0
20, 590, Control_c, 4, 32, 0
20, 595, Program_c, 4, 52
20, 600, Control_c, 4, 7, 127
20, 605, Control_c, 4, 10, 74
20, 610, Control_c, 4, 11, 127
20, 615, Control_c, 4, 91, 67
20, 620, Control_c, 4, 93, 0
20, 625, Control_c, 4, 74, 64
20, 630, Control_c, 4, 71, 64
20, 635, Control_c, 4, 73, 64
20, 640, Control_c, 4, 72, 64
20, 645, Control_c, 4, 94, 0
20, 116160, Note_on_c, 4, 60, 83
20, 116160, Note_on_c, 4, 64, 82
20, 116160, Note_on_c, 4, 67, 85
20, 117116, Note_off_c, 4, 60, 0
20, 117116, Note_off_c, 4, 64, 0
20, 117116, Note_off_c, 4, 67, 0
20, 117120, Note_on_c, 4, 57, 83
20, 117120, Note_on_c, 4, 62, 89
20, 117120, Note_on_c, 4, 66, 74
20, 120956, Note_off_c, 4, 57, 0
20, 120956, Note_off_c, 4, 62, 0
20, 120956, Note_off_c, 4, 66, 0
20, 120960, Note_on_c, 4, 55, 82
20, 120960, Note_on_c, 4, 59, 81
20, 120960, Note_on_c, 4, 64, 81
20, 121937, Control_c, 4, 7, 123
20, 121981, Control_c, 4, 7, 120
20, 122031, Control_c, 4, 7, 117
20, 122069, Control_c, 4, 7, 114
20, 122120, Control_c, 4, 7, 108
20, 122161, Control_c, 4, 7, 103
20, 122199, Control_c, 4, 7, 97
20, 122219, Note_off_c, 4, 64, 0
20, 122241, Control_c, 4, 7, 90
20, 122246, Note_off_c, 4, 59, 0
20, 122276, Control_c, 4, 7, 85
20, 122289, Note_off_c, 4, 55, 0
20, 122315, Control_c, 4, 7, 79
20, 122351, Control_c, 4, 7, 72
20, 122383, Control_c, 4, 7, 64
20, 122413, Control_c, 4, 7, 56
20, 122444, Control_c, 4, 7, 48
20, 122479, Control_c, 4, 7, 43
20, 122574, Control_c, 4, 7, 66
20, 122605, Control_c, 4, 7, 97
20, 122639, Control_c, 4, 7, 127
20, 123840, Note_on_c, 4, 60, 83
20, 123840, Note_on_c, 4, 64, 82
20, 123840, Note_on_c, 4, 67, 85
20, 124796, Note_off_c, 4, 60, 0
20, 124796, Note_off_c, 4, 64, 0
20, 124796, Note_off_c, 4, 67, 0
20, 124800, Note_on_c, 4, 57, 83
20, 124800, Note_on_c, 4, 62, 85
20, 124800, Note_on_c, 4, 66, 85
20, 128636, Note_off_c, 4, 57, 0
20, 128636, Note_off_c, 4, 62, 0
20, 128636, Note_off_c, 4, 66, 0
20, 128640, Note_on_c, 4, 65, 84
20, 128640, Note_on_c, 4, 69, 85
20, 128640, Note_on_c, 4, 72, 86
20, 129299, Note_off_c, 4, 72, 0
20, 129308, Note_off_c, 4, 65, 0
20, 129313, Note_off_c, 4, 69, 0
20, 129600, Note_on_c, 4, 59, 121
20, 129600, Note_on_c, 4, 62, 116
20, 129600, Note_on_c, 4, 67, 124
20, 129956, Note_off_c, 4, 59, 0
20, 129956, Note_off_c, 4, 62, 0
20, 129956, Note_off_c, 4, 67, 0
20, 129960, Note_on_c, 4, 60, 118
20, 129960, Note_on_c, 4, 64, 112
20, 129960, Note_on_c, 4, 69, 114
20, 130316, Note_off_c, 4, 60, 0
20, 130316, Note_off_c, 4, 64, 0
20, 130316, Note_off_c, 4, 69, 0
20, 130320, Note_on_c, 4, 62, 107
20, 130320, Note_on_c, 4, 67, 112
20, 130320, Note_on_c, 4, 71, 109
20, 130522, Note_off_c, 4, 67, 0
20, 130524, Note_off_c, 4, 62, 0
20, 130529, Note_off_c, 4, 71, 0
20, 131520, Note_on_c, 4, 60, 83
20, 131520, Note_on_c, 4, 64, 82
20, 131520, Note_on_c, 4, 67, 85
20, 132476, Note_off_c, 4, 60, 0
20, 132476, Note_off_c, 4, 64, 0
20, 132476, Note_off_c, 4, 67, 0
20, 132480, Note_on_c, 4, 57, 83
20, 132480, Note_on_c, 4, 62, 89
20, 132480, Note_on_c, 4, 66, 74
20, 136316, Note_off_c, 4, 57, 0
20, 136316, Note_off_c, 4, 62, 0
20, 136316, Note_off_c, 4, 66, 0
20, 136320, Note_on_c, 4, 55, 82
20, 136320, Note_on_c, 4, 59, 81
20, 136320, Note_on_c, 4, 64, 81
20, 137297, Control_c, 4, 7, 123
20, 137341, Control_c, 4, 7, 120
20, 137391, Control_c, 4, 7, 117
20, 137429, Control_c, 4, 7, 114
20, 137480, Control_c, 4, 7, 108
20, 137521, Control_c, 4, 7, 103
20, 137559, Control_c, 4, 7, 97
20, 137579, Note_off_c, 4, 64, 0
20, 137601, Control_c, 4, 7, 90
20, 137606, Note_off_c, 4, 59, 0
20, 137636, Control_c, 4, 7, 85
20, 137649, Note_off_c, 4, 55, 0
20, 137675, Control_c, 4, 7, 79
20, 137711, Control_c, 4, 7, 72
20, 137743, Control_c, 4, 7, 64
20, 137773, Control_c, 4, 7, 56
20, 137804, Control_c, 4, 7, 48
20, 137839, Control_c, 4, 7, 43
20, 137934, Control_c, 4, 7, 66
20, 137965, Control_c, 4, 7, 97
20, 137999, Control_c, 4, 7, 127
20, 138240, Note_on_c, 4, 55, 95
20, 138240, Note_on_c, 4, 60, 93
20, 138240, Note_on_c, 4, 64, 94
20, 139196, Note_off_c, 4, 55, 0
20, 139196, Note_off_c, 4, 60, 0
20, 139196, Note_off_c, 4, 64, 0
20, 139200, Note_on_c, 4, 59, 95
20, 139200, Note_on_c, 4, 62, 97
20, 139200, Note_on_c, 4, 67, 94
20, 140156, Note_off_c, 4, 59, 0
20, 140156, Note_off_c, 4, 62, 0
20, 140156, Note_off_c, 4, 67, 0
20, 140160, Note_on_c, 4, 55, 93
20, 140160, Note_on_c, 4, 60, 98
20, 140160, Note_on_c, 4, 63, 79
20, 141251, Control_c, 4, 7, 125
20, 141332, Control_c, 4, 7, 123
20, 141393, Control_c, 4, 7, 122
20, 141433, Control_c, 4, 7, 120
20, 141471, Control_c, 4, 7, 119
20, 141512, Control_c, 4, 7, 117
20, 141554, Control_c, 4, 7, 116
20, 141589, Control_c, 4, 7, 114
20, 141624, Control_c, 4, 7, 113
20, 141657, Control_c, 4, 7, 111
20, 141715, Control_c, 4, 7, 108
20, 141767, Control_c, 4, 7, 105
20, 141798, Control_c, 4, 7, 104
20, 141850, Control_c, 4, 7, 101
20, 141884, Control_c, 4, 7, 99
20, 141920, Control_c, 4, 7, 98
20, 141975, Control_c, 4, 7, 95
20, 142009, Control_c, 4, 7, 93
20, 142065, Control_c, 4, 7, 90
20, 142114, Control_c, 4, 7, 87
20, 142165, Control_c, 4, 7, 83
20, 142208, Control_c, 4, 7, 80
20, 142249, Control_c, 4, 7, 77
20, 142279, Control_c, 4, 7, 74
20, 142312, Control_c, 4, 7, 71
20, 142352, Control_c, 4, 7, 67
20, 142393, Control_c, 4, 7, 62
20, 142426, Control_c, 4, 7, 58
20, 142461, Control_c, 4, 7, 54
20, 142494, Control_c, 4, 7, 50
20, 142542, Control_c, 4, 7, 45
20, 142575, Control_c, 4, 7, 42
20, 142613, Control_c, 4, 7, 37
20, 142651, Control_c, 4, 7, 32
20, 142695, Control_c, 4, 7, 27
20, 142738, Control_c, 4, 7, 21
20, 142769, Control_c, 4, 7, 18
20, 142818, Control_c, 4, 7, 15
20, 142861, Control_c, 4, 7, 12
20, 142912, Control_c, 4, 7, 11
20, 142968, Control_c, 4, 7, 9
20, 143455, Note_off_c, 4, 55, 0
20, 143458, Note_off_c, 4, 63, 0
20, 143503, Note_off_c, 4, 60, 0
20, 143767, Control_c, 4, 7, 13
20, 143798, Control_c, 4, 7, 38
20, 143828, Control_c, 4, 7, 85
20, 143859, Control_c, 4, 7, 127
20, 159360, Note_on_c, 4, 60, 103
20, 159360, Note_on_c, 4, 65, 102
20, 159360, Note_on_c, 4, 69, 103
20, 160202, Note_off_c, 4, 69, 0
20, 160217, Note_off_c, 4, 65, 0
20, 160230, Note_off_c, 4, 60, 0
20, 160320, Note_on_c, 4, 60, 100
20, 160320, Note_on_c, 4, 65, 94
20, 160320, Note_on_c, 4, 69, 97
20, 160675, Note_off_c, 4, 60, 0
20, 160675, Note_off_c, 4, 69, 0
20, 160676, Note_off_c, 4, 65, 0
20, 160800, Note_on_c, 4, 60, 97
20, 160800, Note_on_c, 4, 65, 94
20, 160800, Note_on_c, 4, 69, 98
20, 160921, Note_off_c, 4, 65, 0
20, 160921, Note_off_c, 4, 69, 0
20, 160946, Note_off_c, 4, 60, 0
20, 161040, Note_on_c, 4, 60, 98
20, 161040, Note_on_c, 4, 65, 94
20, 161040, Note_on_c, 4, 69, 99
20, 161437, Note_off_c, 4, 60, 0
20, 161439, Note_off_c, 4, 69, 0
20, 161448, Note_off_c, 4, 65, 0
20, 161520, Note_on_c, 4, 60, 94
20, 161520, Note_on_c, 4, 64, 91
20, 161520, Note_on_c, 4, 67, 98
20, 161668, Note_off_c, 4, 64, 0
20, 161669, Note_off_c, 4, 67, 0
20, 161683, Note_off_c, 4, 60, 0
20, 161760, Note_on_c, 4, 60, 97
20, 161760, Note_on_c, 4, 64, 91
20, 161760, Note_on_c, 4, 67, 99
20, 162580, Note_off_c, 4, 67, 0
20, 162582, Note_off_c, 4, 64, 0
20, 162586, Note_off_c, 4, 60, 0
20, 163200, Note_on_c, 4, 58, 105
20, 163200, Note_on_c, 4, 63, 100
20, 163200, Note_on_c, 4, 67, 105
20, 164756, Note_off_c, 4, 67, 0
20, 164815, Note_off_c, 4, 63, 0
20, 164821, Note_off_c, 4, 58, 0
20, 164880, Note_on_c, 4, 58, 97
20, 164880, Note_on_c, 4, 63, 92
20, 164880, Note_on_c, 4, 67, 102
20, 165044, Note_off_c, 4, 63, 0
20, 165084, Note_off_c, 4, 58, 0
20, 165093, Note_off_c, 4, 67, 0
20, 165120, Note_on_c, 4, 63, 98
20, 165120, Note_on_c, 4, 67, 99
20, 165120, Note_on_c, 4, 70, 98
20, 165465, Note_off_c, 4, 70, 0
20, 165523, Note_off_c, 4, 63, 0
20, 165556, Note_off_c, 4, 67, 0
20, 165600, Note_on_c, 4, 62, 98
20, 165600, Note_on_c, 4, 65, 98
20, 165600, Note_on_c, 4, 70, 88
20, 166413, Note_off_c, 4, 70, 0
20, 166417, Note_off_c, 4, 62, 0
20, 166419, Note_off_c, 4, 65, 0
20, 167040, Note_on_c, 4, 65, 92
20, 167040, Note_on_c, 4, 69, 102
20, 167040, Note_on_c, 4, 72, 100
20, 167389, Note_off_c, 4, 72, 0
20, 167398, Note_off_c, 4, 69, 0
20, 167416, Note_off_c, 4, 65, 0
20, 167520, Note_on_c, 4, 65, 92
20, 167520, Note_on_c, 4, 69, 94
20, 167520, Note_on_c, 4, 72, 93
20, 167626, Note_off_c, 4, 69, 0
20, 167628, Note_off_c, 4, 72, 0
20, 167665, Note_off_c, 4, 65, 0
20, 167760, Note_on_c, 4, 65, 94
20, 167760, Note_on_c, 4, 69, 98
20, 167760, Note_on_c, 4, 72, 95
20, 168113, Note_off_c, 4, 72, 0
20, 168115, Note_off_c, 4, 69, 0
20, 168129, Note_off_c, 4, 65, 0
20, 168240, Note_on_c, 4, 65, 93
20, 168240, Note_on_c, 4, 69, 95
20, 168240, Note_on_c, 4, 72, 94
20, 168545, Note_off_c, 4, 72, 0
20, 168572, Note_off_c, 4, 69, 0
20, 168579, Note_off_c, 4, 65, 0
20, 168720, Note_on_c, 4, 65, 95
20, 168720, Note_on_c, 4, 69, 97
20, 168720, Note_on_c, 4, 72, 94
20, 169044, Note_off_c, 4, 72, 0
20, 169085, Note_off_c, 4, 69, 0
20, 169089, Note_off_c, 4, 65, 0
20, 169200, Note_on_c, 4, 64, 92
20, 169200, Note_on_c, 4, 67, 95
20, 169200, Note_on_c, 4, 72, 94
20, 169306, Note_off_c, 4, 67, 0
20, 169309, Note_off_c, 4, 64, 0
20, 169310, Note_off_c, 4, 72, 0
20, 169440, Note_on_c, 4, 64, 89
20, 169440, Note_on_c, 4, 67, 93
20, 169440, Note_on_c, 4, 72, 93
20, 170213, Note_off_c, 4, 64, 0
20, 170227, Note_off_c, 4, 72, 0
20, 170232, Note_off_c, 4, 67, 0
20, 170640, Note_on_c, 4, 67, 95
20, 170640, Note_on_c, 4, 69, 94
20, 170640, Note_on_c, 4, 74, 94
20, 170763, Note_off_c, 4, 69, 0
20, 170768, Note_off_c, 4, 67, 0
20, 170779, Note_off_c, 4, 74, 0
20, 170880, Note_on_c, 4, 67, 97
20, 170880, Note_on_c, 4, 69, 97
20, 170880, Note_on_c, 4, 74, 93
20, 172392, Control_c, 4, 7, 123
20, 172433, Control_c, 4, 7, 120
20, 172479, Control_c, 4, 7, 115
20, 172520, Control_c, 4, 7, 108
20, 172558, Control_c, 4, 7, 101
20, 172590, Control_c, 4, 7, 95
20, 172602, Note_off_c, 4, 74, 0
20, 172604, Note_off_c, 4, 69, 0
20, 172604, Note_off_c, 4, 67, 0
20, 172627, Control_c, 4, 7, 86
20, 172658, Control_c, 4, 7, 78
20, 172689, Control_c, 4, 7, 68
20, 172719, Control_c, 4, 7, 61
20, 172753, Control_c, 4, 7, 58
20, 172853, Control_c, 4, 7, 64
20, 172884, Control_c, 4, 7, 95
20, 172915, Control_c, 4, 7, 127
20, 174720, Note_on_c, 4, 64, 114
20, 174720, Note_on_c, 4, 67, 109
20, 174720, Note_on_c, 4, 71, 112
20, 174720, Note_on_c, 4, 74, 114
20, 174953, Note_off_c, 4, 67, 0
20, 174965, Note_off_c, 4, 71, 0
20, 174980, Note_off_c, 4, 74, 0
20, 174988, Note_off_c, 4, 64, 0
20, 175040, Note_on_c, 4, 64, 107
20, 175040, Note_on_c, 4, 67, 110
20, 175040, Note_on_c, 4, 71, 112
20, 175040, Note_on_c, 4, 74, 114
20, 175217, Note_off_c, 4, 67, 0
20, 175241, Note_off_c, 4, 71, 0
20, 175245, Note_off_c, 4, 74, 0
20, 175268, Note_off_c, 4, 64, 0
20, 175360, Note_on_c, 4, 64, 104
20, 175360, Note_on_c, 4, 67, 107
20, 175360, Note_on_c, 4, 71, 109
20, 175360, Note_on_c, 4, 74, 112
20, 175513, Note_off_c, 4, 67, 0
20, 175522, Note_off_c, 4, 71, 0
20, 175536, Note_off_c, 4, 74, 0
20, 175554, Note_off_c, 4, 64, 0
20, 175680, Note_on_c, 4, 64, 105
20, 175680, Note_on_c, 4, 67, 109
20, 175680, Note_on_c, 4, 71, 107
20, 175680, Note_on_c, 4, 74, 110
20, 175836, Note_off_c, 4, 67, 0
20, 175856, Note_off_c, 4, 71, 0
20, 175867, Note_off_c, 4, 74, 0
20, 175891, Note_off_c, 4, 64, 0
20, 176000, Note_on_c, 4, 64, 104
20, 176000, Note_on_c, 4, 67, 109
20, 176000, Note_on_c, 4, 71, 109
20, 176000, Note_on_c, 4, 74, 112
20, 176164, Note_off_c, 4, 67, 0
20, 176166, Note_off_c, 4, 71, 0
20, 176186, Note_off_c, 4, 74, 0
20, 176200, Note_off_c, 4, 64, 0
20, 176320, Note_on_c, 4, 64, 104
20, 176320, Note_on_c, 4, 67, 107
20, 176320, Note_on_c, 4, 71, 104
20, 176320, Note_on_c, 4, 74, 109
20, 176464, Note_off_c, 4, 67, 0
20, 176477, Note_off_c, 4, 71, 0
20, 176496, Note_off_c, 4, 74, 0
20, 176503, Note_off_c, 4, 64, 0
20, 176640, Note_on_c, 4, 64, 103
20, 176640, Note_on_c, 4, 67, 105
20, 176640, Note_on_c, 4, 71, 105
20, 176640, Note_on_c, 4, 74, 110
20, 177043, Note_off_c, 4, 67, 0
20, 177044, Note_off_c, 4, 71, 0
20, 177056, Note_off_c, 4, 74, 0
20, 177061, Note_off_c, 4, 64, 0
20, 177600, Note_on_c, 4, 64, 112
20, 177600, Note_on_c, 4, 67, 121
20, 177923, Note_off_c, 4, 64, 0
20, 177944, Note_off_c, 4, 67, 0
20, 177960, Note_on_c, 4, 66, 107
20, 177960, Note_on_c, 4, 69, 118
20, 178218, Note_off_c, 4, 66, 0
20, 178245, Note_off_c, 4, 69, 0
20, 178320, Note_on_c, 4, 67, 116
20, 178320, Note_on_c, 4, 71, 110
20, 178502, Note_off_c, 4, 67, 0
20, 178533, Note_off_c, 4, 71, 0
20, 178560, Note_on_c, 4, 67, 112
20, 178560, Note_on_c, 4, 71, 109
20, 179492, Note_off_c, 4, 67, 0
20, 179515, Note_off_c, 4, 71, 0
20, 179760, Note_on_c, 4, 64, 110
20, 179760, Note_on_c, 4, 67, 116
20, 180165, Note_off_c, 4, 67, 0
20, 180205, Note_off_c, 4, 64, 0
20, 180240, Note_on_c, 4, 67, 110
20, 180240, Note_on_c, 4, 71, 110
20, 180400, Note_off_c, 4, 71, 0
20, 180402, Note_off_c, 4, 67, 0
20, 180480, Note_on_c, 4, 67, 112
20, 180480, Note_on_c, 4, 71, 104
20, 180661, Note_off_c, 4, 67, 0
20, 180686, Note_off_c, 4, 71, 0
20, 180720, Note_on_c, 4, 66, 100
20, 180720, Note_on_c, 4, 69, 112
20, 180873, Note_off_c, 4, 66, 0
20, 180904, Note_off_c, 4, 69, 0
20, 180960, Note_on_c, 4, 66, 100
20, 180960, Note_on_c, 4, 69, 110
20, 182255, Note_off_c, 4, 69, 0
20, 182268, Note_off_c, 4, 66, 0
20, 182400, Note_on_c, 4, 66, 105
20, 182400, Note_on_c, 4, 69, 114
20, 182817, Note_off_c, 4, 69, 0
20, 182828, Note_off_c, 4, 66, 0
20, 182880, Note_on_c, 4, 64, 92
20, 182880, Note_on_c, 4, 67, 107
20, 183068, Note_off_c, 4, 67, 0
20, 183069, Note_off_c, 4, 64, 0
20, 183120, Note_on_c, 4, 66, 94
20, 183120, Note_on_c, 4, 69, 110
20, 183590, Note_off_c, 4, 69, 0
20, 183594, Note_off_c, 4, 66, 0
20, 183600, Note_on_c, 4, 62, 109
20, 183600, Note_on_c, 4, 66, 101
20, 184051, Note_off_c, 4, 62, 0
20, 184068, Note_off_c, 4, 66, 0
20, 184080, Note_on_c, 4, 64, 95
20, 184080, Note_on_c, 4, 67, 114
20, 184801, Note_off_c, 4, 64, 0
20, 184811, Note_off_c, 4, 67, 0
20, 185040, Note_on_c, 4, 64, 109
20, 185040, Note_on_c, 4, 67, 118
20, 185187, Note_off_c, 4, 64, 0
20, 185214, Note_off_c, 4, 67, 0
20, 185280, Note_on_c, 4, 64, 107
20, 185280, Note_on_c, 4, 67, 114
20, 185599, Note_off_c, 4, 64, 0
20, 185618, Note_off_c, 4, 67, 0
20, 185640, Note_on_c, 4, 66, 109
20, 185640, Note_on_c, 4, 69, 110
20, 185906, Note_off_c, 4, 69, 0
20, 185920, Note_off_c, 4, 66, 0
20, 186000, Note_on_c, 4, 67, 116
20, 186000, Note_on_c, 4, 71, 112
20, 186203, Note_off_c, 4, 67, 0
20, 186221, Note_off_c, 4, 71, 0
20, 186240, Note_on_c, 4, 67, 112
20, 186240, Note_on_c, 4, 71, 109
20, 187172, Note_off_c, 4, 67, 0
20, 187195, Note_off_c, 4, 71, 0
20, 187440, Note_on_c, 4, 64, 110
20, 187440, Note_on_c, 4, 67, 116
20, 187845, Note_off_c, 4, 67, 0
20, 187885, Note_off_c, 4, 64, 0
20, 187920, Note_on_c, 4, 67, 110
20, 187920, Note_on_c, 4, 71, 110
20, 188080, Note_off_c, 4, 71, 0
20, 188082, Note_off_c, 4, 67, 0
20, 188160, Note_on_c, 4, 67, 112
20, 188160, Note_on_c, 4, 71, 104
20, 188341, Note_off_c, 4, 67, 0
20, 188366, Note_off_c, 4, 71, 0
20, 188400, Note_on_c, 4, 66, 100
20, 188400, Note_on_c, 4, 69, 112
20, 188553, Note_off_c, 4, 66, 0
20, 188584, Note_off_c, 4, 69, 0
20, 188640, Note_on_c, 4, 66, 100
20, 188640, Note_on_c, 4, 69, 110
20, 189935, Note_off_c, 4, 69, 0
20, 189948, Note_off_c, 4, 66, 0
20, 190080, Note_on_c, 4, 66, 110
20, 190080, Note_on_c, 4, 69, 116
20, 190449, Note_off_c, 4, 66, 0
20, 190482, Note_off_c, 4, 69, 0
20, 190560, Note_on_c, 4, 66, 92
20, 190560, Note_on_c, 4, 69, 110
20, 190779, Note_off_c, 4, 66, 0
20, 190789, Note_off_c, 4, 69, 0
20, 190800, Note_on_c, 4, 67, 110
20, 190800, Note_on_c, 4, 71, 107
20, 191228, Note_off_c, 4, 67, 0
20, 191266, Note_off_c, 4, 71, 0
20, 191280, Note_on_c, 4, 69, 107
20, 191280, Note_on_c, 4, 72, 104
20, 191728, Note_off_c, 4, 72, 0
20, 191746, Note_off_c, 4, 69, 0
20, 191760, Note_on_c, 4, 67, 105
20, 191760, Note_on_c, 4, 71, 103
20, 192708, Note_off_c, 4, 71, 0
20, 192710, Note_off_c, 4, 67, 0
20, 192960, Note_on_c, 4, 64, 109
20, 192960, Note_on_c, 4, 67, 114
20, 193305, Note_off_c, 4, 64, 0
20, 193313, Note_off_c, 4, 67, 0
20, 193320, Note_on_c, 4, 66, 105
20, 193320, Note_on_c, 4, 69, 107
20, 193577, Note_off_c, 4, 66, 0
20, 193616, Note_off_c, 4, 69, 0
20, 193680, Note_on_c, 4, 67, 112
20, 193680, Note_on_c, 4, 71, 107
20, 193896, Note_off_c, 4, 67, 0
20, 193899, Note_off_c, 4, 71, 0
20, 193920, Note_on_c, 4, 67, 109
20, 193920, Note_on_c, 4, 71, 109
20, 195819, Note_off_c, 4, 71, 0
20, 195840, Note_on_c, 4, 66, 94
20, 195840, Note_on_c, 4, 69, 114
20, 195854, Note_off_c, 4, 67, 0
20, 197369, Note_off_c, 4, 66, 0
20, 197382, Note_off_c, 4, 69, 0
20, 197760, Note_on_c, 4, 66, 95
20, 197760, Note_on_c, 4, 69, 109
20, 199680, Note_on_c, 4, 64, 87
20, 199680, Note_on_c, 4, 67, 105
20, 199681, Note_off_c, 4, 66, 0
20, 199681, Note_off_c, 4, 69, 0
20, 200721, Control_c, 4, 7, 126
20, 200751, Control_c, 4, 7, 124
20, 200787, Control_c, 4, 7, 123
20, 200817, Control_c, 4, 7, 121
20, 200873, Control_c, 4, 7, 118
20, 200922, Control_c, 4, 7, 114
20, 200965, Control_c, 4, 7, 110
20, 200996, Control_c, 4, 7, 106
20, 201031, Control_c, 4, 7, 101
20, 201064, Control_c, 4, 7, 95
20, 201065, Note_off_c, 4, 64, 0
20, 201087, Note_off_c, 4, 67, 0
20, 201100, Control_c, 4, 7, 86
20, 201139, Control_c, 4, 7, 75
20, 201169, Control_c, 4, 7, 64
20, 201200, Control_c, 4, 7, 52
20, 201231, Control_c, 4, 7, 42
20, 201262, Control_c, 4, 7, 38
20, 201312, Control_c, 4, 7, 41
20, 201344, Control_c, 4, 7, 60
20, 201381, Control_c, 4, 7, 98
20, 201412, Control_c, 4, 7, 127
20, 201600, Note_on_c, 4, 60, 104
20, 201600, Note_on_c, 4, 64, 94
20, 201600, Note_on_c, 4, 67, 107
20, 202556, Note_off_c, 4, 60, 0
20, 202556, Note_off_c, 4, 64, 0
20, 202556, Note_off_c, 4, 67, 0
20, 202560, Note_on_c, 4, 59, 92
20, 202560, Note_on_c, 4, 62, 100
20, 202560, Note_on_c, 4, 69, 98
20, 203516, Note_off_c, 4, 59, 0
20, 203516, Note_off_c, 4, 62, 0
20, 203516, Note_off_c, 4, 69, 0
20, 203520, Note_on_c, 4, 60, 92
20, 203520, Note_on_c, 4, 63, 76
20, 203520, Note_on_c, 4, 67, 95
20, 203916, Control_c, 4, 7, 126
20, 203959, Control_c, 4, 7, 124
20, 203997, Control_c, 4, 7, 123
20, 204033, Control_c, 4, 7, 121
20, 204067, Control_c, 4, 7, 120
20, 204110, Control_c, 4, 7, 118
20, 204143, Control_c, 4, 7, 117
20, 204174, Control_c, 4, 7, 115
20, 204204, Control_c, 4, 7, 114
20, 204252, Control_c, 4, 7, 111
20, 204293, Control_c, 4, 7, 108
20, 204342, Control_c, 4, 7, 105
20, 204391, Control_c, 4, 7, 102
20, 204442, Control_c, 4, 7, 99
20, 204483, Control_c, 4, 7, 96
20, 204532, Control_c, 4, 7, 93
20, 204569, Control_c, 4, 7, 90
20, 204617, Control_c, 4, 7, 87
20, 204665, Control_c, 4, 7, 84
20, 204699, Control_c, 4, 7, 81
20, 204740, Control_c, 4, 7, 77
20, 204773, Control_c, 4, 7, 74
20, 204807, Control_c, 4, 7, 71
20, 204841, Control_c, 4, 7, 68
20, 204875, Control_c, 4, 7, 64
20, 204908, Control_c, 4, 7, 61
20, 204941, Control_c, 4, 7, 58
20, 204975, Control_c, 4, 7, 55
20, 205044, Control_c, 4, 7, 49
20, 205084, Control_c, 4, 7, 45
20, 205133, Control_c, 4, 7, 41
20, 205155, Note_off_c, 4, 60, 0
20, 205167, Control_c, 4, 7, 37
20, 205204, Control_c, 4, 7, 33
20, 205231, Note_off_c, 4, 67, 0
20, 205234, Control_c, 4, 7, 30
20, 205252, Note_off_c, 4, 63, 0
20, 205274, Control_c, 4, 7, 27
20, 205306, Control_c, 4, 7, 24
20, 205339, Control_c, 4, 7, 21
20, 205392, Control_c, 4, 7, 18
20, 205424, Control_c, 4, 7, 17
20, 205462, Control_c, 4, 7, 15
20, 206270, Control_c, 4, 7, 17
20, 206309, Control_c, 4, 7, 20
20, 206340, Control_c, 4, 7, 25
20, 206371, Control_c, 4, 7, 37
20, 206402, Control_c, 4, 7, 59
20, 206432, Control_c, 4, 7, 82
20, 206463, Control_c, 4, 7, 104
20, 206501, Control_c, 4, 7, 127
20, 236204, Control_c, 4, 7, 127
20, 236204, Control_c, 4, 121, 0
20, 236209, End_track
21, 0, Start_track
21, 655, Control_c, 5, 0, 0
21, 660, Control_c, 5, 32, 0
21, 665, Program_c, 5, 81
21, 670, Control_c, 5, 7, 127
21, 675, Control_c, 5, 10, 84
21, 680, Control_c, 5, 11, 127
21, 685, Control_c, 5, 91, 67
21, 690, Control_c, 5, 93, 20
21, 695, Control_c, 5, 74, 64
21, 700, Control_c, 5, 71, 64
21, 705, Control_c, 5, 73, 64
21, 710, Control_c, 5, 72, 64
21, 715, Control_c, 5, 94, 0
21, 1920, Note_on_c, 5, 50, 88
21, 3356, Note_off_c, 5, 50, 0
21, 3360, Note_on_c, 5, 57, 89
21, 3596, Note_off_c, 5, 57, 0
21, 3600, Note_on_c, 5, 55, 86
21, 5716, Note_off_c, 5, 55, 0
21, 5760, Note_on_c, 5, 50, 88
21, 8631, Control_c, 5, 7, 125
21, 8684, Control_c, 5, 7, 124
21, 8744, Control_c, 5, 7, 122
21, 8790, Control_c, 5, 7, 121
21, 8843, Control_c, 5, 7, 119
21, 8885, Control_c, 5, 7, 118
21, 8928, Control_c, 5, 7, 116
21, 8961, Control_c, 5, 7, 115
21, 9021, Control_c, 5, 7, 112
21, 9054, Control_c, 5, 7, 110
21, 9093, Control_c, 5, 7, 107
21, 9141, Control_c, 5, 7, 104
21, 9189, Control_c, 5, 7, 101
21, 9240, Control_c, 5, 7, 98
21, 9284, Control_c, 5, 7, 95
21, 9333, Control_c, 5, 7, 92
21, 9381, Control_c, 5, 7, 87
21, 9388, Note_off_c, 5, 50, 0
21, 9418, Control_c, 5, 7, 84
21, 9513, Control_c, 5, 7, 102
21, 9544, Control_c, 5, 7, 127
21, 9600, Note_on_c, 5, 50, 88
21, 11036, Note_off_c, 5, 50, 0
21, 11040, Note_on_c, 5, 57, 90
21, 11276, Note_off_c, 5, 57, 0
21, 11280, Note_on_c, 5, 55, 87
21, 13396, Note_off_c, 5, 55, 0
21, 13440, Note_on_c, 5, 62, 90
21, 14156, Note_off_c, 5, 62, 0
21, 14160, Note_on_c, 5, 60, 91
21, 14636, Note_off_c, 5, 60, 0
21, 14640, Note_on_c, 5, 58, 90
21, 15116, Note_off_c, 5, 58, 0
21, 15120, Note_on_c, 5, 60, 89
21, 15236, Note_off_c, 5, 60, 0
21, 15240, Note_on_c, 5, 58, 85
21, 15356, Note_off_c, 5, 58, 0
21, 15360, Note_on_c, 5, 57, 82
21, 16343, Control_c, 5, 7, 125
21, 16453, Control_c, 5, 7, 124
21, 16514, Control_c, 5, 7, 122
21, 16582, Control_c, 5, 7, 121
21, 16648, Control_c, 5, 7, 119
21, 16698, Control_c, 5, 7, 118
21, 16754, Control_c, 5, 7, 116
21, 16789, Control_c, 5, 7, 115
21, 16827, Control_c, 5, 7, 113
21, 16881, Control_c, 5, 7, 110
21, 16924, Control_c, 5, 7, 107
21, 16958, Control_c, 5, 7, 103
21, 17003, Control_c, 5, 7, 98
21, 17048, Control_c, 5, 7, 93
21, 17085, Control_c, 5, 7, 89
21, 17122, Control_c, 5, 7, 83
21, 17155, Control_c, 5, 7, 78
21, 17194, Control_c, 5, 7, 73
21, 17227, Control_c, 5, 7, 67
21, 17258, Control_c, 5, 7, 61
21, 17279, Note_off_c, 5, 57, 0
21, 17292, Control_c, 5, 7, 54
21, 17328, Control_c, 5, 7, 48
21, 17526, Control_c, 5, 7, 66
21, 17557, Control_c, 5, 7, 99
21, 17588, Control_c, 5, 7, 127
21, 76800, Note_on_c, 5, 50, 88
21, 78236, Note_off_c, 5, 50, 0
21, 78240, Note_on_c, 5, 57, 90
21, 78476, Note_off_c, 5, 57, 0
21, 78480, Note_on_c, 5, 55, 87
21, 80596, Note_off_c, 5, 55, 0
21, 80640, Note_on_c, 5, 62, 90
21, 81356, Note_off_c, 5, 62, 0
21, 81360, Note_on_c, 5, 60, 91
21, 81836, Note_off_c, 5, 60, 0
21, 81840, Note_on_c, 5, 58, 90
21, 82316, Note_off_c, 5, 58, 0
21, 82320, Note_on_c, 5, 60, 89
21, 82436, Note_off_c, 5, 60, 0
21, 82440, Note_on_c, 5, 58, 85
21, 82556, Note_off_c, 5, 58, 0
21, 82560, Note_on_c, 5, 57, 82
21, 83543, Control_c, 5, 7, 125
21, 83653, Control_c, 5, 7, 124
21, 83714, Control_c, 5, 7, 122
21, 83782, Control_c, 5, 7, 121
21, 83848, Control_c, 5, 7, 119
21, 83898, Control_c, 5, 7, 118
21, 83954, Control_c, 5, 7, 116
21, 83989, Control_c, 5, 7, 115
21, 84027, Control_c, 5, 7, 113
21, 84081, Control_c, 5, 7, 110
21, 84124, Control_c, 5, 7, 107
21, 84158, Control_c, 5, 7, 103
21, 84203, Control_c, 5, 7, 98
21, 84248, Control_c, 5, 7, 93
21, 84285, Control_c, 5, 7, 89
21, 84322, Control_c, 5, 7, 83
21, 84355, Control_c, 5, 7, 78
21, 84394, Control_c, 5, 7, 73
21, 84427, Control_c, 5, 7, 67
21, 84458, Control_c, 5, 7, 61
21, 84479, Note_off_c, 5, 57, 0
21, 84492, Control_c, 5, 7, 54
21, 84528, Control_c, 5, 7, 48
21, 84726, Control_c, 5, 7, 66
21, 84757, Control_c, 5, 7, 99
21, 84788, Control_c, 5, 7, 127
21, 99356, Control_c, 5, 7, 121
21, 99389, Control_c, 5, 7, 114
21, 99421, Control_c, 5, 7, 106
21, 99488, Control_c, 5, 7, 85
21, 99526, Control_c, 5, 7, 70
21, 99564, Control_c, 5, 7, 53
21, 99595, Control_c, 5, 7, 37
21, 99632, Control_c, 5, 7, 23
21, 99671, Control_c, 5, 7, 15
21, 99787, Control_c, 5, 7, 23
21, 99817, Control_c, 5, 7, 28
21, 99840, Note_on_c, 5, 50, 107
21, 99848, Control_c, 5, 7, 33
21, 99884, Control_c, 5, 7, 40
21, 99921, Control_c, 5, 7, 46
21, 99960, Control_c, 5, 7, 51
21, 99997, Control_c, 5, 7, 57
21, 100036, Control_c, 5, 7, 63
21, 100067, Control_c, 5, 7, 68
21, 100097, Control_c, 5, 7, 71
21, 100130, Control_c, 5, 7, 74
21, 100169, Control_c, 5, 7, 77
21, 100211, Control_c, 5, 7, 82
21, 100260, Control_c, 5, 7, 85
21, 100292, Control_c, 5, 7, 86
21, 100347, Control_c, 5, 7, 89
21, 100383, Control_c, 5, 7, 91
21, 100444, Control_c, 5, 7, 94
21, 100487, Control_c, 5, 7, 95
21, 100541, Control_c, 5, 7, 97
21, 100590, Control_c, 5, 7, 98
21, 100631, Control_c, 5, 7, 100
21, 100674, Control_c, 5, 7, 101
21, 100735, Control_c, 5, 7, 103
21, 100795, Control_c, 5, 7, 104
21, 100848, Control_c, 5, 7, 106
21, 100909, Control_c, 5, 7, 107
21, 101019, Control_c, 5, 7, 109
21, 101116, Control_c, 5, 7, 110
21, 101184, Control_c, 5, 7, 112
21, 101269, Control_c, 5, 7, 115
21, 101322, Control_c, 5, 7, 116
21, 101411, Control_c, 5, 7, 118
21, 101457, Control_c, 5, 7, 119
21, 101499, Control_c, 5, 7, 121
21, 101606, Control_c, 5, 7, 122
21, 101640, Control_c, 5, 7, 124
21, 101697, Control_c, 5, 7, 125
21, 101804, Control_c, 5, 7, 127
21, 103676, Note_off_c, 5, 50, 0
21, 103680, Note_on_c, 5, 48, 88
21, 105116, Note_off_c, 5, 48, 0
21, 105120, Note_on_c, 5, 50, 95
21, 105596, Note_off_c, 5, 50, 0
21, 105600, Note_on_c, 5, 51, 81
21, 107516, Note_off_c, 5, 51, 0
21, 107520, Note_on_c, 5, 50, 91
21, 109436, Note_off_c, 5, 50, 0
21, 109440, Note_on_c, 5, 55, 88
21, 111356, Note_off_c, 5, 55, 0
21, 111360, Note_on_c, 5, 55, 85
21, 115147, Note_off_c, 5, 55, 0
21, 115200, Note_on_c, 5, 59, 93
21, 117116, Note_off_c, 5, 59, 0
21, 117120, Note_on_c, 5, 57, 91
21, 120956, Note_off_c, 5, 57, 0
21, 120960, Note_on_c, 5, 55, 95
21, 122876, Note_off_c, 5, 55, 0
21, 122880, Note_on_c, 5, 59, 93
21, 124796, Note_off_c, 5, 59, 0
21, 124800, Note_on_c, 5, 57, 91
21, 128636, Note_off_c, 5, 57, 0
21, 128640, Note_on_c, 5, 57, 91
21, 129596, Note_off_c, 5, 57, 0
21, 129600, Note_on_c, 5, 55, 90
21, 130556, Note_off_c, 5, 55, 0
21, 130560, Note_on_c, 5, 59, 93
21, 132476, Note_off_c, 5, 59, 0
21, 132480, Note_on_c, 5, 57, 91
21, 136316, Note_off_c, 5, 57, 0
21, 136320, Note_on_c, 5, 55, 95
21, 137458, Control_c, 5, 7, 125
21, 137522, Control_c, 5, 7, 124
21, 137591, Control_c, 5, 7, 122
21, 137663, Control_c, 5, 7, 121
21, 137743, Control_c, 5, 7, 119
21, 137832, Control_c, 5, 7, 118
21, 137921, Control_c, 5, 7, 116
21, 137989, Control_c, 5, 7, 115
21, 138099, Control_c, 5, 7, 113
21, 138225, Control_c, 5, 7, 112
21, 138371, Control_c, 5, 7, 110
21, 138782, Control_c, 5, 7, 109
21, 140332, Control_c, 5, 7, 107
21, 140497, Control_c, 5, 7, 106
21, 140625, Control_c, 5, 7, 104
21, 140726, Control_c, 5, 7, 103
21, 140795, Control_c, 5, 7, 101
21, 140854, Control_c, 5, 7, 100
21, 140928, Control_c, 5, 7, 98
21, 140992, Control_c, 5, 7, 97
21, 141083, Control_c, 5, 7, 95
21, 141162, Control_c, 5, 7, 94
21, 141232, Control_c, 5, 7, 92
21, 141319, Control_c, 5, 7, 91
21, 141401, Control_c, 5, 7, 89
21, 141470, Control_c, 5, 7, 88
21, 141530, Control_c, 5, 7, 86
21, 141596, Control_c, 5, 7, 85
21, 141631, Control_c, 5, 7, 83
21, 141665, Control_c, 5, 7, 82
21, 141714, Control_c, 5, 7, 80
21, 141758, Control_c, 5, 7, 79
21, 141803, Control_c, 5, 7, 77
21, 141846, Control_c, 5, 7, 76
21, 141886, Control_c, 5, 7, 74
21, 141924, Control_c, 5, 7, 73
21, 141973, Control_c, 5, 7, 71
21, 142029, Control_c, 5, 7, 70
21, 142085, Control_c, 5, 7, 68
21, 142139, Control_c, 5, 7, 67
21, 142177, Control_c, 5, 7, 65
21, 142227, Control_c, 5, 7, 64
21, 142272, Control_c, 5, 7, 62
21, 142314, Control_c, 5, 7, 61
21, 142350, Control_c, 5, 7, 59
21, 142391, Control_c, 5, 7, 58
21, 142434, Control_c, 5, 7, 56
21, 142491, Control_c, 5, 7, 53
21, 142549, Control_c, 5, 7, 50
21, 142599, Control_c, 5, 7, 47
21, 142629, Control_c, 5, 7, 46
21, 142679, Control_c, 5, 7, 43
21, 142714, Control_c, 5, 7, 40
21, 142756, Control_c, 5, 7, 37
21, 142806, Control_c, 5, 7, 34
21, 142856, Control_c, 5, 7, 31
21, 142901, Control_c, 5, 7, 27
21, 142950, Control_c, 5, 7, 24
21, 142987, Control_c, 5, 7, 20
21, 143036, Note_off_c, 5, 55, 0
21, 143036, Control_c, 5, 7, 17
21, 143069, Control_c, 5, 7, 14
21, 143118, Control_c, 5, 7, 11
21, 143155, Control_c, 5, 7, 8
21, 143200, Control_c, 5, 7, 5
21, 143234, Control_c, 5, 7, 4
21, 143290, Control_c, 5, 7, 1
21, 143863, Control_c, 5, 7, 12
21, 143901, Control_c, 5, 7, 47
21, 143932, Control_c, 5, 7, 91
21, 143963, Control_c, 5, 7, 127
21, 144000, Note_on_c, 5, 50, 88
21, 145436, Note_off_c, 5, 50, 0
21, 145440, Note_on_c, 5, 57, 89
21, 145676, Note_off_c, 5, 57, 0
21, 145680, Note_on_c, 5, 55, 86
21, 147796, Note_off_c, 5, 55, 0
21, 147840, Note_on_c, 5, 50, 88
21, 150711, Control_c, 5, 7, 125
21, 150764, Control_c, 5, 7, 124
21, 150824, Control_c, 5, 7, 122
21, 150870, Control_c, 5, 7, 121
21, 150923, Control_c, 5, 7, 119
21, 150965, Control_c, 5, 7, 118
21, 151008, Control_c, 5, 7, 116
21, 151041, Control_c, 5, 7, 115
21, 151101, Control_c, 5, 7, 112
21, 151134, Control_c, 5, 7, 110
21, 151173, Control_c, 5, 7, 107
21, 151221, Control_c, 5, 7, 104
21, 151269, Control_c, 5, 7, 101
21, 151320, Control_c, 5, 7, 98
21, 151364, Control_c, 5, 7, 95
21, 151413, Control_c, 5, 7, 92
21, 151461, Control_c, 5, 7, 87
21, 151468, Note_off_c, 5, 50, 0
21, 151498, Control_c, 5, 7, 84
21, 151593, Control_c, 5, 7, 102
21, 151624, Control_c, 5, 7, 127
21, 151680, Note_on_c, 5, 50, 88
21, 153116, Note_off_c, 5, 50, 0
21, 153120, Note_on_c, 5, 57, 90
21, 153356, Note_off_c, 5, 57, 0
21, 153360, Note_on_c, 5, 55, 87
21, 155476, Note_off_c, 5, 55, 0
21, 155520, Note_on_c, 5, 62, 90
21, 156236, Note_off_c, 5, 62, 0
21, 156240, Note_on_c, 5, 60, 91
21, 156716, Note_off_c, 5, 60, 0
21, 156720, Note_on_c, 5, 58, 90
21, 157196, Note_off_c, 5, 58, 0
21, 157200, Note_on_c, 5, 60, 89
21, 157316, Note_off_c, 5, 60, 0
21, 157320, Note_on_c, 5, 58, 85
21, 157436, Note_off_c, 5, 58, 0
21, 157440, Note_on_c, 5, 57, 82
21, 158423, Control_c, 5, 7, 125
21, 158533, Control_c, 5, 7, 124
21, 158594, Control_c, 5, 7, 122
21, 158662, Control_c, 5, 7, 121
21, 158728, Control_c, 5, 7, 119
21, 158778, Control_c, 5, 7, 118
21, 158834, Control_c, 5, 7, 116
21, 158869, Control_c, 5, 7, 115
21, 158907, Control_c, 5, 7, 113
21, 158961, Control_c, 5, 7, 110
21, 159004, Control_c, 5, 7, 107
21, 159038, Control_c, 5, 7, 103
21, 159083, Control_c, 5, 7, 98
21, 159128, Control_c, 5, 7, 93
21, 159165, Control_c, 5, 7, 89
21, 159202, Control_c, 5, 7, 83
21, 159235, Control_c, 5, 7, 78
21, 159274, Control_c, 5, 7, 73
21, 159307, Control_c, 5, 7, 67
21, 159338, Control_c, 5, 7, 61
21, 159359, Note_off_c, 5, 57, 0
21, 159372, Control_c, 5, 7, 54
21, 159408, Control_c, 5, 7, 48
21, 159606, Control_c, 5, 7, 66
21, 159637, Control_c, 5, 7, 99
21, 159668, Control_c, 5, 7, 127
21, 178560, Note_on_c, 5, 59, 93
21, 180476, Note_off_c, 5, 59, 0
21, 180480, Note_on_c, 5, 57, 91
21, 184316, Note_off_c, 5, 57, 0
21, 184320, Note_on_c, 5, 55, 95
21, 186236, Note_off_c, 5, 55, 0
21, 186240, Note_on_c, 5, 59, 93
21, 188156, Note_off_c, 5, 59, 0
21, 188160, Note_on_c, 5, 57, 91
21, 191996, Note_off_c, 5, 57, 0
21, 192000, Note_on_c, 5, 57, 91
21, 192956, Note_off_c, 5, 57, 0
21, 192960, Note_on_c, 5, 55, 90
21, 193916, Note_off_c, 5, 55, 0
21, 193920, Note_on_c, 5, 59, 93
21, 195836, Note_off_c, 5, 59, 0
21, 195840, Note_on_c, 5, 57, 91
21, 199676, Note_off_c, 5, 57, 0
21, 199680, Note_on_c, 5, 55, 95
21, 204776, Control_c, 5, 7, 126
21, 204840, Control_c, 5, 7, 124
21, 204889, Control_c, 5, 7, 123
21, 204953, Control_c, 5, 7, 121
21, 205031, Control_c, 5, 7, 120
21, 205131, Control_c, 5, 7, 118
21, 205250, Control_c, 5, 7, 117
21, 205490, Control_c, 5, 7, 115
21, 205640, Control_c, 5, 7, 114
21, 205746, Control_c, 5, 7, 112
21, 205826, Control_c, 5, 7, 111
21, 205966, Control_c, 5, 7, 109
21, 206164, Control_c, 5, 7, 108
21, 206306, Control_c, 5, 7, 106
21, 206414, Control_c, 5, 7, 105
21, 206539, Control_c, 5, 7, 103
21, 206649, Control_c, 5, 7, 102
21, 206742, Control_c, 5, 7, 100
21, 206818, Control_c, 5, 7, 99
21, 206879, Control_c, 5, 7, 97
21, 206996, Control_c, 5, 7, 96
21, 207114, Control_c, 5, 7, 94
21, 207219, Control_c, 5, 7, 93
21, 207344, Control_c, 5, 7, 91
21, 207486, Control_c, 5, 7, 90
21, 207622, Control_c, 5, 7, 88
21, 207740, Control_c, 5, 7, 87
21, 207840, Control_c, 5, 7, 85
21, 208002, Control_c, 5, 7, 84
21, 208135, Control_c, 5, 7, 82
21, 208264, Control_c, 5, 7, 81
21, 208353, Control_c, 5, 7, 79
21, 208434, Control_c, 5, 7, 78
21, 208512, Control_c, 5, 7, 76
21, 208599, Control_c, 5, 7, 75
21, 208688, Control_c, 5, 7, 73
21, 208784, Control_c, 5, 7, 72
21, 208874, Control_c, 5, 7, 70
21, 208955, Control_c, 5, 7, 69
21, 209044, Control_c, 5, 7, 67
21, 209124, Control_c, 5, 7, 66
21, 209213, Control_c, 5, 7, 64
21, 209287, Control_c, 5, 7, 63
21, 209357, Control_c, 5, 7, 61
21, 209429, Control_c, 5, 7, 60
21, 209485, Control_c, 5, 7, 58
21, 209534, Control_c, 5, 7, 57
21, 209577, Control_c, 5, 7, 55
21, 209631, Control_c, 5, 7, 54
21, 209668, Control_c, 5, 7, 52
21, 209725, Control_c, 5, 7, 51
21, 209781, Control_c, 5, 7, 49
21, 209838, Control_c, 5, 7, 48
21, 209883, Control_c, 5, 7, 46
21, 209926, Control_c, 5, 7, 45
21, 209966, Control_c, 5, 7, 43
21, 210020, Control_c, 5, 7, 42
21, 210065, Control_c, 5, 7, 40
21, 210114, Control_c, 5, 7, 39
21, 210155, Control_c, 5, 7, 37
21, 210198, Control_c, 5, 7, 36
21, 210244, Control_c, 5, 7, 34
21, 210297, Control_c, 5, 7, 33
21, 210332, Control_c, 5, 7, 31
21, 210370, Control_c, 5, 7, 30
21, 210404, Control_c, 5, 7, 28
21, 210439, Control_c, 5, 7, 27
21, 210482, Control_c, 5, 7, 25
21, 210528, Control_c, 5, 7, 24
21, 210564, Control_c, 5, 7, 22
21, 210594, Control_c, 5, 7, 21
21, 210630, Control_c, 5, 7, 19
21, 210671, Control_c, 5, 7, 17
21, 210706, Control_c, 5, 7, 16
21, 210716, Note_off_c, 5, 55, 0
21, 210763, Control_c, 5, 7, 13
21, 210795, Control_c, 5, 7, 11
21, 210839, Control_c, 5, 7, 8
21, 210894, Control_c, 5, 7, 5
21, 210926, Control_c, 5, 7, 4
21, 210959, Control_c, 5, 7, 2
21, 210996, Control_c, 5, 7, 1
21, 212679, Control_c, 5, 7, 10
21, 212709, Control_c, 5, 7, 27
21, 212739, Control_c, 5, 7, 49
21, 212776, Control_c, 5, 7, 79
21, 212813, Control_c, 5, 7, 108
21, 212844, Control_c, 5, 7, 127
21, 236204, Control_c, 5, 7, 127
21, 236204, Control_c, 5, 121, 0
21, 236209, End_track
22, 0, Start_track
22, 725, Control_c, 6, 0, 0
22, 730, Control_c, 6, 32, 0
22, 735, Program_c, 6, 18
22, 740, Control_c, 6, 7, 127
22, 745, Control_c, 6, 10, 44
22, 750, Control_c, 6, 11, 127
22, 755, Control_c, 6, 91, 67
22, 760, Control_c, 6, 93, 20
22, 765, Control_c, 6, 74, 64
22, 770, Control_c, 6, 71, 64
22, 775, Control_c, 6, 73, 64
22, 780, Control_c, 6, 72, 64
22, 785, Control_c, 6, 94, 0
22, 3829, Note_on_c, 6, 58, 100
22, 3883, Note_off_c, 6, 58, 0
22, 3887, Note_on_c, 6, 59, 103
22, 4080, Note_on_c, 6, 62, 103
22, 4094, Note_off_c, 6, 59, 0
22, 4275, Note_off_c, 6, 62, 0
22, 4320, Note_on_c, 6, 64, 90
22, 4510, Note_off_c, 6, 64, 0
22, 4560, Note_on_c, 6, 67, 95
22, 4742, Note_off_c, 6, 67, 0
22, 4779, Note_on_c, 6, 70, 92
22, 4796, Note_on_c, 6, 71, 98
22, 4828, Note_off_c, 6, 70, 0
22, 5018, Note_off_c, 6, 71, 0
22, 5040, Note_on_c, 6, 74, 97
22, 5278, Note_off_c, 6, 74, 0
22, 5280, Note_on_c, 6, 71, 94
22, 5280, Note_on_c, 6, 74, 94
22, 5368, Note_off_c, 6, 71, 0
22, 5400, Note_on_c, 6, 69, 90
22, 5509, Note_off_c, 6, 69, 0
22, 5520, Note_on_c, 6, 67, 89
22, 5590, Note_off_c, 6, 74, 0
22, 5672, Note_off_c, 6, 67, 0
22, 145909, Note_on_c, 6, 58, 100
22, 145963, Note_off_c, 6, 58, 0
22, 145967, Note_on_c, 6, 59, 103
22, 146160, Note_on_c, 6, 62, 103
22, 146174, Note_off_c, 6, 59, 0
22, 146355, Note_off_c, 6, 62, 0
22, 146400, Note_on_c, 6, 64, 90
22, 146590, Note_off_c, 6, 64, 0
22, 146640, Note_on_c, 6, 67, 95
22, 146822, Note_off_c, 6, 67, 0
22, 146859, Note_on_c, 6, 70, 92
22, 146876, Note_on_c, 6, 71, 98
22, 146908, Note_off_c, 6, 70, 0
22, 147098, Note_off_c, 6, 71, 0
22, 147120, Note_on_c, 6, 74, 97
22, 147358, Note_off_c, 6, 74, 0
22, 147360, Note_on_c, 6, 71, 94
22, 147360, Note_on_c, 6, 74, 94
22, 147448, Note_off_c, 6, 71, 0
22, 147480, Note_on_c, 6, 69, 90
22, 147589, Note_off_c, 6, 69, 0
22, 147600, Note_on_c, 6, 67, 89
22, 147670, Note_off_c, 6, 74, 0
22, 147752, Note_off_c, 6, 67, 0
22, 236204, Control_c, 6, 7, 127
22, 236204, Control_c, 6, 121, 0
22, 236209, End_track
23, 0, Start_track
23, 795, Control_c, 7, 0, 0
23, 800, Control_c, 7, 32, 0
23, 805, Program_c, 7, 50
23, 810, Control_c, 7, 7, 127
23, 815, Control_c, 7, 10, 64
23, 820, Control_c, 7, 11, 127
23, 825, Control_c, 7, 91, 67
23, 830, Control_c, 7, 93, 30
23, 835, Control_c, 7, 74, 64
23, 840, Control_c, 7, 71, 64
23, 845, Control_c, 7, 73, 64
23, 850, Control_c, 7, 72, 64
23, 855, Control_c, 7, 94, 0
23, 1920, Note_on_c, 7, 54, 74
23, 1920, Note_on_c, 7, 57, 79
23, 1920, Note_on_c, 7, 62, 77
23, 3836, Note_off_c, 7, 54, 0
23, 3836, Note_off_c, 7, 57, 0
23, 3840, Note_on_c, 7, 52, 75
23, 3840, Note_on_c, 7, 55, 78
23, 5756, Note_off_c, 7, 52, 0
23, 5756, Note_off_c, 7, 55, 0
23, 5756, Note_off_c, 7, 62, 0
23, 5760, Note_on_c, 7, 51, 76
23, 5760, Note_on_c, 7, 55, 79
23, 5760, Note_on_c, 7, 62, 81
23, 7676, Note_off_c, 7, 51, 0
23, 7680, Note_on_c, 7, 50, 78
23, 7680, Note_on_c, 7, 57, 76
23, 9596, Note_off_c, 7, 50, 0
23, 9596, Note_off_c, 7, 55, 0
23, 9596, Note_off_c, 7, 57, 0
23, 9596, Note_off_c, 7, 62, 0
23, 9600, Note_on_c, 7, 54, 74
23, 9600, Note_on_c, 7, 57, 79
23, 9600, Note_on_c, 7, 62, 77
23, 11516, Note_off_c, 7, 54, 0
23, 11516, Note_off_c, 7, 57, 0
23, 11520, Note_on_c, 7, 52, 75
23, 11520, Note_on_c, 7, 55, 78
23, 13436, Note_off_c, 7, 52, 0
23, 13436, Note_off_c, 7, 55, 0
23, 13436, Note_off_c, 7, 62, 0
23, 13440, Note_on_c, 7, 51, 76
23, 13440, Note_on_c, 7, 55, 79
23, 13440, Note_on_c, 7, 62, 81
23, 15356, Note_off_c, 7, 51, 0
23, 15360, Note_on_c, 7, 50, 78
23, 15360, Note_on_c, 7, 57, 76
23, 17276, Note_off_c, 7, 50, 0
23, 17276, Note_off_c, 7, 55, 0
23, 17276, Note_off_c, 7, 57, 0
23, 17276, Note_off_c, 7, 62, 0
23, 46796, Control_c, 7, 7, 120
23, 46827, Control_c, 7, 7, 105
23, 46858, Control_c, 7, 7, 78
23, 46888, Control_c, 7, 7, 52
23, 46926, Control_c, 7, 7, 26
23, 46958, Control_c, 7, 7, 18
23, 47028, Control_c, 7, 7, 20
23, 47040, Note_on_c, 7, 64, 110
23, 47040, Note_on_c, 7, 67, 127
23, 47040, Note_on_c, 7, 71, 116
23, 47090, Control_c, 7, 7, 33
23, 47123, Control_c, 7, 7, 40
23, 47153, Control_c, 7, 7, 48
23, 47190, Control_c, 7, 7, 54
23, 47229, Control_c, 7, 7, 62
23, 47265, Control_c, 7, 7, 68
23, 47295, Control_c, 7, 7, 73
23, 47332, Control_c, 7, 7, 78
23, 47372, Control_c, 7, 7, 84
23, 47406, Control_c, 7, 7, 87
23, 47444, Control_c, 7, 7, 92
23, 47477, Control_c, 7, 7, 97
23, 47510, Control_c, 7, 7, 101
23, 47550, Control_c, 7, 7, 106
23, 47584, Control_c, 7, 7, 110
23, 47617, Control_c, 7, 7, 113
23, 47659, Control_c, 7, 7, 116
23, 47699, Control_c, 7, 7, 121
23, 47740, Control_c, 7, 7, 124
23, 47781, Control_c, 7, 7, 127
23, 47976, Note_off_c, 7, 64, 0
23, 47980, Note_off_c, 7, 67, 0
23, 48000, Note_on_c, 7, 67, 77
23, 48000, Note_on_c, 7, 71, 79
23, 48000, Note_on_c, 7, 76, 77
23, 48006, Note_off_c, 7, 71, 0
23, 49916, Note_off_c, 7, 67, 0
23, 49916, Note_off_c, 7, 71, 0
23, 49916, Note_off_c, 7, 76, 0
23, 49920, Note_on_c, 7, 66, 71
23, 49920, Note_on_c, 7, 69, 77
23, 49920, Note_on_c, 7, 74, 80
23, 51836, Note_off_c, 7, 66, 0
23, 51836, Note_off_c, 7, 69, 0
23, 51836, Note_off_c, 7, 74, 0
23, 51840, Note_on_c, 7, 62, 80
23, 51840, Note_on_c, 7, 66, 75
23, 51840, Note_on_c, 7, 69, 83
23, 53756, Note_off_c, 7, 66, 0
23, 53756, Note_off_c, 7, 69, 0
23, 53760, Note_on_c, 7, 67, 81
23, 53760, Note_on_c, 7, 71, 84
23, 54716, Note_off_c, 7, 71, 0
23, 54720, Note_on_c, 7, 69, 84
23, 55196, Note_off_c, 7, 69, 0
23, 55200, Note_on_c, 7, 71, 81
23, 55676, Note_off_c, 7, 62, 0
23, 55676, Note_off_c, 7, 67, 0
23, 55676, Note_off_c, 7, 71, 0
23, 55680, Note_on_c, 7, 67, 77
23, 55680, Note_on_c, 7, 71, 79
23, 55680, Note_on_c, 7, 76, 77
23, 57596, Note_off_c, 7, 67, 0
23, 57596, Note_off_c, 7, 71, 0
23, 57596, Note_off_c, 7, 76, 0
23, 57600, Note_on_c, 7, 66, 71
23, 57600, Note_on_c, 7, 69, 77
23, 57600, Note_on_c, 7, 74, 80
23, 61436, Note_off_c, 7, 66, 0
23, 61436, Note_off_c, 7, 69, 0
23, 61436, Note_off_c, 7, 74, 0
23, 61440, Note_on_c, 7, 65, 94
23, 61440, Note_on_c, 7, 69, 95
23, 61440, Note_on_c, 7, 72, 96
23, 62396, Note_off_c, 7, 65, 0
23, 62396, Note_off_c, 7, 69, 0
23, 62396, Note_off_c, 7, 72, 0
23, 62400, Note_on_c, 7, 67, 101
23, 62400, Note_on_c, 7, 71, 86
23, 62400, Note_on_c, 7, 74, 94
23, 63356, Note_off_c, 7, 67, 0
23, 63356, Note_off_c, 7, 71, 0
23, 63356, Note_off_c, 7, 74, 0
23, 63360, Note_on_c, 7, 67, 77
23, 63360, Note_on_c, 7, 71, 79
23, 63360, Note_on_c, 7, 76, 77
23, 65276, Note_off_c, 7, 67, 0
23, 65276, Note_off_c, 7, 71, 0
23, 65276, Note_off_c, 7, 76, 0
23, 65280, Note_on_c, 7, 66, 71
23, 65280, Note_on_c, 7, 69, 77
23, 65280, Note_on_c, 7, 74, 80
23, 69116, Note_off_c, 7, 66, 0
23, 69116, Note_off_c, 7, 69, 0
23, 69116, Note_off_c, 7, 74, 0
23, 69120, Note_on_c, 7, 62, 96
23, 69120, Note_on_c, 7, 67, 99
23, 69120, Note_on_c, 7, 71, 94
23, 71036, Note_off_c, 7, 62, 0
23, 71036, Note_off_c, 7, 67, 0
23, 71036, Note_off_c, 7, 71, 0
23, 71040, Note_on_c, 7, 60, 78
23, 71040, Note_on_c, 7, 64, 77
23, 71040, Note_on_c, 7, 67, 79
23, 71996, Note_off_c, 7, 60, 0
23, 71996, Note_off_c, 7, 64, 0
23, 72000, Note_on_c, 7, 59, 72
23, 72000, Note_on_c, 7, 62, 79
23, 72883, Control_c, 7, 7, 126
23, 72940, Control_c, 7, 7, 124
23, 72956, Note_off_c, 7, 59, 0
23, 72956, Note_off_c, 7, 62, 0
23, 72960, Note_on_c, 7, 60, 77
23, 72960, Note_on_c, 7, 63, 69
23, 72981, Control_c, 7, 7, 123
23, 73030, Control_c, 7, 7, 121
23, 73073, Control_c, 7, 7, 120
23, 73134, Control_c, 7, 7, 118
23, 73172, Control_c, 7, 7, 117
23, 73208, Control_c, 7, 7, 115
23, 73249, Control_c, 7, 7, 114
23, 73312, Control_c, 7, 7, 111
23, 73358, Control_c, 7, 7, 109
23, 73390, Control_c, 7, 7, 108
23, 73435, Control_c, 7, 7, 106
23, 73477, Control_c, 7, 7, 105
23, 73512, Control_c, 7, 7, 103
23, 73554, Control_c, 7, 7, 102
23, 73610, Control_c, 7, 7, 100
23, 73661, Control_c, 7, 7, 99
23, 73722, Control_c, 7, 7, 97
23, 73788, Control_c, 7, 7, 96
23, 73881, Control_c, 7, 7, 94
23, 73966, Control_c, 7, 7, 93
23, 74144, Control_c, 7, 7, 91
23, 74528, Control_c, 7, 7, 90
23, 74961, Control_c, 7, 7, 88
23, 75256, Control_c, 7, 7, 87
23, 75465, Control_c, 7, 7, 85
23, 75607, Control_c, 7, 7, 84
23, 75736, Control_c, 7, 7, 82
23, 75823, Control_c, 7, 7, 81
23, 75912, Control_c, 7, 7, 79
23, 76001, Control_c, 7, 7, 78
23, 76050, Control_c, 7, 7, 76
23, 76101, Control_c, 7, 7, 75
23, 76139, Control_c, 7, 7, 73
23, 76188, Control_c, 7, 7, 72
23, 76221, Control_c, 7, 7, 70
23, 76257, Control_c, 7, 7, 69
23, 76296, Control_c, 7, 7, 67
23, 76316, Note_off_c, 7, 60, 0
23, 76316, Note_off_c, 7, 63, 0
23, 76316, Note_off_c, 7, 67, 0
23, 76345, Control_c, 7, 7, 63
23, 76387, Control_c, 7, 7, 60
23, 76436, Control_c, 7, 7, 57
23, 76470, Control_c, 7, 7, 54
23, 76510, Control_c, 7, 7, 50
23, 76547, Control_c, 7, 7, 44
23, 76587, Control_c, 7, 7, 41
23, 76795, Control_c, 7, 7, 127
23, 76800, Note_on_c, 7, 54, 74
23, 76800, Note_on_c, 7, 57, 79
23, 76800, Note_on_c, 7, 62, 77
23, 78716, Note_off_c, 7, 54, 0
23, 78716, Note_off_c, 7, 57, 0
23, 78720, Note_on_c, 7, 52, 75
23, 78720, Note_on_c, 7, 55, 78
23, 80636, Note_off_c, 7, 52, 0
23, 80636, Note_off_c, 7, 55, 0
23, 80636, Note_off_c, 7, 62, 0
23, 80640, Note_on_c, 7, 51, 76
23, 80640, Note_on_c, 7, 55, 79
23, 80640, Note_on_c, 7, 62, 81
23, 82556, Note_off_c, 7, 51, 0
23, 82560, Note_on_c, 7, 50, 78
23, 82560, Note_on_c, 7, 57, 76
23, 84476, Note_off_c, 7, 50, 0
23, 84476, Note_off_c, 7, 55, 0
23, 84476, Note_off_c, 7, 57, 0
23, 84476, Note_off_c, 7, 62, 0
23, 99840, Note_on_c, 7, 57, 77
23, 99840, Note_on_c, 7, 62, 78
23, 101756, Note_off_c, 7, 57, 0
23, 101760, Note_on_c, 7, 56, 76
23, 103676, Note_off_c, 7, 56, 0
23, 103676, Note_off_c, 7, 62, 0
23, 103680, Note_on_c, 7, 55, 78
23, 103680, Note_on_c, 7, 60, 80
23, 105116, Note_off_c, 7, 60, 0
23, 105120, Note_on_c, 7, 62, 83
23, 105596, Note_off_c, 7, 55, 0
23, 105596, Note_off_c, 7, 62, 0
23, 105600, Note_on_c, 7, 58, 74
23, 105600, Note_on_c, 7, 63, 73
23, 107516, Note_off_c, 7, 58, 0
23, 107516, Note_off_c, 7, 63, 0
23, 107520, Note_on_c, 7, 57, 81
23, 107520, Note_on_c, 7, 62, 78
23, 109436, Note_off_c, 7, 57, 0
23, 109440, Note_on_c, 7, 55, 80
23, 111356, Note_off_c, 7, 55, 0
23, 111356, Note_off_c, 7, 62, 0
23, 111360, Note_on_c, 7, 57, 112
23, 111360, Note_on_c, 7, 60, 112
23, 111360, Note_on_c, 7, 64, 109
23, 112316, Note_off_c, 7, 57, 0
23, 112316, Note_off_c, 7, 60, 0
23, 112316, Note_off_c, 7, 64, 0
23, 112320, Note_on_c, 7, 59, 114
23, 112320, Note_on_c, 7, 62, 110
23, 112320, Note_on_c, 7, 67, 112
23, 113276, Note_off_c, 7, 59, 0
23, 113276, Note_off_c, 7, 62, 0
23, 113280, Note_on_c, 7, 60, 110
23, 113280, Note_on_c, 7, 63, 101
23, 114236, Note_off_c, 7, 60, 0
23, 114236, Note_off_c, 7, 63, 0
23, 114236, Note_off_c, 7, 67, 0
23, 114240, Note_on_c, 7, 60, 100
23, 114240, Note_on_c, 7, 64, 100
23, 114240, Note_on_c, 7, 67, 109
23, 115196, Note_off_c, 7, 60, 0
23, 115196, Note_off_c, 7, 64, 0
23, 115196, Note_off_c, 7, 67, 0
23, 115200, Note_on_c, 7, 67, 77
23, 115200, Note_on_c, 7, 71, 79
23, 115200, Note_on_c, 7, 76, 77
23, 117116, Note_off_c, 7, 67, 0
23, 117116, Note_off_c, 7, 71, 0
23, 117116, Note_off_c, 7, 76, 0
23, 117120, Note_on_c, 7, 66, 71
23, 117120, Note_on_c, 7, 69, 77
23, 117120, Note_on_c, 7, 74, 80
23, 119036, Note_off_c, 7, 66, 0
23, 119036, Note_off_c, 7, 69, 0
23, 119036, Note_off_c, 7, 74, 0
23, 119040, Note_on_c, 7, 62, 80
23, 119040, Note_on_c, 7, 66, 75
23, 119040, Note_on_c, 7, 69, 83
23, 120956, Note_off_c, 7, 66, 0
23, 120956, Note_off_c, 7, 69, 0
23, 120960, Note_on_c, 7, 67, 81
23, 120960, Note_on_c, 7, 71, 84
23, 121916, Note_off_c, 7, 71, 0
23, 121920, Note_on_c, 7, 69, 84
23, 122396, Note_off_c, 7, 69, 0
23, 122400, Note_on_c, 7, 71, 81
23, 122876, Note_off_c, 7, 62, 0
23, 122876, Note_off_c, 7, 67, 0
23, 122876, Note_off_c, 7, 71, 0
23, 122880, Note_on_c, 7, 67, 77
23, 122880, Note_on_c, 7, 71, 79
23, 122880, Note_on_c, 7, 76, 77
23, 124796, Note_off_c, 7, 67, 0
23, 124796, Note_off_c, 7, 71, 0
23, 124796, Note_off_c, 7, 76, 0
23, 124800, Note_on_c, 7, 66, 71
23, 124800, Note_on_c, 7, 69, 77
23, 124800, Note_on_c, 7, 74, 80
23, 128636, Note_off_c, 7, 66, 0
23, 128636, Note_off_c, 7, 69, 0
23, 128636, Note_off_c, 7, 74, 0
23, 128640, Note_on_c, 7, 65, 94
23, 128640, Note_on_c, 7, 69, 95
23, 128640, Note_on_c, 7, 72, 96
23, 128640, Note_on_c, 7, 81, 97
23, 129596, Note_off_c, 7, 65, 0
23, 129596, Note_off_c, 7, 69, 0
23, 129596, Note_off_c, 7, 72, 0
23, 129596, Note_off_c, 7, 81, 0
23, 129600, Note_on_c, 7, 67, 101
23, 129600, Note_on_c, 7, 71, 86
23, 129600, Note_on_c, 7, 74, 94
23, 129600, Note_on_c, 7, 79, 94
23, 130556, Note_off_c, 7, 67, 0
23, 130556, Note_off_c, 7, 71, 0
23, 130556, Note_off_c, 7, 74, 0
23, 130556, Note_off_c, 7, 79, 0
23, 130560, Note_on_c, 7, 67, 77
23, 130560, Note_on_c, 7, 71, 79
23, 130560, Note_on_c, 7, 76, 77
23, 132476, Note_off_c, 7, 67, 0
23, 132476, Note_off_c, 7, 71, 0
23, 132476, Note_off_c, 7, 76, 0
23, 132480, Note_on_c, 7, 66, 71
23, 132480, Note_on_c, 7, 69, 77
23, 132480, Note_on_c, 7, 74, 80
23, 136316, Note_off_c, 7, 66, 0
23, 136316, Note_off_c, 7, 69, 0
23, 136316, Note_off_c, 7, 74, 0
23, 136320, Note_on_c, 7, 62, 96
23, 136320, Note_on_c, 7, 67, 99
23, 136320, Note_on_c, 7, 71, 94
23, 138236, Note_off_c, 7, 62, 0
23, 138236, Note_off_c, 7, 67, 0
23, 138236, Note_off_c, 7, 71, 0
23, 138240, Note_on_c, 7, 60, 78
23, 138240, Note_on_c, 7, 64, 77
23, 138240, Note_on_c, 7, 67, 79
23, 139196, Note_off_c, 7, 60, 0
23, 139196, Note_off_c, 7, 64, 0
23, 139200, Note_on_c, 7, 59, 72
23, 139200, Note_on_c, 7, 62, 79
23, 140083, Control_c, 7, 7, 126
23, 140140, Control_c, 7, 7, 124
23, 140156, Note_off_c, 7, 59, 0
23, 140156, Note_off_c, 7, 62, 0
23, 140160, Note_on_c, 7, 60, 77
23, 140160, Note_on_c, 7, 63, 69
23, 140181, Control_c, 7, 7, 123
23, 140230, Control_c, 7, 7, 121
23, 140273, Control_c, 7, 7, 120
23, 140334, Control_c, 7, 7, 118
23, 140372, Control_c, 7, 7, 117
23, 140408, Control_c, 7, 7, 115
23, 140449, Control_c, 7, 7, 114
23, 140512, Control_c, 7, 7, 111
23, 140558, Control_c, 7, 7, 109
23, 140590, Control_c, 7, 7, 108
23, 140635, Control_c, 7, 7, 106
23, 140677, Control_c, 7, 7, 105
23, 140712, Control_c, 7, 7, 103
23, 140754, Control_c, 7, 7, 102
23, 140810, Control_c, 7, 7, 100
23, 140861, Control_c, 7, 7, 99
23, 140922, Control_c, 7, 7, 97
23, 140988, Control_c, 7, 7, 96
23, 141081, Control_c, 7, 7, 94
23, 141166, Control_c, 7, 7, 93
23, 141344, Control_c, 7, 7, 91
23, 141728, Control_c, 7, 7, 90
23, 142161, Control_c, 7, 7, 88
23, 142456, Control_c, 7, 7, 87
23, 142665, Control_c, 7, 7, 85
23, 142807, Control_c, 7, 7, 84
23, 142936, Control_c, 7, 7, 82
23, 143023, Control_c, 7, 7, 81
23, 143112, Control_c, 7, 7, 79
23, 143201, Control_c, 7, 7, 78
23, 143250, Control_c, 7, 7, 76
23, 143301, Control_c, 7, 7, 75
23, 143339, Control_c, 7, 7, 73
23, 143388, Control_c, 7, 7, 72
23, 143421, Control_c, 7, 7, 70
23, 143457, Control_c, 7, 7, 69
23, 143496, Control_c, 7, 7, 67
23, 143516, Note_off_c, 7, 60, 0
23, 143516, Note_off_c, 7, 63, 0
23, 143516, Note_off_c, 7, 67, 0
23, 143545, Control_c, 7, 7, 63
23, 143587, Control_c, 7, 7, 60
23, 143636, Control_c, 7, 7, 57
23, 143670, Control_c, 7, 7, 54
23, 143710, Control_c, 7, 7, 50
23, 143747, Control_c, 7, 7, 44
23, 143787, Control_c, 7, 7, 41
23, 143995, Control_c, 7, 7, 127
23, 144000, Note_on_c, 7, 54, 74
23, 144000, Note_on_c, 7, 57, 79
23, 144000, Note_on_c, 7, 62, 77
23, 145916, Note_off_c, 7, 54, 0
23, 145916, Note_off_c, 7, 57, 0
23, 145920, Note_on_c, 7, 52, 75
23, 145920, Note_on_c, 7, 55, 78
23, 147836, Note_off_c, 7, 52, 0
23, 147836, Note_off_c, 7, 55, 0
23, 147836, Note_off_c, 7, 62, 0
23, 147840, Note_on_c, 7, 51, 76
23, 147840, Note_on_c, 7, 55, 79
23, 147840, Note_on_c, 7, 62, 81
23, 149756, Note_off_c, 7, 51, 0
23, 149760, Note_on_c, 7, 50, 78
23, 149760, Note_on_c, 7, 57, 76
23, 151676, Note_off_c, 7, 50, 0
23, 151676, Note_off_c, 7, 55, 0
23, 151676, Note_off_c, 7, 57, 0
23, 151676, Note_off_c, 7, 62, 0
23, 151680, Note_on_c, 7, 54, 74
23, 151680, Note_on_c, 7, 57, 79
23, 151680, Note_on_c, 7, 62, 77
23, 153596, Note_off_c, 7, 54, 0
23, 153596, Note_off_c, 7, 57, 0
23, 153600, Note_on_c, 7, 52, 75
23, 153600, Note_on_c, 7, 55, 78
23, 155516, Note_off_c, 7, 52, 0
23, 155516, Note_off_c, 7, 55, 0
23, 155516, Note_off_c, 7, 62, 0
23, 155520, Note_on_c, 7, 51, 76
23, 155520, Note_on_c, 7, 55, 79
23, 155520, Note_on_c, 7, 62, 81
23, 157436, Note_off_c, 7, 51, 0
23, 157440, Note_on_c, 7, 50, 78
23, 157440, Note_on_c, 7, 57, 76
23, 159356, Note_off_c, 7, 50, 0
23, 159356, Note_off_c, 7, 55, 0
23, 159356, Note_off_c, 7, 57, 0
23, 159356, Note_off_c, 7, 62, 0
23, 159360, Note_on_c, 7, 72, 88
23, 159360, Note_on_c, 7, 77, 88
23, 159360, Note_on_c, 7, 81, 87
23, 161276, Note_off_c, 7, 77, 0
23, 161276, Note_off_c, 7, 81, 0
23, 161280, Note_on_c, 7, 76, 84
23, 161280, Note_on_c, 7, 79, 93
23, 162240, Note_on_c, 7, 84, 85
23, 163196, Note_off_c, 7, 72, 0
23, 163196, Note_off_c, 7, 76, 0
23, 163196, Note_off_c, 7, 79, 0
23, 163196, Note_off_c, 7, 84, 0
23, 163200, Note_on_c, 7, 70, 83
23, 163200, Note_on_c, 7, 75, 82
23, 163200, Note_on_c, 7, 79, 90
23, 165116, Note_off_c, 7, 75, 0
23, 165116, Note_off_c, 7, 79, 0
23, 165120, Note_on_c, 7, 74, 88
23, 165120, Note_on_c, 7, 77, 88
23, 167036, Note_off_c, 7, 70, 0
23, 167036, Note_off_c, 7, 74, 0
23, 167036, Note_off_c, 7, 77, 0
23, 167040, Note_on_c, 7, 69, 98
23, 167040, Note_on_c, 7, 72, 93
23, 167040, Note_on_c, 7, 77, 91
23, 168956, Note_off_c, 7, 69, 0
23, 168956, Note_off_c, 7, 77, 0
23, 168960, Note_on_c, 7, 76, 82
23, 168960, Note_on_c, 7, 79, 94
23, 170876, Note_off_c, 7, 72, 0
23, 170876, Note_off_c, 7, 76, 0
23, 170876, Note_off_c, 7, 79, 0
23, 170880, Note_on_c, 7, 74, 88
23, 170880, Note_on_c, 7, 79, 93
23, 170880, Note_on_c, 7, 81, 87
23, 174716, Note_off_c, 7, 74, 0
23, 174716, Note_off_c, 7, 79, 0
23, 174716, Note_off_c, 7, 81, 0
23, 174720, Note_on_c, 7, 79, 97
23, 174720, Note_on_c, 7, 83, 97
23, 174957, Note_off_c, 7, 83, 0
23, 174959, Note_off_c, 7, 79, 0
23, 175040, Note_on_c, 7, 79, 94
23, 175040, Note_on_c, 7, 83, 93
23, 175220, Note_off_c, 7, 83, 0
23, 175230, Note_off_c, 7, 79, 0
23, 175360, Note_on_c, 7, 79, 94
23, 175360, Note_on_c, 7, 83, 92
23, 175526, Note_off_c, 7, 83, 0
23, 175540, Note_off_c, 7, 79, 0
23, 175680, Note_on_c, 7, 79, 94
23, 175680, Note_on_c, 7, 83, 91
23, 175857, Note_off_c, 7, 83, 0
23, 175859, Note_off_c, 7, 79, 0
23, 176000, Note_on_c, 7, 79, 94
23, 176000, Note_on_c, 7, 83, 93
23, 176182, Note_off_c, 7, 79, 0
23, 176182, Note_off_c, 7, 83, 0
23, 176320, Note_on_c, 7, 79, 94
23, 176320, Note_on_c, 7, 83, 91
23, 176515, Note_off_c, 7, 83, 0
23, 176520, Note_off_c, 7, 79, 0
23, 176640, Note_on_c, 7, 79, 94
23, 176640, Note_on_c, 7, 83, 92
23, 176918, Note_off_c, 7, 79, 0
23, 176924, Note_off_c, 7, 83, 0
23, 178560, Note_on_c, 7, 67, 77
23, 178560, Note_on_c, 7, 71, 79
23, 178560, Note_on_c, 7, 76, 77
23, 180476, Note_off_c, 7, 67, 0
23, 180476, Note_off_c, 7, 71, 0
23, 180476, Note_off_c, 7, 76, 0
23, 180480, Note_on_c, 7, 66, 71
23, 180480, Note_on_c, 7, 69, 77
23, 180480, Note_on_c, 7, 74, 80
23, 182396, Note_off_c, 7, 66, 0
23, 182396, Note_off_c, 7, 69, 0
23, 182396, Note_off_c, 7, 74, 0
23, 182400, Note_on_c, 7, 62, 80
23, 182400, Note_on_c, 7, 66, 75
23, 182400, Note_on_c, 7, 69, 83
23, 184316, Note_off_c, 7, 66, 0
23, 184316, Note_off_c, 7, 69, 0
23, 184320, Note_on_c, 7, 67, 81
23, 184320, Note_on_c, 7, 71, 84
23, 185276, Note_off_c, 7, 71, 0
23, 185280, Note_on_c, 7, 69, 84
23, 185756, Note_off_c, 7, 69, 0
23, 185760, Note_on_c, 7, 71, 81
23, 186236, Note_off_c, 7, 62, 0
23, 186236, Note_off_c, 7, 67, 0
23, 186236, Note_off_c, 7, 71, 0
23, 186240, Note_on_c, 7, 67, 77
23, 186240, Note_on_c, 7, 71, 79
23, 186240, Note_on_c, 7, 76, 77
23, 188156, Note_off_c, 7, 67, 0
23, 188156, Note_off_c, 7, 71, 0
23, 188156, Note_off_c, 7, 76, 0
23, 188160, Note_on_c, 7, 66, 71
23, 188160, Note_on_c, 7, 69, 77
23, 188160, Note_on_c, 7, 74, 80
23, 191996, Note_off_c, 7, 66, 0
23, 191996, Note_off_c, 7, 69, 0
23, 191996, Note_off_c, 7, 74, 0
23, 192000, Note_on_c, 7, 65, 94
23, 192000, Note_on_c, 7, 69, 95
23, 192000, Note_on_c, 7, 72, 96
23, 192000, Note_on_c, 7, 81, 97
23, 192956, Note_off_c, 7, 65, 0
23, 192956, Note_off_c, 7, 69, 0
23, 192956, Note_off_c, 7, 72, 0
23, 192956, Note_off_c, 7, 81, 0
23, 192960, Note_on_c, 7, 67, 101
23, 192960, Note_on_c, 7, 71, 86
23, 192960, Note_on_c, 7, 74, 94
23, 192960, Note_on_c, 7, 79, 94
23, 193916, Note_off_c, 7, 67, 0
23, 193916, Note_off_c, 7, 71, 0
23, 193916, Note_off_c, 7, 74, 0
23, 193916, Note_off_c, 7, 79, 0
23, 193920, Note_on_c, 7, 67, 77
23, 193920, Note_on_c, 7, 71, 79
23, 193920, Note_on_c, 7, 76, 77
23, 195836, Note_off_c, 7, 67, 0
23, 195836, Note_off_c, 7, 71, 0
23, 195836, Note_off_c, 7, 76, 0
23, 195840, Note_on_c, 7, 66, 71
23, 195840, Note_on_c, 7, 69, 77
23, 195840, Note_on_c, 7, 74, 80
23, 199676, Note_off_c, 7, 66, 0
23, 199676, Note_off_c, 7, 69, 0
23, 199676, Note_off_c, 7, 74, 0
23, 199680, Note_on_c, 7, 62, 96
23, 199680, Note_on_c, 7, 67, 99
23, 199680, Note_on_c, 7, 71, 94
23, 201596, Note_off_c, 7, 62, 0
23, 201596, Note_off_c, 7, 67, 0
23, 201596, Note_off_c, 7, 71, 0
23, 201600, Note_on_c, 7, 60, 78
23, 201600, Note_on_c, 7, 64, 77
23, 201600, Note_on_c, 7, 67, 79
23, 202556, Note_off_c, 7, 60, 0
23, 202556, Note_off_c, 7, 64, 0
23, 202560, Note_on_c, 7, 59, 72
23, 202560, Note_on_c, 7, 62, 79
23, 203516, Note_off_c, 7, 59, 0
23, 203516, Note_off_c, 7, 62, 0
23, 203520, Note_on_c, 7, 60, 77
23, 203520, Note_on_c, 7, 63, 69
23, 204776, Control_c, 7, 7, 126
23, 204840, Control_c, 7, 7, 124
23, 204889, Control_c, 7, 7, 123
23, 204953, Control_c, 7, 7, 121
23, 205031, Control_c, 7, 7, 120
23, 205131, Control_c, 7, 7, 118
23, 205250, Control_c, 7, 7, 117
23, 205490, Control_c, 7, 7, 115
23, 205640, Control_c, 7, 7, 114
23, 205746, Control_c, 7, 7, 112
23, 205826, Control_c, 7, 7, 111
23, 205966, Control_c, 7, 7, 109
23, 206164, Control_c, 7, 7, 108
23, 206306, Control_c, 7, 7, 106
23, 206414, Control_c, 7, 7, 105
23, 206539, Control_c, 7, 7, 103
23, 206649, Control_c, 7, 7, 102
23, 206742, Control_c, 7, 7, 100
23, 206818, Control_c, 7, 7, 99
23, 206879, Control_c, 7, 7, 97
23, 206996, Control_c, 7, 7, 96
23, 207114, Control_c, 7, 7, 94
23, 207219, Control_c, 7, 7, 93
23, 207344, Control_c, 7, 7, 91
23, 207486, Control_c, 7, 7, 90
23, 207622, Control_c, 7, 7, 88
23, 207740, Control_c, 7, 7, 87
23, 207840, Control_c, 7, 7, 85
23, 208002, Control_c, 7, 7, 84
23, 208135, Control_c, 7, 7, 82
23, 208264, Control_c, 7, 7, 81
23, 208353, Control_c, 7, 7, 79
23, 208434, Control_c, 7, 7, 78
23, 208512, Control_c, 7, 7, 76
23, 208599, Control_c, 7, 7, 75
23, 208688, Control_c, 7, 7, 73
23, 208784, Control_c, 7, 7, 72
23, 208874, Control_c, 7, 7, 70
23, 208955, Control_c, 7, 7, 69
23, 209044, Control_c, 7, 7, 67
23, 209124, Control_c, 7, 7, 66
23, 209213, Control_c, 7, 7, 64
23, 209287, Control_c, 7, 7, 63
23, 209357, Control_c, 7, 7, 61
23, 209429, Control_c, 7, 7, 60
23, 209485, Control_c, 7, 7, 58
23, 209534, Control_c, 7, 7, 57
23, 209577, Control_c, 7, 7, 55
23, 209631, Control_c, 7, 7, 54
23, 209668, Control_c, 7, 7, 52
23, 209725, Control_c, 7, 7, 51
23, 209781, Control_c, 7, 7, 49
23, 209838, Control_c, 7, 7, 48
23, 209883, Control_c, 7, 7, 46
23, 209926, Control_c, 7, 7, 45
23, 209966, Control_c, 7, 7, 43
23, 210020, Control_c, 7, 7, 42
23, 210065, Control_c, 7, 7, 40
23, 210114, Control_c, 7, 7, 39
23, 210155, Control_c, 7, 7, 37
23, 210198, Control_c, 7, 7, 36
23, 210244, Control_c, 7, 7, 34
23, 210297, Control_c, 7, 7, 33
23, 210332, Control_c, 7, 7, 31
23, 210370, Control_c, 7, 7, 30
23, 210404, Control_c, 7, 7, 28
23, 210439, Control_c, 7, 7, 27
23, 210482, Control_c, 7, 7, 25
23, 210528, Control_c, 7, 7, 24
23, 210564, Control_c, 7, 7, 22
23, 210594, Control_c, 7, 7, 21
23, 210630, Control_c, 7, 7, 19
23, 210671, Control_c, 7, 7, 17
23, 210706, Control_c, 7, 7, 16
23, 210716, Note_off_c, 7, 60, 0
23, 210716, Note_off_c, 7, 63, 0
23, 210716, Note_off_c, 7, 67, 0
23, 210763, Control_c, 7, 7, 13
23, 210795, Control_c, 7, 7, 11
23, 210839, Control_c, 7, 7, 8
23, 210894, Control_c, 7, 7, 5
23, 210926, Control_c, 7, 7, 4
23, 210959, Control_c, 7, 7, 2
23, 210996, Control_c, 7, 7, 1
23, 212679, Control_c, 7, 7, 10
23, 212709, Control_c, 7, 7, 27
23, 212739, Control_c, 7, 7, 49
23, 212776, Control_c, 7, 7, 79
23, 212813, Control_c, 7, 7, 108
23, 212844, Control_c, 7, 7, 127
23, 222720, Note_on_c, 7, 74, 65
23, 223436, Note_off_c, 7, 74, 0
23, 223440, Note_on_c, 7, 72, 64
23, 223916, Note_off_c, 7, 72, 0
23, 223920, Note_on_c, 7, 70, 62
23, 224501, Note_on_c, 7, 72, 62
23, 224560, Note_on_c, 7, 70, 68
23, 224566, Note_off_c, 7, 72, 0
23, 224636, Note_off_c, 7, 70, 0
23, 224664, Note_on_c, 7, 69, 69
23, 224679, Note_off_c, 7, 70, 0
23, 226629, Control_c, 7, 7, 126
23, 226699, Control_c, 7, 7, 124
23, 226806, Control_c, 7, 7, 123
23, 226941, Control_c, 7, 7, 121
23, 227085, Control_c, 7, 7, 120
23, 227206, Control_c, 7, 7, 118
23, 227307, Control_c, 7, 7, 117
23, 227407, Control_c, 7, 7, 115
23, 227503, Control_c, 7, 7, 114
23, 227614, Control_c, 7, 7, 112
23, 227786, Control_c, 7, 7, 111
23, 227955, Control_c, 7, 7, 109
23, 228066, Control_c, 7, 7, 108
23, 228155, Control_c, 7, 7, 106
23, 228270, Control_c, 7, 7, 105
23, 228352, Control_c, 7, 7, 103
23, 228426, Control_c, 7, 7, 102
23, 228505, Control_c, 7, 7, 100
23, 228587, Control_c, 7, 7, 99
23, 228664, Control_c, 7, 7, 97
23, 228729, Control_c, 7, 7, 96
23, 228793, Control_c, 7, 7, 94
23, 228866, Control_c, 7, 7, 93
23, 228960, Control_c, 7, 7, 91
23, 229077, Control_c, 7, 7, 90
23, 229164, Control_c, 7, 7, 88
23, 229282, Control_c, 7, 7, 87
23, 229414, Control_c, 7, 7, 85
23, 229525, Control_c, 7, 7, 84
23, 229633, Control_c, 7, 7, 82
23, 229719, Control_c, 7, 7, 81
23, 229786, Control_c, 7, 7, 79
23, 229883, Control_c, 7, 7, 78
23, 229978, Control_c, 7, 7, 76
23, 230070, Control_c, 7, 7, 75
23, 230163, Control_c, 7, 7, 73
23, 230248, Control_c, 7, 7, 72
23, 230333, Control_c, 7, 7, 70
23, 230441, Control_c, 7, 7, 69
23, 230555, Control_c, 7, 7, 67
23, 230655, Control_c, 7, 7, 66
23, 230744, Control_c, 7, 7, 64
23, 230820, Control_c, 7, 7, 63
23, 230894, Control_c, 7, 7, 61
23, 230999, Control_c, 7, 7, 60
23, 231087, Control_c, 7, 7, 58
23, 231148, Control_c, 7, 7, 57
23, 231215, Control_c, 7, 7, 55
23, 231273, Control_c, 7, 7, 54
23, 231311, Control_c, 7, 7, 52
23, 231352, Control_c, 7, 7, 51
23, 231401, Control_c, 7, 7, 49
23, 231458, Control_c, 7, 7, 48
23, 231501, Control_c, 7, 7, 46
23, 231541, Control_c, 7, 7, 45
23, 231594, Control_c, 7, 7, 43
23, 231631, Control_c, 7, 7, 42
23, 231691, Control_c, 7, 7, 40
23, 231729, Control_c, 7, 7, 39
23, 231772, Control_c, 7, 7, 37
23, 231831, Control_c, 7, 7, 34
23, 231893, Control_c, 7, 7, 31
23, 231942, Control_c, 7, 7, 28
23, 231973, Control_c, 7, 7, 26
23, 232029, Control_c, 7, 7, 23
23, 232074, Control_c, 7, 7, 20
23, 232104, Control_c, 7, 7, 18
23, 232153, Control_c, 7, 7, 15
23, 232201, Control_c, 7, 7, 12
23, 232233, Control_c, 7, 7, 10
23, 232282, Control_c, 7, 7, 7
23, 232339, Control_c, 7, 7, 4
23, 232369, Note_off_c, 7, 69, 0
23, 232379, Control_c, 7, 7, 1
23, 232453, Control_c, 7, 7, 0
23, 233656, Control_c, 7, 7, 8
23, 233694, Control_c, 7, 7, 40
23, 233725, Control_c, 7, 7, 81
23, 233756, Control_c, 7, 7, 127
23, 236204, Control_c, 7, 7, 127
23, 236204, Control_c, 7, 121, 0
23, 236209, End_track
24, 0, Start_track
24, 865, Control_c, 8, 0, 0
24, 870, Control_c, 8, 32, 0
24, 875, Program_c, 8, 4
24, 880, Control_c, 8, 7, 127
24, 885, Control_c, 8, 10, 34
24, 890, Control_c, 8, 11, 127
24, 895, Control_c, 8, 91, 67
24, 900, Control_c, 8, 93, 20
24, 905, Control_c, 8, 74, 64
24, 910, Control_c, 8, 71, 64
24, 915, Control_c, 8, 73, 64
24, 920, Control_c, 8, 72, 64
24, 925, Control_c, 8, 94, 0
24, 11512, Note_on_c, 8, 62, 91
24, 11541, Note_on_c, 8, 64, 93
24, 11585, Note_off_c, 8, 62, 0
24, 11760, Note_on_c, 8, 67, 90
24, 11763, Note_off_c, 8, 64, 0
24, 11978, Note_off_c, 8, 67, 0
24, 12000, Note_on_c, 8, 69, 86
24, 12217, Note_off_c, 8, 69, 0
24, 12240, Note_on_c, 8, 71, 78
24, 12450, Note_off_c, 8, 71, 0
24, 12480, Note_on_c, 8, 74, 91
24, 12480, Note_on_c, 8, 79, 87
24, 12699, Note_off_c, 8, 74, 0
24, 12720, Note_on_c, 8, 76, 85
24, 12739, Note_off_c, 8, 79, 0
24, 12805, Note_off_c, 8, 76, 0
24, 12960, Note_on_c, 8, 70, 85
24, 12960, Note_on_c, 8, 74, 91
24, 13080, Note_on_c, 8, 69, 79
24, 13095, Note_off_c, 8, 70, 0
24, 13171, Note_off_c, 8, 69, 0
24, 13200, Note_on_c, 8, 67, 73
24, 13292, Note_off_c, 8, 67, 0
24, 13307, Note_off_c, 8, 74, 0
24, 78712, Note_on_c, 8, 62, 91
24, 78741, Note_on_c, 8, 64, 93
24, 78785, Note_off_c, 8, 62, 0
24, 78960, Note_on_c, 8, 67, 90
24, 78963, Note_off_c, 8, 64, 0
24, 79178, Note_off_c, 8, 67, 0
24, 79200, Note_on_c, 8, 69, 86
24, 79417, Note_off_c, 8, 69, 0
24, 79440, Note_on_c, 8, 71, 78
24, 79650, Note_off_c, 8, 71, 0
24, 79680, Note_on_c, 8, 74, 91
24, 79680, Note_on_c, 8, 79, 87
24, 79899, Note_off_c, 8, 74, 0
24, 79920, Note_on_c, 8, 76, 85
24, 79939, Note_off_c, 8, 79, 0
24, 80005, Note_off_c, 8, 76, 0
24, 80160, Note_on_c, 8, 70, 85
24, 80160, Note_on_c, 8, 74, 91
24, 80280, Note_on_c, 8, 69, 79
24, 80295, Note_off_c, 8, 70, 0
24, 80371, Note_off_c, 8, 69, 0
24, 80400, Note_on_c, 8, 67, 73
24, 80492, Note_off_c, 8, 67, 0
24, 80507, Note_off_c, 8, 74, 0
24, 153592, Note_on_c, 8, 62, 91
24, 153621, Note_on_c, 8, 64, 93
24, 153665, Note_off_c, 8, 62, 0
24, 153840, Note_on_c, 8, 67, 90
24, 153843, Note_off_c, 8, 64, 0
24, 154058, Note_off_c, 8, 67, 0
24, 154080, Note_on_c, 8, 69, 86
24, 154297, Note_off_c, 8, 69, 0
24, 154320, Note_on_c, 8, 71, 78
24, 154530, Note_off_c, 8, 71, 0
24, 154560, Note_on_c, 8, 74, 91
24, 154560, Note_on_c, 8, 79, 87
24, 154779, Note_off_c, 8, 74, 0
24, 154800, Note_on_c, 8, 76, 85
24, 154819, Note_off_c, 8, 79, 0
24, 154885, Note_off_c, 8, 76, 0
24, 155040, Note_on_c, 8, 70, 85
24, 155040, Note_on_c, 8, 74, 91
24, 155160, Note_on_c, 8, 69, 79
24, 155175, Note_off_c, 8, 70, 0
24, 155251, Note_off_c, 8, 69, 0
24, 155280, Note_on_c, 8, 67, 73
24, 155372, Note_off_c, 8, 67, 0
24, 155387, Note_off_c, 8, 74, 0
24, 236204, Control_c, 8, 7, 127
24, 236204, Control_c, 8, 121, 0
24, 236209, End_track
25, 0, Start_track
25, 0, Note_on_c, 9, 42, 110
25, 85, Note_off_c, 9, 42, 63
25, 480, Note_on_c, 9, 42, 90
25, 565, Note_off_c, 9, 42, 53
25, 935, Control_c, 9, 0, 127
25, 940, Control_c, 9, 32, 0
25, 945, Program_c, 9, 0
25, 950, Control_c, 9, 7, 127
25, 955, Control_c, 9, 10, 64
25, 960, Note_on_c, 9, 42, 90
25, 960, Control_c, 9, 11, 127
25, 965, Control_c, 9, 91, 67
25, 970, Control_c, 9, 93, 0
25, 975, Control_c, 9, 74, 64
25, 980, Control_c, 9, 71, 64
25, 985, Control_c, 9, 73, 64
25, 990, Control_c, 9, 72, 64
25, 995, Control_c, 9, 94, 0
25, 1045, Note_off_c, 9, 42, 51
25, 1440, Note_on_c, 9, 42, 90
25, 1440, Control_c, 9, 99, 29
25, 1445, Control_c, 9, 98, 38
25, 1450, Control_c, 9, 6, 100
25, 1455, Control_c, 9, 99, 29
25, 1460, Control_c, 9, 98, 40
25, 1465, Control_c, 9, 6, 80
25, 1470, Control_c, 9, 99, 29
25, 1475, Control_c, 9, 98, 35
25, 1480, Control_c, 9, 6, 0
25, 1485, Control_c, 9, 99, 29
25, 1490, Control_c, 9, 98, 36
25, 1495, Control_c, 9, 6, 0
25, 1525, Note_off_c, 9, 42, 51
25, 18240, Note_on_c, 9, 42, 111
25, 18333, Note_off_c, 9, 42, 0
25, 20160, Note_on_c, 9, 42, 107
25, 20160, Note_on_c, 9, 54, 104
25, 20254, Note_off_c, 9, 54, 0
25, 20264, Note_off_c, 9, 42, 0
25, 22080, Note_on_c, 9, 42, 111
25, 22173, Note_off_c, 9, 42, 0
25, 24000, Note_on_c, 9, 42, 107
25, 24000, Note_on_c, 9, 54, 104
25, 24094, Note_off_c, 9, 54, 0
25, 24104, Note_off_c, 9, 42, 0
25, 25920, Note_on_c, 9, 42, 111
25, 26013, Note_off_c, 9, 42, 0
25, 27840, Note_on_c, 9, 42, 107
25, 27840, Note_on_c, 9, 54, 104
25, 27934, Note_off_c, 9, 54, 0
25, 27944, Note_off_c, 9, 42, 0
25, 29760, Note_on_c, 9, 42, 111
25, 29853, Note_off_c, 9, 42, 0
25, 31680, Note_on_c, 9, 42, 107
25, 31680, Note_on_c, 9, 54, 104
25, 31774, Note_off_c, 9, 54, 0
25, 31784, Note_off_c, 9, 42, 0
25, 33600, Note_on_c, 9, 42, 111
25, 33693, Note_off_c, 9, 42, 0
25, 35520, Note_on_c, 9, 42, 107
25, 35520, Note_on_c, 9, 54, 104
25, 35614, Note_off_c, 9, 54, 0
25, 35624, Note_off_c, 9, 42, 0
25, 37440, Note_on_c, 9, 42, 111
25, 37533, Note_off_c, 9, 42, 0
25, 39360, Note_on_c, 9, 42, 107
25, 39360, Note_on_c, 9, 54, 104
25, 39454, Note_off_c, 9, 54, 0
25, 39464, Note_off_c, 9, 42, 0
25, 41280, Note_on_c, 9, 42, 111
25, 41373, Note_off_c, 9, 42, 0
25, 43200, Note_on_c, 9, 42, 107
25, 43200, Note_on_c, 9, 54, 104
25, 43294, Note_off_c, 9, 54, 0
25, 43304, Note_off_c, 9, 42, 0
25, 45120, Note_on_c, 9, 42, 111
25, 45213, Note_off_c, 9, 42, 0
25, 47040, Note_on_c, 9, 42, 107
25, 47040, Note_on_c, 9, 47, 116
25, 47040, Note_on_c, 9, 54, 104
25, 47134, Note_off_c, 9, 54, 0
25, 47144, Note_off_c, 9, 42, 0
25, 47171, Note_off_c, 9, 47, 0
25, 47400, Note_on_c, 9, 43, 116
25, 47509, Note_off_c, 9, 43, 0
25, 47760, Note_on_c, 9, 41, 116
25, 47927, Note_off_c, 9, 41, 0
25, 48000, Note_on_c, 9, 36, 111
25, 48000, Note_on_c, 9, 42, 107
25, 48000, Note_on_c, 9, 49, 98
25, 48054, Note_off_c, 9, 49, 0
25, 48129, Note_off_c, 9, 42, 0
25, 48151, Note_off_c, 9, 36, 0
25, 48240, Note_on_c, 9, 42, 79
25, 48309, Note_off_c, 9, 42, 0
25, 48480, Note_on_c, 9, 42, 104
25, 48588, Note_off_c, 9, 42, 0
25, 48720, Note_on_c, 9, 42, 70
25, 48776, Note_off_c, 9, 42, 0
25, 48960, Note_on_c, 9, 37, 111
25, 48960, Note_on_c, 9, 42, 104
25, 49075, Note_off_c, 9, 42, 0
25, 49121, Note_off_c, 9, 37, 0
25, 49200, Note_on_c, 9, 42, 63
25, 49256, Note_off_c, 9, 42, 0
25, 49440, Note_on_c, 9, 42, 107
25, 49544, Note_off_c, 9, 42, 0
25, 49680, Note_on_c, 9, 36, 116
25, 49680, Note_on_c, 9, 42, 59
25, 49720, Note_off_c, 9, 42, 0
25, 49768, Note_off_c, 9, 36, 0
25, 49920, Note_on_c, 9, 36, 116
25, 49920, Note_on_c, 9, 42, 100
25, 50029, Note_off_c, 9, 42, 0
25, 50048, Note_off_c, 9, 36, 0
25, 50160, Note_on_c, 9, 42, 54
25, 50200, Note_off_c, 9, 42, 0
25, 50400, Note_on_c, 9, 42, 104
25, 50505, Note_off_c, 9, 42, 0
25, 50640, Note_on_c, 9, 42, 62
25, 50706, Note_off_c, 9, 42, 0
25, 50880, Note_on_c, 9, 38, 116
25, 50880, Note_on_c, 9, 42, 100
25, 50880, Note_on_c, 9, 54, 111
25, 50880, Note_on_c, 9, 80, 61
25, 50932, Note_off_c, 9, 80, 0
25, 50992, Note_off_c, 9, 42, 0
25, 51006, Note_off_c, 9, 54, 0
25, 51024, Note_off_c, 9, 38, 0
25, 51120, Note_on_c, 9, 42, 62
25, 51120, Note_on_c, 9, 80, 78
25, 51179, Note_off_c, 9, 42, 0
25, 51187, Note_off_c, 9, 80, 0
25, 51360, Note_on_c, 9, 46, 116
25, 51360, Note_on_c, 9, 81, 87
25, 51428, Note_off_c, 9, 81, 0
25, 51466, Note_off_c, 9, 46, 0
25, 51840, Note_on_c, 9, 36, 111
25, 51840, Note_on_c, 9, 42, 107
25, 51969, Note_off_c, 9, 42, 0
25, 51991, Note_off_c, 9, 36, 0
25, 52080, Note_on_c, 9, 42, 79
25, 52149, Note_off_c, 9, 42, 0
25, 52320, Note_on_c, 9, 42, 104
25, 52428, Note_off_c, 9, 42, 0
25, 52560, Note_on_c, 9, 42, 70
25, 52616, Note_off_c, 9, 42, 0
25, 52800, Note_on_c, 9, 37, 111
25, 52800, Note_on_c, 9, 42, 104
25, 52915, Note_off_c, 9, 42, 0
25, 52961, Note_off_c, 9, 37, 0
25, 53040, Note_on_c, 9, 42, 63
25, 53096, Note_off_c, 9, 42, 0
25, 53280, Note_on_c, 9, 42, 107
25, 53384, Note_off_c, 9, 42, 0
25, 53520, Note_on_c, 9, 36, 116
25, 53520, Note_on_c, 9, 42, 59
25, 53560, Note_off_c, 9, 42, 0
25, 53608, Note_off_c, 9, 36, 0
25, 53760, Note_on_c, 9, 36, 116
25, 53760, Note_on_c, 9, 42, 100
25, 53869, Note_off_c, 9, 42, 0
25, 53888, Note_off_c, 9, 36, 0
25, 54000, Note_on_c, 9, 42, 54
25, 54040, Note_off_c, 9, 42, 0
25, 54240, Note_on_c, 9, 46, 116
25, 54345, Note_off_c, 9, 46, 0
25, 54720, Note_on_c, 9, 36, 116
25, 54720, Note_on_c, 9, 38, 104
25, 54720, Note_on_c, 9, 54, 111
25, 54839, Note_off_c, 9, 38, 0
25, 54846, Note_off_c, 9, 54, 0
25, 54904, Note_off_c, 9, 36, 0
25, 55080, Note_on_c, 9, 36, 121
25, 55225, Note_off_c, 9, 36, 0
25, 55440, Note_on_c, 9, 36, 121
25, 55440, Note_on_c, 9, 46, 100
25, 55511, Note_off_c, 9, 46, 0
25, 55597, Note_off_c, 9, 36, 0
25, 55680, Note_on_c, 9, 36, 111
25, 55680, Note_on_c, 9, 42, 107
25, 55680, Note_on_c, 9, 49, 98
25, 55734, Note_off_c, 9, 49, 0
25, 55809, Note_off_c, 9, 42, 0
25, 55831, Note_off_c, 9, 36, 0
25, 55920, Note_on_c, 9, 42, 79
25, 55989, Note_off_c, 9, 42, 0
25, 56160, Note_on_c, 9, 42, 104
25, 56268, Note_off_c, 9, 42, 0
25, 56400, Note_on_c, 9, 42, 70
25, 56456, Note_off_c, 9, 42, 0
25, 56640, Note_on_c, 9, 37, 111
25, 56640, Note_on_c, 9, 42, 104
25, 56755, Note_off_c, 9, 42, 0
25, 56801, Note_off_c, 9, 37, 0
25, 56880, Note_on_c, 9, 42, 63
25, 56936, Note_off_c, 9, 42, 0
25, 57120, Note_on_c, 9, 42, 107
25, 57224, Note_off_c, 9, 42, 0
25, 57360, Note_on_c, 9, 36, 116
25, 57360, Note_on_c, 9, 42, 59
25, 57400, Note_off_c, 9, 42, 0
25, 57448, Note_off_c, 9, 36, 0
25, 57600, Note_on_c, 9, 36, 116
25, 57600, Note_on_c, 9, 42, 100
25, 57709, Note_off_c, 9, 42, 0
25, 57728, Note_off_c, 9, 36, 0
25, 57840, Note_on_c, 9, 42, 54
25, 57880, Note_off_c, 9, 42, 0
25, 58080, Note_on_c, 9, 42, 104
25, 58185, Note_off_c, 9, 42, 0
25, 58320, Note_on_c, 9, 42, 62
25, 58386, Note_off_c, 9, 42, 0
25, 58560, Note_on_c, 9, 38, 116
25, 58560, Note_on_c, 9, 42, 100
25, 58560, Note_on_c, 9, 54, 111
25, 58560, Note_on_c, 9, 80, 61
25, 58612, Note_off_c, 9, 80, 0
25, 58672, Note_off_c, 9, 42, 0
25, 58686, Note_off_c, 9, 54, 0
25, 58704, Note_off_c, 9, 38, 0
25, 58800, Note_on_c, 9, 42, 62
25, 58800, Note_on_c, 9, 80, 78
25, 58859, Note_off_c, 9, 42, 0
25, 58867, Note_off_c, 9, 80, 0
25, 59040, Note_on_c, 9, 46, 116
25, 59040, Note_on_c, 9, 81, 87
25, 59108, Note_off_c, 9, 81, 0
25, 59146, Note_off_c, 9, 46, 0
25, 59520, Note_on_c, 9, 36, 111
25, 59520, Note_on_c, 9, 42, 107
25, 59649, Note_off_c, 9, 42, 0
25, 59671, Note_off_c, 9, 36, 0
25, 59760, Note_on_c, 9, 42, 79
25, 59829, Note_off_c, 9, 42, 0
25, 60000, Note_on_c, 9, 42, 104
25, 60108, Note_off_c, 9, 42, 0
25, 60240, Note_on_c, 9, 42, 70
25, 60296, Note_off_c, 9, 42, 0
25, 60480, Note_on_c, 9, 37, 111
25, 60480, Note_on_c, 9, 42, 104
25, 60595, Note_off_c, 9, 42, 0
25, 60641, Note_off_c, 9, 37, 0
25, 60720, Note_on_c, 9, 42, 63
25, 60776, Note_off_c, 9, 42, 0
25, 60960, Note_on_c, 9, 42, 107
25, 61064, Note_off_c, 9, 42, 0
25, 61200, Note_on_c, 9, 36, 116
25, 61200, Note_on_c, 9, 42, 59
25, 61240, Note_off_c, 9, 42, 0
25, 61288, Note_off_c, 9, 36, 0
25, 61440, Note_on_c, 9, 36, 116
25, 61440, Note_on_c, 9, 42, 100
25, 61549, Note_off_c, 9, 42, 0
25, 61568, Note_off_c, 9, 36, 0
25, 61680, Note_on_c, 9, 42, 54
25, 61720, Note_off_c, 9, 42, 0
25, 61920, Note_on_c, 9, 46, 116
25, 62025, Note_off_c, 9, 46, 0
25, 62400, Note_on_c, 9, 36, 116
25, 62400, Note_on_c, 9, 38, 104
25, 62400, Note_on_c, 9, 54, 111
25, 62519, Note_off_c, 9, 38, 0
25, 62526, Note_off_c, 9, 54, 0
25, 62584, Note_off_c, 9, 36, 0
25, 62760, Note_on_c, 9, 36, 121
25, 62905, Note_off_c, 9, 36, 0
25, 63120, Note_on_c, 9, 36, 121
25, 63120, Note_on_c, 9, 46, 100
25, 63191, Note_off_c, 9, 46, 0
25, 63277, Note_off_c, 9, 36, 0
25, 63360, Note_on_c, 9, 36, 111
25, 63360, Note_on_c, 9, 42, 107
25, 63360, Note_on_c, 9, 49, 98
25, 63414, Note_off_c, 9, 49, 0
25, 63489, Note_off_c, 9, 42, 0
25, 63511, Note_off_c, 9, 36, 0
25, 63600, Note_on_c, 9, 42, 79
25, 63669, Note_off_c, 9, 42, 0
25, 63840, Note_on_c, 9, 42, 104
25, 63948, Note_off_c, 9, 42, 0
25, 64080, Note_on_c, 9, 42, 70
25, 64136, Note_off_c, 9, 42, 0
25, 64320, Note_on_c, 9, 37, 111
25, 64320, Note_on_c, 9, 42, 104
25, 64435, Note_off_c, 9, 42, 0
25, 64481, Note_off_c, 9, 37, 0
25, 64560, Note_on_c, 9, 42, 63
25, 64616, Note_off_c, 9, 42, 0
25, 64800, Note_on_c, 9, 42, 107
25, 64904, Note_off_c, 9, 42, 0
25, 65040, Note_on_c, 9, 36, 116
25, 65040, Note_on_c, 9, 42, 59
25, 65080, Note_off_c, 9, 42, 0
25, 65128, Note_off_c, 9, 36, 0
25, 65280, Note_on_c, 9, 36, 116
25, 65280, Note_on_c, 9, 42, 100
25, 65389, Note_off_c, 9, 42, 0
25, 65408, Note_off_c, 9, 36, 0
25, 65520, Note_on_c, 9, 42, 54
25, 65560, Note_off_c, 9, 42, 0
25, 65760, Note_on_c, 9, 42, 104
25, 65865, Note_off_c, 9, 42, 0
25, 66000, Note_on_c, 9, 42, 62
25, 66066, Note_off_c, 9, 42, 0
25, 66240, Note_on_c, 9, 38, 116
25, 66240, Note_on_c, 9, 42, 100
25, 66240, Note_on_c, 9, 54, 111
25, 66240, Note_on_c, 9, 80, 61
25, 66292, Note_off_c, 9, 80, 0
25, 66352, Note_off_c, 9, 42, 0
25, 66366, Note_off_c, 9, 54, 0
25, 66384, Note_off_c, 9, 38, 0
25, 66480, Note_on_c, 9, 42, 62
25, 66480, Note_on_c, 9, 80, 78
25, 66539, Note_off_c, 9, 42, 0
25, 66547, Note_off_c, 9, 80, 0
25, 66720, Note_on_c, 9, 46, 116
25, 66720, Note_on_c, 9, 81, 87
25, 66788, Note_off_c, 9, 81, 0
25, 66826, Note_off_c, 9, 46, 0
25, 67200, Note_on_c, 9, 36, 111
25, 67200, Note_on_c, 9, 42, 107
25, 67200, Note_on_c, 9, 49, 98
25, 67254, Note_off_c, 9, 49, 0
25, 67329, Note_off_c, 9, 42, 0
25, 67351, Note_off_c, 9, 36, 0
25, 67440, Note_on_c, 9, 42, 79
25, 67509, Note_off_c, 9, 42, 0
25, 67680, Note_on_c, 9, 42, 104
25, 67788, Note_off_c, 9, 42, 0
25, 67920, Note_on_c, 9, 42, 70
25, 67976, Note_off_c, 9, 42, 0
25, 68160, Note_on_c, 9, 37, 111
25, 68160, Note_on_c, 9, 42, 104
25, 68275, Note_off_c, 9, 42, 0
25, 68321, Note_off_c, 9, 37, 0
25, 68400, Note_on_c, 9, 42, 63
25, 68456, Note_off_c, 9, 42, 0
25, 68640, Note_on_c, 9, 42, 107
25, 68744, Note_off_c, 9, 42, 0
25, 68880, Note_on_c, 9, 36, 116
25, 68880, Note_on_c, 9, 42, 59
25, 68920, Note_off_c, 9, 42, 0
25, 68968, Note_off_c, 9, 36, 0
25, 69120, Note_on_c, 9, 36, 116
25, 69120, Note_on_c, 9, 42, 100
25, 69229, Note_off_c, 9, 42, 0
25, 69248, Note_off_c, 9, 36, 0
25, 69360, Note_on_c, 9, 42, 54
25, 69400, Note_off_c, 9, 42, 0
25, 69600, Note_on_c, 9, 46, 107
25, 69705, Note_off_c, 9, 46, 0
25, 70080, Note_on_c, 9, 38, 116
25, 70080, Note_on_c, 9, 42, 100
25, 70080, Note_on_c, 9, 54, 111
25, 70080, Note_on_c, 9, 80, 61
25, 70132, Note_off_c, 9, 80, 0
25, 70192, Note_off_c, 9, 42, 0
25, 70206, Note_off_c, 9, 54, 0
25, 70224, Note_off_c, 9, 38, 0
25, 70320, Note_on_c, 9, 42, 62
25, 70320, Note_on_c, 9, 80, 78
25, 70379, Note_off_c, 9, 42, 0
25, 70387, Note_off_c, 9, 80, 0
25, 70560, Note_on_c, 9, 42, 107
25, 70560, Note_on_c, 9, 81, 87
25, 70628, Note_off_c, 9, 81, 0
25, 70689, Note_off_c, 9, 42, 0
25, 70800, Note_on_c, 9, 42, 79
25, 70869, Note_off_c, 9, 42, 0
25, 71040, Note_on_c, 9, 36, 92
25, 71040, Note_on_c, 9, 42, 74
25, 71040, Note_on_c, 9, 55, 94
25, 71152, Note_off_c, 9, 55, 0
25, 71192, Note_off_c, 9, 36, 0
25, 71204, Note_off_c, 9, 42, 0
25, 71280, Note_on_c, 9, 42, 67
25, 71394, Note_off_c, 9, 42, 0
25, 72000, Note_on_c, 9, 36, 100
25, 72000, Note_on_c, 9, 51, 87
25, 72111, Note_off_c, 9, 51, 0
25, 72136, Note_off_c, 9, 36, 0
25, 72960, Note_on_c, 9, 36, 104
25, 72960, Note_on_c, 9, 51, 81
25, 73049, Note_off_c, 9, 51, 0
25, 73083, Note_off_c, 9, 36, 0
25, 77760, Note_on_c, 9, 42, 111
25, 77853, Note_off_c, 9, 42, 0
25, 79680, Note_on_c, 9, 42, 107
25, 79680, Note_on_c, 9, 54, 104
25, 79680, Note_on_c, 9, 80, 44
25, 79749, Note_off_c, 9, 80, 0
25, 79774, Note_off_c, 9, 54, 0
25, 79784, Note_off_c, 9, 42, 0
25, 79920, Note_on_c, 9, 80, 68
25, 80007, Note_off_c, 9, 80, 0
25, 80160, Note_on_c, 9, 81, 92
25, 80244, Note_off_c, 9, 81, 0
25, 81600, Note_on_c, 9, 42, 111
25, 81693, Note_off_c, 9, 42, 0
25, 83280, Note_on_c, 9, 41, 56
25, 83364, Note_off_c, 9, 41, 0
25, 83520, Note_on_c, 9, 41, 111
25, 83520, Note_on_c, 9, 42, 107
25, 83520, Note_on_c, 9, 54, 104
25, 83520, Note_on_c, 9, 80, 44
25, 83589, Note_off_c, 9, 80, 0
25, 83614, Note_off_c, 9, 54, 0
25, 83624, Note_off_c, 9, 42, 0
25, 83760, Note_on_c, 9, 80, 68
25, 83798, Note_off_c, 9, 41, 0
25, 83847, Note_off_c, 9, 80, 0
25, 84000, Note_on_c, 9, 81, 92
25, 84084, Note_off_c, 9, 81, 0
25, 84480, Note_on_c, 9, 36, 111
25, 84480, Note_on_c, 9, 42, 107
25, 84609, Note_off_c, 9, 42, 0
25, 84631, Note_off_c, 9, 36, 0
25, 84720, Note_on_c, 9, 42, 79
25, 84789, Note_off_c, 9, 42, 0
25, 84960, Note_on_c, 9, 42, 104
25, 85068, Note_off_c, 9, 42, 0
25, 85200, Note_on_c, 9, 42, 70
25, 85256, Note_off_c, 9, 42, 0
25, 85440, Note_on_c, 9, 37, 111
25, 85440, Note_on_c, 9, 42, 104
25, 85555, Note_off_c, 9, 42, 0
25, 85601, Note_off_c, 9, 37, 0
25, 85680, Note_on_c, 9, 42, 63
25, 85736, Note_off_c, 9, 42, 0
25, 85920, Note_on_c, 9, 42, 107
25, 86024, Note_off_c, 9, 42, 0
25, 86160, Note_on_c, 9, 36, 116
25, 86160, Note_on_c, 9, 42, 59
25, 86200, Note_off_c, 9, 42, 0
25, 86248, Note_off_c, 9, 36, 0
25, 86400, Note_on_c, 9, 36, 116
25, 86400, Note_on_c, 9, 42, 100
25, 86509, Note_off_c, 9, 42, 0
25, 86528, Note_off_c, 9, 36, 0
25, 86640, Note_on_c, 9, 42, 54
25, 86680, Note_off_c, 9, 42, 0
25, 86880, Note_on_c, 9, 42, 104
25, 86985, Note_off_c, 9, 42, 0
25, 87120, Note_on_c, 9, 42, 62
25, 87186, Note_off_c, 9, 42, 0
25, 87360, Note_on_c, 9, 37, 116
25, 87360, Note_on_c, 9, 42, 100
25, 87360, Note_on_c, 9, 54, 111
25, 87360, Note_on_c, 9, 80, 44
25, 87429, Note_off_c, 9, 80, 0
25, 87472, Note_off_c, 9, 42, 0
25, 87486, Note_off_c, 9, 54, 0
25, 87504, Note_off_c, 9, 37, 0
25, 87600, Note_on_c, 9, 42, 62
25, 87600, Note_on_c, 9, 80, 68
25, 87659, Note_off_c, 9, 42, 0
25, 87687, Note_off_c, 9, 80, 0
25, 87840, Note_on_c, 9, 42, 89
25, 87840, Note_on_c, 9, 81, 92
25, 87924, Note_off_c, 9, 81, 0
25, 87933, Note_off_c, 9, 42, 0
25, 88080, Note_on_c, 9, 46, 89
25, 88173, Note_off_c, 9, 46, 0
25, 88320, Note_on_c, 9, 36, 111
25, 88320, Note_on_c, 9, 42, 107
25, 88449, Note_off_c, 9, 42, 0
25, 88471, Note_off_c, 9, 36, 0
25, 88560, Note_on_c, 9, 42, 79
25, 88629, Note_off_c, 9, 42, 0
25, 88800, Note_on_c, 9, 42, 104
25, 88908, Note_off_c, 9, 42, 0
25, 89040, Note_on_c, 9, 42, 70
25, 89096, Note_off_c, 9, 42, 0
25, 89280, Note_on_c, 9, 37, 111
25, 89280, Note_on_c, 9, 42, 104
25, 89395, Note_off_c, 9, 42, 0
25, 89441, Note_off_c, 9, 37, 0
25, 89520, Note_on_c, 9, 42, 63
25, 89576, Note_off_c, 9, 42, 0
25, 89760, Note_on_c, 9, 42, 107
25, 89864, Note_off_c, 9, 42, 0
25, 90000, Note_on_c, 9, 36, 116
25, 90000, Note_on_c, 9, 42, 59
25, 90040, Note_off_c, 9, 42, 0
25, 90088, Note_off_c, 9, 36, 0
25, 90240, Note_on_c, 9, 36, 116
25, 90240, Note_on_c, 9, 42, 100
25, 90349, Note_off_c, 9, 42, 0
25, 90368, Note_off_c, 9, 36, 0
25, 90480, Note_on_c, 9, 42, 54
25, 90520, Note_off_c, 9, 42, 0
25, 90720, Note_on_c, 9, 42, 104
25, 90825, Note_off_c, 9, 42, 0
25, 90960, Note_on_c, 9, 42, 62
25, 91026, Note_off_c, 9, 42, 0
25, 91200, Note_on_c, 9, 37, 116
25, 91200, Note_on_c, 9, 42, 100
25, 91200, Note_on_c, 9, 54, 111
25, 91200, Note_on_c, 9, 80, 44
25, 91269, Note_off_c, 9, 80, 0
25, 91312, Note_off_c, 9, 42, 0
25, 91326, Note_off_c, 9, 54, 0
25, 91344, Note_off_c, 9, 37, 0
25, 91440, Note_on_c, 9, 42, 62
25, 91440, Note_on_c, 9, 80, 68
25, 91499, Note_off_c, 9, 42, 0
25, 91527, Note_off_c, 9, 80, 0
25, 91680, Note_on_c, 9, 42, 89
25, 91680, Note_on_c, 9, 81, 92
25, 91764, Note_off_c, 9, 81, 0
25, 91773, Note_off_c, 9, 42, 0
25, 91920, Note_on_c, 9, 42, 104
25, 92013, Note_off_c, 9, 42, 0
25, 92160, Note_on_c, 9, 36, 111
25, 92160, Note_on_c, 9, 42, 107
25, 92289, Note_off_c, 9, 42, 0
25, 92311, Note_off_c, 9, 36, 0
25, 92400, Note_on_c, 9, 42, 79
25, 92469, Note_off_c, 9, 42, 0
25, 92640, Note_on_c, 9, 42, 104
25, 92748, Note_off_c, 9, 42, 0
25, 92880, Note_on_c, 9, 42, 70
25, 92936, Note_off_c, 9, 42, 0
25, 93120, Note_on_c, 9, 37, 111
25, 93120, Note_on_c, 9, 42, 104
25, 93235, Note_off_c, 9, 42, 0
25, 93281, Note_off_c, 9, 37, 0
25, 93360, Note_on_c, 9, 42, 63
25, 93416, Note_off_c, 9, 42, 0
25, 93600, Note_on_c, 9, 42, 107
25, 93704, Note_off_c, 9, 42, 0
25, 93840, Note_on_c, 9, 36, 116
25, 93840, Note_on_c, 9, 42, 59
25, 93880, Note_off_c, 9, 42, 0
25, 93928, Note_off_c, 9, 36, 0
25, 94080, Note_on_c, 9, 36, 116
25, 94080, Note_on_c, 9, 42, 100
25, 94189, Note_off_c, 9, 42, 0
25, 94208, Note_off_c, 9, 36, 0
25, 94320, Note_on_c, 9, 42, 54
25, 94360, Note_off_c, 9, 42, 0
25, 94560, Note_on_c, 9, 42, 104
25, 94665, Note_off_c, 9, 42, 0
25, 94800, Note_on_c, 9, 42, 62
25, 94866, Note_off_c, 9, 42, 0
25, 95040, Note_on_c, 9, 37, 116
25, 95040, Note_on_c, 9, 42, 100
25, 95040, Note_on_c, 9, 54, 111
25, 95040, Note_on_c, 9, 80, 44
25, 95109, Note_off_c, 9, 80, 0
25, 95152, Note_off_c, 9, 42, 0
25, 95166, Note_off_c, 9, 54, 0
25, 95184, Note_off_c, 9, 37, 0
25, 95280, Note_on_c, 9, 42, 62
25, 95280, Note_on_c, 9, 80, 68
25, 95339, Note_off_c, 9, 42, 0
25, 95367, Note_off_c, 9, 80, 0
25, 95520, Note_on_c, 9, 42, 89
25, 95520, Note_on_c, 9, 81, 92
25, 95604, Note_off_c, 9, 81, 0
25, 95613, Note_off_c, 9, 42, 0
25, 95760, Note_on_c, 9, 46, 89
25, 95853, Note_off_c, 9, 46, 0
25, 96000, Note_on_c, 9, 36, 111
25, 96000, Note_on_c, 9, 42, 107
25, 96129, Note_off_c, 9, 42, 0
25, 96151, Note_off_c, 9, 36, 0
25, 96240, Note_on_c, 9, 42, 79
25, 96309, Note_off_c, 9, 42, 0
25, 96480, Note_on_c, 9, 42, 104
25, 96588, Note_off_c, 9, 42, 0
25, 96720, Note_on_c, 9, 42, 70
25, 96776, Note_off_c, 9, 42, 0
25, 96960, Note_on_c, 9, 37, 111
25, 96960, Note_on_c, 9, 42, 104
25, 97075, Note_off_c, 9, 42, 0
25, 97121, Note_off_c, 9, 37, 0
25, 97200, Note_on_c, 9, 42, 63
25, 97256, Note_off_c, 9, 42, 0
25, 97440, Note_on_c, 9, 42, 107
25, 97544, Note_off_c, 9, 42, 0
25, 97680, Note_on_c, 9, 36, 116
25, 97680, Note_on_c, 9, 42, 59
25, 97720, Note_off_c, 9, 42, 0
25, 97768, Note_off_c, 9, 36, 0
25, 97920, Note_on_c, 9, 36, 116
25, 97920, Note_on_c, 9, 42, 100
25, 98029, Note_off_c, 9, 42, 0
25, 98048, Note_off_c, 9, 36, 0
25, 98160, Note_on_c, 9, 42, 54
25, 98200, Note_off_c, 9, 42, 0
25, 98400, Note_on_c, 9, 46, 111
25, 98505, Note_off_c, 9, 46, 0
25, 98880, Note_on_c, 9, 37, 116
25, 98880, Note_on_c, 9, 45, 92
25, 98880, Note_on_c, 9, 54, 111
25, 98880, Note_on_c, 9, 80, 44
25, 98949, Note_off_c, 9, 80, 0
25, 98969, Note_off_c, 9, 45, 0
25, 99006, Note_off_c, 9, 54, 0
25, 99024, Note_off_c, 9, 37, 0
25, 99120, Note_on_c, 9, 43, 76
25, 99120, Note_on_c, 9, 80, 68
25, 99190, Note_off_c, 9, 43, 0
25, 99207, Note_off_c, 9, 80, 0
25, 99360, Note_on_c, 9, 41, 85
25, 99360, Note_on_c, 9, 81, 92
25, 99444, Note_off_c, 9, 81, 0
25, 99450, Note_off_c, 9, 41, 0
25, 99840, Note_on_c, 9, 36, 111
25, 99840, Note_on_c, 9, 42, 107
25, 99969, Note_off_c, 9, 42, 0
25, 99991, Note_off_c, 9, 36, 0
25, 100080, Note_on_c, 9, 42, 79
25, 100149, Note_off_c, 9, 42, 0
25, 100320, Note_on_c, 9, 42, 104
25, 100428, Note_off_c, 9, 42, 0
25, 100560, Note_on_c, 9, 42, 70
25, 100616, Note_off_c, 9, 42, 0
25, 100800, Note_on_c, 9, 37, 111
25, 100800, Note_on_c, 9, 42, 104
25, 100915, Note_off_c, 9, 42, 0
25, 100961, Note_off_c, 9, 37, 0
25, 101040, Note_on_c, 9, 42, 63
25, 101096, Note_off_c, 9, 42, 0
25, 101280, Note_on_c, 9, 42, 107
25, 101384, Note_off_c, 9, 42, 0
25, 101520, Note_on_c, 9, 36, 116
25, 101520, Note_on_c, 9, 42, 59
25, 101560, Note_off_c, 9, 42, 0
25, 101608, Note_off_c, 9, 36, 0
25, 101760, Note_on_c, 9, 36, 116
25, 101760, Note_on_c, 9, 42, 100
25, 101869, Note_off_c, 9, 42, 0
25, 101888, Note_off_c, 9, 36, 0
25, 102000, Note_on_c, 9, 42, 54
25, 102040, Note_off_c, 9, 42, 0
25, 102240, Note_on_c, 9, 42, 104
25, 102345, Note_off_c, 9, 42, 0
25, 102480, Note_on_c, 9, 42, 62
25, 102546, Note_off_c, 9, 42, 0
25, 102720, Note_on_c, 9, 37, 116
25, 102720, Note_on_c, 9, 42, 100
25, 102720, Note_on_c, 9, 54, 111
25, 102720, Note_on_c, 9, 80, 44
25, 102789, Note_off_c, 9, 80, 0
25, 102832, Note_off_c, 9, 42, 0
25, 102846, Note_off_c, 9, 54, 0
25, 102864, Note_off_c, 9, 37, 0
25, 102960, Note_on_c, 9, 42, 62
25, 102960, Note_on_c, 9, 80, 68
25, 103019, Note_off_c, 9, 42, 0
25, 103047, Note_off_c, 9, 80, 0
25, 103200, Note_on_c, 9, 42, 89
25, 103200, Note_on_c, 9, 81, 92
25, 103284, Note_off_c, 9, 81, 0
25, 103293, Note_off_c, 9, 42, 0
25, 103440, Note_on_c, 9, 46, 89
25, 103533, Note_off_c, 9, 46, 0
25, 103680, Note_on_c, 9, 36, 111
25, 103680, Note_on_c, 9, 42, 107
25, 103809, Note_off_c, 9, 42, 0
25, 103831, Note_off_c, 9, 36, 0
25, 103920, Note_on_c, 9, 42, 79
25, 103989, Note_off_c, 9, 42, 0
25, 104160, Note_on_c, 9, 42, 104
25, 104268, Note_off_c, 9, 42, 0
25, 104400, Note_on_c, 9, 42, 70
25, 104456, Note_off_c, 9, 42, 0
25, 104640, Note_on_c, 9, 37, 111
25, 104640, Note_on_c, 9, 42, 104
25, 104755, Note_off_c, 9, 42, 0
25, 104801, Note_off_c, 9, 37, 0
25, 104880, Note_on_c, 9, 42, 63
25, 104936, Note_off_c, 9, 42, 0
25, 105120, Note_on_c, 9, 42, 107
25, 105224, Note_off_c, 9, 42, 0
25, 105360, Note_on_c, 9, 36, 116
25, 105360, Note_on_c, 9, 42, 59
25, 105400, Note_off_c, 9, 42, 0
25, 105448, Note_off_c, 9, 36, 0
25, 105600, Note_on_c, 9, 36, 116
25, 105600, Note_on_c, 9, 42, 100
25, 105709, Note_off_c, 9, 42, 0
25, 105728, Note_off_c, 9, 36, 0
25, 105840, Note_on_c, 9, 42, 54
25, 105880, Note_off_c, 9, 42, 0
25, 106080, Note_on_c, 9, 46, 116
25, 106185, Note_off_c, 9, 46, 0
25, 106560, Note_on_c, 9, 37, 116
25, 106560, Note_on_c, 9, 42, 100
25, 106560, Note_on_c, 9, 54, 111
25, 106560, Note_on_c, 9, 80, 44
25, 106629, Note_off_c, 9, 80, 0
25, 106672, Note_off_c, 9, 42, 0
25, 106686, Note_off_c, 9, 54, 0
25, 106704, Note_off_c, 9, 37, 0
25, 106800, Note_on_c, 9, 42, 62
25, 106800, Note_on_c, 9, 80, 68
25, 106859, Note_off_c, 9, 42, 0
25, 106887, Note_off_c, 9, 80, 0
25, 107040, Note_on_c, 9, 42, 89
25, 107040, Note_on_c, 9, 81, 92
25, 107124, Note_off_c, 9, 81, 0
25, 107133, Note_off_c, 9, 42, 0
25, 107280, Note_on_c, 9, 42, 104
25, 107373, Note_off_c, 9, 42, 0
25, 107520, Note_on_c, 9, 36, 111
25, 107520, Note_on_c, 9, 42, 107
25, 107649, Note_off_c, 9, 42, 0
25, 107671, Note_off_c, 9, 36, 0
25, 107760, Note_on_c, 9, 42, 79
25, 107829, Note_off_c, 9, 42, 0
25, 108000, Note_on_c, 9, 42, 104
25, 108108, Note_off_c, 9, 42, 0
25, 108240, Note_on_c, 9, 42, 70
25, 108296, Note_off_c, 9, 42, 0
25, 108480, Note_on_c, 9, 37, 111
25, 108480, Note_on_c, 9, 42, 104
25, 108595, Note_off_c, 9, 42, 0
25, 108641, Note_off_c, 9, 37, 0
25, 108720, Note_on_c, 9, 42, 63
25, 108776, Note_off_c, 9, 42, 0
25, 108960, Note_on_c, 9, 42, 107
25, 109064, Note_off_c, 9, 42, 0
25, 109200, Note_on_c, 9, 36, 116
25, 109200, Note_on_c, 9, 42, 59
25, 109240, Note_off_c, 9, 42, 0
25, 109288, Note_off_c, 9, 36, 0
25, 109440, Note_on_c, 9, 36, 116
25, 109440, Note_on_c, 9, 42, 100
25, 109549, Note_off_c, 9, 42, 0
25, 109568, Note_off_c, 9, 36, 0
25, 109680, Note_on_c, 9, 42, 54
25, 109720, Note_off_c, 9, 42, 0
25, 109920, Note_on_c, 9, 42, 104
25, 110025, Note_off_c, 9, 42, 0
25, 110160, Note_on_c, 9, 42, 62
25, 110226, Note_off_c, 9, 42, 0
25, 110400, Note_on_c, 9, 37, 116
25, 110400, Note_on_c, 9, 42, 100
25, 110400, Note_on_c, 9, 54, 111
25, 110400, Note_on_c, 9, 80, 44
25, 110469, Note_off_c, 9, 80, 0
25, 110512, Note_off_c, 9, 42, 0
25, 110526, Note_off_c, 9, 54, 0
25, 110544, Note_off_c, 9, 37, 0
25, 110640, Note_on_c, 9, 42, 62
25, 110640, Note_on_c, 9, 80, 68
25, 110699, Note_off_c, 9, 42, 0
25, 110727, Note_off_c, 9, 80, 0
25, 110880, Note_on_c, 9, 42, 89
25, 110880, Note_on_c, 9, 81, 92
25, 110964, Note_off_c, 9, 81, 0
25, 110973, Note_off_c, 9, 42, 0
25, 111120, Note_on_c, 9, 42, 100
25, 111213, Note_off_c, 9, 42, 0
25, 111360, Note_on_c, 9, 36, 111
25, 111360, Note_on_c, 9, 42, 107
25, 111489, Note_off_c, 9, 42, 0
25, 111511, Note_off_c, 9, 36, 0
25, 111600, Note_on_c, 9, 42, 79
25, 111669, Note_off_c, 9, 42, 0
25, 111840, Note_on_c, 9, 42, 104
25, 111948, Note_off_c, 9, 42, 0
25, 112080, Note_on_c, 9, 42, 70
25, 112136, Note_off_c, 9, 42, 0
25, 112320, Note_on_c, 9, 37, 111
25, 112320, Note_on_c, 9, 42, 104
25, 112435, Note_off_c, 9, 42, 0
25, 112481, Note_off_c, 9, 37, 0
25, 112560, Note_on_c, 9, 42, 63
25, 112616, Note_off_c, 9, 42, 0
25, 112800, Note_on_c, 9, 42, 107
25, 112904, Note_off_c, 9, 42, 0
25, 113040, Note_on_c, 9, 36, 116
25, 113040, Note_on_c, 9, 42, 59
25, 113080, Note_off_c, 9, 42, 0
25, 113128, Note_off_c, 9, 36, 0
25, 113280, Note_on_c, 9, 36, 116
25, 113280, Note_on_c, 9, 42, 100
25, 113389, Note_off_c, 9, 42, 0
25, 113408, Note_off_c, 9, 36, 0
25, 113520, Note_on_c, 9, 42, 54
25, 113560, Note_off_c, 9, 42, 0
25, 113760, Note_on_c, 9, 46, 111
25, 113865, Note_off_c, 9, 46, 0
25, 114240, Note_on_c, 9, 37, 116
25, 114240, Note_on_c, 9, 47, 121
25, 114240, Note_on_c, 9, 54, 111
25, 114240, Note_on_c, 9, 80, 44
25, 114309, Note_off_c, 9, 80, 0
25, 114366, Note_off_c, 9, 54, 0
25, 114384, Note_off_c, 9, 37, 0
25, 114391, Note_off_c, 9, 47, 0
25, 114480, Note_on_c, 9, 80, 68
25, 114567, Note_off_c, 9, 80, 0
25, 114600, Note_on_c, 9, 43, 111
25, 114708, Note_off_c, 9, 43, 0
25, 114720, Note_on_c, 9, 81, 92
25, 114804, Note_off_c, 9, 81, 0
25, 114960, Note_on_c, 9, 41, 107
25, 115052, Note_off_c, 9, 41, 0
25, 115200, Note_on_c, 9, 36, 111
25, 115200, Note_on_c, 9, 42, 107
25, 115200, Note_on_c, 9, 49, 98
25, 115254, Note_off_c, 9, 49, 0
25, 115329, Note_off_c, 9, 42, 0
25, 115351, Note_off_c, 9, 36, 0
25, 115440, Note_on_c, 9, 42, 79
25, 115509, Note_off_c, 9, 42, 0
25, 115680, Note_on_c, 9, 42, 104
25, 115788, Note_off_c, 9, 42, 0
25, 115920, Note_on_c, 9, 42, 70
25, 115976, Note_off_c, 9, 42, 0
25, 116160, Note_on_c, 9, 37, 111
25, 116160, Note_on_c, 9, 42, 104
25, 116275, Note_off_c, 9, 42, 0
25, 116321, Note_off_c, 9, 37, 0
25, 116400, Note_on_c, 9, 42, 63
25, 116456, Note_off_c, 9, 42, 0
25, 116640, Note_on_c, 9, 42, 107
25, 116744, Note_off_c, 9, 42, 0
25, 116880, Note_on_c, 9, 36, 116
25, 116880, Note_on_c, 9, 42, 59
25, 116920, Note_off_c, 9, 42, 0
25, 116968, Note_off_c, 9, 36, 0
25, 117120, Note_on_c, 9, 36, 116
25, 117120, Note_on_c, 9, 42, 100
25, 117229, Note_off_c, 9, 42, 0
25, 117248, Note_off_c, 9, 36, 0
25, 117360, Note_on_c, 9, 42, 54
25, 117400, Note_off_c, 9, 42, 0
25, 117600, Note_on_c, 9, 42, 104
25, 117705, Note_off_c, 9, 42, 0
25, 117840, Note_on_c, 9, 42, 62
25, 117906, Note_off_c, 9, 42, 0
25, 118080, Note_on_c, 9, 38, 116
25, 118080, Note_on_c, 9, 42, 100
25, 118080, Note_on_c, 9, 54, 111
25, 118080, Note_on_c, 9, 80, 61
25, 118132, Note_off_c, 9, 80, 0
25, 118192, Note_off_c, 9, 42, 0
25, 118206, Note_off_c, 9, 54, 0
25, 118224, Note_off_c, 9, 38, 0
25, 118320, Note_on_c, 9, 42, 62
25, 118320, Note_on_c, 9, 80, 78
25, 118379, Note_off_c, 9, 42, 0
25, 118387, Note_off_c, 9, 80, 0
25, 118560, Note_on_c, 9, 46, 116
25, 118560, Note_on_c, 9, 81, 87
25, 118628, Note_off_c, 9, 81, 0
25, 118666, Note_off_c, 9, 46, 0
25, 119040, Note_on_c, 9, 36, 111
25, 119040, Note_on_c, 9, 42, 107
25, 119169, Note_off_c, 9, 42, 0
25, 119191, Note_off_c, 9, 36, 0
25, 119280, Note_on_c, 9, 42, 79
25, 119349, Note_off_c, 9, 42, 0
25, 119520, Note_on_c, 9, 42, 104
25, 119628, Note_off_c, 9, 42, 0
25, 119760, Note_on_c, 9, 42, 70
25, 119816, Note_off_c, 9, 42, 0
25, 120000, Note_on_c, 9, 37, 111
25, 120000, Note_on_c, 9, 42, 104
25, 120115, Note_off_c, 9, 42, 0
25, 120161, Note_off_c, 9, 37, 0
25, 120240, Note_on_c, 9, 42, 63
25, 120296, Note_off_c, 9, 42, 0
25, 120480, Note_on_c, 9, 42, 107
25, 120584, Note_off_c, 9, 42, 0
25, 120720, Note_on_c, 9, 36, 116
25, 120720, Note_on_c, 9, 42, 59
25, 120760, Note_off_c, 9, 42, 0
25, 120808, Note_off_c, 9, 36, 0
25, 120960, Note_on_c, 9, 36, 116
25, 120960, Note_on_c, 9, 42, 100
25, 121069, Note_off_c, 9, 42, 0
25, 121088, Note_off_c, 9, 36, 0
25, 121200, Note_on_c, 9, 42, 54
25, 121240, Note_off_c, 9, 42, 0
25, 121440, Note_on_c, 9, 46, 116
25, 121545, Note_off_c, 9, 46, 0
25, 121920, Note_on_c, 9, 36, 116
25, 121920, Note_on_c, 9, 38, 104
25, 121920, Note_on_c, 9, 54, 111
25, 122039, Note_off_c, 9, 38, 0
25, 122046, Note_off_c, 9, 54, 0
25, 122104, Note_off_c, 9, 36, 0
25, 122280, Note_on_c, 9, 36, 121
25, 122425, Note_off_c, 9, 36, 0
25, 122640, Note_on_c, 9, 36, 121
25, 122640, Note_on_c, 9, 46, 100
25, 122711, Note_off_c, 9, 46, 0
25, 122797, Note_off_c, 9, 36, 0
25, 122880, Note_on_c, 9, 36, 111
25, 122880, Note_on_c, 9, 42, 107
25, 122880, Note_on_c, 9, 49, 98
25, 122934, Note_off_c, 9, 49, 0
25, 123009, Note_off_c, 9, 42, 0
25, 123031, Note_off_c, 9, 36, 0
25, 123120, Note_on_c, 9, 42, 79
25, 123189, Note_off_c, 9, 42, 0
25, 123360, Note_on_c, 9, 42, 104
25, 123468, Note_off_c, 9, 42, 0
25, 123600, Note_on_c, 9, 42, 70
25, 123656, Note_off_c, 9, 42, 0
25, 123840, Note_on_c, 9, 37, 111
25, 123840, Note_on_c, 9, 42, 104
25, 123955, Note_off_c, 9, 42, 0
25, 124001, Note_off_c, 9, 37, 0
25, 124080, Note_on_c, 9, 42, 63
25, 124136, Note_off_c, 9, 42, 0
25, 124320, Note_on_c, 9, 42, 107
25, 124424, Note_off_c, 9, 42, 0
25, 124560, Note_on_c, 9, 36, 116
25, 124560, Note_on_c, 9, 42, 59
25, 124600, Note_off_c, 9, 42, 0
25, 124648, Note_off_c, 9, 36, 0
25, 124800, Note_on_c, 9, 36, 116
25, 124800, Note_on_c, 9, 42, 100
25, 124909, Note_off_c, 9, 42, 0
25, 124928, Note_off_c, 9, 36, 0
25, 125040, Note_on_c, 9, 42, 54
25, 125080, Note_off_c, 9, 42, 0
25, 125280, Note_on_c, 9, 42, 104
25, 125385, Note_off_c, 9, 42, 0
25, 125520, Note_on_c, 9, 42, 62
25, 125586, Note_off_c, 9, 42, 0
25, 125760, Note_on_c, 9, 38, 116
25, 125760, Note_on_c, 9, 42, 100
25, 125760, Note_on_c, 9, 54, 111
25, 125760, Note_on_c, 9, 80, 61
25, 125812, Note_off_c, 9, 80, 0
25, 125872, Note_off_c, 9, 42, 0
25, 125886, Note_off_c, 9, 54, 0
25, 125904, Note_off_c, 9, 38, 0
25, 126000, Note_on_c, 9, 42, 62
25, 126000, Note_on_c, 9, 80, 78
25, 126059, Note_off_c, 9, 42, 0
25, 126067, Note_off_c, 9, 80, 0
25, 126240, Note_on_c, 9, 46, 116
25, 126240, Note_on_c, 9, 81, 87
25, 126308, Note_off_c, 9, 81, 0
25, 126346, Note_off_c, 9, 46, 0
25, 126720, Note_on_c, 9, 36, 111
25, 126720, Note_on_c, 9, 42, 107
25, 126849, Note_off_c, 9, 42, 0
25, 126871, Note_off_c, 9, 36, 0
25, 126960, Note_on_c, 9, 42, 79
25, 127029, Note_off_c, 9, 42, 0
25, 127200, Note_on_c, 9, 42, 104
25, 127308, Note_off_c, 9, 42, 0
25, 127440, Note_on_c, 9, 42, 70
25, 127496, Note_off_c, 9, 42, 0
25, 127680, Note_on_c, 9, 37, 111
25, 127680, Note_on_c, 9, 42, 104
25, 127795, Note_off_c, 9, 42, 0
25, 127841, Note_off_c, 9, 37, 0
25, 127920, Note_on_c, 9, 42, 63
25, 127976, Note_off_c, 9, 42, 0
25, 128160, Note_on_c, 9, 42, 107
25, 128264, Note_off_c, 9, 42, 0
25, 128400, Note_on_c, 9, 36, 116
25, 128400, Note_on_c, 9, 42, 59
25, 128440, Note_off_c, 9, 42, 0
25, 128488, Note_off_c, 9, 36, 0
25, 128640, Note_on_c, 9, 36, 116
25, 128640, Note_on_c, 9, 42, 100
25, 128749, Note_off_c, 9, 42, 0
25, 128768, Note_off_c, 9, 36, 0
25, 128880, Note_on_c, 9, 42, 54
25, 128920, Note_off_c, 9, 42, 0
25, 129120, Note_on_c, 9, 46, 116
25, 129225, Note_off_c, 9, 46, 0
25, 129600, Note_on_c, 9, 36, 116
25, 129600, Note_on_c, 9, 38, 104
25, 129600, Note_on_c, 9, 54, 111
25, 129719, Note_off_c, 9, 38, 0
25, 129726, Note_off_c, 9, 54, 0
25, 129784, Note_off_c, 9, 36, 0
25, 129960, Note_on_c, 9, 36, 121
25, 130105, Note_off_c, 9, 36, 0
25, 130320, Note_on_c, 9, 36, 121
25, 130320, Note_on_c, 9, 46, 100
25, 130391, Note_off_c, 9, 46, 0
25, 130477, Note_off_c, 9, 36, 0
25, 130560, Note_on_c, 9, 36, 111
25, 130560, Note_on_c, 9, 42, 107
25, 130560, Note_on_c, 9, 49, 98
25, 130614, Note_off_c, 9, 49, 0
25, 130689, Note_off_c, 9, 42, 0
25, 130711, Note_off_c, 9, 36, 0
25, 130800, Note_on_c, 9, 42, 79
25, 130869, Note_off_c, 9, 42, 0
25, 131040, Note_on_c, 9, 42, 104
25, 131148, Note_off_c, 9, 42, 0
25, 131280, Note_on_c, 9, 42, 70
25, 131336, Note_off_c, 9, 42, 0
25, 131520, Note_on_c, 9, 37, 111
25, 131520, Note_on_c, 9, 42, 104
25, 131635, Note_off_c, 9, 42, 0
25, 131681, Note_off_c, 9, 37, 0
25, 131760, Note_on_c, 9, 42, 63
25, 131816, Note_off_c, 9, 42, 0
25, 132000, Note_on_c, 9, 42, 107
25, 132104, Note_off_c, 9, 42, 0
25, 132240, Note_on_c, 9, 36, 116
25, 132240, Note_on_c, 9, 42, 59
25, 132280, Note_off_c, 9, 42, 0
25, 132328, Note_off_c, 9, 36, 0
25, 132480, Note_on_c, 9, 36, 116
25, 132480, Note_on_c, 9, 42, 100
25, 132589, Note_off_c, 9, 42, 0
25, 132608, Note_off_c, 9, 36, 0
25, 132720, Note_on_c, 9, 42, 54
25, 132760, Note_off_c, 9, 42, 0
25, 132960, Note_on_c, 9, 42, 104
25, 133065, Note_off_c, 9, 42, 0
25, 133200, Note_on_c, 9, 42, 62
25, 133266, Note_off_c, 9, 42, 0
25, 133440, Note_on_c, 9, 38, 116
25, 133440, Note_on_c, 9, 42, 100
25, 133440, Note_on_c, 9, 54, 111
25, 133440, Note_on_c, 9, 80, 61
25, 133492, Note_off_c, 9, 80, 0
25, 133552, Note_off_c, 9, 42, 0
25, 133566, Note_off_c, 9, 54, 0
25, 133584, Note_off_c, 9, 38, 0
25, 133680, Note_on_c, 9, 42, 62
25, 133680, Note_on_c, 9, 80, 78
25, 133739, Note_off_c, 9, 42, 0
25, 133747, Note_off_c, 9, 80, 0
25, 133920, Note_on_c, 9, 46, 116
25, 133920, Note_on_c, 9, 81, 87
25, 133988, Note_off_c, 9, 81, 0
25, 134026, Note_off_c, 9, 46, 0
25, 134400, Note_on_c, 9, 36, 111
25, 134400, Note_on_c, 9, 42, 107
25, 134400, Note_on_c, 9, 49, 98
25, 134454, Note_off_c, 9, 49, 0
25, 134529, Note_off_c, 9, 42, 0
25, 134551, Note_off_c, 9, 36, 0
25, 134640, Note_on_c, 9, 42, 79
25, 134709, Note_off_c, 9, 42, 0
25, 134880, Note_on_c, 9, 42, 104
25, 134988, Note_off_c, 9, 42, 0
25, 135120, Note_on_c, 9, 42, 70
25, 135176, Note_off_c, 9, 42, 0
25, 135360, Note_on_c, 9, 37, 111
25, 135360, Note_on_c, 9, 42, 104
25, 135475, Note_off_c, 9, 42, 0
25, 135521, Note_off_c, 9, 37, 0
25, 135600, Note_on_c, 9, 42, 63
25, 135656, Note_off_c, 9, 42, 0
25, 135840, Note_on_c, 9, 42, 107
25, 135944, Note_off_c, 9, 42, 0
25, 136080, Note_on_c, 9, 36, 116
25, 136080, Note_on_c, 9, 42, 59
25, 136120, Note_off_c, 9, 42, 0
25, 136168, Note_off_c, 9, 36, 0
25, 136320, Note_on_c, 9, 36, 116
25, 136320, Note_on_c, 9, 42, 100
25, 136429, Note_off_c, 9, 42, 0
25, 136448, Note_off_c, 9, 36, 0
25, 136560, Note_on_c, 9, 42, 54
25, 136600, Note_off_c, 9, 42, 0
25, 136800, Note_on_c, 9, 46, 107
25, 136905, Note_off_c, 9, 46, 0
25, 137280, Note_on_c, 9, 38, 116
25, 137280, Note_on_c, 9, 42, 100
25, 137280, Note_on_c, 9, 54, 111
25, 137280, Note_on_c, 9, 80, 61
25, 137332, Note_off_c, 9, 80, 0
25, 137392, Note_off_c, 9, 42, 0
25, 137406, Note_off_c, 9, 54, 0
25, 137424, Note_off_c, 9, 38, 0
25, 137520, Note_on_c, 9, 42, 62
25, 137520, Note_on_c, 9, 80, 78
25, 137579, Note_off_c, 9, 42, 0
25, 137587, Note_off_c, 9, 80, 0
25, 137760, Note_on_c, 9, 42, 107
25, 137760, Note_on_c, 9, 81, 87
25, 137828, Note_off_c, 9, 81, 0
25, 137889, Note_off_c, 9, 42, 0
25, 138000, Note_on_c, 9, 42, 79
25, 138069, Note_off_c, 9, 42, 0
25, 138240, Note_on_c, 9, 36, 92
25, 138240, Note_on_c, 9, 42, 74
25, 138240, Note_on_c, 9, 55, 94
25, 138352, Note_off_c, 9, 55, 0
25, 138392, Note_off_c, 9, 36, 0
25, 138404, Note_off_c, 9, 42, 0
25, 138480, Note_on_c, 9, 42, 67
25, 138594, Note_off_c, 9, 42, 0
25, 139200, Note_on_c, 9, 36, 100
25, 139200, Note_on_c, 9, 51, 87
25, 139311, Note_off_c, 9, 51, 0
25, 139336, Note_off_c, 9, 36, 0
25, 140160, Note_on_c, 9, 36, 104
25, 140160, Note_on_c, 9, 51, 81
25, 140249, Note_off_c, 9, 51, 0
25, 140283, Note_off_c, 9, 36, 0
25, 144000, Note_on_c, 9, 36, 111
25, 144000, Note_on_c, 9, 42, 107
25, 144129, Note_off_c, 9, 42, 0
25, 144151, Note_off_c, 9, 36, 0
25, 144240, Note_on_c, 9, 42, 79
25, 144309, Note_off_c, 9, 42, 0
25, 144480, Note_on_c, 9, 42, 104
25, 144588, Note_off_c, 9, 42, 0
25, 144720, Note_on_c, 9, 42, 70
25, 144776, Note_off_c, 9, 42, 0
25, 144960, Note_on_c, 9, 37, 111
25, 144960, Note_on_c, 9, 42, 104
25, 145075, Note_off_c, 9, 42, 0
25, 145121, Note_off_c, 9, 37, 0
25, 145200, Note_on_c, 9, 42, 63
25, 145256, Note_off_c, 9, 42, 0
25, 145440, Note_on_c, 9, 42, 107
25, 145544, Note_off_c, 9, 42, 0
25, 145680, Note_on_c, 9, 36, 116
25, 145680, Note_on_c, 9, 42, 59
25, 145720, Note_off_c, 9, 42, 0
25, 145768, Note_off_c, 9, 36, 0
25, 145920, Note_on_c, 9, 36, 116
25, 145920, Note_on_c, 9, 42, 100
25, 146029, Note_off_c, 9, 42, 0
25, 146048, Note_off_c, 9, 36, 0
25, 146160, Note_on_c, 9, 42, 54
25, 146200, Note_off_c, 9, 42, 0
25, 146400, Note_on_c, 9, 42, 104
25, 146505, Note_off_c, 9, 42, 0
25, 146640, Note_on_c, 9, 42, 62
25, 146706, Note_off_c, 9, 42, 0
25, 146880, Note_on_c, 9, 37, 116
25, 146880, Note_on_c, 9, 42, 100
25, 146880, Note_on_c, 9, 54, 111
25, 146880, Note_on_c, 9, 80, 44
25, 146949, Note_off_c, 9, 80, 0
25, 146992, Note_off_c, 9, 42, 0
25, 147006, Note_off_c, 9, 54, 0
25, 147024, Note_off_c, 9, 37, 0
25, 147120, Note_on_c, 9, 42, 62
25, 147120, Note_on_c, 9, 80, 68
25, 147179, Note_off_c, 9, 42, 0
25, 147207, Note_off_c, 9, 80, 0
25, 147360, Note_on_c, 9, 42, 89
25, 147360, Note_on_c, 9, 81, 92
25, 147444, Note_off_c, 9, 81, 0
25, 147453, Note_off_c, 9, 42, 0
25, 147600, Note_on_c, 9, 46, 89
25, 147693, Note_off_c, 9, 46, 0
25, 147840, Note_on_c, 9, 36, 111
25, 147840, Note_on_c, 9, 42, 107
25, 147969, Note_off_c, 9, 42, 0
25, 147991, Note_off_c, 9, 36, 0
25, 148080, Note_on_c, 9, 42, 79
25, 148149, Note_off_c, 9, 42, 0
25, 148320, Note_on_c, 9, 42, 104
25, 148428, Note_off_c, 9, 42, 0
25, 148560, Note_on_c, 9, 42, 70
25, 148616, Note_off_c, 9, 42, 0
25, 148800, Note_on_c, 9, 37, 111
25, 148800, Note_on_c, 9, 42, 104
25, 148915, Note_off_c, 9, 42, 0
25, 148961, Note_off_c, 9, 37, 0
25, 149040, Note_on_c, 9, 42, 63
25, 149096, Note_off_c, 9, 42, 0
25, 149280, Note_on_c, 9, 42, 107
25, 149384, Note_off_c, 9, 42, 0
25, 149520, Note_on_c, 9, 36, 116
25, 149520, Note_on_c, 9, 42, 59
25, 149560, Note_off_c, 9, 42, 0
25, 149608, Note_off_c, 9, 36, 0
25, 149760, Note_on_c, 9, 36, 116
25, 149760, Note_on_c, 9, 42, 100
25, 149869, Note_off_c, 9, 42, 0
25, 149888, Note_off_c, 9, 36, 0
25, 150000, Note_on_c, 9, 42, 54
25, 150040, Note_off_c, 9, 42, 0
25, 150240, Note_on_c, 9, 46, 104
25, 150345, Note_off_c, 9, 46, 0
25, 150720, Note_on_c, 9, 37, 116
25, 150720, Note_on_c, 9, 42, 100
25, 150720, Note_on_c, 9, 54, 111
25, 150720, Note_on_c, 9, 80, 44
25, 150789, Note_off_c, 9, 80, 0
25, 150832, Note_off_c, 9, 42, 0
25, 150846, Note_off_c, 9, 54, 0
25, 150864, Note_off_c, 9, 37, 0
25, 150960, Note_on_c, 9, 42, 62
25, 150960, Note_on_c, 9, 80, 68
25, 151019, Note_off_c, 9, 42, 0
25, 151047, Note_off_c, 9, 80, 0
25, 151200, Note_on_c, 9, 42, 89
25, 151200, Note_on_c, 9, 81, 92
25, 151284, Note_off_c, 9, 81, 0
25, 151293, Note_off_c, 9, 42, 0
25, 151440, Note_on_c, 9, 42, 104
25, 151533, Note_off_c, 9, 42, 0
25, 151680, Note_on_c, 9, 36, 111
25, 151680, Note_on_c, 9, 42, 107
25, 151809, Note_off_c, 9, 42, 0
25, 151831, Note_off_c, 9, 36, 0
25, 151920, Note_on_c, 9, 42, 79
25, 151989, Note_off_c, 9, 42, 0
25, 152160, Note_on_c, 9, 42, 104
25, 152268, Note_off_c, 9, 42, 0
25, 152400, Note_on_c, 9, 42, 70
25, 152456, Note_off_c, 9, 42, 0
25, 152640, Note_on_c, 9, 37, 111
25, 152640, Note_on_c, 9, 42, 104
25, 152755, Note_off_c, 9, 42, 0
25, 152801, Note_off_c, 9, 37, 0
25, 152880, Note_on_c, 9, 42, 63
25, 152936, Note_off_c, 9, 42, 0
25, 153120, Note_on_c, 9, 42, 107
25, 153224, Note_off_c, 9, 42, 0
25, 153360, Note_on_c, 9, 36, 116
25, 153360, Note_on_c, 9, 42, 59
25, 153400, Note_off_c, 9, 42, 0
25, 153448, Note_off_c, 9, 36, 0
25, 153600, Note_on_c, 9, 36, 116
25, 153600, Note_on_c, 9, 42, 100
25, 153709, Note_off_c, 9, 42, 0
25, 153728, Note_off_c, 9, 36, 0
25, 153840, Note_on_c, 9, 42, 54
25, 153880, Note_off_c, 9, 42, 0
25, 154080, Note_on_c, 9, 42, 104
25, 154185, Note_off_c, 9, 42, 0
25, 154320, Note_on_c, 9, 42, 62
25, 154386, Note_off_c, 9, 42, 0
25, 154560, Note_on_c, 9, 37, 116
25, 154560, Note_on_c, 9, 42, 100
25, 154560, Note_on_c, 9, 54, 111
25, 154560, Note_on_c, 9, 80, 44
25, 154629, Note_off_c, 9, 80, 0
25, 154672, Note_off_c, 9, 42, 0
25, 154686, Note_off_c, 9, 54, 0
25, 154704, Note_off_c, 9, 37, 0
25, 154800, Note_on_c, 9, 42, 62
25, 154800, Note_on_c, 9, 80, 68
25, 154859, Note_off_c, 9, 42, 0
25, 154887, Note_off_c, 9, 80, 0
25, 155040, Note_on_c, 9, 42, 89
25, 155040, Note_on_c, 9, 81, 92
25, 155124, Note_off_c, 9, 81, 0
25, 155133, Note_off_c, 9, 42, 0
25, 155280, Note_on_c, 9, 42, 83
25, 155373, Note_off_c, 9, 42, 0
25, 155520, Note_on_c, 9, 36, 111
25, 155520, Note_on_c, 9, 42, 107
25, 155649, Note_off_c, 9, 42, 0
25, 155671, Note_off_c, 9, 36, 0
25, 155760, Note_on_c, 9, 42, 79
25, 155829, Note_off_c, 9, 42, 0
25, 156000, Note_on_c, 9, 42, 104
25, 156108, Note_off_c, 9, 42, 0
25, 156240, Note_on_c, 9, 42, 70
25, 156296, Note_off_c, 9, 42, 0
25, 156480, Note_on_c, 9, 37, 111
25, 156480, Note_on_c, 9, 42, 104
25, 156595, Note_off_c, 9, 42, 0
25, 156641, Note_off_c, 9, 37, 0
25, 156720, Note_on_c, 9, 42, 63
25, 156776, Note_off_c, 9, 42, 0
25, 156960, Note_on_c, 9, 42, 107
25, 157064, Note_off_c, 9, 42, 0
25, 157200, Note_on_c, 9, 36, 116
25, 157200, Note_on_c, 9, 42, 59
25, 157240, Note_off_c, 9, 42, 0
25, 157288, Note_off_c, 9, 36, 0
25, 157440, Note_on_c, 9, 36, 116
25, 157440, Note_on_c, 9, 42, 100
25, 157549, Note_off_c, 9, 42, 0
25, 157568, Note_off_c, 9, 36, 0
25, 157680, Note_on_c, 9, 42, 54
25, 157680, Note_on_c, 9, 43, 60
25, 157720, Note_off_c, 9, 42, 0
25, 157746, Note_off_c, 9, 43, 0
25, 157920, Note_on_c, 9, 43, 121
25, 157920, Note_on_c, 9, 46, 111
25, 158025, Note_off_c, 9, 46, 0
25, 158089, Note_off_c, 9, 43, 0
25, 158400, Note_on_c, 9, 38, 111
25, 158400, Note_on_c, 9, 54, 111
25, 158400, Note_on_c, 9, 80, 44
25, 158469, Note_off_c, 9, 80, 0
25, 158508, Note_off_c, 9, 38, 0
25, 158526, Note_off_c, 9, 54, 0
25, 158640, Note_on_c, 9, 47, 121
25, 158640, Note_on_c, 9, 80, 68
25, 158727, Note_off_c, 9, 80, 0
25, 158731, Note_off_c, 9, 47, 0
25, 158880, Note_on_c, 9, 43, 107
25, 158880, Note_on_c, 9, 81, 92
25, 158964, Note_off_c, 9, 81, 0
25, 158981, Note_off_c, 9, 43, 0
25, 159120, Note_on_c, 9, 41, 104
25, 159232, Note_off_c, 9, 41, 0
25, 159360, Note_on_c, 9, 36, 111
25, 159360, Note_on_c, 9, 49, 104
25, 159465, Note_off_c, 9, 49, 0
25, 159524, Note_off_c, 9, 36, 0
25, 162240, Note_on_c, 9, 38, 121
25, 162347, Note_off_c, 9, 38, 0
25, 162480, Note_on_c, 9, 45, 116
25, 162558, Note_off_c, 9, 45, 0
25, 162720, Note_on_c, 9, 43, 100
25, 162808, Note_off_c, 9, 43, 0
25, 162960, Note_on_c, 9, 41, 94
25, 163060, Note_off_c, 9, 41, 0
25, 163200, Note_on_c, 9, 36, 111
25, 163200, Note_on_c, 9, 42, 107
25, 163200, Note_on_c, 9, 49, 98
25, 163254, Note_off_c, 9, 49, 0
25, 163329, Note_off_c, 9, 42, 0
25, 163351, Note_off_c, 9, 36, 0
25, 163440, Note_on_c, 9, 42, 79
25, 163509, Note_off_c, 9, 42, 0
25, 163680, Note_on_c, 9, 42, 104
25, 163788, Note_off_c, 9, 42, 0
25, 163920, Note_on_c, 9, 42, 70
25, 163976, Note_off_c, 9, 42, 0
25, 164160, Note_on_c, 9, 38, 111
25, 164160, Note_on_c, 9, 42, 104
25, 164275, Note_off_c, 9, 42, 0
25, 164321, Note_off_c, 9, 38, 0
25, 164400, Note_on_c, 9, 42, 63
25, 164456, Note_off_c, 9, 42, 0
25, 164640, Note_on_c, 9, 42, 107
25, 164744, Note_off_c, 9, 42, 0
25, 164880, Note_on_c, 9, 36, 116
25, 164880, Note_on_c, 9, 42, 59
25, 164920, Note_off_c, 9, 42, 0
25, 164968, Note_off_c, 9, 36, 0
25, 165120, Note_on_c, 9, 36, 116
25, 165120, Note_on_c, 9, 42, 100
25, 165229, Note_off_c, 9, 42, 0
25, 165248, Note_off_c, 9, 36, 0
25, 165360, Note_on_c, 9, 42, 54
25, 165400, Note_off_c, 9, 42, 0
25, 165600, Note_on_c, 9, 42, 104
25, 165705, Note_off_c, 9, 42, 0
25, 165840, Note_on_c, 9, 42, 62
25, 165906, Note_off_c, 9, 42, 0
25, 166080, Note_on_c, 9, 38, 116
25, 166080, Note_on_c, 9, 42, 100
25, 166080, Note_on_c, 9, 54, 111
25, 166192, Note_off_c, 9, 42, 0
25, 166206, Note_off_c, 9, 54, 0
25, 166224, Note_off_c, 9, 38, 0
25, 166320, Note_on_c, 9, 42, 62
25, 166320, Note_on_c, 9, 47, 116
25, 166379, Note_off_c, 9, 42, 0
25, 166391, Note_off_c, 9, 47, 0
25, 166560, Note_on_c, 9, 42, 100
25, 166560, Note_on_c, 9, 43, 111
25, 166636, Note_off_c, 9, 43, 0
25, 166672, Note_off_c, 9, 42, 0
25, 166800, Note_on_c, 9, 41, 107
25, 166800, Note_on_c, 9, 42, 62
25, 166859, Note_off_c, 9, 42, 0
25, 166891, Note_off_c, 9, 41, 0
25, 167040, Note_on_c, 9, 36, 111
25, 167040, Note_on_c, 9, 42, 107
25, 167040, Note_on_c, 9, 49, 98
25, 167094, Note_off_c, 9, 49, 0
25, 167169, Note_off_c, 9, 42, 0
25, 167191, Note_off_c, 9, 36, 0
25, 167280, Note_on_c, 9, 42, 79
25, 167349, Note_off_c, 9, 42, 0
25, 167520, Note_on_c, 9, 42, 104
25, 167628, Note_off_c, 9, 42, 0
25, 167760, Note_on_c, 9, 42, 70
25, 167816, Note_off_c, 9, 42, 0
25, 168000, Note_on_c, 9, 38, 111
25, 168000, Note_on_c, 9, 42, 104
25, 168115, Note_off_c, 9, 42, 0
25, 168161, Note_off_c, 9, 38, 0
25, 168240, Note_on_c, 9, 42, 63
25, 168296, Note_off_c, 9, 42, 0
25, 168480, Note_on_c, 9, 42, 107
25, 168584, Note_off_c, 9, 42, 0
25, 168720, Note_on_c, 9, 36, 116
25, 168720, Note_on_c, 9, 42, 59
25, 168760, Note_off_c, 9, 42, 0
25, 168808, Note_off_c, 9, 36, 0
25, 168960, Note_on_c, 9, 36, 116
25, 168960, Note_on_c, 9, 42, 100
25, 169069, Note_off_c, 9, 42, 0
25, 169088, Note_off_c, 9, 36, 0
25, 169200, Note_on_c, 9, 42, 54
25, 169240, Note_off_c, 9, 42, 0
25, 169440, Note_on_c, 9, 42, 104
25, 169545, Note_off_c, 9, 42, 0
25, 169680, Note_on_c, 9, 42, 62
25, 169746, Note_off_c, 9, 42, 0
25, 169920, Note_on_c, 9, 38, 116
25, 169920, Note_on_c, 9, 42, 100
25, 169920, Note_on_c, 9, 54, 111
25, 169920, Note_on_c, 9, 80, 61
25, 169972, Note_off_c, 9, 80, 0
25, 170032, Note_off_c, 9, 42, 0
25, 170046, Note_off_c, 9, 54, 0
25, 170064, Note_off_c, 9, 38, 0
25, 170160, Note_on_c, 9, 42, 62
25, 170160, Note_on_c, 9, 80, 78
25, 170219, Note_off_c, 9, 42, 0
25, 170227, Note_off_c, 9, 80, 0
25, 170400, Note_on_c, 9, 42, 104
25, 170400, Note_on_c, 9, 81, 87
25, 170468, Note_off_c, 9, 81, 0
25, 170505, Note_off_c, 9, 42, 0
25, 170640, Note_on_c, 9, 42, 62
25, 170706, Note_off_c, 9, 42, 0
25, 170880, Note_on_c, 9, 36, 111
25, 170880, Note_on_c, 9, 42, 107
25, 170880, Note_on_c, 9, 49, 98
25, 170934, Note_off_c, 9, 49, 0
25, 171009, Note_off_c, 9, 42, 0
25, 171031, Note_off_c, 9, 36, 0
25, 171120, Note_on_c, 9, 42, 79
25, 171189, Note_off_c, 9, 42, 0
25, 171360, Note_on_c, 9, 42, 104
25, 171468, Note_off_c, 9, 42, 0
25, 171600, Note_on_c, 9, 42, 70
25, 171656, Note_off_c, 9, 42, 0
25, 171840, Note_on_c, 9, 38, 111
25, 171840, Note_on_c, 9, 42, 104
25, 171955, Note_off_c, 9, 42, 0
25, 172001, Note_off_c, 9, 38, 0
25, 172080, Note_on_c, 9, 42, 63
25, 172136, Note_off_c, 9, 42, 0
25, 172320, Note_on_c, 9, 42, 107
25, 172424, Note_off_c, 9, 42, 0
25, 172560, Note_on_c, 9, 36, 116
25, 172560, Note_on_c, 9, 42, 59
25, 172600, Note_off_c, 9, 42, 0
25, 172648, Note_off_c, 9, 36, 0
25, 172800, Note_on_c, 9, 36, 116
25, 172800, Note_on_c, 9, 42, 100
25, 172909, Note_off_c, 9, 42, 0
25, 172928, Note_off_c, 9, 36, 0
25, 173040, Note_on_c, 9, 42, 54
25, 173080, Note_off_c, 9, 42, 0
25, 173280, Note_on_c, 9, 42, 104
25, 173385, Note_off_c, 9, 42, 0
25, 173520, Note_on_c, 9, 42, 62
25, 173586, Note_off_c, 9, 42, 0
25, 173760, Note_on_c, 9, 38, 116
25, 173760, Note_on_c, 9, 42, 100
25, 173760, Note_on_c, 9, 54, 111
25, 173872, Note_off_c, 9, 42, 0
25, 173886, Note_off_c, 9, 54, 0
25, 173904, Note_off_c, 9, 38, 0
25, 174000, Note_on_c, 9, 42, 62
25, 174059, Note_off_c, 9, 42, 0
25, 174240, Note_on_c, 9, 42, 104
25, 174345, Note_off_c, 9, 42, 0
25, 174480, Note_on_c, 9, 42, 62
25, 174546, Note_off_c, 9, 42, 0
25, 174720, Note_on_c, 9, 36, 121
25, 174720, Note_on_c, 9, 48, 121
25, 174811, Note_off_c, 9, 48, 0
25, 174868, Note_off_c, 9, 36, 0
25, 175040, Note_on_c, 9, 36, 121
25, 175040, Note_on_c, 9, 48, 121
25, 175128, Note_off_c, 9, 48, 0
25, 175157, Note_off_c, 9, 36, 0
25, 175360, Note_on_c, 9, 36, 121
25, 175360, Note_on_c, 9, 47, 116
25, 175428, Note_off_c, 9, 47, 0
25, 175460, Note_off_c, 9, 36, 0
25, 175680, Note_on_c, 9, 36, 127
25, 175680, Note_on_c, 9, 45, 121
25, 175764, Note_off_c, 9, 45, 0
25, 175816, Note_off_c, 9, 36, 0
25, 176000, Note_on_c, 9, 36, 121
25, 176000, Note_on_c, 9, 43, 111
25, 176086, Note_off_c, 9, 43, 0
25, 176123, Note_off_c, 9, 36, 0
25, 176320, Note_on_c, 9, 36, 116
25, 176320, Note_on_c, 9, 41, 116
25, 176418, Note_off_c, 9, 41, 0
25, 176457, Note_off_c, 9, 36, 0
25, 176640, Note_on_c, 9, 36, 127
25, 176640, Note_on_c, 9, 41, 116
25, 176808, Note_off_c, 9, 41, 0
25, 176866, Note_off_c, 9, 36, 0
25, 177600, Note_on_c, 9, 36, 127
25, 177600, Note_on_c, 9, 47, 127
25, 177731, Note_off_c, 9, 47, 0
25, 177784, Note_off_c, 9, 36, 0
25, 177960, Note_on_c, 9, 36, 116
25, 177960, Note_on_c, 9, 43, 107
25, 178055, Note_off_c, 9, 43, 0
25, 178071, Note_off_c, 9, 36, 0
25, 178320, Note_on_c, 9, 36, 107
25, 178320, Note_on_c, 9, 41, 107
25, 178426, Note_off_c, 9, 41, 0
25, 178429, Note_off_c, 9, 36, 0
25, 178560, Note_on_c, 9, 36, 111
25, 178560, Note_on_c, 9, 42, 107
25, 178560, Note_on_c, 9, 49, 98
25, 178614, Note_off_c, 9, 49, 0
25, 178689, Note_off_c, 9, 42, 0
25, 178711, Note_off_c, 9, 36, 0
25, 178800, Note_on_c, 9, 42, 79
25, 178869, Note_off_c, 9, 42, 0
25, 179040, Note_on_c, 9, 42, 104
25, 179148, Note_off_c, 9, 42, 0
25, 179280, Note_on_c, 9, 42, 70
25, 179336, Note_off_c, 9, 42, 0
25, 179520, Note_on_c, 9, 38, 111
25, 179520, Note_on_c, 9, 42, 104
25, 179635, Note_off_c, 9, 42, 0
25, 179681, Note_off_c, 9, 38, 0
25, 179760, Note_on_c, 9, 42, 63
25, 179816, Note_off_c, 9, 42, 0
25, 180000, Note_on_c, 9, 42, 107
25, 180104, Note_off_c, 9, 42, 0
25, 180240, Note_on_c, 9, 36, 116
25, 180240, Note_on_c, 9, 42, 59
25, 180280, Note_off_c, 9, 42, 0
25, 180328, Note_off_c, 9, 36, 0
25, 180480, Note_on_c, 9, 36, 116
25, 180480, Note_on_c, 9, 42, 100
25, 180589, Note_off_c, 9, 42, 0
25, 180608, Note_off_c, 9, 36, 0
25, 180720, Note_on_c, 9, 42, 54
25, 180760, Note_off_c, 9, 42, 0
25, 180960, Note_on_c, 9, 42, 104
25, 181065, Note_off_c, 9, 42, 0
25, 181200, Note_on_c, 9, 42, 62
25, 181266, Note_off_c, 9, 42, 0
25, 181440, Note_on_c, 9, 38, 116
25, 181440, Note_on_c, 9, 42, 100
25, 181440, Note_on_c, 9, 54, 111
25, 181440, Note_on_c, 9, 80, 44
25, 181509, Note_off_c, 9, 80, 0
25, 181552, Note_off_c, 9, 42, 0
25, 181566, Note_off_c, 9, 54, 0
25, 181584, Note_off_c, 9, 38, 0
25, 181680, Note_on_c, 9, 42, 62
25, 181680, Note_on_c, 9, 80, 68
25, 181739, Note_off_c, 9, 42, 0
25, 181767, Note_off_c, 9, 80, 0
25, 181920, Note_on_c, 9, 46, 111
25, 181920, Note_on_c, 9, 81, 92
25, 182004, Note_off_c, 9, 81, 0
25, 182032, Note_off_c, 9, 46, 0
25, 182400, Note_on_c, 9, 36, 111
25, 182400, Note_on_c, 9, 42, 107
25, 182529, Note_off_c, 9, 42, 0
25, 182551, Note_off_c, 9, 36, 0
25, 182640, Note_on_c, 9, 42, 79
25, 182709, Note_off_c, 9, 42, 0
25, 182880, Note_on_c, 9, 42, 104
25, 182988, Note_off_c, 9, 42, 0
25, 183120, Note_on_c, 9, 42, 70
25, 183176, Note_off_c, 9, 42, 0
25, 183360, Note_on_c, 9, 38, 111
25, 183360, Note_on_c, 9, 42, 104
25, 183475, Note_off_c, 9, 42, 0
25, 183521, Note_off_c, 9, 38, 0
25, 183600, Note_on_c, 9, 42, 63
25, 183656, Note_off_c, 9, 42, 0
25, 183840, Note_on_c, 9, 42, 107
25, 183944, Note_off_c, 9, 42, 0
25, 184080, Note_on_c, 9, 36, 116
25, 184080, Note_on_c, 9, 42, 59
25, 184120, Note_off_c, 9, 42, 0
25, 184168, Note_off_c, 9, 36, 0
25, 184320, Note_on_c, 9, 36, 116
25, 184320, Note_on_c, 9, 42, 100
25, 184429, Note_off_c, 9, 42, 0
25, 184448, Note_off_c, 9, 36, 0
25, 184560, Note_on_c, 9, 42, 54
25, 184600, Note_off_c, 9, 42, 0
25, 184800, Note_on_c, 9, 46, 111
25, 184905, Note_off_c, 9, 46, 0
25, 185280, Note_on_c, 9, 36, 121
25, 185280, Note_on_c, 9, 47, 121
25, 185280, Note_on_c, 9, 54, 111
25, 185280, Note_on_c, 9, 80, 44
25, 185349, Note_off_c, 9, 80, 0
25, 185375, Note_off_c, 9, 47, 0
25, 185406, Note_off_c, 9, 54, 0
25, 185440, Note_off_c, 9, 36, 0
25, 185520, Note_on_c, 9, 80, 68
25, 185607, Note_off_c, 9, 80, 0
25, 185640, Note_on_c, 9, 36, 116
25, 185640, Note_on_c, 9, 43, 107
25, 185736, Note_off_c, 9, 43, 0
25, 185760, Note_on_c, 9, 81, 92
25, 185765, Note_off_c, 9, 36, 0
25, 185844, Note_off_c, 9, 81, 0
25, 186000, Note_on_c, 9, 36, 116
25, 186000, Note_on_c, 9, 41, 111
25, 186114, Note_off_c, 9, 41, 0
25, 186159, Note_off_c, 9, 36, 0
25, 186240, Note_on_c, 9, 36, 111
25, 186240, Note_on_c, 9, 42, 107
25, 186240, Note_on_c, 9, 49, 98
25, 186294, Note_off_c, 9, 49, 0
25, 186369, Note_off_c, 9, 42, 0
25, 186391, Note_off_c, 9, 36, 0
25, 186480, Note_on_c, 9, 42, 79
25, 186549, Note_off_c, 9, 42, 0
25, 186720, Note_on_c, 9, 42, 104
25, 186828, Note_off_c, 9, 42, 0
25, 186960, Note_on_c, 9, 42, 70
25, 187016, Note_off_c, 9, 42, 0
25, 187200, Note_on_c, 9, 38, 111
25, 187200, Note_on_c, 9, 42, 104
25, 187315, Note_off_c, 9, 42, 0
25, 187361, Note_off_c, 9, 38, 0
25, 187440, Note_on_c, 9, 42, 63
25, 187496, Note_off_c, 9, 42, 0
25, 187680, Note_on_c, 9, 42, 107
25, 187784, Note_off_c, 9, 42, 0
25, 187920, Note_on_c, 9, 36, 116
25, 187920, Note_on_c, 9, 42, 59
25, 187960, Note_off_c, 9, 42, 0
25, 188008, Note_off_c, 9, 36, 0
25, 188160, Note_on_c, 9, 36, 116
25, 188160, Note_on_c, 9, 42, 100
25, 188269, Note_off_c, 9, 42, 0
25, 188288, Note_off_c, 9, 36, 0
25, 188400, Note_on_c, 9, 42, 54
25, 188440, Note_off_c, 9, 42, 0
25, 188640, Note_on_c, 9, 42, 104
25, 188745, Note_off_c, 9, 42, 0
25, 188880, Note_on_c, 9, 42, 62
25, 188946, Note_off_c, 9, 42, 0
25, 189120, Note_on_c, 9, 38, 116
25, 189120, Note_on_c, 9, 42, 100
25, 189120, Note_on_c, 9, 54, 111
25, 189120, Note_on_c, 9, 80, 44
25, 189189, Note_off_c, 9, 80, 0
25, 189232, Note_off_c, 9, 42, 0
25, 189246, Note_off_c, 9, 54, 0
25, 189264, Note_off_c, 9, 38, 0
25, 189360, Note_on_c, 9, 42, 62
25, 189360, Note_on_c, 9, 80, 68
25, 189419, Note_off_c, 9, 42, 0
25, 189447, Note_off_c, 9, 80, 0
25, 189600, Note_on_c, 9, 46, 111
25, 189600, Note_on_c, 9, 81, 92
25, 189684, Note_off_c, 9, 81, 0
25, 189712, Note_off_c, 9, 46, 0
25, 190080, Note_on_c, 9, 36, 111
25, 190080, Note_on_c, 9, 42, 107
25, 190209, Note_off_c, 9, 42, 0
25, 190231, Note_off_c, 9, 36, 0
25, 190320, Note_on_c, 9, 42, 79
25, 190389, Note_off_c, 9, 42, 0
25, 190560, Note_on_c, 9, 42, 104
25, 190668, Note_off_c, 9, 42, 0
25, 190800, Note_on_c, 9, 42, 70
25, 190856, Note_off_c, 9, 42, 0
25, 191040, Note_on_c, 9, 38, 111
25, 191040, Note_on_c, 9, 42, 104
25, 191155, Note_off_c, 9, 42, 0
25, 191201, Note_off_c, 9, 38, 0
25, 191280, Note_on_c, 9, 42, 63
25, 191336, Note_off_c, 9, 42, 0
25, 191520, Note_on_c, 9, 42, 107
25, 191624, Note_off_c, 9, 42, 0
25, 191760, Note_on_c, 9, 36, 116
25, 191760, Note_on_c, 9, 42, 59
25, 191800, Note_off_c, 9, 42, 0
25, 191848, Note_off_c, 9, 36, 0
25, 192000, Note_on_c, 9, 36, 116
25, 192000, Note_on_c, 9, 42, 100
25, 192109, Note_off_c, 9, 42, 0
25, 192128, Note_off_c, 9, 36, 0
25, 192240, Note_on_c, 9, 38, 107
25, 192240, Note_on_c, 9, 42, 54
25, 192280, Note_off_c, 9, 42, 0
25, 192302, Note_off_c, 9, 38, 0
25, 192480, Note_on_c, 9, 38, 111
25, 192480, Note_on_c, 9, 46, 111
25, 192575, Note_off_c, 9, 38, 0
25, 192585, Note_off_c, 9, 46, 0
25, 192960, Note_on_c, 9, 36, 121
25, 192960, Note_on_c, 9, 47, 121
25, 192960, Note_on_c, 9, 54, 111
25, 192960, Note_on_c, 9, 80, 44
25, 193029, Note_off_c, 9, 80, 0
25, 193055, Note_off_c, 9, 47, 0
25, 193086, Note_off_c, 9, 54, 0
25, 193120, Note_off_c, 9, 36, 0
25, 193200, Note_on_c, 9, 80, 68
25, 193287, Note_off_c, 9, 80, 0
25, 193320, Note_on_c, 9, 36, 116
25, 193320, Note_on_c, 9, 43, 107
25, 193416, Note_off_c, 9, 43, 0
25, 193440, Note_on_c, 9, 81, 92
25, 193445, Note_off_c, 9, 36, 0
25, 193524, Note_off_c, 9, 81, 0
25, 193680, Note_on_c, 9, 36, 116
25, 193680, Note_on_c, 9, 41, 111
25, 193794, Note_off_c, 9, 41, 0
25, 193839, Note_off_c, 9, 36, 0
25, 193920, Note_on_c, 9, 36, 111
25, 193920, Note_on_c, 9, 42, 107
25, 193920, Note_on_c, 9, 49, 98
25, 193974, Note_off_c, 9, 49, 0
25, 194049, Note_off_c, 9, 42, 0
25, 194071, Note_off_c, 9, 36, 0
25, 194160, Note_on_c, 9, 42, 79
25, 194229, Note_off_c, 9, 42, 0
25, 194400, Note_on_c, 9, 42, 104
25, 194508, Note_off_c, 9, 42, 0
25, 194640, Note_on_c, 9, 42, 70
25, 194696, Note_off_c, 9, 42, 0
25, 194880, Note_on_c, 9, 38, 111
25, 194880, Note_on_c, 9, 42, 104
25, 194995, Note_off_c, 9, 42, 0
25, 195041, Note_off_c, 9, 38, 0
25, 195120, Note_on_c, 9, 42, 63
25, 195176, Note_off_c, 9, 42, 0
25, 195360, Note_on_c, 9, 42, 107
25, 195464, Note_off_c, 9, 42, 0
25, 195600, Note_on_c, 9, 36, 116
25, 195600, Note_on_c, 9, 42, 59
25, 195640, Note_off_c, 9, 42, 0
25, 195688, Note_off_c, 9, 36, 0
25, 195840, Note_on_c, 9, 36, 116
25, 195840, Note_on_c, 9, 42, 100
25, 195949, Note_off_c, 9, 42, 0
25, 195968, Note_off_c, 9, 36, 0
25, 196080, Note_on_c, 9, 42, 54
25, 196120, Note_off_c, 9, 42, 0
25, 196320, Note_on_c, 9, 42, 104
25, 196425, Note_off_c, 9, 42, 0
25, 196560, Note_on_c, 9, 42, 62
25, 196626, Note_off_c, 9, 42, 0
25, 196800, Note_on_c, 9, 38, 116
25, 196800, Note_on_c, 9, 42, 100
25, 196800, Note_on_c, 9, 54, 111
25, 196800, Note_on_c, 9, 80, 44
25, 196869, Note_off_c, 9, 80, 0
25, 196912, Note_off_c, 9, 42, 0
25, 196926, Note_off_c, 9, 54, 0
25, 196944, Note_off_c, 9, 38, 0
25, 197040, Note_on_c, 9, 42, 62
25, 197040, Note_on_c, 9, 80, 68
25, 197099, Note_off_c, 9, 42, 0
25, 197127, Note_off_c, 9, 80, 0
25, 197280, Note_on_c, 9, 46, 111
25, 197280, Note_on_c, 9, 81, 92
25, 197364, Note_off_c, 9, 81, 0
25, 197392, Note_off_c, 9, 46, 0
25, 197760, Note_on_c, 9, 36, 111
25, 197760, Note_on_c, 9, 42, 107
25, 197889, Note_off_c, 9, 42, 0
25, 197911, Note_off_c, 9, 36, 0
25, 198000, Note_on_c, 9, 42, 79
25, 198069, Note_off_c, 9, 42, 0
25, 198240, Note_on_c, 9, 42, 104
25, 198348, Note_off_c, 9, 42, 0
25, 198480, Note_on_c, 9, 42, 70
25, 198536, Note_off_c, 9, 42, 0
25, 198720, Note_on_c, 9, 38, 111
25, 198720, Note_on_c, 9, 42, 104
25, 198835, Note_off_c, 9, 42, 0
25, 198881, Note_off_c, 9, 38, 0
25, 198960, Note_on_c, 9, 42, 63
25, 199016, Note_off_c, 9, 42, 0
25, 199200, Note_on_c, 9, 42, 107
25, 199304, Note_off_c, 9, 42, 0
25, 199440, Note_on_c, 9, 36, 116
25, 199440, Note_on_c, 9, 42, 59
25, 199480, Note_off_c, 9, 42, 0
25, 199528, Note_off_c, 9, 36, 0
25, 199680, Note_on_c, 9, 36, 116
25, 199680, Note_on_c, 9, 42, 100
25, 199789, Note_off_c, 9, 42, 0
25, 199808, Note_off_c, 9, 36, 0
25, 199920, Note_on_c, 9, 42, 54
25, 199960, Note_off_c, 9, 42, 0
25, 200160, Note_on_c, 9, 46, 107
25, 200265, Note_off_c, 9, 46, 0
25, 200640, Note_on_c, 9, 38, 116
25, 200640, Note_on_c, 9, 42, 100
25, 200640, Note_on_c, 9, 54, 111
25, 200640, Note_on_c, 9, 80, 44
25, 200709, Note_off_c, 9, 80, 0
25, 200752, Note_off_c, 9, 42, 0
25, 200766, Note_off_c, 9, 54, 0
25, 200784, Note_off_c, 9, 38, 0
25, 200880, Note_on_c, 9, 42, 62
25, 200880, Note_on_c, 9, 80, 68
25, 200939, Note_off_c, 9, 42, 0
25, 200967, Note_off_c, 9, 80, 0
25, 201120, Note_on_c, 9, 42, 100
25, 201120, Note_on_c, 9, 81, 92
25, 201204, Note_off_c, 9, 81, 0
25, 201232, Note_off_c, 9, 42, 0
25, 201360, Note_on_c, 9, 42, 62
25, 201419, Note_off_c, 9, 42, 0
25, 201600, Note_on_c, 9, 36, 111
25, 201600, Note_on_c, 9, 51, 92
25, 201692, Note_off_c, 9, 51, 0
25, 201729, Note_off_c, 9, 36, 0
25, 202560, Note_on_c, 9, 36, 111
25, 202560, Note_on_c, 9, 51, 89
25, 202649, Note_off_c, 9, 51, 0
25, 202726, Note_off_c, 9, 36, 0
25, 203520, Note_on_c, 9, 36, 121
25, 203520, Note_on_c, 9, 51, 92
25, 203599, Note_off_c, 9, 51, 0
25, 203639, Note_off_c, 9, 36, 0
25, 236204, Control_c, 9, 7, 127
25, 236204, Control_c, 9, 121, 0
25, 236209, End_track
26, 0, Start_track
26, 1005, Control_c, 10, 0, 0
26, 1010, Control_c, 10, 32, 0
26, 1015, Program_c, 10, 87
26, 1020, Control_c, 10, 7, 127
26, 1025, Control_c, 10, 10, 84
26, 1030, Control_c, 10, 11, 127
26, 1035, Control_c, 10, 91, 67
26, 1040, Control_c, 10, 93, 20
26, 1045, Control_c, 10, 74, 64
26, 1050, Control_c, 10, 71, 64
26, 1055, Control_c, 10, 73, 64
26, 1060, Control_c, 10, 72, 64
26, 1065, Control_c, 10, 94, 0
26, 13440, Note_on_c, 10, 86, 88
26, 14156, Note_off_c, 10, 86, 0
26, 14160, Note_on_c, 10, 84, 90
26, 14636, Note_off_c, 10, 84, 0
26, 14640, Note_on_c, 10, 82, 90
26, 15116, Note_off_c, 10, 82, 0
26, 15120, Note_on_c, 10, 84, 90
26, 15236, Note_off_c, 10, 84, 0
26, 15240, Note_on_c, 10, 82, 88
26, 15356, Note_off_c, 10, 82, 0
26, 15360, Note_on_c, 10, 81, 96
26, 15836, Note_off_c, 10, 81, 0
26, 15840, Note_on_c, 10, 79, 97
26, 15956, Note_off_c, 10, 79, 0
26, 15960, Note_on_c, 10, 76, 94
26, 16076, Note_off_c, 10, 76, 0
26, 16080, Note_on_c, 10, 74, 94
26, 16196, Note_off_c, 10, 74, 0
26, 16200, Note_on_c, 10, 71, 90
26, 16200, Control_c, 10, 7, 124
26, 16254, Control_c, 10, 7, 121
26, 16284, Control_c, 10, 7, 119
26, 16316, Note_off_c, 10, 71, 0
26, 16320, Note_on_c, 10, 69, 94
26, 16335, Control_c, 10, 7, 116
26, 16375, Control_c, 10, 7, 113
26, 16407, Control_c, 10, 7, 112
26, 16436, Note_off_c, 10, 69, 0
26, 16440, Note_on_c, 10, 67, 94
26, 16464, Control_c, 10, 7, 109
26, 16503, Control_c, 10, 7, 106
26, 16556, Note_off_c, 10, 67, 0
26, 16560, Note_on_c, 10, 64, 87
26, 16560, Control_c, 10, 7, 103
26, 16608, Control_c, 10, 7, 100
26, 16662, Control_c, 10, 7, 97
26, 16676, Note_off_c, 10, 64, 0
26, 16680, Note_on_c, 10, 62, 91
26, 16709, Control_c, 10, 7, 94
26, 16739, Control_c, 10, 7, 92
26, 16795, Control_c, 10, 7, 89
26, 16796, Note_off_c, 10, 62, 0
26, 16800, Note_on_c, 10, 59, 95
26, 16849, Control_c, 10, 7, 86
26, 16906, Control_c, 10, 7, 83
26, 16916, Note_off_c, 10, 59, 0
26, 16920, Note_on_c, 10, 57, 94
26, 16939, Control_c, 10, 7, 81
26, 16987, Control_c, 10, 7, 78
26, 17021, Control_c, 10, 7, 77
26, 17036, Note_off_c, 10, 57, 0
26, 17040, Note_on_c, 10, 55, 92
26, 17072, Control_c, 10, 7, 74
26, 17102, Control_c, 10, 7, 72
26, 17156, Note_off_c, 10, 55, 0
26, 17159, Control_c, 10, 7, 69
26, 17160, Note_on_c, 10, 52, 90
26, 17220, Control_c, 10, 7, 66
26, 17263, Control_c, 10, 7, 65
26, 17276, Note_off_c, 10, 52, 0
26, 17303, Control_c, 10, 7, 63
26, 17333, Control_c, 10, 7, 62
26, 17374, Control_c, 10, 7, 60
26, 17888, Control_c, 10, 7, 70
26, 17919, Control_c, 10, 7, 101
26, 17955, Control_c, 10, 7, 127
26, 80640, Note_on_c, 10, 86, 88
26, 81356, Note_off_c, 10, 86, 0
26, 81360, Note_on_c, 10, 84, 90
26, 81836, Note_off_c, 10, 84, 0
26, 81840, Note_on_c, 10, 82, 90
26, 82316, Note_off_c, 10, 82, 0
26, 82320, Note_on_c, 10, 84, 90
26, 82436, Note_off_c, 10, 84, 0
26, 82440, Note_on_c, 10, 82, 88
26, 82556, Note_off_c, 10, 82, 0
26, 82560, Note_on_c, 10, 81, 96
26, 83036, Note_off_c, 10, 81, 0
26, 83040, Note_on_c, 10, 79, 97
26, 83156, Note_off_c, 10, 79, 0
26, 83160, Note_on_c, 10, 76, 94
26, 83276, Note_off_c, 10, 76, 0
26, 83280, Note_on_c, 10, 74, 94
26, 83396, Note_off_c, 10, 74, 0
26, 83400, Note_on_c, 10, 71, 90
26, 83400, Control_c, 10, 7, 124
26, 83454, Control_c, 10, 7, 121
26, 83484, Control_c, 10, 7, 119
26, 83516, Note_off_c, 10, 71, 0
26, 83520, Note_on_c, 10, 69, 94
26, 83535, Control_c, 10, 7, 116
26, 83575, Control_c, 10, 7, 113
26, 83607, Control_c, 10, 7, 112
26, 83636, Note_off_c, 10, 69, 0
26, 83640, Note_on_c, 10, 67, 94
26, 83664, Control_c, 10, 7, 109
26, 83703, Control_c, 10, 7, 106
26, 83756, Note_off_c, 10, 67, 0
26, 83760, Note_on_c, 10, 64, 87
26, 83760, Control_c, 10, 7, 103
26, 83808, Control_c, 10, 7, 100
26, 83862, Control_c, 10, 7, 97
26, 83876, Note_off_c, 10, 64, 0
26, 83880, Note_on_c, 10, 62, 91
26, 83909, Control_c, 10, 7, 94
26, 83939, Control_c, 10, 7, 92
26, 83995, Control_c, 10, 7, 89
26, 83996, Note_off_c, 10, 62, 0
26, 84000, Note_on_c, 10, 59, 95
26, 84049, Control_c, 10, 7, 86
26, 84106, Control_c, 10, 7, 83
26, 84116, Note_off_c, 10, 59, 0
26, 84120, Note_on_c, 10, 57, 94
26, 84139, Control_c, 10, 7, 81
26, 84187, Control_c, 10, 7, 78
26, 84221, Control_c, 10, 7, 77
26, 84236, Note_off_c, 10, 57, 0
26, 84240, Note_on_c, 10, 55, 92
26, 84272, Control_c, 10, 7, 74
26, 84302, Control_c, 10, 7, 72
26, 84356, Note_off_c, 10, 55, 0
26, 84359, Control_c, 10, 7, 69
26, 84360, Note_on_c, 10, 52, 90
26, 84420, Control_c, 10, 7, 66
26, 84463, Control_c, 10, 7, 65
26, 84476, Note_off_c, 10, 52, 0
26, 84503, Control_c, 10, 7, 63
26, 84533, Control_c, 10, 7, 62
26, 84574, Control_c, 10, 7, 60
26, 85088, Control_c, 10, 7, 70
26, 85119, Control_c, 10, 7, 101
26, 85155, Control_c, 10, 7, 127
26, 155520, Note_on_c, 10, 86, 88
26, 156236, Note_off_c, 10, 86, 0
26, 156240, Note_on_c, 10, 84, 90
26, 156716, Note_off_c, 10, 84, 0
26, 156720, Note_on_c, 10, 82, 90
26, 157196, Note_off_c, 10, 82, 0
26, 157200, Note_on_c, 10, 84, 90
26, 157316, Note_off_c, 10, 84, 0
26, 157320, Note_on_c, 10, 82, 88
26, 157436, Note_off_c, 10, 82, 0
26, 157440, Note_on_c, 10, 81, 96
26, 157916, Note_off_c, 10, 81, 0
26, 157920, Note_on_c, 10, 79, 97
26, 158036, Note_off_c, 10, 79, 0
26, 158040, Note_on_c, 10, 76, 94
26, 158156, Note_off_c, 10, 76, 0
26, 158160, Note_on_c, 10, 74, 94
26, 158276, Note_off_c, 10, 74, 0
26, 158280, Note_on_c, 10, 71, 90
26, 158280, Control_c, 10, 7, 124
26, 158334, Control_c, 10, 7, 121
26, 158364, Control_c, 10, 7, 119
26, 158396, Note_off_c, 10, 71, 0
26, 158400, Note_on_c, 10, 69, 94
26, 158415, Control_c, 10, 7, 116
26, 158455, Control_c, 10, 7, 113
26, 158487, Control_c, 10, 7, 112
26, 158516, Note_off_c, 10, 69, 0
26, 158520, Note_on_c, 10, 67, 94
26, 158544, Control_c, 10, 7, 109
26, 158583, Control_c, 10, 7, 106
26, 158636, Note_off_c, 10, 67, 0
26, 158640, Note_on_c, 10, 64, 87
26, 158640, Control_c, 10, 7, 103
26, 158688, Control_c, 10, 7, 100
26, 158742, Control_c, 10, 7, 97
26, 158756, Note_off_c, 10, 64, 0
26, 158760, Note_on_c, 10, 62, 91
26, 158789, Control_c, 10, 7, 94
26, 158819, Control_c, 10, 7, 92
26, 158875, Control_c, 10, 7, 89
26, 158876, Note_off_c, 10, 62, 0
26, 158880, Note_on_c, 10, 59, 95
26, 158929, Control_c, 10, 7, 86
26, 158986, Control_c, 10, 7, 83
26, 158996, Note_off_c, 10, 59, 0
26, 159000, Note_on_c, 10, 57, 94
26, 159019, Control_c, 10, 7, 81
26, 159067, Control_c, 10, 7, 78
26, 159101, Control_c, 10, 7, 77
26, 159116, Note_off_c, 10, 57, 0
26, 159120, Note_on_c, 10, 55, 92
26, 159152, Control_c, 10, 7, 74
26, 159182, Control_c, 10, 7, 72
26, 159236, Note_off_c, 10, 55, 0
26, 159239, Control_c, 10, 7, 69
26, 159240, Note_on_c, 10, 52, 90
26, 159300, Control_c, 10, 7, 66
26, 159343, Control_c, 10, 7, 65
26, 159356, Note_off_c, 10, 52, 0
26, 159383, Control_c, 10, 7, 63
26, 159413, Control_c, 10, 7, 62
26, 159454, Control_c, 10, 7, 60
26, 159968, Control_c, 10, 7, 70
26, 159999, Control_c, 10, 7, 101
26, 160035, Control_c, 10, 7, 127
26, 236204, Control_c, 10, 7, 127
26, 236204, Control_c, 10, 121, 0
26, 236209, End_track
27, 0, Start_track
27, 1075, Control_c, 11, 0, 0
27, 1080, Control_c, 11, 32, 0
27, 1085, Program_c, 11, 10
27, 1090, Control_c, 11, 7, 127
27, 1095, Control_c, 11, 10, 64
27, 1100, Control_c, 11, 11, 127
27, 1105, Control_c, 11, 91, 67
27, 1110, Control_c, 11, 93, 15
27, 1115, Control_c, 11, 74, 64
27, 1120, Control_c, 11, 71, 64
27, 1125, Control_c, 11, 73, 64
27, 1130, Control_c, 11, 72, 64
27, 1135, Control_c, 11, 94, 0
27, 16320, Note_on_c, 11, 93, 84
27, 16396, Note_off_c, 11, 93, 0
27, 83520, Note_on_c, 11, 93, 84
27, 83596, Note_off_c, 11, 93, 0
27, 158400, Note_on_c, 11, 93, 84
27, 158476, Note_off_c, 11, 93, 0
27, 236204, Control_c, 11, 7, 127
27, 236204, Control_c, 11, 121, 0
27, 236209, End_track
28, 0, Start_track
28, 1145, Control_c, 12, 0, 0
28, 1150, Control_c, 12, 32, 0
28, 1155, Program_c, 12, 119
28, 1160, Control_c, 12, 7, 127
28, 1165, Control_c, 12, 10, 94
28, 1170, Control_c, 12, 11, 127
28, 1175, Control_c, 12, 91, 67
28, 1180, Control_c, 12, 93, 20
28, 1185, Control_c, 12, 74, 64
28, 1190, Control_c, 12, 71, 64
28, 1195, Control_c, 12, 73, 64
28, 1200, Control_c, 12, 72, 64
28, 1205, Control_c, 12, 94, 0
28, 46800, Note_on_c, 12, 81, 101
28, 48010, Note_off_c, 12, 81, 0
28, 236204, Control_c, 12, 7, 127
28, 236204, Control_c, 12, 121, 0
28, 236209, End_track
0, 0, End_of_file
