0, 0, Header, 1, 22, 120
1, 0, Start_track
1, 0, Time_signature, 4, 2, 24, 8
1, 0, Key_signature, 0, "major"
1, 0, Tempo, 1000000
1, 0, Marker_t, "I Believe I Can Fly"
1, 26400, Key_signature, -5, "major"
1, 26400, End_track
2, 0, Start_track
2, 0, MIDI_port, 0
2, 0, Title_t, " Synth Voice (Melody)"
2, 0, Program_c, 0, 54
2, 0, Control_c, 0, 7, 124
2, 0, Control_c, 0, 10, 55
2, 4263, Note_on_c, 0, 67, 127
2, 4304, Note_on_c, 0, 67, 0
2, 4320, Note_on_c, 0, 67, 127
2, 4379, Note_on_c, 0, 72, 119
2, 4382, Note_on_c, 0, 67, 0
2, 4429, Note_on_c, 0, 72, 0
2, 4438, Note_on_c, 0, 72, 108
2, 4498, Note_on_c, 0, 74, 109
2, 4502, Note_on_c, 0, 72, 0
2, 4545, Note_on_c, 0, 74, 0
2, 4555, Note_on_c, 0, 74, 109
2, 4614, Note_on_c, 0, 76, 119
2, 4617, Note_on_c, 0, 74, 0
2, 4664, Note_on_c, 0, 76, 0
2, 4674, Note_on_c, 0, 76, 113
2, 4738, Note_on_c, 0, 72, 117
2, 4739, Note_on_c, 0, 76, 0
2, 4795, Note_on_c, 0, 74, 105
2, 4803, Note_on_c, 0, 72, 0
2, 4811, Note_on_c, 0, 76, 116
2, 4814, Note_on_c, 0, 74, 0
2, 4825, Note_on_c, 0, 74, 113
2, 4833, Note_on_c, 0, 76, 0
2, 5220, Note_on_c, 0, 74, 0
2, 5220, Note_on_c, 0, 67, 127
2, 5268, Note_on_c, 0, 67, 0
2, 5279, Note_on_c, 0, 67, 127
2, 5341, Note_on_c, 0, 72, 127
2, 5342, Note_on_c, 0, 67, 0
2, 5383, Note_on_c, 0, 72, 0
2, 5399, Note_on_c, 0, 72, 123
2, 5457, Note_on_c, 0, 74, 114
2, 5462, Note_on_c, 0, 72, 0
2, 5503, Note_on_c, 0, 74, 0
2, 5516, Note_on_c, 0, 74, 119
2, 5574, Note_on_c, 0, 76, 117
2, 5578, Note_on_c, 0, 74, 0
2, 5621, Note_on_c, 0, 76, 0
2, 5631, Note_on_c, 0, 76, 113
2, 5693, Note_on_c, 0, 72, 127
2, 5695, Note_on_c, 0, 76, 0
2, 5751, Note_on_c, 0, 74, 111
2, 5761, Note_on_c, 0, 72, 0
2, 5772, Note_on_c, 0, 76, 122
2, 5776, Note_on_c, 0, 74, 0
2, 5788, Note_on_c, 0, 74, 108
2, 5796, Note_on_c, 0, 76, 0
2, 6178, Note_on_c, 0, 74, 0
2, 6179, Note_on_c, 0, 67, 127
2, 6228, Note_on_c, 0, 67, 0
2, 6240, Note_on_c, 0, 67, 127
2, 6298, Note_on_c, 0, 67, 0
2, 6300, Note_on_c, 0, 72, 114
2, 6347, Note_on_c, 0, 72, 0
2, 6359, Note_on_c, 0, 72, 127
2, 6416, Note_on_c, 0, 74, 109
2, 6421, Note_on_c, 0, 72, 0
2, 6462, Note_on_c, 0, 74, 0
2, 6476, Note_on_c, 0, 74, 127
2, 6532, Note_on_c, 0, 76, 127
2, 6538, Note_on_c, 0, 74, 0
2, 6580, Note_on_c, 0, 76, 0
2, 6594, Note_on_c, 0, 76, 120
2, 6654, Note_on_c, 0, 76, 0
2, 6655, Note_on_c, 0, 72, 121
2, 6715, Note_on_c, 0, 74, 108
2, 6727, Note_on_c, 0, 72, 0
2, 6732, Note_on_c, 0, 76, 123
2, 6736, Note_on_c, 0, 74, 0
2, 6750, Note_on_c, 0, 74, 111
2, 6765, Note_on_c, 0, 76, 0
2, 6769, Note_on_c, 0, 72, 107
2, 6775, Note_on_c, 0, 74, 0
2, 6788, Note_on_c, 0, 74, 127
2, 6791, Note_on_c, 0, 72, 0
2, 7135, Note_on_c, 0, 74, 0
2, 7138, Note_on_c, 0, 67, 127
2, 7187, Note_on_c, 0, 67, 0
2, 7202, Note_on_c, 0, 67, 127
2, 7261, Note_on_c, 0, 72, 111
2, 7263, Note_on_c, 0, 67, 0
2, 7311, Note_on_c, 0, 72, 0
2, 7323, Note_on_c, 0, 72, 126
2, 7381, Note_on_c, 0, 74, 116
2, 7387, Note_on_c, 0, 72, 0
2, 7427, Note_on_c, 0, 74, 0
2, 7441, Note_on_c, 0, 74, 125
2, 7499, Note_on_c, 0, 76, 119
2, 7506, Note_on_c, 0, 74, 0
2, 7546, Note_on_c, 0, 76, 0
2, 7557, Note_on_c, 0, 76, 119
2, 7620, Note_on_c, 0, 72, 125
2, 7623, Note_on_c, 0, 76, 0
2, 7675, Note_on_c, 0, 74, 111
2, 7682, Note_on_c, 0, 72, 0
2, 7698, Note_on_c, 0, 76, 113
2, 7704, Note_on_c, 0, 74, 0
2, 7713, Note_on_c, 0, 74, 120
2, 7724, Note_on_c, 0, 76, 0
2, 7903, Note_on_c, 0, 74, 0
2, 7913, Note_on_c, 0, 72, 127
2, 7985, Note_on_c, 0, 72, 0
2, 7997, Note_on_c, 0, 72, 127
2, 8066, Note_on_c, 0, 72, 0
2, 8072, Note_on_c, 0, 71, 127
2, 8146, Note_on_c, 0, 71, 0
2, 8150, Note_on_c, 0, 69, 127
2, 8183, Note_on_c, 0, 72, 127
2, 8187, Note_on_c, 0, 69, 0
2, 8457, Note_on_c, 0, 72, 0
2, 8460, Note_on_c, 0, 69, 127
2, 8520, Note_on_c, 0, 72, 126
2, 8529, Note_on_c, 0, 69, 0
2, 8563, Note_on_c, 0, 74, 122
2, 8568, Note_on_c, 0, 72, 0
2, 8592, Note_on_c, 0, 74, 0
2, 8603, Note_on_c, 0, 76, 127
2, 8626, Note_on_c, 0, 74, 117
2, 8636, Note_on_c, 0, 76, 0
2, 8946, Note_on_c, 0, 72, 127
2, 8955, Note_on_c, 0, 74, 0
2, 8991, Note_on_c, 0, 72, 0
2, 9007, Note_on_c, 0, 72, 127
2, 9062, Note_on_c, 0, 71, 127
2, 9074, Note_on_c, 0, 72, 0
2, 9095, Note_on_c, 0, 71, 0
2, 9095, Note_on_c, 0, 69, 127
2, 9122, Note_on_c, 0, 67, 117
2, 9127, Note_on_c, 0, 69, 0
2, 9415, Note_on_c, 0, 67, 0
2, 9418, Note_on_c, 0, 72, 127
2, 9475, Note_on_c, 0, 74, 127
2, 9483, Note_on_c, 0, 72, 0
2, 9531, Note_on_c, 0, 74, 0
2, 9533, Note_on_c, 0, 76, 121
2, 9570, Note_on_c, 0, 76, 0
2, 9571, Note_on_c, 0, 77, 127
2, 9594, Note_on_c, 0, 76, 127
2, 9605, Note_on_c, 0, 77, 0
2, 9616, Note_on_c, 0, 74, 118
2, 9621, Note_on_c, 0, 76, 0
2, 9888, Note_on_c, 0, 74, 0
2, 9891, Note_on_c, 0, 76, 124
2, 9914, Note_on_c, 0, 76, 0
2, 9925, Note_on_c, 0, 76, 127
2, 9943, Note_on_c, 0, 76, 0
2, 9954, Note_on_c, 0, 76, 125
2, 9992, Note_on_c, 0, 74, 114
2, 10002, Note_on_c, 0, 76, 0
2, 10023, Note_on_c, 0, 74, 0
2, 10025, Note_on_c, 0, 72, 127
2, 10055, Note_on_c, 0, 72, 0
2, 10069, Note_on_c, 0, 72, 127
2, 10377, Note_on_c, 0, 76, 127
2, 10381, Note_on_c, 0, 72, 0
2, 10402, Note_on_c, 0, 76, 0
2, 10409, Note_on_c, 0, 76, 127
2, 10431, Note_on_c, 0, 76, 0
2, 10443, Note_on_c, 0, 76, 121
2, 10483, Note_on_c, 0, 74, 120
2, 10494, Note_on_c, 0, 76, 0
2, 10517, Note_on_c, 0, 74, 0
2, 10517, Note_on_c, 0, 72, 127
2, 10551, Note_on_c, 0, 72, 0
2, 10551, Note_on_c, 0, 74, 126
2, 10610, Note_on_c, 0, 74, 0
2, 10615, Note_on_c, 0, 72, 126
2, 10634, Note_on_c, 0, 72, 0
2, 10650, Note_on_c, 0, 72, 127
2, 10820, Note_on_c, 0, 72, 0
2, 10831, Note_on_c, 0, 72, 127
2, 10858, Note_on_c, 0, 76, 127
2, 10865, Note_on_c, 0, 72, 0
2, 10882, Note_on_c, 0, 76, 0
2, 10891, Note_on_c, 0, 76, 110
2, 10906, Note_on_c, 0, 76, 0
2, 10914, Note_on_c, 0, 76, 121
2, 10939, Note_on_c, 0, 76, 0
2, 10951, Note_on_c, 0, 76, 116
2, 10964, Note_on_c, 0, 76, 0
2, 10974, Note_on_c, 0, 76, 123
2, 11003, Note_on_c, 0, 76, 0
2, 11014, Note_on_c, 0, 76, 117
2, 11027, Note_on_c, 0, 76, 0
2, 11035, Note_on_c, 0, 76, 110
2, 11076, Note_on_c, 0, 77, 127
2, 11080, Note_on_c, 0, 76, 0
2, 11115, Note_on_c, 0, 77, 0
2, 11126, Note_on_c, 0, 77, 127
2, 11337, Note_on_c, 0, 76, 127
2, 11343, Note_on_c, 0, 77, 0
2, 11365, Note_on_c, 0, 76, 0
2, 11372, Note_on_c, 0, 76, 111
2, 11387, Note_on_c, 0, 76, 0
2, 11394, Note_on_c, 0, 76, 114
2, 11451, Note_on_c, 0, 76, 0
2, 11461, Note_on_c, 0, 76, 121
2, 11501, Note_on_c, 0, 76, 0
2, 11517, Note_on_c, 0, 76, 127
2, 11579, Note_on_c, 0, 74, 127
2, 11581, Note_on_c, 0, 76, 0
2, 11603, Note_on_c, 0, 74, 0
2, 11613, Note_on_c, 0, 74, 127
2, 11825, Note_on_c, 0, 76, 127
2, 11827, Note_on_c, 0, 74, 0
2, 11849, Note_on_c, 0, 76, 0
2, 11857, Note_on_c, 0, 76, 127
2, 11878, Note_on_c, 0, 76, 0
2, 11890, Note_on_c, 0, 76, 127
2, 11928, Note_on_c, 0, 76, 0
2, 11930, Note_on_c, 0, 74, 127
2, 11961, Note_on_c, 0, 72, 120
2, 11969, Note_on_c, 0, 74, 0
2, 11991, Note_on_c, 0, 72, 0
2, 11999, Note_on_c, 0, 72, 122
2, 12261, Note_on_c, 0, 72, 0
2, 12277, Note_on_c, 0, 72, 127
2, 12298, Note_on_c, 0, 76, 124
2, 12302, Note_on_c, 0, 72, 0
2, 12324, Note_on_c, 0, 76, 0
2, 12334, Note_on_c, 0, 76, 127
2, 12348, Note_on_c, 0, 76, 0
2, 12356, Note_on_c, 0, 76, 123
2, 12390, Note_on_c, 0, 74, 107
2, 12402, Note_on_c, 0, 76, 0
2, 12404, Note_on_c, 0, 74, 0
2, 12416, Note_on_c, 0, 74, 127
2, 12448, Note_on_c, 0, 72, 127
2, 12452, Note_on_c, 0, 74, 0
2, 12472, Note_on_c, 0, 74, 127
2, 12479, Note_on_c, 0, 72, 0
2, 12532, Note_on_c, 0, 72, 126
2, 12537, Note_on_c, 0, 74, 0
2, 12563, Note_on_c, 0, 74, 127
2, 12572, Note_on_c, 0, 72, 0
2, 12620, Note_on_c, 0, 77, 120
2, 12626, Note_on_c, 0, 74, 0
2, 12772, Note_on_c, 0, 76, 127
2, 12781, Note_on_c, 0, 77, 0
2, 12798, Note_on_c, 0, 76, 0
2, 12807, Note_on_c, 0, 76, 125
2, 12827, Note_on_c, 0, 76, 0
2, 12839, Note_on_c, 0, 76, 119
2, 12883, Note_on_c, 0, 74, 126
2, 12887, Note_on_c, 0, 76, 0
2, 12914, Note_on_c, 0, 72, 118
2, 12918, Note_on_c, 0, 74, 0
2, 12943, Note_on_c, 0, 72, 0
2, 12954, Note_on_c, 0, 72, 127
2, 13245, Note_on_c, 0, 76, 127
2, 13255, Note_on_c, 0, 72, 0
2, 13274, Note_on_c, 0, 76, 0
2, 13286, Note_on_c, 0, 76, 121
2, 13310, Note_on_c, 0, 76, 0
2, 13321, Note_on_c, 0, 76, 127
2, 13365, Note_on_c, 0, 74, 98
2, 13375, Note_on_c, 0, 76, 0
2, 13402, Note_on_c, 0, 72, 122
2, 13407, Note_on_c, 0, 74, 0
2, 13444, Note_on_c, 0, 74, 122
2, 13446, Note_on_c, 0, 72, 0
2, 13493, Note_on_c, 0, 72, 127
2, 13497, Note_on_c, 0, 74, 0
2, 13736, Note_on_c, 0, 76, 117
2, 13754, Note_on_c, 0, 72, 0
2, 13763, Note_on_c, 0, 76, 0
2, 13771, Note_on_c, 0, 76, 127
2, 13792, Note_on_c, 0, 76, 0
2, 13802, Note_on_c, 0, 76, 111
2, 13837, Note_on_c, 0, 74, 99
2, 13844, Note_on_c, 0, 76, 0
2, 13875, Note_on_c, 0, 72, 123
2, 13879, Note_on_c, 0, 74, 0
2, 13902, Note_on_c, 0, 72, 0
2, 13912, Note_on_c, 0, 72, 119
2, 13940, Note_on_c, 0, 71, 127
2, 13946, Note_on_c, 0, 72, 0
2, 13967, Note_on_c, 0, 69, 115
2, 13969, Note_on_c, 0, 71, 0
2, 14381, Note_on_c, 0, 69, 0
2, 14833, Note_on_c, 0, 67, 125
2, 14868, Note_on_c, 0, 67, 0
2, 14885, Note_on_c, 0, 67, 126
2, 14948, Note_on_c, 0, 72, 127
2, 14950, Note_on_c, 0, 67, 0
2, 14986, Note_on_c, 0, 72, 0
2, 14999, Note_on_c, 0, 72, 127
2, 15053, Note_on_c, 0, 72, 0
2, 15057, Note_on_c, 0, 74, 127
2, 15103, Note_on_c, 0, 74, 0
2, 15119, Note_on_c, 0, 74, 127
2, 15177, Note_on_c, 0, 76, 124
2, 15196, Note_on_c, 0, 74, 0
2, 15219, Note_on_c, 0, 76, 0
2, 15230, Note_on_c, 0, 76, 127
2, 15293, Note_on_c, 0, 72, 121
2, 15295, Note_on_c, 0, 76, 0
2, 15353, Note_on_c, 0, 74, 123
2, 15359, Note_on_c, 0, 72, 0
2, 15371, Note_on_c, 0, 76, 125
2, 15374, Note_on_c, 0, 74, 0
2, 15382, Note_on_c, 0, 74, 100
2, 15393, Note_on_c, 0, 76, 0
2, 15774, Note_on_c, 0, 74, 0
2, 15780, Note_on_c, 0, 67, 127
2, 15829, Note_on_c, 0, 67, 0
2, 15840, Note_on_c, 0, 67, 124
2, 15904, Note_on_c, 0, 72, 126
2, 15911, Note_on_c, 0, 67, 0
2, 15949, Note_on_c, 0, 72, 0
2, 15960, Note_on_c, 0, 72, 126
2, 16019, Note_on_c, 0, 74, 119
2, 16022, Note_on_c, 0, 72, 0
2, 16063, Note_on_c, 0, 74, 0
2, 16075, Note_on_c, 0, 74, 124
2, 16136, Note_on_c, 0, 76, 108
2, 16140, Note_on_c, 0, 74, 0
2, 16180, Note_on_c, 0, 76, 0
2, 16193, Note_on_c, 0, 76, 127
2, 16256, Note_on_c, 0, 72, 122
2, 16257, Note_on_c, 0, 76, 0
2, 16314, Note_on_c, 0, 74, 118
2, 16318, Note_on_c, 0, 72, 0
2, 16326, Note_on_c, 0, 76, 123
2, 16334, Note_on_c, 0, 74, 0
2, 16340, Note_on_c, 0, 74, 100
2, 16347, Note_on_c, 0, 76, 0
2, 16737, Note_on_c, 0, 67, 127
2, 16742, Note_on_c, 0, 74, 0
2, 16786, Note_on_c, 0, 67, 0
2, 16797, Note_on_c, 0, 67, 123
2, 16861, Note_on_c, 0, 72, 111
2, 16865, Note_on_c, 0, 67, 0
2, 16909, Note_on_c, 0, 72, 0
2, 16918, Note_on_c, 0, 72, 119
2, 16975, Note_on_c, 0, 74, 117
2, 16977, Note_on_c, 0, 72, 0
2, 17024, Note_on_c, 0, 74, 0
2, 17032, Note_on_c, 0, 74, 124
2, 17095, Note_on_c, 0, 76, 109
2, 17098, Note_on_c, 0, 74, 0
2, 17146, Note_on_c, 0, 76, 0
2, 17157, Note_on_c, 0, 76, 108
2, 17216, Note_on_c, 0, 72, 110
2, 17223, Note_on_c, 0, 76, 0
2, 17273, Note_on_c, 0, 74, 105
2, 17278, Note_on_c, 0, 72, 0
2, 17289, Note_on_c, 0, 76, 126
2, 17293, Note_on_c, 0, 74, 0
2, 17299, Note_on_c, 0, 74, 114
2, 17311, Note_on_c, 0, 76, 0
2, 17691, Note_on_c, 0, 74, 0
2, 17695, Note_on_c, 0, 67, 123
2, 17750, Note_on_c, 0, 67, 0
2, 17761, Note_on_c, 0, 67, 127
2, 17821, Note_on_c, 0, 72, 125
2, 17823, Note_on_c, 0, 67, 0
2, 17866, Note_on_c, 0, 72, 0
2, 17876, Note_on_c, 0, 72, 123
2, 17942, Note_on_c, 0, 74, 106
2, 17945, Note_on_c, 0, 72, 0
2, 17987, Note_on_c, 0, 74, 0
2, 17998, Note_on_c, 0, 74, 127
2, 18059, Note_on_c, 0, 76, 112
2, 18064, Note_on_c, 0, 74, 0
2, 18100, Note_on_c, 0, 76, 0
2, 18114, Note_on_c, 0, 76, 127
2, 18176, Note_on_c, 0, 72, 118
2, 18179, Note_on_c, 0, 76, 0
2, 18233, Note_on_c, 0, 74, 123
2, 18240, Note_on_c, 0, 72, 0
2, 18251, Note_on_c, 0, 76, 127
2, 18255, Note_on_c, 0, 74, 0
2, 18267, Note_on_c, 0, 74, 118
2, 18280, Note_on_c, 0, 76, 0
2, 18287, Note_on_c, 0, 72, 118
2, 18293, Note_on_c, 0, 74, 0
2, 18305, Note_on_c, 0, 74, 127
2, 18309, Note_on_c, 0, 72, 0
2, 18469, Note_on_c, 0, 74, 0
2, 18478, Note_on_c, 0, 72, 127
2, 18543, Note_on_c, 0, 72, 0
2, 18561, Note_on_c, 0, 72, 127
2, 18635, Note_on_c, 0, 71, 127
2, 18646, Note_on_c, 0, 72, 0
2, 18697, Note_on_c, 0, 71, 0
2, 18697, Note_on_c, 0, 69, 127
2, 18727, Note_on_c, 0, 72, 124
2, 18732, Note_on_c, 0, 69, 0
2, 19013, Note_on_c, 0, 72, 0
2, 19015, Note_on_c, 0, 69, 127
2, 19051, Note_on_c, 0, 72, 113
2, 19062, Note_on_c, 0, 69, 0
2, 19113, Note_on_c, 0, 74, 125
2, 19117, Note_on_c, 0, 72, 0
2, 19144, Note_on_c, 0, 74, 0
2, 19150, Note_on_c, 0, 76, 127
2, 19176, Note_on_c, 0, 74, 127
2, 19182, Note_on_c, 0, 76, 0
2, 19499, Note_on_c, 0, 72, 127
2, 19502, Note_on_c, 0, 74, 0
2, 19530, Note_on_c, 0, 74, 127
2, 19532, Note_on_c, 0, 72, 0
2, 19555, Note_on_c, 0, 72, 127
2, 19563, Note_on_c, 0, 74, 0
2, 19616, Note_on_c, 0, 72, 0
2, 19617, Note_on_c, 0, 71, 118
2, 19647, Note_on_c, 0, 69, 127
2, 19657, Note_on_c, 0, 71, 0
2, 19683, Note_on_c, 0, 67, 127
2, 19684, Note_on_c, 0, 69, 0
2, 19926, Note_on_c, 0, 67, 0
2, 19975, Note_on_c, 0, 72, 115
2, 19978, Note_on_c, 0, 77, 81
2, 19983, Note_on_c, 0, 77, 0
2, 20031, Note_on_c, 0, 74, 127
2, 20037, Note_on_c, 0, 72, 0
2, 20081, Note_on_c, 0, 74, 0
2, 20087, Note_on_c, 0, 76, 117
2, 20114, Note_on_c, 0, 76, 0
2, 20124, Note_on_c, 0, 77, 127
2, 20149, Note_on_c, 0, 76, 127
2, 20160, Note_on_c, 0, 77, 0
2, 20168, Note_on_c, 0, 74, 124
2, 20175, Note_on_c, 0, 76, 0
2, 20448, Note_on_c, 0, 74, 0
2, 20456, Note_on_c, 0, 76, 127
2, 20477, Note_on_c, 0, 76, 0
2, 20485, Note_on_c, 0, 76, 127
2, 20507, Note_on_c, 0, 76, 0
2, 20519, Note_on_c, 0, 76, 127
2, 20562, Note_on_c, 0, 74, 127
2, 20568, Note_on_c, 0, 76, 0
2, 20591, Note_on_c, 0, 72, 123
2, 20594, Note_on_c, 0, 74, 0
2, 20625, Note_on_c, 0, 72, 0
2, 20639, Note_on_c, 0, 72, 127
2, 20935, Note_on_c, 0, 76, 127
2, 20943, Note_on_c, 0, 72, 0
2, 20959, Note_on_c, 0, 76, 0
2, 20967, Note_on_c, 0, 76, 127
2, 20983, Note_on_c, 0, 76, 0
2, 20996, Note_on_c, 0, 76, 120
2, 21036, Note_on_c, 0, 74, 105
2, 21065, Note_on_c, 0, 76, 0
2, 21068, Note_on_c, 0, 72, 121
2, 21071, Note_on_c, 0, 74, 0
2, 21107, Note_on_c, 0, 72, 0
2, 21115, Note_on_c, 0, 74, 127
2, 21174, Note_on_c, 0, 74, 0
2, 21177, Note_on_c, 0, 72, 127
2, 21198, Note_on_c, 0, 72, 0
2, 21210, Note_on_c, 0, 72, 127
2, 21378, Note_on_c, 0, 72, 0
2, 21391, Note_on_c, 0, 72, 125
2, 21417, Note_on_c, 0, 76, 125
2, 21418, Note_on_c, 0, 72, 0
2, 21444, Note_on_c, 0, 76, 0
2, 21455, Note_on_c, 0, 76, 127
2, 21472, Note_on_c, 0, 76, 0
2, 21481, Note_on_c, 0, 76, 127
2, 21509, Note_on_c, 0, 76, 0
2, 21518, Note_on_c, 0, 76, 126
2, 21530, Note_on_c, 0, 76, 0
2, 21541, Note_on_c, 0, 76, 127
2, 21569, Note_on_c, 0, 76, 0
2, 21578, Note_on_c, 0, 76, 127
2, 21591, Note_on_c, 0, 76, 0
2, 21603, Note_on_c, 0, 76, 127
2, 21640, Note_on_c, 0, 76, 0
2, 21644, Note_on_c, 0, 77, 126
2, 21682, Note_on_c, 0, 77, 0
2, 21692, Note_on_c, 0, 77, 127
2, 21895, Note_on_c, 0, 76, 127
2, 21913, Note_on_c, 0, 77, 0
2, 21924, Note_on_c, 0, 76, 0
2, 21935, Note_on_c, 0, 76, 116
2, 21947, Note_on_c, 0, 76, 0
2, 21955, Note_on_c, 0, 76, 127
2, 22010, Note_on_c, 0, 76, 0
2, 22020, Note_on_c, 0, 76, 122
2, 22062, Note_on_c, 0, 76, 0
2, 22077, Note_on_c, 0, 76, 127
2, 22140, Note_on_c, 0, 74, 127
2, 22144, Note_on_c, 0, 76, 0
2, 22162, Note_on_c, 0, 74, 0
2, 22172, Note_on_c, 0, 74, 127
2, 22378, Note_on_c, 0, 76, 125
2, 22382, Note_on_c, 0, 74, 0
2, 22403, Note_on_c, 0, 76, 0
2, 22413, Note_on_c, 0, 76, 125
2, 22434, Note_on_c, 0, 76, 0
2, 22442, Note_on_c, 0, 76, 121
2, 22487, Note_on_c, 0, 74, 125
2, 22493, Note_on_c, 0, 76, 0
2, 22516, Note_on_c, 0, 72, 127
2, 22521, Note_on_c, 0, 74, 0
2, 22545, Note_on_c, 0, 72, 0
2, 22560, Note_on_c, 0, 72, 127
2, 22824, Note_on_c, 0, 72, 0
2, 22835, Note_on_c, 0, 72, 121
2, 22853, Note_on_c, 0, 76, 118
2, 22859, Note_on_c, 0, 76, 121
2, 22861, Note_on_c, 0, 72, 0
2, 22880, Note_on_c, 0, 76, 0
2, 22882, Note_on_c, 0, 76, 0
2, 22891, Note_on_c, 0, 76, 127
2, 22892, Note_on_c, 0, 76, 117
2, 22904, Note_on_c, 0, 76, 0
2, 22907, Note_on_c, 0, 76, 0
2, 22912, Note_on_c, 0, 76, 119
2, 22918, Note_on_c, 0, 76, 126
2, 22949, Note_on_c, 0, 74, 123
2, 22950, Note_on_c, 0, 74, 80
2, 22955, Note_on_c, 0, 76, 0
2, 22959, Note_on_c, 0, 76, 0
2, 22964, Note_on_c, 0, 74, 0
2, 22968, Note_on_c, 0, 74, 0
2, 22973, Note_on_c, 0, 74, 122
2, 22976, Note_on_c, 0, 74, 127
2, 23008, Note_on_c, 0, 72, 126
2, 23009, Note_on_c, 0, 72, 127
2, 23010, Note_on_c, 0, 74, 0
2, 23010, Note_on_c, 0, 74, 0
2, 23033, Note_on_c, 0, 74, 127
2, 23034, Note_on_c, 0, 74, 127
2, 23038, Note_on_c, 0, 72, 0
2, 23038, Note_on_c, 0, 72, 0
2, 23090, Note_on_c, 0, 74, 0
2, 23090, Note_on_c, 0, 72, 127
2, 23094, Note_on_c, 0, 72, 115
2, 23096, Note_on_c, 0, 74, 0
2, 23125, Note_on_c, 0, 74, 126
2, 23126, Note_on_c, 0, 74, 122
2, 23132, Note_on_c, 0, 72, 0
2, 23134, Note_on_c, 0, 72, 0
2, 23173, Note_on_c, 0, 77, 95
2, 23175, Note_on_c, 0, 77, 127
2, 23176, Note_on_c, 0, 74, 0
2, 23181, Note_on_c, 0, 74, 0
2, 23337, Note_on_c, 0, 76, 127
2, 23339, Note_on_c, 0, 76, 127
2, 23344, Note_on_c, 0, 77, 0
2, 23347, Note_on_c, 0, 77, 0
2, 23362, Note_on_c, 0, 76, 0
2, 23366, Note_on_c, 0, 76, 0
2, 23372, Note_on_c, 0, 76, 117
2, 23376, Note_on_c, 0, 76, 125
2, 23388, Note_on_c, 0, 76, 0
2, 23394, Note_on_c, 0, 76, 0
2, 23400, Note_on_c, 0, 76, 106
2, 23402, Note_on_c, 0, 76, 120
2, 23439, Note_on_c, 0, 74, 127
2, 23442, Note_on_c, 0, 76, 0
2, 23446, Note_on_c, 0, 74, 121
2, 23449, Note_on_c, 0, 76, 0
2, 23471, Note_on_c, 0, 72, 127
2, 23476, Note_on_c, 0, 74, 0
2, 23482, Note_on_c, 0, 72, 127
2, 23489, Note_on_c, 0, 74, 0
2, 23502, Note_on_c, 0, 72, 0
2, 23512, Note_on_c, 0, 72, 121
2, 23513, Note_on_c, 0, 72, 0
2, 23522, Note_on_c, 0, 72, 124
2, 23813, Note_on_c, 0, 76, 122
2, 23818, Note_on_c, 0, 76, 114
2, 23820, Note_on_c, 0, 72, 0
2, 23838, Note_on_c, 0, 72, 0
2, 23839, Note_on_c, 0, 76, 0
2, 23847, Note_on_c, 0, 76, 0
2, 23849, Note_on_c, 0, 76, 112
2, 23856, Note_on_c, 0, 76, 127
2, 23870, Note_on_c, 0, 76, 0
2, 23880, Note_on_c, 0, 76, 0
2, 23882, Note_on_c, 0, 76, 127
2, 23887, Note_on_c, 0, 76, 126
2, 23927, Note_on_c, 0, 74, 99
2, 23929, Note_on_c, 0, 74, 117
2, 23935, Note_on_c, 0, 76, 0
2, 23938, Note_on_c, 0, 76, 0
2, 23965, Note_on_c, 0, 72, 109
2, 23967, Note_on_c, 0, 72, 103
2, 23968, Note_on_c, 0, 74, 0
2, 23974, Note_on_c, 0, 74, 0
2, 23994, Note_on_c, 0, 72, 0
2, 24008, Note_on_c, 0, 74, 122
2, 24011, Note_on_c, 0, 72, 0
2, 24035, Note_on_c, 0, 72, 125
2, 24041, Note_on_c, 0, 74, 0
2, 24270, Note_on_c, 0, 67, 112
2, 24272, Note_on_c, 0, 72, 0
2, 24301, Note_on_c, 0, 74, 118
2, 24313, Note_on_c, 0, 67, 0
2, 24329, Note_on_c, 0, 74, 0
2, 24338, Note_on_c, 0, 74, 127
2, 24363, Note_on_c, 0, 74, 0
2, 24371, Note_on_c, 0, 74, 127
2, 24417, Note_on_c, 0, 72, 125
2, 24424, Note_on_c, 0, 74, 0
2, 24445, Note_on_c, 0, 71, 127
2, 24452, Note_on_c, 0, 72, 0
2, 24480, Note_on_c, 0, 71, 0
2, 24480, Note_on_c, 0, 72, 125
2, 24498, Note_on_c, 0, 71, 127
2, 24501, Note_on_c, 0, 72, 0
2, 24516, Note_on_c, 0, 69, 127
2, 24522, Note_on_c, 0, 71, 0
2, 24781, Note_on_c, 0, 72, 127
2, 24782, Note_on_c, 0, 71, 124
2, 24784, Note_on_c, 0, 71, 0
2, 24787, Note_on_c, 0, 69, 0
2, 24902, Note_on_c, 0, 72, 0
2, 24902, Note_on_c, 0, 67, 127
2, 24962, Note_on_c, 0, 72, 127
2, 24965, Note_on_c, 0, 67, 0
2, 25018, Note_on_c, 0, 74, 127
2, 25024, Note_on_c, 0, 72, 0
2, 25040, Note_on_c, 0, 74, 0
2, 25046, Note_on_c, 0, 74, 79
2, 25046, Note_on_c, 0, 76, 127
2, 25053, Note_on_c, 0, 74, 0
2, 25125, Note_on_c, 0, 76, 0
2, 25125, Note_on_c, 0, 77, 127
2, 25153, Note_on_c, 0, 77, 0
2, 25158, Note_on_c, 0, 76, 127
2, 25193, Note_on_c, 0, 74, 127
2, 25195, Note_on_c, 0, 76, 0
2, 25385, Note_on_c, 0, 74, 0
2, 25410, Note_on_c, 0, 67, 127
2, 25470, Note_on_c, 0, 65, 126
2, 25499, Note_on_c, 0, 67, 0
2, 25559, Note_on_c, 0, 65, 0
2, 25560, Note_on_c, 0, 64, 123
2, 25629, Note_on_c, 0, 67, 116
2, 25649, Note_on_c, 0, 64, 0
2, 25674, Note_on_c, 0, 72, 127
2, 25677, Note_on_c, 0, 67, 0
2, 25734, Note_on_c, 0, 74, 123
2, 25745, Note_on_c, 0, 72, 0
2, 25795, Note_on_c, 0, 72, 114
2, 25800, Note_on_c, 0, 74, 0
2, 26034, Note_on_c, 0, 72, 0
2, 26151, Note_on_c, 0, 73, 127
2, 26216, Note_on_c, 0, 73, 0
2, 26227, Note_on_c, 0, 73, 127
2, 26311, Note_on_c, 0, 72, 117
2, 26342, Note_on_c, 0, 73, 0
2, 26367, Note_on_c, 0, 72, 0
2, 26367, Note_on_c, 0, 70, 127
2, 26406, Note_on_c, 0, 73, 125
2, 26416, Note_on_c, 0, 70, 0
2, 26698, Note_on_c, 0, 73, 0
2, 26700, Note_on_c, 0, 70, 127
2, 26759, Note_on_c, 0, 73, 120
2, 26767, Note_on_c, 0, 70, 0
2, 26808, Note_on_c, 0, 75, 127
2, 26812, Note_on_c, 0, 73, 0
2, 26840, Note_on_c, 0, 75, 0
2, 26844, Note_on_c, 0, 77, 121
2, 26872, Note_on_c, 0, 75, 127
2, 26878, Note_on_c, 0, 77, 0
2, 27177, Note_on_c, 0, 73, 125
2, 27178, Note_on_c, 0, 75, 0
2, 27207, Note_on_c, 0, 75, 127
2, 27212, Note_on_c, 0, 73, 0
2, 27231, Note_on_c, 0, 73, 127
2, 27235, Note_on_c, 0, 75, 0
2, 27294, Note_on_c, 0, 72, 127
2, 27295, Note_on_c, 0, 73, 0
2, 27327, Note_on_c, 0, 72, 0
2, 27327, Note_on_c, 0, 70, 127
2, 27356, Note_on_c, 0, 70, 0
2, 27358, Note_on_c, 0, 68, 127
2, 27657, Note_on_c, 0, 73, 127
2, 27661, Note_on_c, 0, 68, 0
2, 27715, Note_on_c, 0, 75, 127
2, 27720, Note_on_c, 0, 73, 0
2, 27763, Note_on_c, 0, 75, 0
2, 27764, Note_on_c, 0, 77, 125
2, 27810, Note_on_c, 0, 80, 127
2, 27815, Note_on_c, 0, 77, 0
2, 27836, Note_on_c, 0, 80, 0
2, 27837, Note_on_c, 0, 77, 119
2, 27838, Note_on_c, 0, 76, 119
2, 27840, Note_on_c, 0, 76, 0
2, 27861, Note_on_c, 0, 75, 127
2, 27865, Note_on_c, 0, 77, 0
2, 28129, Note_on_c, 0, 75, 0
2, 28131, Note_on_c, 0, 77, 113
2, 28154, Note_on_c, 0, 77, 0
2, 28166, Note_on_c, 0, 77, 123
2, 28189, Note_on_c, 0, 77, 0
2, 28196, Note_on_c, 0, 77, 123
2, 28237, Note_on_c, 0, 75, 123
2, 28244, Note_on_c, 0, 77, 0
2, 28272, Note_on_c, 0, 73, 127
2, 28274, Note_on_c, 0, 75, 0
2, 28298, Note_on_c, 0, 73, 0
2, 28311, Note_on_c, 0, 73, 127
2, 28617, Note_on_c, 0, 77, 127
2, 28623, Note_on_c, 0, 73, 0
2, 28643, Note_on_c, 0, 77, 0
2, 28647, Note_on_c, 0, 77, 100
2, 28667, Note_on_c, 0, 77, 0
2, 28674, Note_on_c, 0, 77, 76
2, 28719, Note_on_c, 0, 75, 127
2, 28727, Note_on_c, 0, 77, 0
2, 28752, Note_on_c, 0, 73, 124
2, 28756, Note_on_c, 0, 75, 0
2, 28786, Note_on_c, 0, 73, 0
2, 28792, Note_on_c, 0, 75, 127
2, 28855, Note_on_c, 0, 73, 127
2, 28859, Note_on_c, 0, 75, 0
2, 28873, Note_on_c, 0, 73, 0
2, 28884, Note_on_c, 0, 73, 127
2, 29054, Note_on_c, 0, 73, 0
2, 29069, Note_on_c, 0, 73, 127
2, 29093, Note_on_c, 0, 73, 0
2, 29093, Note_on_c, 0, 77, 127
2, 29122, Note_on_c, 0, 77, 0
2, 29134, Note_on_c, 0, 77, 127
2, 29148, Note_on_c, 0, 77, 0
2, 29155, Note_on_c, 0, 77, 127
2, 29180, Note_on_c, 0, 77, 0
2, 29191, Note_on_c, 0, 77, 127
2, 29205, Note_on_c, 0, 77, 0
2, 29214, Note_on_c, 0, 77, 127
2, 29237, Note_on_c, 0, 77, 0
2, 29250, Note_on_c, 0, 77, 127
2, 29264, Note_on_c, 0, 77, 0
2, 29273, Note_on_c, 0, 77, 127
2, 29306, Note_on_c, 0, 77, 0
2, 29318, Note_on_c, 0, 78, 127
2, 29356, Note_on_c, 0, 78, 0
2, 29373, Note_on_c, 0, 78, 127
2, 29578, Note_on_c, 0, 77, 127
2, 29581, Note_on_c, 0, 78, 0
2, 29598, Note_on_c, 0, 77, 0
2, 29612, Note_on_c, 0, 77, 127
2, 29625, Note_on_c, 0, 77, 0
2, 29639, Note_on_c, 0, 77, 127
2, 29684, Note_on_c, 0, 77, 0
2, 29695, Note_on_c, 0, 77, 122
2, 29742, Note_on_c, 0, 77, 0
2, 29754, Note_on_c, 0, 77, 127
2, 29817, Note_on_c, 0, 75, 127
2, 29824, Note_on_c, 0, 77, 0
2, 29842, Note_on_c, 0, 75, 0
2, 29852, Note_on_c, 0, 75, 127
2, 30048, Note_on_c, 0, 75, 0
2, 30053, Note_on_c, 0, 77, 127
2, 30077, Note_on_c, 0, 77, 0
2, 30091, Note_on_c, 0, 77, 122
2, 30112, Note_on_c, 0, 77, 0
2, 30119, Note_on_c, 0, 77, 127
2, 30163, Note_on_c, 0, 75, 127
2, 30168, Note_on_c, 0, 77, 0
2, 30197, Note_on_c, 0, 73, 125
2, 30202, Note_on_c, 0, 75, 0
2, 30222, Note_on_c, 0, 73, 0
2, 30238, Note_on_c, 0, 73, 127
2, 30521, Note_on_c, 0, 73, 0
2, 30531, Note_on_c, 0, 77, 127
2, 30564, Note_on_c, 0, 77, 0
2, 30573, Note_on_c, 0, 77, 127
2, 30588, Note_on_c, 0, 77, 0
2, 30596, Note_on_c, 0, 77, 107
2, 30631, Note_on_c, 0, 75, 125
2, 30641, Note_on_c, 0, 77, 0
2, 30644, Note_on_c, 0, 75, 0
2, 30654, Note_on_c, 0, 75, 127
2, 30692, Note_on_c, 0, 73, 127
2, 30694, Note_on_c, 0, 75, 0
2, 30715, Note_on_c, 0, 75, 127
2, 30718, Note_on_c, 0, 73, 0
2, 30775, Note_on_c, 0, 75, 0
2, 30778, Note_on_c, 0, 73, 126
2, 30808, Note_on_c, 0, 75, 127
2, 30816, Note_on_c, 0, 73, 0
2, 30859, Note_on_c, 0, 78, 127
2, 30862, Note_on_c, 0, 75, 0
2, 31008, Note_on_c, 0, 78, 0
2, 31018, Note_on_c, 0, 77, 122
2, 31041, Note_on_c, 0, 77, 0
2, 31049, Note_on_c, 0, 77, 121
2, 31069, Note_on_c, 0, 77, 0
2, 31082, Note_on_c, 0, 77, 102
2, 31120, Note_on_c, 0, 75, 126
2, 31127, Note_on_c, 0, 77, 0
2, 31149, Note_on_c, 0, 75, 0
2, 31163, Note_on_c, 0, 73, 127
2, 31180, Note_on_c, 0, 73, 0
2, 31194, Note_on_c, 0, 73, 125
2, 31483, Note_on_c, 0, 73, 0
2, 31488, Note_on_c, 0, 77, 127
2, 31517, Note_on_c, 0, 77, 0
2, 31529, Note_on_c, 0, 77, 127
2, 31552, Note_on_c, 0, 77, 0
2, 31563, Note_on_c, 0, 77, 123
2, 31601, Note_on_c, 0, 75, 127
2, 31607, Note_on_c, 0, 77, 0
2, 31638, Note_on_c, 0, 73, 127
2, 31643, Note_on_c, 0, 73, 0
2, 31662, Note_on_c, 0, 75, 0
2, 31668, Note_on_c, 0, 75, 127
2, 31706, Note_on_c, 0, 73, 127
2, 31707, Note_on_c, 0, 75, 0
2, 31958, Note_on_c, 0, 77, 127
2, 31961, Note_on_c, 0, 73, 0
2, 31987, Note_on_c, 0, 77, 0
2, 31995, Note_on_c, 0, 77, 127
2, 32021, Note_on_c, 0, 77, 0
2, 32034, Note_on_c, 0, 77, 127
2, 32068, Note_on_c, 0, 75, 126
2, 32077, Note_on_c, 0, 77, 0
2, 32104, Note_on_c, 0, 73, 127
2, 32106, Note_on_c, 0, 75, 0
2, 32131, Note_on_c, 0, 73, 0
2, 32144, Note_on_c, 0, 73, 127
2, 32173, Note_on_c, 0, 72, 102
2, 32178, Note_on_c, 0, 73, 0
2, 32193, Note_on_c, 0, 70, 127
2, 32200, Note_on_c, 0, 72, 0
2, 32559, Note_on_c, 0, 73, 121
2, 32565, Note_on_c, 0, 70, 0
2, 32635, Note_on_c, 0, 73, 0
2, 32636, Note_on_c, 0, 75, 120
2, 32702, Note_on_c, 0, 77, 127
2, 32704, Note_on_c, 0, 75, 0
2, 32724, Note_on_c, 0, 77, 0
2, 32728, Note_on_c, 0, 80, 127
2, 32789, Note_on_c, 0, 80, 0
2, 32795, Note_on_c, 0, 80, 127
2, 32819, Note_on_c, 0, 80, 0
2, 32832, Note_on_c, 0, 80, 127
2, 32879, Note_on_c, 0, 78, 117
2, 32910, Note_on_c, 0, 80, 0
2, 33009, Note_on_c, 0, 78, 0
2, 33026, Note_on_c, 0, 77, 101
2, 33053, Note_on_c, 0, 77, 0
2, 33060, Note_on_c, 0, 77, 101
2, 33064, Note_on_c, 0, 75, 127
2, 33073, Note_on_c, 0, 77, 0
2, 33107, Note_on_c, 0, 73, 118
2, 33108, Note_on_c, 0, 75, 0
2, 33418, Note_on_c, 0, 73, 0
2, 33424, Note_on_c, 0, 77, 122
2, 33501, Note_on_c, 0, 75, 127
2, 33519, Note_on_c, 0, 77, 0
2, 33565, Note_on_c, 0, 75, 0
2, 33567, Note_on_c, 0, 77, 127
2, 33592, Note_on_c, 0, 75, 127
2, 33617, Note_on_c, 0, 73, 127
2, 33622, Note_on_c, 0, 77, 0
2, 33623, Note_on_c, 0, 75, 0
2, 33887, Note_on_c, 0, 73, 0
2, 33893, Note_on_c, 0, 77, 119
2, 33952, Note_on_c, 0, 77, 0
2, 33956, Note_on_c, 0, 75, 127
2, 34009, Note_on_c, 0, 75, 0
2, 34012, Note_on_c, 0, 73, 127
2, 34058, Note_on_c, 0, 73, 0
2, 34075, Note_on_c, 0, 73, 127
2, 34494, Note_on_c, 0, 73, 0
2, 34495, Note_on_c, 0, 68, 127
2, 34541, Note_on_c, 0, 68, 0
2, 34550, Note_on_c, 0, 73, 127
2, 34610, Note_on_c, 0, 75, 127
2, 34614, Note_on_c, 0, 73, 0
2, 34634, Note_on_c, 0, 75, 0
2, 34637, Note_on_c, 0, 77, 110
2, 34706, Note_on_c, 0, 77, 0
2, 34707, Note_on_c, 0, 78, 105
2, 34732, Note_on_c, 0, 78, 0
2, 34739, Note_on_c, 0, 77, 127
2, 34902, Note_on_c, 0, 77, 0
2, 34914, Note_on_c, 0, 77, 127
2, 34955, Note_on_c, 0, 77, 0
2, 34972, Note_on_c, 0, 75, 127
2, 34998, Note_on_c, 0, 75, 0
2, 35006, Note_on_c, 0, 73, 127
2, 35275, Note_on_c, 0, 73, 0
2, 35275, End_track
3, 0, Start_track
3, 0, MIDI_port, 0
3, 0, Title_t, " Pad 4 (Melody)"
3, 0, Program_c, 1, 91
3, 0, Control_c, 1, 7, 120
3, 0, Control_c, 1, 10, 70
3, 4267, Note_on_c, 1, 55, 121
3, 4308, Note_on_c, 1, 55, 0
3, 4323, Note_on_c, 1, 55, 121
3, 4383, Note_on_c, 1, 60, 115
3, 4385, Note_on_c, 1, 55, 0
3, 4433, Note_on_c, 1, 60, 0
3, 4443, Note_on_c, 1, 60, 107
3, 4502, Note_on_c, 1, 62, 97
3, 4507, Note_on_c, 1, 60, 0
3, 4549, Note_on_c, 1, 62, 0
3, 4560, Note_on_c, 1, 62, 103
3, 4617, Note_on_c, 1, 64, 103
3, 4622, Note_on_c, 1, 62, 0
3, 4667, Note_on_c, 1, 64, 0
3, 4677, Note_on_c, 1, 64, 107
3, 4741, Note_on_c, 1, 60, 97
3, 4742, Note_on_c, 1, 64, 0
3, 4800, Note_on_c, 1, 62, 97
3, 4806, Note_on_c, 1, 60, 0
3, 4816, Note_on_c, 1, 64, 107
3, 4819, Note_on_c, 1, 62, 0
3, 4829, Note_on_c, 1, 62, 97
3, 4838, Note_on_c, 1, 64, 0
3, 5224, Note_on_c, 1, 62, 0
3, 5224, Note_on_c, 1, 55, 121
3, 5272, Note_on_c, 1, 55, 0
3, 5283, Note_on_c, 1, 55, 118
3, 5346, Note_on_c, 1, 55, 0
3, 5346, Note_on_c, 1, 60, 115
3, 5388, Note_on_c, 1, 60, 0
3, 5402, Note_on_c, 1, 60, 115
3, 5461, Note_on_c, 1, 62, 103
3, 5465, Note_on_c, 1, 60, 0
3, 5507, Note_on_c, 1, 62, 0
3, 5520, Note_on_c, 1, 62, 115
3, 5577, Note_on_c, 1, 64, 103
3, 5582, Note_on_c, 1, 62, 0
3, 5624, Note_on_c, 1, 64, 0
3, 5635, Note_on_c, 1, 64, 107
3, 5697, Note_on_c, 1, 60, 118
3, 5699, Note_on_c, 1, 64, 0
3, 5755, Note_on_c, 1, 62, 103
3, 5765, Note_on_c, 1, 60, 0
3, 5776, Note_on_c, 1, 64, 103
3, 5780, Note_on_c, 1, 62, 0
3, 5792, Note_on_c, 1, 62, 97
3, 5800, Note_on_c, 1, 64, 0
3, 6182, Note_on_c, 1, 62, 0
3, 6183, Note_on_c, 1, 55, 118
3, 6232, Note_on_c, 1, 55, 0
3, 6243, Note_on_c, 1, 55, 118
3, 6301, Note_on_c, 1, 55, 0
3, 6304, Note_on_c, 1, 60, 107
3, 6351, Note_on_c, 1, 60, 0
3, 6362, Note_on_c, 1, 60, 118
3, 6420, Note_on_c, 1, 62, 103
3, 6424, Note_on_c, 1, 60, 0
3, 6466, Note_on_c, 1, 62, 0
3, 6479, Note_on_c, 1, 62, 121
3, 6538, Note_on_c, 1, 64, 115
3, 6541, Note_on_c, 1, 62, 0
3, 6586, Note_on_c, 1, 64, 0
3, 6599, Note_on_c, 1, 64, 115
3, 6659, Note_on_c, 1, 64, 0
3, 6659, Note_on_c, 1, 60, 115
3, 6719, Note_on_c, 1, 62, 97
3, 6731, Note_on_c, 1, 60, 0
3, 6736, Note_on_c, 1, 64, 107
3, 6740, Note_on_c, 1, 62, 0
3, 6754, Note_on_c, 1, 62, 97
3, 6769, Note_on_c, 1, 64, 0
3, 6774, Note_on_c, 1, 60, 97
3, 6779, Note_on_c, 1, 62, 0
3, 6792, Note_on_c, 1, 62, 121
3, 6796, Note_on_c, 1, 60, 0
3, 7139, Note_on_c, 1, 62, 0
3, 7142, Note_on_c, 1, 55, 121
3, 7191, Note_on_c, 1, 55, 0
3, 7204, Note_on_c, 1, 55, 118
3, 7264, Note_on_c, 1, 60, 107
3, 7265, Note_on_c, 1, 55, 0
3, 7314, Note_on_c, 1, 60, 0
3, 7326, Note_on_c, 1, 60, 121
3, 7384, Note_on_c, 1, 62, 107
3, 7390, Note_on_c, 1, 60, 0
3, 7430, Note_on_c, 1, 62, 0
3, 7443, Note_on_c, 1, 62, 118
3, 7502, Note_on_c, 1, 64, 115
3, 7508, Note_on_c, 1, 62, 0
3, 7549, Note_on_c, 1, 64, 0
3, 7560, Note_on_c, 1, 64, 115
3, 7625, Note_on_c, 1, 60, 115
3, 7626, Note_on_c, 1, 64, 0
3, 7679, Note_on_c, 1, 62, 107
3, 7687, Note_on_c, 1, 60, 0
3, 7701, Note_on_c, 1, 64, 97
3, 7708, Note_on_c, 1, 62, 0
3, 7718, Note_on_c, 1, 62, 107
3, 7727, Note_on_c, 1, 64, 0
3, 7908, Note_on_c, 1, 62, 0
3, 7916, Note_on_c, 1, 60, 122
3, 7988, Note_on_c, 1, 60, 0
3, 8002, Note_on_c, 1, 60, 122
3, 8071, Note_on_c, 1, 60, 0
3, 8077, Note_on_c, 1, 59, 122
3, 8151, Note_on_c, 1, 59, 0
3, 8153, Note_on_c, 1, 57, 121
3, 8188, Note_on_c, 1, 60, 118
3, 8190, Note_on_c, 1, 57, 0
3, 8462, Note_on_c, 1, 60, 0
3, 8463, Note_on_c, 1, 57, 121
3, 8524, Note_on_c, 1, 60, 118
3, 8532, Note_on_c, 1, 57, 0
3, 8567, Note_on_c, 1, 62, 115
3, 8572, Note_on_c, 1, 60, 0
3, 8596, Note_on_c, 1, 62, 0
3, 8606, Note_on_c, 1, 64, 118
3, 8631, Note_on_c, 1, 62, 115
3, 8639, Note_on_c, 1, 64, 0
3, 8951, Note_on_c, 1, 60, 121
3, 8960, Note_on_c, 1, 62, 0
3, 8996, Note_on_c, 1, 60, 0
3, 9010, Note_on_c, 1, 60, 121
3, 9067, Note_on_c, 1, 59, 118
3, 9077, Note_on_c, 1, 60, 0
3, 9100, Note_on_c, 1, 59, 0
3, 9100, Note_on_c, 1, 57, 122
3, 9127, Note_on_c, 1, 55, 107
3, 9132, Note_on_c, 1, 57, 0
3, 9420, Note_on_c, 1, 55, 0
3, 9420, Note_on_c, 1, 60, 121
3, 9479, Note_on_c, 1, 62, 115
3, 9485, Note_on_c, 1, 60, 0
3, 9535, Note_on_c, 1, 62, 0
3, 9538, Note_on_c, 1, 64, 118
3, 9575, Note_on_c, 1, 64, 0
3, 9576, Note_on_c, 1, 65, 118
3, 9599, Note_on_c, 1, 64, 122
3, 9610, Note_on_c, 1, 65, 0
3, 9618, Note_on_c, 1, 62, 107
3, 9626, Note_on_c, 1, 64, 0
3, 9890, Note_on_c, 1, 62, 0
3, 9895, Note_on_c, 1, 64, 118
3, 9918, Note_on_c, 1, 64, 0
3, 9928, Note_on_c, 1, 64, 121
3, 9946, Note_on_c, 1, 64, 0
3, 9957, Note_on_c, 1, 64, 118
3, 9997, Note_on_c, 1, 62, 107
3, 10005, Note_on_c, 1, 64, 0
3, 10028, Note_on_c, 1, 62, 0
3, 10028, Note_on_c, 1, 60, 121
3, 10058, Note_on_c, 1, 60, 0
3, 10073, Note_on_c, 1, 60, 122
3, 10380, Note_on_c, 1, 64, 121
3, 10385, Note_on_c, 1, 60, 0
3, 10405, Note_on_c, 1, 64, 0
3, 10414, Note_on_c, 1, 64, 118
3, 10436, Note_on_c, 1, 64, 0
3, 10446, Note_on_c, 1, 64, 118
3, 10487, Note_on_c, 1, 62, 107
3, 10497, Note_on_c, 1, 64, 0
3, 10521, Note_on_c, 1, 62, 0
3, 10521, Note_on_c, 1, 60, 118
3, 10555, Note_on_c, 1, 60, 0
3, 10556, Note_on_c, 1, 62, 121
3, 10615, Note_on_c, 1, 62, 0
3, 10620, Note_on_c, 1, 60, 122
3, 10639, Note_on_c, 1, 60, 0
3, 10653, Note_on_c, 1, 60, 121
3, 10823, Note_on_c, 1, 60, 0
3, 10834, Note_on_c, 1, 60, 115
3, 10862, Note_on_c, 1, 64, 115
3, 10868, Note_on_c, 1, 60, 0
3, 10886, Note_on_c, 1, 64, 0
3, 10895, Note_on_c, 1, 64, 107
3, 10910, Note_on_c, 1, 64, 0
3, 10919, Note_on_c, 1, 64, 115
3, 10944, Note_on_c, 1, 64, 0
3, 10956, Note_on_c, 1, 64, 103
3, 10969, Note_on_c, 1, 64, 0
3, 10977, Note_on_c, 1, 64, 115
3, 11006, Note_on_c, 1, 64, 0
3, 11016, Note_on_c, 1, 64, 107
3, 11029, Note_on_c, 1, 64, 0
3, 11038, Note_on_c, 1, 64, 107
3, 11079, Note_on_c, 1, 65, 121
3, 11083, Note_on_c, 1, 64, 0
3, 11118, Note_on_c, 1, 65, 0
3, 11130, Note_on_c, 1, 65, 121
3, 11340, Note_on_c, 1, 64, 121
3, 11347, Note_on_c, 1, 65, 0
3, 11368, Note_on_c, 1, 64, 0
3, 11376, Note_on_c, 1, 64, 103
3, 11391, Note_on_c, 1, 64, 0
3, 11398, Note_on_c, 1, 64, 103
3, 11455, Note_on_c, 1, 64, 0
3, 11466, Note_on_c, 1, 64, 118
3, 11506, Note_on_c, 1, 64, 0
3, 11522, Note_on_c, 1, 64, 122
3, 11582, Note_on_c, 1, 62, 118
3, 11586, Note_on_c, 1, 64, 0
3, 11606, Note_on_c, 1, 62, 0
3, 11617, Note_on_c, 1, 62, 118
3, 11828, Note_on_c, 1, 64, 121
3, 11831, Note_on_c, 1, 62, 0
3, 11852, Note_on_c, 1, 64, 0
3, 11862, Note_on_c, 1, 64, 121
3, 11883, Note_on_c, 1, 64, 0
3, 11895, Note_on_c, 1, 64, 118
3, 11933, Note_on_c, 1, 64, 0
3, 11934, Note_on_c, 1, 62, 121
3, 11965, Note_on_c, 1, 60, 107
3, 11973, Note_on_c, 1, 62, 0
3, 11995, Note_on_c, 1, 60, 0
3, 12004, Note_on_c, 1, 60, 118
3, 12266, Note_on_c, 1, 60, 0
3, 12280, Note_on_c, 1, 60, 121
3, 12301, Note_on_c, 1, 64, 118
3, 12305, Note_on_c, 1, 60, 0
3, 12327, Note_on_c, 1, 64, 0
3, 12337, Note_on_c, 1, 64, 118
3, 12351, Note_on_c, 1, 64, 0
3, 12361, Note_on_c, 1, 64, 118
3, 12394, Note_on_c, 1, 62, 93
3, 12407, Note_on_c, 1, 64, 0
3, 12408, Note_on_c, 1, 62, 0
3, 12419, Note_on_c, 1, 62, 115
3, 12451, Note_on_c, 1, 60, 118
3, 12455, Note_on_c, 1, 62, 0
3, 12476, Note_on_c, 1, 62, 121
3, 12482, Note_on_c, 1, 60, 0
3, 12536, Note_on_c, 1, 60, 118
3, 12541, Note_on_c, 1, 62, 0
3, 12567, Note_on_c, 1, 62, 118
3, 12576, Note_on_c, 1, 60, 0
3, 12624, Note_on_c, 1, 65, 107
3, 12630, Note_on_c, 1, 62, 0
3, 12777, Note_on_c, 1, 64, 122
3, 12785, Note_on_c, 1, 65, 0
3, 12803, Note_on_c, 1, 64, 0
3, 12811, Note_on_c, 1, 64, 121
3, 12831, Note_on_c, 1, 64, 0
3, 12843, Note_on_c, 1, 64, 118
3, 12888, Note_on_c, 1, 62, 118
3, 12891, Note_on_c, 1, 64, 0
3, 12918, Note_on_c, 1, 60, 103
3, 12923, Note_on_c, 1, 62, 0
3, 12947, Note_on_c, 1, 60, 0
3, 12958, Note_on_c, 1, 60, 121
3, 13249, Note_on_c, 1, 64, 115
3, 13259, Note_on_c, 1, 60, 0
3, 13278, Note_on_c, 1, 64, 0
3, 13288, Note_on_c, 1, 64, 107
3, 13312, Note_on_c, 1, 64, 0
3, 13323, Note_on_c, 1, 64, 118
3, 13369, Note_on_c, 1, 62, 93
3, 13377, Note_on_c, 1, 64, 0
3, 13407, Note_on_c, 1, 60, 118
3, 13411, Note_on_c, 1, 62, 0
3, 13448, Note_on_c, 1, 62, 118
3, 13451, Note_on_c, 1, 60, 0
3, 13497, Note_on_c, 1, 60, 115
3, 13501, Note_on_c, 1, 62, 0
3, 13741, Note_on_c, 1, 64, 103
3, 13758, Note_on_c, 1, 60, 0
3, 13768, Note_on_c, 1, 64, 0
3, 13776, Note_on_c, 1, 64, 115
3, 13797, Note_on_c, 1, 64, 0
3, 13806, Note_on_c, 1, 64, 103
3, 13840, Note_on_c, 1, 62, 93
3, 13848, Note_on_c, 1, 64, 0
3, 13877, Note_on_c, 1, 60, 107
3, 13882, Note_on_c, 1, 62, 0
3, 13904, Note_on_c, 1, 60, 0
3, 13916, Note_on_c, 1, 60, 107
3, 13944, Note_on_c, 1, 59, 115
3, 13950, Note_on_c, 1, 60, 0
3, 13970, Note_on_c, 1, 57, 103
3, 13973, Note_on_c, 1, 59, 0
3, 14384, Note_on_c, 1, 57, 0
3, 14835, Note_on_c, 1, 55, 115
3, 14870, Note_on_c, 1, 55, 0
3, 14888, Note_on_c, 1, 55, 122
3, 14951, Note_on_c, 1, 60, 121
3, 14953, Note_on_c, 1, 55, 0
3, 14989, Note_on_c, 1, 60, 0
3, 15003, Note_on_c, 1, 60, 121
3, 15057, Note_on_c, 1, 60, 0
3, 15062, Note_on_c, 1, 62, 121
3, 15108, Note_on_c, 1, 62, 0
3, 15123, Note_on_c, 1, 62, 122
3, 15181, Note_on_c, 1, 64, 121
3, 15200, Note_on_c, 1, 62, 0
3, 15223, Note_on_c, 1, 64, 0
3, 15234, Note_on_c, 1, 64, 115
3, 15296, Note_on_c, 1, 60, 107
3, 15299, Note_on_c, 1, 64, 0
3, 15357, Note_on_c, 1, 62, 118
3, 15362, Note_on_c, 1, 60, 0
3, 15375, Note_on_c, 1, 64, 115
3, 15378, Note_on_c, 1, 62, 0
3, 15387, Note_on_c, 1, 62, 93
3, 15397, Note_on_c, 1, 64, 0
3, 15779, Note_on_c, 1, 62, 0
3, 15782, Note_on_c, 1, 55, 122
3, 15831, Note_on_c, 1, 55, 0
3, 15843, Note_on_c, 1, 55, 121
3, 15909, Note_on_c, 1, 60, 115
3, 15914, Note_on_c, 1, 55, 0
3, 15954, Note_on_c, 1, 60, 0
3, 15965, Note_on_c, 1, 60, 118
3, 16023, Note_on_c, 1, 62, 107
3, 16027, Note_on_c, 1, 60, 0
3, 16067, Note_on_c, 1, 62, 0
3, 16079, Note_on_c, 1, 62, 118
3, 16139, Note_on_c, 1, 64, 97
3, 16144, Note_on_c, 1, 62, 0
3, 16183, Note_on_c, 1, 64, 0
3, 16196, Note_on_c, 1, 64, 118
3, 16260, Note_on_c, 1, 64, 0
3, 16260, Note_on_c, 1, 60, 115
3, 16316, Note_on_c, 1, 62, 107
3, 16322, Note_on_c, 1, 60, 0
3, 16331, Note_on_c, 1, 64, 115
3, 16336, Note_on_c, 1, 62, 0
3, 16345, Note_on_c, 1, 62, 93
3, 16352, Note_on_c, 1, 64, 0
3, 16740, Note_on_c, 1, 55, 122
3, 16747, Note_on_c, 1, 62, 0
3, 16789, Note_on_c, 1, 55, 0
3, 16801, Note_on_c, 1, 55, 121
3, 16865, Note_on_c, 1, 60, 103
3, 16869, Note_on_c, 1, 55, 0
3, 16913, Note_on_c, 1, 60, 0
3, 16922, Note_on_c, 1, 60, 115
3, 16977, Note_on_c, 1, 62, 103
3, 16981, Note_on_c, 1, 60, 0
3, 17026, Note_on_c, 1, 62, 0
3, 17037, Note_on_c, 1, 62, 118
3, 17097, Note_on_c, 1, 64, 97
3, 17103, Note_on_c, 1, 62, 0
3, 17148, Note_on_c, 1, 64, 0
3, 17158, Note_on_c, 1, 64, 103
3, 17220, Note_on_c, 1, 60, 103
3, 17224, Note_on_c, 1, 64, 0
3, 17276, Note_on_c, 1, 62, 97
3, 17282, Note_on_c, 1, 60, 0
3, 17292, Note_on_c, 1, 64, 118
3, 17296, Note_on_c, 1, 62, 0
3, 17304, Note_on_c, 1, 62, 103
3, 17314, Note_on_c, 1, 64, 0
3, 17696, Note_on_c, 1, 62, 0
3, 17698, Note_on_c, 1, 55, 121
3, 17753, Note_on_c, 1, 55, 0
3, 17764, Note_on_c, 1, 55, 122
3, 17823, Note_on_c, 1, 60, 115
3, 17826, Note_on_c, 1, 55, 0
3, 17868, Note_on_c, 1, 60, 0
3, 17881, Note_on_c, 1, 60, 118
3, 17945, Note_on_c, 1, 62, 97
3, 17950, Note_on_c, 1, 60, 0
3, 17990, Note_on_c, 1, 62, 0
3, 18002, Note_on_c, 1, 62, 118
3, 18064, Note_on_c, 1, 64, 107
3, 18068, Note_on_c, 1, 62, 0
3, 18105, Note_on_c, 1, 64, 0
3, 18117, Note_on_c, 1, 64, 115
3, 18180, Note_on_c, 1, 60, 118
3, 18182, Note_on_c, 1, 64, 0
3, 18236, Note_on_c, 1, 62, 115
3, 18244, Note_on_c, 1, 60, 0
3, 18254, Note_on_c, 1, 64, 118
3, 18258, Note_on_c, 1, 62, 0
3, 18271, Note_on_c, 1, 62, 107
3, 18283, Note_on_c, 1, 64, 0
3, 18291, Note_on_c, 1, 60, 107
3, 18297, Note_on_c, 1, 62, 0
3, 18310, Note_on_c, 1, 62, 118
3, 18313, Note_on_c, 1, 60, 0
3, 18474, Note_on_c, 1, 62, 0
3, 18481, Note_on_c, 1, 60, 125
3, 18546, Note_on_c, 1, 60, 0
3, 18564, Note_on_c, 1, 60, 121
3, 18640, Note_on_c, 1, 59, 121
3, 18649, Note_on_c, 1, 60, 0
3, 18701, Note_on_c, 1, 57, 121
3, 18702, Note_on_c, 1, 59, 0
3, 18731, Note_on_c, 1, 60, 107
3, 18736, Note_on_c, 1, 57, 0
3, 19017, Note_on_c, 1, 60, 0
3, 19019, Note_on_c, 1, 57, 121
3, 19055, Note_on_c, 1, 60, 107
3, 19066, Note_on_c, 1, 57, 0
3, 19116, Note_on_c, 1, 62, 118
3, 19121, Note_on_c, 1, 60, 0
3, 19147, Note_on_c, 1, 62, 0
3, 19156, Note_on_c, 1, 64, 121
3, 19182, Note_on_c, 1, 62, 122
3, 19188, Note_on_c, 1, 64, 0
3, 19503, Note_on_c, 1, 60, 121
3, 19508, Note_on_c, 1, 62, 0
3, 19532, Note_on_c, 1, 62, 118
3, 19536, Note_on_c, 1, 60, 0
3, 19558, Note_on_c, 1, 60, 125
3, 19565, Note_on_c, 1, 62, 0
3, 19619, Note_on_c, 1, 60, 0
3, 19622, Note_on_c, 1, 59, 118
3, 19652, Note_on_c, 1, 57, 121
3, 19662, Note_on_c, 1, 59, 0
3, 19686, Note_on_c, 1, 55, 122
3, 19689, Note_on_c, 1, 57, 0
3, 19929, Note_on_c, 1, 55, 0
3, 19979, Note_on_c, 1, 60, 115
3, 19982, Note_on_c, 1, 65, 77
3, 19987, Note_on_c, 1, 65, 0
3, 20036, Note_on_c, 1, 62, 121
3, 20041, Note_on_c, 1, 60, 0
3, 20086, Note_on_c, 1, 62, 0
3, 20092, Note_on_c, 1, 64, 107
3, 20119, Note_on_c, 1, 64, 0
3, 20128, Note_on_c, 1, 65, 121
3, 20153, Note_on_c, 1, 64, 118
3, 20164, Note_on_c, 1, 65, 0
3, 20171, Note_on_c, 1, 62, 115
3, 20179, Note_on_c, 1, 64, 0
3, 20451, Note_on_c, 1, 62, 0
3, 20459, Note_on_c, 1, 64, 121
3, 20480, Note_on_c, 1, 64, 0
3, 20490, Note_on_c, 1, 64, 118
3, 20512, Note_on_c, 1, 64, 0
3, 20523, Note_on_c, 1, 64, 121
3, 20566, Note_on_c, 1, 62, 118
3, 20572, Note_on_c, 1, 64, 0
3, 20595, Note_on_c, 1, 60, 118
3, 20598, Note_on_c, 1, 62, 0
3, 20629, Note_on_c, 1, 60, 0
3, 20643, Note_on_c, 1, 60, 121
3, 20939, Note_on_c, 1, 64, 118
3, 20947, Note_on_c, 1, 60, 0
3, 20963, Note_on_c, 1, 64, 0
3, 20972, Note_on_c, 1, 64, 115
3, 20988, Note_on_c, 1, 64, 0
3, 20999, Note_on_c, 1, 64, 107
3, 21040, Note_on_c, 1, 62, 97
3, 21068, Note_on_c, 1, 64, 0
3, 21073, Note_on_c, 1, 60, 118
3, 21075, Note_on_c, 1, 62, 0
3, 21112, Note_on_c, 1, 60, 0
3, 21119, Note_on_c, 1, 62, 121
3, 21178, Note_on_c, 1, 62, 0
3, 21181, Note_on_c, 1, 60, 121
3, 21202, Note_on_c, 1, 60, 0
3, 21216, Note_on_c, 1, 60, 118
3, 21384, Note_on_c, 1, 60, 0
3, 21397, Note_on_c, 1, 60, 118
3, 21421, Note_on_c, 1, 64, 121
3, 21424, Note_on_c, 1, 60, 0
3, 21448, Note_on_c, 1, 64, 0
3, 21458, Note_on_c, 1, 64, 118
3, 21475, Note_on_c, 1, 64, 0
3, 21484, Note_on_c, 1, 64, 115
3, 21512, Note_on_c, 1, 64, 0
3, 21523, Note_on_c, 1, 64, 121
3, 21535, Note_on_c, 1, 64, 0
3, 21544, Note_on_c, 1, 64, 118
3, 21572, Note_on_c, 1, 64, 0
3, 21583, Note_on_c, 1, 64, 118
3, 21596, Note_on_c, 1, 64, 0
3, 21606, Note_on_c, 1, 64, 121
3, 21643, Note_on_c, 1, 64, 0
3, 21649, Note_on_c, 1, 65, 121
3, 21687, Note_on_c, 1, 65, 0
3, 21696, Note_on_c, 1, 65, 118
3, 21899, Note_on_c, 1, 64, 121
3, 21917, Note_on_c, 1, 65, 0
3, 21928, Note_on_c, 1, 64, 0
3, 21937, Note_on_c, 1, 64, 107
3, 21949, Note_on_c, 1, 64, 0
3, 21959, Note_on_c, 1, 64, 118
3, 22014, Note_on_c, 1, 64, 0
3, 22025, Note_on_c, 1, 64, 118
3, 22067, Note_on_c, 1, 64, 0
3, 22081, Note_on_c, 1, 64, 122
3, 22144, Note_on_c, 1, 62, 115
3, 22148, Note_on_c, 1, 64, 0
3, 22166, Note_on_c, 1, 62, 0
3, 22176, Note_on_c, 1, 62, 115
3, 22382, Note_on_c, 1, 64, 118
3, 22386, Note_on_c, 1, 62, 0
3, 22407, Note_on_c, 1, 64, 0
3, 22417, Note_on_c, 1, 64, 118
3, 22438, Note_on_c, 1, 64, 0
3, 22447, Note_on_c, 1, 64, 115
3, 22491, Note_on_c, 1, 62, 118
3, 22498, Note_on_c, 1, 64, 0
3, 22520, Note_on_c, 1, 60, 121
3, 22525, Note_on_c, 1, 62, 0
3, 22549, Note_on_c, 1, 60, 0
3, 22563, Note_on_c, 1, 60, 122
3, 22827, Note_on_c, 1, 60, 0
3, 22839, Note_on_c, 1, 60, 118
3, 22858, Note_on_c, 1, 64, 115
3, 22863, Note_on_c, 1, 64, 107
3, 22865, Note_on_c, 1, 60, 0
3, 22885, Note_on_c, 1, 64, 0
3, 22886, Note_on_c, 1, 64, 0
3, 22896, Note_on_c, 1, 64, 121
3, 22896, Note_on_c, 1, 64, 103
3, 22908, Note_on_c, 1, 64, 0
3, 22912, Note_on_c, 1, 64, 0
3, 22917, Note_on_c, 1, 64, 107
3, 22921, Note_on_c, 1, 64, 118
3, 22952, Note_on_c, 1, 62, 115
3, 22955, Note_on_c, 1, 62, 69
3, 22960, Note_on_c, 1, 64, 0
3, 22962, Note_on_c, 1, 64, 0
3, 22967, Note_on_c, 1, 62, 0
3, 22973, Note_on_c, 1, 62, 0
3, 22978, Note_on_c, 1, 62, 118
3, 22981, Note_on_c, 1, 62, 115
3, 23012, Note_on_c, 1, 60, 115
3, 23013, Note_on_c, 1, 60, 118
3, 23015, Note_on_c, 1, 62, 0
3, 23015, Note_on_c, 1, 62, 0
3, 23037, Note_on_c, 1, 62, 122
3, 23037, Note_on_c, 1, 62, 121
3, 23042, Note_on_c, 1, 60, 0
3, 23042, Note_on_c, 1, 60, 0
3, 23093, Note_on_c, 1, 62, 0
3, 23095, Note_on_c, 1, 60, 118
3, 23098, Note_on_c, 1, 60, 115
3, 23100, Note_on_c, 1, 62, 0
3, 23128, Note_on_c, 1, 62, 121
3, 23128, Note_on_c, 1, 62, 115
3, 23137, Note_on_c, 1, 60, 0
3, 23138, Note_on_c, 1, 60, 0
3, 23176, Note_on_c, 1, 65, 93
3, 23178, Note_on_c, 1, 62, 0
3, 23180, Note_on_c, 1, 65, 115
3, 23184, Note_on_c, 1, 62, 0
3, 23340, Note_on_c, 1, 64, 122
3, 23344, Note_on_c, 1, 64, 122
3, 23347, Note_on_c, 1, 65, 0
3, 23352, Note_on_c, 1, 65, 0
3, 23365, Note_on_c, 1, 64, 0
3, 23371, Note_on_c, 1, 64, 0
3, 23375, Note_on_c, 1, 64, 107
3, 23379, Note_on_c, 1, 64, 118
3, 23391, Note_on_c, 1, 64, 0
3, 23397, Note_on_c, 1, 64, 0
3, 23403, Note_on_c, 1, 64, 93
3, 23407, Note_on_c, 1, 64, 103
3, 23444, Note_on_c, 1, 62, 118
3, 23445, Note_on_c, 1, 64, 0
3, 23450, Note_on_c, 1, 62, 107
3, 23454, Note_on_c, 1, 64, 0
3, 23475, Note_on_c, 1, 60, 115
3, 23481, Note_on_c, 1, 62, 0
3, 23486, Note_on_c, 1, 60, 118
3, 23493, Note_on_c, 1, 62, 0
3, 23506, Note_on_c, 1, 60, 0
3, 23517, Note_on_c, 1, 60, 0
3, 23517, Note_on_c, 1, 60, 115
3, 23527, Note_on_c, 1, 60, 121
3, 23818, Note_on_c, 1, 64, 115
3, 23822, Note_on_c, 1, 64, 103
3, 23825, Note_on_c, 1, 60, 0
3, 23843, Note_on_c, 1, 60, 0
3, 23844, Note_on_c, 1, 64, 0
3, 23851, Note_on_c, 1, 64, 0
3, 23853, Note_on_c, 1, 64, 107
3, 23860, Note_on_c, 1, 64, 121
3, 23874, Note_on_c, 1, 64, 0
3, 23884, Note_on_c, 1, 64, 0
3, 23885, Note_on_c, 1, 64, 115
3, 23892, Note_on_c, 1, 64, 118
3, 23930, Note_on_c, 1, 62, 91
3, 23933, Note_on_c, 1, 62, 107
3, 23938, Note_on_c, 1, 64, 0
3, 23943, Note_on_c, 1, 64, 0
3, 23970, Note_on_c, 1, 60, 107
3, 23971, Note_on_c, 1, 60, 97
3, 23972, Note_on_c, 1, 62, 0
3, 23977, Note_on_c, 1, 62, 0
3, 23999, Note_on_c, 1, 60, 0
3, 24011, Note_on_c, 1, 62, 118
3, 24015, Note_on_c, 1, 60, 0
3, 24039, Note_on_c, 1, 60, 121
3, 24044, Note_on_c, 1, 62, 0
3, 24274, Note_on_c, 1, 55, 107
3, 24276, Note_on_c, 1, 60, 0
3, 24305, Note_on_c, 1, 62, 107
3, 24317, Note_on_c, 1, 55, 0
3, 24333, Note_on_c, 1, 62, 0
3, 24342, Note_on_c, 1, 62, 121
3, 24367, Note_on_c, 1, 62, 0
3, 24375, Note_on_c, 1, 62, 118
3, 24420, Note_on_c, 1, 60, 118
3, 24428, Note_on_c, 1, 62, 0
3, 24451, Note_on_c, 1, 59, 115
3, 24455, Note_on_c, 1, 60, 0
3, 24484, Note_on_c, 1, 60, 118
3, 24486, Note_on_c, 1, 59, 0
3, 24501, Note_on_c, 1, 59, 118
3, 24505, Note_on_c, 1, 60, 0
3, 24519, Note_on_c, 1, 57, 118
3, 24525, Note_on_c, 1, 59, 0
3, 24785, Note_on_c, 1, 60, 121
3, 24786, Note_on_c, 1, 59, 118
3, 24788, Note_on_c, 1, 59, 0
3, 24790, Note_on_c, 1, 57, 0
3, 24906, Note_on_c, 1, 60, 0
3, 24907, Note_on_c, 1, 55, 121
3, 24962, Note_on_c, 1, 60, 127
3, 24970, Note_on_c, 1, 55, 0
3, 25018, Note_on_c, 1, 62, 127
3, 25024, Note_on_c, 1, 60, 0
3, 25040, Note_on_c, 1, 62, 0
3, 25050, Note_on_c, 1, 64, 127
3, 25125, Note_on_c, 1, 65, 127
3, 25129, Note_on_c, 1, 64, 0
3, 25153, Note_on_c, 1, 65, 0
3, 25158, Note_on_c, 1, 64, 127
3, 25193, Note_on_c, 1, 62, 127
3, 25195, Note_on_c, 1, 64, 0
3, 25385, Note_on_c, 1, 62, 0
3, 25410, Note_on_c, 1, 55, 127
3, 25470, Note_on_c, 1, 53, 126
3, 25499, Note_on_c, 1, 55, 0
3, 25559, Note_on_c, 1, 53, 0
3, 25560, Note_on_c, 1, 52, 123
3, 25629, Note_on_c, 1, 55, 116
3, 25649, Note_on_c, 1, 52, 0
3, 25674, Note_on_c, 1, 60, 127
3, 25677, Note_on_c, 1, 55, 0
3, 25734, Note_on_c, 1, 62, 123
3, 25745, Note_on_c, 1, 60, 0
3, 25795, Note_on_c, 1, 60, 114
3, 25800, Note_on_c, 1, 62, 0
3, 26034, Note_on_c, 1, 60, 0
3, 26153, Note_on_c, 1, 61, 125
3, 26218, Note_on_c, 1, 61, 0
3, 26231, Note_on_c, 1, 61, 125
3, 26314, Note_on_c, 1, 60, 107
3, 26346, Note_on_c, 1, 61, 0
3, 26370, Note_on_c, 1, 60, 0
3, 26371, Note_on_c, 1, 58, 125
3, 26411, Note_on_c, 1, 61, 115
3, 26420, Note_on_c, 1, 58, 0
3, 26703, Note_on_c, 1, 61, 0
3, 26705, Note_on_c, 1, 58, 122
3, 26763, Note_on_c, 1, 61, 107
3, 26772, Note_on_c, 1, 58, 0
3, 26811, Note_on_c, 1, 63, 122
3, 26816, Note_on_c, 1, 61, 0
3, 26843, Note_on_c, 1, 63, 0
3, 26847, Note_on_c, 1, 65, 118
3, 26876, Note_on_c, 1, 63, 125
3, 26881, Note_on_c, 1, 65, 0
3, 27180, Note_on_c, 1, 61, 122
3, 27182, Note_on_c, 1, 63, 0
3, 27212, Note_on_c, 1, 63, 121
3, 27215, Note_on_c, 1, 61, 0
3, 27235, Note_on_c, 1, 61, 122
3, 27240, Note_on_c, 1, 63, 0
3, 27298, Note_on_c, 1, 60, 118
3, 27299, Note_on_c, 1, 61, 0
3, 27330, Note_on_c, 1, 58, 125
3, 27331, Note_on_c, 1, 60, 0
3, 27359, Note_on_c, 1, 58, 0
3, 27362, Note_on_c, 1, 56, 122
3, 27659, Note_on_c, 1, 61, 121
3, 27665, Note_on_c, 1, 56, 0
3, 27718, Note_on_c, 1, 63, 122
3, 27722, Note_on_c, 1, 61, 0
3, 27766, Note_on_c, 1, 63, 0
3, 27770, Note_on_c, 1, 65, 107
3, 27812, Note_on_c, 1, 68, 122
3, 27821, Note_on_c, 1, 65, 0
3, 27838, Note_on_c, 1, 68, 0
3, 27841, Note_on_c, 1, 65, 103
3, 27841, Note_on_c, 1, 64, 103
3, 27843, Note_on_c, 1, 64, 0
3, 27865, Note_on_c, 1, 63, 118
3, 27869, Note_on_c, 1, 65, 0
3, 28133, Note_on_c, 1, 63, 0
3, 28137, Note_on_c, 1, 65, 107
3, 28160, Note_on_c, 1, 65, 0
3, 28169, Note_on_c, 1, 65, 107
3, 28192, Note_on_c, 1, 65, 0
3, 28201, Note_on_c, 1, 65, 115
3, 28241, Note_on_c, 1, 63, 118
3, 28249, Note_on_c, 1, 65, 0
3, 28275, Note_on_c, 1, 61, 115
3, 28278, Note_on_c, 1, 63, 0
3, 28301, Note_on_c, 1, 61, 0
3, 28315, Note_on_c, 1, 61, 121
3, 28619, Note_on_c, 1, 65, 115
3, 28627, Note_on_c, 1, 61, 0
3, 28645, Note_on_c, 1, 65, 0
3, 28651, Note_on_c, 1, 65, 97
3, 28671, Note_on_c, 1, 65, 0
3, 28678, Note_on_c, 1, 65, 73
3, 28723, Note_on_c, 1, 63, 115
3, 28731, Note_on_c, 1, 65, 0
3, 28755, Note_on_c, 1, 61, 118
3, 28760, Note_on_c, 1, 63, 0
3, 28789, Note_on_c, 1, 61, 0
3, 28795, Note_on_c, 1, 63, 122
3, 28859, Note_on_c, 1, 61, 122
3, 28862, Note_on_c, 1, 63, 0
3, 28877, Note_on_c, 1, 61, 0
3, 28889, Note_on_c, 1, 61, 121
3, 29059, Note_on_c, 1, 61, 0
3, 29072, Note_on_c, 1, 61, 118
3, 29096, Note_on_c, 1, 61, 0
3, 29096, Note_on_c, 1, 65, 121
3, 29125, Note_on_c, 1, 65, 0
3, 29138, Note_on_c, 1, 65, 122
3, 29152, Note_on_c, 1, 65, 0
3, 29159, Note_on_c, 1, 65, 118
3, 29184, Note_on_c, 1, 65, 0
3, 29195, Note_on_c, 1, 65, 121
3, 29209, Note_on_c, 1, 65, 0
3, 29219, Note_on_c, 1, 65, 122
3, 29242, Note_on_c, 1, 65, 0
3, 29254, Note_on_c, 1, 65, 118
3, 29268, Note_on_c, 1, 65, 0
3, 29278, Note_on_c, 1, 65, 122
3, 29311, Note_on_c, 1, 65, 0
3, 29323, Note_on_c, 1, 66, 122
3, 29361, Note_on_c, 1, 66, 0
3, 29376, Note_on_c, 1, 66, 121
3, 29583, Note_on_c, 1, 65, 122
3, 29584, Note_on_c, 1, 66, 0
3, 29603, Note_on_c, 1, 65, 0
3, 29617, Note_on_c, 1, 65, 121
3, 29630, Note_on_c, 1, 65, 0
3, 29642, Note_on_c, 1, 65, 121
3, 29687, Note_on_c, 1, 65, 0
3, 29699, Note_on_c, 1, 65, 115
3, 29746, Note_on_c, 1, 65, 0
3, 29758, Note_on_c, 1, 65, 118
3, 29820, Note_on_c, 1, 63, 121
3, 29828, Note_on_c, 1, 65, 0
3, 29845, Note_on_c, 1, 63, 0
3, 29856, Note_on_c, 1, 63, 121
3, 30052, Note_on_c, 1, 63, 0
3, 30058, Note_on_c, 1, 65, 122
3, 30082, Note_on_c, 1, 65, 0
3, 30093, Note_on_c, 1, 65, 118
3, 30114, Note_on_c, 1, 65, 0
3, 30124, Note_on_c, 1, 65, 118
3, 30166, Note_on_c, 1, 63, 121
3, 30173, Note_on_c, 1, 65, 0
3, 30201, Note_on_c, 1, 61, 121
3, 30205, Note_on_c, 1, 63, 0
3, 30226, Note_on_c, 1, 61, 0
3, 30240, Note_on_c, 1, 61, 122
3, 30523, Note_on_c, 1, 61, 0
3, 30534, Note_on_c, 1, 65, 125
3, 30567, Note_on_c, 1, 65, 0
3, 30577, Note_on_c, 1, 65, 118
3, 30592, Note_on_c, 1, 65, 0
3, 30600, Note_on_c, 1, 65, 97
3, 30635, Note_on_c, 1, 63, 122
3, 30645, Note_on_c, 1, 65, 0
3, 30648, Note_on_c, 1, 63, 0
3, 30658, Note_on_c, 1, 63, 121
3, 30696, Note_on_c, 1, 61, 118
3, 30698, Note_on_c, 1, 63, 0
3, 30719, Note_on_c, 1, 63, 122
3, 30722, Note_on_c, 1, 61, 0
3, 30779, Note_on_c, 1, 63, 0
3, 30780, Note_on_c, 1, 61, 118
3, 30810, Note_on_c, 1, 63, 122
3, 30818, Note_on_c, 1, 61, 0
3, 30862, Note_on_c, 1, 66, 122
3, 30864, Note_on_c, 1, 63, 0
3, 31011, Note_on_c, 1, 66, 0
3, 31021, Note_on_c, 1, 65, 115
3, 31044, Note_on_c, 1, 65, 0
3, 31054, Note_on_c, 1, 65, 107
3, 31074, Note_on_c, 1, 65, 0
3, 31084, Note_on_c, 1, 65, 91
3, 31123, Note_on_c, 1, 63, 118
3, 31129, Note_on_c, 1, 65, 0
3, 31152, Note_on_c, 1, 63, 0
3, 31167, Note_on_c, 1, 61, 118
3, 31184, Note_on_c, 1, 61, 0
3, 31199, Note_on_c, 1, 61, 125
3, 31488, Note_on_c, 1, 61, 0
3, 31493, Note_on_c, 1, 65, 118
3, 31522, Note_on_c, 1, 65, 0
3, 31533, Note_on_c, 1, 65, 118
3, 31556, Note_on_c, 1, 65, 0
3, 31566, Note_on_c, 1, 65, 118
3, 31605, Note_on_c, 1, 63, 118
3, 31610, Note_on_c, 1, 65, 0
3, 31642, Note_on_c, 1, 61, 115
3, 31647, Note_on_c, 1, 61, 0
3, 31666, Note_on_c, 1, 63, 0
3, 31674, Note_on_c, 1, 63, 122
3, 31710, Note_on_c, 1, 61, 115
3, 31713, Note_on_c, 1, 63, 0
3, 31962, Note_on_c, 1, 65, 118
3, 31965, Note_on_c, 1, 61, 0
3, 31991, Note_on_c, 1, 65, 0
3, 32000, Note_on_c, 1, 65, 115
3, 32026, Note_on_c, 1, 65, 0
3, 32037, Note_on_c, 1, 65, 121
3, 32073, Note_on_c, 1, 63, 118
3, 32080, Note_on_c, 1, 65, 0
3, 32108, Note_on_c, 1, 61, 118
3, 32111, Note_on_c, 1, 63, 0
3, 32135, Note_on_c, 1, 61, 0
3, 32146, Note_on_c, 1, 61, 118
3, 32176, Note_on_c, 1, 60, 91
3, 32180, Note_on_c, 1, 61, 0
3, 32198, Note_on_c, 1, 58, 122
3, 32203, Note_on_c, 1, 60, 0
3, 32564, Note_on_c, 1, 61, 107
3, 32570, Note_on_c, 1, 58, 0
3, 32640, Note_on_c, 1, 61, 0
3, 32642, Note_on_c, 1, 63, 115
3, 32705, Note_on_c, 1, 65, 121
3, 32710, Note_on_c, 1, 63, 0
3, 32727, Note_on_c, 1, 65, 0
3, 32730, Note_on_c, 1, 68, 115
3, 32791, Note_on_c, 1, 68, 0
3, 32799, Note_on_c, 1, 68, 121
3, 32823, Note_on_c, 1, 68, 0
3, 32836, Note_on_c, 1, 68, 121
3, 32884, Note_on_c, 1, 66, 103
3, 32914, Note_on_c, 1, 68, 0
3, 33014, Note_on_c, 1, 66, 0
3, 33031, Note_on_c, 1, 65, 87
3, 33058, Note_on_c, 1, 65, 0
3, 33064, Note_on_c, 1, 65, 97
3, 33067, Note_on_c, 1, 63, 122
3, 33077, Note_on_c, 1, 65, 0
3, 33111, Note_on_c, 1, 63, 0
3, 33112, Note_on_c, 1, 61, 115
3, 33423, Note_on_c, 1, 61, 0
3, 33428, Note_on_c, 1, 65, 107
3, 33506, Note_on_c, 1, 63, 122
3, 33523, Note_on_c, 1, 65, 0
3, 33570, Note_on_c, 1, 63, 0
3, 33573, Note_on_c, 1, 65, 118
3, 33595, Note_on_c, 1, 63, 122
3, 33622, Note_on_c, 1, 61, 122
3, 33626, Note_on_c, 1, 63, 0
3, 33628, Note_on_c, 1, 65, 0
3, 33892, Note_on_c, 1, 61, 0
3, 33897, Note_on_c, 1, 65, 115
3, 33956, Note_on_c, 1, 65, 0
3, 33959, Note_on_c, 1, 63, 122
3, 34012, Note_on_c, 1, 63, 0
3, 34017, Note_on_c, 1, 61, 122
3, 34063, Note_on_c, 1, 61, 0
3, 34078, Note_on_c, 1, 61, 125
3, 34497, Note_on_c, 1, 61, 0
3, 34499, Note_on_c, 1, 56, 121
3, 34545, Note_on_c, 1, 56, 0
3, 34553, Note_on_c, 1, 61, 125
3, 34614, Note_on_c, 1, 63, 122
3, 34617, Note_on_c, 1, 61, 0
3, 34638, Note_on_c, 1, 63, 0
3, 34641, Note_on_c, 1, 65, 107
3, 34710, Note_on_c, 1, 65, 0
3, 34710, Note_on_c, 1, 66, 103
3, 34735, Note_on_c, 1, 66, 0
3, 34744, Note_on_c, 1, 65, 121
3, 34907, Note_on_c, 1, 65, 0
3, 34918, Note_on_c, 1, 65, 118
3, 34959, Note_on_c, 1, 65, 0
3, 34977, Note_on_c, 1, 63, 121
3, 35003, Note_on_c, 1, 63, 0
3, 35010, Note_on_c, 1, 61, 122
3, 35279, Note_on_c, 1, 61, 0
3, 35279, End_track
4, 0, Start_track
4, 0, MIDI_port, 0
4, 0, Title_t, " Guitar"
4, 0, Program_c, 2, 24
4, 0, Control_c, 2, 7, 127
4, 0, Control_c, 2, 10, 45
4, 170, Control_c, 2, 7, 126
4, 175, Control_c, 2, 7, 124
4, 180, Control_c, 2, 7, 108
4, 180, Control_c, 2, 7, 116
4, 185, Control_c, 2, 7, 102
4, 190, Control_c, 2, 7, 88
4, 190, Control_c, 2, 7, 94
4, 195, Control_c, 2, 7, 85
4, 195, Control_c, 2, 7, 86
4, 200, Control_c, 2, 7, 84
4, 205, Control_c, 2, 7, 66
4, 205, Control_c, 2, 7, 76
4, 210, Control_c, 2, 7, 61
4, 230, Control_c, 2, 7, 60
4, 235, Control_c, 2, 7, 59
4, 255, Control_c, 2, 7, 58
4, 260, Control_c, 2, 7, 56
4, 265, Control_c, 2, 7, 55
4, 480, Note_on_c, 2, 67, 78
4, 480, Note_on_c, 2, 43, 61
4, 480, Note_on_c, 2, 64, 80
4, 480, Note_on_c, 2, 62, 74
4, 480, Note_on_c, 2, 58, 64
4, 576, Control_c, 2, 64, 127
4, 600, Note_on_c, 2, 55, 57
4, 622, Note_on_c, 2, 58, 0
4, 660, Note_on_c, 2, 58, 59
4, 705, Control_c, 2, 7, 56
4, 716, Control_c, 2, 7, 57
4, 778, Control_c, 2, 7, 58
4, 783, Control_c, 2, 7, 59
4, 823, Control_c, 2, 7, 60
4, 826, Note_on_c, 2, 58, 0
4, 870, Note_on_c, 2, 58, 55
4, 872, Note_on_c, 2, 62, 0
4, 877, Control_c, 2, 7, 61
4, 883, Note_on_c, 2, 64, 0
4, 900, Note_on_c, 2, 62, 70
4, 930, Note_on_c, 2, 64, 102
4, 931, Note_on_c, 2, 67, 0
4, 939, Control_c, 2, 64, 0
4, 941, Note_on_c, 2, 58, 0
4, 945, Note_on_c, 2, 55, 0
4, 948, Note_on_c, 2, 43, 0
4, 952, Note_on_c, 2, 62, 0
4, 957, Control_c, 2, 7, 62
4, 959, Note_on_c, 2, 64, 0
4, 960, Note_on_c, 2, 68, 78
4, 960, Note_on_c, 2, 43, 61
4, 960, Note_on_c, 2, 65, 80
4, 960, Note_on_c, 2, 62, 74
4, 960, Note_on_c, 2, 60, 64
4, 966, Control_c, 2, 7, 63
4, 1046, Control_c, 2, 7, 64
4, 1056, Control_c, 2, 64, 127
4, 1080, Note_on_c, 2, 56, 57
4, 1102, Note_on_c, 2, 60, 0
4, 1137, Control_c, 2, 7, 65
4, 1140, Note_on_c, 2, 60, 59
4, 1187, Control_c, 2, 7, 66
4, 1210, Control_c, 2, 7, 67
4, 1230, Control_c, 2, 7, 68
4, 1279, Control_c, 2, 7, 69
4, 1306, Note_on_c, 2, 60, 0
4, 1311, Control_c, 2, 7, 70
4, 1336, Control_c, 2, 7, 71
4, 1350, Note_on_c, 2, 60, 55
4, 1352, Note_on_c, 2, 62, 0
4, 1363, Note_on_c, 2, 65, 0
4, 1380, Control_c, 2, 7, 72
4, 1380, Note_on_c, 2, 62, 70
4, 1410, Note_on_c, 2, 65, 102
4, 1411, Note_on_c, 2, 68, 0
4, 1419, Control_c, 2, 64, 0
4, 1421, Note_on_c, 2, 60, 0
4, 1425, Note_on_c, 2, 56, 0
4, 1428, Note_on_c, 2, 43, 0
4, 1432, Note_on_c, 2, 62, 0
4, 1439, Note_on_c, 2, 65, 0
4, 1440, Note_on_c, 2, 43, 57
4, 1440, Note_on_c, 2, 67, 80
4, 1440, Note_on_c, 2, 62, 85
4, 1440, Note_on_c, 2, 64, 85
4, 1440, Note_on_c, 2, 58, 58
4, 1441, Control_c, 2, 7, 74
4, 1441, Control_c, 2, 7, 73
4, 1501, Control_c, 2, 7, 75
4, 1506, Control_c, 2, 7, 76
4, 1531, Control_c, 2, 7, 77
4, 1556, Control_c, 2, 7, 78
4, 1611, Control_c, 2, 7, 79
4, 1611, Control_c, 2, 64, 127
4, 1620, Note_on_c, 2, 55, 60
4, 1650, Control_c, 2, 7, 80
4, 1677, Control_c, 2, 7, 81
4, 1722, Control_c, 2, 7, 82
4, 1727, Control_c, 2, 7, 83
4, 1795, Control_c, 2, 7, 84
4, 1804, Note_on_c, 2, 58, 0
4, 1804, Control_c, 2, 7, 85
4, 1830, Note_on_c, 2, 58, 57
4, 1831, Note_on_c, 2, 62, 0
4, 1831, Control_c, 2, 7, 86
4, 1860, Note_on_c, 2, 62, 89
4, 1881, Note_on_c, 2, 58, 0
4, 1882, Note_on_c, 2, 55, 0
4, 1889, Control_c, 2, 64, 0
4, 1890, Note_on_c, 2, 64, 0
4, 1890, Note_on_c, 2, 43, 0
4, 1890, Control_c, 2, 7, 87
4, 1895, Note_on_c, 2, 62, 0
4, 1895, Note_on_c, 2, 67, 0
4, 1920, Note_on_c, 2, 74, 80
4, 1920, Note_on_c, 2, 72, 60
4, 1920, Note_on_c, 2, 65, 60
4, 1920, Note_on_c, 2, 60, 63
4, 1920, Note_on_c, 2, 68, 80
4, 1935, Control_c, 2, 7, 88
4, 2005, Control_c, 2, 7, 90
4, 2005, Control_c, 2, 7, 89
4, 2065, Control_c, 2, 7, 91
4, 2090, Control_c, 2, 7, 92
4, 2160, Control_c, 2, 7, 93
4, 2168, Control_c, 2, 64, 127
4, 2193, Control_c, 2, 7, 94
4, 2216, Control_c, 2, 64, 0
4, 2246, Control_c, 2, 7, 95
4, 2283, Note_on_c, 2, 60, 0
4, 2283, Control_c, 2, 7, 96
4, 2310, Note_on_c, 2, 60, 78
4, 2315, Note_on_c, 2, 65, 0
4, 2325, Control_c, 2, 7, 97
4, 2326, Note_on_c, 2, 68, 0
4, 2326, Control_c, 2, 7, 98
4, 2334, Note_on_c, 2, 74, 0
4, 2334, Control_c, 2, 7, 100
4, 2334, Control_c, 2, 7, 99
4, 2340, Note_on_c, 2, 65, 66
4, 2346, Note_on_c, 2, 72, 0
4, 2370, Note_on_c, 2, 68, 85
4, 2377, Note_on_c, 2, 65, 0
4, 2381, Note_on_c, 2, 60, 0
4, 2387, Note_on_c, 2, 68, 0
4, 2400, Note_on_c, 2, 43, 57
4, 2400, Note_on_c, 2, 67, 80
4, 2400, Note_on_c, 2, 62, 85
4, 2400, Note_on_c, 2, 64, 85
4, 2400, Note_on_c, 2, 58, 58
4, 2410, Control_c, 2, 7, 101
4, 2440, Control_c, 2, 7, 102
4, 2485, Control_c, 2, 7, 103
4, 2490, Control_c, 2, 7, 104
4, 2495, Control_c, 2, 7, 105
4, 2571, Control_c, 2, 64, 127
4, 2580, Note_on_c, 2, 55, 60
4, 2625, Control_c, 2, 7, 106
4, 2630, Control_c, 2, 7, 107
4, 2635, Control_c, 2, 7, 108
4, 2679, Control_c, 2, 7, 109
4, 2744, Control_c, 2, 7, 111
4, 2744, Control_c, 2, 7, 110
4, 2764, Note_on_c, 2, 58, 0
4, 2790, Note_on_c, 2, 58, 57
4, 2791, Note_on_c, 2, 62, 0
4, 2796, Control_c, 2, 7, 120
4, 2796, Control_c, 2, 7, 112
4, 2820, Note_on_c, 2, 62, 89
4, 2841, Note_on_c, 2, 58, 0
4, 2842, Note_on_c, 2, 55, 0
4, 2849, Control_c, 2, 64, 0
4, 2850, Note_on_c, 2, 64, 0
4, 2850, Note_on_c, 2, 43, 0
4, 2855, Note_on_c, 2, 62, 0
4, 2855, Note_on_c, 2, 67, 0
4, 2880, Note_on_c, 2, 74, 80
4, 2880, Note_on_c, 2, 72, 60
4, 2880, Note_on_c, 2, 65, 60
4, 2880, Note_on_c, 2, 60, 63
4, 2880, Note_on_c, 2, 68, 80
4, 2936, Control_c, 2, 7, 121
4, 2946, Control_c, 2, 7, 122
4, 3036, Control_c, 2, 7, 123
4, 3108, Control_c, 2, 7, 125
4, 3108, Control_c, 2, 7, 124
4, 3128, Control_c, 2, 64, 127
4, 3173, Control_c, 2, 7, 126
4, 3176, Control_c, 2, 64, 0
4, 3243, Note_on_c, 2, 60, 0
4, 3249, Control_c, 2, 7, 127
4, 3270, Note_on_c, 2, 60, 78
4, 3275, Note_on_c, 2, 65, 0
4, 3286, Note_on_c, 2, 68, 0
4, 3294, Note_on_c, 2, 74, 0
4, 3300, Note_on_c, 2, 65, 66
4, 3306, Note_on_c, 2, 72, 0
4, 3330, Note_on_c, 2, 68, 85
4, 3337, Note_on_c, 2, 65, 0
4, 3341, Note_on_c, 2, 60, 0
4, 3347, Note_on_c, 2, 68, 0
4, 3360, Note_on_c, 2, 67, 78
4, 3360, Note_on_c, 2, 48, 61
4, 3360, Note_on_c, 2, 64, 80
4, 3360, Note_on_c, 2, 60, 74
4, 3456, Control_c, 2, 64, 127
4, 3480, Note_on_c, 2, 55, 57
4, 3502, Note_on_c, 2, 60, 0
4, 3540, Note_on_c, 2, 60, 59
4, 3706, Note_on_c, 2, 60, 0
4, 3750, Note_on_c, 2, 60, 55
4, 3752, Note_on_c, 2, 60, 0
4, 3763, Note_on_c, 2, 64, 0
4, 3780, Note_on_c, 2, 60, 70
4, 3810, Note_on_c, 2, 64, 102
4, 3811, Note_on_c, 2, 67, 0
4, 3819, Control_c, 2, 64, 0
4, 3821, Note_on_c, 2, 60, 0
4, 3825, Note_on_c, 2, 55, 0
4, 3828, Note_on_c, 2, 48, 0
4, 3839, Note_on_c, 2, 64, 0
4, 3840, Note_on_c, 2, 48, 57
4, 3840, Note_on_c, 2, 68, 80
4, 3840, Note_on_c, 2, 62, 85
4, 3840, Note_on_c, 2, 65, 85
4, 3840, Note_on_c, 2, 60, 58
4, 4011, Control_c, 2, 64, 127
4, 4020, Note_on_c, 2, 56, 60
4, 4204, Note_on_c, 2, 60, 0
4, 4230, Note_on_c, 2, 60, 57
4, 4231, Note_on_c, 2, 62, 0
4, 4260, Note_on_c, 2, 62, 89
4, 4281, Note_on_c, 2, 60, 0
4, 4282, Note_on_c, 2, 56, 0
4, 4289, Control_c, 2, 64, 0
4, 4290, Note_on_c, 2, 65, 0
4, 4290, Note_on_c, 2, 48, 0
4, 4295, Note_on_c, 2, 62, 0
4, 4295, Note_on_c, 2, 68, 0
4, 4320, Note_on_c, 2, 67, 78
4, 4320, Note_on_c, 2, 48, 61
4, 4320, Note_on_c, 2, 64, 80
4, 4320, Note_on_c, 2, 60, 74
4, 4416, Control_c, 2, 64, 127
4, 4440, Note_on_c, 2, 55, 57
4, 4462, Note_on_c, 2, 60, 0
4, 4500, Note_on_c, 2, 60, 59
4, 4666, Note_on_c, 2, 60, 0
4, 4710, Note_on_c, 2, 60, 55
4, 4712, Note_on_c, 2, 60, 0
4, 4723, Note_on_c, 2, 64, 0
4, 4740, Note_on_c, 2, 60, 70
4, 4770, Note_on_c, 2, 64, 102
4, 4771, Note_on_c, 2, 67, 0
4, 4779, Control_c, 2, 64, 0
4, 4781, Note_on_c, 2, 60, 0
4, 4785, Note_on_c, 2, 55, 0
4, 4788, Note_on_c, 2, 48, 0
4, 4799, Note_on_c, 2, 64, 0
4, 4800, Note_on_c, 2, 68, 78
4, 4800, Note_on_c, 2, 48, 61
4, 4800, Note_on_c, 2, 65, 80
4, 4800, Note_on_c, 2, 62, 74
4, 4800, Note_on_c, 2, 60, 64
4, 4896, Control_c, 2, 64, 127
4, 4920, Note_on_c, 2, 56, 57
4, 4942, Note_on_c, 2, 60, 0
4, 4980, Note_on_c, 2, 60, 59
4, 5146, Note_on_c, 2, 60, 0
4, 5190, Note_on_c, 2, 60, 55
4, 5192, Note_on_c, 2, 62, 0
4, 5203, Note_on_c, 2, 65, 0
4, 5220, Note_on_c, 2, 62, 70
4, 5250, Note_on_c, 2, 65, 102
4, 5251, Note_on_c, 2, 68, 0
4, 5259, Control_c, 2, 64, 0
4, 5261, Note_on_c, 2, 60, 0
4, 5265, Note_on_c, 2, 56, 0
4, 5268, Note_on_c, 2, 48, 0
4, 5272, Note_on_c, 2, 62, 0
4, 5279, Note_on_c, 2, 65, 0
4, 5280, Note_on_c, 2, 67, 78
4, 5280, Note_on_c, 2, 48, 61
4, 5280, Note_on_c, 2, 64, 80
4, 5280, Note_on_c, 2, 60, 74
4, 5376, Control_c, 2, 64, 127
4, 5400, Note_on_c, 2, 55, 57
4, 5422, Note_on_c, 2, 60, 0
4, 5460, Note_on_c, 2, 60, 59
4, 5626, Note_on_c, 2, 60, 0
4, 5670, Note_on_c, 2, 60, 55
4, 5672, Note_on_c, 2, 60, 0
4, 5683, Note_on_c, 2, 64, 0
4, 5700, Note_on_c, 2, 60, 70
4, 5730, Note_on_c, 2, 64, 102
4, 5731, Note_on_c, 2, 67, 0
4, 5739, Control_c, 2, 64, 0
4, 5741, Note_on_c, 2, 60, 0
4, 5745, Note_on_c, 2, 55, 0
4, 5748, Note_on_c, 2, 48, 0
4, 5759, Note_on_c, 2, 64, 0
4, 5760, Note_on_c, 2, 68, 78
4, 5760, Note_on_c, 2, 43, 61
4, 5760, Note_on_c, 2, 65, 80
4, 5760, Note_on_c, 2, 62, 74
4, 5760, Note_on_c, 2, 60, 64
4, 5856, Control_c, 2, 64, 127
4, 5880, Note_on_c, 2, 56, 57
4, 5902, Note_on_c, 2, 60, 0
4, 5940, Note_on_c, 2, 60, 59
4, 6106, Note_on_c, 2, 60, 0
4, 6150, Note_on_c, 2, 60, 55
4, 6152, Note_on_c, 2, 62, 0
4, 6163, Note_on_c, 2, 65, 0
4, 6180, Note_on_c, 2, 62, 70
4, 6210, Note_on_c, 2, 65, 102
4, 6211, Note_on_c, 2, 68, 0
4, 6219, Control_c, 2, 64, 0
4, 6221, Note_on_c, 2, 60, 0
4, 6225, Note_on_c, 2, 56, 0
4, 6228, Note_on_c, 2, 43, 0
4, 6232, Note_on_c, 2, 62, 0
4, 6239, Note_on_c, 2, 65, 0
4, 6240, Note_on_c, 2, 48, 57
4, 6240, Note_on_c, 2, 67, 80
4, 6240, Note_on_c, 2, 60, 85
4, 6240, Note_on_c, 2, 64, 85
4, 6411, Control_c, 2, 64, 127
4, 6420, Note_on_c, 2, 55, 60
4, 6604, Note_on_c, 2, 60, 0
4, 6630, Note_on_c, 2, 60, 57
4, 6631, Note_on_c, 2, 60, 0
4, 6660, Note_on_c, 2, 60, 89
4, 6681, Note_on_c, 2, 60, 0
4, 6682, Note_on_c, 2, 55, 0
4, 6689, Control_c, 2, 64, 0
4, 6690, Note_on_c, 2, 64, 0
4, 6690, Note_on_c, 2, 48, 0
4, 6695, Note_on_c, 2, 67, 0
4, 6720, Note_on_c, 2, 74, 80
4, 6720, Note_on_c, 2, 72, 60
4, 6720, Note_on_c, 2, 65, 60
4, 6720, Note_on_c, 2, 60, 63
4, 6720, Note_on_c, 2, 68, 80
4, 6968, Control_c, 2, 64, 127
4, 7016, Control_c, 2, 64, 0
4, 7083, Note_on_c, 2, 60, 0
4, 7110, Note_on_c, 2, 60, 78
4, 7115, Note_on_c, 2, 65, 0
4, 7126, Note_on_c, 2, 68, 0
4, 7134, Note_on_c, 2, 74, 0
4, 7140, Note_on_c, 2, 65, 66
4, 7146, Note_on_c, 2, 72, 0
4, 7170, Note_on_c, 2, 68, 85
4, 7177, Note_on_c, 2, 65, 0
4, 7181, Note_on_c, 2, 60, 0
4, 7187, Note_on_c, 2, 68, 0
4, 7200, Note_on_c, 2, 67, 78
4, 7200, Note_on_c, 2, 48, 61
4, 7200, Note_on_c, 2, 64, 80
4, 7200, Note_on_c, 2, 60, 74
4, 7296, Control_c, 2, 64, 127
4, 7320, Note_on_c, 2, 55, 57
4, 7342, Note_on_c, 2, 60, 0
4, 7380, Note_on_c, 2, 60, 59
4, 7546, Note_on_c, 2, 60, 0
4, 7590, Note_on_c, 2, 60, 55
4, 7592, Note_on_c, 2, 60, 0
4, 7603, Note_on_c, 2, 64, 0
4, 7620, Note_on_c, 2, 60, 70
4, 7650, Note_on_c, 2, 64, 102
4, 7651, Note_on_c, 2, 67, 0
4, 7659, Control_c, 2, 64, 0
4, 7661, Note_on_c, 2, 60, 0
4, 7665, Note_on_c, 2, 55, 0
4, 7668, Note_on_c, 2, 48, 0
4, 7679, Note_on_c, 2, 64, 0
4, 7680, Note_on_c, 2, 68, 78
4, 7680, Note_on_c, 2, 48, 57
4, 7680, Note_on_c, 2, 65, 70
4, 7680, Note_on_c, 2, 62, 70
4, 7680, Note_on_c, 2, 60, 57
4, 7693, Control_c, 2, 64, 127
4, 7789, Note_on_c, 2, 60, 0
4, 7821, Note_on_c, 2, 65, 0
4, 7826, Note_on_c, 2, 62, 0
4, 7827, Note_on_c, 2, 68, 0
4, 7830, Note_on_c, 2, 60, 47
4, 7860, Note_on_c, 2, 62, 85
4, 7860, Note_on_c, 2, 68, 78
4, 7860, Note_on_c, 2, 65, 82
4, 7878, Control_c, 2, 64, 0
4, 7900, Note_on_c, 2, 60, 0
4, 7905, Note_on_c, 2, 65, 0
4, 7907, Note_on_c, 2, 62, 0
4, 7909, Note_on_c, 2, 68, 0
4, 7910, Note_on_c, 2, 48, 0
4, 7920, Note_on_c, 2, 64, 72
4, 7920, Note_on_c, 2, 60, 68
4, 7920, Note_on_c, 2, 40, 51
4, 7920, Note_on_c, 2, 62, 70
4, 7920, Note_on_c, 2, 56, 49
4, 8007, Control_c, 2, 64, 127
4, 8119, Control_c, 2, 64, 0
4, 8139, Note_on_c, 2, 56, 0
4, 8139, Note_on_c, 2, 62, 0
4, 8142, Note_on_c, 2, 60, 0
4, 8144, Note_on_c, 2, 40, 0
4, 8144, Note_on_c, 2, 64, 0
4, 8160, Note_on_c, 2, 45, 57
4, 8160, Note_on_c, 2, 69, 80
4, 8160, Note_on_c, 2, 64, 85
4, 8160, Note_on_c, 2, 67, 85
4, 8160, Note_on_c, 2, 60, 58
4, 8331, Control_c, 2, 64, 127
4, 8340, Note_on_c, 2, 57, 60
4, 8524, Note_on_c, 2, 60, 0
4, 8550, Note_on_c, 2, 60, 57
4, 8551, Note_on_c, 2, 64, 0
4, 8580, Note_on_c, 2, 64, 89
4, 8601, Note_on_c, 2, 60, 0
4, 8602, Note_on_c, 2, 57, 0
4, 8609, Control_c, 2, 64, 0
4, 8610, Note_on_c, 2, 67, 0
4, 8610, Note_on_c, 2, 45, 0
4, 8615, Note_on_c, 2, 64, 0
4, 8615, Note_on_c, 2, 69, 0
4, 8640, Note_on_c, 2, 68, 78
4, 8640, Note_on_c, 2, 44, 61
4, 8640, Note_on_c, 2, 65, 80
4, 8640, Note_on_c, 2, 62, 74
4, 8640, Note_on_c, 2, 60, 64
4, 8736, Control_c, 2, 64, 127
4, 8760, Note_on_c, 2, 56, 57
4, 8782, Note_on_c, 2, 60, 0
4, 8820, Note_on_c, 2, 60, 59
4, 8986, Note_on_c, 2, 60, 0
4, 9030, Note_on_c, 2, 60, 55
4, 9032, Note_on_c, 2, 62, 0
4, 9043, Note_on_c, 2, 65, 0
4, 9060, Note_on_c, 2, 62, 70
4, 9090, Note_on_c, 2, 65, 102
4, 9091, Note_on_c, 2, 68, 0
4, 9099, Control_c, 2, 64, 0
4, 9101, Note_on_c, 2, 60, 0
4, 9105, Note_on_c, 2, 56, 0
4, 9108, Note_on_c, 2, 44, 0
4, 9112, Note_on_c, 2, 62, 0
4, 9119, Note_on_c, 2, 65, 0
4, 9120, Note_on_c, 2, 72, 80
4, 9120, Note_on_c, 2, 64, 60
4, 9120, Note_on_c, 2, 60, 63
4, 9120, Note_on_c, 2, 67, 80
4, 9368, Control_c, 2, 64, 127
4, 9416, Control_c, 2, 64, 0
4, 9483, Note_on_c, 2, 60, 0
4, 9510, Note_on_c, 2, 60, 78
4, 9515, Note_on_c, 2, 64, 0
4, 9526, Note_on_c, 2, 67, 0
4, 9534, Note_on_c, 2, 72, 0
4, 9540, Note_on_c, 2, 64, 66
4, 9570, Note_on_c, 2, 67, 85
4, 9577, Note_on_c, 2, 64, 0
4, 9581, Note_on_c, 2, 60, 0
4, 9587, Note_on_c, 2, 67, 0
4, 9600, Note_on_c, 2, 74, 80
4, 9600, Note_on_c, 2, 72, 60
4, 9600, Note_on_c, 2, 65, 60
4, 9600, Note_on_c, 2, 60, 63
4, 9600, Note_on_c, 2, 69, 80
4, 9848, Control_c, 2, 64, 127
4, 9896, Control_c, 2, 64, 0
4, 9963, Note_on_c, 2, 60, 0
4, 9990, Note_on_c, 2, 60, 78
4, 9995, Note_on_c, 2, 65, 0
4, 10006, Note_on_c, 2, 69, 0
4, 10014, Note_on_c, 2, 74, 0
4, 10020, Note_on_c, 2, 65, 66
4, 10026, Note_on_c, 2, 72, 0
4, 10050, Note_on_c, 2, 69, 85
4, 10057, Note_on_c, 2, 65, 0
4, 10061, Note_on_c, 2, 60, 0
4, 10067, Note_on_c, 2, 69, 0
4, 10080, Note_on_c, 2, 48, 57
4, 10080, Note_on_c, 2, 67, 80
4, 10080, Note_on_c, 2, 60, 85
4, 10080, Note_on_c, 2, 64, 85
4, 10251, Control_c, 2, 64, 127
4, 10260, Note_on_c, 2, 55, 60
4, 10444, Note_on_c, 2, 60, 0
4, 10470, Note_on_c, 2, 60, 57
4, 10471, Note_on_c, 2, 60, 0
4, 10500, Note_on_c, 2, 60, 89
4, 10521, Note_on_c, 2, 60, 0
4, 10522, Note_on_c, 2, 55, 0
4, 10529, Control_c, 2, 64, 0
4, 10530, Note_on_c, 2, 64, 0
4, 10530, Note_on_c, 2, 48, 0
4, 10535, Note_on_c, 2, 67, 0
4, 10560, Note_on_c, 2, 45, 57
4, 10560, Note_on_c, 2, 69, 80
4, 10560, Note_on_c, 2, 64, 85
4, 10560, Note_on_c, 2, 67, 85
4, 10560, Note_on_c, 2, 60, 58
4, 10731, Control_c, 2, 64, 127
4, 10740, Note_on_c, 2, 57, 60
4, 10924, Note_on_c, 2, 60, 0
4, 10950, Note_on_c, 2, 60, 57
4, 10951, Note_on_c, 2, 64, 0
4, 10980, Note_on_c, 2, 64, 89
4, 11001, Note_on_c, 2, 60, 0
4, 11002, Note_on_c, 2, 57, 0
4, 11009, Control_c, 2, 64, 0
4, 11010, Note_on_c, 2, 67, 0
4, 11010, Note_on_c, 2, 45, 0
4, 11015, Note_on_c, 2, 64, 0
4, 11015, Note_on_c, 2, 69, 0
4, 11040, Note_on_c, 2, 50, 57
4, 11040, Note_on_c, 2, 69, 80
4, 11040, Note_on_c, 2, 62, 85
4, 11040, Note_on_c, 2, 65, 85
4, 11040, Note_on_c, 2, 60, 58
4, 11211, Control_c, 2, 64, 127
4, 11220, Note_on_c, 2, 57, 60
4, 11404, Note_on_c, 2, 60, 0
4, 11430, Note_on_c, 2, 60, 57
4, 11431, Note_on_c, 2, 62, 0
4, 11460, Note_on_c, 2, 62, 89
4, 11481, Note_on_c, 2, 60, 0
4, 11482, Note_on_c, 2, 57, 0
4, 11489, Control_c, 2, 64, 0
4, 11490, Note_on_c, 2, 65, 0
4, 11490, Note_on_c, 2, 50, 0
4, 11495, Note_on_c, 2, 62, 0
4, 11495, Note_on_c, 2, 69, 0
4, 11520, Note_on_c, 2, 69, 78
4, 11520, Note_on_c, 2, 43, 57
4, 11520, Note_on_c, 2, 65, 70
4, 11520, Note_on_c, 2, 62, 70
4, 11520, Note_on_c, 2, 60, 57
4, 11533, Control_c, 2, 64, 127
4, 11629, Note_on_c, 2, 60, 0
4, 11661, Note_on_c, 2, 65, 0
4, 11666, Note_on_c, 2, 62, 0
4, 11667, Note_on_c, 2, 69, 0
4, 11670, Note_on_c, 2, 60, 47
4, 11700, Note_on_c, 2, 62, 85
4, 11700, Note_on_c, 2, 69, 78
4, 11700, Note_on_c, 2, 65, 82
4, 11718, Control_c, 2, 64, 0
4, 11740, Note_on_c, 2, 60, 0
4, 11745, Note_on_c, 2, 65, 0
4, 11747, Note_on_c, 2, 62, 0
4, 11749, Note_on_c, 2, 69, 0
4, 11750, Note_on_c, 2, 43, 0
4, 11760, Note_on_c, 2, 59, 57
4, 11760, Note_on_c, 2, 68, 80
4, 11760, Note_on_c, 2, 44, 53
4, 11760, Note_on_c, 2, 62, 66
4, 11760, Note_on_c, 2, 65, 76
4, 11813, Control_c, 2, 64, 127
4, 11847, Note_on_c, 2, 59, 0
4, 11880, Note_on_c, 2, 59, 64
4, 11881, Note_on_c, 2, 62, 0
4, 11886, Note_on_c, 2, 65, 0
4, 11940, Note_on_c, 2, 62, 74
4, 11980, Control_c, 2, 64, 0
4, 11982, Note_on_c, 2, 59, 0
4, 11983, Note_on_c, 2, 68, 0
4, 11988, Note_on_c, 2, 62, 0
4, 11989, Note_on_c, 2, 44, 0
4, 12000, Note_on_c, 2, 69, 78
4, 12000, Note_on_c, 2, 45, 61
4, 12000, Note_on_c, 2, 67, 80
4, 12000, Note_on_c, 2, 64, 74
4, 12000, Note_on_c, 2, 60, 64
4, 12096, Control_c, 2, 64, 127
4, 12120, Note_on_c, 2, 57, 57
4, 12142, Note_on_c, 2, 60, 0
4, 12180, Note_on_c, 2, 60, 59
4, 12346, Note_on_c, 2, 60, 0
4, 12390, Note_on_c, 2, 60, 55
4, 12392, Note_on_c, 2, 64, 0
4, 12403, Note_on_c, 2, 67, 0
4, 12420, Note_on_c, 2, 64, 70
4, 12450, Note_on_c, 2, 67, 102
4, 12451, Note_on_c, 2, 69, 0
4, 12459, Control_c, 2, 64, 0
4, 12461, Note_on_c, 2, 60, 0
4, 12465, Note_on_c, 2, 57, 0
4, 12468, Note_on_c, 2, 45, 0
4, 12472, Note_on_c, 2, 64, 0
4, 12479, Note_on_c, 2, 67, 0
4, 12480, Note_on_c, 2, 44, 57
4, 12480, Note_on_c, 2, 68, 80
4, 12480, Note_on_c, 2, 62, 85
4, 12480, Note_on_c, 2, 65, 85
4, 12480, Note_on_c, 2, 60, 58
4, 12651, Control_c, 2, 64, 127
4, 12660, Note_on_c, 2, 56, 60
4, 12844, Note_on_c, 2, 60, 0
4, 12870, Note_on_c, 2, 60, 57
4, 12871, Note_on_c, 2, 62, 0
4, 12900, Note_on_c, 2, 62, 89
4, 12921, Note_on_c, 2, 60, 0
4, 12922, Note_on_c, 2, 56, 0
4, 12929, Control_c, 2, 64, 0
4, 12930, Note_on_c, 2, 65, 0
4, 12930, Note_on_c, 2, 44, 0
4, 12935, Note_on_c, 2, 62, 0
4, 12935, Note_on_c, 2, 68, 0
4, 12960, Note_on_c, 2, 43, 57
4, 12960, Note_on_c, 2, 67, 80
4, 12960, Note_on_c, 2, 60, 85
4, 12960, Note_on_c, 2, 64, 85
4, 13131, Control_c, 2, 64, 127
4, 13140, Note_on_c, 2, 55, 60
4, 13324, Note_on_c, 2, 60, 0
4, 13350, Note_on_c, 2, 60, 57
4, 13351, Note_on_c, 2, 60, 0
4, 13380, Note_on_c, 2, 60, 89
4, 13401, Note_on_c, 2, 60, 0
4, 13402, Note_on_c, 2, 55, 0
4, 13409, Control_c, 2, 64, 0
4, 13410, Note_on_c, 2, 64, 0
4, 13410, Note_on_c, 2, 43, 0
4, 13415, Note_on_c, 2, 67, 0
4, 13440, Note_on_c, 2, 74, 80
4, 13440, Note_on_c, 2, 72, 60
4, 13440, Note_on_c, 2, 65, 60
4, 13440, Note_on_c, 2, 60, 63
4, 13440, Note_on_c, 2, 68, 80
4, 13688, Control_c, 2, 64, 127
4, 13736, Control_c, 2, 64, 0
4, 13803, Note_on_c, 2, 60, 0
4, 13830, Note_on_c, 2, 60, 78
4, 13835, Note_on_c, 2, 65, 0
4, 13846, Note_on_c, 2, 68, 0
4, 13854, Note_on_c, 2, 74, 0
4, 13860, Note_on_c, 2, 65, 66
4, 13866, Note_on_c, 2, 72, 0
4, 13890, Note_on_c, 2, 68, 85
4, 13897, Note_on_c, 2, 65, 0
4, 13901, Note_on_c, 2, 60, 0
4, 13907, Note_on_c, 2, 68, 0
4, 13920, Note_on_c, 2, 76, 80
4, 13920, Note_on_c, 2, 72, 60
4, 13920, Note_on_c, 2, 67, 60
4, 13920, Note_on_c, 2, 60, 63
4, 13920, Note_on_c, 2, 69, 80
4, 14168, Control_c, 2, 64, 127
4, 14216, Control_c, 2, 64, 0
4, 14283, Note_on_c, 2, 60, 0
4, 14310, Note_on_c, 2, 60, 78
4, 14315, Note_on_c, 2, 67, 0
4, 14326, Note_on_c, 2, 69, 0
4, 14334, Note_on_c, 2, 76, 0
4, 14340, Note_on_c, 2, 67, 66
4, 14346, Note_on_c, 2, 72, 0
4, 14370, Note_on_c, 2, 69, 85
4, 14377, Note_on_c, 2, 67, 0
4, 14381, Note_on_c, 2, 60, 0
4, 14387, Note_on_c, 2, 69, 0
4, 14400, Note_on_c, 2, 72, 80
4, 14400, Note_on_c, 2, 69, 60
4, 14400, Note_on_c, 2, 64, 60
4, 14400, Note_on_c, 2, 57, 63
4, 14400, Note_on_c, 2, 67, 80
4, 14648, Control_c, 2, 64, 127
4, 14696, Control_c, 2, 64, 0
4, 14763, Note_on_c, 2, 57, 0
4, 14790, Note_on_c, 2, 57, 78
4, 14795, Note_on_c, 2, 64, 0
4, 14806, Note_on_c, 2, 67, 0
4, 14814, Note_on_c, 2, 72, 0
4, 14820, Note_on_c, 2, 64, 66
4, 14826, Note_on_c, 2, 69, 0
4, 14850, Note_on_c, 2, 67, 85
4, 14857, Note_on_c, 2, 64, 0
4, 14861, Note_on_c, 2, 57, 0
4, 14867, Note_on_c, 2, 67, 0
4, 14880, Note_on_c, 2, 48, 57
4, 14880, Note_on_c, 2, 67, 80
4, 14880, Note_on_c, 2, 60, 85
4, 14880, Note_on_c, 2, 64, 85
4, 15051, Control_c, 2, 64, 127
4, 15060, Note_on_c, 2, 55, 60
4, 15244, Note_on_c, 2, 60, 0
4, 15270, Note_on_c, 2, 60, 57
4, 15271, Note_on_c, 2, 60, 0
4, 15300, Note_on_c, 2, 60, 89
4, 15321, Note_on_c, 2, 60, 0
4, 15322, Note_on_c, 2, 55, 0
4, 15329, Control_c, 2, 64, 0
4, 15330, Note_on_c, 2, 64, 0
4, 15330, Note_on_c, 2, 48, 0
4, 15335, Note_on_c, 2, 67, 0
4, 15360, Note_on_c, 2, 48, 57
4, 15360, Note_on_c, 2, 68, 80
4, 15360, Note_on_c, 2, 62, 85
4, 15360, Note_on_c, 2, 65, 85
4, 15360, Note_on_c, 2, 60, 58
4, 15531, Control_c, 2, 64, 127
4, 15540, Note_on_c, 2, 56, 60
4, 15724, Note_on_c, 2, 60, 0
4, 15750, Note_on_c, 2, 60, 57
4, 15751, Note_on_c, 2, 62, 0
4, 15780, Note_on_c, 2, 62, 89
4, 15801, Note_on_c, 2, 60, 0
4, 15802, Note_on_c, 2, 56, 0
4, 15809, Control_c, 2, 64, 0
4, 15810, Note_on_c, 2, 65, 0
4, 15810, Note_on_c, 2, 48, 0
4, 15815, Note_on_c, 2, 62, 0
4, 15815, Note_on_c, 2, 68, 0
4, 15840, Note_on_c, 2, 72, 80
4, 15840, Note_on_c, 2, 64, 60
4, 15840, Note_on_c, 2, 60, 63
4, 15840, Note_on_c, 2, 67, 80
4, 16088, Control_c, 2, 64, 127
4, 16136, Control_c, 2, 64, 0
4, 16203, Note_on_c, 2, 60, 0
4, 16230, Note_on_c, 2, 60, 78
4, 16235, Note_on_c, 2, 64, 0
4, 16246, Note_on_c, 2, 67, 0
4, 16254, Note_on_c, 2, 72, 0
4, 16260, Note_on_c, 2, 64, 66
4, 16290, Note_on_c, 2, 67, 85
4, 16297, Note_on_c, 2, 64, 0
4, 16301, Note_on_c, 2, 60, 0
4, 16307, Note_on_c, 2, 67, 0
4, 16320, Note_on_c, 2, 74, 80
4, 16320, Note_on_c, 2, 72, 60
4, 16320, Note_on_c, 2, 65, 60
4, 16320, Note_on_c, 2, 60, 63
4, 16320, Note_on_c, 2, 68, 80
4, 16568, Control_c, 2, 64, 127
4, 16616, Control_c, 2, 64, 0
4, 16683, Note_on_c, 2, 60, 0
4, 16710, Note_on_c, 2, 60, 78
4, 16715, Note_on_c, 2, 65, 0
4, 16726, Note_on_c, 2, 68, 0
4, 16734, Note_on_c, 2, 74, 0
4, 16740, Note_on_c, 2, 65, 66
4, 16746, Note_on_c, 2, 72, 0
4, 16770, Note_on_c, 2, 68, 85
4, 16777, Note_on_c, 2, 65, 0
4, 16781, Note_on_c, 2, 60, 0
4, 16787, Note_on_c, 2, 68, 0
4, 16800, Note_on_c, 2, 72, 80
4, 16800, Note_on_c, 2, 64, 60
4, 16800, Note_on_c, 2, 60, 63
4, 16800, Note_on_c, 2, 67, 80
4, 17048, Control_c, 2, 64, 127
4, 17096, Control_c, 2, 64, 0
4, 17163, Note_on_c, 2, 60, 0
4, 17190, Note_on_c, 2, 60, 78
4, 17195, Note_on_c, 2, 64, 0
4, 17206, Note_on_c, 2, 67, 0
4, 17214, Note_on_c, 2, 72, 0
4, 17220, Note_on_c, 2, 64, 66
4, 17250, Note_on_c, 2, 67, 85
4, 17257, Note_on_c, 2, 64, 0
4, 17261, Note_on_c, 2, 60, 0
4, 17267, Note_on_c, 2, 67, 0
4, 17280, Note_on_c, 2, 68, 78
4, 17280, Note_on_c, 2, 48, 61
4, 17280, Note_on_c, 2, 65, 80
4, 17280, Note_on_c, 2, 62, 74
4, 17280, Note_on_c, 2, 60, 64
4, 17376, Control_c, 2, 64, 127
4, 17400, Note_on_c, 2, 56, 57
4, 17422, Note_on_c, 2, 60, 0
4, 17460, Note_on_c, 2, 60, 59
4, 17626, Note_on_c, 2, 60, 0
4, 17670, Note_on_c, 2, 60, 55
4, 17672, Note_on_c, 2, 62, 0
4, 17683, Note_on_c, 2, 65, 0
4, 17700, Note_on_c, 2, 62, 70
4, 17730, Note_on_c, 2, 65, 102
4, 17731, Note_on_c, 2, 68, 0
4, 17739, Control_c, 2, 64, 0
4, 17741, Note_on_c, 2, 60, 0
4, 17745, Note_on_c, 2, 56, 0
4, 17748, Note_on_c, 2, 48, 0
4, 17752, Note_on_c, 2, 62, 0
4, 17759, Note_on_c, 2, 65, 0
4, 17760, Note_on_c, 2, 48, 57
4, 17760, Note_on_c, 2, 67, 80
4, 17760, Note_on_c, 2, 60, 85
4, 17760, Note_on_c, 2, 64, 85
4, 17931, Control_c, 2, 64, 127
4, 17940, Note_on_c, 2, 55, 60
4, 18124, Note_on_c, 2, 60, 0
4, 18150, Note_on_c, 2, 60, 57
4, 18151, Note_on_c, 2, 60, 0
4, 18180, Note_on_c, 2, 60, 89
4, 18201, Note_on_c, 2, 60, 0
4, 18202, Note_on_c, 2, 55, 0
4, 18209, Control_c, 2, 64, 0
4, 18210, Note_on_c, 2, 64, 0
4, 18210, Note_on_c, 2, 48, 0
4, 18215, Note_on_c, 2, 67, 0
4, 18240, Note_on_c, 2, 68, 72
4, 18240, Note_on_c, 2, 62, 68
4, 18240, Note_on_c, 2, 48, 51
4, 18240, Note_on_c, 2, 65, 70
4, 18240, Note_on_c, 2, 60, 49
4, 18327, Control_c, 2, 64, 127
4, 18439, Control_c, 2, 64, 0
4, 18459, Note_on_c, 2, 60, 0
4, 18459, Note_on_c, 2, 65, 0
4, 18462, Note_on_c, 2, 62, 0
4, 18464, Note_on_c, 2, 48, 0
4, 18464, Note_on_c, 2, 68, 0
4, 18480, Note_on_c, 2, 64, 72
4, 18480, Note_on_c, 2, 60, 68
4, 18480, Note_on_c, 2, 40, 51
4, 18480, Note_on_c, 2, 62, 70
4, 18480, Note_on_c, 2, 56, 49
4, 18567, Control_c, 2, 64, 127
4, 18679, Control_c, 2, 64, 0
4, 18699, Note_on_c, 2, 56, 0
4, 18699, Note_on_c, 2, 62, 0
4, 18702, Note_on_c, 2, 60, 0
4, 18704, Note_on_c, 2, 40, 0
4, 18704, Note_on_c, 2, 64, 0
4, 18720, Note_on_c, 2, 69, 78
4, 18720, Note_on_c, 2, 45, 61
4, 18720, Note_on_c, 2, 67, 80
4, 18720, Note_on_c, 2, 64, 74
4, 18720, Note_on_c, 2, 60, 64
4, 18816, Control_c, 2, 64, 127
4, 18840, Note_on_c, 2, 57, 57
4, 18862, Note_on_c, 2, 60, 0
4, 18900, Note_on_c, 2, 60, 59
4, 19066, Note_on_c, 2, 60, 0
4, 19110, Note_on_c, 2, 60, 55
4, 19112, Note_on_c, 2, 64, 0
4, 19123, Note_on_c, 2, 67, 0
4, 19140, Note_on_c, 2, 64, 70
4, 19170, Note_on_c, 2, 67, 102
4, 19171, Note_on_c, 2, 69, 0
4, 19179, Control_c, 2, 64, 0
4, 19181, Note_on_c, 2, 60, 0
4, 19185, Note_on_c, 2, 57, 0
4, 19188, Note_on_c, 2, 45, 0
4, 19192, Note_on_c, 2, 64, 0
4, 19199, Note_on_c, 2, 67, 0
4, 19200, Note_on_c, 2, 68, 78
4, 19200, Note_on_c, 2, 44, 61
4, 19200, Note_on_c, 2, 65, 80
4, 19200, Note_on_c, 2, 62, 74
4, 19200, Note_on_c, 2, 60, 64
4, 19296, Control_c, 2, 64, 127
4, 19320, Note_on_c, 2, 56, 57
4, 19342, Note_on_c, 2, 60, 0
4, 19380, Note_on_c, 2, 60, 59
4, 19546, Note_on_c, 2, 60, 0
4, 19590, Note_on_c, 2, 60, 55
4, 19592, Note_on_c, 2, 62, 0
4, 19603, Note_on_c, 2, 65, 0
4, 19620, Note_on_c, 2, 62, 70
4, 19650, Note_on_c, 2, 65, 102
4, 19651, Note_on_c, 2, 68, 0
4, 19659, Control_c, 2, 64, 0
4, 19661, Note_on_c, 2, 60, 0
4, 19665, Note_on_c, 2, 56, 0
4, 19668, Note_on_c, 2, 44, 0
4, 19672, Note_on_c, 2, 62, 0
4, 19679, Note_on_c, 2, 65, 0
4, 19680, Note_on_c, 2, 67, 78
4, 19680, Note_on_c, 2, 43, 61
4, 19680, Note_on_c, 2, 64, 80
4, 19680, Note_on_c, 2, 60, 74
4, 19776, Control_c, 2, 64, 127
4, 19800, Note_on_c, 2, 55, 57
4, 19822, Note_on_c, 2, 60, 0
4, 19860, Note_on_c, 2, 60, 59
4, 20026, Note_on_c, 2, 60, 0
4, 20070, Note_on_c, 2, 60, 55
4, 20072, Note_on_c, 2, 60, 0
4, 20083, Note_on_c, 2, 64, 0
4, 20100, Note_on_c, 2, 60, 70
4, 20130, Note_on_c, 2, 64, 102
4, 20131, Note_on_c, 2, 67, 0
4, 20139, Control_c, 2, 64, 0
4, 20141, Note_on_c, 2, 60, 0
4, 20145, Note_on_c, 2, 55, 0
4, 20148, Note_on_c, 2, 43, 0
4, 20159, Note_on_c, 2, 64, 0
4, 20160, Note_on_c, 2, 74, 80
4, 20160, Note_on_c, 2, 72, 60
4, 20160, Note_on_c, 2, 65, 60
4, 20160, Note_on_c, 2, 60, 63
4, 20160, Note_on_c, 2, 69, 80
4, 20408, Control_c, 2, 64, 127
4, 20456, Control_c, 2, 64, 0
4, 20523, Note_on_c, 2, 60, 0
4, 20550, Note_on_c, 2, 60, 78
4, 20555, Note_on_c, 2, 65, 0
4, 20566, Note_on_c, 2, 69, 0
4, 20574, Note_on_c, 2, 74, 0
4, 20580, Note_on_c, 2, 65, 66
4, 20586, Note_on_c, 2, 72, 0
4, 20610, Note_on_c, 2, 69, 85
4, 20617, Note_on_c, 2, 65, 0
4, 20621, Note_on_c, 2, 60, 0
4, 20627, Note_on_c, 2, 69, 0
4, 20640, Note_on_c, 2, 48, 57
4, 20640, Note_on_c, 2, 67, 80
4, 20640, Note_on_c, 2, 60, 85
4, 20640, Note_on_c, 2, 64, 85
4, 20811, Control_c, 2, 64, 127
4, 20820, Note_on_c, 2, 55, 60
4, 21004, Note_on_c, 2, 60, 0
4, 21030, Note_on_c, 2, 60, 57
4, 21031, Note_on_c, 2, 60, 0
4, 21060, Note_on_c, 2, 60, 89
4, 21081, Note_on_c, 2, 60, 0
4, 21082, Note_on_c, 2, 55, 0
4, 21089, Control_c, 2, 64, 0
4, 21090, Note_on_c, 2, 64, 0
4, 21090, Note_on_c, 2, 48, 0
4, 21095, Note_on_c, 2, 67, 0
4, 21120, Note_on_c, 2, 69, 78
4, 21120, Note_on_c, 2, 45, 61
4, 21120, Note_on_c, 2, 67, 80
4, 21120, Note_on_c, 2, 64, 74
4, 21120, Note_on_c, 2, 60, 64
4, 21216, Control_c, 2, 64, 127
4, 21240, Note_on_c, 2, 57, 57
4, 21262, Note_on_c, 2, 60, 0
4, 21300, Note_on_c, 2, 60, 59
4, 21466, Note_on_c, 2, 60, 0
4, 21510, Note_on_c, 2, 60, 55
4, 21512, Note_on_c, 2, 64, 0
4, 21523, Note_on_c, 2, 67, 0
4, 21540, Note_on_c, 2, 64, 70
4, 21570, Note_on_c, 2, 67, 102
4, 21571, Note_on_c, 2, 69, 0
4, 21579, Control_c, 2, 64, 0
4, 21581, Note_on_c, 2, 60, 0
4, 21585, Note_on_c, 2, 57, 0
4, 21588, Note_on_c, 2, 45, 0
4, 21592, Note_on_c, 2, 64, 0
4, 21599, Note_on_c, 2, 67, 0
4, 21600, Note_on_c, 2, 74, 80
4, 21600, Note_on_c, 2, 72, 60
4, 21600, Note_on_c, 2, 65, 60
4, 21600, Note_on_c, 2, 60, 63
4, 21600, Note_on_c, 2, 69, 80
4, 21848, Control_c, 2, 64, 127
4, 21896, Control_c, 2, 64, 0
4, 21963, Note_on_c, 2, 60, 0
4, 21990, Note_on_c, 2, 60, 78
4, 21995, Note_on_c, 2, 65, 0
4, 22006, Note_on_c, 2, 69, 0
4, 22014, Note_on_c, 2, 74, 0
4, 22020, Note_on_c, 2, 65, 66
4, 22026, Note_on_c, 2, 72, 0
4, 22050, Note_on_c, 2, 69, 85
4, 22057, Note_on_c, 2, 65, 0
4, 22061, Note_on_c, 2, 60, 0
4, 22067, Note_on_c, 2, 69, 0
4, 22080, Note_on_c, 2, 69, 72
4, 22080, Note_on_c, 2, 62, 68
4, 22080, Note_on_c, 2, 43, 51
4, 22080, Note_on_c, 2, 65, 70
4, 22080, Note_on_c, 2, 60, 49
4, 22167, Control_c, 2, 64, 127
4, 22279, Control_c, 2, 64, 0
4, 22299, Note_on_c, 2, 60, 0
4, 22299, Note_on_c, 2, 65, 0
4, 22302, Note_on_c, 2, 62, 0
4, 22304, Note_on_c, 2, 43, 0
4, 22304, Note_on_c, 2, 69, 0
4, 22320, Note_on_c, 2, 68, 72
4, 22320, Note_on_c, 2, 62, 68
4, 22320, Note_on_c, 2, 44, 51
4, 22320, Note_on_c, 2, 65, 70
4, 22320, Note_on_c, 2, 59, 49
4, 22407, Control_c, 2, 64, 127
4, 22519, Control_c, 2, 64, 0
4, 22539, Note_on_c, 2, 59, 0
4, 22539, Note_on_c, 2, 65, 0
4, 22542, Note_on_c, 2, 62, 0
4, 22544, Note_on_c, 2, 44, 0
4, 22544, Note_on_c, 2, 68, 0
4, 22560, Note_on_c, 2, 69, 78
4, 22560, Note_on_c, 2, 45, 61
4, 22560, Note_on_c, 2, 67, 80
4, 22560, Note_on_c, 2, 64, 74
4, 22560, Note_on_c, 2, 60, 64
4, 22656, Control_c, 2, 64, 127
4, 22680, Note_on_c, 2, 57, 57
4, 22702, Note_on_c, 2, 60, 0
4, 22740, Note_on_c, 2, 60, 59
4, 22906, Note_on_c, 2, 60, 0
4, 22950, Note_on_c, 2, 60, 55
4, 22952, Note_on_c, 2, 64, 0
4, 22963, Note_on_c, 2, 67, 0
4, 22980, Note_on_c, 2, 64, 70
4, 23010, Note_on_c, 2, 67, 102
4, 23011, Note_on_c, 2, 69, 0
4, 23019, Control_c, 2, 64, 0
4, 23021, Note_on_c, 2, 60, 0
4, 23025, Note_on_c, 2, 57, 0
4, 23028, Note_on_c, 2, 45, 0
4, 23032, Note_on_c, 2, 64, 0
4, 23039, Note_on_c, 2, 67, 0
4, 23040, Note_on_c, 2, 68, 78
4, 23040, Note_on_c, 2, 44, 61
4, 23040, Note_on_c, 2, 65, 80
4, 23040, Note_on_c, 2, 62, 74
4, 23040, Note_on_c, 2, 60, 64
4, 23136, Control_c, 2, 64, 127
4, 23160, Note_on_c, 2, 56, 57
4, 23182, Note_on_c, 2, 60, 0
4, 23220, Note_on_c, 2, 60, 59
4, 23386, Note_on_c, 2, 60, 0
4, 23430, Note_on_c, 2, 60, 55
4, 23432, Note_on_c, 2, 62, 0
4, 23443, Note_on_c, 2, 65, 0
4, 23460, Note_on_c, 2, 62, 70
4, 23490, Note_on_c, 2, 65, 102
4, 23491, Note_on_c, 2, 68, 0
4, 23499, Control_c, 2, 64, 0
4, 23501, Note_on_c, 2, 60, 0
4, 23505, Note_on_c, 2, 56, 0
4, 23508, Note_on_c, 2, 44, 0
4, 23512, Note_on_c, 2, 62, 0
4, 23519, Note_on_c, 2, 65, 0
4, 23520, Note_on_c, 2, 67, 78
4, 23520, Note_on_c, 2, 43, 61
4, 23520, Note_on_c, 2, 64, 80
4, 23520, Note_on_c, 2, 60, 74
4, 23616, Control_c, 2, 64, 127
4, 23640, Note_on_c, 2, 55, 57
4, 23662, Note_on_c, 2, 60, 0
4, 23700, Note_on_c, 2, 60, 59
4, 23866, Note_on_c, 2, 60, 0
4, 23910, Note_on_c, 2, 60, 55
4, 23912, Note_on_c, 2, 60, 0
4, 23923, Note_on_c, 2, 64, 0
4, 23940, Note_on_c, 2, 60, 70
4, 23970, Note_on_c, 2, 64, 102
4, 23971, Note_on_c, 2, 67, 0
4, 23979, Control_c, 2, 64, 0
4, 23981, Note_on_c, 2, 60, 0
4, 23985, Note_on_c, 2, 55, 0
4, 23988, Note_on_c, 2, 43, 0
4, 23999, Note_on_c, 2, 64, 0
4, 24000, Note_on_c, 2, 44, 57
4, 24000, Note_on_c, 2, 68, 80
4, 24000, Note_on_c, 2, 62, 85
4, 24000, Note_on_c, 2, 65, 85
4, 24000, Note_on_c, 2, 60, 58
4, 24171, Control_c, 2, 64, 127
4, 24180, Note_on_c, 2, 56, 60
4, 24364, Note_on_c, 2, 60, 0
4, 24390, Note_on_c, 2, 60, 57
4, 24391, Note_on_c, 2, 62, 0
4, 24420, Note_on_c, 2, 62, 89
4, 24441, Note_on_c, 2, 60, 0
4, 24442, Note_on_c, 2, 56, 0
4, 24449, Control_c, 2, 64, 0
4, 24450, Note_on_c, 2, 65, 0
4, 24450, Note_on_c, 2, 44, 0
4, 24455, Note_on_c, 2, 62, 0
4, 24455, Note_on_c, 2, 68, 0
4, 24480, Note_on_c, 2, 45, 57
4, 24480, Note_on_c, 2, 69, 80
4, 24480, Note_on_c, 2, 64, 85
4, 24480, Note_on_c, 2, 67, 85
4, 24480, Note_on_c, 2, 60, 58
4, 24651, Control_c, 2, 64, 127
4, 24660, Note_on_c, 2, 57, 60
4, 24844, Note_on_c, 2, 60, 0
4, 24870, Note_on_c, 2, 60, 57
4, 24871, Note_on_c, 2, 64, 0
4, 24900, Note_on_c, 2, 64, 89
4, 24921, Note_on_c, 2, 60, 0
4, 24922, Note_on_c, 2, 57, 0
4, 24929, Control_c, 2, 64, 0
4, 24930, Note_on_c, 2, 67, 0
4, 24930, Note_on_c, 2, 45, 0
4, 24935, Note_on_c, 2, 64, 0
4, 24935, Note_on_c, 2, 69, 0
4, 24960, Note_on_c, 2, 50, 57
4, 24960, Note_on_c, 2, 69, 80
4, 24960, Note_on_c, 2, 62, 85
4, 24960, Note_on_c, 2, 65, 85
4, 24960, Note_on_c, 2, 60, 58
4, 25131, Control_c, 2, 64, 127
4, 25140, Note_on_c, 2, 57, 60
4, 25324, Note_on_c, 2, 60, 0
4, 25350, Note_on_c, 2, 60, 57
4, 25351, Note_on_c, 2, 62, 0
4, 25380, Note_on_c, 2, 62, 89
4, 25401, Note_on_c, 2, 60, 0
4, 25402, Note_on_c, 2, 57, 0
4, 25409, Control_c, 2, 64, 0
4, 25410, Note_on_c, 2, 65, 0
4, 25410, Note_on_c, 2, 50, 0
4, 25415, Note_on_c, 2, 62, 0
4, 25415, Note_on_c, 2, 69, 0
4, 25440, Note_on_c, 2, 67, 78
4, 25440, Note_on_c, 2, 52, 61
4, 25440, Note_on_c, 2, 64, 80
4, 25440, Note_on_c, 2, 60, 74
4, 25536, Control_c, 2, 64, 127
4, 25560, Note_on_c, 2, 55, 57
4, 25582, Note_on_c, 2, 60, 0
4, 25620, Note_on_c, 2, 60, 59
4, 25786, Note_on_c, 2, 60, 0
4, 25830, Note_on_c, 2, 60, 55
4, 25832, Note_on_c, 2, 60, 0
4, 25843, Note_on_c, 2, 64, 0
4, 25860, Note_on_c, 2, 60, 70
4, 25890, Note_on_c, 2, 64, 102
4, 25891, Note_on_c, 2, 67, 0
4, 25899, Control_c, 2, 64, 0
4, 25901, Note_on_c, 2, 60, 0
4, 25905, Note_on_c, 2, 55, 0
4, 25908, Note_on_c, 2, 52, 0
4, 25919, Note_on_c, 2, 64, 0
4, 25920, Note_on_c, 2, 72, 80
4, 25920, Note_on_c, 2, 69, 60
4, 25920, Note_on_c, 2, 64, 60
4, 25920, Note_on_c, 2, 57, 63
4, 25920, Note_on_c, 2, 67, 80
4, 26168, Control_c, 2, 64, 127
4, 26216, Control_c, 2, 64, 0
4, 26283, Note_on_c, 2, 57, 0
4, 26310, Note_on_c, 2, 57, 78
4, 26315, Note_on_c, 2, 64, 0
4, 26326, Note_on_c, 2, 67, 0
4, 26334, Note_on_c, 2, 72, 0
4, 26340, Note_on_c, 2, 64, 66
4, 26346, Note_on_c, 2, 69, 0
4, 26370, Note_on_c, 2, 67, 85
4, 26377, Note_on_c, 2, 64, 0
4, 26381, Note_on_c, 2, 57, 0
4, 26387, Note_on_c, 2, 67, 0
4, 26400, Note_on_c, 2, 77, 80
4, 26400, Note_on_c, 2, 73, 60
4, 26400, Note_on_c, 2, 68, 60
4, 26400, Note_on_c, 2, 61, 63
4, 26400, Note_on_c, 2, 70, 80
4, 26648, Control_c, 2, 64, 127
4, 26696, Control_c, 2, 64, 0
4, 26763, Note_on_c, 2, 61, 0
4, 26790, Note_on_c, 2, 61, 78
4, 26795, Note_on_c, 2, 68, 0
4, 26806, Note_on_c, 2, 70, 0
4, 26814, Note_on_c, 2, 77, 0
4, 26820, Note_on_c, 2, 68, 66
4, 26826, Note_on_c, 2, 73, 0
4, 26850, Note_on_c, 2, 70, 85
4, 26857, Note_on_c, 2, 68, 0
4, 26861, Note_on_c, 2, 61, 0
4, 26867, Note_on_c, 2, 70, 0
4, 26880, Note_on_c, 2, 69, 78
4, 26880, Note_on_c, 2, 45, 61
4, 26880, Note_on_c, 2, 66, 80
4, 26880, Note_on_c, 2, 63, 74
4, 26880, Note_on_c, 2, 61, 64
4, 26976, Control_c, 2, 64, 127
4, 27000, Note_on_c, 2, 57, 57
4, 27022, Note_on_c, 2, 61, 0
4, 27060, Note_on_c, 2, 61, 59
4, 27226, Note_on_c, 2, 61, 0
4, 27270, Note_on_c, 2, 61, 55
4, 27272, Note_on_c, 2, 63, 0
4, 27283, Note_on_c, 2, 66, 0
4, 27300, Note_on_c, 2, 63, 70
4, 27330, Note_on_c, 2, 66, 102
4, 27331, Note_on_c, 2, 69, 0
4, 27339, Control_c, 2, 64, 0
4, 27341, Note_on_c, 2, 61, 0
4, 27345, Note_on_c, 2, 57, 0
4, 27348, Note_on_c, 2, 45, 0
4, 27352, Note_on_c, 2, 63, 0
4, 27359, Note_on_c, 2, 66, 0
4, 27360, Note_on_c, 2, 68, 78
4, 27360, Note_on_c, 2, 44, 61
4, 27360, Note_on_c, 2, 65, 80
4, 27360, Note_on_c, 2, 61, 74
4, 27456, Control_c, 2, 64, 127
4, 27480, Note_on_c, 2, 56, 57
4, 27502, Note_on_c, 2, 61, 0
4, 27540, Note_on_c, 2, 61, 59
4, 27706, Note_on_c, 2, 61, 0
4, 27750, Note_on_c, 2, 61, 55
4, 27752, Note_on_c, 2, 61, 0
4, 27763, Note_on_c, 2, 65, 0
4, 27780, Note_on_c, 2, 61, 70
4, 27810, Note_on_c, 2, 65, 102
4, 27811, Note_on_c, 2, 68, 0
4, 27819, Control_c, 2, 64, 0
4, 27821, Note_on_c, 2, 61, 0
4, 27825, Note_on_c, 2, 56, 0
4, 27828, Note_on_c, 2, 44, 0
4, 27839, Note_on_c, 2, 65, 0
4, 27840, Note_on_c, 2, 44, 57
4, 27840, Note_on_c, 2, 70, 80
4, 27840, Note_on_c, 2, 63, 85
4, 27840, Note_on_c, 2, 66, 85
4, 27840, Note_on_c, 2, 61, 58
4, 28011, Control_c, 2, 64, 127
4, 28020, Note_on_c, 2, 58, 60
4, 28204, Note_on_c, 2, 61, 0
4, 28230, Note_on_c, 2, 61, 57
4, 28231, Note_on_c, 2, 63, 0
4, 28260, Note_on_c, 2, 63, 89
4, 28281, Note_on_c, 2, 61, 0
4, 28282, Note_on_c, 2, 58, 0
4, 28289, Control_c, 2, 64, 0
4, 28290, Note_on_c, 2, 66, 0
4, 28290, Note_on_c, 2, 44, 0
4, 28295, Note_on_c, 2, 63, 0
4, 28295, Note_on_c, 2, 70, 0
4, 28320, Note_on_c, 2, 68, 78
4, 28320, Note_on_c, 2, 49, 61
4, 28320, Note_on_c, 2, 65, 80
4, 28320, Note_on_c, 2, 61, 74
4, 28416, Control_c, 2, 64, 127
4, 28440, Note_on_c, 2, 56, 57
4, 28462, Note_on_c, 2, 61, 0
4, 28500, Note_on_c, 2, 61, 59
4, 28666, Note_on_c, 2, 61, 0
4, 28710, Note_on_c, 2, 61, 55
4, 28712, Note_on_c, 2, 61, 0
4, 28723, Note_on_c, 2, 65, 0
4, 28740, Note_on_c, 2, 61, 70
4, 28770, Note_on_c, 2, 65, 102
4, 28771, Note_on_c, 2, 68, 0
4, 28779, Control_c, 2, 64, 0
4, 28781, Note_on_c, 2, 61, 0
4, 28785, Note_on_c, 2, 56, 0
4, 28788, Note_on_c, 2, 49, 0
4, 28799, Note_on_c, 2, 65, 0
4, 28800, Note_on_c, 2, 70, 78
4, 28800, Note_on_c, 2, 46, 61
4, 28800, Note_on_c, 2, 68, 80
4, 28800, Note_on_c, 2, 65, 74
4, 28800, Note_on_c, 2, 61, 64
4, 28896, Control_c, 2, 64, 127
4, 28920, Note_on_c, 2, 58, 57
4, 28942, Note_on_c, 2, 61, 0
4, 28980, Note_on_c, 2, 61, 59
4, 29146, Note_on_c, 2, 61, 0
4, 29190, Note_on_c, 2, 61, 55
4, 29192, Note_on_c, 2, 65, 0
4, 29203, Note_on_c, 2, 68, 0
4, 29220, Note_on_c, 2, 65, 70
4, 29250, Note_on_c, 2, 68, 102
4, 29251, Note_on_c, 2, 70, 0
4, 29259, Control_c, 2, 64, 0
4, 29261, Note_on_c, 2, 61, 0
4, 29265, Note_on_c, 2, 58, 0
4, 29268, Note_on_c, 2, 46, 0
4, 29272, Note_on_c, 2, 65, 0
4, 29279, Note_on_c, 2, 68, 0
4, 29280, Note_on_c, 2, 75, 80
4, 29280, Note_on_c, 2, 73, 60
4, 29280, Note_on_c, 2, 66, 60
4, 29280, Note_on_c, 2, 61, 63
4, 29280, Note_on_c, 2, 70, 80
4, 29528, Control_c, 2, 64, 127
4, 29576, Control_c, 2, 64, 0
4, 29643, Note_on_c, 2, 61, 0
4, 29670, Note_on_c, 2, 61, 78
4, 29675, Note_on_c, 2, 66, 0
4, 29686, Note_on_c, 2, 70, 0
4, 29694, Note_on_c, 2, 75, 0
4, 29700, Note_on_c, 2, 66, 66
4, 29706, Note_on_c, 2, 73, 0
4, 29730, Note_on_c, 2, 70, 85
4, 29737, Note_on_c, 2, 66, 0
4, 29741, Note_on_c, 2, 61, 0
4, 29747, Note_on_c, 2, 70, 0
4, 29760, Note_on_c, 2, 70, 72
4, 29760, Note_on_c, 2, 63, 68
4, 29760, Note_on_c, 2, 44, 51
4, 29760, Note_on_c, 2, 66, 70
4, 29760, Note_on_c, 2, 61, 49
4, 29847, Control_c, 2, 64, 127
4, 29959, Control_c, 2, 64, 0
4, 29979, Note_on_c, 2, 61, 0
4, 29979, Note_on_c, 2, 66, 0
4, 29982, Note_on_c, 2, 63, 0
4, 29984, Note_on_c, 2, 44, 0
4, 29984, Note_on_c, 2, 70, 0
4, 30000, Note_on_c, 2, 69, 72
4, 30000, Note_on_c, 2, 63, 68
4, 30000, Note_on_c, 2, 45, 51
4, 30000, Note_on_c, 2, 66, 70
4, 30000, Note_on_c, 2, 60, 49
4, 30087, Control_c, 2, 64, 127
4, 30199, Control_c, 2, 64, 0
4, 30219, Note_on_c, 2, 60, 0
4, 30219, Note_on_c, 2, 66, 0
4, 30222, Note_on_c, 2, 63, 0
4, 30224, Note_on_c, 2, 45, 0
4, 30224, Note_on_c, 2, 69, 0
4, 30240, Note_on_c, 2, 77, 80
4, 30240, Note_on_c, 2, 73, 60
4, 30240, Note_on_c, 2, 68, 60
4, 30240, Note_on_c, 2, 61, 63
4, 30240, Note_on_c, 2, 70, 80
4, 30488, Control_c, 2, 64, 127
4, 30536, Control_c, 2, 64, 0
4, 30603, Note_on_c, 2, 61, 0
4, 30630, Note_on_c, 2, 61, 78
4, 30635, Note_on_c, 2, 68, 0
4, 30646, Note_on_c, 2, 70, 0
4, 30654, Note_on_c, 2, 77, 0
4, 30660, Note_on_c, 2, 68, 66
4, 30666, Note_on_c, 2, 73, 0
4, 30690, Note_on_c, 2, 70, 85
4, 30697, Note_on_c, 2, 68, 0
4, 30701, Note_on_c, 2, 61, 0
4, 30707, Note_on_c, 2, 70, 0
4, 30720, Note_on_c, 2, 69, 78
4, 30720, Note_on_c, 2, 45, 61
4, 30720, Note_on_c, 2, 66, 80
4, 30720, Note_on_c, 2, 63, 74
4, 30720, Note_on_c, 2, 61, 64
4, 30816, Control_c, 2, 64, 127
4, 30840, Note_on_c, 2, 57, 57
4, 30862, Note_on_c, 2, 61, 0
4, 30900, Note_on_c, 2, 61, 59
4, 31066, Note_on_c, 2, 61, 0
4, 31110, Note_on_c, 2, 61, 55
4, 31112, Note_on_c, 2, 63, 0
4, 31123, Note_on_c, 2, 66, 0
4, 31140, Note_on_c, 2, 63, 70
4, 31170, Note_on_c, 2, 66, 102
4, 31171, Note_on_c, 2, 69, 0
4, 31179, Control_c, 2, 64, 0
4, 31181, Note_on_c, 2, 61, 0
4, 31185, Note_on_c, 2, 57, 0
4, 31188, Note_on_c, 2, 45, 0
4, 31192, Note_on_c, 2, 63, 0
4, 31199, Note_on_c, 2, 66, 0
4, 31200, Note_on_c, 2, 68, 78
4, 31200, Note_on_c, 2, 44, 61
4, 31200, Note_on_c, 2, 65, 80
4, 31200, Note_on_c, 2, 61, 74
4, 31296, Control_c, 2, 64, 127
4, 31320, Note_on_c, 2, 56, 57
4, 31342, Note_on_c, 2, 61, 0
4, 31380, Note_on_c, 2, 61, 59
4, 31546, Note_on_c, 2, 61, 0
4, 31590, Note_on_c, 2, 61, 55
4, 31592, Note_on_c, 2, 61, 0
4, 31603, Note_on_c, 2, 65, 0
4, 31620, Note_on_c, 2, 61, 70
4, 31650, Note_on_c, 2, 65, 102
4, 31651, Note_on_c, 2, 68, 0
4, 31659, Control_c, 2, 64, 0
4, 31661, Note_on_c, 2, 61, 0
4, 31665, Note_on_c, 2, 56, 0
4, 31668, Note_on_c, 2, 44, 0
4, 31679, Note_on_c, 2, 65, 0
4, 31680, Note_on_c, 2, 75, 80
4, 31680, Note_on_c, 2, 73, 60
4, 31680, Note_on_c, 2, 66, 60
4, 31680, Note_on_c, 2, 61, 63
4, 31680, Note_on_c, 2, 69, 80
4, 31928, Control_c, 2, 64, 127
4, 31976, Control_c, 2, 64, 0
4, 32043, Note_on_c, 2, 61, 0
4, 32070, Note_on_c, 2, 61, 78
4, 32075, Note_on_c, 2, 66, 0
4, 32086, Note_on_c, 2, 69, 0
4, 32094, Note_on_c, 2, 75, 0
4, 32100, Note_on_c, 2, 66, 66
4, 32106, Note_on_c, 2, 73, 0
4, 32130, Note_on_c, 2, 69, 85
4, 32137, Note_on_c, 2, 66, 0
4, 32141, Note_on_c, 2, 61, 0
4, 32147, Note_on_c, 2, 69, 0
4, 32160, Note_on_c, 2, 68, 78
4, 32160, Note_on_c, 2, 44, 61
4, 32160, Note_on_c, 2, 65, 80
4, 32160, Note_on_c, 2, 61, 74
4, 32256, Control_c, 2, 64, 127
4, 32280, Note_on_c, 2, 56, 57
4, 32302, Note_on_c, 2, 61, 0
4, 32340, Note_on_c, 2, 61, 59
4, 32506, Note_on_c, 2, 61, 0
4, 32550, Note_on_c, 2, 61, 55
4, 32552, Note_on_c, 2, 61, 0
4, 32563, Note_on_c, 2, 65, 0
4, 32580, Note_on_c, 2, 61, 70
4, 32610, Note_on_c, 2, 65, 102
4, 32611, Note_on_c, 2, 68, 0
4, 32619, Control_c, 2, 64, 0
4, 32621, Note_on_c, 2, 61, 0
4, 32625, Note_on_c, 2, 56, 0
4, 32628, Note_on_c, 2, 44, 0
4, 32639, Note_on_c, 2, 65, 0
4, 32640, Note_on_c, 2, 45, 57
4, 32640, Note_on_c, 2, 69, 80
4, 32640, Note_on_c, 2, 63, 85
4, 32640, Note_on_c, 2, 66, 85
4, 32640, Note_on_c, 2, 61, 58
4, 32811, Control_c, 2, 64, 127
4, 32820, Note_on_c, 2, 57, 60
4, 33004, Note_on_c, 2, 61, 0
4, 33030, Note_on_c, 2, 61, 57
4, 33031, Note_on_c, 2, 63, 0
4, 33060, Note_on_c, 2, 63, 89
4, 33081, Note_on_c, 2, 61, 0
4, 33082, Note_on_c, 2, 57, 0
4, 33089, Control_c, 2, 64, 0
4, 33090, Note_on_c, 2, 66, 0
4, 33090, Note_on_c, 2, 45, 0
4, 33095, Note_on_c, 2, 63, 0
4, 33095, Note_on_c, 2, 69, 0
4, 33120, Note_on_c, 2, 68, 78
4, 33120, Note_on_c, 2, 44, 61
4, 33120, Note_on_c, 2, 65, 80
4, 33120, Note_on_c, 2, 61, 74
4, 33216, Control_c, 2, 64, 127
4, 33240, Note_on_c, 2, 56, 57
4, 33262, Note_on_c, 2, 61, 0
4, 33300, Note_on_c, 2, 61, 59
4, 33466, Note_on_c, 2, 61, 0
4, 33510, Note_on_c, 2, 61, 55
4, 33512, Note_on_c, 2, 61, 0
4, 33523, Note_on_c, 2, 65, 0
4, 33540, Note_on_c, 2, 61, 70
4, 33570, Note_on_c, 2, 65, 102
4, 33571, Note_on_c, 2, 68, 0
4, 33579, Control_c, 2, 64, 0
4, 33581, Note_on_c, 2, 61, 0
4, 33585, Note_on_c, 2, 56, 0
4, 33588, Note_on_c, 2, 44, 0
4, 33599, Note_on_c, 2, 65, 0
4, 33600, Note_on_c, 2, 69, 78
4, 33600, Note_on_c, 2, 45, 61
4, 33600, Note_on_c, 2, 66, 80
4, 33600, Note_on_c, 2, 63, 74
4, 33600, Note_on_c, 2, 61, 64
4, 33696, Control_c, 2, 64, 127
4, 33720, Note_on_c, 2, 57, 57
4, 33742, Note_on_c, 2, 61, 0
4, 33780, Note_on_c, 2, 61, 59
4, 33946, Note_on_c, 2, 61, 0
4, 33990, Note_on_c, 2, 61, 55
4, 33992, Note_on_c, 2, 63, 0
4, 34003, Note_on_c, 2, 66, 0
4, 34020, Note_on_c, 2, 63, 70
4, 34050, Note_on_c, 2, 66, 102
4, 34051, Note_on_c, 2, 69, 0
4, 34059, Control_c, 2, 64, 0
4, 34061, Note_on_c, 2, 61, 0
4, 34065, Note_on_c, 2, 57, 0
4, 34068, Note_on_c, 2, 45, 0
4, 34072, Note_on_c, 2, 63, 0
4, 34079, Note_on_c, 2, 66, 0
4, 34080, Note_on_c, 2, 73, 80
4, 34080, Note_on_c, 2, 65, 60
4, 34080, Note_on_c, 2, 61, 63
4, 34080, Note_on_c, 2, 68, 80
4, 34328, Control_c, 2, 64, 127
4, 34376, Control_c, 2, 64, 0
4, 34443, Note_on_c, 2, 61, 0
4, 34470, Note_on_c, 2, 61, 78
4, 34475, Note_on_c, 2, 65, 0
4, 34486, Note_on_c, 2, 68, 0
4, 34494, Note_on_c, 2, 73, 0
4, 34500, Note_on_c, 2, 65, 66
4, 34530, Note_on_c, 2, 68, 85
4, 34537, Note_on_c, 2, 65, 0
4, 34541, Note_on_c, 2, 61, 0
4, 34547, Note_on_c, 2, 68, 0
4, 34560, Note_on_c, 2, 45, 57
4, 34560, Note_on_c, 2, 69, 80
4, 34560, Note_on_c, 2, 63, 85
4, 34560, Note_on_c, 2, 66, 85
4, 34560, Note_on_c, 2, 61, 58
4, 34731, Control_c, 2, 64, 127
4, 34740, Note_on_c, 2, 57, 60
4, 34924, Note_on_c, 2, 61, 0
4, 34950, Note_on_c, 2, 61, 57
4, 34951, Note_on_c, 2, 63, 0
4, 34980, Note_on_c, 2, 63, 89
4, 35001, Note_on_c, 2, 61, 0
4, 35002, Note_on_c, 2, 57, 0
4, 35009, Control_c, 2, 64, 0
4, 35010, Note_on_c, 2, 66, 0
4, 35010, Note_on_c, 2, 45, 0
4, 35015, Note_on_c, 2, 63, 0
4, 35015, Note_on_c, 2, 69, 0
4, 35040, Note_on_c, 2, 68, 78
4, 35040, Note_on_c, 2, 44, 61
4, 35040, Note_on_c, 2, 65, 80
4, 35040, Note_on_c, 2, 61, 74
4, 35136, Control_c, 2, 64, 127
4, 35160, Note_on_c, 2, 56, 57
4, 35182, Note_on_c, 2, 61, 0
4, 35220, Note_on_c, 2, 61, 59
4, 35386, Note_on_c, 2, 61, 0
4, 35430, Note_on_c, 2, 61, 55
4, 35432, Note_on_c, 2, 61, 0
4, 35443, Note_on_c, 2, 65, 0
4, 35460, Note_on_c, 2, 61, 70
4, 35490, Note_on_c, 2, 65, 102
4, 35491, Note_on_c, 2, 68, 0
4, 35499, Control_c, 2, 64, 0
4, 35501, Note_on_c, 2, 61, 0
4, 35505, Note_on_c, 2, 56, 0
4, 35508, Note_on_c, 2, 44, 0
4, 35519, Note_on_c, 2, 65, 0
4, 35520, Note_on_c, 2, 45, 57
4, 35520, Note_on_c, 2, 69, 80
4, 35520, Note_on_c, 2, 63, 85
4, 35520, Note_on_c, 2, 66, 85
4, 35520, Note_on_c, 2, 61, 58
4, 35691, Control_c, 2, 64, 127
4, 35700, Note_on_c, 2, 57, 60
4, 35884, Note_on_c, 2, 61, 0
4, 35910, Note_on_c, 2, 61, 57
4, 35911, Note_on_c, 2, 63, 0
4, 35940, Note_on_c, 2, 63, 89
4, 35961, Note_on_c, 2, 61, 0
4, 35962, Note_on_c, 2, 57, 0
4, 35969, Control_c, 2, 64, 0
4, 35970, Note_on_c, 2, 66, 0
4, 35970, Note_on_c, 2, 45, 0
4, 35975, Note_on_c, 2, 63, 0
4, 35975, Note_on_c, 2, 69, 0
4, 36000, Note_on_c, 2, 73, 80
4, 36000, Note_on_c, 2, 65, 60
4, 36000, Note_on_c, 2, 61, 63
4, 36000, Note_on_c, 2, 68, 80
4, 36248, Control_c, 2, 64, 127
4, 36296, Control_c, 2, 64, 0
4, 36363, Note_on_c, 2, 61, 0
4, 36390, Note_on_c, 2, 61, 78
4, 36395, Note_on_c, 2, 65, 0
4, 36406, Note_on_c, 2, 68, 0
4, 36414, Note_on_c, 2, 73, 0
4, 36420, Note_on_c, 2, 65, 66
4, 36450, Note_on_c, 2, 68, 85
4, 36457, Note_on_c, 2, 65, 0
4, 36461, Note_on_c, 2, 61, 0
4, 36467, Note_on_c, 2, 68, 0
4, 36480, Note_on_c, 2, 69, 78
4, 36480, Note_on_c, 2, 45, 61
4, 36480, Note_on_c, 2, 66, 80
4, 36480, Note_on_c, 2, 63, 74
4, 36480, Note_on_c, 2, 61, 64
4, 36576, Control_c, 2, 64, 127
4, 36600, Note_on_c, 2, 57, 57
4, 36622, Note_on_c, 2, 61, 0
4, 36660, Note_on_c, 2, 61, 59
4, 36826, Note_on_c, 2, 61, 0
4, 36870, Note_on_c, 2, 61, 55
4, 36872, Note_on_c, 2, 63, 0
4, 36883, Note_on_c, 2, 66, 0
4, 36900, Note_on_c, 2, 63, 70
4, 36930, Note_on_c, 2, 66, 102
4, 36931, Note_on_c, 2, 69, 0
4, 36939, Control_c, 2, 64, 0
4, 36941, Note_on_c, 2, 61, 0
4, 36945, Note_on_c, 2, 57, 0
4, 36948, Note_on_c, 2, 45, 0
4, 36952, Note_on_c, 2, 63, 0
4, 36959, Note_on_c, 2, 66, 0
4, 36960, Note_on_c, 2, 68, 78
4, 36960, Note_on_c, 2, 49, 61
4, 36960, Note_on_c, 2, 65, 80
4, 36960, Note_on_c, 2, 61, 74
4, 37056, Control_c, 2, 64, 127
4, 37080, Note_on_c, 2, 56, 57
4, 37102, Note_on_c, 2, 61, 0
4, 37135, Control_c, 2, 7, 126
4, 37140, Note_on_c, 2, 61, 59
4, 37215, Control_c, 2, 7, 125
4, 37230, Control_c, 2, 7, 124
4, 37255, Control_c, 2, 7, 123
4, 37275, Control_c, 2, 7, 122
4, 37280, Control_c, 2, 7, 121
4, 37300, Control_c, 2, 7, 120
4, 37306, Note_on_c, 2, 61, 0
4, 37320, Control_c, 2, 7, 119
4, 37330, Control_c, 2, 7, 118
4, 37345, Control_c, 2, 7, 117
4, 37350, Control_c, 2, 7, 116
4, 37350, Note_on_c, 2, 61, 55
4, 37352, Note_on_c, 2, 61, 0
4, 37357, Control_c, 2, 7, 115
4, 37363, Note_on_c, 2, 65, 0
4, 37375, Control_c, 2, 7, 114
4, 37380, Note_on_c, 2, 61, 70
4, 37390, Control_c, 2, 7, 113
4, 37405, Control_c, 2, 7, 112
4, 37410, Note_on_c, 2, 65, 102
4, 37411, Note_on_c, 2, 68, 0
4, 37411, Control_c, 2, 7, 111
4, 37419, Control_c, 2, 64, 0
4, 37421, Note_on_c, 2, 61, 0
4, 37425, Note_on_c, 2, 56, 0
4, 37428, Note_on_c, 2, 49, 0
4, 37428, Control_c, 2, 7, 110
4, 37433, Control_c, 2, 7, 109
4, 37439, Note_on_c, 2, 65, 0
4, 37440, Note_on_c, 2, 65, 85
4, 37440, Note_on_c, 2, 61, 85
4, 37440, Note_on_c, 2, 56, 85
4, 37445, Control_c, 2, 7, 108
4, 37465, Control_c, 2, 7, 107
4, 37483, Control_c, 2, 7, 106
4, 37500, Control_c, 2, 7, 105
4, 37520, Control_c, 2, 7, 104
4, 37535, Control_c, 2, 7, 103
4, 37550, Control_c, 2, 7, 102
4, 37555, Control_c, 2, 7, 101
4, 37565, Control_c, 2, 7, 100
4, 37575, Control_c, 2, 7, 99
4, 37590, Control_c, 2, 7, 98
4, 37595, Control_c, 2, 7, 97
4, 37610, Control_c, 2, 7, 96
4, 37640, Control_c, 2, 7, 94
4, 37640, Control_c, 2, 7, 95
4, 37663, Control_c, 2, 7, 93
4, 37673, Control_c, 2, 7, 92
4, 37680, Control_c, 2, 7, 91
4, 37710, Control_c, 2, 7, 89
4, 37710, Control_c, 2, 7, 90
4, 37720, Control_c, 2, 7, 87
4, 37720, Control_c, 2, 7, 88
4, 37730, Control_c, 2, 7, 86
4, 37750, Control_c, 2, 7, 84
4, 37750, Control_c, 2, 7, 85
4, 37760, Control_c, 2, 7, 83
4, 37770, Control_c, 2, 7, 82
4, 37779, Note_on_c, 2, 56, 0
4, 37779, Note_on_c, 2, 61, 0
4, 37779, Note_on_c, 2, 65, 0
4, 37779, Control_c, 2, 7, 80
4, 37779, Control_c, 2, 7, 81
4, 37800, Control_c, 2, 7, 79
4, 37800, Note_on_c, 2, 65, 85
4, 37800, Note_on_c, 2, 61, 85
4, 37800, Note_on_c, 2, 56, 85
4, 37805, Control_c, 2, 7, 78
4, 37810, Control_c, 2, 7, 77
4, 37830, Control_c, 2, 7, 76
4, 37835, Control_c, 2, 7, 75
4, 37850, Control_c, 2, 7, 74
4, 37860, Control_c, 2, 7, 72
4, 37860, Control_c, 2, 7, 73
4, 37870, Control_c, 2, 7, 71
4, 37880, Control_c, 2, 7, 70
4, 37890, Control_c, 2, 7, 69
4, 37894, Note_on_c, 2, 56, 0
4, 37894, Note_on_c, 2, 61, 0
4, 37894, Note_on_c, 2, 65, 0
4, 37899, Control_c, 2, 7, 67
4, 37899, Control_c, 2, 7, 68
4, 37914, Control_c, 2, 7, 66
4, 37915, Control_c, 2, 7, 65
4, 37920, Control_c, 2, 7, 64
4, 37920, Note_on_c, 2, 65, 85
4, 37920, Note_on_c, 2, 61, 85
4, 37920, Note_on_c, 2, 56, 85
4, 37935, Control_c, 2, 7, 63
4, 37940, Control_c, 2, 7, 62
4, 37955, Control_c, 2, 7, 60
4, 37955, Control_c, 2, 7, 61
4, 37960, Control_c, 2, 7, 59
4, 37965, Control_c, 2, 7, 58
4, 37975, Control_c, 2, 7, 57
4, 37985, Control_c, 2, 7, 56
4, 37990, Control_c, 2, 7, 55
4, 38010, Control_c, 2, 7, 53
4, 38010, Control_c, 2, 7, 54
4, 38025, Control_c, 2, 7, 52
4, 38030, Control_c, 2, 7, 51
4, 38035, Control_c, 2, 7, 49
4, 38035, Control_c, 2, 7, 50
4, 38040, Control_c, 2, 7, 48
4, 38050, Control_c, 2, 7, 47
4, 38060, Control_c, 2, 7, 46
4, 38075, Control_c, 2, 7, 45
4, 38080, Control_c, 2, 7, 44
4, 38095, Control_c, 2, 7, 43
4, 38100, Control_c, 2, 7, 41
4, 38120, Control_c, 2, 7, 40
4, 38125, Control_c, 2, 7, 39
4, 38130, Control_c, 2, 7, 38
4, 38135, Control_c, 2, 7, 37
4, 38142, Control_c, 2, 7, 36
4, 38163, Control_c, 2, 7, 35
4, 38168, Control_c, 2, 7, 34
4, 38173, Control_c, 2, 7, 33
4, 38178, Control_c, 2, 7, 32
4, 38183, Control_c, 2, 7, 31
4, 38185, Control_c, 2, 7, 30
4, 38195, Control_c, 2, 7, 29
4, 38205, Control_c, 2, 7, 27
4, 38205, Control_c, 2, 7, 28
4, 38210, Control_c, 2, 7, 25
4, 38210, Control_c, 2, 7, 26
4, 38215, Control_c, 2, 7, 23
4, 38225, Control_c, 2, 7, 22
4, 38230, Control_c, 2, 7, 21
4, 38235, Control_c, 2, 7, 20
4, 38240, Control_c, 2, 7, 19
4, 38245, Control_c, 2, 7, 18
4, 38260, Control_c, 2, 7, 17
4, 38270, Control_c, 2, 7, 16
4, 38275, Control_c, 2, 7, 14
4, 38275, Control_c, 2, 7, 15
4, 38290, Control_c, 2, 7, 13
4, 38295, Control_c, 2, 7, 12
4, 38300, Control_c, 2, 7, 11
4, 38305, Control_c, 2, 7, 10
4, 38315, Control_c, 2, 7, 9
4, 38335, Control_c, 2, 7, 8
4, 38345, Control_c, 2, 7, 7
4, 38355, Control_c, 2, 7, 6
4, 38368, Note_on_c, 2, 56, 0
4, 38368, Note_on_c, 2, 61, 0
4, 38368, Note_on_c, 2, 65, 0
4, 38368, End_track
5, 0, Start_track
5, 0, MIDI_port, 0
5, 0, Title_t, " Strings"
5, 0, Program_c, 3, 49
5, 0, Control_c, 3, 7, 102
5, 0, Control_c, 3, 10, 80
5, 170, Control_c, 3, 7, 101
5, 175, Control_c, 3, 7, 99
5, 180, Control_c, 3, 7, 86
5, 180, Control_c, 3, 7, 93
5, 185, Control_c, 3, 7, 81
5, 190, Control_c, 3, 7, 70
5, 190, Control_c, 3, 7, 75
5, 195, Control_c, 3, 7, 68
5, 195, Control_c, 3, 7, 69
5, 200, Control_c, 3, 7, 67
5, 205, Control_c, 3, 7, 53
5, 205, Control_c, 3, 7, 61
5, 210, Control_c, 3, 7, 48
5, 235, Control_c, 3, 7, 47
5, 255, Control_c, 3, 7, 46
5, 260, Control_c, 3, 7, 44
5, 496, Note_on_c, 3, 79, 87
5, 716, Control_c, 3, 7, 45
5, 716, Note_on_c, 3, 76, 105
5, 718, Note_on_c, 3, 79, 0
5, 778, Control_c, 3, 7, 46
5, 783, Control_c, 3, 7, 47
5, 823, Control_c, 3, 7, 48
5, 841, Note_on_c, 3, 72, 87
5, 844, Note_on_c, 3, 76, 0
5, 957, Control_c, 3, 7, 49
5, 960, Note_on_c, 3, 74, 93
5, 966, Note_on_c, 3, 72, 0
5, 966, Control_c, 3, 7, 50
5, 1046, Control_c, 3, 7, 51
5, 1137, Control_c, 3, 7, 52
5, 1144, Note_on_c, 3, 76, 97
5, 1172, Note_on_c, 3, 74, 0
5, 1187, Control_c, 3, 7, 53
5, 1205, Note_on_c, 3, 77, 93
5, 1210, Note_on_c, 3, 76, 0
5, 1230, Control_c, 3, 7, 54
5, 1279, Control_c, 3, 7, 55
5, 1311, Control_c, 3, 7, 56
5, 1336, Control_c, 3, 7, 57
5, 1435, Note_on_c, 3, 79, 93
5, 1441, Note_on_c, 3, 77, 0
5, 1441, Control_c, 3, 7, 59
5, 1441, Control_c, 3, 7, 58
5, 1501, Control_c, 3, 7, 60
5, 1506, Control_c, 3, 7, 61
5, 1556, Control_c, 3, 7, 62
5, 1611, Control_c, 3, 7, 63
5, 1650, Control_c, 3, 7, 64
5, 1675, Note_on_c, 3, 76, 93
5, 1677, Note_on_c, 3, 79, 0
5, 1677, Control_c, 3, 7, 65
5, 1727, Control_c, 3, 7, 66
5, 1795, Control_c, 3, 7, 67
5, 1795, Note_on_c, 3, 79, 97
5, 1800, Note_on_c, 3, 76, 0
5, 1804, Control_c, 3, 7, 68
5, 1831, Control_c, 3, 7, 69
5, 1914, Note_on_c, 3, 80, 112
5, 1919, Note_on_c, 3, 79, 0
5, 1935, Control_c, 3, 7, 70
5, 2005, Control_c, 3, 7, 72
5, 2005, Control_c, 3, 7, 71
5, 2065, Control_c, 3, 7, 73
5, 2097, Note_on_c, 3, 80, 0
5, 2097, Note_on_c, 3, 79, 105
5, 2160, Control_c, 3, 7, 74
5, 2160, Note_on_c, 3, 80, 83
5, 2166, Note_on_c, 3, 79, 0
5, 2193, Control_c, 3, 7, 75
5, 2246, Control_c, 3, 7, 76
5, 2270, Note_on_c, 3, 84, 93
5, 2275, Note_on_c, 3, 80, 0
5, 2283, Control_c, 3, 7, 77
5, 2326, Control_c, 3, 7, 78
5, 2334, Control_c, 3, 7, 80
5, 2334, Control_c, 3, 7, 79
5, 2388, Note_on_c, 3, 84, 0
5, 2397, Note_on_c, 3, 84, 105
5, 2410, Control_c, 3, 7, 81
5, 2485, Control_c, 3, 7, 82
5, 2490, Control_c, 3, 7, 83
5, 2495, Control_c, 3, 7, 84
5, 2625, Control_c, 3, 7, 85
5, 2635, Control_c, 3, 7, 86
5, 2636, Note_on_c, 3, 79, 93
5, 2639, Note_on_c, 3, 84, 0
5, 2679, Control_c, 3, 7, 87
5, 2744, Control_c, 3, 7, 89
5, 2744, Control_c, 3, 7, 88
5, 2751, Note_on_c, 3, 84, 97
5, 2759, Note_on_c, 3, 79, 0
5, 2796, Control_c, 3, 7, 96
5, 2872, Note_on_c, 3, 80, 97
5, 2881, Note_on_c, 3, 84, 0
5, 2936, Control_c, 3, 7, 97
5, 3036, Control_c, 3, 7, 98
5, 3052, Note_on_c, 3, 82, 111
5, 3058, Note_on_c, 3, 80, 0
5, 3108, Control_c, 3, 7, 100
5, 3108, Control_c, 3, 7, 99
5, 3115, Note_on_c, 3, 82, 0
5, 3117, Note_on_c, 3, 84, 93
5, 3173, Control_c, 3, 7, 101
5, 3235, Note_on_c, 3, 86, 97
5, 3244, Note_on_c, 3, 84, 0
5, 3249, Control_c, 3, 7, 102
5, 3351, Note_on_c, 3, 88, 93
5, 3357, Note_on_c, 3, 86, 0
5, 3750, Note_on_c, 3, 79, 83
5, 3755, Note_on_c, 3, 88, 0
5, 3833, Note_on_c, 3, 80, 112
5, 3837, Note_on_c, 3, 79, 0
5, 4222, Note_on_c, 3, 80, 0
5, 4326, Note_on_c, 3, 72, 97
5, 4798, Note_on_c, 3, 74, 108
5, 4802, Note_on_c, 3, 72, 0
5, 5278, Note_on_c, 3, 72, 87
5, 5282, Note_on_c, 3, 74, 0
5, 5757, Note_on_c, 3, 74, 93
5, 5763, Note_on_c, 3, 72, 0
5, 6239, Note_on_c, 3, 72, 108
5, 6246, Note_on_c, 3, 74, 0
5, 6723, Note_on_c, 3, 74, 97
5, 6729, Note_on_c, 3, 72, 0
5, 7194, Note_on_c, 3, 72, 87
5, 7198, Note_on_c, 3, 74, 0
5, 7674, Note_on_c, 3, 74, 93
5, 7679, Note_on_c, 3, 72, 0
5, 7918, Note_on_c, 3, 72, 97
5, 7923, Note_on_c, 3, 74, 0
5, 8045, Note_on_c, 3, 71, 93
5, 8060, Note_on_c, 3, 72, 0
5, 8157, Note_on_c, 3, 69, 93
5, 8160, Note_on_c, 3, 71, 0
5, 8638, Note_on_c, 3, 72, 83
5, 8646, Note_on_c, 3, 69, 0
5, 9111, Note_on_c, 3, 72, 0
5, 9122, Note_on_c, 3, 72, 87
5, 9596, Note_on_c, 3, 74, 105
5, 9604, Note_on_c, 3, 72, 0
5, 10078, Note_on_c, 3, 74, 0
5, 10089, Note_on_c, 3, 76, 112
5, 10555, Note_on_c, 3, 79, 108
5, 10561, Note_on_c, 3, 76, 0
5, 11033, Note_on_c, 3, 72, 112
5, 11040, Note_on_c, 3, 79, 0
5, 11765, Note_on_c, 3, 68, 97
5, 11775, Note_on_c, 3, 72, 0
5, 11949, Note_on_c, 3, 68, 0
5, 11998, Note_on_c, 3, 76, 105
5, 12478, Note_on_c, 3, 74, 105
5, 12484, Note_on_c, 3, 76, 0
5, 12722, Note_on_c, 3, 77, 108
5, 12730, Note_on_c, 3, 74, 0
5, 12963, Note_on_c, 3, 76, 111
5, 12968, Note_on_c, 3, 77, 0
5, 13437, Note_on_c, 3, 74, 108
5, 13440, Note_on_c, 3, 76, 0
5, 13808, Note_on_c, 3, 74, 0
5, 13923, Note_on_c, 3, 76, 111
5, 14385, Note_on_c, 3, 76, 0
5, 14397, Note_on_c, 3, 76, 108
5, 14881, Note_on_c, 3, 76, 0
5, 14881, Note_on_c, 3, 72, 112
5, 15363, Note_on_c, 3, 74, 112
5, 15368, Note_on_c, 3, 72, 0
5, 15842, Note_on_c, 3, 74, 0
5, 15842, Note_on_c, 3, 72, 111
5, 16323, Note_on_c, 3, 74, 112
5, 16329, Note_on_c, 3, 72, 0
5, 16801, Note_on_c, 3, 72, 111
5, 16807, Note_on_c, 3, 74, 0
5, 17283, Note_on_c, 3, 74, 111
5, 17288, Note_on_c, 3, 72, 0
5, 17520, Note_on_c, 3, 72, 97
5, 17537, Note_on_c, 3, 74, 0
5, 17753, Note_on_c, 3, 72, 0
5, 17763, Note_on_c, 3, 72, 97
5, 18246, Note_on_c, 3, 72, 0
5, 18247, Note_on_c, 3, 74, 97
5, 18489, Note_on_c, 3, 76, 112
5, 18497, Note_on_c, 3, 74, 0
5, 18744, Note_on_c, 3, 81, 108
5, 18746, Note_on_c, 3, 83, 87
5, 18755, Note_on_c, 3, 83, 0
5, 18760, Note_on_c, 3, 76, 0
5, 19197, Note_on_c, 3, 74, 111
5, 19202, Note_on_c, 3, 81, 0
5, 19673, Note_on_c, 3, 72, 108
5, 19676, Note_on_c, 3, 74, 0
5, 20158, Note_on_c, 3, 74, 111
5, 20163, Note_on_c, 3, 72, 0
5, 20634, Note_on_c, 3, 72, 105
5, 20639, Note_on_c, 3, 74, 0
5, 21132, Note_on_c, 3, 76, 81
5, 21169, Note_on_c, 3, 72, 0
5, 21599, Note_on_c, 3, 74, 105
5, 21605, Note_on_c, 3, 76, 0
5, 22074, Note_on_c, 3, 74, 0
5, 22081, Note_on_c, 3, 74, 87
5, 22318, Note_on_c, 3, 75, 111
5, 22323, Note_on_c, 3, 74, 0
5, 22555, Note_on_c, 3, 75, 0
5, 22561, Note_on_c, 3, 76, 105
5, 23037, Note_on_c, 3, 74, 108
5, 23039, Note_on_c, 3, 76, 0
5, 23518, Note_on_c, 3, 76, 108
5, 23525, Note_on_c, 3, 74, 0
5, 23995, Note_on_c, 3, 74, 108
5, 23999, Note_on_c, 3, 76, 0
5, 24480, Note_on_c, 3, 76, 97
5, 24485, Note_on_c, 3, 74, 0
5, 24958, Note_on_c, 3, 74, 97
5, 24963, Note_on_c, 3, 76, 0
5, 25432, Note_on_c, 3, 72, 108
5, 25436, Note_on_c, 3, 74, 0
5, 25917, Note_on_c, 3, 77, 111
5, 25927, Note_on_c, 3, 72, 0
5, 26402, Note_on_c, 3, 82, 115
5, 26542, Note_on_c, 3, 77, 0
5, 26883, Note_on_c, 3, 82, 0
5, 26884, Note_on_c, 3, 75, 112
5, 27361, Note_on_c, 3, 77, 111
5, 27366, Note_on_c, 3, 75, 0
5, 27843, Note_on_c, 3, 75, 111
5, 27849, Note_on_c, 3, 77, 0
5, 28314, Note_on_c, 3, 73, 111
5, 28318, Note_on_c, 3, 75, 0
5, 28799, Note_on_c, 3, 70, 108
5, 28800, Note_on_c, 3, 73, 0
5, 29278, Note_on_c, 3, 75, 112
5, 29283, Note_on_c, 3, 70, 0
5, 29749, Note_on_c, 3, 75, 0
5, 29760, Note_on_c, 3, 75, 108
5, 29998, Note_on_c, 3, 75, 97
5, 30169, Note_on_c, 3, 75, 0
5, 30238, Note_on_c, 3, 77, 105
5, 30240, Note_on_c, 3, 75, 0
5, 30719, Note_on_c, 3, 75, 112
5, 30723, Note_on_c, 3, 77, 0
5, 31198, Note_on_c, 3, 73, 108
5, 31202, Note_on_c, 3, 75, 0
5, 31677, Note_on_c, 3, 75, 108
5, 31685, Note_on_c, 3, 73, 0
5, 31916, Note_on_c, 3, 78, 87
5, 31948, Note_on_c, 3, 75, 0
5, 32155, Note_on_c, 3, 77, 97
5, 32274, Note_on_c, 3, 78, 0
5, 32637, Note_on_c, 3, 75, 108
5, 32643, Note_on_c, 3, 77, 0
5, 33122, Note_on_c, 3, 73, 105
5, 33127, Note_on_c, 3, 75, 0
5, 33595, Note_on_c, 3, 75, 97
5, 33601, Note_on_c, 3, 73, 0
5, 33826, Note_on_c, 3, 77, 93
5, 33833, Note_on_c, 3, 75, 0
5, 34077, Note_on_c, 3, 73, 105
5, 34080, Note_on_c, 3, 77, 0
5, 34556, Note_on_c, 3, 75, 111
5, 34561, Note_on_c, 3, 73, 0
5, 35039, Note_on_c, 3, 75, 0
5, 35046, Note_on_c, 3, 73, 112
5, 35288, Note_on_c, 3, 68, 97
5, 35293, Note_on_c, 3, 73, 0
5, 35441, Note_on_c, 3, 73, 93
5, 35451, Note_on_c, 3, 68, 0
5, 35518, Note_on_c, 3, 73, 0
5, 35518, Note_on_c, 3, 69, 111
5, 35636, Note_on_c, 3, 71, 108
5, 35642, Note_on_c, 3, 69, 0
5, 35758, Note_on_c, 3, 73, 112
5, 35764, Note_on_c, 3, 71, 0
5, 35871, Note_on_c, 3, 75, 108
5, 35878, Note_on_c, 3, 73, 0
5, 35995, Note_on_c, 3, 77, 97
5, 36003, Note_on_c, 3, 75, 0
5, 36236, Note_on_c, 3, 80, 111
5, 36249, Note_on_c, 3, 77, 0
5, 36390, Note_on_c, 3, 85, 111
5, 36396, Note_on_c, 3, 80, 0
5, 36474, Note_on_c, 3, 81, 108
5, 36476, Note_on_c, 3, 85, 0
5, 36594, Note_on_c, 3, 83, 105
5, 36602, Note_on_c, 3, 81, 0
5, 36715, Note_on_c, 3, 85, 111
5, 36723, Note_on_c, 3, 83, 0
5, 36832, Note_on_c, 3, 87, 108
5, 36846, Note_on_c, 3, 85, 0
5, 36950, Note_on_c, 3, 89, 97
5, 36958, Note_on_c, 3, 87, 0
5, 37135, Control_c, 3, 7, 101
5, 37215, Control_c, 3, 7, 100
5, 37230, Control_c, 3, 7, 99
5, 37255, Control_c, 3, 7, 98
5, 37275, Control_c, 3, 7, 97
5, 37300, Control_c, 3, 7, 96
5, 37320, Control_c, 3, 7, 95
5, 37330, Control_c, 3, 7, 94
5, 37345, Control_c, 3, 7, 93
5, 37357, Control_c, 3, 7, 92
5, 37375, Control_c, 3, 7, 91
5, 37390, Control_c, 3, 7, 90
5, 37405, Control_c, 3, 7, 89
5, 37428, Control_c, 3, 7, 88
5, 37433, Control_c, 3, 7, 87
5, 37445, Control_c, 3, 7, 86
5, 37465, Control_c, 3, 7, 85
5, 37500, Control_c, 3, 7, 84
5, 37520, Control_c, 3, 7, 83
5, 37535, Control_c, 3, 7, 82
5, 37550, Control_c, 3, 7, 81
5, 37565, Control_c, 3, 7, 80
5, 37575, Control_c, 3, 7, 79
5, 37590, Control_c, 3, 7, 78
5, 37595, Control_c, 3, 7, 77
5, 37640, Control_c, 3, 7, 75
5, 37640, Control_c, 3, 7, 76
5, 37663, Control_c, 3, 7, 74
5, 37673, Control_c, 3, 7, 73
5, 37710, Control_c, 3, 7, 71
5, 37710, Control_c, 3, 7, 72
5, 37720, Control_c, 3, 7, 69
5, 37720, Control_c, 3, 7, 70
5, 37750, Control_c, 3, 7, 67
5, 37750, Control_c, 3, 7, 68
5, 37760, Control_c, 3, 7, 66
5, 37770, Control_c, 3, 7, 65
5, 37779, Control_c, 3, 7, 64
5, 37800, Control_c, 3, 7, 63
5, 37805, Control_c, 3, 7, 62
5, 37810, Control_c, 3, 7, 61
5, 37835, Control_c, 3, 7, 60
5, 37850, Control_c, 3, 7, 59
5, 37860, Control_c, 3, 7, 57
5, 37860, Control_c, 3, 7, 58
5, 37880, Control_c, 3, 7, 56
5, 37890, Control_c, 3, 7, 55
5, 37899, Control_c, 3, 7, 53
5, 37899, Control_c, 3, 7, 54
5, 37915, Control_c, 3, 7, 52
5, 37920, Control_c, 3, 7, 51
5, 37935, Control_c, 3, 7, 50
5, 37940, Control_c, 3, 7, 49
5, 37955, Control_c, 3, 7, 48
5, 37960, Control_c, 3, 7, 47
5, 37965, Control_c, 3, 7, 46
5, 37975, Control_c, 3, 7, 45
5, 37985, Control_c, 3, 7, 44
5, 38010, Control_c, 3, 7, 42
5, 38010, Control_c, 3, 7, 43
5, 38025, Control_c, 3, 7, 41
5, 38030, Control_c, 3, 7, 40
5, 38035, Control_c, 3, 7, 39
5, 38040, Control_c, 3, 7, 38
5, 38050, Control_c, 3, 7, 37
5, 38060, Control_c, 3, 7, 36
5, 38080, Control_c, 3, 7, 35
5, 38095, Control_c, 3, 7, 34
5, 38100, Control_c, 3, 7, 32
5, 38125, Control_c, 3, 7, 31
5, 38130, Control_c, 3, 7, 30
5, 38135, Control_c, 3, 7, 29
5, 38142, Control_c, 3, 7, 28
5, 38149, Note_on_c, 3, 89, 0
5, 38168, Control_c, 3, 7, 27
5, 38173, Control_c, 3, 7, 26
5, 38178, Control_c, 3, 7, 25
5, 38183, Control_c, 3, 7, 24
5, 38195, Control_c, 3, 7, 23
5, 38205, Control_c, 3, 7, 21
5, 38205, Control_c, 3, 7, 22
5, 38210, Control_c, 3, 7, 20
5, 38215, Control_c, 3, 7, 18
5, 38225, Control_c, 3, 7, 17
5, 38230, Control_c, 3, 7, 16
5, 38240, Control_c, 3, 7, 15
5, 38245, Control_c, 3, 7, 14
5, 38260, Control_c, 3, 7, 13
5, 38270, Control_c, 3, 7, 12
5, 38275, Control_c, 3, 7, 11
5, 38290, Control_c, 3, 7, 10
5, 38295, Control_c, 3, 7, 9
5, 38300, Control_c, 3, 7, 8
5, 38315, Control_c, 3, 7, 7
5, 38335, Control_c, 3, 7, 6
5, 38345, Control_c, 3, 7, 5
5, 38355, Control_c, 3, 7, 4
5, 38355, End_track
6, 0, Start_track
6, 0, MIDI_port, 0
6, 0, Title_t, " Strings"
6, 0, Program_c, 4, 49
6, 0, Control_c, 4, 7, 103
6, 0, Control_c, 4, 10, 67
6, 170, Control_c, 4, 7, 102
6, 175, Control_c, 4, 7, 100
6, 180, Control_c, 4, 7, 87
6, 180, Control_c, 4, 7, 94
6, 185, Control_c, 4, 7, 82
6, 190, Control_c, 4, 7, 71
6, 190, Control_c, 4, 7, 76
6, 195, Control_c, 4, 7, 68
6, 195, Control_c, 4, 7, 69
6, 205, Control_c, 4, 7, 53
6, 205, Control_c, 4, 7, 61
6, 210, Control_c, 4, 7, 49
6, 230, Control_c, 4, 7, 48
6, 235, Control_c, 4, 7, 47
6, 260, Control_c, 4, 7, 45
6, 265, Control_c, 4, 7, 44
6, 496, Note_on_c, 4, 64, 87
6, 705, Control_c, 4, 7, 45
6, 716, Control_c, 4, 7, 46
6, 716, Note_on_c, 4, 60, 105
6, 718, Note_on_c, 4, 64, 0
6, 778, Control_c, 4, 7, 47
6, 823, Control_c, 4, 7, 48
6, 841, Note_on_c, 4, 58, 87
6, 844, Note_on_c, 4, 60, 0
6, 877, Control_c, 4, 7, 49
6, 957, Control_c, 4, 7, 50
6, 960, Note_on_c, 4, 60, 93
6, 966, Note_on_c, 4, 58, 0
6, 966, Control_c, 4, 7, 51
6, 1137, Control_c, 4, 7, 52
6, 1144, Note_on_c, 4, 61, 97
6, 1172, Note_on_c, 4, 60, 0
6, 1187, Control_c, 4, 7, 53
6, 1205, Note_on_c, 4, 62, 93
6, 1210, Note_on_c, 4, 61, 0
6, 1210, Control_c, 4, 7, 54
6, 1230, Control_c, 4, 7, 55
6, 1311, Control_c, 4, 7, 56
6, 1336, Control_c, 4, 7, 57
6, 1380, Control_c, 4, 7, 58
6, 1435, Note_on_c, 4, 64, 93
6, 1441, Note_on_c, 4, 62, 0
6, 1441, Control_c, 4, 7, 60
6, 1441, Control_c, 4, 7, 59
6, 1506, Control_c, 4, 7, 61
6, 1531, Control_c, 4, 7, 62
6, 1556, Control_c, 4, 7, 63
6, 1611, Control_c, 4, 7, 64
6, 1675, Note_on_c, 4, 60, 93
6, 1677, Note_on_c, 4, 64, 0
6, 1677, Control_c, 4, 7, 65
6, 1722, Control_c, 4, 7, 66
6, 1727, Control_c, 4, 7, 67
6, 1795, Control_c, 4, 7, 68
6, 1795, Note_on_c, 4, 64, 97
6, 1800, Note_on_c, 4, 60, 0
6, 1831, Control_c, 4, 7, 69
6, 1890, Control_c, 4, 7, 70
6, 1914, Note_on_c, 4, 65, 112
6, 1919, Note_on_c, 4, 64, 0
6, 1935, Control_c, 4, 7, 71
6, 2005, Control_c, 4, 7, 72
6, 2065, Control_c, 4, 7, 73
6, 2090, Control_c, 4, 7, 74
6, 2097, Note_on_c, 4, 65, 0
6, 2097, Note_on_c, 4, 62, 105
6, 2160, Control_c, 4, 7, 75
6, 2160, Note_on_c, 4, 65, 83
6, 2166, Note_on_c, 4, 62, 0
6, 2193, Control_c, 4, 7, 76
6, 2246, Control_c, 4, 7, 77
6, 2270, Note_on_c, 4, 68, 93
6, 2275, Note_on_c, 4, 65, 0
6, 2325, Control_c, 4, 7, 78
6, 2326, Control_c, 4, 7, 79
6, 2334, Control_c, 4, 7, 81
6, 2334, Control_c, 4, 7, 80
6, 2388, Note_on_c, 4, 68, 0
6, 2397, Note_on_c, 4, 70, 105
6, 2440, Control_c, 4, 7, 82
6, 2485, Control_c, 4, 7, 83
6, 2490, Control_c, 4, 7, 84
6, 2495, Control_c, 4, 7, 85
6, 2630, Control_c, 4, 7, 86
6, 2635, Control_c, 4, 7, 87
6, 2636, Note_on_c, 4, 64, 93
6, 2639, Note_on_c, 4, 70, 0
6, 2679, Control_c, 4, 7, 88
6, 2744, Control_c, 4, 7, 90
6, 2744, Control_c, 4, 7, 89
6, 2751, Note_on_c, 4, 70, 97
6, 2759, Note_on_c, 4, 64, 0
6, 2796, Control_c, 4, 7, 97
6, 2872, Note_on_c, 4, 65, 97
6, 2881, Note_on_c, 4, 70, 0
6, 2936, Control_c, 4, 7, 98
6, 3036, Control_c, 4, 7, 99
6, 3052, Note_on_c, 4, 67, 111
6, 3058, Note_on_c, 4, 65, 0
6, 3108, Control_c, 4, 7, 101
6, 3108, Control_c, 4, 7, 100
6, 3115, Note_on_c, 4, 67, 0
6, 3117, Note_on_c, 4, 68, 93
6, 3173, Control_c, 4, 7, 102
6, 3235, Note_on_c, 4, 60, 97
6, 3244, Note_on_c, 4, 68, 0
6, 3249, Control_c, 4, 7, 103
6, 3351, Note_on_c, 4, 60, 93
6, 3357, Note_on_c, 4, 60, 0
6, 3750, Note_on_c, 4, 64, 83
6, 3755, Note_on_c, 4, 60, 0
6, 3833, Note_on_c, 4, 65, 112
6, 3837, Note_on_c, 4, 64, 0
6, 4222, Note_on_c, 4, 65, 0
6, 4326, Note_on_c, 4, 57, 97
6, 4798, Note_on_c, 4, 60, 108
6, 4802, Note_on_c, 4, 57, 0
6, 5278, Note_on_c, 4, 57, 87
6, 5282, Note_on_c, 4, 60, 0
6, 5757, Note_on_c, 4, 60, 93
6, 5763, Note_on_c, 4, 57, 0
6, 6239, Note_on_c, 4, 57, 108
6, 6246, Note_on_c, 4, 60, 0
6, 6717, Note_on_c, 4, 57, 0
6, 6722, Note_on_c, 4, 56, 108
6, 6723, Note_on_c, 4, 60, 97
6, 6729, Note_on_c, 4, 56, 0
6, 7194, Note_on_c, 4, 57, 87
6, 7198, Note_on_c, 4, 60, 0
6, 7674, Note_on_c, 4, 60, 93
6, 7679, Note_on_c, 4, 57, 0
6, 7918, Note_on_c, 4, 56, 97
6, 7923, Note_on_c, 4, 60, 0
6, 8045, Note_on_c, 4, 56, 93
6, 8060, Note_on_c, 4, 56, 0
6, 8157, Note_on_c, 4, 55, 93
6, 8160, Note_on_c, 4, 56, 0
6, 8638, Note_on_c, 4, 56, 83
6, 8646, Note_on_c, 4, 55, 0
6, 9111, Note_on_c, 4, 56, 0
6, 9122, Note_on_c, 4, 57, 87
6, 9596, Note_on_c, 4, 60, 105
6, 9604, Note_on_c, 4, 57, 0
6, 10078, Note_on_c, 4, 60, 0
6, 10089, Note_on_c, 4, 60, 112
6, 10555, Note_on_c, 4, 64, 108
6, 10561, Note_on_c, 4, 60, 0
6, 11033, Note_on_c, 4, 57, 112
6, 11040, Note_on_c, 4, 64, 0
6, 11757, Note_on_c, 4, 57, 0
6, 11762, Note_on_c, 4, 59, 112
6, 11765, Note_on_c, 4, 53, 97
6, 11775, Note_on_c, 4, 59, 0
6, 11949, Note_on_c, 4, 53, 0
6, 11998, Note_on_c, 4, 60, 105
6, 12478, Note_on_c, 4, 60, 105
6, 12484, Note_on_c, 4, 60, 0
6, 12722, Note_on_c, 4, 62, 108
6, 12730, Note_on_c, 4, 60, 0
6, 12957, Note_on_c, 4, 62, 0
6, 12962, Note_on_c, 4, 64, 108
6, 12963, Note_on_c, 4, 60, 111
6, 12968, Note_on_c, 4, 64, 0
6, 13437, Note_on_c, 4, 60, 108
6, 13440, Note_on_c, 4, 60, 0
6, 13808, Note_on_c, 4, 60, 0
6, 13923, Note_on_c, 4, 60, 111
6, 14385, Note_on_c, 4, 60, 0
6, 14397, Note_on_c, 4, 57, 108
6, 14881, Note_on_c, 4, 57, 0
6, 14881, Note_on_c, 4, 57, 112
6, 15357, Note_on_c, 4, 57, 0
6, 15362, Note_on_c, 4, 56, 112
6, 15363, Note_on_c, 4, 60, 112
6, 15368, Note_on_c, 4, 56, 0
6, 15842, Note_on_c, 4, 60, 0
6, 15842, Note_on_c, 4, 57, 111
6, 16317, Note_on_c, 4, 57, 0
6, 16322, Note_on_c, 4, 56, 111
6, 16323, Note_on_c, 4, 60, 112
6, 16329, Note_on_c, 4, 56, 0
6, 16801, Note_on_c, 4, 57, 111
6, 16807, Note_on_c, 4, 60, 0
6, 17277, Note_on_c, 4, 57, 0
6, 17282, Note_on_c, 4, 56, 111
6, 17283, Note_on_c, 4, 60, 111
6, 17288, Note_on_c, 4, 56, 0
6, 17520, Note_on_c, 4, 56, 97
6, 17537, Note_on_c, 4, 60, 0
6, 17753, Note_on_c, 4, 56, 0
6, 17763, Note_on_c, 4, 57, 97
6, 18237, Note_on_c, 4, 57, 0
6, 18242, Note_on_c, 4, 56, 97
6, 18246, Note_on_c, 4, 56, 0
6, 18247, Note_on_c, 4, 60, 97
6, 18489, Note_on_c, 4, 62, 112
6, 18497, Note_on_c, 4, 60, 0
6, 18717, Note_on_c, 4, 62, 0
6, 18722, Note_on_c, 4, 60, 112
6, 18744, Note_on_c, 4, 67, 108
6, 18746, Note_on_c, 4, 67, 87
6, 18755, Note_on_c, 4, 67, 0
6, 18760, Note_on_c, 4, 60, 0
6, 19197, Note_on_c, 4, 60, 111
6, 19202, Note_on_c, 4, 67, 0
6, 19673, Note_on_c, 4, 57, 108
6, 19676, Note_on_c, 4, 60, 0
6, 20158, Note_on_c, 4, 60, 111
6, 20163, Note_on_c, 4, 57, 0
6, 20634, Note_on_c, 4, 57, 105
6, 20639, Note_on_c, 4, 60, 0
6, 21117, Note_on_c, 4, 57, 0
6, 21122, Note_on_c, 4, 57, 105
6, 21132, Note_on_c, 4, 60, 81
6, 21169, Note_on_c, 4, 57, 0
6, 21599, Note_on_c, 4, 60, 105
6, 21605, Note_on_c, 4, 60, 0
6, 22074, Note_on_c, 4, 60, 0
6, 22081, Note_on_c, 4, 60, 87
6, 22318, Note_on_c, 4, 59, 111
6, 22323, Note_on_c, 4, 60, 0
6, 22555, Note_on_c, 4, 59, 0
6, 22561, Note_on_c, 4, 60, 105
6, 23037, Note_on_c, 4, 60, 108
6, 23039, Note_on_c, 4, 60, 0
6, 23518, Note_on_c, 4, 60, 108
6, 23525, Note_on_c, 4, 60, 0
6, 23995, Note_on_c, 4, 60, 108
6, 23999, Note_on_c, 4, 60, 0
6, 24480, Note_on_c, 4, 60, 97
6, 24485, Note_on_c, 4, 60, 0
6, 24958, Note_on_c, 4, 60, 97
6, 24963, Note_on_c, 4, 60, 0
6, 25432, Note_on_c, 4, 57, 108
6, 25436, Note_on_c, 4, 60, 0
6, 25917, Note_on_c, 4, 62, 111
6, 25927, Note_on_c, 4, 57, 0
6, 26397, Note_on_c, 4, 62, 0
6, 26402, Note_on_c, 4, 61, 111
6, 26402, Note_on_c, 4, 68, 115
6, 26542, Note_on_c, 4, 61, 0
6, 26877, Note_on_c, 4, 68, 0
6, 26882, Note_on_c, 4, 69, 115
6, 26883, Note_on_c, 4, 69, 0
6, 26884, Note_on_c, 4, 61, 112
6, 27361, Note_on_c, 4, 61, 111
6, 27366, Note_on_c, 4, 61, 0
6, 27843, Note_on_c, 4, 61, 111
6, 27849, Note_on_c, 4, 61, 0
6, 28314, Note_on_c, 4, 58, 111
6, 28318, Note_on_c, 4, 61, 0
6, 28799, Note_on_c, 4, 56, 108
6, 28800, Note_on_c, 4, 58, 0
6, 29278, Note_on_c, 4, 61, 112
6, 29283, Note_on_c, 4, 56, 0
6, 29749, Note_on_c, 4, 61, 0
6, 29760, Note_on_c, 4, 61, 108
6, 29998, Note_on_c, 4, 60, 97
6, 30169, Note_on_c, 4, 61, 0
6, 30238, Note_on_c, 4, 61, 105
6, 30240, Note_on_c, 4, 60, 0
6, 30719, Note_on_c, 4, 61, 112
6, 30723, Note_on_c, 4, 61, 0
6, 31198, Note_on_c, 4, 58, 108
6, 31202, Note_on_c, 4, 61, 0
6, 31677, Note_on_c, 4, 61, 108
6, 31685, Note_on_c, 4, 58, 0
6, 31916, Note_on_c, 4, 63, 87
6, 31948, Note_on_c, 4, 61, 0
6, 32155, Note_on_c, 4, 61, 97
6, 32274, Note_on_c, 4, 63, 0
6, 32637, Note_on_c, 4, 61, 108
6, 32643, Note_on_c, 4, 61, 0
6, 33122, Note_on_c, 4, 58, 105
6, 33127, Note_on_c, 4, 61, 0
6, 33595, Note_on_c, 4, 61, 97
6, 33601, Note_on_c, 4, 58, 0
6, 33826, Note_on_c, 4, 61, 93
6, 33833, Note_on_c, 4, 61, 0
6, 34077, Note_on_c, 4, 58, 105
6, 34080, Note_on_c, 4, 61, 0
6, 34556, Note_on_c, 4, 61, 111
6, 34561, Note_on_c, 4, 58, 0
6, 35039, Note_on_c, 4, 61, 0
6, 35046, Note_on_c, 4, 58, 112
6, 35288, Note_on_c, 4, 53, 97
6, 35293, Note_on_c, 4, 58, 0
6, 35441, Note_on_c, 4, 58, 93
6, 35451, Note_on_c, 4, 53, 0
6, 35518, Note_on_c, 4, 58, 0
6, 35518, Note_on_c, 4, 54, 111
6, 35636, Note_on_c, 4, 54, 108
6, 35642, Note_on_c, 4, 54, 0
6, 35758, Note_on_c, 4, 57, 112
6, 35764, Note_on_c, 4, 54, 0
6, 35871, Note_on_c, 4, 61, 108
6, 35878, Note_on_c, 4, 57, 0
6, 35995, Note_on_c, 4, 61, 97
6, 36003, Note_on_c, 4, 61, 0
6, 36236, Note_on_c, 4, 65, 111
6, 36249, Note_on_c, 4, 61, 0
6, 36390, Note_on_c, 4, 70, 111
6, 36396, Note_on_c, 4, 65, 0
6, 36474, Note_on_c, 4, 66, 108
6, 36476, Note_on_c, 4, 70, 0
6, 36594, Note_on_c, 4, 66, 105
6, 36602, Note_on_c, 4, 66, 0
6, 36715, Note_on_c, 4, 69, 111
6, 36723, Note_on_c, 4, 66, 0
6, 36832, Note_on_c, 4, 61, 108
6, 36846, Note_on_c, 4, 69, 0
6, 36950, Note_on_c, 4, 61, 97
6, 36958, Note_on_c, 4, 61, 0
6, 37135, Control_c, 4, 7, 102
6, 37215, Control_c, 4, 7, 101
6, 37230, Control_c, 4, 7, 100
6, 37255, Control_c, 4, 7, 99
6, 37275, Control_c, 4, 7, 98
6, 37300, Control_c, 4, 7, 97
6, 37320, Control_c, 4, 7, 96
6, 37330, Control_c, 4, 7, 95
6, 37345, Control_c, 4, 7, 94
6, 37357, Control_c, 4, 7, 93
6, 37375, Control_c, 4, 7, 92
6, 37390, Control_c, 4, 7, 91
6, 37405, Control_c, 4, 7, 90
6, 37428, Control_c, 4, 7, 89
6, 37433, Control_c, 4, 7, 88
6, 37445, Control_c, 4, 7, 87
6, 37465, Control_c, 4, 7, 86
6, 37483, Control_c, 4, 7, 85
6, 37520, Control_c, 4, 7, 84
6, 37535, Control_c, 4, 7, 83
6, 37550, Control_c, 4, 7, 82
6, 37555, Control_c, 4, 7, 81
6, 37575, Control_c, 4, 7, 80
6, 37590, Control_c, 4, 7, 79
6, 37595, Control_c, 4, 7, 78
6, 37610, Control_c, 4, 7, 77
6, 37640, Control_c, 4, 7, 76
6, 37663, Control_c, 4, 7, 75
6, 37673, Control_c, 4, 7, 74
6, 37680, Control_c, 4, 7, 73
6, 37710, Control_c, 4, 7, 72
6, 37720, Control_c, 4, 7, 70
6, 37720, Control_c, 4, 7, 71
6, 37730, Control_c, 4, 7, 69
6, 37750, Control_c, 4, 7, 68
6, 37760, Control_c, 4, 7, 67
6, 37770, Control_c, 4, 7, 66
6, 37779, Control_c, 4, 7, 64
6, 37779, Control_c, 4, 7, 65
6, 37805, Control_c, 4, 7, 63
6, 37810, Control_c, 4, 7, 62
6, 37830, Control_c, 4, 7, 61
6, 37835, Control_c, 4, 7, 60
6, 37860, Control_c, 4, 7, 58
6, 37860, Control_c, 4, 7, 59
6, 37870, Control_c, 4, 7, 57
6, 37880, Control_c, 4, 7, 56
6, 37890, Control_c, 4, 7, 55
6, 37899, Control_c, 4, 7, 54
6, 37914, Control_c, 4, 7, 53
6, 37915, Control_c, 4, 7, 52
6, 37920, Control_c, 4, 7, 51
6, 37940, Control_c, 4, 7, 50
6, 37955, Control_c, 4, 7, 48
6, 37955, Control_c, 4, 7, 49
6, 37960, Control_c, 4, 7, 47
6, 37975, Control_c, 4, 7, 46
6, 37985, Control_c, 4, 7, 45
6, 37990, Control_c, 4, 7, 44
6, 38010, Control_c, 4, 7, 42
6, 38010, Control_c, 4, 7, 43
6, 38030, Control_c, 4, 7, 41
6, 38035, Control_c, 4, 7, 39
6, 38035, Control_c, 4, 7, 40
6, 38040, Control_c, 4, 7, 38
6, 38060, Control_c, 4, 7, 37
6, 38075, Control_c, 4, 7, 36
6, 38080, Control_c, 4, 7, 35
6, 38095, Control_c, 4, 7, 34
6, 38100, Control_c, 4, 7, 33
6, 38120, Control_c, 4, 7, 32
6, 38125, Control_c, 4, 7, 31
6, 38130, Control_c, 4, 7, 30
6, 38142, Control_c, 4, 7, 29
6, 38151, Note_on_c, 4, 61, 0
6, 38163, Control_c, 4, 7, 28
6, 38168, Control_c, 4, 7, 27
6, 38173, Control_c, 4, 7, 26
6, 38178, Control_c, 4, 7, 25
6, 38185, Control_c, 4, 7, 24
6, 38195, Control_c, 4, 7, 23
6, 38205, Control_c, 4, 7, 21
6, 38205, Control_c, 4, 7, 22
6, 38210, Control_c, 4, 7, 20
6, 38215, Control_c, 4, 7, 18
6, 38225, Control_c, 4, 7, 17
6, 38235, Control_c, 4, 7, 16
6, 38240, Control_c, 4, 7, 15
6, 38245, Control_c, 4, 7, 14
6, 38260, Control_c, 4, 7, 13
6, 38270, Control_c, 4, 7, 12
6, 38275, Control_c, 4, 7, 11
6, 38290, Control_c, 4, 7, 10
6, 38295, Control_c, 4, 7, 9
6, 38300, Control_c, 4, 7, 8
6, 38315, Control_c, 4, 7, 7
6, 38335, Control_c, 4, 7, 6
6, 38345, Control_c, 4, 7, 5
6, 38355, Control_c, 4, 7, 4
6, 38355, End_track
7, 0, Start_track
7, 0, MIDI_port, 0
7, 0, Title_t, " Strings"
7, 0, Program_c, 5, 49
7, 0, Control_c, 5, 7, 102
7, 0, Control_c, 5, 10, 70
7, 170, Control_c, 5, 7, 101
7, 175, Control_c, 5, 7, 99
7, 180, Control_c, 5, 7, 86
7, 180, Control_c, 5, 7, 93
7, 185, Control_c, 5, 7, 81
7, 190, Control_c, 5, 7, 70
7, 190, Control_c, 5, 7, 75
7, 195, Control_c, 5, 7, 68
7, 195, Control_c, 5, 7, 69
7, 200, Control_c, 5, 7, 67
7, 205, Control_c, 5, 7, 53
7, 205, Control_c, 5, 7, 61
7, 210, Control_c, 5, 7, 48
7, 235, Control_c, 5, 7, 47
7, 255, Control_c, 5, 7, 46
7, 260, Control_c, 5, 7, 44
7, 496, Note_on_c, 5, 60, 87
7, 716, Control_c, 5, 7, 45
7, 716, Note_on_c, 5, 58, 105
7, 718, Note_on_c, 5, 60, 0
7, 778, Control_c, 5, 7, 46
7, 783, Control_c, 5, 7, 47
7, 823, Control_c, 5, 7, 48
7, 841, Note_on_c, 5, 55, 87
7, 844, Note_on_c, 5, 58, 0
7, 957, Control_c, 5, 7, 49
7, 960, Note_on_c, 5, 56, 93
7, 966, Note_on_c, 5, 55, 0
7, 966, Control_c, 5, 7, 50
7, 1046, Control_c, 5, 7, 51
7, 1137, Control_c, 5, 7, 52
7, 1144, Note_on_c, 5, 58, 97
7, 1172, Note_on_c, 5, 56, 0
7, 1187, Control_c, 5, 7, 53
7, 1205, Note_on_c, 5, 60, 93
7, 1210, Note_on_c, 5, 58, 0
7, 1230, Control_c, 5, 7, 54
7, 1279, Control_c, 5, 7, 55
7, 1311, Control_c, 5, 7, 56
7, 1336, Control_c, 5, 7, 57
7, 1435, Note_on_c, 5, 60, 93
7, 1441, Note_on_c, 5, 60, 0
7, 1441, Control_c, 5, 7, 59
7, 1441, Control_c, 5, 7, 58
7, 1501, Control_c, 5, 7, 60
7, 1506, Control_c, 5, 7, 61
7, 1556, Control_c, 5, 7, 62
7, 1611, Control_c, 5, 7, 63
7, 1650, Control_c, 5, 7, 64
7, 1675, Note_on_c, 5, 58, 93
7, 1677, Note_on_c, 5, 60, 0
7, 1677, Control_c, 5, 7, 65
7, 1727, Control_c, 5, 7, 66
7, 1795, Control_c, 5, 7, 67
7, 1795, Note_on_c, 5, 60, 97
7, 1800, Note_on_c, 5, 58, 0
7, 1804, Control_c, 5, 7, 68
7, 1831, Control_c, 5, 7, 69
7, 1914, Note_on_c, 5, 62, 112
7, 1919, Note_on_c, 5, 60, 0
7, 1935, Control_c, 5, 7, 70
7, 2005, Control_c, 5, 7, 72
7, 2005, Control_c, 5, 7, 71
7, 2065, Control_c, 5, 7, 73
7, 2097, Note_on_c, 5, 62, 0
7, 2097, Note_on_c, 5, 60, 105
7, 2160, Control_c, 5, 7, 74
7, 2160, Note_on_c, 5, 62, 83
7, 2166, Note_on_c, 5, 60, 0
7, 2193, Control_c, 5, 7, 75
7, 2246, Control_c, 5, 7, 76
7, 2270, Note_on_c, 5, 65, 93
7, 2275, Note_on_c, 5, 62, 0
7, 2283, Control_c, 5, 7, 77
7, 2326, Control_c, 5, 7, 78
7, 2334, Control_c, 5, 7, 80
7, 2334, Control_c, 5, 7, 79
7, 2388, Note_on_c, 5, 65, 0
7, 2397, Note_on_c, 5, 67, 105
7, 2410, Control_c, 5, 7, 81
7, 2485, Control_c, 5, 7, 82
7, 2490, Control_c, 5, 7, 83
7, 2495, Control_c, 5, 7, 84
7, 2625, Control_c, 5, 7, 85
7, 2635, Control_c, 5, 7, 86
7, 2636, Note_on_c, 5, 60, 93
7, 2639, Note_on_c, 5, 67, 0
7, 2679, Control_c, 5, 7, 87
7, 2744, Control_c, 5, 7, 89
7, 2744, Control_c, 5, 7, 88
7, 2751, Note_on_c, 5, 67, 97
7, 2759, Note_on_c, 5, 60, 0
7, 2796, Control_c, 5, 7, 96
7, 2872, Note_on_c, 5, 62, 97
7, 2881, Note_on_c, 5, 67, 0
7, 2936, Control_c, 5, 7, 97
7, 3036, Control_c, 5, 7, 98
7, 3052, Note_on_c, 5, 63, 111
7, 3058, Note_on_c, 5, 62, 0
7, 3108, Control_c, 5, 7, 100
7, 3108, Control_c, 5, 7, 99
7, 3115, Note_on_c, 5, 63, 0
7, 3117, Note_on_c, 5, 65, 93
7, 3173, Control_c, 5, 7, 101
7, 3235, Note_on_c, 5, 68, 97
7, 3244, Note_on_c, 5, 65, 0
7, 3249, Control_c, 5, 7, 102
7, 3351, Note_on_c, 5, 69, 93
7, 3357, Note_on_c, 5, 68, 0
7, 3750, Note_on_c, 5, 60, 83
7, 3755, Note_on_c, 5, 69, 0
7, 3833, Note_on_c, 5, 62, 112
7, 3837, Note_on_c, 5, 60, 0
7, 4222, Note_on_c, 5, 62, 0
7, 4326, Note_on_c, 5, 55, 97
7, 4798, Note_on_c, 5, 56, 108
7, 4802, Note_on_c, 5, 55, 0
7, 5278, Note_on_c, 5, 55, 87
7, 5282, Note_on_c, 5, 56, 0
7, 5757, Note_on_c, 5, 56, 93
7, 5763, Note_on_c, 5, 55, 0
7, 6239, Note_on_c, 5, 55, 108
7, 6246, Note_on_c, 5, 56, 0
7, 6717, Note_on_c, 5, 55, 0
7, 6722, Note_on_c, 5, 53, 108
7, 6723, Note_on_c, 5, 56, 97
7, 6729, Note_on_c, 5, 53, 0
7, 7194, Note_on_c, 5, 55, 87
7, 7198, Note_on_c, 5, 56, 0
7, 7674, Note_on_c, 5, 56, 93
7, 7679, Note_on_c, 5, 55, 0
7, 7918, Note_on_c, 5, 52, 97
7, 7923, Note_on_c, 5, 56, 0
7, 8045, Note_on_c, 5, 52, 93
7, 8060, Note_on_c, 5, 52, 0
7, 8157, Note_on_c, 5, 52, 93
7, 8160, Note_on_c, 5, 52, 0
7, 8638, Note_on_c, 5, 53, 83
7, 8646, Note_on_c, 5, 52, 0
7, 9111, Note_on_c, 5, 53, 0
7, 9122, Note_on_c, 5, 55, 87
7, 9596, Note_on_c, 5, 57, 105
7, 9604, Note_on_c, 5, 55, 0
7, 10078, Note_on_c, 5, 57, 0
7, 10089, Note_on_c, 5, 57, 112
7, 10555, Note_on_c, 5, 60, 108
7, 10561, Note_on_c, 5, 57, 0
7, 11033, Note_on_c, 5, 53, 112
7, 11040, Note_on_c, 5, 60, 0
7, 11765, Note_on_c, 5, 50, 97
7, 11775, Note_on_c, 5, 53, 0
7, 11949, Note_on_c, 5, 50, 0
7, 11998, Note_on_c, 5, 57, 105
7, 12478, Note_on_c, 5, 56, 105
7, 12484, Note_on_c, 5, 57, 0
7, 12722, Note_on_c, 5, 60, 108
7, 12730, Note_on_c, 5, 56, 0
7, 12963, Note_on_c, 5, 57, 111
7, 12968, Note_on_c, 5, 60, 0
7, 13437, Note_on_c, 5, 56, 108
7, 13440, Note_on_c, 5, 57, 0
7, 13808, Note_on_c, 5, 56, 0
7, 13923, Note_on_c, 5, 57, 111
7, 14385, Note_on_c, 5, 57, 0
7, 14397, Note_on_c, 5, 60, 108
7, 14881, Note_on_c, 5, 60, 0
7, 14881, Note_on_c, 5, 55, 112
7, 15357, Note_on_c, 5, 55, 0
7, 15362, Note_on_c, 5, 53, 112
7, 15363, Note_on_c, 5, 56, 112
7, 15368, Note_on_c, 5, 53, 0
7, 15842, Note_on_c, 5, 56, 0
7, 15842, Note_on_c, 5, 55, 111
7, 16317, Note_on_c, 5, 55, 0
7, 16322, Note_on_c, 5, 53, 111
7, 16323, Note_on_c, 5, 56, 112
7, 16329, Note_on_c, 5, 53, 0
7, 16801, Note_on_c, 5, 55, 111
7, 16807, Note_on_c, 5, 56, 0
7, 17277, Note_on_c, 5, 55, 0
7, 17282, Note_on_c, 5, 53, 111
7, 17283, Note_on_c, 5, 56, 111
7, 17288, Note_on_c, 5, 53, 0
7, 17520, Note_on_c, 5, 53, 97
7, 17537, Note_on_c, 5, 56, 0
7, 17753, Note_on_c, 5, 53, 0
7, 17763, Note_on_c, 5, 55, 97
7, 18237, Note_on_c, 5, 55, 0
7, 18242, Note_on_c, 5, 53, 97
7, 18246, Note_on_c, 5, 53, 0
7, 18247, Note_on_c, 5, 56, 97
7, 18489, Note_on_c, 5, 59, 112
7, 18497, Note_on_c, 5, 56, 0
7, 18717, Note_on_c, 5, 59, 0
7, 18722, Note_on_c, 5, 55, 112
7, 18744, Note_on_c, 5, 64, 108
7, 18746, Note_on_c, 5, 64, 87
7, 18755, Note_on_c, 5, 64, 0
7, 18760, Note_on_c, 5, 55, 0
7, 19197, Note_on_c, 5, 56, 111
7, 19202, Note_on_c, 5, 64, 0
7, 19673, Note_on_c, 5, 55, 108
7, 19676, Note_on_c, 5, 56, 0
7, 20158, Note_on_c, 5, 57, 111
7, 20163, Note_on_c, 5, 55, 0
7, 20634, Note_on_c, 5, 55, 105
7, 20639, Note_on_c, 5, 57, 0
7, 21132, Note_on_c, 5, 57, 81
7, 21169, Note_on_c, 5, 55, 0
7, 21599, Note_on_c, 5, 57, 105
7, 21605, Note_on_c, 5, 57, 0
7, 22074, Note_on_c, 5, 57, 0
7, 22081, Note_on_c, 5, 57, 87
7, 22318, Note_on_c, 5, 56, 111
7, 22323, Note_on_c, 5, 57, 0
7, 22555, Note_on_c, 5, 56, 0
7, 22561, Note_on_c, 5, 57, 105
7, 23037, Note_on_c, 5, 56, 108
7, 23039, Note_on_c, 5, 57, 0
7, 23518, Note_on_c, 5, 57, 108
7, 23525, Note_on_c, 5, 56, 0
7, 23995, Note_on_c, 5, 56, 108
7, 23999, Note_on_c, 5, 57, 0
7, 24480, Note_on_c, 5, 57, 97
7, 24485, Note_on_c, 5, 56, 0
7, 24958, Note_on_c, 5, 57, 97
7, 24963, Note_on_c, 5, 57, 0
7, 25432, Note_on_c, 5, 55, 108
7, 25436, Note_on_c, 5, 57, 0
7, 25917, Note_on_c, 5, 60, 111
7, 25927, Note_on_c, 5, 55, 0
7, 26397, Note_on_c, 5, 60, 0
7, 26402, Note_on_c, 5, 56, 111
7, 26402, Note_on_c, 5, 65, 115
7, 26542, Note_on_c, 5, 56, 0
7, 26877, Note_on_c, 5, 65, 0
7, 26882, Note_on_c, 5, 66, 115
7, 26883, Note_on_c, 5, 66, 0
7, 26884, Note_on_c, 5, 57, 112
7, 27361, Note_on_c, 5, 58, 111
7, 27366, Note_on_c, 5, 57, 0
7, 27843, Note_on_c, 5, 58, 111
7, 27849, Note_on_c, 5, 58, 0
7, 28314, Note_on_c, 5, 56, 111
7, 28318, Note_on_c, 5, 58, 0
7, 28799, Note_on_c, 5, 53, 108
7, 28800, Note_on_c, 5, 56, 0
7, 29278, Note_on_c, 5, 58, 112
7, 29283, Note_on_c, 5, 53, 0
7, 29749, Note_on_c, 5, 58, 0
7, 29760, Note_on_c, 5, 58, 108
7, 29998, Note_on_c, 5, 57, 97
7, 30169, Note_on_c, 5, 58, 0
7, 30238, Note_on_c, 5, 58, 105
7, 30240, Note_on_c, 5, 57, 0
7, 30719, Note_on_c, 5, 57, 112
7, 30723, Note_on_c, 5, 58, 0
7, 31198, Note_on_c, 5, 56, 108
7, 31202, Note_on_c, 5, 57, 0
7, 31677, Note_on_c, 5, 57, 108
7, 31685, Note_on_c, 5, 56, 0
7, 31916, Note_on_c, 5, 61, 87
7, 31948, Note_on_c, 5, 57, 0
7, 32155, Note_on_c, 5, 58, 97
7, 32274, Note_on_c, 5, 61, 0
7, 32637, Note_on_c, 5, 57, 108
7, 32643, Note_on_c, 5, 58, 0
7, 33117, Note_on_c, 5, 57, 0
7, 33122, Note_on_c, 5, 56, 108
7, 33122, Note_on_c, 5, 56, 105
7, 33127, Note_on_c, 5, 56, 0
7, 33595, Note_on_c, 5, 57, 97
7, 33601, Note_on_c, 5, 56, 0
7, 33826, Note_on_c, 5, 57, 93
7, 33833, Note_on_c, 5, 57, 0
7, 34077, Note_on_c, 5, 56, 105
7, 34080, Note_on_c, 5, 57, 0
7, 34556, Note_on_c, 5, 57, 111
7, 34561, Note_on_c, 5, 56, 0
7, 35039, Note_on_c, 5, 57, 0
7, 35046, Note_on_c, 5, 56, 112
7, 35288, Note_on_c, 5, 49, 97
7, 35293, Note_on_c, 5, 56, 0
7, 35441, Note_on_c, 5, 56, 93
7, 35451, Note_on_c, 5, 49, 0
7, 35518, Note_on_c, 5, 56, 0
7, 35518, Note_on_c, 5, 51, 111
7, 35636, Note_on_c, 5, 51, 108
7, 35642, Note_on_c, 5, 51, 0
7, 35758, Note_on_c, 5, 54, 112
7, 35764, Note_on_c, 5, 51, 0
7, 35871, Note_on_c, 5, 57, 108
7, 35878, Note_on_c, 5, 54, 0
7, 35995, Note_on_c, 5, 58, 97
7, 36003, Note_on_c, 5, 57, 0
7, 36236, Note_on_c, 5, 61, 111
7, 36249, Note_on_c, 5, 58, 0
7, 36390, Note_on_c, 5, 68, 111
7, 36396, Note_on_c, 5, 61, 0
7, 36474, Note_on_c, 5, 63, 108
7, 36476, Note_on_c, 5, 68, 0
7, 36594, Note_on_c, 5, 63, 105
7, 36602, Note_on_c, 5, 63, 0
7, 36715, Note_on_c, 5, 66, 111
7, 36723, Note_on_c, 5, 63, 0
7, 36832, Note_on_c, 5, 69, 108
7, 36846, Note_on_c, 5, 66, 0
7, 36950, Note_on_c, 5, 70, 97
7, 36958, Note_on_c, 5, 69, 0
7, 37135, Control_c, 5, 7, 101
7, 37215, Control_c, 5, 7, 100
7, 37230, Control_c, 5, 7, 99
7, 37255, Control_c, 5, 7, 98
7, 37275, Control_c, 5, 7, 97
7, 37300, Control_c, 5, 7, 96
7, 37320, Control_c, 5, 7, 95
7, 37330, Control_c, 5, 7, 94
7, 37345, Control_c, 5, 7, 93
7, 37357, Control_c, 5, 7, 92
7, 37375, Control_c, 5, 7, 91
7, 37390, Control_c, 5, 7, 90
7, 37405, Control_c, 5, 7, 89
7, 37428, Control_c, 5, 7, 88
7, 37433, Control_c, 5, 7, 87
7, 37445, Control_c, 5, 7, 86
7, 37465, Control_c, 5, 7, 85
7, 37500, Control_c, 5, 7, 84
7, 37520, Control_c, 5, 7, 83
7, 37535, Control_c, 5, 7, 82
7, 37550, Control_c, 5, 7, 81
7, 37565, Control_c, 5, 7, 80
7, 37575, Control_c, 5, 7, 79
7, 37590, Control_c, 5, 7, 78
7, 37595, Control_c, 5, 7, 77
7, 37640, Control_c, 5, 7, 75
7, 37640, Control_c, 5, 7, 76
7, 37663, Control_c, 5, 7, 74
7, 37673, Control_c, 5, 7, 73
7, 37710, Control_c, 5, 7, 71
7, 37710, Control_c, 5, 7, 72
7, 37720, Control_c, 5, 7, 69
7, 37720, Control_c, 5, 7, 70
7, 37750, Control_c, 5, 7, 67
7, 37750, Control_c, 5, 7, 68
7, 37760, Control_c, 5, 7, 66
7, 37770, Control_c, 5, 7, 65
7, 37779, Control_c, 5, 7, 64
7, 37800, Control_c, 5, 7, 63
7, 37805, Control_c, 5, 7, 62
7, 37810, Control_c, 5, 7, 61
7, 37835, Control_c, 5, 7, 60
7, 37850, Control_c, 5, 7, 59
7, 37860, Control_c, 5, 7, 57
7, 37860, Control_c, 5, 7, 58
7, 37880, Control_c, 5, 7, 56
7, 37890, Control_c, 5, 7, 55
7, 37899, Control_c, 5, 7, 53
7, 37899, Control_c, 5, 7, 54
7, 37915, Control_c, 5, 7, 52
7, 37920, Control_c, 5, 7, 51
7, 37935, Control_c, 5, 7, 50
7, 37940, Control_c, 5, 7, 49
7, 37955, Control_c, 5, 7, 48
7, 37960, Control_c, 5, 7, 47
7, 37965, Control_c, 5, 7, 46
7, 37975, Control_c, 5, 7, 45
7, 37985, Control_c, 5, 7, 44
7, 38010, Control_c, 5, 7, 42
7, 38010, Control_c, 5, 7, 43
7, 38025, Control_c, 5, 7, 41
7, 38030, Control_c, 5, 7, 40
7, 38035, Control_c, 5, 7, 39
7, 38040, Control_c, 5, 7, 38
7, 38050, Control_c, 5, 7, 37
7, 38060, Control_c, 5, 7, 36
7, 38080, Control_c, 5, 7, 35
7, 38095, Control_c, 5, 7, 34
7, 38100, Control_c, 5, 7, 32
7, 38125, Control_c, 5, 7, 31
7, 38130, Control_c, 5, 7, 30
7, 38135, Control_c, 5, 7, 29
7, 38142, Control_c, 5, 7, 28
7, 38149, Note_on_c, 5, 70, 0
7, 38168, Control_c, 5, 7, 27
7, 38173, Control_c, 5, 7, 26
7, 38178, Control_c, 5, 7, 25
7, 38183, Control_c, 5, 7, 24
7, 38195, Control_c, 5, 7, 23
7, 38205, Control_c, 5, 7, 21
7, 38205, Control_c, 5, 7, 22
7, 38210, Control_c, 5, 7, 20
7, 38215, Control_c, 5, 7, 18
7, 38225, Control_c, 5, 7, 17
7, 38230, Control_c, 5, 7, 16
7, 38240, Control_c, 5, 7, 15
7, 38245, Control_c, 5, 7, 14
7, 38260, Control_c, 5, 7, 13
7, 38270, Control_c, 5, 7, 12
7, 38275, Control_c, 5, 7, 11
7, 38290, Control_c, 5, 7, 10
7, 38295, Control_c, 5, 7, 9
7, 38300, Control_c, 5, 7, 8
7, 38315, Control_c, 5, 7, 7
7, 38335, Control_c, 5, 7, 6
7, 38345, Control_c, 5, 7, 5
7, 38355, Control_c, 5, 7, 4
7, 38355, End_track
8, 0, Start_track
8, 0, MIDI_port, 0
8, 0, Title_t, " Cello"
8, 0, Program_c, 6, 42
8, 0, Control_c, 6, 7, 90
8, 0, Control_c, 6, 10, 34
8, 170, Control_c, 6, 7, 89
8, 175, Control_c, 6, 7, 87
8, 180, Control_c, 6, 7, 76
8, 180, Control_c, 6, 7, 82
8, 185, Control_c, 6, 7, 72
8, 190, Control_c, 6, 7, 62
8, 190, Control_c, 6, 7, 66
8, 195, Control_c, 6, 7, 60
8, 200, Control_c, 6, 7, 59
8, 205, Control_c, 6, 7, 46
8, 205, Control_c, 6, 7, 53
8, 210, Control_c, 6, 7, 43
8, 230, Control_c, 6, 7, 42
8, 235, Control_c, 6, 7, 41
8, 260, Control_c, 6, 7, 39
8, 265, Control_c, 6, 7, 38
8, 496, Note_on_c, 6, 58, 87
8, 705, Control_c, 6, 7, 39
8, 716, Control_c, 6, 7, 40
8, 716, Note_on_c, 6, 55, 105
8, 718, Note_on_c, 6, 58, 0
8, 778, Control_c, 6, 7, 41
8, 823, Control_c, 6, 7, 42
8, 841, Note_on_c, 6, 52, 87
8, 844, Note_on_c, 6, 55, 0
8, 877, Control_c, 6, 7, 43
8, 960, Note_on_c, 6, 53, 93
8, 966, Note_on_c, 6, 52, 0
8, 966, Control_c, 6, 7, 44
8, 1046, Control_c, 6, 7, 45
8, 1137, Control_c, 6, 7, 46
8, 1144, Note_on_c, 6, 55, 97
8, 1172, Note_on_c, 6, 53, 0
8, 1205, Note_on_c, 6, 56, 93
8, 1210, Note_on_c, 6, 55, 0
8, 1210, Control_c, 6, 7, 47
8, 1230, Control_c, 6, 7, 48
8, 1311, Control_c, 6, 7, 49
8, 1336, Control_c, 6, 7, 50
8, 1380, Control_c, 6, 7, 51
8, 1435, Note_on_c, 6, 58, 93
8, 1441, Note_on_c, 6, 56, 0
8, 1441, Control_c, 6, 7, 52
8, 1501, Control_c, 6, 7, 53
8, 1531, Control_c, 6, 7, 54
8, 1556, Control_c, 6, 7, 55
8, 1650, Control_c, 6, 7, 56
8, 1675, Note_on_c, 6, 55, 93
8, 1677, Note_on_c, 6, 58, 0
8, 1677, Control_c, 6, 7, 57
8, 1722, Control_c, 6, 7, 58
8, 1795, Control_c, 6, 7, 59
8, 1795, Note_on_c, 6, 58, 97
8, 1800, Note_on_c, 6, 55, 0
8, 1804, Control_c, 6, 7, 60
8, 1890, Control_c, 6, 7, 61
8, 1914, Note_on_c, 6, 60, 112
8, 1919, Note_on_c, 6, 58, 0
8, 1935, Control_c, 6, 7, 62
8, 2005, Control_c, 6, 7, 63
8, 2065, Control_c, 6, 7, 64
8, 2090, Control_c, 6, 7, 65
8, 2097, Note_on_c, 6, 60, 0
8, 2097, Note_on_c, 6, 56, 105
8, 2160, Note_on_c, 6, 60, 83
8, 2166, Note_on_c, 6, 56, 0
8, 2193, Control_c, 6, 7, 66
8, 2246, Control_c, 6, 7, 67
8, 2270, Note_on_c, 6, 62, 93
8, 2275, Note_on_c, 6, 60, 0
8, 2283, Control_c, 6, 7, 68
8, 2326, Control_c, 6, 7, 69
8, 2334, Control_c, 6, 7, 70
8, 2388, Note_on_c, 6, 62, 0
8, 2397, Note_on_c, 6, 64, 105
8, 2410, Control_c, 6, 7, 71
8, 2440, Control_c, 6, 7, 72
8, 2490, Control_c, 6, 7, 73
8, 2495, Control_c, 6, 7, 74
8, 2625, Control_c, 6, 7, 75
8, 2635, Control_c, 6, 7, 76
8, 2636, Note_on_c, 6, 58, 93
8, 2639, Note_on_c, 6, 64, 0
8, 2679, Control_c, 6, 7, 77
8, 2744, Control_c, 6, 7, 78
8, 2751, Note_on_c, 6, 64, 97
8, 2759, Note_on_c, 6, 58, 0
8, 2796, Control_c, 6, 7, 85
8, 2796, Control_c, 6, 7, 79
8, 2872, Note_on_c, 6, 60, 97
8, 2881, Note_on_c, 6, 64, 0
8, 2946, Control_c, 6, 7, 86
8, 3036, Control_c, 6, 7, 87
8, 3052, Note_on_c, 6, 60, 111
8, 3058, Note_on_c, 6, 60, 0
8, 3108, Control_c, 6, 7, 88
8, 3115, Note_on_c, 6, 60, 0
8, 3117, Note_on_c, 6, 62, 93
8, 3173, Control_c, 6, 7, 89
8, 3235, Note_on_c, 6, 65, 97
8, 3244, Note_on_c, 6, 62, 0
8, 3249, Control_c, 6, 7, 90
8, 3351, Note_on_c, 6, 67, 93
8, 3357, Note_on_c, 6, 65, 0
8, 3750, Note_on_c, 6, 57, 83
8, 3755, Note_on_c, 6, 67, 0
8, 3833, Note_on_c, 6, 60, 112
8, 3837, Note_on_c, 6, 57, 0
8, 4222, Note_on_c, 6, 60, 0
8, 4326, Note_on_c, 6, 52, 97
8, 4798, Note_on_c, 6, 53, 108
8, 4802, Note_on_c, 6, 52, 0
8, 5278, Note_on_c, 6, 52, 87
8, 5282, Note_on_c, 6, 53, 0
8, 5757, Note_on_c, 6, 53, 93
8, 5763, Note_on_c, 6, 52, 0
8, 6239, Note_on_c, 6, 52, 108
8, 6246, Note_on_c, 6, 53, 0
8, 6717, Note_on_c, 6, 52, 0
8, 6722, Note_on_c, 6, 53, 108
8, 6723, Note_on_c, 6, 53, 97
8, 6729, Note_on_c, 6, 53, 0
8, 7194, Note_on_c, 6, 52, 87
8, 7198, Note_on_c, 6, 53, 0
8, 7674, Note_on_c, 6, 53, 93
8, 7679, Note_on_c, 6, 52, 0
8, 7918, Note_on_c, 6, 50, 97
8, 7923, Note_on_c, 6, 53, 0
8, 8045, Note_on_c, 6, 50, 93
8, 8060, Note_on_c, 6, 50, 0
8, 8157, Note_on_c, 6, 48, 93
8, 8160, Note_on_c, 6, 50, 0
8, 8638, Note_on_c, 6, 50, 83
8, 8646, Note_on_c, 6, 48, 0
8, 9111, Note_on_c, 6, 50, 0
8, 9122, Note_on_c, 6, 52, 87
8, 9596, Note_on_c, 6, 53, 105
8, 9604, Note_on_c, 6, 52, 0
8, 10078, Note_on_c, 6, 53, 0
8, 10089, Note_on_c, 6, 55, 112
8, 10555, Note_on_c, 6, 57, 108
8, 10561, Note_on_c, 6, 55, 0
8, 11033, Note_on_c, 6, 50, 112
8, 11040, Note_on_c, 6, 57, 0
8, 11765, Note_on_c, 6, 47, 97
8, 11775, Note_on_c, 6, 50, 0
8, 11949, Note_on_c, 6, 47, 0
8, 11998, Note_on_c, 6, 55, 105
8, 12478, Note_on_c, 6, 53, 105
8, 12484, Note_on_c, 6, 55, 0
8, 12722, Note_on_c, 6, 56, 108
8, 12730, Note_on_c, 6, 53, 0
8, 12957, Note_on_c, 6, 56, 0
8, 12962, Note_on_c, 6, 55, 108
8, 12963, Note_on_c, 6, 55, 111
8, 12968, Note_on_c, 6, 55, 0
8, 13437, Note_on_c, 6, 53, 108
8, 13440, Note_on_c, 6, 55, 0
8, 13808, Note_on_c, 6, 53, 0
8, 13923, Note_on_c, 6, 55, 111
8, 14385, Note_on_c, 6, 55, 0
8, 14397, Note_on_c, 6, 55, 108
8, 14881, Note_on_c, 6, 55, 0
8, 14881, Note_on_c, 6, 52, 112
8, 15357, Note_on_c, 6, 52, 0
8, 15362, Note_on_c, 6, 53, 112
8, 15363, Note_on_c, 6, 53, 112
8, 15368, Note_on_c, 6, 53, 0
8, 15842, Note_on_c, 6, 53, 0
8, 15842, Note_on_c, 6, 52, 111
8, 16317, Note_on_c, 6, 52, 0
8, 16322, Note_on_c, 6, 53, 111
8, 16323, Note_on_c, 6, 53, 112
8, 16329, Note_on_c, 6, 53, 0
8, 16801, Note_on_c, 6, 52, 111
8, 16807, Note_on_c, 6, 53, 0
8, 17277, Note_on_c, 6, 52, 0
8, 17282, Note_on_c, 6, 53, 111
8, 17283, Note_on_c, 6, 53, 111
8, 17288, Note_on_c, 6, 53, 0
8, 17520, Note_on_c, 6, 50, 97
8, 17537, Note_on_c, 6, 53, 0
8, 17753, Note_on_c, 6, 50, 0
8, 17763, Note_on_c, 6, 52, 97
8, 18237, Note_on_c, 6, 52, 0
8, 18242, Note_on_c, 6, 53, 97
8, 18246, Note_on_c, 6, 53, 0
8, 18247, Note_on_c, 6, 53, 97
8, 18477, Note_on_c, 6, 53, 0
8, 18482, Note_on_c, 6, 56, 97
8, 18489, Note_on_c, 6, 56, 112
8, 18497, Note_on_c, 6, 56, 0
8, 18717, Note_on_c, 6, 56, 0
8, 18722, Note_on_c, 6, 55, 112
8, 18744, Note_on_c, 6, 60, 108
8, 18746, Note_on_c, 6, 60, 87
8, 18755, Note_on_c, 6, 60, 0
8, 18760, Note_on_c, 6, 55, 0
8, 19197, Note_on_c, 6, 53, 111
8, 19202, Note_on_c, 6, 60, 0
8, 19673, Note_on_c, 6, 52, 108
8, 19676, Note_on_c, 6, 53, 0
8, 20158, Note_on_c, 6, 53, 111
8, 20163, Note_on_c, 6, 52, 0
8, 20634, Note_on_c, 6, 52, 105
8, 20639, Note_on_c, 6, 53, 0
8, 21132, Note_on_c, 6, 55, 81
8, 21169, Note_on_c, 6, 52, 0
8, 21599, Note_on_c, 6, 53, 105
8, 21605, Note_on_c, 6, 55, 0
8, 22074, Note_on_c, 6, 53, 0
8, 22081, Note_on_c, 6, 53, 87
8, 22318, Note_on_c, 6, 53, 111
8, 22323, Note_on_c, 6, 53, 0
8, 22555, Note_on_c, 6, 53, 0
8, 22561, Note_on_c, 6, 55, 105
8, 23037, Note_on_c, 6, 53, 108
8, 23039, Note_on_c, 6, 55, 0
8, 23518, Note_on_c, 6, 55, 108
8, 23525, Note_on_c, 6, 53, 0
8, 23995, Note_on_c, 6, 53, 108
8, 23999, Note_on_c, 6, 55, 0
8, 24480, Note_on_c, 6, 55, 97
8, 24485, Note_on_c, 6, 53, 0
8, 24958, Note_on_c, 6, 53, 97
8, 24963, Note_on_c, 6, 55, 0
8, 25432, Note_on_c, 6, 52, 108
8, 25436, Note_on_c, 6, 53, 0
8, 25917, Note_on_c, 6, 57, 111
8, 25927, Note_on_c, 6, 52, 0
8, 26397, Note_on_c, 6, 57, 0
8, 26402, Note_on_c, 6, 56, 111
8, 26402, Note_on_c, 6, 61, 115
8, 26542, Note_on_c, 6, 56, 0
8, 26883, Note_on_c, 6, 61, 0
8, 26884, Note_on_c, 6, 54, 112
8, 27361, Note_on_c, 6, 56, 111
8, 27366, Note_on_c, 6, 54, 0
8, 27837, Note_on_c, 6, 56, 0
8, 27842, Note_on_c, 6, 58, 111
8, 27843, Note_on_c, 6, 54, 111
8, 27849, Note_on_c, 6, 58, 0
8, 28314, Note_on_c, 6, 53, 111
8, 28318, Note_on_c, 6, 54, 0
8, 28799, Note_on_c, 6, 49, 108
8, 28800, Note_on_c, 6, 53, 0
8, 29278, Note_on_c, 6, 54, 112
8, 29283, Note_on_c, 6, 49, 0
8, 29749, Note_on_c, 6, 54, 0
8, 29760, Note_on_c, 6, 54, 108
8, 29998, Note_on_c, 6, 54, 97
8, 30169, Note_on_c, 6, 54, 0
8, 30238, Note_on_c, 6, 56, 105
8, 30240, Note_on_c, 6, 54, 0
8, 30719, Note_on_c, 6, 54, 112
8, 30723, Note_on_c, 6, 56, 0
8, 31198, Note_on_c, 6, 53, 108
8, 31202, Note_on_c, 6, 54, 0
8, 31677, Note_on_c, 6, 54, 108
8, 31685, Note_on_c, 6, 53, 0
8, 31916, Note_on_c, 6, 57, 87
8, 31948, Note_on_c, 6, 54, 0
8, 32155, Note_on_c, 6, 56, 97
8, 32274, Note_on_c, 6, 57, 0
8, 32637, Note_on_c, 6, 54, 108
8, 32643, Note_on_c, 6, 56, 0
8, 33117, Note_on_c, 6, 54, 0
8, 33122, Note_on_c, 6, 53, 108
8, 33122, Note_on_c, 6, 53, 105
8, 33127, Note_on_c, 6, 53, 0
8, 33595, Note_on_c, 6, 54, 97
8, 33601, Note_on_c, 6, 53, 0
8, 33826, Note_on_c, 6, 54, 93
8, 33833, Note_on_c, 6, 54, 0
8, 34077, Note_on_c, 6, 53, 105
8, 34080, Note_on_c, 6, 54, 0
8, 34556, Note_on_c, 6, 54, 111
8, 34561, Note_on_c, 6, 53, 0
8, 35039, Note_on_c, 6, 54, 0
8, 35046, Note_on_c, 6, 53, 112
8, 35288, Note_on_c, 6, 46, 97
8, 35293, Note_on_c, 6, 53, 0
8, 35441, Note_on_c, 6, 53, 93
8, 35451, Note_on_c, 6, 46, 0
8, 35518, Note_on_c, 6, 53, 0
8, 35518, Note_on_c, 6, 49, 111
8, 35636, Note_on_c, 6, 49, 108
8, 35642, Note_on_c, 6, 49, 0
8, 35758, Note_on_c, 6, 51, 112
8, 35764, Note_on_c, 6, 49, 0
8, 35871, Note_on_c, 6, 54, 108
8, 35878, Note_on_c, 6, 51, 0
8, 35995, Note_on_c, 6, 56, 97
8, 36003, Note_on_c, 6, 54, 0
8, 36236, Note_on_c, 6, 58, 111
8, 36249, Note_on_c, 6, 56, 0
8, 36390, Note_on_c, 6, 65, 111
8, 36396, Note_on_c, 6, 58, 0
8, 36474, Note_on_c, 6, 61, 108
8, 36476, Note_on_c, 6, 65, 0
8, 36594, Note_on_c, 6, 61, 105
8, 36602, Note_on_c, 6, 61, 0
8, 36715, Note_on_c, 6, 63, 111
8, 36723, Note_on_c, 6, 61, 0
8, 36832, Note_on_c, 6, 66, 108
8, 36846, Note_on_c, 6, 63, 0
8, 36950, Note_on_c, 6, 68, 97
8, 36958, Note_on_c, 6, 66, 0
8, 37135, Control_c, 6, 7, 89
8, 37215, Control_c, 6, 7, 88
8, 37230, Control_c, 6, 7, 87
8, 37275, Control_c, 6, 7, 86
8, 37280, Control_c, 6, 7, 85
8, 37320, Control_c, 6, 7, 84
8, 37330, Control_c, 6, 7, 83
8, 37345, Control_c, 6, 7, 82
8, 37357, Control_c, 6, 7, 81
8, 37375, Control_c, 6, 7, 80
8, 37405, Control_c, 6, 7, 79
8, 37411, Control_c, 6, 7, 78
8, 37428, Control_c, 6, 7, 77
8, 37445, Control_c, 6, 7, 76
8, 37465, Control_c, 6, 7, 75
8, 37500, Control_c, 6, 7, 74
8, 37520, Control_c, 6, 7, 73
8, 37535, Control_c, 6, 7, 72
8, 37555, Control_c, 6, 7, 71
8, 37565, Control_c, 6, 7, 70
8, 37590, Control_c, 6, 7, 69
8, 37595, Control_c, 6, 7, 68
8, 37640, Control_c, 6, 7, 66
8, 37640, Control_c, 6, 7, 67
8, 37663, Control_c, 6, 7, 65
8, 37680, Control_c, 6, 7, 64
8, 37710, Control_c, 6, 7, 63
8, 37720, Control_c, 6, 7, 61
8, 37720, Control_c, 6, 7, 62
8, 37730, Control_c, 6, 7, 60
8, 37750, Control_c, 6, 7, 59
8, 37760, Control_c, 6, 7, 58
8, 37779, Control_c, 6, 7, 56
8, 37779, Control_c, 6, 7, 57
8, 37800, Control_c, 6, 7, 55
8, 37810, Control_c, 6, 7, 54
8, 37830, Control_c, 6, 7, 53
8, 37850, Control_c, 6, 7, 52
8, 37860, Control_c, 6, 7, 51
8, 37870, Control_c, 6, 7, 50
8, 37880, Control_c, 6, 7, 49
8, 37890, Control_c, 6, 7, 48
8, 37899, Control_c, 6, 7, 47
8, 37914, Control_c, 6, 7, 46
8, 37920, Control_c, 6, 7, 45
8, 37935, Control_c, 6, 7, 44
8, 37940, Control_c, 6, 7, 43
8, 37955, Control_c, 6, 7, 42
8, 37960, Control_c, 6, 7, 41
8, 37975, Control_c, 6, 7, 40
8, 37985, Control_c, 6, 7, 39
8, 37990, Control_c, 6, 7, 38
8, 38010, Control_c, 6, 7, 37
8, 38025, Control_c, 6, 7, 36
8, 38035, Control_c, 6, 7, 34
8, 38035, Control_c, 6, 7, 35
8, 38050, Control_c, 6, 7, 33
8, 38060, Control_c, 6, 7, 32
8, 38075, Control_c, 6, 7, 31
8, 38095, Control_c, 6, 7, 30
8, 38100, Control_c, 6, 7, 29
8, 38120, Control_c, 6, 7, 28
8, 38125, Control_c, 6, 7, 27
8, 38130, Control_c, 6, 7, 26
8, 38142, Control_c, 6, 7, 25
8, 38149, Note_on_c, 6, 68, 0
8, 38163, Control_c, 6, 7, 24
8, 38173, Control_c, 6, 7, 23
8, 38178, Control_c, 6, 7, 22
8, 38183, Control_c, 6, 7, 21
8, 38195, Control_c, 6, 7, 20
8, 38205, Control_c, 6, 7, 19
8, 38210, Control_c, 6, 7, 17
8, 38210, Control_c, 6, 7, 18
8, 38215, Control_c, 6, 7, 16
8, 38225, Control_c, 6, 7, 15
8, 38230, Control_c, 6, 7, 14
8, 38240, Control_c, 6, 7, 13
8, 38245, Control_c, 6, 7, 12
8, 38270, Control_c, 6, 7, 11
8, 38275, Control_c, 6, 7, 9
8, 38275, Control_c, 6, 7, 10
8, 38295, Control_c, 6, 7, 8
8, 38300, Control_c, 6, 7, 7
8, 38315, Control_c, 6, 7, 6
8, 38335, Control_c, 6, 7, 5
8, 38345, Control_c, 6, 7, 4
8, 38345, End_track
9, 0, Start_track
9, 0, MIDI_port, 0
9, 0, Title_t, " Cello"
9, 0, Program_c, 7, 42
9, 0, Control_c, 7, 7, 105
9, 0, Control_c, 7, 10, 34
9, 170, Control_c, 7, 7, 104
9, 175, Control_c, 7, 7, 102
9, 180, Control_c, 7, 7, 89
9, 180, Control_c, 7, 7, 95
9, 185, Control_c, 7, 7, 84
9, 190, Control_c, 7, 7, 72
9, 190, Control_c, 7, 7, 77
9, 195, Control_c, 7, 7, 70
9, 195, Control_c, 7, 7, 71
9, 200, Control_c, 7, 7, 69
9, 205, Control_c, 7, 7, 54
9, 205, Control_c, 7, 7, 62
9, 210, Control_c, 7, 7, 50
9, 230, Control_c, 7, 7, 49
9, 235, Control_c, 7, 7, 48
9, 255, Control_c, 7, 7, 47
9, 260, Control_c, 7, 7, 46
9, 265, Control_c, 7, 7, 45
9, 496, Note_on_c, 7, 55, 87
9, 705, Control_c, 7, 7, 46
9, 716, Control_c, 7, 7, 47
9, 716, Note_on_c, 7, 52, 105
9, 718, Note_on_c, 7, 55, 0
9, 783, Control_c, 7, 7, 48
9, 823, Control_c, 7, 7, 49
9, 841, Note_on_c, 7, 48, 87
9, 844, Note_on_c, 7, 52, 0
9, 877, Control_c, 7, 7, 50
9, 957, Control_c, 7, 7, 51
9, 960, Note_on_c, 7, 50, 93
9, 966, Note_on_c, 7, 48, 0
9, 966, Control_c, 7, 7, 52
9, 1137, Control_c, 7, 7, 53
9, 1144, Note_on_c, 7, 52, 97
9, 1172, Note_on_c, 7, 50, 0
9, 1187, Control_c, 7, 7, 54
9, 1205, Note_on_c, 7, 53, 93
9, 1210, Note_on_c, 7, 52, 0
9, 1210, Control_c, 7, 7, 55
9, 1230, Control_c, 7, 7, 56
9, 1279, Control_c, 7, 7, 57
9, 1336, Control_c, 7, 7, 58
9, 1380, Control_c, 7, 7, 59
9, 1435, Note_on_c, 7, 55, 93
9, 1441, Note_on_c, 7, 53, 0
9, 1441, Control_c, 7, 7, 61
9, 1441, Control_c, 7, 7, 60
9, 1501, Control_c, 7, 7, 62
9, 1531, Control_c, 7, 7, 63
9, 1556, Control_c, 7, 7, 64
9, 1611, Control_c, 7, 7, 65
9, 1650, Control_c, 7, 7, 66
9, 1675, Note_on_c, 7, 52, 93
9, 1677, Note_on_c, 7, 55, 0
9, 1722, Control_c, 7, 7, 67
9, 1727, Control_c, 7, 7, 68
9, 1795, Control_c, 7, 7, 69
9, 1795, Note_on_c, 7, 55, 97
9, 1800, Note_on_c, 7, 52, 0
9, 1804, Control_c, 7, 7, 70
9, 1831, Control_c, 7, 7, 71
9, 1914, Note_on_c, 7, 56, 112
9, 1919, Note_on_c, 7, 55, 0
9, 1935, Control_c, 7, 7, 72
9, 2005, Control_c, 7, 7, 74
9, 2005, Control_c, 7, 7, 73
9, 2065, Control_c, 7, 7, 75
9, 2090, Control_c, 7, 7, 76
9, 2097, Note_on_c, 7, 56, 0
9, 2097, Note_on_c, 7, 55, 105
9, 2160, Note_on_c, 7, 56, 83
9, 2166, Note_on_c, 7, 55, 0
9, 2193, Control_c, 7, 7, 77
9, 2246, Control_c, 7, 7, 78
9, 2270, Note_on_c, 7, 60, 93
9, 2275, Note_on_c, 7, 56, 0
9, 2283, Control_c, 7, 7, 79
9, 2325, Control_c, 7, 7, 80
9, 2326, Control_c, 7, 7, 81
9, 2334, Control_c, 7, 7, 82
9, 2388, Note_on_c, 7, 60, 0
9, 2397, Note_on_c, 7, 60, 105
9, 2410, Control_c, 7, 7, 83
9, 2440, Control_c, 7, 7, 84
9, 2485, Control_c, 7, 7, 85
9, 2495, Control_c, 7, 7, 86
9, 2625, Control_c, 7, 7, 87
9, 2630, Control_c, 7, 7, 88
9, 2635, Control_c, 7, 7, 89
9, 2636, Note_on_c, 7, 55, 93
9, 2639, Note_on_c, 7, 60, 0
9, 2679, Control_c, 7, 7, 90
9, 2744, Control_c, 7, 7, 91
9, 2751, Note_on_c, 7, 60, 97
9, 2759, Note_on_c, 7, 55, 0
9, 2796, Control_c, 7, 7, 99
9, 2796, Control_c, 7, 7, 92
9, 2872, Note_on_c, 7, 56, 97
9, 2881, Note_on_c, 7, 60, 0
9, 2936, Control_c, 7, 7, 100
9, 3036, Control_c, 7, 7, 101
9, 3052, Note_on_c, 7, 58, 111
9, 3058, Note_on_c, 7, 56, 0
9, 3108, Control_c, 7, 7, 103
9, 3108, Control_c, 7, 7, 102
9, 3115, Note_on_c, 7, 58, 0
9, 3117, Note_on_c, 7, 60, 93
9, 3173, Control_c, 7, 7, 104
9, 3235, Note_on_c, 7, 62, 97
9, 3244, Note_on_c, 7, 60, 0
9, 3249, Control_c, 7, 7, 105
9, 3351, Note_on_c, 7, 64, 93
9, 3357, Note_on_c, 7, 62, 0
9, 3750, Note_on_c, 7, 55, 83
9, 3755, Note_on_c, 7, 64, 0
9, 3833, Note_on_c, 7, 56, 112
9, 3837, Note_on_c, 7, 55, 0
9, 4222, Note_on_c, 7, 56, 0
9, 4326, Note_on_c, 7, 48, 97
9, 4798, Note_on_c, 7, 50, 108
9, 4802, Note_on_c, 7, 48, 0
9, 5278, Note_on_c, 7, 48, 87
9, 5282, Note_on_c, 7, 50, 0
9, 5757, Note_on_c, 7, 50, 93
9, 5763, Note_on_c, 7, 48, 0
9, 6239, Note_on_c, 7, 48, 108
9, 6246, Note_on_c, 7, 50, 0
9, 6723, Note_on_c, 7, 50, 97
9, 6729, Note_on_c, 7, 48, 0
9, 7194, Note_on_c, 7, 48, 87
9, 7198, Note_on_c, 7, 50, 0
9, 7674, Note_on_c, 7, 50, 93
9, 7679, Note_on_c, 7, 48, 0
9, 7918, Note_on_c, 7, 48, 97
9, 7923, Note_on_c, 7, 50, 0
9, 8045, Note_on_c, 7, 47, 93
9, 8060, Note_on_c, 7, 48, 0
9, 8157, Note_on_c, 7, 45, 93
9, 8160, Note_on_c, 7, 47, 0
9, 8638, Note_on_c, 7, 48, 83
9, 8646, Note_on_c, 7, 45, 0
9, 9111, Note_on_c, 7, 48, 0
9, 9122, Note_on_c, 7, 48, 87
9, 9596, Note_on_c, 7, 50, 105
9, 9604, Note_on_c, 7, 48, 0
9, 10078, Note_on_c, 7, 50, 0
9, 10089, Note_on_c, 7, 52, 112
9, 10555, Note_on_c, 7, 55, 108
9, 10561, Note_on_c, 7, 52, 0
9, 11033, Note_on_c, 7, 48, 112
9, 11040, Note_on_c, 7, 55, 0
9, 11765, Note_on_c, 7, 44, 97
9, 11775, Note_on_c, 7, 48, 0
9, 11949, Note_on_c, 7, 44, 0
9, 11998, Note_on_c, 7, 52, 105
9, 12478, Note_on_c, 7, 50, 105
9, 12484, Note_on_c, 7, 52, 0
9, 12722, Note_on_c, 7, 53, 108
9, 12730, Note_on_c, 7, 50, 0
9, 12963, Note_on_c, 7, 52, 111
9, 12968, Note_on_c, 7, 53, 0
9, 13437, Note_on_c, 7, 50, 108
9, 13440, Note_on_c, 7, 52, 0
9, 13808, Note_on_c, 7, 50, 0
9, 13923, Note_on_c, 7, 52, 111
9, 14385, Note_on_c, 7, 52, 0
9, 14397, Note_on_c, 7, 52, 108
9, 14881, Note_on_c, 7, 52, 0
9, 14881, Note_on_c, 7, 48, 112
9, 15363, Note_on_c, 7, 50, 112
9, 15368, Note_on_c, 7, 48, 0
9, 15842, Note_on_c, 7, 50, 0
9, 15842, Note_on_c, 7, 48, 111
9, 16323, Note_on_c, 7, 50, 112
9, 16329, Note_on_c, 7, 48, 0
9, 16801, Note_on_c, 7, 48, 111
9, 16807, Note_on_c, 7, 50, 0
9, 17283, Note_on_c, 7, 50, 111
9, 17288, Note_on_c, 7, 48, 0
9, 17520, Note_on_c, 7, 48, 97
9, 17537, Note_on_c, 7, 50, 0
9, 17753, Note_on_c, 7, 48, 0
9, 17763, Note_on_c, 7, 48, 97
9, 18246, Note_on_c, 7, 48, 0
9, 18247, Note_on_c, 7, 50, 97
9, 18489, Note_on_c, 7, 52, 112
9, 18497, Note_on_c, 7, 50, 0
9, 18744, Note_on_c, 7, 57, 108
9, 18746, Note_on_c, 7, 59, 87
9, 18755, Note_on_c, 7, 59, 0
9, 18760, Note_on_c, 7, 52, 0
9, 19197, Note_on_c, 7, 50, 111
9, 19202, Note_on_c, 7, 57, 0
9, 19673, Note_on_c, 7, 48, 108
9, 19676, Note_on_c, 7, 50, 0
9, 20158, Note_on_c, 7, 50, 111
9, 20163, Note_on_c, 7, 48, 0
9, 20634, Note_on_c, 7, 48, 105
9, 20639, Note_on_c, 7, 50, 0
9, 21132, Note_on_c, 7, 52, 81
9, 21169, Note_on_c, 7, 48, 0
9, 21599, Note_on_c, 7, 50, 105
9, 21605, Note_on_c, 7, 52, 0
9, 22074, Note_on_c, 7, 50, 0
9, 22081, Note_on_c, 7, 50, 87
9, 22318, Note_on_c, 7, 51, 111
9, 22323, Note_on_c, 7, 50, 0
9, 22555, Note_on_c, 7, 51, 0
9, 22561, Note_on_c, 7, 52, 105
9, 23037, Note_on_c, 7, 50, 108
9, 23039, Note_on_c, 7, 52, 0
9, 23518, Note_on_c, 7, 52, 108
9, 23525, Note_on_c, 7, 50, 0
9, 23995, Note_on_c, 7, 50, 108
9, 23999, Note_on_c, 7, 52, 0
9, 24480, Note_on_c, 7, 52, 97
9, 24485, Note_on_c, 7, 50, 0
9, 24958, Note_on_c, 7, 50, 97
9, 24963, Note_on_c, 7, 52, 0
9, 25432, Note_on_c, 7, 48, 108
9, 25436, Note_on_c, 7, 50, 0
9, 25917, Note_on_c, 7, 53, 111
9, 25927, Note_on_c, 7, 48, 0
9, 26402, Note_on_c, 7, 58, 115
9, 26542, Note_on_c, 7, 53, 0
9, 26883, Note_on_c, 7, 58, 0
9, 26884, Note_on_c, 7, 51, 112
9, 27361, Note_on_c, 7, 53, 111
9, 27366, Note_on_c, 7, 51, 0
9, 27843, Note_on_c, 7, 51, 111
9, 27849, Note_on_c, 7, 53, 0
9, 28314, Note_on_c, 7, 49, 111
9, 28318, Note_on_c, 7, 51, 0
9, 28799, Note_on_c, 7, 46, 108
9, 28800, Note_on_c, 7, 49, 0
9, 29278, Note_on_c, 7, 51, 112
9, 29283, Note_on_c, 7, 46, 0
9, 29749, Note_on_c, 7, 51, 0
9, 29760, Note_on_c, 7, 51, 108
9, 29998, Note_on_c, 7, 51, 97
9, 30169, Note_on_c, 7, 51, 0
9, 30238, Note_on_c, 7, 53, 105
9, 30240, Note_on_c, 7, 51, 0
9, 30719, Note_on_c, 7, 51, 112
9, 30723, Note_on_c, 7, 53, 0
9, 31198, Note_on_c, 7, 49, 108
9, 31202, Note_on_c, 7, 51, 0
9, 31677, Note_on_c, 7, 51, 108
9, 31685, Note_on_c, 7, 49, 0
9, 31916, Note_on_c, 7, 54, 87
9, 31948, Note_on_c, 7, 51, 0
9, 32155, Note_on_c, 7, 53, 97
9, 32274, Note_on_c, 7, 54, 0
9, 32637, Note_on_c, 7, 51, 108
9, 32643, Note_on_c, 7, 53, 0
9, 33122, Note_on_c, 7, 49, 105
9, 33127, Note_on_c, 7, 51, 0
9, 33595, Note_on_c, 7, 51, 97
9, 33601, Note_on_c, 7, 49, 0
9, 33826, Note_on_c, 7, 53, 93
9, 33833, Note_on_c, 7, 51, 0
9, 34077, Note_on_c, 7, 49, 105
9, 34080, Note_on_c, 7, 53, 0
9, 34556, Note_on_c, 7, 51, 111
9, 34561, Note_on_c, 7, 49, 0
9, 35039, Note_on_c, 7, 51, 0
9, 35046, Note_on_c, 7, 49, 112
9, 35288, Note_on_c, 7, 44, 97
9, 35293, Note_on_c, 7, 49, 0
9, 35441, Note_on_c, 7, 49, 93
9, 35451, Note_on_c, 7, 44, 0
9, 35518, Note_on_c, 7, 49, 0
9, 35518, Note_on_c, 7, 45, 111
9, 35636, Note_on_c, 7, 47, 108
9, 35642, Note_on_c, 7, 45, 0
9, 35758, Note_on_c, 7, 49, 112
9, 35764, Note_on_c, 7, 47, 0
9, 35871, Note_on_c, 7, 51, 108
9, 35878, Note_on_c, 7, 49, 0
9, 35995, Note_on_c, 7, 53, 97
9, 36003, Note_on_c, 7, 51, 0
9, 36236, Note_on_c, 7, 56, 111
9, 36249, Note_on_c, 7, 53, 0
9, 36390, Note_on_c, 7, 61, 111
9, 36396, Note_on_c, 7, 56, 0
9, 36474, Note_on_c, 7, 57, 108
9, 36476, Note_on_c, 7, 61, 0
9, 36594, Note_on_c, 7, 59, 105
9, 36602, Note_on_c, 7, 57, 0
9, 36715, Note_on_c, 7, 61, 111
9, 36723, Note_on_c, 7, 59, 0
9, 36832, Note_on_c, 7, 63, 108
9, 36846, Note_on_c, 7, 61, 0
9, 36950, Note_on_c, 7, 65, 97
9, 36958, Note_on_c, 7, 63, 0
9, 37135, Control_c, 7, 7, 104
9, 37215, Control_c, 7, 7, 103
9, 37230, Control_c, 7, 7, 102
9, 37255, Control_c, 7, 7, 101
9, 37275, Control_c, 7, 7, 100
9, 37300, Control_c, 7, 7, 99
9, 37320, Control_c, 7, 7, 98
9, 37330, Control_c, 7, 7, 97
9, 37345, Control_c, 7, 7, 96
9, 37350, Control_c, 7, 7, 95
9, 37375, Control_c, 7, 7, 94
9, 37390, Control_c, 7, 7, 93
9, 37405, Control_c, 7, 7, 92
9, 37411, Control_c, 7, 7, 91
9, 37428, Control_c, 7, 7, 90
9, 37445, Control_c, 7, 7, 89
9, 37465, Control_c, 7, 7, 88
9, 37483, Control_c, 7, 7, 87
9, 37500, Control_c, 7, 7, 86
9, 37520, Control_c, 7, 7, 85
9, 37550, Control_c, 7, 7, 84
9, 37555, Control_c, 7, 7, 83
9, 37565, Control_c, 7, 7, 82
9, 37575, Control_c, 7, 7, 81
9, 37595, Control_c, 7, 7, 80
9, 37610, Control_c, 7, 7, 79
9, 37640, Control_c, 7, 7, 77
9, 37640, Control_c, 7, 7, 78
9, 37663, Control_c, 7, 7, 76
9, 37680, Control_c, 7, 7, 75
9, 37710, Control_c, 7, 7, 73
9, 37710, Control_c, 7, 7, 74
9, 37720, Control_c, 7, 7, 71
9, 37720, Control_c, 7, 7, 72
9, 37750, Control_c, 7, 7, 69
9, 37750, Control_c, 7, 7, 70
9, 37760, Control_c, 7, 7, 68
9, 37770, Control_c, 7, 7, 67
9, 37779, Control_c, 7, 7, 66
9, 37800, Control_c, 7, 7, 65
9, 37805, Control_c, 7, 7, 64
9, 37810, Control_c, 7, 7, 63
9, 37830, Control_c, 7, 7, 62
9, 37850, Control_c, 7, 7, 61
9, 37860, Control_c, 7, 7, 59
9, 37860, Control_c, 7, 7, 60
9, 37870, Control_c, 7, 7, 58
9, 37880, Control_c, 7, 7, 57
9, 37899, Control_c, 7, 7, 55
9, 37899, Control_c, 7, 7, 56
9, 37914, Control_c, 7, 7, 54
9, 37915, Control_c, 7, 7, 53
9, 37920, Control_c, 7, 7, 52
9, 37940, Control_c, 7, 7, 51
9, 37955, Control_c, 7, 7, 49
9, 37955, Control_c, 7, 7, 50
9, 37960, Control_c, 7, 7, 48
9, 37965, Control_c, 7, 7, 47
9, 37985, Control_c, 7, 7, 46
9, 37990, Control_c, 7, 7, 45
9, 38010, Control_c, 7, 7, 43
9, 38010, Control_c, 7, 7, 44
9, 38025, Control_c, 7, 7, 42
9, 38035, Control_c, 7, 7, 40
9, 38035, Control_c, 7, 7, 41
9, 38040, Control_c, 7, 7, 39
9, 38050, Control_c, 7, 7, 38
9, 38075, Control_c, 7, 7, 37
9, 38080, Control_c, 7, 7, 36
9, 38095, Control_c, 7, 7, 35
9, 38100, Control_c, 7, 7, 33
9, 38125, Control_c, 7, 7, 32
9, 38130, Control_c, 7, 7, 31
9, 38135, Control_c, 7, 7, 30
9, 38142, Control_c, 7, 7, 29
9, 38149, Note_on_c, 7, 65, 0
9, 38163, Control_c, 7, 7, 28
9, 38173, Control_c, 7, 7, 27
9, 38178, Control_c, 7, 7, 26
9, 38183, Control_c, 7, 7, 25
9, 38185, Control_c, 7, 7, 24
9, 38195, Control_c, 7, 7, 23
9, 38205, Control_c, 7, 7, 22
9, 38210, Control_c, 7, 7, 20
9, 38210, Control_c, 7, 7, 21
9, 38215, Control_c, 7, 7, 19
9, 38225, Control_c, 7, 7, 18
9, 38230, Control_c, 7, 7, 17
9, 38235, Control_c, 7, 7, 16
9, 38240, Control_c, 7, 7, 15
9, 38245, Control_c, 7, 7, 14
9, 38270, Control_c, 7, 7, 13
9, 38275, Control_c, 7, 7, 11
9, 38275, Control_c, 7, 7, 12
9, 38290, Control_c, 7, 7, 10
9, 38295, Control_c, 7, 7, 9
9, 38305, Control_c, 7, 7, 8
9, 38315, Control_c, 7, 7, 7
9, 38335, Control_c, 7, 7, 6
9, 38345, Control_c, 7, 7, 5
9, 38355, Control_c, 7, 7, 4
9, 38355, End_track
10, 0, Start_track
10, 0, MIDI_port, 0
10, 0, Title_t, " Oboe"
10, 0, Program_c, 8, 68
10, 0, Control_c, 8, 7, 127
10, 0, Control_c, 8, 10, 64
10, 2341, Note_on_c, 8, 55, 127
10, 2382, Note_on_c, 8, 55, 0
10, 2401, Note_on_c, 8, 55, 127
10, 2460, Note_on_c, 8, 60, 127
10, 2462, Note_on_c, 8, 55, 0
10, 2506, Note_on_c, 8, 60, 0
10, 2521, Note_on_c, 8, 60, 127
10, 2577, Note_on_c, 8, 62, 127
10, 2579, Note_on_c, 8, 60, 0
10, 2623, Note_on_c, 8, 62, 0
10, 2634, Note_on_c, 8, 62, 127
10, 2701, Note_on_c, 8, 64, 127
10, 2706, Note_on_c, 8, 62, 0
10, 2746, Note_on_c, 8, 64, 0
10, 2757, Note_on_c, 8, 64, 127
10, 2818, Note_on_c, 8, 64, 0
10, 2818, Note_on_c, 8, 60, 127
10, 2871, Note_on_c, 8, 62, 127
10, 2872, Note_on_c, 8, 60, 0
10, 2893, Note_on_c, 8, 62, 0
10, 2895, Note_on_c, 8, 64, 127
10, 2902, Note_on_c, 8, 62, 127
10, 2909, Note_on_c, 8, 64, 0
10, 3155, Note_on_c, 8, 62, 0
10, 14515, Note_on_c, 8, 67, 83
10, 14574, Note_on_c, 8, 62, 91
10, 14583, Note_on_c, 8, 67, 0
10, 14631, Note_on_c, 8, 64, 103
10, 14645, Note_on_c, 8, 62, 0
10, 14818, Note_on_c, 8, 64, 0
10, 14818, Note_on_c, 8, 55, 103
10, 14847, Note_on_c, 8, 55, 0
10, 14874, Note_on_c, 8, 55, 93
10, 15010, Note_on_c, 8, 55, 0
10, 37135, Control_c, 8, 7, 126
10, 37215, Control_c, 8, 7, 125
10, 37230, Control_c, 8, 7, 124
10, 37255, Control_c, 8, 7, 123
10, 37275, Control_c, 8, 7, 122
10, 37280, Control_c, 8, 7, 121
10, 37300, Control_c, 8, 7, 120
10, 37320, Control_c, 8, 7, 119
10, 37330, Control_c, 8, 7, 118
10, 37345, Control_c, 8, 7, 117
10, 37350, Control_c, 8, 7, 116
10, 37357, Control_c, 8, 7, 115
10, 37375, Control_c, 8, 7, 114
10, 37390, Control_c, 8, 7, 113
10, 37405, Control_c, 8, 7, 112
10, 37411, Control_c, 8, 7, 111
10, 37428, Control_c, 8, 7, 110
10, 37433, Control_c, 8, 7, 109
10, 37445, Control_c, 8, 7, 108
10, 37465, Control_c, 8, 7, 107
10, 37483, Control_c, 8, 7, 106
10, 37500, Control_c, 8, 7, 105
10, 37520, Control_c, 8, 7, 104
10, 37535, Control_c, 8, 7, 103
10, 37550, Control_c, 8, 7, 102
10, 37555, Control_c, 8, 7, 101
10, 37565, Control_c, 8, 7, 100
10, 37575, Control_c, 8, 7, 99
10, 37590, Control_c, 8, 7, 98
10, 37595, Control_c, 8, 7, 97
10, 37610, Control_c, 8, 7, 96
10, 37640, Control_c, 8, 7, 94
10, 37640, Control_c, 8, 7, 95
10, 37663, Control_c, 8, 7, 93
10, 37673, Control_c, 8, 7, 92
10, 37680, Control_c, 8, 7, 91
10, 37710, Control_c, 8, 7, 89
10, 37710, Control_c, 8, 7, 90
10, 37720, Control_c, 8, 7, 87
10, 37720, Control_c, 8, 7, 88
10, 37730, Control_c, 8, 7, 86
10, 37750, Control_c, 8, 7, 84
10, 37750, Control_c, 8, 7, 85
10, 37760, Control_c, 8, 7, 83
10, 37770, Control_c, 8, 7, 82
10, 37779, Control_c, 8, 7, 80
10, 37779, Control_c, 8, 7, 81
10, 37800, Control_c, 8, 7, 79
10, 37805, Control_c, 8, 7, 78
10, 37810, Control_c, 8, 7, 77
10, 37830, Control_c, 8, 7, 76
10, 37835, Control_c, 8, 7, 75
10, 37850, Control_c, 8, 7, 74
10, 37860, Control_c, 8, 7, 72
10, 37860, Control_c, 8, 7, 73
10, 37870, Control_c, 8, 7, 71
10, 37880, Control_c, 8, 7, 70
10, 37890, Control_c, 8, 7, 69
10, 37899, Control_c, 8, 7, 67
10, 37899, Control_c, 8, 7, 68
10, 37914, Control_c, 8, 7, 66
10, 37915, Control_c, 8, 7, 65
10, 37920, Control_c, 8, 7, 64
10, 37935, Control_c, 8, 7, 63
10, 37940, Control_c, 8, 7, 62
10, 37955, Control_c, 8, 7, 60
10, 37955, Control_c, 8, 7, 61
10, 37960, Control_c, 8, 7, 59
10, 37965, Control_c, 8, 7, 58
10, 37975, Control_c, 8, 7, 57
10, 37985, Control_c, 8, 7, 56
10, 37990, Control_c, 8, 7, 55
10, 38010, Control_c, 8, 7, 53
10, 38010, Control_c, 8, 7, 54
10, 38025, Control_c, 8, 7, 52
10, 38030, Control_c, 8, 7, 51
10, 38035, Control_c, 8, 7, 49
10, 38035, Control_c, 8, 7, 50
10, 38040, Control_c, 8, 7, 48
10, 38050, Control_c, 8, 7, 47
10, 38060, Control_c, 8, 7, 46
10, 38075, Control_c, 8, 7, 45
10, 38080, Control_c, 8, 7, 44
10, 38095, Control_c, 8, 7, 43
10, 38100, Control_c, 8, 7, 41
10, 38120, Control_c, 8, 7, 40
10, 38125, Control_c, 8, 7, 39
10, 38130, Control_c, 8, 7, 38
10, 38135, Control_c, 8, 7, 37
10, 38142, Control_c, 8, 7, 36
10, 38163, Control_c, 8, 7, 35
10, 38168, Control_c, 8, 7, 34
10, 38173, Control_c, 8, 7, 33
10, 38178, Control_c, 8, 7, 32
10, 38183, Control_c, 8, 7, 31
10, 38185, Control_c, 8, 7, 30
10, 38195, Control_c, 8, 7, 29
10, 38205, Control_c, 8, 7, 27
10, 38205, Control_c, 8, 7, 28
10, 38210, Control_c, 8, 7, 25
10, 38210, Control_c, 8, 7, 26
10, 38215, Control_c, 8, 7, 23
10, 38225, Control_c, 8, 7, 22
10, 38230, Control_c, 8, 7, 21
10, 38235, Control_c, 8, 7, 20
10, 38240, Control_c, 8, 7, 19
10, 38245, Control_c, 8, 7, 18
10, 38260, Control_c, 8, 7, 17
10, 38270, Control_c, 8, 7, 16
10, 38275, Control_c, 8, 7, 14
10, 38275, Control_c, 8, 7, 15
10, 38290, Control_c, 8, 7, 13
10, 38295, Control_c, 8, 7, 12
10, 38300, Control_c, 8, 7, 11
10, 38305, Control_c, 8, 7, 10
10, 38315, Control_c, 8, 7, 9
10, 38335, Control_c, 8, 7, 8
10, 38345, Control_c, 8, 7, 7
10, 38355, Control_c, 8, 7, 6
10, 38355, End_track
11, 0, Start_track
11, 0, MIDI_port, 0
11, 0, Title_t, " Drums"
11, 0, Program_c, 9, 0
11, 0, Control_c, 9, 7, 127
11, 0, Control_c, 9, 10, 64
11, 170, Control_c, 9, 7, 126
11, 175, Control_c, 9, 7, 124
11, 180, Control_c, 9, 7, 108
11, 180, Control_c, 9, 7, 116
11, 185, Control_c, 9, 7, 102
11, 190, Control_c, 9, 7, 88
11, 190, Control_c, 9, 7, 94
11, 195, Control_c, 9, 7, 85
11, 195, Control_c, 9, 7, 86
11, 200, Control_c, 9, 7, 84
11, 205, Control_c, 9, 7, 66
11, 205, Control_c, 9, 7, 76
11, 210, Control_c, 9, 7, 61
11, 230, Control_c, 9, 7, 60
11, 235, Control_c, 9, 7, 59
11, 255, Control_c, 9, 7, 58
11, 260, Control_c, 9, 7, 56
11, 265, Control_c, 9, 7, 55
11, 705, Control_c, 9, 7, 56
11, 716, Control_c, 9, 7, 57
11, 778, Control_c, 9, 7, 58
11, 783, Control_c, 9, 7, 59
11, 823, Control_c, 9, 7, 60
11, 877, Control_c, 9, 7, 61
11, 957, Control_c, 9, 7, 62
11, 966, Control_c, 9, 7, 63
11, 1046, Control_c, 9, 7, 64
11, 1137, Control_c, 9, 7, 65
11, 1187, Control_c, 9, 7, 66
11, 1210, Control_c, 9, 7, 67
11, 1230, Control_c, 9, 7, 68
11, 1279, Control_c, 9, 7, 69
11, 1311, Control_c, 9, 7, 70
11, 1336, Control_c, 9, 7, 71
11, 1380, Control_c, 9, 7, 72
11, 1441, Control_c, 9, 7, 74
11, 1441, Control_c, 9, 7, 73
11, 1501, Control_c, 9, 7, 75
11, 1506, Control_c, 9, 7, 76
11, 1531, Control_c, 9, 7, 77
11, 1556, Control_c, 9, 7, 78
11, 1611, Control_c, 9, 7, 79
11, 1650, Control_c, 9, 7, 80
11, 1677, Control_c, 9, 7, 81
11, 1722, Control_c, 9, 7, 82
11, 1727, Control_c, 9, 7, 83
11, 1795, Control_c, 9, 7, 84
11, 1804, Control_c, 9, 7, 85
11, 1831, Control_c, 9, 7, 86
11, 1890, Control_c, 9, 7, 87
11, 1935, Control_c, 9, 7, 88
11, 2005, Control_c, 9, 7, 90
11, 2005, Control_c, 9, 7, 89
11, 2065, Control_c, 9, 7, 91
11, 2090, Control_c, 9, 7, 92
11, 2160, Control_c, 9, 7, 93
11, 2193, Control_c, 9, 7, 94
11, 2246, Control_c, 9, 7, 95
11, 2283, Control_c, 9, 7, 96
11, 2325, Control_c, 9, 7, 97
11, 2326, Control_c, 9, 7, 98
11, 2334, Control_c, 9, 7, 100
11, 2334, Control_c, 9, 7, 99
11, 2410, Control_c, 9, 7, 101
11, 2440, Control_c, 9, 7, 102
11, 2485, Control_c, 9, 7, 103
11, 2490, Control_c, 9, 7, 104
11, 2495, Control_c, 9, 7, 105
11, 2625, Control_c, 9, 7, 106
11, 2630, Control_c, 9, 7, 107
11, 2635, Control_c, 9, 7, 108
11, 2679, Control_c, 9, 7, 109
11, 2744, Control_c, 9, 7, 111
11, 2744, Control_c, 9, 7, 110
11, 2796, Control_c, 9, 7, 120
11, 2796, Control_c, 9, 7, 112
11, 2936, Control_c, 9, 7, 121
11, 2946, Control_c, 9, 7, 122
11, 3036, Control_c, 9, 7, 123
11, 3108, Control_c, 9, 7, 125
11, 3108, Control_c, 9, 7, 124
11, 3173, Control_c, 9, 7, 126
11, 3249, Control_c, 9, 7, 127
11, 4320, Note_on_c, 9, 35, 127
11, 4320, Note_on_c, 9, 42, 127
11, 4345, Note_on_c, 9, 42, 0
11, 4345, Note_on_c, 9, 35, 0
11, 4350, Note_on_c, 9, 42, 90
11, 4375, Note_on_c, 9, 42, 0
11, 4380, Note_on_c, 9, 42, 127
11, 4405, Note_on_c, 9, 42, 0
11, 4410, Note_on_c, 9, 42, 90
11, 4435, Note_on_c, 9, 42, 0
11, 4440, Note_on_c, 9, 38, 120
11, 4440, Note_on_c, 9, 42, 127
11, 4465, Note_on_c, 9, 42, 0
11, 4465, Note_on_c, 9, 38, 0
11, 4470, Note_on_c, 9, 42, 90
11, 4495, Note_on_c, 9, 42, 0
11, 4500, Note_on_c, 9, 35, 127
11, 4500, Note_on_c, 9, 42, 127
11, 4525, Note_on_c, 9, 42, 0
11, 4525, Note_on_c, 9, 35, 0
11, 4530, Note_on_c, 9, 42, 90
11, 4555, Note_on_c, 9, 42, 0
11, 4560, Note_on_c, 9, 42, 127
11, 4585, Note_on_c, 9, 42, 0
11, 4590, Note_on_c, 9, 42, 90
11, 4615, Note_on_c, 9, 42, 0
11, 4620, Note_on_c, 9, 42, 127
11, 4645, Note_on_c, 9, 42, 0
11, 4650, Note_on_c, 9, 42, 90
11, 4675, Note_on_c, 9, 42, 0
11, 4680, Note_on_c, 9, 38, 120
11, 4680, Note_on_c, 9, 42, 127
11, 4705, Note_on_c, 9, 42, 0
11, 4705, Note_on_c, 9, 38, 0
11, 4710, Note_on_c, 9, 42, 90
11, 4735, Note_on_c, 9, 42, 0
11, 4740, Note_on_c, 9, 42, 127
11, 4765, Note_on_c, 9, 42, 0
11, 4770, Note_on_c, 9, 42, 90
11, 4795, Note_on_c, 9, 42, 0
11, 4800, Note_on_c, 9, 35, 127
11, 4800, Note_on_c, 9, 42, 127
11, 4825, Note_on_c, 9, 42, 0
11, 4825, Note_on_c, 9, 35, 0
11, 4830, Note_on_c, 9, 42, 90
11, 4855, Note_on_c, 9, 42, 0
11, 4860, Note_on_c, 9, 42, 127
11, 4885, Note_on_c, 9, 42, 0
11, 4890, Note_on_c, 9, 42, 100
11, 4915, Note_on_c, 9, 42, 0
11, 4920, Note_on_c, 9, 38, 120
11, 4920, Note_on_c, 9, 42, 127
11, 4945, Note_on_c, 9, 42, 0
11, 4945, Note_on_c, 9, 38, 0
11, 4950, Note_on_c, 9, 42, 100
11, 4975, Note_on_c, 9, 42, 0
11, 4980, Note_on_c, 9, 35, 127
11, 4980, Note_on_c, 9, 42, 127
11, 5005, Note_on_c, 9, 42, 0
11, 5005, Note_on_c, 9, 35, 0
11, 5010, Note_on_c, 9, 42, 90
11, 5035, Note_on_c, 9, 42, 0
11, 5040, Note_on_c, 9, 42, 127
11, 5065, Note_on_c, 9, 42, 0
11, 5070, Note_on_c, 9, 42, 90
11, 5095, Note_on_c, 9, 42, 0
11, 5100, Note_on_c, 9, 42, 127
11, 5125, Note_on_c, 9, 42, 0
11, 5130, Note_on_c, 9, 42, 90
11, 5155, Note_on_c, 9, 42, 0
11, 5160, Note_on_c, 9, 38, 120
11, 5160, Note_on_c, 9, 42, 127
11, 5185, Note_on_c, 9, 42, 0
11, 5185, Note_on_c, 9, 38, 0
11, 5190, Note_on_c, 9, 42, 90
11, 5215, Note_on_c, 9, 42, 0
11, 5220, Note_on_c, 9, 42, 127
11, 5245, Note_on_c, 9, 42, 0
11, 5250, Note_on_c, 9, 42, 100
11, 5275, Note_on_c, 9, 42, 0
11, 5280, Note_on_c, 9, 35, 127
11, 5280, Note_on_c, 9, 42, 127
11, 5305, Note_on_c, 9, 42, 0
11, 5305, Note_on_c, 9, 35, 0
11, 5310, Note_on_c, 9, 42, 90
11, 5335, Note_on_c, 9, 42, 0
11, 5340, Note_on_c, 9, 42, 127
11, 5365, Note_on_c, 9, 42, 0
11, 5370, Note_on_c, 9, 42, 90
11, 5395, Note_on_c, 9, 42, 0
11, 5400, Note_on_c, 9, 38, 120
11, 5400, Note_on_c, 9, 42, 127
11, 5425, Note_on_c, 9, 42, 0
11, 5425, Note_on_c, 9, 38, 0
11, 5430, Note_on_c, 9, 42, 90
11, 5455, Note_on_c, 9, 42, 0
11, 5460, Note_on_c, 9, 35, 127
11, 5460, Note_on_c, 9, 42, 127
11, 5485, Note_on_c, 9, 42, 0
11, 5485, Note_on_c, 9, 35, 0
11, 5490, Note_on_c, 9, 42, 90
11, 5515, Note_on_c, 9, 42, 0
11, 5520, Note_on_c, 9, 42, 127
11, 5545, Note_on_c, 9, 42, 0
11, 5550, Note_on_c, 9, 42, 90
11, 5575, Note_on_c, 9, 42, 0
11, 5580, Note_on_c, 9, 42, 127
11, 5605, Note_on_c, 9, 42, 0
11, 5610, Note_on_c, 9, 42, 90
11, 5635, Note_on_c, 9, 42, 0
11, 5640, Note_on_c, 9, 38, 120
11, 5640, Note_on_c, 9, 42, 127
11, 5665, Note_on_c, 9, 42, 0
11, 5665, Note_on_c, 9, 38, 0
11, 5670, Note_on_c, 9, 42, 90
11, 5695, Note_on_c, 9, 42, 0
11, 5700, Note_on_c, 9, 42, 127
11, 5725, Note_on_c, 9, 42, 0
11, 5730, Note_on_c, 9, 42, 90
11, 5755, Note_on_c, 9, 42, 0
11, 5760, Note_on_c, 9, 35, 127
11, 5760, Note_on_c, 9, 42, 127
11, 5785, Note_on_c, 9, 42, 0
11, 5785, Note_on_c, 9, 35, 0
11, 5790, Note_on_c, 9, 42, 90
11, 5815, Note_on_c, 9, 42, 0
11, 5820, Note_on_c, 9, 42, 127
11, 5845, Note_on_c, 9, 42, 0
11, 5850, Note_on_c, 9, 42, 100
11, 5875, Note_on_c, 9, 42, 0
11, 5880, Note_on_c, 9, 38, 120
11, 5880, Note_on_c, 9, 42, 127
11, 5905, Note_on_c, 9, 42, 0
11, 5905, Note_on_c, 9, 38, 0
11, 5910, Note_on_c, 9, 42, 100
11, 5935, Note_on_c, 9, 42, 0
11, 5940, Note_on_c, 9, 35, 127
11, 5940, Note_on_c, 9, 42, 127
11, 5965, Note_on_c, 9, 42, 0
11, 5965, Note_on_c, 9, 35, 0
11, 5970, Note_on_c, 9, 42, 90
11, 5995, Note_on_c, 9, 42, 0
11, 6000, Note_on_c, 9, 42, 127
11, 6025, Note_on_c, 9, 42, 0
11, 6030, Note_on_c, 9, 42, 90
11, 6055, Note_on_c, 9, 42, 0
11, 6060, Note_on_c, 9, 42, 127
11, 6085, Note_on_c, 9, 42, 0
11, 6090, Note_on_c, 9, 42, 90
11, 6115, Note_on_c, 9, 42, 0
11, 6120, Note_on_c, 9, 38, 120
11, 6120, Note_on_c, 9, 42, 127
11, 6145, Note_on_c, 9, 42, 0
11, 6145, Note_on_c, 9, 38, 0
11, 6150, Note_on_c, 9, 42, 90
11, 6175, Note_on_c, 9, 42, 0
11, 6180, Note_on_c, 9, 42, 127
11, 6205, Note_on_c, 9, 42, 0
11, 6210, Note_on_c, 9, 42, 100
11, 6235, Note_on_c, 9, 42, 0
11, 6240, Note_on_c, 9, 35, 127
11, 6240, Note_on_c, 9, 42, 127
11, 6265, Note_on_c, 9, 42, 0
11, 6265, Note_on_c, 9, 35, 0
11, 6270, Note_on_c, 9, 42, 90
11, 6295, Note_on_c, 9, 42, 0
11, 6300, Note_on_c, 9, 42, 127
11, 6325, Note_on_c, 9, 42, 0
11, 6330, Note_on_c, 9, 42, 90
11, 6355, Note_on_c, 9, 42, 0
11, 6360, Note_on_c, 9, 38, 120
11, 6360, Note_on_c, 9, 42, 127
11, 6385, Note_on_c, 9, 42, 0
11, 6385, Note_on_c, 9, 38, 0
11, 6390, Note_on_c, 9, 42, 90
11, 6415, Note_on_c, 9, 42, 0
11, 6420, Note_on_c, 9, 35, 127
11, 6420, Note_on_c, 9, 42, 127
11, 6445, Note_on_c, 9, 42, 0
11, 6445, Note_on_c, 9, 35, 0
11, 6450, Note_on_c, 9, 42, 90
11, 6475, Note_on_c, 9, 42, 0
11, 6480, Note_on_c, 9, 42, 127
11, 6505, Note_on_c, 9, 42, 0
11, 6510, Note_on_c, 9, 42, 90
11, 6535, Note_on_c, 9, 42, 0
11, 6540, Note_on_c, 9, 42, 127
11, 6565, Note_on_c, 9, 42, 0
11, 6570, Note_on_c, 9, 42, 90
11, 6595, Note_on_c, 9, 42, 0
11, 6600, Note_on_c, 9, 38, 120
11, 6600, Note_on_c, 9, 42, 127
11, 6625, Note_on_c, 9, 42, 0
11, 6625, Note_on_c, 9, 38, 0
11, 6630, Note_on_c, 9, 42, 90
11, 6655, Note_on_c, 9, 42, 0
11, 6660, Note_on_c, 9, 42, 127
11, 6685, Note_on_c, 9, 42, 0
11, 6690, Note_on_c, 9, 42, 90
11, 6715, Note_on_c, 9, 42, 0
11, 6720, Note_on_c, 9, 35, 127
11, 6720, Note_on_c, 9, 42, 127
11, 6745, Note_on_c, 9, 42, 0
11, 6745, Note_on_c, 9, 35, 0
11, 6750, Note_on_c, 9, 42, 90
11, 6775, Note_on_c, 9, 42, 0
11, 6780, Note_on_c, 9, 42, 127
11, 6805, Note_on_c, 9, 42, 0
11, 6810, Note_on_c, 9, 42, 100
11, 6835, Note_on_c, 9, 42, 0
11, 6840, Note_on_c, 9, 38, 120
11, 6840, Note_on_c, 9, 42, 127
11, 6865, Note_on_c, 9, 42, 0
11, 6865, Note_on_c, 9, 38, 0
11, 6870, Note_on_c, 9, 42, 100
11, 6895, Note_on_c, 9, 42, 0
11, 6900, Note_on_c, 9, 35, 127
11, 6900, Note_on_c, 9, 42, 127
11, 6925, Note_on_c, 9, 42, 0
11, 6925, Note_on_c, 9, 35, 0
11, 6930, Note_on_c, 9, 42, 90
11, 6955, Note_on_c, 9, 42, 0
11, 6960, Note_on_c, 9, 42, 127
11, 6985, Note_on_c, 9, 42, 0
11, 6990, Note_on_c, 9, 42, 90
11, 7015, Note_on_c, 9, 42, 0
11, 7020, Note_on_c, 9, 42, 127
11, 7045, Note_on_c, 9, 42, 0
11, 7050, Note_on_c, 9, 42, 90
11, 7075, Note_on_c, 9, 42, 0
11, 7080, Note_on_c, 9, 38, 120
11, 7080, Note_on_c, 9, 42, 127
11, 7105, Note_on_c, 9, 42, 0
11, 7105, Note_on_c, 9, 38, 0
11, 7110, Note_on_c, 9, 42, 90
11, 7135, Note_on_c, 9, 42, 0
11, 7140, Note_on_c, 9, 42, 127
11, 7165, Note_on_c, 9, 42, 0
11, 7170, Note_on_c, 9, 42, 100
11, 7195, Note_on_c, 9, 42, 0
11, 7200, Note_on_c, 9, 35, 127
11, 7200, Note_on_c, 9, 42, 127
11, 7225, Note_on_c, 9, 42, 0
11, 7225, Note_on_c, 9, 35, 0
11, 7230, Note_on_c, 9, 42, 90
11, 7255, Note_on_c, 9, 42, 0
11, 7260, Note_on_c, 9, 42, 127
11, 7285, Note_on_c, 9, 42, 0
11, 7290, Note_on_c, 9, 42, 90
11, 7315, Note_on_c, 9, 42, 0
11, 7320, Note_on_c, 9, 38, 120
11, 7320, Note_on_c, 9, 42, 127
11, 7345, Note_on_c, 9, 42, 0
11, 7345, Note_on_c, 9, 38, 0
11, 7350, Note_on_c, 9, 42, 90
11, 7375, Note_on_c, 9, 42, 0
11, 7380, Note_on_c, 9, 35, 127
11, 7380, Note_on_c, 9, 42, 127
11, 7405, Note_on_c, 9, 42, 0
11, 7405, Note_on_c, 9, 35, 0
11, 7410, Note_on_c, 9, 42, 90
11, 7435, Note_on_c, 9, 42, 0
11, 7440, Note_on_c, 9, 42, 127
11, 7465, Note_on_c, 9, 42, 0
11, 7470, Note_on_c, 9, 42, 90
11, 7495, Note_on_c, 9, 42, 0
11, 7500, Note_on_c, 9, 42, 127
11, 7525, Note_on_c, 9, 42, 0
11, 7530, Note_on_c, 9, 42, 90
11, 7555, Note_on_c, 9, 42, 0
11, 7560, Note_on_c, 9, 38, 120
11, 7560, Note_on_c, 9, 42, 127
11, 7585, Note_on_c, 9, 42, 0
11, 7585, Note_on_c, 9, 38, 0
11, 7590, Note_on_c, 9, 42, 90
11, 7615, Note_on_c, 9, 42, 0
11, 7620, Note_on_c, 9, 42, 127
11, 7645, Note_on_c, 9, 42, 0
11, 7650, Note_on_c, 9, 42, 90
11, 7675, Note_on_c, 9, 42, 0
11, 7680, Note_on_c, 9, 35, 127
11, 7680, Note_on_c, 9, 42, 127
11, 7705, Note_on_c, 9, 42, 0
11, 7705, Note_on_c, 9, 35, 0
11, 7710, Note_on_c, 9, 42, 90
11, 7735, Note_on_c, 9, 42, 0
11, 7740, Note_on_c, 9, 42, 127
11, 7765, Note_on_c, 9, 42, 0
11, 7770, Note_on_c, 9, 42, 100
11, 7795, Note_on_c, 9, 42, 0
11, 7800, Note_on_c, 9, 38, 120
11, 7800, Note_on_c, 9, 42, 127
11, 7825, Note_on_c, 9, 42, 0
11, 7825, Note_on_c, 9, 38, 0
11, 7830, Note_on_c, 9, 42, 100
11, 7855, Note_on_c, 9, 42, 0
11, 7860, Note_on_c, 9, 35, 127
11, 7860, Note_on_c, 9, 42, 127
11, 7885, Note_on_c, 9, 42, 0
11, 7885, Note_on_c, 9, 35, 0
11, 7890, Note_on_c, 9, 42, 90
11, 7915, Note_on_c, 9, 42, 0
11, 7920, Note_on_c, 9, 42, 127
11, 7945, Note_on_c, 9, 42, 0
11, 7950, Note_on_c, 9, 42, 90
11, 7975, Note_on_c, 9, 42, 0
11, 7980, Note_on_c, 9, 42, 127
11, 8005, Note_on_c, 9, 42, 0
11, 8010, Note_on_c, 9, 42, 90
11, 8035, Note_on_c, 9, 42, 0
11, 8040, Note_on_c, 9, 38, 120
11, 8040, Note_on_c, 9, 42, 127
11, 8065, Note_on_c, 9, 42, 0
11, 8065, Note_on_c, 9, 38, 0
11, 8070, Note_on_c, 9, 42, 90
11, 8095, Note_on_c, 9, 42, 0
11, 8100, Note_on_c, 9, 42, 127
11, 8125, Note_on_c, 9, 42, 0
11, 8130, Note_on_c, 9, 42, 100
11, 8155, Note_on_c, 9, 42, 0
11, 8160, Note_on_c, 9, 35, 127
11, 8160, Note_on_c, 9, 42, 127
11, 8185, Note_on_c, 9, 42, 0
11, 8185, Note_on_c, 9, 35, 0
11, 8190, Note_on_c, 9, 42, 90
11, 8215, Note_on_c, 9, 42, 0
11, 8220, Note_on_c, 9, 42, 127
11, 8245, Note_on_c, 9, 42, 0
11, 8250, Note_on_c, 9, 42, 90
11, 8275, Note_on_c, 9, 42, 0
11, 8280, Note_on_c, 9, 38, 120
11, 8280, Note_on_c, 9, 42, 127
11, 8305, Note_on_c, 9, 42, 0
11, 8305, Note_on_c, 9, 38, 0
11, 8310, Note_on_c, 9, 42, 90
11, 8335, Note_on_c, 9, 42, 0
11, 8340, Note_on_c, 9, 35, 127
11, 8340, Note_on_c, 9, 42, 127
11, 8365, Note_on_c, 9, 42, 0
11, 8365, Note_on_c, 9, 35, 0
11, 8370, Note_on_c, 9, 42, 90
11, 8395, Note_on_c, 9, 42, 0
11, 8400, Note_on_c, 9, 42, 127
11, 8425, Note_on_c, 9, 42, 0
11, 8430, Note_on_c, 9, 42, 90
11, 8455, Note_on_c, 9, 42, 0
11, 8460, Note_on_c, 9, 42, 127
11, 8485, Note_on_c, 9, 42, 0
11, 8490, Note_on_c, 9, 42, 90
11, 8515, Note_on_c, 9, 42, 0
11, 8520, Note_on_c, 9, 38, 120
11, 8520, Note_on_c, 9, 42, 127
11, 8545, Note_on_c, 9, 42, 0
11, 8545, Note_on_c, 9, 38, 0
11, 8550, Note_on_c, 9, 42, 90
11, 8575, Note_on_c, 9, 42, 0
11, 8580, Note_on_c, 9, 42, 127
11, 8605, Note_on_c, 9, 42, 0
11, 8610, Note_on_c, 9, 42, 90
11, 8635, Note_on_c, 9, 42, 0
11, 8640, Note_on_c, 9, 35, 127
11, 8640, Note_on_c, 9, 42, 127
11, 8665, Note_on_c, 9, 42, 0
11, 8665, Note_on_c, 9, 35, 0
11, 8670, Note_on_c, 9, 42, 90
11, 8695, Note_on_c, 9, 42, 0
11, 8700, Note_on_c, 9, 42, 127
11, 8725, Note_on_c, 9, 42, 0
11, 8730, Note_on_c, 9, 42, 100
11, 8755, Note_on_c, 9, 42, 0
11, 8760, Note_on_c, 9, 38, 120
11, 8760, Note_on_c, 9, 42, 127
11, 8785, Note_on_c, 9, 42, 0
11, 8785, Note_on_c, 9, 38, 0
11, 8790, Note_on_c, 9, 42, 100
11, 8815, Note_on_c, 9, 42, 0
11, 8820, Note_on_c, 9, 35, 127
11, 8820, Note_on_c, 9, 42, 127
11, 8845, Note_on_c, 9, 42, 0
11, 8845, Note_on_c, 9, 35, 0
11, 8850, Note_on_c, 9, 42, 90
11, 8875, Note_on_c, 9, 42, 0
11, 8880, Note_on_c, 9, 42, 127
11, 8905, Note_on_c, 9, 42, 0
11, 8910, Note_on_c, 9, 42, 90
11, 8935, Note_on_c, 9, 42, 0
11, 8940, Note_on_c, 9, 42, 127
11, 8965, Note_on_c, 9, 42, 0
11, 8970, Note_on_c, 9, 42, 90
11, 8995, Note_on_c, 9, 42, 0
11, 9000, Note_on_c, 9, 38, 120
11, 9000, Note_on_c, 9, 42, 127
11, 9025, Note_on_c, 9, 42, 0
11, 9025, Note_on_c, 9, 38, 0
11, 9030, Note_on_c, 9, 42, 90
11, 9055, Note_on_c, 9, 42, 0
11, 9060, Note_on_c, 9, 42, 127
11, 9085, Note_on_c, 9, 42, 0
11, 9090, Note_on_c, 9, 42, 100
11, 9115, Note_on_c, 9, 42, 0
11, 9120, Note_on_c, 9, 35, 127
11, 9120, Note_on_c, 9, 42, 127
11, 9145, Note_on_c, 9, 42, 0
11, 9145, Note_on_c, 9, 35, 0
11, 9150, Note_on_c, 9, 42, 90
11, 9175, Note_on_c, 9, 42, 0
11, 9180, Note_on_c, 9, 42, 127
11, 9205, Note_on_c, 9, 42, 0
11, 9210, Note_on_c, 9, 42, 90
11, 9235, Note_on_c, 9, 42, 0
11, 9240, Note_on_c, 9, 38, 120
11, 9240, Note_on_c, 9, 42, 127
11, 9265, Note_on_c, 9, 42, 0
11, 9265, Note_on_c, 9, 38, 0
11, 9270, Note_on_c, 9, 42, 90
11, 9295, Note_on_c, 9, 42, 0
11, 9300, Note_on_c, 9, 35, 127
11, 9300, Note_on_c, 9, 42, 127
11, 9325, Note_on_c, 9, 42, 0
11, 9325, Note_on_c, 9, 35, 0
11, 9330, Note_on_c, 9, 42, 90
11, 9355, Note_on_c, 9, 42, 0
11, 9360, Note_on_c, 9, 42, 127
11, 9385, Note_on_c, 9, 42, 0
11, 9390, Note_on_c, 9, 42, 90
11, 9415, Note_on_c, 9, 42, 0
11, 9420, Note_on_c, 9, 42, 127
11, 9445, Note_on_c, 9, 42, 0
11, 9450, Note_on_c, 9, 42, 90
11, 9475, Note_on_c, 9, 42, 0
11, 9480, Note_on_c, 9, 38, 120
11, 9480, Note_on_c, 9, 42, 127
11, 9505, Note_on_c, 9, 42, 0
11, 9505, Note_on_c, 9, 38, 0
11, 9510, Note_on_c, 9, 42, 90
11, 9535, Note_on_c, 9, 42, 0
11, 9540, Note_on_c, 9, 42, 127
11, 9565, Note_on_c, 9, 42, 0
11, 9570, Note_on_c, 9, 42, 90
11, 9595, Note_on_c, 9, 42, 0
11, 9600, Note_on_c, 9, 35, 127
11, 9600, Note_on_c, 9, 42, 127
11, 9625, Note_on_c, 9, 42, 0
11, 9625, Note_on_c, 9, 35, 0
11, 9630, Note_on_c, 9, 42, 90
11, 9655, Note_on_c, 9, 42, 0
11, 9660, Note_on_c, 9, 42, 127
11, 9685, Note_on_c, 9, 42, 0
11, 9690, Note_on_c, 9, 42, 100
11, 9715, Note_on_c, 9, 42, 0
11, 9720, Note_on_c, 9, 38, 120
11, 9720, Note_on_c, 9, 42, 127
11, 9745, Note_on_c, 9, 42, 0
11, 9745, Note_on_c, 9, 38, 0
11, 9750, Note_on_c, 9, 42, 100
11, 9775, Note_on_c, 9, 42, 0
11, 9780, Note_on_c, 9, 35, 127
11, 9780, Note_on_c, 9, 42, 127
11, 9805, Note_on_c, 9, 42, 0
11, 9805, Note_on_c, 9, 35, 0
11, 9810, Note_on_c, 9, 42, 90
11, 9835, Note_on_c, 9, 42, 0
11, 9840, Note_on_c, 9, 42, 127
11, 9865, Note_on_c, 9, 42, 0
11, 9870, Note_on_c, 9, 42, 90
11, 9895, Note_on_c, 9, 42, 0
11, 9900, Note_on_c, 9, 42, 127
11, 9925, Note_on_c, 9, 42, 0
11, 9930, Note_on_c, 9, 42, 90
11, 9955, Note_on_c, 9, 42, 0
11, 9960, Note_on_c, 9, 38, 120
11, 9960, Note_on_c, 9, 42, 127
11, 9985, Note_on_c, 9, 42, 0
11, 9985, Note_on_c, 9, 38, 0
11, 9990, Note_on_c, 9, 42, 90
11, 10015, Note_on_c, 9, 42, 0
11, 10020, Note_on_c, 9, 42, 127
11, 10045, Note_on_c, 9, 42, 0
11, 10050, Note_on_c, 9, 42, 100
11, 10075, Note_on_c, 9, 42, 0
11, 10080, Note_on_c, 9, 35, 127
11, 10080, Note_on_c, 9, 42, 127
11, 10105, Note_on_c, 9, 42, 0
11, 10105, Note_on_c, 9, 35, 0
11, 10110, Note_on_c, 9, 42, 90
11, 10135, Note_on_c, 9, 42, 0
11, 10140, Note_on_c, 9, 42, 127
11, 10165, Note_on_c, 9, 42, 0
11, 10170, Note_on_c, 9, 42, 90
11, 10195, Note_on_c, 9, 42, 0
11, 10200, Note_on_c, 9, 38, 120
11, 10200, Note_on_c, 9, 42, 127
11, 10225, Note_on_c, 9, 42, 0
11, 10225, Note_on_c, 9, 38, 0
11, 10230, Note_on_c, 9, 42, 90
11, 10255, Note_on_c, 9, 42, 0
11, 10260, Note_on_c, 9, 35, 127
11, 10260, Note_on_c, 9, 42, 127
11, 10285, Note_on_c, 9, 42, 0
11, 10285, Note_on_c, 9, 35, 0
11, 10290, Note_on_c, 9, 42, 90
11, 10315, Note_on_c, 9, 42, 0
11, 10320, Note_on_c, 9, 42, 127
11, 10345, Note_on_c, 9, 42, 0
11, 10350, Note_on_c, 9, 42, 90
11, 10375, Note_on_c, 9, 42, 0
11, 10380, Note_on_c, 9, 42, 127
11, 10405, Note_on_c, 9, 42, 0
11, 10410, Note_on_c, 9, 42, 90
11, 10435, Note_on_c, 9, 42, 0
11, 10440, Note_on_c, 9, 38, 120
11, 10440, Note_on_c, 9, 42, 127
11, 10465, Note_on_c, 9, 42, 0
11, 10465, Note_on_c, 9, 38, 0
11, 10470, Note_on_c, 9, 42, 90
11, 10495, Note_on_c, 9, 42, 0
11, 10500, Note_on_c, 9, 42, 127
11, 10525, Note_on_c, 9, 42, 0
11, 10530, Note_on_c, 9, 42, 90
11, 10555, Note_on_c, 9, 42, 0
11, 10560, Note_on_c, 9, 35, 127
11, 10560, Note_on_c, 9, 42, 127
11, 10585, Note_on_c, 9, 42, 0
11, 10585, Note_on_c, 9, 35, 0
11, 10590, Note_on_c, 9, 42, 90
11, 10615, Note_on_c, 9, 42, 0
11, 10620, Note_on_c, 9, 42, 127
11, 10645, Note_on_c, 9, 42, 0
11, 10650, Note_on_c, 9, 42, 100
11, 10675, Note_on_c, 9, 42, 0
11, 10680, Note_on_c, 9, 38, 120
11, 10680, Note_on_c, 9, 42, 127
11, 10705, Note_on_c, 9, 42, 0
11, 10705, Note_on_c, 9, 38, 0
11, 10710, Note_on_c, 9, 42, 100
11, 10735, Note_on_c, 9, 42, 0
11, 10740, Note_on_c, 9, 35, 127
11, 10740, Note_on_c, 9, 42, 127
11, 10765, Note_on_c, 9, 42, 0
11, 10765, Note_on_c, 9, 35, 0
11, 10770, Note_on_c, 9, 42, 90
11, 10795, Note_on_c, 9, 42, 0
11, 10800, Note_on_c, 9, 42, 127
11, 10825, Note_on_c, 9, 42, 0
11, 10830, Note_on_c, 9, 42, 90
11, 10855, Note_on_c, 9, 42, 0
11, 10860, Note_on_c, 9, 42, 127
11, 10885, Note_on_c, 9, 42, 0
11, 10890, Note_on_c, 9, 42, 90
11, 10915, Note_on_c, 9, 42, 0
11, 10920, Note_on_c, 9, 38, 120
11, 10920, Note_on_c, 9, 42, 127
11, 10945, Note_on_c, 9, 42, 0
11, 10945, Note_on_c, 9, 38, 0
11, 10950, Note_on_c, 9, 42, 90
11, 10975, Note_on_c, 9, 42, 0
11, 10980, Note_on_c, 9, 42, 127
11, 11005, Note_on_c, 9, 42, 0
11, 11010, Note_on_c, 9, 42, 100
11, 11035, Note_on_c, 9, 42, 0
11, 11040, Note_on_c, 9, 35, 127
11, 11040, Note_on_c, 9, 42, 127
11, 11065, Note_on_c, 9, 42, 0
11, 11065, Note_on_c, 9, 35, 0
11, 11070, Note_on_c, 9, 42, 90
11, 11095, Note_on_c, 9, 42, 0
11, 11100, Note_on_c, 9, 42, 127
11, 11125, Note_on_c, 9, 42, 0
11, 11130, Note_on_c, 9, 42, 90
11, 11155, Note_on_c, 9, 42, 0
11, 11160, Note_on_c, 9, 38, 120
11, 11160, Note_on_c, 9, 42, 127
11, 11185, Note_on_c, 9, 42, 0
11, 11185, Note_on_c, 9, 38, 0
11, 11190, Note_on_c, 9, 42, 90
11, 11215, Note_on_c, 9, 42, 0
11, 11220, Note_on_c, 9, 35, 127
11, 11220, Note_on_c, 9, 42, 127
11, 11245, Note_on_c, 9, 42, 0
11, 11245, Note_on_c, 9, 35, 0
11, 11250, Note_on_c, 9, 42, 90
11, 11275, Note_on_c, 9, 42, 0
11, 11280, Note_on_c, 9, 42, 127
11, 11305, Note_on_c, 9, 42, 0
11, 11310, Note_on_c, 9, 42, 90
11, 11335, Note_on_c, 9, 42, 0
11, 11340, Note_on_c, 9, 42, 127
11, 11365, Note_on_c, 9, 42, 0
11, 11370, Note_on_c, 9, 42, 90
11, 11395, Note_on_c, 9, 42, 0
11, 11400, Note_on_c, 9, 38, 120
11, 11400, Note_on_c, 9, 42, 127
11, 11425, Note_on_c, 9, 42, 0
11, 11425, Note_on_c, 9, 38, 0
11, 11430, Note_on_c, 9, 42, 90
11, 11455, Note_on_c, 9, 42, 0
11, 11460, Note_on_c, 9, 42, 127
11, 11485, Note_on_c, 9, 42, 0
11, 11490, Note_on_c, 9, 42, 90
11, 11515, Note_on_c, 9, 42, 0
11, 11520, Note_on_c, 9, 35, 127
11, 11520, Note_on_c, 9, 42, 127
11, 11545, Note_on_c, 9, 42, 0
11, 11545, Note_on_c, 9, 35, 0
11, 11550, Note_on_c, 9, 42, 90
11, 11575, Note_on_c, 9, 42, 0
11, 11580, Note_on_c, 9, 42, 127
11, 11605, Note_on_c, 9, 42, 0
11, 11610, Note_on_c, 9, 42, 100
11, 11635, Note_on_c, 9, 42, 0
11, 11640, Note_on_c, 9, 38, 120
11, 11640, Note_on_c, 9, 42, 127
11, 11665, Note_on_c, 9, 42, 0
11, 11665, Note_on_c, 9, 38, 0
11, 11670, Note_on_c, 9, 42, 100
11, 11695, Note_on_c, 9, 42, 0
11, 11700, Note_on_c, 9, 35, 127
11, 11700, Note_on_c, 9, 42, 127
11, 11725, Note_on_c, 9, 42, 0
11, 11725, Note_on_c, 9, 35, 0
11, 11730, Note_on_c, 9, 42, 90
11, 11755, Note_on_c, 9, 42, 0
11, 11760, Note_on_c, 9, 42, 127
11, 11785, Note_on_c, 9, 42, 0
11, 11790, Note_on_c, 9, 42, 90
11, 11815, Note_on_c, 9, 42, 0
11, 11820, Note_on_c, 9, 42, 127
11, 11845, Note_on_c, 9, 42, 0
11, 11850, Note_on_c, 9, 42, 90
11, 11875, Note_on_c, 9, 42, 0
11, 11880, Note_on_c, 9, 38, 120
11, 11880, Note_on_c, 9, 42, 127
11, 11905, Note_on_c, 9, 42, 0
11, 11905, Note_on_c, 9, 38, 0
11, 11910, Note_on_c, 9, 42, 90
11, 11935, Note_on_c, 9, 42, 0
11, 11940, Note_on_c, 9, 42, 127
11, 11965, Note_on_c, 9, 42, 0
11, 11970, Note_on_c, 9, 42, 100
11, 11995, Note_on_c, 9, 42, 0
11, 12000, Note_on_c, 9, 35, 127
11, 12000, Note_on_c, 9, 42, 127
11, 12025, Note_on_c, 9, 42, 0
11, 12025, Note_on_c, 9, 35, 0
11, 12030, Note_on_c, 9, 42, 90
11, 12055, Note_on_c, 9, 42, 0
11, 12060, Note_on_c, 9, 42, 127
11, 12085, Note_on_c, 9, 42, 0
11, 12090, Note_on_c, 9, 42, 90
11, 12115, Note_on_c, 9, 42, 0
11, 12120, Note_on_c, 9, 38, 120
11, 12120, Note_on_c, 9, 42, 127
11, 12145, Note_on_c, 9, 42, 0
11, 12145, Note_on_c, 9, 38, 0
11, 12150, Note_on_c, 9, 42, 90
11, 12175, Note_on_c, 9, 42, 0
11, 12180, Note_on_c, 9, 35, 127
11, 12180, Note_on_c, 9, 42, 127
11, 12205, Note_on_c, 9, 42, 0
11, 12205, Note_on_c, 9, 35, 0
11, 12210, Note_on_c, 9, 42, 90
11, 12235, Note_on_c, 9, 42, 0
11, 12240, Note_on_c, 9, 42, 127
11, 12265, Note_on_c, 9, 42, 0
11, 12270, Note_on_c, 9, 42, 90
11, 12295, Note_on_c, 9, 42, 0
11, 12300, Note_on_c, 9, 42, 127
11, 12325, Note_on_c, 9, 42, 0
11, 12330, Note_on_c, 9, 42, 90
11, 12355, Note_on_c, 9, 42, 0
11, 12360, Note_on_c, 9, 38, 120
11, 12360, Note_on_c, 9, 42, 127
11, 12385, Note_on_c, 9, 42, 0
11, 12385, Note_on_c, 9, 38, 0
11, 12390, Note_on_c, 9, 42, 90
11, 12415, Note_on_c, 9, 42, 0
11, 12420, Note_on_c, 9, 42, 127
11, 12445, Note_on_c, 9, 42, 0
11, 12450, Note_on_c, 9, 42, 90
11, 12475, Note_on_c, 9, 42, 0
11, 12480, Note_on_c, 9, 35, 127
11, 12480, Note_on_c, 9, 42, 127
11, 12505, Note_on_c, 9, 42, 0
11, 12505, Note_on_c, 9, 35, 0
11, 12510, Note_on_c, 9, 42, 90
11, 12535, Note_on_c, 9, 42, 0
11, 12540, Note_on_c, 9, 42, 127
11, 12565, Note_on_c, 9, 42, 0
11, 12570, Note_on_c, 9, 42, 100
11, 12595, Note_on_c, 9, 42, 0
11, 12600, Note_on_c, 9, 38, 120
11, 12600, Note_on_c, 9, 42, 127
11, 12625, Note_on_c, 9, 42, 0
11, 12625, Note_on_c, 9, 38, 0
11, 12630, Note_on_c, 9, 42, 100
11, 12655, Note_on_c, 9, 42, 0
11, 12660, Note_on_c, 9, 35, 127
11, 12660, Note_on_c, 9, 42, 127
11, 12685, Note_on_c, 9, 42, 0
11, 12685, Note_on_c, 9, 35, 0
11, 12690, Note_on_c, 9, 42, 90
11, 12715, Note_on_c, 9, 42, 0
11, 12720, Note_on_c, 9, 42, 127
11, 12745, Note_on_c, 9, 42, 0
11, 12750, Note_on_c, 9, 42, 90
11, 12775, Note_on_c, 9, 42, 0
11, 12780, Note_on_c, 9, 42, 127
11, 12805, Note_on_c, 9, 42, 0
11, 12810, Note_on_c, 9, 42, 90
11, 12835, Note_on_c, 9, 42, 0
11, 12840, Note_on_c, 9, 38, 120
11, 12840, Note_on_c, 9, 42, 127
11, 12865, Note_on_c, 9, 42, 0
11, 12865, Note_on_c, 9, 38, 0
11, 12870, Note_on_c, 9, 42, 90
11, 12895, Note_on_c, 9, 42, 0
11, 12900, Note_on_c, 9, 42, 127
11, 12925, Note_on_c, 9, 42, 0
11, 12930, Note_on_c, 9, 42, 100
11, 12955, Note_on_c, 9, 42, 0
11, 12960, Note_on_c, 9, 35, 127
11, 12960, Note_on_c, 9, 42, 127
11, 12985, Note_on_c, 9, 42, 0
11, 12985, Note_on_c, 9, 35, 0
11, 12990, Note_on_c, 9, 42, 90
11, 13015, Note_on_c, 9, 42, 0
11, 13020, Note_on_c, 9, 42, 127
11, 13045, Note_on_c, 9, 42, 0
11, 13050, Note_on_c, 9, 42, 90
11, 13075, Note_on_c, 9, 42, 0
11, 13080, Note_on_c, 9, 38, 120
11, 13080, Note_on_c, 9, 42, 127
11, 13105, Note_on_c, 9, 42, 0
11, 13105, Note_on_c, 9, 38, 0
11, 13110, Note_on_c, 9, 42, 90
11, 13135, Note_on_c, 9, 42, 0
11, 13140, Note_on_c, 9, 35, 127
11, 13140, Note_on_c, 9, 42, 127
11, 13165, Note_on_c, 9, 42, 0
11, 13165, Note_on_c, 9, 35, 0
11, 13170, Note_on_c, 9, 42, 90
11, 13195, Note_on_c, 9, 42, 0
11, 13200, Note_on_c, 9, 42, 127
11, 13225, Note_on_c, 9, 42, 0
11, 13230, Note_on_c, 9, 42, 90
11, 13255, Note_on_c, 9, 42, 0
11, 13260, Note_on_c, 9, 42, 127
11, 13285, Note_on_c, 9, 42, 0
11, 13290, Note_on_c, 9, 42, 90
11, 13315, Note_on_c, 9, 42, 0
11, 13320, Note_on_c, 9, 38, 120
11, 13320, Note_on_c, 9, 42, 127
11, 13345, Note_on_c, 9, 42, 0
11, 13345, Note_on_c, 9, 38, 0
11, 13350, Note_on_c, 9, 42, 90
11, 13375, Note_on_c, 9, 42, 0
11, 13380, Note_on_c, 9, 42, 127
11, 13405, Note_on_c, 9, 42, 0
11, 13410, Note_on_c, 9, 42, 90
11, 13435, Note_on_c, 9, 42, 0
11, 13440, Note_on_c, 9, 35, 127
11, 13440, Note_on_c, 9, 42, 127
11, 13465, Note_on_c, 9, 42, 0
11, 13465, Note_on_c, 9, 35, 0
11, 13470, Note_on_c, 9, 42, 90
11, 13495, Note_on_c, 9, 42, 0
11, 13500, Note_on_c, 9, 42, 127
11, 13525, Note_on_c, 9, 42, 0
11, 13530, Note_on_c, 9, 42, 100
11, 13555, Note_on_c, 9, 42, 0
11, 13560, Note_on_c, 9, 38, 120
11, 13560, Note_on_c, 9, 42, 127
11, 13585, Note_on_c, 9, 42, 0
11, 13585, Note_on_c, 9, 38, 0
11, 13590, Note_on_c, 9, 42, 100
11, 13615, Note_on_c, 9, 42, 0
11, 13620, Note_on_c, 9, 35, 127
11, 13620, Note_on_c, 9, 42, 127
11, 13645, Note_on_c, 9, 42, 0
11, 13645, Note_on_c, 9, 35, 0
11, 13650, Note_on_c, 9, 42, 90
11, 13675, Note_on_c, 9, 42, 0
11, 13680, Note_on_c, 9, 42, 127
11, 13705, Note_on_c, 9, 42, 0
11, 13710, Note_on_c, 9, 42, 90
11, 13735, Note_on_c, 9, 42, 0
11, 13740, Note_on_c, 9, 42, 127
11, 13765, Note_on_c, 9, 42, 0
11, 13770, Note_on_c, 9, 42, 90
11, 13795, Note_on_c, 9, 42, 0
11, 13800, Note_on_c, 9, 38, 120
11, 13800, Note_on_c, 9, 42, 127
11, 13825, Note_on_c, 9, 42, 0
11, 13825, Note_on_c, 9, 38, 0
11, 13830, Note_on_c, 9, 42, 90
11, 13855, Note_on_c, 9, 42, 0
11, 13860, Note_on_c, 9, 42, 127
11, 13885, Note_on_c, 9, 42, 0
11, 13890, Note_on_c, 9, 42, 100
11, 13915, Note_on_c, 9, 42, 0
11, 13920, Note_on_c, 9, 35, 127
11, 13920, Note_on_c, 9, 42, 127
11, 13945, Note_on_c, 9, 42, 0
11, 13945, Note_on_c, 9, 35, 0
11, 13950, Note_on_c, 9, 42, 90
11, 13975, Note_on_c, 9, 42, 0
11, 13980, Note_on_c, 9, 42, 127
11, 14005, Note_on_c, 9, 42, 0
11, 14010, Note_on_c, 9, 42, 90
11, 14035, Note_on_c, 9, 42, 0
11, 14040, Note_on_c, 9, 38, 120
11, 14040, Note_on_c, 9, 42, 127
11, 14065, Note_on_c, 9, 42, 0
11, 14065, Note_on_c, 9, 38, 0
11, 14070, Note_on_c, 9, 42, 90
11, 14095, Note_on_c, 9, 42, 0
11, 14100, Note_on_c, 9, 35, 127
11, 14100, Note_on_c, 9, 42, 127
11, 14125, Note_on_c, 9, 42, 0
11, 14125, Note_on_c, 9, 35, 0
11, 14130, Note_on_c, 9, 42, 90
11, 14155, Note_on_c, 9, 42, 0
11, 14160, Note_on_c, 9, 42, 127
11, 14185, Note_on_c, 9, 42, 0
11, 14190, Note_on_c, 9, 42, 90
11, 14215, Note_on_c, 9, 42, 0
11, 14220, Note_on_c, 9, 42, 127
11, 14245, Note_on_c, 9, 42, 0
11, 14250, Note_on_c, 9, 42, 90
11, 14275, Note_on_c, 9, 42, 0
11, 14280, Note_on_c, 9, 38, 120
11, 14280, Note_on_c, 9, 42, 127
11, 14305, Note_on_c, 9, 42, 0
11, 14305, Note_on_c, 9, 38, 0
11, 14310, Note_on_c, 9, 42, 90
11, 14335, Note_on_c, 9, 42, 0
11, 14340, Note_on_c, 9, 42, 127
11, 14365, Note_on_c, 9, 42, 0
11, 14370, Note_on_c, 9, 42, 90
11, 14395, Note_on_c, 9, 42, 0
11, 14400, Note_on_c, 9, 35, 127
11, 14400, Note_on_c, 9, 42, 127
11, 14425, Note_on_c, 9, 42, 0
11, 14425, Note_on_c, 9, 35, 0
11, 14430, Note_on_c, 9, 42, 90
11, 14455, Note_on_c, 9, 42, 0
11, 14460, Note_on_c, 9, 42, 127
11, 14485, Note_on_c, 9, 42, 0
11, 14490, Note_on_c, 9, 42, 100
11, 14515, Note_on_c, 9, 42, 0
11, 14520, Note_on_c, 9, 38, 120
11, 14520, Note_on_c, 9, 42, 127
11, 14545, Note_on_c, 9, 42, 0
11, 14545, Note_on_c, 9, 38, 0
11, 14550, Note_on_c, 9, 42, 100
11, 14575, Note_on_c, 9, 42, 0
11, 14580, Note_on_c, 9, 35, 127
11, 14580, Note_on_c, 9, 42, 127
11, 14605, Note_on_c, 9, 42, 0
11, 14605, Note_on_c, 9, 35, 0
11, 14610, Note_on_c, 9, 42, 90
11, 14635, Note_on_c, 9, 42, 0
11, 14640, Note_on_c, 9, 42, 127
11, 14665, Note_on_c, 9, 42, 0
11, 14670, Note_on_c, 9, 42, 90
11, 14695, Note_on_c, 9, 42, 0
11, 14700, Note_on_c, 9, 42, 127
11, 14725, Note_on_c, 9, 42, 0
11, 14730, Note_on_c, 9, 42, 90
11, 14755, Note_on_c, 9, 42, 0
11, 14760, Note_on_c, 9, 38, 120
11, 14760, Note_on_c, 9, 42, 127
11, 14785, Note_on_c, 9, 42, 0
11, 14785, Note_on_c, 9, 38, 0
11, 14790, Note_on_c, 9, 42, 90
11, 14815, Note_on_c, 9, 42, 0
11, 14820, Note_on_c, 9, 42, 127
11, 14845, Note_on_c, 9, 42, 0
11, 14850, Note_on_c, 9, 42, 100
11, 14875, Note_on_c, 9, 42, 0
11, 14880, Note_on_c, 9, 35, 127
11, 14880, Note_on_c, 9, 42, 127
11, 14905, Note_on_c, 9, 42, 0
11, 14905, Note_on_c, 9, 35, 0
11, 14910, Note_on_c, 9, 42, 90
11, 14935, Note_on_c, 9, 42, 0
11, 14940, Note_on_c, 9, 42, 127
11, 14965, Note_on_c, 9, 42, 0
11, 14970, Note_on_c, 9, 42, 90
11, 14995, Note_on_c, 9, 42, 0
11, 15000, Note_on_c, 9, 38, 120
11, 15000, Note_on_c, 9, 42, 127
11, 15025, Note_on_c, 9, 42, 0
11, 15025, Note_on_c, 9, 38, 0
11, 15030, Note_on_c, 9, 42, 90
11, 15055, Note_on_c, 9, 42, 0
11, 15060, Note_on_c, 9, 35, 127
11, 15060, Note_on_c, 9, 42, 127
11, 15085, Note_on_c, 9, 42, 0
11, 15085, Note_on_c, 9, 35, 0
11, 15090, Note_on_c, 9, 42, 90
11, 15115, Note_on_c, 9, 42, 0
11, 15120, Note_on_c, 9, 42, 127
11, 15145, Note_on_c, 9, 42, 0
11, 15150, Note_on_c, 9, 42, 90
11, 15175, Note_on_c, 9, 42, 0
11, 15180, Note_on_c, 9, 42, 127
11, 15205, Note_on_c, 9, 42, 0
11, 15210, Note_on_c, 9, 42, 90
11, 15235, Note_on_c, 9, 42, 0
11, 15240, Note_on_c, 9, 38, 120
11, 15240, Note_on_c, 9, 42, 127
11, 15265, Note_on_c, 9, 42, 0
11, 15265, Note_on_c, 9, 38, 0
11, 15270, Note_on_c, 9, 42, 90
11, 15295, Note_on_c, 9, 42, 0
11, 15300, Note_on_c, 9, 42, 127
11, 15325, Note_on_c, 9, 42, 0
11, 15330, Note_on_c, 9, 42, 90
11, 15355, Note_on_c, 9, 42, 0
11, 15360, Note_on_c, 9, 35, 127
11, 15360, Note_on_c, 9, 42, 127
11, 15385, Note_on_c, 9, 42, 0
11, 15385, Note_on_c, 9, 35, 0
11, 15390, Note_on_c, 9, 42, 90
11, 15415, Note_on_c, 9, 42, 0
11, 15420, Note_on_c, 9, 42, 127
11, 15445, Note_on_c, 9, 42, 0
11, 15450, Note_on_c, 9, 42, 100
11, 15475, Note_on_c, 9, 42, 0
11, 15480, Note_on_c, 9, 38, 120
11, 15480, Note_on_c, 9, 42, 127
11, 15505, Note_on_c, 9, 42, 0
11, 15505, Note_on_c, 9, 38, 0
11, 15510, Note_on_c, 9, 42, 100
11, 15535, Note_on_c, 9, 42, 0
11, 15540, Note_on_c, 9, 35, 127
11, 15540, Note_on_c, 9, 42, 127
11, 15565, Note_on_c, 9, 42, 0
11, 15565, Note_on_c, 9, 35, 0
11, 15570, Note_on_c, 9, 42, 90
11, 15595, Note_on_c, 9, 42, 0
11, 15600, Note_on_c, 9, 42, 127
11, 15625, Note_on_c, 9, 42, 0
11, 15630, Note_on_c, 9, 42, 90
11, 15655, Note_on_c, 9, 42, 0
11, 15660, Note_on_c, 9, 42, 127
11, 15685, Note_on_c, 9, 42, 0
11, 15690, Note_on_c, 9, 42, 90
11, 15715, Note_on_c, 9, 42, 0
11, 15720, Note_on_c, 9, 38, 120
11, 15720, Note_on_c, 9, 42, 127
11, 15745, Note_on_c, 9, 42, 0
11, 15745, Note_on_c, 9, 38, 0
11, 15750, Note_on_c, 9, 42, 90
11, 15775, Note_on_c, 9, 42, 0
11, 15780, Note_on_c, 9, 42, 127
11, 15805, Note_on_c, 9, 42, 0
11, 15810, Note_on_c, 9, 42, 100
11, 15835, Note_on_c, 9, 42, 0
11, 15840, Note_on_c, 9, 35, 127
11, 15840, Note_on_c, 9, 42, 127
11, 15865, Note_on_c, 9, 42, 0
11, 15865, Note_on_c, 9, 35, 0
11, 15870, Note_on_c, 9, 42, 90
11, 15895, Note_on_c, 9, 42, 0
11, 15900, Note_on_c, 9, 42, 127
11, 15925, Note_on_c, 9, 42, 0
11, 15930, Note_on_c, 9, 42, 90
11, 15955, Note_on_c, 9, 42, 0
11, 15960, Note_on_c, 9, 38, 120
11, 15960, Note_on_c, 9, 42, 127
11, 15985, Note_on_c, 9, 42, 0
11, 15985, Note_on_c, 9, 38, 0
11, 15990, Note_on_c, 9, 42, 90
11, 16015, Note_on_c, 9, 42, 0
11, 16020, Note_on_c, 9, 35, 127
11, 16020, Note_on_c, 9, 42, 127
11, 16045, Note_on_c, 9, 42, 0
11, 16045, Note_on_c, 9, 35, 0
11, 16050, Note_on_c, 9, 42, 90
11, 16075, Note_on_c, 9, 42, 0
11, 16080, Note_on_c, 9, 42, 127
11, 16105, Note_on_c, 9, 42, 0
11, 16110, Note_on_c, 9, 42, 90
11, 16135, Note_on_c, 9, 42, 0
11, 16140, Note_on_c, 9, 42, 127
11, 16165, Note_on_c, 9, 42, 0
11, 16170, Note_on_c, 9, 42, 90
11, 16195, Note_on_c, 9, 42, 0
11, 16200, Note_on_c, 9, 38, 120
11, 16200, Note_on_c, 9, 42, 127
11, 16225, Note_on_c, 9, 42, 0
11, 16225, Note_on_c, 9, 38, 0
11, 16230, Note_on_c, 9, 42, 90
11, 16255, Note_on_c, 9, 42, 0
11, 16260, Note_on_c, 9, 42, 127
11, 16285, Note_on_c, 9, 42, 0
11, 16290, Note_on_c, 9, 42, 90
11, 16315, Note_on_c, 9, 42, 0
11, 16320, Note_on_c, 9, 35, 127
11, 16320, Note_on_c, 9, 42, 127
11, 16345, Note_on_c, 9, 42, 0
11, 16345, Note_on_c, 9, 35, 0
11, 16350, Note_on_c, 9, 42, 90
11, 16375, Note_on_c, 9, 42, 0
11, 16380, Note_on_c, 9, 42, 127
11, 16405, Note_on_c, 9, 42, 0
11, 16410, Note_on_c, 9, 42, 100
11, 16435, Note_on_c, 9, 42, 0
11, 16440, Note_on_c, 9, 38, 120
11, 16440, Note_on_c, 9, 42, 127
11, 16465, Note_on_c, 9, 42, 0
11, 16465, Note_on_c, 9, 38, 0
11, 16470, Note_on_c, 9, 42, 100
11, 16495, Note_on_c, 9, 42, 0
11, 16500, Note_on_c, 9, 35, 127
11, 16500, Note_on_c, 9, 42, 127
11, 16525, Note_on_c, 9, 42, 0
11, 16525, Note_on_c, 9, 35, 0
11, 16530, Note_on_c, 9, 42, 90
11, 16555, Note_on_c, 9, 42, 0
11, 16560, Note_on_c, 9, 42, 127
11, 16585, Note_on_c, 9, 42, 0
11, 16590, Note_on_c, 9, 42, 90
11, 16615, Note_on_c, 9, 42, 0
11, 16620, Note_on_c, 9, 42, 127
11, 16645, Note_on_c, 9, 42, 0
11, 16650, Note_on_c, 9, 42, 90
11, 16675, Note_on_c, 9, 42, 0
11, 16680, Note_on_c, 9, 38, 120
11, 16680, Note_on_c, 9, 42, 127
11, 16705, Note_on_c, 9, 42, 0
11, 16705, Note_on_c, 9, 38, 0
11, 16710, Note_on_c, 9, 42, 90
11, 16735, Note_on_c, 9, 42, 0
11, 16740, Note_on_c, 9, 42, 127
11, 16765, Note_on_c, 9, 42, 0
11, 16770, Note_on_c, 9, 42, 100
11, 16795, Note_on_c, 9, 42, 0
11, 16800, Note_on_c, 9, 35, 127
11, 16800, Note_on_c, 9, 42, 127
11, 16825, Note_on_c, 9, 42, 0
11, 16825, Note_on_c, 9, 35, 0
11, 16830, Note_on_c, 9, 42, 90
11, 16855, Note_on_c, 9, 42, 0
11, 16860, Note_on_c, 9, 42, 127
11, 16885, Note_on_c, 9, 42, 0
11, 16890, Note_on_c, 9, 42, 90
11, 16915, Note_on_c, 9, 42, 0
11, 16920, Note_on_c, 9, 38, 120
11, 16920, Note_on_c, 9, 42, 127
11, 16945, Note_on_c, 9, 42, 0
11, 16945, Note_on_c, 9, 38, 0
11, 16950, Note_on_c, 9, 42, 90
11, 16975, Note_on_c, 9, 42, 0
11, 16980, Note_on_c, 9, 35, 127
11, 16980, Note_on_c, 9, 42, 127
11, 17005, Note_on_c, 9, 42, 0
11, 17005, Note_on_c, 9, 35, 0
11, 17010, Note_on_c, 9, 42, 90
11, 17035, Note_on_c, 9, 42, 0
11, 17040, Note_on_c, 9, 42, 127
11, 17065, Note_on_c, 9, 42, 0
11, 17070, Note_on_c, 9, 42, 90
11, 17095, Note_on_c, 9, 42, 0
11, 17100, Note_on_c, 9, 42, 127
11, 17125, Note_on_c, 9, 42, 0
11, 17130, Note_on_c, 9, 42, 90
11, 17155, Note_on_c, 9, 42, 0
11, 17160, Note_on_c, 9, 38, 120
11, 17160, Note_on_c, 9, 42, 127
11, 17185, Note_on_c, 9, 42, 0
11, 17185, Note_on_c, 9, 38, 0
11, 17190, Note_on_c, 9, 42, 90
11, 17215, Note_on_c, 9, 42, 0
11, 17220, Note_on_c, 9, 42, 127
11, 17245, Note_on_c, 9, 42, 0
11, 17250, Note_on_c, 9, 42, 90
11, 17275, Note_on_c, 9, 42, 0
11, 17280, Note_on_c, 9, 35, 127
11, 17280, Note_on_c, 9, 42, 127
11, 17305, Note_on_c, 9, 42, 0
11, 17305, Note_on_c, 9, 35, 0
11, 17310, Note_on_c, 9, 42, 90
11, 17335, Note_on_c, 9, 42, 0
11, 17340, Note_on_c, 9, 42, 127
11, 17365, Note_on_c, 9, 42, 0
11, 17370, Note_on_c, 9, 42, 100
11, 17395, Note_on_c, 9, 42, 0
11, 17400, Note_on_c, 9, 38, 120
11, 17400, Note_on_c, 9, 42, 127
11, 17425, Note_on_c, 9, 42, 0
11, 17425, Note_on_c, 9, 38, 0
11, 17430, Note_on_c, 9, 42, 100
11, 17455, Note_on_c, 9, 42, 0
11, 17460, Note_on_c, 9, 35, 127
11, 17460, Note_on_c, 9, 42, 127
11, 17485, Note_on_c, 9, 42, 0
11, 17485, Note_on_c, 9, 35, 0
11, 17490, Note_on_c, 9, 42, 90
11, 17515, Note_on_c, 9, 42, 0
11, 17520, Note_on_c, 9, 42, 127
11, 17545, Note_on_c, 9, 42, 0
11, 17550, Note_on_c, 9, 42, 90
11, 17575, Note_on_c, 9, 42, 0
11, 17580, Note_on_c, 9, 42, 127
11, 17605, Note_on_c, 9, 42, 0
11, 17610, Note_on_c, 9, 42, 90
11, 17635, Note_on_c, 9, 42, 0
11, 17640, Note_on_c, 9, 38, 120
11, 17640, Note_on_c, 9, 42, 127
11, 17665, Note_on_c, 9, 42, 0
11, 17665, Note_on_c, 9, 38, 0
11, 17670, Note_on_c, 9, 42, 90
11, 17695, Note_on_c, 9, 42, 0
11, 17700, Note_on_c, 9, 42, 127
11, 17725, Note_on_c, 9, 42, 0
11, 17730, Note_on_c, 9, 42, 100
11, 17755, Note_on_c, 9, 42, 0
11, 17760, Note_on_c, 9, 35, 127
11, 17760, Note_on_c, 9, 42, 127
11, 17785, Note_on_c, 9, 42, 0
11, 17785, Note_on_c, 9, 35, 0
11, 17790, Note_on_c, 9, 42, 90
11, 17815, Note_on_c, 9, 42, 0
11, 17820, Note_on_c, 9, 42, 127
11, 17845, Note_on_c, 9, 42, 0
11, 17850, Note_on_c, 9, 42, 90
11, 17875, Note_on_c, 9, 42, 0
11, 17880, Note_on_c, 9, 38, 120
11, 17880, Note_on_c, 9, 42, 127
11, 17905, Note_on_c, 9, 42, 0
11, 17905, Note_on_c, 9, 38, 0
11, 17910, Note_on_c, 9, 42, 90
11, 17935, Note_on_c, 9, 42, 0
11, 17940, Note_on_c, 9, 35, 127
11, 17940, Note_on_c, 9, 42, 127
11, 17965, Note_on_c, 9, 42, 0
11, 17965, Note_on_c, 9, 35, 0
11, 17970, Note_on_c, 9, 42, 90
11, 17995, Note_on_c, 9, 42, 0
11, 18000, Note_on_c, 9, 42, 127
11, 18025, Note_on_c, 9, 42, 0
11, 18030, Note_on_c, 9, 42, 90
11, 18055, Note_on_c, 9, 42, 0
11, 18060, Note_on_c, 9, 42, 127
11, 18085, Note_on_c, 9, 42, 0
11, 18090, Note_on_c, 9, 42, 90
11, 18115, Note_on_c, 9, 42, 0
11, 18120, Note_on_c, 9, 38, 120
11, 18120, Note_on_c, 9, 42, 127
11, 18145, Note_on_c, 9, 42, 0
11, 18145, Note_on_c, 9, 38, 0
11, 18150, Note_on_c, 9, 42, 90
11, 18175, Note_on_c, 9, 42, 0
11, 18180, Note_on_c, 9, 42, 127
11, 18205, Note_on_c, 9, 42, 0
11, 18210, Note_on_c, 9, 42, 90
11, 18235, Note_on_c, 9, 42, 0
11, 18240, Note_on_c, 9, 35, 127
11, 18240, Note_on_c, 9, 42, 127
11, 18265, Note_on_c, 9, 42, 0
11, 18265, Note_on_c, 9, 35, 0
11, 18270, Note_on_c, 9, 42, 90
11, 18295, Note_on_c, 9, 42, 0
11, 18300, Note_on_c, 9, 42, 127
11, 18325, Note_on_c, 9, 42, 0
11, 18330, Note_on_c, 9, 42, 100
11, 18355, Note_on_c, 9, 42, 0
11, 18360, Note_on_c, 9, 38, 120
11, 18360, Note_on_c, 9, 42, 127
11, 18385, Note_on_c, 9, 42, 0
11, 18385, Note_on_c, 9, 38, 0
11, 18390, Note_on_c, 9, 42, 100
11, 18415, Note_on_c, 9, 42, 0
11, 18420, Note_on_c, 9, 35, 127
11, 18420, Note_on_c, 9, 42, 127
11, 18445, Note_on_c, 9, 42, 0
11, 18445, Note_on_c, 9, 35, 0
11, 18450, Note_on_c, 9, 42, 90
11, 18475, Note_on_c, 9, 42, 0
11, 18480, Note_on_c, 9, 42, 127
11, 18505, Note_on_c, 9, 42, 0
11, 18510, Note_on_c, 9, 42, 90
11, 18535, Note_on_c, 9, 42, 0
11, 18540, Note_on_c, 9, 42, 127
11, 18565, Note_on_c, 9, 42, 0
11, 18570, Note_on_c, 9, 42, 90
11, 18595, Note_on_c, 9, 42, 0
11, 18600, Note_on_c, 9, 38, 120
11, 18600, Note_on_c, 9, 42, 127
11, 18625, Note_on_c, 9, 42, 0
11, 18625, Note_on_c, 9, 38, 0
11, 18630, Note_on_c, 9, 42, 90
11, 18655, Note_on_c, 9, 42, 0
11, 18660, Note_on_c, 9, 42, 127
11, 18685, Note_on_c, 9, 42, 0
11, 18690, Note_on_c, 9, 42, 100
11, 18715, Note_on_c, 9, 42, 0
11, 18720, Note_on_c, 9, 35, 127
11, 18720, Note_on_c, 9, 42, 127
11, 18745, Note_on_c, 9, 42, 0
11, 18745, Note_on_c, 9, 35, 0
11, 18750, Note_on_c, 9, 42, 90
11, 18775, Note_on_c, 9, 42, 0
11, 18780, Note_on_c, 9, 42, 127
11, 18805, Note_on_c, 9, 42, 0
11, 18810, Note_on_c, 9, 42, 90
11, 18835, Note_on_c, 9, 42, 0
11, 18840, Note_on_c, 9, 38, 120
11, 18840, Note_on_c, 9, 42, 127
11, 18865, Note_on_c, 9, 42, 0
11, 18865, Note_on_c, 9, 38, 0
11, 18870, Note_on_c, 9, 42, 90
11, 18895, Note_on_c, 9, 42, 0
11, 18900, Note_on_c, 9, 35, 127
11, 18900, Note_on_c, 9, 42, 127
11, 18925, Note_on_c, 9, 42, 0
11, 18925, Note_on_c, 9, 35, 0
11, 18930, Note_on_c, 9, 42, 90
11, 18955, Note_on_c, 9, 42, 0
11, 18960, Note_on_c, 9, 42, 127
11, 18985, Note_on_c, 9, 42, 0
11, 18990, Note_on_c, 9, 42, 90
11, 19015, Note_on_c, 9, 42, 0
11, 19020, Note_on_c, 9, 42, 127
11, 19045, Note_on_c, 9, 42, 0
11, 19050, Note_on_c, 9, 42, 90
11, 19075, Note_on_c, 9, 42, 0
11, 19080, Note_on_c, 9, 38, 120
11, 19080, Note_on_c, 9, 42, 127
11, 19105, Note_on_c, 9, 42, 0
11, 19105, Note_on_c, 9, 38, 0
11, 19110, Note_on_c, 9, 42, 90
11, 19135, Note_on_c, 9, 42, 0
11, 19140, Note_on_c, 9, 42, 127
11, 19165, Note_on_c, 9, 42, 0
11, 19170, Note_on_c, 9, 42, 90
11, 19195, Note_on_c, 9, 42, 0
11, 19200, Note_on_c, 9, 35, 127
11, 19200, Note_on_c, 9, 42, 127
11, 19225, Note_on_c, 9, 42, 0
11, 19225, Note_on_c, 9, 35, 0
11, 19230, Note_on_c, 9, 42, 90
11, 19255, Note_on_c, 9, 42, 0
11, 19260, Note_on_c, 9, 42, 127
11, 19285, Note_on_c, 9, 42, 0
11, 19290, Note_on_c, 9, 42, 100
11, 19315, Note_on_c, 9, 42, 0
11, 19320, Note_on_c, 9, 38, 120
11, 19320, Note_on_c, 9, 42, 127
11, 19345, Note_on_c, 9, 42, 0
11, 19345, Note_on_c, 9, 38, 0
11, 19350, Note_on_c, 9, 42, 100
11, 19375, Note_on_c, 9, 42, 0
11, 19380, Note_on_c, 9, 35, 127
11, 19380, Note_on_c, 9, 42, 127
11, 19405, Note_on_c, 9, 42, 0
11, 19405, Note_on_c, 9, 35, 0
11, 19410, Note_on_c, 9, 42, 90
11, 19435, Note_on_c, 9, 42, 0
11, 19440, Note_on_c, 9, 42, 127
11, 19465, Note_on_c, 9, 42, 0
11, 19470, Note_on_c, 9, 42, 90
11, 19495, Note_on_c, 9, 42, 0
11, 19500, Note_on_c, 9, 42, 127
11, 19525, Note_on_c, 9, 42, 0
11, 19530, Note_on_c, 9, 42, 90
11, 19555, Note_on_c, 9, 42, 0
11, 19560, Note_on_c, 9, 38, 120
11, 19560, Note_on_c, 9, 42, 127
11, 19585, Note_on_c, 9, 42, 0
11, 19585, Note_on_c, 9, 38, 0
11, 19590, Note_on_c, 9, 42, 90
11, 19615, Note_on_c, 9, 42, 0
11, 19620, Note_on_c, 9, 42, 127
11, 19645, Note_on_c, 9, 42, 0
11, 19650, Note_on_c, 9, 42, 100
11, 19675, Note_on_c, 9, 42, 0
11, 19680, Note_on_c, 9, 35, 127
11, 19680, Note_on_c, 9, 42, 127
11, 19705, Note_on_c, 9, 42, 0
11, 19705, Note_on_c, 9, 35, 0
11, 19710, Note_on_c, 9, 42, 90
11, 19735, Note_on_c, 9, 42, 0
11, 19740, Note_on_c, 9, 42, 127
11, 19765, Note_on_c, 9, 42, 0
11, 19770, Note_on_c, 9, 42, 90
11, 19795, Note_on_c, 9, 42, 0
11, 19800, Note_on_c, 9, 38, 120
11, 19800, Note_on_c, 9, 42, 127
11, 19825, Note_on_c, 9, 42, 0
11, 19825, Note_on_c, 9, 38, 0
11, 19830, Note_on_c, 9, 42, 90
11, 19855, Note_on_c, 9, 42, 0
11, 19860, Note_on_c, 9, 35, 127
11, 19860, Note_on_c, 9, 42, 127
11, 19885, Note_on_c, 9, 42, 0
11, 19885, Note_on_c, 9, 35, 0
11, 19890, Note_on_c, 9, 42, 90
11, 19915, Note_on_c, 9, 42, 0
11, 19920, Note_on_c, 9, 42, 127
11, 19945, Note_on_c, 9, 42, 0
11, 19950, Note_on_c, 9, 42, 90
11, 19975, Note_on_c, 9, 42, 0
11, 19980, Note_on_c, 9, 42, 127
11, 20005, Note_on_c, 9, 42, 0
11, 20010, Note_on_c, 9, 42, 90
11, 20035, Note_on_c, 9, 42, 0
11, 20040, Note_on_c, 9, 38, 120
11, 20040, Note_on_c, 9, 42, 127
11, 20065, Note_on_c, 9, 42, 0
11, 20065, Note_on_c, 9, 38, 0
11, 20070, Note_on_c, 9, 42, 90
11, 20095, Note_on_c, 9, 42, 0
11, 20100, Note_on_c, 9, 42, 127
11, 20125, Note_on_c, 9, 42, 0
11, 20130, Note_on_c, 9, 42, 90
11, 20155, Note_on_c, 9, 42, 0
11, 20160, Note_on_c, 9, 35, 127
11, 20160, Note_on_c, 9, 42, 127
11, 20185, Note_on_c, 9, 42, 0
11, 20185, Note_on_c, 9, 35, 0
11, 20190, Note_on_c, 9, 42, 90
11, 20215, Note_on_c, 9, 42, 0
11, 20220, Note_on_c, 9, 42, 127
11, 20245, Note_on_c, 9, 42, 0
11, 20250, Note_on_c, 9, 42, 100
11, 20275, Note_on_c, 9, 42, 0
11, 20280, Note_on_c, 9, 38, 120
11, 20280, Note_on_c, 9, 42, 127
11, 20305, Note_on_c, 9, 42, 0
11, 20305, Note_on_c, 9, 38, 0
11, 20310, Note_on_c, 9, 42, 100
11, 20335, Note_on_c, 9, 42, 0
11, 20340, Note_on_c, 9, 35, 127
11, 20340, Note_on_c, 9, 42, 127
11, 20365, Note_on_c, 9, 42, 0
11, 20365, Note_on_c, 9, 35, 0
11, 20370, Note_on_c, 9, 42, 90
11, 20395, Note_on_c, 9, 42, 0
11, 20400, Note_on_c, 9, 42, 127
11, 20425, Note_on_c, 9, 42, 0
11, 20430, Note_on_c, 9, 42, 90
11, 20455, Note_on_c, 9, 42, 0
11, 20460, Note_on_c, 9, 42, 127
11, 20485, Note_on_c, 9, 42, 0
11, 20490, Note_on_c, 9, 42, 90
11, 20515, Note_on_c, 9, 42, 0
11, 20520, Note_on_c, 9, 38, 120
11, 20520, Note_on_c, 9, 42, 127
11, 20545, Note_on_c, 9, 42, 0
11, 20545, Note_on_c, 9, 38, 0
11, 20550, Note_on_c, 9, 42, 90
11, 20575, Note_on_c, 9, 42, 0
11, 20580, Note_on_c, 9, 42, 127
11, 20605, Note_on_c, 9, 42, 0
11, 20610, Note_on_c, 9, 42, 100
11, 20635, Note_on_c, 9, 42, 0
11, 20640, Note_on_c, 9, 35, 127
11, 20640, Note_on_c, 9, 42, 127
11, 20665, Note_on_c, 9, 42, 0
11, 20665, Note_on_c, 9, 35, 0
11, 20670, Note_on_c, 9, 42, 90
11, 20695, Note_on_c, 9, 42, 0
11, 20700, Note_on_c, 9, 42, 127
11, 20725, Note_on_c, 9, 42, 0
11, 20730, Note_on_c, 9, 42, 90
11, 20755, Note_on_c, 9, 42, 0
11, 20760, Note_on_c, 9, 38, 120
11, 20760, Note_on_c, 9, 42, 127
11, 20785, Note_on_c, 9, 42, 0
11, 20785, Note_on_c, 9, 38, 0
11, 20790, Note_on_c, 9, 42, 90
11, 20815, Note_on_c, 9, 42, 0
11, 20820, Note_on_c, 9, 35, 127
11, 20820, Note_on_c, 9, 42, 127
11, 20845, Note_on_c, 9, 42, 0
11, 20845, Note_on_c, 9, 35, 0
11, 20850, Note_on_c, 9, 42, 90
11, 20875, Note_on_c, 9, 42, 0
11, 20880, Note_on_c, 9, 42, 127
11, 20905, Note_on_c, 9, 42, 0
11, 20910, Note_on_c, 9, 42, 90
11, 20935, Note_on_c, 9, 42, 0
11, 20940, Note_on_c, 9, 42, 127
11, 20965, Note_on_c, 9, 42, 0
11, 20970, Note_on_c, 9, 42, 90
11, 20995, Note_on_c, 9, 42, 0
11, 21000, Note_on_c, 9, 38, 120
11, 21000, Note_on_c, 9, 42, 127
11, 21025, Note_on_c, 9, 42, 0
11, 21025, Note_on_c, 9, 38, 0
11, 21030, Note_on_c, 9, 42, 90
11, 21055, Note_on_c, 9, 42, 0
11, 21060, Note_on_c, 9, 42, 127
11, 21085, Note_on_c, 9, 42, 0
11, 21090, Note_on_c, 9, 42, 90
11, 21115, Note_on_c, 9, 42, 0
11, 21120, Note_on_c, 9, 35, 127
11, 21120, Note_on_c, 9, 42, 127
11, 21145, Note_on_c, 9, 42, 0
11, 21145, Note_on_c, 9, 35, 0
11, 21150, Note_on_c, 9, 42, 90
11, 21175, Note_on_c, 9, 42, 0
11, 21180, Note_on_c, 9, 42, 127
11, 21205, Note_on_c, 9, 42, 0
11, 21210, Note_on_c, 9, 42, 100
11, 21235, Note_on_c, 9, 42, 0
11, 21240, Note_on_c, 9, 38, 120
11, 21240, Note_on_c, 9, 42, 127
11, 21265, Note_on_c, 9, 42, 0
11, 21265, Note_on_c, 9, 38, 0
11, 21270, Note_on_c, 9, 42, 100
11, 21295, Note_on_c, 9, 42, 0
11, 21300, Note_on_c, 9, 35, 127
11, 21300, Note_on_c, 9, 42, 127
11, 21325, Note_on_c, 9, 42, 0
11, 21325, Note_on_c, 9, 35, 0
11, 21330, Note_on_c, 9, 42, 90
11, 21355, Note_on_c, 9, 42, 0
11, 21360, Note_on_c, 9, 42, 127
11, 21385, Note_on_c, 9, 42, 0
11, 21390, Note_on_c, 9, 42, 90
11, 21415, Note_on_c, 9, 42, 0
11, 21420, Note_on_c, 9, 42, 127
11, 21445, Note_on_c, 9, 42, 0
11, 21450, Note_on_c, 9, 42, 90
11, 21475, Note_on_c, 9, 42, 0
11, 21480, Note_on_c, 9, 38, 120
11, 21480, Note_on_c, 9, 42, 127
11, 21505, Note_on_c, 9, 42, 0
11, 21505, Note_on_c, 9, 38, 0
11, 21510, Note_on_c, 9, 42, 90
11, 21535, Note_on_c, 9, 42, 0
11, 21540, Note_on_c, 9, 42, 127
11, 21565, Note_on_c, 9, 42, 0
11, 21570, Note_on_c, 9, 42, 100
11, 21595, Note_on_c, 9, 42, 0
11, 21600, Note_on_c, 9, 35, 127
11, 21600, Note_on_c, 9, 42, 127
11, 21625, Note_on_c, 9, 42, 0
11, 21625, Note_on_c, 9, 35, 0
11, 21630, Note_on_c, 9, 42, 90
11, 21655, Note_on_c, 9, 42, 0
11, 21660, Note_on_c, 9, 42, 127
11, 21685, Note_on_c, 9, 42, 0
11, 21690, Note_on_c, 9, 42, 90
11, 21715, Note_on_c, 9, 42, 0
11, 21720, Note_on_c, 9, 38, 120
11, 21720, Note_on_c, 9, 42, 127
11, 21745, Note_on_c, 9, 42, 0
11, 21745, Note_on_c, 9, 38, 0
11, 21750, Note_on_c, 9, 42, 90
11, 21775, Note_on_c, 9, 42, 0
11, 21780, Note_on_c, 9, 35, 127
11, 21780, Note_on_c, 9, 42, 127
11, 21805, Note_on_c, 9, 42, 0
11, 21805, Note_on_c, 9, 35, 0
11, 21810, Note_on_c, 9, 42, 90
11, 21835, Note_on_c, 9, 42, 0
11, 21840, Note_on_c, 9, 42, 127
11, 21865, Note_on_c, 9, 42, 0
11, 21870, Note_on_c, 9, 42, 90
11, 21895, Note_on_c, 9, 42, 0
11, 21900, Note_on_c, 9, 42, 127
11, 21925, Note_on_c, 9, 42, 0
11, 21930, Note_on_c, 9, 42, 90
11, 21955, Note_on_c, 9, 42, 0
11, 21960, Note_on_c, 9, 38, 120
11, 21960, Note_on_c, 9, 42, 127
11, 21985, Note_on_c, 9, 42, 0
11, 21985, Note_on_c, 9, 38, 0
11, 21990, Note_on_c, 9, 42, 90
11, 22015, Note_on_c, 9, 42, 0
11, 22020, Note_on_c, 9, 42, 127
11, 22045, Note_on_c, 9, 42, 0
11, 22050, Note_on_c, 9, 42, 90
11, 22075, Note_on_c, 9, 42, 0
11, 22080, Note_on_c, 9, 35, 127
11, 22080, Note_on_c, 9, 42, 127
11, 22105, Note_on_c, 9, 42, 0
11, 22105, Note_on_c, 9, 35, 0
11, 22110, Note_on_c, 9, 42, 90
11, 22135, Note_on_c, 9, 42, 0
11, 22140, Note_on_c, 9, 42, 127
11, 22165, Note_on_c, 9, 42, 0
11, 22170, Note_on_c, 9, 42, 100
11, 22195, Note_on_c, 9, 42, 0
11, 22200, Note_on_c, 9, 38, 120
11, 22200, Note_on_c, 9, 42, 127
11, 22225, Note_on_c, 9, 42, 0
11, 22225, Note_on_c, 9, 38, 0
11, 22230, Note_on_c, 9, 42, 100
11, 22255, Note_on_c, 9, 42, 0
11, 22260, Note_on_c, 9, 35, 127
11, 22260, Note_on_c, 9, 42, 127
11, 22285, Note_on_c, 9, 42, 0
11, 22285, Note_on_c, 9, 35, 0
11, 22290, Note_on_c, 9, 42, 90
11, 22315, Note_on_c, 9, 42, 0
11, 22320, Note_on_c, 9, 42, 127
11, 22345, Note_on_c, 9, 42, 0
11, 22350, Note_on_c, 9, 42, 90
11, 22375, Note_on_c, 9, 42, 0
11, 22380, Note_on_c, 9, 42, 127
11, 22405, Note_on_c, 9, 42, 0
11, 22410, Note_on_c, 9, 42, 90
11, 22435, Note_on_c, 9, 42, 0
11, 22440, Note_on_c, 9, 38, 120
11, 22440, Note_on_c, 9, 42, 127
11, 22465, Note_on_c, 9, 42, 0
11, 22465, Note_on_c, 9, 38, 0
11, 22470, Note_on_c, 9, 42, 90
11, 22495, Note_on_c, 9, 42, 0
11, 22500, Note_on_c, 9, 42, 127
11, 22525, Note_on_c, 9, 42, 0
11, 22530, Note_on_c, 9, 42, 100
11, 22555, Note_on_c, 9, 42, 0
11, 22560, Note_on_c, 9, 35, 127
11, 22560, Note_on_c, 9, 42, 127
11, 22585, Note_on_c, 9, 42, 0
11, 22585, Note_on_c, 9, 35, 0
11, 22590, Note_on_c, 9, 42, 90
11, 22615, Note_on_c, 9, 42, 0
11, 22620, Note_on_c, 9, 42, 127
11, 22645, Note_on_c, 9, 42, 0
11, 22650, Note_on_c, 9, 42, 90
11, 22675, Note_on_c, 9, 42, 0
11, 22680, Note_on_c, 9, 38, 120
11, 22680, Note_on_c, 9, 42, 127
11, 22705, Note_on_c, 9, 42, 0
11, 22705, Note_on_c, 9, 38, 0
11, 22710, Note_on_c, 9, 42, 90
11, 22735, Note_on_c, 9, 42, 0
11, 22740, Note_on_c, 9, 35, 127
11, 22740, Note_on_c, 9, 42, 127
11, 22765, Note_on_c, 9, 42, 0
11, 22765, Note_on_c, 9, 35, 0
11, 22770, Note_on_c, 9, 42, 90
11, 22795, Note_on_c, 9, 42, 0
11, 22800, Note_on_c, 9, 42, 127
11, 22825, Note_on_c, 9, 42, 0
11, 22830, Note_on_c, 9, 42, 90
11, 22855, Note_on_c, 9, 42, 0
11, 22860, Note_on_c, 9, 42, 127
11, 22885, Note_on_c, 9, 42, 0
11, 22890, Note_on_c, 9, 42, 90
11, 22915, Note_on_c, 9, 42, 0
11, 22920, Note_on_c, 9, 38, 120
11, 22920, Note_on_c, 9, 42, 127
11, 22945, Note_on_c, 9, 42, 0
11, 22945, Note_on_c, 9, 38, 0
11, 22950, Note_on_c, 9, 42, 90
11, 22975, Note_on_c, 9, 42, 0
11, 22980, Note_on_c, 9, 42, 127
11, 23005, Note_on_c, 9, 42, 0
11, 23010, Note_on_c, 9, 42, 90
11, 23035, Note_on_c, 9, 42, 0
11, 23040, Note_on_c, 9, 35, 127
11, 23040, Note_on_c, 9, 42, 127
11, 23065, Note_on_c, 9, 42, 0
11, 23065, Note_on_c, 9, 35, 0
11, 23070, Note_on_c, 9, 42, 90
11, 23095, Note_on_c, 9, 42, 0
11, 23100, Note_on_c, 9, 42, 127
11, 23125, Note_on_c, 9, 42, 0
11, 23130, Note_on_c, 9, 42, 100
11, 23155, Note_on_c, 9, 42, 0
11, 23160, Note_on_c, 9, 38, 120
11, 23160, Note_on_c, 9, 42, 127
11, 23185, Note_on_c, 9, 42, 0
11, 23185, Note_on_c, 9, 38, 0
11, 23190, Note_on_c, 9, 42, 100
11, 23215, Note_on_c, 9, 42, 0
11, 23220, Note_on_c, 9, 35, 127
11, 23220, Note_on_c, 9, 42, 127
11, 23245, Note_on_c, 9, 42, 0
11, 23245, Note_on_c, 9, 35, 0
11, 23250, Note_on_c, 9, 42, 90
11, 23275, Note_on_c, 9, 42, 0
11, 23280, Note_on_c, 9, 42, 127
11, 23305, Note_on_c, 9, 42, 0
11, 23310, Note_on_c, 9, 42, 90
11, 23335, Note_on_c, 9, 42, 0
11, 23340, Note_on_c, 9, 42, 127
11, 23365, Note_on_c, 9, 42, 0
11, 23370, Note_on_c, 9, 42, 90
11, 23395, Note_on_c, 9, 42, 0
11, 23400, Note_on_c, 9, 38, 120
11, 23400, Note_on_c, 9, 42, 127
11, 23425, Note_on_c, 9, 42, 0
11, 23425, Note_on_c, 9, 38, 0
11, 23430, Note_on_c, 9, 42, 90
11, 23455, Note_on_c, 9, 42, 0
11, 23460, Note_on_c, 9, 42, 127
11, 23485, Note_on_c, 9, 42, 0
11, 23490, Note_on_c, 9, 42, 100
11, 23515, Note_on_c, 9, 42, 0
11, 23520, Note_on_c, 9, 35, 127
11, 23520, Note_on_c, 9, 42, 127
11, 23545, Note_on_c, 9, 42, 0
11, 23545, Note_on_c, 9, 35, 0
11, 23550, Note_on_c, 9, 42, 90
11, 23575, Note_on_c, 9, 42, 0
11, 23580, Note_on_c, 9, 42, 127
11, 23605, Note_on_c, 9, 42, 0
11, 23610, Note_on_c, 9, 42, 90
11, 23635, Note_on_c, 9, 42, 0
11, 23640, Note_on_c, 9, 38, 120
11, 23640, Note_on_c, 9, 42, 127
11, 23665, Note_on_c, 9, 42, 0
11, 23665, Note_on_c, 9, 38, 0
11, 23670, Note_on_c, 9, 42, 90
11, 23695, Note_on_c, 9, 42, 0
11, 23700, Note_on_c, 9, 35, 127
11, 23700, Note_on_c, 9, 42, 127
11, 23725, Note_on_c, 9, 42, 0
11, 23725, Note_on_c, 9, 35, 0
11, 23730, Note_on_c, 9, 42, 90
11, 23755, Note_on_c, 9, 42, 0
11, 23760, Note_on_c, 9, 42, 127
11, 23785, Note_on_c, 9, 42, 0
11, 23790, Note_on_c, 9, 42, 90
11, 23815, Note_on_c, 9, 42, 0
11, 23820, Note_on_c, 9, 42, 127
11, 23845, Note_on_c, 9, 42, 0
11, 23850, Note_on_c, 9, 42, 90
11, 23875, Note_on_c, 9, 42, 0
11, 23880, Note_on_c, 9, 38, 120
11, 23880, Note_on_c, 9, 42, 127
11, 23905, Note_on_c, 9, 42, 0
11, 23905, Note_on_c, 9, 38, 0
11, 23910, Note_on_c, 9, 42, 90
11, 23935, Note_on_c, 9, 42, 0
11, 23940, Note_on_c, 9, 42, 127
11, 23965, Note_on_c, 9, 42, 0
11, 23970, Note_on_c, 9, 42, 90
11, 23995, Note_on_c, 9, 42, 0
11, 24000, Note_on_c, 9, 35, 127
11, 24000, Note_on_c, 9, 42, 127
11, 24025, Note_on_c, 9, 42, 0
11, 24025, Note_on_c, 9, 35, 0
11, 24030, Note_on_c, 9, 42, 90
11, 24055, Note_on_c, 9, 42, 0
11, 24060, Note_on_c, 9, 42, 127
11, 24085, Note_on_c, 9, 42, 0
11, 24090, Note_on_c, 9, 42, 100
11, 24115, Note_on_c, 9, 42, 0
11, 24120, Note_on_c, 9, 38, 120
11, 24120, Note_on_c, 9, 42, 127
11, 24145, Note_on_c, 9, 42, 0
11, 24145, Note_on_c, 9, 38, 0
11, 24150, Note_on_c, 9, 42, 100
11, 24175, Note_on_c, 9, 42, 0
11, 24180, Note_on_c, 9, 35, 127
11, 24180, Note_on_c, 9, 42, 127
11, 24205, Note_on_c, 9, 42, 0
11, 24205, Note_on_c, 9, 35, 0
11, 24210, Note_on_c, 9, 42, 90
11, 24235, Note_on_c, 9, 42, 0
11, 24240, Note_on_c, 9, 42, 127
11, 24265, Note_on_c, 9, 42, 0
11, 24270, Note_on_c, 9, 42, 90
11, 24295, Note_on_c, 9, 42, 0
11, 24300, Note_on_c, 9, 42, 127
11, 24325, Note_on_c, 9, 42, 0
11, 24330, Note_on_c, 9, 42, 90
11, 24355, Note_on_c, 9, 42, 0
11, 24360, Note_on_c, 9, 38, 120
11, 24360, Note_on_c, 9, 42, 127
11, 24385, Note_on_c, 9, 42, 0
11, 24385, Note_on_c, 9, 38, 0
11, 24390, Note_on_c, 9, 42, 90
11, 24415, Note_on_c, 9, 42, 0
11, 24420, Note_on_c, 9, 42, 127
11, 24445, Note_on_c, 9, 42, 0
11, 24450, Note_on_c, 9, 42, 100
11, 24475, Note_on_c, 9, 42, 0
11, 24480, Note_on_c, 9, 35, 127
11, 24480, Note_on_c, 9, 42, 127
11, 24505, Note_on_c, 9, 42, 0
11, 24505, Note_on_c, 9, 35, 0
11, 24510, Note_on_c, 9, 42, 90
11, 24535, Note_on_c, 9, 42, 0
11, 24540, Note_on_c, 9, 42, 127
11, 24565, Note_on_c, 9, 42, 0
11, 24570, Note_on_c, 9, 42, 90
11, 24595, Note_on_c, 9, 42, 0
11, 24600, Note_on_c, 9, 38, 120
11, 24600, Note_on_c, 9, 42, 127
11, 24625, Note_on_c, 9, 42, 0
11, 24625, Note_on_c, 9, 38, 0
11, 24630, Note_on_c, 9, 42, 90
11, 24655, Note_on_c, 9, 42, 0
11, 24660, Note_on_c, 9, 35, 127
11, 24660, Note_on_c, 9, 42, 127
11, 24685, Note_on_c, 9, 42, 0
11, 24685, Note_on_c, 9, 35, 0
11, 24690, Note_on_c, 9, 42, 90
11, 24715, Note_on_c, 9, 42, 0
11, 24720, Note_on_c, 9, 42, 127
11, 24745, Note_on_c, 9, 42, 0
11, 24750, Note_on_c, 9, 42, 90
11, 24775, Note_on_c, 9, 42, 0
11, 24780, Note_on_c, 9, 42, 127
11, 24805, Note_on_c, 9, 42, 0
11, 24810, Note_on_c, 9, 42, 90
11, 24835, Note_on_c, 9, 42, 0
11, 24840, Note_on_c, 9, 38, 120
11, 24840, Note_on_c, 9, 42, 127
11, 24865, Note_on_c, 9, 42, 0
11, 24865, Note_on_c, 9, 38, 0
11, 24870, Note_on_c, 9, 42, 90
11, 24895, Note_on_c, 9, 42, 0
11, 24900, Note_on_c, 9, 42, 127
11, 24925, Note_on_c, 9, 42, 0
11, 24930, Note_on_c, 9, 42, 90
11, 24955, Note_on_c, 9, 42, 0
11, 24960, Note_on_c, 9, 35, 127
11, 24960, Note_on_c, 9, 42, 127
11, 24985, Note_on_c, 9, 42, 0
11, 24985, Note_on_c, 9, 35, 0
11, 24990, Note_on_c, 9, 42, 90
11, 25015, Note_on_c, 9, 42, 0
11, 25020, Note_on_c, 9, 42, 127
11, 25045, Note_on_c, 9, 42, 0
11, 25050, Note_on_c, 9, 42, 100
11, 25075, Note_on_c, 9, 42, 0
11, 25080, Note_on_c, 9, 38, 120
11, 25080, Note_on_c, 9, 42, 127
11, 25105, Note_on_c, 9, 42, 0
11, 25105, Note_on_c, 9, 38, 0
11, 25110, Note_on_c, 9, 42, 100
11, 25135, Note_on_c, 9, 42, 0
11, 25140, Note_on_c, 9, 35, 127
11, 25140, Note_on_c, 9, 42, 127
11, 25165, Note_on_c, 9, 42, 0
11, 25165, Note_on_c, 9, 35, 0
11, 25170, Note_on_c, 9, 42, 90
11, 25195, Note_on_c, 9, 42, 0
11, 25200, Note_on_c, 9, 42, 127
11, 25225, Note_on_c, 9, 42, 0
11, 25230, Note_on_c, 9, 42, 90
11, 25255, Note_on_c, 9, 42, 0
11, 25260, Note_on_c, 9, 42, 127
11, 25285, Note_on_c, 9, 42, 0
11, 25290, Note_on_c, 9, 42, 90
11, 25315, Note_on_c, 9, 42, 0
11, 25320, Note_on_c, 9, 38, 120
11, 25320, Note_on_c, 9, 42, 127
11, 25345, Note_on_c, 9, 42, 0
11, 25345, Note_on_c, 9, 38, 0
11, 25350, Note_on_c, 9, 42, 90
11, 25375, Note_on_c, 9, 42, 0
11, 25380, Note_on_c, 9, 42, 127
11, 25405, Note_on_c, 9, 42, 0
11, 25410, Note_on_c, 9, 42, 100
11, 25435, Note_on_c, 9, 42, 0
11, 25440, Note_on_c, 9, 35, 127
11, 25440, Note_on_c, 9, 42, 127
11, 25465, Note_on_c, 9, 42, 0
11, 25465, Note_on_c, 9, 35, 0
11, 25470, Note_on_c, 9, 42, 90
11, 25495, Note_on_c, 9, 42, 0
11, 25500, Note_on_c, 9, 42, 127
11, 25525, Note_on_c, 9, 42, 0
11, 25530, Note_on_c, 9, 42, 90
11, 25555, Note_on_c, 9, 42, 0
11, 25560, Note_on_c, 9, 38, 120
11, 25560, Note_on_c, 9, 42, 127
11, 25585, Note_on_c, 9, 42, 0
11, 25585, Note_on_c, 9, 38, 0
11, 25590, Note_on_c, 9, 42, 90
11, 25615, Note_on_c, 9, 42, 0
11, 25620, Note_on_c, 9, 35, 127
11, 25620, Note_on_c, 9, 42, 127
11, 25645, Note_on_c, 9, 42, 0
11, 25645, Note_on_c, 9, 35, 0
11, 25650, Note_on_c, 9, 42, 90
11, 25675, Note_on_c, 9, 42, 0
11, 25680, Note_on_c, 9, 42, 127
11, 25705, Note_on_c, 9, 42, 0
11, 25710, Note_on_c, 9, 42, 90
11, 25735, Note_on_c, 9, 42, 0
11, 25740, Note_on_c, 9, 42, 127
11, 25765, Note_on_c, 9, 42, 0
11, 25770, Note_on_c, 9, 42, 90
11, 25795, Note_on_c, 9, 42, 0
11, 25800, Note_on_c, 9, 38, 120
11, 25800, Note_on_c, 9, 42, 127
11, 25825, Note_on_c, 9, 42, 0
11, 25825, Note_on_c, 9, 38, 0
11, 25830, Note_on_c, 9, 42, 90
11, 25855, Note_on_c, 9, 42, 0
11, 25860, Note_on_c, 9, 42, 127
11, 25885, Note_on_c, 9, 42, 0
11, 25890, Note_on_c, 9, 42, 90
11, 25915, Note_on_c, 9, 42, 0
11, 25920, Note_on_c, 9, 35, 127
11, 25920, Note_on_c, 9, 42, 127
11, 25945, Note_on_c, 9, 42, 0
11, 25945, Note_on_c, 9, 35, 0
11, 25950, Note_on_c, 9, 42, 90
11, 25975, Note_on_c, 9, 42, 0
11, 25980, Note_on_c, 9, 42, 127
11, 26005, Note_on_c, 9, 42, 0
11, 26010, Note_on_c, 9, 42, 100
11, 26035, Note_on_c, 9, 42, 0
11, 26040, Note_on_c, 9, 38, 120
11, 26040, Note_on_c, 9, 42, 127
11, 26065, Note_on_c, 9, 42, 0
11, 26065, Note_on_c, 9, 38, 0
11, 26070, Note_on_c, 9, 42, 100
11, 26095, Note_on_c, 9, 42, 0
11, 26100, Note_on_c, 9, 35, 127
11, 26100, Note_on_c, 9, 42, 127
11, 26125, Note_on_c, 9, 42, 0
11, 26125, Note_on_c, 9, 35, 0
11, 26130, Note_on_c, 9, 42, 90
11, 26155, Note_on_c, 9, 42, 0
11, 26160, Note_on_c, 9, 42, 127
11, 26185, Note_on_c, 9, 42, 0
11, 26190, Note_on_c, 9, 42, 90
11, 26215, Note_on_c, 9, 42, 0
11, 26220, Note_on_c, 9, 42, 127
11, 26245, Note_on_c, 9, 42, 0
11, 26250, Note_on_c, 9, 42, 90
11, 26275, Note_on_c, 9, 42, 0
11, 26280, Note_on_c, 9, 38, 120
11, 26280, Note_on_c, 9, 42, 127
11, 26305, Note_on_c, 9, 42, 0
11, 26305, Note_on_c, 9, 38, 0
11, 26310, Note_on_c, 9, 42, 90
11, 26335, Note_on_c, 9, 42, 0
11, 26340, Note_on_c, 9, 42, 127
11, 26365, Note_on_c, 9, 42, 0
11, 26370, Note_on_c, 9, 42, 100
11, 26395, Note_on_c, 9, 42, 0
11, 26400, Note_on_c, 9, 35, 127
11, 26400, Note_on_c, 9, 42, 127
11, 26425, Note_on_c, 9, 42, 0
11, 26425, Note_on_c, 9, 35, 0
11, 26430, Note_on_c, 9, 42, 90
11, 26455, Note_on_c, 9, 42, 0
11, 26460, Note_on_c, 9, 42, 127
11, 26485, Note_on_c, 9, 42, 0
11, 26490, Note_on_c, 9, 42, 90
11, 26515, Note_on_c, 9, 42, 0
11, 26520, Note_on_c, 9, 38, 120
11, 26520, Note_on_c, 9, 42, 127
11, 26545, Note_on_c, 9, 42, 0
11, 26545, Note_on_c, 9, 38, 0
11, 26550, Note_on_c, 9, 42, 90
11, 26575, Note_on_c, 9, 42, 0
11, 26580, Note_on_c, 9, 35, 127
11, 26580, Note_on_c, 9, 42, 127
11, 26605, Note_on_c, 9, 42, 0
11, 26605, Note_on_c, 9, 35, 0
11, 26610, Note_on_c, 9, 42, 90
11, 26635, Note_on_c, 9, 42, 0
11, 26640, Note_on_c, 9, 42, 127
11, 26665, Note_on_c, 9, 42, 0
11, 26670, Note_on_c, 9, 42, 90
11, 26695, Note_on_c, 9, 42, 0
11, 26700, Note_on_c, 9, 42, 127
11, 26725, Note_on_c, 9, 42, 0
11, 26730, Note_on_c, 9, 42, 90
11, 26755, Note_on_c, 9, 42, 0
11, 26760, Note_on_c, 9, 38, 120
11, 26760, Note_on_c, 9, 42, 127
11, 26785, Note_on_c, 9, 42, 0
11, 26785, Note_on_c, 9, 38, 0
11, 26790, Note_on_c, 9, 42, 90
11, 26815, Note_on_c, 9, 42, 0
11, 26820, Note_on_c, 9, 42, 127
11, 26845, Note_on_c, 9, 42, 0
11, 26850, Note_on_c, 9, 42, 90
11, 26875, Note_on_c, 9, 42, 0
11, 26880, Note_on_c, 9, 35, 127
11, 26880, Note_on_c, 9, 42, 127
11, 26905, Note_on_c, 9, 42, 0
11, 26905, Note_on_c, 9, 35, 0
11, 26910, Note_on_c, 9, 42, 90
11, 26935, Note_on_c, 9, 42, 0
11, 26940, Note_on_c, 9, 42, 127
11, 26965, Note_on_c, 9, 42, 0
11, 26970, Note_on_c, 9, 42, 100
11, 26995, Note_on_c, 9, 42, 0
11, 27000, Note_on_c, 9, 38, 120
11, 27000, Note_on_c, 9, 42, 127
11, 27025, Note_on_c, 9, 42, 0
11, 27025, Note_on_c, 9, 38, 0
11, 27030, Note_on_c, 9, 42, 100
11, 27055, Note_on_c, 9, 42, 0
11, 27060, Note_on_c, 9, 35, 127
11, 27060, Note_on_c, 9, 42, 127
11, 27085, Note_on_c, 9, 42, 0
11, 27085, Note_on_c, 9, 35, 0
11, 27090, Note_on_c, 9, 42, 90
11, 27115, Note_on_c, 9, 42, 0
11, 27120, Note_on_c, 9, 42, 127
11, 27145, Note_on_c, 9, 42, 0
11, 27150, Note_on_c, 9, 42, 90
11, 27175, Note_on_c, 9, 42, 0
11, 27180, Note_on_c, 9, 42, 127
11, 27205, Note_on_c, 9, 42, 0
11, 27210, Note_on_c, 9, 42, 90
11, 27235, Note_on_c, 9, 42, 0
11, 27240, Note_on_c, 9, 38, 120
11, 27240, Note_on_c, 9, 42, 127
11, 27265, Note_on_c, 9, 42, 0
11, 27265, Note_on_c, 9, 38, 0
11, 27270, Note_on_c, 9, 42, 90
11, 27295, Note_on_c, 9, 42, 0
11, 27300, Note_on_c, 9, 42, 127
11, 27325, Note_on_c, 9, 42, 0
11, 27330, Note_on_c, 9, 42, 100
11, 27355, Note_on_c, 9, 42, 0
11, 27360, Note_on_c, 9, 35, 127
11, 27360, Note_on_c, 9, 42, 127
11, 27385, Note_on_c, 9, 42, 0
11, 27385, Note_on_c, 9, 35, 0
11, 27390, Note_on_c, 9, 42, 90
11, 27415, Note_on_c, 9, 42, 0
11, 27420, Note_on_c, 9, 42, 127
11, 27445, Note_on_c, 9, 42, 0
11, 27450, Note_on_c, 9, 42, 90
11, 27475, Note_on_c, 9, 42, 0
11, 27480, Note_on_c, 9, 38, 120
11, 27480, Note_on_c, 9, 42, 127
11, 27505, Note_on_c, 9, 42, 0
11, 27505, Note_on_c, 9, 38, 0
11, 27510, Note_on_c, 9, 42, 90
11, 27535, Note_on_c, 9, 42, 0
11, 27540, Note_on_c, 9, 35, 127
11, 27540, Note_on_c, 9, 42, 127
11, 27565, Note_on_c, 9, 42, 0
11, 27565, Note_on_c, 9, 35, 0
11, 27570, Note_on_c, 9, 42, 90
11, 27595, Note_on_c, 9, 42, 0
11, 27600, Note_on_c, 9, 42, 127
11, 27625, Note_on_c, 9, 42, 0
11, 27630, Note_on_c, 9, 42, 90
11, 27655, Note_on_c, 9, 42, 0
11, 27660, Note_on_c, 9, 42, 127
11, 27685, Note_on_c, 9, 42, 0
11, 27690, Note_on_c, 9, 42, 90
11, 27715, Note_on_c, 9, 42, 0
11, 27720, Note_on_c, 9, 38, 120
11, 27720, Note_on_c, 9, 42, 127
11, 27745, Note_on_c, 9, 42, 0
11, 27745, Note_on_c, 9, 38, 0
11, 27750, Note_on_c, 9, 42, 90
11, 27775, Note_on_c, 9, 42, 0
11, 27780, Note_on_c, 9, 42, 127
11, 27805, Note_on_c, 9, 42, 0
11, 27810, Note_on_c, 9, 42, 90
11, 27835, Note_on_c, 9, 42, 0
11, 27840, Note_on_c, 9, 35, 127
11, 27840, Note_on_c, 9, 42, 127
11, 27865, Note_on_c, 9, 42, 0
11, 27865, Note_on_c, 9, 35, 0
11, 27870, Note_on_c, 9, 42, 90
11, 27895, Note_on_c, 9, 42, 0
11, 27900, Note_on_c, 9, 42, 127
11, 27925, Note_on_c, 9, 42, 0
11, 27930, Note_on_c, 9, 42, 100
11, 27955, Note_on_c, 9, 42, 0
11, 27960, Note_on_c, 9, 38, 120
11, 27960, Note_on_c, 9, 42, 127
11, 27985, Note_on_c, 9, 42, 0
11, 27985, Note_on_c, 9, 38, 0
11, 27990, Note_on_c, 9, 42, 100
11, 28015, Note_on_c, 9, 42, 0
11, 28020, Note_on_c, 9, 35, 127
11, 28020, Note_on_c, 9, 42, 127
11, 28045, Note_on_c, 9, 42, 0
11, 28045, Note_on_c, 9, 35, 0
11, 28050, Note_on_c, 9, 42, 90
11, 28075, Note_on_c, 9, 42, 0
11, 28080, Note_on_c, 9, 42, 127
11, 28105, Note_on_c, 9, 42, 0
11, 28110, Note_on_c, 9, 42, 90
11, 28135, Note_on_c, 9, 42, 0
11, 28140, Note_on_c, 9, 42, 127
11, 28165, Note_on_c, 9, 42, 0
11, 28170, Note_on_c, 9, 42, 90
11, 28195, Note_on_c, 9, 42, 0
11, 28200, Note_on_c, 9, 38, 120
11, 28200, Note_on_c, 9, 42, 127
11, 28225, Note_on_c, 9, 42, 0
11, 28225, Note_on_c, 9, 38, 0
11, 28230, Note_on_c, 9, 42, 90
11, 28255, Note_on_c, 9, 42, 0
11, 28260, Note_on_c, 9, 42, 127
11, 28285, Note_on_c, 9, 42, 0
11, 28290, Note_on_c, 9, 42, 100
11, 28315, Note_on_c, 9, 42, 0
11, 28320, Note_on_c, 9, 35, 127
11, 28320, Note_on_c, 9, 42, 127
11, 28345, Note_on_c, 9, 42, 0
11, 28345, Note_on_c, 9, 35, 0
11, 28350, Note_on_c, 9, 42, 90
11, 28375, Note_on_c, 9, 42, 0
11, 28380, Note_on_c, 9, 42, 127
11, 28405, Note_on_c, 9, 42, 0
11, 28410, Note_on_c, 9, 42, 90
11, 28435, Note_on_c, 9, 42, 0
11, 28440, Note_on_c, 9, 38, 120
11, 28440, Note_on_c, 9, 42, 127
11, 28465, Note_on_c, 9, 42, 0
11, 28465, Note_on_c, 9, 38, 0
11, 28470, Note_on_c, 9, 42, 90
11, 28495, Note_on_c, 9, 42, 0
11, 28500, Note_on_c, 9, 35, 127
11, 28500, Note_on_c, 9, 42, 127
11, 28525, Note_on_c, 9, 42, 0
11, 28525, Note_on_c, 9, 35, 0
11, 28530, Note_on_c, 9, 42, 90
11, 28555, Note_on_c, 9, 42, 0
11, 28560, Note_on_c, 9, 42, 127
11, 28585, Note_on_c, 9, 42, 0
11, 28590, Note_on_c, 9, 42, 90
11, 28615, Note_on_c, 9, 42, 0
11, 28620, Note_on_c, 9, 42, 127
11, 28645, Note_on_c, 9, 42, 0
11, 28650, Note_on_c, 9, 42, 90
11, 28675, Note_on_c, 9, 42, 0
11, 28680, Note_on_c, 9, 38, 120
11, 28680, Note_on_c, 9, 42, 127
11, 28705, Note_on_c, 9, 42, 0
11, 28705, Note_on_c, 9, 38, 0
11, 28710, Note_on_c, 9, 42, 90
11, 28735, Note_on_c, 9, 42, 0
11, 28740, Note_on_c, 9, 42, 127
11, 28765, Note_on_c, 9, 42, 0
11, 28770, Note_on_c, 9, 42, 90
11, 28795, Note_on_c, 9, 42, 0
11, 28800, Note_on_c, 9, 35, 127
11, 28800, Note_on_c, 9, 42, 127
11, 28825, Note_on_c, 9, 42, 0
11, 28825, Note_on_c, 9, 35, 0
11, 28830, Note_on_c, 9, 42, 90
11, 28855, Note_on_c, 9, 42, 0
11, 28860, Note_on_c, 9, 42, 127
11, 28885, Note_on_c, 9, 42, 0
11, 28890, Note_on_c, 9, 42, 100
11, 28915, Note_on_c, 9, 42, 0
11, 28920, Note_on_c, 9, 38, 120
11, 28920, Note_on_c, 9, 42, 127
11, 28945, Note_on_c, 9, 42, 0
11, 28945, Note_on_c, 9, 38, 0
11, 28950, Note_on_c, 9, 42, 100
11, 28975, Note_on_c, 9, 42, 0
11, 28980, Note_on_c, 9, 35, 127
11, 28980, Note_on_c, 9, 42, 127
11, 29005, Note_on_c, 9, 42, 0
11, 29005, Note_on_c, 9, 35, 0
11, 29010, Note_on_c, 9, 42, 90
11, 29035, Note_on_c, 9, 42, 0
11, 29040, Note_on_c, 9, 42, 127
11, 29065, Note_on_c, 9, 42, 0
11, 29070, Note_on_c, 9, 42, 90
11, 29095, Note_on_c, 9, 42, 0
11, 29100, Note_on_c, 9, 42, 127
11, 29125, Note_on_c, 9, 42, 0
11, 29130, Note_on_c, 9, 42, 90
11, 29155, Note_on_c, 9, 42, 0
11, 29160, Note_on_c, 9, 38, 120
11, 29160, Note_on_c, 9, 42, 127
11, 29185, Note_on_c, 9, 42, 0
11, 29185, Note_on_c, 9, 38, 0
11, 29190, Note_on_c, 9, 42, 90
11, 29215, Note_on_c, 9, 42, 0
11, 29220, Note_on_c, 9, 42, 127
11, 29245, Note_on_c, 9, 42, 0
11, 29250, Note_on_c, 9, 42, 100
11, 29275, Note_on_c, 9, 42, 0
11, 29280, Note_on_c, 9, 35, 127
11, 29280, Note_on_c, 9, 42, 127
11, 29305, Note_on_c, 9, 42, 0
11, 29305, Note_on_c, 9, 35, 0
11, 29310, Note_on_c, 9, 42, 90
11, 29335, Note_on_c, 9, 42, 0
11, 29340, Note_on_c, 9, 42, 127
11, 29365, Note_on_c, 9, 42, 0
11, 29370, Note_on_c, 9, 42, 90
11, 29395, Note_on_c, 9, 42, 0
11, 29400, Note_on_c, 9, 38, 120
11, 29400, Note_on_c, 9, 42, 127
11, 29425, Note_on_c, 9, 42, 0
11, 29425, Note_on_c, 9, 38, 0
11, 29430, Note_on_c, 9, 42, 90
11, 29455, Note_on_c, 9, 42, 0
11, 29460, Note_on_c, 9, 35, 127
11, 29460, Note_on_c, 9, 42, 127
11, 29485, Note_on_c, 9, 42, 0
11, 29485, Note_on_c, 9, 35, 0
11, 29490, Note_on_c, 9, 42, 90
11, 29515, Note_on_c, 9, 42, 0
11, 29520, Note_on_c, 9, 42, 127
11, 29545, Note_on_c, 9, 42, 0
11, 29550, Note_on_c, 9, 42, 90
11, 29575, Note_on_c, 9, 42, 0
11, 29580, Note_on_c, 9, 42, 127
11, 29605, Note_on_c, 9, 42, 0
11, 29610, Note_on_c, 9, 42, 90
11, 29635, Note_on_c, 9, 42, 0
11, 29640, Note_on_c, 9, 38, 120
11, 29640, Note_on_c, 9, 42, 127
11, 29665, Note_on_c, 9, 42, 0
11, 29665, Note_on_c, 9, 38, 0
11, 29670, Note_on_c, 9, 42, 90
11, 29695, Note_on_c, 9, 42, 0
11, 29700, Note_on_c, 9, 42, 127
11, 29725, Note_on_c, 9, 42, 0
11, 29730, Note_on_c, 9, 42, 90
11, 29755, Note_on_c, 9, 42, 0
11, 29760, Note_on_c, 9, 35, 127
11, 29760, Note_on_c, 9, 42, 127
11, 29785, Note_on_c, 9, 42, 0
11, 29785, Note_on_c, 9, 35, 0
11, 29790, Note_on_c, 9, 42, 90
11, 29815, Note_on_c, 9, 42, 0
11, 29820, Note_on_c, 9, 42, 127
11, 29845, Note_on_c, 9, 42, 0
11, 29850, Note_on_c, 9, 42, 100
11, 29875, Note_on_c, 9, 42, 0
11, 29880, Note_on_c, 9, 38, 120
11, 29880, Note_on_c, 9, 42, 127
11, 29905, Note_on_c, 9, 42, 0
11, 29905, Note_on_c, 9, 38, 0
11, 29910, Note_on_c, 9, 42, 100
11, 29935, Note_on_c, 9, 42, 0
11, 29940, Note_on_c, 9, 35, 127
11, 29940, Note_on_c, 9, 42, 127
11, 29965, Note_on_c, 9, 42, 0
11, 29965, Note_on_c, 9, 35, 0
11, 29970, Note_on_c, 9, 42, 90
11, 29995, Note_on_c, 9, 42, 0
11, 30000, Note_on_c, 9, 42, 127
11, 30025, Note_on_c, 9, 42, 0
11, 30030, Note_on_c, 9, 42, 90
11, 30055, Note_on_c, 9, 42, 0
11, 30060, Note_on_c, 9, 42, 127
11, 30085, Note_on_c, 9, 42, 0
11, 30090, Note_on_c, 9, 42, 90
11, 30115, Note_on_c, 9, 42, 0
11, 30120, Note_on_c, 9, 38, 120
11, 30120, Note_on_c, 9, 42, 127
11, 30145, Note_on_c, 9, 42, 0
11, 30145, Note_on_c, 9, 38, 0
11, 30150, Note_on_c, 9, 42, 90
11, 30175, Note_on_c, 9, 42, 0
11, 30180, Note_on_c, 9, 42, 127
11, 30205, Note_on_c, 9, 42, 0
11, 30210, Note_on_c, 9, 42, 100
11, 30235, Note_on_c, 9, 42, 0
11, 30240, Note_on_c, 9, 35, 127
11, 30240, Note_on_c, 9, 42, 127
11, 30265, Note_on_c, 9, 42, 0
11, 30265, Note_on_c, 9, 35, 0
11, 30270, Note_on_c, 9, 42, 90
11, 30295, Note_on_c, 9, 42, 0
11, 30300, Note_on_c, 9, 42, 127
11, 30325, Note_on_c, 9, 42, 0
11, 30330, Note_on_c, 9, 42, 90
11, 30355, Note_on_c, 9, 42, 0
11, 30360, Note_on_c, 9, 38, 120
11, 30360, Note_on_c, 9, 42, 127
11, 30385, Note_on_c, 9, 42, 0
11, 30385, Note_on_c, 9, 38, 0
11, 30390, Note_on_c, 9, 42, 90
11, 30415, Note_on_c, 9, 42, 0
11, 30420, Note_on_c, 9, 35, 127
11, 30420, Note_on_c, 9, 42, 127
11, 30445, Note_on_c, 9, 42, 0
11, 30445, Note_on_c, 9, 35, 0
11, 30450, Note_on_c, 9, 42, 90
11, 30475, Note_on_c, 9, 42, 0
11, 30480, Note_on_c, 9, 42, 127
11, 30505, Note_on_c, 9, 42, 0
11, 30510, Note_on_c, 9, 42, 90
11, 30535, Note_on_c, 9, 42, 0
11, 30540, Note_on_c, 9, 42, 127
11, 30565, Note_on_c, 9, 42, 0
11, 30570, Note_on_c, 9, 42, 90
11, 30595, Note_on_c, 9, 42, 0
11, 30600, Note_on_c, 9, 38, 120
11, 30600, Note_on_c, 9, 42, 127
11, 30625, Note_on_c, 9, 42, 0
11, 30625, Note_on_c, 9, 38, 0
11, 30630, Note_on_c, 9, 42, 90
11, 30655, Note_on_c, 9, 42, 0
11, 30660, Note_on_c, 9, 42, 127
11, 30685, Note_on_c, 9, 42, 0
11, 30690, Note_on_c, 9, 42, 90
11, 30715, Note_on_c, 9, 42, 0
11, 30720, Note_on_c, 9, 35, 127
11, 30720, Note_on_c, 9, 42, 127
11, 30745, Note_on_c, 9, 42, 0
11, 30745, Note_on_c, 9, 35, 0
11, 30750, Note_on_c, 9, 42, 90
11, 30775, Note_on_c, 9, 42, 0
11, 30780, Note_on_c, 9, 42, 127
11, 30805, Note_on_c, 9, 42, 0
11, 30810, Note_on_c, 9, 42, 100
11, 30835, Note_on_c, 9, 42, 0
11, 30840, Note_on_c, 9, 38, 120
11, 30840, Note_on_c, 9, 42, 127
11, 30865, Note_on_c, 9, 42, 0
11, 30865, Note_on_c, 9, 38, 0
11, 30870, Note_on_c, 9, 42, 100
11, 30895, Note_on_c, 9, 42, 0
11, 30900, Note_on_c, 9, 35, 127
11, 30900, Note_on_c, 9, 42, 127
11, 30925, Note_on_c, 9, 42, 0
11, 30925, Note_on_c, 9, 35, 0
11, 30930, Note_on_c, 9, 42, 90
11, 30955, Note_on_c, 9, 42, 0
11, 30960, Note_on_c, 9, 42, 127
11, 30985, Note_on_c, 9, 42, 0
11, 30990, Note_on_c, 9, 42, 90
11, 31015, Note_on_c, 9, 42, 0
11, 31020, Note_on_c, 9, 42, 127
11, 31045, Note_on_c, 9, 42, 0
11, 31050, Note_on_c, 9, 42, 90
11, 31075, Note_on_c, 9, 42, 0
11, 31080, Note_on_c, 9, 38, 120
11, 31080, Note_on_c, 9, 42, 127
11, 31105, Note_on_c, 9, 42, 0
11, 31105, Note_on_c, 9, 38, 0
11, 31110, Note_on_c, 9, 42, 90
11, 31135, Note_on_c, 9, 42, 0
11, 31140, Note_on_c, 9, 42, 127
11, 31165, Note_on_c, 9, 42, 0
11, 31170, Note_on_c, 9, 42, 100
11, 31195, Note_on_c, 9, 42, 0
11, 31200, Note_on_c, 9, 35, 127
11, 31200, Note_on_c, 9, 42, 127
11, 31225, Note_on_c, 9, 42, 0
11, 31225, Note_on_c, 9, 35, 0
11, 31230, Note_on_c, 9, 42, 90
11, 31255, Note_on_c, 9, 42, 0
11, 31260, Note_on_c, 9, 42, 127
11, 31285, Note_on_c, 9, 42, 0
11, 31290, Note_on_c, 9, 42, 90
11, 31315, Note_on_c, 9, 42, 0
11, 31320, Note_on_c, 9, 38, 120
11, 31320, Note_on_c, 9, 42, 127
11, 31345, Note_on_c, 9, 42, 0
11, 31345, Note_on_c, 9, 38, 0
11, 31350, Note_on_c, 9, 42, 90
11, 31375, Note_on_c, 9, 42, 0
11, 31380, Note_on_c, 9, 35, 127
11, 31380, Note_on_c, 9, 42, 127
11, 31405, Note_on_c, 9, 42, 0
11, 31405, Note_on_c, 9, 35, 0
11, 31410, Note_on_c, 9, 42, 90
11, 31435, Note_on_c, 9, 42, 0
11, 31440, Note_on_c, 9, 42, 127
11, 31465, Note_on_c, 9, 42, 0
11, 31470, Note_on_c, 9, 42, 90
11, 31495, Note_on_c, 9, 42, 0
11, 31500, Note_on_c, 9, 42, 127
11, 31525, Note_on_c, 9, 42, 0
11, 31530, Note_on_c, 9, 42, 90
11, 31555, Note_on_c, 9, 42, 0
11, 31560, Note_on_c, 9, 38, 120
11, 31560, Note_on_c, 9, 42, 127
11, 31585, Note_on_c, 9, 42, 0
11, 31585, Note_on_c, 9, 38, 0
11, 31590, Note_on_c, 9, 42, 90
11, 31615, Note_on_c, 9, 42, 0
11, 31620, Note_on_c, 9, 42, 127
11, 31645, Note_on_c, 9, 42, 0
11, 31650, Note_on_c, 9, 42, 90
11, 31675, Note_on_c, 9, 42, 0
11, 31680, Note_on_c, 9, 35, 127
11, 31680, Note_on_c, 9, 42, 127
11, 31705, Note_on_c, 9, 42, 0
11, 31705, Note_on_c, 9, 35, 0
11, 31710, Note_on_c, 9, 42, 90
11, 31735, Note_on_c, 9, 42, 0
11, 31740, Note_on_c, 9, 42, 127
11, 31765, Note_on_c, 9, 42, 0
11, 31770, Note_on_c, 9, 42, 100
11, 31795, Note_on_c, 9, 42, 0
11, 31800, Note_on_c, 9, 38, 120
11, 31800, Note_on_c, 9, 42, 127
11, 31825, Note_on_c, 9, 42, 0
11, 31825, Note_on_c, 9, 38, 0
11, 31830, Note_on_c, 9, 42, 100
11, 31855, Note_on_c, 9, 42, 0
11, 31860, Note_on_c, 9, 35, 127
11, 31860, Note_on_c, 9, 42, 127
11, 31885, Note_on_c, 9, 42, 0
11, 31885, Note_on_c, 9, 35, 0
11, 31890, Note_on_c, 9, 42, 90
11, 31915, Note_on_c, 9, 42, 0
11, 31920, Note_on_c, 9, 42, 127
11, 31945, Note_on_c, 9, 42, 0
11, 31950, Note_on_c, 9, 42, 90
11, 31975, Note_on_c, 9, 42, 0
11, 31980, Note_on_c, 9, 42, 127
11, 32005, Note_on_c, 9, 42, 0
11, 32010, Note_on_c, 9, 42, 90
11, 32035, Note_on_c, 9, 42, 0
11, 32040, Note_on_c, 9, 38, 120
11, 32040, Note_on_c, 9, 42, 127
11, 32065, Note_on_c, 9, 42, 0
11, 32065, Note_on_c, 9, 38, 0
11, 32070, Note_on_c, 9, 42, 90
11, 32095, Note_on_c, 9, 42, 0
11, 32100, Note_on_c, 9, 42, 127
11, 32125, Note_on_c, 9, 42, 0
11, 32130, Note_on_c, 9, 42, 100
11, 32155, Note_on_c, 9, 42, 0
11, 32160, Note_on_c, 9, 35, 127
11, 32160, Note_on_c, 9, 42, 127
11, 32185, Note_on_c, 9, 42, 0
11, 32185, Note_on_c, 9, 35, 0
11, 32190, Note_on_c, 9, 42, 90
11, 32215, Note_on_c, 9, 42, 0
11, 32220, Note_on_c, 9, 42, 127
11, 32245, Note_on_c, 9, 42, 0
11, 32250, Note_on_c, 9, 42, 90
11, 32275, Note_on_c, 9, 42, 0
11, 32280, Note_on_c, 9, 38, 120
11, 32280, Note_on_c, 9, 42, 127
11, 32305, Note_on_c, 9, 42, 0
11, 32305, Note_on_c, 9, 38, 0
11, 32310, Note_on_c, 9, 42, 90
11, 32335, Note_on_c, 9, 42, 0
11, 32340, Note_on_c, 9, 35, 127
11, 32340, Note_on_c, 9, 42, 127
11, 32365, Note_on_c, 9, 42, 0
11, 32365, Note_on_c, 9, 35, 0
11, 32370, Note_on_c, 9, 42, 90
11, 32395, Note_on_c, 9, 42, 0
11, 32400, Note_on_c, 9, 42, 127
11, 32425, Note_on_c, 9, 42, 0
11, 32430, Note_on_c, 9, 42, 90
11, 32455, Note_on_c, 9, 42, 0
11, 32460, Note_on_c, 9, 42, 127
11, 32485, Note_on_c, 9, 42, 0
11, 32490, Note_on_c, 9, 42, 90
11, 32515, Note_on_c, 9, 42, 0
11, 32520, Note_on_c, 9, 38, 120
11, 32520, Note_on_c, 9, 42, 127
11, 32545, Note_on_c, 9, 42, 0
11, 32545, Note_on_c, 9, 38, 0
11, 32550, Note_on_c, 9, 42, 90
11, 32575, Note_on_c, 9, 42, 0
11, 32580, Note_on_c, 9, 42, 127
11, 32605, Note_on_c, 9, 42, 0
11, 32610, Note_on_c, 9, 42, 90
11, 32635, Note_on_c, 9, 42, 0
11, 32640, Note_on_c, 9, 35, 127
11, 32640, Note_on_c, 9, 42, 127
11, 32665, Note_on_c, 9, 42, 0
11, 32665, Note_on_c, 9, 35, 0
11, 32670, Note_on_c, 9, 42, 90
11, 32695, Note_on_c, 9, 42, 0
11, 32700, Note_on_c, 9, 42, 127
11, 32725, Note_on_c, 9, 42, 0
11, 32730, Note_on_c, 9, 42, 100
11, 32755, Note_on_c, 9, 42, 0
11, 32760, Note_on_c, 9, 38, 120
11, 32760, Note_on_c, 9, 42, 127
11, 32785, Note_on_c, 9, 42, 0
11, 32785, Note_on_c, 9, 38, 0
11, 32790, Note_on_c, 9, 42, 100
11, 32815, Note_on_c, 9, 42, 0
11, 32820, Note_on_c, 9, 35, 127
11, 32820, Note_on_c, 9, 42, 127
11, 32845, Note_on_c, 9, 42, 0
11, 32845, Note_on_c, 9, 35, 0
11, 32850, Note_on_c, 9, 42, 90
11, 32875, Note_on_c, 9, 42, 0
11, 32880, Note_on_c, 9, 42, 127
11, 32905, Note_on_c, 9, 42, 0
11, 32910, Note_on_c, 9, 42, 90
11, 32935, Note_on_c, 9, 42, 0
11, 32940, Note_on_c, 9, 42, 127
11, 32965, Note_on_c, 9, 42, 0
11, 32970, Note_on_c, 9, 42, 90
11, 32995, Note_on_c, 9, 42, 0
11, 33000, Note_on_c, 9, 38, 120
11, 33000, Note_on_c, 9, 42, 127
11, 33025, Note_on_c, 9, 42, 0
11, 33025, Note_on_c, 9, 38, 0
11, 33030, Note_on_c, 9, 42, 90
11, 33055, Note_on_c, 9, 42, 0
11, 33060, Note_on_c, 9, 42, 127
11, 33085, Note_on_c, 9, 42, 0
11, 33090, Note_on_c, 9, 42, 100
11, 33115, Note_on_c, 9, 42, 0
11, 33120, Note_on_c, 9, 35, 127
11, 33120, Note_on_c, 9, 42, 127
11, 33145, Note_on_c, 9, 42, 0
11, 33145, Note_on_c, 9, 35, 0
11, 33150, Note_on_c, 9, 42, 90
11, 33175, Note_on_c, 9, 42, 0
11, 33180, Note_on_c, 9, 42, 127
11, 33205, Note_on_c, 9, 42, 0
11, 33210, Note_on_c, 9, 42, 90
11, 33235, Note_on_c, 9, 42, 0
11, 33240, Note_on_c, 9, 38, 120
11, 33240, Note_on_c, 9, 42, 127
11, 33265, Note_on_c, 9, 42, 0
11, 33265, Note_on_c, 9, 38, 0
11, 33270, Note_on_c, 9, 42, 90
11, 33295, Note_on_c, 9, 42, 0
11, 33300, Note_on_c, 9, 35, 127
11, 33300, Note_on_c, 9, 42, 127
11, 33325, Note_on_c, 9, 42, 0
11, 33325, Note_on_c, 9, 35, 0
11, 33330, Note_on_c, 9, 42, 90
11, 33355, Note_on_c, 9, 42, 0
11, 33360, Note_on_c, 9, 42, 127
11, 33385, Note_on_c, 9, 42, 0
11, 33390, Note_on_c, 9, 42, 90
11, 33415, Note_on_c, 9, 42, 0
11, 33420, Note_on_c, 9, 42, 127
11, 33445, Note_on_c, 9, 42, 0
11, 33450, Note_on_c, 9, 42, 90
11, 33475, Note_on_c, 9, 42, 0
11, 33480, Note_on_c, 9, 38, 120
11, 33480, Note_on_c, 9, 42, 127
11, 33505, Note_on_c, 9, 42, 0
11, 33505, Note_on_c, 9, 38, 0
11, 33510, Note_on_c, 9, 42, 90
11, 33535, Note_on_c, 9, 42, 0
11, 33540, Note_on_c, 9, 42, 127
11, 33565, Note_on_c, 9, 42, 0
11, 33570, Note_on_c, 9, 42, 90
11, 33595, Note_on_c, 9, 42, 0
11, 33600, Note_on_c, 9, 35, 127
11, 33600, Note_on_c, 9, 42, 127
11, 33625, Note_on_c, 9, 42, 0
11, 33625, Note_on_c, 9, 35, 0
11, 33630, Note_on_c, 9, 42, 90
11, 33655, Note_on_c, 9, 42, 0
11, 33660, Note_on_c, 9, 42, 127
11, 33685, Note_on_c, 9, 42, 0
11, 33690, Note_on_c, 9, 42, 100
11, 33715, Note_on_c, 9, 42, 0
11, 33720, Note_on_c, 9, 38, 120
11, 33720, Note_on_c, 9, 42, 127
11, 33745, Note_on_c, 9, 42, 0
11, 33745, Note_on_c, 9, 38, 0
11, 33750, Note_on_c, 9, 42, 100
11, 33775, Note_on_c, 9, 42, 0
11, 33780, Note_on_c, 9, 35, 127
11, 33780, Note_on_c, 9, 42, 127
11, 33805, Note_on_c, 9, 42, 0
11, 33805, Note_on_c, 9, 35, 0
11, 33810, Note_on_c, 9, 42, 90
11, 33835, Note_on_c, 9, 42, 0
11, 33840, Note_on_c, 9, 42, 127
11, 33865, Note_on_c, 9, 42, 0
11, 33870, Note_on_c, 9, 42, 90
11, 33895, Note_on_c, 9, 42, 0
11, 33900, Note_on_c, 9, 42, 127
11, 33925, Note_on_c, 9, 42, 0
11, 33930, Note_on_c, 9, 42, 90
11, 33955, Note_on_c, 9, 42, 0
11, 33960, Note_on_c, 9, 38, 120
11, 33960, Note_on_c, 9, 42, 127
11, 33985, Note_on_c, 9, 42, 0
11, 33985, Note_on_c, 9, 38, 0
11, 33990, Note_on_c, 9, 42, 90
11, 34015, Note_on_c, 9, 42, 0
11, 34020, Note_on_c, 9, 42, 127
11, 34045, Note_on_c, 9, 42, 0
11, 34050, Note_on_c, 9, 42, 100
11, 34075, Note_on_c, 9, 42, 0
11, 34080, Note_on_c, 9, 35, 127
11, 34080, Note_on_c, 9, 42, 127
11, 34105, Note_on_c, 9, 42, 0
11, 34105, Note_on_c, 9, 35, 0
11, 34110, Note_on_c, 9, 42, 90
11, 34135, Note_on_c, 9, 42, 0
11, 34140, Note_on_c, 9, 42, 127
11, 34165, Note_on_c, 9, 42, 0
11, 34170, Note_on_c, 9, 42, 90
11, 34195, Note_on_c, 9, 42, 0
11, 34200, Note_on_c, 9, 38, 120
11, 34200, Note_on_c, 9, 42, 127
11, 34225, Note_on_c, 9, 42, 0
11, 34225, Note_on_c, 9, 38, 0
11, 34230, Note_on_c, 9, 42, 90
11, 34255, Note_on_c, 9, 42, 0
11, 34260, Note_on_c, 9, 35, 127
11, 34260, Note_on_c, 9, 42, 127
11, 34285, Note_on_c, 9, 42, 0
11, 34285, Note_on_c, 9, 35, 0
11, 34290, Note_on_c, 9, 42, 90
11, 34315, Note_on_c, 9, 42, 0
11, 34320, Note_on_c, 9, 42, 127
11, 34345, Note_on_c, 9, 42, 0
11, 34350, Note_on_c, 9, 42, 90
11, 34375, Note_on_c, 9, 42, 0
11, 34380, Note_on_c, 9, 42, 127
11, 34405, Note_on_c, 9, 42, 0
11, 34410, Note_on_c, 9, 42, 90
11, 34435, Note_on_c, 9, 42, 0
11, 34440, Note_on_c, 9, 38, 120
11, 34440, Note_on_c, 9, 42, 127
11, 34465, Note_on_c, 9, 42, 0
11, 34465, Note_on_c, 9, 38, 0
11, 34470, Note_on_c, 9, 42, 90
11, 34495, Note_on_c, 9, 42, 0
11, 34500, Note_on_c, 9, 42, 127
11, 34525, Note_on_c, 9, 42, 0
11, 34530, Note_on_c, 9, 42, 90
11, 34555, Note_on_c, 9, 42, 0
11, 34560, Note_on_c, 9, 35, 127
11, 34560, Note_on_c, 9, 42, 127
11, 34585, Note_on_c, 9, 42, 0
11, 34585, Note_on_c, 9, 35, 0
11, 34590, Note_on_c, 9, 42, 90
11, 34615, Note_on_c, 9, 42, 0
11, 34620, Note_on_c, 9, 42, 127
11, 34645, Note_on_c, 9, 42, 0
11, 34650, Note_on_c, 9, 42, 100
11, 34675, Note_on_c, 9, 42, 0
11, 34680, Note_on_c, 9, 38, 120
11, 34680, Note_on_c, 9, 42, 127
11, 34705, Note_on_c, 9, 42, 0
11, 34705, Note_on_c, 9, 38, 0
11, 34710, Note_on_c, 9, 42, 100
11, 34735, Note_on_c, 9, 42, 0
11, 34740, Note_on_c, 9, 35, 127
11, 34740, Note_on_c, 9, 42, 127
11, 34765, Note_on_c, 9, 42, 0
11, 34765, Note_on_c, 9, 35, 0
11, 34770, Note_on_c, 9, 42, 90
11, 34795, Note_on_c, 9, 42, 0
11, 34800, Note_on_c, 9, 42, 127
11, 34825, Note_on_c, 9, 42, 0
11, 34830, Note_on_c, 9, 42, 90
11, 34855, Note_on_c, 9, 42, 0
11, 34860, Note_on_c, 9, 42, 127
11, 34885, Note_on_c, 9, 42, 0
11, 34890, Note_on_c, 9, 42, 90
11, 34915, Note_on_c, 9, 42, 0
11, 34920, Note_on_c, 9, 38, 120
11, 34920, Note_on_c, 9, 42, 127
11, 34945, Note_on_c, 9, 42, 0
11, 34945, Note_on_c, 9, 38, 0
11, 34950, Note_on_c, 9, 42, 90
11, 34975, Note_on_c, 9, 42, 0
11, 34980, Note_on_c, 9, 42, 127
11, 35005, Note_on_c, 9, 42, 0
11, 35010, Note_on_c, 9, 42, 100
11, 35035, Note_on_c, 9, 42, 0
11, 35040, Note_on_c, 9, 35, 127
11, 35040, Note_on_c, 9, 42, 127
11, 35065, Note_on_c, 9, 42, 0
11, 35065, Note_on_c, 9, 35, 0
11, 35070, Note_on_c, 9, 42, 90
11, 35095, Note_on_c, 9, 42, 0
11, 35100, Note_on_c, 9, 42, 127
11, 35125, Note_on_c, 9, 42, 0
11, 35130, Note_on_c, 9, 42, 90
11, 35155, Note_on_c, 9, 42, 0
11, 35160, Note_on_c, 9, 38, 120
11, 35160, Note_on_c, 9, 42, 127
11, 35185, Note_on_c, 9, 42, 0
11, 35185, Note_on_c, 9, 38, 0
11, 35190, Note_on_c, 9, 42, 90
11, 35215, Note_on_c, 9, 42, 0
11, 35220, Note_on_c, 9, 35, 127
11, 35220, Note_on_c, 9, 42, 127
11, 35245, Note_on_c, 9, 42, 0
11, 35245, Note_on_c, 9, 35, 0
11, 35250, Note_on_c, 9, 42, 90
11, 35275, Note_on_c, 9, 42, 0
11, 35280, Note_on_c, 9, 42, 127
11, 35305, Note_on_c, 9, 42, 0
11, 35310, Note_on_c, 9, 42, 90
11, 35335, Note_on_c, 9, 42, 0
11, 35340, Note_on_c, 9, 42, 127
11, 35365, Note_on_c, 9, 42, 0
11, 35370, Note_on_c, 9, 42, 90
11, 35395, Note_on_c, 9, 42, 0
11, 35400, Note_on_c, 9, 38, 120
11, 35400, Note_on_c, 9, 42, 127
11, 35425, Note_on_c, 9, 42, 0
11, 35425, Note_on_c, 9, 38, 0
11, 35430, Note_on_c, 9, 42, 90
11, 35455, Note_on_c, 9, 42, 0
11, 35460, Note_on_c, 9, 42, 127
11, 35485, Note_on_c, 9, 42, 0
11, 35490, Note_on_c, 9, 42, 90
11, 35515, Note_on_c, 9, 42, 0
11, 35520, Note_on_c, 9, 35, 127
11, 35520, Note_on_c, 9, 42, 127
11, 35545, Note_on_c, 9, 42, 0
11, 35545, Note_on_c, 9, 35, 0
11, 35550, Note_on_c, 9, 42, 90
11, 35575, Note_on_c, 9, 42, 0
11, 35580, Note_on_c, 9, 42, 127
11, 35605, Note_on_c, 9, 42, 0
11, 35610, Note_on_c, 9, 42, 100
11, 35635, Note_on_c, 9, 42, 0
11, 35640, Note_on_c, 9, 38, 120
11, 35640, Note_on_c, 9, 42, 127
11, 35665, Note_on_c, 9, 42, 0
11, 35665, Note_on_c, 9, 38, 0
11, 35670, Note_on_c, 9, 42, 100
11, 35695, Note_on_c, 9, 42, 0
11, 35700, Note_on_c, 9, 35, 127
11, 35700, Note_on_c, 9, 42, 127
11, 35725, Note_on_c, 9, 42, 0
11, 35725, Note_on_c, 9, 35, 0
11, 35730, Note_on_c, 9, 42, 90
11, 35755, Note_on_c, 9, 42, 0
11, 35760, Note_on_c, 9, 42, 127
11, 35785, Note_on_c, 9, 42, 0
11, 35790, Note_on_c, 9, 42, 90
11, 35815, Note_on_c, 9, 42, 0
11, 35820, Note_on_c, 9, 42, 127
11, 35845, Note_on_c, 9, 42, 0
11, 35850, Note_on_c, 9, 42, 90
11, 35875, Note_on_c, 9, 42, 0
11, 35880, Note_on_c, 9, 38, 120
11, 35880, Note_on_c, 9, 42, 127
11, 35905, Note_on_c, 9, 42, 0
11, 35905, Note_on_c, 9, 38, 0
11, 35910, Note_on_c, 9, 42, 90
11, 35935, Note_on_c, 9, 42, 0
11, 35940, Note_on_c, 9, 42, 127
11, 35965, Note_on_c, 9, 42, 0
11, 35970, Note_on_c, 9, 42, 100
11, 35995, Note_on_c, 9, 42, 0
11, 36000, Note_on_c, 9, 35, 127
11, 36000, Note_on_c, 9, 42, 127
11, 36025, Note_on_c, 9, 42, 0
11, 36025, Note_on_c, 9, 35, 0
11, 36030, Note_on_c, 9, 42, 90
11, 36055, Note_on_c, 9, 42, 0
11, 36060, Note_on_c, 9, 42, 127
11, 36085, Note_on_c, 9, 42, 0
11, 36090, Note_on_c, 9, 42, 90
11, 36115, Note_on_c, 9, 42, 0
11, 36120, Note_on_c, 9, 38, 120
11, 36120, Note_on_c, 9, 42, 127
11, 36145, Note_on_c, 9, 42, 0
11, 36145, Note_on_c, 9, 38, 0
11, 36150, Note_on_c, 9, 42, 90
11, 36175, Note_on_c, 9, 42, 0
11, 36180, Note_on_c, 9, 35, 127
11, 36180, Note_on_c, 9, 42, 127
11, 36205, Note_on_c, 9, 42, 0
11, 36205, Note_on_c, 9, 35, 0
11, 36210, Note_on_c, 9, 42, 90
11, 36235, Note_on_c, 9, 42, 0
11, 36240, Note_on_c, 9, 42, 127
11, 36265, Note_on_c, 9, 42, 0
11, 36270, Note_on_c, 9, 42, 90
11, 36295, Note_on_c, 9, 42, 0
11, 36300, Note_on_c, 9, 42, 127
11, 36325, Note_on_c, 9, 42, 0
11, 36330, Note_on_c, 9, 42, 90
11, 36355, Note_on_c, 9, 42, 0
11, 36360, Note_on_c, 9, 38, 120
11, 36360, Note_on_c, 9, 42, 127
11, 36385, Note_on_c, 9, 42, 0
11, 36385, Note_on_c, 9, 38, 0
11, 36390, Note_on_c, 9, 42, 90
11, 36415, Note_on_c, 9, 42, 0
11, 36420, Note_on_c, 9, 42, 127
11, 36445, Note_on_c, 9, 42, 0
11, 36450, Note_on_c, 9, 42, 90
11, 36475, Note_on_c, 9, 42, 0
11, 36480, Note_on_c, 9, 35, 127
11, 36480, Note_on_c, 9, 42, 127
11, 36505, Note_on_c, 9, 42, 0
11, 36505, Note_on_c, 9, 35, 0
11, 36510, Note_on_c, 9, 42, 90
11, 36535, Note_on_c, 9, 42, 0
11, 36540, Note_on_c, 9, 42, 127
11, 36565, Note_on_c, 9, 42, 0
11, 36570, Note_on_c, 9, 42, 100
11, 36595, Note_on_c, 9, 42, 0
11, 36600, Note_on_c, 9, 38, 120
11, 36600, Note_on_c, 9, 42, 127
11, 36625, Note_on_c, 9, 42, 0
11, 36625, Note_on_c, 9, 38, 0
11, 36630, Note_on_c, 9, 42, 100
11, 36655, Note_on_c, 9, 42, 0
11, 36660, Note_on_c, 9, 35, 127
11, 36660, Note_on_c, 9, 42, 127
11, 36685, Note_on_c, 9, 42, 0
11, 36685, Note_on_c, 9, 35, 0
11, 36690, Note_on_c, 9, 42, 90
11, 36715, Note_on_c, 9, 42, 0
11, 36720, Note_on_c, 9, 42, 127
11, 36745, Note_on_c, 9, 42, 0
11, 36750, Note_on_c, 9, 42, 90
11, 36775, Note_on_c, 9, 42, 0
11, 36780, Note_on_c, 9, 42, 127
11, 36805, Note_on_c, 9, 42, 0
11, 36810, Note_on_c, 9, 42, 90
11, 36835, Note_on_c, 9, 42, 0
11, 36840, Note_on_c, 9, 38, 120
11, 36840, Note_on_c, 9, 42, 127
11, 36865, Note_on_c, 9, 42, 0
11, 36865, Note_on_c, 9, 38, 0
11, 36870, Note_on_c, 9, 42, 90
11, 36895, Note_on_c, 9, 42, 0
11, 36900, Note_on_c, 9, 42, 127
11, 36925, Note_on_c, 9, 42, 0
11, 36930, Note_on_c, 9, 42, 100
11, 36955, Note_on_c, 9, 42, 0
11, 36960, Note_on_c, 9, 35, 127
11, 36960, Note_on_c, 9, 42, 127
11, 36985, Note_on_c, 9, 42, 0
11, 36985, Note_on_c, 9, 35, 0
11, 36990, Note_on_c, 9, 42, 90
11, 37015, Note_on_c, 9, 42, 0
11, 37020, Note_on_c, 9, 42, 127
11, 37045, Note_on_c, 9, 42, 0
11, 37050, Note_on_c, 9, 42, 90
11, 37075, Note_on_c, 9, 42, 0
11, 37080, Note_on_c, 9, 38, 120
11, 37080, Note_on_c, 9, 42, 127
11, 37105, Note_on_c, 9, 42, 0
11, 37105, Note_on_c, 9, 38, 0
11, 37110, Note_on_c, 9, 42, 90
11, 37135, Note_on_c, 9, 42, 0
11, 37135, Control_c, 9, 7, 126
11, 37140, Note_on_c, 9, 35, 127
11, 37140, Note_on_c, 9, 42, 127
11, 37165, Note_on_c, 9, 42, 0
11, 37165, Note_on_c, 9, 35, 0
11, 37170, Note_on_c, 9, 42, 90
11, 37195, Note_on_c, 9, 42, 0
11, 37200, Note_on_c, 9, 42, 127
11, 37215, Control_c, 9, 7, 125
11, 37225, Note_on_c, 9, 42, 0
11, 37230, Control_c, 9, 7, 124
11, 37230, Note_on_c, 9, 42, 90
11, 37255, Note_on_c, 9, 42, 0
11, 37255, Control_c, 9, 7, 123
11, 37260, Note_on_c, 9, 42, 127
11, 37275, Control_c, 9, 7, 122
11, 37280, Control_c, 9, 7, 121
11, 37285, Note_on_c, 9, 42, 0
11, 37290, Note_on_c, 9, 42, 90
11, 37300, Control_c, 9, 7, 120
11, 37315, Note_on_c, 9, 42, 0
11, 37320, Control_c, 9, 7, 119
11, 37320, Note_on_c, 9, 38, 120
11, 37320, Note_on_c, 9, 42, 127
11, 37330, Control_c, 9, 7, 118
11, 37345, Note_on_c, 9, 42, 0
11, 37345, Note_on_c, 9, 38, 0
11, 37345, Control_c, 9, 7, 117
11, 37350, Control_c, 9, 7, 116
11, 37350, Note_on_c, 9, 42, 90
11, 37357, Control_c, 9, 7, 115
11, 37375, Note_on_c, 9, 42, 0
11, 37375, Control_c, 9, 7, 114
11, 37380, Note_on_c, 9, 42, 127
11, 37390, Control_c, 9, 7, 113
11, 37405, Note_on_c, 9, 42, 0
11, 37405, Control_c, 9, 7, 112
11, 37410, Note_on_c, 9, 42, 90
11, 37411, Control_c, 9, 7, 111
11, 37428, Control_c, 9, 7, 110
11, 37433, Control_c, 9, 7, 109
11, 37435, Note_on_c, 9, 42, 0
11, 37440, Note_on_c, 9, 35, 127
11, 37440, Note_on_c, 9, 42, 127
11, 37445, Control_c, 9, 7, 108
11, 37465, Note_on_c, 9, 42, 0
11, 37465, Note_on_c, 9, 35, 0
11, 37465, Control_c, 9, 7, 107
11, 37470, Note_on_c, 9, 42, 90
11, 37483, Control_c, 9, 7, 106
11, 37495, Note_on_c, 9, 42, 0
11, 37500, Control_c, 9, 7, 105
11, 37500, Note_on_c, 9, 42, 127
11, 37520, Control_c, 9, 7, 104
11, 37525, Note_on_c, 9, 42, 0
11, 37530, Note_on_c, 9, 42, 100
11, 37535, Control_c, 9, 7, 103
11, 37550, Control_c, 9, 7, 102
11, 37555, Note_on_c, 9, 42, 0
11, 37555, Control_c, 9, 7, 101
11, 37560, Note_on_c, 9, 38, 120
11, 37560, Note_on_c, 9, 42, 127
11, 37565, Control_c, 9, 7, 100
11, 37575, Control_c, 9, 7, 99
11, 37585, Note_on_c, 9, 42, 0
11, 37585, Note_on_c, 9, 38, 0
11, 37590, Control_c, 9, 7, 98
11, 37590, Note_on_c, 9, 42, 100
11, 37595, Control_c, 9, 7, 97
11, 37610, Control_c, 9, 7, 96
11, 37615, Note_on_c, 9, 42, 0
11, 37620, Note_on_c, 9, 35, 127
11, 37620, Note_on_c, 9, 42, 127
11, 37640, Control_c, 9, 7, 94
11, 37640, Control_c, 9, 7, 95
11, 37645, Note_on_c, 9, 42, 0
11, 37645, Note_on_c, 9, 35, 0
11, 37650, Note_on_c, 9, 42, 90
11, 37663, Control_c, 9, 7, 93
11, 37673, Control_c, 9, 7, 92
11, 37675, Note_on_c, 9, 42, 0
11, 37680, Control_c, 9, 7, 91
11, 37680, Note_on_c, 9, 42, 127
11, 37705, Note_on_c, 9, 42, 0
11, 37710, Control_c, 9, 7, 89
11, 37710, Control_c, 9, 7, 90
11, 37710, Note_on_c, 9, 42, 90
11, 37720, Control_c, 9, 7, 87
11, 37720, Control_c, 9, 7, 88
11, 37730, Control_c, 9, 7, 86
11, 37735, Note_on_c, 9, 42, 0
11, 37740, Note_on_c, 9, 42, 127
11, 37750, Control_c, 9, 7, 84
11, 37750, Control_c, 9, 7, 85
11, 37760, Control_c, 9, 7, 83
11, 37765, Note_on_c, 9, 42, 0
11, 37770, Control_c, 9, 7, 82
11, 37770, Note_on_c, 9, 42, 90
11, 37779, Control_c, 9, 7, 80
11, 37779, Control_c, 9, 7, 81
11, 37795, Note_on_c, 9, 42, 0
11, 37800, Control_c, 9, 7, 79
11, 37800, Note_on_c, 9, 38, 120
11, 37800, Note_on_c, 9, 42, 127
11, 37805, Control_c, 9, 7, 78
11, 37810, Control_c, 9, 7, 77
11, 37825, Note_on_c, 9, 42, 0
11, 37825, Note_on_c, 9, 38, 0
11, 37830, Control_c, 9, 7, 76
11, 37830, Note_on_c, 9, 42, 90
11, 37835, Control_c, 9, 7, 75
11, 37850, Control_c, 9, 7, 74
11, 37855, Note_on_c, 9, 42, 0
11, 37860, Control_c, 9, 7, 72
11, 37860, Control_c, 9, 7, 73
11, 37860, Note_on_c, 9, 42, 127
11, 37870, Control_c, 9, 7, 71
11, 37880, Control_c, 9, 7, 70
11, 37885, Note_on_c, 9, 42, 0
11, 37890, Control_c, 9, 7, 69
11, 37890, Note_on_c, 9, 42, 100
11, 37899, Control_c, 9, 7, 67
11, 37899, Control_c, 9, 7, 68
11, 37914, Control_c, 9, 7, 66
11, 37915, Note_on_c, 9, 42, 0
11, 37915, Control_c, 9, 7, 65
11, 37920, Control_c, 9, 7, 64
11, 37920, Note_on_c, 9, 35, 127
11, 37920, Note_on_c, 9, 42, 127
11, 37935, Control_c, 9, 7, 63
11, 37940, Control_c, 9, 7, 62
11, 37945, Note_on_c, 9, 42, 0
11, 37945, Note_on_c, 9, 35, 0
11, 37950, Note_on_c, 9, 42, 90
11, 37955, Control_c, 9, 7, 60
11, 37955, Control_c, 9, 7, 61
11, 37960, Control_c, 9, 7, 59
11, 37965, Control_c, 9, 7, 58
11, 37975, Note_on_c, 9, 42, 0
11, 37975, Control_c, 9, 7, 57
11, 37980, Note_on_c, 9, 42, 127
11, 37985, Control_c, 9, 7, 56
11, 37990, Control_c, 9, 7, 55
11, 38005, Note_on_c, 9, 42, 0
11, 38010, Control_c, 9, 7, 53
11, 38010, Control_c, 9, 7, 54
11, 38010, Note_on_c, 9, 42, 90
11, 38025, Control_c, 9, 7, 52
11, 38030, Control_c, 9, 7, 51
11, 38035, Note_on_c, 9, 42, 0
11, 38035, Control_c, 9, 7, 49
11, 38035, Control_c, 9, 7, 50
11, 38040, Control_c, 9, 7, 48
11, 38040, Note_on_c, 9, 38, 120
11, 38040, Note_on_c, 9, 42, 127
11, 38050, Control_c, 9, 7, 47
11, 38060, Control_c, 9, 7, 46
11, 38065, Note_on_c, 9, 42, 0
11, 38065, Note_on_c, 9, 38, 0
11, 38070, Note_on_c, 9, 42, 90
11, 38075, Control_c, 9, 7, 45
11, 38080, Control_c, 9, 7, 44
11, 38095, Note_on_c, 9, 42, 0
11, 38095, Control_c, 9, 7, 43
11, 38100, Control_c, 9, 7, 41
11, 38100, Note_on_c, 9, 35, 127
11, 38100, Note_on_c, 9, 42, 127
11, 38120, Control_c, 9, 7, 40
11, 38125, Note_on_c, 9, 42, 0
11, 38125, Note_on_c, 9, 35, 0
11, 38125, Control_c, 9, 7, 39
11, 38130, Control_c, 9, 7, 38
11, 38130, Note_on_c, 9, 42, 90
11, 38135, Control_c, 9, 7, 37
11, 38142, Control_c, 9, 7, 36
11, 38155, Note_on_c, 9, 42, 0
11, 38160, Note_on_c, 9, 42, 127
11, 38163, Control_c, 9, 7, 35
11, 38168, Control_c, 9, 7, 34
11, 38173, Control_c, 9, 7, 33
11, 38178, Control_c, 9, 7, 32
11, 38183, Control_c, 9, 7, 31
11, 38185, Note_on_c, 9, 42, 0
11, 38185, Control_c, 9, 7, 30
11, 38190, Note_on_c, 9, 42, 90
11, 38195, Control_c, 9, 7, 29
11, 38205, Control_c, 9, 7, 27
11, 38205, Control_c, 9, 7, 28
11, 38210, Control_c, 9, 7, 25
11, 38210, Control_c, 9, 7, 26
11, 38215, Note_on_c, 9, 42, 0
11, 38215, Control_c, 9, 7, 23
11, 38220, Note_on_c, 9, 42, 127
11, 38225, Control_c, 9, 7, 22
11, 38230, Control_c, 9, 7, 21
11, 38235, Control_c, 9, 7, 20
11, 38240, Control_c, 9, 7, 19
11, 38245, Note_on_c, 9, 42, 0
11, 38245, Control_c, 9, 7, 18
11, 38250, Note_on_c, 9, 42, 90
11, 38260, Control_c, 9, 7, 17
11, 38270, Control_c, 9, 7, 16
11, 38275, Note_on_c, 9, 42, 0
11, 38275, Control_c, 9, 7, 14
11, 38275, Control_c, 9, 7, 15
11, 38280, Note_on_c, 9, 38, 120
11, 38280, Note_on_c, 9, 42, 127
11, 38290, Control_c, 9, 7, 13
11, 38295, Control_c, 9, 7, 12
11, 38300, Control_c, 9, 7, 11
11, 38305, Note_on_c, 9, 42, 0
11, 38305, Note_on_c, 9, 38, 0
11, 38305, Control_c, 9, 7, 10
11, 38310, Note_on_c, 9, 42, 90
11, 38315, Control_c, 9, 7, 9
11, 38335, Note_on_c, 9, 42, 0
11, 38335, Control_c, 9, 7, 8
11, 38340, Note_on_c, 9, 42, 127
11, 38345, Control_c, 9, 7, 7
11, 38355, Control_c, 9, 7, 6
11, 38365, Note_on_c, 9, 42, 0
11, 38370, Note_on_c, 9, 42, 90
11, 38395, Note_on_c, 9, 42, 0
11, 38395, End_track
12, 0, Start_track
12, 0, MIDI_port, 0
12, 0, Title_t, " Contrabass"
12, 0, Program_c, 10, 43
12, 0, Control_c, 10, 7, 127
12, 0, Control_c, 10, 10, 79
12, 170, Control_c, 10, 7, 126
12, 175, Control_c, 10, 7, 124
12, 180, Control_c, 10, 7, 108
12, 180, Control_c, 10, 7, 116
12, 185, Control_c, 10, 7, 102
12, 190, Control_c, 10, 7, 88
12, 190, Control_c, 10, 7, 94
12, 195, Control_c, 10, 7, 85
12, 195, Control_c, 10, 7, 86
12, 200, Control_c, 10, 7, 84
12, 205, Control_c, 10, 7, 66
12, 205, Control_c, 10, 7, 76
12, 210, Control_c, 10, 7, 61
12, 230, Control_c, 10, 7, 60
12, 235, Control_c, 10, 7, 59
12, 255, Control_c, 10, 7, 58
12, 260, Control_c, 10, 7, 56
12, 265, Control_c, 10, 7, 55
12, 481, Note_on_c, 10, 43, 93
12, 705, Control_c, 10, 7, 56
12, 716, Control_c, 10, 7, 57
12, 778, Control_c, 10, 7, 58
12, 783, Control_c, 10, 7, 59
12, 823, Control_c, 10, 7, 60
12, 877, Control_c, 10, 7, 61
12, 957, Control_c, 10, 7, 62
12, 966, Control_c, 10, 7, 63
12, 1046, Control_c, 10, 7, 64
12, 1137, Control_c, 10, 7, 65
12, 1187, Control_c, 10, 7, 66
12, 1210, Control_c, 10, 7, 67
12, 1230, Control_c, 10, 7, 68
12, 1279, Control_c, 10, 7, 69
12, 1311, Control_c, 10, 7, 70
12, 1336, Control_c, 10, 7, 71
12, 1380, Control_c, 10, 7, 72
12, 1441, Control_c, 10, 7, 74
12, 1441, Control_c, 10, 7, 73
12, 1501, Control_c, 10, 7, 75
12, 1506, Control_c, 10, 7, 76
12, 1531, Control_c, 10, 7, 77
12, 1556, Control_c, 10, 7, 78
12, 1611, Control_c, 10, 7, 79
12, 1650, Control_c, 10, 7, 80
12, 1677, Control_c, 10, 7, 81
12, 1722, Control_c, 10, 7, 82
12, 1727, Control_c, 10, 7, 83
12, 1795, Control_c, 10, 7, 84
12, 1804, Control_c, 10, 7, 85
12, 1831, Control_c, 10, 7, 86
12, 1890, Control_c, 10, 7, 87
12, 1935, Control_c, 10, 7, 88
12, 2005, Control_c, 10, 7, 90
12, 2005, Control_c, 10, 7, 89
12, 2065, Control_c, 10, 7, 91
12, 2090, Control_c, 10, 7, 92
12, 2160, Control_c, 10, 7, 93
12, 2193, Control_c, 10, 7, 94
12, 2246, Control_c, 10, 7, 95
12, 2283, Control_c, 10, 7, 96
12, 2325, Control_c, 10, 7, 97
12, 2326, Control_c, 10, 7, 98
12, 2334, Control_c, 10, 7, 100
12, 2334, Control_c, 10, 7, 99
12, 2410, Control_c, 10, 7, 101
12, 2440, Control_c, 10, 7, 102
12, 2485, Control_c, 10, 7, 103
12, 2490, Control_c, 10, 7, 104
12, 2495, Control_c, 10, 7, 105
12, 2625, Control_c, 10, 7, 106
12, 2630, Control_c, 10, 7, 107
12, 2635, Control_c, 10, 7, 108
12, 2679, Control_c, 10, 7, 109
12, 2744, Control_c, 10, 7, 111
12, 2744, Control_c, 10, 7, 110
12, 2796, Control_c, 10, 7, 120
12, 2796, Control_c, 10, 7, 112
12, 2936, Control_c, 10, 7, 121
12, 2946, Control_c, 10, 7, 122
12, 3036, Control_c, 10, 7, 123
12, 3108, Control_c, 10, 7, 125
12, 3108, Control_c, 10, 7, 124
12, 3173, Control_c, 10, 7, 126
12, 3249, Control_c, 10, 7, 127
12, 4254, Note_on_c, 10, 43, 0
12, 4313, Note_on_c, 10, 36, 91
12, 7912, Note_on_c, 10, 40, 103
12, 7917, Note_on_c, 10, 36, 0
12, 8159, Note_on_c, 10, 45, 107
12, 8165, Note_on_c, 10, 40, 0
12, 8641, Note_on_c, 10, 44, 115
12, 8645, Note_on_c, 10, 45, 0
12, 9113, Note_on_c, 10, 43, 107
12, 9117, Note_on_c, 10, 44, 0
12, 10077, Note_on_c, 10, 36, 118
12, 10079, Note_on_c, 10, 43, 0
12, 10558, Note_on_c, 10, 45, 107
12, 10566, Note_on_c, 10, 36, 0
12, 11045, Note_on_c, 10, 38, 115
12, 11048, Note_on_c, 10, 45, 0
12, 11518, Note_on_c, 10, 43, 115
12, 11523, Note_on_c, 10, 38, 0
12, 11761, Note_on_c, 10, 44, 121
12, 11766, Note_on_c, 10, 43, 0
12, 11995, Note_on_c, 10, 44, 0
12, 12000, Note_on_c, 10, 45, 115
12, 12485, Note_on_c, 10, 44, 118
12, 12491, Note_on_c, 10, 45, 0
12, 12957, Note_on_c, 10, 43, 107
12, 12962, Note_on_c, 10, 44, 0
12, 13435, Note_on_c, 10, 44, 121
12, 13439, Note_on_c, 10, 43, 0
12, 13911, Note_on_c, 10, 44, 0
12, 13917, Note_on_c, 10, 45, 118
12, 14393, Note_on_c, 10, 45, 0
12, 14394, Note_on_c, 10, 43, 115
12, 14871, Note_on_c, 10, 36, 118
12, 14878, Note_on_c, 10, 43, 0
12, 18478, Note_on_c, 10, 40, 103
12, 18483, Note_on_c, 10, 36, 0
12, 18726, Note_on_c, 10, 45, 97
12, 18732, Note_on_c, 10, 40, 0
12, 19199, Note_on_c, 10, 44, 103
12, 19205, Note_on_c, 10, 45, 0
12, 19676, Note_on_c, 10, 43, 107
12, 19681, Note_on_c, 10, 44, 0
12, 20633, Note_on_c, 10, 36, 107
12, 20636, Note_on_c, 10, 43, 0
12, 21122, Note_on_c, 10, 45, 91
12, 21138, Note_on_c, 10, 36, 0
12, 21597, Note_on_c, 10, 38, 118
12, 21599, Note_on_c, 10, 45, 0
12, 22074, Note_on_c, 10, 43, 118
12, 22082, Note_on_c, 10, 38, 0
12, 22316, Note_on_c, 10, 44, 122
12, 22320, Note_on_c, 10, 43, 0
12, 22562, Note_on_c, 10, 45, 107
12, 22563, Note_on_c, 10, 44, 0
12, 23042, Note_on_c, 10, 44, 115
12, 23046, Note_on_c, 10, 45, 0
12, 23511, Note_on_c, 10, 43, 97
12, 23515, Note_on_c, 10, 44, 0
12, 23992, Note_on_c, 10, 44, 121
12, 23996, Note_on_c, 10, 43, 0
12, 24470, Note_on_c, 10, 45, 107
12, 24471, Note_on_c, 10, 44, 0
12, 24953, Note_on_c, 10, 38, 115
12, 24954, Note_on_c, 10, 45, 0
12, 25434, Note_on_c, 10, 40, 118
12, 25437, Note_on_c, 10, 38, 0
12, 25910, Note_on_c, 10, 43, 115
12, 25915, Note_on_c, 10, 40, 0
12, 26396, Note_on_c, 10, 43, 0
12, 26399, Note_on_c, 10, 46, 122
12, 26919, Note_on_c, 10, 45, 103
12, 26924, Note_on_c, 10, 46, 0
12, 27357, Note_on_c, 10, 44, 118
12, 27361, Note_on_c, 10, 45, 0
12, 27843, Note_on_c, 10, 44, 0
12, 27852, Note_on_c, 10, 44, 107
12, 28324, Note_on_c, 10, 44, 0
12, 28324, Note_on_c, 10, 37, 122
12, 28795, Note_on_c, 10, 46, 122
12, 28798, Note_on_c, 10, 37, 0
12, 29276, Note_on_c, 10, 46, 0
12, 29278, Note_on_c, 10, 39, 122
12, 29758, Note_on_c, 10, 44, 121
12, 29763, Note_on_c, 10, 39, 0
12, 29995, Note_on_c, 10, 44, 0
12, 29996, Note_on_c, 10, 45, 118
12, 30235, Note_on_c, 10, 46, 122
12, 30239, Note_on_c, 10, 45, 0
12, 30718, Note_on_c, 10, 46, 0
12, 30723, Note_on_c, 10, 46, 79
12, 30723, Note_on_c, 10, 45, 118
12, 30726, Note_on_c, 10, 46, 0
12, 31190, Note_on_c, 10, 44, 122
12, 31195, Note_on_c, 10, 45, 0
12, 31678, Note_on_c, 10, 45, 121
12, 31720, Note_on_c, 10, 44, 0
12, 32157, Note_on_c, 10, 44, 121
12, 32161, Note_on_c, 10, 45, 0
12, 32644, Note_on_c, 10, 44, 0
12, 32645, Note_on_c, 10, 45, 115
12, 33112, Note_on_c, 10, 44, 122
12, 33116, Note_on_c, 10, 45, 0
12, 33594, Note_on_c, 10, 45, 118
12, 33596, Note_on_c, 10, 44, 0
12, 34076, Note_on_c, 10, 44, 107
12, 34082, Note_on_c, 10, 45, 0
12, 34557, Note_on_c, 10, 45, 115
12, 34560, Note_on_c, 10, 44, 0
12, 35032, Note_on_c, 10, 44, 118
12, 35037, Note_on_c, 10, 45, 0
12, 35513, Note_on_c, 10, 45, 107
12, 35515, Note_on_c, 10, 44, 0
12, 36000, Note_on_c, 10, 44, 115
12, 36005, Note_on_c, 10, 45, 0
12, 36476, Note_on_c, 10, 45, 107
12, 36479, Note_on_c, 10, 44, 0
12, 36964, Note_on_c, 10, 37, 91
12, 36970, Note_on_c, 10, 45, 0
12, 37135, Control_c, 10, 7, 126
12, 37215, Control_c, 10, 7, 125
12, 37230, Control_c, 10, 7, 124
12, 37255, Control_c, 10, 7, 123
12, 37275, Control_c, 10, 7, 122
12, 37280, Control_c, 10, 7, 121
12, 37300, Control_c, 10, 7, 120
12, 37320, Control_c, 10, 7, 119
12, 37330, Control_c, 10, 7, 118
12, 37345, Control_c, 10, 7, 117
12, 37350, Control_c, 10, 7, 116
12, 37357, Control_c, 10, 7, 115
12, 37375, Control_c, 10, 7, 114
12, 37390, Control_c, 10, 7, 113
12, 37405, Control_c, 10, 7, 112
12, 37411, Control_c, 10, 7, 111
12, 37428, Control_c, 10, 7, 110
12, 37433, Control_c, 10, 7, 109
12, 37445, Control_c, 10, 7, 108
12, 37465, Control_c, 10, 7, 107
12, 37483, Control_c, 10, 7, 106
12, 37500, Control_c, 10, 7, 105
12, 37520, Control_c, 10, 7, 104
12, 37535, Control_c, 10, 7, 103
12, 37550, Control_c, 10, 7, 102
12, 37555, Control_c, 10, 7, 101
12, 37565, Control_c, 10, 7, 100
12, 37575, Control_c, 10, 7, 99
12, 37590, Control_c, 10, 7, 98
12, 37595, Control_c, 10, 7, 97
12, 37610, Control_c, 10, 7, 96
12, 37640, Control_c, 10, 7, 94
12, 37640, Control_c, 10, 7, 95
12, 37663, Control_c, 10, 7, 93
12, 37673, Control_c, 10, 7, 92
12, 37680, Control_c, 10, 7, 91
12, 37710, Control_c, 10, 7, 89
12, 37710, Control_c, 10, 7, 90
12, 37720, Control_c, 10, 7, 87
12, 37720, Control_c, 10, 7, 88
12, 37730, Control_c, 10, 7, 86
12, 37750, Control_c, 10, 7, 84
12, 37750, Control_c, 10, 7, 85
12, 37760, Control_c, 10, 7, 83
12, 37770, Control_c, 10, 7, 82
12, 37779, Control_c, 10, 7, 80
12, 37779, Control_c, 10, 7, 81
12, 37800, Control_c, 10, 7, 79
12, 37805, Control_c, 10, 7, 78
12, 37810, Control_c, 10, 7, 77
12, 37830, Control_c, 10, 7, 76
12, 37835, Control_c, 10, 7, 75
12, 37850, Control_c, 10, 7, 74
12, 37860, Control_c, 10, 7, 72
12, 37860, Control_c, 10, 7, 73
12, 37870, Control_c, 10, 7, 71
12, 37880, Control_c, 10, 7, 70
12, 37890, Control_c, 10, 7, 69
12, 37899, Control_c, 10, 7, 67
12, 37899, Control_c, 10, 7, 68
12, 37914, Control_c, 10, 7, 66
12, 37915, Control_c, 10, 7, 65
12, 37920, Control_c, 10, 7, 64
12, 37935, Control_c, 10, 7, 63
12, 37940, Control_c, 10, 7, 62
12, 37955, Control_c, 10, 7, 60
12, 37955, Control_c, 10, 7, 61
12, 37960, Control_c, 10, 7, 59
12, 37965, Control_c, 10, 7, 58
12, 37975, Control_c, 10, 7, 57
12, 37985, Control_c, 10, 7, 56
12, 37990, Control_c, 10, 7, 55
12, 38010, Control_c, 10, 7, 53
12, 38010, Control_c, 10, 7, 54
12, 38025, Control_c, 10, 7, 52
12, 38030, Control_c, 10, 7, 51
12, 38035, Control_c, 10, 7, 49
12, 38035, Control_c, 10, 7, 50
12, 38040, Control_c, 10, 7, 48
12, 38050, Control_c, 10, 7, 47
12, 38060, Control_c, 10, 7, 46
12, 38075, Control_c, 10, 7, 45
12, 38080, Control_c, 10, 7, 44
12, 38095, Control_c, 10, 7, 43
12, 38100, Control_c, 10, 7, 41
12, 38120, Control_c, 10, 7, 40
12, 38125, Control_c, 10, 7, 39
12, 38130, Control_c, 10, 7, 38
12, 38135, Control_c, 10, 7, 37
12, 38142, Control_c, 10, 7, 36
12, 38163, Note_on_c, 10, 37, 0
12, 38163, Control_c, 10, 7, 35
12, 38168, Control_c, 10, 7, 34
12, 38173, Control_c, 10, 7, 33
12, 38178, Control_c, 10, 7, 32
12, 38183, Control_c, 10, 7, 31
12, 38185, Control_c, 10, 7, 30
12, 38195, Control_c, 10, 7, 29
12, 38205, Control_c, 10, 7, 27
12, 38205, Control_c, 10, 7, 28
12, 38210, Control_c, 10, 7, 25
12, 38210, Control_c, 10, 7, 26
12, 38215, Control_c, 10, 7, 23
12, 38225, Control_c, 10, 7, 22
12, 38230, Control_c, 10, 7, 21
12, 38235, Control_c, 10, 7, 20
12, 38240, Control_c, 10, 7, 19
12, 38245, Control_c, 10, 7, 18
12, 38260, Control_c, 10, 7, 17
12, 38270, Control_c, 10, 7, 16
12, 38275, Control_c, 10, 7, 14
12, 38275, Control_c, 10, 7, 15
12, 38290, Control_c, 10, 7, 13
12, 38295, Control_c, 10, 7, 12
12, 38300, Control_c, 10, 7, 11
12, 38305, Control_c, 10, 7, 10
12, 38315, Control_c, 10, 7, 9
12, 38335, Control_c, 10, 7, 8
12, 38345, Control_c, 10, 7, 7
12, 38355, Control_c, 10, 7, 6
12, 38355, End_track
13, 0, Start_track
13, 0, MIDI_port, 0
13, 0, Title_t, " Bassoon"
13, 0, Program_c, 11, 70
13, 0, Control_c, 11, 7, 127
13, 0, Control_c, 11, 10, 64
13, 3467, Note_on_c, 11, 79, 101
13, 3521, Note_on_c, 11, 71, 101
13, 3524, Note_on_c, 11, 79, 0
13, 3578, Note_on_c, 11, 72, 117
13, 3583, Note_on_c, 11, 71, 0
13, 3744, Note_on_c, 11, 72, 0
13, 3745, Note_on_c, 11, 67, 117
13, 3794, Note_on_c, 11, 68, 107
13, 3802, Note_on_c, 11, 67, 0
13, 3807, Note_on_c, 11, 70, 125
13, 3808, Note_on_c, 11, 68, 0
13, 3819, Note_on_c, 11, 68, 101
13, 3827, Note_on_c, 11, 70, 0
13, 3833, Note_on_c, 11, 67, 97
13, 3834, Note_on_c, 11, 68, 0
13, 3851, Note_on_c, 11, 68, 125
13, 3854, Note_on_c, 11, 67, 0
13, 4151, Note_on_c, 11, 68, 0
13, 4151, End_track
14, 0, Start_track
14, 0, MIDI_port, 0
14, 0, Title_t, " Elec. Guitar"
14, 0, Program_c, 12, 26
14, 0, Control_c, 12, 7, 127
14, 0, Control_c, 12, 10, 64
14, 36478, Note_on_c, 12, 57, 127
14, 36480, Note_on_c, 12, 54, 127
14, 36538, Note_on_c, 12, 59, 127
14, 36540, Note_on_c, 12, 56, 127
14, 36543, Note_on_c, 12, 57, 0
14, 36545, Note_on_c, 12, 54, 0
14, 36594, Note_on_c, 12, 61, 127
14, 36596, Note_on_c, 12, 59, 0
14, 36598, Note_on_c, 12, 56, 0
14, 36600, Note_on_c, 12, 57, 127
14, 36660, Note_on_c, 12, 59, 121
14, 36660, Note_on_c, 12, 63, 121
14, 36663, Note_on_c, 12, 61, 0
14, 36669, Note_on_c, 12, 57, 0
14, 36719, Note_on_c, 12, 65, 127
14, 36720, Note_on_c, 12, 61, 127
14, 36723, Note_on_c, 12, 59, 0
14, 36723, Note_on_c, 12, 63, 0
14, 36773, Note_on_c, 12, 66, 127
14, 36779, Note_on_c, 12, 65, 0
14, 36780, Note_on_c, 12, 61, 0
14, 36780, Note_on_c, 12, 63, 127
14, 36828, Note_on_c, 12, 68, 127
14, 36834, Note_on_c, 12, 66, 0
14, 36840, Note_on_c, 12, 65, 127
14, 36841, Note_on_c, 12, 63, 0
14, 36894, Note_on_c, 12, 68, 0
14, 36894, Note_on_c, 12, 69, 127
14, 36900, Note_on_c, 12, 66, 127
14, 36906, Note_on_c, 12, 65, 0
14, 36960, Note_on_c, 12, 68, 127
14, 36960, Note_on_c, 12, 73, 127
14, 36963, Note_on_c, 12, 69, 0
14, 36969, Note_on_c, 12, 66, 0
14, 37252, Note_on_c, 12, 68, 0
14, 37252, Note_on_c, 12, 73, 0
14, 37252, End_track
15, 0, Start_track
15, 0, MIDI_port, 0
15, 0, Title_t, " Bass"
15, 0, Program_c, 13, 35
15, 0, Control_c, 13, 7, 89
15, 0, Control_c, 13, 10, 75
15, 170, Control_c, 13, 7, 76
15, 175, Control_c, 13, 7, 75
15, 180, Control_c, 13, 7, 65
15, 180, Control_c, 13, 7, 70
15, 185, Control_c, 13, 7, 61
15, 190, Control_c, 13, 7, 53
15, 190, Control_c, 13, 7, 56
15, 195, Control_c, 13, 7, 51
15, 195, Control_c, 13, 7, 52
15, 200, Control_c, 13, 7, 50
15, 205, Control_c, 13, 7, 40
15, 205, Control_c, 13, 7, 46
15, 210, Control_c, 13, 7, 36
15, 235, Control_c, 13, 7, 35
15, 260, Control_c, 13, 7, 33
15, 716, Control_c, 13, 7, 34
15, 778, Control_c, 13, 7, 35
15, 823, Control_c, 13, 7, 36
15, 957, Control_c, 13, 7, 37
15, 966, Control_c, 13, 7, 38
15, 1137, Control_c, 13, 7, 39
15, 1187, Control_c, 13, 7, 40
15, 1230, Control_c, 13, 7, 41
15, 1311, Control_c, 13, 7, 42
15, 1336, Control_c, 13, 7, 43
15, 1441, Control_c, 13, 7, 44
15, 1501, Control_c, 13, 7, 45
15, 1506, Control_c, 13, 7, 46
15, 1556, Control_c, 13, 7, 47
15, 1650, Control_c, 13, 7, 48
15, 1677, Control_c, 13, 7, 49
15, 1727, Control_c, 13, 7, 50
15, 1804, Control_c, 13, 7, 51
15, 1831, Control_c, 13, 7, 52
15, 1935, Control_c, 13, 7, 53
15, 2005, Control_c, 13, 7, 54
15, 2065, Control_c, 13, 7, 55
15, 2160, Control_c, 13, 7, 56
15, 2246, Control_c, 13, 7, 57
15, 2283, Control_c, 13, 7, 58
15, 2326, Control_c, 13, 7, 59
15, 2334, Control_c, 13, 7, 60
15, 2410, Control_c, 13, 7, 61
15, 2485, Control_c, 13, 7, 62
15, 2490, Control_c, 13, 7, 63
15, 2625, Control_c, 13, 7, 64
15, 2635, Control_c, 13, 7, 65
15, 2679, Control_c, 13, 7, 66
15, 2744, Control_c, 13, 7, 67
15, 2796, Control_c, 13, 7, 72
15, 2936, Control_c, 13, 7, 73
15, 3036, Control_c, 13, 7, 74
15, 3108, Control_c, 13, 7, 75
15, 3173, Control_c, 13, 7, 76
15, 3249, Control_c, 13, 7, 77
15, 4320, Note_on_c, 13, 36, 127
15, 4440, Note_on_c, 13, 36, 0
15, 4502, Note_on_c, 13, 36, 127
15, 4537, Note_on_c, 13, 36, 0
15, 4804, Note_on_c, 13, 36, 127
15, 4839, Note_on_c, 13, 36, 0
15, 4985, Note_on_c, 13, 36, 127
15, 5015, Note_on_c, 13, 36, 0
15, 5273, Note_on_c, 13, 36, 117
15, 5316, Note_on_c, 13, 36, 0
15, 5458, Note_on_c, 13, 36, 127
15, 5496, Note_on_c, 13, 36, 0
15, 5756, Note_on_c, 13, 36, 127
15, 5803, Note_on_c, 13, 36, 0
15, 5940, Note_on_c, 13, 36, 127
15, 5977, Note_on_c, 13, 36, 0
15, 6243, Note_on_c, 13, 36, 127
15, 6284, Note_on_c, 13, 36, 0
15, 6424, Note_on_c, 13, 36, 127
15, 6456, Note_on_c, 13, 36, 0
15, 6718, Note_on_c, 13, 36, 127
15, 6755, Note_on_c, 13, 36, 0
15, 6906, Note_on_c, 13, 36, 127
15, 6939, Note_on_c, 13, 36, 0
15, 7201, Note_on_c, 13, 36, 127
15, 7238, Note_on_c, 13, 36, 0
15, 7379, Note_on_c, 13, 36, 127
15, 7411, Note_on_c, 13, 36, 0
15, 7680, Note_on_c, 13, 36, 127
15, 7720, Note_on_c, 13, 36, 0
15, 7866, Note_on_c, 13, 36, 127
15, 7903, Note_on_c, 13, 36, 0
15, 8160, Note_on_c, 13, 45, 127
15, 8199, Note_on_c, 13, 45, 0
15, 8340, Note_on_c, 13, 45, 127
15, 8376, Note_on_c, 13, 45, 0
15, 8640, Note_on_c, 13, 44, 127
15, 8676, Note_on_c, 13, 44, 0
15, 8820, Note_on_c, 13, 44, 127
15, 8855, Note_on_c, 13, 44, 0
15, 9120, Note_on_c, 13, 43, 127
15, 9156, Note_on_c, 13, 43, 0
15, 9300, Note_on_c, 13, 43, 127
15, 9337, Note_on_c, 13, 43, 0
15, 9600, Note_on_c, 13, 43, 127
15, 9637, Note_on_c, 13, 43, 0
15, 9780, Note_on_c, 13, 43, 127
15, 9814, Note_on_c, 13, 43, 0
15, 10080, Note_on_c, 13, 36, 127
15, 10200, Note_on_c, 13, 36, 0
15, 10262, Note_on_c, 13, 36, 127
15, 10297, Note_on_c, 13, 36, 0
15, 10560, Note_on_c, 13, 45, 127
15, 10595, Note_on_c, 13, 45, 0
15, 10740, Note_on_c, 13, 45, 127
15, 10770, Note_on_c, 13, 45, 0
15, 11040, Note_on_c, 13, 38, 117
15, 11083, Note_on_c, 13, 38, 0
15, 11220, Note_on_c, 13, 38, 127
15, 11258, Note_on_c, 13, 38, 0
15, 11520, Note_on_c, 13, 43, 127
15, 11567, Note_on_c, 13, 43, 0
15, 11700, Note_on_c, 13, 43, 127
15, 11737, Note_on_c, 13, 43, 0
15, 12000, Note_on_c, 13, 45, 127
15, 12041, Note_on_c, 13, 45, 0
15, 12180, Note_on_c, 13, 45, 127
15, 12212, Note_on_c, 13, 45, 0
15, 12480, Note_on_c, 13, 38, 127
15, 12517, Note_on_c, 13, 38, 0
15, 12660, Note_on_c, 13, 38, 127
15, 12693, Note_on_c, 13, 38, 0
15, 12960, Note_on_c, 13, 43, 127
15, 12997, Note_on_c, 13, 43, 0
15, 13140, Note_on_c, 13, 43, 127
15, 13172, Note_on_c, 13, 43, 0
15, 13440, Note_on_c, 13, 44, 127
15, 13480, Note_on_c, 13, 44, 0
15, 13620, Note_on_c, 13, 44, 127
15, 13657, Note_on_c, 13, 44, 0
15, 13920, Note_on_c, 13, 45, 127
15, 13959, Note_on_c, 13, 45, 0
15, 14100, Note_on_c, 13, 45, 127
15, 14136, Note_on_c, 13, 45, 0
15, 14400, Note_on_c, 13, 43, 127
15, 14436, Note_on_c, 13, 43, 0
15, 14580, Note_on_c, 13, 43, 127
15, 14615, Note_on_c, 13, 43, 0
15, 14874, Note_on_c, 13, 36, 127
15, 14880, Note_on_c, 13, 36, 127
15, 14910, Note_on_c, 13, 36, 0
15, 15000, Note_on_c, 13, 36, 0
15, 15062, Note_on_c, 13, 36, 127
15, 15097, Note_on_c, 13, 36, 0
15, 15364, Note_on_c, 13, 36, 127
15, 15399, Note_on_c, 13, 36, 0
15, 15545, Note_on_c, 13, 36, 127
15, 15575, Note_on_c, 13, 36, 0
15, 15833, Note_on_c, 13, 36, 117
15, 15876, Note_on_c, 13, 36, 0
15, 16018, Note_on_c, 13, 36, 127
15, 16056, Note_on_c, 13, 36, 0
15, 16316, Note_on_c, 13, 36, 127
15, 16363, Note_on_c, 13, 36, 0
15, 16500, Note_on_c, 13, 36, 127
15, 16537, Note_on_c, 13, 36, 0
15, 16803, Note_on_c, 13, 36, 127
15, 16844, Note_on_c, 13, 36, 0
15, 16984, Note_on_c, 13, 36, 127
15, 17016, Note_on_c, 13, 36, 0
15, 17278, Note_on_c, 13, 36, 127
15, 17315, Note_on_c, 13, 36, 0
15, 17466, Note_on_c, 13, 36, 127
15, 17499, Note_on_c, 13, 36, 0
15, 17761, Note_on_c, 13, 36, 127
15, 17798, Note_on_c, 13, 36, 0
15, 17939, Note_on_c, 13, 36, 127
15, 17971, Note_on_c, 13, 36, 0
15, 18240, Note_on_c, 13, 36, 127
15, 18280, Note_on_c, 13, 36, 0
15, 18426, Note_on_c, 13, 36, 127
15, 18463, Note_on_c, 13, 36, 0
15, 18720, Note_on_c, 13, 45, 127
15, 18759, Note_on_c, 13, 45, 0
15, 18900, Note_on_c, 13, 45, 127
15, 18936, Note_on_c, 13, 45, 0
15, 19200, Note_on_c, 13, 44, 127
15, 19236, Note_on_c, 13, 44, 0
15, 19380, Note_on_c, 13, 44, 127
15, 19415, Note_on_c, 13, 44, 0
15, 19680, Note_on_c, 13, 43, 127
15, 19716, Note_on_c, 13, 43, 0
15, 19860, Note_on_c, 13, 43, 127
15, 19897, Note_on_c, 13, 43, 0
15, 20160, Note_on_c, 13, 43, 127
15, 20197, Note_on_c, 13, 43, 0
15, 20340, Note_on_c, 13, 43, 127
15, 20374, Note_on_c, 13, 43, 0
15, 20640, Note_on_c, 13, 36, 127
15, 20760, Note_on_c, 13, 36, 0
15, 20822, Note_on_c, 13, 36, 127
15, 20857, Note_on_c, 13, 36, 0
15, 21120, Note_on_c, 13, 45, 127
15, 21155, Note_on_c, 13, 45, 0
15, 21300, Note_on_c, 13, 45, 127
15, 21330, Note_on_c, 13, 45, 0
15, 21600, Note_on_c, 13, 38, 117
15, 21643, Note_on_c, 13, 38, 0
15, 21780, Note_on_c, 13, 38, 127
15, 21818, Note_on_c, 13, 38, 0
15, 22080, Note_on_c, 13, 43, 127
15, 22127, Note_on_c, 13, 43, 0
15, 22260, Note_on_c, 13, 43, 127
15, 22297, Note_on_c, 13, 43, 0
15, 22560, Note_on_c, 13, 45, 127
15, 22601, Note_on_c, 13, 45, 0
15, 22740, Note_on_c, 13, 45, 127
15, 22772, Note_on_c, 13, 45, 0
15, 23040, Note_on_c, 13, 38, 127
15, 23077, Note_on_c, 13, 38, 0
15, 23220, Note_on_c, 13, 38, 127
15, 23253, Note_on_c, 13, 38, 0
15, 23520, Note_on_c, 13, 43, 127
15, 23557, Note_on_c, 13, 43, 0
15, 23700, Note_on_c, 13, 43, 127
15, 23732, Note_on_c, 13, 43, 0
15, 24000, Note_on_c, 13, 44, 127
15, 24040, Note_on_c, 13, 44, 0
15, 24180, Note_on_c, 13, 44, 127
15, 24217, Note_on_c, 13, 44, 0
15, 24480, Note_on_c, 13, 45, 127
15, 24519, Note_on_c, 13, 45, 0
15, 24660, Note_on_c, 13, 45, 127
15, 24696, Note_on_c, 13, 45, 0
15, 24960, Note_on_c, 13, 38, 127
15, 24996, Note_on_c, 13, 38, 0
15, 25140, Note_on_c, 13, 38, 127
15, 25175, Note_on_c, 13, 38, 0
15, 25440, Note_on_c, 13, 40, 127
15, 25476, Note_on_c, 13, 40, 0
15, 25620, Note_on_c, 13, 40, 127
15, 25657, Note_on_c, 13, 40, 0
15, 25920, Note_on_c, 13, 43, 127
15, 25957, Note_on_c, 13, 43, 0
15, 26100, Note_on_c, 13, 43, 127
15, 26135, Note_on_c, 13, 43, 0
15, 26400, Note_on_c, 13, 34, 127
15, 26435, Note_on_c, 13, 34, 0
15, 26580, Note_on_c, 13, 34, 127
15, 26610, Note_on_c, 13, 34, 0
15, 26880, Note_on_c, 13, 45, 117
15, 26923, Note_on_c, 13, 45, 0
15, 27060, Note_on_c, 13, 45, 127
15, 27098, Note_on_c, 13, 45, 0
15, 27360, Note_on_c, 13, 44, 127
15, 27407, Note_on_c, 13, 44, 0
15, 27540, Note_on_c, 13, 44, 127
15, 27577, Note_on_c, 13, 44, 0
15, 27840, Note_on_c, 13, 44, 127
15, 27881, Note_on_c, 13, 44, 0
15, 28020, Note_on_c, 13, 44, 127
15, 28052, Note_on_c, 13, 44, 0
15, 28320, Note_on_c, 13, 37, 127
15, 28357, Note_on_c, 13, 37, 0
15, 28500, Note_on_c, 13, 37, 127
15, 28533, Note_on_c, 13, 37, 0
15, 28800, Note_on_c, 13, 34, 127
15, 28837, Note_on_c, 13, 34, 0
15, 28980, Note_on_c, 13, 34, 127
15, 29012, Note_on_c, 13, 34, 0
15, 29280, Note_on_c, 13, 39, 127
15, 29320, Note_on_c, 13, 39, 0
15, 29460, Note_on_c, 13, 39, 127
15, 29497, Note_on_c, 13, 39, 0
15, 29760, Note_on_c, 13, 44, 127
15, 29799, Note_on_c, 13, 44, 0
15, 29940, Note_on_c, 13, 44, 127
15, 29976, Note_on_c, 13, 44, 0
15, 30240, Note_on_c, 13, 34, 127
15, 30276, Note_on_c, 13, 34, 0
15, 30420, Note_on_c, 13, 34, 127
15, 30455, Note_on_c, 13, 34, 0
15, 30720, Note_on_c, 13, 45, 127
15, 30756, Note_on_c, 13, 45, 0
15, 30900, Note_on_c, 13, 45, 127
15, 30937, Note_on_c, 13, 45, 0
15, 31200, Note_on_c, 13, 44, 127
15, 31237, Note_on_c, 13, 44, 0
15, 31380, Note_on_c, 13, 44, 127
15, 31415, Note_on_c, 13, 44, 0
15, 31680, Note_on_c, 13, 45, 127
15, 31715, Note_on_c, 13, 45, 0
15, 31860, Note_on_c, 13, 45, 127
15, 31890, Note_on_c, 13, 45, 0
15, 32160, Note_on_c, 13, 44, 117
15, 32203, Note_on_c, 13, 44, 0
15, 32340, Note_on_c, 13, 44, 127
15, 32378, Note_on_c, 13, 44, 0
15, 32640, Note_on_c, 13, 45, 127
15, 32687, Note_on_c, 13, 45, 0
15, 32820, Note_on_c, 13, 45, 127
15, 32857, Note_on_c, 13, 45, 0
15, 33120, Note_on_c, 13, 44, 127
15, 33161, Note_on_c, 13, 44, 0
15, 33300, Note_on_c, 13, 44, 127
15, 33332, Note_on_c, 13, 44, 0
15, 33600, Note_on_c, 13, 45, 127
15, 33637, Note_on_c, 13, 45, 0
15, 33780, Note_on_c, 13, 45, 127
15, 33813, Note_on_c, 13, 45, 0
15, 34080, Note_on_c, 13, 44, 127
15, 34117, Note_on_c, 13, 44, 0
15, 34260, Note_on_c, 13, 44, 127
15, 34292, Note_on_c, 13, 44, 0
15, 34560, Note_on_c, 13, 45, 127
15, 34600, Note_on_c, 13, 45, 0
15, 34740, Note_on_c, 13, 45, 127
15, 34777, Note_on_c, 13, 45, 0
15, 35040, Note_on_c, 13, 44, 127
15, 35079, Note_on_c, 13, 44, 0
15, 35220, Note_on_c, 13, 44, 127
15, 35256, Note_on_c, 13, 44, 0
15, 35520, Note_on_c, 13, 45, 127
15, 35556, Note_on_c, 13, 45, 0
15, 35700, Note_on_c, 13, 45, 127
15, 35735, Note_on_c, 13, 45, 0
15, 36000, Note_on_c, 13, 44, 127
15, 36036, Note_on_c, 13, 44, 0
15, 36180, Note_on_c, 13, 44, 127
15, 36217, Note_on_c, 13, 44, 0
15, 36480, Note_on_c, 13, 45, 127
15, 36517, Note_on_c, 13, 45, 0
15, 36660, Note_on_c, 13, 45, 127
15, 36695, Note_on_c, 13, 45, 0
15, 36960, Note_on_c, 13, 37, 127
15, 36995, Note_on_c, 13, 37, 0
15, 37135, Control_c, 13, 7, 76
15, 37140, Note_on_c, 13, 37, 127
15, 37170, Note_on_c, 13, 37, 0
15, 37215, Control_c, 13, 7, 75
15, 37255, Control_c, 13, 7, 74
15, 37275, Control_c, 13, 7, 73
15, 37300, Control_c, 13, 7, 72
15, 37330, Control_c, 13, 7, 71
15, 37345, Control_c, 13, 7, 70
15, 37357, Control_c, 13, 7, 69
15, 37390, Control_c, 13, 7, 68
15, 37405, Control_c, 13, 7, 67
15, 37428, Control_c, 13, 7, 66
15, 37440, Note_on_c, 13, 37, 117
15, 37445, Control_c, 13, 7, 65
15, 37465, Control_c, 13, 7, 64
15, 37483, Note_on_c, 13, 37, 0
15, 37500, Control_c, 13, 7, 63
15, 37535, Control_c, 13, 7, 62
15, 37550, Control_c, 13, 7, 61
15, 37565, Control_c, 13, 7, 60
15, 37590, Control_c, 13, 7, 59
15, 37595, Control_c, 13, 7, 58
15, 37620, Note_on_c, 13, 37, 127
15, 37640, Control_c, 13, 7, 56
15, 37640, Control_c, 13, 7, 57
15, 37658, Note_on_c, 13, 37, 0
15, 37673, Control_c, 13, 7, 55
15, 37710, Control_c, 13, 7, 53
15, 37710, Control_c, 13, 7, 54
15, 37720, Control_c, 13, 7, 52
15, 37750, Control_c, 13, 7, 50
15, 37750, Control_c, 13, 7, 51
15, 37770, Control_c, 13, 7, 49
15, 37779, Control_c, 13, 7, 48
15, 37800, Control_c, 13, 7, 47
15, 37810, Control_c, 13, 7, 46
15, 37835, Control_c, 13, 7, 45
15, 37850, Control_c, 13, 7, 44
15, 37860, Control_c, 13, 7, 43
15, 37880, Control_c, 13, 7, 42
15, 37890, Control_c, 13, 7, 41
15, 37899, Control_c, 13, 7, 40
15, 37915, Control_c, 13, 7, 39
15, 37920, Control_c, 13, 7, 38
15, 37920, Note_on_c, 13, 37, 127
15, 37940, Control_c, 13, 7, 37
15, 37955, Control_c, 13, 7, 36
15, 37960, Control_c, 13, 7, 35
15, 37967, Note_on_c, 13, 37, 0
15, 37975, Control_c, 13, 7, 34
15, 37985, Control_c, 13, 7, 33
15, 38010, Control_c, 13, 7, 32
15, 38025, Control_c, 13, 7, 31
15, 38030, Control_c, 13, 7, 30
15, 38035, Control_c, 13, 7, 29
15, 38050, Control_c, 13, 7, 28
15, 38060, Control_c, 13, 7, 27
15, 38080, Control_c, 13, 7, 26
15, 38100, Control_c, 13, 7, 24
15, 38100, Note_on_c, 13, 37, 127
15, 38125, Control_c, 13, 7, 23
15, 38135, Control_c, 13, 7, 22
15, 38137, Note_on_c, 13, 37, 0
15, 38142, Control_c, 13, 7, 21
15, 38168, Control_c, 13, 7, 20
15, 38178, Control_c, 13, 7, 19
15, 38183, Control_c, 13, 7, 18
15, 38195, Control_c, 13, 7, 17
15, 38205, Control_c, 13, 7, 16
15, 38210, Control_c, 13, 7, 15
15, 38215, Control_c, 13, 7, 13
15, 38230, Control_c, 13, 7, 12
15, 38240, Control_c, 13, 7, 11
15, 38245, Control_c, 13, 7, 10
15, 38270, Control_c, 13, 7, 9
15, 38275, Control_c, 13, 7, 8
15, 38290, Control_c, 13, 7, 7
15, 38300, Control_c, 13, 7, 6
15, 38315, Control_c, 13, 7, 5
15, 38335, Control_c, 13, 7, 4
15, 38355, Control_c, 13, 7, 3
15, 38355, End_track
16, 0, Start_track
16, 0, MIDI_port, 0
16, 0, Title_t, "************************************"
16, 0, Program_c, 14, 91
16, 0, Control_c, 14, 7, 127
16, 0, Control_c, 14, 10, 64
16, 33240, Note_on_c, 14, 61, 127
16, 33240, Note_on_c, 14, 65, 127
16, 33240, Note_on_c, 14, 68, 127
16, 33257, Note_on_c, 14, 68, 0
16, 33257, Note_on_c, 14, 65, 0
16, 33257, Note_on_c, 14, 61, 0
16, 33267, Note_on_c, 14, 70, 127
16, 33270, Note_on_c, 14, 65, 127
16, 33270, Note_on_c, 14, 68, 127
16, 33280, Note_on_c, 14, 70, 0
16, 33283, Note_on_c, 14, 68, 0
16, 33283, Note_on_c, 14, 65, 0
16, 33296, Note_on_c, 14, 73, 127
16, 33300, Note_on_c, 14, 65, 127
16, 33300, Note_on_c, 14, 68, 127
16, 33330, Note_on_c, 14, 73, 0
16, 33334, Note_on_c, 14, 68, 0
16, 33334, Note_on_c, 14, 65, 0
16, 33600, Note_on_c, 14, 69, 127
16, 33600, Note_on_c, 14, 61, 127
16, 33600, Note_on_c, 14, 66, 127
16, 33626, Note_on_c, 14, 66, 0
16, 33626, Note_on_c, 14, 61, 0
16, 33626, Note_on_c, 14, 69, 0
16, 33660, Note_on_c, 14, 62, 127
16, 33660, Note_on_c, 14, 66, 127
16, 33660, Note_on_c, 14, 71, 127
16, 33672, Note_on_c, 14, 73, 127
16, 33677, Note_on_c, 14, 71, 0
16, 33677, Note_on_c, 14, 62, 0
16, 33677, Note_on_c, 14, 66, 0
16, 33690, Note_on_c, 14, 66, 127
16, 33690, Note_on_c, 14, 69, 127
16, 33716, Note_on_c, 14, 73, 0
16, 33734, Note_on_c, 14, 69, 0
16, 33734, Note_on_c, 14, 66, 0
16, 34075, Note_on_c, 14, 68, 127
16, 34080, Note_on_c, 14, 61, 127
16, 34080, Note_on_c, 14, 65, 127
16, 34094, Note_on_c, 14, 68, 0
16, 34099, Note_on_c, 14, 65, 0
16, 34099, Note_on_c, 14, 61, 0
16, 34101, Note_on_c, 14, 70, 127
16, 34110, Note_on_c, 14, 65, 127
16, 34110, Note_on_c, 14, 68, 127
16, 34115, Note_on_c, 14, 70, 0
16, 34124, Note_on_c, 14, 68, 0
16, 34124, Note_on_c, 14, 65, 0
16, 34128, Note_on_c, 14, 73, 127
16, 34140, Note_on_c, 14, 65, 127
16, 34140, Note_on_c, 14, 68, 127
16, 34165, Note_on_c, 14, 73, 0
16, 34177, Note_on_c, 14, 68, 0
16, 34177, Note_on_c, 14, 65, 0
16, 34556, Note_on_c, 14, 69, 127
16, 34560, Note_on_c, 14, 61, 127
16, 34560, Note_on_c, 14, 66, 127
16, 34583, Note_on_c, 14, 69, 0
16, 34587, Note_on_c, 14, 66, 0
16, 34587, Note_on_c, 14, 61, 0
16, 34608, Note_on_c, 14, 71, 127
16, 34620, Note_on_c, 14, 64, 127
16, 34620, Note_on_c, 14, 68, 127
16, 34635, Note_on_c, 14, 71, 0
16, 34647, Note_on_c, 14, 68, 0
16, 34647, Note_on_c, 14, 64, 0
16, 34669, Note_on_c, 14, 73, 127
16, 34680, Note_on_c, 14, 64, 127
16, 34680, Note_on_c, 14, 68, 127
16, 34702, Note_on_c, 14, 73, 0
16, 34713, Note_on_c, 14, 68, 0
16, 34713, Note_on_c, 14, 64, 0
16, 35040, Note_on_c, 14, 61, 127
16, 35040, Note_on_c, 14, 65, 127
16, 35040, Note_on_c, 14, 68, 127
16, 35060, Note_on_c, 14, 68, 0
16, 35060, Note_on_c, 14, 65, 0
16, 35060, Note_on_c, 14, 61, 0
16, 35064, Note_on_c, 14, 70, 127
16, 35070, Note_on_c, 14, 61, 127
16, 35070, Note_on_c, 14, 65, 127
16, 35078, Note_on_c, 14, 70, 0
16, 35084, Note_on_c, 14, 65, 0
16, 35084, Note_on_c, 14, 61, 0
16, 35090, Note_on_c, 14, 73, 127
16, 35100, Note_on_c, 14, 65, 127
16, 35100, Note_on_c, 14, 68, 127
16, 35125, Note_on_c, 14, 73, 0
16, 35135, Note_on_c, 14, 68, 0
16, 35135, Note_on_c, 14, 65, 0
16, 35517, Note_on_c, 14, 69, 127
16, 35520, Note_on_c, 14, 61, 127
16, 35520, Note_on_c, 14, 66, 127
16, 35539, Note_on_c, 14, 69, 0
16, 35542, Note_on_c, 14, 66, 0
16, 35542, Note_on_c, 14, 61, 0
16, 35544, Note_on_c, 14, 71, 127
16, 35550, Note_on_c, 14, 64, 127
16, 35550, Note_on_c, 14, 68, 127
16, 35560, Note_on_c, 14, 71, 0
16, 35566, Note_on_c, 14, 68, 0
16, 35566, Note_on_c, 14, 64, 0
16, 35572, Note_on_c, 14, 73, 127
16, 35580, Note_on_c, 14, 66, 127
16, 35580, Note_on_c, 14, 69, 127
16, 35640, Note_on_c, 14, 73, 0
16, 35648, Note_on_c, 14, 69, 0
16, 35648, Note_on_c, 14, 66, 0
16, 36960, Note_on_c, 14, 65, 127
16, 36960, Note_on_c, 14, 68, 127
16, 36960, Note_on_c, 14, 73, 127
16, 36960, Note_on_c, 14, 77, 127
16, 36980, Note_on_c, 14, 77, 0
16, 36980, Note_on_c, 14, 65, 0
16, 36980, Note_on_c, 14, 68, 0
16, 36980, Note_on_c, 14, 73, 0
16, 37020, Note_on_c, 14, 63, 127
16, 37020, Note_on_c, 14, 66, 127
16, 37020, Note_on_c, 14, 75, 127
16, 37028, Note_on_c, 14, 70, 127
16, 37050, Note_on_c, 14, 75, 0
16, 37050, Note_on_c, 14, 63, 0
16, 37050, Note_on_c, 14, 66, 0
16, 37058, Note_on_c, 14, 70, 0
16, 37103, Note_on_c, 14, 68, 127
16, 37110, Note_on_c, 14, 61, 127
16, 37110, Note_on_c, 14, 65, 127
16, 37110, Note_on_c, 14, 73, 127
16, 37334, Note_on_c, 14, 68, 0
16, 37341, Note_on_c, 14, 61, 0
16, 37341, Note_on_c, 14, 65, 0
16, 37341, Note_on_c, 14, 73, 0
16, 37341, End_track
17, 0, Start_track
17, 0, MIDI_port, 0
17, 0, Title_t, "      Words & Music By"
17, 0, End_track
18, 0, Start_track
18, 0, MIDI_port, 0
18, 0, Title_t, "            R. Kelly"
18, 0, End_track
19, 0, Start_track
19, 0, MIDI_port, 0
19, 0, Title_t, "************************************"
19, 0, End_track
20, 0, Start_track
20, 0, MIDI_port, 0
20, 0, Title_t, "         Sequenced By "
20, 0, End_track
21, 0, Start_track
21, 0, MIDI_port, 0
21, 0, Title_t, "       Redsal@aol.com"
21, 0, End_track
22, 0, Start_track
22, 0, MIDI_port, 0
22, 0, Title_t, "************************************"
22, 0, End_track
0, 0, End_of_file
