0, 0, Header, 1, 10, 192
1, 0, Start_track
1, 0, Tempo, 810810
1, 0, Time_signature, 4, 2, 24, 8
1, 262143, End_track
2, 0, Start_track
2, 0, Text_t, "Keyboard  "
2, 767, Control_c, 12, 64, 127
2, 768, Note_on_c, 12, 84, 72
2, 768, Note_on_c, 12, 76, 62
2, 768, Note_on_c, 12, 79, 70
2, 768, Note_on_c, 12, 52, 62
2, 768, Note_on_c, 12, 64, 53
2, 857, Note_off_c, 12, 79, 70
2, 864, Note_off_c, 12, 84, 72
2, 864, Note_on_c, 12, 83, 58
2, 868, Note_off_c, 12, 52, 62
2, 872, Note_off_c, 12, 76, 62
2, 875, Note_off_c, 12, 64, 53
2, 882, Note_off_c, 12, 83, 58
2, 898, Control_c, 12, 64, 0
2, 912, Note_on_c, 12, 51, 63
2, 912, Note_on_c, 12, 63, 55
2, 912, Note_on_c, 12, 75, 73
2, 912, Note_on_c, 12, 83, 90
2, 940, Control_c, 12, 64, 127
2, 989, Note_off_c, 12, 83, 90
2, 996, Note_off_c, 12, 75, 73
2, 1008, Note_off_c, 12, 63, 55
2, 1008, Note_on_c, 12, 81, 57
2, 1031, Note_off_c, 12, 51, 63
2, 1039, Note_off_c, 12, 81, 57
2, 1104, Note_on_c, 12, 81, 90
2, 1104, Note_on_c, 12, 62, 66
2, 1104, Note_on_c, 12, 74, 80
2, 1104, Note_on_c, 12, 50, 66
2, 1106, Control_c, 12, 64, 0
2, 1179, Note_off_c, 12, 74, 80
2, 1183, Control_c, 12, 64, 127
2, 1190, Note_off_c, 12, 81, 90
2, 1200, Note_on_c, 12, 79, 74
2, 1233, Note_off_c, 12, 62, 66
2, 1240, Note_off_c, 12, 79, 74
2, 1248, Note_on_c, 12, 74, 46
2, 1286, Note_off_c, 12, 50, 66
2, 1288, Note_off_c, 12, 74, 46
2, 1296, Note_on_c, 12, 57, 49
2, 1296, Note_on_c, 12, 79, 52
2, 1315, Note_off_c, 12, 57, 49
2, 1318, Note_off_c, 12, 79, 52
2, 1329, Control_c, 12, 64, 0
2, 1344, Note_on_c, 12, 49, 62
2, 1344, Note_on_c, 12, 76, 60
2, 1344, Note_on_c, 12, 79, 71
2, 1344, Note_on_c, 12, 83, 78
2, 1344, Note_on_c, 12, 73, 73
2, 1344, Note_on_c, 12, 61, 66
2, 1354, Note_off_c, 12, 76, 60
2, 1372, Control_c, 12, 64, 127
2, 1418, Note_off_c, 12, 79, 71
2, 1424, Note_off_c, 12, 83, 78
2, 1440, Note_on_c, 12, 81, 66
2, 1441, Note_off_c, 12, 73, 73
2, 1444, Note_off_c, 12, 61, 66
2, 1452, Note_off_c, 12, 49, 62
2, 1469, Note_off_c, 12, 81, 66
2, 1488, Note_on_c, 12, 55, 60
2, 1511, Control_c, 12, 64, 0
2, 1514, Note_off_c, 12, 55, 60
2, 1536, Note_on_c, 12, 48, 72
2, 1536, Note_on_c, 12, 60, 76
2, 1536, Note_on_c, 12, 72, 71
2, 1536, Note_on_c, 12, 81, 90
2, 1536, Note_on_c, 12, 76, 82
2, 1548, Control_c, 12, 64, 127
2, 1615, Note_off_c, 12, 81, 90
2, 1624, Note_off_c, 12, 76, 82
2, 1632, Note_on_c, 12, 79, 68
2, 1640, Note_off_c, 12, 60, 76
2, 1644, Note_off_c, 12, 72, 71
2, 1644, Note_off_c, 12, 48, 72
2, 1649, Note_off_c, 12, 79, 68
2, 1664, Control_c, 12, 64, 0
2, 1680, Note_on_c, 12, 71, 56
2, 1680, Note_on_c, 12, 79, 76
2, 1680, Note_on_c, 12, 47, 74
2, 1680, Note_on_c, 12, 59, 71
2, 1712, Control_c, 12, 64, 127
2, 1776, Note_on_c, 12, 78, 64
2, 1790, Note_off_c, 12, 71, 56
2, 1793, Note_off_c, 12, 79, 76
2, 1811, Note_off_c, 12, 78, 64
2, 1816, Note_off_c, 12, 59, 71
2, 1853, Note_off_c, 12, 47, 74
2, 1872, Note_on_c, 12, 74, 80
2, 1872, Note_on_c, 12, 69, 70
2, 1872, Note_on_c, 12, 81, 80
2, 1872, Note_on_c, 12, 59, 63
2, 1872, Note_on_c, 12, 47, 70
2, 1873, Control_c, 12, 64, 0
2, 1920, Control_c, 12, 64, 127
2, 1933, Note_off_c, 12, 81, 80
2, 1938, Note_off_c, 12, 69, 70
2, 1951, Note_off_c, 12, 74, 80
2, 1968, Note_on_c, 12, 79, 90
2, 2005, Note_off_c, 12, 59, 63
2, 2016, Note_on_c, 12, 69, 46
2, 2031, Note_off_c, 12, 79, 90
2, 2041, Note_off_c, 12, 47, 70
2, 2064, Note_on_c, 12, 53, 53
2, 2064, Note_on_c, 12, 74, 64
2, 2081, Note_off_c, 12, 69, 46
2, 2083, Note_off_c, 12, 53, 53
2, 2102, Control_c, 12, 64, 0
2, 2103, Note_off_c, 12, 74, 64
2, 2112, Note_on_c, 12, 58, 73
2, 2112, Note_on_c, 12, 46, 64
2, 2112, Note_on_c, 12, 69, 62
2, 2112, Note_on_c, 12, 78, 104
2, 2139, Control_c, 12, 64, 127
2, 2168, Note_off_c, 12, 78, 104
2, 2168, Note_off_c, 12, 69, 62
2, 2208, Note_on_c, 12, 67, 70
2, 2208, Note_on_c, 12, 76, 86
2, 2224, Note_off_c, 12, 67, 70
2, 2242, Note_off_c, 12, 58, 73
2, 2243, Note_off_c, 12, 76, 86
2, 2256, Note_on_c, 12, 69, 57
2, 2266, Note_off_c, 12, 69, 57
2, 2275, Note_off_c, 12, 46, 64
2, 2285, Control_c, 12, 64, 0
2, 2304, Note_on_c, 12, 78, 100
2, 2304, Note_on_c, 12, 69, 60
2, 2304, Note_on_c, 12, 45, 66
2, 2304, Note_on_c, 12, 57, 70
2, 2319, Control_c, 12, 64, 127
2, 2351, Note_off_c, 12, 78, 100
2, 2354, Note_off_c, 12, 69, 60
2, 2400, Note_on_c, 12, 67, 50
2, 2400, Note_on_c, 12, 76, 64
2, 2413, Note_off_c, 12, 67, 50
2, 2416, Note_off_c, 12, 76, 64
2, 2448, Note_on_c, 12, 67, 66
2, 2448, Note_on_c, 12, 76, 83
2, 2451, Note_off_c, 12, 57, 70
2, 2477, Control_c, 12, 64, 0
2, 2495, Note_off_c, 12, 76, 83
2, 2496, Note_on_c, 12, 57, 83
2, 2505, Note_off_c, 12, 67, 66
2, 2528, Control_c, 12, 64, 127
2, 2544, Note_on_c, 12, 66, 60
2, 2544, Note_on_c, 12, 74, 73
2, 2581, Note_off_c, 12, 66, 60
2, 2588, Note_off_c, 12, 74, 73
2, 2635, Note_off_c, 12, 57, 83
2, 2640, Note_on_c, 12, 67, 68
2, 2640, Note_on_c, 12, 76, 82
2, 2673, Control_c, 12, 64, 0
2, 2675, Note_off_c, 12, 45, 66
2, 2688, Note_on_c, 12, 57, 85
2, 2704, Note_off_c, 12, 76, 82
2, 2711, Control_c, 12, 64, 127
2, 2716, Note_off_c, 12, 67, 68
2, 2736, Note_on_c, 12, 77, 66
2, 2736, Note_on_c, 12, 69, 57
2, 2783, Note_off_c, 12, 77, 66
2, 2796, Note_off_c, 12, 69, 57
2, 2832, Note_on_c, 12, 76, 82
2, 2832, Note_on_c, 12, 67, 62
2, 2880, Note_on_c, 12, 45, 69
2, 2889, Note_off_c, 12, 67, 62
2, 2892, Note_off_c, 12, 76, 82
2, 2928, Note_on_c, 12, 66, 75
2, 2928, Note_on_c, 12, 74, 67
2, 2972, Note_off_c, 12, 66, 75
2, 2975, Note_off_c, 12, 74, 67
2, 3012, Note_off_c, 12, 57, 85
2, 3024, Note_on_c, 12, 67, 70
2, 3024, Note_on_c, 12, 76, 72
2, 3050, Control_c, 12, 64, 0
2, 3072, Note_on_c, 12, 57, 86
2, 3076, Note_off_c, 12, 67, 70
2, 3087, Control_c, 12, 64, 127
2, 3092, Note_off_c, 12, 76, 72
2, 3120, Note_on_c, 12, 69, 55
2, 3120, Note_on_c, 12, 78, 81
2, 3154, Note_off_c, 12, 78, 81
2, 3154, Note_off_c, 12, 69, 55
2, 3208, Note_off_c, 12, 45, 69
2, 3216, Note_on_c, 12, 76, 86
2, 3216, Note_on_c, 12, 67, 70
2, 3233, Note_off_c, 12, 57, 86
2, 3264, Note_on_c, 12, 57, 83
2, 3269, Note_off_c, 12, 76, 86
2, 3277, Note_off_c, 12, 67, 70
2, 3312, Note_on_c, 12, 66, 62
2, 3312, Note_on_c, 12, 74, 76
2, 3360, Note_on_c, 12, 45, 35
2, 3368, Note_off_c, 12, 66, 62
2, 3376, Note_off_c, 12, 45, 35
2, 3384, Note_off_c, 12, 57, 83
2, 3387, Note_off_c, 12, 74, 76
2, 3408, Note_on_c, 12, 55, 78
2, 3408, Note_on_c, 12, 69, 73
2, 3408, Note_on_c, 12, 71, 85
2, 3408, Note_on_c, 12, 70, 52
2, 3415, Note_off_c, 12, 70, 52
2, 3441, Control_c, 12, 64, 0
2, 3456, Note_on_c, 12, 43, 76
2, 3482, Control_c, 12, 64, 127
2, 3488, Note_off_c, 12, 69, 73
2, 3503, Note_off_c, 12, 71, 85
2, 3504, Note_on_c, 12, 62, 41
2, 3535, Note_off_c, 12, 62, 41
2, 3552, Note_on_c, 12, 69, 50
2, 3568, Note_off_c, 12, 55, 78
2, 3573, Note_off_c, 12, 43, 76
2, 3577, Note_off_c, 12, 69, 50
2, 3600, Note_on_c, 12, 64, 45
2, 3600, Note_on_c, 12, 55, 61
2, 3619, Note_off_c, 12, 64, 45
2, 3629, Note_off_c, 12, 55, 61
2, 3640, Control_c, 12, 64, 0
2, 3648, Note_on_c, 12, 64, 62
2, 3648, Note_on_c, 12, 71, 70
2, 3648, Note_on_c, 12, 45, 61
2, 3648, Note_on_c, 12, 57, 66
2, 3673, Control_c, 12, 64, 127
2, 3674, Note_off_c, 12, 64, 62
2, 3683, Note_off_c, 12, 71, 70
2, 3690, Note_off_c, 12, 45, 61
2, 3692, Control_c, 12, 64, 0
2, 3709, Note_off_c, 12, 57, 66
2, 3744, Note_on_c, 12, 73, 84
2, 3744, Note_on_c, 12, 64, 59
2, 3760, Note_off_c, 12, 64, 59
2, 3779, Note_off_c, 12, 73, 84
2, 3792, Note_on_c, 12, 57, 50
2, 3836, Note_off_c, 12, 57, 50
2, 3840, Note_on_c, 12, 62, 62
2, 3840, Note_on_c, 12, 50, 67
2, 3841, Control_c, 12, 64, 127
2, 3869, Note_off_c, 12, 50, 67
2, 3888, Note_on_c, 12, 78, 89
2, 3893, Note_off_c, 12, 62, 62
2, 3936, Note_on_c, 12, 62, 16
2, 3936, Note_on_c, 12, 81, 60
2, 3955, Note_off_c, 12, 62, 16
2, 3961, Control_c, 12, 64, 0
2, 3980, Note_off_c, 12, 81, 60
2, 3984, Note_off_c, 12, 78, 89
2, 3984, Note_on_c, 12, 74, 66
2, 3984, Note_on_c, 12, 83, 78
2, 3984, Note_on_c, 12, 55, 66
2, 3984, Note_on_c, 12, 66, 58
2, 3995, Control_c, 12, 64, 127
2, 4050, Note_off_c, 12, 83, 78
2, 4060, Note_off_c, 12, 74, 66
2, 4080, Note_on_c, 12, 76, 62
2, 4080, Note_on_c, 12, 78, 69
2, 4097, Note_off_c, 12, 76, 62
2, 4132, Note_off_c, 12, 66, 58
2, 4141, Note_off_c, 12, 55, 66
2, 4153, Note_off_c, 12, 78, 69
2, 4167, Control_c, 12, 64, 0
2, 4176, Note_on_c, 12, 76, 66
2, 4176, Note_on_c, 12, 61, 54
2, 4176, Note_on_c, 12, 71, 62
2, 4205, Control_c, 12, 64, 127
2, 4272, Note_on_c, 12, 81, 63
2, 4276, Note_off_c, 12, 71, 62
2, 4276, Note_off_c, 12, 76, 66
2, 4322, Note_off_c, 12, 81, 63
2, 4333, Note_off_c, 12, 61, 54
2, 4368, Note_on_c, 12, 69, 55
2, 4368, Note_on_c, 12, 74, 65
2, 4368, Note_on_c, 12, 78, 46
2, 4393, Control_c, 12, 64, 0
2, 4402, Note_off_c, 12, 74, 65
2, 4406, Note_off_c, 12, 69, 55
2, 4409, Note_off_c, 12, 78, 46
2, 4416, Note_on_c, 12, 59, 56
2, 4431, Control_c, 12, 64, 127
2, 4464, Note_on_c, 12, 66, 79
2, 4464, Note_on_c, 12, 74, 90
2, 4512, Note_on_c, 12, 73, 43
2, 4514, Note_off_c, 12, 74, 90
2, 4515, Note_off_c, 12, 59, 56
2, 4524, Note_off_c, 12, 66, 79
2, 4541, Note_off_c, 12, 73, 43
2, 4560, Note_on_c, 12, 55, 62
2, 4560, Note_on_c, 12, 66, 62
2, 4560, Note_on_c, 12, 62, 64
2, 4560, Note_on_c, 12, 71, 72
2, 4567, Control_c, 12, 64, 0
2, 4604, Control_c, 12, 64, 127
2, 4609, Note_off_c, 12, 71, 72
2, 4609, Note_off_c, 12, 66, 62
2, 4656, Note_on_c, 12, 71, 60
2, 4656, Note_on_c, 12, 66, 48
2, 4674, Note_off_c, 12, 55, 62
2, 4691, Note_off_c, 12, 66, 48
2, 4696, Note_off_c, 12, 62, 64
2, 4704, Note_on_c, 12, 64, 44
2, 4706, Note_off_c, 12, 71, 60
2, 4723, Note_off_c, 12, 64, 44
2, 4750, Control_c, 12, 64, 0
2, 4752, Note_on_c, 12, 71, 66
2, 4752, Note_on_c, 12, 64, 57
2, 4752, Note_on_c, 12, 61, 57
2, 4752, Note_on_c, 12, 54, 51
2, 4810, Control_c, 12, 64, 127
2, 4820, Note_off_c, 12, 64, 57
2, 4848, Note_on_c, 12, 69, 64
2, 4849, Note_off_c, 12, 71, 66
2, 4871, Note_off_c, 12, 61, 57
2, 4875, Note_off_c, 12, 54, 51
2, 4880, Note_off_c, 12, 69, 64
2, 4896, Note_on_c, 12, 64, 48
2, 4918, Note_off_c, 12, 64, 48
2, 4944, Note_on_c, 12, 66, 81
2, 4944, Note_on_c, 12, 71, 75
2, 4953, Control_c, 12, 64, 0
2, 4961, Note_off_c, 12, 71, 75
2, 4961, Note_off_c, 12, 66, 81
2, 4992, Note_on_c, 12, 55, 53
2, 4992, Note_on_c, 12, 62, 55
2, 5040, Note_on_c, 12, 66, 84
2, 5040, Note_on_c, 12, 71, 80
2, 5055, Control_c, 12, 64, 127
2, 5074, Note_off_c, 12, 62, 55
2, 5080, Note_off_c, 12, 55, 53
2, 5088, Note_on_c, 12, 65, 54
2, 5104, Note_off_c, 12, 66, 84
2, 5117, Note_off_c, 12, 65, 54
2, 5117, Note_off_c, 12, 71, 80
2, 5125, Control_c, 12, 64, 0
2, 5136, Note_on_c, 12, 64, 62
2, 5136, Note_on_c, 12, 71, 62
2, 5136, Note_on_c, 12, 61, 53
2, 5136, Note_on_c, 12, 54, 44
2, 5182, Control_c, 12, 64, 127
2, 5227, Note_off_c, 12, 61, 53
2, 5232, Note_on_c, 12, 69, 54
2, 5240, Note_off_c, 12, 54, 44
2, 5244, Note_off_c, 12, 71, 62
2, 5250, Note_off_c, 12, 64, 62
2, 5263, Note_off_c, 12, 69, 54
2, 5328, Note_on_c, 12, 57, 62
2, 5353, Control_c, 12, 64, 0
2, 5375, Note_off_c, 12, 57, 62
2, 5376, Note_on_c, 12, 62, 86
2, 5376, Note_on_c, 12, 50, 85
2, 5392, Control_c, 12, 64, 127
2, 5414, Note_off_c, 12, 50, 85
2, 5424, Note_on_c, 12, 78, 84
2, 5448, Note_off_c, 12, 62, 86
2, 5472, Note_on_c, 12, 81, 75
2, 5472, Note_on_c, 12, 62, 41
2, 5488, Note_off_c, 12, 78, 84
2, 5503, Control_c, 12, 64, 0
2, 5507, Note_off_c, 12, 62, 41
2, 5514, Note_off_c, 12, 81, 75
2, 5520, Note_on_c, 12, 74, 70
2, 5520, Note_on_c, 12, 55, 68
2, 5520, Note_on_c, 12, 83, 80
2, 5520, Note_on_c, 12, 66, 69
2, 5520, Note_on_c, 12, 78, 9
2, 5541, Note_off_c, 12, 78, 9
2, 5541, Control_c, 12, 64, 127
2, 5577, Note_off_c, 12, 83, 80
2, 5577, Note_off_c, 12, 74, 70
2, 5616, Note_on_c, 12, 86, 92
2, 5624, Note_off_c, 12, 55, 68
2, 5649, Note_off_c, 12, 86, 92
2, 5651, Note_off_c, 12, 66, 69
2, 5664, Note_on_c, 12, 82, 25
2, 5677, Note_off_c, 12, 82, 25
2, 5701, Control_c, 12, 64, 0
2, 5712, Note_on_c, 12, 83, 83
2, 5712, Note_on_c, 12, 88, 78
2, 5712, Note_on_c, 12, 61, 71
2, 5712, Note_on_c, 12, 80, 73
2, 5712, Note_on_c, 12, 76, 65
2, 5738, Control_c, 12, 64, 127
2, 5764, Note_off_c, 12, 76, 65
2, 5767, Note_off_c, 12, 80, 73
2, 5770, Note_off_c, 12, 83, 83
2, 5773, Note_off_c, 12, 88, 78
2, 5808, Note_on_c, 12, 90, 109
2, 5821, Note_off_c, 12, 90, 109
2, 5843, Note_off_c, 12, 61, 71
2, 5904, Note_on_c, 12, 86, 88
2, 5942, Control_c, 12, 64, 0
2, 5952, Note_on_c, 12, 59, 63
2, 5952, Note_on_c, 12, 71, 64
2, 5974, Note_off_c, 12, 86, 88
2, 5978, Control_c, 12, 64, 127
2, 6000, Note_on_c, 12, 83, 90
2, 6000, Note_on_c, 12, 81, 47
2, 6013, Note_off_c, 12, 71, 64
2, 6020, Note_off_c, 12, 81, 47
2, 6030, Note_off_c, 12, 59, 63
2, 6039, Note_off_c, 12, 83, 90
2, 6048, Note_on_c, 12, 86, 73
2, 6096, Note_on_c, 12, 83, 79
2, 6104, Note_off_c, 12, 86, 73
2, 6131, Control_c, 12, 64, 0
2, 6144, Note_off_c, 12, 83, 79
2, 6144, Note_on_c, 12, 66, 51
2, 6144, Note_on_c, 12, 55, 72
2, 6161, Note_off_c, 12, 55, 72
2, 6161, Note_off_c, 12, 66, 51
2, 6192, Note_on_c, 12, 78, 96
2, 6192, Note_on_c, 12, 76, 62
2, 6212, Note_off_c, 12, 76, 62
2, 6229, Note_off_c, 12, 78, 96
2, 6240, Note_on_c, 12, 81, 60
2, 6288, Note_on_c, 12, 64, 58
2, 6288, Note_on_c, 12, 78, 86
2, 6288, Note_on_c, 12, 61, 57
2, 6288, Note_on_c, 12, 54, 56
2, 6295, Note_off_c, 12, 64, 58
2, 6303, Note_off_c, 12, 61, 57
2, 6306, Note_off_c, 12, 54, 56
2, 6306, Note_off_c, 12, 81, 60
2, 6312, Note_off_c, 12, 78, 86
2, 6384, Note_on_c, 12, 71, 85
2, 6384, Note_on_c, 12, 69, 57
2, 6401, Note_off_c, 12, 69, 57
2, 6422, Note_off_c, 12, 71, 85
2, 6432, Note_on_c, 12, 74, 66
2, 6480, Note_on_c, 12, 71, 66
2, 6498, Note_off_c, 12, 74, 66
2, 6528, Note_on_c, 12, 55, 60
2, 6528, Note_on_c, 12, 62, 60
2, 6534, Note_off_c, 12, 71, 66
2, 6542, Note_off_c, 12, 62, 60
2, 6542, Note_off_c, 12, 55, 60
2, 6576, Note_on_c, 12, 66, 79
2, 6576, Note_on_c, 12, 64, 53
2, 6596, Note_off_c, 12, 64, 53
2, 6611, Note_off_c, 12, 66, 79
2, 6624, Note_on_c, 12, 69, 60
2, 6661, Note_off_c, 12, 69, 60
2, 6672, Note_on_c, 12, 61, 56
2, 6672, Note_on_c, 12, 66, 68
2, 6672, Note_on_c, 12, 54, 62
2, 6682, Note_off_c, 12, 61, 56
2, 6690, Note_off_c, 12, 54, 62
2, 6690, Note_off_c, 12, 66, 68
2, 6768, Note_on_c, 12, 81, 76
2, 6768, Note_on_c, 12, 83, 104
2, 6782, Note_off_c, 12, 81, 76
2, 6810, Note_off_c, 12, 83, 104
2, 6816, Note_on_c, 12, 86, 72
2, 6864, Note_on_c, 12, 83, 73
2, 6879, Note_off_c, 12, 86, 72
2, 6911, Note_off_c, 12, 83, 73
2, 6912, Note_on_c, 12, 62, 68
2, 6912, Note_on_c, 12, 57, 68
2, 6912, Note_on_c, 12, 64, 62
2, 6925, Note_off_c, 12, 64, 62
2, 6926, Note_off_c, 12, 57, 68
2, 6926, Note_off_c, 12, 62, 68
2, 6960, Note_on_c, 12, 78, 86
2, 6960, Note_on_c, 12, 76, 55
2, 6980, Note_off_c, 12, 76, 55
2, 7000, Note_off_c, 12, 78, 86
2, 7008, Note_on_c, 12, 81, 63
2, 7056, Note_on_c, 12, 78, 77
2, 7056, Note_on_c, 12, 57, 75
2, 7056, Note_on_c, 12, 64, 63
2, 7056, Note_on_c, 12, 62, 67
2, 7063, Note_off_c, 12, 81, 63
2, 7070, Note_off_c, 12, 62, 67
2, 7070, Note_off_c, 12, 64, 63
2, 7070, Note_off_c, 12, 57, 75
2, 7076, Note_off_c, 12, 78, 77
2, 7152, Note_on_c, 12, 71, 90
2, 7152, Note_on_c, 12, 69, 60
2, 7165, Note_off_c, 12, 69, 60
2, 7187, Note_off_c, 12, 71, 90
2, 7200, Note_on_c, 12, 69, 60
2, 7241, Note_off_c, 12, 69, 60
2, 7248, Note_on_c, 12, 71, 63
2, 7291, Note_off_c, 12, 71, 63
2, 7296, Note_on_c, 12, 62, 53
2, 7296, Note_on_c, 12, 50, 48
2, 7333, Control_c, 12, 64, 127
2, 7344, Note_on_c, 12, 69, 60
2, 7344, Note_on_c, 12, 74, 63
2, 7431, Note_off_c, 12, 69, 60
2, 7487, Note_off_c, 12, 50, 48
2, 7488, Note_on_c, 12, 71, 58
2, 7488, Note_on_c, 12, 67, 58
2, 7488, Note_on_c, 12, 55, 70
2, 7514, Note_off_c, 12, 67, 58
2, 7514, Note_off_c, 12, 71, 58
2, 7518, Note_off_c, 12, 55, 70
2, 7543, Control_c, 12, 64, 0
2, 7584, Note_on_c, 12, 73, 51
2, 7584, Note_on_c, 12, 69, 52
2, 7584, Note_on_c, 12, 57, 63
2, 7607, Note_off_c, 12, 57, 63
2, 7610, Note_off_c, 12, 69, 52
2, 7613, Note_off_c, 12, 73, 51
2, 7629, Note_off_c, 12, 74, 63
2, 7675, Control_c, 12, 64, 127
2, 7680, Note_on_c, 12, 50, 76
2, 7709, Note_off_c, 12, 50, 76
2, 7728, Note_on_c, 12, 78, 89
2, 7739, Note_off_c, 12, 62, 53
2, 7776, Note_on_c, 12, 81, 64
2, 7819, Control_c, 12, 64, 0
2, 7824, Note_on_c, 12, 74, 67
2, 7824, Note_on_c, 12, 55, 58
2, 7824, Note_on_c, 12, 83, 69
2, 7824, Note_on_c, 12, 66, 50
2, 7827, Note_off_c, 12, 81, 64
2, 7833, Note_off_c, 12, 78, 89
2, 7855, Control_c, 12, 64, 127
2, 7885, Note_off_c, 12, 83, 69
2, 7905, Note_off_c, 12, 74, 67
2, 7920, Note_on_c, 12, 78, 81
2, 7920, Note_on_c, 12, 76, 54
2, 7927, Note_off_c, 12, 76, 54
2, 7942, Note_off_c, 12, 78, 81
2, 7976, Note_off_c, 12, 55, 58
2, 7984, Note_off_c, 12, 66, 50
2, 8016, Note_on_c, 12, 61, 47
2, 8016, Note_on_c, 12, 69, 50
2, 8016, Note_on_c, 12, 76, 72
2, 8016, Note_on_c, 12, 71, 48
2, 8020, Control_c, 12, 64, 0
2, 8041, Note_off_c, 12, 69, 50
2, 8067, Control_c, 12, 64, 127
2, 8105, Note_off_c, 12, 71, 48
2, 8112, Note_on_c, 12, 81, 62
2, 8121, Note_off_c, 12, 76, 72
2, 8160, Note_off_c, 12, 61, 47
2, 8179, Note_off_c, 12, 81, 62
2, 8208, Note_on_c, 12, 78, 50
2, 8208, Note_on_c, 12, 69, 52
2, 8208, Note_on_c, 12, 74, 66
2, 8235, Control_c, 12, 64, 0
2, 8246, Note_off_c, 12, 74, 66
2, 8246, Note_off_c, 12, 69, 52
2, 8250, Note_off_c, 12, 78, 50
2, 8256, Note_on_c, 12, 59, 54
2, 8271, Control_c, 12, 64, 127
2, 8304, Note_on_c, 12, 74, 86
2, 8304, Note_on_c, 12, 69, 66
2, 8330, Note_off_c, 12, 69, 66
2, 8341, Note_off_c, 12, 59, 54
2, 8349, Note_off_c, 12, 74, 86
2, 8352, Note_on_c, 12, 73, 29
2, 8381, Note_off_c, 12, 73, 29
2, 8400, Note_on_c, 12, 71, 65
2, 8400, Note_on_c, 12, 66, 44
2, 8436, Note_off_c, 12, 71, 65
2, 8442, Note_off_c, 12, 66, 44
2, 8447, Control_c, 12, 64, 0
2, 8448, Note_on_c, 12, 55, 64
2, 8448, Note_on_c, 12, 62, 62
2, 8492, Control_c, 12, 64, 127
2, 8496, Note_on_c, 12, 71, 57
2, 8496, Note_on_c, 12, 66, 47
2, 8530, Note_off_c, 12, 66, 47
2, 8546, Note_off_c, 12, 71, 57
2, 8552, Note_off_c, 12, 55, 64
2, 8568, Note_off_c, 12, 62, 62
2, 8592, Note_on_c, 12, 71, 57
2, 8592, Note_on_c, 12, 64, 59
2, 8592, Note_on_c, 12, 69, 62
2, 8592, Note_on_c, 12, 73, 55
2, 8592, Note_on_c, 12, 54, 43
2, 8601, Control_c, 12, 64, 0
2, 8648, Note_off_c, 12, 71, 57
2, 8655, Note_off_c, 12, 69, 62
2, 8657, Control_c, 12, 64, 127
2, 8659, Note_off_c, 12, 73, 55
2, 8688, Note_on_c, 12, 69, 44
2, 8732, Note_off_c, 12, 69, 44
2, 8757, Note_off_c, 12, 54, 43
2, 8757, Note_off_c, 12, 64, 59
2, 8784, Note_on_c, 12, 71, 76
2, 8784, Note_on_c, 12, 69, 66
2, 8784, Note_on_c, 12, 62, 62
2, 8822, Control_c, 12, 64, 0
2, 8832, Note_on_c, 12, 55, 66
2, 8838, Note_off_c, 12, 69, 66
2, 8857, Control_c, 12, 64, 127
2, 8863, Note_off_c, 12, 71, 76
2, 8880, Note_on_c, 12, 69, 58
2, 8928, Note_on_c, 12, 71, 48
2, 8929, Note_off_c, 12, 55, 66
2, 8940, Note_off_c, 12, 69, 58
2, 8948, Note_off_c, 12, 71, 48
2, 8949, Note_off_c, 12, 62, 62
2, 8976, Note_on_c, 12, 71, 75
2, 8976, Note_on_c, 12, 54, 41
2, 8976, Note_on_c, 12, 69, 66
2, 8976, Note_on_c, 12, 64, 55
2, 8986, Note_off_c, 12, 54, 41
2, 9010, Control_c, 12, 64, 0
2, 9024, Note_off_c, 12, 64, 55
2, 9024, Note_on_c, 12, 54, 69
2, 9024, Note_on_c, 12, 64, 42
2, 9037, Note_off_c, 12, 69, 66
2, 9043, Control_c, 12, 64, 127
2, 9059, Note_off_c, 12, 71, 75
2, 9072, Note_on_c, 12, 69, 71
2, 9098, Note_off_c, 12, 64, 42
2, 9106, Note_off_c, 12, 54, 69
2, 9116, Note_off_c, 12, 69, 71
2, 9168, Note_on_c, 12, 57, 60
2, 9168, Note_on_c, 12, 69, 57
2, 9194, Note_off_c, 12, 69, 57
2, 9194, Control_c, 12, 64, 0
2, 9207, Note_off_c, 12, 57, 60
2, 9216, Note_on_c, 12, 62, 74
2, 9216, Note_on_c, 12, 50, 82
2, 9231, Control_c, 12, 64, 127
2, 9261, Note_off_c, 12, 50, 82
2, 9264, Note_on_c, 12, 78, 75
2, 9264, Note_on_c, 12, 69, 55
2, 9293, Note_off_c, 12, 62, 74
2, 9305, Note_off_c, 12, 69, 55
2, 9312, Note_on_c, 12, 81, 64
2, 9312, Note_on_c, 12, 62, 48
2, 9322, Note_off_c, 12, 78, 75
2, 9344, Note_off_c, 12, 62, 48
2, 9344, Note_off_c, 12, 81, 64
2, 9352, Control_c, 12, 64, 0
2, 9360, Note_on_c, 12, 78, 66
2, 9360, Note_on_c, 12, 74, 74
2, 9360, Note_on_c, 12, 83, 71
2, 9360, Note_on_c, 12, 66, 71
2, 9360, Note_on_c, 12, 55, 61
2, 9395, Control_c, 12, 64, 127
2, 9414, Note_off_c, 12, 74, 74
2, 9417, Note_off_c, 12, 78, 66
2, 9424, Note_off_c, 12, 83, 71
2, 9456, Note_on_c, 12, 86, 90
2, 9478, Note_off_c, 12, 55, 61
2, 9488, Note_off_c, 12, 86, 90
2, 9532, Note_off_c, 12, 66, 71
2, 9550, Control_c, 12, 64, 0
2, 9552, Note_on_c, 12, 83, 83
2, 9552, Note_on_c, 12, 88, 79
2, 9552, Note_on_c, 12, 80, 69
2, 9552, Note_on_c, 12, 61, 56
2, 9552, Note_on_c, 12, 76, 66
2, 9583, Control_c, 12, 64, 127
2, 9604, Note_off_c, 12, 76, 66
2, 9607, Note_off_c, 12, 80, 69
2, 9610, Note_off_c, 12, 83, 83
2, 9613, Note_off_c, 12, 88, 79
2, 9648, Note_on_c, 12, 90, 100
2, 9655, Note_off_c, 12, 61, 56
2, 9661, Note_off_c, 12, 90, 100
2, 9744, Note_on_c, 12, 86, 78
2, 9744, Note_on_c, 12, 81, 61
2, 9778, Control_c, 12, 64, 0
2, 9792, Note_on_c, 12, 66, 58
2, 9792, Note_on_c, 12, 59, 66
2, 9804, Note_off_c, 12, 81, 61
2, 9808, Note_off_c, 12, 86, 78
2, 9810, Control_c, 12, 64, 127
2, 9840, Note_on_c, 12, 83, 101
2, 9840, Note_on_c, 12, 81, 71
2, 9857, Note_off_c, 12, 81, 71
2, 9863, Note_off_c, 12, 66, 58
2, 9873, Note_off_c, 12, 59, 66
2, 9882, Note_off_c, 12, 83, 101
2, 9888, Note_on_c, 12, 86, 69
2, 9936, Note_on_c, 12, 83, 79
2, 9948, Note_off_c, 12, 86, 69
2, 9974, Control_c, 12, 64, 0
2, 9984, Note_on_c, 12, 62, 68
2, 9984, Note_on_c, 12, 66, 56
2, 9984, Note_on_c, 12, 55, 67
2, 9998, Note_off_c, 12, 83, 79
2, 10010, Control_c, 12, 64, 127
2, 10032, Note_on_c, 12, 78, 96
2, 10032, Note_on_c, 12, 76, 65
2, 10039, Note_off_c, 12, 66, 56
2, 10045, Note_off_c, 12, 62, 68
2, 10049, Note_off_c, 12, 55, 67
2, 10056, Note_off_c, 12, 76, 65
2, 10062, Note_off_c, 12, 78, 96
2, 10080, Note_on_c, 12, 81, 55
2, 10113, Control_c, 12, 64, 0
2, 10128, Note_on_c, 12, 61, 54
2, 10128, Note_on_c, 12, 78, 86
2, 10128, Note_on_c, 12, 64, 63
2, 10128, Note_on_c, 12, 54, 55
2, 10142, Note_off_c, 12, 64, 63
2, 10142, Note_off_c, 12, 61, 54
2, 10145, Note_off_c, 12, 54, 55
2, 10152, Note_off_c, 12, 78, 86
2, 10158, Note_off_c, 12, 81, 55
2, 10224, Note_on_c, 12, 71, 83
2, 10224, Note_on_c, 12, 69, 58
2, 10247, Note_off_c, 12, 69, 58
2, 10265, Note_off_c, 12, 71, 83
2, 10272, Note_on_c, 12, 74, 66
2, 10320, Note_on_c, 12, 55, 70
2, 10320, Note_on_c, 12, 62, 65
2, 10320, Note_on_c, 12, 71, 68
2, 10333, Note_off_c, 12, 74, 66
2, 10334, Note_off_c, 12, 62, 65
2, 10334, Note_off_c, 12, 55, 70
2, 10349, Note_off_c, 12, 71, 68
2, 10416, Note_on_c, 12, 66, 96
2, 10416, Note_on_c, 12, 64, 64
2, 10444, Note_off_c, 12, 64, 64
2, 10457, Note_off_c, 12, 66, 96
2, 10464, Note_on_c, 12, 69, 56
2, 10512, Note_on_c, 12, 66, 81
2, 10527, Note_off_c, 12, 69, 56
2, 10560, Note_on_c, 12, 61, 44
2, 10560, Note_on_c, 12, 54, 50
2, 10566, Note_off_c, 12, 66, 81
2, 10569, Note_off_c, 12, 61, 44
2, 10577, Note_off_c, 12, 54, 50
2, 10608, Note_on_c, 12, 81, 92
2, 10608, Note_on_c, 12, 83, 107
2, 10621, Note_off_c, 12, 81, 92
2, 10652, Note_off_c, 12, 83, 107
2, 10656, Note_on_c, 12, 86, 69
2, 10704, Note_on_c, 12, 83, 71
2, 10720, Note_off_c, 12, 86, 69
2, 10752, Note_on_c, 12, 62, 61
2, 10752, Note_on_c, 12, 55, 66
2, 10758, Note_off_c, 12, 83, 71
2, 10763, Note_off_c, 12, 62, 61
2, 10766, Note_off_c, 12, 55, 66
2, 10800, Note_on_c, 12, 78, 92
2, 10800, Note_on_c, 12, 76, 62
2, 10820, Note_off_c, 12, 76, 62
2, 10841, Note_off_c, 12, 78, 92
2, 10848, Note_on_c, 12, 81, 59
2, 10896, Note_on_c, 12, 78, 77
2, 10896, Note_on_c, 12, 57, 66
2, 10896, Note_on_c, 12, 64, 58
2, 10896, Note_on_c, 12, 62, 62
2, 10906, Note_off_c, 12, 64, 58
2, 10906, Note_off_c, 12, 81, 59
2, 10910, Note_off_c, 12, 62, 62
2, 10910, Note_off_c, 12, 57, 66
2, 10922, Note_off_c, 12, 78, 77
2, 10992, Note_on_c, 12, 71, 92
2, 10992, Note_on_c, 12, 69, 66
2, 11012, Note_off_c, 12, 69, 66
2, 11033, Note_off_c, 12, 71, 92
2, 11040, Note_on_c, 12, 69, 54
2, 11078, Note_off_c, 12, 69, 54
2, 11088, Note_on_c, 12, 50, 58
2, 11088, Note_on_c, 12, 62, 60
2, 11088, Note_on_c, 12, 71, 63
2, 11129, Control_c, 12, 64, 127
2, 11133, Note_off_c, 12, 71, 63
2, 11184, Note_on_c, 12, 69, 62
2, 11184, Note_on_c, 12, 74, 66
2, 11184, Note_on_c, 12, 66, 40
2, 11206, Note_off_c, 12, 66, 40
2, 11232, Note_off_c, 12, 62, 60
2, 11274, Note_off_c, 12, 69, 62
2, 11280, Note_on_c, 12, 66, 26
2, 11328, Note_on_c, 12, 62, 59
2, 11361, Note_off_c, 12, 66, 26
2, 11423, Note_off_c, 12, 50, 58
2, 11424, Note_on_c, 12, 66, 24
2, 11431, Note_off_c, 12, 74, 66
2, 11448, Note_off_c, 12, 66, 24
2, 11452, Note_off_c, 12, 62, 59
2, 11472, Note_on_c, 12, 50, 55
2, 11488, Note_off_c, 12, 50, 55
2, 11497, Control_c, 12, 64, 0
2, 11520, Note_on_c, 12, 76, 76
2, 11520, Note_on_c, 12, 45, 70
2, 11520, Note_on_c, 12, 69, 57
2, 11520, Note_on_c, 12, 57, 66
2, 11536, Control_c, 12, 64, 127
2, 11568, Note_on_c, 12, 73, 7
2, 11575, Note_off_c, 12, 69, 57
2, 11584, Note_off_c, 12, 73, 7
2, 11586, Note_off_c, 12, 76, 76
2, 11596, Note_off_c, 12, 45, 70
2, 11616, Note_on_c, 12, 69, 49
2, 11632, Note_off_c, 12, 57, 66
2, 11642, Note_off_c, 12, 69, 49
2, 11664, Note_on_c, 12, 73, 43
2, 11687, Note_off_c, 12, 73, 43
2, 11712, Note_on_c, 12, 66, 77
2, 11712, Note_on_c, 12, 73, 63
2, 11712, Note_on_c, 12, 58, 46
2, 11712, Note_on_c, 12, 46, 58
2, 11721, Control_c, 12, 64, 0
2, 11764, Control_c, 12, 64, 127
2, 11808, Note_on_c, 12, 78, 57
2, 11813, Note_off_c, 12, 73, 63
2, 11825, Note_off_c, 12, 66, 77
2, 11833, Note_off_c, 12, 46, 58
2, 11836, Note_off_c, 12, 58, 46
2, 11844, Note_off_c, 12, 78, 57
2, 11854, Control_c, 12, 64, 0
2, 11856, Note_on_c, 12, 47, 78
2, 11856, Note_on_c, 12, 66, 49
2, 11856, Note_on_c, 12, 59, 66
2, 11856, Note_on_c, 12, 71, 69
2, 11856, Note_on_c, 12, 74, 76
2, 11899, Control_c, 12, 64, 127
2, 11943, Note_off_c, 12, 47, 78
2, 11947, Note_off_c, 12, 74, 76
2, 11947, Note_off_c, 12, 71, 69
2, 11952, Note_on_c, 12, 78, 71
2, 11955, Note_off_c, 12, 66, 49
2, 11967, Note_off_c, 12, 59, 66
2, 11990, Note_off_c, 12, 78, 71
2, 12047, Control_c, 12, 64, 0
2, 12048, Note_on_c, 12, 49, 68
2, 12048, Note_on_c, 12, 76, 75
2, 12048, Note_on_c, 12, 73, 60
2, 12048, Note_on_c, 12, 61, 57
2, 12048, Note_on_c, 12, 71, 62
2, 12084, Control_c, 12, 64, 127
2, 12100, Note_off_c, 12, 73, 60
2, 12140, Note_off_c, 12, 71, 62
2, 12144, Note_on_c, 12, 73, 56
2, 12148, Note_off_c, 12, 49, 68
2, 12163, Note_off_c, 12, 61, 57
2, 12176, Note_off_c, 12, 76, 75
2, 12185, Note_off_c, 12, 73, 56
2, 12192, Note_on_c, 12, 71, 55
2, 12217, Note_off_c, 12, 71, 55
2, 12240, Note_on_c, 12, 57, 48
2, 12272, Note_off_c, 12, 57, 48
2, 12277, Control_c, 12, 64, 0
2, 12288, Note_on_c, 12, 50, 72
2, 12288, Note_on_c, 12, 62, 62
2, 12288, Note_on_c, 12, 78, 68
2, 12288, Note_on_c, 12, 69, 62
2, 12288, Note_on_c, 12, 76, 71
2, 12311, Control_c, 12, 64, 127
2, 12339, Note_off_c, 12, 69, 62
2, 12352, Note_off_c, 12, 78, 68
2, 12355, Note_off_c, 12, 76, 71
2, 12384, Note_on_c, 12, 81, 46
2, 12387, Note_off_c, 12, 62, 62
2, 12387, Note_off_c, 12, 50, 72
2, 12406, Note_off_c, 12, 81, 46
2, 12432, Note_on_c, 12, 80, 59
2, 12432, Note_on_c, 12, 61, 71
2, 12432, Note_on_c, 12, 49, 62
2, 12432, Note_on_c, 12, 73, 84
2, 12432, Note_on_c, 12, 77, 85
2, 12441, Control_c, 12, 64, 0
2, 12491, Note_off_c, 12, 80, 59
2, 12499, Note_off_c, 12, 73, 84
2, 12501, Control_c, 12, 64, 127
2, 12503, Note_off_c, 12, 77, 85
2, 12526, Note_off_c, 12, 49, 62
2, 12528, Note_on_c, 12, 81, 66
2, 12528, Note_on_c, 12, 73, 22
2, 12542, Note_off_c, 12, 61, 71
2, 12551, Note_off_c, 12, 73, 22
2, 12566, Note_off_c, 12, 81, 66
2, 12624, Note_on_c, 12, 54, 63
2, 12624, Note_on_c, 12, 81, 69
2, 12624, Note_on_c, 12, 73, 55
2, 12624, Note_on_c, 12, 66, 55
2, 12633, Control_c, 12, 64, 0
2, 12673, Control_c, 12, 64, 127
2, 12682, Note_off_c, 12, 73, 55
2, 12716, Note_off_c, 12, 81, 69
2, 12720, Note_on_c, 12, 73, 54
2, 12752, Note_off_c, 12, 54, 63
2, 12768, Note_on_c, 12, 78, 51
2, 12771, Note_off_c, 12, 73, 54
2, 12783, Note_off_c, 12, 66, 55
2, 12791, Note_off_c, 12, 78, 51
2, 12816, Note_on_c, 12, 68, 56
2, 12816, Note_on_c, 12, 78, 60
2, 12816, Note_on_c, 12, 83, 78
2, 12816, Note_on_c, 12, 56, 62
2, 12821, Control_c, 12, 64, 0
2, 12861, Control_c, 12, 64, 127
2, 12864, Note_on_c, 12, 80, 62
2, 12871, Note_off_c, 12, 78, 60
2, 12910, Note_off_c, 12, 80, 62
2, 12912, Note_on_c, 12, 76, 52
2, 12960, Note_on_c, 12, 80, 40
2, 12964, Note_off_c, 12, 68, 56
2, 12972, Note_off_c, 12, 76, 52
2, 12974, Note_off_c, 12, 56, 62
2, 12986, Note_off_c, 12, 80, 40
2, 13006, Note_off_c, 12, 83, 78
2, 13008, Note_on_c, 12, 64, 54
2, 13039, Note_off_c, 12, 64, 54
2, 13051, Control_c, 12, 64, 0
2, 13056, Note_on_c, 12, 81, 66
2, 13056, Note_on_c, 12, 57, 66
2, 13056, Note_on_c, 12, 69, 78
2, 13056, Note_on_c, 12, 73, 71
2, 13087, Control_c, 12, 64, 127
2, 13134, Note_off_c, 12, 73, 71
2, 13140, Note_off_c, 12, 81, 66
2, 13152, Note_on_c, 12, 76, 45
2, 13152, Note_on_c, 12, 73, 28
2, 13152, Note_on_c, 12, 85, 66
2, 13159, Note_off_c, 12, 76, 45
2, 13179, Note_off_c, 12, 73, 28
2, 13189, Note_off_c, 12, 69, 78
2, 13205, Note_off_c, 12, 57, 66
2, 13222, Note_off_c, 12, 85, 66
2, 13241, Control_c, 12, 64, 0
2, 13248, Note_on_c, 12, 81, 66
2, 13248, Note_on_c, 12, 73, 54
2, 13248, Note_on_c, 12, 55, 71
2, 13248, Note_on_c, 12, 67, 67
2, 13248, Note_on_c, 12, 85, 71
2, 13248, Note_on_c, 12, 76, 75
2, 13274, Control_c, 12, 64, 127
2, 13290, Note_off_c, 12, 76, 75
2, 13290, Note_off_c, 12, 73, 54
2, 13292, Note_off_c, 12, 81, 66
2, 13296, Note_on_c, 12, 86, 83
2, 13301, Note_off_c, 12, 85, 71
2, 13312, Note_off_c, 12, 86, 83
2, 13344, Note_on_c, 12, 88, 86
2, 13367, Note_off_c, 12, 88, 86
2, 13370, Note_off_c, 12, 67, 67
2, 13374, Note_off_c, 12, 55, 71
2, 13392, Note_on_c, 12, 66, 57
2, 13392, Note_on_c, 12, 54, 57
2, 13392, Note_on_c, 12, 88, 82
2, 13409, Control_c, 12, 64, 0
2, 13440, Note_on_c, 12, 86, 62
2, 13443, Control_c, 12, 64, 127
2, 13458, Note_off_c, 12, 88, 82
2, 13480, Note_off_c, 12, 86, 62
2, 13536, Note_on_c, 12, 81, 50
2, 13552, Note_off_c, 12, 81, 50
2, 13554, Note_off_c, 12, 66, 57
2, 13559, Note_off_c, 12, 54, 57
2, 13584, Note_on_c, 12, 81, 76
2, 13612, Note_off_c, 12, 81, 76
2, 13632, Note_on_c, 12, 59, 53
2, 13632, Note_on_c, 12, 69, 52
2, 13680, Note_on_c, 12, 78, 64
2, 13680, Note_on_c, 12, 76, 75
2, 13700, Note_off_c, 12, 76, 75
2, 13719, Note_off_c, 12, 69, 52
2, 13720, Note_off_c, 12, 59, 53
2, 13728, Note_on_c, 12, 76, 51
2, 13740, Note_off_c, 12, 78, 64
2, 13756, Note_off_c, 12, 76, 51
2, 13776, Note_on_c, 12, 74, 65
2, 13795, Note_off_c, 12, 74, 65
2, 13818, Control_c, 12, 64, 0
2, 13824, Note_on_c, 12, 74, 82
2, 13824, Note_on_c, 12, 71, 58
2, 13824, Note_on_c, 12, 67, 57
2, 13824, Note_on_c, 12, 69, 57
2, 13824, Note_on_c, 12, 79, 75
2, 13824, Note_on_c, 12, 83, 68
2, 13824, Note_on_c, 12, 57, 66
2, 13858, Control_c, 12, 64, 127
2, 13869, Note_off_c, 12, 69, 57
2, 13869, Note_off_c, 12, 67, 57
2, 13887, Note_off_c, 12, 71, 58
2, 13906, Note_off_c, 12, 74, 82
2, 13913, Note_off_c, 12, 79, 75
2, 13917, Note_off_c, 12, 83, 68
2, 13920, Note_on_c, 12, 71, 56
2, 13940, Note_off_c, 12, 71, 56
2, 13947, Note_off_c, 12, 57, 66
2, 13968, Note_on_c, 12, 57, 59
2, 13968, Note_on_c, 12, 69, 55
2, 13968, Note_on_c, 12, 64, 57
2, 13968, Note_on_c, 12, 73, 54
2, 13968, Note_on_c, 12, 76, 62
2, 13968, Note_on_c, 12, 81, 62
2, 13969, Control_c, 12, 64, 0
2, 14002, Control_c, 12, 64, 127
2, 14021, Note_off_c, 12, 69, 55
2, 14049, Note_off_c, 12, 64, 57
2, 14053, Note_off_c, 12, 73, 54
2, 14062, Note_off_c, 12, 76, 62
2, 14065, Note_off_c, 12, 57, 59
2, 14069, Note_off_c, 12, 81, 62
2, 14208, Note_on_c, 12, 86, 45
2, 14208, Note_on_c, 12, 79, 58
2, 14208, Note_on_c, 12, 74, 55
2, 14208, Note_on_c, 12, 57, 54
2, 14208, Note_on_c, 12, 83, 57
2, 14218, Note_off_c, 12, 86, 45
2, 14222, Note_off_c, 12, 83, 57
2, 14222, Note_off_c, 12, 74, 55
2, 14226, Note_off_c, 12, 79, 58
2, 14236, Note_off_c, 12, 57, 54
2, 14256, Note_on_c, 12, 79, 48
2, 14256, Note_on_c, 12, 74, 42
2, 14256, Note_on_c, 12, 83, 52
2, 14256, Note_on_c, 12, 57, 50
2, 14266, Note_off_c, 12, 83, 52
2, 14266, Note_off_c, 12, 74, 42
2, 14266, Note_off_c, 12, 79, 48
2, 14283, Note_off_c, 12, 57, 50
2, 14304, Note_on_c, 12, 79, 79
2, 14304, Note_on_c, 12, 86, 73
2, 14304, Note_on_c, 12, 83, 80
2, 14304, Note_on_c, 12, 74, 55
2, 14304, Note_on_c, 12, 57, 55
2, 14317, Note_off_c, 12, 74, 55
2, 14317, Note_off_c, 12, 83, 80
2, 14317, Note_off_c, 12, 86, 73
2, 14317, Note_off_c, 12, 79, 79
2, 14328, Note_off_c, 12, 57, 55
2, 14352, Note_on_c, 12, 82, 63
2, 14352, Note_on_c, 12, 86, 88
2, 14352, Note_on_c, 12, 83, 107
2, 14352, Note_on_c, 12, 79, 101
2, 14352, Note_on_c, 12, 74, 86
2, 14352, Note_on_c, 12, 57, 66
2, 14356, Note_off_c, 12, 82, 63
2, 14373, Note_off_c, 12, 74, 86
2, 14373, Note_off_c, 12, 79, 101
2, 14373, Note_off_c, 12, 83, 107
2, 14376, Note_off_c, 12, 57, 66
2, 14377, Note_off_c, 12, 86, 88
2, 14400, Note_on_c, 12, 57, 75
2, 14472, Control_c, 12, 64, 0
2, 14496, Note_on_c, 12, 76, 80
2, 14496, Note_on_c, 12, 81, 94
2, 14496, Note_on_c, 12, 85, 104
2, 14531, Control_c, 12, 64, 127
2, 14544, Note_off_c, 12, 57, 75
2, 14544, Note_on_c, 12, 62, 70
2, 14544, Control_c, 12, 64, 0
2, 14545, Note_off_c, 12, 81, 94
2, 14549, Note_off_c, 12, 85, 104
2, 14555, Note_off_c, 12, 76, 80
2, 14567, Note_off_c, 12, 62, 70
2, 14592, Note_on_c, 12, 50, 82
2, 14592, Note_on_c, 12, 62, 42
2, 14612, Control_c, 12, 64, 127
2, 14619, Control_c, 12, 64, 0
2, 14640, Note_on_c, 12, 74, 63
2, 14640, Note_on_c, 12, 78, 68
2, 14650, Control_c, 12, 64, 127
2, 14675, Note_off_c, 12, 74, 63
2, 14687, Note_off_c, 12, 50, 82
2, 14688, Note_on_c, 12, 69, 45
2, 14695, Note_off_c, 12, 78, 68
2, 14703, Note_off_c, 12, 69, 45
2, 14721, Note_off_c, 12, 62, 42
2, 14730, Control_c, 12, 64, 0
2, 14736, Note_on_c, 12, 66, 35
2, 14736, Note_on_c, 12, 55, 60
2, 14736, Note_on_c, 12, 74, 74
2, 14736, Note_on_c, 12, 78, 73
2, 14736, Note_on_c, 12, 69, 67
2, 14736, Note_on_c, 12, 71, 66
2, 14736, Note_on_c, 12, 62, 41
2, 14736, Note_on_c, 12, 54, 37
2, 14751, Note_off_c, 12, 54, 37
2, 14784, Note_off_c, 12, 71, 66
2, 14787, Note_off_c, 12, 69, 67
2, 14803, Note_off_c, 12, 74, 74
2, 14813, Note_off_c, 12, 78, 73
2, 14832, Note_on_c, 12, 71, 32
2, 14832, Note_on_c, 12, 69, 43
2, 14845, Note_off_c, 12, 71, 32
2, 14850, Control_c, 12, 64, 127
2, 14853, Note_off_c, 12, 69, 43
2, 14880, Note_on_c, 12, 78, 46
2, 14899, Note_off_c, 12, 62, 41
2, 14910, Note_off_c, 12, 55, 60
2, 14928, Note_on_c, 12, 71, 66
2, 14928, Note_on_c, 12, 76, 66
2, 14939, Control_c, 12, 64, 0
2, 14970, Note_off_c, 12, 66, 35
2, 14976, Note_on_c, 12, 61, 69
2, 14994, Note_off_c, 12, 71, 66
2, 14995, Note_off_c, 12, 61, 69
2, 15008, Note_off_c, 12, 76, 66
2, 15009, Control_c, 12, 64, 127
2, 15023, Note_off_c, 12, 78, 46
2, 15024, Note_on_c, 12, 71, 58
2, 15024, Note_on_c, 12, 61, 12
2, 15024, Note_on_c, 12, 62, 67
2, 15065, Note_off_c, 12, 62, 67
2, 15072, Note_on_c, 12, 76, 36
2, 15095, Note_off_c, 12, 71, 58
2, 15097, Note_off_c, 12, 76, 36
2, 15120, Note_on_c, 12, 78, 49
2, 15120, Note_on_c, 12, 59, 68
2, 15120, Note_on_c, 12, 69, 58
2, 15120, Note_on_c, 12, 74, 69
2, 15123, Control_c, 12, 64, 0
2, 15124, Note_off_c, 12, 61, 12
2, 15180, Note_off_c, 12, 69, 58
2, 15196, Note_off_c, 12, 74, 69
2, 15206, Control_c, 12, 64, 127
2, 15215, Note_off_c, 12, 78, 49
2, 15216, Note_on_c, 12, 69, 58
2, 15238, Note_off_c, 12, 59, 68
2, 15264, Note_on_c, 12, 78, 47
2, 15269, Note_off_c, 12, 69, 58
2, 15296, Note_off_c, 12, 78, 47
2, 15312, Note_on_c, 12, 62, 57
2, 15312, Note_on_c, 12, 59, 35
2, 15341, Note_off_c, 12, 59, 35
2, 15348, Control_c, 12, 64, 0
2, 15360, Note_on_c, 12, 78, 63
2, 15360, Note_on_c, 12, 71, 62
2, 15360, Note_on_c, 12, 74, 67
2, 15360, Note_on_c, 12, 55, 51
2, 15383, Note_off_c, 12, 71, 62
2, 15385, Control_c, 12, 64, 127
2, 15387, Note_off_c, 12, 74, 67
2, 15391, Note_off_c, 12, 78, 63
2, 15408, Note_on_c, 12, 66, 51
2, 15450, Note_off_c, 12, 62, 57
2, 15456, Note_on_c, 12, 71, 67
2, 15456, Note_on_c, 12, 74, 85
2, 15456, Note_on_c, 12, 78, 96
2, 15464, Note_off_c, 12, 74, 85
2, 15468, Note_off_c, 12, 71, 67
2, 15474, Note_off_c, 12, 78, 96
2, 15474, Note_off_c, 12, 55, 51
2, 15484, Note_off_c, 12, 66, 51
2, 15504, Note_on_c, 12, 61, 37
2, 15537, Control_c, 12, 64, 0
2, 15548, Note_off_c, 12, 61, 37
2, 15552, Note_on_c, 12, 64, 62
2, 15552, Note_on_c, 12, 54, 55
2, 15600, Note_on_c, 12, 69, 61
2, 15600, Note_on_c, 12, 71, 66
2, 15600, Note_on_c, 12, 76, 75
2, 15611, Note_off_c, 12, 71, 66
2, 15611, Note_off_c, 12, 69, 61
2, 15618, Note_off_c, 12, 76, 75
2, 15676, Note_off_c, 12, 54, 55
2, 15685, Note_off_c, 12, 64, 62
2, 15696, Note_on_c, 12, 55, 72
2, 15696, Note_on_c, 12, 71, 62
2, 15696, Note_on_c, 12, 69, 60
2, 15696, Note_on_c, 12, 62, 67
2, 15696, Note_on_c, 12, 74, 73
2, 15765, Note_off_c, 12, 69, 60
2, 15774, Note_off_c, 12, 71, 62
2, 15792, Note_on_c, 12, 69, 51
2, 15797, Note_off_c, 12, 74, 73
2, 15805, Control_c, 12, 64, 127
2, 15825, Note_off_c, 12, 55, 72
2, 15840, Note_on_c, 12, 74, 60
2, 15855, Note_off_c, 12, 62, 67
2, 15856, Note_off_c, 12, 69, 51
2, 15866, Note_off_c, 12, 74, 60
2, 15888, Note_on_c, 12, 76, 60
2, 15888, Note_on_c, 12, 73, 54
2, 15888, Note_on_c, 12, 69, 57
2, 15888, Note_on_c, 12, 54, 56
2, 15888, Note_on_c, 12, 64, 54
2, 15888, Control_c, 12, 64, 0
2, 15928, Note_off_c, 12, 76, 60
2, 15929, Note_off_c, 12, 69, 57
2, 15935, Note_off_c, 12, 73, 54
2, 15984, Note_on_c, 12, 69, 62
2, 15995, Note_off_c, 12, 64, 54
2, 16004, Note_off_c, 12, 54, 56
2, 16005, Control_c, 12, 64, 127
2, 16032, Note_on_c, 12, 73, 32
2, 16039, Note_off_c, 12, 73, 32
2, 16051, Note_off_c, 12, 69, 62
2, 16080, Note_on_c, 12, 57, 62
2, 16099, Control_c, 12, 64, 0
2, 16118, Note_off_c, 12, 57, 62
2, 16128, Note_on_c, 12, 50, 83
2, 16128, Note_on_c, 12, 62, 78
2, 16150, Control_c, 12, 64, 127
2, 16185, Note_off_c, 12, 50, 83
2, 16222, Note_off_c, 12, 62, 78
2, 16224, Note_on_c, 12, 62, 14
2, 16224, Note_on_c, 12, 74, 47
2, 16224, Note_on_c, 12, 78, 79
2, 16231, Note_off_c, 12, 74, 47
2, 16236, Note_off_c, 12, 62, 14
2, 16241, Note_off_c, 12, 78, 79
2, 16262, Control_c, 12, 64, 0
2, 16272, Note_on_c, 12, 78, 81
2, 16272, Note_on_c, 12, 71, 63
2, 16272, Note_on_c, 12, 74, 82
2, 16272, Note_on_c, 12, 66, 71
2, 16272, Note_on_c, 12, 55, 67
2, 16313, Note_off_c, 12, 71, 63
2, 16314, Control_c, 12, 64, 127
2, 16323, Note_off_c, 12, 74, 82
2, 16348, Note_off_c, 12, 78, 81
2, 16368, Note_on_c, 12, 71, 54
2, 16416, Note_on_c, 12, 78, 46
2, 16419, Note_off_c, 12, 71, 54
2, 16438, Note_off_c, 12, 78, 46
2, 16443, Note_off_c, 12, 55, 67
2, 16460, Control_c, 12, 64, 0
2, 16464, Note_on_c, 12, 80, 50
2, 16464, Note_on_c, 12, 76, 71
2, 16464, Note_on_c, 12, 71, 65
2, 16464, Note_on_c, 12, 61, 69
2, 16465, Note_off_c, 12, 66, 71
2, 16483, Note_off_c, 12, 80, 50
2, 16521, Note_off_c, 12, 71, 65
2, 16525, Control_c, 12, 64, 127
2, 16537, Note_off_c, 12, 76, 71
2, 16560, Note_on_c, 12, 71, 65
2, 16571, Note_off_c, 12, 61, 69
2, 16614, Note_off_c, 12, 71, 65
2, 16653, Control_c, 12, 64, 0
2, 16656, Note_on_c, 12, 69, 43
2, 16656, Note_on_c, 12, 74, 75
2, 16656, Note_on_c, 12, 78, 77
2, 16656, Note_on_c, 12, 66, 53
2, 16656, Note_on_c, 12, 59, 62
2, 16702, Note_off_c, 12, 69, 43
2, 16703, Control_c, 12, 64, 127
2, 16732, Note_off_c, 12, 74, 75
2, 16748, Note_off_c, 12, 78, 77
2, 16752, Note_on_c, 12, 69, 42
2, 16777, Note_off_c, 12, 66, 53
2, 16790, Note_off_c, 12, 59, 62
2, 16794, Note_off_c, 12, 69, 42
2, 16800, Note_on_c, 12, 78, 40
2, 16813, Note_off_c, 12, 78, 40
2, 16875, Control_c, 12, 64, 0
2, 16896, Note_on_c, 12, 78, 62
2, 16896, Note_on_c, 12, 83, 69
2, 16896, Note_on_c, 12, 55, 71
2, 16896, Note_on_c, 12, 86, 65
2, 16896, Note_on_c, 12, 67, 65
2, 16896, Note_on_c, 12, 74, 62
2, 16915, Control_c, 12, 64, 127
2, 16957, Note_off_c, 12, 74, 62
2, 16988, Note_off_c, 12, 83, 69
2, 16988, Note_off_c, 12, 78, 62
2, 16992, Note_on_c, 12, 61, 41
2, 16992, Note_on_c, 12, 74, 54
2, 16995, Note_off_c, 12, 55, 71
2, 17008, Note_off_c, 12, 67, 65
2, 17012, Note_off_c, 12, 86, 65
2, 17015, Note_off_c, 12, 74, 54
2, 17028, Note_off_c, 12, 61, 41
2, 17035, Control_c, 12, 64, 0
2, 17040, Note_on_c, 12, 76, 71
2, 17040, Note_on_c, 12, 85, 86
2, 17040, Note_on_c, 12, 54, 64
2, 17040, Note_on_c, 12, 81, 88
2, 17074, Control_c, 12, 64, 127
2, 17087, Note_off_c, 12, 76, 71
2, 17128, Note_off_c, 12, 81, 88
2, 17134, Note_off_c, 12, 85, 86
2, 17136, Note_on_c, 12, 76, 58
2, 17151, Note_off_c, 12, 54, 64
2, 17162, Note_off_c, 12, 76, 58
2, 17232, Note_on_c, 12, 62, 57
2, 17232, Note_on_c, 12, 76, 62
2, 17232, Note_on_c, 12, 78, 79
2, 17232, Note_on_c, 12, 55, 61
2, 17232, Note_on_c, 12, 74, 66
2, 17239, Note_off_c, 12, 76, 62
2, 17243, Note_off_c, 12, 78, 79
2, 17247, Note_off_c, 12, 74, 66
2, 17257, Control_c, 12, 64, 0
2, 17328, Note_on_c, 12, 71, 59
2, 17328, Note_on_c, 12, 74, 92
2, 17328, Note_on_c, 12, 78, 100
2, 17335, Note_off_c, 12, 55, 61
2, 17338, Note_off_c, 12, 62, 57
2, 17339, Note_off_c, 12, 71, 59
2, 17339, Control_c, 12, 64, 127
2, 17349, Control_c, 12, 64, 0
2, 17367, Note_off_c, 12, 74, 92
2, 17368, Control_c, 12, 64, 127
2, 17372, Note_off_c, 12, 78, 100
2, 17376, Note_on_c, 12, 61, 43
2, 17376, Note_on_c, 12, 71, 57
2, 17398, Note_off_c, 12, 71, 57
2, 17399, Note_off_c, 12, 61, 43
2, 17405, Control_c, 12, 64, 0
2, 17424, Note_on_c, 12, 54, 64
2, 17424, Note_on_c, 12, 76, 76
2, 17424, Note_on_c, 12, 69, 64
2, 17424, Note_on_c, 12, 64, 67
2, 17424, Note_on_c, 12, 73, 75
2, 17462, Note_off_c, 12, 69, 64
2, 17497, Control_c, 12, 64, 127
2, 17515, Note_off_c, 12, 73, 75
2, 17520, Note_on_c, 12, 69, 62
2, 17525, Note_off_c, 12, 76, 76
2, 17531, Note_off_c, 12, 54, 64
2, 17547, Note_off_c, 12, 64, 67
2, 17562, Note_off_c, 12, 69, 62
2, 17568, Note_on_c, 12, 76, 58
2, 17590, Note_off_c, 12, 76, 58
2, 17616, Note_on_c, 12, 62, 55
2, 17644, Note_off_c, 12, 62, 55
2, 17647, Control_c, 12, 64, 0
2, 17664, Note_on_c, 12, 67, 61
2, 17664, Note_on_c, 12, 74, 67
2, 17664, Note_on_c, 12, 83, 67
2, 17664, Note_on_c, 12, 55, 62
2, 17664, Note_on_c, 12, 86, 60
2, 17664, Note_on_c, 12, 78, 64
2, 17685, Note_off_c, 12, 74, 67
2, 17687, Control_c, 12, 64, 127
2, 17722, Note_off_c, 12, 78, 64
2, 17741, Note_off_c, 12, 83, 67
2, 17754, Note_off_c, 12, 55, 62
2, 17760, Note_on_c, 12, 74, 32
2, 17769, Note_off_c, 12, 67, 61
2, 17774, Note_off_c, 12, 74, 32
2, 17781, Note_off_c, 12, 86, 60
2, 17808, Note_on_c, 12, 85, 86
2, 17808, Note_on_c, 12, 57, 60
2, 17808, Note_on_c, 12, 67, 62
2, 17808, Note_on_c, 12, 81, 80
2, 17808, Note_on_c, 12, 76, 71
2, 17808, Control_c, 12, 64, 0
2, 17859, Control_c, 12, 64, 127
2, 17862, Note_off_c, 12, 76, 71
2, 17893, Note_off_c, 12, 81, 80
2, 17904, Note_on_c, 12, 76, 56
2, 17918, Note_off_c, 12, 85, 86
2, 17922, Note_off_c, 12, 57, 60
2, 17929, Note_off_c, 12, 67, 62
2, 17936, Note_off_c, 12, 76, 56
2, 17952, Note_on_c, 12, 57, 36
2, 17965, Note_off_c, 12, 57, 36
2, 18000, Note_on_c, 12, 50, 92
2, 18000, Note_on_c, 12, 62, 85
2, 18022, Control_c, 12, 64, 0
2, 18070, Control_c, 12, 64, 127
2, 18096, Note_on_c, 12, 69, 44
2, 18129, Note_off_c, 12, 69, 44
2, 18144, Note_on_c, 12, 74, 55
2, 18157, Note_off_c, 12, 74, 55
2, 18161, Note_off_c, 12, 62, 85
2, 18192, Note_on_c, 12, 69, 45
2, 18192, Note_on_c, 12, 62, 51
2, 18205, Note_off_c, 12, 69, 45
2, 18208, Note_off_c, 12, 62, 51
2, 18240, Note_on_c, 12, 62, 54
2, 18336, Note_off_c, 12, 62, 54
2, 18336, Note_on_c, 12, 69, 49
2, 18350, Note_off_c, 12, 69, 49
2, 18368, Note_off_c, 12, 50, 92
2, 18384, Note_on_c, 12, 62, 56
2, 18418, Control_c, 12, 64, 0
2, 18432, Note_on_c, 12, 50, 68
2, 18460, Note_off_c, 12, 62, 56
2, 18480, Note_on_c, 12, 71, 66
2, 18480, Note_on_c, 12, 69, 60
2, 18480, Note_on_c, 12, 74, 92
2, 18480, Note_on_c, 12, 78, 86
2, 18486, Note_off_c, 12, 71, 66
2, 18487, Note_off_c, 12, 74, 92
2, 18491, Note_off_c, 12, 69, 60
2, 18494, Note_off_c, 12, 78, 86
2, 18559, Note_off_c, 12, 50, 68
2, 18576, Note_on_c, 12, 69, 44
2, 18576, Note_on_c, 12, 74, 66
2, 18576, Note_on_c, 12, 78, 68
2, 18576, Note_on_c, 12, 62, 33
2, 18593, Note_off_c, 12, 62, 33
2, 18624, Note_on_c, 12, 55, 27
2, 18624, Note_on_c, 12, 62, 46
2, 18630, Note_off_c, 12, 69, 44
2, 18672, Note_on_c, 12, 69, 25
2, 18677, Control_c, 12, 64, 127
2, 18685, Note_off_c, 12, 74, 66
2, 18720, Note_off_c, 12, 69, 25
2, 18720, Note_on_c, 12, 74, 51
2, 18742, Note_off_c, 12, 74, 51
2, 18748, Note_off_c, 12, 55, 27
2, 18758, Note_off_c, 12, 78, 68
2, 18768, Note_on_c, 12, 76, 78
2, 18768, Note_on_c, 12, 71, 54
2, 18768, Note_on_c, 12, 61, 44
2, 18771, Note_off_c, 12, 62, 46
2, 18777, Control_c, 12, 64, 0
2, 18787, Note_off_c, 12, 71, 54
2, 18787, Note_off_c, 12, 76, 78
2, 18864, Note_on_c, 12, 71, 58
2, 18864, Note_on_c, 12, 76, 70
2, 18894, Control_c, 12, 64, 127
2, 18897, Control_c, 12, 64, 0
2, 18908, Note_off_c, 12, 71, 58
2, 18912, Note_on_c, 12, 74, 33
2, 18914, Note_off_c, 12, 61, 44
2, 18928, Note_off_c, 12, 74, 33
2, 18932, Note_off_c, 12, 76, 70
2, 18960, Note_on_c, 12, 74, 55
2, 18960, Note_on_c, 12, 69, 46
2, 18960, Note_on_c, 12, 59, 50
2, 18960, Note_on_c, 12, 66, 40
2, 19003, Control_c, 12, 64, 127
2, 19026, Note_off_c, 12, 69, 46
2, 19056, Note_on_c, 12, 69, 33
2, 19063, Note_off_c, 12, 74, 55
2, 19085, Note_off_c, 12, 69, 33
2, 19085, Note_off_c, 12, 66, 40
2, 19094, Note_off_c, 12, 59, 50
2, 19104, Note_on_c, 12, 74, 48
2, 19113, Note_off_c, 12, 74, 48
2, 19152, Note_on_c, 12, 62, 40
2, 19181, Note_off_c, 12, 62, 40
2, 19192, Control_c, 12, 64, 0
2, 19200, Note_on_c, 12, 78, 86
2, 19200, Note_on_c, 12, 74, 68
2, 19200, Note_on_c, 12, 55, 50
2, 19200, Note_on_c, 12, 66, 44
2, 19229, Control_c, 12, 64, 127
2, 19248, Note_on_c, 12, 62, 14
2, 19288, Note_off_c, 12, 74, 68
2, 19294, Note_off_c, 12, 78, 86
2, 19296, Note_on_c, 12, 71, 50
2, 19307, Note_off_c, 12, 62, 14
2, 19309, Note_off_c, 12, 55, 50
2, 19312, Note_off_c, 12, 66, 44
2, 19330, Note_off_c, 12, 71, 50
2, 19344, Note_on_c, 12, 73, 60
2, 19344, Note_on_c, 12, 64, 54
2, 19344, Note_on_c, 12, 76, 67
2, 19344, Note_on_c, 12, 71, 59
2, 19344, Note_on_c, 12, 54, 59
2, 19350, Control_c, 12, 64, 0
2, 19367, Note_off_c, 12, 71, 59
2, 19373, Note_off_c, 12, 73, 60
2, 19380, Note_off_c, 12, 76, 67
2, 19405, Control_c, 12, 64, 127
2, 19414, Control_c, 12, 64, 0
2, 19440, Note_on_c, 12, 74, 66
2, 19440, Note_on_c, 12, 71, 51
2, 19440, Note_on_c, 12, 69, 58
2, 19447, Note_off_c, 12, 71, 51
2, 19450, Note_off_c, 12, 74, 66
2, 19453, Note_off_c, 12, 69, 58
2, 19513, Note_off_c, 12, 54, 59
2, 19525, Note_off_c, 12, 64, 54
2, 19536, Note_on_c, 12, 55, 60
2, 19536, Note_on_c, 12, 62, 63
2, 19632, Note_on_c, 12, 71, 90
2, 19632, Note_on_c, 12, 69, 82
2, 19651, Note_off_c, 12, 69, 82
2, 19680, Note_on_c, 12, 69, 54
2, 19683, Note_off_c, 12, 71, 90
2, 19700, Note_off_c, 12, 55, 60
2, 19703, Note_off_c, 12, 62, 63
2, 19728, Note_off_c, 12, 69, 54
2, 19728, Note_on_c, 12, 67, 58
2, 19745, Note_off_c, 12, 67, 58
2, 19776, Note_on_c, 12, 69, 79
2, 19776, Note_on_c, 12, 64, 46
2, 19776, Note_on_c, 12, 57, 44
2, 19813, Note_off_c, 12, 69, 79
2, 19824, Note_on_c, 12, 69, 55
2, 19853, Note_off_c, 12, 64, 46
2, 19872, Note_on_c, 12, 62, 50
2, 19878, Note_off_c, 12, 57, 44
2, 19882, Note_off_c, 12, 62, 50
2, 19897, Note_off_c, 12, 69, 55
2, 19920, Note_on_c, 12, 57, 62
2, 19958, Note_off_c, 12, 57, 62
2, 19968, Note_on_c, 12, 62, 58
2, 19968, Note_on_c, 12, 74, 76
2, 19968, Note_on_c, 12, 50, 72
2, 19968, Note_on_c, 12, 66, 69
2, 20007, Control_c, 12, 64, 127
2, 20008, Note_off_c, 12, 66, 69
2, 20016, Note_on_c, 12, 69, 66
2, 20075, Note_off_c, 12, 50, 72
2, 20087, Note_off_c, 12, 62, 58
2, 20094, Note_off_c, 12, 74, 76
2, 20105, Note_off_c, 12, 69, 66
2, 20112, Note_on_c, 12, 71, 82
2, 20112, Note_on_c, 12, 66, 42
2, 20112, Note_on_c, 12, 55, 47
2, 20112, Note_on_c, 12, 74, 69
2, 20112, Note_on_c, 12, 70, 84
2, 20112, Note_on_c, 12, 69, 43
2, 20112, Note_on_c, 12, 62, 50
2, 20124, Control_c, 12, 64, 0
2, 20132, Note_off_c, 12, 69, 43
2, 20135, Note_off_c, 12, 70, 84
2, 20159, Note_off_c, 12, 71, 82
2, 20178, Note_off_c, 12, 74, 69
2, 20208, Note_on_c, 12, 71, 66
2, 20208, Note_on_c, 12, 74, 68
2, 20255, Note_off_c, 12, 71, 66
2, 20266, Note_off_c, 12, 55, 47
2, 20271, Note_off_c, 12, 74, 68
2, 20280, Note_off_c, 12, 66, 42
2, 20287, Note_off_c, 12, 62, 50
2, 20304, Note_on_c, 12, 71, 72
2, 20304, Note_on_c, 12, 69, 60
2, 20304, Note_on_c, 12, 76, 80
2, 20304, Note_on_c, 12, 61, 50
2, 20317, Note_off_c, 12, 69, 60
2, 20358, Note_off_c, 12, 76, 80
2, 20358, Note_off_c, 12, 71, 72
2, 20400, Note_on_c, 12, 71, 74
2, 20400, Note_on_c, 12, 76, 75
2, 20400, Note_on_c, 12, 70, 77
2, 20419, Note_off_c, 12, 70, 77
2, 20434, Note_off_c, 12, 71, 74
2, 20448, Note_on_c, 12, 69, 55
2, 20469, Note_off_c, 12, 76, 75
2, 20470, Note_off_c, 12, 69, 55
2, 20481, Note_off_c, 12, 61, 50
2, 20496, Note_on_c, 12, 66, 49
2, 20496, Note_on_c, 12, 74, 58
2, 20496, Note_on_c, 12, 69, 41
2, 20496, Note_on_c, 12, 59, 54
2, 20559, Note_off_c, 12, 69, 41
2, 20568, Control_c, 12, 64, 127
2, 20580, Note_off_c, 12, 74, 58
2, 20592, Note_on_c, 12, 69, 53
2, 20615, Note_off_c, 12, 66, 49
2, 20640, Note_on_c, 12, 74, 54
2, 20653, Note_off_c, 12, 69, 53
2, 20660, Note_off_c, 12, 74, 54
2, 20661, Note_off_c, 12, 59, 54
2, 20688, Note_on_c, 12, 62, 34
2, 20716, Note_off_c, 12, 62, 34
2, 20721, Control_c, 12, 64, 0
2, 20736, Note_on_c, 12, 62, 28
2, 20736, Note_on_c, 12, 78, 68
2, 20736, Note_on_c, 12, 69, 53
2, 20736, Note_on_c, 12, 74, 71
2, 20736, Note_on_c, 12, 71, 53
2, 20736, Note_on_c, 12, 66, 40
2, 20736, Note_on_c, 12, 55, 58
2, 20764, Control_c, 12, 64, 127
2, 20788, Note_off_c, 12, 71, 53
2, 20788, Note_off_c, 12, 69, 53
2, 20810, Note_off_c, 12, 74, 71
2, 20817, Note_off_c, 12, 62, 28
2, 20823, Note_off_c, 12, 78, 68
2, 20829, Note_off_c, 12, 55, 58
2, 20829, Note_off_c, 12, 66, 40
2, 20880, Note_on_c, 12, 64, 58
2, 20880, Note_on_c, 12, 69, 55
2, 20880, Note_on_c, 12, 73, 77
2, 20880, Note_on_c, 12, 54, 52
2, 20891, Control_c, 12, 64, 0
2, 20894, Note_off_c, 12, 73, 77
2, 20894, Note_off_c, 12, 69, 55
2, 20894, Note_off_c, 12, 64, 58
2, 20897, Note_off_c, 12, 54, 52
2, 21024, Note_on_c, 12, 62, 57
2, 21042, Note_off_c, 12, 62, 57
2, 21072, Note_on_c, 12, 62, 61
2, 21072, Note_on_c, 12, 55, 66
2, 21072, Note_on_c, 12, 66, 51
2, 21072, Note_on_c, 12, 71, 58
2, 21128, Control_c, 12, 64, 127
2, 21161, Note_off_c, 12, 66, 51
2, 21168, Note_on_c, 12, 64, 30
2, 21173, Note_off_c, 12, 62, 61
2, 21181, Note_off_c, 12, 64, 30
2, 21195, Note_off_c, 12, 55, 66
2, 21216, Note_on_c, 12, 66, 40
2, 21233, Note_off_c, 12, 71, 58
2, 21255, Note_off_c, 12, 66, 40
2, 21262, Control_c, 12, 64, 0
2, 21264, Note_on_c, 12, 61, 57
2, 21264, Note_on_c, 12, 54, 54
2, 21264, Note_on_c, 12, 64, 67
2, 21264, Note_on_c, 12, 69, 68
2, 21304, Control_c, 12, 64, 127
2, 21337, Note_off_c, 12, 64, 67
2, 21360, Note_on_c, 12, 64, 48
2, 21366, Note_off_c, 12, 69, 68
2, 21407, Note_off_c, 12, 64, 48
2, 21408, Note_on_c, 12, 69, 39
2, 21415, Note_off_c, 12, 69, 39
2, 21417, Note_off_c, 12, 61, 57
2, 21420, Note_off_c, 12, 54, 54
2, 21492, Control_c, 12, 64, 0
2, 21504, Note_on_c, 12, 66, 60
2, 21504, Note_on_c, 12, 71, 66
2, 21504, Note_on_c, 12, 55, 58
2, 21504, Note_on_c, 12, 62, 60
2, 21531, Control_c, 12, 64, 127
2, 21595, Note_off_c, 12, 71, 66
2, 21599, Note_off_c, 12, 55, 58
2, 21599, Note_off_c, 12, 66, 60
2, 21626, Note_off_c, 12, 62, 60
2, 21648, Note_on_c, 12, 62, 60
2, 21648, Note_on_c, 12, 74, 76
2, 21648, Note_on_c, 12, 57, 62
2, 21648, Note_on_c, 12, 69, 69
2, 21648, Note_on_c, 12, 71, 70
2, 21666, Control_c, 12, 64, 0
2, 21722, Control_c, 12, 64, 127
2, 21759, Note_off_c, 12, 62, 60
2, 21769, Note_off_c, 12, 57, 62
2, 21775, Note_off_c, 12, 71, 70
2, 21791, Note_off_c, 12, 74, 76
2, 21795, Note_off_c, 12, 69, 69
2, 21833, Control_c, 12, 64, 0
2, 21840, Note_on_c, 12, 69, 62
2, 21840, Note_on_c, 12, 66, 49
2, 21840, Note_on_c, 12, 74, 60
2, 21840, Note_on_c, 12, 62, 54
2, 21840, Note_on_c, 12, 50, 55
2, 21879, Control_c, 12, 64, 127
2, 21918, Note_off_c, 12, 66, 49
2, 21936, Note_on_c, 12, 66, 35
2, 21944, Note_off_c, 12, 69, 62
2, 21967, Note_off_c, 12, 62, 54
2, 21989, Note_off_c, 12, 66, 35
2, 22032, Note_on_c, 12, 62, 51
2, 22080, Note_on_c, 12, 66, 47
2, 22121, Note_off_c, 12, 62, 51
2, 22128, Note_on_c, 12, 69, 58
2, 22136, Note_off_c, 12, 66, 47
2, 22169, Note_off_c, 12, 69, 58
2, 22176, Note_on_c, 12, 62, 75
2, 22224, Note_off_c, 12, 74, 60
2, 22224, Note_on_c, 12, 66, 36
2, 22234, Note_off_c, 12, 66, 36
2, 22265, Control_c, 12, 64, 0
2, 22272, Note_off_c, 12, 50, 55
2, 22272, Note_on_c, 12, 69, 60
2, 22272, Note_on_c, 12, 57, 73
2, 22273, Note_off_c, 12, 62, 75
2, 22308, Control_c, 12, 64, 127
2, 22320, Note_on_c, 12, 73, 54
2, 22339, Note_off_c, 12, 69, 60
2, 22352, Note_off_c, 12, 73, 54
2, 22368, Note_on_c, 12, 69, 49
2, 22409, Note_off_c, 12, 69, 49
2, 22416, Note_on_c, 12, 73, 59
2, 22435, Note_off_c, 12, 73, 59
2, 22463, Control_c, 12, 64, 0
2, 22464, Note_on_c, 12, 73, 69
2, 22464, Note_on_c, 12, 66, 71
2, 22464, Note_on_c, 12, 58, 73
2, 22474, Note_off_c, 12, 57, 73
2, 22502, Control_c, 12, 64, 127
2, 22514, Note_off_c, 12, 66, 71
2, 22551, Note_off_c, 12, 73, 69
2, 22560, Note_on_c, 12, 66, 41
2, 22598, Note_off_c, 12, 66, 41
2, 22608, Note_on_c, 12, 59, 70
2, 22608, Note_on_c, 12, 74, 73
2, 22608, Note_on_c, 12, 66, 42
2, 22613, Control_c, 12, 64, 0
2, 22621, Note_off_c, 12, 58, 73
2, 22666, Control_c, 12, 64, 127
2, 22668, Note_off_c, 12, 66, 42
2, 22690, Note_off_c, 12, 74, 73
2, 22704, Note_on_c, 12, 66, 47
2, 22773, Note_off_c, 12, 66, 47
2, 22786, Note_off_c, 12, 59, 70
2, 22800, Note_on_c, 12, 69, 53
2, 22800, Note_on_c, 12, 73, 63
2, 22800, Note_on_c, 12, 61, 62
2, 22806, Control_c, 12, 64, 0
2, 22868, Control_c, 12, 64, 127
2, 22883, Note_off_c, 12, 69, 53
2, 22896, Note_on_c, 12, 76, 60
2, 22896, Note_on_c, 12, 71, 60
2, 22905, Note_off_c, 12, 73, 63
2, 22915, Note_off_c, 12, 76, 60
2, 22944, Note_on_c, 12, 76, 72
2, 22957, Note_off_c, 12, 71, 60
2, 22982, Note_off_c, 12, 76, 72
2, 22989, Note_off_c, 12, 61, 62
2, 22992, Note_on_c, 12, 62, 60
2, 22992, Note_on_c, 12, 69, 62
2, 23008, Note_off_c, 12, 62, 60
2, 23024, Note_off_c, 12, 69, 62
2, 23033, Control_c, 12, 64, 0
2, 23040, Note_on_c, 12, 69, 45
2, 23040, Note_on_c, 12, 74, 82
2, 23040, Note_on_c, 12, 78, 81
2, 23040, Note_on_c, 12, 62, 59
2, 23040, Note_on_c, 12, 50, 86
2, 23059, Note_off_c, 12, 69, 45
2, 23076, Control_c, 12, 64, 127
2, 23120, Note_off_c, 12, 74, 82
2, 23136, Note_on_c, 12, 69, 54
2, 23137, Note_off_c, 12, 78, 81
2, 23152, Note_off_c, 12, 50, 86
2, 23152, Note_off_c, 12, 62, 59
2, 23159, Note_off_c, 12, 69, 54
2, 23184, Note_on_c, 12, 77, 75
2, 23184, Note_on_c, 12, 73, 75
2, 23184, Note_on_c, 12, 49, 64
2, 23184, Note_on_c, 12, 61, 71
2, 23190, Control_c, 12, 64, 0
2, 23240, Note_off_c, 12, 73, 75
2, 23243, Control_c, 12, 64, 127
2, 23265, Note_off_c, 12, 77, 75
2, 23280, Note_on_c, 12, 80, 104
2, 23280, Note_on_c, 12, 73, 34
2, 23300, Note_off_c, 12, 49, 64
2, 23306, Note_off_c, 12, 73, 34
2, 23318, Note_off_c, 12, 61, 71
2, 23346, Note_off_c, 12, 80, 104
2, 23376, Note_on_c, 12, 78, 79
2, 23376, Note_on_c, 12, 81, 92
2, 23376, Note_on_c, 12, 54, 69
2, 23376, Note_on_c, 12, 73, 68
2, 23376, Note_on_c, 12, 66, 54
2, 23379, Control_c, 12, 64, 0
2, 23408, Note_off_c, 12, 73, 68
2, 23414, Control_c, 12, 64, 127
2, 23426, Note_off_c, 12, 81, 92
2, 23433, Note_off_c, 12, 78, 79
2, 23461, Note_off_c, 12, 54, 69
2, 23472, Note_on_c, 12, 85, 77
2, 23496, Note_off_c, 12, 66, 54
2, 23499, Note_off_c, 12, 85, 77
2, 23568, Note_on_c, 12, 56, 60
2, 23568, Note_on_c, 12, 68, 50
2, 23568, Note_on_c, 12, 76, 67
2, 23568, Note_on_c, 12, 83, 92
2, 23587, Control_c, 12, 64, 0
2, 23631, Control_c, 12, 64, 127
2, 23650, Note_off_c, 12, 76, 67
2, 23664, Note_on_c, 12, 80, 79
2, 23704, Note_off_c, 12, 56, 60
2, 23708, Note_off_c, 12, 68, 50
2, 23712, Note_on_c, 12, 78, 55
2, 23719, Note_off_c, 12, 80, 79
2, 23737, Note_off_c, 12, 83, 92
2, 23753, Note_off_c, 12, 78, 55
2, 23760, Note_on_c, 12, 76, 50
2, 23779, Note_off_c, 12, 76, 50
2, 23786, Control_c, 12, 64, 0
2, 23808, Note_on_c, 12, 73, 77
2, 23808, Note_on_c, 12, 81, 74
2, 23808, Note_on_c, 12, 69, 55
2, 23808, Note_on_c, 12, 57, 61
2, 23831, Control_c, 12, 64, 127
2, 23904, Note_on_c, 12, 76, 40
2, 23922, Note_off_c, 12, 76, 40
2, 23923, Note_off_c, 12, 81, 74
2, 23945, Note_off_c, 12, 73, 77
2, 23946, Note_off_c, 12, 69, 55
2, 23959, Note_off_c, 12, 57, 61
2, 24000, Note_on_c, 12, 76, 57
2, 24000, Note_on_c, 12, 55, 69
2, 24000, Note_on_c, 12, 67, 70
2, 24000, Note_on_c, 12, 81, 73
2, 24000, Note_on_c, 12, 73, 49
2, 24007, Control_c, 12, 64, 0
2, 24044, Note_off_c, 12, 76, 57
2, 24048, Note_on_c, 12, 83, 55
2, 24048, Note_on_c, 12, 82, 41
2, 24051, Note_off_c, 12, 81, 73
2, 24051, Control_c, 12, 64, 127
2, 24064, Note_off_c, 12, 73, 49
2, 24065, Note_off_c, 12, 82, 41
2, 24073, Note_off_c, 12, 83, 55
2, 24096, Note_on_c, 12, 85, 84
2, 24124, Note_off_c, 12, 85, 84
2, 24128, Note_off_c, 12, 67, 70
2, 24131, Note_off_c, 12, 55, 69
2, 24144, Note_on_c, 12, 66, 64
2, 24144, Note_on_c, 12, 86, 66
2, 24144, Note_on_c, 12, 54, 64
2, 24144, Note_on_c, 12, 85, 66
2, 24144, Note_on_c, 12, 76, 36
2, 24164, Note_off_c, 12, 85, 66
2, 24171, Control_c, 12, 64, 0
2, 24218, Control_c, 12, 64, 127
2, 24229, Note_off_c, 12, 76, 36
2, 24229, Note_off_c, 12, 86, 66
2, 24240, Note_on_c, 12, 81, 55
2, 24244, Note_off_c, 12, 54, 64
2, 24261, Note_off_c, 12, 66, 64
2, 24287, Note_off_c, 12, 81, 55
2, 24336, Note_on_c, 12, 86, 71
2, 24336, Note_on_c, 12, 71, 52
2, 24336, Note_on_c, 12, 60, 54
2, 24336, Note_on_c, 12, 81, 68
2, 24352, Control_c, 12, 64, 0
2, 24399, Note_off_c, 12, 81, 68
2, 24417, Control_c, 12, 64, 127
2, 24430, Note_off_c, 12, 86, 71
2, 24432, Note_on_c, 12, 78, 49
2, 24472, Note_off_c, 12, 71, 52
2, 24476, Note_off_c, 12, 78, 49
2, 24480, Note_on_c, 12, 81, 58
2, 24485, Note_off_c, 12, 60, 54
2, 24509, Note_off_c, 12, 81, 58
2, 24528, Note_on_c, 12, 86, 58
2, 24541, Note_off_c, 12, 86, 58
2, 24576, Note_on_c, 12, 57, 74
2, 24576, Note_on_c, 12, 79, 66
2, 24576, Note_on_c, 12, 69, 54
2, 24576, Note_on_c, 12, 83, 86
2, 24576, Note_on_c, 12, 67, 60
2, 24576, Note_on_c, 12, 86, 82
2, 24576, Control_c, 12, 64, 0
2, 24596, Note_off_c, 12, 67, 60
2, 24617, Control_c, 12, 64, 127
2, 24634, Note_off_c, 12, 83, 86
2, 24659, Note_off_c, 12, 79, 66
2, 24676, Note_off_c, 12, 69, 54
2, 24692, Note_off_c, 12, 86, 82
2, 24707, Note_off_c, 12, 57, 74
2, 24720, Note_on_c, 12, 57, 71
2, 24720, Note_on_c, 12, 85, 64
2, 24720, Note_on_c, 12, 69, 62
2, 24720, Note_on_c, 12, 81, 69
2, 24720, Note_on_c, 12, 76, 63
2, 24737, Control_c, 12, 64, 0
2, 24775, Control_c, 12, 64, 127
2, 24781, Note_off_c, 12, 76, 63
2, 24802, Note_off_c, 12, 81, 69
2, 24802, Note_off_c, 12, 85, 64
2, 24813, Note_off_c, 12, 69, 62
2, 24816, Note_on_c, 12, 76, 57
2, 24847, Note_off_c, 12, 76, 57
2, 24856, Note_off_c, 12, 57, 71
2, 24864, Note_on_c, 12, 81, 46
2, 24873, Note_off_c, 12, 81, 46
2, 24912, Note_on_c, 12, 74, 76
2, 24912, Note_on_c, 12, 82, 53
2, 24912, Note_on_c, 12, 69, 51
2, 24912, Note_on_c, 12, 79, 83
2, 24912, Note_on_c, 12, 86, 74
2, 24912, Note_on_c, 12, 83, 75
2, 24912, Note_on_c, 12, 57, 53
2, 24919, Note_off_c, 12, 82, 53
2, 24919, Control_c, 12, 64, 0
2, 24963, Note_off_c, 12, 74, 76
2, 24966, Control_c, 12, 64, 127
2, 24999, Note_off_c, 12, 79, 83
2, 25008, Note_on_c, 12, 74, 50
2, 25012, Note_off_c, 12, 83, 75
2, 25015, Note_off_c, 12, 69, 51
2, 25018, Note_off_c, 12, 86, 74
2, 25052, Note_off_c, 12, 74, 50
2, 25056, Note_on_c, 12, 83, 46
2, 25056, Note_on_c, 12, 79, 54
2, 25064, Note_off_c, 12, 83, 46
2, 25066, Note_off_c, 12, 79, 54
2, 25104, Note_on_c, 12, 83, 78
2, 25104, Note_on_c, 12, 86, 70
2, 25104, Note_on_c, 12, 79, 80
2, 25104, Note_on_c, 12, 74, 66
2, 25114, Note_off_c, 12, 79, 80
2, 25115, Note_off_c, 12, 74, 66
2, 25115, Note_off_c, 12, 86, 70
2, 25115, Note_off_c, 12, 83, 78
2, 25152, Note_on_c, 12, 83, 110
2, 25152, Note_on_c, 12, 74, 92
2, 25152, Note_on_c, 12, 79, 110
2, 25152, Note_on_c, 12, 86, 88
2, 25171, Note_off_c, 12, 74, 92
2, 25178, Note_off_c, 12, 79, 110
2, 25178, Note_off_c, 12, 83, 110
2, 25188, Note_off_c, 12, 86, 88
2, 25224, Control_c, 12, 64, 0
2, 25248, Note_on_c, 12, 76, 80
2, 25248, Note_on_c, 12, 81, 101
2, 25248, Note_on_c, 12, 85, 104
2, 25268, Note_off_c, 12, 85, 104
2, 25268, Note_off_c, 12, 81, 101
2, 25268, Note_off_c, 12, 76, 80
2, 25274, Control_c, 12, 64, 127
2, 25285, Control_c, 12, 64, 0
2, 25296, Note_on_c, 12, 62, 57
2, 25302, Note_off_c, 12, 57, 53
2, 25310, Note_off_c, 12, 62, 57
2, 25344, Note_on_c, 12, 78, 71
2, 25344, Note_on_c, 12, 50, 73
2, 25344, Note_on_c, 12, 62, 60
2, 25344, Note_on_c, 12, 74, 66
2, 25390, Control_c, 12, 64, 127
2, 25400, Note_off_c, 12, 50, 73
2, 25420, Note_off_c, 12, 74, 66
2, 25426, Note_off_c, 12, 78, 71
2, 25432, Note_off_c, 12, 62, 60
2, 25488, Note_on_c, 12, 78, 73
2, 25488, Note_on_c, 12, 66, 60
2, 25488, Note_on_c, 12, 74, 71
2, 25488, Note_on_c, 12, 55, 62
2, 25488, Note_on_c, 12, 71, 58
2, 25489, Control_c, 12, 64, 0
2, 25554, Note_off_c, 12, 71, 58
2, 25564, Control_c, 12, 64, 127
2, 25569, Note_off_c, 12, 74, 71
2, 25582, Note_off_c, 12, 78, 73
2, 25584, Note_on_c, 12, 71, 37
2, 25632, Note_on_c, 12, 78, 43
2, 25635, Note_off_c, 12, 71, 37
2, 25655, Note_off_c, 12, 78, 43
2, 25671, Note_off_c, 12, 66, 60
2, 25680, Note_on_c, 12, 76, 79
2, 25680, Note_on_c, 12, 71, 60
2, 25691, Note_off_c, 12, 55, 62
2, 25697, Note_off_c, 12, 71, 60
2, 25700, Note_off_c, 12, 76, 79
2, 25709, Control_c, 12, 64, 0
2, 25728, Note_on_c, 12, 61, 44
2, 25776, Note_on_c, 12, 76, 80
2, 25776, Note_on_c, 12, 71, 68
2, 25816, Control_c, 12, 64, 127
2, 25825, Control_c, 12, 64, 0
2, 25827, Note_off_c, 12, 71, 68
2, 25849, Note_off_c, 12, 76, 80
2, 25850, Note_off_c, 12, 61, 44
2, 25872, Note_on_c, 12, 74, 61
2, 25872, Note_on_c, 12, 69, 55
2, 25872, Note_on_c, 12, 66, 47
2, 25872, Note_on_c, 12, 59, 56
2, 25919, Note_off_c, 12, 69, 55
2, 25928, Note_off_c, 12, 74, 61
2, 25968, Note_on_c, 12, 74, 74
2, 25968, Note_on_c, 12, 69, 51
2, 25976, Note_off_c, 12, 66, 47
2, 26004, Note_off_c, 12, 59, 56
2, 26009, Note_off_c, 12, 74, 74
2, 26032, Note_off_c, 12, 69, 51
2, 26047, Control_c, 12, 64, 127
2, 26064, Note_on_c, 12, 62, 29
2, 26080, Note_off_c, 12, 62, 29
2, 26094, Control_c, 12, 64, 0
2, 26112, Note_on_c, 12, 55, 65
2, 26112, Note_on_c, 12, 71, 64
2, 26112, Note_on_c, 12, 74, 69
2, 26112, Note_on_c, 12, 62, 60
2, 26112, Note_on_c, 12, 66, 58
2, 26134, Note_off_c, 12, 71, 64
2, 26136, Note_off_c, 12, 66, 58
2, 26138, Note_off_c, 12, 74, 69
2, 26140, Control_c, 12, 64, 127
2, 26207, Note_off_c, 12, 55, 65
2, 26208, Note_on_c, 12, 66, 22
2, 26208, Note_on_c, 12, 74, 58
2, 26208, Note_on_c, 12, 71, 49
2, 26221, Note_off_c, 12, 66, 22
2, 26227, Note_off_c, 12, 62, 60
2, 26247, Note_off_c, 12, 71, 49
2, 26256, Note_on_c, 12, 61, 38
2, 26288, Control_c, 12, 64, 0
2, 26291, Note_off_c, 12, 74, 58
2, 26297, Note_off_c, 12, 61, 38
2, 26304, Note_on_c, 12, 64, 58
2, 26304, Note_on_c, 12, 54, 49
2, 26352, Note_on_c, 12, 74, 74
2, 26352, Note_on_c, 12, 69, 55
2, 26372, Note_off_c, 12, 69, 55
2, 26375, Note_off_c, 12, 74, 74
2, 26381, Control_c, 12, 64, 127
2, 26387, Control_c, 12, 64, 0
2, 26436, Note_off_c, 12, 54, 49
2, 26442, Note_off_c, 12, 64, 58
2, 26448, Note_on_c, 12, 55, 62
2, 26448, Note_on_c, 12, 74, 66
2, 26448, Note_on_c, 12, 66, 54
2, 26448, Note_on_c, 12, 71, 63
2, 26448, Note_on_c, 12, 62, 62
2, 26498, Note_off_c, 12, 66, 54
2, 26529, Note_off_c, 12, 71, 63
2, 26544, Note_on_c, 12, 66, 40
2, 26548, Control_c, 12, 64, 127
2, 26549, Note_off_c, 12, 74, 66
2, 26571, Note_off_c, 12, 62, 62
2, 26579, Note_off_c, 12, 66, 40
2, 26583, Note_off_c, 12, 55, 62
2, 26592, Note_on_c, 12, 74, 42
2, 26607, Note_off_c, 12, 74, 42
2, 26640, Note_on_c, 12, 69, 58
2, 26640, Note_on_c, 12, 74, 62
2, 26640, Note_on_c, 12, 71, 58
2, 26659, Note_off_c, 12, 71, 58
2, 26659, Note_off_c, 12, 69, 58
2, 26662, Note_off_c, 12, 74, 62
2, 26682, Control_c, 12, 64, 0
2, 26688, Note_on_c, 12, 64, 59
2, 26688, Note_on_c, 12, 57, 63
2, 26710, Note_off_c, 12, 64, 59
2, 26736, Note_on_c, 12, 71, 97
2, 26736, Note_on_c, 12, 74, 94
2, 26736, Note_on_c, 12, 69, 88
2, 26740, Note_off_c, 12, 57, 63
2, 26759, Note_off_c, 12, 69, 88
2, 26774, Note_off_c, 12, 71, 97
2, 26777, Control_c, 12, 64, 127
2, 26784, Note_on_c, 12, 69, 54
2, 26794, Control_c, 12, 64, 0
2, 26795, Note_off_c, 12, 74, 94
2, 26810, Control_c, 12, 64, 127
2, 26817, Note_off_c, 12, 69, 54
2, 26832, Note_on_c, 12, 57, 55
2, 26832, Note_on_c, 12, 71, 49
2, 26836, Control_c, 12, 64, 0
2, 26845, Note_off_c, 12, 71, 49
2, 26874, Note_off_c, 12, 57, 55
2, 26880, Note_on_c, 12, 69, 69
2, 26880, Note_on_c, 12, 62, 71
2, 26880, Note_on_c, 12, 50, 70
2, 26880, Note_on_c, 12, 66, 56
2, 26880, Note_on_c, 12, 74, 72
2, 26905, Control_c, 12, 64, 127
2, 26909, Note_off_c, 12, 66, 56
2, 26949, Note_off_c, 12, 69, 69
2, 26951, Note_off_c, 12, 74, 72
2, 26976, Note_on_c, 12, 66, 46
2, 26988, Note_off_c, 12, 62, 71
2, 27004, Note_off_c, 12, 66, 46
2, 27023, Note_off_c, 12, 50, 70
2, 27024, Note_on_c, 12, 55, 62
2, 27024, Note_on_c, 12, 74, 71
2, 27024, Note_on_c, 12, 71, 76
2, 27024, Note_on_c, 12, 69, 53
2, 27024, Note_on_c, 12, 62, 62
2, 27032, Control_c, 12, 64, 0
2, 27047, Note_off_c, 12, 69, 53
2, 27070, Note_off_c, 12, 62, 62
2, 27101, Control_c, 12, 64, 127
2, 27109, Note_off_c, 12, 71, 76
2, 27120, Note_on_c, 12, 69, 54
2, 27159, Note_off_c, 12, 55, 62
2, 27168, Note_on_c, 12, 71, 44
2, 27178, Note_off_c, 12, 74, 71
2, 27179, Note_off_c, 12, 69, 54
2, 27185, Note_off_c, 12, 71, 44
2, 27216, Note_on_c, 12, 73, 62
2, 27216, Note_on_c, 12, 64, 37
2, 27216, Note_on_c, 12, 71, 66
2, 27216, Note_on_c, 12, 76, 70
2, 27223, Note_off_c, 12, 73, 62
2, 27234, Control_c, 12, 64, 0
2, 27240, Note_off_c, 12, 71, 66
2, 27264, Note_on_c, 12, 73, 30
2, 27272, Control_c, 12, 64, 127
2, 27289, Control_c, 12, 64, 0
2, 27298, Note_off_c, 12, 73, 30
2, 27312, Note_on_c, 12, 69, 55
2, 27330, Control_c, 12, 64, 127
2, 27341, Note_off_c, 12, 69, 55
2, 27355, Control_c, 12, 64, 0
2, 27360, Note_on_c, 12, 69, 17
2, 27361, Control_c, 12, 64, 127
2, 27376, Note_off_c, 12, 64, 37
2, 27380, Note_off_c, 12, 69, 17
2, 27386, Note_off_c, 12, 76, 70
2, 27406, Control_c, 12, 64, 0
2, 27408, Note_on_c, 12, 69, 62
2, 27408, Note_on_c, 12, 66, 51
2, 27408, Note_on_c, 12, 74, 76
2, 27408, Note_on_c, 12, 59, 67
2, 27452, Note_off_c, 12, 69, 62
2, 27458, Control_c, 12, 64, 127
2, 27489, Note_off_c, 12, 66, 51
2, 27496, Note_off_c, 12, 74, 76
2, 27504, Note_on_c, 12, 69, 57
2, 27522, Note_off_c, 12, 59, 67
2, 27540, Note_off_c, 12, 69, 57
2, 27552, Note_on_c, 12, 74, 47
2, 27559, Note_off_c, 12, 74, 47
2, 27600, Note_on_c, 12, 62, 46
2, 27623, Note_off_c, 12, 62, 46
2, 27636, Control_c, 12, 64, 0
2, 27648, Note_on_c, 12, 74, 65
2, 27648, Note_on_c, 12, 67, 57
2, 27648, Note_on_c, 12, 78, 59
2, 27648, Note_on_c, 12, 55, 62
2, 27648, Note_on_c, 12, 83, 69
2, 27648, Note_on_c, 12, 86, 66
2, 27679, Control_c, 12, 64, 127
2, 27680, Note_off_c, 12, 74, 65
2, 27702, Note_off_c, 12, 78, 59
2, 27706, Note_off_c, 12, 86, 66
2, 27709, Note_off_c, 12, 83, 69
2, 27757, Note_off_c, 12, 55, 62
2, 27757, Note_off_c, 12, 67, 57
2, 27792, Note_on_c, 12, 81, 83
2, 27792, Note_on_c, 12, 54, 62
2, 27792, Note_on_c, 12, 76, 66
2, 27792, Note_on_c, 12, 85, 89
2, 27800, Control_c, 12, 64, 0
2, 27840, Note_off_c, 12, 76, 66
2, 27853, Note_off_c, 12, 81, 83
2, 27854, Control_c, 12, 64, 127
2, 27860, Note_off_c, 12, 85, 89
2, 27888, Note_on_c, 12, 76, 26
2, 27910, Note_off_c, 12, 54, 62
2, 27932, Note_off_c, 12, 76, 26
2, 27936, Note_on_c, 12, 85, 44
2, 27951, Note_off_c, 12, 85, 44
2, 27984, Note_on_c, 12, 62, 58
2, 27984, Note_on_c, 12, 55, 50
2, 27984, Note_on_c, 12, 74, 61
2, 27984, Note_on_c, 12, 78, 63
2, 27984, Note_on_c, 12, 83, 61
2, 27994, Note_off_c, 12, 74, 61
2, 27998, Note_off_c, 12, 83, 61
2, 27998, Note_off_c, 12, 78, 63
2, 28009, Control_c, 12, 64, 0
2, 28080, Note_on_c, 12, 71, 62
2, 28080, Note_on_c, 12, 74, 78
2, 28080, Note_on_c, 12, 78, 84
2, 28104, Note_off_c, 12, 62, 58
2, 28109, Note_off_c, 12, 71, 62
2, 28114, Note_off_c, 12, 55, 50
2, 28128, Note_off_c, 12, 78, 84
2, 28128, Note_off_c, 12, 74, 78
2, 28128, Note_on_c, 12, 61, 57
2, 28128, Note_on_c, 12, 71, 43
2, 28144, Note_off_c, 12, 71, 43
2, 28147, Note_off_c, 12, 61, 57
2, 28176, Note_on_c, 12, 64, 61
2, 28176, Note_on_c, 12, 76, 62
2, 28176, Note_on_c, 12, 69, 58
2, 28176, Note_on_c, 12, 73, 55
2, 28176, Note_on_c, 12, 54, 53
2, 28211, Control_c, 12, 64, 127
2, 28227, Note_off_c, 12, 69, 58
2, 28261, Note_off_c, 12, 73, 55
2, 28272, Note_on_c, 12, 69, 48
2, 28291, Note_off_c, 12, 54, 53
2, 28293, Note_off_c, 12, 64, 61
2, 28297, Note_off_c, 12, 76, 62
2, 28320, Note_on_c, 12, 73, 41
2, 28321, Note_off_c, 12, 69, 48
2, 28331, Note_off_c, 12, 73, 41
2, 28368, Note_on_c, 12, 55, 64
2, 28388, Note_off_c, 12, 55, 64
2, 28397, Control_c, 12, 64, 0
2, 28416, Note_on_c, 12, 68, 63
2, 28416, Note_on_c, 12, 62, 70
2, 28416, Note_on_c, 12, 55, 82
2, 28416, Note_on_c, 12, 71, 90
2, 28416, Note_on_c, 12, 66, 89
2, 28419, Note_off_c, 12, 68, 63
2, 28445, Note_off_c, 12, 62, 70
2, 28452, Control_c, 12, 64, 127
2, 28468, Note_off_c, 12, 66, 89
2, 28481, Note_off_c, 12, 71, 90
2, 28512, Note_on_c, 12, 62, 25
2, 28512, Note_on_c, 12, 71, 48
2, 28525, Note_off_c, 12, 62, 25
2, 28535, Note_off_c, 12, 71, 48
2, 28542, Note_off_c, 12, 55, 82
2, 28551, Control_c, 12, 64, 0
2, 28560, Note_on_c, 12, 70, 46
2, 28560, Note_on_c, 12, 62, 68
2, 28560, Note_on_c, 12, 64, 68
2, 28560, Note_on_c, 12, 57, 68
2, 28560, Note_on_c, 12, 69, 66
2, 28563, Note_off_c, 12, 70, 46
2, 28626, Note_off_c, 12, 62, 68
2, 28645, Note_off_c, 12, 64, 68
2, 28656, Note_on_c, 12, 62, 47
2, 28665, Note_off_c, 12, 57, 68
2, 28686, Control_c, 12, 64, 127
2, 28688, Note_off_c, 12, 62, 47
2, 28748, Note_off_c, 12, 69, 66
2, 28752, Note_on_c, 12, 50, 59
2, 28752, Note_on_c, 12, 66, 60
2, 28752, Note_on_c, 12, 69, 23
2, 28752, Note_on_c, 12, 62, 63
2, 28753, Control_c, 12, 64, 0
2, 28840, Note_off_c, 12, 66, 60
2, 28841, Control_c, 12, 64, 127
2, 28843, Note_off_c, 12, 69, 23
2, 28931, Note_off_c, 12, 62, 63
2, 28944, Note_on_c, 12, 62, 47
2, 28969, Note_off_c, 12, 62, 47
2, 28992, Note_on_c, 12, 69, 63
2, 28992, Note_on_c, 12, 62, 42
2, 29017, Note_off_c, 12, 69, 63
2, 29088, Note_on_c, 12, 69, 80
2, 29105, Note_off_c, 12, 62, 42
2, 29132, Note_off_c, 12, 69, 80
2, 29136, Note_on_c, 12, 62, 60
2, 29167, Control_c, 12, 64, 0
2, 29184, Note_on_c, 12, 69, 72
2, 29212, Control_c, 12, 64, 127
2, 29225, Note_off_c, 12, 69, 72
2, 29232, Note_on_c, 12, 66, 37
2, 29266, Note_off_c, 12, 66, 37
2, 29266, Note_off_c, 12, 50, 59
2, 29280, Note_on_c, 12, 69, 57
2, 29314, Note_off_c, 12, 69, 57
2, 29328, Note_on_c, 12, 66, 49
2, 29328, Note_on_c, 12, 71, 65
2, 29347, Note_off_c, 12, 66, 49
2, 29354, Control_c, 12, 64, 0
2, 29366, Note_off_c, 12, 71, 65
2, 29376, Note_on_c, 12, 55, 58
2, 29424, Note_on_c, 12, 71, 64
2, 29461, Note_off_c, 12, 71, 64
2, 29489, Note_off_c, 12, 55, 58
2, 29501, Note_off_c, 12, 62, 60
2, 29520, Note_on_c, 12, 76, 53
2, 29520, Note_on_c, 12, 61, 40
2, 29520, Note_on_c, 12, 71, 55
2, 29533, Note_off_c, 12, 76, 53
2, 29537, Note_off_c, 12, 71, 55
2, 29616, Note_on_c, 12, 76, 82
2, 29616, Note_on_c, 12, 71, 71
2, 29624, Note_off_c, 12, 61, 40
2, 29642, Note_off_c, 12, 71, 71
2, 29667, Note_off_c, 12, 76, 82
2, 29712, Note_on_c, 12, 74, 62
2, 29712, Note_on_c, 12, 69, 53
2, 29731, Note_off_c, 12, 69, 53
2, 29731, Note_off_c, 12, 74, 62
2, 29760, Note_on_c, 12, 59, 10
2, 29760, Note_on_c, 12, 66, 11
2, 29808, Note_on_c, 12, 74, 60
2, 29853, Control_c, 12, 64, 127
2, 29856, Note_on_c, 12, 69, 48
2, 29856, Control_c, 12, 64, 0
2, 29857, Note_off_c, 12, 74, 60
2, 29863, Note_off_c, 12, 66, 11
2, 29868, Note_off_c, 12, 59, 10
2, 29873, Note_off_c, 12, 69, 48
2, 29887, Control_c, 12, 64, 127
2, 29904, Note_on_c, 12, 59, 35
2, 29920, Note_off_c, 12, 59, 35
2, 29935, Control_c, 12, 64, 0
2, 29952, Note_on_c, 12, 55, 25
2, 29952, Note_on_c, 12, 62, 50
2, 30039, Note_off_c, 12, 55, 25
2, 30048, Note_on_c, 12, 71, 71
2, 30048, Note_on_c, 12, 74, 92
2, 30048, Note_on_c, 12, 78, 96
2, 30053, Note_off_c, 12, 62, 50
2, 30061, Note_off_c, 12, 78, 96
2, 30061, Note_off_c, 12, 74, 92
2, 30065, Note_off_c, 12, 71, 71
2, 30096, Note_on_c, 12, 61, 26
2, 30144, Note_on_c, 12, 64, 59
2, 30144, Note_on_c, 12, 54, 54
2, 30145, Note_off_c, 12, 61, 26
2, 30192, Note_on_c, 12, 69, 57
2, 30192, Note_on_c, 12, 74, 68
2, 30205, Note_off_c, 12, 74, 68
2, 30208, Note_off_c, 12, 69, 57
2, 30257, Note_off_c, 12, 54, 54
2, 30266, Note_off_c, 12, 64, 59
2, 30288, Note_on_c, 12, 55, 59
2, 30288, Note_on_c, 12, 71, 58
2, 30288, Note_on_c, 12, 74, 62
2, 30288, Note_on_c, 12, 69, 53
2, 30288, Note_on_c, 12, 62, 60
2, 30358, Note_off_c, 12, 69, 53
2, 30370, Control_c, 12, 64, 127
2, 30384, Note_on_c, 12, 69, 29
2, 30385, Note_off_c, 12, 71, 58
2, 30450, Note_off_c, 12, 55, 59
2, 30453, Note_off_c, 12, 69, 29
2, 30454, Note_off_c, 12, 62, 60
2, 30467, Note_off_c, 12, 74, 62
2, 30480, Note_on_c, 12, 64, 41
2, 30480, Note_on_c, 12, 69, 51
2, 30490, Note_off_c, 12, 64, 41
2, 30500, Note_off_c, 12, 69, 51
2, 30528, Note_on_c, 12, 57, 60
2, 30528, Note_on_c, 12, 64, 59
2, 30576, Note_on_c, 12, 74, 83
2, 30576, Note_on_c, 12, 78, 109
2, 30576, Note_on_c, 12, 80, 92
2, 30576, Note_on_c, 12, 83, 99
2, 30580, Control_c, 12, 64, 0
2, 30583, Note_off_c, 12, 74, 83
2, 30590, Note_off_c, 12, 80, 92
2, 30600, Note_off_c, 12, 78, 109
2, 30624, Note_on_c, 12, 79, 58
2, 30649, Note_off_c, 12, 64, 59
2, 30653, Note_off_c, 12, 83, 99
2, 30662, Note_off_c, 12, 79, 58
2, 30674, Note_off_c, 12, 57, 60
2, 30720, Note_on_c, 12, 81, 85
2, 30720, Note_on_c, 12, 50, 73
2, 30720, Note_on_c, 12, 77, 49
2, 30720, Note_on_c, 12, 62, 62
2, 30720, Note_on_c, 12, 82, 62
2, 30720, Note_on_c, 12, 80, 92
2, 30720, Note_on_c, 12, 86, 86
2, 30720, Note_on_c, 12, 62, 51
2, 30725, Note_off_c, 12, 77, 49
2, 30728, Note_off_c, 12, 82, 62
2, 30730, Note_off_c, 12, 62, 51
2, 30736, Note_off_c, 12, 80, 92
2, 30761, Control_c, 12, 64, 127
2, 30778, Note_off_c, 12, 81, 85
2, 30783, Note_off_c, 12, 86, 86
2, 30798, Note_off_c, 12, 50, 73
2, 30816, Note_on_c, 12, 86, 70
2, 30816, Note_on_c, 12, 81, 60
2, 30816, Note_on_c, 12, 80, 73
2, 30816, Note_on_c, 12, 79, 58
2, 30825, Note_off_c, 12, 62, 62
2, 30831, Note_off_c, 12, 80, 73
2, 30833, Note_off_c, 12, 79, 58
2, 30855, Note_off_c, 12, 81, 60
2, 30855, Note_off_c, 12, 86, 70
2, 30864, Note_on_c, 12, 79, 63
2, 30864, Note_on_c, 12, 62, 43
2, 30869, Control_c, 12, 64, 0
2, 30878, Note_off_c, 12, 79, 63
2, 30890, Note_off_c, 12, 62, 43
2, 30912, Note_on_c, 12, 62, 62
2, 30912, Note_on_c, 12, 55, 64
2, 30912, Note_on_c, 12, 66, 54
2, 30960, Note_on_c, 12, 81, 88
2, 30960, Note_on_c, 12, 86, 82
2, 31008, Note_off_c, 12, 81, 88
2, 31012, Note_off_c, 12, 55, 64
2, 31015, Note_off_c, 12, 86, 82
2, 31016, Note_off_c, 12, 62, 62
2, 31048, Note_off_c, 12, 66, 54
2, 31056, Note_on_c, 12, 83, 75
2, 31056, Note_on_c, 12, 82, 79
2, 31056, Note_on_c, 12, 61, 49
2, 31056, Note_on_c, 12, 88, 76
2, 31056, Note_on_c, 12, 71, 74
2, 31067, Note_off_c, 12, 82, 79
2, 31094, Note_off_c, 12, 83, 75
2, 31095, Note_off_c, 12, 88, 76
2, 31152, Note_on_c, 12, 83, 70
2, 31152, Note_on_c, 12, 82, 81
2, 31152, Note_on_c, 12, 88, 80
2, 31159, Note_off_c, 12, 82, 81
2, 31168, Note_off_c, 12, 71, 74
2, 31190, Note_off_c, 12, 83, 70
2, 31200, Note_on_c, 12, 81, 49
2, 31201, Note_off_c, 12, 88, 80
2, 31216, Note_off_c, 12, 81, 49
2, 31225, Note_off_c, 12, 61, 49
2, 31248, Note_on_c, 12, 86, 70
2, 31248, Note_on_c, 12, 81, 66
2, 31248, Note_on_c, 12, 59, 60
2, 31248, Note_on_c, 12, 69, 63
2, 31294, Note_off_c, 12, 81, 66
2, 31320, Note_off_c, 12, 86, 70
2, 31344, Note_on_c, 12, 81, 64
2, 31344, Note_on_c, 12, 86, 52
2, 31356, Note_off_c, 12, 69, 63
2, 31392, Note_on_c, 12, 78, 28
2, 31401, Note_off_c, 12, 59, 60
2, 31402, Note_off_c, 12, 81, 64
2, 31409, Note_off_c, 12, 78, 28
2, 31409, Note_off_c, 12, 86, 52
2, 31440, Note_on_c, 12, 62, 53
2, 31488, Note_on_c, 12, 78, 44
2, 31488, Note_on_c, 12, 83, 90
2, 31488, Note_on_c, 12, 55, 53
2, 31488, Note_on_c, 12, 66, 38
2, 31488, Note_on_c, 12, 76, 78
2, 31508, Note_off_c, 12, 76, 78
2, 31536, Note_off_c, 12, 78, 44
2, 31536, Note_on_c, 12, 76, 60
2, 31574, Note_off_c, 12, 76, 60
2, 31583, Note_off_c, 12, 62, 53
2, 31584, Note_on_c, 12, 74, 66
2, 31587, Note_off_c, 12, 66, 38
2, 31591, Note_off_c, 12, 83, 90
2, 31604, Note_off_c, 12, 55, 53
2, 31610, Note_off_c, 12, 74, 66
2, 31632, Note_on_c, 12, 54, 62
2, 31632, Note_on_c, 12, 64, 61
2, 31632, Note_on_c, 12, 76, 90
2, 31713, Note_off_c, 12, 76, 90
2, 31728, Note_on_c, 12, 71, 46
2, 31744, Note_off_c, 12, 71, 46
2, 31773, Note_off_c, 12, 54, 62
2, 31783, Note_off_c, 12, 64, 61
2, 31824, Note_on_c, 12, 69, 42
2, 31824, Note_on_c, 12, 55, 57
2, 31824, Note_on_c, 12, 62, 57
2, 31833, Note_off_c, 12, 69, 42
2, 31920, Note_on_c, 12, 71, 45
2, 31920, Note_on_c, 12, 66, 51
2, 31945, Note_off_c, 12, 62, 57
2, 31945, Note_off_c, 12, 55, 57
2, 31950, Note_off_c, 12, 71, 45
2, 31953, Note_off_c, 12, 66, 51
2, 32016, Note_on_c, 12, 68, 43
2, 32016, Note_on_c, 12, 54, 38
2, 32016, Note_on_c, 12, 64, 62
2, 32016, Note_on_c, 12, 69, 75
2, 32016, Note_on_c, 12, 61, 46
2, 32023, Note_off_c, 12, 68, 43
2, 32085, Note_off_c, 12, 64, 62
2, 32110, Note_off_c, 12, 69, 75
2, 32112, Note_on_c, 12, 64, 35
2, 32123, Control_c, 12, 64, 127
2, 32154, Note_off_c, 12, 64, 35
2, 32160, Note_on_c, 12, 66, 36
2, 32164, Note_off_c, 12, 54, 38
2, 32169, Note_off_c, 12, 61, 46
2, 32170, Note_off_c, 12, 66, 36
2, 32238, Control_c, 12, 64, 0
2, 32256, Note_on_c, 12, 71, 70
2, 32256, Note_on_c, 12, 62, 57
2, 32256, Note_on_c, 12, 55, 52
2, 32256, Note_on_c, 12, 66, 63
2, 32283, Control_c, 12, 64, 127
2, 32323, Note_off_c, 12, 66, 63
2, 32335, Note_off_c, 12, 71, 70
2, 32338, Note_off_c, 12, 55, 52
2, 32376, Note_off_c, 12, 62, 57
2, 32400, Note_on_c, 12, 69, 64
2, 32400, Note_on_c, 12, 76, 80
2, 32400, Note_on_c, 12, 71, 74
2, 32400, Note_on_c, 12, 57, 62
2, 32400, Note_on_c, 12, 64, 58
2, 32400, Control_c, 12, 64, 0
2, 32464, Control_c, 12, 64, 127
2, 32471, Note_off_c, 12, 71, 74
2, 32496, Note_on_c, 12, 74, 59
2, 32503, Note_off_c, 12, 76, 80
2, 32518, Note_off_c, 12, 64, 58
2, 32522, Note_off_c, 12, 69, 64
2, 32532, Note_off_c, 12, 57, 62
2, 32535, Note_off_c, 12, 74, 59
2, 32592, Note_on_c, 12, 69, 50
2, 32592, Note_on_c, 12, 62, 57
2, 32592, Note_on_c, 12, 74, 59
2, 32592, Note_on_c, 12, 50, 60
2, 32597, Control_c, 12, 64, 0
2, 32642, Note_off_c, 12, 69, 50
2, 32657, Control_c, 12, 64, 127
2, 32667, Note_off_c, 12, 74, 59
2, 32688, Note_on_c, 12, 69, 40
2, 32701, Note_off_c, 12, 62, 57
2, 32747, Note_off_c, 12, 69, 40
2, 32832, Note_on_c, 12, 62, 50
2, 32918, Note_off_c, 12, 62, 50
2, 32928, Note_on_c, 12, 69, 55
2, 32947, Note_off_c, 12, 50, 60
2, 32950, Note_off_c, 12, 69, 55
2, 32998, Control_c, 12, 64, 0
2, 33024, Note_on_c, 12, 57, 69
2, 33024, Note_on_c, 12, 73, 84
2, 33024, Note_on_c, 12, 45, 54
2, 33043, Control_c, 12, 64, 127
2, 33072, Note_off_c, 12, 73, 84
2, 33097, Note_off_c, 12, 45, 54
2, 33116, Note_off_c, 12, 57, 69
2, 33120, Note_on_c, 12, 64, 50
2, 33144, Note_off_c, 12, 64, 50
2, 33168, Note_on_c, 12, 69, 44
2, 33168, Note_on_c, 12, 58, 40
2, 33178, Note_off_c, 12, 69, 44
2, 33210, Control_c, 12, 64, 0
2, 33216, Note_on_c, 12, 73, 41
2, 33216, Note_on_c, 12, 66, 68
2, 33216, Note_on_c, 12, 46, 62
2, 33219, Note_off_c, 12, 73, 41
2, 33270, Control_c, 12, 64, 127
2, 33312, Note_on_c, 12, 73, 73
2, 33316, Note_off_c, 12, 46, 62
2, 33317, Note_off_c, 12, 66, 68
2, 33333, Note_off_c, 12, 58, 40
2, 33338, Note_off_c, 12, 73, 73
2, 33355, Control_c, 12, 64, 0
2, 33360, Note_on_c, 12, 47, 70
2, 33360, Note_on_c, 12, 74, 63
2, 33360, Note_on_c, 12, 59, 62
2, 33360, Note_on_c, 12, 71, 60
2, 33360, Note_on_c, 12, 66, 42
2, 33406, Note_off_c, 12, 66, 42
2, 33427, Note_off_c, 12, 71, 60
2, 33439, Note_off_c, 12, 74, 63
2, 33454, Control_c, 12, 64, 127
2, 33456, Note_on_c, 12, 78, 75
2, 33456, Note_on_c, 12, 66, 42
2, 33464, Note_off_c, 12, 47, 70
2, 33482, Note_off_c, 12, 59, 62
2, 33485, Note_off_c, 12, 66, 42
2, 33500, Note_off_c, 12, 78, 75
2, 33548, Control_c, 12, 64, 0
2, 33552, Note_on_c, 12, 61, 54
2, 33552, Note_on_c, 12, 49, 60
2, 33552, Note_on_c, 12, 76, 78
2, 33552, Note_on_c, 12, 71, 55
2, 33618, Control_c, 12, 64, 127
2, 33648, Note_on_c, 12, 73, 40
2, 33656, Note_off_c, 12, 71, 55
2, 33668, Note_off_c, 12, 49, 60
2, 33675, Note_off_c, 12, 61, 54
2, 33681, Note_off_c, 12, 76, 78
2, 33686, Note_off_c, 12, 73, 40
2, 33696, Note_on_c, 12, 69, 51
2, 33712, Note_off_c, 12, 69, 51
2, 33744, Note_on_c, 12, 57, 60
2, 33766, Control_c, 12, 64, 0
2, 33782, Note_off_c, 12, 57, 60
2, 33792, Note_on_c, 12, 69, 53
2, 33792, Note_on_c, 12, 62, 68
2, 33792, Note_on_c, 12, 74, 75
2, 33792, Note_on_c, 12, 78, 96
2, 33792, Note_on_c, 12, 50, 66
2, 33814, Note_off_c, 12, 69, 53
2, 33816, Control_c, 12, 64, 127
2, 33873, Note_off_c, 12, 74, 75
2, 33876, Note_off_c, 12, 78, 96
2, 33883, Note_off_c, 12, 62, 68
2, 33885, Note_off_c, 12, 50, 66
2, 33888, Note_on_c, 12, 69, 51
2, 33888, Note_on_c, 12, 56, 45
2, 33904, Note_off_c, 12, 69, 51
2, 33910, Note_off_c, 12, 56, 45
2, 33936, Note_on_c, 12, 61, 81
2, 33936, Note_on_c, 12, 68, 69
2, 33936, Note_on_c, 12, 73, 73
2, 33936, Note_on_c, 12, 77, 88
2, 33937, Control_c, 12, 64, 0
2, 33976, Note_off_c, 12, 77, 88
2, 33980, Note_off_c, 12, 68, 69
2, 33983, Note_off_c, 12, 73, 73
2, 34004, Control_c, 12, 64, 127
2, 34032, Note_on_c, 12, 80, 81
2, 34057, Note_off_c, 12, 80, 81
2, 34108, Note_off_c, 12, 61, 81
2, 34127, Control_c, 12, 64, 0
2, 34128, Note_on_c, 12, 81, 78
2, 34128, Note_on_c, 12, 66, 66
2, 34128, Note_on_c, 12, 54, 62
2, 34128, Note_on_c, 12, 78, 71
2, 34128, Note_on_c, 12, 73, 60
2, 34181, Control_c, 12, 64, 127
2, 34186, Note_off_c, 12, 73, 60
2, 34192, Note_off_c, 12, 78, 71
2, 34196, Note_off_c, 12, 81, 78
2, 34224, Note_off_c, 12, 54, 62
2, 34224, Note_on_c, 12, 85, 86
2, 34256, Note_off_c, 12, 85, 86
2, 34256, Note_off_c, 12, 66, 66
2, 34320, Note_on_c, 12, 83, 90
2, 34320, Note_on_c, 12, 78, 89
2, 34320, Note_on_c, 12, 56, 64
2, 34320, Note_on_c, 12, 68, 60
2, 34323, Control_c, 12, 64, 0
2, 34342, Note_off_c, 12, 78, 89
2, 34368, Note_on_c, 12, 80, 55
2, 34399, Control_c, 12, 64, 127
2, 34416, Note_on_c, 12, 76, 58
2, 34424, Note_off_c, 12, 80, 55
2, 34434, Note_off_c, 12, 83, 90
2, 34464, Note_on_c, 12, 83, 39
2, 34471, Note_off_c, 12, 83, 39
2, 34472, Note_off_c, 12, 76, 58
2, 34486, Note_off_c, 12, 56, 64
2, 34489, Note_off_c, 12, 68, 60
2, 34512, Note_on_c, 12, 76, 33
2, 34512, Note_on_c, 12, 64, 58
2, 34531, Note_off_c, 12, 76, 33
2, 34545, Note_off_c, 12, 64, 58
2, 34550, Control_c, 12, 64, 0
2, 34560, Note_on_c, 12, 76, 64
2, 34560, Note_on_c, 12, 57, 70
2, 34560, Note_on_c, 12, 81, 85
2, 34560, Note_on_c, 12, 85, 104
2, 34560, Note_on_c, 12, 69, 75
2, 34595, Note_off_c, 12, 76, 64
2, 34596, Control_c, 12, 64, 127
2, 34629, Note_off_c, 12, 81, 85
2, 34642, Note_off_c, 12, 85, 104
2, 34656, Note_on_c, 12, 76, 54
2, 34681, Note_off_c, 12, 69, 75
2, 34682, Note_off_c, 12, 76, 54
2, 34687, Note_off_c, 12, 57, 70
2, 34704, Note_on_c, 12, 62, 63
2, 34736, Note_off_c, 12, 62, 63
2, 34751, Control_c, 12, 64, 0
2, 34752, Note_on_c, 12, 85, 86
2, 34752, Note_on_c, 12, 67, 72
2, 34752, Note_on_c, 12, 55, 72
2, 34790, Control_c, 12, 64, 127
2, 34800, Note_on_c, 12, 86, 65
2, 34802, Note_off_c, 12, 85, 86
2, 34847, Note_off_c, 12, 55, 72
2, 34848, Note_on_c, 12, 61, 36
2, 34848, Note_on_c, 12, 88, 70
2, 34850, Note_off_c, 12, 86, 65
2, 34855, Note_off_c, 12, 67, 72
2, 34866, Note_off_c, 12, 61, 36
2, 34870, Note_off_c, 12, 88, 70
2, 34890, Control_c, 12, 64, 0
2, 34896, Note_on_c, 12, 88, 79
2, 34896, Note_on_c, 12, 93, 94
2, 34896, Note_on_c, 12, 89, 66
2, 34896, Note_on_c, 12, 87, 92
2, 34896, Note_on_c, 12, 66, 64
2, 34896, Note_on_c, 12, 54, 58
2, 34906, Note_off_c, 12, 89, 66
2, 34914, Note_off_c, 12, 87, 92
2, 34949, Control_c, 12, 64, 127
2, 34969, Note_off_c, 12, 88, 79
2, 34978, Note_off_c, 12, 93, 94
2, 34992, Note_on_c, 12, 93, 66
2, 34992, Note_on_c, 12, 86, 70
2, 35023, Note_off_c, 12, 54, 58
2, 35040, Note_on_c, 12, 66, 34
2, 35040, Note_on_c, 12, 85, 47
2, 35042, Note_off_c, 12, 66, 64
2, 35049, Note_off_c, 12, 66, 34
2, 35063, Note_off_c, 12, 86, 70
2, 35065, Note_off_c, 12, 85, 47
2, 35078, Note_off_c, 12, 93, 66
2, 35088, Note_on_c, 12, 93, 62
2, 35088, Note_on_c, 12, 86, 71
2, 35088, Note_on_c, 12, 59, 67
2, 35088, Note_on_c, 12, 69, 65
2, 35093, Control_c, 12, 64, 0
2, 35157, Note_off_c, 12, 93, 62
2, 35160, Note_off_c, 12, 86, 71
2, 35165, Control_c, 12, 64, 127
2, 35184, Note_on_c, 12, 86, 65
2, 35184, Note_on_c, 12, 93, 58
2, 35206, Note_off_c, 12, 69, 65
2, 35218, Note_off_c, 12, 59, 67
2, 35221, Note_off_c, 12, 86, 65
2, 35235, Note_off_c, 12, 93, 58
2, 35280, Note_on_c, 12, 83, 29
2, 35280, Note_on_c, 12, 95, 46
2, 35280, Note_on_c, 12, 59, 33
2, 35290, Note_off_c, 12, 83, 29
2, 35293, Note_off_c, 12, 95, 46
2, 35328, Note_on_c, 12, 91, 79
2, 35328, Note_on_c, 12, 69, 65
2, 35328, Note_on_c, 12, 59, 52
2, 35328, Note_on_c, 12, 57, 61
2, 35328, Note_on_c, 12, 86, 76
2, 35328, Note_on_c, 12, 95, 82
2, 35328, Note_on_c, 12, 83, 70
2, 35329, Control_c, 12, 64, 0
2, 35336, Note_off_c, 12, 59, 33
2, 35363, Note_off_c, 12, 59, 52
2, 35369, Control_c, 12, 64, 127
2, 35379, Note_off_c, 12, 83, 70
2, 35383, Note_off_c, 12, 86, 76
2, 35401, Note_off_c, 12, 91, 79
2, 35408, Note_off_c, 12, 95, 82
2, 35424, Note_on_c, 12, 91, 60
2, 35424, Note_on_c, 12, 83, 49
2, 35424, Note_on_c, 12, 95, 41
2, 35433, Note_off_c, 12, 95, 41
2, 35434, Note_off_c, 12, 91, 60
2, 35440, Note_off_c, 12, 83, 49
2, 35440, Note_off_c, 12, 69, 65
2, 35448, Note_off_c, 12, 57, 61
2, 35472, Note_on_c, 12, 69, 57
2, 35472, Note_on_c, 12, 85, 89
2, 35472, Note_on_c, 12, 81, 82
2, 35472, Note_on_c, 12, 93, 88
2, 35472, Note_on_c, 12, 88, 92
2, 35472, Note_on_c, 12, 57, 62
2, 35476, Control_c, 12, 64, 0
2, 35514, Note_off_c, 12, 81, 82
2, 35515, Control_c, 12, 64, 127
2, 35532, Note_off_c, 12, 85, 89
2, 35548, Note_off_c, 12, 88, 92
2, 35548, Note_off_c, 12, 93, 88
2, 35568, Note_on_c, 12, 81, 51
2, 35574, Note_off_c, 12, 69, 57
2, 35592, Note_off_c, 12, 57, 62
2, 35616, Note_on_c, 12, 88, 41
2, 35626, Note_off_c, 12, 88, 41
2, 35628, Note_off_c, 12, 81, 51
2, 35664, Note_on_c, 12, 90, 52
2, 35664, Note_on_c, 12, 83, 83
2, 35664, Note_on_c, 12, 69, 60
2, 35664, Note_on_c, 12, 95, 90
2, 35664, Note_on_c, 12, 86, 99
2, 35664, Note_on_c, 12, 91, 94
2, 35664, Note_on_c, 12, 57, 24
2, 35668, Note_off_c, 12, 90, 52
2, 35678, Control_c, 12, 64, 0
2, 35706, Control_c, 12, 64, 127
2, 35710, Note_off_c, 12, 83, 83
2, 35716, Note_off_c, 12, 86, 99
2, 35723, Note_off_c, 12, 91, 94
2, 35723, Note_off_c, 12, 95, 90
2, 35739, Note_off_c, 12, 69, 60
2, 35760, Note_on_c, 12, 91, 57
2, 35760, Note_on_c, 12, 83, 52
2, 35760, Note_on_c, 12, 95, 53
2, 35772, Note_off_c, 12, 91, 57
2, 35776, Note_off_c, 12, 95, 53
2, 35777, Note_off_c, 12, 83, 52
2, 35808, Note_on_c, 12, 69, 55
2, 35828, Note_off_c, 12, 57, 24
2, 35856, Note_on_c, 12, 57, 50
2, 35856, Note_on_c, 12, 88, 66
2, 35856, Note_on_c, 12, 93, 52
2, 35856, Note_on_c, 12, 81, 57
2, 35856, Note_on_c, 12, 85, 51
2, 35868, Note_off_c, 12, 57, 50
2, 35882, Note_off_c, 12, 81, 57
2, 35885, Note_off_c, 12, 93, 52
2, 35888, Note_off_c, 12, 88, 66
2, 35889, Note_off_c, 12, 85, 51
2, 35904, Note_on_c, 12, 88, 75
2, 35904, Note_on_c, 12, 85, 59
2, 35904, Note_on_c, 12, 81, 62
2, 35904, Note_on_c, 12, 93, 66
2, 35904, Note_on_c, 12, 57, 74
2, 35923, Note_off_c, 12, 81, 62
2, 35939, Note_off_c, 12, 85, 59
2, 35945, Note_off_c, 12, 93, 66
2, 35945, Note_off_c, 12, 88, 75
2, 35956, Note_off_c, 12, 69, 55
2, 35999, Note_off_c, 12, 57, 74
2, 36000, Note_on_c, 12, 93, 86
2, 36000, Note_on_c, 12, 88, 101
2, 36000, Note_on_c, 12, 85, 92
2, 36000, Note_on_c, 12, 81, 76
2, 36016, Note_off_c, 12, 85, 92
2, 36020, Note_off_c, 12, 88, 101
2, 36020, Note_off_c, 12, 93, 86
2, 36023, Note_off_c, 12, 81, 76
2, 36048, Note_on_c, 12, 57, 57
2, 36084, Control_c, 12, 64, 0
2, 36091, Note_off_c, 12, 57, 57
2, 36096, Note_on_c, 12, 50, 90
2, 36096, Note_on_c, 12, 62, 78
2, 36144, Note_on_c, 12, 77, 78
2, 36144, Note_on_c, 12, 78, 100
2, 36144, Note_on_c, 12, 74, 97
2, 36147, Note_off_c, 12, 77, 78
2, 36147, Control_c, 12, 64, 127
2, 36156, Note_off_c, 12, 50, 90
2, 36174, Note_off_c, 12, 74, 97
2, 36177, Note_off_c, 12, 78, 100
2, 36191, Note_off_c, 12, 62, 78
2, 36192, Note_on_c, 12, 62, 45
2, 36192, Note_on_c, 12, 69, 42
2, 36204, Note_off_c, 12, 69, 42
2, 36211, Note_off_c, 12, 62, 45
2, 36215, Control_c, 12, 64, 0
2, 36240, Note_on_c, 12, 66, 71
2, 36240, Note_on_c, 12, 74, 82
2, 36240, Note_on_c, 12, 69, 63
2, 36240, Note_on_c, 12, 71, 62
2, 36240, Note_on_c, 12, 55, 68
2, 36240, Note_on_c, 12, 78, 84
2, 36294, Note_off_c, 12, 71, 62
2, 36294, Note_off_c, 12, 69, 63
2, 36322, Note_off_c, 12, 74, 82
2, 36336, Note_on_c, 12, 69, 51
2, 36336, Note_on_c, 12, 71, 51
2, 36337, Note_off_c, 12, 78, 84
2, 36361, Note_off_c, 12, 71, 51
2, 36364, Note_off_c, 12, 69, 51
2, 36384, Note_on_c, 12, 78, 44
2, 36384, Note_on_c, 12, 74, 46
2, 36396, Note_off_c, 12, 74, 46
2, 36409, Note_off_c, 12, 78, 44
2, 36432, Note_on_c, 12, 76, 78
2, 36432, Note_on_c, 12, 71, 52
2, 36445, Note_off_c, 12, 76, 78
2, 36448, Note_off_c, 12, 71, 52
2, 36452, Note_off_c, 12, 55, 68
2, 36455, Note_off_c, 12, 66, 71
2, 36480, Note_on_c, 12, 61, 44
2, 36528, Note_on_c, 12, 71, 69
2, 36528, Note_on_c, 12, 76, 80
2, 36568, Control_c, 12, 64, 127
2, 36581, Note_off_c, 12, 71, 69
2, 36595, Note_off_c, 12, 61, 44
2, 36600, Note_off_c, 12, 76, 80
2, 36624, Note_on_c, 12, 66, 51
2, 36624, Note_on_c, 12, 59, 58
2, 36624, Note_on_c, 12, 74, 62
2, 36624, Note_on_c, 12, 69, 54
2, 36638, Control_c, 12, 64, 0
2, 36657, Note_off_c, 12, 69, 54
2, 36659, Note_off_c, 12, 74, 62
2, 36686, Control_c, 12, 64, 127
2, 36720, Note_on_c, 12, 69, 32
2, 36720, Note_on_c, 12, 74, 75
2, 36725, Note_off_c, 12, 66, 51
2, 36729, Note_off_c, 12, 59, 58
2, 36730, Note_off_c, 12, 69, 32
2, 36768, Note_off_c, 12, 74, 75
2, 36768, Note_on_c, 12, 69, 53
2, 36797, Note_off_c, 12, 69, 53
2, 36816, Note_on_c, 12, 59, 62
2, 36838, Control_c, 12, 64, 0
2, 36845, Note_off_c, 12, 59, 62
2, 36864, Note_on_c, 12, 67, 68
2, 36864, Note_on_c, 12, 55, 66
2, 36864, Note_on_c, 12, 71, 58
2, 36864, Note_on_c, 12, 83, 72
2, 36864, Note_on_c, 12, 74, 67
2, 36864, Note_on_c, 12, 78, 54
2, 36877, Note_off_c, 12, 71, 58
2, 36881, Note_off_c, 12, 78, 54
2, 36881, Note_off_c, 12, 74, 67
2, 36881, Note_off_c, 12, 83, 72
2, 36960, Note_on_c, 12, 71, 60
2, 36960, Note_on_c, 12, 74, 75
2, 36960, Note_on_c, 12, 83, 80
2, 36960, Note_on_c, 12, 78, 69
2, 36965, Note_off_c, 12, 67, 68
2, 36965, Control_c, 12, 64, 127
2, 36971, Note_off_c, 12, 74, 75
2, 36974, Note_off_c, 12, 71, 60
2, 36975, Note_off_c, 12, 55, 66
2, 36981, Note_off_c, 12, 78, 69
2, 36982, Control_c, 12, 64, 0
2, 36988, Note_off_c, 12, 83, 80
2, 37008, Note_on_c, 12, 61, 32
2, 37056, Note_on_c, 12, 76, 53
2, 37056, Note_on_c, 12, 81, 37
2, 37056, Note_on_c, 12, 73, 33
2, 37056, Note_on_c, 12, 69, 33
2, 37056, Note_on_c, 12, 54, 45
2, 37069, Note_off_c, 12, 81, 37
2, 37069, Note_off_c, 12, 76, 53
2, 37073, Note_off_c, 12, 69, 33
2, 37073, Note_off_c, 12, 73, 33
2, 37104, Note_on_c, 12, 81, 33
2, 37104, Note_on_c, 12, 76, 53
2, 37104, Note_on_c, 12, 73, 43
2, 37104, Note_on_c, 12, 69, 53
2, 37114, Note_off_c, 12, 81, 33
2, 37121, Note_off_c, 12, 69, 53
2, 37121, Note_off_c, 12, 73, 43
2, 37121, Note_off_c, 12, 76, 53
2, 37142, Control_c, 12, 64, 127
2, 37148, Control_c, 12, 64, 0
2, 37182, Note_off_c, 12, 54, 45
2, 37195, Note_off_c, 12, 61, 32
2, 37200, Note_on_c, 12, 62, 57
2, 37200, Note_on_c, 12, 55, 60
2, 37200, Note_on_c, 12, 78, 66
2, 37200, Note_on_c, 12, 74, 69
2, 37200, Note_on_c, 12, 71, 58
2, 37220, Note_off_c, 12, 71, 58
2, 37224, Note_off_c, 12, 74, 69
2, 37224, Note_off_c, 12, 78, 66
2, 37296, Note_on_c, 12, 78, 96
2, 37296, Note_on_c, 12, 74, 86
2, 37296, Note_on_c, 12, 71, 66
2, 37307, Note_off_c, 12, 55, 60
2, 37311, Note_off_c, 12, 62, 57
2, 37315, Note_off_c, 12, 71, 66
2, 37323, Control_c, 12, 64, 127
2, 37344, Note_on_c, 12, 71, 40
2, 37344, Note_on_c, 12, 62, 44
2, 37354, Note_off_c, 12, 74, 86
2, 37361, Note_off_c, 12, 71, 40
2, 37361, Note_off_c, 12, 78, 96
2, 37367, Note_off_c, 12, 62, 44
2, 37392, Note_on_c, 12, 64, 40
2, 37392, Note_on_c, 12, 74, 62
2, 37392, Note_on_c, 12, 71, 42
2, 37392, Note_on_c, 12, 78, 51
2, 37402, Note_off_c, 12, 71, 42
2, 37408, Note_off_c, 12, 74, 62
2, 37408, Note_off_c, 12, 64, 40
2, 37423, Note_off_c, 12, 78, 51
2, 37425, Control_c, 12, 64, 0
2, 37440, Note_on_c, 12, 64, 57
2, 37440, Note_on_c, 12, 54, 59
2, 37488, Note_on_c, 12, 76, 79
2, 37488, Note_on_c, 12, 77, 104
2, 37488, Note_on_c, 12, 78, 92
2, 37504, Note_off_c, 12, 76, 79
2, 37526, Note_off_c, 12, 78, 92
2, 37535, Note_off_c, 12, 64, 57
2, 37564, Note_off_c, 12, 77, 104
2, 37567, Note_off_c, 12, 54, 59
2, 37584, Note_on_c, 12, 76, 12
2, 37613, Note_off_c, 12, 76, 12
2, 37632, Note_on_c, 12, 62, 58
2, 37632, Note_on_c, 12, 76, 80
2, 37632, Note_on_c, 12, 50, 66
2, 37660, Control_c, 12, 64, 127
2, 37679, Note_off_c, 12, 76, 80
2, 37680, Note_on_c, 12, 74, 57
2, 37690, Note_off_c, 12, 50, 66
2, 37721, Note_off_c, 12, 74, 57
2, 37721, Note_off_c, 12, 62, 58
2, 37728, Note_on_c, 12, 71, 50
2, 37747, Note_off_c, 12, 71, 50
2, 37776, Note_on_c, 12, 62, 54
2, 37776, Note_on_c, 12, 69, 69
2, 37776, Note_on_c, 12, 66, 62
2, 37776, Note_on_c, 12, 55, 62
2, 37776, Note_on_c, 12, 74, 75
2, 37781, Control_c, 12, 64, 0
2, 37839, Note_off_c, 12, 69, 69
2, 37872, Note_on_c, 12, 71, 56
2, 37888, Control_c, 12, 64, 127
2, 37894, Note_off_c, 12, 74, 75
2, 37916, Note_off_c, 12, 71, 56
2, 37920, Note_on_c, 12, 69, 55
2, 37931, Note_off_c, 12, 62, 54
2, 37934, Note_off_c, 12, 55, 62
2, 37943, Note_off_c, 12, 69, 55
2, 37950, Note_off_c, 12, 66, 62
2, 37964, Control_c, 12, 64, 0
2, 37968, Note_on_c, 12, 68, 58
2, 37968, Note_on_c, 12, 71, 69
2, 37968, Note_on_c, 12, 76, 60
2, 37968, Note_on_c, 12, 61, 54
2, 38014, Note_off_c, 12, 68, 58
2, 38031, Note_off_c, 12, 76, 60
2, 38031, Note_off_c, 12, 71, 69
2, 38060, Control_c, 12, 64, 127
2, 38064, Note_on_c, 12, 78, 71
2, 38064, Note_on_c, 12, 68, 42
2, 38126, Note_off_c, 12, 78, 71
2, 38142, Note_off_c, 12, 61, 54
2, 38154, Note_off_c, 12, 68, 42
2, 38160, Note_on_c, 12, 59, 55
2, 38160, Note_on_c, 12, 66, 49
2, 38160, Note_on_c, 12, 74, 68
2, 38160, Note_on_c, 12, 71, 62
2, 38160, Note_on_c, 12, 68, 42
2, 38171, Control_c, 12, 64, 0
2, 38203, Note_off_c, 12, 68, 42
2, 38219, Control_c, 12, 64, 127
2, 38245, Note_off_c, 12, 71, 62
2, 38249, Note_off_c, 12, 74, 68
2, 38256, Note_on_c, 12, 68, 27
2, 38272, Note_off_c, 12, 66, 49
2, 38303, Note_off_c, 12, 68, 27
2, 38304, Note_on_c, 12, 74, 43
2, 38314, Note_off_c, 12, 74, 43
2, 38325, Note_off_c, 12, 59, 55
2, 38352, Note_on_c, 12, 62, 50
2, 38383, Note_off_c, 12, 62, 50
2, 38393, Control_c, 12, 64, 0
2, 38400, Note_on_c, 12, 55, 61
2, 38400, Note_on_c, 12, 74, 66
2, 38400, Note_on_c, 12, 86, 72
2, 38400, Note_on_c, 12, 83, 72
2, 38400, Note_on_c, 12, 78, 64
2, 38400, Note_on_c, 12, 66, 52
2, 38433, Control_c, 12, 64, 127
2, 38445, Note_off_c, 12, 74, 66
2, 38448, Note_off_c, 12, 78, 64
2, 38451, Note_off_c, 12, 83, 72
2, 38451, Note_off_c, 12, 86, 72
2, 38496, Note_on_c, 12, 86, 39
2, 38502, Note_off_c, 12, 55, 61
2, 38510, Note_off_c, 12, 86, 39
2, 38516, Note_off_c, 12, 66, 52
2, 38538, Control_c, 12, 64, 0
2, 38544, Note_on_c, 12, 54, 58
2, 38544, Note_on_c, 12, 76, 72
2, 38544, Note_on_c, 12, 85, 89
2, 38544, Note_on_c, 12, 66, 51
2, 38544, Note_on_c, 12, 81, 90
2, 38574, Note_off_c, 12, 76, 72
2, 38599, Note_off_c, 12, 81, 90
2, 38602, Control_c, 12, 64, 127
2, 38606, Note_off_c, 12, 85, 89
2, 38640, Note_on_c, 12, 85, 47
2, 38640, Note_on_c, 12, 76, 54
2, 38650, Note_off_c, 12, 85, 47
2, 38660, Note_off_c, 12, 76, 54
2, 38666, Note_off_c, 12, 66, 51
2, 38673, Note_off_c, 12, 54, 58
2, 38688, Note_on_c, 12, 74, 47
2, 38694, Note_off_c, 12, 74, 47
2, 38736, Note_on_c, 12, 71, 58
2, 38736, Note_on_c, 12, 74, 72
2, 38736, Note_on_c, 12, 55, 61
2, 38736, Note_on_c, 12, 81, 70
2, 38736, Note_on_c, 12, 62, 63
2, 38736, Note_on_c, 12, 78, 69
2, 38743, Control_c, 12, 64, 0
2, 38748, Note_off_c, 12, 74, 72
2, 38748, Note_off_c, 12, 71, 58
2, 38753, Note_off_c, 12, 78, 69
2, 38753, Note_off_c, 12, 81, 70
2, 38832, Note_on_c, 12, 81, 74
2, 38832, Note_on_c, 12, 78, 89
2, 38832, Note_on_c, 12, 74, 80
2, 38832, Note_on_c, 12, 71, 68
2, 38842, Note_off_c, 12, 62, 63
2, 38842, Note_off_c, 12, 55, 61
2, 38861, Note_off_c, 12, 74, 80
2, 38880, Note_on_c, 12, 61, 39
2, 38883, Note_off_c, 12, 71, 68
2, 38890, Note_off_c, 12, 78, 89
2, 38900, Note_off_c, 12, 81, 74
2, 38910, Note_off_c, 12, 61, 39
2, 38928, Note_on_c, 12, 76, 66
2, 38928, Note_on_c, 12, 69, 57
2, 38928, Note_on_c, 12, 61, 52
2, 38928, Note_on_c, 12, 54, 59
2, 38928, Note_on_c, 12, 81, 57
2, 38928, Note_on_c, 12, 73, 44
2, 38978, Note_off_c, 12, 69, 57
2, 39007, Note_off_c, 12, 73, 44
2, 39018, Note_off_c, 12, 76, 66
2, 39020, Control_c, 12, 64, 127
2, 39024, Note_on_c, 12, 69, 45
2, 39032, Note_off_c, 12, 81, 57
2, 39054, Note_off_c, 12, 61, 52
2, 39064, Note_off_c, 12, 54, 59
2, 39072, Note_on_c, 12, 76, 52
2, 39072, Note_on_c, 12, 81, 35
2, 39072, Note_on_c, 12, 73, 17
2, 39082, Note_off_c, 12, 69, 45
2, 39092, Note_off_c, 12, 76, 52
2, 39093, Note_off_c, 12, 73, 17
2, 39099, Note_off_c, 12, 81, 35
2, 39120, Note_on_c, 12, 62, 60
2, 39145, Note_off_c, 12, 62, 60
2, 39152, Control_c, 12, 64, 0
2, 39168, Note_on_c, 12, 78, 71
2, 39168, Note_on_c, 12, 83, 76
2, 39168, Note_on_c, 12, 55, 59
2, 39168, Note_on_c, 12, 62, 60
2, 39168, Note_on_c, 12, 74, 62
2, 39178, Note_off_c, 12, 83, 76
2, 39178, Note_off_c, 12, 78, 71
2, 39182, Note_off_c, 12, 74, 62
2, 39264, Note_on_c, 12, 78, 75
2, 39264, Note_on_c, 12, 83, 80
2, 39264, Note_on_c, 12, 74, 69
2, 39273, Control_c, 12, 64, 127
2, 39277, Note_off_c, 12, 78, 75
2, 39277, Note_off_c, 12, 55, 59
2, 39286, Control_c, 12, 64, 0
2, 39291, Note_off_c, 12, 83, 80
2, 39294, Note_off_c, 12, 74, 69
2, 39306, Note_off_c, 12, 62, 60
2, 39312, Note_on_c, 12, 73, 41
2, 39312, Note_on_c, 12, 81, 51
2, 39312, Note_on_c, 12, 64, 64
2, 39312, Note_on_c, 12, 57, 67
2, 39312, Note_on_c, 12, 76, 45
2, 39330, Note_off_c, 12, 73, 41
2, 39349, Note_off_c, 12, 81, 51
2, 39364, Note_off_c, 12, 76, 45
2, 39408, Note_on_c, 12, 76, 62
2, 39408, Note_on_c, 12, 81, 62
2, 39424, Note_off_c, 12, 64, 64
2, 39433, Control_c, 12, 64, 127
2, 39436, Note_off_c, 12, 57, 67
2, 39446, Note_off_c, 12, 76, 62
2, 39456, Note_on_c, 12, 73, 39
2, 39475, Note_off_c, 12, 73, 39
2, 39476, Note_off_c, 12, 81, 62
2, 39503, Control_c, 12, 64, 0
2, 39504, Note_on_c, 12, 69, 59
2, 39504, Note_on_c, 12, 62, 66
2, 39504, Note_on_c, 12, 50, 83
2, 39504, Note_on_c, 12, 76, 62
2, 39504, Note_on_c, 12, 78, 57
2, 39557, Note_off_c, 12, 69, 59
2, 39560, Control_c, 12, 64, 127
2, 39590, Note_off_c, 12, 76, 62
2, 39593, Note_off_c, 12, 78, 57
2, 39600, Note_on_c, 12, 69, 48
2, 39648, Note_on_c, 12, 76, 39
2, 39659, Note_off_c, 12, 62, 66
2, 39662, Note_off_c, 12, 69, 48
2, 39664, Note_off_c, 12, 76, 39
2, 39696, Note_on_c, 12, 62, 61
2, 39696, Note_on_c, 12, 69, 35
2, 39704, Note_off_c, 12, 50, 83
2, 39752, Note_off_c, 12, 69, 35
2, 39756, Note_off_c, 12, 62, 61
2, 39936, Note_on_c, 12, 78, 51
2, 39936, Note_on_c, 12, 83, 60
2, 39936, Note_on_c, 12, 74, 55
2, 39936, Note_on_c, 12, 55, 52
2, 39936, Note_on_c, 12, 66, 34
2, 39940, Control_c, 12, 64, 0
2, 39944, Note_off_c, 12, 83, 60
2, 39947, Note_off_c, 12, 74, 55
2, 39947, Note_off_c, 12, 78, 51
2, 39957, Note_off_c, 12, 55, 52
2, 39961, Note_off_c, 12, 66, 34
2, 40032, Note_on_c, 12, 74, 79
2, 40032, Note_on_c, 12, 78, 86
2, 40032, Note_on_c, 12, 62, 62
2, 40073, Note_off_c, 12, 74, 79
2, 40076, Note_off_c, 12, 78, 86
2, 40080, Note_on_c, 12, 69, 35
2, 40093, Note_off_c, 12, 69, 35
2, 40111, Note_off_c, 12, 62, 62
2, 40128, Note_on_c, 12, 61, 62
2, 40176, Note_on_c, 12, 74, 76
2, 40176, Note_on_c, 12, 78, 92
2, 40176, Note_on_c, 12, 71, 57
2, 40191, Note_off_c, 12, 74, 76
2, 40195, Note_off_c, 12, 71, 57
2, 40208, Note_off_c, 12, 78, 92
2, 40255, Note_off_c, 12, 61, 62
2, 40272, Note_on_c, 12, 71, 55
2, 40272, Note_on_c, 12, 76, 67
2, 40291, Note_off_c, 12, 71, 55
2, 40298, Note_off_c, 12, 76, 67
2, 40368, Note_on_c, 12, 76, 72
2, 40368, Note_on_c, 12, 73, 68
2, 40368, Note_on_c, 12, 71, 57
2, 40368, Note_on_c, 12, 54, 8
2, 40384, Note_off_c, 12, 71, 57
2, 40391, Note_off_c, 12, 73, 68
2, 40416, Note_on_c, 12, 66, 49
2, 40422, Note_off_c, 12, 54, 8
2, 40438, Note_off_c, 12, 76, 72
2, 40464, Note_off_c, 12, 66, 49
2, 40464, Note_on_c, 12, 54, 30
2, 40496, Note_off_c, 12, 54, 30
2, 40512, Note_on_c, 12, 59, 53
2, 40560, Note_on_c, 12, 74, 85
2, 40560, Note_on_c, 12, 69, 62
2, 40576, Note_off_c, 12, 69, 62
2, 40583, Note_off_c, 12, 74, 85
2, 40608, Note_on_c, 12, 69, 48
2, 40627, Note_off_c, 12, 69, 48
2, 40635, Note_off_c, 12, 59, 53
2, 40656, Note_on_c, 12, 62, 55
2, 40704, Note_on_c, 12, 74, 66
2, 40704, Note_on_c, 12, 55, 55
2, 40704, Note_on_c, 12, 71, 64
2, 40704, Note_on_c, 12, 66, 56
2, 40721, Note_off_c, 12, 71, 64
2, 40721, Note_off_c, 12, 74, 66
2, 40724, Note_off_c, 12, 66, 56
2, 40792, Note_off_c, 12, 62, 55
2, 40800, Note_on_c, 12, 71, 55
2, 40800, Note_on_c, 12, 74, 57
2, 40802, Note_off_c, 12, 55, 55
2, 40832, Note_off_c, 12, 71, 55
2, 40848, Note_on_c, 12, 61, 57
2, 40885, Note_off_c, 12, 61, 57
2, 40896, Note_on_c, 12, 64, 57
2, 40896, Note_on_c, 12, 54, 53
2, 40908, Note_off_c, 12, 74, 57
2, 40944, Note_on_c, 12, 74, 90
2, 40944, Note_on_c, 12, 69, 70
2, 40963, Note_off_c, 12, 69, 70
2, 40978, Note_off_c, 12, 74, 90
2, 40992, Note_on_c, 12, 69, 53
2, 40996, Note_off_c, 12, 54, 53
2, 41008, Note_off_c, 12, 69, 53
2, 41009, Note_off_c, 12, 64, 57
2, 41040, Note_on_c, 12, 74, 55
2, 41040, Note_on_c, 12, 71, 57
2, 41059, Note_off_c, 12, 71, 57
2, 41062, Note_off_c, 12, 74, 55
2, 41088, Note_on_c, 12, 55, 38
2, 41088, Note_on_c, 12, 62, 33
2, 41136, Note_on_c, 12, 71, 73
2, 41136, Note_on_c, 12, 74, 70
2, 41136, Note_on_c, 12, 70, 81
2, 41143, Note_off_c, 12, 70, 81
2, 41157, Note_off_c, 12, 55, 38
2, 41162, Note_off_c, 12, 62, 33
2, 41168, Note_off_c, 12, 74, 70
2, 41170, Note_off_c, 12, 71, 73
2, 41184, Note_on_c, 12, 69, 58
2, 41203, Note_off_c, 12, 69, 58
2, 41232, Note_on_c, 12, 62, 58
2, 41269, Note_off_c, 12, 62, 58
2, 41280, Note_on_c, 12, 75, 51
2, 41280, Note_on_c, 12, 76, 83
2, 41280, Note_on_c, 12, 64, 50
2, 41280, Note_on_c, 12, 75, 96
2, 41280, Note_on_c, 12, 81, 66
2, 41280, Note_on_c, 12, 57, 55
2, 41283, Note_off_c, 12, 75, 51
2, 41292, Note_off_c, 12, 75, 96
2, 41312, Note_off_c, 12, 76, 83
2, 41322, Note_off_c, 12, 81, 66
2, 41362, Note_off_c, 12, 64, 50
2, 41366, Note_off_c, 12, 57, 55
2, 41376, Note_on_c, 12, 76, 80
2, 41376, Note_on_c, 12, 81, 75
2, 41376, Note_on_c, 12, 75, 96
2, 41389, Note_off_c, 12, 75, 96
2, 41399, Note_off_c, 12, 76, 80
2, 41412, Note_off_c, 12, 81, 75
2, 41424, Note_on_c, 12, 74, 63
2, 41424, Note_on_c, 12, 57, 58
2, 41441, Note_off_c, 12, 74, 63
2, 41457, Note_off_c, 12, 57, 58
2, 41472, Note_off_c, 12, 80, 52
2, 41472, Note_on_c, 12, 80, 52
2, 41472, Note_on_c, 12, 81, 85
2, 41472, Note_on_c, 12, 82, 58
2, 41472, Note_on_c, 12, 80, 96
2, 41472, Note_on_c, 12, 62, 60
2, 41472, Note_on_c, 12, 86, 76
2, 41472, Note_on_c, 12, 50, 62
2, 41476, Note_off_c, 12, 82, 58
2, 41487, Note_off_c, 12, 80, 96
2, 41504, Note_off_c, 12, 81, 85
2, 41513, Note_off_c, 12, 86, 76
2, 41561, Note_off_c, 12, 50, 62
2, 41568, Note_on_c, 12, 81, 79
2, 41568, Note_on_c, 12, 86, 80
2, 41568, Note_on_c, 12, 82, 58
2, 41568, Note_on_c, 12, 80, 92
2, 41576, Note_off_c, 12, 82, 58
2, 41583, Note_off_c, 12, 80, 92
2, 41606, Note_off_c, 12, 81, 79
2, 41608, Note_off_c, 12, 86, 80
2, 41616, Note_on_c, 12, 79, 51
2, 41631, Note_off_c, 12, 79, 51
2, 41644, Note_off_c, 12, 62, 60
2, 41664, Note_on_c, 12, 81, 66
2, 41664, Note_on_c, 12, 86, 67
2, 41664, Note_on_c, 12, 80, 81
2, 41664, Note_on_c, 12, 55, 55
2, 41664, Note_on_c, 12, 66, 47
2, 41674, Note_off_c, 12, 80, 81
2, 41677, Note_off_c, 12, 81, 66
2, 41687, Note_off_c, 12, 86, 67
2, 41712, Note_on_c, 12, 81, 80
2, 41712, Note_on_c, 12, 86, 68
2, 41712, Note_on_c, 12, 80, 81
2, 41726, Note_off_c, 12, 80, 81
2, 41754, Note_off_c, 12, 86, 68
2, 41754, Note_off_c, 12, 81, 80
2, 41760, Note_on_c, 12, 79, 34
2, 41770, Note_off_c, 12, 79, 34
2, 41793, Note_off_c, 12, 55, 55
2, 41808, Note_off_c, 12, 82, 51
2, 41808, Note_on_c, 12, 82, 51
2, 41808, Note_on_c, 12, 83, 83
2, 41808, Note_on_c, 12, 61, 54
2, 41808, Note_on_c, 12, 88, 53
2, 41808, Note_on_c, 12, 82, 77
2, 41829, Note_off_c, 12, 82, 77
2, 41831, Note_off_c, 12, 66, 47
2, 41850, Note_off_c, 12, 83, 83
2, 41857, Note_off_c, 12, 88, 53
2, 41904, Note_on_c, 12, 83, 66
2, 41904, Note_on_c, 12, 88, 72
2, 41953, Note_off_c, 12, 83, 66
2, 41954, Note_off_c, 12, 88, 72
2, 42000, Note_on_c, 12, 81, 70
2, 42000, Note_on_c, 12, 80, 69
2, 42000, Note_on_c, 12, 86, 68
2, 42018, Note_off_c, 12, 61, 54
2, 42020, Note_off_c, 12, 80, 69
2, 42035, Note_off_c, 12, 81, 70
2, 42048, Note_on_c, 12, 59, 57
2, 42052, Note_off_c, 12, 86, 68
2, 42096, Note_on_c, 12, 81, 71
2, 42096, Note_on_c, 12, 80, 64
2, 42096, Note_on_c, 12, 86, 67
2, 42100, Note_off_c, 12, 80, 64
2, 42144, Note_on_c, 12, 78, 54
2, 42159, Note_off_c, 12, 81, 71
2, 42173, Note_off_c, 12, 78, 54
2, 42174, Note_off_c, 12, 59, 57
2, 42192, Note_on_c, 12, 62, 55
2, 42207, Note_off_c, 12, 86, 67
2, 42240, Note_on_c, 12, 83, 65
2, 42240, Note_on_c, 12, 78, 46
2, 42240, Note_on_c, 12, 66, 42
2, 42240, Note_on_c, 12, 55, 57
2, 42240, Note_on_c, 12, 74, 53
2, 42262, Note_off_c, 12, 78, 46
2, 42266, Note_off_c, 12, 74, 53
2, 42266, Note_off_c, 12, 83, 65
2, 42335, Note_off_c, 12, 62, 55
2, 42360, Note_off_c, 12, 66, 42
2, 42369, Note_off_c, 12, 55, 57
2, 42384, Note_on_c, 12, 73, 47
2, 42384, Note_on_c, 12, 81, 55
2, 42384, Note_on_c, 12, 76, 63
2, 42384, Note_on_c, 12, 61, 35
2, 42412, Note_off_c, 12, 73, 47
2, 42419, Note_off_c, 12, 81, 55
2, 42422, Note_off_c, 12, 61, 35
2, 42426, Note_off_c, 12, 76, 63
2, 42432, Note_on_c, 12, 54, 44
2, 42480, Note_on_c, 12, 73, 43
2, 42499, Note_off_c, 12, 73, 43
2, 42528, Note_on_c, 12, 78, 44
2, 42540, Note_off_c, 12, 78, 44
2, 42564, Note_off_c, 12, 54, 44
2, 42576, Note_on_c, 12, 74, 58
2, 42576, Note_on_c, 12, 69, 52
2, 42576, Note_on_c, 12, 78, 57
2, 42582, Note_off_c, 12, 74, 58
2, 42587, Note_off_c, 12, 78, 57
2, 42591, Note_off_c, 12, 69, 52
2, 42624, Note_on_c, 12, 55, 48
2, 42624, Note_on_c, 12, 62, 43
2, 42672, Note_on_c, 12, 69, 71
2, 42672, Note_on_c, 12, 78, 96
2, 42672, Note_on_c, 12, 74, 92
2, 42696, Note_off_c, 12, 62, 43
2, 42697, Note_off_c, 12, 69, 71
2, 42715, Note_off_c, 12, 55, 48
2, 42716, Note_off_c, 12, 78, 96
2, 42720, Note_off_c, 12, 74, 92
2, 42720, Note_on_c, 12, 62, 51
2, 42720, Note_on_c, 12, 69, 34
2, 42736, Note_off_c, 12, 69, 34
2, 42751, Note_off_c, 12, 62, 51
2, 42768, Note_on_c, 12, 54, 40
2, 42768, Note_on_c, 12, 64, 60
2, 42768, Note_on_c, 12, 71, 60
2, 42768, Note_on_c, 12, 76, 66
2, 42788, Note_off_c, 12, 71, 60
2, 42794, Note_off_c, 12, 76, 66
2, 42871, Note_off_c, 12, 64, 60
2, 42960, Note_off_c, 12, 54, 40
2, 42960, Note_on_c, 12, 64, 61
2, 43002, Note_off_c, 12, 64, 61
2, 43008, Note_on_c, 12, 71, 66
2, 43008, Note_on_c, 12, 62, 58
2, 43008, Note_on_c, 12, 55, 57
2, 43008, Note_on_c, 12, 70, 79
2, 43008, Note_on_c, 12, 74, 64
2, 43016, Note_off_c, 12, 70, 79
2, 43097, Note_off_c, 12, 71, 66
2, 43104, Note_on_c, 12, 69, 46
2, 43119, Control_c, 12, 64, 127
2, 43133, Note_off_c, 12, 69, 46
2, 43134, Note_off_c, 12, 74, 64
2, 43148, Note_off_c, 12, 55, 57
2, 43148, Note_off_c, 12, 62, 58
2, 43152, Note_on_c, 12, 57, 73
2, 43152, Note_on_c, 12, 74, 70
2, 43152, Note_on_c, 12, 71, 75
2, 43186, Control_c, 12, 64, 0
2, 43248, Note_on_c, 12, 69, 51
2, 43270, Note_off_c, 12, 71, 75
2, 43304, Note_off_c, 12, 57, 73
2, 43313, Note_off_c, 12, 69, 51
2, 43344, Note_on_c, 12, 66, 49
2, 43344, Note_on_c, 12, 62, 60
2, 43344, Note_on_c, 12, 50, 78
2, 43359, Note_off_c, 12, 66, 49
2, 43428, Control_c, 12, 64, 127
2, 43440, Note_on_c, 12, 69, 69
2, 43488, Note_on_c, 12, 66, 49
2, 43489, Note_off_c, 12, 62, 60
2, 43512, Note_off_c, 12, 69, 69
2, 43514, Note_off_c, 12, 66, 49
2, 43536, Note_on_c, 12, 62, 69
2, 43549, Note_off_c, 12, 50, 78
2, 43563, Note_off_c, 12, 74, 70
2, 43584, Note_on_c, 12, 55, 79
2, 43584, Note_on_c, 12, 67, 59
2, 43584, Note_on_c, 12, 71, 72
2, 43584, Note_on_c, 12, 74, 62
2, 43584, Control_c, 12, 64, 0
2, 43603, Note_off_c, 12, 67, 59
2, 43609, Note_off_c, 12, 71, 72
2, 43631, Note_off_c, 12, 55, 79
2, 43680, Note_on_c, 12, 57, 64
2, 43680, Note_on_c, 12, 69, 58
2, 43707, Control_c, 12, 64, 127
2, 43708, Note_off_c, 12, 57, 64
2, 43719, Control_c, 12, 64, 0
2, 43725, Note_off_c, 12, 69, 58
2, 43776, Note_off_c, 12, 74, 62
2, 43776, Note_on_c, 12, 74, 39
2, 43776, Note_on_c, 12, 71, 66
2, 43808, Control_c, 12, 64, 127
2, 43848, Note_off_c, 12, 71, 66
2, 43857, Note_off_c, 12, 74, 39
2, 43867, Control_c, 12, 64, 0
2, 43872, Note_on_c, 12, 67, 52
2, 43880, Control_c, 12, 64, 127
2, 43891, Note_off_c, 12, 67, 52
2, 43920, Note_on_c, 12, 73, 73
2, 43942, Note_off_c, 12, 73, 73
2, 43962, Note_off_c, 12, 62, 69
2, 43968, Note_on_c, 12, 58, 53
2, 43968, Note_on_c, 12, 73, 92
2, 43973, Control_c, 12, 64, 0
2, 44011, Note_off_c, 12, 73, 92
2, 44016, Note_on_c, 12, 66, 43
2, 44053, Note_off_c, 12, 66, 43
2, 44057, Control_c, 12, 64, 127
2, 44064, Note_on_c, 12, 73, 49
2, 44075, Note_off_c, 12, 58, 53
2, 44083, Note_off_c, 12, 73, 49
2, 44112, Note_on_c, 12, 59, 65
2, 44112, Note_on_c, 12, 66, 54
2, 44112, Note_on_c, 12, 74, 72
2, 44115, Control_c, 12, 64, 0
2, 44174, Note_off_c, 12, 66, 54
2, 44181, Control_c, 12, 64, 127
2, 44206, Note_off_c, 12, 74, 72
2, 44208, Note_on_c, 12, 66, 43
2, 44256, Note_on_c, 12, 71, 52
2, 44257, Note_off_c, 12, 66, 43
2, 44278, Note_off_c, 12, 71, 52
2, 44284, Note_off_c, 12, 59, 65
2, 44304, Note_on_c, 12, 61, 71
2, 44304, Note_on_c, 12, 73, 66
2, 44304, Note_on_c, 12, 69, 54
2, 44314, Control_c, 12, 64, 0
2, 44354, Note_off_c, 12, 69, 54
2, 44379, Control_c, 12, 64, 127
2, 44400, Note_on_c, 12, 69, 54
2, 44401, Note_off_c, 12, 73, 66
2, 44448, Note_on_c, 12, 73, 64
2, 44469, Note_off_c, 12, 61, 71
2, 44470, Note_off_c, 12, 73, 64
2, 44471, Note_off_c, 12, 69, 54
2, 44496, Note_on_c, 12, 61, 62
2, 44533, Control_c, 12, 64, 0
2, 44540, Note_off_c, 12, 61, 62
2, 44544, Note_on_c, 12, 62, 75
2, 44544, Note_on_c, 12, 74, 85
2, 44572, Control_c, 12, 64, 127
2, 44585, Note_off_c, 12, 74, 85
2, 44635, Note_off_c, 12, 62, 75
2, 44640, Note_on_c, 12, 78, 96
2, 44666, Note_off_c, 12, 78, 96
2, 44688, Note_on_c, 12, 73, 63
2, 44688, Note_on_c, 12, 77, 74
2, 44688, Note_on_c, 12, 61, 68
2, 44699, Control_c, 12, 64, 0
2, 44740, Control_c, 12, 64, 127
2, 44756, Note_off_c, 12, 73, 63
2, 44775, Note_off_c, 12, 77, 74
2, 44784, Note_on_c, 12, 68, 46
2, 44832, Note_on_c, 12, 73, 69
2, 44844, Note_off_c, 12, 68, 46
2, 44854, Note_off_c, 12, 61, 68
2, 44867, Note_off_c, 12, 73, 69
2, 44880, Note_on_c, 12, 73, 63
2, 44880, Note_on_c, 12, 69, 71
2, 44880, Note_on_c, 12, 66, 71
2, 44880, Note_on_c, 12, 54, 69
2, 44885, Control_c, 12, 64, 0
2, 44920, Control_c, 12, 64, 127
2, 44943, Note_off_c, 12, 73, 63
2, 44966, Note_off_c, 12, 69, 71
2, 44976, Note_on_c, 12, 78, 100
2, 45024, Note_on_c, 12, 69, 46
2, 45042, Note_off_c, 12, 78, 100
2, 45044, Note_off_c, 12, 54, 69
2, 45050, Note_off_c, 12, 69, 46
2, 45066, Note_off_c, 12, 66, 71
2, 45072, Note_on_c, 12, 76, 72
2, 45072, Note_on_c, 12, 71, 66
2, 45072, Note_on_c, 12, 56, 56
2, 45081, Control_c, 12, 64, 0
2, 45115, Control_c, 12, 64, 127
2, 45132, Note_off_c, 12, 71, 66
2, 45156, Note_off_c, 12, 76, 72
2, 45168, Note_on_c, 12, 64, 56
2, 45168, Note_on_c, 12, 71, 65
2, 45205, Note_off_c, 12, 71, 65
2, 45216, Note_on_c, 12, 80, 100
2, 45253, Note_off_c, 12, 64, 56
2, 45263, Note_off_c, 12, 80, 100
2, 45264, Note_on_c, 12, 71, 43
2, 45278, Note_off_c, 12, 56, 56
2, 45293, Note_off_c, 12, 71, 43
2, 45311, Control_c, 12, 64, 0
2, 45312, Note_on_c, 12, 73, 41
2, 45312, Note_on_c, 12, 76, 61
2, 45312, Note_on_c, 12, 69, 64
2, 45312, Note_on_c, 12, 67, 64
2, 45312, Note_on_c, 12, 81, 79
2, 45312, Note_on_c, 12, 57, 82
2, 45312, Note_on_c, 12, 56, 58
2, 45317, Note_off_c, 12, 56, 58
2, 45329, Note_off_c, 12, 67, 64
2, 45343, Note_off_c, 12, 73, 41
2, 45349, Control_c, 12, 64, 127
2, 45391, Note_off_c, 12, 76, 61
2, 45408, Note_on_c, 12, 73, 44
2, 45410, Note_off_c, 12, 81, 79
2, 45436, Note_off_c, 12, 73, 44
2, 45454, Note_off_c, 12, 69, 64
2, 45480, Note_off_c, 12, 57, 82
2, 45504, Note_on_c, 12, 81, 88
2, 45504, Note_on_c, 12, 76, 71
2, 45504, Note_on_c, 12, 65, 55
2, 45504, Note_on_c, 12, 53, 71
2, 45504, Note_on_c, 12, 55, 79
2, 45504, Note_on_c, 12, 67, 69
2, 45508, Note_off_c, 12, 65, 55
2, 45544, Note_off_c, 12, 81, 88
2, 45545, Note_off_c, 12, 53, 71
2, 45552, Note_on_c, 12, 83, 76
2, 45554, Note_off_c, 12, 76, 71
2, 45580, Note_off_c, 12, 83, 76
2, 45600, Note_on_c, 12, 85, 100
2, 45600, Note_on_c, 12, 76, 63
2, 45619, Note_off_c, 12, 55, 79
2, 45625, Note_off_c, 12, 76, 63
2, 45625, Note_off_c, 12, 67, 69
2, 45632, Note_off_c, 12, 85, 100
2, 45648, Note_on_c, 12, 66, 71
2, 45648, Note_on_c, 12, 86, 90
2, 45648, Note_on_c, 12, 81, 83
2, 45667, Control_c, 12, 64, 0
2, 45707, Control_c, 12, 64, 127
2, 45715, Note_off_c, 12, 81, 83
2, 45720, Note_off_c, 12, 86, 90
2, 45744, Note_on_c, 12, 78, 60
2, 45767, Note_off_c, 12, 78, 60
2, 45786, Note_off_c, 12, 66, 71
2, 45792, Note_on_c, 12, 88, 83
2, 45824, Note_off_c, 12, 88, 83
2, 45840, Note_on_c, 12, 59, 79
2, 45840, Note_on_c, 12, 90, 109
2, 45840, Note_on_c, 12, 81, 66
2, 45859, Control_c, 12, 64, 0
2, 45894, Control_c, 12, 64, 127
2, 45919, Note_off_c, 12, 90, 109
2, 45923, Note_off_c, 12, 81, 66
2, 45936, Note_on_c, 12, 88, 74
2, 45962, Note_off_c, 12, 59, 79
2, 45984, Note_on_c, 12, 86, 66
2, 45984, Note_on_c, 12, 81, 53
2, 45990, Note_off_c, 12, 88, 74
2, 45997, Note_off_c, 12, 81, 53
2, 46004, Note_off_c, 12, 86, 66
2, 46032, Note_on_c, 12, 62, 54
2, 46060, Note_off_c, 12, 62, 54
2, 46068, Control_c, 12, 64, 0
2, 46080, Note_on_c, 12, 67, 49
2, 46080, Note_on_c, 12, 95, 92
2, 46080, Note_on_c, 12, 83, 82
2, 46080, Note_on_c, 12, 91, 99
2, 46080, Note_on_c, 12, 86, 99
2, 46080, Note_on_c, 12, 57, 60
2, 46102, Control_c, 12, 64, 127
2, 46119, Note_off_c, 12, 83, 82
2, 46138, Note_off_c, 12, 86, 99
2, 46148, Note_off_c, 12, 67, 49
2, 46151, Note_off_c, 12, 91, 99
2, 46154, Note_off_c, 12, 95, 92
2, 46176, Note_on_c, 12, 64, 54
2, 46176, Note_on_c, 12, 83, 63
2, 46192, Note_off_c, 12, 64, 54
2, 46199, Note_off_c, 12, 83, 63
2, 46206, Note_off_c, 12, 57, 60
2, 46224, Note_on_c, 12, 57, 59
2, 46224, Note_on_c, 12, 93, 85
2, 46224, Note_on_c, 12, 88, 90
2, 46224, Note_on_c, 12, 85, 84
2, 46224, Note_on_c, 12, 69, 66
2, 46224, Note_on_c, 12, 81, 85
2, 46231, Control_c, 12, 64, 0
2, 46259, Control_c, 12, 64, 127
2, 46266, Note_off_c, 12, 81, 85
2, 46298, Note_off_c, 12, 85, 84
2, 46320, Note_on_c, 12, 81, 48
2, 46323, Note_off_c, 12, 88, 90
2, 46323, Note_off_c, 12, 93, 85
2, 46366, Note_off_c, 12, 69, 66
2, 46368, Note_on_c, 12, 93, 44
2, 46368, Note_on_c, 12, 88, 41
2, 46370, Note_off_c, 12, 57, 59
2, 46385, Note_off_c, 12, 88, 41
2, 46388, Note_off_c, 12, 93, 44
2, 46390, Note_off_c, 12, 81, 48
2, 46416, Note_on_c, 12, 67, 36
2, 46416, Note_on_c, 12, 57, 58
2, 46425, Note_off_c, 12, 67, 36
2, 46445, Note_off_c, 12, 57, 58
2, 46464, Note_on_c, 12, 57, 58
2, 46464, Note_on_c, 12, 83, 58
2, 46464, Note_on_c, 12, 86, 66
2, 46474, Note_off_c, 12, 86, 66
2, 46480, Note_off_c, 12, 83, 58
2, 46512, Note_on_c, 12, 79, 71
2, 46512, Note_on_c, 12, 86, 78
2, 46512, Note_on_c, 12, 83, 83
2, 46522, Note_off_c, 12, 79, 71
2, 46526, Note_off_c, 12, 83, 83
2, 46529, Note_off_c, 12, 86, 78
2, 46535, Note_off_c, 12, 57, 58
2, 46560, Note_on_c, 12, 57, 56
2, 46560, Note_on_c, 12, 86, 90
2, 46560, Note_on_c, 12, 83, 99
2, 46560, Note_on_c, 12, 79, 80
2, 46577, Note_off_c, 12, 79, 80
2, 46583, Note_off_c, 12, 83, 99
2, 46587, Note_off_c, 12, 86, 90
2, 46590, Note_off_c, 12, 57, 56
2, 46608, Note_on_c, 12, 86, 88
2, 46608, Note_on_c, 12, 79, 74
2, 46608, Note_on_c, 12, 83, 90
2, 46608, Note_on_c, 12, 57, 63
2, 46638, Note_off_c, 12, 57, 63
2, 46648, Control_c, 12, 64, 0
2, 46650, Note_off_c, 12, 79, 74
2, 46656, Note_on_c, 12, 69, 39
2, 46656, Note_on_c, 12, 57, 79
2, 46673, Note_off_c, 12, 83, 90
2, 46678, Control_c, 12, 64, 127
2, 46704, Note_on_c, 12, 79, 63
2, 46708, Note_off_c, 12, 86, 88
2, 46726, Note_off_c, 12, 69, 39
2, 46752, Note_on_c, 12, 86, 58
2, 46752, Note_on_c, 12, 83, 71
2, 46777, Note_off_c, 12, 86, 58
2, 46778, Note_off_c, 12, 83, 71
2, 46791, Note_off_c, 12, 57, 79
2, 46800, Note_on_c, 12, 58, 30
2, 46800, Note_on_c, 12, 57, 58
2, 46801, Note_off_c, 12, 79, 63
2, 46807, Note_off_c, 12, 58, 30
2, 46820, Note_off_c, 12, 57, 58
2, 46838, Control_c, 12, 64, 0
2, 46848, Note_on_c, 12, 86, 80
2, 46848, Note_on_c, 12, 78, 81
2, 46848, Note_on_c, 12, 81, 82
2, 46848, Note_on_c, 12, 62, 94
2, 46875, Control_c, 12, 64, 127
2, 46889, Note_off_c, 12, 78, 81
2, 46905, Note_off_c, 12, 81, 82
2, 46911, Note_off_c, 12, 86, 80
2, 46944, Note_on_c, 12, 78, 51
2, 46963, Note_off_c, 12, 62, 94
2, 46964, Note_off_c, 12, 78, 51
2, 46992, Note_on_c, 12, 62, 64
2, 47040, Note_on_c, 12, 83, 86
2, 47040, Note_on_c, 12, 86, 75
2, 47040, Note_on_c, 12, 82, 96
2, 47040, Note_on_c, 12, 55, 58
2, 47040, Note_on_c, 12, 66, 49
2, 47042, Note_off_c, 12, 62, 64
2, 47044, Note_off_c, 12, 82, 96
2, 47053, Control_c, 12, 64, 0
2, 47057, Note_off_c, 12, 83, 86
2, 47066, Note_off_c, 12, 86, 75
2, 47088, Note_on_c, 12, 86, 88
2, 47088, Note_on_c, 12, 83, 99
2, 47128, Note_off_c, 12, 83, 99
2, 47133, Note_off_c, 12, 86, 88
2, 47136, Note_on_c, 12, 81, 60
2, 47155, Note_off_c, 12, 81, 60
2, 47160, Note_off_c, 12, 55, 58
2, 47175, Note_off_c, 12, 66, 49
2, 47184, Note_on_c, 12, 80, 66
2, 47184, Note_on_c, 12, 61, 68
2, 47184, Note_on_c, 12, 88, 94
2, 47184, Note_on_c, 12, 83, 107
2, 47191, Note_off_c, 12, 80, 66
2, 47222, Note_off_c, 12, 83, 107
2, 47222, Note_off_c, 12, 88, 94
2, 47280, Note_on_c, 12, 85, 60
2, 47280, Note_on_c, 12, 83, 88
2, 47280, Note_on_c, 12, 88, 86
2, 47280, Note_on_c, 12, 82, 100
2, 47283, Note_off_c, 12, 85, 60
2, 47291, Note_off_c, 12, 82, 100
2, 47322, Note_off_c, 12, 83, 88
2, 47327, Note_off_c, 12, 61, 68
2, 47328, Note_on_c, 12, 66, 31
2, 47328, Note_on_c, 12, 81, 62
2, 47332, Note_off_c, 12, 88, 86
2, 47344, Note_off_c, 12, 81, 62
2, 47376, Note_on_c, 12, 81, 68
2, 47376, Note_on_c, 12, 86, 71
2, 47376, Note_on_c, 12, 82, 81
2, 47376, Note_on_c, 12, 80, 86
2, 47380, Note_off_c, 12, 82, 81
2, 47387, Note_off_c, 12, 80, 86
2, 47389, Note_off_c, 12, 66, 31
2, 47411, Note_off_c, 12, 81, 68
2, 47418, Note_off_c, 12, 86, 71
2, 47424, Note_on_c, 12, 59, 55
2, 47424, Note_on_c, 12, 66, 42
2, 47472, Note_on_c, 12, 81, 83
2, 47472, Note_on_c, 12, 82, 71
2, 47472, Note_on_c, 12, 86, 82
2, 47472, Note_on_c, 12, 80, 100
2, 47475, Note_off_c, 12, 82, 71
2, 47486, Note_off_c, 12, 80, 100
2, 47504, Note_off_c, 12, 81, 83
2, 47518, Note_off_c, 12, 86, 82
2, 47520, Note_on_c, 12, 79, 48
2, 47526, Note_off_c, 12, 66, 42
2, 47536, Note_off_c, 12, 79, 48
2, 47568, Note_on_c, 12, 62, 51
2, 47568, Note_on_c, 12, 82, 54
2, 47568, Note_on_c, 12, 80, 54
2, 47571, Note_off_c, 12, 59, 55
2, 47589, Note_off_c, 12, 80, 54
2, 47589, Note_off_c, 12, 82, 54
2, 47616, Note_on_c, 12, 83, 90
2, 47616, Note_on_c, 12, 82, 89
2, 47616, Note_on_c, 12, 86, 78
2, 47616, Note_on_c, 12, 66, 43
2, 47616, Note_on_c, 12, 55, 69
2, 47625, Note_off_c, 12, 62, 51
2, 47633, Note_off_c, 12, 82, 89
2, 47638, Note_off_c, 12, 83, 90
2, 47659, Note_off_c, 12, 86, 78
2, 47664, Note_on_c, 12, 62, 24
2, 47712, Note_off_c, 12, 82, 53
2, 47712, Note_on_c, 12, 82, 53
2, 47712, Note_on_c, 12, 83, 83
2, 47712, Note_on_c, 12, 86, 76
2, 47712, Note_on_c, 12, 82, 96
2, 47724, Note_off_c, 12, 62, 24
2, 47725, Note_off_c, 12, 82, 96
2, 47736, Note_off_c, 12, 66, 43
2, 47742, Note_off_c, 12, 83, 83
2, 47743, Note_off_c, 12, 55, 69
2, 47759, Note_off_c, 12, 86, 76
2, 47760, Note_on_c, 12, 61, 43
2, 47795, Note_off_c, 12, 61, 43
2, 47808, Note_on_c, 12, 85, 49
2, 47808, Note_on_c, 12, 81, 69
2, 47808, Note_on_c, 12, 64, 62
2, 47808, Note_on_c, 12, 54, 59
2, 47824, Note_off_c, 12, 85, 49
2, 47840, Note_off_c, 12, 81, 69
2, 47856, Note_on_c, 12, 85, 41
2, 47856, Note_on_c, 12, 81, 76
2, 47862, Note_off_c, 12, 85, 41
2, 47914, Note_off_c, 12, 81, 76
2, 47952, Note_on_c, 12, 83, 79
2, 47952, Note_on_c, 12, 82, 54
2, 47952, Note_on_c, 12, 82, 86
2, 47952, Note_on_c, 12, 86, 79
2, 47955, Note_off_c, 12, 82, 54
2, 47961, Note_off_c, 12, 54, 59
2, 47962, Note_off_c, 12, 64, 62
2, 47965, Note_off_c, 12, 82, 86
2, 47981, Note_off_c, 12, 83, 79
2, 47995, Note_off_c, 12, 86, 79
2, 48000, Note_on_c, 12, 55, 57
2, 48000, Note_on_c, 12, 66, 44
2, 48048, Note_on_c, 12, 83, 82
2, 48048, Note_on_c, 12, 82, 92
2, 48048, Note_on_c, 12, 86, 83
2, 48058, Note_off_c, 12, 82, 92
2, 48086, Note_off_c, 12, 83, 82
2, 48089, Note_off_c, 12, 55, 57
2, 48096, Note_off_c, 12, 66, 44
2, 48096, Note_on_c, 12, 81, 50
2, 48097, Note_off_c, 12, 86, 83
2, 48109, Note_off_c, 12, 81, 50
2, 48144, Note_on_c, 12, 54, 60
2, 48144, Note_on_c, 12, 85, 89
2, 48144, Note_on_c, 12, 81, 76
2, 48179, Note_off_c, 12, 85, 89
2, 48182, Note_off_c, 12, 81, 76
2, 48240, Note_on_c, 12, 85, 100
2, 48240, Note_on_c, 12, 81, 94
2, 48288, Note_on_c, 12, 76, 52
2, 48290, Note_off_c, 12, 81, 94
2, 48290, Note_off_c, 12, 85, 100
2, 48303, Note_off_c, 12, 54, 60
2, 48317, Note_off_c, 12, 76, 52
2, 48336, Note_on_c, 12, 57, 48
2, 48377, Note_off_c, 12, 57, 48
2, 48384, Note_on_c, 12, 78, 84
2, 48384, Note_on_c, 12, 74, 68
2, 48384, Note_on_c, 12, 62, 72
2, 48384, Note_on_c, 12, 76, 90
2, 48384, Note_on_c, 12, 50, 66
2, 48394, Note_off_c, 12, 74, 68
2, 48410, Note_off_c, 12, 76, 90
2, 48421, Control_c, 12, 64, 127
2, 48437, Note_off_c, 12, 50, 66
2, 48463, Note_off_c, 12, 78, 84
2, 48470, Note_off_c, 12, 62, 72
2, 48480, Note_on_c, 12, 74, 63
2, 48508, Note_off_c, 12, 74, 63
2, 48528, Note_on_c, 12, 71, 62
2, 48528, Note_on_c, 12, 66, 54
2, 48528, Note_on_c, 12, 55, 59
2, 48528, Note_on_c, 12, 76, 53
2, 48528, Note_on_c, 12, 62, 27
2, 48545, Control_c, 12, 64, 0
2, 48547, Note_off_c, 12, 62, 27
2, 48591, Note_off_c, 12, 71, 62
2, 48598, Control_c, 12, 64, 127
2, 48617, Note_off_c, 12, 76, 53
2, 48624, Note_on_c, 12, 71, 63
2, 48672, Note_on_c, 12, 76, 60
2, 48677, Note_off_c, 12, 71, 63
2, 48698, Note_off_c, 12, 55, 59
2, 48701, Note_off_c, 12, 76, 60
2, 48720, Note_on_c, 12, 76, 79
2, 48720, Note_on_c, 12, 61, 63
2, 48720, Note_on_c, 12, 71, 66
2, 48725, Note_off_c, 12, 66, 54
2, 48728, Control_c, 12, 64, 0
2, 48775, Control_c, 12, 64, 127
2, 48777, Note_off_c, 12, 71, 66
2, 48798, Note_off_c, 12, 76, 79
2, 48816, Note_on_c, 12, 71, 56
2, 48840, Note_off_c, 12, 61, 63
2, 48864, Note_on_c, 12, 76, 55
2, 48888, Note_off_c, 12, 71, 56
2, 48896, Note_off_c, 12, 76, 55
2, 48912, Note_on_c, 12, 59, 66
2, 48912, Note_on_c, 12, 69, 66
2, 48912, Note_on_c, 12, 74, 60
2, 48912, Note_on_c, 12, 78, 51
2, 48927, Control_c, 12, 64, 0
2, 48969, Note_off_c, 12, 69, 66
2, 48997, Note_off_c, 12, 74, 60
2, 48998, Control_c, 12, 64, 127
2, 49008, Note_on_c, 12, 69, 55
2, 49010, Note_off_c, 12, 78, 51
2, 49048, Note_off_c, 12, 59, 66
2, 49056, Note_on_c, 12, 74, 42
2, 49059, Note_off_c, 12, 69, 55
2, 49069, Note_off_c, 12, 74, 42
2, 49104, Note_on_c, 12, 62, 56
2, 49152, Note_on_c, 12, 74, 82
2, 49152, Note_on_c, 12, 66, 45
2, 49152, Note_on_c, 12, 55, 59
2, 49152, Note_on_c, 12, 71, 62
2, 49152, Note_on_c, 12, 78, 77
2, 49159, Note_off_c, 12, 74, 82
2, 49163, Note_off_c, 12, 71, 62
2, 49163, Control_c, 12, 64, 0
2, 49166, Note_off_c, 12, 78, 77
2, 49227, Note_off_c, 12, 62, 56
2, 49237, Note_off_c, 12, 66, 45
2, 49248, Note_off_c, 12, 55, 59
2, 49248, Note_on_c, 12, 74, 64
2, 49248, Note_on_c, 12, 78, 69
2, 49248, Note_on_c, 12, 71, 45
2, 49256, Note_off_c, 12, 78, 69
2, 49259, Note_off_c, 12, 74, 64
2, 49262, Note_off_c, 12, 71, 45
2, 49296, Note_on_c, 12, 72, 51
2, 49296, Note_on_c, 12, 69, 61
2, 49296, Note_on_c, 12, 64, 50
2, 49296, Note_on_c, 12, 76, 75
2, 49296, Note_on_c, 12, 73, 64
2, 49296, Note_on_c, 12, 54, 62
2, 49302, Note_off_c, 12, 72, 51
2, 49309, Note_off_c, 12, 73, 64
2, 49313, Note_off_c, 12, 69, 61
2, 49316, Note_off_c, 12, 76, 75
2, 49440, Note_on_c, 12, 69, 25
2, 49456, Note_off_c, 12, 64, 50
2, 49460, Note_off_c, 12, 54, 62
2, 49462, Note_off_c, 12, 69, 25
2, 49488, Note_on_c, 12, 55, 60
2, 49488, Note_on_c, 12, 71, 58
2, 49488, Note_on_c, 12, 66, 39
2, 49488, Note_on_c, 12, 62, 62
2, 49488, Note_on_c, 12, 69, 60
2, 49488, Note_on_c, 12, 74, 55
2, 49529, Note_off_c, 12, 66, 39
2, 49576, Note_off_c, 12, 69, 60
2, 49584, Note_on_c, 12, 66, 44
2, 49589, Note_off_c, 12, 71, 58
2, 49589, Control_c, 12, 64, 127
2, 49611, Note_off_c, 12, 74, 55
2, 49613, Note_off_c, 12, 55, 60
2, 49619, Note_off_c, 12, 66, 44
2, 49622, Note_off_c, 12, 62, 62
2, 49632, Note_on_c, 12, 74, 44
2, 49670, Note_off_c, 12, 74, 44
2, 49670, Control_c, 12, 64, 0
2, 49680, Note_on_c, 12, 64, 57
2, 49680, Note_on_c, 12, 69, 66
2, 49680, Note_on_c, 12, 73, 63
2, 49680, Note_on_c, 12, 54, 49
2, 49680, Note_on_c, 12, 61, 53
2, 49733, Note_off_c, 12, 64, 57
2, 49741, Control_c, 12, 64, 127
2, 49771, Note_off_c, 12, 69, 66
2, 49776, Note_on_c, 12, 64, 53
2, 49781, Note_off_c, 12, 73, 63
2, 49807, Note_off_c, 12, 61, 53
2, 49807, Note_off_c, 12, 54, 49
2, 49821, Note_off_c, 12, 64, 53
2, 49824, Note_on_c, 12, 73, 45
2, 49850, Note_off_c, 12, 73, 45
2, 49872, Note_on_c, 12, 62, 43
2, 49884, Note_off_c, 12, 62, 43
2, 49908, Control_c, 12, 64, 0
2, 49920, Note_on_c, 12, 74, 80
2, 49920, Note_on_c, 12, 69, 66
2, 49920, Note_on_c, 12, 62, 66
2, 49920, Note_on_c, 12, 71, 68
2, 49920, Note_on_c, 12, 55, 62
2, 49920, Note_on_c, 12, 66, 54
2, 49947, Note_off_c, 12, 66, 54
2, 49951, Control_c, 12, 64, 127
2, 49987, Note_off_c, 12, 71, 68
2, 49987, Note_off_c, 12, 69, 66
2, 50016, Note_on_c, 12, 66, 39
2, 50022, Note_off_c, 12, 74, 80
2, 50032, Note_off_c, 12, 55, 62
2, 50035, Note_off_c, 12, 66, 39
2, 50039, Note_off_c, 12, 62, 66
2, 50056, Control_c, 12, 64, 0
2, 50064, Note_on_c, 12, 74, 76
2, 50064, Note_on_c, 12, 71, 72
2, 50064, Note_on_c, 12, 57, 68
2, 50064, Note_on_c, 12, 67, 67
2, 50110, Control_c, 12, 64, 127
2, 50132, Note_off_c, 12, 67, 67
2, 50160, Note_on_c, 12, 67, 54
2, 50174, Note_off_c, 12, 71, 72
2, 50181, Note_off_c, 12, 57, 68
2, 50187, Note_off_c, 12, 74, 76
2, 50207, Note_off_c, 12, 67, 54
2, 50256, Note_on_c, 12, 62, 55
2, 50256, Note_on_c, 12, 66, 54
2, 50256, Note_on_c, 12, 69, 70
2, 50256, Note_on_c, 12, 50, 67
2, 50256, Note_on_c, 12, 74, 69
2, 50262, Control_c, 12, 64, 0
2, 50297, Note_off_c, 12, 66, 54
2, 50316, Control_c, 12, 64, 127
2, 50341, Note_off_c, 12, 69, 70
2, 50352, Note_on_c, 12, 66, 42
2, 50373, Note_off_c, 12, 62, 55
2, 50377, Note_off_c, 12, 74, 69
2, 50400, Note_on_c, 12, 74, 38
2, 50410, Note_off_c, 12, 74, 38
2, 50428, Note_off_c, 12, 66, 42
2, 50448, Note_on_c, 12, 74, 54
2, 50473, Note_off_c, 12, 74, 54
2, 50496, Note_on_c, 12, 62, 68
2, 50555, Note_off_c, 12, 50, 67
2, 50580, Note_off_c, 12, 62, 68
2, 50670, Control_c, 12, 64, 0
2, 50688, Note_on_c, 12, 66, 69
2, 50688, Note_on_c, 12, 78, 89
2, 50688, Note_on_c, 12, 74, 79
2, 50688, Note_on_c, 12, 83, 94
2, 50688, Note_on_c, 12, 86, 90
2, 50688, Note_on_c, 12, 55, 78
2, 50709, Note_off_c, 12, 74, 79
2, 50709, Note_off_c, 12, 78, 89
2, 50719, Note_off_c, 12, 86, 90
2, 50719, Note_off_c, 12, 83, 94
2, 50722, Note_off_c, 12, 66, 69
2, 50738, Note_off_c, 12, 55, 78
2, 50832, Note_on_c, 12, 85, 86
2, 50832, Note_on_c, 12, 54, 51
2, 50832, Note_on_c, 12, 76, 72
2, 50832, Note_on_c, 12, 66, 63
2, 50832, Note_on_c, 12, 81, 88
2, 50863, Note_off_c, 12, 85, 86
2, 50868, Note_off_c, 12, 81, 88
2, 50868, Note_off_c, 12, 54, 51
2, 50872, Note_off_c, 12, 66, 63
2, 50872, Note_off_c, 12, 76, 72
2, 51024, Note_on_c, 12, 71, 70
2, 51024, Note_on_c, 12, 74, 86
2, 51024, Note_on_c, 12, 62, 68
2, 51024, Note_on_c, 12, 78, 84
2, 51024, Note_on_c, 12, 83, 90
2, 51024, Note_on_c, 12, 55, 73
2, 51047, Note_off_c, 12, 74, 86
2, 51047, Note_off_c, 12, 71, 70
2, 51054, Note_off_c, 12, 83, 90
2, 51054, Note_off_c, 12, 78, 84
2, 51064, Note_off_c, 12, 55, 73
2, 51070, Note_off_c, 12, 62, 68
2, 51216, Note_on_c, 12, 61, 54
2, 51216, Note_on_c, 12, 69, 62
2, 51216, Note_on_c, 12, 73, 69
2, 51216, Note_on_c, 12, 54, 57
2, 51216, Note_on_c, 12, 76, 79
2, 51216, Note_on_c, 12, 81, 79
2, 51257, Note_off_c, 12, 73, 69
2, 51257, Note_off_c, 12, 69, 62
2, 51261, Note_off_c, 12, 54, 57
2, 51261, Note_off_c, 12, 61, 54
2, 51268, Note_off_c, 12, 76, 79
2, 51271, Note_off_c, 12, 81, 79
2, 51456, Note_on_c, 12, 62, 62
2, 51456, Note_on_c, 12, 55, 65
2, 51456, Note_on_c, 12, 78, 86
2, 51456, Note_on_c, 12, 86, 85
2, 51456, Note_on_c, 12, 74, 79
2, 51456, Note_on_c, 12, 83, 90
2, 51489, Note_off_c, 12, 74, 79
2, 51495, Note_off_c, 12, 86, 85
2, 51495, Note_off_c, 12, 78, 86
2, 51498, Note_off_c, 12, 83, 90
2, 51498, Note_off_c, 12, 55, 65
2, 51502, Note_off_c, 12, 62, 62
2, 51600, Note_on_c, 12, 81, 74
2, 51600, Note_on_c, 12, 76, 74
2, 51600, Note_on_c, 12, 64, 67
2, 51600, Note_on_c, 12, 73, 60
2, 51600, Note_on_c, 12, 57, 78
2, 51600, Note_on_c, 12, 85, 56
2, 51654, Note_off_c, 12, 73, 60
2, 51658, Note_off_c, 12, 64, 67
2, 51658, Note_off_c, 12, 76, 74
2, 51661, Note_off_c, 12, 81, 74
2, 51665, Note_off_c, 12, 85, 56
2, 51674, Note_off_c, 12, 57, 78
2, 51744, Note_on_c, 12, 57, 35
2, 51760, Note_off_c, 12, 57, 35
2, 51792, Note_on_c, 12, 81, 65
2, 51792, Note_on_c, 12, 86, 62
2, 51792, Note_on_c, 12, 50, 82
2, 51792, Note_on_c, 12, 62, 83
2, 51792, Note_on_c, 12, 78, 68
2, 51808, Note_off_c, 12, 81, 65
2, 51811, Note_off_c, 12, 86, 62
2, 51815, Note_off_c, 12, 78, 68
2, 51826, Control_c, 12, 64, 127
2, 51837, Control_c, 12, 64, 0
2, 51843, Control_c, 12, 64, 127
2, 51936, Note_on_c, 12, 76, 43
2, 51936, Note_on_c, 12, 86, 104
2, 51936, Note_on_c, 12, 78, 89
2, 51939, Note_off_c, 12, 76, 43
2, 52006, Note_off_c, 12, 78, 89
2, 52037, Note_off_c, 12, 86, 104
2, 52080, Note_on_c, 12, 78, 31
2, 52102, Note_off_c, 12, 78, 31
2, 52128, Note_on_c, 12, 78, 39
2, 52128, Note_on_c, 12, 86, 53
2, 52147, Note_off_c, 12, 78, 39
2, 52149, Note_off_c, 12, 86, 53
2, 52176, Note_on_c, 12, 78, 44
2, 52176, Note_on_c, 12, 86, 43
2, 52195, Note_off_c, 12, 86, 43
2, 52197, Note_off_c, 12, 78, 44
2, 52224, Note_on_c, 12, 78, 46
2, 52224, Note_on_c, 12, 86, 32
2, 52236, Note_off_c, 12, 86, 32
2, 52246, Note_off_c, 12, 78, 46
2, 52272, Note_on_c, 12, 78, 46
2, 52272, Note_on_c, 12, 86, 55
2, 52288, Note_off_c, 12, 86, 55
2, 52295, Note_off_c, 12, 78, 46
2, 52320, Note_on_c, 12, 78, 31
2, 52320, Note_on_c, 12, 86, 57
2, 52344, Note_off_c, 12, 86, 57
2, 52348, Note_off_c, 12, 78, 31
2, 52368, Note_on_c, 12, 86, 39
2, 52368, Note_on_c, 12, 78, 35
2, 52368, Note_on_c, 12, 86, 53
2, 52393, Note_off_c, 12, 86, 53
2, 52396, Note_off_c, 12, 78, 35
2, 52396, Note_off_c, 12, 86, 39
2, 52416, Note_on_c, 12, 86, 40
2, 52416, Note_on_c, 12, 78, 34
2, 52441, Note_off_c, 12, 78, 34
2, 52447, Note_off_c, 12, 86, 40
2, 52464, Note_on_c, 12, 86, 45
2, 52464, Note_on_c, 12, 78, 38
2, 52489, Note_off_c, 12, 78, 38
2, 52495, Note_off_c, 12, 86, 45
2, 52512, Note_on_c, 12, 78, 32
2, 52512, Note_on_c, 12, 86, 34
2, 52512, Note_on_c, 12, 78, 37
2, 52539, Note_off_c, 12, 78, 32
2, 52540, Note_off_c, 12, 78, 37
2, 52560, Note_on_c, 12, 78, 28
2, 52589, Note_off_c, 12, 86, 34
2, 52591, Note_off_c, 12, 78, 28
2, 52608, Note_on_c, 12, 86, 47
2, 52656, Note_on_c, 12, 78, 40
2, 52670, Note_off_c, 12, 86, 47
2, 52677, Note_off_c, 12, 78, 40
2, 52742, Note_off_c, 12, 62, 83
2, 52751, Note_off_c, 12, 50, 82
2, 53754, Control_c, 12, 64, 0
2, 53754, End_track
3, 0, Start_track
3, 0, Text_t, "chit solo "
3, 192, Control_c, 2, 91, 127
3, 192, Control_c, 2, 93, 125
3, 192, Control_c, 2, 7, 80
3, 216, Program_c, 2, 24
3, 772, Note_on_c, 2, 72, 62
3, 864, Note_on_c, 2, 71, 57
3, 872, Note_off_c, 2, 72, 62
3, 884, Note_off_c, 2, 71, 57
3, 924, Note_on_c, 2, 71, 66
3, 1014, Note_off_c, 2, 71, 66
3, 1014, Note_on_c, 2, 69, 54
3, 1028, Note_off_c, 2, 69, 54
3, 1100, Note_on_c, 2, 69, 57
3, 1200, Note_on_c, 2, 67, 51
3, 1210, Note_off_c, 2, 69, 57
3, 1324, Note_off_c, 2, 67, 51
3, 1338, Note_on_c, 2, 69, 57
3, 1354, Note_on_c, 2, 71, 55
3, 1364, Note_off_c, 2, 69, 57
3, 1384, Note_off_c, 2, 71, 55
3, 1444, Note_on_c, 2, 69, 52
3, 1472, Note_off_c, 2, 69, 52
3, 1540, Note_on_c, 2, 69, 67
3, 1624, Note_off_c, 2, 69, 67
3, 1634, Note_on_c, 2, 67, 45
3, 1648, Note_off_c, 2, 67, 45
3, 1694, Note_on_c, 2, 67, 67
3, 1778, Note_off_c, 2, 67, 67
3, 1788, Note_on_c, 2, 66, 46
3, 1828, Note_off_c, 2, 66, 46
3, 1880, Note_on_c, 2, 69, 64
3, 1962, Note_off_c, 2, 69, 64
3, 1972, Note_on_c, 2, 67, 49
3, 2058, Note_off_c, 2, 67, 49
3, 2072, Note_on_c, 2, 67, 45
3, 2104, Note_off_c, 2, 67, 45
3, 2120, Note_on_c, 2, 66, 44
3, 2198, Note_off_c, 2, 66, 44
3, 2212, Note_on_c, 2, 64, 41
3, 2286, Note_off_c, 2, 64, 41
3, 2308, Note_on_c, 2, 66, 73
3, 2398, Note_off_c, 2, 66, 73
3, 2398, Note_on_c, 2, 64, 53
3, 2416, Note_off_c, 2, 64, 53
3, 2450, Note_on_c, 2, 64, 68
3, 2542, Note_off_c, 2, 64, 68
3, 2546, Note_on_c, 2, 62, 61
3, 2640, Note_off_c, 2, 62, 61
3, 2640, Note_on_c, 2, 64, 62
3, 2734, Note_off_c, 2, 64, 62
3, 2734, Note_on_c, 2, 65, 54
3, 2824, Note_off_c, 2, 65, 54
3, 2830, Note_on_c, 2, 64, 46
3, 2924, Note_off_c, 2, 64, 46
3, 2924, Note_on_c, 2, 62, 55
3, 3028, Note_off_c, 2, 62, 55
3, 3028, Note_on_c, 2, 64, 48
3, 3120, Note_off_c, 2, 64, 48
3, 3120, Note_on_c, 2, 66, 41
3, 3222, Note_on_c, 2, 64, 51
3, 3224, Note_off_c, 2, 66, 41
3, 3304, Note_off_c, 2, 64, 51
3, 3308, Note_on_c, 2, 62, 55
3, 3414, Note_off_c, 2, 62, 55
3, 3418, Note_on_c, 2, 57, 49
3, 3418, Note_on_c, 2, 59, 53
3, 3430, Note_off_c, 2, 57, 49
3, 3614, Note_off_c, 2, 59, 53
3, 3654, Note_on_c, 2, 59, 46
3, 3688, Note_off_c, 2, 59, 46
3, 3752, Note_on_c, 2, 61, 52
3, 3776, Note_off_c, 2, 61, 52
3, 3892, Note_on_c, 2, 66, 73
3, 3940, Note_off_c, 2, 66, 73
3, 3942, Note_on_c, 2, 69, 46
3, 3988, Note_on_c, 2, 71, 58
3, 3992, Note_off_c, 2, 69, 46
3, 4062, Note_off_c, 2, 71, 58
3, 4078, Note_on_c, 2, 64, 52
3, 4086, Note_on_c, 2, 66, 40
3, 4092, Note_off_c, 2, 64, 52
3, 4180, Note_off_c, 2, 66, 40
3, 4188, Note_on_c, 2, 64, 54
3, 4272, Note_off_c, 2, 64, 54
3, 4280, Note_on_c, 2, 69, 54
3, 4346, Note_off_c, 2, 69, 54
3, 4376, Note_on_c, 2, 66, 42
3, 4412, Note_off_c, 2, 66, 42
3, 4474, Note_on_c, 2, 62, 78
3, 4510, Note_off_c, 2, 62, 78
3, 4518, Note_on_c, 2, 61, 26
3, 4564, Note_off_c, 2, 61, 26
3, 4576, Note_on_c, 2, 59, 32
3, 4608, Note_off_c, 2, 59, 32
3, 4670, Note_on_c, 2, 59, 75
3, 4700, Note_off_c, 2, 59, 75
3, 4756, Note_on_c, 2, 59, 62
3, 4850, Note_off_c, 2, 59, 62
3, 4854, Note_on_c, 2, 57, 53
3, 4876, Note_off_c, 2, 57, 53
3, 4940, Note_on_c, 2, 59, 56
3, 4962, Note_off_c, 2, 59, 56
3, 5040, Note_on_c, 2, 59, 69
3, 5082, Note_off_c, 2, 59, 69
3, 5136, Note_on_c, 2, 59, 70
3, 5226, Note_on_c, 2, 58, 36
3, 5228, Note_off_c, 2, 59, 70
3, 5274, Note_off_c, 2, 58, 36
3, 5280, Note_on_c, 2, 57, 51
3, 5332, Note_off_c, 2, 57, 51
3, 5434, Note_on_c, 2, 66, 81
3, 5472, Note_off_c, 2, 66, 81
3, 5476, Note_on_c, 2, 69, 58
3, 5524, Note_off_c, 2, 69, 58
3, 5524, Note_on_c, 2, 71, 73
3, 5546, Note_off_c, 2, 71, 73
3, 5616, Note_on_c, 2, 74, 62
3, 5642, Note_off_c, 2, 74, 62
3, 5714, Note_on_c, 2, 76, 62
3, 5734, Note_off_c, 2, 76, 62
3, 5806, Note_on_c, 2, 76, 66
3, 5814, Note_on_c, 2, 78, 51
3, 5824, Note_off_c, 2, 76, 66
3, 5912, Note_on_c, 2, 74, 55
3, 5914, Note_off_c, 2, 78, 51
3, 5928, Note_off_c, 2, 74, 55
3, 6006, Note_on_c, 2, 69, 64
3, 6014, Note_on_c, 2, 71, 70
3, 6024, Note_off_c, 2, 69, 64
3, 6054, Note_off_c, 2, 71, 70
3, 6058, Note_on_c, 2, 74, 66
3, 6106, Note_on_c, 2, 71, 66
3, 6110, Note_off_c, 2, 74, 66
3, 6148, Note_off_c, 2, 71, 66
3, 6196, Note_on_c, 2, 64, 54
3, 6200, Note_on_c, 2, 66, 77
3, 6210, Note_off_c, 2, 64, 54
3, 6242, Note_off_c, 2, 66, 77
3, 6242, Note_on_c, 2, 69, 62
3, 6278, Note_off_c, 2, 69, 62
3, 6278, Note_on_c, 2, 66, 43
3, 6296, Note_off_c, 2, 66, 43
3, 6380, Note_on_c, 2, 57, 56
3, 6390, Note_on_c, 2, 59, 64
3, 6398, Note_off_c, 2, 57, 56
3, 6432, Note_off_c, 2, 59, 64
3, 6436, Note_on_c, 2, 62, 62
3, 6460, Note_off_c, 2, 62, 62
3, 6476, Note_on_c, 2, 59, 31
3, 6492, Note_off_c, 2, 59, 31
3, 6552, Note_on_c, 2, 52, 54
3, 6558, Note_on_c, 2, 54, 62
3, 6572, Note_off_c, 2, 52, 54
3, 6606, Note_off_c, 2, 54, 62
3, 6610, Note_on_c, 2, 57, 55
3, 6638, Note_off_c, 2, 57, 55
3, 6660, Note_on_c, 2, 54, 32
3, 6682, Note_off_c, 2, 54, 32
3, 6762, Note_on_c, 2, 69, 73
3, 6764, Note_on_c, 2, 71, 78
3, 6776, Note_off_c, 2, 69, 73
3, 6812, Note_off_c, 2, 71, 78
3, 6812, Note_on_c, 2, 74, 69
3, 6864, Note_on_c, 2, 71, 63
3, 6868, Note_off_c, 2, 74, 69
3, 6878, Note_off_c, 2, 71, 63
3, 6954, Note_on_c, 2, 64, 64
3, 6962, Note_on_c, 2, 66, 51
3, 6972, Note_off_c, 2, 64, 64
3, 7010, Note_off_c, 2, 66, 51
3, 7010, Note_on_c, 2, 69, 57
3, 7046, Note_off_c, 2, 69, 57
3, 7058, Note_on_c, 2, 66, 9
3, 7078, Note_off_c, 2, 66, 9
3, 7142, Note_on_c, 2, 57, 59
3, 7150, Note_on_c, 2, 59, 57
3, 7160, Note_off_c, 2, 57, 59
3, 7198, Note_off_c, 2, 59, 57
3, 7202, Note_on_c, 2, 57, 53
3, 7230, Note_off_c, 2, 57, 53
3, 7250, Note_on_c, 2, 59, 51
3, 7296, Note_off_c, 2, 59, 51
3, 7344, Note_on_c, 2, 62, 50
3, 7564, Note_off_c, 2, 62, 50
3, 7736, Note_on_c, 2, 66, 75
3, 7776, Note_off_c, 2, 66, 75
3, 7782, Note_on_c, 2, 69, 54
3, 7826, Note_off_c, 2, 69, 54
3, 7826, Note_on_c, 2, 71, 61
3, 7852, Note_off_c, 2, 71, 61
3, 7914, Note_on_c, 2, 64, 53
3, 7916, Note_on_c, 2, 66, 57
3, 7924, Note_off_c, 2, 64, 53
3, 7970, Note_off_c, 2, 66, 57
3, 8014, Note_on_c, 2, 64, 60
3, 8096, Note_off_c, 2, 64, 60
3, 8108, Note_on_c, 2, 69, 56
3, 8188, Note_off_c, 2, 69, 56
3, 8210, Note_on_c, 2, 66, 39
3, 8236, Note_off_c, 2, 66, 39
3, 8312, Note_on_c, 2, 62, 72
3, 8352, Note_off_c, 2, 62, 72
3, 8358, Note_on_c, 2, 61, 13
3, 8402, Note_off_c, 2, 61, 13
3, 8412, Note_on_c, 2, 59, 51
3, 8434, Note_off_c, 2, 59, 51
3, 8510, Note_on_c, 2, 59, 75
3, 8542, Note_off_c, 2, 59, 75
3, 8606, Note_on_c, 2, 59, 69
3, 8690, Note_off_c, 2, 59, 69
3, 8698, Note_on_c, 2, 57, 36
3, 8714, Note_off_c, 2, 57, 36
3, 8788, Note_on_c, 2, 59, 68
3, 8808, Note_off_c, 2, 59, 68
3, 8882, Note_on_c, 2, 59, 71
3, 8918, Note_off_c, 2, 59, 71
3, 8978, Note_on_c, 2, 59, 60
3, 9074, Note_off_c, 2, 59, 60
3, 9084, Note_on_c, 2, 57, 43
3, 9202, Note_off_c, 2, 57, 43
3, 9272, Note_on_c, 2, 66, 73
3, 9312, Note_off_c, 2, 66, 73
3, 9322, Note_on_c, 2, 69, 49
3, 9366, Note_on_c, 2, 71, 66
3, 9370, Note_off_c, 2, 69, 49
3, 9386, Note_off_c, 2, 71, 66
3, 9458, Note_on_c, 2, 74, 62
3, 9478, Note_off_c, 2, 74, 62
3, 9554, Note_on_c, 2, 76, 53
3, 9564, Note_off_c, 2, 76, 53
3, 9642, Note_on_c, 2, 76, 61
3, 9658, Note_off_c, 2, 76, 61
3, 9658, Note_on_c, 2, 78, 42
3, 9754, Note_on_c, 2, 74, 29
3, 9764, Note_off_c, 2, 78, 42
3, 9792, Note_off_c, 2, 74, 29
3, 9858, Note_on_c, 2, 71, 66
3, 9894, Note_off_c, 2, 71, 66
3, 9900, Note_on_c, 2, 74, 58
3, 9940, Note_off_c, 2, 74, 58
3, 9944, Note_on_c, 2, 71, 66
3, 9966, Note_off_c, 2, 71, 66
3, 10042, Note_on_c, 2, 64, 52
3, 10046, Note_on_c, 2, 66, 66
3, 10058, Note_off_c, 2, 64, 52
3, 10086, Note_off_c, 2, 66, 66
3, 10086, Note_on_c, 2, 69, 52
3, 10108, Note_on_c, 2, 66, 42
3, 10112, Note_off_c, 2, 69, 52
3, 10162, Note_off_c, 2, 66, 42
3, 10226, Note_on_c, 2, 57, 54
3, 10228, Note_on_c, 2, 59, 66
3, 10240, Note_off_c, 2, 57, 54
3, 10272, Note_off_c, 2, 59, 66
3, 10278, Note_on_c, 2, 62, 69
3, 10322, Note_off_c, 2, 62, 69
3, 10326, Note_on_c, 2, 59, 64
3, 10352, Note_off_c, 2, 59, 64
3, 10418, Note_on_c, 2, 52, 54
3, 10422, Note_on_c, 2, 54, 73
3, 10436, Note_off_c, 2, 52, 54
3, 10464, Note_off_c, 2, 54, 73
3, 10468, Note_on_c, 2, 57, 64
3, 10514, Note_on_c, 2, 54, 66
3, 10518, Note_off_c, 2, 57, 64
3, 10540, Note_off_c, 2, 54, 66
3, 10614, Note_on_c, 2, 69, 67
3, 10620, Note_on_c, 2, 71, 78
3, 10632, Note_off_c, 2, 69, 67
3, 10666, Note_off_c, 2, 71, 78
3, 10666, Note_on_c, 2, 74, 76
3, 10710, Note_on_c, 2, 71, 82
3, 10720, Note_off_c, 2, 74, 76
3, 10742, Note_off_c, 2, 71, 82
3, 10810, Note_on_c, 2, 64, 37
3, 10818, Note_on_c, 2, 66, 58
3, 10828, Note_off_c, 2, 64, 37
3, 10856, Note_off_c, 2, 66, 58
3, 10860, Note_on_c, 2, 69, 60
3, 10904, Note_on_c, 2, 66, 62
3, 10908, Note_off_c, 2, 69, 60
3, 10932, Note_off_c, 2, 66, 62
3, 11002, Note_on_c, 2, 57, 48
3, 11006, Note_on_c, 2, 59, 68
3, 11014, Note_off_c, 2, 57, 48
3, 11046, Note_off_c, 2, 59, 68
3, 11050, Note_on_c, 2, 57, 55
3, 11080, Note_off_c, 2, 57, 55
3, 11094, Note_on_c, 2, 59, 58
3, 11148, Note_off_c, 2, 59, 58
3, 11188, Note_on_c, 2, 62, 53
3, 11382, Note_off_c, 2, 62, 53
3, 11414, Note_on_c, 2, 64, 53
3, 11420, Note_on_c, 2, 66, 57
3, 11428, Note_off_c, 2, 64, 53
3, 11506, Note_off_c, 2, 66, 57
3, 11516, Note_on_c, 2, 64, 49
3, 11552, Note_off_c, 2, 64, 49
3, 11574, Note_on_c, 2, 57, 41
3, 11614, Note_on_c, 2, 61, 39
3, 11620, Note_off_c, 2, 57, 41
3, 11660, Note_on_c, 2, 64, 57
3, 11664, Note_off_c, 2, 61, 39
3, 11704, Note_on_c, 2, 66, 58
3, 11708, Note_off_c, 2, 64, 57
3, 11716, Note_on_c, 2, 58, 53
3, 11800, Note_on_c, 2, 64, 57
3, 11804, Note_off_c, 2, 58, 53
3, 11804, Note_off_c, 2, 66, 58
3, 11842, Note_off_c, 2, 64, 57
3, 11850, Note_on_c, 2, 59, 50
3, 11854, Note_on_c, 2, 62, 57
3, 11910, Note_off_c, 2, 62, 57
3, 11940, Note_off_c, 2, 59, 50
3, 11954, Note_on_c, 2, 66, 75
3, 11998, Note_off_c, 2, 66, 75
3, 12048, Note_on_c, 2, 57, 49
3, 12048, Note_on_c, 2, 64, 53
3, 12048, Note_on_c, 2, 69, 49
3, 12176, Note_off_c, 2, 57, 49
3, 12198, Note_off_c, 2, 64, 53
3, 12238, Note_off_c, 2, 69, 49
3, 12238, Note_on_c, 2, 67, 34
3, 12242, Note_off_c, 2, 67, 34
3, 12290, Note_on_c, 2, 66, 40
3, 12296, Note_on_c, 2, 57, 49
3, 12384, Note_off_c, 2, 57, 49
3, 12388, Note_on_c, 2, 69, 53
3, 12398, Note_off_c, 2, 66, 40
3, 12406, Note_off_c, 2, 69, 53
3, 12436, Note_on_c, 2, 65, 62
3, 12440, Note_on_c, 2, 73, 81
3, 12524, Note_off_c, 2, 73, 81
3, 12530, Note_off_c, 2, 65, 62
3, 12530, Note_on_c, 2, 71, 55
3, 12616, Note_off_c, 2, 71, 55
3, 12626, Note_on_c, 2, 69, 55
3, 12630, Note_on_c, 2, 64, 39
3, 12720, Note_on_c, 2, 73, 51
3, 12730, Note_off_c, 2, 69, 55
3, 12736, Note_off_c, 2, 64, 39
3, 12792, Note_off_c, 2, 73, 51
3, 12820, Note_on_c, 2, 64, 39
3, 12820, Note_on_c, 2, 71, 41
3, 12820, Note_on_c, 2, 76, 54
3, 12932, Note_off_c, 2, 76, 54
3, 12962, Note_off_c, 2, 64, 39
3, 12976, Note_off_c, 2, 71, 41
3, 12992, Note_on_c, 2, 74, 58
3, 13014, Note_off_c, 2, 74, 58
3, 13052, Note_on_c, 2, 73, 54
3, 13146, Note_off_c, 2, 73, 54
3, 13154, Note_on_c, 2, 69, 51
3, 13240, Note_off_c, 2, 69, 51
3, 13252, Note_on_c, 2, 73, 54
3, 13290, Note_off_c, 2, 73, 54
3, 13294, Note_on_c, 2, 74, 50
3, 13328, Note_off_c, 2, 74, 50
3, 13340, Note_on_c, 2, 76, 45
3, 13370, Note_off_c, 2, 76, 45
3, 13392, Note_on_c, 2, 74, 67
3, 13480, Note_off_c, 2, 74, 67
3, 13494, Note_on_c, 2, 69, 35
3, 13540, Note_off_c, 2, 69, 35
3, 13586, Note_on_c, 2, 64, 62
3, 13592, Note_on_c, 2, 66, 54
3, 13600, Note_off_c, 2, 64, 62
3, 13680, Note_off_c, 2, 66, 54
3, 13690, Note_on_c, 2, 64, 56
3, 13780, Note_off_c, 2, 64, 56
3, 13788, Note_on_c, 2, 62, 57
3, 13812, Note_off_c, 2, 62, 57
3, 13836, Note_on_c, 2, 71, 79
3, 13906, Control_c, 2, 1, 7
3, 13908, Control_c, 2, 1, 26
3, 13912, Control_c, 2, 1, 50
3, 13916, Control_c, 2, 1, 70
3, 13918, Control_c, 2, 1, 87
3, 13922, Control_c, 2, 1, 101
3, 13926, Control_c, 2, 1, 112
3, 13928, Control_c, 2, 1, 121
3, 13932, Control_c, 2, 1, 125
3, 13936, Control_c, 2, 1, 127
3, 13938, Control_c, 2, 1, 127
3, 13942, Control_c, 2, 1, 127
3, 13944, Control_c, 2, 1, 117
3, 13948, Control_c, 2, 1, 98
3, 13952, Control_c, 2, 1, 57
3, 13954, Control_c, 2, 1, 27
3, 13958, Control_c, 2, 1, 12
3, 13960, Control_c, 2, 1, 5
3, 13962, Note_off_c, 2, 71, 79
3, 13964, Control_c, 2, 1, 1
3, 13968, Control_c, 2, 1, 0
3, 13968, Note_on_c, 2, 69, 60
3, 13972, Control_c, 2, 1, 0
3, 14136, Note_off_c, 2, 69, 60
3, 14166, Note_on_c, 2, 64, 51
3, 14170, Note_on_c, 2, 66, 54
3, 14172, Control_c, 2, 1, 12
3, 14178, Note_off_c, 2, 64, 51
3, 14178, Control_c, 2, 1, 40
3, 14180, Control_c, 2, 1, 62
3, 14184, Control_c, 2, 1, 78
3, 14188, Control_c, 2, 1, 90
3, 14190, Control_c, 2, 1, 96
3, 14194, Control_c, 2, 1, 100
3, 14200, Control_c, 2, 1, 97
3, 14204, Control_c, 2, 1, 91
3, 14208, Control_c, 2, 1, 79
3, 14210, Control_c, 2, 1, 56
3, 14214, Control_c, 2, 1, 27
3, 14218, Control_c, 2, 1, 12
3, 14220, Control_c, 2, 1, 5
3, 14224, Control_c, 2, 1, 1
3, 14226, Control_c, 2, 1, 0
3, 14230, Control_c, 2, 1, 0
3, 14266, Note_off_c, 2, 66, 54
3, 14266, Note_on_c, 2, 64, 53
3, 14308, Note_off_c, 2, 64, 53
3, 14314, Note_on_c, 2, 62, 51
3, 14342, Note_off_c, 2, 62, 51
3, 14366, Note_on_c, 2, 59, 54
3, 14384, Note_off_c, 2, 59, 54
3, 14400, Note_on_c, 2, 62, 60
3, 14454, Note_off_c, 2, 62, 60
3, 14470, Control_c, 2, 1, 0
3, 14472, Control_c, 2, 1, 15
3, 14476, Control_c, 2, 1, 40
3, 14478, Control_c, 2, 1, 63
3, 14482, Control_c, 2, 1, 81
3, 14486, Control_c, 2, 1, 95
3, 14488, Control_c, 2, 1, 105
3, 14492, Control_c, 2, 1, 111
3, 14492, Note_on_c, 2, 64, 71
3, 14496, Control_c, 2, 1, 114
3, 14502, Control_c, 2, 1, 111
3, 14506, Control_c, 2, 1, 103
3, 14510, Control_c, 2, 1, 90
3, 14512, Control_c, 2, 1, 71
3, 14516, Control_c, 2, 1, 41
3, 14520, Control_c, 2, 1, 19
3, 14524, Note_off_c, 2, 64, 71
3, 14524, Control_c, 2, 1, 8
3, 14526, Control_c, 2, 1, 3
3, 14530, Control_c, 2, 1, 0
3, 14534, Control_c, 2, 1, 0
3, 14640, Note_on_c, 2, 66, 81
3, 14680, Note_off_c, 2, 66, 81
3, 14686, Note_on_c, 2, 69, 50
3, 14730, Note_off_c, 2, 69, 50
3, 14734, Note_on_c, 2, 71, 60
3, 14790, Note_off_c, 2, 71, 60
3, 14836, Note_on_c, 2, 64, 60
3, 14842, Note_on_c, 2, 66, 69
3, 14850, Note_off_c, 2, 64, 60
3, 14862, Note_off_c, 2, 66, 69
3, 14936, Note_on_c, 2, 64, 66
3, 14984, Control_c, 2, 1, 11
3, 14988, Control_c, 2, 1, 53
3, 14990, Control_c, 2, 1, 88
3, 14994, Control_c, 2, 1, 108
3, 14998, Control_c, 2, 1, 119
3, 15000, Control_c, 2, 1, 124
3, 15004, Control_c, 2, 1, 126
3, 15008, Control_c, 2, 1, 127
3, 15028, Control_c, 2, 1, 123
3, 15032, Control_c, 2, 1, 115
3, 15034, Control_c, 2, 1, 101
3, 15038, Control_c, 2, 1, 82
3, 15042, Control_c, 2, 1, 49
3, 15044, Control_c, 2, 1, 23
3, 15046, Note_off_c, 2, 64, 66
3, 15046, Note_on_c, 2, 69, 65
3, 15048, Control_c, 2, 1, 10
3, 15054, Control_c, 2, 1, 4
3, 15056, Control_c, 2, 1, 1
3, 15060, Control_c, 2, 1, 0
3, 15064, Control_c, 2, 1, 0
3, 15066, Note_off_c, 2, 69, 65
3, 15138, Note_on_c, 2, 66, 63
3, 15154, Note_off_c, 2, 66, 63
3, 15224, Note_on_c, 2, 62, 62
3, 15270, Note_off_c, 2, 62, 62
3, 15270, Note_on_c, 2, 61, 36
3, 15304, Note_off_c, 2, 61, 36
3, 15318, Note_on_c, 2, 59, 57
3, 15340, Note_off_c, 2, 59, 57
3, 15366, Control_c, 2, 1, 4
3, 15370, Control_c, 2, 1, 43
3, 15372, Control_c, 2, 1, 80
3, 15376, Control_c, 2, 1, 104
3, 15378, Control_c, 2, 1, 117
3, 15382, Control_c, 2, 1, 123
3, 15388, Control_c, 2, 1, 112
3, 15392, Control_c, 2, 1, 87
3, 15396, Control_c, 2, 1, 45
3, 15398, Control_c, 2, 1, 21
3, 15402, Control_c, 2, 1, 9
3, 15406, Control_c, 2, 1, 3
3, 15408, Control_c, 2, 1, 0
3, 15412, Control_c, 2, 1, 0
3, 15416, Note_on_c, 2, 59, 71
3, 15460, Note_off_c, 2, 59, 71
3, 15460, Note_on_c, 2, 57, 52
3, 15470, Note_off_c, 2, 57, 52
3, 15516, Note_on_c, 2, 59, 86
3, 15580, Pitch_bend_c, 2, 8384
3, 15584, Pitch_bend_c, 2, 7902
3, 15590, Pitch_bend_c, 2, 7999
3, 15594, Pitch_bend_c, 2, 8192
3, 15610, Note_off_c, 2, 59, 86
3, 15616, Note_on_c, 2, 57, 57
3, 15632, Note_off_c, 2, 57, 57
3, 15708, Note_on_c, 2, 59, 57
3, 15728, Note_off_c, 2, 59, 57
3, 15798, Note_on_c, 2, 59, 60
3, 15826, Note_off_c, 2, 59, 60
3, 15892, Note_on_c, 2, 59, 66
3, 15962, Control_c, 2, 1, 12
3, 15966, Control_c, 2, 1, 39
3, 15970, Control_c, 2, 1, 64
3, 15972, Control_c, 2, 1, 84
3, 15976, Control_c, 2, 1, 99
3, 15978, Control_c, 2, 1, 110
3, 15980, Note_off_c, 2, 59, 66
3, 15982, Control_c, 2, 1, 119
3, 15986, Control_c, 2, 1, 124
3, 15990, Control_c, 2, 1, 126
3, 15992, Control_c, 2, 1, 127
3, 15994, Note_on_c, 2, 57, 54
3, 16004, Control_c, 2, 1, 122
3, 16006, Control_c, 2, 1, 113
3, 16010, Control_c, 2, 1, 98
3, 16014, Control_c, 2, 1, 75
3, 16016, Control_c, 2, 1, 44
3, 16020, Control_c, 2, 1, 21
3, 16022, Control_c, 2, 1, 9
3, 16026, Control_c, 2, 1, 3
3, 16030, Control_c, 2, 1, 0
3, 16032, Control_c, 2, 1, 0
3, 16040, Note_off_c, 2, 57, 54
3, 16178, Note_on_c, 2, 66, 71
3, 16216, Note_off_c, 2, 66, 71
3, 16226, Note_on_c, 2, 69, 53
3, 16264, Note_off_c, 2, 69, 53
3, 16272, Note_on_c, 2, 71, 66
3, 16302, Note_off_c, 2, 71, 66
3, 16372, Note_on_c, 2, 74, 66
3, 16388, Note_off_c, 2, 74, 66
3, 16462, Note_on_c, 2, 76, 79
3, 16474, Note_off_c, 2, 76, 79
3, 16546, Note_on_c, 2, 76, 97
3, 16588, Pitch_bend_c, 2, 8384
3, 16596, Pitch_bend_c, 2, 11179
3, 16600, Control_c, 2, 1, 5
3, 16604, Pitch_bend_c, 2, 13781
3, 16604, Control_c, 2, 1, 17
3, 16606, Pitch_bend_c, 2, 14777
3, 16608, Control_c, 2, 1, 28
3, 16610, Pitch_bend_c, 2, 15548
3, 16610, Control_c, 2, 1, 35
3, 16614, Pitch_bend_c, 2, 16223
3, 16614, Control_c, 2, 1, 38
3, 16622, Control_c, 2, 1, 37
3, 16626, Control_c, 2, 1, 36
3, 16634, Control_c, 2, 1, 37
3, 16638, Control_c, 2, 1, 41
3, 16642, Control_c, 2, 1, 46
3, 16644, Control_c, 2, 1, 53
3, 16648, Control_c, 2, 1, 59
3, 16652, Control_c, 2, 1, 64
3, 16654, Control_c, 2, 1, 66
3, 16658, Control_c, 2, 1, 67
3, 16664, Control_c, 2, 1, 66
3, 16668, Control_c, 2, 1, 63
3, 16670, Control_c, 2, 1, 56
3, 16674, Control_c, 2, 1, 44
3, 16678, Control_c, 2, 1, 25
3, 16682, Control_c, 2, 1, 11
3, 16684, Control_c, 2, 1, 4
3, 16688, Pitch_bend_c, 2, 15066
3, 16688, Control_c, 2, 1, 1
3, 16688, Note_on_c, 2, 71, 64
3, 16692, Control_c, 2, 1, 0
3, 16694, Note_off_c, 2, 76, 97
3, 16696, Pitch_bend_c, 2, 11661
3, 16696, Control_c, 2, 1, 0
3, 16700, Pitch_bend_c, 2, 10151
3, 16704, Pitch_bend_c, 2, 9155
3, 16708, Pitch_bend_c, 2, 8609
3, 16712, Pitch_bend_c, 2, 8320
3, 16714, Pitch_bend_c, 2, 8192
3, 16724, Note_off_c, 2, 71, 64
3, 16788, Note_on_c, 2, 71, 61
3, 16828, Note_off_c, 2, 71, 61
3, 16832, Note_on_c, 2, 74, 51
3, 16854, Note_off_c, 2, 74, 51
3, 16890, Note_on_c, 2, 71, 58
3, 16902, Note_off_c, 2, 71, 58
3, 16948, Note_on_c, 2, 64, 64
3, 16952, Note_on_c, 2, 66, 79
3, 16964, Note_off_c, 2, 64, 64
3, 16994, Note_off_c, 2, 66, 79
3, 16994, Note_on_c, 2, 69, 59
3, 17026, Note_off_c, 2, 69, 59
3, 17038, Note_on_c, 2, 66, 73
3, 17056, Note_off_c, 2, 66, 73
3, 17146, Note_on_c, 2, 57, 66
3, 17150, Note_on_c, 2, 59, 80
3, 17164, Note_off_c, 2, 57, 66
3, 17198, Note_off_c, 2, 59, 80
3, 17202, Note_on_c, 2, 62, 72
3, 17240, Note_off_c, 2, 62, 72
3, 17246, Note_on_c, 2, 59, 66
3, 17266, Note_off_c, 2, 59, 66
3, 17320, Note_on_c, 2, 52, 54
3, 17328, Note_on_c, 2, 54, 56
3, 17342, Note_off_c, 2, 52, 54
3, 17378, Note_off_c, 2, 54, 56
3, 17382, Note_on_c, 2, 57, 57
3, 17422, Note_off_c, 2, 57, 57
3, 17422, Note_on_c, 2, 54, 47
3, 17440, Note_off_c, 2, 54, 47
3, 17558, Note_on_c, 2, 69, 71
3, 17562, Note_on_c, 2, 71, 86
3, 17572, Note_off_c, 2, 69, 71
3, 17600, Note_off_c, 2, 71, 86
3, 17604, Note_on_c, 2, 74, 66
3, 17650, Note_off_c, 2, 74, 66
3, 17650, Note_on_c, 2, 71, 69
3, 17668, Note_off_c, 2, 71, 69
3, 17708, Note_on_c, 2, 64, 55
3, 17714, Note_on_c, 2, 66, 60
3, 17724, Note_off_c, 2, 64, 55
3, 17754, Note_off_c, 2, 66, 60
3, 17758, Note_on_c, 2, 69, 54
3, 17788, Note_off_c, 2, 69, 54
3, 17808, Note_on_c, 2, 66, 50
3, 17824, Note_off_c, 2, 66, 50
3, 17912, Note_on_c, 2, 59, 75
3, 17944, Note_off_c, 2, 59, 75
3, 17954, Note_on_c, 2, 57, 49
3, 17982, Note_off_c, 2, 57, 49
3, 18004, Note_on_c, 2, 59, 52
3, 18044, Note_off_c, 2, 59, 52
3, 18060, Control_c, 2, 1, 6
3, 18064, Control_c, 2, 1, 26
3, 18068, Control_c, 2, 1, 46
3, 18070, Control_c, 2, 1, 61
3, 18074, Control_c, 2, 1, 70
3, 18078, Control_c, 2, 1, 75
3, 18080, Control_c, 2, 1, 77
3, 18086, Control_c, 2, 1, 75
3, 18090, Control_c, 2, 1, 72
3, 18090, Note_on_c, 2, 62, 52
3, 18094, Control_c, 2, 1, 69
3, 18098, Control_c, 2, 1, 65
3, 18102, Control_c, 2, 1, 61
3, 18104, Control_c, 2, 1, 56
3, 18108, Control_c, 2, 1, 51
3, 18112, Control_c, 2, 1, 44
3, 18114, Control_c, 2, 1, 38
3, 18118, Control_c, 2, 1, 30
3, 18120, Control_c, 2, 1, 22
3, 18124, Control_c, 2, 1, 13
3, 18128, Control_c, 2, 1, 7
3, 18130, Control_c, 2, 1, 3
3, 18134, Control_c, 2, 1, 2
3, 18150, Control_c, 2, 1, 3
3, 18152, Control_c, 2, 1, 4
3, 18156, Control_c, 2, 1, 7
3, 18160, Control_c, 2, 1, 12
3, 18162, Control_c, 2, 1, 19
3, 18166, Control_c, 2, 1, 26
3, 18168, Control_c, 2, 1, 33
3, 18172, Control_c, 2, 1, 41
3, 18176, Control_c, 2, 1, 51
3, 18178, Control_c, 2, 1, 61
3, 18182, Control_c, 2, 1, 71
3, 18184, Control_c, 2, 1, 80
3, 18188, Control_c, 2, 1, 88
3, 18192, Control_c, 2, 1, 95
3, 18194, Control_c, 2, 1, 100
3, 18198, Control_c, 2, 1, 105
3, 18202, Control_c, 2, 1, 108
3, 18204, Control_c, 2, 1, 112
3, 18208, Control_c, 2, 1, 117
3, 18210, Control_c, 2, 1, 122
3, 18214, Control_c, 2, 1, 125
3, 18218, Control_c, 2, 1, 127
3, 18222, Control_c, 2, 1, 127
3, 18272, Control_c, 2, 1, 124
3, 18274, Control_c, 2, 1, 117
3, 18278, Control_c, 2, 1, 109
3, 18282, Control_c, 2, 1, 99
3, 18284, Control_c, 2, 1, 88
3, 18288, Control_c, 2, 1, 78
3, 18292, Control_c, 2, 1, 68
3, 18294, Control_c, 2, 1, 59
3, 18298, Control_c, 2, 1, 52
3, 18302, Control_c, 2, 1, 44
3, 18304, Control_c, 2, 1, 36
3, 18308, Control_c, 2, 1, 27
3, 18312, Control_c, 2, 1, 14
3, 18314, Control_c, 2, 1, 6
3, 18318, Control_c, 2, 1, 2
3, 18320, Control_c, 2, 1, 0
3, 18324, Control_c, 2, 1, 0
3, 18340, Note_off_c, 2, 62, 52
3, 18532, Note_on_c, 2, 66, 64
3, 18566, Note_off_c, 2, 66, 64
3, 18572, Note_on_c, 2, 69, 52
3, 18620, Note_on_c, 2, 71, 64
3, 18622, Note_off_c, 2, 69, 52
3, 18642, Note_off_c, 2, 71, 64
3, 18670, Note_on_c, 2, 64, 63
3, 18676, Note_on_c, 2, 66, 66
3, 18684, Note_off_c, 2, 64, 63
3, 18694, Note_off_c, 2, 66, 66
3, 18774, Note_on_c, 2, 64, 71
3, 18834, Note_off_c, 2, 64, 71
3, 18866, Note_on_c, 2, 69, 62
3, 18888, Note_off_c, 2, 69, 62
3, 18960, Note_on_c, 2, 66, 57
3, 18990, Note_off_c, 2, 66, 57
3, 19062, Note_on_c, 2, 61, 71
3, 19078, Note_off_c, 2, 61, 71
3, 19078, Note_on_c, 2, 62, 59
3, 19112, Note_off_c, 2, 62, 59
3, 19112, Note_on_c, 2, 61, 24
3, 19156, Note_off_c, 2, 61, 24
3, 19160, Note_on_c, 2, 59, 59
3, 19220, Control_c, 2, 1, 4
3, 19222, Note_off_c, 2, 59, 59
3, 19224, Control_c, 2, 1, 24
3, 19228, Control_c, 2, 1, 51
3, 19230, Control_c, 2, 1, 73
3, 19234, Control_c, 2, 1, 90
3, 19238, Control_c, 2, 1, 102
3, 19240, Control_c, 2, 1, 108
3, 19244, Control_c, 2, 1, 109
3, 19248, Control_c, 2, 1, 107
3, 19250, Control_c, 2, 1, 101
3, 19254, Control_c, 2, 1, 92
3, 19256, Control_c, 2, 1, 80
3, 19260, Control_c, 2, 1, 67
3, 19264, Control_c, 2, 1, 51
3, 19264, Note_on_c, 2, 59, 82
3, 19268, Control_c, 2, 1, 30
3, 19272, Control_c, 2, 1, 13
3, 19274, Control_c, 2, 1, 5
3, 19278, Control_c, 2, 1, 1
3, 19282, Control_c, 2, 1, 0
3, 19284, Control_c, 2, 1, 0
3, 19292, Note_off_c, 2, 59, 82
3, 19358, Note_on_c, 2, 59, 66
3, 19440, Note_off_c, 2, 59, 66
3, 19448, Note_on_c, 2, 57, 53
3, 19460, Note_off_c, 2, 57, 53
3, 19546, Note_on_c, 2, 59, 68
3, 19562, Note_off_c, 2, 59, 68
3, 19638, Note_on_c, 2, 59, 74
3, 19678, Note_off_c, 2, 59, 74
3, 19678, Note_on_c, 2, 58, 22
3, 19702, Note_off_c, 2, 58, 22
3, 19736, Note_on_c, 2, 59, 72
3, 19824, Note_off_c, 2, 59, 72
3, 19834, Note_on_c, 2, 57, 54
3, 19850, Note_off_c, 2, 57, 54
3, 20022, Note_on_c, 2, 66, 79
3, 20050, Note_off_c, 2, 66, 79
3, 20064, Note_on_c, 2, 69, 51
3, 20110, Note_off_c, 2, 69, 51
3, 20114, Note_on_c, 2, 71, 62
3, 20142, Note_off_c, 2, 71, 62
3, 20200, Note_on_c, 2, 74, 59
3, 20222, Note_off_c, 2, 74, 59
3, 20296, Note_on_c, 2, 76, 58
3, 20348, Note_off_c, 2, 76, 58
3, 20390, Note_on_c, 2, 76, 56
3, 20406, Note_off_c, 2, 76, 56
3, 20410, Note_on_c, 2, 78, 40
3, 20486, Note_off_c, 2, 78, 40
3, 20494, Note_on_c, 2, 74, 58
3, 20528, Note_off_c, 2, 74, 58
3, 20590, Note_on_c, 2, 69, 71
3, 20592, Note_on_c, 2, 71, 90
3, 20604, Note_off_c, 2, 69, 71
3, 20640, Note_off_c, 2, 71, 90
3, 20644, Note_on_c, 2, 74, 65
3, 20686, Note_on_c, 2, 71, 66
3, 20692, Note_off_c, 2, 74, 65
3, 20718, Note_off_c, 2, 71, 66
3, 20794, Note_on_c, 2, 64, 61
3, 20798, Note_on_c, 2, 66, 73
3, 20814, Note_off_c, 2, 64, 61
3, 20836, Note_off_c, 2, 66, 73
3, 20840, Note_on_c, 2, 69, 60
3, 20878, Note_off_c, 2, 69, 60
3, 20878, Note_on_c, 2, 66, 54
3, 20898, Note_off_c, 2, 66, 54
3, 20982, Note_on_c, 2, 57, 67
3, 20986, Note_on_c, 2, 59, 85
3, 20998, Note_off_c, 2, 57, 67
3, 21032, Note_off_c, 2, 59, 85
3, 21036, Note_on_c, 2, 62, 69
3, 21068, Note_off_c, 2, 62, 69
3, 21078, Note_on_c, 2, 59, 66
3, 21090, Note_off_c, 2, 59, 66
3, 21172, Note_on_c, 2, 52, 57
3, 21180, Note_on_c, 2, 54, 62
3, 21196, Note_off_c, 2, 52, 57
3, 21218, Note_off_c, 2, 54, 62
3, 21226, Note_on_c, 2, 57, 60
3, 21260, Note_off_c, 2, 57, 60
3, 21268, Note_on_c, 2, 54, 49
3, 21290, Note_off_c, 2, 54, 49
3, 21360, Note_on_c, 2, 69, 70
3, 21368, Note_on_c, 2, 71, 75
3, 21382, Note_off_c, 2, 69, 70
3, 21408, Note_off_c, 2, 71, 75
3, 21412, Note_on_c, 2, 74, 66
3, 21456, Note_off_c, 2, 74, 66
3, 21464, Note_on_c, 2, 71, 70
3, 21508, Note_off_c, 2, 71, 70
3, 21566, Note_on_c, 2, 64, 57
3, 21568, Note_on_c, 2, 66, 77
3, 21580, Note_off_c, 2, 64, 57
3, 21612, Note_off_c, 2, 66, 77
3, 21612, Note_on_c, 2, 69, 57
3, 21646, Note_off_c, 2, 69, 57
3, 21658, Note_on_c, 2, 66, 68
3, 21674, Note_off_c, 2, 66, 68
3, 21750, Note_on_c, 2, 57, 57
3, 21754, Note_on_c, 2, 59, 69
3, 21764, Note_off_c, 2, 57, 57
3, 21796, Note_off_c, 2, 59, 69
3, 21800, Note_on_c, 2, 57, 54
3, 21830, Note_off_c, 2, 57, 54
3, 21848, Note_on_c, 2, 59, 57
3, 21886, Note_off_c, 2, 59, 57
3, 21932, Note_on_c, 2, 62, 48
3, 22144, Note_off_c, 2, 62, 48
3, 22166, Note_on_c, 2, 64, 64
3, 22180, Note_on_c, 2, 66, 42
3, 22186, Note_off_c, 2, 64, 64
3, 22198, Note_off_c, 2, 66, 42
3, 22272, Note_on_c, 2, 64, 76
3, 22306, Note_off_c, 2, 64, 76
3, 22328, Note_on_c, 2, 57, 32
3, 22374, Note_on_c, 2, 61, 18
3, 22384, Note_off_c, 2, 57, 32
3, 22418, Note_off_c, 2, 61, 18
3, 22418, Note_on_c, 2, 64, 57
3, 22454, Note_off_c, 2, 64, 57
3, 22464, Note_on_c, 2, 58, 66
3, 22464, Note_on_c, 2, 66, 64
3, 22554, Note_off_c, 2, 66, 64
3, 22558, Note_off_c, 2, 58, 66
3, 22564, Note_on_c, 2, 64, 52
3, 22584, Note_off_c, 2, 64, 52
3, 22612, Note_on_c, 2, 59, 46
3, 22616, Note_on_c, 2, 62, 66
3, 22628, Note_off_c, 2, 59, 46
3, 22630, Note_off_c, 2, 62, 66
3, 22700, Note_on_c, 2, 66, 69
3, 22718, Note_off_c, 2, 66, 69
3, 22796, Note_on_c, 2, 64, 43
3, 22796, Note_on_c, 2, 69, 47
3, 22796, Note_on_c, 2, 57, 43
3, 22954, Note_off_c, 2, 69, 47
3, 22960, Note_off_c, 2, 57, 43
3, 22970, Note_off_c, 2, 64, 43
3, 22982, Note_on_c, 2, 67, 62
3, 23012, Note_off_c, 2, 67, 62
3, 23034, Note_on_c, 2, 66, 55
3, 23038, Note_on_c, 2, 57, 45
3, 23042, Note_on_c, 2, 62, 54
3, 23062, Note_off_c, 2, 62, 54
3, 23078, Note_off_c, 2, 57, 45
3, 23130, Note_off_c, 2, 66, 55
3, 23134, Note_on_c, 2, 69, 53
3, 23150, Note_off_c, 2, 69, 53
3, 23182, Note_on_c, 2, 65, 62
3, 23184, Note_on_c, 2, 73, 68
3, 23218, Note_off_c, 2, 73, 68
3, 23218, Note_off_c, 2, 65, 62
3, 23282, Note_on_c, 2, 71, 62
3, 23302, Note_off_c, 2, 71, 62
3, 23384, Note_on_c, 2, 69, 51
3, 23474, Note_off_c, 2, 69, 51
3, 23482, Note_on_c, 2, 73, 31
3, 23552, Note_off_c, 2, 73, 31
3, 23580, Note_on_c, 2, 76, 50
3, 23646, Control_c, 2, 1, 6
3, 23650, Control_c, 2, 1, 25
3, 23654, Control_c, 2, 1, 45
3, 23656, Control_c, 2, 1, 61
3, 23660, Control_c, 2, 1, 71
3, 23662, Control_c, 2, 1, 78
3, 23666, Control_c, 2, 1, 82
3, 23670, Control_c, 2, 1, 85
3, 23672, Control_c, 2, 1, 88
3, 23676, Control_c, 2, 1, 91
3, 23680, Control_c, 2, 1, 95
3, 23682, Control_c, 2, 1, 101
3, 23686, Control_c, 2, 1, 108
3, 23690, Control_c, 2, 1, 114
3, 23692, Control_c, 2, 1, 121
3, 23696, Control_c, 2, 1, 125
3, 23698, Control_c, 2, 1, 127
3, 23702, Control_c, 2, 1, 127
3, 23754, Note_off_c, 2, 76, 50
3, 23762, Control_c, 2, 1, 122
3, 23766, Control_c, 2, 1, 110
3, 23766, Note_on_c, 2, 74, 68
3, 23770, Control_c, 2, 1, 87
3, 23774, Control_c, 2, 1, 45
3, 23776, Control_c, 2, 1, 21
3, 23780, Control_c, 2, 1, 9
3, 23784, Control_c, 2, 1, 3
3, 23786, Control_c, 2, 1, 0
3, 23790, Control_c, 2, 1, 0
3, 23804, Note_off_c, 2, 74, 68
3, 23810, Note_on_c, 2, 73, 58
3, 23896, Note_off_c, 2, 73, 58
3, 23902, Note_on_c, 2, 69, 63
3, 23928, Note_off_c, 2, 69, 63
3, 23992, Note_on_c, 2, 73, 73
3, 24036, Note_off_c, 2, 73, 73
3, 24046, Note_on_c, 2, 74, 39
3, 24086, Note_off_c, 2, 74, 39
3, 24096, Note_on_c, 2, 76, 53
3, 24128, Note_off_c, 2, 76, 53
3, 24144, Note_on_c, 2, 74, 61
3, 24238, Note_off_c, 2, 74, 61
3, 24248, Note_on_c, 2, 69, 48
3, 24268, Note_off_c, 2, 69, 48
3, 24344, Note_on_c, 2, 64, 66
3, 24352, Note_on_c, 2, 66, 71
3, 24362, Note_off_c, 2, 64, 66
3, 24440, Note_off_c, 2, 66, 71
3, 24444, Note_on_c, 2, 64, 51
3, 24532, Note_off_c, 2, 64, 51
3, 24536, Note_on_c, 2, 62, 64
3, 24556, Note_off_c, 2, 62, 64
3, 24578, Note_on_c, 2, 69, 66
3, 24588, Note_on_c, 2, 71, 64
3, 24596, Note_off_c, 2, 69, 66
3, 24652, Control_c, 2, 1, 1
3, 24656, Control_c, 2, 1, 43
3, 24660, Control_c, 2, 1, 84
3, 24662, Control_c, 2, 1, 106
3, 24666, Control_c, 2, 1, 118
3, 24670, Control_c, 2, 1, 123
3, 24672, Control_c, 2, 1, 126
3, 24676, Control_c, 2, 1, 127
3, 24712, Control_c, 2, 1, 121
3, 24716, Control_c, 2, 1, 100
3, 24718, Control_c, 2, 1, 49
3, 24722, Control_c, 2, 1, 23
3, 24724, Note_off_c, 2, 71, 64
3, 24724, Note_on_c, 2, 69, 63
3, 24726, Control_c, 2, 1, 10
3, 24730, Control_c, 2, 1, 4
3, 24734, Control_c, 2, 1, 1
3, 24738, Note_off_c, 2, 69, 63
3, 24738, Control_c, 2, 1, 0
3, 24742, Control_c, 2, 1, 0
3, 24912, Note_on_c, 2, 64, 69
3, 24912, Note_on_c, 2, 66, 86
3, 24920, Note_off_c, 2, 64, 69
3, 25008, Note_on_c, 2, 64, 54
3, 25014, Note_off_c, 2, 66, 86
3, 25054, Note_off_c, 2, 64, 54
3, 25058, Note_on_c, 2, 62, 57
3, 25098, Note_off_c, 2, 62, 57
3, 25098, Note_on_c, 2, 59, 54
3, 25138, Note_off_c, 2, 59, 54
3, 25148, Note_on_c, 2, 62, 64
3, 25212, Note_off_c, 2, 62, 64
3, 25250, Note_on_c, 2, 64, 64
3, 25278, Note_off_c, 2, 64, 64
3, 25398, Note_on_c, 2, 66, 79
3, 25436, Note_off_c, 2, 66, 79
3, 25436, Note_on_c, 2, 69, 48
3, 25486, Note_off_c, 2, 69, 48
3, 25486, Note_on_c, 2, 71, 60
3, 25578, Note_off_c, 2, 71, 60
3, 25588, Note_on_c, 2, 64, 50
3, 25596, Note_on_c, 2, 66, 48
3, 25602, Note_off_c, 2, 64, 50
3, 25680, Note_off_c, 2, 66, 48
3, 25690, Note_on_c, 2, 64, 55
3, 25786, Note_off_c, 2, 64, 55
3, 25786, Note_on_c, 2, 69, 62
3, 25852, Note_off_c, 2, 69, 62
3, 25876, Note_on_c, 2, 66, 42
3, 25914, Note_off_c, 2, 66, 42
3, 25984, Note_on_c, 2, 62, 52
3, 26032, Note_on_c, 2, 61, 40
3, 26042, Note_off_c, 2, 62, 52
3, 26070, Note_off_c, 2, 61, 40
3, 26078, Note_on_c, 2, 59, 46
3, 26110, Note_off_c, 2, 59, 46
3, 26174, Note_on_c, 2, 59, 67
3, 26214, Note_off_c, 2, 59, 67
3, 26262, Note_on_c, 2, 59, 68
3, 26348, Note_off_c, 2, 59, 68
3, 26356, Note_on_c, 2, 57, 52
3, 26432, Note_off_c, 2, 57, 52
3, 26454, Note_on_c, 2, 59, 53
3, 26470, Note_off_c, 2, 59, 53
3, 26548, Note_on_c, 2, 59, 72
3, 26580, Note_off_c, 2, 59, 72
3, 26644, Note_on_c, 2, 59, 66
3, 26738, Note_off_c, 2, 59, 66
3, 26742, Note_on_c, 2, 57, 52
3, 26870, Note_off_c, 2, 57, 52
3, 26938, Note_on_c, 2, 66, 71
3, 26978, Note_off_c, 2, 66, 71
3, 26982, Note_on_c, 2, 69, 48
3, 27028, Note_on_c, 2, 71, 62
3, 27032, Note_off_c, 2, 69, 48
3, 27084, Note_off_c, 2, 71, 62
3, 27124, Note_on_c, 2, 74, 69
3, 27166, Note_off_c, 2, 74, 69
3, 27222, Note_on_c, 2, 76, 68
3, 27250, Note_off_c, 2, 76, 68
3, 27306, Note_on_c, 2, 76, 66
3, 27322, Note_on_c, 2, 78, 47
3, 27324, Note_off_c, 2, 76, 66
3, 27414, Note_on_c, 2, 74, 54
3, 27426, Note_off_c, 2, 78, 47
3, 27442, Note_off_c, 2, 74, 54
3, 27512, Note_on_c, 2, 69, 63
3, 27518, Note_on_c, 2, 71, 76
3, 27530, Note_off_c, 2, 69, 63
3, 27562, Note_off_c, 2, 71, 76
3, 27564, Note_on_c, 2, 74, 71
3, 27608, Note_on_c, 2, 71, 73
3, 27614, Note_off_c, 2, 74, 71
3, 27648, Note_off_c, 2, 71, 73
3, 27708, Note_on_c, 2, 64, 62
3, 27710, Note_on_c, 2, 66, 79
3, 27724, Note_off_c, 2, 64, 62
3, 27752, Note_off_c, 2, 66, 79
3, 27756, Note_on_c, 2, 69, 66
3, 27790, Note_off_c, 2, 69, 66
3, 27794, Note_on_c, 2, 66, 46
3, 27814, Note_off_c, 2, 66, 46
3, 27890, Note_on_c, 2, 57, 56
3, 27900, Note_on_c, 2, 59, 66
3, 27912, Note_off_c, 2, 57, 56
3, 27942, Note_off_c, 2, 59, 66
3, 27948, Note_on_c, 2, 62, 66
3, 27992, Note_on_c, 2, 59, 60
3, 27996, Note_off_c, 2, 62, 66
3, 28012, Note_off_c, 2, 59, 60
3, 28082, Note_on_c, 2, 52, 53
3, 28090, Note_on_c, 2, 54, 54
3, 28106, Note_off_c, 2, 52, 53
3, 28130, Note_off_c, 2, 54, 54
3, 28134, Note_on_c, 2, 57, 60
3, 28174, Note_off_c, 2, 57, 60
3, 28184, Note_on_c, 2, 54, 51
3, 28204, Note_off_c, 2, 54, 51
3, 28274, Note_on_c, 2, 69, 66
3, 28282, Note_on_c, 2, 71, 73
3, 28292, Note_off_c, 2, 69, 66
3, 28326, Note_off_c, 2, 71, 73
3, 28326, Note_on_c, 2, 74, 76
3, 28374, Note_on_c, 2, 71, 66
3, 28380, Note_off_c, 2, 74, 76
3, 28396, Note_off_c, 2, 71, 66
3, 28476, Note_on_c, 2, 64, 60
3, 28484, Note_on_c, 2, 66, 63
3, 28500, Note_off_c, 2, 64, 60
3, 28524, Note_on_c, 2, 69, 66
3, 28528, Note_off_c, 2, 66, 63
3, 28568, Note_on_c, 2, 66, 59
3, 28576, Note_off_c, 2, 69, 66
3, 28586, Note_off_c, 2, 66, 59
3, 28664, Note_on_c, 2, 59, 75
3, 28700, Note_off_c, 2, 59, 75
3, 28700, Note_on_c, 2, 57, 58
3, 28746, Note_off_c, 2, 57, 58
3, 28754, Note_on_c, 2, 59, 55
3, 28804, Note_off_c, 2, 59, 55
3, 28844, Note_on_c, 2, 62, 55
3, 29144, Note_off_c, 2, 62, 55
3, 29232, Note_on_c, 2, 66, 69
3, 29278, Note_off_c, 2, 66, 69
3, 29282, Note_on_c, 2, 69, 55
3, 29324, Note_on_c, 2, 71, 66
3, 29332, Note_off_c, 2, 69, 55
3, 29390, Note_off_c, 2, 71, 66
3, 29426, Note_on_c, 2, 64, 58
3, 29434, Note_on_c, 2, 66, 59
3, 29444, Note_off_c, 2, 64, 58
3, 29476, Note_off_c, 2, 66, 59
3, 29524, Note_on_c, 2, 64, 57
3, 29624, Note_off_c, 2, 64, 57
3, 29624, Note_on_c, 2, 69, 62
3, 29722, Note_on_c, 2, 66, 46
3, 29732, Note_off_c, 2, 69, 62
3, 29758, Note_off_c, 2, 66, 46
3, 29820, Note_on_c, 2, 62, 52
3, 29824, Note_on_c, 2, 60, 53
3, 29854, Note_off_c, 2, 60, 53
3, 29860, Note_off_c, 2, 62, 52
3, 29864, Note_on_c, 2, 61, 35
3, 29918, Note_off_c, 2, 61, 35
3, 29920, Note_on_c, 2, 59, 47
3, 29946, Note_off_c, 2, 59, 47
3, 30016, Note_on_c, 2, 59, 73
3, 30044, Note_off_c, 2, 59, 73
3, 30110, Note_on_c, 2, 59, 62
3, 30188, Note_off_c, 2, 59, 62
3, 30198, Note_on_c, 2, 57, 50
3, 30220, Note_off_c, 2, 57, 50
3, 30290, Note_on_c, 2, 59, 62
3, 30308, Note_off_c, 2, 59, 62
3, 30386, Note_on_c, 2, 59, 79
3, 30438, Note_off_c, 2, 59, 79
3, 30482, Note_on_c, 2, 59, 75
3, 30570, Note_off_c, 2, 59, 75
3, 30580, Note_on_c, 2, 57, 55
3, 30710, Note_off_c, 2, 57, 55
3, 30780, Note_on_c, 2, 66, 89
3, 30820, Note_off_c, 2, 66, 89
3, 30820, Note_on_c, 2, 69, 52
3, 30864, Note_off_c, 2, 69, 52
3, 30868, Note_on_c, 2, 71, 62
3, 30894, Note_off_c, 2, 71, 62
3, 30960, Note_on_c, 2, 74, 70
3, 30976, Note_off_c, 2, 74, 70
3, 31056, Note_on_c, 2, 76, 55
3, 31080, Note_off_c, 2, 76, 55
3, 31138, Note_on_c, 2, 76, 66
3, 31148, Note_on_c, 2, 78, 33
3, 31156, Note_off_c, 2, 76, 66
3, 31244, Note_off_c, 2, 78, 33
3, 31244, Note_on_c, 2, 74, 48
3, 31300, Note_off_c, 2, 74, 48
3, 31348, Note_on_c, 2, 69, 60
3, 31352, Note_on_c, 2, 71, 73
3, 31362, Note_off_c, 2, 69, 60
3, 31396, Note_off_c, 2, 71, 73
3, 31400, Note_on_c, 2, 74, 60
3, 31440, Note_on_c, 2, 71, 62
3, 31448, Note_off_c, 2, 74, 60
3, 31488, Note_off_c, 2, 71, 62
3, 31550, Note_on_c, 2, 64, 59
3, 31552, Note_on_c, 2, 66, 79
3, 31564, Note_off_c, 2, 64, 59
3, 31594, Note_off_c, 2, 66, 79
3, 31598, Note_on_c, 2, 69, 58
3, 31630, Note_off_c, 2, 69, 58
3, 31638, Note_on_c, 2, 66, 58
3, 31656, Note_off_c, 2, 66, 58
3, 31734, Note_on_c, 2, 57, 55
3, 31740, Note_on_c, 2, 59, 62
3, 31754, Note_off_c, 2, 57, 55
3, 31792, Note_off_c, 2, 59, 62
3, 31792, Note_on_c, 2, 62, 72
3, 31836, Note_on_c, 2, 59, 62
3, 31840, Note_off_c, 2, 62, 72
3, 31856, Note_off_c, 2, 59, 62
3, 31914, Note_on_c, 2, 52, 61
3, 31922, Note_on_c, 2, 54, 68
3, 31934, Note_off_c, 2, 52, 61
3, 31962, Note_off_c, 2, 54, 68
3, 31966, Note_on_c, 2, 57, 62
3, 32008, Note_off_c, 2, 57, 62
3, 32008, Note_on_c, 2, 54, 51
3, 32028, Note_off_c, 2, 54, 51
3, 32122, Note_on_c, 2, 69, 61
3, 32124, Note_on_c, 2, 71, 78
3, 32136, Note_off_c, 2, 69, 61
3, 32164, Note_off_c, 2, 71, 78
3, 32166, Note_on_c, 2, 74, 67
3, 32214, Note_off_c, 2, 74, 67
3, 32214, Note_on_c, 2, 71, 73
3, 32234, Note_off_c, 2, 71, 73
3, 32304, Note_on_c, 2, 64, 53
3, 32312, Note_on_c, 2, 66, 59
3, 32330, Note_off_c, 2, 64, 53
3, 32352, Note_on_c, 2, 69, 58
3, 32356, Note_off_c, 2, 66, 59
3, 32388, Note_on_c, 2, 66, 43
3, 32398, Note_off_c, 2, 69, 58
3, 32426, Note_off_c, 2, 66, 43
3, 32502, Note_on_c, 2, 57, 50
3, 32506, Note_on_c, 2, 59, 64
3, 32516, Note_off_c, 2, 57, 50
3, 32544, Note_off_c, 2, 59, 64
3, 32552, Note_on_c, 2, 57, 51
3, 32582, Note_off_c, 2, 57, 51
3, 32592, Note_on_c, 2, 59, 45
3, 32652, Note_off_c, 2, 59, 45
3, 32680, Note_on_c, 2, 62, 47
3, 32886, Note_off_c, 2, 62, 47
3, 32918, Note_on_c, 2, 64, 65
3, 32928, Note_on_c, 2, 66, 46
3, 32938, Note_off_c, 2, 64, 65
3, 33002, Note_off_c, 2, 66, 46
3, 33024, Note_on_c, 2, 64, 53
3, 33074, Note_off_c, 2, 64, 53
3, 33078, Note_on_c, 2, 57, 38
3, 33124, Note_on_c, 2, 61, 30
3, 33136, Note_off_c, 2, 57, 38
3, 33164, Note_on_c, 2, 64, 57
3, 33172, Note_off_c, 2, 61, 30
3, 33200, Note_off_c, 2, 64, 57
3, 33206, Note_on_c, 2, 58, 47
3, 33210, Note_on_c, 2, 66, 57
3, 33306, Note_off_c, 2, 66, 57
3, 33306, Note_on_c, 2, 64, 54
3, 33310, Note_off_c, 2, 58, 47
3, 33334, Note_off_c, 2, 64, 54
3, 33354, Note_on_c, 2, 59, 54
3, 33362, Note_on_c, 2, 62, 57
3, 33374, Note_off_c, 2, 59, 54
3, 33382, Note_off_c, 2, 62, 57
3, 33454, Note_on_c, 2, 66, 73
3, 33468, Note_off_c, 2, 66, 73
3, 33550, Note_on_c, 2, 64, 45
3, 33552, Note_on_c, 2, 57, 46
3, 33552, Note_on_c, 2, 69, 51
3, 33738, Note_off_c, 2, 64, 45
3, 33748, Note_on_c, 2, 67, 41
3, 33764, Note_off_c, 2, 69, 51
3, 33764, Note_off_c, 2, 57, 46
3, 33782, Note_off_c, 2, 67, 41
3, 33786, Note_on_c, 2, 57, 35
3, 33794, Note_on_c, 2, 66, 48
3, 33798, Note_on_c, 2, 62, 51
3, 33874, Note_off_c, 2, 57, 35
3, 33876, Note_off_c, 2, 62, 51
3, 33884, Note_on_c, 2, 69, 60
3, 33890, Note_off_c, 2, 66, 48
3, 33900, Note_off_c, 2, 69, 60
3, 33928, Note_on_c, 2, 65, 60
3, 33932, Note_on_c, 2, 73, 68
3, 34028, Note_off_c, 2, 73, 68
3, 34036, Note_on_c, 2, 71, 44
3, 34038, Note_off_c, 2, 65, 60
3, 34130, Note_on_c, 2, 64, 23
3, 34134, Note_off_c, 2, 71, 44
3, 34134, Note_on_c, 2, 69, 45
3, 34230, Note_on_c, 2, 73, 43
3, 34244, Note_off_c, 2, 69, 45
3, 34252, Note_off_c, 2, 64, 23
3, 34344, Note_off_c, 2, 73, 43
3, 34360, Note_on_c, 2, 64, 40
3, 34366, Note_on_c, 2, 71, 56
3, 34370, Note_on_c, 2, 76, 62
3, 34472, Note_off_c, 2, 76, 62
3, 34484, Note_off_c, 2, 64, 40
3, 34498, Note_off_c, 2, 71, 56
3, 34526, Note_on_c, 2, 74, 57
3, 34560, Note_off_c, 2, 74, 57
3, 34570, Note_on_c, 2, 73, 46
3, 34650, Note_off_c, 2, 73, 46
3, 34660, Note_on_c, 2, 69, 43
3, 34682, Note_off_c, 2, 69, 43
3, 34708, Note_on_c, 2, 69, 47
3, 34718, Note_off_c, 2, 69, 47
3, 34750, Note_on_c, 2, 73, 73
3, 34796, Note_off_c, 2, 73, 73
3, 34800, Note_on_c, 2, 74, 55
3, 34848, Note_off_c, 2, 74, 55
3, 34848, Note_on_c, 2, 76, 53
3, 34884, Note_off_c, 2, 76, 53
3, 34900, Note_on_c, 2, 74, 60
3, 34996, Note_off_c, 2, 74, 60
3, 35000, Note_on_c, 2, 69, 47
3, 35018, Note_off_c, 2, 69, 47
3, 35088, Note_on_c, 2, 64, 60
3, 35092, Note_on_c, 2, 66, 63
3, 35104, Note_off_c, 2, 64, 60
3, 35188, Note_off_c, 2, 66, 63
3, 35192, Note_on_c, 2, 64, 52
3, 35280, Note_off_c, 2, 64, 52
3, 35288, Note_on_c, 2, 62, 58
3, 35310, Note_off_c, 2, 62, 58
3, 35326, Note_on_c, 2, 69, 71
3, 35336, Note_on_c, 2, 71, 60
3, 35350, Note_off_c, 2, 69, 71
3, 35468, Note_off_c, 2, 71, 60
3, 35468, Note_on_c, 2, 69, 48
3, 35634, Note_off_c, 2, 69, 48
3, 35646, Note_on_c, 2, 64, 62
3, 35650, Note_on_c, 2, 66, 60
3, 35664, Note_off_c, 2, 64, 62
3, 35752, Note_on_c, 2, 64, 50
3, 35766, Note_off_c, 2, 66, 60
3, 35802, Note_on_c, 2, 62, 52
3, 35808, Note_off_c, 2, 64, 50
3, 35846, Note_off_c, 2, 62, 52
3, 35892, Note_on_c, 2, 62, 53
3, 35966, Note_off_c, 2, 62, 53
3, 35996, Note_on_c, 2, 64, 51
3, 36042, Note_off_c, 2, 64, 51
3, 36142, Note_on_c, 2, 66, 79
3, 36188, Note_off_c, 2, 66, 79
3, 36192, Note_on_c, 2, 69, 51
3, 36238, Note_off_c, 2, 69, 51
3, 36242, Note_on_c, 2, 71, 62
3, 36338, Note_off_c, 2, 71, 62
3, 36344, Note_on_c, 2, 64, 41
3, 36348, Note_on_c, 2, 66, 44
3, 36356, Note_off_c, 2, 64, 41
3, 36434, Note_off_c, 2, 66, 44
3, 36438, Note_on_c, 2, 64, 53
3, 36542, Note_on_c, 2, 69, 54
3, 36546, Note_off_c, 2, 64, 53
3, 36628, Note_off_c, 2, 69, 54
3, 36640, Note_on_c, 2, 66, 39
3, 36676, Note_off_c, 2, 66, 39
3, 36736, Note_on_c, 2, 61, 69
3, 36744, Note_on_c, 2, 62, 69
3, 36750, Note_off_c, 2, 61, 69
3, 36784, Note_on_c, 2, 61, 44
3, 36794, Note_off_c, 2, 62, 69
3, 36820, Note_off_c, 2, 61, 44
3, 36830, Note_on_c, 2, 59, 53
3, 36870, Note_off_c, 2, 59, 53
3, 36934, Note_on_c, 2, 59, 70
3, 36960, Note_off_c, 2, 59, 70
3, 37024, Note_on_c, 2, 59, 66
3, 37102, Note_off_c, 2, 59, 66
3, 37122, Note_on_c, 2, 57, 18
3, 37144, Note_off_c, 2, 57, 18
3, 37220, Note_on_c, 2, 59, 67
3, 37236, Note_off_c, 2, 59, 67
3, 37308, Note_on_c, 2, 59, 66
3, 37346, Note_off_c, 2, 59, 66
3, 37352, Note_on_c, 2, 58, 10
3, 37382, Note_off_c, 2, 58, 10
3, 37392, Note_on_c, 2, 57, 45
3, 37416, Note_off_c, 2, 57, 45
3, 37444, Note_on_c, 2, 59, 66
3, 37486, Note_off_c, 2, 59, 66
3, 37540, Note_on_c, 2, 57, 57
3, 37644, Note_off_c, 2, 57, 57
3, 37686, Note_on_c, 2, 66, 64
3, 37730, Note_off_c, 2, 66, 64
3, 37734, Note_on_c, 2, 69, 60
3, 37778, Note_on_c, 2, 71, 65
3, 37784, Note_off_c, 2, 69, 60
3, 37840, Note_off_c, 2, 71, 65
3, 37876, Note_on_c, 2, 74, 66
3, 37914, Note_off_c, 2, 74, 66
3, 37976, Note_on_c, 2, 76, 62
3, 38010, Note_off_c, 2, 76, 62
3, 38070, Note_on_c, 2, 76, 51
3, 38078, Note_on_c, 2, 78, 41
3, 38088, Note_off_c, 2, 76, 51
3, 38160, Note_on_c, 2, 74, 55
3, 38170, Note_off_c, 2, 78, 41
3, 38204, Note_off_c, 2, 74, 55
3, 38262, Note_on_c, 2, 69, 61
3, 38268, Note_on_c, 2, 71, 72
3, 38282, Note_off_c, 2, 69, 61
3, 38308, Note_off_c, 2, 71, 72
3, 38312, Note_on_c, 2, 74, 62
3, 38352, Note_on_c, 2, 71, 66
3, 38360, Note_off_c, 2, 74, 62
3, 38394, Note_off_c, 2, 71, 66
3, 38462, Note_on_c, 2, 64, 40
3, 38468, Note_on_c, 2, 66, 49
3, 38476, Note_off_c, 2, 64, 40
3, 38510, Note_on_c, 2, 69, 66
3, 38512, Note_off_c, 2, 66, 49
3, 38548, Note_on_c, 2, 66, 47
3, 38554, Note_off_c, 2, 69, 66
3, 38570, Note_off_c, 2, 66, 47
3, 38650, Note_on_c, 2, 57, 48
3, 38656, Note_on_c, 2, 59, 65
3, 38668, Note_off_c, 2, 57, 48
3, 38696, Note_off_c, 2, 59, 65
3, 38702, Note_on_c, 2, 57, 54
3, 38740, Note_off_c, 2, 57, 54
3, 38816, Note_on_c, 2, 57, 48
3, 38826, Note_on_c, 2, 59, 60
3, 38836, Note_off_c, 2, 57, 48
3, 38870, Note_off_c, 2, 59, 60
3, 38870, Note_on_c, 2, 62, 66
3, 38914, Note_off_c, 2, 62, 66
3, 38920, Note_on_c, 2, 59, 51
3, 38950, Note_off_c, 2, 59, 51
3, 39024, Note_on_c, 2, 69, 62
3, 39032, Note_on_c, 2, 71, 75
3, 39042, Note_off_c, 2, 69, 62
3, 39074, Note_on_c, 2, 74, 62
3, 39076, Note_off_c, 2, 71, 75
3, 39130, Note_on_c, 2, 71, 62
3, 39136, Note_off_c, 2, 74, 62
3, 39176, Note_off_c, 2, 71, 62
3, 39228, Note_on_c, 2, 64, 54
3, 39232, Note_on_c, 2, 66, 69
3, 39246, Note_off_c, 2, 64, 54
3, 39270, Note_off_c, 2, 66, 69
3, 39270, Note_on_c, 2, 69, 62
3, 39318, Note_on_c, 2, 66, 58
3, 39322, Note_off_c, 2, 69, 62
3, 39338, Note_off_c, 2, 66, 58
3, 39412, Note_on_c, 2, 59, 69
3, 39448, Note_off_c, 2, 59, 69
3, 39458, Note_on_c, 2, 57, 32
3, 39496, Note_off_c, 2, 57, 32
3, 39502, Note_on_c, 2, 59, 48
3, 39550, Note_off_c, 2, 59, 48
3, 39590, Note_on_c, 2, 62, 37
3, 39950, Note_off_c, 2, 62, 37
3, 40034, Note_on_c, 2, 66, 68
3, 40078, Note_off_c, 2, 66, 68
3, 40132, Note_on_c, 2, 64, 52
3, 40226, Note_off_c, 2, 64, 52
3, 40284, Note_on_c, 2, 64, 28
3, 40322, Note_off_c, 2, 64, 28
3, 40370, Note_on_c, 2, 64, 62
3, 40412, Note_on_c, 2, 66, 53
3, 40420, Note_off_c, 2, 64, 62
3, 40454, Note_off_c, 2, 66, 53
3, 40458, Note_on_c, 2, 62, 58
3, 40500, Note_off_c, 2, 62, 58
3, 40754, Note_on_c, 2, 57, 60
3, 40796, Note_on_c, 2, 59, 55
3, 40804, Note_off_c, 2, 57, 60
3, 40838, Note_on_c, 2, 62, 63
3, 40842, Note_off_c, 2, 59, 55
3, 40874, Note_off_c, 2, 62, 63
3, 40942, Note_on_c, 2, 64, 79
3, 40954, Note_off_c, 2, 64, 79
3, 40970, Note_on_c, 2, 66, 33
3, 41030, Note_off_c, 2, 66, 33
3, 41040, Note_on_c, 2, 69, 74
3, 41136, Note_on_c, 2, 71, 67
3, 41142, Note_off_c, 2, 69, 74
3, 41182, Note_off_c, 2, 71, 67
3, 41182, Note_on_c, 2, 74, 62
3, 41204, Note_off_c, 2, 74, 62
3, 41230, Note_on_c, 2, 76, 83
3, 41276, Note_off_c, 2, 76, 83
3, 41316, Note_on_c, 2, 76, 60
3, 41368, Note_off_c, 2, 76, 60
3, 41372, Note_on_c, 2, 74, 55
3, 41438, Note_off_c, 2, 74, 55
3, 41466, Note_on_c, 2, 76, 60
3, 41470, Note_on_c, 2, 78, 62
3, 41480, Note_off_c, 2, 76, 60
3, 41510, Note_on_c, 2, 81, 60
3, 41518, Note_off_c, 2, 78, 62
3, 41546, Note_off_c, 2, 81, 60
3, 41564, Note_on_c, 2, 81, 48
3, 41572, Note_on_c, 2, 83, 66
3, 41580, Note_off_c, 2, 81, 48
3, 41614, Note_off_c, 2, 83, 66
3, 41614, Note_on_c, 2, 81, 62
3, 41674, Note_off_c, 2, 81, 62
3, 41720, Note_on_c, 2, 76, 68
3, 41722, Note_on_c, 2, 78, 79
3, 41734, Note_off_c, 2, 76, 68
3, 41746, Note_off_c, 2, 78, 79
3, 41760, Note_on_c, 2, 76, 48
3, 41810, Note_off_c, 2, 76, 48
3, 41816, Note_on_c, 2, 74, 62
3, 41838, Note_off_c, 2, 74, 62
3, 41858, Note_on_c, 2, 77, 34
3, 41868, Note_off_c, 2, 77, 34
3, 41914, Note_on_c, 2, 76, 46
3, 41964, Note_on_c, 2, 78, 57
3, 41970, Note_off_c, 2, 76, 46
3, 42004, Note_off_c, 2, 78, 57
3, 42008, Note_on_c, 2, 74, 62
3, 42058, Note_off_c, 2, 74, 62
3, 42098, Note_on_c, 2, 69, 45
3, 42104, Note_on_c, 2, 71, 60
3, 42116, Note_off_c, 2, 69, 45
3, 42146, Note_off_c, 2, 71, 60
3, 42150, Note_on_c, 2, 69, 53
3, 42194, Note_on_c, 2, 71, 54
3, 42198, Note_off_c, 2, 69, 53
3, 42236, Note_off_c, 2, 71, 54
3, 42240, Note_on_c, 2, 74, 65
3, 42286, Note_off_c, 2, 74, 65
3, 42330, Note_on_c, 2, 69, 47
3, 42336, Note_on_c, 2, 71, 66
3, 42350, Note_off_c, 2, 69, 47
3, 42374, Note_off_c, 2, 71, 66
3, 42382, Note_on_c, 2, 69, 54
3, 42456, Note_off_c, 2, 69, 54
3, 42480, Note_on_c, 2, 64, 55
3, 42490, Note_on_c, 2, 66, 57
3, 42502, Note_off_c, 2, 64, 55
3, 42532, Note_off_c, 2, 66, 57
3, 42538, Note_on_c, 2, 64, 47
3, 42576, Note_off_c, 2, 64, 47
3, 42586, Note_on_c, 2, 62, 51
3, 42614, Note_off_c, 2, 62, 51
3, 42666, Note_on_c, 2, 59, 52
3, 42708, Note_off_c, 2, 59, 52
3, 42718, Note_on_c, 2, 57, 40
3, 42764, Note_off_c, 2, 57, 40
3, 42770, Note_on_c, 2, 59, 43
3, 42814, Note_off_c, 2, 59, 43
3, 42818, Note_on_c, 2, 62, 54
3, 42844, Note_off_c, 2, 62, 54
3, 42860, Note_on_c, 2, 64, 74
3, 42900, Note_off_c, 2, 64, 74
3, 42906, Note_on_c, 2, 66, 39
3, 42924, Note_off_c, 2, 66, 39
3, 42964, Note_on_c, 2, 69, 42
3, 42986, Note_off_c, 2, 69, 42
3, 43008, Note_on_c, 2, 71, 82
3, 43058, Note_off_c, 2, 71, 82
3, 43106, Note_on_c, 2, 74, 75
3, 43162, Note_off_c, 2, 74, 75
3, 43202, Note_on_c, 2, 73, 71
3, 43244, Note_off_c, 2, 73, 71
3, 43248, Note_on_c, 2, 69, 50
3, 43284, Note_off_c, 2, 69, 50
3, 43296, Note_on_c, 2, 64, 52
3, 43316, Note_off_c, 2, 64, 52
3, 43344, Note_on_c, 2, 71, 75
3, 43344, Note_on_c, 2, 69, 55
3, 43354, Note_off_c, 2, 69, 55
3, 43428, Note_off_c, 2, 71, 75
3, 43442, Note_on_c, 2, 69, 45
3, 43662, Note_off_c, 2, 69, 45
3, 43686, Note_on_c, 2, 66, 44
3, 43750, Note_off_c, 2, 66, 44
3, 43772, Note_on_c, 2, 64, 53
3, 43850, Note_off_c, 2, 64, 53
3, 43860, Note_on_c, 2, 64, 51
3, 43882, Note_off_c, 2, 64, 51
3, 43890, Note_on_c, 2, 61, 51
3, 43920, Note_off_c, 2, 61, 51
3, 43934, Note_on_c, 2, 64, 56
3, 43966, Note_off_c, 2, 64, 56
3, 43970, Note_on_c, 2, 66, 54
3, 43986, Note_on_c, 2, 67, 34
3, 44000, Note_off_c, 2, 67, 34
3, 44006, Note_off_c, 2, 66, 54
3, 44064, Note_on_c, 2, 64, 56
3, 44114, Note_off_c, 2, 64, 56
3, 44130, Note_on_c, 2, 62, 55
3, 44192, Note_off_c, 2, 62, 55
3, 44214, Note_on_c, 2, 66, 75
3, 44286, Note_off_c, 2, 66, 75
3, 44302, Note_on_c, 2, 69, 53
3, 44480, Note_off_c, 2, 69, 53
3, 44480, Note_on_c, 2, 67, 55
3, 44532, Note_on_c, 2, 66, 54
3, 44536, Note_off_c, 2, 67, 55
3, 44632, Note_off_c, 2, 66, 54
3, 44636, Note_on_c, 2, 69, 57
3, 44660, Note_off_c, 2, 69, 57
3, 44682, Note_on_c, 2, 71, 68
3, 44686, Note_on_c, 2, 72, 54
3, 44690, Note_off_c, 2, 72, 54
3, 44690, Note_on_c, 2, 73, 54
3, 44698, Note_off_c, 2, 71, 68
3, 44712, Note_off_c, 2, 73, 54
3, 44788, Note_on_c, 2, 71, 82
3, 44868, Note_off_c, 2, 71, 82
3, 44892, Note_on_c, 2, 69, 35
3, 44958, Note_off_c, 2, 69, 35
3, 44988, Note_on_c, 2, 73, 68
3, 45058, Note_off_c, 2, 73, 68
3, 45078, Note_on_c, 2, 76, 45
3, 45252, Note_off_c, 2, 76, 45
3, 45272, Note_on_c, 2, 74, 50
3, 45312, Note_off_c, 2, 74, 50
3, 45322, Note_on_c, 2, 73, 42
3, 45398, Note_off_c, 2, 73, 42
3, 45412, Note_on_c, 2, 69, 35
3, 45440, Note_off_c, 2, 69, 35
3, 45458, Note_on_c, 2, 69, 60
3, 45478, Note_off_c, 2, 69, 60
3, 45504, Note_on_c, 2, 73, 81
3, 45550, Note_off_c, 2, 73, 81
3, 45550, Note_on_c, 2, 74, 50
3, 45590, Note_off_c, 2, 74, 50
3, 45594, Note_on_c, 2, 76, 58
3, 45632, Note_off_c, 2, 76, 58
3, 45642, Note_on_c, 2, 74, 62
3, 45704, Note_off_c, 2, 74, 62
3, 45738, Note_on_c, 2, 69, 58
3, 45742, Note_on_c, 2, 70, 66
3, 45756, Note_off_c, 2, 69, 58
3, 45762, Note_on_c, 2, 71, 49
3, 45766, Note_off_c, 2, 70, 66
3, 45810, Note_off_c, 2, 71, 49
3, 45816, Note_on_c, 2, 69, 48
3, 45858, Note_off_c, 2, 69, 48
3, 45864, Note_on_c, 2, 66, 15
3, 45892, Note_off_c, 2, 66, 15
3, 45902, Note_on_c, 2, 64, 55
3, 45924, Note_off_c, 2, 64, 55
3, 45940, Note_on_c, 2, 62, 55
3, 45964, Note_off_c, 2, 62, 55
3, 45980, Note_on_c, 2, 59, 36
3, 46000, Note_on_c, 2, 57, 44
3, 46002, Note_off_c, 2, 59, 36
3, 46032, Note_off_c, 2, 57, 44
3, 46044, Note_on_c, 2, 55, 41
3, 46062, Note_off_c, 2, 55, 41
3, 46074, Note_on_c, 2, 62, 66
3, 46108, Note_off_c, 2, 62, 66
3, 46116, Note_on_c, 2, 57, 51
3, 46138, Note_off_c, 2, 57, 51
3, 46146, Note_on_c, 2, 59, 48
3, 46168, Note_off_c, 2, 59, 48
3, 46168, Note_on_c, 2, 57, 39
3, 46188, Note_on_c, 2, 59, 58
3, 46192, Note_off_c, 2, 57, 39
3, 46216, Note_off_c, 2, 59, 58
3, 46216, Note_on_c, 2, 62, 54
3, 46246, Note_off_c, 2, 62, 54
3, 46246, Note_on_c, 2, 64, 59
3, 46270, Note_on_c, 2, 57, 51
3, 46280, Note_off_c, 2, 64, 59
3, 46296, Note_on_c, 2, 59, 53
3, 46298, Note_off_c, 2, 57, 51
3, 46322, Note_off_c, 2, 59, 53
3, 46322, Note_on_c, 2, 62, 50
3, 46342, Note_off_c, 2, 62, 50
3, 46352, Note_on_c, 2, 64, 71
3, 46374, Note_off_c, 2, 64, 71
3, 46374, Note_on_c, 2, 66, 46
3, 46404, Note_off_c, 2, 66, 46
3, 46404, Note_on_c, 2, 69, 58
3, 46424, Note_off_c, 2, 69, 58
3, 46424, Note_on_c, 2, 62, 50
3, 46446, Note_off_c, 2, 62, 50
3, 46450, Note_on_c, 2, 64, 46
3, 46464, Note_on_c, 2, 66, 44
3, 46468, Note_off_c, 2, 64, 46
3, 46484, Note_off_c, 2, 66, 44
3, 46490, Note_on_c, 2, 67, 66
3, 46520, Note_off_c, 2, 67, 66
3, 46524, Note_on_c, 2, 69, 55
3, 46534, Note_on_c, 2, 66, 43
3, 46544, Note_off_c, 2, 69, 55
3, 46556, Note_off_c, 2, 66, 43
3, 46556, Note_on_c, 2, 67, 49
3, 46578, Note_off_c, 2, 67, 49
3, 46584, Note_on_c, 2, 69, 47
3, 46604, Note_on_c, 2, 71, 37
3, 46616, Note_off_c, 2, 69, 47
3, 46628, Note_off_c, 2, 71, 37
3, 46628, Note_on_c, 2, 73, 49
3, 46640, Note_off_c, 2, 73, 49
3, 46654, Note_on_c, 2, 74, 65
3, 46678, Note_off_c, 2, 74, 65
3, 46682, Note_on_c, 2, 76, 48
3, 46700, Note_off_c, 2, 76, 48
3, 46700, Note_on_c, 2, 73, 34
3, 46714, Note_off_c, 2, 73, 34
3, 46718, Note_on_c, 2, 74, 53
3, 46738, Note_off_c, 2, 74, 53
3, 46746, Note_on_c, 2, 76, 48
3, 46766, Note_on_c, 2, 78, 42
3, 46772, Note_off_c, 2, 76, 48
3, 46788, Note_off_c, 2, 78, 42
3, 46802, Note_on_c, 2, 79, 53
3, 46816, Note_on_c, 2, 81, 46
3, 46822, Note_off_c, 2, 79, 53
3, 46842, Note_off_c, 2, 81, 46
3, 46846, Note_on_c, 2, 83, 62
3, 46880, Note_on_c, 2, 81, 52
3, 46892, Note_off_c, 2, 83, 62
3, 46912, Note_off_c, 2, 81, 52
3, 46916, Note_on_c, 2, 79, 59
3, 46946, Note_on_c, 2, 78, 51
3, 46948, Note_off_c, 2, 79, 59
3, 46966, Note_off_c, 2, 78, 51
3, 46970, Note_on_c, 2, 76, 57
3, 46982, Note_off_c, 2, 76, 57
3, 47000, Note_on_c, 2, 74, 57
3, 47028, Note_on_c, 2, 73, 40
3, 47032, Note_off_c, 2, 74, 57
3, 47060, Note_off_c, 2, 73, 40
3, 47066, Note_on_c, 2, 71, 55
3, 47104, Note_off_c, 2, 71, 55
3, 47108, Note_on_c, 2, 73, 44
3, 47136, Note_off_c, 2, 73, 44
3, 47152, Note_on_c, 2, 74, 57
3, 47190, Note_off_c, 2, 74, 57
3, 47198, Note_on_c, 2, 76, 58
3, 47262, Note_off_c, 2, 76, 58
3, 47266, Note_on_c, 2, 74, 31
3, 47294, Note_off_c, 2, 74, 31
3, 47294, Note_on_c, 2, 73, 38
3, 47320, Note_off_c, 2, 73, 38
3, 47324, Note_on_c, 2, 70, 42
3, 47350, Note_off_c, 2, 70, 42
3, 47372, Note_on_c, 2, 74, 64
3, 47404, Note_off_c, 2, 74, 64
3, 47408, Note_on_c, 2, 73, 49
3, 47476, Note_off_c, 2, 73, 49
3, 47476, Note_on_c, 2, 71, 52
3, 47496, Note_off_c, 2, 71, 52
3, 47508, Note_on_c, 2, 69, 42
3, 47534, Note_off_c, 2, 69, 42
3, 47548, Note_on_c, 2, 66, 38
3, 47564, Note_off_c, 2, 66, 38
3, 47570, Note_on_c, 2, 64, 51
3, 47592, Note_off_c, 2, 64, 51
3, 47600, Note_on_c, 2, 69, 58
3, 47626, Note_off_c, 2, 69, 58
3, 47630, Note_on_c, 2, 64, 54
3, 47650, Note_off_c, 2, 64, 54
3, 47656, Note_on_c, 2, 66, 55
3, 47688, Note_off_c, 2, 66, 55
3, 47692, Note_on_c, 2, 64, 46
3, 47708, Note_off_c, 2, 64, 46
3, 47712, Note_on_c, 2, 62, 54
3, 47732, Note_off_c, 2, 62, 54
3, 47738, Note_on_c, 2, 59, 54
3, 47764, Note_off_c, 2, 59, 54
3, 47768, Note_on_c, 2, 57, 52
3, 47788, Note_off_c, 2, 57, 52
3, 47798, Note_on_c, 2, 64, 62
3, 47818, Note_off_c, 2, 64, 62
3, 47818, Note_on_c, 2, 57, 49
3, 47846, Note_off_c, 2, 57, 49
3, 47850, Note_on_c, 2, 62, 64
3, 47880, Note_off_c, 2, 62, 64
3, 47882, Note_on_c, 2, 59, 39
3, 47902, Note_off_c, 2, 59, 39
3, 47906, Note_on_c, 2, 57, 51
3, 47924, Note_off_c, 2, 57, 51
3, 47934, Note_on_c, 2, 54, 55
3, 47946, Note_off_c, 2, 54, 55
3, 47956, Note_on_c, 2, 57, 43
3, 47976, Note_off_c, 2, 57, 43
3, 47984, Note_on_c, 2, 59, 55
3, 48006, Note_off_c, 2, 59, 55
3, 48010, Note_on_c, 2, 62, 54
3, 48032, Note_off_c, 2, 62, 54
3, 48044, Note_on_c, 2, 64, 66
3, 48058, Note_off_c, 2, 64, 66
3, 48072, Note_on_c, 2, 66, 42
3, 48090, Note_off_c, 2, 66, 42
3, 48098, Note_on_c, 2, 69, 49
3, 48112, Note_off_c, 2, 69, 49
3, 48112, Note_on_c, 2, 62, 52
3, 48134, Note_off_c, 2, 62, 52
3, 48142, Note_on_c, 2, 64, 32
3, 48162, Note_off_c, 2, 64, 32
3, 48198, Note_on_c, 2, 69, 37
3, 48224, Note_off_c, 2, 69, 37
3, 48224, Note_on_c, 2, 71, 52
3, 48240, Note_on_c, 2, 66, 40
3, 48244, Note_off_c, 2, 71, 52
3, 48266, Note_off_c, 2, 66, 40
3, 48270, Note_on_c, 2, 69, 34
3, 48284, Note_off_c, 2, 69, 34
3, 48294, Note_on_c, 2, 71, 60
3, 48316, Note_off_c, 2, 71, 60
3, 48320, Note_on_c, 2, 69, 43
3, 48342, Note_off_c, 2, 69, 43
3, 48372, Note_on_c, 2, 74, 83
3, 48416, Note_off_c, 2, 74, 83
3, 48438, Note_on_c, 2, 74, 73
3, 48502, Note_off_c, 2, 74, 73
3, 48584, Note_on_c, 2, 72, 65
3, 48594, Note_on_c, 2, 73, 49
3, 48604, Note_off_c, 2, 72, 65
3, 48638, Note_on_c, 2, 71, 66
3, 48640, Note_off_c, 2, 73, 49
3, 48672, Note_on_c, 2, 70, 32
3, 48676, Note_off_c, 2, 71, 66
3, 48714, Note_off_c, 2, 70, 32
3, 48724, Note_on_c, 2, 73, 57
3, 48764, Note_off_c, 2, 73, 57
3, 48768, Note_on_c, 2, 71, 58
3, 48808, Note_off_c, 2, 71, 58
3, 48812, Note_on_c, 2, 66, 40
3, 48836, Note_off_c, 2, 66, 40
3, 48864, Note_on_c, 2, 64, 53
3, 48898, Note_off_c, 2, 64, 53
3, 48910, Note_on_c, 2, 69, 66
3, 48934, Note_off_c, 2, 69, 66
3, 48946, Note_on_c, 2, 64, 30
3, 48968, Note_off_c, 2, 64, 30
3, 48976, Note_on_c, 2, 66, 43
3, 49002, Note_off_c, 2, 66, 43
3, 49024, Note_on_c, 2, 66, 42
3, 49064, Note_off_c, 2, 66, 42
3, 49088, Note_on_c, 2, 64, 51
3, 49118, Note_off_c, 2, 64, 51
3, 49156, Note_on_c, 2, 66, 84
3, 49190, Note_on_c, 2, 64, 55
3, 49200, Note_off_c, 2, 66, 84
3, 49218, Note_off_c, 2, 64, 55
3, 49242, Note_on_c, 2, 59, 54
3, 49280, Note_off_c, 2, 59, 54
3, 49290, Note_on_c, 2, 57, 37
3, 49310, Note_off_c, 2, 57, 37
3, 49320, Note_on_c, 2, 64, 66
3, 49360, Note_off_c, 2, 64, 66
3, 49360, Note_on_c, 2, 62, 65
3, 49420, Note_off_c, 2, 62, 65
3, 49570, Note_on_c, 2, 57, 55
3, 49592, Note_off_c, 2, 57, 55
3, 49596, Note_on_c, 2, 59, 51
3, 49610, Note_off_c, 2, 59, 51
3, 49610, Note_on_c, 2, 62, 54
3, 49630, Note_off_c, 2, 62, 54
3, 49646, Note_on_c, 2, 64, 76
3, 49658, Note_off_c, 2, 64, 76
3, 49672, Note_on_c, 2, 66, 54
3, 49692, Note_off_c, 2, 66, 54
3, 49704, Note_on_c, 2, 69, 66
3, 49728, Note_off_c, 2, 69, 66
3, 49740, Note_on_c, 2, 71, 38
3, 49754, Note_on_c, 2, 66, 51
3, 49758, Note_off_c, 2, 71, 38
3, 49770, Note_off_c, 2, 66, 51
3, 49780, Note_on_c, 2, 69, 52
3, 49796, Note_off_c, 2, 69, 52
3, 49804, Note_on_c, 2, 71, 50
3, 49826, Note_off_c, 2, 71, 50
3, 49876, Note_on_c, 2, 69, 43
3, 49888, Note_off_c, 2, 69, 43
3, 49914, Note_on_c, 2, 76, 82
3, 49946, Note_off_c, 2, 76, 82
3, 49950, Note_on_c, 2, 74, 57
3, 49978, Note_off_c, 2, 74, 57
3, 49982, Note_on_c, 2, 71, 42
3, 49998, Note_on_c, 2, 69, 50
3, 50002, Note_off_c, 2, 71, 42
3, 50012, Note_off_c, 2, 69, 50
3, 50024, Note_on_c, 2, 74, 72
3, 50052, Note_off_c, 2, 74, 72
3, 50064, Note_on_c, 2, 69, 34
3, 50066, Note_on_c, 2, 71, 51
3, 50084, Note_off_c, 2, 71, 51
3, 50106, Note_off_c, 2, 69, 34
3, 50110, Note_on_c, 2, 66, 56
3, 50144, Note_off_c, 2, 66, 56
3, 50148, Note_on_c, 2, 64, 35
3, 50170, Note_off_c, 2, 64, 35
3, 50170, Note_on_c, 2, 71, 61
3, 50206, Note_off_c, 2, 71, 61
3, 50206, Note_on_c, 2, 64, 36
3, 50210, Note_on_c, 2, 69, 51
3, 50230, Note_off_c, 2, 64, 36
3, 50236, Note_off_c, 2, 69, 51
3, 50246, Note_on_c, 2, 66, 30
3, 50288, Note_off_c, 2, 66, 30
3, 50294, Note_on_c, 2, 64, 44
3, 50366, Note_off_c, 2, 64, 44
3, 50370, Note_on_c, 2, 62, 66
3, 50476, Note_off_c, 2, 62, 66
3, 50544, Note_on_c, 2, 69, 76
3, 50548, Note_on_c, 2, 71, 99
3, 50556, Note_off_c, 2, 69, 76
3, 50588, Note_off_c, 2, 71, 99
3, 50588, Note_on_c, 2, 74, 67
3, 50630, Note_on_c, 2, 71, 60
3, 50640, Note_off_c, 2, 74, 67
3, 50690, Note_off_c, 2, 71, 60
3, 50746, Note_on_c, 2, 64, 67
3, 50748, Note_on_c, 2, 66, 89
3, 50758, Note_off_c, 2, 64, 67
3, 50788, Note_off_c, 2, 66, 89
3, 50788, Note_on_c, 2, 69, 62
3, 50822, Note_off_c, 2, 69, 62
3, 50830, Note_on_c, 2, 66, 68
3, 50844, Note_off_c, 2, 66, 68
3, 50936, Note_on_c, 2, 57, 65
3, 50938, Note_on_c, 2, 59, 80
3, 50950, Note_off_c, 2, 57, 65
3, 50986, Note_off_c, 2, 59, 80
3, 50986, Note_on_c, 2, 62, 66
3, 51030, Note_on_c, 2, 59, 64
3, 51038, Note_off_c, 2, 62, 66
3, 51060, Note_off_c, 2, 59, 64
3, 51124, Note_on_c, 2, 52, 63
3, 51132, Note_on_c, 2, 54, 73
3, 51142, Note_off_c, 2, 52, 63
3, 51174, Note_off_c, 2, 54, 73
3, 51176, Note_on_c, 2, 57, 62
3, 51214, Note_on_c, 2, 54, 52
3, 51218, Note_off_c, 2, 57, 62
3, 51238, Note_off_c, 2, 54, 52
3, 51326, Note_on_c, 2, 69, 74
3, 51330, Note_on_c, 2, 71, 86
3, 51340, Note_off_c, 2, 69, 74
3, 51372, Note_off_c, 2, 71, 86
3, 51372, Note_on_c, 2, 74, 69
3, 51412, Note_on_c, 2, 71, 66
3, 51422, Note_off_c, 2, 74, 69
3, 51442, Note_off_c, 2, 71, 66
3, 51510, Note_on_c, 2, 64, 43
3, 51519, Note_on_c, 2, 66, 60
3, 51526, Note_off_c, 2, 64, 43
3, 51558, Note_off_c, 2, 66, 60
3, 51559, Note_on_c, 2, 69, 60
3, 51600, Note_off_c, 2, 69, 60
3, 51607, Note_on_c, 2, 66, 57
3, 51640, Note_off_c, 2, 66, 57
3, 51700, Note_on_c, 2, 57, 42
3, 51707, Note_on_c, 2, 59, 66
3, 51713, Note_off_c, 2, 57, 42
3, 51734, Note_off_c, 2, 59, 66
3, 51743, Note_on_c, 2, 57, 57
3, 51783, Note_on_c, 2, 59, 60
3, 51792, Note_off_c, 2, 57, 57
3, 51833, Note_off_c, 2, 59, 60
3, 51922, Note_on_c, 2, 69, 45
3, 51928, Note_on_c, 2, 78, 24
3, 52276, Note_off_c, 2, 69, 45
3, 52287, Note_off_c, 2, 78, 24
3, 52287, End_track
4, 0, Start_track
4, 0, Text_t, "basso     "
4, 768, Note_on_c, 1, 52, 75
4, 912, Note_on_c, 1, 51, 72
4, 916, Note_off_c, 1, 52, 75
4, 1082, Note_off_c, 1, 51, 72
4, 1104, Note_on_c, 1, 50, 80
4, 1330, Note_off_c, 1, 50, 80
4, 1344, Note_on_c, 1, 49, 80
4, 1490, Note_off_c, 1, 49, 80
4, 1536, Note_on_c, 1, 48, 86
4, 1674, Note_off_c, 1, 48, 86
4, 1680, Note_on_c, 1, 47, 80
4, 1830, Note_off_c, 1, 47, 80
4, 1872, Note_on_c, 1, 47, 80
4, 2016, Note_on_c, 1, 59, 66
4, 2036, Note_off_c, 1, 47, 80
4, 2042, Note_off_c, 1, 59, 66
4, 2064, Note_on_c, 1, 47, 72
4, 2100, Note_off_c, 1, 47, 72
4, 2112, Note_on_c, 1, 46, 83
4, 2208, Note_on_c, 1, 58, 64
4, 2230, Note_off_c, 1, 46, 83
4, 2254, Note_off_c, 1, 58, 64
4, 2256, Note_on_c, 1, 46, 62
4, 2292, Note_off_c, 1, 46, 62
4, 2304, Note_on_c, 1, 45, 92
4, 2400, Note_off_c, 1, 45, 92
4, 2400, Note_on_c, 1, 45, 60
4, 2422, Note_off_c, 1, 45, 60
4, 2448, Note_on_c, 1, 57, 82
4, 2632, Note_off_c, 1, 57, 82
4, 2640, Note_on_c, 1, 45, 81
4, 2790, Note_off_c, 1, 45, 81
4, 2832, Note_on_c, 1, 57, 82
4, 3036, Note_off_c, 1, 57, 82
4, 3072, Note_on_c, 1, 45, 83
4, 3216, Note_on_c, 1, 57, 89
4, 3240, Note_off_c, 1, 45, 83
4, 3408, Note_on_c, 1, 43, 91
4, 3410, Note_off_c, 1, 57, 89
4, 3536, Note_off_c, 1, 43, 91
4, 3600, Note_on_c, 1, 43, 80
4, 3622, Note_off_c, 1, 43, 80
4, 3648, Note_on_c, 1, 43, 84
4, 3710, Note_off_c, 1, 43, 84
4, 3744, Note_on_c, 1, 45, 85
4, 3802, Note_off_c, 1, 45, 85
4, 3840, Note_on_c, 1, 50, 98
4, 3978, Note_off_c, 1, 50, 98
4, 3984, Note_on_c, 1, 43, 80
4, 4154, Note_off_c, 1, 43, 80
4, 4176, Note_on_c, 1, 49, 74
4, 4360, Note_off_c, 1, 49, 74
4, 4368, Note_on_c, 1, 47, 75
4, 4578, Note_off_c, 1, 47, 75
4, 4608, Note_on_c, 1, 43, 77
4, 4728, Note_off_c, 1, 43, 77
4, 4752, Note_on_c, 1, 42, 101
4, 4924, Note_off_c, 1, 42, 101
4, 4944, Note_on_c, 1, 43, 78
4, 5122, Note_off_c, 1, 43, 78
4, 5136, Note_on_c, 1, 42, 72
4, 5362, Note_off_c, 1, 42, 72
4, 5376, Note_on_c, 1, 50, 96
4, 5520, Note_on_c, 1, 43, 89
4, 5528, Note_off_c, 1, 50, 96
4, 5670, Note_off_c, 1, 43, 89
4, 5712, Note_on_c, 1, 49, 93
4, 5888, Note_off_c, 1, 49, 93
4, 5904, Note_on_c, 1, 47, 78
4, 6048, Note_on_c, 1, 59, 70
4, 6056, Note_off_c, 1, 47, 78
4, 6070, Note_off_c, 1, 59, 70
4, 6096, Note_on_c, 1, 45, 66
4, 6130, Note_off_c, 1, 45, 66
4, 6144, Note_on_c, 1, 43, 80
4, 6258, Note_off_c, 1, 43, 80
4, 6288, Note_on_c, 1, 42, 99
4, 6364, Note_off_c, 1, 42, 99
4, 6480, Note_on_c, 1, 43, 82
4, 6526, Note_off_c, 1, 43, 82
4, 6672, Note_on_c, 1, 42, 89
4, 6762, Note_off_c, 1, 42, 89
4, 6816, Note_on_c, 1, 42, 58
4, 6826, Note_off_c, 1, 42, 58
4, 6864, Note_on_c, 1, 43, 92
4, 6936, Note_off_c, 1, 43, 92
4, 7056, Note_on_c, 1, 45, 89
4, 7152, Note_on_c, 1, 57, 70
4, 7160, Note_off_c, 1, 45, 89
4, 7164, Note_off_c, 1, 57, 70
4, 7200, Note_on_c, 1, 45, 74
4, 7232, Note_off_c, 1, 45, 74
4, 7248, Note_on_c, 1, 50, 102
4, 7468, Note_off_c, 1, 50, 102
4, 7488, Note_on_c, 1, 43, 80
4, 7560, Note_off_c, 1, 43, 80
4, 7584, Note_on_c, 1, 45, 81
4, 7644, Note_off_c, 1, 45, 81
4, 7680, Note_on_c, 1, 50, 76
4, 7814, Note_off_c, 1, 50, 76
4, 7824, Note_on_c, 1, 43, 80
4, 7970, Note_off_c, 1, 43, 80
4, 8016, Note_on_c, 1, 49, 89
4, 8178, Note_off_c, 1, 49, 89
4, 8208, Note_on_c, 1, 47, 72
4, 8296, Note_off_c, 1, 47, 72
4, 8304, Note_on_c, 1, 47, 66
4, 8334, Note_off_c, 1, 47, 66
4, 8352, Note_on_c, 1, 45, 73
4, 8424, Note_off_c, 1, 45, 73
4, 8448, Note_on_c, 1, 43, 68
4, 8580, Note_off_c, 1, 43, 68
4, 8592, Note_on_c, 1, 42, 99
4, 8724, Note_off_c, 1, 42, 99
4, 8736, Note_on_c, 1, 42, 64
4, 8736, Note_on_c, 1, 54, 59
4, 8748, Note_off_c, 1, 54, 59
4, 8794, Note_off_c, 1, 42, 64
4, 8832, Note_on_c, 1, 43, 84
4, 8954, Note_off_c, 1, 43, 84
4, 8976, Note_on_c, 1, 42, 88
4, 9208, Note_off_c, 1, 42, 88
4, 9216, Note_on_c, 1, 50, 105
4, 9340, Note_off_c, 1, 50, 105
4, 9360, Note_on_c, 1, 43, 103
4, 9532, Note_off_c, 1, 43, 103
4, 9552, Note_on_c, 1, 49, 93
4, 9722, Note_off_c, 1, 49, 93
4, 9744, Note_on_c, 1, 47, 89
4, 9866, Note_off_c, 1, 47, 89
4, 9984, Note_on_c, 1, 43, 90
4, 10062, Note_off_c, 1, 43, 90
4, 10128, Note_on_c, 1, 42, 89
4, 10224, Note_on_c, 1, 54, 73
4, 10236, Note_off_c, 1, 42, 89
4, 10238, Note_off_c, 1, 54, 73
4, 10272, Note_on_c, 1, 42, 61
4, 10306, Note_off_c, 1, 42, 61
4, 10320, Note_on_c, 1, 43, 84
4, 10416, Note_on_c, 1, 55, 68
4, 10424, Note_off_c, 1, 55, 68
4, 10436, Note_off_c, 1, 43, 84
4, 10464, Note_on_c, 1, 43, 72
4, 10500, Note_off_c, 1, 43, 72
4, 10512, Note_on_c, 1, 42, 71
4, 10608, Note_on_c, 1, 54, 89
4, 10624, Note_off_c, 1, 54, 89
4, 10624, Note_off_c, 1, 42, 71
4, 10656, Note_on_c, 1, 42, 62
4, 10686, Note_off_c, 1, 42, 62
4, 10704, Note_on_c, 1, 43, 86
4, 10800, Note_off_c, 1, 43, 86
4, 10800, Note_on_c, 1, 55, 88
4, 10816, Note_off_c, 1, 55, 88
4, 10848, Note_on_c, 1, 43, 81
4, 10874, Note_off_c, 1, 43, 81
4, 10896, Note_on_c, 1, 45, 86
4, 10972, Note_off_c, 1, 45, 86
4, 10992, Note_on_c, 1, 57, 82
4, 11020, Note_off_c, 1, 57, 82
4, 11040, Note_on_c, 1, 45, 74
4, 11088, Note_on_c, 1, 50, 99
4, 11096, Note_off_c, 1, 45, 74
4, 11380, Note_off_c, 1, 50, 99
4, 11424, Note_on_c, 1, 50, 74
4, 11494, Note_off_c, 1, 50, 74
4, 11520, Note_on_c, 1, 45, 102
4, 11696, Note_off_c, 1, 45, 102
4, 11712, Note_on_c, 1, 46, 97
4, 11842, Note_off_c, 1, 46, 97
4, 11856, Note_on_c, 1, 47, 86
4, 12048, Note_on_c, 1, 49, 88
4, 12060, Note_off_c, 1, 47, 86
4, 12274, Note_off_c, 1, 49, 88
4, 12288, Note_on_c, 1, 50, 87
4, 12430, Note_off_c, 1, 50, 87
4, 12432, Note_on_c, 1, 49, 97
4, 12604, Note_off_c, 1, 49, 97
4, 12624, Note_on_c, 1, 42, 89
4, 12720, Note_on_c, 1, 54, 83
4, 12808, Note_off_c, 1, 42, 89
4, 12810, Note_off_c, 1, 54, 83
4, 12816, Note_on_c, 1, 44, 106
4, 12960, Note_on_c, 1, 56, 74
4, 12988, Note_off_c, 1, 44, 106
4, 12990, Note_off_c, 1, 56, 74
4, 13008, Note_on_c, 1, 44, 65
4, 13048, Note_off_c, 1, 44, 65
4, 13056, Note_on_c, 1, 45, 94
4, 13152, Note_on_c, 1, 57, 86
4, 13168, Note_off_c, 1, 45, 94
4, 13200, Note_on_c, 1, 45, 68
4, 13236, Note_off_c, 1, 45, 68
4, 13240, Note_off_c, 1, 57, 86
4, 13248, Note_on_c, 1, 43, 90
4, 13344, Note_on_c, 1, 55, 63
4, 13360, Note_off_c, 1, 55, 63
4, 13376, Note_off_c, 1, 43, 90
4, 13392, Note_on_c, 1, 42, 78
4, 13488, Note_on_c, 1, 54, 93
4, 13572, Note_off_c, 1, 54, 93
4, 13584, Note_on_c, 1, 47, 96
4, 13600, Note_off_c, 1, 42, 78
4, 13680, Note_on_c, 1, 59, 85
4, 13758, Note_off_c, 1, 59, 85
4, 13796, Note_off_c, 1, 47, 96
4, 13824, Note_on_c, 1, 45, 102
4, 13966, Note_off_c, 1, 45, 102
4, 13968, Note_on_c, 1, 57, 96
4, 14160, Note_on_c, 1, 45, 114
4, 14164, Note_off_c, 1, 57, 96
4, 14342, Note_off_c, 1, 45, 114
4, 14352, Note_on_c, 1, 45, 72
4, 14400, Note_on_c, 1, 57, 85
4, 14420, Note_off_c, 1, 45, 72
4, 14496, Note_on_c, 1, 45, 78
4, 14510, Note_off_c, 1, 57, 85
4, 14572, Note_off_c, 1, 45, 78
4, 14592, Note_on_c, 1, 50, 96
4, 14736, Note_on_c, 1, 43, 80
4, 14738, Note_off_c, 1, 50, 96
4, 14902, Note_off_c, 1, 43, 80
4, 14928, Note_on_c, 1, 49, 83
4, 15106, Note_off_c, 1, 49, 83
4, 15120, Note_on_c, 1, 47, 83
4, 15216, Note_on_c, 1, 59, 78
4, 15234, Note_off_c, 1, 47, 83
4, 15248, Note_off_c, 1, 59, 78
4, 15264, Note_on_c, 1, 47, 71
4, 15312, Note_off_c, 1, 47, 71
4, 15312, Note_on_c, 1, 45, 80
4, 15352, Note_off_c, 1, 45, 80
4, 15360, Note_on_c, 1, 43, 82
4, 15408, Note_on_c, 1, 55, 69
4, 15420, Note_off_c, 1, 55, 69
4, 15440, Note_off_c, 1, 43, 82
4, 15456, Note_on_c, 1, 43, 71
4, 15472, Note_off_c, 1, 43, 71
4, 15504, Note_on_c, 1, 42, 86
4, 15600, Note_on_c, 1, 54, 82
4, 15618, Note_off_c, 1, 54, 82
4, 15696, Note_on_c, 1, 43, 90
4, 15710, Note_off_c, 1, 42, 86
4, 15792, Note_on_c, 1, 55, 81
4, 15850, Note_off_c, 1, 55, 81
4, 15872, Note_off_c, 1, 43, 90
4, 15888, Note_on_c, 1, 42, 99
4, 16032, Note_on_c, 1, 54, 95
4, 16050, Note_off_c, 1, 42, 99
4, 16060, Note_off_c, 1, 54, 95
4, 16080, Note_on_c, 1, 42, 66
4, 16124, Note_off_c, 1, 42, 66
4, 16128, Note_on_c, 1, 50, 100
4, 16270, Note_off_c, 1, 50, 100
4, 16272, Note_on_c, 1, 43, 100
4, 16430, Note_off_c, 1, 43, 100
4, 16464, Note_on_c, 1, 49, 95
4, 16560, Note_on_c, 1, 61, 88
4, 16572, Note_off_c, 1, 61, 88
4, 16656, Note_on_c, 1, 47, 90
4, 16660, Note_off_c, 1, 49, 95
4, 16752, Note_on_c, 1, 59, 89
4, 16774, Note_off_c, 1, 47, 90
4, 16800, Note_on_c, 1, 47, 77
4, 16848, Note_on_c, 1, 45, 74
4, 16868, Note_off_c, 1, 47, 77
4, 16878, Note_off_c, 1, 45, 74
4, 16878, Note_off_c, 1, 59, 89
4, 16896, Note_on_c, 1, 43, 86
4, 16954, Note_off_c, 1, 43, 86
4, 17040, Note_on_c, 1, 42, 89
4, 17096, Note_off_c, 1, 42, 89
4, 17232, Note_on_c, 1, 43, 86
4, 17278, Note_off_c, 1, 43, 86
4, 17424, Note_on_c, 1, 42, 95
4, 17450, Note_off_c, 1, 42, 95
4, 17616, Note_on_c, 1, 43, 82
4, 17634, Note_off_c, 1, 43, 82
4, 17664, Note_on_c, 1, 43, 90
4, 17732, Note_off_c, 1, 43, 90
4, 17808, Note_on_c, 1, 45, 98
4, 17940, Note_off_c, 1, 45, 98
4, 17952, Note_on_c, 1, 57, 96
4, 17986, Note_off_c, 1, 57, 96
4, 18000, Note_on_c, 1, 45, 66
4, 18028, Note_off_c, 1, 45, 66
4, 18048, Note_on_c, 1, 50, 70
4, 18336, Note_on_c, 1, 43, 84
4, 18348, Note_off_c, 1, 50, 70
4, 18406, Note_off_c, 1, 43, 84
4, 18432, Note_on_c, 1, 50, 78
4, 18576, Note_on_c, 1, 43, 95
4, 18580, Note_off_c, 1, 50, 78
4, 18728, Note_off_c, 1, 43, 95
4, 18768, Note_on_c, 1, 49, 78
4, 18942, Note_off_c, 1, 49, 78
4, 18960, Note_on_c, 1, 47, 77
4, 19056, Note_on_c, 1, 59, 70
4, 19080, Note_off_c, 1, 47, 77
4, 19102, Note_off_c, 1, 59, 70
4, 19104, Note_on_c, 1, 47, 75
4, 19152, Note_on_c, 1, 45, 77
4, 19158, Note_off_c, 1, 47, 75
4, 19188, Note_off_c, 1, 45, 77
4, 19200, Note_on_c, 1, 43, 85
4, 19290, Note_off_c, 1, 43, 85
4, 19344, Note_on_c, 1, 42, 97
4, 19440, Note_on_c, 1, 54, 84
4, 19456, Note_off_c, 1, 54, 84
4, 19526, Note_off_c, 1, 42, 97
4, 19536, Note_on_c, 1, 43, 94
4, 19632, Note_off_c, 1, 43, 94
4, 19632, Note_on_c, 1, 55, 92
4, 19648, Note_off_c, 1, 55, 92
4, 19728, Note_on_c, 1, 42, 93
4, 19802, Note_off_c, 1, 42, 93
4, 19872, Note_on_c, 1, 54, 95
4, 19888, Note_off_c, 1, 54, 95
4, 19920, Note_on_c, 1, 42, 77
4, 19942, Note_off_c, 1, 42, 77
4, 19968, Note_on_c, 1, 50, 94
4, 20078, Note_off_c, 1, 50, 94
4, 20112, Note_on_c, 1, 43, 96
4, 20234, Note_off_c, 1, 43, 96
4, 20304, Note_on_c, 1, 49, 101
4, 20482, Note_off_c, 1, 49, 101
4, 20496, Note_on_c, 1, 47, 89
4, 20592, Note_on_c, 1, 59, 86
4, 20604, Note_off_c, 1, 47, 89
4, 20624, Note_off_c, 1, 59, 86
4, 20736, Note_on_c, 1, 43, 99
4, 20820, Note_off_c, 1, 43, 99
4, 20880, Note_on_c, 1, 42, 99
4, 20976, Note_on_c, 1, 54, 80
4, 20986, Note_off_c, 1, 54, 80
4, 20986, Note_off_c, 1, 42, 99
4, 21024, Note_on_c, 1, 42, 63
4, 21058, Note_off_c, 1, 42, 63
4, 21072, Note_on_c, 1, 43, 88
4, 21168, Note_on_c, 1, 55, 85
4, 21180, Note_off_c, 1, 55, 85
4, 21186, Note_off_c, 1, 43, 88
4, 21216, Note_on_c, 1, 43, 67
4, 21238, Note_off_c, 1, 43, 67
4, 21264, Note_on_c, 1, 42, 91
4, 21360, Note_on_c, 1, 54, 82
4, 21366, Note_off_c, 1, 42, 91
4, 21374, Note_off_c, 1, 54, 82
4, 21408, Note_on_c, 1, 42, 71
4, 21440, Note_off_c, 1, 42, 71
4, 21456, Note_on_c, 1, 43, 102
4, 21550, Note_off_c, 1, 43, 102
4, 21600, Note_on_c, 1, 43, 77
4, 21600, Note_on_c, 1, 55, 93
4, 21618, Note_off_c, 1, 55, 93
4, 21622, Note_off_c, 1, 43, 77
4, 21648, Note_on_c, 1, 45, 80
4, 21740, Note_off_c, 1, 45, 80
4, 21744, Note_on_c, 1, 57, 87
4, 21768, Note_off_c, 1, 57, 87
4, 21792, Note_on_c, 1, 45, 75
4, 21830, Note_off_c, 1, 45, 75
4, 21840, Note_on_c, 1, 50, 106
4, 22232, Note_off_c, 1, 50, 106
4, 22272, Note_on_c, 1, 45, 102
4, 22438, Note_off_c, 1, 45, 102
4, 22464, Note_on_c, 1, 46, 95
4, 22560, Note_on_c, 1, 58, 62
4, 22566, Note_off_c, 1, 58, 62
4, 22596, Note_off_c, 1, 46, 95
4, 22608, Note_on_c, 1, 47, 94
4, 22704, Note_on_c, 1, 59, 87
4, 22724, Note_off_c, 1, 59, 87
4, 22792, Note_off_c, 1, 47, 94
4, 22800, Note_on_c, 1, 49, 101
4, 22944, Note_on_c, 1, 61, 99
4, 22950, Note_off_c, 1, 49, 101
4, 22992, Note_on_c, 1, 49, 72
4, 23024, Note_off_c, 1, 61, 99
4, 23040, Note_on_c, 1, 50, 96
4, 23042, Note_off_c, 1, 49, 72
4, 23184, Note_off_c, 1, 50, 96
4, 23184, Note_on_c, 1, 49, 104
4, 23374, Note_off_c, 1, 49, 104
4, 23376, Note_on_c, 1, 54, 91
4, 23568, Note_on_c, 1, 44, 120
4, 23570, Note_off_c, 1, 54, 91
4, 23768, Note_off_c, 1, 44, 120
4, 23808, Note_on_c, 1, 45, 86
4, 23904, Note_on_c, 1, 57, 69
4, 23938, Note_off_c, 1, 45, 86
4, 23952, Note_on_c, 1, 45, 58
4, 23990, Note_off_c, 1, 45, 58
4, 23998, Note_off_c, 1, 57, 69
4, 24000, Note_on_c, 1, 43, 98
4, 24096, Note_on_c, 1, 55, 60
4, 24112, Note_off_c, 1, 55, 60
4, 24132, Note_off_c, 1, 43, 98
4, 24144, Note_on_c, 1, 42, 83
4, 24240, Note_on_c, 1, 54, 74
4, 24322, Note_off_c, 1, 54, 74
4, 24336, Note_on_c, 1, 47, 91
4, 24342, Note_off_c, 1, 42, 83
4, 24432, Note_on_c, 1, 59, 73
4, 24562, Note_off_c, 1, 47, 91
4, 24564, Note_off_c, 1, 59, 73
4, 24576, Note_on_c, 1, 45, 95
4, 24710, Note_off_c, 1, 45, 95
4, 24720, Note_on_c, 1, 57, 98
4, 24960, Note_on_c, 1, 45, 103
4, 25104, Note_on_c, 1, 45, 86
4, 25114, Note_off_c, 1, 45, 103
4, 25128, Note_off_c, 1, 57, 98
4, 25152, Note_on_c, 1, 57, 93
4, 25180, Note_off_c, 1, 45, 86
4, 25248, Note_on_c, 1, 45, 76
4, 25322, Note_off_c, 1, 57, 93
4, 25336, Note_off_c, 1, 45, 76
4, 25344, Note_on_c, 1, 50, 95
4, 25464, Note_off_c, 1, 50, 95
4, 25488, Note_on_c, 1, 43, 79
4, 25634, Note_off_c, 1, 43, 79
4, 25680, Note_on_c, 1, 49, 80
4, 25840, Note_off_c, 1, 49, 80
4, 25872, Note_on_c, 1, 47, 95
4, 26098, Note_off_c, 1, 47, 95
4, 26112, Note_on_c, 1, 43, 84
4, 26230, Note_off_c, 1, 43, 84
4, 26256, Note_on_c, 1, 42, 89
4, 26352, Note_on_c, 1, 54, 74
4, 26366, Note_off_c, 1, 54, 74
4, 26374, Note_off_c, 1, 42, 89
4, 26400, Note_on_c, 1, 42, 56
4, 26448, Note_on_c, 1, 43, 88
4, 26456, Note_off_c, 1, 42, 56
4, 26602, Note_off_c, 1, 43, 88
4, 26640, Note_on_c, 1, 42, 88
4, 26736, Note_on_c, 1, 54, 84
4, 26752, Note_off_c, 1, 42, 88
4, 26758, Note_off_c, 1, 54, 84
4, 26784, Note_on_c, 1, 42, 69
4, 26808, Note_off_c, 1, 42, 69
4, 26832, Note_on_c, 1, 42, 69
4, 26862, Note_off_c, 1, 42, 69
4, 26880, Note_on_c, 1, 50, 83
4, 27012, Note_off_c, 1, 50, 83
4, 27024, Note_on_c, 1, 43, 100
4, 27174, Note_off_c, 1, 43, 100
4, 27216, Note_on_c, 1, 49, 101
4, 27378, Note_off_c, 1, 49, 101
4, 27408, Note_on_c, 1, 47, 88
4, 27588, Note_off_c, 1, 47, 88
4, 27648, Note_on_c, 1, 43, 93
4, 27762, Note_off_c, 1, 43, 93
4, 27792, Note_on_c, 1, 42, 89
4, 27876, Note_off_c, 1, 42, 89
4, 27984, Note_on_c, 1, 43, 86
4, 28070, Note_off_c, 1, 43, 86
4, 28176, Note_on_c, 1, 42, 95
4, 28272, Note_on_c, 1, 54, 112
4, 28280, Note_off_c, 1, 42, 95
4, 28298, Note_off_c, 1, 54, 112
4, 28320, Note_on_c, 1, 42, 74
4, 28368, Note_on_c, 1, 43, 99
4, 28374, Note_off_c, 1, 42, 74
4, 28464, Note_on_c, 1, 55, 92
4, 28472, Note_off_c, 1, 43, 99
4, 28512, Note_on_c, 1, 43, 74
4, 28518, Note_off_c, 1, 55, 92
4, 28548, Note_off_c, 1, 43, 74
4, 28560, Note_on_c, 1, 45, 98
4, 28656, Note_on_c, 1, 57, 84
4, 28674, Note_off_c, 1, 45, 98
4, 28704, Note_on_c, 1, 45, 73
4, 28732, Note_off_c, 1, 45, 73
4, 28740, Note_off_c, 1, 57, 84
4, 28800, Note_on_c, 1, 50, 86
4, 28988, Note_off_c, 1, 50, 86
4, 28992, Note_on_c, 1, 43, 103
4, 29060, Note_off_c, 1, 43, 103
4, 29088, Note_on_c, 1, 45, 94
4, 29144, Note_off_c, 1, 45, 94
4, 29184, Note_on_c, 1, 50, 94
4, 29326, Note_off_c, 1, 50, 94
4, 29328, Note_on_c, 1, 43, 94
4, 29520, Note_off_c, 1, 43, 94
4, 29520, Note_on_c, 1, 49, 80
4, 29684, Note_off_c, 1, 49, 80
4, 29712, Note_on_c, 1, 47, 80
4, 29808, Note_on_c, 1, 59, 82
4, 29856, Note_on_c, 1, 45, 75
4, 29864, Note_off_c, 1, 59, 82
4, 29880, Note_off_c, 1, 47, 80
4, 29930, Note_off_c, 1, 45, 75
4, 29952, Note_on_c, 1, 43, 98
4, 30074, Note_off_c, 1, 43, 98
4, 30096, Note_on_c, 1, 42, 89
4, 30240, Note_on_c, 1, 49, 99
4, 30252, Note_off_c, 1, 49, 99
4, 30264, Note_off_c, 1, 42, 89
4, 30288, Note_on_c, 1, 42, 62
4, 30316, Note_off_c, 1, 42, 62
4, 30336, Note_on_c, 1, 43, 78
4, 30452, Note_off_c, 1, 43, 78
4, 30480, Note_on_c, 1, 42, 80
4, 30576, Note_on_c, 1, 54, 93
4, 30588, Note_off_c, 1, 42, 80
4, 30624, Note_on_c, 1, 42, 61
4, 30650, Note_off_c, 1, 54, 93
4, 30714, Note_off_c, 1, 42, 61
4, 30720, Note_on_c, 1, 50, 94
4, 30850, Note_off_c, 1, 50, 94
4, 30864, Note_on_c, 1, 43, 91
4, 31022, Note_off_c, 1, 43, 91
4, 31056, Note_on_c, 1, 49, 104
4, 31232, Note_off_c, 1, 49, 104
4, 31248, Note_on_c, 1, 47, 87
4, 31474, Note_off_c, 1, 47, 87
4, 31488, Note_on_c, 1, 43, 81
4, 31554, Note_off_c, 1, 43, 81
4, 31632, Note_on_c, 1, 42, 97
4, 31698, Note_off_c, 1, 42, 97
4, 31824, Note_on_c, 1, 43, 82
4, 31992, Note_off_c, 1, 43, 82
4, 32016, Note_on_c, 1, 42, 84
4, 32198, Note_off_c, 1, 42, 84
4, 32208, Note_on_c, 1, 43, 85
4, 32384, Note_off_c, 1, 43, 85
4, 32400, Note_on_c, 1, 45, 88
4, 32534, Note_off_c, 1, 45, 88
4, 32544, Note_on_c, 1, 45, 71
4, 32580, Note_off_c, 1, 45, 71
4, 32592, Note_on_c, 1, 50, 103
4, 32688, Note_on_c, 1, 57, 77
4, 32712, Note_off_c, 1, 57, 77
4, 33016, Note_off_c, 1, 50, 103
4, 33024, Note_on_c, 1, 45, 77
4, 33204, Note_off_c, 1, 45, 77
4, 33216, Note_on_c, 1, 46, 89
4, 33360, Note_on_c, 1, 47, 84
4, 33370, Note_off_c, 1, 46, 89
4, 33456, Note_on_c, 1, 59, 90
4, 33552, Note_on_c, 1, 49, 104
4, 33564, Note_off_c, 1, 47, 84
4, 33574, Note_off_c, 1, 59, 90
4, 33696, Note_on_c, 1, 61, 104
4, 33704, Note_off_c, 1, 49, 104
4, 33744, Note_on_c, 1, 49, 71
4, 33776, Note_off_c, 1, 61, 104
4, 33788, Note_off_c, 1, 49, 71
4, 33792, Note_on_c, 1, 50, 93
4, 33888, Note_on_c, 1, 62, 68
4, 33904, Note_off_c, 1, 62, 68
4, 33936, Note_on_c, 1, 49, 101
4, 33956, Note_off_c, 1, 50, 93
4, 34112, Note_off_c, 1, 49, 101
4, 34128, Note_on_c, 1, 42, 84
4, 34224, Note_on_c, 1, 54, 71
4, 34316, Note_off_c, 1, 42, 84
4, 34320, Note_on_c, 1, 44, 101
4, 34324, Note_off_c, 1, 54, 71
4, 34464, Note_on_c, 1, 56, 82
4, 34486, Note_off_c, 1, 44, 101
4, 34512, Note_on_c, 1, 44, 70
4, 34528, Note_off_c, 1, 56, 82
4, 34558, Note_off_c, 1, 44, 70
4, 34560, Note_on_c, 1, 45, 99
4, 34656, Note_on_c, 1, 57, 95
4, 34682, Note_off_c, 1, 45, 99
4, 34704, Note_on_c, 1, 45, 63
4, 34736, Note_off_c, 1, 45, 63
4, 34752, Note_on_c, 1, 43, 95
4, 34756, Note_off_c, 1, 57, 95
4, 34848, Note_on_c, 1, 55, 70
4, 34864, Note_off_c, 1, 43, 95
4, 34866, Note_off_c, 1, 55, 70
4, 34896, Note_on_c, 1, 42, 99
4, 34992, Note_on_c, 1, 54, 89
4, 35080, Note_off_c, 1, 54, 89
4, 35082, Note_off_c, 1, 42, 99
4, 35088, Note_on_c, 1, 47, 95
4, 35184, Note_on_c, 1, 59, 102
4, 35258, Note_off_c, 1, 47, 95
4, 35280, Note_on_c, 1, 47, 71
4, 35298, Note_off_c, 1, 47, 71
4, 35324, Note_off_c, 1, 59, 102
4, 35328, Note_on_c, 1, 45, 108
4, 35472, Note_on_c, 1, 57, 105
4, 35676, Note_off_c, 1, 45, 108
4, 35712, Note_on_c, 1, 45, 84
4, 35732, Note_off_c, 1, 57, 105
4, 35850, Note_off_c, 1, 45, 84
4, 35856, Note_on_c, 1, 57, 91
4, 36000, Note_on_c, 1, 45, 86
4, 36086, Note_off_c, 1, 57, 91
4, 36094, Note_off_c, 1, 45, 86
4, 36096, Note_on_c, 1, 50, 108
4, 36240, Note_on_c, 1, 43, 110
4, 36242, Note_off_c, 1, 50, 108
4, 36430, Note_off_c, 1, 43, 110
4, 36432, Note_on_c, 1, 49, 82
4, 36600, Note_off_c, 1, 49, 82
4, 36624, Note_on_c, 1, 47, 82
4, 36720, Note_on_c, 1, 59, 71
4, 36760, Note_off_c, 1, 47, 82
4, 36768, Note_on_c, 1, 47, 65
4, 36798, Note_off_c, 1, 59, 71
4, 36838, Note_off_c, 1, 47, 65
4, 36864, Note_on_c, 1, 43, 90
4, 36978, Note_off_c, 1, 43, 90
4, 37008, Note_on_c, 1, 42, 82
4, 37162, Note_off_c, 1, 42, 82
4, 37200, Note_on_c, 1, 43, 88
4, 37356, Note_off_c, 1, 43, 88
4, 37392, Note_on_c, 1, 42, 84
4, 37552, Note_off_c, 1, 42, 84
4, 37584, Note_on_c, 1, 42, 67
4, 37612, Note_off_c, 1, 42, 67
4, 37632, Note_on_c, 1, 50, 100
4, 37764, Note_off_c, 1, 50, 100
4, 37776, Note_on_c, 1, 43, 92
4, 37924, Note_off_c, 1, 43, 92
4, 37968, Note_on_c, 1, 49, 97
4, 38132, Note_off_c, 1, 49, 97
4, 38160, Note_on_c, 1, 47, 93
4, 38294, Note_off_c, 1, 47, 93
4, 38352, Note_on_c, 1, 45, 76
4, 38376, Note_off_c, 1, 45, 76
4, 38400, Note_on_c, 1, 43, 99
4, 38468, Note_off_c, 1, 43, 99
4, 38544, Note_on_c, 1, 42, 93
4, 38630, Note_off_c, 1, 42, 93
4, 38736, Note_on_c, 1, 43, 89
4, 38836, Note_off_c, 1, 43, 89
4, 38928, Note_on_c, 1, 42, 86
4, 39036, Note_off_c, 1, 42, 86
4, 39120, Note_on_c, 1, 43, 94
4, 39266, Note_off_c, 1, 43, 94
4, 39312, Note_on_c, 1, 45, 90
4, 39476, Note_off_c, 1, 45, 90
4, 39504, Note_on_c, 1, 50, 88
4, 39732, Note_off_c, 1, 50, 88
4, 39744, Note_on_c, 1, 43, 91
4, 39814, Note_off_c, 1, 43, 91
4, 39840, Note_on_c, 1, 45, 73
4, 39914, Note_off_c, 1, 45, 73
4, 39936, Note_on_c, 1, 50, 103
4, 40066, Note_off_c, 1, 50, 103
4, 40080, Note_on_c, 1, 43, 108
4, 40218, Note_off_c, 1, 43, 108
4, 40272, Note_on_c, 1, 49, 93
4, 40420, Note_off_c, 1, 49, 93
4, 40464, Note_on_c, 1, 49, 54
4, 40492, Note_off_c, 1, 49, 54
4, 40512, Note_on_c, 1, 47, 78
4, 40638, Note_off_c, 1, 47, 78
4, 40656, Note_on_c, 1, 45, 75
4, 40684, Note_off_c, 1, 45, 75
4, 40704, Note_on_c, 1, 43, 80
4, 40818, Note_off_c, 1, 43, 80
4, 40848, Note_on_c, 1, 42, 93
4, 40994, Note_off_c, 1, 42, 93
4, 41040, Note_on_c, 1, 43, 103
4, 41040, Note_on_c, 1, 43, 89
4, 41048, Note_off_c, 1, 43, 89
4, 41094, Note_off_c, 1, 43, 103
4, 41232, Note_on_c, 1, 42, 97
4, 41378, Note_off_c, 1, 42, 97
4, 41472, Note_on_c, 1, 50, 106
4, 41472, Note_on_c, 1, 42, 88
4, 41486, Note_off_c, 1, 42, 88
4, 41582, Note_off_c, 1, 50, 106
4, 41616, Note_on_c, 1, 43, 106
4, 41744, Note_off_c, 1, 43, 106
4, 41808, Note_on_c, 1, 49, 95
4, 41964, Note_off_c, 1, 49, 95
4, 42000, Note_on_c, 1, 47, 88
4, 42096, Note_off_c, 1, 47, 88
4, 42192, Note_on_c, 1, 45, 82
4, 42220, Note_off_c, 1, 45, 82
4, 42240, Note_on_c, 1, 43, 87
4, 42300, Note_off_c, 1, 43, 87
4, 42384, Note_on_c, 1, 42, 88
4, 42428, Note_off_c, 1, 42, 88
4, 42576, Note_on_c, 1, 43, 94
4, 42622, Note_off_c, 1, 43, 94
4, 42768, Note_on_c, 1, 42, 99
4, 42820, Note_off_c, 1, 42, 99
4, 42960, Note_on_c, 1, 43, 105
4, 42998, Note_off_c, 1, 43, 105
4, 43152, Note_on_c, 1, 45, 100
4, 43318, Note_off_c, 1, 45, 100
4, 43344, Note_on_c, 1, 50, 87
4, 43660, Note_off_c, 1, 50, 87
4, 43680, Note_on_c, 1, 43, 58
4, 43714, Note_off_c, 1, 43, 58
4, 43776, Note_on_c, 1, 45, 83
4, 43928, Note_off_c, 1, 45, 83
4, 43968, Note_on_c, 1, 46, 83
4, 44106, Note_off_c, 1, 46, 83
4, 44112, Note_on_c, 1, 47, 100
4, 44286, Note_off_c, 1, 47, 100
4, 44304, Note_on_c, 1, 49, 99
4, 44400, Note_on_c, 1, 61, 106
4, 44532, Note_off_c, 1, 61, 106
4, 44538, Note_off_c, 1, 49, 99
4, 44544, Note_on_c, 1, 50, 100
4, 44640, Note_on_c, 1, 62, 93
4, 44682, Note_off_c, 1, 50, 100
4, 44688, Note_on_c, 1, 49, 109
4, 44690, Note_off_c, 1, 62, 93
4, 44784, Note_on_c, 1, 61, 116
4, 44870, Note_off_c, 1, 49, 109
4, 44878, Note_off_c, 1, 61, 116
4, 44880, Note_on_c, 1, 43, 114
4, 44880, Note_on_c, 1, 42, 97
4, 44904, Note_off_c, 1, 43, 114
4, 44920, Note_off_c, 1, 42, 97
4, 44976, Note_on_c, 1, 54, 71
4, 45072, Note_on_c, 1, 44, 91
4, 45126, Note_off_c, 1, 54, 71
4, 45214, Note_off_c, 1, 44, 91
4, 45216, Note_on_c, 1, 56, 95
4, 45264, Note_on_c, 1, 44, 72
4, 45300, Note_off_c, 1, 56, 95
4, 45308, Note_off_c, 1, 44, 72
4, 45312, Note_on_c, 1, 45, 103
4, 45408, Note_on_c, 1, 57, 105
4, 45490, Note_off_c, 1, 45, 103
4, 45504, Note_on_c, 1, 43, 92
4, 45522, Note_off_c, 1, 57, 105
4, 45600, Note_on_c, 1, 55, 76
4, 45644, Note_off_c, 1, 43, 92
4, 45648, Note_on_c, 1, 42, 97
4, 45652, Note_off_c, 1, 55, 76
4, 45744, Note_on_c, 1, 54, 89
4, 45840, Note_on_c, 1, 47, 92
4, 45850, Note_off_c, 1, 54, 89
4, 45850, Note_off_c, 1, 42, 97
4, 45936, Note_on_c, 1, 59, 92
4, 46008, Note_off_c, 1, 47, 92
4, 46032, Note_on_c, 1, 47, 66
4, 46066, Note_off_c, 1, 47, 66
4, 46080, Note_on_c, 1, 45, 108
4, 46082, Note_off_c, 1, 59, 92
4, 46220, Note_off_c, 1, 45, 108
4, 46224, Note_on_c, 1, 57, 114
4, 46464, Note_on_c, 1, 45, 96
4, 46568, Note_off_c, 1, 45, 96
4, 46604, Note_off_c, 1, 57, 114
4, 46608, Note_on_c, 1, 45, 72
4, 46614, Note_off_c, 1, 45, 72
4, 46656, Note_on_c, 1, 55, 121
4, 46704, Note_on_c, 1, 54, 73
4, 46718, Note_off_c, 1, 55, 121
4, 46742, Note_off_c, 1, 54, 73
4, 46752, Note_on_c, 1, 50, 75
4, 46800, Note_on_c, 1, 52, 82
4, 46812, Note_off_c, 1, 50, 75
4, 46846, Note_off_c, 1, 52, 82
4, 46848, Note_on_c, 1, 50, 108
4, 46980, Note_off_c, 1, 50, 108
4, 46992, Note_on_c, 1, 43, 103
4, 47154, Note_off_c, 1, 43, 103
4, 47184, Note_on_c, 1, 49, 95
4, 47344, Note_off_c, 1, 49, 95
4, 47376, Note_on_c, 1, 47, 75
4, 47514, Note_off_c, 1, 47, 75
4, 47568, Note_on_c, 1, 45, 75
4, 47586, Note_off_c, 1, 45, 75
4, 47616, Note_on_c, 1, 43, 82
4, 47722, Note_off_c, 1, 43, 82
4, 47760, Note_on_c, 1, 42, 101
4, 47902, Note_off_c, 1, 42, 101
4, 47952, Note_on_c, 1, 43, 88
4, 48102, Note_off_c, 1, 43, 88
4, 48144, Note_on_c, 1, 42, 104
4, 48302, Note_off_c, 1, 42, 104
4, 48336, Note_on_c, 1, 43, 69
4, 48354, Note_off_c, 1, 43, 69
4, 48384, Note_on_c, 1, 50, 94
4, 48518, Note_off_c, 1, 50, 94
4, 48528, Note_on_c, 1, 43, 88
4, 48684, Note_off_c, 1, 43, 88
4, 48720, Note_on_c, 1, 49, 95
4, 48900, Note_off_c, 1, 49, 95
4, 48912, Note_on_c, 1, 47, 84
4, 49056, Note_off_c, 1, 47, 84
4, 49104, Note_on_c, 1, 45, 73
4, 49136, Note_off_c, 1, 45, 73
4, 49152, Note_on_c, 1, 43, 80
4, 49250, Note_off_c, 1, 43, 80
4, 49296, Note_on_c, 1, 42, 99
4, 49356, Note_off_c, 1, 42, 99
4, 49488, Note_on_c, 1, 43, 100
4, 49532, Note_off_c, 1, 43, 100
4, 49680, Note_on_c, 1, 42, 83
4, 49726, Note_off_c, 1, 42, 83
4, 49872, Note_on_c, 1, 43, 94
4, 49932, Note_off_c, 1, 43, 94
4, 50064, Note_on_c, 1, 45, 103
4, 50256, Note_on_c, 1, 50, 93
4, 50272, Note_off_c, 1, 45, 103
4, 50536, Note_off_c, 1, 50, 93
4, 50688, Note_on_c, 1, 55, 86
4, 50688, Note_on_c, 1, 43, 86
4, 50688, Note_on_c, 1, 62, 82
4, 50742, Note_off_c, 1, 55, 86
4, 50746, Note_off_c, 1, 62, 82
4, 50750, Note_off_c, 1, 43, 86
4, 50832, Note_on_c, 1, 54, 88
4, 50832, Note_on_c, 1, 61, 84
4, 50832, Note_on_c, 1, 42, 75
4, 50906, Note_off_c, 1, 54, 88
4, 50910, Note_off_c, 1, 61, 84
4, 50916, Note_off_c, 1, 42, 75
4, 51024, Note_on_c, 1, 50, 66
4, 51024, Note_on_c, 1, 62, 86
4, 51024, Note_on_c, 1, 57, 81
4, 51024, Note_on_c, 1, 43, 81
4, 51048, Note_off_c, 1, 50, 66
4, 51096, Note_off_c, 1, 62, 86
4, 51098, Note_off_c, 1, 43, 81
4, 51100, Note_off_c, 1, 57, 81
4, 51216, Note_on_c, 1, 54, 79
4, 51216, Note_on_c, 1, 61, 86
4, 51216, Note_on_c, 1, 42, 84
4, 51274, Note_off_c, 1, 54, 79
4, 51278, Note_off_c, 1, 61, 86
4, 51290, Note_off_c, 1, 42, 84
4, 51408, Note_on_c, 1, 59, 82
4, 51408, Note_on_c, 1, 54, 78
4, 51408, Note_on_c, 1, 43, 80
4, 51484, Note_off_c, 1, 54, 78
4, 51484, Note_off_c, 1, 59, 82
4, 51490, Note_off_c, 1, 43, 80
4, 51600, Note_on_c, 1, 57, 73
4, 51600, Note_on_c, 1, 52, 75
4, 51600, Note_on_c, 1, 45, 82
4, 51746, Note_off_c, 1, 52, 75
4, 51752, Note_off_c, 1, 57, 73
4, 51762, Note_off_c, 1, 45, 82
4, 51792, Note_on_c, 1, 50, 98
4, 51936, Note_on_c, 1, 62, 86
4, 51936, Note_on_c, 1, 54, 78
4, 52706, Note_off_c, 1, 50, 98
4, 52718, Note_off_c, 1, 54, 78
4, 52718, Note_off_c, 1, 62, 86
4, 52718, End_track
5, 0, Start_track
5, 0, Text_t, "bassdrum  "
5, 768, Note_on_c, 9, 36, 88
5, 784, Note_off_c, 9, 36, 88
5, 1296, Note_on_c, 9, 36, 60
5, 1312, Note_off_c, 9, 36, 60
5, 1488, Note_on_c, 9, 36, 60
5, 1504, Note_off_c, 9, 36, 60
5, 1536, Note_on_c, 9, 36, 88
5, 1550, Note_off_c, 9, 36, 88
5, 1872, Note_on_c, 9, 36, 88
5, 1886, Note_off_c, 9, 36, 88
5, 2064, Note_on_c, 9, 36, 60
5, 2080, Note_off_c, 9, 36, 60
5, 2256, Note_on_c, 9, 36, 60
5, 2272, Note_off_c, 9, 36, 60
5, 2304, Note_on_c, 9, 36, 88
5, 2320, Note_off_c, 9, 36, 88
5, 3024, Note_on_c, 9, 36, 60
5, 3040, Note_off_c, 9, 36, 60
5, 3072, Note_on_c, 9, 36, 88
5, 3088, Note_off_c, 9, 36, 88
5, 3408, Note_on_c, 9, 36, 88
5, 3426, Note_off_c, 9, 36, 88
5, 3600, Note_on_c, 9, 36, 60
5, 3614, Note_off_c, 9, 36, 60
5, 3792, Note_on_c, 9, 36, 60
5, 3808, Note_off_c, 9, 36, 60
5, 3840, Note_on_c, 9, 36, 88
5, 3856, Note_off_c, 9, 36, 88
5, 4176, Note_on_c, 9, 36, 88
5, 4192, Note_off_c, 9, 36, 88
5, 4560, Note_on_c, 9, 36, 60
5, 4576, Note_off_c, 9, 36, 60
5, 4608, Note_on_c, 9, 36, 88
5, 4624, Note_off_c, 9, 36, 88
5, 4944, Note_on_c, 9, 36, 88
5, 4958, Note_off_c, 9, 36, 88
5, 5136, Note_on_c, 9, 36, 48
5, 5152, Note_off_c, 9, 36, 48
5, 5328, Note_on_c, 9, 36, 60
5, 5346, Note_off_c, 9, 36, 60
5, 5376, Note_on_c, 9, 36, 88
5, 5392, Note_off_c, 9, 36, 88
5, 5520, Note_on_c, 9, 36, 74
5, 5534, Note_off_c, 9, 36, 74
5, 5712, Note_on_c, 9, 36, 88
5, 5726, Note_off_c, 9, 36, 88
5, 5904, Note_on_c, 9, 36, 60
5, 5920, Note_off_c, 9, 36, 60
5, 6096, Note_on_c, 9, 36, 60
5, 6110, Note_off_c, 9, 36, 60
5, 6144, Note_on_c, 9, 36, 92
5, 6160, Note_off_c, 9, 36, 92
5, 6288, Note_on_c, 9, 36, 74
5, 6306, Note_off_c, 9, 36, 74
5, 6480, Note_on_c, 9, 36, 88
5, 6496, Note_off_c, 9, 36, 88
5, 6672, Note_on_c, 9, 36, 60
5, 6686, Note_off_c, 9, 36, 60
5, 6864, Note_on_c, 9, 36, 60
5, 6882, Note_off_c, 9, 36, 60
5, 6912, Note_on_c, 9, 36, 88
5, 6928, Note_off_c, 9, 36, 88
5, 7056, Note_on_c, 9, 36, 74
5, 7070, Note_off_c, 9, 36, 74
5, 7248, Note_on_c, 9, 36, 88
5, 7266, Note_off_c, 9, 36, 88
5, 7440, Note_on_c, 9, 36, 60
5, 7456, Note_off_c, 9, 36, 60
5, 7632, Note_on_c, 9, 36, 60
5, 7648, Note_off_c, 9, 36, 60
5, 7680, Note_on_c, 9, 36, 88
5, 7696, Note_off_c, 9, 36, 88
5, 8016, Note_on_c, 9, 36, 88
5, 8030, Note_off_c, 9, 36, 88
5, 8208, Note_on_c, 9, 36, 60
5, 8224, Note_off_c, 9, 36, 60
5, 8400, Note_on_c, 9, 36, 60
5, 8416, Note_off_c, 9, 36, 60
5, 8448, Note_on_c, 9, 36, 88
5, 8464, Note_off_c, 9, 36, 88
5, 8832, Note_on_c, 9, 36, 88
5, 8850, Note_off_c, 9, 36, 88
5, 9168, Note_on_c, 9, 36, 60
5, 9184, Note_off_c, 9, 36, 60
5, 9216, Note_on_c, 9, 36, 88
5, 9230, Note_off_c, 9, 36, 88
5, 9552, Note_on_c, 9, 36, 88
5, 9566, Note_off_c, 9, 36, 88
5, 9936, Note_on_c, 9, 36, 60
5, 9952, Note_off_c, 9, 36, 60
5, 9984, Note_on_c, 9, 36, 88
5, 10000, Note_off_c, 9, 36, 88
5, 10128, Note_on_c, 9, 36, 74
5, 10142, Note_off_c, 9, 36, 74
5, 10320, Note_on_c, 9, 36, 88
5, 10336, Note_off_c, 9, 36, 88
5, 10512, Note_on_c, 9, 36, 60
5, 10526, Note_off_c, 9, 36, 60
5, 10704, Note_on_c, 9, 36, 60
5, 10720, Note_off_c, 9, 36, 60
5, 10752, Note_on_c, 9, 36, 92
5, 10768, Note_off_c, 9, 36, 92
5, 10896, Note_on_c, 9, 36, 76
5, 10912, Note_off_c, 9, 36, 76
5, 11088, Note_on_c, 9, 36, 92
5, 11102, Note_off_c, 9, 36, 92
5, 11280, Note_on_c, 9, 36, 60
5, 11296, Note_off_c, 9, 36, 60
5, 11472, Note_on_c, 9, 36, 60
5, 11486, Note_off_c, 9, 36, 60
5, 11520, Note_on_c, 9, 36, 88
5, 11534, Note_off_c, 9, 36, 88
5, 11664, Note_on_c, 9, 36, 74
5, 11680, Note_off_c, 9, 36, 74
5, 11856, Note_on_c, 9, 36, 88
5, 11872, Note_off_c, 9, 36, 88
5, 12048, Note_on_c, 9, 36, 60
5, 12062, Note_off_c, 9, 36, 60
5, 12240, Note_on_c, 9, 36, 60
5, 12258, Note_off_c, 9, 36, 60
5, 12288, Note_on_c, 9, 36, 88
5, 12306, Note_off_c, 9, 36, 88
5, 12624, Note_on_c, 9, 36, 88
5, 12640, Note_off_c, 9, 36, 88
5, 12816, Note_on_c, 9, 36, 60
5, 12832, Note_off_c, 9, 36, 60
5, 13008, Note_on_c, 9, 36, 60
5, 13022, Note_off_c, 9, 36, 60
5, 13056, Note_on_c, 9, 36, 88
5, 13070, Note_off_c, 9, 36, 88
5, 13392, Note_on_c, 9, 36, 88
5, 13408, Note_off_c, 9, 36, 88
5, 13584, Note_on_c, 9, 36, 60
5, 13600, Note_off_c, 9, 36, 60
5, 13776, Note_on_c, 9, 36, 60
5, 13792, Note_off_c, 9, 36, 60
5, 13824, Note_on_c, 9, 36, 88
5, 13840, Note_off_c, 9, 36, 88
5, 14352, Note_on_c, 9, 36, 60
5, 14366, Note_off_c, 9, 36, 60
5, 14544, Note_on_c, 9, 36, 60
5, 14558, Note_off_c, 9, 36, 60
5, 14592, Note_on_c, 9, 36, 88
5, 14606, Note_off_c, 9, 36, 88
5, 15120, Note_on_c, 9, 36, 60
5, 15136, Note_off_c, 9, 36, 60
5, 15360, Note_on_c, 9, 36, 88
5, 15378, Note_off_c, 9, 36, 88
5, 15888, Note_on_c, 9, 36, 60
5, 15902, Note_off_c, 9, 36, 60
5, 16080, Note_on_c, 9, 36, 60
5, 16096, Note_off_c, 9, 36, 60
5, 16128, Note_on_c, 9, 36, 88
5, 16142, Note_off_c, 9, 36, 88
5, 16464, Note_on_c, 9, 36, 92
5, 16478, Note_off_c, 9, 36, 92
5, 16656, Note_on_c, 9, 36, 60
5, 16674, Note_off_c, 9, 36, 60
5, 16848, Note_on_c, 9, 36, 60
5, 16864, Note_off_c, 9, 36, 60
5, 16896, Note_on_c, 9, 36, 88
5, 16910, Note_off_c, 9, 36, 88
5, 17040, Note_on_c, 9, 36, 74
5, 17056, Note_off_c, 9, 36, 74
5, 17232, Note_on_c, 9, 36, 88
5, 17248, Note_off_c, 9, 36, 88
5, 17424, Note_on_c, 9, 36, 60
5, 17438, Note_off_c, 9, 36, 60
5, 17616, Note_on_c, 9, 36, 60
5, 17634, Note_off_c, 9, 36, 60
5, 17664, Note_on_c, 9, 36, 88
5, 17680, Note_off_c, 9, 36, 88
5, 17808, Note_on_c, 9, 36, 74
5, 17824, Note_off_c, 9, 36, 74
5, 18000, Note_on_c, 9, 36, 88
5, 18016, Note_off_c, 9, 36, 88
5, 18192, Note_on_c, 9, 36, 60
5, 18208, Note_off_c, 9, 36, 60
5, 18384, Note_on_c, 9, 36, 60
5, 18398, Note_off_c, 9, 36, 60
5, 18432, Note_on_c, 9, 36, 92
5, 18448, Note_off_c, 9, 36, 92
5, 18768, Note_on_c, 9, 36, 88
5, 18784, Note_off_c, 9, 36, 88
5, 19152, Note_on_c, 9, 36, 60
5, 19168, Note_off_c, 9, 36, 60
5, 19200, Note_on_c, 9, 36, 88
5, 19216, Note_off_c, 9, 36, 88
5, 19344, Note_on_c, 9, 36, 74
5, 19360, Note_off_c, 9, 36, 74
5, 19536, Note_on_c, 9, 36, 88
5, 19554, Note_off_c, 9, 36, 88
5, 19728, Note_on_c, 9, 36, 60
5, 19744, Note_off_c, 9, 36, 60
5, 19920, Note_on_c, 9, 36, 60
5, 19934, Note_off_c, 9, 36, 60
5, 19968, Note_on_c, 9, 36, 88
5, 19984, Note_off_c, 9, 36, 88
5, 20112, Note_on_c, 9, 36, 74
5, 20128, Note_off_c, 9, 36, 74
5, 20304, Note_on_c, 9, 36, 88
5, 20320, Note_off_c, 9, 36, 88
5, 20496, Note_on_c, 9, 36, 60
5, 20512, Note_off_c, 9, 36, 60
5, 20688, Note_on_c, 9, 36, 60
5, 20702, Note_off_c, 9, 36, 60
5, 20736, Note_on_c, 9, 36, 92
5, 20752, Note_off_c, 9, 36, 92
5, 20880, Note_on_c, 9, 36, 76
5, 20894, Note_off_c, 9, 36, 76
5, 21072, Note_on_c, 9, 36, 88
5, 21090, Note_off_c, 9, 36, 88
5, 21264, Note_on_c, 9, 36, 60
5, 21280, Note_off_c, 9, 36, 60
5, 21456, Note_on_c, 9, 36, 60
5, 21470, Note_off_c, 9, 36, 60
5, 21504, Note_on_c, 9, 36, 88
5, 21518, Note_off_c, 9, 36, 88
5, 21648, Note_on_c, 9, 36, 74
5, 21664, Note_off_c, 9, 36, 74
5, 22224, Note_on_c, 9, 36, 60
5, 22240, Note_off_c, 9, 36, 60
5, 22272, Note_on_c, 9, 36, 88
5, 22288, Note_off_c, 9, 36, 88
5, 22416, Note_on_c, 9, 36, 74
5, 22432, Note_off_c, 9, 36, 74
5, 22608, Note_on_c, 9, 36, 88
5, 22626, Note_off_c, 9, 36, 88
5, 22800, Note_on_c, 9, 36, 60
5, 22814, Note_off_c, 9, 36, 60
5, 22992, Note_on_c, 9, 36, 60
5, 23008, Note_off_c, 9, 36, 60
5, 23040, Note_on_c, 9, 36, 88
5, 23054, Note_off_c, 9, 36, 88
5, 23760, Note_on_c, 9, 36, 60
5, 23776, Note_off_c, 9, 36, 60
5, 23808, Note_on_c, 9, 36, 92
5, 23824, Note_off_c, 9, 36, 92
5, 24144, Note_on_c, 9, 36, 88
5, 24160, Note_off_c, 9, 36, 88
5, 24336, Note_on_c, 9, 36, 60
5, 24350, Note_off_c, 9, 36, 60
5, 24528, Note_on_c, 9, 36, 60
5, 24546, Note_off_c, 9, 36, 60
5, 24576, Note_on_c, 9, 36, 88
5, 24594, Note_off_c, 9, 36, 88
5, 24720, Note_on_c, 9, 36, 74
5, 24734, Note_off_c, 9, 36, 74
5, 24912, Note_on_c, 9, 36, 88
5, 24930, Note_off_c, 9, 36, 88
5, 25296, Note_on_c, 9, 36, 60
5, 25310, Note_off_c, 9, 36, 60
5, 25344, Note_on_c, 9, 36, 88
5, 25360, Note_off_c, 9, 36, 88
5, 25680, Note_on_c, 9, 36, 92
5, 25696, Note_off_c, 9, 36, 92
5, 25872, Note_on_c, 9, 36, 60
5, 25890, Note_off_c, 9, 36, 60
5, 26064, Note_on_c, 9, 36, 60
5, 26080, Note_off_c, 9, 36, 60
5, 26112, Note_on_c, 9, 36, 88
5, 26130, Note_off_c, 9, 36, 88
5, 26448, Note_on_c, 9, 36, 92
5, 26466, Note_off_c, 9, 36, 92
5, 26640, Note_on_c, 9, 36, 60
5, 26656, Note_off_c, 9, 36, 60
5, 26832, Note_on_c, 9, 36, 60
5, 26846, Note_off_c, 9, 36, 60
5, 26880, Note_on_c, 9, 36, 88
5, 26894, Note_off_c, 9, 36, 88
5, 27408, Note_on_c, 9, 36, 60
5, 27424, Note_off_c, 9, 36, 60
5, 27600, Note_on_c, 9, 36, 60
5, 27616, Note_off_c, 9, 36, 60
5, 27648, Note_on_c, 9, 36, 88
5, 27666, Note_off_c, 9, 36, 88
5, 27792, Note_on_c, 9, 36, 74
5, 27806, Note_off_c, 9, 36, 74
5, 27984, Note_on_c, 9, 36, 88
5, 28002, Note_off_c, 9, 36, 88
5, 28176, Note_on_c, 9, 36, 60
5, 28192, Note_off_c, 9, 36, 60
5, 28368, Note_on_c, 9, 36, 60
5, 28384, Note_off_c, 9, 36, 60
5, 28416, Note_on_c, 9, 36, 88
5, 28430, Note_off_c, 9, 36, 88
5, 28560, Note_on_c, 9, 36, 74
5, 28576, Note_off_c, 9, 36, 74
5, 28752, Note_on_c, 9, 36, 88
5, 28766, Note_off_c, 9, 36, 88
5, 28944, Note_on_c, 9, 36, 60
5, 28960, Note_off_c, 9, 36, 60
5, 29136, Note_on_c, 9, 36, 60
5, 29150, Note_off_c, 9, 36, 60
5, 29184, Note_on_c, 9, 36, 88
5, 29200, Note_off_c, 9, 36, 88
5, 29904, Note_on_c, 9, 36, 60
5, 29922, Note_off_c, 9, 36, 60
5, 29952, Note_on_c, 9, 36, 88
5, 29968, Note_off_c, 9, 36, 88
5, 30480, Note_on_c, 9, 36, 60
5, 30498, Note_off_c, 9, 36, 60
5, 30672, Note_on_c, 9, 36, 60
5, 30686, Note_off_c, 9, 36, 60
5, 30720, Note_on_c, 9, 36, 88
5, 30736, Note_off_c, 9, 36, 88
5, 31248, Note_on_c, 9, 36, 60
5, 31260, Note_off_c, 9, 36, 60
5, 31440, Note_on_c, 9, 36, 60
5, 31458, Note_off_c, 9, 36, 60
5, 31488, Note_on_c, 9, 36, 88
5, 31504, Note_off_c, 9, 36, 88
5, 31632, Note_on_c, 9, 36, 74
5, 31646, Note_off_c, 9, 36, 74
5, 31824, Note_on_c, 9, 36, 88
5, 31840, Note_off_c, 9, 36, 88
5, 32016, Note_on_c, 9, 36, 60
5, 32032, Note_off_c, 9, 36, 60
5, 32208, Note_on_c, 9, 36, 60
5, 32222, Note_off_c, 9, 36, 60
5, 32256, Note_on_c, 9, 36, 92
5, 32272, Note_off_c, 9, 36, 92
5, 32400, Note_on_c, 9, 36, 76
5, 32418, Note_off_c, 9, 36, 76
5, 32592, Note_on_c, 9, 36, 88
5, 32608, Note_off_c, 9, 36, 88
5, 32976, Note_on_c, 9, 36, 60
5, 32992, Note_off_c, 9, 36, 60
5, 33024, Note_on_c, 9, 36, 92
5, 33040, Note_off_c, 9, 36, 92
5, 33360, Note_on_c, 9, 36, 88
5, 33376, Note_off_c, 9, 36, 88
5, 33744, Note_on_c, 9, 36, 60
5, 33756, Note_off_c, 9, 36, 60
5, 33792, Note_on_c, 9, 36, 88
5, 33808, Note_off_c, 9, 36, 88
5, 33936, Note_on_c, 9, 36, 74
5, 33952, Note_off_c, 9, 36, 74
5, 34512, Note_on_c, 9, 36, 60
5, 34528, Note_off_c, 9, 36, 60
5, 34560, Note_on_c, 9, 36, 88
5, 34576, Note_off_c, 9, 36, 88
5, 34896, Note_on_c, 9, 36, 88
5, 34912, Note_off_c, 9, 36, 88
5, 35088, Note_on_c, 9, 36, 60
5, 35102, Note_off_c, 9, 36, 60
5, 35280, Note_on_c, 9, 36, 60
5, 35296, Note_off_c, 9, 36, 60
5, 35328, Note_on_c, 9, 36, 88
5, 35342, Note_off_c, 9, 36, 88
5, 35472, Note_on_c, 9, 36, 74
5, 35488, Note_off_c, 9, 36, 74
5, 36048, Note_on_c, 9, 36, 60
5, 36064, Note_off_c, 9, 36, 60
5, 36096, Note_on_c, 9, 36, 88
5, 36112, Note_off_c, 9, 36, 88
5, 36432, Note_on_c, 9, 36, 88
5, 36446, Note_off_c, 9, 36, 88
5, 36624, Note_on_c, 9, 36, 60
5, 36638, Note_off_c, 9, 36, 60
5, 36816, Note_on_c, 9, 36, 60
5, 36832, Note_off_c, 9, 36, 60
5, 36864, Note_on_c, 9, 36, 92
5, 36880, Note_off_c, 9, 36, 92
5, 37392, Note_on_c, 9, 36, 60
5, 37410, Note_off_c, 9, 36, 60
5, 37584, Note_on_c, 9, 36, 60
5, 37598, Note_off_c, 9, 36, 60
5, 37632, Note_on_c, 9, 36, 88
5, 37646, Note_off_c, 9, 36, 88
5, 38160, Note_on_c, 9, 36, 60
5, 38176, Note_off_c, 9, 36, 60
5, 38352, Note_on_c, 9, 36, 60
5, 38368, Note_off_c, 9, 36, 60
5, 38400, Note_on_c, 9, 36, 92
5, 38418, Note_off_c, 9, 36, 92
5, 38544, Note_on_c, 9, 36, 74
5, 38558, Note_off_c, 9, 36, 74
5, 38736, Note_on_c, 9, 36, 88
5, 38754, Note_off_c, 9, 36, 88
5, 38928, Note_on_c, 9, 36, 60
5, 38944, Note_off_c, 9, 36, 60
5, 39120, Note_on_c, 9, 36, 60
5, 39134, Note_off_c, 9, 36, 60
5, 39168, Note_on_c, 9, 36, 92
5, 39184, Note_off_c, 9, 36, 92
5, 39312, Note_on_c, 9, 36, 76
5, 39330, Note_off_c, 9, 36, 76
5, 39504, Note_on_c, 9, 36, 88
5, 39518, Note_off_c, 9, 36, 88
5, 39696, Note_on_c, 9, 36, 60
5, 39712, Note_off_c, 9, 36, 60
5, 39888, Note_on_c, 9, 36, 60
5, 39904, Note_off_c, 9, 36, 60
5, 39936, Note_on_c, 9, 36, 88
5, 39952, Note_off_c, 9, 36, 88
5, 40656, Note_on_c, 9, 36, 60
5, 40670, Note_off_c, 9, 36, 60
5, 40704, Note_on_c, 9, 36, 88
5, 40718, Note_off_c, 9, 36, 88
5, 41232, Note_on_c, 9, 36, 60
5, 41250, Note_off_c, 9, 36, 60
5, 41424, Note_on_c, 9, 36, 60
5, 41440, Note_off_c, 9, 36, 60
5, 41472, Note_on_c, 9, 36, 92
5, 41488, Note_off_c, 9, 36, 92
5, 42000, Note_on_c, 9, 36, 60
5, 42016, Note_off_c, 9, 36, 60
5, 42192, Note_on_c, 9, 36, 60
5, 42210, Note_off_c, 9, 36, 60
5, 42240, Note_on_c, 9, 36, 88
5, 42254, Note_off_c, 9, 36, 88
5, 42384, Note_on_c, 9, 36, 76
5, 42400, Note_off_c, 9, 36, 76
5, 42768, Note_on_c, 9, 36, 60
5, 42784, Note_off_c, 9, 36, 60
5, 42960, Note_on_c, 9, 36, 60
5, 42976, Note_off_c, 9, 36, 60
5, 43008, Note_on_c, 9, 36, 88
5, 43024, Note_off_c, 9, 36, 88
5, 43152, Note_on_c, 9, 36, 74
5, 43170, Note_off_c, 9, 36, 74
5, 43344, Note_on_c, 9, 36, 88
5, 43360, Note_off_c, 9, 36, 88
5, 43728, Note_on_c, 9, 36, 60
5, 43746, Note_off_c, 9, 36, 60
5, 43776, Note_on_c, 9, 36, 88
5, 43792, Note_off_c, 9, 36, 88
5, 44304, Note_on_c, 9, 36, 60
5, 44320, Note_off_c, 9, 36, 60
5, 44496, Note_on_c, 9, 36, 60
5, 44510, Note_off_c, 9, 36, 60
5, 44544, Note_on_c, 9, 36, 88
5, 44560, Note_off_c, 9, 36, 88
5, 45072, Note_on_c, 9, 36, 60
5, 45086, Note_off_c, 9, 36, 60
5, 45264, Note_on_c, 9, 36, 60
5, 45280, Note_off_c, 9, 36, 60
5, 45312, Note_on_c, 9, 36, 88
5, 45330, Note_off_c, 9, 36, 88
5, 45648, Note_on_c, 9, 36, 88
5, 45666, Note_off_c, 9, 36, 88
5, 45840, Note_on_c, 9, 36, 60
5, 45856, Note_off_c, 9, 36, 60
5, 46032, Note_on_c, 9, 36, 60
5, 46048, Note_off_c, 9, 36, 60
5, 46080, Note_on_c, 9, 36, 88
5, 46094, Note_off_c, 9, 36, 88
5, 46224, Note_on_c, 9, 36, 74
5, 46242, Note_off_c, 9, 36, 74
5, 46416, Note_on_c, 9, 36, 88
5, 46430, Note_off_c, 9, 36, 88
5, 46608, Note_on_c, 9, 36, 60
5, 46624, Note_off_c, 9, 36, 60
5, 46800, Note_on_c, 9, 36, 60
5, 46816, Note_off_c, 9, 36, 60
5, 46848, Note_on_c, 9, 36, 88
5, 46864, Note_off_c, 9, 36, 88
5, 47376, Note_on_c, 9, 36, 60
5, 47392, Note_off_c, 9, 36, 60
5, 47568, Note_on_c, 9, 36, 60
5, 47586, Note_off_c, 9, 36, 60
5, 47616, Note_on_c, 9, 36, 88
5, 47630, Note_off_c, 9, 36, 88
5, 48144, Note_on_c, 9, 36, 60
5, 48160, Note_off_c, 9, 36, 60
5, 48336, Note_on_c, 9, 36, 60
5, 48352, Note_off_c, 9, 36, 60
5, 48384, Note_on_c, 9, 36, 88
5, 48400, Note_off_c, 9, 36, 88
5, 48720, Note_on_c, 9, 36, 88
5, 48736, Note_off_c, 9, 36, 88
5, 49104, Note_on_c, 9, 36, 60
5, 49122, Note_off_c, 9, 36, 60
5, 49152, Note_on_c, 9, 36, 88
5, 49168, Note_off_c, 9, 36, 88
5, 49872, Note_on_c, 9, 36, 60
5, 49888, Note_off_c, 9, 36, 60
5, 49920, Note_on_c, 9, 36, 88
5, 49936, Note_off_c, 9, 36, 88
5, 50064, Note_on_c, 9, 36, 74
5, 50082, Note_off_c, 9, 36, 74
5, 50256, Note_on_c, 9, 36, 88
5, 50272, Note_off_c, 9, 36, 88
5, 50640, Note_on_c, 9, 36, 60
5, 50658, Note_off_c, 9, 36, 60
5, 50688, Note_on_c, 9, 36, 88
5, 50704, Note_off_c, 9, 36, 88
5, 50832, Note_on_c, 9, 36, 74
5, 50846, Note_off_c, 9, 36, 74
5, 51024, Note_on_c, 9, 36, 88
5, 51042, Note_off_c, 9, 36, 88
5, 51216, Note_on_c, 9, 36, 60
5, 51232, Note_off_c, 9, 36, 60
5, 51408, Note_on_c, 9, 36, 60
5, 51422, Note_off_c, 9, 36, 60
5, 51456, Note_on_c, 9, 36, 88
5, 51472, Note_off_c, 9, 36, 88
5, 51600, Note_on_c, 9, 36, 74
5, 51616, Note_off_c, 9, 36, 74
5, 51792, Note_on_c, 9, 36, 88
5, 51806, Note_off_c, 9, 36, 88
5, 51936, Note_on_c, 9, 36, 60
5, 51952, Note_off_c, 9, 36, 60
5, 51952, End_track
6, 0, Start_track
6, 0, Text_t, "snaredrum "
6, 2208, Note_on_c, 9, 38, 34
6, 2218, Note_off_c, 9, 38, 34
6, 3696, Note_on_c, 9, 38, 57
6, 3714, Note_off_c, 9, 38, 57
6, 3744, Note_on_c, 9, 38, 88
6, 3778, Note_off_c, 9, 38, 88
6, 6048, Note_on_c, 9, 38, 60
6, 6074, Note_off_c, 9, 38, 60
6, 7584, Note_on_c, 9, 38, 42
6, 7600, Note_off_c, 9, 38, 42
6, 9120, Note_on_c, 9, 38, 19
6, 9136, Note_off_c, 9, 38, 19
6, 11424, Note_on_c, 9, 38, 52
6, 11438, Note_off_c, 9, 38, 52
6, 12192, Note_on_c, 9, 38, 46
6, 12216, Note_off_c, 9, 38, 46
6, 12960, Note_on_c, 9, 40, 24
6, 12994, Note_off_c, 9, 40, 24
6, 14496, Note_on_c, 9, 40, 55
6, 14524, Note_off_c, 9, 40, 55
6, 15072, Note_on_c, 9, 40, 53
6, 15086, Note_off_c, 9, 40, 53
6, 15264, Note_on_c, 9, 40, 41
6, 15280, Note_off_c, 9, 40, 41
6, 15984, Note_on_c, 9, 40, 55
6, 16000, Note_off_c, 9, 40, 55
6, 16032, Note_on_c, 9, 40, 56
6, 16048, Note_off_c, 9, 40, 56
6, 18336, Note_on_c, 9, 40, 61
6, 18358, Note_off_c, 9, 40, 61
6, 19488, Note_on_c, 9, 40, 43
6, 19516, Note_off_c, 9, 40, 43
6, 20256, Note_on_c, 9, 40, 33
6, 20266, Note_off_c, 9, 40, 33
6, 20640, Note_on_c, 9, 40, 32
6, 20674, Note_off_c, 9, 40, 32
6, 21408, Note_on_c, 9, 40, 47
6, 21434, Note_off_c, 9, 40, 47
6, 22752, Note_on_c, 9, 40, 31
6, 22768, Note_off_c, 9, 40, 31
6, 23136, Note_on_c, 9, 40, 39
6, 23150, Note_off_c, 9, 40, 39
6, 23712, Note_on_c, 9, 40, 48
6, 23732, Note_off_c, 9, 40, 48
6, 24480, Note_on_c, 9, 40, 58
6, 24500, Note_off_c, 9, 40, 58
6, 25248, Note_on_c, 9, 40, 54
6, 25274, Note_off_c, 9, 40, 54
6, 25440, Note_on_c, 9, 40, 49
6, 25450, Note_off_c, 9, 40, 49
6, 26016, Note_on_c, 9, 40, 52
6, 26040, Note_off_c, 9, 40, 52
6, 26208, Note_on_c, 9, 40, 46
6, 26220, Note_off_c, 9, 40, 46
6, 26784, Note_on_c, 9, 40, 34
6, 26802, Note_off_c, 9, 40, 34
6, 27552, Note_on_c, 9, 40, 44
6, 27560, Note_off_c, 9, 40, 44
6, 32160, Note_on_c, 9, 40, 55
6, 32182, Note_off_c, 9, 40, 55
6, 34464, Note_on_c, 9, 40, 31
6, 34484, Note_off_c, 9, 40, 31
6, 36000, Note_on_c, 9, 40, 31
6, 36016, Note_off_c, 9, 40, 31
6, 36768, Note_on_c, 9, 40, 33
6, 36790, Note_off_c, 9, 40, 33
6, 37536, Note_on_c, 9, 40, 43
6, 37548, Note_off_c, 9, 40, 43
6, 39840, Note_on_c, 9, 40, 43
6, 39854, Note_off_c, 9, 40, 43
6, 40608, Note_on_c, 9, 40, 49
6, 40624, Note_off_c, 9, 40, 49
6, 41376, Note_on_c, 9, 40, 74
6, 41386, Note_off_c, 9, 40, 74
6, 42144, Note_on_c, 9, 40, 50
6, 42160, Note_off_c, 9, 40, 50
6, 43680, Note_on_c, 9, 40, 48
6, 43708, Note_off_c, 9, 40, 48
6, 45216, Note_on_c, 9, 40, 57
6, 45230, Note_off_c, 9, 40, 57
6, 47520, Note_on_c, 9, 40, 38
6, 47534, Note_off_c, 9, 40, 38
6, 48288, Note_on_c, 9, 40, 43
6, 48302, Note_off_c, 9, 40, 43
6, 49056, Note_on_c, 9, 40, 37
6, 49066, Note_off_c, 9, 40, 37
6, 50592, Note_on_c, 9, 40, 43
6, 50612, Note_off_c, 9, 40, 43
6, 50784, Note_on_c, 9, 40, 40
6, 50798, Note_off_c, 9, 40, 40
6, 50798, End_track
7, 0, Start_track
7, 0, Text_t, "ride      "
7, 768, Note_on_c, 9, 51, 47
7, 780, Note_off_c, 9, 51, 47
7, 864, Note_on_c, 9, 51, 26
7, 878, Note_off_c, 9, 51, 26
7, 912, Note_on_c, 9, 51, 44
7, 936, Note_off_c, 9, 51, 44
7, 1008, Note_on_c, 9, 51, 21
7, 1026, Note_off_c, 9, 51, 21
7, 1056, Note_on_c, 9, 51, 26
7, 1076, Note_off_c, 9, 51, 26
7, 1104, Note_on_c, 9, 51, 51
7, 1174, Note_off_c, 9, 51, 51
7, 1200, Note_on_c, 9, 51, 24
7, 1220, Note_off_c, 9, 51, 24
7, 1248, Note_on_c, 9, 51, 22
7, 1278, Note_off_c, 9, 51, 22
7, 1296, Note_on_c, 9, 51, 29
7, 1318, Note_off_c, 9, 51, 29
7, 1344, Note_on_c, 9, 51, 49
7, 1408, Note_off_c, 9, 51, 49
7, 1440, Note_on_c, 9, 51, 28
7, 1462, Note_off_c, 9, 51, 28
7, 1536, Note_on_c, 9, 51, 47
7, 1570, Note_off_c, 9, 51, 47
7, 1680, Note_on_c, 9, 51, 46
7, 1748, Note_off_c, 9, 51, 46
7, 1776, Note_on_c, 9, 51, 27
7, 1806, Note_off_c, 9, 51, 27
7, 1824, Note_on_c, 9, 51, 21
7, 1848, Note_off_c, 9, 51, 21
7, 1872, Note_on_c, 9, 51, 51
7, 1936, Note_off_c, 9, 51, 51
7, 1968, Note_on_c, 9, 51, 30
7, 1990, Note_off_c, 9, 51, 30
7, 2016, Note_on_c, 9, 51, 27
7, 2038, Note_off_c, 9, 51, 27
7, 2064, Note_on_c, 9, 51, 28
7, 2084, Note_off_c, 9, 51, 28
7, 2112, Note_on_c, 9, 51, 39
7, 2156, Note_off_c, 9, 51, 39
7, 2160, Note_on_c, 9, 51, 24
7, 2182, Note_off_c, 9, 51, 24
7, 2256, Note_on_c, 9, 51, 36
7, 2278, Note_off_c, 9, 51, 36
7, 2304, Note_on_c, 9, 51, 52
7, 2382, Note_off_c, 9, 51, 52
7, 2400, Note_on_c, 9, 51, 51
7, 2414, Note_off_c, 9, 51, 51
7, 2448, Note_on_c, 9, 51, 44
7, 2526, Note_off_c, 9, 51, 44
7, 2544, Note_on_c, 9, 51, 34
7, 2570, Note_off_c, 9, 51, 34
7, 2592, Note_on_c, 9, 51, 28
7, 2608, Note_off_c, 9, 51, 28
7, 2640, Note_on_c, 9, 51, 49
7, 2696, Note_off_c, 9, 51, 49
7, 2784, Note_on_c, 9, 51, 32
7, 2808, Note_off_c, 9, 51, 32
7, 2832, Note_on_c, 9, 51, 28
7, 2848, Note_off_c, 9, 51, 28
7, 2880, Note_on_c, 9, 51, 44
7, 2910, Note_off_c, 9, 51, 44
7, 2928, Note_on_c, 9, 51, 30
7, 2952, Note_off_c, 9, 51, 30
7, 2976, Note_on_c, 9, 51, 34
7, 3016, Note_off_c, 9, 51, 34
7, 3024, Note_on_c, 9, 51, 18
7, 3050, Note_off_c, 9, 51, 18
7, 3072, Note_on_c, 9, 51, 44
7, 3150, Note_off_c, 9, 51, 44
7, 3168, Note_on_c, 9, 51, 31
7, 3188, Note_off_c, 9, 51, 31
7, 3216, Note_on_c, 9, 51, 43
7, 3286, Note_off_c, 9, 51, 43
7, 3312, Note_on_c, 9, 51, 35
7, 3330, Note_off_c, 9, 51, 35
7, 3360, Note_on_c, 9, 51, 24
7, 3376, Note_off_c, 9, 51, 24
7, 3408, Note_on_c, 9, 51, 43
7, 3482, Note_off_c, 9, 51, 43
7, 3552, Note_on_c, 9, 51, 35
7, 3578, Note_off_c, 9, 51, 35
7, 3600, Note_on_c, 9, 51, 40
7, 3624, Note_off_c, 9, 51, 40
7, 3648, Note_on_c, 9, 51, 63
7, 3690, Note_off_c, 9, 51, 63
7, 3792, Note_on_c, 9, 51, 31
7, 3812, Note_off_c, 9, 51, 31
7, 3840, Note_on_c, 9, 51, 53
7, 3920, Note_off_c, 9, 51, 53
7, 3984, Note_on_c, 9, 51, 43
7, 4030, Note_off_c, 9, 51, 43
7, 4128, Note_on_c, 9, 51, 26
7, 4138, Note_off_c, 9, 51, 26
7, 4176, Note_on_c, 9, 51, 46
7, 4246, Note_off_c, 9, 51, 46
7, 4272, Note_on_c, 9, 51, 22
7, 4294, Note_off_c, 9, 51, 22
7, 4320, Note_on_c, 9, 51, 26
7, 4340, Note_off_c, 9, 51, 26
7, 4368, Note_on_c, 9, 51, 44
7, 4412, Note_off_c, 9, 51, 44
7, 4464, Note_on_c, 9, 51, 33
7, 4484, Note_off_c, 9, 51, 33
7, 4512, Note_on_c, 9, 51, 20
7, 4526, Note_off_c, 9, 51, 20
7, 4560, Note_on_c, 9, 51, 28
7, 4574, Note_off_c, 9, 51, 28
7, 4608, Note_on_c, 9, 51, 46
7, 4692, Note_off_c, 9, 51, 46
7, 4752, Note_on_c, 9, 51, 42
7, 4788, Note_off_c, 9, 51, 42
7, 4896, Note_on_c, 9, 51, 53
7, 4910, Note_off_c, 9, 51, 53
7, 4944, Note_on_c, 9, 51, 49
7, 4960, Note_off_c, 9, 51, 49
7, 5040, Note_on_c, 9, 51, 27
7, 5058, Note_off_c, 9, 51, 27
7, 5088, Note_on_c, 9, 51, 26
7, 5106, Note_off_c, 9, 51, 26
7, 5136, Note_on_c, 9, 51, 31
7, 5160, Note_off_c, 9, 51, 31
7, 5184, Note_on_c, 9, 51, 31
7, 5200, Note_off_c, 9, 51, 31
7, 5232, Note_on_c, 9, 51, 38
7, 5254, Note_off_c, 9, 51, 38
7, 5280, Note_on_c, 9, 51, 51
7, 5306, Note_off_c, 9, 51, 51
7, 5328, Note_on_c, 9, 51, 42
7, 5328, Note_on_c, 9, 51, 49
7, 5346, Note_off_c, 9, 51, 49
7, 5348, Note_off_c, 9, 51, 42
7, 5376, Note_on_c, 9, 51, 63
7, 5376, Note_on_c, 9, 51, 58
7, 5406, Note_off_c, 9, 51, 58
7, 5446, Note_off_c, 9, 51, 63
7, 5472, Note_on_c, 9, 51, 32
7, 5490, Note_off_c, 9, 51, 32
7, 5520, Note_on_c, 9, 51, 51
7, 5594, Note_off_c, 9, 51, 51
7, 5616, Note_on_c, 9, 51, 37
7, 5642, Note_off_c, 9, 51, 37
7, 5664, Note_on_c, 9, 51, 28
7, 5678, Note_off_c, 9, 51, 28
7, 5712, Note_on_c, 9, 51, 49
7, 5774, Note_off_c, 9, 51, 49
7, 5808, Note_on_c, 9, 51, 29
7, 5828, Note_off_c, 9, 51, 29
7, 5856, Note_on_c, 9, 51, 27
7, 5872, Note_off_c, 9, 51, 27
7, 5904, Note_on_c, 9, 51, 51
7, 5974, Note_off_c, 9, 51, 51
7, 6000, Note_on_c, 9, 51, 30
7, 6024, Note_off_c, 9, 51, 30
7, 6096, Note_on_c, 9, 51, 17
7, 6120, Note_off_c, 9, 51, 17
7, 6144, Note_on_c, 9, 51, 47
7, 6218, Note_off_c, 9, 51, 47
7, 6288, Note_on_c, 9, 51, 46
7, 6364, Note_off_c, 9, 51, 46
7, 6384, Note_on_c, 9, 51, 34
7, 6412, Note_off_c, 9, 51, 34
7, 6432, Note_on_c, 9, 51, 19
7, 6456, Note_off_c, 9, 51, 19
7, 6480, Note_on_c, 9, 51, 47
7, 6552, Note_off_c, 9, 51, 47
7, 6576, Note_on_c, 9, 51, 26
7, 6592, Note_off_c, 9, 51, 26
7, 6624, Note_on_c, 9, 51, 23
7, 6636, Note_off_c, 9, 51, 23
7, 6672, Note_on_c, 9, 51, 59
7, 6728, Note_off_c, 9, 51, 59
7, 6768, Note_on_c, 9, 51, 46
7, 6786, Note_off_c, 9, 51, 46
7, 6816, Note_on_c, 9, 51, 47
7, 6832, Note_off_c, 9, 51, 47
7, 6912, Note_on_c, 9, 51, 42
7, 7036, Note_off_c, 9, 51, 42
7, 7056, Note_on_c, 9, 51, 40
7, 7086, Note_off_c, 9, 51, 40
7, 7152, Note_on_c, 9, 51, 38
7, 7170, Note_off_c, 9, 51, 38
7, 7248, Note_on_c, 9, 51, 47
7, 7310, Note_off_c, 9, 51, 47
7, 7344, Note_on_c, 9, 51, 46
7, 7364, Note_off_c, 9, 51, 46
7, 7440, Note_on_c, 9, 51, 28
7, 7452, Note_off_c, 9, 51, 28
7, 7488, Note_on_c, 9, 51, 41
7, 7560, Note_off_c, 9, 51, 41
7, 7632, Note_on_c, 9, 51, 7
7, 7652, Note_off_c, 9, 51, 7
7, 7680, Note_on_c, 9, 51, 41
7, 7680, Note_on_c, 9, 51, 51
7, 7692, Note_off_c, 9, 51, 51
7, 7772, Note_off_c, 9, 51, 41
7, 7824, Note_on_c, 9, 51, 36
7, 7880, Note_off_c, 9, 51, 36
7, 7968, Note_on_c, 9, 51, 28
7, 7974, Note_off_c, 9, 51, 28
7, 8016, Note_on_c, 9, 51, 50
7, 8060, Note_off_c, 9, 51, 50
7, 8112, Note_on_c, 9, 51, 31
7, 8128, Note_off_c, 9, 51, 31
7, 8160, Note_on_c, 9, 51, 23
7, 8170, Note_off_c, 9, 51, 23
7, 8208, Note_on_c, 9, 51, 46
7, 8242, Note_off_c, 9, 51, 46
7, 8256, Note_on_c, 9, 51, 32
7, 8272, Note_off_c, 9, 51, 32
7, 8304, Note_on_c, 9, 51, 35
7, 8320, Note_off_c, 9, 51, 35
7, 8352, Note_on_c, 9, 51, 49
7, 8374, Note_off_c, 9, 51, 49
7, 8400, Note_on_c, 9, 51, 19
7, 8400, Note_on_c, 9, 51, 39
7, 8410, Note_off_c, 9, 51, 19
7, 8412, Note_off_c, 9, 51, 39
7, 8448, Note_on_c, 9, 51, 40
7, 8530, Note_off_c, 9, 51, 40
7, 8592, Note_on_c, 9, 51, 51
7, 8628, Note_off_c, 9, 51, 51
7, 8688, Note_on_c, 9, 51, 27
7, 8702, Note_off_c, 9, 51, 27
7, 8784, Note_on_c, 9, 51, 60
7, 8838, Note_off_c, 9, 51, 60
7, 8880, Note_on_c, 9, 51, 30
7, 8900, Note_off_c, 9, 51, 30
7, 8976, Note_on_c, 9, 51, 30
7, 9004, Note_off_c, 9, 51, 30
7, 9072, Note_on_c, 9, 51, 49
7, 9124, Note_off_c, 9, 51, 49
7, 9168, Note_on_c, 9, 51, 26
7, 9168, Note_on_c, 9, 51, 55
7, 9180, Note_off_c, 9, 51, 55
7, 9190, Note_off_c, 9, 51, 26
7, 9216, Note_on_c, 9, 51, 47
7, 9216, Note_on_c, 9, 51, 64
7, 9226, Note_off_c, 9, 51, 64
7, 9288, Note_off_c, 9, 51, 47
7, 9360, Note_on_c, 9, 51, 46
7, 9436, Note_off_c, 9, 51, 46
7, 9456, Note_on_c, 9, 51, 35
7, 9482, Note_off_c, 9, 51, 35
7, 9552, Note_on_c, 9, 51, 36
7, 9622, Note_off_c, 9, 51, 36
7, 9648, Note_on_c, 9, 51, 36
7, 9680, Note_off_c, 9, 51, 36
7, 9744, Note_on_c, 9, 51, 28
7, 9802, Note_off_c, 9, 51, 28
7, 9840, Note_on_c, 9, 51, 37
7, 9854, Note_off_c, 9, 51, 37
7, 9888, Note_on_c, 9, 51, 54
7, 9908, Note_off_c, 9, 51, 54
7, 9936, Note_on_c, 9, 51, 24
7, 9954, Note_off_c, 9, 51, 24
7, 9984, Note_on_c, 9, 51, 51
7, 9984, Note_on_c, 9, 51, 51
7, 9994, Note_off_c, 9, 51, 51
7, 10080, Note_off_c, 9, 51, 51
7, 10128, Note_on_c, 9, 51, 58
7, 10128, Note_on_c, 9, 51, 38
7, 10136, Note_off_c, 9, 51, 58
7, 10206, Note_off_c, 9, 51, 38
7, 10224, Note_on_c, 9, 51, 29
7, 10244, Note_off_c, 9, 51, 29
7, 10272, Note_on_c, 9, 51, 24
7, 10284, Note_off_c, 9, 51, 24
7, 10320, Note_on_c, 9, 51, 46
7, 10390, Note_off_c, 9, 51, 46
7, 10416, Note_on_c, 9, 51, 32
7, 10438, Note_off_c, 9, 51, 32
7, 10464, Note_on_c, 9, 51, 27
7, 10480, Note_off_c, 9, 51, 27
7, 10512, Note_on_c, 9, 51, 42
7, 10536, Note_off_c, 9, 51, 42
7, 10560, Note_on_c, 9, 51, 38
7, 10576, Note_off_c, 9, 51, 38
7, 10608, Note_on_c, 9, 51, 75
7, 10632, Note_off_c, 9, 51, 75
7, 10656, Note_on_c, 9, 51, 44
7, 10684, Note_off_c, 9, 51, 44
7, 10704, Note_on_c, 9, 51, 24
7, 10704, Note_on_c, 9, 51, 42
7, 10714, Note_off_c, 9, 51, 42
7, 10714, Note_off_c, 9, 51, 24
7, 10752, Note_on_c, 9, 51, 42
7, 10752, Note_on_c, 9, 51, 52
7, 10760, Note_off_c, 9, 51, 52
7, 10812, Note_off_c, 9, 51, 42
7, 10848, Note_on_c, 9, 51, 31
7, 10878, Note_off_c, 9, 51, 31
7, 10896, Note_on_c, 9, 51, 47
7, 10906, Note_off_c, 9, 51, 47
7, 11088, Note_on_c, 9, 51, 52
7, 11088, Note_on_c, 9, 51, 40
7, 11098, Note_off_c, 9, 51, 52
7, 11116, Note_off_c, 9, 51, 40
7, 11184, Note_on_c, 9, 51, 25
7, 11198, Note_off_c, 9, 51, 25
7, 11232, Note_on_c, 9, 51, 32
7, 11248, Note_off_c, 9, 51, 32
7, 11280, Note_on_c, 9, 51, 23
7, 11294, Note_off_c, 9, 51, 23
7, 11328, Note_on_c, 9, 51, 47
7, 11352, Note_off_c, 9, 51, 47
7, 11520, Note_on_c, 9, 51, 34
7, 11558, Note_off_c, 9, 51, 34
7, 11664, Note_on_c, 9, 51, 36
7, 11682, Note_off_c, 9, 51, 36
7, 11712, Note_on_c, 9, 51, 44
7, 11788, Note_off_c, 9, 51, 44
7, 11808, Note_on_c, 9, 51, 31
7, 11820, Note_off_c, 9, 51, 31
7, 11856, Note_on_c, 9, 51, 42
7, 11926, Note_off_c, 9, 51, 42
7, 11952, Note_on_c, 9, 51, 35
7, 11976, Note_off_c, 9, 51, 35
7, 12000, Note_on_c, 9, 51, 19
7, 12012, Note_off_c, 9, 51, 19
7, 12048, Note_on_c, 9, 51, 44
7, 12080, Note_off_c, 9, 51, 44
7, 12144, Note_on_c, 9, 51, 42
7, 12172, Note_off_c, 9, 51, 42
7, 12240, Note_on_c, 9, 51, 27
7, 12266, Note_off_c, 9, 51, 27
7, 12288, Note_on_c, 9, 51, 47
7, 12330, Note_off_c, 9, 51, 47
7, 12384, Note_on_c, 9, 51, 24
7, 12394, Note_off_c, 9, 51, 24
7, 12432, Note_on_c, 9, 51, 47
7, 12466, Note_off_c, 9, 51, 47
7, 12528, Note_on_c, 9, 51, 43
7, 12548, Note_off_c, 9, 51, 43
7, 12624, Note_on_c, 9, 51, 40
7, 12656, Note_off_c, 9, 51, 40
7, 12720, Note_on_c, 9, 51, 33
7, 12736, Note_off_c, 9, 51, 33
7, 12768, Note_on_c, 9, 51, 29
7, 12786, Note_off_c, 9, 51, 29
7, 12816, Note_on_c, 9, 51, 41
7, 12858, Note_off_c, 9, 51, 41
7, 12912, Note_on_c, 9, 51, 54
7, 12962, Note_off_c, 9, 51, 54
7, 13008, Note_on_c, 9, 51, 34
7, 13030, Note_off_c, 9, 51, 34
7, 13056, Note_on_c, 9, 51, 46
7, 13124, Note_off_c, 9, 51, 46
7, 13152, Note_on_c, 9, 51, 22
7, 13168, Note_off_c, 9, 51, 22
7, 13200, Note_on_c, 9, 51, 35
7, 13242, Note_off_c, 9, 51, 35
7, 13296, Note_on_c, 9, 51, 39
7, 13318, Note_off_c, 9, 51, 39
7, 13392, Note_on_c, 9, 51, 39
7, 13418, Note_off_c, 9, 51, 39
7, 13488, Note_on_c, 9, 51, 36
7, 13510, Note_off_c, 9, 51, 36
7, 13536, Note_on_c, 9, 51, 17
7, 13552, Note_off_c, 9, 51, 17
7, 13584, Note_on_c, 9, 51, 48
7, 13622, Note_off_c, 9, 51, 48
7, 13680, Note_on_c, 9, 51, 49
7, 13700, Note_off_c, 9, 51, 49
7, 13728, Note_on_c, 9, 51, 55
7, 13750, Note_off_c, 9, 51, 55
7, 13776, Note_on_c, 9, 51, 47
7, 13794, Note_off_c, 9, 51, 47
7, 13824, Note_on_c, 9, 51, 55
7, 13824, Note_on_c, 9, 51, 56
7, 13844, Note_off_c, 9, 51, 56
7, 13844, Note_off_c, 9, 51, 55
7, 13920, Note_on_c, 9, 51, 26
7, 13940, Note_off_c, 9, 51, 26
7, 13968, Note_on_c, 9, 51, 42
7, 13968, Note_on_c, 9, 51, 46
7, 13982, Note_off_c, 9, 51, 46
7, 13996, Note_off_c, 9, 51, 42
7, 14064, Note_on_c, 9, 51, 39
7, 14082, Note_off_c, 9, 51, 39
7, 14160, Note_on_c, 9, 51, 33
7, 14180, Note_off_c, 9, 51, 33
7, 14256, Note_on_c, 9, 51, 39
7, 14276, Note_off_c, 9, 51, 39
7, 14304, Note_on_c, 9, 51, 30
7, 14318, Note_off_c, 9, 51, 30
7, 14352, Note_on_c, 9, 51, 28
7, 14362, Note_off_c, 9, 51, 28
7, 14400, Note_on_c, 9, 51, 39
7, 14424, Note_off_c, 9, 51, 39
7, 14544, Note_on_c, 9, 51, 26
7, 14556, Note_off_c, 9, 51, 26
7, 14592, Note_on_c, 9, 51, 40
7, 14592, Note_on_c, 9, 51, 59
7, 14598, Note_off_c, 9, 51, 59
7, 14636, Note_off_c, 9, 51, 40
7, 14736, Note_on_c, 9, 51, 46
7, 14772, Note_off_c, 9, 51, 46
7, 14832, Note_on_c, 9, 51, 22
7, 14848, Note_off_c, 9, 51, 22
7, 14880, Note_on_c, 9, 51, 24
7, 14894, Note_off_c, 9, 51, 24
7, 14928, Note_on_c, 9, 51, 44
7, 14958, Note_off_c, 9, 51, 44
7, 15024, Note_on_c, 9, 51, 32
7, 15044, Note_off_c, 9, 51, 32
7, 15120, Note_on_c, 9, 51, 26
7, 15142, Note_off_c, 9, 51, 26
7, 15168, Note_on_c, 9, 51, 46
7, 15236, Note_off_c, 9, 51, 46
7, 15312, Note_on_c, 9, 51, 29
7, 15346, Note_off_c, 9, 51, 29
7, 15360, Note_on_c, 9, 51, 39
7, 15394, Note_off_c, 9, 51, 39
7, 15504, Note_on_c, 9, 51, 54
7, 15548, Note_off_c, 9, 51, 54
7, 15600, Note_on_c, 9, 51, 21
7, 15616, Note_off_c, 9, 51, 21
7, 15648, Note_on_c, 9, 51, 29
7, 15660, Note_off_c, 9, 51, 29
7, 15696, Note_on_c, 9, 51, 43
7, 15730, Note_off_c, 9, 51, 43
7, 15792, Note_on_c, 9, 51, 35
7, 15812, Note_off_c, 9, 51, 35
7, 15840, Note_on_c, 9, 51, 22
7, 15850, Note_off_c, 9, 51, 22
7, 15888, Note_on_c, 9, 51, 33
7, 15912, Note_off_c, 9, 51, 33
7, 15936, Note_on_c, 9, 51, 32
7, 15954, Note_off_c, 9, 51, 32
7, 15984, Note_on_c, 9, 51, 36
7, 16008, Note_off_c, 9, 51, 36
7, 16080, Note_on_c, 9, 51, 41
7, 16080, Note_on_c, 9, 51, 37
7, 16094, Note_off_c, 9, 51, 41
7, 16096, Note_off_c, 9, 51, 37
7, 16128, Note_on_c, 9, 51, 46
7, 16128, Note_on_c, 9, 51, 40
7, 16138, Note_off_c, 9, 51, 40
7, 16168, Note_off_c, 9, 51, 46
7, 16272, Note_on_c, 9, 51, 46
7, 16306, Note_off_c, 9, 51, 46
7, 16368, Note_on_c, 9, 51, 31
7, 16386, Note_off_c, 9, 51, 31
7, 16464, Note_on_c, 9, 51, 50
7, 16496, Note_off_c, 9, 51, 50
7, 16560, Note_on_c, 9, 51, 34
7, 16580, Note_off_c, 9, 51, 34
7, 16656, Note_on_c, 9, 51, 46
7, 16684, Note_off_c, 9, 51, 46
7, 16752, Note_on_c, 9, 51, 31
7, 16774, Note_off_c, 9, 51, 31
7, 16848, Note_on_c, 9, 51, 26
7, 16874, Note_off_c, 9, 51, 26
7, 16896, Note_on_c, 9, 51, 44
7, 16944, Note_off_c, 9, 51, 44
7, 17040, Note_on_c, 9, 51, 36
7, 17080, Note_off_c, 9, 51, 36
7, 17136, Note_on_c, 9, 51, 32
7, 17162, Note_off_c, 9, 51, 32
7, 17232, Note_on_c, 9, 51, 52
7, 17258, Note_off_c, 9, 51, 52
7, 17376, Note_on_c, 9, 51, 27
7, 17384, Note_off_c, 9, 51, 27
7, 17424, Note_on_c, 9, 51, 42
7, 17448, Note_off_c, 9, 51, 42
7, 17520, Note_on_c, 9, 51, 30
7, 17546, Note_off_c, 9, 51, 30
7, 17568, Note_on_c, 9, 51, 30
7, 17590, Note_off_c, 9, 51, 30
7, 17616, Note_on_c, 9, 51, 27
7, 17630, Note_off_c, 9, 51, 27
7, 17664, Note_on_c, 9, 51, 52
7, 17696, Note_off_c, 9, 51, 52
7, 17712, Note_on_c, 9, 51, 36
7, 17734, Note_off_c, 9, 51, 36
7, 17760, Note_on_c, 9, 51, 29
7, 17776, Note_off_c, 9, 51, 29
7, 17808, Note_on_c, 9, 51, 45
7, 17842, Note_off_c, 9, 51, 45
7, 17904, Note_on_c, 9, 51, 33
7, 17928, Note_off_c, 9, 51, 33
7, 18000, Note_on_c, 9, 51, 39
7, 18036, Note_off_c, 9, 51, 39
7, 18096, Note_on_c, 9, 51, 21
7, 18112, Note_off_c, 9, 51, 21
7, 18192, Note_on_c, 9, 51, 41
7, 18208, Note_off_c, 9, 51, 41
7, 18240, Note_on_c, 9, 51, 38
7, 18268, Note_off_c, 9, 51, 38
7, 18288, Note_on_c, 9, 51, 42
7, 18302, Note_off_c, 9, 51, 42
7, 18336, Note_on_c, 9, 51, 54
7, 18350, Note_off_c, 9, 51, 54
7, 18384, Note_on_c, 9, 51, 50
7, 18392, Note_off_c, 9, 51, 50
7, 18432, Note_on_c, 9, 51, 47
7, 18432, Note_on_c, 9, 51, 40
7, 18438, Note_off_c, 9, 51, 40
7, 18498, Note_off_c, 9, 51, 47
7, 18576, Note_on_c, 9, 51, 49
7, 18602, Note_off_c, 9, 51, 49
7, 18672, Note_on_c, 9, 51, 30
7, 18704, Note_off_c, 9, 51, 30
7, 18768, Note_on_c, 9, 51, 44
7, 18806, Note_off_c, 9, 51, 44
7, 18912, Note_on_c, 9, 51, 30
7, 18930, Note_off_c, 9, 51, 30
7, 18960, Note_on_c, 9, 51, 42
7, 18992, Note_off_c, 9, 51, 42
7, 19056, Note_on_c, 9, 51, 10
7, 19088, Note_off_c, 9, 51, 10
7, 19104, Note_on_c, 9, 51, 39
7, 19140, Note_off_c, 9, 51, 39
7, 19152, Note_on_c, 9, 51, 46
7, 19172, Note_off_c, 9, 51, 46
7, 19200, Note_on_c, 9, 51, 55
7, 19240, Note_off_c, 9, 51, 55
7, 19296, Note_on_c, 9, 51, 25
7, 19314, Note_off_c, 9, 51, 25
7, 19344, Note_on_c, 9, 51, 32
7, 19390, Note_off_c, 9, 51, 32
7, 19440, Note_on_c, 9, 51, 40
7, 19478, Note_off_c, 9, 51, 40
7, 19536, Note_on_c, 9, 51, 34
7, 19566, Note_off_c, 9, 51, 34
7, 19632, Note_on_c, 9, 51, 30
7, 19656, Note_off_c, 9, 51, 30
7, 19680, Note_on_c, 9, 51, 29
7, 19694, Note_off_c, 9, 51, 29
7, 19728, Note_on_c, 9, 51, 38
7, 19752, Note_off_c, 9, 51, 38
7, 19776, Note_on_c, 9, 51, 41
7, 19798, Note_off_c, 9, 51, 41
7, 19824, Note_on_c, 9, 51, 42
7, 19838, Note_off_c, 9, 51, 42
7, 19872, Note_on_c, 9, 51, 60
7, 19892, Note_off_c, 9, 51, 60
7, 19920, Note_on_c, 9, 51, 48
7, 19920, Note_on_c, 9, 51, 34
7, 19934, Note_off_c, 9, 51, 48
7, 19938, Note_off_c, 9, 51, 34
7, 19968, Note_on_c, 9, 51, 59
7, 19968, Note_on_c, 9, 51, 41
7, 19980, Note_off_c, 9, 51, 59
7, 20008, Note_off_c, 9, 51, 41
7, 20112, Note_on_c, 9, 51, 36
7, 20138, Note_off_c, 9, 51, 36
7, 20208, Note_on_c, 9, 51, 45
7, 20266, Note_off_c, 9, 51, 45
7, 20304, Note_on_c, 9, 51, 40
7, 20336, Note_off_c, 9, 51, 40
7, 20400, Note_on_c, 9, 51, 40
7, 20420, Note_off_c, 9, 51, 40
7, 20496, Note_on_c, 9, 51, 52
7, 20532, Note_off_c, 9, 51, 52
7, 20592, Note_on_c, 9, 51, 51
7, 20632, Note_off_c, 9, 51, 51
7, 20688, Note_on_c, 9, 51, 44
7, 20688, Note_on_c, 9, 51, 33
7, 20700, Note_off_c, 9, 51, 44
7, 20722, Note_off_c, 9, 51, 33
7, 20736, Note_on_c, 9, 51, 62
7, 20736, Note_on_c, 9, 51, 54
7, 20744, Note_off_c, 9, 51, 54
7, 20788, Note_off_c, 9, 51, 62
7, 20880, Note_on_c, 9, 51, 40
7, 20928, Note_off_c, 9, 51, 40
7, 20976, Note_on_c, 9, 51, 38
7, 21008, Note_off_c, 9, 51, 38
7, 21072, Note_on_c, 9, 51, 38
7, 21108, Note_off_c, 9, 51, 38
7, 21168, Note_on_c, 9, 51, 38
7, 21186, Note_off_c, 9, 51, 38
7, 21216, Note_on_c, 9, 51, 29
7, 21232, Note_off_c, 9, 51, 29
7, 21264, Note_on_c, 9, 51, 53
7, 21312, Note_off_c, 9, 51, 53
7, 21360, Note_on_c, 9, 51, 49
7, 21398, Note_off_c, 9, 51, 49
7, 21456, Note_on_c, 9, 51, 13
7, 21492, Note_off_c, 9, 51, 13
7, 21504, Note_on_c, 9, 51, 46
7, 21548, Note_off_c, 9, 51, 46
7, 21648, Note_on_c, 9, 51, 49
7, 21714, Note_off_c, 9, 51, 49
7, 21744, Note_on_c, 9, 51, 28
7, 21760, Note_off_c, 9, 51, 28
7, 21840, Note_on_c, 9, 51, 48
7, 21864, Note_off_c, 9, 51, 48
7, 21888, Note_on_c, 9, 51, 47
7, 21900, Note_off_c, 9, 51, 47
7, 21936, Note_on_c, 9, 51, 47
7, 21964, Note_off_c, 9, 51, 47
7, 22032, Note_on_c, 9, 51, 29
7, 22050, Note_off_c, 9, 51, 29
7, 22128, Note_on_c, 9, 51, 34
7, 22160, Note_off_c, 9, 51, 34
7, 22176, Note_on_c, 9, 51, 38
7, 22206, Note_off_c, 9, 51, 38
7, 22224, Note_on_c, 9, 51, 43
7, 22248, Note_off_c, 9, 51, 43
7, 22272, Note_on_c, 9, 51, 50
7, 22300, Note_off_c, 9, 51, 50
7, 22368, Note_on_c, 9, 51, 35
7, 22382, Note_off_c, 9, 51, 35
7, 22416, Note_on_c, 9, 51, 24
7, 22436, Note_off_c, 9, 51, 24
7, 22464, Note_on_c, 9, 51, 42
7, 22498, Note_off_c, 9, 51, 42
7, 22608, Note_on_c, 9, 51, 37
7, 22626, Note_off_c, 9, 51, 37
7, 22704, Note_on_c, 9, 51, 41
7, 22730, Note_off_c, 9, 51, 41
7, 22800, Note_on_c, 9, 51, 36
7, 22838, Note_off_c, 9, 51, 36
7, 22896, Note_on_c, 9, 51, 43
7, 22924, Note_off_c, 9, 51, 43
7, 22992, Note_on_c, 9, 51, 30
7, 23026, Note_off_c, 9, 51, 30
7, 23040, Note_on_c, 9, 51, 40
7, 23112, Note_off_c, 9, 51, 40
7, 23184, Note_on_c, 9, 51, 34
7, 23228, Note_off_c, 9, 51, 34
7, 23280, Note_on_c, 9, 51, 30
7, 23302, Note_off_c, 9, 51, 30
7, 23328, Note_on_c, 9, 51, 32
7, 23346, Note_off_c, 9, 51, 32
7, 23376, Note_on_c, 9, 51, 49
7, 23414, Note_off_c, 9, 51, 49
7, 23472, Note_on_c, 9, 51, 44
7, 23488, Note_off_c, 9, 51, 44
7, 23520, Note_on_c, 9, 51, 34
7, 23536, Note_off_c, 9, 51, 34
7, 23568, Note_on_c, 9, 51, 57
7, 23600, Note_off_c, 9, 51, 57
7, 23664, Note_on_c, 9, 51, 42
7, 23688, Note_off_c, 9, 51, 42
7, 23760, Note_on_c, 9, 51, 22
7, 23782, Note_off_c, 9, 51, 22
7, 23808, Note_on_c, 9, 51, 47
7, 23808, Note_on_c, 9, 51, 43
7, 23824, Note_off_c, 9, 51, 43
7, 23870, Note_off_c, 9, 51, 47
7, 23904, Note_on_c, 9, 51, 26
7, 23914, Note_off_c, 9, 51, 26
7, 23952, Note_on_c, 9, 51, 30
7, 23964, Note_off_c, 9, 51, 30
7, 24000, Note_on_c, 9, 51, 44
7, 24068, Note_off_c, 9, 51, 44
7, 24096, Note_on_c, 9, 51, 36
7, 24110, Note_off_c, 9, 51, 36
7, 24144, Note_on_c, 9, 51, 50
7, 24202, Note_off_c, 9, 51, 50
7, 24240, Note_on_c, 9, 51, 26
7, 24254, Note_off_c, 9, 51, 26
7, 24336, Note_on_c, 9, 51, 62
7, 24402, Note_off_c, 9, 51, 62
7, 24432, Note_on_c, 9, 51, 43
7, 24442, Note_off_c, 9, 51, 43
7, 24480, Note_on_c, 9, 51, 47
7, 24504, Note_off_c, 9, 51, 47
7, 24528, Note_on_c, 9, 51, 40
7, 24546, Note_off_c, 9, 51, 40
7, 24576, Note_on_c, 9, 51, 54
7, 24576, Note_on_c, 9, 51, 50
7, 24582, Note_off_c, 9, 51, 50
7, 24648, Note_off_c, 9, 51, 54
7, 24672, Note_on_c, 9, 51, 34
7, 24684, Note_off_c, 9, 51, 34
7, 24720, Note_on_c, 9, 51, 51
7, 24792, Note_off_c, 9, 51, 51
7, 24864, Note_on_c, 9, 51, 43
7, 24882, Note_off_c, 9, 51, 43
7, 24912, Note_on_c, 9, 51, 51
7, 24970, Note_off_c, 9, 51, 51
7, 25008, Note_on_c, 9, 51, 43
7, 25028, Note_off_c, 9, 51, 43
7, 25056, Note_on_c, 9, 51, 38
7, 25074, Note_off_c, 9, 51, 38
7, 25104, Note_on_c, 9, 51, 24
7, 25118, Note_off_c, 9, 51, 24
7, 25152, Note_on_c, 9, 51, 54
7, 25190, Note_off_c, 9, 51, 54
7, 25296, Note_on_c, 9, 51, 45
7, 25318, Note_off_c, 9, 51, 45
7, 25344, Note_on_c, 9, 51, 44
7, 25418, Note_off_c, 9, 51, 44
7, 25488, Note_on_c, 9, 51, 44
7, 25528, Note_off_c, 9, 51, 44
7, 25584, Note_on_c, 9, 51, 38
7, 25608, Note_off_c, 9, 51, 38
7, 25680, Note_on_c, 9, 51, 43
7, 25720, Note_off_c, 9, 51, 43
7, 25776, Note_on_c, 9, 51, 49
7, 25814, Note_off_c, 9, 51, 49
7, 25872, Note_on_c, 9, 51, 29
7, 25904, Note_off_c, 9, 51, 29
7, 25968, Note_on_c, 9, 51, 54
7, 26000, Note_off_c, 9, 51, 54
7, 26064, Note_on_c, 9, 51, 37
7, 26084, Note_off_c, 9, 51, 37
7, 26112, Note_on_c, 9, 51, 47
7, 26168, Note_off_c, 9, 51, 47
7, 26256, Note_on_c, 9, 51, 44
7, 26298, Note_off_c, 9, 51, 44
7, 26352, Note_on_c, 9, 51, 42
7, 26374, Note_off_c, 9, 51, 42
7, 26448, Note_on_c, 9, 51, 41
7, 26486, Note_off_c, 9, 51, 41
7, 26544, Note_on_c, 9, 51, 34
7, 26566, Note_off_c, 9, 51, 34
7, 26640, Note_on_c, 9, 51, 35
7, 26670, Note_off_c, 9, 51, 35
7, 26736, Note_on_c, 9, 51, 43
7, 26776, Note_off_c, 9, 51, 43
7, 26832, Note_on_c, 9, 51, 25
7, 26832, Note_on_c, 9, 51, 54
7, 26842, Note_off_c, 9, 51, 54
7, 26854, Note_off_c, 9, 51, 25
7, 26880, Note_on_c, 9, 51, 52
7, 26880, Note_on_c, 9, 51, 64
7, 26886, Note_off_c, 9, 51, 64
7, 26936, Note_off_c, 9, 51, 52
7, 27024, Note_on_c, 9, 51, 52
7, 27076, Note_off_c, 9, 51, 52
7, 27120, Note_on_c, 9, 51, 43
7, 27140, Note_off_c, 9, 51, 43
7, 27216, Note_on_c, 9, 51, 43
7, 27248, Note_off_c, 9, 51, 43
7, 27312, Note_on_c, 9, 51, 24
7, 27326, Note_off_c, 9, 51, 24
7, 27360, Note_on_c, 9, 51, 31
7, 27380, Note_off_c, 9, 51, 31
7, 27408, Note_on_c, 9, 51, 56
7, 27440, Note_off_c, 9, 51, 56
7, 27504, Note_on_c, 9, 51, 63
7, 27526, Note_off_c, 9, 51, 63
7, 27600, Note_on_c, 9, 51, 34
7, 27624, Note_off_c, 9, 51, 34
7, 27648, Note_on_c, 9, 51, 52
7, 27694, Note_off_c, 9, 51, 52
7, 27792, Note_on_c, 9, 51, 49
7, 27820, Note_off_c, 9, 51, 49
7, 27888, Note_on_c, 9, 51, 33
7, 27904, Note_off_c, 9, 51, 33
7, 27984, Note_on_c, 9, 51, 50
7, 28014, Note_off_c, 9, 51, 50
7, 28128, Note_on_c, 9, 51, 32
7, 28154, Note_off_c, 9, 51, 32
7, 28176, Note_on_c, 9, 51, 43
7, 28218, Note_off_c, 9, 51, 43
7, 28272, Note_on_c, 9, 51, 43
7, 28300, Note_off_c, 9, 51, 43
7, 28368, Note_on_c, 9, 51, 29
7, 28390, Note_off_c, 9, 51, 29
7, 28416, Note_on_c, 9, 51, 41
7, 28460, Note_off_c, 9, 51, 41
7, 28560, Note_on_c, 9, 51, 49
7, 28614, Note_off_c, 9, 51, 49
7, 28656, Note_on_c, 9, 51, 23
7, 28690, Note_off_c, 9, 51, 23
7, 28752, Note_on_c, 9, 51, 52
7, 28808, Note_off_c, 9, 51, 52
7, 28848, Note_on_c, 9, 51, 37
7, 28860, Note_off_c, 9, 51, 37
7, 28944, Note_on_c, 9, 51, 37
7, 28960, Note_off_c, 9, 51, 37
7, 28992, Note_on_c, 9, 51, 46
7, 29020, Note_off_c, 9, 51, 46
7, 29088, Note_on_c, 9, 51, 54
7, 29140, Note_off_c, 9, 51, 54
7, 29184, Note_on_c, 9, 51, 77
7, 29184, Note_on_c, 9, 51, 68
7, 29186, Note_off_c, 9, 51, 68
7, 29258, Note_off_c, 9, 51, 77
7, 29280, Note_on_c, 9, 51, 33
7, 29296, Note_off_c, 9, 51, 33
7, 29328, Note_on_c, 9, 51, 40
7, 29346, Note_off_c, 9, 51, 40
7, 29424, Note_on_c, 9, 51, 35
7, 29454, Note_off_c, 9, 51, 35
7, 29520, Note_on_c, 9, 51, 48
7, 29552, Note_off_c, 9, 51, 48
7, 29616, Note_on_c, 9, 51, 42
7, 29626, Note_off_c, 9, 51, 42
7, 29664, Note_on_c, 9, 51, 29
7, 29676, Note_off_c, 9, 51, 29
7, 29712, Note_on_c, 9, 51, 44
7, 29732, Note_off_c, 9, 51, 44
7, 29808, Note_on_c, 9, 51, 37
7, 29824, Note_off_c, 9, 51, 37
7, 29856, Note_on_c, 9, 51, 38
7, 29872, Note_off_c, 9, 51, 38
7, 29904, Note_on_c, 9, 51, 36
7, 29916, Note_off_c, 9, 51, 36
7, 29952, Note_on_c, 9, 51, 59
7, 30012, Note_off_c, 9, 51, 59
7, 30096, Note_on_c, 9, 51, 43
7, 30138, Note_off_c, 9, 51, 43
7, 30192, Note_on_c, 9, 51, 32
7, 30202, Note_off_c, 9, 51, 32
7, 30240, Note_on_c, 9, 51, 36
7, 30252, Note_off_c, 9, 51, 36
7, 30288, Note_on_c, 9, 51, 34
7, 30306, Note_off_c, 9, 51, 34
7, 30384, Note_on_c, 9, 51, 39
7, 30404, Note_off_c, 9, 51, 39
7, 30432, Note_on_c, 9, 51, 48
7, 30452, Note_off_c, 9, 51, 48
7, 30480, Note_on_c, 9, 51, 46
7, 30492, Note_off_c, 9, 51, 46
7, 30576, Note_on_c, 9, 51, 42
7, 30598, Note_off_c, 9, 51, 42
7, 30624, Note_on_c, 9, 51, 47
7, 30644, Note_off_c, 9, 51, 47
7, 30672, Note_on_c, 9, 51, 51
7, 30672, Note_on_c, 9, 51, 54
7, 30680, Note_off_c, 9, 51, 54
7, 30688, Note_off_c, 9, 51, 51
7, 30720, Note_on_c, 9, 51, 60
7, 30720, Note_on_c, 9, 51, 77
7, 30728, Note_off_c, 9, 51, 77
7, 30778, Note_off_c, 9, 51, 60
7, 30864, Note_on_c, 9, 51, 54
7, 30886, Note_off_c, 9, 51, 54
7, 30960, Note_on_c, 9, 51, 28
7, 30972, Note_off_c, 9, 51, 28
7, 31008, Note_on_c, 9, 51, 23
7, 31018, Note_off_c, 9, 51, 23
7, 31056, Note_on_c, 9, 51, 53
7, 31084, Note_off_c, 9, 51, 53
7, 31152, Note_on_c, 9, 51, 32
7, 31166, Note_off_c, 9, 51, 32
7, 31200, Note_on_c, 9, 51, 44
7, 31218, Note_off_c, 9, 51, 44
7, 31248, Note_on_c, 9, 51, 44
7, 31268, Note_off_c, 9, 51, 44
7, 31296, Note_on_c, 9, 51, 54
7, 31328, Note_off_c, 9, 51, 54
7, 31344, Note_on_c, 9, 51, 21
7, 31364, Note_off_c, 9, 51, 21
7, 31392, Note_on_c, 9, 51, 29
7, 31412, Note_off_c, 9, 51, 29
7, 31440, Note_on_c, 9, 51, 20
7, 31460, Note_off_c, 9, 51, 20
7, 31488, Note_on_c, 9, 51, 62
7, 31488, Note_on_c, 9, 51, 45
7, 31492, Note_off_c, 9, 51, 45
7, 31568, Note_off_c, 9, 51, 62
7, 31632, Note_on_c, 9, 51, 51
7, 31632, Note_on_c, 9, 51, 53
7, 31638, Note_off_c, 9, 51, 53
7, 31692, Note_off_c, 9, 51, 51
7, 31728, Note_on_c, 9, 51, 29
7, 31746, Note_off_c, 9, 51, 29
7, 31776, Note_on_c, 9, 51, 23
7, 31794, Note_off_c, 9, 51, 23
7, 31824, Note_on_c, 9, 51, 62
7, 31824, Note_on_c, 9, 51, 47
7, 31830, Note_off_c, 9, 51, 62
7, 31876, Note_off_c, 9, 51, 47
7, 31920, Note_on_c, 9, 51, 28
7, 31942, Note_off_c, 9, 51, 28
7, 31968, Note_on_c, 9, 51, 22
7, 31990, Note_off_c, 9, 51, 22
7, 32016, Note_on_c, 9, 51, 27
7, 32060, Note_off_c, 9, 51, 27
7, 32112, Note_on_c, 9, 51, 33
7, 32134, Note_off_c, 9, 51, 33
7, 32160, Note_on_c, 9, 51, 37
7, 32192, Note_off_c, 9, 51, 37
7, 32208, Note_on_c, 9, 51, 42
7, 32234, Note_off_c, 9, 51, 42
7, 32256, Note_on_c, 9, 51, 42
7, 32256, Note_on_c, 9, 51, 69
7, 32262, Note_off_c, 9, 51, 69
7, 32304, Note_off_c, 9, 51, 42
7, 32400, Note_on_c, 9, 51, 59
7, 32400, Note_on_c, 9, 51, 44
7, 32404, Note_off_c, 9, 51, 59
7, 32454, Note_off_c, 9, 51, 44
7, 32496, Note_on_c, 9, 51, 33
7, 32512, Note_off_c, 9, 51, 33
7, 32544, Note_on_c, 9, 51, 35
7, 32562, Note_off_c, 9, 51, 35
7, 32592, Note_on_c, 9, 51, 64
7, 32592, Note_on_c, 9, 51, 49
7, 32598, Note_off_c, 9, 51, 64
7, 32650, Note_off_c, 9, 51, 49
7, 32688, Note_on_c, 9, 51, 30
7, 32706, Note_off_c, 9, 51, 30
7, 32736, Note_on_c, 9, 51, 26
7, 32744, Note_off_c, 9, 51, 26
7, 32784, Note_on_c, 9, 51, 38
7, 32804, Note_off_c, 9, 51, 38
7, 32832, Note_on_c, 9, 51, 32
7, 32856, Note_off_c, 9, 51, 32
7, 32976, Note_on_c, 9, 51, 31
7, 32994, Note_off_c, 9, 51, 31
7, 33024, Note_on_c, 9, 51, 49
7, 33074, Note_off_c, 9, 51, 49
7, 33168, Note_on_c, 9, 51, 46
7, 33190, Note_off_c, 9, 51, 46
7, 33216, Note_on_c, 9, 51, 35
7, 33276, Note_off_c, 9, 51, 35
7, 33360, Note_on_c, 9, 51, 47
7, 33396, Note_off_c, 9, 51, 47
7, 33456, Note_on_c, 9, 51, 39
7, 33470, Note_off_c, 9, 51, 39
7, 33504, Note_on_c, 9, 51, 27
7, 33514, Note_off_c, 9, 51, 27
7, 33552, Note_on_c, 9, 51, 47
7, 33580, Note_off_c, 9, 51, 47
7, 33648, Note_on_c, 9, 51, 32
7, 33676, Note_off_c, 9, 51, 32
7, 33744, Note_on_c, 9, 51, 40
7, 33772, Note_off_c, 9, 51, 40
7, 33792, Note_on_c, 9, 51, 47
7, 33844, Note_off_c, 9, 51, 47
7, 33936, Note_on_c, 9, 51, 49
7, 34008, Note_off_c, 9, 51, 49
7, 34032, Note_on_c, 9, 51, 28
7, 34052, Note_off_c, 9, 51, 28
7, 34128, Note_on_c, 9, 51, 47
7, 34188, Note_off_c, 9, 51, 47
7, 34224, Note_on_c, 9, 51, 36
7, 34240, Note_off_c, 9, 51, 36
7, 34272, Note_on_c, 9, 51, 23
7, 34288, Note_off_c, 9, 51, 23
7, 34320, Note_on_c, 9, 51, 42
7, 34340, Note_off_c, 9, 51, 42
7, 34368, Note_on_c, 9, 51, 59
7, 34398, Note_off_c, 9, 51, 59
7, 34416, Note_on_c, 9, 51, 41
7, 34444, Note_off_c, 9, 51, 41
7, 34512, Note_on_c, 9, 51, 11
7, 34536, Note_off_c, 9, 51, 11
7, 34560, Note_on_c, 9, 51, 55
7, 34632, Note_off_c, 9, 51, 55
7, 34704, Note_on_c, 9, 51, 56
7, 34752, Note_off_c, 9, 51, 56
7, 34800, Note_on_c, 9, 51, 49
7, 34842, Note_off_c, 9, 51, 49
7, 34896, Note_on_c, 9, 51, 37
7, 34962, Note_off_c, 9, 51, 37
7, 34992, Note_on_c, 9, 51, 39
7, 35032, Note_off_c, 9, 51, 39
7, 35088, Note_on_c, 9, 51, 54
7, 35144, Note_off_c, 9, 51, 54
7, 35184, Note_on_c, 9, 51, 53
7, 35226, Note_off_c, 9, 51, 53
7, 35280, Note_on_c, 9, 51, 54
7, 35294, Note_off_c, 9, 51, 54
7, 35328, Note_on_c, 9, 51, 68
7, 35406, Note_off_c, 9, 51, 68
7, 35472, Note_on_c, 9, 51, 49
7, 35546, Note_off_c, 9, 51, 49
7, 35616, Note_on_c, 9, 51, 36
7, 35630, Note_off_c, 9, 51, 36
7, 35664, Note_on_c, 9, 51, 47
7, 35690, Note_off_c, 9, 51, 47
7, 35760, Note_on_c, 9, 51, 36
7, 35784, Note_off_c, 9, 51, 36
7, 35808, Note_on_c, 9, 51, 44
7, 35828, Note_off_c, 9, 51, 44
7, 35856, Note_on_c, 9, 51, 44
7, 35872, Note_off_c, 9, 51, 44
7, 35904, Note_on_c, 9, 51, 75
7, 35932, Note_off_c, 9, 51, 75
7, 36048, Note_on_c, 9, 51, 48
7, 36060, Note_off_c, 9, 51, 48
7, 36096, Note_on_c, 9, 51, 71
7, 36096, Note_on_c, 9, 51, 79
7, 36104, Note_off_c, 9, 51, 79
7, 36164, Note_off_c, 9, 51, 71
7, 36240, Note_on_c, 9, 51, 43
7, 36274, Note_off_c, 9, 51, 43
7, 36336, Note_on_c, 9, 51, 44
7, 36372, Note_off_c, 9, 51, 44
7, 36432, Note_on_c, 9, 51, 58
7, 36460, Note_off_c, 9, 51, 58
7, 36528, Note_on_c, 9, 51, 40
7, 36556, Note_off_c, 9, 51, 40
7, 36624, Note_on_c, 9, 51, 42
7, 36652, Note_off_c, 9, 51, 42
7, 36720, Note_on_c, 9, 51, 30
7, 36736, Note_off_c, 9, 51, 30
7, 36816, Note_on_c, 9, 51, 33
7, 36842, Note_off_c, 9, 51, 33
7, 36864, Note_on_c, 9, 51, 51
7, 36904, Note_off_c, 9, 51, 51
7, 37008, Note_on_c, 9, 51, 54
7, 37034, Note_off_c, 9, 51, 54
7, 37104, Note_on_c, 9, 51, 46
7, 37120, Note_off_c, 9, 51, 46
7, 37200, Note_on_c, 9, 51, 47
7, 37220, Note_off_c, 9, 51, 47
7, 37296, Note_on_c, 9, 51, 38
7, 37316, Note_off_c, 9, 51, 38
7, 37344, Note_on_c, 9, 51, 28
7, 37362, Note_off_c, 9, 51, 28
7, 37392, Note_on_c, 9, 51, 54
7, 37420, Note_off_c, 9, 51, 54
7, 37488, Note_on_c, 9, 51, 73
7, 37508, Note_off_c, 9, 51, 73
7, 37584, Note_on_c, 9, 51, 40
7, 37598, Note_off_c, 9, 51, 40
7, 37632, Note_on_c, 9, 51, 55
7, 37632, Note_on_c, 9, 51, 54
7, 37634, Note_off_c, 9, 51, 54
7, 37662, Note_off_c, 9, 51, 55
7, 37776, Note_on_c, 9, 51, 54
7, 37790, Note_off_c, 9, 51, 54
7, 37872, Note_on_c, 9, 51, 45
7, 37884, Note_off_c, 9, 51, 45
7, 37968, Note_on_c, 9, 51, 51
7, 37994, Note_off_c, 9, 51, 51
7, 38160, Note_on_c, 9, 51, 46
7, 38184, Note_off_c, 9, 51, 46
7, 38256, Note_on_c, 9, 51, 42
7, 38272, Note_off_c, 9, 51, 42
7, 38304, Note_on_c, 9, 51, 44
7, 38318, Note_off_c, 9, 51, 44
7, 38400, Note_on_c, 9, 51, 63
7, 38428, Note_off_c, 9, 51, 63
7, 38496, Note_on_c, 9, 51, 34
7, 38506, Note_off_c, 9, 51, 34
7, 38544, Note_on_c, 9, 51, 47
7, 38576, Note_off_c, 9, 51, 47
7, 38640, Note_on_c, 9, 51, 30
7, 38658, Note_off_c, 9, 51, 30
7, 38688, Note_on_c, 9, 51, 39
7, 38708, Note_off_c, 9, 51, 39
7, 38736, Note_on_c, 9, 51, 54
7, 38768, Note_off_c, 9, 51, 54
7, 38880, Note_on_c, 9, 51, 37
7, 38898, Note_off_c, 9, 51, 37
7, 38928, Note_on_c, 9, 51, 51
7, 38950, Note_off_c, 9, 51, 51
7, 39024, Note_on_c, 9, 51, 32
7, 39040, Note_off_c, 9, 51, 32
7, 39072, Note_on_c, 9, 51, 33
7, 39092, Note_off_c, 9, 51, 33
7, 39120, Note_on_c, 9, 51, 37
7, 39134, Note_off_c, 9, 51, 37
7, 39168, Note_on_c, 9, 51, 54
7, 39200, Note_off_c, 9, 51, 54
7, 39312, Note_on_c, 9, 51, 40
7, 39334, Note_off_c, 9, 51, 40
7, 39408, Note_on_c, 9, 51, 24
7, 39422, Note_off_c, 9, 51, 24
7, 39456, Note_on_c, 9, 51, 32
7, 39478, Note_off_c, 9, 51, 32
7, 39504, Note_on_c, 9, 51, 45
7, 39528, Note_off_c, 9, 51, 45
7, 39600, Note_on_c, 9, 51, 43
7, 39618, Note_off_c, 9, 51, 43
7, 39696, Note_on_c, 9, 51, 30
7, 39712, Note_off_c, 9, 51, 30
7, 39744, Note_on_c, 9, 51, 47
7, 39784, Note_off_c, 9, 51, 47
7, 39888, Note_on_c, 9, 51, 39
7, 39900, Note_off_c, 9, 51, 39
7, 39936, Note_on_c, 9, 51, 62
7, 39936, Note_on_c, 9, 51, 49
7, 39944, Note_off_c, 9, 51, 49
7, 39998, Note_off_c, 9, 51, 62
7, 40080, Note_on_c, 9, 51, 58
7, 40100, Note_off_c, 9, 51, 58
7, 40176, Note_on_c, 9, 51, 46
7, 40198, Note_off_c, 9, 51, 46
7, 40272, Note_on_c, 9, 51, 43
7, 40290, Note_off_c, 9, 51, 43
7, 40368, Note_on_c, 9, 51, 35
7, 40394, Note_off_c, 9, 51, 35
7, 40464, Note_on_c, 9, 51, 46
7, 40490, Note_off_c, 9, 51, 46
7, 40560, Note_on_c, 9, 51, 40
7, 40602, Note_off_c, 9, 51, 40
7, 40656, Note_on_c, 9, 51, 51
7, 40676, Note_off_c, 9, 51, 51
7, 40704, Note_on_c, 9, 51, 62
7, 40752, Note_off_c, 9, 51, 62
7, 40848, Note_on_c, 9, 51, 62
7, 40860, Note_off_c, 9, 51, 62
7, 40944, Note_on_c, 9, 51, 51
7, 40956, Note_off_c, 9, 51, 51
7, 41040, Note_on_c, 9, 51, 47
7, 41058, Note_off_c, 9, 51, 47
7, 41136, Note_on_c, 9, 51, 38
7, 41156, Note_off_c, 9, 51, 38
7, 41232, Note_on_c, 9, 51, 49
7, 41252, Note_off_c, 9, 51, 49
7, 41328, Note_on_c, 9, 51, 56
7, 41346, Note_off_c, 9, 51, 56
7, 41424, Note_on_c, 9, 51, 43
7, 41424, Note_on_c, 9, 51, 46
7, 41432, Note_off_c, 9, 51, 46
7, 41436, Note_off_c, 9, 51, 43
7, 41472, Note_on_c, 9, 51, 68
7, 41472, Note_on_c, 9, 51, 68
7, 41480, Note_off_c, 9, 51, 68
7, 41498, Note_off_c, 9, 51, 68
7, 41616, Note_on_c, 9, 51, 69
7, 41628, Note_off_c, 9, 51, 69
7, 41712, Note_on_c, 9, 51, 49
7, 41722, Note_off_c, 9, 51, 49
7, 41808, Note_on_c, 9, 51, 42
7, 41824, Note_off_c, 9, 51, 42
7, 41904, Note_on_c, 9, 51, 55
7, 41920, Note_off_c, 9, 51, 55
7, 42000, Note_on_c, 9, 51, 54
7, 42016, Note_off_c, 9, 51, 54
7, 42096, Note_on_c, 9, 51, 34
7, 42110, Note_off_c, 9, 51, 34
7, 42192, Note_on_c, 9, 51, 44
7, 42204, Note_off_c, 9, 51, 44
7, 42240, Note_on_c, 9, 51, 55
7, 42282, Note_off_c, 9, 51, 55
7, 42384, Note_on_c, 9, 51, 54
7, 42398, Note_off_c, 9, 51, 54
7, 42480, Note_on_c, 9, 51, 31
7, 42496, Note_off_c, 9, 51, 31
7, 42576, Note_on_c, 9, 51, 39
7, 42600, Note_off_c, 9, 51, 39
7, 42672, Note_on_c, 9, 51, 40
7, 42700, Note_off_c, 9, 51, 40
7, 42768, Note_on_c, 9, 51, 49
7, 42782, Note_off_c, 9, 51, 49
7, 42864, Note_on_c, 9, 51, 41
7, 42886, Note_off_c, 9, 51, 41
7, 42960, Note_on_c, 9, 51, 34
7, 42970, Note_off_c, 9, 51, 34
7, 43008, Note_on_c, 9, 51, 47
7, 43032, Note_off_c, 9, 51, 47
7, 43104, Note_on_c, 9, 51, 33
7, 43114, Note_off_c, 9, 51, 33
7, 43152, Note_on_c, 9, 51, 50
7, 43176, Note_off_c, 9, 51, 50
7, 43248, Note_on_c, 9, 51, 48
7, 43268, Note_off_c, 9, 51, 48
7, 43344, Note_on_c, 9, 51, 42
7, 43384, Note_off_c, 9, 51, 42
7, 43440, Note_on_c, 9, 51, 50
7, 43460, Note_off_c, 9, 51, 50
7, 43536, Note_on_c, 9, 51, 31
7, 43564, Note_off_c, 9, 51, 31
7, 43584, Note_on_c, 9, 51, 38
7, 43620, Note_off_c, 9, 51, 38
7, 43728, Note_on_c, 9, 51, 39
7, 43748, Note_off_c, 9, 51, 39
7, 43776, Note_on_c, 9, 51, 54
7, 43776, Note_on_c, 9, 51, 64
7, 43780, Note_off_c, 9, 51, 64
7, 43830, Note_off_c, 9, 51, 54
7, 43872, Note_on_c, 9, 51, 33
7, 43882, Note_off_c, 9, 51, 33
7, 43920, Note_on_c, 9, 51, 38
7, 43932, Note_off_c, 9, 51, 38
7, 43968, Note_on_c, 9, 51, 56
7, 44036, Note_off_c, 9, 51, 56
7, 44064, Note_on_c, 9, 51, 32
7, 44074, Note_off_c, 9, 51, 32
7, 44112, Note_on_c, 9, 51, 46
7, 44136, Note_off_c, 9, 51, 46
7, 44208, Note_on_c, 9, 51, 38
7, 44252, Note_off_c, 9, 51, 38
7, 44304, Note_on_c, 9, 51, 37
7, 44334, Note_off_c, 9, 51, 37
7, 44400, Note_on_c, 9, 51, 43
7, 44430, Note_off_c, 9, 51, 43
7, 44496, Note_on_c, 9, 51, 41
7, 44512, Note_off_c, 9, 51, 41
7, 44544, Note_on_c, 9, 51, 57
7, 44572, Note_off_c, 9, 51, 57
7, 44688, Note_on_c, 9, 51, 62
7, 44706, Note_off_c, 9, 51, 62
7, 44832, Note_on_c, 9, 51, 31
7, 44846, Note_off_c, 9, 51, 31
7, 44880, Note_on_c, 9, 51, 54
7, 44902, Note_off_c, 9, 51, 54
7, 44976, Note_on_c, 9, 51, 40
7, 44992, Note_off_c, 9, 51, 40
7, 45024, Note_on_c, 9, 51, 32
7, 45032, Note_off_c, 9, 51, 32
7, 45072, Note_on_c, 9, 51, 47
7, 45102, Note_off_c, 9, 51, 47
7, 45168, Note_on_c, 9, 51, 51
7, 45190, Note_off_c, 9, 51, 51
7, 45264, Note_on_c, 9, 51, 49
7, 45264, Note_on_c, 9, 51, 51
7, 45274, Note_off_c, 9, 51, 51
7, 45278, Note_off_c, 9, 51, 49
7, 45312, Note_on_c, 9, 51, 56
7, 45312, Note_on_c, 9, 51, 81
7, 45320, Note_off_c, 9, 51, 81
7, 45368, Note_off_c, 9, 51, 56
7, 45408, Note_on_c, 9, 51, 32
7, 45420, Note_off_c, 9, 51, 32
7, 45456, Note_on_c, 9, 51, 47
7, 45474, Note_off_c, 9, 51, 47
7, 45504, Note_on_c, 9, 51, 49
7, 45562, Note_off_c, 9, 51, 49
7, 45648, Note_on_c, 9, 51, 47
7, 45676, Note_off_c, 9, 51, 47
7, 45744, Note_on_c, 9, 51, 38
7, 45762, Note_off_c, 9, 51, 38
7, 45840, Note_on_c, 9, 51, 38
7, 45864, Note_off_c, 9, 51, 38
7, 45936, Note_on_c, 9, 51, 39
7, 45960, Note_off_c, 9, 51, 39
7, 46032, Note_on_c, 9, 51, 37
7, 46050, Note_off_c, 9, 51, 37
7, 46080, Note_on_c, 9, 51, 48
7, 46108, Note_off_c, 9, 51, 48
7, 46224, Note_on_c, 9, 51, 48
7, 46250, Note_off_c, 9, 51, 48
7, 46320, Note_on_c, 9, 51, 29
7, 46336, Note_off_c, 9, 51, 29
7, 46416, Note_on_c, 9, 51, 38
7, 46446, Note_off_c, 9, 51, 38
7, 46512, Note_on_c, 9, 51, 27
7, 46522, Note_off_c, 9, 51, 27
7, 46608, Note_on_c, 9, 51, 41
7, 46652, Note_off_c, 9, 51, 41
7, 46704, Note_on_c, 9, 51, 47
7, 46722, Note_off_c, 9, 51, 47
7, 46752, Note_on_c, 9, 51, 43
7, 46772, Note_off_c, 9, 51, 43
7, 46848, Note_on_c, 9, 51, 47
7, 46878, Note_off_c, 9, 51, 47
7, 46944, Note_on_c, 9, 51, 47
7, 46958, Note_off_c, 9, 51, 47
7, 46992, Note_on_c, 9, 51, 46
7, 47070, Note_off_c, 9, 51, 46
7, 47088, Note_on_c, 9, 51, 34
7, 47112, Note_off_c, 9, 51, 34
7, 47184, Note_on_c, 9, 51, 37
7, 47232, Note_off_c, 9, 51, 37
7, 47280, Note_on_c, 9, 51, 41
7, 47302, Note_off_c, 9, 51, 41
7, 47376, Note_on_c, 9, 51, 54
7, 47400, Note_off_c, 9, 51, 54
7, 47472, Note_on_c, 9, 51, 59
7, 47496, Note_off_c, 9, 51, 59
7, 47568, Note_on_c, 9, 51, 47
7, 47586, Note_off_c, 9, 51, 47
7, 47616, Note_on_c, 9, 51, 57
7, 47670, Note_off_c, 9, 51, 57
7, 47760, Note_on_c, 9, 51, 60
7, 47792, Note_off_c, 9, 51, 60
7, 47856, Note_on_c, 9, 51, 34
7, 47866, Note_off_c, 9, 51, 34
7, 47952, Note_on_c, 9, 51, 44
7, 47974, Note_off_c, 9, 51, 44
7, 48048, Note_on_c, 9, 51, 40
7, 48074, Note_off_c, 9, 51, 40
7, 48144, Note_on_c, 9, 51, 51
7, 48164, Note_off_c, 9, 51, 51
7, 48240, Note_on_c, 9, 51, 54
7, 48258, Note_off_c, 9, 51, 54
7, 48336, Note_on_c, 9, 51, 42
7, 48350, Note_off_c, 9, 51, 42
7, 48384, Note_on_c, 9, 51, 68
7, 48406, Note_off_c, 9, 51, 68
7, 48528, Note_on_c, 9, 51, 56
7, 48548, Note_off_c, 9, 51, 56
7, 48624, Note_on_c, 9, 51, 47
7, 48642, Note_off_c, 9, 51, 47
7, 48720, Note_on_c, 9, 51, 44
7, 48738, Note_off_c, 9, 51, 44
7, 48816, Note_on_c, 9, 51, 41
7, 48832, Note_off_c, 9, 51, 41
7, 48912, Note_on_c, 9, 51, 42
7, 48940, Note_off_c, 9, 51, 42
7, 49008, Note_on_c, 9, 51, 35
7, 49038, Note_off_c, 9, 51, 35
7, 49104, Note_on_c, 9, 51, 43
7, 49120, Note_off_c, 9, 51, 43
7, 49152, Note_on_c, 9, 51, 63
7, 49192, Note_off_c, 9, 51, 63
7, 49296, Note_on_c, 9, 51, 66
7, 49318, Note_off_c, 9, 51, 66
7, 49488, Note_on_c, 9, 51, 41
7, 49510, Note_off_c, 9, 51, 41
7, 49584, Note_on_c, 9, 51, 32
7, 49608, Note_off_c, 9, 51, 32
7, 49680, Note_on_c, 9, 51, 41
7, 49702, Note_off_c, 9, 51, 41
7, 49776, Note_on_c, 9, 51, 47
7, 49806, Note_off_c, 9, 51, 47
7, 49872, Note_on_c, 9, 51, 49
7, 49886, Note_off_c, 9, 51, 49
7, 49920, Note_on_c, 9, 51, 54
7, 49944, Note_off_c, 9, 51, 54
7, 50064, Note_on_c, 9, 51, 43
7, 50094, Note_off_c, 9, 51, 43
7, 50160, Note_on_c, 9, 51, 46
7, 50176, Note_off_c, 9, 51, 46
7, 50256, Note_on_c, 9, 51, 47
7, 50276, Note_off_c, 9, 51, 47
7, 50352, Note_on_c, 9, 51, 41
7, 50374, Note_off_c, 9, 51, 41
7, 50448, Note_on_c, 9, 51, 46
7, 50462, Note_off_c, 9, 51, 46
7, 50496, Note_on_c, 9, 51, 47
7, 50518, Note_off_c, 9, 51, 47
7, 50640, Note_on_c, 9, 51, 33
7, 50650, Note_off_c, 9, 51, 33
7, 50688, Note_on_c, 9, 51, 69
7, 50688, Note_on_c, 9, 51, 64
7, 50696, Note_off_c, 9, 51, 64
7, 50712, Note_off_c, 9, 51, 69
7, 50832, Note_on_c, 9, 51, 36
7, 50832, Note_on_c, 9, 51, 58
7, 50834, Note_off_c, 9, 51, 36
7, 50856, Note_off_c, 9, 51, 58
7, 50976, Note_on_c, 9, 51, 39
7, 50990, Note_off_c, 9, 51, 39
7, 51024, Note_on_c, 9, 51, 60
7, 51024, Note_on_c, 9, 51, 46
7, 51036, Note_off_c, 9, 51, 46
7, 51052, Note_off_c, 9, 51, 60
7, 51216, Note_on_c, 9, 51, 40
7, 51216, Note_on_c, 9, 51, 84
7, 51224, Note_off_c, 9, 51, 84
7, 51244, Note_off_c, 9, 51, 40
7, 51312, Note_on_c, 9, 51, 36
7, 51334, Note_off_c, 9, 51, 36
7, 51408, Note_on_c, 9, 51, 71
7, 51408, Note_on_c, 9, 51, 38
7, 51418, Note_off_c, 9, 51, 71
7, 51426, Note_off_c, 9, 51, 38
7, 51456, Note_on_c, 9, 51, 48
7, 51494, Note_off_c, 9, 51, 48
7, 51600, Note_on_c, 9, 51, 63
7, 51600, Note_on_c, 9, 51, 55
7, 51606, Note_off_c, 9, 51, 63
7, 51624, Note_off_c, 9, 51, 55
7, 51696, Note_on_c, 9, 51, 28
7, 51704, Note_off_c, 9, 51, 28
7, 51792, Note_on_c, 9, 51, 66
7, 51792, Note_on_c, 9, 51, 46
7, 51798, Note_off_c, 9, 51, 46
7, 51810, Note_off_c, 9, 51, 66
7, 51888, Note_on_c, 9, 51, 40
7, 51900, Note_off_c, 9, 51, 40
7, 51936, Note_on_c, 9, 51, 109
7, 52638, Note_off_c, 9, 51, 109
7, 52638, End_track
8, 0, Start_track
8, 0, Text_t, "Tamburine "
8, 2400, Note_on_c, 9, 54, 68
8, 2412, Note_off_c, 9, 54, 68
8, 2592, Note_on_c, 9, 54, 44
8, 2604, Note_off_c, 9, 54, 44
8, 2784, Note_on_c, 9, 54, 33
8, 2792, Note_off_c, 9, 54, 33
8, 2976, Note_on_c, 9, 54, 34
8, 2992, Note_off_c, 9, 54, 34
8, 3168, Note_on_c, 9, 54, 47
8, 3182, Note_off_c, 9, 54, 47
8, 3360, Note_on_c, 9, 54, 49
8, 3370, Note_off_c, 9, 54, 49
8, 3552, Note_on_c, 9, 54, 51
8, 3560, Note_off_c, 9, 54, 51
8, 3744, Note_on_c, 9, 54, 38
8, 3748, Note_off_c, 9, 54, 38
8, 3936, Note_on_c, 9, 54, 49
8, 3946, Note_off_c, 9, 54, 49
8, 4128, Note_on_c, 9, 54, 52
8, 4136, Note_off_c, 9, 54, 52
8, 4320, Note_on_c, 9, 54, 54
8, 4330, Note_off_c, 9, 54, 54
8, 4512, Note_on_c, 9, 54, 47
8, 4520, Note_off_c, 9, 54, 47
8, 4704, Note_on_c, 9, 54, 54
8, 4714, Note_off_c, 9, 54, 54
8, 4896, Note_on_c, 9, 54, 39
8, 4906, Note_off_c, 9, 54, 39
8, 5088, Note_on_c, 9, 54, 53
8, 5098, Note_off_c, 9, 54, 53
8, 5280, Note_on_c, 9, 54, 46
8, 5288, Note_off_c, 9, 54, 46
8, 5472, Note_on_c, 9, 54, 41
8, 5480, Note_off_c, 9, 54, 41
8, 5664, Note_on_c, 9, 54, 47
8, 5672, Note_off_c, 9, 54, 47
8, 5856, Note_on_c, 9, 54, 53
8, 5868, Note_off_c, 9, 54, 53
8, 6048, Note_on_c, 9, 54, 45
8, 6058, Note_off_c, 9, 54, 45
8, 6240, Note_on_c, 9, 54, 51
8, 6246, Note_off_c, 9, 54, 51
8, 6432, Note_on_c, 9, 54, 51
8, 6444, Note_off_c, 9, 54, 51
8, 6624, Note_on_c, 9, 54, 34
8, 6634, Note_off_c, 9, 54, 34
8, 6816, Note_on_c, 9, 54, 41
8, 6828, Note_off_c, 9, 54, 41
8, 7008, Note_on_c, 9, 54, 35
8, 7016, Note_off_c, 9, 54, 35
8, 7200, Note_on_c, 9, 54, 31
8, 7208, Note_off_c, 9, 54, 31
8, 7392, Note_on_c, 9, 54, 42
8, 7404, Note_off_c, 9, 54, 42
8, 7584, Note_on_c, 9, 54, 37
8, 7600, Note_off_c, 9, 54, 37
8, 7776, Note_on_c, 9, 54, 51
8, 7786, Note_off_c, 9, 54, 51
8, 7968, Note_on_c, 9, 54, 41
8, 7978, Note_off_c, 9, 54, 41
8, 8160, Note_on_c, 9, 54, 31
8, 8168, Note_off_c, 9, 54, 31
8, 8352, Note_on_c, 9, 54, 37
8, 8364, Note_off_c, 9, 54, 37
8, 8544, Note_on_c, 9, 54, 46
8, 8556, Note_off_c, 9, 54, 46
8, 8736, Note_on_c, 9, 54, 53
8, 8746, Note_off_c, 9, 54, 53
8, 8928, Note_on_c, 9, 54, 44
8, 8938, Note_off_c, 9, 54, 44
8, 9120, Note_on_c, 9, 54, 53
8, 9130, Note_off_c, 9, 54, 53
8, 9312, Note_on_c, 9, 54, 63
8, 9318, Note_off_c, 9, 54, 63
8, 9504, Note_on_c, 9, 54, 58
8, 9512, Note_off_c, 9, 54, 58
8, 9696, Note_on_c, 9, 54, 53
8, 9706, Note_off_c, 9, 54, 53
8, 9888, Note_on_c, 9, 54, 66
8, 9896, Note_off_c, 9, 54, 66
8, 10080, Note_on_c, 9, 54, 73
8, 10086, Note_off_c, 9, 54, 73
8, 10272, Note_on_c, 9, 54, 66
8, 10280, Note_off_c, 9, 54, 66
8, 10464, Note_on_c, 9, 54, 73
8, 10474, Note_off_c, 9, 54, 73
8, 10656, Note_on_c, 9, 54, 60
8, 10664, Note_off_c, 9, 54, 60
8, 10848, Note_on_c, 9, 54, 66
8, 10856, Note_off_c, 9, 54, 66
8, 11040, Note_on_c, 9, 54, 49
8, 11050, Note_off_c, 9, 54, 49
8, 11232, Note_on_c, 9, 54, 52
8, 11240, Note_off_c, 9, 54, 52
8, 11424, Note_on_c, 9, 54, 68
8, 11432, Note_off_c, 9, 54, 68
8, 11616, Note_on_c, 9, 54, 69
8, 11624, Note_off_c, 9, 54, 69
8, 11808, Note_on_c, 9, 54, 63
8, 11818, Note_off_c, 9, 54, 63
8, 12000, Note_on_c, 9, 54, 48
8, 12008, Note_off_c, 9, 54, 48
8, 12192, Note_on_c, 9, 54, 53
8, 12198, Note_off_c, 9, 54, 53
8, 12384, Note_on_c, 9, 54, 54
8, 12390, Note_off_c, 9, 54, 54
8, 12576, Note_on_c, 9, 54, 56
8, 12584, Note_off_c, 9, 54, 56
8, 12768, Note_on_c, 9, 54, 56
8, 12780, Note_off_c, 9, 54, 56
8, 12960, Note_on_c, 9, 54, 52
8, 12966, Note_off_c, 9, 54, 52
8, 13152, Note_on_c, 9, 54, 38
8, 13154, Note_off_c, 9, 54, 38
8, 13344, Note_on_c, 9, 54, 52
8, 13354, Note_off_c, 9, 54, 52
8, 13536, Note_on_c, 9, 54, 54
8, 13548, Note_off_c, 9, 54, 54
8, 13728, Note_on_c, 9, 54, 51
8, 13738, Note_off_c, 9, 54, 51
8, 13920, Note_on_c, 9, 54, 63
8, 13932, Note_off_c, 9, 54, 63
8, 14112, Note_on_c, 9, 54, 51
8, 14124, Note_off_c, 9, 54, 51
8, 14304, Note_on_c, 9, 54, 49
8, 14314, Note_off_c, 9, 54, 49
8, 14496, Note_on_c, 9, 54, 47
8, 14516, Note_off_c, 9, 54, 47
8, 14688, Note_on_c, 9, 54, 55
8, 14696, Note_off_c, 9, 54, 55
8, 14880, Note_on_c, 9, 54, 49
8, 14890, Note_off_c, 9, 54, 49
8, 15072, Note_on_c, 9, 54, 71
8, 15082, Note_off_c, 9, 54, 71
8, 15264, Note_on_c, 9, 54, 81
8, 15276, Note_off_c, 9, 54, 81
8, 15456, Note_on_c, 9, 54, 68
8, 15462, Note_off_c, 9, 54, 68
8, 15648, Note_on_c, 9, 54, 63
8, 15656, Note_off_c, 9, 54, 63
8, 15840, Note_on_c, 9, 54, 68
8, 15850, Note_off_c, 9, 54, 68
8, 16032, Note_on_c, 9, 54, 58
8, 16040, Note_off_c, 9, 54, 58
8, 16224, Note_on_c, 9, 54, 58
8, 16232, Note_off_c, 9, 54, 58
8, 16416, Note_on_c, 9, 54, 44
8, 16430, Note_off_c, 9, 54, 44
8, 16608, Note_on_c, 9, 54, 60
8, 16630, Note_off_c, 9, 54, 60
8, 16800, Note_on_c, 9, 54, 51
8, 16812, Note_off_c, 9, 54, 51
8, 16992, Note_on_c, 9, 54, 59
8, 16998, Note_off_c, 9, 54, 59
8, 17184, Note_on_c, 9, 54, 54
8, 17192, Note_off_c, 9, 54, 54
8, 17376, Note_on_c, 9, 54, 66
8, 17386, Note_off_c, 9, 54, 66
8, 17568, Note_on_c, 9, 54, 54
8, 17578, Note_off_c, 9, 54, 54
8, 17760, Note_on_c, 9, 54, 68
8, 17766, Note_off_c, 9, 54, 68
8, 17952, Note_on_c, 9, 54, 58
8, 17960, Note_off_c, 9, 54, 58
8, 18144, Note_on_c, 9, 54, 66
8, 18154, Note_off_c, 9, 54, 66
8, 18528, Note_on_c, 9, 54, 79
8, 18540, Note_off_c, 9, 54, 79
8, 18720, Note_on_c, 9, 54, 57
8, 18728, Note_off_c, 9, 54, 57
8, 18912, Note_on_c, 9, 54, 68
8, 18920, Note_off_c, 9, 54, 68
8, 19104, Note_on_c, 9, 54, 62
8, 19112, Note_off_c, 9, 54, 62
8, 19296, Note_on_c, 9, 54, 62
8, 19302, Note_off_c, 9, 54, 62
8, 19488, Note_on_c, 9, 54, 64
8, 19496, Note_off_c, 9, 54, 64
8, 19680, Note_on_c, 9, 54, 63
8, 19688, Note_off_c, 9, 54, 63
8, 19872, Note_on_c, 9, 54, 71
8, 19882, Note_off_c, 9, 54, 71
8, 20064, Note_on_c, 9, 54, 58
8, 20070, Note_off_c, 9, 54, 58
8, 20256, Note_on_c, 9, 54, 56
8, 20268, Note_off_c, 9, 54, 56
8, 20448, Note_on_c, 9, 54, 62
8, 20458, Note_off_c, 9, 54, 62
8, 20640, Note_on_c, 9, 54, 69
8, 20650, Note_off_c, 9, 54, 69
8, 20832, Note_on_c, 9, 54, 75
8, 20838, Note_off_c, 9, 54, 75
8, 21024, Note_on_c, 9, 54, 54
8, 21032, Note_off_c, 9, 54, 54
8, 21216, Note_on_c, 9, 54, 66
8, 21226, Note_off_c, 9, 54, 66
8, 21408, Note_on_c, 9, 54, 63
8, 21416, Note_off_c, 9, 54, 63
8, 21600, Note_on_c, 9, 54, 73
8, 21610, Note_off_c, 9, 54, 73
8, 21792, Note_on_c, 9, 54, 57
8, 21798, Note_off_c, 9, 54, 57
8, 21984, Note_on_c, 9, 54, 52
8, 21998, Note_off_c, 9, 54, 52
8, 22176, Note_on_c, 9, 54, 51
8, 22176, Note_on_c, 9, 54, 86
8, 22180, Note_off_c, 9, 54, 51
8, 22184, Note_off_c, 9, 54, 86
8, 22224, Note_on_c, 9, 54, 59
8, 22224, Note_on_c, 9, 54, 49
8, 22230, Note_off_c, 9, 54, 59
8, 22232, Note_off_c, 9, 54, 49
8, 22272, Note_on_c, 9, 54, 96
8, 22274, Note_off_c, 9, 54, 96
8, 22368, Note_on_c, 9, 54, 69
8, 22370, Note_off_c, 9, 54, 69
8, 22560, Note_on_c, 9, 54, 81
8, 22566, Note_off_c, 9, 54, 81
8, 22752, Note_on_c, 9, 54, 81
8, 22756, Note_off_c, 9, 54, 81
8, 22944, Note_on_c, 9, 54, 77
8, 22950, Note_off_c, 9, 54, 77
8, 23136, Note_on_c, 9, 54, 71
8, 23148, Note_off_c, 9, 54, 71
8, 23328, Note_on_c, 9, 54, 71
8, 23336, Note_off_c, 9, 54, 71
8, 23520, Note_on_c, 9, 54, 62
8, 23530, Note_off_c, 9, 54, 62
8, 23712, Note_on_c, 9, 54, 62
8, 23720, Note_off_c, 9, 54, 62
8, 23904, Note_on_c, 9, 54, 68
8, 23916, Note_off_c, 9, 54, 68
8, 24096, Note_on_c, 9, 54, 73
8, 24104, Note_off_c, 9, 54, 73
8, 24288, Note_on_c, 9, 54, 77
8, 24298, Note_off_c, 9, 54, 77
8, 24480, Note_on_c, 9, 54, 73
8, 24486, Note_off_c, 9, 54, 73
8, 24672, Note_on_c, 9, 54, 57
8, 24678, Note_off_c, 9, 54, 57
8, 24864, Note_on_c, 9, 54, 77
8, 24870, Note_off_c, 9, 54, 77
8, 25056, Note_on_c, 9, 54, 56
8, 25064, Note_off_c, 9, 54, 56
8, 25440, Note_on_c, 9, 54, 92
8, 25446, Note_off_c, 9, 54, 92
8, 25632, Note_on_c, 9, 54, 81
8, 25642, Note_off_c, 9, 54, 81
8, 25824, Note_on_c, 9, 54, 75
8, 25832, Note_off_c, 9, 54, 75
8, 26016, Note_on_c, 9, 54, 81
8, 26026, Note_off_c, 9, 54, 81
8, 26208, Note_on_c, 9, 54, 81
8, 26214, Note_off_c, 9, 54, 81
8, 26400, Note_on_c, 9, 54, 73
8, 26410, Note_off_c, 9, 54, 73
8, 26592, Note_on_c, 9, 54, 55
8, 26602, Note_off_c, 9, 54, 55
8, 26784, Note_on_c, 9, 54, 59
8, 26790, Note_off_c, 9, 54, 59
8, 26976, Note_on_c, 9, 54, 75
8, 26986, Note_off_c, 9, 54, 75
8, 27168, Note_on_c, 9, 54, 77
8, 27176, Note_off_c, 9, 54, 77
8, 27360, Note_on_c, 9, 54, 81
8, 27368, Note_off_c, 9, 54, 81
8, 27552, Note_on_c, 9, 54, 66
8, 27560, Note_off_c, 9, 54, 66
8, 27744, Note_on_c, 9, 54, 68
8, 27754, Note_off_c, 9, 54, 68
8, 27936, Note_on_c, 9, 54, 60
8, 27944, Note_off_c, 9, 54, 60
8, 28128, Note_on_c, 9, 54, 57
8, 28136, Note_off_c, 9, 54, 57
8, 28320, Note_on_c, 9, 54, 75
8, 28330, Note_off_c, 9, 54, 75
8, 28512, Note_on_c, 9, 54, 64
8, 28520, Note_off_c, 9, 54, 64
8, 28704, Note_on_c, 9, 54, 66
8, 28708, Note_off_c, 9, 54, 66
8, 28896, Note_on_c, 9, 54, 51
8, 28904, Note_off_c, 9, 54, 51
8, 29088, Note_on_c, 9, 54, 69
8, 29094, Note_off_c, 9, 54, 69
8, 29280, Note_on_c, 9, 54, 73
8, 29286, Note_off_c, 9, 54, 73
8, 29472, Note_on_c, 9, 54, 79
8, 29478, Note_off_c, 9, 54, 79
8, 29664, Note_on_c, 9, 54, 77
8, 29678, Note_off_c, 9, 54, 77
8, 29856, Note_on_c, 9, 54, 75
8, 29866, Note_off_c, 9, 54, 75
8, 30048, Note_on_c, 9, 54, 81
8, 30056, Note_off_c, 9, 54, 81
8, 30240, Note_on_c, 9, 54, 75
8, 30246, Note_off_c, 9, 54, 75
8, 30432, Note_on_c, 9, 54, 79
8, 30438, Note_off_c, 9, 54, 79
8, 30624, Note_on_c, 9, 54, 55
8, 30632, Note_off_c, 9, 54, 55
8, 30816, Note_on_c, 9, 54, 66
8, 30822, Note_off_c, 9, 54, 66
8, 31008, Note_on_c, 9, 54, 75
8, 31016, Note_off_c, 9, 54, 75
8, 31200, Note_on_c, 9, 54, 75
8, 31210, Note_off_c, 9, 54, 75
8, 31392, Note_on_c, 9, 54, 75
8, 31398, Note_off_c, 9, 54, 75
8, 31584, Note_on_c, 9, 54, 81
8, 31592, Note_off_c, 9, 54, 81
8, 31968, Note_on_c, 9, 54, 84
8, 31972, Note_off_c, 9, 54, 84
8, 32160, Note_on_c, 9, 54, 66
8, 32166, Note_off_c, 9, 54, 66
8, 32352, Note_on_c, 9, 54, 81
8, 32362, Note_off_c, 9, 54, 81
8, 32544, Note_on_c, 9, 54, 77
8, 32550, Note_off_c, 9, 54, 77
8, 32736, Note_on_c, 9, 54, 36
8, 32756, Note_off_c, 9, 54, 36
8, 32880, Note_on_c, 9, 54, 41
8, 32884, Note_off_c, 9, 54, 41
8, 32928, Note_on_c, 9, 54, 89
8, 32934, Note_off_c, 9, 54, 89
8, 33120, Note_on_c, 9, 54, 89
8, 33128, Note_off_c, 9, 54, 89
8, 33312, Note_on_c, 9, 54, 77
8, 33318, Note_off_c, 9, 54, 77
8, 33504, Note_on_c, 9, 54, 71
8, 33510, Note_off_c, 9, 54, 71
8, 33696, Note_on_c, 9, 54, 84
8, 33704, Note_off_c, 9, 54, 84
8, 33888, Note_on_c, 9, 54, 73
8, 33894, Note_off_c, 9, 54, 73
8, 34080, Note_on_c, 9, 54, 57
8, 34088, Note_off_c, 9, 54, 57
8, 34272, Note_on_c, 9, 54, 79
8, 34282, Note_off_c, 9, 54, 79
8, 34464, Note_on_c, 9, 54, 77
8, 34472, Note_off_c, 9, 54, 77
8, 34656, Note_on_c, 9, 54, 77
8, 34662, Note_off_c, 9, 54, 77
8, 34848, Note_on_c, 9, 54, 73
8, 34854, Note_off_c, 9, 54, 73
8, 35040, Note_on_c, 9, 54, 68
8, 35044, Note_off_c, 9, 54, 68
8, 35232, Note_on_c, 9, 54, 69
8, 35232, Note_on_c, 9, 54, 86
8, 35238, Note_off_c, 9, 54, 86
8, 35238, Note_off_c, 9, 54, 69
8, 35280, Note_on_c, 9, 54, 49
8, 35294, Note_off_c, 9, 54, 49
8, 35328, Note_on_c, 9, 54, 86
8, 35332, Note_off_c, 9, 54, 86
8, 35616, Note_on_c, 9, 54, 81
8, 35624, Note_off_c, 9, 54, 81
8, 35808, Note_on_c, 9, 54, 66
8, 35812, Note_off_c, 9, 54, 66
8, 36000, Note_on_c, 9, 54, 75
8, 36004, Note_off_c, 9, 54, 75
8, 36192, Note_on_c, 9, 54, 66
8, 36196, Note_off_c, 9, 54, 66
8, 36576, Note_on_c, 9, 54, 64
8, 36582, Note_off_c, 9, 54, 64
8, 36768, Note_on_c, 9, 54, 79
8, 36776, Note_off_c, 9, 54, 79
8, 36960, Note_on_c, 9, 54, 71
8, 36966, Note_off_c, 9, 54, 71
8, 37152, Note_on_c, 9, 54, 64
8, 37160, Note_off_c, 9, 54, 64
8, 37344, Note_on_c, 9, 54, 73
8, 37352, Note_off_c, 9, 54, 73
8, 37536, Note_on_c, 9, 54, 73
8, 37544, Note_off_c, 9, 54, 73
8, 37728, Note_on_c, 9, 54, 59
8, 37734, Note_off_c, 9, 54, 59
8, 37920, Note_on_c, 9, 54, 71
8, 37928, Note_off_c, 9, 54, 71
8, 38112, Note_on_c, 9, 54, 73
8, 38120, Note_off_c, 9, 54, 73
8, 38304, Note_on_c, 9, 54, 81
8, 38312, Note_off_c, 9, 54, 81
8, 38496, Note_on_c, 9, 54, 69
8, 38504, Note_off_c, 9, 54, 69
8, 38688, Note_on_c, 9, 54, 68
8, 38696, Note_off_c, 9, 54, 68
8, 38880, Note_on_c, 9, 54, 81
8, 38888, Note_off_c, 9, 54, 81
8, 39072, Note_on_c, 9, 54, 68
8, 39082, Note_off_c, 9, 54, 68
8, 39264, Note_on_c, 9, 54, 71
8, 39272, Note_off_c, 9, 54, 71
8, 39456, Note_on_c, 9, 54, 66
8, 39464, Note_off_c, 9, 54, 66
8, 39648, Note_on_c, 9, 54, 57
8, 39660, Note_off_c, 9, 54, 57
8, 39840, Note_on_c, 9, 54, 71
8, 39848, Note_off_c, 9, 54, 71
8, 40032, Note_on_c, 9, 54, 68
8, 40038, Note_off_c, 9, 54, 68
8, 40224, Note_on_c, 9, 54, 75
8, 40230, Note_off_c, 9, 54, 75
8, 40416, Note_on_c, 9, 54, 73
8, 40426, Note_off_c, 9, 54, 73
8, 40608, Note_on_c, 9, 54, 68
8, 40616, Note_off_c, 9, 54, 68
8, 40800, Note_on_c, 9, 54, 66
8, 40806, Note_off_c, 9, 54, 66
8, 40992, Note_on_c, 9, 54, 77
8, 41004, Note_off_c, 9, 54, 77
8, 41184, Note_on_c, 9, 54, 64
8, 41192, Note_off_c, 9, 54, 64
8, 41376, Note_on_c, 9, 54, 77
8, 41386, Note_off_c, 9, 54, 77
8, 41568, Note_on_c, 9, 54, 73
8, 41578, Note_off_c, 9, 54, 73
8, 41760, Note_on_c, 9, 54, 73
8, 41768, Note_off_c, 9, 54, 73
8, 41952, Note_on_c, 9, 54, 75
8, 41958, Note_off_c, 9, 54, 75
8, 42144, Note_on_c, 9, 54, 62
8, 42152, Note_off_c, 9, 54, 62
8, 42336, Note_on_c, 9, 54, 64
8, 42342, Note_off_c, 9, 54, 64
8, 42528, Note_on_c, 9, 54, 69
8, 42534, Note_off_c, 9, 54, 69
8, 42720, Note_on_c, 9, 54, 81
8, 42728, Note_off_c, 9, 54, 81
8, 42912, Note_on_c, 9, 54, 44
8, 42934, Note_off_c, 9, 54, 44
8, 43104, Note_on_c, 9, 54, 49
8, 43120, Note_off_c, 9, 54, 49
8, 43296, Note_on_c, 9, 54, 84
8, 43302, Note_off_c, 9, 54, 84
8, 43488, Note_on_c, 9, 54, 71
8, 43498, Note_off_c, 9, 54, 71
8, 43680, Note_on_c, 9, 54, 89
8, 43690, Note_off_c, 9, 54, 89
8, 43872, Note_on_c, 9, 54, 75
8, 43882, Note_off_c, 9, 54, 75
8, 44064, Note_on_c, 9, 54, 86
8, 44072, Note_off_c, 9, 54, 86
8, 44256, Note_on_c, 9, 54, 84
8, 44262, Note_off_c, 9, 54, 84
8, 44448, Note_on_c, 9, 54, 84
8, 44454, Note_off_c, 9, 54, 84
8, 44640, Note_on_c, 9, 54, 81
8, 44648, Note_off_c, 9, 54, 81
8, 44832, Note_on_c, 9, 54, 81
8, 44840, Note_off_c, 9, 54, 81
8, 45024, Note_on_c, 9, 54, 79
8, 45030, Note_off_c, 9, 54, 79
8, 45216, Note_on_c, 9, 54, 75
8, 45222, Note_off_c, 9, 54, 75
8, 45408, Note_on_c, 9, 54, 84
8, 45414, Note_off_c, 9, 54, 84
8, 45600, Note_on_c, 9, 54, 71
8, 45606, Note_off_c, 9, 54, 71
8, 45792, Note_on_c, 9, 54, 66
8, 45804, Note_off_c, 9, 54, 66
8, 46080, Note_on_c, 9, 54, 60
8, 46092, Note_off_c, 9, 54, 60
8, 46176, Note_on_c, 9, 54, 66
8, 46184, Note_off_c, 9, 54, 66
8, 46368, Note_on_c, 9, 54, 68
8, 46374, Note_off_c, 9, 54, 68
8, 46560, Note_on_c, 9, 54, 69
8, 46566, Note_off_c, 9, 54, 69
8, 46752, Note_on_c, 9, 54, 64
8, 46758, Note_off_c, 9, 54, 64
8, 46944, Note_on_c, 9, 54, 69
8, 46952, Note_off_c, 9, 54, 69
8, 47136, Note_on_c, 9, 54, 77
8, 47142, Note_off_c, 9, 54, 77
8, 47328, Note_on_c, 9, 54, 77
8, 47336, Note_off_c, 9, 54, 77
8, 47520, Note_on_c, 9, 54, 79
8, 47530, Note_off_c, 9, 54, 79
8, 47712, Note_on_c, 9, 54, 79
8, 47718, Note_off_c, 9, 54, 79
8, 47904, Note_on_c, 9, 54, 73
8, 47912, Note_off_c, 9, 54, 73
8, 48096, Note_on_c, 9, 54, 73
8, 48108, Note_off_c, 9, 54, 73
8, 48288, Note_on_c, 9, 54, 75
8, 48296, Note_off_c, 9, 54, 75
8, 48480, Note_on_c, 9, 54, 71
8, 48488, Note_off_c, 9, 54, 71
8, 48672, Note_on_c, 9, 54, 64
8, 48678, Note_off_c, 9, 54, 64
8, 48864, Note_on_c, 9, 54, 79
8, 48874, Note_off_c, 9, 54, 79
8, 49056, Note_on_c, 9, 54, 73
8, 49064, Note_off_c, 9, 54, 73
8, 49248, Note_on_c, 9, 54, 81
8, 49256, Note_off_c, 9, 54, 81
8, 49440, Note_on_c, 9, 54, 68
8, 49448, Note_off_c, 9, 54, 68
8, 49632, Note_on_c, 9, 54, 62
8, 49640, Note_off_c, 9, 54, 62
8, 49824, Note_on_c, 9, 54, 64
8, 49832, Note_off_c, 9, 54, 64
8, 50016, Note_on_c, 9, 54, 63
8, 50036, Note_off_c, 9, 54, 63
8, 50208, Note_on_c, 9, 54, 40
8, 50222, Note_off_c, 9, 54, 40
8, 50400, Note_on_c, 9, 54, 79
8, 50410, Note_off_c, 9, 54, 79
8, 50592, Note_on_c, 9, 54, 89
8, 50600, Note_off_c, 9, 54, 89
8, 50784, Note_on_c, 9, 54, 77
8, 50790, Note_off_c, 9, 54, 77
8, 50976, Note_on_c, 9, 54, 86
8, 50982, Note_off_c, 9, 54, 86
8, 51168, Note_on_c, 9, 54, 71
8, 51174, Note_off_c, 9, 54, 71
8, 51360, Note_on_c, 9, 54, 75
8, 51366, Note_off_c, 9, 54, 75
8, 51552, Note_on_c, 9, 54, 75
8, 51558, Note_off_c, 9, 54, 75
8, 51744, Note_on_c, 9, 54, 66
8, 51750, Note_off_c, 9, 54, 66
8, 51750, End_track
9, 0, Start_track
9, 0, Text_t, "hihat &tom"
9, 0, Note_on_c, 9, 42, 40
9, 16, Note_off_c, 9, 42, 40
9, 192, Note_on_c, 9, 42, 40
9, 210, Note_off_c, 9, 42, 40
9, 384, Note_on_c, 9, 42, 40
9, 398, Note_off_c, 9, 42, 40
9, 576, Note_on_c, 9, 42, 40
9, 590, Note_off_c, 9, 42, 40
9, 672, Note_on_c, 9, 44, 54
9, 680, Note_off_c, 9, 44, 54
9, 696, Note_on_c, 9, 42, 40
9, 698, Note_off_c, 9, 42, 40
9, 720, Note_on_c, 9, 44, 68
9, 726, Note_off_c, 9, 44, 68
9, 743, Note_on_c, 9, 42, 73
9, 751, Note_off_c, 9, 42, 73
9, 768, Note_on_c, 9, 46, 68
9, 784, Note_off_c, 9, 46, 68
9, 816, Note_on_c, 9, 42, 40
9, 832, Note_off_c, 9, 42, 40
9, 864, Note_on_c, 9, 42, 54
9, 880, Note_off_c, 9, 42, 54
9, 912, Note_on_c, 9, 42, 54
9, 926, Note_off_c, 9, 42, 54
9, 960, Note_on_c, 9, 46, 68
9, 976, Note_off_c, 9, 46, 68
9, 1008, Note_on_c, 9, 42, 40
9, 1024, Note_off_c, 9, 42, 40
9, 1056, Note_on_c, 9, 42, 54
9, 1072, Note_off_c, 9, 42, 54
9, 1104, Note_on_c, 9, 46, 68
9, 1118, Note_off_c, 9, 46, 68
9, 1152, Note_on_c, 9, 42, 54
9, 1168, Note_off_c, 9, 42, 54
9, 1200, Note_on_c, 9, 42, 40
9, 1216, Note_off_c, 9, 42, 40
9, 1248, Note_on_c, 9, 42, 54
9, 1264, Note_off_c, 9, 42, 54
9, 1296, Note_on_c, 9, 42, 40
9, 1312, Note_off_c, 9, 42, 40
9, 1344, Note_on_c, 9, 46, 68
9, 1360, Note_off_c, 9, 46, 68
9, 1368, Note_on_c, 9, 44, 41
9, 1378, Note_off_c, 9, 44, 41
9, 1392, Note_on_c, 9, 42, 40
9, 1406, Note_off_c, 9, 42, 40
9, 1416, Note_on_c, 9, 44, 29
9, 1430, Note_off_c, 9, 44, 29
9, 1440, Note_on_c, 9, 42, 54
9, 1458, Note_off_c, 9, 42, 54
9, 1464, Note_on_c, 9, 44, 18
9, 1480, Note_off_c, 9, 44, 18
9, 1488, Note_on_c, 9, 42, 40
9, 1504, Note_off_c, 9, 42, 40
9, 1512, Note_on_c, 9, 44, 29
9, 1522, Note_off_c, 9, 44, 29
9, 1536, Note_on_c, 9, 46, 68
9, 1550, Note_off_c, 9, 46, 68
9, 1584, Note_on_c, 9, 42, 40
9, 1598, Note_off_c, 9, 42, 40
9, 1632, Note_on_c, 9, 42, 54
9, 1648, Note_off_c, 9, 42, 54
9, 1680, Note_on_c, 9, 42, 54
9, 1696, Note_off_c, 9, 42, 54
9, 1728, Note_on_c, 9, 46, 68
9, 1742, Note_off_c, 9, 46, 68
9, 1776, Note_on_c, 9, 42, 40
9, 1790, Note_off_c, 9, 42, 40
9, 1824, Note_on_c, 9, 42, 54
9, 1838, Note_off_c, 9, 42, 54
9, 1872, Note_on_c, 9, 46, 68
9, 1886, Note_off_c, 9, 46, 68
9, 1920, Note_on_c, 9, 42, 54
9, 1934, Note_off_c, 9, 42, 54
9, 1968, Note_on_c, 9, 42, 40
9, 1984, Note_off_c, 9, 42, 40
9, 2016, Note_on_c, 9, 42, 54
9, 2032, Note_off_c, 9, 42, 54
9, 2064, Note_on_c, 9, 42, 40
9, 2082, Note_off_c, 9, 42, 40
9, 2112, Note_on_c, 9, 46, 68
9, 2128, Note_off_c, 9, 46, 68
9, 2160, Note_on_c, 9, 42, 40
9, 2178, Note_off_c, 9, 42, 40
9, 2208, Note_on_c, 9, 42, 54
9, 2226, Note_off_c, 9, 42, 54
9, 2256, Note_on_c, 9, 42, 40
9, 2272, Note_off_c, 9, 42, 40
9, 2304, Note_on_c, 9, 46, 68
9, 2320, Note_off_c, 9, 46, 68
9, 2352, Note_on_c, 9, 42, 40
9, 2366, Note_off_c, 9, 42, 40
9, 2400, Note_on_c, 9, 42, 54
9, 2414, Note_off_c, 9, 42, 54
9, 2448, Note_on_c, 9, 42, 54
9, 2462, Note_off_c, 9, 42, 54
9, 2496, Note_on_c, 9, 46, 68
9, 2512, Note_off_c, 9, 46, 68
9, 2544, Note_on_c, 9, 42, 40
9, 2560, Note_off_c, 9, 42, 40
9, 2592, Note_on_c, 9, 42, 54
9, 2608, Note_off_c, 9, 42, 54
9, 2640, Note_on_c, 9, 46, 68
9, 2656, Note_off_c, 9, 46, 68
9, 2688, Note_on_c, 9, 42, 54
9, 2702, Note_off_c, 9, 42, 54
9, 2736, Note_on_c, 9, 42, 40
9, 2752, Note_off_c, 9, 42, 40
9, 2784, Note_on_c, 9, 42, 56
9, 2800, Note_off_c, 9, 42, 56
9, 2832, Note_on_c, 9, 42, 40
9, 2848, Note_off_c, 9, 42, 40
9, 2880, Note_on_c, 9, 46, 72
9, 2894, Note_off_c, 9, 46, 72
9, 2928, Note_on_c, 9, 42, 40
9, 2944, Note_off_c, 9, 42, 40
9, 2976, Note_on_c, 9, 42, 54
9, 2992, Note_off_c, 9, 42, 54
9, 3024, Note_on_c, 9, 42, 40
9, 3040, Note_off_c, 9, 42, 40
9, 3072, Note_on_c, 9, 46, 68
9, 3088, Note_off_c, 9, 46, 68
9, 3120, Note_on_c, 9, 42, 40
9, 3136, Note_off_c, 9, 42, 40
9, 3168, Note_on_c, 9, 42, 54
9, 3184, Note_off_c, 9, 42, 54
9, 3216, Note_on_c, 9, 42, 54
9, 3232, Note_off_c, 9, 42, 54
9, 3264, Note_on_c, 9, 46, 68
9, 3280, Note_off_c, 9, 46, 68
9, 3312, Note_on_c, 9, 42, 40
9, 3328, Note_off_c, 9, 42, 40
9, 3360, Note_on_c, 9, 42, 54
9, 3374, Note_off_c, 9, 42, 54
9, 3408, Note_on_c, 9, 46, 68
9, 3426, Note_off_c, 9, 46, 68
9, 3456, Note_on_c, 9, 42, 54
9, 3470, Note_off_c, 9, 42, 54
9, 3504, Note_on_c, 9, 42, 40
9, 3520, Note_off_c, 9, 42, 40
9, 3552, Note_on_c, 9, 42, 54
9, 3568, Note_off_c, 9, 42, 54
9, 3600, Note_on_c, 9, 42, 40
9, 3614, Note_off_c, 9, 42, 40
9, 3648, Note_on_c, 9, 46, 72
9, 3664, Note_off_c, 9, 46, 72
9, 3696, Note_on_c, 9, 42, 40
9, 3712, Note_off_c, 9, 42, 40
9, 3744, Note_on_c, 9, 42, 56
9, 3760, Note_off_c, 9, 42, 56
9, 3792, Note_on_c, 9, 42, 40
9, 3808, Note_off_c, 9, 42, 40
9, 3840, Note_on_c, 9, 46, 68
9, 3856, Note_off_c, 9, 46, 68
9, 3888, Note_on_c, 9, 42, 40
9, 3904, Note_off_c, 9, 42, 40
9, 3936, Note_on_c, 9, 42, 54
9, 3950, Note_off_c, 9, 42, 54
9, 3984, Note_on_c, 9, 42, 54
9, 3998, Note_off_c, 9, 42, 54
9, 4032, Note_on_c, 9, 46, 68
9, 4048, Note_off_c, 9, 46, 68
9, 4080, Note_on_c, 9, 42, 40
9, 4096, Note_off_c, 9, 42, 40
9, 4128, Note_on_c, 9, 42, 54
9, 4144, Note_off_c, 9, 42, 54
9, 4176, Note_on_c, 9, 46, 68
9, 4192, Note_off_c, 9, 46, 68
9, 4224, Note_on_c, 9, 42, 54
9, 4240, Note_off_c, 9, 42, 54
9, 4272, Note_on_c, 9, 42, 40
9, 4290, Note_off_c, 9, 42, 40
9, 4320, Note_on_c, 9, 42, 54
9, 4334, Note_off_c, 9, 42, 54
9, 4368, Note_on_c, 9, 42, 40
9, 4384, Note_off_c, 9, 42, 40
9, 4416, Note_on_c, 9, 46, 68
9, 4432, Note_off_c, 9, 46, 68
9, 4464, Note_on_c, 9, 42, 40
9, 4480, Note_off_c, 9, 42, 40
9, 4512, Note_on_c, 9, 42, 54
9, 4524, Note_off_c, 9, 42, 54
9, 4560, Note_on_c, 9, 42, 40
9, 4576, Note_off_c, 9, 42, 40
9, 4608, Note_on_c, 9, 46, 68
9, 4624, Note_off_c, 9, 46, 68
9, 4656, Note_on_c, 9, 42, 40
9, 4672, Note_off_c, 9, 42, 40
9, 4704, Note_on_c, 9, 42, 54
9, 4722, Note_off_c, 9, 42, 54
9, 4752, Note_on_c, 9, 42, 54
9, 4766, Note_off_c, 9, 42, 54
9, 4800, Note_on_c, 9, 46, 68
9, 4816, Note_off_c, 9, 46, 68
9, 4848, Note_on_c, 9, 42, 40
9, 4862, Note_off_c, 9, 42, 40
9, 4896, Note_on_c, 9, 42, 54
9, 4912, Note_off_c, 9, 42, 54
9, 4944, Note_on_c, 9, 46, 68
9, 4958, Note_off_c, 9, 46, 68
9, 4992, Note_on_c, 9, 42, 56
9, 5008, Note_off_c, 9, 42, 56
9, 5040, Note_on_c, 9, 42, 40
9, 5056, Note_off_c, 9, 42, 40
9, 5088, Note_on_c, 9, 42, 56
9, 5102, Note_off_c, 9, 42, 56
9, 5136, Note_on_c, 9, 42, 40
9, 5152, Note_off_c, 9, 42, 40
9, 5184, Note_on_c, 9, 46, 68
9, 5200, Note_off_c, 9, 46, 68
9, 5232, Note_on_c, 9, 42, 40
9, 5250, Note_off_c, 9, 42, 40
9, 5280, Note_on_c, 9, 42, 54
9, 5298, Note_off_c, 9, 42, 54
9, 5328, Note_on_c, 9, 42, 40
9, 5346, Note_off_c, 9, 42, 40
9, 5376, Note_on_c, 9, 46, 68
9, 5394, Note_off_c, 9, 46, 68
9, 5424, Note_on_c, 9, 42, 40
9, 5438, Note_off_c, 9, 42, 40
9, 5472, Note_on_c, 9, 42, 54
9, 5486, Note_off_c, 9, 42, 54
9, 5520, Note_on_c, 9, 42, 54
9, 5536, Note_off_c, 9, 42, 54
9, 5568, Note_on_c, 9, 46, 68
9, 5584, Note_off_c, 9, 46, 68
9, 5616, Note_on_c, 9, 42, 40
9, 5632, Note_off_c, 9, 42, 40
9, 5664, Note_on_c, 9, 42, 54
9, 5680, Note_off_c, 9, 42, 54
9, 5712, Note_on_c, 9, 46, 68
9, 5726, Note_off_c, 9, 46, 68
9, 5760, Note_on_c, 9, 42, 54
9, 5774, Note_off_c, 9, 42, 54
9, 5808, Note_on_c, 9, 42, 40
9, 5824, Note_off_c, 9, 42, 40
9, 5856, Note_on_c, 9, 42, 54
9, 5872, Note_off_c, 9, 42, 54
9, 5904, Note_on_c, 9, 42, 40
9, 5920, Note_off_c, 9, 42, 40
9, 5952, Note_on_c, 9, 46, 68
9, 5968, Note_off_c, 9, 46, 68
9, 6000, Note_on_c, 9, 42, 40
9, 6016, Note_off_c, 9, 42, 40
9, 6048, Note_on_c, 9, 42, 56
9, 6062, Note_off_c, 9, 42, 56
9, 6096, Note_on_c, 9, 42, 40
9, 6110, Note_off_c, 9, 42, 40
9, 6144, Note_on_c, 9, 46, 72
9, 6160, Note_off_c, 9, 46, 72
9, 6192, Note_on_c, 9, 42, 40
9, 6208, Note_off_c, 9, 42, 40
9, 6240, Note_on_c, 9, 42, 54
9, 6256, Note_off_c, 9, 42, 54
9, 6288, Note_on_c, 9, 42, 54
9, 6306, Note_off_c, 9, 42, 54
9, 6336, Note_on_c, 9, 46, 68
9, 6352, Note_off_c, 9, 46, 68
9, 6384, Note_on_c, 9, 42, 40
9, 6398, Note_off_c, 9, 42, 40
9, 6432, Note_on_c, 9, 42, 54
9, 6448, Note_off_c, 9, 42, 54
9, 6480, Note_on_c, 9, 46, 68
9, 6496, Note_off_c, 9, 46, 68
9, 6528, Note_on_c, 9, 42, 54
9, 6544, Note_off_c, 9, 42, 54
9, 6576, Note_on_c, 9, 42, 40
9, 6592, Note_off_c, 9, 42, 40
9, 6624, Note_on_c, 9, 42, 54
9, 6640, Note_off_c, 9, 42, 54
9, 6672, Note_on_c, 9, 42, 40
9, 6686, Note_off_c, 9, 42, 40
9, 6720, Note_on_c, 9, 46, 68
9, 6734, Note_off_c, 9, 46, 68
9, 6768, Note_on_c, 9, 42, 40
9, 6782, Note_off_c, 9, 42, 40
9, 6816, Note_on_c, 9, 42, 54
9, 6832, Note_off_c, 9, 42, 54
9, 6864, Note_on_c, 9, 42, 40
9, 6882, Note_off_c, 9, 42, 40
9, 6912, Note_on_c, 9, 46, 68
9, 6930, Note_off_c, 9, 46, 68
9, 6960, Note_on_c, 9, 42, 40
9, 6976, Note_off_c, 9, 42, 40
9, 7008, Note_on_c, 9, 42, 54
9, 7022, Note_off_c, 9, 42, 54
9, 7056, Note_on_c, 9, 42, 54
9, 7070, Note_off_c, 9, 42, 54
9, 7104, Note_on_c, 9, 46, 68
9, 7120, Note_off_c, 9, 46, 68
9, 7152, Note_on_c, 9, 42, 40
9, 7168, Note_off_c, 9, 42, 40
9, 7200, Note_on_c, 9, 42, 54
9, 7216, Note_off_c, 9, 42, 54
9, 7248, Note_on_c, 9, 46, 68
9, 7266, Note_off_c, 9, 46, 68
9, 7296, Note_on_c, 9, 42, 54
9, 7312, Note_off_c, 9, 42, 54
9, 7344, Note_on_c, 9, 42, 40
9, 7358, Note_off_c, 9, 42, 40
9, 7392, Note_on_c, 9, 42, 54
9, 7408, Note_off_c, 9, 42, 54
9, 7440, Note_on_c, 9, 42, 40
9, 7456, Note_off_c, 9, 42, 40
9, 7488, Note_on_c, 9, 46, 68
9, 7506, Note_off_c, 9, 46, 68
9, 7536, Note_on_c, 9, 42, 40
9, 7554, Note_off_c, 9, 42, 40
9, 7584, Note_on_c, 9, 42, 54
9, 7602, Note_off_c, 9, 42, 54
9, 7632, Note_on_c, 9, 42, 40
9, 7648, Note_off_c, 9, 42, 40
9, 7680, Note_on_c, 9, 46, 68
9, 7694, Note_off_c, 9, 46, 68
9, 7728, Note_on_c, 9, 42, 40
9, 7742, Note_off_c, 9, 42, 40
9, 7776, Note_on_c, 9, 42, 54
9, 7792, Note_off_c, 9, 42, 54
9, 7824, Note_on_c, 9, 42, 54
9, 7842, Note_off_c, 9, 42, 54
9, 7872, Note_on_c, 9, 46, 68
9, 7888, Note_off_c, 9, 46, 68
9, 7920, Note_on_c, 9, 42, 40
9, 7936, Note_off_c, 9, 42, 40
9, 7968, Note_on_c, 9, 42, 54
9, 7982, Note_off_c, 9, 42, 54
9, 8016, Note_on_c, 9, 46, 68
9, 8030, Note_off_c, 9, 46, 68
9, 8064, Note_on_c, 9, 42, 54
9, 8080, Note_off_c, 9, 42, 54
9, 8112, Note_on_c, 9, 42, 40
9, 8128, Note_off_c, 9, 42, 40
9, 8160, Note_on_c, 9, 42, 54
9, 8176, Note_off_c, 9, 42, 54
9, 8208, Note_on_c, 9, 42, 40
9, 8224, Note_off_c, 9, 42, 40
9, 8256, Note_on_c, 9, 46, 68
9, 8270, Note_off_c, 9, 46, 68
9, 8304, Note_on_c, 9, 42, 40
9, 8318, Note_off_c, 9, 42, 40
9, 8352, Note_on_c, 9, 42, 54
9, 8368, Note_off_c, 9, 42, 54
9, 8400, Note_on_c, 9, 42, 40
9, 8416, Note_off_c, 9, 42, 40
9, 8448, Note_on_c, 9, 46, 68
9, 8466, Note_off_c, 9, 46, 68
9, 8496, Note_on_c, 9, 42, 40
9, 8512, Note_off_c, 9, 42, 40
9, 8544, Note_on_c, 9, 42, 54
9, 8560, Note_off_c, 9, 42, 54
9, 8592, Note_on_c, 9, 42, 54
9, 8606, Note_off_c, 9, 42, 54
9, 8640, Note_on_c, 9, 46, 68
9, 8654, Note_off_c, 9, 46, 68
9, 8688, Note_on_c, 9, 42, 40
9, 8702, Note_off_c, 9, 42, 40
9, 8736, Note_on_c, 9, 42, 54
9, 8752, Note_off_c, 9, 42, 54
9, 8784, Note_on_c, 9, 46, 68
9, 8802, Note_off_c, 9, 46, 68
9, 8832, Note_on_c, 9, 42, 54
9, 8848, Note_off_c, 9, 42, 54
9, 8880, Note_on_c, 9, 42, 40
9, 8894, Note_off_c, 9, 42, 40
9, 8928, Note_on_c, 9, 42, 54
9, 8942, Note_off_c, 9, 42, 54
9, 8976, Note_on_c, 9, 42, 40
9, 8990, Note_off_c, 9, 42, 40
9, 9024, Note_on_c, 9, 46, 68
9, 9040, Note_off_c, 9, 46, 68
9, 9072, Note_on_c, 9, 42, 40
9, 9090, Note_off_c, 9, 42, 40
9, 9120, Note_on_c, 9, 42, 54
9, 9136, Note_off_c, 9, 42, 54
9, 9168, Note_on_c, 9, 42, 40
9, 9184, Note_off_c, 9, 42, 40
9, 9216, Note_on_c, 9, 46, 68
9, 9230, Note_off_c, 9, 46, 68
9, 9264, Note_on_c, 9, 42, 40
9, 9278, Note_off_c, 9, 42, 40
9, 9312, Note_on_c, 9, 42, 54
9, 9328, Note_off_c, 9, 42, 54
9, 9360, Note_on_c, 9, 42, 54
9, 9376, Note_off_c, 9, 42, 54
9, 9408, Note_on_c, 9, 46, 68
9, 9424, Note_off_c, 9, 46, 68
9, 9456, Note_on_c, 9, 42, 40
9, 9472, Note_off_c, 9, 42, 40
9, 9504, Note_on_c, 9, 42, 54
9, 9518, Note_off_c, 9, 42, 54
9, 9552, Note_on_c, 9, 46, 68
9, 9566, Note_off_c, 9, 46, 68
9, 9600, Note_on_c, 9, 42, 54
9, 9616, Note_off_c, 9, 42, 54
9, 9648, Note_on_c, 9, 42, 40
9, 9664, Note_off_c, 9, 42, 40
9, 9696, Note_on_c, 9, 42, 54
9, 9712, Note_off_c, 9, 42, 54
9, 9744, Note_on_c, 9, 42, 40
9, 9760, Note_off_c, 9, 42, 40
9, 9792, Note_on_c, 9, 46, 68
9, 9808, Note_off_c, 9, 46, 68
9, 9840, Note_on_c, 9, 42, 40
9, 9854, Note_off_c, 9, 42, 40
9, 9888, Note_on_c, 9, 42, 54
9, 9902, Note_off_c, 9, 42, 54
9, 9936, Note_on_c, 9, 42, 40
9, 9952, Note_off_c, 9, 42, 40
9, 9984, Note_on_c, 9, 46, 68
9, 10000, Note_off_c, 9, 46, 68
9, 10032, Note_on_c, 9, 42, 40
9, 10048, Note_off_c, 9, 42, 40
9, 10080, Note_on_c, 9, 42, 54
9, 10096, Note_off_c, 9, 42, 54
9, 10128, Note_on_c, 9, 42, 54
9, 10142, Note_off_c, 9, 42, 54
9, 10176, Note_on_c, 9, 46, 68
9, 10192, Note_off_c, 9, 46, 68
9, 10224, Note_on_c, 9, 42, 40
9, 10240, Note_off_c, 9, 42, 40
9, 10272, Note_on_c, 9, 42, 54
9, 10288, Note_off_c, 9, 42, 54
9, 10320, Note_on_c, 9, 46, 68
9, 10336, Note_off_c, 9, 46, 68
9, 10368, Note_on_c, 9, 42, 54
9, 10386, Note_off_c, 9, 42, 54
9, 10416, Note_on_c, 9, 42, 40
9, 10432, Note_off_c, 9, 42, 40
9, 10464, Note_on_c, 9, 42, 54
9, 10480, Note_off_c, 9, 42, 54
9, 10512, Note_on_c, 9, 42, 40
9, 10526, Note_off_c, 9, 42, 40
9, 10560, Note_on_c, 9, 46, 72
9, 10576, Note_off_c, 9, 46, 72
9, 10608, Note_on_c, 9, 42, 40
9, 10624, Note_off_c, 9, 42, 40
9, 10656, Note_on_c, 9, 42, 56
9, 10672, Note_off_c, 9, 42, 56
9, 10704, Note_on_c, 9, 42, 40
9, 10720, Note_off_c, 9, 42, 40
9, 10752, Note_on_c, 9, 46, 72
9, 10768, Note_off_c, 9, 46, 72
9, 10800, Note_on_c, 9, 42, 40
9, 10814, Note_off_c, 9, 42, 40
9, 10848, Note_on_c, 9, 42, 56
9, 10864, Note_off_c, 9, 42, 56
9, 10896, Note_on_c, 9, 42, 56
9, 10912, Note_off_c, 9, 42, 56
9, 10944, Note_on_c, 9, 46, 72
9, 10960, Note_off_c, 9, 46, 72
9, 10992, Note_on_c, 9, 42, 40
9, 11010, Note_off_c, 9, 42, 40
9, 11040, Note_on_c, 9, 42, 56
9, 11056, Note_off_c, 9, 42, 56
9, 11088, Note_on_c, 9, 46, 72
9, 11102, Note_off_c, 9, 46, 72
9, 11136, Note_on_c, 9, 42, 56
9, 11150, Note_off_c, 9, 42, 56
9, 11184, Note_on_c, 9, 42, 40
9, 11200, Note_off_c, 9, 42, 40
9, 11232, Note_on_c, 9, 42, 56
9, 11248, Note_off_c, 9, 42, 56
9, 11280, Note_on_c, 9, 42, 40
9, 11296, Note_off_c, 9, 42, 40
9, 11328, Note_on_c, 9, 46, 72
9, 11344, Note_off_c, 9, 46, 72
9, 11376, Note_on_c, 9, 42, 40
9, 11392, Note_off_c, 9, 42, 40
9, 11424, Note_on_c, 9, 42, 54
9, 11438, Note_off_c, 9, 42, 54
9, 11472, Note_on_c, 9, 42, 40
9, 11486, Note_off_c, 9, 42, 40
9, 11520, Note_on_c, 9, 46, 68
9, 11534, Note_off_c, 9, 46, 68
9, 11568, Note_on_c, 9, 42, 40
9, 11584, Note_off_c, 9, 42, 40
9, 11616, Note_on_c, 9, 42, 54
9, 11632, Note_off_c, 9, 42, 54
9, 11664, Note_on_c, 9, 42, 54
9, 11680, Note_off_c, 9, 42, 54
9, 11712, Note_on_c, 9, 46, 68
9, 11726, Note_off_c, 9, 46, 68
9, 11760, Note_on_c, 9, 42, 40
9, 11774, Note_off_c, 9, 42, 40
9, 11808, Note_on_c, 9, 42, 54
9, 11824, Note_off_c, 9, 42, 54
9, 11856, Note_on_c, 9, 46, 68
9, 11872, Note_off_c, 9, 46, 68
9, 11904, Note_on_c, 9, 42, 54
9, 11920, Note_off_c, 9, 42, 54
9, 11952, Note_on_c, 9, 42, 40
9, 11968, Note_off_c, 9, 42, 40
9, 12000, Note_on_c, 9, 42, 54
9, 12016, Note_off_c, 9, 42, 54
9, 12048, Note_on_c, 9, 42, 40
9, 12062, Note_off_c, 9, 42, 40
9, 12096, Note_on_c, 9, 46, 68
9, 12110, Note_off_c, 9, 46, 68
9, 12144, Note_on_c, 9, 42, 40
9, 12160, Note_off_c, 9, 42, 40
9, 12192, Note_on_c, 9, 42, 54
9, 12208, Note_off_c, 9, 42, 54
9, 12240, Note_on_c, 9, 42, 40
9, 12256, Note_off_c, 9, 42, 40
9, 12288, Note_on_c, 9, 46, 68
9, 12306, Note_off_c, 9, 46, 68
9, 12336, Note_on_c, 9, 42, 40
9, 12350, Note_off_c, 9, 42, 40
9, 12384, Note_on_c, 9, 42, 54
9, 12398, Note_off_c, 9, 42, 54
9, 12432, Note_on_c, 9, 42, 54
9, 12448, Note_off_c, 9, 42, 54
9, 12480, Note_on_c, 9, 46, 68
9, 12496, Note_off_c, 9, 46, 68
9, 12528, Note_on_c, 9, 42, 40
9, 12544, Note_off_c, 9, 42, 40
9, 12576, Note_on_c, 9, 42, 54
9, 12592, Note_off_c, 9, 42, 54
9, 12624, Note_on_c, 9, 46, 68
9, 12640, Note_off_c, 9, 46, 68
9, 12672, Note_on_c, 9, 42, 54
9, 12688, Note_off_c, 9, 42, 54
9, 12720, Note_on_c, 9, 42, 40
9, 12736, Note_off_c, 9, 42, 40
9, 12768, Note_on_c, 9, 42, 56
9, 12782, Note_off_c, 9, 42, 56
9, 12816, Note_on_c, 9, 42, 40
9, 12832, Note_off_c, 9, 42, 40
9, 12864, Note_on_c, 9, 46, 72
9, 12882, Note_off_c, 9, 46, 72
9, 12912, Note_on_c, 9, 42, 40
9, 12930, Note_off_c, 9, 42, 40
9, 12960, Note_on_c, 9, 42, 56
9, 12974, Note_off_c, 9, 42, 56
9, 13008, Note_on_c, 9, 42, 40
9, 13022, Note_off_c, 9, 42, 40
9, 13056, Note_on_c, 9, 46, 68
9, 13070, Note_off_c, 9, 46, 68
9, 13104, Note_on_c, 9, 42, 40
9, 13120, Note_off_c, 9, 42, 40
9, 13152, Note_on_c, 9, 42, 54
9, 13168, Note_off_c, 9, 42, 54
9, 13200, Note_on_c, 9, 42, 54
9, 13218, Note_off_c, 9, 42, 54
9, 13248, Note_on_c, 9, 46, 68
9, 13264, Note_off_c, 9, 46, 68
9, 13296, Note_on_c, 9, 42, 40
9, 13312, Note_off_c, 9, 42, 40
9, 13344, Note_on_c, 9, 42, 54
9, 13358, Note_off_c, 9, 42, 54
9, 13392, Note_on_c, 9, 46, 68
9, 13408, Note_off_c, 9, 46, 68
9, 13440, Note_on_c, 9, 42, 54
9, 13456, Note_off_c, 9, 42, 54
9, 13488, Note_on_c, 9, 42, 40
9, 13504, Note_off_c, 9, 42, 40
9, 13536, Note_on_c, 9, 42, 54
9, 13552, Note_off_c, 9, 42, 54
9, 13584, Note_on_c, 9, 42, 40
9, 13600, Note_off_c, 9, 42, 40
9, 13632, Note_on_c, 9, 46, 68
9, 13646, Note_off_c, 9, 46, 68
9, 13680, Note_on_c, 9, 42, 40
9, 13694, Note_off_c, 9, 42, 40
9, 13728, Note_on_c, 9, 42, 54
9, 13744, Note_off_c, 9, 42, 54
9, 13776, Note_on_c, 9, 42, 40
9, 13792, Note_off_c, 9, 42, 40
9, 13824, Note_on_c, 9, 46, 68
9, 13840, Note_off_c, 9, 46, 68
9, 13872, Note_on_c, 9, 42, 40
9, 13888, Note_off_c, 9, 42, 40
9, 13920, Note_on_c, 9, 42, 54
9, 13934, Note_off_c, 9, 42, 54
9, 13968, Note_on_c, 9, 42, 54
9, 13982, Note_off_c, 9, 42, 54
9, 14016, Note_on_c, 9, 46, 68
9, 14030, Note_off_c, 9, 46, 68
9, 14064, Note_on_c, 9, 42, 40
9, 14080, Note_off_c, 9, 42, 40
9, 14112, Note_on_c, 9, 42, 54
9, 14128, Note_off_c, 9, 42, 54
9, 14160, Note_on_c, 9, 46, 68
9, 14176, Note_off_c, 9, 46, 68
9, 14208, Note_on_c, 9, 42, 54
9, 14224, Note_off_c, 9, 42, 54
9, 14256, Note_on_c, 9, 42, 40
9, 14270, Note_off_c, 9, 42, 40
9, 14304, Note_on_c, 9, 42, 54
9, 14318, Note_off_c, 9, 42, 54
9, 14352, Note_on_c, 9, 42, 40
9, 14366, Note_off_c, 9, 42, 40
9, 14400, Note_on_c, 9, 46, 68
9, 14416, Note_off_c, 9, 46, 68
9, 14448, Note_on_c, 9, 42, 40
9, 14464, Note_off_c, 9, 42, 40
9, 14496, Note_on_c, 9, 42, 54
9, 14512, Note_off_c, 9, 42, 54
9, 14544, Note_on_c, 9, 42, 40
9, 14558, Note_off_c, 9, 42, 40
9, 14592, Note_on_c, 9, 46, 68
9, 14606, Note_off_c, 9, 46, 68
9, 14640, Note_on_c, 9, 42, 40
9, 14654, Note_off_c, 9, 42, 40
9, 14688, Note_on_c, 9, 42, 56
9, 14704, Note_off_c, 9, 42, 56
9, 14736, Note_on_c, 9, 42, 56
9, 14754, Note_off_c, 9, 42, 56
9, 14784, Note_on_c, 9, 46, 72
9, 14802, Note_off_c, 9, 46, 72
9, 14832, Note_on_c, 9, 42, 40
9, 14848, Note_off_c, 9, 42, 40
9, 14880, Note_on_c, 9, 42, 54
9, 14894, Note_off_c, 9, 42, 54
9, 14928, Note_on_c, 9, 46, 68
9, 14942, Note_off_c, 9, 46, 68
9, 14976, Note_on_c, 9, 42, 54
9, 14992, Note_off_c, 9, 42, 54
9, 15024, Note_on_c, 9, 42, 40
9, 15040, Note_off_c, 9, 42, 40
9, 15072, Note_on_c, 9, 42, 54
9, 15088, Note_off_c, 9, 42, 54
9, 15120, Note_on_c, 9, 42, 40
9, 15136, Note_off_c, 9, 42, 40
9, 15168, Note_on_c, 9, 46, 68
9, 15184, Note_off_c, 9, 46, 68
9, 15216, Note_on_c, 9, 42, 40
9, 15232, Note_off_c, 9, 42, 40
9, 15264, Note_on_c, 9, 42, 54
9, 15278, Note_off_c, 9, 42, 54
9, 15312, Note_on_c, 9, 42, 40
9, 15326, Note_off_c, 9, 42, 40
9, 15360, Note_on_c, 9, 46, 68
9, 15378, Note_off_c, 9, 46, 68
9, 15408, Note_on_c, 9, 42, 40
9, 15424, Note_off_c, 9, 42, 40
9, 15456, Note_on_c, 9, 42, 54
9, 15472, Note_off_c, 9, 42, 54
9, 15504, Note_on_c, 9, 42, 54
9, 15518, Note_off_c, 9, 42, 54
9, 15552, Note_on_c, 9, 46, 68
9, 15568, Note_off_c, 9, 46, 68
9, 15600, Note_on_c, 9, 42, 40
9, 15616, Note_off_c, 9, 42, 40
9, 15648, Note_on_c, 9, 42, 54
9, 15664, Note_off_c, 9, 42, 54
9, 15696, Note_on_c, 9, 46, 68
9, 15712, Note_off_c, 9, 46, 68
9, 15744, Note_on_c, 9, 42, 54
9, 15760, Note_off_c, 9, 42, 54
9, 15792, Note_on_c, 9, 42, 40
9, 15806, Note_off_c, 9, 42, 40
9, 15840, Note_on_c, 9, 42, 54
9, 15854, Note_off_c, 9, 42, 54
9, 15888, Note_on_c, 9, 42, 40
9, 15902, Note_off_c, 9, 42, 40
9, 15936, Note_on_c, 9, 46, 68
9, 15952, Note_off_c, 9, 46, 68
9, 15984, Note_on_c, 9, 42, 40
9, 16000, Note_off_c, 9, 42, 40
9, 16032, Note_on_c, 9, 42, 54
9, 16048, Note_off_c, 9, 42, 54
9, 16080, Note_on_c, 9, 42, 40
9, 16096, Note_off_c, 9, 42, 40
9, 16128, Note_on_c, 9, 46, 68
9, 16142, Note_off_c, 9, 46, 68
9, 16176, Note_on_c, 9, 42, 40
9, 16190, Note_off_c, 9, 42, 40
9, 16224, Note_on_c, 9, 42, 54
9, 16240, Note_off_c, 9, 42, 54
9, 16272, Note_on_c, 9, 42, 56
9, 16288, Note_off_c, 9, 42, 56
9, 16320, Note_on_c, 9, 46, 72
9, 16338, Note_off_c, 9, 46, 72
9, 16368, Note_on_c, 9, 42, 40
9, 16384, Note_off_c, 9, 42, 40
9, 16416, Note_on_c, 9, 42, 56
9, 16430, Note_off_c, 9, 42, 56
9, 16464, Note_on_c, 9, 46, 72
9, 16478, Note_off_c, 9, 46, 72
9, 16512, Note_on_c, 9, 42, 56
9, 16526, Note_off_c, 9, 42, 56
9, 16560, Note_on_c, 9, 42, 40
9, 16576, Note_off_c, 9, 42, 40
9, 16608, Note_on_c, 9, 42, 56
9, 16624, Note_off_c, 9, 42, 56
9, 16656, Note_on_c, 9, 42, 40
9, 16674, Note_off_c, 9, 42, 40
9, 16704, Note_on_c, 9, 46, 68
9, 16720, Note_off_c, 9, 46, 68
9, 16752, Note_on_c, 9, 42, 40
9, 16766, Note_off_c, 9, 42, 40
9, 16800, Note_on_c, 9, 42, 54
9, 16814, Note_off_c, 9, 42, 54
9, 16848, Note_on_c, 9, 42, 40
9, 16864, Note_off_c, 9, 42, 40
9, 16896, Note_on_c, 9, 46, 68
9, 16910, Note_off_c, 9, 46, 68
9, 16944, Note_on_c, 9, 42, 40
9, 16962, Note_off_c, 9, 42, 40
9, 16992, Note_on_c, 9, 42, 54
9, 17010, Note_off_c, 9, 42, 54
9, 17040, Note_on_c, 9, 42, 54
9, 17056, Note_off_c, 9, 42, 54
9, 17088, Note_on_c, 9, 46, 68
9, 17102, Note_off_c, 9, 46, 68
9, 17136, Note_on_c, 9, 42, 40
9, 17152, Note_off_c, 9, 42, 40
9, 17184, Note_on_c, 9, 42, 54
9, 17200, Note_off_c, 9, 42, 54
9, 17232, Note_on_c, 9, 46, 68
9, 17248, Note_off_c, 9, 46, 68
9, 17280, Note_on_c, 9, 42, 54
9, 17298, Note_off_c, 9, 42, 54
9, 17328, Note_on_c, 9, 42, 40
9, 17344, Note_off_c, 9, 42, 40
9, 17376, Note_on_c, 9, 42, 54
9, 17392, Note_off_c, 9, 42, 54
9, 17424, Note_on_c, 9, 42, 40
9, 17438, Note_off_c, 9, 42, 40
9, 17472, Note_on_c, 9, 46, 68
9, 17488, Note_off_c, 9, 46, 68
9, 17520, Note_on_c, 9, 42, 40
9, 17536, Note_off_c, 9, 42, 40
9, 17568, Note_on_c, 9, 42, 54
9, 17584, Note_off_c, 9, 42, 54
9, 17616, Note_on_c, 9, 42, 40
9, 17634, Note_off_c, 9, 42, 40
9, 17664, Note_on_c, 9, 46, 68
9, 17680, Note_off_c, 9, 46, 68
9, 17712, Note_on_c, 9, 42, 40
9, 17726, Note_off_c, 9, 42, 40
9, 17760, Note_on_c, 9, 42, 54
9, 17776, Note_off_c, 9, 42, 54
9, 17808, Note_on_c, 9, 42, 54
9, 17824, Note_off_c, 9, 42, 54
9, 17856, Note_on_c, 9, 46, 68
9, 17872, Note_off_c, 9, 46, 68
9, 17904, Note_on_c, 9, 42, 40
9, 17922, Note_off_c, 9, 42, 40
9, 17952, Note_on_c, 9, 42, 54
9, 17968, Note_off_c, 9, 42, 54
9, 18000, Note_on_c, 9, 46, 68
9, 18016, Note_off_c, 9, 46, 68
9, 18048, Note_on_c, 9, 42, 54
9, 18062, Note_off_c, 9, 42, 54
9, 18096, Note_on_c, 9, 42, 40
9, 18112, Note_off_c, 9, 42, 40
9, 18144, Note_on_c, 9, 42, 54
9, 18160, Note_off_c, 9, 42, 54
9, 18192, Note_on_c, 9, 42, 40
9, 18208, Note_off_c, 9, 42, 40
9, 18240, Note_on_c, 9, 46, 68
9, 18256, Note_off_c, 9, 46, 68
9, 18288, Note_on_c, 9, 42, 40
9, 18304, Note_off_c, 9, 42, 40
9, 18336, Note_on_c, 9, 42, 54
9, 18352, Note_off_c, 9, 42, 54
9, 18384, Note_on_c, 9, 42, 40
9, 18398, Note_off_c, 9, 42, 40
9, 18432, Note_on_c, 9, 46, 72
9, 18448, Note_off_c, 9, 46, 72
9, 18480, Note_on_c, 9, 42, 40
9, 18496, Note_off_c, 9, 42, 40
9, 18528, Note_on_c, 9, 42, 56
9, 18544, Note_off_c, 9, 42, 56
9, 18576, Note_on_c, 9, 42, 56
9, 18594, Note_off_c, 9, 42, 56
9, 18624, Note_on_c, 9, 46, 72
9, 18640, Note_off_c, 9, 46, 72
9, 18672, Note_on_c, 9, 42, 40
9, 18686, Note_off_c, 9, 42, 40
9, 18720, Note_on_c, 9, 42, 54
9, 18736, Note_off_c, 9, 42, 54
9, 18768, Note_on_c, 9, 46, 68
9, 18784, Note_off_c, 9, 46, 68
9, 18816, Note_on_c, 9, 42, 54
9, 18832, Note_off_c, 9, 42, 54
9, 18864, Note_on_c, 9, 42, 40
9, 18880, Note_off_c, 9, 42, 40
9, 18912, Note_on_c, 9, 42, 54
9, 18928, Note_off_c, 9, 42, 54
9, 18960, Note_on_c, 9, 42, 40
9, 18974, Note_off_c, 9, 42, 40
9, 19008, Note_on_c, 9, 46, 68
9, 19024, Note_off_c, 9, 46, 68
9, 19056, Note_on_c, 9, 42, 40
9, 19072, Note_off_c, 9, 42, 40
9, 19104, Note_on_c, 9, 42, 54
9, 19120, Note_off_c, 9, 42, 54
9, 19152, Note_on_c, 9, 42, 40
9, 19168, Note_off_c, 9, 42, 40
9, 19200, Note_on_c, 9, 46, 68
9, 19216, Note_off_c, 9, 46, 68
9, 19248, Note_on_c, 9, 42, 40
9, 19264, Note_off_c, 9, 42, 40
9, 19296, Note_on_c, 9, 42, 54
9, 19312, Note_off_c, 9, 42, 54
9, 19344, Note_on_c, 9, 42, 54
9, 19360, Note_off_c, 9, 42, 54
9, 19392, Note_on_c, 9, 46, 68
9, 19408, Note_off_c, 9, 46, 68
9, 19440, Note_on_c, 9, 42, 40
9, 19456, Note_off_c, 9, 42, 40
9, 19488, Note_on_c, 9, 42, 54
9, 19506, Note_off_c, 9, 42, 54
9, 19536, Note_on_c, 9, 46, 68
9, 19554, Note_off_c, 9, 46, 68
9, 19584, Note_on_c, 9, 42, 54
9, 19598, Note_off_c, 9, 42, 54
9, 19632, Note_on_c, 9, 42, 40
9, 19646, Note_off_c, 9, 42, 40
9, 19680, Note_on_c, 9, 42, 54
9, 19696, Note_off_c, 9, 42, 54
9, 19728, Note_on_c, 9, 42, 40
9, 19744, Note_off_c, 9, 42, 40
9, 19776, Note_on_c, 9, 46, 68
9, 19792, Note_off_c, 9, 46, 68
9, 19824, Note_on_c, 9, 42, 40
9, 19840, Note_off_c, 9, 42, 40
9, 19872, Note_on_c, 9, 42, 54
9, 19888, Note_off_c, 9, 42, 54
9, 19920, Note_on_c, 9, 42, 40
9, 19934, Note_off_c, 9, 42, 40
9, 19968, Note_on_c, 9, 46, 68
9, 19984, Note_off_c, 9, 46, 68
9, 20016, Note_on_c, 9, 42, 40
9, 20032, Note_off_c, 9, 42, 40
9, 20064, Note_on_c, 9, 42, 54
9, 20080, Note_off_c, 9, 42, 54
9, 20112, Note_on_c, 9, 42, 54
9, 20128, Note_off_c, 9, 42, 54
9, 20160, Note_on_c, 9, 46, 68
9, 20176, Note_off_c, 9, 46, 68
9, 20208, Note_on_c, 9, 42, 40
9, 20222, Note_off_c, 9, 42, 40
9, 20256, Note_on_c, 9, 42, 54
9, 20272, Note_off_c, 9, 42, 54
9, 20304, Note_on_c, 9, 46, 68
9, 20320, Note_off_c, 9, 46, 68
9, 20352, Note_on_c, 9, 42, 54
9, 20368, Note_off_c, 9, 42, 54
9, 20400, Note_on_c, 9, 42, 40
9, 20416, Note_off_c, 9, 42, 40
9, 20448, Note_on_c, 9, 42, 54
9, 20464, Note_off_c, 9, 42, 54
9, 20496, Note_on_c, 9, 42, 40
9, 20512, Note_off_c, 9, 42, 40
9, 20544, Note_on_c, 9, 46, 68
9, 20560, Note_off_c, 9, 46, 68
9, 20592, Note_on_c, 9, 42, 40
9, 20608, Note_off_c, 9, 42, 40
9, 20640, Note_on_c, 9, 42, 54
9, 20656, Note_off_c, 9, 42, 54
9, 20688, Note_on_c, 9, 42, 40
9, 20702, Note_off_c, 9, 42, 40
9, 20736, Note_on_c, 9, 46, 72
9, 20754, Note_off_c, 9, 46, 72
9, 20784, Note_on_c, 9, 42, 40
9, 20800, Note_off_c, 9, 42, 40
9, 20832, Note_on_c, 9, 42, 56
9, 20848, Note_off_c, 9, 42, 56
9, 20880, Note_on_c, 9, 42, 56
9, 20896, Note_off_c, 9, 42, 56
9, 20928, Note_on_c, 9, 46, 68
9, 20944, Note_off_c, 9, 46, 68
9, 20976, Note_on_c, 9, 42, 40
9, 20992, Note_off_c, 9, 42, 40
9, 21024, Note_on_c, 9, 42, 54
9, 21040, Note_off_c, 9, 42, 54
9, 21072, Note_on_c, 9, 46, 68
9, 21090, Note_off_c, 9, 46, 68
9, 21120, Note_on_c, 9, 42, 54
9, 21136, Note_off_c, 9, 42, 54
9, 21168, Note_on_c, 9, 42, 40
9, 21182, Note_off_c, 9, 42, 40
9, 21216, Note_on_c, 9, 42, 56
9, 21230, Note_off_c, 9, 42, 56
9, 21264, Note_on_c, 9, 42, 40
9, 21280, Note_off_c, 9, 42, 40
9, 21312, Note_on_c, 9, 46, 72
9, 21328, Note_off_c, 9, 46, 72
9, 21360, Note_on_c, 9, 42, 40
9, 21376, Note_off_c, 9, 42, 40
9, 21408, Note_on_c, 9, 42, 54
9, 21424, Note_off_c, 9, 42, 54
9, 21456, Note_on_c, 9, 42, 40
9, 21470, Note_off_c, 9, 42, 40
9, 21504, Note_on_c, 9, 46, 68
9, 21518, Note_off_c, 9, 46, 68
9, 21552, Note_on_c, 9, 42, 40
9, 21566, Note_off_c, 9, 42, 40
9, 21600, Note_on_c, 9, 42, 54
9, 21616, Note_off_c, 9, 42, 54
9, 21648, Note_on_c, 9, 42, 54
9, 21664, Note_off_c, 9, 42, 54
9, 21696, Note_on_c, 9, 46, 68
9, 21712, Note_off_c, 9, 46, 68
9, 21744, Note_on_c, 9, 42, 40
9, 21760, Note_off_c, 9, 42, 40
9, 21792, Note_on_c, 9, 42, 54
9, 21806, Note_off_c, 9, 42, 54
9, 21840, Note_on_c, 9, 46, 68
9, 21854, Note_off_c, 9, 46, 68
9, 21888, Note_on_c, 9, 42, 54
9, 21904, Note_off_c, 9, 42, 54
9, 21936, Note_on_c, 9, 42, 40
9, 21952, Note_off_c, 9, 42, 40
9, 21984, Note_on_c, 9, 42, 54
9, 22000, Note_off_c, 9, 42, 54
9, 22032, Note_on_c, 9, 42, 40
9, 22048, Note_off_c, 9, 42, 40
9, 22080, Note_on_c, 9, 46, 68
9, 22096, Note_off_c, 9, 46, 68
9, 22128, Note_on_c, 9, 42, 40
9, 22142, Note_off_c, 9, 42, 40
9, 22176, Note_on_c, 9, 42, 54
9, 22192, Note_off_c, 9, 42, 54
9, 22224, Note_on_c, 9, 42, 40
9, 22240, Note_off_c, 9, 42, 40
9, 22272, Note_on_c, 9, 46, 68
9, 22288, Note_off_c, 9, 46, 68
9, 22320, Note_on_c, 9, 42, 40
9, 22336, Note_off_c, 9, 42, 40
9, 22368, Note_on_c, 9, 42, 54
9, 22384, Note_off_c, 9, 42, 54
9, 22416, Note_on_c, 9, 42, 54
9, 22432, Note_off_c, 9, 42, 54
9, 22464, Note_on_c, 9, 46, 68
9, 22478, Note_off_c, 9, 46, 68
9, 22512, Note_on_c, 9, 42, 40
9, 22526, Note_off_c, 9, 42, 40
9, 22560, Note_on_c, 9, 42, 54
9, 22576, Note_off_c, 9, 42, 54
9, 22608, Note_on_c, 9, 46, 68
9, 22626, Note_off_c, 9, 46, 68
9, 22656, Note_on_c, 9, 42, 56
9, 22674, Note_off_c, 9, 42, 56
9, 22704, Note_on_c, 9, 42, 40
9, 22720, Note_off_c, 9, 42, 40
9, 22752, Note_on_c, 9, 42, 56
9, 22766, Note_off_c, 9, 42, 56
9, 22800, Note_on_c, 9, 42, 40
9, 22816, Note_off_c, 9, 42, 40
9, 22848, Note_on_c, 9, 46, 72
9, 22864, Note_off_c, 9, 46, 72
9, 22896, Note_on_c, 9, 42, 40
9, 22912, Note_off_c, 9, 42, 40
9, 22944, Note_on_c, 9, 42, 54
9, 22962, Note_off_c, 9, 42, 54
9, 22992, Note_on_c, 9, 42, 40
9, 23008, Note_off_c, 9, 42, 40
9, 23040, Note_on_c, 9, 46, 68
9, 23056, Note_off_c, 9, 46, 68
9, 23088, Note_on_c, 9, 42, 40
9, 23102, Note_off_c, 9, 42, 40
9, 23136, Note_on_c, 9, 42, 54
9, 23152, Note_off_c, 9, 42, 54
9, 23184, Note_on_c, 9, 42, 54
9, 23200, Note_off_c, 9, 42, 54
9, 23232, Note_on_c, 9, 46, 68
9, 23248, Note_off_c, 9, 46, 68
9, 23280, Note_on_c, 9, 42, 40
9, 23296, Note_off_c, 9, 42, 40
9, 23328, Note_on_c, 9, 42, 54
9, 23344, Note_off_c, 9, 42, 54
9, 23376, Note_on_c, 9, 46, 68
9, 23390, Note_off_c, 9, 46, 68
9, 23424, Note_on_c, 9, 42, 54
9, 23438, Note_off_c, 9, 42, 54
9, 23472, Note_on_c, 9, 42, 40
9, 23488, Note_off_c, 9, 42, 40
9, 23520, Note_on_c, 9, 42, 54
9, 23536, Note_off_c, 9, 42, 54
9, 23568, Note_on_c, 9, 42, 40
9, 23586, Note_off_c, 9, 42, 40
9, 23616, Note_on_c, 9, 46, 72
9, 23632, Note_off_c, 9, 46, 72
9, 23664, Note_on_c, 9, 42, 40
9, 23680, Note_off_c, 9, 42, 40
9, 23712, Note_on_c, 9, 42, 56
9, 23728, Note_off_c, 9, 42, 56
9, 23760, Note_on_c, 9, 42, 40
9, 23776, Note_off_c, 9, 42, 40
9, 23808, Note_on_c, 9, 46, 72
9, 23824, Note_off_c, 9, 46, 72
9, 23856, Note_on_c, 9, 42, 40
9, 23872, Note_off_c, 9, 42, 40
9, 23904, Note_on_c, 9, 42, 56
9, 23920, Note_off_c, 9, 42, 56
9, 23952, Note_on_c, 9, 42, 54
9, 23968, Note_off_c, 9, 42, 54
9, 24000, Note_on_c, 9, 46, 68
9, 24016, Note_off_c, 9, 46, 68
9, 24048, Note_on_c, 9, 42, 40
9, 24062, Note_off_c, 9, 42, 40
9, 24096, Note_on_c, 9, 42, 54
9, 24112, Note_off_c, 9, 42, 54
9, 24144, Note_on_c, 9, 46, 68
9, 24160, Note_off_c, 9, 46, 68
9, 24192, Note_on_c, 9, 42, 54
9, 24208, Note_off_c, 9, 42, 54
9, 24240, Note_on_c, 9, 42, 40
9, 24256, Note_off_c, 9, 42, 40
9, 24288, Note_on_c, 9, 42, 54
9, 24304, Note_off_c, 9, 42, 54
9, 24336, Note_on_c, 9, 42, 40
9, 24352, Note_off_c, 9, 42, 40
9, 24384, Note_on_c, 9, 46, 68
9, 24400, Note_off_c, 9, 46, 68
9, 24432, Note_on_c, 9, 42, 40
9, 24448, Note_off_c, 9, 42, 40
9, 24480, Note_on_c, 9, 42, 54
9, 24496, Note_off_c, 9, 42, 54
9, 24528, Note_on_c, 9, 42, 40
9, 24544, Note_off_c, 9, 42, 40
9, 24576, Note_on_c, 9, 46, 68
9, 24594, Note_off_c, 9, 46, 68
9, 24624, Note_on_c, 9, 42, 40
9, 24638, Note_off_c, 9, 42, 40
9, 24672, Note_on_c, 9, 42, 54
9, 24686, Note_off_c, 9, 42, 54
9, 24720, Note_on_c, 9, 42, 54
9, 24736, Note_off_c, 9, 42, 54
9, 24768, Note_on_c, 9, 46, 68
9, 24784, Note_off_c, 9, 46, 68
9, 24816, Note_on_c, 9, 42, 40
9, 24832, Note_off_c, 9, 42, 40
9, 24864, Note_on_c, 9, 42, 54
9, 24880, Note_off_c, 9, 42, 54
9, 24912, Note_on_c, 9, 46, 68
9, 24930, Note_off_c, 9, 46, 68
9, 24960, Note_on_c, 9, 42, 54
9, 24974, Note_off_c, 9, 42, 54
9, 25008, Note_on_c, 9, 42, 40
9, 25022, Note_off_c, 9, 42, 40
9, 25056, Note_on_c, 9, 42, 54
9, 25072, Note_off_c, 9, 42, 54
9, 25104, Note_on_c, 9, 42, 40
9, 25120, Note_off_c, 9, 42, 40
9, 25152, Note_on_c, 9, 46, 68
9, 25170, Note_off_c, 9, 46, 68
9, 25200, Note_on_c, 9, 42, 40
9, 25218, Note_off_c, 9, 42, 40
9, 25248, Note_on_c, 9, 42, 54
9, 25264, Note_off_c, 9, 42, 54
9, 25296, Note_on_c, 9, 42, 40
9, 25310, Note_off_c, 9, 42, 40
9, 25344, Note_on_c, 9, 46, 68
9, 25358, Note_off_c, 9, 46, 68
9, 25392, Note_on_c, 9, 42, 40
9, 25408, Note_off_c, 9, 42, 40
9, 25440, Note_on_c, 9, 42, 54
9, 25456, Note_off_c, 9, 42, 54
9, 25488, Note_on_c, 9, 42, 54
9, 25504, Note_off_c, 9, 42, 54
9, 25536, Note_on_c, 9, 46, 68
9, 25552, Note_off_c, 9, 46, 68
9, 25584, Note_on_c, 9, 42, 40
9, 25598, Note_off_c, 9, 42, 40
9, 25632, Note_on_c, 9, 42, 56
9, 25648, Note_off_c, 9, 42, 56
9, 25680, Note_on_c, 9, 46, 72
9, 25696, Note_off_c, 9, 46, 72
9, 25728, Note_on_c, 9, 42, 56
9, 25744, Note_off_c, 9, 42, 56
9, 25776, Note_on_c, 9, 42, 40
9, 25792, Note_off_c, 9, 42, 40
9, 25824, Note_on_c, 9, 42, 56
9, 25840, Note_off_c, 9, 42, 56
9, 25872, Note_on_c, 9, 42, 40
9, 25890, Note_off_c, 9, 42, 40
9, 25920, Note_on_c, 9, 46, 68
9, 25934, Note_off_c, 9, 46, 68
9, 25968, Note_on_c, 9, 42, 40
9, 25982, Note_off_c, 9, 42, 40
9, 26016, Note_on_c, 9, 42, 54
9, 26032, Note_off_c, 9, 42, 54
9, 26064, Note_on_c, 9, 42, 40
9, 26080, Note_off_c, 9, 42, 40
9, 26112, Note_on_c, 9, 46, 68
9, 26130, Note_off_c, 9, 46, 68
9, 26160, Note_on_c, 9, 42, 40
9, 26176, Note_off_c, 9, 42, 40
9, 26208, Note_on_c, 9, 42, 54
9, 26222, Note_off_c, 9, 42, 54
9, 26256, Note_on_c, 9, 42, 54
9, 26272, Note_off_c, 9, 42, 54
9, 26304, Note_on_c, 9, 46, 72
9, 26320, Note_off_c, 9, 46, 72
9, 26352, Note_on_c, 9, 42, 40
9, 26368, Note_off_c, 9, 42, 40
9, 26400, Note_on_c, 9, 42, 56
9, 26416, Note_off_c, 9, 42, 56
9, 26448, Note_on_c, 9, 46, 72
9, 26466, Note_off_c, 9, 46, 72
9, 26496, Note_on_c, 9, 42, 56
9, 26512, Note_off_c, 9, 42, 56
9, 26544, Note_on_c, 9, 42, 40
9, 26560, Note_off_c, 9, 42, 40
9, 26592, Note_on_c, 9, 42, 54
9, 26608, Note_off_c, 9, 42, 54
9, 26640, Note_on_c, 9, 42, 40
9, 26656, Note_off_c, 9, 42, 40
9, 26688, Note_on_c, 9, 46, 68
9, 26706, Note_off_c, 9, 46, 68
9, 26736, Note_on_c, 9, 42, 40
9, 26752, Note_off_c, 9, 42, 40
9, 26784, Note_on_c, 9, 42, 54
9, 26800, Note_off_c, 9, 42, 54
9, 26832, Note_on_c, 9, 42, 40
9, 26846, Note_off_c, 9, 42, 40
9, 26880, Note_on_c, 9, 46, 68
9, 26894, Note_off_c, 9, 46, 68
9, 26928, Note_on_c, 9, 42, 40
9, 26942, Note_off_c, 9, 42, 40
9, 26976, Note_on_c, 9, 42, 54
9, 26992, Note_off_c, 9, 42, 54
9, 27024, Note_on_c, 9, 42, 54
9, 27042, Note_off_c, 9, 42, 54
9, 27072, Note_on_c, 9, 46, 68
9, 27088, Note_off_c, 9, 46, 68
9, 27120, Note_on_c, 9, 42, 40
9, 27136, Note_off_c, 9, 42, 40
9, 27168, Note_on_c, 9, 42, 54
9, 27182, Note_off_c, 9, 42, 54
9, 27216, Note_on_c, 9, 46, 68
9, 27232, Note_off_c, 9, 46, 68
9, 27264, Note_on_c, 9, 42, 54
9, 27280, Note_off_c, 9, 42, 54
9, 27312, Note_on_c, 9, 42, 40
9, 27330, Note_off_c, 9, 42, 40
9, 27360, Note_on_c, 9, 42, 54
9, 27376, Note_off_c, 9, 42, 54
9, 27408, Note_on_c, 9, 42, 40
9, 27424, Note_off_c, 9, 42, 40
9, 27456, Note_on_c, 9, 46, 68
9, 27472, Note_off_c, 9, 46, 68
9, 27504, Note_on_c, 9, 42, 40
9, 27520, Note_off_c, 9, 42, 40
9, 27552, Note_on_c, 9, 42, 54
9, 27568, Note_off_c, 9, 42, 54
9, 27600, Note_on_c, 9, 42, 40
9, 27616, Note_off_c, 9, 42, 40
9, 27648, Note_on_c, 9, 46, 68
9, 27666, Note_off_c, 9, 46, 68
9, 27696, Note_on_c, 9, 42, 40
9, 27714, Note_off_c, 9, 42, 40
9, 27744, Note_on_c, 9, 42, 54
9, 27760, Note_off_c, 9, 42, 54
9, 27792, Note_on_c, 9, 42, 54
9, 27806, Note_off_c, 9, 42, 54
9, 27840, Note_on_c, 9, 46, 68
9, 27854, Note_off_c, 9, 46, 68
9, 27888, Note_on_c, 9, 42, 40
9, 27904, Note_off_c, 9, 42, 40
9, 27936, Note_on_c, 9, 42, 54
9, 27952, Note_off_c, 9, 42, 54
9, 27984, Note_on_c, 9, 46, 68
9, 28002, Note_off_c, 9, 46, 68
9, 28032, Note_on_c, 9, 42, 54
9, 28048, Note_off_c, 9, 42, 54
9, 28080, Note_on_c, 9, 42, 40
9, 28096, Note_off_c, 9, 42, 40
9, 28128, Note_on_c, 9, 42, 54
9, 28142, Note_off_c, 9, 42, 54
9, 28176, Note_on_c, 9, 42, 40
9, 28192, Note_off_c, 9, 42, 40
9, 28224, Note_on_c, 9, 46, 68
9, 28240, Note_off_c, 9, 46, 68
9, 28272, Note_on_c, 9, 42, 40
9, 28288, Note_off_c, 9, 42, 40
9, 28320, Note_on_c, 9, 42, 54
9, 28336, Note_off_c, 9, 42, 54
9, 28368, Note_on_c, 9, 42, 40
9, 28384, Note_off_c, 9, 42, 40
9, 28416, Note_on_c, 9, 46, 68
9, 28430, Note_off_c, 9, 46, 68
9, 28464, Note_on_c, 9, 42, 40
9, 28478, Note_off_c, 9, 42, 40
9, 28512, Note_on_c, 9, 42, 54
9, 28528, Note_off_c, 9, 42, 54
9, 28560, Note_on_c, 9, 42, 54
9, 28576, Note_off_c, 9, 42, 54
9, 28608, Note_on_c, 9, 46, 68
9, 28626, Note_off_c, 9, 46, 68
9, 28656, Note_on_c, 9, 42, 40
9, 28672, Note_off_c, 9, 42, 40
9, 28704, Note_on_c, 9, 42, 54
9, 28718, Note_off_c, 9, 42, 54
9, 28752, Note_on_c, 9, 46, 68
9, 28766, Note_off_c, 9, 46, 68
9, 28800, Note_on_c, 9, 42, 54
9, 28816, Note_off_c, 9, 42, 54
9, 28848, Note_on_c, 9, 42, 40
9, 28864, Note_off_c, 9, 42, 40
9, 28896, Note_on_c, 9, 42, 54
9, 28912, Note_off_c, 9, 42, 54
9, 28944, Note_on_c, 9, 42, 40
9, 28960, Note_off_c, 9, 42, 40
9, 28992, Note_on_c, 9, 46, 68
9, 29008, Note_off_c, 9, 46, 68
9, 29040, Note_on_c, 9, 42, 40
9, 29056, Note_off_c, 9, 42, 40
9, 29088, Note_on_c, 9, 42, 54
9, 29102, Note_off_c, 9, 42, 54
9, 29136, Note_on_c, 9, 42, 40
9, 29152, Note_off_c, 9, 42, 40
9, 29184, Note_on_c, 9, 46, 68
9, 29200, Note_off_c, 9, 46, 68
9, 29232, Note_on_c, 9, 42, 40
9, 29248, Note_off_c, 9, 42, 40
9, 29280, Note_on_c, 9, 42, 54
9, 29296, Note_off_c, 9, 42, 54
9, 29328, Note_on_c, 9, 42, 54
9, 29342, Note_off_c, 9, 42, 54
9, 29376, Note_on_c, 9, 46, 68
9, 29390, Note_off_c, 9, 46, 68
9, 29424, Note_on_c, 9, 42, 40
9, 29440, Note_off_c, 9, 42, 40
9, 29472, Note_on_c, 9, 42, 54
9, 29488, Note_off_c, 9, 42, 54
9, 29520, Note_on_c, 9, 46, 68
9, 29536, Note_off_c, 9, 46, 68
9, 29568, Note_on_c, 9, 42, 54
9, 29584, Note_off_c, 9, 42, 54
9, 29616, Note_on_c, 9, 42, 40
9, 29632, Note_off_c, 9, 42, 40
9, 29664, Note_on_c, 9, 42, 54
9, 29678, Note_off_c, 9, 42, 54
9, 29712, Note_on_c, 9, 42, 40
9, 29726, Note_off_c, 9, 42, 40
9, 29760, Note_on_c, 9, 46, 68
9, 29776, Note_off_c, 9, 46, 68
9, 29808, Note_on_c, 9, 42, 40
9, 29824, Note_off_c, 9, 42, 40
9, 29856, Note_on_c, 9, 42, 54
9, 29872, Note_off_c, 9, 42, 54
9, 29904, Note_on_c, 9, 42, 40
9, 29922, Note_off_c, 9, 42, 40
9, 29952, Note_on_c, 9, 46, 68
9, 29968, Note_off_c, 9, 46, 68
9, 30000, Note_on_c, 9, 42, 40
9, 30016, Note_off_c, 9, 42, 40
9, 30048, Note_on_c, 9, 42, 54
9, 30064, Note_off_c, 9, 42, 54
9, 30096, Note_on_c, 9, 42, 54
9, 30112, Note_off_c, 9, 42, 54
9, 30144, Note_on_c, 9, 46, 68
9, 30160, Note_off_c, 9, 46, 68
9, 30192, Note_on_c, 9, 42, 40
9, 30210, Note_off_c, 9, 42, 40
9, 30240, Note_on_c, 9, 42, 54
9, 30256, Note_off_c, 9, 42, 54
9, 30288, Note_on_c, 9, 46, 68
9, 30302, Note_off_c, 9, 46, 68
9, 30336, Note_on_c, 9, 42, 56
9, 30352, Note_off_c, 9, 42, 56
9, 30384, Note_on_c, 9, 42, 40
9, 30400, Note_off_c, 9, 42, 40
9, 30432, Note_on_c, 9, 42, 56
9, 30448, Note_off_c, 9, 42, 56
9, 30480, Note_on_c, 9, 42, 40
9, 30496, Note_off_c, 9, 42, 40
9, 30528, Note_on_c, 9, 46, 68
9, 30544, Note_off_c, 9, 46, 68
9, 30576, Note_on_c, 9, 42, 40
9, 30592, Note_off_c, 9, 42, 40
9, 30624, Note_on_c, 9, 42, 54
9, 30638, Note_off_c, 9, 42, 54
9, 30672, Note_on_c, 9, 42, 40
9, 30686, Note_off_c, 9, 42, 40
9, 30720, Note_on_c, 9, 46, 68
9, 30736, Note_off_c, 9, 46, 68
9, 30768, Note_on_c, 9, 42, 40
9, 30784, Note_off_c, 9, 42, 40
9, 30816, Note_on_c, 9, 42, 54
9, 30832, Note_off_c, 9, 42, 54
9, 30864, Note_on_c, 9, 42, 54
9, 30882, Note_off_c, 9, 42, 54
9, 30912, Note_on_c, 9, 46, 68
9, 30926, Note_off_c, 9, 46, 68
9, 30960, Note_on_c, 9, 42, 40
9, 30974, Note_off_c, 9, 42, 40
9, 31008, Note_on_c, 9, 42, 54
9, 31022, Note_off_c, 9, 42, 54
9, 31056, Note_on_c, 9, 46, 68
9, 31072, Note_off_c, 9, 46, 68
9, 31104, Note_on_c, 9, 42, 54
9, 31120, Note_off_c, 9, 42, 54
9, 31152, Note_on_c, 9, 42, 40
9, 31168, Note_off_c, 9, 42, 40
9, 31200, Note_on_c, 9, 42, 56
9, 31216, Note_off_c, 9, 42, 56
9, 31248, Note_on_c, 9, 42, 40
9, 31262, Note_off_c, 9, 42, 40
9, 31296, Note_on_c, 9, 46, 72
9, 31312, Note_off_c, 9, 46, 72
9, 31344, Note_on_c, 9, 42, 40
9, 31360, Note_off_c, 9, 42, 40
9, 31392, Note_on_c, 9, 42, 54
9, 31408, Note_off_c, 9, 42, 54
9, 31440, Note_on_c, 9, 42, 40
9, 31456, Note_off_c, 9, 42, 40
9, 31488, Note_on_c, 9, 46, 68
9, 31504, Note_off_c, 9, 46, 68
9, 31536, Note_on_c, 9, 42, 40
9, 31552, Note_off_c, 9, 42, 40
9, 31584, Note_on_c, 9, 42, 54
9, 31598, Note_off_c, 9, 42, 54
9, 31632, Note_on_c, 9, 42, 54
9, 31648, Note_off_c, 9, 42, 54
9, 31680, Note_on_c, 9, 46, 68
9, 31696, Note_off_c, 9, 46, 68
9, 31728, Note_on_c, 9, 42, 40
9, 31744, Note_off_c, 9, 42, 40
9, 31776, Note_on_c, 9, 42, 54
9, 31792, Note_off_c, 9, 42, 54
9, 31824, Note_on_c, 9, 46, 68
9, 31840, Note_off_c, 9, 46, 68
9, 31872, Note_on_c, 9, 42, 54
9, 31888, Note_off_c, 9, 42, 54
9, 31920, Note_on_c, 9, 42, 40
9, 31934, Note_off_c, 9, 42, 40
9, 31968, Note_on_c, 9, 42, 54
9, 31984, Note_off_c, 9, 42, 54
9, 32016, Note_on_c, 9, 42, 40
9, 32032, Note_off_c, 9, 42, 40
9, 32064, Note_on_c, 9, 46, 68
9, 32080, Note_off_c, 9, 46, 68
9, 32112, Note_on_c, 9, 42, 40
9, 32128, Note_off_c, 9, 42, 40
9, 32160, Note_on_c, 9, 42, 54
9, 32176, Note_off_c, 9, 42, 54
9, 32208, Note_on_c, 9, 42, 40
9, 32224, Note_off_c, 9, 42, 40
9, 32256, Note_on_c, 9, 46, 72
9, 32272, Note_off_c, 9, 46, 72
9, 32304, Note_on_c, 9, 42, 40
9, 32320, Note_off_c, 9, 42, 40
9, 32352, Note_on_c, 9, 42, 56
9, 32368, Note_off_c, 9, 42, 56
9, 32400, Note_on_c, 9, 42, 56
9, 32416, Note_off_c, 9, 42, 56
9, 32448, Note_on_c, 9, 46, 72
9, 32464, Note_off_c, 9, 46, 72
9, 32496, Note_on_c, 9, 42, 40
9, 32510, Note_off_c, 9, 42, 40
9, 32544, Note_on_c, 9, 42, 54
9, 32560, Note_off_c, 9, 42, 54
9, 32592, Note_on_c, 9, 46, 68
9, 32608, Note_off_c, 9, 46, 68
9, 32640, Note_on_c, 9, 42, 54
9, 32656, Note_off_c, 9, 42, 54
9, 32688, Note_on_c, 9, 42, 40
9, 32704, Note_off_c, 9, 42, 40
9, 32736, Note_on_c, 9, 42, 54
9, 32752, Note_off_c, 9, 42, 54
9, 32784, Note_on_c, 9, 42, 40
9, 32800, Note_off_c, 9, 42, 40
9, 32832, Note_on_c, 9, 46, 68
9, 32846, Note_off_c, 9, 46, 68
9, 32880, Note_on_c, 9, 42, 40
9, 32896, Note_off_c, 9, 42, 40
9, 32928, Note_on_c, 9, 42, 54
9, 32944, Note_off_c, 9, 42, 54
9, 32976, Note_on_c, 9, 42, 40
9, 32992, Note_off_c, 9, 42, 40
9, 33024, Note_on_c, 9, 46, 72
9, 33040, Note_off_c, 9, 46, 72
9, 33072, Note_on_c, 9, 42, 40
9, 33088, Note_off_c, 9, 42, 40
9, 33120, Note_on_c, 9, 42, 56
9, 33136, Note_off_c, 9, 42, 56
9, 33168, Note_on_c, 9, 42, 54
9, 33184, Note_off_c, 9, 42, 54
9, 33216, Note_on_c, 9, 46, 68
9, 33232, Note_off_c, 9, 46, 68
9, 33264, Note_on_c, 9, 42, 40
9, 33280, Note_off_c, 9, 42, 40
9, 33312, Note_on_c, 9, 42, 54
9, 33328, Note_off_c, 9, 42, 54
9, 33360, Note_on_c, 9, 46, 68
9, 33376, Note_off_c, 9, 46, 68
9, 33408, Note_on_c, 9, 42, 54
9, 33424, Note_off_c, 9, 42, 54
9, 33456, Note_on_c, 9, 42, 40
9, 33470, Note_off_c, 9, 42, 40
9, 33504, Note_on_c, 9, 42, 54
9, 33520, Note_off_c, 9, 42, 54
9, 33552, Note_on_c, 9, 42, 40
9, 33568, Note_off_c, 9, 42, 40
9, 33600, Note_on_c, 9, 46, 68
9, 33616, Note_off_c, 9, 46, 68
9, 33648, Note_on_c, 9, 42, 40
9, 33664, Note_off_c, 9, 42, 40
9, 33696, Note_on_c, 9, 42, 54
9, 33712, Note_off_c, 9, 42, 54
9, 33744, Note_on_c, 9, 42, 40
9, 33756, Note_off_c, 9, 42, 40
9, 33792, Note_on_c, 9, 46, 68
9, 33808, Note_off_c, 9, 46, 68
9, 33840, Note_on_c, 9, 42, 40
9, 33856, Note_off_c, 9, 42, 40
9, 33888, Note_on_c, 9, 42, 54
9, 33904, Note_off_c, 9, 42, 54
9, 33936, Note_on_c, 9, 42, 54
9, 33952, Note_off_c, 9, 42, 54
9, 33984, Note_on_c, 9, 46, 68
9, 34000, Note_off_c, 9, 46, 68
9, 34032, Note_on_c, 9, 42, 40
9, 34048, Note_off_c, 9, 42, 40
9, 34080, Note_on_c, 9, 42, 54
9, 34096, Note_off_c, 9, 42, 54
9, 34128, Note_on_c, 9, 46, 68
9, 34144, Note_off_c, 9, 46, 68
9, 34176, Note_on_c, 9, 42, 54
9, 34192, Note_off_c, 9, 42, 54
9, 34224, Note_on_c, 9, 42, 40
9, 34240, Note_off_c, 9, 42, 40
9, 34272, Note_on_c, 9, 42, 54
9, 34288, Note_off_c, 9, 42, 54
9, 34320, Note_on_c, 9, 42, 40
9, 34338, Note_off_c, 9, 42, 40
9, 34368, Note_on_c, 9, 46, 68
9, 34382, Note_off_c, 9, 46, 68
9, 34416, Note_on_c, 9, 42, 40
9, 34432, Note_off_c, 9, 42, 40
9, 34464, Note_on_c, 9, 42, 54
9, 34480, Note_off_c, 9, 42, 54
9, 34512, Note_on_c, 9, 42, 40
9, 34528, Note_off_c, 9, 42, 40
9, 34560, Note_on_c, 9, 46, 68
9, 34578, Note_off_c, 9, 46, 68
9, 34608, Note_on_c, 9, 42, 40
9, 34624, Note_off_c, 9, 42, 40
9, 34656, Note_on_c, 9, 42, 54
9, 34672, Note_off_c, 9, 42, 54
9, 34704, Note_on_c, 9, 42, 54
9, 34718, Note_off_c, 9, 42, 54
9, 34752, Note_on_c, 9, 46, 68
9, 34766, Note_off_c, 9, 46, 68
9, 34800, Note_on_c, 9, 42, 40
9, 34816, Note_off_c, 9, 42, 40
9, 34848, Note_on_c, 9, 42, 54
9, 34864, Note_off_c, 9, 42, 54
9, 34896, Note_on_c, 9, 46, 68
9, 34914, Note_off_c, 9, 46, 68
9, 34944, Note_on_c, 9, 42, 54
9, 34960, Note_off_c, 9, 42, 54
9, 34992, Note_on_c, 9, 42, 40
9, 35006, Note_off_c, 9, 42, 40
9, 35040, Note_on_c, 9, 42, 54
9, 35056, Note_off_c, 9, 42, 54
9, 35088, Note_on_c, 9, 42, 40
9, 35104, Note_off_c, 9, 42, 40
9, 35136, Note_on_c, 9, 46, 68
9, 35152, Note_off_c, 9, 46, 68
9, 35184, Note_on_c, 9, 42, 40
9, 35200, Note_off_c, 9, 42, 40
9, 35232, Note_on_c, 9, 42, 54
9, 35248, Note_off_c, 9, 42, 54
9, 35280, Note_on_c, 9, 42, 40
9, 35296, Note_off_c, 9, 42, 40
9, 35328, Note_on_c, 9, 46, 68
9, 35342, Note_off_c, 9, 46, 68
9, 35376, Note_on_c, 9, 42, 40
9, 35392, Note_off_c, 9, 42, 40
9, 35424, Note_on_c, 9, 42, 54
9, 35440, Note_off_c, 9, 42, 54
9, 35472, Note_on_c, 9, 42, 54
9, 35488, Note_off_c, 9, 42, 54
9, 35520, Note_on_c, 9, 46, 68
9, 35536, Note_off_c, 9, 46, 68
9, 35568, Note_on_c, 9, 42, 40
9, 35584, Note_off_c, 9, 42, 40
9, 35616, Note_on_c, 9, 42, 54
9, 35632, Note_off_c, 9, 42, 54
9, 35664, Note_on_c, 9, 46, 68
9, 35678, Note_off_c, 9, 46, 68
9, 35712, Note_on_c, 9, 42, 54
9, 35726, Note_off_c, 9, 42, 54
9, 35760, Note_on_c, 9, 42, 40
9, 35776, Note_off_c, 9, 42, 40
9, 35808, Note_on_c, 9, 42, 54
9, 35824, Note_off_c, 9, 42, 54
9, 35856, Note_on_c, 9, 42, 40
9, 35874, Note_off_c, 9, 42, 40
9, 35904, Note_on_c, 9, 46, 68
9, 35920, Note_off_c, 9, 46, 68
9, 35952, Note_on_c, 9, 42, 40
9, 35966, Note_off_c, 9, 42, 40
9, 36000, Note_on_c, 9, 42, 54
9, 36014, Note_off_c, 9, 42, 54
9, 36048, Note_on_c, 9, 42, 40
9, 36064, Note_off_c, 9, 42, 40
9, 36096, Note_on_c, 9, 46, 68
9, 36112, Note_off_c, 9, 46, 68
9, 36144, Note_on_c, 9, 42, 40
9, 36160, Note_off_c, 9, 42, 40
9, 36192, Note_on_c, 9, 42, 54
9, 36208, Note_off_c, 9, 42, 54
9, 36240, Note_on_c, 9, 42, 54
9, 36256, Note_off_c, 9, 42, 54
9, 36288, Note_on_c, 9, 46, 68
9, 36302, Note_off_c, 9, 46, 68
9, 36336, Note_on_c, 9, 42, 40
9, 36352, Note_off_c, 9, 42, 40
9, 36384, Note_on_c, 9, 42, 54
9, 36400, Note_off_c, 9, 42, 54
9, 36432, Note_on_c, 9, 46, 68
9, 36446, Note_off_c, 9, 46, 68
9, 36480, Note_on_c, 9, 42, 54
9, 36496, Note_off_c, 9, 42, 54
9, 36528, Note_on_c, 9, 42, 40
9, 36544, Note_off_c, 9, 42, 40
9, 36576, Note_on_c, 9, 42, 54
9, 36592, Note_off_c, 9, 42, 54
9, 36624, Note_on_c, 9, 42, 40
9, 36638, Note_off_c, 9, 42, 40
9, 36672, Note_on_c, 9, 46, 68
9, 36688, Note_off_c, 9, 46, 68
9, 36720, Note_on_c, 9, 42, 40
9, 36736, Note_off_c, 9, 42, 40
9, 36768, Note_on_c, 9, 42, 56
9, 36784, Note_off_c, 9, 42, 56
9, 36816, Note_on_c, 9, 42, 40
9, 36832, Note_off_c, 9, 42, 40
9, 36864, Note_on_c, 9, 46, 72
9, 36880, Note_off_c, 9, 46, 72
9, 36912, Note_on_c, 9, 42, 40
9, 36926, Note_off_c, 9, 42, 40
9, 36960, Note_on_c, 9, 42, 54
9, 36976, Note_off_c, 9, 42, 54
9, 37008, Note_on_c, 9, 42, 54
9, 37022, Note_off_c, 9, 42, 54
9, 37056, Note_on_c, 9, 46, 68
9, 37072, Note_off_c, 9, 46, 68
9, 37104, Note_on_c, 9, 42, 40
9, 37122, Note_off_c, 9, 42, 40
9, 37152, Note_on_c, 9, 42, 54
9, 37168, Note_off_c, 9, 42, 54
9, 37200, Note_on_c, 9, 46, 68
9, 37214, Note_off_c, 9, 46, 68
9, 37248, Note_on_c, 9, 42, 54
9, 37262, Note_off_c, 9, 42, 54
9, 37296, Note_on_c, 9, 42, 40
9, 37312, Note_off_c, 9, 42, 40
9, 37344, Note_on_c, 9, 42, 54
9, 37358, Note_off_c, 9, 42, 54
9, 37392, Note_on_c, 9, 42, 40
9, 37410, Note_off_c, 9, 42, 40
9, 37440, Note_on_c, 9, 46, 68
9, 37456, Note_off_c, 9, 46, 68
9, 37488, Note_on_c, 9, 42, 40
9, 37504, Note_off_c, 9, 42, 40
9, 37536, Note_on_c, 9, 42, 54
9, 37550, Note_off_c, 9, 42, 54
9, 37584, Note_on_c, 9, 42, 40
9, 37600, Note_off_c, 9, 42, 40
9, 37632, Note_on_c, 9, 46, 68
9, 37646, Note_off_c, 9, 46, 68
9, 37680, Note_on_c, 9, 42, 40
9, 37696, Note_off_c, 9, 42, 40
9, 37728, Note_on_c, 9, 42, 54
9, 37746, Note_off_c, 9, 42, 54
9, 37776, Note_on_c, 9, 42, 54
9, 37794, Note_off_c, 9, 42, 54
9, 37824, Note_on_c, 9, 46, 68
9, 37840, Note_off_c, 9, 46, 68
9, 37872, Note_on_c, 9, 42, 40
9, 37886, Note_off_c, 9, 42, 40
9, 37920, Note_on_c, 9, 42, 54
9, 37934, Note_off_c, 9, 42, 54
9, 37968, Note_on_c, 9, 46, 68
9, 37982, Note_off_c, 9, 46, 68
9, 38016, Note_on_c, 9, 42, 54
9, 38032, Note_off_c, 9, 42, 54
9, 38064, Note_on_c, 9, 42, 40
9, 38082, Note_off_c, 9, 42, 40
9, 38112, Note_on_c, 9, 42, 54
9, 38128, Note_off_c, 9, 42, 54
9, 38160, Note_on_c, 9, 42, 40
9, 38176, Note_off_c, 9, 42, 40
9, 38208, Note_on_c, 9, 46, 68
9, 38222, Note_off_c, 9, 46, 68
9, 38256, Note_on_c, 9, 42, 40
9, 38272, Note_off_c, 9, 42, 40
9, 38304, Note_on_c, 9, 42, 56
9, 38320, Note_off_c, 9, 42, 56
9, 38352, Note_on_c, 9, 42, 40
9, 38368, Note_off_c, 9, 42, 40
9, 38400, Note_on_c, 9, 46, 72
9, 38418, Note_off_c, 9, 46, 72
9, 38448, Note_on_c, 9, 42, 40
9, 38462, Note_off_c, 9, 42, 40
9, 38496, Note_on_c, 9, 42, 54
9, 38510, Note_off_c, 9, 42, 54
9, 38544, Note_on_c, 9, 42, 54
9, 38558, Note_off_c, 9, 42, 54
9, 38592, Note_on_c, 9, 46, 68
9, 38608, Note_off_c, 9, 46, 68
9, 38640, Note_on_c, 9, 42, 40
9, 38656, Note_off_c, 9, 42, 40
9, 38688, Note_on_c, 9, 42, 54
9, 38706, Note_off_c, 9, 42, 54
9, 38736, Note_on_c, 9, 46, 68
9, 38754, Note_off_c, 9, 46, 68
9, 38784, Note_on_c, 9, 42, 54
9, 38798, Note_off_c, 9, 42, 54
9, 38832, Note_on_c, 9, 42, 40
9, 38846, Note_off_c, 9, 42, 40
9, 38880, Note_on_c, 9, 42, 54
9, 38896, Note_off_c, 9, 42, 54
9, 38928, Note_on_c, 9, 42, 40
9, 38944, Note_off_c, 9, 42, 40
9, 38976, Note_on_c, 9, 46, 72
9, 38992, Note_off_c, 9, 46, 72
9, 39024, Note_on_c, 9, 42, 40
9, 39042, Note_off_c, 9, 42, 40
9, 39072, Note_on_c, 9, 42, 56
9, 39088, Note_off_c, 9, 42, 56
9, 39120, Note_on_c, 9, 42, 40
9, 39134, Note_off_c, 9, 42, 40
9, 39168, Note_on_c, 9, 46, 72
9, 39184, Note_off_c, 9, 46, 72
9, 39216, Note_on_c, 9, 42, 40
9, 39232, Note_off_c, 9, 42, 40
9, 39264, Note_on_c, 9, 42, 56
9, 39280, Note_off_c, 9, 42, 56
9, 39312, Note_on_c, 9, 42, 56
9, 39328, Note_off_c, 9, 42, 56
9, 39360, Note_on_c, 9, 46, 72
9, 39376, Note_off_c, 9, 46, 72
9, 39408, Note_on_c, 9, 42, 40
9, 39422, Note_off_c, 9, 42, 40
9, 39456, Note_on_c, 9, 42, 54
9, 39472, Note_off_c, 9, 42, 54
9, 39504, Note_on_c, 9, 46, 68
9, 39518, Note_off_c, 9, 46, 68
9, 39552, Note_on_c, 9, 42, 54
9, 39568, Note_off_c, 9, 42, 54
9, 39600, Note_on_c, 9, 42, 40
9, 39616, Note_off_c, 9, 42, 40
9, 39648, Note_on_c, 9, 42, 54
9, 39664, Note_off_c, 9, 42, 54
9, 39696, Note_on_c, 9, 42, 40
9, 39712, Note_off_c, 9, 42, 40
9, 39744, Note_on_c, 9, 46, 72
9, 39758, Note_off_c, 9, 46, 72
9, 39792, Note_on_c, 9, 42, 40
9, 39808, Note_off_c, 9, 42, 40
9, 39840, Note_on_c, 9, 42, 56
9, 39856, Note_off_c, 9, 42, 56
9, 39888, Note_on_c, 9, 42, 40
9, 39904, Note_off_c, 9, 42, 40
9, 39936, Note_on_c, 9, 46, 68
9, 39954, Note_off_c, 9, 46, 68
9, 39984, Note_on_c, 9, 42, 40
9, 40000, Note_off_c, 9, 42, 40
9, 40032, Note_on_c, 9, 42, 54
9, 40048, Note_off_c, 9, 42, 54
9, 40080, Note_on_c, 9, 42, 54
9, 40094, Note_off_c, 9, 42, 54
9, 40128, Note_on_c, 9, 46, 68
9, 40144, Note_off_c, 9, 46, 68
9, 40176, Note_on_c, 9, 42, 40
9, 40192, Note_off_c, 9, 42, 40
9, 40224, Note_on_c, 9, 42, 54
9, 40240, Note_off_c, 9, 42, 54
9, 40272, Note_on_c, 9, 46, 68
9, 40290, Note_off_c, 9, 46, 68
9, 40320, Note_on_c, 9, 42, 54
9, 40336, Note_off_c, 9, 42, 54
9, 40368, Note_on_c, 9, 42, 40
9, 40382, Note_off_c, 9, 42, 40
9, 40416, Note_on_c, 9, 42, 54
9, 40430, Note_off_c, 9, 42, 54
9, 40464, Note_on_c, 9, 42, 40
9, 40480, Note_off_c, 9, 42, 40
9, 40512, Note_on_c, 9, 46, 68
9, 40528, Note_off_c, 9, 46, 68
9, 40560, Note_on_c, 9, 42, 40
9, 40576, Note_off_c, 9, 42, 40
9, 40608, Note_on_c, 9, 42, 54
9, 40624, Note_off_c, 9, 42, 54
9, 40656, Note_on_c, 9, 42, 40
9, 40670, Note_off_c, 9, 42, 40
9, 40704, Note_on_c, 9, 46, 68
9, 40718, Note_off_c, 9, 46, 68
9, 40752, Note_on_c, 9, 42, 40
9, 40768, Note_off_c, 9, 42, 40
9, 40800, Note_on_c, 9, 42, 54
9, 40816, Note_off_c, 9, 42, 54
9, 40848, Note_on_c, 9, 42, 54
9, 40864, Note_off_c, 9, 42, 54
9, 40896, Note_on_c, 9, 46, 68
9, 40914, Note_off_c, 9, 46, 68
9, 40944, Note_on_c, 9, 42, 40
9, 40960, Note_off_c, 9, 42, 40
9, 40992, Note_on_c, 9, 42, 56
9, 41008, Note_off_c, 9, 42, 56
9, 41040, Note_on_c, 9, 46, 72
9, 41054, Note_off_c, 9, 46, 72
9, 41088, Note_on_c, 9, 42, 56
9, 41104, Note_off_c, 9, 42, 56
9, 41136, Note_on_c, 9, 42, 40
9, 41152, Note_off_c, 9, 42, 40
9, 41184, Note_on_c, 9, 42, 54
9, 41202, Note_off_c, 9, 42, 54
9, 41232, Note_on_c, 9, 42, 40
9, 41250, Note_off_c, 9, 42, 40
9, 41280, Note_on_c, 9, 46, 68
9, 41294, Note_off_c, 9, 46, 68
9, 41328, Note_on_c, 9, 42, 40
9, 41342, Note_off_c, 9, 42, 40
9, 41376, Note_on_c, 9, 42, 54
9, 41390, Note_off_c, 9, 42, 54
9, 41424, Note_on_c, 9, 42, 40
9, 41440, Note_off_c, 9, 42, 40
9, 41472, Note_on_c, 9, 46, 72
9, 41488, Note_off_c, 9, 46, 72
9, 41520, Note_on_c, 9, 42, 40
9, 41538, Note_off_c, 9, 42, 40
9, 41568, Note_on_c, 9, 42, 56
9, 41584, Note_off_c, 9, 42, 56
9, 41616, Note_on_c, 9, 42, 56
9, 41630, Note_off_c, 9, 42, 56
9, 41664, Note_on_c, 9, 46, 68
9, 41678, Note_off_c, 9, 46, 68
9, 41712, Note_on_c, 9, 42, 40
9, 41728, Note_off_c, 9, 42, 40
9, 41760, Note_on_c, 9, 42, 54
9, 41776, Note_off_c, 9, 42, 54
9, 41808, Note_on_c, 9, 46, 68
9, 41826, Note_off_c, 9, 46, 68
9, 41856, Note_on_c, 9, 42, 54
9, 41874, Note_off_c, 9, 42, 54
9, 41904, Note_on_c, 9, 42, 40
9, 41920, Note_off_c, 9, 42, 40
9, 41952, Note_on_c, 9, 42, 54
9, 41966, Note_off_c, 9, 42, 54
9, 42000, Note_on_c, 9, 42, 40
9, 42016, Note_off_c, 9, 42, 40
9, 42048, Note_on_c, 9, 46, 68
9, 42064, Note_off_c, 9, 46, 68
9, 42096, Note_on_c, 9, 42, 40
9, 42112, Note_off_c, 9, 42, 40
9, 42144, Note_on_c, 9, 42, 54
9, 42160, Note_off_c, 9, 42, 54
9, 42192, Note_on_c, 9, 42, 40
9, 42210, Note_off_c, 9, 42, 40
9, 42240, Note_on_c, 9, 46, 68
9, 42256, Note_off_c, 9, 46, 68
9, 42288, Note_on_c, 9, 42, 40
9, 42302, Note_off_c, 9, 42, 40
9, 42336, Note_on_c, 9, 42, 56
9, 42350, Note_off_c, 9, 42, 56
9, 42384, Note_on_c, 9, 42, 56
9, 42400, Note_off_c, 9, 42, 56
9, 42432, Note_on_c, 9, 46, 72
9, 42450, Note_off_c, 9, 46, 72
9, 42480, Note_on_c, 9, 42, 40
9, 42496, Note_off_c, 9, 42, 40
9, 42528, Note_on_c, 9, 42, 56
9, 42544, Note_off_c, 9, 42, 56
9, 42576, Note_on_c, 9, 46, 72
9, 42590, Note_off_c, 9, 46, 72
9, 42624, Note_on_c, 9, 42, 56
9, 42640, Note_off_c, 9, 42, 56
9, 42672, Note_on_c, 9, 42, 40
9, 42688, Note_off_c, 9, 42, 40
9, 42720, Note_on_c, 9, 42, 54
9, 42736, Note_off_c, 9, 42, 54
9, 42768, Note_on_c, 9, 42, 40
9, 42784, Note_off_c, 9, 42, 40
9, 42816, Note_on_c, 9, 46, 68
9, 42832, Note_off_c, 9, 46, 68
9, 42864, Note_on_c, 9, 42, 40
9, 42878, Note_off_c, 9, 42, 40
9, 42912, Note_on_c, 9, 42, 54
9, 42928, Note_off_c, 9, 42, 54
9, 42960, Note_on_c, 9, 42, 40
9, 42976, Note_off_c, 9, 42, 40
9, 43008, Note_on_c, 9, 46, 68
9, 43024, Note_off_c, 9, 46, 68
9, 43056, Note_on_c, 9, 42, 40
9, 43074, Note_off_c, 9, 42, 40
9, 43104, Note_on_c, 9, 42, 54
9, 43120, Note_off_c, 9, 42, 54
9, 43152, Note_on_c, 9, 42, 54
9, 43170, Note_off_c, 9, 42, 54
9, 43200, Note_on_c, 9, 46, 68
9, 43214, Note_off_c, 9, 46, 68
9, 43248, Note_on_c, 9, 42, 40
9, 43262, Note_off_c, 9, 42, 40
9, 43296, Note_on_c, 9, 42, 54
9, 43312, Note_off_c, 9, 42, 54
9, 43344, Note_on_c, 9, 46, 68
9, 43360, Note_off_c, 9, 46, 68
9, 43392, Note_on_c, 9, 42, 54
9, 43408, Note_off_c, 9, 42, 54
9, 43440, Note_on_c, 9, 42, 40
9, 43456, Note_off_c, 9, 42, 40
9, 43488, Note_on_c, 9, 42, 54
9, 43502, Note_off_c, 9, 42, 54
9, 43536, Note_on_c, 9, 42, 40
9, 43550, Note_off_c, 9, 42, 40
9, 43584, Note_on_c, 9, 46, 68
9, 43598, Note_off_c, 9, 46, 68
9, 43632, Note_on_c, 9, 42, 40
9, 43648, Note_off_c, 9, 42, 40
9, 43680, Note_on_c, 9, 42, 54
9, 43696, Note_off_c, 9, 42, 54
9, 43728, Note_on_c, 9, 42, 40
9, 43746, Note_off_c, 9, 42, 40
9, 43776, Note_on_c, 9, 46, 68
9, 43792, Note_off_c, 9, 46, 68
9, 43824, Note_on_c, 9, 42, 40
9, 43840, Note_off_c, 9, 42, 40
9, 43872, Note_on_c, 9, 42, 54
9, 43888, Note_off_c, 9, 42, 54
9, 43920, Note_on_c, 9, 42, 54
9, 43936, Note_off_c, 9, 42, 54
9, 43968, Note_on_c, 9, 46, 68
9, 43984, Note_off_c, 9, 46, 68
9, 44016, Note_on_c, 9, 42, 40
9, 44034, Note_off_c, 9, 42, 40
9, 44064, Note_on_c, 9, 42, 56
9, 44080, Note_off_c, 9, 42, 56
9, 44112, Note_on_c, 9, 46, 72
9, 44128, Note_off_c, 9, 46, 72
9, 44160, Note_on_c, 9, 42, 56
9, 44174, Note_off_c, 9, 42, 56
9, 44208, Note_on_c, 9, 42, 40
9, 44224, Note_off_c, 9, 42, 40
9, 44256, Note_on_c, 9, 42, 56
9, 44272, Note_off_c, 9, 42, 56
9, 44304, Note_on_c, 9, 42, 40
9, 44320, Note_off_c, 9, 42, 40
9, 44352, Note_on_c, 9, 46, 68
9, 44368, Note_off_c, 9, 46, 68
9, 44400, Note_on_c, 9, 42, 40
9, 44416, Note_off_c, 9, 42, 40
9, 44448, Note_on_c, 9, 42, 54
9, 44462, Note_off_c, 9, 42, 54
9, 44496, Note_on_c, 9, 42, 40
9, 44510, Note_off_c, 9, 42, 40
9, 44544, Note_on_c, 9, 46, 68
9, 44560, Note_off_c, 9, 46, 68
9, 44592, Note_on_c, 9, 42, 40
9, 44608, Note_off_c, 9, 42, 40
9, 44640, Note_on_c, 9, 42, 54
9, 44656, Note_off_c, 9, 42, 54
9, 44688, Note_on_c, 9, 42, 54
9, 44706, Note_off_c, 9, 42, 54
9, 44736, Note_on_c, 9, 46, 68
9, 44752, Note_off_c, 9, 46, 68
9, 44784, Note_on_c, 9, 42, 40
9, 44798, Note_off_c, 9, 42, 40
9, 44832, Note_on_c, 9, 42, 54
9, 44848, Note_off_c, 9, 42, 54
9, 44880, Note_on_c, 9, 46, 68
9, 44896, Note_off_c, 9, 46, 68
9, 44928, Note_on_c, 9, 42, 54
9, 44944, Note_off_c, 9, 42, 54
9, 44976, Note_on_c, 9, 42, 40
9, 44992, Note_off_c, 9, 42, 40
9, 45024, Note_on_c, 9, 42, 54
9, 45040, Note_off_c, 9, 42, 54
9, 45072, Note_on_c, 9, 42, 40
9, 45086, Note_off_c, 9, 42, 40
9, 45120, Note_on_c, 9, 46, 68
9, 45134, Note_off_c, 9, 46, 68
9, 45168, Note_on_c, 9, 42, 40
9, 45184, Note_off_c, 9, 42, 40
9, 45216, Note_on_c, 9, 42, 54
9, 45232, Note_off_c, 9, 42, 54
9, 45264, Note_on_c, 9, 42, 40
9, 45280, Note_off_c, 9, 42, 40
9, 45312, Note_on_c, 9, 46, 68
9, 45330, Note_off_c, 9, 46, 68
9, 45360, Note_on_c, 9, 42, 40
9, 45376, Note_off_c, 9, 42, 40
9, 45408, Note_on_c, 9, 42, 56
9, 45424, Note_off_c, 9, 42, 56
9, 45456, Note_on_c, 9, 42, 56
9, 45470, Note_off_c, 9, 42, 56
9, 45504, Note_on_c, 9, 46, 72
9, 45520, Note_off_c, 9, 46, 72
9, 45552, Note_on_c, 9, 42, 40
9, 45568, Note_off_c, 9, 42, 40
9, 45600, Note_on_c, 9, 42, 54
9, 45616, Note_off_c, 9, 42, 54
9, 45648, Note_on_c, 9, 46, 68
9, 45666, Note_off_c, 9, 46, 68
9, 45696, Note_on_c, 9, 42, 54
9, 45710, Note_off_c, 9, 42, 54
9, 45744, Note_on_c, 9, 42, 40
9, 45760, Note_off_c, 9, 42, 40
9, 45792, Note_on_c, 9, 42, 54
9, 45806, Note_off_c, 9, 42, 54
9, 45840, Note_on_c, 9, 42, 40
9, 45856, Note_off_c, 9, 42, 40
9, 45888, Note_on_c, 9, 46, 68
9, 45904, Note_off_c, 9, 46, 68
9, 45936, Note_on_c, 9, 42, 40
9, 45936, Note_on_c, 9, 45, 66
9, 45950, Note_off_c, 9, 45, 66
9, 45952, Note_off_c, 9, 42, 40
9, 45984, Note_on_c, 9, 42, 54
9, 45984, Note_on_c, 9, 45, 58
9, 45994, Note_off_c, 9, 45, 58
9, 46000, Note_off_c, 9, 42, 54
9, 46032, Note_on_c, 9, 42, 40
9, 46032, Note_on_c, 9, 43, 66
9, 46046, Note_off_c, 9, 43, 66
9, 46048, Note_off_c, 9, 42, 40
9, 46080, Note_on_c, 9, 46, 68
9, 46094, Note_off_c, 9, 46, 68
9, 46128, Note_on_c, 9, 42, 40
9, 46144, Note_off_c, 9, 42, 40
9, 46176, Note_on_c, 9, 42, 54
9, 46192, Note_off_c, 9, 42, 54
9, 46224, Note_on_c, 9, 42, 54
9, 46242, Note_off_c, 9, 42, 54
9, 46272, Note_on_c, 9, 46, 68
9, 46290, Note_off_c, 9, 46, 68
9, 46320, Note_on_c, 9, 42, 40
9, 46336, Note_off_c, 9, 42, 40
9, 46368, Note_on_c, 9, 42, 54
9, 46382, Note_off_c, 9, 42, 54
9, 46416, Note_on_c, 9, 46, 68
9, 46430, Note_off_c, 9, 46, 68
9, 46464, Note_on_c, 9, 42, 54
9, 46480, Note_off_c, 9, 42, 54
9, 46512, Note_on_c, 9, 42, 40
9, 46528, Note_off_c, 9, 42, 40
9, 46560, Note_on_c, 9, 42, 54
9, 46578, Note_off_c, 9, 42, 54
9, 46608, Note_on_c, 9, 42, 40
9, 46624, Note_off_c, 9, 42, 40
9, 46656, Note_on_c, 9, 46, 68
9, 46670, Note_off_c, 9, 46, 68
9, 46704, Note_on_c, 9, 42, 40
9, 46718, Note_off_c, 9, 42, 40
9, 46752, Note_on_c, 9, 42, 54
9, 46768, Note_off_c, 9, 42, 54
9, 46800, Note_on_c, 9, 42, 40
9, 46816, Note_off_c, 9, 42, 40
9, 46848, Note_on_c, 9, 46, 68
9, 46864, Note_off_c, 9, 46, 68
9, 46896, Note_on_c, 9, 42, 40
9, 46912, Note_off_c, 9, 42, 40
9, 46944, Note_on_c, 9, 42, 54
9, 46960, Note_off_c, 9, 42, 54
9, 46992, Note_on_c, 9, 42, 54
9, 47006, Note_off_c, 9, 42, 54
9, 47040, Note_on_c, 9, 46, 68
9, 47054, Note_off_c, 9, 46, 68
9, 47088, Note_on_c, 9, 42, 40
9, 47104, Note_off_c, 9, 42, 40
9, 47136, Note_on_c, 9, 42, 54
9, 47152, Note_off_c, 9, 42, 54
9, 47184, Note_on_c, 9, 46, 68
9, 47200, Note_off_c, 9, 46, 68
9, 47232, Note_on_c, 9, 42, 54
9, 47248, Note_off_c, 9, 42, 54
9, 47280, Note_on_c, 9, 42, 40
9, 47294, Note_off_c, 9, 42, 40
9, 47328, Note_on_c, 9, 42, 54
9, 47342, Note_off_c, 9, 42, 54
9, 47376, Note_on_c, 9, 42, 40
9, 47392, Note_off_c, 9, 42, 40
9, 47424, Note_on_c, 9, 46, 68
9, 47440, Note_off_c, 9, 46, 68
9, 47472, Note_on_c, 9, 42, 40
9, 47488, Note_off_c, 9, 42, 40
9, 47520, Note_on_c, 9, 42, 54
9, 47536, Note_off_c, 9, 42, 54
9, 47568, Note_on_c, 9, 42, 40
9, 47586, Note_off_c, 9, 42, 40
9, 47616, Note_on_c, 9, 46, 68
9, 47630, Note_off_c, 9, 46, 68
9, 47664, Note_on_c, 9, 42, 40
9, 47678, Note_off_c, 9, 42, 40
9, 47712, Note_on_c, 9, 42, 54
9, 47728, Note_off_c, 9, 42, 54
9, 47760, Note_on_c, 9, 42, 54
9, 47776, Note_off_c, 9, 42, 54
9, 47808, Note_on_c, 9, 46, 68
9, 47826, Note_off_c, 9, 46, 68
9, 47856, Note_on_c, 9, 42, 40
9, 47872, Note_off_c, 9, 42, 40
9, 47904, Note_on_c, 9, 42, 54
9, 47920, Note_off_c, 9, 42, 54
9, 47952, Note_on_c, 9, 46, 68
9, 47966, Note_off_c, 9, 46, 68
9, 48000, Note_on_c, 9, 42, 54
9, 48014, Note_off_c, 9, 42, 54
9, 48048, Note_on_c, 9, 42, 40
9, 48064, Note_off_c, 9, 42, 40
9, 48096, Note_on_c, 9, 42, 56
9, 48112, Note_off_c, 9, 42, 56
9, 48144, Note_on_c, 9, 42, 40
9, 48160, Note_off_c, 9, 42, 40
9, 48192, Note_on_c, 9, 46, 72
9, 48208, Note_off_c, 9, 46, 72
9, 48240, Note_on_c, 9, 42, 40
9, 48254, Note_off_c, 9, 42, 40
9, 48288, Note_on_c, 9, 42, 54
9, 48302, Note_off_c, 9, 42, 54
9, 48336, Note_on_c, 9, 42, 40
9, 48352, Note_off_c, 9, 42, 40
9, 48384, Note_on_c, 9, 46, 68
9, 48400, Note_off_c, 9, 46, 68
9, 48432, Note_on_c, 9, 42, 40
9, 48450, Note_off_c, 9, 42, 40
9, 48480, Note_on_c, 9, 42, 56
9, 48496, Note_off_c, 9, 42, 56
9, 48528, Note_on_c, 9, 42, 56
9, 48542, Note_off_c, 9, 42, 56
9, 48576, Note_on_c, 9, 46, 72
9, 48590, Note_off_c, 9, 46, 72
9, 48624, Note_on_c, 9, 42, 40
9, 48640, Note_off_c, 9, 42, 40
9, 48672, Note_on_c, 9, 42, 54
9, 48688, Note_off_c, 9, 42, 54
9, 48720, Note_on_c, 9, 46, 68
9, 48736, Note_off_c, 9, 46, 68
9, 48768, Note_on_c, 9, 42, 54
9, 48784, Note_off_c, 9, 42, 54
9, 48816, Note_on_c, 9, 42, 40
9, 48832, Note_off_c, 9, 42, 40
9, 48864, Note_on_c, 9, 42, 54
9, 48880, Note_off_c, 9, 42, 54
9, 48912, Note_on_c, 9, 42, 40
9, 48928, Note_off_c, 9, 42, 40
9, 48960, Note_on_c, 9, 46, 68
9, 48976, Note_off_c, 9, 46, 68
9, 49008, Note_on_c, 9, 42, 40
9, 49024, Note_off_c, 9, 42, 40
9, 49056, Note_on_c, 9, 42, 54
9, 49074, Note_off_c, 9, 42, 54
9, 49104, Note_on_c, 9, 42, 40
9, 49122, Note_off_c, 9, 42, 40
9, 49152, Note_on_c, 9, 46, 68
9, 49168, Note_off_c, 9, 46, 68
9, 49200, Note_on_c, 9, 42, 40
9, 49214, Note_off_c, 9, 42, 40
9, 49248, Note_on_c, 9, 42, 56
9, 49262, Note_off_c, 9, 42, 56
9, 49296, Note_on_c, 9, 42, 56
9, 49312, Note_off_c, 9, 42, 56
9, 49344, Note_on_c, 9, 46, 72
9, 49360, Note_off_c, 9, 46, 72
9, 49392, Note_on_c, 9, 42, 40
9, 49408, Note_off_c, 9, 42, 40
9, 49440, Note_on_c, 9, 42, 54
9, 49456, Note_off_c, 9, 42, 54
9, 49488, Note_on_c, 9, 46, 68
9, 49502, Note_off_c, 9, 46, 68
9, 49536, Note_on_c, 9, 42, 54
9, 49552, Note_off_c, 9, 42, 54
9, 49584, Note_on_c, 9, 42, 40
9, 49600, Note_off_c, 9, 42, 40
9, 49632, Note_on_c, 9, 42, 54
9, 49648, Note_off_c, 9, 42, 54
9, 49680, Note_on_c, 9, 42, 40
9, 49696, Note_off_c, 9, 42, 40
9, 49728, Note_on_c, 9, 46, 68
9, 49744, Note_off_c, 9, 46, 68
9, 49776, Note_on_c, 9, 42, 40
9, 49792, Note_off_c, 9, 42, 40
9, 49824, Note_on_c, 9, 42, 54
9, 49838, Note_off_c, 9, 42, 54
9, 49872, Note_on_c, 9, 42, 40
9, 49888, Note_off_c, 9, 42, 40
9, 49920, Note_on_c, 9, 46, 68
9, 49936, Note_off_c, 9, 46, 68
9, 49968, Note_on_c, 9, 42, 40
9, 49984, Note_off_c, 9, 42, 40
9, 50016, Note_on_c, 9, 42, 54
9, 50034, Note_off_c, 9, 42, 54
9, 50064, Note_on_c, 9, 42, 54
9, 50082, Note_off_c, 9, 42, 54
9, 50112, Note_on_c, 9, 46, 68
9, 50128, Note_off_c, 9, 46, 68
9, 50160, Note_on_c, 9, 42, 40
9, 50174, Note_off_c, 9, 42, 40
9, 50208, Note_on_c, 9, 42, 54
9, 50222, Note_off_c, 9, 42, 54
9, 50256, Note_on_c, 9, 46, 68
9, 50270, Note_off_c, 9, 46, 68
9, 50304, Note_on_c, 9, 42, 54
9, 50322, Note_off_c, 9, 42, 54
9, 50352, Note_on_c, 9, 42, 40
9, 50370, Note_off_c, 9, 42, 40
9, 50400, Note_on_c, 9, 42, 54
9, 50416, Note_off_c, 9, 42, 54
9, 50448, Note_on_c, 9, 42, 40
9, 50464, Note_off_c, 9, 42, 40
9, 50496, Note_on_c, 9, 46, 68
9, 50510, Note_off_c, 9, 46, 68
9, 50544, Note_on_c, 9, 42, 40
9, 50558, Note_off_c, 9, 42, 40
9, 50592, Note_on_c, 9, 42, 54
9, 50608, Note_off_c, 9, 42, 54
9, 50640, Note_on_c, 9, 42, 40
9, 50656, Note_off_c, 9, 42, 40
9, 50688, Note_on_c, 9, 46, 68
9, 50704, Note_off_c, 9, 46, 68
9, 50736, Note_on_c, 9, 42, 40
9, 50750, Note_off_c, 9, 42, 40
9, 50784, Note_on_c, 9, 42, 54
9, 50800, Note_off_c, 9, 42, 54
9, 50832, Note_on_c, 9, 42, 54
9, 50848, Note_off_c, 9, 42, 54
9, 50880, Note_on_c, 9, 46, 68
9, 50896, Note_off_c, 9, 46, 68
9, 50928, Note_on_c, 9, 42, 40
9, 50946, Note_off_c, 9, 42, 40
9, 50976, Note_on_c, 9, 42, 54
9, 50992, Note_off_c, 9, 42, 54
9, 51024, Note_on_c, 9, 46, 68
9, 51042, Note_off_c, 9, 46, 68
9, 51072, Note_on_c, 9, 42, 54
9, 51086, Note_off_c, 9, 42, 54
9, 51120, Note_on_c, 9, 42, 40
9, 51134, Note_off_c, 9, 42, 40
9, 51168, Note_on_c, 9, 42, 54
9, 51184, Note_off_c, 9, 42, 54
9, 51216, Note_on_c, 9, 42, 40
9, 51232, Note_off_c, 9, 42, 40
9, 51264, Note_on_c, 9, 46, 68
9, 51282, Note_off_c, 9, 46, 68
9, 51312, Note_on_c, 9, 42, 40
9, 51330, Note_off_c, 9, 42, 40
9, 51360, Note_on_c, 9, 42, 54
9, 51376, Note_off_c, 9, 42, 54
9, 51408, Note_on_c, 9, 42, 40
9, 51422, Note_off_c, 9, 42, 40
9, 51456, Note_on_c, 9, 46, 68
9, 51472, Note_off_c, 9, 46, 68
9, 51504, Note_on_c, 9, 42, 40
9, 51520, Note_off_c, 9, 42, 40
9, 51552, Note_on_c, 9, 42, 54
9, 51570, Note_off_c, 9, 42, 54
9, 51600, Note_on_c, 9, 42, 54
9, 51616, Note_off_c, 9, 42, 54
9, 51648, Note_on_c, 9, 46, 68
9, 51664, Note_off_c, 9, 46, 68
9, 51696, Note_on_c, 9, 42, 40
9, 51710, Note_off_c, 9, 42, 40
9, 51744, Note_on_c, 9, 42, 54
9, 51758, Note_off_c, 9, 42, 54
9, 51792, Note_on_c, 9, 46, 68
9, 51806, Note_off_c, 9, 46, 68
9, 51806, End_track
10, 0, Start_track
10, 0, Text_t, "chink     "
10, 768, Note_on_c, 9, 81, 57
10, 861, Note_off_c, 9, 81, 57
10, 864, Note_on_c, 9, 80, 38
10, 880, Note_off_c, 9, 80, 38
10, 912, Note_on_c, 9, 81, 56
10, 990, Note_off_c, 9, 81, 56
10, 1008, Note_on_c, 9, 80, 34
10, 1024, Note_off_c, 9, 80, 34
10, 1056, Note_on_c, 9, 80, 27
10, 1076, Note_off_c, 9, 80, 27
10, 1104, Note_on_c, 9, 81, 64
10, 1178, Note_off_c, 9, 81, 64
10, 1200, Note_on_c, 9, 80, 35
10, 1219, Note_off_c, 9, 80, 35
10, 1248, Note_on_c, 9, 80, 32
10, 1263, Note_off_c, 9, 80, 32
10, 1296, Note_on_c, 9, 80, 39
10, 1305, Note_off_c, 9, 80, 39
10, 1344, Note_on_c, 9, 81, 72
10, 1427, Note_off_c, 9, 81, 72
10, 1440, Note_on_c, 9, 80, 39
10, 1456, Note_off_c, 9, 80, 39
10, 1536, Note_on_c, 9, 81, 66
10, 1632, Note_on_c, 9, 80, 27
10, 1633, Note_off_c, 9, 81, 66
10, 1639, Note_off_c, 9, 80, 27
10, 1680, Note_on_c, 9, 81, 68
10, 1765, Note_off_c, 9, 81, 68
10, 1776, Note_on_c, 9, 80, 36
10, 1794, Note_off_c, 9, 80, 36
10, 1824, Note_on_c, 9, 80, 34
10, 1842, Note_off_c, 9, 80, 34
10, 1872, Note_on_c, 9, 81, 70
10, 1953, Note_off_c, 9, 81, 70
10, 1968, Note_on_c, 9, 80, 41
10, 1986, Note_off_c, 9, 80, 41
10, 2016, Note_on_c, 9, 80, 37
10, 2028, Note_off_c, 9, 80, 37
10, 2064, Note_on_c, 9, 80, 34
10, 2079, Note_off_c, 9, 80, 34
10, 2112, Note_on_c, 9, 81, 72
10, 2203, Note_off_c, 9, 81, 72
10, 2208, Note_on_c, 9, 80, 33
10, 2227, Note_off_c, 9, 80, 33
10, 2256, Note_on_c, 9, 80, 37
10, 2266, Note_off_c, 9, 80, 37
10, 2304, Note_on_c, 9, 81, 68
10, 2400, Note_on_c, 9, 80, 30
10, 2401, Note_off_c, 9, 81, 68
10, 2413, Note_off_c, 9, 80, 30
10, 2448, Note_on_c, 9, 81, 56
10, 2533, Note_off_c, 9, 81, 56
10, 2544, Note_on_c, 9, 80, 32
10, 2565, Note_off_c, 9, 80, 32
10, 2592, Note_on_c, 9, 80, 33
10, 2612, Note_off_c, 9, 80, 33
10, 2640, Note_on_c, 9, 81, 60
10, 2731, Note_off_c, 9, 81, 60
10, 2736, Note_on_c, 9, 80, 37
10, 2756, Note_off_c, 9, 80, 37
10, 2784, Note_on_c, 9, 82, 61
10, 2807, Note_off_c, 9, 82, 61
10, 2832, Note_on_c, 9, 70, 39
10, 2875, Note_off_c, 9, 70, 39
10, 2880, Note_on_c, 9, 81, 59
10, 2880, Note_on_c, 9, 69, 55
10, 2928, Note_on_c, 9, 80, 33
10, 2935, Note_off_c, 9, 81, 59
10, 2955, Note_off_c, 9, 80, 33
10, 2976, Note_on_c, 9, 80, 38
10, 2990, Note_off_c, 9, 69, 55
10, 2996, Note_off_c, 9, 80, 38
10, 3024, Note_on_c, 9, 80, 37
10, 3024, Note_on_c, 9, 69, 45
10, 3040, Note_off_c, 9, 80, 37
10, 3050, Note_off_c, 9, 69, 45
10, 3072, Note_on_c, 9, 69, 54
10, 3072, Note_on_c, 9, 81, 58
10, 3120, Note_on_c, 9, 80, 23
10, 3122, Note_off_c, 9, 81, 58
10, 3143, Note_off_c, 9, 80, 23
10, 3168, Note_on_c, 9, 80, 28
10, 3181, Note_off_c, 9, 69, 54
10, 3183, Note_off_c, 9, 80, 28
10, 3216, Note_on_c, 9, 80, 54
10, 3234, Note_off_c, 9, 80, 54
10, 3264, Note_on_c, 9, 69, 47
10, 3264, Note_on_c, 9, 81, 69
10, 3273, Note_off_c, 9, 69, 47
10, 3299, Note_off_c, 9, 81, 69
10, 3312, Note_on_c, 9, 80, 31
10, 3327, Note_off_c, 9, 80, 31
10, 3360, Note_on_c, 9, 80, 40
10, 3375, Note_off_c, 9, 80, 40
10, 3408, Note_on_c, 9, 80, 58
10, 3431, Note_off_c, 9, 80, 58
10, 3456, Note_on_c, 9, 69, 50
10, 3456, Note_on_c, 9, 81, 70
10, 3500, Note_off_c, 9, 81, 70
10, 3504, Note_on_c, 9, 80, 27
10, 3522, Note_off_c, 9, 80, 27
10, 3552, Note_on_c, 9, 80, 32
10, 3553, Note_off_c, 9, 69, 50
10, 3568, Note_off_c, 9, 80, 32
10, 3600, Note_on_c, 9, 69, 45
10, 3636, Note_off_c, 9, 69, 45
10, 3648, Note_on_c, 9, 82, 82
10, 3648, Note_on_c, 9, 70, 63
10, 3682, Note_off_c, 9, 82, 82
10, 3696, Note_on_c, 9, 80, 5
10, 3711, Note_off_c, 9, 80, 5
10, 3726, Note_off_c, 9, 70, 63
10, 3744, Note_on_c, 9, 69, 42
10, 3784, Note_off_c, 9, 69, 42
10, 3792, Note_on_c, 9, 69, 48
10, 3804, Note_off_c, 9, 69, 48
10, 3840, Note_on_c, 9, 69, 66
10, 3875, Note_off_c, 9, 69, 66
10, 3888, Note_on_c, 9, 80, 37
10, 3909, Note_off_c, 9, 80, 37
10, 3936, Note_on_c, 9, 80, 31
10, 3948, Note_off_c, 9, 80, 31
10, 3984, Note_on_c, 9, 81, 70
10, 4079, Note_off_c, 9, 81, 70
10, 4080, Note_on_c, 9, 80, 30
10, 4097, Note_off_c, 9, 80, 30
10, 4128, Note_on_c, 9, 80, 36
10, 4152, Note_off_c, 9, 80, 36
10, 4176, Note_on_c, 9, 81, 65
10, 4224, Note_on_c, 9, 69, 25
10, 4253, Note_off_c, 9, 69, 25
10, 4272, Note_on_c, 9, 80, 41
10, 4279, Note_off_c, 9, 81, 65
10, 4299, Note_off_c, 9, 80, 41
10, 4320, Note_on_c, 9, 80, 36
10, 4337, Note_off_c, 9, 80, 36
10, 4368, Note_on_c, 9, 81, 66
10, 4416, Note_on_c, 9, 69, 44
10, 4442, Note_off_c, 9, 81, 66
10, 4454, Note_off_c, 9, 69, 44
10, 4464, Note_on_c, 9, 80, 24
10, 4488, Note_off_c, 9, 80, 24
10, 4512, Note_on_c, 9, 80, 49
10, 4531, Note_off_c, 9, 80, 49
10, 4560, Note_on_c, 9, 81, 61
10, 4608, Note_on_c, 9, 69, 45
10, 4643, Note_off_c, 9, 69, 45
10, 4643, Note_off_c, 9, 81, 61
10, 4656, Note_on_c, 9, 80, 36
10, 4677, Note_off_c, 9, 80, 36
10, 4704, Note_on_c, 9, 80, 38
10, 4718, Note_off_c, 9, 80, 38
10, 4752, Note_on_c, 9, 81, 63
10, 4800, Note_on_c, 9, 69, 58
10, 4805, Note_off_c, 9, 81, 63
10, 4840, Note_off_c, 9, 69, 58
10, 4848, Note_on_c, 9, 80, 59
10, 4867, Note_off_c, 9, 80, 59
10, 4896, Note_on_c, 9, 80, 36
10, 4914, Note_off_c, 9, 80, 36
10, 4944, Note_on_c, 9, 81, 63
10, 4992, Note_on_c, 9, 69, 56
10, 5015, Note_off_c, 9, 69, 56
10, 5016, Note_off_c, 9, 81, 63
10, 5040, Note_on_c, 9, 80, 43
10, 5059, Note_off_c, 9, 80, 43
10, 5088, Note_on_c, 9, 80, 41
10, 5103, Note_off_c, 9, 80, 41
10, 5136, Note_on_c, 9, 81, 55
10, 5184, Note_on_c, 9, 69, 63
10, 5203, Note_off_c, 9, 81, 55
10, 5222, Note_off_c, 9, 69, 63
10, 5232, Note_on_c, 9, 80, 41
10, 5254, Note_off_c, 9, 80, 41
10, 5280, Note_on_c, 9, 69, 58
10, 5299, Note_off_c, 9, 69, 58
10, 5328, Note_on_c, 9, 69, 53
10, 5328, Note_on_c, 9, 69, 45
10, 5340, Note_off_c, 9, 69, 53
10, 5344, Note_off_c, 9, 69, 45
10, 5376, Note_on_c, 9, 81, 52
10, 5376, Note_on_c, 9, 80, 41
10, 5385, Note_off_c, 9, 80, 41
10, 5424, Note_on_c, 9, 80, 25
10, 5435, Note_off_c, 9, 81, 52
10, 5443, Note_off_c, 9, 80, 25
10, 5472, Note_on_c, 9, 80, 36
10, 5488, Note_off_c, 9, 80, 36
10, 5520, Note_on_c, 9, 81, 49
10, 5597, Note_off_c, 9, 81, 49
10, 5616, Note_on_c, 9, 80, 41
10, 5643, Note_off_c, 9, 80, 41
10, 5664, Note_on_c, 9, 80, 31
10, 5678, Note_off_c, 9, 80, 31
10, 5712, Note_on_c, 9, 81, 59
10, 5760, Note_on_c, 9, 69, 48
10, 5778, Note_off_c, 9, 81, 59
10, 5787, Note_off_c, 9, 69, 48
10, 5808, Note_on_c, 9, 80, 32
10, 5827, Note_off_c, 9, 80, 32
10, 5856, Note_on_c, 9, 80, 30
10, 5868, Note_off_c, 9, 80, 30
10, 5904, Note_on_c, 9, 81, 58
10, 5929, Note_off_c, 9, 81, 58
10, 5952, Note_on_c, 9, 81, 19
10, 5987, Note_off_c, 9, 81, 19
10, 6000, Note_on_c, 9, 69, 32
10, 6048, Note_on_c, 9, 80, 41
10, 6050, Note_off_c, 9, 69, 32
10, 6075, Note_off_c, 9, 80, 41
10, 6144, Note_on_c, 9, 81, 58
10, 6192, Note_on_c, 9, 80, 28
10, 6194, Note_off_c, 9, 81, 58
10, 6202, Note_off_c, 9, 80, 28
10, 6240, Note_on_c, 9, 80, 34
10, 6259, Note_off_c, 9, 80, 34
10, 6288, Note_on_c, 9, 81, 73
10, 6377, Note_off_c, 9, 81, 73
10, 6384, Note_on_c, 9, 80, 33
10, 6398, Note_off_c, 9, 80, 33
10, 6432, Note_on_c, 9, 80, 41
10, 6448, Note_off_c, 9, 80, 41
10, 6480, Note_on_c, 9, 81, 56
10, 6528, Note_on_c, 9, 69, 48
10, 6552, Note_off_c, 9, 69, 48
10, 6560, Note_off_c, 9, 81, 56
10, 6576, Note_on_c, 9, 80, 37
10, 6600, Note_off_c, 9, 80, 37
10, 6624, Note_on_c, 9, 80, 36
10, 6643, Note_off_c, 9, 80, 36
10, 6672, Note_on_c, 9, 81, 64
10, 6720, Note_on_c, 9, 69, 41
10, 6722, Note_off_c, 9, 81, 64
10, 6744, Note_off_c, 9, 69, 41
10, 6768, Note_on_c, 9, 80, 42
10, 6792, Note_off_c, 9, 80, 42
10, 6816, Note_on_c, 9, 80, 37
10, 6837, Note_off_c, 9, 80, 37
10, 6864, Note_on_c, 9, 81, 61
10, 6952, Note_off_c, 9, 81, 61
10, 6960, Note_on_c, 9, 80, 36
10, 6983, Note_off_c, 9, 80, 36
10, 7008, Note_on_c, 9, 80, 41
10, 7027, Note_off_c, 9, 80, 41
10, 7056, Note_on_c, 9, 81, 69
10, 7141, Note_off_c, 9, 81, 69
10, 7152, Note_on_c, 9, 80, 39
10, 7169, Note_off_c, 9, 80, 39
10, 7200, Note_on_c, 9, 80, 46
10, 7217, Note_off_c, 9, 80, 46
10, 7248, Note_on_c, 9, 81, 72
10, 7344, Note_on_c, 9, 80, 36
10, 7346, Note_off_c, 9, 81, 72
10, 7363, Note_off_c, 9, 80, 36
10, 7392, Note_on_c, 9, 80, 28
10, 7401, Note_off_c, 9, 80, 28
10, 7440, Note_on_c, 9, 80, 43
10, 7456, Note_off_c, 9, 80, 43
10, 7488, Note_on_c, 9, 81, 75
10, 7542, Note_off_c, 9, 81, 75
10, 7584, Note_on_c, 9, 81, 46
10, 7634, Note_off_c, 9, 81, 46
10, 7680, Note_on_c, 9, 81, 61
10, 7726, Note_off_c, 9, 81, 61
10, 7728, Note_on_c, 9, 80, 33
10, 7746, Note_off_c, 9, 80, 33
10, 7776, Note_on_c, 9, 80, 36
10, 7792, Note_off_c, 9, 80, 36
10, 7824, Note_on_c, 9, 81, 56
10, 7906, Note_off_c, 9, 81, 56
10, 7920, Note_on_c, 9, 80, 22
10, 7940, Note_off_c, 9, 80, 22
10, 7968, Note_on_c, 9, 80, 28
10, 7987, Note_off_c, 9, 80, 28
10, 8016, Note_on_c, 9, 81, 58
10, 8108, Note_off_c, 9, 81, 58
10, 8112, Note_on_c, 9, 80, 26
10, 8128, Note_off_c, 9, 80, 26
10, 8160, Note_on_c, 9, 80, 31
10, 8178, Note_off_c, 9, 80, 31
10, 8208, Note_on_c, 9, 81, 50
10, 8291, Note_off_c, 9, 81, 50
10, 8304, Note_on_c, 9, 80, 36
10, 8319, Note_off_c, 9, 80, 36
10, 8352, Note_on_c, 9, 80, 36
10, 8371, Note_off_c, 9, 80, 36
10, 8400, Note_on_c, 9, 81, 42
10, 8420, Note_off_c, 9, 81, 42
10, 8448, Note_on_c, 9, 81, 62
10, 8497, Note_off_c, 9, 81, 62
10, 8544, Note_on_c, 9, 80, 35
10, 8571, Note_off_c, 9, 80, 35
10, 8592, Note_on_c, 9, 81, 63
10, 8671, Note_off_c, 9, 81, 63
10, 8688, Note_on_c, 9, 80, 39
10, 8707, Note_off_c, 9, 80, 39
10, 8736, Note_on_c, 9, 80, 28
10, 8754, Note_off_c, 9, 80, 28
10, 8784, Note_on_c, 9, 81, 65
10, 8844, Note_off_c, 9, 81, 65
10, 8880, Note_on_c, 9, 80, 42
10, 8901, Note_off_c, 9, 80, 42
10, 8928, Note_on_c, 9, 80, 34
10, 8943, Note_off_c, 9, 80, 34
10, 8976, Note_on_c, 9, 81, 60
10, 9064, Note_off_c, 9, 81, 60
10, 9072, Note_on_c, 9, 80, 33
10, 9088, Note_off_c, 9, 80, 33
10, 9120, Note_on_c, 9, 80, 39
10, 9161, Note_off_c, 9, 80, 39
10, 9168, Note_on_c, 9, 80, 32
10, 9191, Note_off_c, 9, 80, 32
10, 9216, Note_on_c, 9, 81, 59
10, 9260, Note_off_c, 9, 81, 59
10, 9264, Note_on_c, 9, 80, 12
10, 9277, Note_off_c, 9, 80, 12
10, 9312, Note_on_c, 9, 80, 36
10, 9332, Note_off_c, 9, 80, 36
10, 9360, Note_on_c, 9, 81, 63
10, 9448, Note_off_c, 9, 81, 63
10, 9456, Note_on_c, 9, 80, 27
10, 9469, Note_off_c, 9, 80, 27
10, 9504, Note_on_c, 9, 80, 32
10, 9522, Note_off_c, 9, 80, 32
10, 9552, Note_on_c, 9, 81, 66
10, 9634, Note_off_c, 9, 81, 66
10, 9648, Note_on_c, 9, 80, 32
10, 9664, Note_off_c, 9, 80, 32
10, 9696, Note_on_c, 9, 80, 35
10, 9710, Note_off_c, 9, 80, 35
10, 9744, Note_on_c, 9, 81, 63
10, 9832, Note_off_c, 9, 81, 63
10, 9840, Note_on_c, 9, 80, 40
10, 9858, Note_off_c, 9, 80, 40
10, 9888, Note_on_c, 9, 80, 40
10, 9907, Note_off_c, 9, 80, 40
10, 9936, Note_on_c, 9, 80, 33
10, 9952, Note_off_c, 9, 80, 33
10, 9984, Note_on_c, 9, 81, 72
10, 10016, Note_off_c, 9, 81, 72
10, 10032, Note_on_c, 9, 80, 28
10, 10052, Note_off_c, 9, 80, 28
10, 10080, Note_on_c, 9, 80, 34
10, 10096, Note_off_c, 9, 80, 34
10, 10128, Note_on_c, 9, 81, 62
10, 10184, Note_off_c, 9, 81, 62
10, 10224, Note_on_c, 9, 80, 24
10, 10238, Note_off_c, 9, 80, 24
10, 10272, Note_on_c, 9, 80, 36
10, 10289, Note_off_c, 9, 80, 36
10, 10320, Note_on_c, 9, 81, 69
10, 10408, Note_off_c, 9, 81, 69
10, 10416, Note_on_c, 9, 80, 29
10, 10429, Note_off_c, 9, 80, 29
10, 10464, Note_on_c, 9, 80, 39
10, 10477, Note_off_c, 9, 80, 39
10, 10512, Note_on_c, 9, 81, 56
10, 10607, Note_off_c, 9, 81, 56
10, 10608, Note_on_c, 9, 80, 31
10, 10624, Note_off_c, 9, 80, 31
10, 10656, Note_on_c, 9, 80, 38
10, 10675, Note_off_c, 9, 80, 38
10, 10704, Note_on_c, 9, 80, 28
10, 10711, Note_off_c, 9, 80, 28
10, 10752, Note_on_c, 9, 81, 60
10, 10796, Note_off_c, 9, 81, 60
10, 10800, Note_on_c, 9, 80, 17
10, 10817, Note_off_c, 9, 80, 17
10, 10848, Note_on_c, 9, 80, 36
10, 10864, Note_off_c, 9, 80, 36
10, 10896, Note_on_c, 9, 81, 69
10, 10978, Note_off_c, 9, 81, 69
10, 10992, Note_on_c, 9, 80, 31
10, 11008, Note_off_c, 9, 80, 31
10, 11040, Note_on_c, 9, 80, 33
10, 11056, Note_off_c, 9, 80, 33
10, 11088, Note_on_c, 9, 81, 70
10, 11176, Note_off_c, 9, 81, 70
10, 11184, Note_on_c, 9, 80, 32
10, 11209, Note_off_c, 9, 80, 32
10, 11232, Note_on_c, 9, 80, 29
10, 11250, Note_off_c, 9, 80, 29
10, 11280, Note_on_c, 9, 80, 34
10, 11297, Note_off_c, 9, 80, 34
10, 11328, Note_on_c, 9, 81, 61
10, 11392, Note_off_c, 9, 81, 61
10, 11424, Note_on_c, 9, 80, 43
10, 11442, Note_off_c, 9, 80, 43
10, 11520, Note_on_c, 9, 81, 55
10, 11555, Note_off_c, 9, 81, 55
10, 11568, Note_on_c, 9, 80, 22
10, 11586, Note_off_c, 9, 80, 22
10, 11616, Note_on_c, 9, 80, 33
10, 11632, Note_off_c, 9, 80, 33
10, 11664, Note_on_c, 9, 80, 37
10, 11683, Note_off_c, 9, 80, 37
10, 11712, Note_on_c, 9, 81, 66
10, 11800, Note_off_c, 9, 81, 66
10, 11808, Note_on_c, 9, 80, 33
10, 11820, Note_off_c, 9, 80, 33
10, 11856, Note_on_c, 9, 81, 61
10, 11942, Note_off_c, 9, 81, 61
10, 11952, Note_on_c, 9, 80, 33
10, 11964, Note_off_c, 9, 80, 33
10, 12000, Note_on_c, 9, 80, 34
10, 12021, Note_off_c, 9, 80, 34
10, 12048, Note_on_c, 9, 80, 39
10, 12066, Note_off_c, 9, 80, 39
10, 12096, Note_on_c, 9, 81, 63
10, 12131, Note_off_c, 9, 81, 63
10, 12144, Note_on_c, 9, 80, 32
10, 12164, Note_off_c, 9, 80, 32
10, 12192, Note_on_c, 9, 80, 36
10, 12210, Note_off_c, 9, 80, 36
10, 12240, Note_on_c, 9, 80, 39
10, 12256, Note_off_c, 9, 80, 39
10, 12288, Note_on_c, 9, 81, 70
10, 12379, Note_off_c, 9, 81, 70
10, 12384, Note_on_c, 9, 80, 33
10, 12397, Note_off_c, 9, 80, 33
10, 12432, Note_on_c, 9, 81, 63
10, 12501, Note_off_c, 9, 81, 63
10, 12528, Note_on_c, 9, 80, 34
10, 12545, Note_off_c, 9, 80, 34
10, 12576, Note_on_c, 9, 80, 31
10, 12596, Note_off_c, 9, 80, 31
10, 12624, Note_on_c, 9, 81, 59
10, 12703, Note_off_c, 9, 81, 59
10, 12720, Note_on_c, 9, 80, 33
10, 12740, Note_off_c, 9, 80, 33
10, 12768, Note_on_c, 9, 80, 31
10, 12786, Note_off_c, 9, 80, 31
10, 12816, Note_on_c, 9, 81, 56
10, 12895, Note_off_c, 9, 81, 56
10, 12912, Note_on_c, 9, 80, 36
10, 12929, Note_off_c, 9, 80, 36
10, 12960, Note_on_c, 9, 80, 33
10, 12975, Note_off_c, 9, 80, 33
10, 13008, Note_on_c, 9, 80, 41
10, 13023, Note_off_c, 9, 80, 41
10, 13056, Note_on_c, 9, 81, 66
10, 13134, Note_off_c, 9, 81, 66
10, 13152, Note_on_c, 9, 80, 31
10, 13166, Note_off_c, 9, 80, 31
10, 13200, Note_on_c, 9, 80, 27
10, 13212, Note_off_c, 9, 80, 27
10, 13248, Note_on_c, 9, 81, 70
10, 13332, Note_off_c, 9, 81, 70
10, 13344, Note_on_c, 9, 80, 25
10, 13353, Note_off_c, 9, 80, 25
10, 13392, Note_on_c, 9, 80, 44
10, 13411, Note_off_c, 9, 80, 44
10, 13440, Note_on_c, 9, 81, 66
10, 13548, Note_off_c, 9, 81, 66
10, 13584, Note_on_c, 9, 80, 31
10, 13602, Note_off_c, 9, 80, 31
10, 13632, Note_on_c, 9, 81, 58
10, 13669, Note_off_c, 9, 81, 58
10, 13680, Note_on_c, 9, 80, 23
10, 13701, Note_off_c, 9, 80, 23
10, 13728, Note_on_c, 9, 80, 26
10, 13742, Note_off_c, 9, 80, 26
10, 13776, Note_on_c, 9, 80, 32
10, 13791, Note_off_c, 9, 80, 32
10, 13824, Note_on_c, 9, 81, 70
10, 13912, Note_off_c, 9, 81, 70
10, 13920, Note_on_c, 9, 80, 32
10, 13929, Note_off_c, 9, 80, 32
10, 13968, Note_on_c, 9, 81, 63
10, 14044, Note_off_c, 9, 81, 63
10, 14064, Note_on_c, 9, 80, 29
10, 14078, Note_off_c, 9, 80, 29
10, 14112, Note_on_c, 9, 80, 28
10, 14130, Note_off_c, 9, 80, 28
10, 14160, Note_on_c, 9, 81, 62
10, 14243, Note_off_c, 9, 81, 62
10, 14256, Note_on_c, 9, 80, 36
10, 14275, Note_off_c, 9, 80, 36
10, 14304, Note_on_c, 9, 80, 30
10, 14317, Note_off_c, 9, 80, 30
10, 14352, Note_on_c, 9, 80, 28
10, 14362, Note_off_c, 9, 80, 28
10, 14400, Note_on_c, 9, 81, 65
10, 14493, Note_off_c, 9, 81, 65
10, 14496, Note_on_c, 9, 80, 32
10, 14512, Note_off_c, 9, 80, 32
10, 14544, Note_on_c, 9, 80, 18
10, 14556, Note_off_c, 9, 80, 18
10, 14592, Note_on_c, 9, 69, 52
10, 14592, Note_on_c, 9, 81, 63
10, 14638, Note_off_c, 9, 69, 52
10, 14640, Note_on_c, 9, 80, 31
10, 14652, Note_off_c, 9, 81, 63
10, 14660, Note_off_c, 9, 80, 31
10, 14688, Note_on_c, 9, 80, 32
10, 14706, Note_off_c, 9, 80, 32
10, 14736, Note_on_c, 9, 81, 72
10, 14814, Note_off_c, 9, 81, 72
10, 14832, Note_on_c, 9, 80, 30
10, 14850, Note_off_c, 9, 80, 30
10, 14880, Note_on_c, 9, 80, 28
10, 14891, Note_off_c, 9, 80, 28
10, 14928, Note_on_c, 9, 81, 56
10, 15017, Note_off_c, 9, 81, 56
10, 15024, Note_on_c, 9, 80, 31
10, 15039, Note_off_c, 9, 80, 31
10, 15072, Note_on_c, 9, 80, 29
10, 15084, Note_off_c, 9, 80, 29
10, 15120, Note_on_c, 9, 81, 60
10, 15216, Note_on_c, 9, 80, 36
10, 15217, Note_off_c, 9, 81, 60
10, 15238, Note_off_c, 9, 80, 36
10, 15264, Note_on_c, 9, 81, 37
10, 15264, Note_on_c, 9, 82, 52
10, 15279, Note_off_c, 9, 81, 37
10, 15305, Note_off_c, 9, 82, 52
10, 15312, Note_on_c, 9, 70, 49
10, 15312, Note_on_c, 9, 80, 33
10, 15332, Note_off_c, 9, 70, 49
10, 15335, Note_off_c, 9, 80, 33
10, 15360, Note_on_c, 9, 69, 41
10, 15360, Note_on_c, 9, 81, 52
10, 15408, Note_on_c, 9, 80, 18
10, 15422, Note_off_c, 9, 80, 18
10, 15424, Note_off_c, 9, 81, 52
10, 15434, Note_off_c, 9, 69, 41
10, 15456, Note_on_c, 9, 80, 22
10, 15466, Note_off_c, 9, 80, 22
10, 15504, Note_on_c, 9, 81, 68
10, 15586, Note_off_c, 9, 81, 68
10, 15600, Note_on_c, 9, 80, 30
10, 15615, Note_off_c, 9, 80, 30
10, 15648, Note_on_c, 9, 80, 26
10, 15670, Note_off_c, 9, 80, 26
10, 15696, Note_on_c, 9, 81, 65
10, 15784, Note_off_c, 9, 81, 65
10, 15792, Note_on_c, 9, 80, 35
10, 15804, Note_off_c, 9, 80, 35
10, 15840, Note_on_c, 9, 80, 46
10, 15861, Note_off_c, 9, 80, 46
10, 15888, Note_on_c, 9, 81, 68
10, 15981, Note_off_c, 9, 81, 68
10, 15984, Note_on_c, 9, 80, 39
10, 15984, Note_on_c, 9, 69, 43
10, 16004, Note_off_c, 9, 80, 39
10, 16020, Note_off_c, 9, 69, 43
10, 16032, Note_on_c, 9, 70, 44
10, 16032, Note_on_c, 9, 82, 67
10, 16071, Note_off_c, 9, 82, 67
10, 16074, Note_off_c, 9, 70, 44
10, 16080, Note_on_c, 9, 69, 35
10, 16080, Note_on_c, 9, 80, 20
10, 16089, Note_off_c, 9, 69, 35
10, 16092, Note_off_c, 9, 80, 20
10, 16128, Note_on_c, 9, 81, 56
10, 16128, Note_on_c, 9, 69, 45
10, 16174, Note_off_c, 9, 81, 56
10, 16176, Note_on_c, 9, 80, 6
10, 16191, Note_off_c, 9, 80, 6
10, 16191, Note_off_c, 9, 69, 45
10, 16224, Note_on_c, 9, 80, 37
10, 16240, Note_off_c, 9, 80, 37
10, 16272, Note_on_c, 9, 81, 70
10, 16357, Note_off_c, 9, 81, 70
10, 16368, Note_on_c, 9, 80, 25
10, 16384, Note_off_c, 9, 80, 25
10, 16416, Note_on_c, 9, 80, 40
10, 16434, Note_off_c, 9, 80, 40
10, 16464, Note_on_c, 9, 81, 72
10, 16556, Note_off_c, 9, 81, 72
10, 16560, Note_on_c, 9, 80, 30
10, 16576, Note_off_c, 9, 80, 30
10, 16608, Note_on_c, 9, 80, 44
10, 16630, Note_off_c, 9, 80, 44
10, 16656, Note_on_c, 9, 81, 54
10, 16717, Note_off_c, 9, 81, 54
10, 16752, Note_on_c, 9, 68, 46
10, 16752, Note_on_c, 9, 80, 43
10, 16762, Note_off_c, 9, 68, 46
10, 16778, Note_off_c, 9, 80, 43
10, 16800, Note_on_c, 9, 81, 51
10, 16821, Note_off_c, 9, 81, 51
10, 16848, Note_on_c, 9, 80, 34
10, 16860, Note_off_c, 9, 80, 34
10, 16896, Note_on_c, 9, 80, 54
10, 16919, Note_off_c, 9, 80, 54
10, 16944, Note_on_c, 9, 80, 17
10, 16961, Note_off_c, 9, 80, 17
10, 16992, Note_on_c, 9, 80, 44
10, 17010, Note_off_c, 9, 80, 44
10, 17040, Note_on_c, 9, 81, 73
10, 17127, Note_off_c, 9, 81, 73
10, 17136, Note_on_c, 9, 80, 34
10, 17154, Note_off_c, 9, 80, 34
10, 17184, Note_on_c, 9, 80, 44
10, 17202, Note_off_c, 9, 80, 44
10, 17232, Note_on_c, 9, 81, 58
10, 17317, Note_off_c, 9, 81, 58
10, 17328, Note_on_c, 9, 80, 26
10, 17334, Note_off_c, 9, 80, 26
10, 17376, Note_on_c, 9, 80, 50
10, 17393, Note_off_c, 9, 80, 50
10, 17424, Note_on_c, 9, 81, 63
10, 17513, Note_off_c, 9, 81, 63
10, 17520, Note_on_c, 9, 75, 69
10, 17535, Note_off_c, 9, 75, 69
10, 17568, Note_on_c, 9, 80, 40
10, 17568, Note_on_c, 9, 75, 59
10, 17593, Note_off_c, 9, 80, 40
10, 17617, Note_off_c, 9, 75, 59
10, 17664, Note_on_c, 9, 81, 61
10, 17706, Note_off_c, 9, 81, 61
10, 17760, Note_on_c, 9, 80, 34
10, 17783, Note_off_c, 9, 80, 34
10, 17808, Note_on_c, 9, 81, 60
10, 17875, Note_off_c, 9, 81, 60
10, 17904, Note_on_c, 9, 80, 37
10, 17923, Note_off_c, 9, 80, 37
10, 17952, Note_on_c, 9, 80, 34
10, 17968, Note_off_c, 9, 80, 34
10, 18000, Note_on_c, 9, 81, 76
10, 18040, Note_off_c, 9, 81, 76
10, 18096, Note_on_c, 9, 81, 36
10, 18123, Note_off_c, 9, 81, 36
10, 18144, Note_on_c, 9, 80, 39
10, 18163, Note_off_c, 9, 80, 39
10, 18192, Note_on_c, 9, 80, 38
10, 18211, Note_off_c, 9, 80, 38
10, 18240, Note_on_c, 9, 69, 47
10, 18240, Note_on_c, 9, 81, 52
10, 18285, Note_off_c, 9, 81, 52
10, 18321, Note_off_c, 9, 69, 47
10, 18336, Note_on_c, 9, 80, 36
10, 18360, Note_off_c, 9, 80, 36
10, 18384, Note_on_c, 9, 69, 53
10, 18404, Note_off_c, 9, 69, 53
10, 18432, Note_on_c, 9, 81, 58
10, 18432, Note_on_c, 9, 69, 51
10, 18480, Note_on_c, 9, 80, 32
10, 18486, Note_off_c, 9, 81, 58
10, 18495, Note_off_c, 9, 80, 32
10, 18528, Note_on_c, 9, 80, 39
10, 18537, Note_off_c, 9, 69, 51
10, 18546, Note_off_c, 9, 80, 39
10, 18576, Note_on_c, 9, 69, 43
10, 18576, Note_on_c, 9, 81, 63
10, 18644, Note_off_c, 9, 81, 63
10, 18653, Note_off_c, 9, 69, 43
10, 18672, Note_on_c, 9, 80, 36
10, 18688, Note_off_c, 9, 80, 36
10, 18720, Note_on_c, 9, 80, 36
10, 18741, Note_off_c, 9, 80, 36
10, 18768, Note_on_c, 9, 81, 59
10, 18864, Note_on_c, 9, 80, 34
10, 18876, Note_off_c, 9, 81, 59
10, 18883, Note_off_c, 9, 80, 34
10, 18912, Note_on_c, 9, 80, 30
10, 18930, Note_off_c, 9, 80, 30
10, 18960, Note_on_c, 9, 81, 62
10, 18960, Note_on_c, 9, 69, 22
10, 18984, Note_off_c, 9, 69, 22
10, 19008, Note_on_c, 9, 69, 43
10, 19050, Note_off_c, 9, 81, 62
10, 19056, Note_on_c, 9, 80, 37
10, 19061, Note_off_c, 9, 69, 43
10, 19078, Note_off_c, 9, 80, 37
10, 19104, Note_on_c, 9, 80, 33
10, 19123, Note_off_c, 9, 80, 33
10, 19152, Note_on_c, 9, 81, 47
10, 19171, Note_off_c, 9, 81, 47
10, 19200, Note_on_c, 9, 69, 47
10, 19200, Note_on_c, 9, 81, 52
10, 19248, Note_on_c, 9, 80, 24
10, 19258, Note_off_c, 9, 81, 52
10, 19262, Note_off_c, 9, 80, 24
10, 19277, Note_off_c, 9, 69, 47
10, 19296, Note_on_c, 9, 80, 34
10, 19316, Note_off_c, 9, 80, 34
10, 19344, Note_on_c, 9, 69, 47
10, 19344, Note_on_c, 9, 81, 58
10, 19425, Note_off_c, 9, 69, 47
10, 19428, Note_off_c, 9, 81, 58
10, 19488, Note_on_c, 9, 80, 34
10, 19506, Note_off_c, 9, 80, 34
10, 19536, Note_on_c, 9, 81, 59
10, 19603, Note_off_c, 9, 81, 59
10, 19632, Note_on_c, 9, 80, 40
10, 19654, Note_off_c, 9, 80, 40
10, 19680, Note_on_c, 9, 81, 48
10, 19699, Note_off_c, 9, 81, 48
10, 19728, Note_on_c, 9, 81, 44
10, 19744, Note_off_c, 9, 81, 44
10, 19776, Note_on_c, 9, 81, 54
10, 19824, Note_on_c, 9, 80, 29
10, 19825, Note_off_c, 9, 81, 54
10, 19852, Note_off_c, 9, 80, 29
10, 19872, Note_on_c, 9, 80, 35
10, 19893, Note_off_c, 9, 80, 35
10, 19920, Note_on_c, 9, 80, 38
10, 19934, Note_off_c, 9, 80, 38
10, 19968, Note_on_c, 9, 81, 69
10, 20014, Note_off_c, 9, 81, 69
10, 20016, Note_on_c, 9, 80, 37
10, 20040, Note_off_c, 9, 80, 37
10, 20064, Note_on_c, 9, 80, 41
10, 20083, Note_off_c, 9, 80, 41
10, 20112, Note_on_c, 9, 81, 65
10, 20194, Note_off_c, 9, 81, 65
10, 20208, Note_on_c, 9, 80, 34
10, 20229, Note_off_c, 9, 80, 34
10, 20256, Note_on_c, 9, 80, 36
10, 20280, Note_off_c, 9, 80, 36
10, 20304, Note_on_c, 9, 81, 70
10, 20385, Note_off_c, 9, 81, 70
10, 20400, Note_on_c, 9, 80, 28
10, 20421, Note_off_c, 9, 80, 28
10, 20448, Note_on_c, 9, 80, 39
10, 20466, Note_off_c, 9, 80, 39
10, 20496, Note_on_c, 9, 81, 70
10, 20569, Note_off_c, 9, 81, 70
10, 20592, Note_on_c, 9, 80, 38
10, 20609, Note_off_c, 9, 80, 38
10, 20640, Note_on_c, 9, 80, 41
10, 20655, Note_off_c, 9, 80, 41
10, 20688, Note_on_c, 9, 80, 40
10, 20703, Note_off_c, 9, 80, 40
10, 20736, Note_on_c, 9, 81, 66
10, 20767, Note_off_c, 9, 81, 66
10, 20784, Note_on_c, 9, 80, 25
10, 20802, Note_off_c, 9, 80, 25
10, 20832, Note_on_c, 9, 80, 32
10, 20850, Note_off_c, 9, 80, 32
10, 20880, Note_on_c, 9, 81, 68
10, 20958, Note_off_c, 9, 81, 68
10, 20976, Note_on_c, 9, 80, 30
10, 20995, Note_off_c, 9, 80, 30
10, 21024, Note_on_c, 9, 80, 39
10, 21043, Note_off_c, 9, 80, 39
10, 21072, Note_on_c, 9, 81, 62
10, 21166, Note_off_c, 9, 81, 62
10, 21168, Note_on_c, 9, 80, 33
10, 21192, Note_off_c, 9, 80, 33
10, 21216, Note_on_c, 9, 80, 33
10, 21235, Note_off_c, 9, 80, 33
10, 21264, Note_on_c, 9, 81, 64
10, 21345, Note_off_c, 9, 81, 64
10, 21360, Note_on_c, 9, 80, 39
10, 21379, Note_off_c, 9, 80, 39
10, 21408, Note_on_c, 9, 80, 39
10, 21429, Note_off_c, 9, 80, 39
10, 21456, Note_on_c, 9, 80, 31
10, 21468, Note_off_c, 9, 80, 31
10, 21504, Note_on_c, 9, 81, 62
10, 21548, Note_off_c, 9, 81, 62
10, 21552, Note_on_c, 9, 80, 31
10, 21574, Note_off_c, 9, 80, 31
10, 21600, Note_on_c, 9, 80, 33
10, 21622, Note_off_c, 9, 80, 33
10, 21648, Note_on_c, 9, 81, 70
10, 21726, Note_off_c, 9, 81, 70
10, 21744, Note_on_c, 9, 80, 33
10, 21763, Note_off_c, 9, 80, 33
10, 21792, Note_on_c, 9, 80, 32
10, 21811, Note_off_c, 9, 80, 32
10, 21840, Note_on_c, 9, 81, 64
10, 21927, Note_off_c, 9, 81, 64
10, 21936, Note_on_c, 9, 80, 35
10, 21957, Note_off_c, 9, 80, 35
10, 21984, Note_on_c, 9, 80, 30
10, 22002, Note_off_c, 9, 80, 30
10, 22032, Note_on_c, 9, 80, 34
10, 22050, Note_off_c, 9, 80, 34
10, 22080, Note_on_c, 9, 81, 64
10, 22176, Note_on_c, 9, 80, 34
10, 22180, Note_off_c, 9, 81, 64
10, 22195, Note_off_c, 9, 80, 34
10, 22224, Note_on_c, 9, 80, 32
10, 22238, Note_off_c, 9, 80, 32
10, 22272, Note_on_c, 9, 81, 65
10, 22320, Note_on_c, 9, 80, 27
10, 22322, Note_off_c, 9, 81, 65
10, 22338, Note_off_c, 9, 80, 27
10, 22368, Note_on_c, 9, 80, 32
10, 22392, Note_off_c, 9, 80, 32
10, 22416, Note_on_c, 9, 80, 36
10, 22434, Note_off_c, 9, 80, 36
10, 22464, Note_on_c, 9, 81, 64
10, 22538, Note_off_c, 9, 81, 64
10, 22560, Note_on_c, 9, 80, 30
10, 22574, Note_off_c, 9, 80, 30
10, 22608, Note_on_c, 9, 81, 65
10, 22697, Note_off_c, 9, 81, 65
10, 22704, Note_on_c, 9, 80, 30
10, 22717, Note_off_c, 9, 80, 30
10, 22752, Note_on_c, 9, 80, 34
10, 22770, Note_off_c, 9, 80, 34
10, 22800, Note_on_c, 9, 81, 70
10, 22883, Note_off_c, 9, 81, 70
10, 22896, Note_on_c, 9, 80, 34
10, 22919, Note_off_c, 9, 80, 34
10, 22944, Note_on_c, 9, 80, 33
10, 22962, Note_off_c, 9, 80, 33
10, 22992, Note_on_c, 9, 80, 37
10, 23010, Note_off_c, 9, 80, 37
10, 23040, Note_on_c, 9, 81, 65
10, 23128, Note_off_c, 9, 81, 65
10, 23136, Note_on_c, 9, 80, 31
10, 23152, Note_off_c, 9, 80, 31
10, 23184, Note_on_c, 9, 81, 60
10, 23260, Note_off_c, 9, 81, 60
10, 23280, Note_on_c, 9, 80, 40
10, 23298, Note_off_c, 9, 80, 40
10, 23328, Note_on_c, 9, 80, 34
10, 23343, Note_off_c, 9, 80, 34
10, 23376, Note_on_c, 9, 81, 65
10, 23457, Note_off_c, 9, 81, 65
10, 23472, Note_on_c, 9, 80, 35
10, 23491, Note_off_c, 9, 80, 35
10, 23520, Note_on_c, 9, 80, 35
10, 23537, Note_off_c, 9, 80, 35
10, 23568, Note_on_c, 9, 80, 37
10, 23586, Note_off_c, 9, 80, 37
10, 23616, Note_on_c, 9, 81, 73
10, 23660, Note_off_c, 9, 81, 73
10, 23664, Note_on_c, 9, 80, 28
10, 23686, Note_off_c, 9, 80, 28
10, 23712, Note_on_c, 9, 80, 39
10, 23729, Note_off_c, 9, 80, 39
10, 23760, Note_on_c, 9, 80, 59
10, 23780, Note_off_c, 9, 80, 59
10, 23808, Note_on_c, 9, 81, 68
10, 23886, Note_off_c, 9, 81, 68
10, 23904, Note_on_c, 9, 80, 40
10, 23922, Note_off_c, 9, 80, 40
10, 23952, Note_on_c, 9, 80, 53
10, 23970, Note_off_c, 9, 80, 53
10, 24000, Note_on_c, 9, 81, 73
10, 24084, Note_off_c, 9, 81, 73
10, 24096, Note_on_c, 9, 80, 37
10, 24112, Note_off_c, 9, 80, 37
10, 24144, Note_on_c, 9, 80, 40
10, 24163, Note_off_c, 9, 80, 40
10, 24192, Note_on_c, 9, 81, 65
10, 24270, Note_off_c, 9, 81, 65
10, 24288, Note_on_c, 9, 80, 34
10, 24305, Note_off_c, 9, 80, 34
10, 24336, Note_on_c, 9, 80, 44
10, 24352, Note_off_c, 9, 80, 44
10, 24384, Note_on_c, 9, 81, 72
10, 24480, Note_on_c, 9, 80, 32
10, 24486, Note_off_c, 9, 81, 72
10, 24492, Note_off_c, 9, 80, 32
10, 24528, Note_on_c, 9, 80, 37
10, 24544, Note_off_c, 9, 80, 37
10, 24576, Note_on_c, 9, 81, 37
10, 24576, Note_on_c, 9, 69, 34
10, 24610, Note_off_c, 9, 81, 37
10, 24667, Note_off_c, 9, 69, 34
10, 24672, Note_on_c, 9, 80, 28
10, 24678, Note_off_c, 9, 80, 28
10, 24720, Note_on_c, 9, 81, 63
10, 24814, Note_off_c, 9, 81, 63
10, 24816, Note_on_c, 9, 80, 30
10, 24831, Note_off_c, 9, 80, 30
10, 24864, Note_on_c, 9, 80, 37
10, 24882, Note_off_c, 9, 80, 37
10, 24912, Note_on_c, 9, 81, 75
10, 24994, Note_off_c, 9, 81, 75
10, 25008, Note_on_c, 9, 80, 41
10, 25029, Note_off_c, 9, 80, 41
10, 25056, Note_on_c, 9, 80, 45
10, 25074, Note_off_c, 9, 80, 45
10, 25104, Note_on_c, 9, 69, 32
10, 25141, Note_off_c, 9, 69, 32
10, 25152, Note_on_c, 9, 81, 38
10, 25152, Note_on_c, 9, 69, 52
10, 25175, Note_off_c, 9, 69, 52
10, 25200, Note_on_c, 9, 80, 29
10, 25206, Note_off_c, 9, 81, 38
10, 25215, Note_off_c, 9, 80, 29
10, 25248, Note_on_c, 9, 80, 36
10, 25248, Note_on_c, 9, 69, 42
10, 25274, Note_off_c, 9, 80, 36
10, 25296, Note_on_c, 9, 80, 33
10, 25317, Note_off_c, 9, 80, 33
10, 25330, Note_off_c, 9, 69, 42
10, 25344, Note_on_c, 9, 81, 76
10, 25392, Note_on_c, 9, 80, 29
10, 25398, Note_off_c, 9, 81, 76
10, 25416, Note_off_c, 9, 80, 29
10, 25440, Note_on_c, 9, 80, 41
10, 25457, Note_off_c, 9, 80, 41
10, 25488, Note_on_c, 9, 81, 76
10, 25580, Note_off_c, 9, 81, 76
10, 25584, Note_on_c, 9, 80, 38
10, 25600, Note_off_c, 9, 80, 38
10, 25632, Note_on_c, 9, 80, 39
10, 25653, Note_off_c, 9, 80, 39
10, 25680, Note_on_c, 9, 81, 78
10, 25776, Note_on_c, 9, 80, 38
10, 25778, Note_off_c, 9, 81, 78
10, 25792, Note_off_c, 9, 80, 38
10, 25824, Note_on_c, 9, 80, 43
10, 25844, Note_off_c, 9, 80, 43
10, 25872, Note_on_c, 9, 81, 65
10, 25959, Note_off_c, 9, 81, 65
10, 25968, Note_on_c, 9, 80, 36
10, 25985, Note_off_c, 9, 80, 36
10, 26016, Note_on_c, 9, 80, 49
10, 26041, Note_off_c, 9, 80, 49
10, 26064, Note_on_c, 9, 81, 45
10, 26079, Note_off_c, 9, 81, 45
10, 26112, Note_on_c, 9, 81, 57
10, 26155, Note_off_c, 9, 81, 57
10, 26160, Note_on_c, 9, 80, 27
10, 26184, Note_off_c, 9, 80, 27
10, 26208, Note_on_c, 9, 80, 34
10, 26226, Note_off_c, 9, 80, 34
10, 26256, Note_on_c, 9, 81, 73
10, 26345, Note_off_c, 9, 81, 73
10, 26352, Note_on_c, 9, 80, 26
10, 26365, Note_off_c, 9, 80, 26
10, 26400, Note_on_c, 9, 80, 37
10, 26415, Note_off_c, 9, 80, 37
10, 26448, Note_on_c, 9, 81, 66
10, 26544, Note_on_c, 9, 80, 34
10, 26550, Note_off_c, 9, 81, 66
10, 26560, Note_off_c, 9, 80, 34
10, 26592, Note_on_c, 9, 80, 35
10, 26607, Note_off_c, 9, 80, 35
10, 26640, Note_on_c, 9, 81, 52
10, 26718, Note_off_c, 9, 81, 52
10, 26736, Note_on_c, 9, 80, 37
10, 26753, Note_off_c, 9, 80, 37
10, 26784, Note_on_c, 9, 81, 63
10, 26810, Note_off_c, 9, 81, 63
10, 26832, Note_on_c, 9, 80, 30
10, 26847, Note_off_c, 9, 80, 30
10, 26880, Note_on_c, 9, 80, 53
10, 26912, Note_off_c, 9, 80, 53
10, 26928, Note_on_c, 9, 80, 44
10, 26952, Note_off_c, 9, 80, 44
10, 26976, Note_on_c, 9, 80, 46
10, 26998, Note_off_c, 9, 80, 46
10, 27024, Note_on_c, 9, 81, 78
10, 27103, Note_off_c, 9, 81, 78
10, 27120, Note_on_c, 9, 80, 39
10, 27135, Note_off_c, 9, 80, 39
10, 27168, Note_on_c, 9, 80, 43
10, 27186, Note_off_c, 9, 80, 43
10, 27216, Note_on_c, 9, 81, 63
10, 27306, Note_off_c, 9, 81, 63
10, 27312, Note_on_c, 9, 80, 34
10, 27325, Note_off_c, 9, 80, 34
10, 27360, Note_on_c, 9, 80, 44
10, 27378, Note_off_c, 9, 80, 44
10, 27408, Note_on_c, 9, 80, 46
10, 27430, Note_off_c, 9, 80, 46
10, 27456, Note_on_c, 9, 81, 73
10, 27504, Note_on_c, 9, 80, 32
10, 27510, Note_off_c, 9, 81, 73
10, 27527, Note_off_c, 9, 80, 32
10, 27552, Note_on_c, 9, 80, 39
10, 27571, Note_off_c, 9, 80, 39
10, 27600, Note_on_c, 9, 80, 45
10, 27619, Note_off_c, 9, 80, 45
10, 27648, Note_on_c, 9, 81, 84
10, 27679, Note_off_c, 9, 81, 84
10, 27696, Note_on_c, 9, 80, 37
10, 27714, Note_off_c, 9, 80, 37
10, 27744, Note_on_c, 9, 80, 39
10, 27760, Note_off_c, 9, 80, 39
10, 27792, Note_on_c, 9, 81, 80
10, 27877, Note_off_c, 9, 81, 80
10, 27888, Note_on_c, 9, 80, 41
10, 27907, Note_off_c, 9, 80, 41
10, 27936, Note_on_c, 9, 80, 44
10, 27949, Note_off_c, 9, 80, 44
10, 27984, Note_on_c, 9, 81, 75
10, 28055, Note_off_c, 9, 81, 75
10, 28080, Note_on_c, 9, 80, 39
10, 28096, Note_off_c, 9, 80, 39
10, 28128, Note_on_c, 9, 80, 58
10, 28146, Note_off_c, 9, 80, 58
10, 28176, Note_on_c, 9, 81, 70
10, 28249, Note_off_c, 9, 81, 70
10, 28272, Note_on_c, 9, 80, 37
10, 28288, Note_off_c, 9, 80, 37
10, 28320, Note_on_c, 9, 80, 41
10, 28339, Note_off_c, 9, 80, 41
10, 28368, Note_on_c, 9, 80, 39
10, 28385, Note_off_c, 9, 80, 39
10, 28416, Note_on_c, 9, 81, 68
10, 28443, Note_off_c, 9, 81, 68
10, 28464, Note_on_c, 9, 80, 32
10, 28486, Note_off_c, 9, 80, 32
10, 28512, Note_on_c, 9, 80, 36
10, 28531, Note_off_c, 9, 80, 36
10, 28560, Note_on_c, 9, 81, 56
10, 28641, Note_off_c, 9, 81, 56
10, 28656, Note_on_c, 9, 80, 36
10, 28675, Note_off_c, 9, 80, 36
10, 28704, Note_on_c, 9, 80, 34
10, 28725, Note_off_c, 9, 80, 34
10, 28752, Note_on_c, 9, 81, 58
10, 28838, Note_off_c, 9, 81, 58
10, 28848, Note_on_c, 9, 80, 31
10, 28869, Note_off_c, 9, 80, 31
10, 28896, Note_on_c, 9, 80, 27
10, 28911, Note_off_c, 9, 80, 27
10, 28944, Note_on_c, 9, 80, 35
10, 28959, Note_off_c, 9, 80, 35
10, 28992, Note_on_c, 9, 81, 60
10, 29088, Note_on_c, 9, 80, 35
10, 29090, Note_off_c, 9, 81, 60
10, 29105, Note_off_c, 9, 80, 35
10, 29136, Note_on_c, 9, 80, 30
10, 29151, Note_off_c, 9, 80, 30
10, 29184, Note_on_c, 9, 81, 59
10, 29268, Note_off_c, 9, 81, 59
10, 29280, Note_on_c, 9, 80, 36
10, 29300, Note_off_c, 9, 80, 36
10, 29328, Note_on_c, 9, 81, 50
10, 29395, Note_off_c, 9, 81, 50
10, 29424, Note_on_c, 9, 80, 37
10, 29444, Note_off_c, 9, 80, 37
10, 29472, Note_on_c, 9, 80, 37
10, 29490, Note_off_c, 9, 80, 37
10, 29520, Note_on_c, 9, 81, 69
10, 29609, Note_off_c, 9, 81, 69
10, 29616, Note_on_c, 9, 80, 30
10, 29639, Note_off_c, 9, 80, 30
10, 29664, Note_on_c, 9, 80, 33
10, 29682, Note_off_c, 9, 80, 33
10, 29712, Note_on_c, 9, 81, 63
10, 29796, Note_off_c, 9, 81, 63
10, 29808, Note_on_c, 9, 80, 36
10, 29826, Note_off_c, 9, 80, 36
10, 29856, Note_on_c, 9, 80, 36
10, 29877, Note_off_c, 9, 80, 36
10, 29904, Note_on_c, 9, 80, 28
10, 29916, Note_off_c, 9, 80, 28
10, 29952, Note_on_c, 9, 81, 52
10, 29997, Note_off_c, 9, 81, 52
10, 30000, Note_on_c, 9, 80, 21
10, 30013, Note_off_c, 9, 80, 21
10, 30048, Note_on_c, 9, 80, 36
10, 30074, Note_off_c, 9, 80, 36
10, 30096, Note_on_c, 9, 81, 57
10, 30180, Note_off_c, 9, 81, 57
10, 30240, Note_on_c, 9, 80, 35
10, 30261, Note_off_c, 9, 80, 35
10, 30288, Note_on_c, 9, 81, 59
10, 30364, Note_off_c, 9, 81, 59
10, 30384, Note_on_c, 9, 80, 37
10, 30405, Note_off_c, 9, 80, 37
10, 30432, Note_on_c, 9, 80, 39
10, 30450, Note_off_c, 9, 80, 39
10, 30480, Note_on_c, 9, 81, 64
10, 30567, Note_off_c, 9, 81, 64
10, 30576, Note_on_c, 9, 80, 33
10, 30592, Note_off_c, 9, 80, 33
10, 30624, Note_on_c, 9, 80, 36
10, 30641, Note_off_c, 9, 80, 36
10, 30672, Note_on_c, 9, 80, 33
10, 30685, Note_off_c, 9, 80, 33
10, 30720, Note_on_c, 9, 81, 59
10, 30768, Note_on_c, 9, 80, 33
10, 30772, Note_off_c, 9, 81, 59
10, 30790, Note_off_c, 9, 80, 33
10, 30816, Note_on_c, 9, 80, 36
10, 30835, Note_off_c, 9, 80, 36
10, 30864, Note_on_c, 9, 81, 61
10, 30925, Note_off_c, 9, 81, 61
10, 30960, Note_on_c, 9, 80, 36
10, 30982, Note_off_c, 9, 80, 36
10, 31008, Note_on_c, 9, 80, 36
10, 31022, Note_off_c, 9, 80, 36
10, 31056, Note_on_c, 9, 81, 70
10, 31128, Note_off_c, 9, 81, 70
10, 31152, Note_on_c, 9, 80, 34
10, 31167, Note_off_c, 9, 80, 34
10, 31200, Note_on_c, 9, 80, 40
10, 31214, Note_off_c, 9, 80, 40
10, 31248, Note_on_c, 9, 81, 70
10, 31302, Note_off_c, 9, 81, 70
10, 31344, Note_on_c, 9, 80, 40
10, 31360, Note_off_c, 9, 80, 40
10, 31392, Note_on_c, 9, 80, 37
10, 31404, Note_off_c, 9, 80, 37
10, 31440, Note_on_c, 9, 80, 41
10, 31455, Note_off_c, 9, 80, 41
10, 31488, Note_on_c, 9, 81, 70
10, 31522, Note_off_c, 9, 81, 70
10, 31536, Note_on_c, 9, 80, 34
10, 31558, Note_off_c, 9, 80, 34
10, 31584, Note_on_c, 9, 80, 41
10, 31600, Note_off_c, 9, 80, 41
10, 31632, Note_on_c, 9, 81, 72
10, 31676, Note_off_c, 9, 81, 72
10, 31728, Note_on_c, 9, 80, 38
10, 31740, Note_off_c, 9, 80, 38
10, 31776, Note_on_c, 9, 80, 43
10, 31792, Note_off_c, 9, 80, 43
10, 31824, Note_on_c, 9, 81, 69
10, 31878, Note_off_c, 9, 81, 69
10, 31920, Note_on_c, 9, 80, 37
10, 31933, Note_off_c, 9, 80, 37
10, 31968, Note_on_c, 9, 80, 41
10, 31980, Note_off_c, 9, 80, 41
10, 32016, Note_on_c, 9, 81, 68
10, 32043, Note_off_c, 9, 81, 68
10, 32112, Note_on_c, 9, 80, 44
10, 32127, Note_off_c, 9, 80, 44
10, 32160, Note_on_c, 9, 80, 35
10, 32171, Note_off_c, 9, 80, 35
10, 32208, Note_on_c, 9, 80, 48
10, 32226, Note_off_c, 9, 80, 48
10, 32256, Note_on_c, 9, 81, 69
10, 32285, Note_off_c, 9, 81, 69
10, 32304, Note_on_c, 9, 80, 34
10, 32323, Note_off_c, 9, 80, 34
10, 32352, Note_on_c, 9, 80, 42
10, 32367, Note_off_c, 9, 80, 42
10, 32400, Note_on_c, 9, 81, 66
10, 32463, Note_off_c, 9, 81, 66
10, 32496, Note_on_c, 9, 80, 36
10, 32515, Note_off_c, 9, 80, 36
10, 32544, Note_on_c, 9, 80, 34
10, 32560, Note_off_c, 9, 80, 34
10, 32592, Note_on_c, 9, 81, 68
10, 32676, Note_off_c, 9, 81, 68
10, 32688, Note_on_c, 9, 80, 25
10, 32703, Note_off_c, 9, 80, 25
10, 32736, Note_on_c, 9, 80, 36
10, 32751, Note_off_c, 9, 80, 36
10, 32784, Note_on_c, 9, 80, 34
10, 32798, Note_off_c, 9, 80, 34
10, 32832, Note_on_c, 9, 81, 52
10, 32927, Note_off_c, 9, 81, 52
10, 32928, Note_on_c, 9, 80, 41
10, 32947, Note_off_c, 9, 80, 41
10, 33024, Note_on_c, 9, 81, 55
10, 33059, Note_off_c, 9, 81, 55
10, 33072, Note_on_c, 9, 80, 22
10, 33090, Note_off_c, 9, 80, 22
10, 33120, Note_on_c, 9, 80, 33
10, 33136, Note_off_c, 9, 80, 33
10, 33168, Note_on_c, 9, 80, 37
10, 33187, Note_off_c, 9, 80, 37
10, 33216, Note_on_c, 9, 81, 66
10, 33304, Note_off_c, 9, 81, 66
10, 33312, Note_on_c, 9, 80, 33
10, 33324, Note_off_c, 9, 80, 33
10, 33360, Note_on_c, 9, 81, 61
10, 33446, Note_off_c, 9, 81, 61
10, 33456, Note_on_c, 9, 80, 33
10, 33468, Note_off_c, 9, 80, 33
10, 33504, Note_on_c, 9, 80, 34
10, 33525, Note_off_c, 9, 80, 34
10, 33552, Note_on_c, 9, 80, 39
10, 33570, Note_off_c, 9, 80, 39
10, 33600, Note_on_c, 9, 81, 63
10, 33635, Note_off_c, 9, 81, 63
10, 33648, Note_on_c, 9, 80, 32
10, 33668, Note_off_c, 9, 80, 32
10, 33696, Note_on_c, 9, 80, 36
10, 33714, Note_off_c, 9, 80, 36
10, 33744, Note_on_c, 9, 80, 39
10, 33760, Note_off_c, 9, 80, 39
10, 33792, Note_on_c, 9, 81, 70
10, 33883, Note_off_c, 9, 81, 70
10, 33888, Note_on_c, 9, 80, 33
10, 33901, Note_off_c, 9, 80, 33
10, 33936, Note_on_c, 9, 81, 63
10, 34005, Note_off_c, 9, 81, 63
10, 34032, Note_on_c, 9, 80, 34
10, 34049, Note_off_c, 9, 80, 34
10, 34080, Note_on_c, 9, 80, 31
10, 34100, Note_off_c, 9, 80, 31
10, 34128, Note_on_c, 9, 81, 59
10, 34207, Note_off_c, 9, 81, 59
10, 34224, Note_on_c, 9, 80, 33
10, 34244, Note_off_c, 9, 80, 33
10, 34272, Note_on_c, 9, 80, 31
10, 34290, Note_off_c, 9, 80, 31
10, 34320, Note_on_c, 9, 81, 56
10, 34399, Note_off_c, 9, 81, 56
10, 34416, Note_on_c, 9, 80, 36
10, 34433, Note_off_c, 9, 80, 36
10, 34464, Note_on_c, 9, 80, 33
10, 34479, Note_off_c, 9, 80, 33
10, 34512, Note_on_c, 9, 80, 41
10, 34527, Note_off_c, 9, 80, 41
10, 34560, Note_on_c, 9, 81, 66
10, 34638, Note_off_c, 9, 81, 66
10, 34656, Note_on_c, 9, 80, 31
10, 34670, Note_off_c, 9, 80, 31
10, 34704, Note_on_c, 9, 80, 27
10, 34716, Note_off_c, 9, 80, 27
10, 34752, Note_on_c, 9, 81, 70
10, 34836, Note_off_c, 9, 81, 70
10, 34848, Note_on_c, 9, 80, 25
10, 34857, Note_off_c, 9, 80, 25
10, 34896, Note_on_c, 9, 80, 44
10, 34915, Note_off_c, 9, 80, 44
10, 34944, Note_on_c, 9, 81, 66
10, 35052, Note_off_c, 9, 81, 66
10, 35088, Note_on_c, 9, 80, 31
10, 35106, Note_off_c, 9, 80, 31
10, 35136, Note_on_c, 9, 81, 58
10, 35173, Note_off_c, 9, 81, 58
10, 35184, Note_on_c, 9, 80, 23
10, 35205, Note_off_c, 9, 80, 23
10, 35232, Note_on_c, 9, 80, 26
10, 35246, Note_off_c, 9, 80, 26
10, 35280, Note_on_c, 9, 80, 32
10, 35295, Note_off_c, 9, 80, 32
10, 35328, Note_on_c, 9, 81, 70
10, 35416, Note_off_c, 9, 81, 70
10, 35424, Note_on_c, 9, 80, 32
10, 35433, Note_off_c, 9, 80, 32
10, 35472, Note_on_c, 9, 81, 63
10, 35548, Note_off_c, 9, 81, 63
10, 35568, Note_on_c, 9, 80, 29
10, 35582, Note_off_c, 9, 80, 29
10, 35616, Note_on_c, 9, 80, 28
10, 35634, Note_off_c, 9, 80, 28
10, 35664, Note_on_c, 9, 81, 62
10, 35747, Note_off_c, 9, 81, 62
10, 35760, Note_on_c, 9, 80, 36
10, 35779, Note_off_c, 9, 80, 36
10, 35808, Note_on_c, 9, 80, 30
10, 35821, Note_off_c, 9, 80, 30
10, 35856, Note_on_c, 9, 80, 28
10, 35866, Note_off_c, 9, 80, 28
10, 35904, Note_on_c, 9, 81, 65
10, 35997, Note_off_c, 9, 81, 65
10, 36000, Note_on_c, 9, 80, 32
10, 36016, Note_off_c, 9, 80, 32
10, 36048, Note_on_c, 9, 80, 18
10, 36060, Note_off_c, 9, 80, 18
10, 36060, End_track
0, 0, End_of_file
