0, 0, Header, 1, 5, 960
1, 0, Start_track
1, 0, Control_c, 0, 101, 0
1, 0, Control_c, 0, 100, 0
1, 0, Control_c, 0, 6, 12
1, 0, Control_c, 0, 38, 0
1, 0, Control_c, 1, 101, 0
1, 0, Control_c, 1, 100, 0
1, 0, Control_c, 1, 6, 12
1, 0, Control_c, 1, 38, 0
1, 0, Control_c, 2, 101, 0
1, 0, Control_c, 2, 100, 0
1, 0, Control_c, 2, 6, 12
1, 0, Control_c, 2, 38, 0
1, 0, Control_c, 3, 101, 0
1, 0, Control_c, 3, 100, 0
1, 0, Control_c, 3, 6, 12
1, 0, Control_c, 3, 38, 0
1, 0, Control_c, 4, 101, 0
1, 0, Control_c, 4, 100, 0
1, 0, Control_c, 4, 6, 12
1, 0, Control_c, 4, 38, 0
1, 0, Control_c, 5, 101, 0
1, 0, Control_c, 5, 100, 0
1, 0, Control_c, 5, 6, 12
1, 0, Control_c, 5, 38, 0
1, 0, Control_c, 6, 101, 0
1, 0, Control_c, 6, 100, 0
1, 0, Control_c, 6, 6, 12
1, 0, Control_c, 6, 38, 0
1, 0, Control_c, 7, 101, 0
1, 0, Control_c, 7, 100, 0
1, 0, Control_c, 7, 6, 12
1, 0, Control_c, 7, 38, 0
1, 0, Control_c, 8, 101, 0
1, 0, Control_c, 8, 100, 0
1, 0, Control_c, 8, 6, 12
1, 0, Control_c, 8, 38, 0
1, 0, Control_c, 9, 101, 0
1, 0, Control_c, 9, 100, 0
1, 0, Control_c, 9, 6, 12
1, 0, Control_c, 9, 38, 0
1, 0, Control_c, 10, 101, 0
1, 0, Control_c, 10, 100, 0
1, 0, Control_c, 10, 6, 12
1, 0, Control_c, 10, 38, 0
1, 0, Control_c, 11, 101, 0
1, 0, Control_c, 11, 100, 0
1, 0, Control_c, 11, 6, 12
1, 0, Control_c, 11, 38, 0
1, 0, Control_c, 12, 101, 0
1, 0, Control_c, 12, 100, 0
1, 0, Control_c, 12, 6, 12
1, 0, Control_c, 12, 38, 0
1, 0, Control_c, 13, 101, 0
1, 0, Control_c, 13, 100, 0
1, 0, Control_c, 13, 6, 12
1, 0, Control_c, 13, 38, 0
1, 0, Control_c, 14, 101, 0
1, 0, Control_c, 14, 100, 0
1, 0, Control_c, 14, 6, 12
1, 0, Control_c, 14, 38, 0
1, 0, Control_c, 15, 101, 0
1, 0, Control_c, 15, 100, 0
1, 0, Control_c, 15, 6, 12
1, 0, Control_c, 15, 38, 0
1, 0, Time_signature, 4, 2, 24, 8
1, 0, Tempo, 428571
1, 0, End_track
2, 0, Start_track
2, 0, Pitch_bend_c, 0, 8192
2, 0, Control_c, 0, 7, 127
2, 0, Control_c, 0, 10, 63
2, 0, Control_c, 0, 93, 127
2, 0, Control_c, 0, 91, 87
2, 0, Control_c, 0, 95, 63
2, 0, Control_c, 0, 92, 39
2, 0, Control_c, 0, 11, 127
2, 0, Program_c, 0, 25
2, 0, Control_c, 1, 7, 127
2, 0, Control_c, 1, 10, 63
2, 0, Control_c, 1, 93, 127
2, 0, Control_c, 1, 91, 87
2, 0, Control_c, 1, 95, 63
2, 0, Control_c, 1, 92, 39
2, 0, Control_c, 1, 11, 127
2, 0, Program_c, 1, 25
2, 0, Note_on_c, 1, 60, 95
2, 160, Pitch_bend_c, 1, 8192
2, 320, Pitch_bend_c, 1, 8320
2, 480, Pitch_bend_c, 1, 8192
2, 640, Pitch_bend_c, 1, 8320
2, 800, Pitch_bend_c, 1, 8192
2, 960, Pitch_bend_c, 1, 8320
2, 960, Pitch_bend_c, 1, 8192
2, 960, Note_off_c, 1, 60, 95
2, 1920, Note_on_c, 1, 59, 95
2, 2080, Pitch_bend_c, 1, 8192
2, 2240, Pitch_bend_c, 1, 8320
2, 2400, Pitch_bend_c, 1, 8192
2, 2560, Pitch_bend_c, 1, 8320
2, 2720, Pitch_bend_c, 1, 8192
2, 2880, Pitch_bend_c, 1, 8320
2, 2880, Pitch_bend_c, 1, 8192
2, 2880, Note_off_c, 1, 59, 95
2, 3840, Note_on_c, 1, 57, 95
2, 4000, Pitch_bend_c, 1, 8192
2, 4160, Pitch_bend_c, 1, 8320
2, 4320, Pitch_bend_c, 1, 8192
2, 4480, Pitch_bend_c, 1, 8320
2, 4640, Pitch_bend_c, 1, 8192
2, 4800, Pitch_bend_c, 1, 8320
2, 4800, Pitch_bend_c, 1, 8192
2, 4800, Note_off_c, 1, 57, 95
2, 5760, Note_on_c, 0, 57, 95
2, 5780, Note_on_c, 1, 57, 95
2, 5830, Note_off_c, 0, 57, 95
2, 5940, Pitch_bend_c, 1, 8192
2, 6100, Pitch_bend_c, 1, 8320
2, 6260, Pitch_bend_c, 1, 8192
2, 6400, Pitch_bend_c, 1, 8320
2, 6400, Pitch_bend_c, 1, 8192
2, 6400, Note_off_c, 1, 57, 95
2, 6400, Note_on_c, 1, 59, 95
2, 6560, Pitch_bend_c, 1, 8192
2, 6720, Pitch_bend_c, 1, 8320
2, 6880, Pitch_bend_c, 1, 8192
2, 7040, Pitch_bend_c, 1, 8320
2, 7040, Pitch_bend_c, 1, 8192
2, 7040, Note_off_c, 1, 59, 95
2, 7040, Note_on_c, 1, 60, 95
2, 7200, Pitch_bend_c, 1, 8192
2, 7360, Pitch_bend_c, 1, 8320
2, 7520, Pitch_bend_c, 1, 8192
2, 7680, Pitch_bend_c, 1, 8320
2, 7680, Pitch_bend_c, 1, 8192
2, 7680, Note_off_c, 1, 60, 95
2, 7680, Note_on_c, 1, 53, 95
2, 7840, Pitch_bend_c, 1, 8192
2, 8000, Pitch_bend_c, 1, 8320
2, 8160, Pitch_bend_c, 1, 8192
2, 8320, Pitch_bend_c, 1, 8320
2, 8480, Pitch_bend_c, 1, 8192
2, 8640, Pitch_bend_c, 1, 8320
2, 8800, Pitch_bend_c, 1, 8192
2, 8960, Pitch_bend_c, 1, 8320
2, 9120, Pitch_bend_c, 1, 8192
2, 9280, Pitch_bend_c, 1, 8320
2, 9440, Pitch_bend_c, 1, 8192
2, 9600, Pitch_bend_c, 1, 8320
2, 9760, Pitch_bend_c, 1, 8192
2, 9920, Pitch_bend_c, 1, 8320
2, 10080, Pitch_bend_c, 1, 8192
2, 10240, Pitch_bend_c, 1, 8320
2, 10400, Pitch_bend_c, 1, 8192
2, 10560, Pitch_bend_c, 1, 8320
2, 10560, Pitch_bend_c, 1, 8192
2, 10560, Note_off_c, 1, 53, 95
2, 11040, Note_on_c, 0, 52, 95
2, 11200, Note_off_c, 0, 52, 95
2, 11200, Note_on_c, 0, 53, 70
2, 11360, Note_off_c, 0, 53, 70
2, 11360, Note_on_c, 0, 52, 70
2, 11520, Note_off_c, 0, 52, 70
2, 11520, Note_on_c, 1, 50, 95
2, 11680, Pitch_bend_c, 1, 8192
2, 11840, Pitch_bend_c, 1, 8320
2, 12000, Pitch_bend_c, 1, 8192
2, 12160, Pitch_bend_c, 1, 8320
2, 12320, Pitch_bend_c, 1, 8192
2, 12480, Pitch_bend_c, 1, 8320
2, 12640, Pitch_bend_c, 1, 8192
2, 12800, Pitch_bend_c, 1, 8320
2, 12960, Pitch_bend_c, 1, 8192
2, 13120, Pitch_bend_c, 1, 8320
2, 13280, Pitch_bend_c, 1, 8192
2, 13440, Pitch_bend_c, 1, 8320
2, 13600, Pitch_bend_c, 1, 8192
2, 13760, Pitch_bend_c, 1, 8320
2, 13920, Pitch_bend_c, 1, 8192
2, 14080, Pitch_bend_c, 1, 8320
2, 14240, Pitch_bend_c, 1, 8192
2, 14400, Pitch_bend_c, 1, 8320
2, 14400, Pitch_bend_c, 1, 8192
2, 14400, Note_off_c, 1, 50, 95
2, 15360, Note_on_c, 1, 59, 95
2, 15520, Pitch_bend_c, 1, 8192
2, 15680, Pitch_bend_c, 1, 8320
2, 15840, Pitch_bend_c, 1, 8192
2, 16000, Pitch_bend_c, 1, 8320
2, 16160, Pitch_bend_c, 1, 8192
2, 16320, Pitch_bend_c, 1, 8320
2, 16320, Pitch_bend_c, 1, 8192
2, 16320, Note_off_c, 1, 59, 95
2, 17280, Note_on_c, 1, 57, 95
2, 17440, Pitch_bend_c, 1, 8192
2, 17600, Pitch_bend_c, 1, 8320
2, 17760, Pitch_bend_c, 1, 8192
2, 17920, Pitch_bend_c, 1, 8320
2, 18080, Pitch_bend_c, 1, 8192
2, 18240, Pitch_bend_c, 1, 8320
2, 18240, Pitch_bend_c, 1, 8192
2, 18240, Note_off_c, 1, 57, 95
2, 19200, Note_on_c, 1, 55, 95
2, 19360, Pitch_bend_c, 1, 8192
2, 19520, Pitch_bend_c, 1, 8320
2, 19680, Pitch_bend_c, 1, 8192
2, 19840, Pitch_bend_c, 1, 8320
2, 20000, Pitch_bend_c, 1, 8192
2, 20160, Pitch_bend_c, 1, 8320
2, 20160, Pitch_bend_c, 1, 8192
2, 20160, Note_off_c, 1, 55, 95
2, 20640, Note_on_c, 1, 40, 95
2, 20710, Pitch_bend_c, 1, 8192
2, 20710, Pitch_bend_c, 1, 8320
2, 20710, Pitch_bend_c, 1, 8192
2, 20710, Note_off_c, 1, 40, 95
2, 20880, Note_on_c, 1, 53, 95
2, 20950, Pitch_bend_c, 1, 8192
2, 20950, Pitch_bend_c, 1, 8320
2, 20950, Pitch_bend_c, 1, 8192
2, 20950, Note_off_c, 1, 53, 95
2, 21000, Note_on_c, 0, 50, 95
2, 21070, Note_off_c, 0, 50, 95
2, 21120, Note_on_c, 1, 50, 95
2, 21280, Pitch_bend_c, 1, 8192
2, 21440, Pitch_bend_c, 1, 8320
2, 21600, Pitch_bend_c, 1, 8192
2, 21760, Pitch_bend_c, 1, 8320
2, 21760, Pitch_bend_c, 1, 8192
2, 21760, Note_off_c, 1, 50, 95
2, 21760, Note_on_c, 1, 52, 95
2, 21920, Pitch_bend_c, 1, 8192
2, 22080, Pitch_bend_c, 1, 8320
2, 22240, Pitch_bend_c, 1, 8192
2, 22400, Pitch_bend_c, 1, 8320
2, 22400, Pitch_bend_c, 1, 8192
2, 22400, Note_off_c, 1, 52, 95
2, 22400, Note_on_c, 1, 53, 95
2, 22560, Pitch_bend_c, 1, 8192
2, 22720, Pitch_bend_c, 1, 8320
2, 22880, Pitch_bend_c, 1, 8192
2, 23040, Pitch_bend_c, 1, 8320
2, 23040, Pitch_bend_c, 1, 8192
2, 23040, Note_off_c, 1, 53, 95
2, 23040, Note_on_c, 1, 52, 95
2, 23200, Pitch_bend_c, 1, 8192
2, 23360, Pitch_bend_c, 1, 8320
2, 23520, Pitch_bend_c, 1, 8192
2, 23680, Pitch_bend_c, 1, 8320
2, 23840, Pitch_bend_c, 1, 8192
2, 24000, Pitch_bend_c, 1, 8320
2, 24160, Pitch_bend_c, 1, 8192
2, 24320, Pitch_bend_c, 1, 8320
2, 24480, Pitch_bend_c, 1, 8192
2, 24640, Pitch_bend_c, 1, 8320
2, 24800, Pitch_bend_c, 1, 8192
2, 24960, Pitch_bend_c, 1, 8320
2, 25120, Pitch_bend_c, 1, 8192
2, 25280, Pitch_bend_c, 1, 8320
2, 25440, Pitch_bend_c, 1, 8192
2, 25600, Pitch_bend_c, 1, 8320
2, 25760, Pitch_bend_c, 1, 8192
2, 25920, Pitch_bend_c, 1, 8320
2, 26080, Pitch_bend_c, 1, 8192
2, 26240, Pitch_bend_c, 1, 8320
2, 26400, Pitch_bend_c, 1, 8192
2, 26560, Pitch_bend_c, 1, 8320
2, 26720, Pitch_bend_c, 1, 8192
2, 26880, Pitch_bend_c, 1, 8320
2, 26880, Pitch_bend_c, 1, 8192
2, 26880, Note_off_c, 1, 52, 95
2, 30720, Note_on_c, 0, 55, 95
2, 30750, Note_on_c, 1, 60, 95
2, 30790, Note_off_c, 0, 55, 95
2, 30910, Pitch_bend_c, 1, 8192
2, 31070, Pitch_bend_c, 1, 8320
2, 31230, Pitch_bend_c, 1, 8192
2, 31390, Pitch_bend_c, 1, 8320
2, 31550, Pitch_bend_c, 1, 8192
2, 31680, Pitch_bend_c, 1, 8320
2, 31680, Pitch_bend_c, 1, 8192
2, 31680, Note_off_c, 1, 60, 95
2, 32640, Note_on_c, 0, 55, 95
2, 32670, Note_on_c, 1, 59, 95
2, 32710, Note_off_c, 0, 55, 95
2, 32830, Pitch_bend_c, 1, 8192
2, 32990, Pitch_bend_c, 1, 8320
2, 33150, Pitch_bend_c, 1, 8192
2, 33310, Pitch_bend_c, 1, 8320
2, 33470, Pitch_bend_c, 1, 8192
2, 33600, Pitch_bend_c, 1, 8320
2, 33600, Pitch_bend_c, 1, 8192
2, 33600, Note_off_c, 1, 59, 95
2, 34560, Note_on_c, 0, 57, 95
2, 34590, Note_on_c, 1, 57, 95
2, 34630, Note_off_c, 0, 57, 95
2, 34750, Pitch_bend_c, 1, 8192
2, 34910, Pitch_bend_c, 1, 8320
2, 35070, Pitch_bend_c, 1, 8192
2, 35230, Pitch_bend_c, 1, 8320
2, 35390, Pitch_bend_c, 1, 8192
2, 35520, Pitch_bend_c, 1, 8320
2, 35520, Pitch_bend_c, 1, 8192
2, 35520, Note_off_c, 1, 57, 95
2, 36480, Note_on_c, 0, 57, 95
2, 36500, Note_on_c, 1, 57, 95
2, 36550, Note_off_c, 0, 57, 95
2, 36660, Pitch_bend_c, 1, 8192
2, 36820, Pitch_bend_c, 1, 8320
2, 36980, Pitch_bend_c, 1, 8192
2, 37120, Pitch_bend_c, 1, 8320
2, 37120, Pitch_bend_c, 1, 8192
2, 37120, Note_off_c, 1, 57, 95
2, 37120, Note_on_c, 1, 59, 95
2, 37280, Pitch_bend_c, 1, 8192
2, 37440, Pitch_bend_c, 1, 8320
2, 37600, Pitch_bend_c, 1, 8192
2, 37760, Pitch_bend_c, 1, 8320
2, 37760, Pitch_bend_c, 1, 8192
2, 37760, Note_off_c, 1, 59, 95
2, 37760, Note_on_c, 1, 60, 95
2, 37920, Pitch_bend_c, 1, 8192
2, 38080, Pitch_bend_c, 1, 8320
2, 38240, Pitch_bend_c, 1, 8192
2, 38400, Pitch_bend_c, 1, 8320
2, 38400, Pitch_bend_c, 1, 8192
2, 38400, Note_off_c, 1, 60, 95
2, 38400, Note_on_c, 1, 53, 95
2, 38560, Pitch_bend_c, 1, 8192
2, 38720, Pitch_bend_c, 1, 8320
2, 38880, Pitch_bend_c, 1, 8192
2, 39040, Pitch_bend_c, 1, 8320
2, 39200, Pitch_bend_c, 1, 8192
2, 39360, Pitch_bend_c, 1, 8320
2, 39520, Pitch_bend_c, 1, 8192
2, 39680, Pitch_bend_c, 1, 8320
2, 39840, Pitch_bend_c, 1, 8192
2, 40000, Pitch_bend_c, 1, 8320
2, 40160, Pitch_bend_c, 1, 8192
2, 40320, Pitch_bend_c, 1, 8320
2, 40480, Pitch_bend_c, 1, 8192
2, 40640, Pitch_bend_c, 1, 8320
2, 40800, Pitch_bend_c, 1, 8192
2, 40960, Pitch_bend_c, 1, 8320
2, 41120, Pitch_bend_c, 1, 8192
2, 41280, Pitch_bend_c, 1, 8320
2, 41280, Pitch_bend_c, 1, 8192
2, 41280, Note_off_c, 1, 53, 95
2, 41760, Note_on_c, 0, 52, 95
2, 41920, Note_off_c, 0, 52, 95
2, 41920, Note_on_c, 0, 53, 70
2, 42080, Note_off_c, 0, 53, 70
2, 42080, Note_on_c, 0, 52, 70
2, 42240, Note_off_c, 0, 52, 70
2, 42240, Note_on_c, 1, 50, 95
2, 42400, Pitch_bend_c, 1, 8192
2, 42560, Pitch_bend_c, 1, 8320
2, 42720, Pitch_bend_c, 1, 8192
2, 42880, Pitch_bend_c, 1, 8320
2, 43040, Pitch_bend_c, 1, 8192
2, 43200, Pitch_bend_c, 1, 8320
2, 43360, Pitch_bend_c, 1, 8192
2, 43520, Pitch_bend_c, 1, 8320
2, 43680, Pitch_bend_c, 1, 8192
2, 43840, Pitch_bend_c, 1, 8320
2, 44000, Pitch_bend_c, 1, 8192
2, 44160, Pitch_bend_c, 1, 8320
2, 44320, Pitch_bend_c, 1, 8192
2, 44480, Pitch_bend_c, 1, 8320
2, 44640, Pitch_bend_c, 1, 8192
2, 44800, Pitch_bend_c, 1, 8320
2, 44960, Pitch_bend_c, 1, 8192
2, 45120, Pitch_bend_c, 1, 8320
2, 45120, Pitch_bend_c, 1, 8192
2, 45120, Note_off_c, 1, 50, 95
2, 46080, Note_on_c, 0, 55, 95
2, 46110, Note_on_c, 1, 59, 95
2, 46150, Note_off_c, 0, 55, 95
2, 46270, Pitch_bend_c, 1, 8192
2, 46430, Pitch_bend_c, 1, 8320
2, 46590, Pitch_bend_c, 1, 8192
2, 46750, Pitch_bend_c, 1, 8320
2, 46910, Pitch_bend_c, 1, 8192
2, 47040, Pitch_bend_c, 1, 8320
2, 47040, Pitch_bend_c, 1, 8192
2, 47040, Note_off_c, 1, 59, 95
2, 48000, Note_on_c, 0, 57, 95
2, 48030, Note_on_c, 1, 57, 95
2, 48070, Note_off_c, 0, 57, 95
2, 48190, Pitch_bend_c, 1, 8192
2, 48350, Pitch_bend_c, 1, 8320
2, 48510, Pitch_bend_c, 1, 8192
2, 48670, Pitch_bend_c, 1, 8320
2, 48830, Pitch_bend_c, 1, 8192
2, 48960, Pitch_bend_c, 1, 8320
2, 48960, Pitch_bend_c, 1, 8192
2, 48960, Note_off_c, 1, 57, 95
2, 49920, Note_on_c, 0, 55, 95
2, 49950, Note_on_c, 1, 55, 95
2, 49990, Note_off_c, 0, 55, 95
2, 50110, Pitch_bend_c, 1, 8192
2, 50270, Pitch_bend_c, 1, 8320
2, 50430, Pitch_bend_c, 1, 8192
2, 50590, Pitch_bend_c, 1, 8320
2, 50750, Pitch_bend_c, 1, 8192
2, 50880, Pitch_bend_c, 1, 8320
2, 50880, Pitch_bend_c, 1, 8192
2, 50880, Note_off_c, 1, 55, 95
2, 51660, Note_on_c, 1, 40, 95
2, 51720, Pitch_bend_c, 1, 8192
2, 51720, Pitch_bend_c, 1, 8320
2, 51720, Pitch_bend_c, 1, 8192
2, 51720, Note_off_c, 1, 40, 95
2, 51720, Note_on_c, 1, 53, 95
2, 51780, Note_on_c, 0, 50, 95
2, 51790, Pitch_bend_c, 1, 8192
2, 51790, Pitch_bend_c, 1, 8320
2, 51790, Pitch_bend_c, 1, 8192
2, 51790, Note_off_c, 1, 53, 95
2, 51840, Note_off_c, 0, 50, 95
2, 51840, Note_on_c, 1, 50, 95
2, 52000, Pitch_bend_c, 1, 8192
2, 52160, Pitch_bend_c, 1, 8320
2, 52320, Pitch_bend_c, 1, 8192
2, 52480, Pitch_bend_c, 1, 8320
2, 52480, Pitch_bend_c, 1, 8192
2, 52480, Note_off_c, 1, 50, 95
2, 52480, Note_on_c, 1, 52, 95
2, 52640, Pitch_bend_c, 1, 8192
2, 52800, Pitch_bend_c, 1, 8320
2, 52960, Pitch_bend_c, 1, 8192
2, 53120, Pitch_bend_c, 1, 8320
2, 53120, Pitch_bend_c, 1, 8192
2, 53120, Note_off_c, 1, 52, 95
2, 53120, Note_on_c, 1, 53, 95
2, 53280, Pitch_bend_c, 1, 8192
2, 53440, Pitch_bend_c, 1, 8320
2, 53600, Pitch_bend_c, 1, 8192
2, 53760, Pitch_bend_c, 1, 8320
2, 53760, Pitch_bend_c, 1, 8192
2, 53760, Note_off_c, 1, 53, 95
2, 53760, Note_on_c, 1, 52, 95
2, 53920, Pitch_bend_c, 1, 8192
2, 54080, Pitch_bend_c, 1, 8320
2, 54240, Pitch_bend_c, 1, 8192
2, 54400, Pitch_bend_c, 1, 8320
2, 54560, Pitch_bend_c, 1, 8192
2, 54720, Pitch_bend_c, 1, 8320
2, 54880, Pitch_bend_c, 1, 8192
2, 55040, Pitch_bend_c, 1, 8320
2, 55200, Pitch_bend_c, 1, 8192
2, 55360, Pitch_bend_c, 1, 8320
2, 55520, Pitch_bend_c, 1, 8192
2, 55680, Pitch_bend_c, 1, 8320
2, 55840, Pitch_bend_c, 1, 8192
2, 56000, Pitch_bend_c, 1, 8320
2, 56160, Pitch_bend_c, 1, 8192
2, 56320, Pitch_bend_c, 1, 8320
2, 56480, Pitch_bend_c, 1, 8192
2, 56640, Pitch_bend_c, 1, 8320
2, 56800, Pitch_bend_c, 1, 8192
2, 56960, Pitch_bend_c, 1, 8320
2, 57120, Pitch_bend_c, 1, 8192
2, 57280, Pitch_bend_c, 1, 8320
2, 57440, Pitch_bend_c, 1, 8192
2, 57600, Pitch_bend_c, 1, 8320
2, 57600, Pitch_bend_c, 1, 8192
2, 57600, Note_off_c, 1, 52, 95
2, 119040, Note_on_c, 0, 55, 95
2, 119040, Note_on_c, 0, 48, 95
2, 119520, Note_off_c, 0, 55, 95
2, 119520, Note_off_c, 0, 48, 95
2, 119520, Note_on_c, 0, 55, 95
2, 119520, Note_on_c, 0, 48, 95
2, 120000, Note_off_c, 0, 55, 95
2, 120000, Note_off_c, 0, 48, 95
2, 120000, Note_on_c, 0, 55, 95
2, 120000, Note_on_c, 0, 48, 95
2, 120480, Note_off_c, 0, 55, 95
2, 120480, Note_off_c, 0, 48, 95
2, 120480, Note_on_c, 0, 55, 95
2, 120480, Note_on_c, 0, 48, 95
2, 120960, Note_off_c, 0, 55, 95
2, 120960, Note_off_c, 0, 48, 95
2, 120960, Note_on_c, 0, 55, 95
2, 120960, Note_on_c, 0, 48, 95
2, 121440, Note_off_c, 0, 55, 95
2, 121440, Note_off_c, 0, 48, 95
2, 121440, Note_on_c, 0, 55, 95
2, 121440, Note_on_c, 0, 48, 95
2, 121920, Note_off_c, 0, 55, 95
2, 121920, Note_off_c, 0, 48, 95
2, 121920, Note_on_c, 0, 55, 95
2, 121920, Note_on_c, 0, 48, 95
2, 122400, Note_off_c, 0, 55, 95
2, 122400, Note_off_c, 0, 48, 95
2, 122400, Note_on_c, 0, 55, 95
2, 122400, Note_on_c, 0, 48, 95
2, 122880, Note_off_c, 0, 55, 95
2, 122880, Note_off_c, 0, 48, 95
2, 122880, Note_on_c, 0, 40, 95
2, 122888, Note_on_c, 0, 47, 95
2, 122896, Note_on_c, 0, 52, 95
2, 129600, Note_off_c, 0, 52, 95
2, 129600, Note_off_c, 0, 47, 95
2, 129600, Note_off_c, 0, 40, 95
2, 129600, Note_on_c, 0, 45, 95
2, 129600, Note_on_c, 0, 45, 95
2, 130080, Note_off_c, 0, 45, 95
2, 130080, Note_off_c, 0, 45, 95
2, 130080, Note_on_c, 0, 45, 95
2, 130080, Note_on_c, 0, 45, 95
2, 130560, Note_off_c, 0, 45, 95
2, 130560, Note_off_c, 0, 45, 95
2, 130560, Note_on_c, 0, 45, 95
2, 130568, Note_on_c, 0, 52, 95
2, 130576, Note_on_c, 0, 57, 95
2, 134400, Note_off_c, 0, 57, 95
2, 134640, Note_off_c, 0, 52, 95
2, 134640, Note_off_c, 0, 45, 95
2, 134880, Note_on_c, 0, 57, 95
2, 134880, Note_on_c, 0, 52, 95
2, 134880, Note_on_c, 0, 45, 95
2, 135360, Note_off_c, 0, 57, 95
2, 135360, Note_off_c, 0, 52, 95
2, 135360, Note_off_c, 0, 45, 95
2, 136320, Note_on_c, 0, 57, 95
2, 136320, Note_on_c, 0, 52, 95
2, 136320, Note_on_c, 0, 45, 95
2, 137760, Note_off_c, 0, 57, 95
2, 137760, Note_off_c, 0, 52, 95
2, 137760, Note_off_c, 0, 45, 95
2, 138240, Note_on_c, 0, 53, 95
2, 138240, Note_on_c, 0, 48, 95
2, 138240, Note_on_c, 0, 41, 95
2, 138720, Note_off_c, 0, 53, 95
2, 138720, Note_off_c, 0, 48, 95
2, 138720, Note_off_c, 0, 41, 95
2, 138720, Note_on_c, 0, 53, 95
2, 138720, Note_on_c, 0, 48, 95
2, 138720, Note_on_c, 0, 41, 95
2, 139200, Note_off_c, 0, 53, 95
2, 139200, Note_off_c, 0, 48, 95
2, 139200, Note_off_c, 0, 41, 95
2, 140160, Note_on_c, 0, 55, 95
2, 140160, Note_on_c, 0, 50, 95
2, 140160, Note_on_c, 0, 43, 95
2, 140640, Note_off_c, 0, 55, 95
2, 140640, Note_off_c, 0, 50, 95
2, 140640, Note_off_c, 0, 43, 95
2, 140640, Note_on_c, 0, 55, 95
2, 140640, Note_on_c, 0, 50, 95
2, 140640, Note_on_c, 0, 43, 95
2, 141120, Note_off_c, 0, 55, 95
2, 141120, Note_off_c, 0, 50, 95
2, 141120, Note_off_c, 0, 43, 95
2, 142080, Note_on_c, 0, 60, 95
2, 142080, Note_on_c, 0, 55, 95
2, 142080, Note_on_c, 0, 48, 95
2, 142080, Note_on_c, 0, 43, 95
2, 145920, Note_off_c, 0, 60, 95
2, 145920, Note_off_c, 0, 55, 95
2, 145920, Note_off_c, 0, 48, 95
2, 145920, Note_off_c, 0, 43, 95
2, 145920, Note_on_c, 0, 53, 95
2, 145920, Note_on_c, 0, 48, 95
2, 145920, Note_on_c, 0, 41, 95
2, 146060, Note_off_c, 0, 41, 95
2, 146400, Note_off_c, 0, 53, 95
2, 146400, Note_off_c, 0, 48, 95
2, 146400, Note_on_c, 0, 53, 95
2, 146400, Note_on_c, 0, 48, 95
2, 146400, Note_on_c, 0, 41, 95
2, 146540, Note_off_c, 0, 41, 95
2, 146880, Note_off_c, 0, 53, 95
2, 146880, Note_off_c, 0, 48, 95
2, 147840, Note_on_c, 0, 55, 95
2, 147840, Note_on_c, 0, 50, 95
2, 147840, Note_on_c, 0, 43, 95
2, 147980, Note_off_c, 0, 43, 95
2, 148320, Note_off_c, 0, 55, 95
2, 148320, Note_off_c, 0, 50, 95
2, 148320, Note_on_c, 0, 55, 95
2, 148320, Note_on_c, 0, 50, 95
2, 148320, Note_on_c, 0, 43, 95
2, 148460, Note_off_c, 0, 43, 95
2, 148800, Note_off_c, 0, 55, 95
2, 148800, Note_off_c, 0, 50, 95
2, 149760, Note_on_c, 0, 60, 95
2, 149760, Note_on_c, 0, 55, 95
2, 149760, Note_on_c, 0, 48, 95
2, 149760, Note_on_c, 0, 43, 95
2, 153600, Note_off_c, 0, 60, 95
2, 153600, Note_off_c, 0, 55, 95
2, 153600, Note_off_c, 0, 48, 95
2, 153600, Note_off_c, 0, 43, 95
2, 153600, Note_on_c, 0, 52, 95
2, 153600, Note_on_c, 0, 47, 95
2, 153600, Note_on_c, 0, 40, 95
2, 153740, Note_off_c, 0, 40, 95
2, 154080, Note_off_c, 0, 52, 95
2, 154080, Note_off_c, 0, 47, 95
2, 154080, Note_on_c, 0, 52, 95
2, 154080, Note_on_c, 0, 47, 95
2, 154080, Note_on_c, 0, 40, 95
2, 154220, Note_off_c, 0, 40, 95
2, 154560, Note_off_c, 0, 52, 95
2, 154560, Note_off_c, 0, 47, 95
2, 154560, Note_on_c, 0, 52, 95
2, 154560, Note_on_c, 0, 47, 95
2, 154560, Note_on_c, 0, 40, 95
2, 154700, Note_off_c, 0, 40, 95
2, 155040, Note_off_c, 0, 52, 95
2, 155040, Note_off_c, 0, 47, 95
2, 155040, Note_on_c, 0, 52, 95
2, 155040, Note_on_c, 0, 47, 95
2, 155040, Note_on_c, 0, 40, 95
2, 155180, Note_off_c, 0, 40, 95
2, 155520, Note_off_c, 0, 52, 95
2, 155520, Note_off_c, 0, 47, 95
2, 155520, Note_on_c, 0, 52, 95
2, 155520, Note_on_c, 0, 47, 95
2, 155520, Note_on_c, 0, 40, 95
2, 155660, Note_off_c, 0, 40, 95
2, 156000, Note_off_c, 0, 52, 95
2, 156000, Note_off_c, 0, 47, 95
2, 156000, Note_on_c, 0, 52, 95
2, 156000, Note_on_c, 0, 47, 95
2, 156000, Note_on_c, 0, 40, 95
2, 156140, Note_off_c, 0, 40, 95
2, 156480, Note_off_c, 0, 52, 95
2, 156480, Note_off_c, 0, 47, 95
2, 156480, Note_on_c, 0, 52, 95
2, 156480, Note_on_c, 0, 47, 95
2, 156480, Note_on_c, 0, 40, 95
2, 156620, Note_off_c, 0, 40, 95
2, 156960, Note_off_c, 0, 52, 95
2, 156960, Note_off_c, 0, 47, 95
2, 156960, Note_on_c, 0, 52, 95
2, 156960, Note_on_c, 0, 47, 95
2, 156960, Note_on_c, 0, 40, 95
2, 157100, Note_off_c, 0, 40, 95
2, 157440, Note_off_c, 0, 52, 95
2, 157440, Note_off_c, 0, 47, 95
2, 157440, Note_on_c, 0, 55, 95
2, 157440, Note_on_c, 0, 50, 95
2, 157440, Note_on_c, 0, 43, 95
2, 157580, Note_off_c, 0, 43, 95
2, 157920, Note_off_c, 0, 55, 95
2, 157920, Note_off_c, 0, 50, 95
2, 157920, Note_on_c, 0, 55, 95
2, 157920, Note_on_c, 0, 50, 95
2, 157920, Note_on_c, 0, 43, 95
2, 158060, Note_off_c, 0, 43, 95
2, 158400, Note_off_c, 0, 55, 95
2, 158400, Note_off_c, 0, 50, 95
2, 158400, Note_on_c, 0, 55, 95
2, 158400, Note_on_c, 0, 50, 95
2, 158400, Note_on_c, 0, 43, 95
2, 158540, Note_off_c, 0, 43, 95
2, 158880, Note_off_c, 0, 55, 95
2, 158880, Note_off_c, 0, 50, 95
2, 158880, Note_on_c, 0, 55, 95
2, 158880, Note_on_c, 0, 50, 95
2, 158880, Note_on_c, 0, 43, 95
2, 159020, Note_off_c, 0, 43, 95
2, 159360, Note_off_c, 0, 55, 95
2, 159360, Note_off_c, 0, 50, 95
2, 159360, Note_on_c, 0, 55, 95
2, 159360, Note_on_c, 0, 50, 95
2, 159360, Note_on_c, 0, 43, 95
2, 159500, Note_off_c, 0, 43, 95
2, 159840, Note_off_c, 0, 55, 95
2, 159840, Note_off_c, 0, 50, 95
2, 159840, Note_on_c, 0, 55, 95
2, 159840, Note_on_c, 0, 50, 95
2, 159840, Note_on_c, 0, 43, 95
2, 159980, Note_off_c, 0, 43, 95
2, 160320, Note_off_c, 0, 55, 95
2, 160320, Note_off_c, 0, 50, 95
2, 160320, Note_on_c, 0, 55, 95
2, 160320, Note_on_c, 0, 50, 95
2, 160320, Note_on_c, 0, 43, 95
2, 160460, Note_off_c, 0, 43, 95
2, 160800, Note_off_c, 0, 55, 95
2, 160800, Note_off_c, 0, 50, 95
2, 160800, Note_on_c, 0, 55, 95
2, 160800, Note_on_c, 0, 50, 95
2, 160800, Note_on_c, 0, 43, 95
2, 160940, Note_off_c, 0, 43, 95
2, 161280, Note_off_c, 0, 55, 95
2, 161280, Note_off_c, 0, 50, 95
2, 161760, Note_on_c, 0, 67, 95
2, 161760, Note_on_c, 0, 64, 95
2, 161760, Note_on_c, 0, 60, 95
2, 162240, Note_off_c, 0, 67, 95
2, 162240, Note_off_c, 0, 64, 95
2, 162240, Note_off_c, 0, 60, 95
2, 162240, Note_on_c, 0, 65, 95
2, 162240, Note_on_c, 0, 60, 95
2, 162720, Note_off_c, 0, 65, 95
2, 162720, Note_off_c, 0, 60, 95
2, 162720, Note_on_c, 0, 64, 95
2, 162720, Note_on_c, 0, 60, 95
2, 163200, Note_off_c, 0, 64, 95
2, 163200, Note_off_c, 0, 60, 95
2, 163200, Note_on_c, 0, 67, 95
2, 163200, Note_on_c, 0, 65, 95
2, 163200, Note_on_c, 0, 60, 95
2, 163680, Note_off_c, 0, 67, 95
2, 163680, Note_off_c, 0, 65, 95
2, 163680, Note_off_c, 0, 60, 95
2, 164640, Note_on_c, 0, 67, 95
2, 164640, Note_on_c, 0, 64, 95
2, 164640, Note_on_c, 0, 60, 95
2, 165120, Note_off_c, 0, 67, 95
2, 165120, Note_off_c, 0, 64, 95
2, 165120, Note_off_c, 0, 60, 95
2, 165600, Note_on_c, 0, 67, 95
2, 165600, Note_on_c, 0, 64, 95
2, 165600, Note_on_c, 0, 60, 95
2, 166080, Note_off_c, 0, 67, 95
2, 166080, Note_off_c, 0, 64, 95
2, 166080, Note_off_c, 0, 60, 95
2, 166560, Note_on_c, 0, 67, 95
2, 166560, Note_on_c, 0, 64, 95
2, 166560, Note_on_c, 0, 60, 95
2, 167040, Note_off_c, 0, 67, 95
2, 167040, Note_off_c, 0, 64, 95
2, 167040, Note_off_c, 0, 60, 95
2, 167520, Note_on_c, 1, 67, 95
2, 167520, Note_on_c, 1, 64, 95
2, 167520, Note_on_c, 1, 60, 95
2, 167640, Pitch_bend_c, 1, 8192
2, 167640, Pitch_bend_c, 1, 8192
2, 167760, Pitch_bend_c, 1, 8192
2, 167760, Pitch_bend_c, 1, 8192
2, 167880, Pitch_bend_c, 1, 8192
2, 167880, Pitch_bend_c, 1, 8192
2, 168000, Pitch_bend_c, 1, 8192
2, 168000, Pitch_bend_c, 1, 8192
2, 168120, Pitch_bend_c, 1, 8192
2, 168120, Pitch_bend_c, 1, 8192
2, 168240, Pitch_bend_c, 1, 8192
2, 168240, Pitch_bend_c, 1, 8192
2, 168360, Pitch_bend_c, 1, 8192
2, 168360, Pitch_bend_c, 1, 8192
2, 168480, Note_off_c, 1, 67, 95
2, 168480, Pitch_bend_c, 1, 8192
2, 168480, Pitch_bend_c, 1, 8192
2, 168480, Pitch_bend_c, 1, 8192
2, 168480, Pitch_bend_c, 1, 8192
2, 168960, Note_off_c, 1, 64, 95
2, 168960, Note_off_c, 1, 60, 95
2, 168960, Note_on_c, 0, 55, 95
2, 168960, Note_on_c, 0, 48, 95
2, 170880, Note_off_c, 0, 55, 95
2, 170880, Note_off_c, 0, 48, 95
2, 170880, Note_on_c, 0, 47, 95
2, 170880, Note_on_c, 0, 40, 95
2, 172800, Note_off_c, 0, 47, 95
2, 172800, Note_off_c, 0, 40, 95
2, 172800, Note_on_c, 0, 52, 95
2, 172800, Note_on_c, 0, 45, 95
2, 176640, Note_off_c, 0, 52, 95
2, 176640, Note_off_c, 0, 45, 95
2, 176640, Note_on_c, 0, 48, 95
2, 176640, Note_on_c, 0, 41, 95
2, 179520, Note_off_c, 0, 48, 95
2, 179520, Note_off_c, 0, 41, 95
2, 179520, Note_on_c, 0, 60, 95
2, 179520, Note_on_c, 0, 53, 95
2, 180000, Note_off_c, 0, 60, 95
2, 180000, Note_off_c, 0, 53, 95
2, 180000, Note_on_c, 0, 59, 95
2, 180000, Note_on_c, 0, 52, 95
2, 180480, Note_off_c, 0, 59, 95
2, 180480, Note_off_c, 0, 52, 95
2, 180480, Note_on_c, 0, 57, 95
2, 180480, Note_on_c, 0, 50, 95
2, 181920, Note_off_c, 0, 57, 95
2, 181920, Note_off_c, 0, 50, 95
2, 181920, Note_on_c, 0, 65, 95
2, 182880, Note_off_c, 0, 65, 95
2, 182880, Note_on_c, 0, 64, 95
2, 183000, Note_off_c, 0, 64, 95
2, 183000, Note_on_c, 0, 65, 70
2, 183120, Note_off_c, 0, 65, 70
2, 183120, Note_on_c, 0, 64, 70
2, 183240, Note_off_c, 0, 64, 70
2, 183240, Note_on_c, 0, 62, 95
2, 183360, Note_off_c, 0, 62, 95
2, 183360, Note_on_c, 0, 64, 70
2, 183840, Note_off_c, 0, 64, 70
2, 183840, Note_on_c, 0, 62, 70
2, 184320, Note_off_c, 0, 62, 70
2, 184320, Note_on_c, 0, 50, 95
2, 184320, Note_on_c, 0, 43, 95
2, 184800, Note_off_c, 0, 50, 95
2, 184800, Note_off_c, 0, 43, 95
2, 184800, Note_on_c, 0, 50, 95
2, 184800, Note_on_c, 0, 43, 95
2, 185280, Note_off_c, 0, 50, 95
2, 185280, Note_off_c, 0, 43, 95
2, 185280, Note_on_c, 0, 62, 95
2, 185280, Note_on_c, 0, 55, 95
2, 188160, Note_off_c, 0, 62, 95
2, 188160, Note_off_c, 0, 55, 95
2, 188160, Note_on_c, 0, 48, 95
2, 188160, Note_on_c, 0, 41, 95
2, 188640, Note_off_c, 0, 48, 95
2, 188640, Note_off_c, 0, 41, 95
2, 188640, Note_on_c, 0, 48, 95
2, 188640, Note_on_c, 0, 41, 95
2, 189120, Note_off_c, 0, 48, 95
2, 189120, Note_off_c, 0, 41, 95
2, 189120, Note_on_c, 0, 60, 95
2, 189120, Note_on_c, 0, 53, 95
2, 192000, Note_off_c, 0, 60, 95
2, 192000, Note_off_c, 0, 53, 95
2, 192480, Note_on_c, 0, 64, 70
2, 192480, Note_on_c, 0, 60, 95
2, 192960, Note_off_c, 0, 64, 70
2, 192960, Note_off_c, 0, 60, 95
2, 192960, Note_on_c, 0, 65, 95
2, 192960, Note_on_c, 0, 60, 95
2, 193440, Note_off_c, 0, 65, 95
2, 193440, Note_off_c, 0, 60, 95
2, 193440, Note_on_c, 0, 64, 95
2, 193440, Note_on_c, 0, 60, 95
2, 193920, Note_off_c, 0, 64, 95
2, 193920, Note_off_c, 0, 60, 95
2, 193920, Note_on_c, 0, 65, 95
2, 193920, Note_on_c, 0, 60, 95
2, 194400, Note_off_c, 0, 65, 95
2, 194400, Note_off_c, 0, 60, 95
2, 194400, Note_on_c, 0, 67, 95
2, 194400, Note_on_c, 0, 64, 95
2, 194400, Note_on_c, 0, 60, 95
2, 194880, Note_off_c, 0, 67, 95
2, 194880, Note_off_c, 0, 64, 95
2, 194880, Note_off_c, 0, 60, 95
2, 195360, Note_on_c, 0, 67, 95
2, 195360, Note_on_c, 0, 64, 95
2, 195360, Note_on_c, 0, 60, 95
2, 195840, Note_off_c, 0, 67, 95
2, 195840, Note_off_c, 0, 64, 95
2, 195840, Note_off_c, 0, 60, 95
2, 196320, Note_on_c, 0, 67, 95
2, 196320, Note_on_c, 0, 64, 95
2, 196320, Note_on_c, 0, 60, 95
2, 196800, Note_off_c, 0, 67, 95
2, 196800, Note_off_c, 0, 64, 95
2, 196800, Note_off_c, 0, 60, 95
2, 197280, Note_on_c, 0, 67, 95
2, 197280, Note_on_c, 0, 64, 95
2, 197280, Note_on_c, 0, 60, 95
2, 197760, Note_off_c, 0, 67, 95
2, 197760, Note_off_c, 0, 64, 95
2, 197760, Note_off_c, 0, 60, 95
2, 198240, Note_on_c, 0, 67, 95
2, 198240, Note_on_c, 0, 64, 95
2, 198240, Note_on_c, 0, 60, 95
2, 198720, Note_off_c, 0, 67, 95
2, 198720, Note_off_c, 0, 64, 95
2, 198720, Note_off_c, 0, 60, 95
2, 199200, Note_on_c, 0, 62, 95
2, 199440, Note_off_c, 0, 62, 95
2, 199440, Note_on_c, 0, 64, 95
2, 199680, Note_off_c, 0, 64, 95
2, 199680, Note_on_c, 0, 72, 95
2, 200160, Note_off_c, 0, 72, 95
2, 200160, Note_on_c, 0, 64, 95
2, 200640, Note_off_c, 0, 64, 95
2, 200640, Note_on_c, 0, 72, 95
2, 201120, Note_off_c, 0, 72, 95
2, 201120, Note_on_c, 0, 71, 95
2, 201120, Note_on_c, 0, 62, 95
2, 201600, Note_off_c, 0, 71, 95
2, 201600, Note_off_c, 0, 62, 95
2, 202080, Note_on_c, 0, 69, 95
2, 202080, Note_on_c, 0, 60, 95
2, 202560, Note_off_c, 0, 69, 95
2, 202560, Note_off_c, 0, 60, 95
2, 203040, Note_on_c, 0, 67, 95
2, 203040, Note_on_c, 0, 59, 95
2, 203520, Note_off_c, 0, 67, 95
2, 203520, Note_off_c, 0, 59, 95
2, 203520, Note_on_c, 0, 69, 95
2, 203520, Note_on_c, 0, 60, 95
2, 205440, Note_off_c, 0, 69, 95
2, 205440, Note_off_c, 0, 60, 95
2, 205440, Note_on_c, 0, 69, 95
2, 205440, Note_on_c, 0, 60, 95
2, 206080, Note_off_c, 0, 69, 95
2, 206080, Note_off_c, 0, 60, 95
2, 206080, Note_on_c, 0, 71, 95
2, 206080, Note_on_c, 0, 62, 95
2, 206720, Note_off_c, 0, 71, 95
2, 206720, Note_off_c, 0, 62, 95
2, 206720, Note_on_c, 0, 72, 95
2, 206720, Note_on_c, 0, 64, 95
2, 207360, Note_off_c, 0, 72, 95
2, 207360, Note_off_c, 0, 64, 95
2, 207360, Note_on_c, 0, 72, 95
2, 207840, Note_off_c, 0, 72, 95
2, 207840, Note_on_c, 0, 74, 95
2, 208080, Note_off_c, 0, 74, 95
2, 208080, Note_on_c, 0, 72, 70
2, 208320, Note_off_c, 0, 72, 70
2, 208320, Note_on_c, 0, 69, 95
2, 208800, Note_off_c, 0, 69, 95
2, 208800, Note_on_c, 0, 65, 95
2, 211200, Note_off_c, 0, 65, 95
2, 211200, Note_on_c, 0, 64, 95
2, 211440, Note_off_c, 0, 64, 95
2, 211440, Note_on_c, 0, 65, 70
2, 211680, Note_off_c, 0, 65, 70
2, 211680, Note_on_c, 0, 67, 95
2, 211920, Note_off_c, 0, 67, 95
2, 211920, Note_on_c, 0, 69, 95
2, 212160, Note_off_c, 0, 69, 95
2, 212160, Note_on_c, 0, 71, 95
2, 212400, Note_off_c, 0, 71, 95
2, 212400, Note_on_c, 0, 72, 70
2, 212640, Note_off_c, 0, 72, 70
2, 212640, Note_on_c, 0, 74, 95
2, 212880, Note_off_c, 0, 74, 95
2, 212880, Note_on_c, 0, 76, 70
2, 213120, Note_off_c, 0, 76, 70
2, 213120, Note_on_c, 0, 77, 70
2, 215040, Note_off_c, 0, 77, 70
2, 215040, Note_on_c, 0, 69, 70
2, 215520, Note_off_c, 0, 69, 70
2, 215520, Note_on_c, 0, 71, 70
2, 216000, Note_off_c, 0, 71, 70
2, 216000, Note_on_c, 0, 74, 95
2, 216480, Note_off_c, 0, 74, 95
2, 216480, Note_on_c, 0, 69, 95
2, 217440, Note_off_c, 0, 69, 95
2, 217440, Note_on_c, 0, 67, 70
2, 217920, Note_off_c, 0, 67, 70
2, 217920, Note_on_c, 0, 65, 70
2, 218880, Note_off_c, 0, 65, 70
2, 218880, Note_on_c, 0, 67, 95
2, 219360, Note_off_c, 0, 67, 95
2, 219360, Note_on_c, 0, 69, 70
2, 219840, Note_off_c, 0, 69, 70
2, 219840, Note_on_c, 0, 72, 95
2, 220320, Note_off_c, 0, 72, 95
2, 220320, Note_on_c, 0, 69, 95
2, 221280, Note_off_c, 0, 69, 95
2, 221280, Note_on_c, 0, 67, 70
2, 221760, Note_off_c, 0, 67, 70
2, 221760, Note_on_c, 0, 65, 95
2, 222720, Note_off_c, 0, 65, 95
2, 222720, Note_on_c, 0, 72, 95
2, 223200, Note_off_c, 0, 72, 95
2, 223200, Note_on_c, 0, 74, 70
2, 223680, Note_off_c, 0, 74, 70
2, 223680, Note_on_c, 0, 76, 95
2, 224160, Note_off_c, 0, 76, 95
2, 224160, Note_on_c, 0, 67, 95
2, 225120, Note_off_c, 0, 67, 95
2, 225120, Note_on_c, 0, 64, 95
2, 225600, Note_off_c, 0, 64, 95
2, 225600, Note_on_c, 0, 65, 95
2, 226080, Note_off_c, 0, 65, 95
2, 226080, Note_on_c, 0, 67, 95
2, 226560, Note_off_c, 0, 67, 95
2, 226560, Note_on_c, 0, 60, 95
2, 229440, Note_off_c, 0, 60, 95
2, 229920, Note_on_c, 0, 62, 95
2, 230160, Note_off_c, 0, 62, 95
2, 230160, Note_on_c, 0, 64, 70
2, 230400, Note_off_c, 0, 64, 70
2, 230400, Note_on_c, 0, 72, 95
2, 230880, Note_off_c, 0, 72, 95
2, 230880, Note_on_c, 0, 64, 95
2, 231360, Note_off_c, 0, 64, 95
2, 231360, Note_on_c, 0, 72, 95
2, 231840, Note_off_c, 0, 72, 95
2, 231840, Note_on_c, 0, 71, 95
2, 231840, Note_on_c, 0, 62, 95
2, 232320, Note_off_c, 0, 71, 95
2, 232320, Note_off_c, 0, 62, 95
2, 232800, Note_on_c, 0, 69, 95
2, 232800, Note_on_c, 0, 60, 95
2, 233280, Note_off_c, 0, 69, 95
2, 233280, Note_off_c, 0, 60, 95
2, 233760, Note_on_c, 0, 67, 95
2, 233760, Note_on_c, 0, 59, 95
2, 234240, Note_off_c, 0, 67, 95
2, 234240, Note_off_c, 0, 59, 95
2, 234240, Note_on_c, 0, 69, 95
2, 234240, Note_on_c, 0, 60, 95
2, 236160, Note_off_c, 0, 69, 95
2, 236160, Note_off_c, 0, 60, 95
2, 236160, Note_on_c, 0, 69, 95
2, 236160, Note_on_c, 0, 60, 95
2, 236800, Note_off_c, 0, 69, 95
2, 236800, Note_off_c, 0, 60, 95
2, 236800, Note_on_c, 0, 71, 95
2, 236800, Note_on_c, 0, 62, 95
2, 237440, Note_off_c, 0, 71, 95
2, 237440, Note_off_c, 0, 62, 95
2, 237440, Note_on_c, 0, 72, 95
2, 237440, Note_on_c, 0, 64, 95
2, 238080, Note_off_c, 0, 72, 95
2, 238080, Note_off_c, 0, 64, 95
2, 238080, Note_on_c, 0, 72, 95
2, 238560, Note_off_c, 0, 72, 95
2, 238560, Note_on_c, 0, 74, 95
2, 238800, Note_off_c, 0, 74, 95
2, 238800, Note_on_c, 0, 72, 70
2, 239040, Note_off_c, 0, 72, 70
2, 239040, Note_on_c, 0, 69, 95
2, 239520, Note_off_c, 0, 69, 95
2, 239520, Note_on_c, 0, 65, 95
2, 241920, Note_off_c, 0, 65, 95
2, 241920, Note_on_c, 0, 64, 95
2, 242160, Note_off_c, 0, 64, 95
2, 242160, Note_on_c, 0, 65, 70
2, 242400, Note_off_c, 0, 65, 70
2, 242400, Note_on_c, 0, 67, 95
2, 242640, Note_off_c, 0, 67, 95
2, 242640, Note_on_c, 0, 69, 95
2, 242880, Note_off_c, 0, 69, 95
2, 242880, Note_on_c, 0, 71, 95
2, 243120, Note_off_c, 0, 71, 95
2, 243120, Note_on_c, 0, 72, 70
2, 243360, Note_off_c, 0, 72, 70
2, 243360, Note_on_c, 0, 74, 95
2, 243600, Note_off_c, 0, 74, 95
2, 243600, Note_on_c, 0, 76, 70
2, 243840, Note_off_c, 0, 76, 70
2, 243840, Note_on_c, 0, 77, 70
2, 245760, Note_off_c, 0, 77, 70
2, 245760, Note_on_c, 0, 69, 70
2, 246240, Note_off_c, 0, 69, 70
2, 246240, Note_on_c, 0, 71, 70
2, 246720, Note_off_c, 0, 71, 70
2, 246720, Note_on_c, 0, 74, 95
2, 247200, Note_off_c, 0, 74, 95
2, 247200, Note_on_c, 0, 69, 95
2, 248160, Note_off_c, 0, 69, 95
2, 248160, Note_on_c, 0, 67, 70
2, 248640, Note_off_c, 0, 67, 70
2, 248640, Note_on_c, 0, 65, 70
2, 249600, Note_off_c, 0, 65, 70
2, 249600, Note_on_c, 0, 67, 95
2, 250080, Note_off_c, 0, 67, 95
2, 250080, Note_on_c, 0, 69, 70
2, 250560, Note_off_c, 0, 69, 70
2, 250560, Note_on_c, 0, 72, 95
2, 251040, Note_off_c, 0, 72, 95
2, 251040, Note_on_c, 0, 69, 95
2, 252000, Note_off_c, 0, 69, 95
2, 252000, Note_on_c, 0, 67, 70
2, 252480, Note_off_c, 0, 67, 70
2, 252480, Note_on_c, 0, 65, 95
2, 253440, Note_off_c, 0, 65, 95
2, 253440, Note_on_c, 0, 72, 95
2, 253920, Note_off_c, 0, 72, 95
2, 253920, Note_on_c, 0, 74, 70
2, 254400, Note_off_c, 0, 74, 70
2, 254400, Note_on_c, 0, 76, 95
2, 254880, Note_off_c, 0, 76, 95
2, 254880, Note_on_c, 0, 67, 95
2, 255840, Note_off_c, 0, 67, 95
2, 255840, Note_on_c, 0, 64, 95
2, 256320, Note_off_c, 0, 64, 95
2, 256320, Note_on_c, 0, 65, 95
2, 256800, Note_off_c, 0, 65, 95
2, 256800, Note_on_c, 0, 67, 95
2, 257280, Note_off_c, 0, 67, 95
2, 257280, Note_on_c, 1, 60, 95
2, 257440, Pitch_bend_c, 1, 8192
2, 257600, Pitch_bend_c, 1, 8320
2, 257760, Pitch_bend_c, 1, 8192
2, 257920, Pitch_bend_c, 1, 8320
2, 258080, Pitch_bend_c, 1, 8192
2, 258240, Pitch_bend_c, 1, 8320
2, 258400, Pitch_bend_c, 1, 8192
2, 258560, Pitch_bend_c, 1, 8320
2, 258720, Pitch_bend_c, 1, 8192
2, 258880, Pitch_bend_c, 1, 8320
2, 259040, Pitch_bend_c, 1, 8192
2, 259200, Pitch_bend_c, 1, 8320
2, 259360, Pitch_bend_c, 1, 8192
2, 259520, Pitch_bend_c, 1, 8320
2, 259680, Pitch_bend_c, 1, 8192
2, 259840, Pitch_bend_c, 1, 8320
2, 260000, Pitch_bend_c, 1, 8192
2, 260160, Pitch_bend_c, 1, 8320
2, 260320, Pitch_bend_c, 1, 8192
2, 260480, Pitch_bend_c, 1, 8320
2, 260640, Pitch_bend_c, 1, 8192
2, 260800, Pitch_bend_c, 1, 8320
2, 260960, Pitch_bend_c, 1, 8192
2, 261120, Pitch_bend_c, 1, 8320
2, 261120, Pitch_bend_c, 1, 8192
2, 261120, Note_off_c, 1, 60, 95
2, 261120, Note_on_c, 0, 72, 70
2, 261600, Note_off_c, 0, 72, 70
2, 261600, Note_on_c, 0, 67, 95
2, 262560, Note_off_c, 0, 67, 95
2, 262560, Note_on_c, 0, 72, 95
2, 265440, Note_off_c, 0, 72, 95
2, 265440, Note_on_c, 0, 67, 95
2, 266400, Note_off_c, 0, 67, 95
2, 266400, Note_on_c, 0, 72, 95
2, 269280, Note_off_c, 0, 72, 95
2, 269280, Note_on_c, 0, 67, 95
2, 270240, Note_off_c, 0, 67, 95
2, 270240, Note_on_c, 0, 72, 95
2, 273120, Note_off_c, 0, 72, 95
2, 273120, Note_on_c, 0, 67, 95
2, 274080, Note_off_c, 0, 67, 95
2, 274080, Note_on_c, 0, 72, 95
2, 276480, Note_off_c, 0, 72, 95
2, 276480, Note_on_c, 0, 62, 95
2, 276960, Note_off_c, 0, 62, 95
2, 276960, Note_on_c, 0, 67, 95
2, 277440, Note_off_c, 0, 67, 95
2, 277440, Note_on_c, 0, 62, 95
2, 277920, Note_off_c, 0, 62, 95
2, 277920, Note_on_c, 0, 71, 95
2, 281760, Note_off_c, 0, 71, 95
2, 281760, Note_on_c, 0, 72, 95
2, 282720, Note_off_c, 0, 72, 95
2, 282720, Note_on_c, 0, 71, 95
2, 283200, Note_off_c, 0, 71, 95
2, 283200, Note_on_c, 0, 67, 95
2, 283680, Note_off_c, 0, 67, 95
2, 283680, Note_on_c, 0, 62, 95
2, 284160, Note_off_c, 0, 62, 95
2, 284160, Note_on_c, 0, 60, 95
2, 284640, Note_off_c, 0, 60, 95
2, 284640, Note_on_c, 0, 64, 95
2, 285120, Note_off_c, 0, 64, 95
2, 285120, Note_on_c, 0, 60, 95
2, 285600, Note_off_c, 0, 60, 95
2, 285600, Note_on_c, 0, 72, 95
2, 291840, Note_off_c, 0, 72, 95
2, 291840, Note_on_c, 0, 72, 95
2, 292320, Note_off_c, 0, 72, 95
2, 292320, Note_on_c, 0, 67, 95
2, 293280, Note_off_c, 0, 67, 95
2, 293280, Note_on_c, 0, 72, 95
2, 296160, Note_off_c, 0, 72, 95
2, 296160, Note_on_c, 0, 67, 95
2, 297120, Note_off_c, 0, 67, 95
2, 297120, Note_on_c, 0, 72, 95
2, 300000, Note_off_c, 0, 72, 95
2, 300000, Note_on_c, 0, 67, 95
2, 300960, Note_off_c, 0, 67, 95
2, 300960, Note_on_c, 0, 72, 95
2, 303840, Note_off_c, 0, 72, 95
2, 303840, Note_on_c, 0, 67, 95
2, 304800, Note_off_c, 0, 67, 95
2, 304800, Note_on_c, 0, 72, 95
2, 307200, Note_off_c, 0, 72, 95
2, 307200, Note_on_c, 0, 62, 95
2, 307680, Note_off_c, 0, 62, 95
2, 307680, Note_on_c, 0, 67, 95
2, 308160, Note_off_c, 0, 67, 95
2, 308160, Note_on_c, 0, 62, 95
2, 308640, Note_off_c, 0, 62, 95
2, 308640, Note_on_c, 0, 71, 95
2, 312480, Note_off_c, 0, 71, 95
2, 312480, Note_on_c, 0, 72, 95
2, 313440, Note_off_c, 0, 72, 95
2, 313440, Note_on_c, 0, 71, 95
2, 313920, Note_off_c, 0, 71, 95
2, 313920, Note_on_c, 0, 67, 95
2, 314400, Note_off_c, 0, 67, 95
2, 314400, Note_on_c, 0, 62, 95
2, 314880, Note_off_c, 0, 62, 95
2, 314880, Note_on_c, 0, 60, 95
2, 315360, Note_off_c, 0, 60, 95
2, 315360, Note_on_c, 0, 64, 95
2, 315840, Note_off_c, 0, 64, 95
2, 315840, Note_on_c, 0, 60, 95
2, 316320, Note_off_c, 0, 60, 95
2, 316320, Note_on_c, 0, 72, 95
2, 318720, Note_off_c, 0, 72, 95
2, 318720, Note_on_c, 0, 55, 15
2, 318720, Note_on_c, 0, 48, 15
2, 319200, Note_off_c, 0, 55, 15
2, 319200, Note_off_c, 0, 48, 15
2, 319200, Note_on_c, 0, 55, 95
2, 319200, Note_on_c, 0, 48, 15
2, 319680, Note_off_c, 0, 55, 95
2, 319680, Note_off_c, 0, 48, 15
2, 319680, Note_on_c, 0, 55, 95
2, 319680, Note_on_c, 0, 48, 95
2, 320160, Note_off_c, 0, 55, 95
2, 320160, Note_off_c, 0, 48, 95
2, 320160, Note_on_c, 0, 55, 95
2, 320160, Note_on_c, 0, 48, 95
2, 320640, Note_off_c, 0, 55, 95
2, 320640, Note_off_c, 0, 48, 95
2, 320640, Note_on_c, 0, 55, 95
2, 320640, Note_on_c, 0, 48, 95
2, 321120, Note_off_c, 0, 55, 95
2, 321120, Note_off_c, 0, 48, 95
2, 321120, Note_on_c, 0, 55, 95
2, 321120, Note_on_c, 0, 48, 95
2, 321600, Note_off_c, 0, 55, 95
2, 321600, Note_off_c, 0, 48, 95
2, 321600, Note_on_c, 0, 55, 95
2, 321600, Note_on_c, 0, 48, 95
2, 322080, Note_off_c, 0, 55, 95
2, 322080, Note_off_c, 0, 48, 95
2, 322080, Note_on_c, 0, 55, 95
2, 322080, Note_on_c, 0, 48, 95
2, 322560, Note_off_c, 0, 55, 95
2, 322560, Note_off_c, 0, 48, 95
2, 322560, Note_on_c, 0, 52, 95
2, 322560, Note_on_c, 0, 47, 95
2, 322560, Note_on_c, 0, 40, 95
2, 322700, Note_off_c, 0, 40, 95
2, 323040, Note_off_c, 0, 52, 95
2, 323040, Note_off_c, 0, 47, 95
2, 323040, Note_on_c, 0, 52, 95
2, 323040, Note_on_c, 0, 47, 95
2, 323040, Note_on_c, 0, 40, 95
2, 323180, Note_off_c, 0, 40, 95
2, 323520, Note_off_c, 0, 52, 95
2, 323520, Note_off_c, 0, 47, 95
2, 323520, Note_on_c, 0, 52, 95
2, 323520, Note_on_c, 0, 47, 95
2, 323520, Note_on_c, 0, 40, 95
2, 323660, Note_off_c, 0, 40, 95
2, 324000, Note_off_c, 0, 52, 95
2, 324000, Note_off_c, 0, 47, 95
2, 324000, Note_on_c, 0, 52, 95
2, 324000, Note_on_c, 0, 47, 95
2, 324000, Note_on_c, 0, 40, 95
2, 324140, Note_off_c, 0, 40, 95
2, 324480, Note_off_c, 0, 52, 95
2, 324480, Note_off_c, 0, 47, 95
2, 324480, Note_on_c, 0, 52, 95
2, 324480, Note_on_c, 0, 47, 95
2, 324480, Note_on_c, 0, 40, 95
2, 324620, Note_off_c, 0, 40, 95
2, 324960, Note_off_c, 0, 52, 95
2, 324960, Note_off_c, 0, 47, 95
2, 324960, Note_on_c, 0, 52, 95
2, 324960, Note_on_c, 0, 47, 95
2, 324960, Note_on_c, 0, 40, 95
2, 325100, Note_off_c, 0, 40, 95
2, 325440, Note_off_c, 0, 52, 95
2, 325440, Note_off_c, 0, 47, 95
2, 325440, Note_on_c, 0, 52, 95
2, 325440, Note_on_c, 0, 47, 95
2, 325440, Note_on_c, 0, 40, 95
2, 325580, Note_off_c, 0, 40, 95
2, 325920, Note_off_c, 0, 52, 95
2, 325920, Note_off_c, 0, 47, 95
2, 325920, Note_on_c, 0, 52, 95
2, 325920, Note_on_c, 0, 47, 95
2, 325920, Note_on_c, 0, 40, 95
2, 326060, Note_off_c, 0, 40, 95
2, 326400, Note_off_c, 0, 52, 95
2, 326400, Note_off_c, 0, 47, 95
2, 326400, Note_on_c, 0, 52, 95
2, 326400, Note_on_c, 0, 47, 95
2, 326400, Note_on_c, 0, 40, 95
2, 326540, Note_off_c, 0, 40, 95
2, 326880, Note_off_c, 0, 52, 95
2, 326880, Note_off_c, 0, 47, 95
2, 326880, Note_on_c, 0, 52, 95
2, 326880, Note_on_c, 0, 47, 95
2, 326880, Note_on_c, 0, 40, 95
2, 327020, Note_off_c, 0, 40, 95
2, 327360, Note_off_c, 0, 52, 95
2, 327360, Note_off_c, 0, 47, 95
2, 327360, Note_on_c, 0, 52, 95
2, 327360, Note_on_c, 0, 47, 95
2, 327360, Note_on_c, 0, 40, 95
2, 330240, Note_off_c, 0, 52, 95
2, 330240, Note_off_c, 0, 47, 95
2, 330240, Note_off_c, 0, 40, 95
2, 330240, Note_on_c, 0, 57, 95
2, 330240, Note_on_c, 0, 52, 95
2, 330240, Note_on_c, 0, 45, 95
2, 330380, Note_off_c, 0, 45, 95
2, 330720, Note_off_c, 0, 57, 95
2, 330720, Note_off_c, 0, 52, 95
2, 330720, Note_on_c, 0, 57, 95
2, 330720, Note_on_c, 0, 52, 95
2, 330720, Note_on_c, 0, 45, 95
2, 330860, Note_off_c, 0, 45, 95
2, 331200, Note_off_c, 0, 57, 95
2, 331200, Note_off_c, 0, 52, 95
2, 331200, Note_on_c, 0, 57, 95
2, 331200, Note_on_c, 0, 52, 95
2, 331200, Note_on_c, 0, 45, 95
2, 331340, Note_off_c, 0, 45, 95
2, 331680, Note_off_c, 0, 57, 95
2, 331680, Note_off_c, 0, 52, 95
2, 331680, Note_on_c, 0, 57, 95
2, 331680, Note_on_c, 0, 52, 95
2, 331680, Note_on_c, 0, 45, 95
2, 331820, Note_off_c, 0, 45, 95
2, 332160, Note_off_c, 0, 57, 95
2, 332160, Note_off_c, 0, 52, 95
2, 332160, Note_on_c, 0, 57, 95
2, 332160, Note_on_c, 0, 52, 95
2, 332160, Note_on_c, 0, 45, 95
2, 332300, Note_off_c, 0, 45, 95
2, 332640, Note_off_c, 0, 57, 95
2, 332640, Note_off_c, 0, 52, 95
2, 332640, Note_on_c, 0, 57, 95
2, 332640, Note_on_c, 0, 52, 95
2, 332640, Note_on_c, 0, 45, 95
2, 332780, Note_off_c, 0, 45, 95
2, 333120, Note_off_c, 0, 57, 95
2, 333120, Note_off_c, 0, 52, 95
2, 333120, Note_on_c, 0, 57, 95
2, 333120, Note_on_c, 0, 52, 95
2, 333120, Note_on_c, 0, 45, 95
2, 337920, Note_off_c, 0, 57, 95
2, 337920, Note_off_c, 0, 52, 95
2, 337920, Note_off_c, 0, 45, 95
2, 337920, Note_on_c, 0, 50, 95
2, 337920, Note_on_c, 0, 43, 95
2, 338060, Note_off_c, 0, 43, 95
2, 338400, Note_off_c, 0, 50, 95
2, 338400, Note_on_c, 0, 50, 95
2, 338400, Note_on_c, 0, 43, 95
2, 338540, Note_off_c, 0, 43, 95
2, 338880, Note_off_c, 0, 50, 95
2, 338880, Note_on_c, 0, 50, 95
2, 338880, Note_on_c, 0, 43, 95
2, 339020, Note_off_c, 0, 43, 95
2, 339360, Note_off_c, 0, 50, 95
2, 339360, Note_on_c, 0, 50, 95
2, 339360, Note_on_c, 0, 43, 95
2, 339500, Note_off_c, 0, 43, 95
2, 339840, Note_off_c, 0, 50, 95
2, 339840, Note_on_c, 0, 50, 95
2, 339840, Note_on_c, 0, 43, 95
2, 341760, Note_off_c, 0, 50, 95
2, 341760, Note_off_c, 0, 43, 95
2, 341760, Note_on_c, 0, 50, 95
2, 341760, Note_on_c, 0, 43, 95
2, 342240, Note_off_c, 0, 50, 95
2, 342240, Note_off_c, 0, 43, 95
2, 350880, Note_on_c, 0, 55, 95
2, 350880, Note_on_c, 0, 48, 95
2, 351360, Note_off_c, 0, 55, 95
2, 351360, Note_off_c, 0, 48, 95
2, 351840, Note_on_c, 0, 54, 95
2, 351840, Note_on_c, 0, 47, 95
2, 352320, Note_off_c, 0, 54, 95
2, 352320, Note_off_c, 0, 47, 95
2, 352800, Note_on_c, 0, 52, 95
2, 352800, Note_on_c, 0, 45, 95
2, 354240, Note_off_c, 0, 52, 95
2, 354240, Note_off_c, 0, 45, 95
2, 354240, Note_on_c, 0, 48, 95
2, 354380, Note_off_c, 0, 48, 95
2, 354720, Note_on_c, 0, 50, 95
2, 354860, Note_off_c, 0, 50, 95
2, 355200, Note_on_c, 0, 52, 95
2, 355340, Note_off_c, 0, 52, 95
2, 355680, Note_on_c, 0, 53, 95
2, 355820, Note_off_c, 0, 53, 95
2, 356160, Note_on_c, 0, 55, 95
2, 356300, Note_off_c, 0, 55, 95
2, 356640, Note_on_c, 0, 57, 95
2, 356780, Note_off_c, 0, 57, 95
2, 357120, Note_on_c, 0, 59, 95
2, 357260, Note_off_c, 0, 59, 95
2, 357600, Note_on_c, 0, 60, 95
2, 357740, Note_off_c, 0, 60, 95
2, 358560, Note_on_c, 0, 50, 95
2, 358560, Note_on_c, 0, 45, 95
2, 358560, Note_on_c, 0, 43, 95
2, 358630, Note_off_c, 0, 45, 95
2, 359040, Note_off_c, 0, 50, 95
2, 359040, Note_off_c, 0, 43, 95
2, 359520, Note_on_c, 0, 50, 95
2, 359520, Note_on_c, 0, 45, 95
2, 359520, Note_on_c, 0, 43, 95
2, 359590, Note_off_c, 0, 45, 95
2, 360000, Note_off_c, 0, 50, 95
2, 360000, Note_off_c, 0, 43, 95
2, 360480, Note_on_c, 0, 55, 95
2, 360480, Note_on_c, 0, 48, 95
2, 364800, Note_off_c, 0, 55, 95
2, 364800, Note_off_c, 0, 48, 95
2, 366240, Note_on_c, 0, 55, 95
2, 366240, Note_on_c, 0, 48, 95
2, 366720, Note_off_c, 0, 55, 95
2, 366720, Note_off_c, 0, 48, 95
2, 367200, Note_on_c, 0, 54, 95
2, 367200, Note_on_c, 0, 47, 95
2, 367680, Note_off_c, 0, 54, 95
2, 367680, Note_off_c, 0, 47, 95
2, 368160, Note_on_c, 0, 52, 95
2, 368160, Note_on_c, 0, 45, 95
2, 369600, Note_off_c, 0, 52, 95
2, 369600, Note_off_c, 0, 45, 95
2, 369600, Note_on_c, 0, 48, 95
2, 369740, Note_off_c, 0, 48, 95
2, 370080, Note_on_c, 0, 50, 95
2, 370220, Note_off_c, 0, 50, 95
2, 370560, Note_on_c, 0, 52, 95
2, 370700, Note_off_c, 0, 52, 95
2, 371040, Note_on_c, 0, 53, 95
2, 371180, Note_off_c, 0, 53, 95
2, 371520, Note_on_c, 0, 55, 95
2, 371660, Note_off_c, 0, 55, 95
2, 372000, Note_on_c, 0, 57, 95
2, 372140, Note_off_c, 0, 57, 95
2, 372480, Note_on_c, 0, 59, 95
2, 372620, Note_off_c, 0, 59, 95
2, 372960, Note_on_c, 0, 60, 95
2, 373100, Note_off_c, 0, 60, 95
2, 373920, Note_on_c, 0, 50, 95
2, 373920, Note_on_c, 0, 45, 95
2, 373920, Note_on_c, 0, 43, 95
2, 373990, Note_off_c, 0, 45, 95
2, 374400, Note_off_c, 0, 50, 95
2, 374400, Note_off_c, 0, 43, 95
2, 374880, Note_on_c, 0, 50, 95
2, 374880, Note_on_c, 0, 45, 95
2, 374880, Note_on_c, 0, 43, 95
2, 374950, Note_off_c, 0, 45, 95
2, 375360, Note_off_c, 0, 50, 95
2, 375360, Note_off_c, 0, 43, 95
2, 375840, Note_on_c, 0, 50, 95
2, 375840, Note_on_c, 0, 48, 95
2, 375840, Note_on_c, 0, 43, 95
2, 375910, Note_off_c, 0, 48, 95
2, 376320, Note_off_c, 0, 50, 95
2, 376320, Note_off_c, 0, 43, 95
2, 376320, Note_on_c, 0, 48, 95
2, 376320, Note_on_c, 0, 41, 95
2, 376460, Note_off_c, 0, 48, 95
2, 376460, Note_off_c, 0, 41, 95
2, 376800, Note_on_c, 0, 48, 95
2, 376800, Note_on_c, 0, 41, 95
2, 376940, Note_off_c, 0, 48, 95
2, 376940, Note_off_c, 0, 41, 95
2, 377280, Note_on_c, 0, 48, 95
2, 377280, Note_on_c, 0, 41, 95
2, 377420, Note_off_c, 0, 48, 95
2, 377420, Note_off_c, 0, 41, 95
2, 377760, Note_on_c, 0, 48, 95
2, 377760, Note_on_c, 0, 41, 95
2, 377900, Note_off_c, 0, 48, 95
2, 377900, Note_off_c, 0, 41, 95
2, 378240, Note_on_c, 0, 48, 95
2, 378240, Note_on_c, 0, 41, 95
2, 378380, Note_off_c, 0, 48, 95
2, 378380, Note_off_c, 0, 41, 95
2, 378720, Note_on_c, 0, 48, 95
2, 378720, Note_on_c, 0, 41, 95
2, 378860, Note_off_c, 0, 48, 95
2, 378860, Note_off_c, 0, 41, 95
2, 379200, Note_on_c, 0, 48, 95
2, 379200, Note_on_c, 0, 41, 95
2, 379340, Note_off_c, 0, 48, 95
2, 379340, Note_off_c, 0, 41, 95
2, 379680, Note_on_c, 0, 48, 95
2, 379680, Note_on_c, 0, 41, 95
2, 379820, Note_off_c, 0, 48, 95
2, 379820, Note_off_c, 0, 41, 95
2, 380160, Note_on_c, 0, 50, 95
2, 380160, Note_on_c, 0, 43, 95
2, 380300, Note_off_c, 0, 50, 95
2, 380300, Note_off_c, 0, 43, 95
2, 380640, Note_on_c, 0, 50, 95
2, 380640, Note_on_c, 0, 43, 95
2, 380780, Note_off_c, 0, 50, 95
2, 380780, Note_off_c, 0, 43, 95
2, 381120, Note_on_c, 0, 50, 95
2, 381120, Note_on_c, 0, 43, 95
2, 381260, Note_off_c, 0, 50, 95
2, 381260, Note_off_c, 0, 43, 95
2, 381600, Note_on_c, 0, 50, 95
2, 381600, Note_on_c, 0, 43, 95
2, 381740, Note_off_c, 0, 50, 95
2, 381740, Note_off_c, 0, 43, 95
2, 382080, Note_on_c, 0, 50, 95
2, 382080, Note_on_c, 0, 43, 95
2, 382220, Note_off_c, 0, 50, 95
2, 382220, Note_off_c, 0, 43, 95
2, 382560, Note_on_c, 0, 50, 95
2, 382560, Note_on_c, 0, 43, 95
2, 382700, Note_off_c, 0, 50, 95
2, 382700, Note_off_c, 0, 43, 95
2, 383040, Note_on_c, 0, 50, 95
2, 383040, Note_on_c, 0, 43, 95
2, 383180, Note_off_c, 0, 50, 95
2, 383180, Note_off_c, 0, 43, 95
2, 383520, Note_on_c, 0, 50, 95
2, 383520, Note_on_c, 0, 43, 95
2, 383660, Note_off_c, 0, 50, 95
2, 383660, Note_off_c, 0, 43, 95
2, 384000, Note_on_c, 0, 64, 95
2, 384000, Note_on_c, 0, 76, 95
2, 384480, Note_off_c, 0, 64, 95
2, 384480, Note_off_c, 0, 76, 95
2, 384480, Note_on_c, 0, 64, 95
2, 384480, Note_on_c, 0, 76, 95
2, 384960, Note_off_c, 0, 64, 95
2, 384960, Note_off_c, 0, 76, 95
2, 384960, Note_on_c, 0, 64, 95
2, 384960, Note_on_c, 0, 76, 95
2, 385440, Note_off_c, 0, 64, 95
2, 385440, Note_off_c, 0, 76, 95
2, 385440, Note_on_c, 0, 77, 95
2, 385440, Note_on_c, 0, 65, 95
2, 385920, Note_off_c, 0, 77, 95
2, 385920, Note_off_c, 0, 65, 95
2, 386400, Note_on_c, 1, 79, 95
2, 386400, Note_on_c, 1, 67, 95
2, 386560, Pitch_bend_c, 1, 8192
2, 386560, Pitch_bend_c, 1, 8192
2, 386720, Pitch_bend_c, 1, 8320
2, 386720, Pitch_bend_c, 1, 8320
2, 386880, Pitch_bend_c, 1, 8192
2, 386880, Pitch_bend_c, 1, 8320
2, 386880, Pitch_bend_c, 1, 8192
2, 386880, Note_off_c, 1, 79, 95
2, 386880, Pitch_bend_c, 1, 8192
2, 386880, Pitch_bend_c, 1, 8320
2, 386880, Pitch_bend_c, 1, 8192
2, 386880, Note_off_c, 1, 67, 95
2, 386880, Note_on_c, 1, 79, 47
2, 386880, Note_on_c, 1, 67, 47
2, 387000, Pitch_bend_c, 1, 6912
2, 387120, Pitch_bend_c, 1, 5632
2, 387240, Pitch_bend_c, 1, 4352
2, 387360, Pitch_bend_c, 1, 2944
2, 387480, Pitch_bend_c, 1, 1664
2, 387600, Pitch_bend_c, 1, 384
2, 387720, Pitch_bend_c, 1, 0
2, 387840, Pitch_bend_c, 1, 0
2, 387840, Pitch_bend_c, 1, 8192
2, 387840, Note_off_c, 1, 79, 47
2, 387840, Note_off_c, 1, 67, 47
2, 387840, Note_on_c, 0, 64, 95
2, 387840, Note_on_c, 0, 76, 95
2, 388320, Note_off_c, 0, 64, 95
2, 388320, Note_off_c, 0, 76, 95
2, 388320, Note_on_c, 0, 64, 95
2, 388320, Note_on_c, 0, 76, 95
2, 388800, Note_off_c, 0, 64, 95
2, 388800, Note_off_c, 0, 76, 95
2, 388800, Note_on_c, 0, 64, 95
2, 388800, Note_on_c, 0, 76, 95
2, 389280, Note_off_c, 0, 64, 95
2, 389280, Note_off_c, 0, 76, 95
2, 389280, Note_on_c, 0, 77, 95
2, 389280, Note_on_c, 0, 65, 95
2, 389760, Note_off_c, 0, 77, 95
2, 389760, Note_off_c, 0, 65, 95
2, 390240, Note_on_c, 1, 79, 95
2, 390240, Note_on_c, 1, 67, 95
2, 390400, Pitch_bend_c, 1, 8192
2, 390400, Pitch_bend_c, 1, 8192
2, 390560, Pitch_bend_c, 1, 8320
2, 390560, Pitch_bend_c, 1, 8320
2, 390720, Pitch_bend_c, 1, 8192
2, 390720, Pitch_bend_c, 1, 8320
2, 390720, Pitch_bend_c, 1, 8192
2, 390720, Note_off_c, 1, 79, 95
2, 390720, Pitch_bend_c, 1, 8192
2, 390720, Pitch_bend_c, 1, 8320
2, 390720, Pitch_bend_c, 1, 8192
2, 390720, Note_off_c, 1, 67, 95
2, 390720, Note_on_c, 1, 79, 47
2, 390720, Note_on_c, 1, 67, 47
2, 390840, Pitch_bend_c, 1, 6912
2, 390960, Pitch_bend_c, 1, 5632
2, 391080, Pitch_bend_c, 1, 4352
2, 391200, Pitch_bend_c, 1, 2944
2, 391320, Pitch_bend_c, 1, 1664
2, 391440, Pitch_bend_c, 1, 384
2, 391560, Pitch_bend_c, 1, 0
2, 391680, Pitch_bend_c, 1, 0
2, 391680, Pitch_bend_c, 1, 8192
2, 391680, Note_off_c, 1, 79, 47
2, 391680, Note_off_c, 1, 67, 47
2, 391680, Note_on_c, 0, 64, 95
2, 391680, Note_on_c, 0, 76, 95
2, 392160, Note_off_c, 0, 64, 95
2, 392160, Note_off_c, 0, 76, 95
2, 392160, Note_on_c, 0, 64, 95
2, 392160, Note_on_c, 0, 76, 95
2, 392640, Note_off_c, 0, 64, 95
2, 392640, Note_off_c, 0, 76, 95
2, 392640, Note_on_c, 0, 64, 95
2, 392640, Note_on_c, 0, 76, 95
2, 393120, Note_off_c, 0, 64, 95
2, 393120, Note_off_c, 0, 76, 95
2, 393120, Note_on_c, 0, 77, 95
2, 393120, Note_on_c, 0, 65, 95
2, 393600, Note_off_c, 0, 77, 95
2, 393600, Note_off_c, 0, 65, 95
2, 394080, Note_on_c, 1, 79, 95
2, 394080, Note_on_c, 1, 67, 95
2, 394240, Pitch_bend_c, 1, 8192
2, 394240, Pitch_bend_c, 1, 8192
2, 394400, Pitch_bend_c, 1, 8320
2, 394400, Pitch_bend_c, 1, 8320
2, 394560, Pitch_bend_c, 1, 8192
2, 394560, Pitch_bend_c, 1, 8320
2, 394560, Pitch_bend_c, 1, 8192
2, 394560, Note_off_c, 1, 79, 95
2, 394560, Pitch_bend_c, 1, 8192
2, 394560, Pitch_bend_c, 1, 8320
2, 394560, Pitch_bend_c, 1, 8192
2, 394560, Note_off_c, 1, 67, 95
2, 394560, Note_on_c, 1, 79, 47
2, 394560, Note_on_c, 1, 67, 47
2, 394680, Pitch_bend_c, 1, 6912
2, 394800, Pitch_bend_c, 1, 5632
2, 394920, Pitch_bend_c, 1, 4352
2, 395040, Pitch_bend_c, 1, 2944
2, 395160, Pitch_bend_c, 1, 1664
2, 395280, Pitch_bend_c, 1, 384
2, 395400, Pitch_bend_c, 1, 0
2, 395520, Pitch_bend_c, 1, 0
2, 395520, Pitch_bend_c, 1, 8192
2, 395520, Note_off_c, 1, 79, 47
2, 395520, Note_off_c, 1, 67, 47
2, 395520, Note_on_c, 0, 64, 95
2, 395520, Note_on_c, 0, 76, 95
2, 396000, Note_off_c, 0, 64, 95
2, 396000, Note_off_c, 0, 76, 95
2, 396000, Note_on_c, 0, 64, 95
2, 396000, Note_on_c, 0, 76, 95
2, 396480, Note_off_c, 0, 64, 95
2, 396480, Note_off_c, 0, 76, 95
2, 396480, Note_on_c, 0, 64, 95
2, 396480, Note_on_c, 0, 76, 95
2, 396960, Note_off_c, 0, 64, 95
2, 396960, Note_off_c, 0, 76, 95
2, 396960, Note_on_c, 0, 77, 95
2, 396960, Note_on_c, 0, 65, 95
2, 397440, Note_off_c, 0, 77, 95
2, 397440, Note_off_c, 0, 65, 95
2, 397920, Note_on_c, 1, 79, 95
2, 397920, Note_on_c, 1, 67, 95
2, 398080, Pitch_bend_c, 1, 8192
2, 398080, Pitch_bend_c, 1, 8192
2, 398240, Pitch_bend_c, 1, 8320
2, 398240, Pitch_bend_c, 1, 8320
2, 398400, Pitch_bend_c, 1, 8192
2, 398400, Pitch_bend_c, 1, 8320
2, 398400, Pitch_bend_c, 1, 8192
2, 398400, Note_off_c, 1, 79, 95
2, 398400, Pitch_bend_c, 1, 8192
2, 398400, Pitch_bend_c, 1, 8320
2, 398400, Pitch_bend_c, 1, 8192
2, 398400, Note_off_c, 1, 67, 95
2, 398400, Note_on_c, 1, 79, 47
2, 398400, Note_on_c, 1, 67, 47
2, 399360, Note_off_c, 1, 79, 47
2, 399360, Note_off_c, 1, 67, 47
2, 399840, Pitch_bend_c, 1, 8192
2, 399840, Note_on_c, 1, 62, 95
2, 399949, Pitch_bend_c, 1, 8320
2, 400058, Pitch_bend_c, 1, 8448
2, 400167, Pitch_bend_c, 1, 8576
2, 400276, Pitch_bend_c, 1, 8704
2, 400385, Pitch_bend_c, 1, 8832
2, 400494, Pitch_bend_c, 1, 8960
2, 400603, Pitch_bend_c, 1, 9088
2, 400712, Pitch_bend_c, 1, 9216
2, 400821, Pitch_bend_c, 1, 9344
2, 400930, Pitch_bend_c, 1, 9472
2, 401039, Pitch_bend_c, 1, 9600
2, 401040, Pitch_bend_c, 1, 9600
2, 402240, Pitch_bend_c, 1, 9600
2, 402240, Pitch_bend_c, 1, 8192
2, 402240, Note_off_c, 1, 62, 95
2, 402240, Note_on_c, 0, 72, 95
2, 402720, Note_off_c, 0, 72, 95
2, 402720, Pitch_bend_c, 1, 9600
2, 402720, Note_on_c, 1, 62, 95
2, 403040, Pitch_bend_c, 1, 9600
2, 403069, Pitch_bend_c, 1, 9472
2, 403098, Pitch_bend_c, 1, 9344
2, 403127, Pitch_bend_c, 1, 9216
2, 403156, Pitch_bend_c, 1, 9088
2, 403185, Pitch_bend_c, 1, 8960
2, 403214, Pitch_bend_c, 1, 8832
2, 403243, Pitch_bend_c, 1, 8704
2, 403272, Pitch_bend_c, 1, 8576
2, 403301, Pitch_bend_c, 1, 8448
2, 403330, Pitch_bend_c, 1, 8320
2, 403359, Pitch_bend_c, 1, 8192
2, 403360, Pitch_bend_c, 1, 8192
2, 403680, Pitch_bend_c, 1, 8192
2, 403680, Pitch_bend_c, 1, 8192
2, 403680, Note_off_c, 1, 62, 95
2, 403680, Note_on_c, 0, 60, 95
2, 404160, Note_off_c, 0, 60, 95
2, 404160, Note_on_c, 1, 62, 95
2, 404320, Pitch_bend_c, 1, 8192
2, 404480, Pitch_bend_c, 1, 8320
2, 404640, Pitch_bend_c, 1, 8192
2, 404800, Pitch_bend_c, 1, 8320
2, 404960, Pitch_bend_c, 1, 8192
2, 405120, Pitch_bend_c, 1, 8320
2, 405280, Pitch_bend_c, 1, 8192
2, 405440, Pitch_bend_c, 1, 8320
2, 405600, Pitch_bend_c, 1, 8192
2, 405760, Pitch_bend_c, 1, 8320
2, 405920, Pitch_bend_c, 1, 8192
2, 406080, Pitch_bend_c, 1, 8320
2, 406240, Pitch_bend_c, 1, 8192
2, 406400, Pitch_bend_c, 1, 8320
2, 406560, Pitch_bend_c, 1, 8192
2, 406720, Pitch_bend_c, 1, 8320
2, 406880, Pitch_bend_c, 1, 8192
2, 407040, Pitch_bend_c, 1, 8320
2, 407040, Pitch_bend_c, 1, 8192
2, 407040, Note_off_c, 1, 62, 95
2, 407040, Note_on_c, 0, 48, 95
2, 407520, Note_off_c, 0, 48, 95
2, 407520, Note_on_c, 1, 50, 95
2, 407760, Note_off_c, 1, 50, 95
2, 407760, Note_on_c, 0, 52, 95
2, 408000, Note_off_c, 0, 52, 95
2, 408000, Note_on_c, 0, 55, 95
2, 408480, Note_off_c, 0, 55, 95
2, 408480, Note_on_c, 0, 57, 95
2, 408960, Note_off_c, 0, 57, 95
2, 408960, Note_on_c, 0, 60, 95
2, 409440, Note_off_c, 0, 60, 95
2, 409440, Note_on_c, 0, 57, 95
2, 409920, Note_off_c, 0, 57, 95
2, 409920, Note_on_c, 0, 60, 95
2, 410400, Note_off_c, 0, 60, 95
2, 410400, Note_on_c, 0, 62, 95
2, 410880, Note_off_c, 0, 62, 95
2, 410880, Note_on_c, 1, 62, 95
2, 411120, Note_off_c, 1, 62, 95
2, 411120, Note_on_c, 0, 64, 95
2, 411360, Note_off_c, 0, 64, 95
2, 411360, Note_on_c, 0, 67, 95
2, 411840, Note_off_c, 0, 67, 95
2, 411840, Note_on_c, 0, 69, 95
2, 412320, Note_off_c, 0, 69, 95
2, 412320, Note_on_c, 0, 72, 95
2, 414720, Note_off_c, 0, 72, 95
2, 414720, Note_on_c, 0, 72, 95
2, 414880, Note_off_c, 0, 72, 95
2, 414880, Note_on_c, 0, 74, 70
2, 415040, Note_off_c, 0, 74, 70
2, 415040, Note_on_c, 0, 72, 70
2, 415200, Note_off_c, 0, 72, 70
2, 415200, Note_on_c, 0, 64, 95
2, 415680, Note_off_c, 0, 64, 95
2, 415680, Note_on_c, 0, 64, 95
2, 416160, Note_off_c, 0, 64, 95
2, 416160, Note_on_c, 0, 74, 70
2, 416320, Note_off_c, 0, 74, 70
2, 416320, Note_on_c, 0, 76, 70
2, 416480, Note_off_c, 0, 76, 70
2, 416480, Note_on_c, 0, 74, 70
2, 416640, Note_off_c, 0, 74, 70
2, 416640, Note_on_c, 0, 64, 95
2, 417120, Note_off_c, 0, 64, 95
2, 417120, Note_on_c, 0, 64, 95
2, 417600, Note_off_c, 0, 64, 95
2, 417600, Note_on_c, 0, 72, 70
2, 417760, Note_off_c, 0, 72, 70
2, 417760, Note_on_c, 0, 74, 70
2, 417920, Note_off_c, 0, 74, 70
2, 417920, Note_on_c, 0, 72, 70
2, 418080, Note_off_c, 0, 72, 70
2, 418080, Note_on_c, 0, 64, 95
2, 418560, Note_off_c, 0, 64, 95
2, 418560, Note_on_c, 0, 72, 70
2, 418720, Note_off_c, 0, 72, 70
2, 418720, Note_on_c, 0, 74, 70
2, 418880, Note_off_c, 0, 74, 70
2, 418880, Note_on_c, 0, 72, 70
2, 419040, Note_off_c, 0, 72, 70
2, 419040, Note_on_c, 0, 64, 95
2, 419520, Note_off_c, 0, 64, 95
2, 419520, Note_on_c, 0, 64, 95
2, 420000, Note_off_c, 0, 64, 95
2, 420000, Note_on_c, 0, 74, 70
2, 420160, Note_off_c, 0, 74, 70
2, 420160, Note_on_c, 0, 76, 70
2, 420320, Note_off_c, 0, 76, 70
2, 420320, Note_on_c, 0, 74, 70
2, 420480, Note_off_c, 0, 74, 70
2, 420480, Note_on_c, 0, 64, 95
2, 420960, Note_off_c, 0, 64, 95
2, 420960, Note_on_c, 0, 64, 95
2, 421440, Note_off_c, 0, 64, 95
2, 421440, Note_on_c, 0, 72, 70
2, 421600, Note_off_c, 0, 72, 70
2, 421600, Note_on_c, 0, 74, 70
2, 421760, Note_off_c, 0, 74, 70
2, 421760, Note_on_c, 0, 72, 70
2, 421920, Note_off_c, 0, 72, 70
2, 421920, Note_on_c, 0, 64, 95
2, 422400, Note_off_c, 0, 64, 95
2, 422400, Note_on_c, 0, 72, 70
2, 422560, Note_off_c, 0, 72, 70
2, 422560, Note_on_c, 0, 74, 70
2, 422720, Note_off_c, 0, 74, 70
2, 422720, Note_on_c, 0, 72, 70
2, 422880, Note_off_c, 0, 72, 70
2, 422880, Note_on_c, 0, 64, 95
2, 423360, Note_off_c, 0, 64, 95
2, 423360, Note_on_c, 0, 64, 95
2, 423840, Note_off_c, 0, 64, 95
2, 423840, Note_on_c, 0, 74, 70
2, 424000, Note_off_c, 0, 74, 70
2, 424000, Note_on_c, 0, 76, 70
2, 424160, Note_off_c, 0, 76, 70
2, 424160, Note_on_c, 0, 74, 70
2, 424320, Note_off_c, 0, 74, 70
2, 424320, Note_on_c, 0, 64, 95
2, 424800, Note_off_c, 0, 64, 95
2, 424800, Note_on_c, 0, 64, 95
2, 425280, Note_off_c, 0, 64, 95
2, 425280, Note_on_c, 0, 72, 70
2, 425440, Note_off_c, 0, 72, 70
2, 425440, Note_on_c, 0, 74, 70
2, 425600, Note_off_c, 0, 74, 70
2, 425600, Note_on_c, 0, 72, 70
2, 425760, Note_off_c, 0, 72, 70
2, 425760, Note_on_c, 0, 64, 95
2, 426240, Note_off_c, 0, 64, 95
2, 426240, Note_on_c, 0, 72, 70
2, 426400, Note_off_c, 0, 72, 70
2, 426400, Note_on_c, 0, 74, 70
2, 426560, Note_off_c, 0, 74, 70
2, 426560, Note_on_c, 0, 72, 70
2, 426720, Note_off_c, 0, 72, 70
2, 426720, Note_on_c, 0, 64, 95
2, 427200, Note_off_c, 0, 64, 95
2, 427200, Note_on_c, 0, 64, 95
2, 427680, Note_off_c, 0, 64, 95
2, 427680, Note_on_c, 0, 74, 70
2, 427840, Note_off_c, 0, 74, 70
2, 427840, Note_on_c, 0, 76, 70
2, 428000, Note_off_c, 0, 76, 70
2, 428000, Note_on_c, 0, 74, 70
2, 428160, Note_off_c, 0, 74, 70
2, 428160, Note_on_c, 0, 64, 95
2, 428640, Note_off_c, 0, 64, 95
2, 428640, Note_on_c, 0, 64, 95
2, 429120, Note_off_c, 0, 64, 95
2, 429120, Note_on_c, 0, 72, 70
2, 429280, Note_off_c, 0, 72, 70
2, 429280, Note_on_c, 0, 74, 70
2, 429440, Note_off_c, 0, 74, 70
2, 429440, Note_on_c, 0, 72, 70
2, 429600, Note_off_c, 0, 72, 70
2, 429600, Note_on_c, 0, 64, 95
2, 430080, Note_off_c, 0, 64, 95
2, 430080, Note_on_c, 0, 69, 95
2, 430320, Note_off_c, 0, 69, 95
2, 430320, Note_on_c, 0, 64, 95
2, 430560, Note_off_c, 0, 64, 95
2, 430560, Note_on_c, 0, 64, 95
2, 430800, Note_off_c, 0, 64, 95
2, 430800, Note_on_c, 0, 71, 70
2, 431040, Note_off_c, 0, 71, 70
2, 431040, Note_on_c, 0, 64, 95
2, 431280, Note_off_c, 0, 64, 95
2, 431280, Note_on_c, 0, 64, 95
2, 431520, Note_off_c, 0, 64, 95
2, 431520, Note_on_c, 0, 72, 70
2, 431760, Note_off_c, 0, 72, 70
2, 431760, Note_on_c, 0, 64, 95
2, 432000, Note_off_c, 0, 64, 95
2, 432000, Note_on_c, 0, 64, 95
2, 432240, Note_off_c, 0, 64, 95
2, 432240, Note_on_c, 0, 71, 70
2, 432480, Note_off_c, 0, 71, 70
2, 432480, Note_on_c, 0, 64, 95
2, 432720, Note_off_c, 0, 64, 95
2, 432720, Note_on_c, 0, 64, 95
2, 432960, Note_off_c, 0, 64, 95
2, 432960, Note_on_c, 0, 69, 70
2, 433200, Note_off_c, 0, 69, 70
2, 433200, Note_on_c, 0, 64, 95
2, 433440, Note_off_c, 0, 64, 95
2, 433440, Note_on_c, 0, 71, 70
2, 433680, Note_off_c, 0, 71, 70
2, 433680, Note_on_c, 0, 64, 95
2, 433920, Note_off_c, 0, 64, 95
2, 433920, Note_on_c, 0, 71, 70
2, 434160, Note_off_c, 0, 71, 70
2, 434160, Note_on_c, 0, 64, 70
2, 434400, Note_off_c, 0, 64, 70
2, 434400, Note_on_c, 0, 64, 95
2, 434640, Note_off_c, 0, 64, 95
2, 434640, Note_on_c, 0, 72, 95
2, 434880, Note_off_c, 0, 72, 95
2, 434880, Note_on_c, 0, 64, 70
2, 435120, Note_off_c, 0, 64, 70
2, 435120, Note_on_c, 0, 64, 95
2, 435360, Note_off_c, 0, 64, 95
2, 435360, Note_on_c, 0, 74, 95
2, 435600, Note_off_c, 0, 74, 95
2, 435600, Note_on_c, 0, 64, 70
2, 435840, Note_off_c, 0, 64, 70
2, 435840, Note_on_c, 0, 64, 95
2, 436080, Note_off_c, 0, 64, 95
2, 436080, Note_on_c, 0, 72, 95
2, 436320, Note_off_c, 0, 72, 95
2, 436320, Note_on_c, 0, 64, 70
2, 436560, Note_off_c, 0, 64, 70
2, 436560, Note_on_c, 0, 64, 95
2, 436800, Note_off_c, 0, 64, 95
2, 436800, Note_on_c, 0, 71, 95
2, 437040, Note_off_c, 0, 71, 95
2, 437040, Note_on_c, 0, 64, 70
2, 437280, Note_off_c, 0, 64, 70
2, 437280, Note_on_c, 0, 72, 95
2, 437520, Note_off_c, 0, 72, 95
2, 437520, Note_on_c, 0, 64, 70
2, 437760, Note_off_c, 0, 64, 70
2, 437760, Note_on_c, 0, 48, 95
2, 438240, Note_off_c, 0, 48, 95
2, 438240, Note_on_c, 1, 50, 95
2, 438480, Note_off_c, 1, 50, 95
2, 438480, Note_on_c, 0, 52, 95
2, 438720, Note_off_c, 0, 52, 95
2, 438720, Note_on_c, 0, 55, 95
2, 439200, Note_off_c, 0, 55, 95
2, 439200, Note_on_c, 0, 57, 95
2, 439680, Note_off_c, 0, 57, 95
2, 439680, Note_on_c, 0, 60, 95
2, 440160, Note_off_c, 0, 60, 95
2, 440160, Note_on_c, 0, 57, 95
2, 440640, Note_off_c, 0, 57, 95
2, 440640, Note_on_c, 0, 60, 95
2, 441120, Note_off_c, 0, 60, 95
2, 441120, Note_on_c, 0, 62, 95
2, 441600, Note_off_c, 0, 62, 95
2, 441600, Note_on_c, 1, 62, 95
2, 441840, Note_off_c, 1, 62, 95
2, 441840, Note_on_c, 0, 64, 95
2, 442080, Note_off_c, 0, 64, 95
2, 442080, Note_on_c, 0, 67, 95
2, 442560, Note_off_c, 0, 67, 95
2, 442560, Note_on_c, 0, 69, 95
2, 443040, Note_off_c, 0, 69, 95
2, 443040, Note_on_c, 0, 72, 95
2, 445440, Note_off_c, 0, 72, 95
2, 445440, Note_on_c, 0, 72, 95
2, 445920, Note_off_c, 0, 72, 95
2, 445920, Note_on_c, 0, 67, 70
2, 446880, Note_off_c, 0, 67, 70
2, 446880, Note_on_c, 0, 72, 95
2, 449760, Note_off_c, 0, 72, 95
2, 449760, Note_on_c, 0, 67, 95
2, 450720, Note_off_c, 0, 67, 95
2, 450720, Note_on_c, 0, 72, 95
2, 453600, Note_off_c, 0, 72, 95
2, 453600, Note_on_c, 0, 67, 95
2, 454560, Note_off_c, 0, 67, 95
2, 454560, Note_on_c, 0, 72, 95
2, 457440, Note_off_c, 0, 72, 95
2, 457440, Note_on_c, 0, 67, 95
2, 458400, Note_off_c, 0, 67, 95
2, 458400, Note_on_c, 0, 72, 95
2, 460800, Note_off_c, 0, 72, 95
2, 460800, Note_on_c, 0, 62, 95
2, 461280, Note_off_c, 0, 62, 95
2, 461280, Note_on_c, 0, 67, 95
2, 461760, Note_off_c, 0, 67, 95
2, 461760, Note_on_c, 0, 62, 95
2, 462240, Note_off_c, 0, 62, 95
2, 462240, Note_on_c, 0, 71, 95
2, 466080, Note_off_c, 0, 71, 95
2, 466080, Note_on_c, 0, 72, 95
2, 467040, Note_off_c, 0, 72, 95
2, 467040, Note_on_c, 0, 71, 95
2, 467520, Note_off_c, 0, 71, 95
2, 467520, Note_on_c, 0, 67, 95
2, 468000, Note_off_c, 0, 67, 95
2, 468000, Note_on_c, 0, 62, 95
2, 468480, Note_off_c, 0, 62, 95
2, 468480, Note_on_c, 0, 60, 95
2, 468960, Note_off_c, 0, 60, 95
2, 468960, Note_on_c, 0, 64, 95
2, 469440, Note_off_c, 0, 64, 95
2, 469440, Note_on_c, 0, 60, 95
2, 469920, Note_off_c, 0, 60, 95
2, 469920, Note_on_c, 0, 72, 95
2, 476160, Note_off_c, 0, 72, 95
2, 476160, Note_on_c, 0, 72, 95
2, 476640, Note_off_c, 0, 72, 95
2, 476640, Note_on_c, 0, 67, 95
2, 477600, Note_off_c, 0, 67, 95
2, 477600, Note_on_c, 0, 72, 95
2, 480480, Note_off_c, 0, 72, 95
2, 480480, Note_on_c, 0, 67, 95
2, 481440, Note_off_c, 0, 67, 95
2, 481440, Note_on_c, 0, 72, 95
2, 484320, Note_off_c, 0, 72, 95
2, 484320, Note_on_c, 0, 67, 95
2, 485280, Note_off_c, 0, 67, 95
2, 485280, Note_on_c, 0, 72, 95
2, 488160, Note_off_c, 0, 72, 95
2, 488160, Note_on_c, 0, 67, 95
2, 489120, Note_off_c, 0, 67, 95
2, 489120, Note_on_c, 0, 72, 95
2, 491520, Note_off_c, 0, 72, 95
2, 491520, Note_on_c, 0, 62, 95
2, 492000, Note_off_c, 0, 62, 95
2, 492000, Note_on_c, 0, 67, 95
2, 492480, Note_off_c, 0, 67, 95
2, 492480, Note_on_c, 0, 62, 95
2, 492960, Note_off_c, 0, 62, 95
2, 492960, Note_on_c, 0, 71, 95
2, 496800, Note_off_c, 0, 71, 95
2, 496800, Note_on_c, 0, 72, 95
2, 497760, Note_off_c, 0, 72, 95
2, 497760, Note_on_c, 0, 71, 95
2, 498240, Note_off_c, 0, 71, 95
2, 498240, Note_on_c, 0, 67, 95
2, 498720, Note_off_c, 0, 67, 95
2, 498720, Note_on_c, 0, 62, 95
2, 499200, Note_off_c, 0, 62, 95
2, 499200, Note_on_c, 0, 60, 95
2, 499680, Note_off_c, 0, 60, 95
2, 499680, Note_on_c, 0, 64, 95
2, 500160, Note_off_c, 0, 64, 95
2, 500160, Note_on_c, 0, 60, 95
2, 500640, Note_off_c, 0, 60, 95
2, 500640, Note_on_c, 0, 72, 95
2, 503040, Note_off_c, 0, 72, 95
2, 503040, Note_on_c, 0, 55, 15
2, 503040, Note_on_c, 0, 48, 15
2, 503520, Note_off_c, 0, 55, 15
2, 503520, Note_off_c, 0, 48, 15
2, 503520, Note_on_c, 0, 55, 95
2, 503520, Note_on_c, 0, 48, 15
2, 504000, Note_off_c, 0, 55, 95
2, 504000, Note_off_c, 0, 48, 15
2, 504000, Note_on_c, 0, 55, 95
2, 504000, Note_on_c, 0, 48, 95
2, 504480, Note_off_c, 0, 55, 95
2, 504480, Note_off_c, 0, 48, 95
2, 504480, Note_on_c, 0, 55, 95
2, 504480, Note_on_c, 0, 48, 95
2, 504960, Note_off_c, 0, 55, 95
2, 504960, Note_off_c, 0, 48, 95
2, 504960, Note_on_c, 0, 55, 95
2, 504960, Note_on_c, 0, 48, 95
2, 505440, Note_off_c, 0, 55, 95
2, 505440, Note_off_c, 0, 48, 95
2, 505440, Note_on_c, 0, 55, 95
2, 505440, Note_on_c, 0, 48, 95
2, 505920, Note_off_c, 0, 55, 95
2, 505920, Note_off_c, 0, 48, 95
2, 505920, Note_on_c, 0, 55, 95
2, 505920, Note_on_c, 0, 48, 95
2, 506400, Note_off_c, 0, 55, 95
2, 506400, Note_off_c, 0, 48, 95
2, 506400, Note_on_c, 0, 55, 95
2, 506400, Note_on_c, 0, 48, 95
2, 506880, Note_off_c, 0, 55, 95
2, 506880, Note_off_c, 0, 48, 95
2, 506880, Note_on_c, 0, 52, 95
2, 506880, Note_on_c, 0, 47, 95
2, 506880, Note_on_c, 0, 40, 95
2, 507020, Note_off_c, 0, 40, 95
2, 507360, Note_off_c, 0, 52, 95
2, 507360, Note_off_c, 0, 47, 95
2, 507360, Note_on_c, 0, 52, 95
2, 507360, Note_on_c, 0, 47, 95
2, 507360, Note_on_c, 0, 40, 95
2, 507500, Note_off_c, 0, 40, 95
2, 507840, Note_off_c, 0, 52, 95
2, 507840, Note_off_c, 0, 47, 95
2, 507840, Note_on_c, 0, 52, 95
2, 507840, Note_on_c, 0, 47, 95
2, 507840, Note_on_c, 0, 40, 95
2, 507980, Note_off_c, 0, 40, 95
2, 508320, Note_off_c, 0, 52, 95
2, 508320, Note_off_c, 0, 47, 95
2, 508320, Note_on_c, 0, 52, 95
2, 508320, Note_on_c, 0, 47, 95
2, 508320, Note_on_c, 0, 40, 95
2, 508460, Note_off_c, 0, 40, 95
2, 508800, Note_off_c, 0, 52, 95
2, 508800, Note_off_c, 0, 47, 95
2, 508800, Note_on_c, 0, 52, 95
2, 508800, Note_on_c, 0, 47, 95
2, 508800, Note_on_c, 0, 40, 95
2, 508940, Note_off_c, 0, 40, 95
2, 509280, Note_off_c, 0, 52, 95
2, 509280, Note_off_c, 0, 47, 95
2, 509280, Note_on_c, 0, 52, 95
2, 509280, Note_on_c, 0, 47, 95
2, 509280, Note_on_c, 0, 40, 95
2, 509420, Note_off_c, 0, 40, 95
2, 509760, Note_off_c, 0, 52, 95
2, 509760, Note_off_c, 0, 47, 95
2, 509760, Note_on_c, 0, 52, 95
2, 509760, Note_on_c, 0, 47, 95
2, 509760, Note_on_c, 0, 40, 95
2, 509900, Note_off_c, 0, 40, 95
2, 510240, Note_off_c, 0, 52, 95
2, 510240, Note_off_c, 0, 47, 95
2, 510240, Note_on_c, 0, 52, 95
2, 510240, Note_on_c, 0, 47, 95
2, 510240, Note_on_c, 0, 40, 95
2, 510380, Note_off_c, 0, 40, 95
2, 510720, Note_off_c, 0, 52, 95
2, 510720, Note_off_c, 0, 47, 95
2, 510720, Note_on_c, 0, 52, 95
2, 510720, Note_on_c, 0, 47, 95
2, 510720, Note_on_c, 0, 40, 95
2, 510860, Note_off_c, 0, 40, 95
2, 511200, Note_off_c, 0, 52, 95
2, 511200, Note_off_c, 0, 47, 95
2, 511200, Note_on_c, 0, 52, 95
2, 511200, Note_on_c, 0, 47, 95
2, 511200, Note_on_c, 0, 40, 95
2, 511340, Note_off_c, 0, 40, 95
2, 511680, Note_off_c, 0, 52, 95
2, 511680, Note_off_c, 0, 47, 95
2, 511680, Note_on_c, 0, 52, 95
2, 511680, Note_on_c, 0, 47, 95
2, 511680, Note_on_c, 0, 40, 95
2, 514560, Note_off_c, 0, 52, 95
2, 514560, Note_off_c, 0, 47, 95
2, 514560, Note_off_c, 0, 40, 95
2, 514560, Note_on_c, 0, 57, 95
2, 514560, Note_on_c, 0, 52, 95
2, 514560, Note_on_c, 0, 45, 95
2, 514700, Note_off_c, 0, 45, 95
2, 515040, Note_off_c, 0, 57, 95
2, 515040, Note_off_c, 0, 52, 95
2, 515040, Note_on_c, 0, 57, 95
2, 515040, Note_on_c, 0, 52, 95
2, 515040, Note_on_c, 0, 45, 95
2, 515180, Note_off_c, 0, 45, 95
2, 515520, Note_off_c, 0, 57, 95
2, 515520, Note_off_c, 0, 52, 95
2, 515520, Note_on_c, 0, 57, 95
2, 515520, Note_on_c, 0, 52, 95
2, 515520, Note_on_c, 0, 45, 95
2, 515660, Note_off_c, 0, 45, 95
2, 516000, Note_off_c, 0, 57, 95
2, 516000, Note_off_c, 0, 52, 95
2, 516000, Note_on_c, 0, 57, 95
2, 516000, Note_on_c, 0, 52, 95
2, 516000, Note_on_c, 0, 45, 95
2, 516140, Note_off_c, 0, 45, 95
2, 516480, Note_off_c, 0, 57, 95
2, 516480, Note_off_c, 0, 52, 95
2, 516480, Note_on_c, 0, 57, 95
2, 516480, Note_on_c, 0, 52, 95
2, 516480, Note_on_c, 0, 45, 95
2, 516620, Note_off_c, 0, 45, 95
2, 516960, Note_off_c, 0, 57, 95
2, 516960, Note_off_c, 0, 52, 95
2, 516960, Note_on_c, 0, 57, 95
2, 516960, Note_on_c, 0, 52, 95
2, 516960, Note_on_c, 0, 45, 95
2, 517100, Note_off_c, 0, 45, 95
2, 517440, Note_off_c, 0, 57, 95
2, 517440, Note_off_c, 0, 52, 95
2, 517440, Note_on_c, 0, 57, 95
2, 517440, Note_on_c, 0, 52, 95
2, 517440, Note_on_c, 0, 45, 95
2, 522240, Note_off_c, 0, 57, 95
2, 522240, Note_off_c, 0, 52, 95
2, 522240, Note_off_c, 0, 45, 95
2, 522240, Note_on_c, 0, 50, 95
2, 522240, Note_on_c, 0, 43, 95
2, 522380, Note_off_c, 0, 43, 95
2, 522720, Note_off_c, 0, 50, 95
2, 522720, Note_on_c, 0, 50, 95
2, 522720, Note_on_c, 0, 43, 95
2, 522860, Note_off_c, 0, 43, 95
2, 523200, Note_off_c, 0, 50, 95
2, 523200, Note_on_c, 0, 50, 95
2, 523200, Note_on_c, 0, 43, 95
2, 523340, Note_off_c, 0, 43, 95
2, 523680, Note_off_c, 0, 50, 95
2, 523680, Note_on_c, 0, 50, 95
2, 523680, Note_on_c, 0, 43, 95
2, 523820, Note_off_c, 0, 43, 95
2, 524160, Note_off_c, 0, 50, 95
2, 524160, Note_on_c, 0, 50, 95
2, 524160, Note_on_c, 0, 43, 95
2, 526080, Note_off_c, 0, 50, 95
2, 526080, Note_off_c, 0, 43, 95
2, 526080, Note_on_c, 0, 50, 95
2, 526080, Note_on_c, 0, 43, 95
2, 526560, Note_off_c, 0, 50, 95
2, 526560, Note_off_c, 0, 43, 95
2, 537600, Note_on_c, 0, 55, 95
2, 537600, Note_on_c, 0, 48, 95
2, 539520, Note_off_c, 0, 55, 95
2, 539520, Note_off_c, 0, 48, 95
2, 539520, Note_on_c, 0, 47, 95
2, 539520, Note_on_c, 0, 40, 95
2, 541440, Note_off_c, 0, 47, 95
2, 541440, Note_off_c, 0, 40, 95
2, 541440, Note_on_c, 0, 52, 95
2, 541440, Note_on_c, 0, 45, 95
2, 545280, Note_off_c, 0, 52, 95
2, 545280, Note_off_c, 0, 45, 95
2, 545280, Note_on_c, 0, 48, 95
2, 545280, Note_on_c, 0, 41, 95
2, 548160, Note_off_c, 0, 48, 95
2, 548160, Note_off_c, 0, 41, 95
2, 548160, Note_on_c, 0, 60, 95
2, 548160, Note_on_c, 0, 53, 95
2, 548640, Note_off_c, 0, 60, 95
2, 548640, Note_off_c, 0, 53, 95
2, 548640, Note_on_c, 0, 59, 95
2, 548640, Note_on_c, 0, 52, 95
2, 549120, Note_off_c, 0, 59, 95
2, 549120, Note_off_c, 0, 52, 95
2, 549120, Note_on_c, 0, 57, 95
2, 549120, Note_on_c, 0, 50, 95
2, 550560, Note_off_c, 0, 57, 95
2, 550560, Note_off_c, 0, 50, 95
2, 550560, Note_on_c, 0, 65, 95
2, 551520, Note_off_c, 0, 65, 95
2, 551520, Note_on_c, 0, 64, 95
2, 551640, Note_off_c, 0, 64, 95
2, 551640, Note_on_c, 0, 65, 70
2, 551760, Note_off_c, 0, 65, 70
2, 551760, Note_on_c, 0, 64, 70
2, 551880, Note_off_c, 0, 64, 70
2, 551880, Note_on_c, 0, 62, 95
2, 552000, Note_off_c, 0, 62, 95
2, 552000, Note_on_c, 0, 64, 70
2, 552480, Note_off_c, 0, 64, 70
2, 552480, Note_on_c, 0, 62, 70
2, 552960, Note_off_c, 0, 62, 70
2, 552960, Note_on_c, 0, 50, 95
2, 552960, Note_on_c, 0, 43, 95
2, 553440, Note_off_c, 0, 50, 95
2, 553440, Note_off_c, 0, 43, 95
2, 553440, Note_on_c, 0, 50, 95
2, 553440, Note_on_c, 0, 43, 95
2, 553920, Note_off_c, 0, 50, 95
2, 553920, Note_off_c, 0, 43, 95
2, 553920, Note_on_c, 0, 62, 95
2, 553920, Note_on_c, 0, 55, 95
2, 556800, Note_off_c, 0, 62, 95
2, 556800, Note_off_c, 0, 55, 95
2, 556800, Note_on_c, 0, 48, 95
2, 556800, Note_on_c, 0, 41, 95
2, 557280, Note_off_c, 0, 48, 95
2, 557280, Note_off_c, 0, 41, 95
2, 557280, Note_on_c, 0, 48, 95
2, 557280, Note_on_c, 0, 41, 95
2, 557760, Note_off_c, 0, 48, 95
2, 557760, Note_off_c, 0, 41, 95
2, 557760, Note_on_c, 0, 60, 95
2, 557760, Note_on_c, 0, 53, 95
2, 560640, Note_off_c, 0, 60, 95
2, 560640, Note_off_c, 0, 53, 95
2, 561120, Note_on_c, 0, 67, 70
2, 561120, Note_on_c, 0, 64, 95
2, 561120, Note_on_c, 0, 60, 95
2, 561600, Note_off_c, 0, 67, 70
2, 561600, Note_off_c, 0, 64, 95
2, 561600, Note_off_c, 0, 60, 95
2, 561600, Note_on_c, 0, 65, 95
2, 561600, Note_on_c, 0, 60, 95
2, 562080, Note_off_c, 0, 65, 95
2, 562080, Note_off_c, 0, 60, 95
2, 562080, Note_on_c, 0, 64, 95
2, 562080, Note_on_c, 0, 60, 95
2, 562560, Note_off_c, 0, 64, 95
2, 562560, Note_off_c, 0, 60, 95
2, 562560, Note_on_c, 0, 67, 95
2, 562560, Note_on_c, 0, 65, 95
2, 562560, Note_on_c, 0, 60, 95
2, 563040, Note_off_c, 0, 67, 95
2, 563040, Note_off_c, 0, 65, 95
2, 563040, Note_off_c, 0, 60, 95
2, 564000, Note_on_c, 0, 67, 95
2, 564000, Note_on_c, 0, 64, 95
2, 564000, Note_on_c, 0, 60, 95
2, 564480, Note_off_c, 0, 67, 95
2, 564480, Note_off_c, 0, 64, 95
2, 564480, Note_off_c, 0, 60, 95
2, 564960, Note_on_c, 0, 67, 95
2, 564960, Note_on_c, 0, 64, 95
2, 564960, Note_on_c, 0, 60, 95
2, 565440, Note_off_c, 0, 67, 95
2, 565440, Note_off_c, 0, 64, 95
2, 565440, Note_off_c, 0, 60, 95
2, 565920, Note_on_c, 0, 67, 95
2, 565920, Note_on_c, 0, 64, 95
2, 565920, Note_on_c, 0, 60, 95
2, 566400, Note_off_c, 0, 67, 95
2, 566400, Note_off_c, 0, 64, 95
2, 566400, Note_off_c, 0, 60, 95
2, 566880, Note_on_c, 1, 67, 95
2, 566880, Note_on_c, 1, 64, 95
2, 566880, Note_on_c, 1, 60, 95
2, 567000, Pitch_bend_c, 1, 8192
2, 567000, Pitch_bend_c, 1, 8192
2, 567000, Pitch_bend_c, 1, 8192
2, 567120, Pitch_bend_c, 1, 8192
2, 567120, Pitch_bend_c, 1, 8192
2, 567120, Pitch_bend_c, 1, 8192
2, 567240, Pitch_bend_c, 1, 8192
2, 567240, Pitch_bend_c, 1, 8192
2, 567240, Pitch_bend_c, 1, 8192
2, 567360, Pitch_bend_c, 1, 8192
2, 567360, Pitch_bend_c, 1, 8192
2, 567360, Pitch_bend_c, 1, 8192
2, 567480, Pitch_bend_c, 1, 8192
2, 567480, Pitch_bend_c, 1, 8192
2, 567480, Pitch_bend_c, 1, 8192
2, 567600, Pitch_bend_c, 1, 8192
2, 567600, Pitch_bend_c, 1, 8192
2, 567600, Pitch_bend_c, 1, 8192
2, 567720, Pitch_bend_c, 1, 8192
2, 567720, Pitch_bend_c, 1, 8192
2, 567720, Pitch_bend_c, 1, 8192
2, 567840, Pitch_bend_c, 1, 8192
2, 567840, Pitch_bend_c, 1, 8192
2, 567840, Pitch_bend_c, 1, 8192
2, 567840, Pitch_bend_c, 1, 8192
2, 567840, Pitch_bend_c, 1, 8192
2, 567840, Pitch_bend_c, 1, 8192
2, 568320, Note_off_c, 1, 67, 95
2, 568320, Note_off_c, 1, 64, 95
2, 568320, Note_off_c, 1, 60, 95
2, 568320, Note_on_c, 0, 55, 95
2, 568320, Note_on_c, 0, 48, 95
2, 570240, Note_off_c, 0, 55, 95
2, 570240, Note_off_c, 0, 48, 95
2, 570240, Note_on_c, 0, 47, 95
2, 570240, Note_on_c, 0, 40, 95
2, 572160, Note_off_c, 0, 47, 95
2, 572160, Note_off_c, 0, 40, 95
2, 572160, Note_on_c, 0, 52, 95
2, 572160, Note_on_c, 0, 45, 95
2, 576000, Note_off_c, 0, 52, 95
2, 576000, Note_off_c, 0, 45, 95
2, 576000, Note_on_c, 0, 48, 95
2, 576000, Note_on_c, 0, 41, 95
2, 578880, Note_off_c, 0, 48, 95
2, 578880, Note_off_c, 0, 41, 95
2, 578880, Note_on_c, 0, 60, 95
2, 578880, Note_on_c, 0, 53, 95
2, 579360, Note_off_c, 0, 60, 95
2, 579360, Note_off_c, 0, 53, 95
2, 579360, Note_on_c, 0, 59, 95
2, 579360, Note_on_c, 0, 52, 95
2, 579840, Note_off_c, 0, 59, 95
2, 579840, Note_off_c, 0, 52, 95
2, 579840, Note_on_c, 0, 57, 95
2, 579840, Note_on_c, 0, 50, 95
2, 581280, Note_off_c, 0, 57, 95
2, 581280, Note_off_c, 0, 50, 95
2, 581280, Note_on_c, 0, 65, 95
2, 582240, Note_off_c, 0, 65, 95
2, 582240, Note_on_c, 0, 64, 95
2, 582360, Note_off_c, 0, 64, 95
2, 582360, Note_on_c, 0, 65, 70
2, 582480, Note_off_c, 0, 65, 70
2, 582480, Note_on_c, 0, 64, 70
2, 582600, Note_off_c, 0, 64, 70
2, 582600, Note_on_c, 0, 62, 95
2, 582720, Note_off_c, 0, 62, 95
2, 582720, Note_on_c, 0, 64, 70
2, 583200, Note_off_c, 0, 64, 70
2, 583200, Note_on_c, 0, 62, 70
2, 583680, Note_off_c, 0, 62, 70
2, 583680, Note_on_c, 0, 50, 95
2, 583680, Note_on_c, 0, 43, 95
2, 584160, Note_off_c, 0, 50, 95
2, 584160, Note_off_c, 0, 43, 95
2, 584160, Note_on_c, 0, 50, 95
2, 584160, Note_on_c, 0, 43, 95
2, 584640, Note_off_c, 0, 50, 95
2, 584640, Note_off_c, 0, 43, 95
2, 584640, Note_on_c, 0, 62, 95
2, 584640, Note_on_c, 0, 55, 95
2, 587520, Note_off_c, 0, 62, 95
2, 587520, Note_off_c, 0, 55, 95
2, 587520, Note_on_c, 0, 48, 95
2, 587520, Note_on_c, 0, 41, 95
2, 588000, Note_off_c, 0, 48, 95
2, 588000, Note_off_c, 0, 41, 95
2, 588000, Note_on_c, 0, 48, 95
2, 588000, Note_on_c, 0, 41, 95
2, 588480, Note_off_c, 0, 48, 95
2, 588480, Note_off_c, 0, 41, 95
2, 588480, Note_on_c, 0, 60, 95
2, 588480, Note_on_c, 0, 53, 95
2, 591360, Note_off_c, 0, 60, 95
2, 591360, Note_off_c, 0, 53, 95
2, 591840, Note_on_c, 0, 67, 70
2, 591840, Note_on_c, 0, 64, 95
2, 591840, Note_on_c, 0, 60, 95
2, 592320, Note_off_c, 0, 67, 70
2, 592320, Note_off_c, 0, 64, 95
2, 592320, Note_off_c, 0, 60, 95
2, 592320, Note_on_c, 0, 65, 95
2, 592320, Note_on_c, 0, 60, 95
2, 592800, Note_off_c, 0, 65, 95
2, 592800, Note_off_c, 0, 60, 95
2, 592800, Note_on_c, 0, 64, 95
2, 592800, Note_on_c, 0, 60, 95
2, 593280, Note_off_c, 0, 64, 95
2, 593280, Note_off_c, 0, 60, 95
2, 593280, Note_on_c, 0, 67, 95
2, 593280, Note_on_c, 0, 65, 95
2, 593280, Note_on_c, 0, 60, 95
2, 593760, Note_off_c, 0, 67, 95
2, 593760, Note_off_c, 0, 65, 95
2, 593760, Note_off_c, 0, 60, 95
2, 594720, Note_on_c, 0, 67, 95
2, 594720, Note_on_c, 0, 64, 95
2, 594720, Note_on_c, 0, 60, 95
2, 595200, Note_off_c, 0, 67, 95
2, 595200, Note_off_c, 0, 64, 95
2, 595200, Note_off_c, 0, 60, 95
2, 595200, Note_on_c, 0, 55, 95
2, 595200, Note_on_c, 0, 48, 95
2, 595680, Note_off_c, 0, 55, 95
2, 595680, Note_off_c, 0, 48, 95
2, 595680, Note_on_c, 0, 55, 95
2, 595680, Note_on_c, 0, 48, 95
2, 596160, Note_off_c, 0, 55, 95
2, 596160, Note_off_c, 0, 48, 95
2, 596160, Note_on_c, 0, 55, 95
2, 596160, Note_on_c, 0, 48, 95
2, 596640, Note_off_c, 0, 55, 95
2, 596640, Note_off_c, 0, 48, 95
2, 596640, Note_on_c, 0, 55, 95
2, 596640, Note_on_c, 0, 48, 95
2, 597120, Note_off_c, 0, 55, 95
2, 597120, Note_off_c, 0, 48, 95
2, 597120, Note_on_c, 0, 55, 95
2, 597120, Note_on_c, 0, 48, 95
2, 597600, Note_off_c, 0, 55, 95
2, 597600, Note_off_c, 0, 48, 95
2, 597600, Note_on_c, 0, 55, 95
2, 597600, Note_on_c, 0, 48, 95
2, 598080, Note_off_c, 0, 55, 95
2, 598080, Note_off_c, 0, 48, 95
2, 598080, Note_on_c, 0, 55, 95
2, 598080, Note_on_c, 0, 48, 95
2, 598560, Note_off_c, 0, 55, 95
2, 598560, Note_off_c, 0, 48, 95
2, 598560, Note_on_c, 0, 55, 95
2, 598560, Note_on_c, 0, 48, 95
2, 599040, Note_off_c, 0, 55, 95
2, 599040, Note_off_c, 0, 48, 95
2, 599040, Note_on_c, 0, 40, 95
2, 599048, Note_on_c, 0, 47, 95
2, 599056, Note_on_c, 0, 52, 95
2, 605760, Note_off_c, 0, 52, 95
2, 605760, Note_off_c, 0, 47, 95
2, 605760, Note_off_c, 0, 40, 95
2, 605760, Note_on_c, 0, 45, 95
2, 605760, Note_on_c, 0, 45, 95
2, 606240, Note_off_c, 0, 45, 95
2, 606240, Note_off_c, 0, 45, 95
2, 606240, Note_on_c, 0, 45, 95
2, 606240, Note_on_c, 0, 45, 95
2, 606720, Note_off_c, 0, 45, 95
2, 606720, Note_off_c, 0, 45, 95
2, 606720, Note_on_c, 0, 45, 95
2, 606728, Note_on_c, 0, 52, 95
2, 606736, Note_on_c, 0, 57, 95
2, 610560, Note_off_c, 0, 57, 95
2, 610800, Note_off_c, 0, 52, 95
2, 610800, Note_off_c, 0, 45, 95
2, 611040, Note_on_c, 0, 57, 95
2, 611040, Note_on_c, 0, 52, 95
2, 611040, Note_on_c, 0, 45, 95
2, 611520, Note_off_c, 0, 57, 95
2, 611520, Note_off_c, 0, 52, 95
2, 611520, Note_off_c, 0, 45, 95
2, 612480, Note_on_c, 0, 57, 95
2, 612480, Note_on_c, 0, 52, 95
2, 612480, Note_on_c, 0, 45, 95
2, 613920, Note_off_c, 0, 57, 95
2, 613920, Note_off_c, 0, 52, 95
2, 613920, Note_off_c, 0, 45, 95
2, 614400, Note_on_c, 0, 53, 95
2, 614400, Note_on_c, 0, 48, 95
2, 614400, Note_on_c, 0, 41, 95
2, 614880, Note_off_c, 0, 53, 95
2, 614880, Note_off_c, 0, 48, 95
2, 614880, Note_off_c, 0, 41, 95
2, 614880, Note_on_c, 0, 53, 95
2, 614880, Note_on_c, 0, 48, 95
2, 614880, Note_on_c, 0, 41, 95
2, 615360, Note_off_c, 0, 53, 95
2, 615360, Note_off_c, 0, 48, 95
2, 615360, Note_off_c, 0, 41, 95
2, 616320, Note_on_c, 0, 55, 95
2, 616320, Note_on_c, 0, 50, 95
2, 616320, Note_on_c, 0, 43, 95
2, 616800, Note_off_c, 0, 55, 95
2, 616800, Note_off_c, 0, 50, 95
2, 616800, Note_off_c, 0, 43, 95
2, 616800, Note_on_c, 0, 55, 95
2, 616800, Note_on_c, 0, 50, 95
2, 616800, Note_on_c, 0, 43, 95
2, 617280, Note_off_c, 0, 55, 95
2, 617280, Note_off_c, 0, 50, 95
2, 617280, Note_off_c, 0, 43, 95
2, 618240, Note_on_c, 0, 60, 95
2, 618240, Note_on_c, 0, 55, 95
2, 618240, Note_on_c, 0, 48, 95
2, 618240, Note_on_c, 0, 43, 95
2, 622080, Note_off_c, 0, 60, 95
2, 622080, Note_off_c, 0, 55, 95
2, 622080, Note_off_c, 0, 48, 95
2, 622080, Note_off_c, 0, 43, 95
2, 622080, Note_on_c, 0, 53, 95
2, 622080, Note_on_c, 0, 48, 95
2, 622080, Note_on_c, 0, 41, 95
2, 622220, Note_off_c, 0, 41, 95
2, 622560, Note_off_c, 0, 53, 95
2, 622560, Note_off_c, 0, 48, 95
2, 622560, Note_on_c, 0, 53, 95
2, 622560, Note_on_c, 0, 48, 95
2, 622560, Note_on_c, 0, 41, 95
2, 622700, Note_off_c, 0, 41, 95
2, 623040, Note_off_c, 0, 53, 95
2, 623040, Note_off_c, 0, 48, 95
2, 624000, Note_on_c, 0, 55, 95
2, 624000, Note_on_c, 0, 50, 95
2, 624000, Note_on_c, 0, 43, 95
2, 624140, Note_off_c, 0, 43, 95
2, 624480, Note_off_c, 0, 55, 95
2, 624480, Note_off_c, 0, 50, 95
2, 624480, Note_on_c, 0, 55, 95
2, 624480, Note_on_c, 0, 50, 95
2, 624480, Note_on_c, 0, 43, 95
2, 624620, Note_off_c, 0, 43, 95
2, 624960, Note_off_c, 0, 55, 95
2, 624960, Note_off_c, 0, 50, 95
2, 625920, Note_on_c, 0, 60, 95
2, 625920, Note_on_c, 0, 55, 95
2, 625920, Note_on_c, 0, 48, 95
2, 625920, Note_on_c, 0, 43, 95
2, 629760, Note_off_c, 0, 60, 95
2, 629760, Note_off_c, 0, 55, 95
2, 629760, Note_off_c, 0, 48, 95
2, 629760, Note_off_c, 0, 43, 95
2, 629760, Note_on_c, 0, 52, 95
2, 629760, Note_on_c, 0, 47, 95
2, 629760, Note_on_c, 0, 40, 95
2, 629900, Note_off_c, 0, 40, 95
2, 630240, Note_off_c, 0, 52, 95
2, 630240, Note_off_c, 0, 47, 95
2, 630240, Note_on_c, 0, 52, 95
2, 630240, Note_on_c, 0, 47, 95
2, 630240, Note_on_c, 0, 40, 95
2, 630380, Note_off_c, 0, 40, 95
2, 630720, Note_off_c, 0, 52, 95
2, 630720, Note_off_c, 0, 47, 95
2, 630720, Note_on_c, 0, 52, 95
2, 630720, Note_on_c, 0, 47, 95
2, 630720, Note_on_c, 0, 40, 95
2, 630860, Note_off_c, 0, 40, 95
2, 631200, Note_off_c, 0, 52, 95
2, 631200, Note_off_c, 0, 47, 95
2, 631200, Note_on_c, 0, 52, 95
2, 631200, Note_on_c, 0, 47, 95
2, 631200, Note_on_c, 0, 40, 95
2, 631340, Note_off_c, 0, 40, 95
2, 631680, Note_off_c, 0, 52, 95
2, 631680, Note_off_c, 0, 47, 95
2, 631680, Note_on_c, 0, 52, 95
2, 631680, Note_on_c, 0, 47, 95
2, 631680, Note_on_c, 0, 40, 95
2, 631820, Note_off_c, 0, 40, 95
2, 632160, Note_off_c, 0, 52, 95
2, 632160, Note_off_c, 0, 47, 95
2, 632160, Note_on_c, 0, 52, 95
2, 632160, Note_on_c, 0, 47, 95
2, 632160, Note_on_c, 0, 40, 95
2, 632300, Note_off_c, 0, 40, 95
2, 632640, Note_off_c, 0, 52, 95
2, 632640, Note_off_c, 0, 47, 95
2, 632640, Note_on_c, 0, 52, 95
2, 632640, Note_on_c, 0, 47, 95
2, 632640, Note_on_c, 0, 40, 95
2, 632780, Note_off_c, 0, 40, 95
2, 633120, Note_off_c, 0, 52, 95
2, 633120, Note_off_c, 0, 47, 95
2, 633120, Note_on_c, 0, 52, 95
2, 633120, Note_on_c, 0, 47, 95
2, 633120, Note_on_c, 0, 40, 95
2, 633260, Note_off_c, 0, 40, 95
2, 633600, Note_off_c, 0, 52, 95
2, 633600, Note_off_c, 0, 47, 95
2, 633600, Note_on_c, 0, 55, 95
2, 633600, Note_on_c, 0, 50, 95
2, 633600, Note_on_c, 0, 43, 95
2, 633740, Note_off_c, 0, 43, 95
2, 634080, Note_off_c, 0, 55, 95
2, 634080, Note_off_c, 0, 50, 95
2, 634080, Note_on_c, 0, 55, 95
2, 634080, Note_on_c, 0, 50, 95
2, 634080, Note_on_c, 0, 43, 95
2, 634220, Note_off_c, 0, 43, 95
2, 634560, Note_off_c, 0, 55, 95
2, 634560, Note_off_c, 0, 50, 95
2, 634560, Note_on_c, 0, 55, 95
2, 634560, Note_on_c, 0, 50, 95
2, 634560, Note_on_c, 0, 43, 95
2, 634700, Note_off_c, 0, 43, 95
2, 635040, Note_off_c, 0, 55, 95
2, 635040, Note_off_c, 0, 50, 95
2, 635040, Note_on_c, 0, 55, 95
2, 635040, Note_on_c, 0, 50, 95
2, 635040, Note_on_c, 0, 43, 95
2, 635180, Note_off_c, 0, 43, 95
2, 635520, Note_off_c, 0, 55, 95
2, 635520, Note_off_c, 0, 50, 95
2, 635520, Note_on_c, 0, 55, 95
2, 635520, Note_on_c, 0, 50, 95
2, 635520, Note_on_c, 0, 43, 95
2, 635660, Note_off_c, 0, 43, 95
2, 636000, Note_off_c, 0, 55, 95
2, 636000, Note_off_c, 0, 50, 95
2, 636000, Note_on_c, 0, 55, 95
2, 636000, Note_on_c, 0, 50, 95
2, 636000, Note_on_c, 0, 43, 95
2, 636140, Note_off_c, 0, 43, 95
2, 636480, Note_off_c, 0, 55, 95
2, 636480, Note_off_c, 0, 50, 95
2, 636480, Note_on_c, 0, 55, 95
2, 636480, Note_on_c, 0, 50, 95
2, 636480, Note_on_c, 0, 43, 95
2, 636620, Note_off_c, 0, 43, 95
2, 636960, Note_off_c, 0, 55, 95
2, 636960, Note_off_c, 0, 50, 95
2, 636960, Note_on_c, 0, 55, 95
2, 636960, Note_on_c, 0, 50, 95
2, 636960, Note_on_c, 0, 43, 95
2, 637100, Note_off_c, 0, 43, 95
2, 637440, Note_off_c, 0, 55, 95
2, 637440, Note_off_c, 0, 50, 95
2, 637920, Note_on_c, 0, 67, 95
2, 637920, Note_on_c, 0, 64, 95
2, 637920, Note_on_c, 0, 60, 95
2, 638400, Note_off_c, 0, 67, 95
2, 638400, Note_off_c, 0, 64, 95
2, 638400, Note_off_c, 0, 60, 95
2, 638400, Note_on_c, 0, 65, 95
2, 638400, Note_on_c, 0, 60, 95
2, 638880, Note_off_c, 0, 65, 95
2, 638880, Note_off_c, 0, 60, 95
2, 638880, Note_on_c, 0, 64, 95
2, 638880, Note_on_c, 0, 60, 95
2, 639360, Note_off_c, 0, 64, 95
2, 639360, Note_off_c, 0, 60, 95
2, 639360, Note_on_c, 0, 67, 95
2, 639360, Note_on_c, 0, 65, 95
2, 639360, Note_on_c, 0, 60, 95
2, 639840, Note_off_c, 0, 67, 95
2, 639840, Note_off_c, 0, 65, 95
2, 639840, Note_off_c, 0, 60, 95
2, 640800, Note_on_c, 0, 67, 95
2, 640800, Note_on_c, 0, 64, 95
2, 640800, Note_on_c, 0, 60, 95
2, 641280, Note_off_c, 0, 67, 95
2, 641280, Note_off_c, 0, 64, 95
2, 641280, Note_off_c, 0, 60, 95
2, 641760, Note_on_c, 0, 67, 95
2, 641760, Note_on_c, 0, 64, 95
2, 641760, Note_on_c, 0, 60, 95
2, 642240, Note_off_c, 0, 67, 95
2, 642240, Note_off_c, 0, 64, 95
2, 642240, Note_off_c, 0, 60, 95
2, 642720, Note_on_c, 0, 67, 95
2, 642720, Note_on_c, 0, 64, 95
2, 642720, Note_on_c, 0, 60, 95
2, 643200, Note_off_c, 0, 67, 95
2, 643200, Note_off_c, 0, 64, 95
2, 643200, Note_off_c, 0, 60, 95
2, 643680, Note_on_c, 1, 67, 95
2, 643680, Note_on_c, 1, 64, 95
2, 643680, Note_on_c, 1, 60, 95
2, 643800, Pitch_bend_c, 1, 8192
2, 643800, Pitch_bend_c, 1, 8192
2, 643800, Pitch_bend_c, 1, 8192
2, 643920, Pitch_bend_c, 1, 8192
2, 643920, Pitch_bend_c, 1, 8192
2, 643920, Pitch_bend_c, 1, 8192
2, 644040, Pitch_bend_c, 1, 8192
2, 644040, Pitch_bend_c, 1, 8192
2, 644040, Pitch_bend_c, 1, 8192
2, 644160, Pitch_bend_c, 1, 8192
2, 644160, Pitch_bend_c, 1, 8192
2, 644160, Pitch_bend_c, 1, 8192
2, 644280, Pitch_bend_c, 1, 8192
2, 644280, Pitch_bend_c, 1, 8192
2, 644280, Pitch_bend_c, 1, 8192
2, 644400, Pitch_bend_c, 1, 8192
2, 644400, Pitch_bend_c, 1, 8192
2, 644400, Pitch_bend_c, 1, 8192
2, 644520, Pitch_bend_c, 1, 8192
2, 644520, Pitch_bend_c, 1, 8192
2, 644520, Pitch_bend_c, 1, 8192
2, 644640, Pitch_bend_c, 1, 8192
2, 644640, Pitch_bend_c, 1, 8192
2, 644640, Pitch_bend_c, 1, 8192
2, 644640, Pitch_bend_c, 1, 8192
2, 644640, Pitch_bend_c, 1, 8192
2, 644640, Pitch_bend_c, 1, 8192
2, 645120, Note_off_c, 1, 67, 95
2, 645120, Note_off_c, 1, 64, 95
2, 645120, Note_off_c, 1, 60, 95
2, 645120, Note_on_c, 0, 55, 95
2, 645120, Note_on_c, 0, 48, 95
2, 647040, Note_off_c, 0, 55, 95
2, 647040, Note_off_c, 0, 48, 95
2, 647040, Note_on_c, 0, 47, 95
2, 647040, Note_on_c, 0, 40, 95
2, 648960, Note_off_c, 0, 47, 95
2, 648960, Note_off_c, 0, 40, 95
2, 648960, Note_on_c, 0, 52, 95
2, 648960, Note_on_c, 0, 45, 95
2, 652800, Note_off_c, 0, 52, 95
2, 652800, Note_off_c, 0, 45, 95
2, 652800, Note_on_c, 0, 48, 95
2, 652800, Note_on_c, 0, 41, 95
2, 655680, Note_off_c, 0, 48, 95
2, 655680, Note_off_c, 0, 41, 95
2, 655680, Note_on_c, 0, 60, 95
2, 655680, Note_on_c, 0, 53, 95
2, 656160, Note_off_c, 0, 60, 95
2, 656160, Note_off_c, 0, 53, 95
2, 656160, Note_on_c, 0, 59, 95
2, 656160, Note_on_c, 0, 52, 95
2, 656640, Note_off_c, 0, 59, 95
2, 656640, Note_off_c, 0, 52, 95
2, 656640, Note_on_c, 0, 57, 95
2, 656640, Note_on_c, 0, 50, 95
2, 658080, Note_off_c, 0, 57, 95
2, 658080, Note_off_c, 0, 50, 95
2, 658080, Note_on_c, 0, 65, 95
2, 659040, Note_off_c, 0, 65, 95
2, 659040, Note_on_c, 0, 64, 95
2, 659160, Note_off_c, 0, 64, 95
2, 659160, Note_on_c, 0, 65, 70
2, 659280, Note_off_c, 0, 65, 70
2, 659280, Note_on_c, 0, 64, 70
2, 659400, Note_off_c, 0, 64, 70
2, 659400, Note_on_c, 0, 62, 95
2, 659520, Note_off_c, 0, 62, 95
2, 659520, Note_on_c, 0, 64, 70
2, 660000, Note_off_c, 0, 64, 70
2, 660000, Note_on_c, 0, 62, 70
2, 660480, Note_off_c, 0, 62, 70
2, 660480, Note_on_c, 0, 50, 95
2, 660480, Note_on_c, 0, 43, 95
2, 660960, Note_off_c, 0, 50, 95
2, 660960, Note_off_c, 0, 43, 95
2, 660960, Note_on_c, 0, 50, 95
2, 660960, Note_on_c, 0, 43, 95
2, 661440, Note_off_c, 0, 50, 95
2, 661440, Note_off_c, 0, 43, 95
2, 661440, Note_on_c, 0, 62, 95
2, 661440, Note_on_c, 0, 55, 95
2, 664320, Note_off_c, 0, 62, 95
2, 664320, Note_off_c, 0, 55, 95
2, 664320, Note_on_c, 0, 48, 95
2, 664320, Note_on_c, 0, 41, 95
2, 664800, Note_off_c, 0, 48, 95
2, 664800, Note_off_c, 0, 41, 95
2, 664800, Note_on_c, 0, 48, 95
2, 664800, Note_on_c, 0, 41, 95
2, 665280, Note_off_c, 0, 48, 95
2, 665280, Note_off_c, 0, 41, 95
2, 665280, Note_on_c, 0, 60, 95
2, 665280, Note_on_c, 0, 53, 95
2, 668160, Note_off_c, 0, 60, 95
2, 668160, Note_off_c, 0, 53, 95
2, 668640, Note_on_c, 0, 64, 70
2, 668640, Note_on_c, 0, 60, 95
2, 669120, Note_off_c, 0, 64, 70
2, 669120, Note_off_c, 0, 60, 95
2, 669120, Note_on_c, 0, 65, 95
2, 669120, Note_on_c, 0, 60, 95
2, 669600, Note_off_c, 0, 65, 95
2, 669600, Note_off_c, 0, 60, 95
2, 669600, Note_on_c, 0, 64, 95
2, 669600, Note_on_c, 0, 60, 95
2, 670080, Note_off_c, 0, 64, 95
2, 670080, Note_off_c, 0, 60, 95
2, 670080, Note_on_c, 0, 65, 95
2, 670080, Note_on_c, 0, 60, 95
2, 670560, Note_off_c, 0, 65, 95
2, 670560, Note_off_c, 0, 60, 95
2, 670560, Note_on_c, 0, 67, 95
2, 670560, Note_on_c, 0, 64, 95
2, 670560, Note_on_c, 0, 60, 95
2, 671040, Note_off_c, 0, 67, 95
2, 671040, Note_off_c, 0, 64, 95
2, 671040, Note_off_c, 0, 60, 95
2, 671520, Note_on_c, 0, 67, 95
2, 671520, Note_on_c, 0, 64, 95
2, 671520, Note_on_c, 0, 60, 95
2, 672000, Note_off_c, 0, 67, 95
2, 672000, Note_off_c, 0, 64, 95
2, 672000, Note_off_c, 0, 60, 95
2, 672480, Note_on_c, 0, 67, 95
2, 672480, Note_on_c, 0, 64, 95
2, 672480, Note_on_c, 0, 60, 95
2, 672960, Note_off_c, 0, 67, 95
2, 672960, Note_off_c, 0, 64, 95
2, 672960, Note_off_c, 0, 60, 95
2, 673440, Note_on_c, 0, 67, 95
2, 673440, Note_on_c, 0, 64, 95
2, 673440, Note_on_c, 0, 60, 95
2, 673920, Note_off_c, 0, 67, 95
2, 673920, Note_off_c, 0, 64, 95
2, 673920, Note_off_c, 0, 60, 95
2, 674400, Note_on_c, 1, 67, 95
2, 674400, Note_on_c, 1, 64, 95
2, 674400, Note_on_c, 1, 60, 95
2, 674520, Pitch_bend_c, 1, 8192
2, 674520, Pitch_bend_c, 1, 8192
2, 674520, Pitch_bend_c, 1, 8192
2, 674640, Pitch_bend_c, 1, 8192
2, 674640, Pitch_bend_c, 1, 8192
2, 674640, Pitch_bend_c, 1, 8192
2, 674760, Pitch_bend_c, 1, 8192
2, 674760, Pitch_bend_c, 1, 8192
2, 674760, Pitch_bend_c, 1, 8192
2, 674880, Pitch_bend_c, 1, 8192
2, 674880, Pitch_bend_c, 1, 8192
2, 674880, Pitch_bend_c, 1, 8192
2, 675000, Pitch_bend_c, 1, 8192
2, 675000, Pitch_bend_c, 1, 8192
2, 675000, Pitch_bend_c, 1, 8192
2, 675120, Pitch_bend_c, 1, 8192
2, 675120, Pitch_bend_c, 1, 8192
2, 675120, Pitch_bend_c, 1, 8192
2, 675240, Pitch_bend_c, 1, 8192
2, 675240, Pitch_bend_c, 1, 8192
2, 675240, Pitch_bend_c, 1, 8192
2, 675360, Pitch_bend_c, 1, 8192
2, 675360, Pitch_bend_c, 1, 8192
2, 675360, Pitch_bend_c, 1, 8192
2, 675360, Pitch_bend_c, 1, 8192
2, 675360, Pitch_bend_c, 1, 8192
2, 675360, Pitch_bend_c, 1, 8192
2, 675840, Note_off_c, 1, 67, 95
2, 675840, Note_off_c, 1, 64, 95
2, 675840, Note_off_c, 1, 60, 95
2, 675840, Note_on_c, 0, 55, 95
2, 675840, Note_on_c, 0, 48, 95
2, 677760, Note_off_c, 0, 55, 95
2, 677760, Note_off_c, 0, 48, 95
2, 677760, Note_on_c, 0, 47, 95
2, 677760, Note_on_c, 0, 40, 95
2, 679680, Note_off_c, 0, 47, 95
2, 679680, Note_off_c, 0, 40, 95
2, 679680, Note_on_c, 0, 52, 95
2, 679680, Note_on_c, 0, 45, 95
2, 683520, Note_off_c, 0, 52, 95
2, 683520, Note_off_c, 0, 45, 95
2, 683520, Note_on_c, 0, 48, 95
2, 683520, Note_on_c, 0, 41, 95
2, 686400, Note_off_c, 0, 48, 95
2, 686400, Note_off_c, 0, 41, 95
2, 686400, Note_on_c, 0, 60, 95
2, 686400, Note_on_c, 0, 53, 95
2, 686880, Note_off_c, 0, 60, 95
2, 686880, Note_off_c, 0, 53, 95
2, 686880, Note_on_c, 0, 59, 95
2, 686880, Note_on_c, 0, 52, 95
2, 687360, Note_off_c, 0, 59, 95
2, 687360, Note_off_c, 0, 52, 95
2, 687360, Note_on_c, 0, 57, 95
2, 687360, Note_on_c, 0, 50, 95
2, 688800, Note_off_c, 0, 57, 95
2, 688800, Note_off_c, 0, 50, 95
2, 688800, Note_on_c, 0, 65, 95
2, 689760, Note_off_c, 0, 65, 95
2, 689760, Note_on_c, 0, 64, 95
2, 689880, Note_off_c, 0, 64, 95
2, 689880, Note_on_c, 0, 65, 70
2, 690000, Note_off_c, 0, 65, 70
2, 690000, Note_on_c, 0, 64, 70
2, 690120, Note_off_c, 0, 64, 70
2, 690120, Note_on_c, 0, 62, 95
2, 690240, Note_off_c, 0, 62, 95
2, 690240, Note_on_c, 0, 64, 70
2, 690720, Note_off_c, 0, 64, 70
2, 690720, Note_on_c, 0, 62, 70
2, 691200, Note_off_c, 0, 62, 70
2, 691200, Note_on_c, 0, 50, 95
2, 691200, Note_on_c, 0, 43, 95
2, 691680, Note_off_c, 0, 50, 95
2, 691680, Note_off_c, 0, 43, 95
2, 691680, Note_on_c, 0, 50, 95
2, 691680, Note_on_c, 0, 43, 95
2, 692160, Note_off_c, 0, 50, 95
2, 692160, Note_off_c, 0, 43, 95
2, 692160, Note_on_c, 0, 62, 95
2, 692160, Note_on_c, 0, 55, 95
2, 695040, Note_off_c, 0, 62, 95
2, 695040, Note_off_c, 0, 55, 95
2, 695040, Note_on_c, 0, 48, 95
2, 695040, Note_on_c, 0, 41, 95
2, 695520, Note_off_c, 0, 48, 95
2, 695520, Note_off_c, 0, 41, 95
2, 698880, Note_on_c, 0, 60, 95
2, 698880, Note_on_c, 0, 55, 95
2, 698880, Note_on_c, 0, 48, 95
2, 698880, Note_on_c, 0, 43, 95
2, 702720, Note_off_c, 0, 60, 95
2, 702720, Note_off_c, 0, 55, 95
2, 702720, Note_off_c, 0, 48, 95
2, 702720, Note_off_c, 0, 43, 95
2, 702720, End_track
3, 0, Start_track
3, 0, Pitch_bend_c, 6, 8192
3, 0, Control_c, 6, 7, 71
3, 0, Control_c, 6, 10, 63
3, 0, Control_c, 6, 93, 0
3, 0, Control_c, 6, 91, 0
3, 0, Control_c, 6, 95, 0
3, 0, Control_c, 6, 92, 0
3, 0, Control_c, 6, 11, 127
3, 0, Program_c, 6, 25
3, 0, Control_c, 7, 7, 71
3, 0, Control_c, 7, 10, 63
3, 0, Control_c, 7, 93, 0
3, 0, Control_c, 7, 91, 0
3, 0, Control_c, 7, 95, 0
3, 0, Control_c, 7, 92, 0
3, 0, Control_c, 7, 11, 127
3, 0, Program_c, 7, 25
3, 0, Note_on_c, 6, 48, 95
3, 60, Note_on_c, 6, 52, 95
3, 120, Note_on_c, 6, 55, 95
3, 180, Note_on_c, 6, 60, 95
3, 240, Note_on_c, 6, 64, 95
3, 960, Note_off_c, 6, 64, 95
3, 960, Note_off_c, 6, 60, 95
3, 960, Note_off_c, 6, 55, 95
3, 960, Note_off_c, 6, 52, 95
3, 960, Note_off_c, 6, 48, 95
3, 960, Note_on_c, 6, 48, 95
3, 975, Note_on_c, 6, 52, 95
3, 990, Note_on_c, 6, 55, 95
3, 1440, Note_off_c, 6, 55, 95
3, 1440, Note_off_c, 6, 52, 95
3, 1440, Note_off_c, 6, 48, 95
3, 1440, Note_on_c, 6, 64, 95
3, 1455, Note_on_c, 6, 60, 95
3, 1470, Note_on_c, 6, 55, 95
3, 1920, Note_off_c, 6, 64, 95
3, 1920, Note_off_c, 6, 60, 95
3, 1920, Note_off_c, 6, 55, 95
3, 1920, Note_on_c, 6, 47, 95
3, 1980, Note_on_c, 6, 52, 95
3, 2040, Note_on_c, 6, 55, 95
3, 2100, Note_on_c, 6, 59, 95
3, 2880, Note_off_c, 6, 59, 95
3, 2880, Note_off_c, 6, 55, 95
3, 2880, Note_off_c, 6, 52, 95
3, 2880, Note_off_c, 6, 47, 95
3, 2880, Note_on_c, 6, 64, 95
3, 2895, Note_on_c, 6, 59, 95
3, 2910, Note_on_c, 6, 55, 95
3, 3360, Note_off_c, 6, 64, 95
3, 3360, Note_off_c, 6, 59, 95
3, 3360, Note_off_c, 6, 55, 95
3, 3360, Note_on_c, 6, 64, 95
3, 3375, Note_on_c, 6, 59, 95
3, 3390, Note_on_c, 6, 55, 95
3, 3840, Note_off_c, 6, 64, 95
3, 3840, Note_off_c, 6, 59, 95
3, 3840, Note_off_c, 6, 55, 95
3, 3840, Note_on_c, 6, 45, 95
3, 3870, Note_on_c, 6, 52, 95
3, 3900, Note_on_c, 6, 57, 95
3, 3930, Note_on_c, 6, 60, 95
3, 3960, Note_on_c, 6, 64, 95
3, 4800, Note_off_c, 6, 64, 95
3, 4800, Note_off_c, 6, 60, 95
3, 4800, Note_off_c, 6, 57, 95
3, 4800, Note_off_c, 6, 52, 95
3, 4800, Note_off_c, 6, 45, 95
3, 4800, Note_on_c, 6, 45, 95
3, 4815, Note_on_c, 6, 52, 95
3, 4830, Note_on_c, 6, 57, 95
3, 4845, Note_on_c, 6, 60, 95
3, 5280, Note_off_c, 6, 60, 95
3, 5280, Note_off_c, 6, 57, 95
3, 5280, Note_off_c, 6, 52, 95
3, 5280, Note_off_c, 6, 45, 95
3, 5280, Note_on_c, 6, 64, 95
3, 5295, Note_on_c, 6, 60, 95
3, 5310, Note_on_c, 6, 57, 95
3, 5760, Note_off_c, 6, 64, 95
3, 5760, Note_off_c, 6, 60, 95
3, 5760, Note_off_c, 6, 57, 95
3, 5760, Note_on_c, 6, 64, 95
3, 5780, Note_on_c, 6, 60, 95
3, 5800, Note_on_c, 6, 57, 95
3, 6400, Note_off_c, 6, 64, 95
3, 6400, Note_off_c, 6, 60, 95
3, 6400, Note_off_c, 6, 57, 95
3, 6400, Note_on_c, 6, 64, 95
3, 6420, Note_on_c, 6, 60, 95
3, 6440, Note_on_c, 6, 57, 95
3, 7040, Note_off_c, 6, 64, 95
3, 7040, Note_off_c, 6, 60, 95
3, 7040, Note_off_c, 6, 57, 95
3, 7040, Note_on_c, 6, 64, 95
3, 7060, Note_on_c, 6, 60, 95
3, 7080, Note_on_c, 6, 57, 95
3, 7680, Note_off_c, 6, 64, 95
3, 7680, Note_off_c, 6, 60, 95
3, 7680, Note_off_c, 6, 57, 95
3, 7680, Note_on_c, 6, 48, 95
3, 7710, Note_on_c, 6, 53, 95
3, 7740, Note_on_c, 6, 57, 95
3, 7770, Note_on_c, 6, 60, 95
3, 7800, Note_on_c, 6, 65, 95
3, 8640, Note_off_c, 6, 65, 95
3, 8640, Note_off_c, 6, 60, 95
3, 8640, Note_off_c, 6, 57, 95
3, 8640, Note_off_c, 6, 53, 95
3, 8640, Note_off_c, 6, 48, 95
3, 8640, Note_on_c, 6, 48, 95
3, 8655, Note_on_c, 6, 53, 95
3, 8670, Note_on_c, 6, 57, 95
3, 8685, Note_on_c, 6, 60, 95
3, 9120, Note_off_c, 6, 60, 95
3, 9120, Note_off_c, 6, 57, 95
3, 9120, Note_off_c, 6, 53, 95
3, 9120, Note_off_c, 6, 48, 95
3, 9120, Note_on_c, 6, 65, 95
3, 9150, Note_on_c, 6, 60, 95
3, 9180, Note_on_c, 6, 57, 95
3, 10080, Note_off_c, 6, 65, 95
3, 10080, Note_off_c, 6, 60, 95
3, 10080, Note_off_c, 6, 57, 95
3, 10080, Note_on_c, 6, 65, 95
3, 10095, Note_on_c, 6, 60, 95
3, 10110, Note_on_c, 6, 57, 95
3, 10560, Note_off_c, 6, 65, 95
3, 10560, Note_off_c, 6, 60, 95
3, 10560, Note_off_c, 6, 57, 95
3, 11040, Note_on_c, 6, 65, 95
3, 11055, Note_on_c, 6, 60, 95
3, 11070, Note_on_c, 6, 57, 95
3, 11520, Note_off_c, 6, 65, 95
3, 11520, Note_off_c, 6, 60, 95
3, 11520, Note_off_c, 6, 57, 95
3, 11520, Note_on_c, 6, 50, 95
3, 11550, Note_on_c, 6, 57, 95
3, 11580, Note_on_c, 6, 62, 95
3, 11610, Note_on_c, 6, 65, 95
3, 12480, Note_off_c, 6, 65, 95
3, 12480, Note_off_c, 6, 62, 95
3, 12480, Note_off_c, 6, 57, 95
3, 12480, Note_off_c, 6, 50, 95
3, 12480, Note_on_c, 6, 50, 95
3, 12495, Note_on_c, 6, 57, 95
3, 12510, Note_on_c, 6, 62, 95
3, 12525, Note_on_c, 6, 65, 95
3, 12960, Note_off_c, 6, 65, 95
3, 12960, Note_off_c, 6, 62, 95
3, 12960, Note_off_c, 6, 57, 95
3, 12960, Note_off_c, 6, 50, 95
3, 12960, Note_on_c, 6, 65, 95
3, 12990, Note_on_c, 6, 62, 95
3, 13020, Note_on_c, 6, 57, 95
3, 13920, Note_off_c, 6, 65, 95
3, 13920, Note_off_c, 6, 62, 95
3, 13920, Note_off_c, 6, 57, 95
3, 13920, Note_on_c, 6, 65, 95
3, 13935, Note_on_c, 6, 62, 95
3, 13950, Note_on_c, 6, 57, 95
3, 14400, Note_off_c, 6, 65, 95
3, 14400, Note_off_c, 6, 62, 95
3, 14400, Note_off_c, 6, 57, 95
3, 14880, Note_on_c, 6, 65, 95
3, 14895, Note_on_c, 6, 62, 95
3, 14910, Note_on_c, 6, 57, 95
3, 15360, Note_off_c, 6, 65, 95
3, 15360, Note_off_c, 6, 62, 95
3, 15360, Note_off_c, 6, 57, 95
3, 15360, Note_on_c, 6, 50, 95
3, 15390, Note_on_c, 6, 59, 95
3, 15420, Note_on_c, 6, 62, 95
3, 15450, Note_on_c, 6, 67, 95
3, 16320, Note_off_c, 6, 67, 95
3, 16320, Note_off_c, 6, 62, 95
3, 16320, Note_off_c, 6, 59, 95
3, 16320, Note_off_c, 6, 50, 95
3, 16320, Note_on_c, 6, 50, 95
3, 16335, Note_on_c, 6, 59, 95
3, 16350, Note_on_c, 6, 62, 95
3, 16365, Note_on_c, 6, 67, 95
3, 16800, Note_off_c, 6, 67, 95
3, 16800, Note_off_c, 6, 62, 95
3, 16800, Note_off_c, 6, 59, 95
3, 16800, Note_off_c, 6, 50, 95
3, 16800, Note_on_c, 6, 67, 95
3, 16830, Note_on_c, 6, 62, 95
3, 16860, Note_on_c, 6, 59, 95
3, 17760, Note_off_c, 6, 67, 95
3, 17760, Note_off_c, 6, 62, 95
3, 17760, Note_off_c, 6, 59, 95
3, 17760, Note_on_c, 6, 67, 95
3, 17775, Note_on_c, 6, 62, 95
3, 17790, Note_on_c, 6, 59, 95
3, 18240, Note_off_c, 6, 67, 95
3, 18240, Note_off_c, 6, 62, 95
3, 18240, Note_off_c, 6, 59, 95
3, 18720, Note_on_c, 6, 67, 95
3, 18735, Note_on_c, 6, 62, 95
3, 18750, Note_on_c, 6, 59, 95
3, 19200, Note_off_c, 6, 67, 95
3, 19200, Note_off_c, 6, 62, 95
3, 19200, Note_off_c, 6, 59, 95
3, 19200, Note_on_c, 6, 50, 95
3, 19230, Note_on_c, 6, 59, 95
3, 19260, Note_on_c, 6, 62, 95
3, 19290, Note_on_c, 6, 67, 95
3, 20160, Note_off_c, 6, 67, 95
3, 20160, Note_off_c, 6, 62, 95
3, 20160, Note_off_c, 6, 59, 95
3, 20160, Note_off_c, 6, 50, 95
3, 20160, Note_on_c, 6, 50, 95
3, 20175, Note_on_c, 6, 59, 95
3, 20190, Note_on_c, 6, 62, 95
3, 20205, Note_on_c, 6, 67, 95
3, 20640, Note_off_c, 6, 67, 95
3, 20640, Note_off_c, 6, 62, 95
3, 20640, Note_off_c, 6, 59, 95
3, 20640, Note_off_c, 6, 50, 95
3, 20640, Note_on_c, 6, 67, 95
3, 20670, Note_on_c, 6, 62, 95
3, 20700, Note_on_c, 6, 59, 95
3, 21600, Note_off_c, 6, 67, 95
3, 21600, Note_off_c, 6, 62, 95
3, 21600, Note_off_c, 6, 59, 95
3, 21600, Note_on_c, 6, 67, 95
3, 21615, Note_on_c, 6, 62, 95
3, 21630, Note_on_c, 6, 59, 95
3, 22080, Note_off_c, 6, 67, 95
3, 22080, Note_off_c, 6, 62, 95
3, 22080, Note_off_c, 6, 59, 95
3, 22560, Note_on_c, 6, 67, 95
3, 22575, Note_on_c, 6, 62, 95
3, 22590, Note_on_c, 6, 59, 95
3, 23040, Note_off_c, 6, 67, 95
3, 23040, Note_off_c, 6, 62, 95
3, 23040, Note_off_c, 6, 59, 95
3, 23040, Note_on_c, 6, 48, 95
3, 23070, Note_on_c, 6, 52, 95
3, 23100, Note_on_c, 6, 55, 95
3, 23130, Note_on_c, 6, 60, 95
3, 23160, Note_on_c, 6, 64, 95
3, 24000, Note_off_c, 6, 64, 95
3, 24000, Note_off_c, 6, 60, 95
3, 24000, Note_off_c, 6, 55, 95
3, 24000, Note_off_c, 6, 52, 95
3, 24000, Note_off_c, 6, 48, 95
3, 24000, Note_on_c, 6, 48, 95
3, 24015, Note_on_c, 6, 52, 95
3, 24030, Note_on_c, 6, 55, 95
3, 24045, Note_on_c, 6, 60, 95
3, 24480, Note_off_c, 6, 60, 95
3, 24480, Note_off_c, 6, 55, 95
3, 24480, Note_off_c, 6, 52, 95
3, 24480, Note_off_c, 6, 48, 95
3, 24480, Note_on_c, 6, 64, 95
3, 24510, Note_on_c, 6, 60, 95
3, 24540, Note_on_c, 6, 55, 95
3, 25440, Note_off_c, 6, 64, 95
3, 25440, Note_off_c, 6, 60, 95
3, 25440, Note_off_c, 6, 55, 95
3, 25440, Note_on_c, 6, 64, 95
3, 25455, Note_on_c, 6, 60, 95
3, 25470, Note_on_c, 6, 55, 95
3, 25920, Note_off_c, 6, 64, 95
3, 25920, Note_off_c, 6, 60, 95
3, 25920, Note_off_c, 6, 55, 95
3, 26400, Note_on_c, 6, 64, 95
3, 26415, Note_on_c, 6, 60, 95
3, 26430, Note_on_c, 6, 55, 95
3, 26880, Note_off_c, 6, 64, 95
3, 26880, Note_off_c, 6, 60, 95
3, 26880, Note_off_c, 6, 55, 95
3, 26880, Note_on_c, 6, 48, 95
3, 26910, Note_on_c, 6, 52, 95
3, 26940, Note_on_c, 6, 55, 95
3, 26970, Note_on_c, 6, 60, 95
3, 27000, Note_on_c, 6, 64, 95
3, 27840, Note_off_c, 6, 64, 95
3, 27840, Note_off_c, 6, 60, 95
3, 27840, Note_off_c, 6, 55, 95
3, 27840, Note_off_c, 6, 52, 95
3, 27840, Note_off_c, 6, 48, 95
3, 27840, Note_on_c, 6, 48, 95
3, 27855, Note_on_c, 6, 52, 95
3, 27870, Note_on_c, 6, 55, 95
3, 27885, Note_on_c, 6, 60, 95
3, 28320, Note_off_c, 6, 60, 95
3, 28320, Note_off_c, 6, 55, 95
3, 28320, Note_off_c, 6, 52, 95
3, 28320, Note_off_c, 6, 48, 95
3, 28320, Note_on_c, 6, 64, 95
3, 28350, Note_on_c, 6, 60, 95
3, 28380, Note_on_c, 6, 55, 95
3, 29280, Note_off_c, 6, 64, 95
3, 29280, Note_off_c, 6, 60, 95
3, 29280, Note_off_c, 6, 55, 95
3, 29280, Note_on_c, 6, 64, 95
3, 29295, Note_on_c, 6, 60, 95
3, 29310, Note_on_c, 6, 55, 95
3, 29760, Note_off_c, 6, 64, 95
3, 29760, Note_off_c, 6, 60, 95
3, 29760, Note_off_c, 6, 55, 95
3, 30240, Note_on_c, 6, 64, 95
3, 30255, Note_on_c, 6, 60, 95
3, 30270, Note_on_c, 6, 55, 95
3, 30720, Note_off_c, 6, 64, 95
3, 30720, Note_off_c, 6, 60, 95
3, 30720, Note_off_c, 6, 55, 95
3, 30720, Note_on_c, 6, 48, 95
3, 30780, Note_on_c, 6, 52, 95
3, 30840, Note_on_c, 6, 55, 95
3, 30900, Note_on_c, 6, 60, 95
3, 30960, Note_on_c, 6, 64, 95
3, 31680, Note_off_c, 6, 64, 95
3, 31680, Note_off_c, 6, 60, 95
3, 31680, Note_off_c, 6, 55, 95
3, 31680, Note_off_c, 6, 52, 95
3, 31680, Note_off_c, 6, 48, 95
3, 31680, Note_on_c, 6, 48, 95
3, 31695, Note_on_c, 6, 52, 95
3, 31710, Note_on_c, 6, 55, 95
3, 32160, Note_off_c, 6, 55, 95
3, 32160, Note_off_c, 6, 52, 95
3, 32160, Note_off_c, 6, 48, 95
3, 32160, Note_on_c, 6, 64, 95
3, 32175, Note_on_c, 6, 60, 95
3, 32190, Note_on_c, 6, 55, 95
3, 32640, Note_off_c, 6, 64, 95
3, 32640, Note_off_c, 6, 60, 95
3, 32640, Note_off_c, 6, 55, 95
3, 32640, Note_on_c, 6, 47, 95
3, 32700, Note_on_c, 6, 52, 95
3, 32760, Note_on_c, 6, 55, 95
3, 32820, Note_on_c, 6, 59, 95
3, 33600, Note_off_c, 6, 59, 95
3, 33600, Note_off_c, 6, 55, 95
3, 33600, Note_off_c, 6, 52, 95
3, 33600, Note_off_c, 6, 47, 95
3, 33600, Note_on_c, 6, 64, 95
3, 33615, Note_on_c, 6, 59, 95
3, 33630, Note_on_c, 6, 55, 95
3, 34080, Note_off_c, 6, 64, 95
3, 34080, Note_off_c, 6, 59, 95
3, 34080, Note_off_c, 6, 55, 95
3, 34080, Note_on_c, 6, 64, 95
3, 34095, Note_on_c, 6, 59, 95
3, 34110, Note_on_c, 6, 55, 95
3, 34560, Note_off_c, 6, 64, 95
3, 34560, Note_off_c, 6, 59, 95
3, 34560, Note_off_c, 6, 55, 95
3, 34560, Note_on_c, 6, 45, 95
3, 34590, Note_on_c, 6, 52, 95
3, 34620, Note_on_c, 6, 57, 95
3, 34650, Note_on_c, 6, 60, 95
3, 34680, Note_on_c, 6, 64, 95
3, 35520, Note_off_c, 6, 64, 95
3, 35520, Note_off_c, 6, 60, 95
3, 35520, Note_off_c, 6, 57, 95
3, 35520, Note_off_c, 6, 52, 95
3, 35520, Note_off_c, 6, 45, 95
3, 35520, Note_on_c, 6, 45, 95
3, 35535, Note_on_c, 6, 52, 95
3, 35550, Note_on_c, 6, 57, 95
3, 35565, Note_on_c, 6, 60, 95
3, 36000, Note_off_c, 6, 60, 95
3, 36000, Note_off_c, 6, 57, 95
3, 36000, Note_off_c, 6, 52, 95
3, 36000, Note_off_c, 6, 45, 95
3, 36000, Note_on_c, 6, 64, 95
3, 36015, Note_on_c, 6, 60, 95
3, 36030, Note_on_c, 6, 57, 95
3, 36480, Note_off_c, 6, 64, 95
3, 36480, Note_off_c, 6, 60, 95
3, 36480, Note_off_c, 6, 57, 95
3, 36480, Note_on_c, 6, 64, 95
3, 36500, Note_on_c, 6, 60, 95
3, 36520, Note_on_c, 6, 57, 95
3, 37120, Note_off_c, 6, 64, 95
3, 37120, Note_off_c, 6, 60, 95
3, 37120, Note_off_c, 6, 57, 95
3, 37120, Note_on_c, 6, 64, 95
3, 37140, Note_on_c, 6, 60, 95
3, 37160, Note_on_c, 6, 57, 95
3, 37760, Note_off_c, 6, 64, 95
3, 37760, Note_off_c, 6, 60, 95
3, 37760, Note_off_c, 6, 57, 95
3, 37760, Note_on_c, 6, 64, 95
3, 37780, Note_on_c, 6, 60, 95
3, 37800, Note_on_c, 6, 57, 95
3, 38400, Note_off_c, 6, 64, 95
3, 38400, Note_off_c, 6, 60, 95
3, 38400, Note_off_c, 6, 57, 95
3, 38400, Note_on_c, 6, 48, 95
3, 38430, Note_on_c, 6, 53, 95
3, 38460, Note_on_c, 6, 57, 95
3, 38490, Note_on_c, 6, 60, 95
3, 38520, Note_on_c, 6, 65, 95
3, 39360, Note_off_c, 6, 65, 95
3, 39360, Note_off_c, 6, 60, 95
3, 39360, Note_off_c, 6, 57, 95
3, 39360, Note_off_c, 6, 53, 95
3, 39360, Note_off_c, 6, 48, 95
3, 39360, Note_on_c, 6, 48, 95
3, 39375, Note_on_c, 6, 53, 95
3, 39390, Note_on_c, 6, 57, 95
3, 39405, Note_on_c, 6, 60, 95
3, 39840, Note_off_c, 6, 60, 95
3, 39840, Note_off_c, 6, 57, 95
3, 39840, Note_off_c, 6, 53, 95
3, 39840, Note_off_c, 6, 48, 95
3, 39840, Note_on_c, 6, 65, 95
3, 39870, Note_on_c, 6, 60, 95
3, 39900, Note_on_c, 6, 57, 95
3, 40800, Note_off_c, 6, 65, 95
3, 40800, Note_off_c, 6, 60, 95
3, 40800, Note_off_c, 6, 57, 95
3, 40800, Note_on_c, 6, 65, 95
3, 40815, Note_on_c, 6, 60, 95
3, 40830, Note_on_c, 6, 57, 95
3, 41280, Note_off_c, 6, 65, 95
3, 41280, Note_off_c, 6, 60, 95
3, 41280, Note_off_c, 6, 57, 95
3, 41760, Note_on_c, 6, 65, 95
3, 41775, Note_on_c, 6, 60, 95
3, 41790, Note_on_c, 6, 57, 95
3, 42240, Note_off_c, 6, 65, 95
3, 42240, Note_off_c, 6, 60, 95
3, 42240, Note_off_c, 6, 57, 95
3, 42240, Note_on_c, 6, 50, 95
3, 42270, Note_on_c, 6, 57, 95
3, 42300, Note_on_c, 6, 62, 95
3, 42330, Note_on_c, 6, 65, 95
3, 43200, Note_off_c, 6, 65, 95
3, 43200, Note_off_c, 6, 62, 95
3, 43200, Note_off_c, 6, 57, 95
3, 43200, Note_off_c, 6, 50, 95
3, 43200, Note_on_c, 6, 50, 95
3, 43215, Note_on_c, 6, 57, 95
3, 43230, Note_on_c, 6, 62, 95
3, 43245, Note_on_c, 6, 65, 95
3, 43680, Note_off_c, 6, 65, 95
3, 43680, Note_off_c, 6, 62, 95
3, 43680, Note_off_c, 6, 57, 95
3, 43680, Note_off_c, 6, 50, 95
3, 43680, Note_on_c, 6, 65, 95
3, 43710, Note_on_c, 6, 62, 95
3, 43740, Note_on_c, 6, 57, 95
3, 44640, Note_off_c, 6, 65, 95
3, 44640, Note_off_c, 6, 62, 95
3, 44640, Note_off_c, 6, 57, 95
3, 44640, Note_on_c, 6, 65, 95
3, 44655, Note_on_c, 6, 62, 95
3, 44670, Note_on_c, 6, 57, 95
3, 45120, Note_off_c, 6, 65, 95
3, 45120, Note_off_c, 6, 62, 95
3, 45120, Note_off_c, 6, 57, 95
3, 45600, Note_on_c, 6, 65, 95
3, 45615, Note_on_c, 6, 62, 95
3, 45630, Note_on_c, 6, 57, 95
3, 46080, Note_off_c, 6, 65, 95
3, 46080, Note_off_c, 6, 62, 95
3, 46080, Note_off_c, 6, 57, 95
3, 46080, Note_on_c, 6, 50, 95
3, 46110, Note_on_c, 6, 59, 95
3, 46140, Note_on_c, 6, 62, 95
3, 46170, Note_on_c, 6, 67, 95
3, 47040, Note_off_c, 6, 67, 95
3, 47040, Note_off_c, 6, 62, 95
3, 47040, Note_off_c, 6, 59, 95
3, 47040, Note_off_c, 6, 50, 95
3, 47040, Note_on_c, 6, 50, 95
3, 47055, Note_on_c, 6, 59, 95
3, 47070, Note_on_c, 6, 62, 95
3, 47085, Note_on_c, 6, 67, 95
3, 47520, Note_off_c, 6, 67, 95
3, 47520, Note_off_c, 6, 62, 95
3, 47520, Note_off_c, 6, 59, 95
3, 47520, Note_off_c, 6, 50, 95
3, 47520, Note_on_c, 6, 67, 95
3, 47550, Note_on_c, 6, 62, 95
3, 47580, Note_on_c, 6, 59, 95
3, 48480, Note_off_c, 6, 67, 95
3, 48480, Note_off_c, 6, 62, 95
3, 48480, Note_off_c, 6, 59, 95
3, 48480, Note_on_c, 6, 67, 95
3, 48495, Note_on_c, 6, 62, 95
3, 48510, Note_on_c, 6, 59, 95
3, 48960, Note_off_c, 6, 67, 95
3, 48960, Note_off_c, 6, 62, 95
3, 48960, Note_off_c, 6, 59, 95
3, 49440, Note_on_c, 6, 67, 95
3, 49455, Note_on_c, 6, 62, 95
3, 49470, Note_on_c, 6, 59, 95
3, 49920, Note_off_c, 6, 67, 95
3, 49920, Note_off_c, 6, 62, 95
3, 49920, Note_off_c, 6, 59, 95
3, 49920, Note_on_c, 6, 50, 95
3, 49950, Note_on_c, 6, 59, 95
3, 49980, Note_on_c, 6, 62, 95
3, 50010, Note_on_c, 6, 67, 95
3, 50880, Note_off_c, 6, 67, 95
3, 50880, Note_off_c, 6, 62, 95
3, 50880, Note_off_c, 6, 59, 95
3, 50880, Note_off_c, 6, 50, 95
3, 50880, Note_on_c, 6, 50, 95
3, 50895, Note_on_c, 6, 59, 95
3, 50910, Note_on_c, 6, 62, 95
3, 50925, Note_on_c, 6, 67, 95
3, 51360, Note_off_c, 6, 67, 95
3, 51360, Note_off_c, 6, 62, 95
3, 51360, Note_off_c, 6, 59, 95
3, 51360, Note_off_c, 6, 50, 95
3, 51360, Note_on_c, 6, 67, 95
3, 51390, Note_on_c, 6, 62, 95
3, 51420, Note_on_c, 6, 59, 95
3, 52320, Note_off_c, 6, 67, 95
3, 52320, Note_off_c, 6, 62, 95
3, 52320, Note_off_c, 6, 59, 95
3, 52320, Note_on_c, 6, 67, 95
3, 52335, Note_on_c, 6, 62, 95
3, 52350, Note_on_c, 6, 59, 95
3, 52800, Note_off_c, 6, 67, 95
3, 52800, Note_off_c, 6, 62, 95
3, 52800, Note_off_c, 6, 59, 95
3, 53280, Note_on_c, 6, 67, 95
3, 53295, Note_on_c, 6, 62, 95
3, 53310, Note_on_c, 6, 59, 95
3, 53760, Note_off_c, 6, 67, 95
3, 53760, Note_off_c, 6, 62, 95
3, 53760, Note_off_c, 6, 59, 95
3, 53760, Note_on_c, 6, 48, 95
3, 53790, Note_on_c, 6, 52, 95
3, 53820, Note_on_c, 6, 55, 95
3, 53850, Note_on_c, 6, 60, 95
3, 53880, Note_on_c, 6, 64, 95
3, 54720, Note_off_c, 6, 64, 95
3, 54720, Note_off_c, 6, 60, 95
3, 54720, Note_off_c, 6, 55, 95
3, 54720, Note_off_c, 6, 52, 95
3, 54720, Note_off_c, 6, 48, 95
3, 54720, Note_on_c, 6, 48, 95
3, 54735, Note_on_c, 6, 52, 95
3, 54750, Note_on_c, 6, 55, 95
3, 54765, Note_on_c, 6, 60, 95
3, 55200, Note_off_c, 6, 60, 95
3, 55200, Note_off_c, 6, 55, 95
3, 55200, Note_off_c, 6, 52, 95
3, 55200, Note_off_c, 6, 48, 95
3, 55200, Note_on_c, 6, 64, 95
3, 55230, Note_on_c, 6, 60, 95
3, 55260, Note_on_c, 6, 55, 95
3, 56160, Note_off_c, 6, 64, 95
3, 56160, Note_off_c, 6, 60, 95
3, 56160, Note_off_c, 6, 55, 95
3, 56160, Note_on_c, 6, 64, 95
3, 56175, Note_on_c, 6, 60, 95
3, 56190, Note_on_c, 6, 55, 95
3, 56640, Note_off_c, 6, 64, 95
3, 56640, Note_off_c, 6, 60, 95
3, 56640, Note_off_c, 6, 55, 95
3, 57120, Note_on_c, 6, 64, 95
3, 57135, Note_on_c, 6, 60, 95
3, 57150, Note_on_c, 6, 55, 95
3, 57600, Note_off_c, 6, 64, 95
3, 57600, Note_off_c, 6, 60, 95
3, 57600, Note_off_c, 6, 55, 95
3, 57600, Note_on_c, 6, 48, 95
3, 57630, Note_on_c, 6, 52, 95
3, 57660, Note_on_c, 6, 55, 95
3, 57690, Note_on_c, 6, 60, 95
3, 57720, Note_on_c, 6, 64, 95
3, 58560, Note_off_c, 6, 64, 95
3, 58560, Note_off_c, 6, 60, 95
3, 58560, Note_off_c, 6, 55, 95
3, 58560, Note_off_c, 6, 52, 95
3, 58560, Note_off_c, 6, 48, 95
3, 58560, Note_on_c, 6, 48, 95
3, 58575, Note_on_c, 6, 52, 95
3, 58590, Note_on_c, 6, 55, 95
3, 58605, Note_on_c, 6, 60, 95
3, 59040, Note_off_c, 6, 60, 95
3, 59040, Note_off_c, 6, 55, 95
3, 59040, Note_off_c, 6, 52, 95
3, 59040, Note_off_c, 6, 48, 95
3, 59040, Note_on_c, 6, 64, 95
3, 59070, Note_on_c, 6, 60, 95
3, 59100, Note_on_c, 6, 55, 95
3, 60000, Note_off_c, 6, 64, 95
3, 60000, Note_off_c, 6, 60, 95
3, 60000, Note_off_c, 6, 55, 95
3, 60000, Note_on_c, 6, 64, 95
3, 60015, Note_on_c, 6, 60, 95
3, 60030, Note_on_c, 6, 55, 95
3, 60480, Note_off_c, 6, 64, 95
3, 60480, Note_off_c, 6, 60, 95
3, 60480, Note_off_c, 6, 55, 95
3, 60960, Note_on_c, 6, 64, 95
3, 60975, Note_on_c, 6, 60, 95
3, 60990, Note_on_c, 6, 55, 95
3, 61440, Note_off_c, 6, 64, 95
3, 61440, Note_off_c, 6, 60, 95
3, 61440, Note_off_c, 6, 55, 95
3, 61440, Note_on_c, 6, 48, 95
3, 61500, Note_on_c, 6, 52, 95
3, 61560, Note_on_c, 6, 55, 95
3, 61620, Note_on_c, 6, 60, 95
3, 61680, Note_on_c, 6, 64, 95
3, 62400, Note_off_c, 6, 64, 95
3, 62400, Note_off_c, 6, 60, 95
3, 62400, Note_off_c, 6, 55, 95
3, 62400, Note_off_c, 6, 52, 95
3, 62400, Note_off_c, 6, 48, 95
3, 62400, Note_on_c, 6, 48, 95
3, 62415, Note_on_c, 6, 52, 95
3, 62430, Note_on_c, 6, 55, 95
3, 62880, Note_off_c, 6, 55, 95
3, 62880, Note_off_c, 6, 52, 95
3, 62880, Note_off_c, 6, 48, 95
3, 62880, Note_on_c, 6, 64, 95
3, 62895, Note_on_c, 6, 60, 95
3, 62910, Note_on_c, 6, 55, 95
3, 63360, Note_off_c, 6, 64, 95
3, 63360, Note_off_c, 6, 60, 95
3, 63360, Note_off_c, 6, 55, 95
3, 63360, Note_on_c, 6, 47, 95
3, 63420, Note_on_c, 6, 52, 95
3, 63480, Note_on_c, 6, 55, 95
3, 63540, Note_on_c, 6, 59, 95
3, 64320, Note_off_c, 6, 59, 95
3, 64320, Note_off_c, 6, 55, 95
3, 64320, Note_off_c, 6, 52, 95
3, 64320, Note_off_c, 6, 47, 95
3, 64320, Note_on_c, 6, 64, 95
3, 64335, Note_on_c, 6, 59, 95
3, 64350, Note_on_c, 6, 55, 95
3, 64800, Note_off_c, 6, 64, 95
3, 64800, Note_off_c, 6, 59, 95
3, 64800, Note_off_c, 6, 55, 95
3, 64800, Note_on_c, 6, 64, 95
3, 64815, Note_on_c, 6, 59, 95
3, 64830, Note_on_c, 6, 55, 95
3, 65280, Note_off_c, 6, 64, 95
3, 65280, Note_off_c, 6, 59, 95
3, 65280, Note_off_c, 6, 55, 95
3, 65280, Note_on_c, 6, 45, 95
3, 65310, Note_on_c, 6, 52, 95
3, 65340, Note_on_c, 6, 57, 95
3, 65370, Note_on_c, 6, 60, 95
3, 65400, Note_on_c, 6, 64, 95
3, 66240, Note_off_c, 6, 64, 95
3, 66240, Note_off_c, 6, 60, 95
3, 66240, Note_off_c, 6, 57, 95
3, 66240, Note_off_c, 6, 52, 95
3, 66240, Note_off_c, 6, 45, 95
3, 66240, Note_on_c, 6, 45, 95
3, 66255, Note_on_c, 6, 52, 95
3, 66270, Note_on_c, 6, 57, 95
3, 66285, Note_on_c, 6, 60, 95
3, 66720, Note_off_c, 6, 60, 95
3, 66720, Note_off_c, 6, 57, 95
3, 66720, Note_off_c, 6, 52, 95
3, 66720, Note_off_c, 6, 45, 95
3, 66720, Note_on_c, 6, 64, 95
3, 66735, Note_on_c, 6, 60, 95
3, 66750, Note_on_c, 6, 57, 95
3, 67200, Note_off_c, 6, 64, 95
3, 67200, Note_off_c, 6, 60, 95
3, 67200, Note_off_c, 6, 57, 95
3, 67200, Note_on_c, 6, 64, 95
3, 67220, Note_on_c, 6, 60, 95
3, 67240, Note_on_c, 6, 57, 95
3, 67840, Note_off_c, 6, 64, 95
3, 67840, Note_off_c, 6, 60, 95
3, 67840, Note_off_c, 6, 57, 95
3, 67840, Note_on_c, 6, 64, 95
3, 67860, Note_on_c, 6, 60, 95
3, 67880, Note_on_c, 6, 57, 95
3, 68480, Note_off_c, 6, 64, 95
3, 68480, Note_off_c, 6, 60, 95
3, 68480, Note_off_c, 6, 57, 95
3, 68480, Note_on_c, 6, 64, 95
3, 68500, Note_on_c, 6, 60, 95
3, 68520, Note_on_c, 6, 57, 95
3, 69120, Note_off_c, 6, 64, 95
3, 69120, Note_off_c, 6, 60, 95
3, 69120, Note_off_c, 6, 57, 95
3, 69120, Note_on_c, 6, 48, 95
3, 69150, Note_on_c, 6, 53, 95
3, 69180, Note_on_c, 6, 57, 95
3, 69210, Note_on_c, 6, 60, 95
3, 69240, Note_on_c, 6, 65, 95
3, 70080, Note_off_c, 6, 65, 95
3, 70080, Note_off_c, 6, 60, 95
3, 70080, Note_off_c, 6, 57, 95
3, 70080, Note_off_c, 6, 53, 95
3, 70080, Note_off_c, 6, 48, 95
3, 70080, Note_on_c, 6, 48, 95
3, 70095, Note_on_c, 6, 53, 95
3, 70110, Note_on_c, 6, 57, 95
3, 70125, Note_on_c, 6, 60, 95
3, 70560, Note_off_c, 6, 60, 95
3, 70560, Note_off_c, 6, 57, 95
3, 70560, Note_off_c, 6, 53, 95
3, 70560, Note_off_c, 6, 48, 95
3, 70560, Note_on_c, 6, 65, 95
3, 70590, Note_on_c, 6, 60, 95
3, 70620, Note_on_c, 6, 57, 95
3, 71520, Note_off_c, 6, 65, 95
3, 71520, Note_off_c, 6, 60, 95
3, 71520, Note_off_c, 6, 57, 95
3, 71520, Note_on_c, 6, 65, 95
3, 71535, Note_on_c, 6, 60, 95
3, 71550, Note_on_c, 6, 57, 95
3, 72000, Note_off_c, 6, 65, 95
3, 72000, Note_off_c, 6, 60, 95
3, 72000, Note_off_c, 6, 57, 95
3, 72480, Note_on_c, 6, 65, 95
3, 72495, Note_on_c, 6, 60, 95
3, 72510, Note_on_c, 6, 57, 95
3, 72960, Note_off_c, 6, 65, 95
3, 72960, Note_off_c, 6, 60, 95
3, 72960, Note_off_c, 6, 57, 95
3, 72960, Note_on_c, 6, 50, 95
3, 72990, Note_on_c, 6, 57, 95
3, 73020, Note_on_c, 6, 62, 95
3, 73050, Note_on_c, 6, 65, 95
3, 73920, Note_off_c, 6, 65, 95
3, 73920, Note_off_c, 6, 62, 95
3, 73920, Note_off_c, 6, 57, 95
3, 73920, Note_off_c, 6, 50, 95
3, 73920, Note_on_c, 6, 50, 95
3, 73935, Note_on_c, 6, 57, 95
3, 73950, Note_on_c, 6, 62, 95
3, 73965, Note_on_c, 6, 65, 95
3, 74400, Note_off_c, 6, 65, 95
3, 74400, Note_off_c, 6, 62, 95
3, 74400, Note_off_c, 6, 57, 95
3, 74400, Note_off_c, 6, 50, 95
3, 74400, Note_on_c, 6, 65, 95
3, 74430, Note_on_c, 6, 62, 95
3, 74460, Note_on_c, 6, 57, 95
3, 75360, Note_off_c, 6, 65, 95
3, 75360, Note_off_c, 6, 62, 95
3, 75360, Note_off_c, 6, 57, 95
3, 75360, Note_on_c, 6, 65, 95
3, 75375, Note_on_c, 6, 62, 95
3, 75390, Note_on_c, 6, 57, 95
3, 75840, Note_off_c, 6, 65, 95
3, 75840, Note_off_c, 6, 62, 95
3, 75840, Note_off_c, 6, 57, 95
3, 76320, Note_on_c, 6, 65, 95
3, 76335, Note_on_c, 6, 62, 95
3, 76350, Note_on_c, 6, 57, 95
3, 76800, Note_off_c, 6, 65, 95
3, 76800, Note_off_c, 6, 62, 95
3, 76800, Note_off_c, 6, 57, 95
3, 76800, Note_on_c, 6, 50, 95
3, 76830, Note_on_c, 6, 59, 95
3, 76860, Note_on_c, 6, 62, 95
3, 76890, Note_on_c, 6, 67, 95
3, 77760, Note_off_c, 6, 67, 95
3, 77760, Note_off_c, 6, 62, 95
3, 77760, Note_off_c, 6, 59, 95
3, 77760, Note_off_c, 6, 50, 95
3, 77760, Note_on_c, 6, 50, 95
3, 77775, Note_on_c, 6, 59, 95
3, 77790, Note_on_c, 6, 62, 95
3, 77805, Note_on_c, 6, 67, 95
3, 78240, Note_off_c, 6, 67, 95
3, 78240, Note_off_c, 6, 62, 95
3, 78240, Note_off_c, 6, 59, 95
3, 78240, Note_off_c, 6, 50, 95
3, 78240, Note_on_c, 6, 67, 95
3, 78270, Note_on_c, 6, 62, 95
3, 78300, Note_on_c, 6, 59, 95
3, 79200, Note_off_c, 6, 67, 95
3, 79200, Note_off_c, 6, 62, 95
3, 79200, Note_off_c, 6, 59, 95
3, 79200, Note_on_c, 6, 67, 95
3, 79215, Note_on_c, 6, 62, 95
3, 79230, Note_on_c, 6, 59, 95
3, 79680, Note_off_c, 6, 67, 95
3, 79680, Note_off_c, 6, 62, 95
3, 79680, Note_off_c, 6, 59, 95
3, 80160, Note_on_c, 6, 67, 95
3, 80175, Note_on_c, 6, 62, 95
3, 80190, Note_on_c, 6, 59, 95
3, 80640, Note_off_c, 6, 67, 95
3, 80640, Note_off_c, 6, 62, 95
3, 80640, Note_off_c, 6, 59, 95
3, 80640, Note_on_c, 6, 50, 95
3, 80670, Note_on_c, 6, 59, 95
3, 80700, Note_on_c, 6, 62, 95
3, 80730, Note_on_c, 6, 67, 95
3, 81600, Note_off_c, 6, 67, 95
3, 81600, Note_off_c, 6, 62, 95
3, 81600, Note_off_c, 6, 59, 95
3, 81600, Note_off_c, 6, 50, 95
3, 81600, Note_on_c, 6, 50, 95
3, 81615, Note_on_c, 6, 59, 95
3, 81630, Note_on_c, 6, 62, 95
3, 81645, Note_on_c, 6, 67, 95
3, 82080, Note_off_c, 6, 67, 95
3, 82080, Note_off_c, 6, 62, 95
3, 82080, Note_off_c, 6, 59, 95
3, 82080, Note_off_c, 6, 50, 95
3, 82080, Note_on_c, 6, 67, 95
3, 82110, Note_on_c, 6, 62, 95
3, 82140, Note_on_c, 6, 59, 95
3, 83040, Note_off_c, 6, 67, 95
3, 83040, Note_off_c, 6, 62, 95
3, 83040, Note_off_c, 6, 59, 95
3, 83040, Note_on_c, 6, 67, 95
3, 83055, Note_on_c, 6, 62, 95
3, 83070, Note_on_c, 6, 59, 95
3, 83520, Note_off_c, 6, 67, 95
3, 83520, Note_off_c, 6, 62, 95
3, 83520, Note_off_c, 6, 59, 95
3, 84000, Note_on_c, 6, 67, 95
3, 84015, Note_on_c, 6, 62, 95
3, 84030, Note_on_c, 6, 59, 95
3, 84480, Note_off_c, 6, 67, 95
3, 84480, Note_off_c, 6, 62, 95
3, 84480, Note_off_c, 6, 59, 95
3, 84480, Note_on_c, 6, 48, 95
3, 84510, Note_on_c, 6, 52, 95
3, 84540, Note_on_c, 6, 55, 95
3, 84570, Note_on_c, 6, 60, 95
3, 84600, Note_on_c, 6, 64, 95
3, 85440, Note_off_c, 6, 64, 95
3, 85440, Note_off_c, 6, 60, 95
3, 85440, Note_off_c, 6, 55, 95
3, 85440, Note_off_c, 6, 52, 95
3, 85440, Note_off_c, 6, 48, 95
3, 85440, Note_on_c, 6, 48, 95
3, 85455, Note_on_c, 6, 52, 95
3, 85470, Note_on_c, 6, 55, 95
3, 85485, Note_on_c, 6, 60, 95
3, 85920, Note_off_c, 6, 60, 95
3, 85920, Note_off_c, 6, 55, 95
3, 85920, Note_off_c, 6, 52, 95
3, 85920, Note_off_c, 6, 48, 95
3, 85920, Note_on_c, 6, 64, 95
3, 85950, Note_on_c, 6, 60, 95
3, 85980, Note_on_c, 6, 55, 95
3, 86880, Note_off_c, 6, 64, 95
3, 86880, Note_off_c, 6, 60, 95
3, 86880, Note_off_c, 6, 55, 95
3, 86880, Note_on_c, 6, 64, 95
3, 86895, Note_on_c, 6, 60, 95
3, 86910, Note_on_c, 6, 55, 95
3, 87360, Note_off_c, 6, 64, 95
3, 87360, Note_off_c, 6, 60, 95
3, 87360, Note_off_c, 6, 55, 95
3, 87840, Note_on_c, 6, 64, 95
3, 87855, Note_on_c, 6, 60, 95
3, 87870, Note_on_c, 6, 55, 95
3, 88320, Note_off_c, 6, 64, 95
3, 88320, Note_off_c, 6, 60, 95
3, 88320, Note_off_c, 6, 55, 95
3, 88320, Note_on_c, 6, 48, 95
3, 88350, Note_on_c, 6, 52, 95
3, 88380, Note_on_c, 6, 55, 95
3, 88410, Note_on_c, 6, 60, 95
3, 88440, Note_on_c, 6, 64, 95
3, 89280, Note_off_c, 6, 64, 95
3, 89280, Note_off_c, 6, 60, 95
3, 89280, Note_off_c, 6, 55, 95
3, 89280, Note_off_c, 6, 52, 95
3, 89280, Note_off_c, 6, 48, 95
3, 89280, Note_on_c, 6, 48, 95
3, 89295, Note_on_c, 6, 52, 95
3, 89310, Note_on_c, 6, 55, 95
3, 89325, Note_on_c, 6, 60, 95
3, 89760, Note_off_c, 6, 60, 95
3, 89760, Note_off_c, 6, 55, 95
3, 89760, Note_off_c, 6, 52, 95
3, 89760, Note_off_c, 6, 48, 95
3, 89760, Note_on_c, 6, 64, 95
3, 89790, Note_on_c, 6, 60, 95
3, 89820, Note_on_c, 6, 55, 95
3, 90720, Note_off_c, 6, 64, 95
3, 90720, Note_off_c, 6, 60, 95
3, 90720, Note_off_c, 6, 55, 95
3, 90720, Note_on_c, 6, 64, 95
3, 90735, Note_on_c, 6, 60, 95
3, 90750, Note_on_c, 6, 55, 95
3, 91200, Note_off_c, 6, 64, 95
3, 91200, Note_off_c, 6, 60, 95
3, 91200, Note_off_c, 6, 55, 95
3, 91680, Note_on_c, 6, 64, 95
3, 91695, Note_on_c, 6, 60, 95
3, 91710, Note_on_c, 6, 55, 95
3, 92160, Note_off_c, 6, 64, 95
3, 92160, Note_off_c, 6, 60, 95
3, 92160, Note_off_c, 6, 55, 95
3, 92160, Note_on_c, 6, 48, 95
3, 92220, Note_on_c, 6, 52, 95
3, 92280, Note_on_c, 6, 55, 95
3, 92340, Note_on_c, 6, 60, 95
3, 92400, Note_on_c, 6, 64, 95
3, 93120, Note_off_c, 6, 64, 95
3, 93120, Note_off_c, 6, 60, 95
3, 93120, Note_off_c, 6, 55, 95
3, 93120, Note_off_c, 6, 52, 95
3, 93120, Note_off_c, 6, 48, 95
3, 93120, Note_on_c, 6, 48, 95
3, 93135, Note_on_c, 6, 52, 95
3, 93150, Note_on_c, 6, 55, 95
3, 93600, Note_off_c, 6, 55, 95
3, 93600, Note_off_c, 6, 52, 95
3, 93600, Note_off_c, 6, 48, 95
3, 93600, Note_on_c, 6, 64, 95
3, 93615, Note_on_c, 6, 60, 95
3, 93630, Note_on_c, 6, 55, 95
3, 94080, Note_off_c, 6, 64, 95
3, 94080, Note_off_c, 6, 60, 95
3, 94080, Note_off_c, 6, 55, 95
3, 94080, Note_on_c, 6, 47, 95
3, 94140, Note_on_c, 6, 52, 95
3, 94200, Note_on_c, 6, 55, 95
3, 94260, Note_on_c, 6, 59, 95
3, 95040, Note_off_c, 6, 59, 95
3, 95040, Note_off_c, 6, 55, 95
3, 95040, Note_off_c, 6, 52, 95
3, 95040, Note_off_c, 6, 47, 95
3, 95040, Note_on_c, 6, 64, 95
3, 95055, Note_on_c, 6, 59, 95
3, 95070, Note_on_c, 6, 55, 95
3, 95520, Note_off_c, 6, 64, 95
3, 95520, Note_off_c, 6, 59, 95
3, 95520, Note_off_c, 6, 55, 95
3, 95520, Note_on_c, 6, 64, 95
3, 95535, Note_on_c, 6, 59, 95
3, 95550, Note_on_c, 6, 55, 95
3, 96000, Note_off_c, 6, 64, 95
3, 96000, Note_off_c, 6, 59, 95
3, 96000, Note_off_c, 6, 55, 95
3, 96000, Note_on_c, 6, 45, 95
3, 96030, Note_on_c, 6, 52, 95
3, 96060, Note_on_c, 6, 57, 95
3, 96090, Note_on_c, 6, 60, 95
3, 96120, Note_on_c, 6, 64, 95
3, 96960, Note_off_c, 6, 64, 95
3, 96960, Note_off_c, 6, 60, 95
3, 96960, Note_off_c, 6, 57, 95
3, 96960, Note_off_c, 6, 52, 95
3, 96960, Note_off_c, 6, 45, 95
3, 96960, Note_on_c, 6, 45, 95
3, 96975, Note_on_c, 6, 52, 95
3, 96990, Note_on_c, 6, 57, 95
3, 97005, Note_on_c, 6, 60, 95
3, 97440, Note_off_c, 6, 60, 95
3, 97440, Note_off_c, 6, 57, 95
3, 97440, Note_off_c, 6, 52, 95
3, 97440, Note_off_c, 6, 45, 95
3, 97440, Note_on_c, 6, 64, 95
3, 97455, Note_on_c, 6, 60, 95
3, 97470, Note_on_c, 6, 57, 95
3, 97920, Note_off_c, 6, 64, 95
3, 97920, Note_off_c, 6, 60, 95
3, 97920, Note_off_c, 6, 57, 95
3, 97920, Note_on_c, 6, 64, 95
3, 97940, Note_on_c, 6, 60, 95
3, 97960, Note_on_c, 6, 57, 95
3, 98560, Note_off_c, 6, 64, 95
3, 98560, Note_off_c, 6, 60, 95
3, 98560, Note_off_c, 6, 57, 95
3, 98560, Note_on_c, 6, 64, 95
3, 98580, Note_on_c, 6, 60, 95
3, 98600, Note_on_c, 6, 57, 95
3, 99200, Note_off_c, 6, 64, 95
3, 99200, Note_off_c, 6, 60, 95
3, 99200, Note_off_c, 6, 57, 95
3, 99200, Note_on_c, 6, 64, 95
3, 99220, Note_on_c, 6, 60, 95
3, 99240, Note_on_c, 6, 57, 95
3, 99840, Note_off_c, 6, 64, 95
3, 99840, Note_off_c, 6, 60, 95
3, 99840, Note_off_c, 6, 57, 95
3, 99840, Note_on_c, 6, 48, 95
3, 99870, Note_on_c, 6, 53, 95
3, 99900, Note_on_c, 6, 57, 95
3, 99930, Note_on_c, 6, 60, 95
3, 99960, Note_on_c, 6, 65, 95
3, 100800, Note_off_c, 6, 65, 95
3, 100800, Note_off_c, 6, 60, 95
3, 100800, Note_off_c, 6, 57, 95
3, 100800, Note_off_c, 6, 53, 95
3, 100800, Note_off_c, 6, 48, 95
3, 100800, Note_on_c, 6, 48, 95
3, 100815, Note_on_c, 6, 53, 95
3, 100830, Note_on_c, 6, 57, 95
3, 100845, Note_on_c, 6, 60, 95
3, 101280, Note_off_c, 6, 60, 95
3, 101280, Note_off_c, 6, 57, 95
3, 101280, Note_off_c, 6, 53, 95
3, 101280, Note_off_c, 6, 48, 95
3, 101280, Note_on_c, 6, 65, 95
3, 101310, Note_on_c, 6, 60, 95
3, 101340, Note_on_c, 6, 57, 95
3, 102240, Note_off_c, 6, 65, 95
3, 102240, Note_off_c, 6, 60, 95
3, 102240, Note_off_c, 6, 57, 95
3, 102240, Note_on_c, 6, 65, 95
3, 102255, Note_on_c, 6, 60, 95
3, 102270, Note_on_c, 6, 57, 95
3, 102720, Note_off_c, 6, 65, 95
3, 102720, Note_off_c, 6, 60, 95
3, 102720, Note_off_c, 6, 57, 95
3, 103200, Note_on_c, 6, 65, 95
3, 103215, Note_on_c, 6, 60, 95
3, 103230, Note_on_c, 6, 57, 95
3, 103680, Note_off_c, 6, 65, 95
3, 103680, Note_off_c, 6, 60, 95
3, 103680, Note_off_c, 6, 57, 95
3, 103680, Note_on_c, 6, 50, 95
3, 103710, Note_on_c, 6, 57, 95
3, 103740, Note_on_c, 6, 62, 95
3, 103770, Note_on_c, 6, 65, 95
3, 104640, Note_off_c, 6, 65, 95
3, 104640, Note_off_c, 6, 62, 95
3, 104640, Note_off_c, 6, 57, 95
3, 104640, Note_off_c, 6, 50, 95
3, 104640, Note_on_c, 6, 50, 95
3, 104655, Note_on_c, 6, 57, 95
3, 104670, Note_on_c, 6, 62, 95
3, 104685, Note_on_c, 6, 65, 95
3, 105120, Note_off_c, 6, 65, 95
3, 105120, Note_off_c, 6, 62, 95
3, 105120, Note_off_c, 6, 57, 95
3, 105120, Note_off_c, 6, 50, 95
3, 105120, Note_on_c, 6, 65, 95
3, 105150, Note_on_c, 6, 62, 95
3, 105180, Note_on_c, 6, 57, 95
3, 106080, Note_off_c, 6, 65, 95
3, 106080, Note_off_c, 6, 62, 95
3, 106080, Note_off_c, 6, 57, 95
3, 106080, Note_on_c, 6, 65, 95
3, 106095, Note_on_c, 6, 62, 95
3, 106110, Note_on_c, 6, 57, 95
3, 106560, Note_off_c, 6, 65, 95
3, 106560, Note_off_c, 6, 62, 95
3, 106560, Note_off_c, 6, 57, 95
3, 107040, Note_on_c, 6, 65, 95
3, 107055, Note_on_c, 6, 62, 95
3, 107070, Note_on_c, 6, 57, 95
3, 107520, Note_off_c, 6, 65, 95
3, 107520, Note_off_c, 6, 62, 95
3, 107520, Note_off_c, 6, 57, 95
3, 107520, Note_on_c, 6, 50, 95
3, 107550, Note_on_c, 6, 59, 95
3, 107580, Note_on_c, 6, 62, 95
3, 107610, Note_on_c, 6, 67, 95
3, 108480, Note_off_c, 6, 67, 95
3, 108480, Note_off_c, 6, 62, 95
3, 108480, Note_off_c, 6, 59, 95
3, 108480, Note_off_c, 6, 50, 95
3, 108480, Note_on_c, 6, 50, 95
3, 108495, Note_on_c, 6, 59, 95
3, 108510, Note_on_c, 6, 62, 95
3, 108525, Note_on_c, 6, 67, 95
3, 108960, Note_off_c, 6, 67, 95
3, 108960, Note_off_c, 6, 62, 95
3, 108960, Note_off_c, 6, 59, 95
3, 108960, Note_off_c, 6, 50, 95
3, 108960, Note_on_c, 6, 67, 95
3, 108990, Note_on_c, 6, 62, 95
3, 109020, Note_on_c, 6, 59, 95
3, 109920, Note_off_c, 6, 67, 95
3, 109920, Note_off_c, 6, 62, 95
3, 109920, Note_off_c, 6, 59, 95
3, 109920, Note_on_c, 6, 67, 95
3, 109935, Note_on_c, 6, 62, 95
3, 109950, Note_on_c, 6, 59, 95
3, 110400, Note_off_c, 6, 67, 95
3, 110400, Note_off_c, 6, 62, 95
3, 110400, Note_off_c, 6, 59, 95
3, 110880, Note_on_c, 6, 67, 95
3, 110895, Note_on_c, 6, 62, 95
3, 110910, Note_on_c, 6, 59, 95
3, 111360, Note_off_c, 6, 67, 95
3, 111360, Note_off_c, 6, 62, 95
3, 111360, Note_off_c, 6, 59, 95
3, 111360, Note_on_c, 6, 50, 95
3, 111390, Note_on_c, 6, 59, 95
3, 111420, Note_on_c, 6, 62, 95
3, 111450, Note_on_c, 6, 67, 95
3, 112320, Note_off_c, 6, 67, 95
3, 112320, Note_off_c, 6, 62, 95
3, 112320, Note_off_c, 6, 59, 95
3, 112320, Note_off_c, 6, 50, 95
3, 112320, Note_on_c, 6, 50, 95
3, 112335, Note_on_c, 6, 59, 95
3, 112350, Note_on_c, 6, 62, 95
3, 112365, Note_on_c, 6, 67, 95
3, 112800, Note_off_c, 6, 67, 95
3, 112800, Note_off_c, 6, 62, 95
3, 112800, Note_off_c, 6, 59, 95
3, 112800, Note_off_c, 6, 50, 95
3, 112800, Note_on_c, 6, 67, 95
3, 112830, Note_on_c, 6, 62, 95
3, 112860, Note_on_c, 6, 59, 95
3, 113760, Note_off_c, 6, 67, 95
3, 113760, Note_off_c, 6, 62, 95
3, 113760, Note_off_c, 6, 59, 95
3, 113760, Note_on_c, 6, 67, 95
3, 113775, Note_on_c, 6, 62, 95
3, 113790, Note_on_c, 6, 59, 95
3, 114240, Note_off_c, 6, 67, 95
3, 114240, Note_off_c, 6, 62, 95
3, 114240, Note_off_c, 6, 59, 95
3, 114720, Note_on_c, 6, 67, 95
3, 114735, Note_on_c, 6, 62, 95
3, 114750, Note_on_c, 6, 59, 95
3, 115200, Note_off_c, 6, 67, 95
3, 115200, Note_off_c, 6, 62, 95
3, 115200, Note_off_c, 6, 59, 95
3, 115200, Note_on_c, 6, 48, 95
3, 115230, Note_on_c, 6, 52, 95
3, 115260, Note_on_c, 6, 55, 95
3, 115290, Note_on_c, 6, 60, 95
3, 115320, Note_on_c, 6, 64, 95
3, 116160, Note_off_c, 6, 64, 95
3, 116160, Note_off_c, 6, 60, 95
3, 116160, Note_off_c, 6, 55, 95
3, 116160, Note_off_c, 6, 52, 95
3, 116160, Note_off_c, 6, 48, 95
3, 116160, Note_on_c, 6, 48, 95
3, 116175, Note_on_c, 6, 52, 95
3, 116190, Note_on_c, 6, 55, 95
3, 116205, Note_on_c, 6, 60, 95
3, 116640, Note_off_c, 6, 60, 95
3, 116640, Note_off_c, 6, 55, 95
3, 116640, Note_off_c, 6, 52, 95
3, 116640, Note_off_c, 6, 48, 95
3, 116640, Note_on_c, 6, 64, 95
3, 116670, Note_on_c, 6, 60, 95
3, 116700, Note_on_c, 6, 55, 95
3, 117600, Note_off_c, 6, 64, 95
3, 117600, Note_off_c, 6, 60, 95
3, 117600, Note_off_c, 6, 55, 95
3, 117600, Note_on_c, 6, 64, 95
3, 117615, Note_on_c, 6, 60, 95
3, 117630, Note_on_c, 6, 55, 95
3, 118080, Note_off_c, 6, 64, 95
3, 118080, Note_off_c, 6, 60, 95
3, 118080, Note_off_c, 6, 55, 95
3, 118560, Note_on_c, 6, 64, 95
3, 118575, Note_on_c, 6, 60, 95
3, 118590, Note_on_c, 6, 55, 95
3, 119040, Note_off_c, 6, 64, 95
3, 119040, Note_off_c, 6, 60, 95
3, 119040, Note_off_c, 6, 55, 95
3, 119040, Note_on_c, 6, 48, 95
3, 119070, Note_on_c, 6, 52, 95
3, 119100, Note_on_c, 6, 55, 95
3, 119130, Note_on_c, 6, 60, 95
3, 119160, Note_on_c, 6, 64, 95
3, 120000, Note_off_c, 6, 64, 95
3, 120000, Note_off_c, 6, 60, 95
3, 120000, Note_off_c, 6, 55, 95
3, 120000, Note_off_c, 6, 52, 95
3, 120000, Note_off_c, 6, 48, 95
3, 120000, Note_on_c, 6, 48, 95
3, 120015, Note_on_c, 6, 52, 95
3, 120030, Note_on_c, 6, 55, 95
3, 120045, Note_on_c, 6, 60, 95
3, 120480, Note_off_c, 6, 60, 95
3, 120480, Note_off_c, 6, 55, 95
3, 120480, Note_off_c, 6, 52, 95
3, 120480, Note_off_c, 6, 48, 95
3, 120480, Note_on_c, 6, 64, 95
3, 120510, Note_on_c, 6, 60, 95
3, 120540, Note_on_c, 6, 55, 95
3, 121440, Note_off_c, 6, 64, 95
3, 121440, Note_off_c, 6, 60, 95
3, 121440, Note_off_c, 6, 55, 95
3, 121440, Note_on_c, 6, 64, 95
3, 121455, Note_on_c, 6, 60, 95
3, 121470, Note_on_c, 6, 55, 95
3, 121920, Note_off_c, 6, 64, 95
3, 121920, Note_off_c, 6, 60, 95
3, 121920, Note_off_c, 6, 55, 95
3, 122400, Note_on_c, 6, 64, 95
3, 122415, Note_on_c, 6, 60, 95
3, 122430, Note_on_c, 6, 55, 95
3, 122880, Note_off_c, 6, 64, 95
3, 122880, Note_off_c, 6, 60, 95
3, 122880, Note_off_c, 6, 55, 95
3, 122880, Note_on_c, 6, 40, 127
3, 122910, Note_on_c, 6, 47, 95
3, 122940, Note_on_c, 6, 52, 95
3, 122970, Note_on_c, 6, 55, 95
3, 123000, Note_on_c, 6, 59, 95
3, 123030, Note_on_c, 6, 64, 95
3, 123840, Note_off_c, 6, 64, 95
3, 123840, Note_off_c, 6, 59, 95
3, 123840, Note_off_c, 6, 55, 95
3, 123840, Note_off_c, 6, 52, 95
3, 123840, Note_off_c, 6, 47, 95
3, 123840, Note_off_c, 6, 40, 127
3, 123840, Note_on_c, 6, 47, 95
3, 123855, Note_on_c, 6, 52, 95
3, 123870, Note_on_c, 6, 55, 95
3, 123885, Note_on_c, 6, 59, 95
3, 124320, Note_off_c, 6, 59, 95
3, 124320, Note_off_c, 6, 55, 95
3, 124320, Note_off_c, 6, 52, 95
3, 124320, Note_off_c, 6, 47, 95
3, 124320, Note_on_c, 6, 64, 95
3, 124350, Note_on_c, 6, 59, 95
3, 124380, Note_on_c, 6, 55, 95
3, 125280, Note_off_c, 6, 64, 95
3, 125280, Note_off_c, 6, 59, 95
3, 125280, Note_off_c, 6, 55, 95
3, 125280, Note_on_c, 6, 64, 95
3, 125295, Note_on_c, 6, 59, 95
3, 125310, Note_on_c, 6, 55, 95
3, 125760, Note_off_c, 6, 64, 95
3, 125760, Note_off_c, 6, 59, 95
3, 125760, Note_off_c, 6, 55, 95
3, 126240, Note_on_c, 6, 64, 95
3, 126255, Note_on_c, 6, 59, 95
3, 126270, Note_on_c, 6, 55, 95
3, 126720, Note_off_c, 6, 64, 95
3, 126720, Note_off_c, 6, 59, 95
3, 126720, Note_off_c, 6, 55, 95
3, 126720, Note_on_c, 6, 40, 127
3, 126750, Note_on_c, 6, 47, 95
3, 126780, Note_on_c, 6, 52, 95
3, 126810, Note_on_c, 6, 55, 95
3, 126840, Note_on_c, 6, 59, 95
3, 126870, Note_on_c, 6, 64, 95
3, 127680, Note_off_c, 6, 64, 95
3, 127680, Note_off_c, 6, 59, 95
3, 127680, Note_off_c, 6, 55, 95
3, 127680, Note_off_c, 6, 52, 95
3, 127680, Note_off_c, 6, 47, 95
3, 127680, Note_off_c, 6, 40, 127
3, 127680, Note_on_c, 6, 47, 95
3, 127695, Note_on_c, 6, 52, 95
3, 127710, Note_on_c, 6, 55, 95
3, 127725, Note_on_c, 6, 59, 95
3, 128160, Note_off_c, 6, 59, 95
3, 128160, Note_off_c, 6, 55, 95
3, 128160, Note_off_c, 6, 52, 95
3, 128160, Note_off_c, 6, 47, 95
3, 128160, Note_on_c, 6, 64, 95
3, 128190, Note_on_c, 6, 59, 95
3, 128220, Note_on_c, 6, 55, 95
3, 129120, Note_off_c, 6, 64, 95
3, 129120, Note_off_c, 6, 59, 95
3, 129120, Note_off_c, 6, 55, 95
3, 129120, Note_on_c, 6, 64, 95
3, 129135, Note_on_c, 6, 59, 95
3, 129150, Note_on_c, 6, 55, 95
3, 129600, Note_off_c, 6, 64, 95
3, 129600, Note_off_c, 6, 59, 95
3, 129600, Note_off_c, 6, 55, 95
3, 130080, Note_on_c, 6, 64, 95
3, 130095, Note_on_c, 6, 59, 95
3, 130110, Note_on_c, 6, 55, 95
3, 130560, Note_off_c, 6, 64, 95
3, 130560, Note_off_c, 6, 59, 95
3, 130560, Note_off_c, 6, 55, 95
3, 130560, Note_on_c, 6, 45, 95
3, 130590, Note_on_c, 6, 52, 95
3, 130620, Note_on_c, 6, 57, 95
3, 130650, Note_on_c, 6, 60, 95
3, 130680, Note_on_c, 6, 64, 95
3, 131520, Note_off_c, 6, 64, 95
3, 131520, Note_off_c, 6, 60, 95
3, 131520, Note_off_c, 6, 57, 95
3, 131520, Note_off_c, 6, 52, 95
3, 131520, Note_off_c, 6, 45, 95
3, 131520, Note_on_c, 6, 45, 95
3, 131535, Note_on_c, 6, 52, 95
3, 131550, Note_on_c, 6, 57, 95
3, 131565, Note_on_c, 6, 60, 95
3, 132000, Note_off_c, 6, 60, 95
3, 132000, Note_off_c, 6, 57, 95
3, 132000, Note_off_c, 6, 52, 95
3, 132000, Note_off_c, 6, 45, 95
3, 132000, Note_on_c, 6, 64, 95
3, 132030, Note_on_c, 6, 60, 95
3, 132060, Note_on_c, 6, 57, 95
3, 132960, Note_off_c, 6, 64, 95
3, 132960, Note_off_c, 6, 60, 95
3, 132960, Note_off_c, 6, 57, 95
3, 132960, Note_on_c, 6, 64, 95
3, 132975, Note_on_c, 6, 60, 95
3, 132990, Note_on_c, 6, 57, 95
3, 133440, Note_off_c, 6, 64, 95
3, 133440, Note_off_c, 6, 60, 95
3, 133440, Note_off_c, 6, 57, 95
3, 133920, Note_on_c, 6, 64, 95
3, 133935, Note_on_c, 6, 60, 95
3, 133950, Note_on_c, 6, 57, 95
3, 134400, Note_off_c, 6, 64, 95
3, 134400, Note_off_c, 6, 60, 95
3, 134400, Note_off_c, 6, 57, 95
3, 134400, Note_on_c, 6, 45, 95
3, 134430, Note_on_c, 6, 52, 95
3, 134460, Note_on_c, 6, 57, 95
3, 134490, Note_on_c, 6, 60, 95
3, 134520, Note_on_c, 6, 64, 95
3, 135360, Note_off_c, 6, 64, 95
3, 135360, Note_off_c, 6, 60, 95
3, 135360, Note_off_c, 6, 57, 95
3, 135360, Note_off_c, 6, 52, 95
3, 135360, Note_off_c, 6, 45, 95
3, 135360, Note_on_c, 6, 45, 95
3, 135375, Note_on_c, 6, 52, 95
3, 135390, Note_on_c, 6, 57, 95
3, 135405, Note_on_c, 6, 60, 95
3, 135840, Note_off_c, 6, 60, 95
3, 135840, Note_off_c, 6, 57, 95
3, 135840, Note_off_c, 6, 52, 95
3, 135840, Note_off_c, 6, 45, 95
3, 135840, Note_on_c, 6, 64, 95
3, 135870, Note_on_c, 6, 60, 95
3, 135900, Note_on_c, 6, 57, 95
3, 136800, Note_off_c, 6, 64, 95
3, 136800, Note_off_c, 6, 60, 95
3, 136800, Note_off_c, 6, 57, 95
3, 136800, Note_on_c, 6, 64, 95
3, 136815, Note_on_c, 6, 60, 95
3, 136830, Note_on_c, 6, 57, 95
3, 137280, Note_off_c, 6, 64, 95
3, 137280, Note_off_c, 6, 60, 95
3, 137280, Note_off_c, 6, 57, 95
3, 137760, Note_on_c, 6, 64, 95
3, 137775, Note_on_c, 6, 60, 95
3, 137790, Note_on_c, 6, 57, 95
3, 138240, Note_off_c, 6, 64, 95
3, 138240, Note_off_c, 6, 60, 95
3, 138240, Note_off_c, 6, 57, 95
3, 138240, Note_on_c, 6, 48, 95
3, 138255, Note_on_c, 6, 53, 95
3, 138270, Note_on_c, 6, 57, 95
3, 138285, Note_on_c, 6, 60, 95
3, 138300, Note_on_c, 6, 65, 95
3, 138720, Note_off_c, 6, 65, 95
3, 138720, Note_off_c, 6, 60, 95
3, 138720, Note_off_c, 6, 57, 95
3, 138720, Note_off_c, 6, 53, 95
3, 138720, Note_off_c, 6, 48, 95
3, 138720, Note_on_c, 6, 60, 95
3, 138728, Note_on_c, 6, 57, 95
3, 138736, Note_on_c, 6, 53, 95
3, 138744, Note_on_c, 6, 48, 95
3, 139200, Note_off_c, 6, 60, 95
3, 139200, Note_off_c, 6, 57, 95
3, 139200, Note_off_c, 6, 53, 95
3, 139200, Note_off_c, 6, 48, 95
3, 140160, Note_on_c, 6, 47, 127
3, 140168, Note_on_c, 6, 50, 127
3, 140176, Note_on_c, 6, 55, 95
3, 140184, Note_on_c, 6, 62, 95
3, 140640, Note_off_c, 6, 62, 95
3, 140640, Note_off_c, 6, 55, 95
3, 140640, Note_off_c, 6, 50, 127
3, 140640, Note_off_c, 6, 47, 127
3, 140640, Note_on_c, 6, 67, 95
3, 140655, Note_on_c, 6, 62, 95
3, 140670, Note_on_c, 6, 55, 95
3, 140685, Note_on_c, 6, 50, 127
3, 141120, Note_off_c, 6, 67, 95
3, 141120, Note_off_c, 6, 62, 95
3, 141120, Note_off_c, 6, 55, 95
3, 141120, Note_off_c, 6, 50, 127
3, 142080, Note_on_c, 6, 48, 95
3, 142110, Note_on_c, 6, 52, 95
3, 142140, Note_on_c, 6, 55, 95
3, 142170, Note_on_c, 6, 60, 95
3, 142200, Note_on_c, 6, 64, 95
3, 143040, Note_off_c, 6, 64, 95
3, 143040, Note_off_c, 6, 60, 95
3, 143040, Note_off_c, 6, 55, 95
3, 143040, Note_off_c, 6, 52, 95
3, 143040, Note_off_c, 6, 48, 95
3, 143040, Note_on_c, 6, 48, 95
3, 143055, Note_on_c, 6, 52, 95
3, 143070, Note_on_c, 6, 55, 95
3, 143085, Note_on_c, 6, 60, 95
3, 143520, Note_off_c, 6, 60, 95
3, 143520, Note_off_c, 6, 55, 95
3, 143520, Note_off_c, 6, 52, 95
3, 143520, Note_off_c, 6, 48, 95
3, 143520, Note_on_c, 6, 64, 95
3, 143550, Note_on_c, 6, 60, 95
3, 143580, Note_on_c, 6, 55, 95
3, 144480, Note_off_c, 6, 64, 95
3, 144480, Note_off_c, 6, 60, 95
3, 144480, Note_off_c, 6, 55, 95
3, 144480, Note_on_c, 6, 64, 95
3, 144495, Note_on_c, 6, 60, 95
3, 144510, Note_on_c, 6, 55, 95
3, 144960, Note_off_c, 6, 64, 95
3, 144960, Note_off_c, 6, 60, 95
3, 144960, Note_off_c, 6, 55, 95
3, 145440, Note_on_c, 6, 64, 95
3, 145455, Note_on_c, 6, 60, 95
3, 145470, Note_on_c, 6, 55, 95
3, 145920, Note_off_c, 6, 64, 95
3, 145920, Note_off_c, 6, 60, 95
3, 145920, Note_off_c, 6, 55, 95
3, 145920, Note_on_c, 6, 48, 95
3, 145935, Note_on_c, 6, 53, 95
3, 145950, Note_on_c, 6, 57, 95
3, 145965, Note_on_c, 6, 60, 95
3, 145980, Note_on_c, 6, 65, 95
3, 146400, Note_off_c, 6, 65, 95
3, 146400, Note_off_c, 6, 60, 95
3, 146400, Note_off_c, 6, 57, 95
3, 146400, Note_off_c, 6, 53, 95
3, 146400, Note_off_c, 6, 48, 95
3, 146400, Note_on_c, 6, 60, 95
3, 146408, Note_on_c, 6, 57, 95
3, 146416, Note_on_c, 6, 53, 95
3, 146424, Note_on_c, 6, 48, 95
3, 146880, Note_off_c, 6, 60, 95
3, 146880, Note_off_c, 6, 57, 95
3, 146880, Note_off_c, 6, 53, 95
3, 146880, Note_off_c, 6, 48, 95
3, 147840, Note_on_c, 6, 47, 127
3, 147848, Note_on_c, 6, 50, 127
3, 147856, Note_on_c, 6, 55, 95
3, 147864, Note_on_c, 6, 62, 95
3, 148320, Note_off_c, 6, 62, 95
3, 148320, Note_off_c, 6, 55, 95
3, 148320, Note_off_c, 6, 50, 127
3, 148320, Note_off_c, 6, 47, 127
3, 148320, Note_on_c, 6, 67, 95
3, 148335, Note_on_c, 6, 62, 95
3, 148350, Note_on_c, 6, 55, 95
3, 148365, Note_on_c, 6, 50, 127
3, 148800, Note_off_c, 6, 67, 95
3, 148800, Note_off_c, 6, 62, 95
3, 148800, Note_off_c, 6, 55, 95
3, 148800, Note_off_c, 6, 50, 127
3, 149760, Note_on_c, 6, 48, 95
3, 149790, Note_on_c, 6, 52, 95
3, 149820, Note_on_c, 6, 55, 95
3, 149850, Note_on_c, 6, 60, 95
3, 149880, Note_on_c, 6, 64, 95
3, 150720, Note_off_c, 6, 64, 95
3, 150720, Note_off_c, 6, 60, 95
3, 150720, Note_off_c, 6, 55, 95
3, 150720, Note_off_c, 6, 52, 95
3, 150720, Note_off_c, 6, 48, 95
3, 150720, Note_on_c, 6, 48, 95
3, 150735, Note_on_c, 6, 52, 95
3, 150750, Note_on_c, 6, 55, 95
3, 150765, Note_on_c, 6, 60, 95
3, 151200, Note_off_c, 6, 60, 95
3, 151200, Note_off_c, 6, 55, 95
3, 151200, Note_off_c, 6, 52, 95
3, 151200, Note_off_c, 6, 48, 95
3, 151200, Note_on_c, 6, 64, 95
3, 151230, Note_on_c, 6, 60, 95
3, 151260, Note_on_c, 6, 55, 95
3, 152160, Note_off_c, 6, 64, 95
3, 152160, Note_off_c, 6, 60, 95
3, 152160, Note_off_c, 6, 55, 95
3, 152160, Note_on_c, 6, 64, 95
3, 152175, Note_on_c, 6, 60, 95
3, 152190, Note_on_c, 6, 55, 95
3, 152640, Note_off_c, 6, 64, 95
3, 152640, Note_off_c, 6, 60, 95
3, 152640, Note_off_c, 6, 55, 95
3, 153120, Note_on_c, 6, 64, 95
3, 153135, Note_on_c, 6, 60, 95
3, 153150, Note_on_c, 6, 55, 95
3, 153600, Note_off_c, 6, 64, 95
3, 153600, Note_off_c, 6, 60, 95
3, 153600, Note_off_c, 6, 55, 95
3, 153600, Note_on_c, 6, 40, 127
3, 153630, Note_on_c, 6, 47, 95
3, 153660, Note_on_c, 6, 52, 95
3, 153690, Note_on_c, 6, 55, 95
3, 153720, Note_on_c, 6, 59, 95
3, 153750, Note_on_c, 6, 64, 95
3, 154560, Note_off_c, 6, 64, 95
3, 154560, Note_off_c, 6, 59, 95
3, 154560, Note_off_c, 6, 55, 95
3, 154560, Note_off_c, 6, 52, 95
3, 154560, Note_off_c, 6, 47, 95
3, 154560, Note_off_c, 6, 40, 127
3, 154560, Note_on_c, 6, 47, 95
3, 154575, Note_on_c, 6, 52, 95
3, 154590, Note_on_c, 6, 55, 95
3, 154605, Note_on_c, 6, 59, 95
3, 155040, Note_off_c, 6, 59, 95
3, 155040, Note_off_c, 6, 55, 95
3, 155040, Note_off_c, 6, 52, 95
3, 155040, Note_off_c, 6, 47, 95
3, 155040, Note_on_c, 6, 64, 95
3, 155070, Note_on_c, 6, 59, 95
3, 155100, Note_on_c, 6, 55, 95
3, 156000, Note_off_c, 6, 64, 95
3, 156000, Note_off_c, 6, 59, 95
3, 156000, Note_off_c, 6, 55, 95
3, 156000, Note_on_c, 6, 64, 95
3, 156015, Note_on_c, 6, 59, 95
3, 156030, Note_on_c, 6, 55, 95
3, 156480, Note_off_c, 6, 64, 95
3, 156480, Note_off_c, 6, 59, 95
3, 156480, Note_off_c, 6, 55, 95
3, 156960, Note_on_c, 6, 64, 95
3, 156975, Note_on_c, 6, 59, 95
3, 156990, Note_on_c, 6, 55, 95
3, 157440, Note_off_c, 6, 64, 95
3, 157440, Note_off_c, 6, 59, 95
3, 157440, Note_off_c, 6, 55, 95
3, 157440, Note_on_c, 6, 43, 95
3, 157470, Note_on_c, 6, 47, 95
3, 157500, Note_on_c, 6, 50, 95
3, 157530, Note_on_c, 6, 55, 95
3, 157560, Note_on_c, 6, 62, 95
3, 157590, Note_on_c, 6, 67, 95
3, 158400, Note_off_c, 6, 67, 95
3, 158400, Note_off_c, 6, 62, 95
3, 158400, Note_off_c, 6, 55, 95
3, 158400, Note_off_c, 6, 50, 95
3, 158400, Note_off_c, 6, 47, 95
3, 158400, Note_off_c, 6, 43, 95
3, 158400, Note_on_c, 6, 47, 95
3, 158415, Note_on_c, 6, 50, 95
3, 158430, Note_on_c, 6, 55, 95
3, 158445, Note_on_c, 6, 62, 95
3, 158880, Note_off_c, 6, 62, 95
3, 158880, Note_off_c, 6, 55, 95
3, 158880, Note_off_c, 6, 50, 95
3, 158880, Note_off_c, 6, 47, 95
3, 158880, Note_on_c, 6, 67, 95
3, 158910, Note_on_c, 6, 62, 95
3, 158940, Note_on_c, 6, 55, 95
3, 159840, Note_off_c, 6, 67, 95
3, 159840, Note_off_c, 6, 62, 95
3, 159840, Note_off_c, 6, 55, 95
3, 159840, Note_on_c, 6, 67, 95
3, 159855, Note_on_c, 6, 60, 95
3, 159870, Note_on_c, 6, 55, 95
3, 160320, Note_off_c, 6, 67, 95
3, 160320, Note_off_c, 6, 60, 95
3, 160320, Note_off_c, 6, 55, 95
3, 160800, Note_on_c, 6, 67, 95
3, 160815, Note_on_c, 6, 62, 95
3, 160830, Note_on_c, 6, 55, 95
3, 161280, Note_off_c, 6, 67, 95
3, 161280, Note_off_c, 6, 62, 95
3, 161280, Note_off_c, 6, 55, 95
3, 161280, Note_on_c, 6, 48, 95
3, 161310, Note_on_c, 6, 52, 95
3, 161340, Note_on_c, 6, 55, 95
3, 161370, Note_on_c, 6, 60, 95
3, 161400, Note_on_c, 6, 64, 95
3, 162240, Note_off_c, 6, 64, 95
3, 162240, Note_off_c, 6, 60, 95
3, 162240, Note_off_c, 6, 55, 95
3, 162240, Note_off_c, 6, 52, 95
3, 162240, Note_off_c, 6, 48, 95
3, 162240, Note_on_c, 6, 48, 95
3, 162255, Note_on_c, 6, 52, 95
3, 162270, Note_on_c, 6, 55, 95
3, 162285, Note_on_c, 6, 60, 95
3, 162720, Note_off_c, 6, 60, 95
3, 162720, Note_off_c, 6, 55, 95
3, 162720, Note_off_c, 6, 52, 95
3, 162720, Note_off_c, 6, 48, 95
3, 162720, Note_on_c, 6, 64, 95
3, 162750, Note_on_c, 6, 60, 95
3, 162780, Note_on_c, 6, 55, 95
3, 163680, Note_off_c, 6, 64, 95
3, 163680, Note_off_c, 6, 60, 95
3, 163680, Note_off_c, 6, 55, 95
3, 163680, Note_on_c, 6, 64, 95
3, 163695, Note_on_c, 6, 60, 95
3, 163710, Note_on_c, 6, 55, 95
3, 164160, Note_off_c, 6, 64, 95
3, 164160, Note_off_c, 6, 60, 95
3, 164160, Note_off_c, 6, 55, 95
3, 164640, Note_on_c, 6, 64, 95
3, 164655, Note_on_c, 6, 60, 95
3, 164670, Note_on_c, 6, 55, 95
3, 165120, Note_off_c, 6, 64, 95
3, 165120, Note_off_c, 6, 60, 95
3, 165120, Note_off_c, 6, 55, 95
3, 165120, Note_on_c, 6, 48, 95
3, 165150, Note_on_c, 6, 52, 95
3, 165180, Note_on_c, 6, 55, 95
3, 165210, Note_on_c, 6, 60, 95
3, 165240, Note_on_c, 6, 64, 95
3, 166080, Note_off_c, 6, 64, 95
3, 166080, Note_off_c, 6, 60, 95
3, 166080, Note_off_c, 6, 55, 95
3, 166080, Note_off_c, 6, 52, 95
3, 166080, Note_off_c, 6, 48, 95
3, 166080, Note_on_c, 6, 48, 95
3, 166095, Note_on_c, 6, 52, 95
3, 166110, Note_on_c, 6, 55, 95
3, 166125, Note_on_c, 6, 60, 95
3, 166560, Note_off_c, 6, 60, 95
3, 166560, Note_off_c, 6, 55, 95
3, 166560, Note_off_c, 6, 52, 95
3, 166560, Note_off_c, 6, 48, 95
3, 166560, Note_on_c, 6, 64, 95
3, 166590, Note_on_c, 6, 60, 95
3, 166620, Note_on_c, 6, 55, 95
3, 167520, Note_off_c, 6, 64, 95
3, 167520, Note_off_c, 6, 60, 95
3, 167520, Note_off_c, 6, 55, 95
3, 167520, Note_on_c, 6, 64, 95
3, 167535, Note_on_c, 6, 60, 95
3, 167550, Note_on_c, 6, 55, 95
3, 168000, Note_off_c, 6, 64, 95
3, 168000, Note_off_c, 6, 60, 95
3, 168000, Note_off_c, 6, 55, 95
3, 168480, Note_on_c, 6, 64, 95
3, 168495, Note_on_c, 6, 60, 95
3, 168510, Note_on_c, 6, 55, 95
3, 168960, Note_off_c, 6, 64, 95
3, 168960, Note_off_c, 6, 60, 95
3, 168960, Note_off_c, 6, 55, 95
3, 168960, Note_on_c, 6, 48, 95
3, 169020, Note_on_c, 6, 52, 95
3, 169080, Note_on_c, 6, 55, 95
3, 169140, Note_on_c, 6, 60, 95
3, 169200, Note_on_c, 6, 64, 95
3, 169920, Note_off_c, 6, 64, 95
3, 169920, Note_off_c, 6, 60, 95
3, 169920, Note_off_c, 6, 55, 95
3, 169920, Note_off_c, 6, 52, 95
3, 169920, Note_off_c, 6, 48, 95
3, 169920, Note_on_c, 6, 48, 95
3, 169935, Note_on_c, 6, 52, 95
3, 169950, Note_on_c, 6, 55, 95
3, 170400, Note_off_c, 6, 55, 95
3, 170400, Note_off_c, 6, 52, 95
3, 170400, Note_off_c, 6, 48, 95
3, 170400, Note_on_c, 6, 64, 95
3, 170415, Note_on_c, 6, 60, 95
3, 170430, Note_on_c, 6, 55, 95
3, 170880, Note_off_c, 6, 64, 95
3, 170880, Note_off_c, 6, 60, 95
3, 170880, Note_off_c, 6, 55, 95
3, 170880, Note_on_c, 6, 47, 95
3, 170940, Note_on_c, 6, 52, 95
3, 171000, Note_on_c, 6, 55, 95
3, 171060, Note_on_c, 6, 59, 95
3, 171840, Note_off_c, 6, 59, 95
3, 171840, Note_off_c, 6, 55, 95
3, 171840, Note_off_c, 6, 52, 95
3, 171840, Note_off_c, 6, 47, 95
3, 171840, Note_on_c, 6, 64, 95
3, 171855, Note_on_c, 6, 59, 95
3, 171870, Note_on_c, 6, 55, 95
3, 172320, Note_off_c, 6, 64, 95
3, 172320, Note_off_c, 6, 59, 95
3, 172320, Note_off_c, 6, 55, 95
3, 172320, Note_on_c, 6, 64, 95
3, 172335, Note_on_c, 6, 59, 95
3, 172350, Note_on_c, 6, 55, 95
3, 172800, Note_off_c, 6, 64, 95
3, 172800, Note_off_c, 6, 59, 95
3, 172800, Note_off_c, 6, 55, 95
3, 172800, Note_on_c, 6, 45, 95
3, 172830, Note_on_c, 6, 52, 95
3, 172860, Note_on_c, 6, 57, 95
3, 172890, Note_on_c, 6, 60, 95
3, 172920, Note_on_c, 6, 64, 95
3, 173760, Note_off_c, 6, 64, 95
3, 173760, Note_off_c, 6, 60, 95
3, 173760, Note_off_c, 6, 57, 95
3, 173760, Note_off_c, 6, 52, 95
3, 173760, Note_off_c, 6, 45, 95
3, 173760, Note_on_c, 6, 45, 95
3, 173775, Note_on_c, 6, 52, 95
3, 173790, Note_on_c, 6, 57, 95
3, 173805, Note_on_c, 6, 60, 95
3, 174240, Note_off_c, 6, 60, 95
3, 174240, Note_off_c, 6, 57, 95
3, 174240, Note_off_c, 6, 52, 95
3, 174240, Note_off_c, 6, 45, 95
3, 174240, Note_on_c, 6, 64, 95
3, 174255, Note_on_c, 6, 60, 95
3, 174270, Note_on_c, 6, 57, 95
3, 174720, Note_off_c, 6, 64, 95
3, 174720, Note_off_c, 6, 60, 95
3, 174720, Note_off_c, 6, 57, 95
3, 174720, Note_on_c, 6, 64, 95
3, 174740, Note_on_c, 6, 60, 95
3, 174760, Note_on_c, 6, 57, 95
3, 175360, Note_off_c, 6, 64, 95
3, 175360, Note_off_c, 6, 60, 95
3, 175360, Note_off_c, 6, 57, 95
3, 175360, Note_on_c, 6, 64, 95
3, 175380, Note_on_c, 6, 60, 95
3, 175400, Note_on_c, 6, 57, 95
3, 176000, Note_off_c, 6, 64, 95
3, 176000, Note_off_c, 6, 60, 95
3, 176000, Note_off_c, 6, 57, 95
3, 176000, Note_on_c, 6, 64, 95
3, 176020, Note_on_c, 6, 60, 95
3, 176040, Note_on_c, 6, 57, 95
3, 176640, Note_off_c, 6, 64, 95
3, 176640, Note_off_c, 6, 60, 95
3, 176640, Note_off_c, 6, 57, 95
3, 176640, Note_on_c, 6, 48, 95
3, 176670, Note_on_c, 6, 53, 95
3, 176700, Note_on_c, 6, 57, 95
3, 176730, Note_on_c, 6, 60, 95
3, 176760, Note_on_c, 6, 65, 95
3, 177600, Note_off_c, 6, 65, 95
3, 177600, Note_off_c, 6, 60, 95
3, 177600, Note_off_c, 6, 57, 95
3, 177600, Note_off_c, 6, 53, 95
3, 177600, Note_off_c, 6, 48, 95
3, 177600, Note_on_c, 6, 48, 95
3, 177615, Note_on_c, 6, 53, 95
3, 177630, Note_on_c, 6, 57, 95
3, 177645, Note_on_c, 6, 60, 95
3, 178080, Note_off_c, 6, 60, 95
3, 178080, Note_off_c, 6, 57, 95
3, 178080, Note_off_c, 6, 53, 95
3, 178080, Note_off_c, 6, 48, 95
3, 178080, Note_on_c, 6, 65, 95
3, 178110, Note_on_c, 6, 60, 95
3, 178140, Note_on_c, 6, 57, 95
3, 179040, Note_off_c, 6, 65, 95
3, 179040, Note_off_c, 6, 60, 95
3, 179040, Note_off_c, 6, 57, 95
3, 179040, Note_on_c, 6, 65, 95
3, 179055, Note_on_c, 6, 60, 95
3, 179070, Note_on_c, 6, 57, 95
3, 179520, Note_off_c, 6, 65, 95
3, 179520, Note_off_c, 6, 60, 95
3, 179520, Note_off_c, 6, 57, 95
3, 180000, Note_on_c, 6, 65, 95
3, 180015, Note_on_c, 6, 60, 95
3, 180030, Note_on_c, 6, 57, 95
3, 180480, Note_off_c, 6, 65, 95
3, 180480, Note_off_c, 6, 60, 95
3, 180480, Note_off_c, 6, 57, 95
3, 180480, Note_on_c, 6, 50, 95
3, 180510, Note_on_c, 6, 57, 95
3, 180540, Note_on_c, 6, 62, 95
3, 180570, Note_on_c, 6, 65, 95
3, 181440, Note_off_c, 6, 65, 95
3, 181440, Note_off_c, 6, 62, 95
3, 181440, Note_off_c, 6, 57, 95
3, 181440, Note_off_c, 6, 50, 95
3, 181440, Note_on_c, 6, 50, 95
3, 181455, Note_on_c, 6, 57, 95
3, 181470, Note_on_c, 6, 62, 95
3, 181485, Note_on_c, 6, 65, 95
3, 181920, Note_off_c, 6, 65, 95
3, 181920, Note_off_c, 6, 62, 95
3, 181920, Note_off_c, 6, 57, 95
3, 181920, Note_off_c, 6, 50, 95
3, 181920, Note_on_c, 6, 65, 95
3, 181950, Note_on_c, 6, 62, 95
3, 181980, Note_on_c, 6, 57, 95
3, 182880, Note_off_c, 6, 65, 95
3, 182880, Note_off_c, 6, 62, 95
3, 182880, Note_off_c, 6, 57, 95
3, 182880, Note_on_c, 6, 65, 95
3, 182895, Note_on_c, 6, 62, 95
3, 182910, Note_on_c, 6, 57, 95
3, 183360, Note_off_c, 6, 65, 95
3, 183360, Note_off_c, 6, 62, 95
3, 183360, Note_off_c, 6, 57, 95
3, 183840, Note_on_c, 6, 65, 95
3, 183855, Note_on_c, 6, 62, 95
3, 183870, Note_on_c, 6, 57, 95
3, 184320, Note_off_c, 6, 65, 95
3, 184320, Note_off_c, 6, 62, 95
3, 184320, Note_off_c, 6, 57, 95
3, 184320, Note_on_c, 6, 50, 95
3, 184350, Note_on_c, 6, 59, 95
3, 184380, Note_on_c, 6, 62, 95
3, 184410, Note_on_c, 6, 67, 95
3, 185280, Note_off_c, 6, 67, 95
3, 185280, Note_off_c, 6, 62, 95
3, 185280, Note_off_c, 6, 59, 95
3, 185280, Note_off_c, 6, 50, 95
3, 185280, Note_on_c, 6, 50, 95
3, 185295, Note_on_c, 6, 59, 95
3, 185310, Note_on_c, 6, 62, 95
3, 185325, Note_on_c, 6, 67, 95
3, 185760, Note_off_c, 6, 67, 95
3, 185760, Note_off_c, 6, 62, 95
3, 185760, Note_off_c, 6, 59, 95
3, 185760, Note_off_c, 6, 50, 95
3, 185760, Note_on_c, 6, 67, 95
3, 185790, Note_on_c, 6, 62, 95
3, 185820, Note_on_c, 6, 59, 95
3, 186720, Note_off_c, 6, 67, 95
3, 186720, Note_off_c, 6, 62, 95
3, 186720, Note_off_c, 6, 59, 95
3, 186720, Note_on_c, 6, 67, 95
3, 186735, Note_on_c, 6, 62, 95
3, 186750, Note_on_c, 6, 59, 95
3, 187200, Note_off_c, 6, 67, 95
3, 187200, Note_off_c, 6, 62, 95
3, 187200, Note_off_c, 6, 59, 95
3, 187680, Note_on_c, 6, 67, 95
3, 187695, Note_on_c, 6, 62, 95
3, 187710, Note_on_c, 6, 59, 95
3, 188160, Note_off_c, 6, 67, 95
3, 188160, Note_off_c, 6, 62, 95
3, 188160, Note_off_c, 6, 59, 95
3, 188160, Note_on_c, 6, 50, 95
3, 188190, Note_on_c, 6, 59, 95
3, 188220, Note_on_c, 6, 62, 95
3, 188250, Note_on_c, 6, 67, 95
3, 189120, Note_off_c, 6, 67, 95
3, 189120, Note_off_c, 6, 62, 95
3, 189120, Note_off_c, 6, 59, 95
3, 189120, Note_off_c, 6, 50, 95
3, 189120, Note_on_c, 6, 50, 95
3, 189135, Note_on_c, 6, 59, 95
3, 189150, Note_on_c, 6, 62, 95
3, 189165, Note_on_c, 6, 67, 95
3, 189600, Note_off_c, 6, 67, 95
3, 189600, Note_off_c, 6, 62, 95
3, 189600, Note_off_c, 6, 59, 95
3, 189600, Note_off_c, 6, 50, 95
3, 189600, Note_on_c, 6, 67, 95
3, 189630, Note_on_c, 6, 62, 95
3, 189660, Note_on_c, 6, 59, 95
3, 190560, Note_off_c, 6, 67, 95
3, 190560, Note_off_c, 6, 62, 95
3, 190560, Note_off_c, 6, 59, 95
3, 190560, Note_on_c, 6, 67, 95
3, 190575, Note_on_c, 6, 62, 95
3, 190590, Note_on_c, 6, 59, 95
3, 191040, Note_off_c, 6, 67, 95
3, 191040, Note_off_c, 6, 62, 95
3, 191040, Note_off_c, 6, 59, 95
3, 191520, Note_on_c, 6, 67, 95
3, 191535, Note_on_c, 6, 62, 95
3, 191550, Note_on_c, 6, 59, 95
3, 192000, Note_off_c, 6, 67, 95
3, 192000, Note_off_c, 6, 62, 95
3, 192000, Note_off_c, 6, 59, 95
3, 192000, Note_on_c, 6, 48, 95
3, 192030, Note_on_c, 6, 52, 95
3, 192060, Note_on_c, 6, 55, 95
3, 192090, Note_on_c, 6, 60, 95
3, 192120, Note_on_c, 6, 64, 95
3, 192960, Note_off_c, 6, 64, 95
3, 192960, Note_off_c, 6, 60, 95
3, 192960, Note_off_c, 6, 55, 95
3, 192960, Note_off_c, 6, 52, 95
3, 192960, Note_off_c, 6, 48, 95
3, 192960, Note_on_c, 6, 48, 95
3, 192975, Note_on_c, 6, 52, 95
3, 192990, Note_on_c, 6, 55, 95
3, 193005, Note_on_c, 6, 60, 95
3, 193440, Note_off_c, 6, 60, 95
3, 193440, Note_off_c, 6, 55, 95
3, 193440, Note_off_c, 6, 52, 95
3, 193440, Note_off_c, 6, 48, 95
3, 193440, Note_on_c, 6, 64, 95
3, 193470, Note_on_c, 6, 60, 95
3, 193500, Note_on_c, 6, 55, 95
3, 194400, Note_off_c, 6, 64, 95
3, 194400, Note_off_c, 6, 60, 95
3, 194400, Note_off_c, 6, 55, 95
3, 194400, Note_on_c, 6, 64, 95
3, 194415, Note_on_c, 6, 60, 95
3, 194430, Note_on_c, 6, 55, 95
3, 194880, Note_off_c, 6, 64, 95
3, 194880, Note_off_c, 6, 60, 95
3, 194880, Note_off_c, 6, 55, 95
3, 195360, Note_on_c, 6, 64, 95
3, 195375, Note_on_c, 6, 60, 95
3, 195390, Note_on_c, 6, 55, 95
3, 195840, Note_off_c, 6, 64, 95
3, 195840, Note_off_c, 6, 60, 95
3, 195840, Note_off_c, 6, 55, 95
3, 195840, Note_on_c, 6, 48, 95
3, 195870, Note_on_c, 6, 52, 95
3, 195900, Note_on_c, 6, 55, 95
3, 195930, Note_on_c, 6, 60, 95
3, 195960, Note_on_c, 6, 64, 95
3, 196800, Note_off_c, 6, 64, 95
3, 196800, Note_off_c, 6, 60, 95
3, 196800, Note_off_c, 6, 55, 95
3, 196800, Note_off_c, 6, 52, 95
3, 196800, Note_off_c, 6, 48, 95
3, 196800, Note_on_c, 6, 48, 95
3, 196815, Note_on_c, 6, 52, 95
3, 196830, Note_on_c, 6, 55, 95
3, 196845, Note_on_c, 6, 60, 95
3, 197280, Note_off_c, 6, 60, 95
3, 197280, Note_off_c, 6, 55, 95
3, 197280, Note_off_c, 6, 52, 95
3, 197280, Note_off_c, 6, 48, 95
3, 197280, Note_on_c, 6, 64, 95
3, 197310, Note_on_c, 6, 60, 95
3, 197340, Note_on_c, 6, 55, 95
3, 198240, Note_off_c, 6, 64, 95
3, 198240, Note_off_c, 6, 60, 95
3, 198240, Note_off_c, 6, 55, 95
3, 198240, Note_on_c, 6, 64, 95
3, 198255, Note_on_c, 6, 60, 95
3, 198270, Note_on_c, 6, 55, 95
3, 198720, Note_off_c, 6, 64, 95
3, 198720, Note_off_c, 6, 60, 95
3, 198720, Note_off_c, 6, 55, 95
3, 199200, Note_on_c, 6, 64, 95
3, 199215, Note_on_c, 6, 60, 95
3, 199230, Note_on_c, 6, 55, 95
3, 199680, Note_off_c, 6, 64, 95
3, 199680, Note_off_c, 6, 60, 95
3, 199680, Note_off_c, 6, 55, 95
3, 199680, Note_on_c, 6, 48, 95
3, 199740, Note_on_c, 6, 52, 95
3, 199800, Note_on_c, 6, 55, 95
3, 199860, Note_on_c, 6, 60, 95
3, 199920, Note_on_c, 6, 64, 95
3, 200640, Note_off_c, 6, 64, 95
3, 200640, Note_off_c, 6, 60, 95
3, 200640, Note_off_c, 6, 55, 95
3, 200640, Note_off_c, 6, 52, 95
3, 200640, Note_off_c, 6, 48, 95
3, 200640, Note_on_c, 6, 48, 95
3, 200655, Note_on_c, 6, 52, 95
3, 200670, Note_on_c, 6, 55, 95
3, 201120, Note_off_c, 6, 55, 95
3, 201120, Note_off_c, 6, 52, 95
3, 201120, Note_off_c, 6, 48, 95
3, 201120, Note_on_c, 6, 64, 95
3, 201135, Note_on_c, 6, 60, 95
3, 201150, Note_on_c, 6, 55, 95
3, 201600, Note_off_c, 6, 64, 95
3, 201600, Note_off_c, 6, 60, 95
3, 201600, Note_off_c, 6, 55, 95
3, 201600, Note_on_c, 6, 47, 95
3, 201660, Note_on_c, 6, 52, 95
3, 201720, Note_on_c, 6, 55, 95
3, 201780, Note_on_c, 6, 59, 95
3, 202560, Note_off_c, 6, 59, 95
3, 202560, Note_off_c, 6, 55, 95
3, 202560, Note_off_c, 6, 52, 95
3, 202560, Note_off_c, 6, 47, 95
3, 202560, Note_on_c, 6, 64, 95
3, 202575, Note_on_c, 6, 59, 95
3, 202590, Note_on_c, 6, 55, 95
3, 203040, Note_off_c, 6, 64, 95
3, 203040, Note_off_c, 6, 59, 95
3, 203040, Note_off_c, 6, 55, 95
3, 203040, Note_on_c, 6, 64, 95
3, 203055, Note_on_c, 6, 59, 95
3, 203070, Note_on_c, 6, 55, 95
3, 203520, Note_off_c, 6, 64, 95
3, 203520, Note_off_c, 6, 59, 95
3, 203520, Note_off_c, 6, 55, 95
3, 203520, Note_on_c, 6, 45, 95
3, 203550, Note_on_c, 6, 52, 95
3, 203580, Note_on_c, 6, 57, 95
3, 203610, Note_on_c, 6, 60, 95
3, 203640, Note_on_c, 6, 64, 95
3, 204480, Note_off_c, 6, 64, 95
3, 204480, Note_off_c, 6, 60, 95
3, 204480, Note_off_c, 6, 57, 95
3, 204480, Note_off_c, 6, 52, 95
3, 204480, Note_off_c, 6, 45, 95
3, 204480, Note_on_c, 6, 45, 95
3, 204495, Note_on_c, 6, 52, 95
3, 204510, Note_on_c, 6, 57, 95
3, 204525, Note_on_c, 6, 60, 95
3, 204960, Note_off_c, 6, 60, 95
3, 204960, Note_off_c, 6, 57, 95
3, 204960, Note_off_c, 6, 52, 95
3, 204960, Note_off_c, 6, 45, 95
3, 204960, Note_on_c, 6, 64, 95
3, 204975, Note_on_c, 6, 60, 95
3, 204990, Note_on_c, 6, 57, 95
3, 205440, Note_off_c, 6, 64, 95
3, 205440, Note_off_c, 6, 60, 95
3, 205440, Note_off_c, 6, 57, 95
3, 205440, Note_on_c, 6, 64, 95
3, 205460, Note_on_c, 6, 60, 95
3, 205480, Note_on_c, 6, 57, 95
3, 206080, Note_off_c, 6, 64, 95
3, 206080, Note_off_c, 6, 60, 95
3, 206080, Note_off_c, 6, 57, 95
3, 206080, Note_on_c, 6, 64, 95
3, 206100, Note_on_c, 6, 60, 95
3, 206120, Note_on_c, 6, 57, 95
3, 206720, Note_off_c, 6, 64, 95
3, 206720, Note_off_c, 6, 60, 95
3, 206720, Note_off_c, 6, 57, 95
3, 206720, Note_on_c, 6, 64, 95
3, 206740, Note_on_c, 6, 60, 95
3, 206760, Note_on_c, 6, 57, 95
3, 207360, Note_off_c, 6, 64, 95
3, 207360, Note_off_c, 6, 60, 95
3, 207360, Note_off_c, 6, 57, 95
3, 207360, Note_on_c, 6, 48, 95
3, 207390, Note_on_c, 6, 53, 95
3, 207420, Note_on_c, 6, 57, 95
3, 207450, Note_on_c, 6, 60, 95
3, 207480, Note_on_c, 6, 65, 95
3, 208320, Note_off_c, 6, 65, 95
3, 208320, Note_off_c, 6, 60, 95
3, 208320, Note_off_c, 6, 57, 95
3, 208320, Note_off_c, 6, 53, 95
3, 208320, Note_off_c, 6, 48, 95
3, 208320, Note_on_c, 6, 48, 95
3, 208335, Note_on_c, 6, 53, 95
3, 208350, Note_on_c, 6, 57, 95
3, 208365, Note_on_c, 6, 60, 95
3, 208800, Note_off_c, 6, 60, 95
3, 208800, Note_off_c, 6, 57, 95
3, 208800, Note_off_c, 6, 53, 95
3, 208800, Note_off_c, 6, 48, 95
3, 208800, Note_on_c, 6, 65, 95
3, 208830, Note_on_c, 6, 60, 95
3, 208860, Note_on_c, 6, 57, 95
3, 209760, Note_off_c, 6, 65, 95
3, 209760, Note_off_c, 6, 60, 95
3, 209760, Note_off_c, 6, 57, 95
3, 209760, Note_on_c, 6, 65, 95
3, 209775, Note_on_c, 6, 60, 95
3, 209790, Note_on_c, 6, 57, 95
3, 210240, Note_off_c, 6, 65, 95
3, 210240, Note_off_c, 6, 60, 95
3, 210240, Note_off_c, 6, 57, 95
3, 210720, Note_on_c, 6, 65, 95
3, 210735, Note_on_c, 6, 60, 95
3, 210750, Note_on_c, 6, 57, 95
3, 211200, Note_off_c, 6, 65, 95
3, 211200, Note_off_c, 6, 60, 95
3, 211200, Note_off_c, 6, 57, 95
3, 211200, Note_on_c, 6, 50, 95
3, 211230, Note_on_c, 6, 57, 95
3, 211260, Note_on_c, 6, 62, 95
3, 211290, Note_on_c, 6, 65, 95
3, 212160, Note_off_c, 6, 65, 95
3, 212160, Note_off_c, 6, 62, 95
3, 212160, Note_off_c, 6, 57, 95
3, 212160, Note_off_c, 6, 50, 95
3, 212160, Note_on_c, 6, 50, 95
3, 212175, Note_on_c, 6, 57, 95
3, 212190, Note_on_c, 6, 62, 95
3, 212205, Note_on_c, 6, 65, 95
3, 212640, Note_off_c, 6, 65, 95
3, 212640, Note_off_c, 6, 62, 95
3, 212640, Note_off_c, 6, 57, 95
3, 212640, Note_off_c, 6, 50, 95
3, 212640, Note_on_c, 6, 65, 95
3, 212670, Note_on_c, 6, 62, 95
3, 212700, Note_on_c, 6, 57, 95
3, 213600, Note_off_c, 6, 65, 95
3, 213600, Note_off_c, 6, 62, 95
3, 213600, Note_off_c, 6, 57, 95
3, 213600, Note_on_c, 6, 65, 95
3, 213615, Note_on_c, 6, 62, 95
3, 213630, Note_on_c, 6, 57, 95
3, 214080, Note_off_c, 6, 65, 95
3, 214080, Note_off_c, 6, 62, 95
3, 214080, Note_off_c, 6, 57, 95
3, 214560, Note_on_c, 6, 65, 95
3, 214575, Note_on_c, 6, 62, 95
3, 214590, Note_on_c, 6, 57, 95
3, 215040, Note_off_c, 6, 65, 95
3, 215040, Note_off_c, 6, 62, 95
3, 215040, Note_off_c, 6, 57, 95
3, 215040, Note_on_c, 6, 50, 95
3, 215070, Note_on_c, 6, 59, 95
3, 215100, Note_on_c, 6, 62, 95
3, 215130, Note_on_c, 6, 67, 95
3, 216000, Note_off_c, 6, 67, 95
3, 216000, Note_off_c, 6, 62, 95
3, 216000, Note_off_c, 6, 59, 95
3, 216000, Note_off_c, 6, 50, 95
3, 216000, Note_on_c, 6, 50, 95
3, 216015, Note_on_c, 6, 59, 95
3, 216030, Note_on_c, 6, 62, 95
3, 216045, Note_on_c, 6, 67, 95
3, 216480, Note_off_c, 6, 67, 95
3, 216480, Note_off_c, 6, 62, 95
3, 216480, Note_off_c, 6, 59, 95
3, 216480, Note_off_c, 6, 50, 95
3, 216480, Note_on_c, 6, 67, 95
3, 216510, Note_on_c, 6, 62, 95
3, 216540, Note_on_c, 6, 59, 95
3, 217440, Note_off_c, 6, 67, 95
3, 217440, Note_off_c, 6, 62, 95
3, 217440, Note_off_c, 6, 59, 95
3, 217440, Note_on_c, 6, 67, 95
3, 217455, Note_on_c, 6, 62, 95
3, 217470, Note_on_c, 6, 59, 95
3, 217920, Note_off_c, 6, 67, 95
3, 217920, Note_off_c, 6, 62, 95
3, 217920, Note_off_c, 6, 59, 95
3, 218400, Note_on_c, 6, 67, 95
3, 218415, Note_on_c, 6, 62, 95
3, 218430, Note_on_c, 6, 59, 95
3, 218880, Note_off_c, 6, 67, 95
3, 218880, Note_off_c, 6, 62, 95
3, 218880, Note_off_c, 6, 59, 95
3, 218880, Note_on_c, 6, 50, 95
3, 218910, Note_on_c, 6, 59, 95
3, 218940, Note_on_c, 6, 62, 95
3, 218970, Note_on_c, 6, 67, 95
3, 219840, Note_off_c, 6, 67, 95
3, 219840, Note_off_c, 6, 62, 95
3, 219840, Note_off_c, 6, 59, 95
3, 219840, Note_off_c, 6, 50, 95
3, 219840, Note_on_c, 6, 50, 95
3, 219855, Note_on_c, 6, 59, 95
3, 219870, Note_on_c, 6, 62, 95
3, 219885, Note_on_c, 6, 67, 95
3, 220320, Note_off_c, 6, 67, 95
3, 220320, Note_off_c, 6, 62, 95
3, 220320, Note_off_c, 6, 59, 95
3, 220320, Note_off_c, 6, 50, 95
3, 220320, Note_on_c, 6, 67, 95
3, 220350, Note_on_c, 6, 62, 95
3, 220380, Note_on_c, 6, 59, 95
3, 221280, Note_off_c, 6, 67, 95
3, 221280, Note_off_c, 6, 62, 95
3, 221280, Note_off_c, 6, 59, 95
3, 221280, Note_on_c, 6, 67, 95
3, 221295, Note_on_c, 6, 62, 95
3, 221310, Note_on_c, 6, 59, 95
3, 221760, Note_off_c, 6, 67, 95
3, 221760, Note_off_c, 6, 62, 95
3, 221760, Note_off_c, 6, 59, 95
3, 222240, Note_on_c, 6, 67, 95
3, 222255, Note_on_c, 6, 62, 95
3, 222270, Note_on_c, 6, 59, 95
3, 222720, Note_off_c, 6, 67, 95
3, 222720, Note_off_c, 6, 62, 95
3, 222720, Note_off_c, 6, 59, 95
3, 222720, Note_on_c, 6, 48, 95
3, 222750, Note_on_c, 6, 52, 95
3, 222780, Note_on_c, 6, 55, 95
3, 222810, Note_on_c, 6, 60, 95
3, 222840, Note_on_c, 6, 64, 95
3, 223680, Note_off_c, 6, 64, 95
3, 223680, Note_off_c, 6, 60, 95
3, 223680, Note_off_c, 6, 55, 95
3, 223680, Note_off_c, 6, 52, 95
3, 223680, Note_off_c, 6, 48, 95
3, 223680, Note_on_c, 6, 48, 95
3, 223695, Note_on_c, 6, 52, 95
3, 223710, Note_on_c, 6, 55, 95
3, 223725, Note_on_c, 6, 60, 95
3, 224160, Note_off_c, 6, 60, 95
3, 224160, Note_off_c, 6, 55, 95
3, 224160, Note_off_c, 6, 52, 95
3, 224160, Note_off_c, 6, 48, 95
3, 224160, Note_on_c, 6, 64, 95
3, 224190, Note_on_c, 6, 60, 95
3, 224220, Note_on_c, 6, 55, 95
3, 225120, Note_off_c, 6, 64, 95
3, 225120, Note_off_c, 6, 60, 95
3, 225120, Note_off_c, 6, 55, 95
3, 225120, Note_on_c, 6, 64, 95
3, 225135, Note_on_c, 6, 60, 95
3, 225150, Note_on_c, 6, 55, 95
3, 225600, Note_off_c, 6, 64, 95
3, 225600, Note_off_c, 6, 60, 95
3, 225600, Note_off_c, 6, 55, 95
3, 226080, Note_on_c, 6, 64, 95
3, 226095, Note_on_c, 6, 60, 95
3, 226110, Note_on_c, 6, 55, 95
3, 226560, Note_off_c, 6, 64, 95
3, 226560, Note_off_c, 6, 60, 95
3, 226560, Note_off_c, 6, 55, 95
3, 226560, Note_on_c, 6, 48, 95
3, 226590, Note_on_c, 6, 52, 95
3, 226620, Note_on_c, 6, 55, 95
3, 226650, Note_on_c, 6, 60, 95
3, 226680, Note_on_c, 6, 64, 95
3, 227520, Note_off_c, 6, 64, 95
3, 227520, Note_off_c, 6, 60, 95
3, 227520, Note_off_c, 6, 55, 95
3, 227520, Note_off_c, 6, 52, 95
3, 227520, Note_off_c, 6, 48, 95
3, 227520, Note_on_c, 6, 48, 95
3, 227535, Note_on_c, 6, 52, 95
3, 227550, Note_on_c, 6, 55, 95
3, 227565, Note_on_c, 6, 60, 95
3, 228000, Note_off_c, 6, 60, 95
3, 228000, Note_off_c, 6, 55, 95
3, 228000, Note_off_c, 6, 52, 95
3, 228000, Note_off_c, 6, 48, 95
3, 228000, Note_on_c, 6, 64, 95
3, 228030, Note_on_c, 6, 60, 95
3, 228060, Note_on_c, 6, 55, 95
3, 228960, Note_off_c, 6, 64, 95
3, 228960, Note_off_c, 6, 60, 95
3, 228960, Note_off_c, 6, 55, 95
3, 228960, Note_on_c, 6, 64, 95
3, 228975, Note_on_c, 6, 60, 95
3, 228990, Note_on_c, 6, 55, 95
3, 229440, Note_off_c, 6, 64, 95
3, 229440, Note_off_c, 6, 60, 95
3, 229440, Note_off_c, 6, 55, 95
3, 229920, Note_on_c, 6, 64, 95
3, 229935, Note_on_c, 6, 60, 95
3, 229950, Note_on_c, 6, 55, 95
3, 230400, Note_off_c, 6, 64, 95
3, 230400, Note_off_c, 6, 60, 95
3, 230400, Note_off_c, 6, 55, 95
3, 230400, Note_on_c, 6, 48, 95
3, 230460, Note_on_c, 6, 52, 95
3, 230520, Note_on_c, 6, 55, 95
3, 230580, Note_on_c, 6, 60, 95
3, 230640, Note_on_c, 6, 64, 95
3, 231360, Note_off_c, 6, 64, 95
3, 231360, Note_off_c, 6, 60, 95
3, 231360, Note_off_c, 6, 55, 95
3, 231360, Note_off_c, 6, 52, 95
3, 231360, Note_off_c, 6, 48, 95
3, 231360, Note_on_c, 6, 48, 95
3, 231375, Note_on_c, 6, 52, 95
3, 231390, Note_on_c, 6, 55, 95
3, 231840, Note_off_c, 6, 55, 95
3, 231840, Note_off_c, 6, 52, 95
3, 231840, Note_off_c, 6, 48, 95
3, 231840, Note_on_c, 6, 64, 95
3, 231855, Note_on_c, 6, 60, 95
3, 231870, Note_on_c, 6, 55, 95
3, 232320, Note_off_c, 6, 64, 95
3, 232320, Note_off_c, 6, 60, 95
3, 232320, Note_off_c, 6, 55, 95
3, 232320, Note_on_c, 6, 47, 95
3, 232380, Note_on_c, 6, 52, 95
3, 232440, Note_on_c, 6, 55, 95
3, 232500, Note_on_c, 6, 59, 95
3, 233280, Note_off_c, 6, 59, 95
3, 233280, Note_off_c, 6, 55, 95
3, 233280, Note_off_c, 6, 52, 95
3, 233280, Note_off_c, 6, 47, 95
3, 233280, Note_on_c, 6, 64, 95
3, 233295, Note_on_c, 6, 59, 95
3, 233310, Note_on_c, 6, 55, 95
3, 233760, Note_off_c, 6, 64, 95
3, 233760, Note_off_c, 6, 59, 95
3, 233760, Note_off_c, 6, 55, 95
3, 233760, Note_on_c, 6, 64, 95
3, 233775, Note_on_c, 6, 59, 95
3, 233790, Note_on_c, 6, 55, 95
3, 234240, Note_off_c, 6, 64, 95
3, 234240, Note_off_c, 6, 59, 95
3, 234240, Note_off_c, 6, 55, 95
3, 234240, Note_on_c, 6, 45, 95
3, 234270, Note_on_c, 6, 52, 95
3, 234300, Note_on_c, 6, 57, 95
3, 234330, Note_on_c, 6, 60, 95
3, 234360, Note_on_c, 6, 64, 95
3, 235200, Note_off_c, 6, 64, 95
3, 235200, Note_off_c, 6, 60, 95
3, 235200, Note_off_c, 6, 57, 95
3, 235200, Note_off_c, 6, 52, 95
3, 235200, Note_off_c, 6, 45, 95
3, 235200, Note_on_c, 6, 45, 95
3, 235215, Note_on_c, 6, 52, 95
3, 235230, Note_on_c, 6, 57, 95
3, 235245, Note_on_c, 6, 60, 95
3, 235680, Note_off_c, 6, 60, 95
3, 235680, Note_off_c, 6, 57, 95
3, 235680, Note_off_c, 6, 52, 95
3, 235680, Note_off_c, 6, 45, 95
3, 235680, Note_on_c, 6, 64, 95
3, 235695, Note_on_c, 6, 60, 95
3, 235710, Note_on_c, 6, 57, 95
3, 236160, Note_off_c, 6, 64, 95
3, 236160, Note_off_c, 6, 60, 95
3, 236160, Note_off_c, 6, 57, 95
3, 236160, Note_on_c, 6, 64, 95
3, 236180, Note_on_c, 6, 60, 95
3, 236200, Note_on_c, 6, 57, 95
3, 236800, Note_off_c, 6, 64, 95
3, 236800, Note_off_c, 6, 60, 95
3, 236800, Note_off_c, 6, 57, 95
3, 236800, Note_on_c, 6, 64, 95
3, 236820, Note_on_c, 6, 60, 95
3, 236840, Note_on_c, 6, 57, 95
3, 237440, Note_off_c, 6, 64, 95
3, 237440, Note_off_c, 6, 60, 95
3, 237440, Note_off_c, 6, 57, 95
3, 237440, Note_on_c, 6, 64, 95
3, 237460, Note_on_c, 6, 60, 95
3, 237480, Note_on_c, 6, 57, 95
3, 238080, Note_off_c, 6, 64, 95
3, 238080, Note_off_c, 6, 60, 95
3, 238080, Note_off_c, 6, 57, 95
3, 238080, Note_on_c, 6, 48, 95
3, 238110, Note_on_c, 6, 53, 95
3, 238140, Note_on_c, 6, 57, 95
3, 238170, Note_on_c, 6, 60, 95
3, 238200, Note_on_c, 6, 65, 95
3, 239040, Note_off_c, 6, 65, 95
3, 239040, Note_off_c, 6, 60, 95
3, 239040, Note_off_c, 6, 57, 95
3, 239040, Note_off_c, 6, 53, 95
3, 239040, Note_off_c, 6, 48, 95
3, 239040, Note_on_c, 6, 48, 95
3, 239055, Note_on_c, 6, 53, 95
3, 239070, Note_on_c, 6, 57, 95
3, 239085, Note_on_c, 6, 60, 95
3, 239520, Note_off_c, 6, 60, 95
3, 239520, Note_off_c, 6, 57, 95
3, 239520, Note_off_c, 6, 53, 95
3, 239520, Note_off_c, 6, 48, 95
3, 239520, Note_on_c, 6, 65, 95
3, 239550, Note_on_c, 6, 60, 95
3, 239580, Note_on_c, 6, 57, 95
3, 240480, Note_off_c, 6, 65, 95
3, 240480, Note_off_c, 6, 60, 95
3, 240480, Note_off_c, 6, 57, 95
3, 240480, Note_on_c, 6, 65, 95
3, 240495, Note_on_c, 6, 60, 95
3, 240510, Note_on_c, 6, 57, 95
3, 240960, Note_off_c, 6, 65, 95
3, 240960, Note_off_c, 6, 60, 95
3, 240960, Note_off_c, 6, 57, 95
3, 241440, Note_on_c, 6, 65, 95
3, 241455, Note_on_c, 6, 60, 95
3, 241470, Note_on_c, 6, 57, 95
3, 241920, Note_off_c, 6, 65, 95
3, 241920, Note_off_c, 6, 60, 95
3, 241920, Note_off_c, 6, 57, 95
3, 241920, Note_on_c, 6, 50, 95
3, 241950, Note_on_c, 6, 57, 95
3, 241980, Note_on_c, 6, 62, 95
3, 242010, Note_on_c, 6, 65, 95
3, 242880, Note_off_c, 6, 65, 95
3, 242880, Note_off_c, 6, 62, 95
3, 242880, Note_off_c, 6, 57, 95
3, 242880, Note_off_c, 6, 50, 95
3, 242880, Note_on_c, 6, 50, 95
3, 242895, Note_on_c, 6, 57, 95
3, 242910, Note_on_c, 6, 62, 95
3, 242925, Note_on_c, 6, 65, 95
3, 243360, Note_off_c, 6, 65, 95
3, 243360, Note_off_c, 6, 62, 95
3, 243360, Note_off_c, 6, 57, 95
3, 243360, Note_off_c, 6, 50, 95
3, 243360, Note_on_c, 6, 65, 95
3, 243390, Note_on_c, 6, 62, 95
3, 243420, Note_on_c, 6, 57, 95
3, 244320, Note_off_c, 6, 65, 95
3, 244320, Note_off_c, 6, 62, 95
3, 244320, Note_off_c, 6, 57, 95
3, 244320, Note_on_c, 6, 65, 95
3, 244335, Note_on_c, 6, 62, 95
3, 244350, Note_on_c, 6, 57, 95
3, 244800, Note_off_c, 6, 65, 95
3, 244800, Note_off_c, 6, 62, 95
3, 244800, Note_off_c, 6, 57, 95
3, 245280, Note_on_c, 6, 65, 95
3, 245295, Note_on_c, 6, 62, 95
3, 245310, Note_on_c, 6, 57, 95
3, 245760, Note_off_c, 6, 65, 95
3, 245760, Note_off_c, 6, 62, 95
3, 245760, Note_off_c, 6, 57, 95
3, 245760, Note_on_c, 6, 50, 95
3, 245790, Note_on_c, 6, 59, 95
3, 245820, Note_on_c, 6, 62, 95
3, 245850, Note_on_c, 6, 67, 95
3, 246720, Note_off_c, 6, 67, 95
3, 246720, Note_off_c, 6, 62, 95
3, 246720, Note_off_c, 6, 59, 95
3, 246720, Note_off_c, 6, 50, 95
3, 246720, Note_on_c, 6, 50, 95
3, 246735, Note_on_c, 6, 59, 95
3, 246750, Note_on_c, 6, 62, 95
3, 246765, Note_on_c, 6, 67, 95
3, 247200, Note_off_c, 6, 67, 95
3, 247200, Note_off_c, 6, 62, 95
3, 247200, Note_off_c, 6, 59, 95
3, 247200, Note_off_c, 6, 50, 95
3, 247200, Note_on_c, 6, 67, 95
3, 247230, Note_on_c, 6, 62, 95
3, 247260, Note_on_c, 6, 59, 95
3, 248160, Note_off_c, 6, 67, 95
3, 248160, Note_off_c, 6, 62, 95
3, 248160, Note_off_c, 6, 59, 95
3, 248160, Note_on_c, 6, 67, 95
3, 248175, Note_on_c, 6, 62, 95
3, 248190, Note_on_c, 6, 59, 95
3, 248640, Note_off_c, 6, 67, 95
3, 248640, Note_off_c, 6, 62, 95
3, 248640, Note_off_c, 6, 59, 95
3, 249120, Note_on_c, 6, 67, 95
3, 249135, Note_on_c, 6, 62, 95
3, 249150, Note_on_c, 6, 59, 95
3, 249600, Note_off_c, 6, 67, 95
3, 249600, Note_off_c, 6, 62, 95
3, 249600, Note_off_c, 6, 59, 95
3, 249600, Note_on_c, 6, 50, 95
3, 249630, Note_on_c, 6, 59, 95
3, 249660, Note_on_c, 6, 62, 95
3, 249690, Note_on_c, 6, 67, 95
3, 250560, Note_off_c, 6, 67, 95
3, 250560, Note_off_c, 6, 62, 95
3, 250560, Note_off_c, 6, 59, 95
3, 250560, Note_off_c, 6, 50, 95
3, 250560, Note_on_c, 6, 50, 95
3, 250575, Note_on_c, 6, 59, 95
3, 250590, Note_on_c, 6, 62, 95
3, 250605, Note_on_c, 6, 67, 95
3, 251040, Note_off_c, 6, 67, 95
3, 251040, Note_off_c, 6, 62, 95
3, 251040, Note_off_c, 6, 59, 95
3, 251040, Note_off_c, 6, 50, 95
3, 251040, Note_on_c, 6, 67, 95
3, 251070, Note_on_c, 6, 62, 95
3, 251100, Note_on_c, 6, 59, 95
3, 252000, Note_off_c, 6, 67, 95
3, 252000, Note_off_c, 6, 62, 95
3, 252000, Note_off_c, 6, 59, 95
3, 252000, Note_on_c, 6, 67, 95
3, 252015, Note_on_c, 6, 62, 95
3, 252030, Note_on_c, 6, 59, 95
3, 252480, Note_off_c, 6, 67, 95
3, 252480, Note_off_c, 6, 62, 95
3, 252480, Note_off_c, 6, 59, 95
3, 252960, Note_on_c, 6, 67, 95
3, 252975, Note_on_c, 6, 62, 95
3, 252990, Note_on_c, 6, 59, 95
3, 253440, Note_off_c, 6, 67, 95
3, 253440, Note_off_c, 6, 62, 95
3, 253440, Note_off_c, 6, 59, 95
3, 253440, Note_on_c, 6, 48, 95
3, 253470, Note_on_c, 6, 52, 95
3, 253500, Note_on_c, 6, 55, 95
3, 253530, Note_on_c, 6, 60, 95
3, 253560, Note_on_c, 6, 64, 95
3, 254400, Note_off_c, 6, 64, 95
3, 254400, Note_off_c, 6, 60, 95
3, 254400, Note_off_c, 6, 55, 95
3, 254400, Note_off_c, 6, 52, 95
3, 254400, Note_off_c, 6, 48, 95
3, 254400, Note_on_c, 6, 48, 95
3, 254415, Note_on_c, 6, 52, 95
3, 254430, Note_on_c, 6, 55, 95
3, 254445, Note_on_c, 6, 60, 95
3, 254880, Note_off_c, 6, 60, 95
3, 254880, Note_off_c, 6, 55, 95
3, 254880, Note_off_c, 6, 52, 95
3, 254880, Note_off_c, 6, 48, 95
3, 254880, Note_on_c, 6, 64, 95
3, 254910, Note_on_c, 6, 60, 95
3, 254940, Note_on_c, 6, 55, 95
3, 255840, Note_off_c, 6, 64, 95
3, 255840, Note_off_c, 6, 60, 95
3, 255840, Note_off_c, 6, 55, 95
3, 255840, Note_on_c, 6, 64, 95
3, 255855, Note_on_c, 6, 60, 95
3, 255870, Note_on_c, 6, 55, 95
3, 256320, Note_off_c, 6, 64, 95
3, 256320, Note_off_c, 6, 60, 95
3, 256320, Note_off_c, 6, 55, 95
3, 256800, Note_on_c, 6, 64, 95
3, 256815, Note_on_c, 6, 60, 95
3, 256830, Note_on_c, 6, 55, 95
3, 257280, Note_off_c, 6, 64, 95
3, 257280, Note_off_c, 6, 60, 95
3, 257280, Note_off_c, 6, 55, 95
3, 257280, Note_on_c, 6, 48, 95
3, 257310, Note_on_c, 6, 52, 95
3, 257340, Note_on_c, 6, 55, 95
3, 257370, Note_on_c, 6, 60, 95
3, 257400, Note_on_c, 6, 64, 95
3, 258240, Note_off_c, 6, 64, 95
3, 258240, Note_off_c, 6, 60, 95
3, 258240, Note_off_c, 6, 55, 95
3, 258240, Note_off_c, 6, 52, 95
3, 258240, Note_off_c, 6, 48, 95
3, 258240, Note_on_c, 6, 48, 95
3, 258255, Note_on_c, 6, 52, 95
3, 258270, Note_on_c, 6, 55, 95
3, 258285, Note_on_c, 6, 60, 95
3, 258720, Note_off_c, 6, 60, 95
3, 258720, Note_off_c, 6, 55, 95
3, 258720, Note_off_c, 6, 52, 95
3, 258720, Note_off_c, 6, 48, 95
3, 258720, Note_on_c, 6, 64, 95
3, 258750, Note_on_c, 6, 60, 95
3, 258780, Note_on_c, 6, 55, 95
3, 259680, Note_off_c, 6, 64, 95
3, 259680, Note_off_c, 6, 60, 95
3, 259680, Note_off_c, 6, 55, 95
3, 259680, Note_on_c, 6, 64, 95
3, 259695, Note_on_c, 6, 60, 95
3, 259710, Note_on_c, 6, 55, 95
3, 260160, Note_off_c, 6, 64, 95
3, 260160, Note_off_c, 6, 60, 95
3, 260160, Note_off_c, 6, 55, 95
3, 260640, Note_on_c, 6, 64, 95
3, 260655, Note_on_c, 6, 60, 95
3, 260670, Note_on_c, 6, 55, 95
3, 261120, Note_off_c, 6, 64, 95
3, 261120, Note_off_c, 6, 60, 95
3, 261120, Note_off_c, 6, 55, 95
3, 261120, Note_on_c, 6, 48, 95
3, 261180, Note_on_c, 6, 52, 95
3, 261240, Note_on_c, 6, 55, 95
3, 261300, Note_on_c, 6, 60, 95
3, 261360, Note_on_c, 6, 64, 95
3, 262080, Note_off_c, 6, 64, 95
3, 262080, Note_off_c, 6, 60, 95
3, 262080, Note_off_c, 6, 55, 95
3, 262080, Note_off_c, 6, 52, 95
3, 262080, Note_off_c, 6, 48, 95
3, 262080, Note_on_c, 6, 48, 95
3, 262095, Note_on_c, 6, 52, 95
3, 262110, Note_on_c, 6, 55, 95
3, 262560, Note_off_c, 6, 55, 95
3, 262560, Note_off_c, 6, 52, 95
3, 262560, Note_off_c, 6, 48, 95
3, 262560, Note_on_c, 6, 64, 95
3, 262575, Note_on_c, 6, 60, 95
3, 262590, Note_on_c, 6, 55, 95
3, 263040, Note_off_c, 6, 64, 95
3, 263040, Note_off_c, 6, 60, 95
3, 263040, Note_off_c, 6, 55, 95
3, 263040, Note_on_c, 6, 48, 95
3, 263100, Note_on_c, 6, 52, 95
3, 263160, Note_on_c, 6, 55, 95
3, 263220, Note_on_c, 6, 60, 95
3, 264000, Note_off_c, 6, 60, 95
3, 264000, Note_off_c, 6, 55, 95
3, 264000, Note_off_c, 6, 52, 95
3, 264000, Note_off_c, 6, 48, 95
3, 264000, Note_on_c, 6, 64, 95
3, 264015, Note_on_c, 6, 60, 95
3, 264030, Note_on_c, 6, 55, 95
3, 264480, Note_off_c, 6, 64, 95
3, 264480, Note_off_c, 6, 60, 95
3, 264480, Note_off_c, 6, 55, 95
3, 264480, Note_on_c, 6, 64, 95
3, 264495, Note_on_c, 6, 60, 95
3, 264510, Note_on_c, 6, 55, 95
3, 264960, Note_off_c, 6, 64, 95
3, 264960, Note_off_c, 6, 60, 95
3, 264960, Note_off_c, 6, 55, 95
3, 264960, Note_on_c, 6, 40, 95
3, 265020, Note_on_c, 6, 47, 95
3, 265080, Note_on_c, 6, 52, 95
3, 265140, Note_on_c, 6, 55, 95
3, 265200, Note_on_c, 6, 59, 95
3, 265260, Note_on_c, 6, 64, 95
3, 265920, Note_off_c, 6, 64, 95
3, 265920, Note_off_c, 6, 59, 95
3, 265920, Note_off_c, 6, 55, 95
3, 265920, Note_off_c, 6, 52, 95
3, 265920, Note_off_c, 6, 47, 95
3, 265920, Note_off_c, 6, 40, 95
3, 265920, Note_on_c, 6, 47, 95
3, 265935, Note_on_c, 6, 52, 95
3, 265950, Note_on_c, 6, 55, 95
3, 266400, Note_off_c, 6, 55, 95
3, 266400, Note_off_c, 6, 52, 95
3, 266400, Note_off_c, 6, 47, 95
3, 266400, Note_on_c, 6, 64, 95
3, 266415, Note_on_c, 6, 59, 95
3, 266430, Note_on_c, 6, 55, 95
3, 266880, Note_off_c, 6, 64, 95
3, 266880, Note_off_c, 6, 59, 95
3, 266880, Note_off_c, 6, 55, 95
3, 266880, Note_on_c, 6, 45, 95
3, 266940, Note_on_c, 6, 52, 95
3, 267000, Note_on_c, 6, 55, 95
3, 267060, Note_on_c, 6, 59, 95
3, 267840, Note_off_c, 6, 59, 95
3, 267840, Note_off_c, 6, 55, 95
3, 267840, Note_off_c, 6, 52, 95
3, 267840, Note_off_c, 6, 45, 95
3, 267840, Note_on_c, 6, 64, 95
3, 267855, Note_on_c, 6, 59, 95
3, 267870, Note_on_c, 6, 55, 95
3, 268320, Note_off_c, 6, 64, 95
3, 268320, Note_off_c, 6, 59, 95
3, 268320, Note_off_c, 6, 55, 95
3, 268320, Note_on_c, 6, 64, 95
3, 268335, Note_on_c, 6, 59, 95
3, 268350, Note_on_c, 6, 55, 95
3, 268800, Note_off_c, 6, 64, 95
3, 268800, Note_off_c, 6, 59, 95
3, 268800, Note_off_c, 6, 55, 95
3, 268800, Note_on_c, 6, 45, 95
3, 268860, Note_on_c, 6, 52, 95
3, 268920, Note_on_c, 6, 57, 95
3, 268980, Note_on_c, 6, 60, 95
3, 269040, Note_on_c, 6, 64, 95
3, 269760, Note_off_c, 6, 64, 95
3, 269760, Note_off_c, 6, 60, 95
3, 269760, Note_off_c, 6, 57, 95
3, 269760, Note_off_c, 6, 52, 95
3, 269760, Note_off_c, 6, 45, 95
3, 269760, Note_on_c, 6, 45, 95
3, 269775, Note_on_c, 6, 52, 95
3, 269790, Note_on_c, 6, 57, 95
3, 270240, Note_off_c, 6, 57, 95
3, 270240, Note_off_c, 6, 52, 95
3, 270240, Note_off_c, 6, 45, 95
3, 270240, Note_on_c, 6, 64, 95
3, 270255, Note_on_c, 6, 60, 95
3, 270270, Note_on_c, 6, 57, 95
3, 270720, Note_off_c, 6, 64, 95
3, 270720, Note_off_c, 6, 60, 95
3, 270720, Note_off_c, 6, 57, 95
3, 270720, Note_on_c, 6, 45, 95
3, 270780, Note_on_c, 6, 52, 95
3, 270840, Note_on_c, 6, 57, 95
3, 270900, Note_on_c, 6, 60, 95
3, 271680, Note_off_c, 6, 60, 95
3, 271680, Note_off_c, 6, 57, 95
3, 271680, Note_off_c, 6, 52, 95
3, 271680, Note_off_c, 6, 45, 95
3, 271680, Note_on_c, 6, 64, 95
3, 271695, Note_on_c, 6, 60, 95
3, 271710, Note_on_c, 6, 57, 95
3, 272160, Note_off_c, 6, 64, 95
3, 272160, Note_off_c, 6, 60, 95
3, 272160, Note_off_c, 6, 57, 95
3, 272160, Note_on_c, 6, 64, 95
3, 272175, Note_on_c, 6, 60, 95
3, 272190, Note_on_c, 6, 57, 95
3, 272640, Note_off_c, 6, 64, 95
3, 272640, Note_off_c, 6, 60, 95
3, 272640, Note_off_c, 6, 57, 95
3, 272640, Note_on_c, 6, 48, 95
3, 272670, Note_on_c, 6, 53, 95
3, 272700, Note_on_c, 6, 57, 95
3, 272730, Note_on_c, 6, 60, 95
3, 272760, Note_on_c, 6, 65, 95
3, 273600, Note_off_c, 6, 65, 95
3, 273600, Note_off_c, 6, 60, 95
3, 273600, Note_off_c, 6, 57, 95
3, 273600, Note_off_c, 6, 53, 95
3, 273600, Note_off_c, 6, 48, 95
3, 273600, Note_on_c, 6, 48, 95
3, 273615, Note_on_c, 6, 53, 95
3, 273630, Note_on_c, 6, 57, 95
3, 273645, Note_on_c, 6, 60, 95
3, 274080, Note_off_c, 6, 60, 95
3, 274080, Note_off_c, 6, 57, 95
3, 274080, Note_off_c, 6, 53, 95
3, 274080, Note_off_c, 6, 48, 95
3, 274080, Note_on_c, 6, 65, 95
3, 274110, Note_on_c, 6, 60, 95
3, 274140, Note_on_c, 6, 57, 95
3, 275040, Note_off_c, 6, 65, 95
3, 275040, Note_off_c, 6, 60, 95
3, 275040, Note_off_c, 6, 57, 95
3, 275040, Note_on_c, 6, 65, 95
3, 275055, Note_on_c, 6, 60, 95
3, 275070, Note_on_c, 6, 57, 95
3, 275520, Note_off_c, 6, 65, 95
3, 275520, Note_off_c, 6, 60, 95
3, 275520, Note_off_c, 6, 57, 95
3, 276000, Note_on_c, 6, 65, 95
3, 276015, Note_on_c, 6, 60, 95
3, 276030, Note_on_c, 6, 57, 95
3, 276480, Note_off_c, 6, 65, 95
3, 276480, Note_off_c, 6, 60, 95
3, 276480, Note_off_c, 6, 57, 95
3, 276480, Note_on_c, 6, 50, 95
3, 276510, Note_on_c, 6, 59, 95
3, 276540, Note_on_c, 6, 62, 95
3, 276570, Note_on_c, 6, 67, 95
3, 277440, Note_off_c, 6, 67, 95
3, 277440, Note_off_c, 6, 62, 95
3, 277440, Note_off_c, 6, 59, 95
3, 277440, Note_off_c, 6, 50, 95
3, 277440, Note_on_c, 6, 50, 95
3, 277455, Note_on_c, 6, 59, 95
3, 277470, Note_on_c, 6, 62, 95
3, 277485, Note_on_c, 6, 67, 95
3, 277920, Note_off_c, 6, 67, 95
3, 277920, Note_off_c, 6, 62, 95
3, 277920, Note_off_c, 6, 59, 95
3, 277920, Note_off_c, 6, 50, 95
3, 277920, Note_on_c, 6, 67, 95
3, 277950, Note_on_c, 6, 62, 95
3, 277980, Note_on_c, 6, 59, 95
3, 278880, Note_off_c, 6, 67, 95
3, 278880, Note_off_c, 6, 62, 95
3, 278880, Note_off_c, 6, 59, 95
3, 278880, Note_on_c, 6, 67, 95
3, 278895, Note_on_c, 6, 62, 95
3, 278910, Note_on_c, 6, 59, 95
3, 279360, Note_off_c, 6, 67, 95
3, 279360, Note_off_c, 6, 62, 95
3, 279360, Note_off_c, 6, 59, 95
3, 279840, Note_on_c, 6, 67, 95
3, 279855, Note_on_c, 6, 62, 95
3, 279870, Note_on_c, 6, 59, 95
3, 280320, Note_off_c, 6, 67, 95
3, 280320, Note_off_c, 6, 62, 95
3, 280320, Note_off_c, 6, 59, 95
3, 280320, Note_on_c, 6, 50, 95
3, 280350, Note_on_c, 6, 59, 95
3, 280380, Note_on_c, 6, 62, 95
3, 280410, Note_on_c, 6, 67, 95
3, 281280, Note_off_c, 6, 67, 95
3, 281280, Note_off_c, 6, 62, 95
3, 281280, Note_off_c, 6, 59, 95
3, 281280, Note_off_c, 6, 50, 95
3, 281280, Note_on_c, 6, 50, 95
3, 281295, Note_on_c, 6, 59, 95
3, 281310, Note_on_c, 6, 62, 95
3, 281325, Note_on_c, 6, 67, 95
3, 281760, Note_off_c, 6, 67, 95
3, 281760, Note_off_c, 6, 62, 95
3, 281760, Note_off_c, 6, 59, 95
3, 281760, Note_off_c, 6, 50, 95
3, 281760, Note_on_c, 6, 67, 95
3, 281790, Note_on_c, 6, 62, 95
3, 281820, Note_on_c, 6, 59, 95
3, 282720, Note_off_c, 6, 67, 95
3, 282720, Note_off_c, 6, 62, 95
3, 282720, Note_off_c, 6, 59, 95
3, 282720, Note_on_c, 6, 67, 95
3, 282735, Note_on_c, 6, 62, 95
3, 282750, Note_on_c, 6, 59, 95
3, 283200, Note_off_c, 6, 67, 95
3, 283200, Note_off_c, 6, 62, 95
3, 283200, Note_off_c, 6, 59, 95
3, 283680, Note_on_c, 6, 67, 95
3, 283695, Note_on_c, 6, 62, 95
3, 283710, Note_on_c, 6, 59, 95
3, 284160, Note_off_c, 6, 67, 95
3, 284160, Note_off_c, 6, 62, 95
3, 284160, Note_off_c, 6, 59, 95
3, 284160, Note_on_c, 6, 48, 95
3, 284190, Note_on_c, 6, 52, 95
3, 284220, Note_on_c, 6, 55, 95
3, 284250, Note_on_c, 6, 60, 95
3, 284280, Note_on_c, 6, 64, 95
3, 285120, Note_off_c, 6, 64, 95
3, 285120, Note_off_c, 6, 60, 95
3, 285120, Note_off_c, 6, 55, 95
3, 285120, Note_off_c, 6, 52, 95
3, 285120, Note_off_c, 6, 48, 95
3, 285120, Note_on_c, 6, 48, 95
3, 285135, Note_on_c, 6, 52, 95
3, 285150, Note_on_c, 6, 55, 95
3, 285165, Note_on_c, 6, 60, 95
3, 285600, Note_off_c, 6, 60, 95
3, 285600, Note_off_c, 6, 55, 95
3, 285600, Note_off_c, 6, 52, 95
3, 285600, Note_off_c, 6, 48, 95
3, 285600, Note_on_c, 6, 64, 95
3, 285630, Note_on_c, 6, 60, 95
3, 285660, Note_on_c, 6, 55, 95
3, 286560, Note_off_c, 6, 64, 95
3, 286560, Note_off_c, 6, 60, 95
3, 286560, Note_off_c, 6, 55, 95
3, 286560, Note_on_c, 6, 64, 95
3, 286575, Note_on_c, 6, 60, 95
3, 286590, Note_on_c, 6, 55, 95
3, 287040, Note_off_c, 6, 64, 95
3, 287040, Note_off_c, 6, 60, 95
3, 287040, Note_off_c, 6, 55, 95
3, 287520, Note_on_c, 6, 64, 95
3, 287535, Note_on_c, 6, 60, 95
3, 287550, Note_on_c, 6, 55, 95
3, 288000, Note_off_c, 6, 64, 95
3, 288000, Note_off_c, 6, 60, 95
3, 288000, Note_off_c, 6, 55, 95
3, 288000, Note_on_c, 6, 48, 95
3, 288030, Note_on_c, 6, 52, 95
3, 288060, Note_on_c, 6, 55, 95
3, 288090, Note_on_c, 6, 60, 95
3, 288120, Note_on_c, 6, 64, 95
3, 288960, Note_off_c, 6, 64, 95
3, 288960, Note_off_c, 6, 60, 95
3, 288960, Note_off_c, 6, 55, 95
3, 288960, Note_off_c, 6, 52, 95
3, 288960, Note_off_c, 6, 48, 95
3, 288960, Note_on_c, 6, 48, 95
3, 288975, Note_on_c, 6, 52, 95
3, 288990, Note_on_c, 6, 55, 95
3, 289005, Note_on_c, 6, 60, 95
3, 289440, Note_off_c, 6, 60, 95
3, 289440, Note_off_c, 6, 55, 95
3, 289440, Note_off_c, 6, 52, 95
3, 289440, Note_off_c, 6, 48, 95
3, 289440, Note_on_c, 6, 64, 95
3, 289470, Note_on_c, 6, 60, 95
3, 289500, Note_on_c, 6, 55, 95
3, 290400, Note_off_c, 6, 64, 95
3, 290400, Note_off_c, 6, 60, 95
3, 290400, Note_off_c, 6, 55, 95
3, 290400, Note_on_c, 6, 64, 95
3, 290415, Note_on_c, 6, 60, 95
3, 290430, Note_on_c, 6, 55, 95
3, 290880, Note_off_c, 6, 64, 95
3, 290880, Note_off_c, 6, 60, 95
3, 290880, Note_off_c, 6, 55, 95
3, 291360, Note_on_c, 6, 64, 95
3, 291375, Note_on_c, 6, 60, 95
3, 291390, Note_on_c, 6, 55, 95
3, 291840, Note_off_c, 6, 64, 95
3, 291840, Note_off_c, 6, 60, 95
3, 291840, Note_off_c, 6, 55, 95
3, 291840, Note_on_c, 6, 48, 95
3, 291900, Note_on_c, 6, 52, 95
3, 291960, Note_on_c, 6, 55, 95
3, 292020, Note_on_c, 6, 60, 95
3, 292080, Note_on_c, 6, 64, 95
3, 292800, Note_off_c, 6, 64, 95
3, 292800, Note_off_c, 6, 60, 95
3, 292800, Note_off_c, 6, 55, 95
3, 292800, Note_off_c, 6, 52, 95
3, 292800, Note_off_c, 6, 48, 95
3, 292800, Note_on_c, 6, 48, 95
3, 292815, Note_on_c, 6, 52, 95
3, 292830, Note_on_c, 6, 55, 95
3, 293280, Note_off_c, 6, 55, 95
3, 293280, Note_off_c, 6, 52, 95
3, 293280, Note_off_c, 6, 48, 95
3, 293280, Note_on_c, 6, 64, 95
3, 293295, Note_on_c, 6, 60, 95
3, 293310, Note_on_c, 6, 55, 95
3, 293760, Note_off_c, 6, 64, 95
3, 293760, Note_off_c, 6, 60, 95
3, 293760, Note_off_c, 6, 55, 95
3, 293760, Note_on_c, 6, 48, 95
3, 293820, Note_on_c, 6, 52, 95
3, 293880, Note_on_c, 6, 55, 95
3, 293940, Note_on_c, 6, 60, 95
3, 294720, Note_off_c, 6, 60, 95
3, 294720, Note_off_c, 6, 55, 95
3, 294720, Note_off_c, 6, 52, 95
3, 294720, Note_off_c, 6, 48, 95
3, 294720, Note_on_c, 6, 64, 95
3, 294735, Note_on_c, 6, 60, 95
3, 294750, Note_on_c, 6, 55, 95
3, 295200, Note_off_c, 6, 64, 95
3, 295200, Note_off_c, 6, 60, 95
3, 295200, Note_off_c, 6, 55, 95
3, 295200, Note_on_c, 6, 64, 95
3, 295215, Note_on_c, 6, 60, 95
3, 295230, Note_on_c, 6, 55, 95
3, 295680, Note_off_c, 6, 64, 95
3, 295680, Note_off_c, 6, 60, 95
3, 295680, Note_off_c, 6, 55, 95
3, 295680, Note_on_c, 6, 40, 95
3, 295740, Note_on_c, 6, 47, 95
3, 295800, Note_on_c, 6, 52, 95
3, 295860, Note_on_c, 6, 55, 95
3, 295920, Note_on_c, 6, 59, 95
3, 295980, Note_on_c, 6, 64, 95
3, 296640, Note_off_c, 6, 64, 95
3, 296640, Note_off_c, 6, 59, 95
3, 296640, Note_off_c, 6, 55, 95
3, 296640, Note_off_c, 6, 52, 95
3, 296640, Note_off_c, 6, 47, 95
3, 296640, Note_off_c, 6, 40, 95
3, 296640, Note_on_c, 6, 47, 95
3, 296655, Note_on_c, 6, 52, 95
3, 296670, Note_on_c, 6, 55, 95
3, 297120, Note_off_c, 6, 55, 95
3, 297120, Note_off_c, 6, 52, 95
3, 297120, Note_off_c, 6, 47, 95
3, 297120, Note_on_c, 6, 64, 95
3, 297135, Note_on_c, 6, 59, 95
3, 297150, Note_on_c, 6, 55, 95
3, 297600, Note_off_c, 6, 64, 95
3, 297600, Note_off_c, 6, 59, 95
3, 297600, Note_off_c, 6, 55, 95
3, 297600, Note_on_c, 6, 45, 95
3, 297660, Note_on_c, 6, 52, 95
3, 297720, Note_on_c, 6, 55, 95
3, 297780, Note_on_c, 6, 59, 95
3, 298560, Note_off_c, 6, 59, 95
3, 298560, Note_off_c, 6, 55, 95
3, 298560, Note_off_c, 6, 52, 95
3, 298560, Note_off_c, 6, 45, 95
3, 298560, Note_on_c, 6, 64, 95
3, 298575, Note_on_c, 6, 59, 95
3, 298590, Note_on_c, 6, 55, 95
3, 299040, Note_off_c, 6, 64, 95
3, 299040, Note_off_c, 6, 59, 95
3, 299040, Note_off_c, 6, 55, 95
3, 299040, Note_on_c, 6, 64, 95
3, 299055, Note_on_c, 6, 59, 95
3, 299070, Note_on_c, 6, 55, 95
3, 299520, Note_off_c, 6, 64, 95
3, 299520, Note_off_c, 6, 59, 95
3, 299520, Note_off_c, 6, 55, 95
3, 299520, Note_on_c, 6, 45, 95
3, 299580, Note_on_c, 6, 52, 95
3, 299640, Note_on_c, 6, 57, 95
3, 299700, Note_on_c, 6, 60, 95
3, 299760, Note_on_c, 6, 64, 95
3, 300480, Note_off_c, 6, 64, 95
3, 300480, Note_off_c, 6, 60, 95
3, 300480, Note_off_c, 6, 57, 95
3, 300480, Note_off_c, 6, 52, 95
3, 300480, Note_off_c, 6, 45, 95
3, 300480, Note_on_c, 6, 45, 95
3, 300495, Note_on_c, 6, 52, 95
3, 300510, Note_on_c, 6, 57, 95
3, 300960, Note_off_c, 6, 57, 95
3, 300960, Note_off_c, 6, 52, 95
3, 300960, Note_off_c, 6, 45, 95
3, 300960, Note_on_c, 6, 64, 95
3, 300975, Note_on_c, 6, 60, 95
3, 300990, Note_on_c, 6, 57, 95
3, 301440, Note_off_c, 6, 64, 95
3, 301440, Note_off_c, 6, 60, 95
3, 301440, Note_off_c, 6, 57, 95
3, 301440, Note_on_c, 6, 45, 95
3, 301500, Note_on_c, 6, 52, 95
3, 301560, Note_on_c, 6, 57, 95
3, 301620, Note_on_c, 6, 60, 95
3, 302400, Note_off_c, 6, 60, 95
3, 302400, Note_off_c, 6, 57, 95
3, 302400, Note_off_c, 6, 52, 95
3, 302400, Note_off_c, 6, 45, 95
3, 302400, Note_on_c, 6, 64, 95
3, 302415, Note_on_c, 6, 60, 95
3, 302430, Note_on_c, 6, 57, 95
3, 302880, Note_off_c, 6, 64, 95
3, 302880, Note_off_c, 6, 60, 95
3, 302880, Note_off_c, 6, 57, 95
3, 302880, Note_on_c, 6, 64, 95
3, 302895, Note_on_c, 6, 60, 95
3, 302910, Note_on_c, 6, 57, 95
3, 303360, Note_off_c, 6, 64, 95
3, 303360, Note_off_c, 6, 60, 95
3, 303360, Note_off_c, 6, 57, 95
3, 303360, Note_on_c, 6, 48, 95
3, 303390, Note_on_c, 6, 53, 95
3, 303420, Note_on_c, 6, 57, 95
3, 303450, Note_on_c, 6, 60, 95
3, 303480, Note_on_c, 6, 65, 95
3, 304320, Note_off_c, 6, 65, 95
3, 304320, Note_off_c, 6, 60, 95
3, 304320, Note_off_c, 6, 57, 95
3, 304320, Note_off_c, 6, 53, 95
3, 304320, Note_off_c, 6, 48, 95
3, 304320, Note_on_c, 6, 48, 95
3, 304335, Note_on_c, 6, 53, 95
3, 304350, Note_on_c, 6, 57, 95
3, 304365, Note_on_c, 6, 60, 95
3, 304800, Note_off_c, 6, 60, 95
3, 304800, Note_off_c, 6, 57, 95
3, 304800, Note_off_c, 6, 53, 95
3, 304800, Note_off_c, 6, 48, 95
3, 304800, Note_on_c, 6, 65, 95
3, 304830, Note_on_c, 6, 60, 95
3, 304860, Note_on_c, 6, 57, 95
3, 305760, Note_off_c, 6, 65, 95
3, 305760, Note_off_c, 6, 60, 95
3, 305760, Note_off_c, 6, 57, 95
3, 305760, Note_on_c, 6, 65, 95
3, 305775, Note_on_c, 6, 60, 95
3, 305790, Note_on_c, 6, 57, 95
3, 306240, Note_off_c, 6, 65, 95
3, 306240, Note_off_c, 6, 60, 95
3, 306240, Note_off_c, 6, 57, 95
3, 306720, Note_on_c, 6, 65, 95
3, 306735, Note_on_c, 6, 60, 95
3, 306750, Note_on_c, 6, 57, 95
3, 307200, Note_off_c, 6, 65, 95
3, 307200, Note_off_c, 6, 60, 95
3, 307200, Note_off_c, 6, 57, 95
3, 307200, Note_on_c, 6, 50, 95
3, 307230, Note_on_c, 6, 59, 95
3, 307260, Note_on_c, 6, 62, 95
3, 307290, Note_on_c, 6, 67, 95
3, 308160, Note_off_c, 6, 67, 95
3, 308160, Note_off_c, 6, 62, 95
3, 308160, Note_off_c, 6, 59, 95
3, 308160, Note_off_c, 6, 50, 95
3, 308160, Note_on_c, 6, 50, 95
3, 308175, Note_on_c, 6, 59, 95
3, 308190, Note_on_c, 6, 62, 95
3, 308205, Note_on_c, 6, 67, 95
3, 308640, Note_off_c, 6, 67, 95
3, 308640, Note_off_c, 6, 62, 95
3, 308640, Note_off_c, 6, 59, 95
3, 308640, Note_off_c, 6, 50, 95
3, 308640, Note_on_c, 6, 67, 95
3, 308670, Note_on_c, 6, 62, 95
3, 308700, Note_on_c, 6, 59, 95
3, 309600, Note_off_c, 6, 67, 95
3, 309600, Note_off_c, 6, 62, 95
3, 309600, Note_off_c, 6, 59, 95
3, 309600, Note_on_c, 6, 67, 95
3, 309615, Note_on_c, 6, 62, 95
3, 309630, Note_on_c, 6, 59, 95
3, 310080, Note_off_c, 6, 67, 95
3, 310080, Note_off_c, 6, 62, 95
3, 310080, Note_off_c, 6, 59, 95
3, 310560, Note_on_c, 6, 67, 95
3, 310575, Note_on_c, 6, 62, 95
3, 310590, Note_on_c, 6, 59, 95
3, 311040, Note_off_c, 6, 67, 95
3, 311040, Note_off_c, 6, 62, 95
3, 311040, Note_off_c, 6, 59, 95
3, 311040, Note_on_c, 6, 50, 95
3, 311070, Note_on_c, 6, 59, 95
3, 311100, Note_on_c, 6, 62, 95
3, 311130, Note_on_c, 6, 67, 95
3, 312000, Note_off_c, 6, 67, 95
3, 312000, Note_off_c, 6, 62, 95
3, 312000, Note_off_c, 6, 59, 95
3, 312000, Note_off_c, 6, 50, 95
3, 312000, Note_on_c, 6, 50, 95
3, 312015, Note_on_c, 6, 59, 95
3, 312030, Note_on_c, 6, 62, 95
3, 312045, Note_on_c, 6, 67, 95
3, 312480, Note_off_c, 6, 67, 95
3, 312480, Note_off_c, 6, 62, 95
3, 312480, Note_off_c, 6, 59, 95
3, 312480, Note_off_c, 6, 50, 95
3, 312480, Note_on_c, 6, 67, 95
3, 312510, Note_on_c, 6, 62, 95
3, 312540, Note_on_c, 6, 59, 95
3, 313440, Note_off_c, 6, 67, 95
3, 313440, Note_off_c, 6, 62, 95
3, 313440, Note_off_c, 6, 59, 95
3, 313440, Note_on_c, 6, 67, 95
3, 313455, Note_on_c, 6, 62, 95
3, 313470, Note_on_c, 6, 59, 95
3, 313920, Note_off_c, 6, 67, 95
3, 313920, Note_off_c, 6, 62, 95
3, 313920, Note_off_c, 6, 59, 95
3, 314400, Note_on_c, 6, 67, 95
3, 314415, Note_on_c, 6, 62, 95
3, 314430, Note_on_c, 6, 59, 95
3, 314880, Note_off_c, 6, 67, 95
3, 314880, Note_off_c, 6, 62, 95
3, 314880, Note_off_c, 6, 59, 95
3, 314880, Note_on_c, 6, 48, 95
3, 314910, Note_on_c, 6, 52, 95
3, 314940, Note_on_c, 6, 55, 95
3, 314970, Note_on_c, 6, 60, 95
3, 315000, Note_on_c, 6, 64, 95
3, 315840, Note_off_c, 6, 64, 95
3, 315840, Note_off_c, 6, 60, 95
3, 315840, Note_off_c, 6, 55, 95
3, 315840, Note_off_c, 6, 52, 95
3, 315840, Note_off_c, 6, 48, 95
3, 315840, Note_on_c, 6, 48, 95
3, 315855, Note_on_c, 6, 52, 95
3, 315870, Note_on_c, 6, 55, 95
3, 315885, Note_on_c, 6, 60, 95
3, 316320, Note_off_c, 6, 60, 95
3, 316320, Note_off_c, 6, 55, 95
3, 316320, Note_off_c, 6, 52, 95
3, 316320, Note_off_c, 6, 48, 95
3, 316320, Note_on_c, 6, 64, 95
3, 316350, Note_on_c, 6, 60, 95
3, 316380, Note_on_c, 6, 55, 95
3, 317280, Note_off_c, 6, 64, 95
3, 317280, Note_off_c, 6, 60, 95
3, 317280, Note_off_c, 6, 55, 95
3, 317280, Note_on_c, 6, 64, 95
3, 317295, Note_on_c, 6, 60, 95
3, 317310, Note_on_c, 6, 55, 95
3, 317760, Note_off_c, 6, 64, 95
3, 317760, Note_off_c, 6, 60, 95
3, 317760, Note_off_c, 6, 55, 95
3, 318240, Note_on_c, 6, 64, 95
3, 318255, Note_on_c, 6, 60, 95
3, 318270, Note_on_c, 6, 55, 95
3, 318720, Note_off_c, 6, 64, 95
3, 318720, Note_off_c, 6, 60, 95
3, 318720, Note_off_c, 6, 55, 95
3, 318720, Note_on_c, 6, 48, 95
3, 318750, Note_on_c, 6, 52, 95
3, 318780, Note_on_c, 6, 55, 95
3, 318810, Note_on_c, 6, 60, 95
3, 318840, Note_on_c, 6, 64, 95
3, 319680, Note_off_c, 6, 64, 95
3, 319680, Note_off_c, 6, 60, 95
3, 319680, Note_off_c, 6, 55, 95
3, 319680, Note_off_c, 6, 52, 95
3, 319680, Note_off_c, 6, 48, 95
3, 319680, Note_on_c, 6, 48, 95
3, 319695, Note_on_c, 6, 52, 95
3, 319710, Note_on_c, 6, 55, 95
3, 319725, Note_on_c, 6, 60, 95
3, 320160, Note_off_c, 6, 60, 95
3, 320160, Note_off_c, 6, 55, 95
3, 320160, Note_off_c, 6, 52, 95
3, 320160, Note_off_c, 6, 48, 95
3, 320160, Note_on_c, 6, 64, 95
3, 320190, Note_on_c, 6, 60, 95
3, 320220, Note_on_c, 6, 55, 95
3, 321120, Note_off_c, 6, 64, 95
3, 321120, Note_off_c, 6, 60, 95
3, 321120, Note_off_c, 6, 55, 95
3, 321120, Note_on_c, 6, 64, 95
3, 321135, Note_on_c, 6, 60, 95
3, 321150, Note_on_c, 6, 55, 95
3, 321600, Note_off_c, 6, 64, 95
3, 321600, Note_off_c, 6, 60, 95
3, 321600, Note_off_c, 6, 55, 95
3, 322080, Note_on_c, 6, 64, 95
3, 322095, Note_on_c, 6, 60, 95
3, 322110, Note_on_c, 6, 55, 95
3, 322560, Note_off_c, 6, 64, 95
3, 322560, Note_off_c, 6, 60, 95
3, 322560, Note_off_c, 6, 55, 95
3, 322560, Note_on_c, 6, 40, 95
3, 322620, Note_on_c, 6, 47, 95
3, 322680, Note_on_c, 6, 52, 95
3, 322740, Note_on_c, 6, 55, 95
3, 322800, Note_on_c, 6, 59, 95
3, 322860, Note_on_c, 6, 64, 95
3, 323520, Note_off_c, 6, 64, 95
3, 323520, Note_off_c, 6, 59, 95
3, 323520, Note_off_c, 6, 55, 95
3, 323520, Note_off_c, 6, 52, 95
3, 323520, Note_off_c, 6, 47, 95
3, 323520, Note_off_c, 6, 40, 95
3, 323520, Note_on_c, 6, 47, 95
3, 323535, Note_on_c, 6, 52, 95
3, 323550, Note_on_c, 6, 55, 95
3, 324000, Note_off_c, 6, 55, 95
3, 324000, Note_off_c, 6, 52, 95
3, 324000, Note_off_c, 6, 47, 95
3, 324000, Note_on_c, 6, 64, 95
3, 324015, Note_on_c, 6, 59, 95
3, 324030, Note_on_c, 6, 55, 95
3, 324480, Note_off_c, 6, 64, 95
3, 324480, Note_off_c, 6, 59, 95
3, 324480, Note_off_c, 6, 55, 95
3, 324480, Note_on_c, 6, 45, 95
3, 324540, Note_on_c, 6, 52, 95
3, 324600, Note_on_c, 6, 55, 95
3, 324660, Note_on_c, 6, 59, 95
3, 325440, Note_off_c, 6, 59, 95
3, 325440, Note_off_c, 6, 55, 95
3, 325440, Note_off_c, 6, 52, 95
3, 325440, Note_off_c, 6, 45, 95
3, 325440, Note_on_c, 6, 64, 95
3, 325455, Note_on_c, 6, 59, 95
3, 325470, Note_on_c, 6, 55, 95
3, 325920, Note_off_c, 6, 64, 95
3, 325920, Note_off_c, 6, 59, 95
3, 325920, Note_off_c, 6, 55, 95
3, 325920, Note_on_c, 6, 64, 95
3, 325935, Note_on_c, 6, 59, 95
3, 325950, Note_on_c, 6, 55, 95
3, 326400, Note_off_c, 6, 64, 95
3, 326400, Note_off_c, 6, 59, 95
3, 326400, Note_off_c, 6, 55, 95
3, 326400, Note_on_c, 6, 40, 95
3, 326460, Note_on_c, 6, 47, 95
3, 326520, Note_on_c, 6, 52, 95
3, 326580, Note_on_c, 6, 55, 95
3, 326640, Note_on_c, 6, 59, 95
3, 326700, Note_on_c, 6, 64, 95
3, 327360, Note_off_c, 6, 64, 95
3, 327360, Note_off_c, 6, 59, 95
3, 327360, Note_off_c, 6, 55, 95
3, 327360, Note_off_c, 6, 52, 95
3, 327360, Note_off_c, 6, 47, 95
3, 327360, Note_off_c, 6, 40, 95
3, 327360, Note_on_c, 6, 47, 95
3, 327375, Note_on_c, 6, 52, 95
3, 327390, Note_on_c, 6, 55, 95
3, 327840, Note_off_c, 6, 55, 95
3, 327840, Note_off_c, 6, 52, 95
3, 327840, Note_off_c, 6, 47, 95
3, 327840, Note_on_c, 6, 64, 95
3, 327855, Note_on_c, 6, 59, 95
3, 327870, Note_on_c, 6, 55, 95
3, 328320, Note_off_c, 6, 64, 95
3, 328320, Note_off_c, 6, 59, 95
3, 328320, Note_off_c, 6, 55, 95
3, 328320, Note_on_c, 6, 45, 95
3, 328380, Note_on_c, 6, 52, 95
3, 328440, Note_on_c, 6, 55, 95
3, 328500, Note_on_c, 6, 59, 95
3, 329280, Note_off_c, 6, 59, 95
3, 329280, Note_off_c, 6, 55, 95
3, 329280, Note_off_c, 6, 52, 95
3, 329280, Note_off_c, 6, 45, 95
3, 329280, Note_on_c, 6, 64, 95
3, 329295, Note_on_c, 6, 59, 95
3, 329310, Note_on_c, 6, 55, 95
3, 329760, Note_off_c, 6, 64, 95
3, 329760, Note_off_c, 6, 59, 95
3, 329760, Note_off_c, 6, 55, 95
3, 329760, Note_on_c, 6, 64, 95
3, 329775, Note_on_c, 6, 59, 95
3, 329790, Note_on_c, 6, 55, 95
3, 330240, Note_off_c, 6, 64, 95
3, 330240, Note_off_c, 6, 59, 95
3, 330240, Note_off_c, 6, 55, 95
3, 330240, Note_on_c, 6, 45, 95
3, 330300, Note_on_c, 6, 52, 95
3, 330360, Note_on_c, 6, 57, 95
3, 330420, Note_on_c, 6, 60, 95
3, 330480, Note_on_c, 6, 64, 95
3, 331200, Note_off_c, 6, 64, 95
3, 331200, Note_off_c, 6, 60, 95
3, 331200, Note_off_c, 6, 57, 95
3, 331200, Note_off_c, 6, 52, 95
3, 331200, Note_off_c, 6, 45, 95
3, 331200, Note_on_c, 6, 45, 95
3, 331215, Note_on_c, 6, 52, 95
3, 331230, Note_on_c, 6, 57, 95
3, 331680, Note_off_c, 6, 57, 95
3, 331680, Note_off_c, 6, 52, 95
3, 331680, Note_off_c, 6, 45, 95
3, 331680, Note_on_c, 6, 64, 95
3, 331695, Note_on_c, 6, 60, 95
3, 331710, Note_on_c, 6, 57, 95
3, 332160, Note_off_c, 6, 64, 95
3, 332160, Note_off_c, 6, 60, 95
3, 332160, Note_off_c, 6, 57, 95
3, 332160, Note_on_c, 6, 45, 95
3, 332220, Note_on_c, 6, 52, 95
3, 332280, Note_on_c, 6, 57, 95
3, 332340, Note_on_c, 6, 60, 95
3, 333120, Note_off_c, 6, 60, 95
3, 333120, Note_off_c, 6, 57, 95
3, 333120, Note_off_c, 6, 52, 95
3, 333120, Note_off_c, 6, 45, 95
3, 333120, Note_on_c, 6, 64, 95
3, 333135, Note_on_c, 6, 60, 95
3, 333150, Note_on_c, 6, 57, 95
3, 333600, Note_off_c, 6, 64, 95
3, 333600, Note_off_c, 6, 60, 95
3, 333600, Note_off_c, 6, 57, 95
3, 333600, Note_on_c, 6, 64, 95
3, 333615, Note_on_c, 6, 60, 95
3, 333630, Note_on_c, 6, 57, 95
3, 334080, Note_off_c, 6, 64, 95
3, 334080, Note_off_c, 6, 60, 95
3, 334080, Note_off_c, 6, 57, 95
3, 334080, Note_on_c, 6, 45, 95
3, 334140, Note_on_c, 6, 52, 95
3, 334200, Note_on_c, 6, 57, 95
3, 334260, Note_on_c, 6, 60, 95
3, 334320, Note_on_c, 6, 64, 95
3, 335040, Note_off_c, 6, 64, 95
3, 335040, Note_off_c, 6, 60, 95
3, 335040, Note_off_c, 6, 57, 95
3, 335040, Note_off_c, 6, 52, 95
3, 335040, Note_off_c, 6, 45, 95
3, 335040, Note_on_c, 6, 45, 95
3, 335055, Note_on_c, 6, 52, 95
3, 335070, Note_on_c, 6, 57, 95
3, 335520, Note_off_c, 6, 57, 95
3, 335520, Note_off_c, 6, 52, 95
3, 335520, Note_off_c, 6, 45, 95
3, 335520, Note_on_c, 6, 64, 95
3, 335535, Note_on_c, 6, 60, 95
3, 335550, Note_on_c, 6, 57, 95
3, 336000, Note_off_c, 6, 64, 95
3, 336000, Note_off_c, 6, 60, 95
3, 336000, Note_off_c, 6, 57, 95
3, 336000, Note_on_c, 6, 45, 95
3, 336060, Note_on_c, 6, 52, 95
3, 336120, Note_on_c, 6, 57, 95
3, 336180, Note_on_c, 6, 60, 95
3, 336960, Note_off_c, 6, 60, 95
3, 336960, Note_off_c, 6, 57, 95
3, 336960, Note_off_c, 6, 52, 95
3, 336960, Note_off_c, 6, 45, 95
3, 336960, Note_on_c, 6, 64, 95
3, 336975, Note_on_c, 6, 60, 95
3, 336990, Note_on_c, 6, 57, 95
3, 337440, Note_off_c, 6, 64, 95
3, 337440, Note_off_c, 6, 60, 95
3, 337440, Note_off_c, 6, 57, 95
3, 337440, Note_on_c, 6, 64, 95
3, 337455, Note_on_c, 6, 60, 95
3, 337470, Note_on_c, 6, 57, 95
3, 337920, Note_off_c, 6, 64, 95
3, 337920, Note_off_c, 6, 60, 95
3, 337920, Note_off_c, 6, 57, 95
3, 337920, Note_on_c, 6, 50, 95
3, 337950, Note_on_c, 6, 59, 95
3, 337980, Note_on_c, 6, 62, 95
3, 338010, Note_on_c, 6, 67, 95
3, 338880, Note_off_c, 6, 67, 95
3, 338880, Note_off_c, 6, 62, 95
3, 338880, Note_off_c, 6, 59, 95
3, 338880, Note_off_c, 6, 50, 95
3, 338880, Note_on_c, 6, 50, 95
3, 338895, Note_on_c, 6, 59, 95
3, 338910, Note_on_c, 6, 62, 95
3, 338925, Note_on_c, 6, 67, 95
3, 339360, Note_off_c, 6, 67, 95
3, 339360, Note_off_c, 6, 62, 95
3, 339360, Note_off_c, 6, 59, 95
3, 339360, Note_off_c, 6, 50, 95
3, 339360, Note_on_c, 6, 67, 95
3, 339390, Note_on_c, 6, 62, 95
3, 339420, Note_on_c, 6, 59, 95
3, 340320, Note_off_c, 6, 67, 95
3, 340320, Note_off_c, 6, 62, 95
3, 340320, Note_off_c, 6, 59, 95
3, 340320, Note_on_c, 6, 67, 95
3, 340335, Note_on_c, 6, 62, 95
3, 340350, Note_on_c, 6, 59, 95
3, 340800, Note_off_c, 6, 67, 95
3, 340800, Note_off_c, 6, 62, 95
3, 340800, Note_off_c, 6, 59, 95
3, 341280, Note_on_c, 6, 67, 95
3, 341295, Note_on_c, 6, 62, 95
3, 341310, Note_on_c, 6, 59, 95
3, 341760, Note_off_c, 6, 67, 95
3, 341760, Note_off_c, 6, 62, 95
3, 341760, Note_off_c, 6, 59, 95
3, 341760, Note_on_c, 6, 55, 95
3, 341760, Note_on_c, 6, 50, 95
3, 341760, Note_on_c, 6, 43, 95
3, 342240, Note_off_c, 6, 55, 95
3, 342240, Note_off_c, 6, 50, 95
3, 342240, Note_off_c, 6, 43, 95
3, 345600, Note_on_c, 6, 48, 95
3, 345630, Note_on_c, 6, 52, 95
3, 345660, Note_on_c, 6, 55, 95
3, 345690, Note_on_c, 6, 60, 95
3, 345720, Note_on_c, 6, 64, 95
3, 346560, Note_off_c, 6, 64, 95
3, 346560, Note_off_c, 6, 60, 95
3, 346560, Note_off_c, 6, 55, 95
3, 346560, Note_off_c, 6, 52, 95
3, 346560, Note_off_c, 6, 48, 95
3, 346560, Note_on_c, 6, 48, 95
3, 346575, Note_on_c, 6, 52, 95
3, 346590, Note_on_c, 6, 55, 95
3, 346605, Note_on_c, 6, 60, 95
3, 347040, Note_off_c, 6, 60, 95
3, 347040, Note_off_c, 6, 55, 95
3, 347040, Note_off_c, 6, 52, 95
3, 347040, Note_off_c, 6, 48, 95
3, 347040, Note_on_c, 6, 64, 95
3, 347070, Note_on_c, 6, 60, 95
3, 347100, Note_on_c, 6, 55, 95
3, 348000, Note_off_c, 6, 64, 95
3, 348000, Note_off_c, 6, 60, 95
3, 348000, Note_off_c, 6, 55, 95
3, 348000, Note_on_c, 6, 64, 95
3, 348015, Note_on_c, 6, 60, 95
3, 348030, Note_on_c, 6, 55, 95
3, 348480, Note_off_c, 6, 64, 95
3, 348480, Note_off_c, 6, 60, 95
3, 348480, Note_off_c, 6, 55, 95
3, 348960, Note_on_c, 6, 64, 95
3, 348975, Note_on_c, 6, 60, 95
3, 348990, Note_on_c, 6, 55, 95
3, 349440, Note_off_c, 6, 64, 95
3, 349440, Note_off_c, 6, 60, 95
3, 349440, Note_off_c, 6, 55, 95
3, 350880, Note_on_c, 6, 55, 95
3, 350880, Note_on_c, 6, 48, 95
3, 351360, Note_off_c, 6, 55, 95
3, 351360, Note_off_c, 6, 48, 95
3, 351840, Note_on_c, 6, 54, 95
3, 351840, Note_on_c, 6, 47, 95
3, 352320, Note_off_c, 6, 54, 95
3, 352320, Note_off_c, 6, 47, 95
3, 352800, Note_on_c, 6, 52, 95
3, 352800, Note_on_c, 6, 45, 95
3, 354240, Note_off_c, 6, 52, 95
3, 354240, Note_off_c, 6, 45, 95
3, 354240, Note_on_c, 6, 48, 95
3, 354720, Note_off_c, 6, 48, 95
3, 354720, Note_on_c, 6, 50, 95
3, 355200, Note_off_c, 6, 50, 95
3, 355200, Note_on_c, 6, 52, 95
3, 355680, Note_off_c, 6, 52, 95
3, 355680, Note_on_c, 6, 53, 95
3, 356160, Note_off_c, 6, 53, 95
3, 356160, Note_on_c, 6, 55, 95
3, 356640, Note_off_c, 6, 55, 95
3, 356640, Note_on_c, 6, 57, 95
3, 357120, Note_off_c, 6, 57, 95
3, 357120, Note_on_c, 6, 59, 95
3, 357600, Note_off_c, 6, 59, 95
3, 357600, Note_on_c, 6, 60, 95
3, 358080, Note_off_c, 6, 60, 95
3, 358560, Note_on_c, 6, 50, 95
3, 358560, Note_on_c, 6, 45, 95
3, 358560, Note_on_c, 6, 43, 95
3, 358630, Note_off_c, 6, 45, 95
3, 359040, Note_off_c, 6, 50, 95
3, 359040, Note_off_c, 6, 43, 95
3, 359520, Note_on_c, 6, 50, 95
3, 359520, Note_on_c, 6, 45, 95
3, 359520, Note_on_c, 6, 43, 95
3, 359590, Note_off_c, 6, 45, 95
3, 360000, Note_off_c, 6, 50, 95
3, 360000, Note_off_c, 6, 43, 95
3, 360480, Note_on_c, 6, 55, 95
3, 360480, Note_on_c, 6, 48, 95
3, 364800, Note_off_c, 6, 55, 95
3, 364800, Note_off_c, 6, 48, 95
3, 366240, Note_on_c, 6, 55, 95
3, 366240, Note_on_c, 6, 48, 95
3, 366720, Note_off_c, 6, 55, 95
3, 366720, Note_off_c, 6, 48, 95
3, 367200, Note_on_c, 6, 54, 95
3, 367200, Note_on_c, 6, 47, 95
3, 367680, Note_off_c, 6, 54, 95
3, 367680, Note_off_c, 6, 47, 95
3, 368160, Note_on_c, 6, 52, 95
3, 368160, Note_on_c, 6, 45, 95
3, 369600, Note_off_c, 6, 52, 95
3, 369600, Note_off_c, 6, 45, 95
3, 369600, Note_on_c, 6, 48, 95
3, 370080, Note_off_c, 6, 48, 95
3, 370080, Note_on_c, 6, 50, 95
3, 370560, Note_off_c, 6, 50, 95
3, 370560, Note_on_c, 6, 52, 95
3, 371040, Note_off_c, 6, 52, 95
3, 371040, Note_on_c, 6, 53, 95
3, 371520, Note_off_c, 6, 53, 95
3, 371520, Note_on_c, 6, 55, 95
3, 372000, Note_off_c, 6, 55, 95
3, 372000, Note_on_c, 6, 57, 95
3, 372480, Note_off_c, 6, 57, 95
3, 372480, Note_on_c, 6, 59, 95
3, 372960, Note_off_c, 6, 59, 95
3, 372960, Note_on_c, 6, 60, 95
3, 373440, Note_off_c, 6, 60, 95
3, 373920, Note_on_c, 6, 50, 95
3, 373920, Note_on_c, 6, 45, 95
3, 373920, Note_on_c, 6, 43, 95
3, 373990, Note_off_c, 6, 45, 95
3, 374400, Note_off_c, 6, 50, 95
3, 374400, Note_off_c, 6, 43, 95
3, 374880, Note_on_c, 6, 50, 95
3, 374880, Note_on_c, 6, 45, 95
3, 374880, Note_on_c, 6, 43, 95
3, 374950, Note_off_c, 6, 45, 95
3, 375360, Note_off_c, 6, 50, 95
3, 375360, Note_off_c, 6, 43, 95
3, 375840, Note_on_c, 6, 50, 95
3, 375840, Note_on_c, 6, 48, 95
3, 375840, Note_on_c, 6, 43, 95
3, 375910, Note_off_c, 6, 48, 95
3, 376320, Note_off_c, 6, 50, 95
3, 376320, Note_off_c, 6, 43, 95
3, 376320, Note_on_c, 6, 48, 95
3, 376320, Note_on_c, 6, 41, 95
3, 376460, Note_off_c, 6, 48, 95
3, 376460, Note_off_c, 6, 41, 95
3, 376800, Note_on_c, 6, 48, 95
3, 376800, Note_on_c, 6, 41, 95
3, 376940, Note_off_c, 6, 48, 95
3, 376940, Note_off_c, 6, 41, 95
3, 377280, Note_on_c, 6, 48, 95
3, 377280, Note_on_c, 6, 41, 95
3, 377420, Note_off_c, 6, 48, 95
3, 377420, Note_off_c, 6, 41, 95
3, 377760, Note_on_c, 6, 48, 95
3, 377760, Note_on_c, 6, 41, 95
3, 377900, Note_off_c, 6, 48, 95
3, 377900, Note_off_c, 6, 41, 95
3, 378240, Note_on_c, 6, 48, 95
3, 378240, Note_on_c, 6, 41, 95
3, 378380, Note_off_c, 6, 48, 95
3, 378380, Note_off_c, 6, 41, 95
3, 378720, Note_on_c, 6, 48, 95
3, 378720, Note_on_c, 6, 41, 95
3, 378860, Note_off_c, 6, 48, 95
3, 378860, Note_off_c, 6, 41, 95
3, 379200, Note_on_c, 6, 48, 95
3, 379200, Note_on_c, 6, 41, 95
3, 379340, Note_off_c, 6, 48, 95
3, 379340, Note_off_c, 6, 41, 95
3, 379680, Note_on_c, 6, 48, 95
3, 379680, Note_on_c, 6, 41, 95
3, 379820, Note_off_c, 6, 48, 95
3, 379820, Note_off_c, 6, 41, 95
3, 380160, Note_on_c, 6, 50, 95
3, 380160, Note_on_c, 6, 43, 95
3, 380300, Note_off_c, 6, 50, 95
3, 380300, Note_off_c, 6, 43, 95
3, 380640, Note_on_c, 6, 50, 95
3, 380640, Note_on_c, 6, 43, 95
3, 380780, Note_off_c, 6, 50, 95
3, 380780, Note_off_c, 6, 43, 95
3, 381120, Note_on_c, 6, 50, 95
3, 381120, Note_on_c, 6, 43, 95
3, 381260, Note_off_c, 6, 50, 95
3, 381260, Note_off_c, 6, 43, 95
3, 381600, Note_on_c, 6, 50, 95
3, 381600, Note_on_c, 6, 43, 95
3, 381740, Note_off_c, 6, 50, 95
3, 381740, Note_off_c, 6, 43, 95
3, 382080, Note_on_c, 6, 50, 95
3, 382080, Note_on_c, 6, 43, 95
3, 382220, Note_off_c, 6, 50, 95
3, 382220, Note_off_c, 6, 43, 95
3, 382560, Note_on_c, 6, 50, 95
3, 382560, Note_on_c, 6, 43, 95
3, 382700, Note_off_c, 6, 50, 95
3, 382700, Note_off_c, 6, 43, 95
3, 383040, Note_on_c, 6, 50, 95
3, 383040, Note_on_c, 6, 43, 95
3, 383180, Note_off_c, 6, 50, 95
3, 383180, Note_off_c, 6, 43, 95
3, 383520, Note_on_c, 6, 50, 95
3, 383520, Note_on_c, 6, 43, 95
3, 383660, Note_off_c, 6, 50, 95
3, 383660, Note_off_c, 6, 43, 95
3, 384000, Note_on_c, 6, 48, 95
3, 384060, Note_on_c, 6, 52, 95
3, 384120, Note_on_c, 6, 55, 95
3, 384180, Note_on_c, 6, 60, 95
3, 384240, Note_on_c, 6, 64, 95
3, 384960, Note_off_c, 6, 64, 95
3, 384960, Note_off_c, 6, 60, 95
3, 384960, Note_off_c, 6, 55, 95
3, 384960, Note_off_c, 6, 52, 95
3, 384960, Note_off_c, 6, 48, 95
3, 384960, Note_on_c, 6, 48, 95
3, 384975, Note_on_c, 6, 52, 95
3, 384990, Note_on_c, 6, 55, 95
3, 385440, Note_off_c, 6, 55, 95
3, 385440, Note_off_c, 6, 52, 95
3, 385440, Note_off_c, 6, 48, 95
3, 385440, Note_on_c, 6, 64, 95
3, 385455, Note_on_c, 6, 60, 95
3, 385470, Note_on_c, 6, 55, 95
3, 385920, Note_off_c, 6, 64, 95
3, 385920, Note_off_c, 6, 60, 95
3, 385920, Note_off_c, 6, 55, 95
3, 385920, Note_on_c, 6, 48, 95
3, 385980, Note_on_c, 6, 52, 95
3, 386040, Note_on_c, 6, 55, 95
3, 386100, Note_on_c, 6, 60, 95
3, 386880, Note_off_c, 6, 60, 95
3, 386880, Note_off_c, 6, 55, 95
3, 386880, Note_off_c, 6, 52, 95
3, 386880, Note_off_c, 6, 48, 95
3, 386880, Note_on_c, 6, 64, 95
3, 386895, Note_on_c, 6, 60, 95
3, 386910, Note_on_c, 6, 55, 95
3, 387360, Note_off_c, 6, 64, 95
3, 387360, Note_off_c, 6, 60, 95
3, 387360, Note_off_c, 6, 55, 95
3, 387360, Note_on_c, 6, 64, 95
3, 387375, Note_on_c, 6, 60, 95
3, 387390, Note_on_c, 6, 55, 95
3, 387840, Note_off_c, 6, 64, 95
3, 387840, Note_off_c, 6, 60, 95
3, 387840, Note_off_c, 6, 55, 95
3, 387840, Note_on_c, 6, 40, 95
3, 387900, Note_on_c, 6, 47, 95
3, 387960, Note_on_c, 6, 52, 95
3, 388020, Note_on_c, 6, 55, 95
3, 388080, Note_on_c, 6, 59, 95
3, 388140, Note_on_c, 6, 64, 95
3, 388800, Note_off_c, 6, 64, 95
3, 388800, Note_off_c, 6, 59, 95
3, 388800, Note_off_c, 6, 55, 95
3, 388800, Note_off_c, 6, 52, 95
3, 388800, Note_off_c, 6, 47, 95
3, 388800, Note_off_c, 6, 40, 95
3, 388800, Note_on_c, 6, 47, 95
3, 388815, Note_on_c, 6, 52, 95
3, 388830, Note_on_c, 6, 55, 95
3, 389280, Note_off_c, 6, 55, 95
3, 389280, Note_off_c, 6, 52, 95
3, 389280, Note_off_c, 6, 47, 95
3, 389280, Note_on_c, 6, 64, 95
3, 389295, Note_on_c, 6, 59, 95
3, 389310, Note_on_c, 6, 55, 95
3, 389760, Note_off_c, 6, 64, 95
3, 389760, Note_off_c, 6, 59, 95
3, 389760, Note_off_c, 6, 55, 95
3, 389760, Note_on_c, 6, 45, 95
3, 389820, Note_on_c, 6, 52, 95
3, 389880, Note_on_c, 6, 55, 95
3, 389940, Note_on_c, 6, 59, 95
3, 390720, Note_off_c, 6, 59, 95
3, 390720, Note_off_c, 6, 55, 95
3, 390720, Note_off_c, 6, 52, 95
3, 390720, Note_off_c, 6, 45, 95
3, 390720, Note_on_c, 6, 64, 95
3, 390735, Note_on_c, 6, 59, 95
3, 390750, Note_on_c, 6, 55, 95
3, 391200, Note_off_c, 6, 64, 95
3, 391200, Note_off_c, 6, 59, 95
3, 391200, Note_off_c, 6, 55, 95
3, 391200, Note_on_c, 6, 64, 95
3, 391215, Note_on_c, 6, 59, 95
3, 391230, Note_on_c, 6, 55, 95
3, 391680, Note_off_c, 6, 64, 95
3, 391680, Note_off_c, 6, 59, 95
3, 391680, Note_off_c, 6, 55, 95
3, 391680, Note_on_c, 6, 45, 95
3, 391740, Note_on_c, 6, 52, 95
3, 391800, Note_on_c, 6, 57, 95
3, 391860, Note_on_c, 6, 60, 95
3, 391920, Note_on_c, 6, 64, 95
3, 392640, Note_off_c, 6, 64, 95
3, 392640, Note_off_c, 6, 60, 95
3, 392640, Note_off_c, 6, 57, 95
3, 392640, Note_off_c, 6, 52, 95
3, 392640, Note_off_c, 6, 45, 95
3, 392640, Note_on_c, 6, 45, 95
3, 392655, Note_on_c, 6, 52, 95
3, 392670, Note_on_c, 6, 57, 95
3, 393120, Note_off_c, 6, 57, 95
3, 393120, Note_off_c, 6, 52, 95
3, 393120, Note_off_c, 6, 45, 95
3, 393120, Note_on_c, 6, 64, 95
3, 393135, Note_on_c, 6, 60, 95
3, 393150, Note_on_c, 6, 57, 95
3, 393600, Note_off_c, 6, 64, 95
3, 393600, Note_off_c, 6, 60, 95
3, 393600, Note_off_c, 6, 57, 95
3, 393600, Note_on_c, 6, 45, 95
3, 393660, Note_on_c, 6, 52, 95
3, 393720, Note_on_c, 6, 57, 95
3, 393780, Note_on_c, 6, 60, 95
3, 394560, Note_off_c, 6, 60, 95
3, 394560, Note_off_c, 6, 57, 95
3, 394560, Note_off_c, 6, 52, 95
3, 394560, Note_off_c, 6, 45, 95
3, 394560, Note_on_c, 6, 64, 95
3, 394575, Note_on_c, 6, 60, 95
3, 394590, Note_on_c, 6, 57, 95
3, 395040, Note_off_c, 6, 64, 95
3, 395040, Note_off_c, 6, 60, 95
3, 395040, Note_off_c, 6, 57, 95
3, 395040, Note_on_c, 6, 64, 95
3, 395055, Note_on_c, 6, 60, 95
3, 395070, Note_on_c, 6, 57, 95
3, 395520, Note_off_c, 6, 64, 95
3, 395520, Note_off_c, 6, 60, 95
3, 395520, Note_off_c, 6, 57, 95
3, 395520, Note_on_c, 6, 45, 95
3, 395580, Note_on_c, 6, 52, 95
3, 395640, Note_on_c, 6, 57, 95
3, 395700, Note_on_c, 6, 60, 95
3, 395760, Note_on_c, 6, 64, 95
3, 396480, Note_off_c, 6, 64, 95
3, 396480, Note_off_c, 6, 60, 95
3, 396480, Note_off_c, 6, 57, 95
3, 396480, Note_off_c, 6, 52, 95
3, 396480, Note_off_c, 6, 45, 95
3, 396480, Note_on_c, 6, 45, 95
3, 396495, Note_on_c, 6, 52, 95
3, 396510, Note_on_c, 6, 57, 95
3, 396960, Note_off_c, 6, 57, 95
3, 396960, Note_off_c, 6, 52, 95
3, 396960, Note_off_c, 6, 45, 95
3, 396960, Note_on_c, 6, 64, 95
3, 396975, Note_on_c, 6, 60, 95
3, 396990, Note_on_c, 6, 57, 95
3, 397440, Note_off_c, 6, 64, 95
3, 397440, Note_off_c, 6, 60, 95
3, 397440, Note_off_c, 6, 57, 95
3, 397440, Note_on_c, 6, 45, 95
3, 397500, Note_on_c, 6, 52, 95
3, 397560, Note_on_c, 6, 57, 95
3, 397620, Note_on_c, 6, 60, 95
3, 398400, Note_off_c, 6, 60, 95
3, 398400, Note_off_c, 6, 57, 95
3, 398400, Note_off_c, 6, 52, 95
3, 398400, Note_off_c, 6, 45, 95
3, 398400, Note_on_c, 6, 64, 95
3, 398415, Note_on_c, 6, 60, 95
3, 398430, Note_on_c, 6, 57, 95
3, 398880, Note_off_c, 6, 64, 95
3, 398880, Note_off_c, 6, 60, 95
3, 398880, Note_off_c, 6, 57, 95
3, 398880, Note_on_c, 6, 64, 95
3, 398895, Note_on_c, 6, 60, 95
3, 398910, Note_on_c, 6, 57, 95
3, 399360, Note_off_c, 6, 64, 95
3, 399360, Note_off_c, 6, 60, 95
3, 399360, Note_off_c, 6, 57, 95
3, 399360, Note_on_c, 6, 48, 95
3, 399390, Note_on_c, 6, 53, 95
3, 399420, Note_on_c, 6, 57, 95
3, 399450, Note_on_c, 6, 60, 95
3, 399480, Note_on_c, 6, 65, 95
3, 400320, Note_off_c, 6, 65, 95
3, 400320, Note_off_c, 6, 60, 95
3, 400320, Note_off_c, 6, 57, 95
3, 400320, Note_off_c, 6, 53, 95
3, 400320, Note_off_c, 6, 48, 95
3, 400320, Note_on_c, 6, 48, 95
3, 400335, Note_on_c, 6, 53, 95
3, 400350, Note_on_c, 6, 57, 95
3, 400365, Note_on_c, 6, 60, 95
3, 400800, Note_off_c, 6, 60, 95
3, 400800, Note_off_c, 6, 57, 95
3, 400800, Note_off_c, 6, 53, 95
3, 400800, Note_off_c, 6, 48, 95
3, 400800, Note_on_c, 6, 65, 95
3, 400830, Note_on_c, 6, 60, 95
3, 400860, Note_on_c, 6, 57, 95
3, 401760, Note_off_c, 6, 65, 95
3, 401760, Note_off_c, 6, 60, 95
3, 401760, Note_off_c, 6, 57, 95
3, 401760, Note_on_c, 6, 65, 95
3, 401775, Note_on_c, 6, 60, 95
3, 401790, Note_on_c, 6, 57, 95
3, 402240, Note_off_c, 6, 65, 95
3, 402240, Note_off_c, 6, 60, 95
3, 402240, Note_off_c, 6, 57, 95
3, 402720, Note_on_c, 6, 65, 95
3, 402735, Note_on_c, 6, 60, 95
3, 402750, Note_on_c, 6, 57, 95
3, 403200, Note_off_c, 6, 65, 95
3, 403200, Note_off_c, 6, 60, 95
3, 403200, Note_off_c, 6, 57, 95
3, 403200, Note_on_c, 6, 50, 95
3, 403230, Note_on_c, 6, 59, 95
3, 403260, Note_on_c, 6, 62, 95
3, 403290, Note_on_c, 6, 67, 95
3, 404160, Note_off_c, 6, 67, 95
3, 404160, Note_off_c, 6, 62, 95
3, 404160, Note_off_c, 6, 59, 95
3, 404160, Note_off_c, 6, 50, 95
3, 404160, Note_on_c, 6, 50, 95
3, 404175, Note_on_c, 6, 59, 95
3, 404190, Note_on_c, 6, 62, 95
3, 404205, Note_on_c, 6, 67, 95
3, 404640, Note_off_c, 6, 67, 95
3, 404640, Note_off_c, 6, 62, 95
3, 404640, Note_off_c, 6, 59, 95
3, 404640, Note_off_c, 6, 50, 95
3, 404640, Note_on_c, 6, 67, 95
3, 404670, Note_on_c, 6, 62, 95
3, 404700, Note_on_c, 6, 59, 95
3, 405600, Note_off_c, 6, 67, 95
3, 405600, Note_off_c, 6, 62, 95
3, 405600, Note_off_c, 6, 59, 95
3, 405600, Note_on_c, 6, 67, 95
3, 405615, Note_on_c, 6, 62, 95
3, 405630, Note_on_c, 6, 59, 95
3, 406080, Note_off_c, 6, 67, 95
3, 406080, Note_off_c, 6, 62, 95
3, 406080, Note_off_c, 6, 59, 95
3, 406560, Note_on_c, 6, 67, 95
3, 406575, Note_on_c, 6, 62, 95
3, 406590, Note_on_c, 6, 59, 95
3, 407040, Note_off_c, 6, 67, 95
3, 407040, Note_off_c, 6, 62, 95
3, 407040, Note_off_c, 6, 59, 95
3, 407040, Note_on_c, 6, 48, 95
3, 407070, Note_on_c, 6, 52, 95
3, 407100, Note_on_c, 6, 55, 95
3, 407130, Note_on_c, 6, 60, 95
3, 407160, Note_on_c, 6, 64, 95
3, 408000, Note_off_c, 6, 64, 95
3, 408000, Note_off_c, 6, 60, 95
3, 408000, Note_off_c, 6, 55, 95
3, 408000, Note_off_c, 6, 52, 95
3, 408000, Note_off_c, 6, 48, 95
3, 408000, Note_on_c, 6, 48, 95
3, 408015, Note_on_c, 6, 52, 95
3, 408030, Note_on_c, 6, 55, 95
3, 408045, Note_on_c, 6, 60, 95
3, 408480, Note_off_c, 6, 60, 95
3, 408480, Note_off_c, 6, 55, 95
3, 408480, Note_off_c, 6, 52, 95
3, 408480, Note_off_c, 6, 48, 95
3, 408480, Note_on_c, 6, 64, 95
3, 408510, Note_on_c, 6, 60, 95
3, 408540, Note_on_c, 6, 55, 95
3, 409440, Note_off_c, 6, 64, 95
3, 409440, Note_off_c, 6, 60, 95
3, 409440, Note_off_c, 6, 55, 95
3, 409440, Note_on_c, 6, 64, 95
3, 409455, Note_on_c, 6, 60, 95
3, 409470, Note_on_c, 6, 55, 95
3, 409920, Note_off_c, 6, 64, 95
3, 409920, Note_off_c, 6, 60, 95
3, 409920, Note_off_c, 6, 55, 95
3, 410400, Note_on_c, 6, 64, 95
3, 410415, Note_on_c, 6, 60, 95
3, 410430, Note_on_c, 6, 55, 95
3, 410880, Note_off_c, 6, 64, 95
3, 410880, Note_off_c, 6, 60, 95
3, 410880, Note_off_c, 6, 55, 95
3, 410880, Note_on_c, 6, 48, 95
3, 410910, Note_on_c, 6, 52, 95
3, 410940, Note_on_c, 6, 55, 95
3, 410970, Note_on_c, 6, 60, 95
3, 411000, Note_on_c, 6, 64, 95
3, 411840, Note_off_c, 6, 64, 95
3, 411840, Note_off_c, 6, 60, 95
3, 411840, Note_off_c, 6, 55, 95
3, 411840, Note_off_c, 6, 52, 95
3, 411840, Note_off_c, 6, 48, 95
3, 411840, Note_on_c, 6, 48, 95
3, 411855, Note_on_c, 6, 52, 95
3, 411870, Note_on_c, 6, 55, 95
3, 411885, Note_on_c, 6, 60, 95
3, 412320, Note_off_c, 6, 60, 95
3, 412320, Note_off_c, 6, 55, 95
3, 412320, Note_off_c, 6, 52, 95
3, 412320, Note_off_c, 6, 48, 95
3, 412320, Note_on_c, 6, 64, 95
3, 412350, Note_on_c, 6, 60, 95
3, 412380, Note_on_c, 6, 55, 95
3, 413280, Note_off_c, 6, 64, 95
3, 413280, Note_off_c, 6, 60, 95
3, 413280, Note_off_c, 6, 55, 95
3, 413280, Note_on_c, 6, 64, 95
3, 413295, Note_on_c, 6, 60, 95
3, 413310, Note_on_c, 6, 55, 95
3, 413760, Note_off_c, 6, 64, 95
3, 413760, Note_off_c, 6, 60, 95
3, 413760, Note_off_c, 6, 55, 95
3, 414240, Note_on_c, 6, 64, 95
3, 414255, Note_on_c, 6, 60, 95
3, 414270, Note_on_c, 6, 55, 95
3, 414720, Note_off_c, 6, 64, 95
3, 414720, Note_off_c, 6, 60, 95
3, 414720, Note_off_c, 6, 55, 95
3, 414720, Note_on_c, 6, 48, 95
3, 414780, Note_on_c, 6, 52, 95
3, 414840, Note_on_c, 6, 55, 95
3, 414900, Note_on_c, 6, 60, 95
3, 414960, Note_on_c, 6, 64, 95
3, 415680, Note_off_c, 6, 64, 95
3, 415680, Note_off_c, 6, 60, 95
3, 415680, Note_off_c, 6, 55, 95
3, 415680, Note_off_c, 6, 52, 95
3, 415680, Note_off_c, 6, 48, 95
3, 415680, Note_on_c, 6, 48, 95
3, 415695, Note_on_c, 6, 52, 95
3, 415710, Note_on_c, 6, 55, 95
3, 416160, Note_off_c, 6, 55, 95
3, 416160, Note_off_c, 6, 52, 95
3, 416160, Note_off_c, 6, 48, 95
3, 416160, Note_on_c, 6, 64, 95
3, 416175, Note_on_c, 6, 60, 95
3, 416190, Note_on_c, 6, 55, 95
3, 416640, Note_off_c, 6, 64, 95
3, 416640, Note_off_c, 6, 60, 95
3, 416640, Note_off_c, 6, 55, 95
3, 416640, Note_on_c, 6, 48, 95
3, 416700, Note_on_c, 6, 52, 95
3, 416760, Note_on_c, 6, 55, 95
3, 416820, Note_on_c, 6, 60, 95
3, 417600, Note_off_c, 6, 60, 95
3, 417600, Note_off_c, 6, 55, 95
3, 417600, Note_off_c, 6, 52, 95
3, 417600, Note_off_c, 6, 48, 95
3, 417600, Note_on_c, 6, 64, 95
3, 417615, Note_on_c, 6, 60, 95
3, 417630, Note_on_c, 6, 55, 95
3, 418080, Note_off_c, 6, 64, 95
3, 418080, Note_off_c, 6, 60, 95
3, 418080, Note_off_c, 6, 55, 95
3, 418080, Note_on_c, 6, 64, 95
3, 418095, Note_on_c, 6, 60, 95
3, 418110, Note_on_c, 6, 55, 95
3, 418560, Note_off_c, 6, 64, 95
3, 418560, Note_off_c, 6, 60, 95
3, 418560, Note_off_c, 6, 55, 95
3, 418560, Note_on_c, 6, 40, 95
3, 418620, Note_on_c, 6, 47, 95
3, 418680, Note_on_c, 6, 52, 95
3, 418740, Note_on_c, 6, 55, 95
3, 418800, Note_on_c, 6, 59, 95
3, 418860, Note_on_c, 6, 64, 95
3, 419520, Note_off_c, 6, 64, 95
3, 419520, Note_off_c, 6, 59, 95
3, 419520, Note_off_c, 6, 55, 95
3, 419520, Note_off_c, 6, 52, 95
3, 419520, Note_off_c, 6, 47, 95
3, 419520, Note_off_c, 6, 40, 95
3, 419520, Note_on_c, 6, 47, 95
3, 419535, Note_on_c, 6, 52, 95
3, 419550, Note_on_c, 6, 55, 95
3, 420000, Note_off_c, 6, 55, 95
3, 420000, Note_off_c, 6, 52, 95
3, 420000, Note_off_c, 6, 47, 95
3, 420000, Note_on_c, 6, 64, 95
3, 420015, Note_on_c, 6, 59, 95
3, 420030, Note_on_c, 6, 55, 95
3, 420480, Note_off_c, 6, 64, 95
3, 420480, Note_off_c, 6, 59, 95
3, 420480, Note_off_c, 6, 55, 95
3, 420480, Note_on_c, 6, 45, 95
3, 420540, Note_on_c, 6, 52, 95
3, 420600, Note_on_c, 6, 55, 95
3, 420660, Note_on_c, 6, 59, 95
3, 421440, Note_off_c, 6, 59, 95
3, 421440, Note_off_c, 6, 55, 95
3, 421440, Note_off_c, 6, 52, 95
3, 421440, Note_off_c, 6, 45, 95
3, 421440, Note_on_c, 6, 64, 95
3, 421455, Note_on_c, 6, 59, 95
3, 421470, Note_on_c, 6, 55, 95
3, 421920, Note_off_c, 6, 64, 95
3, 421920, Note_off_c, 6, 59, 95
3, 421920, Note_off_c, 6, 55, 95
3, 421920, Note_on_c, 6, 64, 95
3, 421935, Note_on_c, 6, 59, 95
3, 421950, Note_on_c, 6, 55, 95
3, 422400, Note_off_c, 6, 64, 95
3, 422400, Note_off_c, 6, 59, 95
3, 422400, Note_off_c, 6, 55, 95
3, 422400, Note_on_c, 6, 45, 95
3, 422460, Note_on_c, 6, 52, 95
3, 422520, Note_on_c, 6, 57, 95
3, 422580, Note_on_c, 6, 60, 95
3, 422640, Note_on_c, 6, 64, 95
3, 423360, Note_off_c, 6, 64, 95
3, 423360, Note_off_c, 6, 60, 95
3, 423360, Note_off_c, 6, 57, 95
3, 423360, Note_off_c, 6, 52, 95
3, 423360, Note_off_c, 6, 45, 95
3, 423360, Note_on_c, 6, 45, 95
3, 423375, Note_on_c, 6, 52, 95
3, 423390, Note_on_c, 6, 57, 95
3, 423840, Note_off_c, 6, 57, 95
3, 423840, Note_off_c, 6, 52, 95
3, 423840, Note_off_c, 6, 45, 95
3, 423840, Note_on_c, 6, 64, 95
3, 423855, Note_on_c, 6, 60, 95
3, 423870, Note_on_c, 6, 57, 95
3, 424320, Note_off_c, 6, 64, 95
3, 424320, Note_off_c, 6, 60, 95
3, 424320, Note_off_c, 6, 57, 95
3, 424320, Note_on_c, 6, 45, 95
3, 424380, Note_on_c, 6, 52, 95
3, 424440, Note_on_c, 6, 57, 95
3, 424500, Note_on_c, 6, 60, 95
3, 425280, Note_off_c, 6, 60, 95
3, 425280, Note_off_c, 6, 57, 95
3, 425280, Note_off_c, 6, 52, 95
3, 425280, Note_off_c, 6, 45, 95
3, 425280, Note_on_c, 6, 64, 95
3, 425295, Note_on_c, 6, 60, 95
3, 425310, Note_on_c, 6, 57, 95
3, 425760, Note_off_c, 6, 64, 95
3, 425760, Note_off_c, 6, 60, 95
3, 425760, Note_off_c, 6, 57, 95
3, 425760, Note_on_c, 6, 64, 95
3, 425775, Note_on_c, 6, 60, 95
3, 425790, Note_on_c, 6, 57, 95
3, 426240, Note_off_c, 6, 64, 95
3, 426240, Note_off_c, 6, 60, 95
3, 426240, Note_off_c, 6, 57, 95
3, 426240, Note_on_c, 6, 48, 95
3, 426270, Note_on_c, 6, 53, 95
3, 426300, Note_on_c, 6, 57, 95
3, 426330, Note_on_c, 6, 60, 95
3, 426360, Note_on_c, 6, 65, 95
3, 427200, Note_off_c, 6, 65, 95
3, 427200, Note_off_c, 6, 60, 95
3, 427200, Note_off_c, 6, 57, 95
3, 427200, Note_off_c, 6, 53, 95
3, 427200, Note_off_c, 6, 48, 95
3, 427200, Note_on_c, 6, 48, 95
3, 427215, Note_on_c, 6, 53, 95
3, 427230, Note_on_c, 6, 57, 95
3, 427245, Note_on_c, 6, 60, 95
3, 427680, Note_off_c, 6, 60, 95
3, 427680, Note_off_c, 6, 57, 95
3, 427680, Note_off_c, 6, 53, 95
3, 427680, Note_off_c, 6, 48, 95
3, 427680, Note_on_c, 6, 65, 95
3, 427710, Note_on_c, 6, 60, 95
3, 427740, Note_on_c, 6, 57, 95
3, 428640, Note_off_c, 6, 65, 95
3, 428640, Note_off_c, 6, 60, 95
3, 428640, Note_off_c, 6, 57, 95
3, 428640, Note_on_c, 6, 65, 95
3, 428655, Note_on_c, 6, 60, 95
3, 428670, Note_on_c, 6, 57, 95
3, 429120, Note_off_c, 6, 65, 95
3, 429120, Note_off_c, 6, 60, 95
3, 429120, Note_off_c, 6, 57, 95
3, 429600, Note_on_c, 6, 65, 95
3, 429615, Note_on_c, 6, 60, 95
3, 429630, Note_on_c, 6, 57, 95
3, 430080, Note_off_c, 6, 65, 95
3, 430080, Note_off_c, 6, 60, 95
3, 430080, Note_off_c, 6, 57, 95
3, 430080, Note_on_c, 6, 50, 95
3, 430110, Note_on_c, 6, 59, 95
3, 430140, Note_on_c, 6, 62, 95
3, 430170, Note_on_c, 6, 67, 95
3, 431040, Note_off_c, 6, 67, 95
3, 431040, Note_off_c, 6, 62, 95
3, 431040, Note_off_c, 6, 59, 95
3, 431040, Note_off_c, 6, 50, 95
3, 431040, Note_on_c, 6, 50, 95
3, 431055, Note_on_c, 6, 59, 95
3, 431070, Note_on_c, 6, 62, 95
3, 431085, Note_on_c, 6, 67, 95
3, 431520, Note_off_c, 6, 67, 95
3, 431520, Note_off_c, 6, 62, 95
3, 431520, Note_off_c, 6, 59, 95
3, 431520, Note_off_c, 6, 50, 95
3, 431520, Note_on_c, 6, 67, 95
3, 431550, Note_on_c, 6, 62, 95
3, 431580, Note_on_c, 6, 59, 95
3, 432480, Note_off_c, 6, 67, 95
3, 432480, Note_off_c, 6, 62, 95
3, 432480, Note_off_c, 6, 59, 95
3, 432480, Note_on_c, 6, 67, 95
3, 432495, Note_on_c, 6, 62, 95
3, 432510, Note_on_c, 6, 59, 95
3, 432960, Note_off_c, 6, 67, 95
3, 432960, Note_off_c, 6, 62, 95
3, 432960, Note_off_c, 6, 59, 95
3, 433440, Note_on_c, 6, 67, 95
3, 433455, Note_on_c, 6, 62, 95
3, 433470, Note_on_c, 6, 59, 95
3, 433920, Note_off_c, 6, 67, 95
3, 433920, Note_off_c, 6, 62, 95
3, 433920, Note_off_c, 6, 59, 95
3, 433920, Note_on_c, 6, 50, 95
3, 433950, Note_on_c, 6, 59, 95
3, 433980, Note_on_c, 6, 62, 95
3, 434010, Note_on_c, 6, 67, 95
3, 434880, Note_off_c, 6, 67, 95
3, 434880, Note_off_c, 6, 62, 95
3, 434880, Note_off_c, 6, 59, 95
3, 434880, Note_off_c, 6, 50, 95
3, 434880, Note_on_c, 6, 50, 95
3, 434895, Note_on_c, 6, 59, 95
3, 434910, Note_on_c, 6, 62, 95
3, 434925, Note_on_c, 6, 67, 95
3, 435360, Note_off_c, 6, 67, 95
3, 435360, Note_off_c, 6, 62, 95
3, 435360, Note_off_c, 6, 59, 95
3, 435360, Note_off_c, 6, 50, 95
3, 435360, Note_on_c, 6, 67, 95
3, 435390, Note_on_c, 6, 62, 95
3, 435420, Note_on_c, 6, 59, 95
3, 436320, Note_off_c, 6, 67, 95
3, 436320, Note_off_c, 6, 62, 95
3, 436320, Note_off_c, 6, 59, 95
3, 436320, Note_on_c, 6, 67, 95
3, 436335, Note_on_c, 6, 62, 95
3, 436350, Note_on_c, 6, 59, 95
3, 436800, Note_off_c, 6, 67, 95
3, 436800, Note_off_c, 6, 62, 95
3, 436800, Note_off_c, 6, 59, 95
3, 437280, Note_on_c, 6, 67, 95
3, 437295, Note_on_c, 6, 62, 95
3, 437310, Note_on_c, 6, 59, 95
3, 437760, Note_off_c, 6, 67, 95
3, 437760, Note_off_c, 6, 62, 95
3, 437760, Note_off_c, 6, 59, 95
3, 437760, Note_on_c, 6, 48, 95
3, 437790, Note_on_c, 6, 52, 95
3, 437820, Note_on_c, 6, 55, 95
3, 437850, Note_on_c, 6, 60, 95
3, 437880, Note_on_c, 6, 64, 95
3, 438720, Note_off_c, 6, 64, 95
3, 438720, Note_off_c, 6, 60, 95
3, 438720, Note_off_c, 6, 55, 95
3, 438720, Note_off_c, 6, 52, 95
3, 438720, Note_off_c, 6, 48, 95
3, 438720, Note_on_c, 6, 48, 95
3, 438735, Note_on_c, 6, 52, 95
3, 438750, Note_on_c, 6, 55, 95
3, 438765, Note_on_c, 6, 60, 95
3, 439200, Note_off_c, 6, 60, 95
3, 439200, Note_off_c, 6, 55, 95
3, 439200, Note_off_c, 6, 52, 95
3, 439200, Note_off_c, 6, 48, 95
3, 439200, Note_on_c, 6, 64, 95
3, 439230, Note_on_c, 6, 60, 95
3, 439260, Note_on_c, 6, 55, 95
3, 440160, Note_off_c, 6, 64, 95
3, 440160, Note_off_c, 6, 60, 95
3, 440160, Note_off_c, 6, 55, 95
3, 440160, Note_on_c, 6, 64, 95
3, 440175, Note_on_c, 6, 60, 95
3, 440190, Note_on_c, 6, 55, 95
3, 440640, Note_off_c, 6, 64, 95
3, 440640, Note_off_c, 6, 60, 95
3, 440640, Note_off_c, 6, 55, 95
3, 441120, Note_on_c, 6, 64, 95
3, 441135, Note_on_c, 6, 60, 95
3, 441150, Note_on_c, 6, 55, 95
3, 441600, Note_off_c, 6, 64, 95
3, 441600, Note_off_c, 6, 60, 95
3, 441600, Note_off_c, 6, 55, 95
3, 441600, Note_on_c, 6, 48, 95
3, 441630, Note_on_c, 6, 52, 95
3, 441660, Note_on_c, 6, 55, 95
3, 441690, Note_on_c, 6, 60, 95
3, 441720, Note_on_c, 6, 64, 95
3, 442560, Note_off_c, 6, 64, 95
3, 442560, Note_off_c, 6, 60, 95
3, 442560, Note_off_c, 6, 55, 95
3, 442560, Note_off_c, 6, 52, 95
3, 442560, Note_off_c, 6, 48, 95
3, 442560, Note_on_c, 6, 48, 95
3, 442575, Note_on_c, 6, 52, 95
3, 442590, Note_on_c, 6, 55, 95
3, 442605, Note_on_c, 6, 60, 95
3, 443040, Note_off_c, 6, 60, 95
3, 443040, Note_off_c, 6, 55, 95
3, 443040, Note_off_c, 6, 52, 95
3, 443040, Note_off_c, 6, 48, 95
3, 443040, Note_on_c, 6, 64, 95
3, 443070, Note_on_c, 6, 60, 95
3, 443100, Note_on_c, 6, 55, 95
3, 444000, Note_off_c, 6, 64, 95
3, 444000, Note_off_c, 6, 60, 95
3, 444000, Note_off_c, 6, 55, 95
3, 444000, Note_on_c, 6, 64, 95
3, 444015, Note_on_c, 6, 60, 95
3, 444030, Note_on_c, 6, 55, 95
3, 444480, Note_off_c, 6, 64, 95
3, 444480, Note_off_c, 6, 60, 95
3, 444480, Note_off_c, 6, 55, 95
3, 444960, Note_on_c, 6, 64, 95
3, 444975, Note_on_c, 6, 60, 95
3, 444990, Note_on_c, 6, 55, 95
3, 445440, Note_off_c, 6, 64, 95
3, 445440, Note_off_c, 6, 60, 95
3, 445440, Note_off_c, 6, 55, 95
3, 445440, Note_on_c, 6, 48, 95
3, 445500, Note_on_c, 6, 52, 95
3, 445560, Note_on_c, 6, 55, 95
3, 445620, Note_on_c, 6, 60, 95
3, 445680, Note_on_c, 6, 64, 95
3, 446400, Note_off_c, 6, 64, 95
3, 446400, Note_off_c, 6, 60, 95
3, 446400, Note_off_c, 6, 55, 95
3, 446400, Note_off_c, 6, 52, 95
3, 446400, Note_off_c, 6, 48, 95
3, 446400, Note_on_c, 6, 48, 95
3, 446415, Note_on_c, 6, 52, 95
3, 446430, Note_on_c, 6, 55, 95
3, 446880, Note_off_c, 6, 55, 95
3, 446880, Note_off_c, 6, 52, 95
3, 446880, Note_off_c, 6, 48, 95
3, 446880, Note_on_c, 6, 64, 95
3, 446895, Note_on_c, 6, 60, 95
3, 446910, Note_on_c, 6, 55, 95
3, 447360, Note_off_c, 6, 64, 95
3, 447360, Note_off_c, 6, 60, 95
3, 447360, Note_off_c, 6, 55, 95
3, 447360, Note_on_c, 6, 48, 95
3, 447420, Note_on_c, 6, 52, 95
3, 447480, Note_on_c, 6, 55, 95
3, 447540, Note_on_c, 6, 60, 95
3, 448320, Note_off_c, 6, 60, 95
3, 448320, Note_off_c, 6, 55, 95
3, 448320, Note_off_c, 6, 52, 95
3, 448320, Note_off_c, 6, 48, 95
3, 448320, Note_on_c, 6, 64, 95
3, 448335, Note_on_c, 6, 60, 95
3, 448350, Note_on_c, 6, 55, 95
3, 448800, Note_off_c, 6, 64, 95
3, 448800, Note_off_c, 6, 60, 95
3, 448800, Note_off_c, 6, 55, 95
3, 448800, Note_on_c, 6, 64, 95
3, 448815, Note_on_c, 6, 60, 95
3, 448830, Note_on_c, 6, 55, 95
3, 449280, Note_off_c, 6, 64, 95
3, 449280, Note_off_c, 6, 60, 95
3, 449280, Note_off_c, 6, 55, 95
3, 449280, Note_on_c, 6, 40, 95
3, 449340, Note_on_c, 6, 47, 95
3, 449400, Note_on_c, 6, 52, 95
3, 449460, Note_on_c, 6, 55, 95
3, 449520, Note_on_c, 6, 59, 95
3, 449580, Note_on_c, 6, 64, 95
3, 450240, Note_off_c, 6, 64, 95
3, 450240, Note_off_c, 6, 59, 95
3, 450240, Note_off_c, 6, 55, 95
3, 450240, Note_off_c, 6, 52, 95
3, 450240, Note_off_c, 6, 47, 95
3, 450240, Note_off_c, 6, 40, 95
3, 450240, Note_on_c, 6, 47, 95
3, 450255, Note_on_c, 6, 52, 95
3, 450270, Note_on_c, 6, 55, 95
3, 450720, Note_off_c, 6, 55, 95
3, 450720, Note_off_c, 6, 52, 95
3, 450720, Note_off_c, 6, 47, 95
3, 450720, Note_on_c, 6, 64, 95
3, 450735, Note_on_c, 6, 59, 95
3, 450750, Note_on_c, 6, 55, 95
3, 451200, Note_off_c, 6, 64, 95
3, 451200, Note_off_c, 6, 59, 95
3, 451200, Note_off_c, 6, 55, 95
3, 451200, Note_on_c, 6, 45, 95
3, 451260, Note_on_c, 6, 52, 95
3, 451320, Note_on_c, 6, 55, 95
3, 451380, Note_on_c, 6, 59, 95
3, 452160, Note_off_c, 6, 59, 95
3, 452160, Note_off_c, 6, 55, 95
3, 452160, Note_off_c, 6, 52, 95
3, 452160, Note_off_c, 6, 45, 95
3, 452160, Note_on_c, 6, 64, 95
3, 452175, Note_on_c, 6, 59, 95
3, 452190, Note_on_c, 6, 55, 95
3, 452640, Note_off_c, 6, 64, 95
3, 452640, Note_off_c, 6, 59, 95
3, 452640, Note_off_c, 6, 55, 95
3, 452640, Note_on_c, 6, 64, 95
3, 452655, Note_on_c, 6, 59, 95
3, 452670, Note_on_c, 6, 55, 95
3, 453120, Note_off_c, 6, 64, 95
3, 453120, Note_off_c, 6, 59, 95
3, 453120, Note_off_c, 6, 55, 95
3, 453120, Note_on_c, 6, 45, 95
3, 453180, Note_on_c, 6, 52, 95
3, 453240, Note_on_c, 6, 57, 95
3, 453300, Note_on_c, 6, 60, 95
3, 453360, Note_on_c, 6, 64, 95
3, 454080, Note_off_c, 6, 64, 95
3, 454080, Note_off_c, 6, 60, 95
3, 454080, Note_off_c, 6, 57, 95
3, 454080, Note_off_c, 6, 52, 95
3, 454080, Note_off_c, 6, 45, 95
3, 454080, Note_on_c, 6, 45, 95
3, 454095, Note_on_c, 6, 52, 95
3, 454110, Note_on_c, 6, 57, 95
3, 454560, Note_off_c, 6, 57, 95
3, 454560, Note_off_c, 6, 52, 95
3, 454560, Note_off_c, 6, 45, 95
3, 454560, Note_on_c, 6, 64, 95
3, 454575, Note_on_c, 6, 60, 95
3, 454590, Note_on_c, 6, 57, 95
3, 455040, Note_off_c, 6, 64, 95
3, 455040, Note_off_c, 6, 60, 95
3, 455040, Note_off_c, 6, 57, 95
3, 455040, Note_on_c, 6, 45, 95
3, 455100, Note_on_c, 6, 52, 95
3, 455160, Note_on_c, 6, 57, 95
3, 455220, Note_on_c, 6, 60, 95
3, 456000, Note_off_c, 6, 60, 95
3, 456000, Note_off_c, 6, 57, 95
3, 456000, Note_off_c, 6, 52, 95
3, 456000, Note_off_c, 6, 45, 95
3, 456000, Note_on_c, 6, 64, 95
3, 456015, Note_on_c, 6, 60, 95
3, 456030, Note_on_c, 6, 57, 95
3, 456480, Note_off_c, 6, 64, 95
3, 456480, Note_off_c, 6, 60, 95
3, 456480, Note_off_c, 6, 57, 95
3, 456480, Note_on_c, 6, 64, 95
3, 456495, Note_on_c, 6, 60, 95
3, 456510, Note_on_c, 6, 57, 95
3, 456960, Note_off_c, 6, 64, 95
3, 456960, Note_off_c, 6, 60, 95
3, 456960, Note_off_c, 6, 57, 95
3, 456960, Note_on_c, 6, 48, 95
3, 456990, Note_on_c, 6, 53, 95
3, 457020, Note_on_c, 6, 57, 95
3, 457050, Note_on_c, 6, 60, 95
3, 457080, Note_on_c, 6, 65, 95
3, 457920, Note_off_c, 6, 65, 95
3, 457920, Note_off_c, 6, 60, 95
3, 457920, Note_off_c, 6, 57, 95
3, 457920, Note_off_c, 6, 53, 95
3, 457920, Note_off_c, 6, 48, 95
3, 457920, Note_on_c, 6, 48, 95
3, 457935, Note_on_c, 6, 53, 95
3, 457950, Note_on_c, 6, 57, 95
3, 457965, Note_on_c, 6, 60, 95
3, 458400, Note_off_c, 6, 60, 95
3, 458400, Note_off_c, 6, 57, 95
3, 458400, Note_off_c, 6, 53, 95
3, 458400, Note_off_c, 6, 48, 95
3, 458400, Note_on_c, 6, 65, 95
3, 458430, Note_on_c, 6, 60, 95
3, 458460, Note_on_c, 6, 57, 95
3, 459360, Note_off_c, 6, 65, 95
3, 459360, Note_off_c, 6, 60, 95
3, 459360, Note_off_c, 6, 57, 95
3, 459360, Note_on_c, 6, 65, 95
3, 459375, Note_on_c, 6, 60, 95
3, 459390, Note_on_c, 6, 57, 95
3, 459840, Note_off_c, 6, 65, 95
3, 459840, Note_off_c, 6, 60, 95
3, 459840, Note_off_c, 6, 57, 95
3, 460320, Note_on_c, 6, 65, 95
3, 460335, Note_on_c, 6, 60, 95
3, 460350, Note_on_c, 6, 57, 95
3, 460800, Note_off_c, 6, 65, 95
3, 460800, Note_off_c, 6, 60, 95
3, 460800, Note_off_c, 6, 57, 95
3, 460800, Note_on_c, 6, 50, 95
3, 460830, Note_on_c, 6, 59, 95
3, 460860, Note_on_c, 6, 62, 95
3, 460890, Note_on_c, 6, 67, 95
3, 461760, Note_off_c, 6, 67, 95
3, 461760, Note_off_c, 6, 62, 95
3, 461760, Note_off_c, 6, 59, 95
3, 461760, Note_off_c, 6, 50, 95
3, 461760, Note_on_c, 6, 50, 95
3, 461775, Note_on_c, 6, 59, 95
3, 461790, Note_on_c, 6, 62, 95
3, 461805, Note_on_c, 6, 67, 95
3, 462240, Note_off_c, 6, 67, 95
3, 462240, Note_off_c, 6, 62, 95
3, 462240, Note_off_c, 6, 59, 95
3, 462240, Note_off_c, 6, 50, 95
3, 462240, Note_on_c, 6, 67, 95
3, 462270, Note_on_c, 6, 62, 95
3, 462300, Note_on_c, 6, 59, 95
3, 463200, Note_off_c, 6, 67, 95
3, 463200, Note_off_c, 6, 62, 95
3, 463200, Note_off_c, 6, 59, 95
3, 463200, Note_on_c, 6, 67, 95
3, 463215, Note_on_c, 6, 62, 95
3, 463230, Note_on_c, 6, 59, 95
3, 463680, Note_off_c, 6, 67, 95
3, 463680, Note_off_c, 6, 62, 95
3, 463680, Note_off_c, 6, 59, 95
3, 464160, Note_on_c, 6, 67, 95
3, 464175, Note_on_c, 6, 62, 95
3, 464190, Note_on_c, 6, 59, 95
3, 464640, Note_off_c, 6, 67, 95
3, 464640, Note_off_c, 6, 62, 95
3, 464640, Note_off_c, 6, 59, 95
3, 464640, Note_on_c, 6, 50, 95
3, 464670, Note_on_c, 6, 59, 95
3, 464700, Note_on_c, 6, 62, 95
3, 464730, Note_on_c, 6, 67, 95
3, 465600, Note_off_c, 6, 67, 95
3, 465600, Note_off_c, 6, 62, 95
3, 465600, Note_off_c, 6, 59, 95
3, 465600, Note_off_c, 6, 50, 95
3, 465600, Note_on_c, 6, 50, 95
3, 465615, Note_on_c, 6, 59, 95
3, 465630, Note_on_c, 6, 62, 95
3, 465645, Note_on_c, 6, 67, 95
3, 466080, Note_off_c, 6, 67, 95
3, 466080, Note_off_c, 6, 62, 95
3, 466080, Note_off_c, 6, 59, 95
3, 466080, Note_off_c, 6, 50, 95
3, 466080, Note_on_c, 6, 67, 95
3, 466110, Note_on_c, 6, 62, 95
3, 466140, Note_on_c, 6, 59, 95
3, 467040, Note_off_c, 6, 67, 95
3, 467040, Note_off_c, 6, 62, 95
3, 467040, Note_off_c, 6, 59, 95
3, 467040, Note_on_c, 6, 67, 95
3, 467055, Note_on_c, 6, 62, 95
3, 467070, Note_on_c, 6, 59, 95
3, 467520, Note_off_c, 6, 67, 95
3, 467520, Note_off_c, 6, 62, 95
3, 467520, Note_off_c, 6, 59, 95
3, 468000, Note_on_c, 6, 67, 95
3, 468015, Note_on_c, 6, 62, 95
3, 468030, Note_on_c, 6, 59, 95
3, 468480, Note_off_c, 6, 67, 95
3, 468480, Note_off_c, 6, 62, 95
3, 468480, Note_off_c, 6, 59, 95
3, 468480, Note_on_c, 6, 48, 95
3, 468510, Note_on_c, 6, 52, 95
3, 468540, Note_on_c, 6, 55, 95
3, 468570, Note_on_c, 6, 60, 95
3, 468600, Note_on_c, 6, 64, 95
3, 469440, Note_off_c, 6, 64, 95
3, 469440, Note_off_c, 6, 60, 95
3, 469440, Note_off_c, 6, 55, 95
3, 469440, Note_off_c, 6, 52, 95
3, 469440, Note_off_c, 6, 48, 95
3, 469440, Note_on_c, 6, 48, 95
3, 469455, Note_on_c, 6, 52, 95
3, 469470, Note_on_c, 6, 55, 95
3, 469485, Note_on_c, 6, 60, 95
3, 469920, Note_off_c, 6, 60, 95
3, 469920, Note_off_c, 6, 55, 95
3, 469920, Note_off_c, 6, 52, 95
3, 469920, Note_off_c, 6, 48, 95
3, 469920, Note_on_c, 6, 64, 95
3, 469950, Note_on_c, 6, 60, 95
3, 469980, Note_on_c, 6, 55, 95
3, 470880, Note_off_c, 6, 64, 95
3, 470880, Note_off_c, 6, 60, 95
3, 470880, Note_off_c, 6, 55, 95
3, 470880, Note_on_c, 6, 64, 95
3, 470895, Note_on_c, 6, 60, 95
3, 470910, Note_on_c, 6, 55, 95
3, 471360, Note_off_c, 6, 64, 95
3, 471360, Note_off_c, 6, 60, 95
3, 471360, Note_off_c, 6, 55, 95
3, 471840, Note_on_c, 6, 64, 95
3, 471855, Note_on_c, 6, 60, 95
3, 471870, Note_on_c, 6, 55, 95
3, 472320, Note_off_c, 6, 64, 95
3, 472320, Note_off_c, 6, 60, 95
3, 472320, Note_off_c, 6, 55, 95
3, 472320, Note_on_c, 6, 48, 95
3, 472350, Note_on_c, 6, 52, 95
3, 472380, Note_on_c, 6, 55, 95
3, 472410, Note_on_c, 6, 60, 95
3, 472440, Note_on_c, 6, 64, 95
3, 473280, Note_off_c, 6, 64, 95
3, 473280, Note_off_c, 6, 60, 95
3, 473280, Note_off_c, 6, 55, 95
3, 473280, Note_off_c, 6, 52, 95
3, 473280, Note_off_c, 6, 48, 95
3, 473280, Note_on_c, 6, 48, 95
3, 473295, Note_on_c, 6, 52, 95
3, 473310, Note_on_c, 6, 55, 95
3, 473325, Note_on_c, 6, 60, 95
3, 473760, Note_off_c, 6, 60, 95
3, 473760, Note_off_c, 6, 55, 95
3, 473760, Note_off_c, 6, 52, 95
3, 473760, Note_off_c, 6, 48, 95
3, 473760, Note_on_c, 6, 64, 95
3, 473790, Note_on_c, 6, 60, 95
3, 473820, Note_on_c, 6, 55, 95
3, 474720, Note_off_c, 6, 64, 95
3, 474720, Note_off_c, 6, 60, 95
3, 474720, Note_off_c, 6, 55, 95
3, 474720, Note_on_c, 6, 64, 95
3, 474735, Note_on_c, 6, 60, 95
3, 474750, Note_on_c, 6, 55, 95
3, 475200, Note_off_c, 6, 64, 95
3, 475200, Note_off_c, 6, 60, 95
3, 475200, Note_off_c, 6, 55, 95
3, 475680, Note_on_c, 6, 64, 95
3, 475695, Note_on_c, 6, 60, 95
3, 475710, Note_on_c, 6, 55, 95
3, 476160, Note_off_c, 6, 64, 95
3, 476160, Note_off_c, 6, 60, 95
3, 476160, Note_off_c, 6, 55, 95
3, 476160, Note_on_c, 6, 48, 95
3, 476220, Note_on_c, 6, 52, 95
3, 476280, Note_on_c, 6, 55, 95
3, 476340, Note_on_c, 6, 60, 95
3, 476400, Note_on_c, 6, 64, 95
3, 477120, Note_off_c, 6, 64, 95
3, 477120, Note_off_c, 6, 60, 95
3, 477120, Note_off_c, 6, 55, 95
3, 477120, Note_off_c, 6, 52, 95
3, 477120, Note_off_c, 6, 48, 95
3, 477120, Note_on_c, 6, 48, 95
3, 477135, Note_on_c, 6, 52, 95
3, 477150, Note_on_c, 6, 55, 95
3, 477600, Note_off_c, 6, 55, 95
3, 477600, Note_off_c, 6, 52, 95
3, 477600, Note_off_c, 6, 48, 95
3, 477600, Note_on_c, 6, 64, 95
3, 477615, Note_on_c, 6, 60, 95
3, 477630, Note_on_c, 6, 55, 95
3, 478080, Note_off_c, 6, 64, 95
3, 478080, Note_off_c, 6, 60, 95
3, 478080, Note_off_c, 6, 55, 95
3, 478080, Note_on_c, 6, 48, 95
3, 478140, Note_on_c, 6, 52, 95
3, 478200, Note_on_c, 6, 55, 95
3, 478260, Note_on_c, 6, 60, 95
3, 479040, Note_off_c, 6, 60, 95
3, 479040, Note_off_c, 6, 55, 95
3, 479040, Note_off_c, 6, 52, 95
3, 479040, Note_off_c, 6, 48, 95
3, 479040, Note_on_c, 6, 64, 95
3, 479055, Note_on_c, 6, 60, 95
3, 479070, Note_on_c, 6, 55, 95
3, 479520, Note_off_c, 6, 64, 95
3, 479520, Note_off_c, 6, 60, 95
3, 479520, Note_off_c, 6, 55, 95
3, 479520, Note_on_c, 6, 64, 95
3, 479535, Note_on_c, 6, 60, 95
3, 479550, Note_on_c, 6, 55, 95
3, 480000, Note_off_c, 6, 64, 95
3, 480000, Note_off_c, 6, 60, 95
3, 480000, Note_off_c, 6, 55, 95
3, 480000, Note_on_c, 6, 40, 95
3, 480060, Note_on_c, 6, 47, 95
3, 480120, Note_on_c, 6, 52, 95
3, 480180, Note_on_c, 6, 55, 95
3, 480240, Note_on_c, 6, 59, 95
3, 480300, Note_on_c, 6, 64, 95
3, 480960, Note_off_c, 6, 64, 95
3, 480960, Note_off_c, 6, 59, 95
3, 480960, Note_off_c, 6, 55, 95
3, 480960, Note_off_c, 6, 52, 95
3, 480960, Note_off_c, 6, 47, 95
3, 480960, Note_off_c, 6, 40, 95
3, 480960, Note_on_c, 6, 47, 95
3, 480975, Note_on_c, 6, 52, 95
3, 480990, Note_on_c, 6, 55, 95
3, 481440, Note_off_c, 6, 55, 95
3, 481440, Note_off_c, 6, 52, 95
3, 481440, Note_off_c, 6, 47, 95
3, 481440, Note_on_c, 6, 64, 95
3, 481455, Note_on_c, 6, 59, 95
3, 481470, Note_on_c, 6, 55, 95
3, 481920, Note_off_c, 6, 64, 95
3, 481920, Note_off_c, 6, 59, 95
3, 481920, Note_off_c, 6, 55, 95
3, 481920, Note_on_c, 6, 45, 95
3, 481980, Note_on_c, 6, 52, 95
3, 482040, Note_on_c, 6, 55, 95
3, 482100, Note_on_c, 6, 59, 95
3, 482880, Note_off_c, 6, 59, 95
3, 482880, Note_off_c, 6, 55, 95
3, 482880, Note_off_c, 6, 52, 95
3, 482880, Note_off_c, 6, 45, 95
3, 482880, Note_on_c, 6, 64, 95
3, 482895, Note_on_c, 6, 59, 95
3, 482910, Note_on_c, 6, 55, 95
3, 483360, Note_off_c, 6, 64, 95
3, 483360, Note_off_c, 6, 59, 95
3, 483360, Note_off_c, 6, 55, 95
3, 483360, Note_on_c, 6, 64, 95
3, 483375, Note_on_c, 6, 59, 95
3, 483390, Note_on_c, 6, 55, 95
3, 483840, Note_off_c, 6, 64, 95
3, 483840, Note_off_c, 6, 59, 95
3, 483840, Note_off_c, 6, 55, 95
3, 483840, Note_on_c, 6, 45, 95
3, 483900, Note_on_c, 6, 52, 95
3, 483960, Note_on_c, 6, 57, 95
3, 484020, Note_on_c, 6, 60, 95
3, 484080, Note_on_c, 6, 64, 95
3, 484800, Note_off_c, 6, 64, 95
3, 484800, Note_off_c, 6, 60, 95
3, 484800, Note_off_c, 6, 57, 95
3, 484800, Note_off_c, 6, 52, 95
3, 484800, Note_off_c, 6, 45, 95
3, 484800, Note_on_c, 6, 45, 95
3, 484815, Note_on_c, 6, 52, 95
3, 484830, Note_on_c, 6, 57, 95
3, 485280, Note_off_c, 6, 57, 95
3, 485280, Note_off_c, 6, 52, 95
3, 485280, Note_off_c, 6, 45, 95
3, 485280, Note_on_c, 6, 64, 95
3, 485295, Note_on_c, 6, 60, 95
3, 485310, Note_on_c, 6, 57, 95
3, 485760, Note_off_c, 6, 64, 95
3, 485760, Note_off_c, 6, 60, 95
3, 485760, Note_off_c, 6, 57, 95
3, 485760, Note_on_c, 6, 45, 95
3, 485820, Note_on_c, 6, 52, 95
3, 485880, Note_on_c, 6, 57, 95
3, 485940, Note_on_c, 6, 60, 95
3, 486720, Note_off_c, 6, 60, 95
3, 486720, Note_off_c, 6, 57, 95
3, 486720, Note_off_c, 6, 52, 95
3, 486720, Note_off_c, 6, 45, 95
3, 486720, Note_on_c, 6, 64, 95
3, 486735, Note_on_c, 6, 60, 95
3, 486750, Note_on_c, 6, 57, 95
3, 487200, Note_off_c, 6, 64, 95
3, 487200, Note_off_c, 6, 60, 95
3, 487200, Note_off_c, 6, 57, 95
3, 487200, Note_on_c, 6, 64, 95
3, 487215, Note_on_c, 6, 60, 95
3, 487230, Note_on_c, 6, 57, 95
3, 487680, Note_off_c, 6, 64, 95
3, 487680, Note_off_c, 6, 60, 95
3, 487680, Note_off_c, 6, 57, 95
3, 487680, Note_on_c, 6, 48, 95
3, 487710, Note_on_c, 6, 53, 95
3, 487740, Note_on_c, 6, 57, 95
3, 487770, Note_on_c, 6, 60, 95
3, 487800, Note_on_c, 6, 65, 95
3, 488640, Note_off_c, 6, 65, 95
3, 488640, Note_off_c, 6, 60, 95
3, 488640, Note_off_c, 6, 57, 95
3, 488640, Note_off_c, 6, 53, 95
3, 488640, Note_off_c, 6, 48, 95
3, 488640, Note_on_c, 6, 48, 95
3, 488655, Note_on_c, 6, 53, 95
3, 488670, Note_on_c, 6, 57, 95
3, 488685, Note_on_c, 6, 60, 95
3, 489120, Note_off_c, 6, 60, 95
3, 489120, Note_off_c, 6, 57, 95
3, 489120, Note_off_c, 6, 53, 95
3, 489120, Note_off_c, 6, 48, 95
3, 489120, Note_on_c, 6, 65, 95
3, 489150, Note_on_c, 6, 60, 95
3, 489180, Note_on_c, 6, 57, 95
3, 490080, Note_off_c, 6, 65, 95
3, 490080, Note_off_c, 6, 60, 95
3, 490080, Note_off_c, 6, 57, 95
3, 490080, Note_on_c, 6, 65, 95
3, 490095, Note_on_c, 6, 60, 95
3, 490110, Note_on_c, 6, 57, 95
3, 490560, Note_off_c, 6, 65, 95
3, 490560, Note_off_c, 6, 60, 95
3, 490560, Note_off_c, 6, 57, 95
3, 491040, Note_on_c, 6, 65, 95
3, 491055, Note_on_c, 6, 60, 95
3, 491070, Note_on_c, 6, 57, 95
3, 491520, Note_off_c, 6, 65, 95
3, 491520, Note_off_c, 6, 60, 95
3, 491520, Note_off_c, 6, 57, 95
3, 491520, Note_on_c, 6, 50, 95
3, 491550, Note_on_c, 6, 59, 95
3, 491580, Note_on_c, 6, 62, 95
3, 491610, Note_on_c, 6, 67, 95
3, 492480, Note_off_c, 6, 67, 95
3, 492480, Note_off_c, 6, 62, 95
3, 492480, Note_off_c, 6, 59, 95
3, 492480, Note_off_c, 6, 50, 95
3, 492480, Note_on_c, 6, 50, 95
3, 492495, Note_on_c, 6, 59, 95
3, 492510, Note_on_c, 6, 62, 95
3, 492525, Note_on_c, 6, 67, 95
3, 492960, Note_off_c, 6, 67, 95
3, 492960, Note_off_c, 6, 62, 95
3, 492960, Note_off_c, 6, 59, 95
3, 492960, Note_off_c, 6, 50, 95
3, 492960, Note_on_c, 6, 67, 95
3, 492990, Note_on_c, 6, 62, 95
3, 493020, Note_on_c, 6, 59, 95
3, 493920, Note_off_c, 6, 67, 95
3, 493920, Note_off_c, 6, 62, 95
3, 493920, Note_off_c, 6, 59, 95
3, 493920, Note_on_c, 6, 67, 95
3, 493935, Note_on_c, 6, 62, 95
3, 493950, Note_on_c, 6, 59, 95
3, 494400, Note_off_c, 6, 67, 95
3, 494400, Note_off_c, 6, 62, 95
3, 494400, Note_off_c, 6, 59, 95
3, 494880, Note_on_c, 6, 67, 95
3, 494895, Note_on_c, 6, 62, 95
3, 494910, Note_on_c, 6, 59, 95
3, 495360, Note_off_c, 6, 67, 95
3, 495360, Note_off_c, 6, 62, 95
3, 495360, Note_off_c, 6, 59, 95
3, 495360, Note_on_c, 6, 50, 95
3, 495390, Note_on_c, 6, 59, 95
3, 495420, Note_on_c, 6, 62, 95
3, 495450, Note_on_c, 6, 67, 95
3, 496320, Note_off_c, 6, 67, 95
3, 496320, Note_off_c, 6, 62, 95
3, 496320, Note_off_c, 6, 59, 95
3, 496320, Note_off_c, 6, 50, 95
3, 496320, Note_on_c, 6, 50, 95
3, 496335, Note_on_c, 6, 59, 95
3, 496350, Note_on_c, 6, 62, 95
3, 496365, Note_on_c, 6, 67, 95
3, 496800, Note_off_c, 6, 67, 95
3, 496800, Note_off_c, 6, 62, 95
3, 496800, Note_off_c, 6, 59, 95
3, 496800, Note_off_c, 6, 50, 95
3, 496800, Note_on_c, 6, 67, 95
3, 496830, Note_on_c, 6, 62, 95
3, 496860, Note_on_c, 6, 59, 95
3, 497760, Note_off_c, 6, 67, 95
3, 497760, Note_off_c, 6, 62, 95
3, 497760, Note_off_c, 6, 59, 95
3, 497760, Note_on_c, 6, 67, 95
3, 497775, Note_on_c, 6, 62, 95
3, 497790, Note_on_c, 6, 59, 95
3, 498240, Note_off_c, 6, 67, 95
3, 498240, Note_off_c, 6, 62, 95
3, 498240, Note_off_c, 6, 59, 95
3, 498720, Note_on_c, 6, 67, 95
3, 498735, Note_on_c, 6, 62, 95
3, 498750, Note_on_c, 6, 59, 95
3, 499200, Note_off_c, 6, 67, 95
3, 499200, Note_off_c, 6, 62, 95
3, 499200, Note_off_c, 6, 59, 95
3, 499200, Note_on_c, 6, 48, 95
3, 499230, Note_on_c, 6, 52, 95
3, 499260, Note_on_c, 6, 55, 95
3, 499290, Note_on_c, 6, 60, 95
3, 499320, Note_on_c, 6, 64, 95
3, 500160, Note_off_c, 6, 64, 95
3, 500160, Note_off_c, 6, 60, 95
3, 500160, Note_off_c, 6, 55, 95
3, 500160, Note_off_c, 6, 52, 95
3, 500160, Note_off_c, 6, 48, 95
3, 500160, Note_on_c, 6, 48, 95
3, 500175, Note_on_c, 6, 52, 95
3, 500190, Note_on_c, 6, 55, 95
3, 500205, Note_on_c, 6, 60, 95
3, 500640, Note_off_c, 6, 60, 95
3, 500640, Note_off_c, 6, 55, 95
3, 500640, Note_off_c, 6, 52, 95
3, 500640, Note_off_c, 6, 48, 95
3, 500640, Note_on_c, 6, 64, 95
3, 500670, Note_on_c, 6, 60, 95
3, 500700, Note_on_c, 6, 55, 95
3, 501600, Note_off_c, 6, 64, 95
3, 501600, Note_off_c, 6, 60, 95
3, 501600, Note_off_c, 6, 55, 95
3, 501600, Note_on_c, 6, 64, 95
3, 501615, Note_on_c, 6, 60, 95
3, 501630, Note_on_c, 6, 55, 95
3, 502080, Note_off_c, 6, 64, 95
3, 502080, Note_off_c, 6, 60, 95
3, 502080, Note_off_c, 6, 55, 95
3, 502560, Note_on_c, 6, 64, 95
3, 502575, Note_on_c, 6, 60, 95
3, 502590, Note_on_c, 6, 55, 95
3, 503040, Note_off_c, 6, 64, 95
3, 503040, Note_off_c, 6, 60, 95
3, 503040, Note_off_c, 6, 55, 95
3, 503040, Note_on_c, 6, 48, 95
3, 503070, Note_on_c, 6, 52, 95
3, 503100, Note_on_c, 6, 55, 95
3, 503130, Note_on_c, 6, 60, 95
3, 503160, Note_on_c, 6, 64, 95
3, 504000, Note_off_c, 6, 64, 95
3, 504000, Note_off_c, 6, 60, 95
3, 504000, Note_off_c, 6, 55, 95
3, 504000, Note_off_c, 6, 52, 95
3, 504000, Note_off_c, 6, 48, 95
3, 504000, Note_on_c, 6, 48, 95
3, 504015, Note_on_c, 6, 52, 95
3, 504030, Note_on_c, 6, 55, 95
3, 504045, Note_on_c, 6, 60, 95
3, 504480, Note_off_c, 6, 60, 95
3, 504480, Note_off_c, 6, 55, 95
3, 504480, Note_off_c, 6, 52, 95
3, 504480, Note_off_c, 6, 48, 95
3, 504480, Note_on_c, 6, 64, 95
3, 504510, Note_on_c, 6, 60, 95
3, 504540, Note_on_c, 6, 55, 95
3, 505440, Note_off_c, 6, 64, 95
3, 505440, Note_off_c, 6, 60, 95
3, 505440, Note_off_c, 6, 55, 95
3, 505440, Note_on_c, 6, 64, 95
3, 505455, Note_on_c, 6, 60, 95
3, 505470, Note_on_c, 6, 55, 95
3, 505920, Note_off_c, 6, 64, 95
3, 505920, Note_off_c, 6, 60, 95
3, 505920, Note_off_c, 6, 55, 95
3, 506400, Note_on_c, 6, 64, 95
3, 506415, Note_on_c, 6, 60, 95
3, 506430, Note_on_c, 6, 55, 95
3, 506880, Note_off_c, 6, 64, 95
3, 506880, Note_off_c, 6, 60, 95
3, 506880, Note_off_c, 6, 55, 95
3, 506880, Note_on_c, 6, 40, 95
3, 506940, Note_on_c, 6, 47, 95
3, 507000, Note_on_c, 6, 52, 95
3, 507060, Note_on_c, 6, 55, 95
3, 507120, Note_on_c, 6, 59, 95
3, 507180, Note_on_c, 6, 64, 95
3, 507840, Note_off_c, 6, 64, 95
3, 507840, Note_off_c, 6, 59, 95
3, 507840, Note_off_c, 6, 55, 95
3, 507840, Note_off_c, 6, 52, 95
3, 507840, Note_off_c, 6, 47, 95
3, 507840, Note_off_c, 6, 40, 95
3, 507840, Note_on_c, 6, 47, 95
3, 507855, Note_on_c, 6, 52, 95
3, 507870, Note_on_c, 6, 55, 95
3, 508320, Note_off_c, 6, 55, 95
3, 508320, Note_off_c, 6, 52, 95
3, 508320, Note_off_c, 6, 47, 95
3, 508320, Note_on_c, 6, 64, 95
3, 508335, Note_on_c, 6, 59, 95
3, 508350, Note_on_c, 6, 55, 95
3, 508800, Note_off_c, 6, 64, 95
3, 508800, Note_off_c, 6, 59, 95
3, 508800, Note_off_c, 6, 55, 95
3, 508800, Note_on_c, 6, 45, 95
3, 508860, Note_on_c, 6, 52, 95
3, 508920, Note_on_c, 6, 55, 95
3, 508980, Note_on_c, 6, 59, 95
3, 509760, Note_off_c, 6, 59, 95
3, 509760, Note_off_c, 6, 55, 95
3, 509760, Note_off_c, 6, 52, 95
3, 509760, Note_off_c, 6, 45, 95
3, 509760, Note_on_c, 6, 64, 95
3, 509775, Note_on_c, 6, 59, 95
3, 509790, Note_on_c, 6, 55, 95
3, 510240, Note_off_c, 6, 64, 95
3, 510240, Note_off_c, 6, 59, 95
3, 510240, Note_off_c, 6, 55, 95
3, 510240, Note_on_c, 6, 64, 95
3, 510255, Note_on_c, 6, 59, 95
3, 510270, Note_on_c, 6, 55, 95
3, 510720, Note_off_c, 6, 64, 95
3, 510720, Note_off_c, 6, 59, 95
3, 510720, Note_off_c, 6, 55, 95
3, 510720, Note_on_c, 6, 40, 95
3, 510780, Note_on_c, 6, 47, 95
3, 510840, Note_on_c, 6, 52, 95
3, 510900, Note_on_c, 6, 55, 95
3, 510960, Note_on_c, 6, 59, 95
3, 511020, Note_on_c, 6, 64, 95
3, 511680, Note_off_c, 6, 64, 95
3, 511680, Note_off_c, 6, 59, 95
3, 511680, Note_off_c, 6, 55, 95
3, 511680, Note_off_c, 6, 52, 95
3, 511680, Note_off_c, 6, 47, 95
3, 511680, Note_off_c, 6, 40, 95
3, 511680, Note_on_c, 6, 47, 95
3, 511695, Note_on_c, 6, 52, 95
3, 511710, Note_on_c, 6, 55, 95
3, 512160, Note_off_c, 6, 55, 95
3, 512160, Note_off_c, 6, 52, 95
3, 512160, Note_off_c, 6, 47, 95
3, 512160, Note_on_c, 6, 64, 95
3, 512175, Note_on_c, 6, 59, 95
3, 512190, Note_on_c, 6, 55, 95
3, 512640, Note_off_c, 6, 64, 95
3, 512640, Note_off_c, 6, 59, 95
3, 512640, Note_off_c, 6, 55, 95
3, 512640, Note_on_c, 6, 45, 95
3, 512700, Note_on_c, 6, 52, 95
3, 512760, Note_on_c, 6, 55, 95
3, 512820, Note_on_c, 6, 59, 95
3, 513600, Note_off_c, 6, 59, 95
3, 513600, Note_off_c, 6, 55, 95
3, 513600, Note_off_c, 6, 52, 95
3, 513600, Note_off_c, 6, 45, 95
3, 513600, Note_on_c, 6, 64, 95
3, 513615, Note_on_c, 6, 59, 95
3, 513630, Note_on_c, 6, 55, 95
3, 514080, Note_off_c, 6, 64, 95
3, 514080, Note_off_c, 6, 59, 95
3, 514080, Note_off_c, 6, 55, 95
3, 514080, Note_on_c, 6, 64, 95
3, 514095, Note_on_c, 6, 59, 95
3, 514110, Note_on_c, 6, 55, 95
3, 514560, Note_off_c, 6, 64, 95
3, 514560, Note_off_c, 6, 59, 95
3, 514560, Note_off_c, 6, 55, 95
3, 514560, Note_on_c, 6, 45, 95
3, 514620, Note_on_c, 6, 52, 95
3, 514680, Note_on_c, 6, 57, 95
3, 514740, Note_on_c, 6, 60, 95
3, 514800, Note_on_c, 6, 64, 95
3, 515520, Note_off_c, 6, 64, 95
3, 515520, Note_off_c, 6, 60, 95
3, 515520, Note_off_c, 6, 57, 95
3, 515520, Note_off_c, 6, 52, 95
3, 515520, Note_off_c, 6, 45, 95
3, 515520, Note_on_c, 6, 45, 95
3, 515535, Note_on_c, 6, 52, 95
3, 515550, Note_on_c, 6, 57, 95
3, 516000, Note_off_c, 6, 57, 95
3, 516000, Note_off_c, 6, 52, 95
3, 516000, Note_off_c, 6, 45, 95
3, 516000, Note_on_c, 6, 64, 95
3, 516015, Note_on_c, 6, 60, 95
3, 516030, Note_on_c, 6, 57, 95
3, 516480, Note_off_c, 6, 64, 95
3, 516480, Note_off_c, 6, 60, 95
3, 516480, Note_off_c, 6, 57, 95
3, 516480, Note_on_c, 6, 45, 95
3, 516540, Note_on_c, 6, 52, 95
3, 516600, Note_on_c, 6, 57, 95
3, 516660, Note_on_c, 6, 60, 95
3, 517440, Note_off_c, 6, 60, 95
3, 517440, Note_off_c, 6, 57, 95
3, 517440, Note_off_c, 6, 52, 95
3, 517440, Note_off_c, 6, 45, 95
3, 517440, Note_on_c, 6, 64, 95
3, 517455, Note_on_c, 6, 60, 95
3, 517470, Note_on_c, 6, 57, 95
3, 517920, Note_off_c, 6, 64, 95
3, 517920, Note_off_c, 6, 60, 95
3, 517920, Note_off_c, 6, 57, 95
3, 517920, Note_on_c, 6, 64, 95
3, 517935, Note_on_c, 6, 60, 95
3, 517950, Note_on_c, 6, 57, 95
3, 518400, Note_off_c, 6, 64, 95
3, 518400, Note_off_c, 6, 60, 95
3, 518400, Note_off_c, 6, 57, 95
3, 518400, Note_on_c, 6, 45, 95
3, 518460, Note_on_c, 6, 52, 95
3, 518520, Note_on_c, 6, 57, 95
3, 518580, Note_on_c, 6, 60, 95
3, 518640, Note_on_c, 6, 64, 95
3, 519360, Note_off_c, 6, 64, 95
3, 519360, Note_off_c, 6, 60, 95
3, 519360, Note_off_c, 6, 57, 95
3, 519360, Note_off_c, 6, 52, 95
3, 519360, Note_off_c, 6, 45, 95
3, 519360, Note_on_c, 6, 45, 95
3, 519375, Note_on_c, 6, 52, 95
3, 519390, Note_on_c, 6, 57, 95
3, 519840, Note_off_c, 6, 57, 95
3, 519840, Note_off_c, 6, 52, 95
3, 519840, Note_off_c, 6, 45, 95
3, 519840, Note_on_c, 6, 64, 95
3, 519855, Note_on_c, 6, 60, 95
3, 519870, Note_on_c, 6, 57, 95
3, 520320, Note_off_c, 6, 64, 95
3, 520320, Note_off_c, 6, 60, 95
3, 520320, Note_off_c, 6, 57, 95
3, 520320, Note_on_c, 6, 45, 95
3, 520380, Note_on_c, 6, 52, 95
3, 520440, Note_on_c, 6, 57, 95
3, 520500, Note_on_c, 6, 60, 95
3, 521280, Note_off_c, 6, 60, 95
3, 521280, Note_off_c, 6, 57, 95
3, 521280, Note_off_c, 6, 52, 95
3, 521280, Note_off_c, 6, 45, 95
3, 521280, Note_on_c, 6, 64, 95
3, 521295, Note_on_c, 6, 60, 95
3, 521310, Note_on_c, 6, 57, 95
3, 521760, Note_off_c, 6, 64, 95
3, 521760, Note_off_c, 6, 60, 95
3, 521760, Note_off_c, 6, 57, 95
3, 521760, Note_on_c, 6, 64, 95
3, 521775, Note_on_c, 6, 60, 95
3, 521790, Note_on_c, 6, 57, 95
3, 522240, Note_off_c, 6, 64, 95
3, 522240, Note_off_c, 6, 60, 95
3, 522240, Note_off_c, 6, 57, 95
3, 522240, Note_on_c, 6, 50, 95
3, 522270, Note_on_c, 6, 59, 95
3, 522300, Note_on_c, 6, 62, 95
3, 522330, Note_on_c, 6, 67, 95
3, 523200, Note_off_c, 6, 67, 95
3, 523200, Note_off_c, 6, 62, 95
3, 523200, Note_off_c, 6, 59, 95
3, 523200, Note_off_c, 6, 50, 95
3, 523200, Note_on_c, 6, 50, 95
3, 523215, Note_on_c, 6, 59, 95
3, 523230, Note_on_c, 6, 62, 95
3, 523245, Note_on_c, 6, 67, 95
3, 523680, Note_off_c, 6, 67, 95
3, 523680, Note_off_c, 6, 62, 95
3, 523680, Note_off_c, 6, 59, 95
3, 523680, Note_off_c, 6, 50, 95
3, 523680, Note_on_c, 6, 67, 95
3, 523710, Note_on_c, 6, 62, 95
3, 523740, Note_on_c, 6, 59, 95
3, 524640, Note_off_c, 6, 67, 95
3, 524640, Note_off_c, 6, 62, 95
3, 524640, Note_off_c, 6, 59, 95
3, 524640, Note_on_c, 6, 67, 95
3, 524655, Note_on_c, 6, 62, 95
3, 524670, Note_on_c, 6, 59, 95
3, 525120, Note_off_c, 6, 67, 95
3, 525120, Note_off_c, 6, 62, 95
3, 525120, Note_off_c, 6, 59, 95
3, 525600, Note_on_c, 6, 67, 95
3, 525615, Note_on_c, 6, 62, 95
3, 525630, Note_on_c, 6, 59, 95
3, 526080, Note_off_c, 6, 67, 95
3, 526080, Note_off_c, 6, 62, 95
3, 526080, Note_off_c, 6, 59, 95
3, 526080, Note_on_c, 6, 55, 95
3, 526080, Note_on_c, 6, 50, 95
3, 526080, Note_on_c, 6, 43, 95
3, 526560, Note_off_c, 6, 55, 95
3, 526560, Note_off_c, 6, 50, 95
3, 526560, Note_off_c, 6, 43, 95
3, 529920, Note_on_c, 6, 48, 95
3, 529950, Note_on_c, 6, 52, 95
3, 529980, Note_on_c, 6, 55, 95
3, 530010, Note_on_c, 6, 60, 95
3, 530040, Note_on_c, 6, 64, 95
3, 530880, Note_off_c, 6, 64, 95
3, 530880, Note_off_c, 6, 60, 95
3, 530880, Note_off_c, 6, 55, 95
3, 530880, Note_off_c, 6, 52, 95
3, 530880, Note_off_c, 6, 48, 95
3, 530880, Note_on_c, 6, 48, 95
3, 530895, Note_on_c, 6, 52, 95
3, 530910, Note_on_c, 6, 55, 95
3, 530925, Note_on_c, 6, 60, 95
3, 531360, Note_off_c, 6, 60, 95
3, 531360, Note_off_c, 6, 55, 95
3, 531360, Note_off_c, 6, 52, 95
3, 531360, Note_off_c, 6, 48, 95
3, 531360, Note_on_c, 6, 64, 95
3, 531390, Note_on_c, 6, 60, 95
3, 531420, Note_on_c, 6, 55, 95
3, 532320, Note_off_c, 6, 64, 95
3, 532320, Note_off_c, 6, 60, 95
3, 532320, Note_off_c, 6, 55, 95
3, 532320, Note_on_c, 6, 64, 95
3, 532335, Note_on_c, 6, 60, 95
3, 532350, Note_on_c, 6, 55, 95
3, 532800, Note_off_c, 6, 64, 95
3, 532800, Note_off_c, 6, 60, 95
3, 532800, Note_off_c, 6, 55, 95
3, 533280, Note_on_c, 6, 64, 95
3, 533295, Note_on_c, 6, 60, 95
3, 533310, Note_on_c, 6, 55, 95
3, 533760, Note_off_c, 6, 64, 95
3, 533760, Note_off_c, 6, 60, 95
3, 533760, Note_off_c, 6, 55, 95
3, 533760, Note_on_c, 6, 48, 95
3, 533790, Note_on_c, 6, 52, 95
3, 533820, Note_on_c, 6, 55, 95
3, 533850, Note_on_c, 6, 60, 95
3, 533880, Note_on_c, 6, 64, 95
3, 534720, Note_off_c, 6, 64, 95
3, 534720, Note_off_c, 6, 60, 95
3, 534720, Note_off_c, 6, 55, 95
3, 534720, Note_off_c, 6, 52, 95
3, 534720, Note_off_c, 6, 48, 95
3, 534720, Note_on_c, 6, 48, 95
3, 534735, Note_on_c, 6, 52, 95
3, 534750, Note_on_c, 6, 55, 95
3, 534765, Note_on_c, 6, 60, 95
3, 535200, Note_off_c, 6, 60, 95
3, 535200, Note_off_c, 6, 55, 95
3, 535200, Note_off_c, 6, 52, 95
3, 535200, Note_off_c, 6, 48, 95
3, 535200, Note_on_c, 6, 64, 95
3, 535230, Note_on_c, 6, 60, 95
3, 535260, Note_on_c, 6, 55, 95
3, 536160, Note_off_c, 6, 64, 95
3, 536160, Note_off_c, 6, 60, 95
3, 536160, Note_off_c, 6, 55, 95
3, 536160, Note_on_c, 6, 64, 95
3, 536175, Note_on_c, 6, 60, 95
3, 536190, Note_on_c, 6, 55, 95
3, 536640, Note_off_c, 6, 64, 95
3, 536640, Note_off_c, 6, 60, 95
3, 536640, Note_off_c, 6, 55, 95
3, 537120, Note_on_c, 6, 64, 95
3, 537135, Note_on_c, 6, 60, 95
3, 537150, Note_on_c, 6, 55, 95
3, 537600, Note_off_c, 6, 64, 95
3, 537600, Note_off_c, 6, 60, 95
3, 537600, Note_off_c, 6, 55, 95
3, 537600, Note_on_c, 6, 48, 95
3, 537660, Note_on_c, 6, 52, 95
3, 537720, Note_on_c, 6, 55, 95
3, 537780, Note_on_c, 6, 60, 95
3, 537840, Note_on_c, 6, 64, 95
3, 538560, Note_off_c, 6, 64, 95
3, 538560, Note_off_c, 6, 60, 95
3, 538560, Note_off_c, 6, 55, 95
3, 538560, Note_off_c, 6, 52, 95
3, 538560, Note_off_c, 6, 48, 95
3, 538560, Note_on_c, 6, 48, 95
3, 538575, Note_on_c, 6, 52, 95
3, 538590, Note_on_c, 6, 55, 95
3, 539040, Note_off_c, 6, 55, 95
3, 539040, Note_off_c, 6, 52, 95
3, 539040, Note_off_c, 6, 48, 95
3, 539040, Note_on_c, 6, 64, 95
3, 539055, Note_on_c, 6, 60, 95
3, 539070, Note_on_c, 6, 55, 95
3, 539520, Note_off_c, 6, 64, 95
3, 539520, Note_off_c, 6, 60, 95
3, 539520, Note_off_c, 6, 55, 95
3, 539520, Note_on_c, 6, 47, 95
3, 539580, Note_on_c, 6, 52, 95
3, 539640, Note_on_c, 6, 55, 95
3, 539700, Note_on_c, 6, 59, 95
3, 540480, Note_off_c, 6, 59, 95
3, 540480, Note_off_c, 6, 55, 95
3, 540480, Note_off_c, 6, 52, 95
3, 540480, Note_off_c, 6, 47, 95
3, 540480, Note_on_c, 6, 64, 95
3, 540495, Note_on_c, 6, 59, 95
3, 540510, Note_on_c, 6, 55, 95
3, 540960, Note_off_c, 6, 64, 95
3, 540960, Note_off_c, 6, 59, 95
3, 540960, Note_off_c, 6, 55, 95
3, 540960, Note_on_c, 6, 64, 95
3, 540975, Note_on_c, 6, 59, 95
3, 540990, Note_on_c, 6, 55, 95
3, 541440, Note_off_c, 6, 64, 95
3, 541440, Note_off_c, 6, 59, 95
3, 541440, Note_off_c, 6, 55, 95
3, 541440, Note_on_c, 6, 45, 95
3, 541470, Note_on_c, 6, 52, 95
3, 541500, Note_on_c, 6, 57, 95
3, 541530, Note_on_c, 6, 60, 95
3, 541560, Note_on_c, 6, 64, 95
3, 542400, Note_off_c, 6, 64, 95
3, 542400, Note_off_c, 6, 60, 95
3, 542400, Note_off_c, 6, 57, 95
3, 542400, Note_off_c, 6, 52, 95
3, 542400, Note_off_c, 6, 45, 95
3, 542400, Note_on_c, 6, 45, 95
3, 542415, Note_on_c, 6, 52, 95
3, 542430, Note_on_c, 6, 57, 95
3, 542445, Note_on_c, 6, 60, 95
3, 542880, Note_off_c, 6, 60, 95
3, 542880, Note_off_c, 6, 57, 95
3, 542880, Note_off_c, 6, 52, 95
3, 542880, Note_off_c, 6, 45, 95
3, 542880, Note_on_c, 6, 64, 95
3, 542895, Note_on_c, 6, 60, 95
3, 542910, Note_on_c, 6, 57, 95
3, 543360, Note_off_c, 6, 64, 95
3, 543360, Note_off_c, 6, 60, 95
3, 543360, Note_off_c, 6, 57, 95
3, 543360, Note_on_c, 6, 64, 95
3, 543380, Note_on_c, 6, 60, 95
3, 543400, Note_on_c, 6, 57, 95
3, 544000, Note_off_c, 6, 64, 95
3, 544000, Note_off_c, 6, 60, 95
3, 544000, Note_off_c, 6, 57, 95
3, 544000, Note_on_c, 6, 64, 95
3, 544020, Note_on_c, 6, 60, 95
3, 544040, Note_on_c, 6, 57, 95
3, 544640, Note_off_c, 6, 64, 95
3, 544640, Note_off_c, 6, 60, 95
3, 544640, Note_off_c, 6, 57, 95
3, 544640, Note_on_c, 6, 64, 95
3, 544660, Note_on_c, 6, 60, 95
3, 544680, Note_on_c, 6, 57, 95
3, 545280, Note_off_c, 6, 64, 95
3, 545280, Note_off_c, 6, 60, 95
3, 545280, Note_off_c, 6, 57, 95
3, 545280, Note_on_c, 6, 48, 95
3, 545310, Note_on_c, 6, 53, 95
3, 545340, Note_on_c, 6, 57, 95
3, 545370, Note_on_c, 6, 60, 95
3, 545400, Note_on_c, 6, 65, 95
3, 546240, Note_off_c, 6, 65, 95
3, 546240, Note_off_c, 6, 60, 95
3, 546240, Note_off_c, 6, 57, 95
3, 546240, Note_off_c, 6, 53, 95
3, 546240, Note_off_c, 6, 48, 95
3, 546240, Note_on_c, 6, 48, 95
3, 546255, Note_on_c, 6, 53, 95
3, 546270, Note_on_c, 6, 57, 95
3, 546285, Note_on_c, 6, 60, 95
3, 546720, Note_off_c, 6, 60, 95
3, 546720, Note_off_c, 6, 57, 95
3, 546720, Note_off_c, 6, 53, 95
3, 546720, Note_off_c, 6, 48, 95
3, 546720, Note_on_c, 6, 65, 95
3, 546750, Note_on_c, 6, 60, 95
3, 546780, Note_on_c, 6, 57, 95
3, 547680, Note_off_c, 6, 65, 95
3, 547680, Note_off_c, 6, 60, 95
3, 547680, Note_off_c, 6, 57, 95
3, 547680, Note_on_c, 6, 65, 95
3, 547695, Note_on_c, 6, 60, 95
3, 547710, Note_on_c, 6, 57, 95
3, 548160, Note_off_c, 6, 65, 95
3, 548160, Note_off_c, 6, 60, 95
3, 548160, Note_off_c, 6, 57, 95
3, 548640, Note_on_c, 6, 65, 95
3, 548655, Note_on_c, 6, 60, 95
3, 548670, Note_on_c, 6, 57, 95
3, 549120, Note_off_c, 6, 65, 95
3, 549120, Note_off_c, 6, 60, 95
3, 549120, Note_off_c, 6, 57, 95
3, 549120, Note_on_c, 6, 50, 95
3, 549150, Note_on_c, 6, 57, 95
3, 549180, Note_on_c, 6, 62, 95
3, 549210, Note_on_c, 6, 65, 95
3, 550080, Note_off_c, 6, 65, 95
3, 550080, Note_off_c, 6, 62, 95
3, 550080, Note_off_c, 6, 57, 95
3, 550080, Note_off_c, 6, 50, 95
3, 550080, Note_on_c, 6, 50, 95
3, 550095, Note_on_c, 6, 57, 95
3, 550110, Note_on_c, 6, 62, 95
3, 550125, Note_on_c, 6, 65, 95
3, 550560, Note_off_c, 6, 65, 95
3, 550560, Note_off_c, 6, 62, 95
3, 550560, Note_off_c, 6, 57, 95
3, 550560, Note_off_c, 6, 50, 95
3, 550560, Note_on_c, 6, 65, 95
3, 550590, Note_on_c, 6, 62, 95
3, 550620, Note_on_c, 6, 57, 95
3, 551520, Note_off_c, 6, 65, 95
3, 551520, Note_off_c, 6, 62, 95
3, 551520, Note_off_c, 6, 57, 95
3, 551520, Note_on_c, 6, 65, 95
3, 551535, Note_on_c, 6, 62, 95
3, 551550, Note_on_c, 6, 57, 95
3, 552000, Note_off_c, 6, 65, 95
3, 552000, Note_off_c, 6, 62, 95
3, 552000, Note_off_c, 6, 57, 95
3, 552480, Note_on_c, 6, 65, 95
3, 552495, Note_on_c, 6, 62, 95
3, 552510, Note_on_c, 6, 57, 95
3, 552960, Note_off_c, 6, 65, 95
3, 552960, Note_off_c, 6, 62, 95
3, 552960, Note_off_c, 6, 57, 95
3, 552960, Note_on_c, 6, 50, 95
3, 552990, Note_on_c, 6, 59, 95
3, 553020, Note_on_c, 6, 62, 95
3, 553050, Note_on_c, 6, 67, 95
3, 553920, Note_off_c, 6, 67, 95
3, 553920, Note_off_c, 6, 62, 95
3, 553920, Note_off_c, 6, 59, 95
3, 553920, Note_off_c, 6, 50, 95
3, 553920, Note_on_c, 6, 50, 95
3, 553935, Note_on_c, 6, 59, 95
3, 553950, Note_on_c, 6, 62, 95
3, 553965, Note_on_c, 6, 67, 95
3, 554400, Note_off_c, 6, 67, 95
3, 554400, Note_off_c, 6, 62, 95
3, 554400, Note_off_c, 6, 59, 95
3, 554400, Note_off_c, 6, 50, 95
3, 554400, Note_on_c, 6, 67, 95
3, 554430, Note_on_c, 6, 62, 95
3, 554460, Note_on_c, 6, 59, 95
3, 555360, Note_off_c, 6, 67, 95
3, 555360, Note_off_c, 6, 62, 95
3, 555360, Note_off_c, 6, 59, 95
3, 555360, Note_on_c, 6, 67, 95
3, 555375, Note_on_c, 6, 62, 95
3, 555390, Note_on_c, 6, 59, 95
3, 555840, Note_off_c, 6, 67, 95
3, 555840, Note_off_c, 6, 62, 95
3, 555840, Note_off_c, 6, 59, 95
3, 556320, Note_on_c, 6, 67, 95
3, 556335, Note_on_c, 6, 62, 95
3, 556350, Note_on_c, 6, 59, 95
3, 556800, Note_off_c, 6, 67, 95
3, 556800, Note_off_c, 6, 62, 95
3, 556800, Note_off_c, 6, 59, 95
3, 556800, Note_on_c, 6, 50, 95
3, 556830, Note_on_c, 6, 59, 95
3, 556860, Note_on_c, 6, 62, 95
3, 556890, Note_on_c, 6, 67, 95
3, 557760, Note_off_c, 6, 67, 95
3, 557760, Note_off_c, 6, 62, 95
3, 557760, Note_off_c, 6, 59, 95
3, 557760, Note_off_c, 6, 50, 95
3, 557760, Note_on_c, 6, 50, 95
3, 557775, Note_on_c, 6, 59, 95
3, 557790, Note_on_c, 6, 62, 95
3, 557805, Note_on_c, 6, 67, 95
3, 558240, Note_off_c, 6, 67, 95
3, 558240, Note_off_c, 6, 62, 95
3, 558240, Note_off_c, 6, 59, 95
3, 558240, Note_off_c, 6, 50, 95
3, 558240, Note_on_c, 6, 67, 95
3, 558270, Note_on_c, 6, 62, 95
3, 558300, Note_on_c, 6, 59, 95
3, 559200, Note_off_c, 6, 67, 95
3, 559200, Note_off_c, 6, 62, 95
3, 559200, Note_off_c, 6, 59, 95
3, 559200, Note_on_c, 6, 67, 95
3, 559215, Note_on_c, 6, 62, 95
3, 559230, Note_on_c, 6, 59, 95
3, 559680, Note_off_c, 6, 67, 95
3, 559680, Note_off_c, 6, 62, 95
3, 559680, Note_off_c, 6, 59, 95
3, 560160, Note_on_c, 6, 67, 95
3, 560175, Note_on_c, 6, 62, 95
3, 560190, Note_on_c, 6, 59, 95
3, 560640, Note_off_c, 6, 67, 95
3, 560640, Note_off_c, 6, 62, 95
3, 560640, Note_off_c, 6, 59, 95
3, 560640, Note_on_c, 6, 48, 95
3, 560670, Note_on_c, 6, 52, 95
3, 560700, Note_on_c, 6, 55, 95
3, 560730, Note_on_c, 6, 60, 95
3, 560760, Note_on_c, 6, 64, 95
3, 561600, Note_off_c, 6, 64, 95
3, 561600, Note_off_c, 6, 60, 95
3, 561600, Note_off_c, 6, 55, 95
3, 561600, Note_off_c, 6, 52, 95
3, 561600, Note_off_c, 6, 48, 95
3, 561600, Note_on_c, 6, 48, 95
3, 561615, Note_on_c, 6, 52, 95
3, 561630, Note_on_c, 6, 55, 95
3, 561645, Note_on_c, 6, 60, 95
3, 562080, Note_off_c, 6, 60, 95
3, 562080, Note_off_c, 6, 55, 95
3, 562080, Note_off_c, 6, 52, 95
3, 562080, Note_off_c, 6, 48, 95
3, 562080, Note_on_c, 6, 64, 95
3, 562110, Note_on_c, 6, 60, 95
3, 562140, Note_on_c, 6, 55, 95
3, 563040, Note_off_c, 6, 64, 95
3, 563040, Note_off_c, 6, 60, 95
3, 563040, Note_off_c, 6, 55, 95
3, 563040, Note_on_c, 6, 64, 95
3, 563055, Note_on_c, 6, 60, 95
3, 563070, Note_on_c, 6, 55, 95
3, 563520, Note_off_c, 6, 64, 95
3, 563520, Note_off_c, 6, 60, 95
3, 563520, Note_off_c, 6, 55, 95
3, 564000, Note_on_c, 6, 64, 95
3, 564015, Note_on_c, 6, 60, 95
3, 564030, Note_on_c, 6, 55, 95
3, 564480, Note_off_c, 6, 64, 95
3, 564480, Note_off_c, 6, 60, 95
3, 564480, Note_off_c, 6, 55, 95
3, 564480, Note_on_c, 6, 48, 95
3, 564510, Note_on_c, 6, 52, 95
3, 564540, Note_on_c, 6, 55, 95
3, 564570, Note_on_c, 6, 60, 95
3, 564600, Note_on_c, 6, 64, 95
3, 565440, Note_off_c, 6, 64, 95
3, 565440, Note_off_c, 6, 60, 95
3, 565440, Note_off_c, 6, 55, 95
3, 565440, Note_off_c, 6, 52, 95
3, 565440, Note_off_c, 6, 48, 95
3, 565440, Note_on_c, 6, 48, 95
3, 565455, Note_on_c, 6, 52, 95
3, 565470, Note_on_c, 6, 55, 95
3, 565485, Note_on_c, 6, 60, 95
3, 565920, Note_off_c, 6, 60, 95
3, 565920, Note_off_c, 6, 55, 95
3, 565920, Note_off_c, 6, 52, 95
3, 565920, Note_off_c, 6, 48, 95
3, 565920, Note_on_c, 6, 64, 95
3, 565950, Note_on_c, 6, 60, 95
3, 565980, Note_on_c, 6, 55, 95
3, 566880, Note_off_c, 6, 64, 95
3, 566880, Note_off_c, 6, 60, 95
3, 566880, Note_off_c, 6, 55, 95
3, 566880, Note_on_c, 6, 64, 95
3, 566895, Note_on_c, 6, 60, 95
3, 566910, Note_on_c, 6, 55, 95
3, 567360, Note_off_c, 6, 64, 95
3, 567360, Note_off_c, 6, 60, 95
3, 567360, Note_off_c, 6, 55, 95
3, 567840, Note_on_c, 6, 64, 95
3, 567855, Note_on_c, 6, 60, 95
3, 567870, Note_on_c, 6, 55, 95
3, 568320, Note_off_c, 6, 64, 95
3, 568320, Note_off_c, 6, 60, 95
3, 568320, Note_off_c, 6, 55, 95
3, 568320, Note_on_c, 6, 48, 95
3, 568380, Note_on_c, 6, 52, 95
3, 568440, Note_on_c, 6, 55, 95
3, 568500, Note_on_c, 6, 60, 95
3, 568560, Note_on_c, 6, 64, 95
3, 569280, Note_off_c, 6, 64, 95
3, 569280, Note_off_c, 6, 60, 95
3, 569280, Note_off_c, 6, 55, 95
3, 569280, Note_off_c, 6, 52, 95
3, 569280, Note_off_c, 6, 48, 95
3, 569280, Note_on_c, 6, 48, 95
3, 569295, Note_on_c, 6, 52, 95
3, 569310, Note_on_c, 6, 55, 95
3, 569760, Note_off_c, 6, 55, 95
3, 569760, Note_off_c, 6, 52, 95
3, 569760, Note_off_c, 6, 48, 95
3, 569760, Note_on_c, 6, 64, 95
3, 569775, Note_on_c, 6, 60, 95
3, 569790, Note_on_c, 6, 55, 95
3, 570240, Note_off_c, 6, 64, 95
3, 570240, Note_off_c, 6, 60, 95
3, 570240, Note_off_c, 6, 55, 95
3, 570240, Note_on_c, 6, 47, 95
3, 570300, Note_on_c, 6, 52, 95
3, 570360, Note_on_c, 6, 55, 95
3, 570420, Note_on_c, 6, 59, 95
3, 571200, Note_off_c, 6, 59, 95
3, 571200, Note_off_c, 6, 55, 95
3, 571200, Note_off_c, 6, 52, 95
3, 571200, Note_off_c, 6, 47, 95
3, 571200, Note_on_c, 6, 64, 95
3, 571215, Note_on_c, 6, 59, 95
3, 571230, Note_on_c, 6, 55, 95
3, 571680, Note_off_c, 6, 64, 95
3, 571680, Note_off_c, 6, 59, 95
3, 571680, Note_off_c, 6, 55, 95
3, 571680, Note_on_c, 6, 64, 95
3, 571695, Note_on_c, 6, 59, 95
3, 571710, Note_on_c, 6, 55, 95
3, 572160, Note_off_c, 6, 64, 95
3, 572160, Note_off_c, 6, 59, 95
3, 572160, Note_off_c, 6, 55, 95
3, 572160, Note_on_c, 6, 45, 95
3, 572190, Note_on_c, 6, 52, 95
3, 572220, Note_on_c, 6, 57, 95
3, 572250, Note_on_c, 6, 60, 95
3, 572280, Note_on_c, 6, 64, 95
3, 573120, Note_off_c, 6, 64, 95
3, 573120, Note_off_c, 6, 60, 95
3, 573120, Note_off_c, 6, 57, 95
3, 573120, Note_off_c, 6, 52, 95
3, 573120, Note_off_c, 6, 45, 95
3, 573120, Note_on_c, 6, 45, 95
3, 573135, Note_on_c, 6, 52, 95
3, 573150, Note_on_c, 6, 57, 95
3, 573165, Note_on_c, 6, 60, 95
3, 573600, Note_off_c, 6, 60, 95
3, 573600, Note_off_c, 6, 57, 95
3, 573600, Note_off_c, 6, 52, 95
3, 573600, Note_off_c, 6, 45, 95
3, 573600, Note_on_c, 6, 64, 95
3, 573615, Note_on_c, 6, 60, 95
3, 573630, Note_on_c, 6, 57, 95
3, 574080, Note_off_c, 6, 64, 95
3, 574080, Note_off_c, 6, 60, 95
3, 574080, Note_off_c, 6, 57, 95
3, 574080, Note_on_c, 6, 64, 95
3, 574100, Note_on_c, 6, 60, 95
3, 574120, Note_on_c, 6, 57, 95
3, 574720, Note_off_c, 6, 64, 95
3, 574720, Note_off_c, 6, 60, 95
3, 574720, Note_off_c, 6, 57, 95
3, 574720, Note_on_c, 6, 64, 95
3, 574740, Note_on_c, 6, 60, 95
3, 574760, Note_on_c, 6, 57, 95
3, 575360, Note_off_c, 6, 64, 95
3, 575360, Note_off_c, 6, 60, 95
3, 575360, Note_off_c, 6, 57, 95
3, 575360, Note_on_c, 6, 64, 95
3, 575380, Note_on_c, 6, 60, 95
3, 575400, Note_on_c, 6, 57, 95
3, 576000, Note_off_c, 6, 64, 95
3, 576000, Note_off_c, 6, 60, 95
3, 576000, Note_off_c, 6, 57, 95
3, 576000, Note_on_c, 6, 48, 95
3, 576030, Note_on_c, 6, 53, 95
3, 576060, Note_on_c, 6, 57, 95
3, 576090, Note_on_c, 6, 60, 95
3, 576120, Note_on_c, 6, 65, 95
3, 576960, Note_off_c, 6, 65, 95
3, 576960, Note_off_c, 6, 60, 95
3, 576960, Note_off_c, 6, 57, 95
3, 576960, Note_off_c, 6, 53, 95
3, 576960, Note_off_c, 6, 48, 95
3, 576960, Note_on_c, 6, 48, 95
3, 576975, Note_on_c, 6, 53, 95
3, 576990, Note_on_c, 6, 57, 95
3, 577005, Note_on_c, 6, 60, 95
3, 577440, Note_off_c, 6, 60, 95
3, 577440, Note_off_c, 6, 57, 95
3, 577440, Note_off_c, 6, 53, 95
3, 577440, Note_off_c, 6, 48, 95
3, 577440, Note_on_c, 6, 65, 95
3, 577470, Note_on_c, 6, 60, 95
3, 577500, Note_on_c, 6, 57, 95
3, 578400, Note_off_c, 6, 65, 95
3, 578400, Note_off_c, 6, 60, 95
3, 578400, Note_off_c, 6, 57, 95
3, 578400, Note_on_c, 6, 65, 95
3, 578415, Note_on_c, 6, 60, 95
3, 578430, Note_on_c, 6, 57, 95
3, 578880, Note_off_c, 6, 65, 95
3, 578880, Note_off_c, 6, 60, 95
3, 578880, Note_off_c, 6, 57, 95
3, 579360, Note_on_c, 6, 65, 95
3, 579375, Note_on_c, 6, 60, 95
3, 579390, Note_on_c, 6, 57, 95
3, 579840, Note_off_c, 6, 65, 95
3, 579840, Note_off_c, 6, 60, 95
3, 579840, Note_off_c, 6, 57, 95
3, 579840, Note_on_c, 6, 50, 95
3, 579870, Note_on_c, 6, 57, 95
3, 579900, Note_on_c, 6, 62, 95
3, 579930, Note_on_c, 6, 65, 95
3, 580800, Note_off_c, 6, 65, 95
3, 580800, Note_off_c, 6, 62, 95
3, 580800, Note_off_c, 6, 57, 95
3, 580800, Note_off_c, 6, 50, 95
3, 580800, Note_on_c, 6, 50, 95
3, 580815, Note_on_c, 6, 57, 95
3, 580830, Note_on_c, 6, 62, 95
3, 580845, Note_on_c, 6, 65, 95
3, 581280, Note_off_c, 6, 65, 95
3, 581280, Note_off_c, 6, 62, 95
3, 581280, Note_off_c, 6, 57, 95
3, 581280, Note_off_c, 6, 50, 95
3, 581280, Note_on_c, 6, 65, 95
3, 581310, Note_on_c, 6, 62, 95
3, 581340, Note_on_c, 6, 57, 95
3, 582240, Note_off_c, 6, 65, 95
3, 582240, Note_off_c, 6, 62, 95
3, 582240, Note_off_c, 6, 57, 95
3, 582240, Note_on_c, 6, 65, 95
3, 582255, Note_on_c, 6, 62, 95
3, 582270, Note_on_c, 6, 57, 95
3, 582720, Note_off_c, 6, 65, 95
3, 582720, Note_off_c, 6, 62, 95
3, 582720, Note_off_c, 6, 57, 95
3, 583200, Note_on_c, 6, 65, 95
3, 583215, Note_on_c, 6, 62, 95
3, 583230, Note_on_c, 6, 57, 95
3, 583680, Note_off_c, 6, 65, 95
3, 583680, Note_off_c, 6, 62, 95
3, 583680, Note_off_c, 6, 57, 95
3, 583680, Note_on_c, 6, 50, 95
3, 583710, Note_on_c, 6, 59, 95
3, 583740, Note_on_c, 6, 62, 95
3, 583770, Note_on_c, 6, 67, 95
3, 584640, Note_off_c, 6, 67, 95
3, 584640, Note_off_c, 6, 62, 95
3, 584640, Note_off_c, 6, 59, 95
3, 584640, Note_off_c, 6, 50, 95
3, 584640, Note_on_c, 6, 50, 95
3, 584655, Note_on_c, 6, 59, 95
3, 584670, Note_on_c, 6, 62, 95
3, 584685, Note_on_c, 6, 67, 95
3, 585120, Note_off_c, 6, 67, 95
3, 585120, Note_off_c, 6, 62, 95
3, 585120, Note_off_c, 6, 59, 95
3, 585120, Note_off_c, 6, 50, 95
3, 585120, Note_on_c, 6, 67, 95
3, 585150, Note_on_c, 6, 62, 95
3, 585180, Note_on_c, 6, 59, 95
3, 586080, Note_off_c, 6, 67, 95
3, 586080, Note_off_c, 6, 62, 95
3, 586080, Note_off_c, 6, 59, 95
3, 586080, Note_on_c, 6, 67, 95
3, 586095, Note_on_c, 6, 62, 95
3, 586110, Note_on_c, 6, 59, 95
3, 586560, Note_off_c, 6, 67, 95
3, 586560, Note_off_c, 6, 62, 95
3, 586560, Note_off_c, 6, 59, 95
3, 587040, Note_on_c, 6, 67, 95
3, 587055, Note_on_c, 6, 62, 95
3, 587070, Note_on_c, 6, 59, 95
3, 587520, Note_off_c, 6, 67, 95
3, 587520, Note_off_c, 6, 62, 95
3, 587520, Note_off_c, 6, 59, 95
3, 587520, Note_on_c, 6, 50, 95
3, 587550, Note_on_c, 6, 59, 95
3, 587580, Note_on_c, 6, 62, 95
3, 587610, Note_on_c, 6, 67, 95
3, 588480, Note_off_c, 6, 67, 95
3, 588480, Note_off_c, 6, 62, 95
3, 588480, Note_off_c, 6, 59, 95
3, 588480, Note_off_c, 6, 50, 95
3, 588480, Note_on_c, 6, 50, 95
3, 588495, Note_on_c, 6, 59, 95
3, 588510, Note_on_c, 6, 62, 95
3, 588525, Note_on_c, 6, 67, 95
3, 588960, Note_off_c, 6, 67, 95
3, 588960, Note_off_c, 6, 62, 95
3, 588960, Note_off_c, 6, 59, 95
3, 588960, Note_off_c, 6, 50, 95
3, 588960, Note_on_c, 6, 67, 95
3, 588990, Note_on_c, 6, 62, 95
3, 589020, Note_on_c, 6, 59, 95
3, 589920, Note_off_c, 6, 67, 95
3, 589920, Note_off_c, 6, 62, 95
3, 589920, Note_off_c, 6, 59, 95
3, 589920, Note_on_c, 6, 67, 95
3, 589935, Note_on_c, 6, 62, 95
3, 589950, Note_on_c, 6, 59, 95
3, 590400, Note_off_c, 6, 67, 95
3, 590400, Note_off_c, 6, 62, 95
3, 590400, Note_off_c, 6, 59, 95
3, 590880, Note_on_c, 6, 67, 95
3, 590895, Note_on_c, 6, 62, 95
3, 590910, Note_on_c, 6, 59, 95
3, 591360, Note_off_c, 6, 67, 95
3, 591360, Note_off_c, 6, 62, 95
3, 591360, Note_off_c, 6, 59, 95
3, 591360, Note_on_c, 6, 48, 95
3, 591390, Note_on_c, 6, 52, 95
3, 591420, Note_on_c, 6, 55, 95
3, 591450, Note_on_c, 6, 60, 95
3, 591480, Note_on_c, 6, 64, 95
3, 592320, Note_off_c, 6, 64, 95
3, 592320, Note_off_c, 6, 60, 95
3, 592320, Note_off_c, 6, 55, 95
3, 592320, Note_off_c, 6, 52, 95
3, 592320, Note_off_c, 6, 48, 95
3, 592320, Note_on_c, 6, 48, 95
3, 592335, Note_on_c, 6, 52, 95
3, 592350, Note_on_c, 6, 55, 95
3, 592365, Note_on_c, 6, 60, 95
3, 592800, Note_off_c, 6, 60, 95
3, 592800, Note_off_c, 6, 55, 95
3, 592800, Note_off_c, 6, 52, 95
3, 592800, Note_off_c, 6, 48, 95
3, 592800, Note_on_c, 6, 64, 95
3, 592830, Note_on_c, 6, 60, 95
3, 592860, Note_on_c, 6, 55, 95
3, 593760, Note_off_c, 6, 64, 95
3, 593760, Note_off_c, 6, 60, 95
3, 593760, Note_off_c, 6, 55, 95
3, 593760, Note_on_c, 6, 64, 95
3, 593775, Note_on_c, 6, 60, 95
3, 593790, Note_on_c, 6, 55, 95
3, 594240, Note_off_c, 6, 64, 95
3, 594240, Note_off_c, 6, 60, 95
3, 594240, Note_off_c, 6, 55, 95
3, 594720, Note_on_c, 6, 64, 95
3, 594735, Note_on_c, 6, 60, 95
3, 594750, Note_on_c, 6, 55, 95
3, 595200, Note_off_c, 6, 64, 95
3, 595200, Note_off_c, 6, 60, 95
3, 595200, Note_off_c, 6, 55, 95
3, 595200, Note_on_c, 6, 48, 95
3, 595230, Note_on_c, 6, 52, 95
3, 595260, Note_on_c, 6, 55, 95
3, 595290, Note_on_c, 6, 60, 95
3, 595320, Note_on_c, 6, 64, 95
3, 596160, Note_off_c, 6, 64, 95
3, 596160, Note_off_c, 6, 60, 95
3, 596160, Note_off_c, 6, 55, 95
3, 596160, Note_off_c, 6, 52, 95
3, 596160, Note_off_c, 6, 48, 95
3, 596160, Note_on_c, 6, 48, 95
3, 596175, Note_on_c, 6, 52, 95
3, 596190, Note_on_c, 6, 55, 95
3, 596205, Note_on_c, 6, 60, 95
3, 596640, Note_off_c, 6, 60, 95
3, 596640, Note_off_c, 6, 55, 95
3, 596640, Note_off_c, 6, 52, 95
3, 596640, Note_off_c, 6, 48, 95
3, 596640, Note_on_c, 6, 64, 95
3, 596670, Note_on_c, 6, 60, 95
3, 596700, Note_on_c, 6, 55, 95
3, 597600, Note_off_c, 6, 64, 95
3, 597600, Note_off_c, 6, 60, 95
3, 597600, Note_off_c, 6, 55, 95
3, 597600, Note_on_c, 6, 64, 95
3, 597615, Note_on_c, 6, 60, 95
3, 597630, Note_on_c, 6, 55, 95
3, 598080, Note_off_c, 6, 64, 95
3, 598080, Note_off_c, 6, 60, 95
3, 598080, Note_off_c, 6, 55, 95
3, 598560, Note_on_c, 6, 64, 95
3, 598575, Note_on_c, 6, 60, 95
3, 598590, Note_on_c, 6, 55, 95
3, 599040, Note_off_c, 6, 64, 95
3, 599040, Note_off_c, 6, 60, 95
3, 599040, Note_off_c, 6, 55, 95
3, 599040, Note_on_c, 6, 40, 127
3, 599070, Note_on_c, 6, 47, 95
3, 599100, Note_on_c, 6, 52, 95
3, 599130, Note_on_c, 6, 55, 95
3, 599160, Note_on_c, 6, 59, 95
3, 599190, Note_on_c, 6, 64, 95
3, 600000, Note_off_c, 6, 64, 95
3, 600000, Note_off_c, 6, 59, 95
3, 600000, Note_off_c, 6, 55, 95
3, 600000, Note_off_c, 6, 52, 95
3, 600000, Note_off_c, 6, 47, 95
3, 600000, Note_off_c, 6, 40, 127
3, 600000, Note_on_c, 6, 47, 95
3, 600015, Note_on_c, 6, 52, 95
3, 600030, Note_on_c, 6, 55, 95
3, 600045, Note_on_c, 6, 59, 95
3, 600480, Note_off_c, 6, 59, 95
3, 600480, Note_off_c, 6, 55, 95
3, 600480, Note_off_c, 6, 52, 95
3, 600480, Note_off_c, 6, 47, 95
3, 600480, Note_on_c, 6, 64, 95
3, 600510, Note_on_c, 6, 59, 95
3, 600540, Note_on_c, 6, 55, 95
3, 601440, Note_off_c, 6, 64, 95
3, 601440, Note_off_c, 6, 59, 95
3, 601440, Note_off_c, 6, 55, 95
3, 601440, Note_on_c, 6, 64, 95
3, 601455, Note_on_c, 6, 59, 95
3, 601470, Note_on_c, 6, 55, 95
3, 601920, Note_off_c, 6, 64, 95
3, 601920, Note_off_c, 6, 59, 95
3, 601920, Note_off_c, 6, 55, 95
3, 602400, Note_on_c, 6, 64, 95
3, 602415, Note_on_c, 6, 59, 95
3, 602430, Note_on_c, 6, 55, 95
3, 602880, Note_off_c, 6, 64, 95
3, 602880, Note_off_c, 6, 59, 95
3, 602880, Note_off_c, 6, 55, 95
3, 602880, Note_on_c, 6, 40, 127
3, 602910, Note_on_c, 6, 47, 95
3, 602940, Note_on_c, 6, 52, 95
3, 602970, Note_on_c, 6, 55, 95
3, 603000, Note_on_c, 6, 59, 95
3, 603030, Note_on_c, 6, 64, 95
3, 603840, Note_off_c, 6, 64, 95
3, 603840, Note_off_c, 6, 59, 95
3, 603840, Note_off_c, 6, 55, 95
3, 603840, Note_off_c, 6, 52, 95
3, 603840, Note_off_c, 6, 47, 95
3, 603840, Note_off_c, 6, 40, 127
3, 603840, Note_on_c, 6, 47, 95
3, 603855, Note_on_c, 6, 52, 95
3, 603870, Note_on_c, 6, 55, 95
3, 603885, Note_on_c, 6, 59, 95
3, 604320, Note_off_c, 6, 59, 95
3, 604320, Note_off_c, 6, 55, 95
3, 604320, Note_off_c, 6, 52, 95
3, 604320, Note_off_c, 6, 47, 95
3, 604320, Note_on_c, 6, 64, 95
3, 604350, Note_on_c, 6, 59, 95
3, 604380, Note_on_c, 6, 55, 95
3, 605280, Note_off_c, 6, 64, 95
3, 605280, Note_off_c, 6, 59, 95
3, 605280, Note_off_c, 6, 55, 95
3, 605280, Note_on_c, 6, 64, 95
3, 605295, Note_on_c, 6, 59, 95
3, 605310, Note_on_c, 6, 55, 95
3, 605760, Note_off_c, 6, 64, 95
3, 605760, Note_off_c, 6, 59, 95
3, 605760, Note_off_c, 6, 55, 95
3, 606240, Note_on_c, 6, 64, 95
3, 606255, Note_on_c, 6, 59, 95
3, 606270, Note_on_c, 6, 55, 95
3, 606720, Note_off_c, 6, 64, 95
3, 606720, Note_off_c, 6, 59, 95
3, 606720, Note_off_c, 6, 55, 95
3, 606720, Note_on_c, 6, 45, 95
3, 606750, Note_on_c, 6, 52, 95
3, 606780, Note_on_c, 6, 57, 95
3, 606810, Note_on_c, 6, 60, 95
3, 606840, Note_on_c, 6, 64, 95
3, 607680, Note_off_c, 6, 64, 95
3, 607680, Note_off_c, 6, 60, 95
3, 607680, Note_off_c, 6, 57, 95
3, 607680, Note_off_c, 6, 52, 95
3, 607680, Note_off_c, 6, 45, 95
3, 607680, Note_on_c, 6, 45, 95
3, 607695, Note_on_c, 6, 52, 95
3, 607710, Note_on_c, 6, 57, 95
3, 607725, Note_on_c, 6, 60, 95
3, 608160, Note_off_c, 6, 60, 95
3, 608160, Note_off_c, 6, 57, 95
3, 608160, Note_off_c, 6, 52, 95
3, 608160, Note_off_c, 6, 45, 95
3, 608160, Note_on_c, 6, 64, 95
3, 608190, Note_on_c, 6, 60, 95
3, 608220, Note_on_c, 6, 57, 95
3, 609120, Note_off_c, 6, 64, 95
3, 609120, Note_off_c, 6, 60, 95
3, 609120, Note_off_c, 6, 57, 95
3, 609120, Note_on_c, 6, 64, 95
3, 609135, Note_on_c, 6, 60, 95
3, 609150, Note_on_c, 6, 57, 95
3, 609600, Note_off_c, 6, 64, 95
3, 609600, Note_off_c, 6, 60, 95
3, 609600, Note_off_c, 6, 57, 95
3, 610080, Note_on_c, 6, 64, 95
3, 610095, Note_on_c, 6, 60, 95
3, 610110, Note_on_c, 6, 57, 95
3, 610560, Note_off_c, 6, 64, 95
3, 610560, Note_off_c, 6, 60, 95
3, 610560, Note_off_c, 6, 57, 95
3, 610560, Note_on_c, 6, 45, 95
3, 610590, Note_on_c, 6, 52, 95
3, 610620, Note_on_c, 6, 57, 95
3, 610650, Note_on_c, 6, 60, 95
3, 610680, Note_on_c, 6, 64, 95
3, 611520, Note_off_c, 6, 64, 95
3, 611520, Note_off_c, 6, 60, 95
3, 611520, Note_off_c, 6, 57, 95
3, 611520, Note_off_c, 6, 52, 95
3, 611520, Note_off_c, 6, 45, 95
3, 611520, Note_on_c, 6, 45, 95
3, 611535, Note_on_c, 6, 52, 95
3, 611550, Note_on_c, 6, 57, 95
3, 611565, Note_on_c, 6, 60, 95
3, 612000, Note_off_c, 6, 60, 95
3, 612000, Note_off_c, 6, 57, 95
3, 612000, Note_off_c, 6, 52, 95
3, 612000, Note_off_c, 6, 45, 95
3, 612000, Note_on_c, 6, 64, 95
3, 612030, Note_on_c, 6, 60, 95
3, 612060, Note_on_c, 6, 57, 95
3, 612960, Note_off_c, 6, 64, 95
3, 612960, Note_off_c, 6, 60, 95
3, 612960, Note_off_c, 6, 57, 95
3, 612960, Note_on_c, 6, 64, 95
3, 612975, Note_on_c, 6, 60, 95
3, 612990, Note_on_c, 6, 57, 95
3, 613440, Note_off_c, 6, 64, 95
3, 613440, Note_off_c, 6, 60, 95
3, 613440, Note_off_c, 6, 57, 95
3, 613920, Note_on_c, 6, 64, 95
3, 613935, Note_on_c, 6, 60, 95
3, 613950, Note_on_c, 6, 57, 95
3, 614400, Note_off_c, 6, 64, 95
3, 614400, Note_off_c, 6, 60, 95
3, 614400, Note_off_c, 6, 57, 95
3, 614400, Note_on_c, 6, 48, 95
3, 614415, Note_on_c, 6, 53, 95
3, 614430, Note_on_c, 6, 57, 95
3, 614445, Note_on_c, 6, 60, 95
3, 614460, Note_on_c, 6, 65, 95
3, 614880, Note_off_c, 6, 65, 95
3, 614880, Note_off_c, 6, 60, 95
3, 614880, Note_off_c, 6, 57, 95
3, 614880, Note_off_c, 6, 53, 95
3, 614880, Note_off_c, 6, 48, 95
3, 614880, Note_on_c, 6, 60, 95
3, 614888, Note_on_c, 6, 57, 95
3, 614896, Note_on_c, 6, 53, 95
3, 614904, Note_on_c, 6, 48, 95
3, 615360, Note_off_c, 6, 60, 95
3, 615360, Note_off_c, 6, 57, 95
3, 615360, Note_off_c, 6, 53, 95
3, 615360, Note_off_c, 6, 48, 95
3, 616320, Note_on_c, 6, 47, 127
3, 616328, Note_on_c, 6, 50, 127
3, 616336, Note_on_c, 6, 55, 95
3, 616344, Note_on_c, 6, 62, 95
3, 616800, Note_off_c, 6, 62, 95
3, 616800, Note_off_c, 6, 55, 95
3, 616800, Note_off_c, 6, 50, 127
3, 616800, Note_off_c, 6, 47, 127
3, 616800, Note_on_c, 6, 67, 95
3, 616815, Note_on_c, 6, 62, 95
3, 616830, Note_on_c, 6, 55, 95
3, 616845, Note_on_c, 6, 50, 127
3, 617280, Note_off_c, 6, 67, 95
3, 617280, Note_off_c, 6, 62, 95
3, 617280, Note_off_c, 6, 55, 95
3, 617280, Note_off_c, 6, 50, 127
3, 618240, Note_on_c, 6, 48, 95
3, 618270, Note_on_c, 6, 52, 95
3, 618300, Note_on_c, 6, 55, 95
3, 618330, Note_on_c, 6, 60, 95
3, 618360, Note_on_c, 6, 64, 95
3, 619200, Note_off_c, 6, 64, 95
3, 619200, Note_off_c, 6, 60, 95
3, 619200, Note_off_c, 6, 55, 95
3, 619200, Note_off_c, 6, 52, 95
3, 619200, Note_off_c, 6, 48, 95
3, 619200, Note_on_c, 6, 48, 95
3, 619215, Note_on_c, 6, 52, 95
3, 619230, Note_on_c, 6, 55, 95
3, 619245, Note_on_c, 6, 60, 95
3, 619680, Note_off_c, 6, 60, 95
3, 619680, Note_off_c, 6, 55, 95
3, 619680, Note_off_c, 6, 52, 95
3, 619680, Note_off_c, 6, 48, 95
3, 619680, Note_on_c, 6, 64, 95
3, 619710, Note_on_c, 6, 60, 95
3, 619740, Note_on_c, 6, 55, 95
3, 620640, Note_off_c, 6, 64, 95
3, 620640, Note_off_c, 6, 60, 95
3, 620640, Note_off_c, 6, 55, 95
3, 620640, Note_on_c, 6, 64, 95
3, 620655, Note_on_c, 6, 60, 95
3, 620670, Note_on_c, 6, 55, 95
3, 621120, Note_off_c, 6, 64, 95
3, 621120, Note_off_c, 6, 60, 95
3, 621120, Note_off_c, 6, 55, 95
3, 621600, Note_on_c, 6, 64, 95
3, 621615, Note_on_c, 6, 60, 95
3, 621630, Note_on_c, 6, 55, 95
3, 622080, Note_off_c, 6, 64, 95
3, 622080, Note_off_c, 6, 60, 95
3, 622080, Note_off_c, 6, 55, 95
3, 622080, Note_on_c, 6, 48, 95
3, 622095, Note_on_c, 6, 53, 95
3, 622110, Note_on_c, 6, 57, 95
3, 622125, Note_on_c, 6, 60, 95
3, 622140, Note_on_c, 6, 65, 95
3, 622560, Note_off_c, 6, 65, 95
3, 622560, Note_off_c, 6, 60, 95
3, 622560, Note_off_c, 6, 57, 95
3, 622560, Note_off_c, 6, 53, 95
3, 622560, Note_off_c, 6, 48, 95
3, 622560, Note_on_c, 6, 60, 95
3, 622568, Note_on_c, 6, 57, 95
3, 622576, Note_on_c, 6, 53, 95
3, 622584, Note_on_c, 6, 48, 95
3, 623040, Note_off_c, 6, 60, 95
3, 623040, Note_off_c, 6, 57, 95
3, 623040, Note_off_c, 6, 53, 95
3, 623040, Note_off_c, 6, 48, 95
3, 624000, Note_on_c, 6, 47, 127
3, 624008, Note_on_c, 6, 50, 127
3, 624016, Note_on_c, 6, 55, 95
3, 624024, Note_on_c, 6, 62, 95
3, 624480, Note_off_c, 6, 62, 95
3, 624480, Note_off_c, 6, 55, 95
3, 624480, Note_off_c, 6, 50, 127
3, 624480, Note_off_c, 6, 47, 127
3, 624480, Note_on_c, 6, 67, 95
3, 624495, Note_on_c, 6, 62, 95
3, 624510, Note_on_c, 6, 55, 95
3, 624525, Note_on_c, 6, 50, 127
3, 624960, Note_off_c, 6, 67, 95
3, 624960, Note_off_c, 6, 62, 95
3, 624960, Note_off_c, 6, 55, 95
3, 624960, Note_off_c, 6, 50, 127
3, 625920, Note_on_c, 6, 48, 95
3, 625950, Note_on_c, 6, 52, 95
3, 625980, Note_on_c, 6, 55, 95
3, 626010, Note_on_c, 6, 60, 95
3, 626040, Note_on_c, 6, 64, 95
3, 626880, Note_off_c, 6, 64, 95
3, 626880, Note_off_c, 6, 60, 95
3, 626880, Note_off_c, 6, 55, 95
3, 626880, Note_off_c, 6, 52, 95
3, 626880, Note_off_c, 6, 48, 95
3, 626880, Note_on_c, 6, 48, 95
3, 626895, Note_on_c, 6, 52, 95
3, 626910, Note_on_c, 6, 55, 95
3, 626925, Note_on_c, 6, 60, 95
3, 627360, Note_off_c, 6, 60, 95
3, 627360, Note_off_c, 6, 55, 95
3, 627360, Note_off_c, 6, 52, 95
3, 627360, Note_off_c, 6, 48, 95
3, 627360, Note_on_c, 6, 64, 95
3, 627390, Note_on_c, 6, 60, 95
3, 627420, Note_on_c, 6, 55, 95
3, 628320, Note_off_c, 6, 64, 95
3, 628320, Note_off_c, 6, 60, 95
3, 628320, Note_off_c, 6, 55, 95
3, 628320, Note_on_c, 6, 64, 95
3, 628335, Note_on_c, 6, 60, 95
3, 628350, Note_on_c, 6, 55, 95
3, 628800, Note_off_c, 6, 64, 95
3, 628800, Note_off_c, 6, 60, 95
3, 628800, Note_off_c, 6, 55, 95
3, 629280, Note_on_c, 6, 64, 95
3, 629295, Note_on_c, 6, 60, 95
3, 629310, Note_on_c, 6, 55, 95
3, 629760, Note_off_c, 6, 64, 95
3, 629760, Note_off_c, 6, 60, 95
3, 629760, Note_off_c, 6, 55, 95
3, 629760, Note_on_c, 6, 40, 127
3, 629790, Note_on_c, 6, 47, 95
3, 629820, Note_on_c, 6, 52, 95
3, 629850, Note_on_c, 6, 55, 95
3, 629880, Note_on_c, 6, 59, 95
3, 629910, Note_on_c, 6, 64, 95
3, 630720, Note_off_c, 6, 64, 95
3, 630720, Note_off_c, 6, 59, 95
3, 630720, Note_off_c, 6, 55, 95
3, 630720, Note_off_c, 6, 52, 95
3, 630720, Note_off_c, 6, 47, 95
3, 630720, Note_off_c, 6, 40, 127
3, 630720, Note_on_c, 6, 47, 95
3, 630735, Note_on_c, 6, 52, 95
3, 630750, Note_on_c, 6, 55, 95
3, 630765, Note_on_c, 6, 59, 95
3, 631200, Note_off_c, 6, 59, 95
3, 631200, Note_off_c, 6, 55, 95
3, 631200, Note_off_c, 6, 52, 95
3, 631200, Note_off_c, 6, 47, 95
3, 631200, Note_on_c, 6, 64, 95
3, 631230, Note_on_c, 6, 59, 95
3, 631260, Note_on_c, 6, 55, 95
3, 632160, Note_off_c, 6, 64, 95
3, 632160, Note_off_c, 6, 59, 95
3, 632160, Note_off_c, 6, 55, 95
3, 632160, Note_on_c, 6, 64, 95
3, 632175, Note_on_c, 6, 59, 95
3, 632190, Note_on_c, 6, 55, 95
3, 632640, Note_off_c, 6, 64, 95
3, 632640, Note_off_c, 6, 59, 95
3, 632640, Note_off_c, 6, 55, 95
3, 633120, Note_on_c, 6, 64, 95
3, 633135, Note_on_c, 6, 59, 95
3, 633150, Note_on_c, 6, 55, 95
3, 633600, Note_off_c, 6, 64, 95
3, 633600, Note_off_c, 6, 59, 95
3, 633600, Note_off_c, 6, 55, 95
3, 633600, Note_on_c, 6, 43, 95
3, 633630, Note_on_c, 6, 47, 95
3, 633660, Note_on_c, 6, 50, 95
3, 633690, Note_on_c, 6, 55, 95
3, 633720, Note_on_c, 6, 62, 95
3, 633750, Note_on_c, 6, 67, 95
3, 634560, Note_off_c, 6, 67, 95
3, 634560, Note_off_c, 6, 62, 95
3, 634560, Note_off_c, 6, 55, 95
3, 634560, Note_off_c, 6, 50, 95
3, 634560, Note_off_c, 6, 47, 95
3, 634560, Note_off_c, 6, 43, 95
3, 634560, Note_on_c, 6, 47, 95
3, 634575, Note_on_c, 6, 50, 95
3, 634590, Note_on_c, 6, 55, 95
3, 634605, Note_on_c, 6, 62, 95
3, 635040, Note_off_c, 6, 62, 95
3, 635040, Note_off_c, 6, 55, 95
3, 635040, Note_off_c, 6, 50, 95
3, 635040, Note_off_c, 6, 47, 95
3, 635040, Note_on_c, 6, 67, 95
3, 635070, Note_on_c, 6, 62, 95
3, 635100, Note_on_c, 6, 55, 95
3, 636000, Note_off_c, 6, 67, 95
3, 636000, Note_off_c, 6, 62, 95
3, 636000, Note_off_c, 6, 55, 95
3, 636000, Note_on_c, 6, 67, 95
3, 636015, Note_on_c, 6, 60, 95
3, 636030, Note_on_c, 6, 55, 95
3, 636480, Note_off_c, 6, 67, 95
3, 636480, Note_off_c, 6, 60, 95
3, 636480, Note_off_c, 6, 55, 95
3, 636960, Note_on_c, 6, 67, 95
3, 636975, Note_on_c, 6, 62, 95
3, 636990, Note_on_c, 6, 55, 95
3, 637440, Note_off_c, 6, 67, 95
3, 637440, Note_off_c, 6, 62, 95
3, 637440, Note_off_c, 6, 55, 95
3, 637440, Note_on_c, 6, 48, 95
3, 637470, Note_on_c, 6, 52, 95
3, 637500, Note_on_c, 6, 55, 95
3, 637530, Note_on_c, 6, 60, 95
3, 637560, Note_on_c, 6, 64, 95
3, 638400, Note_off_c, 6, 64, 95
3, 638400, Note_off_c, 6, 60, 95
3, 638400, Note_off_c, 6, 55, 95
3, 638400, Note_off_c, 6, 52, 95
3, 638400, Note_off_c, 6, 48, 95
3, 638400, Note_on_c, 6, 48, 95
3, 638415, Note_on_c, 6, 52, 95
3, 638430, Note_on_c, 6, 55, 95
3, 638445, Note_on_c, 6, 60, 95
3, 638880, Note_off_c, 6, 60, 95
3, 638880, Note_off_c, 6, 55, 95
3, 638880, Note_off_c, 6, 52, 95
3, 638880, Note_off_c, 6, 48, 95
3, 638880, Note_on_c, 6, 64, 95
3, 638910, Note_on_c, 6, 60, 95
3, 638940, Note_on_c, 6, 55, 95
3, 639840, Note_off_c, 6, 64, 95
3, 639840, Note_off_c, 6, 60, 95
3, 639840, Note_off_c, 6, 55, 95
3, 639840, Note_on_c, 6, 64, 95
3, 639855, Note_on_c, 6, 60, 95
3, 639870, Note_on_c, 6, 55, 95
3, 640320, Note_off_c, 6, 64, 95
3, 640320, Note_off_c, 6, 60, 95
3, 640320, Note_off_c, 6, 55, 95
3, 640800, Note_on_c, 6, 64, 95
3, 640815, Note_on_c, 6, 60, 95
3, 640830, Note_on_c, 6, 55, 95
3, 641280, Note_off_c, 6, 64, 95
3, 641280, Note_off_c, 6, 60, 95
3, 641280, Note_off_c, 6, 55, 95
3, 641280, Note_on_c, 6, 48, 95
3, 641310, Note_on_c, 6, 52, 95
3, 641340, Note_on_c, 6, 55, 95
3, 641370, Note_on_c, 6, 60, 95
3, 641400, Note_on_c, 6, 64, 95
3, 642240, Note_off_c, 6, 64, 95
3, 642240, Note_off_c, 6, 60, 95
3, 642240, Note_off_c, 6, 55, 95
3, 642240, Note_off_c, 6, 52, 95
3, 642240, Note_off_c, 6, 48, 95
3, 642240, Note_on_c, 6, 48, 95
3, 642255, Note_on_c, 6, 52, 95
3, 642270, Note_on_c, 6, 55, 95
3, 642285, Note_on_c, 6, 60, 95
3, 642720, Note_off_c, 6, 60, 95
3, 642720, Note_off_c, 6, 55, 95
3, 642720, Note_off_c, 6, 52, 95
3, 642720, Note_off_c, 6, 48, 95
3, 642720, Note_on_c, 6, 64, 95
3, 642750, Note_on_c, 6, 60, 95
3, 642780, Note_on_c, 6, 55, 95
3, 643680, Note_off_c, 6, 64, 95
3, 643680, Note_off_c, 6, 60, 95
3, 643680, Note_off_c, 6, 55, 95
3, 643680, Note_on_c, 6, 64, 95
3, 643695, Note_on_c, 6, 60, 95
3, 643710, Note_on_c, 6, 55, 95
3, 644160, Note_off_c, 6, 64, 95
3, 644160, Note_off_c, 6, 60, 95
3, 644160, Note_off_c, 6, 55, 95
3, 644640, Note_on_c, 6, 64, 95
3, 644655, Note_on_c, 6, 60, 95
3, 644670, Note_on_c, 6, 55, 95
3, 645120, Note_off_c, 6, 64, 95
3, 645120, Note_off_c, 6, 60, 95
3, 645120, Note_off_c, 6, 55, 95
3, 645120, Note_on_c, 6, 48, 95
3, 645180, Note_on_c, 6, 52, 95
3, 645240, Note_on_c, 6, 55, 95
3, 645300, Note_on_c, 6, 60, 95
3, 645360, Note_on_c, 6, 64, 95
3, 646080, Note_off_c, 6, 64, 95
3, 646080, Note_off_c, 6, 60, 95
3, 646080, Note_off_c, 6, 55, 95
3, 646080, Note_off_c, 6, 52, 95
3, 646080, Note_off_c, 6, 48, 95
3, 646080, Note_on_c, 6, 48, 95
3, 646095, Note_on_c, 6, 52, 95
3, 646110, Note_on_c, 6, 55, 95
3, 646560, Note_off_c, 6, 55, 95
3, 646560, Note_off_c, 6, 52, 95
3, 646560, Note_off_c, 6, 48, 95
3, 646560, Note_on_c, 6, 64, 95
3, 646575, Note_on_c, 6, 60, 95
3, 646590, Note_on_c, 6, 55, 95
3, 647040, Note_off_c, 6, 64, 95
3, 647040, Note_off_c, 6, 60, 95
3, 647040, Note_off_c, 6, 55, 95
3, 647040, Note_on_c, 6, 47, 95
3, 647100, Note_on_c, 6, 52, 95
3, 647160, Note_on_c, 6, 55, 95
3, 647220, Note_on_c, 6, 59, 95
3, 648000, Note_off_c, 6, 59, 95
3, 648000, Note_off_c, 6, 55, 95
3, 648000, Note_off_c, 6, 52, 95
3, 648000, Note_off_c, 6, 47, 95
3, 648000, Note_on_c, 6, 64, 95
3, 648015, Note_on_c, 6, 59, 95
3, 648030, Note_on_c, 6, 55, 95
3, 648480, Note_off_c, 6, 64, 95
3, 648480, Note_off_c, 6, 59, 95
3, 648480, Note_off_c, 6, 55, 95
3, 648480, Note_on_c, 6, 64, 95
3, 648495, Note_on_c, 6, 59, 95
3, 648510, Note_on_c, 6, 55, 95
3, 648960, Note_off_c, 6, 64, 95
3, 648960, Note_off_c, 6, 59, 95
3, 648960, Note_off_c, 6, 55, 95
3, 648960, Note_on_c, 6, 45, 95
3, 648990, Note_on_c, 6, 52, 95
3, 649020, Note_on_c, 6, 57, 95
3, 649050, Note_on_c, 6, 60, 95
3, 649080, Note_on_c, 6, 64, 95
3, 649920, Note_off_c, 6, 64, 95
3, 649920, Note_off_c, 6, 60, 95
3, 649920, Note_off_c, 6, 57, 95
3, 649920, Note_off_c, 6, 52, 95
3, 649920, Note_off_c, 6, 45, 95
3, 649920, Note_on_c, 6, 45, 95
3, 649935, Note_on_c, 6, 52, 95
3, 649950, Note_on_c, 6, 57, 95
3, 649965, Note_on_c, 6, 60, 95
3, 650400, Note_off_c, 6, 60, 95
3, 650400, Note_off_c, 6, 57, 95
3, 650400, Note_off_c, 6, 52, 95
3, 650400, Note_off_c, 6, 45, 95
3, 650400, Note_on_c, 6, 64, 95
3, 650415, Note_on_c, 6, 60, 95
3, 650430, Note_on_c, 6, 57, 95
3, 650880, Note_off_c, 6, 64, 95
3, 650880, Note_off_c, 6, 60, 95
3, 650880, Note_off_c, 6, 57, 95
3, 650880, Note_on_c, 6, 64, 95
3, 650900, Note_on_c, 6, 60, 95
3, 650920, Note_on_c, 6, 57, 95
3, 651520, Note_off_c, 6, 64, 95
3, 651520, Note_off_c, 6, 60, 95
3, 651520, Note_off_c, 6, 57, 95
3, 651520, Note_on_c, 6, 64, 95
3, 651540, Note_on_c, 6, 60, 95
3, 651560, Note_on_c, 6, 57, 95
3, 652160, Note_off_c, 6, 64, 95
3, 652160, Note_off_c, 6, 60, 95
3, 652160, Note_off_c, 6, 57, 95
3, 652160, Note_on_c, 6, 64, 95
3, 652180, Note_on_c, 6, 60, 95
3, 652200, Note_on_c, 6, 57, 95
3, 652800, Note_off_c, 6, 64, 95
3, 652800, Note_off_c, 6, 60, 95
3, 652800, Note_off_c, 6, 57, 95
3, 652800, Note_on_c, 6, 48, 95
3, 652830, Note_on_c, 6, 53, 95
3, 652860, Note_on_c, 6, 57, 95
3, 652890, Note_on_c, 6, 60, 95
3, 652920, Note_on_c, 6, 65, 95
3, 653760, Note_off_c, 6, 65, 95
3, 653760, Note_off_c, 6, 60, 95
3, 653760, Note_off_c, 6, 57, 95
3, 653760, Note_off_c, 6, 53, 95
3, 653760, Note_off_c, 6, 48, 95
3, 653760, Note_on_c, 6, 48, 95
3, 653775, Note_on_c, 6, 53, 95
3, 653790, Note_on_c, 6, 57, 95
3, 653805, Note_on_c, 6, 60, 95
3, 654240, Note_off_c, 6, 60, 95
3, 654240, Note_off_c, 6, 57, 95
3, 654240, Note_off_c, 6, 53, 95
3, 654240, Note_off_c, 6, 48, 95
3, 654240, Note_on_c, 6, 65, 95
3, 654270, Note_on_c, 6, 60, 95
3, 654300, Note_on_c, 6, 57, 95
3, 655200, Note_off_c, 6, 65, 95
3, 655200, Note_off_c, 6, 60, 95
3, 655200, Note_off_c, 6, 57, 95
3, 655200, Note_on_c, 6, 65, 95
3, 655215, Note_on_c, 6, 60, 95
3, 655230, Note_on_c, 6, 57, 95
3, 655680, Note_off_c, 6, 65, 95
3, 655680, Note_off_c, 6, 60, 95
3, 655680, Note_off_c, 6, 57, 95
3, 656160, Note_on_c, 6, 65, 95
3, 656175, Note_on_c, 6, 60, 95
3, 656190, Note_on_c, 6, 57, 95
3, 656640, Note_off_c, 6, 65, 95
3, 656640, Note_off_c, 6, 60, 95
3, 656640, Note_off_c, 6, 57, 95
3, 656640, Note_on_c, 6, 50, 95
3, 656670, Note_on_c, 6, 57, 95
3, 656700, Note_on_c, 6, 62, 95
3, 656730, Note_on_c, 6, 65, 95
3, 657600, Note_off_c, 6, 65, 95
3, 657600, Note_off_c, 6, 62, 95
3, 657600, Note_off_c, 6, 57, 95
3, 657600, Note_off_c, 6, 50, 95
3, 657600, Note_on_c, 6, 50, 95
3, 657615, Note_on_c, 6, 57, 95
3, 657630, Note_on_c, 6, 62, 95
3, 657645, Note_on_c, 6, 65, 95
3, 658080, Note_off_c, 6, 65, 95
3, 658080, Note_off_c, 6, 62, 95
3, 658080, Note_off_c, 6, 57, 95
3, 658080, Note_off_c, 6, 50, 95
3, 658080, Note_on_c, 6, 65, 95
3, 658110, Note_on_c, 6, 62, 95
3, 658140, Note_on_c, 6, 57, 95
3, 659040, Note_off_c, 6, 65, 95
3, 659040, Note_off_c, 6, 62, 95
3, 659040, Note_off_c, 6, 57, 95
3, 659040, Note_on_c, 6, 65, 95
3, 659055, Note_on_c, 6, 62, 95
3, 659070, Note_on_c, 6, 57, 95
3, 659520, Note_off_c, 6, 65, 95
3, 659520, Note_off_c, 6, 62, 95
3, 659520, Note_off_c, 6, 57, 95
3, 660000, Note_on_c, 6, 65, 95
3, 660015, Note_on_c, 6, 62, 95
3, 660030, Note_on_c, 6, 57, 95
3, 660480, Note_off_c, 6, 65, 95
3, 660480, Note_off_c, 6, 62, 95
3, 660480, Note_off_c, 6, 57, 95
3, 660480, Note_on_c, 6, 50, 95
3, 660510, Note_on_c, 6, 59, 95
3, 660540, Note_on_c, 6, 62, 95
3, 660570, Note_on_c, 6, 67, 95
3, 661440, Note_off_c, 6, 67, 95
3, 661440, Note_off_c, 6, 62, 95
3, 661440, Note_off_c, 6, 59, 95
3, 661440, Note_off_c, 6, 50, 95
3, 661440, Note_on_c, 6, 50, 95
3, 661455, Note_on_c, 6, 59, 95
3, 661470, Note_on_c, 6, 62, 95
3, 661485, Note_on_c, 6, 67, 95
3, 661920, Note_off_c, 6, 67, 95
3, 661920, Note_off_c, 6, 62, 95
3, 661920, Note_off_c, 6, 59, 95
3, 661920, Note_off_c, 6, 50, 95
3, 661920, Note_on_c, 6, 67, 95
3, 661950, Note_on_c, 6, 62, 95
3, 661980, Note_on_c, 6, 59, 95
3, 662880, Note_off_c, 6, 67, 95
3, 662880, Note_off_c, 6, 62, 95
3, 662880, Note_off_c, 6, 59, 95
3, 662880, Note_on_c, 6, 67, 95
3, 662895, Note_on_c, 6, 62, 95
3, 662910, Note_on_c, 6, 59, 95
3, 663360, Note_off_c, 6, 67, 95
3, 663360, Note_off_c, 6, 62, 95
3, 663360, Note_off_c, 6, 59, 95
3, 663840, Note_on_c, 6, 67, 95
3, 663855, Note_on_c, 6, 62, 95
3, 663870, Note_on_c, 6, 59, 95
3, 664320, Note_off_c, 6, 67, 95
3, 664320, Note_off_c, 6, 62, 95
3, 664320, Note_off_c, 6, 59, 95
3, 664320, Note_on_c, 6, 50, 95
3, 664350, Note_on_c, 6, 59, 95
3, 664380, Note_on_c, 6, 62, 95
3, 664410, Note_on_c, 6, 67, 95
3, 665280, Note_off_c, 6, 67, 95
3, 665280, Note_off_c, 6, 62, 95
3, 665280, Note_off_c, 6, 59, 95
3, 665280, Note_off_c, 6, 50, 95
3, 665280, Note_on_c, 6, 50, 95
3, 665295, Note_on_c, 6, 59, 95
3, 665310, Note_on_c, 6, 62, 95
3, 665325, Note_on_c, 6, 67, 95
3, 665760, Note_off_c, 6, 67, 95
3, 665760, Note_off_c, 6, 62, 95
3, 665760, Note_off_c, 6, 59, 95
3, 665760, Note_off_c, 6, 50, 95
3, 665760, Note_on_c, 6, 67, 95
3, 665790, Note_on_c, 6, 62, 95
3, 665820, Note_on_c, 6, 59, 95
3, 666720, Note_off_c, 6, 67, 95
3, 666720, Note_off_c, 6, 62, 95
3, 666720, Note_off_c, 6, 59, 95
3, 666720, Note_on_c, 6, 67, 95
3, 666735, Note_on_c, 6, 62, 95
3, 666750, Note_on_c, 6, 59, 95
3, 667200, Note_off_c, 6, 67, 95
3, 667200, Note_off_c, 6, 62, 95
3, 667200, Note_off_c, 6, 59, 95
3, 667680, Note_on_c, 6, 67, 95
3, 667695, Note_on_c, 6, 62, 95
3, 667710, Note_on_c, 6, 59, 95
3, 668160, Note_off_c, 6, 67, 95
3, 668160, Note_off_c, 6, 62, 95
3, 668160, Note_off_c, 6, 59, 95
3, 668160, Note_on_c, 6, 48, 95
3, 668190, Note_on_c, 6, 52, 95
3, 668220, Note_on_c, 6, 55, 95
3, 668250, Note_on_c, 6, 60, 95
3, 668280, Note_on_c, 6, 64, 95
3, 669120, Note_off_c, 6, 64, 95
3, 669120, Note_off_c, 6, 60, 95
3, 669120, Note_off_c, 6, 55, 95
3, 669120, Note_off_c, 6, 52, 95
3, 669120, Note_off_c, 6, 48, 95
3, 669120, Note_on_c, 6, 48, 95
3, 669135, Note_on_c, 6, 52, 95
3, 669150, Note_on_c, 6, 55, 95
3, 669165, Note_on_c, 6, 60, 95
3, 669600, Note_off_c, 6, 60, 95
3, 669600, Note_off_c, 6, 55, 95
3, 669600, Note_off_c, 6, 52, 95
3, 669600, Note_off_c, 6, 48, 95
3, 669600, Note_on_c, 6, 64, 95
3, 669630, Note_on_c, 6, 60, 95
3, 669660, Note_on_c, 6, 55, 95
3, 670560, Note_off_c, 6, 64, 95
3, 670560, Note_off_c, 6, 60, 95
3, 670560, Note_off_c, 6, 55, 95
3, 670560, Note_on_c, 6, 64, 95
3, 670575, Note_on_c, 6, 60, 95
3, 670590, Note_on_c, 6, 55, 95
3, 671040, Note_off_c, 6, 64, 95
3, 671040, Note_off_c, 6, 60, 95
3, 671040, Note_off_c, 6, 55, 95
3, 671520, Note_on_c, 6, 64, 95
3, 671535, Note_on_c, 6, 60, 95
3, 671550, Note_on_c, 6, 55, 95
3, 672000, Note_off_c, 6, 64, 95
3, 672000, Note_off_c, 6, 60, 95
3, 672000, Note_off_c, 6, 55, 95
3, 672000, Note_on_c, 6, 48, 95
3, 672030, Note_on_c, 6, 52, 95
3, 672060, Note_on_c, 6, 55, 95
3, 672090, Note_on_c, 6, 60, 95
3, 672120, Note_on_c, 6, 64, 95
3, 672960, Note_off_c, 6, 64, 95
3, 672960, Note_off_c, 6, 60, 95
3, 672960, Note_off_c, 6, 55, 95
3, 672960, Note_off_c, 6, 52, 95
3, 672960, Note_off_c, 6, 48, 95
3, 672960, Note_on_c, 6, 48, 95
3, 672975, Note_on_c, 6, 52, 95
3, 672990, Note_on_c, 6, 55, 95
3, 673005, Note_on_c, 6, 60, 95
3, 673440, Note_off_c, 6, 60, 95
3, 673440, Note_off_c, 6, 55, 95
3, 673440, Note_off_c, 6, 52, 95
3, 673440, Note_off_c, 6, 48, 95
3, 673440, Note_on_c, 6, 64, 95
3, 673470, Note_on_c, 6, 60, 95
3, 673500, Note_on_c, 6, 55, 95
3, 674400, Note_off_c, 6, 64, 95
3, 674400, Note_off_c, 6, 60, 95
3, 674400, Note_off_c, 6, 55, 95
3, 674400, Note_on_c, 6, 64, 95
3, 674415, Note_on_c, 6, 60, 95
3, 674430, Note_on_c, 6, 55, 95
3, 674880, Note_off_c, 6, 64, 95
3, 674880, Note_off_c, 6, 60, 95
3, 674880, Note_off_c, 6, 55, 95
3, 675360, Note_on_c, 6, 64, 95
3, 675375, Note_on_c, 6, 60, 95
3, 675390, Note_on_c, 6, 55, 95
3, 675840, Note_off_c, 6, 64, 95
3, 675840, Note_off_c, 6, 60, 95
3, 675840, Note_off_c, 6, 55, 95
3, 675840, Note_on_c, 6, 48, 95
3, 675900, Note_on_c, 6, 52, 95
3, 675960, Note_on_c, 6, 55, 95
3, 676020, Note_on_c, 6, 60, 95
3, 676080, Note_on_c, 6, 64, 95
3, 676800, Note_off_c, 6, 64, 95
3, 676800, Note_off_c, 6, 60, 95
3, 676800, Note_off_c, 6, 55, 95
3, 676800, Note_off_c, 6, 52, 95
3, 676800, Note_off_c, 6, 48, 95
3, 676800, Note_on_c, 6, 48, 95
3, 676815, Note_on_c, 6, 52, 95
3, 676830, Note_on_c, 6, 55, 95
3, 677280, Note_off_c, 6, 55, 95
3, 677280, Note_off_c, 6, 52, 95
3, 677280, Note_off_c, 6, 48, 95
3, 677280, Note_on_c, 6, 64, 95
3, 677295, Note_on_c, 6, 60, 95
3, 677310, Note_on_c, 6, 55, 95
3, 677760, Note_off_c, 6, 64, 95
3, 677760, Note_off_c, 6, 60, 95
3, 677760, Note_off_c, 6, 55, 95
3, 677760, Note_on_c, 6, 47, 95
3, 677820, Note_on_c, 6, 52, 95
3, 677880, Note_on_c, 6, 55, 95
3, 677940, Note_on_c, 6, 59, 95
3, 678720, Note_off_c, 6, 59, 95
3, 678720, Note_off_c, 6, 55, 95
3, 678720, Note_off_c, 6, 52, 95
3, 678720, Note_off_c, 6, 47, 95
3, 678720, Note_on_c, 6, 64, 95
3, 678735, Note_on_c, 6, 59, 95
3, 678750, Note_on_c, 6, 55, 95
3, 679200, Note_off_c, 6, 64, 95
3, 679200, Note_off_c, 6, 59, 95
3, 679200, Note_off_c, 6, 55, 95
3, 679200, Note_on_c, 6, 64, 95
3, 679215, Note_on_c, 6, 59, 95
3, 679230, Note_on_c, 6, 55, 95
3, 679680, Note_off_c, 6, 64, 95
3, 679680, Note_off_c, 6, 59, 95
3, 679680, Note_off_c, 6, 55, 95
3, 679680, Note_on_c, 6, 45, 95
3, 679710, Note_on_c, 6, 52, 95
3, 679740, Note_on_c, 6, 57, 95
3, 679770, Note_on_c, 6, 60, 95
3, 679800, Note_on_c, 6, 64, 95
3, 680640, Note_off_c, 6, 64, 95
3, 680640, Note_off_c, 6, 60, 95
3, 680640, Note_off_c, 6, 57, 95
3, 680640, Note_off_c, 6, 52, 95
3, 680640, Note_off_c, 6, 45, 95
3, 680640, Note_on_c, 6, 45, 95
3, 680655, Note_on_c, 6, 52, 95
3, 680670, Note_on_c, 6, 57, 95
3, 680685, Note_on_c, 6, 60, 95
3, 681120, Note_off_c, 6, 60, 95
3, 681120, Note_off_c, 6, 57, 95
3, 681120, Note_off_c, 6, 52, 95
3, 681120, Note_off_c, 6, 45, 95
3, 681120, Note_on_c, 6, 64, 95
3, 681135, Note_on_c, 6, 60, 95
3, 681150, Note_on_c, 6, 57, 95
3, 681600, Note_off_c, 6, 64, 95
3, 681600, Note_off_c, 6, 60, 95
3, 681600, Note_off_c, 6, 57, 95
3, 681600, Note_on_c, 6, 64, 95
3, 681620, Note_on_c, 6, 60, 95
3, 681640, Note_on_c, 6, 57, 95
3, 682240, Note_off_c, 6, 64, 95
3, 682240, Note_off_c, 6, 60, 95
3, 682240, Note_off_c, 6, 57, 95
3, 682240, Note_on_c, 6, 64, 95
3, 682260, Note_on_c, 6, 60, 95
3, 682280, Note_on_c, 6, 57, 95
3, 682880, Note_off_c, 6, 64, 95
3, 682880, Note_off_c, 6, 60, 95
3, 682880, Note_off_c, 6, 57, 95
3, 682880, Note_on_c, 6, 64, 95
3, 682900, Note_on_c, 6, 60, 95
3, 682920, Note_on_c, 6, 57, 95
3, 683520, Note_off_c, 6, 64, 95
3, 683520, Note_off_c, 6, 60, 95
3, 683520, Note_off_c, 6, 57, 95
3, 683520, Note_on_c, 6, 48, 95
3, 683550, Note_on_c, 6, 53, 95
3, 683580, Note_on_c, 6, 57, 95
3, 683610, Note_on_c, 6, 60, 95
3, 683640, Note_on_c, 6, 65, 95
3, 684480, Note_off_c, 6, 65, 95
3, 684480, Note_off_c, 6, 60, 95
3, 684480, Note_off_c, 6, 57, 95
3, 684480, Note_off_c, 6, 53, 95
3, 684480, Note_off_c, 6, 48, 95
3, 684480, Note_on_c, 6, 48, 95
3, 684495, Note_on_c, 6, 53, 95
3, 684510, Note_on_c, 6, 57, 95
3, 684525, Note_on_c, 6, 60, 95
3, 684960, Note_off_c, 6, 60, 95
3, 684960, Note_off_c, 6, 57, 95
3, 684960, Note_off_c, 6, 53, 95
3, 684960, Note_off_c, 6, 48, 95
3, 684960, Note_on_c, 6, 65, 95
3, 684990, Note_on_c, 6, 60, 95
3, 685020, Note_on_c, 6, 57, 95
3, 685920, Note_off_c, 6, 65, 95
3, 685920, Note_off_c, 6, 60, 95
3, 685920, Note_off_c, 6, 57, 95
3, 685920, Note_on_c, 6, 65, 95
3, 685935, Note_on_c, 6, 60, 95
3, 685950, Note_on_c, 6, 57, 95
3, 686400, Note_off_c, 6, 65, 95
3, 686400, Note_off_c, 6, 60, 95
3, 686400, Note_off_c, 6, 57, 95
3, 686880, Note_on_c, 6, 65, 95
3, 686895, Note_on_c, 6, 60, 95
3, 686910, Note_on_c, 6, 57, 95
3, 687360, Note_off_c, 6, 65, 95
3, 687360, Note_off_c, 6, 60, 95
3, 687360, Note_off_c, 6, 57, 95
3, 687360, Note_on_c, 6, 50, 95
3, 687390, Note_on_c, 6, 57, 95
3, 687420, Note_on_c, 6, 62, 95
3, 687450, Note_on_c, 6, 65, 95
3, 688320, Note_off_c, 6, 65, 95
3, 688320, Note_off_c, 6, 62, 95
3, 688320, Note_off_c, 6, 57, 95
3, 688320, Note_off_c, 6, 50, 95
3, 688320, Note_on_c, 6, 50, 95
3, 688335, Note_on_c, 6, 57, 95
3, 688350, Note_on_c, 6, 62, 95
3, 688365, Note_on_c, 6, 65, 95
3, 688800, Note_off_c, 6, 65, 95
3, 688800, Note_off_c, 6, 62, 95
3, 688800, Note_off_c, 6, 57, 95
3, 688800, Note_off_c, 6, 50, 95
3, 688800, Note_on_c, 6, 65, 95
3, 688830, Note_on_c, 6, 62, 95
3, 688860, Note_on_c, 6, 57, 95
3, 689760, Note_off_c, 6, 65, 95
3, 689760, Note_off_c, 6, 62, 95
3, 689760, Note_off_c, 6, 57, 95
3, 689760, Note_on_c, 6, 65, 95
3, 689775, Note_on_c, 6, 62, 95
3, 689790, Note_on_c, 6, 57, 95
3, 690240, Note_off_c, 6, 65, 95
3, 690240, Note_off_c, 6, 62, 95
3, 690240, Note_off_c, 6, 57, 95
3, 690720, Note_on_c, 6, 65, 95
3, 690735, Note_on_c, 6, 62, 95
3, 690750, Note_on_c, 6, 57, 95
3, 691200, Note_off_c, 6, 65, 95
3, 691200, Note_off_c, 6, 62, 95
3, 691200, Note_off_c, 6, 57, 95
3, 691200, Note_on_c, 6, 50, 95
3, 691230, Note_on_c, 6, 59, 95
3, 691260, Note_on_c, 6, 62, 95
3, 691290, Note_on_c, 6, 67, 95
3, 692160, Note_off_c, 6, 67, 95
3, 692160, Note_off_c, 6, 62, 95
3, 692160, Note_off_c, 6, 59, 95
3, 692160, Note_off_c, 6, 50, 95
3, 692160, Note_on_c, 6, 50, 95
3, 692175, Note_on_c, 6, 59, 95
3, 692190, Note_on_c, 6, 62, 95
3, 692205, Note_on_c, 6, 67, 95
3, 692640, Note_off_c, 6, 67, 95
3, 692640, Note_off_c, 6, 62, 95
3, 692640, Note_off_c, 6, 59, 95
3, 692640, Note_off_c, 6, 50, 95
3, 692640, Note_on_c, 6, 67, 95
3, 692670, Note_on_c, 6, 62, 95
3, 692700, Note_on_c, 6, 59, 95
3, 693600, Note_off_c, 6, 67, 95
3, 693600, Note_off_c, 6, 62, 95
3, 693600, Note_off_c, 6, 59, 95
3, 693600, Note_on_c, 6, 67, 95
3, 693615, Note_on_c, 6, 62, 95
3, 693630, Note_on_c, 6, 59, 95
3, 694080, Note_off_c, 6, 67, 95
3, 694080, Note_off_c, 6, 62, 95
3, 694080, Note_off_c, 6, 59, 95
3, 694560, Note_on_c, 6, 67, 95
3, 694575, Note_on_c, 6, 62, 95
3, 694590, Note_on_c, 6, 59, 95
3, 695040, Note_off_c, 6, 67, 95
3, 695040, Note_off_c, 6, 62, 95
3, 695040, Note_off_c, 6, 59, 95
3, 695040, Note_on_c, 6, 50, 95
3, 695055, Note_on_c, 6, 59, 95
3, 695070, Note_on_c, 6, 62, 95
3, 695085, Note_on_c, 6, 67, 95
3, 695520, Note_off_c, 6, 67, 95
3, 695520, Note_off_c, 6, 62, 95
3, 695520, Note_off_c, 6, 59, 95
3, 695520, Note_off_c, 6, 50, 95
3, 698880, Note_on_c, 6, 48, 95
3, 698910, Note_on_c, 6, 52, 95
3, 698940, Note_on_c, 6, 55, 95
3, 698970, Note_on_c, 6, 60, 95
3, 699000, Note_on_c, 6, 64, 95
3, 702720, Note_off_c, 6, 64, 95
3, 702720, Note_off_c, 6, 60, 95
3, 702720, Note_off_c, 6, 55, 95
3, 702720, Note_off_c, 6, 52, 95
3, 702720, Note_off_c, 6, 48, 95
3, 702720, End_track
4, 0, Start_track
4, 0, Pitch_bend_c, 8, 8192
4, 0, Control_c, 8, 7, 119
4, 0, Control_c, 8, 10, 63
4, 0, Control_c, 8, 93, 127
4, 0, Control_c, 8, 91, 127
4, 0, Control_c, 8, 95, 39
4, 0, Control_c, 8, 92, 23
4, 0, Control_c, 8, 11, 127
4, 0, Program_c, 8, 52
4, 0, Control_c, 10, 7, 119
4, 0, Control_c, 10, 10, 63
4, 0, Control_c, 10, 93, 127
4, 0, Control_c, 10, 91, 127
4, 0, Control_c, 10, 95, 39
4, 0, Control_c, 10, 92, 23
4, 0, Control_c, 10, 11, 127
4, 0, Program_c, 10, 52
4, 61440, Note_on_c, 8, 60, 95
4, 61920, Note_off_c, 8, 60, 95
4, 61920, Note_on_c, 8, 60, 95
4, 62400, Note_off_c, 8, 60, 95
4, 62400, Note_on_c, 8, 60, 95
4, 62880, Note_off_c, 8, 60, 95
4, 62880, Note_on_c, 8, 60, 95
4, 63360, Note_off_c, 8, 60, 95
4, 63360, Note_on_c, 8, 59, 95
4, 64320, Note_off_c, 8, 59, 95
4, 64320, Note_on_c, 8, 59, 95
4, 64800, Note_off_c, 8, 59, 95
4, 64800, Note_on_c, 8, 59, 95
4, 65280, Note_off_c, 8, 59, 95
4, 65280, Note_on_c, 8, 57, 95
4, 65760, Note_off_c, 8, 57, 95
4, 65760, Note_on_c, 8, 57, 95
4, 66240, Note_off_c, 8, 57, 95
4, 66240, Note_on_c, 8, 57, 95
4, 66720, Note_off_c, 8, 57, 95
4, 66720, Note_on_c, 8, 57, 95
4, 67200, Note_off_c, 8, 57, 95
4, 67200, Note_on_c, 8, 57, 95
4, 67840, Note_off_c, 8, 57, 95
4, 67840, Note_on_c, 8, 59, 95
4, 68480, Note_off_c, 8, 59, 95
4, 68480, Note_on_c, 8, 60, 95
4, 69120, Note_off_c, 8, 60, 95
4, 69120, Note_on_c, 8, 53, 95
4, 72960, Note_off_c, 8, 53, 95
4, 76320, Note_on_c, 8, 50, 95
4, 76800, Note_off_c, 8, 50, 95
4, 76800, Note_on_c, 10, 59, 95
4, 76960, Pitch_bend_c, 10, 8192
4, 77120, Pitch_bend_c, 10, 8320
4, 77280, Pitch_bend_c, 10, 8192
4, 77440, Pitch_bend_c, 10, 8320
4, 77600, Pitch_bend_c, 10, 8192
4, 77760, Pitch_bend_c, 10, 8320
4, 77920, Pitch_bend_c, 10, 8192
4, 78080, Pitch_bend_c, 10, 8320
4, 78240, Pitch_bend_c, 10, 8192
4, 78400, Pitch_bend_c, 10, 8320
4, 78560, Pitch_bend_c, 10, 8192
4, 78720, Pitch_bend_c, 10, 8320
4, 78880, Pitch_bend_c, 10, 8192
4, 79040, Pitch_bend_c, 10, 8320
4, 79200, Pitch_bend_c, 10, 8192
4, 79200, Pitch_bend_c, 10, 8320
4, 79200, Pitch_bend_c, 10, 8192
4, 79200, Note_off_c, 10, 59, 95
4, 79200, Note_on_c, 8, 57, 95
4, 80160, Note_off_c, 8, 57, 95
4, 80160, Note_on_c, 8, 57, 95
4, 80640, Note_off_c, 8, 57, 95
4, 80640, Note_on_c, 8, 55, 95
4, 82560, Note_off_c, 8, 55, 95
4, 82560, Note_on_c, 8, 50, 95
4, 83200, Note_off_c, 8, 50, 95
4, 83200, Note_on_c, 8, 52, 95
4, 83840, Note_off_c, 8, 52, 95
4, 83840, Note_on_c, 8, 53, 95
4, 84480, Note_off_c, 8, 53, 95
4, 84480, Note_on_c, 8, 52, 95
4, 88320, Note_off_c, 8, 52, 95
4, 92160, Note_on_c, 8, 60, 95
4, 92640, Note_off_c, 8, 60, 95
4, 92640, Note_on_c, 8, 60, 95
4, 93120, Note_off_c, 8, 60, 95
4, 93120, Note_on_c, 8, 60, 95
4, 93600, Note_off_c, 8, 60, 95
4, 93600, Note_on_c, 8, 60, 95
4, 94080, Note_off_c, 8, 60, 95
4, 94080, Note_on_c, 8, 59, 95
4, 95040, Note_off_c, 8, 59, 95
4, 95040, Note_on_c, 8, 59, 95
4, 95520, Note_off_c, 8, 59, 95
4, 95520, Note_on_c, 8, 59, 95
4, 96000, Note_off_c, 8, 59, 95
4, 96000, Note_on_c, 8, 57, 95
4, 96480, Note_off_c, 8, 57, 95
4, 96480, Note_on_c, 8, 57, 95
4, 96960, Note_off_c, 8, 57, 95
4, 96960, Note_on_c, 8, 57, 95
4, 97440, Note_off_c, 8, 57, 95
4, 97440, Note_on_c, 8, 57, 95
4, 97920, Note_off_c, 8, 57, 95
4, 97920, Note_on_c, 8, 57, 95
4, 98560, Note_off_c, 8, 57, 95
4, 98560, Note_on_c, 8, 59, 95
4, 99200, Note_off_c, 8, 59, 95
4, 99200, Note_on_c, 8, 60, 95
4, 99840, Note_off_c, 8, 60, 95
4, 99840, Note_on_c, 8, 53, 95
4, 101760, Note_off_c, 8, 53, 95
4, 107040, Note_on_c, 8, 50, 95
4, 107520, Note_off_c, 8, 50, 95
4, 107520, Note_on_c, 10, 59, 95
4, 107680, Pitch_bend_c, 10, 8192
4, 107840, Pitch_bend_c, 10, 8320
4, 108000, Pitch_bend_c, 10, 8192
4, 108160, Pitch_bend_c, 10, 8320
4, 108320, Pitch_bend_c, 10, 8192
4, 108480, Pitch_bend_c, 10, 8320
4, 108640, Pitch_bend_c, 10, 8192
4, 108800, Pitch_bend_c, 10, 8320
4, 108960, Pitch_bend_c, 10, 8192
4, 109120, Pitch_bend_c, 10, 8320
4, 109280, Pitch_bend_c, 10, 8192
4, 109440, Pitch_bend_c, 10, 8320
4, 109600, Pitch_bend_c, 10, 8192
4, 109760, Pitch_bend_c, 10, 8320
4, 109920, Pitch_bend_c, 10, 8192
4, 109920, Pitch_bend_c, 10, 8320
4, 109920, Pitch_bend_c, 10, 8192
4, 109920, Note_off_c, 10, 59, 95
4, 109920, Note_on_c, 8, 57, 95
4, 110880, Note_off_c, 8, 57, 95
4, 110880, Note_on_c, 8, 57, 95
4, 111360, Note_off_c, 8, 57, 95
4, 111360, Note_on_c, 8, 55, 95
4, 113280, Note_off_c, 8, 55, 95
4, 113280, Note_on_c, 8, 50, 95
4, 113920, Note_off_c, 8, 50, 95
4, 113920, Note_on_c, 8, 52, 95
4, 114560, Note_off_c, 8, 52, 95
4, 114560, Note_on_c, 8, 53, 95
4, 115200, Note_off_c, 8, 53, 95
4, 115200, Note_on_c, 8, 52, 95
4, 119040, Note_off_c, 8, 52, 95
4, 120480, Note_on_c, 10, 52, 127
4, 120640, Pitch_bend_c, 10, 8192
4, 120800, Pitch_bend_c, 10, 8320
4, 120960, Pitch_bend_c, 10, 8192
4, 120960, Pitch_bend_c, 10, 8320
4, 120960, Pitch_bend_c, 10, 8192
4, 120960, Note_off_c, 10, 52, 127
4, 120960, Note_on_c, 10, 51, 95
4, 121120, Pitch_bend_c, 10, 8192
4, 121280, Pitch_bend_c, 10, 8320
4, 121440, Pitch_bend_c, 10, 8192
4, 121600, Pitch_bend_c, 10, 8320
4, 121760, Pitch_bend_c, 10, 8192
4, 121920, Pitch_bend_c, 10, 8320
4, 121920, Pitch_bend_c, 10, 8192
4, 121920, Note_off_c, 10, 51, 95
4, 121920, Note_on_c, 10, 51, 127
4, 122080, Pitch_bend_c, 10, 8192
4, 122240, Pitch_bend_c, 10, 8320
4, 122400, Pitch_bend_c, 10, 8192
4, 122400, Pitch_bend_c, 10, 8320
4, 122400, Pitch_bend_c, 10, 8192
4, 122400, Note_off_c, 10, 51, 127
4, 122400, Note_on_c, 10, 52, 95
4, 122560, Pitch_bend_c, 10, 8192
4, 122720, Pitch_bend_c, 10, 8320
4, 122880, Pitch_bend_c, 10, 8192
4, 123040, Pitch_bend_c, 10, 8320
4, 123200, Pitch_bend_c, 10, 8192
4, 123360, Pitch_bend_c, 10, 8320
4, 123360, Pitch_bend_c, 10, 8192
4, 123360, Note_off_c, 10, 52, 95
4, 123360, Note_on_c, 8, 56, 127
4, 126720, Note_off_c, 8, 56, 127
4, 126720, Note_on_c, 8, 52, 95
4, 127680, Note_off_c, 8, 52, 95
4, 127680, Note_on_c, 8, 56, 95
4, 128160, Note_off_c, 8, 56, 95
4, 128160, Note_on_c, 8, 59, 95
4, 129120, Note_off_c, 8, 59, 95
4, 129120, Note_on_c, 8, 62, 95
4, 130080, Note_off_c, 8, 62, 95
4, 130080, Note_on_c, 8, 64, 95
4, 130560, Note_off_c, 8, 64, 95
4, 130560, Note_on_c, 8, 60, 127
4, 131520, Note_off_c, 8, 60, 127
4, 131520, Note_on_c, 8, 62, 102
4, 132000, Note_off_c, 8, 62, 102
4, 132000, Note_on_c, 8, 60, 127
4, 132480, Note_off_c, 8, 60, 127
4, 132480, Note_on_c, 8, 60, 95
4, 137280, Note_off_c, 8, 60, 95
4, 137280, Note_on_c, 8, 57, 127
4, 137760, Note_off_c, 8, 57, 127
4, 137760, Note_on_c, 8, 60, 127
4, 138240, Note_off_c, 8, 60, 127
4, 138240, Note_on_c, 8, 62, 127
4, 138720, Note_off_c, 8, 62, 127
4, 138720, Note_on_c, 8, 65, 127
4, 139200, Note_off_c, 8, 65, 127
4, 140160, Note_on_c, 8, 65, 127
4, 140640, Note_off_c, 8, 65, 127
4, 140640, Note_on_c, 8, 67, 127
4, 141120, Note_off_c, 8, 67, 127
4, 142080, Note_on_c, 8, 62, 127
4, 142720, Note_off_c, 8, 62, 127
4, 142720, Note_on_c, 8, 64, 127
4, 143360, Note_off_c, 8, 64, 127
4, 143360, Note_on_c, 8, 64, 127
4, 144960, Note_off_c, 8, 64, 127
4, 144960, Note_on_c, 8, 57, 127
4, 145440, Note_off_c, 8, 57, 127
4, 145440, Note_on_c, 8, 60, 127
4, 145920, Note_off_c, 8, 60, 127
4, 145920, Note_on_c, 8, 62, 127
4, 146400, Note_off_c, 8, 62, 127
4, 146400, Note_on_c, 8, 65, 127
4, 146880, Note_off_c, 8, 65, 127
4, 147840, Note_on_c, 8, 65, 127
4, 148320, Note_off_c, 8, 65, 127
4, 148320, Note_on_c, 8, 67, 127
4, 148800, Note_off_c, 8, 67, 127
4, 149760, Note_on_c, 8, 62, 127
4, 150400, Note_off_c, 8, 62, 127
4, 150400, Note_on_c, 8, 64, 127
4, 151040, Note_off_c, 8, 64, 127
4, 151040, Note_on_c, 8, 64, 127
4, 152640, Note_off_c, 8, 64, 127
4, 152640, Note_on_c, 8, 52, 127
4, 153120, Note_off_c, 8, 52, 127
4, 153120, Note_on_c, 8, 52, 127
4, 153600, Note_off_c, 8, 52, 127
4, 153600, Note_on_c, 8, 59, 127
4, 155520, Note_off_c, 8, 59, 127
4, 155520, Note_on_c, 8, 59, 127
4, 156000, Note_off_c, 8, 59, 127
4, 156000, Note_on_c, 8, 57, 127
4, 156960, Note_off_c, 8, 57, 127
4, 156960, Note_on_c, 8, 57, 127
4, 157440, Note_off_c, 8, 57, 127
4, 157440, Note_on_c, 8, 55, 95
4, 158400, Note_off_c, 8, 55, 95
4, 158400, Note_on_c, 8, 55, 95
4, 159360, Note_off_c, 8, 55, 95
4, 159360, Note_on_c, 8, 50, 95
4, 160000, Note_off_c, 8, 50, 95
4, 160000, Note_on_c, 8, 52, 95
4, 160640, Note_off_c, 8, 52, 95
4, 160640, Note_on_c, 8, 53, 95
4, 161280, Note_off_c, 8, 53, 95
4, 161280, Note_on_c, 8, 52, 127
4, 165120, Note_off_c, 8, 52, 127
4, 168960, Note_on_c, 8, 60, 95
4, 169440, Note_off_c, 8, 60, 95
4, 169440, Note_on_c, 8, 60, 95
4, 169920, Note_off_c, 8, 60, 95
4, 169920, Note_on_c, 8, 60, 95
4, 170400, Note_off_c, 8, 60, 95
4, 170400, Note_on_c, 8, 60, 95
4, 170880, Note_off_c, 8, 60, 95
4, 170880, Note_on_c, 8, 59, 95
4, 171840, Note_off_c, 8, 59, 95
4, 171840, Note_on_c, 8, 59, 95
4, 172320, Note_off_c, 8, 59, 95
4, 172320, Note_on_c, 8, 59, 95
4, 172800, Note_off_c, 8, 59, 95
4, 172800, Note_on_c, 8, 57, 95
4, 173280, Note_off_c, 8, 57, 95
4, 173280, Note_on_c, 8, 57, 95
4, 173760, Note_off_c, 8, 57, 95
4, 173760, Note_on_c, 8, 57, 95
4, 174240, Note_off_c, 8, 57, 95
4, 174240, Note_on_c, 8, 57, 95
4, 174720, Note_off_c, 8, 57, 95
4, 174720, Note_on_c, 8, 57, 95
4, 175360, Note_off_c, 8, 57, 95
4, 175360, Note_on_c, 8, 59, 95
4, 176000, Note_off_c, 8, 59, 95
4, 176000, Note_on_c, 8, 60, 95
4, 176640, Note_off_c, 8, 60, 95
4, 176640, Note_on_c, 8, 53, 95
4, 180480, Note_off_c, 8, 53, 95
4, 183840, Note_on_c, 8, 50, 95
4, 184320, Note_off_c, 8, 50, 95
4, 184320, Note_on_c, 10, 59, 95
4, 184480, Pitch_bend_c, 10, 8192
4, 184640, Pitch_bend_c, 10, 8320
4, 184800, Pitch_bend_c, 10, 8192
4, 184960, Pitch_bend_c, 10, 8320
4, 185120, Pitch_bend_c, 10, 8192
4, 185280, Pitch_bend_c, 10, 8320
4, 185440, Pitch_bend_c, 10, 8192
4, 185600, Pitch_bend_c, 10, 8320
4, 185760, Pitch_bend_c, 10, 8192
4, 185920, Pitch_bend_c, 10, 8320
4, 186080, Pitch_bend_c, 10, 8192
4, 186240, Pitch_bend_c, 10, 8320
4, 186400, Pitch_bend_c, 10, 8192
4, 186560, Pitch_bend_c, 10, 8320
4, 186720, Pitch_bend_c, 10, 8192
4, 186720, Pitch_bend_c, 10, 8320
4, 186720, Pitch_bend_c, 10, 8192
4, 186720, Note_off_c, 10, 59, 95
4, 186720, Note_on_c, 8, 57, 95
4, 187680, Note_off_c, 8, 57, 95
4, 187680, Note_on_c, 8, 57, 95
4, 188160, Note_off_c, 8, 57, 95
4, 188160, Note_on_c, 8, 55, 95
4, 190080, Note_off_c, 8, 55, 95
4, 190080, Note_on_c, 8, 50, 95
4, 190720, Note_off_c, 8, 50, 95
4, 190720, Note_on_c, 8, 52, 95
4, 191360, Note_off_c, 8, 52, 95
4, 191360, Note_on_c, 8, 53, 95
4, 192000, Note_off_c, 8, 53, 95
4, 192000, Note_on_c, 8, 52, 95
4, 195840, Note_off_c, 8, 52, 95
4, 199680, Note_on_c, 8, 48, 95
4, 200160, Note_off_c, 8, 48, 95
4, 200160, Note_on_c, 8, 48, 95
4, 200640, Note_off_c, 8, 48, 95
4, 200640, Note_on_c, 8, 48, 95
4, 201120, Note_off_c, 8, 48, 95
4, 201120, Note_on_c, 8, 48, 95
4, 201600, Note_off_c, 8, 48, 95
4, 201600, Note_on_c, 8, 52, 95
4, 202080, Note_off_c, 8, 52, 95
4, 202080, Note_on_c, 8, 52, 95
4, 202560, Note_off_c, 8, 52, 95
4, 202560, Note_on_c, 8, 52, 95
4, 203040, Note_off_c, 8, 52, 95
4, 203040, Note_on_c, 8, 52, 95
4, 203520, Note_off_c, 8, 52, 95
4, 203520, Note_on_c, 8, 45, 95
4, 204000, Note_off_c, 8, 45, 95
4, 204000, Note_on_c, 8, 45, 95
4, 204480, Note_off_c, 8, 45, 95
4, 204480, Note_on_c, 8, 45, 95
4, 204960, Note_off_c, 8, 45, 95
4, 204960, Note_on_c, 8, 45, 95
4, 205440, Note_off_c, 8, 45, 95
4, 205440, Note_on_c, 8, 45, 95
4, 205920, Note_off_c, 8, 45, 95
4, 205920, Note_on_c, 8, 45, 95
4, 206400, Note_off_c, 8, 45, 95
4, 206400, Note_on_c, 8, 45, 95
4, 206880, Note_off_c, 8, 45, 95
4, 206880, Note_on_c, 8, 45, 95
4, 207360, Note_off_c, 8, 45, 95
4, 207360, Note_on_c, 8, 53, 95
4, 207840, Note_off_c, 8, 53, 95
4, 207840, Note_on_c, 8, 53, 95
4, 208320, Note_off_c, 8, 53, 95
4, 208320, Note_on_c, 8, 53, 95
4, 208800, Note_off_c, 8, 53, 95
4, 208800, Note_on_c, 8, 53, 95
4, 209280, Note_off_c, 8, 53, 95
4, 209280, Note_on_c, 8, 53, 95
4, 209760, Note_off_c, 8, 53, 95
4, 209760, Note_on_c, 8, 53, 95
4, 210240, Note_off_c, 8, 53, 95
4, 210240, Note_on_c, 8, 53, 95
4, 210720, Note_off_c, 8, 53, 95
4, 210720, Note_on_c, 8, 53, 95
4, 211200, Note_off_c, 8, 53, 95
4, 211200, Note_on_c, 8, 50, 95
4, 211680, Note_off_c, 8, 50, 95
4, 211680, Note_on_c, 8, 50, 95
4, 212160, Note_off_c, 8, 50, 95
4, 212160, Note_on_c, 8, 50, 95
4, 212640, Note_off_c, 8, 50, 95
4, 212640, Note_on_c, 8, 50, 95
4, 213120, Note_off_c, 8, 50, 95
4, 213120, Note_on_c, 8, 50, 95
4, 213600, Note_off_c, 8, 50, 95
4, 213600, Note_on_c, 8, 50, 95
4, 214080, Note_off_c, 8, 50, 95
4, 214080, Note_on_c, 8, 50, 95
4, 214560, Note_off_c, 8, 50, 95
4, 214560, Note_on_c, 8, 50, 95
4, 215040, Note_off_c, 8, 50, 95
4, 215040, Note_on_c, 8, 55, 95
4, 215520, Note_off_c, 8, 55, 95
4, 215520, Note_on_c, 8, 55, 95
4, 216000, Note_off_c, 8, 55, 95
4, 216000, Note_on_c, 8, 55, 95
4, 216480, Note_off_c, 8, 55, 95
4, 216480, Note_on_c, 8, 55, 95
4, 216960, Note_off_c, 8, 55, 95
4, 216960, Note_on_c, 8, 55, 95
4, 217440, Note_off_c, 8, 55, 95
4, 217440, Note_on_c, 8, 55, 95
4, 217920, Note_off_c, 8, 55, 95
4, 217920, Note_on_c, 8, 55, 95
4, 218400, Note_off_c, 8, 55, 95
4, 218400, Note_on_c, 8, 55, 95
4, 218880, Note_off_c, 8, 55, 95
4, 218880, Note_on_c, 8, 53, 95
4, 219360, Note_off_c, 8, 53, 95
4, 219360, Note_on_c, 8, 53, 95
4, 219840, Note_off_c, 8, 53, 95
4, 219840, Note_on_c, 8, 53, 95
4, 220320, Note_off_c, 8, 53, 95
4, 220320, Note_on_c, 8, 53, 95
4, 220800, Note_off_c, 8, 53, 95
4, 220800, Note_on_c, 8, 53, 95
4, 221280, Note_off_c, 8, 53, 95
4, 221280, Note_on_c, 8, 53, 95
4, 221760, Note_off_c, 8, 53, 95
4, 221760, Note_on_c, 8, 53, 95
4, 222240, Note_off_c, 8, 53, 95
4, 222240, Note_on_c, 8, 53, 95
4, 222720, Note_off_c, 8, 53, 95
4, 222720, Note_on_c, 8, 48, 95
4, 223200, Note_off_c, 8, 48, 95
4, 223200, Note_on_c, 8, 48, 95
4, 223680, Note_off_c, 8, 48, 95
4, 223680, Note_on_c, 8, 48, 95
4, 224160, Note_off_c, 8, 48, 95
4, 224160, Note_on_c, 8, 48, 95
4, 224640, Note_off_c, 8, 48, 95
4, 224640, Note_on_c, 8, 48, 95
4, 225120, Note_off_c, 8, 48, 95
4, 225120, Note_on_c, 8, 48, 95
4, 225600, Note_off_c, 8, 48, 95
4, 225600, Note_on_c, 8, 48, 95
4, 226080, Note_off_c, 8, 48, 95
4, 226080, Note_on_c, 8, 48, 95
4, 226560, Note_off_c, 8, 48, 95
4, 226560, Note_on_c, 8, 48, 95
4, 227040, Note_off_c, 8, 48, 95
4, 227040, Note_on_c, 8, 48, 95
4, 227520, Note_off_c, 8, 48, 95
4, 227520, Note_on_c, 8, 48, 95
4, 228000, Note_off_c, 8, 48, 95
4, 228000, Note_on_c, 8, 48, 95
4, 228480, Note_off_c, 8, 48, 95
4, 228480, Note_on_c, 8, 48, 95
4, 228960, Note_off_c, 8, 48, 95
4, 228960, Note_on_c, 8, 48, 95
4, 229440, Note_off_c, 8, 48, 95
4, 229440, Note_on_c, 8, 48, 95
4, 229920, Note_off_c, 8, 48, 95
4, 229920, Note_on_c, 8, 48, 95
4, 230400, Note_off_c, 8, 48, 95
4, 230400, Note_on_c, 8, 48, 95
4, 230880, Note_off_c, 8, 48, 95
4, 230880, Note_on_c, 8, 48, 95
4, 231360, Note_off_c, 8, 48, 95
4, 231360, Note_on_c, 8, 48, 95
4, 231840, Note_off_c, 8, 48, 95
4, 231840, Note_on_c, 8, 48, 95
4, 232320, Note_off_c, 8, 48, 95
4, 232320, Note_on_c, 8, 52, 95
4, 232800, Note_off_c, 8, 52, 95
4, 232800, Note_on_c, 8, 52, 95
4, 233280, Note_off_c, 8, 52, 95
4, 233280, Note_on_c, 8, 52, 95
4, 233760, Note_off_c, 8, 52, 95
4, 233760, Note_on_c, 8, 52, 95
4, 234240, Note_off_c, 8, 52, 95
4, 234240, Note_on_c, 8, 45, 95
4, 234720, Note_off_c, 8, 45, 95
4, 234720, Note_on_c, 8, 45, 95
4, 235200, Note_off_c, 8, 45, 95
4, 235200, Note_on_c, 8, 45, 95
4, 235680, Note_off_c, 8, 45, 95
4, 235680, Note_on_c, 8, 45, 95
4, 236160, Note_off_c, 8, 45, 95
4, 236160, Note_on_c, 8, 45, 95
4, 236640, Note_off_c, 8, 45, 95
4, 236640, Note_on_c, 8, 45, 95
4, 237120, Note_off_c, 8, 45, 95
4, 237120, Note_on_c, 8, 45, 95
4, 237600, Note_off_c, 8, 45, 95
4, 237600, Note_on_c, 8, 45, 95
4, 238080, Note_off_c, 8, 45, 95
4, 238080, Note_on_c, 8, 53, 95
4, 238560, Note_off_c, 8, 53, 95
4, 238560, Note_on_c, 8, 53, 95
4, 239040, Note_off_c, 8, 53, 95
4, 239040, Note_on_c, 8, 53, 95
4, 239520, Note_off_c, 8, 53, 95
4, 239520, Note_on_c, 8, 53, 95
4, 240000, Note_off_c, 8, 53, 95
4, 240000, Note_on_c, 8, 53, 95
4, 240480, Note_off_c, 8, 53, 95
4, 240480, Note_on_c, 8, 53, 95
4, 240960, Note_off_c, 8, 53, 95
4, 240960, Note_on_c, 8, 53, 95
4, 241440, Note_off_c, 8, 53, 95
4, 241440, Note_on_c, 8, 53, 95
4, 241920, Note_off_c, 8, 53, 95
4, 241920, Note_on_c, 8, 53, 95
4, 241920, Note_on_c, 8, 50, 95
4, 242400, Note_off_c, 8, 53, 95
4, 242400, Note_off_c, 8, 50, 95
4, 242400, Note_on_c, 8, 53, 95
4, 242400, Note_on_c, 8, 50, 95
4, 242880, Note_off_c, 8, 53, 95
4, 242880, Note_off_c, 8, 50, 95
4, 242880, Note_on_c, 8, 53, 95
4, 242880, Note_on_c, 8, 50, 95
4, 243360, Note_off_c, 8, 53, 95
4, 243360, Note_off_c, 8, 50, 95
4, 243360, Note_on_c, 8, 53, 95
4, 243360, Note_on_c, 8, 50, 95
4, 243840, Note_off_c, 8, 53, 95
4, 243840, Note_off_c, 8, 50, 95
4, 243840, Note_on_c, 8, 53, 95
4, 243840, Note_on_c, 8, 50, 95
4, 244320, Note_off_c, 8, 53, 95
4, 244320, Note_off_c, 8, 50, 95
4, 244320, Note_on_c, 8, 53, 95
4, 244320, Note_on_c, 8, 50, 95
4, 244800, Note_off_c, 8, 53, 95
4, 244800, Note_off_c, 8, 50, 95
4, 244800, Note_on_c, 8, 53, 95
4, 244800, Note_on_c, 8, 50, 95
4, 245280, Note_off_c, 8, 53, 95
4, 245280, Note_off_c, 8, 50, 95
4, 245280, Note_on_c, 8, 53, 95
4, 245280, Note_on_c, 8, 50, 95
4, 245760, Note_off_c, 8, 53, 95
4, 245760, Note_off_c, 8, 50, 95
4, 245760, Note_on_c, 8, 55, 95
4, 246240, Note_off_c, 8, 55, 95
4, 246240, Note_on_c, 8, 55, 95
4, 246720, Note_off_c, 8, 55, 95
4, 246720, Note_on_c, 8, 55, 95
4, 247200, Note_off_c, 8, 55, 95
4, 247200, Note_on_c, 8, 55, 95
4, 247680, Note_off_c, 8, 55, 95
4, 247680, Note_on_c, 8, 55, 95
4, 248160, Note_off_c, 8, 55, 95
4, 248160, Note_on_c, 8, 55, 95
4, 248640, Note_off_c, 8, 55, 95
4, 248640, Note_on_c, 8, 55, 95
4, 249120, Note_off_c, 8, 55, 95
4, 249120, Note_on_c, 8, 55, 95
4, 249600, Note_off_c, 8, 55, 95
4, 249600, Note_on_c, 8, 53, 95
4, 250080, Note_off_c, 8, 53, 95
4, 250080, Note_on_c, 8, 53, 95
4, 250560, Note_off_c, 8, 53, 95
4, 250560, Note_on_c, 8, 53, 95
4, 251040, Note_off_c, 8, 53, 95
4, 251040, Note_on_c, 8, 53, 95
4, 251520, Note_off_c, 8, 53, 95
4, 251520, Note_on_c, 8, 53, 95
4, 252000, Note_off_c, 8, 53, 95
4, 252000, Note_on_c, 8, 53, 95
4, 252480, Note_off_c, 8, 53, 95
4, 252480, Note_on_c, 8, 53, 95
4, 252960, Note_off_c, 8, 53, 95
4, 252960, Note_on_c, 8, 53, 95
4, 253440, Note_off_c, 8, 53, 95
4, 253440, Note_on_c, 8, 48, 95
4, 253920, Note_off_c, 8, 48, 95
4, 253920, Note_on_c, 8, 48, 95
4, 254400, Note_off_c, 8, 48, 95
4, 254400, Note_on_c, 8, 48, 95
4, 254880, Note_off_c, 8, 48, 95
4, 254880, Note_on_c, 8, 48, 95
4, 255360, Note_off_c, 8, 48, 95
4, 255360, Note_on_c, 8, 48, 95
4, 255840, Note_off_c, 8, 48, 95
4, 255840, Note_on_c, 8, 48, 95
4, 256320, Note_off_c, 8, 48, 95
4, 256320, Note_on_c, 8, 48, 95
4, 256800, Note_off_c, 8, 48, 95
4, 256800, Note_on_c, 8, 48, 95
4, 257280, Note_off_c, 8, 48, 95
4, 260640, Note_on_c, 10, 55, 95
4, 260800, Pitch_bend_c, 10, 8192
4, 260960, Pitch_bend_c, 10, 8320
4, 261120, Pitch_bend_c, 10, 8192
4, 261120, Pitch_bend_c, 10, 8320
4, 261120, Pitch_bend_c, 10, 8192
4, 261120, Note_off_c, 10, 55, 95
4, 261120, Note_on_c, 10, 60, 95
4, 261280, Pitch_bend_c, 10, 8192
4, 261440, Pitch_bend_c, 10, 8320
4, 261600, Pitch_bend_c, 10, 8192
4, 261760, Pitch_bend_c, 10, 8320
4, 261920, Pitch_bend_c, 10, 8192
4, 262080, Pitch_bend_c, 10, 8320
4, 262240, Pitch_bend_c, 10, 8192
4, 262400, Pitch_bend_c, 10, 8320
4, 262560, Pitch_bend_c, 10, 8192
4, 262720, Pitch_bend_c, 10, 8320
4, 262880, Pitch_bend_c, 10, 8192
4, 263040, Pitch_bend_c, 10, 8320
4, 263040, Pitch_bend_c, 10, 8192
4, 263040, Note_off_c, 10, 60, 95
4, 263040, Note_on_c, 10, 60, 95
4, 263200, Pitch_bend_c, 10, 8192
4, 263360, Pitch_bend_c, 10, 8320
4, 263520, Pitch_bend_c, 10, 8192
4, 263680, Pitch_bend_c, 10, 8320
4, 263680, Pitch_bend_c, 10, 8192
4, 263680, Note_off_c, 10, 60, 95
4, 263680, Note_on_c, 10, 62, 95
4, 263840, Pitch_bend_c, 10, 8192
4, 264000, Pitch_bend_c, 10, 8320
4, 264160, Pitch_bend_c, 10, 8192
4, 264320, Pitch_bend_c, 10, 8320
4, 264320, Pitch_bend_c, 10, 8192
4, 264320, Note_off_c, 10, 62, 95
4, 264320, Pitch_bend_c, 10, 8192
4, 264320, Note_on_c, 10, 64, 95
4, 264370, Pitch_bend_c, 10, 8064
4, 264420, Pitch_bend_c, 10, 7936
4, 264470, Pitch_bend_c, 10, 7808
4, 264520, Pitch_bend_c, 10, 7680
4, 264570, Pitch_bend_c, 10, 7552
4, 264620, Pitch_bend_c, 10, 7424
4, 264670, Pitch_bend_c, 10, 7296
4, 264720, Pitch_bend_c, 10, 7168
4, 264770, Pitch_bend_c, 10, 7040
4, 264820, Pitch_bend_c, 10, 6912
4, 264870, Pitch_bend_c, 10, 6784
4, 264880, Pitch_bend_c, 10, 6784
4, 264930, Pitch_bend_c, 10, 6912
4, 264960, Note_on_c, 10, 59, 47
4, 264980, Pitch_bend_c, 10, 7040
4, 265030, Pitch_bend_c, 10, 7168
4, 265080, Pitch_bend_c, 10, 7296
4, 265120, Pitch_bend_c, 10, 8192
4, 265130, Pitch_bend_c, 10, 7424
4, 265180, Pitch_bend_c, 10, 7552
4, 265230, Pitch_bend_c, 10, 7680
4, 265280, Pitch_bend_c, 10, 7808
4, 265280, Pitch_bend_c, 10, 8320
4, 265330, Pitch_bend_c, 10, 7936
4, 265380, Pitch_bend_c, 10, 8064
4, 265430, Pitch_bend_c, 10, 8192
4, 265440, Pitch_bend_c, 10, 8192
4, 265440, Pitch_bend_c, 10, 8192
4, 265440, Note_off_c, 10, 64, 95
4, 265440, Pitch_bend_c, 10, 8192
4, 265440, Pitch_bend_c, 10, 8320
4, 265440, Pitch_bend_c, 10, 8192
4, 265440, Note_off_c, 10, 59, 47
4, 265440, Note_on_c, 10, 59, 47
4, 265600, Pitch_bend_c, 10, 8192
4, 265760, Pitch_bend_c, 10, 8320
4, 265920, Pitch_bend_c, 10, 8192
4, 265920, Pitch_bend_c, 10, 8320
4, 265920, Pitch_bend_c, 10, 8192
4, 265920, Note_off_c, 10, 59, 47
4, 265920, Note_on_c, 10, 59, 95
4, 266080, Pitch_bend_c, 10, 8192
4, 266240, Pitch_bend_c, 10, 8320
4, 266400, Pitch_bend_c, 10, 8192
4, 266560, Pitch_bend_c, 10, 8320
4, 266720, Pitch_bend_c, 10, 8192
4, 266880, Pitch_bend_c, 10, 8320
4, 266880, Pitch_bend_c, 10, 8192
4, 266880, Note_off_c, 10, 59, 95
4, 266880, Note_on_c, 10, 60, 95
4, 267040, Pitch_bend_c, 10, 8192
4, 267200, Pitch_bend_c, 10, 8320
4, 267360, Pitch_bend_c, 10, 8192
4, 267520, Pitch_bend_c, 10, 8320
4, 267680, Pitch_bend_c, 10, 8192
4, 267840, Pitch_bend_c, 10, 8320
4, 267840, Pitch_bend_c, 10, 8192
4, 267840, Note_off_c, 10, 60, 95
4, 267840, Note_on_c, 10, 62, 95
4, 268000, Pitch_bend_c, 10, 8192
4, 268160, Pitch_bend_c, 10, 8320
4, 268320, Pitch_bend_c, 10, 8192
4, 268480, Pitch_bend_c, 10, 8320
4, 268640, Pitch_bend_c, 10, 8192
4, 268800, Pitch_bend_c, 10, 8320
4, 268960, Pitch_bend_c, 10, 8192
4, 269120, Pitch_bend_c, 10, 8320
4, 269280, Pitch_bend_c, 10, 8192
4, 269280, Pitch_bend_c, 10, 8320
4, 269280, Pitch_bend_c, 10, 8192
4, 269280, Note_off_c, 10, 62, 95
4, 270240, Note_on_c, 8, 55, 95
4, 270720, Note_off_c, 8, 55, 95
4, 270720, Note_on_c, 10, 57, 70
4, 270880, Pitch_bend_c, 10, 8192
4, 271040, Pitch_bend_c, 10, 8320
4, 271200, Pitch_bend_c, 10, 8192
4, 271200, Pitch_bend_c, 10, 8320
4, 271200, Pitch_bend_c, 10, 8192
4, 271200, Note_off_c, 10, 57, 70
4, 271200, Note_on_c, 10, 57, 95
4, 271360, Pitch_bend_c, 10, 8192
4, 271520, Pitch_bend_c, 10, 8320
4, 271680, Pitch_bend_c, 10, 8192
4, 271840, Pitch_bend_c, 10, 8320
4, 272000, Pitch_bend_c, 10, 8192
4, 272160, Pitch_bend_c, 10, 8320
4, 272160, Pitch_bend_c, 10, 8192
4, 272160, Note_off_c, 10, 57, 95
4, 272160, Note_on_c, 8, 55, 95
4, 272640, Note_off_c, 8, 55, 95
4, 272640, Note_on_c, 10, 53, 95
4, 272800, Pitch_bend_c, 10, 8192
4, 272960, Pitch_bend_c, 10, 8320
4, 273120, Pitch_bend_c, 10, 8192
4, 273280, Pitch_bend_c, 10, 8320
4, 273440, Pitch_bend_c, 10, 8192
4, 273600, Pitch_bend_c, 10, 8320
4, 273760, Pitch_bend_c, 10, 8192
4, 273920, Pitch_bend_c, 10, 8320
4, 274080, Pitch_bend_c, 10, 8192
4, 274240, Pitch_bend_c, 10, 8320
4, 274400, Pitch_bend_c, 10, 8192
4, 274560, Pitch_bend_c, 10, 8320
4, 274560, Pitch_bend_c, 10, 8192
4, 274560, Note_off_c, 10, 53, 95
4, 275520, Note_on_c, 10, 53, 95
4, 275680, Pitch_bend_c, 10, 8192
4, 275840, Pitch_bend_c, 10, 8320
4, 276000, Pitch_bend_c, 10, 8192
4, 276000, Pitch_bend_c, 10, 8320
4, 276000, Pitch_bend_c, 10, 8192
4, 276000, Note_off_c, 10, 53, 95
4, 276000, Note_on_c, 10, 52, 95
4, 276160, Pitch_bend_c, 10, 8192
4, 276320, Pitch_bend_c, 10, 8320
4, 276480, Pitch_bend_c, 10, 8192
4, 276480, Pitch_bend_c, 10, 8320
4, 276480, Pitch_bend_c, 10, 8192
4, 276480, Note_off_c, 10, 52, 95
4, 276480, Note_on_c, 10, 50, 95
4, 276640, Pitch_bend_c, 10, 8192
4, 276800, Pitch_bend_c, 10, 8320
4, 276960, Pitch_bend_c, 10, 8192
4, 277120, Pitch_bend_c, 10, 8320
4, 277280, Pitch_bend_c, 10, 8192
4, 277440, Pitch_bend_c, 10, 8320
4, 277600, Pitch_bend_c, 10, 8192
4, 277760, Pitch_bend_c, 10, 8320
4, 277920, Pitch_bend_c, 10, 8192
4, 277920, Pitch_bend_c, 10, 8320
4, 277920, Pitch_bend_c, 10, 8192
4, 277920, Note_off_c, 10, 50, 95
4, 277920, Note_on_c, 10, 59, 95
4, 278080, Pitch_bend_c, 10, 8192
4, 278240, Pitch_bend_c, 10, 8320
4, 278400, Pitch_bend_c, 10, 8192
4, 278560, Pitch_bend_c, 10, 8320
4, 278720, Pitch_bend_c, 10, 8192
4, 278880, Pitch_bend_c, 10, 8320
4, 279040, Pitch_bend_c, 10, 8192
4, 279200, Pitch_bend_c, 10, 8320
4, 279360, Pitch_bend_c, 10, 8192
4, 279360, Pitch_bend_c, 10, 8320
4, 279360, Pitch_bend_c, 10, 8192
4, 279360, Note_off_c, 10, 59, 95
4, 279840, Note_on_c, 10, 59, 95
4, 280000, Pitch_bend_c, 10, 8192
4, 280160, Pitch_bend_c, 10, 8320
4, 280320, Pitch_bend_c, 10, 8192
4, 280320, Pitch_bend_c, 10, 8320
4, 280320, Pitch_bend_c, 10, 8192
4, 280320, Note_off_c, 10, 59, 95
4, 280320, Note_on_c, 10, 57, 95
4, 280480, Pitch_bend_c, 10, 8192
4, 280640, Pitch_bend_c, 10, 8320
4, 280800, Pitch_bend_c, 10, 8192
4, 280960, Pitch_bend_c, 10, 8320
4, 281120, Pitch_bend_c, 10, 8192
4, 281280, Pitch_bend_c, 10, 8320
4, 281440, Pitch_bend_c, 10, 8192
4, 281600, Pitch_bend_c, 10, 8320
4, 281760, Pitch_bend_c, 10, 8192
4, 281760, Pitch_bend_c, 10, 8320
4, 281760, Pitch_bend_c, 10, 8192
4, 281760, Note_off_c, 10, 57, 95
4, 281760, Note_on_c, 10, 55, 95
4, 281920, Pitch_bend_c, 10, 8192
4, 282080, Pitch_bend_c, 10, 8320
4, 282240, Pitch_bend_c, 10, 8192
4, 282400, Pitch_bend_c, 10, 8320
4, 282560, Pitch_bend_c, 10, 8192
4, 282720, Pitch_bend_c, 10, 8320
4, 282880, Pitch_bend_c, 10, 8192
4, 283040, Pitch_bend_c, 10, 8320
4, 283200, Pitch_bend_c, 10, 8192
4, 283200, Pitch_bend_c, 10, 8320
4, 283200, Pitch_bend_c, 10, 8192
4, 283200, Note_off_c, 10, 55, 95
4, 283200, Note_on_c, 10, 55, 95
4, 283360, Pitch_bend_c, 10, 8192
4, 283520, Pitch_bend_c, 10, 8320
4, 283680, Pitch_bend_c, 10, 8192
4, 283680, Pitch_bend_c, 10, 8320
4, 283680, Pitch_bend_c, 10, 8192
4, 283680, Note_off_c, 10, 55, 95
4, 283680, Note_on_c, 10, 50, 95
4, 283840, Pitch_bend_c, 10, 8192
4, 284000, Pitch_bend_c, 10, 8320
4, 284160, Pitch_bend_c, 10, 8192
4, 284160, Pitch_bend_c, 10, 8320
4, 284160, Pitch_bend_c, 10, 8192
4, 284160, Note_off_c, 10, 50, 95
4, 284160, Note_on_c, 10, 50, 95
4, 284320, Pitch_bend_c, 10, 8192
4, 284480, Pitch_bend_c, 10, 8320
4, 284640, Pitch_bend_c, 10, 8192
4, 284800, Pitch_bend_c, 10, 8320
4, 284960, Pitch_bend_c, 10, 8192
4, 285120, Pitch_bend_c, 10, 8320
4, 285120, Pitch_bend_c, 10, 8192
4, 285120, Note_off_c, 10, 50, 95
4, 285120, Note_on_c, 10, 55, 95
4, 285280, Pitch_bend_c, 10, 8192
4, 285440, Pitch_bend_c, 10, 8320
4, 285600, Pitch_bend_c, 10, 8192
4, 285600, Pitch_bend_c, 10, 8320
4, 285600, Pitch_bend_c, 10, 8192
4, 285600, Note_off_c, 10, 55, 95
4, 285600, Note_on_c, 10, 52, 95
4, 285760, Pitch_bend_c, 10, 8192
4, 285920, Pitch_bend_c, 10, 8320
4, 286080, Pitch_bend_c, 10, 8192
4, 286240, Pitch_bend_c, 10, 8320
4, 286400, Pitch_bend_c, 10, 8192
4, 286560, Pitch_bend_c, 10, 8320
4, 286560, Pitch_bend_c, 10, 8192
4, 286560, Note_off_c, 10, 52, 95
4, 286560, Note_on_c, 10, 55, 95
4, 286720, Pitch_bend_c, 10, 8192
4, 286880, Pitch_bend_c, 10, 8320
4, 287040, Pitch_bend_c, 10, 8192
4, 287040, Pitch_bend_c, 10, 8320
4, 287040, Pitch_bend_c, 10, 8192
4, 287040, Note_off_c, 10, 55, 95
4, 287040, Note_on_c, 8, 52, 95
4, 287280, Note_off_c, 8, 52, 95
4, 287280, Note_on_c, 10, 53, 70
4, 287440, Pitch_bend_c, 10, 8192
4, 287520, Pitch_bend_c, 10, 8320
4, 287520, Pitch_bend_c, 10, 8192
4, 287520, Note_off_c, 10, 53, 70
4, 287520, Note_on_c, 10, 55, 95
4, 287680, Pitch_bend_c, 10, 8192
4, 287840, Pitch_bend_c, 10, 8320
4, 288000, Pitch_bend_c, 10, 8192
4, 288000, Pitch_bend_c, 10, 8320
4, 288000, Pitch_bend_c, 10, 8192
4, 288000, Note_off_c, 10, 55, 95
4, 288000, Note_on_c, 10, 52, 95
4, 288160, Pitch_bend_c, 10, 8192
4, 288320, Pitch_bend_c, 10, 8320
4, 288480, Pitch_bend_c, 10, 8192
4, 288640, Pitch_bend_c, 10, 8320
4, 288800, Pitch_bend_c, 10, 8192
4, 288960, Pitch_bend_c, 10, 8320
4, 289120, Pitch_bend_c, 10, 8192
4, 289280, Pitch_bend_c, 10, 8320
4, 289440, Pitch_bend_c, 10, 8192
4, 289600, Pitch_bend_c, 10, 8320
4, 289760, Pitch_bend_c, 10, 8192
4, 289920, Pitch_bend_c, 10, 8320
4, 289920, Pitch_bend_c, 10, 8192
4, 289920, Note_off_c, 10, 52, 95
4, 291360, Note_on_c, 8, 55, 95
4, 291840, Note_off_c, 8, 55, 95
4, 291840, Note_on_c, 10, 60, 95
4, 292000, Pitch_bend_c, 10, 8192
4, 292160, Pitch_bend_c, 10, 8320
4, 292320, Pitch_bend_c, 10, 8192
4, 292480, Pitch_bend_c, 10, 8320
4, 292640, Pitch_bend_c, 10, 8192
4, 292800, Pitch_bend_c, 10, 8320
4, 292960, Pitch_bend_c, 10, 8192
4, 293120, Pitch_bend_c, 10, 8320
4, 293280, Pitch_bend_c, 10, 8192
4, 293440, Pitch_bend_c, 10, 8320
4, 293600, Pitch_bend_c, 10, 8192
4, 293760, Pitch_bend_c, 10, 8320
4, 293760, Pitch_bend_c, 10, 8192
4, 293760, Note_off_c, 10, 60, 95
4, 293760, Note_on_c, 10, 60, 95
4, 293920, Pitch_bend_c, 10, 8192
4, 294080, Pitch_bend_c, 10, 8320
4, 294240, Pitch_bend_c, 10, 8192
4, 294400, Pitch_bend_c, 10, 8320
4, 294400, Pitch_bend_c, 10, 8192
4, 294400, Note_off_c, 10, 60, 95
4, 294400, Note_on_c, 10, 62, 95
4, 294560, Pitch_bend_c, 10, 8192
4, 294720, Pitch_bend_c, 10, 8320
4, 294880, Pitch_bend_c, 10, 8192
4, 295040, Pitch_bend_c, 10, 8320
4, 295040, Pitch_bend_c, 10, 8192
4, 295040, Note_off_c, 10, 62, 95
4, 295040, Pitch_bend_c, 10, 8192
4, 295040, Note_on_c, 10, 64, 95
4, 295090, Pitch_bend_c, 10, 8064
4, 295140, Pitch_bend_c, 10, 7936
4, 295190, Pitch_bend_c, 10, 7808
4, 295240, Pitch_bend_c, 10, 7680
4, 295290, Pitch_bend_c, 10, 7552
4, 295340, Pitch_bend_c, 10, 7424
4, 295390, Pitch_bend_c, 10, 7296
4, 295440, Pitch_bend_c, 10, 7168
4, 295490, Pitch_bend_c, 10, 7040
4, 295540, Pitch_bend_c, 10, 6912
4, 295590, Pitch_bend_c, 10, 6784
4, 295600, Pitch_bend_c, 10, 6784
4, 295650, Pitch_bend_c, 10, 6912
4, 295680, Note_on_c, 10, 59, 47
4, 295700, Pitch_bend_c, 10, 7040
4, 295750, Pitch_bend_c, 10, 7168
4, 295800, Pitch_bend_c, 10, 7296
4, 295840, Pitch_bend_c, 10, 8192
4, 295850, Pitch_bend_c, 10, 7424
4, 295900, Pitch_bend_c, 10, 7552
4, 295950, Pitch_bend_c, 10, 7680
4, 296000, Pitch_bend_c, 10, 7808
4, 296000, Pitch_bend_c, 10, 8320
4, 296050, Pitch_bend_c, 10, 7936
4, 296100, Pitch_bend_c, 10, 8064
4, 296150, Pitch_bend_c, 10, 8192
4, 296160, Pitch_bend_c, 10, 8192
4, 296160, Pitch_bend_c, 10, 8192
4, 296160, Note_off_c, 10, 64, 95
4, 296160, Pitch_bend_c, 10, 8192
4, 296160, Pitch_bend_c, 10, 8320
4, 296160, Pitch_bend_c, 10, 8192
4, 296160, Note_off_c, 10, 59, 47
4, 296160, Note_on_c, 10, 59, 47
4, 296320, Pitch_bend_c, 10, 8192
4, 296480, Pitch_bend_c, 10, 8320
4, 296640, Pitch_bend_c, 10, 8192
4, 296640, Pitch_bend_c, 10, 8320
4, 296640, Pitch_bend_c, 10, 8192
4, 296640, Note_off_c, 10, 59, 47
4, 296640, Note_on_c, 10, 59, 95
4, 296800, Pitch_bend_c, 10, 8192
4, 296960, Pitch_bend_c, 10, 8320
4, 297120, Pitch_bend_c, 10, 8192
4, 297280, Pitch_bend_c, 10, 8320
4, 297440, Pitch_bend_c, 10, 8192
4, 297600, Pitch_bend_c, 10, 8320
4, 297600, Pitch_bend_c, 10, 8192
4, 297600, Note_off_c, 10, 59, 95
4, 297600, Note_on_c, 10, 60, 95
4, 297760, Pitch_bend_c, 10, 8192
4, 297920, Pitch_bend_c, 10, 8320
4, 298080, Pitch_bend_c, 10, 8192
4, 298240, Pitch_bend_c, 10, 8320
4, 298400, Pitch_bend_c, 10, 8192
4, 298560, Pitch_bend_c, 10, 8320
4, 298560, Pitch_bend_c, 10, 8192
4, 298560, Note_off_c, 10, 60, 95
4, 298560, Note_on_c, 10, 62, 95
4, 298720, Pitch_bend_c, 10, 8192
4, 298880, Pitch_bend_c, 10, 8320
4, 299040, Pitch_bend_c, 10, 8192
4, 299200, Pitch_bend_c, 10, 8320
4, 299360, Pitch_bend_c, 10, 8192
4, 299520, Pitch_bend_c, 10, 8320
4, 299680, Pitch_bend_c, 10, 8192
4, 299840, Pitch_bend_c, 10, 8320
4, 300000, Pitch_bend_c, 10, 8192
4, 300000, Pitch_bend_c, 10, 8320
4, 300000, Pitch_bend_c, 10, 8192
4, 300000, Note_off_c, 10, 62, 95
4, 300960, Note_on_c, 8, 55, 95
4, 301440, Note_off_c, 8, 55, 95
4, 301440, Note_on_c, 10, 57, 70
4, 301600, Pitch_bend_c, 10, 8192
4, 301760, Pitch_bend_c, 10, 8320
4, 301920, Pitch_bend_c, 10, 8192
4, 301920, Pitch_bend_c, 10, 8320
4, 301920, Pitch_bend_c, 10, 8192
4, 301920, Note_off_c, 10, 57, 70
4, 301920, Note_on_c, 10, 57, 95
4, 302080, Pitch_bend_c, 10, 8192
4, 302240, Pitch_bend_c, 10, 8320
4, 302400, Pitch_bend_c, 10, 8192
4, 302560, Pitch_bend_c, 10, 8320
4, 302720, Pitch_bend_c, 10, 8192
4, 302880, Pitch_bend_c, 10, 8320
4, 302880, Pitch_bend_c, 10, 8192
4, 302880, Note_off_c, 10, 57, 95
4, 302880, Note_on_c, 8, 55, 95
4, 303360, Note_off_c, 8, 55, 95
4, 303360, Note_on_c, 10, 53, 95
4, 303520, Pitch_bend_c, 10, 8192
4, 303680, Pitch_bend_c, 10, 8320
4, 303840, Pitch_bend_c, 10, 8192
4, 304000, Pitch_bend_c, 10, 8320
4, 304160, Pitch_bend_c, 10, 8192
4, 304320, Pitch_bend_c, 10, 8320
4, 304480, Pitch_bend_c, 10, 8192
4, 304640, Pitch_bend_c, 10, 8320
4, 304800, Pitch_bend_c, 10, 8192
4, 304960, Pitch_bend_c, 10, 8320
4, 305120, Pitch_bend_c, 10, 8192
4, 305280, Pitch_bend_c, 10, 8320
4, 305280, Pitch_bend_c, 10, 8192
4, 305280, Note_off_c, 10, 53, 95
4, 306240, Note_on_c, 10, 53, 95
4, 306400, Pitch_bend_c, 10, 8192
4, 306560, Pitch_bend_c, 10, 8320
4, 306720, Pitch_bend_c, 10, 8192
4, 306720, Pitch_bend_c, 10, 8320
4, 306720, Pitch_bend_c, 10, 8192
4, 306720, Note_off_c, 10, 53, 95
4, 306720, Note_on_c, 10, 52, 95
4, 306880, Pitch_bend_c, 10, 8192
4, 307040, Pitch_bend_c, 10, 8320
4, 307200, Pitch_bend_c, 10, 8192
4, 307200, Pitch_bend_c, 10, 8320
4, 307200, Pitch_bend_c, 10, 8192
4, 307200, Note_off_c, 10, 52, 95
4, 307200, Note_on_c, 10, 50, 95
4, 307360, Pitch_bend_c, 10, 8192
4, 307520, Pitch_bend_c, 10, 8320
4, 307680, Pitch_bend_c, 10, 8192
4, 307840, Pitch_bend_c, 10, 8320
4, 308000, Pitch_bend_c, 10, 8192
4, 308160, Pitch_bend_c, 10, 8320
4, 308320, Pitch_bend_c, 10, 8192
4, 308480, Pitch_bend_c, 10, 8320
4, 308640, Pitch_bend_c, 10, 8192
4, 308640, Pitch_bend_c, 10, 8320
4, 308640, Pitch_bend_c, 10, 8192
4, 308640, Note_off_c, 10, 50, 95
4, 308640, Note_on_c, 10, 59, 95
4, 308800, Pitch_bend_c, 10, 8192
4, 308960, Pitch_bend_c, 10, 8320
4, 309120, Pitch_bend_c, 10, 8192
4, 309280, Pitch_bend_c, 10, 8320
4, 309440, Pitch_bend_c, 10, 8192
4, 309600, Pitch_bend_c, 10, 8320
4, 309760, Pitch_bend_c, 10, 8192
4, 309920, Pitch_bend_c, 10, 8320
4, 310080, Pitch_bend_c, 10, 8192
4, 310080, Pitch_bend_c, 10, 8320
4, 310080, Pitch_bend_c, 10, 8192
4, 310080, Note_off_c, 10, 59, 95
4, 310560, Note_on_c, 10, 59, 95
4, 310720, Pitch_bend_c, 10, 8192
4, 310880, Pitch_bend_c, 10, 8320
4, 311040, Pitch_bend_c, 10, 8192
4, 311040, Pitch_bend_c, 10, 8320
4, 311040, Pitch_bend_c, 10, 8192
4, 311040, Note_off_c, 10, 59, 95
4, 311040, Note_on_c, 10, 57, 95
4, 311200, Pitch_bend_c, 10, 8192
4, 311360, Pitch_bend_c, 10, 8320
4, 311520, Pitch_bend_c, 10, 8192
4, 311680, Pitch_bend_c, 10, 8320
4, 311840, Pitch_bend_c, 10, 8192
4, 312000, Pitch_bend_c, 10, 8320
4, 312160, Pitch_bend_c, 10, 8192
4, 312320, Pitch_bend_c, 10, 8320
4, 312480, Pitch_bend_c, 10, 8192
4, 312480, Pitch_bend_c, 10, 8320
4, 312480, Pitch_bend_c, 10, 8192
4, 312480, Note_off_c, 10, 57, 95
4, 312480, Note_on_c, 10, 55, 95
4, 312640, Pitch_bend_c, 10, 8192
4, 312800, Pitch_bend_c, 10, 8320
4, 312960, Pitch_bend_c, 10, 8192
4, 313120, Pitch_bend_c, 10, 8320
4, 313280, Pitch_bend_c, 10, 8192
4, 313440, Pitch_bend_c, 10, 8320
4, 313600, Pitch_bend_c, 10, 8192
4, 313760, Pitch_bend_c, 10, 8320
4, 313920, Pitch_bend_c, 10, 8192
4, 313920, Pitch_bend_c, 10, 8320
4, 313920, Pitch_bend_c, 10, 8192
4, 313920, Note_off_c, 10, 55, 95
4, 313920, Note_on_c, 10, 55, 95
4, 314080, Pitch_bend_c, 10, 8192
4, 314240, Pitch_bend_c, 10, 8320
4, 314400, Pitch_bend_c, 10, 8192
4, 314400, Pitch_bend_c, 10, 8320
4, 314400, Pitch_bend_c, 10, 8192
4, 314400, Note_off_c, 10, 55, 95
4, 314400, Note_on_c, 10, 50, 95
4, 314560, Pitch_bend_c, 10, 8192
4, 314720, Pitch_bend_c, 10, 8320
4, 314880, Pitch_bend_c, 10, 8192
4, 314880, Pitch_bend_c, 10, 8320
4, 314880, Pitch_bend_c, 10, 8192
4, 314880, Note_off_c, 10, 50, 95
4, 314880, Note_on_c, 10, 50, 95
4, 315040, Pitch_bend_c, 10, 8192
4, 315200, Pitch_bend_c, 10, 8320
4, 315360, Pitch_bend_c, 10, 8192
4, 315520, Pitch_bend_c, 10, 8320
4, 315680, Pitch_bend_c, 10, 8192
4, 315840, Pitch_bend_c, 10, 8320
4, 315840, Pitch_bend_c, 10, 8192
4, 315840, Note_off_c, 10, 50, 95
4, 315840, Note_on_c, 10, 55, 95
4, 316000, Pitch_bend_c, 10, 8192
4, 316160, Pitch_bend_c, 10, 8320
4, 316320, Pitch_bend_c, 10, 8192
4, 316320, Pitch_bend_c, 10, 8320
4, 316320, Pitch_bend_c, 10, 8192
4, 316320, Note_off_c, 10, 55, 95
4, 316320, Note_on_c, 10, 52, 95
4, 316480, Pitch_bend_c, 10, 8192
4, 316640, Pitch_bend_c, 10, 8320
4, 316800, Pitch_bend_c, 10, 8192
4, 316960, Pitch_bend_c, 10, 8320
4, 317120, Pitch_bend_c, 10, 8192
4, 317280, Pitch_bend_c, 10, 8320
4, 317280, Pitch_bend_c, 10, 8192
4, 317280, Note_off_c, 10, 52, 95
4, 317280, Note_on_c, 10, 55, 95
4, 317440, Pitch_bend_c, 10, 8192
4, 317600, Pitch_bend_c, 10, 8320
4, 317760, Pitch_bend_c, 10, 8192
4, 317760, Pitch_bend_c, 10, 8320
4, 317760, Pitch_bend_c, 10, 8192
4, 317760, Note_off_c, 10, 55, 95
4, 317760, Note_on_c, 8, 52, 95
4, 318000, Note_off_c, 8, 52, 95
4, 318000, Note_on_c, 10, 53, 70
4, 318160, Pitch_bend_c, 10, 8192
4, 318240, Pitch_bend_c, 10, 8320
4, 318240, Pitch_bend_c, 10, 8192
4, 318240, Note_off_c, 10, 53, 70
4, 318240, Note_on_c, 10, 55, 95
4, 318400, Pitch_bend_c, 10, 8192
4, 318560, Pitch_bend_c, 10, 8320
4, 318720, Pitch_bend_c, 10, 8192
4, 318720, Pitch_bend_c, 10, 8320
4, 318720, Pitch_bend_c, 10, 8192
4, 318720, Note_off_c, 10, 55, 95
4, 318720, Note_on_c, 10, 52, 95
4, 318880, Pitch_bend_c, 10, 8192
4, 319040, Pitch_bend_c, 10, 8320
4, 319200, Pitch_bend_c, 10, 8192
4, 319360, Pitch_bend_c, 10, 8320
4, 319520, Pitch_bend_c, 10, 8192
4, 319680, Pitch_bend_c, 10, 8320
4, 319840, Pitch_bend_c, 10, 8192
4, 320000, Pitch_bend_c, 10, 8320
4, 320160, Pitch_bend_c, 10, 8192
4, 320320, Pitch_bend_c, 10, 8320
4, 320480, Pitch_bend_c, 10, 8192
4, 320640, Pitch_bend_c, 10, 8320
4, 320640, Pitch_bend_c, 10, 8192
4, 320640, Note_off_c, 10, 52, 95
4, 322080, Note_on_c, 8, 52, 95
4, 322320, Note_off_c, 8, 52, 95
4, 322560, Note_on_c, 8, 52, 95
4, 324000, Note_off_c, 8, 52, 95
4, 324000, Note_on_c, 8, 52, 95
4, 324480, Note_off_c, 8, 52, 95
4, 324480, Note_on_c, 8, 52, 95
4, 324960, Note_off_c, 8, 52, 95
4, 324960, Note_on_c, 8, 55, 95
4, 325440, Note_off_c, 8, 55, 95
4, 325920, Note_on_c, 8, 57, 95
4, 326400, Note_off_c, 8, 57, 95
4, 326400, Note_on_c, 8, 57, 95
4, 326880, Note_off_c, 8, 57, 95
4, 326880, Note_on_c, 8, 57, 95
4, 327360, Note_off_c, 8, 57, 95
4, 327840, Note_on_c, 8, 57, 95
4, 328320, Note_off_c, 8, 57, 95
4, 328320, Note_on_c, 8, 57, 95
4, 328800, Note_off_c, 8, 57, 95
4, 328800, Note_on_c, 8, 60, 95
4, 329280, Note_off_c, 8, 60, 95
4, 329760, Note_on_c, 8, 57, 95
4, 330240, Note_off_c, 8, 57, 95
4, 330240, Note_on_c, 8, 57, 95
4, 330720, Note_off_c, 8, 57, 95
4, 331680, Note_on_c, 8, 57, 95
4, 332160, Note_off_c, 8, 57, 95
4, 332160, Note_on_c, 8, 57, 95
4, 332640, Note_off_c, 8, 57, 95
4, 332640, Note_on_c, 8, 60, 95
4, 333120, Note_off_c, 8, 60, 95
4, 333600, Note_on_c, 8, 60, 95
4, 334080, Note_off_c, 8, 60, 95
4, 334080, Note_on_c, 8, 60, 95
4, 334560, Note_off_c, 8, 60, 95
4, 334560, Note_on_c, 8, 60, 95
4, 335040, Note_off_c, 8, 60, 95
4, 335520, Note_on_c, 8, 60, 95
4, 336000, Note_off_c, 8, 60, 95
4, 336000, Note_on_c, 8, 60, 95
4, 336480, Note_off_c, 8, 60, 95
4, 336480, Note_on_c, 8, 64, 95
4, 336960, Note_off_c, 8, 64, 95
4, 337440, Note_on_c, 8, 59, 95
4, 337920, Note_off_c, 8, 59, 95
4, 337920, Note_on_c, 8, 62, 95
4, 340800, Note_off_c, 8, 62, 95
4, 340800, Note_on_c, 8, 62, 95
4, 341280, Note_off_c, 8, 62, 95
4, 341280, Note_on_c, 8, 60, 95
4, 341760, Note_off_c, 8, 60, 95
4, 341760, Note_on_c, 8, 59, 95
4, 342240, Note_off_c, 8, 59, 95
4, 343680, Note_on_c, 8, 69, 95
4, 343680, Note_on_c, 8, 65, 95
4, 344320, Note_off_c, 8, 69, 95
4, 344320, Note_off_c, 8, 65, 95
4, 344320, Note_on_c, 8, 69, 95
4, 344320, Note_on_c, 8, 65, 95
4, 344960, Note_off_c, 8, 69, 95
4, 344960, Note_off_c, 8, 65, 95
4, 344960, Note_on_c, 8, 69, 95
4, 344960, Note_on_c, 8, 65, 95
4, 345600, Note_off_c, 8, 69, 95
4, 345600, Note_off_c, 8, 65, 95
4, 345600, Note_on_c, 8, 67, 95
4, 345600, Note_on_c, 8, 64, 95
4, 349440, Note_off_c, 8, 67, 95
4, 349440, Note_off_c, 8, 64, 95
4, 350880, Note_on_c, 8, 72, 95
4, 350880, Note_on_c, 8, 72, 95
4, 351360, Note_off_c, 8, 72, 95
4, 351360, Note_off_c, 8, 72, 95
4, 351840, Note_on_c, 8, 71, 95
4, 351840, Note_on_c, 8, 71, 95
4, 352320, Note_off_c, 8, 71, 95
4, 352320, Note_off_c, 8, 71, 95
4, 352800, Note_on_c, 8, 69, 127
4, 352800, Note_on_c, 8, 69, 127
4, 357120, Note_off_c, 8, 69, 127
4, 357120, Note_off_c, 8, 69, 127
4, 358560, Note_on_c, 8, 67, 95
4, 358560, Note_on_c, 8, 67, 95
4, 359040, Note_off_c, 8, 67, 95
4, 359040, Note_off_c, 8, 67, 95
4, 359520, Note_on_c, 8, 67, 95
4, 359520, Note_on_c, 8, 67, 95
4, 360000, Note_off_c, 8, 67, 95
4, 360000, Note_off_c, 8, 67, 95
4, 360480, Note_on_c, 8, 72, 95
4, 360480, Note_on_c, 8, 72, 127
4, 364800, Note_off_c, 8, 72, 95
4, 364800, Note_off_c, 8, 72, 127
4, 366240, Note_on_c, 8, 72, 95
4, 366240, Note_on_c, 8, 72, 95
4, 366720, Note_off_c, 8, 72, 95
4, 366720, Note_off_c, 8, 72, 95
4, 367200, Note_on_c, 8, 71, 95
4, 367200, Note_on_c, 8, 71, 95
4, 367680, Note_off_c, 8, 71, 95
4, 367680, Note_off_c, 8, 71, 95
4, 368160, Note_on_c, 8, 69, 127
4, 368160, Note_on_c, 8, 69, 127
4, 372480, Note_off_c, 8, 69, 127
4, 372480, Note_off_c, 8, 69, 127
4, 373920, Note_on_c, 8, 67, 95
4, 373920, Note_on_c, 8, 67, 95
4, 374400, Note_off_c, 8, 67, 95
4, 374400, Note_off_c, 8, 67, 95
4, 374880, Note_on_c, 8, 67, 95
4, 374880, Note_on_c, 8, 67, 95
4, 375360, Note_off_c, 8, 67, 95
4, 375360, Note_off_c, 8, 67, 95
4, 375840, Note_on_c, 8, 67, 95
4, 375840, Note_on_c, 8, 67, 127
4, 376320, Note_off_c, 8, 67, 95
4, 376320, Note_off_c, 8, 67, 127
4, 376320, Note_on_c, 8, 65, 95
4, 376320, Note_on_c, 8, 65, 95
4, 380160, Note_off_c, 8, 65, 95
4, 380160, Note_off_c, 8, 65, 95
4, 380160, Note_on_c, 8, 67, 95
4, 380160, Note_on_c, 8, 67, 95
4, 384000, Note_off_c, 8, 67, 95
4, 384000, Note_off_c, 8, 67, 95
4, 444960, Note_on_c, 10, 55, 95
4, 445120, Pitch_bend_c, 10, 8192
4, 445280, Pitch_bend_c, 10, 8320
4, 445440, Pitch_bend_c, 10, 8192
4, 445440, Pitch_bend_c, 10, 8320
4, 445440, Pitch_bend_c, 10, 8192
4, 445440, Note_off_c, 10, 55, 95
4, 445440, Note_on_c, 10, 60, 95
4, 445600, Pitch_bend_c, 10, 8192
4, 445760, Pitch_bend_c, 10, 8320
4, 445920, Pitch_bend_c, 10, 8192
4, 446080, Pitch_bend_c, 10, 8320
4, 446240, Pitch_bend_c, 10, 8192
4, 446400, Pitch_bend_c, 10, 8320
4, 446560, Pitch_bend_c, 10, 8192
4, 446720, Pitch_bend_c, 10, 8320
4, 446880, Pitch_bend_c, 10, 8192
4, 447040, Pitch_bend_c, 10, 8320
4, 447200, Pitch_bend_c, 10, 8192
4, 447360, Pitch_bend_c, 10, 8320
4, 447360, Pitch_bend_c, 10, 8192
4, 447360, Note_off_c, 10, 60, 95
4, 447360, Note_on_c, 10, 60, 95
4, 447520, Pitch_bend_c, 10, 8192
4, 447680, Pitch_bend_c, 10, 8320
4, 447840, Pitch_bend_c, 10, 8192
4, 448000, Pitch_bend_c, 10, 8320
4, 448000, Pitch_bend_c, 10, 8192
4, 448000, Note_off_c, 10, 60, 95
4, 448000, Note_on_c, 10, 62, 95
4, 448160, Pitch_bend_c, 10, 8192
4, 448320, Pitch_bend_c, 10, 8320
4, 448480, Pitch_bend_c, 10, 8192
4, 448640, Pitch_bend_c, 10, 8320
4, 448640, Pitch_bend_c, 10, 8192
4, 448640, Note_off_c, 10, 62, 95
4, 448640, Pitch_bend_c, 10, 8192
4, 448640, Note_on_c, 10, 64, 95
4, 448690, Pitch_bend_c, 10, 8064
4, 448740, Pitch_bend_c, 10, 7936
4, 448790, Pitch_bend_c, 10, 7808
4, 448840, Pitch_bend_c, 10, 7680
4, 448890, Pitch_bend_c, 10, 7552
4, 448940, Pitch_bend_c, 10, 7424
4, 448990, Pitch_bend_c, 10, 7296
4, 449040, Pitch_bend_c, 10, 7168
4, 449090, Pitch_bend_c, 10, 7040
4, 449140, Pitch_bend_c, 10, 6912
4, 449190, Pitch_bend_c, 10, 6784
4, 449200, Pitch_bend_c, 10, 6784
4, 449250, Pitch_bend_c, 10, 6912
4, 449280, Note_on_c, 10, 59, 47
4, 449300, Pitch_bend_c, 10, 7040
4, 449350, Pitch_bend_c, 10, 7168
4, 449400, Pitch_bend_c, 10, 7296
4, 449440, Pitch_bend_c, 10, 8192
4, 449450, Pitch_bend_c, 10, 7424
4, 449500, Pitch_bend_c, 10, 7552
4, 449550, Pitch_bend_c, 10, 7680
4, 449600, Pitch_bend_c, 10, 7808
4, 449600, Pitch_bend_c, 10, 8320
4, 449650, Pitch_bend_c, 10, 7936
4, 449700, Pitch_bend_c, 10, 8064
4, 449750, Pitch_bend_c, 10, 8192
4, 449760, Pitch_bend_c, 10, 8192
4, 449760, Pitch_bend_c, 10, 8192
4, 449760, Note_off_c, 10, 64, 95
4, 449760, Pitch_bend_c, 10, 8192
4, 449760, Pitch_bend_c, 10, 8320
4, 449760, Pitch_bend_c, 10, 8192
4, 449760, Note_off_c, 10, 59, 47
4, 449760, Note_on_c, 10, 59, 47
4, 449920, Pitch_bend_c, 10, 8192
4, 450080, Pitch_bend_c, 10, 8320
4, 450240, Pitch_bend_c, 10, 8192
4, 450240, Pitch_bend_c, 10, 8320
4, 450240, Pitch_bend_c, 10, 8192
4, 450240, Note_off_c, 10, 59, 47
4, 450240, Note_on_c, 10, 59, 95
4, 450400, Pitch_bend_c, 10, 8192
4, 450560, Pitch_bend_c, 10, 8320
4, 450720, Pitch_bend_c, 10, 8192
4, 450880, Pitch_bend_c, 10, 8320
4, 451040, Pitch_bend_c, 10, 8192
4, 451200, Pitch_bend_c, 10, 8320
4, 451200, Pitch_bend_c, 10, 8192
4, 451200, Note_off_c, 10, 59, 95
4, 451200, Note_on_c, 10, 60, 95
4, 451360, Pitch_bend_c, 10, 8192
4, 451520, Pitch_bend_c, 10, 8320
4, 451680, Pitch_bend_c, 10, 8192
4, 451840, Pitch_bend_c, 10, 8320
4, 452000, Pitch_bend_c, 10, 8192
4, 452160, Pitch_bend_c, 10, 8320
4, 452160, Pitch_bend_c, 10, 8192
4, 452160, Note_off_c, 10, 60, 95
4, 452160, Note_on_c, 10, 62, 95
4, 452320, Pitch_bend_c, 10, 8192
4, 452480, Pitch_bend_c, 10, 8320
4, 452640, Pitch_bend_c, 10, 8192
4, 452800, Pitch_bend_c, 10, 8320
4, 452960, Pitch_bend_c, 10, 8192
4, 453120, Pitch_bend_c, 10, 8320
4, 453280, Pitch_bend_c, 10, 8192
4, 453440, Pitch_bend_c, 10, 8320
4, 453600, Pitch_bend_c, 10, 8192
4, 453600, Pitch_bend_c, 10, 8320
4, 453600, Pitch_bend_c, 10, 8192
4, 453600, Note_off_c, 10, 62, 95
4, 454560, Note_on_c, 8, 55, 95
4, 455040, Note_off_c, 8, 55, 95
4, 455040, Note_on_c, 10, 57, 70
4, 455200, Pitch_bend_c, 10, 8192
4, 455360, Pitch_bend_c, 10, 8320
4, 455520, Pitch_bend_c, 10, 8192
4, 455520, Pitch_bend_c, 10, 8320
4, 455520, Pitch_bend_c, 10, 8192
4, 455520, Note_off_c, 10, 57, 70
4, 455520, Note_on_c, 10, 57, 95
4, 455680, Pitch_bend_c, 10, 8192
4, 455840, Pitch_bend_c, 10, 8320
4, 456000, Pitch_bend_c, 10, 8192
4, 456160, Pitch_bend_c, 10, 8320
4, 456320, Pitch_bend_c, 10, 8192
4, 456480, Pitch_bend_c, 10, 8320
4, 456480, Pitch_bend_c, 10, 8192
4, 456480, Note_off_c, 10, 57, 95
4, 456480, Note_on_c, 8, 55, 95
4, 456960, Note_off_c, 8, 55, 95
4, 456960, Note_on_c, 10, 53, 95
4, 457120, Pitch_bend_c, 10, 8192
4, 457280, Pitch_bend_c, 10, 8320
4, 457440, Pitch_bend_c, 10, 8192
4, 457600, Pitch_bend_c, 10, 8320
4, 457760, Pitch_bend_c, 10, 8192
4, 457920, Pitch_bend_c, 10, 8320
4, 458080, Pitch_bend_c, 10, 8192
4, 458240, Pitch_bend_c, 10, 8320
4, 458400, Pitch_bend_c, 10, 8192
4, 458560, Pitch_bend_c, 10, 8320
4, 458720, Pitch_bend_c, 10, 8192
4, 458880, Pitch_bend_c, 10, 8320
4, 458880, Pitch_bend_c, 10, 8192
4, 458880, Note_off_c, 10, 53, 95
4, 459840, Note_on_c, 10, 53, 95
4, 460000, Pitch_bend_c, 10, 8192
4, 460160, Pitch_bend_c, 10, 8320
4, 460320, Pitch_bend_c, 10, 8192
4, 460320, Pitch_bend_c, 10, 8320
4, 460320, Pitch_bend_c, 10, 8192
4, 460320, Note_off_c, 10, 53, 95
4, 460320, Note_on_c, 10, 52, 95
4, 460480, Pitch_bend_c, 10, 8192
4, 460640, Pitch_bend_c, 10, 8320
4, 460800, Pitch_bend_c, 10, 8192
4, 460800, Pitch_bend_c, 10, 8320
4, 460800, Pitch_bend_c, 10, 8192
4, 460800, Note_off_c, 10, 52, 95
4, 460800, Note_on_c, 10, 50, 95
4, 460960, Pitch_bend_c, 10, 8192
4, 461120, Pitch_bend_c, 10, 8320
4, 461280, Pitch_bend_c, 10, 8192
4, 461440, Pitch_bend_c, 10, 8320
4, 461600, Pitch_bend_c, 10, 8192
4, 461760, Pitch_bend_c, 10, 8320
4, 461920, Pitch_bend_c, 10, 8192
4, 462080, Pitch_bend_c, 10, 8320
4, 462240, Pitch_bend_c, 10, 8192
4, 462240, Pitch_bend_c, 10, 8320
4, 462240, Pitch_bend_c, 10, 8192
4, 462240, Note_off_c, 10, 50, 95
4, 462240, Note_on_c, 10, 59, 95
4, 462400, Pitch_bend_c, 10, 8192
4, 462560, Pitch_bend_c, 10, 8320
4, 462720, Pitch_bend_c, 10, 8192
4, 462880, Pitch_bend_c, 10, 8320
4, 463040, Pitch_bend_c, 10, 8192
4, 463200, Pitch_bend_c, 10, 8320
4, 463360, Pitch_bend_c, 10, 8192
4, 463520, Pitch_bend_c, 10, 8320
4, 463680, Pitch_bend_c, 10, 8192
4, 463680, Pitch_bend_c, 10, 8320
4, 463680, Pitch_bend_c, 10, 8192
4, 463680, Note_off_c, 10, 59, 95
4, 464160, Note_on_c, 10, 59, 95
4, 464320, Pitch_bend_c, 10, 8192
4, 464480, Pitch_bend_c, 10, 8320
4, 464640, Pitch_bend_c, 10, 8192
4, 464640, Pitch_bend_c, 10, 8320
4, 464640, Pitch_bend_c, 10, 8192
4, 464640, Note_off_c, 10, 59, 95
4, 464640, Note_on_c, 10, 57, 95
4, 464800, Pitch_bend_c, 10, 8192
4, 464960, Pitch_bend_c, 10, 8320
4, 465120, Pitch_bend_c, 10, 8192
4, 465280, Pitch_bend_c, 10, 8320
4, 465440, Pitch_bend_c, 10, 8192
4, 465600, Pitch_bend_c, 10, 8320
4, 465760, Pitch_bend_c, 10, 8192
4, 465920, Pitch_bend_c, 10, 8320
4, 466080, Pitch_bend_c, 10, 8192
4, 466080, Pitch_bend_c, 10, 8320
4, 466080, Pitch_bend_c, 10, 8192
4, 466080, Note_off_c, 10, 57, 95
4, 466080, Note_on_c, 10, 55, 95
4, 466240, Pitch_bend_c, 10, 8192
4, 466400, Pitch_bend_c, 10, 8320
4, 466560, Pitch_bend_c, 10, 8192
4, 466720, Pitch_bend_c, 10, 8320
4, 466880, Pitch_bend_c, 10, 8192
4, 467040, Pitch_bend_c, 10, 8320
4, 467200, Pitch_bend_c, 10, 8192
4, 467360, Pitch_bend_c, 10, 8320
4, 467520, Pitch_bend_c, 10, 8192
4, 467520, Pitch_bend_c, 10, 8320
4, 467520, Pitch_bend_c, 10, 8192
4, 467520, Note_off_c, 10, 55, 95
4, 467520, Note_on_c, 10, 55, 95
4, 467680, Pitch_bend_c, 10, 8192
4, 467840, Pitch_bend_c, 10, 8320
4, 468000, Pitch_bend_c, 10, 8192
4, 468000, Pitch_bend_c, 10, 8320
4, 468000, Pitch_bend_c, 10, 8192
4, 468000, Note_off_c, 10, 55, 95
4, 468000, Note_on_c, 10, 50, 95
4, 468160, Pitch_bend_c, 10, 8192
4, 468320, Pitch_bend_c, 10, 8320
4, 468480, Pitch_bend_c, 10, 8192
4, 468480, Pitch_bend_c, 10, 8320
4, 468480, Pitch_bend_c, 10, 8192
4, 468480, Note_off_c, 10, 50, 95
4, 468480, Note_on_c, 10, 50, 95
4, 468640, Pitch_bend_c, 10, 8192
4, 468800, Pitch_bend_c, 10, 8320
4, 468960, Pitch_bend_c, 10, 8192
4, 469120, Pitch_bend_c, 10, 8320
4, 469280, Pitch_bend_c, 10, 8192
4, 469440, Pitch_bend_c, 10, 8320
4, 469440, Pitch_bend_c, 10, 8192
4, 469440, Note_off_c, 10, 50, 95
4, 469440, Note_on_c, 10, 55, 95
4, 469600, Pitch_bend_c, 10, 8192
4, 469760, Pitch_bend_c, 10, 8320
4, 469920, Pitch_bend_c, 10, 8192
4, 469920, Pitch_bend_c, 10, 8320
4, 469920, Pitch_bend_c, 10, 8192
4, 469920, Note_off_c, 10, 55, 95
4, 469920, Note_on_c, 10, 52, 95
4, 470080, Pitch_bend_c, 10, 8192
4, 470240, Pitch_bend_c, 10, 8320
4, 470400, Pitch_bend_c, 10, 8192
4, 470560, Pitch_bend_c, 10, 8320
4, 470720, Pitch_bend_c, 10, 8192
4, 470880, Pitch_bend_c, 10, 8320
4, 470880, Pitch_bend_c, 10, 8192
4, 470880, Note_off_c, 10, 52, 95
4, 470880, Note_on_c, 10, 55, 95
4, 471040, Pitch_bend_c, 10, 8192
4, 471200, Pitch_bend_c, 10, 8320
4, 471360, Pitch_bend_c, 10, 8192
4, 471360, Pitch_bend_c, 10, 8320
4, 471360, Pitch_bend_c, 10, 8192
4, 471360, Note_off_c, 10, 55, 95
4, 471360, Note_on_c, 8, 52, 95
4, 471600, Note_off_c, 8, 52, 95
4, 471600, Note_on_c, 10, 53, 70
4, 471760, Pitch_bend_c, 10, 8192
4, 471840, Pitch_bend_c, 10, 8320
4, 471840, Pitch_bend_c, 10, 8192
4, 471840, Note_off_c, 10, 53, 70
4, 471840, Note_on_c, 10, 55, 95
4, 472000, Pitch_bend_c, 10, 8192
4, 472160, Pitch_bend_c, 10, 8320
4, 472320, Pitch_bend_c, 10, 8192
4, 472320, Pitch_bend_c, 10, 8320
4, 472320, Pitch_bend_c, 10, 8192
4, 472320, Note_off_c, 10, 55, 95
4, 472320, Note_on_c, 10, 52, 95
4, 472480, Pitch_bend_c, 10, 8192
4, 472640, Pitch_bend_c, 10, 8320
4, 472800, Pitch_bend_c, 10, 8192
4, 472960, Pitch_bend_c, 10, 8320
4, 473120, Pitch_bend_c, 10, 8192
4, 473280, Pitch_bend_c, 10, 8320
4, 473440, Pitch_bend_c, 10, 8192
4, 473600, Pitch_bend_c, 10, 8320
4, 473760, Pitch_bend_c, 10, 8192
4, 473920, Pitch_bend_c, 10, 8320
4, 474080, Pitch_bend_c, 10, 8192
4, 474240, Pitch_bend_c, 10, 8320
4, 474240, Pitch_bend_c, 10, 8192
4, 474240, Note_off_c, 10, 52, 95
4, 475680, Note_on_c, 8, 55, 95
4, 476160, Note_off_c, 8, 55, 95
4, 476160, Note_on_c, 10, 60, 95
4, 476320, Pitch_bend_c, 10, 8192
4, 476480, Pitch_bend_c, 10, 8320
4, 476640, Pitch_bend_c, 10, 8192
4, 476800, Pitch_bend_c, 10, 8320
4, 476960, Pitch_bend_c, 10, 8192
4, 477120, Pitch_bend_c, 10, 8320
4, 477280, Pitch_bend_c, 10, 8192
4, 477440, Pitch_bend_c, 10, 8320
4, 477600, Pitch_bend_c, 10, 8192
4, 477760, Pitch_bend_c, 10, 8320
4, 477920, Pitch_bend_c, 10, 8192
4, 478080, Pitch_bend_c, 10, 8320
4, 478080, Pitch_bend_c, 10, 8192
4, 478080, Note_off_c, 10, 60, 95
4, 478080, Note_on_c, 10, 60, 95
4, 478240, Pitch_bend_c, 10, 8192
4, 478400, Pitch_bend_c, 10, 8320
4, 478560, Pitch_bend_c, 10, 8192
4, 478720, Pitch_bend_c, 10, 8320
4, 478720, Pitch_bend_c, 10, 8192
4, 478720, Note_off_c, 10, 60, 95
4, 478720, Note_on_c, 10, 62, 95
4, 478880, Pitch_bend_c, 10, 8192
4, 479040, Pitch_bend_c, 10, 8320
4, 479200, Pitch_bend_c, 10, 8192
4, 479360, Pitch_bend_c, 10, 8320
4, 479360, Pitch_bend_c, 10, 8192
4, 479360, Note_off_c, 10, 62, 95
4, 479360, Pitch_bend_c, 10, 8192
4, 479360, Note_on_c, 10, 64, 95
4, 479410, Pitch_bend_c, 10, 8064
4, 479460, Pitch_bend_c, 10, 7936
4, 479510, Pitch_bend_c, 10, 7808
4, 479560, Pitch_bend_c, 10, 7680
4, 479610, Pitch_bend_c, 10, 7552
4, 479660, Pitch_bend_c, 10, 7424
4, 479710, Pitch_bend_c, 10, 7296
4, 479760, Pitch_bend_c, 10, 7168
4, 479810, Pitch_bend_c, 10, 7040
4, 479860, Pitch_bend_c, 10, 6912
4, 479910, Pitch_bend_c, 10, 6784
4, 479920, Pitch_bend_c, 10, 6784
4, 479970, Pitch_bend_c, 10, 6912
4, 480000, Note_on_c, 10, 59, 47
4, 480020, Pitch_bend_c, 10, 7040
4, 480070, Pitch_bend_c, 10, 7168
4, 480120, Pitch_bend_c, 10, 7296
4, 480160, Pitch_bend_c, 10, 8192
4, 480170, Pitch_bend_c, 10, 7424
4, 480220, Pitch_bend_c, 10, 7552
4, 480270, Pitch_bend_c, 10, 7680
4, 480320, Pitch_bend_c, 10, 7808
4, 480320, Pitch_bend_c, 10, 8320
4, 480370, Pitch_bend_c, 10, 7936
4, 480420, Pitch_bend_c, 10, 8064
4, 480470, Pitch_bend_c, 10, 8192
4, 480480, Pitch_bend_c, 10, 8192
4, 480480, Pitch_bend_c, 10, 8192
4, 480480, Note_off_c, 10, 64, 95
4, 480480, Pitch_bend_c, 10, 8192
4, 480480, Pitch_bend_c, 10, 8320
4, 480480, Pitch_bend_c, 10, 8192
4, 480480, Note_off_c, 10, 59, 47
4, 480480, Note_on_c, 10, 59, 47
4, 480640, Pitch_bend_c, 10, 8192
4, 480800, Pitch_bend_c, 10, 8320
4, 480960, Pitch_bend_c, 10, 8192
4, 480960, Pitch_bend_c, 10, 8320
4, 480960, Pitch_bend_c, 10, 8192
4, 480960, Note_off_c, 10, 59, 47
4, 480960, Note_on_c, 10, 59, 95
4, 481120, Pitch_bend_c, 10, 8192
4, 481280, Pitch_bend_c, 10, 8320
4, 481440, Pitch_bend_c, 10, 8192
4, 481600, Pitch_bend_c, 10, 8320
4, 481760, Pitch_bend_c, 10, 8192
4, 481920, Pitch_bend_c, 10, 8320
4, 481920, Pitch_bend_c, 10, 8192
4, 481920, Note_off_c, 10, 59, 95
4, 481920, Note_on_c, 10, 60, 95
4, 482080, Pitch_bend_c, 10, 8192
4, 482240, Pitch_bend_c, 10, 8320
4, 482400, Pitch_bend_c, 10, 8192
4, 482560, Pitch_bend_c, 10, 8320
4, 482720, Pitch_bend_c, 10, 8192
4, 482880, Pitch_bend_c, 10, 8320
4, 482880, Pitch_bend_c, 10, 8192
4, 482880, Note_off_c, 10, 60, 95
4, 482880, Note_on_c, 10, 62, 95
4, 483040, Pitch_bend_c, 10, 8192
4, 483200, Pitch_bend_c, 10, 8320
4, 483360, Pitch_bend_c, 10, 8192
4, 483520, Pitch_bend_c, 10, 8320
4, 483680, Pitch_bend_c, 10, 8192
4, 483840, Pitch_bend_c, 10, 8320
4, 484000, Pitch_bend_c, 10, 8192
4, 484160, Pitch_bend_c, 10, 8320
4, 484320, Pitch_bend_c, 10, 8192
4, 484320, Pitch_bend_c, 10, 8320
4, 484320, Pitch_bend_c, 10, 8192
4, 484320, Note_off_c, 10, 62, 95
4, 485280, Note_on_c, 8, 55, 95
4, 485760, Note_off_c, 8, 55, 95
4, 485760, Note_on_c, 10, 57, 70
4, 485920, Pitch_bend_c, 10, 8192
4, 486080, Pitch_bend_c, 10, 8320
4, 486240, Pitch_bend_c, 10, 8192
4, 486240, Pitch_bend_c, 10, 8320
4, 486240, Pitch_bend_c, 10, 8192
4, 486240, Note_off_c, 10, 57, 70
4, 486240, Note_on_c, 10, 57, 95
4, 486400, Pitch_bend_c, 10, 8192
4, 486560, Pitch_bend_c, 10, 8320
4, 486720, Pitch_bend_c, 10, 8192
4, 486880, Pitch_bend_c, 10, 8320
4, 487040, Pitch_bend_c, 10, 8192
4, 487200, Pitch_bend_c, 10, 8320
4, 487200, Pitch_bend_c, 10, 8192
4, 487200, Note_off_c, 10, 57, 95
4, 487200, Note_on_c, 8, 55, 95
4, 487680, Note_off_c, 8, 55, 95
4, 487680, Note_on_c, 10, 53, 95
4, 487840, Pitch_bend_c, 10, 8192
4, 488000, Pitch_bend_c, 10, 8320
4, 488160, Pitch_bend_c, 10, 8192
4, 488320, Pitch_bend_c, 10, 8320
4, 488480, Pitch_bend_c, 10, 8192
4, 488640, Pitch_bend_c, 10, 8320
4, 488800, Pitch_bend_c, 10, 8192
4, 488960, Pitch_bend_c, 10, 8320
4, 489120, Pitch_bend_c, 10, 8192
4, 489280, Pitch_bend_c, 10, 8320
4, 489440, Pitch_bend_c, 10, 8192
4, 489600, Pitch_bend_c, 10, 8320
4, 489600, Pitch_bend_c, 10, 8192
4, 489600, Note_off_c, 10, 53, 95
4, 490560, Note_on_c, 10, 53, 95
4, 490720, Pitch_bend_c, 10, 8192
4, 490880, Pitch_bend_c, 10, 8320
4, 491040, Pitch_bend_c, 10, 8192
4, 491040, Pitch_bend_c, 10, 8320
4, 491040, Pitch_bend_c, 10, 8192
4, 491040, Note_off_c, 10, 53, 95
4, 491040, Note_on_c, 10, 52, 95
4, 491200, Pitch_bend_c, 10, 8192
4, 491360, Pitch_bend_c, 10, 8320
4, 491520, Pitch_bend_c, 10, 8192
4, 491520, Pitch_bend_c, 10, 8320
4, 491520, Pitch_bend_c, 10, 8192
4, 491520, Note_off_c, 10, 52, 95
4, 491520, Note_on_c, 10, 50, 95
4, 491680, Pitch_bend_c, 10, 8192
4, 491840, Pitch_bend_c, 10, 8320
4, 492000, Pitch_bend_c, 10, 8192
4, 492160, Pitch_bend_c, 10, 8320
4, 492320, Pitch_bend_c, 10, 8192
4, 492480, Pitch_bend_c, 10, 8320
4, 492640, Pitch_bend_c, 10, 8192
4, 492800, Pitch_bend_c, 10, 8320
4, 492960, Pitch_bend_c, 10, 8192
4, 492960, Pitch_bend_c, 10, 8320
4, 492960, Pitch_bend_c, 10, 8192
4, 492960, Note_off_c, 10, 50, 95
4, 492960, Note_on_c, 10, 59, 95
4, 493120, Pitch_bend_c, 10, 8192
4, 493280, Pitch_bend_c, 10, 8320
4, 493440, Pitch_bend_c, 10, 8192
4, 493600, Pitch_bend_c, 10, 8320
4, 493760, Pitch_bend_c, 10, 8192
4, 493920, Pitch_bend_c, 10, 8320
4, 494080, Pitch_bend_c, 10, 8192
4, 494240, Pitch_bend_c, 10, 8320
4, 494400, Pitch_bend_c, 10, 8192
4, 494400, Pitch_bend_c, 10, 8320
4, 494400, Pitch_bend_c, 10, 8192
4, 494400, Note_off_c, 10, 59, 95
4, 494880, Note_on_c, 10, 59, 95
4, 495040, Pitch_bend_c, 10, 8192
4, 495200, Pitch_bend_c, 10, 8320
4, 495360, Pitch_bend_c, 10, 8192
4, 495360, Pitch_bend_c, 10, 8320
4, 495360, Pitch_bend_c, 10, 8192
4, 495360, Note_off_c, 10, 59, 95
4, 495360, Note_on_c, 10, 57, 95
4, 495520, Pitch_bend_c, 10, 8192
4, 495680, Pitch_bend_c, 10, 8320
4, 495840, Pitch_bend_c, 10, 8192
4, 496000, Pitch_bend_c, 10, 8320
4, 496160, Pitch_bend_c, 10, 8192
4, 496320, Pitch_bend_c, 10, 8320
4, 496480, Pitch_bend_c, 10, 8192
4, 496640, Pitch_bend_c, 10, 8320
4, 496800, Pitch_bend_c, 10, 8192
4, 496800, Pitch_bend_c, 10, 8320
4, 496800, Pitch_bend_c, 10, 8192
4, 496800, Note_off_c, 10, 57, 95
4, 496800, Note_on_c, 10, 55, 95
4, 496960, Pitch_bend_c, 10, 8192
4, 497120, Pitch_bend_c, 10, 8320
4, 497280, Pitch_bend_c, 10, 8192
4, 497440, Pitch_bend_c, 10, 8320
4, 497600, Pitch_bend_c, 10, 8192
4, 497760, Pitch_bend_c, 10, 8320
4, 497920, Pitch_bend_c, 10, 8192
4, 498080, Pitch_bend_c, 10, 8320
4, 498240, Pitch_bend_c, 10, 8192
4, 498240, Pitch_bend_c, 10, 8320
4, 498240, Pitch_bend_c, 10, 8192
4, 498240, Note_off_c, 10, 55, 95
4, 498240, Note_on_c, 10, 55, 95
4, 498400, Pitch_bend_c, 10, 8192
4, 498560, Pitch_bend_c, 10, 8320
4, 498720, Pitch_bend_c, 10, 8192
4, 498720, Pitch_bend_c, 10, 8320
4, 498720, Pitch_bend_c, 10, 8192
4, 498720, Note_off_c, 10, 55, 95
4, 498720, Note_on_c, 10, 50, 95
4, 498880, Pitch_bend_c, 10, 8192
4, 499040, Pitch_bend_c, 10, 8320
4, 499200, Pitch_bend_c, 10, 8192
4, 499200, Pitch_bend_c, 10, 8320
4, 499200, Pitch_bend_c, 10, 8192
4, 499200, Note_off_c, 10, 50, 95
4, 499200, Note_on_c, 10, 50, 95
4, 499360, Pitch_bend_c, 10, 8192
4, 499520, Pitch_bend_c, 10, 8320
4, 499680, Pitch_bend_c, 10, 8192
4, 499840, Pitch_bend_c, 10, 8320
4, 500000, Pitch_bend_c, 10, 8192
4, 500160, Pitch_bend_c, 10, 8320
4, 500160, Pitch_bend_c, 10, 8192
4, 500160, Note_off_c, 10, 50, 95
4, 500160, Note_on_c, 10, 55, 95
4, 500320, Pitch_bend_c, 10, 8192
4, 500480, Pitch_bend_c, 10, 8320
4, 500640, Pitch_bend_c, 10, 8192
4, 500640, Pitch_bend_c, 10, 8320
4, 500640, Pitch_bend_c, 10, 8192
4, 500640, Note_off_c, 10, 55, 95
4, 500640, Note_on_c, 10, 52, 95
4, 500800, Pitch_bend_c, 10, 8192
4, 500960, Pitch_bend_c, 10, 8320
4, 501120, Pitch_bend_c, 10, 8192
4, 501280, Pitch_bend_c, 10, 8320
4, 501440, Pitch_bend_c, 10, 8192
4, 501600, Pitch_bend_c, 10, 8320
4, 501600, Pitch_bend_c, 10, 8192
4, 501600, Note_off_c, 10, 52, 95
4, 501600, Note_on_c, 10, 55, 95
4, 501760, Pitch_bend_c, 10, 8192
4, 501920, Pitch_bend_c, 10, 8320
4, 502080, Pitch_bend_c, 10, 8192
4, 502080, Pitch_bend_c, 10, 8320
4, 502080, Pitch_bend_c, 10, 8192
4, 502080, Note_off_c, 10, 55, 95
4, 502080, Note_on_c, 8, 52, 95
4, 502320, Note_off_c, 8, 52, 95
4, 502320, Note_on_c, 10, 53, 70
4, 502480, Pitch_bend_c, 10, 8192
4, 502560, Pitch_bend_c, 10, 8320
4, 502560, Pitch_bend_c, 10, 8192
4, 502560, Note_off_c, 10, 53, 70
4, 502560, Note_on_c, 10, 55, 95
4, 502720, Pitch_bend_c, 10, 8192
4, 502880, Pitch_bend_c, 10, 8320
4, 503040, Pitch_bend_c, 10, 8192
4, 503040, Pitch_bend_c, 10, 8320
4, 503040, Pitch_bend_c, 10, 8192
4, 503040, Note_off_c, 10, 55, 95
4, 503040, Note_on_c, 10, 52, 95
4, 503200, Pitch_bend_c, 10, 8192
4, 503360, Pitch_bend_c, 10, 8320
4, 503520, Pitch_bend_c, 10, 8192
4, 503680, Pitch_bend_c, 10, 8320
4, 503840, Pitch_bend_c, 10, 8192
4, 504000, Pitch_bend_c, 10, 8320
4, 504160, Pitch_bend_c, 10, 8192
4, 504320, Pitch_bend_c, 10, 8320
4, 504480, Pitch_bend_c, 10, 8192
4, 504640, Pitch_bend_c, 10, 8320
4, 504800, Pitch_bend_c, 10, 8192
4, 504960, Pitch_bend_c, 10, 8320
4, 504960, Pitch_bend_c, 10, 8192
4, 504960, Note_off_c, 10, 52, 95
4, 506400, Note_on_c, 8, 52, 95
4, 506640, Note_off_c, 8, 52, 95
4, 506880, Note_on_c, 8, 52, 95
4, 508320, Note_off_c, 8, 52, 95
4, 508320, Note_on_c, 8, 52, 95
4, 508800, Note_off_c, 8, 52, 95
4, 508800, Note_on_c, 8, 52, 95
4, 509280, Note_off_c, 8, 52, 95
4, 509280, Note_on_c, 8, 55, 95
4, 509760, Note_off_c, 8, 55, 95
4, 510240, Note_on_c, 8, 57, 95
4, 510720, Note_off_c, 8, 57, 95
4, 510720, Note_on_c, 8, 57, 95
4, 511200, Note_off_c, 8, 57, 95
4, 511200, Note_on_c, 8, 57, 95
4, 511680, Note_off_c, 8, 57, 95
4, 512160, Note_on_c, 8, 57, 95
4, 512640, Note_off_c, 8, 57, 95
4, 512640, Note_on_c, 8, 57, 95
4, 513120, Note_off_c, 8, 57, 95
4, 513120, Note_on_c, 8, 60, 95
4, 513600, Note_off_c, 8, 60, 95
4, 514080, Note_on_c, 8, 57, 95
4, 514560, Note_off_c, 8, 57, 95
4, 514560, Note_on_c, 8, 57, 95
4, 515040, Note_off_c, 8, 57, 95
4, 516000, Note_on_c, 8, 57, 95
4, 516480, Note_off_c, 8, 57, 95
4, 516480, Note_on_c, 8, 57, 95
4, 516960, Note_off_c, 8, 57, 95
4, 516960, Note_on_c, 8, 60, 95
4, 517440, Note_off_c, 8, 60, 95
4, 517920, Note_on_c, 8, 60, 95
4, 518400, Note_off_c, 8, 60, 95
4, 518400, Note_on_c, 8, 60, 95
4, 518880, Note_off_c, 8, 60, 95
4, 518880, Note_on_c, 8, 60, 95
4, 519360, Note_off_c, 8, 60, 95
4, 519840, Note_on_c, 8, 60, 95
4, 520320, Note_off_c, 8, 60, 95
4, 520320, Note_on_c, 8, 60, 95
4, 520800, Note_off_c, 8, 60, 95
4, 520800, Note_on_c, 8, 64, 95
4, 521280, Note_off_c, 8, 64, 95
4, 521760, Note_on_c, 8, 59, 95
4, 522240, Note_off_c, 8, 59, 95
4, 522240, Note_on_c, 8, 62, 95
4, 525120, Note_off_c, 8, 62, 95
4, 525120, Note_on_c, 8, 62, 95
4, 525600, Note_off_c, 8, 62, 95
4, 525600, Note_on_c, 8, 60, 95
4, 526080, Note_off_c, 8, 60, 95
4, 526080, Note_on_c, 8, 59, 95
4, 526560, Note_off_c, 8, 59, 95
4, 528000, Note_on_c, 8, 69, 95
4, 528000, Note_on_c, 8, 65, 95
4, 528640, Note_off_c, 8, 69, 95
4, 528640, Note_off_c, 8, 65, 95
4, 528640, Note_on_c, 8, 69, 95
4, 528640, Note_on_c, 8, 65, 95
4, 529280, Note_off_c, 8, 69, 95
4, 529280, Note_off_c, 8, 65, 95
4, 529280, Note_on_c, 8, 69, 95
4, 529280, Note_on_c, 8, 65, 95
4, 529920, Note_off_c, 8, 69, 95
4, 529920, Note_off_c, 8, 65, 95
4, 529920, Note_on_c, 8, 67, 95
4, 529920, Note_on_c, 8, 64, 95
4, 533760, Note_off_c, 8, 67, 95
4, 533760, Note_off_c, 8, 64, 95
4, 537600, Note_on_c, 8, 60, 95
4, 538080, Note_off_c, 8, 60, 95
4, 538080, Note_on_c, 8, 60, 95
4, 538560, Note_off_c, 8, 60, 95
4, 538560, Note_on_c, 8, 60, 95
4, 539040, Note_off_c, 8, 60, 95
4, 539040, Note_on_c, 8, 60, 95
4, 539520, Note_off_c, 8, 60, 95
4, 539520, Note_on_c, 8, 59, 95
4, 540480, Note_off_c, 8, 59, 95
4, 540480, Note_on_c, 8, 59, 95
4, 540960, Note_off_c, 8, 59, 95
4, 540960, Note_on_c, 8, 59, 95
4, 541440, Note_off_c, 8, 59, 95
4, 541440, Note_on_c, 8, 57, 95
4, 541920, Note_off_c, 8, 57, 95
4, 541920, Note_on_c, 8, 57, 95
4, 542400, Note_off_c, 8, 57, 95
4, 542400, Note_on_c, 8, 57, 95
4, 542880, Note_off_c, 8, 57, 95
4, 542880, Note_on_c, 8, 57, 95
4, 543360, Note_off_c, 8, 57, 95
4, 543360, Note_on_c, 8, 57, 95
4, 544000, Note_off_c, 8, 57, 95
4, 544000, Note_on_c, 8, 59, 95
4, 544640, Note_off_c, 8, 59, 95
4, 544640, Note_on_c, 8, 60, 95
4, 545280, Note_off_c, 8, 60, 95
4, 545280, Note_on_c, 8, 53, 95
4, 549120, Note_off_c, 8, 53, 95
4, 552480, Note_on_c, 8, 50, 95
4, 552960, Note_off_c, 8, 50, 95
4, 552960, Note_on_c, 10, 59, 95
4, 553120, Pitch_bend_c, 10, 8192
4, 553280, Pitch_bend_c, 10, 8320
4, 553440, Pitch_bend_c, 10, 8192
4, 553600, Pitch_bend_c, 10, 8320
4, 553760, Pitch_bend_c, 10, 8192
4, 553920, Pitch_bend_c, 10, 8320
4, 554080, Pitch_bend_c, 10, 8192
4, 554240, Pitch_bend_c, 10, 8320
4, 554400, Pitch_bend_c, 10, 8192
4, 554560, Pitch_bend_c, 10, 8320
4, 554720, Pitch_bend_c, 10, 8192
4, 554880, Pitch_bend_c, 10, 8320
4, 555040, Pitch_bend_c, 10, 8192
4, 555200, Pitch_bend_c, 10, 8320
4, 555360, Pitch_bend_c, 10, 8192
4, 555360, Pitch_bend_c, 10, 8320
4, 555360, Pitch_bend_c, 10, 8192
4, 555360, Note_off_c, 10, 59, 95
4, 555360, Note_on_c, 8, 57, 95
4, 556320, Note_off_c, 8, 57, 95
4, 556320, Note_on_c, 8, 57, 95
4, 556800, Note_off_c, 8, 57, 95
4, 556800, Note_on_c, 8, 55, 95
4, 558720, Note_off_c, 8, 55, 95
4, 558720, Note_on_c, 8, 50, 95
4, 559360, Note_off_c, 8, 50, 95
4, 559360, Note_on_c, 8, 52, 95
4, 560000, Note_off_c, 8, 52, 95
4, 560000, Note_on_c, 8, 53, 95
4, 560640, Note_off_c, 8, 53, 95
4, 560640, Note_on_c, 8, 52, 95
4, 564480, Note_off_c, 8, 52, 95
4, 568320, Note_on_c, 8, 60, 95
4, 568800, Note_off_c, 8, 60, 95
4, 568800, Note_on_c, 8, 60, 95
4, 569280, Note_off_c, 8, 60, 95
4, 569280, Note_on_c, 8, 60, 95
4, 569760, Note_off_c, 8, 60, 95
4, 569760, Note_on_c, 8, 60, 95
4, 570240, Note_off_c, 8, 60, 95
4, 570240, Note_on_c, 8, 59, 95
4, 571200, Note_off_c, 8, 59, 95
4, 571200, Note_on_c, 8, 59, 95
4, 571680, Note_off_c, 8, 59, 95
4, 571680, Note_on_c, 8, 59, 95
4, 572160, Note_off_c, 8, 59, 95
4, 572160, Note_on_c, 8, 57, 95
4, 572640, Note_off_c, 8, 57, 95
4, 572640, Note_on_c, 8, 57, 95
4, 573120, Note_off_c, 8, 57, 95
4, 573120, Note_on_c, 8, 57, 95
4, 573600, Note_off_c, 8, 57, 95
4, 573600, Note_on_c, 8, 57, 95
4, 574080, Note_off_c, 8, 57, 95
4, 574080, Note_on_c, 8, 57, 95
4, 574720, Note_off_c, 8, 57, 95
4, 574720, Note_on_c, 8, 59, 95
4, 575360, Note_off_c, 8, 59, 95
4, 575360, Note_on_c, 8, 60, 95
4, 576000, Note_off_c, 8, 60, 95
4, 576000, Note_on_c, 8, 53, 95
4, 577920, Note_off_c, 8, 53, 95
4, 583200, Note_on_c, 8, 50, 95
4, 583680, Note_off_c, 8, 50, 95
4, 583680, Note_on_c, 10, 59, 95
4, 583840, Pitch_bend_c, 10, 8192
4, 584000, Pitch_bend_c, 10, 8320
4, 584160, Pitch_bend_c, 10, 8192
4, 584320, Pitch_bend_c, 10, 8320
4, 584480, Pitch_bend_c, 10, 8192
4, 584640, Pitch_bend_c, 10, 8320
4, 584800, Pitch_bend_c, 10, 8192
4, 584960, Pitch_bend_c, 10, 8320
4, 585120, Pitch_bend_c, 10, 8192
4, 585280, Pitch_bend_c, 10, 8320
4, 585440, Pitch_bend_c, 10, 8192
4, 585600, Pitch_bend_c, 10, 8320
4, 585760, Pitch_bend_c, 10, 8192
4, 585920, Pitch_bend_c, 10, 8320
4, 586080, Pitch_bend_c, 10, 8192
4, 586080, Pitch_bend_c, 10, 8320
4, 586080, Pitch_bend_c, 10, 8192
4, 586080, Note_off_c, 10, 59, 95
4, 586080, Note_on_c, 8, 57, 95
4, 587040, Note_off_c, 8, 57, 95
4, 587040, Note_on_c, 8, 57, 95
4, 587520, Note_off_c, 8, 57, 95
4, 587520, Note_on_c, 8, 55, 95
4, 589440, Note_off_c, 8, 55, 95
4, 589440, Note_on_c, 8, 50, 95
4, 590080, Note_off_c, 8, 50, 95
4, 590080, Note_on_c, 8, 52, 95
4, 590720, Note_off_c, 8, 52, 95
4, 590720, Note_on_c, 8, 53, 95
4, 591360, Note_off_c, 8, 53, 95
4, 591360, Note_on_c, 8, 52, 95
4, 595200, Note_off_c, 8, 52, 95
4, 596640, Note_on_c, 10, 52, 127
4, 596800, Pitch_bend_c, 10, 8192
4, 596960, Pitch_bend_c, 10, 8320
4, 597120, Pitch_bend_c, 10, 8192
4, 597120, Pitch_bend_c, 10, 8320
4, 597120, Pitch_bend_c, 10, 8192
4, 597120, Note_off_c, 10, 52, 127
4, 597120, Note_on_c, 10, 51, 95
4, 597280, Pitch_bend_c, 10, 8192
4, 597440, Pitch_bend_c, 10, 8320
4, 597600, Pitch_bend_c, 10, 8192
4, 597760, Pitch_bend_c, 10, 8320
4, 597920, Pitch_bend_c, 10, 8192
4, 598080, Pitch_bend_c, 10, 8320
4, 598080, Pitch_bend_c, 10, 8192
4, 598080, Note_off_c, 10, 51, 95
4, 598080, Note_on_c, 10, 51, 127
4, 598240, Pitch_bend_c, 10, 8192
4, 598400, Pitch_bend_c, 10, 8320
4, 598560, Pitch_bend_c, 10, 8192
4, 598560, Pitch_bend_c, 10, 8320
4, 598560, Pitch_bend_c, 10, 8192
4, 598560, Note_off_c, 10, 51, 127
4, 598560, Note_on_c, 10, 52, 95
4, 598720, Pitch_bend_c, 10, 8192
4, 598880, Pitch_bend_c, 10, 8320
4, 599040, Pitch_bend_c, 10, 8192
4, 599200, Pitch_bend_c, 10, 8320
4, 599360, Pitch_bend_c, 10, 8192
4, 599520, Pitch_bend_c, 10, 8320
4, 599520, Pitch_bend_c, 10, 8192
4, 599520, Note_off_c, 10, 52, 95
4, 599520, Note_on_c, 8, 56, 127
4, 602880, Note_off_c, 8, 56, 127
4, 602880, Note_on_c, 8, 52, 95
4, 603840, Note_off_c, 8, 52, 95
4, 603840, Note_on_c, 8, 56, 95
4, 604320, Note_off_c, 8, 56, 95
4, 604320, Note_on_c, 8, 59, 95
4, 605280, Note_off_c, 8, 59, 95
4, 605280, Note_on_c, 8, 62, 95
4, 606240, Note_off_c, 8, 62, 95
4, 606240, Note_on_c, 8, 64, 95
4, 606720, Note_off_c, 8, 64, 95
4, 606720, Note_on_c, 8, 60, 127
4, 607680, Note_off_c, 8, 60, 127
4, 607680, Note_on_c, 8, 62, 102
4, 608160, Note_off_c, 8, 62, 102
4, 608160, Note_on_c, 8, 60, 127
4, 608640, Note_off_c, 8, 60, 127
4, 608640, Note_on_c, 8, 60, 95
4, 613440, Note_off_c, 8, 60, 95
4, 613440, Note_on_c, 8, 57, 127
4, 613920, Note_off_c, 8, 57, 127
4, 613920, Note_on_c, 8, 60, 127
4, 614400, Note_off_c, 8, 60, 127
4, 614400, Note_on_c, 8, 62, 127
4, 614880, Note_off_c, 8, 62, 127
4, 614880, Note_on_c, 8, 65, 127
4, 615360, Note_off_c, 8, 65, 127
4, 616320, Note_on_c, 8, 65, 127
4, 616800, Note_off_c, 8, 65, 127
4, 616800, Note_on_c, 8, 67, 127
4, 617280, Note_off_c, 8, 67, 127
4, 618240, Note_on_c, 8, 62, 127
4, 618880, Note_off_c, 8, 62, 127
4, 618880, Note_on_c, 8, 64, 127
4, 619520, Note_off_c, 8, 64, 127
4, 619520, Note_on_c, 8, 64, 127
4, 621120, Note_off_c, 8, 64, 127
4, 621120, Note_on_c, 8, 57, 127
4, 621600, Note_off_c, 8, 57, 127
4, 621600, Note_on_c, 8, 60, 127
4, 622080, Note_off_c, 8, 60, 127
4, 622080, Note_on_c, 8, 62, 127
4, 622560, Note_off_c, 8, 62, 127
4, 622560, Note_on_c, 8, 65, 127
4, 623040, Note_off_c, 8, 65, 127
4, 624000, Note_on_c, 8, 65, 127
4, 624480, Note_off_c, 8, 65, 127
4, 624480, Note_on_c, 8, 67, 127
4, 624960, Note_off_c, 8, 67, 127
4, 625920, Note_on_c, 8, 62, 127
4, 626560, Note_off_c, 8, 62, 127
4, 626560, Note_on_c, 8, 64, 127
4, 627200, Note_off_c, 8, 64, 127
4, 627200, Note_on_c, 8, 64, 127
4, 628800, Note_off_c, 8, 64, 127
4, 628800, Note_on_c, 8, 52, 127
4, 629280, Note_off_c, 8, 52, 127
4, 629280, Note_on_c, 8, 52, 127
4, 629760, Note_off_c, 8, 52, 127
4, 629760, Note_on_c, 8, 59, 127
4, 631680, Note_off_c, 8, 59, 127
4, 631680, Note_on_c, 8, 59, 127
4, 632160, Note_off_c, 8, 59, 127
4, 632160, Note_on_c, 8, 57, 127
4, 633120, Note_off_c, 8, 57, 127
4, 633120, Note_on_c, 8, 57, 127
4, 633600, Note_off_c, 8, 57, 127
4, 633600, Note_on_c, 8, 55, 95
4, 634560, Note_off_c, 8, 55, 95
4, 634560, Note_on_c, 8, 55, 95
4, 635520, Note_off_c, 8, 55, 95
4, 635520, Note_on_c, 8, 50, 95
4, 636160, Note_off_c, 8, 50, 95
4, 636160, Note_on_c, 8, 52, 95
4, 636800, Note_off_c, 8, 52, 95
4, 636800, Note_on_c, 8, 53, 95
4, 637440, Note_off_c, 8, 53, 95
4, 637440, Note_on_c, 8, 52, 127
4, 641280, Note_off_c, 8, 52, 127
4, 645120, Note_on_c, 8, 60, 95
4, 645600, Note_off_c, 8, 60, 95
4, 645600, Note_on_c, 8, 60, 95
4, 646080, Note_off_c, 8, 60, 95
4, 646080, Note_on_c, 8, 60, 95
4, 646560, Note_off_c, 8, 60, 95
4, 646560, Note_on_c, 8, 60, 95
4, 647040, Note_off_c, 8, 60, 95
4, 647040, Note_on_c, 8, 59, 95
4, 648000, Note_off_c, 8, 59, 95
4, 648000, Note_on_c, 8, 59, 95
4, 648480, Note_off_c, 8, 59, 95
4, 648480, Note_on_c, 8, 59, 95
4, 648960, Note_off_c, 8, 59, 95
4, 648960, Note_on_c, 8, 57, 95
4, 649440, Note_off_c, 8, 57, 95
4, 649440, Note_on_c, 8, 57, 95
4, 649920, Note_off_c, 8, 57, 95
4, 649920, Note_on_c, 8, 57, 95
4, 650400, Note_off_c, 8, 57, 95
4, 650400, Note_on_c, 8, 57, 95
4, 650880, Note_off_c, 8, 57, 95
4, 650880, Note_on_c, 8, 57, 95
4, 651520, Note_off_c, 8, 57, 95
4, 651520, Note_on_c, 8, 59, 95
4, 652160, Note_off_c, 8, 59, 95
4, 652160, Note_on_c, 8, 60, 95
4, 652800, Note_off_c, 8, 60, 95
4, 652800, Note_on_c, 8, 53, 95
4, 656640, Note_off_c, 8, 53, 95
4, 660000, Note_on_c, 8, 50, 95
4, 660480, Note_off_c, 8, 50, 95
4, 660480, Note_on_c, 10, 59, 95
4, 660640, Pitch_bend_c, 10, 8192
4, 660800, Pitch_bend_c, 10, 8320
4, 660960, Pitch_bend_c, 10, 8192
4, 661120, Pitch_bend_c, 10, 8320
4, 661280, Pitch_bend_c, 10, 8192
4, 661440, Pitch_bend_c, 10, 8320
4, 661600, Pitch_bend_c, 10, 8192
4, 661760, Pitch_bend_c, 10, 8320
4, 661920, Pitch_bend_c, 10, 8192
4, 662080, Pitch_bend_c, 10, 8320
4, 662240, Pitch_bend_c, 10, 8192
4, 662400, Pitch_bend_c, 10, 8320
4, 662560, Pitch_bend_c, 10, 8192
4, 662720, Pitch_bend_c, 10, 8320
4, 662880, Pitch_bend_c, 10, 8192
4, 662880, Pitch_bend_c, 10, 8320
4, 662880, Pitch_bend_c, 10, 8192
4, 662880, Note_off_c, 10, 59, 95
4, 662880, Note_on_c, 8, 57, 95
4, 663840, Note_off_c, 8, 57, 95
4, 663840, Note_on_c, 8, 57, 95
4, 664320, Note_off_c, 8, 57, 95
4, 664320, Note_on_c, 8, 55, 95
4, 666240, Note_off_c, 8, 55, 95
4, 666240, Note_on_c, 8, 50, 95
4, 666880, Note_off_c, 8, 50, 95
4, 666880, Note_on_c, 8, 52, 95
4, 667520, Note_off_c, 8, 52, 95
4, 667520, Note_on_c, 8, 53, 95
4, 668160, Note_off_c, 8, 53, 95
4, 668160, Note_on_c, 8, 52, 95
4, 672000, Note_off_c, 8, 52, 95
4, 675840, Note_on_c, 8, 60, 95
4, 676320, Note_off_c, 8, 60, 95
4, 676320, Note_on_c, 8, 60, 95
4, 676800, Note_off_c, 8, 60, 95
4, 676800, Note_on_c, 8, 60, 95
4, 677280, Note_off_c, 8, 60, 95
4, 677280, Note_on_c, 8, 60, 95
4, 677760, Note_off_c, 8, 60, 95
4, 677760, Note_on_c, 8, 59, 95
4, 678720, Note_off_c, 8, 59, 95
4, 678720, Note_on_c, 8, 59, 95
4, 679200, Note_off_c, 8, 59, 95
4, 679200, Note_on_c, 8, 59, 95
4, 679680, Note_off_c, 8, 59, 95
4, 679680, Note_on_c, 8, 57, 95
4, 680160, Note_off_c, 8, 57, 95
4, 680160, Note_on_c, 8, 57, 95
4, 680640, Note_off_c, 8, 57, 95
4, 680640, Note_on_c, 8, 57, 95
4, 681120, Note_off_c, 8, 57, 95
4, 681120, Note_on_c, 8, 57, 95
4, 681600, Note_off_c, 8, 57, 95
4, 681600, Note_on_c, 8, 57, 95
4, 682240, Note_off_c, 8, 57, 95
4, 682240, Note_on_c, 8, 59, 95
4, 682880, Note_off_c, 8, 59, 95
4, 682880, Note_on_c, 8, 60, 95
4, 683520, Note_off_c, 8, 60, 95
4, 683520, Note_on_c, 8, 53, 95
4, 687360, Note_off_c, 8, 53, 95
4, 690720, Note_on_c, 8, 50, 95
4, 691200, Note_off_c, 8, 50, 95
4, 691200, Note_on_c, 10, 59, 95
4, 691360, Pitch_bend_c, 10, 8192
4, 691520, Pitch_bend_c, 10, 8320
4, 691680, Pitch_bend_c, 10, 8192
4, 691840, Pitch_bend_c, 10, 8320
4, 692000, Pitch_bend_c, 10, 8192
4, 692160, Pitch_bend_c, 10, 8320
4, 692320, Pitch_bend_c, 10, 8192
4, 692480, Pitch_bend_c, 10, 8320
4, 692640, Pitch_bend_c, 10, 8192
4, 692800, Pitch_bend_c, 10, 8320
4, 692960, Pitch_bend_c, 10, 8192
4, 693120, Pitch_bend_c, 10, 8320
4, 693280, Pitch_bend_c, 10, 8192
4, 693440, Pitch_bend_c, 10, 8320
4, 693600, Pitch_bend_c, 10, 8192
4, 693600, Pitch_bend_c, 10, 8320
4, 693600, Pitch_bend_c, 10, 8192
4, 693600, Note_off_c, 10, 59, 95
4, 693600, Note_on_c, 8, 57, 95
4, 694560, Note_off_c, 8, 57, 95
4, 694560, Note_on_c, 8, 57, 95
4, 695040, Note_off_c, 8, 57, 95
4, 695040, Note_on_c, 8, 55, 95
4, 695520, Note_off_c, 8, 55, 95
4, 696960, Note_on_c, 8, 69, 95
4, 696960, Note_on_c, 8, 65, 95
4, 697600, Note_off_c, 8, 69, 95
4, 697600, Note_off_c, 8, 65, 95
4, 697600, Note_on_c, 8, 69, 95
4, 697600, Note_on_c, 8, 65, 95
4, 698240, Note_off_c, 8, 69, 95
4, 698240, Note_off_c, 8, 65, 95
4, 698240, Note_on_c, 8, 69, 95
4, 698240, Note_on_c, 8, 65, 95
4, 698880, Note_off_c, 8, 69, 95
4, 698880, Note_off_c, 8, 65, 95
4, 698880, Note_on_c, 8, 67, 95
4, 698880, Note_on_c, 8, 64, 127
4, 702720, Note_off_c, 8, 67, 95
4, 702720, Note_off_c, 8, 64, 127
4, 702720, End_track
5, 0, Start_track
5, 0, Pitch_bend_c, 2, 8192
5, 0, Control_c, 2, 7, 111
5, 0, Control_c, 2, 10, 63
5, 0, Control_c, 2, 93, 127
5, 0, Control_c, 2, 91, 71
5, 0, Control_c, 2, 95, 71
5, 0, Control_c, 2, 92, 31
5, 0, Control_c, 2, 11, 127
5, 0, Program_c, 2, 73
5, 0, Control_c, 3, 7, 111
5, 0, Control_c, 3, 10, 63
5, 0, Control_c, 3, 93, 127
5, 0, Control_c, 3, 91, 71
5, 0, Control_c, 3, 95, 71
5, 0, Control_c, 3, 92, 31
5, 0, Control_c, 3, 11, 127
5, 0, Program_c, 3, 73
5, 61440, Note_on_c, 2, 60, 95
5, 61920, Note_off_c, 2, 60, 95
5, 61920, Note_on_c, 2, 60, 95
5, 62400, Note_off_c, 2, 60, 95
5, 62400, Note_on_c, 2, 60, 95
5, 62880, Note_off_c, 2, 60, 95
5, 62880, Note_on_c, 2, 60, 95
5, 63360, Note_off_c, 2, 60, 95
5, 63360, Note_on_c, 2, 59, 95
5, 64320, Note_off_c, 2, 59, 95
5, 64320, Note_on_c, 2, 59, 95
5, 64800, Note_off_c, 2, 59, 95
5, 64800, Note_on_c, 2, 59, 95
5, 65280, Note_off_c, 2, 59, 95
5, 65280, Note_on_c, 2, 57, 95
5, 65760, Note_off_c, 2, 57, 95
5, 65760, Note_on_c, 2, 57, 95
5, 66240, Note_off_c, 2, 57, 95
5, 66240, Note_on_c, 2, 57, 95
5, 66720, Note_off_c, 2, 57, 95
5, 66720, Note_on_c, 2, 57, 95
5, 67200, Note_off_c, 2, 57, 95
5, 67200, Note_on_c, 2, 57, 95
5, 67840, Note_off_c, 2, 57, 95
5, 67840, Note_on_c, 2, 59, 95
5, 68480, Note_off_c, 2, 59, 95
5, 68480, Note_on_c, 2, 60, 95
5, 69120, Note_off_c, 2, 60, 95
5, 69120, Note_on_c, 2, 53, 95
5, 72960, Note_off_c, 2, 53, 95
5, 76320, Note_on_c, 2, 50, 95
5, 76800, Note_off_c, 2, 50, 95
5, 76800, Note_on_c, 3, 59, 95
5, 76960, Pitch_bend_c, 3, 8192
5, 77120, Pitch_bend_c, 3, 8320
5, 77280, Pitch_bend_c, 3, 8192
5, 77440, Pitch_bend_c, 3, 8320
5, 77600, Pitch_bend_c, 3, 8192
5, 77760, Pitch_bend_c, 3, 8320
5, 77920, Pitch_bend_c, 3, 8192
5, 78080, Pitch_bend_c, 3, 8320
5, 78240, Pitch_bend_c, 3, 8192
5, 78400, Pitch_bend_c, 3, 8320
5, 78560, Pitch_bend_c, 3, 8192
5, 78720, Pitch_bend_c, 3, 8320
5, 78880, Pitch_bend_c, 3, 8192
5, 79040, Pitch_bend_c, 3, 8320
5, 79200, Pitch_bend_c, 3, 8192
5, 79200, Pitch_bend_c, 3, 8320
5, 79200, Pitch_bend_c, 3, 8192
5, 79200, Note_off_c, 3, 59, 95
5, 79200, Note_on_c, 2, 57, 95
5, 80160, Note_off_c, 2, 57, 95
5, 80160, Note_on_c, 2, 57, 95
5, 80640, Note_off_c, 2, 57, 95
5, 80640, Note_on_c, 2, 55, 95
5, 82560, Note_off_c, 2, 55, 95
5, 82560, Note_on_c, 2, 50, 95
5, 83200, Note_off_c, 2, 50, 95
5, 83200, Note_on_c, 2, 52, 95
5, 83840, Note_off_c, 2, 52, 95
5, 83840, Note_on_c, 2, 53, 95
5, 84480, Note_off_c, 2, 53, 95
5, 84480, Note_on_c, 2, 52, 95
5, 88320, Note_off_c, 2, 52, 95
5, 92160, Note_on_c, 2, 60, 95
5, 92640, Note_off_c, 2, 60, 95
5, 92640, Note_on_c, 2, 60, 95
5, 93120, Note_off_c, 2, 60, 95
5, 93120, Note_on_c, 2, 60, 95
5, 93600, Note_off_c, 2, 60, 95
5, 93600, Note_on_c, 2, 60, 95
5, 94080, Note_off_c, 2, 60, 95
5, 94080, Note_on_c, 2, 59, 95
5, 95040, Note_off_c, 2, 59, 95
5, 95040, Note_on_c, 2, 59, 95
5, 95520, Note_off_c, 2, 59, 95
5, 95520, Note_on_c, 2, 59, 95
5, 96000, Note_off_c, 2, 59, 95
5, 96000, Note_on_c, 2, 57, 95
5, 96480, Note_off_c, 2, 57, 95
5, 96480, Note_on_c, 2, 57, 95
5, 96960, Note_off_c, 2, 57, 95
5, 96960, Note_on_c, 2, 57, 95
5, 97440, Note_off_c, 2, 57, 95
5, 97440, Note_on_c, 2, 57, 95
5, 97920, Note_off_c, 2, 57, 95
5, 97920, Note_on_c, 2, 57, 95
5, 98560, Note_off_c, 2, 57, 95
5, 98560, Note_on_c, 2, 59, 95
5, 99200, Note_off_c, 2, 59, 95
5, 99200, Note_on_c, 2, 60, 95
5, 99840, Note_off_c, 2, 60, 95
5, 99840, Note_on_c, 2, 53, 95
5, 101760, Note_off_c, 2, 53, 95
5, 107040, Note_on_c, 2, 50, 95
5, 107520, Note_off_c, 2, 50, 95
5, 107520, Note_on_c, 3, 59, 95
5, 107680, Pitch_bend_c, 3, 8192
5, 107840, Pitch_bend_c, 3, 8320
5, 108000, Pitch_bend_c, 3, 8192
5, 108160, Pitch_bend_c, 3, 8320
5, 108320, Pitch_bend_c, 3, 8192
5, 108480, Pitch_bend_c, 3, 8320
5, 108640, Pitch_bend_c, 3, 8192
5, 108800, Pitch_bend_c, 3, 8320
5, 108960, Pitch_bend_c, 3, 8192
5, 109120, Pitch_bend_c, 3, 8320
5, 109280, Pitch_bend_c, 3, 8192
5, 109440, Pitch_bend_c, 3, 8320
5, 109600, Pitch_bend_c, 3, 8192
5, 109760, Pitch_bend_c, 3, 8320
5, 109920, Pitch_bend_c, 3, 8192
5, 109920, Pitch_bend_c, 3, 8320
5, 109920, Pitch_bend_c, 3, 8192
5, 109920, Note_off_c, 3, 59, 95
5, 109920, Note_on_c, 2, 57, 95
5, 110880, Note_off_c, 2, 57, 95
5, 110880, Note_on_c, 2, 57, 95
5, 111360, Note_off_c, 2, 57, 95
5, 111360, Note_on_c, 2, 55, 95
5, 113280, Note_off_c, 2, 55, 95
5, 113280, Note_on_c, 2, 50, 95
5, 113920, Note_off_c, 2, 50, 95
5, 113920, Note_on_c, 2, 52, 95
5, 114560, Note_off_c, 2, 52, 95
5, 114560, Note_on_c, 2, 53, 95
5, 115200, Note_off_c, 2, 53, 95
5, 115200, Note_on_c, 2, 52, 95
5, 119040, Note_off_c, 2, 52, 95
5, 120480, Note_on_c, 3, 52, 127
5, 120640, Pitch_bend_c, 3, 8192
5, 120800, Pitch_bend_c, 3, 8320
5, 120960, Pitch_bend_c, 3, 8192
5, 120960, Pitch_bend_c, 3, 8320
5, 120960, Pitch_bend_c, 3, 8192
5, 120960, Note_off_c, 3, 52, 127
5, 120960, Note_on_c, 3, 51, 95
5, 121120, Pitch_bend_c, 3, 8192
5, 121280, Pitch_bend_c, 3, 8320
5, 121440, Pitch_bend_c, 3, 8192
5, 121600, Pitch_bend_c, 3, 8320
5, 121760, Pitch_bend_c, 3, 8192
5, 121920, Pitch_bend_c, 3, 8320
5, 121920, Pitch_bend_c, 3, 8192
5, 121920, Note_off_c, 3, 51, 95
5, 121920, Note_on_c, 3, 51, 127
5, 122080, Pitch_bend_c, 3, 8192
5, 122240, Pitch_bend_c, 3, 8320
5, 122400, Pitch_bend_c, 3, 8192
5, 122400, Pitch_bend_c, 3, 8320
5, 122400, Pitch_bend_c, 3, 8192
5, 122400, Note_off_c, 3, 51, 127
5, 122400, Note_on_c, 3, 52, 95
5, 122560, Pitch_bend_c, 3, 8192
5, 122720, Pitch_bend_c, 3, 8320
5, 122880, Pitch_bend_c, 3, 8192
5, 123040, Pitch_bend_c, 3, 8320
5, 123200, Pitch_bend_c, 3, 8192
5, 123360, Pitch_bend_c, 3, 8320
5, 123360, Pitch_bend_c, 3, 8192
5, 123360, Note_off_c, 3, 52, 95
5, 123360, Note_on_c, 2, 56, 127
5, 126720, Note_off_c, 2, 56, 127
5, 126720, Note_on_c, 2, 52, 95
5, 127680, Note_off_c, 2, 52, 95
5, 127680, Note_on_c, 2, 56, 95
5, 128160, Note_off_c, 2, 56, 95
5, 128160, Note_on_c, 2, 59, 95
5, 129120, Note_off_c, 2, 59, 95
5, 129120, Note_on_c, 2, 62, 95
5, 130080, Note_off_c, 2, 62, 95
5, 130080, Note_on_c, 2, 64, 95
5, 130560, Note_off_c, 2, 64, 95
5, 130560, Note_on_c, 2, 60, 127
5, 131520, Note_off_c, 2, 60, 127
5, 131520, Note_on_c, 2, 62, 102
5, 132000, Note_off_c, 2, 62, 102
5, 132000, Note_on_c, 2, 60, 127
5, 132480, Note_off_c, 2, 60, 127
5, 132480, Note_on_c, 2, 60, 95
5, 137280, Note_off_c, 2, 60, 95
5, 137280, Note_on_c, 2, 57, 127
5, 137760, Note_off_c, 2, 57, 127
5, 137760, Note_on_c, 2, 60, 127
5, 138240, Note_off_c, 2, 60, 127
5, 138240, Note_on_c, 2, 62, 127
5, 138720, Note_off_c, 2, 62, 127
5, 138720, Note_on_c, 2, 65, 127
5, 139200, Note_off_c, 2, 65, 127
5, 140160, Note_on_c, 2, 65, 127
5, 140640, Note_off_c, 2, 65, 127
5, 140640, Note_on_c, 2, 67, 127
5, 141120, Note_off_c, 2, 67, 127
5, 142080, Note_on_c, 2, 62, 127
5, 142720, Note_off_c, 2, 62, 127
5, 142720, Note_on_c, 2, 64, 127
5, 143360, Note_off_c, 2, 64, 127
5, 143360, Note_on_c, 2, 64, 127
5, 144960, Note_off_c, 2, 64, 127
5, 144960, Note_on_c, 2, 57, 127
5, 145440, Note_off_c, 2, 57, 127
5, 145440, Note_on_c, 2, 60, 127
5, 145920, Note_off_c, 2, 60, 127
5, 145920, Note_on_c, 2, 62, 127
5, 146400, Note_off_c, 2, 62, 127
5, 146400, Note_on_c, 2, 65, 127
5, 146880, Note_off_c, 2, 65, 127
5, 147840, Note_on_c, 2, 65, 127
5, 148320, Note_off_c, 2, 65, 127
5, 148320, Note_on_c, 2, 67, 127
5, 148800, Note_off_c, 2, 67, 127
5, 149760, Note_on_c, 2, 62, 127
5, 150400, Note_off_c, 2, 62, 127
5, 150400, Note_on_c, 2, 64, 127
5, 151040, Note_off_c, 2, 64, 127
5, 151040, Note_on_c, 2, 64, 127
5, 152640, Note_off_c, 2, 64, 127
5, 152640, Note_on_c, 2, 52, 127
5, 153120, Note_off_c, 2, 52, 127
5, 153120, Note_on_c, 2, 52, 127
5, 153600, Note_off_c, 2, 52, 127
5, 153600, Note_on_c, 2, 59, 127
5, 155520, Note_off_c, 2, 59, 127
5, 155520, Note_on_c, 2, 59, 127
5, 156000, Note_off_c, 2, 59, 127
5, 156000, Note_on_c, 2, 57, 127
5, 156960, Note_off_c, 2, 57, 127
5, 156960, Note_on_c, 2, 57, 127
5, 157440, Note_off_c, 2, 57, 127
5, 157440, Note_on_c, 2, 55, 95
5, 158400, Note_off_c, 2, 55, 95
5, 158400, Note_on_c, 2, 55, 95
5, 159360, Note_off_c, 2, 55, 95
5, 159360, Note_on_c, 2, 50, 95
5, 160000, Note_off_c, 2, 50, 95
5, 160000, Note_on_c, 2, 52, 95
5, 160640, Note_off_c, 2, 52, 95
5, 160640, Note_on_c, 2, 53, 95
5, 161280, Note_off_c, 2, 53, 95
5, 161280, Note_on_c, 2, 52, 127
5, 165120, Note_off_c, 2, 52, 127
5, 168960, Note_on_c, 2, 60, 95
5, 169440, Note_off_c, 2, 60, 95
5, 169440, Note_on_c, 2, 60, 95
5, 169920, Note_off_c, 2, 60, 95
5, 169920, Note_on_c, 2, 60, 95
5, 170400, Note_off_c, 2, 60, 95
5, 170400, Note_on_c, 2, 60, 95
5, 170880, Note_off_c, 2, 60, 95
5, 170880, Note_on_c, 2, 59, 95
5, 171840, Note_off_c, 2, 59, 95
5, 171840, Note_on_c, 2, 59, 95
5, 172320, Note_off_c, 2, 59, 95
5, 172320, Note_on_c, 2, 59, 95
5, 172800, Note_off_c, 2, 59, 95
5, 172800, Note_on_c, 2, 57, 95
5, 173280, Note_off_c, 2, 57, 95
5, 173280, Note_on_c, 2, 57, 95
5, 173760, Note_off_c, 2, 57, 95
5, 173760, Note_on_c, 2, 57, 95
5, 174240, Note_off_c, 2, 57, 95
5, 174240, Note_on_c, 2, 57, 95
5, 174720, Note_off_c, 2, 57, 95
5, 174720, Note_on_c, 2, 57, 95
5, 175360, Note_off_c, 2, 57, 95
5, 175360, Note_on_c, 2, 59, 95
5, 176000, Note_off_c, 2, 59, 95
5, 176000, Note_on_c, 2, 60, 95
5, 176640, Note_off_c, 2, 60, 95
5, 176640, Note_on_c, 2, 53, 95
5, 180480, Note_off_c, 2, 53, 95
5, 183840, Note_on_c, 2, 50, 95
5, 184320, Note_off_c, 2, 50, 95
5, 184320, Note_on_c, 3, 59, 95
5, 184480, Pitch_bend_c, 3, 8192
5, 184640, Pitch_bend_c, 3, 8320
5, 184800, Pitch_bend_c, 3, 8192
5, 184960, Pitch_bend_c, 3, 8320
5, 185120, Pitch_bend_c, 3, 8192
5, 185280, Pitch_bend_c, 3, 8320
5, 185440, Pitch_bend_c, 3, 8192
5, 185600, Pitch_bend_c, 3, 8320
5, 185760, Pitch_bend_c, 3, 8192
5, 185920, Pitch_bend_c, 3, 8320
5, 186080, Pitch_bend_c, 3, 8192
5, 186240, Pitch_bend_c, 3, 8320
5, 186400, Pitch_bend_c, 3, 8192
5, 186560, Pitch_bend_c, 3, 8320
5, 186720, Pitch_bend_c, 3, 8192
5, 186720, Pitch_bend_c, 3, 8320
5, 186720, Pitch_bend_c, 3, 8192
5, 186720, Note_off_c, 3, 59, 95
5, 186720, Note_on_c, 2, 57, 95
5, 187680, Note_off_c, 2, 57, 95
5, 187680, Note_on_c, 2, 57, 95
5, 188160, Note_off_c, 2, 57, 95
5, 188160, Note_on_c, 2, 55, 95
5, 190080, Note_off_c, 2, 55, 95
5, 190080, Note_on_c, 2, 50, 95
5, 190720, Note_off_c, 2, 50, 95
5, 190720, Note_on_c, 2, 52, 95
5, 191360, Note_off_c, 2, 52, 95
5, 191360, Note_on_c, 2, 53, 95
5, 192000, Note_off_c, 2, 53, 95
5, 192000, Note_on_c, 2, 52, 95
5, 195840, Note_off_c, 2, 52, 95
5, 199680, Note_on_c, 2, 48, 95
5, 200160, Note_off_c, 2, 48, 95
5, 200160, Note_on_c, 2, 48, 95
5, 200640, Note_off_c, 2, 48, 95
5, 200640, Note_on_c, 2, 48, 95
5, 201120, Note_off_c, 2, 48, 95
5, 201120, Note_on_c, 2, 48, 95
5, 201600, Note_off_c, 2, 48, 95
5, 201600, Note_on_c, 2, 52, 95
5, 202080, Note_off_c, 2, 52, 95
5, 202080, Note_on_c, 2, 52, 95
5, 202560, Note_off_c, 2, 52, 95
5, 202560, Note_on_c, 2, 52, 95
5, 203040, Note_off_c, 2, 52, 95
5, 203040, Note_on_c, 2, 52, 95
5, 203520, Note_off_c, 2, 52, 95
5, 203520, Note_on_c, 2, 45, 95
5, 204000, Note_off_c, 2, 45, 95
5, 204000, Note_on_c, 2, 45, 95
5, 204480, Note_off_c, 2, 45, 95
5, 204480, Note_on_c, 2, 45, 95
5, 204960, Note_off_c, 2, 45, 95
5, 204960, Note_on_c, 2, 45, 95
5, 205440, Note_off_c, 2, 45, 95
5, 205440, Note_on_c, 2, 45, 95
5, 205920, Note_off_c, 2, 45, 95
5, 205920, Note_on_c, 2, 45, 95
5, 206400, Note_off_c, 2, 45, 95
5, 206400, Note_on_c, 2, 45, 95
5, 206880, Note_off_c, 2, 45, 95
5, 206880, Note_on_c, 2, 45, 95
5, 207360, Note_off_c, 2, 45, 95
5, 207360, Note_on_c, 2, 53, 95
5, 207840, Note_off_c, 2, 53, 95
5, 207840, Note_on_c, 2, 53, 95
5, 208320, Note_off_c, 2, 53, 95
5, 208320, Note_on_c, 2, 53, 95
5, 208800, Note_off_c, 2, 53, 95
5, 208800, Note_on_c, 2, 53, 95
5, 209280, Note_off_c, 2, 53, 95
5, 209280, Note_on_c, 2, 53, 95
5, 209760, Note_off_c, 2, 53, 95
5, 209760, Note_on_c, 2, 53, 95
5, 210240, Note_off_c, 2, 53, 95
5, 210240, Note_on_c, 2, 53, 95
5, 210720, Note_off_c, 2, 53, 95
5, 210720, Note_on_c, 2, 53, 95
5, 211200, Note_off_c, 2, 53, 95
5, 211200, Note_on_c, 2, 50, 95
5, 211680, Note_off_c, 2, 50, 95
5, 211680, Note_on_c, 2, 50, 95
5, 212160, Note_off_c, 2, 50, 95
5, 212160, Note_on_c, 2, 50, 95
5, 212640, Note_off_c, 2, 50, 95
5, 212640, Note_on_c, 2, 50, 95
5, 213120, Note_off_c, 2, 50, 95
5, 213120, Note_on_c, 2, 50, 95
5, 213600, Note_off_c, 2, 50, 95
5, 213600, Note_on_c, 2, 50, 95
5, 214080, Note_off_c, 2, 50, 95
5, 214080, Note_on_c, 2, 50, 95
5, 214560, Note_off_c, 2, 50, 95
5, 214560, Note_on_c, 2, 50, 95
5, 215040, Note_off_c, 2, 50, 95
5, 215040, Note_on_c, 2, 55, 95
5, 215520, Note_off_c, 2, 55, 95
5, 215520, Note_on_c, 2, 55, 95
5, 216000, Note_off_c, 2, 55, 95
5, 216000, Note_on_c, 2, 55, 95
5, 216480, Note_off_c, 2, 55, 95
5, 216480, Note_on_c, 2, 55, 95
5, 216960, Note_off_c, 2, 55, 95
5, 216960, Note_on_c, 2, 55, 95
5, 217440, Note_off_c, 2, 55, 95
5, 217440, Note_on_c, 2, 55, 95
5, 217920, Note_off_c, 2, 55, 95
5, 217920, Note_on_c, 2, 55, 95
5, 218400, Note_off_c, 2, 55, 95
5, 218400, Note_on_c, 2, 55, 95
5, 218880, Note_off_c, 2, 55, 95
5, 218880, Note_on_c, 2, 53, 95
5, 219360, Note_off_c, 2, 53, 95
5, 219360, Note_on_c, 2, 53, 95
5, 219840, Note_off_c, 2, 53, 95
5, 219840, Note_on_c, 2, 53, 95
5, 220320, Note_off_c, 2, 53, 95
5, 220320, Note_on_c, 2, 53, 95
5, 220800, Note_off_c, 2, 53, 95
5, 220800, Note_on_c, 2, 53, 95
5, 221280, Note_off_c, 2, 53, 95
5, 221280, Note_on_c, 2, 53, 95
5, 221760, Note_off_c, 2, 53, 95
5, 221760, Note_on_c, 2, 53, 95
5, 222240, Note_off_c, 2, 53, 95
5, 222240, Note_on_c, 2, 53, 95
5, 222720, Note_off_c, 2, 53, 95
5, 222720, Note_on_c, 2, 48, 95
5, 223200, Note_off_c, 2, 48, 95
5, 223200, Note_on_c, 2, 48, 95
5, 223680, Note_off_c, 2, 48, 95
5, 223680, Note_on_c, 2, 48, 95
5, 224160, Note_off_c, 2, 48, 95
5, 224160, Note_on_c, 2, 48, 95
5, 224640, Note_off_c, 2, 48, 95
5, 224640, Note_on_c, 2, 48, 95
5, 225120, Note_off_c, 2, 48, 95
5, 225120, Note_on_c, 2, 48, 95
5, 225600, Note_off_c, 2, 48, 95
5, 225600, Note_on_c, 2, 48, 95
5, 226080, Note_off_c, 2, 48, 95
5, 226080, Note_on_c, 2, 48, 95
5, 226560, Note_off_c, 2, 48, 95
5, 226560, Note_on_c, 2, 48, 95
5, 227040, Note_off_c, 2, 48, 95
5, 227040, Note_on_c, 2, 48, 95
5, 227520, Note_off_c, 2, 48, 95
5, 227520, Note_on_c, 2, 48, 95
5, 228000, Note_off_c, 2, 48, 95
5, 228000, Note_on_c, 2, 48, 95
5, 228480, Note_off_c, 2, 48, 95
5, 228480, Note_on_c, 2, 48, 95
5, 228960, Note_off_c, 2, 48, 95
5, 228960, Note_on_c, 2, 48, 95
5, 229440, Note_off_c, 2, 48, 95
5, 229440, Note_on_c, 2, 48, 95
5, 229920, Note_off_c, 2, 48, 95
5, 229920, Note_on_c, 2, 48, 95
5, 230400, Note_off_c, 2, 48, 95
5, 230400, Note_on_c, 2, 48, 95
5, 230880, Note_off_c, 2, 48, 95
5, 230880, Note_on_c, 2, 48, 95
5, 231360, Note_off_c, 2, 48, 95
5, 231360, Note_on_c, 2, 48, 95
5, 231840, Note_off_c, 2, 48, 95
5, 231840, Note_on_c, 2, 48, 95
5, 232320, Note_off_c, 2, 48, 95
5, 232320, Note_on_c, 2, 52, 95
5, 232800, Note_off_c, 2, 52, 95
5, 232800, Note_on_c, 2, 52, 95
5, 233280, Note_off_c, 2, 52, 95
5, 233280, Note_on_c, 2, 52, 95
5, 233760, Note_off_c, 2, 52, 95
5, 233760, Note_on_c, 2, 52, 95
5, 234240, Note_off_c, 2, 52, 95
5, 234240, Note_on_c, 2, 45, 95
5, 234720, Note_off_c, 2, 45, 95
5, 234720, Note_on_c, 2, 45, 95
5, 235200, Note_off_c, 2, 45, 95
5, 235200, Note_on_c, 2, 45, 95
5, 235680, Note_off_c, 2, 45, 95
5, 235680, Note_on_c, 2, 45, 95
5, 236160, Note_off_c, 2, 45, 95
5, 236160, Note_on_c, 2, 45, 95
5, 236640, Note_off_c, 2, 45, 95
5, 236640, Note_on_c, 2, 45, 95
5, 237120, Note_off_c, 2, 45, 95
5, 237120, Note_on_c, 2, 45, 95
5, 237600, Note_off_c, 2, 45, 95
5, 237600, Note_on_c, 2, 45, 95
5, 238080, Note_off_c, 2, 45, 95
5, 238080, Note_on_c, 2, 53, 95
5, 238560, Note_off_c, 2, 53, 95
5, 238560, Note_on_c, 2, 53, 95
5, 239040, Note_off_c, 2, 53, 95
5, 239040, Note_on_c, 2, 53, 95
5, 239520, Note_off_c, 2, 53, 95
5, 239520, Note_on_c, 2, 53, 95
5, 240000, Note_off_c, 2, 53, 95
5, 240000, Note_on_c, 2, 53, 95
5, 240480, Note_off_c, 2, 53, 95
5, 240480, Note_on_c, 2, 53, 95
5, 240960, Note_off_c, 2, 53, 95
5, 240960, Note_on_c, 2, 53, 95
5, 241440, Note_off_c, 2, 53, 95
5, 241440, Note_on_c, 2, 53, 95
5, 241920, Note_off_c, 2, 53, 95
5, 241920, Note_on_c, 2, 53, 95
5, 241920, Note_on_c, 2, 50, 95
5, 242400, Note_off_c, 2, 53, 95
5, 242400, Note_off_c, 2, 50, 95
5, 242400, Note_on_c, 2, 53, 95
5, 242400, Note_on_c, 2, 50, 95
5, 242880, Note_off_c, 2, 53, 95
5, 242880, Note_off_c, 2, 50, 95
5, 242880, Note_on_c, 2, 53, 95
5, 242880, Note_on_c, 2, 50, 95
5, 243360, Note_off_c, 2, 53, 95
5, 243360, Note_off_c, 2, 50, 95
5, 243360, Note_on_c, 2, 53, 95
5, 243360, Note_on_c, 2, 50, 95
5, 243840, Note_off_c, 2, 53, 95
5, 243840, Note_off_c, 2, 50, 95
5, 243840, Note_on_c, 2, 53, 95
5, 243840, Note_on_c, 2, 50, 95
5, 244320, Note_off_c, 2, 53, 95
5, 244320, Note_off_c, 2, 50, 95
5, 244320, Note_on_c, 2, 53, 95
5, 244320, Note_on_c, 2, 50, 95
5, 244800, Note_off_c, 2, 53, 95
5, 244800, Note_off_c, 2, 50, 95
5, 244800, Note_on_c, 2, 53, 95
5, 244800, Note_on_c, 2, 50, 95
5, 245280, Note_off_c, 2, 53, 95
5, 245280, Note_off_c, 2, 50, 95
5, 245280, Note_on_c, 2, 53, 95
5, 245280, Note_on_c, 2, 50, 95
5, 245760, Note_off_c, 2, 53, 95
5, 245760, Note_off_c, 2, 50, 95
5, 245760, Note_on_c, 2, 55, 95
5, 246240, Note_off_c, 2, 55, 95
5, 246240, Note_on_c, 2, 55, 95
5, 246720, Note_off_c, 2, 55, 95
5, 246720, Note_on_c, 2, 55, 95
5, 247200, Note_off_c, 2, 55, 95
5, 247200, Note_on_c, 2, 55, 95
5, 247680, Note_off_c, 2, 55, 95
5, 247680, Note_on_c, 2, 55, 95
5, 248160, Note_off_c, 2, 55, 95
5, 248160, Note_on_c, 2, 55, 95
5, 248640, Note_off_c, 2, 55, 95
5, 248640, Note_on_c, 2, 55, 95
5, 249120, Note_off_c, 2, 55, 95
5, 249120, Note_on_c, 2, 55, 95
5, 249600, Note_off_c, 2, 55, 95
5, 249600, Note_on_c, 2, 53, 95
5, 250080, Note_off_c, 2, 53, 95
5, 250080, Note_on_c, 2, 53, 95
5, 250560, Note_off_c, 2, 53, 95
5, 250560, Note_on_c, 2, 53, 95
5, 251040, Note_off_c, 2, 53, 95
5, 251040, Note_on_c, 2, 53, 95
5, 251520, Note_off_c, 2, 53, 95
5, 251520, Note_on_c, 2, 53, 95
5, 252000, Note_off_c, 2, 53, 95
5, 252000, Note_on_c, 2, 53, 95
5, 252480, Note_off_c, 2, 53, 95
5, 252480, Note_on_c, 2, 53, 95
5, 252960, Note_off_c, 2, 53, 95
5, 252960, Note_on_c, 2, 53, 95
5, 253440, Note_off_c, 2, 53, 95
5, 253440, Note_on_c, 2, 48, 95
5, 253920, Note_off_c, 2, 48, 95
5, 253920, Note_on_c, 2, 48, 95
5, 254400, Note_off_c, 2, 48, 95
5, 254400, Note_on_c, 2, 48, 95
5, 254880, Note_off_c, 2, 48, 95
5, 254880, Note_on_c, 2, 48, 95
5, 255360, Note_off_c, 2, 48, 95
5, 255360, Note_on_c, 2, 48, 95
5, 255840, Note_off_c, 2, 48, 95
5, 255840, Note_on_c, 2, 48, 95
5, 256320, Note_off_c, 2, 48, 95
5, 256320, Note_on_c, 2, 48, 95
5, 256800, Note_off_c, 2, 48, 95
5, 256800, Note_on_c, 2, 48, 95
5, 257280, Note_off_c, 2, 48, 95
5, 260640, Note_on_c, 3, 55, 95
5, 260800, Pitch_bend_c, 3, 8192
5, 260960, Pitch_bend_c, 3, 8320
5, 261120, Pitch_bend_c, 3, 8192
5, 261120, Pitch_bend_c, 3, 8320
5, 261120, Pitch_bend_c, 3, 8192
5, 261120, Note_off_c, 3, 55, 95
5, 261120, Note_on_c, 3, 60, 95
5, 261280, Pitch_bend_c, 3, 8192
5, 261440, Pitch_bend_c, 3, 8320
5, 261600, Pitch_bend_c, 3, 8192
5, 261760, Pitch_bend_c, 3, 8320
5, 261920, Pitch_bend_c, 3, 8192
5, 262080, Pitch_bend_c, 3, 8320
5, 262240, Pitch_bend_c, 3, 8192
5, 262400, Pitch_bend_c, 3, 8320
5, 262560, Pitch_bend_c, 3, 8192
5, 262720, Pitch_bend_c, 3, 8320
5, 262880, Pitch_bend_c, 3, 8192
5, 263040, Pitch_bend_c, 3, 8320
5, 263040, Pitch_bend_c, 3, 8192
5, 263040, Note_off_c, 3, 60, 95
5, 263040, Note_on_c, 3, 60, 95
5, 263200, Pitch_bend_c, 3, 8192
5, 263360, Pitch_bend_c, 3, 8320
5, 263520, Pitch_bend_c, 3, 8192
5, 263680, Pitch_bend_c, 3, 8320
5, 263680, Pitch_bend_c, 3, 8192
5, 263680, Note_off_c, 3, 60, 95
5, 263680, Note_on_c, 3, 62, 95
5, 263840, Pitch_bend_c, 3, 8192
5, 264000, Pitch_bend_c, 3, 8320
5, 264160, Pitch_bend_c, 3, 8192
5, 264320, Pitch_bend_c, 3, 8320
5, 264320, Pitch_bend_c, 3, 8192
5, 264320, Note_off_c, 3, 62, 95
5, 264320, Pitch_bend_c, 3, 8192
5, 264320, Note_on_c, 3, 64, 95
5, 264370, Pitch_bend_c, 3, 8064
5, 264420, Pitch_bend_c, 3, 7936
5, 264470, Pitch_bend_c, 3, 7808
5, 264520, Pitch_bend_c, 3, 7680
5, 264570, Pitch_bend_c, 3, 7552
5, 264620, Pitch_bend_c, 3, 7424
5, 264670, Pitch_bend_c, 3, 7296
5, 264720, Pitch_bend_c, 3, 7168
5, 264770, Pitch_bend_c, 3, 7040
5, 264820, Pitch_bend_c, 3, 6912
5, 264870, Pitch_bend_c, 3, 6784
5, 264880, Pitch_bend_c, 3, 6784
5, 264930, Pitch_bend_c, 3, 6912
5, 264960, Note_on_c, 3, 59, 47
5, 264980, Pitch_bend_c, 3, 7040
5, 265030, Pitch_bend_c, 3, 7168
5, 265080, Pitch_bend_c, 3, 7296
5, 265120, Pitch_bend_c, 3, 8192
5, 265130, Pitch_bend_c, 3, 7424
5, 265180, Pitch_bend_c, 3, 7552
5, 265230, Pitch_bend_c, 3, 7680
5, 265280, Pitch_bend_c, 3, 7808
5, 265280, Pitch_bend_c, 3, 8320
5, 265330, Pitch_bend_c, 3, 7936
5, 265380, Pitch_bend_c, 3, 8064
5, 265430, Pitch_bend_c, 3, 8192
5, 265440, Pitch_bend_c, 3, 8192
5, 265440, Pitch_bend_c, 3, 8192
5, 265440, Note_off_c, 3, 64, 95
5, 265440, Pitch_bend_c, 3, 8192
5, 265440, Pitch_bend_c, 3, 8320
5, 265440, Pitch_bend_c, 3, 8192
5, 265440, Note_off_c, 3, 59, 47
5, 265440, Note_on_c, 3, 59, 47
5, 265600, Pitch_bend_c, 3, 8192
5, 265760, Pitch_bend_c, 3, 8320
5, 265920, Pitch_bend_c, 3, 8192
5, 265920, Pitch_bend_c, 3, 8320
5, 265920, Pitch_bend_c, 3, 8192
5, 265920, Note_off_c, 3, 59, 47
5, 265920, Note_on_c, 3, 59, 95
5, 266080, Pitch_bend_c, 3, 8192
5, 266240, Pitch_bend_c, 3, 8320
5, 266400, Pitch_bend_c, 3, 8192
5, 266560, Pitch_bend_c, 3, 8320
5, 266720, Pitch_bend_c, 3, 8192
5, 266880, Pitch_bend_c, 3, 8320
5, 266880, Pitch_bend_c, 3, 8192
5, 266880, Note_off_c, 3, 59, 95
5, 266880, Note_on_c, 3, 60, 95
5, 267040, Pitch_bend_c, 3, 8192
5, 267200, Pitch_bend_c, 3, 8320
5, 267360, Pitch_bend_c, 3, 8192
5, 267520, Pitch_bend_c, 3, 8320
5, 267680, Pitch_bend_c, 3, 8192
5, 267840, Pitch_bend_c, 3, 8320
5, 267840, Pitch_bend_c, 3, 8192
5, 267840, Note_off_c, 3, 60, 95
5, 267840, Note_on_c, 3, 62, 95
5, 268000, Pitch_bend_c, 3, 8192
5, 268160, Pitch_bend_c, 3, 8320
5, 268320, Pitch_bend_c, 3, 8192
5, 268480, Pitch_bend_c, 3, 8320
5, 268640, Pitch_bend_c, 3, 8192
5, 268800, Pitch_bend_c, 3, 8320
5, 268960, Pitch_bend_c, 3, 8192
5, 269120, Pitch_bend_c, 3, 8320
5, 269280, Pitch_bend_c, 3, 8192
5, 269280, Pitch_bend_c, 3, 8320
5, 269280, Pitch_bend_c, 3, 8192
5, 269280, Note_off_c, 3, 62, 95
5, 270240, Note_on_c, 2, 55, 95
5, 270720, Note_off_c, 2, 55, 95
5, 270720, Note_on_c, 3, 57, 70
5, 270880, Pitch_bend_c, 3, 8192
5, 271040, Pitch_bend_c, 3, 8320
5, 271200, Pitch_bend_c, 3, 8192
5, 271200, Pitch_bend_c, 3, 8320
5, 271200, Pitch_bend_c, 3, 8192
5, 271200, Note_off_c, 3, 57, 70
5, 271200, Note_on_c, 3, 57, 95
5, 271360, Pitch_bend_c, 3, 8192
5, 271520, Pitch_bend_c, 3, 8320
5, 271680, Pitch_bend_c, 3, 8192
5, 271840, Pitch_bend_c, 3, 8320
5, 272000, Pitch_bend_c, 3, 8192
5, 272160, Pitch_bend_c, 3, 8320
5, 272160, Pitch_bend_c, 3, 8192
5, 272160, Note_off_c, 3, 57, 95
5, 272160, Note_on_c, 2, 55, 95
5, 272640, Note_off_c, 2, 55, 95
5, 272640, Note_on_c, 3, 53, 95
5, 272800, Pitch_bend_c, 3, 8192
5, 272960, Pitch_bend_c, 3, 8320
5, 273120, Pitch_bend_c, 3, 8192
5, 273280, Pitch_bend_c, 3, 8320
5, 273440, Pitch_bend_c, 3, 8192
5, 273600, Pitch_bend_c, 3, 8320
5, 273760, Pitch_bend_c, 3, 8192
5, 273920, Pitch_bend_c, 3, 8320
5, 274080, Pitch_bend_c, 3, 8192
5, 274240, Pitch_bend_c, 3, 8320
5, 274400, Pitch_bend_c, 3, 8192
5, 274560, Pitch_bend_c, 3, 8320
5, 274560, Pitch_bend_c, 3, 8192
5, 274560, Note_off_c, 3, 53, 95
5, 275520, Note_on_c, 3, 53, 95
5, 275680, Pitch_bend_c, 3, 8192
5, 275840, Pitch_bend_c, 3, 8320
5, 276000, Pitch_bend_c, 3, 8192
5, 276000, Pitch_bend_c, 3, 8320
5, 276000, Pitch_bend_c, 3, 8192
5, 276000, Note_off_c, 3, 53, 95
5, 276000, Note_on_c, 3, 52, 95
5, 276160, Pitch_bend_c, 3, 8192
5, 276320, Pitch_bend_c, 3, 8320
5, 276480, Pitch_bend_c, 3, 8192
5, 276480, Pitch_bend_c, 3, 8320
5, 276480, Pitch_bend_c, 3, 8192
5, 276480, Note_off_c, 3, 52, 95
5, 276480, Note_on_c, 3, 50, 95
5, 276640, Pitch_bend_c, 3, 8192
5, 276800, Pitch_bend_c, 3, 8320
5, 276960, Pitch_bend_c, 3, 8192
5, 277120, Pitch_bend_c, 3, 8320
5, 277280, Pitch_bend_c, 3, 8192
5, 277440, Pitch_bend_c, 3, 8320
5, 277600, Pitch_bend_c, 3, 8192
5, 277760, Pitch_bend_c, 3, 8320
5, 277920, Pitch_bend_c, 3, 8192
5, 277920, Pitch_bend_c, 3, 8320
5, 277920, Pitch_bend_c, 3, 8192
5, 277920, Note_off_c, 3, 50, 95
5, 277920, Note_on_c, 3, 59, 95
5, 278080, Pitch_bend_c, 3, 8192
5, 278240, Pitch_bend_c, 3, 8320
5, 278400, Pitch_bend_c, 3, 8192
5, 278560, Pitch_bend_c, 3, 8320
5, 278720, Pitch_bend_c, 3, 8192
5, 278880, Pitch_bend_c, 3, 8320
5, 279040, Pitch_bend_c, 3, 8192
5, 279200, Pitch_bend_c, 3, 8320
5, 279360, Pitch_bend_c, 3, 8192
5, 279360, Pitch_bend_c, 3, 8320
5, 279360, Pitch_bend_c, 3, 8192
5, 279360, Note_off_c, 3, 59, 95
5, 279840, Note_on_c, 3, 59, 95
5, 280000, Pitch_bend_c, 3, 8192
5, 280160, Pitch_bend_c, 3, 8320
5, 280320, Pitch_bend_c, 3, 8192
5, 280320, Pitch_bend_c, 3, 8320
5, 280320, Pitch_bend_c, 3, 8192
5, 280320, Note_off_c, 3, 59, 95
5, 280320, Note_on_c, 3, 57, 95
5, 280480, Pitch_bend_c, 3, 8192
5, 280640, Pitch_bend_c, 3, 8320
5, 280800, Pitch_bend_c, 3, 8192
5, 280960, Pitch_bend_c, 3, 8320
5, 281120, Pitch_bend_c, 3, 8192
5, 281280, Pitch_bend_c, 3, 8320
5, 281440, Pitch_bend_c, 3, 8192
5, 281600, Pitch_bend_c, 3, 8320
5, 281760, Pitch_bend_c, 3, 8192
5, 281760, Pitch_bend_c, 3, 8320
5, 281760, Pitch_bend_c, 3, 8192
5, 281760, Note_off_c, 3, 57, 95
5, 281760, Note_on_c, 3, 55, 95
5, 281920, Pitch_bend_c, 3, 8192
5, 282080, Pitch_bend_c, 3, 8320
5, 282240, Pitch_bend_c, 3, 8192
5, 282400, Pitch_bend_c, 3, 8320
5, 282560, Pitch_bend_c, 3, 8192
5, 282720, Pitch_bend_c, 3, 8320
5, 282880, Pitch_bend_c, 3, 8192
5, 283040, Pitch_bend_c, 3, 8320
5, 283200, Pitch_bend_c, 3, 8192
5, 283200, Pitch_bend_c, 3, 8320
5, 283200, Pitch_bend_c, 3, 8192
5, 283200, Note_off_c, 3, 55, 95
5, 283200, Note_on_c, 3, 55, 95
5, 283360, Pitch_bend_c, 3, 8192
5, 283520, Pitch_bend_c, 3, 8320
5, 283680, Pitch_bend_c, 3, 8192
5, 283680, Pitch_bend_c, 3, 8320
5, 283680, Pitch_bend_c, 3, 8192
5, 283680, Note_off_c, 3, 55, 95
5, 283680, Note_on_c, 3, 50, 95
5, 283840, Pitch_bend_c, 3, 8192
5, 284000, Pitch_bend_c, 3, 8320
5, 284160, Pitch_bend_c, 3, 8192
5, 284160, Pitch_bend_c, 3, 8320
5, 284160, Pitch_bend_c, 3, 8192
5, 284160, Note_off_c, 3, 50, 95
5, 284160, Note_on_c, 3, 50, 95
5, 284320, Pitch_bend_c, 3, 8192
5, 284480, Pitch_bend_c, 3, 8320
5, 284640, Pitch_bend_c, 3, 8192
5, 284800, Pitch_bend_c, 3, 8320
5, 284960, Pitch_bend_c, 3, 8192
5, 285120, Pitch_bend_c, 3, 8320
5, 285120, Pitch_bend_c, 3, 8192
5, 285120, Note_off_c, 3, 50, 95
5, 285120, Note_on_c, 3, 55, 95
5, 285280, Pitch_bend_c, 3, 8192
5, 285440, Pitch_bend_c, 3, 8320
5, 285600, Pitch_bend_c, 3, 8192
5, 285600, Pitch_bend_c, 3, 8320
5, 285600, Pitch_bend_c, 3, 8192
5, 285600, Note_off_c, 3, 55, 95
5, 285600, Note_on_c, 3, 52, 95
5, 285760, Pitch_bend_c, 3, 8192
5, 285920, Pitch_bend_c, 3, 8320
5, 286080, Pitch_bend_c, 3, 8192
5, 286240, Pitch_bend_c, 3, 8320
5, 286400, Pitch_bend_c, 3, 8192
5, 286560, Pitch_bend_c, 3, 8320
5, 286560, Pitch_bend_c, 3, 8192
5, 286560, Note_off_c, 3, 52, 95
5, 286560, Note_on_c, 3, 55, 95
5, 286720, Pitch_bend_c, 3, 8192
5, 286880, Pitch_bend_c, 3, 8320
5, 287040, Pitch_bend_c, 3, 8192
5, 287040, Pitch_bend_c, 3, 8320
5, 287040, Pitch_bend_c, 3, 8192
5, 287040, Note_off_c, 3, 55, 95
5, 287040, Note_on_c, 2, 52, 95
5, 287280, Note_off_c, 2, 52, 95
5, 287280, Note_on_c, 3, 53, 70
5, 287440, Pitch_bend_c, 3, 8192
5, 287520, Pitch_bend_c, 3, 8320
5, 287520, Pitch_bend_c, 3, 8192
5, 287520, Note_off_c, 3, 53, 70
5, 287520, Note_on_c, 3, 55, 95
5, 287680, Pitch_bend_c, 3, 8192
5, 287840, Pitch_bend_c, 3, 8320
5, 288000, Pitch_bend_c, 3, 8192
5, 288000, Pitch_bend_c, 3, 8320
5, 288000, Pitch_bend_c, 3, 8192
5, 288000, Note_off_c, 3, 55, 95
5, 288000, Note_on_c, 3, 52, 95
5, 288160, Pitch_bend_c, 3, 8192
5, 288320, Pitch_bend_c, 3, 8320
5, 288480, Pitch_bend_c, 3, 8192
5, 288640, Pitch_bend_c, 3, 8320
5, 288800, Pitch_bend_c, 3, 8192
5, 288960, Pitch_bend_c, 3, 8320
5, 289120, Pitch_bend_c, 3, 8192
5, 289280, Pitch_bend_c, 3, 8320
5, 289440, Pitch_bend_c, 3, 8192
5, 289600, Pitch_bend_c, 3, 8320
5, 289760, Pitch_bend_c, 3, 8192
5, 289920, Pitch_bend_c, 3, 8320
5, 289920, Pitch_bend_c, 3, 8192
5, 289920, Note_off_c, 3, 52, 95
5, 291360, Note_on_c, 2, 55, 95
5, 291840, Note_off_c, 2, 55, 95
5, 291840, Note_on_c, 3, 60, 95
5, 292000, Pitch_bend_c, 3, 8192
5, 292160, Pitch_bend_c, 3, 8320
5, 292320, Pitch_bend_c, 3, 8192
5, 292480, Pitch_bend_c, 3, 8320
5, 292640, Pitch_bend_c, 3, 8192
5, 292800, Pitch_bend_c, 3, 8320
5, 292960, Pitch_bend_c, 3, 8192
5, 293120, Pitch_bend_c, 3, 8320
5, 293280, Pitch_bend_c, 3, 8192
5, 293440, Pitch_bend_c, 3, 8320
5, 293600, Pitch_bend_c, 3, 8192
5, 293760, Pitch_bend_c, 3, 8320
5, 293760, Pitch_bend_c, 3, 8192
5, 293760, Note_off_c, 3, 60, 95
5, 293760, Note_on_c, 3, 60, 95
5, 293920, Pitch_bend_c, 3, 8192
5, 294080, Pitch_bend_c, 3, 8320
5, 294240, Pitch_bend_c, 3, 8192
5, 294400, Pitch_bend_c, 3, 8320
5, 294400, Pitch_bend_c, 3, 8192
5, 294400, Note_off_c, 3, 60, 95
5, 294400, Note_on_c, 3, 62, 95
5, 294560, Pitch_bend_c, 3, 8192
5, 294720, Pitch_bend_c, 3, 8320
5, 294880, Pitch_bend_c, 3, 8192
5, 295040, Pitch_bend_c, 3, 8320
5, 295040, Pitch_bend_c, 3, 8192
5, 295040, Note_off_c, 3, 62, 95
5, 295040, Pitch_bend_c, 3, 8192
5, 295040, Note_on_c, 3, 64, 95
5, 295090, Pitch_bend_c, 3, 8064
5, 295140, Pitch_bend_c, 3, 7936
5, 295190, Pitch_bend_c, 3, 7808
5, 295240, Pitch_bend_c, 3, 7680
5, 295290, Pitch_bend_c, 3, 7552
5, 295340, Pitch_bend_c, 3, 7424
5, 295390, Pitch_bend_c, 3, 7296
5, 295440, Pitch_bend_c, 3, 7168
5, 295490, Pitch_bend_c, 3, 7040
5, 295540, Pitch_bend_c, 3, 6912
5, 295590, Pitch_bend_c, 3, 6784
5, 295600, Pitch_bend_c, 3, 6784
5, 295650, Pitch_bend_c, 3, 6912
5, 295680, Note_on_c, 3, 59, 47
5, 295700, Pitch_bend_c, 3, 7040
5, 295750, Pitch_bend_c, 3, 7168
5, 295800, Pitch_bend_c, 3, 7296
5, 295840, Pitch_bend_c, 3, 8192
5, 295850, Pitch_bend_c, 3, 7424
5, 295900, Pitch_bend_c, 3, 7552
5, 295950, Pitch_bend_c, 3, 7680
5, 296000, Pitch_bend_c, 3, 7808
5, 296000, Pitch_bend_c, 3, 8320
5, 296050, Pitch_bend_c, 3, 7936
5, 296100, Pitch_bend_c, 3, 8064
5, 296150, Pitch_bend_c, 3, 8192
5, 296160, Pitch_bend_c, 3, 8192
5, 296160, Pitch_bend_c, 3, 8192
5, 296160, Note_off_c, 3, 64, 95
5, 296160, Pitch_bend_c, 3, 8192
5, 296160, Pitch_bend_c, 3, 8320
5, 296160, Pitch_bend_c, 3, 8192
5, 296160, Note_off_c, 3, 59, 47
5, 296160, Note_on_c, 3, 59, 47
5, 296320, Pitch_bend_c, 3, 8192
5, 296480, Pitch_bend_c, 3, 8320
5, 296640, Pitch_bend_c, 3, 8192
5, 296640, Pitch_bend_c, 3, 8320
5, 296640, Pitch_bend_c, 3, 8192
5, 296640, Note_off_c, 3, 59, 47
5, 296640, Note_on_c, 3, 59, 95
5, 296800, Pitch_bend_c, 3, 8192
5, 296960, Pitch_bend_c, 3, 8320
5, 297120, Pitch_bend_c, 3, 8192
5, 297280, Pitch_bend_c, 3, 8320
5, 297440, Pitch_bend_c, 3, 8192
5, 297600, Pitch_bend_c, 3, 8320
5, 297600, Pitch_bend_c, 3, 8192
5, 297600, Note_off_c, 3, 59, 95
5, 297600, Note_on_c, 3, 60, 95
5, 297760, Pitch_bend_c, 3, 8192
5, 297920, Pitch_bend_c, 3, 8320
5, 298080, Pitch_bend_c, 3, 8192
5, 298240, Pitch_bend_c, 3, 8320
5, 298400, Pitch_bend_c, 3, 8192
5, 298560, Pitch_bend_c, 3, 8320
5, 298560, Pitch_bend_c, 3, 8192
5, 298560, Note_off_c, 3, 60, 95
5, 298560, Note_on_c, 3, 62, 95
5, 298720, Pitch_bend_c, 3, 8192
5, 298880, Pitch_bend_c, 3, 8320
5, 299040, Pitch_bend_c, 3, 8192
5, 299200, Pitch_bend_c, 3, 8320
5, 299360, Pitch_bend_c, 3, 8192
5, 299520, Pitch_bend_c, 3, 8320
5, 299680, Pitch_bend_c, 3, 8192
5, 299840, Pitch_bend_c, 3, 8320
5, 300000, Pitch_bend_c, 3, 8192
5, 300000, Pitch_bend_c, 3, 8320
5, 300000, Pitch_bend_c, 3, 8192
5, 300000, Note_off_c, 3, 62, 95
5, 300960, Note_on_c, 2, 55, 95
5, 301440, Note_off_c, 2, 55, 95
5, 301440, Note_on_c, 3, 57, 70
5, 301600, Pitch_bend_c, 3, 8192
5, 301760, Pitch_bend_c, 3, 8320
5, 301920, Pitch_bend_c, 3, 8192
5, 301920, Pitch_bend_c, 3, 8320
5, 301920, Pitch_bend_c, 3, 8192
5, 301920, Note_off_c, 3, 57, 70
5, 301920, Note_on_c, 3, 57, 95
5, 302080, Pitch_bend_c, 3, 8192
5, 302240, Pitch_bend_c, 3, 8320
5, 302400, Pitch_bend_c, 3, 8192
5, 302560, Pitch_bend_c, 3, 8320
5, 302720, Pitch_bend_c, 3, 8192
5, 302880, Pitch_bend_c, 3, 8320
5, 302880, Pitch_bend_c, 3, 8192
5, 302880, Note_off_c, 3, 57, 95
5, 302880, Note_on_c, 2, 55, 95
5, 303360, Note_off_c, 2, 55, 95
5, 303360, Note_on_c, 3, 53, 95
5, 303520, Pitch_bend_c, 3, 8192
5, 303680, Pitch_bend_c, 3, 8320
5, 303840, Pitch_bend_c, 3, 8192
5, 304000, Pitch_bend_c, 3, 8320
5, 304160, Pitch_bend_c, 3, 8192
5, 304320, Pitch_bend_c, 3, 8320
5, 304480, Pitch_bend_c, 3, 8192
5, 304640, Pitch_bend_c, 3, 8320
5, 304800, Pitch_bend_c, 3, 8192
5, 304960, Pitch_bend_c, 3, 8320
5, 305120, Pitch_bend_c, 3, 8192
5, 305280, Pitch_bend_c, 3, 8320
5, 305280, Pitch_bend_c, 3, 8192
5, 305280, Note_off_c, 3, 53, 95
5, 306240, Note_on_c, 3, 53, 95
5, 306400, Pitch_bend_c, 3, 8192
5, 306560, Pitch_bend_c, 3, 8320
5, 306720, Pitch_bend_c, 3, 8192
5, 306720, Pitch_bend_c, 3, 8320
5, 306720, Pitch_bend_c, 3, 8192
5, 306720, Note_off_c, 3, 53, 95
5, 306720, Note_on_c, 3, 52, 95
5, 306880, Pitch_bend_c, 3, 8192
5, 307040, Pitch_bend_c, 3, 8320
5, 307200, Pitch_bend_c, 3, 8192
5, 307200, Pitch_bend_c, 3, 8320
5, 307200, Pitch_bend_c, 3, 8192
5, 307200, Note_off_c, 3, 52, 95
5, 307200, Note_on_c, 3, 50, 95
5, 307360, Pitch_bend_c, 3, 8192
5, 307520, Pitch_bend_c, 3, 8320
5, 307680, Pitch_bend_c, 3, 8192
5, 307840, Pitch_bend_c, 3, 8320
5, 308000, Pitch_bend_c, 3, 8192
5, 308160, Pitch_bend_c, 3, 8320
5, 308320, Pitch_bend_c, 3, 8192
5, 308480, Pitch_bend_c, 3, 8320
5, 308640, Pitch_bend_c, 3, 8192
5, 308640, Pitch_bend_c, 3, 8320
5, 308640, Pitch_bend_c, 3, 8192
5, 308640, Note_off_c, 3, 50, 95
5, 308640, Note_on_c, 3, 59, 95
5, 308800, Pitch_bend_c, 3, 8192
5, 308960, Pitch_bend_c, 3, 8320
5, 309120, Pitch_bend_c, 3, 8192
5, 309280, Pitch_bend_c, 3, 8320
5, 309440, Pitch_bend_c, 3, 8192
5, 309600, Pitch_bend_c, 3, 8320
5, 309760, Pitch_bend_c, 3, 8192
5, 309920, Pitch_bend_c, 3, 8320
5, 310080, Pitch_bend_c, 3, 8192
5, 310080, Pitch_bend_c, 3, 8320
5, 310080, Pitch_bend_c, 3, 8192
5, 310080, Note_off_c, 3, 59, 95
5, 310560, Note_on_c, 3, 59, 95
5, 310720, Pitch_bend_c, 3, 8192
5, 310880, Pitch_bend_c, 3, 8320
5, 311040, Pitch_bend_c, 3, 8192
5, 311040, Pitch_bend_c, 3, 8320
5, 311040, Pitch_bend_c, 3, 8192
5, 311040, Note_off_c, 3, 59, 95
5, 311040, Note_on_c, 3, 57, 95
5, 311200, Pitch_bend_c, 3, 8192
5, 311360, Pitch_bend_c, 3, 8320
5, 311520, Pitch_bend_c, 3, 8192
5, 311680, Pitch_bend_c, 3, 8320
5, 311840, Pitch_bend_c, 3, 8192
5, 312000, Pitch_bend_c, 3, 8320
5, 312160, Pitch_bend_c, 3, 8192
5, 312320, Pitch_bend_c, 3, 8320
5, 312480, Pitch_bend_c, 3, 8192
5, 312480, Pitch_bend_c, 3, 8320
5, 312480, Pitch_bend_c, 3, 8192
5, 312480, Note_off_c, 3, 57, 95
5, 312480, Note_on_c, 3, 55, 95
5, 312640, Pitch_bend_c, 3, 8192
5, 312800, Pitch_bend_c, 3, 8320
5, 312960, Pitch_bend_c, 3, 8192
5, 313120, Pitch_bend_c, 3, 8320
5, 313280, Pitch_bend_c, 3, 8192
5, 313440, Pitch_bend_c, 3, 8320
5, 313600, Pitch_bend_c, 3, 8192
5, 313760, Pitch_bend_c, 3, 8320
5, 313920, Pitch_bend_c, 3, 8192
5, 313920, Pitch_bend_c, 3, 8320
5, 313920, Pitch_bend_c, 3, 8192
5, 313920, Note_off_c, 3, 55, 95
5, 313920, Note_on_c, 3, 55, 95
5, 314080, Pitch_bend_c, 3, 8192
5, 314240, Pitch_bend_c, 3, 8320
5, 314400, Pitch_bend_c, 3, 8192
5, 314400, Pitch_bend_c, 3, 8320
5, 314400, Pitch_bend_c, 3, 8192
5, 314400, Note_off_c, 3, 55, 95
5, 314400, Note_on_c, 3, 50, 95
5, 314560, Pitch_bend_c, 3, 8192
5, 314720, Pitch_bend_c, 3, 8320
5, 314880, Pitch_bend_c, 3, 8192
5, 314880, Pitch_bend_c, 3, 8320
5, 314880, Pitch_bend_c, 3, 8192
5, 314880, Note_off_c, 3, 50, 95
5, 314880, Note_on_c, 3, 50, 95
5, 315040, Pitch_bend_c, 3, 8192
5, 315200, Pitch_bend_c, 3, 8320
5, 315360, Pitch_bend_c, 3, 8192
5, 315520, Pitch_bend_c, 3, 8320
5, 315680, Pitch_bend_c, 3, 8192
5, 315840, Pitch_bend_c, 3, 8320
5, 315840, Pitch_bend_c, 3, 8192
5, 315840, Note_off_c, 3, 50, 95
5, 315840, Note_on_c, 3, 55, 95
5, 316000, Pitch_bend_c, 3, 8192
5, 316160, Pitch_bend_c, 3, 8320
5, 316320, Pitch_bend_c, 3, 8192
5, 316320, Pitch_bend_c, 3, 8320
5, 316320, Pitch_bend_c, 3, 8192
5, 316320, Note_off_c, 3, 55, 95
5, 316320, Note_on_c, 3, 52, 95
5, 316480, Pitch_bend_c, 3, 8192
5, 316640, Pitch_bend_c, 3, 8320
5, 316800, Pitch_bend_c, 3, 8192
5, 316960, Pitch_bend_c, 3, 8320
5, 317120, Pitch_bend_c, 3, 8192
5, 317280, Pitch_bend_c, 3, 8320
5, 317280, Pitch_bend_c, 3, 8192
5, 317280, Note_off_c, 3, 52, 95
5, 317280, Note_on_c, 3, 55, 95
5, 317440, Pitch_bend_c, 3, 8192
5, 317600, Pitch_bend_c, 3, 8320
5, 317760, Pitch_bend_c, 3, 8192
5, 317760, Pitch_bend_c, 3, 8320
5, 317760, Pitch_bend_c, 3, 8192
5, 317760, Note_off_c, 3, 55, 95
5, 317760, Note_on_c, 2, 52, 95
5, 318000, Note_off_c, 2, 52, 95
5, 318000, Note_on_c, 3, 53, 70
5, 318160, Pitch_bend_c, 3, 8192
5, 318240, Pitch_bend_c, 3, 8320
5, 318240, Pitch_bend_c, 3, 8192
5, 318240, Note_off_c, 3, 53, 70
5, 318240, Note_on_c, 3, 55, 95
5, 318400, Pitch_bend_c, 3, 8192
5, 318560, Pitch_bend_c, 3, 8320
5, 318720, Pitch_bend_c, 3, 8192
5, 318720, Pitch_bend_c, 3, 8320
5, 318720, Pitch_bend_c, 3, 8192
5, 318720, Note_off_c, 3, 55, 95
5, 318720, Note_on_c, 3, 52, 95
5, 318880, Pitch_bend_c, 3, 8192
5, 319040, Pitch_bend_c, 3, 8320
5, 319200, Pitch_bend_c, 3, 8192
5, 319360, Pitch_bend_c, 3, 8320
5, 319520, Pitch_bend_c, 3, 8192
5, 319680, Pitch_bend_c, 3, 8320
5, 319840, Pitch_bend_c, 3, 8192
5, 320000, Pitch_bend_c, 3, 8320
5, 320160, Pitch_bend_c, 3, 8192
5, 320320, Pitch_bend_c, 3, 8320
5, 320480, Pitch_bend_c, 3, 8192
5, 320640, Pitch_bend_c, 3, 8320
5, 320640, Pitch_bend_c, 3, 8192
5, 320640, Note_off_c, 3, 52, 95
5, 322080, Note_on_c, 2, 52, 95
5, 322320, Note_off_c, 2, 52, 95
5, 322560, Note_on_c, 2, 52, 95
5, 324000, Note_off_c, 2, 52, 95
5, 324000, Note_on_c, 2, 52, 95
5, 324480, Note_off_c, 2, 52, 95
5, 324480, Note_on_c, 2, 52, 95
5, 324960, Note_off_c, 2, 52, 95
5, 324960, Note_on_c, 2, 55, 95
5, 325440, Note_off_c, 2, 55, 95
5, 325920, Note_on_c, 2, 57, 95
5, 326400, Note_off_c, 2, 57, 95
5, 326400, Note_on_c, 2, 57, 95
5, 326880, Note_off_c, 2, 57, 95
5, 326880, Note_on_c, 2, 57, 95
5, 327360, Note_off_c, 2, 57, 95
5, 327840, Note_on_c, 2, 57, 95
5, 328320, Note_off_c, 2, 57, 95
5, 328320, Note_on_c, 2, 57, 95
5, 328800, Note_off_c, 2, 57, 95
5, 328800, Note_on_c, 2, 60, 95
5, 329280, Note_off_c, 2, 60, 95
5, 329760, Note_on_c, 2, 57, 95
5, 330240, Note_off_c, 2, 57, 95
5, 330240, Note_on_c, 2, 57, 95
5, 330720, Note_off_c, 2, 57, 95
5, 331680, Note_on_c, 2, 57, 95
5, 332160, Note_off_c, 2, 57, 95
5, 332160, Note_on_c, 2, 57, 95
5, 332640, Note_off_c, 2, 57, 95
5, 332640, Note_on_c, 2, 60, 95
5, 333120, Note_off_c, 2, 60, 95
5, 333600, Note_on_c, 2, 60, 95
5, 334080, Note_off_c, 2, 60, 95
5, 334080, Note_on_c, 2, 60, 95
5, 334560, Note_off_c, 2, 60, 95
5, 334560, Note_on_c, 2, 60, 95
5, 335040, Note_off_c, 2, 60, 95
5, 335520, Note_on_c, 2, 60, 95
5, 336000, Note_off_c, 2, 60, 95
5, 336000, Note_on_c, 2, 60, 95
5, 336480, Note_off_c, 2, 60, 95
5, 336480, Note_on_c, 2, 64, 95
5, 336960, Note_off_c, 2, 64, 95
5, 337440, Note_on_c, 2, 59, 95
5, 337920, Note_off_c, 2, 59, 95
5, 337920, Note_on_c, 2, 62, 95
5, 340800, Note_off_c, 2, 62, 95
5, 340800, Note_on_c, 2, 62, 95
5, 341280, Note_off_c, 2, 62, 95
5, 341280, Note_on_c, 2, 60, 95
5, 341760, Note_off_c, 2, 60, 95
5, 341760, Note_on_c, 2, 59, 95
5, 342240, Note_off_c, 2, 59, 95
5, 343680, Note_on_c, 2, 69, 95
5, 343680, Note_on_c, 2, 65, 95
5, 344320, Note_off_c, 2, 69, 95
5, 344320, Note_off_c, 2, 65, 95
5, 344320, Note_on_c, 2, 69, 95
5, 344320, Note_on_c, 2, 65, 95
5, 344960, Note_off_c, 2, 69, 95
5, 344960, Note_off_c, 2, 65, 95
5, 344960, Note_on_c, 2, 69, 95
5, 344960, Note_on_c, 2, 65, 95
5, 345600, Note_off_c, 2, 69, 95
5, 345600, Note_off_c, 2, 65, 95
5, 345600, Note_on_c, 2, 67, 95
5, 345600, Note_on_c, 2, 64, 95
5, 349440, Note_off_c, 2, 67, 95
5, 349440, Note_off_c, 2, 64, 95
5, 350880, Note_on_c, 2, 72, 95
5, 350880, Note_on_c, 2, 72, 95
5, 351360, Note_off_c, 2, 72, 95
5, 351360, Note_off_c, 2, 72, 95
5, 351840, Note_on_c, 2, 71, 95
5, 351840, Note_on_c, 2, 71, 95
5, 352320, Note_off_c, 2, 71, 95
5, 352320, Note_off_c, 2, 71, 95
5, 352800, Note_on_c, 2, 69, 127
5, 352800, Note_on_c, 2, 69, 127
5, 357120, Note_off_c, 2, 69, 127
5, 357120, Note_off_c, 2, 69, 127
5, 358560, Note_on_c, 2, 67, 95
5, 358560, Note_on_c, 2, 67, 95
5, 359040, Note_off_c, 2, 67, 95
5, 359040, Note_off_c, 2, 67, 95
5, 359520, Note_on_c, 2, 67, 95
5, 359520, Note_on_c, 2, 67, 95
5, 360000, Note_off_c, 2, 67, 95
5, 360000, Note_off_c, 2, 67, 95
5, 360480, Note_on_c, 2, 72, 95
5, 360480, Note_on_c, 2, 72, 127
5, 364800, Note_off_c, 2, 72, 95
5, 364800, Note_off_c, 2, 72, 127
5, 366240, Note_on_c, 2, 72, 95
5, 366240, Note_on_c, 2, 72, 95
5, 366720, Note_off_c, 2, 72, 95
5, 366720, Note_off_c, 2, 72, 95
5, 367200, Note_on_c, 2, 71, 95
5, 367200, Note_on_c, 2, 71, 95
5, 367680, Note_off_c, 2, 71, 95
5, 367680, Note_off_c, 2, 71, 95
5, 368160, Note_on_c, 2, 69, 127
5, 368160, Note_on_c, 2, 69, 127
5, 372480, Note_off_c, 2, 69, 127
5, 372480, Note_off_c, 2, 69, 127
5, 373920, Note_on_c, 2, 67, 95
5, 373920, Note_on_c, 2, 67, 95
5, 374400, Note_off_c, 2, 67, 95
5, 374400, Note_off_c, 2, 67, 95
5, 374880, Note_on_c, 2, 67, 95
5, 374880, Note_on_c, 2, 67, 95
5, 375360, Note_off_c, 2, 67, 95
5, 375360, Note_off_c, 2, 67, 95
5, 375840, Note_on_c, 2, 67, 95
5, 375840, Note_on_c, 2, 67, 127
5, 376320, Note_off_c, 2, 67, 95
5, 376320, Note_off_c, 2, 67, 127
5, 376320, Note_on_c, 2, 65, 95
5, 376320, Note_on_c, 2, 65, 95
5, 380160, Note_off_c, 2, 65, 95
5, 380160, Note_off_c, 2, 65, 95
5, 380160, Note_on_c, 2, 67, 95
5, 380160, Note_on_c, 2, 67, 95
5, 384000, Note_off_c, 2, 67, 95
5, 384000, Note_off_c, 2, 67, 95
5, 444960, Note_on_c, 3, 55, 95
5, 445120, Pitch_bend_c, 3, 8192
5, 445280, Pitch_bend_c, 3, 8320
5, 445440, Pitch_bend_c, 3, 8192
5, 445440, Pitch_bend_c, 3, 8320
5, 445440, Pitch_bend_c, 3, 8192
5, 445440, Note_off_c, 3, 55, 95
5, 445440, Note_on_c, 3, 60, 95
5, 445600, Pitch_bend_c, 3, 8192
5, 445760, Pitch_bend_c, 3, 8320
5, 445920, Pitch_bend_c, 3, 8192
5, 446080, Pitch_bend_c, 3, 8320
5, 446240, Pitch_bend_c, 3, 8192
5, 446400, Pitch_bend_c, 3, 8320
5, 446560, Pitch_bend_c, 3, 8192
5, 446720, Pitch_bend_c, 3, 8320
5, 446880, Pitch_bend_c, 3, 8192
5, 447040, Pitch_bend_c, 3, 8320
5, 447200, Pitch_bend_c, 3, 8192
5, 447360, Pitch_bend_c, 3, 8320
5, 447360, Pitch_bend_c, 3, 8192
5, 447360, Note_off_c, 3, 60, 95
5, 447360, Note_on_c, 3, 60, 95
5, 447520, Pitch_bend_c, 3, 8192
5, 447680, Pitch_bend_c, 3, 8320
5, 447840, Pitch_bend_c, 3, 8192
5, 448000, Pitch_bend_c, 3, 8320
5, 448000, Pitch_bend_c, 3, 8192
5, 448000, Note_off_c, 3, 60, 95
5, 448000, Note_on_c, 3, 62, 95
5, 448160, Pitch_bend_c, 3, 8192
5, 448320, Pitch_bend_c, 3, 8320
5, 448480, Pitch_bend_c, 3, 8192
5, 448640, Pitch_bend_c, 3, 8320
5, 448640, Pitch_bend_c, 3, 8192
5, 448640, Note_off_c, 3, 62, 95
5, 448640, Pitch_bend_c, 3, 8192
5, 448640, Note_on_c, 3, 64, 95
5, 448690, Pitch_bend_c, 3, 8064
5, 448740, Pitch_bend_c, 3, 7936
5, 448790, Pitch_bend_c, 3, 7808
5, 448840, Pitch_bend_c, 3, 7680
5, 448890, Pitch_bend_c, 3, 7552
5, 448940, Pitch_bend_c, 3, 7424
5, 448990, Pitch_bend_c, 3, 7296
5, 449040, Pitch_bend_c, 3, 7168
5, 449090, Pitch_bend_c, 3, 7040
5, 449140, Pitch_bend_c, 3, 6912
5, 449190, Pitch_bend_c, 3, 6784
5, 449200, Pitch_bend_c, 3, 6784
5, 449250, Pitch_bend_c, 3, 6912
5, 449280, Note_on_c, 3, 59, 47
5, 449300, Pitch_bend_c, 3, 7040
5, 449350, Pitch_bend_c, 3, 7168
5, 449400, Pitch_bend_c, 3, 7296
5, 449440, Pitch_bend_c, 3, 8192
5, 449450, Pitch_bend_c, 3, 7424
5, 449500, Pitch_bend_c, 3, 7552
5, 449550, Pitch_bend_c, 3, 7680
5, 449600, Pitch_bend_c, 3, 7808
5, 449600, Pitch_bend_c, 3, 8320
5, 449650, Pitch_bend_c, 3, 7936
5, 449700, Pitch_bend_c, 3, 8064
5, 449750, Pitch_bend_c, 3, 8192
5, 449760, Pitch_bend_c, 3, 8192
5, 449760, Pitch_bend_c, 3, 8192
5, 449760, Note_off_c, 3, 64, 95
5, 449760, Pitch_bend_c, 3, 8192
5, 449760, Pitch_bend_c, 3, 8320
5, 449760, Pitch_bend_c, 3, 8192
5, 449760, Note_off_c, 3, 59, 47
5, 449760, Note_on_c, 3, 59, 47
5, 449920, Pitch_bend_c, 3, 8192
5, 450080, Pitch_bend_c, 3, 8320
5, 450240, Pitch_bend_c, 3, 8192
5, 450240, Pitch_bend_c, 3, 8320
5, 450240, Pitch_bend_c, 3, 8192
5, 450240, Note_off_c, 3, 59, 47
5, 450240, Note_on_c, 3, 59, 95
5, 450400, Pitch_bend_c, 3, 8192
5, 450560, Pitch_bend_c, 3, 8320
5, 450720, Pitch_bend_c, 3, 8192
5, 450880, Pitch_bend_c, 3, 8320
5, 451040, Pitch_bend_c, 3, 8192
5, 451200, Pitch_bend_c, 3, 8320
5, 451200, Pitch_bend_c, 3, 8192
5, 451200, Note_off_c, 3, 59, 95
5, 451200, Note_on_c, 3, 60, 95
5, 451360, Pitch_bend_c, 3, 8192
5, 451520, Pitch_bend_c, 3, 8320
5, 451680, Pitch_bend_c, 3, 8192
5, 451840, Pitch_bend_c, 3, 8320
5, 452000, Pitch_bend_c, 3, 8192
5, 452160, Pitch_bend_c, 3, 8320
5, 452160, Pitch_bend_c, 3, 8192
5, 452160, Note_off_c, 3, 60, 95
5, 452160, Note_on_c, 3, 62, 95
5, 452320, Pitch_bend_c, 3, 8192
5, 452480, Pitch_bend_c, 3, 8320
5, 452640, Pitch_bend_c, 3, 8192
5, 452800, Pitch_bend_c, 3, 8320
5, 452960, Pitch_bend_c, 3, 8192
5, 453120, Pitch_bend_c, 3, 8320
5, 453280, Pitch_bend_c, 3, 8192
5, 453440, Pitch_bend_c, 3, 8320
5, 453600, Pitch_bend_c, 3, 8192
5, 453600, Pitch_bend_c, 3, 8320
5, 453600, Pitch_bend_c, 3, 8192
5, 453600, Note_off_c, 3, 62, 95
5, 454560, Note_on_c, 2, 55, 95
5, 455040, Note_off_c, 2, 55, 95
5, 455040, Note_on_c, 3, 57, 70
5, 455200, Pitch_bend_c, 3, 8192
5, 455360, Pitch_bend_c, 3, 8320
5, 455520, Pitch_bend_c, 3, 8192
5, 455520, Pitch_bend_c, 3, 8320
5, 455520, Pitch_bend_c, 3, 8192
5, 455520, Note_off_c, 3, 57, 70
5, 455520, Note_on_c, 3, 57, 95
5, 455680, Pitch_bend_c, 3, 8192
5, 455840, Pitch_bend_c, 3, 8320
5, 456000, Pitch_bend_c, 3, 8192
5, 456160, Pitch_bend_c, 3, 8320
5, 456320, Pitch_bend_c, 3, 8192
5, 456480, Pitch_bend_c, 3, 8320
5, 456480, Pitch_bend_c, 3, 8192
5, 456480, Note_off_c, 3, 57, 95
5, 456480, Note_on_c, 2, 55, 95
5, 456960, Note_off_c, 2, 55, 95
5, 456960, Note_on_c, 3, 53, 95
5, 457120, Pitch_bend_c, 3, 8192
5, 457280, Pitch_bend_c, 3, 8320
5, 457440, Pitch_bend_c, 3, 8192
5, 457600, Pitch_bend_c, 3, 8320
5, 457760, Pitch_bend_c, 3, 8192
5, 457920, Pitch_bend_c, 3, 8320
5, 458080, Pitch_bend_c, 3, 8192
5, 458240, Pitch_bend_c, 3, 8320
5, 458400, Pitch_bend_c, 3, 8192
5, 458560, Pitch_bend_c, 3, 8320
5, 458720, Pitch_bend_c, 3, 8192
5, 458880, Pitch_bend_c, 3, 8320
5, 458880, Pitch_bend_c, 3, 8192
5, 458880, Note_off_c, 3, 53, 95
5, 459840, Note_on_c, 3, 53, 95
5, 460000, Pitch_bend_c, 3, 8192
5, 460160, Pitch_bend_c, 3, 8320
5, 460320, Pitch_bend_c, 3, 8192
5, 460320, Pitch_bend_c, 3, 8320
5, 460320, Pitch_bend_c, 3, 8192
5, 460320, Note_off_c, 3, 53, 95
5, 460320, Note_on_c, 3, 52, 95
5, 460480, Pitch_bend_c, 3, 8192
5, 460640, Pitch_bend_c, 3, 8320
5, 460800, Pitch_bend_c, 3, 8192
5, 460800, Pitch_bend_c, 3, 8320
5, 460800, Pitch_bend_c, 3, 8192
5, 460800, Note_off_c, 3, 52, 95
5, 460800, Note_on_c, 3, 50, 95
5, 460960, Pitch_bend_c, 3, 8192
5, 461120, Pitch_bend_c, 3, 8320
5, 461280, Pitch_bend_c, 3, 8192
5, 461440, Pitch_bend_c, 3, 8320
5, 461600, Pitch_bend_c, 3, 8192
5, 461760, Pitch_bend_c, 3, 8320
5, 461920, Pitch_bend_c, 3, 8192
5, 462080, Pitch_bend_c, 3, 8320
5, 462240, Pitch_bend_c, 3, 8192
5, 462240, Pitch_bend_c, 3, 8320
5, 462240, Pitch_bend_c, 3, 8192
5, 462240, Note_off_c, 3, 50, 95
5, 462240, Note_on_c, 3, 59, 95
5, 462400, Pitch_bend_c, 3, 8192
5, 462560, Pitch_bend_c, 3, 8320
5, 462720, Pitch_bend_c, 3, 8192
5, 462880, Pitch_bend_c, 3, 8320
5, 463040, Pitch_bend_c, 3, 8192
5, 463200, Pitch_bend_c, 3, 8320
5, 463360, Pitch_bend_c, 3, 8192
5, 463520, Pitch_bend_c, 3, 8320
5, 463680, Pitch_bend_c, 3, 8192
5, 463680, Pitch_bend_c, 3, 8320
5, 463680, Pitch_bend_c, 3, 8192
5, 463680, Note_off_c, 3, 59, 95
5, 464160, Note_on_c, 3, 59, 95
5, 464320, Pitch_bend_c, 3, 8192
5, 464480, Pitch_bend_c, 3, 8320
5, 464640, Pitch_bend_c, 3, 8192
5, 464640, Pitch_bend_c, 3, 8320
5, 464640, Pitch_bend_c, 3, 8192
5, 464640, Note_off_c, 3, 59, 95
5, 464640, Note_on_c, 3, 57, 95
5, 464800, Pitch_bend_c, 3, 8192
5, 464960, Pitch_bend_c, 3, 8320
5, 465120, Pitch_bend_c, 3, 8192
5, 465280, Pitch_bend_c, 3, 8320
5, 465440, Pitch_bend_c, 3, 8192
5, 465600, Pitch_bend_c, 3, 8320
5, 465760, Pitch_bend_c, 3, 8192
5, 465920, Pitch_bend_c, 3, 8320
5, 466080, Pitch_bend_c, 3, 8192
5, 466080, Pitch_bend_c, 3, 8320
5, 466080, Pitch_bend_c, 3, 8192
5, 466080, Note_off_c, 3, 57, 95
5, 466080, Note_on_c, 3, 55, 95
5, 466240, Pitch_bend_c, 3, 8192
5, 466400, Pitch_bend_c, 3, 8320
5, 466560, Pitch_bend_c, 3, 8192
5, 466720, Pitch_bend_c, 3, 8320
5, 466880, Pitch_bend_c, 3, 8192
5, 467040, Pitch_bend_c, 3, 8320
5, 467200, Pitch_bend_c, 3, 8192
5, 467360, Pitch_bend_c, 3, 8320
5, 467520, Pitch_bend_c, 3, 8192
5, 467520, Pitch_bend_c, 3, 8320
5, 467520, Pitch_bend_c, 3, 8192
5, 467520, Note_off_c, 3, 55, 95
5, 467520, Note_on_c, 3, 55, 95
5, 467680, Pitch_bend_c, 3, 8192
5, 467840, Pitch_bend_c, 3, 8320
5, 468000, Pitch_bend_c, 3, 8192
5, 468000, Pitch_bend_c, 3, 8320
5, 468000, Pitch_bend_c, 3, 8192
5, 468000, Note_off_c, 3, 55, 95
5, 468000, Note_on_c, 3, 50, 95
5, 468160, Pitch_bend_c, 3, 8192
5, 468320, Pitch_bend_c, 3, 8320
5, 468480, Pitch_bend_c, 3, 8192
5, 468480, Pitch_bend_c, 3, 8320
5, 468480, Pitch_bend_c, 3, 8192
5, 468480, Note_off_c, 3, 50, 95
5, 468480, Note_on_c, 3, 50, 95
5, 468640, Pitch_bend_c, 3, 8192
5, 468800, Pitch_bend_c, 3, 8320
5, 468960, Pitch_bend_c, 3, 8192
5, 469120, Pitch_bend_c, 3, 8320
5, 469280, Pitch_bend_c, 3, 8192
5, 469440, Pitch_bend_c, 3, 8320
5, 469440, Pitch_bend_c, 3, 8192
5, 469440, Note_off_c, 3, 50, 95
5, 469440, Note_on_c, 3, 55, 95
5, 469600, Pitch_bend_c, 3, 8192
5, 469760, Pitch_bend_c, 3, 8320
5, 469920, Pitch_bend_c, 3, 8192
5, 469920, Pitch_bend_c, 3, 8320
5, 469920, Pitch_bend_c, 3, 8192
5, 469920, Note_off_c, 3, 55, 95
5, 469920, Note_on_c, 3, 52, 95
5, 470080, Pitch_bend_c, 3, 8192
5, 470240, Pitch_bend_c, 3, 8320
5, 470400, Pitch_bend_c, 3, 8192
5, 470560, Pitch_bend_c, 3, 8320
5, 470720, Pitch_bend_c, 3, 8192
5, 470880, Pitch_bend_c, 3, 8320
5, 470880, Pitch_bend_c, 3, 8192
5, 470880, Note_off_c, 3, 52, 95
5, 470880, Note_on_c, 3, 55, 95
5, 471040, Pitch_bend_c, 3, 8192
5, 471200, Pitch_bend_c, 3, 8320
5, 471360, Pitch_bend_c, 3, 8192
5, 471360, Pitch_bend_c, 3, 8320
5, 471360, Pitch_bend_c, 3, 8192
5, 471360, Note_off_c, 3, 55, 95
5, 471360, Note_on_c, 2, 52, 95
5, 471600, Note_off_c, 2, 52, 95
5, 471600, Note_on_c, 3, 53, 70
5, 471760, Pitch_bend_c, 3, 8192
5, 471840, Pitch_bend_c, 3, 8320
5, 471840, Pitch_bend_c, 3, 8192
5, 471840, Note_off_c, 3, 53, 70
5, 471840, Note_on_c, 3, 55, 95
5, 472000, Pitch_bend_c, 3, 8192
5, 472160, Pitch_bend_c, 3, 8320
5, 472320, Pitch_bend_c, 3, 8192
5, 472320, Pitch_bend_c, 3, 8320
5, 472320, Pitch_bend_c, 3, 8192
5, 472320, Note_off_c, 3, 55, 95
5, 472320, Note_on_c, 3, 52, 95
5, 472480, Pitch_bend_c, 3, 8192
5, 472640, Pitch_bend_c, 3, 8320
5, 472800, Pitch_bend_c, 3, 8192
5, 472960, Pitch_bend_c, 3, 8320
5, 473120, Pitch_bend_c, 3, 8192
5, 473280, Pitch_bend_c, 3, 8320
5, 473440, Pitch_bend_c, 3, 8192
5, 473600, Pitch_bend_c, 3, 8320
5, 473760, Pitch_bend_c, 3, 8192
5, 473920, Pitch_bend_c, 3, 8320
5, 474080, Pitch_bend_c, 3, 8192
5, 474240, Pitch_bend_c, 3, 8320
5, 474240, Pitch_bend_c, 3, 8192
5, 474240, Note_off_c, 3, 52, 95
5, 475680, Note_on_c, 2, 55, 95
5, 476160, Note_off_c, 2, 55, 95
5, 476160, Note_on_c, 3, 60, 95
5, 476320, Pitch_bend_c, 3, 8192
5, 476480, Pitch_bend_c, 3, 8320
5, 476640, Pitch_bend_c, 3, 8192
5, 476800, Pitch_bend_c, 3, 8320
5, 476960, Pitch_bend_c, 3, 8192
5, 477120, Pitch_bend_c, 3, 8320
5, 477280, Pitch_bend_c, 3, 8192
5, 477440, Pitch_bend_c, 3, 8320
5, 477600, Pitch_bend_c, 3, 8192
5, 477760, Pitch_bend_c, 3, 8320
5, 477920, Pitch_bend_c, 3, 8192
5, 478080, Pitch_bend_c, 3, 8320
5, 478080, Pitch_bend_c, 3, 8192
5, 478080, Note_off_c, 3, 60, 95
5, 478080, Note_on_c, 3, 60, 95
5, 478240, Pitch_bend_c, 3, 8192
5, 478400, Pitch_bend_c, 3, 8320
5, 478560, Pitch_bend_c, 3, 8192
5, 478720, Pitch_bend_c, 3, 8320
5, 478720, Pitch_bend_c, 3, 8192
5, 478720, Note_off_c, 3, 60, 95
5, 478720, Note_on_c, 3, 62, 95
5, 478880, Pitch_bend_c, 3, 8192
5, 479040, Pitch_bend_c, 3, 8320
5, 479200, Pitch_bend_c, 3, 8192
5, 479360, Pitch_bend_c, 3, 8320
5, 479360, Pitch_bend_c, 3, 8192
5, 479360, Note_off_c, 3, 62, 95
5, 479360, Pitch_bend_c, 3, 8192
5, 479360, Note_on_c, 3, 64, 95
5, 479410, Pitch_bend_c, 3, 8064
5, 479460, Pitch_bend_c, 3, 7936
5, 479510, Pitch_bend_c, 3, 7808
5, 479560, Pitch_bend_c, 3, 7680
5, 479610, Pitch_bend_c, 3, 7552
5, 479660, Pitch_bend_c, 3, 7424
5, 479710, Pitch_bend_c, 3, 7296
5, 479760, Pitch_bend_c, 3, 7168
5, 479810, Pitch_bend_c, 3, 7040
5, 479860, Pitch_bend_c, 3, 6912
5, 479910, Pitch_bend_c, 3, 6784
5, 479920, Pitch_bend_c, 3, 6784
5, 479970, Pitch_bend_c, 3, 6912
5, 480000, Note_on_c, 3, 59, 47
5, 480020, Pitch_bend_c, 3, 7040
5, 480070, Pitch_bend_c, 3, 7168
5, 480120, Pitch_bend_c, 3, 7296
5, 480160, Pitch_bend_c, 3, 8192
5, 480170, Pitch_bend_c, 3, 7424
5, 480220, Pitch_bend_c, 3, 7552
5, 480270, Pitch_bend_c, 3, 7680
5, 480320, Pitch_bend_c, 3, 7808
5, 480320, Pitch_bend_c, 3, 8320
5, 480370, Pitch_bend_c, 3, 7936
5, 480420, Pitch_bend_c, 3, 8064
5, 480470, Pitch_bend_c, 3, 8192
5, 480480, Pitch_bend_c, 3, 8192
5, 480480, Pitch_bend_c, 3, 8192
5, 480480, Note_off_c, 3, 64, 95
5, 480480, Pitch_bend_c, 3, 8192
5, 480480, Pitch_bend_c, 3, 8320
5, 480480, Pitch_bend_c, 3, 8192
5, 480480, Note_off_c, 3, 59, 47
5, 480480, Note_on_c, 3, 59, 47
5, 480640, Pitch_bend_c, 3, 8192
5, 480800, Pitch_bend_c, 3, 8320
5, 480960, Pitch_bend_c, 3, 8192
5, 480960, Pitch_bend_c, 3, 8320
5, 480960, Pitch_bend_c, 3, 8192
5, 480960, Note_off_c, 3, 59, 47
5, 480960, Note_on_c, 3, 59, 95
5, 481120, Pitch_bend_c, 3, 8192
5, 481280, Pitch_bend_c, 3, 8320
5, 481440, Pitch_bend_c, 3, 8192
5, 481600, Pitch_bend_c, 3, 8320
5, 481760, Pitch_bend_c, 3, 8192
5, 481920, Pitch_bend_c, 3, 8320
5, 481920, Pitch_bend_c, 3, 8192
5, 481920, Note_off_c, 3, 59, 95
5, 481920, Note_on_c, 3, 60, 95
5, 482080, Pitch_bend_c, 3, 8192
5, 482240, Pitch_bend_c, 3, 8320
5, 482400, Pitch_bend_c, 3, 8192
5, 482560, Pitch_bend_c, 3, 8320
5, 482720, Pitch_bend_c, 3, 8192
5, 482880, Pitch_bend_c, 3, 8320
5, 482880, Pitch_bend_c, 3, 8192
5, 482880, Note_off_c, 3, 60, 95
5, 482880, Note_on_c, 3, 62, 95
5, 483040, Pitch_bend_c, 3, 8192
5, 483200, Pitch_bend_c, 3, 8320
5, 483360, Pitch_bend_c, 3, 8192
5, 483520, Pitch_bend_c, 3, 8320
5, 483680, Pitch_bend_c, 3, 8192
5, 483840, Pitch_bend_c, 3, 8320
5, 484000, Pitch_bend_c, 3, 8192
5, 484160, Pitch_bend_c, 3, 8320
5, 484320, Pitch_bend_c, 3, 8192
5, 484320, Pitch_bend_c, 3, 8320
5, 484320, Pitch_bend_c, 3, 8192
5, 484320, Note_off_c, 3, 62, 95
5, 485280, Note_on_c, 2, 55, 95
5, 485760, Note_off_c, 2, 55, 95
5, 485760, Note_on_c, 3, 57, 70
5, 485920, Pitch_bend_c, 3, 8192
5, 486080, Pitch_bend_c, 3, 8320
5, 486240, Pitch_bend_c, 3, 8192
5, 486240, Pitch_bend_c, 3, 8320
5, 486240, Pitch_bend_c, 3, 8192
5, 486240, Note_off_c, 3, 57, 70
5, 486240, Note_on_c, 3, 57, 95
5, 486400, Pitch_bend_c, 3, 8192
5, 486560, Pitch_bend_c, 3, 8320
5, 486720, Pitch_bend_c, 3, 8192
5, 486880, Pitch_bend_c, 3, 8320
5, 487040, Pitch_bend_c, 3, 8192
5, 487200, Pitch_bend_c, 3, 8320
5, 487200, Pitch_bend_c, 3, 8192
5, 487200, Note_off_c, 3, 57, 95
5, 487200, Note_on_c, 2, 55, 95
5, 487680, Note_off_c, 2, 55, 95
5, 487680, Note_on_c, 3, 53, 95
5, 487840, Pitch_bend_c, 3, 8192
5, 488000, Pitch_bend_c, 3, 8320
5, 488160, Pitch_bend_c, 3, 8192
5, 488320, Pitch_bend_c, 3, 8320
5, 488480, Pitch_bend_c, 3, 8192
5, 488640, Pitch_bend_c, 3, 8320
5, 488800, Pitch_bend_c, 3, 8192
5, 488960, Pitch_bend_c, 3, 8320
5, 489120, Pitch_bend_c, 3, 8192
5, 489280, Pitch_bend_c, 3, 8320
5, 489440, Pitch_bend_c, 3, 8192
5, 489600, Pitch_bend_c, 3, 8320
5, 489600, Pitch_bend_c, 3, 8192
5, 489600, Note_off_c, 3, 53, 95
5, 490560, Note_on_c, 3, 53, 95
5, 490720, Pitch_bend_c, 3, 8192
5, 490880, Pitch_bend_c, 3, 8320
5, 491040, Pitch_bend_c, 3, 8192
5, 491040, Pitch_bend_c, 3, 8320
5, 491040, Pitch_bend_c, 3, 8192
5, 491040, Note_off_c, 3, 53, 95
5, 491040, Note_on_c, 3, 52, 95
5, 491200, Pitch_bend_c, 3, 8192
5, 491360, Pitch_bend_c, 3, 8320
5, 491520, Pitch_bend_c, 3, 8192
5, 491520, Pitch_bend_c, 3, 8320
5, 491520, Pitch_bend_c, 3, 8192
5, 491520, Note_off_c, 3, 52, 95
5, 491520, Note_on_c, 3, 50, 95
5, 491680, Pitch_bend_c, 3, 8192
5, 491840, Pitch_bend_c, 3, 8320
5, 492000, Pitch_bend_c, 3, 8192
5, 492160, Pitch_bend_c, 3, 8320
5, 492320, Pitch_bend_c, 3, 8192
5, 492480, Pitch_bend_c, 3, 8320
5, 492640, Pitch_bend_c, 3, 8192
5, 492800, Pitch_bend_c, 3, 8320
5, 492960, Pitch_bend_c, 3, 8192
5, 492960, Pitch_bend_c, 3, 8320
5, 492960, Pitch_bend_c, 3, 8192
5, 492960, Note_off_c, 3, 50, 95
5, 492960, Note_on_c, 3, 59, 95
5, 493120, Pitch_bend_c, 3, 8192
5, 493280, Pitch_bend_c, 3, 8320
5, 493440, Pitch_bend_c, 3, 8192
5, 493600, Pitch_bend_c, 3, 8320
5, 493760, Pitch_bend_c, 3, 8192
5, 493920, Pitch_bend_c, 3, 8320
5, 494080, Pitch_bend_c, 3, 8192
5, 494240, Pitch_bend_c, 3, 8320
5, 494400, Pitch_bend_c, 3, 8192
5, 494400, Pitch_bend_c, 3, 8320
5, 494400, Pitch_bend_c, 3, 8192
5, 494400, Note_off_c, 3, 59, 95
5, 494880, Note_on_c, 3, 59, 95
5, 495040, Pitch_bend_c, 3, 8192
5, 495200, Pitch_bend_c, 3, 8320
5, 495360, Pitch_bend_c, 3, 8192
5, 495360, Pitch_bend_c, 3, 8320
5, 495360, Pitch_bend_c, 3, 8192
5, 495360, Note_off_c, 3, 59, 95
5, 495360, Note_on_c, 3, 57, 95
5, 495520, Pitch_bend_c, 3, 8192
5, 495680, Pitch_bend_c, 3, 8320
5, 495840, Pitch_bend_c, 3, 8192
5, 496000, Pitch_bend_c, 3, 8320
5, 496160, Pitch_bend_c, 3, 8192
5, 496320, Pitch_bend_c, 3, 8320
5, 496480, Pitch_bend_c, 3, 8192
5, 496640, Pitch_bend_c, 3, 8320
5, 496800, Pitch_bend_c, 3, 8192
5, 496800, Pitch_bend_c, 3, 8320
5, 496800, Pitch_bend_c, 3, 8192
5, 496800, Note_off_c, 3, 57, 95
5, 496800, Note_on_c, 3, 55, 95
5, 496960, Pitch_bend_c, 3, 8192
5, 497120, Pitch_bend_c, 3, 8320
5, 497280, Pitch_bend_c, 3, 8192
5, 497440, Pitch_bend_c, 3, 8320
5, 497600, Pitch_bend_c, 3, 8192
5, 497760, Pitch_bend_c, 3, 8320
5, 497920, Pitch_bend_c, 3, 8192
5, 498080, Pitch_bend_c, 3, 8320
5, 498240, Pitch_bend_c, 3, 8192
5, 498240, Pitch_bend_c, 3, 8320
5, 498240, Pitch_bend_c, 3, 8192
5, 498240, Note_off_c, 3, 55, 95
5, 498240, Note_on_c, 3, 55, 95
5, 498400, Pitch_bend_c, 3, 8192
5, 498560, Pitch_bend_c, 3, 8320
5, 498720, Pitch_bend_c, 3, 8192
5, 498720, Pitch_bend_c, 3, 8320
5, 498720, Pitch_bend_c, 3, 8192
5, 498720, Note_off_c, 3, 55, 95
5, 498720, Note_on_c, 3, 50, 95
5, 498880, Pitch_bend_c, 3, 8192
5, 499040, Pitch_bend_c, 3, 8320
5, 499200, Pitch_bend_c, 3, 8192
5, 499200, Pitch_bend_c, 3, 8320
5, 499200, Pitch_bend_c, 3, 8192
5, 499200, Note_off_c, 3, 50, 95
5, 499200, Note_on_c, 3, 50, 95
5, 499360, Pitch_bend_c, 3, 8192
5, 499520, Pitch_bend_c, 3, 8320
5, 499680, Pitch_bend_c, 3, 8192
5, 499840, Pitch_bend_c, 3, 8320
5, 500000, Pitch_bend_c, 3, 8192
5, 500160, Pitch_bend_c, 3, 8320
5, 500160, Pitch_bend_c, 3, 8192
5, 500160, Note_off_c, 3, 50, 95
5, 500160, Note_on_c, 3, 55, 95
5, 500320, Pitch_bend_c, 3, 8192
5, 500480, Pitch_bend_c, 3, 8320
5, 500640, Pitch_bend_c, 3, 8192
5, 500640, Pitch_bend_c, 3, 8320
5, 500640, Pitch_bend_c, 3, 8192
5, 500640, Note_off_c, 3, 55, 95
5, 500640, Note_on_c, 3, 52, 95
5, 500800, Pitch_bend_c, 3, 8192
5, 500960, Pitch_bend_c, 3, 8320
5, 501120, Pitch_bend_c, 3, 8192
5, 501280, Pitch_bend_c, 3, 8320
5, 501440, Pitch_bend_c, 3, 8192
5, 501600, Pitch_bend_c, 3, 8320
5, 501600, Pitch_bend_c, 3, 8192
5, 501600, Note_off_c, 3, 52, 95
5, 501600, Note_on_c, 3, 55, 95
5, 501760, Pitch_bend_c, 3, 8192
5, 501920, Pitch_bend_c, 3, 8320
5, 502080, Pitch_bend_c, 3, 8192
5, 502080, Pitch_bend_c, 3, 8320
5, 502080, Pitch_bend_c, 3, 8192
5, 502080, Note_off_c, 3, 55, 95
5, 502080, Note_on_c, 2, 52, 95
5, 502320, Note_off_c, 2, 52, 95
5, 502320, Note_on_c, 3, 53, 70
5, 502480, Pitch_bend_c, 3, 8192
5, 502560, Pitch_bend_c, 3, 8320
5, 502560, Pitch_bend_c, 3, 8192
5, 502560, Note_off_c, 3, 53, 70
5, 502560, Note_on_c, 3, 55, 95
5, 502720, Pitch_bend_c, 3, 8192
5, 502880, Pitch_bend_c, 3, 8320
5, 503040, Pitch_bend_c, 3, 8192
5, 503040, Pitch_bend_c, 3, 8320
5, 503040, Pitch_bend_c, 3, 8192
5, 503040, Note_off_c, 3, 55, 95
5, 503040, Note_on_c, 3, 52, 95
5, 503200, Pitch_bend_c, 3, 8192
5, 503360, Pitch_bend_c, 3, 8320
5, 503520, Pitch_bend_c, 3, 8192
5, 503680, Pitch_bend_c, 3, 8320
5, 503840, Pitch_bend_c, 3, 8192
5, 504000, Pitch_bend_c, 3, 8320
5, 504160, Pitch_bend_c, 3, 8192
5, 504320, Pitch_bend_c, 3, 8320
5, 504480, Pitch_bend_c, 3, 8192
5, 504640, Pitch_bend_c, 3, 8320
5, 504800, Pitch_bend_c, 3, 8192
5, 504960, Pitch_bend_c, 3, 8320
5, 504960, Pitch_bend_c, 3, 8192
5, 504960, Note_off_c, 3, 52, 95
5, 506400, Note_on_c, 2, 52, 95
5, 506640, Note_off_c, 2, 52, 95
5, 506880, Note_on_c, 2, 52, 95
5, 508320, Note_off_c, 2, 52, 95
5, 508320, Note_on_c, 2, 52, 95
5, 508800, Note_off_c, 2, 52, 95
5, 508800, Note_on_c, 2, 52, 95
5, 509280, Note_off_c, 2, 52, 95
5, 509280, Note_on_c, 2, 55, 95
5, 509760, Note_off_c, 2, 55, 95
5, 510240, Note_on_c, 2, 57, 95
5, 510720, Note_off_c, 2, 57, 95
5, 510720, Note_on_c, 2, 57, 95
5, 511200, Note_off_c, 2, 57, 95
5, 511200, Note_on_c, 2, 57, 95
5, 511680, Note_off_c, 2, 57, 95
5, 512160, Note_on_c, 2, 57, 95
5, 512640, Note_off_c, 2, 57, 95
5, 512640, Note_on_c, 2, 57, 95
5, 513120, Note_off_c, 2, 57, 95
5, 513120, Note_on_c, 2, 60, 95
5, 513600, Note_off_c, 2, 60, 95
5, 514080, Note_on_c, 2, 57, 95
5, 514560, Note_off_c, 2, 57, 95
5, 514560, Note_on_c, 2, 57, 95
5, 515040, Note_off_c, 2, 57, 95
5, 516000, Note_on_c, 2, 57, 95
5, 516480, Note_off_c, 2, 57, 95
5, 516480, Note_on_c, 2, 57, 95
5, 516960, Note_off_c, 2, 57, 95
5, 516960, Note_on_c, 2, 60, 95
5, 517440, Note_off_c, 2, 60, 95
5, 517920, Note_on_c, 2, 60, 95
5, 518400, Note_off_c, 2, 60, 95
5, 518400, Note_on_c, 2, 60, 95
5, 518880, Note_off_c, 2, 60, 95
5, 518880, Note_on_c, 2, 60, 95
5, 519360, Note_off_c, 2, 60, 95
5, 519840, Note_on_c, 2, 60, 95
5, 520320, Note_off_c, 2, 60, 95
5, 520320, Note_on_c, 2, 60, 95
5, 520800, Note_off_c, 2, 60, 95
5, 520800, Note_on_c, 2, 64, 95
5, 521280, Note_off_c, 2, 64, 95
5, 521760, Note_on_c, 2, 59, 95
5, 522240, Note_off_c, 2, 59, 95
5, 522240, Note_on_c, 2, 62, 95
5, 525120, Note_off_c, 2, 62, 95
5, 525120, Note_on_c, 2, 62, 95
5, 525600, Note_off_c, 2, 62, 95
5, 525600, Note_on_c, 2, 60, 95
5, 526080, Note_off_c, 2, 60, 95
5, 526080, Note_on_c, 2, 59, 95
5, 526560, Note_off_c, 2, 59, 95
5, 528000, Note_on_c, 2, 69, 95
5, 528000, Note_on_c, 2, 65, 95
5, 528640, Note_off_c, 2, 69, 95
5, 528640, Note_off_c, 2, 65, 95
5, 528640, Note_on_c, 2, 69, 95
5, 528640, Note_on_c, 2, 65, 95
5, 529280, Note_off_c, 2, 69, 95
5, 529280, Note_off_c, 2, 65, 95
5, 529280, Note_on_c, 2, 69, 95
5, 529280, Note_on_c, 2, 65, 95
5, 529920, Note_off_c, 2, 69, 95
5, 529920, Note_off_c, 2, 65, 95
5, 529920, Note_on_c, 2, 67, 95
5, 529920, Note_on_c, 2, 64, 95
5, 533760, Note_off_c, 2, 67, 95
5, 533760, Note_off_c, 2, 64, 95
5, 537600, Note_on_c, 2, 60, 95
5, 538080, Note_off_c, 2, 60, 95
5, 538080, Note_on_c, 2, 60, 95
5, 538560, Note_off_c, 2, 60, 95
5, 538560, Note_on_c, 2, 60, 95
5, 539040, Note_off_c, 2, 60, 95
5, 539040, Note_on_c, 2, 60, 95
5, 539520, Note_off_c, 2, 60, 95
5, 539520, Note_on_c, 2, 59, 95
5, 540480, Note_off_c, 2, 59, 95
5, 540480, Note_on_c, 2, 59, 95
5, 540960, Note_off_c, 2, 59, 95
5, 540960, Note_on_c, 2, 59, 95
5, 541440, Note_off_c, 2, 59, 95
5, 541440, Note_on_c, 2, 57, 95
5, 541920, Note_off_c, 2, 57, 95
5, 541920, Note_on_c, 2, 57, 95
5, 542400, Note_off_c, 2, 57, 95
5, 542400, Note_on_c, 2, 57, 95
5, 542880, Note_off_c, 2, 57, 95
5, 542880, Note_on_c, 2, 57, 95
5, 543360, Note_off_c, 2, 57, 95
5, 543360, Note_on_c, 2, 57, 95
5, 544000, Note_off_c, 2, 57, 95
5, 544000, Note_on_c, 2, 59, 95
5, 544640, Note_off_c, 2, 59, 95
5, 544640, Note_on_c, 2, 60, 95
5, 545280, Note_off_c, 2, 60, 95
5, 545280, Note_on_c, 2, 53, 95
5, 549120, Note_off_c, 2, 53, 95
5, 552480, Note_on_c, 2, 50, 95
5, 552960, Note_off_c, 2, 50, 95
5, 552960, Note_on_c, 3, 59, 95
5, 553120, Pitch_bend_c, 3, 8192
5, 553280, Pitch_bend_c, 3, 8320
5, 553440, Pitch_bend_c, 3, 8192
5, 553600, Pitch_bend_c, 3, 8320
5, 553760, Pitch_bend_c, 3, 8192
5, 553920, Pitch_bend_c, 3, 8320
5, 554080, Pitch_bend_c, 3, 8192
5, 554240, Pitch_bend_c, 3, 8320
5, 554400, Pitch_bend_c, 3, 8192
5, 554560, Pitch_bend_c, 3, 8320
5, 554720, Pitch_bend_c, 3, 8192
5, 554880, Pitch_bend_c, 3, 8320
5, 555040, Pitch_bend_c, 3, 8192
5, 555200, Pitch_bend_c, 3, 8320
5, 555360, Pitch_bend_c, 3, 8192
5, 555360, Pitch_bend_c, 3, 8320
5, 555360, Pitch_bend_c, 3, 8192
5, 555360, Note_off_c, 3, 59, 95
5, 555360, Note_on_c, 2, 57, 95
5, 556320, Note_off_c, 2, 57, 95
5, 556320, Note_on_c, 2, 57, 95
5, 556800, Note_off_c, 2, 57, 95
5, 556800, Note_on_c, 2, 55, 95
5, 558720, Note_off_c, 2, 55, 95
5, 558720, Note_on_c, 2, 50, 95
5, 559360, Note_off_c, 2, 50, 95
5, 559360, Note_on_c, 2, 52, 95
5, 560000, Note_off_c, 2, 52, 95
5, 560000, Note_on_c, 2, 53, 95
5, 560640, Note_off_c, 2, 53, 95
5, 560640, Note_on_c, 2, 52, 95
5, 564480, Note_off_c, 2, 52, 95
5, 568320, Note_on_c, 2, 60, 95
5, 568800, Note_off_c, 2, 60, 95
5, 568800, Note_on_c, 2, 60, 95
5, 569280, Note_off_c, 2, 60, 95
5, 569280, Note_on_c, 2, 60, 95
5, 569760, Note_off_c, 2, 60, 95
5, 569760, Note_on_c, 2, 60, 95
5, 570240, Note_off_c, 2, 60, 95
5, 570240, Note_on_c, 2, 59, 95
5, 571200, Note_off_c, 2, 59, 95
5, 571200, Note_on_c, 2, 59, 95
5, 571680, Note_off_c, 2, 59, 95
5, 571680, Note_on_c, 2, 59, 95
5, 572160, Note_off_c, 2, 59, 95
5, 572160, Note_on_c, 2, 57, 95
5, 572640, Note_off_c, 2, 57, 95
5, 572640, Note_on_c, 2, 57, 95
5, 573120, Note_off_c, 2, 57, 95
5, 573120, Note_on_c, 2, 57, 95
5, 573600, Note_off_c, 2, 57, 95
5, 573600, Note_on_c, 2, 57, 95
5, 574080, Note_off_c, 2, 57, 95
5, 574080, Note_on_c, 2, 57, 95
5, 574720, Note_off_c, 2, 57, 95
5, 574720, Note_on_c, 2, 59, 95
5, 575360, Note_off_c, 2, 59, 95
5, 575360, Note_on_c, 2, 60, 95
5, 576000, Note_off_c, 2, 60, 95
5, 576000, Note_on_c, 2, 53, 95
5, 577920, Note_off_c, 2, 53, 95
5, 583200, Note_on_c, 2, 50, 95
5, 583680, Note_off_c, 2, 50, 95
5, 583680, Note_on_c, 3, 59, 95
5, 583840, Pitch_bend_c, 3, 8192
5, 584000, Pitch_bend_c, 3, 8320
5, 584160, Pitch_bend_c, 3, 8192
5, 584320, Pitch_bend_c, 3, 8320
5, 584480, Pitch_bend_c, 3, 8192
5, 584640, Pitch_bend_c, 3, 8320
5, 584800, Pitch_bend_c, 3, 8192
5, 584960, Pitch_bend_c, 3, 8320
5, 585120, Pitch_bend_c, 3, 8192
5, 585280, Pitch_bend_c, 3, 8320
5, 585440, Pitch_bend_c, 3, 8192
5, 585600, Pitch_bend_c, 3, 8320
5, 585760, Pitch_bend_c, 3, 8192
5, 585920, Pitch_bend_c, 3, 8320
5, 586080, Pitch_bend_c, 3, 8192
5, 586080, Pitch_bend_c, 3, 8320
5, 586080, Pitch_bend_c, 3, 8192
5, 586080, Note_off_c, 3, 59, 95
5, 586080, Note_on_c, 2, 57, 95
5, 587040, Note_off_c, 2, 57, 95
5, 587040, Note_on_c, 2, 57, 95
5, 587520, Note_off_c, 2, 57, 95
5, 587520, Note_on_c, 2, 55, 95
5, 589440, Note_off_c, 2, 55, 95
5, 589440, Note_on_c, 2, 50, 95
5, 590080, Note_off_c, 2, 50, 95
5, 590080, Note_on_c, 2, 52, 95
5, 590720, Note_off_c, 2, 52, 95
5, 590720, Note_on_c, 2, 53, 95
5, 591360, Note_off_c, 2, 53, 95
5, 591360, Note_on_c, 2, 52, 95
5, 595200, Note_off_c, 2, 52, 95
5, 596640, Note_on_c, 3, 52, 127
5, 596800, Pitch_bend_c, 3, 8192
5, 596960, Pitch_bend_c, 3, 8320
5, 597120, Pitch_bend_c, 3, 8192
5, 597120, Pitch_bend_c, 3, 8320
5, 597120, Pitch_bend_c, 3, 8192
5, 597120, Note_off_c, 3, 52, 127
5, 597120, Note_on_c, 3, 51, 95
5, 597280, Pitch_bend_c, 3, 8192
5, 597440, Pitch_bend_c, 3, 8320
5, 597600, Pitch_bend_c, 3, 8192
5, 597760, Pitch_bend_c, 3, 8320
5, 597920, Pitch_bend_c, 3, 8192
5, 598080, Pitch_bend_c, 3, 8320
5, 598080, Pitch_bend_c, 3, 8192
5, 598080, Note_off_c, 3, 51, 95
5, 598080, Note_on_c, 3, 51, 127
5, 598240, Pitch_bend_c, 3, 8192
5, 598400, Pitch_bend_c, 3, 8320
5, 598560, Pitch_bend_c, 3, 8192
5, 598560, Pitch_bend_c, 3, 8320
5, 598560, Pitch_bend_c, 3, 8192
5, 598560, Note_off_c, 3, 51, 127
5, 598560, Note_on_c, 3, 52, 95
5, 598720, Pitch_bend_c, 3, 8192
5, 598880, Pitch_bend_c, 3, 8320
5, 599040, Pitch_bend_c, 3, 8192
5, 599200, Pitch_bend_c, 3, 8320
5, 599360, Pitch_bend_c, 3, 8192
5, 599520, Pitch_bend_c, 3, 8320
5, 599520, Pitch_bend_c, 3, 8192
5, 599520, Note_off_c, 3, 52, 95
5, 599520, Note_on_c, 2, 56, 127
5, 602880, Note_off_c, 2, 56, 127
5, 602880, Note_on_c, 2, 52, 95
5, 603840, Note_off_c, 2, 52, 95
5, 603840, Note_on_c, 2, 56, 95
5, 604320, Note_off_c, 2, 56, 95
5, 604320, Note_on_c, 2, 59, 95
5, 605280, Note_off_c, 2, 59, 95
5, 605280, Note_on_c, 2, 62, 95
5, 606240, Note_off_c, 2, 62, 95
5, 606240, Note_on_c, 2, 64, 95
5, 606720, Note_off_c, 2, 64, 95
5, 606720, Note_on_c, 2, 60, 127
5, 607680, Note_off_c, 2, 60, 127
5, 607680, Note_on_c, 2, 62, 102
5, 608160, Note_off_c, 2, 62, 102
5, 608160, Note_on_c, 2, 60, 127
5, 608640, Note_off_c, 2, 60, 127
5, 608640, Note_on_c, 2, 60, 95
5, 613440, Note_off_c, 2, 60, 95
5, 613440, Note_on_c, 2, 57, 127
5, 613920, Note_off_c, 2, 57, 127
5, 613920, Note_on_c, 2, 60, 127
5, 614400, Note_off_c, 2, 60, 127
5, 614400, Note_on_c, 2, 62, 127
5, 614880, Note_off_c, 2, 62, 127
5, 614880, Note_on_c, 2, 65, 127
5, 615360, Note_off_c, 2, 65, 127
5, 616320, Note_on_c, 2, 65, 127
5, 616800, Note_off_c, 2, 65, 127
5, 616800, Note_on_c, 2, 67, 127
5, 617280, Note_off_c, 2, 67, 127
5, 618240, Note_on_c, 2, 62, 127
5, 618880, Note_off_c, 2, 62, 127
5, 618880, Note_on_c, 2, 64, 127
5, 619520, Note_off_c, 2, 64, 127
5, 619520, Note_on_c, 2, 64, 127
5, 621120, Note_off_c, 2, 64, 127
5, 621120, Note_on_c, 2, 57, 127
5, 621600, Note_off_c, 2, 57, 127
5, 621600, Note_on_c, 2, 60, 127
5, 622080, Note_off_c, 2, 60, 127
5, 622080, Note_on_c, 2, 62, 127
5, 622560, Note_off_c, 2, 62, 127
5, 622560, Note_on_c, 2, 65, 127
5, 623040, Note_off_c, 2, 65, 127
5, 624000, Note_on_c, 2, 65, 127
5, 624480, Note_off_c, 2, 65, 127
5, 624480, Note_on_c, 2, 67, 127
5, 624960, Note_off_c, 2, 67, 127
5, 625920, Note_on_c, 2, 62, 127
5, 626560, Note_off_c, 2, 62, 127
5, 626560, Note_on_c, 2, 64, 127
5, 627200, Note_off_c, 2, 64, 127
5, 627200, Note_on_c, 2, 64, 127
5, 628800, Note_off_c, 2, 64, 127
5, 628800, Note_on_c, 2, 52, 127
5, 629280, Note_off_c, 2, 52, 127
5, 629280, Note_on_c, 2, 52, 127
5, 629760, Note_off_c, 2, 52, 127
5, 629760, Note_on_c, 2, 59, 127
5, 631680, Note_off_c, 2, 59, 127
5, 631680, Note_on_c, 2, 59, 127
5, 632160, Note_off_c, 2, 59, 127
5, 632160, Note_on_c, 2, 57, 127
5, 633120, Note_off_c, 2, 57, 127
5, 633120, Note_on_c, 2, 57, 127
5, 633600, Note_off_c, 2, 57, 127
5, 633600, Note_on_c, 2, 55, 95
5, 634560, Note_off_c, 2, 55, 95
5, 634560, Note_on_c, 2, 55, 95
5, 635520, Note_off_c, 2, 55, 95
5, 635520, Note_on_c, 2, 50, 95
5, 636160, Note_off_c, 2, 50, 95
5, 636160, Note_on_c, 2, 52, 95
5, 636800, Note_off_c, 2, 52, 95
5, 636800, Note_on_c, 2, 53, 95
5, 637440, Note_off_c, 2, 53, 95
5, 637440, Note_on_c, 2, 52, 127
5, 641280, Note_off_c, 2, 52, 127
5, 645120, Note_on_c, 2, 60, 95
5, 645600, Note_off_c, 2, 60, 95
5, 645600, Note_on_c, 2, 60, 95
5, 646080, Note_off_c, 2, 60, 95
5, 646080, Note_on_c, 2, 60, 95
5, 646560, Note_off_c, 2, 60, 95
5, 646560, Note_on_c, 2, 60, 95
5, 647040, Note_off_c, 2, 60, 95
5, 647040, Note_on_c, 2, 59, 95
5, 648000, Note_off_c, 2, 59, 95
5, 648000, Note_on_c, 2, 59, 95
5, 648480, Note_off_c, 2, 59, 95
5, 648480, Note_on_c, 2, 59, 95
5, 648960, Note_off_c, 2, 59, 95
5, 648960, Note_on_c, 2, 57, 95
5, 649440, Note_off_c, 2, 57, 95
5, 649440, Note_on_c, 2, 57, 95
5, 649920, Note_off_c, 2, 57, 95
5, 649920, Note_on_c, 2, 57, 95
5, 650400, Note_off_c, 2, 57, 95
5, 650400, Note_on_c, 2, 57, 95
5, 650880, Note_off_c, 2, 57, 95
5, 650880, Note_on_c, 2, 57, 95
5, 651520, Note_off_c, 2, 57, 95
5, 651520, Note_on_c, 2, 59, 95
5, 652160, Note_off_c, 2, 59, 95
5, 652160, Note_on_c, 2, 60, 95
5, 652800, Note_off_c, 2, 60, 95
5, 652800, Note_on_c, 2, 53, 95
5, 656640, Note_off_c, 2, 53, 95
5, 660000, Note_on_c, 2, 50, 95
5, 660480, Note_off_c, 2, 50, 95
5, 660480, Note_on_c, 3, 59, 95
5, 660640, Pitch_bend_c, 3, 8192
5, 660800, Pitch_bend_c, 3, 8320
5, 660960, Pitch_bend_c, 3, 8192
5, 661120, Pitch_bend_c, 3, 8320
5, 661280, Pitch_bend_c, 3, 8192
5, 661440, Pitch_bend_c, 3, 8320
5, 661600, Pitch_bend_c, 3, 8192
5, 661760, Pitch_bend_c, 3, 8320
5, 661920, Pitch_bend_c, 3, 8192
5, 662080, Pitch_bend_c, 3, 8320
5, 662240, Pitch_bend_c, 3, 8192
5, 662400, Pitch_bend_c, 3, 8320
5, 662560, Pitch_bend_c, 3, 8192
5, 662720, Pitch_bend_c, 3, 8320
5, 662880, Pitch_bend_c, 3, 8192
5, 662880, Pitch_bend_c, 3, 8320
5, 662880, Pitch_bend_c, 3, 8192
5, 662880, Note_off_c, 3, 59, 95
5, 662880, Note_on_c, 2, 57, 95
5, 663840, Note_off_c, 2, 57, 95
5, 663840, Note_on_c, 2, 57, 95
5, 664320, Note_off_c, 2, 57, 95
5, 664320, Note_on_c, 2, 55, 95
5, 666240, Note_off_c, 2, 55, 95
5, 666240, Note_on_c, 2, 50, 95
5, 666880, Note_off_c, 2, 50, 95
5, 666880, Note_on_c, 2, 52, 95
5, 667520, Note_off_c, 2, 52, 95
5, 667520, Note_on_c, 2, 53, 95
5, 668160, Note_off_c, 2, 53, 95
5, 668160, Note_on_c, 2, 52, 95
5, 672000, Note_off_c, 2, 52, 95
5, 675840, Note_on_c, 2, 60, 95
5, 676320, Note_off_c, 2, 60, 95
5, 676320, Note_on_c, 2, 60, 95
5, 676800, Note_off_c, 2, 60, 95
5, 676800, Note_on_c, 2, 60, 95
5, 677280, Note_off_c, 2, 60, 95
5, 677280, Note_on_c, 2, 60, 95
5, 677760, Note_off_c, 2, 60, 95
5, 677760, Note_on_c, 2, 59, 95
5, 678720, Note_off_c, 2, 59, 95
5, 678720, Note_on_c, 2, 59, 95
5, 679200, Note_off_c, 2, 59, 95
5, 679200, Note_on_c, 2, 59, 95
5, 679680, Note_off_c, 2, 59, 95
5, 679680, Note_on_c, 2, 57, 95
5, 680160, Note_off_c, 2, 57, 95
5, 680160, Note_on_c, 2, 57, 95
5, 680640, Note_off_c, 2, 57, 95
5, 680640, Note_on_c, 2, 57, 95
5, 681120, Note_off_c, 2, 57, 95
5, 681120, Note_on_c, 2, 57, 95
5, 681600, Note_off_c, 2, 57, 95
5, 681600, Note_on_c, 2, 57, 95
5, 682240, Note_off_c, 2, 57, 95
5, 682240, Note_on_c, 2, 59, 95
5, 682880, Note_off_c, 2, 59, 95
5, 682880, Note_on_c, 2, 60, 95
5, 683520, Note_off_c, 2, 60, 95
5, 683520, Note_on_c, 2, 53, 95
5, 687360, Note_off_c, 2, 53, 95
5, 690720, Note_on_c, 2, 50, 95
5, 691200, Note_off_c, 2, 50, 95
5, 691200, Note_on_c, 3, 59, 95
5, 691360, Pitch_bend_c, 3, 8192
5, 691520, Pitch_bend_c, 3, 8320
5, 691680, Pitch_bend_c, 3, 8192
5, 691840, Pitch_bend_c, 3, 8320
5, 692000, Pitch_bend_c, 3, 8192
5, 692160, Pitch_bend_c, 3, 8320
5, 692320, Pitch_bend_c, 3, 8192
5, 692480, Pitch_bend_c, 3, 8320
5, 692640, Pitch_bend_c, 3, 8192
5, 692800, Pitch_bend_c, 3, 8320
5, 692960, Pitch_bend_c, 3, 8192
5, 693120, Pitch_bend_c, 3, 8320
5, 693280, Pitch_bend_c, 3, 8192
5, 693440, Pitch_bend_c, 3, 8320
5, 693600, Pitch_bend_c, 3, 8192
5, 693600, Pitch_bend_c, 3, 8320
5, 693600, Pitch_bend_c, 3, 8192
5, 693600, Note_off_c, 3, 59, 95
5, 693600, Note_on_c, 2, 57, 95
5, 694560, Note_off_c, 2, 57, 95
5, 694560, Note_on_c, 2, 57, 95
5, 695040, Note_off_c, 2, 57, 95
5, 695040, Note_on_c, 2, 55, 95
5, 695520, Note_off_c, 2, 55, 95
5, 696960, Note_on_c, 2, 69, 95
5, 696960, Note_on_c, 2, 65, 95
5, 697600, Note_off_c, 2, 69, 95
5, 697600, Note_off_c, 2, 65, 95
5, 697600, Note_on_c, 2, 69, 95
5, 697600, Note_on_c, 2, 65, 95
5, 698240, Note_off_c, 2, 69, 95
5, 698240, Note_off_c, 2, 65, 95
5, 698240, Note_on_c, 2, 69, 95
5, 698240, Note_on_c, 2, 65, 95
5, 698880, Note_off_c, 2, 69, 95
5, 698880, Note_off_c, 2, 65, 95
5, 698880, Note_on_c, 2, 67, 95
5, 698880, Note_on_c, 2, 64, 127
5, 702720, Note_off_c, 2, 67, 95
5, 702720, Note_off_c, 2, 64, 127
5, 702720, End_track
0, 0, End_of_file
