0, 0, Header, 1, 13, 384
1, 0, Start_track
1, 0, Title_t, "untitled"
1, 0, Time_signature, 4, 2, 24, 8
1, 0, Key_signature, 0, "major"
1, 0, Tempo, 606061
1, 0, End_track
2, 0, Start_track
2, 0, Title_t, "Soft Karaoke"
2, 0, Text_t, "@K"
2, 0, Text_t, "@V0"
2, 0, Text_t, "@I"
2, 0, End_track
3, 0, Start_track
3, 0, Title_t, "Words"
3, 0, Text_t, "@LFren"
3, 0, Text_t, "@TJe danse dans ma tête"
3, 0, Text_t, "@TCéline Dion"
3, 6144, Text_t, "\\L'a"
3, 6338, Text_t, "ve"
3, 6442, Text_t, "nir "
3, 6640, Text_t, "est "
3, 6826, Text_t, "pla"
3, 7018, Text_t, "né"
3, 7198, Text_t, "taire"
3, 7402, Text_t, "/Y'a "
3, 7594, Text_t, "six "
3, 7868, Text_t, "mil"
3, 7972, Text_t, "liards "
3, 8160, Text_t, "d'hu"
3, 8344, Text_t, "mains "
3, 8530, Text_t, "sur "
3, 8726, Text_t, "terre"
3, 8944, Text_t, "/Mais "
3, 9124, Text_t, "cha"
3, 9356, Text_t, "cun "
3, 9506, Text_t, "vie "
3, 9674, Text_t, "sa "
3, 9870, Text_t, "vie "
3, 10052, Text_t, "en "
3, 10234, Text_t, "so"
3, 10436, Text_t, "li"
3, 10622, Text_t, "taire"
3, 12288, Text_t, "\\Cha"
3, 12482, Text_t, "cun "
3, 12586, Text_t, "a "
3, 12784, Text_t, "ses "
3, 12970, Text_t, "ha"
3, 13162, Text_t, "bi"
3, 13342, Text_t, "tudes "
3, 13738, Text_t, "/Cha"
3, 14012, Text_t, "cun "
3, 14116, Text_t, "a "
3, 14304, Text_t, "ses "
3, 14488, Text_t, "cer"
3, 14674, Text_t, "ti"
3, 14870, Text_t, "tudes"
3, 15088, Text_t, "/Et "
3, 15268, Text_t, "l'a"
3, 15500, Text_t, "mour "
3, 15650, Text_t, "est "
3, 15818, Text_t, "la "
3, 16014, Text_t, "pire "
3, 16196, Text_t, "des "
3, 16378, Text_t, "so"
3, 16580, Text_t, "li"
3, 16766, Text_t, "tudes"
3, 24576, Text_t, "/Quand "
3, 24770, Text_t, "l'u"
3, 24874, Text_t, "ni"
3, 25072, Text_t, "vers "
3, 25258, Text_t, "m'in"
3, 25450, Text_t, "dif"
3, 25630, Text_t, "fère"
3, 25834, Text_t, "/Quand "
3, 26026, Text_t, "j'ai "
3, 26300, Text_t, "plus "
3, 26404, Text_t, "en"
3, 26592, Text_t, "vie "
3, 26776, Text_t, "de "
3, 26962, Text_t, "rien "
3, 27158, Text_t, "faire"
3, 27376, Text_t, "/Quand "
3, 27556, Text_t, "la "
3, 27788, Text_t, "vie "
3, 27938, Text_t, "m'en"
3, 28106, Text_t, "dort "
3, 28302, Text_t, "comme "
3, 28484, Text_t, "un "
3, 28666, Text_t, "som"
3, 28868, Text_t, "ni"
3, 29054, Text_t, "fère"
3, 30720, Text_t, "\\J'ai "
3, 30914, Text_t, "in"
3, 31018, Text_t, "ven"
3, 31216, Text_t, "té "
3, 31402, Text_t, "la "
3, 31594, Text_t, "for"
3, 31774, Text_t, "mule"
3, 31978, Text_t, "/Qui "
3, 32170, Text_t, "vaut "
3, 32444, Text_t, "mieux "
3, 32548, Text_t, "que "
3, 32736, Text_t, "toutes "
3, 32920, Text_t, "les "
3, 33106, Text_t, "pi"
3, 33302, Text_t, "lules"
3, 33520, Text_t, "/Même "
3, 33700, Text_t, "si "
3, 33932, Text_t, "ça "
3, 34082, Text_t, "me "
3, 34250, Text_t, "donne "
3, 34446, Text_t, "l'air "
3, 34628, Text_t, "d'une "
3, 34810, Text_t, "som"
3, 35012, Text_t, "nam"
3, 35198, Text_t, "bule"
3, 36592, Text_t, "\\Je "
3, 36646, Text_t, "dan "
3, 36702, Text_t, "dan "
3, 36760, Text_t, "dan "
3, 36872, Text_t, "danse "
3, 37250, Text_t, "dans "
3, 37444, Text_t, "ma "
3, 37532, Text_t, "tête "
3, 39664, Text_t, "/Je "
3, 39718, Text_t, "dan "
3, 39774, Text_t, "dan "
3, 39832, Text_t, "dan "
3, 39944, Text_t, "danse "
3, 40322, Text_t, "dans "
3, 40516, Text_t, "ma "
3, 40604, Text_t, "tête "
3, 42736, Text_t, "/Je "
3, 42790, Text_t, "dan "
3, 42846, Text_t, "dan "
3, 42904, Text_t, "dan "
3, 43016, Text_t, "danse "
3, 43394, Text_t, "dans "
3, 43588, Text_t, "ma "
3, 43676, Text_t, "tête "
3, 51838, Text_t, "\\Que "
3, 52010, Text_t, "je "
3, 52224, Text_t, "sois "
3, 52390, Text_t, "de"
3, 52614, Text_t, "bout "
3, 52790, Text_t, "dans "
3, 52984, Text_t, "le "
3, 53370, Text_t, "mé"
3, 53374, Text_t, "tro "
3, 54910, Text_t, "/Que "
3, 55082, Text_t, "je "
3, 55296, Text_t, "sois "
3, 55462, Text_t, "as"
3, 55686, Text_t, "sise "
3, 55862, Text_t, "à "
3, 56056, Text_t, "mon "
3, 56442, Text_t, "bu"
3, 56446, Text_t, "reau "
3, 57964, Text_t, "/Tous "
3, 58154, Text_t, "les "
3, 58368, Text_t, "jours "
3, 58536, Text_t, "ce "
3, 58732, Text_t, "sont "
3, 58920, Text_t, "les "
3, 59126, Text_t, "mêmes"
3, 59518, Text_t, "/Ce "
3, 59700, Text_t, "sont "
3, 59818, Text_t, "les "
3, 60006, Text_t, "mêmes "
3, 60076, Text_t, "mots"
3, 60578, Text_t, "/Les "
3, 60638, Text_t, "mê"
3, 60762, Text_t, "mes "
3, 60844, Text_t, "gestes "
3, 60964, Text_t, "de "
3, 61058, Text_t, "ro"
3, 61262, Text_t, "bot "
3, 63942, Text_t, "\\Y'a "
3, 64144, Text_t, "d'quoi "
3, 64308, Text_t, "de"
3, 64400, Text_t, "v'nir "
3, 65892, Text_t, "fou"
3, 66752, Text_t, "/Et "
3, 66802, Text_t, "vous "
3, 66926, Text_t, "qu'en "
3, 67000, Text_t, "pen"
3, 67126, Text_t, "sez "
3, 67222, Text_t, "vous ? "
3, 68136, Text_t, "/Y'a "
3, 68192, Text_t, "vrai"
3, 68206, Text_t, "ment "
3, 68286, Text_t, "d'quoi "
3, 69422, Text_t, "de"
3, 69442, Text_t, "v'nir "
3, 69510, Text_t, "fou"
3, 69888, Text_t, "/Mais "
3, 70074, Text_t, "moi "
3, 70264, Text_t, "je "
3, 70462, Text_t, "m'en "
3, 71602, Text_t, "fouts ..."
3, 73456, Text_t, "\\Je "
3, 73510, Text_t, "dan "
3, 73566, Text_t, "dan "
3, 73624, Text_t, "dan "
3, 73736, Text_t, "danse "
3, 74114, Text_t, "dans "
3, 74308, Text_t, "ma "
3, 74396, Text_t, "tête "
3, 76528, Text_t, "/Je "
3, 76582, Text_t, "dan "
3, 76638, Text_t, "dan "
3, 76696, Text_t, "dan "
3, 76808, Text_t, "danse "
3, 77186, Text_t, "dans "
3, 77380, Text_t, "ma "
3, 77468, Text_t, "tête "
3, 79600, Text_t, "/Je "
3, 79654, Text_t, "dan "
3, 79710, Text_t, "dan "
3, 79768, Text_t, "dan "
3, 79880, Text_t, "danse "
3, 80258, Text_t, "dans "
3, 80452, Text_t, "ma "
3, 80540, Text_t, "tête "
3, 82672, Text_t, "/Je "
3, 82726, Text_t, "dan "
3, 82782, Text_t, "dan "
3, 82840, Text_t, "dan "
3, 82952, Text_t, "danse "
3, 83330, Text_t, "dans "
3, 83524, Text_t, "ma "
3, 83612, Text_t, "tête "
3, 92160, Text_t, "\\Quoi "
3, 92354, Text_t, "qu'on "
3, 92458, Text_t, "fasse "
3, 92656, Text_t, "ou "
3, 92842, Text_t, "quoi "
3, 93034, Text_t, "qu'on "
3, 93214, Text_t, "dise"
3, 93418, Text_t, "/De "
3, 93610, Text_t, "par"
3, 93884, Text_t, "tout "
3, 93988, Text_t, "on "
3, 94176, Text_t, "nous "
3, 94360, Text_t, "sa"
3, 94546, Text_t, "tel"
3, 94742, Text_t, "lise"
3, 94960, Text_t, "/On "
3, 95140, Text_t, "nous "
3, 95372, Text_t, "é"
3, 95522, Text_t, "pie, "
3, 95690, Text_t, "on "
3, 95886, Text_t, "nous "
3, 96068, Text_t, "in"
3, 96250, Text_t, "for"
3, 96452, Text_t, "ma"
3, 96638, Text_t, "tise"
3, 98304, Text_t, "/A "
3, 98498, Text_t, "force "
3, 98602, Text_t, "de "
3, 98800, Text_t, "la "
3, 98986, Text_t, "re"
3, 99178, Text_t, "gar"
3, 99358, Text_t, "der"
3, 99562, Text_t, "/Je "
3, 99754, Text_t, "com"
3, 100028, Text_t, "mence "
3, 100132, Text_t, "à "
3, 100320, Text_t, "me "
3, 100504, Text_t, "de"
3, 100690, Text_t, "man"
3, 100886, Text_t, "der"
3, 101104, Text_t, "/Si "
3, 101284, Text_t, "ma "
3, 101516, Text_t, "té"
3, 101666, Text_t, "lé "
3, 101834, Text_t, "ne "
3, 102030, Text_t, "va "
3, 102212, Text_t, "pas "
3, 102394, Text_t, "m'a"
3, 102596, Text_t, "va"
3, 102782, Text_t, "ler"
3, 104062, Text_t, "\\De"
3, 104234, Text_t, "hors "
3, 104448, Text_t, "les "
3, 104614, Text_t, "né"
3, 104838, Text_t, "ons "
3, 105014, Text_t, "s'al"
3, 105208, Text_t, "lument"
3, 105594, Text_t, "/All "
3, 105904, Text_t, "right ! "
3, 107134, Text_t, "/J'pré"
3, 107306, Text_t, "fère "
3, 107520, Text_t, "re"
3, 107686, Text_t, "gar"
3, 107910, Text_t, "der "
3, 108086, Text_t, "la "
3, 108280, Text_t, "lune"
3, 108666, Text_t, "/All "
3, 108976, Text_t, "night "
3, 110188, Text_t, "/E"
3, 110378, Text_t, "ten"
3, 110592, Text_t, "due "
3, 110760, Text_t, "nue "
3, 110956, Text_t, "sur "
3, 111144, Text_t, "mon "
3, 111350, Text_t, "lit"
3, 111742, Text_t, "/Dans "
3, 111924, Text_t, "la "
3, 112042, Text_t, "cha"
3, 112300, Text_t, "leur"
3, 112802, Text_t, "/Dans "
3, 112862, Text_t, "la "
3, 112986, Text_t, "cha"
3, 113188, Text_t, "leur "
3, 114920, Text_t, "de "
3, 114988, Text_t, "la "
3, 115178, Text_t, "nuit"
3, 116166, Text_t, "/Les "
3, 116368, Text_t, "si"
3, 116624, Text_t, "rènes "
3, 117654, Text_t, "de "
3, 117756, Text_t, "po"
3, 118116, Text_t, "lice"
3, 118976, Text_t, "/Hur"
3, 119150, Text_t, "lent "
3, 119224, Text_t, "com"
3, 119446, Text_t, "me "
3, 119524, Text_t, "des "
3, 119636, Text_t, "loups "
3, 121564, Text_t, "/Je "
3, 121646, Text_t, "vou"
3, 121666, Text_t, "drais "
3, 121734, Text_t, "comme "
3, 122112, Text_t, "A"
3, 122298, Text_t, "lice"
3, 122488, Text_t, "/Tom"
3, 122686, Text_t, "ber "
3, 123442, Text_t, "dans "
3, 123578, Text_t, "un "
3, 123642, Text_t, "grand "
3, 123826, Text_t, "trou ..."
3, 125680, Text_t, "\\Je "
3, 125734, Text_t, "dan "
3, 125790, Text_t, "dan "
3, 125848, Text_t, "dan "
3, 125960, Text_t, "danse "
3, 126338, Text_t, "dans "
3, 126532, Text_t, "ma "
3, 126620, Text_t, "tête "
3, 128752, Text_t, "/Je "
3, 128806, Text_t, "dan "
3, 128862, Text_t, "dan "
3, 128920, Text_t, "dan "
3, 129032, Text_t, "danse "
3, 129410, Text_t, "dans "
3, 129604, Text_t, "ma "
3, 129692, Text_t, "tête "
3, 131824, Text_t, "/Je "
3, 131878, Text_t, "dan "
3, 131934, Text_t, "dan "
3, 131992, Text_t, "dan "
3, 132104, Text_t, "danse "
3, 132482, Text_t, "dans "
3, 132676, Text_t, "ma "
3, 132764, Text_t, "tête "
3, 134896, Text_t, "/Je "
3, 134950, Text_t, "dan "
3, 135006, Text_t, "dan "
3, 135064, Text_t, "dan "
3, 135176, Text_t, "danse "
3, 135554, Text_t, "dans "
3, 135748, Text_t, "ma "
3, 135836, Text_t, "tête "
3, 147184, Text_t, "/Je "
3, 147238, Text_t, "dan "
3, 147294, Text_t, "dan "
3, 147352, Text_t, "dan "
3, 147464, Text_t, "danse "
3, 147842, Text_t, "dans "
3, 148036, Text_t, "ma "
3, 148124, Text_t, "tête "
3, 150256, Text_t, "/Je "
3, 150310, Text_t, "dan "
3, 150366, Text_t, "dan "
3, 150424, Text_t, "dan "
3, 150536, Text_t, "danse "
3, 150914, Text_t, "dans "
3, 151108, Text_t, "ma "
3, 151196, Text_t, "tête "
3, 153328, Text_t, "/Je "
3, 153382, Text_t, "dan "
3, 153438, Text_t, "dan "
3, 153496, Text_t, "dan "
3, 153608, Text_t, "danse "
3, 153986, Text_t, "dans "
3, 154180, Text_t, "ma "
3, 154268, Text_t, "tête "
3, 156400, Text_t, "/Je "
3, 156454, Text_t, "dan "
3, 156510, Text_t, "dan "
3, 156568, Text_t, "dan "
3, 156680, Text_t, "danse "
3, 157058, Text_t, "dans "
3, 157252, Text_t, "ma "
3, 157340, Text_t, "tête ... "
3, 157340, End_track
4, 0, Start_track
4, 0, MIDI_port, 0
4, 0, Program_c, 9, 9
4, 0, Control_c, 9, 7, 110
4, 0, Control_c, 9, 10, 64
4, 0, Control_c, 9, 121, 0
4, 0, Control_c, 9, 91, 70
4, 0, Control_c, 9, 93, 0
4, 0, Note_on_c, 9, 35, 84
4, 0, Note_on_c, 9, 42, 84
4, 32, Note_on_c, 9, 42, 0
4, 32, Note_on_c, 9, 35, 0
4, 128, Note_on_c, 9, 42, 68
4, 128, Note_on_c, 9, 51, 100
4, 160, Note_on_c, 9, 42, 0
4, 192, Note_on_c, 9, 51, 0
4, 192, Note_on_c, 9, 42, 84
4, 224, Note_on_c, 9, 42, 0
4, 320, Note_on_c, 9, 35, 84
4, 320, Note_on_c, 9, 42, 68
4, 352, Note_on_c, 9, 42, 0
4, 352, Note_on_c, 9, 35, 0
4, 384, Note_on_c, 9, 40, 100
4, 384, Note_on_c, 9, 42, 84
4, 416, Note_on_c, 9, 42, 0
4, 512, Note_on_c, 9, 42, 68
4, 544, Note_on_c, 9, 42, 0
4, 576, Note_on_c, 9, 40, 0
4, 576, Note_on_c, 9, 35, 84
4, 576, Note_on_c, 9, 42, 84
4, 608, Note_on_c, 9, 42, 0
4, 608, Note_on_c, 9, 35, 0
4, 704, Note_on_c, 9, 42, 68
4, 736, Note_on_c, 9, 42, 0
4, 768, Note_on_c, 9, 42, 84
4, 800, Note_on_c, 9, 42, 0
4, 896, Note_on_c, 9, 35, 84
4, 896, Note_on_c, 9, 42, 68
4, 928, Note_on_c, 9, 42, 0
4, 928, Note_on_c, 9, 35, 0
4, 960, Note_on_c, 9, 42, 84
4, 992, Note_on_c, 9, 42, 0
4, 1088, Note_on_c, 9, 35, 84
4, 1088, Note_on_c, 9, 42, 68
4, 1120, Note_on_c, 9, 42, 0
4, 1120, Note_on_c, 9, 35, 0
4, 1152, Note_on_c, 9, 40, 100
4, 1152, Note_on_c, 9, 42, 84
4, 1184, Note_on_c, 9, 42, 0
4, 1280, Note_on_c, 9, 42, 68
4, 1312, Note_on_c, 9, 42, 0
4, 1344, Note_on_c, 9, 40, 0
4, 1344, Note_on_c, 9, 46, 84
4, 1440, Note_on_c, 9, 46, 0
4, 1536, Note_on_c, 9, 35, 84
4, 1536, Note_on_c, 9, 42, 84
4, 1568, Note_on_c, 9, 42, 0
4, 1568, Note_on_c, 9, 35, 0
4, 1664, Note_on_c, 9, 42, 68
4, 1664, Note_on_c, 9, 51, 100
4, 1696, Note_on_c, 9, 42, 0
4, 1728, Note_on_c, 9, 51, 0
4, 1728, Note_on_c, 9, 42, 84
4, 1760, Note_on_c, 9, 42, 0
4, 1856, Note_on_c, 9, 35, 84
4, 1856, Note_on_c, 9, 42, 68
4, 1888, Note_on_c, 9, 42, 0
4, 1888, Note_on_c, 9, 35, 0
4, 1920, Note_on_c, 9, 40, 100
4, 1920, Note_on_c, 9, 42, 84
4, 1952, Note_on_c, 9, 42, 0
4, 2048, Note_on_c, 9, 42, 68
4, 2080, Note_on_c, 9, 42, 0
4, 2112, Note_on_c, 9, 40, 0
4, 2112, Note_on_c, 9, 35, 84
4, 2112, Note_on_c, 9, 42, 84
4, 2144, Note_on_c, 9, 42, 0
4, 2144, Note_on_c, 9, 35, 0
4, 2240, Note_on_c, 9, 42, 68
4, 2272, Note_on_c, 9, 42, 0
4, 2304, Note_on_c, 9, 42, 84
4, 2336, Note_on_c, 9, 42, 0
4, 2432, Note_on_c, 9, 35, 84
4, 2432, Note_on_c, 9, 42, 68
4, 2432, Note_on_c, 9, 51, 100
4, 2464, Note_on_c, 9, 42, 0
4, 2464, Note_on_c, 9, 35, 0
4, 2496, Note_on_c, 9, 51, 0
4, 2496, Note_on_c, 9, 42, 84
4, 2528, Note_on_c, 9, 42, 0
4, 2624, Note_on_c, 9, 35, 84
4, 2624, Note_on_c, 9, 42, 68
4, 2656, Note_on_c, 9, 42, 0
4, 2656, Note_on_c, 9, 35, 0
4, 2688, Note_on_c, 9, 40, 100
4, 2688, Note_on_c, 9, 42, 84
4, 2720, Note_on_c, 9, 42, 0
4, 2816, Note_on_c, 9, 42, 68
4, 2848, Note_on_c, 9, 42, 0
4, 2880, Note_on_c, 9, 40, 0
4, 2880, Note_on_c, 9, 46, 84
4, 2976, Note_on_c, 9, 46, 0
4, 3072, Note_on_c, 9, 35, 84
4, 3072, Note_on_c, 9, 42, 84
4, 3104, Note_on_c, 9, 42, 0
4, 3104, Note_on_c, 9, 35, 0
4, 3200, Note_on_c, 9, 42, 68
4, 3200, Note_on_c, 9, 51, 100
4, 3232, Note_on_c, 9, 42, 0
4, 3264, Note_on_c, 9, 51, 0
4, 3264, Note_on_c, 9, 42, 84
4, 3296, Note_on_c, 9, 42, 0
4, 3392, Note_on_c, 9, 35, 84
4, 3392, Note_on_c, 9, 42, 68
4, 3424, Note_on_c, 9, 42, 0
4, 3424, Note_on_c, 9, 35, 0
4, 3456, Note_on_c, 9, 40, 100
4, 3456, Note_on_c, 9, 42, 84
4, 3488, Note_on_c, 9, 42, 0
4, 3584, Note_on_c, 9, 42, 68
4, 3616, Note_on_c, 9, 42, 0
4, 3648, Note_on_c, 9, 40, 0
4, 3648, Note_on_c, 9, 35, 84
4, 3648, Note_on_c, 9, 42, 84
4, 3680, Note_on_c, 9, 42, 0
4, 3680, Note_on_c, 9, 35, 0
4, 3776, Note_on_c, 9, 42, 68
4, 3808, Note_on_c, 9, 42, 0
4, 3840, Note_on_c, 9, 42, 84
4, 3872, Note_on_c, 9, 42, 0
4, 3968, Note_on_c, 9, 35, 84
4, 3968, Note_on_c, 9, 42, 68
4, 4000, Note_on_c, 9, 42, 0
4, 4000, Note_on_c, 9, 35, 0
4, 4032, Note_on_c, 9, 42, 84
4, 4064, Note_on_c, 9, 42, 0
4, 4160, Note_on_c, 9, 35, 84
4, 4160, Note_on_c, 9, 42, 68
4, 4192, Note_on_c, 9, 42, 0
4, 4192, Note_on_c, 9, 35, 0
4, 4224, Note_on_c, 9, 40, 100
4, 4224, Note_on_c, 9, 42, 84
4, 4256, Note_on_c, 9, 42, 0
4, 4352, Note_on_c, 9, 42, 68
4, 4384, Note_on_c, 9, 42, 0
4, 4416, Note_on_c, 9, 40, 0
4, 4416, Note_on_c, 9, 46, 84
4, 4512, Note_on_c, 9, 46, 0
4, 4608, Note_on_c, 9, 35, 84
4, 4608, Note_on_c, 9, 42, 84
4, 4640, Note_on_c, 9, 42, 0
4, 4640, Note_on_c, 9, 35, 0
4, 4736, Note_on_c, 9, 42, 68
4, 4736, Note_on_c, 9, 51, 100
4, 4768, Note_on_c, 9, 42, 0
4, 4800, Note_on_c, 9, 51, 0
4, 4800, Note_on_c, 9, 42, 84
4, 4832, Note_on_c, 9, 42, 0
4, 4928, Note_on_c, 9, 35, 84
4, 4928, Note_on_c, 9, 42, 68
4, 4960, Note_on_c, 9, 42, 0
4, 4960, Note_on_c, 9, 35, 0
4, 4992, Note_on_c, 9, 40, 100
4, 4992, Note_on_c, 9, 42, 84
4, 5024, Note_on_c, 9, 42, 0
4, 5120, Note_on_c, 9, 42, 68
4, 5152, Note_on_c, 9, 42, 0
4, 5184, Note_on_c, 9, 40, 0
4, 5184, Note_on_c, 9, 35, 84
4, 5184, Note_on_c, 9, 42, 84
4, 5216, Note_on_c, 9, 42, 0
4, 5216, Note_on_c, 9, 35, 0
4, 5312, Note_on_c, 9, 42, 68
4, 5344, Note_on_c, 9, 42, 0
4, 5376, Note_on_c, 9, 42, 84
4, 5408, Note_on_c, 9, 42, 0
4, 5504, Note_on_c, 9, 35, 84
4, 5504, Note_on_c, 9, 42, 68
4, 5504, Note_on_c, 9, 51, 100
4, 5536, Note_on_c, 9, 42, 0
4, 5536, Note_on_c, 9, 35, 0
4, 5568, Note_on_c, 9, 51, 0
4, 5568, Note_on_c, 9, 42, 84
4, 5600, Note_on_c, 9, 42, 0
4, 5696, Note_on_c, 9, 35, 84
4, 5696, Note_on_c, 9, 42, 68
4, 5728, Note_on_c, 9, 42, 0
4, 5728, Note_on_c, 9, 35, 0
4, 5760, Note_on_c, 9, 40, 100
4, 5760, Note_on_c, 9, 42, 84
4, 5792, Note_on_c, 9, 42, 0
4, 5888, Note_on_c, 9, 35, 84
4, 5888, Note_on_c, 9, 42, 68
4, 5920, Note_on_c, 9, 42, 0
4, 5920, Note_on_c, 9, 35, 0
4, 5952, Note_on_c, 9, 40, 0
4, 5952, Note_on_c, 9, 35, 100
4, 5952, Note_on_c, 9, 46, 84
4, 5984, Note_on_c, 9, 35, 0
4, 6016, Note_on_c, 9, 35, 84
4, 6048, Note_on_c, 9, 35, 0
4, 6048, Note_on_c, 9, 46, 0
4, 6080, Note_on_c, 9, 35, 84
4, 6112, Note_on_c, 9, 35, 0
4, 6144, Note_on_c, 9, 35, 84
4, 6144, Note_on_c, 9, 42, 84
4, 6176, Note_on_c, 9, 42, 0
4, 6176, Note_on_c, 9, 35, 0
4, 6272, Note_on_c, 9, 42, 68
4, 6304, Note_on_c, 9, 42, 0
4, 6336, Note_on_c, 9, 42, 84
4, 6336, Note_on_c, 9, 75, 84
4, 6368, Note_on_c, 9, 42, 0
4, 6432, Note_on_c, 9, 75, 0
4, 6464, Note_on_c, 9, 35, 84
4, 6464, Note_on_c, 9, 42, 68
4, 6496, Note_on_c, 9, 42, 0
4, 6496, Note_on_c, 9, 35, 0
4, 6528, Note_on_c, 9, 40, 100
4, 6528, Note_on_c, 9, 42, 84
4, 6560, Note_on_c, 9, 42, 0
4, 6656, Note_on_c, 9, 42, 68
4, 6656, Note_on_c, 9, 85, 100
4, 6688, Note_on_c, 9, 42, 0
4, 6720, Note_on_c, 9, 40, 0
4, 6720, Note_on_c, 9, 35, 84
4, 6720, Note_on_c, 9, 46, 84
4, 6752, Note_on_c, 9, 35, 0
4, 6784, Note_on_c, 9, 85, 0
4, 6816, Note_on_c, 9, 46, 0
4, 6912, Note_on_c, 9, 42, 84
4, 6912, Note_on_c, 9, 82, 84
4, 6944, Note_on_c, 9, 42, 0
4, 7040, Note_on_c, 9, 35, 84
4, 7040, Note_on_c, 9, 42, 68
4, 7072, Note_on_c, 9, 42, 0
4, 7072, Note_on_c, 9, 35, 0
4, 7104, Note_on_c, 9, 82, 0
4, 7104, Note_on_c, 9, 42, 84
4, 7136, Note_on_c, 9, 42, 0
4, 7232, Note_on_c, 9, 35, 84
4, 7232, Note_on_c, 9, 42, 68
4, 7264, Note_on_c, 9, 42, 0
4, 7264, Note_on_c, 9, 35, 0
4, 7296, Note_on_c, 9, 40, 100
4, 7296, Note_on_c, 9, 42, 84
4, 7328, Note_on_c, 9, 42, 0
4, 7424, Note_on_c, 9, 42, 68
4, 7456, Note_on_c, 9, 42, 0
4, 7488, Note_on_c, 9, 40, 0
4, 7488, Note_on_c, 9, 46, 84
4, 7584, Note_on_c, 9, 46, 0
4, 7680, Note_on_c, 9, 35, 84
4, 7680, Note_on_c, 9, 42, 84
4, 7712, Note_on_c, 9, 42, 0
4, 7712, Note_on_c, 9, 35, 0
4, 7808, Note_on_c, 9, 42, 68
4, 7840, Note_on_c, 9, 42, 0
4, 7872, Note_on_c, 9, 42, 84
4, 7872, Note_on_c, 9, 75, 84
4, 7904, Note_on_c, 9, 42, 0
4, 7968, Note_on_c, 9, 75, 0
4, 8000, Note_on_c, 9, 35, 84
4, 8000, Note_on_c, 9, 42, 68
4, 8032, Note_on_c, 9, 42, 0
4, 8032, Note_on_c, 9, 35, 0
4, 8064, Note_on_c, 9, 40, 100
4, 8064, Note_on_c, 9, 42, 84
4, 8096, Note_on_c, 9, 42, 0
4, 8192, Note_on_c, 9, 42, 68
4, 8192, Note_on_c, 9, 85, 100
4, 8224, Note_on_c, 9, 42, 0
4, 8256, Note_on_c, 9, 40, 0
4, 8256, Note_on_c, 9, 35, 84
4, 8256, Note_on_c, 9, 46, 84
4, 8288, Note_on_c, 9, 35, 0
4, 8320, Note_on_c, 9, 85, 0
4, 8352, Note_on_c, 9, 46, 0
4, 8448, Note_on_c, 9, 42, 84
4, 8448, Note_on_c, 9, 82, 84
4, 8480, Note_on_c, 9, 42, 0
4, 8576, Note_on_c, 9, 35, 84
4, 8576, Note_on_c, 9, 42, 68
4, 8608, Note_on_c, 9, 42, 0
4, 8608, Note_on_c, 9, 35, 0
4, 8640, Note_on_c, 9, 82, 0
4, 8640, Note_on_c, 9, 42, 84
4, 8672, Note_on_c, 9, 42, 0
4, 8768, Note_on_c, 9, 35, 84
4, 8768, Note_on_c, 9, 42, 68
4, 8800, Note_on_c, 9, 42, 0
4, 8800, Note_on_c, 9, 35, 0
4, 8832, Note_on_c, 9, 40, 100
4, 8832, Note_on_c, 9, 42, 84
4, 8864, Note_on_c, 9, 42, 0
4, 8960, Note_on_c, 9, 42, 68
4, 8992, Note_on_c, 9, 42, 0
4, 9024, Note_on_c, 9, 40, 0
4, 9024, Note_on_c, 9, 46, 84
4, 9120, Note_on_c, 9, 46, 0
4, 9216, Note_on_c, 9, 35, 84
4, 9216, Note_on_c, 9, 42, 84
4, 9248, Note_on_c, 9, 42, 0
4, 9248, Note_on_c, 9, 35, 0
4, 9344, Note_on_c, 9, 42, 68
4, 9376, Note_on_c, 9, 42, 0
4, 9408, Note_on_c, 9, 42, 84
4, 9408, Note_on_c, 9, 75, 84
4, 9440, Note_on_c, 9, 42, 0
4, 9504, Note_on_c, 9, 75, 0
4, 9536, Note_on_c, 9, 35, 84
4, 9536, Note_on_c, 9, 42, 68
4, 9568, Note_on_c, 9, 42, 0
4, 9568, Note_on_c, 9, 35, 0
4, 9600, Note_on_c, 9, 40, 100
4, 9600, Note_on_c, 9, 42, 84
4, 9632, Note_on_c, 9, 42, 0
4, 9728, Note_on_c, 9, 42, 68
4, 9728, Note_on_c, 9, 85, 100
4, 9760, Note_on_c, 9, 42, 0
4, 9792, Note_on_c, 9, 40, 0
4, 9792, Note_on_c, 9, 35, 84
4, 9792, Note_on_c, 9, 46, 84
4, 9824, Note_on_c, 9, 35, 0
4, 9856, Note_on_c, 9, 85, 0
4, 9888, Note_on_c, 9, 46, 0
4, 9984, Note_on_c, 9, 42, 84
4, 9984, Note_on_c, 9, 82, 84
4, 10016, Note_on_c, 9, 42, 0
4, 10112, Note_on_c, 9, 35, 84
4, 10112, Note_on_c, 9, 42, 68
4, 10144, Note_on_c, 9, 42, 0
4, 10144, Note_on_c, 9, 35, 0
4, 10176, Note_on_c, 9, 82, 0
4, 10176, Note_on_c, 9, 42, 84
4, 10208, Note_on_c, 9, 42, 0
4, 10304, Note_on_c, 9, 35, 84
4, 10304, Note_on_c, 9, 42, 68
4, 10336, Note_on_c, 9, 42, 0
4, 10336, Note_on_c, 9, 35, 0
4, 10368, Note_on_c, 9, 40, 100
4, 10368, Note_on_c, 9, 42, 84
4, 10400, Note_on_c, 9, 42, 0
4, 10496, Note_on_c, 9, 42, 68
4, 10528, Note_on_c, 9, 42, 0
4, 10560, Note_on_c, 9, 40, 0
4, 10560, Note_on_c, 9, 46, 84
4, 10656, Note_on_c, 9, 46, 0
4, 10752, Note_on_c, 9, 35, 84
4, 10752, Note_on_c, 9, 42, 84
4, 10784, Note_on_c, 9, 42, 0
4, 10784, Note_on_c, 9, 35, 0
4, 10880, Note_on_c, 9, 42, 68
4, 10912, Note_on_c, 9, 42, 0
4, 10944, Note_on_c, 9, 42, 84
4, 10944, Note_on_c, 9, 75, 84
4, 10976, Note_on_c, 9, 42, 0
4, 11040, Note_on_c, 9, 75, 0
4, 11072, Note_on_c, 9, 35, 84
4, 11072, Note_on_c, 9, 42, 68
4, 11104, Note_on_c, 9, 42, 0
4, 11104, Note_on_c, 9, 35, 0
4, 11136, Note_on_c, 9, 40, 100
4, 11136, Note_on_c, 9, 42, 84
4, 11168, Note_on_c, 9, 42, 0
4, 11264, Note_on_c, 9, 42, 68
4, 11264, Note_on_c, 9, 85, 100
4, 11296, Note_on_c, 9, 42, 0
4, 11328, Note_on_c, 9, 40, 0
4, 11328, Note_on_c, 9, 35, 84
4, 11328, Note_on_c, 9, 46, 84
4, 11360, Note_on_c, 9, 35, 0
4, 11392, Note_on_c, 9, 85, 0
4, 11424, Note_on_c, 9, 46, 0
4, 11520, Note_on_c, 9, 42, 84
4, 11520, Note_on_c, 9, 82, 84
4, 11552, Note_on_c, 9, 42, 0
4, 11648, Note_on_c, 9, 35, 84
4, 11648, Note_on_c, 9, 42, 68
4, 11680, Note_on_c, 9, 42, 0
4, 11680, Note_on_c, 9, 35, 0
4, 11712, Note_on_c, 9, 82, 0
4, 11712, Note_on_c, 9, 42, 84
4, 11744, Note_on_c, 9, 42, 0
4, 11840, Note_on_c, 9, 35, 84
4, 11840, Note_on_c, 9, 42, 68
4, 11872, Note_on_c, 9, 42, 0
4, 11872, Note_on_c, 9, 35, 0
4, 11904, Note_on_c, 9, 40, 100
4, 11904, Note_on_c, 9, 42, 84
4, 11936, Note_on_c, 9, 42, 0
4, 12032, Note_on_c, 9, 42, 68
4, 12064, Note_on_c, 9, 42, 0
4, 12096, Note_on_c, 9, 40, 0
4, 12096, Note_on_c, 9, 46, 84
4, 12192, Note_on_c, 9, 46, 0
4, 12288, Note_on_c, 9, 35, 84
4, 12288, Note_on_c, 9, 42, 84
4, 12320, Note_on_c, 9, 42, 0
4, 12320, Note_on_c, 9, 35, 0
4, 12416, Note_on_c, 9, 42, 68
4, 12448, Note_on_c, 9, 42, 0
4, 12480, Note_on_c, 9, 42, 84
4, 12480, Note_on_c, 9, 75, 84
4, 12512, Note_on_c, 9, 42, 0
4, 12576, Note_on_c, 9, 75, 0
4, 12608, Note_on_c, 9, 35, 84
4, 12608, Note_on_c, 9, 42, 68
4, 12640, Note_on_c, 9, 42, 0
4, 12640, Note_on_c, 9, 35, 0
4, 12672, Note_on_c, 9, 40, 100
4, 12672, Note_on_c, 9, 42, 84
4, 12704, Note_on_c, 9, 42, 0
4, 12800, Note_on_c, 9, 42, 68
4, 12800, Note_on_c, 9, 85, 100
4, 12832, Note_on_c, 9, 42, 0
4, 12864, Note_on_c, 9, 40, 0
4, 12864, Note_on_c, 9, 35, 84
4, 12864, Note_on_c, 9, 46, 84
4, 12896, Note_on_c, 9, 35, 0
4, 12928, Note_on_c, 9, 85, 0
4, 12960, Note_on_c, 9, 46, 0
4, 13056, Note_on_c, 9, 42, 84
4, 13056, Note_on_c, 9, 82, 84
4, 13088, Note_on_c, 9, 42, 0
4, 13184, Note_on_c, 9, 35, 84
4, 13184, Note_on_c, 9, 42, 68
4, 13216, Note_on_c, 9, 42, 0
4, 13216, Note_on_c, 9, 35, 0
4, 13248, Note_on_c, 9, 82, 0
4, 13248, Note_on_c, 9, 42, 84
4, 13280, Note_on_c, 9, 42, 0
4, 13376, Note_on_c, 9, 35, 84
4, 13376, Note_on_c, 9, 42, 68
4, 13408, Note_on_c, 9, 42, 0
4, 13408, Note_on_c, 9, 35, 0
4, 13440, Note_on_c, 9, 40, 100
4, 13440, Note_on_c, 9, 42, 84
4, 13472, Note_on_c, 9, 42, 0
4, 13568, Note_on_c, 9, 42, 68
4, 13600, Note_on_c, 9, 42, 0
4, 13632, Note_on_c, 9, 40, 0
4, 13632, Note_on_c, 9, 46, 84
4, 13728, Note_on_c, 9, 46, 0
4, 13824, Note_on_c, 9, 35, 84
4, 13824, Note_on_c, 9, 42, 84
4, 13856, Note_on_c, 9, 42, 0
4, 13856, Note_on_c, 9, 35, 0
4, 13952, Note_on_c, 9, 42, 68
4, 13984, Note_on_c, 9, 42, 0
4, 14016, Note_on_c, 9, 42, 84
4, 14016, Note_on_c, 9, 75, 84
4, 14048, Note_on_c, 9, 42, 0
4, 14112, Note_on_c, 9, 75, 0
4, 14144, Note_on_c, 9, 35, 84
4, 14144, Note_on_c, 9, 42, 68
4, 14176, Note_on_c, 9, 42, 0
4, 14176, Note_on_c, 9, 35, 0
4, 14208, Note_on_c, 9, 40, 100
4, 14208, Note_on_c, 9, 42, 84
4, 14240, Note_on_c, 9, 42, 0
4, 14336, Note_on_c, 9, 42, 68
4, 14336, Note_on_c, 9, 85, 100
4, 14368, Note_on_c, 9, 42, 0
4, 14400, Note_on_c, 9, 40, 0
4, 14400, Note_on_c, 9, 35, 84
4, 14400, Note_on_c, 9, 46, 84
4, 14432, Note_on_c, 9, 35, 0
4, 14464, Note_on_c, 9, 85, 0
4, 14496, Note_on_c, 9, 46, 0
4, 14592, Note_on_c, 9, 42, 84
4, 14592, Note_on_c, 9, 82, 84
4, 14624, Note_on_c, 9, 42, 0
4, 14720, Note_on_c, 9, 35, 84
4, 14720, Note_on_c, 9, 42, 68
4, 14752, Note_on_c, 9, 42, 0
4, 14752, Note_on_c, 9, 35, 0
4, 14784, Note_on_c, 9, 82, 0
4, 14784, Note_on_c, 9, 42, 84
4, 14816, Note_on_c, 9, 42, 0
4, 14912, Note_on_c, 9, 35, 84
4, 14912, Note_on_c, 9, 42, 68
4, 14944, Note_on_c, 9, 42, 0
4, 14944, Note_on_c, 9, 35, 0
4, 14976, Note_on_c, 9, 40, 100
4, 14976, Note_on_c, 9, 42, 84
4, 15008, Note_on_c, 9, 42, 0
4, 15104, Note_on_c, 9, 42, 68
4, 15136, Note_on_c, 9, 42, 0
4, 15168, Note_on_c, 9, 40, 0
4, 15168, Note_on_c, 9, 46, 84
4, 15264, Note_on_c, 9, 46, 0
4, 15360, Note_on_c, 9, 35, 84
4, 15360, Note_on_c, 9, 42, 84
4, 15392, Note_on_c, 9, 42, 0
4, 15392, Note_on_c, 9, 35, 0
4, 15488, Note_on_c, 9, 42, 68
4, 15520, Note_on_c, 9, 42, 0
4, 15552, Note_on_c, 9, 42, 84
4, 15552, Note_on_c, 9, 75, 84
4, 15584, Note_on_c, 9, 42, 0
4, 15648, Note_on_c, 9, 75, 0
4, 15680, Note_on_c, 9, 35, 84
4, 15680, Note_on_c, 9, 42, 68
4, 15712, Note_on_c, 9, 42, 0
4, 15712, Note_on_c, 9, 35, 0
4, 15744, Note_on_c, 9, 40, 100
4, 15744, Note_on_c, 9, 42, 84
4, 15776, Note_on_c, 9, 42, 0
4, 15872, Note_on_c, 9, 42, 68
4, 15872, Note_on_c, 9, 85, 100
4, 15904, Note_on_c, 9, 42, 0
4, 15936, Note_on_c, 9, 40, 0
4, 15936, Note_on_c, 9, 35, 84
4, 15936, Note_on_c, 9, 46, 84
4, 15968, Note_on_c, 9, 35, 0
4, 16000, Note_on_c, 9, 85, 0
4, 16032, Note_on_c, 9, 46, 0
4, 16128, Note_on_c, 9, 42, 84
4, 16128, Note_on_c, 9, 82, 84
4, 16160, Note_on_c, 9, 42, 0
4, 16256, Note_on_c, 9, 35, 84
4, 16256, Note_on_c, 9, 42, 68
4, 16288, Note_on_c, 9, 42, 0
4, 16288, Note_on_c, 9, 35, 0
4, 16320, Note_on_c, 9, 82, 0
4, 16320, Note_on_c, 9, 42, 84
4, 16352, Note_on_c, 9, 42, 0
4, 16448, Note_on_c, 9, 35, 84
4, 16448, Note_on_c, 9, 42, 68
4, 16480, Note_on_c, 9, 42, 0
4, 16480, Note_on_c, 9, 35, 0
4, 16512, Note_on_c, 9, 40, 100
4, 16512, Note_on_c, 9, 42, 84
4, 16544, Note_on_c, 9, 42, 0
4, 16640, Note_on_c, 9, 42, 68
4, 16672, Note_on_c, 9, 42, 0
4, 16704, Note_on_c, 9, 40, 0
4, 16704, Note_on_c, 9, 46, 84
4, 16800, Note_on_c, 9, 46, 0
4, 16896, Note_on_c, 9, 35, 84
4, 16896, Note_on_c, 9, 42, 84
4, 16928, Note_on_c, 9, 42, 0
4, 16928, Note_on_c, 9, 35, 0
4, 17024, Note_on_c, 9, 42, 68
4, 17056, Note_on_c, 9, 42, 0
4, 17088, Note_on_c, 9, 42, 84
4, 17088, Note_on_c, 9, 75, 84
4, 17120, Note_on_c, 9, 42, 0
4, 17184, Note_on_c, 9, 75, 0
4, 17216, Note_on_c, 9, 35, 84
4, 17216, Note_on_c, 9, 42, 68
4, 17248, Note_on_c, 9, 42, 0
4, 17248, Note_on_c, 9, 35, 0
4, 17280, Note_on_c, 9, 40, 100
4, 17280, Note_on_c, 9, 42, 84
4, 17312, Note_on_c, 9, 42, 0
4, 17408, Note_on_c, 9, 42, 68
4, 17408, Note_on_c, 9, 85, 100
4, 17440, Note_on_c, 9, 42, 0
4, 17472, Note_on_c, 9, 40, 0
4, 17472, Note_on_c, 9, 35, 84
4, 17472, Note_on_c, 9, 46, 84
4, 17504, Note_on_c, 9, 35, 0
4, 17536, Note_on_c, 9, 85, 0
4, 17568, Note_on_c, 9, 46, 0
4, 17664, Note_on_c, 9, 42, 84
4, 17664, Note_on_c, 9, 82, 84
4, 17696, Note_on_c, 9, 42, 0
4, 17792, Note_on_c, 9, 35, 84
4, 17792, Note_on_c, 9, 42, 68
4, 17824, Note_on_c, 9, 42, 0
4, 17824, Note_on_c, 9, 35, 0
4, 17856, Note_on_c, 9, 82, 0
4, 17856, Note_on_c, 9, 42, 84
4, 17888, Note_on_c, 9, 42, 0
4, 17984, Note_on_c, 9, 35, 84
4, 17984, Note_on_c, 9, 42, 68
4, 18016, Note_on_c, 9, 42, 0
4, 18016, Note_on_c, 9, 35, 0
4, 18048, Note_on_c, 9, 40, 100
4, 18048, Note_on_c, 9, 42, 84
4, 18080, Note_on_c, 9, 42, 0
4, 18176, Note_on_c, 9, 42, 68
4, 18208, Note_on_c, 9, 42, 0
4, 18240, Note_on_c, 9, 40, 0
4, 18240, Note_on_c, 9, 46, 84
4, 18336, Note_on_c, 9, 46, 0
4, 18432, Note_on_c, 9, 35, 84
4, 18432, Note_on_c, 9, 42, 84
4, 18464, Note_on_c, 9, 42, 0
4, 18464, Note_on_c, 9, 35, 0
4, 18560, Note_on_c, 9, 42, 68
4, 18592, Note_on_c, 9, 42, 0
4, 18624, Note_on_c, 9, 42, 84
4, 18656, Note_on_c, 9, 42, 0
4, 18752, Note_on_c, 9, 35, 84
4, 18752, Note_on_c, 9, 42, 68
4, 18784, Note_on_c, 9, 42, 0
4, 18784, Note_on_c, 9, 35, 0
4, 18816, Note_on_c, 9, 40, 100
4, 18816, Note_on_c, 9, 42, 84
4, 18848, Note_on_c, 9, 42, 0
4, 18944, Note_on_c, 9, 42, 68
4, 18976, Note_on_c, 9, 42, 0
4, 19008, Note_on_c, 9, 40, 0
4, 19008, Note_on_c, 9, 35, 84
4, 19008, Note_on_c, 9, 42, 84
4, 19040, Note_on_c, 9, 42, 0
4, 19040, Note_on_c, 9, 35, 0
4, 19136, Note_on_c, 9, 42, 68
4, 19168, Note_on_c, 9, 42, 0
4, 19200, Note_on_c, 9, 42, 84
4, 19232, Note_on_c, 9, 42, 0
4, 19328, Note_on_c, 9, 81, 84
4, 19328, Note_on_c, 9, 35, 84
4, 19328, Note_on_c, 9, 42, 68
4, 19360, Note_on_c, 9, 42, 0
4, 19360, Note_on_c, 9, 35, 0
4, 19360, Note_on_c, 9, 81, 0
4, 19392, Note_on_c, 9, 80, 84
4, 19392, Note_on_c, 9, 42, 84
4, 19424, Note_on_c, 9, 42, 0
4, 19424, Note_on_c, 9, 80, 0
4, 19520, Note_on_c, 9, 35, 84
4, 19520, Note_on_c, 9, 42, 68
4, 19552, Note_on_c, 9, 42, 0
4, 19552, Note_on_c, 9, 35, 0
4, 19584, Note_on_c, 9, 81, 100
4, 19584, Note_on_c, 9, 40, 100
4, 19584, Note_on_c, 9, 42, 84
4, 19616, Note_on_c, 9, 42, 0
4, 19616, Note_on_c, 9, 81, 0
4, 19712, Note_on_c, 9, 42, 68
4, 19744, Note_on_c, 9, 42, 0
4, 19776, Note_on_c, 9, 40, 0
4, 19776, Note_on_c, 9, 80, 84
4, 19776, Note_on_c, 9, 46, 84
4, 19808, Note_on_c, 9, 80, 0
4, 19872, Note_on_c, 9, 46, 0
4, 19968, Note_on_c, 9, 35, 84
4, 19968, Note_on_c, 9, 42, 84
4, 20000, Note_on_c, 9, 42, 0
4, 20000, Note_on_c, 9, 35, 0
4, 20096, Note_on_c, 9, 42, 68
4, 20128, Note_on_c, 9, 42, 0
4, 20160, Note_on_c, 9, 42, 84
4, 20192, Note_on_c, 9, 42, 0
4, 20288, Note_on_c, 9, 35, 84
4, 20288, Note_on_c, 9, 42, 68
4, 20320, Note_on_c, 9, 42, 0
4, 20320, Note_on_c, 9, 35, 0
4, 20352, Note_on_c, 9, 40, 100
4, 20352, Note_on_c, 9, 42, 84
4, 20384, Note_on_c, 9, 42, 0
4, 20480, Note_on_c, 9, 42, 68
4, 20512, Note_on_c, 9, 42, 0
4, 20544, Note_on_c, 9, 40, 0
4, 20544, Note_on_c, 9, 35, 84
4, 20544, Note_on_c, 9, 42, 84
4, 20576, Note_on_c, 9, 42, 0
4, 20576, Note_on_c, 9, 35, 0
4, 20672, Note_on_c, 9, 42, 68
4, 20704, Note_on_c, 9, 42, 0
4, 20736, Note_on_c, 9, 42, 84
4, 20768, Note_on_c, 9, 42, 0
4, 20864, Note_on_c, 9, 81, 84
4, 20864, Note_on_c, 9, 35, 84
4, 20864, Note_on_c, 9, 42, 68
4, 20896, Note_on_c, 9, 42, 0
4, 20896, Note_on_c, 9, 35, 0
4, 20896, Note_on_c, 9, 81, 0
4, 20928, Note_on_c, 9, 80, 84
4, 20928, Note_on_c, 9, 42, 84
4, 20960, Note_on_c, 9, 42, 0
4, 20960, Note_on_c, 9, 80, 0
4, 21056, Note_on_c, 9, 35, 84
4, 21056, Note_on_c, 9, 42, 68
4, 21088, Note_on_c, 9, 42, 0
4, 21088, Note_on_c, 9, 35, 0
4, 21120, Note_on_c, 9, 81, 100
4, 21120, Note_on_c, 9, 40, 100
4, 21120, Note_on_c, 9, 42, 84
4, 21152, Note_on_c, 9, 42, 0
4, 21152, Note_on_c, 9, 81, 0
4, 21248, Note_on_c, 9, 42, 68
4, 21280, Note_on_c, 9, 42, 0
4, 21312, Note_on_c, 9, 40, 0
4, 21312, Note_on_c, 9, 80, 84
4, 21312, Note_on_c, 9, 46, 84
4, 21344, Note_on_c, 9, 80, 0
4, 21408, Note_on_c, 9, 46, 0
4, 21504, Note_on_c, 9, 35, 84
4, 21504, Note_on_c, 9, 42, 84
4, 21536, Note_on_c, 9, 42, 0
4, 21536, Note_on_c, 9, 35, 0
4, 21632, Note_on_c, 9, 42, 68
4, 21664, Note_on_c, 9, 42, 0
4, 21696, Note_on_c, 9, 42, 84
4, 21728, Note_on_c, 9, 42, 0
4, 21824, Note_on_c, 9, 35, 84
4, 21824, Note_on_c, 9, 42, 68
4, 21856, Note_on_c, 9, 42, 0
4, 21856, Note_on_c, 9, 35, 0
4, 21888, Note_on_c, 9, 40, 100
4, 21888, Note_on_c, 9, 42, 84
4, 21920, Note_on_c, 9, 42, 0
4, 22016, Note_on_c, 9, 42, 68
4, 22048, Note_on_c, 9, 42, 0
4, 22080, Note_on_c, 9, 40, 0
4, 22080, Note_on_c, 9, 35, 84
4, 22080, Note_on_c, 9, 42, 84
4, 22112, Note_on_c, 9, 42, 0
4, 22112, Note_on_c, 9, 35, 0
4, 22208, Note_on_c, 9, 42, 68
4, 22240, Note_on_c, 9, 42, 0
4, 22272, Note_on_c, 9, 42, 84
4, 22304, Note_on_c, 9, 42, 0
4, 22400, Note_on_c, 9, 81, 84
4, 22400, Note_on_c, 9, 35, 84
4, 22400, Note_on_c, 9, 42, 68
4, 22432, Note_on_c, 9, 42, 0
4, 22432, Note_on_c, 9, 35, 0
4, 22432, Note_on_c, 9, 81, 0
4, 22464, Note_on_c, 9, 80, 84
4, 22464, Note_on_c, 9, 42, 84
4, 22496, Note_on_c, 9, 42, 0
4, 22496, Note_on_c, 9, 80, 0
4, 22592, Note_on_c, 9, 35, 84
4, 22592, Note_on_c, 9, 42, 68
4, 22624, Note_on_c, 9, 42, 0
4, 22624, Note_on_c, 9, 35, 0
4, 22656, Note_on_c, 9, 81, 100
4, 22656, Note_on_c, 9, 40, 100
4, 22656, Note_on_c, 9, 42, 84
4, 22688, Note_on_c, 9, 42, 0
4, 22688, Note_on_c, 9, 81, 0
4, 22784, Note_on_c, 9, 42, 68
4, 22816, Note_on_c, 9, 42, 0
4, 22848, Note_on_c, 9, 40, 0
4, 22848, Note_on_c, 9, 80, 84
4, 22848, Note_on_c, 9, 46, 84
4, 22880, Note_on_c, 9, 80, 0
4, 22944, Note_on_c, 9, 46, 0
4, 23040, Note_on_c, 9, 35, 84
4, 23040, Note_on_c, 9, 42, 84
4, 23072, Note_on_c, 9, 42, 0
4, 23072, Note_on_c, 9, 35, 0
4, 23168, Note_on_c, 9, 42, 68
4, 23200, Note_on_c, 9, 42, 0
4, 23232, Note_on_c, 9, 42, 84
4, 23264, Note_on_c, 9, 42, 0
4, 23360, Note_on_c, 9, 35, 84
4, 23360, Note_on_c, 9, 42, 68
4, 23392, Note_on_c, 9, 42, 0
4, 23392, Note_on_c, 9, 35, 0
4, 23424, Note_on_c, 9, 40, 100
4, 23424, Note_on_c, 9, 42, 84
4, 23456, Note_on_c, 9, 42, 0
4, 23552, Note_on_c, 9, 42, 68
4, 23584, Note_on_c, 9, 42, 0
4, 23616, Note_on_c, 9, 40, 0
4, 23616, Note_on_c, 9, 35, 84
4, 23616, Note_on_c, 9, 42, 84
4, 23648, Note_on_c, 9, 42, 0
4, 23648, Note_on_c, 9, 35, 0
4, 23744, Note_on_c, 9, 42, 68
4, 23776, Note_on_c, 9, 42, 0
4, 23808, Note_on_c, 9, 42, 84
4, 23840, Note_on_c, 9, 42, 0
4, 23936, Note_on_c, 9, 81, 84
4, 23936, Note_on_c, 9, 35, 84
4, 23936, Note_on_c, 9, 42, 68
4, 23968, Note_on_c, 9, 42, 0
4, 23968, Note_on_c, 9, 35, 0
4, 23968, Note_on_c, 9, 81, 0
4, 24000, Note_on_c, 9, 80, 84
4, 24000, Note_on_c, 9, 42, 84
4, 24032, Note_on_c, 9, 42, 0
4, 24032, Note_on_c, 9, 80, 0
4, 24128, Note_on_c, 9, 35, 84
4, 24128, Note_on_c, 9, 42, 68
4, 24160, Note_on_c, 9, 42, 0
4, 24160, Note_on_c, 9, 35, 0
4, 24192, Note_on_c, 9, 81, 100
4, 24192, Note_on_c, 9, 40, 100
4, 24192, Note_on_c, 9, 42, 84
4, 24224, Note_on_c, 9, 42, 0
4, 24224, Note_on_c, 9, 81, 0
4, 24320, Note_on_c, 9, 42, 68
4, 24352, Note_on_c, 9, 42, 0
4, 24384, Note_on_c, 9, 40, 0
4, 24384, Note_on_c, 9, 80, 84
4, 24384, Note_on_c, 9, 46, 84
4, 24416, Note_on_c, 9, 80, 0
4, 24480, Note_on_c, 9, 46, 0
4, 24576, Note_on_c, 9, 35, 84
4, 24576, Note_on_c, 9, 42, 84
4, 24608, Note_on_c, 9, 42, 0
4, 24608, Note_on_c, 9, 35, 0
4, 24704, Note_on_c, 9, 42, 68
4, 24736, Note_on_c, 9, 42, 0
4, 24768, Note_on_c, 9, 42, 84
4, 24768, Note_on_c, 9, 75, 84
4, 24800, Note_on_c, 9, 42, 0
4, 24864, Note_on_c, 9, 75, 0
4, 24896, Note_on_c, 9, 35, 84
4, 24896, Note_on_c, 9, 42, 68
4, 24928, Note_on_c, 9, 42, 0
4, 24928, Note_on_c, 9, 35, 0
4, 24960, Note_on_c, 9, 40, 100
4, 24960, Note_on_c, 9, 42, 84
4, 24992, Note_on_c, 9, 42, 0
4, 25088, Note_on_c, 9, 42, 68
4, 25088, Note_on_c, 9, 85, 100
4, 25120, Note_on_c, 9, 42, 0
4, 25152, Note_on_c, 9, 40, 0
4, 25152, Note_on_c, 9, 35, 84
4, 25152, Note_on_c, 9, 46, 84
4, 25184, Note_on_c, 9, 35, 0
4, 25216, Note_on_c, 9, 85, 0
4, 25248, Note_on_c, 9, 46, 0
4, 25344, Note_on_c, 9, 42, 84
4, 25344, Note_on_c, 9, 82, 84
4, 25376, Note_on_c, 9, 42, 0
4, 25472, Note_on_c, 9, 35, 84
4, 25472, Note_on_c, 9, 42, 68
4, 25504, Note_on_c, 9, 42, 0
4, 25504, Note_on_c, 9, 35, 0
4, 25536, Note_on_c, 9, 82, 0
4, 25536, Note_on_c, 9, 42, 84
4, 25568, Note_on_c, 9, 42, 0
4, 25664, Note_on_c, 9, 35, 84
4, 25664, Note_on_c, 9, 42, 68
4, 25696, Note_on_c, 9, 42, 0
4, 25696, Note_on_c, 9, 35, 0
4, 25728, Note_on_c, 9, 40, 100
4, 25728, Note_on_c, 9, 42, 84
4, 25760, Note_on_c, 9, 42, 0
4, 25856, Note_on_c, 9, 42, 68
4, 25888, Note_on_c, 9, 42, 0
4, 25920, Note_on_c, 9, 40, 0
4, 25920, Note_on_c, 9, 46, 84
4, 26016, Note_on_c, 9, 46, 0
4, 26112, Note_on_c, 9, 35, 84
4, 26112, Note_on_c, 9, 42, 84
4, 26144, Note_on_c, 9, 42, 0
4, 26144, Note_on_c, 9, 35, 0
4, 26240, Note_on_c, 9, 42, 68
4, 26272, Note_on_c, 9, 42, 0
4, 26304, Note_on_c, 9, 42, 84
4, 26304, Note_on_c, 9, 75, 84
4, 26336, Note_on_c, 9, 42, 0
4, 26400, Note_on_c, 9, 75, 0
4, 26432, Note_on_c, 9, 35, 84
4, 26432, Note_on_c, 9, 42, 68
4, 26464, Note_on_c, 9, 42, 0
4, 26464, Note_on_c, 9, 35, 0
4, 26496, Note_on_c, 9, 40, 100
4, 26496, Note_on_c, 9, 42, 84
4, 26528, Note_on_c, 9, 42, 0
4, 26624, Note_on_c, 9, 42, 68
4, 26624, Note_on_c, 9, 85, 100
4, 26656, Note_on_c, 9, 42, 0
4, 26688, Note_on_c, 9, 40, 0
4, 26688, Note_on_c, 9, 35, 84
4, 26688, Note_on_c, 9, 46, 84
4, 26720, Note_on_c, 9, 35, 0
4, 26752, Note_on_c, 9, 85, 0
4, 26784, Note_on_c, 9, 46, 0
4, 26880, Note_on_c, 9, 42, 84
4, 26880, Note_on_c, 9, 82, 84
4, 26912, Note_on_c, 9, 42, 0
4, 27008, Note_on_c, 9, 35, 84
4, 27008, Note_on_c, 9, 42, 68
4, 27040, Note_on_c, 9, 42, 0
4, 27040, Note_on_c, 9, 35, 0
4, 27072, Note_on_c, 9, 82, 0
4, 27072, Note_on_c, 9, 42, 84
4, 27104, Note_on_c, 9, 42, 0
4, 27200, Note_on_c, 9, 35, 84
4, 27200, Note_on_c, 9, 42, 68
4, 27232, Note_on_c, 9, 42, 0
4, 27232, Note_on_c, 9, 35, 0
4, 27264, Note_on_c, 9, 40, 100
4, 27264, Note_on_c, 9, 42, 84
4, 27296, Note_on_c, 9, 42, 0
4, 27392, Note_on_c, 9, 42, 68
4, 27424, Note_on_c, 9, 42, 0
4, 27456, Note_on_c, 9, 40, 0
4, 27456, Note_on_c, 9, 46, 84
4, 27552, Note_on_c, 9, 46, 0
4, 27648, Note_on_c, 9, 35, 84
4, 27648, Note_on_c, 9, 42, 84
4, 27680, Note_on_c, 9, 42, 0
4, 27680, Note_on_c, 9, 35, 0
4, 27776, Note_on_c, 9, 42, 68
4, 27808, Note_on_c, 9, 42, 0
4, 27840, Note_on_c, 9, 42, 84
4, 27840, Note_on_c, 9, 75, 84
4, 27872, Note_on_c, 9, 42, 0
4, 27936, Note_on_c, 9, 75, 0
4, 27968, Note_on_c, 9, 35, 84
4, 27968, Note_on_c, 9, 42, 68
4, 28000, Note_on_c, 9, 42, 0
4, 28000, Note_on_c, 9, 35, 0
4, 28032, Note_on_c, 9, 40, 100
4, 28032, Note_on_c, 9, 42, 84
4, 28064, Note_on_c, 9, 42, 0
4, 28160, Note_on_c, 9, 42, 68
4, 28160, Note_on_c, 9, 85, 100
4, 28192, Note_on_c, 9, 42, 0
4, 28224, Note_on_c, 9, 40, 0
4, 28224, Note_on_c, 9, 35, 84
4, 28224, Note_on_c, 9, 46, 84
4, 28256, Note_on_c, 9, 35, 0
4, 28288, Note_on_c, 9, 85, 0
4, 28320, Note_on_c, 9, 46, 0
4, 28416, Note_on_c, 9, 42, 84
4, 28416, Note_on_c, 9, 82, 84
4, 28448, Note_on_c, 9, 42, 0
4, 28544, Note_on_c, 9, 35, 84
4, 28544, Note_on_c, 9, 42, 68
4, 28576, Note_on_c, 9, 42, 0
4, 28576, Note_on_c, 9, 35, 0
4, 28608, Note_on_c, 9, 82, 0
4, 28608, Note_on_c, 9, 42, 84
4, 28640, Note_on_c, 9, 42, 0
4, 28736, Note_on_c, 9, 35, 84
4, 28736, Note_on_c, 9, 42, 68
4, 28768, Note_on_c, 9, 42, 0
4, 28768, Note_on_c, 9, 35, 0
4, 28800, Note_on_c, 9, 40, 100
4, 28800, Note_on_c, 9, 42, 84
4, 28832, Note_on_c, 9, 42, 0
4, 28928, Note_on_c, 9, 42, 68
4, 28960, Note_on_c, 9, 42, 0
4, 28992, Note_on_c, 9, 40, 0
4, 28992, Note_on_c, 9, 46, 84
4, 29088, Note_on_c, 9, 46, 0
4, 29184, Note_on_c, 9, 35, 84
4, 29184, Note_on_c, 9, 42, 84
4, 29216, Note_on_c, 9, 42, 0
4, 29216, Note_on_c, 9, 35, 0
4, 29312, Note_on_c, 9, 42, 68
4, 29344, Note_on_c, 9, 42, 0
4, 29376, Note_on_c, 9, 42, 84
4, 29376, Note_on_c, 9, 75, 84
4, 29408, Note_on_c, 9, 42, 0
4, 29472, Note_on_c, 9, 75, 0
4, 29504, Note_on_c, 9, 35, 84
4, 29504, Note_on_c, 9, 42, 68
4, 29536, Note_on_c, 9, 42, 0
4, 29536, Note_on_c, 9, 35, 0
4, 29568, Note_on_c, 9, 40, 100
4, 29568, Note_on_c, 9, 42, 84
4, 29600, Note_on_c, 9, 42, 0
4, 29696, Note_on_c, 9, 42, 68
4, 29696, Note_on_c, 9, 85, 100
4, 29728, Note_on_c, 9, 42, 0
4, 29760, Note_on_c, 9, 40, 0
4, 29760, Note_on_c, 9, 35, 84
4, 29760, Note_on_c, 9, 46, 84
4, 29792, Note_on_c, 9, 35, 0
4, 29824, Note_on_c, 9, 85, 0
4, 29856, Note_on_c, 9, 46, 0
4, 29952, Note_on_c, 9, 42, 84
4, 29952, Note_on_c, 9, 82, 84
4, 29984, Note_on_c, 9, 42, 0
4, 30080, Note_on_c, 9, 35, 84
4, 30080, Note_on_c, 9, 42, 68
4, 30112, Note_on_c, 9, 42, 0
4, 30112, Note_on_c, 9, 35, 0
4, 30144, Note_on_c, 9, 82, 0
4, 30144, Note_on_c, 9, 42, 84
4, 30176, Note_on_c, 9, 42, 0
4, 30272, Note_on_c, 9, 35, 84
4, 30272, Note_on_c, 9, 42, 68
4, 30304, Note_on_c, 9, 42, 0
4, 30304, Note_on_c, 9, 35, 0
4, 30336, Note_on_c, 9, 40, 100
4, 30336, Note_on_c, 9, 42, 84
4, 30368, Note_on_c, 9, 42, 0
4, 30464, Note_on_c, 9, 42, 68
4, 30496, Note_on_c, 9, 42, 0
4, 30528, Note_on_c, 9, 40, 0
4, 30528, Note_on_c, 9, 46, 84
4, 30624, Note_on_c, 9, 46, 0
4, 30720, Note_on_c, 9, 35, 84
4, 30720, Note_on_c, 9, 42, 84
4, 30752, Note_on_c, 9, 42, 0
4, 30752, Note_on_c, 9, 35, 0
4, 30848, Note_on_c, 9, 42, 68
4, 30880, Note_on_c, 9, 42, 0
4, 30912, Note_on_c, 9, 42, 84
4, 30912, Note_on_c, 9, 75, 84
4, 30944, Note_on_c, 9, 42, 0
4, 31008, Note_on_c, 9, 75, 0
4, 31040, Note_on_c, 9, 35, 84
4, 31040, Note_on_c, 9, 42, 68
4, 31072, Note_on_c, 9, 42, 0
4, 31072, Note_on_c, 9, 35, 0
4, 31104, Note_on_c, 9, 40, 100
4, 31104, Note_on_c, 9, 42, 84
4, 31136, Note_on_c, 9, 42, 0
4, 31232, Note_on_c, 9, 42, 68
4, 31232, Note_on_c, 9, 85, 100
4, 31264, Note_on_c, 9, 42, 0
4, 31296, Note_on_c, 9, 40, 0
4, 31296, Note_on_c, 9, 35, 84
4, 31296, Note_on_c, 9, 46, 84
4, 31328, Note_on_c, 9, 35, 0
4, 31360, Note_on_c, 9, 85, 0
4, 31392, Note_on_c, 9, 46, 0
4, 31488, Note_on_c, 9, 42, 84
4, 31488, Note_on_c, 9, 82, 84
4, 31520, Note_on_c, 9, 42, 0
4, 31616, Note_on_c, 9, 35, 84
4, 31616, Note_on_c, 9, 42, 68
4, 31648, Note_on_c, 9, 42, 0
4, 31648, Note_on_c, 9, 35, 0
4, 31680, Note_on_c, 9, 82, 0
4, 31680, Note_on_c, 9, 42, 84
4, 31712, Note_on_c, 9, 42, 0
4, 31808, Note_on_c, 9, 35, 84
4, 31808, Note_on_c, 9, 42, 68
4, 31840, Note_on_c, 9, 42, 0
4, 31840, Note_on_c, 9, 35, 0
4, 31872, Note_on_c, 9, 40, 100
4, 31872, Note_on_c, 9, 42, 84
4, 31904, Note_on_c, 9, 42, 0
4, 32000, Note_on_c, 9, 42, 68
4, 32032, Note_on_c, 9, 42, 0
4, 32064, Note_on_c, 9, 40, 0
4, 32064, Note_on_c, 9, 46, 84
4, 32160, Note_on_c, 9, 46, 0
4, 32256, Note_on_c, 9, 35, 84
4, 32256, Note_on_c, 9, 42, 84
4, 32288, Note_on_c, 9, 42, 0
4, 32288, Note_on_c, 9, 35, 0
4, 32384, Note_on_c, 9, 42, 68
4, 32416, Note_on_c, 9, 42, 0
4, 32448, Note_on_c, 9, 42, 84
4, 32448, Note_on_c, 9, 75, 84
4, 32480, Note_on_c, 9, 42, 0
4, 32544, Note_on_c, 9, 75, 0
4, 32576, Note_on_c, 9, 35, 84
4, 32576, Note_on_c, 9, 42, 68
4, 32608, Note_on_c, 9, 42, 0
4, 32608, Note_on_c, 9, 35, 0
4, 32640, Note_on_c, 9, 40, 100
4, 32640, Note_on_c, 9, 42, 84
4, 32672, Note_on_c, 9, 42, 0
4, 32768, Note_on_c, 9, 42, 68
4, 32768, Note_on_c, 9, 85, 100
4, 32800, Note_on_c, 9, 42, 0
4, 32832, Note_on_c, 9, 40, 0
4, 32832, Note_on_c, 9, 35, 84
4, 32832, Note_on_c, 9, 46, 84
4, 32864, Note_on_c, 9, 35, 0
4, 32896, Note_on_c, 9, 85, 0
4, 32928, Note_on_c, 9, 46, 0
4, 33024, Note_on_c, 9, 42, 84
4, 33024, Note_on_c, 9, 82, 84
4, 33056, Note_on_c, 9, 42, 0
4, 33152, Note_on_c, 9, 35, 84
4, 33152, Note_on_c, 9, 42, 68
4, 33184, Note_on_c, 9, 42, 0
4, 33184, Note_on_c, 9, 35, 0
4, 33216, Note_on_c, 9, 82, 0
4, 33216, Note_on_c, 9, 42, 84
4, 33248, Note_on_c, 9, 42, 0
4, 33344, Note_on_c, 9, 35, 84
4, 33344, Note_on_c, 9, 42, 68
4, 33376, Note_on_c, 9, 42, 0
4, 33376, Note_on_c, 9, 35, 0
4, 33408, Note_on_c, 9, 40, 100
4, 33408, Note_on_c, 9, 42, 84
4, 33440, Note_on_c, 9, 42, 0
4, 33536, Note_on_c, 9, 42, 68
4, 33568, Note_on_c, 9, 42, 0
4, 33600, Note_on_c, 9, 40, 0
4, 33600, Note_on_c, 9, 46, 84
4, 33696, Note_on_c, 9, 46, 0
4, 33792, Note_on_c, 9, 35, 84
4, 33792, Note_on_c, 9, 42, 84
4, 33824, Note_on_c, 9, 42, 0
4, 33824, Note_on_c, 9, 35, 0
4, 33920, Note_on_c, 9, 42, 68
4, 33952, Note_on_c, 9, 42, 0
4, 33984, Note_on_c, 9, 42, 84
4, 33984, Note_on_c, 9, 75, 84
4, 34016, Note_on_c, 9, 42, 0
4, 34080, Note_on_c, 9, 75, 0
4, 34112, Note_on_c, 9, 35, 84
4, 34112, Note_on_c, 9, 42, 68
4, 34144, Note_on_c, 9, 42, 0
4, 34144, Note_on_c, 9, 35, 0
4, 34176, Note_on_c, 9, 40, 100
4, 34176, Note_on_c, 9, 42, 84
4, 34208, Note_on_c, 9, 42, 0
4, 34304, Note_on_c, 9, 42, 68
4, 34304, Note_on_c, 9, 85, 100
4, 34336, Note_on_c, 9, 42, 0
4, 34368, Note_on_c, 9, 40, 0
4, 34368, Note_on_c, 9, 35, 84
4, 34368, Note_on_c, 9, 46, 84
4, 34400, Note_on_c, 9, 35, 0
4, 34432, Note_on_c, 9, 85, 0
4, 34464, Note_on_c, 9, 46, 0
4, 34560, Note_on_c, 9, 42, 84
4, 34560, Note_on_c, 9, 82, 84
4, 34592, Note_on_c, 9, 42, 0
4, 34688, Note_on_c, 9, 35, 84
4, 34688, Note_on_c, 9, 42, 68
4, 34720, Note_on_c, 9, 42, 0
4, 34720, Note_on_c, 9, 35, 0
4, 34752, Note_on_c, 9, 82, 0
4, 34752, Note_on_c, 9, 42, 84
4, 34784, Note_on_c, 9, 42, 0
4, 34880, Note_on_c, 9, 35, 84
4, 34880, Note_on_c, 9, 42, 68
4, 34912, Note_on_c, 9, 42, 0
4, 34912, Note_on_c, 9, 35, 0
4, 34944, Note_on_c, 9, 40, 100
4, 34944, Note_on_c, 9, 42, 84
4, 34976, Note_on_c, 9, 42, 0
4, 35072, Note_on_c, 9, 42, 68
4, 35104, Note_on_c, 9, 42, 0
4, 35136, Note_on_c, 9, 40, 0
4, 35136, Note_on_c, 9, 46, 84
4, 35232, Note_on_c, 9, 46, 0
4, 35328, Note_on_c, 9, 35, 84
4, 35328, Note_on_c, 9, 42, 84
4, 35360, Note_on_c, 9, 42, 0
4, 35360, Note_on_c, 9, 35, 0
4, 35456, Note_on_c, 9, 42, 68
4, 35488, Note_on_c, 9, 42, 0
4, 35520, Note_on_c, 9, 42, 84
4, 35520, Note_on_c, 9, 75, 84
4, 35552, Note_on_c, 9, 42, 0
4, 35616, Note_on_c, 9, 75, 0
4, 35648, Note_on_c, 9, 35, 84
4, 35648, Note_on_c, 9, 42, 68
4, 35680, Note_on_c, 9, 42, 0
4, 35680, Note_on_c, 9, 35, 0
4, 35712, Note_on_c, 9, 40, 100
4, 35712, Note_on_c, 9, 42, 84
4, 35744, Note_on_c, 9, 42, 0
4, 35840, Note_on_c, 9, 42, 68
4, 35840, Note_on_c, 9, 85, 100
4, 35872, Note_on_c, 9, 42, 0
4, 35904, Note_on_c, 9, 40, 0
4, 35904, Note_on_c, 9, 35, 84
4, 35904, Note_on_c, 9, 46, 84
4, 35936, Note_on_c, 9, 35, 0
4, 35968, Note_on_c, 9, 85, 0
4, 36000, Note_on_c, 9, 46, 0
4, 36096, Note_on_c, 9, 42, 84
4, 36096, Note_on_c, 9, 82, 84
4, 36128, Note_on_c, 9, 42, 0
4, 36224, Note_on_c, 9, 35, 84
4, 36224, Note_on_c, 9, 42, 68
4, 36256, Note_on_c, 9, 42, 0
4, 36256, Note_on_c, 9, 35, 0
4, 36288, Note_on_c, 9, 82, 0
4, 36288, Note_on_c, 9, 42, 84
4, 36320, Note_on_c, 9, 42, 0
4, 36416, Note_on_c, 9, 35, 84
4, 36416, Note_on_c, 9, 42, 68
4, 36448, Note_on_c, 9, 42, 0
4, 36448, Note_on_c, 9, 35, 0
4, 36480, Note_on_c, 9, 40, 100
4, 36480, Note_on_c, 9, 42, 84
4, 36512, Note_on_c, 9, 42, 0
4, 36608, Note_on_c, 9, 42, 68
4, 36640, Note_on_c, 9, 42, 0
4, 36672, Note_on_c, 9, 40, 0
4, 36672, Note_on_c, 9, 46, 84
4, 36768, Note_on_c, 9, 46, 0
4, 36864, Note_on_c, 9, 35, 84
4, 36864, Note_on_c, 9, 42, 84
4, 36896, Note_on_c, 9, 42, 0
4, 36896, Note_on_c, 9, 35, 0
4, 36992, Note_on_c, 9, 42, 68
4, 36992, Note_on_c, 9, 51, 100
4, 37024, Note_on_c, 9, 42, 0
4, 37056, Note_on_c, 9, 51, 0
4, 37056, Note_on_c, 9, 42, 84
4, 37088, Note_on_c, 9, 42, 0
4, 37184, Note_on_c, 9, 35, 84
4, 37184, Note_on_c, 9, 42, 68
4, 37216, Note_on_c, 9, 42, 0
4, 37216, Note_on_c, 9, 35, 0
4, 37248, Note_on_c, 9, 40, 100
4, 37248, Note_on_c, 9, 42, 84
4, 37280, Note_on_c, 9, 42, 0
4, 37376, Note_on_c, 9, 42, 68
4, 37408, Note_on_c, 9, 42, 0
4, 37440, Note_on_c, 9, 40, 0
4, 37440, Note_on_c, 9, 35, 84
4, 37440, Note_on_c, 9, 42, 84
4, 37472, Note_on_c, 9, 42, 0
4, 37472, Note_on_c, 9, 35, 0
4, 37568, Note_on_c, 9, 42, 68
4, 37600, Note_on_c, 9, 42, 0
4, 37632, Note_on_c, 9, 42, 84
4, 37664, Note_on_c, 9, 42, 0
4, 37760, Note_on_c, 9, 35, 84
4, 37760, Note_on_c, 9, 42, 68
4, 37792, Note_on_c, 9, 42, 0
4, 37792, Note_on_c, 9, 35, 0
4, 37824, Note_on_c, 9, 42, 84
4, 37856, Note_on_c, 9, 42, 0
4, 37952, Note_on_c, 9, 35, 84
4, 37952, Note_on_c, 9, 42, 68
4, 37984, Note_on_c, 9, 42, 0
4, 37984, Note_on_c, 9, 35, 0
4, 38016, Note_on_c, 9, 40, 100
4, 38016, Note_on_c, 9, 42, 84
4, 38048, Note_on_c, 9, 42, 0
4, 38144, Note_on_c, 9, 42, 68
4, 38176, Note_on_c, 9, 42, 0
4, 38208, Note_on_c, 9, 40, 0
4, 38208, Note_on_c, 9, 46, 84
4, 38304, Note_on_c, 9, 46, 0
4, 38400, Note_on_c, 9, 35, 84
4, 38400, Note_on_c, 9, 42, 84
4, 38432, Note_on_c, 9, 42, 0
4, 38432, Note_on_c, 9, 35, 0
4, 38528, Note_on_c, 9, 42, 68
4, 38528, Note_on_c, 9, 51, 100
4, 38560, Note_on_c, 9, 42, 0
4, 38592, Note_on_c, 9, 51, 0
4, 38592, Note_on_c, 9, 42, 84
4, 38624, Note_on_c, 9, 42, 0
4, 38720, Note_on_c, 9, 35, 84
4, 38720, Note_on_c, 9, 42, 68
4, 38752, Note_on_c, 9, 42, 0
4, 38752, Note_on_c, 9, 35, 0
4, 38784, Note_on_c, 9, 40, 100
4, 38784, Note_on_c, 9, 42, 84
4, 38816, Note_on_c, 9, 42, 0
4, 38912, Note_on_c, 9, 42, 68
4, 38944, Note_on_c, 9, 42, 0
4, 38976, Note_on_c, 9, 40, 0
4, 38976, Note_on_c, 9, 35, 84
4, 38976, Note_on_c, 9, 42, 84
4, 39008, Note_on_c, 9, 42, 0
4, 39008, Note_on_c, 9, 35, 0
4, 39104, Note_on_c, 9, 42, 68
4, 39136, Note_on_c, 9, 42, 0
4, 39168, Note_on_c, 9, 42, 84
4, 39200, Note_on_c, 9, 42, 0
4, 39296, Note_on_c, 9, 35, 84
4, 39296, Note_on_c, 9, 42, 68
4, 39296, Note_on_c, 9, 51, 100
4, 39328, Note_on_c, 9, 42, 0
4, 39328, Note_on_c, 9, 35, 0
4, 39360, Note_on_c, 9, 51, 0
4, 39360, Note_on_c, 9, 42, 84
4, 39392, Note_on_c, 9, 42, 0
4, 39488, Note_on_c, 9, 35, 84
4, 39488, Note_on_c, 9, 42, 68
4, 39520, Note_on_c, 9, 42, 0
4, 39520, Note_on_c, 9, 35, 0
4, 39552, Note_on_c, 9, 40, 100
4, 39552, Note_on_c, 9, 42, 84
4, 39584, Note_on_c, 9, 42, 0
4, 39680, Note_on_c, 9, 42, 68
4, 39712, Note_on_c, 9, 42, 0
4, 39744, Note_on_c, 9, 40, 0
4, 39744, Note_on_c, 9, 46, 84
4, 39840, Note_on_c, 9, 46, 0
4, 39936, Note_on_c, 9, 35, 84
4, 39936, Note_on_c, 9, 42, 84
4, 39968, Note_on_c, 9, 42, 0
4, 39968, Note_on_c, 9, 35, 0
4, 40064, Note_on_c, 9, 42, 68
4, 40064, Note_on_c, 9, 51, 100
4, 40096, Note_on_c, 9, 42, 0
4, 40128, Note_on_c, 9, 51, 0
4, 40128, Note_on_c, 9, 42, 84
4, 40160, Note_on_c, 9, 42, 0
4, 40256, Note_on_c, 9, 35, 84
4, 40256, Note_on_c, 9, 42, 68
4, 40288, Note_on_c, 9, 42, 0
4, 40288, Note_on_c, 9, 35, 0
4, 40320, Note_on_c, 9, 40, 100
4, 40320, Note_on_c, 9, 42, 84
4, 40352, Note_on_c, 9, 42, 0
4, 40448, Note_on_c, 9, 42, 68
4, 40480, Note_on_c, 9, 42, 0
4, 40512, Note_on_c, 9, 40, 0
4, 40512, Note_on_c, 9, 35, 84
4, 40512, Note_on_c, 9, 42, 84
4, 40544, Note_on_c, 9, 42, 0
4, 40544, Note_on_c, 9, 35, 0
4, 40640, Note_on_c, 9, 42, 68
4, 40672, Note_on_c, 9, 42, 0
4, 40704, Note_on_c, 9, 42, 84
4, 40736, Note_on_c, 9, 42, 0
4, 40832, Note_on_c, 9, 35, 84
4, 40832, Note_on_c, 9, 42, 68
4, 40864, Note_on_c, 9, 42, 0
4, 40864, Note_on_c, 9, 35, 0
4, 40896, Note_on_c, 9, 42, 84
4, 40928, Note_on_c, 9, 42, 0
4, 41024, Note_on_c, 9, 35, 84
4, 41024, Note_on_c, 9, 42, 68
4, 41056, Note_on_c, 9, 42, 0
4, 41056, Note_on_c, 9, 35, 0
4, 41088, Note_on_c, 9, 40, 100
4, 41088, Note_on_c, 9, 42, 84
4, 41120, Note_on_c, 9, 42, 0
4, 41216, Note_on_c, 9, 42, 68
4, 41248, Note_on_c, 9, 42, 0
4, 41280, Note_on_c, 9, 40, 0
4, 41280, Note_on_c, 9, 46, 84
4, 41376, Note_on_c, 9, 46, 0
4, 41472, Note_on_c, 9, 35, 84
4, 41472, Note_on_c, 9, 42, 84
4, 41504, Note_on_c, 9, 42, 0
4, 41504, Note_on_c, 9, 35, 0
4, 41600, Note_on_c, 9, 42, 68
4, 41600, Note_on_c, 9, 51, 100
4, 41632, Note_on_c, 9, 42, 0
4, 41664, Note_on_c, 9, 51, 0
4, 41664, Note_on_c, 9, 42, 84
4, 41696, Note_on_c, 9, 42, 0
4, 41792, Note_on_c, 9, 35, 84
4, 41792, Note_on_c, 9, 42, 68
4, 41824, Note_on_c, 9, 42, 0
4, 41824, Note_on_c, 9, 35, 0
4, 41856, Note_on_c, 9, 40, 100
4, 41856, Note_on_c, 9, 42, 84
4, 41888, Note_on_c, 9, 42, 0
4, 41984, Note_on_c, 9, 42, 68
4, 42016, Note_on_c, 9, 42, 0
4, 42048, Note_on_c, 9, 40, 0
4, 42048, Note_on_c, 9, 35, 84
4, 42048, Note_on_c, 9, 42, 84
4, 42080, Note_on_c, 9, 42, 0
4, 42080, Note_on_c, 9, 35, 0
4, 42176, Note_on_c, 9, 42, 68
4, 42208, Note_on_c, 9, 42, 0
4, 42240, Note_on_c, 9, 42, 84
4, 42272, Note_on_c, 9, 42, 0
4, 42368, Note_on_c, 9, 35, 84
4, 42368, Note_on_c, 9, 42, 68
4, 42368, Note_on_c, 9, 51, 100
4, 42400, Note_on_c, 9, 42, 0
4, 42400, Note_on_c, 9, 35, 0
4, 42432, Note_on_c, 9, 51, 0
4, 42432, Note_on_c, 9, 42, 84
4, 42464, Note_on_c, 9, 42, 0
4, 42560, Note_on_c, 9, 35, 84
4, 42560, Note_on_c, 9, 42, 68
4, 42592, Note_on_c, 9, 42, 0
4, 42592, Note_on_c, 9, 35, 0
4, 42624, Note_on_c, 9, 40, 100
4, 42624, Note_on_c, 9, 42, 84
4, 42656, Note_on_c, 9, 42, 0
4, 42752, Note_on_c, 9, 35, 84
4, 42752, Note_on_c, 9, 42, 68
4, 42784, Note_on_c, 9, 42, 0
4, 42784, Note_on_c, 9, 35, 0
4, 42816, Note_on_c, 9, 40, 0
4, 42816, Note_on_c, 9, 35, 100
4, 42816, Note_on_c, 9, 46, 84
4, 42848, Note_on_c, 9, 35, 0
4, 42880, Note_on_c, 9, 35, 84
4, 42912, Note_on_c, 9, 35, 0
4, 42912, Note_on_c, 9, 46, 0
4, 42944, Note_on_c, 9, 35, 84
4, 42976, Note_on_c, 9, 35, 0
4, 43008, Note_on_c, 9, 35, 84
4, 43008, Note_on_c, 9, 42, 84
4, 43040, Note_on_c, 9, 42, 0
4, 43040, Note_on_c, 9, 35, 0
4, 43136, Note_on_c, 9, 42, 68
4, 43136, Note_on_c, 9, 51, 100
4, 43168, Note_on_c, 9, 42, 0
4, 43200, Note_on_c, 9, 51, 0
4, 43200, Note_on_c, 9, 42, 84
4, 43232, Note_on_c, 9, 42, 0
4, 43328, Note_on_c, 9, 35, 84
4, 43328, Note_on_c, 9, 42, 68
4, 43360, Note_on_c, 9, 42, 0
4, 43360, Note_on_c, 9, 35, 0
4, 43392, Note_on_c, 9, 40, 100
4, 43392, Note_on_c, 9, 42, 84
4, 43424, Note_on_c, 9, 42, 0
4, 43520, Note_on_c, 9, 35, 84
4, 43520, Note_on_c, 9, 42, 68
4, 43552, Note_on_c, 9, 42, 0
4, 43552, Note_on_c, 9, 35, 0
4, 43584, Note_on_c, 9, 40, 0
4, 43584, Note_on_c, 9, 35, 100
4, 43584, Note_on_c, 9, 42, 84
4, 43616, Note_on_c, 9, 42, 0
4, 43616, Note_on_c, 9, 35, 0
4, 43648, Note_on_c, 9, 35, 84
4, 43680, Note_on_c, 9, 35, 0
4, 43712, Note_on_c, 9, 35, 84
4, 43712, Note_on_c, 9, 42, 68
4, 43744, Note_on_c, 9, 42, 0
4, 43744, Note_on_c, 9, 35, 0
4, 43776, Note_on_c, 9, 42, 84
4, 43808, Note_on_c, 9, 42, 0
4, 43904, Note_on_c, 9, 35, 84
4, 43904, Note_on_c, 9, 42, 68
4, 43936, Note_on_c, 9, 42, 0
4, 43936, Note_on_c, 9, 35, 0
4, 43968, Note_on_c, 9, 42, 84
4, 44000, Note_on_c, 9, 42, 0
4, 44096, Note_on_c, 9, 35, 84
4, 44096, Note_on_c, 9, 42, 68
4, 44128, Note_on_c, 9, 42, 0
4, 44128, Note_on_c, 9, 35, 0
4, 44160, Note_on_c, 9, 40, 100
4, 44160, Note_on_c, 9, 42, 84
4, 44192, Note_on_c, 9, 42, 0
4, 44288, Note_on_c, 9, 35, 84
4, 44288, Note_on_c, 9, 42, 68
4, 44320, Note_on_c, 9, 42, 0
4, 44320, Note_on_c, 9, 35, 0
4, 44352, Note_on_c, 9, 40, 0
4, 44352, Note_on_c, 9, 35, 100
4, 44352, Note_on_c, 9, 46, 84
4, 44384, Note_on_c, 9, 35, 0
4, 44416, Note_on_c, 9, 35, 84
4, 44448, Note_on_c, 9, 35, 0
4, 44448, Note_on_c, 9, 46, 0
4, 44480, Note_on_c, 9, 35, 84
4, 44512, Note_on_c, 9, 35, 0
4, 44544, Note_on_c, 9, 35, 84
4, 44544, Note_on_c, 9, 42, 84
4, 44576, Note_on_c, 9, 42, 0
4, 44576, Note_on_c, 9, 35, 0
4, 44672, Note_on_c, 9, 42, 68
4, 44672, Note_on_c, 9, 51, 100
4, 44704, Note_on_c, 9, 42, 0
4, 44736, Note_on_c, 9, 51, 0
4, 44736, Note_on_c, 9, 42, 84
4, 44768, Note_on_c, 9, 42, 0
4, 44864, Note_on_c, 9, 35, 84
4, 44864, Note_on_c, 9, 42, 68
4, 44896, Note_on_c, 9, 42, 0
4, 44896, Note_on_c, 9, 35, 0
4, 44928, Note_on_c, 9, 40, 100
4, 44928, Note_on_c, 9, 42, 84
4, 44960, Note_on_c, 9, 42, 0
4, 45056, Note_on_c, 9, 42, 68
4, 45088, Note_on_c, 9, 42, 0
4, 45120, Note_on_c, 9, 40, 0
4, 45120, Note_on_c, 9, 35, 84
4, 45120, Note_on_c, 9, 42, 84
4, 45152, Note_on_c, 9, 42, 0
4, 45152, Note_on_c, 9, 35, 0
4, 45248, Note_on_c, 9, 42, 68
4, 45280, Note_on_c, 9, 42, 0
4, 45312, Note_on_c, 9, 42, 84
4, 45344, Note_on_c, 9, 42, 0
4, 45440, Note_on_c, 9, 35, 84
4, 45440, Note_on_c, 9, 42, 68
4, 45440, Note_on_c, 9, 51, 100
4, 45472, Note_on_c, 9, 42, 0
4, 45472, Note_on_c, 9, 35, 0
4, 45504, Note_on_c, 9, 51, 0
4, 45504, Note_on_c, 9, 42, 84
4, 45536, Note_on_c, 9, 42, 0
4, 45632, Note_on_c, 9, 35, 84
4, 45632, Note_on_c, 9, 42, 68
4, 45664, Note_on_c, 9, 42, 0
4, 45664, Note_on_c, 9, 35, 0
4, 45696, Note_on_c, 9, 40, 100
4, 45696, Note_on_c, 9, 42, 84
4, 45728, Note_on_c, 9, 42, 0
4, 45824, Note_on_c, 9, 35, 84
4, 45824, Note_on_c, 9, 42, 68
4, 45856, Note_on_c, 9, 42, 0
4, 45856, Note_on_c, 9, 35, 0
4, 45888, Note_on_c, 9, 40, 0
4, 45888, Note_on_c, 9, 35, 100
4, 45888, Note_on_c, 9, 46, 84
4, 45920, Note_on_c, 9, 35, 0
4, 45952, Note_on_c, 9, 35, 84
4, 45984, Note_on_c, 9, 35, 0
4, 45984, Note_on_c, 9, 46, 0
4, 46016, Note_on_c, 9, 35, 84
4, 46048, Note_on_c, 9, 35, 0
4, 46080, Note_on_c, 9, 35, 84
4, 46080, Note_on_c, 9, 42, 84
4, 46112, Note_on_c, 9, 42, 0
4, 46112, Note_on_c, 9, 35, 0
4, 46208, Note_on_c, 9, 42, 68
4, 46240, Note_on_c, 9, 42, 0
4, 46272, Note_on_c, 9, 42, 84
4, 46304, Note_on_c, 9, 42, 0
4, 46400, Note_on_c, 9, 35, 84
4, 46400, Note_on_c, 9, 42, 68
4, 46432, Note_on_c, 9, 42, 0
4, 46432, Note_on_c, 9, 35, 0
4, 46464, Note_on_c, 9, 40, 100
4, 46464, Note_on_c, 9, 42, 84
4, 46496, Note_on_c, 9, 42, 0
4, 46592, Note_on_c, 9, 42, 68
4, 46624, Note_on_c, 9, 42, 0
4, 46656, Note_on_c, 9, 40, 0
4, 46656, Note_on_c, 9, 35, 84
4, 46656, Note_on_c, 9, 42, 84
4, 46688, Note_on_c, 9, 42, 0
4, 46688, Note_on_c, 9, 35, 0
4, 46784, Note_on_c, 9, 42, 68
4, 46816, Note_on_c, 9, 42, 0
4, 46848, Note_on_c, 9, 42, 84
4, 46880, Note_on_c, 9, 42, 0
4, 46976, Note_on_c, 9, 81, 84
4, 46976, Note_on_c, 9, 35, 84
4, 46976, Note_on_c, 9, 42, 68
4, 47008, Note_on_c, 9, 42, 0
4, 47008, Note_on_c, 9, 35, 0
4, 47008, Note_on_c, 9, 81, 0
4, 47040, Note_on_c, 9, 80, 84
4, 47040, Note_on_c, 9, 42, 84
4, 47072, Note_on_c, 9, 42, 0
4, 47072, Note_on_c, 9, 80, 0
4, 47168, Note_on_c, 9, 35, 84
4, 47168, Note_on_c, 9, 42, 68
4, 47200, Note_on_c, 9, 42, 0
4, 47200, Note_on_c, 9, 35, 0
4, 47232, Note_on_c, 9, 81, 100
4, 47232, Note_on_c, 9, 40, 100
4, 47232, Note_on_c, 9, 42, 84
4, 47264, Note_on_c, 9, 42, 0
4, 47264, Note_on_c, 9, 81, 0
4, 47360, Note_on_c, 9, 42, 68
4, 47392, Note_on_c, 9, 42, 0
4, 47424, Note_on_c, 9, 40, 0
4, 47424, Note_on_c, 9, 80, 84
4, 47424, Note_on_c, 9, 46, 84
4, 47456, Note_on_c, 9, 80, 0
4, 47520, Note_on_c, 9, 46, 0
4, 47616, Note_on_c, 9, 35, 84
4, 47616, Note_on_c, 9, 42, 84
4, 47648, Note_on_c, 9, 42, 0
4, 47648, Note_on_c, 9, 35, 0
4, 47744, Note_on_c, 9, 42, 68
4, 47776, Note_on_c, 9, 42, 0
4, 47808, Note_on_c, 9, 42, 84
4, 47840, Note_on_c, 9, 42, 0
4, 47936, Note_on_c, 9, 35, 84
4, 47936, Note_on_c, 9, 42, 68
4, 47968, Note_on_c, 9, 42, 0
4, 47968, Note_on_c, 9, 35, 0
4, 48000, Note_on_c, 9, 40, 100
4, 48000, Note_on_c, 9, 42, 84
4, 48032, Note_on_c, 9, 42, 0
4, 48128, Note_on_c, 9, 42, 68
4, 48160, Note_on_c, 9, 42, 0
4, 48192, Note_on_c, 9, 40, 0
4, 48192, Note_on_c, 9, 35, 84
4, 48192, Note_on_c, 9, 42, 84
4, 48224, Note_on_c, 9, 42, 0
4, 48224, Note_on_c, 9, 35, 0
4, 48320, Note_on_c, 9, 42, 68
4, 48352, Note_on_c, 9, 42, 0
4, 48384, Note_on_c, 9, 42, 84
4, 48416, Note_on_c, 9, 42, 0
4, 48512, Note_on_c, 9, 81, 84
4, 48512, Note_on_c, 9, 35, 84
4, 48512, Note_on_c, 9, 42, 68
4, 48544, Note_on_c, 9, 42, 0
4, 48544, Note_on_c, 9, 35, 0
4, 48544, Note_on_c, 9, 81, 0
4, 48576, Note_on_c, 9, 80, 84
4, 48576, Note_on_c, 9, 42, 84
4, 48608, Note_on_c, 9, 42, 0
4, 48608, Note_on_c, 9, 80, 0
4, 48704, Note_on_c, 9, 35, 84
4, 48704, Note_on_c, 9, 42, 68
4, 48736, Note_on_c, 9, 42, 0
4, 48736, Note_on_c, 9, 35, 0
4, 48768, Note_on_c, 9, 81, 100
4, 48768, Note_on_c, 9, 40, 100
4, 48768, Note_on_c, 9, 42, 84
4, 48800, Note_on_c, 9, 42, 0
4, 48800, Note_on_c, 9, 81, 0
4, 48896, Note_on_c, 9, 42, 68
4, 48928, Note_on_c, 9, 42, 0
4, 48960, Note_on_c, 9, 40, 0
4, 48960, Note_on_c, 9, 80, 84
4, 48960, Note_on_c, 9, 46, 84
4, 48992, Note_on_c, 9, 80, 0
4, 49056, Note_on_c, 9, 46, 0
4, 49152, Note_on_c, 9, 35, 84
4, 49152, Note_on_c, 9, 42, 84
4, 49184, Note_on_c, 9, 42, 0
4, 49184, Note_on_c, 9, 35, 0
4, 49280, Note_on_c, 9, 42, 68
4, 49312, Note_on_c, 9, 42, 0
4, 49344, Note_on_c, 9, 42, 84
4, 49376, Note_on_c, 9, 42, 0
4, 49472, Note_on_c, 9, 35, 84
4, 49472, Note_on_c, 9, 42, 68
4, 49504, Note_on_c, 9, 42, 0
4, 49504, Note_on_c, 9, 35, 0
4, 49536, Note_on_c, 9, 40, 100
4, 49536, Note_on_c, 9, 42, 84
4, 49568, Note_on_c, 9, 42, 0
4, 49664, Note_on_c, 9, 42, 68
4, 49696, Note_on_c, 9, 42, 0
4, 49728, Note_on_c, 9, 40, 0
4, 49728, Note_on_c, 9, 35, 84
4, 49728, Note_on_c, 9, 42, 84
4, 49760, Note_on_c, 9, 42, 0
4, 49760, Note_on_c, 9, 35, 0
4, 49856, Note_on_c, 9, 42, 68
4, 49888, Note_on_c, 9, 42, 0
4, 49920, Note_on_c, 9, 42, 84
4, 49952, Note_on_c, 9, 42, 0
4, 50048, Note_on_c, 9, 81, 84
4, 50048, Note_on_c, 9, 35, 84
4, 50048, Note_on_c, 9, 42, 68
4, 50080, Note_on_c, 9, 42, 0
4, 50080, Note_on_c, 9, 35, 0
4, 50080, Note_on_c, 9, 81, 0
4, 50112, Note_on_c, 9, 80, 84
4, 50112, Note_on_c, 9, 42, 84
4, 50144, Note_on_c, 9, 42, 0
4, 50144, Note_on_c, 9, 80, 0
4, 50240, Note_on_c, 9, 35, 84
4, 50240, Note_on_c, 9, 42, 68
4, 50272, Note_on_c, 9, 42, 0
4, 50272, Note_on_c, 9, 35, 0
4, 50304, Note_on_c, 9, 81, 100
4, 50304, Note_on_c, 9, 40, 100
4, 50304, Note_on_c, 9, 42, 84
4, 50336, Note_on_c, 9, 42, 0
4, 50336, Note_on_c, 9, 81, 0
4, 50432, Note_on_c, 9, 42, 68
4, 50464, Note_on_c, 9, 42, 0
4, 50496, Note_on_c, 9, 40, 0
4, 50496, Note_on_c, 9, 80, 84
4, 50496, Note_on_c, 9, 46, 84
4, 50528, Note_on_c, 9, 80, 0
4, 50592, Note_on_c, 9, 46, 0
4, 50688, Note_on_c, 9, 35, 84
4, 50688, Note_on_c, 9, 42, 84
4, 50720, Note_on_c, 9, 42, 0
4, 50720, Note_on_c, 9, 35, 0
4, 50816, Note_on_c, 9, 42, 68
4, 50848, Note_on_c, 9, 42, 0
4, 50880, Note_on_c, 9, 42, 84
4, 50912, Note_on_c, 9, 42, 0
4, 51008, Note_on_c, 9, 35, 84
4, 51008, Note_on_c, 9, 42, 68
4, 51040, Note_on_c, 9, 42, 0
4, 51040, Note_on_c, 9, 35, 0
4, 51072, Note_on_c, 9, 40, 100
4, 51072, Note_on_c, 9, 42, 84
4, 51104, Note_on_c, 9, 42, 0
4, 51200, Note_on_c, 9, 42, 68
4, 51232, Note_on_c, 9, 42, 0
4, 51264, Note_on_c, 9, 40, 0
4, 51264, Note_on_c, 9, 35, 84
4, 51264, Note_on_c, 9, 42, 84
4, 51296, Note_on_c, 9, 42, 0
4, 51296, Note_on_c, 9, 35, 0
4, 51392, Note_on_c, 9, 42, 68
4, 51424, Note_on_c, 9, 42, 0
4, 51456, Note_on_c, 9, 42, 84
4, 51488, Note_on_c, 9, 42, 0
4, 51584, Note_on_c, 9, 81, 84
4, 51584, Note_on_c, 9, 35, 84
4, 51584, Note_on_c, 9, 42, 68
4, 51616, Note_on_c, 9, 42, 0
4, 51616, Note_on_c, 9, 35, 0
4, 51616, Note_on_c, 9, 81, 0
4, 51648, Note_on_c, 9, 80, 84
4, 51648, Note_on_c, 9, 42, 84
4, 51680, Note_on_c, 9, 42, 0
4, 51680, Note_on_c, 9, 80, 0
4, 51776, Note_on_c, 9, 35, 84
4, 51776, Note_on_c, 9, 42, 68
4, 51808, Note_on_c, 9, 42, 0
4, 51808, Note_on_c, 9, 35, 0
4, 51840, Note_on_c, 9, 81, 100
4, 51840, Note_on_c, 9, 40, 100
4, 51840, Note_on_c, 9, 42, 84
4, 51872, Note_on_c, 9, 42, 0
4, 51872, Note_on_c, 9, 81, 0
4, 51968, Note_on_c, 9, 42, 68
4, 52000, Note_on_c, 9, 42, 0
4, 52032, Note_on_c, 9, 40, 0
4, 52032, Note_on_c, 9, 80, 84
4, 52032, Note_on_c, 9, 46, 84
4, 52064, Note_on_c, 9, 80, 0
4, 52128, Note_on_c, 9, 46, 0
4, 52224, Note_on_c, 9, 35, 84
4, 52224, Note_on_c, 9, 42, 84
4, 52256, Note_on_c, 9, 42, 0
4, 52256, Note_on_c, 9, 35, 0
4, 52352, Note_on_c, 9, 42, 68
4, 52384, Note_on_c, 9, 42, 0
4, 52416, Note_on_c, 9, 42, 84
4, 52416, Note_on_c, 9, 75, 84
4, 52448, Note_on_c, 9, 42, 0
4, 52512, Note_on_c, 9, 75, 0
4, 52544, Note_on_c, 9, 35, 84
4, 52544, Note_on_c, 9, 42, 68
4, 52576, Note_on_c, 9, 42, 0
4, 52576, Note_on_c, 9, 35, 0
4, 52608, Note_on_c, 9, 40, 100
4, 52608, Note_on_c, 9, 42, 84
4, 52640, Note_on_c, 9, 42, 0
4, 52736, Note_on_c, 9, 42, 68
4, 52736, Note_on_c, 9, 85, 100
4, 52768, Note_on_c, 9, 42, 0
4, 52800, Note_on_c, 9, 40, 0
4, 52800, Note_on_c, 9, 35, 84
4, 52800, Note_on_c, 9, 46, 84
4, 52832, Note_on_c, 9, 35, 0
4, 52864, Note_on_c, 9, 85, 0
4, 52896, Note_on_c, 9, 46, 0
4, 52992, Note_on_c, 9, 42, 84
4, 52992, Note_on_c, 9, 82, 84
4, 53024, Note_on_c, 9, 42, 0
4, 53120, Note_on_c, 9, 35, 84
4, 53120, Note_on_c, 9, 42, 68
4, 53152, Note_on_c, 9, 42, 0
4, 53152, Note_on_c, 9, 35, 0
4, 53184, Note_on_c, 9, 82, 0
4, 53184, Note_on_c, 9, 42, 84
4, 53216, Note_on_c, 9, 42, 0
4, 53312, Note_on_c, 9, 35, 84
4, 53312, Note_on_c, 9, 42, 68
4, 53344, Note_on_c, 9, 42, 0
4, 53344, Note_on_c, 9, 35, 0
4, 53376, Note_on_c, 9, 40, 100
4, 53376, Note_on_c, 9, 42, 84
4, 53408, Note_on_c, 9, 42, 0
4, 53504, Note_on_c, 9, 42, 68
4, 53536, Note_on_c, 9, 42, 0
4, 53568, Note_on_c, 9, 40, 0
4, 53568, Note_on_c, 9, 46, 84
4, 53664, Note_on_c, 9, 46, 0
4, 53760, Note_on_c, 9, 35, 84
4, 53760, Note_on_c, 9, 42, 84
4, 53792, Note_on_c, 9, 42, 0
4, 53792, Note_on_c, 9, 35, 0
4, 53888, Note_on_c, 9, 42, 68
4, 53920, Note_on_c, 9, 42, 0
4, 53952, Note_on_c, 9, 42, 84
4, 53984, Note_on_c, 9, 42, 0
4, 54080, Note_on_c, 9, 35, 84
4, 54080, Note_on_c, 9, 42, 68
4, 54112, Note_on_c, 9, 42, 0
4, 54112, Note_on_c, 9, 35, 0
4, 54144, Note_on_c, 9, 40, 100
4, 54144, Note_on_c, 9, 42, 84
4, 54176, Note_on_c, 9, 42, 0
4, 54272, Note_on_c, 9, 42, 68
4, 54304, Note_on_c, 9, 42, 0
4, 54336, Note_on_c, 9, 40, 0
4, 54336, Note_on_c, 9, 35, 84
4, 54336, Note_on_c, 9, 42, 84
4, 54368, Note_on_c, 9, 42, 0
4, 54368, Note_on_c, 9, 35, 0
4, 54464, Note_on_c, 9, 42, 68
4, 54496, Note_on_c, 9, 42, 0
4, 54528, Note_on_c, 9, 42, 84
4, 54560, Note_on_c, 9, 42, 0
4, 54656, Note_on_c, 9, 81, 84
4, 54656, Note_on_c, 9, 35, 84
4, 54656, Note_on_c, 9, 42, 68
4, 54688, Note_on_c, 9, 42, 0
4, 54688, Note_on_c, 9, 35, 0
4, 54688, Note_on_c, 9, 81, 0
4, 54720, Note_on_c, 9, 80, 84
4, 54720, Note_on_c, 9, 42, 84
4, 54752, Note_on_c, 9, 42, 0
4, 54752, Note_on_c, 9, 80, 0
4, 54848, Note_on_c, 9, 35, 84
4, 54848, Note_on_c, 9, 42, 68
4, 54880, Note_on_c, 9, 42, 0
4, 54880, Note_on_c, 9, 35, 0
4, 54912, Note_on_c, 9, 81, 100
4, 54912, Note_on_c, 9, 40, 100
4, 54912, Note_on_c, 9, 42, 84
4, 54944, Note_on_c, 9, 42, 0
4, 54944, Note_on_c, 9, 81, 0
4, 55040, Note_on_c, 9, 42, 68
4, 55072, Note_on_c, 9, 42, 0
4, 55104, Note_on_c, 9, 40, 0
4, 55104, Note_on_c, 9, 80, 84
4, 55104, Note_on_c, 9, 46, 84
4, 55136, Note_on_c, 9, 80, 0
4, 55200, Note_on_c, 9, 46, 0
4, 55296, Note_on_c, 9, 35, 84
4, 55296, Note_on_c, 9, 42, 84
4, 55328, Note_on_c, 9, 42, 0
4, 55328, Note_on_c, 9, 35, 0
4, 55424, Note_on_c, 9, 42, 68
4, 55456, Note_on_c, 9, 42, 0
4, 55488, Note_on_c, 9, 42, 84
4, 55488, Note_on_c, 9, 75, 84
4, 55520, Note_on_c, 9, 42, 0
4, 55584, Note_on_c, 9, 75, 0
4, 55616, Note_on_c, 9, 35, 84
4, 55616, Note_on_c, 9, 42, 68
4, 55648, Note_on_c, 9, 42, 0
4, 55648, Note_on_c, 9, 35, 0
4, 55680, Note_on_c, 9, 40, 100
4, 55680, Note_on_c, 9, 42, 84
4, 55712, Note_on_c, 9, 42, 0
4, 55808, Note_on_c, 9, 42, 68
4, 55808, Note_on_c, 9, 85, 100
4, 55840, Note_on_c, 9, 42, 0
4, 55872, Note_on_c, 9, 40, 0
4, 55872, Note_on_c, 9, 35, 84
4, 55872, Note_on_c, 9, 46, 84
4, 55904, Note_on_c, 9, 35, 0
4, 55936, Note_on_c, 9, 85, 0
4, 55968, Note_on_c, 9, 46, 0
4, 56064, Note_on_c, 9, 42, 84
4, 56064, Note_on_c, 9, 82, 84
4, 56096, Note_on_c, 9, 42, 0
4, 56192, Note_on_c, 9, 35, 84
4, 56192, Note_on_c, 9, 42, 68
4, 56224, Note_on_c, 9, 42, 0
4, 56224, Note_on_c, 9, 35, 0
4, 56256, Note_on_c, 9, 82, 0
4, 56256, Note_on_c, 9, 42, 84
4, 56288, Note_on_c, 9, 42, 0
4, 56384, Note_on_c, 9, 35, 84
4, 56384, Note_on_c, 9, 42, 68
4, 56416, Note_on_c, 9, 42, 0
4, 56416, Note_on_c, 9, 35, 0
4, 56448, Note_on_c, 9, 40, 100
4, 56448, Note_on_c, 9, 42, 84
4, 56480, Note_on_c, 9, 42, 0
4, 56576, Note_on_c, 9, 42, 68
4, 56608, Note_on_c, 9, 42, 0
4, 56640, Note_on_c, 9, 40, 0
4, 56640, Note_on_c, 9, 46, 84
4, 56736, Note_on_c, 9, 46, 0
4, 56832, Note_on_c, 9, 35, 84
4, 56832, Note_on_c, 9, 42, 84
4, 56864, Note_on_c, 9, 42, 0
4, 56864, Note_on_c, 9, 35, 0
4, 56960, Note_on_c, 9, 42, 68
4, 56992, Note_on_c, 9, 42, 0
4, 57024, Note_on_c, 9, 42, 84
4, 57056, Note_on_c, 9, 42, 0
4, 57152, Note_on_c, 9, 35, 84
4, 57152, Note_on_c, 9, 42, 68
4, 57184, Note_on_c, 9, 42, 0
4, 57184, Note_on_c, 9, 35, 0
4, 57216, Note_on_c, 9, 40, 100
4, 57216, Note_on_c, 9, 42, 84
4, 57248, Note_on_c, 9, 42, 0
4, 57344, Note_on_c, 9, 42, 68
4, 57376, Note_on_c, 9, 42, 0
4, 57408, Note_on_c, 9, 40, 0
4, 57408, Note_on_c, 9, 35, 84
4, 57408, Note_on_c, 9, 42, 84
4, 57440, Note_on_c, 9, 42, 0
4, 57440, Note_on_c, 9, 35, 0
4, 57536, Note_on_c, 9, 42, 68
4, 57568, Note_on_c, 9, 42, 0
4, 57600, Note_on_c, 9, 42, 84
4, 57632, Note_on_c, 9, 42, 0
4, 57728, Note_on_c, 9, 81, 84
4, 57728, Note_on_c, 9, 35, 84
4, 57728, Note_on_c, 9, 42, 68
4, 57760, Note_on_c, 9, 42, 0
4, 57760, Note_on_c, 9, 35, 0
4, 57760, Note_on_c, 9, 81, 0
4, 57792, Note_on_c, 9, 80, 84
4, 57792, Note_on_c, 9, 42, 84
4, 57824, Note_on_c, 9, 42, 0
4, 57824, Note_on_c, 9, 80, 0
4, 57920, Note_on_c, 9, 35, 84
4, 57920, Note_on_c, 9, 42, 68
4, 57952, Note_on_c, 9, 42, 0
4, 57952, Note_on_c, 9, 35, 0
4, 57984, Note_on_c, 9, 81, 100
4, 57984, Note_on_c, 9, 40, 100
4, 57984, Note_on_c, 9, 42, 84
4, 58016, Note_on_c, 9, 42, 0
4, 58016, Note_on_c, 9, 81, 0
4, 58112, Note_on_c, 9, 42, 68
4, 58144, Note_on_c, 9, 42, 0
4, 58176, Note_on_c, 9, 40, 0
4, 58176, Note_on_c, 9, 80, 84
4, 58176, Note_on_c, 9, 46, 84
4, 58208, Note_on_c, 9, 80, 0
4, 58272, Note_on_c, 9, 46, 0
4, 58368, Note_on_c, 9, 35, 84
4, 58368, Note_on_c, 9, 42, 84
4, 58400, Note_on_c, 9, 42, 0
4, 58400, Note_on_c, 9, 35, 0
4, 58496, Note_on_c, 9, 42, 68
4, 58528, Note_on_c, 9, 42, 0
4, 58560, Note_on_c, 9, 42, 84
4, 58560, Note_on_c, 9, 75, 84
4, 58592, Note_on_c, 9, 42, 0
4, 58656, Note_on_c, 9, 75, 0
4, 58688, Note_on_c, 9, 35, 84
4, 58688, Note_on_c, 9, 42, 68
4, 58720, Note_on_c, 9, 42, 0
4, 58720, Note_on_c, 9, 35, 0
4, 58752, Note_on_c, 9, 40, 100
4, 58752, Note_on_c, 9, 42, 84
4, 58784, Note_on_c, 9, 42, 0
4, 58880, Note_on_c, 9, 42, 68
4, 58880, Note_on_c, 9, 85, 100
4, 58912, Note_on_c, 9, 42, 0
4, 58944, Note_on_c, 9, 40, 0
4, 58944, Note_on_c, 9, 35, 84
4, 58944, Note_on_c, 9, 46, 84
4, 58976, Note_on_c, 9, 35, 0
4, 59008, Note_on_c, 9, 85, 0
4, 59040, Note_on_c, 9, 46, 0
4, 59136, Note_on_c, 9, 42, 84
4, 59136, Note_on_c, 9, 82, 84
4, 59168, Note_on_c, 9, 42, 0
4, 59264, Note_on_c, 9, 35, 84
4, 59264, Note_on_c, 9, 42, 68
4, 59296, Note_on_c, 9, 42, 0
4, 59296, Note_on_c, 9, 35, 0
4, 59328, Note_on_c, 9, 82, 0
4, 59328, Note_on_c, 9, 42, 84
4, 59360, Note_on_c, 9, 42, 0
4, 59456, Note_on_c, 9, 35, 84
4, 59456, Note_on_c, 9, 42, 68
4, 59488, Note_on_c, 9, 42, 0
4, 59488, Note_on_c, 9, 35, 0
4, 59520, Note_on_c, 9, 40, 100
4, 59520, Note_on_c, 9, 42, 84
4, 59552, Note_on_c, 9, 42, 0
4, 59648, Note_on_c, 9, 42, 68
4, 59680, Note_on_c, 9, 42, 0
4, 59712, Note_on_c, 9, 40, 0
4, 59712, Note_on_c, 9, 46, 84
4, 59808, Note_on_c, 9, 46, 0
4, 59904, Note_on_c, 9, 35, 84
4, 59904, Note_on_c, 9, 42, 84
4, 59936, Note_on_c, 9, 42, 0
4, 59936, Note_on_c, 9, 35, 0
4, 60032, Note_on_c, 9, 42, 68
4, 60064, Note_on_c, 9, 42, 0
4, 60096, Note_on_c, 9, 42, 84
4, 60096, Note_on_c, 9, 75, 84
4, 60128, Note_on_c, 9, 42, 0
4, 60192, Note_on_c, 9, 75, 0
4, 60224, Note_on_c, 9, 35, 84
4, 60224, Note_on_c, 9, 42, 68
4, 60256, Note_on_c, 9, 42, 0
4, 60256, Note_on_c, 9, 35, 0
4, 60288, Note_on_c, 9, 40, 100
4, 60288, Note_on_c, 9, 42, 84
4, 60320, Note_on_c, 9, 42, 0
4, 60416, Note_on_c, 9, 42, 68
4, 60416, Note_on_c, 9, 85, 100
4, 60448, Note_on_c, 9, 42, 0
4, 60480, Note_on_c, 9, 40, 0
4, 60480, Note_on_c, 9, 35, 84
4, 60480, Note_on_c, 9, 46, 84
4, 60512, Note_on_c, 9, 35, 0
4, 60544, Note_on_c, 9, 85, 0
4, 60576, Note_on_c, 9, 46, 0
4, 60672, Note_on_c, 9, 42, 84
4, 60672, Note_on_c, 9, 82, 84
4, 60704, Note_on_c, 9, 42, 0
4, 60800, Note_on_c, 9, 35, 84
4, 60800, Note_on_c, 9, 42, 68
4, 60832, Note_on_c, 9, 42, 0
4, 60832, Note_on_c, 9, 35, 0
4, 60864, Note_on_c, 9, 82, 0
4, 60864, Note_on_c, 9, 42, 84
4, 60896, Note_on_c, 9, 42, 0
4, 60992, Note_on_c, 9, 35, 84
4, 60992, Note_on_c, 9, 42, 68
4, 61024, Note_on_c, 9, 42, 0
4, 61024, Note_on_c, 9, 35, 0
4, 61056, Note_on_c, 9, 40, 100
4, 61056, Note_on_c, 9, 42, 84
4, 61088, Note_on_c, 9, 42, 0
4, 61184, Note_on_c, 9, 42, 68
4, 61216, Note_on_c, 9, 42, 0
4, 61248, Note_on_c, 9, 40, 0
4, 61248, Note_on_c, 9, 46, 84
4, 61344, Note_on_c, 9, 46, 0
4, 61440, Note_on_c, 9, 35, 84
4, 61440, Note_on_c, 9, 42, 84
4, 61440, Note_on_c, 9, 49, 84
4, 61472, Note_on_c, 9, 42, 0
4, 61472, Note_on_c, 9, 35, 0
4, 61568, Note_on_c, 9, 42, 68
4, 61600, Note_on_c, 9, 42, 0
4, 61632, Note_on_c, 9, 49, 0
4, 61632, Note_on_c, 9, 42, 84
4, 61632, Note_on_c, 9, 75, 84
4, 61664, Note_on_c, 9, 42, 0
4, 61728, Note_on_c, 9, 75, 0
4, 61760, Note_on_c, 9, 35, 84
4, 61760, Note_on_c, 9, 42, 68
4, 61792, Note_on_c, 9, 42, 0
4, 61792, Note_on_c, 9, 35, 0
4, 61824, Note_on_c, 9, 40, 100
4, 61824, Note_on_c, 9, 42, 84
4, 61856, Note_on_c, 9, 42, 0
4, 61952, Note_on_c, 9, 42, 68
4, 61952, Note_on_c, 9, 85, 100
4, 61984, Note_on_c, 9, 42, 0
4, 62016, Note_on_c, 9, 40, 0
4, 62016, Note_on_c, 9, 35, 84
4, 62016, Note_on_c, 9, 46, 84
4, 62048, Note_on_c, 9, 35, 0
4, 62080, Note_on_c, 9, 85, 0
4, 62112, Note_on_c, 9, 46, 0
4, 62208, Note_on_c, 9, 42, 84
4, 62208, Note_on_c, 9, 82, 84
4, 62240, Note_on_c, 9, 42, 0
4, 62336, Note_on_c, 9, 35, 84
4, 62336, Note_on_c, 9, 42, 68
4, 62368, Note_on_c, 9, 42, 0
4, 62368, Note_on_c, 9, 35, 0
4, 62400, Note_on_c, 9, 82, 0
4, 62400, Note_on_c, 9, 42, 84
4, 62432, Note_on_c, 9, 42, 0
4, 62528, Note_on_c, 9, 35, 84
4, 62528, Note_on_c, 9, 42, 68
4, 62560, Note_on_c, 9, 42, 0
4, 62560, Note_on_c, 9, 35, 0
4, 62592, Note_on_c, 9, 40, 100
4, 62592, Note_on_c, 9, 42, 84
4, 62624, Note_on_c, 9, 42, 0
4, 62720, Note_on_c, 9, 42, 68
4, 62752, Note_on_c, 9, 42, 0
4, 62784, Note_on_c, 9, 40, 0
4, 62784, Note_on_c, 9, 46, 84
4, 62880, Note_on_c, 9, 46, 0
4, 62976, Note_on_c, 9, 35, 84
4, 62976, Note_on_c, 9, 42, 84
4, 63008, Note_on_c, 9, 42, 0
4, 63008, Note_on_c, 9, 35, 0
4, 63104, Note_on_c, 9, 42, 68
4, 63136, Note_on_c, 9, 42, 0
4, 63168, Note_on_c, 9, 42, 84
4, 63168, Note_on_c, 9, 75, 84
4, 63200, Note_on_c, 9, 42, 0
4, 63264, Note_on_c, 9, 75, 0
4, 63296, Note_on_c, 9, 35, 84
4, 63296, Note_on_c, 9, 42, 68
4, 63328, Note_on_c, 9, 42, 0
4, 63328, Note_on_c, 9, 35, 0
4, 63360, Note_on_c, 9, 40, 100
4, 63360, Note_on_c, 9, 42, 84
4, 63392, Note_on_c, 9, 42, 0
4, 63488, Note_on_c, 9, 42, 68
4, 63488, Note_on_c, 9, 85, 100
4, 63520, Note_on_c, 9, 42, 0
4, 63552, Note_on_c, 9, 40, 0
4, 63552, Note_on_c, 9, 35, 84
4, 63552, Note_on_c, 9, 46, 84
4, 63584, Note_on_c, 9, 35, 0
4, 63616, Note_on_c, 9, 85, 0
4, 63648, Note_on_c, 9, 46, 0
4, 63744, Note_on_c, 9, 42, 84
4, 63744, Note_on_c, 9, 82, 84
4, 63776, Note_on_c, 9, 42, 0
4, 63872, Note_on_c, 9, 35, 84
4, 63872, Note_on_c, 9, 42, 68
4, 63904, Note_on_c, 9, 42, 0
4, 63904, Note_on_c, 9, 35, 0
4, 63936, Note_on_c, 9, 82, 0
4, 63936, Note_on_c, 9, 42, 84
4, 63968, Note_on_c, 9, 42, 0
4, 64064, Note_on_c, 9, 35, 84
4, 64064, Note_on_c, 9, 42, 68
4, 64096, Note_on_c, 9, 42, 0
4, 64096, Note_on_c, 9, 35, 0
4, 64128, Note_on_c, 9, 40, 100
4, 64128, Note_on_c, 9, 42, 84
4, 64160, Note_on_c, 9, 42, 0
4, 64256, Note_on_c, 9, 42, 68
4, 64288, Note_on_c, 9, 42, 0
4, 64320, Note_on_c, 9, 40, 0
4, 64320, Note_on_c, 9, 46, 84
4, 64416, Note_on_c, 9, 46, 0
4, 64512, Note_on_c, 9, 35, 84
4, 64512, Note_on_c, 9, 42, 84
4, 64544, Note_on_c, 9, 42, 0
4, 64544, Note_on_c, 9, 35, 0
4, 64640, Note_on_c, 9, 42, 68
4, 64672, Note_on_c, 9, 42, 0
4, 64704, Note_on_c, 9, 42, 84
4, 64704, Note_on_c, 9, 75, 84
4, 64736, Note_on_c, 9, 42, 0
4, 64800, Note_on_c, 9, 75, 0
4, 64832, Note_on_c, 9, 35, 84
4, 64832, Note_on_c, 9, 42, 68
4, 64864, Note_on_c, 9, 42, 0
4, 64864, Note_on_c, 9, 35, 0
4, 64896, Note_on_c, 9, 40, 100
4, 64896, Note_on_c, 9, 42, 84
4, 64928, Note_on_c, 9, 42, 0
4, 65024, Note_on_c, 9, 42, 68
4, 65024, Note_on_c, 9, 85, 100
4, 65056, Note_on_c, 9, 42, 0
4, 65088, Note_on_c, 9, 40, 0
4, 65088, Note_on_c, 9, 35, 84
4, 65088, Note_on_c, 9, 46, 84
4, 65120, Note_on_c, 9, 35, 0
4, 65152, Note_on_c, 9, 85, 0
4, 65184, Note_on_c, 9, 46, 0
4, 65280, Note_on_c, 9, 42, 84
4, 65280, Note_on_c, 9, 82, 84
4, 65312, Note_on_c, 9, 42, 0
4, 65408, Note_on_c, 9, 35, 84
4, 65408, Note_on_c, 9, 42, 68
4, 65440, Note_on_c, 9, 42, 0
4, 65440, Note_on_c, 9, 35, 0
4, 65472, Note_on_c, 9, 82, 0
4, 65472, Note_on_c, 9, 42, 84
4, 65504, Note_on_c, 9, 42, 0
4, 65600, Note_on_c, 9, 35, 84
4, 65600, Note_on_c, 9, 42, 68
4, 65632, Note_on_c, 9, 42, 0
4, 65632, Note_on_c, 9, 35, 0
4, 65664, Note_on_c, 9, 40, 100
4, 65664, Note_on_c, 9, 42, 84
4, 65696, Note_on_c, 9, 42, 0
4, 65792, Note_on_c, 9, 42, 68
4, 65824, Note_on_c, 9, 42, 0
4, 65856, Note_on_c, 9, 40, 0
4, 65856, Note_on_c, 9, 46, 84
4, 65952, Note_on_c, 9, 46, 0
4, 66048, Note_on_c, 9, 35, 84
4, 66048, Note_on_c, 9, 42, 84
4, 66080, Note_on_c, 9, 42, 0
4, 66080, Note_on_c, 9, 35, 0
4, 66176, Note_on_c, 9, 42, 68
4, 66208, Note_on_c, 9, 42, 0
4, 66240, Note_on_c, 9, 42, 84
4, 66240, Note_on_c, 9, 75, 84
4, 66272, Note_on_c, 9, 42, 0
4, 66336, Note_on_c, 9, 75, 0
4, 66368, Note_on_c, 9, 35, 84
4, 66368, Note_on_c, 9, 42, 68
4, 66400, Note_on_c, 9, 42, 0
4, 66400, Note_on_c, 9, 35, 0
4, 66432, Note_on_c, 9, 40, 100
4, 66432, Note_on_c, 9, 42, 84
4, 66464, Note_on_c, 9, 42, 0
4, 66560, Note_on_c, 9, 42, 68
4, 66560, Note_on_c, 9, 85, 100
4, 66592, Note_on_c, 9, 42, 0
4, 66624, Note_on_c, 9, 40, 0
4, 66624, Note_on_c, 9, 35, 84
4, 66624, Note_on_c, 9, 46, 84
4, 66656, Note_on_c, 9, 35, 0
4, 66688, Note_on_c, 9, 85, 0
4, 66720, Note_on_c, 9, 46, 0
4, 66816, Note_on_c, 9, 42, 84
4, 66816, Note_on_c, 9, 82, 84
4, 66848, Note_on_c, 9, 42, 0
4, 66944, Note_on_c, 9, 35, 84
4, 66944, Note_on_c, 9, 42, 68
4, 66976, Note_on_c, 9, 42, 0
4, 66976, Note_on_c, 9, 35, 0
4, 67008, Note_on_c, 9, 82, 0
4, 67008, Note_on_c, 9, 42, 84
4, 67040, Note_on_c, 9, 42, 0
4, 67136, Note_on_c, 9, 35, 84
4, 67136, Note_on_c, 9, 42, 68
4, 67168, Note_on_c, 9, 42, 0
4, 67168, Note_on_c, 9, 35, 0
4, 67200, Note_on_c, 9, 40, 100
4, 67200, Note_on_c, 9, 42, 84
4, 67232, Note_on_c, 9, 42, 0
4, 67328, Note_on_c, 9, 42, 68
4, 67360, Note_on_c, 9, 42, 0
4, 67392, Note_on_c, 9, 40, 0
4, 67392, Note_on_c, 9, 46, 84
4, 67488, Note_on_c, 9, 46, 0
4, 67584, Note_on_c, 9, 35, 84
4, 67584, Note_on_c, 9, 42, 84
4, 67616, Note_on_c, 9, 42, 0
4, 67616, Note_on_c, 9, 35, 0
4, 67712, Note_on_c, 9, 42, 68
4, 67744, Note_on_c, 9, 42, 0
4, 67776, Note_on_c, 9, 42, 84
4, 67776, Note_on_c, 9, 75, 84
4, 67808, Note_on_c, 9, 42, 0
4, 67872, Note_on_c, 9, 75, 0
4, 67904, Note_on_c, 9, 35, 84
4, 67904, Note_on_c, 9, 42, 68
4, 67936, Note_on_c, 9, 42, 0
4, 67936, Note_on_c, 9, 35, 0
4, 67968, Note_on_c, 9, 40, 100
4, 67968, Note_on_c, 9, 42, 84
4, 68000, Note_on_c, 9, 42, 0
4, 68096, Note_on_c, 9, 42, 68
4, 68096, Note_on_c, 9, 85, 100
4, 68128, Note_on_c, 9, 42, 0
4, 68160, Note_on_c, 9, 40, 0
4, 68160, Note_on_c, 9, 35, 84
4, 68160, Note_on_c, 9, 46, 84
4, 68192, Note_on_c, 9, 35, 0
4, 68224, Note_on_c, 9, 85, 0
4, 68256, Note_on_c, 9, 46, 0
4, 68352, Note_on_c, 9, 42, 84
4, 68352, Note_on_c, 9, 82, 84
4, 68384, Note_on_c, 9, 42, 0
4, 68480, Note_on_c, 9, 35, 84
4, 68480, Note_on_c, 9, 42, 68
4, 68512, Note_on_c, 9, 42, 0
4, 68512, Note_on_c, 9, 35, 0
4, 68544, Note_on_c, 9, 82, 0
4, 68544, Note_on_c, 9, 42, 84
4, 68576, Note_on_c, 9, 42, 0
4, 68672, Note_on_c, 9, 35, 84
4, 68672, Note_on_c, 9, 42, 68
4, 68704, Note_on_c, 9, 42, 0
4, 68704, Note_on_c, 9, 35, 0
4, 68736, Note_on_c, 9, 40, 100
4, 68736, Note_on_c, 9, 42, 84
4, 68768, Note_on_c, 9, 42, 0
4, 68864, Note_on_c, 9, 42, 68
4, 68896, Note_on_c, 9, 42, 0
4, 68928, Note_on_c, 9, 40, 0
4, 68928, Note_on_c, 9, 46, 84
4, 69024, Note_on_c, 9, 46, 0
4, 69120, Note_on_c, 9, 35, 84
4, 69120, Note_on_c, 9, 42, 84
4, 69152, Note_on_c, 9, 42, 0
4, 69152, Note_on_c, 9, 35, 0
4, 69248, Note_on_c, 9, 42, 68
4, 69280, Note_on_c, 9, 42, 0
4, 69312, Note_on_c, 9, 42, 84
4, 69312, Note_on_c, 9, 75, 84
4, 69344, Note_on_c, 9, 42, 0
4, 69408, Note_on_c, 9, 75, 0
4, 69440, Note_on_c, 9, 35, 84
4, 69440, Note_on_c, 9, 42, 68
4, 69472, Note_on_c, 9, 42, 0
4, 69472, Note_on_c, 9, 35, 0
4, 69504, Note_on_c, 9, 40, 100
4, 69504, Note_on_c, 9, 42, 84
4, 69536, Note_on_c, 9, 42, 0
4, 69632, Note_on_c, 9, 42, 68
4, 69632, Note_on_c, 9, 85, 100
4, 69664, Note_on_c, 9, 42, 0
4, 69696, Note_on_c, 9, 40, 0
4, 69696, Note_on_c, 9, 35, 84
4, 69696, Note_on_c, 9, 46, 84
4, 69728, Note_on_c, 9, 35, 0
4, 69760, Note_on_c, 9, 85, 0
4, 69792, Note_on_c, 9, 46, 0
4, 69888, Note_on_c, 9, 42, 84
4, 69888, Note_on_c, 9, 82, 84
4, 69920, Note_on_c, 9, 42, 0
4, 70016, Note_on_c, 9, 35, 84
4, 70016, Note_on_c, 9, 42, 68
4, 70048, Note_on_c, 9, 42, 0
4, 70048, Note_on_c, 9, 35, 0
4, 70080, Note_on_c, 9, 82, 0
4, 70080, Note_on_c, 9, 42, 84
4, 70112, Note_on_c, 9, 42, 0
4, 70208, Note_on_c, 9, 35, 84
4, 70208, Note_on_c, 9, 42, 68
4, 70240, Note_on_c, 9, 42, 0
4, 70240, Note_on_c, 9, 35, 0
4, 70272, Note_on_c, 9, 40, 100
4, 70272, Note_on_c, 9, 42, 84
4, 70304, Note_on_c, 9, 42, 0
4, 70400, Note_on_c, 9, 42, 68
4, 70432, Note_on_c, 9, 42, 0
4, 70464, Note_on_c, 9, 40, 0
4, 70464, Note_on_c, 9, 46, 84
4, 70560, Note_on_c, 9, 46, 0
4, 70656, Note_on_c, 9, 35, 84
4, 70656, Note_on_c, 9, 42, 84
4, 70688, Note_on_c, 9, 42, 0
4, 70688, Note_on_c, 9, 35, 0
4, 70784, Note_on_c, 9, 42, 68
4, 70816, Note_on_c, 9, 42, 0
4, 70848, Note_on_c, 9, 42, 84
4, 70848, Note_on_c, 9, 75, 84
4, 70880, Note_on_c, 9, 42, 0
4, 70944, Note_on_c, 9, 75, 0
4, 70976, Note_on_c, 9, 35, 84
4, 70976, Note_on_c, 9, 42, 68
4, 71008, Note_on_c, 9, 42, 0
4, 71008, Note_on_c, 9, 35, 0
4, 71040, Note_on_c, 9, 40, 100
4, 71040, Note_on_c, 9, 42, 84
4, 71072, Note_on_c, 9, 42, 0
4, 71168, Note_on_c, 9, 42, 68
4, 71168, Note_on_c, 9, 85, 100
4, 71200, Note_on_c, 9, 42, 0
4, 71232, Note_on_c, 9, 40, 0
4, 71232, Note_on_c, 9, 35, 84
4, 71232, Note_on_c, 9, 46, 84
4, 71264, Note_on_c, 9, 35, 0
4, 71296, Note_on_c, 9, 85, 0
4, 71328, Note_on_c, 9, 46, 0
4, 71424, Note_on_c, 9, 42, 84
4, 71424, Note_on_c, 9, 82, 84
4, 71456, Note_on_c, 9, 42, 0
4, 71552, Note_on_c, 9, 35, 84
4, 71552, Note_on_c, 9, 42, 68
4, 71584, Note_on_c, 9, 42, 0
4, 71584, Note_on_c, 9, 35, 0
4, 71616, Note_on_c, 9, 82, 0
4, 71616, Note_on_c, 9, 42, 84
4, 71648, Note_on_c, 9, 42, 0
4, 71744, Note_on_c, 9, 35, 84
4, 71744, Note_on_c, 9, 42, 68
4, 71776, Note_on_c, 9, 42, 0
4, 71776, Note_on_c, 9, 35, 0
4, 71808, Note_on_c, 9, 40, 100
4, 71808, Note_on_c, 9, 42, 84
4, 71840, Note_on_c, 9, 42, 0
4, 71936, Note_on_c, 9, 42, 68
4, 71968, Note_on_c, 9, 42, 0
4, 72000, Note_on_c, 9, 40, 0
4, 72000, Note_on_c, 9, 46, 84
4, 72096, Note_on_c, 9, 46, 0
4, 72192, Note_on_c, 9, 35, 84
4, 72192, Note_on_c, 9, 42, 84
4, 72224, Note_on_c, 9, 42, 0
4, 72224, Note_on_c, 9, 35, 0
4, 72320, Note_on_c, 9, 42, 68
4, 72352, Note_on_c, 9, 42, 0
4, 72384, Note_on_c, 9, 42, 84
4, 72384, Note_on_c, 9, 75, 84
4, 72416, Note_on_c, 9, 42, 0
4, 72480, Note_on_c, 9, 75, 0
4, 72512, Note_on_c, 9, 35, 84
4, 72512, Note_on_c, 9, 42, 68
4, 72544, Note_on_c, 9, 42, 0
4, 72544, Note_on_c, 9, 35, 0
4, 72576, Note_on_c, 9, 40, 100
4, 72576, Note_on_c, 9, 42, 84
4, 72608, Note_on_c, 9, 42, 0
4, 72704, Note_on_c, 9, 42, 68
4, 72704, Note_on_c, 9, 85, 100
4, 72736, Note_on_c, 9, 42, 0
4, 72768, Note_on_c, 9, 40, 0
4, 72768, Note_on_c, 9, 35, 84
4, 72768, Note_on_c, 9, 46, 84
4, 72800, Note_on_c, 9, 35, 0
4, 72832, Note_on_c, 9, 85, 0
4, 72864, Note_on_c, 9, 46, 0
4, 72960, Note_on_c, 9, 42, 84
4, 72960, Note_on_c, 9, 82, 84
4, 72992, Note_on_c, 9, 42, 0
4, 73088, Note_on_c, 9, 35, 84
4, 73088, Note_on_c, 9, 42, 68
4, 73120, Note_on_c, 9, 42, 0
4, 73120, Note_on_c, 9, 35, 0
4, 73152, Note_on_c, 9, 82, 0
4, 73152, Note_on_c, 9, 42, 84
4, 73184, Note_on_c, 9, 42, 0
4, 73280, Note_on_c, 9, 35, 84
4, 73280, Note_on_c, 9, 42, 68
4, 73312, Note_on_c, 9, 42, 0
4, 73312, Note_on_c, 9, 35, 0
4, 73344, Note_on_c, 9, 40, 100
4, 73344, Note_on_c, 9, 42, 84
4, 73376, Note_on_c, 9, 42, 0
4, 73472, Note_on_c, 9, 42, 68
4, 73504, Note_on_c, 9, 42, 0
4, 73536, Note_on_c, 9, 40, 0
4, 73536, Note_on_c, 9, 46, 84
4, 73632, Note_on_c, 9, 46, 0
4, 73728, Note_on_c, 9, 35, 84
4, 73728, Note_on_c, 9, 42, 84
4, 73760, Note_on_c, 9, 42, 0
4, 73760, Note_on_c, 9, 35, 0
4, 73856, Note_on_c, 9, 42, 68
4, 73856, Note_on_c, 9, 51, 100
4, 73888, Note_on_c, 9, 42, 0
4, 73920, Note_on_c, 9, 51, 0
4, 73920, Note_on_c, 9, 42, 84
4, 73952, Note_on_c, 9, 42, 0
4, 74048, Note_on_c, 9, 35, 84
4, 74048, Note_on_c, 9, 42, 68
4, 74080, Note_on_c, 9, 42, 0
4, 74080, Note_on_c, 9, 35, 0
4, 74112, Note_on_c, 9, 40, 100
4, 74112, Note_on_c, 9, 42, 84
4, 74144, Note_on_c, 9, 42, 0
4, 74240, Note_on_c, 9, 42, 68
4, 74272, Note_on_c, 9, 42, 0
4, 74304, Note_on_c, 9, 40, 0
4, 74304, Note_on_c, 9, 35, 84
4, 74304, Note_on_c, 9, 42, 84
4, 74336, Note_on_c, 9, 42, 0
4, 74336, Note_on_c, 9, 35, 0
4, 74432, Note_on_c, 9, 42, 68
4, 74464, Note_on_c, 9, 42, 0
4, 74496, Note_on_c, 9, 42, 84
4, 74528, Note_on_c, 9, 42, 0
4, 74624, Note_on_c, 9, 35, 84
4, 74624, Note_on_c, 9, 42, 68
4, 74656, Note_on_c, 9, 42, 0
4, 74656, Note_on_c, 9, 35, 0
4, 74688, Note_on_c, 9, 42, 84
4, 74720, Note_on_c, 9, 42, 0
4, 74816, Note_on_c, 9, 35, 84
4, 74816, Note_on_c, 9, 42, 68
4, 74848, Note_on_c, 9, 42, 0
4, 74848, Note_on_c, 9, 35, 0
4, 74880, Note_on_c, 9, 40, 100
4, 74880, Note_on_c, 9, 42, 84
4, 74912, Note_on_c, 9, 42, 0
4, 75008, Note_on_c, 9, 42, 68
4, 75040, Note_on_c, 9, 42, 0
4, 75072, Note_on_c, 9, 40, 0
4, 75072, Note_on_c, 9, 46, 84
4, 75168, Note_on_c, 9, 46, 0
4, 75264, Note_on_c, 9, 35, 84
4, 75264, Note_on_c, 9, 42, 84
4, 75296, Note_on_c, 9, 42, 0
4, 75296, Note_on_c, 9, 35, 0
4, 75392, Note_on_c, 9, 42, 68
4, 75392, Note_on_c, 9, 51, 100
4, 75424, Note_on_c, 9, 42, 0
4, 75456, Note_on_c, 9, 51, 0
4, 75456, Note_on_c, 9, 42, 84
4, 75488, Note_on_c, 9, 42, 0
4, 75584, Note_on_c, 9, 35, 84
4, 75584, Note_on_c, 9, 42, 68
4, 75616, Note_on_c, 9, 42, 0
4, 75616, Note_on_c, 9, 35, 0
4, 75648, Note_on_c, 9, 40, 100
4, 75648, Note_on_c, 9, 42, 84
4, 75680, Note_on_c, 9, 42, 0
4, 75776, Note_on_c, 9, 42, 68
4, 75808, Note_on_c, 9, 42, 0
4, 75840, Note_on_c, 9, 40, 0
4, 75840, Note_on_c, 9, 35, 84
4, 75840, Note_on_c, 9, 42, 84
4, 75872, Note_on_c, 9, 42, 0
4, 75872, Note_on_c, 9, 35, 0
4, 75968, Note_on_c, 9, 42, 68
4, 76000, Note_on_c, 9, 42, 0
4, 76032, Note_on_c, 9, 42, 84
4, 76064, Note_on_c, 9, 42, 0
4, 76160, Note_on_c, 9, 35, 84
4, 76160, Note_on_c, 9, 42, 68
4, 76160, Note_on_c, 9, 51, 100
4, 76192, Note_on_c, 9, 42, 0
4, 76192, Note_on_c, 9, 35, 0
4, 76224, Note_on_c, 9, 51, 0
4, 76224, Note_on_c, 9, 42, 84
4, 76256, Note_on_c, 9, 42, 0
4, 76352, Note_on_c, 9, 35, 84
4, 76352, Note_on_c, 9, 42, 68
4, 76384, Note_on_c, 9, 42, 0
4, 76384, Note_on_c, 9, 35, 0
4, 76416, Note_on_c, 9, 40, 100
4, 76416, Note_on_c, 9, 42, 84
4, 76448, Note_on_c, 9, 42, 0
4, 76544, Note_on_c, 9, 42, 68
4, 76576, Note_on_c, 9, 42, 0
4, 76608, Note_on_c, 9, 40, 0
4, 76608, Note_on_c, 9, 46, 84
4, 76704, Note_on_c, 9, 46, 0
4, 76800, Note_on_c, 9, 35, 84
4, 76800, Note_on_c, 9, 42, 84
4, 76832, Note_on_c, 9, 42, 0
4, 76832, Note_on_c, 9, 35, 0
4, 76928, Note_on_c, 9, 42, 68
4, 76928, Note_on_c, 9, 51, 100
4, 76960, Note_on_c, 9, 42, 0
4, 76992, Note_on_c, 9, 51, 0
4, 76992, Note_on_c, 9, 42, 84
4, 77024, Note_on_c, 9, 42, 0
4, 77120, Note_on_c, 9, 35, 84
4, 77120, Note_on_c, 9, 42, 68
4, 77152, Note_on_c, 9, 42, 0
4, 77152, Note_on_c, 9, 35, 0
4, 77184, Note_on_c, 9, 40, 100
4, 77184, Note_on_c, 9, 42, 84
4, 77216, Note_on_c, 9, 42, 0
4, 77312, Note_on_c, 9, 42, 68
4, 77344, Note_on_c, 9, 42, 0
4, 77376, Note_on_c, 9, 40, 0
4, 77376, Note_on_c, 9, 35, 84
4, 77376, Note_on_c, 9, 42, 84
4, 77408, Note_on_c, 9, 42, 0
4, 77408, Note_on_c, 9, 35, 0
4, 77504, Note_on_c, 9, 42, 68
4, 77536, Note_on_c, 9, 42, 0
4, 77568, Note_on_c, 9, 42, 84
4, 77600, Note_on_c, 9, 42, 0
4, 77696, Note_on_c, 9, 35, 84
4, 77696, Note_on_c, 9, 42, 68
4, 77728, Note_on_c, 9, 42, 0
4, 77728, Note_on_c, 9, 35, 0
4, 77760, Note_on_c, 9, 42, 84
4, 77792, Note_on_c, 9, 42, 0
4, 77888, Note_on_c, 9, 35, 84
4, 77888, Note_on_c, 9, 42, 68
4, 77920, Note_on_c, 9, 42, 0
4, 77920, Note_on_c, 9, 35, 0
4, 77952, Note_on_c, 9, 40, 100
4, 77952, Note_on_c, 9, 42, 84
4, 77984, Note_on_c, 9, 42, 0
4, 78080, Note_on_c, 9, 42, 68
4, 78112, Note_on_c, 9, 42, 0
4, 78144, Note_on_c, 9, 40, 0
4, 78144, Note_on_c, 9, 46, 84
4, 78240, Note_on_c, 9, 46, 0
4, 78336, Note_on_c, 9, 35, 84
4, 78336, Note_on_c, 9, 42, 84
4, 78368, Note_on_c, 9, 42, 0
4, 78368, Note_on_c, 9, 35, 0
4, 78464, Note_on_c, 9, 42, 68
4, 78464, Note_on_c, 9, 51, 100
4, 78496, Note_on_c, 9, 42, 0
4, 78528, Note_on_c, 9, 51, 0
4, 78528, Note_on_c, 9, 42, 84
4, 78560, Note_on_c, 9, 42, 0
4, 78656, Note_on_c, 9, 35, 84
4, 78656, Note_on_c, 9, 42, 68
4, 78688, Note_on_c, 9, 42, 0
4, 78688, Note_on_c, 9, 35, 0
4, 78720, Note_on_c, 9, 40, 100
4, 78720, Note_on_c, 9, 42, 84
4, 78752, Note_on_c, 9, 42, 0
4, 78848, Note_on_c, 9, 42, 68
4, 78880, Note_on_c, 9, 42, 0
4, 78912, Note_on_c, 9, 40, 0
4, 78912, Note_on_c, 9, 35, 84
4, 78912, Note_on_c, 9, 42, 84
4, 78944, Note_on_c, 9, 42, 0
4, 78944, Note_on_c, 9, 35, 0
4, 79040, Note_on_c, 9, 42, 68
4, 79072, Note_on_c, 9, 42, 0
4, 79104, Note_on_c, 9, 42, 84
4, 79136, Note_on_c, 9, 42, 0
4, 79232, Note_on_c, 9, 35, 84
4, 79232, Note_on_c, 9, 42, 68
4, 79232, Note_on_c, 9, 51, 100
4, 79264, Note_on_c, 9, 42, 0
4, 79264, Note_on_c, 9, 35, 0
4, 79296, Note_on_c, 9, 51, 0
4, 79296, Note_on_c, 9, 42, 84
4, 79328, Note_on_c, 9, 42, 0
4, 79424, Note_on_c, 9, 35, 84
4, 79424, Note_on_c, 9, 42, 68
4, 79456, Note_on_c, 9, 42, 0
4, 79456, Note_on_c, 9, 35, 0
4, 79488, Note_on_c, 9, 40, 100
4, 79488, Note_on_c, 9, 42, 84
4, 79520, Note_on_c, 9, 42, 0
4, 79616, Note_on_c, 9, 35, 84
4, 79616, Note_on_c, 9, 42, 68
4, 79648, Note_on_c, 9, 42, 0
4, 79648, Note_on_c, 9, 35, 0
4, 79680, Note_on_c, 9, 40, 0
4, 79680, Note_on_c, 9, 35, 100
4, 79680, Note_on_c, 9, 46, 84
4, 79712, Note_on_c, 9, 35, 0
4, 79744, Note_on_c, 9, 35, 84
4, 79776, Note_on_c, 9, 35, 0
4, 79776, Note_on_c, 9, 46, 0
4, 79808, Note_on_c, 9, 35, 84
4, 79840, Note_on_c, 9, 35, 0
4, 79872, Note_on_c, 9, 35, 84
4, 79872, Note_on_c, 9, 42, 84
4, 79904, Note_on_c, 9, 42, 0
4, 79904, Note_on_c, 9, 35, 0
4, 80000, Note_on_c, 9, 42, 68
4, 80000, Note_on_c, 9, 51, 100
4, 80032, Note_on_c, 9, 42, 0
4, 80064, Note_on_c, 9, 51, 0
4, 80064, Note_on_c, 9, 42, 84
4, 80096, Note_on_c, 9, 42, 0
4, 80192, Note_on_c, 9, 35, 84
4, 80192, Note_on_c, 9, 42, 68
4, 80224, Note_on_c, 9, 42, 0
4, 80224, Note_on_c, 9, 35, 0
4, 80256, Note_on_c, 9, 40, 100
4, 80256, Note_on_c, 9, 42, 84
4, 80288, Note_on_c, 9, 42, 0
4, 80384, Note_on_c, 9, 35, 84
4, 80384, Note_on_c, 9, 42, 68
4, 80416, Note_on_c, 9, 42, 0
4, 80416, Note_on_c, 9, 35, 0
4, 80448, Note_on_c, 9, 40, 0
4, 80448, Note_on_c, 9, 35, 100
4, 80448, Note_on_c, 9, 42, 84
4, 80480, Note_on_c, 9, 42, 0
4, 80480, Note_on_c, 9, 35, 0
4, 80512, Note_on_c, 9, 35, 84
4, 80544, Note_on_c, 9, 35, 0
4, 80576, Note_on_c, 9, 35, 84
4, 80576, Note_on_c, 9, 42, 68
4, 80608, Note_on_c, 9, 42, 0
4, 80608, Note_on_c, 9, 35, 0
4, 80640, Note_on_c, 9, 42, 84
4, 80672, Note_on_c, 9, 42, 0
4, 80768, Note_on_c, 9, 35, 84
4, 80768, Note_on_c, 9, 42, 68
4, 80800, Note_on_c, 9, 42, 0
4, 80800, Note_on_c, 9, 35, 0
4, 80832, Note_on_c, 9, 42, 84
4, 80864, Note_on_c, 9, 42, 0
4, 80960, Note_on_c, 9, 35, 84
4, 80960, Note_on_c, 9, 42, 68
4, 80992, Note_on_c, 9, 42, 0
4, 80992, Note_on_c, 9, 35, 0
4, 81024, Note_on_c, 9, 40, 100
4, 81024, Note_on_c, 9, 42, 84
4, 81056, Note_on_c, 9, 42, 0
4, 81152, Note_on_c, 9, 35, 84
4, 81152, Note_on_c, 9, 42, 68
4, 81184, Note_on_c, 9, 42, 0
4, 81184, Note_on_c, 9, 35, 0
4, 81216, Note_on_c, 9, 40, 0
4, 81216, Note_on_c, 9, 35, 100
4, 81216, Note_on_c, 9, 46, 84
4, 81248, Note_on_c, 9, 35, 0
4, 81280, Note_on_c, 9, 35, 84
4, 81312, Note_on_c, 9, 35, 0
4, 81312, Note_on_c, 9, 46, 0
4, 81344, Note_on_c, 9, 35, 84
4, 81376, Note_on_c, 9, 35, 0
4, 81408, Note_on_c, 9, 35, 84
4, 81408, Note_on_c, 9, 42, 84
4, 81440, Note_on_c, 9, 42, 0
4, 81440, Note_on_c, 9, 35, 0
4, 81536, Note_on_c, 9, 42, 68
4, 81536, Note_on_c, 9, 51, 100
4, 81568, Note_on_c, 9, 42, 0
4, 81600, Note_on_c, 9, 51, 0
4, 81600, Note_on_c, 9, 42, 84
4, 81632, Note_on_c, 9, 42, 0
4, 81728, Note_on_c, 9, 35, 84
4, 81728, Note_on_c, 9, 42, 68
4, 81760, Note_on_c, 9, 42, 0
4, 81760, Note_on_c, 9, 35, 0
4, 81792, Note_on_c, 9, 40, 100
4, 81792, Note_on_c, 9, 42, 84
4, 81824, Note_on_c, 9, 42, 0
4, 81920, Note_on_c, 9, 42, 68
4, 81952, Note_on_c, 9, 42, 0
4, 81984, Note_on_c, 9, 40, 0
4, 81984, Note_on_c, 9, 35, 84
4, 81984, Note_on_c, 9, 42, 84
4, 82016, Note_on_c, 9, 42, 0
4, 82016, Note_on_c, 9, 35, 0
4, 82112, Note_on_c, 9, 42, 68
4, 82144, Note_on_c, 9, 42, 0
4, 82176, Note_on_c, 9, 42, 84
4, 82208, Note_on_c, 9, 42, 0
4, 82304, Note_on_c, 9, 35, 84
4, 82304, Note_on_c, 9, 42, 68
4, 82304, Note_on_c, 9, 51, 100
4, 82336, Note_on_c, 9, 42, 0
4, 82336, Note_on_c, 9, 35, 0
4, 82368, Note_on_c, 9, 51, 0
4, 82368, Note_on_c, 9, 42, 84
4, 82400, Note_on_c, 9, 42, 0
4, 82496, Note_on_c, 9, 35, 84
4, 82496, Note_on_c, 9, 42, 68
4, 82528, Note_on_c, 9, 42, 0
4, 82528, Note_on_c, 9, 35, 0
4, 82560, Note_on_c, 9, 40, 100
4, 82560, Note_on_c, 9, 42, 84
4, 82592, Note_on_c, 9, 42, 0
4, 82688, Note_on_c, 9, 42, 68
4, 82720, Note_on_c, 9, 42, 0
4, 82752, Note_on_c, 9, 40, 0
4, 82752, Note_on_c, 9, 46, 84
4, 82848, Note_on_c, 9, 46, 0
4, 82944, Note_on_c, 9, 35, 84
4, 82944, Note_on_c, 9, 42, 84
4, 82976, Note_on_c, 9, 42, 0
4, 82976, Note_on_c, 9, 35, 0
4, 83072, Note_on_c, 9, 42, 68
4, 83072, Note_on_c, 9, 51, 100
4, 83104, Note_on_c, 9, 42, 0
4, 83136, Note_on_c, 9, 51, 0
4, 83136, Note_on_c, 9, 42, 84
4, 83168, Note_on_c, 9, 42, 0
4, 83264, Note_on_c, 9, 35, 84
4, 83264, Note_on_c, 9, 42, 68
4, 83296, Note_on_c, 9, 42, 0
4, 83296, Note_on_c, 9, 35, 0
4, 83328, Note_on_c, 9, 40, 100
4, 83328, Note_on_c, 9, 42, 84
4, 83360, Note_on_c, 9, 42, 0
4, 83456, Note_on_c, 9, 42, 68
4, 83488, Note_on_c, 9, 42, 0
4, 83520, Note_on_c, 9, 40, 0
4, 83520, Note_on_c, 9, 35, 84
4, 83520, Note_on_c, 9, 42, 84
4, 83552, Note_on_c, 9, 42, 0
4, 83552, Note_on_c, 9, 35, 0
4, 83648, Note_on_c, 9, 42, 68
4, 83680, Note_on_c, 9, 42, 0
4, 83712, Note_on_c, 9, 42, 84
4, 83744, Note_on_c, 9, 42, 0
4, 83840, Note_on_c, 9, 35, 84
4, 83840, Note_on_c, 9, 42, 68
4, 83872, Note_on_c, 9, 42, 0
4, 83872, Note_on_c, 9, 35, 0
4, 83904, Note_on_c, 9, 42, 84
4, 83936, Note_on_c, 9, 42, 0
4, 84032, Note_on_c, 9, 35, 84
4, 84032, Note_on_c, 9, 42, 68
4, 84064, Note_on_c, 9, 42, 0
4, 84064, Note_on_c, 9, 35, 0
4, 84096, Note_on_c, 9, 40, 100
4, 84096, Note_on_c, 9, 42, 84
4, 84128, Note_on_c, 9, 42, 0
4, 84224, Note_on_c, 9, 42, 68
4, 84256, Note_on_c, 9, 42, 0
4, 84288, Note_on_c, 9, 40, 0
4, 84288, Note_on_c, 9, 46, 84
4, 84384, Note_on_c, 9, 46, 0
4, 84480, Note_on_c, 9, 35, 84
4, 84480, Note_on_c, 9, 42, 84
4, 84512, Note_on_c, 9, 42, 0
4, 84512, Note_on_c, 9, 35, 0
4, 84608, Note_on_c, 9, 42, 68
4, 84608, Note_on_c, 9, 51, 100
4, 84640, Note_on_c, 9, 42, 0
4, 84672, Note_on_c, 9, 51, 0
4, 84672, Note_on_c, 9, 42, 84
4, 84704, Note_on_c, 9, 42, 0
4, 84800, Note_on_c, 9, 35, 84
4, 84800, Note_on_c, 9, 42, 68
4, 84832, Note_on_c, 9, 42, 0
4, 84832, Note_on_c, 9, 35, 0
4, 84864, Note_on_c, 9, 40, 100
4, 84864, Note_on_c, 9, 42, 84
4, 84896, Note_on_c, 9, 42, 0
4, 84992, Note_on_c, 9, 42, 68
4, 85024, Note_on_c, 9, 42, 0
4, 85056, Note_on_c, 9, 40, 0
4, 85056, Note_on_c, 9, 35, 84
4, 85056, Note_on_c, 9, 42, 84
4, 85088, Note_on_c, 9, 42, 0
4, 85088, Note_on_c, 9, 35, 0
4, 85184, Note_on_c, 9, 42, 68
4, 85216, Note_on_c, 9, 42, 0
4, 85248, Note_on_c, 9, 42, 84
4, 85280, Note_on_c, 9, 42, 0
4, 85376, Note_on_c, 9, 35, 84
4, 85376, Note_on_c, 9, 42, 68
4, 85376, Note_on_c, 9, 51, 100
4, 85408, Note_on_c, 9, 42, 0
4, 85408, Note_on_c, 9, 35, 0
4, 85440, Note_on_c, 9, 51, 0
4, 85440, Note_on_c, 9, 42, 84
4, 85472, Note_on_c, 9, 42, 0
4, 85568, Note_on_c, 9, 35, 84
4, 85568, Note_on_c, 9, 42, 68
4, 85600, Note_on_c, 9, 42, 0
4, 85600, Note_on_c, 9, 35, 0
4, 85632, Note_on_c, 9, 40, 100
4, 85632, Note_on_c, 9, 42, 84
4, 85664, Note_on_c, 9, 42, 0
4, 85760, Note_on_c, 9, 42, 68
4, 85792, Note_on_c, 9, 42, 0
4, 85824, Note_on_c, 9, 40, 0
4, 85824, Note_on_c, 9, 46, 84
4, 85920, Note_on_c, 9, 46, 0
4, 86016, Note_on_c, 9, 35, 84
4, 86016, Note_on_c, 9, 42, 84
4, 86048, Note_on_c, 9, 42, 0
4, 86048, Note_on_c, 9, 35, 0
4, 86144, Note_on_c, 9, 42, 68
4, 86176, Note_on_c, 9, 42, 0
4, 86208, Note_on_c, 9, 42, 84
4, 86240, Note_on_c, 9, 42, 0
4, 86336, Note_on_c, 9, 35, 84
4, 86336, Note_on_c, 9, 42, 68
4, 86368, Note_on_c, 9, 42, 0
4, 86368, Note_on_c, 9, 35, 0
4, 86400, Note_on_c, 9, 40, 100
4, 86400, Note_on_c, 9, 42, 84
4, 86432, Note_on_c, 9, 42, 0
4, 86528, Note_on_c, 9, 42, 68
4, 86560, Note_on_c, 9, 42, 0
4, 86592, Note_on_c, 9, 40, 0
4, 86592, Note_on_c, 9, 35, 84
4, 86592, Note_on_c, 9, 42, 84
4, 86624, Note_on_c, 9, 42, 0
4, 86624, Note_on_c, 9, 35, 0
4, 86720, Note_on_c, 9, 42, 68
4, 86752, Note_on_c, 9, 42, 0
4, 86784, Note_on_c, 9, 42, 84
4, 86816, Note_on_c, 9, 42, 0
4, 86912, Note_on_c, 9, 81, 84
4, 86912, Note_on_c, 9, 35, 84
4, 86912, Note_on_c, 9, 42, 68
4, 86944, Note_on_c, 9, 42, 0
4, 86944, Note_on_c, 9, 35, 0
4, 86944, Note_on_c, 9, 81, 0
4, 86976, Note_on_c, 9, 80, 84
4, 86976, Note_on_c, 9, 42, 84
4, 87008, Note_on_c, 9, 42, 0
4, 87008, Note_on_c, 9, 80, 0
4, 87104, Note_on_c, 9, 35, 84
4, 87104, Note_on_c, 9, 42, 68
4, 87136, Note_on_c, 9, 42, 0
4, 87136, Note_on_c, 9, 35, 0
4, 87168, Note_on_c, 9, 81, 100
4, 87168, Note_on_c, 9, 40, 100
4, 87168, Note_on_c, 9, 42, 84
4, 87200, Note_on_c, 9, 42, 0
4, 87200, Note_on_c, 9, 81, 0
4, 87296, Note_on_c, 9, 42, 68
4, 87328, Note_on_c, 9, 42, 0
4, 87360, Note_on_c, 9, 40, 0
4, 87360, Note_on_c, 9, 80, 84
4, 87360, Note_on_c, 9, 46, 84
4, 87392, Note_on_c, 9, 80, 0
4, 87456, Note_on_c, 9, 46, 0
4, 87552, Note_on_c, 9, 35, 84
4, 87552, Note_on_c, 9, 42, 84
4, 87584, Note_on_c, 9, 42, 0
4, 87584, Note_on_c, 9, 35, 0
4, 87680, Note_on_c, 9, 42, 68
4, 87712, Note_on_c, 9, 42, 0
4, 87744, Note_on_c, 9, 42, 84
4, 87776, Note_on_c, 9, 42, 0
4, 87872, Note_on_c, 9, 35, 84
4, 87872, Note_on_c, 9, 42, 68
4, 87904, Note_on_c, 9, 42, 0
4, 87904, Note_on_c, 9, 35, 0
4, 87936, Note_on_c, 9, 40, 100
4, 87936, Note_on_c, 9, 42, 84
4, 87968, Note_on_c, 9, 42, 0
4, 88064, Note_on_c, 9, 42, 68
4, 88096, Note_on_c, 9, 42, 0
4, 88128, Note_on_c, 9, 40, 0
4, 88128, Note_on_c, 9, 35, 84
4, 88128, Note_on_c, 9, 42, 84
4, 88160, Note_on_c, 9, 42, 0
4, 88160, Note_on_c, 9, 35, 0
4, 88256, Note_on_c, 9, 42, 68
4, 88288, Note_on_c, 9, 42, 0
4, 88320, Note_on_c, 9, 42, 84
4, 88352, Note_on_c, 9, 42, 0
4, 88448, Note_on_c, 9, 81, 84
4, 88448, Note_on_c, 9, 35, 84
4, 88448, Note_on_c, 9, 42, 68
4, 88480, Note_on_c, 9, 42, 0
4, 88480, Note_on_c, 9, 35, 0
4, 88480, Note_on_c, 9, 81, 0
4, 88512, Note_on_c, 9, 80, 84
4, 88512, Note_on_c, 9, 42, 84
4, 88544, Note_on_c, 9, 42, 0
4, 88544, Note_on_c, 9, 80, 0
4, 88640, Note_on_c, 9, 35, 84
4, 88640, Note_on_c, 9, 42, 68
4, 88672, Note_on_c, 9, 42, 0
4, 88672, Note_on_c, 9, 35, 0
4, 88704, Note_on_c, 9, 81, 100
4, 88704, Note_on_c, 9, 40, 100
4, 88704, Note_on_c, 9, 42, 84
4, 88736, Note_on_c, 9, 42, 0
4, 88736, Note_on_c, 9, 81, 0
4, 88832, Note_on_c, 9, 42, 68
4, 88864, Note_on_c, 9, 42, 0
4, 88896, Note_on_c, 9, 40, 0
4, 88896, Note_on_c, 9, 80, 84
4, 88896, Note_on_c, 9, 46, 84
4, 88928, Note_on_c, 9, 80, 0
4, 88992, Note_on_c, 9, 46, 0
4, 89088, Note_on_c, 9, 35, 84
4, 89088, Note_on_c, 9, 42, 84
4, 89120, Note_on_c, 9, 42, 0
4, 89120, Note_on_c, 9, 35, 0
4, 89216, Note_on_c, 9, 42, 68
4, 89248, Note_on_c, 9, 42, 0
4, 89280, Note_on_c, 9, 42, 84
4, 89312, Note_on_c, 9, 42, 0
4, 89408, Note_on_c, 9, 35, 84
4, 89408, Note_on_c, 9, 42, 68
4, 89440, Note_on_c, 9, 42, 0
4, 89440, Note_on_c, 9, 35, 0
4, 89472, Note_on_c, 9, 40, 100
4, 89472, Note_on_c, 9, 42, 84
4, 89504, Note_on_c, 9, 42, 0
4, 89600, Note_on_c, 9, 42, 68
4, 89632, Note_on_c, 9, 42, 0
4, 89664, Note_on_c, 9, 40, 0
4, 89664, Note_on_c, 9, 35, 84
4, 89664, Note_on_c, 9, 42, 84
4, 89696, Note_on_c, 9, 42, 0
4, 89696, Note_on_c, 9, 35, 0
4, 89792, Note_on_c, 9, 42, 68
4, 89824, Note_on_c, 9, 42, 0
4, 89856, Note_on_c, 9, 42, 84
4, 89888, Note_on_c, 9, 42, 0
4, 89984, Note_on_c, 9, 81, 84
4, 89984, Note_on_c, 9, 35, 84
4, 89984, Note_on_c, 9, 42, 68
4, 90016, Note_on_c, 9, 42, 0
4, 90016, Note_on_c, 9, 35, 0
4, 90016, Note_on_c, 9, 81, 0
4, 90048, Note_on_c, 9, 80, 84
4, 90048, Note_on_c, 9, 42, 84
4, 90080, Note_on_c, 9, 42, 0
4, 90080, Note_on_c, 9, 80, 0
4, 90176, Note_on_c, 9, 35, 84
4, 90176, Note_on_c, 9, 42, 68
4, 90208, Note_on_c, 9, 42, 0
4, 90208, Note_on_c, 9, 35, 0
4, 90240, Note_on_c, 9, 81, 100
4, 90240, Note_on_c, 9, 40, 100
4, 90240, Note_on_c, 9, 42, 84
4, 90272, Note_on_c, 9, 42, 0
4, 90272, Note_on_c, 9, 81, 0
4, 90368, Note_on_c, 9, 42, 68
4, 90400, Note_on_c, 9, 42, 0
4, 90432, Note_on_c, 9, 40, 0
4, 90432, Note_on_c, 9, 80, 84
4, 90432, Note_on_c, 9, 46, 84
4, 90464, Note_on_c, 9, 80, 0
4, 90528, Note_on_c, 9, 46, 0
4, 90624, Note_on_c, 9, 35, 84
4, 90624, Note_on_c, 9, 42, 84
4, 90656, Note_on_c, 9, 42, 0
4, 90656, Note_on_c, 9, 35, 0
4, 90752, Note_on_c, 9, 42, 68
4, 90784, Note_on_c, 9, 42, 0
4, 90816, Note_on_c, 9, 42, 84
4, 90848, Note_on_c, 9, 42, 0
4, 90944, Note_on_c, 9, 35, 84
4, 90944, Note_on_c, 9, 42, 68
4, 90976, Note_on_c, 9, 42, 0
4, 90976, Note_on_c, 9, 35, 0
4, 91008, Note_on_c, 9, 40, 100
4, 91008, Note_on_c, 9, 42, 84
4, 91040, Note_on_c, 9, 42, 0
4, 91136, Note_on_c, 9, 42, 68
4, 91168, Note_on_c, 9, 42, 0
4, 91200, Note_on_c, 9, 40, 0
4, 91200, Note_on_c, 9, 35, 84
4, 91200, Note_on_c, 9, 42, 84
4, 91232, Note_on_c, 9, 42, 0
4, 91232, Note_on_c, 9, 35, 0
4, 91328, Note_on_c, 9, 42, 68
4, 91360, Note_on_c, 9, 42, 0
4, 91392, Note_on_c, 9, 42, 84
4, 91424, Note_on_c, 9, 42, 0
4, 91520, Note_on_c, 9, 81, 84
4, 91520, Note_on_c, 9, 35, 84
4, 91520, Note_on_c, 9, 42, 68
4, 91552, Note_on_c, 9, 42, 0
4, 91552, Note_on_c, 9, 35, 0
4, 91552, Note_on_c, 9, 81, 0
4, 91584, Note_on_c, 9, 80, 84
4, 91584, Note_on_c, 9, 42, 84
4, 91616, Note_on_c, 9, 42, 0
4, 91616, Note_on_c, 9, 80, 0
4, 91712, Note_on_c, 9, 35, 84
4, 91712, Note_on_c, 9, 42, 68
4, 91744, Note_on_c, 9, 42, 0
4, 91744, Note_on_c, 9, 35, 0
4, 91776, Note_on_c, 9, 81, 100
4, 91776, Note_on_c, 9, 40, 100
4, 91776, Note_on_c, 9, 42, 84
4, 91808, Note_on_c, 9, 42, 0
4, 91808, Note_on_c, 9, 81, 0
4, 91904, Note_on_c, 9, 42, 68
4, 91936, Note_on_c, 9, 42, 0
4, 91968, Note_on_c, 9, 40, 0
4, 91968, Note_on_c, 9, 80, 84
4, 91968, Note_on_c, 9, 46, 84
4, 92000, Note_on_c, 9, 80, 0
4, 92064, Note_on_c, 9, 46, 0
4, 92160, Note_on_c, 9, 35, 84
4, 92160, Note_on_c, 9, 42, 84
4, 92192, Note_on_c, 9, 42, 0
4, 92192, Note_on_c, 9, 35, 0
4, 92288, Note_on_c, 9, 42, 68
4, 92320, Note_on_c, 9, 42, 0
4, 92352, Note_on_c, 9, 42, 84
4, 92352, Note_on_c, 9, 75, 84
4, 92384, Note_on_c, 9, 42, 0
4, 92448, Note_on_c, 9, 75, 0
4, 92480, Note_on_c, 9, 35, 84
4, 92480, Note_on_c, 9, 42, 68
4, 92512, Note_on_c, 9, 42, 0
4, 92512, Note_on_c, 9, 35, 0
4, 92544, Note_on_c, 9, 40, 100
4, 92544, Note_on_c, 9, 42, 84
4, 92576, Note_on_c, 9, 42, 0
4, 92672, Note_on_c, 9, 42, 68
4, 92672, Note_on_c, 9, 85, 100
4, 92704, Note_on_c, 9, 42, 0
4, 92736, Note_on_c, 9, 40, 0
4, 92736, Note_on_c, 9, 35, 84
4, 92736, Note_on_c, 9, 46, 84
4, 92768, Note_on_c, 9, 35, 0
4, 92800, Note_on_c, 9, 85, 0
4, 92832, Note_on_c, 9, 46, 0
4, 92928, Note_on_c, 9, 42, 84
4, 92928, Note_on_c, 9, 82, 84
4, 92960, Note_on_c, 9, 42, 0
4, 93056, Note_on_c, 9, 35, 84
4, 93056, Note_on_c, 9, 42, 68
4, 93088, Note_on_c, 9, 42, 0
4, 93088, Note_on_c, 9, 35, 0
4, 93120, Note_on_c, 9, 82, 0
4, 93120, Note_on_c, 9, 42, 84
4, 93152, Note_on_c, 9, 42, 0
4, 93248, Note_on_c, 9, 35, 84
4, 93248, Note_on_c, 9, 42, 68
4, 93280, Note_on_c, 9, 42, 0
4, 93280, Note_on_c, 9, 35, 0
4, 93312, Note_on_c, 9, 40, 100
4, 93312, Note_on_c, 9, 42, 84
4, 93344, Note_on_c, 9, 42, 0
4, 93440, Note_on_c, 9, 42, 68
4, 93472, Note_on_c, 9, 42, 0
4, 93504, Note_on_c, 9, 40, 0
4, 93504, Note_on_c, 9, 46, 84
4, 93600, Note_on_c, 9, 46, 0
4, 93696, Note_on_c, 9, 35, 84
4, 93696, Note_on_c, 9, 42, 84
4, 93728, Note_on_c, 9, 42, 0
4, 93728, Note_on_c, 9, 35, 0
4, 93824, Note_on_c, 9, 42, 68
4, 93856, Note_on_c, 9, 42, 0
4, 93888, Note_on_c, 9, 42, 84
4, 93888, Note_on_c, 9, 75, 84
4, 93920, Note_on_c, 9, 42, 0
4, 93984, Note_on_c, 9, 75, 0
4, 94016, Note_on_c, 9, 35, 84
4, 94016, Note_on_c, 9, 42, 68
4, 94048, Note_on_c, 9, 42, 0
4, 94048, Note_on_c, 9, 35, 0
4, 94080, Note_on_c, 9, 40, 100
4, 94080, Note_on_c, 9, 42, 84
4, 94112, Note_on_c, 9, 42, 0
4, 94208, Note_on_c, 9, 42, 68
4, 94208, Note_on_c, 9, 85, 100
4, 94240, Note_on_c, 9, 42, 0
4, 94272, Note_on_c, 9, 40, 0
4, 94272, Note_on_c, 9, 35, 84
4, 94272, Note_on_c, 9, 46, 84
4, 94304, Note_on_c, 9, 35, 0
4, 94336, Note_on_c, 9, 85, 0
4, 94368, Note_on_c, 9, 46, 0
4, 94464, Note_on_c, 9, 42, 84
4, 94464, Note_on_c, 9, 82, 84
4, 94496, Note_on_c, 9, 42, 0
4, 94592, Note_on_c, 9, 35, 84
4, 94592, Note_on_c, 9, 42, 68
4, 94624, Note_on_c, 9, 42, 0
4, 94624, Note_on_c, 9, 35, 0
4, 94656, Note_on_c, 9, 82, 0
4, 94656, Note_on_c, 9, 42, 84
4, 94688, Note_on_c, 9, 42, 0
4, 94784, Note_on_c, 9, 35, 84
4, 94784, Note_on_c, 9, 42, 68
4, 94816, Note_on_c, 9, 42, 0
4, 94816, Note_on_c, 9, 35, 0
4, 94848, Note_on_c, 9, 40, 100
4, 94848, Note_on_c, 9, 42, 84
4, 94880, Note_on_c, 9, 42, 0
4, 94976, Note_on_c, 9, 42, 68
4, 95008, Note_on_c, 9, 42, 0
4, 95040, Note_on_c, 9, 40, 0
4, 95040, Note_on_c, 9, 46, 84
4, 95136, Note_on_c, 9, 46, 0
4, 95232, Note_on_c, 9, 35, 84
4, 95232, Note_on_c, 9, 42, 84
4, 95264, Note_on_c, 9, 42, 0
4, 95264, Note_on_c, 9, 35, 0
4, 95360, Note_on_c, 9, 42, 68
4, 95392, Note_on_c, 9, 42, 0
4, 95424, Note_on_c, 9, 42, 84
4, 95424, Note_on_c, 9, 75, 84
4, 95456, Note_on_c, 9, 42, 0
4, 95520, Note_on_c, 9, 75, 0
4, 95552, Note_on_c, 9, 35, 84
4, 95552, Note_on_c, 9, 42, 68
4, 95584, Note_on_c, 9, 42, 0
4, 95584, Note_on_c, 9, 35, 0
4, 95616, Note_on_c, 9, 40, 100
4, 95616, Note_on_c, 9, 42, 84
4, 95648, Note_on_c, 9, 42, 0
4, 95744, Note_on_c, 9, 42, 68
4, 95744, Note_on_c, 9, 85, 100
4, 95776, Note_on_c, 9, 42, 0
4, 95808, Note_on_c, 9, 40, 0
4, 95808, Note_on_c, 9, 35, 84
4, 95808, Note_on_c, 9, 46, 84
4, 95840, Note_on_c, 9, 35, 0
4, 95872, Note_on_c, 9, 85, 0
4, 95904, Note_on_c, 9, 46, 0
4, 96000, Note_on_c, 9, 42, 84
4, 96000, Note_on_c, 9, 82, 84
4, 96032, Note_on_c, 9, 42, 0
4, 96128, Note_on_c, 9, 35, 84
4, 96128, Note_on_c, 9, 42, 68
4, 96160, Note_on_c, 9, 42, 0
4, 96160, Note_on_c, 9, 35, 0
4, 96192, Note_on_c, 9, 82, 0
4, 96192, Note_on_c, 9, 42, 84
4, 96224, Note_on_c, 9, 42, 0
4, 96320, Note_on_c, 9, 35, 84
4, 96320, Note_on_c, 9, 42, 68
4, 96352, Note_on_c, 9, 42, 0
4, 96352, Note_on_c, 9, 35, 0
4, 96384, Note_on_c, 9, 40, 100
4, 96384, Note_on_c, 9, 42, 84
4, 96416, Note_on_c, 9, 42, 0
4, 96512, Note_on_c, 9, 42, 68
4, 96544, Note_on_c, 9, 42, 0
4, 96576, Note_on_c, 9, 40, 0
4, 96576, Note_on_c, 9, 46, 84
4, 96672, Note_on_c, 9, 46, 0
4, 96768, Note_on_c, 9, 35, 84
4, 96768, Note_on_c, 9, 42, 84
4, 96800, Note_on_c, 9, 42, 0
4, 96800, Note_on_c, 9, 35, 0
4, 96896, Note_on_c, 9, 42, 68
4, 96928, Note_on_c, 9, 42, 0
4, 96960, Note_on_c, 9, 42, 84
4, 96960, Note_on_c, 9, 75, 84
4, 96992, Note_on_c, 9, 42, 0
4, 97056, Note_on_c, 9, 75, 0
4, 97088, Note_on_c, 9, 35, 84
4, 97088, Note_on_c, 9, 42, 68
4, 97120, Note_on_c, 9, 42, 0
4, 97120, Note_on_c, 9, 35, 0
4, 97152, Note_on_c, 9, 40, 100
4, 97152, Note_on_c, 9, 42, 84
4, 97184, Note_on_c, 9, 42, 0
4, 97280, Note_on_c, 9, 42, 68
4, 97280, Note_on_c, 9, 85, 100
4, 97312, Note_on_c, 9, 42, 0
4, 97344, Note_on_c, 9, 40, 0
4, 97344, Note_on_c, 9, 35, 84
4, 97344, Note_on_c, 9, 46, 84
4, 97376, Note_on_c, 9, 35, 0
4, 97408, Note_on_c, 9, 85, 0
4, 97440, Note_on_c, 9, 46, 0
4, 97536, Note_on_c, 9, 42, 84
4, 97536, Note_on_c, 9, 82, 84
4, 97568, Note_on_c, 9, 42, 0
4, 97664, Note_on_c, 9, 35, 84
4, 97664, Note_on_c, 9, 42, 68
4, 97696, Note_on_c, 9, 42, 0
4, 97696, Note_on_c, 9, 35, 0
4, 97728, Note_on_c, 9, 82, 0
4, 97728, Note_on_c, 9, 42, 84
4, 97760, Note_on_c, 9, 42, 0
4, 97856, Note_on_c, 9, 35, 84
4, 97856, Note_on_c, 9, 42, 68
4, 97888, Note_on_c, 9, 42, 0
4, 97888, Note_on_c, 9, 35, 0
4, 97920, Note_on_c, 9, 40, 100
4, 97920, Note_on_c, 9, 42, 84
4, 97952, Note_on_c, 9, 42, 0
4, 98048, Note_on_c, 9, 42, 68
4, 98080, Note_on_c, 9, 42, 0
4, 98112, Note_on_c, 9, 40, 0
4, 98112, Note_on_c, 9, 46, 84
4, 98208, Note_on_c, 9, 46, 0
4, 98304, Note_on_c, 9, 35, 84
4, 98304, Note_on_c, 9, 42, 84
4, 98336, Note_on_c, 9, 42, 0
4, 98336, Note_on_c, 9, 35, 0
4, 98432, Note_on_c, 9, 42, 68
4, 98464, Note_on_c, 9, 42, 0
4, 98496, Note_on_c, 9, 42, 84
4, 98496, Note_on_c, 9, 75, 84
4, 98528, Note_on_c, 9, 42, 0
4, 98592, Note_on_c, 9, 75, 0
4, 98624, Note_on_c, 9, 35, 84
4, 98624, Note_on_c, 9, 42, 68
4, 98656, Note_on_c, 9, 42, 0
4, 98656, Note_on_c, 9, 35, 0
4, 98688, Note_on_c, 9, 40, 100
4, 98688, Note_on_c, 9, 42, 84
4, 98720, Note_on_c, 9, 42, 0
4, 98816, Note_on_c, 9, 42, 68
4, 98816, Note_on_c, 9, 85, 100
4, 98848, Note_on_c, 9, 42, 0
4, 98880, Note_on_c, 9, 40, 0
4, 98880, Note_on_c, 9, 35, 84
4, 98880, Note_on_c, 9, 46, 84
4, 98912, Note_on_c, 9, 35, 0
4, 98944, Note_on_c, 9, 85, 0
4, 98976, Note_on_c, 9, 46, 0
4, 99072, Note_on_c, 9, 42, 84
4, 99072, Note_on_c, 9, 82, 84
4, 99104, Note_on_c, 9, 42, 0
4, 99200, Note_on_c, 9, 35, 84
4, 99200, Note_on_c, 9, 42, 68
4, 99232, Note_on_c, 9, 42, 0
4, 99232, Note_on_c, 9, 35, 0
4, 99264, Note_on_c, 9, 82, 0
4, 99264, Note_on_c, 9, 42, 84
4, 99296, Note_on_c, 9, 42, 0
4, 99392, Note_on_c, 9, 35, 84
4, 99392, Note_on_c, 9, 42, 68
4, 99424, Note_on_c, 9, 42, 0
4, 99424, Note_on_c, 9, 35, 0
4, 99456, Note_on_c, 9, 40, 100
4, 99456, Note_on_c, 9, 42, 84
4, 99488, Note_on_c, 9, 42, 0
4, 99584, Note_on_c, 9, 42, 68
4, 99616, Note_on_c, 9, 42, 0
4, 99648, Note_on_c, 9, 40, 0
4, 99648, Note_on_c, 9, 46, 84
4, 99744, Note_on_c, 9, 46, 0
4, 99840, Note_on_c, 9, 35, 84
4, 99840, Note_on_c, 9, 42, 84
4, 99872, Note_on_c, 9, 42, 0
4, 99872, Note_on_c, 9, 35, 0
4, 99968, Note_on_c, 9, 42, 68
4, 100000, Note_on_c, 9, 42, 0
4, 100032, Note_on_c, 9, 42, 84
4, 100032, Note_on_c, 9, 75, 84
4, 100064, Note_on_c, 9, 42, 0
4, 100128, Note_on_c, 9, 75, 0
4, 100160, Note_on_c, 9, 35, 84
4, 100160, Note_on_c, 9, 42, 68
4, 100192, Note_on_c, 9, 42, 0
4, 100192, Note_on_c, 9, 35, 0
4, 100224, Note_on_c, 9, 40, 100
4, 100224, Note_on_c, 9, 42, 84
4, 100256, Note_on_c, 9, 42, 0
4, 100352, Note_on_c, 9, 42, 68
4, 100352, Note_on_c, 9, 85, 100
4, 100384, Note_on_c, 9, 42, 0
4, 100416, Note_on_c, 9, 40, 0
4, 100416, Note_on_c, 9, 35, 84
4, 100416, Note_on_c, 9, 46, 84
4, 100448, Note_on_c, 9, 35, 0
4, 100480, Note_on_c, 9, 85, 0
4, 100512, Note_on_c, 9, 46, 0
4, 100608, Note_on_c, 9, 42, 84
4, 100608, Note_on_c, 9, 82, 84
4, 100640, Note_on_c, 9, 42, 0
4, 100736, Note_on_c, 9, 35, 84
4, 100736, Note_on_c, 9, 42, 68
4, 100768, Note_on_c, 9, 42, 0
4, 100768, Note_on_c, 9, 35, 0
4, 100800, Note_on_c, 9, 82, 0
4, 100800, Note_on_c, 9, 42, 84
4, 100832, Note_on_c, 9, 42, 0
4, 100928, Note_on_c, 9, 35, 84
4, 100928, Note_on_c, 9, 42, 68
4, 100960, Note_on_c, 9, 42, 0
4, 100960, Note_on_c, 9, 35, 0
4, 100992, Note_on_c, 9, 40, 100
4, 100992, Note_on_c, 9, 42, 84
4, 101024, Note_on_c, 9, 42, 0
4, 101120, Note_on_c, 9, 42, 68
4, 101152, Note_on_c, 9, 42, 0
4, 101184, Note_on_c, 9, 40, 0
4, 101184, Note_on_c, 9, 46, 84
4, 101280, Note_on_c, 9, 46, 0
4, 101376, Note_on_c, 9, 35, 84
4, 101376, Note_on_c, 9, 42, 84
4, 101408, Note_on_c, 9, 42, 0
4, 101408, Note_on_c, 9, 35, 0
4, 101504, Note_on_c, 9, 42, 68
4, 101536, Note_on_c, 9, 42, 0
4, 101568, Note_on_c, 9, 42, 84
4, 101568, Note_on_c, 9, 75, 84
4, 101600, Note_on_c, 9, 42, 0
4, 101664, Note_on_c, 9, 75, 0
4, 101696, Note_on_c, 9, 35, 84
4, 101696, Note_on_c, 9, 42, 68
4, 101728, Note_on_c, 9, 42, 0
4, 101728, Note_on_c, 9, 35, 0
4, 101760, Note_on_c, 9, 40, 100
4, 101760, Note_on_c, 9, 42, 84
4, 101792, Note_on_c, 9, 42, 0
4, 101888, Note_on_c, 9, 42, 68
4, 101888, Note_on_c, 9, 85, 100
4, 101920, Note_on_c, 9, 42, 0
4, 101952, Note_on_c, 9, 40, 0
4, 101952, Note_on_c, 9, 35, 84
4, 101952, Note_on_c, 9, 46, 84
4, 101984, Note_on_c, 9, 35, 0
4, 102016, Note_on_c, 9, 85, 0
4, 102048, Note_on_c, 9, 46, 0
4, 102144, Note_on_c, 9, 42, 84
4, 102144, Note_on_c, 9, 82, 84
4, 102176, Note_on_c, 9, 42, 0
4, 102272, Note_on_c, 9, 35, 84
4, 102272, Note_on_c, 9, 42, 68
4, 102304, Note_on_c, 9, 42, 0
4, 102304, Note_on_c, 9, 35, 0
4, 102336, Note_on_c, 9, 82, 0
4, 102336, Note_on_c, 9, 42, 84
4, 102368, Note_on_c, 9, 42, 0
4, 102464, Note_on_c, 9, 35, 84
4, 102464, Note_on_c, 9, 42, 68
4, 102496, Note_on_c, 9, 42, 0
4, 102496, Note_on_c, 9, 35, 0
4, 102528, Note_on_c, 9, 40, 100
4, 102528, Note_on_c, 9, 42, 84
4, 102560, Note_on_c, 9, 42, 0
4, 102656, Note_on_c, 9, 42, 68
4, 102688, Note_on_c, 9, 42, 0
4, 102720, Note_on_c, 9, 40, 0
4, 102720, Note_on_c, 9, 46, 84
4, 102816, Note_on_c, 9, 46, 0
4, 102912, Note_on_c, 9, 35, 84
4, 102912, Note_on_c, 9, 42, 84
4, 102944, Note_on_c, 9, 42, 0
4, 102944, Note_on_c, 9, 35, 0
4, 103040, Note_on_c, 9, 42, 68
4, 103072, Note_on_c, 9, 42, 0
4, 103104, Note_on_c, 9, 42, 84
4, 103104, Note_on_c, 9, 75, 84
4, 103136, Note_on_c, 9, 42, 0
4, 103200, Note_on_c, 9, 75, 0
4, 103232, Note_on_c, 9, 35, 84
4, 103232, Note_on_c, 9, 42, 68
4, 103264, Note_on_c, 9, 42, 0
4, 103264, Note_on_c, 9, 35, 0
4, 103296, Note_on_c, 9, 40, 100
4, 103296, Note_on_c, 9, 42, 84
4, 103328, Note_on_c, 9, 42, 0
4, 103424, Note_on_c, 9, 42, 68
4, 103424, Note_on_c, 9, 85, 100
4, 103456, Note_on_c, 9, 42, 0
4, 103488, Note_on_c, 9, 40, 0
4, 103488, Note_on_c, 9, 35, 84
4, 103488, Note_on_c, 9, 46, 84
4, 103520, Note_on_c, 9, 35, 0
4, 103552, Note_on_c, 9, 85, 0
4, 103584, Note_on_c, 9, 46, 0
4, 103680, Note_on_c, 9, 42, 84
4, 103680, Note_on_c, 9, 82, 84
4, 103712, Note_on_c, 9, 42, 0
4, 103808, Note_on_c, 9, 35, 84
4, 103808, Note_on_c, 9, 42, 68
4, 103840, Note_on_c, 9, 42, 0
4, 103840, Note_on_c, 9, 35, 0
4, 103872, Note_on_c, 9, 82, 0
4, 103872, Note_on_c, 9, 42, 84
4, 103904, Note_on_c, 9, 42, 0
4, 104000, Note_on_c, 9, 35, 84
4, 104000, Note_on_c, 9, 42, 68
4, 104032, Note_on_c, 9, 42, 0
4, 104032, Note_on_c, 9, 35, 0
4, 104064, Note_on_c, 9, 40, 100
4, 104064, Note_on_c, 9, 42, 84
4, 104096, Note_on_c, 9, 42, 0
4, 104192, Note_on_c, 9, 42, 68
4, 104224, Note_on_c, 9, 42, 0
4, 104256, Note_on_c, 9, 40, 0
4, 104256, Note_on_c, 9, 46, 84
4, 104352, Note_on_c, 9, 46, 0
4, 104448, Note_on_c, 9, 35, 84
4, 104448, Note_on_c, 9, 42, 84
4, 104480, Note_on_c, 9, 42, 0
4, 104480, Note_on_c, 9, 35, 0
4, 104576, Note_on_c, 9, 42, 68
4, 104608, Note_on_c, 9, 42, 0
4, 104640, Note_on_c, 9, 42, 84
4, 104640, Note_on_c, 9, 75, 84
4, 104672, Note_on_c, 9, 42, 0
4, 104736, Note_on_c, 9, 75, 0
4, 104768, Note_on_c, 9, 35, 84
4, 104768, Note_on_c, 9, 42, 68
4, 104800, Note_on_c, 9, 42, 0
4, 104800, Note_on_c, 9, 35, 0
4, 104832, Note_on_c, 9, 40, 100
4, 104832, Note_on_c, 9, 42, 84
4, 104864, Note_on_c, 9, 42, 0
4, 104960, Note_on_c, 9, 42, 68
4, 104960, Note_on_c, 9, 85, 100
4, 104992, Note_on_c, 9, 42, 0
4, 105024, Note_on_c, 9, 40, 0
4, 105024, Note_on_c, 9, 35, 84
4, 105024, Note_on_c, 9, 46, 84
4, 105056, Note_on_c, 9, 35, 0
4, 105088, Note_on_c, 9, 85, 0
4, 105120, Note_on_c, 9, 46, 0
4, 105216, Note_on_c, 9, 42, 84
4, 105216, Note_on_c, 9, 82, 84
4, 105248, Note_on_c, 9, 42, 0
4, 105344, Note_on_c, 9, 35, 84
4, 105344, Note_on_c, 9, 42, 68
4, 105376, Note_on_c, 9, 42, 0
4, 105376, Note_on_c, 9, 35, 0
4, 105408, Note_on_c, 9, 82, 0
4, 105408, Note_on_c, 9, 42, 84
4, 105440, Note_on_c, 9, 42, 0
4, 105536, Note_on_c, 9, 35, 84
4, 105536, Note_on_c, 9, 42, 68
4, 105568, Note_on_c, 9, 42, 0
4, 105568, Note_on_c, 9, 35, 0
4, 105600, Note_on_c, 9, 40, 100
4, 105600, Note_on_c, 9, 42, 84
4, 105632, Note_on_c, 9, 42, 0
4, 105728, Note_on_c, 9, 42, 68
4, 105760, Note_on_c, 9, 42, 0
4, 105792, Note_on_c, 9, 40, 0
4, 105792, Note_on_c, 9, 46, 84
4, 105888, Note_on_c, 9, 46, 0
4, 105984, Note_on_c, 9, 35, 84
4, 105984, Note_on_c, 9, 42, 84
4, 106016, Note_on_c, 9, 42, 0
4, 106016, Note_on_c, 9, 35, 0
4, 106112, Note_on_c, 9, 42, 68
4, 106144, Note_on_c, 9, 42, 0
4, 106176, Note_on_c, 9, 42, 84
4, 106208, Note_on_c, 9, 42, 0
4, 106304, Note_on_c, 9, 35, 84
4, 106304, Note_on_c, 9, 42, 68
4, 106336, Note_on_c, 9, 42, 0
4, 106336, Note_on_c, 9, 35, 0
4, 106368, Note_on_c, 9, 40, 100
4, 106368, Note_on_c, 9, 42, 84
4, 106400, Note_on_c, 9, 42, 0
4, 106496, Note_on_c, 9, 42, 68
4, 106528, Note_on_c, 9, 42, 0
4, 106560, Note_on_c, 9, 40, 0
4, 106560, Note_on_c, 9, 35, 84
4, 106560, Note_on_c, 9, 42, 84
4, 106592, Note_on_c, 9, 42, 0
4, 106592, Note_on_c, 9, 35, 0
4, 106688, Note_on_c, 9, 42, 68
4, 106720, Note_on_c, 9, 42, 0
4, 106752, Note_on_c, 9, 42, 84
4, 106784, Note_on_c, 9, 42, 0
4, 106880, Note_on_c, 9, 81, 84
4, 106880, Note_on_c, 9, 35, 84
4, 106880, Note_on_c, 9, 42, 68
4, 106912, Note_on_c, 9, 42, 0
4, 106912, Note_on_c, 9, 35, 0
4, 106912, Note_on_c, 9, 81, 0
4, 106944, Note_on_c, 9, 80, 84
4, 106944, Note_on_c, 9, 42, 84
4, 106976, Note_on_c, 9, 42, 0
4, 106976, Note_on_c, 9, 80, 0
4, 107072, Note_on_c, 9, 35, 84
4, 107072, Note_on_c, 9, 42, 68
4, 107104, Note_on_c, 9, 42, 0
4, 107104, Note_on_c, 9, 35, 0
4, 107136, Note_on_c, 9, 81, 100
4, 107136, Note_on_c, 9, 40, 100
4, 107136, Note_on_c, 9, 42, 84
4, 107168, Note_on_c, 9, 42, 0
4, 107168, Note_on_c, 9, 81, 0
4, 107264, Note_on_c, 9, 42, 68
4, 107296, Note_on_c, 9, 42, 0
4, 107328, Note_on_c, 9, 40, 0
4, 107328, Note_on_c, 9, 80, 84
4, 107328, Note_on_c, 9, 46, 84
4, 107360, Note_on_c, 9, 80, 0
4, 107424, Note_on_c, 9, 46, 0
4, 107520, Note_on_c, 9, 35, 84
4, 107520, Note_on_c, 9, 42, 84
4, 107552, Note_on_c, 9, 42, 0
4, 107552, Note_on_c, 9, 35, 0
4, 107648, Note_on_c, 9, 42, 68
4, 107680, Note_on_c, 9, 42, 0
4, 107712, Note_on_c, 9, 42, 84
4, 107712, Note_on_c, 9, 75, 84
4, 107744, Note_on_c, 9, 42, 0
4, 107808, Note_on_c, 9, 75, 0
4, 107840, Note_on_c, 9, 35, 84
4, 107840, Note_on_c, 9, 42, 68
4, 107872, Note_on_c, 9, 42, 0
4, 107872, Note_on_c, 9, 35, 0
4, 107904, Note_on_c, 9, 40, 100
4, 107904, Note_on_c, 9, 42, 84
4, 107936, Note_on_c, 9, 42, 0
4, 108032, Note_on_c, 9, 42, 68
4, 108032, Note_on_c, 9, 85, 100
4, 108064, Note_on_c, 9, 42, 0
4, 108096, Note_on_c, 9, 40, 0
4, 108096, Note_on_c, 9, 35, 84
4, 108096, Note_on_c, 9, 46, 84
4, 108128, Note_on_c, 9, 35, 0
4, 108160, Note_on_c, 9, 85, 0
4, 108192, Note_on_c, 9, 46, 0
4, 108288, Note_on_c, 9, 42, 84
4, 108288, Note_on_c, 9, 82, 84
4, 108320, Note_on_c, 9, 42, 0
4, 108416, Note_on_c, 9, 35, 84
4, 108416, Note_on_c, 9, 42, 68
4, 108448, Note_on_c, 9, 42, 0
4, 108448, Note_on_c, 9, 35, 0
4, 108480, Note_on_c, 9, 82, 0
4, 108480, Note_on_c, 9, 42, 84
4, 108512, Note_on_c, 9, 42, 0
4, 108608, Note_on_c, 9, 35, 84
4, 108608, Note_on_c, 9, 42, 68
4, 108640, Note_on_c, 9, 42, 0
4, 108640, Note_on_c, 9, 35, 0
4, 108672, Note_on_c, 9, 40, 100
4, 108672, Note_on_c, 9, 42, 84
4, 108704, Note_on_c, 9, 42, 0
4, 108800, Note_on_c, 9, 42, 68
4, 108832, Note_on_c, 9, 42, 0
4, 108864, Note_on_c, 9, 40, 0
4, 108864, Note_on_c, 9, 46, 84
4, 108960, Note_on_c, 9, 46, 0
4, 109056, Note_on_c, 9, 35, 84
4, 109056, Note_on_c, 9, 42, 84
4, 109088, Note_on_c, 9, 42, 0
4, 109088, Note_on_c, 9, 35, 0
4, 109184, Note_on_c, 9, 42, 68
4, 109216, Note_on_c, 9, 42, 0
4, 109248, Note_on_c, 9, 42, 84
4, 109280, Note_on_c, 9, 42, 0
4, 109376, Note_on_c, 9, 35, 84
4, 109376, Note_on_c, 9, 42, 68
4, 109408, Note_on_c, 9, 42, 0
4, 109408, Note_on_c, 9, 35, 0
4, 109440, Note_on_c, 9, 40, 100
4, 109440, Note_on_c, 9, 42, 84
4, 109472, Note_on_c, 9, 42, 0
4, 109568, Note_on_c, 9, 42, 68
4, 109600, Note_on_c, 9, 42, 0
4, 109632, Note_on_c, 9, 40, 0
4, 109632, Note_on_c, 9, 35, 84
4, 109632, Note_on_c, 9, 42, 84
4, 109664, Note_on_c, 9, 42, 0
4, 109664, Note_on_c, 9, 35, 0
4, 109760, Note_on_c, 9, 42, 68
4, 109792, Note_on_c, 9, 42, 0
4, 109824, Note_on_c, 9, 42, 84
4, 109856, Note_on_c, 9, 42, 0
4, 109952, Note_on_c, 9, 81, 84
4, 109952, Note_on_c, 9, 35, 84
4, 109952, Note_on_c, 9, 42, 68
4, 109984, Note_on_c, 9, 42, 0
4, 109984, Note_on_c, 9, 35, 0
4, 109984, Note_on_c, 9, 81, 0
4, 110016, Note_on_c, 9, 80, 84
4, 110016, Note_on_c, 9, 42, 84
4, 110048, Note_on_c, 9, 42, 0
4, 110048, Note_on_c, 9, 80, 0
4, 110144, Note_on_c, 9, 35, 84
4, 110144, Note_on_c, 9, 42, 68
4, 110176, Note_on_c, 9, 42, 0
4, 110176, Note_on_c, 9, 35, 0
4, 110208, Note_on_c, 9, 81, 100
4, 110208, Note_on_c, 9, 40, 100
4, 110208, Note_on_c, 9, 42, 84
4, 110240, Note_on_c, 9, 42, 0
4, 110240, Note_on_c, 9, 81, 0
4, 110336, Note_on_c, 9, 42, 68
4, 110368, Note_on_c, 9, 42, 0
4, 110400, Note_on_c, 9, 40, 0
4, 110400, Note_on_c, 9, 80, 84
4, 110400, Note_on_c, 9, 46, 84
4, 110432, Note_on_c, 9, 80, 0
4, 110496, Note_on_c, 9, 46, 0
4, 110592, Note_on_c, 9, 35, 84
4, 110592, Note_on_c, 9, 42, 84
4, 110624, Note_on_c, 9, 42, 0
4, 110624, Note_on_c, 9, 35, 0
4, 110720, Note_on_c, 9, 42, 68
4, 110752, Note_on_c, 9, 42, 0
4, 110784, Note_on_c, 9, 42, 84
4, 110784, Note_on_c, 9, 75, 84
4, 110816, Note_on_c, 9, 42, 0
4, 110880, Note_on_c, 9, 75, 0
4, 110912, Note_on_c, 9, 35, 84
4, 110912, Note_on_c, 9, 42, 68
4, 110944, Note_on_c, 9, 42, 0
4, 110944, Note_on_c, 9, 35, 0
4, 110976, Note_on_c, 9, 40, 100
4, 110976, Note_on_c, 9, 42, 84
4, 111008, Note_on_c, 9, 42, 0
4, 111104, Note_on_c, 9, 42, 68
4, 111104, Note_on_c, 9, 85, 100
4, 111136, Note_on_c, 9, 42, 0
4, 111168, Note_on_c, 9, 40, 0
4, 111168, Note_on_c, 9, 35, 84
4, 111168, Note_on_c, 9, 46, 84
4, 111200, Note_on_c, 9, 35, 0
4, 111232, Note_on_c, 9, 85, 0
4, 111264, Note_on_c, 9, 46, 0
4, 111360, Note_on_c, 9, 42, 84
4, 111360, Note_on_c, 9, 82, 84
4, 111392, Note_on_c, 9, 42, 0
4, 111488, Note_on_c, 9, 35, 84
4, 111488, Note_on_c, 9, 42, 68
4, 111520, Note_on_c, 9, 42, 0
4, 111520, Note_on_c, 9, 35, 0
4, 111552, Note_on_c, 9, 82, 0
4, 111552, Note_on_c, 9, 42, 84
4, 111584, Note_on_c, 9, 42, 0
4, 111680, Note_on_c, 9, 35, 84
4, 111680, Note_on_c, 9, 42, 68
4, 111712, Note_on_c, 9, 42, 0
4, 111712, Note_on_c, 9, 35, 0
4, 111744, Note_on_c, 9, 40, 100
4, 111744, Note_on_c, 9, 42, 84
4, 111776, Note_on_c, 9, 42, 0
4, 111872, Note_on_c, 9, 42, 68
4, 111904, Note_on_c, 9, 42, 0
4, 111936, Note_on_c, 9, 40, 0
4, 111936, Note_on_c, 9, 46, 84
4, 112032, Note_on_c, 9, 46, 0
4, 112128, Note_on_c, 9, 35, 84
4, 112128, Note_on_c, 9, 42, 84
4, 112160, Note_on_c, 9, 42, 0
4, 112160, Note_on_c, 9, 35, 0
4, 112256, Note_on_c, 9, 42, 68
4, 112288, Note_on_c, 9, 42, 0
4, 112320, Note_on_c, 9, 42, 84
4, 112320, Note_on_c, 9, 75, 84
4, 112352, Note_on_c, 9, 42, 0
4, 112416, Note_on_c, 9, 75, 0
4, 112448, Note_on_c, 9, 35, 84
4, 112448, Note_on_c, 9, 42, 68
4, 112480, Note_on_c, 9, 42, 0
4, 112480, Note_on_c, 9, 35, 0
4, 112512, Note_on_c, 9, 40, 100
4, 112512, Note_on_c, 9, 42, 84
4, 112544, Note_on_c, 9, 42, 0
4, 112640, Note_on_c, 9, 42, 68
4, 112640, Note_on_c, 9, 85, 100
4, 112672, Note_on_c, 9, 42, 0
4, 112704, Note_on_c, 9, 40, 0
4, 112704, Note_on_c, 9, 35, 84
4, 112704, Note_on_c, 9, 46, 84
4, 112736, Note_on_c, 9, 35, 0
4, 112768, Note_on_c, 9, 85, 0
4, 112800, Note_on_c, 9, 46, 0
4, 112896, Note_on_c, 9, 42, 84
4, 112896, Note_on_c, 9, 82, 84
4, 112928, Note_on_c, 9, 42, 0
4, 113024, Note_on_c, 9, 35, 84
4, 113024, Note_on_c, 9, 42, 68
4, 113056, Note_on_c, 9, 42, 0
4, 113056, Note_on_c, 9, 35, 0
4, 113088, Note_on_c, 9, 82, 0
4, 113088, Note_on_c, 9, 42, 84
4, 113120, Note_on_c, 9, 42, 0
4, 113216, Note_on_c, 9, 35, 84
4, 113216, Note_on_c, 9, 42, 68
4, 113248, Note_on_c, 9, 42, 0
4, 113248, Note_on_c, 9, 35, 0
4, 113280, Note_on_c, 9, 40, 100
4, 113280, Note_on_c, 9, 42, 84
4, 113312, Note_on_c, 9, 42, 0
4, 113408, Note_on_c, 9, 42, 68
4, 113440, Note_on_c, 9, 42, 0
4, 113472, Note_on_c, 9, 40, 0
4, 113472, Note_on_c, 9, 46, 84
4, 113568, Note_on_c, 9, 46, 0
4, 113664, Note_on_c, 9, 35, 84
4, 113664, Note_on_c, 9, 42, 84
4, 113664, Note_on_c, 9, 49, 84
4, 113696, Note_on_c, 9, 42, 0
4, 113696, Note_on_c, 9, 35, 0
4, 113792, Note_on_c, 9, 42, 68
4, 113824, Note_on_c, 9, 42, 0
4, 113856, Note_on_c, 9, 49, 0
4, 113856, Note_on_c, 9, 42, 84
4, 113856, Note_on_c, 9, 75, 84
4, 113888, Note_on_c, 9, 42, 0
4, 113952, Note_on_c, 9, 75, 0
4, 113984, Note_on_c, 9, 35, 84
4, 113984, Note_on_c, 9, 42, 68
4, 114016, Note_on_c, 9, 42, 0
4, 114016, Note_on_c, 9, 35, 0
4, 114048, Note_on_c, 9, 40, 100
4, 114048, Note_on_c, 9, 42, 84
4, 114080, Note_on_c, 9, 42, 0
4, 114176, Note_on_c, 9, 42, 68
4, 114176, Note_on_c, 9, 85, 100
4, 114208, Note_on_c, 9, 42, 0
4, 114240, Note_on_c, 9, 40, 0
4, 114240, Note_on_c, 9, 35, 84
4, 114240, Note_on_c, 9, 46, 84
4, 114272, Note_on_c, 9, 35, 0
4, 114304, Note_on_c, 9, 85, 0
4, 114336, Note_on_c, 9, 46, 0
4, 114432, Note_on_c, 9, 42, 84
4, 114432, Note_on_c, 9, 82, 84
4, 114464, Note_on_c, 9, 42, 0
4, 114560, Note_on_c, 9, 35, 84
4, 114560, Note_on_c, 9, 42, 68
4, 114592, Note_on_c, 9, 42, 0
4, 114592, Note_on_c, 9, 35, 0
4, 114624, Note_on_c, 9, 82, 0
4, 114624, Note_on_c, 9, 42, 84
4, 114656, Note_on_c, 9, 42, 0
4, 114752, Note_on_c, 9, 35, 84
4, 114752, Note_on_c, 9, 42, 68
4, 114784, Note_on_c, 9, 42, 0
4, 114784, Note_on_c, 9, 35, 0
4, 114816, Note_on_c, 9, 40, 100
4, 114816, Note_on_c, 9, 42, 84
4, 114848, Note_on_c, 9, 42, 0
4, 114944, Note_on_c, 9, 42, 68
4, 114976, Note_on_c, 9, 42, 0
4, 115008, Note_on_c, 9, 40, 0
4, 115008, Note_on_c, 9, 46, 84
4, 115104, Note_on_c, 9, 46, 0
4, 115200, Note_on_c, 9, 35, 84
4, 115200, Note_on_c, 9, 42, 84
4, 115232, Note_on_c, 9, 42, 0
4, 115232, Note_on_c, 9, 35, 0
4, 115328, Note_on_c, 9, 42, 68
4, 115360, Note_on_c, 9, 42, 0
4, 115392, Note_on_c, 9, 42, 84
4, 115392, Note_on_c, 9, 75, 84
4, 115424, Note_on_c, 9, 42, 0
4, 115488, Note_on_c, 9, 75, 0
4, 115520, Note_on_c, 9, 35, 84
4, 115520, Note_on_c, 9, 42, 68
4, 115552, Note_on_c, 9, 42, 0
4, 115552, Note_on_c, 9, 35, 0
4, 115584, Note_on_c, 9, 40, 100
4, 115584, Note_on_c, 9, 42, 84
4, 115616, Note_on_c, 9, 42, 0
4, 115712, Note_on_c, 9, 42, 68
4, 115712, Note_on_c, 9, 85, 100
4, 115744, Note_on_c, 9, 42, 0
4, 115776, Note_on_c, 9, 40, 0
4, 115776, Note_on_c, 9, 35, 84
4, 115776, Note_on_c, 9, 46, 84
4, 115808, Note_on_c, 9, 35, 0
4, 115840, Note_on_c, 9, 85, 0
4, 115872, Note_on_c, 9, 46, 0
4, 115968, Note_on_c, 9, 42, 84
4, 115968, Note_on_c, 9, 82, 84
4, 116000, Note_on_c, 9, 42, 0
4, 116096, Note_on_c, 9, 35, 84
4, 116096, Note_on_c, 9, 42, 68
4, 116128, Note_on_c, 9, 42, 0
4, 116128, Note_on_c, 9, 35, 0
4, 116160, Note_on_c, 9, 82, 0
4, 116160, Note_on_c, 9, 42, 84
4, 116192, Note_on_c, 9, 42, 0
4, 116288, Note_on_c, 9, 35, 84
4, 116288, Note_on_c, 9, 42, 68
4, 116320, Note_on_c, 9, 42, 0
4, 116320, Note_on_c, 9, 35, 0
4, 116352, Note_on_c, 9, 40, 100
4, 116352, Note_on_c, 9, 42, 84
4, 116384, Note_on_c, 9, 42, 0
4, 116480, Note_on_c, 9, 42, 68
4, 116512, Note_on_c, 9, 42, 0
4, 116544, Note_on_c, 9, 40, 0
4, 116544, Note_on_c, 9, 46, 84
4, 116640, Note_on_c, 9, 46, 0
4, 116736, Note_on_c, 9, 35, 84
4, 116736, Note_on_c, 9, 42, 84
4, 116768, Note_on_c, 9, 42, 0
4, 116768, Note_on_c, 9, 35, 0
4, 116864, Note_on_c, 9, 42, 68
4, 116896, Note_on_c, 9, 42, 0
4, 116928, Note_on_c, 9, 42, 84
4, 116928, Note_on_c, 9, 75, 84
4, 116960, Note_on_c, 9, 42, 0
4, 117024, Note_on_c, 9, 75, 0
4, 117056, Note_on_c, 9, 35, 84
4, 117056, Note_on_c, 9, 42, 68
4, 117088, Note_on_c, 9, 42, 0
4, 117088, Note_on_c, 9, 35, 0
4, 117120, Note_on_c, 9, 40, 100
4, 117120, Note_on_c, 9, 42, 84
4, 117152, Note_on_c, 9, 42, 0
4, 117248, Note_on_c, 9, 42, 68
4, 117248, Note_on_c, 9, 85, 100
4, 117280, Note_on_c, 9, 42, 0
4, 117312, Note_on_c, 9, 40, 0
4, 117312, Note_on_c, 9, 35, 84
4, 117312, Note_on_c, 9, 46, 84
4, 117344, Note_on_c, 9, 35, 0
4, 117376, Note_on_c, 9, 85, 0
4, 117408, Note_on_c, 9, 46, 0
4, 117504, Note_on_c, 9, 42, 84
4, 117504, Note_on_c, 9, 82, 84
4, 117536, Note_on_c, 9, 42, 0
4, 117632, Note_on_c, 9, 35, 84
4, 117632, Note_on_c, 9, 42, 68
4, 117664, Note_on_c, 9, 42, 0
4, 117664, Note_on_c, 9, 35, 0
4, 117696, Note_on_c, 9, 82, 0
4, 117696, Note_on_c, 9, 42, 84
4, 117728, Note_on_c, 9, 42, 0
4, 117824, Note_on_c, 9, 35, 84
4, 117824, Note_on_c, 9, 42, 68
4, 117856, Note_on_c, 9, 42, 0
4, 117856, Note_on_c, 9, 35, 0
4, 117888, Note_on_c, 9, 40, 100
4, 117888, Note_on_c, 9, 42, 84
4, 117920, Note_on_c, 9, 42, 0
4, 118016, Note_on_c, 9, 42, 68
4, 118048, Note_on_c, 9, 42, 0
4, 118080, Note_on_c, 9, 40, 0
4, 118080, Note_on_c, 9, 46, 84
4, 118176, Note_on_c, 9, 46, 0
4, 118272, Note_on_c, 9, 35, 84
4, 118272, Note_on_c, 9, 42, 84
4, 118304, Note_on_c, 9, 42, 0
4, 118304, Note_on_c, 9, 35, 0
4, 118400, Note_on_c, 9, 42, 68
4, 118432, Note_on_c, 9, 42, 0
4, 118464, Note_on_c, 9, 42, 84
4, 118464, Note_on_c, 9, 75, 84
4, 118496, Note_on_c, 9, 42, 0
4, 118560, Note_on_c, 9, 75, 0
4, 118592, Note_on_c, 9, 35, 84
4, 118592, Note_on_c, 9, 42, 68
4, 118624, Note_on_c, 9, 42, 0
4, 118624, Note_on_c, 9, 35, 0
4, 118656, Note_on_c, 9, 40, 100
4, 118656, Note_on_c, 9, 42, 84
4, 118688, Note_on_c, 9, 42, 0
4, 118784, Note_on_c, 9, 42, 68
4, 118784, Note_on_c, 9, 85, 100
4, 118816, Note_on_c, 9, 42, 0
4, 118848, Note_on_c, 9, 40, 0
4, 118848, Note_on_c, 9, 35, 84
4, 118848, Note_on_c, 9, 46, 84
4, 118880, Note_on_c, 9, 35, 0
4, 118912, Note_on_c, 9, 85, 0
4, 118944, Note_on_c, 9, 46, 0
4, 119040, Note_on_c, 9, 42, 84
4, 119040, Note_on_c, 9, 82, 84
4, 119072, Note_on_c, 9, 42, 0
4, 119168, Note_on_c, 9, 35, 84
4, 119168, Note_on_c, 9, 42, 68
4, 119200, Note_on_c, 9, 42, 0
4, 119200, Note_on_c, 9, 35, 0
4, 119232, Note_on_c, 9, 82, 0
4, 119232, Note_on_c, 9, 42, 84
4, 119264, Note_on_c, 9, 42, 0
4, 119360, Note_on_c, 9, 35, 84
4, 119360, Note_on_c, 9, 42, 68
4, 119392, Note_on_c, 9, 42, 0
4, 119392, Note_on_c, 9, 35, 0
4, 119424, Note_on_c, 9, 40, 100
4, 119424, Note_on_c, 9, 42, 84
4, 119456, Note_on_c, 9, 42, 0
4, 119552, Note_on_c, 9, 42, 68
4, 119584, Note_on_c, 9, 42, 0
4, 119616, Note_on_c, 9, 40, 0
4, 119616, Note_on_c, 9, 46, 84
4, 119712, Note_on_c, 9, 46, 0
4, 119808, Note_on_c, 9, 35, 84
4, 119808, Note_on_c, 9, 42, 84
4, 119840, Note_on_c, 9, 42, 0
4, 119840, Note_on_c, 9, 35, 0
4, 119936, Note_on_c, 9, 42, 68
4, 119968, Note_on_c, 9, 42, 0
4, 120000, Note_on_c, 9, 42, 84
4, 120000, Note_on_c, 9, 75, 84
4, 120032, Note_on_c, 9, 42, 0
4, 120096, Note_on_c, 9, 75, 0
4, 120128, Note_on_c, 9, 35, 84
4, 120128, Note_on_c, 9, 42, 68
4, 120160, Note_on_c, 9, 42, 0
4, 120160, Note_on_c, 9, 35, 0
4, 120192, Note_on_c, 9, 40, 100
4, 120192, Note_on_c, 9, 42, 84
4, 120224, Note_on_c, 9, 42, 0
4, 120320, Note_on_c, 9, 42, 68
4, 120320, Note_on_c, 9, 85, 100
4, 120352, Note_on_c, 9, 42, 0
4, 120384, Note_on_c, 9, 40, 0
4, 120384, Note_on_c, 9, 35, 84
4, 120384, Note_on_c, 9, 46, 84
4, 120416, Note_on_c, 9, 35, 0
4, 120448, Note_on_c, 9, 85, 0
4, 120480, Note_on_c, 9, 46, 0
4, 120576, Note_on_c, 9, 42, 84
4, 120576, Note_on_c, 9, 82, 84
4, 120608, Note_on_c, 9, 42, 0
4, 120704, Note_on_c, 9, 35, 84
4, 120704, Note_on_c, 9, 42, 68
4, 120736, Note_on_c, 9, 42, 0
4, 120736, Note_on_c, 9, 35, 0
4, 120768, Note_on_c, 9, 82, 0
4, 120768, Note_on_c, 9, 42, 84
4, 120800, Note_on_c, 9, 42, 0
4, 120896, Note_on_c, 9, 35, 84
4, 120896, Note_on_c, 9, 42, 68
4, 120928, Note_on_c, 9, 42, 0
4, 120928, Note_on_c, 9, 35, 0
4, 120960, Note_on_c, 9, 40, 100
4, 120960, Note_on_c, 9, 42, 84
4, 120992, Note_on_c, 9, 42, 0
4, 121088, Note_on_c, 9, 42, 68
4, 121120, Note_on_c, 9, 42, 0
4, 121152, Note_on_c, 9, 40, 0
4, 121152, Note_on_c, 9, 46, 84
4, 121248, Note_on_c, 9, 46, 0
4, 121344, Note_on_c, 9, 35, 84
4, 121344, Note_on_c, 9, 42, 84
4, 121376, Note_on_c, 9, 42, 0
4, 121376, Note_on_c, 9, 35, 0
4, 121472, Note_on_c, 9, 42, 68
4, 121504, Note_on_c, 9, 42, 0
4, 121536, Note_on_c, 9, 42, 84
4, 121536, Note_on_c, 9, 75, 84
4, 121568, Note_on_c, 9, 42, 0
4, 121632, Note_on_c, 9, 75, 0
4, 121664, Note_on_c, 9, 35, 84
4, 121664, Note_on_c, 9, 42, 68
4, 121696, Note_on_c, 9, 42, 0
4, 121696, Note_on_c, 9, 35, 0
4, 121728, Note_on_c, 9, 40, 100
4, 121728, Note_on_c, 9, 42, 84
4, 121760, Note_on_c, 9, 42, 0
4, 121856, Note_on_c, 9, 42, 68
4, 121856, Note_on_c, 9, 85, 100
4, 121888, Note_on_c, 9, 42, 0
4, 121920, Note_on_c, 9, 40, 0
4, 121920, Note_on_c, 9, 35, 84
4, 121920, Note_on_c, 9, 46, 84
4, 121952, Note_on_c, 9, 35, 0
4, 121984, Note_on_c, 9, 85, 0
4, 122016, Note_on_c, 9, 46, 0
4, 122112, Note_on_c, 9, 42, 84
4, 122112, Note_on_c, 9, 82, 84
4, 122144, Note_on_c, 9, 42, 0
4, 122240, Note_on_c, 9, 35, 84
4, 122240, Note_on_c, 9, 42, 68
4, 122272, Note_on_c, 9, 42, 0
4, 122272, Note_on_c, 9, 35, 0
4, 122304, Note_on_c, 9, 82, 0
4, 122304, Note_on_c, 9, 42, 84
4, 122336, Note_on_c, 9, 42, 0
4, 122432, Note_on_c, 9, 35, 84
4, 122432, Note_on_c, 9, 42, 68
4, 122464, Note_on_c, 9, 42, 0
4, 122464, Note_on_c, 9, 35, 0
4, 122496, Note_on_c, 9, 40, 100
4, 122496, Note_on_c, 9, 42, 84
4, 122528, Note_on_c, 9, 42, 0
4, 122624, Note_on_c, 9, 42, 68
4, 122656, Note_on_c, 9, 42, 0
4, 122688, Note_on_c, 9, 40, 0
4, 122688, Note_on_c, 9, 46, 84
4, 122784, Note_on_c, 9, 46, 0
4, 122880, Note_on_c, 9, 35, 84
4, 122880, Note_on_c, 9, 42, 84
4, 122912, Note_on_c, 9, 42, 0
4, 122912, Note_on_c, 9, 35, 0
4, 123008, Note_on_c, 9, 42, 68
4, 123040, Note_on_c, 9, 42, 0
4, 123072, Note_on_c, 9, 42, 84
4, 123072, Note_on_c, 9, 75, 84
4, 123104, Note_on_c, 9, 42, 0
4, 123168, Note_on_c, 9, 75, 0
4, 123200, Note_on_c, 9, 35, 84
4, 123200, Note_on_c, 9, 42, 68
4, 123232, Note_on_c, 9, 42, 0
4, 123232, Note_on_c, 9, 35, 0
4, 123264, Note_on_c, 9, 40, 100
4, 123264, Note_on_c, 9, 42, 84
4, 123296, Note_on_c, 9, 42, 0
4, 123392, Note_on_c, 9, 42, 68
4, 123392, Note_on_c, 9, 85, 100
4, 123424, Note_on_c, 9, 42, 0
4, 123456, Note_on_c, 9, 40, 0
4, 123456, Note_on_c, 9, 35, 84
4, 123456, Note_on_c, 9, 46, 84
4, 123488, Note_on_c, 9, 35, 0
4, 123520, Note_on_c, 9, 85, 0
4, 123552, Note_on_c, 9, 46, 0
4, 123648, Note_on_c, 9, 42, 84
4, 123648, Note_on_c, 9, 82, 84
4, 123680, Note_on_c, 9, 42, 0
4, 123776, Note_on_c, 9, 35, 84
4, 123776, Note_on_c, 9, 42, 68
4, 123808, Note_on_c, 9, 42, 0
4, 123808, Note_on_c, 9, 35, 0
4, 123840, Note_on_c, 9, 82, 0
4, 123840, Note_on_c, 9, 42, 84
4, 123872, Note_on_c, 9, 42, 0
4, 123968, Note_on_c, 9, 35, 84
4, 123968, Note_on_c, 9, 42, 68
4, 124000, Note_on_c, 9, 42, 0
4, 124000, Note_on_c, 9, 35, 0
4, 124032, Note_on_c, 9, 40, 100
4, 124032, Note_on_c, 9, 42, 84
4, 124064, Note_on_c, 9, 42, 0
4, 124160, Note_on_c, 9, 42, 68
4, 124192, Note_on_c, 9, 42, 0
4, 124224, Note_on_c, 9, 40, 0
4, 124224, Note_on_c, 9, 46, 84
4, 124320, Note_on_c, 9, 46, 0
4, 124416, Note_on_c, 9, 35, 84
4, 124416, Note_on_c, 9, 42, 84
4, 124448, Note_on_c, 9, 42, 0
4, 124448, Note_on_c, 9, 35, 0
4, 124544, Note_on_c, 9, 42, 68
4, 124576, Note_on_c, 9, 42, 0
4, 124608, Note_on_c, 9, 42, 84
4, 124608, Note_on_c, 9, 75, 84
4, 124640, Note_on_c, 9, 42, 0
4, 124704, Note_on_c, 9, 75, 0
4, 124736, Note_on_c, 9, 35, 84
4, 124736, Note_on_c, 9, 42, 68
4, 124768, Note_on_c, 9, 42, 0
4, 124768, Note_on_c, 9, 35, 0
4, 124800, Note_on_c, 9, 40, 100
4, 124800, Note_on_c, 9, 42, 84
4, 124832, Note_on_c, 9, 42, 0
4, 124928, Note_on_c, 9, 42, 68
4, 124928, Note_on_c, 9, 85, 100
4, 124960, Note_on_c, 9, 42, 0
4, 124992, Note_on_c, 9, 40, 0
4, 124992, Note_on_c, 9, 35, 84
4, 124992, Note_on_c, 9, 46, 84
4, 125024, Note_on_c, 9, 35, 0
4, 125056, Note_on_c, 9, 85, 0
4, 125088, Note_on_c, 9, 46, 0
4, 125184, Note_on_c, 9, 42, 84
4, 125184, Note_on_c, 9, 82, 84
4, 125216, Note_on_c, 9, 42, 0
4, 125312, Note_on_c, 9, 35, 84
4, 125312, Note_on_c, 9, 42, 68
4, 125344, Note_on_c, 9, 42, 0
4, 125344, Note_on_c, 9, 35, 0
4, 125376, Note_on_c, 9, 82, 0
4, 125376, Note_on_c, 9, 42, 84
4, 125408, Note_on_c, 9, 42, 0
4, 125504, Note_on_c, 9, 35, 84
4, 125504, Note_on_c, 9, 42, 68
4, 125536, Note_on_c, 9, 42, 0
4, 125536, Note_on_c, 9, 35, 0
4, 125568, Note_on_c, 9, 40, 100
4, 125568, Note_on_c, 9, 42, 84
4, 125600, Note_on_c, 9, 42, 0
4, 125696, Note_on_c, 9, 42, 68
4, 125728, Note_on_c, 9, 42, 0
4, 125760, Note_on_c, 9, 40, 0
4, 125760, Note_on_c, 9, 46, 84
4, 125856, Note_on_c, 9, 46, 0
4, 125952, Note_on_c, 9, 35, 84
4, 125952, Note_on_c, 9, 42, 84
4, 125984, Note_on_c, 9, 42, 0
4, 125984, Note_on_c, 9, 35, 0
4, 126080, Note_on_c, 9, 42, 68
4, 126080, Note_on_c, 9, 51, 100
4, 126112, Note_on_c, 9, 42, 0
4, 126144, Note_on_c, 9, 51, 0
4, 126144, Note_on_c, 9, 42, 84
4, 126176, Note_on_c, 9, 42, 0
4, 126272, Note_on_c, 9, 35, 84
4, 126272, Note_on_c, 9, 42, 68
4, 126304, Note_on_c, 9, 42, 0
4, 126304, Note_on_c, 9, 35, 0
4, 126336, Note_on_c, 9, 40, 100
4, 126336, Note_on_c, 9, 42, 84
4, 126368, Note_on_c, 9, 42, 0
4, 126464, Note_on_c, 9, 42, 68
4, 126496, Note_on_c, 9, 42, 0
4, 126528, Note_on_c, 9, 40, 0
4, 126528, Note_on_c, 9, 35, 84
4, 126528, Note_on_c, 9, 42, 84
4, 126560, Note_on_c, 9, 42, 0
4, 126560, Note_on_c, 9, 35, 0
4, 126656, Note_on_c, 9, 42, 68
4, 126688, Note_on_c, 9, 42, 0
4, 126720, Note_on_c, 9, 42, 84
4, 126752, Note_on_c, 9, 42, 0
4, 126848, Note_on_c, 9, 35, 84
4, 126848, Note_on_c, 9, 42, 68
4, 126880, Note_on_c, 9, 42, 0
4, 126880, Note_on_c, 9, 35, 0
4, 126912, Note_on_c, 9, 42, 84
4, 126944, Note_on_c, 9, 42, 0
4, 127040, Note_on_c, 9, 35, 84
4, 127040, Note_on_c, 9, 42, 68
4, 127072, Note_on_c, 9, 42, 0
4, 127072, Note_on_c, 9, 35, 0
4, 127104, Note_on_c, 9, 40, 100
4, 127104, Note_on_c, 9, 42, 84
4, 127136, Note_on_c, 9, 42, 0
4, 127232, Note_on_c, 9, 42, 68
4, 127264, Note_on_c, 9, 42, 0
4, 127296, Note_on_c, 9, 40, 0
4, 127296, Note_on_c, 9, 46, 84
4, 127392, Note_on_c, 9, 46, 0
4, 127488, Note_on_c, 9, 35, 84
4, 127488, Note_on_c, 9, 42, 84
4, 127520, Note_on_c, 9, 42, 0
4, 127520, Note_on_c, 9, 35, 0
4, 127616, Note_on_c, 9, 42, 68
4, 127616, Note_on_c, 9, 51, 100
4, 127648, Note_on_c, 9, 42, 0
4, 127680, Note_on_c, 9, 51, 0
4, 127680, Note_on_c, 9, 42, 84
4, 127712, Note_on_c, 9, 42, 0
4, 127808, Note_on_c, 9, 35, 84
4, 127808, Note_on_c, 9, 42, 68
4, 127840, Note_on_c, 9, 42, 0
4, 127840, Note_on_c, 9, 35, 0
4, 127872, Note_on_c, 9, 40, 100
4, 127872, Note_on_c, 9, 42, 84
4, 127904, Note_on_c, 9, 42, 0
4, 128000, Note_on_c, 9, 42, 68
4, 128032, Note_on_c, 9, 42, 0
4, 128064, Note_on_c, 9, 40, 0
4, 128064, Note_on_c, 9, 35, 84
4, 128064, Note_on_c, 9, 42, 84
4, 128096, Note_on_c, 9, 42, 0
4, 128096, Note_on_c, 9, 35, 0
4, 128192, Note_on_c, 9, 42, 68
4, 128224, Note_on_c, 9, 42, 0
4, 128256, Note_on_c, 9, 42, 84
4, 128288, Note_on_c, 9, 42, 0
4, 128384, Note_on_c, 9, 35, 84
4, 128384, Note_on_c, 9, 42, 68
4, 128384, Note_on_c, 9, 51, 100
4, 128416, Note_on_c, 9, 42, 0
4, 128416, Note_on_c, 9, 35, 0
4, 128448, Note_on_c, 9, 51, 0
4, 128448, Note_on_c, 9, 42, 84
4, 128480, Note_on_c, 9, 42, 0
4, 128576, Note_on_c, 9, 35, 84
4, 128576, Note_on_c, 9, 42, 68
4, 128608, Note_on_c, 9, 42, 0
4, 128608, Note_on_c, 9, 35, 0
4, 128640, Note_on_c, 9, 40, 100
4, 128640, Note_on_c, 9, 42, 84
4, 128672, Note_on_c, 9, 42, 0
4, 128768, Note_on_c, 9, 42, 68
4, 128800, Note_on_c, 9, 42, 0
4, 128832, Note_on_c, 9, 40, 0
4, 128832, Note_on_c, 9, 46, 84
4, 128928, Note_on_c, 9, 46, 0
4, 129024, Note_on_c, 9, 35, 84
4, 129024, Note_on_c, 9, 42, 84
4, 129056, Note_on_c, 9, 42, 0
4, 129056, Note_on_c, 9, 35, 0
4, 129152, Note_on_c, 9, 42, 68
4, 129152, Note_on_c, 9, 51, 100
4, 129184, Note_on_c, 9, 42, 0
4, 129216, Note_on_c, 9, 51, 0
4, 129216, Note_on_c, 9, 42, 84
4, 129248, Note_on_c, 9, 42, 0
4, 129344, Note_on_c, 9, 35, 84
4, 129344, Note_on_c, 9, 42, 68
4, 129376, Note_on_c, 9, 42, 0
4, 129376, Note_on_c, 9, 35, 0
4, 129408, Note_on_c, 9, 40, 100
4, 129408, Note_on_c, 9, 42, 84
4, 129440, Note_on_c, 9, 42, 0
4, 129536, Note_on_c, 9, 42, 68
4, 129568, Note_on_c, 9, 42, 0
4, 129600, Note_on_c, 9, 40, 0
4, 129600, Note_on_c, 9, 35, 84
4, 129600, Note_on_c, 9, 42, 84
4, 129632, Note_on_c, 9, 42, 0
4, 129632, Note_on_c, 9, 35, 0
4, 129728, Note_on_c, 9, 42, 68
4, 129760, Note_on_c, 9, 42, 0
4, 129792, Note_on_c, 9, 42, 84
4, 129824, Note_on_c, 9, 42, 0
4, 129920, Note_on_c, 9, 35, 84
4, 129920, Note_on_c, 9, 42, 68
4, 129952, Note_on_c, 9, 42, 0
4, 129952, Note_on_c, 9, 35, 0
4, 129984, Note_on_c, 9, 42, 84
4, 130016, Note_on_c, 9, 42, 0
4, 130112, Note_on_c, 9, 35, 84
4, 130112, Note_on_c, 9, 42, 68
4, 130144, Note_on_c, 9, 42, 0
4, 130144, Note_on_c, 9, 35, 0
4, 130176, Note_on_c, 9, 40, 100
4, 130176, Note_on_c, 9, 42, 84
4, 130208, Note_on_c, 9, 42, 0
4, 130304, Note_on_c, 9, 42, 68
4, 130336, Note_on_c, 9, 42, 0
4, 130368, Note_on_c, 9, 40, 0
4, 130368, Note_on_c, 9, 46, 84
4, 130464, Note_on_c, 9, 46, 0
4, 130560, Note_on_c, 9, 35, 84
4, 130560, Note_on_c, 9, 42, 84
4, 130592, Note_on_c, 9, 42, 0
4, 130592, Note_on_c, 9, 35, 0
4, 130688, Note_on_c, 9, 42, 68
4, 130688, Note_on_c, 9, 51, 100
4, 130720, Note_on_c, 9, 42, 0
4, 130752, Note_on_c, 9, 51, 0
4, 130752, Note_on_c, 9, 42, 84
4, 130784, Note_on_c, 9, 42, 0
4, 130880, Note_on_c, 9, 35, 84
4, 130880, Note_on_c, 9, 42, 68
4, 130912, Note_on_c, 9, 42, 0
4, 130912, Note_on_c, 9, 35, 0
4, 130944, Note_on_c, 9, 40, 100
4, 130944, Note_on_c, 9, 42, 84
4, 130976, Note_on_c, 9, 42, 0
4, 131072, Note_on_c, 9, 42, 68
4, 131104, Note_on_c, 9, 42, 0
4, 131136, Note_on_c, 9, 40, 0
4, 131136, Note_on_c, 9, 35, 84
4, 131136, Note_on_c, 9, 42, 84
4, 131168, Note_on_c, 9, 42, 0
4, 131168, Note_on_c, 9, 35, 0
4, 131264, Note_on_c, 9, 42, 68
4, 131296, Note_on_c, 9, 42, 0
4, 131328, Note_on_c, 9, 42, 84
4, 131360, Note_on_c, 9, 42, 0
4, 131456, Note_on_c, 9, 35, 84
4, 131456, Note_on_c, 9, 42, 68
4, 131456, Note_on_c, 9, 51, 100
4, 131488, Note_on_c, 9, 42, 0
4, 131488, Note_on_c, 9, 35, 0
4, 131520, Note_on_c, 9, 51, 0
4, 131520, Note_on_c, 9, 42, 84
4, 131552, Note_on_c, 9, 42, 0
4, 131648, Note_on_c, 9, 35, 84
4, 131648, Note_on_c, 9, 42, 68
4, 131680, Note_on_c, 9, 42, 0
4, 131680, Note_on_c, 9, 35, 0
4, 131712, Note_on_c, 9, 40, 100
4, 131712, Note_on_c, 9, 42, 84
4, 131744, Note_on_c, 9, 42, 0
4, 131840, Note_on_c, 9, 35, 84
4, 131840, Note_on_c, 9, 42, 68
4, 131872, Note_on_c, 9, 42, 0
4, 131872, Note_on_c, 9, 35, 0
4, 131904, Note_on_c, 9, 40, 0
4, 131904, Note_on_c, 9, 35, 100
4, 131904, Note_on_c, 9, 46, 84
4, 131936, Note_on_c, 9, 35, 0
4, 131968, Note_on_c, 9, 35, 84
4, 132000, Note_on_c, 9, 35, 0
4, 132000, Note_on_c, 9, 46, 0
4, 132032, Note_on_c, 9, 35, 84
4, 132064, Note_on_c, 9, 35, 0
4, 132096, Note_on_c, 9, 35, 84
4, 132096, Note_on_c, 9, 42, 84
4, 132128, Note_on_c, 9, 42, 0
4, 132128, Note_on_c, 9, 35, 0
4, 132224, Note_on_c, 9, 42, 68
4, 132224, Note_on_c, 9, 51, 100
4, 132256, Note_on_c, 9, 42, 0
4, 132288, Note_on_c, 9, 51, 0
4, 132288, Note_on_c, 9, 42, 84
4, 132320, Note_on_c, 9, 42, 0
4, 132416, Note_on_c, 9, 35, 84
4, 132416, Note_on_c, 9, 42, 68
4, 132448, Note_on_c, 9, 42, 0
4, 132448, Note_on_c, 9, 35, 0
4, 132480, Note_on_c, 9, 40, 100
4, 132480, Note_on_c, 9, 42, 84
4, 132512, Note_on_c, 9, 42, 0
4, 132608, Note_on_c, 9, 35, 84
4, 132608, Note_on_c, 9, 42, 68
4, 132640, Note_on_c, 9, 42, 0
4, 132640, Note_on_c, 9, 35, 0
4, 132672, Note_on_c, 9, 40, 0
4, 132672, Note_on_c, 9, 35, 100
4, 132672, Note_on_c, 9, 42, 84
4, 132704, Note_on_c, 9, 42, 0
4, 132704, Note_on_c, 9, 35, 0
4, 132736, Note_on_c, 9, 35, 84
4, 132768, Note_on_c, 9, 35, 0
4, 132800, Note_on_c, 9, 35, 84
4, 132800, Note_on_c, 9, 42, 68
4, 132832, Note_on_c, 9, 42, 0
4, 132832, Note_on_c, 9, 35, 0
4, 132864, Note_on_c, 9, 42, 84
4, 132896, Note_on_c, 9, 42, 0
4, 132992, Note_on_c, 9, 35, 84
4, 132992, Note_on_c, 9, 42, 68
4, 133024, Note_on_c, 9, 42, 0
4, 133024, Note_on_c, 9, 35, 0
4, 133056, Note_on_c, 9, 42, 84
4, 133088, Note_on_c, 9, 42, 0
4, 133184, Note_on_c, 9, 35, 84
4, 133184, Note_on_c, 9, 42, 68
4, 133216, Note_on_c, 9, 42, 0
4, 133216, Note_on_c, 9, 35, 0
4, 133248, Note_on_c, 9, 40, 100
4, 133248, Note_on_c, 9, 42, 84
4, 133280, Note_on_c, 9, 42, 0
4, 133376, Note_on_c, 9, 35, 84
4, 133376, Note_on_c, 9, 42, 68
4, 133408, Note_on_c, 9, 42, 0
4, 133408, Note_on_c, 9, 35, 0
4, 133440, Note_on_c, 9, 40, 0
4, 133440, Note_on_c, 9, 35, 100
4, 133440, Note_on_c, 9, 46, 84
4, 133472, Note_on_c, 9, 35, 0
4, 133504, Note_on_c, 9, 35, 84
4, 133536, Note_on_c, 9, 35, 0
4, 133536, Note_on_c, 9, 46, 0
4, 133568, Note_on_c, 9, 35, 84
4, 133600, Note_on_c, 9, 35, 0
4, 133632, Note_on_c, 9, 35, 84
4, 133632, Note_on_c, 9, 42, 84
4, 133664, Note_on_c, 9, 42, 0
4, 133664, Note_on_c, 9, 35, 0
4, 133760, Note_on_c, 9, 42, 68
4, 133760, Note_on_c, 9, 51, 100
4, 133792, Note_on_c, 9, 42, 0
4, 133824, Note_on_c, 9, 51, 0
4, 133824, Note_on_c, 9, 42, 84
4, 133856, Note_on_c, 9, 42, 0
4, 133952, Note_on_c, 9, 35, 84
4, 133952, Note_on_c, 9, 42, 68
4, 133984, Note_on_c, 9, 42, 0
4, 133984, Note_on_c, 9, 35, 0
4, 134016, Note_on_c, 9, 40, 100
4, 134016, Note_on_c, 9, 42, 84
4, 134048, Note_on_c, 9, 42, 0
4, 134144, Note_on_c, 9, 42, 68
4, 134176, Note_on_c, 9, 42, 0
4, 134208, Note_on_c, 9, 40, 0
4, 134208, Note_on_c, 9, 35, 84
4, 134208, Note_on_c, 9, 42, 84
4, 134240, Note_on_c, 9, 42, 0
4, 134240, Note_on_c, 9, 35, 0
4, 134336, Note_on_c, 9, 42, 68
4, 134368, Note_on_c, 9, 42, 0
4, 134400, Note_on_c, 9, 42, 84
4, 134432, Note_on_c, 9, 42, 0
4, 134528, Note_on_c, 9, 35, 84
4, 134528, Note_on_c, 9, 42, 68
4, 134528, Note_on_c, 9, 51, 100
4, 134560, Note_on_c, 9, 42, 0
4, 134560, Note_on_c, 9, 35, 0
4, 134592, Note_on_c, 9, 51, 0
4, 134592, Note_on_c, 9, 42, 84
4, 134624, Note_on_c, 9, 42, 0
4, 134720, Note_on_c, 9, 35, 84
4, 134720, Note_on_c, 9, 42, 68
4, 134752, Note_on_c, 9, 42, 0
4, 134752, Note_on_c, 9, 35, 0
4, 134784, Note_on_c, 9, 40, 100
4, 134784, Note_on_c, 9, 42, 84
4, 134816, Note_on_c, 9, 42, 0
4, 134912, Note_on_c, 9, 42, 68
4, 134944, Note_on_c, 9, 42, 0
4, 134976, Note_on_c, 9, 40, 0
4, 134976, Note_on_c, 9, 46, 84
4, 135072, Note_on_c, 9, 46, 0
4, 135168, Note_on_c, 9, 35, 84
4, 135168, Note_on_c, 9, 42, 84
4, 135200, Note_on_c, 9, 42, 0
4, 135200, Note_on_c, 9, 35, 0
4, 135296, Note_on_c, 9, 42, 68
4, 135296, Note_on_c, 9, 51, 100
4, 135328, Note_on_c, 9, 42, 0
4, 135360, Note_on_c, 9, 51, 0
4, 135360, Note_on_c, 9, 42, 84
4, 135392, Note_on_c, 9, 42, 0
4, 135488, Note_on_c, 9, 35, 84
4, 135488, Note_on_c, 9, 42, 68
4, 135520, Note_on_c, 9, 42, 0
4, 135520, Note_on_c, 9, 35, 0
4, 135552, Note_on_c, 9, 40, 100
4, 135552, Note_on_c, 9, 42, 84
4, 135584, Note_on_c, 9, 42, 0
4, 135680, Note_on_c, 9, 42, 68
4, 135712, Note_on_c, 9, 42, 0
4, 135744, Note_on_c, 9, 40, 0
4, 135744, Note_on_c, 9, 35, 84
4, 135744, Note_on_c, 9, 42, 84
4, 135776, Note_on_c, 9, 42, 0
4, 135776, Note_on_c, 9, 35, 0
4, 135872, Note_on_c, 9, 42, 68
4, 135904, Note_on_c, 9, 42, 0
4, 135936, Note_on_c, 9, 42, 84
4, 135968, Note_on_c, 9, 42, 0
4, 136064, Note_on_c, 9, 35, 84
4, 136064, Note_on_c, 9, 42, 68
4, 136096, Note_on_c, 9, 42, 0
4, 136096, Note_on_c, 9, 35, 0
4, 136128, Note_on_c, 9, 42, 84
4, 136160, Note_on_c, 9, 42, 0
4, 136256, Note_on_c, 9, 35, 84
4, 136256, Note_on_c, 9, 42, 68
4, 136288, Note_on_c, 9, 42, 0
4, 136288, Note_on_c, 9, 35, 0
4, 136320, Note_on_c, 9, 40, 100
4, 136320, Note_on_c, 9, 42, 84
4, 136352, Note_on_c, 9, 42, 0
4, 136448, Note_on_c, 9, 42, 68
4, 136480, Note_on_c, 9, 42, 0
4, 136512, Note_on_c, 9, 40, 0
4, 136512, Note_on_c, 9, 46, 84
4, 136608, Note_on_c, 9, 46, 0
4, 136704, Note_on_c, 9, 35, 84
4, 136704, Note_on_c, 9, 42, 84
4, 136736, Note_on_c, 9, 42, 0
4, 136736, Note_on_c, 9, 35, 0
4, 136832, Note_on_c, 9, 42, 68
4, 136832, Note_on_c, 9, 51, 100
4, 136864, Note_on_c, 9, 42, 0
4, 136896, Note_on_c, 9, 51, 0
4, 136896, Note_on_c, 9, 42, 84
4, 136928, Note_on_c, 9, 42, 0
4, 137024, Note_on_c, 9, 35, 84
4, 137024, Note_on_c, 9, 42, 68
4, 137056, Note_on_c, 9, 42, 0
4, 137056, Note_on_c, 9, 35, 0
4, 137088, Note_on_c, 9, 40, 100
4, 137088, Note_on_c, 9, 42, 84
4, 137120, Note_on_c, 9, 42, 0
4, 137216, Note_on_c, 9, 42, 68
4, 137248, Note_on_c, 9, 42, 0
4, 137280, Note_on_c, 9, 40, 0
4, 137280, Note_on_c, 9, 35, 84
4, 137280, Note_on_c, 9, 42, 84
4, 137312, Note_on_c, 9, 42, 0
4, 137312, Note_on_c, 9, 35, 0
4, 137408, Note_on_c, 9, 42, 68
4, 137440, Note_on_c, 9, 42, 0
4, 137472, Note_on_c, 9, 42, 84
4, 137504, Note_on_c, 9, 42, 0
4, 137600, Note_on_c, 9, 35, 84
4, 137600, Note_on_c, 9, 42, 68
4, 137600, Note_on_c, 9, 51, 100
4, 137632, Note_on_c, 9, 42, 0
4, 137632, Note_on_c, 9, 35, 0
4, 137664, Note_on_c, 9, 51, 0
4, 137664, Note_on_c, 9, 42, 84
4, 137696, Note_on_c, 9, 42, 0
4, 137792, Note_on_c, 9, 35, 84
4, 137792, Note_on_c, 9, 42, 68
4, 137824, Note_on_c, 9, 42, 0
4, 137824, Note_on_c, 9, 35, 0
4, 137856, Note_on_c, 9, 40, 100
4, 137856, Note_on_c, 9, 42, 84
4, 137888, Note_on_c, 9, 42, 0
4, 137984, Note_on_c, 9, 42, 68
4, 138016, Note_on_c, 9, 42, 0
4, 138048, Note_on_c, 9, 40, 0
4, 138048, Note_on_c, 9, 46, 84
4, 138144, Note_on_c, 9, 46, 0
4, 138240, Note_on_c, 9, 35, 84
4, 138240, Note_on_c, 9, 42, 84
4, 138272, Note_on_c, 9, 42, 0
4, 138272, Note_on_c, 9, 35, 0
4, 138368, Note_on_c, 9, 42, 68
4, 138368, Note_on_c, 9, 51, 100
4, 138400, Note_on_c, 9, 42, 0
4, 138432, Note_on_c, 9, 51, 0
4, 138432, Note_on_c, 9, 42, 84
4, 138464, Note_on_c, 9, 42, 0
4, 138560, Note_on_c, 9, 35, 84
4, 138560, Note_on_c, 9, 42, 68
4, 138592, Note_on_c, 9, 42, 0
4, 138592, Note_on_c, 9, 35, 0
4, 138624, Note_on_c, 9, 40, 100
4, 138624, Note_on_c, 9, 42, 84
4, 138656, Note_on_c, 9, 42, 0
4, 138752, Note_on_c, 9, 42, 68
4, 138784, Note_on_c, 9, 42, 0
4, 138816, Note_on_c, 9, 40, 0
4, 138816, Note_on_c, 9, 35, 84
4, 138816, Note_on_c, 9, 42, 84
4, 138848, Note_on_c, 9, 42, 0
4, 138848, Note_on_c, 9, 35, 0
4, 138944, Note_on_c, 9, 42, 68
4, 138976, Note_on_c, 9, 42, 0
4, 139008, Note_on_c, 9, 42, 84
4, 139040, Note_on_c, 9, 42, 0
4, 139136, Note_on_c, 9, 35, 84
4, 139136, Note_on_c, 9, 42, 68
4, 139168, Note_on_c, 9, 42, 0
4, 139168, Note_on_c, 9, 35, 0
4, 139200, Note_on_c, 9, 42, 84
4, 139232, Note_on_c, 9, 42, 0
4, 139328, Note_on_c, 9, 35, 84
4, 139328, Note_on_c, 9, 42, 68
4, 139360, Note_on_c, 9, 42, 0
4, 139360, Note_on_c, 9, 35, 0
4, 139392, Note_on_c, 9, 40, 100
4, 139392, Note_on_c, 9, 42, 84
4, 139424, Note_on_c, 9, 42, 0
4, 139520, Note_on_c, 9, 42, 68
4, 139552, Note_on_c, 9, 42, 0
4, 139584, Note_on_c, 9, 40, 0
4, 139584, Note_on_c, 9, 46, 84
4, 139680, Note_on_c, 9, 46, 0
4, 139776, Note_on_c, 9, 35, 84
4, 139776, Note_on_c, 9, 42, 84
4, 139808, Note_on_c, 9, 42, 0
4, 139808, Note_on_c, 9, 35, 0
4, 139904, Note_on_c, 9, 42, 68
4, 139904, Note_on_c, 9, 51, 100
4, 139936, Note_on_c, 9, 42, 0
4, 139968, Note_on_c, 9, 51, 0
4, 139968, Note_on_c, 9, 42, 84
4, 140000, Note_on_c, 9, 42, 0
4, 140096, Note_on_c, 9, 35, 84
4, 140096, Note_on_c, 9, 42, 68
4, 140128, Note_on_c, 9, 42, 0
4, 140128, Note_on_c, 9, 35, 0
4, 140160, Note_on_c, 9, 40, 100
4, 140160, Note_on_c, 9, 42, 84
4, 140192, Note_on_c, 9, 42, 0
4, 140288, Note_on_c, 9, 42, 68
4, 140320, Note_on_c, 9, 42, 0
4, 140352, Note_on_c, 9, 40, 0
4, 140352, Note_on_c, 9, 35, 84
4, 140352, Note_on_c, 9, 42, 84
4, 140384, Note_on_c, 9, 42, 0
4, 140384, Note_on_c, 9, 35, 0
4, 140480, Note_on_c, 9, 42, 68
4, 140512, Note_on_c, 9, 42, 0
4, 140544, Note_on_c, 9, 42, 84
4, 140576, Note_on_c, 9, 42, 0
4, 140672, Note_on_c, 9, 35, 84
4, 140672, Note_on_c, 9, 42, 68
4, 140672, Note_on_c, 9, 51, 100
4, 140704, Note_on_c, 9, 42, 0
4, 140704, Note_on_c, 9, 35, 0
4, 140736, Note_on_c, 9, 51, 0
4, 140736, Note_on_c, 9, 42, 84
4, 140768, Note_on_c, 9, 42, 0
4, 140864, Note_on_c, 9, 35, 84
4, 140864, Note_on_c, 9, 42, 68
4, 140896, Note_on_c, 9, 42, 0
4, 140896, Note_on_c, 9, 35, 0
4, 140928, Note_on_c, 9, 40, 100
4, 140928, Note_on_c, 9, 42, 84
4, 140960, Note_on_c, 9, 42, 0
4, 141056, Note_on_c, 9, 42, 68
4, 141088, Note_on_c, 9, 42, 0
4, 141120, Note_on_c, 9, 40, 0
4, 141120, Note_on_c, 9, 46, 84
4, 141216, Note_on_c, 9, 46, 0
4, 141312, Note_on_c, 9, 35, 84
4, 141312, Note_on_c, 9, 42, 84
4, 141344, Note_on_c, 9, 42, 0
4, 141344, Note_on_c, 9, 35, 0
4, 141440, Note_on_c, 9, 42, 68
4, 141440, Note_on_c, 9, 51, 100
4, 141472, Note_on_c, 9, 42, 0
4, 141504, Note_on_c, 9, 51, 0
4, 141504, Note_on_c, 9, 42, 84
4, 141536, Note_on_c, 9, 42, 0
4, 141632, Note_on_c, 9, 35, 84
4, 141632, Note_on_c, 9, 42, 68
4, 141664, Note_on_c, 9, 42, 0
4, 141664, Note_on_c, 9, 35, 0
4, 141696, Note_on_c, 9, 40, 100
4, 141696, Note_on_c, 9, 42, 84
4, 141728, Note_on_c, 9, 42, 0
4, 141824, Note_on_c, 9, 42, 68
4, 141856, Note_on_c, 9, 42, 0
4, 141888, Note_on_c, 9, 40, 0
4, 141888, Note_on_c, 9, 35, 84
4, 141888, Note_on_c, 9, 42, 84
4, 141920, Note_on_c, 9, 42, 0
4, 141920, Note_on_c, 9, 35, 0
4, 142016, Note_on_c, 9, 42, 68
4, 142048, Note_on_c, 9, 42, 0
4, 142080, Note_on_c, 9, 42, 84
4, 142112, Note_on_c, 9, 42, 0
4, 142208, Note_on_c, 9, 35, 84
4, 142208, Note_on_c, 9, 42, 68
4, 142240, Note_on_c, 9, 42, 0
4, 142240, Note_on_c, 9, 35, 0
4, 142272, Note_on_c, 9, 42, 84
4, 142304, Note_on_c, 9, 42, 0
4, 142400, Note_on_c, 9, 35, 84
4, 142400, Note_on_c, 9, 42, 68
4, 142432, Note_on_c, 9, 42, 0
4, 142432, Note_on_c, 9, 35, 0
4, 142464, Note_on_c, 9, 40, 100
4, 142464, Note_on_c, 9, 42, 84
4, 142496, Note_on_c, 9, 42, 0
4, 142592, Note_on_c, 9, 42, 68
4, 142624, Note_on_c, 9, 42, 0
4, 142656, Note_on_c, 9, 40, 0
4, 142656, Note_on_c, 9, 46, 84
4, 142752, Note_on_c, 9, 46, 0
4, 142848, Note_on_c, 9, 35, 84
4, 142848, Note_on_c, 9, 42, 84
4, 142880, Note_on_c, 9, 42, 0
4, 142880, Note_on_c, 9, 35, 0
4, 142976, Note_on_c, 9, 42, 68
4, 142976, Note_on_c, 9, 51, 100
4, 143008, Note_on_c, 9, 42, 0
4, 143040, Note_on_c, 9, 51, 0
4, 143040, Note_on_c, 9, 42, 84
4, 143072, Note_on_c, 9, 42, 0
4, 143168, Note_on_c, 9, 35, 84
4, 143168, Note_on_c, 9, 42, 68
4, 143200, Note_on_c, 9, 42, 0
4, 143200, Note_on_c, 9, 35, 0
4, 143232, Note_on_c, 9, 40, 100
4, 143232, Note_on_c, 9, 42, 84
4, 143264, Note_on_c, 9, 42, 0
4, 143360, Note_on_c, 9, 42, 68
4, 143392, Note_on_c, 9, 42, 0
4, 143424, Note_on_c, 9, 40, 0
4, 143424, Note_on_c, 9, 35, 84
4, 143424, Note_on_c, 9, 42, 84
4, 143456, Note_on_c, 9, 42, 0
4, 143456, Note_on_c, 9, 35, 0
4, 143552, Note_on_c, 9, 42, 68
4, 143584, Note_on_c, 9, 42, 0
4, 143616, Note_on_c, 9, 42, 84
4, 143648, Note_on_c, 9, 42, 0
4, 143744, Note_on_c, 9, 35, 84
4, 143744, Note_on_c, 9, 42, 68
4, 143744, Note_on_c, 9, 51, 100
4, 143776, Note_on_c, 9, 42, 0
4, 143776, Note_on_c, 9, 35, 0
4, 143808, Note_on_c, 9, 51, 0
4, 143808, Note_on_c, 9, 42, 84
4, 143840, Note_on_c, 9, 42, 0
4, 143936, Note_on_c, 9, 35, 84
4, 143936, Note_on_c, 9, 42, 68
4, 143968, Note_on_c, 9, 42, 0
4, 143968, Note_on_c, 9, 35, 0
4, 144000, Note_on_c, 9, 40, 100
4, 144000, Note_on_c, 9, 42, 84
4, 144032, Note_on_c, 9, 42, 0
4, 144128, Note_on_c, 9, 35, 84
4, 144128, Note_on_c, 9, 42, 68
4, 144160, Note_on_c, 9, 42, 0
4, 144160, Note_on_c, 9, 35, 0
4, 144192, Note_on_c, 9, 40, 0
4, 144192, Note_on_c, 9, 35, 100
4, 144192, Note_on_c, 9, 46, 84
4, 144224, Note_on_c, 9, 35, 0
4, 144256, Note_on_c, 9, 35, 84
4, 144288, Note_on_c, 9, 35, 0
4, 144288, Note_on_c, 9, 46, 0
4, 144320, Note_on_c, 9, 35, 84
4, 144352, Note_on_c, 9, 35, 0
4, 144384, Note_on_c, 9, 35, 84
4, 144384, Note_on_c, 9, 42, 84
4, 144416, Note_on_c, 9, 42, 0
4, 144416, Note_on_c, 9, 35, 0
4, 144512, Note_on_c, 9, 42, 68
4, 144512, Note_on_c, 9, 51, 100
4, 144544, Note_on_c, 9, 42, 0
4, 144576, Note_on_c, 9, 51, 0
4, 144576, Note_on_c, 9, 42, 84
4, 144608, Note_on_c, 9, 42, 0
4, 144704, Note_on_c, 9, 35, 84
4, 144704, Note_on_c, 9, 42, 68
4, 144736, Note_on_c, 9, 42, 0
4, 144736, Note_on_c, 9, 35, 0
4, 144768, Note_on_c, 9, 40, 100
4, 144768, Note_on_c, 9, 42, 84
4, 144800, Note_on_c, 9, 42, 0
4, 144896, Note_on_c, 9, 35, 84
4, 144896, Note_on_c, 9, 42, 68
4, 144928, Note_on_c, 9, 42, 0
4, 144928, Note_on_c, 9, 35, 0
4, 144960, Note_on_c, 9, 40, 0
4, 144960, Note_on_c, 9, 35, 100
4, 144960, Note_on_c, 9, 42, 84
4, 144992, Note_on_c, 9, 42, 0
4, 144992, Note_on_c, 9, 35, 0
4, 145024, Note_on_c, 9, 35, 84
4, 145056, Note_on_c, 9, 35, 0
4, 145088, Note_on_c, 9, 35, 84
4, 145088, Note_on_c, 9, 42, 68
4, 145120, Note_on_c, 9, 42, 0
4, 145120, Note_on_c, 9, 35, 0
4, 145152, Note_on_c, 9, 42, 84
4, 145184, Note_on_c, 9, 42, 0
4, 145280, Note_on_c, 9, 35, 84
4, 145280, Note_on_c, 9, 42, 68
4, 145312, Note_on_c, 9, 42, 0
4, 145312, Note_on_c, 9, 35, 0
4, 145344, Note_on_c, 9, 42, 84
4, 145376, Note_on_c, 9, 42, 0
4, 145472, Note_on_c, 9, 35, 84
4, 145472, Note_on_c, 9, 42, 68
4, 145504, Note_on_c, 9, 42, 0
4, 145504, Note_on_c, 9, 35, 0
4, 145536, Note_on_c, 9, 40, 100
4, 145536, Note_on_c, 9, 42, 84
4, 145568, Note_on_c, 9, 42, 0
4, 145664, Note_on_c, 9, 35, 84
4, 145664, Note_on_c, 9, 42, 68
4, 145696, Note_on_c, 9, 42, 0
4, 145696, Note_on_c, 9, 35, 0
4, 145728, Note_on_c, 9, 40, 0
4, 145728, Note_on_c, 9, 35, 100
4, 145728, Note_on_c, 9, 46, 84
4, 145760, Note_on_c, 9, 35, 0
4, 145792, Note_on_c, 9, 35, 84
4, 145824, Note_on_c, 9, 35, 0
4, 145824, Note_on_c, 9, 46, 0
4, 145856, Note_on_c, 9, 35, 84
4, 145888, Note_on_c, 9, 35, 0
4, 145920, Note_on_c, 9, 35, 84
4, 145920, Note_on_c, 9, 42, 84
4, 145952, Note_on_c, 9, 42, 0
4, 145952, Note_on_c, 9, 35, 0
4, 146048, Note_on_c, 9, 42, 68
4, 146048, Note_on_c, 9, 51, 100
4, 146080, Note_on_c, 9, 42, 0
4, 146112, Note_on_c, 9, 51, 0
4, 146112, Note_on_c, 9, 42, 84
4, 146144, Note_on_c, 9, 42, 0
4, 146240, Note_on_c, 9, 35, 84
4, 146240, Note_on_c, 9, 42, 68
4, 146272, Note_on_c, 9, 42, 0
4, 146272, Note_on_c, 9, 35, 0
4, 146304, Note_on_c, 9, 40, 100
4, 146304, Note_on_c, 9, 42, 84
4, 146336, Note_on_c, 9, 42, 0
4, 146432, Note_on_c, 9, 42, 68
4, 146464, Note_on_c, 9, 42, 0
4, 146496, Note_on_c, 9, 40, 0
4, 146496, Note_on_c, 9, 35, 84
4, 146496, Note_on_c, 9, 42, 84
4, 146528, Note_on_c, 9, 42, 0
4, 146528, Note_on_c, 9, 35, 0
4, 146624, Note_on_c, 9, 42, 68
4, 146656, Note_on_c, 9, 42, 0
4, 146688, Note_on_c, 9, 42, 84
4, 146720, Note_on_c, 9, 42, 0
4, 146816, Note_on_c, 9, 35, 84
4, 146816, Note_on_c, 9, 42, 68
4, 146816, Note_on_c, 9, 51, 100
4, 146848, Note_on_c, 9, 42, 0
4, 146848, Note_on_c, 9, 35, 0
4, 146880, Note_on_c, 9, 51, 0
4, 146880, Note_on_c, 9, 42, 84
4, 146912, Note_on_c, 9, 42, 0
4, 147008, Note_on_c, 9, 35, 84
4, 147008, Note_on_c, 9, 42, 68
4, 147040, Note_on_c, 9, 42, 0
4, 147040, Note_on_c, 9, 35, 0
4, 147072, Note_on_c, 9, 40, 100
4, 147072, Note_on_c, 9, 42, 84
4, 147104, Note_on_c, 9, 42, 0
4, 147200, Note_on_c, 9, 42, 68
4, 147232, Note_on_c, 9, 42, 0
4, 147264, Note_on_c, 9, 40, 0
4, 147264, Note_on_c, 9, 46, 84
4, 147360, Note_on_c, 9, 46, 0
4, 147456, Note_on_c, 9, 35, 84
4, 147456, Note_on_c, 9, 42, 84
4, 147488, Note_on_c, 9, 42, 0
4, 147488, Note_on_c, 9, 35, 0
4, 147584, Note_on_c, 9, 42, 68
4, 147584, Note_on_c, 9, 51, 100
4, 147616, Note_on_c, 9, 42, 0
4, 147648, Note_on_c, 9, 51, 0
4, 147648, Note_on_c, 9, 42, 84
4, 147680, Note_on_c, 9, 42, 0
4, 147776, Note_on_c, 9, 35, 84
4, 147776, Note_on_c, 9, 42, 68
4, 147808, Note_on_c, 9, 42, 0
4, 147808, Note_on_c, 9, 35, 0
4, 147840, Note_on_c, 9, 40, 100
4, 147840, Note_on_c, 9, 42, 84
4, 147872, Note_on_c, 9, 42, 0
4, 147968, Note_on_c, 9, 42, 68
4, 148000, Note_on_c, 9, 42, 0
4, 148032, Note_on_c, 9, 40, 0
4, 148032, Note_on_c, 9, 35, 84
4, 148032, Note_on_c, 9, 42, 84
4, 148064, Note_on_c, 9, 42, 0
4, 148064, Note_on_c, 9, 35, 0
4, 148160, Note_on_c, 9, 42, 68
4, 148192, Note_on_c, 9, 42, 0
4, 148224, Note_on_c, 9, 42, 84
4, 148256, Note_on_c, 9, 42, 0
4, 148352, Note_on_c, 9, 35, 84
4, 148352, Note_on_c, 9, 42, 68
4, 148384, Note_on_c, 9, 42, 0
4, 148384, Note_on_c, 9, 35, 0
4, 148416, Note_on_c, 9, 42, 84
4, 148448, Note_on_c, 9, 42, 0
4, 148544, Note_on_c, 9, 35, 84
4, 148544, Note_on_c, 9, 42, 68
4, 148576, Note_on_c, 9, 42, 0
4, 148576, Note_on_c, 9, 35, 0
4, 148608, Note_on_c, 9, 40, 100
4, 148608, Note_on_c, 9, 42, 84
4, 148640, Note_on_c, 9, 42, 0
4, 148736, Note_on_c, 9, 42, 68
4, 148768, Note_on_c, 9, 42, 0
4, 148800, Note_on_c, 9, 40, 0
4, 148800, Note_on_c, 9, 46, 84
4, 148896, Note_on_c, 9, 46, 0
4, 148992, Note_on_c, 9, 35, 84
4, 148992, Note_on_c, 9, 42, 84
4, 149024, Note_on_c, 9, 42, 0
4, 149024, Note_on_c, 9, 35, 0
4, 149120, Note_on_c, 9, 42, 68
4, 149120, Note_on_c, 9, 51, 100
4, 149152, Note_on_c, 9, 42, 0
4, 149184, Note_on_c, 9, 51, 0
4, 149184, Note_on_c, 9, 42, 84
4, 149216, Note_on_c, 9, 42, 0
4, 149312, Note_on_c, 9, 35, 84
4, 149312, Note_on_c, 9, 42, 68
4, 149344, Note_on_c, 9, 42, 0
4, 149344, Note_on_c, 9, 35, 0
4, 149376, Note_on_c, 9, 40, 100
4, 149376, Note_on_c, 9, 42, 84
4, 149408, Note_on_c, 9, 42, 0
4, 149504, Note_on_c, 9, 42, 68
4, 149536, Note_on_c, 9, 42, 0
4, 149568, Note_on_c, 9, 40, 0
4, 149568, Note_on_c, 9, 35, 84
4, 149568, Note_on_c, 9, 42, 84
4, 149600, Note_on_c, 9, 42, 0
4, 149600, Note_on_c, 9, 35, 0
4, 149696, Note_on_c, 9, 42, 68
4, 149728, Note_on_c, 9, 42, 0
4, 149760, Note_on_c, 9, 42, 84
4, 149792, Note_on_c, 9, 42, 0
4, 149888, Note_on_c, 9, 35, 84
4, 149888, Note_on_c, 9, 42, 68
4, 149888, Note_on_c, 9, 51, 100
4, 149920, Note_on_c, 9, 42, 0
4, 149920, Note_on_c, 9, 35, 0
4, 149952, Note_on_c, 9, 51, 0
4, 149952, Note_on_c, 9, 42, 84
4, 149984, Note_on_c, 9, 42, 0
4, 150080, Note_on_c, 9, 35, 84
4, 150080, Note_on_c, 9, 42, 68
4, 150112, Note_on_c, 9, 42, 0
4, 150112, Note_on_c, 9, 35, 0
4, 150144, Note_on_c, 9, 40, 100
4, 150144, Note_on_c, 9, 42, 84
4, 150176, Note_on_c, 9, 42, 0
4, 150272, Note_on_c, 9, 42, 68
4, 150304, Note_on_c, 9, 42, 0
4, 150336, Note_on_c, 9, 40, 0
4, 150336, Note_on_c, 9, 46, 84
4, 150432, Note_on_c, 9, 46, 0
4, 150528, Note_on_c, 9, 35, 84
4, 150528, Note_on_c, 9, 42, 84
4, 150560, Note_on_c, 9, 42, 0
4, 150560, Note_on_c, 9, 35, 0
4, 150656, Note_on_c, 9, 42, 68
4, 150656, Note_on_c, 9, 51, 100
4, 150688, Note_on_c, 9, 42, 0
4, 150720, Note_on_c, 9, 51, 0
4, 150720, Note_on_c, 9, 42, 84
4, 150752, Note_on_c, 9, 42, 0
4, 150848, Note_on_c, 9, 35, 84
4, 150848, Note_on_c, 9, 42, 68
4, 150880, Note_on_c, 9, 42, 0
4, 150880, Note_on_c, 9, 35, 0
4, 150912, Note_on_c, 9, 40, 100
4, 150912, Note_on_c, 9, 42, 84
4, 150944, Note_on_c, 9, 42, 0
4, 151040, Note_on_c, 9, 42, 68
4, 151072, Note_on_c, 9, 42, 0
4, 151104, Note_on_c, 9, 40, 0
4, 151104, Note_on_c, 9, 35, 84
4, 151104, Note_on_c, 9, 42, 84
4, 151136, Note_on_c, 9, 42, 0
4, 151136, Note_on_c, 9, 35, 0
4, 151232, Note_on_c, 9, 42, 68
4, 151264, Note_on_c, 9, 42, 0
4, 151296, Note_on_c, 9, 42, 84
4, 151328, Note_on_c, 9, 42, 0
4, 151424, Note_on_c, 9, 35, 84
4, 151424, Note_on_c, 9, 42, 68
4, 151456, Note_on_c, 9, 42, 0
4, 151456, Note_on_c, 9, 35, 0
4, 151488, Note_on_c, 9, 42, 84
4, 151520, Note_on_c, 9, 42, 0
4, 151616, Note_on_c, 9, 35, 84
4, 151616, Note_on_c, 9, 42, 68
4, 151648, Note_on_c, 9, 42, 0
4, 151648, Note_on_c, 9, 35, 0
4, 151680, Note_on_c, 9, 40, 100
4, 151680, Note_on_c, 9, 42, 84
4, 151712, Note_on_c, 9, 42, 0
4, 151808, Note_on_c, 9, 42, 68
4, 151840, Note_on_c, 9, 42, 0
4, 151872, Note_on_c, 9, 40, 0
4, 151872, Note_on_c, 9, 46, 84
4, 151968, Note_on_c, 9, 46, 0
4, 152064, Note_on_c, 9, 35, 84
4, 152064, Note_on_c, 9, 42, 84
4, 152096, Note_on_c, 9, 42, 0
4, 152096, Note_on_c, 9, 35, 0
4, 152192, Note_on_c, 9, 42, 68
4, 152192, Note_on_c, 9, 51, 100
4, 152224, Note_on_c, 9, 42, 0
4, 152256, Note_on_c, 9, 51, 0
4, 152256, Note_on_c, 9, 42, 84
4, 152288, Note_on_c, 9, 42, 0
4, 152384, Note_on_c, 9, 35, 84
4, 152384, Note_on_c, 9, 42, 68
4, 152416, Note_on_c, 9, 42, 0
4, 152416, Note_on_c, 9, 35, 0
4, 152448, Note_on_c, 9, 40, 100
4, 152448, Note_on_c, 9, 42, 84
4, 152480, Note_on_c, 9, 42, 0
4, 152576, Note_on_c, 9, 42, 68
4, 152608, Note_on_c, 9, 42, 0
4, 152640, Note_on_c, 9, 40, 0
4, 152640, Note_on_c, 9, 35, 84
4, 152640, Note_on_c, 9, 42, 84
4, 152672, Note_on_c, 9, 42, 0
4, 152672, Note_on_c, 9, 35, 0
4, 152768, Note_on_c, 9, 42, 68
4, 152800, Note_on_c, 9, 42, 0
4, 152832, Note_on_c, 9, 42, 84
4, 152864, Note_on_c, 9, 42, 0
4, 152960, Note_on_c, 9, 35, 84
4, 152960, Note_on_c, 9, 42, 68
4, 152960, Note_on_c, 9, 51, 100
4, 152992, Note_on_c, 9, 42, 0
4, 152992, Note_on_c, 9, 35, 0
4, 153024, Note_on_c, 9, 51, 0
4, 153024, Note_on_c, 9, 42, 84
4, 153056, Note_on_c, 9, 42, 0
4, 153152, Note_on_c, 9, 35, 84
4, 153152, Note_on_c, 9, 42, 68
4, 153184, Note_on_c, 9, 42, 0
4, 153184, Note_on_c, 9, 35, 0
4, 153216, Note_on_c, 9, 40, 100
4, 153216, Note_on_c, 9, 42, 84
4, 153248, Note_on_c, 9, 42, 0
4, 153344, Note_on_c, 9, 42, 68
4, 153376, Note_on_c, 9, 42, 0
4, 153408, Note_on_c, 9, 40, 0
4, 153408, Note_on_c, 9, 46, 84
4, 153504, Note_on_c, 9, 46, 0
4, 153600, Note_on_c, 9, 35, 84
4, 153600, Note_on_c, 9, 42, 84
4, 153632, Note_on_c, 9, 42, 0
4, 153632, Note_on_c, 9, 35, 0
4, 153728, Note_on_c, 9, 42, 68
4, 153728, Note_on_c, 9, 51, 100
4, 153760, Note_on_c, 9, 42, 0
4, 153792, Note_on_c, 9, 51, 0
4, 153792, Note_on_c, 9, 42, 84
4, 153824, Note_on_c, 9, 42, 0
4, 153920, Note_on_c, 9, 35, 84
4, 153920, Note_on_c, 9, 42, 68
4, 153952, Note_on_c, 9, 42, 0
4, 153952, Note_on_c, 9, 35, 0
4, 153984, Note_on_c, 9, 40, 100
4, 153984, Note_on_c, 9, 42, 84
4, 154016, Note_on_c, 9, 42, 0
4, 154112, Note_on_c, 9, 42, 68
4, 154144, Note_on_c, 9, 42, 0
4, 154176, Note_on_c, 9, 40, 0
4, 154176, Note_on_c, 9, 35, 84
4, 154176, Note_on_c, 9, 42, 84
4, 154208, Note_on_c, 9, 42, 0
4, 154208, Note_on_c, 9, 35, 0
4, 154304, Note_on_c, 9, 42, 68
4, 154336, Note_on_c, 9, 42, 0
4, 154368, Note_on_c, 9, 42, 84
4, 154400, Note_on_c, 9, 42, 0
4, 154496, Note_on_c, 9, 35, 84
4, 154496, Note_on_c, 9, 42, 68
4, 154528, Note_on_c, 9, 42, 0
4, 154528, Note_on_c, 9, 35, 0
4, 154560, Note_on_c, 9, 42, 84
4, 154592, Note_on_c, 9, 42, 0
4, 154688, Note_on_c, 9, 35, 84
4, 154688, Note_on_c, 9, 42, 68
4, 154720, Note_on_c, 9, 42, 0
4, 154720, Note_on_c, 9, 35, 0
4, 154752, Note_on_c, 9, 40, 100
4, 154752, Note_on_c, 9, 42, 84
4, 154784, Note_on_c, 9, 42, 0
4, 154880, Note_on_c, 9, 42, 68
4, 154912, Note_on_c, 9, 42, 0
4, 154944, Note_on_c, 9, 40, 0
4, 154944, Note_on_c, 9, 46, 84
4, 155040, Note_on_c, 9, 46, 0
4, 155136, Note_on_c, 9, 35, 84
4, 155136, Note_on_c, 9, 42, 84
4, 155168, Note_on_c, 9, 42, 0
4, 155168, Note_on_c, 9, 35, 0
4, 155264, Note_on_c, 9, 42, 68
4, 155264, Note_on_c, 9, 51, 100
4, 155296, Note_on_c, 9, 42, 0
4, 155328, Note_on_c, 9, 51, 0
4, 155328, Note_on_c, 9, 42, 84
4, 155360, Note_on_c, 9, 42, 0
4, 155456, Note_on_c, 9, 35, 84
4, 155456, Note_on_c, 9, 42, 68
4, 155488, Note_on_c, 9, 42, 0
4, 155488, Note_on_c, 9, 35, 0
4, 155520, Note_on_c, 9, 40, 100
4, 155520, Note_on_c, 9, 42, 84
4, 155552, Note_on_c, 9, 42, 0
4, 155648, Note_on_c, 9, 42, 68
4, 155680, Note_on_c, 9, 42, 0
4, 155712, Note_on_c, 9, 40, 0
4, 155712, Note_on_c, 9, 35, 84
4, 155712, Note_on_c, 9, 42, 84
4, 155744, Note_on_c, 9, 42, 0
4, 155744, Note_on_c, 9, 35, 0
4, 155840, Note_on_c, 9, 42, 68
4, 155872, Note_on_c, 9, 42, 0
4, 155904, Note_on_c, 9, 42, 84
4, 155936, Note_on_c, 9, 42, 0
4, 156032, Note_on_c, 9, 35, 84
4, 156032, Note_on_c, 9, 42, 68
4, 156032, Note_on_c, 9, 51, 100
4, 156064, Note_on_c, 9, 42, 0
4, 156064, Note_on_c, 9, 35, 0
4, 156096, Note_on_c, 9, 51, 0
4, 156096, Note_on_c, 9, 42, 84
4, 156128, Note_on_c, 9, 42, 0
4, 156224, Note_on_c, 9, 35, 84
4, 156224, Note_on_c, 9, 42, 68
4, 156256, Note_on_c, 9, 42, 0
4, 156256, Note_on_c, 9, 35, 0
4, 156288, Note_on_c, 9, 40, 100
4, 156288, Note_on_c, 9, 42, 84
4, 156320, Note_on_c, 9, 42, 0
4, 156416, Note_on_c, 9, 35, 84
4, 156416, Note_on_c, 9, 42, 68
4, 156448, Note_on_c, 9, 42, 0
4, 156448, Note_on_c, 9, 35, 0
4, 156480, Note_on_c, 9, 40, 0
4, 156480, Note_on_c, 9, 35, 100
4, 156480, Note_on_c, 9, 46, 84
4, 156512, Note_on_c, 9, 35, 0
4, 156544, Note_on_c, 9, 35, 84
4, 156576, Note_on_c, 9, 35, 0
4, 156576, Note_on_c, 9, 46, 0
4, 156608, Note_on_c, 9, 35, 84
4, 156640, Note_on_c, 9, 35, 0
4, 156672, Note_on_c, 9, 35, 84
4, 156672, Note_on_c, 9, 42, 84
4, 156704, Note_on_c, 9, 42, 0
4, 156704, Note_on_c, 9, 35, 0
4, 156800, Note_on_c, 9, 42, 68
4, 156800, Note_on_c, 9, 51, 100
4, 156832, Note_on_c, 9, 42, 0
4, 156864, Note_on_c, 9, 51, 0
4, 156864, Note_on_c, 9, 42, 84
4, 156896, Note_on_c, 9, 42, 0
4, 156992, Note_on_c, 9, 35, 84
4, 156992, Note_on_c, 9, 42, 68
4, 157024, Note_on_c, 9, 42, 0
4, 157024, Note_on_c, 9, 35, 0
4, 157056, Note_on_c, 9, 40, 100
4, 157056, Note_on_c, 9, 42, 84
4, 157088, Note_on_c, 9, 42, 0
4, 157184, Note_on_c, 9, 35, 84
4, 157184, Note_on_c, 9, 42, 68
4, 157216, Note_on_c, 9, 42, 0
4, 157216, Note_on_c, 9, 35, 0
4, 157248, Note_on_c, 9, 40, 0
4, 157248, Note_on_c, 9, 35, 100
4, 157248, Note_on_c, 9, 42, 84
4, 157280, Note_on_c, 9, 42, 0
4, 157280, Note_on_c, 9, 35, 0
4, 157312, Note_on_c, 9, 35, 84
4, 157344, Note_on_c, 9, 35, 0
4, 157376, Note_on_c, 9, 35, 84
4, 157376, Note_on_c, 9, 42, 68
4, 157408, Note_on_c, 9, 42, 0
4, 157408, Note_on_c, 9, 35, 0
4, 157440, Note_on_c, 9, 42, 84
4, 157472, Note_on_c, 9, 42, 0
4, 157568, Note_on_c, 9, 35, 84
4, 157568, Note_on_c, 9, 42, 68
4, 157600, Note_on_c, 9, 42, 0
4, 157600, Note_on_c, 9, 35, 0
4, 157632, Note_on_c, 9, 42, 84
4, 157664, Note_on_c, 9, 42, 0
4, 157760, Note_on_c, 9, 35, 84
4, 157760, Note_on_c, 9, 42, 68
4, 157792, Note_on_c, 9, 42, 0
4, 157792, Note_on_c, 9, 35, 0
4, 157824, Note_on_c, 9, 40, 100
4, 157824, Note_on_c, 9, 42, 84
4, 157856, Note_on_c, 9, 42, 0
4, 157952, Note_on_c, 9, 35, 84
4, 157952, Note_on_c, 9, 42, 68
4, 157984, Note_on_c, 9, 42, 0
4, 157984, Note_on_c, 9, 35, 0
4, 158016, Note_on_c, 9, 40, 0
4, 158016, Note_on_c, 9, 35, 100
4, 158016, Note_on_c, 9, 46, 84
4, 158048, Note_on_c, 9, 35, 0
4, 158080, Note_on_c, 9, 35, 84
4, 158112, Note_on_c, 9, 35, 0
4, 158112, Note_on_c, 9, 46, 0
4, 158144, Note_on_c, 9, 35, 84
4, 158176, Note_on_c, 9, 35, 0
4, 158208, Note_on_c, 9, 35, 84
4, 158208, Note_on_c, 9, 42, 84
4, 158240, Note_on_c, 9, 42, 0
4, 158240, Note_on_c, 9, 35, 0
4, 158336, Note_on_c, 9, 42, 68
4, 158336, Note_on_c, 9, 51, 100
4, 158368, Note_on_c, 9, 42, 0
4, 158400, Note_on_c, 9, 51, 0
4, 158400, Note_on_c, 9, 42, 84
4, 158432, Note_on_c, 9, 42, 0
4, 158528, Note_on_c, 9, 35, 84
4, 158528, Note_on_c, 9, 42, 68
4, 158560, Note_on_c, 9, 42, 0
4, 158560, Note_on_c, 9, 35, 0
4, 158592, Note_on_c, 9, 40, 100
4, 158592, Note_on_c, 9, 42, 84
4, 158624, Note_on_c, 9, 42, 0
4, 158720, Note_on_c, 9, 42, 68
4, 158752, Note_on_c, 9, 42, 0
4, 158784, Note_on_c, 9, 40, 0
4, 158784, Note_on_c, 9, 35, 84
4, 158784, Note_on_c, 9, 42, 84
4, 158816, Note_on_c, 9, 42, 0
4, 158816, Note_on_c, 9, 35, 0
4, 158912, Note_on_c, 9, 42, 68
4, 158944, Note_on_c, 9, 42, 0
4, 158976, Note_on_c, 9, 42, 84
4, 159008, Note_on_c, 9, 42, 0
4, 159104, Note_on_c, 9, 35, 84
4, 159104, Note_on_c, 9, 42, 68
4, 159104, Note_on_c, 9, 51, 100
4, 159136, Note_on_c, 9, 42, 0
4, 159136, Note_on_c, 9, 35, 0
4, 159168, Note_on_c, 9, 51, 0
4, 159168, Note_on_c, 9, 42, 84
4, 159200, Note_on_c, 9, 42, 0
4, 159296, Note_on_c, 9, 35, 84
4, 159296, Note_on_c, 9, 42, 68
4, 159328, Note_on_c, 9, 42, 0
4, 159328, Note_on_c, 9, 35, 0
4, 159360, Note_on_c, 9, 40, 100
4, 159360, Note_on_c, 9, 42, 84
4, 159392, Note_on_c, 9, 42, 0
4, 159488, Note_on_c, 9, 42, 68
4, 159520, Note_on_c, 9, 42, 0
4, 159552, Note_on_c, 9, 40, 0
4, 159552, Note_on_c, 9, 46, 84
4, 159648, Note_on_c, 9, 46, 0
4, 159744, Note_on_c, 9, 35, 84
4, 159744, Note_on_c, 9, 42, 84
4, 159776, Note_on_c, 9, 42, 0
4, 159776, Note_on_c, 9, 35, 0
4, 159872, Note_on_c, 9, 42, 68
4, 159872, Note_on_c, 9, 51, 100
4, 159904, Note_on_c, 9, 42, 0
4, 159936, Note_on_c, 9, 51, 0
4, 159936, Note_on_c, 9, 42, 84
4, 159968, Note_on_c, 9, 42, 0
4, 160064, Note_on_c, 9, 35, 84
4, 160064, Note_on_c, 9, 42, 68
4, 160096, Note_on_c, 9, 42, 0
4, 160096, Note_on_c, 9, 35, 0
4, 160128, Note_on_c, 9, 40, 100
4, 160128, Note_on_c, 9, 42, 84
4, 160160, Note_on_c, 9, 42, 0
4, 160256, Note_on_c, 9, 42, 68
4, 160288, Note_on_c, 9, 42, 0
4, 160320, Note_on_c, 9, 40, 0
4, 160320, Note_on_c, 9, 35, 84
4, 160320, Note_on_c, 9, 42, 84
4, 160352, Note_on_c, 9, 42, 0
4, 160352, Note_on_c, 9, 35, 0
4, 160448, Note_on_c, 9, 42, 68
4, 160480, Note_on_c, 9, 42, 0
4, 160512, Note_on_c, 9, 42, 84
4, 160544, Note_on_c, 9, 42, 0
4, 160640, Note_on_c, 9, 35, 84
4, 160640, Note_on_c, 9, 42, 68
4, 160672, Note_on_c, 9, 42, 0
4, 160672, Note_on_c, 9, 35, 0
4, 160704, Note_on_c, 9, 42, 84
4, 160736, Note_on_c, 9, 42, 0
4, 160832, Note_on_c, 9, 35, 84
4, 160832, Note_on_c, 9, 42, 68
4, 160864, Note_on_c, 9, 42, 0
4, 160864, Note_on_c, 9, 35, 0
4, 160896, Note_on_c, 9, 40, 100
4, 160896, Note_on_c, 9, 42, 84
4, 160928, Note_on_c, 9, 42, 0
4, 161024, Note_on_c, 9, 42, 68
4, 161056, Note_on_c, 9, 42, 0
4, 161088, Note_on_c, 9, 40, 0
4, 161088, Note_on_c, 9, 46, 84
4, 161184, Note_on_c, 9, 46, 0
4, 161280, Note_on_c, 9, 35, 84
4, 161280, Note_on_c, 9, 42, 84
4, 161312, Note_on_c, 9, 42, 0
4, 161312, Note_on_c, 9, 35, 0
4, 161408, Note_on_c, 9, 42, 68
4, 161408, Note_on_c, 9, 51, 100
4, 161440, Note_on_c, 9, 42, 0
4, 161472, Note_on_c, 9, 51, 0
4, 161472, Note_on_c, 9, 42, 84
4, 161504, Note_on_c, 9, 42, 0
4, 161600, Note_on_c, 9, 35, 84
4, 161600, Note_on_c, 9, 42, 68
4, 161632, Note_on_c, 9, 42, 0
4, 161632, Note_on_c, 9, 35, 0
4, 161664, Note_on_c, 9, 40, 100
4, 161664, Note_on_c, 9, 42, 84
4, 161696, Note_on_c, 9, 42, 0
4, 161792, Note_on_c, 9, 42, 68
4, 161824, Note_on_c, 9, 42, 0
4, 161856, Note_on_c, 9, 40, 0
4, 161856, Note_on_c, 9, 35, 84
4, 161856, Note_on_c, 9, 42, 84
4, 161888, Note_on_c, 9, 42, 0
4, 161888, Note_on_c, 9, 35, 0
4, 161984, Note_on_c, 9, 42, 68
4, 162016, Note_on_c, 9, 42, 0
4, 162048, Note_on_c, 9, 42, 84
4, 162080, Note_on_c, 9, 42, 0
4, 162176, Note_on_c, 9, 35, 84
4, 162176, Note_on_c, 9, 42, 68
4, 162176, Note_on_c, 9, 51, 100
4, 162208, Note_on_c, 9, 42, 0
4, 162208, Note_on_c, 9, 35, 0
4, 162240, Note_on_c, 9, 51, 0
4, 162240, Note_on_c, 9, 42, 84
4, 162272, Note_on_c, 9, 42, 0
4, 162368, Note_on_c, 9, 35, 84
4, 162368, Note_on_c, 9, 42, 68
4, 162400, Note_on_c, 9, 42, 0
4, 162400, Note_on_c, 9, 35, 0
4, 162432, Note_on_c, 9, 40, 100
4, 162432, Note_on_c, 9, 42, 84
4, 162464, Note_on_c, 9, 42, 0
4, 162560, Note_on_c, 9, 42, 68
4, 162592, Note_on_c, 9, 42, 0
4, 162624, Note_on_c, 9, 40, 0
4, 162624, Note_on_c, 9, 46, 84
4, 162720, Note_on_c, 9, 46, 0
4, 162816, Note_on_c, 9, 35, 84
4, 162816, Note_on_c, 9, 40, 84
4, 162880, Note_on_c, 9, 40, 0
4, 162880, Note_on_c, 9, 35, 0
4, 162944, Note_on_c, 9, 35, 84
4, 162944, Note_on_c, 9, 40, 84
4, 163008, Note_on_c, 9, 40, 0
4, 163008, Note_on_c, 9, 35, 0
4, 163008, End_track
5, 0, Start_track
5, 0, MIDI_port, 0
5, 0, Program_c, 1, 33
5, 0, Control_c, 1, 7, 83
5, 0, Control_c, 1, 10, 64
5, 0, Control_c, 1, 121, 0
5, 0, Control_c, 1, 91, 65
5, 0, Control_c, 1, 93, 85
5, 0, Note_on_c, 1, 35, 85
5, 116, Note_on_c, 1, 35, 0
5, 320, Note_on_c, 1, 35, 89
5, 372, Note_on_c, 1, 35, 0
5, 384, Note_on_c, 1, 33, 96
5, 500, Note_on_c, 1, 33, 0
5, 576, Note_on_c, 1, 35, 89
5, 692, Note_on_c, 1, 35, 0
5, 704, Note_on_c, 1, 35, 95
5, 756, Note_on_c, 1, 35, 0
5, 896, Note_on_c, 1, 35, 89
5, 948, Note_on_c, 1, 35, 0
5, 960, Note_on_c, 1, 33, 92
5, 1076, Note_on_c, 1, 33, 0
5, 1088, Note_on_c, 1, 35, 92
5, 1140, Note_on_c, 1, 35, 0
5, 1152, Note_on_c, 1, 38, 94
5, 1332, Note_on_c, 1, 38, 0
5, 1344, Note_on_c, 1, 35, 97
5, 1524, Note_on_c, 1, 35, 0
5, 1536, Note_on_c, 1, 38, 92
5, 1652, Note_on_c, 1, 38, 0
5, 1856, Note_on_c, 1, 38, 85
5, 1908, Note_on_c, 1, 38, 0
5, 1920, Note_on_c, 1, 38, 89
5, 2036, Note_on_c, 1, 38, 0
5, 2112, Note_on_c, 1, 38, 91
5, 2228, Note_on_c, 1, 38, 0
5, 2240, Note_on_c, 1, 33, 95
5, 2292, Note_on_c, 1, 33, 0
5, 2432, Note_on_c, 1, 33, 94
5, 2484, Note_on_c, 1, 33, 0
5, 2496, Note_on_c, 1, 31, 99
5, 2612, Note_on_c, 1, 31, 0
5, 2624, Note_on_c, 1, 33, 98
5, 2676, Note_on_c, 1, 33, 0
5, 2688, Note_on_c, 1, 40, 92
5, 2868, Note_on_c, 1, 40, 0
5, 2880, Note_on_c, 1, 33, 98
5, 3060, Note_on_c, 1, 33, 0
5, 3072, Note_on_c, 1, 35, 85
5, 3188, Note_on_c, 1, 35, 0
5, 3392, Note_on_c, 1, 35, 89
5, 3444, Note_on_c, 1, 35, 0
5, 3456, Note_on_c, 1, 33, 96
5, 3572, Note_on_c, 1, 33, 0
5, 3648, Note_on_c, 1, 35, 89
5, 3764, Note_on_c, 1, 35, 0
5, 3776, Note_on_c, 1, 35, 95
5, 3828, Note_on_c, 1, 35, 0
5, 3968, Note_on_c, 1, 35, 89
5, 4020, Note_on_c, 1, 35, 0
5, 4032, Note_on_c, 1, 33, 92
5, 4148, Note_on_c, 1, 33, 0
5, 4160, Note_on_c, 1, 35, 92
5, 4212, Note_on_c, 1, 35, 0
5, 4224, Note_on_c, 1, 38, 94
5, 4404, Note_on_c, 1, 38, 0
5, 4416, Note_on_c, 1, 35, 97
5, 4596, Note_on_c, 1, 35, 0
5, 4608, Note_on_c, 1, 38, 92
5, 4724, Note_on_c, 1, 38, 0
5, 4928, Note_on_c, 1, 38, 85
5, 4980, Note_on_c, 1, 38, 0
5, 4992, Note_on_c, 1, 38, 89
5, 5108, Note_on_c, 1, 38, 0
5, 5184, Note_on_c, 1, 38, 91
5, 5300, Note_on_c, 1, 38, 0
5, 5312, Note_on_c, 1, 33, 95
5, 5364, Note_on_c, 1, 33, 0
5, 5504, Note_on_c, 1, 33, 94
5, 5556, Note_on_c, 1, 33, 0
5, 5568, Note_on_c, 1, 31, 99
5, 5684, Note_on_c, 1, 31, 0
5, 5696, Note_on_c, 1, 33, 98
5, 5748, Note_on_c, 1, 33, 0
5, 5760, Note_on_c, 1, 40, 92
5, 5940, Note_on_c, 1, 40, 0
5, 5952, Note_on_c, 1, 33, 98
5, 6132, Note_on_c, 1, 33, 0
5, 6144, Note_on_c, 1, 35, 83
5, 6260, Note_on_c, 1, 35, 0
5, 6464, Note_on_c, 1, 35, 87
5, 6516, Note_on_c, 1, 35, 0
5, 6528, Note_on_c, 1, 35, 91
5, 6644, Note_on_c, 1, 35, 0
5, 6720, Note_on_c, 1, 35, 91
5, 6836, Note_on_c, 1, 35, 0
5, 6848, Note_on_c, 1, 35, 93
5, 6900, Note_on_c, 1, 35, 0
5, 7040, Note_on_c, 1, 35, 83
5, 7156, Note_on_c, 1, 35, 0
5, 7232, Note_on_c, 1, 35, 83
5, 7284, Note_on_c, 1, 35, 0
5, 7296, Note_on_c, 1, 47, 91
5, 7476, Note_on_c, 1, 47, 0
5, 7488, Note_on_c, 1, 42, 84
5, 7668, Note_on_c, 1, 42, 0
5, 7680, Note_on_c, 1, 35, 83
5, 7796, Note_on_c, 1, 35, 0
5, 8000, Note_on_c, 1, 35, 87
5, 8052, Note_on_c, 1, 35, 0
5, 8064, Note_on_c, 1, 35, 91
5, 8180, Note_on_c, 1, 35, 0
5, 8256, Note_on_c, 1, 35, 91
5, 8372, Note_on_c, 1, 35, 0
5, 8384, Note_on_c, 1, 35, 93
5, 8436, Note_on_c, 1, 35, 0
5, 8576, Note_on_c, 1, 35, 83
5, 8692, Note_on_c, 1, 35, 0
5, 8768, Note_on_c, 1, 35, 83
5, 8820, Note_on_c, 1, 35, 0
5, 8832, Note_on_c, 1, 47, 91
5, 9012, Note_on_c, 1, 47, 0
5, 9024, Note_on_c, 1, 42, 84
5, 9204, Note_on_c, 1, 42, 0
5, 9216, Note_on_c, 1, 35, 83
5, 9332, Note_on_c, 1, 35, 0
5, 9536, Note_on_c, 1, 35, 87
5, 9588, Note_on_c, 1, 35, 0
5, 9600, Note_on_c, 1, 35, 91
5, 9716, Note_on_c, 1, 35, 0
5, 9792, Note_on_c, 1, 35, 91
5, 9908, Note_on_c, 1, 35, 0
5, 9920, Note_on_c, 1, 35, 93
5, 9972, Note_on_c, 1, 35, 0
5, 10112, Note_on_c, 1, 35, 83
5, 10228, Note_on_c, 1, 35, 0
5, 10304, Note_on_c, 1, 35, 83
5, 10356, Note_on_c, 1, 35, 0
5, 10368, Note_on_c, 1, 47, 91
5, 10548, Note_on_c, 1, 47, 0
5, 10560, Note_on_c, 1, 42, 84
5, 10740, Note_on_c, 1, 42, 0
5, 10752, Note_on_c, 1, 35, 94
5, 10868, Note_on_c, 1, 35, 0
5, 11072, Note_on_c, 1, 35, 86
5, 11124, Note_on_c, 1, 35, 0
5, 11136, Note_on_c, 1, 35, 88
5, 11252, Note_on_c, 1, 35, 0
5, 11264, Note_on_c, 1, 35, 88
5, 11316, Note_on_c, 1, 35, 0
5, 11328, Note_on_c, 1, 37, 83
5, 11444, Note_on_c, 1, 37, 0
5, 11456, Note_on_c, 1, 38, 88
5, 11508, Note_on_c, 1, 38, 0
5, 11648, Note_on_c, 1, 40, 98
5, 11764, Note_on_c, 1, 40, 0
5, 11840, Note_on_c, 1, 40, 98
5, 11892, Note_on_c, 1, 40, 0
5, 11904, Note_on_c, 1, 42, 93
5, 12212, Note_on_c, 1, 42, 0
5, 12288, Note_on_c, 1, 35, 83
5, 12404, Note_on_c, 1, 35, 0
5, 12608, Note_on_c, 1, 35, 87
5, 12660, Note_on_c, 1, 35, 0
5, 12672, Note_on_c, 1, 35, 91
5, 12788, Note_on_c, 1, 35, 0
5, 12864, Note_on_c, 1, 35, 91
5, 12980, Note_on_c, 1, 35, 0
5, 12992, Note_on_c, 1, 35, 93
5, 13044, Note_on_c, 1, 35, 0
5, 13184, Note_on_c, 1, 35, 83
5, 13300, Note_on_c, 1, 35, 0
5, 13376, Note_on_c, 1, 35, 83
5, 13428, Note_on_c, 1, 35, 0
5, 13440, Note_on_c, 1, 47, 91
5, 13620, Note_on_c, 1, 47, 0
5, 13632, Note_on_c, 1, 42, 84
5, 13812, Note_on_c, 1, 42, 0
5, 13824, Note_on_c, 1, 35, 83
5, 13940, Note_on_c, 1, 35, 0
5, 14144, Note_on_c, 1, 35, 87
5, 14196, Note_on_c, 1, 35, 0
5, 14208, Note_on_c, 1, 35, 91
5, 14324, Note_on_c, 1, 35, 0
5, 14400, Note_on_c, 1, 35, 91
5, 14516, Note_on_c, 1, 35, 0
5, 14528, Note_on_c, 1, 35, 93
5, 14580, Note_on_c, 1, 35, 0
5, 14720, Note_on_c, 1, 35, 83
5, 14836, Note_on_c, 1, 35, 0
5, 14912, Note_on_c, 1, 35, 83
5, 14964, Note_on_c, 1, 35, 0
5, 14976, Note_on_c, 1, 47, 91
5, 15156, Note_on_c, 1, 47, 0
5, 15168, Note_on_c, 1, 42, 84
5, 15348, Note_on_c, 1, 42, 0
5, 15360, Note_on_c, 1, 35, 83
5, 15476, Note_on_c, 1, 35, 0
5, 15680, Note_on_c, 1, 35, 87
5, 15732, Note_on_c, 1, 35, 0
5, 15744, Note_on_c, 1, 35, 91
5, 15860, Note_on_c, 1, 35, 0
5, 15936, Note_on_c, 1, 35, 91
5, 16052, Note_on_c, 1, 35, 0
5, 16064, Note_on_c, 1, 35, 93
5, 16116, Note_on_c, 1, 35, 0
5, 16256, Note_on_c, 1, 35, 83
5, 16372, Note_on_c, 1, 35, 0
5, 16448, Note_on_c, 1, 35, 83
5, 16500, Note_on_c, 1, 35, 0
5, 16512, Note_on_c, 1, 47, 91
5, 16692, Note_on_c, 1, 47, 0
5, 16704, Note_on_c, 1, 42, 84
5, 16884, Note_on_c, 1, 42, 0
5, 16896, Note_on_c, 1, 35, 94
5, 17012, Note_on_c, 1, 35, 0
5, 17216, Note_on_c, 1, 35, 86
5, 17268, Note_on_c, 1, 35, 0
5, 17280, Note_on_c, 1, 35, 88
5, 17396, Note_on_c, 1, 35, 0
5, 17408, Note_on_c, 1, 35, 88
5, 17460, Note_on_c, 1, 35, 0
5, 17472, Note_on_c, 1, 37, 83
5, 17588, Note_on_c, 1, 37, 0
5, 17600, Note_on_c, 1, 38, 88
5, 17652, Note_on_c, 1, 38, 0
5, 17792, Note_on_c, 1, 40, 98
5, 17908, Note_on_c, 1, 40, 0
5, 17984, Note_on_c, 1, 40, 98
5, 18036, Note_on_c, 1, 40, 0
5, 18048, Note_on_c, 1, 42, 93
5, 18356, Note_on_c, 1, 42, 0
5, 18432, Note_on_c, 1, 35, 88
5, 18548, Note_on_c, 1, 35, 0
5, 18752, Note_on_c, 1, 35, 90
5, 18804, Note_on_c, 1, 35, 0
5, 18816, Note_on_c, 1, 35, 96
5, 18932, Note_on_c, 1, 35, 0
5, 19136, Note_on_c, 1, 35, 92
5, 19188, Note_on_c, 1, 35, 0
5, 19328, Note_on_c, 1, 35, 87
5, 19380, Note_on_c, 1, 35, 0
5, 19392, Note_on_c, 1, 42, 71
5, 19508, Note_on_c, 1, 42, 0
5, 19584, Note_on_c, 1, 47, 84
5, 19764, Note_on_c, 1, 47, 0
5, 19776, Note_on_c, 1, 42, 86
5, 19956, Note_on_c, 1, 42, 0
5, 19968, Note_on_c, 1, 35, 88
5, 20084, Note_on_c, 1, 35, 0
5, 20288, Note_on_c, 1, 35, 90
5, 20340, Note_on_c, 1, 35, 0
5, 20352, Note_on_c, 1, 35, 96
5, 20468, Note_on_c, 1, 35, 0
5, 20672, Note_on_c, 1, 35, 92
5, 20724, Note_on_c, 1, 35, 0
5, 20864, Note_on_c, 1, 35, 87
5, 20916, Note_on_c, 1, 35, 0
5, 20928, Note_on_c, 1, 42, 71
5, 21044, Note_on_c, 1, 42, 0
5, 21120, Note_on_c, 1, 47, 84
5, 21300, Note_on_c, 1, 47, 0
5, 21312, Note_on_c, 1, 42, 86
5, 21492, Note_on_c, 1, 42, 0
5, 21504, Note_on_c, 1, 35, 88
5, 21620, Note_on_c, 1, 35, 0
5, 21824, Note_on_c, 1, 35, 90
5, 21876, Note_on_c, 1, 35, 0
5, 21888, Note_on_c, 1, 35, 96
5, 22004, Note_on_c, 1, 35, 0
5, 22208, Note_on_c, 1, 35, 92
5, 22260, Note_on_c, 1, 35, 0
5, 22400, Note_on_c, 1, 35, 87
5, 22452, Note_on_c, 1, 35, 0
5, 22464, Note_on_c, 1, 42, 71
5, 22580, Note_on_c, 1, 42, 0
5, 22656, Note_on_c, 1, 47, 84
5, 22836, Note_on_c, 1, 47, 0
5, 22848, Note_on_c, 1, 42, 86
5, 23028, Note_on_c, 1, 42, 0
5, 23040, Note_on_c, 1, 35, 92
5, 23156, Note_on_c, 1, 35, 0
5, 23360, Note_on_c, 1, 35, 84
5, 23412, Note_on_c, 1, 35, 0
5, 23424, Note_on_c, 1, 35, 91
5, 23540, Note_on_c, 1, 35, 0
5, 23744, Note_on_c, 1, 38, 96
5, 23796, Note_on_c, 1, 38, 0
5, 23936, Note_on_c, 1, 38, 91
5, 23988, Note_on_c, 1, 38, 0
5, 24000, Note_on_c, 1, 40, 98
5, 24116, Note_on_c, 1, 40, 0
5, 24384, Note_on_c, 1, 42, 88
5, 24564, Note_on_c, 1, 42, 0
5, 24576, Note_on_c, 1, 35, 83
5, 24692, Note_on_c, 1, 35, 0
5, 24896, Note_on_c, 1, 35, 87
5, 24948, Note_on_c, 1, 35, 0
5, 24960, Note_on_c, 1, 35, 91
5, 25076, Note_on_c, 1, 35, 0
5, 25152, Note_on_c, 1, 35, 91
5, 25268, Note_on_c, 1, 35, 0
5, 25280, Note_on_c, 1, 35, 93
5, 25332, Note_on_c, 1, 35, 0
5, 25472, Note_on_c, 1, 35, 83
5, 25588, Note_on_c, 1, 35, 0
5, 25664, Note_on_c, 1, 35, 83
5, 25716, Note_on_c, 1, 35, 0
5, 25728, Note_on_c, 1, 47, 91
5, 25908, Note_on_c, 1, 47, 0
5, 25920, Note_on_c, 1, 42, 84
5, 26100, Note_on_c, 1, 42, 0
5, 26112, Note_on_c, 1, 35, 83
5, 26228, Note_on_c, 1, 35, 0
5, 26432, Note_on_c, 1, 35, 87
5, 26484, Note_on_c, 1, 35, 0
5, 26496, Note_on_c, 1, 35, 91
5, 26612, Note_on_c, 1, 35, 0
5, 26688, Note_on_c, 1, 35, 91
5, 26804, Note_on_c, 1, 35, 0
5, 26816, Note_on_c, 1, 35, 93
5, 26868, Note_on_c, 1, 35, 0
5, 27008, Note_on_c, 1, 35, 83
5, 27124, Note_on_c, 1, 35, 0
5, 27200, Note_on_c, 1, 35, 83
5, 27252, Note_on_c, 1, 35, 0
5, 27264, Note_on_c, 1, 47, 91
5, 27444, Note_on_c, 1, 47, 0
5, 27456, Note_on_c, 1, 42, 84
5, 27636, Note_on_c, 1, 42, 0
5, 27648, Note_on_c, 1, 35, 83
5, 27764, Note_on_c, 1, 35, 0
5, 27968, Note_on_c, 1, 35, 87
5, 28020, Note_on_c, 1, 35, 0
5, 28032, Note_on_c, 1, 35, 91
5, 28148, Note_on_c, 1, 35, 0
5, 28224, Note_on_c, 1, 35, 91
5, 28340, Note_on_c, 1, 35, 0
5, 28352, Note_on_c, 1, 35, 93
5, 28404, Note_on_c, 1, 35, 0
5, 28544, Note_on_c, 1, 35, 83
5, 28660, Note_on_c, 1, 35, 0
5, 28736, Note_on_c, 1, 35, 83
5, 28788, Note_on_c, 1, 35, 0
5, 28800, Note_on_c, 1, 47, 91
5, 28980, Note_on_c, 1, 47, 0
5, 28992, Note_on_c, 1, 42, 84
5, 29172, Note_on_c, 1, 42, 0
5, 29184, Note_on_c, 1, 35, 94
5, 29300, Note_on_c, 1, 35, 0
5, 29504, Note_on_c, 1, 35, 86
5, 29556, Note_on_c, 1, 35, 0
5, 29568, Note_on_c, 1, 35, 88
5, 29684, Note_on_c, 1, 35, 0
5, 29696, Note_on_c, 1, 35, 88
5, 29748, Note_on_c, 1, 35, 0
5, 29760, Note_on_c, 1, 37, 83
5, 29876, Note_on_c, 1, 37, 0
5, 29888, Note_on_c, 1, 38, 88
5, 29940, Note_on_c, 1, 38, 0
5, 30080, Note_on_c, 1, 40, 98
5, 30196, Note_on_c, 1, 40, 0
5, 30272, Note_on_c, 1, 40, 98
5, 30324, Note_on_c, 1, 40, 0
5, 30336, Note_on_c, 1, 42, 93
5, 30644, Note_on_c, 1, 42, 0
5, 30720, Note_on_c, 1, 35, 83
5, 30836, Note_on_c, 1, 35, 0
5, 31040, Note_on_c, 1, 35, 87
5, 31092, Note_on_c, 1, 35, 0
5, 31104, Note_on_c, 1, 35, 91
5, 31220, Note_on_c, 1, 35, 0
5, 31296, Note_on_c, 1, 35, 91
5, 31412, Note_on_c, 1, 35, 0
5, 31424, Note_on_c, 1, 35, 93
5, 31476, Note_on_c, 1, 35, 0
5, 31616, Note_on_c, 1, 35, 83
5, 31732, Note_on_c, 1, 35, 0
5, 31808, Note_on_c, 1, 35, 83
5, 31860, Note_on_c, 1, 35, 0
5, 31872, Note_on_c, 1, 47, 91
5, 32052, Note_on_c, 1, 47, 0
5, 32064, Note_on_c, 1, 42, 84
5, 32244, Note_on_c, 1, 42, 0
5, 32256, Note_on_c, 1, 35, 83
5, 32372, Note_on_c, 1, 35, 0
5, 32576, Note_on_c, 1, 35, 87
5, 32628, Note_on_c, 1, 35, 0
5, 32640, Note_on_c, 1, 35, 91
5, 32756, Note_on_c, 1, 35, 0
5, 32832, Note_on_c, 1, 35, 91
5, 32948, Note_on_c, 1, 35, 0
5, 32960, Note_on_c, 1, 35, 93
5, 33012, Note_on_c, 1, 35, 0
5, 33152, Note_on_c, 1, 35, 83
5, 33268, Note_on_c, 1, 35, 0
5, 33344, Note_on_c, 1, 35, 83
5, 33396, Note_on_c, 1, 35, 0
5, 33408, Note_on_c, 1, 47, 91
5, 33588, Note_on_c, 1, 47, 0
5, 33600, Note_on_c, 1, 42, 84
5, 33780, Note_on_c, 1, 42, 0
5, 33792, Note_on_c, 1, 35, 83
5, 33908, Note_on_c, 1, 35, 0
5, 34112, Note_on_c, 1, 35, 87
5, 34164, Note_on_c, 1, 35, 0
5, 34176, Note_on_c, 1, 35, 91
5, 34292, Note_on_c, 1, 35, 0
5, 34368, Note_on_c, 1, 35, 91
5, 34484, Note_on_c, 1, 35, 0
5, 34496, Note_on_c, 1, 35, 93
5, 34548, Note_on_c, 1, 35, 0
5, 34688, Note_on_c, 1, 35, 83
5, 34804, Note_on_c, 1, 35, 0
5, 34880, Note_on_c, 1, 35, 83
5, 34932, Note_on_c, 1, 35, 0
5, 34944, Note_on_c, 1, 47, 91
5, 35124, Note_on_c, 1, 47, 0
5, 35136, Note_on_c, 1, 42, 84
5, 35316, Note_on_c, 1, 42, 0
5, 35328, Note_on_c, 1, 35, 94
5, 35444, Note_on_c, 1, 35, 0
5, 35648, Note_on_c, 1, 35, 86
5, 35700, Note_on_c, 1, 35, 0
5, 35712, Note_on_c, 1, 35, 88
5, 35828, Note_on_c, 1, 35, 0
5, 35840, Note_on_c, 1, 35, 88
5, 35892, Note_on_c, 1, 35, 0
5, 35904, Note_on_c, 1, 37, 83
5, 36020, Note_on_c, 1, 37, 0
5, 36032, Note_on_c, 1, 38, 88
5, 36084, Note_on_c, 1, 38, 0
5, 36224, Note_on_c, 1, 40, 98
5, 36340, Note_on_c, 1, 40, 0
5, 36416, Note_on_c, 1, 40, 98
5, 36468, Note_on_c, 1, 40, 0
5, 36480, Note_on_c, 1, 42, 93
5, 36788, Note_on_c, 1, 42, 0
5, 36864, Note_on_c, 1, 35, 85
5, 36980, Note_on_c, 1, 35, 0
5, 37184, Note_on_c, 1, 35, 89
5, 37236, Note_on_c, 1, 35, 0
5, 37248, Note_on_c, 1, 33, 96
5, 37364, Note_on_c, 1, 33, 0
5, 37440, Note_on_c, 1, 35, 89
5, 37556, Note_on_c, 1, 35, 0
5, 37568, Note_on_c, 1, 35, 95
5, 37620, Note_on_c, 1, 35, 0
5, 37760, Note_on_c, 1, 35, 89
5, 37812, Note_on_c, 1, 35, 0
5, 37824, Note_on_c, 1, 33, 92
5, 37940, Note_on_c, 1, 33, 0
5, 37952, Note_on_c, 1, 35, 92
5, 38004, Note_on_c, 1, 35, 0
5, 38016, Note_on_c, 1, 38, 94
5, 38196, Note_on_c, 1, 38, 0
5, 38208, Note_on_c, 1, 35, 97
5, 38388, Note_on_c, 1, 35, 0
5, 38400, Note_on_c, 1, 38, 92
5, 38516, Note_on_c, 1, 38, 0
5, 38720, Note_on_c, 1, 38, 85
5, 38772, Note_on_c, 1, 38, 0
5, 38784, Note_on_c, 1, 38, 89
5, 38900, Note_on_c, 1, 38, 0
5, 38976, Note_on_c, 1, 38, 91
5, 39092, Note_on_c, 1, 38, 0
5, 39104, Note_on_c, 1, 33, 95
5, 39156, Note_on_c, 1, 33, 0
5, 39296, Note_on_c, 1, 33, 94
5, 39348, Note_on_c, 1, 33, 0
5, 39360, Note_on_c, 1, 31, 99
5, 39476, Note_on_c, 1, 31, 0
5, 39488, Note_on_c, 1, 33, 98
5, 39540, Note_on_c, 1, 33, 0
5, 39552, Note_on_c, 1, 40, 92
5, 39732, Note_on_c, 1, 40, 0
5, 39744, Note_on_c, 1, 33, 98
5, 39924, Note_on_c, 1, 33, 0
5, 39936, Note_on_c, 1, 35, 85
5, 40052, Note_on_c, 1, 35, 0
5, 40256, Note_on_c, 1, 35, 89
5, 40308, Note_on_c, 1, 35, 0
5, 40320, Note_on_c, 1, 33, 96
5, 40436, Note_on_c, 1, 33, 0
5, 40512, Note_on_c, 1, 35, 89
5, 40628, Note_on_c, 1, 35, 0
5, 40640, Note_on_c, 1, 35, 95
5, 40692, Note_on_c, 1, 35, 0
5, 40832, Note_on_c, 1, 35, 89
5, 40884, Note_on_c, 1, 35, 0
5, 40896, Note_on_c, 1, 33, 92
5, 41012, Note_on_c, 1, 33, 0
5, 41024, Note_on_c, 1, 35, 92
5, 41076, Note_on_c, 1, 35, 0
5, 41088, Note_on_c, 1, 38, 94
5, 41268, Note_on_c, 1, 38, 0
5, 41280, Note_on_c, 1, 35, 97
5, 41460, Note_on_c, 1, 35, 0
5, 41472, Note_on_c, 1, 38, 92
5, 41588, Note_on_c, 1, 38, 0
5, 41792, Note_on_c, 1, 38, 85
5, 41844, Note_on_c, 1, 38, 0
5, 41856, Note_on_c, 1, 38, 89
5, 41972, Note_on_c, 1, 38, 0
5, 42048, Note_on_c, 1, 38, 91
5, 42164, Note_on_c, 1, 38, 0
5, 42176, Note_on_c, 1, 33, 95
5, 42228, Note_on_c, 1, 33, 0
5, 42368, Note_on_c, 1, 33, 94
5, 42420, Note_on_c, 1, 33, 0
5, 42432, Note_on_c, 1, 31, 99
5, 42548, Note_on_c, 1, 31, 0
5, 42560, Note_on_c, 1, 33, 98
5, 42612, Note_on_c, 1, 33, 0
5, 42624, Note_on_c, 1, 40, 92
5, 42804, Note_on_c, 1, 40, 0
5, 42816, Note_on_c, 1, 33, 98
5, 42996, Note_on_c, 1, 33, 0
5, 43008, Note_on_c, 1, 35, 85
5, 43124, Note_on_c, 1, 35, 0
5, 43328, Note_on_c, 1, 35, 89
5, 43380, Note_on_c, 1, 35, 0
5, 43392, Note_on_c, 1, 33, 96
5, 43508, Note_on_c, 1, 33, 0
5, 43584, Note_on_c, 1, 35, 89
5, 43700, Note_on_c, 1, 35, 0
5, 43712, Note_on_c, 1, 35, 95
5, 43764, Note_on_c, 1, 35, 0
5, 43904, Note_on_c, 1, 35, 89
5, 43956, Note_on_c, 1, 35, 0
5, 43968, Note_on_c, 1, 33, 92
5, 44084, Note_on_c, 1, 33, 0
5, 44096, Note_on_c, 1, 35, 92
5, 44148, Note_on_c, 1, 35, 0
5, 44160, Note_on_c, 1, 38, 94
5, 44340, Note_on_c, 1, 38, 0
5, 44352, Note_on_c, 1, 35, 97
5, 44532, Note_on_c, 1, 35, 0
5, 44544, Note_on_c, 1, 38, 92
5, 44660, Note_on_c, 1, 38, 0
5, 44864, Note_on_c, 1, 38, 85
5, 44916, Note_on_c, 1, 38, 0
5, 44928, Note_on_c, 1, 38, 89
5, 45044, Note_on_c, 1, 38, 0
5, 45120, Note_on_c, 1, 38, 91
5, 45236, Note_on_c, 1, 38, 0
5, 45248, Note_on_c, 1, 33, 95
5, 45300, Note_on_c, 1, 33, 0
5, 45440, Note_on_c, 1, 33, 94
5, 45492, Note_on_c, 1, 33, 0
5, 45504, Note_on_c, 1, 31, 99
5, 45620, Note_on_c, 1, 31, 0
5, 45632, Note_on_c, 1, 33, 98
5, 45684, Note_on_c, 1, 33, 0
5, 45696, Note_on_c, 1, 40, 92
5, 45876, Note_on_c, 1, 40, 0
5, 45888, Note_on_c, 1, 33, 98
5, 46068, Note_on_c, 1, 33, 0
5, 46080, Note_on_c, 1, 35, 88
5, 46196, Note_on_c, 1, 35, 0
5, 46400, Note_on_c, 1, 35, 90
5, 46452, Note_on_c, 1, 35, 0
5, 46464, Note_on_c, 1, 35, 96
5, 46580, Note_on_c, 1, 35, 0
5, 46784, Note_on_c, 1, 35, 92
5, 46836, Note_on_c, 1, 35, 0
5, 46976, Note_on_c, 1, 35, 87
5, 47028, Note_on_c, 1, 35, 0
5, 47040, Note_on_c, 1, 42, 71
5, 47156, Note_on_c, 1, 42, 0
5, 47232, Note_on_c, 1, 47, 84
5, 47412, Note_on_c, 1, 47, 0
5, 47424, Note_on_c, 1, 42, 86
5, 47604, Note_on_c, 1, 42, 0
5, 47616, Note_on_c, 1, 35, 88
5, 47732, Note_on_c, 1, 35, 0
5, 47936, Note_on_c, 1, 35, 90
5, 47988, Note_on_c, 1, 35, 0
5, 48000, Note_on_c, 1, 35, 96
5, 48116, Note_on_c, 1, 35, 0
5, 48320, Note_on_c, 1, 35, 92
5, 48372, Note_on_c, 1, 35, 0
5, 48512, Note_on_c, 1, 35, 87
5, 48564, Note_on_c, 1, 35, 0
5, 48576, Note_on_c, 1, 42, 71
5, 48692, Note_on_c, 1, 42, 0
5, 48768, Note_on_c, 1, 47, 84
5, 48948, Note_on_c, 1, 47, 0
5, 48960, Note_on_c, 1, 42, 86
5, 49140, Note_on_c, 1, 42, 0
5, 49152, Note_on_c, 1, 35, 88
5, 49268, Note_on_c, 1, 35, 0
5, 49472, Note_on_c, 1, 35, 90
5, 49524, Note_on_c, 1, 35, 0
5, 49536, Note_on_c, 1, 35, 96
5, 49652, Note_on_c, 1, 35, 0
5, 49856, Note_on_c, 1, 35, 92
5, 49908, Note_on_c, 1, 35, 0
5, 50048, Note_on_c, 1, 35, 87
5, 50100, Note_on_c, 1, 35, 0
5, 50112, Note_on_c, 1, 42, 71
5, 50228, Note_on_c, 1, 42, 0
5, 50304, Note_on_c, 1, 47, 84
5, 50484, Note_on_c, 1, 47, 0
5, 50496, Note_on_c, 1, 42, 86
5, 50676, Note_on_c, 1, 42, 0
5, 50688, Note_on_c, 1, 35, 92
5, 50804, Note_on_c, 1, 35, 0
5, 51008, Note_on_c, 1, 35, 84
5, 51060, Note_on_c, 1, 35, 0
5, 51072, Note_on_c, 1, 35, 91
5, 51188, Note_on_c, 1, 35, 0
5, 51392, Note_on_c, 1, 38, 96
5, 51444, Note_on_c, 1, 38, 0
5, 51584, Note_on_c, 1, 38, 91
5, 51636, Note_on_c, 1, 38, 0
5, 51648, Note_on_c, 1, 40, 98
5, 51764, Note_on_c, 1, 40, 0
5, 52032, Note_on_c, 1, 42, 88
5, 52212, Note_on_c, 1, 42, 0
5, 52224, Note_on_c, 1, 35, 96
5, 52340, Note_on_c, 1, 35, 0
5, 52544, Note_on_c, 1, 35, 88
5, 52596, Note_on_c, 1, 35, 0
5, 52608, Note_on_c, 1, 35, 97
5, 52724, Note_on_c, 1, 35, 0
5, 52800, Note_on_c, 1, 35, 94
5, 52916, Note_on_c, 1, 35, 0
5, 52928, Note_on_c, 1, 35, 100
5, 52980, Note_on_c, 1, 35, 0
5, 53120, Note_on_c, 1, 35, 88
5, 53172, Note_on_c, 1, 35, 0
5, 53184, Note_on_c, 1, 35, 95
5, 53300, Note_on_c, 1, 35, 0
5, 53312, Note_on_c, 1, 35, 95
5, 53364, Note_on_c, 1, 35, 0
5, 53376, Note_on_c, 1, 38, 102
5, 53556, Note_on_c, 1, 38, 0
5, 53568, Note_on_c, 1, 40, 102
5, 53748, Note_on_c, 1, 40, 0
5, 53760, Note_on_c, 1, 42, 92
5, 53940, Note_on_c, 1, 42, 0
5, 54144, Note_on_c, 1, 42, 83
5, 54260, Note_on_c, 1, 42, 0
5, 54464, Note_on_c, 1, 40, 92
5, 54516, Note_on_c, 1, 40, 0
5, 54528, Note_on_c, 1, 40, 94
5, 54708, Note_on_c, 1, 40, 0
5, 54720, Note_on_c, 1, 38, 94
5, 54900, Note_on_c, 1, 38, 0
5, 54912, Note_on_c, 1, 40, 96
5, 55028, Note_on_c, 1, 40, 0
5, 55104, Note_on_c, 1, 40, 97
5, 55220, Note_on_c, 1, 40, 0
5, 55296, Note_on_c, 1, 35, 94
5, 55412, Note_on_c, 1, 35, 0
5, 55616, Note_on_c, 1, 35, 89
5, 55668, Note_on_c, 1, 35, 0
5, 55680, Note_on_c, 1, 35, 98
5, 55796, Note_on_c, 1, 35, 0
5, 55872, Note_on_c, 1, 35, 92
5, 55988, Note_on_c, 1, 35, 0
5, 56000, Note_on_c, 1, 35, 95
5, 56052, Note_on_c, 1, 35, 0
5, 56192, Note_on_c, 1, 35, 88
5, 56244, Note_on_c, 1, 35, 0
5, 56256, Note_on_c, 1, 35, 97
5, 56372, Note_on_c, 1, 35, 0
5, 56384, Note_on_c, 1, 35, 98
5, 56436, Note_on_c, 1, 35, 0
5, 56448, Note_on_c, 1, 38, 104
5, 56628, Note_on_c, 1, 38, 0
5, 56640, Note_on_c, 1, 35, 98
5, 56820, Note_on_c, 1, 35, 0
5, 56832, Note_on_c, 1, 44, 90
5, 56948, Note_on_c, 1, 44, 0
5, 57152, Note_on_c, 1, 44, 95
5, 57204, Note_on_c, 1, 44, 0
5, 57216, Note_on_c, 1, 44, 91
5, 57332, Note_on_c, 1, 44, 0
5, 57344, Note_on_c, 1, 44, 93
5, 57460, Note_on_c, 1, 44, 0
5, 57536, Note_on_c, 1, 45, 93
5, 57588, Note_on_c, 1, 45, 0
5, 57728, Note_on_c, 1, 45, 91
5, 57780, Note_on_c, 1, 45, 0
5, 57792, Note_on_c, 1, 44, 89
5, 57908, Note_on_c, 1, 44, 0
5, 57920, Note_on_c, 1, 45, 93
5, 57972, Note_on_c, 1, 45, 0
5, 57984, Note_on_c, 1, 45, 88
5, 58164, Note_on_c, 1, 45, 0
5, 58176, Note_on_c, 1, 45, 91
5, 58356, Note_on_c, 1, 45, 0
5, 58368, Note_on_c, 1, 35, 95
5, 58484, Note_on_c, 1, 35, 0
5, 58688, Note_on_c, 1, 35, 94
5, 58740, Note_on_c, 1, 35, 0
5, 58752, Note_on_c, 1, 35, 91
5, 58932, Note_on_c, 1, 35, 0
5, 58944, Note_on_c, 1, 35, 92
5, 59060, Note_on_c, 1, 35, 0
5, 59072, Note_on_c, 1, 35, 92
5, 59124, Note_on_c, 1, 35, 0
5, 59264, Note_on_c, 1, 35, 94
5, 59316, Note_on_c, 1, 35, 0
5, 59328, Note_on_c, 1, 35, 94
5, 59444, Note_on_c, 1, 35, 0
5, 59456, Note_on_c, 1, 35, 91
5, 59508, Note_on_c, 1, 35, 0
5, 59520, Note_on_c, 1, 42, 89
5, 59700, Note_on_c, 1, 42, 0
5, 59712, Note_on_c, 1, 35, 92
5, 59892, Note_on_c, 1, 35, 0
5, 59904, Note_on_c, 1, 42, 97
5, 60020, Note_on_c, 1, 42, 0
5, 60224, Note_on_c, 1, 42, 93
5, 60276, Note_on_c, 1, 42, 0
5, 60288, Note_on_c, 1, 42, 88
5, 60468, Note_on_c, 1, 42, 0
5, 60480, Note_on_c, 1, 40, 89
5, 60660, Note_on_c, 1, 40, 0
5, 60672, Note_on_c, 1, 40, 89
5, 60788, Note_on_c, 1, 40, 0
5, 60800, Note_on_c, 1, 38, 96
5, 60852, Note_on_c, 1, 38, 0
5, 60864, Note_on_c, 1, 40, 96
5, 60980, Note_on_c, 1, 40, 0
5, 61056, Note_on_c, 1, 42, 96
5, 61236, Note_on_c, 1, 42, 0
5, 61248, Note_on_c, 1, 47, 92
5, 61428, Note_on_c, 1, 47, 0
5, 61440, Note_on_c, 1, 35, 88
5, 61556, Note_on_c, 1, 35, 0
5, 61760, Note_on_c, 1, 35, 88
5, 61812, Note_on_c, 1, 35, 0
5, 61824, Note_on_c, 1, 35, 98
5, 61940, Note_on_c, 1, 35, 0
5, 62016, Note_on_c, 1, 35, 87
5, 62132, Note_on_c, 1, 35, 0
5, 62144, Note_on_c, 1, 35, 94
5, 62196, Note_on_c, 1, 35, 0
5, 62336, Note_on_c, 1, 35, 88
5, 62388, Note_on_c, 1, 35, 0
5, 62400, Note_on_c, 1, 33, 86
5, 62516, Note_on_c, 1, 33, 0
5, 62528, Note_on_c, 1, 35, 96
5, 62580, Note_on_c, 1, 35, 0
5, 62592, Note_on_c, 1, 40, 100
5, 62772, Note_on_c, 1, 40, 0
5, 62784, Note_on_c, 1, 42, 93
5, 62964, Note_on_c, 1, 42, 0
5, 62976, Note_on_c, 1, 45, 96
5, 63092, Note_on_c, 1, 45, 0
5, 63296, Note_on_c, 1, 45, 94
5, 63348, Note_on_c, 1, 45, 0
5, 63360, Note_on_c, 1, 45, 92
5, 63476, Note_on_c, 1, 45, 0
5, 63552, Note_on_c, 1, 45, 82
5, 63668, Note_on_c, 1, 45, 0
5, 63680, Note_on_c, 1, 45, 98
5, 63732, Note_on_c, 1, 45, 0
5, 63872, Note_on_c, 1, 45, 89
5, 63924, Note_on_c, 1, 45, 0
5, 63936, Note_on_c, 1, 44, 90
5, 64052, Note_on_c, 1, 44, 0
5, 64064, Note_on_c, 1, 45, 94
5, 64116, Note_on_c, 1, 45, 0
5, 64128, Note_on_c, 1, 45, 87
5, 64308, Note_on_c, 1, 45, 0
5, 64320, Note_on_c, 1, 45, 92
5, 64500, Note_on_c, 1, 45, 0
5, 64512, Note_on_c, 1, 43, 94
5, 64628, Note_on_c, 1, 43, 0
5, 64832, Note_on_c, 1, 43, 91
5, 64884, Note_on_c, 1, 43, 0
5, 64896, Note_on_c, 1, 43, 94
5, 65012, Note_on_c, 1, 43, 0
5, 65088, Note_on_c, 1, 43, 95
5, 65204, Note_on_c, 1, 43, 0
5, 65216, Note_on_c, 1, 43, 97
5, 65268, Note_on_c, 1, 43, 0
5, 65408, Note_on_c, 1, 43, 90
5, 65460, Note_on_c, 1, 43, 0
5, 65472, Note_on_c, 1, 42, 93
5, 65588, Note_on_c, 1, 42, 0
5, 65600, Note_on_c, 1, 43, 95
5, 65652, Note_on_c, 1, 43, 0
5, 65664, Note_on_c, 1, 47, 91
5, 65844, Note_on_c, 1, 47, 0
5, 65856, Note_on_c, 1, 45, 94
5, 66036, Note_on_c, 1, 45, 0
5, 66048, Note_on_c, 1, 42, 97
5, 66164, Note_on_c, 1, 42, 0
5, 66176, Note_on_c, 1, 42, 95
5, 66228, Note_on_c, 1, 42, 0
5, 66240, Note_on_c, 1, 37, 89
5, 66356, Note_on_c, 1, 37, 0
5, 66368, Note_on_c, 1, 40, 98
5, 66420, Note_on_c, 1, 40, 0
5, 66432, Note_on_c, 1, 42, 94
5, 66548, Note_on_c, 1, 42, 0
5, 66752, Note_on_c, 1, 45, 100
5, 66804, Note_on_c, 1, 45, 0
5, 66944, Note_on_c, 1, 45, 92
5, 66996, Note_on_c, 1, 45, 0
5, 67008, Note_on_c, 1, 37, 98
5, 67124, Note_on_c, 1, 37, 0
5, 67136, Note_on_c, 1, 38, 95
5, 67188, Note_on_c, 1, 38, 0
5, 67200, Note_on_c, 1, 40, 97
5, 67380, Note_on_c, 1, 40, 0
5, 67392, Note_on_c, 1, 42, 95
5, 67572, Note_on_c, 1, 42, 0
5, 67584, Note_on_c, 1, 35, 88
5, 67700, Note_on_c, 1, 35, 0
5, 67904, Note_on_c, 1, 35, 88
5, 67956, Note_on_c, 1, 35, 0
5, 67968, Note_on_c, 1, 35, 98
5, 68084, Note_on_c, 1, 35, 0
5, 68160, Note_on_c, 1, 35, 87
5, 68276, Note_on_c, 1, 35, 0
5, 68288, Note_on_c, 1, 35, 94
5, 68340, Note_on_c, 1, 35, 0
5, 68480, Note_on_c, 1, 35, 88
5, 68532, Note_on_c, 1, 35, 0
5, 68544, Note_on_c, 1, 33, 86
5, 68660, Note_on_c, 1, 33, 0
5, 68672, Note_on_c, 1, 35, 96
5, 68724, Note_on_c, 1, 35, 0
5, 68736, Note_on_c, 1, 40, 100
5, 68916, Note_on_c, 1, 40, 0
5, 68928, Note_on_c, 1, 42, 93
5, 69108, Note_on_c, 1, 42, 0
5, 69120, Note_on_c, 1, 45, 96
5, 69236, Note_on_c, 1, 45, 0
5, 69440, Note_on_c, 1, 45, 94
5, 69492, Note_on_c, 1, 45, 0
5, 69504, Note_on_c, 1, 45, 92
5, 69620, Note_on_c, 1, 45, 0
5, 69696, Note_on_c, 1, 45, 82
5, 69812, Note_on_c, 1, 45, 0
5, 69824, Note_on_c, 1, 45, 98
5, 69876, Note_on_c, 1, 45, 0
5, 70016, Note_on_c, 1, 45, 89
5, 70068, Note_on_c, 1, 45, 0
5, 70080, Note_on_c, 1, 44, 90
5, 70196, Note_on_c, 1, 44, 0
5, 70208, Note_on_c, 1, 45, 94
5, 70260, Note_on_c, 1, 45, 0
5, 70272, Note_on_c, 1, 45, 87
5, 70452, Note_on_c, 1, 45, 0
5, 70464, Note_on_c, 1, 45, 92
5, 70644, Note_on_c, 1, 45, 0
5, 70656, Note_on_c, 1, 43, 94
5, 70772, Note_on_c, 1, 43, 0
5, 70976, Note_on_c, 1, 43, 91
5, 71028, Note_on_c, 1, 43, 0
5, 71040, Note_on_c, 1, 43, 94
5, 71156, Note_on_c, 1, 43, 0
5, 71232, Note_on_c, 1, 43, 95
5, 71348, Note_on_c, 1, 43, 0
5, 71360, Note_on_c, 1, 43, 97
5, 71412, Note_on_c, 1, 43, 0
5, 71552, Note_on_c, 1, 43, 90
5, 71604, Note_on_c, 1, 43, 0
5, 71616, Note_on_c, 1, 42, 93
5, 71732, Note_on_c, 1, 42, 0
5, 71744, Note_on_c, 1, 43, 95
5, 71796, Note_on_c, 1, 43, 0
5, 71808, Note_on_c, 1, 47, 91
5, 71988, Note_on_c, 1, 47, 0
5, 72000, Note_on_c, 1, 45, 94
5, 72180, Note_on_c, 1, 45, 0
5, 72192, Note_on_c, 1, 42, 97
5, 72308, Note_on_c, 1, 42, 0
5, 72320, Note_on_c, 1, 42, 95
5, 72372, Note_on_c, 1, 42, 0
5, 72384, Note_on_c, 1, 37, 89
5, 72500, Note_on_c, 1, 37, 0
5, 72512, Note_on_c, 1, 40, 98
5, 72564, Note_on_c, 1, 40, 0
5, 72576, Note_on_c, 1, 42, 94
5, 72692, Note_on_c, 1, 42, 0
5, 72896, Note_on_c, 1, 45, 100
5, 72948, Note_on_c, 1, 45, 0
5, 73088, Note_on_c, 1, 45, 92
5, 73140, Note_on_c, 1, 45, 0
5, 73152, Note_on_c, 1, 37, 98
5, 73268, Note_on_c, 1, 37, 0
5, 73280, Note_on_c, 1, 38, 95
5, 73332, Note_on_c, 1, 38, 0
5, 73344, Note_on_c, 1, 40, 97
5, 73524, Note_on_c, 1, 40, 0
5, 73536, Note_on_c, 1, 42, 95
5, 73716, Note_on_c, 1, 42, 0
5, 73728, Note_on_c, 1, 35, 85
5, 73844, Note_on_c, 1, 35, 0
5, 74048, Note_on_c, 1, 35, 89
5, 74100, Note_on_c, 1, 35, 0
5, 74112, Note_on_c, 1, 33, 96
5, 74228, Note_on_c, 1, 33, 0
5, 74304, Note_on_c, 1, 35, 89
5, 74420, Note_on_c, 1, 35, 0
5, 74432, Note_on_c, 1, 35, 95
5, 74484, Note_on_c, 1, 35, 0
5, 74624, Note_on_c, 1, 35, 89
5, 74676, Note_on_c, 1, 35, 0
5, 74688, Note_on_c, 1, 33, 92
5, 74804, Note_on_c, 1, 33, 0
5, 74816, Note_on_c, 1, 35, 92
5, 74868, Note_on_c, 1, 35, 0
5, 74880, Note_on_c, 1, 38, 94
5, 75060, Note_on_c, 1, 38, 0
5, 75072, Note_on_c, 1, 35, 97
5, 75252, Note_on_c, 1, 35, 0
5, 75264, Note_on_c, 1, 38, 92
5, 75380, Note_on_c, 1, 38, 0
5, 75584, Note_on_c, 1, 38, 85
5, 75636, Note_on_c, 1, 38, 0
5, 75648, Note_on_c, 1, 38, 89
5, 75764, Note_on_c, 1, 38, 0
5, 75840, Note_on_c, 1, 38, 91
5, 75956, Note_on_c, 1, 38, 0
5, 75968, Note_on_c, 1, 33, 95
5, 76020, Note_on_c, 1, 33, 0
5, 76160, Note_on_c, 1, 33, 94
5, 76212, Note_on_c, 1, 33, 0
5, 76224, Note_on_c, 1, 31, 99
5, 76340, Note_on_c, 1, 31, 0
5, 76352, Note_on_c, 1, 33, 98
5, 76404, Note_on_c, 1, 33, 0
5, 76416, Note_on_c, 1, 40, 92
5, 76596, Note_on_c, 1, 40, 0
5, 76608, Note_on_c, 1, 33, 98
5, 76788, Note_on_c, 1, 33, 0
5, 76800, Note_on_c, 1, 35, 85
5, 76916, Note_on_c, 1, 35, 0
5, 77120, Note_on_c, 1, 35, 89
5, 77172, Note_on_c, 1, 35, 0
5, 77184, Note_on_c, 1, 33, 96
5, 77300, Note_on_c, 1, 33, 0
5, 77376, Note_on_c, 1, 35, 89
5, 77492, Note_on_c, 1, 35, 0
5, 77504, Note_on_c, 1, 35, 95
5, 77556, Note_on_c, 1, 35, 0
5, 77696, Note_on_c, 1, 35, 89
5, 77748, Note_on_c, 1, 35, 0
5, 77760, Note_on_c, 1, 33, 92
5, 77876, Note_on_c, 1, 33, 0
5, 77888, Note_on_c, 1, 35, 92
5, 77940, Note_on_c, 1, 35, 0
5, 77952, Note_on_c, 1, 38, 94
5, 78132, Note_on_c, 1, 38, 0
5, 78144, Note_on_c, 1, 35, 97
5, 78324, Note_on_c, 1, 35, 0
5, 78336, Note_on_c, 1, 38, 92
5, 78452, Note_on_c, 1, 38, 0
5, 78656, Note_on_c, 1, 38, 85
5, 78708, Note_on_c, 1, 38, 0
5, 78720, Note_on_c, 1, 38, 89
5, 78836, Note_on_c, 1, 38, 0
5, 78912, Note_on_c, 1, 38, 91
5, 79028, Note_on_c, 1, 38, 0
5, 79040, Note_on_c, 1, 33, 95
5, 79092, Note_on_c, 1, 33, 0
5, 79232, Note_on_c, 1, 33, 94
5, 79284, Note_on_c, 1, 33, 0
5, 79296, Note_on_c, 1, 31, 99
5, 79412, Note_on_c, 1, 31, 0
5, 79424, Note_on_c, 1, 33, 98
5, 79476, Note_on_c, 1, 33, 0
5, 79488, Note_on_c, 1, 40, 92
5, 79668, Note_on_c, 1, 40, 0
5, 79680, Note_on_c, 1, 33, 98
5, 79860, Note_on_c, 1, 33, 0
5, 79872, Note_on_c, 1, 35, 85
5, 79988, Note_on_c, 1, 35, 0
5, 80192, Note_on_c, 1, 35, 89
5, 80244, Note_on_c, 1, 35, 0
5, 80256, Note_on_c, 1, 33, 96
5, 80372, Note_on_c, 1, 33, 0
5, 80448, Note_on_c, 1, 35, 89
5, 80564, Note_on_c, 1, 35, 0
5, 80576, Note_on_c, 1, 35, 95
5, 80628, Note_on_c, 1, 35, 0
5, 80768, Note_on_c, 1, 35, 89
5, 80820, Note_on_c, 1, 35, 0
5, 80832, Note_on_c, 1, 33, 92
5, 80948, Note_on_c, 1, 33, 0
5, 80960, Note_on_c, 1, 35, 92
5, 81012, Note_on_c, 1, 35, 0
5, 81024, Note_on_c, 1, 38, 94
5, 81204, Note_on_c, 1, 38, 0
5, 81216, Note_on_c, 1, 35, 97
5, 81396, Note_on_c, 1, 35, 0
5, 81408, Note_on_c, 1, 38, 92
5, 81524, Note_on_c, 1, 38, 0
5, 81728, Note_on_c, 1, 38, 85
5, 81780, Note_on_c, 1, 38, 0
5, 81792, Note_on_c, 1, 38, 89
5, 81908, Note_on_c, 1, 38, 0
5, 81984, Note_on_c, 1, 38, 91
5, 82100, Note_on_c, 1, 38, 0
5, 82112, Note_on_c, 1, 33, 95
5, 82164, Note_on_c, 1, 33, 0
5, 82304, Note_on_c, 1, 33, 94
5, 82356, Note_on_c, 1, 33, 0
5, 82368, Note_on_c, 1, 31, 99
5, 82484, Note_on_c, 1, 31, 0
5, 82496, Note_on_c, 1, 33, 98
5, 82548, Note_on_c, 1, 33, 0
5, 82560, Note_on_c, 1, 40, 92
5, 82740, Note_on_c, 1, 40, 0
5, 82752, Note_on_c, 1, 33, 98
5, 82932, Note_on_c, 1, 33, 0
5, 82944, Note_on_c, 1, 35, 85
5, 83060, Note_on_c, 1, 35, 0
5, 83264, Note_on_c, 1, 35, 89
5, 83316, Note_on_c, 1, 35, 0
5, 83328, Note_on_c, 1, 33, 96
5, 83444, Note_on_c, 1, 33, 0
5, 83520, Note_on_c, 1, 35, 89
5, 83636, Note_on_c, 1, 35, 0
5, 83648, Note_on_c, 1, 35, 95
5, 83700, Note_on_c, 1, 35, 0
5, 83840, Note_on_c, 1, 35, 89
5, 83892, Note_on_c, 1, 35, 0
5, 83904, Note_on_c, 1, 33, 92
5, 84020, Note_on_c, 1, 33, 0
5, 84032, Note_on_c, 1, 35, 92
5, 84084, Note_on_c, 1, 35, 0
5, 84096, Note_on_c, 1, 38, 94
5, 84276, Note_on_c, 1, 38, 0
5, 84288, Note_on_c, 1, 35, 97
5, 84468, Note_on_c, 1, 35, 0
5, 84480, Note_on_c, 1, 38, 92
5, 84596, Note_on_c, 1, 38, 0
5, 84800, Note_on_c, 1, 38, 85
5, 84852, Note_on_c, 1, 38, 0
5, 84864, Note_on_c, 1, 38, 89
5, 84980, Note_on_c, 1, 38, 0
5, 85056, Note_on_c, 1, 38, 91
5, 85172, Note_on_c, 1, 38, 0
5, 85184, Note_on_c, 1, 33, 95
5, 85236, Note_on_c, 1, 33, 0
5, 85376, Note_on_c, 1, 33, 94
5, 85428, Note_on_c, 1, 33, 0
5, 85440, Note_on_c, 1, 31, 99
5, 85556, Note_on_c, 1, 31, 0
5, 85568, Note_on_c, 1, 33, 98
5, 85620, Note_on_c, 1, 33, 0
5, 85632, Note_on_c, 1, 40, 92
5, 85812, Note_on_c, 1, 40, 0
5, 85824, Note_on_c, 1, 33, 98
5, 86004, Note_on_c, 1, 33, 0
5, 86016, Note_on_c, 1, 35, 88
5, 86132, Note_on_c, 1, 35, 0
5, 86336, Note_on_c, 1, 35, 90
5, 86388, Note_on_c, 1, 35, 0
5, 86400, Note_on_c, 1, 35, 96
5, 86516, Note_on_c, 1, 35, 0
5, 86720, Note_on_c, 1, 35, 92
5, 86772, Note_on_c, 1, 35, 0
5, 86912, Note_on_c, 1, 35, 87
5, 86964, Note_on_c, 1, 35, 0
5, 86976, Note_on_c, 1, 42, 71
5, 87092, Note_on_c, 1, 42, 0
5, 87168, Note_on_c, 1, 47, 84
5, 87348, Note_on_c, 1, 47, 0
5, 87360, Note_on_c, 1, 42, 86
5, 87540, Note_on_c, 1, 42, 0
5, 87552, Note_on_c, 1, 35, 88
5, 87668, Note_on_c, 1, 35, 0
5, 87872, Note_on_c, 1, 35, 90
5, 87924, Note_on_c, 1, 35, 0
5, 87936, Note_on_c, 1, 35, 96
5, 88052, Note_on_c, 1, 35, 0
5, 88256, Note_on_c, 1, 35, 92
5, 88308, Note_on_c, 1, 35, 0
5, 88448, Note_on_c, 1, 35, 87
5, 88500, Note_on_c, 1, 35, 0
5, 88512, Note_on_c, 1, 42, 71
5, 88628, Note_on_c, 1, 42, 0
5, 88704, Note_on_c, 1, 47, 84
5, 88884, Note_on_c, 1, 47, 0
5, 88896, Note_on_c, 1, 42, 86
5, 89076, Note_on_c, 1, 42, 0
5, 89088, Note_on_c, 1, 35, 88
5, 89204, Note_on_c, 1, 35, 0
5, 89408, Note_on_c, 1, 35, 90
5, 89460, Note_on_c, 1, 35, 0
5, 89472, Note_on_c, 1, 35, 96
5, 89588, Note_on_c, 1, 35, 0
5, 89792, Note_on_c, 1, 35, 92
5, 89844, Note_on_c, 1, 35, 0
5, 89984, Note_on_c, 1, 35, 87
5, 90036, Note_on_c, 1, 35, 0
5, 90048, Note_on_c, 1, 42, 71
5, 90164, Note_on_c, 1, 42, 0
5, 90240, Note_on_c, 1, 47, 84
5, 90420, Note_on_c, 1, 47, 0
5, 90432, Note_on_c, 1, 42, 86
5, 90612, Note_on_c, 1, 42, 0
5, 90624, Note_on_c, 1, 35, 92
5, 90740, Note_on_c, 1, 35, 0
5, 90944, Note_on_c, 1, 35, 84
5, 90996, Note_on_c, 1, 35, 0
5, 91008, Note_on_c, 1, 35, 91
5, 91124, Note_on_c, 1, 35, 0
5, 91328, Note_on_c, 1, 38, 96
5, 91380, Note_on_c, 1, 38, 0
5, 91520, Note_on_c, 1, 38, 91
5, 91572, Note_on_c, 1, 38, 0
5, 91584, Note_on_c, 1, 40, 98
5, 91700, Note_on_c, 1, 40, 0
5, 91968, Note_on_c, 1, 42, 88
5, 92148, Note_on_c, 1, 42, 0
5, 92160, Note_on_c, 1, 35, 83
5, 92276, Note_on_c, 1, 35, 0
5, 92480, Note_on_c, 1, 35, 87
5, 92532, Note_on_c, 1, 35, 0
5, 92544, Note_on_c, 1, 35, 91
5, 92660, Note_on_c, 1, 35, 0
5, 92736, Note_on_c, 1, 35, 91
5, 92852, Note_on_c, 1, 35, 0
5, 92864, Note_on_c, 1, 35, 93
5, 92916, Note_on_c, 1, 35, 0
5, 93056, Note_on_c, 1, 35, 83
5, 93172, Note_on_c, 1, 35, 0
5, 93248, Note_on_c, 1, 35, 83
5, 93300, Note_on_c, 1, 35, 0
5, 93312, Note_on_c, 1, 47, 91
5, 93492, Note_on_c, 1, 47, 0
5, 93504, Note_on_c, 1, 42, 84
5, 93684, Note_on_c, 1, 42, 0
5, 93696, Note_on_c, 1, 35, 83
5, 93812, Note_on_c, 1, 35, 0
5, 94016, Note_on_c, 1, 35, 87
5, 94068, Note_on_c, 1, 35, 0
5, 94080, Note_on_c, 1, 35, 91
5, 94196, Note_on_c, 1, 35, 0
5, 94272, Note_on_c, 1, 35, 91
5, 94388, Note_on_c, 1, 35, 0
5, 94400, Note_on_c, 1, 35, 93
5, 94452, Note_on_c, 1, 35, 0
5, 94592, Note_on_c, 1, 35, 83
5, 94708, Note_on_c, 1, 35, 0
5, 94784, Note_on_c, 1, 35, 83
5, 94836, Note_on_c, 1, 35, 0
5, 94848, Note_on_c, 1, 47, 91
5, 95028, Note_on_c, 1, 47, 0
5, 95040, Note_on_c, 1, 42, 84
5, 95220, Note_on_c, 1, 42, 0
5, 95232, Note_on_c, 1, 35, 83
5, 95348, Note_on_c, 1, 35, 0
5, 95552, Note_on_c, 1, 35, 87
5, 95604, Note_on_c, 1, 35, 0
5, 95616, Note_on_c, 1, 35, 91
5, 95732, Note_on_c, 1, 35, 0
5, 95808, Note_on_c, 1, 35, 91
5, 95924, Note_on_c, 1, 35, 0
5, 95936, Note_on_c, 1, 35, 93
5, 95988, Note_on_c, 1, 35, 0
5, 96128, Note_on_c, 1, 35, 83
5, 96244, Note_on_c, 1, 35, 0
5, 96320, Note_on_c, 1, 35, 83
5, 96372, Note_on_c, 1, 35, 0
5, 96384, Note_on_c, 1, 47, 91
5, 96564, Note_on_c, 1, 47, 0
5, 96576, Note_on_c, 1, 42, 84
5, 96756, Note_on_c, 1, 42, 0
5, 96768, Note_on_c, 1, 35, 94
5, 96884, Note_on_c, 1, 35, 0
5, 97088, Note_on_c, 1, 35, 86
5, 97140, Note_on_c, 1, 35, 0
5, 97152, Note_on_c, 1, 35, 88
5, 97268, Note_on_c, 1, 35, 0
5, 97280, Note_on_c, 1, 35, 88
5, 97332, Note_on_c, 1, 35, 0
5, 97344, Note_on_c, 1, 37, 83
5, 97460, Note_on_c, 1, 37, 0
5, 97472, Note_on_c, 1, 38, 88
5, 97524, Note_on_c, 1, 38, 0
5, 97664, Note_on_c, 1, 40, 98
5, 97780, Note_on_c, 1, 40, 0
5, 97856, Note_on_c, 1, 40, 98
5, 97908, Note_on_c, 1, 40, 0
5, 97920, Note_on_c, 1, 42, 93
5, 98228, Note_on_c, 1, 42, 0
5, 98304, Note_on_c, 1, 35, 83
5, 98420, Note_on_c, 1, 35, 0
5, 98624, Note_on_c, 1, 35, 87
5, 98676, Note_on_c, 1, 35, 0
5, 98688, Note_on_c, 1, 35, 91
5, 98804, Note_on_c, 1, 35, 0
5, 98880, Note_on_c, 1, 35, 91
5, 98996, Note_on_c, 1, 35, 0
5, 99008, Note_on_c, 1, 35, 93
5, 99060, Note_on_c, 1, 35, 0
5, 99200, Note_on_c, 1, 35, 83
5, 99316, Note_on_c, 1, 35, 0
5, 99392, Note_on_c, 1, 35, 83
5, 99444, Note_on_c, 1, 35, 0
5, 99456, Note_on_c, 1, 47, 91
5, 99636, Note_on_c, 1, 47, 0
5, 99648, Note_on_c, 1, 42, 84
5, 99828, Note_on_c, 1, 42, 0
5, 99840, Note_on_c, 1, 35, 83
5, 99956, Note_on_c, 1, 35, 0
5, 100160, Note_on_c, 1, 35, 87
5, 100212, Note_on_c, 1, 35, 0
5, 100224, Note_on_c, 1, 35, 91
5, 100340, Note_on_c, 1, 35, 0
5, 100416, Note_on_c, 1, 35, 91
5, 100532, Note_on_c, 1, 35, 0
5, 100544, Note_on_c, 1, 35, 93
5, 100596, Note_on_c, 1, 35, 0
5, 100736, Note_on_c, 1, 35, 83
5, 100852, Note_on_c, 1, 35, 0
5, 100928, Note_on_c, 1, 35, 83
5, 100980, Note_on_c, 1, 35, 0
5, 100992, Note_on_c, 1, 47, 91
5, 101172, Note_on_c, 1, 47, 0
5, 101184, Note_on_c, 1, 42, 84
5, 101364, Note_on_c, 1, 42, 0
5, 101376, Note_on_c, 1, 35, 83
5, 101492, Note_on_c, 1, 35, 0
5, 101696, Note_on_c, 1, 35, 87
5, 101748, Note_on_c, 1, 35, 0
5, 101760, Note_on_c, 1, 35, 91
5, 101876, Note_on_c, 1, 35, 0
5, 101952, Note_on_c, 1, 35, 91
5, 102068, Note_on_c, 1, 35, 0
5, 102080, Note_on_c, 1, 35, 93
5, 102132, Note_on_c, 1, 35, 0
5, 102272, Note_on_c, 1, 35, 83
5, 102388, Note_on_c, 1, 35, 0
5, 102464, Note_on_c, 1, 35, 83
5, 102516, Note_on_c, 1, 35, 0
5, 102528, Note_on_c, 1, 47, 91
5, 102708, Note_on_c, 1, 47, 0
5, 102720, Note_on_c, 1, 42, 84
5, 102900, Note_on_c, 1, 42, 0
5, 102912, Note_on_c, 1, 35, 94
5, 103028, Note_on_c, 1, 35, 0
5, 103232, Note_on_c, 1, 35, 86
5, 103284, Note_on_c, 1, 35, 0
5, 103296, Note_on_c, 1, 35, 88
5, 103412, Note_on_c, 1, 35, 0
5, 103424, Note_on_c, 1, 35, 88
5, 103476, Note_on_c, 1, 35, 0
5, 103488, Note_on_c, 1, 37, 83
5, 103604, Note_on_c, 1, 37, 0
5, 103616, Note_on_c, 1, 38, 88
5, 103668, Note_on_c, 1, 38, 0
5, 103808, Note_on_c, 1, 40, 98
5, 103924, Note_on_c, 1, 40, 0
5, 104000, Note_on_c, 1, 40, 98
5, 104052, Note_on_c, 1, 40, 0
5, 104064, Note_on_c, 1, 42, 93
5, 104372, Note_on_c, 1, 42, 0
5, 104448, Note_on_c, 1, 35, 96
5, 104564, Note_on_c, 1, 35, 0
5, 104768, Note_on_c, 1, 35, 88
5, 104820, Note_on_c, 1, 35, 0
5, 104832, Note_on_c, 1, 35, 97
5, 104948, Note_on_c, 1, 35, 0
5, 105024, Note_on_c, 1, 35, 94
5, 105140, Note_on_c, 1, 35, 0
5, 105152, Note_on_c, 1, 35, 100
5, 105204, Note_on_c, 1, 35, 0
5, 105344, Note_on_c, 1, 35, 88
5, 105396, Note_on_c, 1, 35, 0
5, 105408, Note_on_c, 1, 35, 95
5, 105524, Note_on_c, 1, 35, 0
5, 105536, Note_on_c, 1, 35, 95
5, 105588, Note_on_c, 1, 35, 0
5, 105600, Note_on_c, 1, 38, 102
5, 105780, Note_on_c, 1, 38, 0
5, 105792, Note_on_c, 1, 40, 102
5, 105972, Note_on_c, 1, 40, 0
5, 105984, Note_on_c, 1, 42, 92
5, 106164, Note_on_c, 1, 42, 0
5, 106368, Note_on_c, 1, 42, 83
5, 106484, Note_on_c, 1, 42, 0
5, 106688, Note_on_c, 1, 40, 92
5, 106740, Note_on_c, 1, 40, 0
5, 106752, Note_on_c, 1, 40, 94
5, 106932, Note_on_c, 1, 40, 0
5, 106944, Note_on_c, 1, 38, 94
5, 107124, Note_on_c, 1, 38, 0
5, 107136, Note_on_c, 1, 40, 96
5, 107252, Note_on_c, 1, 40, 0
5, 107328, Note_on_c, 1, 40, 97
5, 107444, Note_on_c, 1, 40, 0
5, 107520, Note_on_c, 1, 35, 94
5, 107636, Note_on_c, 1, 35, 0
5, 107840, Note_on_c, 1, 35, 89
5, 107892, Note_on_c, 1, 35, 0
5, 107904, Note_on_c, 1, 35, 98
5, 108020, Note_on_c, 1, 35, 0
5, 108096, Note_on_c, 1, 35, 92
5, 108212, Note_on_c, 1, 35, 0
5, 108224, Note_on_c, 1, 35, 95
5, 108276, Note_on_c, 1, 35, 0
5, 108416, Note_on_c, 1, 35, 88
5, 108468, Note_on_c, 1, 35, 0
5, 108480, Note_on_c, 1, 35, 97
5, 108596, Note_on_c, 1, 35, 0
5, 108608, Note_on_c, 1, 35, 98
5, 108660, Note_on_c, 1, 35, 0
5, 108672, Note_on_c, 1, 38, 104
5, 108852, Note_on_c, 1, 38, 0
5, 108864, Note_on_c, 1, 35, 98
5, 109044, Note_on_c, 1, 35, 0
5, 109056, Note_on_c, 1, 44, 90
5, 109172, Note_on_c, 1, 44, 0
5, 109376, Note_on_c, 1, 44, 95
5, 109428, Note_on_c, 1, 44, 0
5, 109440, Note_on_c, 1, 44, 91
5, 109556, Note_on_c, 1, 44, 0
5, 109568, Note_on_c, 1, 44, 93
5, 109684, Note_on_c, 1, 44, 0
5, 109760, Note_on_c, 1, 45, 93
5, 109812, Note_on_c, 1, 45, 0
5, 109952, Note_on_c, 1, 45, 91
5, 110004, Note_on_c, 1, 45, 0
5, 110016, Note_on_c, 1, 44, 89
5, 110132, Note_on_c, 1, 44, 0
5, 110144, Note_on_c, 1, 45, 93
5, 110196, Note_on_c, 1, 45, 0
5, 110208, Note_on_c, 1, 45, 88
5, 110388, Note_on_c, 1, 45, 0
5, 110400, Note_on_c, 1, 45, 91
5, 110580, Note_on_c, 1, 45, 0
5, 110592, Note_on_c, 1, 35, 95
5, 110708, Note_on_c, 1, 35, 0
5, 110912, Note_on_c, 1, 35, 94
5, 110964, Note_on_c, 1, 35, 0
5, 110976, Note_on_c, 1, 35, 91
5, 111156, Note_on_c, 1, 35, 0
5, 111168, Note_on_c, 1, 35, 92
5, 111284, Note_on_c, 1, 35, 0
5, 111296, Note_on_c, 1, 35, 92
5, 111348, Note_on_c, 1, 35, 0
5, 111488, Note_on_c, 1, 35, 94
5, 111540, Note_on_c, 1, 35, 0
5, 111552, Note_on_c, 1, 35, 94
5, 111668, Note_on_c, 1, 35, 0
5, 111680, Note_on_c, 1, 35, 91
5, 111732, Note_on_c, 1, 35, 0
5, 111744, Note_on_c, 1, 42, 89
5, 111924, Note_on_c, 1, 42, 0
5, 111936, Note_on_c, 1, 35, 92
5, 112116, Note_on_c, 1, 35, 0
5, 112128, Note_on_c, 1, 42, 97
5, 112244, Note_on_c, 1, 42, 0
5, 112448, Note_on_c, 1, 42, 93
5, 112500, Note_on_c, 1, 42, 0
5, 112512, Note_on_c, 1, 42, 88
5, 112692, Note_on_c, 1, 42, 0
5, 112704, Note_on_c, 1, 40, 89
5, 112884, Note_on_c, 1, 40, 0
5, 112896, Note_on_c, 1, 40, 89
5, 113012, Note_on_c, 1, 40, 0
5, 113024, Note_on_c, 1, 38, 96
5, 113076, Note_on_c, 1, 38, 0
5, 113088, Note_on_c, 1, 40, 96
5, 113204, Note_on_c, 1, 40, 0
5, 113280, Note_on_c, 1, 42, 96
5, 113460, Note_on_c, 1, 42, 0
5, 113472, Note_on_c, 1, 47, 92
5, 113652, Note_on_c, 1, 47, 0
5, 113664, Note_on_c, 1, 35, 88
5, 113780, Note_on_c, 1, 35, 0
5, 113984, Note_on_c, 1, 35, 88
5, 114036, Note_on_c, 1, 35, 0
5, 114048, Note_on_c, 1, 35, 98
5, 114164, Note_on_c, 1, 35, 0
5, 114240, Note_on_c, 1, 35, 87
5, 114356, Note_on_c, 1, 35, 0
5, 114368, Note_on_c, 1, 35, 94
5, 114420, Note_on_c, 1, 35, 0
5, 114560, Note_on_c, 1, 35, 88
5, 114612, Note_on_c, 1, 35, 0
5, 114624, Note_on_c, 1, 33, 86
5, 114740, Note_on_c, 1, 33, 0
5, 114752, Note_on_c, 1, 35, 96
5, 114804, Note_on_c, 1, 35, 0
5, 114816, Note_on_c, 1, 40, 100
5, 114996, Note_on_c, 1, 40, 0
5, 115008, Note_on_c, 1, 42, 93
5, 115188, Note_on_c, 1, 42, 0
5, 115200, Note_on_c, 1, 45, 96
5, 115316, Note_on_c, 1, 45, 0
5, 115520, Note_on_c, 1, 45, 94
5, 115572, Note_on_c, 1, 45, 0
5, 115584, Note_on_c, 1, 45, 92
5, 115700, Note_on_c, 1, 45, 0
5, 115776, Note_on_c, 1, 45, 82
5, 115892, Note_on_c, 1, 45, 0
5, 115904, Note_on_c, 1, 45, 98
5, 115956, Note_on_c, 1, 45, 0
5, 116096, Note_on_c, 1, 45, 89
5, 116148, Note_on_c, 1, 45, 0
5, 116160, Note_on_c, 1, 44, 90
5, 116276, Note_on_c, 1, 44, 0
5, 116288, Note_on_c, 1, 45, 94
5, 116340, Note_on_c, 1, 45, 0
5, 116352, Note_on_c, 1, 45, 87
5, 116532, Note_on_c, 1, 45, 0
5, 116544, Note_on_c, 1, 45, 92
5, 116724, Note_on_c, 1, 45, 0
5, 116736, Note_on_c, 1, 43, 94
5, 116852, Note_on_c, 1, 43, 0
5, 117056, Note_on_c, 1, 43, 91
5, 117108, Note_on_c, 1, 43, 0
5, 117120, Note_on_c, 1, 43, 94
5, 117236, Note_on_c, 1, 43, 0
5, 117312, Note_on_c, 1, 43, 95
5, 117428, Note_on_c, 1, 43, 0
5, 117440, Note_on_c, 1, 43, 97
5, 117492, Note_on_c, 1, 43, 0
5, 117632, Note_on_c, 1, 43, 90
5, 117684, Note_on_c, 1, 43, 0
5, 117696, Note_on_c, 1, 42, 93
5, 117812, Note_on_c, 1, 42, 0
5, 117824, Note_on_c, 1, 43, 95
5, 117876, Note_on_c, 1, 43, 0
5, 117888, Note_on_c, 1, 47, 91
5, 118068, Note_on_c, 1, 47, 0
5, 118080, Note_on_c, 1, 45, 94
5, 118260, Note_on_c, 1, 45, 0
5, 118272, Note_on_c, 1, 42, 97
5, 118388, Note_on_c, 1, 42, 0
5, 118400, Note_on_c, 1, 42, 95
5, 118452, Note_on_c, 1, 42, 0
5, 118464, Note_on_c, 1, 37, 89
5, 118580, Note_on_c, 1, 37, 0
5, 118592, Note_on_c, 1, 40, 98
5, 118644, Note_on_c, 1, 40, 0
5, 118656, Note_on_c, 1, 42, 94
5, 118772, Note_on_c, 1, 42, 0
5, 118976, Note_on_c, 1, 45, 100
5, 119028, Note_on_c, 1, 45, 0
5, 119168, Note_on_c, 1, 45, 92
5, 119220, Note_on_c, 1, 45, 0
5, 119232, Note_on_c, 1, 37, 98
5, 119348, Note_on_c, 1, 37, 0
5, 119360, Note_on_c, 1, 38, 95
5, 119412, Note_on_c, 1, 38, 0
5, 119424, Note_on_c, 1, 40, 97
5, 119604, Note_on_c, 1, 40, 0
5, 119616, Note_on_c, 1, 42, 95
5, 119796, Note_on_c, 1, 42, 0
5, 119808, Note_on_c, 1, 35, 88
5, 119924, Note_on_c, 1, 35, 0
5, 120128, Note_on_c, 1, 35, 88
5, 120180, Note_on_c, 1, 35, 0
5, 120192, Note_on_c, 1, 35, 98
5, 120308, Note_on_c, 1, 35, 0
5, 120384, Note_on_c, 1, 35, 87
5, 120500, Note_on_c, 1, 35, 0
5, 120512, Note_on_c, 1, 35, 94
5, 120564, Note_on_c, 1, 35, 0
5, 120704, Note_on_c, 1, 35, 88
5, 120756, Note_on_c, 1, 35, 0
5, 120768, Note_on_c, 1, 33, 86
5, 120884, Note_on_c, 1, 33, 0
5, 120896, Note_on_c, 1, 35, 96
5, 120948, Note_on_c, 1, 35, 0
5, 120960, Note_on_c, 1, 40, 100
5, 121140, Note_on_c, 1, 40, 0
5, 121152, Note_on_c, 1, 42, 93
5, 121332, Note_on_c, 1, 42, 0
5, 121344, Note_on_c, 1, 45, 96
5, 121460, Note_on_c, 1, 45, 0
5, 121664, Note_on_c, 1, 45, 94
5, 121716, Note_on_c, 1, 45, 0
5, 121728, Note_on_c, 1, 45, 92
5, 121844, Note_on_c, 1, 45, 0
5, 121920, Note_on_c, 1, 45, 82
5, 122036, Note_on_c, 1, 45, 0
5, 122048, Note_on_c, 1, 45, 98
5, 122100, Note_on_c, 1, 45, 0
5, 122240, Note_on_c, 1, 45, 89
5, 122292, Note_on_c, 1, 45, 0
5, 122304, Note_on_c, 1, 44, 90
5, 122420, Note_on_c, 1, 44, 0
5, 122432, Note_on_c, 1, 45, 94
5, 122484, Note_on_c, 1, 45, 0
5, 122496, Note_on_c, 1, 45, 87
5, 122676, Note_on_c, 1, 45, 0
5, 122688, Note_on_c, 1, 45, 92
5, 122868, Note_on_c, 1, 45, 0
5, 122880, Note_on_c, 1, 43, 94
5, 122996, Note_on_c, 1, 43, 0
5, 123200, Note_on_c, 1, 43, 91
5, 123252, Note_on_c, 1, 43, 0
5, 123264, Note_on_c, 1, 43, 94
5, 123380, Note_on_c, 1, 43, 0
5, 123456, Note_on_c, 1, 43, 95
5, 123572, Note_on_c, 1, 43, 0
5, 123584, Note_on_c, 1, 43, 97
5, 123636, Note_on_c, 1, 43, 0
5, 123776, Note_on_c, 1, 43, 90
5, 123828, Note_on_c, 1, 43, 0
5, 123840, Note_on_c, 1, 42, 93
5, 123956, Note_on_c, 1, 42, 0
5, 123968, Note_on_c, 1, 43, 95
5, 124020, Note_on_c, 1, 43, 0
5, 124032, Note_on_c, 1, 47, 91
5, 124212, Note_on_c, 1, 47, 0
5, 124224, Note_on_c, 1, 45, 94
5, 124404, Note_on_c, 1, 45, 0
5, 124416, Note_on_c, 1, 42, 97
5, 124532, Note_on_c, 1, 42, 0
5, 124544, Note_on_c, 1, 42, 95
5, 124596, Note_on_c, 1, 42, 0
5, 124608, Note_on_c, 1, 37, 89
5, 124724, Note_on_c, 1, 37, 0
5, 124736, Note_on_c, 1, 40, 98
5, 124788, Note_on_c, 1, 40, 0
5, 124800, Note_on_c, 1, 42, 94
5, 124916, Note_on_c, 1, 42, 0
5, 125120, Note_on_c, 1, 45, 100
5, 125172, Note_on_c, 1, 45, 0
5, 125312, Note_on_c, 1, 45, 92
5, 125364, Note_on_c, 1, 45, 0
5, 125376, Note_on_c, 1, 37, 98
5, 125492, Note_on_c, 1, 37, 0
5, 125504, Note_on_c, 1, 38, 95
5, 125556, Note_on_c, 1, 38, 0
5, 125568, Note_on_c, 1, 40, 97
5, 125748, Note_on_c, 1, 40, 0
5, 125760, Note_on_c, 1, 42, 95
5, 125940, Note_on_c, 1, 42, 0
5, 125952, Note_on_c, 1, 35, 85
5, 126068, Note_on_c, 1, 35, 0
5, 126272, Note_on_c, 1, 35, 89
5, 126324, Note_on_c, 1, 35, 0
5, 126336, Note_on_c, 1, 33, 96
5, 126452, Note_on_c, 1, 33, 0
5, 126528, Note_on_c, 1, 35, 89
5, 126644, Note_on_c, 1, 35, 0
5, 126656, Note_on_c, 1, 35, 95
5, 126708, Note_on_c, 1, 35, 0
5, 126848, Note_on_c, 1, 35, 89
5, 126900, Note_on_c, 1, 35, 0
5, 126912, Note_on_c, 1, 33, 92
5, 127028, Note_on_c, 1, 33, 0
5, 127040, Note_on_c, 1, 35, 92
5, 127092, Note_on_c, 1, 35, 0
5, 127104, Note_on_c, 1, 38, 94
5, 127284, Note_on_c, 1, 38, 0
5, 127296, Note_on_c, 1, 35, 97
5, 127476, Note_on_c, 1, 35, 0
5, 127488, Note_on_c, 1, 38, 92
5, 127604, Note_on_c, 1, 38, 0
5, 127808, Note_on_c, 1, 38, 85
5, 127860, Note_on_c, 1, 38, 0
5, 127872, Note_on_c, 1, 38, 89
5, 127988, Note_on_c, 1, 38, 0
5, 128064, Note_on_c, 1, 38, 91
5, 128180, Note_on_c, 1, 38, 0
5, 128192, Note_on_c, 1, 33, 95
5, 128244, Note_on_c, 1, 33, 0
5, 128384, Note_on_c, 1, 33, 94
5, 128436, Note_on_c, 1, 33, 0
5, 128448, Note_on_c, 1, 31, 99
5, 128564, Note_on_c, 1, 31, 0
5, 128576, Note_on_c, 1, 33, 98
5, 128628, Note_on_c, 1, 33, 0
5, 128640, Note_on_c, 1, 40, 92
5, 128820, Note_on_c, 1, 40, 0
5, 128832, Note_on_c, 1, 33, 98
5, 129012, Note_on_c, 1, 33, 0
5, 129024, Note_on_c, 1, 35, 85
5, 129140, Note_on_c, 1, 35, 0
5, 129344, Note_on_c, 1, 35, 89
5, 129396, Note_on_c, 1, 35, 0
5, 129408, Note_on_c, 1, 33, 96
5, 129524, Note_on_c, 1, 33, 0
5, 129600, Note_on_c, 1, 35, 89
5, 129716, Note_on_c, 1, 35, 0
5, 129728, Note_on_c, 1, 35, 95
5, 129780, Note_on_c, 1, 35, 0
5, 129920, Note_on_c, 1, 35, 89
5, 129972, Note_on_c, 1, 35, 0
5, 129984, Note_on_c, 1, 33, 92
5, 130100, Note_on_c, 1, 33, 0
5, 130112, Note_on_c, 1, 35, 92
5, 130164, Note_on_c, 1, 35, 0
5, 130176, Note_on_c, 1, 38, 94
5, 130356, Note_on_c, 1, 38, 0
5, 130368, Note_on_c, 1, 35, 97
5, 130548, Note_on_c, 1, 35, 0
5, 130560, Note_on_c, 1, 38, 92
5, 130676, Note_on_c, 1, 38, 0
5, 130880, Note_on_c, 1, 38, 85
5, 130932, Note_on_c, 1, 38, 0
5, 130944, Note_on_c, 1, 38, 89
5, 131060, Note_on_c, 1, 38, 0
5, 131136, Note_on_c, 1, 38, 91
5, 131252, Note_on_c, 1, 38, 0
5, 131264, Note_on_c, 1, 33, 95
5, 131316, Note_on_c, 1, 33, 0
5, 131456, Note_on_c, 1, 33, 94
5, 131508, Note_on_c, 1, 33, 0
5, 131520, Note_on_c, 1, 31, 99
5, 131636, Note_on_c, 1, 31, 0
5, 131648, Note_on_c, 1, 33, 98
5, 131700, Note_on_c, 1, 33, 0
5, 131712, Note_on_c, 1, 40, 92
5, 131892, Note_on_c, 1, 40, 0
5, 131904, Note_on_c, 1, 33, 98
5, 132084, Note_on_c, 1, 33, 0
5, 132096, Note_on_c, 1, 35, 85
5, 132212, Note_on_c, 1, 35, 0
5, 132416, Note_on_c, 1, 35, 89
5, 132468, Note_on_c, 1, 35, 0
5, 132480, Note_on_c, 1, 33, 96
5, 132596, Note_on_c, 1, 33, 0
5, 132672, Note_on_c, 1, 35, 89
5, 132788, Note_on_c, 1, 35, 0
5, 132800, Note_on_c, 1, 35, 95
5, 132852, Note_on_c, 1, 35, 0
5, 132992, Note_on_c, 1, 35, 89
5, 133044, Note_on_c, 1, 35, 0
5, 133056, Note_on_c, 1, 33, 92
5, 133172, Note_on_c, 1, 33, 0
5, 133184, Note_on_c, 1, 35, 92
5, 133236, Note_on_c, 1, 35, 0
5, 133248, Note_on_c, 1, 38, 94
5, 133428, Note_on_c, 1, 38, 0
5, 133440, Note_on_c, 1, 35, 97
5, 133620, Note_on_c, 1, 35, 0
5, 133632, Note_on_c, 1, 38, 92
5, 133748, Note_on_c, 1, 38, 0
5, 133952, Note_on_c, 1, 38, 85
5, 134004, Note_on_c, 1, 38, 0
5, 134016, Note_on_c, 1, 38, 89
5, 134132, Note_on_c, 1, 38, 0
5, 134208, Note_on_c, 1, 38, 91
5, 134324, Note_on_c, 1, 38, 0
5, 134336, Note_on_c, 1, 33, 95
5, 134388, Note_on_c, 1, 33, 0
5, 134528, Note_on_c, 1, 33, 94
5, 134580, Note_on_c, 1, 33, 0
5, 134592, Note_on_c, 1, 31, 99
5, 134708, Note_on_c, 1, 31, 0
5, 134720, Note_on_c, 1, 33, 98
5, 134772, Note_on_c, 1, 33, 0
5, 134784, Note_on_c, 1, 40, 92
5, 134964, Note_on_c, 1, 40, 0
5, 134976, Note_on_c, 1, 33, 98
5, 135156, Note_on_c, 1, 33, 0
5, 135168, Note_on_c, 1, 35, 85
5, 135284, Note_on_c, 1, 35, 0
5, 135488, Note_on_c, 1, 35, 89
5, 135540, Note_on_c, 1, 35, 0
5, 135552, Note_on_c, 1, 33, 96
5, 135668, Note_on_c, 1, 33, 0
5, 135744, Note_on_c, 1, 35, 89
5, 135860, Note_on_c, 1, 35, 0
5, 135872, Note_on_c, 1, 35, 95
5, 135924, Note_on_c, 1, 35, 0
5, 136064, Note_on_c, 1, 35, 89
5, 136116, Note_on_c, 1, 35, 0
5, 136128, Note_on_c, 1, 33, 92
5, 136244, Note_on_c, 1, 33, 0
5, 136256, Note_on_c, 1, 35, 92
5, 136308, Note_on_c, 1, 35, 0
5, 136320, Note_on_c, 1, 38, 94
5, 136500, Note_on_c, 1, 38, 0
5, 136512, Note_on_c, 1, 35, 97
5, 136692, Note_on_c, 1, 35, 0
5, 136704, Note_on_c, 1, 38, 92
5, 136820, Note_on_c, 1, 38, 0
5, 137024, Note_on_c, 1, 38, 85
5, 137076, Note_on_c, 1, 38, 0
5, 137088, Note_on_c, 1, 38, 89
5, 137204, Note_on_c, 1, 38, 0
5, 137280, Note_on_c, 1, 38, 91
5, 137396, Note_on_c, 1, 38, 0
5, 137408, Note_on_c, 1, 33, 95
5, 137460, Note_on_c, 1, 33, 0
5, 137600, Note_on_c, 1, 33, 94
5, 137652, Note_on_c, 1, 33, 0
5, 137664, Note_on_c, 1, 31, 99
5, 137780, Note_on_c, 1, 31, 0
5, 137792, Note_on_c, 1, 33, 98
5, 137844, Note_on_c, 1, 33, 0
5, 137856, Note_on_c, 1, 40, 92
5, 138036, Note_on_c, 1, 40, 0
5, 138048, Note_on_c, 1, 33, 98
5, 138228, Note_on_c, 1, 33, 0
5, 138240, Note_on_c, 1, 35, 85
5, 138356, Note_on_c, 1, 35, 0
5, 138560, Note_on_c, 1, 35, 89
5, 138612, Note_on_c, 1, 35, 0
5, 138624, Note_on_c, 1, 33, 96
5, 138740, Note_on_c, 1, 33, 0
5, 138816, Note_on_c, 1, 35, 89
5, 138932, Note_on_c, 1, 35, 0
5, 138944, Note_on_c, 1, 35, 95
5, 138996, Note_on_c, 1, 35, 0
5, 139136, Note_on_c, 1, 35, 89
5, 139188, Note_on_c, 1, 35, 0
5, 139200, Note_on_c, 1, 33, 92
5, 139316, Note_on_c, 1, 33, 0
5, 139328, Note_on_c, 1, 35, 92
5, 139380, Note_on_c, 1, 35, 0
5, 139392, Note_on_c, 1, 38, 94
5, 139572, Note_on_c, 1, 38, 0
5, 139584, Note_on_c, 1, 35, 97
5, 139764, Note_on_c, 1, 35, 0
5, 139776, Note_on_c, 1, 38, 92
5, 139892, Note_on_c, 1, 38, 0
5, 140096, Note_on_c, 1, 38, 85
5, 140148, Note_on_c, 1, 38, 0
5, 140160, Note_on_c, 1, 38, 89
5, 140276, Note_on_c, 1, 38, 0
5, 140352, Note_on_c, 1, 38, 91
5, 140468, Note_on_c, 1, 38, 0
5, 140480, Note_on_c, 1, 33, 95
5, 140532, Note_on_c, 1, 33, 0
5, 140672, Note_on_c, 1, 33, 94
5, 140724, Note_on_c, 1, 33, 0
5, 140736, Note_on_c, 1, 31, 99
5, 140852, Note_on_c, 1, 31, 0
5, 140864, Note_on_c, 1, 33, 98
5, 140916, Note_on_c, 1, 33, 0
5, 140928, Note_on_c, 1, 40, 92
5, 141108, Note_on_c, 1, 40, 0
5, 141120, Note_on_c, 1, 33, 98
5, 141300, Note_on_c, 1, 33, 0
5, 141312, Note_on_c, 1, 35, 85
5, 141428, Note_on_c, 1, 35, 0
5, 141632, Note_on_c, 1, 35, 89
5, 141684, Note_on_c, 1, 35, 0
5, 141696, Note_on_c, 1, 33, 96
5, 141812, Note_on_c, 1, 33, 0
5, 141888, Note_on_c, 1, 35, 89
5, 142004, Note_on_c, 1, 35, 0
5, 142016, Note_on_c, 1, 35, 95
5, 142068, Note_on_c, 1, 35, 0
5, 142208, Note_on_c, 1, 35, 89
5, 142260, Note_on_c, 1, 35, 0
5, 142272, Note_on_c, 1, 33, 92
5, 142388, Note_on_c, 1, 33, 0
5, 142400, Note_on_c, 1, 35, 92
5, 142452, Note_on_c, 1, 35, 0
5, 142464, Note_on_c, 1, 38, 94
5, 142644, Note_on_c, 1, 38, 0
5, 142656, Note_on_c, 1, 35, 97
5, 142836, Note_on_c, 1, 35, 0
5, 142848, Note_on_c, 1, 38, 92
5, 142964, Note_on_c, 1, 38, 0
5, 143168, Note_on_c, 1, 38, 85
5, 143220, Note_on_c, 1, 38, 0
5, 143232, Note_on_c, 1, 38, 89
5, 143348, Note_on_c, 1, 38, 0
5, 143424, Note_on_c, 1, 38, 91
5, 143540, Note_on_c, 1, 38, 0
5, 143552, Note_on_c, 1, 33, 95
5, 143604, Note_on_c, 1, 33, 0
5, 143744, Note_on_c, 1, 33, 94
5, 143796, Note_on_c, 1, 33, 0
5, 143808, Note_on_c, 1, 31, 99
5, 143924, Note_on_c, 1, 31, 0
5, 143936, Note_on_c, 1, 33, 98
5, 143988, Note_on_c, 1, 33, 0
5, 144000, Note_on_c, 1, 40, 92
5, 144180, Note_on_c, 1, 40, 0
5, 144192, Note_on_c, 1, 33, 98
5, 144372, Note_on_c, 1, 33, 0
5, 144384, Note_on_c, 1, 35, 85
5, 144500, Note_on_c, 1, 35, 0
5, 144704, Note_on_c, 1, 35, 89
5, 144756, Note_on_c, 1, 35, 0
5, 144768, Note_on_c, 1, 33, 96
5, 144884, Note_on_c, 1, 33, 0
5, 144960, Note_on_c, 1, 35, 89
5, 145076, Note_on_c, 1, 35, 0
5, 145088, Note_on_c, 1, 35, 95
5, 145140, Note_on_c, 1, 35, 0
5, 145280, Note_on_c, 1, 35, 89
5, 145332, Note_on_c, 1, 35, 0
5, 145344, Note_on_c, 1, 33, 92
5, 145460, Note_on_c, 1, 33, 0
5, 145472, Note_on_c, 1, 35, 92
5, 145524, Note_on_c, 1, 35, 0
5, 145536, Note_on_c, 1, 38, 94
5, 145716, Note_on_c, 1, 38, 0
5, 145728, Note_on_c, 1, 35, 97
5, 145908, Note_on_c, 1, 35, 0
5, 145920, Note_on_c, 1, 38, 92
5, 146036, Note_on_c, 1, 38, 0
5, 146240, Note_on_c, 1, 38, 85
5, 146292, Note_on_c, 1, 38, 0
5, 146304, Note_on_c, 1, 38, 89
5, 146420, Note_on_c, 1, 38, 0
5, 146496, Note_on_c, 1, 38, 91
5, 146612, Note_on_c, 1, 38, 0
5, 146624, Note_on_c, 1, 33, 95
5, 146676, Note_on_c, 1, 33, 0
5, 146816, Note_on_c, 1, 33, 94
5, 146868, Note_on_c, 1, 33, 0
5, 146880, Note_on_c, 1, 31, 99
5, 146996, Note_on_c, 1, 31, 0
5, 147008, Note_on_c, 1, 33, 98
5, 147060, Note_on_c, 1, 33, 0
5, 147072, Note_on_c, 1, 40, 92
5, 147252, Note_on_c, 1, 40, 0
5, 147264, Note_on_c, 1, 33, 98
5, 147444, Note_on_c, 1, 33, 0
5, 147456, Note_on_c, 1, 35, 85
5, 147572, Note_on_c, 1, 35, 0
5, 147776, Note_on_c, 1, 35, 89
5, 147828, Note_on_c, 1, 35, 0
5, 147840, Note_on_c, 1, 33, 96
5, 147956, Note_on_c, 1, 33, 0
5, 148032, Note_on_c, 1, 35, 89
5, 148148, Note_on_c, 1, 35, 0
5, 148160, Note_on_c, 1, 35, 95
5, 148212, Note_on_c, 1, 35, 0
5, 148352, Note_on_c, 1, 35, 89
5, 148404, Note_on_c, 1, 35, 0
5, 148416, Note_on_c, 1, 33, 92
5, 148532, Note_on_c, 1, 33, 0
5, 148544, Note_on_c, 1, 35, 92
5, 148596, Note_on_c, 1, 35, 0
5, 148608, Note_on_c, 1, 38, 94
5, 148788, Note_on_c, 1, 38, 0
5, 148800, Note_on_c, 1, 35, 97
5, 148980, Note_on_c, 1, 35, 0
5, 148992, Note_on_c, 1, 38, 92
5, 149108, Note_on_c, 1, 38, 0
5, 149312, Note_on_c, 1, 38, 85
5, 149364, Note_on_c, 1, 38, 0
5, 149376, Note_on_c, 1, 38, 89
5, 149492, Note_on_c, 1, 38, 0
5, 149568, Note_on_c, 1, 38, 91
5, 149684, Note_on_c, 1, 38, 0
5, 149696, Note_on_c, 1, 33, 95
5, 149748, Note_on_c, 1, 33, 0
5, 149888, Note_on_c, 1, 33, 94
5, 149940, Note_on_c, 1, 33, 0
5, 149952, Note_on_c, 1, 31, 99
5, 150068, Note_on_c, 1, 31, 0
5, 150080, Note_on_c, 1, 33, 98
5, 150132, Note_on_c, 1, 33, 0
5, 150144, Note_on_c, 1, 40, 92
5, 150324, Note_on_c, 1, 40, 0
5, 150336, Note_on_c, 1, 33, 98
5, 150516, Note_on_c, 1, 33, 0
5, 150528, Note_on_c, 1, 35, 85
5, 150644, Note_on_c, 1, 35, 0
5, 150848, Note_on_c, 1, 35, 89
5, 150900, Note_on_c, 1, 35, 0
5, 150912, Note_on_c, 1, 33, 96
5, 151028, Note_on_c, 1, 33, 0
5, 151104, Note_on_c, 1, 35, 89
5, 151220, Note_on_c, 1, 35, 0
5, 151232, Note_on_c, 1, 35, 95
5, 151284, Note_on_c, 1, 35, 0
5, 151424, Note_on_c, 1, 35, 89
5, 151476, Note_on_c, 1, 35, 0
5, 151488, Note_on_c, 1, 33, 92
5, 151604, Note_on_c, 1, 33, 0
5, 151616, Note_on_c, 1, 35, 92
5, 151668, Note_on_c, 1, 35, 0
5, 151680, Note_on_c, 1, 38, 94
5, 151860, Note_on_c, 1, 38, 0
5, 151872, Note_on_c, 1, 35, 97
5, 152052, Note_on_c, 1, 35, 0
5, 152064, Note_on_c, 1, 38, 92
5, 152180, Note_on_c, 1, 38, 0
5, 152384, Note_on_c, 1, 38, 85
5, 152436, Note_on_c, 1, 38, 0
5, 152448, Note_on_c, 1, 38, 89
5, 152564, Note_on_c, 1, 38, 0
5, 152640, Note_on_c, 1, 38, 91
5, 152756, Note_on_c, 1, 38, 0
5, 152768, Note_on_c, 1, 33, 95
5, 152820, Note_on_c, 1, 33, 0
5, 152960, Note_on_c, 1, 33, 94
5, 153012, Note_on_c, 1, 33, 0
5, 153024, Note_on_c, 1, 31, 99
5, 153140, Note_on_c, 1, 31, 0
5, 153152, Note_on_c, 1, 33, 98
5, 153204, Note_on_c, 1, 33, 0
5, 153216, Note_on_c, 1, 40, 92
5, 153396, Note_on_c, 1, 40, 0
5, 153408, Note_on_c, 1, 33, 98
5, 153588, Note_on_c, 1, 33, 0
5, 153600, Note_on_c, 1, 35, 85
5, 153716, Note_on_c, 1, 35, 0
5, 153920, Note_on_c, 1, 35, 89
5, 153972, Note_on_c, 1, 35, 0
5, 153984, Note_on_c, 1, 33, 96
5, 154100, Note_on_c, 1, 33, 0
5, 154176, Note_on_c, 1, 35, 89
5, 154292, Note_on_c, 1, 35, 0
5, 154304, Note_on_c, 1, 35, 95
5, 154356, Note_on_c, 1, 35, 0
5, 154496, Note_on_c, 1, 35, 89
5, 154548, Note_on_c, 1, 35, 0
5, 154560, Note_on_c, 1, 33, 92
5, 154676, Note_on_c, 1, 33, 0
5, 154688, Note_on_c, 1, 35, 92
5, 154740, Note_on_c, 1, 35, 0
5, 154752, Note_on_c, 1, 38, 94
5, 154932, Note_on_c, 1, 38, 0
5, 154944, Note_on_c, 1, 35, 97
5, 155124, Note_on_c, 1, 35, 0
5, 155136, Note_on_c, 1, 38, 92
5, 155252, Note_on_c, 1, 38, 0
5, 155456, Note_on_c, 1, 38, 85
5, 155508, Note_on_c, 1, 38, 0
5, 155520, Note_on_c, 1, 38, 89
5, 155636, Note_on_c, 1, 38, 0
5, 155712, Note_on_c, 1, 38, 91
5, 155828, Note_on_c, 1, 38, 0
5, 155840, Note_on_c, 1, 33, 95
5, 155892, Note_on_c, 1, 33, 0
5, 156032, Note_on_c, 1, 33, 94
5, 156084, Note_on_c, 1, 33, 0
5, 156096, Note_on_c, 1, 31, 99
5, 156212, Note_on_c, 1, 31, 0
5, 156224, Note_on_c, 1, 33, 98
5, 156276, Note_on_c, 1, 33, 0
5, 156288, Note_on_c, 1, 40, 92
5, 156468, Note_on_c, 1, 40, 0
5, 156480, Note_on_c, 1, 33, 98
5, 156660, Note_on_c, 1, 33, 0
5, 156672, Note_on_c, 1, 35, 85
5, 156788, Note_on_c, 1, 35, 0
5, 156992, Note_on_c, 1, 35, 89
5, 157044, Note_on_c, 1, 35, 0
5, 157056, Note_on_c, 1, 33, 96
5, 157172, Note_on_c, 1, 33, 0
5, 157248, Note_on_c, 1, 35, 89
5, 157364, Note_on_c, 1, 35, 0
5, 157376, Note_on_c, 1, 35, 95
5, 157428, Note_on_c, 1, 35, 0
5, 157568, Note_on_c, 1, 35, 89
5, 157620, Note_on_c, 1, 35, 0
5, 157632, Note_on_c, 1, 33, 92
5, 157748, Note_on_c, 1, 33, 0
5, 157760, Note_on_c, 1, 35, 92
5, 157812, Note_on_c, 1, 35, 0
5, 157824, Note_on_c, 1, 38, 94
5, 158004, Note_on_c, 1, 38, 0
5, 158016, Note_on_c, 1, 35, 97
5, 158196, Note_on_c, 1, 35, 0
5, 158208, Note_on_c, 1, 38, 92
5, 158324, Note_on_c, 1, 38, 0
5, 158528, Note_on_c, 1, 38, 85
5, 158580, Note_on_c, 1, 38, 0
5, 158592, Note_on_c, 1, 38, 89
5, 158708, Note_on_c, 1, 38, 0
5, 158784, Note_on_c, 1, 38, 91
5, 158900, Note_on_c, 1, 38, 0
5, 158912, Note_on_c, 1, 33, 95
5, 158964, Note_on_c, 1, 33, 0
5, 159104, Note_on_c, 1, 33, 94
5, 159156, Note_on_c, 1, 33, 0
5, 159168, Note_on_c, 1, 31, 99
5, 159284, Note_on_c, 1, 31, 0
5, 159296, Note_on_c, 1, 33, 98
5, 159348, Note_on_c, 1, 33, 0
5, 159360, Note_on_c, 1, 40, 92
5, 159540, Note_on_c, 1, 40, 0
5, 159552, Note_on_c, 1, 33, 98
5, 159732, Note_on_c, 1, 33, 0
5, 159744, Note_on_c, 1, 35, 85
5, 159860, Note_on_c, 1, 35, 0
5, 160064, Note_on_c, 1, 35, 89
5, 160116, Note_on_c, 1, 35, 0
5, 160128, Note_on_c, 1, 33, 96
5, 160244, Note_on_c, 1, 33, 0
5, 160320, Note_on_c, 1, 35, 89
5, 160436, Note_on_c, 1, 35, 0
5, 160448, Note_on_c, 1, 35, 95
5, 160500, Note_on_c, 1, 35, 0
5, 160640, Note_on_c, 1, 35, 89
5, 160692, Note_on_c, 1, 35, 0
5, 160704, Note_on_c, 1, 33, 92
5, 160820, Note_on_c, 1, 33, 0
5, 160832, Note_on_c, 1, 35, 92
5, 160884, Note_on_c, 1, 35, 0
5, 160896, Note_on_c, 1, 38, 94
5, 161076, Note_on_c, 1, 38, 0
5, 161088, Note_on_c, 1, 35, 97
5, 161268, Note_on_c, 1, 35, 0
5, 161280, Note_on_c, 1, 38, 92
5, 161396, Note_on_c, 1, 38, 0
5, 161600, Note_on_c, 1, 38, 85
5, 161652, Note_on_c, 1, 38, 0
5, 161664, Note_on_c, 1, 38, 89
5, 161780, Note_on_c, 1, 38, 0
5, 161856, Note_on_c, 1, 38, 91
5, 161972, Note_on_c, 1, 38, 0
5, 161984, Note_on_c, 1, 33, 95
5, 162036, Note_on_c, 1, 33, 0
5, 162176, Note_on_c, 1, 33, 94
5, 162228, Note_on_c, 1, 33, 0
5, 162240, Note_on_c, 1, 31, 99
5, 162356, Note_on_c, 1, 31, 0
5, 162368, Note_on_c, 1, 33, 98
5, 162420, Note_on_c, 1, 33, 0
5, 162432, Note_on_c, 1, 40, 92
5, 162612, Note_on_c, 1, 40, 0
5, 162624, Note_on_c, 1, 33, 98
5, 162804, Note_on_c, 1, 33, 0
5, 162816, Note_on_c, 1, 35, 84
5, 162932, Note_on_c, 1, 35, 0
5, 162944, Note_on_c, 1, 35, 88
5, 162996, Note_on_c, 1, 35, 0
5, 162996, End_track
6, 0, Start_track
6, 0, MIDI_port, 0
6, 0, Program_c, 2, 18
6, 0, Control_c, 2, 7, 77
6, 0, Control_c, 2, 10, 69
6, 0, Control_c, 2, 121, 0
6, 0, Control_c, 2, 91, 70
6, 0, Control_c, 2, 93, 0
6, 0, Note_on_c, 2, 66, 87
6, 0, Note_on_c, 2, 71, 79
6, 0, Note_on_c, 2, 74, 82
6, 116, Note_on_c, 2, 74, 0
6, 116, Note_on_c, 2, 71, 0
6, 116, Note_on_c, 2, 66, 0
6, 128, Note_on_c, 2, 66, 83
6, 128, Note_on_c, 2, 71, 79
6, 128, Note_on_c, 2, 74, 87
6, 244, Note_on_c, 2, 74, 0
6, 244, Note_on_c, 2, 71, 0
6, 244, Note_on_c, 2, 66, 0
6, 320, Note_on_c, 2, 66, 77
6, 320, Note_on_c, 2, 71, 79
6, 320, Note_on_c, 2, 74, 75
6, 372, Note_on_c, 2, 74, 0
6, 372, Note_on_c, 2, 71, 0
6, 372, Note_on_c, 2, 66, 0
6, 384, Note_on_c, 2, 66, 73
6, 384, Note_on_c, 2, 71, 75
6, 384, Note_on_c, 2, 74, 69
6, 500, Note_on_c, 2, 74, 0
6, 500, Note_on_c, 2, 71, 0
6, 500, Note_on_c, 2, 66, 0
6, 512, Note_on_c, 2, 66, 98
6, 512, Note_on_c, 2, 71, 97
6, 512, Note_on_c, 2, 74, 98
6, 564, Note_on_c, 2, 74, 0
6, 564, Note_on_c, 2, 71, 0
6, 564, Note_on_c, 2, 66, 0
6, 576, Note_on_c, 2, 66, 83
6, 576, Note_on_c, 2, 71, 79
6, 576, Note_on_c, 2, 74, 71
6, 692, Note_on_c, 2, 74, 0
6, 692, Note_on_c, 2, 71, 0
6, 692, Note_on_c, 2, 66, 0
6, 704, Note_on_c, 2, 66, 99
6, 704, Note_on_c, 2, 71, 100
6, 704, Note_on_c, 2, 74, 102
6, 756, Note_on_c, 2, 74, 0
6, 756, Note_on_c, 2, 71, 0
6, 756, Note_on_c, 2, 66, 0
6, 896, Note_on_c, 2, 66, 84
6, 896, Note_on_c, 2, 71, 85
6, 896, Note_on_c, 2, 74, 80
6, 948, Note_on_c, 2, 74, 0
6, 948, Note_on_c, 2, 71, 0
6, 948, Note_on_c, 2, 66, 0
6, 1088, Note_on_c, 2, 66, 88
6, 1088, Note_on_c, 2, 71, 75
6, 1088, Note_on_c, 2, 74, 84
6, 1140, Note_on_c, 2, 74, 0
6, 1140, Note_on_c, 2, 71, 0
6, 1140, Note_on_c, 2, 66, 0
6, 1280, Note_on_c, 2, 66, 77
6, 1280, Note_on_c, 2, 71, 78
6, 1280, Note_on_c, 2, 74, 68
6, 1332, Note_on_c, 2, 74, 0
6, 1332, Note_on_c, 2, 71, 0
6, 1332, Note_on_c, 2, 66, 0
6, 1344, Note_on_c, 2, 66, 88
6, 1344, Note_on_c, 2, 71, 77
6, 1344, Note_on_c, 2, 74, 78
6, 1460, Note_on_c, 2, 74, 0
6, 1460, Note_on_c, 2, 71, 0
6, 1460, Note_on_c, 2, 66, 0
6, 1472, Note_on_c, 2, 66, 98
6, 1472, Note_on_c, 2, 71, 97
6, 1472, Note_on_c, 2, 74, 96
6, 1524, Note_on_c, 2, 74, 0
6, 1524, Note_on_c, 2, 71, 0
6, 1524, Note_on_c, 2, 66, 0
6, 1536, Note_on_c, 2, 66, 82
6, 1536, Note_on_c, 2, 69, 104
6, 1536, Note_on_c, 2, 74, 77
6, 1652, Note_on_c, 2, 74, 0
6, 1652, Note_on_c, 2, 69, 0
6, 1652, Note_on_c, 2, 66, 0
6, 1664, Note_on_c, 2, 66, 86
6, 1664, Note_on_c, 2, 69, 97
6, 1664, Note_on_c, 2, 74, 84
6, 1780, Note_on_c, 2, 74, 0
6, 1780, Note_on_c, 2, 69, 0
6, 1780, Note_on_c, 2, 66, 0
6, 1856, Note_on_c, 2, 66, 88
6, 1856, Note_on_c, 2, 69, 98
6, 1856, Note_on_c, 2, 74, 81
6, 1908, Note_on_c, 2, 74, 0
6, 1908, Note_on_c, 2, 69, 0
6, 1908, Note_on_c, 2, 66, 0
6, 1920, Note_on_c, 2, 66, 71
6, 1920, Note_on_c, 2, 69, 87
6, 1920, Note_on_c, 2, 74, 64
6, 2036, Note_on_c, 2, 74, 0
6, 2036, Note_on_c, 2, 69, 0
6, 2036, Note_on_c, 2, 66, 0
6, 2048, Note_on_c, 2, 66, 90
6, 2048, Note_on_c, 2, 69, 98
6, 2048, Note_on_c, 2, 74, 91
6, 2100, Note_on_c, 2, 74, 0
6, 2100, Note_on_c, 2, 69, 0
6, 2100, Note_on_c, 2, 66, 0
6, 2112, Note_on_c, 2, 66, 83
6, 2112, Note_on_c, 2, 69, 87
6, 2112, Note_on_c, 2, 74, 69
6, 2228, Note_on_c, 2, 74, 0
6, 2228, Note_on_c, 2, 69, 0
6, 2228, Note_on_c, 2, 66, 0
6, 2240, Note_on_c, 2, 66, 92
6, 2240, Note_on_c, 2, 69, 98
6, 2240, Note_on_c, 2, 74, 88
6, 2292, Note_on_c, 2, 74, 0
6, 2292, Note_on_c, 2, 69, 0
6, 2292, Note_on_c, 2, 66, 0
6, 2304, Note_on_c, 2, 64, 97
6, 2304, Note_on_c, 2, 69, 100
6, 2304, Note_on_c, 2, 73, 88
6, 2484, Note_on_c, 2, 73, 0
6, 2484, Note_on_c, 2, 69, 0
6, 2484, Note_on_c, 2, 64, 0
6, 3072, Note_on_c, 2, 66, 87
6, 3072, Note_on_c, 2, 71, 79
6, 3072, Note_on_c, 2, 74, 82
6, 3188, Note_on_c, 2, 74, 0
6, 3188, Note_on_c, 2, 71, 0
6, 3188, Note_on_c, 2, 66, 0
6, 3200, Note_on_c, 2, 66, 83
6, 3200, Note_on_c, 2, 71, 79
6, 3200, Note_on_c, 2, 74, 87
6, 3316, Note_on_c, 2, 74, 0
6, 3316, Note_on_c, 2, 71, 0
6, 3316, Note_on_c, 2, 66, 0
6, 3392, Note_on_c, 2, 66, 77
6, 3392, Note_on_c, 2, 71, 79
6, 3392, Note_on_c, 2, 74, 75
6, 3444, Note_on_c, 2, 74, 0
6, 3444, Note_on_c, 2, 71, 0
6, 3444, Note_on_c, 2, 66, 0
6, 3456, Note_on_c, 2, 66, 73
6, 3456, Note_on_c, 2, 71, 75
6, 3456, Note_on_c, 2, 74, 69
6, 3572, Note_on_c, 2, 74, 0
6, 3572, Note_on_c, 2, 71, 0
6, 3572, Note_on_c, 2, 66, 0
6, 3584, Note_on_c, 2, 66, 98
6, 3584, Note_on_c, 2, 71, 97
6, 3584, Note_on_c, 2, 74, 98
6, 3636, Note_on_c, 2, 74, 0
6, 3636, Note_on_c, 2, 71, 0
6, 3636, Note_on_c, 2, 66, 0
6, 3648, Note_on_c, 2, 66, 83
6, 3648, Note_on_c, 2, 71, 79
6, 3648, Note_on_c, 2, 74, 71
6, 3764, Note_on_c, 2, 74, 0
6, 3764, Note_on_c, 2, 71, 0
6, 3764, Note_on_c, 2, 66, 0
6, 3776, Note_on_c, 2, 66, 99
6, 3776, Note_on_c, 2, 71, 100
6, 3776, Note_on_c, 2, 74, 102
6, 3828, Note_on_c, 2, 74, 0
6, 3828, Note_on_c, 2, 71, 0
6, 3828, Note_on_c, 2, 66, 0
6, 3968, Note_on_c, 2, 66, 84
6, 3968, Note_on_c, 2, 71, 85
6, 3968, Note_on_c, 2, 74, 80
6, 4020, Note_on_c, 2, 74, 0
6, 4020, Note_on_c, 2, 71, 0
6, 4020, Note_on_c, 2, 66, 0
6, 4160, Note_on_c, 2, 66, 88
6, 4160, Note_on_c, 2, 71, 75
6, 4160, Note_on_c, 2, 74, 84
6, 4212, Note_on_c, 2, 74, 0
6, 4212, Note_on_c, 2, 71, 0
6, 4212, Note_on_c, 2, 66, 0
6, 4352, Note_on_c, 2, 66, 77
6, 4352, Note_on_c, 2, 71, 78
6, 4352, Note_on_c, 2, 74, 68
6, 4404, Note_on_c, 2, 74, 0
6, 4404, Note_on_c, 2, 71, 0
6, 4404, Note_on_c, 2, 66, 0
6, 4416, Note_on_c, 2, 66, 88
6, 4416, Note_on_c, 2, 71, 77
6, 4416, Note_on_c, 2, 74, 78
6, 4532, Note_on_c, 2, 74, 0
6, 4532, Note_on_c, 2, 71, 0
6, 4532, Note_on_c, 2, 66, 0
6, 4544, Note_on_c, 2, 66, 98
6, 4544, Note_on_c, 2, 71, 97
6, 4544, Note_on_c, 2, 74, 96
6, 4596, Note_on_c, 2, 74, 0
6, 4596, Note_on_c, 2, 71, 0
6, 4596, Note_on_c, 2, 66, 0
6, 4608, Note_on_c, 2, 66, 82
6, 4608, Note_on_c, 2, 69, 104
6, 4608, Note_on_c, 2, 74, 77
6, 4724, Note_on_c, 2, 74, 0
6, 4724, Note_on_c, 2, 69, 0
6, 4724, Note_on_c, 2, 66, 0
6, 4736, Note_on_c, 2, 66, 86
6, 4736, Note_on_c, 2, 69, 97
6, 4736, Note_on_c, 2, 74, 84
6, 4852, Note_on_c, 2, 74, 0
6, 4852, Note_on_c, 2, 69, 0
6, 4852, Note_on_c, 2, 66, 0
6, 4928, Note_on_c, 2, 66, 88
6, 4928, Note_on_c, 2, 69, 98
6, 4928, Note_on_c, 2, 74, 81
6, 4980, Note_on_c, 2, 74, 0
6, 4980, Note_on_c, 2, 69, 0
6, 4980, Note_on_c, 2, 66, 0
6, 4992, Note_on_c, 2, 66, 71
6, 4992, Note_on_c, 2, 69, 87
6, 4992, Note_on_c, 2, 74, 64
6, 5108, Note_on_c, 2, 74, 0
6, 5108, Note_on_c, 2, 69, 0
6, 5108, Note_on_c, 2, 66, 0
6, 5120, Note_on_c, 2, 66, 90
6, 5120, Note_on_c, 2, 69, 98
6, 5120, Note_on_c, 2, 74, 91
6, 5172, Note_on_c, 2, 74, 0
6, 5172, Note_on_c, 2, 69, 0
6, 5172, Note_on_c, 2, 66, 0
6, 5184, Note_on_c, 2, 66, 83
6, 5184, Note_on_c, 2, 69, 87
6, 5184, Note_on_c, 2, 74, 69
6, 5300, Note_on_c, 2, 74, 0
6, 5300, Note_on_c, 2, 69, 0
6, 5300, Note_on_c, 2, 66, 0
6, 5312, Note_on_c, 2, 66, 92
6, 5312, Note_on_c, 2, 69, 98
6, 5312, Note_on_c, 2, 74, 88
6, 5364, Note_on_c, 2, 74, 0
6, 5364, Note_on_c, 2, 69, 0
6, 5364, Note_on_c, 2, 66, 0
6, 5376, Note_on_c, 2, 64, 97
6, 5376, Note_on_c, 2, 69, 100
6, 5376, Note_on_c, 2, 73, 88
6, 5556, Note_on_c, 2, 73, 0
6, 5556, Note_on_c, 2, 69, 0
6, 5556, Note_on_c, 2, 64, 0
6, 24576, Note_on_c, 2, 66, 86
6, 24576, Note_on_c, 2, 78, 77
6, 24692, Note_on_c, 2, 78, 0
6, 24692, Note_on_c, 2, 66, 0
6, 24896, Note_on_c, 2, 66, 95
6, 24896, Note_on_c, 2, 78, 88
6, 25012, Note_on_c, 2, 78, 0
6, 25012, Note_on_c, 2, 66, 0
6, 25152, Note_on_c, 2, 66, 87
6, 25152, Note_on_c, 2, 78, 90
6, 25268, Note_on_c, 2, 78, 0
6, 25268, Note_on_c, 2, 66, 0
6, 25472, Note_on_c, 2, 66, 90
6, 25472, Note_on_c, 2, 78, 86
6, 25588, Note_on_c, 2, 78, 0
6, 25588, Note_on_c, 2, 66, 0
6, 25728, Note_on_c, 2, 66, 85
6, 25728, Note_on_c, 2, 78, 86
6, 25844, Note_on_c, 2, 78, 0
6, 25844, Note_on_c, 2, 66, 0
6, 25920, Note_on_c, 2, 66, 83
6, 25920, Note_on_c, 2, 78, 74
6, 26036, Note_on_c, 2, 78, 0
6, 26036, Note_on_c, 2, 66, 0
6, 26112, Note_on_c, 2, 66, 86
6, 26112, Note_on_c, 2, 78, 77
6, 26228, Note_on_c, 2, 78, 0
6, 26228, Note_on_c, 2, 66, 0
6, 26432, Note_on_c, 2, 66, 95
6, 26432, Note_on_c, 2, 78, 88
6, 26548, Note_on_c, 2, 78, 0
6, 26548, Note_on_c, 2, 66, 0
6, 26688, Note_on_c, 2, 66, 87
6, 26688, Note_on_c, 2, 78, 90
6, 26804, Note_on_c, 2, 78, 0
6, 26804, Note_on_c, 2, 66, 0
6, 27008, Note_on_c, 2, 66, 90
6, 27008, Note_on_c, 2, 78, 86
6, 27124, Note_on_c, 2, 78, 0
6, 27124, Note_on_c, 2, 66, 0
6, 27264, Note_on_c, 2, 66, 85
6, 27264, Note_on_c, 2, 78, 86
6, 27380, Note_on_c, 2, 78, 0
6, 27380, Note_on_c, 2, 66, 0
6, 27456, Note_on_c, 2, 66, 83
6, 27456, Note_on_c, 2, 78, 74
6, 27572, Note_on_c, 2, 78, 0
6, 27572, Note_on_c, 2, 66, 0
6, 27648, Note_on_c, 2, 66, 86
6, 27648, Note_on_c, 2, 78, 77
6, 27764, Note_on_c, 2, 78, 0
6, 27764, Note_on_c, 2, 66, 0
6, 27968, Note_on_c, 2, 66, 95
6, 27968, Note_on_c, 2, 78, 88
6, 28084, Note_on_c, 2, 78, 0
6, 28084, Note_on_c, 2, 66, 0
6, 28224, Note_on_c, 2, 66, 87
6, 28224, Note_on_c, 2, 78, 90
6, 28340, Note_on_c, 2, 78, 0
6, 28340, Note_on_c, 2, 66, 0
6, 28544, Note_on_c, 2, 66, 90
6, 28544, Note_on_c, 2, 78, 86
6, 28660, Note_on_c, 2, 78, 0
6, 28660, Note_on_c, 2, 66, 0
6, 28800, Note_on_c, 2, 66, 85
6, 28800, Note_on_c, 2, 78, 86
6, 28916, Note_on_c, 2, 78, 0
6, 28916, Note_on_c, 2, 66, 0
6, 28992, Note_on_c, 2, 66, 83
6, 28992, Note_on_c, 2, 78, 74
6, 29108, Note_on_c, 2, 78, 0
6, 29108, Note_on_c, 2, 66, 0
6, 29184, Note_on_c, 2, 66, 86
6, 29184, Note_on_c, 2, 78, 77
6, 29300, Note_on_c, 2, 78, 0
6, 29300, Note_on_c, 2, 66, 0
6, 29504, Note_on_c, 2, 66, 95
6, 29504, Note_on_c, 2, 78, 88
6, 29620, Note_on_c, 2, 78, 0
6, 29620, Note_on_c, 2, 66, 0
6, 29760, Note_on_c, 2, 66, 87
6, 29760, Note_on_c, 2, 78, 90
6, 29876, Note_on_c, 2, 78, 0
6, 29876, Note_on_c, 2, 66, 0
6, 30080, Note_on_c, 2, 66, 90
6, 30080, Note_on_c, 2, 78, 86
6, 30196, Note_on_c, 2, 78, 0
6, 30196, Note_on_c, 2, 66, 0
6, 30336, Note_on_c, 2, 66, 85
6, 30336, Note_on_c, 2, 78, 86
6, 30452, Note_on_c, 2, 78, 0
6, 30452, Note_on_c, 2, 66, 0
6, 30528, Note_on_c, 2, 66, 83
6, 30528, Note_on_c, 2, 78, 74
6, 30644, Note_on_c, 2, 78, 0
6, 30644, Note_on_c, 2, 66, 0
6, 30720, Note_on_c, 2, 66, 86
6, 30720, Note_on_c, 2, 78, 77
6, 30836, Note_on_c, 2, 78, 0
6, 30836, Note_on_c, 2, 66, 0
6, 31040, Note_on_c, 2, 66, 95
6, 31040, Note_on_c, 2, 78, 88
6, 31156, Note_on_c, 2, 78, 0
6, 31156, Note_on_c, 2, 66, 0
6, 31296, Note_on_c, 2, 66, 87
6, 31296, Note_on_c, 2, 78, 90
6, 31412, Note_on_c, 2, 78, 0
6, 31412, Note_on_c, 2, 66, 0
6, 31616, Note_on_c, 2, 66, 90
6, 31616, Note_on_c, 2, 78, 86
6, 31732, Note_on_c, 2, 78, 0
6, 31732, Note_on_c, 2, 66, 0
6, 31872, Note_on_c, 2, 66, 85
6, 31872, Note_on_c, 2, 78, 86
6, 31988, Note_on_c, 2, 78, 0
6, 31988, Note_on_c, 2, 66, 0
6, 32064, Note_on_c, 2, 66, 83
6, 32064, Note_on_c, 2, 78, 74
6, 32180, Note_on_c, 2, 78, 0
6, 32180, Note_on_c, 2, 66, 0
6, 32256, Note_on_c, 2, 66, 86
6, 32256, Note_on_c, 2, 78, 77
6, 32372, Note_on_c, 2, 78, 0
6, 32372, Note_on_c, 2, 66, 0
6, 32576, Note_on_c, 2, 66, 95
6, 32576, Note_on_c, 2, 78, 88
6, 32692, Note_on_c, 2, 78, 0
6, 32692, Note_on_c, 2, 66, 0
6, 32832, Note_on_c, 2, 66, 87
6, 32832, Note_on_c, 2, 78, 90
6, 32948, Note_on_c, 2, 78, 0
6, 32948, Note_on_c, 2, 66, 0
6, 33152, Note_on_c, 2, 66, 90
6, 33152, Note_on_c, 2, 78, 86
6, 33268, Note_on_c, 2, 78, 0
6, 33268, Note_on_c, 2, 66, 0
6, 33408, Note_on_c, 2, 66, 85
6, 33408, Note_on_c, 2, 78, 86
6, 33524, Note_on_c, 2, 78, 0
6, 33524, Note_on_c, 2, 66, 0
6, 33600, Note_on_c, 2, 66, 83
6, 33600, Note_on_c, 2, 78, 74
6, 33716, Note_on_c, 2, 78, 0
6, 33716, Note_on_c, 2, 66, 0
6, 33792, Note_on_c, 2, 66, 86
6, 33792, Note_on_c, 2, 78, 77
6, 33908, Note_on_c, 2, 78, 0
6, 33908, Note_on_c, 2, 66, 0
6, 34112, Note_on_c, 2, 66, 95
6, 34112, Note_on_c, 2, 78, 88
6, 34228, Note_on_c, 2, 78, 0
6, 34228, Note_on_c, 2, 66, 0
6, 34368, Note_on_c, 2, 66, 87
6, 34368, Note_on_c, 2, 78, 90
6, 34484, Note_on_c, 2, 78, 0
6, 34484, Note_on_c, 2, 66, 0
6, 34688, Note_on_c, 2, 66, 90
6, 34688, Note_on_c, 2, 78, 86
6, 34804, Note_on_c, 2, 78, 0
6, 34804, Note_on_c, 2, 66, 0
6, 34944, Note_on_c, 2, 66, 85
6, 34944, Note_on_c, 2, 78, 86
6, 35060, Note_on_c, 2, 78, 0
6, 35060, Note_on_c, 2, 66, 0
6, 35136, Note_on_c, 2, 66, 83
6, 35136, Note_on_c, 2, 78, 74
6, 35252, Note_on_c, 2, 78, 0
6, 35252, Note_on_c, 2, 66, 0
6, 35328, Note_on_c, 2, 66, 86
6, 35328, Note_on_c, 2, 78, 77
6, 35444, Note_on_c, 2, 78, 0
6, 35444, Note_on_c, 2, 66, 0
6, 35648, Note_on_c, 2, 66, 95
6, 35648, Note_on_c, 2, 78, 88
6, 35764, Note_on_c, 2, 78, 0
6, 35764, Note_on_c, 2, 66, 0
6, 35904, Note_on_c, 2, 66, 87
6, 35904, Note_on_c, 2, 78, 90
6, 36020, Note_on_c, 2, 78, 0
6, 36020, Note_on_c, 2, 66, 0
6, 36224, Note_on_c, 2, 66, 90
6, 36224, Note_on_c, 2, 78, 86
6, 36340, Note_on_c, 2, 78, 0
6, 36340, Note_on_c, 2, 66, 0
6, 36480, Note_on_c, 2, 66, 85
6, 36480, Note_on_c, 2, 78, 86
6, 36596, Note_on_c, 2, 78, 0
6, 36596, Note_on_c, 2, 66, 0
6, 36672, Note_on_c, 2, 66, 83
6, 36672, Note_on_c, 2, 78, 74
6, 36788, Note_on_c, 2, 78, 0
6, 36788, Note_on_c, 2, 66, 0
6, 36864, Note_on_c, 2, 66, 87
6, 36864, Note_on_c, 2, 71, 79
6, 36864, Note_on_c, 2, 74, 82
6, 36980, Note_on_c, 2, 74, 0
6, 36980, Note_on_c, 2, 71, 0
6, 36980, Note_on_c, 2, 66, 0
6, 36992, Note_on_c, 2, 66, 83
6, 36992, Note_on_c, 2, 71, 79
6, 36992, Note_on_c, 2, 74, 87
6, 37108, Note_on_c, 2, 74, 0
6, 37108, Note_on_c, 2, 71, 0
6, 37108, Note_on_c, 2, 66, 0
6, 37184, Note_on_c, 2, 66, 77
6, 37184, Note_on_c, 2, 71, 79
6, 37184, Note_on_c, 2, 74, 75
6, 37236, Note_on_c, 2, 74, 0
6, 37236, Note_on_c, 2, 71, 0
6, 37236, Note_on_c, 2, 66, 0
6, 37248, Note_on_c, 2, 66, 73
6, 37248, Note_on_c, 2, 71, 75
6, 37248, Note_on_c, 2, 74, 69
6, 37364, Note_on_c, 2, 74, 0
6, 37364, Note_on_c, 2, 71, 0
6, 37364, Note_on_c, 2, 66, 0
6, 37376, Note_on_c, 2, 66, 98
6, 37376, Note_on_c, 2, 71, 97
6, 37376, Note_on_c, 2, 74, 98
6, 37428, Note_on_c, 2, 74, 0
6, 37428, Note_on_c, 2, 71, 0
6, 37428, Note_on_c, 2, 66, 0
6, 37440, Note_on_c, 2, 66, 83
6, 37440, Note_on_c, 2, 71, 79
6, 37440, Note_on_c, 2, 74, 71
6, 37556, Note_on_c, 2, 74, 0
6, 37556, Note_on_c, 2, 71, 0
6, 37556, Note_on_c, 2, 66, 0
6, 37568, Note_on_c, 2, 66, 99
6, 37568, Note_on_c, 2, 71, 100
6, 37568, Note_on_c, 2, 74, 102
6, 37620, Note_on_c, 2, 74, 0
6, 37620, Note_on_c, 2, 71, 0
6, 37620, Note_on_c, 2, 66, 0
6, 37760, Note_on_c, 2, 66, 84
6, 37760, Note_on_c, 2, 71, 85
6, 37760, Note_on_c, 2, 74, 80
6, 37812, Note_on_c, 2, 74, 0
6, 37812, Note_on_c, 2, 71, 0
6, 37812, Note_on_c, 2, 66, 0
6, 37952, Note_on_c, 2, 66, 88
6, 37952, Note_on_c, 2, 71, 75
6, 37952, Note_on_c, 2, 74, 84
6, 38004, Note_on_c, 2, 74, 0
6, 38004, Note_on_c, 2, 71, 0
6, 38004, Note_on_c, 2, 66, 0
6, 38144, Note_on_c, 2, 66, 77
6, 38144, Note_on_c, 2, 71, 78
6, 38144, Note_on_c, 2, 74, 68
6, 38196, Note_on_c, 2, 74, 0
6, 38196, Note_on_c, 2, 71, 0
6, 38196, Note_on_c, 2, 66, 0
6, 38208, Note_on_c, 2, 66, 88
6, 38208, Note_on_c, 2, 71, 77
6, 38208, Note_on_c, 2, 74, 78
6, 38324, Note_on_c, 2, 74, 0
6, 38324, Note_on_c, 2, 71, 0
6, 38324, Note_on_c, 2, 66, 0
6, 38336, Note_on_c, 2, 66, 98
6, 38336, Note_on_c, 2, 71, 97
6, 38336, Note_on_c, 2, 74, 96
6, 38388, Note_on_c, 2, 74, 0
6, 38388, Note_on_c, 2, 71, 0
6, 38388, Note_on_c, 2, 66, 0
6, 38400, Note_on_c, 2, 66, 82
6, 38400, Note_on_c, 2, 69, 104
6, 38400, Note_on_c, 2, 74, 77
6, 38516, Note_on_c, 2, 74, 0
6, 38516, Note_on_c, 2, 69, 0
6, 38516, Note_on_c, 2, 66, 0
6, 38528, Note_on_c, 2, 66, 86
6, 38528, Note_on_c, 2, 69, 97
6, 38528, Note_on_c, 2, 74, 84
6, 38644, Note_on_c, 2, 74, 0
6, 38644, Note_on_c, 2, 69, 0
6, 38644, Note_on_c, 2, 66, 0
6, 38720, Note_on_c, 2, 66, 88
6, 38720, Note_on_c, 2, 69, 98
6, 38720, Note_on_c, 2, 74, 81
6, 38772, Note_on_c, 2, 74, 0
6, 38772, Note_on_c, 2, 69, 0
6, 38772, Note_on_c, 2, 66, 0
6, 38784, Note_on_c, 2, 66, 71
6, 38784, Note_on_c, 2, 69, 87
6, 38784, Note_on_c, 2, 74, 64
6, 38900, Note_on_c, 2, 74, 0
6, 38900, Note_on_c, 2, 69, 0
6, 38900, Note_on_c, 2, 66, 0
6, 38912, Note_on_c, 2, 66, 90
6, 38912, Note_on_c, 2, 69, 98
6, 38912, Note_on_c, 2, 74, 91
6, 38964, Note_on_c, 2, 74, 0
6, 38964, Note_on_c, 2, 69, 0
6, 38964, Note_on_c, 2, 66, 0
6, 38976, Note_on_c, 2, 66, 83
6, 38976, Note_on_c, 2, 69, 87
6, 38976, Note_on_c, 2, 74, 69
6, 39092, Note_on_c, 2, 74, 0
6, 39092, Note_on_c, 2, 69, 0
6, 39092, Note_on_c, 2, 66, 0
6, 39104, Note_on_c, 2, 66, 92
6, 39104, Note_on_c, 2, 69, 98
6, 39104, Note_on_c, 2, 74, 88
6, 39156, Note_on_c, 2, 74, 0
6, 39156, Note_on_c, 2, 69, 0
6, 39156, Note_on_c, 2, 66, 0
6, 39168, Note_on_c, 2, 64, 97
6, 39168, Note_on_c, 2, 69, 100
6, 39168, Note_on_c, 2, 73, 88
6, 39348, Note_on_c, 2, 73, 0
6, 39348, Note_on_c, 2, 69, 0
6, 39348, Note_on_c, 2, 64, 0
6, 39936, Note_on_c, 2, 66, 87
6, 39936, Note_on_c, 2, 71, 79
6, 39936, Note_on_c, 2, 74, 82
6, 40052, Note_on_c, 2, 74, 0
6, 40052, Note_on_c, 2, 71, 0
6, 40052, Note_on_c, 2, 66, 0
6, 40064, Note_on_c, 2, 66, 83
6, 40064, Note_on_c, 2, 71, 79
6, 40064, Note_on_c, 2, 74, 87
6, 40180, Note_on_c, 2, 74, 0
6, 40180, Note_on_c, 2, 71, 0
6, 40180, Note_on_c, 2, 66, 0
6, 40256, Note_on_c, 2, 66, 77
6, 40256, Note_on_c, 2, 71, 79
6, 40256, Note_on_c, 2, 74, 75
6, 40308, Note_on_c, 2, 74, 0
6, 40308, Note_on_c, 2, 71, 0
6, 40308, Note_on_c, 2, 66, 0
6, 40320, Note_on_c, 2, 66, 73
6, 40320, Note_on_c, 2, 71, 75
6, 40320, Note_on_c, 2, 74, 69
6, 40436, Note_on_c, 2, 74, 0
6, 40436, Note_on_c, 2, 71, 0
6, 40436, Note_on_c, 2, 66, 0
6, 40448, Note_on_c, 2, 66, 98
6, 40448, Note_on_c, 2, 71, 97
6, 40448, Note_on_c, 2, 74, 98
6, 40500, Note_on_c, 2, 74, 0
6, 40500, Note_on_c, 2, 71, 0
6, 40500, Note_on_c, 2, 66, 0
6, 40512, Note_on_c, 2, 66, 83
6, 40512, Note_on_c, 2, 71, 79
6, 40512, Note_on_c, 2, 74, 71
6, 40628, Note_on_c, 2, 74, 0
6, 40628, Note_on_c, 2, 71, 0
6, 40628, Note_on_c, 2, 66, 0
6, 40640, Note_on_c, 2, 66, 99
6, 40640, Note_on_c, 2, 71, 100
6, 40640, Note_on_c, 2, 74, 102
6, 40692, Note_on_c, 2, 74, 0
6, 40692, Note_on_c, 2, 71, 0
6, 40692, Note_on_c, 2, 66, 0
6, 40832, Note_on_c, 2, 66, 84
6, 40832, Note_on_c, 2, 71, 85
6, 40832, Note_on_c, 2, 74, 80
6, 40884, Note_on_c, 2, 74, 0
6, 40884, Note_on_c, 2, 71, 0
6, 40884, Note_on_c, 2, 66, 0
6, 41024, Note_on_c, 2, 66, 88
6, 41024, Note_on_c, 2, 71, 75
6, 41024, Note_on_c, 2, 74, 84
6, 41076, Note_on_c, 2, 74, 0
6, 41076, Note_on_c, 2, 71, 0
6, 41076, Note_on_c, 2, 66, 0
6, 41216, Note_on_c, 2, 66, 77
6, 41216, Note_on_c, 2, 71, 78
6, 41216, Note_on_c, 2, 74, 68
6, 41268, Note_on_c, 2, 74, 0
6, 41268, Note_on_c, 2, 71, 0
6, 41268, Note_on_c, 2, 66, 0
6, 41280, Note_on_c, 2, 66, 88
6, 41280, Note_on_c, 2, 71, 77
6, 41280, Note_on_c, 2, 74, 78
6, 41396, Note_on_c, 2, 74, 0
6, 41396, Note_on_c, 2, 71, 0
6, 41396, Note_on_c, 2, 66, 0
6, 41408, Note_on_c, 2, 66, 98
6, 41408, Note_on_c, 2, 71, 97
6, 41408, Note_on_c, 2, 74, 96
6, 41460, Note_on_c, 2, 74, 0
6, 41460, Note_on_c, 2, 71, 0
6, 41460, Note_on_c, 2, 66, 0
6, 41472, Note_on_c, 2, 66, 82
6, 41472, Note_on_c, 2, 69, 104
6, 41472, Note_on_c, 2, 74, 77
6, 41588, Note_on_c, 2, 74, 0
6, 41588, Note_on_c, 2, 69, 0
6, 41588, Note_on_c, 2, 66, 0
6, 41600, Note_on_c, 2, 66, 86
6, 41600, Note_on_c, 2, 69, 97
6, 41600, Note_on_c, 2, 74, 84
6, 41716, Note_on_c, 2, 74, 0
6, 41716, Note_on_c, 2, 69, 0
6, 41716, Note_on_c, 2, 66, 0
6, 41792, Note_on_c, 2, 66, 88
6, 41792, Note_on_c, 2, 69, 98
6, 41792, Note_on_c, 2, 74, 81
6, 41844, Note_on_c, 2, 74, 0
6, 41844, Note_on_c, 2, 69, 0
6, 41844, Note_on_c, 2, 66, 0
6, 41856, Note_on_c, 2, 66, 71
6, 41856, Note_on_c, 2, 69, 87
6, 41856, Note_on_c, 2, 74, 64
6, 41972, Note_on_c, 2, 74, 0
6, 41972, Note_on_c, 2, 69, 0
6, 41972, Note_on_c, 2, 66, 0
6, 41984, Note_on_c, 2, 66, 90
6, 41984, Note_on_c, 2, 69, 98
6, 41984, Note_on_c, 2, 74, 91
6, 42036, Note_on_c, 2, 74, 0
6, 42036, Note_on_c, 2, 69, 0
6, 42036, Note_on_c, 2, 66, 0
6, 42048, Note_on_c, 2, 66, 83
6, 42048, Note_on_c, 2, 69, 87
6, 42048, Note_on_c, 2, 74, 69
6, 42164, Note_on_c, 2, 74, 0
6, 42164, Note_on_c, 2, 69, 0
6, 42164, Note_on_c, 2, 66, 0
6, 42176, Note_on_c, 2, 66, 92
6, 42176, Note_on_c, 2, 69, 98
6, 42176, Note_on_c, 2, 74, 88
6, 42228, Note_on_c, 2, 74, 0
6, 42228, Note_on_c, 2, 69, 0
6, 42228, Note_on_c, 2, 66, 0
6, 42240, Note_on_c, 2, 64, 97
6, 42240, Note_on_c, 2, 69, 100
6, 42240, Note_on_c, 2, 73, 88
6, 42420, Note_on_c, 2, 73, 0
6, 42420, Note_on_c, 2, 69, 0
6, 42420, Note_on_c, 2, 64, 0
6, 43008, Note_on_c, 2, 66, 87
6, 43008, Note_on_c, 2, 71, 79
6, 43008, Note_on_c, 2, 74, 82
6, 43124, Note_on_c, 2, 74, 0
6, 43124, Note_on_c, 2, 71, 0
6, 43124, Note_on_c, 2, 66, 0
6, 43136, Note_on_c, 2, 66, 83
6, 43136, Note_on_c, 2, 71, 79
6, 43136, Note_on_c, 2, 74, 87
6, 43252, Note_on_c, 2, 74, 0
6, 43252, Note_on_c, 2, 71, 0
6, 43252, Note_on_c, 2, 66, 0
6, 43328, Note_on_c, 2, 66, 77
6, 43328, Note_on_c, 2, 71, 79
6, 43328, Note_on_c, 2, 74, 75
6, 43380, Note_on_c, 2, 74, 0
6, 43380, Note_on_c, 2, 71, 0
6, 43380, Note_on_c, 2, 66, 0
6, 43392, Note_on_c, 2, 66, 73
6, 43392, Note_on_c, 2, 71, 75
6, 43392, Note_on_c, 2, 74, 69
6, 43508, Note_on_c, 2, 74, 0
6, 43508, Note_on_c, 2, 71, 0
6, 43508, Note_on_c, 2, 66, 0
6, 43520, Note_on_c, 2, 66, 98
6, 43520, Note_on_c, 2, 71, 97
6, 43520, Note_on_c, 2, 74, 98
6, 43572, Note_on_c, 2, 74, 0
6, 43572, Note_on_c, 2, 71, 0
6, 43572, Note_on_c, 2, 66, 0
6, 43584, Note_on_c, 2, 66, 83
6, 43584, Note_on_c, 2, 71, 79
6, 43584, Note_on_c, 2, 74, 71
6, 43700, Note_on_c, 2, 74, 0
6, 43700, Note_on_c, 2, 71, 0
6, 43700, Note_on_c, 2, 66, 0
6, 43712, Note_on_c, 2, 66, 99
6, 43712, Note_on_c, 2, 71, 100
6, 43712, Note_on_c, 2, 74, 102
6, 43764, Note_on_c, 2, 74, 0
6, 43764, Note_on_c, 2, 71, 0
6, 43764, Note_on_c, 2, 66, 0
6, 43904, Note_on_c, 2, 66, 84
6, 43904, Note_on_c, 2, 71, 85
6, 43904, Note_on_c, 2, 74, 80
6, 43956, Note_on_c, 2, 74, 0
6, 43956, Note_on_c, 2, 71, 0
6, 43956, Note_on_c, 2, 66, 0
6, 44096, Note_on_c, 2, 66, 88
6, 44096, Note_on_c, 2, 71, 75
6, 44096, Note_on_c, 2, 74, 84
6, 44148, Note_on_c, 2, 74, 0
6, 44148, Note_on_c, 2, 71, 0
6, 44148, Note_on_c, 2, 66, 0
6, 44288, Note_on_c, 2, 66, 77
6, 44288, Note_on_c, 2, 71, 78
6, 44288, Note_on_c, 2, 74, 68
6, 44340, Note_on_c, 2, 74, 0
6, 44340, Note_on_c, 2, 71, 0
6, 44340, Note_on_c, 2, 66, 0
6, 44352, Note_on_c, 2, 66, 88
6, 44352, Note_on_c, 2, 71, 77
6, 44352, Note_on_c, 2, 74, 78
6, 44468, Note_on_c, 2, 74, 0
6, 44468, Note_on_c, 2, 71, 0
6, 44468, Note_on_c, 2, 66, 0
6, 44480, Note_on_c, 2, 66, 98
6, 44480, Note_on_c, 2, 71, 97
6, 44480, Note_on_c, 2, 74, 96
6, 44532, Note_on_c, 2, 74, 0
6, 44532, Note_on_c, 2, 71, 0
6, 44532, Note_on_c, 2, 66, 0
6, 44544, Note_on_c, 2, 66, 82
6, 44544, Note_on_c, 2, 69, 104
6, 44544, Note_on_c, 2, 74, 77
6, 44660, Note_on_c, 2, 74, 0
6, 44660, Note_on_c, 2, 69, 0
6, 44660, Note_on_c, 2, 66, 0
6, 44672, Note_on_c, 2, 66, 86
6, 44672, Note_on_c, 2, 69, 97
6, 44672, Note_on_c, 2, 74, 84
6, 44788, Note_on_c, 2, 74, 0
6, 44788, Note_on_c, 2, 69, 0
6, 44788, Note_on_c, 2, 66, 0
6, 44864, Note_on_c, 2, 66, 88
6, 44864, Note_on_c, 2, 69, 98
6, 44864, Note_on_c, 2, 74, 81
6, 44916, Note_on_c, 2, 74, 0
6, 44916, Note_on_c, 2, 69, 0
6, 44916, Note_on_c, 2, 66, 0
6, 44928, Note_on_c, 2, 66, 71
6, 44928, Note_on_c, 2, 69, 87
6, 44928, Note_on_c, 2, 74, 64
6, 45044, Note_on_c, 2, 74, 0
6, 45044, Note_on_c, 2, 69, 0
6, 45044, Note_on_c, 2, 66, 0
6, 45056, Note_on_c, 2, 66, 90
6, 45056, Note_on_c, 2, 69, 98
6, 45056, Note_on_c, 2, 74, 91
6, 45108, Note_on_c, 2, 74, 0
6, 45108, Note_on_c, 2, 69, 0
6, 45108, Note_on_c, 2, 66, 0
6, 45120, Note_on_c, 2, 66, 83
6, 45120, Note_on_c, 2, 69, 87
6, 45120, Note_on_c, 2, 74, 69
6, 45236, Note_on_c, 2, 74, 0
6, 45236, Note_on_c, 2, 69, 0
6, 45236, Note_on_c, 2, 66, 0
6, 45248, Note_on_c, 2, 66, 92
6, 45248, Note_on_c, 2, 69, 98
6, 45248, Note_on_c, 2, 74, 88
6, 45300, Note_on_c, 2, 74, 0
6, 45300, Note_on_c, 2, 69, 0
6, 45300, Note_on_c, 2, 66, 0
6, 45312, Note_on_c, 2, 64, 97
6, 45312, Note_on_c, 2, 69, 100
6, 45312, Note_on_c, 2, 73, 88
6, 45492, Note_on_c, 2, 73, 0
6, 45492, Note_on_c, 2, 69, 0
6, 45492, Note_on_c, 2, 64, 0
6, 61440, Note_on_c, 2, 66, 82
6, 61440, Note_on_c, 2, 71, 81
6, 61440, Note_on_c, 2, 74, 76
6, 61556, Note_on_c, 2, 74, 0
6, 61556, Note_on_c, 2, 71, 0
6, 61556, Note_on_c, 2, 66, 0
6, 61568, Note_on_c, 2, 66, 85
6, 61568, Note_on_c, 2, 71, 88
6, 61568, Note_on_c, 2, 74, 83
6, 61620, Note_on_c, 2, 74, 0
6, 61620, Note_on_c, 2, 71, 0
6, 61620, Note_on_c, 2, 66, 0
6, 61760, Note_on_c, 2, 66, 86
6, 61760, Note_on_c, 2, 71, 89
6, 61760, Note_on_c, 2, 74, 81
6, 61812, Note_on_c, 2, 74, 0
6, 61812, Note_on_c, 2, 71, 0
6, 61812, Note_on_c, 2, 66, 0
6, 61824, Note_on_c, 2, 66, 88
6, 61824, Note_on_c, 2, 71, 88
6, 61824, Note_on_c, 2, 74, 81
6, 61940, Note_on_c, 2, 74, 0
6, 61940, Note_on_c, 2, 71, 0
6, 61940, Note_on_c, 2, 66, 0
6, 61952, Note_on_c, 2, 66, 82
6, 61952, Note_on_c, 2, 71, 84
6, 61952, Note_on_c, 2, 74, 71
6, 62004, Note_on_c, 2, 74, 0
6, 62004, Note_on_c, 2, 71, 0
6, 62004, Note_on_c, 2, 66, 0
6, 62016, Note_on_c, 2, 66, 84
6, 62016, Note_on_c, 2, 71, 89
6, 62016, Note_on_c, 2, 74, 80
6, 62132, Note_on_c, 2, 74, 0
6, 62132, Note_on_c, 2, 71, 0
6, 62132, Note_on_c, 2, 66, 0
6, 62144, Note_on_c, 2, 66, 88
6, 62144, Note_on_c, 2, 71, 87
6, 62144, Note_on_c, 2, 74, 82
6, 62196, Note_on_c, 2, 74, 0
6, 62196, Note_on_c, 2, 71, 0
6, 62196, Note_on_c, 2, 66, 0
6, 62336, Note_on_c, 2, 66, 83
6, 62336, Note_on_c, 2, 71, 88
6, 62336, Note_on_c, 2, 74, 76
6, 62388, Note_on_c, 2, 74, 0
6, 62388, Note_on_c, 2, 71, 0
6, 62388, Note_on_c, 2, 66, 0
6, 62528, Note_on_c, 2, 66, 86
6, 62528, Note_on_c, 2, 71, 86
6, 62528, Note_on_c, 2, 74, 83
6, 62580, Note_on_c, 2, 74, 0
6, 62580, Note_on_c, 2, 71, 0
6, 62580, Note_on_c, 2, 66, 0
6, 62720, Note_on_c, 2, 66, 89
6, 62720, Note_on_c, 2, 71, 90
6, 62720, Note_on_c, 2, 74, 83
6, 62772, Note_on_c, 2, 74, 0
6, 62772, Note_on_c, 2, 71, 0
6, 62772, Note_on_c, 2, 66, 0
6, 62784, Note_on_c, 2, 66, 86
6, 62784, Note_on_c, 2, 71, 92
6, 62784, Note_on_c, 2, 74, 86
6, 62900, Note_on_c, 2, 74, 0
6, 62900, Note_on_c, 2, 71, 0
6, 62900, Note_on_c, 2, 66, 0
6, 62912, Note_on_c, 2, 66, 89
6, 62912, Note_on_c, 2, 71, 88
6, 62912, Note_on_c, 2, 74, 86
6, 62964, Note_on_c, 2, 74, 0
6, 62964, Note_on_c, 2, 71, 0
6, 62964, Note_on_c, 2, 66, 0
6, 62976, Note_on_c, 2, 64, 85
6, 62976, Note_on_c, 2, 69, 94
6, 62976, Note_on_c, 2, 73, 81
6, 63092, Note_on_c, 2, 73, 0
6, 63092, Note_on_c, 2, 69, 0
6, 63092, Note_on_c, 2, 64, 0
6, 63104, Note_on_c, 2, 64, 92
6, 63104, Note_on_c, 2, 69, 98
6, 63104, Note_on_c, 2, 73, 88
6, 63156, Note_on_c, 2, 73, 0
6, 63156, Note_on_c, 2, 69, 0
6, 63156, Note_on_c, 2, 64, 0
6, 63296, Note_on_c, 2, 64, 83
6, 63296, Note_on_c, 2, 69, 92
6, 63296, Note_on_c, 2, 73, 83
6, 63348, Note_on_c, 2, 73, 0
6, 63348, Note_on_c, 2, 69, 0
6, 63348, Note_on_c, 2, 64, 0
6, 63360, Note_on_c, 2, 64, 83
6, 63360, Note_on_c, 2, 69, 96
6, 63360, Note_on_c, 2, 73, 83
6, 63476, Note_on_c, 2, 73, 0
6, 63476, Note_on_c, 2, 69, 0
6, 63476, Note_on_c, 2, 64, 0
6, 63488, Note_on_c, 2, 64, 84
6, 63488, Note_on_c, 2, 69, 95
6, 63488, Note_on_c, 2, 73, 82
6, 63540, Note_on_c, 2, 73, 0
6, 63540, Note_on_c, 2, 69, 0
6, 63540, Note_on_c, 2, 64, 0
6, 63552, Note_on_c, 2, 64, 89
6, 63552, Note_on_c, 2, 69, 96
6, 63552, Note_on_c, 2, 73, 84
6, 63668, Note_on_c, 2, 73, 0
6, 63668, Note_on_c, 2, 69, 0
6, 63668, Note_on_c, 2, 64, 0
6, 63680, Note_on_c, 2, 64, 86
6, 63680, Note_on_c, 2, 69, 94
6, 63680, Note_on_c, 2, 73, 79
6, 63732, Note_on_c, 2, 73, 0
6, 63732, Note_on_c, 2, 69, 0
6, 63732, Note_on_c, 2, 64, 0
6, 63872, Note_on_c, 2, 64, 85
6, 63872, Note_on_c, 2, 69, 94
6, 63872, Note_on_c, 2, 73, 84
6, 63924, Note_on_c, 2, 73, 0
6, 63924, Note_on_c, 2, 69, 0
6, 63924, Note_on_c, 2, 64, 0
6, 64064, Note_on_c, 2, 64, 85
6, 64064, Note_on_c, 2, 69, 94
6, 64064, Note_on_c, 2, 73, 84
6, 64116, Note_on_c, 2, 73, 0
6, 64116, Note_on_c, 2, 69, 0
6, 64116, Note_on_c, 2, 64, 0
6, 64256, Note_on_c, 2, 64, 86
6, 64256, Note_on_c, 2, 69, 80
6, 64256, Note_on_c, 2, 73, 62
6, 64308, Note_on_c, 2, 73, 0
6, 64308, Note_on_c, 2, 69, 0
6, 64308, Note_on_c, 2, 64, 0
6, 64320, Note_on_c, 2, 64, 96
6, 64320, Note_on_c, 2, 69, 103
6, 64320, Note_on_c, 2, 73, 93
6, 64436, Note_on_c, 2, 73, 0
6, 64436, Note_on_c, 2, 69, 0
6, 64436, Note_on_c, 2, 64, 0
6, 64448, Note_on_c, 2, 64, 88
6, 64448, Note_on_c, 2, 69, 96
6, 64448, Note_on_c, 2, 73, 84
6, 64500, Note_on_c, 2, 73, 0
6, 64500, Note_on_c, 2, 69, 0
6, 64500, Note_on_c, 2, 64, 0
6, 64512, Note_on_c, 2, 66, 82
6, 64512, Note_on_c, 2, 71, 81
6, 64512, Note_on_c, 2, 74, 76
6, 64628, Note_on_c, 2, 74, 0
6, 64628, Note_on_c, 2, 71, 0
6, 64628, Note_on_c, 2, 66, 0
6, 64640, Note_on_c, 2, 66, 85
6, 64640, Note_on_c, 2, 71, 88
6, 64640, Note_on_c, 2, 74, 83
6, 64692, Note_on_c, 2, 74, 0
6, 64692, Note_on_c, 2, 71, 0
6, 64692, Note_on_c, 2, 66, 0
6, 64832, Note_on_c, 2, 66, 86
6, 64832, Note_on_c, 2, 71, 89
6, 64832, Note_on_c, 2, 74, 81
6, 64884, Note_on_c, 2, 74, 0
6, 64884, Note_on_c, 2, 71, 0
6, 64884, Note_on_c, 2, 66, 0
6, 64896, Note_on_c, 2, 66, 88
6, 64896, Note_on_c, 2, 71, 88
6, 64896, Note_on_c, 2, 74, 81
6, 65012, Note_on_c, 2, 74, 0
6, 65012, Note_on_c, 2, 71, 0
6, 65012, Note_on_c, 2, 66, 0
6, 65024, Note_on_c, 2, 66, 82
6, 65024, Note_on_c, 2, 71, 84
6, 65024, Note_on_c, 2, 74, 71
6, 65076, Note_on_c, 2, 74, 0
6, 65076, Note_on_c, 2, 71, 0
6, 65076, Note_on_c, 2, 66, 0
6, 65088, Note_on_c, 2, 66, 84
6, 65088, Note_on_c, 2, 71, 89
6, 65088, Note_on_c, 2, 74, 80
6, 65204, Note_on_c, 2, 74, 0
6, 65204, Note_on_c, 2, 71, 0
6, 65204, Note_on_c, 2, 66, 0
6, 65216, Note_on_c, 2, 66, 88
6, 65216, Note_on_c, 2, 71, 87
6, 65216, Note_on_c, 2, 74, 82
6, 65268, Note_on_c, 2, 74, 0
6, 65268, Note_on_c, 2, 71, 0
6, 65268, Note_on_c, 2, 66, 0
6, 65408, Note_on_c, 2, 66, 83
6, 65408, Note_on_c, 2, 71, 88
6, 65408, Note_on_c, 2, 74, 76
6, 65460, Note_on_c, 2, 74, 0
6, 65460, Note_on_c, 2, 71, 0
6, 65460, Note_on_c, 2, 66, 0
6, 65600, Note_on_c, 2, 66, 86
6, 65600, Note_on_c, 2, 71, 86
6, 65600, Note_on_c, 2, 74, 83
6, 65652, Note_on_c, 2, 74, 0
6, 65652, Note_on_c, 2, 71, 0
6, 65652, Note_on_c, 2, 66, 0
6, 65792, Note_on_c, 2, 66, 89
6, 65792, Note_on_c, 2, 71, 90
6, 65792, Note_on_c, 2, 74, 83
6, 65844, Note_on_c, 2, 74, 0
6, 65844, Note_on_c, 2, 71, 0
6, 65844, Note_on_c, 2, 66, 0
6, 65856, Note_on_c, 2, 66, 86
6, 65856, Note_on_c, 2, 71, 92
6, 65856, Note_on_c, 2, 74, 86
6, 65972, Note_on_c, 2, 74, 0
6, 65972, Note_on_c, 2, 71, 0
6, 65972, Note_on_c, 2, 66, 0
6, 65984, Note_on_c, 2, 66, 89
6, 65984, Note_on_c, 2, 71, 88
6, 65984, Note_on_c, 2, 74, 86
6, 66036, Note_on_c, 2, 74, 0
6, 66036, Note_on_c, 2, 71, 0
6, 66036, Note_on_c, 2, 66, 0
6, 66048, Note_on_c, 2, 64, 85
6, 66048, Note_on_c, 2, 69, 94
6, 66048, Note_on_c, 2, 73, 81
6, 66164, Note_on_c, 2, 73, 0
6, 66164, Note_on_c, 2, 69, 0
6, 66164, Note_on_c, 2, 64, 0
6, 66176, Note_on_c, 2, 64, 92
6, 66176, Note_on_c, 2, 69, 98
6, 66176, Note_on_c, 2, 73, 88
6, 66228, Note_on_c, 2, 73, 0
6, 66228, Note_on_c, 2, 69, 0
6, 66228, Note_on_c, 2, 64, 0
6, 66368, Note_on_c, 2, 64, 83
6, 66368, Note_on_c, 2, 69, 92
6, 66368, Note_on_c, 2, 73, 83
6, 66420, Note_on_c, 2, 73, 0
6, 66420, Note_on_c, 2, 69, 0
6, 66420, Note_on_c, 2, 64, 0
6, 66432, Note_on_c, 2, 64, 83
6, 66432, Note_on_c, 2, 69, 96
6, 66432, Note_on_c, 2, 73, 83
6, 66548, Note_on_c, 2, 73, 0
6, 66548, Note_on_c, 2, 69, 0
6, 66548, Note_on_c, 2, 64, 0
6, 66560, Note_on_c, 2, 64, 84
6, 66560, Note_on_c, 2, 69, 95
6, 66560, Note_on_c, 2, 73, 82
6, 66612, Note_on_c, 2, 73, 0
6, 66612, Note_on_c, 2, 69, 0
6, 66612, Note_on_c, 2, 64, 0
6, 66624, Note_on_c, 2, 64, 89
6, 66624, Note_on_c, 2, 69, 96
6, 66624, Note_on_c, 2, 73, 84
6, 66740, Note_on_c, 2, 73, 0
6, 66740, Note_on_c, 2, 69, 0
6, 66740, Note_on_c, 2, 64, 0
6, 66752, Note_on_c, 2, 64, 86
6, 66752, Note_on_c, 2, 69, 94
6, 66752, Note_on_c, 2, 73, 79
6, 66804, Note_on_c, 2, 73, 0
6, 66804, Note_on_c, 2, 69, 0
6, 66804, Note_on_c, 2, 64, 0
6, 66944, Note_on_c, 2, 64, 85
6, 66944, Note_on_c, 2, 69, 94
6, 66944, Note_on_c, 2, 73, 84
6, 66996, Note_on_c, 2, 73, 0
6, 66996, Note_on_c, 2, 69, 0
6, 66996, Note_on_c, 2, 64, 0
6, 67136, Note_on_c, 2, 64, 85
6, 67136, Note_on_c, 2, 69, 94
6, 67136, Note_on_c, 2, 73, 84
6, 67188, Note_on_c, 2, 73, 0
6, 67188, Note_on_c, 2, 69, 0
6, 67188, Note_on_c, 2, 64, 0
6, 67328, Note_on_c, 2, 64, 86
6, 67328, Note_on_c, 2, 69, 80
6, 67328, Note_on_c, 2, 73, 62
6, 67380, Note_on_c, 2, 73, 0
6, 67380, Note_on_c, 2, 69, 0
6, 67380, Note_on_c, 2, 64, 0
6, 67392, Note_on_c, 2, 64, 96
6, 67392, Note_on_c, 2, 69, 103
6, 67392, Note_on_c, 2, 73, 93
6, 67508, Note_on_c, 2, 73, 0
6, 67508, Note_on_c, 2, 69, 0
6, 67508, Note_on_c, 2, 64, 0
6, 67520, Note_on_c, 2, 64, 88
6, 67520, Note_on_c, 2, 69, 96
6, 67520, Note_on_c, 2, 73, 84
6, 67572, Note_on_c, 2, 73, 0
6, 67572, Note_on_c, 2, 69, 0
6, 67572, Note_on_c, 2, 64, 0
6, 67584, Note_on_c, 2, 66, 82
6, 67584, Note_on_c, 2, 71, 81
6, 67584, Note_on_c, 2, 74, 76
6, 67700, Note_on_c, 2, 74, 0
6, 67700, Note_on_c, 2, 71, 0
6, 67700, Note_on_c, 2, 66, 0
6, 67712, Note_on_c, 2, 66, 85
6, 67712, Note_on_c, 2, 71, 88
6, 67712, Note_on_c, 2, 74, 83
6, 67764, Note_on_c, 2, 74, 0
6, 67764, Note_on_c, 2, 71, 0
6, 67764, Note_on_c, 2, 66, 0
6, 67904, Note_on_c, 2, 66, 86
6, 67904, Note_on_c, 2, 71, 89
6, 67904, Note_on_c, 2, 74, 81
6, 67956, Note_on_c, 2, 74, 0
6, 67956, Note_on_c, 2, 71, 0
6, 67956, Note_on_c, 2, 66, 0
6, 67968, Note_on_c, 2, 66, 88
6, 67968, Note_on_c, 2, 71, 88
6, 67968, Note_on_c, 2, 74, 81
6, 68084, Note_on_c, 2, 74, 0
6, 68084, Note_on_c, 2, 71, 0
6, 68084, Note_on_c, 2, 66, 0
6, 68096, Note_on_c, 2, 66, 82
6, 68096, Note_on_c, 2, 71, 84
6, 68096, Note_on_c, 2, 74, 71
6, 68148, Note_on_c, 2, 74, 0
6, 68148, Note_on_c, 2, 71, 0
6, 68148, Note_on_c, 2, 66, 0
6, 68160, Note_on_c, 2, 66, 84
6, 68160, Note_on_c, 2, 71, 89
6, 68160, Note_on_c, 2, 74, 80
6, 68276, Note_on_c, 2, 74, 0
6, 68276, Note_on_c, 2, 71, 0
6, 68276, Note_on_c, 2, 66, 0
6, 68288, Note_on_c, 2, 66, 88
6, 68288, Note_on_c, 2, 71, 87
6, 68288, Note_on_c, 2, 74, 82
6, 68340, Note_on_c, 2, 74, 0
6, 68340, Note_on_c, 2, 71, 0
6, 68340, Note_on_c, 2, 66, 0
6, 68480, Note_on_c, 2, 66, 83
6, 68480, Note_on_c, 2, 71, 88
6, 68480, Note_on_c, 2, 74, 76
6, 68532, Note_on_c, 2, 74, 0
6, 68532, Note_on_c, 2, 71, 0
6, 68532, Note_on_c, 2, 66, 0
6, 68672, Note_on_c, 2, 66, 86
6, 68672, Note_on_c, 2, 71, 86
6, 68672, Note_on_c, 2, 74, 83
6, 68724, Note_on_c, 2, 74, 0
6, 68724, Note_on_c, 2, 71, 0
6, 68724, Note_on_c, 2, 66, 0
6, 68864, Note_on_c, 2, 66, 89
6, 68864, Note_on_c, 2, 71, 90
6, 68864, Note_on_c, 2, 74, 83
6, 68916, Note_on_c, 2, 74, 0
6, 68916, Note_on_c, 2, 71, 0
6, 68916, Note_on_c, 2, 66, 0
6, 68928, Note_on_c, 2, 66, 86
6, 68928, Note_on_c, 2, 71, 92
6, 68928, Note_on_c, 2, 74, 86
6, 69044, Note_on_c, 2, 74, 0
6, 69044, Note_on_c, 2, 71, 0
6, 69044, Note_on_c, 2, 66, 0
6, 69056, Note_on_c, 2, 66, 89
6, 69056, Note_on_c, 2, 71, 88
6, 69056, Note_on_c, 2, 74, 86
6, 69108, Note_on_c, 2, 74, 0
6, 69108, Note_on_c, 2, 71, 0
6, 69108, Note_on_c, 2, 66, 0
6, 69120, Note_on_c, 2, 64, 85
6, 69120, Note_on_c, 2, 69, 94
6, 69120, Note_on_c, 2, 73, 81
6, 69236, Note_on_c, 2, 73, 0
6, 69236, Note_on_c, 2, 69, 0
6, 69236, Note_on_c, 2, 64, 0
6, 69248, Note_on_c, 2, 64, 92
6, 69248, Note_on_c, 2, 69, 98
6, 69248, Note_on_c, 2, 73, 88
6, 69300, Note_on_c, 2, 73, 0
6, 69300, Note_on_c, 2, 69, 0
6, 69300, Note_on_c, 2, 64, 0
6, 69440, Note_on_c, 2, 64, 83
6, 69440, Note_on_c, 2, 69, 92
6, 69440, Note_on_c, 2, 73, 83
6, 69492, Note_on_c, 2, 73, 0
6, 69492, Note_on_c, 2, 69, 0
6, 69492, Note_on_c, 2, 64, 0
6, 69504, Note_on_c, 2, 64, 83
6, 69504, Note_on_c, 2, 69, 96
6, 69504, Note_on_c, 2, 73, 83
6, 69620, Note_on_c, 2, 73, 0
6, 69620, Note_on_c, 2, 69, 0
6, 69620, Note_on_c, 2, 64, 0
6, 69632, Note_on_c, 2, 64, 84
6, 69632, Note_on_c, 2, 69, 95
6, 69632, Note_on_c, 2, 73, 82
6, 69684, Note_on_c, 2, 73, 0
6, 69684, Note_on_c, 2, 69, 0
6, 69684, Note_on_c, 2, 64, 0
6, 69696, Note_on_c, 2, 64, 89
6, 69696, Note_on_c, 2, 69, 96
6, 69696, Note_on_c, 2, 73, 84
6, 69812, Note_on_c, 2, 73, 0
6, 69812, Note_on_c, 2, 69, 0
6, 69812, Note_on_c, 2, 64, 0
6, 69824, Note_on_c, 2, 64, 86
6, 69824, Note_on_c, 2, 69, 94
6, 69824, Note_on_c, 2, 73, 79
6, 69876, Note_on_c, 2, 73, 0
6, 69876, Note_on_c, 2, 69, 0
6, 69876, Note_on_c, 2, 64, 0
6, 70016, Note_on_c, 2, 64, 85
6, 70016, Note_on_c, 2, 69, 94
6, 70016, Note_on_c, 2, 73, 84
6, 70068, Note_on_c, 2, 73, 0
6, 70068, Note_on_c, 2, 69, 0
6, 70068, Note_on_c, 2, 64, 0
6, 70208, Note_on_c, 2, 64, 85
6, 70208, Note_on_c, 2, 69, 94
6, 70208, Note_on_c, 2, 73, 84
6, 70260, Note_on_c, 2, 73, 0
6, 70260, Note_on_c, 2, 69, 0
6, 70260, Note_on_c, 2, 64, 0
6, 70400, Note_on_c, 2, 64, 86
6, 70400, Note_on_c, 2, 69, 80
6, 70400, Note_on_c, 2, 73, 62
6, 70452, Note_on_c, 2, 73, 0
6, 70452, Note_on_c, 2, 69, 0
6, 70452, Note_on_c, 2, 64, 0
6, 70464, Note_on_c, 2, 64, 96
6, 70464, Note_on_c, 2, 69, 103
6, 70464, Note_on_c, 2, 73, 93
6, 70580, Note_on_c, 2, 73, 0
6, 70580, Note_on_c, 2, 69, 0
6, 70580, Note_on_c, 2, 64, 0
6, 70592, Note_on_c, 2, 64, 88
6, 70592, Note_on_c, 2, 69, 96
6, 70592, Note_on_c, 2, 73, 84
6, 70644, Note_on_c, 2, 73, 0
6, 70644, Note_on_c, 2, 69, 0
6, 70644, Note_on_c, 2, 64, 0
6, 70656, Note_on_c, 2, 66, 82
6, 70656, Note_on_c, 2, 71, 81
6, 70656, Note_on_c, 2, 74, 76
6, 70772, Note_on_c, 2, 74, 0
6, 70772, Note_on_c, 2, 71, 0
6, 70772, Note_on_c, 2, 66, 0
6, 70784, Note_on_c, 2, 66, 85
6, 70784, Note_on_c, 2, 71, 88
6, 70784, Note_on_c, 2, 74, 83
6, 70836, Note_on_c, 2, 74, 0
6, 70836, Note_on_c, 2, 71, 0
6, 70836, Note_on_c, 2, 66, 0
6, 70976, Note_on_c, 2, 66, 86
6, 70976, Note_on_c, 2, 71, 89
6, 70976, Note_on_c, 2, 74, 81
6, 71028, Note_on_c, 2, 74, 0
6, 71028, Note_on_c, 2, 71, 0
6, 71028, Note_on_c, 2, 66, 0
6, 71040, Note_on_c, 2, 66, 88
6, 71040, Note_on_c, 2, 71, 88
6, 71040, Note_on_c, 2, 74, 81
6, 71156, Note_on_c, 2, 74, 0
6, 71156, Note_on_c, 2, 71, 0
6, 71156, Note_on_c, 2, 66, 0
6, 71168, Note_on_c, 2, 66, 82
6, 71168, Note_on_c, 2, 71, 84
6, 71168, Note_on_c, 2, 74, 71
6, 71220, Note_on_c, 2, 74, 0
6, 71220, Note_on_c, 2, 71, 0
6, 71220, Note_on_c, 2, 66, 0
6, 71232, Note_on_c, 2, 66, 84
6, 71232, Note_on_c, 2, 71, 89
6, 71232, Note_on_c, 2, 74, 80
6, 71348, Note_on_c, 2, 74, 0
6, 71348, Note_on_c, 2, 71, 0
6, 71348, Note_on_c, 2, 66, 0
6, 71360, Note_on_c, 2, 66, 88
6, 71360, Note_on_c, 2, 71, 87
6, 71360, Note_on_c, 2, 74, 82
6, 71412, Note_on_c, 2, 74, 0
6, 71412, Note_on_c, 2, 71, 0
6, 71412, Note_on_c, 2, 66, 0
6, 71552, Note_on_c, 2, 66, 83
6, 71552, Note_on_c, 2, 71, 88
6, 71552, Note_on_c, 2, 74, 76
6, 71604, Note_on_c, 2, 74, 0
6, 71604, Note_on_c, 2, 71, 0
6, 71604, Note_on_c, 2, 66, 0
6, 71744, Note_on_c, 2, 66, 86
6, 71744, Note_on_c, 2, 71, 86
6, 71744, Note_on_c, 2, 74, 83
6, 71796, Note_on_c, 2, 74, 0
6, 71796, Note_on_c, 2, 71, 0
6, 71796, Note_on_c, 2, 66, 0
6, 71936, Note_on_c, 2, 66, 89
6, 71936, Note_on_c, 2, 71, 90
6, 71936, Note_on_c, 2, 74, 83
6, 71988, Note_on_c, 2, 74, 0
6, 71988, Note_on_c, 2, 71, 0
6, 71988, Note_on_c, 2, 66, 0
6, 72000, Note_on_c, 2, 66, 86
6, 72000, Note_on_c, 2, 71, 92
6, 72000, Note_on_c, 2, 74, 86
6, 72116, Note_on_c, 2, 74, 0
6, 72116, Note_on_c, 2, 71, 0
6, 72116, Note_on_c, 2, 66, 0
6, 72128, Note_on_c, 2, 66, 89
6, 72128, Note_on_c, 2, 71, 88
6, 72128, Note_on_c, 2, 74, 86
6, 72180, Note_on_c, 2, 74, 0
6, 72180, Note_on_c, 2, 71, 0
6, 72180, Note_on_c, 2, 66, 0
6, 72192, Note_on_c, 2, 64, 85
6, 72192, Note_on_c, 2, 69, 94
6, 72192, Note_on_c, 2, 73, 81
6, 72308, Note_on_c, 2, 73, 0
6, 72308, Note_on_c, 2, 69, 0
6, 72308, Note_on_c, 2, 64, 0
6, 72320, Note_on_c, 2, 64, 92
6, 72320, Note_on_c, 2, 69, 98
6, 72320, Note_on_c, 2, 73, 88
6, 72372, Note_on_c, 2, 73, 0
6, 72372, Note_on_c, 2, 69, 0
6, 72372, Note_on_c, 2, 64, 0
6, 72512, Note_on_c, 2, 64, 83
6, 72512, Note_on_c, 2, 69, 92
6, 72512, Note_on_c, 2, 73, 83
6, 72564, Note_on_c, 2, 73, 0
6, 72564, Note_on_c, 2, 69, 0
6, 72564, Note_on_c, 2, 64, 0
6, 72576, Note_on_c, 2, 64, 83
6, 72576, Note_on_c, 2, 69, 96
6, 72576, Note_on_c, 2, 73, 83
6, 72692, Note_on_c, 2, 73, 0
6, 72692, Note_on_c, 2, 69, 0
6, 72692, Note_on_c, 2, 64, 0
6, 72704, Note_on_c, 2, 64, 84
6, 72704, Note_on_c, 2, 69, 95
6, 72704, Note_on_c, 2, 73, 82
6, 72756, Note_on_c, 2, 73, 0
6, 72756, Note_on_c, 2, 69, 0
6, 72756, Note_on_c, 2, 64, 0
6, 72768, Note_on_c, 2, 64, 89
6, 72768, Note_on_c, 2, 69, 96
6, 72768, Note_on_c, 2, 73, 84
6, 72884, Note_on_c, 2, 73, 0
6, 72884, Note_on_c, 2, 69, 0
6, 72884, Note_on_c, 2, 64, 0
6, 72896, Note_on_c, 2, 64, 86
6, 72896, Note_on_c, 2, 69, 94
6, 72896, Note_on_c, 2, 73, 79
6, 72948, Note_on_c, 2, 73, 0
6, 72948, Note_on_c, 2, 69, 0
6, 72948, Note_on_c, 2, 64, 0
6, 73088, Note_on_c, 2, 64, 85
6, 73088, Note_on_c, 2, 69, 94
6, 73088, Note_on_c, 2, 73, 84
6, 73140, Note_on_c, 2, 73, 0
6, 73140, Note_on_c, 2, 69, 0
6, 73140, Note_on_c, 2, 64, 0
6, 73280, Note_on_c, 2, 64, 85
6, 73280, Note_on_c, 2, 69, 94
6, 73280, Note_on_c, 2, 73, 84
6, 73332, Note_on_c, 2, 73, 0
6, 73332, Note_on_c, 2, 69, 0
6, 73332, Note_on_c, 2, 64, 0
6, 73472, Note_on_c, 2, 64, 86
6, 73472, Note_on_c, 2, 69, 80
6, 73472, Note_on_c, 2, 73, 62
6, 73524, Note_on_c, 2, 73, 0
6, 73524, Note_on_c, 2, 69, 0
6, 73524, Note_on_c, 2, 64, 0
6, 73536, Note_on_c, 2, 64, 96
6, 73536, Note_on_c, 2, 69, 103
6, 73536, Note_on_c, 2, 73, 93
6, 73652, Note_on_c, 2, 73, 0
6, 73652, Note_on_c, 2, 69, 0
6, 73652, Note_on_c, 2, 64, 0
6, 73664, Note_on_c, 2, 64, 88
6, 73664, Note_on_c, 2, 69, 96
6, 73664, Note_on_c, 2, 73, 84
6, 73716, Note_on_c, 2, 73, 0
6, 73716, Note_on_c, 2, 69, 0
6, 73716, Note_on_c, 2, 64, 0
6, 73728, Note_on_c, 2, 66, 87
6, 73728, Note_on_c, 2, 71, 79
6, 73728, Note_on_c, 2, 74, 82
6, 73844, Note_on_c, 2, 74, 0
6, 73844, Note_on_c, 2, 71, 0
6, 73844, Note_on_c, 2, 66, 0
6, 73856, Note_on_c, 2, 66, 83
6, 73856, Note_on_c, 2, 71, 79
6, 73856, Note_on_c, 2, 74, 87
6, 73972, Note_on_c, 2, 74, 0
6, 73972, Note_on_c, 2, 71, 0
6, 73972, Note_on_c, 2, 66, 0
6, 74048, Note_on_c, 2, 66, 77
6, 74048, Note_on_c, 2, 71, 79
6, 74048, Note_on_c, 2, 74, 75
6, 74100, Note_on_c, 2, 74, 0
6, 74100, Note_on_c, 2, 71, 0
6, 74100, Note_on_c, 2, 66, 0
6, 74112, Note_on_c, 2, 66, 73
6, 74112, Note_on_c, 2, 71, 75
6, 74112, Note_on_c, 2, 74, 69
6, 74228, Note_on_c, 2, 74, 0
6, 74228, Note_on_c, 2, 71, 0
6, 74228, Note_on_c, 2, 66, 0
6, 74240, Note_on_c, 2, 66, 98
6, 74240, Note_on_c, 2, 71, 97
6, 74240, Note_on_c, 2, 74, 98
6, 74292, Note_on_c, 2, 74, 0
6, 74292, Note_on_c, 2, 71, 0
6, 74292, Note_on_c, 2, 66, 0
6, 74304, Note_on_c, 2, 66, 83
6, 74304, Note_on_c, 2, 71, 79
6, 74304, Note_on_c, 2, 74, 71
6, 74420, Note_on_c, 2, 74, 0
6, 74420, Note_on_c, 2, 71, 0
6, 74420, Note_on_c, 2, 66, 0
6, 74432, Note_on_c, 2, 66, 99
6, 74432, Note_on_c, 2, 71, 100
6, 74432, Note_on_c, 2, 74, 102
6, 74484, Note_on_c, 2, 74, 0
6, 74484, Note_on_c, 2, 71, 0
6, 74484, Note_on_c, 2, 66, 0
6, 74624, Note_on_c, 2, 66, 84
6, 74624, Note_on_c, 2, 71, 85
6, 74624, Note_on_c, 2, 74, 80
6, 74676, Note_on_c, 2, 74, 0
6, 74676, Note_on_c, 2, 71, 0
6, 74676, Note_on_c, 2, 66, 0
6, 74816, Note_on_c, 2, 66, 88
6, 74816, Note_on_c, 2, 71, 75
6, 74816, Note_on_c, 2, 74, 84
6, 74868, Note_on_c, 2, 74, 0
6, 74868, Note_on_c, 2, 71, 0
6, 74868, Note_on_c, 2, 66, 0
6, 75008, Note_on_c, 2, 66, 77
6, 75008, Note_on_c, 2, 71, 78
6, 75008, Note_on_c, 2, 74, 68
6, 75060, Note_on_c, 2, 74, 0
6, 75060, Note_on_c, 2, 71, 0
6, 75060, Note_on_c, 2, 66, 0
6, 75072, Note_on_c, 2, 66, 88
6, 75072, Note_on_c, 2, 71, 77
6, 75072, Note_on_c, 2, 74, 78
6, 75188, Note_on_c, 2, 74, 0
6, 75188, Note_on_c, 2, 71, 0
6, 75188, Note_on_c, 2, 66, 0
6, 75200, Note_on_c, 2, 66, 98
6, 75200, Note_on_c, 2, 71, 97
6, 75200, Note_on_c, 2, 74, 96
6, 75252, Note_on_c, 2, 74, 0
6, 75252, Note_on_c, 2, 71, 0
6, 75252, Note_on_c, 2, 66, 0
6, 75264, Note_on_c, 2, 66, 82
6, 75264, Note_on_c, 2, 69, 104
6, 75264, Note_on_c, 2, 74, 77
6, 75380, Note_on_c, 2, 74, 0
6, 75380, Note_on_c, 2, 69, 0
6, 75380, Note_on_c, 2, 66, 0
6, 75392, Note_on_c, 2, 66, 86
6, 75392, Note_on_c, 2, 69, 97
6, 75392, Note_on_c, 2, 74, 84
6, 75508, Note_on_c, 2, 74, 0
6, 75508, Note_on_c, 2, 69, 0
6, 75508, Note_on_c, 2, 66, 0
6, 75584, Note_on_c, 2, 66, 88
6, 75584, Note_on_c, 2, 69, 98
6, 75584, Note_on_c, 2, 74, 81
6, 75636, Note_on_c, 2, 74, 0
6, 75636, Note_on_c, 2, 69, 0
6, 75636, Note_on_c, 2, 66, 0
6, 75648, Note_on_c, 2, 66, 71
6, 75648, Note_on_c, 2, 69, 87
6, 75648, Note_on_c, 2, 74, 64
6, 75764, Note_on_c, 2, 74, 0
6, 75764, Note_on_c, 2, 69, 0
6, 75764, Note_on_c, 2, 66, 0
6, 75776, Note_on_c, 2, 66, 90
6, 75776, Note_on_c, 2, 69, 98
6, 75776, Note_on_c, 2, 74, 91
6, 75828, Note_on_c, 2, 74, 0
6, 75828, Note_on_c, 2, 69, 0
6, 75828, Note_on_c, 2, 66, 0
6, 75840, Note_on_c, 2, 66, 83
6, 75840, Note_on_c, 2, 69, 87
6, 75840, Note_on_c, 2, 74, 69
6, 75956, Note_on_c, 2, 74, 0
6, 75956, Note_on_c, 2, 69, 0
6, 75956, Note_on_c, 2, 66, 0
6, 75968, Note_on_c, 2, 66, 92
6, 75968, Note_on_c, 2, 69, 98
6, 75968, Note_on_c, 2, 74, 88
6, 76020, Note_on_c, 2, 74, 0
6, 76020, Note_on_c, 2, 69, 0
6, 76020, Note_on_c, 2, 66, 0
6, 76032, Note_on_c, 2, 64, 97
6, 76032, Note_on_c, 2, 69, 100
6, 76032, Note_on_c, 2, 73, 88
6, 76212, Note_on_c, 2, 73, 0
6, 76212, Note_on_c, 2, 69, 0
6, 76212, Note_on_c, 2, 64, 0
6, 76800, Note_on_c, 2, 66, 87
6, 76800, Note_on_c, 2, 71, 79
6, 76800, Note_on_c, 2, 74, 82
6, 76916, Note_on_c, 2, 74, 0
6, 76916, Note_on_c, 2, 71, 0
6, 76916, Note_on_c, 2, 66, 0
6, 76928, Note_on_c, 2, 66, 83
6, 76928, Note_on_c, 2, 71, 79
6, 76928, Note_on_c, 2, 74, 87
6, 77044, Note_on_c, 2, 74, 0
6, 77044, Note_on_c, 2, 71, 0
6, 77044, Note_on_c, 2, 66, 0
6, 77120, Note_on_c, 2, 66, 77
6, 77120, Note_on_c, 2, 71, 79
6, 77120, Note_on_c, 2, 74, 75
6, 77172, Note_on_c, 2, 74, 0
6, 77172, Note_on_c, 2, 71, 0
6, 77172, Note_on_c, 2, 66, 0
6, 77184, Note_on_c, 2, 66, 73
6, 77184, Note_on_c, 2, 71, 75
6, 77184, Note_on_c, 2, 74, 69
6, 77300, Note_on_c, 2, 74, 0
6, 77300, Note_on_c, 2, 71, 0
6, 77300, Note_on_c, 2, 66, 0
6, 77312, Note_on_c, 2, 66, 98
6, 77312, Note_on_c, 2, 71, 97
6, 77312, Note_on_c, 2, 74, 98
6, 77364, Note_on_c, 2, 74, 0
6, 77364, Note_on_c, 2, 71, 0
6, 77364, Note_on_c, 2, 66, 0
6, 77376, Note_on_c, 2, 66, 83
6, 77376, Note_on_c, 2, 71, 79
6, 77376, Note_on_c, 2, 74, 71
6, 77492, Note_on_c, 2, 74, 0
6, 77492, Note_on_c, 2, 71, 0
6, 77492, Note_on_c, 2, 66, 0
6, 77504, Note_on_c, 2, 66, 99
6, 77504, Note_on_c, 2, 71, 100
6, 77504, Note_on_c, 2, 74, 102
6, 77556, Note_on_c, 2, 74, 0
6, 77556, Note_on_c, 2, 71, 0
6, 77556, Note_on_c, 2, 66, 0
6, 77696, Note_on_c, 2, 66, 84
6, 77696, Note_on_c, 2, 71, 85
6, 77696, Note_on_c, 2, 74, 80
6, 77748, Note_on_c, 2, 74, 0
6, 77748, Note_on_c, 2, 71, 0
6, 77748, Note_on_c, 2, 66, 0
6, 77888, Note_on_c, 2, 66, 88
6, 77888, Note_on_c, 2, 71, 75
6, 77888, Note_on_c, 2, 74, 84
6, 77940, Note_on_c, 2, 74, 0
6, 77940, Note_on_c, 2, 71, 0
6, 77940, Note_on_c, 2, 66, 0
6, 78080, Note_on_c, 2, 66, 77
6, 78080, Note_on_c, 2, 71, 78
6, 78080, Note_on_c, 2, 74, 68
6, 78132, Note_on_c, 2, 74, 0
6, 78132, Note_on_c, 2, 71, 0
6, 78132, Note_on_c, 2, 66, 0
6, 78144, Note_on_c, 2, 66, 88
6, 78144, Note_on_c, 2, 71, 77
6, 78144, Note_on_c, 2, 74, 78
6, 78260, Note_on_c, 2, 74, 0
6, 78260, Note_on_c, 2, 71, 0
6, 78260, Note_on_c, 2, 66, 0
6, 78272, Note_on_c, 2, 66, 98
6, 78272, Note_on_c, 2, 71, 97
6, 78272, Note_on_c, 2, 74, 96
6, 78324, Note_on_c, 2, 74, 0
6, 78324, Note_on_c, 2, 71, 0
6, 78324, Note_on_c, 2, 66, 0
6, 78336, Note_on_c, 2, 66, 82
6, 78336, Note_on_c, 2, 69, 104
6, 78336, Note_on_c, 2, 74, 77
6, 78452, Note_on_c, 2, 74, 0
6, 78452, Note_on_c, 2, 69, 0
6, 78452, Note_on_c, 2, 66, 0
6, 78464, Note_on_c, 2, 66, 86
6, 78464, Note_on_c, 2, 69, 97
6, 78464, Note_on_c, 2, 74, 84
6, 78580, Note_on_c, 2, 74, 0
6, 78580, Note_on_c, 2, 69, 0
6, 78580, Note_on_c, 2, 66, 0
6, 78656, Note_on_c, 2, 66, 88
6, 78656, Note_on_c, 2, 69, 98
6, 78656, Note_on_c, 2, 74, 81
6, 78708, Note_on_c, 2, 74, 0
6, 78708, Note_on_c, 2, 69, 0
6, 78708, Note_on_c, 2, 66, 0
6, 78720, Note_on_c, 2, 66, 71
6, 78720, Note_on_c, 2, 69, 87
6, 78720, Note_on_c, 2, 74, 64
6, 78836, Note_on_c, 2, 74, 0
6, 78836, Note_on_c, 2, 69, 0
6, 78836, Note_on_c, 2, 66, 0
6, 78848, Note_on_c, 2, 66, 90
6, 78848, Note_on_c, 2, 69, 98
6, 78848, Note_on_c, 2, 74, 91
6, 78900, Note_on_c, 2, 74, 0
6, 78900, Note_on_c, 2, 69, 0
6, 78900, Note_on_c, 2, 66, 0
6, 78912, Note_on_c, 2, 66, 83
6, 78912, Note_on_c, 2, 69, 87
6, 78912, Note_on_c, 2, 74, 69
6, 79028, Note_on_c, 2, 74, 0
6, 79028, Note_on_c, 2, 69, 0
6, 79028, Note_on_c, 2, 66, 0
6, 79040, Note_on_c, 2, 66, 92
6, 79040, Note_on_c, 2, 69, 98
6, 79040, Note_on_c, 2, 74, 88
6, 79092, Note_on_c, 2, 74, 0
6, 79092, Note_on_c, 2, 69, 0
6, 79092, Note_on_c, 2, 66, 0
6, 79104, Note_on_c, 2, 64, 97
6, 79104, Note_on_c, 2, 69, 100
6, 79104, Note_on_c, 2, 73, 88
6, 79284, Note_on_c, 2, 73, 0
6, 79284, Note_on_c, 2, 69, 0
6, 79284, Note_on_c, 2, 64, 0
6, 79872, Note_on_c, 2, 66, 87
6, 79872, Note_on_c, 2, 71, 79
6, 79872, Note_on_c, 2, 74, 82
6, 79988, Note_on_c, 2, 74, 0
6, 79988, Note_on_c, 2, 71, 0
6, 79988, Note_on_c, 2, 66, 0
6, 80000, Note_on_c, 2, 66, 83
6, 80000, Note_on_c, 2, 71, 79
6, 80000, Note_on_c, 2, 74, 87
6, 80116, Note_on_c, 2, 74, 0
6, 80116, Note_on_c, 2, 71, 0
6, 80116, Note_on_c, 2, 66, 0
6, 80192, Note_on_c, 2, 66, 77
6, 80192, Note_on_c, 2, 71, 79
6, 80192, Note_on_c, 2, 74, 75
6, 80244, Note_on_c, 2, 74, 0
6, 80244, Note_on_c, 2, 71, 0
6, 80244, Note_on_c, 2, 66, 0
6, 80256, Note_on_c, 2, 66, 73
6, 80256, Note_on_c, 2, 71, 75
6, 80256, Note_on_c, 2, 74, 69
6, 80372, Note_on_c, 2, 74, 0
6, 80372, Note_on_c, 2, 71, 0
6, 80372, Note_on_c, 2, 66, 0
6, 80384, Note_on_c, 2, 66, 98
6, 80384, Note_on_c, 2, 71, 97
6, 80384, Note_on_c, 2, 74, 98
6, 80436, Note_on_c, 2, 74, 0
6, 80436, Note_on_c, 2, 71, 0
6, 80436, Note_on_c, 2, 66, 0
6, 80448, Note_on_c, 2, 66, 83
6, 80448, Note_on_c, 2, 71, 79
6, 80448, Note_on_c, 2, 74, 71
6, 80564, Note_on_c, 2, 74, 0
6, 80564, Note_on_c, 2, 71, 0
6, 80564, Note_on_c, 2, 66, 0
6, 80576, Note_on_c, 2, 66, 99
6, 80576, Note_on_c, 2, 71, 100
6, 80576, Note_on_c, 2, 74, 102
6, 80628, Note_on_c, 2, 74, 0
6, 80628, Note_on_c, 2, 71, 0
6, 80628, Note_on_c, 2, 66, 0
6, 80768, Note_on_c, 2, 66, 84
6, 80768, Note_on_c, 2, 71, 85
6, 80768, Note_on_c, 2, 74, 80
6, 80820, Note_on_c, 2, 74, 0
6, 80820, Note_on_c, 2, 71, 0
6, 80820, Note_on_c, 2, 66, 0
6, 80960, Note_on_c, 2, 66, 88
6, 80960, Note_on_c, 2, 71, 75
6, 80960, Note_on_c, 2, 74, 84
6, 81012, Note_on_c, 2, 74, 0
6, 81012, Note_on_c, 2, 71, 0
6, 81012, Note_on_c, 2, 66, 0
6, 81152, Note_on_c, 2, 66, 77
6, 81152, Note_on_c, 2, 71, 78
6, 81152, Note_on_c, 2, 74, 68
6, 81204, Note_on_c, 2, 74, 0
6, 81204, Note_on_c, 2, 71, 0
6, 81204, Note_on_c, 2, 66, 0
6, 81216, Note_on_c, 2, 66, 88
6, 81216, Note_on_c, 2, 71, 77
6, 81216, Note_on_c, 2, 74, 78
6, 81332, Note_on_c, 2, 74, 0
6, 81332, Note_on_c, 2, 71, 0
6, 81332, Note_on_c, 2, 66, 0
6, 81344, Note_on_c, 2, 66, 98
6, 81344, Note_on_c, 2, 71, 97
6, 81344, Note_on_c, 2, 74, 96
6, 81396, Note_on_c, 2, 74, 0
6, 81396, Note_on_c, 2, 71, 0
6, 81396, Note_on_c, 2, 66, 0
6, 81408, Note_on_c, 2, 66, 82
6, 81408, Note_on_c, 2, 69, 104
6, 81408, Note_on_c, 2, 74, 77
6, 81524, Note_on_c, 2, 74, 0
6, 81524, Note_on_c, 2, 69, 0
6, 81524, Note_on_c, 2, 66, 0
6, 81536, Note_on_c, 2, 66, 86
6, 81536, Note_on_c, 2, 69, 97
6, 81536, Note_on_c, 2, 74, 84
6, 81652, Note_on_c, 2, 74, 0
6, 81652, Note_on_c, 2, 69, 0
6, 81652, Note_on_c, 2, 66, 0
6, 81728, Note_on_c, 2, 66, 88
6, 81728, Note_on_c, 2, 69, 98
6, 81728, Note_on_c, 2, 74, 81
6, 81780, Note_on_c, 2, 74, 0
6, 81780, Note_on_c, 2, 69, 0
6, 81780, Note_on_c, 2, 66, 0
6, 81792, Note_on_c, 2, 66, 71
6, 81792, Note_on_c, 2, 69, 87
6, 81792, Note_on_c, 2, 74, 64
6, 81908, Note_on_c, 2, 74, 0
6, 81908, Note_on_c, 2, 69, 0
6, 81908, Note_on_c, 2, 66, 0
6, 81920, Note_on_c, 2, 66, 90
6, 81920, Note_on_c, 2, 69, 98
6, 81920, Note_on_c, 2, 74, 91
6, 81972, Note_on_c, 2, 74, 0
6, 81972, Note_on_c, 2, 69, 0
6, 81972, Note_on_c, 2, 66, 0
6, 81984, Note_on_c, 2, 66, 83
6, 81984, Note_on_c, 2, 69, 87
6, 81984, Note_on_c, 2, 74, 69
6, 82100, Note_on_c, 2, 74, 0
6, 82100, Note_on_c, 2, 69, 0
6, 82100, Note_on_c, 2, 66, 0
6, 82112, Note_on_c, 2, 66, 92
6, 82112, Note_on_c, 2, 69, 98
6, 82112, Note_on_c, 2, 74, 88
6, 82164, Note_on_c, 2, 74, 0
6, 82164, Note_on_c, 2, 69, 0
6, 82164, Note_on_c, 2, 66, 0
6, 82176, Note_on_c, 2, 64, 97
6, 82176, Note_on_c, 2, 69, 100
6, 82176, Note_on_c, 2, 73, 88
6, 82356, Note_on_c, 2, 73, 0
6, 82356, Note_on_c, 2, 69, 0
6, 82356, Note_on_c, 2, 64, 0
6, 82944, Note_on_c, 2, 66, 87
6, 82944, Note_on_c, 2, 71, 79
6, 82944, Note_on_c, 2, 74, 82
6, 83060, Note_on_c, 2, 74, 0
6, 83060, Note_on_c, 2, 71, 0
6, 83060, Note_on_c, 2, 66, 0
6, 83072, Note_on_c, 2, 66, 83
6, 83072, Note_on_c, 2, 71, 79
6, 83072, Note_on_c, 2, 74, 87
6, 83188, Note_on_c, 2, 74, 0
6, 83188, Note_on_c, 2, 71, 0
6, 83188, Note_on_c, 2, 66, 0
6, 83264, Note_on_c, 2, 66, 77
6, 83264, Note_on_c, 2, 71, 79
6, 83264, Note_on_c, 2, 74, 75
6, 83316, Note_on_c, 2, 74, 0
6, 83316, Note_on_c, 2, 71, 0
6, 83316, Note_on_c, 2, 66, 0
6, 83328, Note_on_c, 2, 66, 73
6, 83328, Note_on_c, 2, 71, 75
6, 83328, Note_on_c, 2, 74, 69
6, 83444, Note_on_c, 2, 74, 0
6, 83444, Note_on_c, 2, 71, 0
6, 83444, Note_on_c, 2, 66, 0
6, 83456, Note_on_c, 2, 66, 98
6, 83456, Note_on_c, 2, 71, 97
6, 83456, Note_on_c, 2, 74, 98
6, 83508, Note_on_c, 2, 74, 0
6, 83508, Note_on_c, 2, 71, 0
6, 83508, Note_on_c, 2, 66, 0
6, 83520, Note_on_c, 2, 66, 83
6, 83520, Note_on_c, 2, 71, 79
6, 83520, Note_on_c, 2, 74, 71
6, 83636, Note_on_c, 2, 74, 0
6, 83636, Note_on_c, 2, 71, 0
6, 83636, Note_on_c, 2, 66, 0
6, 83648, Note_on_c, 2, 66, 99
6, 83648, Note_on_c, 2, 71, 100
6, 83648, Note_on_c, 2, 74, 102
6, 83700, Note_on_c, 2, 74, 0
6, 83700, Note_on_c, 2, 71, 0
6, 83700, Note_on_c, 2, 66, 0
6, 83840, Note_on_c, 2, 66, 84
6, 83840, Note_on_c, 2, 71, 85
6, 83840, Note_on_c, 2, 74, 80
6, 83892, Note_on_c, 2, 74, 0
6, 83892, Note_on_c, 2, 71, 0
6, 83892, Note_on_c, 2, 66, 0
6, 84032, Note_on_c, 2, 66, 88
6, 84032, Note_on_c, 2, 71, 75
6, 84032, Note_on_c, 2, 74, 84
6, 84084, Note_on_c, 2, 74, 0
6, 84084, Note_on_c, 2, 71, 0
6, 84084, Note_on_c, 2, 66, 0
6, 84224, Note_on_c, 2, 66, 77
6, 84224, Note_on_c, 2, 71, 78
6, 84224, Note_on_c, 2, 74, 68
6, 84276, Note_on_c, 2, 74, 0
6, 84276, Note_on_c, 2, 71, 0
6, 84276, Note_on_c, 2, 66, 0
6, 84288, Note_on_c, 2, 66, 88
6, 84288, Note_on_c, 2, 71, 77
6, 84288, Note_on_c, 2, 74, 78
6, 84404, Note_on_c, 2, 74, 0
6, 84404, Note_on_c, 2, 71, 0
6, 84404, Note_on_c, 2, 66, 0
6, 84416, Note_on_c, 2, 66, 98
6, 84416, Note_on_c, 2, 71, 97
6, 84416, Note_on_c, 2, 74, 96
6, 84468, Note_on_c, 2, 74, 0
6, 84468, Note_on_c, 2, 71, 0
6, 84468, Note_on_c, 2, 66, 0
6, 84480, Note_on_c, 2, 66, 82
6, 84480, Note_on_c, 2, 69, 104
6, 84480, Note_on_c, 2, 74, 77
6, 84596, Note_on_c, 2, 74, 0
6, 84596, Note_on_c, 2, 69, 0
6, 84596, Note_on_c, 2, 66, 0
6, 84608, Note_on_c, 2, 66, 86
6, 84608, Note_on_c, 2, 69, 97
6, 84608, Note_on_c, 2, 74, 84
6, 84724, Note_on_c, 2, 74, 0
6, 84724, Note_on_c, 2, 69, 0
6, 84724, Note_on_c, 2, 66, 0
6, 84800, Note_on_c, 2, 66, 88
6, 84800, Note_on_c, 2, 69, 98
6, 84800, Note_on_c, 2, 74, 81
6, 84852, Note_on_c, 2, 74, 0
6, 84852, Note_on_c, 2, 69, 0
6, 84852, Note_on_c, 2, 66, 0
6, 84864, Note_on_c, 2, 66, 71
6, 84864, Note_on_c, 2, 69, 87
6, 84864, Note_on_c, 2, 74, 64
6, 84980, Note_on_c, 2, 74, 0
6, 84980, Note_on_c, 2, 69, 0
6, 84980, Note_on_c, 2, 66, 0
6, 84992, Note_on_c, 2, 66, 90
6, 84992, Note_on_c, 2, 69, 98
6, 84992, Note_on_c, 2, 74, 91
6, 85044, Note_on_c, 2, 74, 0
6, 85044, Note_on_c, 2, 69, 0
6, 85044, Note_on_c, 2, 66, 0
6, 85056, Note_on_c, 2, 66, 83
6, 85056, Note_on_c, 2, 69, 87
6, 85056, Note_on_c, 2, 74, 69
6, 85172, Note_on_c, 2, 74, 0
6, 85172, Note_on_c, 2, 69, 0
6, 85172, Note_on_c, 2, 66, 0
6, 85184, Note_on_c, 2, 66, 92
6, 85184, Note_on_c, 2, 69, 98
6, 85184, Note_on_c, 2, 74, 88
6, 85236, Note_on_c, 2, 74, 0
6, 85236, Note_on_c, 2, 69, 0
6, 85236, Note_on_c, 2, 66, 0
6, 85248, Note_on_c, 2, 64, 97
6, 85248, Note_on_c, 2, 69, 100
6, 85248, Note_on_c, 2, 73, 88
6, 85428, Note_on_c, 2, 73, 0
6, 85428, Note_on_c, 2, 69, 0
6, 85428, Note_on_c, 2, 64, 0
6, 92160, Note_on_c, 2, 66, 86
6, 92160, Note_on_c, 2, 78, 77
6, 92276, Note_on_c, 2, 78, 0
6, 92276, Note_on_c, 2, 66, 0
6, 92480, Note_on_c, 2, 66, 95
6, 92480, Note_on_c, 2, 78, 88
6, 92596, Note_on_c, 2, 78, 0
6, 92596, Note_on_c, 2, 66, 0
6, 92736, Note_on_c, 2, 66, 87
6, 92736, Note_on_c, 2, 78, 90
6, 92852, Note_on_c, 2, 78, 0
6, 92852, Note_on_c, 2, 66, 0
6, 93056, Note_on_c, 2, 66, 90
6, 93056, Note_on_c, 2, 78, 86
6, 93172, Note_on_c, 2, 78, 0
6, 93172, Note_on_c, 2, 66, 0
6, 93312, Note_on_c, 2, 66, 85
6, 93312, Note_on_c, 2, 78, 86
6, 93428, Note_on_c, 2, 78, 0
6, 93428, Note_on_c, 2, 66, 0
6, 93504, Note_on_c, 2, 66, 83
6, 93504, Note_on_c, 2, 78, 74
6, 93620, Note_on_c, 2, 78, 0
6, 93620, Note_on_c, 2, 66, 0
6, 93696, Note_on_c, 2, 66, 86
6, 93696, Note_on_c, 2, 78, 77
6, 93812, Note_on_c, 2, 78, 0
6, 93812, Note_on_c, 2, 66, 0
6, 94016, Note_on_c, 2, 66, 95
6, 94016, Note_on_c, 2, 78, 88
6, 94132, Note_on_c, 2, 78, 0
6, 94132, Note_on_c, 2, 66, 0
6, 94272, Note_on_c, 2, 66, 87
6, 94272, Note_on_c, 2, 78, 90
6, 94388, Note_on_c, 2, 78, 0
6, 94388, Note_on_c, 2, 66, 0
6, 94592, Note_on_c, 2, 66, 90
6, 94592, Note_on_c, 2, 78, 86
6, 94708, Note_on_c, 2, 78, 0
6, 94708, Note_on_c, 2, 66, 0
6, 94848, Note_on_c, 2, 66, 85
6, 94848, Note_on_c, 2, 78, 86
6, 94964, Note_on_c, 2, 78, 0
6, 94964, Note_on_c, 2, 66, 0
6, 95040, Note_on_c, 2, 66, 83
6, 95040, Note_on_c, 2, 78, 74
6, 95156, Note_on_c, 2, 78, 0
6, 95156, Note_on_c, 2, 66, 0
6, 95232, Note_on_c, 2, 66, 86
6, 95232, Note_on_c, 2, 78, 77
6, 95348, Note_on_c, 2, 78, 0
6, 95348, Note_on_c, 2, 66, 0
6, 95552, Note_on_c, 2, 66, 95
6, 95552, Note_on_c, 2, 78, 88
6, 95668, Note_on_c, 2, 78, 0
6, 95668, Note_on_c, 2, 66, 0
6, 95808, Note_on_c, 2, 66, 87
6, 95808, Note_on_c, 2, 78, 90
6, 95924, Note_on_c, 2, 78, 0
6, 95924, Note_on_c, 2, 66, 0
6, 96128, Note_on_c, 2, 66, 90
6, 96128, Note_on_c, 2, 78, 86
6, 96244, Note_on_c, 2, 78, 0
6, 96244, Note_on_c, 2, 66, 0
6, 96384, Note_on_c, 2, 66, 85
6, 96384, Note_on_c, 2, 78, 86
6, 96500, Note_on_c, 2, 78, 0
6, 96500, Note_on_c, 2, 66, 0
6, 96576, Note_on_c, 2, 66, 83
6, 96576, Note_on_c, 2, 78, 74
6, 96692, Note_on_c, 2, 78, 0
6, 96692, Note_on_c, 2, 66, 0
6, 96768, Note_on_c, 2, 66, 86
6, 96768, Note_on_c, 2, 78, 77
6, 96884, Note_on_c, 2, 78, 0
6, 96884, Note_on_c, 2, 66, 0
6, 97088, Note_on_c, 2, 66, 95
6, 97088, Note_on_c, 2, 78, 88
6, 97204, Note_on_c, 2, 78, 0
6, 97204, Note_on_c, 2, 66, 0
6, 97344, Note_on_c, 2, 66, 87
6, 97344, Note_on_c, 2, 78, 90
6, 97460, Note_on_c, 2, 78, 0
6, 97460, Note_on_c, 2, 66, 0
6, 97664, Note_on_c, 2, 66, 90
6, 97664, Note_on_c, 2, 78, 86
6, 97780, Note_on_c, 2, 78, 0
6, 97780, Note_on_c, 2, 66, 0
6, 97920, Note_on_c, 2, 66, 85
6, 97920, Note_on_c, 2, 78, 86
6, 98036, Note_on_c, 2, 78, 0
6, 98036, Note_on_c, 2, 66, 0
6, 98112, Note_on_c, 2, 66, 83
6, 98112, Note_on_c, 2, 78, 74
6, 98228, Note_on_c, 2, 78, 0
6, 98228, Note_on_c, 2, 66, 0
6, 98304, Note_on_c, 2, 66, 86
6, 98304, Note_on_c, 2, 78, 77
6, 98420, Note_on_c, 2, 78, 0
6, 98420, Note_on_c, 2, 66, 0
6, 98624, Note_on_c, 2, 66, 95
6, 98624, Note_on_c, 2, 78, 88
6, 98740, Note_on_c, 2, 78, 0
6, 98740, Note_on_c, 2, 66, 0
6, 98880, Note_on_c, 2, 66, 87
6, 98880, Note_on_c, 2, 78, 90
6, 98996, Note_on_c, 2, 78, 0
6, 98996, Note_on_c, 2, 66, 0
6, 99200, Note_on_c, 2, 66, 90
6, 99200, Note_on_c, 2, 78, 86
6, 99316, Note_on_c, 2, 78, 0
6, 99316, Note_on_c, 2, 66, 0
6, 99456, Note_on_c, 2, 66, 85
6, 99456, Note_on_c, 2, 78, 86
6, 99572, Note_on_c, 2, 78, 0
6, 99572, Note_on_c, 2, 66, 0
6, 99648, Note_on_c, 2, 66, 83
6, 99648, Note_on_c, 2, 78, 74
6, 99764, Note_on_c, 2, 78, 0
6, 99764, Note_on_c, 2, 66, 0
6, 99840, Note_on_c, 2, 66, 86
6, 99840, Note_on_c, 2, 78, 77
6, 99956, Note_on_c, 2, 78, 0
6, 99956, Note_on_c, 2, 66, 0
6, 100160, Note_on_c, 2, 66, 95
6, 100160, Note_on_c, 2, 78, 88
6, 100276, Note_on_c, 2, 78, 0
6, 100276, Note_on_c, 2, 66, 0
6, 100416, Note_on_c, 2, 66, 87
6, 100416, Note_on_c, 2, 78, 90
6, 100532, Note_on_c, 2, 78, 0
6, 100532, Note_on_c, 2, 66, 0
6, 100736, Note_on_c, 2, 66, 90
6, 100736, Note_on_c, 2, 78, 86
6, 100852, Note_on_c, 2, 78, 0
6, 100852, Note_on_c, 2, 66, 0
6, 100992, Note_on_c, 2, 66, 85
6, 100992, Note_on_c, 2, 78, 86
6, 101108, Note_on_c, 2, 78, 0
6, 101108, Note_on_c, 2, 66, 0
6, 101184, Note_on_c, 2, 66, 83
6, 101184, Note_on_c, 2, 78, 74
6, 101300, Note_on_c, 2, 78, 0
6, 101300, Note_on_c, 2, 66, 0
6, 101376, Note_on_c, 2, 66, 86
6, 101376, Note_on_c, 2, 78, 77
6, 101492, Note_on_c, 2, 78, 0
6, 101492, Note_on_c, 2, 66, 0
6, 101696, Note_on_c, 2, 66, 95
6, 101696, Note_on_c, 2, 78, 88
6, 101812, Note_on_c, 2, 78, 0
6, 101812, Note_on_c, 2, 66, 0
6, 101952, Note_on_c, 2, 66, 87
6, 101952, Note_on_c, 2, 78, 90
6, 102068, Note_on_c, 2, 78, 0
6, 102068, Note_on_c, 2, 66, 0
6, 102272, Note_on_c, 2, 66, 90
6, 102272, Note_on_c, 2, 78, 86
6, 102388, Note_on_c, 2, 78, 0
6, 102388, Note_on_c, 2, 66, 0
6, 102528, Note_on_c, 2, 66, 85
6, 102528, Note_on_c, 2, 78, 86
6, 102644, Note_on_c, 2, 78, 0
6, 102644, Note_on_c, 2, 66, 0
6, 102720, Note_on_c, 2, 66, 83
6, 102720, Note_on_c, 2, 78, 74
6, 102836, Note_on_c, 2, 78, 0
6, 102836, Note_on_c, 2, 66, 0
6, 102912, Note_on_c, 2, 66, 86
6, 102912, Note_on_c, 2, 78, 77
6, 103028, Note_on_c, 2, 78, 0
6, 103028, Note_on_c, 2, 66, 0
6, 103232, Note_on_c, 2, 66, 95
6, 103232, Note_on_c, 2, 78, 88
6, 103348, Note_on_c, 2, 78, 0
6, 103348, Note_on_c, 2, 66, 0
6, 103488, Note_on_c, 2, 66, 87
6, 103488, Note_on_c, 2, 78, 90
6, 103604, Note_on_c, 2, 78, 0
6, 103604, Note_on_c, 2, 66, 0
6, 103808, Note_on_c, 2, 66, 90
6, 103808, Note_on_c, 2, 78, 86
6, 103924, Note_on_c, 2, 78, 0
6, 103924, Note_on_c, 2, 66, 0
6, 104064, Note_on_c, 2, 66, 85
6, 104064, Note_on_c, 2, 78, 86
6, 104180, Note_on_c, 2, 78, 0
6, 104180, Note_on_c, 2, 66, 0
6, 104256, Note_on_c, 2, 66, 83
6, 104256, Note_on_c, 2, 78, 74
6, 104372, Note_on_c, 2, 78, 0
6, 104372, Note_on_c, 2, 66, 0
6, 113664, Note_on_c, 2, 66, 82
6, 113664, Note_on_c, 2, 71, 81
6, 113664, Note_on_c, 2, 74, 76
6, 113780, Note_on_c, 2, 74, 0
6, 113780, Note_on_c, 2, 71, 0
6, 113780, Note_on_c, 2, 66, 0
6, 113792, Note_on_c, 2, 66, 85
6, 113792, Note_on_c, 2, 71, 88
6, 113792, Note_on_c, 2, 74, 83
6, 113844, Note_on_c, 2, 74, 0
6, 113844, Note_on_c, 2, 71, 0
6, 113844, Note_on_c, 2, 66, 0
6, 113984, Note_on_c, 2, 66, 86
6, 113984, Note_on_c, 2, 71, 89
6, 113984, Note_on_c, 2, 74, 81
6, 114036, Note_on_c, 2, 74, 0
6, 114036, Note_on_c, 2, 71, 0
6, 114036, Note_on_c, 2, 66, 0
6, 114048, Note_on_c, 2, 66, 88
6, 114048, Note_on_c, 2, 71, 88
6, 114048, Note_on_c, 2, 74, 81
6, 114164, Note_on_c, 2, 74, 0
6, 114164, Note_on_c, 2, 71, 0
6, 114164, Note_on_c, 2, 66, 0
6, 114176, Note_on_c, 2, 66, 82
6, 114176, Note_on_c, 2, 71, 84
6, 114176, Note_on_c, 2, 74, 71
6, 114228, Note_on_c, 2, 74, 0
6, 114228, Note_on_c, 2, 71, 0
6, 114228, Note_on_c, 2, 66, 0
6, 114240, Note_on_c, 2, 66, 84
6, 114240, Note_on_c, 2, 71, 89
6, 114240, Note_on_c, 2, 74, 80
6, 114356, Note_on_c, 2, 74, 0
6, 114356, Note_on_c, 2, 71, 0
6, 114356, Note_on_c, 2, 66, 0
6, 114368, Note_on_c, 2, 66, 88
6, 114368, Note_on_c, 2, 71, 87
6, 114368, Note_on_c, 2, 74, 82
6, 114420, Note_on_c, 2, 74, 0
6, 114420, Note_on_c, 2, 71, 0
6, 114420, Note_on_c, 2, 66, 0
6, 114560, Note_on_c, 2, 66, 83
6, 114560, Note_on_c, 2, 71, 88
6, 114560, Note_on_c, 2, 74, 76
6, 114612, Note_on_c, 2, 74, 0
6, 114612, Note_on_c, 2, 71, 0
6, 114612, Note_on_c, 2, 66, 0
6, 114752, Note_on_c, 2, 66, 86
6, 114752, Note_on_c, 2, 71, 86
6, 114752, Note_on_c, 2, 74, 83
6, 114804, Note_on_c, 2, 74, 0
6, 114804, Note_on_c, 2, 71, 0
6, 114804, Note_on_c, 2, 66, 0
6, 114944, Note_on_c, 2, 66, 89
6, 114944, Note_on_c, 2, 71, 90
6, 114944, Note_on_c, 2, 74, 83
6, 114996, Note_on_c, 2, 74, 0
6, 114996, Note_on_c, 2, 71, 0
6, 114996, Note_on_c, 2, 66, 0
6, 115008, Note_on_c, 2, 66, 86
6, 115008, Note_on_c, 2, 71, 92
6, 115008, Note_on_c, 2, 74, 86
6, 115124, Note_on_c, 2, 74, 0
6, 115124, Note_on_c, 2, 71, 0
6, 115124, Note_on_c, 2, 66, 0
6, 115136, Note_on_c, 2, 66, 89
6, 115136, Note_on_c, 2, 71, 88
6, 115136, Note_on_c, 2, 74, 86
6, 115188, Note_on_c, 2, 74, 0
6, 115188, Note_on_c, 2, 71, 0
6, 115188, Note_on_c, 2, 66, 0
6, 115200, Note_on_c, 2, 64, 85
6, 115200, Note_on_c, 2, 69, 94
6, 115200, Note_on_c, 2, 73, 81
6, 115316, Note_on_c, 2, 73, 0
6, 115316, Note_on_c, 2, 69, 0
6, 115316, Note_on_c, 2, 64, 0
6, 115328, Note_on_c, 2, 64, 92
6, 115328, Note_on_c, 2, 69, 98
6, 115328, Note_on_c, 2, 73, 88
6, 115380, Note_on_c, 2, 73, 0
6, 115380, Note_on_c, 2, 69, 0
6, 115380, Note_on_c, 2, 64, 0
6, 115520, Note_on_c, 2, 64, 83
6, 115520, Note_on_c, 2, 69, 92
6, 115520, Note_on_c, 2, 73, 83
6, 115572, Note_on_c, 2, 73, 0
6, 115572, Note_on_c, 2, 69, 0
6, 115572, Note_on_c, 2, 64, 0
6, 115584, Note_on_c, 2, 64, 83
6, 115584, Note_on_c, 2, 69, 96
6, 115584, Note_on_c, 2, 73, 83
6, 115700, Note_on_c, 2, 73, 0
6, 115700, Note_on_c, 2, 69, 0
6, 115700, Note_on_c, 2, 64, 0
6, 115712, Note_on_c, 2, 64, 84
6, 115712, Note_on_c, 2, 69, 95
6, 115712, Note_on_c, 2, 73, 82
6, 115764, Note_on_c, 2, 73, 0
6, 115764, Note_on_c, 2, 69, 0
6, 115764, Note_on_c, 2, 64, 0
6, 115776, Note_on_c, 2, 64, 89
6, 115776, Note_on_c, 2, 69, 96
6, 115776, Note_on_c, 2, 73, 84
6, 115892, Note_on_c, 2, 73, 0
6, 115892, Note_on_c, 2, 69, 0
6, 115892, Note_on_c, 2, 64, 0
6, 115904, Note_on_c, 2, 64, 86
6, 115904, Note_on_c, 2, 69, 94
6, 115904, Note_on_c, 2, 73, 79
6, 115956, Note_on_c, 2, 73, 0
6, 115956, Note_on_c, 2, 69, 0
6, 115956, Note_on_c, 2, 64, 0
6, 116096, Note_on_c, 2, 64, 85
6, 116096, Note_on_c, 2, 69, 94
6, 116096, Note_on_c, 2, 73, 84
6, 116148, Note_on_c, 2, 73, 0
6, 116148, Note_on_c, 2, 69, 0
6, 116148, Note_on_c, 2, 64, 0
6, 116288, Note_on_c, 2, 64, 85
6, 116288, Note_on_c, 2, 69, 94
6, 116288, Note_on_c, 2, 73, 84
6, 116340, Note_on_c, 2, 73, 0
6, 116340, Note_on_c, 2, 69, 0
6, 116340, Note_on_c, 2, 64, 0
6, 116480, Note_on_c, 2, 64, 86
6, 116480, Note_on_c, 2, 69, 80
6, 116480, Note_on_c, 2, 73, 62
6, 116532, Note_on_c, 2, 73, 0
6, 116532, Note_on_c, 2, 69, 0
6, 116532, Note_on_c, 2, 64, 0
6, 116544, Note_on_c, 2, 64, 96
6, 116544, Note_on_c, 2, 69, 103
6, 116544, Note_on_c, 2, 73, 93
6, 116660, Note_on_c, 2, 73, 0
6, 116660, Note_on_c, 2, 69, 0
6, 116660, Note_on_c, 2, 64, 0
6, 116672, Note_on_c, 2, 64, 88
6, 116672, Note_on_c, 2, 69, 96
6, 116672, Note_on_c, 2, 73, 84
6, 116724, Note_on_c, 2, 73, 0
6, 116724, Note_on_c, 2, 69, 0
6, 116724, Note_on_c, 2, 64, 0
6, 116736, Note_on_c, 2, 66, 82
6, 116736, Note_on_c, 2, 71, 81
6, 116736, Note_on_c, 2, 74, 76
6, 116852, Note_on_c, 2, 74, 0
6, 116852, Note_on_c, 2, 71, 0
6, 116852, Note_on_c, 2, 66, 0
6, 116864, Note_on_c, 2, 66, 85
6, 116864, Note_on_c, 2, 71, 88
6, 116864, Note_on_c, 2, 74, 83
6, 116916, Note_on_c, 2, 74, 0
6, 116916, Note_on_c, 2, 71, 0
6, 116916, Note_on_c, 2, 66, 0
6, 117056, Note_on_c, 2, 66, 86
6, 117056, Note_on_c, 2, 71, 89
6, 117056, Note_on_c, 2, 74, 81
6, 117108, Note_on_c, 2, 74, 0
6, 117108, Note_on_c, 2, 71, 0
6, 117108, Note_on_c, 2, 66, 0
6, 117120, Note_on_c, 2, 66, 88
6, 117120, Note_on_c, 2, 71, 88
6, 117120, Note_on_c, 2, 74, 81
6, 117236, Note_on_c, 2, 74, 0
6, 117236, Note_on_c, 2, 71, 0
6, 117236, Note_on_c, 2, 66, 0
6, 117248, Note_on_c, 2, 66, 82
6, 117248, Note_on_c, 2, 71, 84
6, 117248, Note_on_c, 2, 74, 71
6, 117300, Note_on_c, 2, 74, 0
6, 117300, Note_on_c, 2, 71, 0
6, 117300, Note_on_c, 2, 66, 0
6, 117312, Note_on_c, 2, 66, 84
6, 117312, Note_on_c, 2, 71, 89
6, 117312, Note_on_c, 2, 74, 80
6, 117428, Note_on_c, 2, 74, 0
6, 117428, Note_on_c, 2, 71, 0
6, 117428, Note_on_c, 2, 66, 0
6, 117440, Note_on_c, 2, 66, 88
6, 117440, Note_on_c, 2, 71, 87
6, 117440, Note_on_c, 2, 74, 82
6, 117492, Note_on_c, 2, 74, 0
6, 117492, Note_on_c, 2, 71, 0
6, 117492, Note_on_c, 2, 66, 0
6, 117632, Note_on_c, 2, 66, 83
6, 117632, Note_on_c, 2, 71, 88
6, 117632, Note_on_c, 2, 74, 76
6, 117684, Note_on_c, 2, 74, 0
6, 117684, Note_on_c, 2, 71, 0
6, 117684, Note_on_c, 2, 66, 0
6, 117824, Note_on_c, 2, 66, 86
6, 117824, Note_on_c, 2, 71, 86
6, 117824, Note_on_c, 2, 74, 83
6, 117876, Note_on_c, 2, 74, 0
6, 117876, Note_on_c, 2, 71, 0
6, 117876, Note_on_c, 2, 66, 0
6, 118016, Note_on_c, 2, 66, 89
6, 118016, Note_on_c, 2, 71, 90
6, 118016, Note_on_c, 2, 74, 83
6, 118068, Note_on_c, 2, 74, 0
6, 118068, Note_on_c, 2, 71, 0
6, 118068, Note_on_c, 2, 66, 0
6, 118080, Note_on_c, 2, 66, 86
6, 118080, Note_on_c, 2, 71, 92
6, 118080, Note_on_c, 2, 74, 86
6, 118196, Note_on_c, 2, 74, 0
6, 118196, Note_on_c, 2, 71, 0
6, 118196, Note_on_c, 2, 66, 0
6, 118208, Note_on_c, 2, 66, 89
6, 118208, Note_on_c, 2, 71, 88
6, 118208, Note_on_c, 2, 74, 86
6, 118260, Note_on_c, 2, 74, 0
6, 118260, Note_on_c, 2, 71, 0
6, 118260, Note_on_c, 2, 66, 0
6, 118272, Note_on_c, 2, 64, 85
6, 118272, Note_on_c, 2, 69, 94
6, 118272, Note_on_c, 2, 73, 81
6, 118388, Note_on_c, 2, 73, 0
6, 118388, Note_on_c, 2, 69, 0
6, 118388, Note_on_c, 2, 64, 0
6, 118400, Note_on_c, 2, 64, 92
6, 118400, Note_on_c, 2, 69, 98
6, 118400, Note_on_c, 2, 73, 88
6, 118452, Note_on_c, 2, 73, 0
6, 118452, Note_on_c, 2, 69, 0
6, 118452, Note_on_c, 2, 64, 0
6, 118592, Note_on_c, 2, 64, 83
6, 118592, Note_on_c, 2, 69, 92
6, 118592, Note_on_c, 2, 73, 83
6, 118644, Note_on_c, 2, 73, 0
6, 118644, Note_on_c, 2, 69, 0
6, 118644, Note_on_c, 2, 64, 0
6, 118656, Note_on_c, 2, 64, 83
6, 118656, Note_on_c, 2, 69, 96
6, 118656, Note_on_c, 2, 73, 83
6, 118772, Note_on_c, 2, 73, 0
6, 118772, Note_on_c, 2, 69, 0
6, 118772, Note_on_c, 2, 64, 0
6, 118784, Note_on_c, 2, 64, 84
6, 118784, Note_on_c, 2, 69, 95
6, 118784, Note_on_c, 2, 73, 82
6, 118836, Note_on_c, 2, 73, 0
6, 118836, Note_on_c, 2, 69, 0
6, 118836, Note_on_c, 2, 64, 0
6, 118848, Note_on_c, 2, 64, 89
6, 118848, Note_on_c, 2, 69, 96
6, 118848, Note_on_c, 2, 73, 84
6, 118964, Note_on_c, 2, 73, 0
6, 118964, Note_on_c, 2, 69, 0
6, 118964, Note_on_c, 2, 64, 0
6, 118976, Note_on_c, 2, 64, 86
6, 118976, Note_on_c, 2, 69, 94
6, 118976, Note_on_c, 2, 73, 79
6, 119028, Note_on_c, 2, 73, 0
6, 119028, Note_on_c, 2, 69, 0
6, 119028, Note_on_c, 2, 64, 0
6, 119168, Note_on_c, 2, 64, 85
6, 119168, Note_on_c, 2, 69, 94
6, 119168, Note_on_c, 2, 73, 84
6, 119220, Note_on_c, 2, 73, 0
6, 119220, Note_on_c, 2, 69, 0
6, 119220, Note_on_c, 2, 64, 0
6, 119360, Note_on_c, 2, 64, 85
6, 119360, Note_on_c, 2, 69, 94
6, 119360, Note_on_c, 2, 73, 84
6, 119412, Note_on_c, 2, 73, 0
6, 119412, Note_on_c, 2, 69, 0
6, 119412, Note_on_c, 2, 64, 0
6, 119552, Note_on_c, 2, 64, 86
6, 119552, Note_on_c, 2, 69, 80
6, 119552, Note_on_c, 2, 73, 62
6, 119604, Note_on_c, 2, 73, 0
6, 119604, Note_on_c, 2, 69, 0
6, 119604, Note_on_c, 2, 64, 0
6, 119616, Note_on_c, 2, 64, 96
6, 119616, Note_on_c, 2, 69, 103
6, 119616, Note_on_c, 2, 73, 93
6, 119732, Note_on_c, 2, 73, 0
6, 119732, Note_on_c, 2, 69, 0
6, 119732, Note_on_c, 2, 64, 0
6, 119744, Note_on_c, 2, 64, 88
6, 119744, Note_on_c, 2, 69, 96
6, 119744, Note_on_c, 2, 73, 84
6, 119796, Note_on_c, 2, 73, 0
6, 119796, Note_on_c, 2, 69, 0
6, 119796, Note_on_c, 2, 64, 0
6, 119808, Note_on_c, 2, 66, 82
6, 119808, Note_on_c, 2, 71, 81
6, 119808, Note_on_c, 2, 74, 76
6, 119924, Note_on_c, 2, 74, 0
6, 119924, Note_on_c, 2, 71, 0
6, 119924, Note_on_c, 2, 66, 0
6, 119936, Note_on_c, 2, 66, 85
6, 119936, Note_on_c, 2, 71, 88
6, 119936, Note_on_c, 2, 74, 83
6, 119988, Note_on_c, 2, 74, 0
6, 119988, Note_on_c, 2, 71, 0
6, 119988, Note_on_c, 2, 66, 0
6, 120128, Note_on_c, 2, 66, 86
6, 120128, Note_on_c, 2, 71, 89
6, 120128, Note_on_c, 2, 74, 81
6, 120180, Note_on_c, 2, 74, 0
6, 120180, Note_on_c, 2, 71, 0
6, 120180, Note_on_c, 2, 66, 0
6, 120192, Note_on_c, 2, 66, 88
6, 120192, Note_on_c, 2, 71, 88
6, 120192, Note_on_c, 2, 74, 81
6, 120308, Note_on_c, 2, 74, 0
6, 120308, Note_on_c, 2, 71, 0
6, 120308, Note_on_c, 2, 66, 0
6, 120320, Note_on_c, 2, 66, 82
6, 120320, Note_on_c, 2, 71, 84
6, 120320, Note_on_c, 2, 74, 71
6, 120372, Note_on_c, 2, 74, 0
6, 120372, Note_on_c, 2, 71, 0
6, 120372, Note_on_c, 2, 66, 0
6, 120384, Note_on_c, 2, 66, 84
6, 120384, Note_on_c, 2, 71, 89
6, 120384, Note_on_c, 2, 74, 80
6, 120500, Note_on_c, 2, 74, 0
6, 120500, Note_on_c, 2, 71, 0
6, 120500, Note_on_c, 2, 66, 0
6, 120512, Note_on_c, 2, 66, 88
6, 120512, Note_on_c, 2, 71, 87
6, 120512, Note_on_c, 2, 74, 82
6, 120564, Note_on_c, 2, 74, 0
6, 120564, Note_on_c, 2, 71, 0
6, 120564, Note_on_c, 2, 66, 0
6, 120704, Note_on_c, 2, 66, 83
6, 120704, Note_on_c, 2, 71, 88
6, 120704, Note_on_c, 2, 74, 76
6, 120756, Note_on_c, 2, 74, 0
6, 120756, Note_on_c, 2, 71, 0
6, 120756, Note_on_c, 2, 66, 0
6, 120896, Note_on_c, 2, 66, 86
6, 120896, Note_on_c, 2, 71, 86
6, 120896, Note_on_c, 2, 74, 83
6, 120948, Note_on_c, 2, 74, 0
6, 120948, Note_on_c, 2, 71, 0
6, 120948, Note_on_c, 2, 66, 0
6, 121088, Note_on_c, 2, 66, 89
6, 121088, Note_on_c, 2, 71, 90
6, 121088, Note_on_c, 2, 74, 83
6, 121140, Note_on_c, 2, 74, 0
6, 121140, Note_on_c, 2, 71, 0
6, 121140, Note_on_c, 2, 66, 0
6, 121152, Note_on_c, 2, 66, 86
6, 121152, Note_on_c, 2, 71, 92
6, 121152, Note_on_c, 2, 74, 86
6, 121268, Note_on_c, 2, 74, 0
6, 121268, Note_on_c, 2, 71, 0
6, 121268, Note_on_c, 2, 66, 0
6, 121280, Note_on_c, 2, 66, 89
6, 121280, Note_on_c, 2, 71, 88
6, 121280, Note_on_c, 2, 74, 86
6, 121332, Note_on_c, 2, 74, 0
6, 121332, Note_on_c, 2, 71, 0
6, 121332, Note_on_c, 2, 66, 0
6, 121344, Note_on_c, 2, 64, 85
6, 121344, Note_on_c, 2, 69, 94
6, 121344, Note_on_c, 2, 73, 81
6, 121460, Note_on_c, 2, 73, 0
6, 121460, Note_on_c, 2, 69, 0
6, 121460, Note_on_c, 2, 64, 0
6, 121472, Note_on_c, 2, 64, 92
6, 121472, Note_on_c, 2, 69, 98
6, 121472, Note_on_c, 2, 73, 88
6, 121524, Note_on_c, 2, 73, 0
6, 121524, Note_on_c, 2, 69, 0
6, 121524, Note_on_c, 2, 64, 0
6, 121664, Note_on_c, 2, 64, 83
6, 121664, Note_on_c, 2, 69, 92
6, 121664, Note_on_c, 2, 73, 83
6, 121716, Note_on_c, 2, 73, 0
6, 121716, Note_on_c, 2, 69, 0
6, 121716, Note_on_c, 2, 64, 0
6, 121728, Note_on_c, 2, 64, 83
6, 121728, Note_on_c, 2, 69, 96
6, 121728, Note_on_c, 2, 73, 83
6, 121844, Note_on_c, 2, 73, 0
6, 121844, Note_on_c, 2, 69, 0
6, 121844, Note_on_c, 2, 64, 0
6, 121856, Note_on_c, 2, 64, 84
6, 121856, Note_on_c, 2, 69, 95
6, 121856, Note_on_c, 2, 73, 82
6, 121908, Note_on_c, 2, 73, 0
6, 121908, Note_on_c, 2, 69, 0
6, 121908, Note_on_c, 2, 64, 0
6, 121920, Note_on_c, 2, 64, 89
6, 121920, Note_on_c, 2, 69, 96
6, 121920, Note_on_c, 2, 73, 84
6, 122036, Note_on_c, 2, 73, 0
6, 122036, Note_on_c, 2, 69, 0
6, 122036, Note_on_c, 2, 64, 0
6, 122048, Note_on_c, 2, 64, 86
6, 122048, Note_on_c, 2, 69, 94
6, 122048, Note_on_c, 2, 73, 79
6, 122100, Note_on_c, 2, 73, 0
6, 122100, Note_on_c, 2, 69, 0
6, 122100, Note_on_c, 2, 64, 0
6, 122240, Note_on_c, 2, 64, 85
6, 122240, Note_on_c, 2, 69, 94
6, 122240, Note_on_c, 2, 73, 84
6, 122292, Note_on_c, 2, 73, 0
6, 122292, Note_on_c, 2, 69, 0
6, 122292, Note_on_c, 2, 64, 0
6, 122432, Note_on_c, 2, 64, 85
6, 122432, Note_on_c, 2, 69, 94
6, 122432, Note_on_c, 2, 73, 84
6, 122484, Note_on_c, 2, 73, 0
6, 122484, Note_on_c, 2, 69, 0
6, 122484, Note_on_c, 2, 64, 0
6, 122624, Note_on_c, 2, 64, 86
6, 122624, Note_on_c, 2, 69, 80
6, 122624, Note_on_c, 2, 73, 62
6, 122676, Note_on_c, 2, 73, 0
6, 122676, Note_on_c, 2, 69, 0
6, 122676, Note_on_c, 2, 64, 0
6, 122688, Note_on_c, 2, 64, 96
6, 122688, Note_on_c, 2, 69, 103
6, 122688, Note_on_c, 2, 73, 93
6, 122804, Note_on_c, 2, 73, 0
6, 122804, Note_on_c, 2, 69, 0
6, 122804, Note_on_c, 2, 64, 0
6, 122816, Note_on_c, 2, 64, 88
6, 122816, Note_on_c, 2, 69, 96
6, 122816, Note_on_c, 2, 73, 84
6, 122868, Note_on_c, 2, 73, 0
6, 122868, Note_on_c, 2, 69, 0
6, 122868, Note_on_c, 2, 64, 0
6, 122880, Note_on_c, 2, 66, 82
6, 122880, Note_on_c, 2, 71, 81
6, 122880, Note_on_c, 2, 74, 76
6, 122996, Note_on_c, 2, 74, 0
6, 122996, Note_on_c, 2, 71, 0
6, 122996, Note_on_c, 2, 66, 0
6, 123008, Note_on_c, 2, 66, 85
6, 123008, Note_on_c, 2, 71, 88
6, 123008, Note_on_c, 2, 74, 83
6, 123060, Note_on_c, 2, 74, 0
6, 123060, Note_on_c, 2, 71, 0
6, 123060, Note_on_c, 2, 66, 0
6, 123200, Note_on_c, 2, 66, 86
6, 123200, Note_on_c, 2, 71, 89
6, 123200, Note_on_c, 2, 74, 81
6, 123252, Note_on_c, 2, 74, 0
6, 123252, Note_on_c, 2, 71, 0
6, 123252, Note_on_c, 2, 66, 0
6, 123264, Note_on_c, 2, 66, 88
6, 123264, Note_on_c, 2, 71, 88
6, 123264, Note_on_c, 2, 74, 81
6, 123380, Note_on_c, 2, 74, 0
6, 123380, Note_on_c, 2, 71, 0
6, 123380, Note_on_c, 2, 66, 0
6, 123392, Note_on_c, 2, 66, 82
6, 123392, Note_on_c, 2, 71, 84
6, 123392, Note_on_c, 2, 74, 71
6, 123444, Note_on_c, 2, 74, 0
6, 123444, Note_on_c, 2, 71, 0
6, 123444, Note_on_c, 2, 66, 0
6, 123456, Note_on_c, 2, 66, 84
6, 123456, Note_on_c, 2, 71, 89
6, 123456, Note_on_c, 2, 74, 80
6, 123572, Note_on_c, 2, 74, 0
6, 123572, Note_on_c, 2, 71, 0
6, 123572, Note_on_c, 2, 66, 0
6, 123584, Note_on_c, 2, 66, 88
6, 123584, Note_on_c, 2, 71, 87
6, 123584, Note_on_c, 2, 74, 82
6, 123636, Note_on_c, 2, 74, 0
6, 123636, Note_on_c, 2, 71, 0
6, 123636, Note_on_c, 2, 66, 0
6, 123776, Note_on_c, 2, 66, 83
6, 123776, Note_on_c, 2, 71, 88
6, 123776, Note_on_c, 2, 74, 76
6, 123828, Note_on_c, 2, 74, 0
6, 123828, Note_on_c, 2, 71, 0
6, 123828, Note_on_c, 2, 66, 0
6, 123968, Note_on_c, 2, 66, 86
6, 123968, Note_on_c, 2, 71, 86
6, 123968, Note_on_c, 2, 74, 83
6, 124020, Note_on_c, 2, 74, 0
6, 124020, Note_on_c, 2, 71, 0
6, 124020, Note_on_c, 2, 66, 0
6, 124160, Note_on_c, 2, 66, 89
6, 124160, Note_on_c, 2, 71, 90
6, 124160, Note_on_c, 2, 74, 83
6, 124212, Note_on_c, 2, 74, 0
6, 124212, Note_on_c, 2, 71, 0
6, 124212, Note_on_c, 2, 66, 0
6, 124224, Note_on_c, 2, 66, 86
6, 124224, Note_on_c, 2, 71, 92
6, 124224, Note_on_c, 2, 74, 86
6, 124340, Note_on_c, 2, 74, 0
6, 124340, Note_on_c, 2, 71, 0
6, 124340, Note_on_c, 2, 66, 0
6, 124352, Note_on_c, 2, 66, 89
6, 124352, Note_on_c, 2, 71, 88
6, 124352, Note_on_c, 2, 74, 86
6, 124404, Note_on_c, 2, 74, 0
6, 124404, Note_on_c, 2, 71, 0
6, 124404, Note_on_c, 2, 66, 0
6, 124416, Note_on_c, 2, 64, 85
6, 124416, Note_on_c, 2, 69, 94
6, 124416, Note_on_c, 2, 73, 81
6, 124532, Note_on_c, 2, 73, 0
6, 124532, Note_on_c, 2, 69, 0
6, 124532, Note_on_c, 2, 64, 0
6, 124544, Note_on_c, 2, 64, 92
6, 124544, Note_on_c, 2, 69, 98
6, 124544, Note_on_c, 2, 73, 88
6, 124596, Note_on_c, 2, 73, 0
6, 124596, Note_on_c, 2, 69, 0
6, 124596, Note_on_c, 2, 64, 0
6, 124736, Note_on_c, 2, 64, 83
6, 124736, Note_on_c, 2, 69, 92
6, 124736, Note_on_c, 2, 73, 83
6, 124788, Note_on_c, 2, 73, 0
6, 124788, Note_on_c, 2, 69, 0
6, 124788, Note_on_c, 2, 64, 0
6, 124800, Note_on_c, 2, 64, 83
6, 124800, Note_on_c, 2, 69, 96
6, 124800, Note_on_c, 2, 73, 83
6, 124916, Note_on_c, 2, 73, 0
6, 124916, Note_on_c, 2, 69, 0
6, 124916, Note_on_c, 2, 64, 0
6, 124928, Note_on_c, 2, 64, 84
6, 124928, Note_on_c, 2, 69, 95
6, 124928, Note_on_c, 2, 73, 82
6, 124980, Note_on_c, 2, 73, 0
6, 124980, Note_on_c, 2, 69, 0
6, 124980, Note_on_c, 2, 64, 0
6, 124992, Note_on_c, 2, 64, 89
6, 124992, Note_on_c, 2, 69, 96
6, 124992, Note_on_c, 2, 73, 84
6, 125108, Note_on_c, 2, 73, 0
6, 125108, Note_on_c, 2, 69, 0
6, 125108, Note_on_c, 2, 64, 0
6, 125120, Note_on_c, 2, 64, 86
6, 125120, Note_on_c, 2, 69, 94
6, 125120, Note_on_c, 2, 73, 79
6, 125172, Note_on_c, 2, 73, 0
6, 125172, Note_on_c, 2, 69, 0
6, 125172, Note_on_c, 2, 64, 0
6, 125312, Note_on_c, 2, 64, 85
6, 125312, Note_on_c, 2, 69, 94
6, 125312, Note_on_c, 2, 73, 84
6, 125364, Note_on_c, 2, 73, 0
6, 125364, Note_on_c, 2, 69, 0
6, 125364, Note_on_c, 2, 64, 0
6, 125504, Note_on_c, 2, 64, 85
6, 125504, Note_on_c, 2, 69, 94
6, 125504, Note_on_c, 2, 73, 84
6, 125556, Note_on_c, 2, 73, 0
6, 125556, Note_on_c, 2, 69, 0
6, 125556, Note_on_c, 2, 64, 0
6, 125696, Note_on_c, 2, 64, 86
6, 125696, Note_on_c, 2, 69, 80
6, 125696, Note_on_c, 2, 73, 62
6, 125748, Note_on_c, 2, 73, 0
6, 125748, Note_on_c, 2, 69, 0
6, 125748, Note_on_c, 2, 64, 0
6, 125760, Note_on_c, 2, 64, 96
6, 125760, Note_on_c, 2, 69, 103
6, 125760, Note_on_c, 2, 73, 93
6, 125876, Note_on_c, 2, 73, 0
6, 125876, Note_on_c, 2, 69, 0
6, 125876, Note_on_c, 2, 64, 0
6, 125888, Note_on_c, 2, 64, 88
6, 125888, Note_on_c, 2, 69, 96
6, 125888, Note_on_c, 2, 73, 84
6, 125940, Note_on_c, 2, 73, 0
6, 125940, Note_on_c, 2, 69, 0
6, 125940, Note_on_c, 2, 64, 0
6, 125952, Note_on_c, 2, 66, 87
6, 125952, Note_on_c, 2, 71, 79
6, 125952, Note_on_c, 2, 74, 82
6, 126068, Note_on_c, 2, 74, 0
6, 126068, Note_on_c, 2, 71, 0
6, 126068, Note_on_c, 2, 66, 0
6, 126080, Note_on_c, 2, 66, 83
6, 126080, Note_on_c, 2, 71, 79
6, 126080, Note_on_c, 2, 74, 87
6, 126196, Note_on_c, 2, 74, 0
6, 126196, Note_on_c, 2, 71, 0
6, 126196, Note_on_c, 2, 66, 0
6, 126272, Note_on_c, 2, 66, 77
6, 126272, Note_on_c, 2, 71, 79
6, 126272, Note_on_c, 2, 74, 75
6, 126324, Note_on_c, 2, 74, 0
6, 126324, Note_on_c, 2, 71, 0
6, 126324, Note_on_c, 2, 66, 0
6, 126336, Note_on_c, 2, 66, 73
6, 126336, Note_on_c, 2, 71, 75
6, 126336, Note_on_c, 2, 74, 69
6, 126452, Note_on_c, 2, 74, 0
6, 126452, Note_on_c, 2, 71, 0
6, 126452, Note_on_c, 2, 66, 0
6, 126464, Note_on_c, 2, 66, 98
6, 126464, Note_on_c, 2, 71, 97
6, 126464, Note_on_c, 2, 74, 98
6, 126516, Note_on_c, 2, 74, 0
6, 126516, Note_on_c, 2, 71, 0
6, 126516, Note_on_c, 2, 66, 0
6, 126528, Note_on_c, 2, 66, 83
6, 126528, Note_on_c, 2, 71, 79
6, 126528, Note_on_c, 2, 74, 71
6, 126644, Note_on_c, 2, 74, 0
6, 126644, Note_on_c, 2, 71, 0
6, 126644, Note_on_c, 2, 66, 0
6, 126656, Note_on_c, 2, 66, 99
6, 126656, Note_on_c, 2, 71, 100
6, 126656, Note_on_c, 2, 74, 102
6, 126708, Note_on_c, 2, 74, 0
6, 126708, Note_on_c, 2, 71, 0
6, 126708, Note_on_c, 2, 66, 0
6, 126848, Note_on_c, 2, 66, 84
6, 126848, Note_on_c, 2, 71, 85
6, 126848, Note_on_c, 2, 74, 80
6, 126900, Note_on_c, 2, 74, 0
6, 126900, Note_on_c, 2, 71, 0
6, 126900, Note_on_c, 2, 66, 0
6, 127040, Note_on_c, 2, 66, 88
6, 127040, Note_on_c, 2, 71, 75
6, 127040, Note_on_c, 2, 74, 84
6, 127092, Note_on_c, 2, 74, 0
6, 127092, Note_on_c, 2, 71, 0
6, 127092, Note_on_c, 2, 66, 0
6, 127232, Note_on_c, 2, 66, 77
6, 127232, Note_on_c, 2, 71, 78
6, 127232, Note_on_c, 2, 74, 68
6, 127284, Note_on_c, 2, 74, 0
6, 127284, Note_on_c, 2, 71, 0
6, 127284, Note_on_c, 2, 66, 0
6, 127296, Note_on_c, 2, 66, 88
6, 127296, Note_on_c, 2, 71, 77
6, 127296, Note_on_c, 2, 74, 78
6, 127412, Note_on_c, 2, 74, 0
6, 127412, Note_on_c, 2, 71, 0
6, 127412, Note_on_c, 2, 66, 0
6, 127424, Note_on_c, 2, 66, 98
6, 127424, Note_on_c, 2, 71, 97
6, 127424, Note_on_c, 2, 74, 96
6, 127476, Note_on_c, 2, 74, 0
6, 127476, Note_on_c, 2, 71, 0
6, 127476, Note_on_c, 2, 66, 0
6, 127488, Note_on_c, 2, 66, 82
6, 127488, Note_on_c, 2, 69, 104
6, 127488, Note_on_c, 2, 74, 77
6, 127604, Note_on_c, 2, 74, 0
6, 127604, Note_on_c, 2, 69, 0
6, 127604, Note_on_c, 2, 66, 0
6, 127616, Note_on_c, 2, 66, 86
6, 127616, Note_on_c, 2, 69, 97
6, 127616, Note_on_c, 2, 74, 84
6, 127732, Note_on_c, 2, 74, 0
6, 127732, Note_on_c, 2, 69, 0
6, 127732, Note_on_c, 2, 66, 0
6, 127808, Note_on_c, 2, 66, 88
6, 127808, Note_on_c, 2, 69, 98
6, 127808, Note_on_c, 2, 74, 81
6, 127860, Note_on_c, 2, 74, 0
6, 127860, Note_on_c, 2, 69, 0
6, 127860, Note_on_c, 2, 66, 0
6, 127872, Note_on_c, 2, 66, 71
6, 127872, Note_on_c, 2, 69, 87
6, 127872, Note_on_c, 2, 74, 64
6, 127988, Note_on_c, 2, 74, 0
6, 127988, Note_on_c, 2, 69, 0
6, 127988, Note_on_c, 2, 66, 0
6, 128000, Note_on_c, 2, 66, 90
6, 128000, Note_on_c, 2, 69, 98
6, 128000, Note_on_c, 2, 74, 91
6, 128052, Note_on_c, 2, 74, 0
6, 128052, Note_on_c, 2, 69, 0
6, 128052, Note_on_c, 2, 66, 0
6, 128064, Note_on_c, 2, 66, 83
6, 128064, Note_on_c, 2, 69, 87
6, 128064, Note_on_c, 2, 74, 69
6, 128180, Note_on_c, 2, 74, 0
6, 128180, Note_on_c, 2, 69, 0
6, 128180, Note_on_c, 2, 66, 0
6, 128192, Note_on_c, 2, 66, 92
6, 128192, Note_on_c, 2, 69, 98
6, 128192, Note_on_c, 2, 74, 88
6, 128244, Note_on_c, 2, 74, 0
6, 128244, Note_on_c, 2, 69, 0
6, 128244, Note_on_c, 2, 66, 0
6, 128256, Note_on_c, 2, 64, 97
6, 128256, Note_on_c, 2, 69, 100
6, 128256, Note_on_c, 2, 73, 88
6, 128436, Note_on_c, 2, 73, 0
6, 128436, Note_on_c, 2, 69, 0
6, 128436, Note_on_c, 2, 64, 0
6, 129024, Note_on_c, 2, 66, 87
6, 129024, Note_on_c, 2, 71, 79
6, 129024, Note_on_c, 2, 74, 82
6, 129140, Note_on_c, 2, 74, 0
6, 129140, Note_on_c, 2, 71, 0
6, 129140, Note_on_c, 2, 66, 0
6, 129152, Note_on_c, 2, 66, 83
6, 129152, Note_on_c, 2, 71, 79
6, 129152, Note_on_c, 2, 74, 87
6, 129268, Note_on_c, 2, 74, 0
6, 129268, Note_on_c, 2, 71, 0
6, 129268, Note_on_c, 2, 66, 0
6, 129344, Note_on_c, 2, 66, 77
6, 129344, Note_on_c, 2, 71, 79
6, 129344, Note_on_c, 2, 74, 75
6, 129396, Note_on_c, 2, 74, 0
6, 129396, Note_on_c, 2, 71, 0
6, 129396, Note_on_c, 2, 66, 0
6, 129408, Note_on_c, 2, 66, 73
6, 129408, Note_on_c, 2, 71, 75
6, 129408, Note_on_c, 2, 74, 69
6, 129524, Note_on_c, 2, 74, 0
6, 129524, Note_on_c, 2, 71, 0
6, 129524, Note_on_c, 2, 66, 0
6, 129536, Note_on_c, 2, 66, 98
6, 129536, Note_on_c, 2, 71, 97
6, 129536, Note_on_c, 2, 74, 98
6, 129588, Note_on_c, 2, 74, 0
6, 129588, Note_on_c, 2, 71, 0
6, 129588, Note_on_c, 2, 66, 0
6, 129600, Note_on_c, 2, 66, 83
6, 129600, Note_on_c, 2, 71, 79
6, 129600, Note_on_c, 2, 74, 71
6, 129716, Note_on_c, 2, 74, 0
6, 129716, Note_on_c, 2, 71, 0
6, 129716, Note_on_c, 2, 66, 0
6, 129728, Note_on_c, 2, 66, 99
6, 129728, Note_on_c, 2, 71, 100
6, 129728, Note_on_c, 2, 74, 102
6, 129780, Note_on_c, 2, 74, 0
6, 129780, Note_on_c, 2, 71, 0
6, 129780, Note_on_c, 2, 66, 0
6, 129920, Note_on_c, 2, 66, 84
6, 129920, Note_on_c, 2, 71, 85
6, 129920, Note_on_c, 2, 74, 80
6, 129972, Note_on_c, 2, 74, 0
6, 129972, Note_on_c, 2, 71, 0
6, 129972, Note_on_c, 2, 66, 0
6, 130112, Note_on_c, 2, 66, 88
6, 130112, Note_on_c, 2, 71, 75
6, 130112, Note_on_c, 2, 74, 84
6, 130164, Note_on_c, 2, 74, 0
6, 130164, Note_on_c, 2, 71, 0
6, 130164, Note_on_c, 2, 66, 0
6, 130304, Note_on_c, 2, 66, 77
6, 130304, Note_on_c, 2, 71, 78
6, 130304, Note_on_c, 2, 74, 68
6, 130356, Note_on_c, 2, 74, 0
6, 130356, Note_on_c, 2, 71, 0
6, 130356, Note_on_c, 2, 66, 0
6, 130368, Note_on_c, 2, 66, 88
6, 130368, Note_on_c, 2, 71, 77
6, 130368, Note_on_c, 2, 74, 78
6, 130484, Note_on_c, 2, 74, 0
6, 130484, Note_on_c, 2, 71, 0
6, 130484, Note_on_c, 2, 66, 0
6, 130496, Note_on_c, 2, 66, 98
6, 130496, Note_on_c, 2, 71, 97
6, 130496, Note_on_c, 2, 74, 96
6, 130548, Note_on_c, 2, 74, 0
6, 130548, Note_on_c, 2, 71, 0
6, 130548, Note_on_c, 2, 66, 0
6, 130560, Note_on_c, 2, 66, 82
6, 130560, Note_on_c, 2, 69, 104
6, 130560, Note_on_c, 2, 74, 77
6, 130676, Note_on_c, 2, 74, 0
6, 130676, Note_on_c, 2, 69, 0
6, 130676, Note_on_c, 2, 66, 0
6, 130688, Note_on_c, 2, 66, 86
6, 130688, Note_on_c, 2, 69, 97
6, 130688, Note_on_c, 2, 74, 84
6, 130804, Note_on_c, 2, 74, 0
6, 130804, Note_on_c, 2, 69, 0
6, 130804, Note_on_c, 2, 66, 0
6, 130880, Note_on_c, 2, 66, 88
6, 130880, Note_on_c, 2, 69, 98
6, 130880, Note_on_c, 2, 74, 81
6, 130932, Note_on_c, 2, 74, 0
6, 130932, Note_on_c, 2, 69, 0
6, 130932, Note_on_c, 2, 66, 0
6, 130944, Note_on_c, 2, 66, 71
6, 130944, Note_on_c, 2, 69, 87
6, 130944, Note_on_c, 2, 74, 64
6, 131060, Note_on_c, 2, 74, 0
6, 131060, Note_on_c, 2, 69, 0
6, 131060, Note_on_c, 2, 66, 0
6, 131072, Note_on_c, 2, 66, 90
6, 131072, Note_on_c, 2, 69, 98
6, 131072, Note_on_c, 2, 74, 91
6, 131124, Note_on_c, 2, 74, 0
6, 131124, Note_on_c, 2, 69, 0
6, 131124, Note_on_c, 2, 66, 0
6, 131136, Note_on_c, 2, 66, 83
6, 131136, Note_on_c, 2, 69, 87
6, 131136, Note_on_c, 2, 74, 69
6, 131252, Note_on_c, 2, 74, 0
6, 131252, Note_on_c, 2, 69, 0
6, 131252, Note_on_c, 2, 66, 0
6, 131264, Note_on_c, 2, 66, 92
6, 131264, Note_on_c, 2, 69, 98
6, 131264, Note_on_c, 2, 74, 88
6, 131316, Note_on_c, 2, 74, 0
6, 131316, Note_on_c, 2, 69, 0
6, 131316, Note_on_c, 2, 66, 0
6, 131328, Note_on_c, 2, 64, 97
6, 131328, Note_on_c, 2, 69, 100
6, 131328, Note_on_c, 2, 73, 88
6, 131508, Note_on_c, 2, 73, 0
6, 131508, Note_on_c, 2, 69, 0
6, 131508, Note_on_c, 2, 64, 0
6, 132096, Note_on_c, 2, 66, 87
6, 132096, Note_on_c, 2, 71, 79
6, 132096, Note_on_c, 2, 74, 82
6, 132212, Note_on_c, 2, 74, 0
6, 132212, Note_on_c, 2, 71, 0
6, 132212, Note_on_c, 2, 66, 0
6, 132224, Note_on_c, 2, 66, 83
6, 132224, Note_on_c, 2, 71, 79
6, 132224, Note_on_c, 2, 74, 87
6, 132340, Note_on_c, 2, 74, 0
6, 132340, Note_on_c, 2, 71, 0
6, 132340, Note_on_c, 2, 66, 0
6, 132416, Note_on_c, 2, 66, 77
6, 132416, Note_on_c, 2, 71, 79
6, 132416, Note_on_c, 2, 74, 75
6, 132468, Note_on_c, 2, 74, 0
6, 132468, Note_on_c, 2, 71, 0
6, 132468, Note_on_c, 2, 66, 0
6, 132480, Note_on_c, 2, 66, 73
6, 132480, Note_on_c, 2, 71, 75
6, 132480, Note_on_c, 2, 74, 69
6, 132596, Note_on_c, 2, 74, 0
6, 132596, Note_on_c, 2, 71, 0
6, 132596, Note_on_c, 2, 66, 0
6, 132608, Note_on_c, 2, 66, 98
6, 132608, Note_on_c, 2, 71, 97
6, 132608, Note_on_c, 2, 74, 98
6, 132660, Note_on_c, 2, 74, 0
6, 132660, Note_on_c, 2, 71, 0
6, 132660, Note_on_c, 2, 66, 0
6, 132672, Note_on_c, 2, 66, 83
6, 132672, Note_on_c, 2, 71, 79
6, 132672, Note_on_c, 2, 74, 71
6, 132788, Note_on_c, 2, 74, 0
6, 132788, Note_on_c, 2, 71, 0
6, 132788, Note_on_c, 2, 66, 0
6, 132800, Note_on_c, 2, 66, 99
6, 132800, Note_on_c, 2, 71, 100
6, 132800, Note_on_c, 2, 74, 102
6, 132852, Note_on_c, 2, 74, 0
6, 132852, Note_on_c, 2, 71, 0
6, 132852, Note_on_c, 2, 66, 0
6, 132992, Note_on_c, 2, 66, 84
6, 132992, Note_on_c, 2, 71, 85
6, 132992, Note_on_c, 2, 74, 80
6, 133044, Note_on_c, 2, 74, 0
6, 133044, Note_on_c, 2, 71, 0
6, 133044, Note_on_c, 2, 66, 0
6, 133184, Note_on_c, 2, 66, 88
6, 133184, Note_on_c, 2, 71, 75
6, 133184, Note_on_c, 2, 74, 84
6, 133236, Note_on_c, 2, 74, 0
6, 133236, Note_on_c, 2, 71, 0
6, 133236, Note_on_c, 2, 66, 0
6, 133376, Note_on_c, 2, 66, 77
6, 133376, Note_on_c, 2, 71, 78
6, 133376, Note_on_c, 2, 74, 68
6, 133428, Note_on_c, 2, 74, 0
6, 133428, Note_on_c, 2, 71, 0
6, 133428, Note_on_c, 2, 66, 0
6, 133440, Note_on_c, 2, 66, 88
6, 133440, Note_on_c, 2, 71, 77
6, 133440, Note_on_c, 2, 74, 78
6, 133556, Note_on_c, 2, 74, 0
6, 133556, Note_on_c, 2, 71, 0
6, 133556, Note_on_c, 2, 66, 0
6, 133568, Note_on_c, 2, 66, 98
6, 133568, Note_on_c, 2, 71, 97
6, 133568, Note_on_c, 2, 74, 96
6, 133620, Note_on_c, 2, 74, 0
6, 133620, Note_on_c, 2, 71, 0
6, 133620, Note_on_c, 2, 66, 0
6, 133632, Note_on_c, 2, 66, 82
6, 133632, Note_on_c, 2, 69, 104
6, 133632, Note_on_c, 2, 74, 77
6, 133748, Note_on_c, 2, 74, 0
6, 133748, Note_on_c, 2, 69, 0
6, 133748, Note_on_c, 2, 66, 0
6, 133760, Note_on_c, 2, 66, 86
6, 133760, Note_on_c, 2, 69, 97
6, 133760, Note_on_c, 2, 74, 84
6, 133876, Note_on_c, 2, 74, 0
6, 133876, Note_on_c, 2, 69, 0
6, 133876, Note_on_c, 2, 66, 0
6, 133952, Note_on_c, 2, 66, 88
6, 133952, Note_on_c, 2, 69, 98
6, 133952, Note_on_c, 2, 74, 81
6, 134004, Note_on_c, 2, 74, 0
6, 134004, Note_on_c, 2, 69, 0
6, 134004, Note_on_c, 2, 66, 0
6, 134016, Note_on_c, 2, 66, 71
6, 134016, Note_on_c, 2, 69, 87
6, 134016, Note_on_c, 2, 74, 64
6, 134132, Note_on_c, 2, 74, 0
6, 134132, Note_on_c, 2, 69, 0
6, 134132, Note_on_c, 2, 66, 0
6, 134144, Note_on_c, 2, 66, 90
6, 134144, Note_on_c, 2, 69, 98
6, 134144, Note_on_c, 2, 74, 91
6, 134196, Note_on_c, 2, 74, 0
6, 134196, Note_on_c, 2, 69, 0
6, 134196, Note_on_c, 2, 66, 0
6, 134208, Note_on_c, 2, 66, 83
6, 134208, Note_on_c, 2, 69, 87
6, 134208, Note_on_c, 2, 74, 69
6, 134324, Note_on_c, 2, 74, 0
6, 134324, Note_on_c, 2, 69, 0
6, 134324, Note_on_c, 2, 66, 0
6, 134336, Note_on_c, 2, 66, 92
6, 134336, Note_on_c, 2, 69, 98
6, 134336, Note_on_c, 2, 74, 88
6, 134388, Note_on_c, 2, 74, 0
6, 134388, Note_on_c, 2, 69, 0
6, 134388, Note_on_c, 2, 66, 0
6, 134400, Note_on_c, 2, 64, 97
6, 134400, Note_on_c, 2, 69, 100
6, 134400, Note_on_c, 2, 73, 88
6, 134580, Note_on_c, 2, 73, 0
6, 134580, Note_on_c, 2, 69, 0
6, 134580, Note_on_c, 2, 64, 0
6, 135168, Note_on_c, 2, 66, 87
6, 135168, Note_on_c, 2, 71, 79
6, 135168, Note_on_c, 2, 74, 82
6, 135284, Note_on_c, 2, 74, 0
6, 135284, Note_on_c, 2, 71, 0
6, 135284, Note_on_c, 2, 66, 0
6, 135296, Note_on_c, 2, 66, 83
6, 135296, Note_on_c, 2, 71, 79
6, 135296, Note_on_c, 2, 74, 87
6, 135412, Note_on_c, 2, 74, 0
6, 135412, Note_on_c, 2, 71, 0
6, 135412, Note_on_c, 2, 66, 0
6, 135488, Note_on_c, 2, 66, 77
6, 135488, Note_on_c, 2, 71, 79
6, 135488, Note_on_c, 2, 74, 75
6, 135540, Note_on_c, 2, 74, 0
6, 135540, Note_on_c, 2, 71, 0
6, 135540, Note_on_c, 2, 66, 0
6, 135552, Note_on_c, 2, 66, 73
6, 135552, Note_on_c, 2, 71, 75
6, 135552, Note_on_c, 2, 74, 69
6, 135668, Note_on_c, 2, 74, 0
6, 135668, Note_on_c, 2, 71, 0
6, 135668, Note_on_c, 2, 66, 0
6, 135680, Note_on_c, 2, 66, 98
6, 135680, Note_on_c, 2, 71, 97
6, 135680, Note_on_c, 2, 74, 98
6, 135732, Note_on_c, 2, 74, 0
6, 135732, Note_on_c, 2, 71, 0
6, 135732, Note_on_c, 2, 66, 0
6, 135744, Note_on_c, 2, 66, 83
6, 135744, Note_on_c, 2, 71, 79
6, 135744, Note_on_c, 2, 74, 71
6, 135860, Note_on_c, 2, 74, 0
6, 135860, Note_on_c, 2, 71, 0
6, 135860, Note_on_c, 2, 66, 0
6, 135872, Note_on_c, 2, 66, 99
6, 135872, Note_on_c, 2, 71, 100
6, 135872, Note_on_c, 2, 74, 102
6, 135924, Note_on_c, 2, 74, 0
6, 135924, Note_on_c, 2, 71, 0
6, 135924, Note_on_c, 2, 66, 0
6, 136064, Note_on_c, 2, 66, 84
6, 136064, Note_on_c, 2, 71, 85
6, 136064, Note_on_c, 2, 74, 80
6, 136116, Note_on_c, 2, 74, 0
6, 136116, Note_on_c, 2, 71, 0
6, 136116, Note_on_c, 2, 66, 0
6, 136256, Note_on_c, 2, 66, 88
6, 136256, Note_on_c, 2, 71, 75
6, 136256, Note_on_c, 2, 74, 84
6, 136308, Note_on_c, 2, 74, 0
6, 136308, Note_on_c, 2, 71, 0
6, 136308, Note_on_c, 2, 66, 0
6, 136448, Note_on_c, 2, 66, 77
6, 136448, Note_on_c, 2, 71, 78
6, 136448, Note_on_c, 2, 74, 68
6, 136500, Note_on_c, 2, 74, 0
6, 136500, Note_on_c, 2, 71, 0
6, 136500, Note_on_c, 2, 66, 0
6, 136512, Note_on_c, 2, 66, 88
6, 136512, Note_on_c, 2, 71, 77
6, 136512, Note_on_c, 2, 74, 78
6, 136628, Note_on_c, 2, 74, 0
6, 136628, Note_on_c, 2, 71, 0
6, 136628, Note_on_c, 2, 66, 0
6, 136640, Note_on_c, 2, 66, 98
6, 136640, Note_on_c, 2, 71, 97
6, 136640, Note_on_c, 2, 74, 96
6, 136692, Note_on_c, 2, 74, 0
6, 136692, Note_on_c, 2, 71, 0
6, 136692, Note_on_c, 2, 66, 0
6, 136704, Note_on_c, 2, 66, 82
6, 136704, Note_on_c, 2, 69, 104
6, 136704, Note_on_c, 2, 74, 77
6, 136820, Note_on_c, 2, 74, 0
6, 136820, Note_on_c, 2, 69, 0
6, 136820, Note_on_c, 2, 66, 0
6, 136832, Note_on_c, 2, 66, 86
6, 136832, Note_on_c, 2, 69, 97
6, 136832, Note_on_c, 2, 74, 84
6, 136948, Note_on_c, 2, 74, 0
6, 136948, Note_on_c, 2, 69, 0
6, 136948, Note_on_c, 2, 66, 0
6, 137024, Note_on_c, 2, 66, 88
6, 137024, Note_on_c, 2, 69, 98
6, 137024, Note_on_c, 2, 74, 81
6, 137076, Note_on_c, 2, 74, 0
6, 137076, Note_on_c, 2, 69, 0
6, 137076, Note_on_c, 2, 66, 0
6, 137088, Note_on_c, 2, 66, 71
6, 137088, Note_on_c, 2, 69, 87
6, 137088, Note_on_c, 2, 74, 64
6, 137204, Note_on_c, 2, 74, 0
6, 137204, Note_on_c, 2, 69, 0
6, 137204, Note_on_c, 2, 66, 0
6, 137216, Note_on_c, 2, 66, 90
6, 137216, Note_on_c, 2, 69, 98
6, 137216, Note_on_c, 2, 74, 91
6, 137268, Note_on_c, 2, 74, 0
6, 137268, Note_on_c, 2, 69, 0
6, 137268, Note_on_c, 2, 66, 0
6, 137280, Note_on_c, 2, 66, 83
6, 137280, Note_on_c, 2, 69, 87
6, 137280, Note_on_c, 2, 74, 69
6, 137396, Note_on_c, 2, 74, 0
6, 137396, Note_on_c, 2, 69, 0
6, 137396, Note_on_c, 2, 66, 0
6, 137408, Note_on_c, 2, 66, 92
6, 137408, Note_on_c, 2, 69, 98
6, 137408, Note_on_c, 2, 74, 88
6, 137460, Note_on_c, 2, 74, 0
6, 137460, Note_on_c, 2, 69, 0
6, 137460, Note_on_c, 2, 66, 0
6, 137472, Note_on_c, 2, 64, 97
6, 137472, Note_on_c, 2, 69, 100
6, 137472, Note_on_c, 2, 73, 88
6, 137652, Note_on_c, 2, 73, 0
6, 137652, Note_on_c, 2, 69, 0
6, 137652, Note_on_c, 2, 64, 0
6, 138240, Note_on_c, 2, 66, 87
6, 138240, Note_on_c, 2, 71, 79
6, 138240, Note_on_c, 2, 74, 82
6, 138356, Note_on_c, 2, 74, 0
6, 138356, Note_on_c, 2, 71, 0
6, 138356, Note_on_c, 2, 66, 0
6, 138368, Note_on_c, 2, 66, 83
6, 138368, Note_on_c, 2, 71, 79
6, 138368, Note_on_c, 2, 74, 87
6, 138484, Note_on_c, 2, 74, 0
6, 138484, Note_on_c, 2, 71, 0
6, 138484, Note_on_c, 2, 66, 0
6, 138560, Note_on_c, 2, 66, 77
6, 138560, Note_on_c, 2, 71, 79
6, 138560, Note_on_c, 2, 74, 75
6, 138612, Note_on_c, 2, 74, 0
6, 138612, Note_on_c, 2, 71, 0
6, 138612, Note_on_c, 2, 66, 0
6, 138624, Note_on_c, 2, 66, 73
6, 138624, Note_on_c, 2, 71, 75
6, 138624, Note_on_c, 2, 74, 69
6, 138740, Note_on_c, 2, 74, 0
6, 138740, Note_on_c, 2, 71, 0
6, 138740, Note_on_c, 2, 66, 0
6, 138752, Note_on_c, 2, 66, 98
6, 138752, Note_on_c, 2, 71, 97
6, 138752, Note_on_c, 2, 74, 98
6, 138804, Note_on_c, 2, 74, 0
6, 138804, Note_on_c, 2, 71, 0
6, 138804, Note_on_c, 2, 66, 0
6, 138816, Note_on_c, 2, 66, 83
6, 138816, Note_on_c, 2, 71, 79
6, 138816, Note_on_c, 2, 74, 71
6, 138932, Note_on_c, 2, 74, 0
6, 138932, Note_on_c, 2, 71, 0
6, 138932, Note_on_c, 2, 66, 0
6, 138944, Note_on_c, 2, 66, 99
6, 138944, Note_on_c, 2, 71, 100
6, 138944, Note_on_c, 2, 74, 102
6, 138996, Note_on_c, 2, 74, 0
6, 138996, Note_on_c, 2, 71, 0
6, 138996, Note_on_c, 2, 66, 0
6, 139136, Note_on_c, 2, 66, 84
6, 139136, Note_on_c, 2, 71, 85
6, 139136, Note_on_c, 2, 74, 80
6, 139188, Note_on_c, 2, 74, 0
6, 139188, Note_on_c, 2, 71, 0
6, 139188, Note_on_c, 2, 66, 0
6, 139328, Note_on_c, 2, 66, 88
6, 139328, Note_on_c, 2, 71, 75
6, 139328, Note_on_c, 2, 74, 84
6, 139380, Note_on_c, 2, 74, 0
6, 139380, Note_on_c, 2, 71, 0
6, 139380, Note_on_c, 2, 66, 0
6, 139520, Note_on_c, 2, 66, 77
6, 139520, Note_on_c, 2, 71, 78
6, 139520, Note_on_c, 2, 74, 68
6, 139572, Note_on_c, 2, 74, 0
6, 139572, Note_on_c, 2, 71, 0
6, 139572, Note_on_c, 2, 66, 0
6, 139584, Note_on_c, 2, 66, 88
6, 139584, Note_on_c, 2, 71, 77
6, 139584, Note_on_c, 2, 74, 78
6, 139700, Note_on_c, 2, 74, 0
6, 139700, Note_on_c, 2, 71, 0
6, 139700, Note_on_c, 2, 66, 0
6, 139712, Note_on_c, 2, 66, 98
6, 139712, Note_on_c, 2, 71, 97
6, 139712, Note_on_c, 2, 74, 96
6, 139764, Note_on_c, 2, 74, 0
6, 139764, Note_on_c, 2, 71, 0
6, 139764, Note_on_c, 2, 66, 0
6, 139776, Note_on_c, 2, 66, 82
6, 139776, Note_on_c, 2, 69, 104
6, 139776, Note_on_c, 2, 74, 77
6, 139892, Note_on_c, 2, 74, 0
6, 139892, Note_on_c, 2, 69, 0
6, 139892, Note_on_c, 2, 66, 0
6, 139904, Note_on_c, 2, 66, 86
6, 139904, Note_on_c, 2, 69, 97
6, 139904, Note_on_c, 2, 74, 84
6, 140020, Note_on_c, 2, 74, 0
6, 140020, Note_on_c, 2, 69, 0
6, 140020, Note_on_c, 2, 66, 0
6, 140096, Note_on_c, 2, 66, 88
6, 140096, Note_on_c, 2, 69, 98
6, 140096, Note_on_c, 2, 74, 81
6, 140148, Note_on_c, 2, 74, 0
6, 140148, Note_on_c, 2, 69, 0
6, 140148, Note_on_c, 2, 66, 0
6, 140160, Note_on_c, 2, 66, 71
6, 140160, Note_on_c, 2, 69, 87
6, 140160, Note_on_c, 2, 74, 64
6, 140276, Note_on_c, 2, 74, 0
6, 140276, Note_on_c, 2, 69, 0
6, 140276, Note_on_c, 2, 66, 0
6, 140288, Note_on_c, 2, 66, 90
6, 140288, Note_on_c, 2, 69, 98
6, 140288, Note_on_c, 2, 74, 91
6, 140340, Note_on_c, 2, 74, 0
6, 140340, Note_on_c, 2, 69, 0
6, 140340, Note_on_c, 2, 66, 0
6, 140352, Note_on_c, 2, 66, 83
6, 140352, Note_on_c, 2, 69, 87
6, 140352, Note_on_c, 2, 74, 69
6, 140468, Note_on_c, 2, 74, 0
6, 140468, Note_on_c, 2, 69, 0
6, 140468, Note_on_c, 2, 66, 0
6, 140480, Note_on_c, 2, 66, 92
6, 140480, Note_on_c, 2, 69, 98
6, 140480, Note_on_c, 2, 74, 88
6, 140532, Note_on_c, 2, 74, 0
6, 140532, Note_on_c, 2, 69, 0
6, 140532, Note_on_c, 2, 66, 0
6, 140544, Note_on_c, 2, 64, 97
6, 140544, Note_on_c, 2, 69, 100
6, 140544, Note_on_c, 2, 73, 88
6, 140724, Note_on_c, 2, 73, 0
6, 140724, Note_on_c, 2, 69, 0
6, 140724, Note_on_c, 2, 64, 0
6, 141312, Note_on_c, 2, 66, 87
6, 141312, Note_on_c, 2, 71, 79
6, 141312, Note_on_c, 2, 74, 82
6, 141428, Note_on_c, 2, 74, 0
6, 141428, Note_on_c, 2, 71, 0
6, 141428, Note_on_c, 2, 66, 0
6, 141440, Note_on_c, 2, 66, 83
6, 141440, Note_on_c, 2, 71, 79
6, 141440, Note_on_c, 2, 74, 87
6, 141556, Note_on_c, 2, 74, 0
6, 141556, Note_on_c, 2, 71, 0
6, 141556, Note_on_c, 2, 66, 0
6, 141632, Note_on_c, 2, 66, 77
6, 141632, Note_on_c, 2, 71, 79
6, 141632, Note_on_c, 2, 74, 75
6, 141684, Note_on_c, 2, 74, 0
6, 141684, Note_on_c, 2, 71, 0
6, 141684, Note_on_c, 2, 66, 0
6, 141696, Note_on_c, 2, 66, 73
6, 141696, Note_on_c, 2, 71, 75
6, 141696, Note_on_c, 2, 74, 69
6, 141812, Note_on_c, 2, 74, 0
6, 141812, Note_on_c, 2, 71, 0
6, 141812, Note_on_c, 2, 66, 0
6, 141824, Note_on_c, 2, 66, 98
6, 141824, Note_on_c, 2, 71, 97
6, 141824, Note_on_c, 2, 74, 98
6, 141876, Note_on_c, 2, 74, 0
6, 141876, Note_on_c, 2, 71, 0
6, 141876, Note_on_c, 2, 66, 0
6, 141888, Note_on_c, 2, 66, 83
6, 141888, Note_on_c, 2, 71, 79
6, 141888, Note_on_c, 2, 74, 71
6, 142004, Note_on_c, 2, 74, 0
6, 142004, Note_on_c, 2, 71, 0
6, 142004, Note_on_c, 2, 66, 0
6, 142016, Note_on_c, 2, 66, 99
6, 142016, Note_on_c, 2, 71, 100
6, 142016, Note_on_c, 2, 74, 102
6, 142068, Note_on_c, 2, 74, 0
6, 142068, Note_on_c, 2, 71, 0
6, 142068, Note_on_c, 2, 66, 0
6, 142208, Note_on_c, 2, 66, 84
6, 142208, Note_on_c, 2, 71, 85
6, 142208, Note_on_c, 2, 74, 80
6, 142260, Note_on_c, 2, 74, 0
6, 142260, Note_on_c, 2, 71, 0
6, 142260, Note_on_c, 2, 66, 0
6, 142400, Note_on_c, 2, 66, 88
6, 142400, Note_on_c, 2, 71, 75
6, 142400, Note_on_c, 2, 74, 84
6, 142452, Note_on_c, 2, 74, 0
6, 142452, Note_on_c, 2, 71, 0
6, 142452, Note_on_c, 2, 66, 0
6, 142592, Note_on_c, 2, 66, 77
6, 142592, Note_on_c, 2, 71, 78
6, 142592, Note_on_c, 2, 74, 68
6, 142644, Note_on_c, 2, 74, 0
6, 142644, Note_on_c, 2, 71, 0
6, 142644, Note_on_c, 2, 66, 0
6, 142656, Note_on_c, 2, 66, 88
6, 142656, Note_on_c, 2, 71, 77
6, 142656, Note_on_c, 2, 74, 78
6, 142772, Note_on_c, 2, 74, 0
6, 142772, Note_on_c, 2, 71, 0
6, 142772, Note_on_c, 2, 66, 0
6, 142784, Note_on_c, 2, 66, 98
6, 142784, Note_on_c, 2, 71, 97
6, 142784, Note_on_c, 2, 74, 96
6, 142836, Note_on_c, 2, 74, 0
6, 142836, Note_on_c, 2, 71, 0
6, 142836, Note_on_c, 2, 66, 0
6, 142848, Note_on_c, 2, 66, 82
6, 142848, Note_on_c, 2, 69, 104
6, 142848, Note_on_c, 2, 74, 77
6, 142964, Note_on_c, 2, 74, 0
6, 142964, Note_on_c, 2, 69, 0
6, 142964, Note_on_c, 2, 66, 0
6, 142976, Note_on_c, 2, 66, 86
6, 142976, Note_on_c, 2, 69, 97
6, 142976, Note_on_c, 2, 74, 84
6, 143092, Note_on_c, 2, 74, 0
6, 143092, Note_on_c, 2, 69, 0
6, 143092, Note_on_c, 2, 66, 0
6, 143168, Note_on_c, 2, 66, 88
6, 143168, Note_on_c, 2, 69, 98
6, 143168, Note_on_c, 2, 74, 81
6, 143220, Note_on_c, 2, 74, 0
6, 143220, Note_on_c, 2, 69, 0
6, 143220, Note_on_c, 2, 66, 0
6, 143232, Note_on_c, 2, 66, 71
6, 143232, Note_on_c, 2, 69, 87
6, 143232, Note_on_c, 2, 74, 64
6, 143348, Note_on_c, 2, 74, 0
6, 143348, Note_on_c, 2, 69, 0
6, 143348, Note_on_c, 2, 66, 0
6, 143360, Note_on_c, 2, 66, 90
6, 143360, Note_on_c, 2, 69, 98
6, 143360, Note_on_c, 2, 74, 91
6, 143412, Note_on_c, 2, 74, 0
6, 143412, Note_on_c, 2, 69, 0
6, 143412, Note_on_c, 2, 66, 0
6, 143424, Note_on_c, 2, 66, 83
6, 143424, Note_on_c, 2, 69, 87
6, 143424, Note_on_c, 2, 74, 69
6, 143540, Note_on_c, 2, 74, 0
6, 143540, Note_on_c, 2, 69, 0
6, 143540, Note_on_c, 2, 66, 0
6, 143552, Note_on_c, 2, 66, 92
6, 143552, Note_on_c, 2, 69, 98
6, 143552, Note_on_c, 2, 74, 88
6, 143604, Note_on_c, 2, 74, 0
6, 143604, Note_on_c, 2, 69, 0
6, 143604, Note_on_c, 2, 66, 0
6, 143616, Note_on_c, 2, 64, 97
6, 143616, Note_on_c, 2, 69, 100
6, 143616, Note_on_c, 2, 73, 88
6, 143796, Note_on_c, 2, 73, 0
6, 143796, Note_on_c, 2, 69, 0
6, 143796, Note_on_c, 2, 64, 0
6, 144384, Note_on_c, 2, 66, 87
6, 144384, Note_on_c, 2, 71, 79
6, 144384, Note_on_c, 2, 74, 82
6, 144500, Note_on_c, 2, 74, 0
6, 144500, Note_on_c, 2, 71, 0
6, 144500, Note_on_c, 2, 66, 0
6, 144512, Note_on_c, 2, 66, 83
6, 144512, Note_on_c, 2, 71, 79
6, 144512, Note_on_c, 2, 74, 87
6, 144628, Note_on_c, 2, 74, 0
6, 144628, Note_on_c, 2, 71, 0
6, 144628, Note_on_c, 2, 66, 0
6, 144704, Note_on_c, 2, 66, 77
6, 144704, Note_on_c, 2, 71, 79
6, 144704, Note_on_c, 2, 74, 75
6, 144756, Note_on_c, 2, 74, 0
6, 144756, Note_on_c, 2, 71, 0
6, 144756, Note_on_c, 2, 66, 0
6, 144768, Note_on_c, 2, 66, 73
6, 144768, Note_on_c, 2, 71, 75
6, 144768, Note_on_c, 2, 74, 69
6, 144884, Note_on_c, 2, 74, 0
6, 144884, Note_on_c, 2, 71, 0
6, 144884, Note_on_c, 2, 66, 0
6, 144896, Note_on_c, 2, 66, 98
6, 144896, Note_on_c, 2, 71, 97
6, 144896, Note_on_c, 2, 74, 98
6, 144948, Note_on_c, 2, 74, 0
6, 144948, Note_on_c, 2, 71, 0
6, 144948, Note_on_c, 2, 66, 0
6, 144960, Note_on_c, 2, 66, 83
6, 144960, Note_on_c, 2, 71, 79
6, 144960, Note_on_c, 2, 74, 71
6, 145076, Note_on_c, 2, 74, 0
6, 145076, Note_on_c, 2, 71, 0
6, 145076, Note_on_c, 2, 66, 0
6, 145088, Note_on_c, 2, 66, 99
6, 145088, Note_on_c, 2, 71, 100
6, 145088, Note_on_c, 2, 74, 102
6, 145140, Note_on_c, 2, 74, 0
6, 145140, Note_on_c, 2, 71, 0
6, 145140, Note_on_c, 2, 66, 0
6, 145280, Note_on_c, 2, 66, 84
6, 145280, Note_on_c, 2, 71, 85
6, 145280, Note_on_c, 2, 74, 80
6, 145332, Note_on_c, 2, 74, 0
6, 145332, Note_on_c, 2, 71, 0
6, 145332, Note_on_c, 2, 66, 0
6, 145472, Note_on_c, 2, 66, 88
6, 145472, Note_on_c, 2, 71, 75
6, 145472, Note_on_c, 2, 74, 84
6, 145524, Note_on_c, 2, 74, 0
6, 145524, Note_on_c, 2, 71, 0
6, 145524, Note_on_c, 2, 66, 0
6, 145664, Note_on_c, 2, 66, 77
6, 145664, Note_on_c, 2, 71, 78
6, 145664, Note_on_c, 2, 74, 68
6, 145716, Note_on_c, 2, 74, 0
6, 145716, Note_on_c, 2, 71, 0
6, 145716, Note_on_c, 2, 66, 0
6, 145728, Note_on_c, 2, 66, 88
6, 145728, Note_on_c, 2, 71, 77
6, 145728, Note_on_c, 2, 74, 78
6, 145844, Note_on_c, 2, 74, 0
6, 145844, Note_on_c, 2, 71, 0
6, 145844, Note_on_c, 2, 66, 0
6, 145856, Note_on_c, 2, 66, 98
6, 145856, Note_on_c, 2, 71, 97
6, 145856, Note_on_c, 2, 74, 96
6, 145908, Note_on_c, 2, 74, 0
6, 145908, Note_on_c, 2, 71, 0
6, 145908, Note_on_c, 2, 66, 0
6, 145920, Note_on_c, 2, 66, 82
6, 145920, Note_on_c, 2, 69, 104
6, 145920, Note_on_c, 2, 74, 77
6, 146036, Note_on_c, 2, 74, 0
6, 146036, Note_on_c, 2, 69, 0
6, 146036, Note_on_c, 2, 66, 0
6, 146048, Note_on_c, 2, 66, 86
6, 146048, Note_on_c, 2, 69, 97
6, 146048, Note_on_c, 2, 74, 84
6, 146164, Note_on_c, 2, 74, 0
6, 146164, Note_on_c, 2, 69, 0
6, 146164, Note_on_c, 2, 66, 0
6, 146240, Note_on_c, 2, 66, 88
6, 146240, Note_on_c, 2, 69, 98
6, 146240, Note_on_c, 2, 74, 81
6, 146292, Note_on_c, 2, 74, 0
6, 146292, Note_on_c, 2, 69, 0
6, 146292, Note_on_c, 2, 66, 0
6, 146304, Note_on_c, 2, 66, 71
6, 146304, Note_on_c, 2, 69, 87
6, 146304, Note_on_c, 2, 74, 64
6, 146420, Note_on_c, 2, 74, 0
6, 146420, Note_on_c, 2, 69, 0
6, 146420, Note_on_c, 2, 66, 0
6, 146432, Note_on_c, 2, 66, 90
6, 146432, Note_on_c, 2, 69, 98
6, 146432, Note_on_c, 2, 74, 91
6, 146484, Note_on_c, 2, 74, 0
6, 146484, Note_on_c, 2, 69, 0
6, 146484, Note_on_c, 2, 66, 0
6, 146496, Note_on_c, 2, 66, 83
6, 146496, Note_on_c, 2, 69, 87
6, 146496, Note_on_c, 2, 74, 69
6, 146612, Note_on_c, 2, 74, 0
6, 146612, Note_on_c, 2, 69, 0
6, 146612, Note_on_c, 2, 66, 0
6, 146624, Note_on_c, 2, 66, 92
6, 146624, Note_on_c, 2, 69, 98
6, 146624, Note_on_c, 2, 74, 88
6, 146676, Note_on_c, 2, 74, 0
6, 146676, Note_on_c, 2, 69, 0
6, 146676, Note_on_c, 2, 66, 0
6, 146688, Note_on_c, 2, 64, 97
6, 146688, Note_on_c, 2, 69, 100
6, 146688, Note_on_c, 2, 73, 88
6, 146868, Note_on_c, 2, 73, 0
6, 146868, Note_on_c, 2, 69, 0
6, 146868, Note_on_c, 2, 64, 0
6, 147456, Note_on_c, 2, 66, 87
6, 147456, Note_on_c, 2, 71, 79
6, 147456, Note_on_c, 2, 74, 82
6, 147572, Note_on_c, 2, 74, 0
6, 147572, Note_on_c, 2, 71, 0
6, 147572, Note_on_c, 2, 66, 0
6, 147584, Note_on_c, 2, 66, 83
6, 147584, Note_on_c, 2, 71, 79
6, 147584, Note_on_c, 2, 74, 87
6, 147700, Note_on_c, 2, 74, 0
6, 147700, Note_on_c, 2, 71, 0
6, 147700, Note_on_c, 2, 66, 0
6, 147776, Note_on_c, 2, 66, 77
6, 147776, Note_on_c, 2, 71, 79
6, 147776, Note_on_c, 2, 74, 75
6, 147828, Note_on_c, 2, 74, 0
6, 147828, Note_on_c, 2, 71, 0
6, 147828, Note_on_c, 2, 66, 0
6, 147840, Note_on_c, 2, 66, 73
6, 147840, Note_on_c, 2, 71, 75
6, 147840, Note_on_c, 2, 74, 69
6, 147956, Note_on_c, 2, 74, 0
6, 147956, Note_on_c, 2, 71, 0
6, 147956, Note_on_c, 2, 66, 0
6, 147968, Note_on_c, 2, 66, 98
6, 147968, Note_on_c, 2, 71, 97
6, 147968, Note_on_c, 2, 74, 98
6, 148020, Note_on_c, 2, 74, 0
6, 148020, Note_on_c, 2, 71, 0
6, 148020, Note_on_c, 2, 66, 0
6, 148032, Note_on_c, 2, 66, 83
6, 148032, Note_on_c, 2, 71, 79
6, 148032, Note_on_c, 2, 74, 71
6, 148148, Note_on_c, 2, 74, 0
6, 148148, Note_on_c, 2, 71, 0
6, 148148, Note_on_c, 2, 66, 0
6, 148160, Note_on_c, 2, 66, 99
6, 148160, Note_on_c, 2, 71, 100
6, 148160, Note_on_c, 2, 74, 102
6, 148212, Note_on_c, 2, 74, 0
6, 148212, Note_on_c, 2, 71, 0
6, 148212, Note_on_c, 2, 66, 0
6, 148352, Note_on_c, 2, 66, 84
6, 148352, Note_on_c, 2, 71, 85
6, 148352, Note_on_c, 2, 74, 80
6, 148404, Note_on_c, 2, 74, 0
6, 148404, Note_on_c, 2, 71, 0
6, 148404, Note_on_c, 2, 66, 0
6, 148544, Note_on_c, 2, 66, 88
6, 148544, Note_on_c, 2, 71, 75
6, 148544, Note_on_c, 2, 74, 84
6, 148596, Note_on_c, 2, 74, 0
6, 148596, Note_on_c, 2, 71, 0
6, 148596, Note_on_c, 2, 66, 0
6, 148736, Note_on_c, 2, 66, 77
6, 148736, Note_on_c, 2, 71, 78
6, 148736, Note_on_c, 2, 74, 68
6, 148788, Note_on_c, 2, 74, 0
6, 148788, Note_on_c, 2, 71, 0
6, 148788, Note_on_c, 2, 66, 0
6, 148800, Note_on_c, 2, 66, 88
6, 148800, Note_on_c, 2, 71, 77
6, 148800, Note_on_c, 2, 74, 78
6, 148916, Note_on_c, 2, 74, 0
6, 148916, Note_on_c, 2, 71, 0
6, 148916, Note_on_c, 2, 66, 0
6, 148928, Note_on_c, 2, 66, 98
6, 148928, Note_on_c, 2, 71, 97
6, 148928, Note_on_c, 2, 74, 96
6, 148980, Note_on_c, 2, 74, 0
6, 148980, Note_on_c, 2, 71, 0
6, 148980, Note_on_c, 2, 66, 0
6, 148992, Note_on_c, 2, 66, 82
6, 148992, Note_on_c, 2, 69, 104
6, 148992, Note_on_c, 2, 74, 77
6, 149108, Note_on_c, 2, 74, 0
6, 149108, Note_on_c, 2, 69, 0
6, 149108, Note_on_c, 2, 66, 0
6, 149120, Note_on_c, 2, 66, 86
6, 149120, Note_on_c, 2, 69, 97
6, 149120, Note_on_c, 2, 74, 84
6, 149236, Note_on_c, 2, 74, 0
6, 149236, Note_on_c, 2, 69, 0
6, 149236, Note_on_c, 2, 66, 0
6, 149312, Note_on_c, 2, 66, 88
6, 149312, Note_on_c, 2, 69, 98
6, 149312, Note_on_c, 2, 74, 81
6, 149364, Note_on_c, 2, 74, 0
6, 149364, Note_on_c, 2, 69, 0
6, 149364, Note_on_c, 2, 66, 0
6, 149376, Note_on_c, 2, 66, 71
6, 149376, Note_on_c, 2, 69, 87
6, 149376, Note_on_c, 2, 74, 64
6, 149492, Note_on_c, 2, 74, 0
6, 149492, Note_on_c, 2, 69, 0
6, 149492, Note_on_c, 2, 66, 0
6, 149504, Note_on_c, 2, 66, 90
6, 149504, Note_on_c, 2, 69, 98
6, 149504, Note_on_c, 2, 74, 91
6, 149556, Note_on_c, 2, 74, 0
6, 149556, Note_on_c, 2, 69, 0
6, 149556, Note_on_c, 2, 66, 0
6, 149568, Note_on_c, 2, 66, 83
6, 149568, Note_on_c, 2, 69, 87
6, 149568, Note_on_c, 2, 74, 69
6, 149684, Note_on_c, 2, 74, 0
6, 149684, Note_on_c, 2, 69, 0
6, 149684, Note_on_c, 2, 66, 0
6, 149696, Note_on_c, 2, 66, 92
6, 149696, Note_on_c, 2, 69, 98
6, 149696, Note_on_c, 2, 74, 88
6, 149748, Note_on_c, 2, 74, 0
6, 149748, Note_on_c, 2, 69, 0
6, 149748, Note_on_c, 2, 66, 0
6, 149760, Note_on_c, 2, 64, 97
6, 149760, Note_on_c, 2, 69, 100
6, 149760, Note_on_c, 2, 73, 88
6, 149940, Note_on_c, 2, 73, 0
6, 149940, Note_on_c, 2, 69, 0
6, 149940, Note_on_c, 2, 64, 0
6, 150528, Note_on_c, 2, 66, 87
6, 150528, Note_on_c, 2, 71, 79
6, 150528, Note_on_c, 2, 74, 82
6, 150644, Note_on_c, 2, 74, 0
6, 150644, Note_on_c, 2, 71, 0
6, 150644, Note_on_c, 2, 66, 0
6, 150656, Note_on_c, 2, 66, 83
6, 150656, Note_on_c, 2, 71, 79
6, 150656, Note_on_c, 2, 74, 87
6, 150772, Note_on_c, 2, 74, 0
6, 150772, Note_on_c, 2, 71, 0
6, 150772, Note_on_c, 2, 66, 0
6, 150848, Note_on_c, 2, 66, 77
6, 150848, Note_on_c, 2, 71, 79
6, 150848, Note_on_c, 2, 74, 75
6, 150900, Note_on_c, 2, 74, 0
6, 150900, Note_on_c, 2, 71, 0
6, 150900, Note_on_c, 2, 66, 0
6, 150912, Note_on_c, 2, 66, 73
6, 150912, Note_on_c, 2, 71, 75
6, 150912, Note_on_c, 2, 74, 69
6, 151028, Note_on_c, 2, 74, 0
6, 151028, Note_on_c, 2, 71, 0
6, 151028, Note_on_c, 2, 66, 0
6, 151040, Note_on_c, 2, 66, 98
6, 151040, Note_on_c, 2, 71, 97
6, 151040, Note_on_c, 2, 74, 98
6, 151092, Note_on_c, 2, 74, 0
6, 151092, Note_on_c, 2, 71, 0
6, 151092, Note_on_c, 2, 66, 0
6, 151104, Note_on_c, 2, 66, 83
6, 151104, Note_on_c, 2, 71, 79
6, 151104, Note_on_c, 2, 74, 71
6, 151220, Note_on_c, 2, 74, 0
6, 151220, Note_on_c, 2, 71, 0
6, 151220, Note_on_c, 2, 66, 0
6, 151232, Note_on_c, 2, 66, 99
6, 151232, Note_on_c, 2, 71, 100
6, 151232, Note_on_c, 2, 74, 102
6, 151284, Note_on_c, 2, 74, 0
6, 151284, Note_on_c, 2, 71, 0
6, 151284, Note_on_c, 2, 66, 0
6, 151424, Note_on_c, 2, 66, 84
6, 151424, Note_on_c, 2, 71, 85
6, 151424, Note_on_c, 2, 74, 80
6, 151476, Note_on_c, 2, 74, 0
6, 151476, Note_on_c, 2, 71, 0
6, 151476, Note_on_c, 2, 66, 0
6, 151616, Note_on_c, 2, 66, 88
6, 151616, Note_on_c, 2, 71, 75
6, 151616, Note_on_c, 2, 74, 84
6, 151668, Note_on_c, 2, 74, 0
6, 151668, Note_on_c, 2, 71, 0
6, 151668, Note_on_c, 2, 66, 0
6, 151808, Note_on_c, 2, 66, 77
6, 151808, Note_on_c, 2, 71, 78
6, 151808, Note_on_c, 2, 74, 68
6, 151860, Note_on_c, 2, 74, 0
6, 151860, Note_on_c, 2, 71, 0
6, 151860, Note_on_c, 2, 66, 0
6, 151872, Note_on_c, 2, 66, 88
6, 151872, Note_on_c, 2, 71, 77
6, 151872, Note_on_c, 2, 74, 78
6, 151988, Note_on_c, 2, 74, 0
6, 151988, Note_on_c, 2, 71, 0
6, 151988, Note_on_c, 2, 66, 0
6, 152000, Note_on_c, 2, 66, 98
6, 152000, Note_on_c, 2, 71, 97
6, 152000, Note_on_c, 2, 74, 96
6, 152052, Note_on_c, 2, 74, 0
6, 152052, Note_on_c, 2, 71, 0
6, 152052, Note_on_c, 2, 66, 0
6, 152064, Note_on_c, 2, 66, 82
6, 152064, Note_on_c, 2, 69, 104
6, 152064, Note_on_c, 2, 74, 77
6, 152180, Note_on_c, 2, 74, 0
6, 152180, Note_on_c, 2, 69, 0
6, 152180, Note_on_c, 2, 66, 0
6, 152192, Note_on_c, 2, 66, 86
6, 152192, Note_on_c, 2, 69, 97
6, 152192, Note_on_c, 2, 74, 84
6, 152308, Note_on_c, 2, 74, 0
6, 152308, Note_on_c, 2, 69, 0
6, 152308, Note_on_c, 2, 66, 0
6, 152384, Note_on_c, 2, 66, 88
6, 152384, Note_on_c, 2, 69, 98
6, 152384, Note_on_c, 2, 74, 81
6, 152436, Note_on_c, 2, 74, 0
6, 152436, Note_on_c, 2, 69, 0
6, 152436, Note_on_c, 2, 66, 0
6, 152448, Note_on_c, 2, 66, 71
6, 152448, Note_on_c, 2, 69, 87
6, 152448, Note_on_c, 2, 74, 64
6, 152564, Note_on_c, 2, 74, 0
6, 152564, Note_on_c, 2, 69, 0
6, 152564, Note_on_c, 2, 66, 0
6, 152576, Note_on_c, 2, 66, 90
6, 152576, Note_on_c, 2, 69, 98
6, 152576, Note_on_c, 2, 74, 91
6, 152628, Note_on_c, 2, 74, 0
6, 152628, Note_on_c, 2, 69, 0
6, 152628, Note_on_c, 2, 66, 0
6, 152640, Note_on_c, 2, 66, 83
6, 152640, Note_on_c, 2, 69, 87
6, 152640, Note_on_c, 2, 74, 69
6, 152756, Note_on_c, 2, 74, 0
6, 152756, Note_on_c, 2, 69, 0
6, 152756, Note_on_c, 2, 66, 0
6, 152768, Note_on_c, 2, 66, 92
6, 152768, Note_on_c, 2, 69, 98
6, 152768, Note_on_c, 2, 74, 88
6, 152820, Note_on_c, 2, 74, 0
6, 152820, Note_on_c, 2, 69, 0
6, 152820, Note_on_c, 2, 66, 0
6, 152832, Note_on_c, 2, 64, 97
6, 152832, Note_on_c, 2, 69, 100
6, 152832, Note_on_c, 2, 73, 88
6, 153012, Note_on_c, 2, 73, 0
6, 153012, Note_on_c, 2, 69, 0
6, 153012, Note_on_c, 2, 64, 0
6, 153600, Note_on_c, 2, 66, 87
6, 153600, Note_on_c, 2, 71, 79
6, 153600, Note_on_c, 2, 74, 82
6, 153716, Note_on_c, 2, 74, 0
6, 153716, Note_on_c, 2, 71, 0
6, 153716, Note_on_c, 2, 66, 0
6, 153728, Note_on_c, 2, 66, 83
6, 153728, Note_on_c, 2, 71, 79
6, 153728, Note_on_c, 2, 74, 87
6, 153844, Note_on_c, 2, 74, 0
6, 153844, Note_on_c, 2, 71, 0
6, 153844, Note_on_c, 2, 66, 0
6, 153920, Note_on_c, 2, 66, 77
6, 153920, Note_on_c, 2, 71, 79
6, 153920, Note_on_c, 2, 74, 75
6, 153972, Note_on_c, 2, 74, 0
6, 153972, Note_on_c, 2, 71, 0
6, 153972, Note_on_c, 2, 66, 0
6, 153984, Note_on_c, 2, 66, 73
6, 153984, Note_on_c, 2, 71, 75
6, 153984, Note_on_c, 2, 74, 69
6, 154100, Note_on_c, 2, 74, 0
6, 154100, Note_on_c, 2, 71, 0
6, 154100, Note_on_c, 2, 66, 0
6, 154112, Note_on_c, 2, 66, 98
6, 154112, Note_on_c, 2, 71, 97
6, 154112, Note_on_c, 2, 74, 98
6, 154164, Note_on_c, 2, 74, 0
6, 154164, Note_on_c, 2, 71, 0
6, 154164, Note_on_c, 2, 66, 0
6, 154176, Note_on_c, 2, 66, 83
6, 154176, Note_on_c, 2, 71, 79
6, 154176, Note_on_c, 2, 74, 71
6, 154292, Note_on_c, 2, 74, 0
6, 154292, Note_on_c, 2, 71, 0
6, 154292, Note_on_c, 2, 66, 0
6, 154304, Note_on_c, 2, 66, 99
6, 154304, Note_on_c, 2, 71, 100
6, 154304, Note_on_c, 2, 74, 102
6, 154356, Note_on_c, 2, 74, 0
6, 154356, Note_on_c, 2, 71, 0
6, 154356, Note_on_c, 2, 66, 0
6, 154496, Note_on_c, 2, 66, 84
6, 154496, Note_on_c, 2, 71, 85
6, 154496, Note_on_c, 2, 74, 80
6, 154548, Note_on_c, 2, 74, 0
6, 154548, Note_on_c, 2, 71, 0
6, 154548, Note_on_c, 2, 66, 0
6, 154688, Note_on_c, 2, 66, 88
6, 154688, Note_on_c, 2, 71, 75
6, 154688, Note_on_c, 2, 74, 84
6, 154740, Note_on_c, 2, 74, 0
6, 154740, Note_on_c, 2, 71, 0
6, 154740, Note_on_c, 2, 66, 0
6, 154880, Note_on_c, 2, 66, 77
6, 154880, Note_on_c, 2, 71, 78
6, 154880, Note_on_c, 2, 74, 68
6, 154932, Note_on_c, 2, 74, 0
6, 154932, Note_on_c, 2, 71, 0
6, 154932, Note_on_c, 2, 66, 0
6, 154944, Note_on_c, 2, 66, 88
6, 154944, Note_on_c, 2, 71, 77
6, 154944, Note_on_c, 2, 74, 78
6, 155060, Note_on_c, 2, 74, 0
6, 155060, Note_on_c, 2, 71, 0
6, 155060, Note_on_c, 2, 66, 0
6, 155072, Note_on_c, 2, 66, 98
6, 155072, Note_on_c, 2, 71, 97
6, 155072, Note_on_c, 2, 74, 96
6, 155124, Note_on_c, 2, 74, 0
6, 155124, Note_on_c, 2, 71, 0
6, 155124, Note_on_c, 2, 66, 0
6, 155136, Note_on_c, 2, 66, 82
6, 155136, Note_on_c, 2, 69, 104
6, 155136, Note_on_c, 2, 74, 77
6, 155252, Note_on_c, 2, 74, 0
6, 155252, Note_on_c, 2, 69, 0
6, 155252, Note_on_c, 2, 66, 0
6, 155264, Note_on_c, 2, 66, 86
6, 155264, Note_on_c, 2, 69, 97
6, 155264, Note_on_c, 2, 74, 84
6, 155380, Note_on_c, 2, 74, 0
6, 155380, Note_on_c, 2, 69, 0
6, 155380, Note_on_c, 2, 66, 0
6, 155456, Note_on_c, 2, 66, 88
6, 155456, Note_on_c, 2, 69, 98
6, 155456, Note_on_c, 2, 74, 81
6, 155508, Note_on_c, 2, 74, 0
6, 155508, Note_on_c, 2, 69, 0
6, 155508, Note_on_c, 2, 66, 0
6, 155520, Note_on_c, 2, 66, 71
6, 155520, Note_on_c, 2, 69, 87
6, 155520, Note_on_c, 2, 74, 64
6, 155636, Note_on_c, 2, 74, 0
6, 155636, Note_on_c, 2, 69, 0
6, 155636, Note_on_c, 2, 66, 0
6, 155648, Note_on_c, 2, 66, 90
6, 155648, Note_on_c, 2, 69, 98
6, 155648, Note_on_c, 2, 74, 91
6, 155700, Note_on_c, 2, 74, 0
6, 155700, Note_on_c, 2, 69, 0
6, 155700, Note_on_c, 2, 66, 0
6, 155712, Note_on_c, 2, 66, 83
6, 155712, Note_on_c, 2, 69, 87
6, 155712, Note_on_c, 2, 74, 69
6, 155828, Note_on_c, 2, 74, 0
6, 155828, Note_on_c, 2, 69, 0
6, 155828, Note_on_c, 2, 66, 0
6, 155840, Note_on_c, 2, 66, 92
6, 155840, Note_on_c, 2, 69, 98
6, 155840, Note_on_c, 2, 74, 88
6, 155892, Note_on_c, 2, 74, 0
6, 155892, Note_on_c, 2, 69, 0
6, 155892, Note_on_c, 2, 66, 0
6, 155904, Note_on_c, 2, 64, 97
6, 155904, Note_on_c, 2, 69, 100
6, 155904, Note_on_c, 2, 73, 88
6, 156084, Note_on_c, 2, 73, 0
6, 156084, Note_on_c, 2, 69, 0
6, 156084, Note_on_c, 2, 64, 0
6, 156672, Note_on_c, 2, 66, 87
6, 156672, Note_on_c, 2, 71, 79
6, 156672, Note_on_c, 2, 74, 82
6, 156788, Note_on_c, 2, 74, 0
6, 156788, Note_on_c, 2, 71, 0
6, 156788, Note_on_c, 2, 66, 0
6, 156800, Note_on_c, 2, 66, 83
6, 156800, Note_on_c, 2, 71, 79
6, 156800, Note_on_c, 2, 74, 87
6, 156916, Note_on_c, 2, 74, 0
6, 156916, Note_on_c, 2, 71, 0
6, 156916, Note_on_c, 2, 66, 0
6, 156992, Note_on_c, 2, 66, 77
6, 156992, Note_on_c, 2, 71, 79
6, 156992, Note_on_c, 2, 74, 75
6, 157044, Note_on_c, 2, 74, 0
6, 157044, Note_on_c, 2, 71, 0
6, 157044, Note_on_c, 2, 66, 0
6, 157056, Note_on_c, 2, 66, 73
6, 157056, Note_on_c, 2, 71, 75
6, 157056, Note_on_c, 2, 74, 69
6, 157172, Note_on_c, 2, 74, 0
6, 157172, Note_on_c, 2, 71, 0
6, 157172, Note_on_c, 2, 66, 0
6, 157184, Note_on_c, 2, 66, 98
6, 157184, Note_on_c, 2, 71, 97
6, 157184, Note_on_c, 2, 74, 98
6, 157236, Note_on_c, 2, 74, 0
6, 157236, Note_on_c, 2, 71, 0
6, 157236, Note_on_c, 2, 66, 0
6, 157248, Note_on_c, 2, 66, 83
6, 157248, Note_on_c, 2, 71, 79
6, 157248, Note_on_c, 2, 74, 71
6, 157364, Note_on_c, 2, 74, 0
6, 157364, Note_on_c, 2, 71, 0
6, 157364, Note_on_c, 2, 66, 0
6, 157376, Note_on_c, 2, 66, 99
6, 157376, Note_on_c, 2, 71, 100
6, 157376, Note_on_c, 2, 74, 102
6, 157428, Note_on_c, 2, 74, 0
6, 157428, Note_on_c, 2, 71, 0
6, 157428, Note_on_c, 2, 66, 0
6, 157568, Note_on_c, 2, 66, 84
6, 157568, Note_on_c, 2, 71, 85
6, 157568, Note_on_c, 2, 74, 80
6, 157620, Note_on_c, 2, 74, 0
6, 157620, Note_on_c, 2, 71, 0
6, 157620, Note_on_c, 2, 66, 0
6, 157760, Note_on_c, 2, 66, 88
6, 157760, Note_on_c, 2, 71, 75
6, 157760, Note_on_c, 2, 74, 84
6, 157812, Note_on_c, 2, 74, 0
6, 157812, Note_on_c, 2, 71, 0
6, 157812, Note_on_c, 2, 66, 0
6, 157952, Note_on_c, 2, 66, 77
6, 157952, Note_on_c, 2, 71, 78
6, 157952, Note_on_c, 2, 74, 68
6, 158004, Note_on_c, 2, 74, 0
6, 158004, Note_on_c, 2, 71, 0
6, 158004, Note_on_c, 2, 66, 0
6, 158016, Note_on_c, 2, 66, 88
6, 158016, Note_on_c, 2, 71, 77
6, 158016, Note_on_c, 2, 74, 78
6, 158132, Note_on_c, 2, 74, 0
6, 158132, Note_on_c, 2, 71, 0
6, 158132, Note_on_c, 2, 66, 0
6, 158144, Note_on_c, 2, 66, 98
6, 158144, Note_on_c, 2, 71, 97
6, 158144, Note_on_c, 2, 74, 96
6, 158196, Note_on_c, 2, 74, 0
6, 158196, Note_on_c, 2, 71, 0
6, 158196, Note_on_c, 2, 66, 0
6, 158208, Note_on_c, 2, 66, 82
6, 158208, Note_on_c, 2, 69, 104
6, 158208, Note_on_c, 2, 74, 77
6, 158324, Note_on_c, 2, 74, 0
6, 158324, Note_on_c, 2, 69, 0
6, 158324, Note_on_c, 2, 66, 0
6, 158336, Note_on_c, 2, 66, 86
6, 158336, Note_on_c, 2, 69, 97
6, 158336, Note_on_c, 2, 74, 84
6, 158452, Note_on_c, 2, 74, 0
6, 158452, Note_on_c, 2, 69, 0
6, 158452, Note_on_c, 2, 66, 0
6, 158528, Note_on_c, 2, 66, 88
6, 158528, Note_on_c, 2, 69, 98
6, 158528, Note_on_c, 2, 74, 81
6, 158580, Note_on_c, 2, 74, 0
6, 158580, Note_on_c, 2, 69, 0
6, 158580, Note_on_c, 2, 66, 0
6, 158592, Note_on_c, 2, 66, 71
6, 158592, Note_on_c, 2, 69, 87
6, 158592, Note_on_c, 2, 74, 64
6, 158708, Note_on_c, 2, 74, 0
6, 158708, Note_on_c, 2, 69, 0
6, 158708, Note_on_c, 2, 66, 0
6, 158720, Note_on_c, 2, 66, 90
6, 158720, Note_on_c, 2, 69, 98
6, 158720, Note_on_c, 2, 74, 91
6, 158772, Note_on_c, 2, 74, 0
6, 158772, Note_on_c, 2, 69, 0
6, 158772, Note_on_c, 2, 66, 0
6, 158784, Note_on_c, 2, 66, 83
6, 158784, Note_on_c, 2, 69, 87
6, 158784, Note_on_c, 2, 74, 69
6, 158900, Note_on_c, 2, 74, 0
6, 158900, Note_on_c, 2, 69, 0
6, 158900, Note_on_c, 2, 66, 0
6, 158912, Note_on_c, 2, 66, 92
6, 158912, Note_on_c, 2, 69, 98
6, 158912, Note_on_c, 2, 74, 88
6, 158964, Note_on_c, 2, 74, 0
6, 158964, Note_on_c, 2, 69, 0
6, 158964, Note_on_c, 2, 66, 0
6, 158976, Note_on_c, 2, 64, 97
6, 158976, Note_on_c, 2, 69, 100
6, 158976, Note_on_c, 2, 73, 88
6, 159156, Note_on_c, 2, 73, 0
6, 159156, Note_on_c, 2, 69, 0
6, 159156, Note_on_c, 2, 64, 0
6, 159744, Note_on_c, 2, 66, 87
6, 159744, Note_on_c, 2, 71, 79
6, 159744, Note_on_c, 2, 74, 82
6, 159860, Note_on_c, 2, 74, 0
6, 159860, Note_on_c, 2, 71, 0
6, 159860, Note_on_c, 2, 66, 0
6, 159872, Note_on_c, 2, 66, 83
6, 159872, Note_on_c, 2, 71, 79
6, 159872, Note_on_c, 2, 74, 87
6, 159988, Note_on_c, 2, 74, 0
6, 159988, Note_on_c, 2, 71, 0
6, 159988, Note_on_c, 2, 66, 0
6, 160064, Note_on_c, 2, 66, 77
6, 160064, Note_on_c, 2, 71, 79
6, 160064, Note_on_c, 2, 74, 75
6, 160116, Note_on_c, 2, 74, 0
6, 160116, Note_on_c, 2, 71, 0
6, 160116, Note_on_c, 2, 66, 0
6, 160128, Note_on_c, 2, 66, 73
6, 160128, Note_on_c, 2, 71, 75
6, 160128, Note_on_c, 2, 74, 69
6, 160244, Note_on_c, 2, 74, 0
6, 160244, Note_on_c, 2, 71, 0
6, 160244, Note_on_c, 2, 66, 0
6, 160256, Note_on_c, 2, 66, 98
6, 160256, Note_on_c, 2, 71, 97
6, 160256, Note_on_c, 2, 74, 98
6, 160308, Note_on_c, 2, 74, 0
6, 160308, Note_on_c, 2, 71, 0
6, 160308, Note_on_c, 2, 66, 0
6, 160320, Note_on_c, 2, 66, 83
6, 160320, Note_on_c, 2, 71, 79
6, 160320, Note_on_c, 2, 74, 71
6, 160436, Note_on_c, 2, 74, 0
6, 160436, Note_on_c, 2, 71, 0
6, 160436, Note_on_c, 2, 66, 0
6, 160448, Note_on_c, 2, 66, 99
6, 160448, Note_on_c, 2, 71, 100
6, 160448, Note_on_c, 2, 74, 102
6, 160500, Note_on_c, 2, 74, 0
6, 160500, Note_on_c, 2, 71, 0
6, 160500, Note_on_c, 2, 66, 0
6, 160640, Note_on_c, 2, 66, 84
6, 160640, Note_on_c, 2, 71, 85
6, 160640, Note_on_c, 2, 74, 80
6, 160692, Note_on_c, 2, 74, 0
6, 160692, Note_on_c, 2, 71, 0
6, 160692, Note_on_c, 2, 66, 0
6, 160832, Note_on_c, 2, 66, 88
6, 160832, Note_on_c, 2, 71, 75
6, 160832, Note_on_c, 2, 74, 84
6, 160884, Note_on_c, 2, 74, 0
6, 160884, Note_on_c, 2, 71, 0
6, 160884, Note_on_c, 2, 66, 0
6, 161024, Note_on_c, 2, 66, 77
6, 161024, Note_on_c, 2, 71, 78
6, 161024, Note_on_c, 2, 74, 68
6, 161076, Note_on_c, 2, 74, 0
6, 161076, Note_on_c, 2, 71, 0
6, 161076, Note_on_c, 2, 66, 0
6, 161088, Note_on_c, 2, 66, 88
6, 161088, Note_on_c, 2, 71, 77
6, 161088, Note_on_c, 2, 74, 78
6, 161204, Note_on_c, 2, 74, 0
6, 161204, Note_on_c, 2, 71, 0
6, 161204, Note_on_c, 2, 66, 0
6, 161216, Note_on_c, 2, 66, 98
6, 161216, Note_on_c, 2, 71, 97
6, 161216, Note_on_c, 2, 74, 96
6, 161268, Note_on_c, 2, 74, 0
6, 161268, Note_on_c, 2, 71, 0
6, 161268, Note_on_c, 2, 66, 0
6, 161280, Note_on_c, 2, 66, 82
6, 161280, Note_on_c, 2, 69, 104
6, 161280, Note_on_c, 2, 74, 77
6, 161396, Note_on_c, 2, 74, 0
6, 161396, Note_on_c, 2, 69, 0
6, 161396, Note_on_c, 2, 66, 0
6, 161408, Note_on_c, 2, 66, 86
6, 161408, Note_on_c, 2, 69, 97
6, 161408, Note_on_c, 2, 74, 84
6, 161524, Note_on_c, 2, 74, 0
6, 161524, Note_on_c, 2, 69, 0
6, 161524, Note_on_c, 2, 66, 0
6, 161600, Note_on_c, 2, 66, 88
6, 161600, Note_on_c, 2, 69, 98
6, 161600, Note_on_c, 2, 74, 81
6, 161652, Note_on_c, 2, 74, 0
6, 161652, Note_on_c, 2, 69, 0
6, 161652, Note_on_c, 2, 66, 0
6, 161664, Note_on_c, 2, 66, 71
6, 161664, Note_on_c, 2, 69, 87
6, 161664, Note_on_c, 2, 74, 64
6, 161780, Note_on_c, 2, 74, 0
6, 161780, Note_on_c, 2, 69, 0
6, 161780, Note_on_c, 2, 66, 0
6, 161792, Note_on_c, 2, 66, 90
6, 161792, Note_on_c, 2, 69, 98
6, 161792, Note_on_c, 2, 74, 91
6, 161844, Note_on_c, 2, 74, 0
6, 161844, Note_on_c, 2, 69, 0
6, 161844, Note_on_c, 2, 66, 0
6, 161856, Note_on_c, 2, 66, 83
6, 161856, Note_on_c, 2, 69, 87
6, 161856, Note_on_c, 2, 74, 69
6, 161972, Note_on_c, 2, 74, 0
6, 161972, Note_on_c, 2, 69, 0
6, 161972, Note_on_c, 2, 66, 0
6, 161984, Note_on_c, 2, 66, 92
6, 161984, Note_on_c, 2, 69, 98
6, 161984, Note_on_c, 2, 74, 88
6, 162036, Note_on_c, 2, 74, 0
6, 162036, Note_on_c, 2, 69, 0
6, 162036, Note_on_c, 2, 66, 0
6, 162048, Note_on_c, 2, 64, 97
6, 162048, Note_on_c, 2, 69, 100
6, 162048, Note_on_c, 2, 73, 88
6, 162228, Note_on_c, 2, 73, 0
6, 162228, Note_on_c, 2, 69, 0
6, 162228, Note_on_c, 2, 64, 0
6, 162816, Note_on_c, 2, 66, 82
6, 162816, Note_on_c, 2, 71, 87
6, 162816, Note_on_c, 2, 74, 82
6, 162932, Note_on_c, 2, 74, 0
6, 162932, Note_on_c, 2, 71, 0
6, 162932, Note_on_c, 2, 66, 0
6, 162944, Note_on_c, 2, 66, 88
6, 162944, Note_on_c, 2, 71, 95
6, 162944, Note_on_c, 2, 74, 90
6, 162996, Note_on_c, 2, 74, 0
6, 162996, Note_on_c, 2, 71, 0
6, 162996, Note_on_c, 2, 66, 0
6, 162996, End_track
7, 0, Start_track
7, 0, MIDI_port, 0
7, 0, Program_c, 3, 24
7, 0, Control_c, 3, 7, 97
7, 0, Control_c, 3, 10, 59
7, 0, Control_c, 3, 121, 0
7, 0, Control_c, 3, 91, 70
7, 0, Control_c, 3, 93, 0
7, 24704, Note_on_c, 3, 57, 81
7, 24756, Note_on_c, 3, 57, 0
7, 24896, Note_on_c, 3, 59, 86
7, 24948, Note_on_c, 3, 59, 0
7, 25088, Note_on_c, 3, 57, 91
7, 25140, Note_on_c, 3, 57, 0
7, 25280, Note_on_c, 3, 59, 89
7, 25332, Note_on_c, 3, 59, 0
7, 25536, Note_on_c, 3, 57, 94
7, 25652, Note_on_c, 3, 57, 0
7, 25664, Note_on_c, 3, 59, 86
7, 25716, Note_on_c, 3, 59, 0
7, 25856, Note_on_c, 3, 57, 87
7, 25908, Note_on_c, 3, 57, 0
7, 26048, Note_on_c, 3, 59, 91
7, 26100, Note_on_c, 3, 59, 0
7, 26240, Note_on_c, 3, 57, 81
7, 26292, Note_on_c, 3, 57, 0
7, 26432, Note_on_c, 3, 59, 86
7, 26484, Note_on_c, 3, 59, 0
7, 26624, Note_on_c, 3, 57, 91
7, 26676, Note_on_c, 3, 57, 0
7, 26816, Note_on_c, 3, 59, 89
7, 26868, Note_on_c, 3, 59, 0
7, 27072, Note_on_c, 3, 57, 94
7, 27188, Note_on_c, 3, 57, 0
7, 27200, Note_on_c, 3, 59, 86
7, 27252, Note_on_c, 3, 59, 0
7, 27392, Note_on_c, 3, 57, 87
7, 27444, Note_on_c, 3, 57, 0
7, 27584, Note_on_c, 3, 59, 91
7, 27636, Note_on_c, 3, 59, 0
7, 27776, Note_on_c, 3, 57, 81
7, 27828, Note_on_c, 3, 57, 0
7, 27968, Note_on_c, 3, 59, 86
7, 28020, Note_on_c, 3, 59, 0
7, 28160, Note_on_c, 3, 57, 91
7, 28212, Note_on_c, 3, 57, 0
7, 28352, Note_on_c, 3, 59, 89
7, 28404, Note_on_c, 3, 59, 0
7, 28608, Note_on_c, 3, 57, 94
7, 28724, Note_on_c, 3, 57, 0
7, 28736, Note_on_c, 3, 59, 86
7, 28788, Note_on_c, 3, 59, 0
7, 28928, Note_on_c, 3, 57, 87
7, 28980, Note_on_c, 3, 57, 0
7, 29120, Note_on_c, 3, 59, 91
7, 29172, Note_on_c, 3, 59, 0
7, 29312, Note_on_c, 3, 59, 88
7, 29364, Note_on_c, 3, 59, 0
7, 29376, Note_on_c, 3, 57, 86
7, 29428, Note_on_c, 3, 57, 0
7, 29568, Note_on_c, 3, 59, 77
7, 29620, Note_on_c, 3, 59, 0
7, 29760, Note_on_c, 3, 57, 94
7, 29812, Note_on_c, 3, 57, 0
7, 29952, Note_on_c, 3, 59, 86
7, 30004, Note_on_c, 3, 59, 0
7, 30144, Note_on_c, 3, 57, 81
7, 30260, Note_on_c, 3, 57, 0
7, 30272, Note_on_c, 3, 59, 84
7, 30324, Note_on_c, 3, 59, 0
7, 30464, Note_on_c, 3, 62, 84
7, 30516, Note_on_c, 3, 62, 0
7, 30656, Note_on_c, 3, 59, 86
7, 30708, Note_on_c, 3, 59, 0
7, 30848, Note_on_c, 3, 57, 81
7, 30900, Note_on_c, 3, 57, 0
7, 31040, Note_on_c, 3, 59, 86
7, 31092, Note_on_c, 3, 59, 0
7, 31232, Note_on_c, 3, 57, 91
7, 31284, Note_on_c, 3, 57, 0
7, 31424, Note_on_c, 3, 59, 89
7, 31476, Note_on_c, 3, 59, 0
7, 31680, Note_on_c, 3, 57, 94
7, 31796, Note_on_c, 3, 57, 0
7, 31808, Note_on_c, 3, 59, 86
7, 31860, Note_on_c, 3, 59, 0
7, 32000, Note_on_c, 3, 57, 87
7, 32052, Note_on_c, 3, 57, 0
7, 32192, Note_on_c, 3, 59, 91
7, 32244, Note_on_c, 3, 59, 0
7, 32384, Note_on_c, 3, 57, 81
7, 32436, Note_on_c, 3, 57, 0
7, 32576, Note_on_c, 3, 59, 86
7, 32628, Note_on_c, 3, 59, 0
7, 32768, Note_on_c, 3, 57, 91
7, 32820, Note_on_c, 3, 57, 0
7, 32960, Note_on_c, 3, 59, 89
7, 33012, Note_on_c, 3, 59, 0
7, 33216, Note_on_c, 3, 57, 94
7, 33332, Note_on_c, 3, 57, 0
7, 33344, Note_on_c, 3, 59, 86
7, 33396, Note_on_c, 3, 59, 0
7, 33536, Note_on_c, 3, 57, 87
7, 33588, Note_on_c, 3, 57, 0
7, 33728, Note_on_c, 3, 59, 91
7, 33780, Note_on_c, 3, 59, 0
7, 33920, Note_on_c, 3, 57, 81
7, 33972, Note_on_c, 3, 57, 0
7, 34112, Note_on_c, 3, 59, 86
7, 34164, Note_on_c, 3, 59, 0
7, 34304, Note_on_c, 3, 57, 91
7, 34356, Note_on_c, 3, 57, 0
7, 34496, Note_on_c, 3, 59, 89
7, 34548, Note_on_c, 3, 59, 0
7, 34752, Note_on_c, 3, 57, 94
7, 34868, Note_on_c, 3, 57, 0
7, 34880, Note_on_c, 3, 59, 86
7, 34932, Note_on_c, 3, 59, 0
7, 35072, Note_on_c, 3, 57, 87
7, 35124, Note_on_c, 3, 57, 0
7, 35264, Note_on_c, 3, 59, 91
7, 35316, Note_on_c, 3, 59, 0
7, 35456, Note_on_c, 3, 59, 88
7, 35508, Note_on_c, 3, 59, 0
7, 35520, Note_on_c, 3, 57, 86
7, 35572, Note_on_c, 3, 57, 0
7, 35712, Note_on_c, 3, 59, 77
7, 35764, Note_on_c, 3, 59, 0
7, 35904, Note_on_c, 3, 57, 94
7, 35956, Note_on_c, 3, 57, 0
7, 36096, Note_on_c, 3, 59, 86
7, 36148, Note_on_c, 3, 59, 0
7, 36288, Note_on_c, 3, 57, 81
7, 36404, Note_on_c, 3, 57, 0
7, 36416, Note_on_c, 3, 59, 84
7, 36468, Note_on_c, 3, 59, 0
7, 36608, Note_on_c, 3, 62, 84
7, 36660, Note_on_c, 3, 62, 0
7, 36800, Note_on_c, 3, 59, 86
7, 36852, Note_on_c, 3, 59, 0
7, 53888, Note_on_c, 3, 54, 86
7, 53888, Note_on_c, 3, 57, 91
7, 53888, Note_on_c, 3, 61, 72
7, 53940, Note_on_c, 3, 61, 0
7, 53940, Note_on_c, 3, 57, 0
7, 53940, Note_on_c, 3, 54, 0
7, 54080, Note_on_c, 3, 54, 76
7, 54080, Note_on_c, 3, 57, 92
7, 54080, Note_on_c, 3, 61, 66
7, 54132, Note_on_c, 3, 61, 0
7, 54132, Note_on_c, 3, 57, 0
7, 54132, Note_on_c, 3, 54, 0
7, 54272, Note_on_c, 3, 54, 72
7, 54272, Note_on_c, 3, 57, 89
7, 54272, Note_on_c, 3, 61, 73
7, 54324, Note_on_c, 3, 61, 0
7, 54324, Note_on_c, 3, 57, 0
7, 54324, Note_on_c, 3, 54, 0
7, 54336, Note_on_c, 3, 54, 84
7, 54452, Note_on_c, 3, 54, 0
7, 54464, Note_on_c, 3, 54, 83
7, 54464, Note_on_c, 3, 57, 84
7, 54464, Note_on_c, 3, 61, 78
7, 54516, Note_on_c, 3, 61, 0
7, 54516, Note_on_c, 3, 57, 0
7, 54516, Note_on_c, 3, 54, 0
7, 54528, Note_on_c, 3, 52, 85
7, 54528, Note_on_c, 3, 56, 81
7, 54528, Note_on_c, 3, 59, 76
7, 54644, Note_on_c, 3, 59, 0
7, 54644, Note_on_c, 3, 56, 0
7, 54644, Note_on_c, 3, 52, 0
7, 54720, Note_on_c, 3, 54, 83
7, 54720, Note_on_c, 3, 57, 87
7, 54836, Note_on_c, 3, 57, 0
7, 54836, Note_on_c, 3, 54, 0
7, 54848, Note_on_c, 3, 56, 83
7, 54848, Note_on_c, 3, 59, 87
7, 54900, Note_on_c, 3, 59, 0
7, 54900, Note_on_c, 3, 56, 0
7, 55040, Note_on_c, 3, 56, 86
7, 55040, Note_on_c, 3, 59, 84
7, 55092, Note_on_c, 3, 59, 0
7, 55092, Note_on_c, 3, 56, 0
7, 55232, Note_on_c, 3, 56, 91
7, 55232, Note_on_c, 3, 59, 86
7, 55284, Note_on_c, 3, 59, 0
7, 55284, Note_on_c, 3, 56, 0
7, 56960, Note_on_c, 3, 52, 88
7, 56960, Note_on_c, 3, 56, 86
7, 56960, Note_on_c, 3, 59, 83
7, 57012, Note_on_c, 3, 59, 0
7, 57012, Note_on_c, 3, 56, 0
7, 57012, Note_on_c, 3, 52, 0
7, 57152, Note_on_c, 3, 52, 80
7, 57152, Note_on_c, 3, 56, 76
7, 57152, Note_on_c, 3, 59, 73
7, 57204, Note_on_c, 3, 59, 0
7, 57204, Note_on_c, 3, 56, 0
7, 57204, Note_on_c, 3, 52, 0
7, 57216, Note_on_c, 3, 52, 76
7, 57216, Note_on_c, 3, 56, 75
7, 57216, Note_on_c, 3, 59, 72
7, 57332, Note_on_c, 3, 59, 0
7, 57332, Note_on_c, 3, 56, 0
7, 57332, Note_on_c, 3, 52, 0
7, 57344, Note_on_c, 3, 52, 96
7, 57344, Note_on_c, 3, 56, 80
7, 57344, Note_on_c, 3, 59, 85
7, 57396, Note_on_c, 3, 59, 0
7, 57396, Note_on_c, 3, 56, 0
7, 57396, Note_on_c, 3, 52, 0
7, 57536, Note_on_c, 3, 54, 76
7, 57536, Note_on_c, 3, 57, 83
7, 57536, Note_on_c, 3, 62, 75
7, 57588, Note_on_c, 3, 62, 0
7, 57588, Note_on_c, 3, 57, 0
7, 57588, Note_on_c, 3, 54, 0
7, 57600, Note_on_c, 3, 52, 90
7, 57600, Note_on_c, 3, 57, 96
7, 57600, Note_on_c, 3, 61, 72
7, 57652, Note_on_c, 3, 61, 0
7, 57652, Note_on_c, 3, 57, 0
7, 57652, Note_on_c, 3, 52, 0
7, 57792, Note_on_c, 3, 52, 71
7, 57792, Note_on_c, 3, 56, 75
7, 57792, Note_on_c, 3, 59, 80
7, 57908, Note_on_c, 3, 59, 0
7, 57908, Note_on_c, 3, 56, 0
7, 57908, Note_on_c, 3, 52, 0
7, 57920, Note_on_c, 3, 52, 76
7, 57920, Note_on_c, 3, 57, 92
7, 57920, Note_on_c, 3, 61, 65
7, 57972, Note_on_c, 3, 61, 0
7, 57972, Note_on_c, 3, 57, 0
7, 57972, Note_on_c, 3, 52, 0
7, 58112, Note_on_c, 3, 52, 79
7, 58112, Note_on_c, 3, 57, 92
7, 58112, Note_on_c, 3, 61, 71
7, 58164, Note_on_c, 3, 61, 0
7, 58164, Note_on_c, 3, 57, 0
7, 58164, Note_on_c, 3, 52, 0
7, 58304, Note_on_c, 3, 52, 85
7, 58304, Note_on_c, 3, 57, 94
7, 58304, Note_on_c, 3, 61, 81
7, 58356, Note_on_c, 3, 61, 0
7, 58356, Note_on_c, 3, 57, 0
7, 58356, Note_on_c, 3, 52, 0
7, 60032, Note_on_c, 3, 54, 86
7, 60032, Note_on_c, 3, 57, 91
7, 60032, Note_on_c, 3, 61, 72
7, 60084, Note_on_c, 3, 61, 0
7, 60084, Note_on_c, 3, 57, 0
7, 60084, Note_on_c, 3, 54, 0
7, 60224, Note_on_c, 3, 54, 76
7, 60224, Note_on_c, 3, 57, 92
7, 60224, Note_on_c, 3, 61, 66
7, 60276, Note_on_c, 3, 61, 0
7, 60276, Note_on_c, 3, 57, 0
7, 60276, Note_on_c, 3, 54, 0
7, 60416, Note_on_c, 3, 54, 72
7, 60416, Note_on_c, 3, 57, 89
7, 60416, Note_on_c, 3, 61, 73
7, 60468, Note_on_c, 3, 61, 0
7, 60468, Note_on_c, 3, 57, 0
7, 60468, Note_on_c, 3, 54, 0
7, 60480, Note_on_c, 3, 54, 84
7, 60596, Note_on_c, 3, 54, 0
7, 60608, Note_on_c, 3, 54, 83
7, 60608, Note_on_c, 3, 57, 84
7, 60608, Note_on_c, 3, 61, 78
7, 60660, Note_on_c, 3, 61, 0
7, 60660, Note_on_c, 3, 57, 0
7, 60660, Note_on_c, 3, 54, 0
7, 60672, Note_on_c, 3, 52, 85
7, 60672, Note_on_c, 3, 56, 81
7, 60672, Note_on_c, 3, 59, 76
7, 60788, Note_on_c, 3, 59, 0
7, 60788, Note_on_c, 3, 56, 0
7, 60788, Note_on_c, 3, 52, 0
7, 60864, Note_on_c, 3, 54, 83
7, 60864, Note_on_c, 3, 57, 87
7, 60980, Note_on_c, 3, 57, 0
7, 60980, Note_on_c, 3, 54, 0
7, 60992, Note_on_c, 3, 56, 83
7, 60992, Note_on_c, 3, 59, 87
7, 61044, Note_on_c, 3, 59, 0
7, 61044, Note_on_c, 3, 56, 0
7, 61184, Note_on_c, 3, 56, 86
7, 61184, Note_on_c, 3, 59, 84
7, 61236, Note_on_c, 3, 59, 0
7, 61236, Note_on_c, 3, 56, 0
7, 61376, Note_on_c, 3, 56, 91
7, 61376, Note_on_c, 3, 59, 86
7, 61428, Note_on_c, 3, 59, 0
7, 61428, Note_on_c, 3, 56, 0
7, 92288, Note_on_c, 3, 57, 81
7, 92340, Note_on_c, 3, 57, 0
7, 92480, Note_on_c, 3, 59, 86
7, 92532, Note_on_c, 3, 59, 0
7, 92672, Note_on_c, 3, 57, 91
7, 92724, Note_on_c, 3, 57, 0
7, 92864, Note_on_c, 3, 59, 89
7, 92916, Note_on_c, 3, 59, 0
7, 93120, Note_on_c, 3, 57, 94
7, 93236, Note_on_c, 3, 57, 0
7, 93248, Note_on_c, 3, 59, 86
7, 93300, Note_on_c, 3, 59, 0
7, 93440, Note_on_c, 3, 57, 87
7, 93492, Note_on_c, 3, 57, 0
7, 93632, Note_on_c, 3, 59, 91
7, 93684, Note_on_c, 3, 59, 0
7, 93824, Note_on_c, 3, 57, 81
7, 93876, Note_on_c, 3, 57, 0
7, 94016, Note_on_c, 3, 59, 86
7, 94068, Note_on_c, 3, 59, 0
7, 94208, Note_on_c, 3, 57, 91
7, 94260, Note_on_c, 3, 57, 0
7, 94400, Note_on_c, 3, 59, 89
7, 94452, Note_on_c, 3, 59, 0
7, 94656, Note_on_c, 3, 57, 94
7, 94772, Note_on_c, 3, 57, 0
7, 94784, Note_on_c, 3, 59, 86
7, 94836, Note_on_c, 3, 59, 0
7, 94976, Note_on_c, 3, 57, 87
7, 95028, Note_on_c, 3, 57, 0
7, 95168, Note_on_c, 3, 59, 91
7, 95220, Note_on_c, 3, 59, 0
7, 95360, Note_on_c, 3, 57, 81
7, 95412, Note_on_c, 3, 57, 0
7, 95552, Note_on_c, 3, 59, 86
7, 95604, Note_on_c, 3, 59, 0
7, 95744, Note_on_c, 3, 57, 91
7, 95796, Note_on_c, 3, 57, 0
7, 95936, Note_on_c, 3, 59, 89
7, 95988, Note_on_c, 3, 59, 0
7, 96192, Note_on_c, 3, 57, 94
7, 96308, Note_on_c, 3, 57, 0
7, 96320, Note_on_c, 3, 59, 86
7, 96372, Note_on_c, 3, 59, 0
7, 96512, Note_on_c, 3, 57, 87
7, 96564, Note_on_c, 3, 57, 0
7, 96704, Note_on_c, 3, 59, 91
7, 96756, Note_on_c, 3, 59, 0
7, 96896, Note_on_c, 3, 59, 88
7, 96948, Note_on_c, 3, 59, 0
7, 96960, Note_on_c, 3, 57, 86
7, 97012, Note_on_c, 3, 57, 0
7, 97152, Note_on_c, 3, 59, 77
7, 97204, Note_on_c, 3, 59, 0
7, 97344, Note_on_c, 3, 57, 94
7, 97396, Note_on_c, 3, 57, 0
7, 97536, Note_on_c, 3, 59, 86
7, 97588, Note_on_c, 3, 59, 0
7, 97728, Note_on_c, 3, 57, 81
7, 97844, Note_on_c, 3, 57, 0
7, 97856, Note_on_c, 3, 59, 84
7, 97908, Note_on_c, 3, 59, 0
7, 98048, Note_on_c, 3, 62, 84
7, 98100, Note_on_c, 3, 62, 0
7, 98240, Note_on_c, 3, 59, 86
7, 98292, Note_on_c, 3, 59, 0
7, 98432, Note_on_c, 3, 57, 81
7, 98484, Note_on_c, 3, 57, 0
7, 98624, Note_on_c, 3, 59, 86
7, 98676, Note_on_c, 3, 59, 0
7, 98816, Note_on_c, 3, 57, 91
7, 98868, Note_on_c, 3, 57, 0
7, 99008, Note_on_c, 3, 59, 89
7, 99060, Note_on_c, 3, 59, 0
7, 99264, Note_on_c, 3, 57, 94
7, 99380, Note_on_c, 3, 57, 0
7, 99392, Note_on_c, 3, 59, 86
7, 99444, Note_on_c, 3, 59, 0
7, 99584, Note_on_c, 3, 57, 87
7, 99636, Note_on_c, 3, 57, 0
7, 99776, Note_on_c, 3, 59, 91
7, 99828, Note_on_c, 3, 59, 0
7, 99968, Note_on_c, 3, 57, 81
7, 100020, Note_on_c, 3, 57, 0
7, 100160, Note_on_c, 3, 59, 86
7, 100212, Note_on_c, 3, 59, 0
7, 100352, Note_on_c, 3, 57, 91
7, 100404, Note_on_c, 3, 57, 0
7, 100544, Note_on_c, 3, 59, 89
7, 100596, Note_on_c, 3, 59, 0
7, 100800, Note_on_c, 3, 57, 94
7, 100916, Note_on_c, 3, 57, 0
7, 100928, Note_on_c, 3, 59, 86
7, 100980, Note_on_c, 3, 59, 0
7, 101120, Note_on_c, 3, 57, 87
7, 101172, Note_on_c, 3, 57, 0
7, 101312, Note_on_c, 3, 59, 91
7, 101364, Note_on_c, 3, 59, 0
7, 101504, Note_on_c, 3, 57, 81
7, 101556, Note_on_c, 3, 57, 0
7, 101696, Note_on_c, 3, 59, 86
7, 101748, Note_on_c, 3, 59, 0
7, 101888, Note_on_c, 3, 57, 91
7, 101940, Note_on_c, 3, 57, 0
7, 102080, Note_on_c, 3, 59, 89
7, 102132, Note_on_c, 3, 59, 0
7, 102336, Note_on_c, 3, 57, 94
7, 102452, Note_on_c, 3, 57, 0
7, 102464, Note_on_c, 3, 59, 86
7, 102516, Note_on_c, 3, 59, 0
7, 102656, Note_on_c, 3, 57, 87
7, 102708, Note_on_c, 3, 57, 0
7, 102848, Note_on_c, 3, 59, 91
7, 102900, Note_on_c, 3, 59, 0
7, 103040, Note_on_c, 3, 59, 88
7, 103092, Note_on_c, 3, 59, 0
7, 103104, Note_on_c, 3, 57, 86
7, 103156, Note_on_c, 3, 57, 0
7, 103296, Note_on_c, 3, 59, 77
7, 103348, Note_on_c, 3, 59, 0
7, 103488, Note_on_c, 3, 57, 94
7, 103540, Note_on_c, 3, 57, 0
7, 103680, Note_on_c, 3, 59, 86
7, 103732, Note_on_c, 3, 59, 0
7, 103872, Note_on_c, 3, 57, 81
7, 103988, Note_on_c, 3, 57, 0
7, 104000, Note_on_c, 3, 59, 84
7, 104052, Note_on_c, 3, 59, 0
7, 104192, Note_on_c, 3, 62, 84
7, 104244, Note_on_c, 3, 62, 0
7, 104384, Note_on_c, 3, 59, 86
7, 104436, Note_on_c, 3, 59, 0
7, 106112, Note_on_c, 3, 54, 86
7, 106112, Note_on_c, 3, 57, 91
7, 106112, Note_on_c, 3, 61, 72
7, 106164, Note_on_c, 3, 61, 0
7, 106164, Note_on_c, 3, 57, 0
7, 106164, Note_on_c, 3, 54, 0
7, 106304, Note_on_c, 3, 54, 76
7, 106304, Note_on_c, 3, 57, 92
7, 106304, Note_on_c, 3, 61, 66
7, 106356, Note_on_c, 3, 61, 0
7, 106356, Note_on_c, 3, 57, 0
7, 106356, Note_on_c, 3, 54, 0
7, 106496, Note_on_c, 3, 54, 72
7, 106496, Note_on_c, 3, 57, 89
7, 106496, Note_on_c, 3, 61, 73
7, 106548, Note_on_c, 3, 61, 0
7, 106548, Note_on_c, 3, 57, 0
7, 106548, Note_on_c, 3, 54, 0
7, 106560, Note_on_c, 3, 54, 84
7, 106676, Note_on_c, 3, 54, 0
7, 106688, Note_on_c, 3, 54, 83
7, 106688, Note_on_c, 3, 57, 84
7, 106688, Note_on_c, 3, 61, 78
7, 106740, Note_on_c, 3, 61, 0
7, 106740, Note_on_c, 3, 57, 0
7, 106740, Note_on_c, 3, 54, 0
7, 106752, Note_on_c, 3, 52, 85
7, 106752, Note_on_c, 3, 56, 81
7, 106752, Note_on_c, 3, 59, 76
7, 106868, Note_on_c, 3, 59, 0
7, 106868, Note_on_c, 3, 56, 0
7, 106868, Note_on_c, 3, 52, 0
7, 106944, Note_on_c, 3, 54, 83
7, 106944, Note_on_c, 3, 57, 87
7, 107060, Note_on_c, 3, 57, 0
7, 107060, Note_on_c, 3, 54, 0
7, 107072, Note_on_c, 3, 56, 83
7, 107072, Note_on_c, 3, 59, 87
7, 107124, Note_on_c, 3, 59, 0
7, 107124, Note_on_c, 3, 56, 0
7, 107264, Note_on_c, 3, 56, 86
7, 107264, Note_on_c, 3, 59, 84
7, 107316, Note_on_c, 3, 59, 0
7, 107316, Note_on_c, 3, 56, 0
7, 107456, Note_on_c, 3, 56, 91
7, 107456, Note_on_c, 3, 59, 86
7, 107508, Note_on_c, 3, 59, 0
7, 107508, Note_on_c, 3, 56, 0
7, 109184, Note_on_c, 3, 52, 88
7, 109184, Note_on_c, 3, 56, 86
7, 109184, Note_on_c, 3, 59, 83
7, 109236, Note_on_c, 3, 59, 0
7, 109236, Note_on_c, 3, 56, 0
7, 109236, Note_on_c, 3, 52, 0
7, 109376, Note_on_c, 3, 52, 80
7, 109376, Note_on_c, 3, 56, 76
7, 109376, Note_on_c, 3, 59, 73
7, 109428, Note_on_c, 3, 59, 0
7, 109428, Note_on_c, 3, 56, 0
7, 109428, Note_on_c, 3, 52, 0
7, 109440, Note_on_c, 3, 52, 76
7, 109440, Note_on_c, 3, 56, 75
7, 109440, Note_on_c, 3, 59, 72
7, 109556, Note_on_c, 3, 59, 0
7, 109556, Note_on_c, 3, 56, 0
7, 109556, Note_on_c, 3, 52, 0
7, 109568, Note_on_c, 3, 52, 96
7, 109568, Note_on_c, 3, 56, 80
7, 109568, Note_on_c, 3, 59, 85
7, 109620, Note_on_c, 3, 59, 0
7, 109620, Note_on_c, 3, 56, 0
7, 109620, Note_on_c, 3, 52, 0
7, 109760, Note_on_c, 3, 54, 76
7, 109760, Note_on_c, 3, 57, 83
7, 109760, Note_on_c, 3, 62, 75
7, 109812, Note_on_c, 3, 62, 0
7, 109812, Note_on_c, 3, 57, 0
7, 109812, Note_on_c, 3, 54, 0
7, 109824, Note_on_c, 3, 52, 90
7, 109824, Note_on_c, 3, 57, 96
7, 109824, Note_on_c, 3, 61, 72
7, 109876, Note_on_c, 3, 61, 0
7, 109876, Note_on_c, 3, 57, 0
7, 109876, Note_on_c, 3, 52, 0
7, 110016, Note_on_c, 3, 52, 71
7, 110016, Note_on_c, 3, 56, 75
7, 110016, Note_on_c, 3, 59, 80
7, 110132, Note_on_c, 3, 59, 0
7, 110132, Note_on_c, 3, 56, 0
7, 110132, Note_on_c, 3, 52, 0
7, 110144, Note_on_c, 3, 52, 76
7, 110144, Note_on_c, 3, 57, 92
7, 110144, Note_on_c, 3, 61, 65
7, 110196, Note_on_c, 3, 61, 0
7, 110196, Note_on_c, 3, 57, 0
7, 110196, Note_on_c, 3, 52, 0
7, 110336, Note_on_c, 3, 52, 79
7, 110336, Note_on_c, 3, 57, 92
7, 110336, Note_on_c, 3, 61, 71
7, 110388, Note_on_c, 3, 61, 0
7, 110388, Note_on_c, 3, 57, 0
7, 110388, Note_on_c, 3, 52, 0
7, 110528, Note_on_c, 3, 52, 85
7, 110528, Note_on_c, 3, 57, 94
7, 110528, Note_on_c, 3, 61, 81
7, 110580, Note_on_c, 3, 61, 0
7, 110580, Note_on_c, 3, 57, 0
7, 110580, Note_on_c, 3, 52, 0
7, 112256, Note_on_c, 3, 54, 86
7, 112256, Note_on_c, 3, 57, 91
7, 112256, Note_on_c, 3, 61, 72
7, 112308, Note_on_c, 3, 61, 0
7, 112308, Note_on_c, 3, 57, 0
7, 112308, Note_on_c, 3, 54, 0
7, 112448, Note_on_c, 3, 54, 76
7, 112448, Note_on_c, 3, 57, 92
7, 112448, Note_on_c, 3, 61, 66
7, 112500, Note_on_c, 3, 61, 0
7, 112500, Note_on_c, 3, 57, 0
7, 112500, Note_on_c, 3, 54, 0
7, 112640, Note_on_c, 3, 54, 72
7, 112640, Note_on_c, 3, 57, 89
7, 112640, Note_on_c, 3, 61, 73
7, 112692, Note_on_c, 3, 61, 0
7, 112692, Note_on_c, 3, 57, 0
7, 112692, Note_on_c, 3, 54, 0
7, 112704, Note_on_c, 3, 54, 84
7, 112820, Note_on_c, 3, 54, 0
7, 112832, Note_on_c, 3, 54, 83
7, 112832, Note_on_c, 3, 57, 84
7, 112832, Note_on_c, 3, 61, 78
7, 112884, Note_on_c, 3, 61, 0
7, 112884, Note_on_c, 3, 57, 0
7, 112884, Note_on_c, 3, 54, 0
7, 112896, Note_on_c, 3, 52, 85
7, 112896, Note_on_c, 3, 56, 81
7, 112896, Note_on_c, 3, 59, 76
7, 113012, Note_on_c, 3, 59, 0
7, 113012, Note_on_c, 3, 56, 0
7, 113012, Note_on_c, 3, 52, 0
7, 113088, Note_on_c, 3, 54, 83
7, 113088, Note_on_c, 3, 57, 87
7, 113204, Note_on_c, 3, 57, 0
7, 113204, Note_on_c, 3, 54, 0
7, 113216, Note_on_c, 3, 56, 83
7, 113216, Note_on_c, 3, 59, 87
7, 113268, Note_on_c, 3, 59, 0
7, 113268, Note_on_c, 3, 56, 0
7, 113408, Note_on_c, 3, 56, 86
7, 113408, Note_on_c, 3, 59, 84
7, 113460, Note_on_c, 3, 59, 0
7, 113460, Note_on_c, 3, 56, 0
7, 113600, Note_on_c, 3, 56, 91
7, 113600, Note_on_c, 3, 59, 86
7, 113652, Note_on_c, 3, 59, 0
7, 113652, Note_on_c, 3, 56, 0
7, 113652, End_track
8, 0, Start_track
8, 0, MIDI_port, 0
8, 0, Program_c, 4, 6
8, 0, Control_c, 4, 7, 90
8, 0, Control_c, 4, 10, 54
8, 0, Control_c, 4, 121, 0
8, 0, Control_c, 4, 91, 70
8, 0, Control_c, 4, 93, 0
8, 128, Note_on_c, 4, 54, 98
8, 128, Note_on_c, 4, 59, 95
8, 128, Note_on_c, 4, 62, 96
8, 308, Note_on_c, 4, 62, 0
8, 308, Note_on_c, 4, 59, 0
8, 308, Note_on_c, 4, 54, 0
8, 1664, Note_on_c, 4, 54, 93
8, 1664, Note_on_c, 4, 57, 104
8, 1664, Note_on_c, 4, 62, 85
8, 1844, Note_on_c, 4, 62, 0
8, 1844, Note_on_c, 4, 57, 0
8, 1844, Note_on_c, 4, 54, 0
8, 2432, Note_on_c, 4, 52, 105
8, 2432, Note_on_c, 4, 57, 106
8, 2432, Note_on_c, 4, 61, 91
8, 2612, Note_on_c, 4, 61, 0
8, 2612, Note_on_c, 4, 57, 0
8, 2612, Note_on_c, 4, 52, 0
8, 3200, Note_on_c, 4, 54, 98
8, 3200, Note_on_c, 4, 59, 95
8, 3200, Note_on_c, 4, 62, 96
8, 3380, Note_on_c, 4, 62, 0
8, 3380, Note_on_c, 4, 59, 0
8, 3380, Note_on_c, 4, 54, 0
8, 4736, Note_on_c, 4, 54, 93
8, 4736, Note_on_c, 4, 57, 104
8, 4736, Note_on_c, 4, 62, 85
8, 4916, Note_on_c, 4, 62, 0
8, 4916, Note_on_c, 4, 57, 0
8, 4916, Note_on_c, 4, 54, 0
8, 5504, Note_on_c, 4, 52, 105
8, 5504, Note_on_c, 4, 57, 106
8, 5504, Note_on_c, 4, 61, 91
8, 5684, Note_on_c, 4, 61, 0
8, 5684, Note_on_c, 4, 57, 0
8, 5684, Note_on_c, 4, 52, 0
8, 36992, Note_on_c, 4, 54, 98
8, 36992, Note_on_c, 4, 59, 95
8, 36992, Note_on_c, 4, 62, 96
8, 37172, Note_on_c, 4, 62, 0
8, 37172, Note_on_c, 4, 59, 0
8, 37172, Note_on_c, 4, 54, 0
8, 38528, Note_on_c, 4, 54, 93
8, 38528, Note_on_c, 4, 57, 104
8, 38528, Note_on_c, 4, 62, 85
8, 38708, Note_on_c, 4, 62, 0
8, 38708, Note_on_c, 4, 57, 0
8, 38708, Note_on_c, 4, 54, 0
8, 39296, Note_on_c, 4, 52, 105
8, 39296, Note_on_c, 4, 57, 106
8, 39296, Note_on_c, 4, 61, 91
8, 39476, Note_on_c, 4, 61, 0
8, 39476, Note_on_c, 4, 57, 0
8, 39476, Note_on_c, 4, 52, 0
8, 40064, Note_on_c, 4, 54, 98
8, 40064, Note_on_c, 4, 59, 95
8, 40064, Note_on_c, 4, 62, 96
8, 40244, Note_on_c, 4, 62, 0
8, 40244, Note_on_c, 4, 59, 0
8, 40244, Note_on_c, 4, 54, 0
8, 41600, Note_on_c, 4, 54, 93
8, 41600, Note_on_c, 4, 57, 104
8, 41600, Note_on_c, 4, 62, 85
8, 41780, Note_on_c, 4, 62, 0
8, 41780, Note_on_c, 4, 57, 0
8, 41780, Note_on_c, 4, 54, 0
8, 42368, Note_on_c, 4, 52, 105
8, 42368, Note_on_c, 4, 57, 106
8, 42368, Note_on_c, 4, 61, 91
8, 42548, Note_on_c, 4, 61, 0
8, 42548, Note_on_c, 4, 57, 0
8, 42548, Note_on_c, 4, 52, 0
8, 43136, Note_on_c, 4, 54, 98
8, 43136, Note_on_c, 4, 59, 95
8, 43136, Note_on_c, 4, 62, 96
8, 43316, Note_on_c, 4, 62, 0
8, 43316, Note_on_c, 4, 59, 0
8, 43316, Note_on_c, 4, 54, 0
8, 44672, Note_on_c, 4, 54, 93
8, 44672, Note_on_c, 4, 57, 104
8, 44672, Note_on_c, 4, 62, 85
8, 44852, Note_on_c, 4, 62, 0
8, 44852, Note_on_c, 4, 57, 0
8, 44852, Note_on_c, 4, 54, 0
8, 45440, Note_on_c, 4, 52, 105
8, 45440, Note_on_c, 4, 57, 106
8, 45440, Note_on_c, 4, 61, 91
8, 45620, Note_on_c, 4, 61, 0
8, 45620, Note_on_c, 4, 57, 0
8, 45620, Note_on_c, 4, 52, 0
8, 73856, Note_on_c, 4, 54, 98
8, 73856, Note_on_c, 4, 59, 95
8, 73856, Note_on_c, 4, 62, 96
8, 74036, Note_on_c, 4, 62, 0
8, 74036, Note_on_c, 4, 59, 0
8, 74036, Note_on_c, 4, 54, 0
8, 75392, Note_on_c, 4, 54, 93
8, 75392, Note_on_c, 4, 57, 104
8, 75392, Note_on_c, 4, 62, 85
8, 75572, Note_on_c, 4, 62, 0
8, 75572, Note_on_c, 4, 57, 0
8, 75572, Note_on_c, 4, 54, 0
8, 76160, Note_on_c, 4, 52, 105
8, 76160, Note_on_c, 4, 57, 106
8, 76160, Note_on_c, 4, 61, 91
8, 76340, Note_on_c, 4, 61, 0
8, 76340, Note_on_c, 4, 57, 0
8, 76340, Note_on_c, 4, 52, 0
8, 76928, Note_on_c, 4, 54, 98
8, 76928, Note_on_c, 4, 59, 95
8, 76928, Note_on_c, 4, 62, 96
8, 77108, Note_on_c, 4, 62, 0
8, 77108, Note_on_c, 4, 59, 0
8, 77108, Note_on_c, 4, 54, 0
8, 78464, Note_on_c, 4, 54, 93
8, 78464, Note_on_c, 4, 57, 104
8, 78464, Note_on_c, 4, 62, 85
8, 78644, Note_on_c, 4, 62, 0
8, 78644, Note_on_c, 4, 57, 0
8, 78644, Note_on_c, 4, 54, 0
8, 79232, Note_on_c, 4, 52, 105
8, 79232, Note_on_c, 4, 57, 106
8, 79232, Note_on_c, 4, 61, 91
8, 79412, Note_on_c, 4, 61, 0
8, 79412, Note_on_c, 4, 57, 0
8, 79412, Note_on_c, 4, 52, 0
8, 80000, Note_on_c, 4, 54, 98
8, 80000, Note_on_c, 4, 59, 95
8, 80000, Note_on_c, 4, 62, 96
8, 80180, Note_on_c, 4, 62, 0
8, 80180, Note_on_c, 4, 59, 0
8, 80180, Note_on_c, 4, 54, 0
8, 81536, Note_on_c, 4, 54, 93
8, 81536, Note_on_c, 4, 57, 104
8, 81536, Note_on_c, 4, 62, 85
8, 81716, Note_on_c, 4, 62, 0
8, 81716, Note_on_c, 4, 57, 0
8, 81716, Note_on_c, 4, 54, 0
8, 82304, Note_on_c, 4, 52, 105
8, 82304, Note_on_c, 4, 57, 106
8, 82304, Note_on_c, 4, 61, 91
8, 82484, Note_on_c, 4, 61, 0
8, 82484, Note_on_c, 4, 57, 0
8, 82484, Note_on_c, 4, 52, 0
8, 83072, Note_on_c, 4, 54, 98
8, 83072, Note_on_c, 4, 59, 95
8, 83072, Note_on_c, 4, 62, 96
8, 83252, Note_on_c, 4, 62, 0
8, 83252, Note_on_c, 4, 59, 0
8, 83252, Note_on_c, 4, 54, 0
8, 84608, Note_on_c, 4, 54, 93
8, 84608, Note_on_c, 4, 57, 104
8, 84608, Note_on_c, 4, 62, 85
8, 84788, Note_on_c, 4, 62, 0
8, 84788, Note_on_c, 4, 57, 0
8, 84788, Note_on_c, 4, 54, 0
8, 85376, Note_on_c, 4, 52, 105
8, 85376, Note_on_c, 4, 57, 106
8, 85376, Note_on_c, 4, 61, 91
8, 85556, Note_on_c, 4, 61, 0
8, 85556, Note_on_c, 4, 57, 0
8, 85556, Note_on_c, 4, 52, 0
8, 126080, Note_on_c, 4, 54, 98
8, 126080, Note_on_c, 4, 59, 95
8, 126080, Note_on_c, 4, 62, 96
8, 126260, Note_on_c, 4, 62, 0
8, 126260, Note_on_c, 4, 59, 0
8, 126260, Note_on_c, 4, 54, 0
8, 127616, Note_on_c, 4, 54, 93
8, 127616, Note_on_c, 4, 57, 104
8, 127616, Note_on_c, 4, 62, 85
8, 127796, Note_on_c, 4, 62, 0
8, 127796, Note_on_c, 4, 57, 0
8, 127796, Note_on_c, 4, 54, 0
8, 128384, Note_on_c, 4, 52, 105
8, 128384, Note_on_c, 4, 57, 106
8, 128384, Note_on_c, 4, 61, 91
8, 128564, Note_on_c, 4, 61, 0
8, 128564, Note_on_c, 4, 57, 0
8, 128564, Note_on_c, 4, 52, 0
8, 129152, Note_on_c, 4, 54, 98
8, 129152, Note_on_c, 4, 59, 95
8, 129152, Note_on_c, 4, 62, 96
8, 129332, Note_on_c, 4, 62, 0
8, 129332, Note_on_c, 4, 59, 0
8, 129332, Note_on_c, 4, 54, 0
8, 130688, Note_on_c, 4, 54, 93
8, 130688, Note_on_c, 4, 57, 104
8, 130688, Note_on_c, 4, 62, 85
8, 130868, Note_on_c, 4, 62, 0
8, 130868, Note_on_c, 4, 57, 0
8, 130868, Note_on_c, 4, 54, 0
8, 131456, Note_on_c, 4, 52, 105
8, 131456, Note_on_c, 4, 57, 106
8, 131456, Note_on_c, 4, 61, 91
8, 131636, Note_on_c, 4, 61, 0
8, 131636, Note_on_c, 4, 57, 0
8, 131636, Note_on_c, 4, 52, 0
8, 132224, Note_on_c, 4, 54, 98
8, 132224, Note_on_c, 4, 59, 95
8, 132224, Note_on_c, 4, 62, 96
8, 132404, Note_on_c, 4, 62, 0
8, 132404, Note_on_c, 4, 59, 0
8, 132404, Note_on_c, 4, 54, 0
8, 133760, Note_on_c, 4, 54, 93
8, 133760, Note_on_c, 4, 57, 104
8, 133760, Note_on_c, 4, 62, 85
8, 133940, Note_on_c, 4, 62, 0
8, 133940, Note_on_c, 4, 57, 0
8, 133940, Note_on_c, 4, 54, 0
8, 134528, Note_on_c, 4, 52, 105
8, 134528, Note_on_c, 4, 57, 106
8, 134528, Note_on_c, 4, 61, 91
8, 134708, Note_on_c, 4, 61, 0
8, 134708, Note_on_c, 4, 57, 0
8, 134708, Note_on_c, 4, 52, 0
8, 135296, Note_on_c, 4, 54, 98
8, 135296, Note_on_c, 4, 59, 95
8, 135296, Note_on_c, 4, 62, 96
8, 135476, Note_on_c, 4, 62, 0
8, 135476, Note_on_c, 4, 59, 0
8, 135476, Note_on_c, 4, 54, 0
8, 136832, Note_on_c, 4, 54, 93
8, 136832, Note_on_c, 4, 57, 104
8, 136832, Note_on_c, 4, 62, 85
8, 137012, Note_on_c, 4, 62, 0
8, 137012, Note_on_c, 4, 57, 0
8, 137012, Note_on_c, 4, 54, 0
8, 137600, Note_on_c, 4, 52, 105
8, 137600, Note_on_c, 4, 57, 106
8, 137600, Note_on_c, 4, 61, 91
8, 137780, Note_on_c, 4, 61, 0
8, 137780, Note_on_c, 4, 57, 0
8, 137780, Note_on_c, 4, 52, 0
8, 138368, Note_on_c, 4, 54, 98
8, 138368, Note_on_c, 4, 59, 95
8, 138368, Note_on_c, 4, 62, 96
8, 138548, Note_on_c, 4, 62, 0
8, 138548, Note_on_c, 4, 59, 0
8, 138548, Note_on_c, 4, 54, 0
8, 139904, Note_on_c, 4, 54, 93
8, 139904, Note_on_c, 4, 57, 104
8, 139904, Note_on_c, 4, 62, 85
8, 140084, Note_on_c, 4, 62, 0
8, 140084, Note_on_c, 4, 57, 0
8, 140084, Note_on_c, 4, 54, 0
8, 140672, Note_on_c, 4, 52, 105
8, 140672, Note_on_c, 4, 57, 106
8, 140672, Note_on_c, 4, 61, 91
8, 140852, Note_on_c, 4, 61, 0
8, 140852, Note_on_c, 4, 57, 0
8, 140852, Note_on_c, 4, 52, 0
8, 141440, Note_on_c, 4, 54, 98
8, 141440, Note_on_c, 4, 59, 95
8, 141440, Note_on_c, 4, 62, 96
8, 141620, Note_on_c, 4, 62, 0
8, 141620, Note_on_c, 4, 59, 0
8, 141620, Note_on_c, 4, 54, 0
8, 142976, Note_on_c, 4, 54, 93
8, 142976, Note_on_c, 4, 57, 104
8, 142976, Note_on_c, 4, 62, 85
8, 143156, Note_on_c, 4, 62, 0
8, 143156, Note_on_c, 4, 57, 0
8, 143156, Note_on_c, 4, 54, 0
8, 143744, Note_on_c, 4, 52, 105
8, 143744, Note_on_c, 4, 57, 106
8, 143744, Note_on_c, 4, 61, 91
8, 143924, Note_on_c, 4, 61, 0
8, 143924, Note_on_c, 4, 57, 0
8, 143924, Note_on_c, 4, 52, 0
8, 144512, Note_on_c, 4, 54, 98
8, 144512, Note_on_c, 4, 59, 95
8, 144512, Note_on_c, 4, 62, 96
8, 144692, Note_on_c, 4, 62, 0
8, 144692, Note_on_c, 4, 59, 0
8, 144692, Note_on_c, 4, 54, 0
8, 146048, Note_on_c, 4, 54, 93
8, 146048, Note_on_c, 4, 57, 104
8, 146048, Note_on_c, 4, 62, 85
8, 146228, Note_on_c, 4, 62, 0
8, 146228, Note_on_c, 4, 57, 0
8, 146228, Note_on_c, 4, 54, 0
8, 146816, Note_on_c, 4, 52, 105
8, 146816, Note_on_c, 4, 57, 106
8, 146816, Note_on_c, 4, 61, 91
8, 146996, Note_on_c, 4, 61, 0
8, 146996, Note_on_c, 4, 57, 0
8, 146996, Note_on_c, 4, 52, 0
8, 147584, Note_on_c, 4, 54, 98
8, 147584, Note_on_c, 4, 59, 95
8, 147584, Note_on_c, 4, 62, 96
8, 147764, Note_on_c, 4, 62, 0
8, 147764, Note_on_c, 4, 59, 0
8, 147764, Note_on_c, 4, 54, 0
8, 149120, Note_on_c, 4, 54, 93
8, 149120, Note_on_c, 4, 57, 104
8, 149120, Note_on_c, 4, 62, 85
8, 149300, Note_on_c, 4, 62, 0
8, 149300, Note_on_c, 4, 57, 0
8, 149300, Note_on_c, 4, 54, 0
8, 149888, Note_on_c, 4, 52, 105
8, 149888, Note_on_c, 4, 57, 106
8, 149888, Note_on_c, 4, 61, 91
8, 150068, Note_on_c, 4, 61, 0
8, 150068, Note_on_c, 4, 57, 0
8, 150068, Note_on_c, 4, 52, 0
8, 150656, Note_on_c, 4, 54, 98
8, 150656, Note_on_c, 4, 59, 95
8, 150656, Note_on_c, 4, 62, 96
8, 150836, Note_on_c, 4, 62, 0
8, 150836, Note_on_c, 4, 59, 0
8, 150836, Note_on_c, 4, 54, 0
8, 152192, Note_on_c, 4, 54, 93
8, 152192, Note_on_c, 4, 57, 104
8, 152192, Note_on_c, 4, 62, 85
8, 152372, Note_on_c, 4, 62, 0
8, 152372, Note_on_c, 4, 57, 0
8, 152372, Note_on_c, 4, 54, 0
8, 152960, Note_on_c, 4, 52, 105
8, 152960, Note_on_c, 4, 57, 106
8, 152960, Note_on_c, 4, 61, 91
8, 153140, Note_on_c, 4, 61, 0
8, 153140, Note_on_c, 4, 57, 0
8, 153140, Note_on_c, 4, 52, 0
8, 153728, Note_on_c, 4, 54, 98
8, 153728, Note_on_c, 4, 59, 95
8, 153728, Note_on_c, 4, 62, 96
8, 153908, Note_on_c, 4, 62, 0
8, 153908, Note_on_c, 4, 59, 0
8, 153908, Note_on_c, 4, 54, 0
8, 155264, Note_on_c, 4, 54, 93
8, 155264, Note_on_c, 4, 57, 104
8, 155264, Note_on_c, 4, 62, 85
8, 155444, Note_on_c, 4, 62, 0
8, 155444, Note_on_c, 4, 57, 0
8, 155444, Note_on_c, 4, 54, 0
8, 156032, Note_on_c, 4, 52, 105
8, 156032, Note_on_c, 4, 57, 106
8, 156032, Note_on_c, 4, 61, 91
8, 156212, Note_on_c, 4, 61, 0
8, 156212, Note_on_c, 4, 57, 0
8, 156212, Note_on_c, 4, 52, 0
8, 156800, Note_on_c, 4, 54, 98
8, 156800, Note_on_c, 4, 59, 95
8, 156800, Note_on_c, 4, 62, 96
8, 156980, Note_on_c, 4, 62, 0
8, 156980, Note_on_c, 4, 59, 0
8, 156980, Note_on_c, 4, 54, 0
8, 158336, Note_on_c, 4, 54, 93
8, 158336, Note_on_c, 4, 57, 104
8, 158336, Note_on_c, 4, 62, 85
8, 158516, Note_on_c, 4, 62, 0
8, 158516, Note_on_c, 4, 57, 0
8, 158516, Note_on_c, 4, 54, 0
8, 159104, Note_on_c, 4, 52, 105
8, 159104, Note_on_c, 4, 57, 106
8, 159104, Note_on_c, 4, 61, 91
8, 159284, Note_on_c, 4, 61, 0
8, 159284, Note_on_c, 4, 57, 0
8, 159284, Note_on_c, 4, 52, 0
8, 159872, Note_on_c, 4, 54, 98
8, 159872, Note_on_c, 4, 59, 95
8, 159872, Note_on_c, 4, 62, 96
8, 160052, Note_on_c, 4, 62, 0
8, 160052, Note_on_c, 4, 59, 0
8, 160052, Note_on_c, 4, 54, 0
8, 161408, Note_on_c, 4, 54, 93
8, 161408, Note_on_c, 4, 57, 104
8, 161408, Note_on_c, 4, 62, 85
8, 161588, Note_on_c, 4, 62, 0
8, 161588, Note_on_c, 4, 57, 0
8, 161588, Note_on_c, 4, 54, 0
8, 162176, Note_on_c, 4, 52, 105
8, 162176, Note_on_c, 4, 57, 106
8, 162176, Note_on_c, 4, 61, 91
8, 162356, Note_on_c, 4, 61, 0
8, 162356, Note_on_c, 4, 57, 0
8, 162356, Note_on_c, 4, 52, 0
8, 162944, Note_on_c, 4, 54, 90
8, 162944, Note_on_c, 4, 59, 90
8, 162944, Note_on_c, 4, 62, 85
8, 162996, Note_on_c, 4, 62, 0
8, 162996, Note_on_c, 4, 59, 0
8, 162996, Note_on_c, 4, 54, 0
8, 162996, End_track
9, 0, Start_track
9, 0, MIDI_port, 0
9, 0, Program_c, 5, 48
9, 0, Control_c, 5, 7, 97
9, 0, Control_c, 5, 10, 64
9, 0, Control_c, 5, 121, 0
9, 0, Control_c, 5, 91, 70
9, 0, Control_c, 5, 93, 0
9, 0, Note_on_c, 5, 54, 72
9, 0, Note_on_c, 5, 50, 82
9, 0, Note_on_c, 5, 59, 70
9, 0, Note_on_c, 5, 47, 76
9, 372, Note_on_c, 5, 47, 0
9, 380, Note_on_c, 5, 50, 0
9, 384, Note_on_c, 5, 71, 86
9, 384, Note_on_c, 5, 74, 89
9, 384, Note_on_c, 5, 66, 98
9, 384, Note_on_c, 5, 62, 84
9, 388, Note_on_c, 5, 54, 0
9, 396, Note_on_c, 5, 59, 0
9, 516, Note_on_c, 5, 66, 0
9, 516, Note_on_c, 5, 74, 0
9, 520, Note_on_c, 5, 62, 0
9, 532, Note_on_c, 5, 71, 0
9, 576, Note_on_c, 5, 66, 99
9, 576, Note_on_c, 5, 62, 85
9, 576, Note_on_c, 5, 71, 82
9, 576, Note_on_c, 5, 74, 91
9, 740, Note_on_c, 5, 74, 0
9, 740, Note_on_c, 5, 66, 0
9, 744, Note_on_c, 5, 71, 0
9, 748, Note_on_c, 5, 62, 0
9, 1536, Note_on_c, 5, 54, 76
9, 1536, Note_on_c, 5, 57, 80
9, 1536, Note_on_c, 5, 62, 73
9, 1536, Note_on_c, 5, 50, 81
9, 1920, Note_on_c, 5, 74, 86
9, 1920, Note_on_c, 5, 66, 88
9, 1920, Note_on_c, 5, 69, 98
9, 1936, Note_on_c, 5, 50, 0
9, 1944, Note_on_c, 5, 62, 0
9, 1948, Note_on_c, 5, 57, 0
9, 1952, Note_on_c, 5, 54, 0
9, 2048, Note_on_c, 5, 69, 0
9, 2048, Note_on_c, 5, 74, 0
9, 2052, Note_on_c, 5, 66, 0
9, 2112, Note_on_c, 5, 66, 88
9, 2112, Note_on_c, 5, 74, 89
9, 2112, Note_on_c, 5, 69, 97
9, 2240, Note_on_c, 5, 69, 0
9, 2252, Note_on_c, 5, 74, 0
9, 2252, Note_on_c, 5, 66, 0
9, 2304, Note_on_c, 5, 52, 64
9, 2304, Note_on_c, 5, 57, 80
9, 2304, Note_on_c, 5, 45, 69
9, 2304, Note_on_c, 5, 49, 84
9, 2684, Note_on_c, 5, 49, 0
9, 2688, Note_on_c, 5, 73, 88
9, 2688, Note_on_c, 5, 64, 87
9, 2688, Note_on_c, 5, 69, 101
9, 2692, Note_on_c, 5, 45, 0
9, 2696, Note_on_c, 5, 57, 0
9, 2700, Note_on_c, 5, 52, 0
9, 2820, Note_on_c, 5, 69, 0
9, 2824, Note_on_c, 5, 64, 0
9, 2836, Note_on_c, 5, 73, 0
9, 2880, Note_on_c, 5, 73, 88
9, 2880, Note_on_c, 5, 69, 99
9, 2880, Note_on_c, 5, 64, 86
9, 3008, Note_on_c, 5, 64, 0
9, 3016, Note_on_c, 5, 69, 0
9, 3016, Note_on_c, 5, 73, 0
9, 3072, Note_on_c, 5, 54, 72
9, 3072, Note_on_c, 5, 50, 82
9, 3072, Note_on_c, 5, 59, 70
9, 3072, Note_on_c, 5, 47, 76
9, 3444, Note_on_c, 5, 47, 0
9, 3452, Note_on_c, 5, 50, 0
9, 3456, Note_on_c, 5, 71, 86
9, 3456, Note_on_c, 5, 74, 89
9, 3456, Note_on_c, 5, 66, 98
9, 3456, Note_on_c, 5, 62, 84
9, 3460, Note_on_c, 5, 54, 0
9, 3468, Note_on_c, 5, 59, 0
9, 3588, Note_on_c, 5, 66, 0
9, 3588, Note_on_c, 5, 74, 0
9, 3592, Note_on_c, 5, 62, 0
9, 3604, Note_on_c, 5, 71, 0
9, 3648, Note_on_c, 5, 66, 99
9, 3648, Note_on_c, 5, 62, 85
9, 3648, Note_on_c, 5, 71, 82
9, 3648, Note_on_c, 5, 74, 91
9, 3812, Note_on_c, 5, 74, 0
9, 3812, Note_on_c, 5, 66, 0
9, 3816, Note_on_c, 5, 71, 0
9, 3820, Note_on_c, 5, 62, 0
9, 4608, Note_on_c, 5, 54, 76
9, 4608, Note_on_c, 5, 57, 80
9, 4608, Note_on_c, 5, 62, 73
9, 4608, Note_on_c, 5, 50, 81
9, 4992, Note_on_c, 5, 74, 86
9, 4992, Note_on_c, 5, 66, 88
9, 4992, Note_on_c, 5, 69, 98
9, 5008, Note_on_c, 5, 50, 0
9, 5016, Note_on_c, 5, 62, 0
9, 5020, Note_on_c, 5, 57, 0
9, 5024, Note_on_c, 5, 54, 0
9, 5120, Note_on_c, 5, 69, 0
9, 5120, Note_on_c, 5, 74, 0
9, 5124, Note_on_c, 5, 66, 0
9, 5184, Note_on_c, 5, 66, 88
9, 5184, Note_on_c, 5, 74, 89
9, 5184, Note_on_c, 5, 69, 97
9, 5312, Note_on_c, 5, 69, 0
9, 5324, Note_on_c, 5, 74, 0
9, 5324, Note_on_c, 5, 66, 0
9, 5376, Note_on_c, 5, 52, 64
9, 5376, Note_on_c, 5, 57, 80
9, 5376, Note_on_c, 5, 45, 69
9, 5376, Note_on_c, 5, 49, 84
9, 5756, Note_on_c, 5, 49, 0
9, 5760, Note_on_c, 5, 73, 88
9, 5760, Note_on_c, 5, 64, 87
9, 5760, Note_on_c, 5, 69, 101
9, 5764, Note_on_c, 5, 45, 0
9, 5768, Note_on_c, 5, 57, 0
9, 5772, Note_on_c, 5, 52, 0
9, 5892, Note_on_c, 5, 69, 0
9, 5896, Note_on_c, 5, 64, 0
9, 5908, Note_on_c, 5, 73, 0
9, 5952, Note_on_c, 5, 73, 88
9, 5952, Note_on_c, 5, 69, 99
9, 5952, Note_on_c, 5, 64, 86
9, 6080, Note_on_c, 5, 64, 0
9, 6088, Note_on_c, 5, 69, 0
9, 6088, Note_on_c, 5, 73, 0
9, 36864, Note_on_c, 5, 54, 72
9, 36864, Note_on_c, 5, 50, 82
9, 36864, Note_on_c, 5, 59, 70
9, 36864, Note_on_c, 5, 47, 76
9, 37236, Note_on_c, 5, 47, 0
9, 37244, Note_on_c, 5, 50, 0
9, 37248, Note_on_c, 5, 71, 86
9, 37248, Note_on_c, 5, 74, 89
9, 37248, Note_on_c, 5, 66, 98
9, 37248, Note_on_c, 5, 62, 84
9, 37252, Note_on_c, 5, 54, 0
9, 37260, Note_on_c, 5, 59, 0
9, 37380, Note_on_c, 5, 66, 0
9, 37380, Note_on_c, 5, 74, 0
9, 37384, Note_on_c, 5, 62, 0
9, 37396, Note_on_c, 5, 71, 0
9, 37440, Note_on_c, 5, 66, 99
9, 37440, Note_on_c, 5, 62, 85
9, 37440, Note_on_c, 5, 71, 82
9, 37440, Note_on_c, 5, 74, 91
9, 37604, Note_on_c, 5, 74, 0
9, 37604, Note_on_c, 5, 66, 0
9, 37608, Note_on_c, 5, 71, 0
9, 37612, Note_on_c, 5, 62, 0
9, 38400, Note_on_c, 5, 54, 76
9, 38400, Note_on_c, 5, 57, 80
9, 38400, Note_on_c, 5, 62, 73
9, 38400, Note_on_c, 5, 50, 81
9, 38784, Note_on_c, 5, 74, 86
9, 38784, Note_on_c, 5, 66, 88
9, 38784, Note_on_c, 5, 69, 98
9, 38800, Note_on_c, 5, 50, 0
9, 38808, Note_on_c, 5, 62, 0
9, 38812, Note_on_c, 5, 57, 0
9, 38816, Note_on_c, 5, 54, 0
9, 38912, Note_on_c, 5, 69, 0
9, 38912, Note_on_c, 5, 74, 0
9, 38916, Note_on_c, 5, 66, 0
9, 38976, Note_on_c, 5, 66, 88
9, 38976, Note_on_c, 5, 74, 89
9, 38976, Note_on_c, 5, 69, 97
9, 39104, Note_on_c, 5, 69, 0
9, 39116, Note_on_c, 5, 74, 0
9, 39116, Note_on_c, 5, 66, 0
9, 39168, Note_on_c, 5, 52, 64
9, 39168, Note_on_c, 5, 57, 80
9, 39168, Note_on_c, 5, 45, 69
9, 39168, Note_on_c, 5, 49, 84
9, 39548, Note_on_c, 5, 49, 0
9, 39552, Note_on_c, 5, 73, 88
9, 39552, Note_on_c, 5, 64, 87
9, 39552, Note_on_c, 5, 69, 101
9, 39556, Note_on_c, 5, 45, 0
9, 39560, Note_on_c, 5, 57, 0
9, 39564, Note_on_c, 5, 52, 0
9, 39684, Note_on_c, 5, 69, 0
9, 39688, Note_on_c, 5, 64, 0
9, 39700, Note_on_c, 5, 73, 0
9, 39744, Note_on_c, 5, 73, 88
9, 39744, Note_on_c, 5, 69, 99
9, 39744, Note_on_c, 5, 64, 86
9, 39872, Note_on_c, 5, 64, 0
9, 39880, Note_on_c, 5, 69, 0
9, 39880, Note_on_c, 5, 73, 0
9, 39936, Note_on_c, 5, 54, 72
9, 39936, Note_on_c, 5, 50, 82
9, 39936, Note_on_c, 5, 59, 70
9, 39936, Note_on_c, 5, 47, 76
9, 40308, Note_on_c, 5, 47, 0
9, 40316, Note_on_c, 5, 50, 0
9, 40320, Note_on_c, 5, 71, 86
9, 40320, Note_on_c, 5, 74, 89
9, 40320, Note_on_c, 5, 66, 98
9, 40320, Note_on_c, 5, 62, 84
9, 40324, Note_on_c, 5, 54, 0
9, 40332, Note_on_c, 5, 59, 0
9, 40452, Note_on_c, 5, 66, 0
9, 40452, Note_on_c, 5, 74, 0
9, 40456, Note_on_c, 5, 62, 0
9, 40468, Note_on_c, 5, 71, 0
9, 40512, Note_on_c, 5, 66, 99
9, 40512, Note_on_c, 5, 62, 85
9, 40512, Note_on_c, 5, 71, 82
9, 40512, Note_on_c, 5, 74, 91
9, 40676, Note_on_c, 5, 74, 0
9, 40676, Note_on_c, 5, 66, 0
9, 40680, Note_on_c, 5, 71, 0
9, 40684, Note_on_c, 5, 62, 0
9, 41472, Note_on_c, 5, 54, 76
9, 41472, Note_on_c, 5, 57, 80
9, 41472, Note_on_c, 5, 62, 73
9, 41472, Note_on_c, 5, 50, 81
9, 41856, Note_on_c, 5, 74, 86
9, 41856, Note_on_c, 5, 66, 88
9, 41856, Note_on_c, 5, 69, 98
9, 41872, Note_on_c, 5, 50, 0
9, 41880, Note_on_c, 5, 62, 0
9, 41884, Note_on_c, 5, 57, 0
9, 41888, Note_on_c, 5, 54, 0
9, 41984, Note_on_c, 5, 69, 0
9, 41984, Note_on_c, 5, 74, 0
9, 41988, Note_on_c, 5, 66, 0
9, 42048, Note_on_c, 5, 66, 88
9, 42048, Note_on_c, 5, 74, 89
9, 42048, Note_on_c, 5, 69, 97
9, 42176, Note_on_c, 5, 69, 0
9, 42188, Note_on_c, 5, 74, 0
9, 42188, Note_on_c, 5, 66, 0
9, 42240, Note_on_c, 5, 52, 64
9, 42240, Note_on_c, 5, 57, 80
9, 42240, Note_on_c, 5, 45, 69
9, 42240, Note_on_c, 5, 49, 84
9, 42620, Note_on_c, 5, 49, 0
9, 42624, Note_on_c, 5, 73, 88
9, 42624, Note_on_c, 5, 64, 87
9, 42624, Note_on_c, 5, 69, 101
9, 42628, Note_on_c, 5, 45, 0
9, 42632, Note_on_c, 5, 57, 0
9, 42636, Note_on_c, 5, 52, 0
9, 42756, Note_on_c, 5, 69, 0
9, 42760, Note_on_c, 5, 64, 0
9, 42772, Note_on_c, 5, 73, 0
9, 42816, Note_on_c, 5, 73, 88
9, 42816, Note_on_c, 5, 69, 99
9, 42816, Note_on_c, 5, 64, 86
9, 42944, Note_on_c, 5, 64, 0
9, 42952, Note_on_c, 5, 69, 0
9, 42952, Note_on_c, 5, 73, 0
9, 43008, Note_on_c, 5, 54, 72
9, 43008, Note_on_c, 5, 50, 82
9, 43008, Note_on_c, 5, 59, 70
9, 43008, Note_on_c, 5, 47, 76
9, 43380, Note_on_c, 5, 47, 0
9, 43388, Note_on_c, 5, 50, 0
9, 43392, Note_on_c, 5, 71, 86
9, 43392, Note_on_c, 5, 74, 89
9, 43392, Note_on_c, 5, 66, 98
9, 43392, Note_on_c, 5, 62, 84
9, 43396, Note_on_c, 5, 54, 0
9, 43404, Note_on_c, 5, 59, 0
9, 43524, Note_on_c, 5, 66, 0
9, 43524, Note_on_c, 5, 74, 0
9, 43528, Note_on_c, 5, 62, 0
9, 43540, Note_on_c, 5, 71, 0
9, 43584, Note_on_c, 5, 66, 99
9, 43584, Note_on_c, 5, 62, 85
9, 43584, Note_on_c, 5, 71, 82
9, 43584, Note_on_c, 5, 74, 91
9, 43748, Note_on_c, 5, 74, 0
9, 43748, Note_on_c, 5, 66, 0
9, 43752, Note_on_c, 5, 71, 0
9, 43756, Note_on_c, 5, 62, 0
9, 44544, Note_on_c, 5, 54, 76
9, 44544, Note_on_c, 5, 57, 80
9, 44544, Note_on_c, 5, 62, 73
9, 44544, Note_on_c, 5, 50, 81
9, 44928, Note_on_c, 5, 74, 86
9, 44928, Note_on_c, 5, 66, 88
9, 44928, Note_on_c, 5, 69, 98
9, 44944, Note_on_c, 5, 50, 0
9, 44952, Note_on_c, 5, 62, 0
9, 44956, Note_on_c, 5, 57, 0
9, 44960, Note_on_c, 5, 54, 0
9, 45056, Note_on_c, 5, 69, 0
9, 45056, Note_on_c, 5, 74, 0
9, 45060, Note_on_c, 5, 66, 0
9, 45120, Note_on_c, 5, 66, 88
9, 45120, Note_on_c, 5, 74, 89
9, 45120, Note_on_c, 5, 69, 97
9, 45248, Note_on_c, 5, 69, 0
9, 45260, Note_on_c, 5, 74, 0
9, 45260, Note_on_c, 5, 66, 0
9, 45312, Note_on_c, 5, 52, 64
9, 45312, Note_on_c, 5, 57, 80
9, 45312, Note_on_c, 5, 45, 69
9, 45312, Note_on_c, 5, 49, 84
9, 45692, Note_on_c, 5, 49, 0
9, 45696, Note_on_c, 5, 73, 88
9, 45696, Note_on_c, 5, 64, 87
9, 45696, Note_on_c, 5, 69, 101
9, 45700, Note_on_c, 5, 45, 0
9, 45704, Note_on_c, 5, 57, 0
9, 45708, Note_on_c, 5, 52, 0
9, 45828, Note_on_c, 5, 69, 0
9, 45832, Note_on_c, 5, 64, 0
9, 45844, Note_on_c, 5, 73, 0
9, 45888, Note_on_c, 5, 73, 88
9, 45888, Note_on_c, 5, 69, 99
9, 45888, Note_on_c, 5, 64, 86
9, 46016, Note_on_c, 5, 64, 0
9, 46024, Note_on_c, 5, 69, 0
9, 46024, Note_on_c, 5, 73, 0
9, 73728, Note_on_c, 5, 54, 72
9, 73728, Note_on_c, 5, 50, 82
9, 73728, Note_on_c, 5, 59, 70
9, 73728, Note_on_c, 5, 47, 76
9, 74100, Note_on_c, 5, 47, 0
9, 74108, Note_on_c, 5, 50, 0
9, 74112, Note_on_c, 5, 71, 86
9, 74112, Note_on_c, 5, 74, 89
9, 74112, Note_on_c, 5, 66, 98
9, 74112, Note_on_c, 5, 62, 84
9, 74116, Note_on_c, 5, 54, 0
9, 74124, Note_on_c, 5, 59, 0
9, 74244, Note_on_c, 5, 66, 0
9, 74244, Note_on_c, 5, 74, 0
9, 74248, Note_on_c, 5, 62, 0
9, 74260, Note_on_c, 5, 71, 0
9, 74304, Note_on_c, 5, 66, 99
9, 74304, Note_on_c, 5, 62, 85
9, 74304, Note_on_c, 5, 71, 82
9, 74304, Note_on_c, 5, 74, 91
9, 74468, Note_on_c, 5, 74, 0
9, 74468, Note_on_c, 5, 66, 0
9, 74472, Note_on_c, 5, 71, 0
9, 74476, Note_on_c, 5, 62, 0
9, 75264, Note_on_c, 5, 54, 76
9, 75264, Note_on_c, 5, 57, 80
9, 75264, Note_on_c, 5, 62, 73
9, 75264, Note_on_c, 5, 50, 81
9, 75648, Note_on_c, 5, 74, 86
9, 75648, Note_on_c, 5, 66, 88
9, 75648, Note_on_c, 5, 69, 98
9, 75664, Note_on_c, 5, 50, 0
9, 75672, Note_on_c, 5, 62, 0
9, 75676, Note_on_c, 5, 57, 0
9, 75680, Note_on_c, 5, 54, 0
9, 75776, Note_on_c, 5, 69, 0
9, 75776, Note_on_c, 5, 74, 0
9, 75780, Note_on_c, 5, 66, 0
9, 75840, Note_on_c, 5, 66, 88
9, 75840, Note_on_c, 5, 74, 89
9, 75840, Note_on_c, 5, 69, 97
9, 75968, Note_on_c, 5, 69, 0
9, 75980, Note_on_c, 5, 74, 0
9, 75980, Note_on_c, 5, 66, 0
9, 76032, Note_on_c, 5, 52, 64
9, 76032, Note_on_c, 5, 57, 80
9, 76032, Note_on_c, 5, 45, 69
9, 76032, Note_on_c, 5, 49, 84
9, 76412, Note_on_c, 5, 49, 0
9, 76416, Note_on_c, 5, 73, 88
9, 76416, Note_on_c, 5, 64, 87
9, 76416, Note_on_c, 5, 69, 101
9, 76420, Note_on_c, 5, 45, 0
9, 76424, Note_on_c, 5, 57, 0
9, 76428, Note_on_c, 5, 52, 0
9, 76548, Note_on_c, 5, 69, 0
9, 76552, Note_on_c, 5, 64, 0
9, 76564, Note_on_c, 5, 73, 0
9, 76608, Note_on_c, 5, 73, 88
9, 76608, Note_on_c, 5, 69, 99
9, 76608, Note_on_c, 5, 64, 86
9, 76736, Note_on_c, 5, 64, 0
9, 76744, Note_on_c, 5, 69, 0
9, 76744, Note_on_c, 5, 73, 0
9, 76800, Note_on_c, 5, 54, 72
9, 76800, Note_on_c, 5, 50, 82
9, 76800, Note_on_c, 5, 59, 70
9, 76800, Note_on_c, 5, 47, 76
9, 77172, Note_on_c, 5, 47, 0
9, 77180, Note_on_c, 5, 50, 0
9, 77184, Note_on_c, 5, 71, 86
9, 77184, Note_on_c, 5, 74, 89
9, 77184, Note_on_c, 5, 66, 98
9, 77184, Note_on_c, 5, 62, 84
9, 77188, Note_on_c, 5, 54, 0
9, 77196, Note_on_c, 5, 59, 0
9, 77316, Note_on_c, 5, 66, 0
9, 77316, Note_on_c, 5, 74, 0
9, 77320, Note_on_c, 5, 62, 0
9, 77332, Note_on_c, 5, 71, 0
9, 77376, Note_on_c, 5, 66, 99
9, 77376, Note_on_c, 5, 62, 85
9, 77376, Note_on_c, 5, 71, 82
9, 77376, Note_on_c, 5, 74, 91
9, 77540, Note_on_c, 5, 74, 0
9, 77540, Note_on_c, 5, 66, 0
9, 77544, Note_on_c, 5, 71, 0
9, 77548, Note_on_c, 5, 62, 0
9, 78336, Note_on_c, 5, 54, 76
9, 78336, Note_on_c, 5, 57, 80
9, 78336, Note_on_c, 5, 62, 73
9, 78336, Note_on_c, 5, 50, 81
9, 78720, Note_on_c, 5, 74, 86
9, 78720, Note_on_c, 5, 66, 88
9, 78720, Note_on_c, 5, 69, 98
9, 78736, Note_on_c, 5, 50, 0
9, 78744, Note_on_c, 5, 62, 0
9, 78748, Note_on_c, 5, 57, 0
9, 78752, Note_on_c, 5, 54, 0
9, 78848, Note_on_c, 5, 69, 0
9, 78848, Note_on_c, 5, 74, 0
9, 78852, Note_on_c, 5, 66, 0
9, 78912, Note_on_c, 5, 66, 88
9, 78912, Note_on_c, 5, 74, 89
9, 78912, Note_on_c, 5, 69, 97
9, 79040, Note_on_c, 5, 69, 0
9, 79052, Note_on_c, 5, 74, 0
9, 79052, Note_on_c, 5, 66, 0
9, 79104, Note_on_c, 5, 52, 64
9, 79104, Note_on_c, 5, 57, 80
9, 79104, Note_on_c, 5, 45, 69
9, 79104, Note_on_c, 5, 49, 84
9, 79484, Note_on_c, 5, 49, 0
9, 79488, Note_on_c, 5, 73, 88
9, 79488, Note_on_c, 5, 64, 87
9, 79488, Note_on_c, 5, 69, 101
9, 79492, Note_on_c, 5, 45, 0
9, 79496, Note_on_c, 5, 57, 0
9, 79500, Note_on_c, 5, 52, 0
9, 79620, Note_on_c, 5, 69, 0
9, 79624, Note_on_c, 5, 64, 0
9, 79636, Note_on_c, 5, 73, 0
9, 79680, Note_on_c, 5, 73, 88
9, 79680, Note_on_c, 5, 69, 99
9, 79680, Note_on_c, 5, 64, 86
9, 79808, Note_on_c, 5, 64, 0
9, 79816, Note_on_c, 5, 69, 0
9, 79816, Note_on_c, 5, 73, 0
9, 79872, Note_on_c, 5, 54, 72
9, 79872, Note_on_c, 5, 50, 82
9, 79872, Note_on_c, 5, 59, 70
9, 79872, Note_on_c, 5, 47, 76
9, 80244, Note_on_c, 5, 47, 0
9, 80252, Note_on_c, 5, 50, 0
9, 80256, Note_on_c, 5, 71, 86
9, 80256, Note_on_c, 5, 74, 89
9, 80256, Note_on_c, 5, 66, 98
9, 80256, Note_on_c, 5, 62, 84
9, 80260, Note_on_c, 5, 54, 0
9, 80268, Note_on_c, 5, 59, 0
9, 80388, Note_on_c, 5, 66, 0
9, 80388, Note_on_c, 5, 74, 0
9, 80392, Note_on_c, 5, 62, 0
9, 80404, Note_on_c, 5, 71, 0
9, 80448, Note_on_c, 5, 66, 99
9, 80448, Note_on_c, 5, 62, 85
9, 80448, Note_on_c, 5, 71, 82
9, 80448, Note_on_c, 5, 74, 91
9, 80612, Note_on_c, 5, 74, 0
9, 80612, Note_on_c, 5, 66, 0
9, 80616, Note_on_c, 5, 71, 0
9, 80620, Note_on_c, 5, 62, 0
9, 81408, Note_on_c, 5, 54, 76
9, 81408, Note_on_c, 5, 57, 80
9, 81408, Note_on_c, 5, 62, 73
9, 81408, Note_on_c, 5, 50, 81
9, 81792, Note_on_c, 5, 74, 86
9, 81792, Note_on_c, 5, 66, 88
9, 81792, Note_on_c, 5, 69, 98
9, 81808, Note_on_c, 5, 50, 0
9, 81816, Note_on_c, 5, 62, 0
9, 81820, Note_on_c, 5, 57, 0
9, 81824, Note_on_c, 5, 54, 0
9, 81920, Note_on_c, 5, 69, 0
9, 81920, Note_on_c, 5, 74, 0
9, 81924, Note_on_c, 5, 66, 0
9, 81984, Note_on_c, 5, 66, 88
9, 81984, Note_on_c, 5, 74, 89
9, 81984, Note_on_c, 5, 69, 97
9, 82112, Note_on_c, 5, 69, 0
9, 82124, Note_on_c, 5, 74, 0
9, 82124, Note_on_c, 5, 66, 0
9, 82176, Note_on_c, 5, 52, 64
9, 82176, Note_on_c, 5, 57, 80
9, 82176, Note_on_c, 5, 45, 69
9, 82176, Note_on_c, 5, 49, 84
9, 82556, Note_on_c, 5, 49, 0
9, 82560, Note_on_c, 5, 73, 88
9, 82560, Note_on_c, 5, 64, 87
9, 82560, Note_on_c, 5, 69, 101
9, 82564, Note_on_c, 5, 45, 0
9, 82568, Note_on_c, 5, 57, 0
9, 82572, Note_on_c, 5, 52, 0
9, 82692, Note_on_c, 5, 69, 0
9, 82696, Note_on_c, 5, 64, 0
9, 82708, Note_on_c, 5, 73, 0
9, 82752, Note_on_c, 5, 73, 88
9, 82752, Note_on_c, 5, 69, 99
9, 82752, Note_on_c, 5, 64, 86
9, 82880, Note_on_c, 5, 64, 0
9, 82888, Note_on_c, 5, 69, 0
9, 82888, Note_on_c, 5, 73, 0
9, 82944, Note_on_c, 5, 54, 72
9, 82944, Note_on_c, 5, 50, 82
9, 82944, Note_on_c, 5, 59, 70
9, 82944, Note_on_c, 5, 47, 76
9, 83316, Note_on_c, 5, 47, 0
9, 83324, Note_on_c, 5, 50, 0
9, 83328, Note_on_c, 5, 71, 86
9, 83328, Note_on_c, 5, 74, 89
9, 83328, Note_on_c, 5, 66, 98
9, 83328, Note_on_c, 5, 62, 84
9, 83332, Note_on_c, 5, 54, 0
9, 83340, Note_on_c, 5, 59, 0
9, 83460, Note_on_c, 5, 66, 0
9, 83460, Note_on_c, 5, 74, 0
9, 83464, Note_on_c, 5, 62, 0
9, 83476, Note_on_c, 5, 71, 0
9, 83520, Note_on_c, 5, 66, 99
9, 83520, Note_on_c, 5, 62, 85
9, 83520, Note_on_c, 5, 71, 82
9, 83520, Note_on_c, 5, 74, 91
9, 83684, Note_on_c, 5, 74, 0
9, 83684, Note_on_c, 5, 66, 0
9, 83688, Note_on_c, 5, 71, 0
9, 83692, Note_on_c, 5, 62, 0
9, 84480, Note_on_c, 5, 54, 76
9, 84480, Note_on_c, 5, 57, 80
9, 84480, Note_on_c, 5, 62, 73
9, 84480, Note_on_c, 5, 50, 81
9, 84864, Note_on_c, 5, 74, 86
9, 84864, Note_on_c, 5, 66, 88
9, 84864, Note_on_c, 5, 69, 98
9, 84880, Note_on_c, 5, 50, 0
9, 84888, Note_on_c, 5, 62, 0
9, 84892, Note_on_c, 5, 57, 0
9, 84896, Note_on_c, 5, 54, 0
9, 84992, Note_on_c, 5, 69, 0
9, 84992, Note_on_c, 5, 74, 0
9, 84996, Note_on_c, 5, 66, 0
9, 85056, Note_on_c, 5, 66, 88
9, 85056, Note_on_c, 5, 74, 89
9, 85056, Note_on_c, 5, 69, 97
9, 85184, Note_on_c, 5, 69, 0
9, 85196, Note_on_c, 5, 74, 0
9, 85196, Note_on_c, 5, 66, 0
9, 85248, Note_on_c, 5, 52, 64
9, 85248, Note_on_c, 5, 57, 80
9, 85248, Note_on_c, 5, 45, 69
9, 85248, Note_on_c, 5, 49, 84
9, 85628, Note_on_c, 5, 49, 0
9, 85632, Note_on_c, 5, 73, 88
9, 85632, Note_on_c, 5, 64, 87
9, 85632, Note_on_c, 5, 69, 101
9, 85636, Note_on_c, 5, 45, 0
9, 85640, Note_on_c, 5, 57, 0
9, 85644, Note_on_c, 5, 52, 0
9, 85764, Note_on_c, 5, 69, 0
9, 85768, Note_on_c, 5, 64, 0
9, 85780, Note_on_c, 5, 73, 0
9, 85824, Note_on_c, 5, 73, 88
9, 85824, Note_on_c, 5, 69, 99
9, 85824, Note_on_c, 5, 64, 86
9, 85952, Note_on_c, 5, 64, 0
9, 85960, Note_on_c, 5, 69, 0
9, 85960, Note_on_c, 5, 73, 0
9, 125952, Note_on_c, 5, 54, 72
9, 125952, Note_on_c, 5, 50, 82
9, 125952, Note_on_c, 5, 59, 70
9, 125952, Note_on_c, 5, 47, 76
9, 126324, Note_on_c, 5, 47, 0
9, 126332, Note_on_c, 5, 50, 0
9, 126336, Note_on_c, 5, 71, 86
9, 126336, Note_on_c, 5, 74, 89
9, 126336, Note_on_c, 5, 66, 98
9, 126336, Note_on_c, 5, 62, 84
9, 126340, Note_on_c, 5, 54, 0
9, 126348, Note_on_c, 5, 59, 0
9, 126468, Note_on_c, 5, 66, 0
9, 126468, Note_on_c, 5, 74, 0
9, 126472, Note_on_c, 5, 62, 0
9, 126484, Note_on_c, 5, 71, 0
9, 126528, Note_on_c, 5, 66, 99
9, 126528, Note_on_c, 5, 62, 85
9, 126528, Note_on_c, 5, 71, 82
9, 126528, Note_on_c, 5, 74, 91
9, 126692, Note_on_c, 5, 74, 0
9, 126692, Note_on_c, 5, 66, 0
9, 126696, Note_on_c, 5, 71, 0
9, 126700, Note_on_c, 5, 62, 0
9, 127488, Note_on_c, 5, 54, 76
9, 127488, Note_on_c, 5, 57, 80
9, 127488, Note_on_c, 5, 62, 73
9, 127488, Note_on_c, 5, 50, 81
9, 127872, Note_on_c, 5, 74, 86
9, 127872, Note_on_c, 5, 66, 88
9, 127872, Note_on_c, 5, 69, 98
9, 127888, Note_on_c, 5, 50, 0
9, 127896, Note_on_c, 5, 62, 0
9, 127900, Note_on_c, 5, 57, 0
9, 127904, Note_on_c, 5, 54, 0
9, 128000, Note_on_c, 5, 69, 0
9, 128000, Note_on_c, 5, 74, 0
9, 128004, Note_on_c, 5, 66, 0
9, 128064, Note_on_c, 5, 66, 88
9, 128064, Note_on_c, 5, 74, 89
9, 128064, Note_on_c, 5, 69, 97
9, 128192, Note_on_c, 5, 69, 0
9, 128204, Note_on_c, 5, 74, 0
9, 128204, Note_on_c, 5, 66, 0
9, 128256, Note_on_c, 5, 52, 64
9, 128256, Note_on_c, 5, 57, 80
9, 128256, Note_on_c, 5, 45, 69
9, 128256, Note_on_c, 5, 49, 84
9, 128636, Note_on_c, 5, 49, 0
9, 128640, Note_on_c, 5, 73, 88
9, 128640, Note_on_c, 5, 64, 87
9, 128640, Note_on_c, 5, 69, 101
9, 128644, Note_on_c, 5, 45, 0
9, 128648, Note_on_c, 5, 57, 0
9, 128652, Note_on_c, 5, 52, 0
9, 128772, Note_on_c, 5, 69, 0
9, 128776, Note_on_c, 5, 64, 0
9, 128788, Note_on_c, 5, 73, 0
9, 128832, Note_on_c, 5, 73, 88
9, 128832, Note_on_c, 5, 69, 99
9, 128832, Note_on_c, 5, 64, 86
9, 128960, Note_on_c, 5, 64, 0
9, 128968, Note_on_c, 5, 69, 0
9, 128968, Note_on_c, 5, 73, 0
9, 129024, Note_on_c, 5, 54, 72
9, 129024, Note_on_c, 5, 50, 82
9, 129024, Note_on_c, 5, 59, 70
9, 129024, Note_on_c, 5, 47, 76
9, 129396, Note_on_c, 5, 47, 0
9, 129404, Note_on_c, 5, 50, 0
9, 129408, Note_on_c, 5, 71, 86
9, 129408, Note_on_c, 5, 74, 89
9, 129408, Note_on_c, 5, 66, 98
9, 129408, Note_on_c, 5, 62, 84
9, 129412, Note_on_c, 5, 54, 0
9, 129420, Note_on_c, 5, 59, 0
9, 129540, Note_on_c, 5, 66, 0
9, 129540, Note_on_c, 5, 74, 0
9, 129544, Note_on_c, 5, 62, 0
9, 129556, Note_on_c, 5, 71, 0
9, 129600, Note_on_c, 5, 66, 99
9, 129600, Note_on_c, 5, 62, 85
9, 129600, Note_on_c, 5, 71, 82
9, 129600, Note_on_c, 5, 74, 91
9, 129764, Note_on_c, 5, 74, 0
9, 129764, Note_on_c, 5, 66, 0
9, 129768, Note_on_c, 5, 71, 0
9, 129772, Note_on_c, 5, 62, 0
9, 130560, Note_on_c, 5, 54, 76
9, 130560, Note_on_c, 5, 57, 80
9, 130560, Note_on_c, 5, 62, 73
9, 130560, Note_on_c, 5, 50, 81
9, 130944, Note_on_c, 5, 74, 86
9, 130944, Note_on_c, 5, 66, 88
9, 130944, Note_on_c, 5, 69, 98
9, 130960, Note_on_c, 5, 50, 0
9, 130968, Note_on_c, 5, 62, 0
9, 130972, Note_on_c, 5, 57, 0
9, 130976, Note_on_c, 5, 54, 0
9, 131072, Note_on_c, 5, 69, 0
9, 131072, Note_on_c, 5, 74, 0
9, 131076, Note_on_c, 5, 66, 0
9, 131136, Note_on_c, 5, 66, 88
9, 131136, Note_on_c, 5, 74, 89
9, 131136, Note_on_c, 5, 69, 97
9, 131264, Note_on_c, 5, 69, 0
9, 131276, Note_on_c, 5, 74, 0
9, 131276, Note_on_c, 5, 66, 0
9, 131328, Note_on_c, 5, 52, 64
9, 131328, Note_on_c, 5, 57, 80
9, 131328, Note_on_c, 5, 45, 69
9, 131328, Note_on_c, 5, 49, 84
9, 131708, Note_on_c, 5, 49, 0
9, 131712, Note_on_c, 5, 73, 88
9, 131712, Note_on_c, 5, 64, 87
9, 131712, Note_on_c, 5, 69, 101
9, 131716, Note_on_c, 5, 45, 0
9, 131720, Note_on_c, 5, 57, 0
9, 131724, Note_on_c, 5, 52, 0
9, 131844, Note_on_c, 5, 69, 0
9, 131848, Note_on_c, 5, 64, 0
9, 131860, Note_on_c, 5, 73, 0
9, 131904, Note_on_c, 5, 73, 88
9, 131904, Note_on_c, 5, 69, 99
9, 131904, Note_on_c, 5, 64, 86
9, 132032, Note_on_c, 5, 64, 0
9, 132040, Note_on_c, 5, 69, 0
9, 132040, Note_on_c, 5, 73, 0
9, 132096, Note_on_c, 5, 54, 72
9, 132096, Note_on_c, 5, 50, 82
9, 132096, Note_on_c, 5, 59, 70
9, 132096, Note_on_c, 5, 47, 76
9, 132468, Note_on_c, 5, 47, 0
9, 132476, Note_on_c, 5, 50, 0
9, 132480, Note_on_c, 5, 71, 86
9, 132480, Note_on_c, 5, 74, 89
9, 132480, Note_on_c, 5, 66, 98
9, 132480, Note_on_c, 5, 62, 84
9, 132484, Note_on_c, 5, 54, 0
9, 132492, Note_on_c, 5, 59, 0
9, 132612, Note_on_c, 5, 66, 0
9, 132612, Note_on_c, 5, 74, 0
9, 132616, Note_on_c, 5, 62, 0
9, 132628, Note_on_c, 5, 71, 0
9, 132672, Note_on_c, 5, 66, 99
9, 132672, Note_on_c, 5, 62, 85
9, 132672, Note_on_c, 5, 71, 82
9, 132672, Note_on_c, 5, 74, 91
9, 132836, Note_on_c, 5, 74, 0
9, 132836, Note_on_c, 5, 66, 0
9, 132840, Note_on_c, 5, 71, 0
9, 132844, Note_on_c, 5, 62, 0
9, 133632, Note_on_c, 5, 54, 76
9, 133632, Note_on_c, 5, 57, 80
9, 133632, Note_on_c, 5, 62, 73
9, 133632, Note_on_c, 5, 50, 81
9, 134016, Note_on_c, 5, 74, 86
9, 134016, Note_on_c, 5, 66, 88
9, 134016, Note_on_c, 5, 69, 98
9, 134032, Note_on_c, 5, 50, 0
9, 134040, Note_on_c, 5, 62, 0
9, 134044, Note_on_c, 5, 57, 0
9, 134048, Note_on_c, 5, 54, 0
9, 134144, Note_on_c, 5, 69, 0
9, 134144, Note_on_c, 5, 74, 0
9, 134148, Note_on_c, 5, 66, 0
9, 134208, Note_on_c, 5, 66, 88
9, 134208, Note_on_c, 5, 74, 89
9, 134208, Note_on_c, 5, 69, 97
9, 134336, Note_on_c, 5, 69, 0
9, 134348, Note_on_c, 5, 74, 0
9, 134348, Note_on_c, 5, 66, 0
9, 134400, Note_on_c, 5, 52, 64
9, 134400, Note_on_c, 5, 57, 80
9, 134400, Note_on_c, 5, 45, 69
9, 134400, Note_on_c, 5, 49, 84
9, 134780, Note_on_c, 5, 49, 0
9, 134784, Note_on_c, 5, 73, 88
9, 134784, Note_on_c, 5, 64, 87
9, 134784, Note_on_c, 5, 69, 101
9, 134788, Note_on_c, 5, 45, 0
9, 134792, Note_on_c, 5, 57, 0
9, 134796, Note_on_c, 5, 52, 0
9, 134916, Note_on_c, 5, 69, 0
9, 134920, Note_on_c, 5, 64, 0
9, 134932, Note_on_c, 5, 73, 0
9, 134976, Note_on_c, 5, 73, 88
9, 134976, Note_on_c, 5, 69, 99
9, 134976, Note_on_c, 5, 64, 86
9, 135104, Note_on_c, 5, 64, 0
9, 135112, Note_on_c, 5, 69, 0
9, 135112, Note_on_c, 5, 73, 0
9, 135168, Note_on_c, 5, 54, 72
9, 135168, Note_on_c, 5, 50, 82
9, 135168, Note_on_c, 5, 59, 70
9, 135168, Note_on_c, 5, 47, 76
9, 135540, Note_on_c, 5, 47, 0
9, 135548, Note_on_c, 5, 50, 0
9, 135552, Note_on_c, 5, 71, 86
9, 135552, Note_on_c, 5, 74, 89
9, 135552, Note_on_c, 5, 66, 98
9, 135552, Note_on_c, 5, 62, 84
9, 135556, Note_on_c, 5, 54, 0
9, 135564, Note_on_c, 5, 59, 0
9, 135684, Note_on_c, 5, 66, 0
9, 135684, Note_on_c, 5, 74, 0
9, 135688, Note_on_c, 5, 62, 0
9, 135700, Note_on_c, 5, 71, 0
9, 135744, Note_on_c, 5, 66, 99
9, 135744, Note_on_c, 5, 62, 85
9, 135744, Note_on_c, 5, 71, 82
9, 135744, Note_on_c, 5, 74, 91
9, 135908, Note_on_c, 5, 74, 0
9, 135908, Note_on_c, 5, 66, 0
9, 135912, Note_on_c, 5, 71, 0
9, 135916, Note_on_c, 5, 62, 0
9, 136704, Note_on_c, 5, 54, 76
9, 136704, Note_on_c, 5, 57, 80
9, 136704, Note_on_c, 5, 62, 73
9, 136704, Note_on_c, 5, 50, 81
9, 137088, Note_on_c, 5, 74, 86
9, 137088, Note_on_c, 5, 66, 88
9, 137088, Note_on_c, 5, 69, 98
9, 137104, Note_on_c, 5, 50, 0
9, 137112, Note_on_c, 5, 62, 0
9, 137116, Note_on_c, 5, 57, 0
9, 137120, Note_on_c, 5, 54, 0
9, 137216, Note_on_c, 5, 69, 0
9, 137216, Note_on_c, 5, 74, 0
9, 137220, Note_on_c, 5, 66, 0
9, 137280, Note_on_c, 5, 66, 88
9, 137280, Note_on_c, 5, 74, 89
9, 137280, Note_on_c, 5, 69, 97
9, 137408, Note_on_c, 5, 69, 0
9, 137420, Note_on_c, 5, 74, 0
9, 137420, Note_on_c, 5, 66, 0
9, 137472, Note_on_c, 5, 52, 64
9, 137472, Note_on_c, 5, 57, 80
9, 137472, Note_on_c, 5, 45, 69
9, 137472, Note_on_c, 5, 49, 84
9, 137852, Note_on_c, 5, 49, 0
9, 137856, Note_on_c, 5, 73, 88
9, 137856, Note_on_c, 5, 64, 87
9, 137856, Note_on_c, 5, 69, 101
9, 137860, Note_on_c, 5, 45, 0
9, 137864, Note_on_c, 5, 57, 0
9, 137868, Note_on_c, 5, 52, 0
9, 137988, Note_on_c, 5, 69, 0
9, 137992, Note_on_c, 5, 64, 0
9, 138004, Note_on_c, 5, 73, 0
9, 138048, Note_on_c, 5, 73, 88
9, 138048, Note_on_c, 5, 69, 99
9, 138048, Note_on_c, 5, 64, 86
9, 138176, Note_on_c, 5, 64, 0
9, 138184, Note_on_c, 5, 69, 0
9, 138184, Note_on_c, 5, 73, 0
9, 138240, Note_on_c, 5, 54, 72
9, 138240, Note_on_c, 5, 50, 82
9, 138240, Note_on_c, 5, 59, 70
9, 138240, Note_on_c, 5, 47, 76
9, 138612, Note_on_c, 5, 47, 0
9, 138620, Note_on_c, 5, 50, 0
9, 138624, Note_on_c, 5, 71, 86
9, 138624, Note_on_c, 5, 74, 89
9, 138624, Note_on_c, 5, 66, 98
9, 138624, Note_on_c, 5, 62, 84
9, 138628, Note_on_c, 5, 54, 0
9, 138636, Note_on_c, 5, 59, 0
9, 138756, Note_on_c, 5, 66, 0
9, 138756, Note_on_c, 5, 74, 0
9, 138760, Note_on_c, 5, 62, 0
9, 138772, Note_on_c, 5, 71, 0
9, 138816, Note_on_c, 5, 66, 99
9, 138816, Note_on_c, 5, 62, 85
9, 138816, Note_on_c, 5, 71, 82
9, 138816, Note_on_c, 5, 74, 91
9, 138980, Note_on_c, 5, 74, 0
9, 138980, Note_on_c, 5, 66, 0
9, 138984, Note_on_c, 5, 71, 0
9, 138988, Note_on_c, 5, 62, 0
9, 139776, Note_on_c, 5, 54, 76
9, 139776, Note_on_c, 5, 57, 80
9, 139776, Note_on_c, 5, 62, 73
9, 139776, Note_on_c, 5, 50, 81
9, 140160, Note_on_c, 5, 74, 86
9, 140160, Note_on_c, 5, 66, 88
9, 140160, Note_on_c, 5, 69, 98
9, 140176, Note_on_c, 5, 50, 0
9, 140184, Note_on_c, 5, 62, 0
9, 140188, Note_on_c, 5, 57, 0
9, 140192, Note_on_c, 5, 54, 0
9, 140288, Note_on_c, 5, 69, 0
9, 140288, Note_on_c, 5, 74, 0
9, 140292, Note_on_c, 5, 66, 0
9, 140352, Note_on_c, 5, 66, 88
9, 140352, Note_on_c, 5, 74, 89
9, 140352, Note_on_c, 5, 69, 97
9, 140480, Note_on_c, 5, 69, 0
9, 140492, Note_on_c, 5, 74, 0
9, 140492, Note_on_c, 5, 66, 0
9, 140544, Note_on_c, 5, 52, 64
9, 140544, Note_on_c, 5, 57, 80
9, 140544, Note_on_c, 5, 45, 69
9, 140544, Note_on_c, 5, 49, 84
9, 140924, Note_on_c, 5, 49, 0
9, 140928, Note_on_c, 5, 73, 88
9, 140928, Note_on_c, 5, 64, 87
9, 140928, Note_on_c, 5, 69, 101
9, 140932, Note_on_c, 5, 45, 0
9, 140936, Note_on_c, 5, 57, 0
9, 140940, Note_on_c, 5, 52, 0
9, 141060, Note_on_c, 5, 69, 0
9, 141064, Note_on_c, 5, 64, 0
9, 141076, Note_on_c, 5, 73, 0
9, 141120, Note_on_c, 5, 73, 88
9, 141120, Note_on_c, 5, 69, 99
9, 141120, Note_on_c, 5, 64, 86
9, 141248, Note_on_c, 5, 64, 0
9, 141256, Note_on_c, 5, 69, 0
9, 141256, Note_on_c, 5, 73, 0
9, 141312, Note_on_c, 5, 54, 72
9, 141312, Note_on_c, 5, 50, 82
9, 141312, Note_on_c, 5, 59, 70
9, 141312, Note_on_c, 5, 47, 76
9, 141684, Note_on_c, 5, 47, 0
9, 141692, Note_on_c, 5, 50, 0
9, 141696, Note_on_c, 5, 71, 86
9, 141696, Note_on_c, 5, 74, 89
9, 141696, Note_on_c, 5, 66, 98
9, 141696, Note_on_c, 5, 62, 84
9, 141700, Note_on_c, 5, 54, 0
9, 141708, Note_on_c, 5, 59, 0
9, 141828, Note_on_c, 5, 66, 0
9, 141828, Note_on_c, 5, 74, 0
9, 141832, Note_on_c, 5, 62, 0
9, 141844, Note_on_c, 5, 71, 0
9, 141888, Note_on_c, 5, 66, 99
9, 141888, Note_on_c, 5, 62, 85
9, 141888, Note_on_c, 5, 71, 82
9, 141888, Note_on_c, 5, 74, 91
9, 142052, Note_on_c, 5, 74, 0
9, 142052, Note_on_c, 5, 66, 0
9, 142056, Note_on_c, 5, 71, 0
9, 142060, Note_on_c, 5, 62, 0
9, 142848, Note_on_c, 5, 54, 76
9, 142848, Note_on_c, 5, 57, 80
9, 142848, Note_on_c, 5, 62, 73
9, 142848, Note_on_c, 5, 50, 81
9, 143232, Note_on_c, 5, 74, 86
9, 143232, Note_on_c, 5, 66, 88
9, 143232, Note_on_c, 5, 69, 98
9, 143248, Note_on_c, 5, 50, 0
9, 143256, Note_on_c, 5, 62, 0
9, 143260, Note_on_c, 5, 57, 0
9, 143264, Note_on_c, 5, 54, 0
9, 143360, Note_on_c, 5, 69, 0
9, 143360, Note_on_c, 5, 74, 0
9, 143364, Note_on_c, 5, 66, 0
9, 143424, Note_on_c, 5, 66, 88
9, 143424, Note_on_c, 5, 74, 89
9, 143424, Note_on_c, 5, 69, 97
9, 143552, Note_on_c, 5, 69, 0
9, 143564, Note_on_c, 5, 74, 0
9, 143564, Note_on_c, 5, 66, 0
9, 143616, Note_on_c, 5, 52, 64
9, 143616, Note_on_c, 5, 57, 80
9, 143616, Note_on_c, 5, 45, 69
9, 143616, Note_on_c, 5, 49, 84
9, 143996, Note_on_c, 5, 49, 0
9, 144000, Note_on_c, 5, 73, 88
9, 144000, Note_on_c, 5, 64, 87
9, 144000, Note_on_c, 5, 69, 101
9, 144004, Note_on_c, 5, 45, 0
9, 144008, Note_on_c, 5, 57, 0
9, 144012, Note_on_c, 5, 52, 0
9, 144132, Note_on_c, 5, 69, 0
9, 144136, Note_on_c, 5, 64, 0
9, 144148, Note_on_c, 5, 73, 0
9, 144192, Note_on_c, 5, 73, 88
9, 144192, Note_on_c, 5, 69, 99
9, 144192, Note_on_c, 5, 64, 86
9, 144320, Note_on_c, 5, 64, 0
9, 144328, Note_on_c, 5, 69, 0
9, 144328, Note_on_c, 5, 73, 0
9, 144384, Note_on_c, 5, 54, 72
9, 144384, Note_on_c, 5, 50, 82
9, 144384, Note_on_c, 5, 59, 70
9, 144384, Note_on_c, 5, 47, 76
9, 144756, Note_on_c, 5, 47, 0
9, 144764, Note_on_c, 5, 50, 0
9, 144768, Note_on_c, 5, 71, 86
9, 144768, Note_on_c, 5, 74, 89
9, 144768, Note_on_c, 5, 66, 98
9, 144768, Note_on_c, 5, 62, 84
9, 144772, Note_on_c, 5, 54, 0
9, 144780, Note_on_c, 5, 59, 0
9, 144900, Note_on_c, 5, 66, 0
9, 144900, Note_on_c, 5, 74, 0
9, 144904, Note_on_c, 5, 62, 0
9, 144916, Note_on_c, 5, 71, 0
9, 144960, Note_on_c, 5, 66, 99
9, 144960, Note_on_c, 5, 62, 85
9, 144960, Note_on_c, 5, 71, 82
9, 144960, Note_on_c, 5, 74, 91
9, 145124, Note_on_c, 5, 74, 0
9, 145124, Note_on_c, 5, 66, 0
9, 145128, Note_on_c, 5, 71, 0
9, 145132, Note_on_c, 5, 62, 0
9, 145920, Note_on_c, 5, 54, 76
9, 145920, Note_on_c, 5, 57, 80
9, 145920, Note_on_c, 5, 62, 73
9, 145920, Note_on_c, 5, 50, 81
9, 146304, Note_on_c, 5, 74, 86
9, 146304, Note_on_c, 5, 66, 88
9, 146304, Note_on_c, 5, 69, 98
9, 146320, Note_on_c, 5, 50, 0
9, 146328, Note_on_c, 5, 62, 0
9, 146332, Note_on_c, 5, 57, 0
9, 146336, Note_on_c, 5, 54, 0
9, 146432, Note_on_c, 5, 69, 0
9, 146432, Note_on_c, 5, 74, 0
9, 146436, Note_on_c, 5, 66, 0
9, 146496, Note_on_c, 5, 66, 88
9, 146496, Note_on_c, 5, 74, 89
9, 146496, Note_on_c, 5, 69, 97
9, 146624, Note_on_c, 5, 69, 0
9, 146636, Note_on_c, 5, 74, 0
9, 146636, Note_on_c, 5, 66, 0
9, 146688, Note_on_c, 5, 52, 64
9, 146688, Note_on_c, 5, 57, 80
9, 146688, Note_on_c, 5, 45, 69
9, 146688, Note_on_c, 5, 49, 84
9, 147068, Note_on_c, 5, 49, 0
9, 147072, Note_on_c, 5, 73, 88
9, 147072, Note_on_c, 5, 64, 87
9, 147072, Note_on_c, 5, 69, 101
9, 147076, Note_on_c, 5, 45, 0
9, 147080, Note_on_c, 5, 57, 0
9, 147084, Note_on_c, 5, 52, 0
9, 147204, Note_on_c, 5, 69, 0
9, 147208, Note_on_c, 5, 64, 0
9, 147220, Note_on_c, 5, 73, 0
9, 147264, Note_on_c, 5, 73, 88
9, 147264, Note_on_c, 5, 69, 99
9, 147264, Note_on_c, 5, 64, 86
9, 147392, Note_on_c, 5, 64, 0
9, 147400, Note_on_c, 5, 69, 0
9, 147400, Note_on_c, 5, 73, 0
9, 147456, Note_on_c, 5, 54, 72
9, 147456, Note_on_c, 5, 50, 82
9, 147456, Note_on_c, 5, 59, 70
9, 147456, Note_on_c, 5, 47, 76
9, 147828, Note_on_c, 5, 47, 0
9, 147836, Note_on_c, 5, 50, 0
9, 147840, Note_on_c, 5, 71, 86
9, 147840, Note_on_c, 5, 74, 89
9, 147840, Note_on_c, 5, 66, 98
9, 147840, Note_on_c, 5, 62, 84
9, 147844, Note_on_c, 5, 54, 0
9, 147852, Note_on_c, 5, 59, 0
9, 147972, Note_on_c, 5, 66, 0
9, 147972, Note_on_c, 5, 74, 0
9, 147976, Note_on_c, 5, 62, 0
9, 147988, Note_on_c, 5, 71, 0
9, 148032, Note_on_c, 5, 66, 99
9, 148032, Note_on_c, 5, 62, 85
9, 148032, Note_on_c, 5, 71, 82
9, 148032, Note_on_c, 5, 74, 91
9, 148196, Note_on_c, 5, 74, 0
9, 148196, Note_on_c, 5, 66, 0
9, 148200, Note_on_c, 5, 71, 0
9, 148204, Note_on_c, 5, 62, 0
9, 148992, Note_on_c, 5, 54, 76
9, 148992, Note_on_c, 5, 57, 80
9, 148992, Note_on_c, 5, 62, 73
9, 148992, Note_on_c, 5, 50, 81
9, 149376, Note_on_c, 5, 74, 86
9, 149376, Note_on_c, 5, 66, 88
9, 149376, Note_on_c, 5, 69, 98
9, 149392, Note_on_c, 5, 50, 0
9, 149400, Note_on_c, 5, 62, 0
9, 149404, Note_on_c, 5, 57, 0
9, 149408, Note_on_c, 5, 54, 0
9, 149504, Note_on_c, 5, 69, 0
9, 149504, Note_on_c, 5, 74, 0
9, 149508, Note_on_c, 5, 66, 0
9, 149568, Note_on_c, 5, 66, 88
9, 149568, Note_on_c, 5, 74, 89
9, 149568, Note_on_c, 5, 69, 97
9, 149696, Note_on_c, 5, 69, 0
9, 149708, Note_on_c, 5, 74, 0
9, 149708, Note_on_c, 5, 66, 0
9, 149760, Note_on_c, 5, 52, 64
9, 149760, Note_on_c, 5, 57, 80
9, 149760, Note_on_c, 5, 45, 69
9, 149760, Note_on_c, 5, 49, 84
9, 150140, Note_on_c, 5, 49, 0
9, 150144, Note_on_c, 5, 73, 88
9, 150144, Note_on_c, 5, 64, 87
9, 150144, Note_on_c, 5, 69, 101
9, 150148, Note_on_c, 5, 45, 0
9, 150152, Note_on_c, 5, 57, 0
9, 150156, Note_on_c, 5, 52, 0
9, 150276, Note_on_c, 5, 69, 0
9, 150280, Note_on_c, 5, 64, 0
9, 150292, Note_on_c, 5, 73, 0
9, 150336, Note_on_c, 5, 73, 88
9, 150336, Note_on_c, 5, 69, 99
9, 150336, Note_on_c, 5, 64, 86
9, 150464, Note_on_c, 5, 64, 0
9, 150472, Note_on_c, 5, 69, 0
9, 150472, Note_on_c, 5, 73, 0
9, 150472, End_track
10, 0, Start_track
10, 0, MIDI_port, 0
10, 0, Program_c, 6, 56
10, 0, Control_c, 6, 7, 97
10, 0, Control_c, 6, 10, 44
10, 0, Control_c, 6, 121, 0
10, 0, Control_c, 6, 91, 70
10, 0, Control_c, 6, 93, 0
10, 18368, Note_on_c, 6, 71, 90
10, 18420, Note_on_c, 6, 71, 0
10, 18560, Note_on_c, 6, 71, 93
10, 18612, Note_on_c, 6, 71, 0
10, 18624, Note_on_c, 6, 69, 104
10, 18740, Note_on_c, 6, 69, 0
10, 19008, Note_on_c, 6, 54, 79
10, 19124, Note_on_c, 6, 54, 0
10, 19136, Note_on_c, 6, 47, 95
10, 19188, Note_on_c, 6, 47, 0
10, 19328, Note_on_c, 6, 47, 95
10, 19380, Note_on_c, 6, 47, 0
10, 19392, Note_on_c, 6, 49, 103
10, 19508, Note_on_c, 6, 49, 0
10, 19584, Note_on_c, 6, 50, 101
10, 19700, Note_on_c, 6, 50, 0
10, 19776, Note_on_c, 6, 54, 96
10, 19892, Note_on_c, 6, 54, 0
10, 19904, Note_on_c, 6, 71, 97
10, 19956, Note_on_c, 6, 71, 0
10, 20096, Note_on_c, 6, 71, 91
10, 20148, Note_on_c, 6, 71, 0
10, 20160, Note_on_c, 6, 66, 110
10, 20276, Note_on_c, 6, 66, 0
10, 20352, Note_on_c, 6, 69, 101
10, 20468, Note_on_c, 6, 69, 0
10, 20672, Note_on_c, 6, 47, 98
10, 20724, Note_on_c, 6, 47, 0
10, 20864, Note_on_c, 6, 47, 103
10, 20916, Note_on_c, 6, 47, 0
10, 20928, Note_on_c, 6, 49, 107
10, 21044, Note_on_c, 6, 49, 0
10, 21120, Note_on_c, 6, 50, 93
10, 21236, Note_on_c, 6, 50, 0
10, 21440, Note_on_c, 6, 71, 102
10, 21492, Note_on_c, 6, 71, 0
10, 21632, Note_on_c, 6, 71, 93
10, 21684, Note_on_c, 6, 71, 0
10, 21696, Note_on_c, 6, 69, 104
10, 21812, Note_on_c, 6, 69, 0
10, 22080, Note_on_c, 6, 54, 79
10, 22196, Note_on_c, 6, 54, 0
10, 22208, Note_on_c, 6, 47, 95
10, 22260, Note_on_c, 6, 47, 0
10, 22400, Note_on_c, 6, 47, 95
10, 22452, Note_on_c, 6, 47, 0
10, 22464, Note_on_c, 6, 49, 103
10, 22580, Note_on_c, 6, 49, 0
10, 22656, Note_on_c, 6, 50, 101
10, 22772, Note_on_c, 6, 50, 0
10, 22848, Note_on_c, 6, 54, 96
10, 22964, Note_on_c, 6, 54, 0
10, 22976, Note_on_c, 6, 71, 97
10, 23028, Note_on_c, 6, 71, 0
10, 23168, Note_on_c, 6, 71, 91
10, 23220, Note_on_c, 6, 71, 0
10, 23232, Note_on_c, 6, 66, 110
10, 23348, Note_on_c, 6, 66, 0
10, 23424, Note_on_c, 6, 69, 101
10, 23540, Note_on_c, 6, 69, 0
10, 23744, Note_on_c, 6, 47, 98
10, 23796, Note_on_c, 6, 47, 0
10, 23936, Note_on_c, 6, 47, 103
10, 23988, Note_on_c, 6, 47, 0
10, 24000, Note_on_c, 6, 49, 107
10, 24116, Note_on_c, 6, 49, 0
10, 24192, Note_on_c, 6, 50, 93
10, 24308, Note_on_c, 6, 50, 0
10, 46016, Note_on_c, 6, 71, 90
10, 46068, Note_on_c, 6, 71, 0
10, 46208, Note_on_c, 6, 71, 93
10, 46260, Note_on_c, 6, 71, 0
10, 46272, Note_on_c, 6, 69, 104
10, 46388, Note_on_c, 6, 69, 0
10, 46656, Note_on_c, 6, 54, 79
10, 46772, Note_on_c, 6, 54, 0
10, 46784, Note_on_c, 6, 47, 95
10, 46836, Note_on_c, 6, 47, 0
10, 46976, Note_on_c, 6, 47, 95
10, 47028, Note_on_c, 6, 47, 0
10, 47040, Note_on_c, 6, 49, 103
10, 47156, Note_on_c, 6, 49, 0
10, 47232, Note_on_c, 6, 50, 101
10, 47348, Note_on_c, 6, 50, 0
10, 47424, Note_on_c, 6, 54, 96
10, 47540, Note_on_c, 6, 54, 0
10, 47552, Note_on_c, 6, 71, 97
10, 47604, Note_on_c, 6, 71, 0
10, 47744, Note_on_c, 6, 71, 91
10, 47796, Note_on_c, 6, 71, 0
10, 47808, Note_on_c, 6, 66, 110
10, 47924, Note_on_c, 6, 66, 0
10, 48000, Note_on_c, 6, 69, 101
10, 48116, Note_on_c, 6, 69, 0
10, 48320, Note_on_c, 6, 47, 98
10, 48372, Note_on_c, 6, 47, 0
10, 48512, Note_on_c, 6, 47, 103
10, 48564, Note_on_c, 6, 47, 0
10, 48576, Note_on_c, 6, 49, 107
10, 48692, Note_on_c, 6, 49, 0
10, 48768, Note_on_c, 6, 50, 93
10, 48884, Note_on_c, 6, 50, 0
10, 49088, Note_on_c, 6, 71, 102
10, 49140, Note_on_c, 6, 71, 0
10, 49280, Note_on_c, 6, 71, 93
10, 49332, Note_on_c, 6, 71, 0
10, 49344, Note_on_c, 6, 69, 104
10, 49460, Note_on_c, 6, 69, 0
10, 49728, Note_on_c, 6, 54, 79
10, 49844, Note_on_c, 6, 54, 0
10, 49856, Note_on_c, 6, 47, 95
10, 49908, Note_on_c, 6, 47, 0
10, 50048, Note_on_c, 6, 47, 95
10, 50100, Note_on_c, 6, 47, 0
10, 50112, Note_on_c, 6, 49, 103
10, 50228, Note_on_c, 6, 49, 0
10, 50304, Note_on_c, 6, 50, 101
10, 50420, Note_on_c, 6, 50, 0
10, 50496, Note_on_c, 6, 54, 96
10, 50612, Note_on_c, 6, 54, 0
10, 50624, Note_on_c, 6, 71, 97
10, 50676, Note_on_c, 6, 71, 0
10, 50816, Note_on_c, 6, 71, 91
10, 50868, Note_on_c, 6, 71, 0
10, 50880, Note_on_c, 6, 66, 110
10, 50996, Note_on_c, 6, 66, 0
10, 51072, Note_on_c, 6, 69, 101
10, 51188, Note_on_c, 6, 69, 0
10, 51392, Note_on_c, 6, 47, 98
10, 51444, Note_on_c, 6, 47, 0
10, 51584, Note_on_c, 6, 47, 103
10, 51636, Note_on_c, 6, 47, 0
10, 51648, Note_on_c, 6, 49, 107
10, 51764, Note_on_c, 6, 49, 0
10, 51840, Note_on_c, 6, 50, 93
10, 51956, Note_on_c, 6, 50, 0
10, 85952, Note_on_c, 6, 71, 90
10, 86004, Note_on_c, 6, 71, 0
10, 86144, Note_on_c, 6, 71, 93
10, 86196, Note_on_c, 6, 71, 0
10, 86208, Note_on_c, 6, 69, 104
10, 86324, Note_on_c, 6, 69, 0
10, 86592, Note_on_c, 6, 54, 79
10, 86708, Note_on_c, 6, 54, 0
10, 86720, Note_on_c, 6, 47, 95
10, 86772, Note_on_c, 6, 47, 0
10, 86912, Note_on_c, 6, 47, 95
10, 86964, Note_on_c, 6, 47, 0
10, 86976, Note_on_c, 6, 49, 103
10, 87092, Note_on_c, 6, 49, 0
10, 87168, Note_on_c, 6, 50, 101
10, 87284, Note_on_c, 6, 50, 0
10, 87360, Note_on_c, 6, 54, 96
10, 87476, Note_on_c, 6, 54, 0
10, 87488, Note_on_c, 6, 71, 97
10, 87540, Note_on_c, 6, 71, 0
10, 87680, Note_on_c, 6, 71, 91
10, 87732, Note_on_c, 6, 71, 0
10, 87744, Note_on_c, 6, 66, 110
10, 87860, Note_on_c, 6, 66, 0
10, 87936, Note_on_c, 6, 69, 101
10, 88052, Note_on_c, 6, 69, 0
10, 88256, Note_on_c, 6, 47, 98
10, 88308, Note_on_c, 6, 47, 0
10, 88448, Note_on_c, 6, 47, 103
10, 88500, Note_on_c, 6, 47, 0
10, 88512, Note_on_c, 6, 49, 107
10, 88628, Note_on_c, 6, 49, 0
10, 88704, Note_on_c, 6, 50, 93
10, 88820, Note_on_c, 6, 50, 0
10, 89024, Note_on_c, 6, 71, 102
10, 89076, Note_on_c, 6, 71, 0
10, 89216, Note_on_c, 6, 71, 93
10, 89268, Note_on_c, 6, 71, 0
10, 89280, Note_on_c, 6, 69, 104
10, 89396, Note_on_c, 6, 69, 0
10, 89664, Note_on_c, 6, 54, 79
10, 89780, Note_on_c, 6, 54, 0
10, 89792, Note_on_c, 6, 47, 95
10, 89844, Note_on_c, 6, 47, 0
10, 89984, Note_on_c, 6, 47, 95
10, 90036, Note_on_c, 6, 47, 0
10, 90048, Note_on_c, 6, 49, 103
10, 90164, Note_on_c, 6, 49, 0
10, 90240, Note_on_c, 6, 50, 101
10, 90356, Note_on_c, 6, 50, 0
10, 90432, Note_on_c, 6, 54, 96
10, 90548, Note_on_c, 6, 54, 0
10, 90560, Note_on_c, 6, 71, 97
10, 90612, Note_on_c, 6, 71, 0
10, 90752, Note_on_c, 6, 71, 91
10, 90804, Note_on_c, 6, 71, 0
10, 90816, Note_on_c, 6, 66, 110
10, 90932, Note_on_c, 6, 66, 0
10, 91008, Note_on_c, 6, 69, 101
10, 91124, Note_on_c, 6, 69, 0
10, 91328, Note_on_c, 6, 47, 98
10, 91380, Note_on_c, 6, 47, 0
10, 91520, Note_on_c, 6, 47, 103
10, 91572, Note_on_c, 6, 47, 0
10, 91584, Note_on_c, 6, 49, 107
10, 91700, Note_on_c, 6, 49, 0
10, 91776, Note_on_c, 6, 50, 93
10, 91892, Note_on_c, 6, 50, 0
10, 91892, End_track
11, 0, Start_track
11, 0, MIDI_port, 0
11, 0, Program_c, 7, 62
11, 0, Control_c, 7, 7, 97
11, 0, Control_c, 7, 10, 84
11, 0, Control_c, 7, 121, 0
11, 0, Control_c, 7, 91, 70
11, 0, Control_c, 7, 93, 0
11, 6144, Note_on_c, 7, 66, 73
11, 6144, Note_on_c, 7, 64, 73
11, 6144, Note_on_c, 7, 61, 69
11, 6144, Note_on_c, 7, 57, 77
11, 7632, Note_on_c, 7, 57, 0
11, 7640, Note_on_c, 7, 61, 0
11, 7644, Note_on_c, 7, 64, 0
11, 7676, Note_on_c, 7, 66, 0
11, 7680, Note_on_c, 7, 57, 85
11, 7680, Note_on_c, 7, 61, 77
11, 7680, Note_on_c, 7, 64, 86
11, 9216, Note_on_c, 7, 54, 83
11, 10668, Note_on_c, 7, 54, 0
11, 10748, Note_on_c, 7, 64, 0
11, 10752, Note_on_c, 7, 57, 0
11, 10752, Note_on_c, 7, 59, 76
11, 10752, Note_on_c, 7, 55, 77
11, 10752, Note_on_c, 7, 66, 79
11, 10752, Note_on_c, 7, 62, 62
11, 10792, Note_on_c, 7, 61, 0
11, 12216, Note_on_c, 7, 55, 0
11, 12220, Note_on_c, 7, 59, 0
11, 12288, Note_on_c, 7, 64, 73
11, 12288, Note_on_c, 7, 57, 60
11, 12288, Note_on_c, 7, 61, 53
11, 12292, Note_on_c, 7, 62, 0
11, 13764, Note_on_c, 7, 61, 0
11, 13780, Note_on_c, 7, 66, 0
11, 13824, Note_on_c, 7, 61, 69
11, 15360, Note_on_c, 7, 54, 81
11, 16844, Note_on_c, 7, 57, 0
11, 16888, Note_on_c, 7, 54, 0
11, 16896, Note_on_c, 7, 66, 80
11, 16896, Note_on_c, 7, 62, 79
11, 16896, Note_on_c, 7, 55, 61
11, 16896, Note_on_c, 7, 59, 63
11, 16900, Note_on_c, 7, 64, 0
11, 16916, Note_on_c, 7, 61, 0
11, 18336, Note_on_c, 7, 59, 0
11, 18356, Note_on_c, 7, 55, 0
11, 18384, Note_on_c, 7, 62, 0
11, 18388, Note_on_c, 7, 66, 0
11, 24576, Note_on_c, 7, 61, 57
11, 24576, Note_on_c, 7, 66, 70
11, 24576, Note_on_c, 7, 57, 71
11, 24576, Note_on_c, 7, 64, 63
11, 25992, Note_on_c, 7, 64, 0
11, 26056, Note_on_c, 7, 66, 0
11, 26112, Note_on_c, 7, 64, 92
11, 27572, Note_on_c, 7, 57, 0
11, 27576, Note_on_c, 7, 61, 0
11, 27632, Note_on_c, 7, 64, 0
11, 27648, Note_on_c, 7, 61, 56
11, 27648, Note_on_c, 7, 57, 71
11, 27648, Note_on_c, 7, 64, 67
11, 27648, Note_on_c, 7, 54, 81
11, 29140, Note_on_c, 7, 54, 0
11, 29140, Note_on_c, 7, 57, 0
11, 29152, Note_on_c, 7, 64, 0
11, 29184, Note_on_c, 7, 62, 75
11, 29184, Note_on_c, 7, 55, 53
11, 29184, Note_on_c, 7, 66, 68
11, 29184, Note_on_c, 7, 59, 70
11, 29220, Note_on_c, 7, 61, 0
11, 30624, Note_on_c, 7, 66, 0
11, 30640, Note_on_c, 7, 59, 0
11, 30652, Note_on_c, 7, 62, 0
11, 30692, Note_on_c, 7, 55, 0
11, 30720, Note_on_c, 7, 66, 75
11, 30720, Note_on_c, 7, 61, 76
11, 30720, Note_on_c, 7, 64, 77
11, 30720, Note_on_c, 7, 57, 84
11, 32188, Note_on_c, 7, 61, 0
11, 32196, Note_on_c, 7, 66, 0
11, 32200, Note_on_c, 7, 64, 0
11, 32256, Note_on_c, 7, 61, 82
11, 32256, Note_on_c, 7, 64, 94
11, 33792, Note_on_c, 7, 54, 88
11, 35304, Note_on_c, 7, 57, 0
11, 35312, Note_on_c, 7, 54, 0
11, 35320, Note_on_c, 7, 64, 0
11, 35328, Note_on_c, 7, 66, 81
11, 35328, Note_on_c, 7, 62, 85
11, 35328, Note_on_c, 7, 55, 69
11, 35328, Note_on_c, 7, 59, 67
11, 35332, Note_on_c, 7, 61, 0
11, 36716, Note_on_c, 7, 59, 0
11, 36760, Note_on_c, 7, 55, 0
11, 36760, Note_on_c, 7, 62, 0
11, 36764, Note_on_c, 7, 66, 0
11, 52224, Note_on_c, 7, 66, 62
11, 52224, Note_on_c, 7, 69, 67
11, 52224, Note_on_c, 7, 62, 76
11, 52224, Note_on_c, 7, 71, 74
11, 53708, Note_on_c, 7, 71, 0
11, 53712, Note_on_c, 7, 62, 0
11, 53712, Note_on_c, 7, 69, 0
11, 53720, Note_on_c, 7, 66, 0
11, 55296, Note_on_c, 7, 66, 71
11, 55296, Note_on_c, 7, 62, 72
11, 55296, Note_on_c, 7, 71, 72
11, 55296, Note_on_c, 7, 69, 77
11, 56768, Note_on_c, 7, 69, 0
11, 56772, Note_on_c, 7, 71, 0
11, 56776, Note_on_c, 7, 66, 0
11, 56792, Note_on_c, 7, 62, 0
11, 58368, Note_on_c, 7, 66, 75
11, 58368, Note_on_c, 7, 71, 74
11, 58368, Note_on_c, 7, 62, 76
11, 58368, Note_on_c, 7, 69, 75
11, 59748, Note_on_c, 7, 66, 0
11, 59752, Note_on_c, 7, 69, 0
11, 59760, Note_on_c, 7, 62, 0
11, 59764, Note_on_c, 7, 71, 0
11, 61440, Note_on_c, 7, 66, 73
11, 61440, Note_on_c, 7, 59, 70
11, 61440, Note_on_c, 7, 62, 69
11, 62928, Note_on_c, 7, 62, 0
11, 62944, Note_on_c, 7, 59, 0
11, 62976, Note_on_c, 7, 61, 57
11, 62976, Note_on_c, 7, 57, 75
11, 64460, Note_on_c, 7, 66, 0
11, 64472, Note_on_c, 7, 61, 0
11, 64512, Note_on_c, 7, 66, 81
11, 64512, Note_on_c, 7, 62, 75
11, 64512, Note_on_c, 7, 59, 72
11, 64512, Note_on_c, 7, 55, 73
11, 64528, Note_on_c, 7, 57, 0
11, 66016, Note_on_c, 7, 55, 0
11, 66048, Note_on_c, 7, 59, 0
11, 66048, Note_on_c, 7, 54, 73
11, 66048, Note_on_c, 7, 61, 58
11, 66048, Note_on_c, 7, 64, 77
11, 66048, Note_on_c, 7, 57, 76
11, 66056, Note_on_c, 7, 62, 0
11, 66092, Note_on_c, 7, 66, 0
11, 67484, Note_on_c, 7, 64, 0
11, 67488, Note_on_c, 7, 61, 0
11, 67540, Note_on_c, 7, 57, 0
11, 67584, Note_on_c, 7, 62, 86
11, 67584, Note_on_c, 7, 66, 84
11, 67584, Note_on_c, 7, 59, 76
11, 67588, Note_on_c, 7, 54, 0
11, 69024, Note_on_c, 7, 62, 0
11, 69040, Note_on_c, 7, 66, 0
11, 69064, Note_on_c, 7, 59, 0
11, 69120, Note_on_c, 7, 66, 85
11, 69120, Note_on_c, 7, 61, 72
11, 69120, Note_on_c, 7, 57, 72
11, 70628, Note_on_c, 7, 66, 0
11, 70656, Note_on_c, 7, 61, 0
11, 70656, Note_on_c, 7, 66, 76
11, 70656, Note_on_c, 7, 62, 75
11, 70656, Note_on_c, 7, 59, 76
11, 70656, Note_on_c, 7, 55, 81
11, 70708, Note_on_c, 7, 57, 0
11, 72024, Note_on_c, 7, 55, 0
11, 72072, Note_on_c, 7, 59, 0
11, 72192, Note_on_c, 7, 64, 86
11, 72192, Note_on_c, 7, 54, 67
11, 72192, Note_on_c, 7, 61, 90
11, 72192, Note_on_c, 7, 57, 84
11, 72220, Note_on_c, 7, 62, 0
11, 72292, Note_on_c, 7, 66, 0
11, 73604, Note_on_c, 7, 61, 0
11, 73608, Note_on_c, 7, 57, 0
11, 73616, Note_on_c, 7, 54, 0
11, 73632, Note_on_c, 7, 64, 0
11, 92160, Note_on_c, 7, 66, 64
11, 92160, Note_on_c, 7, 61, 57
11, 92160, Note_on_c, 7, 64, 66
11, 92160, Note_on_c, 7, 57, 67
11, 93592, Note_on_c, 7, 61, 0
11, 93612, Note_on_c, 7, 64, 0
11, 93644, Note_on_c, 7, 66, 0
11, 93696, Note_on_c, 7, 61, 71
11, 93696, Note_on_c, 7, 64, 70
11, 95168, Note_on_c, 7, 64, 0
11, 95204, Note_on_c, 7, 61, 0
11, 95232, Note_on_c, 7, 61, 64
11, 95232, Note_on_c, 7, 64, 72
11, 95232, Note_on_c, 7, 54, 71
11, 96664, Note_on_c, 7, 54, 0
11, 96732, Note_on_c, 7, 64, 0
11, 96748, Note_on_c, 7, 57, 0
11, 96768, Note_on_c, 7, 59, 73
11, 96768, Note_on_c, 7, 62, 54
11, 96768, Note_on_c, 7, 66, 73
11, 96768, Note_on_c, 7, 55, 65
11, 96772, Note_on_c, 7, 61, 0
11, 98256, Note_on_c, 7, 62, 0
11, 98260, Note_on_c, 7, 55, 0
11, 98280, Note_on_c, 7, 59, 0
11, 98304, Note_on_c, 7, 61, 69
11, 98304, Note_on_c, 7, 57, 82
11, 98304, Note_on_c, 7, 64, 64
11, 99732, Note_on_c, 7, 61, 0
11, 99752, Note_on_c, 7, 57, 0
11, 99756, Note_on_c, 7, 64, 0
11, 99772, Note_on_c, 7, 66, 0
11, 99840, Note_on_c, 7, 61, 67
11, 99840, Note_on_c, 7, 57, 86
11, 99840, Note_on_c, 7, 64, 68
11, 101268, Note_on_c, 7, 64, 0
11, 101268, Note_on_c, 7, 61, 0
11, 101376, Note_on_c, 7, 54, 72
11, 101376, Note_on_c, 7, 64, 83
11, 101376, Note_on_c, 7, 61, 76
11, 102892, Note_on_c, 7, 57, 0
11, 102912, Note_on_c, 7, 64, 0
11, 102912, Note_on_c, 7, 55, 59
11, 102912, Note_on_c, 7, 66, 74
11, 102912, Note_on_c, 7, 59, 70
11, 102912, Note_on_c, 7, 62, 51
11, 102916, Note_on_c, 7, 54, 0
11, 102968, Note_on_c, 7, 61, 0
11, 104360, Note_on_c, 7, 59, 0
11, 104380, Note_on_c, 7, 62, 0
11, 104400, Note_on_c, 7, 66, 0
11, 104400, Note_on_c, 7, 55, 0
11, 104448, Note_on_c, 7, 71, 68
11, 104448, Note_on_c, 7, 69, 73
11, 104448, Note_on_c, 7, 66, 68
11, 104448, Note_on_c, 7, 62, 68
11, 105884, Note_on_c, 7, 62, 0
11, 105884, Note_on_c, 7, 66, 0
11, 105892, Note_on_c, 7, 69, 0
11, 105896, Note_on_c, 7, 71, 0
11, 107520, Note_on_c, 7, 71, 73
11, 107520, Note_on_c, 7, 69, 80
11, 107520, Note_on_c, 7, 66, 70
11, 107520, Note_on_c, 7, 62, 67
11, 108988, Note_on_c, 7, 62, 0
11, 108988, Note_on_c, 7, 69, 0
11, 108992, Note_on_c, 7, 66, 0
11, 109004, Note_on_c, 7, 71, 0
11, 110592, Note_on_c, 7, 62, 74
11, 110592, Note_on_c, 7, 66, 63
11, 110592, Note_on_c, 7, 71, 65
11, 110592, Note_on_c, 7, 69, 73
11, 112092, Note_on_c, 7, 69, 0
11, 112112, Note_on_c, 7, 71, 0
11, 112116, Note_on_c, 7, 66, 0
11, 112132, Note_on_c, 7, 62, 0
11, 113664, Note_on_c, 7, 66, 74
11, 113664, Note_on_c, 7, 59, 68
11, 113664, Note_on_c, 7, 62, 74
11, 115068, Note_on_c, 7, 62, 0
11, 115096, Note_on_c, 7, 66, 0
11, 115136, Note_on_c, 7, 59, 0
11, 115200, Note_on_c, 7, 61, 65
11, 115200, Note_on_c, 7, 66, 86
11, 115200, Note_on_c, 7, 57, 76
11, 116716, Note_on_c, 7, 61, 0
11, 116736, Note_on_c, 7, 59, 57
11, 116736, Note_on_c, 7, 62, 62
11, 116736, Note_on_c, 7, 55, 60
11, 116740, Note_on_c, 7, 57, 0
11, 118204, Note_on_c, 7, 55, 0
11, 118260, Note_on_c, 7, 66, 0
11, 118264, Note_on_c, 7, 62, 0
11, 118272, Note_on_c, 7, 59, 0
11, 118272, Note_on_c, 7, 54, 55
11, 118272, Note_on_c, 7, 57, 73
11, 118272, Note_on_c, 7, 61, 52
11, 118272, Note_on_c, 7, 64, 83
11, 119784, Note_on_c, 7, 64, 0
11, 119784, Note_on_c, 7, 61, 0
11, 119800, Note_on_c, 7, 57, 0
11, 119808, Note_on_c, 7, 62, 76
11, 119808, Note_on_c, 7, 59, 74
11, 119808, Note_on_c, 7, 66, 76
11, 119864, Note_on_c, 7, 54, 0
11, 121260, Note_on_c, 7, 62, 0
11, 121284, Note_on_c, 7, 66, 0
11, 121344, Note_on_c, 7, 57, 74
11, 121344, Note_on_c, 7, 61, 67
11, 121344, Note_on_c, 7, 66, 84
11, 121352, Note_on_c, 7, 59, 0
11, 122844, Note_on_c, 7, 61, 0
11, 122880, Note_on_c, 7, 62, 82
11, 122880, Note_on_c, 7, 59, 71
11, 122880, Note_on_c, 7, 55, 79
11, 122908, Note_on_c, 7, 57, 0
11, 124364, Note_on_c, 7, 55, 0
11, 124384, Note_on_c, 7, 59, 0
11, 124388, Note_on_c, 7, 62, 0
11, 124416, Note_on_c, 7, 54, 55
11, 124416, Note_on_c, 7, 64, 78
11, 124416, Note_on_c, 7, 61, 52
11, 124416, Note_on_c, 7, 57, 68
11, 124420, Note_on_c, 7, 66, 0
11, 125784, Note_on_c, 7, 57, 0
11, 125804, Note_on_c, 7, 61, 0
11, 125816, Note_on_c, 7, 64, 0
11, 125844, Note_on_c, 7, 54, 0
11, 150528, Note_on_c, 7, 59, 91
11, 150528, Note_on_c, 7, 54, 69
11, 150528, Note_on_c, 7, 50, 81
11, 152004, Note_on_c, 7, 50, 0
11, 152064, Note_on_c, 7, 57, 92
11, 152064, Note_on_c, 7, 62, 84
11, 152092, Note_on_c, 7, 59, 0
11, 152792, Note_on_c, 7, 62, 0
11, 152808, Note_on_c, 7, 54, 0
11, 152832, Note_on_c, 7, 61, 83
11, 152832, Note_on_c, 7, 52, 80
11, 153584, Note_on_c, 7, 57, 0
11, 153600, Note_on_c, 7, 59, 92
11, 153600, Note_on_c, 7, 54, 79
11, 153600, Note_on_c, 7, 50, 77
11, 153644, Note_on_c, 7, 52, 0
11, 153652, Note_on_c, 7, 61, 0
11, 155080, Note_on_c, 7, 50, 0
11, 155136, Note_on_c, 7, 57, 85
11, 155136, Note_on_c, 7, 62, 77
11, 155164, Note_on_c, 7, 59, 0
11, 155904, Note_on_c, 7, 61, 79
11, 155904, Note_on_c, 7, 52, 76
11, 155908, Note_on_c, 7, 62, 0
11, 155912, Note_on_c, 7, 54, 0
11, 156644, Note_on_c, 7, 52, 0
11, 156672, Note_on_c, 7, 59, 83
11, 156672, Note_on_c, 7, 54, 78
11, 156672, Note_on_c, 7, 50, 73
11, 156676, Note_on_c, 7, 57, 0
11, 156676, Note_on_c, 7, 61, 0
11, 158132, Note_on_c, 7, 50, 0
11, 158208, Note_on_c, 7, 62, 80
11, 158208, Note_on_c, 7, 57, 76
11, 158232, Note_on_c, 7, 59, 0
11, 158960, Note_on_c, 7, 62, 0
11, 158976, Note_on_c, 7, 61, 83
11, 158976, Note_on_c, 7, 52, 78
11, 158988, Note_on_c, 7, 54, 0
11, 159744, Note_on_c, 7, 52, 0
11, 159744, Note_on_c, 7, 54, 71
11, 159744, Note_on_c, 7, 59, 90
11, 159744, Note_on_c, 7, 50, 76
11, 159752, Note_on_c, 7, 57, 0
11, 159788, Note_on_c, 7, 61, 0
11, 161252, Note_on_c, 7, 50, 0
11, 161280, Note_on_c, 7, 57, 86
11, 161280, Note_on_c, 7, 62, 77
11, 161324, Note_on_c, 7, 59, 0
11, 162048, Note_on_c, 7, 61, 80
11, 162048, Note_on_c, 7, 52, 84
11, 162064, Note_on_c, 7, 62, 0
11, 162088, Note_on_c, 7, 54, 0
11, 162744, Note_on_c, 7, 52, 0
11, 162768, Note_on_c, 7, 61, 0
11, 162776, Note_on_c, 7, 57, 0
11, 162816, Note_on_c, 7, 54, 63
11, 162816, Note_on_c, 7, 59, 70
11, 162816, Note_on_c, 7, 50, 77
11, 163152, Note_on_c, 7, 50, 0
11, 163152, Note_on_c, 7, 59, 0
11, 163152, Note_on_c, 7, 54, 0
11, 163152, End_track
12, 0, Start_track
12, 0, MIDI_port, 0
12, 0, Program_c, 8, 48
12, 0, Control_c, 8, 7, 97
12, 0, Control_c, 8, 10, 64
12, 0, Control_c, 8, 121, 0
12, 0, Control_c, 8, 91, 70
12, 0, Control_c, 8, 93, 0
12, 61440, Note_on_c, 8, 78, 84
12, 64504, Note_on_c, 8, 78, 0
12, 64512, Note_on_c, 8, 86, 94
12, 66048, Note_on_c, 8, 85, 88
12, 66092, Note_on_c, 8, 86, 0
12, 67572, Note_on_c, 8, 85, 0
12, 67584, Note_on_c, 8, 90, 95
12, 69120, Note_on_c, 8, 88, 94
12, 69168, Note_on_c, 8, 90, 0
12, 70608, Note_on_c, 8, 88, 0
12, 70656, Note_on_c, 8, 95, 96
12, 73620, Note_on_c, 8, 95, 0
12, 113664, Note_on_c, 8, 78, 68
12, 116736, Note_on_c, 8, 78, 0
12, 116736, Note_on_c, 8, 86, 89
12, 118272, Note_on_c, 8, 85, 90
12, 118308, Note_on_c, 8, 86, 0
12, 119808, Note_on_c, 8, 85, 0
12, 119808, Note_on_c, 8, 90, 78
12, 121344, Note_on_c, 8, 88, 89
12, 121372, Note_on_c, 8, 90, 0
12, 122852, Note_on_c, 8, 88, 0
12, 122880, Note_on_c, 8, 95, 90
12, 125772, Note_on_c, 8, 95, 0
12, 125772, End_track
13, 0, Start_track
13, 0, MIDI_port, 0
13, 0, Title_t, "Voix"
13, 0, Program_c, 10, 67
13, 0, Control_c, 10, 7, 127
13, 0, Control_c, 10, 10, 64
13, 148, Control_c, 10, 121, 0
13, 340, Control_c, 10, 101, 0
13, 340, Control_c, 10, 100, 0
13, 340, Control_c, 10, 6, 12
13, 340, Control_c, 10, 38, 0
13, 1168, Control_c, 10, 93, 0
13, 1232, Control_c, 10, 91, 68
13, 6144, Note_on_c, 10, 69, 107
13, 6294, Note_on_c, 10, 69, 0
13, 6338, Note_on_c, 10, 69, 92
13, 6384, Note_on_c, 10, 69, 0
13, 6442, Note_on_c, 10, 69, 91
13, 6512, Note_on_c, 10, 69, 0
13, 6640, Note_on_c, 10, 69, 98
13, 6706, Note_on_c, 10, 69, 0
13, 6826, Note_on_c, 10, 69, 104
13, 6900, Note_on_c, 10, 69, 0
13, 7018, Note_on_c, 10, 67, 96
13, 7078, Note_on_c, 10, 67, 0
13, 7198, Note_on_c, 10, 66, 106
13, 7370, Note_on_c, 10, 66, 0
13, 7402, Note_on_c, 10, 67, 96
13, 7504, Note_on_c, 10, 67, 0
13, 7594, Note_on_c, 10, 69, 105
13, 7838, Note_on_c, 10, 69, 0
13, 7868, Note_on_c, 10, 69, 83
13, 7924, Note_on_c, 10, 69, 0
13, 7972, Note_on_c, 10, 69, 96
13, 8038, Note_on_c, 10, 69, 0
13, 8160, Note_on_c, 10, 69, 98
13, 8214, Note_on_c, 10, 69, 0
13, 8344, Note_on_c, 10, 69, 101
13, 8418, Note_on_c, 10, 69, 0
13, 8530, Note_on_c, 10, 67, 91
13, 8612, Note_on_c, 10, 67, 0
13, 8726, Note_on_c, 10, 66, 106
13, 8932, Note_on_c, 10, 66, 0
13, 8944, Note_on_c, 10, 66, 96
13, 9014, Note_on_c, 10, 66, 0
13, 9124, Note_on_c, 10, 69, 105
13, 9314, Note_on_c, 10, 69, 0
13, 9356, Note_on_c, 10, 69, 93
13, 9412, Note_on_c, 10, 69, 0
13, 9506, Note_on_c, 10, 69, 88
13, 9548, Note_on_c, 10, 69, 0
13, 9674, Note_on_c, 10, 69, 90
13, 9740, Note_on_c, 10, 69, 0
13, 9870, Note_on_c, 10, 69, 93
13, 9944, Note_on_c, 10, 69, 0
13, 10052, Note_on_c, 10, 67, 82
13, 10116, Note_on_c, 10, 67, 0
13, 10234, Note_on_c, 10, 66, 85
13, 10402, Note_on_c, 10, 66, 0
13, 10436, Note_on_c, 10, 67, 84
13, 10506, Note_on_c, 10, 67, 0
13, 10622, Note_on_c, 10, 66, 99
13, 10856, Note_on_c, 10, 66, 0
13, 12288, Note_on_c, 10, 69, 107
13, 12438, Note_on_c, 10, 69, 0
13, 12482, Note_on_c, 10, 69, 92
13, 12528, Note_on_c, 10, 69, 0
13, 12586, Note_on_c, 10, 69, 91
13, 12656, Note_on_c, 10, 69, 0
13, 12784, Note_on_c, 10, 69, 98
13, 12850, Note_on_c, 10, 69, 0
13, 12970, Note_on_c, 10, 69, 104
13, 13044, Note_on_c, 10, 69, 0
13, 13162, Note_on_c, 10, 67, 96
13, 13222, Note_on_c, 10, 67, 0
13, 13342, Note_on_c, 10, 66, 106
13, 13514, Note_on_c, 10, 66, 0
13, 13546, Note_on_c, 10, 67, 96
13, 13648, Note_on_c, 10, 67, 0
13, 13738, Note_on_c, 10, 69, 105
13, 13982, Note_on_c, 10, 69, 0
13, 14012, Note_on_c, 10, 69, 83
13, 14068, Note_on_c, 10, 69, 0
13, 14116, Note_on_c, 10, 69, 96
13, 14182, Note_on_c, 10, 69, 0
13, 14304, Note_on_c, 10, 69, 98
13, 14358, Note_on_c, 10, 69, 0
13, 14488, Note_on_c, 10, 69, 101
13, 14562, Note_on_c, 10, 69, 0
13, 14674, Note_on_c, 10, 67, 91
13, 14756, Note_on_c, 10, 67, 0
13, 14870, Note_on_c, 10, 66, 106
13, 15076, Note_on_c, 10, 66, 0
13, 15088, Note_on_c, 10, 66, 96
13, 15158, Note_on_c, 10, 66, 0
13, 15268, Note_on_c, 10, 69, 105
13, 15458, Note_on_c, 10, 69, 0
13, 15500, Note_on_c, 10, 69, 93
13, 15556, Note_on_c, 10, 69, 0
13, 15650, Note_on_c, 10, 69, 88
13, 15692, Note_on_c, 10, 69, 0
13, 15818, Note_on_c, 10, 69, 90
13, 15884, Note_on_c, 10, 69, 0
13, 16014, Note_on_c, 10, 69, 93
13, 16088, Note_on_c, 10, 69, 0
13, 16196, Note_on_c, 10, 67, 82
13, 16260, Note_on_c, 10, 67, 0
13, 16378, Note_on_c, 10, 66, 85
13, 16546, Note_on_c, 10, 66, 0
13, 16580, Note_on_c, 10, 67, 84
13, 16650, Note_on_c, 10, 67, 0
13, 16766, Note_on_c, 10, 66, 99
13, 17000, Note_on_c, 10, 66, 0
13, 24576, Note_on_c, 10, 69, 107
13, 24726, Note_on_c, 10, 69, 0
13, 24770, Note_on_c, 10, 69, 92
13, 24816, Note_on_c, 10, 69, 0
13, 24874, Note_on_c, 10, 69, 91
13, 24944, Note_on_c, 10, 69, 0
13, 25072, Note_on_c, 10, 69, 98
13, 25138, Note_on_c, 10, 69, 0
13, 25258, Note_on_c, 10, 69, 104
13, 25332, Note_on_c, 10, 69, 0
13, 25450, Note_on_c, 10, 67, 96
13, 25510, Note_on_c, 10, 67, 0
13, 25630, Note_on_c, 10, 66, 106
13, 25802, Note_on_c, 10, 66, 0
13, 25834, Note_on_c, 10, 67, 96
13, 25936, Note_on_c, 10, 67, 0
13, 26026, Note_on_c, 10, 69, 105
13, 26270, Note_on_c, 10, 69, 0
13, 26300, Note_on_c, 10, 69, 83
13, 26356, Note_on_c, 10, 69, 0
13, 26404, Note_on_c, 10, 69, 96
13, 26470, Note_on_c, 10, 69, 0
13, 26592, Note_on_c, 10, 69, 98
13, 26646, Note_on_c, 10, 69, 0
13, 26776, Note_on_c, 10, 69, 101
13, 26850, Note_on_c, 10, 69, 0
13, 26962, Note_on_c, 10, 67, 91
13, 27044, Note_on_c, 10, 67, 0
13, 27158, Note_on_c, 10, 66, 106
13, 27364, Note_on_c, 10, 66, 0
13, 27376, Note_on_c, 10, 66, 96
13, 27446, Note_on_c, 10, 66, 0
13, 27556, Note_on_c, 10, 69, 105
13, 27746, Note_on_c, 10, 69, 0
13, 27788, Note_on_c, 10, 69, 93
13, 27844, Note_on_c, 10, 69, 0
13, 27938, Note_on_c, 10, 69, 88
13, 27980, Note_on_c, 10, 69, 0
13, 28106, Note_on_c, 10, 69, 90
13, 28172, Note_on_c, 10, 69, 0
13, 28302, Note_on_c, 10, 69, 93
13, 28376, Note_on_c, 10, 69, 0
13, 28484, Note_on_c, 10, 67, 82
13, 28548, Note_on_c, 10, 67, 0
13, 28666, Note_on_c, 10, 66, 85
13, 28834, Note_on_c, 10, 66, 0
13, 28868, Note_on_c, 10, 67, 84
13, 28938, Note_on_c, 10, 67, 0
13, 29054, Note_on_c, 10, 66, 99
13, 29288, Note_on_c, 10, 66, 0
13, 30720, Note_on_c, 10, 69, 107
13, 30870, Note_on_c, 10, 69, 0
13, 30914, Note_on_c, 10, 69, 92
13, 30960, Note_on_c, 10, 69, 0
13, 31018, Note_on_c, 10, 69, 91
13, 31088, Note_on_c, 10, 69, 0
13, 31216, Note_on_c, 10, 69, 98
13, 31282, Note_on_c, 10, 69, 0
13, 31402, Note_on_c, 10, 69, 104
13, 31476, Note_on_c, 10, 69, 0
13, 31594, Note_on_c, 10, 67, 96
13, 31654, Note_on_c, 10, 67, 0
13, 31774, Note_on_c, 10, 66, 106
13, 31946, Note_on_c, 10, 66, 0
13, 31978, Note_on_c, 10, 67, 96
13, 32080, Note_on_c, 10, 67, 0
13, 32170, Note_on_c, 10, 69, 105
13, 32414, Note_on_c, 10, 69, 0
13, 32444, Note_on_c, 10, 69, 83
13, 32500, Note_on_c, 10, 69, 0
13, 32548, Note_on_c, 10, 69, 96
13, 32614, Note_on_c, 10, 69, 0
13, 32736, Note_on_c, 10, 69, 98
13, 32790, Note_on_c, 10, 69, 0
13, 32920, Note_on_c, 10, 69, 101
13, 32994, Note_on_c, 10, 69, 0
13, 33106, Note_on_c, 10, 67, 91
13, 33188, Note_on_c, 10, 67, 0
13, 33302, Note_on_c, 10, 66, 106
13, 33508, Note_on_c, 10, 66, 0
13, 33520, Note_on_c, 10, 66, 96
13, 33590, Note_on_c, 10, 66, 0
13, 33700, Note_on_c, 10, 69, 105
13, 33890, Note_on_c, 10, 69, 0
13, 33932, Note_on_c, 10, 69, 93
13, 33988, Note_on_c, 10, 69, 0
13, 34082, Note_on_c, 10, 69, 88
13, 34124, Note_on_c, 10, 69, 0
13, 34250, Note_on_c, 10, 69, 90
13, 34316, Note_on_c, 10, 69, 0
13, 34446, Note_on_c, 10, 69, 93
13, 34520, Note_on_c, 10, 69, 0
13, 34628, Note_on_c, 10, 67, 82
13, 34692, Note_on_c, 10, 67, 0
13, 34810, Note_on_c, 10, 66, 85
13, 34978, Note_on_c, 10, 66, 0
13, 35012, Note_on_c, 10, 67, 84
13, 35082, Note_on_c, 10, 67, 0
13, 35198, Note_on_c, 10, 66, 99
13, 35432, Note_on_c, 10, 66, 0
13, 36592, Note_on_c, 10, 64, 127
13, 36620, Note_on_c, 10, 64, 0
13, 36646, Note_on_c, 10, 66, 127
13, 36700, Note_on_c, 10, 66, 0
13, 36702, Note_on_c, 10, 69, 127
13, 36726, Note_on_c, 10, 69, 0
13, 36760, Note_on_c, 10, 71, 127
13, 36794, Note_on_c, 10, 71, 0
13, 36872, Note_on_c, 10, 74, 118
13, 37160, Note_on_c, 10, 74, 0
13, 37250, Note_on_c, 10, 71, 105
13, 37402, Note_on_c, 10, 71, 0
13, 37444, Note_on_c, 10, 69, 107
13, 37488, Note_on_c, 10, 69, 0
13, 37532, Note_on_c, 10, 71, 127
13, 37678, Note_on_c, 10, 71, 0
13, 38584, Note_on_c, 10, 74, 109
13, 38684, Pitch_bend_c, 10, 8160
13, 38692, Pitch_bend_c, 10, 8032
13, 38700, Pitch_bend_c, 10, 7680
13, 38718, Pitch_bend_c, 10, 7456
13, 38734, Pitch_bend_c, 10, 7136
13, 38744, Pitch_bend_c, 10, 6752
13, 38756, Pitch_bend_c, 10, 6144
13, 38828, Note_on_c, 10, 74, 0
13, 38872, Pitch_bend_c, 10, 6656
13, 38894, Pitch_bend_c, 10, 7168
13, 38896, Pitch_bend_c, 10, 7904
13, 38914, Pitch_bend_c, 10, 8160
13, 38926, Pitch_bend_c, 10, 8192
13, 38974, Note_on_c, 10, 74, 107
13, 39132, Pitch_bend_c, 10, 8064
13, 39136, Pitch_bend_c, 10, 8032
13, 39150, Pitch_bend_c, 10, 7584
13, 39168, Pitch_bend_c, 10, 7488
13, 39228, Note_on_c, 10, 74, 0
13, 39474, Pitch_bend_c, 10, 7712
13, 39488, Pitch_bend_c, 10, 7872
13, 39500, Pitch_bend_c, 10, 8096
13, 39512, Pitch_bend_c, 10, 8192
13, 39664, Note_on_c, 10, 64, 127
13, 39692, Note_on_c, 10, 64, 0
13, 39718, Note_on_c, 10, 66, 127
13, 39772, Note_on_c, 10, 66, 0
13, 39774, Note_on_c, 10, 69, 127
13, 39798, Note_on_c, 10, 69, 0
13, 39832, Note_on_c, 10, 71, 127
13, 39866, Note_on_c, 10, 71, 0
13, 39944, Note_on_c, 10, 74, 118
13, 40232, Note_on_c, 10, 74, 0
13, 40322, Note_on_c, 10, 71, 105
13, 40474, Note_on_c, 10, 71, 0
13, 40516, Note_on_c, 10, 69, 107
13, 40560, Note_on_c, 10, 69, 0
13, 40604, Note_on_c, 10, 71, 127
13, 40750, Note_on_c, 10, 71, 0
13, 41656, Note_on_c, 10, 74, 109
13, 41756, Pitch_bend_c, 10, 8096
13, 41768, Pitch_bend_c, 10, 7808
13, 41782, Pitch_bend_c, 10, 7552
13, 41794, Pitch_bend_c, 10, 7232
13, 41810, Pitch_bend_c, 10, 6848
13, 41824, Pitch_bend_c, 10, 6336
13, 41836, Pitch_bend_c, 10, 6144
13, 41900, Note_on_c, 10, 74, 0
13, 41944, Pitch_bend_c, 10, 6368
13, 41950, Pitch_bend_c, 10, 6656
13, 41966, Pitch_bend_c, 10, 7776
13, 41978, Pitch_bend_c, 10, 8160
13, 41998, Pitch_bend_c, 10, 8192
13, 42046, Note_on_c, 10, 74, 107
13, 42204, Pitch_bend_c, 10, 8032
13, 42222, Pitch_bend_c, 10, 7712
13, 42232, Pitch_bend_c, 10, 7488
13, 42300, Note_on_c, 10, 74, 0
13, 42546, Pitch_bend_c, 10, 7424
13, 42550, Pitch_bend_c, 10, 7872
13, 42572, Pitch_bend_c, 10, 8096
13, 42584, Pitch_bend_c, 10, 8192
13, 42736, Note_on_c, 10, 64, 127
13, 42764, Note_on_c, 10, 64, 0
13, 42790, Note_on_c, 10, 66, 127
13, 42844, Note_on_c, 10, 66, 0
13, 42846, Note_on_c, 10, 69, 127
13, 42870, Note_on_c, 10, 69, 0
13, 42904, Note_on_c, 10, 71, 127
13, 42938, Note_on_c, 10, 71, 0
13, 43016, Note_on_c, 10, 74, 118
13, 43304, Note_on_c, 10, 74, 0
13, 43394, Note_on_c, 10, 71, 105
13, 43546, Note_on_c, 10, 71, 0
13, 43588, Note_on_c, 10, 69, 107
13, 43632, Note_on_c, 10, 69, 0
13, 43676, Note_on_c, 10, 71, 127
13, 43822, Note_on_c, 10, 71, 0
13, 44728, Note_on_c, 10, 74, 109
13, 44828, Pitch_bend_c, 10, 8160
13, 44836, Pitch_bend_c, 10, 8032
13, 44848, Pitch_bend_c, 10, 7680
13, 44862, Pitch_bend_c, 10, 7456
13, 44878, Pitch_bend_c, 10, 7136
13, 44888, Pitch_bend_c, 10, 6496
13, 44906, Pitch_bend_c, 10, 6144
13, 44972, Note_on_c, 10, 74, 0
13, 45016, Pitch_bend_c, 10, 6656
13, 45038, Pitch_bend_c, 10, 7456
13, 45046, Pitch_bend_c, 10, 7904
13, 45058, Pitch_bend_c, 10, 8160
13, 45070, Pitch_bend_c, 10, 8192
13, 45118, Note_on_c, 10, 74, 107
13, 45276, Pitch_bend_c, 10, 8064
13, 45280, Pitch_bend_c, 10, 8032
13, 45294, Pitch_bend_c, 10, 7584
13, 45312, Pitch_bend_c, 10, 7488
13, 45372, Note_on_c, 10, 74, 0
13, 45618, Pitch_bend_c, 10, 7712
13, 45632, Pitch_bend_c, 10, 7872
13, 45644, Pitch_bend_c, 10, 8160
13, 45660, Pitch_bend_c, 10, 8192
13, 45808, Note_on_c, 10, 64, 127
13, 45836, Note_on_c, 10, 64, 0
13, 45862, Note_on_c, 10, 66, 127
13, 45916, Note_on_c, 10, 66, 0
13, 45918, Note_on_c, 10, 69, 127
13, 45942, Note_on_c, 10, 69, 0
13, 45976, Note_on_c, 10, 71, 127
13, 46010, Note_on_c, 10, 71, 0
13, 46088, Note_on_c, 10, 74, 68
13, 46462, Note_on_c, 10, 74, 0
13, 47410, Note_on_c, 10, 69, 47
13, 47506, Note_on_c, 10, 71, 43
13, 47530, Note_on_c, 10, 69, 0
13, 47550, Note_on_c, 10, 71, 0
13, 47570, Pitch_bend_c, 10, 7936
13, 47580, Pitch_bend_c, 10, 7008
13, 47620, Note_on_c, 10, 71, 64
13, 47690, Pitch_bend_c, 10, 6912
13, 47702, Pitch_bend_c, 10, 7168
13, 47716, Pitch_bend_c, 10, 7360
13, 47732, Pitch_bend_c, 10, 7488
13, 47748, Pitch_bend_c, 10, 7616
13, 47760, Pitch_bend_c, 10, 7936
13, 47772, Pitch_bend_c, 10, 8160
13, 47786, Pitch_bend_c, 10, 8192
13, 47864, Note_on_c, 10, 71, 0
13, 48982, Note_on_c, 10, 69, 46
13, 49068, Note_on_c, 10, 71, 41
13, 49092, Note_on_c, 10, 69, 0
13, 49112, Note_on_c, 10, 71, 0
13, 49134, Pitch_bend_c, 10, 8128
13, 49150, Pitch_bend_c, 10, 7328
13, 49178, Note_on_c, 10, 71, 61
13, 49274, Pitch_bend_c, 10, 6944
13, 49296, Pitch_bend_c, 10, 7072
13, 49300, Pitch_bend_c, 10, 7200
13, 49312, Pitch_bend_c, 10, 7424
13, 49330, Pitch_bend_c, 10, 7552
13, 49342, Pitch_bend_c, 10, 7840
13, 49358, Pitch_bend_c, 10, 8032
13, 49368, Pitch_bend_c, 10, 8128
13, 49384, Pitch_bend_c, 10, 8192
13, 49424, Note_on_c, 10, 71, 0
13, 50494, Note_on_c, 10, 69, 61
13, 50566, Note_on_c, 10, 71, 27
13, 50596, Note_on_c, 10, 69, 0
13, 50628, Note_on_c, 10, 71, 0
13, 50644, Pitch_bend_c, 10, 7776
13, 50658, Pitch_bend_c, 10, 7072
13, 50702, Note_on_c, 10, 71, 61
13, 50780, Pitch_bend_c, 10, 6784
13, 50786, Pitch_bend_c, 10, 7008
13, 50796, Pitch_bend_c, 10, 7072
13, 50810, Pitch_bend_c, 10, 7296
13, 50834, Pitch_bend_c, 10, 7456
13, 50838, Pitch_bend_c, 10, 7712
13, 50854, Pitch_bend_c, 10, 8032
13, 50868, Pitch_bend_c, 10, 8064
13, 50882, Pitch_bend_c, 10, 8192
13, 50950, Note_on_c, 10, 71, 0
13, 51838, Note_on_c, 10, 71, 102
13, 52010, Note_on_c, 10, 73, 118
13, 52032, Note_on_c, 10, 71, 0
13, 52074, Note_on_c, 10, 73, 0
13, 52224, Note_on_c, 10, 74, 102
13, 52390, Note_on_c, 10, 73, 81
13, 52418, Note_on_c, 10, 74, 0
13, 52460, Note_on_c, 10, 73, 0
13, 52614, Note_on_c, 10, 71, 100
13, 52788, Note_on_c, 10, 71, 0
13, 52790, Note_on_c, 10, 69, 83
13, 52916, Note_on_c, 10, 69, 0
13, 52984, Note_on_c, 10, 71, 102
13, 53212, Note_on_c, 10, 71, 0
13, 53288, Pitch_bend_c, 10, 8096
13, 53304, Pitch_bend_c, 10, 7840
13, 53316, Pitch_bend_c, 10, 7904
13, 53330, Pitch_bend_c, 10, 7584
13, 53370, Note_on_c, 10, 66, 91
13, 53374, Note_on_c, 10, 74, 92
13, 53470, Pitch_bend_c, 10, 7776
13, 53494, Pitch_bend_c, 10, 7712
13, 53498, Pitch_bend_c, 10, 7904
13, 53514, Pitch_bend_c, 10, 7840
13, 53530, Pitch_bend_c, 10, 7904
13, 53540, Pitch_bend_c, 10, 7936
13, 53556, Pitch_bend_c, 10, 8128
13, 53588, Pitch_bend_c, 10, 8192
13, 53638, Note_on_c, 10, 66, 0
13, 53650, Note_on_c, 10, 74, 0
13, 53680, Note_on_c, 10, 71, 90
13, 53696, Note_on_c, 10, 62, 96
13, 53784, Note_on_c, 10, 62, 0
13, 53800, Note_on_c, 10, 71, 0
13, 54910, Note_on_c, 10, 71, 92
13, 55082, Note_on_c, 10, 73, 78
13, 55104, Note_on_c, 10, 71, 0
13, 55146, Note_on_c, 10, 73, 0
13, 55296, Note_on_c, 10, 74, 102
13, 55462, Note_on_c, 10, 73, 81
13, 55490, Note_on_c, 10, 74, 0
13, 55532, Note_on_c, 10, 73, 0
13, 55686, Note_on_c, 10, 71, 100
13, 55860, Note_on_c, 10, 71, 0
13, 55862, Note_on_c, 10, 69, 83
13, 55988, Note_on_c, 10, 69, 0
13, 56056, Note_on_c, 10, 71, 102
13, 56284, Note_on_c, 10, 71, 0
13, 56360, Pitch_bend_c, 10, 8128
13, 56372, Pitch_bend_c, 10, 7936
13, 56384, Pitch_bend_c, 10, 7904
13, 56402, Pitch_bend_c, 10, 7584
13, 56412, Pitch_bend_c, 10, 7584
13, 56442, Note_on_c, 10, 68, 91
13, 56446, Note_on_c, 10, 74, 92
13, 56542, Pitch_bend_c, 10, 7616
13, 56550, Pitch_bend_c, 10, 7776
13, 56566, Pitch_bend_c, 10, 7904
13, 56580, Pitch_bend_c, 10, 7840
13, 56602, Pitch_bend_c, 10, 7840
13, 56608, Pitch_bend_c, 10, 8000
13, 56622, Pitch_bend_c, 10, 8096
13, 56636, Pitch_bend_c, 10, 8128
13, 56660, Pitch_bend_c, 10, 8192
13, 56710, Note_on_c, 10, 68, 0
13, 56722, Note_on_c, 10, 74, 0
13, 56752, Note_on_c, 10, 64, 90
13, 56768, Note_on_c, 10, 68, 96
13, 56856, Note_on_c, 10, 68, 0
13, 56872, Note_on_c, 10, 64, 0
13, 57964, Note_on_c, 10, 71, 91
13, 58154, Note_on_c, 10, 73, 89
13, 58178, Note_on_c, 10, 71, 0
13, 58196, Note_on_c, 10, 73, 0
13, 58368, Note_on_c, 10, 74, 97
13, 58536, Note_on_c, 10, 73, 93
13, 58544, Note_on_c, 10, 74, 0
13, 58592, Note_on_c, 10, 73, 0
13, 58732, Note_on_c, 10, 71, 94
13, 58920, Note_on_c, 10, 69, 100
13, 58962, Note_on_c, 10, 71, 0
13, 58990, Note_on_c, 10, 69, 0
13, 59126, Note_on_c, 10, 71, 93
13, 59352, Note_on_c, 10, 71, 0
13, 59518, Note_on_c, 10, 71, 97
13, 59700, Note_on_c, 10, 73, 101
13, 59728, Note_on_c, 10, 71, 0
13, 59748, Note_on_c, 10, 73, 0
13, 59818, Note_on_c, 10, 74, 109
13, 60004, Note_on_c, 10, 74, 0
13, 60006, Note_on_c, 10, 73, 104
13, 60058, Note_on_c, 10, 73, 0
13, 60076, Note_on_c, 10, 71, 105
13, 60170, Note_on_c, 10, 71, 0
13, 60578, Note_on_c, 10, 62, 107
13, 60624, Note_on_c, 10, 62, 0
13, 60638, Note_on_c, 10, 64, 111
13, 60740, Note_on_c, 10, 64, 0
13, 60762, Note_on_c, 10, 64, 92
13, 60818, Note_on_c, 10, 64, 0
13, 60844, Note_on_c, 10, 64, 101
13, 60952, Note_on_c, 10, 64, 0
13, 60964, Note_on_c, 10, 64, 96
13, 61040, Note_on_c, 10, 64, 0
13, 61058, Note_on_c, 10, 66, 117
13, 61168, Note_on_c, 10, 66, 0
13, 61262, Note_on_c, 10, 74, 104
13, 61408, Pitch_bend_c, 10, 8160
13, 61424, Pitch_bend_c, 10, 7840
13, 61442, Pitch_bend_c, 10, 7808
13, 61462, Pitch_bend_c, 10, 7584
13, 61470, Pitch_bend_c, 10, 7424
13, 61516, Pitch_bend_c, 10, 7424
13, 61520, Pitch_bend_c, 10, 7584
13, 61536, Pitch_bend_c, 10, 7744
13, 61550, Pitch_bend_c, 10, 7872
13, 61564, Pitch_bend_c, 10, 7808
13, 61582, Pitch_bend_c, 10, 7936
13, 61590, Pitch_bend_c, 10, 8000
13, 61608, Pitch_bend_c, 10, 8032
13, 61620, Pitch_bend_c, 10, 8160
13, 61640, Pitch_bend_c, 10, 8064
13, 61646, Pitch_bend_c, 10, 8064
13, 61660, Pitch_bend_c, 10, 8064
13, 61676, Pitch_bend_c, 10, 8192
13, 62616, Note_on_c, 10, 74, 0
13, 62696, Note_on_c, 10, 64, 87
13, 62764, Note_on_c, 10, 66, 114
13, 62782, Note_on_c, 10, 64, 0
13, 62804, Pitch_bend_c, 10, 8128
13, 62818, Pitch_bend_c, 10, 7744
13, 62824, Pitch_bend_c, 10, 6848
13, 62872, Pitch_bend_c, 10, 7936
13, 62880, Pitch_bend_c, 10, 8384
13, 62898, Pitch_bend_c, 10, 8192
13, 62954, Note_on_c, 10, 71, 100
13, 62966, Note_on_c, 10, 66, 0
13, 63836, Note_on_c, 10, 71, 0
13, 63942, Note_on_c, 10, 64, 102
13, 64034, Note_on_c, 10, 64, 0
13, 64144, Note_on_c, 10, 62, 100
13, 64308, Note_on_c, 10, 64, 94
13, 64352, Note_on_c, 10, 62, 0
13, 64368, Note_on_c, 10, 64, 0
13, 64400, Note_on_c, 10, 66, 110
13, 64644, Note_on_c, 10, 66, 0
13, 65430, Note_on_c, 10, 64, 82
13, 65472, Note_on_c, 10, 64, 0
13, 65492, Note_on_c, 10, 62, 83
13, 65532, Note_on_c, 10, 64, 101
13, 65558, Note_on_c, 10, 62, 0
13, 65884, Note_on_c, 10, 64, 0
13, 65892, Note_on_c, 10, 66, 101
13, 66590, Note_on_c, 10, 66, 0
13, 66752, Note_on_c, 10, 66, 99
13, 66800, Note_on_c, 10, 66, 0
13, 66802, Note_on_c, 10, 69, 111
13, 66910, Note_on_c, 10, 69, 0
13, 66926, Note_on_c, 10, 66, 103
13, 66978, Note_on_c, 10, 66, 0
13, 67000, Note_on_c, 10, 69, 109
13, 67118, Note_on_c, 10, 69, 0
13, 67126, Note_on_c, 10, 66, 101
13, 67172, Note_on_c, 10, 66, 0
13, 67222, Note_on_c, 10, 69, 105
13, 67284, Note_on_c, 10, 69, 0
13, 67300, Note_on_c, 10, 66, 106
13, 67358, Note_on_c, 10, 66, 0
13, 67412, Note_on_c, 10, 76, 112
13, 68136, Note_on_c, 10, 74, 74
13, 68190, Note_on_c, 10, 74, 0
13, 68190, Note_on_c, 10, 76, 0
13, 68192, Note_on_c, 10, 71, 90
13, 68206, Note_on_c, 10, 69, 74
13, 68226, Note_on_c, 10, 71, 0
13, 68286, Note_on_c, 10, 71, 102
13, 68300, Note_on_c, 10, 69, 0
13, 68562, Note_on_c, 10, 74, 100
13, 68564, Note_on_c, 10, 71, 0
13, 69336, Note_on_c, 10, 71, 63
13, 69340, Note_on_c, 10, 69, 86
13, 69360, Note_on_c, 10, 74, 0
13, 69372, Note_on_c, 10, 71, 0
13, 69422, Note_on_c, 10, 66, 91
13, 69430, Note_on_c, 10, 69, 0
13, 69442, Note_on_c, 10, 64, 102
13, 69468, Note_on_c, 10, 66, 0
13, 69510, Note_on_c, 10, 66, 106
13, 69532, Note_on_c, 10, 64, 0
13, 69806, Note_on_c, 10, 66, 0
13, 69888, Note_on_c, 10, 66, 110
13, 70028, Note_on_c, 10, 66, 0
13, 70074, Note_on_c, 10, 69, 98
13, 70140, Note_on_c, 10, 69, 0
13, 70264, Note_on_c, 10, 71, 104
13, 70334, Note_on_c, 10, 71, 0
13, 70438, Pitch_bend_c, 10, 8352
13, 70456, Pitch_bend_c, 10, 9280
13, 70462, Note_on_c, 10, 64, 109
13, 70512, Pitch_bend_c, 10, 8320
13, 70522, Pitch_bend_c, 10, 8192
13, 71218, Note_on_c, 10, 62, 93
13, 71246, Note_on_c, 10, 64, 0
13, 71344, Note_on_c, 10, 62, 0
13, 71354, Note_on_c, 10, 59, 72
13, 71418, Note_on_c, 10, 62, 91
13, 71436, Note_on_c, 10, 59, 0
13, 71602, Note_on_c, 10, 64, 111
13, 71636, Note_on_c, 10, 62, 0
13, 72110, Note_on_c, 10, 64, 0
13, 73456, Note_on_c, 10, 71, 107
13, 73484, Note_on_c, 10, 71, 0
13, 73510, Note_on_c, 10, 74, 107
13, 73564, Note_on_c, 10, 74, 0
13, 73566, Note_on_c, 10, 78, 107
13, 73590, Note_on_c, 10, 78, 0
13, 73624, Note_on_c, 10, 81, 107
13, 73668, Note_on_c, 10, 81, 0
13, 73736, Note_on_c, 10, 86, 98
13, 74024, Note_on_c, 10, 86, 0
13, 74114, Note_on_c, 10, 83, 85
13, 74266, Note_on_c, 10, 83, 0
13, 74308, Note_on_c, 10, 81, 87
13, 74352, Note_on_c, 10, 81, 0
13, 74396, Note_on_c, 10, 83, 107
13, 74542, Note_on_c, 10, 83, 0
13, 75448, Note_on_c, 10, 86, 89
13, 75548, Pitch_bend_c, 10, 8032
13, 75564, Pitch_bend_c, 10, 7680
13, 75582, Pitch_bend_c, 10, 7456
13, 75598, Pitch_bend_c, 10, 7136
13, 75608, Pitch_bend_c, 10, 6752
13, 75620, Pitch_bend_c, 10, 6144
13, 75692, Note_on_c, 10, 86, 0
13, 75736, Pitch_bend_c, 10, 6496
13, 75744, Pitch_bend_c, 10, 6656
13, 75758, Pitch_bend_c, 10, 7904
13, 75778, Pitch_bend_c, 10, 8160
13, 75790, Pitch_bend_c, 10, 8192
13, 75838, Note_on_c, 10, 86, 87
13, 75996, Pitch_bend_c, 10, 8032
13, 76014, Pitch_bend_c, 10, 7712
13, 76024, Pitch_bend_c, 10, 7488
13, 76092, Note_on_c, 10, 86, 0
13, 76338, Pitch_bend_c, 10, 7648
13, 76346, Pitch_bend_c, 10, 7872
13, 76364, Pitch_bend_c, 10, 8096
13, 76376, Pitch_bend_c, 10, 8192
13, 76528, Note_on_c, 10, 76, 107
13, 76556, Note_on_c, 10, 76, 0
13, 76582, Note_on_c, 10, 78, 107
13, 76636, Note_on_c, 10, 78, 0
13, 76638, Note_on_c, 10, 81, 107
13, 76662, Note_on_c, 10, 81, 0
13, 76696, Note_on_c, 10, 83, 107
13, 76730, Note_on_c, 10, 83, 0
13, 76808, Note_on_c, 10, 86, 98
13, 77096, Note_on_c, 10, 86, 0
13, 77186, Note_on_c, 10, 83, 85
13, 77338, Note_on_c, 10, 83, 0
13, 77380, Note_on_c, 10, 81, 87
13, 77424, Note_on_c, 10, 81, 0
13, 77468, Note_on_c, 10, 83, 107
13, 77614, Note_on_c, 10, 83, 0
13, 78520, Note_on_c, 10, 86, 89
13, 78620, Pitch_bend_c, 10, 8160
13, 78628, Pitch_bend_c, 10, 7808
13, 78646, Pitch_bend_c, 10, 7552
13, 78658, Pitch_bend_c, 10, 7456
13, 78670, Pitch_bend_c, 10, 6848
13, 78688, Pitch_bend_c, 10, 6496
13, 78698, Pitch_bend_c, 10, 6144
13, 78764, Note_on_c, 10, 86, 0
13, 78808, Pitch_bend_c, 10, 6368
13, 78814, Pitch_bend_c, 10, 6656
13, 78830, Pitch_bend_c, 10, 7456
13, 78838, Pitch_bend_c, 10, 8160
13, 78862, Pitch_bend_c, 10, 8192
13, 78910, Note_on_c, 10, 86, 87
13, 79068, Pitch_bend_c, 10, 8096
13, 79076, Pitch_bend_c, 10, 7808
13, 79090, Pitch_bend_c, 10, 7584
13, 79104, Pitch_bend_c, 10, 7488
13, 79164, Note_on_c, 10, 86, 0
13, 79410, Pitch_bend_c, 10, 7424
13, 79414, Pitch_bend_c, 10, 7872
13, 79436, Pitch_bend_c, 10, 8096
13, 79440, Pitch_bend_c, 10, 8192
13, 79600, Note_on_c, 10, 76, 107
13, 79628, Note_on_c, 10, 76, 0
13, 79654, Note_on_c, 10, 78, 107
13, 79708, Note_on_c, 10, 78, 0
13, 79710, Note_on_c, 10, 81, 107
13, 79734, Note_on_c, 10, 81, 0
13, 79768, Note_on_c, 10, 83, 107
13, 79802, Note_on_c, 10, 83, 0
13, 79880, Note_on_c, 10, 86, 98
13, 80168, Note_on_c, 10, 86, 0
13, 80258, Note_on_c, 10, 83, 85
13, 80410, Note_on_c, 10, 83, 0
13, 80452, Note_on_c, 10, 81, 87
13, 80496, Note_on_c, 10, 81, 0
13, 80540, Note_on_c, 10, 83, 107
13, 80686, Note_on_c, 10, 83, 0
13, 81592, Note_on_c, 10, 86, 89
13, 81692, Pitch_bend_c, 10, 8160
13, 81700, Pitch_bend_c, 10, 8032
13, 81708, Pitch_bend_c, 10, 7680
13, 81726, Pitch_bend_c, 10, 7456
13, 81742, Pitch_bend_c, 10, 7136
13, 81752, Pitch_bend_c, 10, 6752
13, 81764, Pitch_bend_c, 10, 6144
13, 81836, Note_on_c, 10, 86, 0
13, 81880, Pitch_bend_c, 10, 6656
13, 81902, Pitch_bend_c, 10, 7168
13, 81904, Pitch_bend_c, 10, 7904
13, 81922, Pitch_bend_c, 10, 8160
13, 81934, Pitch_bend_c, 10, 8192
13, 81982, Note_on_c, 10, 86, 87
13, 82140, Pitch_bend_c, 10, 8064
13, 82144, Pitch_bend_c, 10, 8032
13, 82158, Pitch_bend_c, 10, 7584
13, 82176, Pitch_bend_c, 10, 7488
13, 82236, Note_on_c, 10, 86, 0
13, 82482, Pitch_bend_c, 10, 7712
13, 82496, Pitch_bend_c, 10, 7872
13, 82508, Pitch_bend_c, 10, 8096
13, 82520, Pitch_bend_c, 10, 8192
13, 82672, Note_on_c, 10, 76, 107
13, 82700, Note_on_c, 10, 76, 0
13, 82726, Note_on_c, 10, 78, 107
13, 82780, Note_on_c, 10, 78, 0
13, 82782, Note_on_c, 10, 81, 107
13, 82806, Note_on_c, 10, 81, 0
13, 82840, Note_on_c, 10, 83, 107
13, 82874, Note_on_c, 10, 83, 0
13, 82952, Note_on_c, 10, 86, 98
13, 83240, Note_on_c, 10, 86, 0
13, 83330, Note_on_c, 10, 83, 85
13, 83482, Note_on_c, 10, 83, 0
13, 83524, Note_on_c, 10, 81, 87
13, 83568, Note_on_c, 10, 81, 0
13, 83612, Note_on_c, 10, 83, 107
13, 83758, Note_on_c, 10, 83, 0
13, 84664, Note_on_c, 10, 86, 89
13, 84764, Pitch_bend_c, 10, 8096
13, 84776, Pitch_bend_c, 10, 7808
13, 84790, Pitch_bend_c, 10, 7552
13, 84802, Pitch_bend_c, 10, 7232
13, 84818, Pitch_bend_c, 10, 6848
13, 84832, Pitch_bend_c, 10, 6336
13, 84844, Pitch_bend_c, 10, 6144
13, 84908, Note_on_c, 10, 86, 0
13, 84952, Pitch_bend_c, 10, 6368
13, 84958, Pitch_bend_c, 10, 6656
13, 84974, Pitch_bend_c, 10, 7776
13, 84986, Pitch_bend_c, 10, 8160
13, 85006, Pitch_bend_c, 10, 8192
13, 85054, Note_on_c, 10, 86, 87
13, 85212, Pitch_bend_c, 10, 8032
13, 85230, Pitch_bend_c, 10, 7712
13, 85240, Pitch_bend_c, 10, 7488
13, 85308, Note_on_c, 10, 86, 0
13, 85554, Pitch_bend_c, 10, 7424
13, 85558, Pitch_bend_c, 10, 7872
13, 85580, Pitch_bend_c, 10, 8096
13, 85592, Pitch_bend_c, 10, 8192
13, 85744, Note_on_c, 10, 76, 127
13, 85772, Note_on_c, 10, 76, 0
13, 85798, Note_on_c, 10, 78, 127
13, 85852, Note_on_c, 10, 78, 0
13, 85854, Note_on_c, 10, 81, 127
13, 85878, Note_on_c, 10, 81, 0
13, 85912, Note_on_c, 10, 83, 127
13, 85946, Note_on_c, 10, 83, 0
13, 86024, Note_on_c, 10, 86, 68
13, 86398, Note_on_c, 10, 86, 0
13, 87346, Note_on_c, 10, 81, 47
13, 87442, Note_on_c, 10, 83, 43
13, 87466, Note_on_c, 10, 81, 0
13, 87486, Note_on_c, 10, 83, 0
13, 87506, Pitch_bend_c, 10, 7744
13, 87520, Pitch_bend_c, 10, 7008
13, 87556, Note_on_c, 10, 83, 64
13, 87626, Pitch_bend_c, 10, 6816
13, 87634, Pitch_bend_c, 10, 7200
13, 87646, Pitch_bend_c, 10, 7296
13, 87660, Pitch_bend_c, 10, 7424
13, 87672, Pitch_bend_c, 10, 7616
13, 87696, Pitch_bend_c, 10, 7680
13, 87700, Pitch_bend_c, 10, 8000
13, 87718, Pitch_bend_c, 10, 8160
13, 87730, Pitch_bend_c, 10, 8192
13, 87800, Note_on_c, 10, 83, 0
13, 88918, Note_on_c, 10, 81, 46
13, 89004, Note_on_c, 10, 83, 41
13, 89028, Note_on_c, 10, 81, 0
13, 89048, Note_on_c, 10, 83, 0
13, 89070, Pitch_bend_c, 10, 8128
13, 89074, Pitch_bend_c, 10, 8128
13, 89086, Pitch_bend_c, 10, 7328
13, 89114, Note_on_c, 10, 83, 61
13, 89210, Pitch_bend_c, 10, 6784
13, 89214, Pitch_bend_c, 10, 6944
13, 89232, Pitch_bend_c, 10, 7232
13, 89240, Pitch_bend_c, 10, 7360
13, 89256, Pitch_bend_c, 10, 7424
13, 89270, Pitch_bend_c, 10, 7616
13, 89282, Pitch_bend_c, 10, 7840
13, 89298, Pitch_bend_c, 10, 8096
13, 89312, Pitch_bend_c, 10, 8192
13, 89360, Note_on_c, 10, 83, 0
13, 90430, Note_on_c, 10, 81, 61
13, 90502, Note_on_c, 10, 83, 27
13, 90532, Note_on_c, 10, 81, 0
13, 90564, Note_on_c, 10, 83, 0
13, 90580, Pitch_bend_c, 10, 8032
13, 90590, Pitch_bend_c, 10, 7520
13, 90598, Pitch_bend_c, 10, 7072
13, 90638, Note_on_c, 10, 83, 61
13, 90716, Pitch_bend_c, 10, 6944
13, 90726, Pitch_bend_c, 10, 6976
13, 90738, Pitch_bend_c, 10, 7136
13, 90756, Pitch_bend_c, 10, 7296
13, 90770, Pitch_bend_c, 10, 7616
13, 90782, Pitch_bend_c, 10, 7808
13, 90794, Pitch_bend_c, 10, 8096
13, 90808, Pitch_bend_c, 10, 8160
13, 90826, Pitch_bend_c, 10, 8192
13, 90886, Note_on_c, 10, 83, 0
13, 92160, Note_on_c, 10, 69, 107
13, 92310, Note_on_c, 10, 69, 0
13, 92354, Note_on_c, 10, 69, 92
13, 92400, Note_on_c, 10, 69, 0
13, 92458, Note_on_c, 10, 69, 91
13, 92528, Note_on_c, 10, 69, 0
13, 92656, Note_on_c, 10, 69, 98
13, 92722, Note_on_c, 10, 69, 0
13, 92842, Note_on_c, 10, 69, 104
13, 92916, Note_on_c, 10, 69, 0
13, 93034, Note_on_c, 10, 67, 96
13, 93094, Note_on_c, 10, 67, 0
13, 93214, Note_on_c, 10, 66, 106
13, 93386, Note_on_c, 10, 66, 0
13, 93418, Note_on_c, 10, 67, 96
13, 93520, Note_on_c, 10, 67, 0
13, 93610, Note_on_c, 10, 69, 105
13, 93854, Note_on_c, 10, 69, 0
13, 93884, Note_on_c, 10, 69, 83
13, 93940, Note_on_c, 10, 69, 0
13, 93988, Note_on_c, 10, 69, 96
13, 94054, Note_on_c, 10, 69, 0
13, 94176, Note_on_c, 10, 69, 98
13, 94230, Note_on_c, 10, 69, 0
13, 94360, Note_on_c, 10, 69, 101
13, 94434, Note_on_c, 10, 69, 0
13, 94546, Note_on_c, 10, 67, 91
13, 94628, Note_on_c, 10, 67, 0
13, 94742, Note_on_c, 10, 66, 106
13, 94948, Note_on_c, 10, 66, 0
13, 94960, Note_on_c, 10, 66, 96
13, 95030, Note_on_c, 10, 66, 0
13, 95140, Note_on_c, 10, 69, 105
13, 95330, Note_on_c, 10, 69, 0
13, 95372, Note_on_c, 10, 69, 93
13, 95428, Note_on_c, 10, 69, 0
13, 95522, Note_on_c, 10, 69, 88
13, 95564, Note_on_c, 10, 69, 0
13, 95690, Note_on_c, 10, 69, 90
13, 95756, Note_on_c, 10, 69, 0
13, 95886, Note_on_c, 10, 69, 93
13, 95960, Note_on_c, 10, 69, 0
13, 96068, Note_on_c, 10, 67, 82
13, 96132, Note_on_c, 10, 67, 0
13, 96250, Note_on_c, 10, 66, 85
13, 96418, Note_on_c, 10, 66, 0
13, 96452, Note_on_c, 10, 67, 84
13, 96522, Note_on_c, 10, 67, 0
13, 96638, Note_on_c, 10, 66, 99
13, 96872, Note_on_c, 10, 66, 0
13, 98304, Note_on_c, 10, 69, 107
13, 98454, Note_on_c, 10, 69, 0
13, 98498, Note_on_c, 10, 69, 92
13, 98544, Note_on_c, 10, 69, 0
13, 98602, Note_on_c, 10, 69, 91
13, 98672, Note_on_c, 10, 69, 0
13, 98800, Note_on_c, 10, 69, 98
13, 98866, Note_on_c, 10, 69, 0
13, 98986, Note_on_c, 10, 69, 104
13, 99060, Note_on_c, 10, 69, 0
13, 99178, Note_on_c, 10, 67, 96
13, 99238, Note_on_c, 10, 67, 0
13, 99358, Note_on_c, 10, 66, 106
13, 99530, Note_on_c, 10, 66, 0
13, 99562, Note_on_c, 10, 67, 96
13, 99664, Note_on_c, 10, 67, 0
13, 99754, Note_on_c, 10, 69, 105
13, 99998, Note_on_c, 10, 69, 0
13, 100028, Note_on_c, 10, 69, 83
13, 100084, Note_on_c, 10, 69, 0
13, 100132, Note_on_c, 10, 69, 96
13, 100198, Note_on_c, 10, 69, 0
13, 100320, Note_on_c, 10, 69, 98
13, 100374, Note_on_c, 10, 69, 0
13, 100504, Note_on_c, 10, 69, 101
13, 100578, Note_on_c, 10, 69, 0
13, 100690, Note_on_c, 10, 67, 91
13, 100772, Note_on_c, 10, 67, 0
13, 100886, Note_on_c, 10, 66, 106
13, 101092, Note_on_c, 10, 66, 0
13, 101104, Note_on_c, 10, 66, 96
13, 101174, Note_on_c, 10, 66, 0
13, 101284, Note_on_c, 10, 69, 105
13, 101474, Note_on_c, 10, 69, 0
13, 101516, Note_on_c, 10, 69, 93
13, 101572, Note_on_c, 10, 69, 0
13, 101666, Note_on_c, 10, 69, 88
13, 101708, Note_on_c, 10, 69, 0
13, 101834, Note_on_c, 10, 69, 90
13, 101900, Note_on_c, 10, 69, 0
13, 102030, Note_on_c, 10, 69, 93
13, 102104, Note_on_c, 10, 69, 0
13, 102212, Note_on_c, 10, 67, 82
13, 102276, Note_on_c, 10, 67, 0
13, 102394, Note_on_c, 10, 66, 85
13, 102562, Note_on_c, 10, 66, 0
13, 102596, Note_on_c, 10, 67, 84
13, 102666, Note_on_c, 10, 67, 0
13, 102782, Note_on_c, 10, 66, 99
13, 103016, Note_on_c, 10, 66, 0
13, 104062, Note_on_c, 10, 71, 92
13, 104234, Note_on_c, 10, 73, 78
13, 104256, Note_on_c, 10, 71, 0
13, 104298, Note_on_c, 10, 73, 0
13, 104448, Note_on_c, 10, 74, 102
13, 104614, Note_on_c, 10, 73, 81
13, 104642, Note_on_c, 10, 74, 0
13, 104684, Note_on_c, 10, 73, 0
13, 104838, Note_on_c, 10, 71, 100
13, 105012, Note_on_c, 10, 71, 0
13, 105014, Note_on_c, 10, 69, 83
13, 105140, Note_on_c, 10, 69, 0
13, 105208, Note_on_c, 10, 71, 102
13, 105436, Note_on_c, 10, 71, 0
13, 105512, Pitch_bend_c, 10, 8128
13, 105524, Pitch_bend_c, 10, 7936
13, 105536, Pitch_bend_c, 10, 7904
13, 105554, Pitch_bend_c, 10, 7584
13, 105564, Pitch_bend_c, 10, 7584
13, 105594, Note_on_c, 10, 66, 91
13, 105598, Note_on_c, 10, 74, 92
13, 105694, Pitch_bend_c, 10, 7776
13, 105706, Pitch_bend_c, 10, 7776
13, 105718, Pitch_bend_c, 10, 7904
13, 105732, Pitch_bend_c, 10, 7840
13, 105754, Pitch_bend_c, 10, 7840
13, 105760, Pitch_bend_c, 10, 8000
13, 105774, Pitch_bend_c, 10, 8096
13, 105788, Pitch_bend_c, 10, 8128
13, 105812, Pitch_bend_c, 10, 8192
13, 105862, Note_on_c, 10, 66, 0
13, 105874, Note_on_c, 10, 74, 0
13, 105904, Note_on_c, 10, 71, 90
13, 105920, Note_on_c, 10, 62, 96
13, 106008, Note_on_c, 10, 62, 0
13, 106024, Note_on_c, 10, 71, 0
13, 107134, Note_on_c, 10, 71, 92
13, 107306, Note_on_c, 10, 73, 78
13, 107328, Note_on_c, 10, 71, 0
13, 107370, Note_on_c, 10, 73, 0
13, 107520, Note_on_c, 10, 74, 102
13, 107686, Note_on_c, 10, 73, 81
13, 107714, Note_on_c, 10, 74, 0
13, 107756, Note_on_c, 10, 73, 0
13, 107910, Note_on_c, 10, 71, 100
13, 108084, Note_on_c, 10, 71, 0
13, 108086, Note_on_c, 10, 69, 83
13, 108212, Note_on_c, 10, 69, 0
13, 108280, Note_on_c, 10, 71, 102
13, 108508, Note_on_c, 10, 71, 0
13, 108584, Pitch_bend_c, 10, 8160
13, 108588, Pitch_bend_c, 10, 8032
13, 108604, Pitch_bend_c, 10, 7904
13, 108626, Pitch_bend_c, 10, 7680
13, 108632, Pitch_bend_c, 10, 7584
13, 108666, Note_on_c, 10, 68, 91
13, 108670, Note_on_c, 10, 74, 92
13, 108766, Pitch_bend_c, 10, 7552
13, 108770, Pitch_bend_c, 10, 7776
13, 108790, Pitch_bend_c, 10, 7872
13, 108800, Pitch_bend_c, 10, 7872
13, 108814, Pitch_bend_c, 10, 7840
13, 108826, Pitch_bend_c, 10, 8000
13, 108846, Pitch_bend_c, 10, 8032
13, 108856, Pitch_bend_c, 10, 8128
13, 108884, Pitch_bend_c, 10, 8192
13, 108934, Note_on_c, 10, 68, 0
13, 108946, Note_on_c, 10, 74, 0
13, 108976, Note_on_c, 10, 64, 90
13, 108992, Note_on_c, 10, 68, 96
13, 109080, Note_on_c, 10, 68, 0
13, 109096, Note_on_c, 10, 64, 0
13, 110188, Note_on_c, 10, 71, 91
13, 110378, Note_on_c, 10, 73, 89
13, 110402, Note_on_c, 10, 71, 0
13, 110420, Note_on_c, 10, 73, 0
13, 110592, Note_on_c, 10, 74, 97
13, 110760, Note_on_c, 10, 73, 93
13, 110768, Note_on_c, 10, 74, 0
13, 110816, Note_on_c, 10, 73, 0
13, 110956, Note_on_c, 10, 71, 94
13, 111144, Note_on_c, 10, 69, 100
13, 111186, Note_on_c, 10, 71, 0
13, 111214, Note_on_c, 10, 69, 0
13, 111350, Note_on_c, 10, 71, 93
13, 111576, Note_on_c, 10, 71, 0
13, 111742, Note_on_c, 10, 71, 97
13, 111924, Note_on_c, 10, 73, 101
13, 111952, Note_on_c, 10, 71, 0
13, 111972, Note_on_c, 10, 73, 0
13, 112042, Note_on_c, 10, 74, 109
13, 112228, Note_on_c, 10, 74, 0
13, 112230, Note_on_c, 10, 73, 104
13, 112282, Note_on_c, 10, 73, 0
13, 112300, Note_on_c, 10, 71, 105
13, 112394, Note_on_c, 10, 71, 0
13, 112802, Note_on_c, 10, 62, 107
13, 112848, Note_on_c, 10, 62, 0
13, 112862, Note_on_c, 10, 64, 111
13, 112964, Note_on_c, 10, 64, 0
13, 112986, Note_on_c, 10, 64, 92
13, 113042, Note_on_c, 10, 64, 0
13, 113068, Note_on_c, 10, 64, 101
13, 113176, Note_on_c, 10, 64, 0
13, 113188, Note_on_c, 10, 64, 96
13, 113264, Note_on_c, 10, 64, 0
13, 113282, Note_on_c, 10, 66, 117
13, 113392, Note_on_c, 10, 66, 0
13, 113486, Note_on_c, 10, 74, 104
13, 113632, Pitch_bend_c, 10, 8128
13, 113644, Pitch_bend_c, 10, 7968
13, 113656, Pitch_bend_c, 10, 7808
13, 113686, Pitch_bend_c, 10, 7488
13, 113698, Pitch_bend_c, 10, 7424
13, 113740, Pitch_bend_c, 10, 7648
13, 113754, Pitch_bend_c, 10, 7648
13, 113768, Pitch_bend_c, 10, 7744
13, 113782, Pitch_bend_c, 10, 7904
13, 113798, Pitch_bend_c, 10, 7840
13, 113810, Pitch_bend_c, 10, 8000
13, 113832, Pitch_bend_c, 10, 7936
13, 113840, Pitch_bend_c, 10, 8000
13, 113854, Pitch_bend_c, 10, 8064
13, 113870, Pitch_bend_c, 10, 8064
13, 113880, Pitch_bend_c, 10, 8064
13, 113900, Pitch_bend_c, 10, 8192
13, 114840, Note_on_c, 10, 74, 0
13, 114920, Note_on_c, 10, 64, 87
13, 114988, Note_on_c, 10, 66, 114
13, 115006, Note_on_c, 10, 64, 0
13, 115028, Pitch_bend_c, 10, 8128
13, 115042, Pitch_bend_c, 10, 6848
13, 115096, Pitch_bend_c, 10, 7456
13, 115100, Pitch_bend_c, 10, 8384
13, 115122, Pitch_bend_c, 10, 8160
13, 115126, Pitch_bend_c, 10, 8192
13, 115178, Note_on_c, 10, 71, 100
13, 115190, Note_on_c, 10, 66, 0
13, 116060, Note_on_c, 10, 71, 0
13, 116166, Note_on_c, 10, 64, 102
13, 116258, Note_on_c, 10, 64, 0
13, 116368, Note_on_c, 10, 62, 100
13, 116532, Note_on_c, 10, 64, 94
13, 116576, Note_on_c, 10, 62, 0
13, 116592, Note_on_c, 10, 64, 0
13, 116624, Note_on_c, 10, 66, 110
13, 116868, Note_on_c, 10, 66, 0
13, 117654, Note_on_c, 10, 64, 82
13, 117696, Note_on_c, 10, 64, 0
13, 117716, Note_on_c, 10, 62, 83
13, 117756, Note_on_c, 10, 64, 101
13, 117782, Note_on_c, 10, 62, 0
13, 118108, Note_on_c, 10, 64, 0
13, 118116, Note_on_c, 10, 66, 101
13, 118814, Note_on_c, 10, 66, 0
13, 118976, Note_on_c, 10, 66, 99
13, 119024, Note_on_c, 10, 66, 0
13, 119026, Note_on_c, 10, 69, 111
13, 119134, Note_on_c, 10, 69, 0
13, 119150, Note_on_c, 10, 66, 103
13, 119202, Note_on_c, 10, 66, 0
13, 119224, Note_on_c, 10, 69, 109
13, 119342, Note_on_c, 10, 69, 0
13, 119350, Note_on_c, 10, 66, 101
13, 119396, Note_on_c, 10, 66, 0
13, 119446, Note_on_c, 10, 69, 105
13, 119508, Note_on_c, 10, 69, 0
13, 119524, Note_on_c, 10, 66, 106
13, 119582, Note_on_c, 10, 66, 0
13, 119636, Note_on_c, 10, 76, 112
13, 120360, Note_on_c, 10, 74, 74
13, 120414, Note_on_c, 10, 74, 0
13, 120414, Note_on_c, 10, 76, 0
13, 120416, Note_on_c, 10, 71, 90
13, 120430, Note_on_c, 10, 69, 74
13, 120450, Note_on_c, 10, 71, 0
13, 120510, Note_on_c, 10, 71, 102
13, 120524, Note_on_c, 10, 69, 0
13, 120786, Note_on_c, 10, 74, 100
13, 120788, Note_on_c, 10, 71, 0
13, 121560, Note_on_c, 10, 71, 63
13, 121564, Note_on_c, 10, 69, 86
13, 121584, Note_on_c, 10, 74, 0
13, 121596, Note_on_c, 10, 71, 0
13, 121646, Note_on_c, 10, 66, 91
13, 121654, Note_on_c, 10, 69, 0
13, 121666, Note_on_c, 10, 64, 102
13, 121692, Note_on_c, 10, 66, 0
13, 121734, Note_on_c, 10, 66, 106
13, 121756, Note_on_c, 10, 64, 0
13, 122030, Note_on_c, 10, 66, 0
13, 122112, Note_on_c, 10, 66, 110
13, 122252, Note_on_c, 10, 66, 0
13, 122298, Note_on_c, 10, 69, 98
13, 122364, Note_on_c, 10, 69, 0
13, 122488, Note_on_c, 10, 71, 104
13, 122558, Note_on_c, 10, 71, 0
13, 122662, Pitch_bend_c, 10, 8352
13, 122680, Pitch_bend_c, 10, 9280
13, 122686, Note_on_c, 10, 64, 109
13, 122736, Pitch_bend_c, 10, 8864
13, 122742, Pitch_bend_c, 10, 8096
13, 122758, Pitch_bend_c, 10, 8192
13, 123442, Note_on_c, 10, 62, 93
13, 123470, Note_on_c, 10, 64, 0
13, 123568, Note_on_c, 10, 62, 0
13, 123578, Note_on_c, 10, 59, 72
13, 123642, Note_on_c, 10, 62, 91
13, 123660, Note_on_c, 10, 59, 0
13, 123826, Note_on_c, 10, 64, 111
13, 123860, Note_on_c, 10, 62, 0
13, 124334, Note_on_c, 10, 64, 0
13, 125680, Note_on_c, 10, 71, 107
13, 125708, Note_on_c, 10, 71, 0
13, 125734, Note_on_c, 10, 74, 107
13, 125788, Note_on_c, 10, 74, 0
13, 125790, Note_on_c, 10, 78, 107
13, 125814, Note_on_c, 10, 78, 0
13, 125848, Note_on_c, 10, 81, 107
13, 125892, Note_on_c, 10, 81, 0
13, 125960, Note_on_c, 10, 86, 98
13, 126248, Note_on_c, 10, 86, 0
13, 126338, Note_on_c, 10, 83, 85
13, 126490, Note_on_c, 10, 83, 0
13, 126532, Note_on_c, 10, 81, 87
13, 126576, Note_on_c, 10, 81, 0
13, 126620, Note_on_c, 10, 83, 107
13, 126766, Note_on_c, 10, 83, 0
13, 127672, Note_on_c, 10, 86, 89
13, 127772, Pitch_bend_c, 10, 8096
13, 127784, Pitch_bend_c, 10, 7808
13, 127798, Pitch_bend_c, 10, 7552
13, 127810, Pitch_bend_c, 10, 7232
13, 127826, Pitch_bend_c, 10, 6848
13, 127840, Pitch_bend_c, 10, 6336
13, 127852, Pitch_bend_c, 10, 6144
13, 127916, Note_on_c, 10, 86, 0
13, 127960, Pitch_bend_c, 10, 6368
13, 127966, Pitch_bend_c, 10, 6656
13, 127982, Pitch_bend_c, 10, 7776
13, 127994, Pitch_bend_c, 10, 8160
13, 128014, Pitch_bend_c, 10, 8192
13, 128062, Note_on_c, 10, 86, 87
13, 128220, Pitch_bend_c, 10, 8032
13, 128238, Pitch_bend_c, 10, 7712
13, 128248, Pitch_bend_c, 10, 7488
13, 128316, Note_on_c, 10, 86, 0
13, 128562, Pitch_bend_c, 10, 7424
13, 128566, Pitch_bend_c, 10, 7872
13, 128588, Pitch_bend_c, 10, 8096
13, 128600, Pitch_bend_c, 10, 8192
13, 128752, Note_on_c, 10, 76, 107
13, 128780, Note_on_c, 10, 76, 0
13, 128806, Note_on_c, 10, 78, 107
13, 128860, Note_on_c, 10, 78, 0
13, 128862, Note_on_c, 10, 81, 107
13, 128886, Note_on_c, 10, 81, 0
13, 128920, Note_on_c, 10, 83, 107
13, 128954, Note_on_c, 10, 83, 0
13, 129032, Note_on_c, 10, 86, 98
13, 129320, Note_on_c, 10, 86, 0
13, 129410, Note_on_c, 10, 83, 85
13, 129562, Note_on_c, 10, 83, 0
13, 129604, Note_on_c, 10, 81, 87
13, 129648, Note_on_c, 10, 81, 0
13, 129692, Note_on_c, 10, 83, 107
13, 129838, Note_on_c, 10, 83, 0
13, 130744, Note_on_c, 10, 86, 89
13, 130844, Pitch_bend_c, 10, 8160
13, 130852, Pitch_bend_c, 10, 8032
13, 130864, Pitch_bend_c, 10, 7680
13, 130878, Pitch_bend_c, 10, 7456
13, 130894, Pitch_bend_c, 10, 7136
13, 130904, Pitch_bend_c, 10, 6496
13, 130922, Pitch_bend_c, 10, 6144
13, 130988, Note_on_c, 10, 86, 0
13, 131032, Pitch_bend_c, 10, 6656
13, 131054, Pitch_bend_c, 10, 7456
13, 131062, Pitch_bend_c, 10, 7904
13, 131074, Pitch_bend_c, 10, 8160
13, 131086, Pitch_bend_c, 10, 8192
13, 131134, Note_on_c, 10, 86, 87
13, 131292, Pitch_bend_c, 10, 8064
13, 131296, Pitch_bend_c, 10, 8032
13, 131310, Pitch_bend_c, 10, 7584
13, 131328, Pitch_bend_c, 10, 7488
13, 131388, Note_on_c, 10, 86, 0
13, 131634, Pitch_bend_c, 10, 7712
13, 131648, Pitch_bend_c, 10, 7872
13, 131660, Pitch_bend_c, 10, 8160
13, 131676, Pitch_bend_c, 10, 8192
13, 131824, Note_on_c, 10, 76, 107
13, 131852, Note_on_c, 10, 76, 0
13, 131878, Note_on_c, 10, 78, 107
13, 131932, Note_on_c, 10, 78, 0
13, 131934, Note_on_c, 10, 81, 107
13, 131958, Note_on_c, 10, 81, 0
13, 131992, Note_on_c, 10, 83, 107
13, 132026, Note_on_c, 10, 83, 0
13, 132104, Note_on_c, 10, 86, 98
13, 132392, Note_on_c, 10, 86, 0
13, 132482, Note_on_c, 10, 83, 85
13, 132634, Note_on_c, 10, 83, 0
13, 132676, Note_on_c, 10, 81, 87
13, 132720, Note_on_c, 10, 81, 0
13, 132764, Note_on_c, 10, 83, 107
13, 132910, Note_on_c, 10, 83, 0
13, 133816, Note_on_c, 10, 86, 89
13, 133916, Pitch_bend_c, 10, 8096
13, 133928, Pitch_bend_c, 10, 7808
13, 133942, Pitch_bend_c, 10, 7456
13, 133966, Pitch_bend_c, 10, 7232
13, 133970, Pitch_bend_c, 10, 6848
13, 133984, Pitch_bend_c, 10, 6144
13, 134060, Note_on_c, 10, 86, 0
13, 134104, Pitch_bend_c, 10, 6368
13, 134110, Pitch_bend_c, 10, 6656
13, 134126, Pitch_bend_c, 10, 7776
13, 134138, Pitch_bend_c, 10, 8160
13, 134158, Pitch_bend_c, 10, 8192
13, 134206, Note_on_c, 10, 86, 87
13, 134364, Pitch_bend_c, 10, 8032
13, 134382, Pitch_bend_c, 10, 7712
13, 134392, Pitch_bend_c, 10, 7488
13, 134460, Note_on_c, 10, 86, 0
13, 134706, Pitch_bend_c, 10, 7648
13, 134714, Pitch_bend_c, 10, 7872
13, 134732, Pitch_bend_c, 10, 8096
13, 134744, Pitch_bend_c, 10, 8192
13, 134896, Note_on_c, 10, 76, 107
13, 134924, Note_on_c, 10, 76, 0
13, 134950, Note_on_c, 10, 78, 107
13, 135004, Note_on_c, 10, 78, 0
13, 135006, Note_on_c, 10, 81, 107
13, 135030, Note_on_c, 10, 81, 0
13, 135064, Note_on_c, 10, 83, 107
13, 135098, Note_on_c, 10, 83, 0
13, 135176, Note_on_c, 10, 86, 98
13, 135464, Note_on_c, 10, 86, 0
13, 135554, Note_on_c, 10, 83, 85
13, 135706, Note_on_c, 10, 83, 0
13, 135748, Note_on_c, 10, 81, 87
13, 135792, Note_on_c, 10, 81, 0
13, 135836, Note_on_c, 10, 83, 107
13, 135982, Note_on_c, 10, 83, 0
13, 136888, Note_on_c, 10, 86, 89
13, 136988, Pitch_bend_c, 10, 8160
13, 136996, Pitch_bend_c, 10, 8032
13, 137008, Pitch_bend_c, 10, 7680
13, 137022, Pitch_bend_c, 10, 7456
13, 137038, Pitch_bend_c, 10, 6848
13, 137056, Pitch_bend_c, 10, 6496
13, 137066, Pitch_bend_c, 10, 6144
13, 137132, Note_on_c, 10, 86, 0
13, 137176, Pitch_bend_c, 10, 6656
13, 137198, Pitch_bend_c, 10, 7456
13, 137206, Pitch_bend_c, 10, 7904
13, 137218, Pitch_bend_c, 10, 8192
13, 137278, Note_on_c, 10, 86, 87
13, 137436, Pitch_bend_c, 10, 8096
13, 137444, Pitch_bend_c, 10, 7808
13, 137458, Pitch_bend_c, 10, 7584
13, 137472, Pitch_bend_c, 10, 7488
13, 137532, Note_on_c, 10, 86, 0
13, 137778, Pitch_bend_c, 10, 7712
13, 137792, Pitch_bend_c, 10, 8096
13, 137808, Pitch_bend_c, 10, 8160
13, 137820, Pitch_bend_c, 10, 8192
13, 138240, Note_on_c, 10, 71, 123
13, 138338, Note_on_c, 10, 69, 104
13, 138346, Note_on_c, 10, 71, 0
13, 138388, Note_on_c, 10, 69, 0
13, 138434, Note_on_c, 10, 71, 116
13, 138626, Note_on_c, 10, 71, 0
13, 139690, Note_on_c, 10, 71, 86
13, 139730, Note_on_c, 10, 71, 0
13, 139742, Pitch_bend_c, 10, 7968
13, 139752, Pitch_bend_c, 10, 7072
13, 139756, Note_on_c, 10, 78, 103
13, 139808, Pitch_bend_c, 10, 7904
13, 139822, Pitch_bend_c, 10, 8192
13, 139862, Note_on_c, 10, 76, 78
13, 139870, Note_on_c, 10, 78, 0
13, 139938, Note_on_c, 10, 76, 0
13, 139944, Note_on_c, 10, 74, 88
13, 140012, Note_on_c, 10, 74, 0
13, 140028, Note_on_c, 10, 76, 63
13, 140100, Note_on_c, 10, 78, 96
13, 140114, Note_on_c, 10, 76, 0
13, 140210, Note_on_c, 10, 78, 0
13, 140212, Note_on_c, 10, 71, 100
13, 140254, Note_on_c, 10, 71, 0
13, 140312, Note_on_c, 10, 78, 91
13, 140316, Pitch_bend_c, 10, 7968
13, 140326, Pitch_bend_c, 10, 7008
13, 140380, Pitch_bend_c, 10, 7264
13, 140388, Pitch_bend_c, 10, 8160
13, 140408, Pitch_bend_c, 10, 8192
13, 140414, Note_on_c, 10, 76, 92
13, 140444, Note_on_c, 10, 78, 0
13, 140506, Note_on_c, 10, 74, 91
13, 140508, Note_on_c, 10, 76, 0
13, 140584, Note_on_c, 10, 74, 0
13, 140590, Note_on_c, 10, 76, 100
13, 140690, Note_on_c, 10, 78, 110
13, 140692, Note_on_c, 10, 76, 0
13, 140754, Note_on_c, 10, 78, 0
13, 141312, Note_on_c, 10, 71, 123
13, 141410, Note_on_c, 10, 69, 104
13, 141418, Note_on_c, 10, 71, 0
13, 141460, Note_on_c, 10, 69, 0
13, 141506, Note_on_c, 10, 71, 116
13, 141698, Note_on_c, 10, 71, 0
13, 142762, Note_on_c, 10, 71, 86
13, 142802, Note_on_c, 10, 71, 0
13, 142814, Pitch_bend_c, 10, 8064
13, 142820, Pitch_bend_c, 10, 7360
13, 142828, Note_on_c, 10, 78, 103
13, 142834, Pitch_bend_c, 10, 7072
13, 142880, Pitch_bend_c, 10, 7904
13, 142894, Pitch_bend_c, 10, 8192
13, 142934, Note_on_c, 10, 76, 78
13, 142942, Note_on_c, 10, 78, 0
13, 143010, Note_on_c, 10, 76, 0
13, 143016, Note_on_c, 10, 74, 88
13, 143084, Note_on_c, 10, 74, 0
13, 143100, Note_on_c, 10, 76, 63
13, 143172, Note_on_c, 10, 78, 96
13, 143186, Note_on_c, 10, 76, 0
13, 143282, Note_on_c, 10, 78, 0
13, 143284, Note_on_c, 10, 71, 100
13, 143326, Note_on_c, 10, 71, 0
13, 143384, Note_on_c, 10, 78, 91
13, 143388, Pitch_bend_c, 10, 8160
13, 143392, Pitch_bend_c, 10, 7616
13, 143406, Pitch_bend_c, 10, 7008
13, 143452, Pitch_bend_c, 10, 7744
13, 143464, Pitch_bend_c, 10, 8160
13, 143480, Pitch_bend_c, 10, 8192
13, 143486, Note_on_c, 10, 76, 92
13, 143516, Note_on_c, 10, 78, 0
13, 143578, Note_on_c, 10, 74, 91
13, 143580, Note_on_c, 10, 76, 0
13, 143656, Note_on_c, 10, 74, 0
13, 143662, Note_on_c, 10, 76, 100
13, 143762, Note_on_c, 10, 78, 110
13, 143764, Note_on_c, 10, 76, 0
13, 143826, Note_on_c, 10, 78, 0
13, 144384, Note_on_c, 10, 71, 123
13, 144482, Note_on_c, 10, 69, 104
13, 144490, Note_on_c, 10, 71, 0
13, 144532, Note_on_c, 10, 69, 0
13, 144578, Note_on_c, 10, 71, 116
13, 144770, Note_on_c, 10, 71, 0
13, 145834, Note_on_c, 10, 71, 86
13, 145874, Note_on_c, 10, 71, 0
13, 145886, Pitch_bend_c, 10, 7744
13, 145900, Note_on_c, 10, 78, 103
13, 145902, Pitch_bend_c, 10, 7072
13, 145952, Pitch_bend_c, 10, 7360
13, 145958, Pitch_bend_c, 10, 8192
13, 146006, Note_on_c, 10, 76, 78
13, 146014, Note_on_c, 10, 78, 0
13, 146082, Note_on_c, 10, 76, 0
13, 146088, Note_on_c, 10, 74, 88
13, 146156, Note_on_c, 10, 74, 0
13, 146172, Note_on_c, 10, 76, 63
13, 146244, Note_on_c, 10, 78, 96
13, 146258, Note_on_c, 10, 76, 0
13, 146354, Note_on_c, 10, 78, 0
13, 146356, Note_on_c, 10, 71, 100
13, 146398, Note_on_c, 10, 71, 0
13, 146456, Note_on_c, 10, 78, 91
13, 146460, Pitch_bend_c, 10, 7616
13, 146478, Pitch_bend_c, 10, 7008
13, 146524, Pitch_bend_c, 10, 7264
13, 146532, Pitch_bend_c, 10, 8160
13, 146552, Pitch_bend_c, 10, 8192
13, 146558, Note_on_c, 10, 76, 92
13, 146588, Note_on_c, 10, 78, 0
13, 146650, Note_on_c, 10, 74, 91
13, 146652, Note_on_c, 10, 76, 0
13, 146728, Note_on_c, 10, 74, 0
13, 146734, Note_on_c, 10, 76, 100
13, 146834, Note_on_c, 10, 78, 110
13, 146836, Note_on_c, 10, 76, 0
13, 146898, Note_on_c, 10, 78, 0
13, 147184, Note_on_c, 10, 71, 107
13, 147212, Note_on_c, 10, 71, 0
13, 147238, Note_on_c, 10, 74, 107
13, 147292, Note_on_c, 10, 74, 0
13, 147294, Note_on_c, 10, 78, 107
13, 147318, Note_on_c, 10, 78, 0
13, 147352, Note_on_c, 10, 81, 107
13, 147396, Note_on_c, 10, 81, 0
13, 147464, Note_on_c, 10, 86, 98
13, 147752, Note_on_c, 10, 86, 0
13, 147842, Note_on_c, 10, 83, 85
13, 147994, Note_on_c, 10, 83, 0
13, 148036, Note_on_c, 10, 81, 87
13, 148080, Note_on_c, 10, 81, 0
13, 148124, Note_on_c, 10, 83, 107
13, 148270, Note_on_c, 10, 83, 0
13, 149176, Note_on_c, 10, 86, 89
13, 149276, Pitch_bend_c, 10, 8096
13, 149288, Pitch_bend_c, 10, 7808
13, 149302, Pitch_bend_c, 10, 7552
13, 149314, Pitch_bend_c, 10, 7232
13, 149330, Pitch_bend_c, 10, 6848
13, 149344, Pitch_bend_c, 10, 6336
13, 149356, Pitch_bend_c, 10, 6144
13, 149420, Note_on_c, 10, 86, 0
13, 149464, Pitch_bend_c, 10, 6368
13, 149470, Pitch_bend_c, 10, 6656
13, 149486, Pitch_bend_c, 10, 7776
13, 149498, Pitch_bend_c, 10, 8160
13, 149518, Pitch_bend_c, 10, 8192
13, 149566, Note_on_c, 10, 86, 87
13, 149724, Pitch_bend_c, 10, 8032
13, 149742, Pitch_bend_c, 10, 7712
13, 149752, Pitch_bend_c, 10, 7488
13, 149820, Note_on_c, 10, 86, 0
13, 150066, Pitch_bend_c, 10, 7424
13, 150070, Pitch_bend_c, 10, 7872
13, 150092, Pitch_bend_c, 10, 8096
13, 150104, Pitch_bend_c, 10, 8192
13, 150256, Note_on_c, 10, 76, 107
13, 150284, Note_on_c, 10, 76, 0
13, 150310, Note_on_c, 10, 78, 107
13, 150364, Note_on_c, 10, 78, 0
13, 150366, Note_on_c, 10, 81, 107
13, 150390, Note_on_c, 10, 81, 0
13, 150424, Note_on_c, 10, 83, 107
13, 150458, Note_on_c, 10, 83, 0
13, 150536, Note_on_c, 10, 86, 98
13, 150824, Note_on_c, 10, 86, 0
13, 150914, Note_on_c, 10, 83, 85
13, 151066, Note_on_c, 10, 83, 0
13, 151108, Note_on_c, 10, 81, 87
13, 151152, Note_on_c, 10, 81, 0
13, 151196, Note_on_c, 10, 83, 107
13, 151342, Note_on_c, 10, 83, 0
13, 152248, Note_on_c, 10, 86, 89
13, 152348, Pitch_bend_c, 10, 8160
13, 152356, Pitch_bend_c, 10, 8032
13, 152368, Pitch_bend_c, 10, 7680
13, 152382, Pitch_bend_c, 10, 7456
13, 152398, Pitch_bend_c, 10, 7136
13, 152408, Pitch_bend_c, 10, 6496
13, 152426, Pitch_bend_c, 10, 6144
13, 152492, Note_on_c, 10, 86, 0
13, 152536, Pitch_bend_c, 10, 6656
13, 152558, Pitch_bend_c, 10, 7456
13, 152566, Pitch_bend_c, 10, 7904
13, 152578, Pitch_bend_c, 10, 8160
13, 152590, Pitch_bend_c, 10, 8192
13, 152638, Note_on_c, 10, 86, 87
13, 152796, Pitch_bend_c, 10, 8064
13, 152800, Pitch_bend_c, 10, 8032
13, 152814, Pitch_bend_c, 10, 7584
13, 152832, Pitch_bend_c, 10, 7488
13, 152892, Note_on_c, 10, 86, 0
13, 153138, Pitch_bend_c, 10, 7712
13, 153152, Pitch_bend_c, 10, 7872
13, 153164, Pitch_bend_c, 10, 8160
13, 153180, Pitch_bend_c, 10, 8192
13, 153328, Note_on_c, 10, 76, 107
13, 153356, Note_on_c, 10, 76, 0
13, 153382, Note_on_c, 10, 78, 107
13, 153436, Note_on_c, 10, 78, 0
13, 153438, Note_on_c, 10, 81, 107
13, 153462, Note_on_c, 10, 81, 0
13, 153496, Note_on_c, 10, 83, 107
13, 153530, Note_on_c, 10, 83, 0
13, 153608, Note_on_c, 10, 86, 98
13, 153896, Note_on_c, 10, 86, 0
13, 153986, Note_on_c, 10, 83, 85
13, 154112, Control_c, 10, 11, 126
13, 154138, Note_on_c, 10, 83, 0
13, 154152, Control_c, 10, 11, 125
13, 154180, Note_on_c, 10, 81, 87
13, 154205, Control_c, 10, 11, 124
13, 154224, Note_on_c, 10, 81, 0
13, 154258, Control_c, 10, 11, 122
13, 154268, Note_on_c, 10, 83, 107
13, 154290, Control_c, 10, 11, 121
13, 154324, Control_c, 10, 11, 120
13, 154377, Control_c, 10, 11, 119
13, 154414, Note_on_c, 10, 83, 0
13, 154415, Control_c, 10, 11, 118
13, 155292, Control_c, 10, 11, 85
13, 155320, Note_on_c, 10, 86, 89
13, 155373, Control_c, 10, 11, 84
13, 155420, Pitch_bend_c, 10, 8096
13, 155432, Pitch_bend_c, 10, 7808
13, 155446, Pitch_bend_c, 10, 7456
13, 155456, Control_c, 10, 11, 83
13, 155470, Pitch_bend_c, 10, 7232
13, 155474, Pitch_bend_c, 10, 6848
13, 155488, Pitch_bend_c, 10, 6144
13, 155521, Control_c, 10, 11, 81
13, 155564, Note_on_c, 10, 86, 0
13, 155579, Control_c, 10, 11, 79
13, 155608, Pitch_bend_c, 10, 6368
13, 155614, Pitch_bend_c, 10, 6656
13, 155630, Pitch_bend_c, 10, 7776
13, 155642, Pitch_bend_c, 10, 8160
13, 155662, Pitch_bend_c, 10, 8192
13, 155667, Control_c, 10, 11, 76
13, 155710, Note_on_c, 10, 86, 87
13, 155753, Control_c, 10, 11, 75
13, 155817, Control_c, 10, 11, 74
13, 155868, Pitch_bend_c, 10, 8032
13, 155872, Control_c, 10, 11, 73
13, 155886, Pitch_bend_c, 10, 7712
13, 155896, Pitch_bend_c, 10, 7488
13, 155947, Control_c, 10, 11, 71
13, 155964, Note_on_c, 10, 86, 0
13, 156001, Control_c, 10, 11, 69
13, 156210, Pitch_bend_c, 10, 7648
13, 156218, Pitch_bend_c, 10, 7872
13, 156236, Pitch_bend_c, 10, 8096
13, 156248, Pitch_bend_c, 10, 8192
13, 156355, Control_c, 10, 11, 62
13, 156400, Note_on_c, 10, 76, 107
13, 156428, Note_on_c, 10, 76, 0
13, 156454, Note_on_c, 10, 78, 107
13, 156473, Control_c, 10, 11, 60
13, 156508, Note_on_c, 10, 78, 0
13, 156510, Note_on_c, 10, 81, 107
13, 156526, Control_c, 10, 11, 58
13, 156534, Note_on_c, 10, 81, 0
13, 156568, Note_on_c, 10, 83, 107
13, 156602, Note_on_c, 10, 83, 0
13, 156612, Control_c, 10, 11, 57
13, 156680, Note_on_c, 10, 86, 98
13, 156684, Control_c, 10, 11, 55
13, 156790, Control_c, 10, 11, 54
13, 156846, Control_c, 10, 11, 52
13, 156941, Control_c, 10, 11, 50
13, 156968, Note_on_c, 10, 86, 0
13, 157000, Control_c, 10, 11, 49
13, 157058, Note_on_c, 10, 83, 85
13, 157083, Control_c, 10, 11, 47
13, 157170, Control_c, 10, 11, 45
13, 157210, Note_on_c, 10, 83, 0
13, 157252, Note_on_c, 10, 81, 87
13, 157275, Control_c, 10, 11, 43
13, 157296, Note_on_c, 10, 81, 0
13, 157337, Control_c, 10, 11, 42
13, 157340, Note_on_c, 10, 83, 107
13, 157430, Control_c, 10, 11, 41
13, 157486, Note_on_c, 10, 83, 0
13, 157499, Control_c, 10, 11, 39
13, 158380, Control_c, 10, 11, 26
13, 158392, Note_on_c, 10, 86, 89
13, 158469, Control_c, 10, 11, 25
13, 158492, Pitch_bend_c, 10, 8160
13, 158500, Pitch_bend_c, 10, 8032
13, 158512, Pitch_bend_c, 10, 7680
13, 158526, Pitch_bend_c, 10, 7456
13, 158542, Pitch_bend_c, 10, 6848
13, 158552, Control_c, 10, 11, 23
13, 158560, Pitch_bend_c, 10, 6496
13, 158570, Pitch_bend_c, 10, 6144
13, 158636, Note_on_c, 10, 86, 0
13, 158649, Control_c, 10, 11, 21
13, 158680, Pitch_bend_c, 10, 6656
13, 158702, Pitch_bend_c, 10, 7456
13, 158710, Pitch_bend_c, 10, 7904
13, 158722, Pitch_bend_c, 10, 8192
13, 158729, Control_c, 10, 11, 20
13, 158782, Note_on_c, 10, 86, 87
13, 158818, Control_c, 10, 11, 19
13, 158884, Control_c, 10, 11, 17
13, 158940, Pitch_bend_c, 10, 8096
13, 158948, Pitch_bend_c, 10, 7808
13, 158962, Pitch_bend_c, 10, 7584
13, 158976, Pitch_bend_c, 10, 7488
13, 158990, Control_c, 10, 11, 15
13, 159036, Note_on_c, 10, 86, 0
13, 159051, Control_c, 10, 11, 14
13, 159106, Control_c, 10, 11, 12
13, 159282, Pitch_bend_c, 10, 7712
13, 159296, Pitch_bend_c, 10, 8096
13, 159312, Pitch_bend_c, 10, 8160
13, 159324, Pitch_bend_c, 10, 8192
13, 159324, End_track
0, 0, End_of_file
