0, 0, Header, 1, 2, 960
1, 0, Start_track
1, 0, Control_c, 0, 101, 0
1, 0, Control_c, 0, 100, 0
1, 0, Control_c, 0, 6, 12
1, 0, Control_c, 0, 38, 0
1, 0, Control_c, 1, 101, 0
1, 0, Control_c, 1, 100, 0
1, 0, Control_c, 1, 6, 12
1, 0, Control_c, 1, 38, 0
1, 0, Control_c, 2, 101, 0
1, 0, Control_c, 2, 100, 0
1, 0, Control_c, 2, 6, 12
1, 0, Control_c, 2, 38, 0
1, 0, Control_c, 3, 101, 0
1, 0, Control_c, 3, 100, 0
1, 0, Control_c, 3, 6, 12
1, 0, Control_c, 3, 38, 0
1, 0, Control_c, 4, 101, 0
1, 0, Control_c, 4, 100, 0
1, 0, Control_c, 4, 6, 12
1, 0, Control_c, 4, 38, 0
1, 0, Control_c, 5, 101, 0
1, 0, Control_c, 5, 100, 0
1, 0, Control_c, 5, 6, 12
1, 0, Control_c, 5, 38, 0
1, 0, Control_c, 6, 101, 0
1, 0, Control_c, 6, 100, 0
1, 0, Control_c, 6, 6, 12
1, 0, Control_c, 6, 38, 0
1, 0, Control_c, 7, 101, 0
1, 0, Control_c, 7, 100, 0
1, 0, Control_c, 7, 6, 12
1, 0, Control_c, 7, 38, 0
1, 0, Control_c, 8, 101, 0
1, 0, Control_c, 8, 100, 0
1, 0, Control_c, 8, 6, 12
1, 0, Control_c, 8, 38, 0
1, 0, Control_c, 9, 101, 0
1, 0, Control_c, 9, 100, 0
1, 0, Control_c, 9, 6, 12
1, 0, Control_c, 9, 38, 0
1, 0, Control_c, 10, 101, 0
1, 0, Control_c, 10, 100, 0
1, 0, Control_c, 10, 6, 12
1, 0, Control_c, 10, 38, 0
1, 0, Control_c, 11, 101, 0
1, 0, Control_c, 11, 100, 0
1, 0, Control_c, 11, 6, 12
1, 0, Control_c, 11, 38, 0
1, 0, Control_c, 12, 101, 0
1, 0, Control_c, 12, 100, 0
1, 0, Control_c, 12, 6, 12
1, 0, Control_c, 12, 38, 0
1, 0, Control_c, 13, 101, 0
1, 0, Control_c, 13, 100, 0
1, 0, Control_c, 13, 6, 12
1, 0, Control_c, 13, 38, 0
1, 0, Control_c, 14, 101, 0
1, 0, Control_c, 14, 100, 0
1, 0, Control_c, 14, 6, 12
1, 0, Control_c, 14, 38, 0
1, 0, Control_c, 15, 101, 0
1, 0, Control_c, 15, 100, 0
1, 0, Control_c, 15, 6, 12
1, 0, Control_c, 15, 38, 0
1, 0, Time_signature, 4, 2, 24, 8
1, 0, Tempo, 1090909
1, 34560, Tempo, 1333333
1, 38400, Tempo, 1090909
1, 96000, Tempo, 1333333
1, 99840, Tempo, 1090909
1, 157440, Tempo, 1333333
1, 161280, Tempo, 1090909
1, 218880, Tempo, 1333333
1, 222720, Tempo, 1090909
1, 222720, End_track
2, 0, Start_track
2, 0, Pitch_bend_c, 0, 8192
2, 0, Control_c, 0, 7, 103
2, 0, Control_c, 0, 10, 63
2, 0, Control_c, 0, 93, 0
2, 0, Control_c, 0, 91, 0
2, 0, Control_c, 0, 95, 0
2, 0, Control_c, 0, 92, 0
2, 0, Control_c, 0, 11, 127
2, 0, Program_c, 0, 24
2, 0, Control_c, 1, 7, 103
2, 0, Control_c, 1, 10, 63
2, 0, Control_c, 1, 93, 0
2, 0, Control_c, 1, 91, 0
2, 0, Control_c, 1, 95, 0
2, 0, Control_c, 1, 92, 0
2, 0, Control_c, 1, 11, 127
2, 0, Program_c, 1, 24
2, 0, Note_on_c, 0, 71, 95
2, 0, Note_on_c, 0, 67, 95
2, 320, Note_off_c, 0, 71, 95
2, 320, Note_off_c, 0, 67, 95
2, 320, Note_on_c, 0, 67, 95
2, 640, Note_off_c, 0, 67, 95
2, 640, Note_on_c, 0, 64, 95
2, 960, Note_off_c, 0, 64, 95
2, 960, Note_on_c, 0, 71, 95
2, 960, Note_on_c, 0, 67, 95
2, 1280, Note_off_c, 0, 71, 95
2, 1280, Note_off_c, 0, 67, 95
2, 1280, Note_on_c, 0, 67, 95
2, 1600, Note_off_c, 0, 67, 95
2, 1600, Note_on_c, 0, 64, 95
2, 1920, Note_off_c, 0, 64, 95
2, 1920, Note_on_c, 0, 71, 95
2, 1920, Note_on_c, 0, 67, 95
2, 2240, Note_off_c, 0, 71, 95
2, 2240, Note_off_c, 0, 67, 95
2, 2240, Note_on_c, 0, 67, 95
2, 2560, Note_off_c, 0, 67, 95
2, 2560, Note_on_c, 0, 64, 95
2, 2880, Note_off_c, 0, 64, 95
2, 2880, Note_on_c, 0, 71, 95
2, 2880, Note_on_c, 0, 67, 95
2, 3200, Note_off_c, 0, 71, 95
2, 3200, Note_off_c, 0, 67, 95
2, 3200, Note_on_c, 0, 67, 95
2, 3520, Note_off_c, 0, 67, 95
2, 3520, Note_on_c, 0, 64, 95
2, 3840, Note_off_c, 0, 64, 95
2, 3840, Note_on_c, 0, 61, 95
2, 4160, Note_off_c, 0, 61, 95
2, 4160, Note_on_c, 0, 71, 95
2, 4160, Note_on_c, 0, 67, 95
2, 4480, Note_off_c, 0, 71, 95
2, 4480, Note_off_c, 0, 67, 95
2, 4480, Note_on_c, 0, 71, 95
2, 4480, Note_on_c, 0, 67, 95
2, 4800, Note_off_c, 0, 71, 95
2, 4800, Note_off_c, 0, 67, 95
2, 4800, Note_on_c, 0, 61, 95
2, 5120, Note_off_c, 0, 61, 95
2, 5120, Note_on_c, 0, 73, 47
2, 5120, Note_on_c, 0, 67, 95
2, 5440, Note_off_c, 0, 73, 47
2, 5440, Note_off_c, 0, 67, 95
2, 5440, Note_on_c, 0, 73, 47
2, 5440, Note_on_c, 0, 67, 95
2, 5760, Note_off_c, 0, 73, 47
2, 5760, Note_off_c, 0, 67, 95
2, 5760, Note_on_c, 0, 61, 95
2, 6080, Note_off_c, 0, 61, 95
2, 6080, Note_on_c, 0, 74, 95
2, 6080, Note_on_c, 0, 67, 95
2, 6400, Note_off_c, 0, 74, 95
2, 6400, Note_off_c, 0, 67, 95
2, 6400, Note_on_c, 0, 74, 95
2, 6400, Note_on_c, 0, 67, 95
2, 6720, Note_off_c, 0, 74, 95
2, 6720, Note_off_c, 0, 67, 95
2, 6720, Note_on_c, 0, 61, 95
2, 7040, Note_off_c, 0, 61, 95
2, 7040, Note_on_c, 0, 74, 95
2, 7040, Note_on_c, 0, 67, 95
2, 7360, Note_off_c, 0, 74, 95
2, 7360, Note_off_c, 0, 67, 95
2, 7360, Note_on_c, 0, 61, 95
2, 7680, Note_off_c, 0, 61, 95
2, 7680, Note_on_c, 0, 74, 95
2, 7680, Note_on_c, 0, 62, 95
2, 7680, Note_on_c, 0, 57, 95
2, 7840, Note_off_c, 0, 74, 95
2, 7840, Note_off_c, 0, 62, 95
2, 7840, Note_off_c, 0, 57, 95
2, 7840, Note_on_c, 0, 66, 95
2, 8000, Note_off_c, 0, 66, 95
2, 8000, Note_on_c, 0, 62, 95
2, 8160, Note_off_c, 0, 62, 95
2, 8160, Note_on_c, 0, 66, 95
2, 8320, Note_off_c, 0, 66, 95
2, 8320, Note_on_c, 0, 74, 47
2, 8480, Note_off_c, 0, 74, 47
2, 8480, Note_on_c, 0, 66, 95
2, 8640, Note_off_c, 0, 66, 95
2, 8640, Note_on_c, 0, 73, 95
2, 8640, Note_on_c, 0, 57, 95
2, 8800, Note_off_c, 0, 73, 95
2, 8800, Note_off_c, 0, 57, 95
2, 8800, Note_on_c, 0, 66, 95
2, 8960, Note_off_c, 0, 66, 95
2, 8960, Note_on_c, 0, 62, 95
2, 9120, Note_off_c, 0, 62, 95
2, 9120, Note_on_c, 0, 66, 95
2, 9280, Note_off_c, 0, 66, 95
2, 9280, Note_on_c, 0, 73, 47
2, 9440, Note_off_c, 0, 73, 47
2, 9440, Note_on_c, 0, 66, 95
2, 9600, Note_off_c, 0, 66, 95
2, 9600, Note_on_c, 0, 74, 95
2, 9600, Note_on_c, 0, 57, 95
2, 9760, Note_off_c, 0, 74, 95
2, 9760, Note_off_c, 0, 57, 95
2, 9760, Note_on_c, 0, 66, 95
2, 9920, Note_off_c, 0, 66, 95
2, 9920, Note_on_c, 0, 62, 95
2, 10080, Note_off_c, 0, 62, 95
2, 10080, Note_on_c, 0, 66, 95
2, 10240, Note_off_c, 0, 66, 95
2, 10240, Note_on_c, 0, 74, 47
2, 10400, Note_off_c, 0, 74, 47
2, 10400, Note_on_c, 0, 66, 95
2, 10560, Note_off_c, 0, 66, 95
2, 10560, Note_on_c, 0, 71, 95
2, 10560, Note_on_c, 0, 57, 95
2, 10720, Note_off_c, 0, 71, 95
2, 10720, Note_off_c, 0, 57, 95
2, 10720, Note_on_c, 0, 66, 95
2, 10880, Note_off_c, 0, 66, 95
2, 10880, Note_on_c, 0, 62, 95
2, 11040, Note_off_c, 0, 62, 95
2, 11040, Note_on_c, 0, 66, 95
2, 11200, Note_off_c, 0, 66, 95
2, 11200, Note_on_c, 0, 71, 47
2, 11360, Note_off_c, 0, 71, 47
2, 11360, Note_on_c, 0, 66, 95
2, 11520, Note_off_c, 0, 66, 95
2, 11520, Note_on_c, 0, 73, 95
2, 11520, Note_on_c, 0, 57, 95
2, 11680, Note_off_c, 0, 73, 95
2, 11680, Note_off_c, 0, 57, 95
2, 11680, Note_on_c, 0, 67, 95
2, 11840, Note_off_c, 0, 67, 95
2, 11840, Note_on_c, 0, 64, 95
2, 12000, Note_off_c, 0, 64, 95
2, 12000, Note_on_c, 0, 67, 95
2, 12160, Note_off_c, 0, 67, 95
2, 12160, Note_on_c, 0, 73, 47
2, 12320, Note_off_c, 0, 73, 47
2, 12320, Note_on_c, 0, 67, 95
2, 12480, Note_off_c, 0, 67, 95
2, 12480, Note_on_c, 0, 71, 95
2, 12480, Note_on_c, 0, 57, 95
2, 12640, Note_off_c, 0, 71, 95
2, 12640, Note_off_c, 0, 57, 95
2, 12640, Note_on_c, 0, 67, 95
2, 12800, Note_off_c, 0, 67, 95
2, 12800, Note_on_c, 0, 64, 95
2, 12960, Note_off_c, 0, 64, 95
2, 12960, Note_on_c, 0, 67, 95
2, 13120, Note_off_c, 0, 67, 95
2, 13120, Note_on_c, 0, 73, 95
2, 13280, Note_off_c, 0, 73, 95
2, 13280, Note_on_c, 0, 67, 95
2, 13440, Note_off_c, 0, 67, 95
2, 13440, Note_on_c, 0, 71, 95
2, 13440, Note_on_c, 0, 57, 95
2, 13600, Note_off_c, 0, 71, 95
2, 13600, Note_off_c, 0, 57, 95
2, 13600, Note_on_c, 0, 66, 95
2, 13760, Note_off_c, 0, 66, 95
2, 13760, Note_on_c, 0, 62, 95
2, 13920, Note_off_c, 0, 62, 95
2, 13920, Note_on_c, 0, 66, 95
2, 14080, Note_off_c, 0, 66, 95
2, 14080, Note_on_c, 0, 71, 47
2, 14240, Note_off_c, 0, 71, 47
2, 14240, Note_on_c, 0, 66, 95
2, 14400, Note_off_c, 0, 66, 95
2, 14400, Note_on_c, 0, 69, 95
2, 14400, Note_on_c, 0, 57, 95
2, 14560, Note_off_c, 0, 69, 95
2, 14560, Note_off_c, 0, 57, 95
2, 14560, Note_on_c, 0, 62, 95
2, 14720, Note_off_c, 0, 62, 95
2, 14720, Note_on_c, 0, 69, 95
2, 14880, Note_off_c, 0, 69, 95
2, 14880, Note_on_c, 0, 62, 95
2, 15040, Note_off_c, 0, 62, 95
2, 15040, Note_on_c, 0, 57, 95
2, 15200, Note_off_c, 0, 57, 95
2, 15200, Note_on_c, 0, 62, 95
2, 15360, Note_off_c, 0, 62, 95
2, 15360, Note_on_c, 0, 74, 95
2, 15360, Note_on_c, 0, 52, 95
2, 15520, Note_off_c, 0, 74, 95
2, 15520, Note_off_c, 0, 52, 95
2, 15520, Note_on_c, 0, 67, 95
2, 15680, Note_off_c, 0, 67, 95
2, 15680, Note_on_c, 0, 64, 95
2, 15840, Note_off_c, 0, 64, 95
2, 15840, Note_on_c, 0, 67, 95
2, 16000, Note_off_c, 0, 67, 95
2, 16000, Note_on_c, 0, 74, 47
2, 16160, Note_off_c, 0, 74, 47
2, 16160, Note_on_c, 0, 67, 95
2, 16320, Note_off_c, 0, 67, 95
2, 16320, Note_on_c, 0, 73, 95
2, 16320, Note_on_c, 0, 57, 95
2, 16480, Note_off_c, 0, 73, 95
2, 16480, Note_off_c, 0, 57, 95
2, 16480, Note_on_c, 0, 67, 95
2, 16640, Note_off_c, 0, 67, 95
2, 16640, Note_on_c, 0, 64, 95
2, 16800, Note_off_c, 0, 64, 95
2, 16800, Note_on_c, 0, 67, 95
2, 16960, Note_off_c, 0, 67, 95
2, 16960, Note_on_c, 0, 73, 47
2, 17120, Note_off_c, 0, 73, 47
2, 17120, Note_on_c, 0, 67, 95
2, 17280, Note_off_c, 0, 67, 95
2, 17280, Note_on_c, 0, 74, 95
2, 17280, Note_on_c, 0, 52, 95
2, 17440, Note_off_c, 0, 74, 95
2, 17440, Note_off_c, 0, 52, 95
2, 17440, Note_on_c, 0, 67, 95
2, 17600, Note_off_c, 0, 67, 95
2, 17600, Note_on_c, 0, 64, 95
2, 17760, Note_off_c, 0, 64, 95
2, 17760, Note_on_c, 0, 67, 95
2, 17920, Note_off_c, 0, 67, 95
2, 17920, Note_on_c, 0, 74, 47
2, 18080, Note_off_c, 0, 74, 47
2, 18080, Note_on_c, 0, 67, 95
2, 18240, Note_off_c, 0, 67, 95
2, 18240, Note_on_c, 0, 71, 95
2, 18240, Note_on_c, 0, 57, 95
2, 18400, Note_off_c, 0, 71, 95
2, 18400, Note_off_c, 0, 57, 95
2, 18400, Note_on_c, 0, 67, 95
2, 18560, Note_off_c, 0, 67, 95
2, 18560, Note_on_c, 0, 64, 95
2, 18720, Note_off_c, 0, 64, 95
2, 18720, Note_on_c, 0, 67, 95
2, 18880, Note_off_c, 0, 67, 95
2, 18880, Note_on_c, 0, 71, 47
2, 19040, Note_off_c, 0, 71, 47
2, 19040, Note_on_c, 0, 67, 95
2, 19200, Note_off_c, 0, 67, 95
2, 19200, Note_on_c, 0, 73, 95
2, 19200, Note_on_c, 0, 57, 95
2, 19360, Note_off_c, 0, 73, 95
2, 19360, Note_off_c, 0, 57, 95
2, 19360, Note_on_c, 0, 67, 95
2, 19520, Note_off_c, 0, 67, 95
2, 19520, Note_on_c, 0, 64, 95
2, 19680, Note_off_c, 0, 64, 95
2, 19680, Note_on_c, 0, 67, 95
2, 19840, Note_off_c, 0, 67, 95
2, 19840, Note_on_c, 0, 73, 47
2, 20000, Note_off_c, 0, 73, 47
2, 20000, Note_on_c, 0, 67, 95
2, 20160, Note_off_c, 0, 67, 95
2, 20160, Note_on_c, 0, 71, 95
2, 20160, Note_on_c, 0, 57, 95
2, 20320, Note_off_c, 0, 71, 95
2, 20320, Note_off_c, 0, 57, 95
2, 20320, Note_on_c, 0, 67, 95
2, 20480, Note_off_c, 0, 67, 95
2, 20480, Note_on_c, 0, 64, 95
2, 20640, Note_off_c, 0, 64, 95
2, 20640, Note_on_c, 0, 67, 95
2, 20800, Note_off_c, 0, 67, 95
2, 20800, Note_on_c, 0, 73, 95
2, 20960, Note_off_c, 0, 73, 95
2, 20960, Note_on_c, 0, 67, 95
2, 21120, Note_off_c, 0, 67, 95
2, 21120, Note_on_c, 0, 71, 95
2, 21120, Note_on_c, 0, 57, 95
2, 21280, Note_off_c, 0, 71, 95
2, 21280, Note_off_c, 0, 57, 95
2, 21280, Note_on_c, 0, 66, 95
2, 21440, Note_off_c, 0, 66, 95
2, 21440, Note_on_c, 0, 62, 95
2, 21600, Note_off_c, 0, 62, 95
2, 21600, Note_on_c, 0, 66, 95
2, 21760, Note_off_c, 0, 66, 95
2, 21760, Note_on_c, 0, 71, 47
2, 21920, Note_off_c, 0, 71, 47
2, 21920, Note_on_c, 0, 66, 95
2, 22080, Note_off_c, 0, 66, 95
2, 22080, Note_on_c, 0, 69, 95
2, 22080, Note_on_c, 0, 57, 95
2, 22240, Note_off_c, 0, 69, 95
2, 22240, Note_off_c, 0, 57, 95
2, 22240, Note_on_c, 0, 62, 95
2, 22400, Note_off_c, 0, 62, 95
2, 22400, Note_on_c, 0, 57, 95
2, 22560, Note_off_c, 0, 57, 95
2, 22560, Note_on_c, 0, 62, 95
2, 22720, Note_off_c, 0, 62, 95
2, 22720, Note_on_c, 0, 69, 95
2, 22880, Note_off_c, 0, 69, 95
2, 22880, Note_on_c, 0, 62, 95
2, 23040, Note_off_c, 0, 62, 95
2, 23040, Note_on_c, 0, 78, 95
2, 23040, Note_on_c, 0, 62, 95
2, 23200, Note_off_c, 0, 78, 95
2, 23200, Note_off_c, 0, 62, 95
2, 23200, Note_on_c, 0, 72, 95
2, 23360, Note_off_c, 0, 72, 95
2, 23360, Note_on_c, 0, 69, 95
2, 23520, Note_off_c, 0, 69, 95
2, 23520, Note_on_c, 0, 72, 95
2, 23680, Note_off_c, 0, 72, 95
2, 23680, Note_on_c, 0, 78, 47
2, 23840, Note_off_c, 0, 78, 47
2, 23840, Note_on_c, 0, 72, 95
2, 24000, Note_off_c, 0, 72, 95
2, 24000, Note_on_c, 0, 76, 95
2, 24000, Note_on_c, 0, 62, 95
2, 24160, Note_off_c, 0, 76, 95
2, 24160, Note_off_c, 0, 62, 95
2, 24160, Note_on_c, 0, 72, 95
2, 24320, Note_off_c, 0, 72, 95
2, 24320, Note_on_c, 0, 69, 95
2, 24480, Note_off_c, 0, 69, 95
2, 24480, Note_on_c, 0, 72, 95
2, 24640, Note_off_c, 0, 72, 95
2, 24640, Note_on_c, 0, 76, 47
2, 24800, Note_off_c, 0, 76, 47
2, 24800, Note_on_c, 0, 72, 95
2, 24960, Note_off_c, 0, 72, 95
2, 24960, Note_on_c, 0, 78, 95
2, 24960, Note_on_c, 0, 62, 95
2, 25120, Note_off_c, 0, 78, 95
2, 25120, Note_off_c, 0, 62, 95
2, 25120, Note_on_c, 0, 72, 95
2, 25280, Note_off_c, 0, 72, 95
2, 25280, Note_on_c, 0, 69, 95
2, 25440, Note_off_c, 0, 69, 95
2, 25440, Note_on_c, 0, 72, 95
2, 25600, Note_off_c, 0, 72, 95
2, 25600, Note_on_c, 0, 78, 47
2, 25760, Note_off_c, 0, 78, 47
2, 25760, Note_on_c, 0, 72, 95
2, 25920, Note_off_c, 0, 72, 95
2, 25920, Note_on_c, 0, 76, 95
2, 25920, Note_on_c, 0, 62, 95
2, 26080, Note_off_c, 0, 76, 95
2, 26080, Note_off_c, 0, 62, 95
2, 26080, Note_on_c, 0, 72, 95
2, 26240, Note_off_c, 0, 72, 95
2, 26240, Note_on_c, 0, 69, 95
2, 26400, Note_off_c, 0, 69, 95
2, 26400, Note_on_c, 0, 72, 95
2, 26560, Note_off_c, 0, 72, 95
2, 26560, Note_on_c, 0, 76, 47
2, 26720, Note_off_c, 0, 76, 47
2, 26720, Note_on_c, 0, 72, 95
2, 26880, Note_off_c, 0, 72, 95
2, 26880, Note_on_c, 0, 76, 95
2, 26880, Note_on_c, 0, 62, 95
2, 27040, Note_off_c, 0, 76, 95
2, 27040, Note_off_c, 0, 62, 95
2, 27040, Note_on_c, 0, 72, 95
2, 27200, Note_off_c, 0, 72, 95
2, 27200, Note_on_c, 0, 69, 95
2, 27360, Note_off_c, 0, 69, 95
2, 27360, Note_on_c, 0, 72, 95
2, 27520, Note_off_c, 0, 72, 95
2, 27520, Note_on_c, 0, 76, 47
2, 27680, Note_off_c, 0, 76, 47
2, 27680, Note_on_c, 0, 72, 95
2, 27840, Note_off_c, 0, 72, 95
2, 27840, Note_on_c, 0, 78, 95
2, 27840, Note_on_c, 0, 62, 95
2, 28000, Note_off_c, 0, 78, 95
2, 28000, Note_off_c, 0, 62, 95
2, 28000, Note_on_c, 0, 72, 95
2, 28160, Note_off_c, 0, 72, 95
2, 28160, Note_on_c, 0, 69, 95
2, 28320, Note_off_c, 0, 69, 95
2, 28320, Note_on_c, 0, 74, 95
2, 28480, Note_off_c, 0, 74, 95
2, 28480, Note_on_c, 0, 78, 47
2, 28640, Note_off_c, 0, 78, 47
2, 28640, Note_on_c, 0, 74, 47
2, 28800, Note_off_c, 0, 74, 47
2, 28800, Note_on_c, 0, 76, 95
2, 28800, Note_on_c, 0, 62, 95
2, 28960, Note_off_c, 0, 76, 95
2, 28960, Note_off_c, 0, 62, 95
2, 28960, Note_on_c, 0, 72, 95
2, 29120, Note_off_c, 0, 72, 95
2, 29120, Note_on_c, 0, 69, 95
2, 29280, Note_off_c, 0, 69, 95
2, 29280, Note_on_c, 0, 72, 95
2, 29440, Note_off_c, 0, 72, 95
2, 29440, Note_on_c, 0, 76, 47
2, 29600, Note_off_c, 0, 76, 47
2, 29600, Note_on_c, 0, 72, 95
2, 29760, Note_off_c, 0, 72, 95
2, 29760, Note_on_c, 0, 76, 95
2, 29760, Note_on_c, 0, 62, 95
2, 29920, Note_off_c, 0, 76, 95
2, 29920, Note_off_c, 0, 62, 95
2, 29920, Note_on_c, 0, 72, 95
2, 30080, Note_off_c, 0, 72, 95
2, 30080, Note_on_c, 0, 69, 95
2, 30240, Note_off_c, 0, 69, 95
2, 30240, Note_on_c, 0, 72, 95
2, 30400, Note_off_c, 0, 72, 95
2, 30400, Note_on_c, 1, 76, 47
2, 30560, Note_off_c, 1, 76, 47
2, 30560, Note_on_c, 1, 72, 95
2, 30720, Note_off_c, 1, 72, 95
2, 30720, Note_on_c, 0, 73, 95
2, 30720, Note_on_c, 0, 57, 95
2, 30880, Note_off_c, 0, 73, 95
2, 30880, Note_off_c, 0, 57, 95
2, 30880, Note_on_c, 0, 67, 95
2, 31040, Note_off_c, 0, 67, 95
2, 31040, Note_on_c, 0, 64, 95
2, 31200, Note_off_c, 0, 64, 95
2, 31200, Note_on_c, 0, 67, 95
2, 31360, Note_off_c, 0, 67, 95
2, 31360, Note_on_c, 0, 73, 47
2, 31520, Note_off_c, 0, 73, 47
2, 31520, Note_on_c, 0, 67, 95
2, 31680, Note_off_c, 0, 67, 95
2, 31680, Note_on_c, 0, 71, 95
2, 31680, Note_on_c, 0, 57, 95
2, 31840, Note_off_c, 0, 71, 95
2, 31840, Note_off_c, 0, 57, 95
2, 31840, Note_on_c, 0, 67, 95
2, 32000, Note_off_c, 0, 67, 95
2, 32000, Note_on_c, 0, 64, 95
2, 32160, Note_off_c, 0, 64, 95
2, 32160, Note_on_c, 0, 67, 95
2, 32320, Note_off_c, 0, 67, 95
2, 32320, Note_on_c, 0, 71, 47
2, 32480, Note_off_c, 0, 71, 47
2, 32480, Note_on_c, 0, 67, 95
2, 32640, Note_off_c, 0, 67, 95
2, 32640, Note_on_c, 0, 69, 95
2, 32640, Note_on_c, 0, 57, 95
2, 32800, Note_off_c, 0, 69, 95
2, 32800, Note_off_c, 0, 57, 95
2, 32800, Note_on_c, 0, 64, 95
2, 32960, Note_off_c, 0, 64, 95
2, 32960, Note_on_c, 0, 57, 95
2, 33120, Note_off_c, 0, 57, 95
2, 33120, Note_on_c, 0, 64, 95
2, 33280, Note_off_c, 0, 64, 95
2, 33280, Note_on_c, 0, 69, 47
2, 33440, Note_off_c, 0, 69, 47
2, 33440, Note_on_c, 0, 64, 95
2, 33600, Note_off_c, 0, 64, 95
2, 33600, Note_on_c, 0, 71, 95
2, 33600, Note_on_c, 0, 57, 95
2, 33760, Note_off_c, 0, 71, 95
2, 33760, Note_off_c, 0, 57, 95
2, 33760, Note_on_c, 0, 67, 95
2, 33920, Note_off_c, 0, 67, 95
2, 33920, Note_on_c, 0, 64, 95
2, 34080, Note_off_c, 0, 64, 95
2, 34080, Note_on_c, 0, 67, 95
2, 34240, Note_off_c, 0, 67, 95
2, 34240, Note_on_c, 0, 71, 47
2, 34400, Note_off_c, 0, 71, 47
2, 34400, Note_on_c, 0, 67, 95
2, 34560, Note_off_c, 0, 67, 95
2, 34560, Note_on_c, 0, 73, 95
2, 34560, Note_on_c, 0, 57, 95
2, 34720, Note_off_c, 0, 73, 95
2, 34720, Note_off_c, 0, 57, 95
2, 34720, Note_on_c, 0, 67, 95
2, 34880, Note_off_c, 0, 67, 95
2, 34880, Note_on_c, 0, 64, 95
2, 35040, Note_off_c, 0, 64, 95
2, 35040, Note_on_c, 0, 67, 95
2, 35200, Note_off_c, 0, 67, 95
2, 35200, Note_on_c, 0, 73, 47
2, 35360, Note_off_c, 0, 73, 47
2, 35360, Note_on_c, 0, 67, 95
2, 35520, Note_off_c, 0, 67, 95
2, 35520, Note_on_c, 0, 74, 95
2, 35520, Note_on_c, 0, 57, 95
2, 35680, Note_off_c, 0, 74, 95
2, 35680, Note_off_c, 0, 57, 95
2, 35680, Note_on_c, 0, 67, 95
2, 35840, Note_off_c, 0, 67, 95
2, 35840, Note_on_c, 0, 64, 95
2, 36000, Note_off_c, 0, 64, 95
2, 36000, Note_on_c, 0, 67, 95
2, 36160, Note_off_c, 0, 67, 95
2, 36160, Note_on_c, 0, 76, 95
2, 36480, Note_off_c, 0, 76, 95
2, 36480, Note_on_c, 0, 74, 95
2, 36800, Note_off_c, 0, 74, 95
2, 36800, Note_on_c, 0, 74, 95
2, 36840, Note_on_c, 0, 69, 95
2, 36880, Note_on_c, 0, 66, 95
2, 37120, Note_off_c, 0, 74, 95
2, 37120, Note_off_c, 0, 69, 95
2, 37120, Note_off_c, 0, 66, 95
2, 37120, Note_on_c, 0, 74, 95
2, 37160, Note_on_c, 0, 69, 95
2, 37200, Note_on_c, 0, 66, 95
2, 37240, Note_on_c, 0, 62, 95
2, 37440, Note_off_c, 0, 74, 95
2, 37440, Note_off_c, 0, 69, 95
2, 37440, Note_off_c, 0, 66, 95
2, 37440, Note_off_c, 0, 62, 95
2, 37440, Note_on_c, 0, 74, 95
2, 37470, Note_on_c, 0, 69, 95
2, 37500, Note_on_c, 0, 66, 95
2, 37530, Note_on_c, 0, 62, 95
2, 37560, Note_on_c, 0, 57, 95
2, 37590, Note_on_c, 0, 50, 95
2, 38400, Note_off_c, 0, 74, 95
2, 38400, Note_off_c, 0, 69, 95
2, 38400, Note_off_c, 0, 66, 95
2, 38400, Note_off_c, 0, 62, 95
2, 38400, Note_off_c, 0, 57, 95
2, 38400, Note_off_c, 0, 50, 95
2, 38400, Note_on_c, 0, 50, 95
2, 38720, Note_off_c, 0, 50, 95
2, 38720, Note_on_c, 0, 65, 95
2, 38720, Note_on_c, 0, 62, 95
2, 38720, Note_on_c, 0, 57, 95
2, 39040, Note_off_c, 0, 65, 95
2, 39040, Note_off_c, 0, 62, 95
2, 39040, Note_off_c, 0, 57, 95
2, 39040, Note_on_c, 0, 65, 95
2, 39040, Note_on_c, 0, 62, 95
2, 39040, Note_on_c, 0, 57, 95
2, 39360, Note_off_c, 0, 65, 95
2, 39360, Note_off_c, 0, 62, 95
2, 39360, Note_off_c, 0, 57, 95
2, 39360, Note_on_c, 0, 50, 95
2, 39680, Note_off_c, 0, 50, 95
2, 39680, Note_on_c, 0, 65, 95
2, 39680, Note_on_c, 0, 62, 95
2, 39680, Note_on_c, 0, 57, 95
2, 40000, Note_off_c, 0, 65, 95
2, 40000, Note_off_c, 0, 62, 95
2, 40000, Note_off_c, 0, 57, 95
2, 40000, Note_on_c, 0, 65, 95
2, 40000, Note_on_c, 0, 62, 95
2, 40000, Note_on_c, 0, 57, 95
2, 40320, Note_off_c, 0, 65, 95
2, 40320, Note_off_c, 0, 62, 95
2, 40320, Note_off_c, 0, 57, 95
2, 40320, Note_on_c, 0, 45, 95
2, 40640, Note_off_c, 0, 45, 95
2, 40640, Note_on_c, 0, 61, 95
2, 40640, Note_on_c, 0, 57, 95
2, 40640, Note_on_c, 0, 52, 95
2, 40960, Note_off_c, 0, 61, 95
2, 40960, Note_off_c, 0, 57, 95
2, 40960, Note_off_c, 0, 52, 95
2, 40960, Note_on_c, 0, 61, 95
2, 40960, Note_on_c, 0, 57, 95
2, 40960, Note_on_c, 0, 52, 95
2, 41280, Note_off_c, 0, 61, 95
2, 41280, Note_off_c, 0, 57, 95
2, 41280, Note_off_c, 0, 52, 95
2, 41280, Note_on_c, 0, 45, 95
2, 41600, Note_off_c, 0, 45, 95
2, 41600, Note_on_c, 0, 61, 95
2, 41600, Note_on_c, 0, 57, 95
2, 41600, Note_on_c, 0, 52, 95
2, 41920, Note_off_c, 0, 61, 95
2, 41920, Note_off_c, 0, 57, 95
2, 41920, Note_off_c, 0, 52, 95
2, 41920, Note_on_c, 0, 61, 95
2, 41920, Note_on_c, 0, 57, 95
2, 41920, Note_on_c, 0, 52, 95
2, 42240, Note_off_c, 0, 61, 95
2, 42240, Note_off_c, 0, 57, 95
2, 42240, Note_off_c, 0, 52, 95
2, 42240, Note_on_c, 0, 50, 95
2, 42560, Note_off_c, 0, 50, 95
2, 42560, Note_on_c, 0, 65, 95
2, 42560, Note_on_c, 0, 62, 95
2, 42560, Note_on_c, 0, 57, 95
2, 42880, Note_off_c, 0, 65, 95
2, 42880, Note_off_c, 0, 62, 95
2, 42880, Note_off_c, 0, 57, 95
2, 42880, Note_on_c, 0, 65, 95
2, 42880, Note_on_c, 0, 62, 95
2, 42880, Note_on_c, 0, 57, 95
2, 43200, Note_off_c, 0, 65, 95
2, 43200, Note_off_c, 0, 62, 95
2, 43200, Note_off_c, 0, 57, 95
2, 43200, Note_on_c, 0, 50, 95
2, 43520, Note_off_c, 0, 50, 95
2, 43520, Note_on_c, 0, 65, 95
2, 43520, Note_on_c, 0, 62, 95
2, 43520, Note_on_c, 0, 57, 95
2, 43840, Note_off_c, 0, 65, 95
2, 43840, Note_off_c, 0, 62, 95
2, 43840, Note_off_c, 0, 57, 95
2, 43840, Note_on_c, 0, 65, 95
2, 43840, Note_on_c, 0, 62, 95
2, 43840, Note_on_c, 0, 57, 95
2, 44160, Note_off_c, 0, 65, 95
2, 44160, Note_off_c, 0, 62, 95
2, 44160, Note_off_c, 0, 57, 95
2, 44160, Note_on_c, 0, 52, 95
2, 44480, Note_off_c, 0, 52, 95
2, 44480, Note_on_c, 0, 64, 95
2, 44480, Note_on_c, 0, 61, 95
2, 44480, Note_on_c, 0, 57, 95
2, 44800, Note_off_c, 0, 64, 95
2, 44800, Note_off_c, 0, 61, 95
2, 44800, Note_off_c, 0, 57, 95
2, 44800, Note_on_c, 0, 64, 95
2, 44800, Note_on_c, 0, 61, 95
2, 44800, Note_on_c, 0, 57, 95
2, 45120, Note_off_c, 0, 64, 95
2, 45120, Note_off_c, 0, 61, 95
2, 45120, Note_off_c, 0, 57, 95
2, 45120, Note_on_c, 0, 52, 95
2, 45440, Note_off_c, 0, 52, 95
2, 45440, Note_on_c, 0, 64, 95
2, 45440, Note_on_c, 0, 61, 95
2, 45440, Note_on_c, 0, 57, 95
2, 45760, Note_off_c, 0, 64, 95
2, 45760, Note_off_c, 0, 61, 95
2, 45760, Note_off_c, 0, 57, 95
2, 45760, Note_on_c, 0, 64, 95
2, 45760, Note_on_c, 0, 61, 95
2, 45760, Note_on_c, 0, 57, 95
2, 46080, Note_off_c, 0, 64, 95
2, 46080, Note_off_c, 0, 61, 95
2, 46080, Note_off_c, 0, 57, 95
2, 46080, Note_on_c, 0, 52, 95
2, 46400, Note_off_c, 0, 52, 95
2, 46400, Note_on_c, 0, 64, 95
2, 46400, Note_on_c, 0, 61, 95
2, 46400, Note_on_c, 0, 57, 95
2, 46720, Note_off_c, 0, 64, 95
2, 46720, Note_off_c, 0, 61, 95
2, 46720, Note_off_c, 0, 57, 95
2, 46720, Note_on_c, 0, 64, 95
2, 46720, Note_on_c, 0, 61, 95
2, 46720, Note_on_c, 0, 57, 95
2, 47040, Note_off_c, 0, 64, 95
2, 47040, Note_off_c, 0, 61, 95
2, 47040, Note_off_c, 0, 57, 95
2, 47040, Note_on_c, 0, 52, 95
2, 47360, Note_off_c, 0, 52, 95
2, 47360, Note_on_c, 0, 64, 95
2, 47360, Note_on_c, 0, 61, 95
2, 47360, Note_on_c, 0, 57, 95
2, 47680, Note_off_c, 0, 64, 95
2, 47680, Note_off_c, 0, 61, 95
2, 47680, Note_off_c, 0, 57, 95
2, 47680, Note_on_c, 0, 64, 95
2, 47680, Note_on_c, 0, 61, 95
2, 47680, Note_on_c, 0, 57, 95
2, 48000, Note_off_c, 0, 64, 95
2, 48000, Note_off_c, 0, 61, 95
2, 48000, Note_off_c, 0, 57, 95
2, 48000, Note_on_c, 0, 45, 95
2, 48320, Note_off_c, 0, 45, 95
2, 48320, Note_on_c, 0, 59, 95
2, 48320, Note_on_c, 0, 57, 95
2, 48320, Note_on_c, 0, 52, 95
2, 48640, Note_off_c, 0, 59, 95
2, 48640, Note_off_c, 0, 57, 95
2, 48640, Note_off_c, 0, 52, 95
2, 48640, Note_on_c, 0, 59, 95
2, 48640, Note_on_c, 0, 57, 95
2, 48640, Note_on_c, 0, 52, 95
2, 48960, Note_off_c, 0, 59, 95
2, 48960, Note_off_c, 0, 57, 95
2, 48960, Note_off_c, 0, 52, 95
2, 48960, Note_on_c, 0, 45, 95
2, 49280, Note_off_c, 0, 45, 95
2, 49280, Note_on_c, 0, 59, 95
2, 49280, Note_on_c, 0, 57, 95
2, 49280, Note_on_c, 0, 52, 95
2, 49600, Note_off_c, 0, 59, 95
2, 49600, Note_off_c, 0, 57, 95
2, 49600, Note_off_c, 0, 52, 95
2, 49600, Note_on_c, 0, 59, 95
2, 49600, Note_on_c, 0, 57, 95
2, 49600, Note_on_c, 0, 52, 95
2, 49920, Note_off_c, 0, 59, 95
2, 49920, Note_off_c, 0, 57, 95
2, 49920, Note_off_c, 0, 52, 95
2, 49920, Note_on_c, 0, 45, 95
2, 50240, Note_off_c, 0, 45, 95
2, 50240, Note_on_c, 0, 59, 95
2, 50240, Note_on_c, 0, 57, 95
2, 50240, Note_on_c, 0, 52, 95
2, 50560, Note_off_c, 0, 59, 95
2, 50560, Note_off_c, 0, 57, 95
2, 50560, Note_off_c, 0, 52, 95
2, 50560, Note_on_c, 0, 59, 95
2, 50560, Note_on_c, 0, 57, 95
2, 50560, Note_on_c, 0, 52, 95
2, 50880, Note_off_c, 0, 59, 95
2, 50880, Note_off_c, 0, 57, 95
2, 50880, Note_off_c, 0, 52, 95
2, 50880, Note_on_c, 0, 45, 95
2, 51200, Note_off_c, 0, 45, 95
2, 51200, Note_on_c, 0, 61, 95
2, 51200, Note_on_c, 0, 57, 95
2, 51200, Note_on_c, 0, 52, 95
2, 51520, Note_off_c, 0, 61, 95
2, 51520, Note_off_c, 0, 57, 95
2, 51520, Note_off_c, 0, 52, 95
2, 51520, Note_on_c, 0, 61, 95
2, 51520, Note_on_c, 0, 57, 95
2, 51520, Note_on_c, 0, 52, 95
2, 51840, Note_off_c, 0, 61, 95
2, 51840, Note_off_c, 0, 57, 95
2, 51840, Note_off_c, 0, 52, 95
2, 51840, Note_on_c, 0, 45, 95
2, 52160, Note_off_c, 0, 45, 95
2, 52160, Note_on_c, 0, 61, 95
2, 52160, Note_on_c, 0, 57, 95
2, 52160, Note_on_c, 0, 52, 95
2, 52480, Note_off_c, 0, 61, 95
2, 52480, Note_off_c, 0, 57, 95
2, 52480, Note_off_c, 0, 52, 95
2, 52480, Note_on_c, 0, 61, 95
2, 52480, Note_on_c, 0, 57, 95
2, 52480, Note_on_c, 0, 52, 95
2, 52800, Note_off_c, 0, 61, 95
2, 52800, Note_off_c, 0, 57, 95
2, 52800, Note_off_c, 0, 52, 95
2, 52800, Note_on_c, 0, 69, 95
2, 53120, Note_off_c, 0, 69, 95
2, 53120, Note_on_c, 0, 68, 95
2, 53440, Note_off_c, 0, 68, 95
2, 53440, Note_on_c, 0, 67, 95
2, 53760, Note_off_c, 0, 67, 95
2, 53760, Note_on_c, 0, 66, 95
2, 54080, Note_off_c, 0, 66, 95
2, 54080, Note_on_c, 0, 65, 95
2, 54400, Note_off_c, 0, 65, 95
2, 54400, Note_on_c, 0, 64, 95
2, 54720, Note_off_c, 0, 64, 95
2, 54720, Note_on_c, 0, 65, 95
2, 54720, Note_on_c, 0, 62, 95
2, 54720, Note_on_c, 0, 57, 95
2, 54720, Note_on_c, 0, 50, 95
2, 56400, Note_off_c, 0, 65, 95
2, 56400, Note_off_c, 0, 62, 95
2, 56400, Note_off_c, 0, 57, 95
2, 56400, Note_off_c, 0, 50, 95
2, 56400, Note_on_c, 0, 65, 95
2, 56400, Note_on_c, 0, 62, 95
2, 56400, Note_on_c, 0, 57, 95
2, 56400, Note_on_c, 0, 50, 95
2, 56640, Note_off_c, 0, 65, 95
2, 56640, Note_off_c, 0, 62, 95
2, 56640, Note_off_c, 0, 57, 95
2, 56640, Note_off_c, 0, 50, 95
2, 56640, Note_on_c, 0, 67, 95
2, 56640, Note_on_c, 0, 61, 95
2, 56640, Note_on_c, 0, 57, 95
2, 56640, Note_on_c, 0, 52, 95
2, 56640, Note_on_c, 0, 45, 95
2, 58560, Note_off_c, 0, 67, 95
2, 58560, Note_off_c, 0, 61, 95
2, 58560, Note_off_c, 0, 57, 95
2, 58560, Note_off_c, 0, 52, 95
2, 58560, Note_off_c, 0, 45, 95
2, 58560, Note_on_c, 0, 69, 95
2, 58560, Note_on_c, 0, 65, 95
2, 58560, Note_on_c, 0, 62, 95
2, 58560, Note_on_c, 0, 57, 95
2, 58560, Note_on_c, 0, 50, 95
2, 60480, Note_off_c, 0, 69, 95
2, 60480, Note_off_c, 0, 65, 95
2, 60480, Note_off_c, 0, 62, 95
2, 60480, Note_off_c, 0, 57, 95
2, 60480, Note_off_c, 0, 50, 95
2, 60480, Note_on_c, 0, 69, 95
2, 60480, Note_on_c, 0, 64, 95
2, 60480, Note_on_c, 0, 61, 95
2, 60480, Note_on_c, 0, 57, 95
2, 60480, Note_on_c, 0, 52, 95
2, 60480, Note_on_c, 0, 45, 95
2, 61440, Note_off_c, 0, 69, 95
2, 61440, Note_off_c, 0, 64, 95
2, 61440, Note_off_c, 0, 61, 95
2, 61440, Note_off_c, 0, 57, 95
2, 61440, Note_off_c, 0, 52, 95
2, 61440, Note_off_c, 0, 45, 95
2, 61440, Note_on_c, 0, 64, 95
2, 61760, Note_off_c, 0, 64, 95
2, 61760, Note_on_c, 0, 65, 95
2, 62080, Note_off_c, 0, 65, 95
2, 62080, Note_on_c, 0, 64, 95
2, 62400, Note_off_c, 0, 64, 95
2, 62400, Note_on_c, 0, 62, 95
2, 63040, Note_off_c, 0, 62, 95
2, 63040, Note_on_c, 0, 57, 95
2, 63360, Note_off_c, 0, 57, 95
2, 63360, Note_on_c, 0, 64, 95
2, 63680, Note_off_c, 0, 64, 95
2, 63680, Note_on_c, 0, 65, 95
2, 64000, Note_off_c, 0, 65, 95
2, 64000, Note_on_c, 0, 64, 95
2, 64320, Note_off_c, 0, 64, 95
2, 64320, Note_on_c, 0, 62, 95
2, 64960, Note_off_c, 0, 62, 95
2, 64960, Note_on_c, 0, 65, 95
2, 64960, Note_on_c, 0, 57, 95
2, 65280, Note_off_c, 0, 65, 95
2, 65280, Note_off_c, 0, 57, 95
2, 65280, Note_on_c, 0, 64, 95
2, 65600, Note_off_c, 0, 64, 95
2, 65600, Note_on_c, 0, 65, 95
2, 65920, Note_off_c, 0, 65, 95
2, 65920, Note_on_c, 0, 64, 95
2, 66240, Note_off_c, 0, 64, 95
2, 66240, Note_on_c, 0, 62, 95
2, 66880, Note_off_c, 0, 62, 95
2, 66880, Note_on_c, 0, 65, 95
2, 66880, Note_on_c, 0, 57, 95
2, 67200, Note_off_c, 0, 65, 95
2, 67200, Note_off_c, 0, 57, 95
2, 67200, Note_on_c, 0, 65, 95
2, 67200, Note_on_c, 0, 57, 95
2, 67840, Note_off_c, 0, 65, 95
2, 67840, Note_off_c, 0, 57, 95
2, 67840, Note_on_c, 0, 65, 95
2, 67840, Note_on_c, 0, 57, 95
2, 68160, Note_off_c, 0, 65, 95
2, 68160, Note_off_c, 0, 57, 95
2, 68160, Note_on_c, 0, 67, 95
2, 68160, Note_on_c, 0, 61, 95
2, 68160, Note_on_c, 0, 57, 95
2, 68160, Note_on_c, 0, 52, 95
2, 68160, Note_on_c, 0, 45, 95
2, 69120, Note_off_c, 0, 67, 95
2, 69120, Note_off_c, 0, 61, 95
2, 69120, Note_off_c, 0, 57, 95
2, 69120, Note_off_c, 0, 52, 95
2, 69120, Note_off_c, 0, 45, 95
2, 69120, Note_on_c, 0, 74, 95
2, 69120, Note_on_c, 0, 62, 95
2, 69120, Note_on_c, 0, 57, 95
2, 69280, Note_off_c, 0, 74, 95
2, 69280, Note_off_c, 0, 62, 95
2, 69280, Note_off_c, 0, 57, 95
2, 69280, Note_on_c, 0, 66, 95
2, 69440, Note_off_c, 0, 66, 95
2, 69440, Note_on_c, 0, 62, 95
2, 69600, Note_off_c, 0, 62, 95
2, 69600, Note_on_c, 0, 66, 95
2, 69760, Note_off_c, 0, 66, 95
2, 69760, Note_on_c, 0, 74, 47
2, 69920, Note_off_c, 0, 74, 47
2, 69920, Note_on_c, 0, 66, 95
2, 70080, Note_off_c, 0, 66, 95
2, 70080, Note_on_c, 0, 73, 95
2, 70080, Note_on_c, 0, 57, 95
2, 70240, Note_off_c, 0, 73, 95
2, 70240, Note_off_c, 0, 57, 95
2, 70240, Note_on_c, 0, 66, 95
2, 70400, Note_off_c, 0, 66, 95
2, 70400, Note_on_c, 0, 62, 95
2, 70560, Note_off_c, 0, 62, 95
2, 70560, Note_on_c, 0, 66, 95
2, 70720, Note_off_c, 0, 66, 95
2, 70720, Note_on_c, 0, 73, 47
2, 70880, Note_off_c, 0, 73, 47
2, 70880, Note_on_c, 0, 66, 95
2, 71040, Note_off_c, 0, 66, 95
2, 71040, Note_on_c, 0, 74, 95
2, 71040, Note_on_c, 0, 57, 95
2, 71200, Note_off_c, 0, 74, 95
2, 71200, Note_off_c, 0, 57, 95
2, 71200, Note_on_c, 0, 66, 95
2, 71360, Note_off_c, 0, 66, 95
2, 71360, Note_on_c, 0, 62, 95
2, 71520, Note_off_c, 0, 62, 95
2, 71520, Note_on_c, 0, 66, 95
2, 71680, Note_off_c, 0, 66, 95
2, 71680, Note_on_c, 0, 74, 47
2, 71840, Note_off_c, 0, 74, 47
2, 71840, Note_on_c, 0, 66, 95
2, 72000, Note_off_c, 0, 66, 95
2, 72000, Note_on_c, 0, 71, 95
2, 72000, Note_on_c, 0, 57, 95
2, 72160, Note_off_c, 0, 71, 95
2, 72160, Note_off_c, 0, 57, 95
2, 72160, Note_on_c, 0, 66, 95
2, 72320, Note_off_c, 0, 66, 95
2, 72320, Note_on_c, 0, 62, 95
2, 72480, Note_off_c, 0, 62, 95
2, 72480, Note_on_c, 0, 66, 95
2, 72640, Note_off_c, 0, 66, 95
2, 72640, Note_on_c, 0, 71, 47
2, 72800, Note_off_c, 0, 71, 47
2, 72800, Note_on_c, 0, 66, 95
2, 72960, Note_off_c, 0, 66, 95
2, 72960, Note_on_c, 0, 73, 95
2, 72960, Note_on_c, 0, 57, 95
2, 73120, Note_off_c, 0, 73, 95
2, 73120, Note_off_c, 0, 57, 95
2, 73120, Note_on_c, 0, 67, 95
2, 73280, Note_off_c, 0, 67, 95
2, 73280, Note_on_c, 0, 64, 95
2, 73440, Note_off_c, 0, 64, 95
2, 73440, Note_on_c, 0, 67, 95
2, 73600, Note_off_c, 0, 67, 95
2, 73600, Note_on_c, 0, 73, 47
2, 73760, Note_off_c, 0, 73, 47
2, 73760, Note_on_c, 0, 67, 95
2, 73920, Note_off_c, 0, 67, 95
2, 73920, Note_on_c, 0, 71, 95
2, 73920, Note_on_c, 0, 57, 95
2, 74080, Note_off_c, 0, 71, 95
2, 74080, Note_off_c, 0, 57, 95
2, 74080, Note_on_c, 0, 67, 95
2, 74240, Note_off_c, 0, 67, 95
2, 74240, Note_on_c, 0, 64, 95
2, 74400, Note_off_c, 0, 64, 95
2, 74400, Note_on_c, 0, 67, 95
2, 74560, Note_off_c, 0, 67, 95
2, 74560, Note_on_c, 0, 73, 95
2, 74720, Note_off_c, 0, 73, 95
2, 74720, Note_on_c, 0, 67, 95
2, 74880, Note_off_c, 0, 67, 95
2, 74880, Note_on_c, 0, 71, 95
2, 74880, Note_on_c, 0, 57, 95
2, 75040, Note_off_c, 0, 71, 95
2, 75040, Note_off_c, 0, 57, 95
2, 75040, Note_on_c, 0, 66, 95
2, 75200, Note_off_c, 0, 66, 95
2, 75200, Note_on_c, 0, 62, 95
2, 75360, Note_off_c, 0, 62, 95
2, 75360, Note_on_c, 0, 66, 95
2, 75520, Note_off_c, 0, 66, 95
2, 75520, Note_on_c, 0, 71, 47
2, 75680, Note_off_c, 0, 71, 47
2, 75680, Note_on_c, 0, 66, 95
2, 75840, Note_off_c, 0, 66, 95
2, 75840, Note_on_c, 0, 69, 95
2, 75840, Note_on_c, 0, 57, 95
2, 76000, Note_off_c, 0, 69, 95
2, 76000, Note_off_c, 0, 57, 95
2, 76000, Note_on_c, 0, 62, 95
2, 76160, Note_off_c, 0, 62, 95
2, 76160, Note_on_c, 0, 69, 95
2, 76320, Note_off_c, 0, 69, 95
2, 76320, Note_on_c, 0, 62, 95
2, 76480, Note_off_c, 0, 62, 95
2, 76480, Note_on_c, 0, 57, 95
2, 76640, Note_off_c, 0, 57, 95
2, 76640, Note_on_c, 0, 62, 95
2, 76800, Note_off_c, 0, 62, 95
2, 76800, Note_on_c, 0, 74, 95
2, 76800, Note_on_c, 0, 52, 95
2, 76960, Note_off_c, 0, 74, 95
2, 76960, Note_off_c, 0, 52, 95
2, 76960, Note_on_c, 0, 67, 95
2, 77120, Note_off_c, 0, 67, 95
2, 77120, Note_on_c, 0, 64, 95
2, 77280, Note_off_c, 0, 64, 95
2, 77280, Note_on_c, 0, 67, 95
2, 77440, Note_off_c, 0, 67, 95
2, 77440, Note_on_c, 0, 74, 47
2, 77600, Note_off_c, 0, 74, 47
2, 77600, Note_on_c, 0, 67, 95
2, 77760, Note_off_c, 0, 67, 95
2, 77760, Note_on_c, 0, 73, 95
2, 77760, Note_on_c, 0, 57, 95
2, 77920, Note_off_c, 0, 73, 95
2, 77920, Note_off_c, 0, 57, 95
2, 77920, Note_on_c, 0, 67, 95
2, 78080, Note_off_c, 0, 67, 95
2, 78080, Note_on_c, 0, 64, 95
2, 78240, Note_off_c, 0, 64, 95
2, 78240, Note_on_c, 0, 67, 95
2, 78400, Note_off_c, 0, 67, 95
2, 78400, Note_on_c, 0, 73, 47
2, 78560, Note_off_c, 0, 73, 47
2, 78560, Note_on_c, 0, 67, 95
2, 78720, Note_off_c, 0, 67, 95
2, 78720, Note_on_c, 0, 74, 95
2, 78720, Note_on_c, 0, 52, 95
2, 78880, Note_off_c, 0, 74, 95
2, 78880, Note_off_c, 0, 52, 95
2, 78880, Note_on_c, 0, 67, 95
2, 79040, Note_off_c, 0, 67, 95
2, 79040, Note_on_c, 0, 64, 95
2, 79200, Note_off_c, 0, 64, 95
2, 79200, Note_on_c, 0, 67, 95
2, 79360, Note_off_c, 0, 67, 95
2, 79360, Note_on_c, 0, 74, 47
2, 79520, Note_off_c, 0, 74, 47
2, 79520, Note_on_c, 0, 67, 95
2, 79680, Note_off_c, 0, 67, 95
2, 79680, Note_on_c, 0, 71, 95
2, 79680, Note_on_c, 0, 57, 95
2, 79840, Note_off_c, 0, 71, 95
2, 79840, Note_off_c, 0, 57, 95
2, 79840, Note_on_c, 0, 67, 95
2, 80000, Note_off_c, 0, 67, 95
2, 80000, Note_on_c, 0, 64, 95
2, 80160, Note_off_c, 0, 64, 95
2, 80160, Note_on_c, 0, 67, 95
2, 80320, Note_off_c, 0, 67, 95
2, 80320, Note_on_c, 0, 71, 47
2, 80480, Note_off_c, 0, 71, 47
2, 80480, Note_on_c, 0, 67, 95
2, 80640, Note_off_c, 0, 67, 95
2, 80640, Note_on_c, 0, 73, 95
2, 80640, Note_on_c, 0, 57, 95
2, 80800, Note_off_c, 0, 73, 95
2, 80800, Note_off_c, 0, 57, 95
2, 80800, Note_on_c, 0, 67, 95
2, 80960, Note_off_c, 0, 67, 95
2, 80960, Note_on_c, 0, 64, 95
2, 81120, Note_off_c, 0, 64, 95
2, 81120, Note_on_c, 0, 67, 95
2, 81280, Note_off_c, 0, 67, 95
2, 81280, Note_on_c, 0, 73, 47
2, 81440, Note_off_c, 0, 73, 47
2, 81440, Note_on_c, 0, 67, 95
2, 81600, Note_off_c, 0, 67, 95
2, 81600, Note_on_c, 0, 71, 95
2, 81600, Note_on_c, 0, 57, 95
2, 81760, Note_off_c, 0, 71, 95
2, 81760, Note_off_c, 0, 57, 95
2, 81760, Note_on_c, 0, 67, 95
2, 81920, Note_off_c, 0, 67, 95
2, 81920, Note_on_c, 0, 64, 95
2, 82080, Note_off_c, 0, 64, 95
2, 82080, Note_on_c, 0, 67, 95
2, 82240, Note_off_c, 0, 67, 95
2, 82240, Note_on_c, 0, 73, 95
2, 82400, Note_off_c, 0, 73, 95
2, 82400, Note_on_c, 0, 67, 95
2, 82560, Note_off_c, 0, 67, 95
2, 82560, Note_on_c, 0, 71, 95
2, 82560, Note_on_c, 0, 57, 95
2, 82720, Note_off_c, 0, 71, 95
2, 82720, Note_off_c, 0, 57, 95
2, 82720, Note_on_c, 0, 66, 95
2, 82880, Note_off_c, 0, 66, 95
2, 82880, Note_on_c, 0, 62, 95
2, 83040, Note_off_c, 0, 62, 95
2, 83040, Note_on_c, 0, 66, 95
2, 83200, Note_off_c, 0, 66, 95
2, 83200, Note_on_c, 0, 71, 47
2, 83360, Note_off_c, 0, 71, 47
2, 83360, Note_on_c, 0, 66, 95
2, 83520, Note_off_c, 0, 66, 95
2, 83520, Note_on_c, 0, 69, 95
2, 83520, Note_on_c, 0, 57, 95
2, 83680, Note_off_c, 0, 69, 95
2, 83680, Note_off_c, 0, 57, 95
2, 83680, Note_on_c, 0, 62, 95
2, 83840, Note_off_c, 0, 62, 95
2, 83840, Note_on_c, 0, 57, 95
2, 84000, Note_off_c, 0, 57, 95
2, 84000, Note_on_c, 0, 62, 95
2, 84160, Note_off_c, 0, 62, 95
2, 84160, Note_on_c, 0, 69, 95
2, 84320, Note_off_c, 0, 69, 95
2, 84320, Note_on_c, 0, 62, 95
2, 84480, Note_off_c, 0, 62, 95
2, 84480, Note_on_c, 0, 78, 95
2, 84480, Note_on_c, 0, 62, 95
2, 84640, Note_off_c, 0, 78, 95
2, 84640, Note_off_c, 0, 62, 95
2, 84640, Note_on_c, 0, 72, 95
2, 84800, Note_off_c, 0, 72, 95
2, 84800, Note_on_c, 0, 69, 95
2, 84960, Note_off_c, 0, 69, 95
2, 84960, Note_on_c, 0, 72, 95
2, 85120, Note_off_c, 0, 72, 95
2, 85120, Note_on_c, 0, 78, 47
2, 85280, Note_off_c, 0, 78, 47
2, 85280, Note_on_c, 0, 72, 95
2, 85440, Note_off_c, 0, 72, 95
2, 85440, Note_on_c, 0, 76, 95
2, 85440, Note_on_c, 0, 62, 95
2, 85600, Note_off_c, 0, 76, 95
2, 85600, Note_off_c, 0, 62, 95
2, 85600, Note_on_c, 0, 72, 95
2, 85760, Note_off_c, 0, 72, 95
2, 85760, Note_on_c, 0, 69, 95
2, 85920, Note_off_c, 0, 69, 95
2, 85920, Note_on_c, 0, 72, 95
2, 86080, Note_off_c, 0, 72, 95
2, 86080, Note_on_c, 0, 76, 47
2, 86240, Note_off_c, 0, 76, 47
2, 86240, Note_on_c, 0, 72, 95
2, 86400, Note_off_c, 0, 72, 95
2, 86400, Note_on_c, 0, 78, 95
2, 86400, Note_on_c, 0, 62, 95
2, 86560, Note_off_c, 0, 78, 95
2, 86560, Note_off_c, 0, 62, 95
2, 86560, Note_on_c, 0, 72, 95
2, 86720, Note_off_c, 0, 72, 95
2, 86720, Note_on_c, 0, 69, 95
2, 86880, Note_off_c, 0, 69, 95
2, 86880, Note_on_c, 0, 72, 95
2, 87040, Note_off_c, 0, 72, 95
2, 87040, Note_on_c, 0, 78, 47
2, 87200, Note_off_c, 0, 78, 47
2, 87200, Note_on_c, 0, 72, 95
2, 87360, Note_off_c, 0, 72, 95
2, 87360, Note_on_c, 0, 76, 95
2, 87360, Note_on_c, 0, 62, 95
2, 87520, Note_off_c, 0, 76, 95
2, 87520, Note_off_c, 0, 62, 95
2, 87520, Note_on_c, 0, 72, 95
2, 87680, Note_off_c, 0, 72, 95
2, 87680, Note_on_c, 0, 69, 95
2, 87840, Note_off_c, 0, 69, 95
2, 87840, Note_on_c, 0, 72, 95
2, 88000, Note_off_c, 0, 72, 95
2, 88000, Note_on_c, 0, 76, 47
2, 88160, Note_off_c, 0, 76, 47
2, 88160, Note_on_c, 0, 72, 95
2, 88320, Note_off_c, 0, 72, 95
2, 88320, Note_on_c, 0, 76, 95
2, 88320, Note_on_c, 0, 62, 95
2, 88480, Note_off_c, 0, 76, 95
2, 88480, Note_off_c, 0, 62, 95
2, 88480, Note_on_c, 0, 72, 95
2, 88640, Note_off_c, 0, 72, 95
2, 88640, Note_on_c, 0, 69, 95
2, 88800, Note_off_c, 0, 69, 95
2, 88800, Note_on_c, 0, 72, 95
2, 88960, Note_off_c, 0, 72, 95
2, 88960, Note_on_c, 0, 76, 47
2, 89120, Note_off_c, 0, 76, 47
2, 89120, Note_on_c, 0, 72, 95
2, 89280, Note_off_c, 0, 72, 95
2, 89280, Note_on_c, 0, 78, 95
2, 89280, Note_on_c, 0, 62, 95
2, 89440, Note_off_c, 0, 78, 95
2, 89440, Note_off_c, 0, 62, 95
2, 89440, Note_on_c, 0, 72, 95
2, 89600, Note_off_c, 0, 72, 95
2, 89600, Note_on_c, 0, 69, 95
2, 89760, Note_off_c, 0, 69, 95
2, 89760, Note_on_c, 0, 74, 95
2, 89920, Note_off_c, 0, 74, 95
2, 89920, Note_on_c, 0, 78, 47
2, 90080, Note_off_c, 0, 78, 47
2, 90080, Note_on_c, 0, 74, 47
2, 90240, Note_off_c, 0, 74, 47
2, 90240, Note_on_c, 0, 76, 95
2, 90240, Note_on_c, 0, 62, 95
2, 90400, Note_off_c, 0, 76, 95
2, 90400, Note_off_c, 0, 62, 95
2, 90400, Note_on_c, 0, 72, 95
2, 90560, Note_off_c, 0, 72, 95
2, 90560, Note_on_c, 0, 69, 95
2, 90720, Note_off_c, 0, 69, 95
2, 90720, Note_on_c, 0, 72, 95
2, 90880, Note_off_c, 0, 72, 95
2, 90880, Note_on_c, 0, 76, 47
2, 91040, Note_off_c, 0, 76, 47
2, 91040, Note_on_c, 0, 72, 95
2, 91200, Note_off_c, 0, 72, 95
2, 91200, Note_on_c, 0, 76, 95
2, 91200, Note_on_c, 0, 62, 95
2, 91360, Note_off_c, 0, 76, 95
2, 91360, Note_off_c, 0, 62, 95
2, 91360, Note_on_c, 0, 72, 95
2, 91520, Note_off_c, 0, 72, 95
2, 91520, Note_on_c, 0, 69, 95
2, 91680, Note_off_c, 0, 69, 95
2, 91680, Note_on_c, 0, 72, 95
2, 91840, Note_off_c, 0, 72, 95
2, 91840, Note_on_c, 1, 76, 47
2, 92000, Note_off_c, 1, 76, 47
2, 92000, Note_on_c, 1, 72, 95
2, 92160, Note_off_c, 1, 72, 95
2, 92160, Note_on_c, 0, 73, 95
2, 92160, Note_on_c, 0, 57, 95
2, 92320, Note_off_c, 0, 73, 95
2, 92320, Note_off_c, 0, 57, 95
2, 92320, Note_on_c, 0, 67, 95
2, 92480, Note_off_c, 0, 67, 95
2, 92480, Note_on_c, 0, 64, 95
2, 92640, Note_off_c, 0, 64, 95
2, 92640, Note_on_c, 0, 67, 95
2, 92800, Note_off_c, 0, 67, 95
2, 92800, Note_on_c, 0, 73, 47
2, 92960, Note_off_c, 0, 73, 47
2, 92960, Note_on_c, 0, 67, 95
2, 93120, Note_off_c, 0, 67, 95
2, 93120, Note_on_c, 0, 71, 95
2, 93120, Note_on_c, 0, 57, 95
2, 93280, Note_off_c, 0, 71, 95
2, 93280, Note_off_c, 0, 57, 95
2, 93280, Note_on_c, 0, 67, 95
2, 93440, Note_off_c, 0, 67, 95
2, 93440, Note_on_c, 0, 64, 95
2, 93600, Note_off_c, 0, 64, 95
2, 93600, Note_on_c, 0, 67, 95
2, 93760, Note_off_c, 0, 67, 95
2, 93760, Note_on_c, 0, 71, 47
2, 93920, Note_off_c, 0, 71, 47
2, 93920, Note_on_c, 0, 67, 95
2, 94080, Note_off_c, 0, 67, 95
2, 94080, Note_on_c, 0, 69, 95
2, 94080, Note_on_c, 0, 57, 95
2, 94240, Note_off_c, 0, 69, 95
2, 94240, Note_off_c, 0, 57, 95
2, 94240, Note_on_c, 0, 64, 95
2, 94400, Note_off_c, 0, 64, 95
2, 94400, Note_on_c, 0, 57, 95
2, 94560, Note_off_c, 0, 57, 95
2, 94560, Note_on_c, 0, 64, 95
2, 94720, Note_off_c, 0, 64, 95
2, 94720, Note_on_c, 0, 69, 47
2, 94880, Note_off_c, 0, 69, 47
2, 94880, Note_on_c, 0, 64, 95
2, 95040, Note_off_c, 0, 64, 95
2, 95040, Note_on_c, 0, 71, 95
2, 95040, Note_on_c, 0, 57, 95
2, 95200, Note_off_c, 0, 71, 95
2, 95200, Note_off_c, 0, 57, 95
2, 95200, Note_on_c, 0, 67, 95
2, 95360, Note_off_c, 0, 67, 95
2, 95360, Note_on_c, 0, 64, 95
2, 95520, Note_off_c, 0, 64, 95
2, 95520, Note_on_c, 0, 67, 95
2, 95680, Note_off_c, 0, 67, 95
2, 95680, Note_on_c, 0, 71, 47
2, 95840, Note_off_c, 0, 71, 47
2, 95840, Note_on_c, 0, 67, 95
2, 96000, Note_off_c, 0, 67, 95
2, 96000, Note_on_c, 0, 73, 95
2, 96000, Note_on_c, 0, 57, 95
2, 96160, Note_off_c, 0, 73, 95
2, 96160, Note_off_c, 0, 57, 95
2, 96160, Note_on_c, 0, 67, 95
2, 96320, Note_off_c, 0, 67, 95
2, 96320, Note_on_c, 0, 64, 95
2, 96480, Note_off_c, 0, 64, 95
2, 96480, Note_on_c, 0, 67, 95
2, 96640, Note_off_c, 0, 67, 95
2, 96640, Note_on_c, 0, 73, 47
2, 96800, Note_off_c, 0, 73, 47
2, 96800, Note_on_c, 0, 67, 95
2, 96960, Note_off_c, 0, 67, 95
2, 96960, Note_on_c, 0, 74, 95
2, 96960, Note_on_c, 0, 57, 95
2, 97120, Note_off_c, 0, 74, 95
2, 97120, Note_off_c, 0, 57, 95
2, 97120, Note_on_c, 0, 67, 95
2, 97280, Note_off_c, 0, 67, 95
2, 97280, Note_on_c, 0, 64, 95
2, 97440, Note_off_c, 0, 64, 95
2, 97440, Note_on_c, 0, 67, 95
2, 97600, Note_off_c, 0, 67, 95
2, 97600, Note_on_c, 0, 76, 95
2, 97920, Note_off_c, 0, 76, 95
2, 97920, Note_on_c, 0, 74, 95
2, 98240, Note_off_c, 0, 74, 95
2, 98240, Note_on_c, 0, 74, 95
2, 98280, Note_on_c, 0, 69, 95
2, 98320, Note_on_c, 0, 66, 95
2, 98560, Note_off_c, 0, 74, 95
2, 98560, Note_off_c, 0, 69, 95
2, 98560, Note_off_c, 0, 66, 95
2, 98560, Note_on_c, 0, 74, 95
2, 98600, Note_on_c, 0, 69, 95
2, 98640, Note_on_c, 0, 66, 95
2, 98680, Note_on_c, 0, 62, 95
2, 98880, Note_off_c, 0, 74, 95
2, 98880, Note_off_c, 0, 69, 95
2, 98880, Note_off_c, 0, 66, 95
2, 98880, Note_off_c, 0, 62, 95
2, 98880, Note_on_c, 0, 74, 95
2, 98910, Note_on_c, 0, 69, 95
2, 98940, Note_on_c, 0, 66, 95
2, 98970, Note_on_c, 0, 62, 95
2, 99000, Note_on_c, 0, 57, 95
2, 99030, Note_on_c, 0, 50, 95
2, 99840, Note_off_c, 0, 74, 95
2, 99840, Note_off_c, 0, 69, 95
2, 99840, Note_off_c, 0, 66, 95
2, 99840, Note_off_c, 0, 62, 95
2, 99840, Note_off_c, 0, 57, 95
2, 99840, Note_off_c, 0, 50, 95
2, 99840, Note_on_c, 0, 50, 95
2, 100160, Note_off_c, 0, 50, 95
2, 100160, Note_on_c, 0, 65, 95
2, 100160, Note_on_c, 0, 62, 95
2, 100160, Note_on_c, 0, 57, 95
2, 100480, Note_off_c, 0, 65, 95
2, 100480, Note_off_c, 0, 62, 95
2, 100480, Note_off_c, 0, 57, 95
2, 100480, Note_on_c, 0, 65, 95
2, 100480, Note_on_c, 0, 62, 95
2, 100480, Note_on_c, 0, 57, 95
2, 100800, Note_off_c, 0, 65, 95
2, 100800, Note_off_c, 0, 62, 95
2, 100800, Note_off_c, 0, 57, 95
2, 100800, Note_on_c, 0, 50, 95
2, 101120, Note_off_c, 0, 50, 95
2, 101120, Note_on_c, 0, 65, 95
2, 101120, Note_on_c, 0, 62, 95
2, 101120, Note_on_c, 0, 57, 95
2, 101440, Note_off_c, 0, 65, 95
2, 101440, Note_off_c, 0, 62, 95
2, 101440, Note_off_c, 0, 57, 95
2, 101440, Note_on_c, 0, 65, 95
2, 101440, Note_on_c, 0, 62, 95
2, 101440, Note_on_c, 0, 57, 95
2, 101760, Note_off_c, 0, 65, 95
2, 101760, Note_off_c, 0, 62, 95
2, 101760, Note_off_c, 0, 57, 95
2, 101760, Note_on_c, 0, 45, 95
2, 102080, Note_off_c, 0, 45, 95
2, 102080, Note_on_c, 0, 61, 95
2, 102080, Note_on_c, 0, 57, 95
2, 102080, Note_on_c, 0, 52, 95
2, 102400, Note_off_c, 0, 61, 95
2, 102400, Note_off_c, 0, 57, 95
2, 102400, Note_off_c, 0, 52, 95
2, 102400, Note_on_c, 0, 61, 95
2, 102400, Note_on_c, 0, 57, 95
2, 102400, Note_on_c, 0, 52, 95
2, 102720, Note_off_c, 0, 61, 95
2, 102720, Note_off_c, 0, 57, 95
2, 102720, Note_off_c, 0, 52, 95
2, 102720, Note_on_c, 0, 45, 95
2, 103040, Note_off_c, 0, 45, 95
2, 103040, Note_on_c, 0, 61, 95
2, 103040, Note_on_c, 0, 57, 95
2, 103040, Note_on_c, 0, 52, 95
2, 103360, Note_off_c, 0, 61, 95
2, 103360, Note_off_c, 0, 57, 95
2, 103360, Note_off_c, 0, 52, 95
2, 103360, Note_on_c, 0, 61, 95
2, 103360, Note_on_c, 0, 57, 95
2, 103360, Note_on_c, 0, 52, 95
2, 103680, Note_off_c, 0, 61, 95
2, 103680, Note_off_c, 0, 57, 95
2, 103680, Note_off_c, 0, 52, 95
2, 103680, Note_on_c, 0, 50, 95
2, 104000, Note_off_c, 0, 50, 95
2, 104000, Note_on_c, 0, 65, 95
2, 104000, Note_on_c, 0, 62, 95
2, 104000, Note_on_c, 0, 57, 95
2, 104320, Note_off_c, 0, 65, 95
2, 104320, Note_off_c, 0, 62, 95
2, 104320, Note_off_c, 0, 57, 95
2, 104320, Note_on_c, 0, 65, 95
2, 104320, Note_on_c, 0, 62, 95
2, 104320, Note_on_c, 0, 57, 95
2, 104640, Note_off_c, 0, 65, 95
2, 104640, Note_off_c, 0, 62, 95
2, 104640, Note_off_c, 0, 57, 95
2, 104640, Note_on_c, 0, 50, 95
2, 104960, Note_off_c, 0, 50, 95
2, 104960, Note_on_c, 0, 65, 95
2, 104960, Note_on_c, 0, 62, 95
2, 104960, Note_on_c, 0, 57, 95
2, 105280, Note_off_c, 0, 65, 95
2, 105280, Note_off_c, 0, 62, 95
2, 105280, Note_off_c, 0, 57, 95
2, 105280, Note_on_c, 0, 65, 95
2, 105280, Note_on_c, 0, 62, 95
2, 105280, Note_on_c, 0, 57, 95
2, 105600, Note_off_c, 0, 65, 95
2, 105600, Note_off_c, 0, 62, 95
2, 105600, Note_off_c, 0, 57, 95
2, 105600, Note_on_c, 0, 52, 95
2, 105920, Note_off_c, 0, 52, 95
2, 105920, Note_on_c, 0, 64, 95
2, 105920, Note_on_c, 0, 61, 95
2, 105920, Note_on_c, 0, 57, 95
2, 106240, Note_off_c, 0, 64, 95
2, 106240, Note_off_c, 0, 61, 95
2, 106240, Note_off_c, 0, 57, 95
2, 106240, Note_on_c, 0, 64, 95
2, 106240, Note_on_c, 0, 61, 95
2, 106240, Note_on_c, 0, 57, 95
2, 106560, Note_off_c, 0, 64, 95
2, 106560, Note_off_c, 0, 61, 95
2, 106560, Note_off_c, 0, 57, 95
2, 106560, Note_on_c, 0, 52, 95
2, 106880, Note_off_c, 0, 52, 95
2, 106880, Note_on_c, 0, 64, 95
2, 106880, Note_on_c, 0, 61, 95
2, 106880, Note_on_c, 0, 57, 95
2, 107200, Note_off_c, 0, 64, 95
2, 107200, Note_off_c, 0, 61, 95
2, 107200, Note_off_c, 0, 57, 95
2, 107200, Note_on_c, 0, 64, 95
2, 107200, Note_on_c, 0, 61, 95
2, 107200, Note_on_c, 0, 57, 95
2, 107520, Note_off_c, 0, 64, 95
2, 107520, Note_off_c, 0, 61, 95
2, 107520, Note_off_c, 0, 57, 95
2, 107520, Note_on_c, 0, 52, 95
2, 107840, Note_off_c, 0, 52, 95
2, 107840, Note_on_c, 0, 64, 95
2, 107840, Note_on_c, 0, 61, 95
2, 107840, Note_on_c, 0, 57, 95
2, 108160, Note_off_c, 0, 64, 95
2, 108160, Note_off_c, 0, 61, 95
2, 108160, Note_off_c, 0, 57, 95
2, 108160, Note_on_c, 0, 64, 95
2, 108160, Note_on_c, 0, 61, 95
2, 108160, Note_on_c, 0, 57, 95
2, 108480, Note_off_c, 0, 64, 95
2, 108480, Note_off_c, 0, 61, 95
2, 108480, Note_off_c, 0, 57, 95
2, 108480, Note_on_c, 0, 52, 95
2, 108800, Note_off_c, 0, 52, 95
2, 108800, Note_on_c, 0, 64, 95
2, 108800, Note_on_c, 0, 61, 95
2, 108800, Note_on_c, 0, 57, 95
2, 109120, Note_off_c, 0, 64, 95
2, 109120, Note_off_c, 0, 61, 95
2, 109120, Note_off_c, 0, 57, 95
2, 109120, Note_on_c, 0, 64, 95
2, 109120, Note_on_c, 0, 61, 95
2, 109120, Note_on_c, 0, 57, 95
2, 109440, Note_off_c, 0, 64, 95
2, 109440, Note_off_c, 0, 61, 95
2, 109440, Note_off_c, 0, 57, 95
2, 109440, Note_on_c, 0, 45, 95
2, 109760, Note_off_c, 0, 45, 95
2, 109760, Note_on_c, 0, 59, 95
2, 109760, Note_on_c, 0, 57, 95
2, 109760, Note_on_c, 0, 52, 95
2, 110080, Note_off_c, 0, 59, 95
2, 110080, Note_off_c, 0, 57, 95
2, 110080, Note_off_c, 0, 52, 95
2, 110080, Note_on_c, 0, 59, 95
2, 110080, Note_on_c, 0, 57, 95
2, 110080, Note_on_c, 0, 52, 95
2, 110400, Note_off_c, 0, 59, 95
2, 110400, Note_off_c, 0, 57, 95
2, 110400, Note_off_c, 0, 52, 95
2, 110400, Note_on_c, 0, 45, 95
2, 110720, Note_off_c, 0, 45, 95
2, 110720, Note_on_c, 0, 59, 95
2, 110720, Note_on_c, 0, 57, 95
2, 110720, Note_on_c, 0, 52, 95
2, 111040, Note_off_c, 0, 59, 95
2, 111040, Note_off_c, 0, 57, 95
2, 111040, Note_off_c, 0, 52, 95
2, 111040, Note_on_c, 0, 59, 95
2, 111040, Note_on_c, 0, 57, 95
2, 111040, Note_on_c, 0, 52, 95
2, 111360, Note_off_c, 0, 59, 95
2, 111360, Note_off_c, 0, 57, 95
2, 111360, Note_off_c, 0, 52, 95
2, 111360, Note_on_c, 0, 45, 95
2, 111680, Note_off_c, 0, 45, 95
2, 111680, Note_on_c, 0, 59, 95
2, 111680, Note_on_c, 0, 57, 95
2, 111680, Note_on_c, 0, 52, 95
2, 112000, Note_off_c, 0, 59, 95
2, 112000, Note_off_c, 0, 57, 95
2, 112000, Note_off_c, 0, 52, 95
2, 112000, Note_on_c, 0, 59, 95
2, 112000, Note_on_c, 0, 57, 95
2, 112000, Note_on_c, 0, 52, 95
2, 112320, Note_off_c, 0, 59, 95
2, 112320, Note_off_c, 0, 57, 95
2, 112320, Note_off_c, 0, 52, 95
2, 112320, Note_on_c, 0, 45, 95
2, 112640, Note_off_c, 0, 45, 95
2, 112640, Note_on_c, 0, 61, 95
2, 112640, Note_on_c, 0, 57, 95
2, 112640, Note_on_c, 0, 52, 95
2, 112960, Note_off_c, 0, 61, 95
2, 112960, Note_off_c, 0, 57, 95
2, 112960, Note_off_c, 0, 52, 95
2, 112960, Note_on_c, 0, 61, 95
2, 112960, Note_on_c, 0, 57, 95
2, 112960, Note_on_c, 0, 52, 95
2, 113280, Note_off_c, 0, 61, 95
2, 113280, Note_off_c, 0, 57, 95
2, 113280, Note_off_c, 0, 52, 95
2, 113280, Note_on_c, 0, 45, 95
2, 113600, Note_off_c, 0, 45, 95
2, 113600, Note_on_c, 0, 61, 95
2, 113600, Note_on_c, 0, 57, 95
2, 113600, Note_on_c, 0, 52, 95
2, 113920, Note_off_c, 0, 61, 95
2, 113920, Note_off_c, 0, 57, 95
2, 113920, Note_off_c, 0, 52, 95
2, 113920, Note_on_c, 0, 61, 95
2, 113920, Note_on_c, 0, 57, 95
2, 113920, Note_on_c, 0, 52, 95
2, 114240, Note_off_c, 0, 61, 95
2, 114240, Note_off_c, 0, 57, 95
2, 114240, Note_off_c, 0, 52, 95
2, 114240, Note_on_c, 0, 69, 95
2, 114560, Note_off_c, 0, 69, 95
2, 114560, Note_on_c, 0, 68, 95
2, 114880, Note_off_c, 0, 68, 95
2, 114880, Note_on_c, 0, 67, 95
2, 115200, Note_off_c, 0, 67, 95
2, 115200, Note_on_c, 0, 66, 95
2, 115520, Note_off_c, 0, 66, 95
2, 115520, Note_on_c, 0, 65, 95
2, 115840, Note_off_c, 0, 65, 95
2, 115840, Note_on_c, 0, 64, 95
2, 116160, Note_off_c, 0, 64, 95
2, 116160, Note_on_c, 0, 65, 95
2, 116160, Note_on_c, 0, 62, 95
2, 116160, Note_on_c, 0, 57, 95
2, 116160, Note_on_c, 0, 50, 95
2, 117840, Note_off_c, 0, 65, 95
2, 117840, Note_off_c, 0, 62, 95
2, 117840, Note_off_c, 0, 57, 95
2, 117840, Note_off_c, 0, 50, 95
2, 117840, Note_on_c, 0, 65, 95
2, 117840, Note_on_c, 0, 62, 95
2, 117840, Note_on_c, 0, 57, 95
2, 117840, Note_on_c, 0, 50, 95
2, 118080, Note_off_c, 0, 65, 95
2, 118080, Note_off_c, 0, 62, 95
2, 118080, Note_off_c, 0, 57, 95
2, 118080, Note_off_c, 0, 50, 95
2, 118080, Note_on_c, 0, 67, 95
2, 118080, Note_on_c, 0, 61, 95
2, 118080, Note_on_c, 0, 57, 95
2, 118080, Note_on_c, 0, 52, 95
2, 118080, Note_on_c, 0, 45, 95
2, 120000, Note_off_c, 0, 67, 95
2, 120000, Note_off_c, 0, 61, 95
2, 120000, Note_off_c, 0, 57, 95
2, 120000, Note_off_c, 0, 52, 95
2, 120000, Note_off_c, 0, 45, 95
2, 120000, Note_on_c, 0, 69, 95
2, 120000, Note_on_c, 0, 65, 95
2, 120000, Note_on_c, 0, 62, 95
2, 120000, Note_on_c, 0, 57, 95
2, 120000, Note_on_c, 0, 50, 95
2, 121920, Note_off_c, 0, 69, 95
2, 121920, Note_off_c, 0, 65, 95
2, 121920, Note_off_c, 0, 62, 95
2, 121920, Note_off_c, 0, 57, 95
2, 121920, Note_off_c, 0, 50, 95
2, 121920, Note_on_c, 0, 69, 95
2, 121920, Note_on_c, 0, 64, 95
2, 121920, Note_on_c, 0, 61, 95
2, 121920, Note_on_c, 0, 57, 95
2, 121920, Note_on_c, 0, 52, 95
2, 121920, Note_on_c, 0, 45, 95
2, 122880, Note_off_c, 0, 69, 95
2, 122880, Note_off_c, 0, 64, 95
2, 122880, Note_off_c, 0, 61, 95
2, 122880, Note_off_c, 0, 57, 95
2, 122880, Note_off_c, 0, 52, 95
2, 122880, Note_off_c, 0, 45, 95
2, 122880, Note_on_c, 0, 64, 95
2, 123200, Note_off_c, 0, 64, 95
2, 123200, Note_on_c, 0, 65, 95
2, 123520, Note_off_c, 0, 65, 95
2, 123520, Note_on_c, 0, 64, 95
2, 123840, Note_off_c, 0, 64, 95
2, 123840, Note_on_c, 0, 62, 95
2, 124480, Note_off_c, 0, 62, 95
2, 124480, Note_on_c, 0, 57, 95
2, 124800, Note_off_c, 0, 57, 95
2, 124800, Note_on_c, 0, 64, 95
2, 125120, Note_off_c, 0, 64, 95
2, 125120, Note_on_c, 0, 65, 95
2, 125440, Note_off_c, 0, 65, 95
2, 125440, Note_on_c, 0, 64, 95
2, 125760, Note_off_c, 0, 64, 95
2, 125760, Note_on_c, 0, 62, 95
2, 126400, Note_off_c, 0, 62, 95
2, 126400, Note_on_c, 0, 65, 95
2, 126400, Note_on_c, 0, 57, 95
2, 126720, Note_off_c, 0, 65, 95
2, 126720, Note_off_c, 0, 57, 95
2, 126720, Note_on_c, 0, 64, 95
2, 127040, Note_off_c, 0, 64, 95
2, 127040, Note_on_c, 0, 65, 95
2, 127360, Note_off_c, 0, 65, 95
2, 127360, Note_on_c, 0, 64, 95
2, 127680, Note_off_c, 0, 64, 95
2, 127680, Note_on_c, 0, 62, 95
2, 128320, Note_off_c, 0, 62, 95
2, 128320, Note_on_c, 0, 65, 95
2, 128320, Note_on_c, 0, 57, 95
2, 128640, Note_off_c, 0, 65, 95
2, 128640, Note_off_c, 0, 57, 95
2, 128640, Note_on_c, 0, 65, 95
2, 128640, Note_on_c, 0, 57, 95
2, 129280, Note_off_c, 0, 65, 95
2, 129280, Note_off_c, 0, 57, 95
2, 129280, Note_on_c, 0, 65, 95
2, 129280, Note_on_c, 0, 57, 95
2, 129600, Note_off_c, 0, 65, 95
2, 129600, Note_off_c, 0, 57, 95
2, 129600, Note_on_c, 0, 67, 95
2, 129600, Note_on_c, 0, 61, 95
2, 129600, Note_on_c, 0, 57, 95
2, 129600, Note_on_c, 0, 52, 95
2, 129600, Note_on_c, 0, 45, 95
2, 130560, Note_off_c, 0, 67, 95
2, 130560, Note_off_c, 0, 61, 95
2, 130560, Note_off_c, 0, 57, 95
2, 130560, Note_off_c, 0, 52, 95
2, 130560, Note_off_c, 0, 45, 95
2, 130560, Note_on_c, 0, 74, 95
2, 130560, Note_on_c, 0, 62, 95
2, 130560, Note_on_c, 0, 57, 95
2, 130720, Note_off_c, 0, 74, 95
2, 130720, Note_off_c, 0, 62, 95
2, 130720, Note_off_c, 0, 57, 95
2, 130720, Note_on_c, 0, 66, 95
2, 130880, Note_off_c, 0, 66, 95
2, 130880, Note_on_c, 0, 62, 95
2, 131040, Note_off_c, 0, 62, 95
2, 131040, Note_on_c, 0, 66, 95
2, 131200, Note_off_c, 0, 66, 95
2, 131200, Note_on_c, 0, 74, 47
2, 131360, Note_off_c, 0, 74, 47
2, 131360, Note_on_c, 0, 66, 95
2, 131520, Note_off_c, 0, 66, 95
2, 131520, Note_on_c, 0, 73, 95
2, 131520, Note_on_c, 0, 57, 95
2, 131680, Note_off_c, 0, 73, 95
2, 131680, Note_off_c, 0, 57, 95
2, 131680, Note_on_c, 0, 66, 95
2, 131840, Note_off_c, 0, 66, 95
2, 131840, Note_on_c, 0, 62, 95
2, 132000, Note_off_c, 0, 62, 95
2, 132000, Note_on_c, 0, 66, 95
2, 132160, Note_off_c, 0, 66, 95
2, 132160, Note_on_c, 0, 73, 47
2, 132320, Note_off_c, 0, 73, 47
2, 132320, Note_on_c, 0, 66, 95
2, 132480, Note_off_c, 0, 66, 95
2, 132480, Note_on_c, 0, 74, 95
2, 132480, Note_on_c, 0, 57, 95
2, 132640, Note_off_c, 0, 74, 95
2, 132640, Note_off_c, 0, 57, 95
2, 132640, Note_on_c, 0, 66, 95
2, 132800, Note_off_c, 0, 66, 95
2, 132800, Note_on_c, 0, 62, 95
2, 132960, Note_off_c, 0, 62, 95
2, 132960, Note_on_c, 0, 66, 95
2, 133120, Note_off_c, 0, 66, 95
2, 133120, Note_on_c, 0, 74, 47
2, 133280, Note_off_c, 0, 74, 47
2, 133280, Note_on_c, 0, 66, 95
2, 133440, Note_off_c, 0, 66, 95
2, 133440, Note_on_c, 0, 71, 95
2, 133440, Note_on_c, 0, 57, 95
2, 133600, Note_off_c, 0, 71, 95
2, 133600, Note_off_c, 0, 57, 95
2, 133600, Note_on_c, 0, 66, 95
2, 133760, Note_off_c, 0, 66, 95
2, 133760, Note_on_c, 0, 62, 95
2, 133920, Note_off_c, 0, 62, 95
2, 133920, Note_on_c, 0, 66, 95
2, 134080, Note_off_c, 0, 66, 95
2, 134080, Note_on_c, 0, 71, 47
2, 134240, Note_off_c, 0, 71, 47
2, 134240, Note_on_c, 0, 66, 95
2, 134400, Note_off_c, 0, 66, 95
2, 134400, Note_on_c, 0, 73, 95
2, 134400, Note_on_c, 0, 57, 95
2, 134560, Note_off_c, 0, 73, 95
2, 134560, Note_off_c, 0, 57, 95
2, 134560, Note_on_c, 0, 67, 95
2, 134720, Note_off_c, 0, 67, 95
2, 134720, Note_on_c, 0, 64, 95
2, 134880, Note_off_c, 0, 64, 95
2, 134880, Note_on_c, 0, 67, 95
2, 135040, Note_off_c, 0, 67, 95
2, 135040, Note_on_c, 0, 73, 47
2, 135200, Note_off_c, 0, 73, 47
2, 135200, Note_on_c, 0, 67, 95
2, 135360, Note_off_c, 0, 67, 95
2, 135360, Note_on_c, 0, 71, 95
2, 135360, Note_on_c, 0, 57, 95
2, 135520, Note_off_c, 0, 71, 95
2, 135520, Note_off_c, 0, 57, 95
2, 135520, Note_on_c, 0, 67, 95
2, 135680, Note_off_c, 0, 67, 95
2, 135680, Note_on_c, 0, 64, 95
2, 135840, Note_off_c, 0, 64, 95
2, 135840, Note_on_c, 0, 67, 95
2, 136000, Note_off_c, 0, 67, 95
2, 136000, Note_on_c, 0, 73, 95
2, 136160, Note_off_c, 0, 73, 95
2, 136160, Note_on_c, 0, 67, 95
2, 136320, Note_off_c, 0, 67, 95
2, 136320, Note_on_c, 0, 71, 95
2, 136320, Note_on_c, 0, 57, 95
2, 136480, Note_off_c, 0, 71, 95
2, 136480, Note_off_c, 0, 57, 95
2, 136480, Note_on_c, 0, 66, 95
2, 136640, Note_off_c, 0, 66, 95
2, 136640, Note_on_c, 0, 62, 95
2, 136800, Note_off_c, 0, 62, 95
2, 136800, Note_on_c, 0, 66, 95
2, 136960, Note_off_c, 0, 66, 95
2, 136960, Note_on_c, 0, 71, 47
2, 137120, Note_off_c, 0, 71, 47
2, 137120, Note_on_c, 0, 66, 95
2, 137280, Note_off_c, 0, 66, 95
2, 137280, Note_on_c, 0, 69, 95
2, 137280, Note_on_c, 0, 57, 95
2, 137440, Note_off_c, 0, 69, 95
2, 137440, Note_off_c, 0, 57, 95
2, 137440, Note_on_c, 0, 62, 95
2, 137600, Note_off_c, 0, 62, 95
2, 137600, Note_on_c, 0, 69, 95
2, 137760, Note_off_c, 0, 69, 95
2, 137760, Note_on_c, 0, 62, 95
2, 137920, Note_off_c, 0, 62, 95
2, 137920, Note_on_c, 0, 57, 95
2, 138080, Note_off_c, 0, 57, 95
2, 138080, Note_on_c, 0, 62, 95
2, 138240, Note_off_c, 0, 62, 95
2, 138240, Note_on_c, 0, 74, 95
2, 138240, Note_on_c, 0, 52, 95
2, 138400, Note_off_c, 0, 74, 95
2, 138400, Note_off_c, 0, 52, 95
2, 138400, Note_on_c, 0, 67, 95
2, 138560, Note_off_c, 0, 67, 95
2, 138560, Note_on_c, 0, 64, 95
2, 138720, Note_off_c, 0, 64, 95
2, 138720, Note_on_c, 0, 67, 95
2, 138880, Note_off_c, 0, 67, 95
2, 138880, Note_on_c, 0, 74, 47
2, 139040, Note_off_c, 0, 74, 47
2, 139040, Note_on_c, 0, 67, 95
2, 139200, Note_off_c, 0, 67, 95
2, 139200, Note_on_c, 0, 73, 95
2, 139200, Note_on_c, 0, 57, 95
2, 139360, Note_off_c, 0, 73, 95
2, 139360, Note_off_c, 0, 57, 95
2, 139360, Note_on_c, 0, 67, 95
2, 139520, Note_off_c, 0, 67, 95
2, 139520, Note_on_c, 0, 64, 95
2, 139680, Note_off_c, 0, 64, 95
2, 139680, Note_on_c, 0, 67, 95
2, 139840, Note_off_c, 0, 67, 95
2, 139840, Note_on_c, 0, 73, 47
2, 140000, Note_off_c, 0, 73, 47
2, 140000, Note_on_c, 0, 67, 95
2, 140160, Note_off_c, 0, 67, 95
2, 140160, Note_on_c, 0, 74, 95
2, 140160, Note_on_c, 0, 52, 95
2, 140320, Note_off_c, 0, 74, 95
2, 140320, Note_off_c, 0, 52, 95
2, 140320, Note_on_c, 0, 67, 95
2, 140480, Note_off_c, 0, 67, 95
2, 140480, Note_on_c, 0, 64, 95
2, 140640, Note_off_c, 0, 64, 95
2, 140640, Note_on_c, 0, 67, 95
2, 140800, Note_off_c, 0, 67, 95
2, 140800, Note_on_c, 0, 74, 47
2, 140960, Note_off_c, 0, 74, 47
2, 140960, Note_on_c, 0, 67, 95
2, 141120, Note_off_c, 0, 67, 95
2, 141120, Note_on_c, 0, 71, 95
2, 141120, Note_on_c, 0, 57, 95
2, 141280, Note_off_c, 0, 71, 95
2, 141280, Note_off_c, 0, 57, 95
2, 141280, Note_on_c, 0, 67, 95
2, 141440, Note_off_c, 0, 67, 95
2, 141440, Note_on_c, 0, 64, 95
2, 141600, Note_off_c, 0, 64, 95
2, 141600, Note_on_c, 0, 67, 95
2, 141760, Note_off_c, 0, 67, 95
2, 141760, Note_on_c, 0, 71, 47
2, 141920, Note_off_c, 0, 71, 47
2, 141920, Note_on_c, 0, 67, 95
2, 142080, Note_off_c, 0, 67, 95
2, 142080, Note_on_c, 0, 73, 95
2, 142080, Note_on_c, 0, 57, 95
2, 142240, Note_off_c, 0, 73, 95
2, 142240, Note_off_c, 0, 57, 95
2, 142240, Note_on_c, 0, 67, 95
2, 142400, Note_off_c, 0, 67, 95
2, 142400, Note_on_c, 0, 64, 95
2, 142560, Note_off_c, 0, 64, 95
2, 142560, Note_on_c, 0, 67, 95
2, 142720, Note_off_c, 0, 67, 95
2, 142720, Note_on_c, 0, 73, 47
2, 142880, Note_off_c, 0, 73, 47
2, 142880, Note_on_c, 0, 67, 95
2, 143040, Note_off_c, 0, 67, 95
2, 143040, Note_on_c, 0, 71, 95
2, 143040, Note_on_c, 0, 57, 95
2, 143200, Note_off_c, 0, 71, 95
2, 143200, Note_off_c, 0, 57, 95
2, 143200, Note_on_c, 0, 67, 95
2, 143360, Note_off_c, 0, 67, 95
2, 143360, Note_on_c, 0, 64, 95
2, 143520, Note_off_c, 0, 64, 95
2, 143520, Note_on_c, 0, 67, 95
2, 143680, Note_off_c, 0, 67, 95
2, 143680, Note_on_c, 0, 73, 95
2, 143840, Note_off_c, 0, 73, 95
2, 143840, Note_on_c, 0, 67, 95
2, 144000, Note_off_c, 0, 67, 95
2, 144000, Note_on_c, 0, 71, 95
2, 144000, Note_on_c, 0, 57, 95
2, 144160, Note_off_c, 0, 71, 95
2, 144160, Note_off_c, 0, 57, 95
2, 144160, Note_on_c, 0, 66, 95
2, 144320, Note_off_c, 0, 66, 95
2, 144320, Note_on_c, 0, 62, 95
2, 144480, Note_off_c, 0, 62, 95
2, 144480, Note_on_c, 0, 66, 95
2, 144640, Note_off_c, 0, 66, 95
2, 144640, Note_on_c, 0, 71, 47
2, 144800, Note_off_c, 0, 71, 47
2, 144800, Note_on_c, 0, 66, 95
2, 144960, Note_off_c, 0, 66, 95
2, 144960, Note_on_c, 0, 69, 95
2, 144960, Note_on_c, 0, 57, 95
2, 145120, Note_off_c, 0, 69, 95
2, 145120, Note_off_c, 0, 57, 95
2, 145120, Note_on_c, 0, 62, 95
2, 145280, Note_off_c, 0, 62, 95
2, 145280, Note_on_c, 0, 57, 95
2, 145440, Note_off_c, 0, 57, 95
2, 145440, Note_on_c, 0, 62, 95
2, 145600, Note_off_c, 0, 62, 95
2, 145600, Note_on_c, 0, 69, 95
2, 145760, Note_off_c, 0, 69, 95
2, 145760, Note_on_c, 0, 62, 95
2, 145920, Note_off_c, 0, 62, 95
2, 145920, Note_on_c, 0, 78, 95
2, 145920, Note_on_c, 0, 62, 95
2, 146080, Note_off_c, 0, 78, 95
2, 146080, Note_off_c, 0, 62, 95
2, 146080, Note_on_c, 0, 72, 95
2, 146240, Note_off_c, 0, 72, 95
2, 146240, Note_on_c, 0, 69, 95
2, 146400, Note_off_c, 0, 69, 95
2, 146400, Note_on_c, 0, 72, 95
2, 146560, Note_off_c, 0, 72, 95
2, 146560, Note_on_c, 0, 78, 47
2, 146720, Note_off_c, 0, 78, 47
2, 146720, Note_on_c, 0, 72, 95
2, 146880, Note_off_c, 0, 72, 95
2, 146880, Note_on_c, 0, 76, 95
2, 146880, Note_on_c, 0, 62, 95
2, 147040, Note_off_c, 0, 76, 95
2, 147040, Note_off_c, 0, 62, 95
2, 147040, Note_on_c, 0, 72, 95
2, 147200, Note_off_c, 0, 72, 95
2, 147200, Note_on_c, 0, 69, 95
2, 147360, Note_off_c, 0, 69, 95
2, 147360, Note_on_c, 0, 72, 95
2, 147520, Note_off_c, 0, 72, 95
2, 147520, Note_on_c, 0, 76, 47
2, 147680, Note_off_c, 0, 76, 47
2, 147680, Note_on_c, 0, 72, 95
2, 147840, Note_off_c, 0, 72, 95
2, 147840, Note_on_c, 0, 78, 95
2, 147840, Note_on_c, 0, 62, 95
2, 148000, Note_off_c, 0, 78, 95
2, 148000, Note_off_c, 0, 62, 95
2, 148000, Note_on_c, 0, 72, 95
2, 148160, Note_off_c, 0, 72, 95
2, 148160, Note_on_c, 0, 69, 95
2, 148320, Note_off_c, 0, 69, 95
2, 148320, Note_on_c, 0, 72, 95
2, 148480, Note_off_c, 0, 72, 95
2, 148480, Note_on_c, 0, 78, 47
2, 148640, Note_off_c, 0, 78, 47
2, 148640, Note_on_c, 0, 72, 95
2, 148800, Note_off_c, 0, 72, 95
2, 148800, Note_on_c, 0, 76, 95
2, 148800, Note_on_c, 0, 62, 95
2, 148960, Note_off_c, 0, 76, 95
2, 148960, Note_off_c, 0, 62, 95
2, 148960, Note_on_c, 0, 72, 95
2, 149120, Note_off_c, 0, 72, 95
2, 149120, Note_on_c, 0, 69, 95
2, 149280, Note_off_c, 0, 69, 95
2, 149280, Note_on_c, 0, 72, 95
2, 149440, Note_off_c, 0, 72, 95
2, 149440, Note_on_c, 0, 76, 47
2, 149600, Note_off_c, 0, 76, 47
2, 149600, Note_on_c, 0, 72, 95
2, 149760, Note_off_c, 0, 72, 95
2, 149760, Note_on_c, 0, 76, 95
2, 149760, Note_on_c, 0, 62, 95
2, 149920, Note_off_c, 0, 76, 95
2, 149920, Note_off_c, 0, 62, 95
2, 149920, Note_on_c, 0, 72, 95
2, 150080, Note_off_c, 0, 72, 95
2, 150080, Note_on_c, 0, 69, 95
2, 150240, Note_off_c, 0, 69, 95
2, 150240, Note_on_c, 0, 72, 95
2, 150400, Note_off_c, 0, 72, 95
2, 150400, Note_on_c, 0, 76, 47
2, 150560, Note_off_c, 0, 76, 47
2, 150560, Note_on_c, 0, 72, 95
2, 150720, Note_off_c, 0, 72, 95
2, 150720, Note_on_c, 0, 78, 95
2, 150720, Note_on_c, 0, 62, 95
2, 150880, Note_off_c, 0, 78, 95
2, 150880, Note_off_c, 0, 62, 95
2, 150880, Note_on_c, 0, 72, 95
2, 151040, Note_off_c, 0, 72, 95
2, 151040, Note_on_c, 0, 69, 95
2, 151200, Note_off_c, 0, 69, 95
2, 151200, Note_on_c, 0, 74, 95
2, 151360, Note_off_c, 0, 74, 95
2, 151360, Note_on_c, 0, 78, 47
2, 151520, Note_off_c, 0, 78, 47
2, 151520, Note_on_c, 0, 74, 47
2, 151680, Note_off_c, 0, 74, 47
2, 151680, Note_on_c, 0, 76, 95
2, 151680, Note_on_c, 0, 62, 95
2, 151840, Note_off_c, 0, 76, 95
2, 151840, Note_off_c, 0, 62, 95
2, 151840, Note_on_c, 0, 72, 95
2, 152000, Note_off_c, 0, 72, 95
2, 152000, Note_on_c, 0, 69, 95
2, 152160, Note_off_c, 0, 69, 95
2, 152160, Note_on_c, 0, 72, 95
2, 152320, Note_off_c, 0, 72, 95
2, 152320, Note_on_c, 0, 76, 47
2, 152480, Note_off_c, 0, 76, 47
2, 152480, Note_on_c, 0, 72, 95
2, 152640, Note_off_c, 0, 72, 95
2, 152640, Note_on_c, 0, 76, 95
2, 152640, Note_on_c, 0, 62, 95
2, 152800, Note_off_c, 0, 76, 95
2, 152800, Note_off_c, 0, 62, 95
2, 152800, Note_on_c, 0, 72, 95
2, 152960, Note_off_c, 0, 72, 95
2, 152960, Note_on_c, 0, 69, 95
2, 153120, Note_off_c, 0, 69, 95
2, 153120, Note_on_c, 0, 72, 95
2, 153280, Note_off_c, 0, 72, 95
2, 153280, Note_on_c, 1, 76, 47
2, 153440, Note_off_c, 1, 76, 47
2, 153440, Note_on_c, 1, 72, 95
2, 153600, Note_off_c, 1, 72, 95
2, 153600, Note_on_c, 0, 73, 95
2, 153600, Note_on_c, 0, 57, 95
2, 153760, Note_off_c, 0, 73, 95
2, 153760, Note_off_c, 0, 57, 95
2, 153760, Note_on_c, 0, 67, 95
2, 153920, Note_off_c, 0, 67, 95
2, 153920, Note_on_c, 0, 64, 95
2, 154080, Note_off_c, 0, 64, 95
2, 154080, Note_on_c, 0, 67, 95
2, 154240, Note_off_c, 0, 67, 95
2, 154240, Note_on_c, 0, 73, 47
2, 154400, Note_off_c, 0, 73, 47
2, 154400, Note_on_c, 0, 67, 95
2, 154560, Note_off_c, 0, 67, 95
2, 154560, Note_on_c, 0, 71, 95
2, 154560, Note_on_c, 0, 57, 95
2, 154720, Note_off_c, 0, 71, 95
2, 154720, Note_off_c, 0, 57, 95
2, 154720, Note_on_c, 0, 67, 95
2, 154880, Note_off_c, 0, 67, 95
2, 154880, Note_on_c, 0, 64, 95
2, 155040, Note_off_c, 0, 64, 95
2, 155040, Note_on_c, 0, 67, 95
2, 155200, Note_off_c, 0, 67, 95
2, 155200, Note_on_c, 0, 71, 47
2, 155360, Note_off_c, 0, 71, 47
2, 155360, Note_on_c, 0, 67, 95
2, 155520, Note_off_c, 0, 67, 95
2, 155520, Note_on_c, 0, 69, 95
2, 155520, Note_on_c, 0, 57, 95
2, 155680, Note_off_c, 0, 69, 95
2, 155680, Note_off_c, 0, 57, 95
2, 155680, Note_on_c, 0, 64, 95
2, 155840, Note_off_c, 0, 64, 95
2, 155840, Note_on_c, 0, 57, 95
2, 156000, Note_off_c, 0, 57, 95
2, 156000, Note_on_c, 0, 64, 95
2, 156160, Note_off_c, 0, 64, 95
2, 156160, Note_on_c, 0, 69, 47
2, 156320, Note_off_c, 0, 69, 47
2, 156320, Note_on_c, 0, 64, 95
2, 156480, Note_off_c, 0, 64, 95
2, 156480, Note_on_c, 0, 71, 95
2, 156480, Note_on_c, 0, 57, 95
2, 156640, Note_off_c, 0, 71, 95
2, 156640, Note_off_c, 0, 57, 95
2, 156640, Note_on_c, 0, 67, 95
2, 156800, Note_off_c, 0, 67, 95
2, 156800, Note_on_c, 0, 64, 95
2, 156960, Note_off_c, 0, 64, 95
2, 156960, Note_on_c, 0, 67, 95
2, 157120, Note_off_c, 0, 67, 95
2, 157120, Note_on_c, 0, 71, 47
2, 157280, Note_off_c, 0, 71, 47
2, 157280, Note_on_c, 0, 67, 95
2, 157440, Note_off_c, 0, 67, 95
2, 157440, Note_on_c, 0, 73, 95
2, 157440, Note_on_c, 0, 57, 95
2, 157600, Note_off_c, 0, 73, 95
2, 157600, Note_off_c, 0, 57, 95
2, 157600, Note_on_c, 0, 67, 95
2, 157760, Note_off_c, 0, 67, 95
2, 157760, Note_on_c, 0, 64, 95
2, 157920, Note_off_c, 0, 64, 95
2, 157920, Note_on_c, 0, 67, 95
2, 158080, Note_off_c, 0, 67, 95
2, 158080, Note_on_c, 0, 73, 47
2, 158240, Note_off_c, 0, 73, 47
2, 158240, Note_on_c, 0, 67, 95
2, 158400, Note_off_c, 0, 67, 95
2, 158400, Note_on_c, 0, 74, 95
2, 158400, Note_on_c, 0, 57, 95
2, 158560, Note_off_c, 0, 74, 95
2, 158560, Note_off_c, 0, 57, 95
2, 158560, Note_on_c, 0, 67, 95
2, 158720, Note_off_c, 0, 67, 95
2, 158720, Note_on_c, 0, 64, 95
2, 158880, Note_off_c, 0, 64, 95
2, 158880, Note_on_c, 0, 67, 95
2, 159040, Note_off_c, 0, 67, 95
2, 159040, Note_on_c, 0, 76, 95
2, 159360, Note_off_c, 0, 76, 95
2, 159360, Note_on_c, 0, 74, 95
2, 159680, Note_off_c, 0, 74, 95
2, 159680, Note_on_c, 0, 74, 95
2, 159720, Note_on_c, 0, 69, 95
2, 159760, Note_on_c, 0, 66, 95
2, 160000, Note_off_c, 0, 74, 95
2, 160000, Note_off_c, 0, 69, 95
2, 160000, Note_off_c, 0, 66, 95
2, 160000, Note_on_c, 0, 74, 95
2, 160040, Note_on_c, 0, 69, 95
2, 160080, Note_on_c, 0, 66, 95
2, 160120, Note_on_c, 0, 62, 95
2, 160320, Note_off_c, 0, 74, 95
2, 160320, Note_off_c, 0, 69, 95
2, 160320, Note_off_c, 0, 66, 95
2, 160320, Note_off_c, 0, 62, 95
2, 160320, Note_on_c, 0, 74, 95
2, 160350, Note_on_c, 0, 69, 95
2, 160380, Note_on_c, 0, 66, 95
2, 160410, Note_on_c, 0, 62, 95
2, 160440, Note_on_c, 0, 57, 95
2, 160470, Note_on_c, 0, 50, 95
2, 161280, Note_off_c, 0, 74, 95
2, 161280, Note_off_c, 0, 69, 95
2, 161280, Note_off_c, 0, 66, 95
2, 161280, Note_off_c, 0, 62, 95
2, 161280, Note_off_c, 0, 57, 95
2, 161280, Note_off_c, 0, 50, 95
2, 161280, Note_on_c, 0, 50, 95
2, 161600, Note_off_c, 0, 50, 95
2, 161600, Note_on_c, 0, 65, 95
2, 161600, Note_on_c, 0, 62, 95
2, 161600, Note_on_c, 0, 57, 95
2, 161920, Note_off_c, 0, 65, 95
2, 161920, Note_off_c, 0, 62, 95
2, 161920, Note_off_c, 0, 57, 95
2, 161920, Note_on_c, 0, 65, 95
2, 161920, Note_on_c, 0, 62, 95
2, 161920, Note_on_c, 0, 57, 95
2, 162240, Note_off_c, 0, 65, 95
2, 162240, Note_off_c, 0, 62, 95
2, 162240, Note_off_c, 0, 57, 95
2, 162240, Note_on_c, 0, 50, 95
2, 162560, Note_off_c, 0, 50, 95
2, 162560, Note_on_c, 0, 65, 95
2, 162560, Note_on_c, 0, 62, 95
2, 162560, Note_on_c, 0, 57, 95
2, 162880, Note_off_c, 0, 65, 95
2, 162880, Note_off_c, 0, 62, 95
2, 162880, Note_off_c, 0, 57, 95
2, 162880, Note_on_c, 0, 65, 95
2, 162880, Note_on_c, 0, 62, 95
2, 162880, Note_on_c, 0, 57, 95
2, 163200, Note_off_c, 0, 65, 95
2, 163200, Note_off_c, 0, 62, 95
2, 163200, Note_off_c, 0, 57, 95
2, 163200, Note_on_c, 0, 45, 95
2, 163520, Note_off_c, 0, 45, 95
2, 163520, Note_on_c, 0, 61, 95
2, 163520, Note_on_c, 0, 57, 95
2, 163520, Note_on_c, 0, 52, 95
2, 163840, Note_off_c, 0, 61, 95
2, 163840, Note_off_c, 0, 57, 95
2, 163840, Note_off_c, 0, 52, 95
2, 163840, Note_on_c, 0, 61, 95
2, 163840, Note_on_c, 0, 57, 95
2, 163840, Note_on_c, 0, 52, 95
2, 164160, Note_off_c, 0, 61, 95
2, 164160, Note_off_c, 0, 57, 95
2, 164160, Note_off_c, 0, 52, 95
2, 164160, Note_on_c, 0, 45, 95
2, 164480, Note_off_c, 0, 45, 95
2, 164480, Note_on_c, 0, 61, 95
2, 164480, Note_on_c, 0, 57, 95
2, 164480, Note_on_c, 0, 52, 95
2, 164800, Note_off_c, 0, 61, 95
2, 164800, Note_off_c, 0, 57, 95
2, 164800, Note_off_c, 0, 52, 95
2, 164800, Note_on_c, 0, 61, 95
2, 164800, Note_on_c, 0, 57, 95
2, 164800, Note_on_c, 0, 52, 95
2, 165120, Note_off_c, 0, 61, 95
2, 165120, Note_off_c, 0, 57, 95
2, 165120, Note_off_c, 0, 52, 95
2, 165120, Note_on_c, 0, 50, 95
2, 165440, Note_off_c, 0, 50, 95
2, 165440, Note_on_c, 0, 65, 95
2, 165440, Note_on_c, 0, 62, 95
2, 165440, Note_on_c, 0, 57, 95
2, 165760, Note_off_c, 0, 65, 95
2, 165760, Note_off_c, 0, 62, 95
2, 165760, Note_off_c, 0, 57, 95
2, 165760, Note_on_c, 0, 65, 95
2, 165760, Note_on_c, 0, 62, 95
2, 165760, Note_on_c, 0, 57, 95
2, 166080, Note_off_c, 0, 65, 95
2, 166080, Note_off_c, 0, 62, 95
2, 166080, Note_off_c, 0, 57, 95
2, 166080, Note_on_c, 0, 50, 95
2, 166400, Note_off_c, 0, 50, 95
2, 166400, Note_on_c, 0, 65, 95
2, 166400, Note_on_c, 0, 62, 95
2, 166400, Note_on_c, 0, 57, 95
2, 166720, Note_off_c, 0, 65, 95
2, 166720, Note_off_c, 0, 62, 95
2, 166720, Note_off_c, 0, 57, 95
2, 166720, Note_on_c, 0, 65, 95
2, 166720, Note_on_c, 0, 62, 95
2, 166720, Note_on_c, 0, 57, 95
2, 167040, Note_off_c, 0, 65, 95
2, 167040, Note_off_c, 0, 62, 95
2, 167040, Note_off_c, 0, 57, 95
2, 167040, Note_on_c, 0, 52, 95
2, 167360, Note_off_c, 0, 52, 95
2, 167360, Note_on_c, 0, 64, 95
2, 167360, Note_on_c, 0, 61, 95
2, 167360, Note_on_c, 0, 57, 95
2, 167680, Note_off_c, 0, 64, 95
2, 167680, Note_off_c, 0, 61, 95
2, 167680, Note_off_c, 0, 57, 95
2, 167680, Note_on_c, 0, 64, 95
2, 167680, Note_on_c, 0, 61, 95
2, 167680, Note_on_c, 0, 57, 95
2, 168000, Note_off_c, 0, 64, 95
2, 168000, Note_off_c, 0, 61, 95
2, 168000, Note_off_c, 0, 57, 95
2, 168000, Note_on_c, 0, 52, 95
2, 168320, Note_off_c, 0, 52, 95
2, 168320, Note_on_c, 0, 64, 95
2, 168320, Note_on_c, 0, 61, 95
2, 168320, Note_on_c, 0, 57, 95
2, 168640, Note_off_c, 0, 64, 95
2, 168640, Note_off_c, 0, 61, 95
2, 168640, Note_off_c, 0, 57, 95
2, 168640, Note_on_c, 0, 64, 95
2, 168640, Note_on_c, 0, 61, 95
2, 168640, Note_on_c, 0, 57, 95
2, 168960, Note_off_c, 0, 64, 95
2, 168960, Note_off_c, 0, 61, 95
2, 168960, Note_off_c, 0, 57, 95
2, 168960, Note_on_c, 0, 52, 95
2, 169280, Note_off_c, 0, 52, 95
2, 169280, Note_on_c, 0, 64, 95
2, 169280, Note_on_c, 0, 61, 95
2, 169280, Note_on_c, 0, 57, 95
2, 169600, Note_off_c, 0, 64, 95
2, 169600, Note_off_c, 0, 61, 95
2, 169600, Note_off_c, 0, 57, 95
2, 169600, Note_on_c, 0, 64, 95
2, 169600, Note_on_c, 0, 61, 95
2, 169600, Note_on_c, 0, 57, 95
2, 169920, Note_off_c, 0, 64, 95
2, 169920, Note_off_c, 0, 61, 95
2, 169920, Note_off_c, 0, 57, 95
2, 169920, Note_on_c, 0, 52, 95
2, 170240, Note_off_c, 0, 52, 95
2, 170240, Note_on_c, 0, 64, 95
2, 170240, Note_on_c, 0, 61, 95
2, 170240, Note_on_c, 0, 57, 95
2, 170560, Note_off_c, 0, 64, 95
2, 170560, Note_off_c, 0, 61, 95
2, 170560, Note_off_c, 0, 57, 95
2, 170560, Note_on_c, 0, 64, 95
2, 170560, Note_on_c, 0, 61, 95
2, 170560, Note_on_c, 0, 57, 95
2, 170880, Note_off_c, 0, 64, 95
2, 170880, Note_off_c, 0, 61, 95
2, 170880, Note_off_c, 0, 57, 95
2, 170880, Note_on_c, 0, 45, 95
2, 171200, Note_off_c, 0, 45, 95
2, 171200, Note_on_c, 0, 59, 95
2, 171200, Note_on_c, 0, 57, 95
2, 171200, Note_on_c, 0, 52, 95
2, 171520, Note_off_c, 0, 59, 95
2, 171520, Note_off_c, 0, 57, 95
2, 171520, Note_off_c, 0, 52, 95
2, 171520, Note_on_c, 0, 59, 95
2, 171520, Note_on_c, 0, 57, 95
2, 171520, Note_on_c, 0, 52, 95
2, 171840, Note_off_c, 0, 59, 95
2, 171840, Note_off_c, 0, 57, 95
2, 171840, Note_off_c, 0, 52, 95
2, 171840, Note_on_c, 0, 45, 95
2, 172160, Note_off_c, 0, 45, 95
2, 172160, Note_on_c, 0, 59, 95
2, 172160, Note_on_c, 0, 57, 95
2, 172160, Note_on_c, 0, 52, 95
2, 172480, Note_off_c, 0, 59, 95
2, 172480, Note_off_c, 0, 57, 95
2, 172480, Note_off_c, 0, 52, 95
2, 172480, Note_on_c, 0, 59, 95
2, 172480, Note_on_c, 0, 57, 95
2, 172480, Note_on_c, 0, 52, 95
2, 172800, Note_off_c, 0, 59, 95
2, 172800, Note_off_c, 0, 57, 95
2, 172800, Note_off_c, 0, 52, 95
2, 172800, Note_on_c, 0, 45, 95
2, 173120, Note_off_c, 0, 45, 95
2, 173120, Note_on_c, 0, 59, 95
2, 173120, Note_on_c, 0, 57, 95
2, 173120, Note_on_c, 0, 52, 95
2, 173440, Note_off_c, 0, 59, 95
2, 173440, Note_off_c, 0, 57, 95
2, 173440, Note_off_c, 0, 52, 95
2, 173440, Note_on_c, 0, 59, 95
2, 173440, Note_on_c, 0, 57, 95
2, 173440, Note_on_c, 0, 52, 95
2, 173760, Note_off_c, 0, 59, 95
2, 173760, Note_off_c, 0, 57, 95
2, 173760, Note_off_c, 0, 52, 95
2, 173760, Note_on_c, 0, 45, 95
2, 174080, Note_off_c, 0, 45, 95
2, 174080, Note_on_c, 0, 61, 95
2, 174080, Note_on_c, 0, 57, 95
2, 174080, Note_on_c, 0, 52, 95
2, 174400, Note_off_c, 0, 61, 95
2, 174400, Note_off_c, 0, 57, 95
2, 174400, Note_off_c, 0, 52, 95
2, 174400, Note_on_c, 0, 61, 95
2, 174400, Note_on_c, 0, 57, 95
2, 174400, Note_on_c, 0, 52, 95
2, 174720, Note_off_c, 0, 61, 95
2, 174720, Note_off_c, 0, 57, 95
2, 174720, Note_off_c, 0, 52, 95
2, 174720, Note_on_c, 0, 45, 95
2, 175040, Note_off_c, 0, 45, 95
2, 175040, Note_on_c, 0, 61, 95
2, 175040, Note_on_c, 0, 57, 95
2, 175040, Note_on_c, 0, 52, 95
2, 175360, Note_off_c, 0, 61, 95
2, 175360, Note_off_c, 0, 57, 95
2, 175360, Note_off_c, 0, 52, 95
2, 175360, Note_on_c, 0, 61, 95
2, 175360, Note_on_c, 0, 57, 95
2, 175360, Note_on_c, 0, 52, 95
2, 175680, Note_off_c, 0, 61, 95
2, 175680, Note_off_c, 0, 57, 95
2, 175680, Note_off_c, 0, 52, 95
2, 175680, Note_on_c, 0, 69, 95
2, 176000, Note_off_c, 0, 69, 95
2, 176000, Note_on_c, 0, 68, 95
2, 176320, Note_off_c, 0, 68, 95
2, 176320, Note_on_c, 0, 67, 95
2, 176640, Note_off_c, 0, 67, 95
2, 176640, Note_on_c, 0, 66, 95
2, 176960, Note_off_c, 0, 66, 95
2, 176960, Note_on_c, 0, 65, 95
2, 177280, Note_off_c, 0, 65, 95
2, 177280, Note_on_c, 0, 64, 95
2, 177600, Note_off_c, 0, 64, 95
2, 177600, Note_on_c, 0, 65, 95
2, 177600, Note_on_c, 0, 62, 95
2, 177600, Note_on_c, 0, 57, 95
2, 177600, Note_on_c, 0, 50, 95
2, 179280, Note_off_c, 0, 65, 95
2, 179280, Note_off_c, 0, 62, 95
2, 179280, Note_off_c, 0, 57, 95
2, 179280, Note_off_c, 0, 50, 95
2, 179280, Note_on_c, 0, 65, 95
2, 179280, Note_on_c, 0, 62, 95
2, 179280, Note_on_c, 0, 57, 95
2, 179280, Note_on_c, 0, 50, 95
2, 179520, Note_off_c, 0, 65, 95
2, 179520, Note_off_c, 0, 62, 95
2, 179520, Note_off_c, 0, 57, 95
2, 179520, Note_off_c, 0, 50, 95
2, 179520, Note_on_c, 0, 67, 95
2, 179520, Note_on_c, 0, 61, 95
2, 179520, Note_on_c, 0, 57, 95
2, 179520, Note_on_c, 0, 52, 95
2, 179520, Note_on_c, 0, 45, 95
2, 181440, Note_off_c, 0, 67, 95
2, 181440, Note_off_c, 0, 61, 95
2, 181440, Note_off_c, 0, 57, 95
2, 181440, Note_off_c, 0, 52, 95
2, 181440, Note_off_c, 0, 45, 95
2, 181440, Note_on_c, 0, 69, 95
2, 181440, Note_on_c, 0, 65, 95
2, 181440, Note_on_c, 0, 62, 95
2, 181440, Note_on_c, 0, 57, 95
2, 181440, Note_on_c, 0, 50, 95
2, 183360, Note_off_c, 0, 69, 95
2, 183360, Note_off_c, 0, 65, 95
2, 183360, Note_off_c, 0, 62, 95
2, 183360, Note_off_c, 0, 57, 95
2, 183360, Note_off_c, 0, 50, 95
2, 183360, Note_on_c, 0, 69, 95
2, 183360, Note_on_c, 0, 64, 95
2, 183360, Note_on_c, 0, 61, 95
2, 183360, Note_on_c, 0, 57, 95
2, 183360, Note_on_c, 0, 52, 95
2, 183360, Note_on_c, 0, 45, 95
2, 184320, Note_off_c, 0, 69, 95
2, 184320, Note_off_c, 0, 64, 95
2, 184320, Note_off_c, 0, 61, 95
2, 184320, Note_off_c, 0, 57, 95
2, 184320, Note_off_c, 0, 52, 95
2, 184320, Note_off_c, 0, 45, 95
2, 184320, Note_on_c, 0, 64, 95
2, 184640, Note_off_c, 0, 64, 95
2, 184640, Note_on_c, 0, 65, 95
2, 184960, Note_off_c, 0, 65, 95
2, 184960, Note_on_c, 0, 64, 95
2, 185280, Note_off_c, 0, 64, 95
2, 185280, Note_on_c, 0, 62, 95
2, 185920, Note_off_c, 0, 62, 95
2, 185920, Note_on_c, 0, 57, 95
2, 186240, Note_off_c, 0, 57, 95
2, 186240, Note_on_c, 0, 64, 95
2, 186560, Note_off_c, 0, 64, 95
2, 186560, Note_on_c, 0, 65, 95
2, 186880, Note_off_c, 0, 65, 95
2, 186880, Note_on_c, 0, 64, 95
2, 187200, Note_off_c, 0, 64, 95
2, 187200, Note_on_c, 0, 62, 95
2, 187840, Note_off_c, 0, 62, 95
2, 187840, Note_on_c, 0, 65, 95
2, 187840, Note_on_c, 0, 57, 95
2, 188160, Note_off_c, 0, 65, 95
2, 188160, Note_off_c, 0, 57, 95
2, 188160, Note_on_c, 0, 64, 95
2, 188480, Note_off_c, 0, 64, 95
2, 188480, Note_on_c, 0, 65, 95
2, 188800, Note_off_c, 0, 65, 95
2, 188800, Note_on_c, 0, 64, 95
2, 189120, Note_off_c, 0, 64, 95
2, 189120, Note_on_c, 0, 62, 95
2, 189760, Note_off_c, 0, 62, 95
2, 189760, Note_on_c, 0, 65, 95
2, 189760, Note_on_c, 0, 57, 95
2, 190080, Note_off_c, 0, 65, 95
2, 190080, Note_off_c, 0, 57, 95
2, 190080, Note_on_c, 0, 65, 95
2, 190080, Note_on_c, 0, 57, 95
2, 190720, Note_off_c, 0, 65, 95
2, 190720, Note_off_c, 0, 57, 95
2, 190720, Note_on_c, 0, 65, 95
2, 190720, Note_on_c, 0, 57, 95
2, 191040, Note_off_c, 0, 65, 95
2, 191040, Note_off_c, 0, 57, 95
2, 191040, Note_on_c, 0, 67, 95
2, 191040, Note_on_c, 0, 61, 95
2, 191040, Note_on_c, 0, 57, 95
2, 191040, Note_on_c, 0, 52, 95
2, 191040, Note_on_c, 0, 45, 95
2, 192000, Note_off_c, 0, 67, 95
2, 192000, Note_off_c, 0, 61, 95
2, 192000, Note_off_c, 0, 57, 95
2, 192000, Note_off_c, 0, 52, 95
2, 192000, Note_off_c, 0, 45, 95
2, 192000, Note_on_c, 0, 74, 95
2, 192000, Note_on_c, 0, 62, 95
2, 192000, Note_on_c, 0, 57, 95
2, 192160, Note_off_c, 0, 74, 95
2, 192160, Note_off_c, 0, 62, 95
2, 192160, Note_off_c, 0, 57, 95
2, 192160, Note_on_c, 0, 66, 95
2, 192320, Note_off_c, 0, 66, 95
2, 192320, Note_on_c, 0, 62, 95
2, 192480, Note_off_c, 0, 62, 95
2, 192480, Note_on_c, 0, 66, 95
2, 192640, Note_off_c, 0, 66, 95
2, 192640, Note_on_c, 0, 74, 47
2, 192800, Note_off_c, 0, 74, 47
2, 192800, Note_on_c, 0, 66, 95
2, 192960, Note_off_c, 0, 66, 95
2, 192960, Note_on_c, 0, 73, 95
2, 192960, Note_on_c, 0, 57, 95
2, 193120, Note_off_c, 0, 73, 95
2, 193120, Note_off_c, 0, 57, 95
2, 193120, Note_on_c, 0, 66, 95
2, 193280, Note_off_c, 0, 66, 95
2, 193280, Note_on_c, 0, 62, 95
2, 193440, Note_off_c, 0, 62, 95
2, 193440, Note_on_c, 0, 66, 95
2, 193600, Note_off_c, 0, 66, 95
2, 193600, Note_on_c, 0, 73, 47
2, 193760, Note_off_c, 0, 73, 47
2, 193760, Note_on_c, 0, 66, 95
2, 193920, Note_off_c, 0, 66, 95
2, 193920, Note_on_c, 0, 74, 95
2, 193920, Note_on_c, 0, 57, 95
2, 194080, Note_off_c, 0, 74, 95
2, 194080, Note_off_c, 0, 57, 95
2, 194080, Note_on_c, 0, 66, 95
2, 194240, Note_off_c, 0, 66, 95
2, 194240, Note_on_c, 0, 62, 95
2, 194400, Note_off_c, 0, 62, 95
2, 194400, Note_on_c, 0, 66, 95
2, 194560, Note_off_c, 0, 66, 95
2, 194560, Note_on_c, 0, 74, 47
2, 194720, Note_off_c, 0, 74, 47
2, 194720, Note_on_c, 0, 66, 95
2, 194880, Note_off_c, 0, 66, 95
2, 194880, Note_on_c, 0, 71, 95
2, 194880, Note_on_c, 0, 57, 95
2, 195040, Note_off_c, 0, 71, 95
2, 195040, Note_off_c, 0, 57, 95
2, 195040, Note_on_c, 0, 66, 95
2, 195200, Note_off_c, 0, 66, 95
2, 195200, Note_on_c, 0, 62, 95
2, 195360, Note_off_c, 0, 62, 95
2, 195360, Note_on_c, 0, 66, 95
2, 195520, Note_off_c, 0, 66, 95
2, 195520, Note_on_c, 0, 71, 47
2, 195680, Note_off_c, 0, 71, 47
2, 195680, Note_on_c, 0, 66, 95
2, 195840, Note_off_c, 0, 66, 95
2, 195840, Note_on_c, 0, 73, 95
2, 195840, Note_on_c, 0, 57, 95
2, 196000, Note_off_c, 0, 73, 95
2, 196000, Note_off_c, 0, 57, 95
2, 196000, Note_on_c, 0, 67, 95
2, 196160, Note_off_c, 0, 67, 95
2, 196160, Note_on_c, 0, 64, 95
2, 196320, Note_off_c, 0, 64, 95
2, 196320, Note_on_c, 0, 67, 95
2, 196480, Note_off_c, 0, 67, 95
2, 196480, Note_on_c, 0, 73, 47
2, 196640, Note_off_c, 0, 73, 47
2, 196640, Note_on_c, 0, 67, 95
2, 196800, Note_off_c, 0, 67, 95
2, 196800, Note_on_c, 0, 71, 95
2, 196800, Note_on_c, 0, 57, 95
2, 196960, Note_off_c, 0, 71, 95
2, 196960, Note_off_c, 0, 57, 95
2, 196960, Note_on_c, 0, 67, 95
2, 197120, Note_off_c, 0, 67, 95
2, 197120, Note_on_c, 0, 64, 95
2, 197280, Note_off_c, 0, 64, 95
2, 197280, Note_on_c, 0, 67, 95
2, 197440, Note_off_c, 0, 67, 95
2, 197440, Note_on_c, 0, 73, 95
2, 197600, Note_off_c, 0, 73, 95
2, 197600, Note_on_c, 0, 67, 95
2, 197760, Note_off_c, 0, 67, 95
2, 197760, Note_on_c, 0, 71, 95
2, 197760, Note_on_c, 0, 57, 95
2, 197920, Note_off_c, 0, 71, 95
2, 197920, Note_off_c, 0, 57, 95
2, 197920, Note_on_c, 0, 66, 95
2, 198080, Note_off_c, 0, 66, 95
2, 198080, Note_on_c, 0, 62, 95
2, 198240, Note_off_c, 0, 62, 95
2, 198240, Note_on_c, 0, 66, 95
2, 198400, Note_off_c, 0, 66, 95
2, 198400, Note_on_c, 0, 71, 47
2, 198560, Note_off_c, 0, 71, 47
2, 198560, Note_on_c, 0, 66, 95
2, 198720, Note_off_c, 0, 66, 95
2, 198720, Note_on_c, 0, 69, 95
2, 198720, Note_on_c, 0, 57, 95
2, 198880, Note_off_c, 0, 69, 95
2, 198880, Note_off_c, 0, 57, 95
2, 198880, Note_on_c, 0, 62, 95
2, 199040, Note_off_c, 0, 62, 95
2, 199040, Note_on_c, 0, 69, 95
2, 199200, Note_off_c, 0, 69, 95
2, 199200, Note_on_c, 0, 62, 95
2, 199360, Note_off_c, 0, 62, 95
2, 199360, Note_on_c, 0, 57, 95
2, 199520, Note_off_c, 0, 57, 95
2, 199520, Note_on_c, 0, 62, 95
2, 199680, Note_off_c, 0, 62, 95
2, 199680, Note_on_c, 0, 74, 95
2, 199680, Note_on_c, 0, 52, 95
2, 199840, Note_off_c, 0, 74, 95
2, 199840, Note_off_c, 0, 52, 95
2, 199840, Note_on_c, 0, 67, 95
2, 200000, Note_off_c, 0, 67, 95
2, 200000, Note_on_c, 0, 64, 95
2, 200160, Note_off_c, 0, 64, 95
2, 200160, Note_on_c, 0, 67, 95
2, 200320, Note_off_c, 0, 67, 95
2, 200320, Note_on_c, 0, 74, 47
2, 200480, Note_off_c, 0, 74, 47
2, 200480, Note_on_c, 0, 67, 95
2, 200640, Note_off_c, 0, 67, 95
2, 200640, Note_on_c, 0, 73, 95
2, 200640, Note_on_c, 0, 57, 95
2, 200800, Note_off_c, 0, 73, 95
2, 200800, Note_off_c, 0, 57, 95
2, 200800, Note_on_c, 0, 67, 95
2, 200960, Note_off_c, 0, 67, 95
2, 200960, Note_on_c, 0, 64, 95
2, 201120, Note_off_c, 0, 64, 95
2, 201120, Note_on_c, 0, 67, 95
2, 201280, Note_off_c, 0, 67, 95
2, 201280, Note_on_c, 0, 73, 47
2, 201440, Note_off_c, 0, 73, 47
2, 201440, Note_on_c, 0, 67, 95
2, 201600, Note_off_c, 0, 67, 95
2, 201600, Note_on_c, 0, 74, 95
2, 201600, Note_on_c, 0, 52, 95
2, 201760, Note_off_c, 0, 74, 95
2, 201760, Note_off_c, 0, 52, 95
2, 201760, Note_on_c, 0, 67, 95
2, 201920, Note_off_c, 0, 67, 95
2, 201920, Note_on_c, 0, 64, 95
2, 202080, Note_off_c, 0, 64, 95
2, 202080, Note_on_c, 0, 67, 95
2, 202240, Note_off_c, 0, 67, 95
2, 202240, Note_on_c, 0, 74, 47
2, 202400, Note_off_c, 0, 74, 47
2, 202400, Note_on_c, 0, 67, 95
2, 202560, Note_off_c, 0, 67, 95
2, 202560, Note_on_c, 0, 71, 95
2, 202560, Note_on_c, 0, 57, 95
2, 202720, Note_off_c, 0, 71, 95
2, 202720, Note_off_c, 0, 57, 95
2, 202720, Note_on_c, 0, 67, 95
2, 202880, Note_off_c, 0, 67, 95
2, 202880, Note_on_c, 0, 64, 95
2, 203040, Note_off_c, 0, 64, 95
2, 203040, Note_on_c, 0, 67, 95
2, 203200, Note_off_c, 0, 67, 95
2, 203200, Note_on_c, 0, 71, 47
2, 203360, Note_off_c, 0, 71, 47
2, 203360, Note_on_c, 0, 67, 95
2, 203520, Note_off_c, 0, 67, 95
2, 203520, Note_on_c, 0, 73, 95
2, 203520, Note_on_c, 0, 57, 95
2, 203680, Note_off_c, 0, 73, 95
2, 203680, Note_off_c, 0, 57, 95
2, 203680, Note_on_c, 0, 67, 95
2, 203840, Note_off_c, 0, 67, 95
2, 203840, Note_on_c, 0, 64, 95
2, 204000, Note_off_c, 0, 64, 95
2, 204000, Note_on_c, 0, 67, 95
2, 204160, Note_off_c, 0, 67, 95
2, 204160, Note_on_c, 0, 73, 47
2, 204320, Note_off_c, 0, 73, 47
2, 204320, Note_on_c, 0, 67, 95
2, 204480, Note_off_c, 0, 67, 95
2, 204480, Note_on_c, 0, 71, 95
2, 204480, Note_on_c, 0, 57, 95
2, 204640, Note_off_c, 0, 71, 95
2, 204640, Note_off_c, 0, 57, 95
2, 204640, Note_on_c, 0, 67, 95
2, 204800, Note_off_c, 0, 67, 95
2, 204800, Note_on_c, 0, 64, 95
2, 204960, Note_off_c, 0, 64, 95
2, 204960, Note_on_c, 0, 67, 95
2, 205120, Note_off_c, 0, 67, 95
2, 205120, Note_on_c, 0, 73, 95
2, 205280, Note_off_c, 0, 73, 95
2, 205280, Note_on_c, 0, 67, 95
2, 205440, Note_off_c, 0, 67, 95
2, 205440, Note_on_c, 0, 71, 95
2, 205440, Note_on_c, 0, 57, 95
2, 205600, Note_off_c, 0, 71, 95
2, 205600, Note_off_c, 0, 57, 95
2, 205600, Note_on_c, 0, 66, 95
2, 205760, Note_off_c, 0, 66, 95
2, 205760, Note_on_c, 0, 62, 95
2, 205920, Note_off_c, 0, 62, 95
2, 205920, Note_on_c, 0, 66, 95
2, 206080, Note_off_c, 0, 66, 95
2, 206080, Note_on_c, 0, 71, 47
2, 206240, Note_off_c, 0, 71, 47
2, 206240, Note_on_c, 0, 66, 95
2, 206400, Note_off_c, 0, 66, 95
2, 206400, Note_on_c, 0, 69, 95
2, 206400, Note_on_c, 0, 57, 95
2, 206560, Note_off_c, 0, 69, 95
2, 206560, Note_off_c, 0, 57, 95
2, 206560, Note_on_c, 0, 62, 95
2, 206720, Note_off_c, 0, 62, 95
2, 206720, Note_on_c, 0, 57, 95
2, 206880, Note_off_c, 0, 57, 95
2, 206880, Note_on_c, 0, 62, 95
2, 207040, Note_off_c, 0, 62, 95
2, 207040, Note_on_c, 0, 69, 95
2, 207200, Note_off_c, 0, 69, 95
2, 207200, Note_on_c, 0, 62, 95
2, 207360, Note_off_c, 0, 62, 95
2, 207360, Note_on_c, 0, 78, 95
2, 207360, Note_on_c, 0, 62, 95
2, 207520, Note_off_c, 0, 78, 95
2, 207520, Note_off_c, 0, 62, 95
2, 207520, Note_on_c, 0, 72, 95
2, 207680, Note_off_c, 0, 72, 95
2, 207680, Note_on_c, 0, 69, 95
2, 207840, Note_off_c, 0, 69, 95
2, 207840, Note_on_c, 0, 72, 95
2, 208000, Note_off_c, 0, 72, 95
2, 208000, Note_on_c, 0, 78, 47
2, 208160, Note_off_c, 0, 78, 47
2, 208160, Note_on_c, 0, 72, 95
2, 208320, Note_off_c, 0, 72, 95
2, 208320, Note_on_c, 0, 76, 95
2, 208320, Note_on_c, 0, 62, 95
2, 208480, Note_off_c, 0, 76, 95
2, 208480, Note_off_c, 0, 62, 95
2, 208480, Note_on_c, 0, 72, 95
2, 208640, Note_off_c, 0, 72, 95
2, 208640, Note_on_c, 0, 69, 95
2, 208800, Note_off_c, 0, 69, 95
2, 208800, Note_on_c, 0, 72, 95
2, 208960, Note_off_c, 0, 72, 95
2, 208960, Note_on_c, 0, 76, 47
2, 209120, Note_off_c, 0, 76, 47
2, 209120, Note_on_c, 0, 72, 95
2, 209280, Note_off_c, 0, 72, 95
2, 209280, Note_on_c, 0, 78, 95
2, 209280, Note_on_c, 0, 62, 95
2, 209440, Note_off_c, 0, 78, 95
2, 209440, Note_off_c, 0, 62, 95
2, 209440, Note_on_c, 0, 72, 95
2, 209600, Note_off_c, 0, 72, 95
2, 209600, Note_on_c, 0, 69, 95
2, 209760, Note_off_c, 0, 69, 95
2, 209760, Note_on_c, 0, 72, 95
2, 209920, Note_off_c, 0, 72, 95
2, 209920, Note_on_c, 0, 78, 47
2, 210080, Note_off_c, 0, 78, 47
2, 210080, Note_on_c, 0, 72, 95
2, 210240, Note_off_c, 0, 72, 95
2, 210240, Note_on_c, 0, 76, 95
2, 210240, Note_on_c, 0, 62, 95
2, 210400, Note_off_c, 0, 76, 95
2, 210400, Note_off_c, 0, 62, 95
2, 210400, Note_on_c, 0, 72, 95
2, 210560, Note_off_c, 0, 72, 95
2, 210560, Note_on_c, 0, 69, 95
2, 210720, Note_off_c, 0, 69, 95
2, 210720, Note_on_c, 0, 72, 95
2, 210880, Note_off_c, 0, 72, 95
2, 210880, Note_on_c, 0, 76, 47
2, 211040, Note_off_c, 0, 76, 47
2, 211040, Note_on_c, 0, 72, 95
2, 211200, Note_off_c, 0, 72, 95
2, 211200, Note_on_c, 0, 76, 95
2, 211200, Note_on_c, 0, 62, 95
2, 211360, Note_off_c, 0, 76, 95
2, 211360, Note_off_c, 0, 62, 95
2, 211360, Note_on_c, 0, 72, 95
2, 211520, Note_off_c, 0, 72, 95
2, 211520, Note_on_c, 0, 69, 95
2, 211680, Note_off_c, 0, 69, 95
2, 211680, Note_on_c, 0, 72, 95
2, 211840, Note_off_c, 0, 72, 95
2, 211840, Note_on_c, 0, 76, 47
2, 212000, Note_off_c, 0, 76, 47
2, 212000, Note_on_c, 0, 72, 95
2, 212160, Note_off_c, 0, 72, 95
2, 212160, Note_on_c, 0, 78, 95
2, 212160, Note_on_c, 0, 62, 95
2, 212320, Note_off_c, 0, 78, 95
2, 212320, Note_off_c, 0, 62, 95
2, 212320, Note_on_c, 0, 72, 95
2, 212480, Note_off_c, 0, 72, 95
2, 212480, Note_on_c, 0, 69, 95
2, 212640, Note_off_c, 0, 69, 95
2, 212640, Note_on_c, 0, 74, 95
2, 212800, Note_off_c, 0, 74, 95
2, 212800, Note_on_c, 0, 78, 47
2, 212960, Note_off_c, 0, 78, 47
2, 212960, Note_on_c, 0, 74, 47
2, 213120, Note_off_c, 0, 74, 47
2, 213120, Note_on_c, 0, 76, 95
2, 213120, Note_on_c, 0, 62, 95
2, 213280, Note_off_c, 0, 76, 95
2, 213280, Note_off_c, 0, 62, 95
2, 213280, Note_on_c, 0, 72, 95
2, 213440, Note_off_c, 0, 72, 95
2, 213440, Note_on_c, 0, 69, 95
2, 213600, Note_off_c, 0, 69, 95
2, 213600, Note_on_c, 0, 72, 95
2, 213760, Note_off_c, 0, 72, 95
2, 213760, Note_on_c, 0, 76, 47
2, 213920, Note_off_c, 0, 76, 47
2, 213920, Note_on_c, 0, 72, 95
2, 214080, Note_off_c, 0, 72, 95
2, 214080, Note_on_c, 0, 76, 95
2, 214080, Note_on_c, 0, 62, 95
2, 214240, Note_off_c, 0, 76, 95
2, 214240, Note_off_c, 0, 62, 95
2, 214240, Note_on_c, 0, 72, 95
2, 214400, Note_off_c, 0, 72, 95
2, 214400, Note_on_c, 0, 69, 95
2, 214560, Note_off_c, 0, 69, 95
2, 214560, Note_on_c, 0, 72, 95
2, 214720, Note_off_c, 0, 72, 95
2, 214720, Note_on_c, 1, 76, 47
2, 214880, Note_off_c, 1, 76, 47
2, 214880, Note_on_c, 1, 72, 95
2, 215040, Note_off_c, 1, 72, 95
2, 215040, Note_on_c, 0, 73, 95
2, 215040, Note_on_c, 0, 57, 95
2, 215200, Note_off_c, 0, 73, 95
2, 215200, Note_off_c, 0, 57, 95
2, 215200, Note_on_c, 0, 67, 95
2, 215360, Note_off_c, 0, 67, 95
2, 215360, Note_on_c, 0, 64, 95
2, 215520, Note_off_c, 0, 64, 95
2, 215520, Note_on_c, 0, 67, 95
2, 215680, Note_off_c, 0, 67, 95
2, 215680, Note_on_c, 0, 73, 47
2, 215840, Note_off_c, 0, 73, 47
2, 215840, Note_on_c, 0, 67, 95
2, 216000, Note_off_c, 0, 67, 95
2, 216000, Note_on_c, 0, 71, 95
2, 216000, Note_on_c, 0, 57, 95
2, 216160, Note_off_c, 0, 71, 95
2, 216160, Note_off_c, 0, 57, 95
2, 216160, Note_on_c, 0, 67, 95
2, 216320, Note_off_c, 0, 67, 95
2, 216320, Note_on_c, 0, 64, 95
2, 216480, Note_off_c, 0, 64, 95
2, 216480, Note_on_c, 0, 67, 95
2, 216640, Note_off_c, 0, 67, 95
2, 216640, Note_on_c, 0, 71, 47
2, 216800, Note_off_c, 0, 71, 47
2, 216800, Note_on_c, 0, 67, 95
2, 216960, Note_off_c, 0, 67, 95
2, 216960, Note_on_c, 0, 69, 95
2, 216960, Note_on_c, 0, 57, 95
2, 217120, Note_off_c, 0, 69, 95
2, 217120, Note_off_c, 0, 57, 95
2, 217120, Note_on_c, 0, 64, 95
2, 217280, Note_off_c, 0, 64, 95
2, 217280, Note_on_c, 0, 57, 95
2, 217440, Note_off_c, 0, 57, 95
2, 217440, Note_on_c, 0, 64, 95
2, 217600, Note_off_c, 0, 64, 95
2, 217600, Note_on_c, 0, 69, 47
2, 217760, Note_off_c, 0, 69, 47
2, 217760, Note_on_c, 0, 64, 95
2, 217920, Note_off_c, 0, 64, 95
2, 217920, Note_on_c, 0, 71, 95
2, 217920, Note_on_c, 0, 57, 95
2, 218080, Note_off_c, 0, 71, 95
2, 218080, Note_off_c, 0, 57, 95
2, 218080, Note_on_c, 0, 67, 95
2, 218240, Note_off_c, 0, 67, 95
2, 218240, Note_on_c, 0, 64, 95
2, 218400, Note_off_c, 0, 64, 95
2, 218400, Note_on_c, 0, 67, 95
2, 218560, Note_off_c, 0, 67, 95
2, 218560, Note_on_c, 0, 71, 47
2, 218720, Note_off_c, 0, 71, 47
2, 218720, Note_on_c, 0, 67, 95
2, 218880, Note_off_c, 0, 67, 95
2, 218880, Note_on_c, 0, 73, 95
2, 218880, Note_on_c, 0, 57, 95
2, 219040, Note_off_c, 0, 73, 95
2, 219040, Note_off_c, 0, 57, 95
2, 219040, Note_on_c, 0, 67, 95
2, 219200, Note_off_c, 0, 67, 95
2, 219200, Note_on_c, 0, 64, 95
2, 219360, Note_off_c, 0, 64, 95
2, 219360, Note_on_c, 0, 67, 95
2, 219520, Note_off_c, 0, 67, 95
2, 219520, Note_on_c, 0, 73, 47
2, 219680, Note_off_c, 0, 73, 47
2, 219680, Note_on_c, 0, 67, 95
2, 219840, Note_off_c, 0, 67, 95
2, 219840, Note_on_c, 0, 74, 95
2, 219840, Note_on_c, 0, 57, 95
2, 220000, Note_off_c, 0, 74, 95
2, 220000, Note_off_c, 0, 57, 95
2, 220000, Note_on_c, 0, 67, 95
2, 220160, Note_off_c, 0, 67, 95
2, 220160, Note_on_c, 0, 64, 95
2, 220320, Note_off_c, 0, 64, 95
2, 220320, Note_on_c, 0, 67, 95
2, 220480, Note_off_c, 0, 67, 95
2, 220480, Note_on_c, 0, 76, 95
2, 220800, Note_off_c, 0, 76, 95
2, 220800, Note_on_c, 0, 74, 95
2, 221120, Note_off_c, 0, 74, 95
2, 221120, Note_on_c, 0, 74, 95
2, 221160, Note_on_c, 0, 69, 95
2, 221200, Note_on_c, 0, 66, 95
2, 221440, Note_off_c, 0, 74, 95
2, 221440, Note_off_c, 0, 69, 95
2, 221440, Note_off_c, 0, 66, 95
2, 221440, Note_on_c, 0, 74, 95
2, 221480, Note_on_c, 0, 69, 95
2, 221520, Note_on_c, 0, 66, 95
2, 221560, Note_on_c, 0, 62, 95
2, 221760, Note_off_c, 0, 74, 95
2, 221760, Note_off_c, 0, 69, 95
2, 221760, Note_off_c, 0, 66, 95
2, 221760, Note_off_c, 0, 62, 95
2, 221760, Note_on_c, 0, 74, 95
2, 221790, Note_on_c, 0, 69, 95
2, 221820, Note_on_c, 0, 66, 95
2, 221850, Note_on_c, 0, 62, 95
2, 221880, Note_on_c, 0, 57, 95
2, 221910, Note_on_c, 0, 50, 95
2, 222720, Note_off_c, 0, 74, 95
2, 222720, Note_off_c, 0, 69, 95
2, 222720, Note_off_c, 0, 66, 95
2, 222720, Note_off_c, 0, 62, 95
2, 222720, Note_off_c, 0, 57, 95
2, 222720, Note_off_c, 0, 50, 95
2, 222720, Note_on_c, 0, 50, 95
2, 223040, Note_off_c, 0, 50, 95
2, 223040, Note_on_c, 0, 65, 95
2, 223040, Note_on_c, 0, 62, 95
2, 223040, Note_on_c, 0, 57, 95
2, 223360, Note_off_c, 0, 65, 95
2, 223360, Note_off_c, 0, 62, 95
2, 223360, Note_off_c, 0, 57, 95
2, 223360, Note_on_c, 0, 65, 95
2, 223360, Note_on_c, 0, 62, 95
2, 223360, Note_on_c, 0, 57, 95
2, 223680, Note_off_c, 0, 65, 95
2, 223680, Note_off_c, 0, 62, 95
2, 223680, Note_off_c, 0, 57, 95
2, 223680, Note_on_c, 0, 50, 95
2, 224000, Note_off_c, 0, 50, 95
2, 224000, Note_on_c, 0, 65, 95
2, 224000, Note_on_c, 0, 62, 95
2, 224000, Note_on_c, 0, 57, 95
2, 224320, Note_off_c, 0, 65, 95
2, 224320, Note_off_c, 0, 62, 95
2, 224320, Note_off_c, 0, 57, 95
2, 224320, Note_on_c, 0, 65, 95
2, 224320, Note_on_c, 0, 62, 95
2, 224320, Note_on_c, 0, 57, 95
2, 224640, Note_off_c, 0, 65, 95
2, 224640, Note_off_c, 0, 62, 95
2, 224640, Note_off_c, 0, 57, 95
2, 224640, Note_on_c, 0, 45, 95
2, 224960, Note_off_c, 0, 45, 95
2, 224960, Note_on_c, 0, 61, 95
2, 224960, Note_on_c, 0, 57, 95
2, 224960, Note_on_c, 0, 52, 95
2, 225280, Note_off_c, 0, 61, 95
2, 225280, Note_off_c, 0, 57, 95
2, 225280, Note_off_c, 0, 52, 95
2, 225280, Note_on_c, 0, 61, 95
2, 225280, Note_on_c, 0, 57, 95
2, 225280, Note_on_c, 0, 52, 95
2, 225600, Note_off_c, 0, 61, 95
2, 225600, Note_off_c, 0, 57, 95
2, 225600, Note_off_c, 0, 52, 95
2, 225600, Note_on_c, 0, 45, 95
2, 225920, Note_off_c, 0, 45, 95
2, 225920, Note_on_c, 0, 61, 95
2, 225920, Note_on_c, 0, 57, 95
2, 225920, Note_on_c, 0, 52, 95
2, 226240, Note_off_c, 0, 61, 95
2, 226240, Note_off_c, 0, 57, 95
2, 226240, Note_off_c, 0, 52, 95
2, 226240, Note_on_c, 0, 61, 95
2, 226240, Note_on_c, 0, 57, 95
2, 226240, Note_on_c, 0, 52, 95
2, 226560, Note_off_c, 0, 61, 95
2, 226560, Note_off_c, 0, 57, 95
2, 226560, Note_off_c, 0, 52, 95
2, 226560, Note_on_c, 0, 50, 95
2, 226880, Note_off_c, 0, 50, 95
2, 226880, Note_on_c, 0, 65, 95
2, 226880, Note_on_c, 0, 62, 95
2, 226880, Note_on_c, 0, 57, 95
2, 227200, Note_off_c, 0, 65, 95
2, 227200, Note_off_c, 0, 62, 95
2, 227200, Note_off_c, 0, 57, 95
2, 227200, Note_on_c, 0, 65, 95
2, 227200, Note_on_c, 0, 62, 95
2, 227200, Note_on_c, 0, 57, 95
2, 227520, Note_off_c, 0, 65, 95
2, 227520, Note_off_c, 0, 62, 95
2, 227520, Note_off_c, 0, 57, 95
2, 227520, Note_on_c, 0, 50, 95
2, 227840, Note_off_c, 0, 50, 95
2, 227840, Note_on_c, 0, 65, 95
2, 227840, Note_on_c, 0, 62, 95
2, 227840, Note_on_c, 0, 57, 95
2, 228160, Note_off_c, 0, 65, 95
2, 228160, Note_off_c, 0, 62, 95
2, 228160, Note_off_c, 0, 57, 95
2, 228160, Note_on_c, 0, 65, 95
2, 228160, Note_on_c, 0, 62, 95
2, 228160, Note_on_c, 0, 57, 95
2, 228480, Note_off_c, 0, 65, 95
2, 228480, Note_off_c, 0, 62, 95
2, 228480, Note_off_c, 0, 57, 95
2, 228480, Note_on_c, 0, 52, 95
2, 228800, Note_off_c, 0, 52, 95
2, 228800, Note_on_c, 0, 64, 95
2, 228800, Note_on_c, 0, 61, 95
2, 228800, Note_on_c, 0, 57, 95
2, 229120, Note_off_c, 0, 64, 95
2, 229120, Note_off_c, 0, 61, 95
2, 229120, Note_off_c, 0, 57, 95
2, 229120, Note_on_c, 0, 64, 95
2, 229120, Note_on_c, 0, 61, 95
2, 229120, Note_on_c, 0, 57, 95
2, 229440, Note_off_c, 0, 64, 95
2, 229440, Note_off_c, 0, 61, 95
2, 229440, Note_off_c, 0, 57, 95
2, 229440, Note_on_c, 0, 52, 95
2, 229760, Note_off_c, 0, 52, 95
2, 229760, Note_on_c, 0, 64, 95
2, 229760, Note_on_c, 0, 61, 95
2, 229760, Note_on_c, 0, 57, 95
2, 230080, Note_off_c, 0, 64, 95
2, 230080, Note_off_c, 0, 61, 95
2, 230080, Note_off_c, 0, 57, 95
2, 230080, Note_on_c, 0, 64, 95
2, 230080, Note_on_c, 0, 61, 95
2, 230080, Note_on_c, 0, 57, 95
2, 230400, Note_off_c, 0, 64, 95
2, 230400, Note_off_c, 0, 61, 95
2, 230400, Note_off_c, 0, 57, 95
2, 230400, Note_on_c, 0, 52, 95
2, 230720, Note_off_c, 0, 52, 95
2, 230720, Note_on_c, 0, 64, 95
2, 230720, Note_on_c, 0, 61, 95
2, 230720, Note_on_c, 0, 57, 95
2, 231040, Note_off_c, 0, 64, 95
2, 231040, Note_off_c, 0, 61, 95
2, 231040, Note_off_c, 0, 57, 95
2, 231040, Note_on_c, 0, 64, 95
2, 231040, Note_on_c, 0, 61, 95
2, 231040, Note_on_c, 0, 57, 95
2, 231360, Note_off_c, 0, 64, 95
2, 231360, Note_off_c, 0, 61, 95
2, 231360, Note_off_c, 0, 57, 95
2, 231360, Note_on_c, 0, 52, 95
2, 231680, Note_off_c, 0, 52, 95
2, 231680, Note_on_c, 0, 64, 95
2, 231680, Note_on_c, 0, 61, 95
2, 231680, Note_on_c, 0, 57, 95
2, 232000, Note_off_c, 0, 64, 95
2, 232000, Note_off_c, 0, 61, 95
2, 232000, Note_off_c, 0, 57, 95
2, 232000, Note_on_c, 0, 64, 95
2, 232000, Note_on_c, 0, 61, 95
2, 232000, Note_on_c, 0, 57, 95
2, 232320, Note_off_c, 0, 64, 95
2, 232320, Note_off_c, 0, 61, 95
2, 232320, Note_off_c, 0, 57, 95
2, 232320, Note_on_c, 0, 45, 95
2, 232640, Note_off_c, 0, 45, 95
2, 232640, Note_on_c, 0, 59, 95
2, 232640, Note_on_c, 0, 57, 95
2, 232640, Note_on_c, 0, 52, 95
2, 232960, Note_off_c, 0, 59, 95
2, 232960, Note_off_c, 0, 57, 95
2, 232960, Note_off_c, 0, 52, 95
2, 232960, Note_on_c, 0, 59, 95
2, 232960, Note_on_c, 0, 57, 95
2, 232960, Note_on_c, 0, 52, 95
2, 233280, Note_off_c, 0, 59, 95
2, 233280, Note_off_c, 0, 57, 95
2, 233280, Note_off_c, 0, 52, 95
2, 233280, Note_on_c, 0, 45, 95
2, 233600, Note_off_c, 0, 45, 95
2, 233600, Note_on_c, 0, 59, 95
2, 233600, Note_on_c, 0, 57, 95
2, 233600, Note_on_c, 0, 52, 95
2, 233920, Note_off_c, 0, 59, 95
2, 233920, Note_off_c, 0, 57, 95
2, 233920, Note_off_c, 0, 52, 95
2, 233920, Note_on_c, 0, 59, 95
2, 233920, Note_on_c, 0, 57, 95
2, 233920, Note_on_c, 0, 52, 95
2, 234240, Note_off_c, 0, 59, 95
2, 234240, Note_off_c, 0, 57, 95
2, 234240, Note_off_c, 0, 52, 95
2, 234240, Note_on_c, 0, 45, 95
2, 234560, Note_off_c, 0, 45, 95
2, 234560, Note_on_c, 0, 59, 95
2, 234560, Note_on_c, 0, 57, 95
2, 234560, Note_on_c, 0, 52, 95
2, 234880, Note_off_c, 0, 59, 95
2, 234880, Note_off_c, 0, 57, 95
2, 234880, Note_off_c, 0, 52, 95
2, 234880, Note_on_c, 0, 59, 95
2, 234880, Note_on_c, 0, 57, 95
2, 234880, Note_on_c, 0, 52, 95
2, 235200, Note_off_c, 0, 59, 95
2, 235200, Note_off_c, 0, 57, 95
2, 235200, Note_off_c, 0, 52, 95
2, 235200, Note_on_c, 0, 45, 95
2, 235520, Note_off_c, 0, 45, 95
2, 235520, Note_on_c, 0, 61, 95
2, 235520, Note_on_c, 0, 57, 95
2, 235520, Note_on_c, 0, 52, 95
2, 235840, Note_off_c, 0, 61, 95
2, 235840, Note_off_c, 0, 57, 95
2, 235840, Note_off_c, 0, 52, 95
2, 235840, Note_on_c, 0, 61, 95
2, 235840, Note_on_c, 0, 57, 95
2, 235840, Note_on_c, 0, 52, 95
2, 236160, Note_off_c, 0, 61, 95
2, 236160, Note_off_c, 0, 57, 95
2, 236160, Note_off_c, 0, 52, 95
2, 236160, Note_on_c, 0, 45, 95
2, 236480, Note_off_c, 0, 45, 95
2, 236480, Note_on_c, 0, 61, 95
2, 236480, Note_on_c, 0, 57, 95
2, 236480, Note_on_c, 0, 52, 95
2, 236800, Note_off_c, 0, 61, 95
2, 236800, Note_off_c, 0, 57, 95
2, 236800, Note_off_c, 0, 52, 95
2, 236800, Note_on_c, 0, 61, 95
2, 236800, Note_on_c, 0, 57, 95
2, 236800, Note_on_c, 0, 52, 95
2, 237120, Note_off_c, 0, 61, 95
2, 237120, Note_off_c, 0, 57, 95
2, 237120, Note_off_c, 0, 52, 95
2, 237120, Note_on_c, 0, 69, 95
2, 237440, Note_off_c, 0, 69, 95
2, 237440, Note_on_c, 0, 68, 95
2, 237760, Note_off_c, 0, 68, 95
2, 237760, Note_on_c, 0, 67, 95
2, 238080, Note_off_c, 0, 67, 95
2, 238080, Note_on_c, 0, 66, 95
2, 238400, Note_off_c, 0, 66, 95
2, 238400, Note_on_c, 0, 65, 95
2, 238720, Note_off_c, 0, 65, 95
2, 238720, Note_on_c, 0, 64, 95
2, 239040, Note_off_c, 0, 64, 95
2, 239040, Note_on_c, 0, 65, 95
2, 239040, Note_on_c, 0, 62, 95
2, 239040, Note_on_c, 0, 57, 95
2, 239040, Note_on_c, 0, 50, 95
2, 240720, Note_off_c, 0, 65, 95
2, 240720, Note_off_c, 0, 62, 95
2, 240720, Note_off_c, 0, 57, 95
2, 240720, Note_off_c, 0, 50, 95
2, 240720, Note_on_c, 0, 65, 95
2, 240720, Note_on_c, 0, 62, 95
2, 240720, Note_on_c, 0, 57, 95
2, 240720, Note_on_c, 0, 50, 95
2, 240960, Note_off_c, 0, 65, 95
2, 240960, Note_off_c, 0, 62, 95
2, 240960, Note_off_c, 0, 57, 95
2, 240960, Note_off_c, 0, 50, 95
2, 240960, Note_on_c, 0, 67, 95
2, 240960, Note_on_c, 0, 61, 95
2, 240960, Note_on_c, 0, 57, 95
2, 240960, Note_on_c, 0, 52, 95
2, 240960, Note_on_c, 0, 45, 95
2, 242880, Note_off_c, 0, 67, 95
2, 242880, Note_off_c, 0, 61, 95
2, 242880, Note_off_c, 0, 57, 95
2, 242880, Note_off_c, 0, 52, 95
2, 242880, Note_off_c, 0, 45, 95
2, 242880, Note_on_c, 0, 69, 95
2, 242880, Note_on_c, 0, 65, 95
2, 242880, Note_on_c, 0, 62, 95
2, 242880, Note_on_c, 0, 57, 95
2, 242880, Note_on_c, 0, 50, 95
2, 244800, Note_off_c, 0, 69, 95
2, 244800, Note_off_c, 0, 65, 95
2, 244800, Note_off_c, 0, 62, 95
2, 244800, Note_off_c, 0, 57, 95
2, 244800, Note_off_c, 0, 50, 95
2, 244800, Note_on_c, 0, 69, 95
2, 244800, Note_on_c, 0, 64, 95
2, 244800, Note_on_c, 0, 61, 95
2, 244800, Note_on_c, 0, 57, 95
2, 244800, Note_on_c, 0, 52, 95
2, 244800, Note_on_c, 0, 45, 95
2, 245760, Note_off_c, 0, 69, 95
2, 245760, Note_off_c, 0, 64, 95
2, 245760, Note_off_c, 0, 61, 95
2, 245760, Note_off_c, 0, 57, 95
2, 245760, Note_off_c, 0, 52, 95
2, 245760, Note_off_c, 0, 45, 95
2, 245760, Note_on_c, 0, 64, 95
2, 246080, Note_off_c, 0, 64, 95
2, 246080, Note_on_c, 0, 65, 95
2, 246400, Note_off_c, 0, 65, 95
2, 246400, Note_on_c, 0, 64, 95
2, 246720, Note_off_c, 0, 64, 95
2, 246720, Note_on_c, 0, 62, 95
2, 247360, Note_off_c, 0, 62, 95
2, 247360, Note_on_c, 0, 57, 95
2, 247680, Note_off_c, 0, 57, 95
2, 247680, Note_on_c, 0, 64, 95
2, 248000, Note_off_c, 0, 64, 95
2, 248000, Note_on_c, 0, 65, 95
2, 248320, Note_off_c, 0, 65, 95
2, 248320, Note_on_c, 0, 64, 95
2, 248640, Note_off_c, 0, 64, 95
2, 248640, Note_on_c, 0, 62, 95
2, 249280, Note_off_c, 0, 62, 95
2, 249280, Note_on_c, 0, 65, 95
2, 249280, Note_on_c, 0, 57, 95
2, 249600, Note_off_c, 0, 65, 95
2, 249600, Note_off_c, 0, 57, 95
2, 249600, Note_on_c, 0, 64, 95
2, 249920, Note_off_c, 0, 64, 95
2, 249920, Note_on_c, 0, 65, 95
2, 250240, Note_off_c, 0, 65, 95
2, 250240, Note_on_c, 0, 64, 95
2, 250560, Note_off_c, 0, 64, 95
2, 250560, Note_on_c, 0, 62, 95
2, 251200, Note_off_c, 0, 62, 95
2, 251200, Note_on_c, 0, 65, 95
2, 251200, Note_on_c, 0, 57, 95
2, 251520, Note_off_c, 0, 65, 95
2, 251520, Note_off_c, 0, 57, 95
2, 251520, Note_on_c, 0, 65, 95
2, 251520, Note_on_c, 0, 57, 95
2, 252160, Note_off_c, 0, 65, 95
2, 252160, Note_off_c, 0, 57, 95
2, 252160, Note_on_c, 0, 65, 95
2, 252160, Note_on_c, 0, 57, 95
2, 252480, Note_off_c, 0, 65, 95
2, 252480, Note_off_c, 0, 57, 95
2, 252480, Note_on_c, 0, 67, 95
2, 252480, Note_on_c, 0, 61, 95
2, 252480, Note_on_c, 0, 57, 95
2, 252480, Note_on_c, 0, 52, 95
2, 252480, Note_on_c, 0, 45, 95
2, 253440, Note_off_c, 0, 67, 95
2, 253440, Note_off_c, 0, 61, 95
2, 253440, Note_off_c, 0, 57, 95
2, 253440, Note_off_c, 0, 52, 95
2, 253440, Note_off_c, 0, 45, 95
2, 253440, End_track
0, 0, End_of_file
