0, 0, Header, 1, 11, 120
1, 0, Start_track
1, 0, MIDI_port, 0
1, 0, System_exclusive, 10, 65, 16, 66, 18, 64, 0, 127, 0, 65, 247
1, 0, MIDI_port, 0
1, 0, Time_signature, 4, 2, 24, 8
1, 0, Key_signature, -1, "major"
1, 0, Tempo, 666667
1, 1482, Marker_t, "Chorus"
1, 4320, Marker_t, "Verse"
1, 7200, Marker_t, "Chorus"
1, 10080, Marker_t, "Solo"
1, 12960, Marker_t, "Chorus"
1, 15894, Marker_t, "Verse"
1, 18851, Marker_t, "Chorus"
1, 18851, End_track
2, 0, Start_track
2, 0, MIDI_port, 0
2, 0, Title_t, "text"
2, 0, Control_c, 0, 7, 0
2, 0, Control_c, 0, 7, 0
2, 0, Lyric_t, "JENNY "
2, 0, Note_on_c, 0, 89, 109
2, 29, Note_on_c, 0, 89, 0
2, 30, Lyric_t, "JENNY "
2, 30, Lyric_t, ""
2, 30, Lyric_t, "\015"
2, 30, Lyric_t, ""
2, 30, Lyric_t, "\015"
2, 30, Note_on_c, 0, 89, 114
2, 30, Program_c, 0, 4
2, 59, Note_on_c, 0, 89, 0
2, 60, Lyric_t, "LITTLE "
2, 60, Note_on_c, 0, 89, 109
2, 89, Note_on_c, 0, 89, 0
2, 90, Lyric_t, "RICHARD "
2, 90, Lyric_t, ""
2, 90, Lyric_t, "\015"
2, 90, Note_on_c, 0, 89, 114
2, 119, Note_on_c, 0, 89, 0
2, 120, Lyric_t, "Johnson/Penniman "
2, 120, Lyric_t, ""
2, 120, Lyric_t, "\015"
2, 120, Note_on_c, 0, 89, 127
2, 149, Note_on_c, 0, 89, 0
2, 960, Program_c, 0, 0
2, 1440, Lyric_t, "Jen"
2, 1440, Note_on_c, 0, 86, 124
2, 1450, Note_on_c, 0, 86, 0
2, 1470, Lyric_t, "ny "
2, 1470, Note_on_c, 0, 86, 124
2, 1480, Note_on_c, 0, 86, 0
2, 1500, Lyric_t, "Jen"
2, 1500, Note_on_c, 0, 86, 124
2, 1510, Note_on_c, 0, 86, 0
2, 1530, Lyric_t, "ny "
2, 1530, Note_on_c, 0, 86, 124
2, 1540, Note_on_c, 0, 86, 0
2, 1560, Lyric_t, "Jenny "
2, 1560, Lyric_t, ""
2, 1560, Lyric_t, "\015"
2, 1560, Note_on_c, 0, 86, 127
2, 1570, Note_on_c, 0, 86, 0
2, 1680, Lyric_t, "won't "
2, 1680, Note_on_c, 0, 86, 127
2, 1690, Note_on_c, 0, 86, 0
2, 1710, Lyric_t, "you "
2, 1710, Note_on_c, 0, 86, 127
2, 1720, Note_on_c, 0, 86, 0
2, 1740, Lyric_t, "come "
2, 1740, Lyric_t, ""
2, 1740, Lyric_t, "\015"
2, 1740, Note_on_c, 0, 86, 127
2, 1750, Note_on_c, 0, 86, 0
2, 1770, Lyric_t, "a"
2, 1770, Note_on_c, 0, 86, 127
2, 1780, Note_on_c, 0, 86, 0
2, 1800, Lyric_t, "long "
2, 1800, Note_on_c, 0, 86, 127
2, 1810, Note_on_c, 0, 86, 0
2, 1860, Lyric_t, "with "
2, 1860, Note_on_c, 0, 86, 127
2, 1870, Note_on_c, 0, 86, 0
2, 1920, Lyric_t, "me "
2, 1920, Lyric_t, ""
2, 1920, Lyric_t, "\015"
2, 1920, Note_on_c, 0, 86, 127
2, 1930, Note_on_c, 0, 86, 0
2, 1980, Lyric_t, "Jen"
2, 1980, Note_on_c, 0, 86, 127
2, 1990, Note_on_c, 0, 86, 0
2, 2010, Lyric_t, "ny "
2, 2010, Note_on_c, 0, 86, 127
2, 2020, Note_on_c, 0, 86, 0
2, 2040, Lyric_t, "Jen"
2, 2040, Note_on_c, 0, 86, 127
2, 2050, Note_on_c, 0, 86, 0
2, 2100, Lyric_t, "ny "
2, 2100, Lyric_t, ""
2, 2100, Lyric_t, "\015"
2, 2100, Note_on_c, 0, 86, 127
2, 2110, Note_on_c, 0, 86, 0
2, 2220, Lyric_t, "Jen"
2, 2220, Note_on_c, 0, 86, 127
2, 2230, Note_on_c, 0, 86, 0
2, 2250, Lyric_t, "ny "
2, 2250, Note_on_c, 0, 86, 127
2, 2260, Note_on_c, 0, 86, 0
2, 2280, Lyric_t, "Jen"
2, 2280, Note_on_c, 0, 86, 127
2, 2290, Note_on_c, 0, 86, 0
2, 2340, Lyric_t, "ny "
2, 2340, Lyric_t, ""
2, 2340, Lyric_t, "\015"
2, 2340, Note_on_c, 0, 86, 127
2, 2350, Note_on_c, 0, 86, 0
2, 2400, Lyric_t, "Jen"
2, 2400, Note_on_c, 0, 86, 121
2, 2410, Note_on_c, 0, 86, 0
2, 2430, Lyric_t, "ny "
2, 2430, Note_on_c, 0, 86, 123
2, 2440, Note_on_c, 0, 86, 0
2, 2460, Lyric_t, "Jen"
2, 2460, Note_on_c, 0, 86, 123
2, 2470, Note_on_c, 0, 86, 0
2, 2490, Lyric_t, "ny "
2, 2490, Note_on_c, 0, 86, 123
2, 2500, Note_on_c, 0, 86, 0
2, 2520, Lyric_t, "Jenny "
2, 2520, Lyric_t, ""
2, 2520, Lyric_t, "\015"
2, 2520, Note_on_c, 0, 86, 123
2, 2530, Note_on_c, 0, 86, 0
2, 2640, Lyric_t, "won't "
2, 2640, Note_on_c, 0, 86, 126
2, 2650, Note_on_c, 0, 86, 0
2, 2670, Lyric_t, "you "
2, 2670, Note_on_c, 0, 86, 100
2, 2700, Note_on_c, 0, 86, 0
2, 2700, Lyric_t, "come "
2, 2700, Lyric_t, ""
2, 2700, Lyric_t, "\015"
2, 2700, Note_on_c, 0, 86, 126
2, 2710, Note_on_c, 0, 86, 0
2, 2730, Lyric_t, "a"
2, 2730, Note_on_c, 0, 86, 126
2, 2740, Note_on_c, 0, 86, 0
2, 2760, Lyric_t, "long "
2, 2760, Note_on_c, 0, 86, 126
2, 2770, Note_on_c, 0, 86, 0
2, 2820, Lyric_t, "with "
2, 2820, Note_on_c, 0, 86, 127
2, 2830, Note_on_c, 0, 86, 0
2, 2880, Lyric_t, "me "
2, 2880, Lyric_t, ""
2, 2880, Lyric_t, "\015"
2, 2880, Note_on_c, 0, 86, 127
2, 2890, Note_on_c, 0, 86, 0
2, 2940, Lyric_t, "Jen"
2, 2940, Note_on_c, 0, 86, 127
2, 2950, Note_on_c, 0, 86, 0
2, 2970, Lyric_t, "ny "
2, 2970, Note_on_c, 0, 86, 127
2, 2980, Note_on_c, 0, 86, 0
2, 3000, Lyric_t, "Jen"
2, 3000, Note_on_c, 0, 86, 127
2, 3010, Note_on_c, 0, 86, 0
2, 3060, Lyric_t, "ny "
2, 3060, Lyric_t, ""
2, 3060, Lyric_t, "\015"
2, 3060, Note_on_c, 0, 86, 127
2, 3070, Note_on_c, 0, 86, 0
2, 3180, Lyric_t, "Jen"
2, 3180, Note_on_c, 0, 86, 127
2, 3190, Note_on_c, 0, 86, 0
2, 3210, Lyric_t, "ny "
2, 3210, Note_on_c, 0, 86, 127
2, 3220, Note_on_c, 0, 86, 0
2, 3240, Lyric_t, "Jen"
2, 3240, Note_on_c, 0, 86, 127
2, 3250, Note_on_c, 0, 86, 0
2, 3300, Lyric_t, "ny "
2, 3300, Lyric_t, ""
2, 3300, Lyric_t, "\015"
2, 3300, Note_on_c, 0, 86, 120
2, 3310, Note_on_c, 0, 86, 0
2, 3330, Lyric_t, "you "
2, 3330, Note_on_c, 0, 86, 123
2, 3340, Note_on_c, 0, 86, 0
2, 3360, Lyric_t, "know "
2, 3360, Note_on_c, 0, 86, 123
2, 3370, Note_on_c, 0, 86, 0
2, 3420, Lyric_t, "that "
2, 3420, Lyric_t, ""
2, 3420, Lyric_t, "\015"
2, 3420, Note_on_c, 0, 86, 123
2, 3430, Note_on_c, 0, 86, 0
2, 3450, Lyric_t, "I "
2, 3450, Note_on_c, 0, 86, 123
2, 3460, Note_on_c, 0, 86, 0
2, 3480, Lyric_t, "love "
2, 3480, Note_on_c, 0, 86, 127
2, 3490, Note_on_c, 0, 86, 0
2, 3510, Lyric_t, "you "
2, 3510, Lyric_t, ""
2, 3510, Lyric_t, "\015"
2, 3510, Note_on_c, 0, 86, 100
2, 3540, Note_on_c, 0, 86, 0
2, 3570, Lyric_t, "and "
2, 3570, Note_on_c, 0, 86, 127
2, 3580, Note_on_c, 0, 86, 0
2, 3600, Lyric_t, "we "
2, 3600, Note_on_c, 0, 86, 127
2, 3610, Note_on_c, 0, 86, 0
2, 3630, Lyric_t, "could "
2, 3630, Note_on_c, 0, 86, 127
2, 3640, Note_on_c, 0, 86, 0
2, 3660, Lyric_t, "live "
2, 3660, Lyric_t, ""
2, 3660, Lyric_t, "\015"
2, 3660, Note_on_c, 0, 86, 127
2, 3670, Note_on_c, 0, 86, 0
2, 3690, Lyric_t, "so "
2, 3690, Note_on_c, 0, 86, 100
2, 3720, Note_on_c, 0, 86, 0
2, 3720, Lyric_t, "hap"
2, 3720, Note_on_c, 0, 86, 127
2, 3730, Note_on_c, 0, 86, 0
2, 3780, Lyric_t, "pi"
2, 3780, Note_on_c, 0, 86, 127
2, 3790, Note_on_c, 0, 86, 0
2, 3840, Lyric_t, "ly "
2, 3840, Lyric_t, ""
2, 3840, Lyric_t, "\015"
2, 3840, Note_on_c, 0, 86, 127
2, 3850, Note_on_c, 0, 86, 0
2, 4320, Lyric_t, "Spin"
2, 4320, Note_on_c, 0, 86, 124
2, 4330, Note_on_c, 0, 86, 0
2, 4350, Lyric_t, "nin' "
2, 4350, Note_on_c, 0, 86, 124
2, 4360, Note_on_c, 0, 86, 0
2, 4380, Lyric_t, "spin"
2, 4380, Note_on_c, 0, 86, 124
2, 4390, Note_on_c, 0, 86, 0
2, 4410, Lyric_t, "nin' "
2, 4410, Lyric_t, ""
2, 4410, Lyric_t, "\015"
2, 4410, Note_on_c, 0, 86, 124
2, 4420, Note_on_c, 0, 86, 0
2, 4440, Lyric_t, "spinnin' "
2, 4440, Lyric_t, ""
2, 4440, Lyric_t, "\015"
2, 4440, Note_on_c, 0, 86, 127
2, 4450, Note_on_c, 0, 86, 0
2, 4560, Lyric_t, "spin"
2, 4560, Note_on_c, 0, 86, 127
2, 4570, Note_on_c, 0, 86, 0
2, 4590, Lyric_t, "nin' "
2, 4590, Note_on_c, 0, 86, 127
2, 4600, Note_on_c, 0, 86, 0
2, 4620, Lyric_t, "like "
2, 4620, Lyric_t, ""
2, 4620, Lyric_t, "\015"
2, 4620, Note_on_c, 0, 86, 127
2, 4630, Note_on_c, 0, 86, 0
2, 4650, Lyric_t, "a "
2, 4650, Note_on_c, 0, 86, 127
2, 4660, Note_on_c, 0, 86, 0
2, 4680, Lyric_t, "spin"
2, 4680, Note_on_c, 0, 86, 127
2, 4690, Note_on_c, 0, 86, 0
2, 4740, Lyric_t, "nin' "
2, 4740, Note_on_c, 0, 86, 127
2, 4750, Note_on_c, 0, 86, 0
2, 4800, Lyric_t, "top "
2, 4800, Lyric_t, ""
2, 4800, Lyric_t, "\015"
2, 4800, Note_on_c, 0, 86, 127
2, 4810, Note_on_c, 0, 86, 0
2, 4860, Lyric_t, "spin"
2, 4860, Note_on_c, 0, 86, 127
2, 4870, Note_on_c, 0, 86, 0
2, 4890, Lyric_t, "nin' "
2, 4890, Note_on_c, 0, 86, 127
2, 4900, Note_on_c, 0, 86, 0
2, 4920, Lyric_t, "spin"
2, 4920, Note_on_c, 0, 86, 127
2, 4930, Note_on_c, 0, 86, 0
2, 4980, Lyric_t, "nin' "
2, 4980, Lyric_t, ""
2, 4980, Lyric_t, "\015"
2, 4980, Note_on_c, 0, 86, 127
2, 4990, Note_on_c, 0, 86, 0
2, 5100, Lyric_t, "spin"
2, 5100, Note_on_c, 0, 86, 127
2, 5110, Note_on_c, 0, 86, 0
2, 5130, Lyric_t, "nin' "
2, 5130, Note_on_c, 0, 86, 127
2, 5140, Note_on_c, 0, 86, 0
2, 5160, Lyric_t, "spin"
2, 5160, Note_on_c, 0, 86, 127
2, 5170, Note_on_c, 0, 86, 0
2, 5220, Lyric_t, "nin' "
2, 5220, Lyric_t, ""
2, 5220, Lyric_t, "\015"
2, 5220, Note_on_c, 0, 86, 127
2, 5230, Note_on_c, 0, 86, 0
2, 5280, Lyric_t, "Spin"
2, 5280, Note_on_c, 0, 86, 121
2, 5290, Note_on_c, 0, 86, 0
2, 5310, Lyric_t, "nin' "
2, 5310, Note_on_c, 0, 86, 123
2, 5320, Note_on_c, 0, 86, 0
2, 5340, Lyric_t, "spin"
2, 5340, Note_on_c, 0, 86, 123
2, 5350, Note_on_c, 0, 86, 0
2, 5370, Lyric_t, "nin' "
2, 5370, Lyric_t, ""
2, 5370, Lyric_t, "\015"
2, 5370, Note_on_c, 0, 86, 123
2, 5380, Note_on_c, 0, 86, 0
2, 5400, Lyric_t, "spinnin' "
2, 5400, Lyric_t, ""
2, 5400, Lyric_t, "\015"
2, 5400, Note_on_c, 0, 86, 123
2, 5410, Note_on_c, 0, 86, 0
2, 5520, Lyric_t, "spin "
2, 5520, Note_on_c, 0, 86, 126
2, 5530, Note_on_c, 0, 86, 0
2, 5580, Lyric_t, "like "
2, 5580, Lyric_t, ""
2, 5580, Lyric_t, "\015"
2, 5580, Note_on_c, 0, 86, 126
2, 5590, Note_on_c, 0, 86, 0
2, 5610, Lyric_t, "a "
2, 5610, Note_on_c, 0, 86, 126
2, 5620, Note_on_c, 0, 86, 0
2, 5640, Lyric_t, "spin"
2, 5640, Note_on_c, 0, 86, 126
2, 5650, Note_on_c, 0, 86, 0
2, 5700, Lyric_t, "nin' "
2, 5700, Note_on_c, 0, 86, 127
2, 5710, Note_on_c, 0, 86, 0
2, 5760, Lyric_t, "top "
2, 5760, Lyric_t, ""
2, 5760, Lyric_t, "\015"
2, 5760, Note_on_c, 0, 86, 127
2, 5770, Note_on_c, 0, 86, 0
2, 5820, Lyric_t, "spin"
2, 5820, Note_on_c, 0, 86, 127
2, 5830, Note_on_c, 0, 86, 0
2, 5850, Lyric_t, "nin' "
2, 5850, Note_on_c, 0, 86, 127
2, 5860, Note_on_c, 0, 86, 0
2, 5880, Lyric_t, "spin"
2, 5880, Note_on_c, 0, 86, 127
2, 5890, Note_on_c, 0, 86, 0
2, 5940, Lyric_t, "nin' "
2, 5940, Lyric_t, ""
2, 5940, Lyric_t, "\015"
2, 5940, Note_on_c, 0, 86, 127
2, 5950, Note_on_c, 0, 86, 0
2, 6060, Lyric_t, "spin"
2, 6060, Note_on_c, 0, 86, 127
2, 6070, Note_on_c, 0, 86, 0
2, 6090, Lyric_t, "nin' "
2, 6090, Note_on_c, 0, 86, 127
2, 6100, Note_on_c, 0, 86, 0
2, 6120, Lyric_t, "spin "
2, 6120, Lyric_t, ""
2, 6120, Lyric_t, "\015"
2, 6120, Note_on_c, 0, 86, 127
2, 6130, Note_on_c, 0, 86, 0
2, 6180, Lyric_t, "A "
2, 6180, Note_on_c, 0, 86, 120
2, 6190, Note_on_c, 0, 86, 0
2, 6210, Lyric_t, "craz"
2, 6210, Note_on_c, 0, 86, 123
2, 6220, Note_on_c, 0, 86, 0
2, 6240, Lyric_t, "y "
2, 6240, Note_on_c, 0, 86, 123
2, 6250, Note_on_c, 0, 86, 0
2, 6300, Lyric_t, "lit"
2, 6300, Note_on_c, 0, 86, 123
2, 6310, Note_on_c, 0, 86, 0
2, 6330, Lyric_t, "tle "
2, 6330, Note_on_c, 0, 86, 123
2, 6340, Note_on_c, 0, 86, 0
2, 6360, Lyric_t, "partner "
2, 6360, Lyric_t, ""
2, 6360, Lyric_t, "\015"
2, 6360, Note_on_c, 0, 86, 127
2, 6370, Note_on_c, 0, 86, 0
2, 6450, Lyric_t, "you "
2, 6450, Note_on_c, 0, 86, 127
2, 6460, Note_on_c, 0, 86, 0
2, 6480, Lyric_t, "ought "
2, 6480, Note_on_c, 0, 86, 127
2, 6490, Note_on_c, 0, 86, 0
2, 6510, Lyric_t, "to "
2, 6510, Note_on_c, 0, 86, 127
2, 6520, Note_on_c, 0, 86, 0
2, 6540, Lyric_t, "see "
2, 6540, Lyric_t, ""
2, 6540, Lyric_t, "\015"
2, 6540, Note_on_c, 0, 86, 127
2, 6550, Note_on_c, 0, 86, 0
2, 6570, Lyric_t, "us "
2, 6570, Note_on_c, 0, 86, 100
2, 6600, Note_on_c, 0, 86, 0
2, 6600, Lyric_t, "reel "
2, 6600, Note_on_c, 0, 86, 127
2, 6610, Note_on_c, 0, 86, 0
2, 6660, Lyric_t, "and "
2, 6660, Note_on_c, 0, 86, 127
2, 6670, Note_on_c, 0, 86, 0
2, 6720, Lyric_t, "rock "
2, 6720, Lyric_t, ""
2, 6720, Lyric_t, "\015"
2, 6720, Note_on_c, 0, 86, 127
2, 6730, Note_on_c, 0, 86, 0
2, 7260, Lyric_t, "Jen"
2, 7260, Note_on_c, 0, 86, 122
2, 7270, Note_on_c, 0, 86, 0
2, 7290, Lyric_t, "ny "
2, 7290, Note_on_c, 0, 86, 125
2, 7300, Note_on_c, 0, 86, 0
2, 7320, Lyric_t, "Jen"
2, 7320, Note_on_c, 0, 86, 126
2, 7330, Note_on_c, 0, 86, 0
2, 7380, Lyric_t, "ny "
2, 7380, Lyric_t, ""
2, 7380, Lyric_t, "\015"
2, 7380, Note_on_c, 0, 86, 126
2, 7390, Note_on_c, 0, 86, 0
2, 7425, Lyric_t, "you "
2, 7425, Note_on_c, 0, 86, 126
2, 7435, Note_on_c, 0, 86, 0
2, 7440, Lyric_t, "know "
2, 7440, Note_on_c, 0, 86, 126
2, 7450, Note_on_c, 0, 86, 0
2, 7500, Lyric_t, "that "
2, 7500, Lyric_t, ""
2, 7500, Lyric_t, "\015"
2, 7500, Note_on_c, 0, 86, 126
2, 7510, Note_on_c, 0, 86, 0
2, 7560, Lyric_t, "you're "
2, 7560, Note_on_c, 0, 86, 126
2, 7570, Note_on_c, 0, 86, 0
2, 7620, Lyric_t, "my "
2, 7620, Note_on_c, 0, 86, 126
2, 7630, Note_on_c, 0, 86, 0
2, 7680, Lyric_t, "girl "
2, 7680, Lyric_t, ""
2, 7680, Lyric_t, "\015"
2, 7680, Note_on_c, 0, 86, 126
2, 7690, Note_on_c, 0, 86, 0
2, 7740, Lyric_t, "Jen"
2, 7740, Note_on_c, 0, 86, 127
2, 7750, Note_on_c, 0, 86, 0
2, 7770, Lyric_t, "ny "
2, 7770, Note_on_c, 0, 86, 127
2, 7780, Note_on_c, 0, 86, 0
2, 7800, Lyric_t, "Jen"
2, 7800, Note_on_c, 0, 86, 127
2, 7810, Note_on_c, 0, 86, 0
2, 7860, Lyric_t, "ny "
2, 7860, Lyric_t, ""
2, 7860, Lyric_t, "\015"
2, 7860, Note_on_c, 0, 86, 127
2, 7870, Note_on_c, 0, 86, 0
2, 7980, Lyric_t, "Jen"
2, 7980, Note_on_c, 0, 86, 127
2, 7990, Note_on_c, 0, 86, 0
2, 8010, Lyric_t, "ny "
2, 8010, Note_on_c, 0, 86, 127
2, 8020, Note_on_c, 0, 86, 0
2, 8040, Lyric_t, "Jen"
2, 8040, Note_on_c, 0, 86, 127
2, 8050, Note_on_c, 0, 86, 0
2, 8100, Lyric_t, "ny "
2, 8100, Lyric_t, ""
2, 8100, Lyric_t, "\015"
2, 8100, Note_on_c, 0, 86, 127
2, 8110, Note_on_c, 0, 86, 0
2, 8160, Lyric_t, "Jen"
2, 8160, Note_on_c, 0, 86, 121
2, 8170, Note_on_c, 0, 86, 0
2, 8190, Lyric_t, "ny "
2, 8190, Note_on_c, 0, 86, 123
2, 8200, Note_on_c, 0, 86, 0
2, 8220, Lyric_t, "Jen"
2, 8220, Note_on_c, 0, 86, 123
2, 8230, Note_on_c, 0, 86, 0
2, 8250, Lyric_t, "ny "
2, 8250, Note_on_c, 0, 86, 123
2, 8260, Note_on_c, 0, 86, 0
2, 8280, Lyric_t, "Jenny "
2, 8280, Lyric_t, ""
2, 8280, Lyric_t, "\015"
2, 8280, Note_on_c, 0, 86, 123
2, 8290, Note_on_c, 0, 86, 0
2, 8400, Lyric_t, "you "
2, 8400, Note_on_c, 0, 86, 126
2, 8410, Note_on_c, 0, 86, 0
2, 8460, Lyric_t, "know "
2, 8460, Note_on_c, 0, 86, 126
2, 8470, Note_on_c, 0, 86, 0
2, 8490, Lyric_t, "that "
2, 8490, Lyric_t, ""
2, 8490, Lyric_t, "\015"
2, 8490, Note_on_c, 0, 86, 126
2, 8500, Note_on_c, 0, 86, 0
2, 8520, Lyric_t, "you're "
2, 8520, Note_on_c, 0, 86, 126
2, 8530, Note_on_c, 0, 86, 0
2, 8580, Lyric_t, "my "
2, 8580, Note_on_c, 0, 86, 127
2, 8590, Note_on_c, 0, 86, 0
2, 8640, Lyric_t, "girl "
2, 8640, Lyric_t, ""
2, 8640, Lyric_t, "\015"
2, 8640, Note_on_c, 0, 86, 127
2, 8650, Note_on_c, 0, 86, 0
2, 8700, Lyric_t, "Jen"
2, 8700, Note_on_c, 0, 86, 127
2, 8710, Note_on_c, 0, 86, 0
2, 8730, Lyric_t, "ny "
2, 8730, Note_on_c, 0, 86, 127
2, 8740, Note_on_c, 0, 86, 0
2, 8760, Lyric_t, "Jen"
2, 8760, Note_on_c, 0, 86, 127
2, 8770, Note_on_c, 0, 86, 0
2, 8820, Lyric_t, "ny "
2, 8820, Lyric_t, ""
2, 8820, Lyric_t, "\015"
2, 8820, Note_on_c, 0, 86, 127
2, 8830, Note_on_c, 0, 86, 0
2, 8940, Lyric_t, "Jen"
2, 8940, Note_on_c, 0, 86, 127
2, 8950, Note_on_c, 0, 86, 0
2, 8970, Lyric_t, "ny "
2, 8970, Note_on_c, 0, 86, 127
2, 8980, Note_on_c, 0, 86, 0
2, 9000, Lyric_t, "Jen"
2, 9000, Note_on_c, 0, 86, 127
2, 9010, Note_on_c, 0, 86, 0
2, 9060, Lyric_t, "ny "
2, 9060, Lyric_t, ""
2, 9060, Lyric_t, "\015"
2, 9060, Note_on_c, 0, 86, 120
2, 9070, Note_on_c, 0, 86, 0
2, 9090, Lyric_t, "you "
2, 9090, Note_on_c, 0, 86, 123
2, 9100, Note_on_c, 0, 86, 0
2, 9120, Lyric_t, "know "
2, 9120, Note_on_c, 0, 86, 123
2, 9130, Note_on_c, 0, 86, 0
2, 9180, Lyric_t, "that "
2, 9180, Lyric_t, ""
2, 9180, Lyric_t, "\015"
2, 9180, Note_on_c, 0, 86, 123
2, 9190, Note_on_c, 0, 86, 0
2, 9210, Lyric_t, "I "
2, 9210, Note_on_c, 0, 86, 123
2, 9220, Note_on_c, 0, 86, 0
2, 9240, Lyric_t, "need "
2, 9240, Note_on_c, 0, 86, 127
2, 9250, Note_on_c, 0, 86, 0
2, 9270, Lyric_t, "you "
2, 9270, Lyric_t, ""
2, 9270, Lyric_t, "\015"
2, 9270, Note_on_c, 0, 86, 126
2, 9280, Note_on_c, 0, 86, 0
2, 9330, Lyric_t, "I'll "
2, 9330, Note_on_c, 0, 86, 127
2, 9360, Lyric_t, "buy "
2, 9360, Note_on_c, 0, 86, 127
2, 9370, Note_on_c, 0, 86, 0
2, 9370, Note_on_c, 0, 86, 0
2, 9390, Lyric_t, "you "
2, 9390, Lyric_t, ""
2, 9390, Lyric_t, "\015"
2, 9390, Note_on_c, 0, 86, 127
2, 9400, Note_on_c, 0, 86, 0
2, 9420, Lyric_t, "diamond "
2, 9420, Note_on_c, 0, 86, 127
2, 9430, Note_on_c, 0, 86, 0
2, 9480, Lyric_t, "rings "
2, 9480, Lyric_t, ""
2, 9480, Lyric_t, "\015"
2, 9480, Note_on_c, 0, 86, 127
2, 9490, Note_on_c, 0, 86, 0
2, 9540, Lyric_t, "and "
2, 9540, Note_on_c, 0, 86, 127
2, 9550, Note_on_c, 0, 86, 0
2, 9600, Lyric_t, "pearls "
2, 9600, Lyric_t, ""
2, 9600, Lyric_t, "\015"
2, 9600, Note_on_c, 0, 86, 127
2, 9600, Program_c, 0, 3
2, 9610, Note_on_c, 0, 86, 0
2, 12480, Program_c, 0, 0
2, 12960, Lyric_t, "Jen"
2, 12960, Note_on_c, 0, 86, 124
2, 12970, Note_on_c, 0, 86, 0
2, 12990, Lyric_t, "ny "
2, 12990, Note_on_c, 0, 86, 124
2, 13000, Note_on_c, 0, 86, 0
2, 13020, Lyric_t, "Jen"
2, 13020, Note_on_c, 0, 86, 124
2, 13030, Note_on_c, 0, 86, 0
2, 13050, Lyric_t, "ny "
2, 13050, Note_on_c, 0, 86, 124
2, 13060, Note_on_c, 0, 86, 0
2, 13080, Lyric_t, "Jenny "
2, 13080, Lyric_t, ""
2, 13080, Lyric_t, "\015"
2, 13080, Note_on_c, 0, 86, 127
2, 13090, Note_on_c, 0, 86, 0
2, 13200, Lyric_t, "won't "
2, 13200, Note_on_c, 0, 86, 127
2, 13210, Note_on_c, 0, 86, 0
2, 13230, Lyric_t, "you "
2, 13230, Note_on_c, 0, 86, 127
2, 13240, Note_on_c, 0, 86, 0
2, 13260, Lyric_t, "come "
2, 13260, Lyric_t, ""
2, 13260, Lyric_t, "\015"
2, 13260, Note_on_c, 0, 86, 127
2, 13270, Note_on_c, 0, 86, 0
2, 13290, Lyric_t, "a"
2, 13290, Note_on_c, 0, 86, 127
2, 13300, Note_on_c, 0, 86, 0
2, 13320, Lyric_t, "long "
2, 13320, Note_on_c, 0, 86, 127
2, 13330, Note_on_c, 0, 86, 0
2, 13380, Lyric_t, "with "
2, 13380, Note_on_c, 0, 86, 127
2, 13390, Note_on_c, 0, 86, 0
2, 13440, Lyric_t, "me "
2, 13440, Lyric_t, ""
2, 13440, Lyric_t, "\015"
2, 13440, Note_on_c, 0, 86, 127
2, 13450, Note_on_c, 0, 86, 0
2, 13500, Lyric_t, "Jen"
2, 13500, Note_on_c, 0, 86, 127
2, 13510, Note_on_c, 0, 86, 0
2, 13530, Lyric_t, "ny "
2, 13530, Note_on_c, 0, 86, 127
2, 13540, Note_on_c, 0, 86, 0
2, 13560, Lyric_t, "Jen"
2, 13560, Note_on_c, 0, 86, 127
2, 13570, Note_on_c, 0, 86, 0
2, 13620, Lyric_t, "ny "
2, 13620, Lyric_t, ""
2, 13620, Lyric_t, "\015"
2, 13620, Note_on_c, 0, 86, 127
2, 13630, Note_on_c, 0, 86, 0
2, 13740, Lyric_t, "Jen"
2, 13740, Note_on_c, 0, 86, 127
2, 13750, Note_on_c, 0, 86, 0
2, 13770, Lyric_t, "ny "
2, 13770, Note_on_c, 0, 86, 127
2, 13780, Note_on_c, 0, 86, 0
2, 13800, Lyric_t, "Jen"
2, 13800, Note_on_c, 0, 86, 127
2, 13810, Note_on_c, 0, 86, 0
2, 13860, Lyric_t, "ny "
2, 13860, Lyric_t, ""
2, 13860, Lyric_t, "\015"
2, 13860, Note_on_c, 0, 86, 127
2, 13870, Note_on_c, 0, 86, 0
2, 13920, Lyric_t, "Jen"
2, 13920, Note_on_c, 0, 86, 121
2, 13930, Note_on_c, 0, 86, 0
2, 13950, Lyric_t, "ny "
2, 13950, Note_on_c, 0, 86, 123
2, 13960, Note_on_c, 0, 86, 0
2, 13980, Lyric_t, "Jen"
2, 13980, Note_on_c, 0, 86, 123
2, 13990, Note_on_c, 0, 86, 0
2, 14010, Lyric_t, "ny "
2, 14010, Note_on_c, 0, 86, 123
2, 14020, Note_on_c, 0, 86, 0
2, 14040, Lyric_t, "Jenny "
2, 14040, Lyric_t, ""
2, 14040, Lyric_t, "\015"
2, 14040, Note_on_c, 0, 86, 123
2, 14050, Note_on_c, 0, 86, 0
2, 14160, Lyric_t, "won't "
2, 14160, Note_on_c, 0, 86, 126
2, 14170, Note_on_c, 0, 86, 0
2, 14190, Lyric_t, "you "
2, 14190, Note_on_c, 0, 86, 127
2, 14220, Lyric_t, "come "
2, 14220, Lyric_t, ""
2, 14220, Lyric_t, "\015"
2, 14220, Note_on_c, 0, 86, 126
2, 14230, Note_on_c, 0, 86, 0
2, 14230, Note_on_c, 0, 86, 0
2, 14250, Lyric_t, "al"
2, 14250, Note_on_c, 0, 86, 126
2, 14260, Note_on_c, 0, 86, 0
2, 14280, Lyric_t, "ong "
2, 14280, Note_on_c, 0, 86, 126
2, 14290, Note_on_c, 0, 86, 0
2, 14340, Lyric_t, "with "
2, 14340, Note_on_c, 0, 86, 127
2, 14350, Note_on_c, 0, 86, 0
2, 14400, Lyric_t, "me "
2, 14400, Lyric_t, ""
2, 14400, Lyric_t, "\015"
2, 14400, Note_on_c, 0, 86, 127
2, 14410, Note_on_c, 0, 86, 0
2, 14460, Lyric_t, "Jen"
2, 14460, Note_on_c, 0, 86, 127
2, 14470, Note_on_c, 0, 86, 0
2, 14490, Lyric_t, "ny "
2, 14490, Note_on_c, 0, 86, 127
2, 14500, Note_on_c, 0, 86, 0
2, 14520, Lyric_t, "Jen"
2, 14520, Note_on_c, 0, 86, 127
2, 14530, Note_on_c, 0, 86, 0
2, 14580, Lyric_t, "ny "
2, 14580, Lyric_t, ""
2, 14580, Lyric_t, "\015"
2, 14580, Note_on_c, 0, 86, 127
2, 14590, Note_on_c, 0, 86, 0
2, 14700, Lyric_t, "Jen"
2, 14700, Note_on_c, 0, 86, 127
2, 14710, Note_on_c, 0, 86, 0
2, 14730, Lyric_t, "ny "
2, 14730, Note_on_c, 0, 86, 127
2, 14740, Note_on_c, 0, 86, 0
2, 14760, Lyric_t, "Jenny "
2, 14760, Lyric_t, ""
2, 14760, Lyric_t, "\015"
2, 14760, Note_on_c, 0, 86, 127
2, 14770, Note_on_c, 0, 86, 0
2, 14850, Lyric_t, "you "
2, 14850, Note_on_c, 0, 86, 123
2, 14860, Note_on_c, 0, 86, 0
2, 14880, Lyric_t, "know "
2, 14880, Note_on_c, 0, 86, 123
2, 14890, Note_on_c, 0, 86, 0
2, 14940, Lyric_t, "that "
2, 14940, Lyric_t, ""
2, 14940, Lyric_t, "\015"
2, 14940, Note_on_c, 0, 86, 123
2, 14950, Note_on_c, 0, 86, 0
2, 14970, Lyric_t, "I "
2, 14970, Note_on_c, 0, 86, 123
2, 14980, Note_on_c, 0, 86, 0
2, 15000, Lyric_t, "love "
2, 15000, Note_on_c, 0, 86, 127
2, 15010, Note_on_c, 0, 86, 0
2, 15040, Lyric_t, "you "
2, 15040, Lyric_t, ""
2, 15040, Lyric_t, "\015"
2, 15040, Note_on_c, 0, 86, 126
2, 15062, Note_on_c, 0, 86, 0
2, 15090, Lyric_t, "and "
2, 15090, Note_on_c, 0, 86, 127
2, 15100, Note_on_c, 0, 86, 0
2, 15120, Lyric_t, "we "
2, 15120, Note_on_c, 0, 86, 127
2, 15130, Note_on_c, 0, 86, 0
2, 15150, Lyric_t, "could "
2, 15150, Lyric_t, ""
2, 15150, Lyric_t, "\015"
2, 15150, Note_on_c, 0, 86, 127
2, 15160, Note_on_c, 0, 86, 0
2, 15180, Lyric_t, "live "
2, 15180, Note_on_c, 0, 86, 127
2, 15190, Note_on_c, 0, 86, 0
2, 15215, Lyric_t, "so "
2, 15215, Note_on_c, 0, 86, 120
2, 15225, Note_on_c, 0, 86, 0
2, 15250, Lyric_t, "happily "
2, 15250, Lyric_t, ""
2, 15250, Lyric_t, "\015"
2, 15250, Note_on_c, 0, 86, 127
2, 15260, Note_on_c, 0, 86, 0
2, 15840, Lyric_t, "Spin"
2, 15840, Note_on_c, 0, 86, 124
2, 15850, Note_on_c, 0, 86, 0
2, 15870, Lyric_t, "nin' "
2, 15870, Note_on_c, 0, 86, 124
2, 15880, Note_on_c, 0, 86, 0
2, 15900, Lyric_t, "spin"
2, 15900, Note_on_c, 0, 86, 124
2, 15910, Note_on_c, 0, 86, 0
2, 15930, Lyric_t, "nin' "
2, 15930, Lyric_t, ""
2, 15930, Lyric_t, "\015"
2, 15930, Note_on_c, 0, 86, 124
2, 15940, Note_on_c, 0, 86, 0
2, 15960, Lyric_t, "spinnin' "
2, 15960, Lyric_t, ""
2, 15960, Lyric_t, "\015"
2, 15960, Note_on_c, 0, 86, 127
2, 15970, Note_on_c, 0, 86, 0
2, 16080, Lyric_t, "spin"
2, 16080, Note_on_c, 0, 86, 127
2, 16090, Note_on_c, 0, 86, 0
2, 16110, Lyric_t, "nin' "
2, 16110, Note_on_c, 0, 86, 127
2, 16120, Note_on_c, 0, 86, 0
2, 16140, Lyric_t, "like "
2, 16140, Lyric_t, ""
2, 16140, Lyric_t, "\015"
2, 16140, Note_on_c, 0, 86, 127
2, 16150, Note_on_c, 0, 86, 0
2, 16170, Lyric_t, "a "
2, 16170, Note_on_c, 0, 86, 127
2, 16180, Note_on_c, 0, 86, 0
2, 16200, Lyric_t, "spin"
2, 16200, Note_on_c, 0, 86, 127
2, 16210, Note_on_c, 0, 86, 0
2, 16260, Lyric_t, "nin' "
2, 16260, Note_on_c, 0, 86, 127
2, 16270, Note_on_c, 0, 86, 0
2, 16320, Lyric_t, "top "
2, 16320, Lyric_t, ""
2, 16320, Lyric_t, "\015"
2, 16320, Note_on_c, 0, 86, 127
2, 16330, Note_on_c, 0, 86, 0
2, 16380, Lyric_t, "spin"
2, 16380, Note_on_c, 0, 86, 127
2, 16390, Note_on_c, 0, 86, 0
2, 16410, Lyric_t, "nin' "
2, 16410, Note_on_c, 0, 86, 127
2, 16420, Note_on_c, 0, 86, 0
2, 16440, Lyric_t, "spin"
2, 16440, Note_on_c, 0, 86, 127
2, 16450, Note_on_c, 0, 86, 0
2, 16500, Lyric_t, "nin' "
2, 16500, Lyric_t, ""
2, 16500, Lyric_t, "\015"
2, 16500, Note_on_c, 0, 86, 127
2, 16510, Note_on_c, 0, 86, 0
2, 16620, Lyric_t, "spin"
2, 16620, Note_on_c, 0, 86, 127
2, 16630, Note_on_c, 0, 86, 0
2, 16650, Lyric_t, "nin' "
2, 16650, Note_on_c, 0, 86, 127
2, 16660, Note_on_c, 0, 86, 0
2, 16680, Lyric_t, "spin"
2, 16680, Note_on_c, 0, 86, 127
2, 16690, Note_on_c, 0, 86, 0
2, 16740, Lyric_t, "nin' "
2, 16740, Lyric_t, ""
2, 16740, Lyric_t, "\015"
2, 16740, Note_on_c, 0, 86, 127
2, 16750, Note_on_c, 0, 86, 0
2, 16800, Lyric_t, "Spin"
2, 16800, Note_on_c, 0, 86, 121
2, 16810, Note_on_c, 0, 86, 0
2, 16830, Lyric_t, "nin' "
2, 16830, Note_on_c, 0, 86, 123
2, 16840, Note_on_c, 0, 86, 0
2, 16860, Lyric_t, "spin"
2, 16860, Note_on_c, 0, 86, 123
2, 16870, Note_on_c, 0, 86, 0
2, 16890, Lyric_t, "nin' "
2, 16890, Lyric_t, ""
2, 16890, Lyric_t, "\015"
2, 16890, Note_on_c, 0, 86, 123
2, 16900, Note_on_c, 0, 86, 0
2, 16920, Lyric_t, "spinnin' "
2, 16920, Lyric_t, ""
2, 16920, Lyric_t, "\015"
2, 16920, Note_on_c, 0, 86, 123
2, 16930, Note_on_c, 0, 86, 0
2, 17040, Lyric_t, "spin "
2, 17040, Note_on_c, 0, 86, 126
2, 17050, Note_on_c, 0, 86, 0
2, 17100, Lyric_t, "like "
2, 17100, Lyric_t, ""
2, 17100, Lyric_t, "\015"
2, 17100, Note_on_c, 0, 86, 126
2, 17110, Note_on_c, 0, 86, 0
2, 17130, Lyric_t, "a "
2, 17130, Note_on_c, 0, 86, 126
2, 17140, Note_on_c, 0, 86, 0
2, 17160, Lyric_t, "spin"
2, 17160, Note_on_c, 0, 86, 126
2, 17170, Note_on_c, 0, 86, 0
2, 17220, Lyric_t, "nin' "
2, 17220, Note_on_c, 0, 86, 127
2, 17230, Note_on_c, 0, 86, 0
2, 17280, Lyric_t, "top "
2, 17280, Lyric_t, ""
2, 17280, Lyric_t, "\015"
2, 17280, Note_on_c, 0, 86, 127
2, 17290, Note_on_c, 0, 86, 0
2, 17340, Lyric_t, "spin"
2, 17340, Note_on_c, 0, 86, 127
2, 17350, Note_on_c, 0, 86, 0
2, 17370, Lyric_t, "nin' "
2, 17370, Note_on_c, 0, 86, 127
2, 17380, Note_on_c, 0, 86, 0
2, 17400, Lyric_t, "spin"
2, 17400, Note_on_c, 0, 86, 127
2, 17410, Note_on_c, 0, 86, 0
2, 17460, Lyric_t, "nin' "
2, 17460, Lyric_t, ""
2, 17460, Lyric_t, "\015"
2, 17460, Note_on_c, 0, 86, 127
2, 17470, Note_on_c, 0, 86, 0
2, 17580, Lyric_t, "spin"
2, 17580, Note_on_c, 0, 86, 127
2, 17590, Note_on_c, 0, 86, 0
2, 17610, Lyric_t, "nin' "
2, 17610, Note_on_c, 0, 86, 127
2, 17620, Note_on_c, 0, 86, 0
2, 17640, Lyric_t, "spin "
2, 17640, Lyric_t, ""
2, 17640, Lyric_t, "\015"
2, 17640, Note_on_c, 0, 86, 127
2, 17650, Note_on_c, 0, 86, 0
2, 17700, Lyric_t, "A "
2, 17700, Note_on_c, 0, 86, 120
2, 17710, Note_on_c, 0, 86, 0
2, 17730, Lyric_t, "craz"
2, 17730, Note_on_c, 0, 86, 123
2, 17740, Note_on_c, 0, 86, 0
2, 17760, Lyric_t, "y "
2, 17760, Note_on_c, 0, 86, 123
2, 17770, Note_on_c, 0, 86, 0
2, 17820, Lyric_t, "lit"
2, 17820, Note_on_c, 0, 86, 123
2, 17830, Note_on_c, 0, 86, 0
2, 17850, Lyric_t, "tle "
2, 17850, Note_on_c, 0, 86, 123
2, 17860, Note_on_c, 0, 86, 0
2, 17880, Lyric_t, "partner "
2, 17880, Lyric_t, ""
2, 17880, Lyric_t, "\015"
2, 17880, Note_on_c, 0, 86, 127
2, 17890, Note_on_c, 0, 86, 0
2, 17970, Lyric_t, "you "
2, 17970, Note_on_c, 0, 86, 127
2, 17980, Note_on_c, 0, 86, 0
2, 18000, Lyric_t, "ought "
2, 18000, Note_on_c, 0, 86, 127
2, 18010, Note_on_c, 0, 86, 0
2, 18030, Lyric_t, "to "
2, 18030, Note_on_c, 0, 86, 127
2, 18040, Note_on_c, 0, 86, 0
2, 18060, Lyric_t, "see "
2, 18060, Lyric_t, ""
2, 18060, Lyric_t, "\015"
2, 18060, Note_on_c, 0, 86, 127
2, 18070, Note_on_c, 0, 86, 0
2, 18090, Lyric_t, "us "
2, 18090, Note_on_c, 0, 86, 126
2, 18120, Note_on_c, 0, 86, 0
2, 18120, Lyric_t, "reel "
2, 18120, Note_on_c, 0, 86, 127
2, 18130, Note_on_c, 0, 86, 0
2, 18180, Lyric_t, "and "
2, 18180, Note_on_c, 0, 86, 127
2, 18190, Note_on_c, 0, 86, 0
2, 18240, Lyric_t, "rock "
2, 18240, Lyric_t, ""
2, 18240, Lyric_t, "\015"
2, 18240, Note_on_c, 0, 86, 127
2, 18250, Note_on_c, 0, 86, 0
2, 18780, Lyric_t, "Jen"
2, 18780, Note_on_c, 0, 86, 122
2, 18790, Note_on_c, 0, 86, 0
2, 18810, Lyric_t, "ny "
2, 18810, Note_on_c, 0, 86, 125
2, 18820, Note_on_c, 0, 86, 0
2, 18840, Lyric_t, "Jen"
2, 18840, Note_on_c, 0, 86, 126
2, 18850, Note_on_c, 0, 86, 0
2, 18900, Lyric_t, "ny "
2, 18900, Lyric_t, ""
2, 18900, Lyric_t, "\015"
2, 18900, Note_on_c, 0, 86, 126
2, 18910, Note_on_c, 0, 86, 0
2, 18945, Lyric_t, "you "
2, 18945, Note_on_c, 0, 86, 126
2, 18955, Note_on_c, 0, 86, 0
2, 18960, Lyric_t, "know "
2, 18960, Note_on_c, 0, 86, 126
2, 18970, Note_on_c, 0, 86, 0
2, 19020, Lyric_t, "that "
2, 19020, Lyric_t, ""
2, 19020, Lyric_t, "\015"
2, 19020, Note_on_c, 0, 86, 126
2, 19030, Note_on_c, 0, 86, 0
2, 19080, Lyric_t, "you're "
2, 19080, Note_on_c, 0, 86, 126
2, 19090, Note_on_c, 0, 86, 0
2, 19140, Lyric_t, "my "
2, 19140, Note_on_c, 0, 86, 126
2, 19150, Note_on_c, 0, 86, 0
2, 19200, Lyric_t, "girl "
2, 19200, Lyric_t, ""
2, 19200, Lyric_t, "\015"
2, 19200, Note_on_c, 0, 86, 126
2, 19210, Note_on_c, 0, 86, 0
2, 19260, Lyric_t, "Jen"
2, 19260, Note_on_c, 0, 86, 127
2, 19270, Note_on_c, 0, 86, 0
2, 19290, Lyric_t, "ny "
2, 19290, Note_on_c, 0, 86, 127
2, 19300, Note_on_c, 0, 86, 0
2, 19320, Lyric_t, "Jen"
2, 19320, Note_on_c, 0, 86, 127
2, 19330, Note_on_c, 0, 86, 0
2, 19380, Lyric_t, "ny "
2, 19380, Lyric_t, ""
2, 19380, Lyric_t, "\015"
2, 19380, Note_on_c, 0, 86, 127
2, 19390, Note_on_c, 0, 86, 0
2, 19500, Lyric_t, "Jen"
2, 19500, Note_on_c, 0, 86, 127
2, 19510, Note_on_c, 0, 86, 0
2, 19530, Lyric_t, "ny "
2, 19530, Note_on_c, 0, 86, 127
2, 19540, Note_on_c, 0, 86, 0
2, 19560, Lyric_t, "Jen"
2, 19560, Note_on_c, 0, 86, 127
2, 19570, Note_on_c, 0, 86, 0
2, 19620, Lyric_t, "ny "
2, 19620, Lyric_t, ""
2, 19620, Lyric_t, "\015"
2, 19620, Note_on_c, 0, 86, 127
2, 19630, Note_on_c, 0, 86, 0
2, 19680, Lyric_t, "Jen"
2, 19680, Note_on_c, 0, 86, 121
2, 19690, Note_on_c, 0, 86, 0
2, 19710, Lyric_t, "ny "
2, 19710, Note_on_c, 0, 86, 123
2, 19720, Note_on_c, 0, 86, 0
2, 19740, Lyric_t, "Jen"
2, 19740, Note_on_c, 0, 86, 123
2, 19750, Note_on_c, 0, 86, 0
2, 19770, Lyric_t, "ny "
2, 19770, Note_on_c, 0, 86, 123
2, 19780, Note_on_c, 0, 86, 0
2, 19800, Lyric_t, "Jenny "
2, 19800, Lyric_t, ""
2, 19800, Lyric_t, "\015"
2, 19800, Note_on_c, 0, 86, 123
2, 19810, Note_on_c, 0, 86, 0
2, 19920, Lyric_t, "you "
2, 19920, Note_on_c, 0, 86, 126
2, 19930, Note_on_c, 0, 86, 0
2, 19980, Lyric_t, "know "
2, 19980, Note_on_c, 0, 86, 126
2, 19990, Note_on_c, 0, 86, 0
2, 20010, Lyric_t, "that "
2, 20010, Lyric_t, ""
2, 20010, Lyric_t, "\015"
2, 20010, Note_on_c, 0, 86, 126
2, 20020, Note_on_c, 0, 86, 0
2, 20040, Lyric_t, "you're "
2, 20040, Note_on_c, 0, 86, 126
2, 20050, Note_on_c, 0, 86, 0
2, 20100, Lyric_t, "my "
2, 20100, Note_on_c, 0, 86, 127
2, 20110, Note_on_c, 0, 86, 0
2, 20160, Lyric_t, "girl "
2, 20160, Lyric_t, ""
2, 20160, Lyric_t, "\015"
2, 20160, Note_on_c, 0, 86, 127
2, 20170, Note_on_c, 0, 86, 0
2, 20220, Lyric_t, "Jen"
2, 20220, Note_on_c, 0, 86, 127
2, 20230, Note_on_c, 0, 86, 0
2, 20250, Lyric_t, "ny "
2, 20250, Note_on_c, 0, 86, 127
2, 20260, Note_on_c, 0, 86, 0
2, 20280, Lyric_t, "Jen"
2, 20280, Note_on_c, 0, 86, 127
2, 20290, Note_on_c, 0, 86, 0
2, 20340, Lyric_t, "ny "
2, 20340, Lyric_t, ""
2, 20340, Lyric_t, "\015"
2, 20340, Note_on_c, 0, 86, 127
2, 20350, Note_on_c, 0, 86, 0
2, 20460, Lyric_t, "Jen"
2, 20460, Note_on_c, 0, 86, 127
2, 20470, Note_on_c, 0, 86, 0
2, 20490, Lyric_t, "ny "
2, 20490, Note_on_c, 0, 86, 127
2, 20500, Note_on_c, 0, 86, 0
2, 20520, Lyric_t, "Jen"
2, 20520, Note_on_c, 0, 86, 127
2, 20530, Note_on_c, 0, 86, 0
2, 20580, Lyric_t, "ny "
2, 20580, Lyric_t, ""
2, 20580, Lyric_t, "\015"
2, 20580, Note_on_c, 0, 86, 120
2, 20590, Note_on_c, 0, 86, 0
2, 20610, Lyric_t, "you "
2, 20610, Note_on_c, 0, 86, 123
2, 20620, Note_on_c, 0, 86, 0
2, 20640, Lyric_t, "know "
2, 20640, Note_on_c, 0, 86, 123
2, 20650, Note_on_c, 0, 86, 0
2, 20700, Lyric_t, "that "
2, 20700, Lyric_t, ""
2, 20700, Lyric_t, "\015"
2, 20700, Note_on_c, 0, 86, 123
2, 20710, Note_on_c, 0, 86, 0
2, 20730, Lyric_t, "I "
2, 20730, Note_on_c, 0, 86, 123
2, 20740, Note_on_c, 0, 86, 0
2, 20760, Lyric_t, "need "
2, 20760, Note_on_c, 0, 86, 127
2, 20770, Note_on_c, 0, 86, 0
2, 20800, Lyric_t, "you "
2, 20800, Lyric_t, ""
2, 20800, Lyric_t, "\015"
2, 20800, Note_on_c, 0, 86, 127
2, 20830, Note_on_c, 0, 86, 0
2, 20850, Lyric_t, "I'll "
2, 20850, Note_on_c, 0, 86, 127
2, 20860, Note_on_c, 0, 86, 0
2, 20880, Lyric_t, "buy "
2, 20880, Note_on_c, 0, 86, 127
2, 20890, Note_on_c, 0, 86, 0
2, 20910, Lyric_t, "you "
2, 20910, Lyric_t, ""
2, 20910, Lyric_t, "\015"
2, 20910, Note_on_c, 0, 86, 127
2, 20920, Note_on_c, 0, 86, 0
2, 20940, Lyric_t, "diamond "
2, 20940, Note_on_c, 0, 86, 127
2, 20950, Note_on_c, 0, 86, 0
2, 21000, Lyric_t, "rings "
2, 21000, Lyric_t, ""
2, 21000, Lyric_t, "\015"
2, 21000, Note_on_c, 0, 86, 127
2, 21010, Note_on_c, 0, 86, 0
2, 21060, Lyric_t, "and "
2, 21060, Note_on_c, 0, 86, 127
2, 21070, Note_on_c, 0, 86, 0
2, 21120, Lyric_t, "pearls "
2, 21120, Lyric_t, ""
2, 21120, Lyric_t, "\015"
2, 21120, Lyric_t, ""
2, 21120, Lyric_t, "\015"
2, 21120, Note_on_c, 0, 86, 127
2, 21120, Program_c, 0, 3
2, 21130, Note_on_c, 0, 86, 0
2, 21130, End_track
3, 0, Start_track
3, 0, MIDI_port, 0
3, 0, Title_t, ">>BASS"
3, 0, Program_c, 1, 32
3, 0, Control_c, 1, 7, 100
3, 480, Note_on_c, 1, 36, 127
3, 599, Note_on_c, 1, 36, 0
3, 600, Note_on_c, 1, 40, 127
3, 658, Note_on_c, 1, 40, 0
3, 660, Note_on_c, 1, 43, 127
3, 719, Note_on_c, 1, 43, 0
3, 720, Note_on_c, 1, 34, 127
3, 839, Note_on_c, 1, 34, 0
3, 840, Note_on_c, 1, 38, 127
3, 899, Note_on_c, 1, 38, 0
3, 900, Note_on_c, 1, 41, 127
3, 953, Note_on_c, 1, 41, 0
3, 960, Note_on_c, 1, 29, 127
3, 1079, Note_on_c, 1, 29, 0
3, 1080, Note_on_c, 1, 33, 127
3, 1135, Note_on_c, 1, 33, 0
3, 1140, Note_on_c, 1, 36, 127
3, 1199, Note_on_c, 1, 36, 0
3, 1200, Note_on_c, 1, 29, 118
3, 1265, Note_on_c, 1, 29, 0
3, 1305, Note_on_c, 1, 29, 100
3, 1319, Note_on_c, 1, 29, 0
3, 1320, Note_on_c, 1, 33, 114
3, 1377, Note_on_c, 1, 33, 0
3, 1380, Note_on_c, 1, 36, 91
3, 1439, Note_on_c, 1, 36, 0
3, 1440, Note_on_c, 1, 29, 126
3, 1559, Note_on_c, 1, 29, 0
3, 1560, Note_on_c, 1, 33, 127
3, 1679, Note_on_c, 1, 33, 0
3, 1680, Note_on_c, 1, 29, 127
3, 1751, Note_on_c, 1, 29, 0
3, 1785, Note_on_c, 1, 29, 127
3, 1799, Note_on_c, 1, 29, 0
3, 1800, Note_on_c, 1, 33, 127
3, 1860, Note_on_c, 1, 36, 127
3, 1864, Note_on_c, 1, 33, 0
3, 1919, Note_on_c, 1, 36, 0
3, 1920, Note_on_c, 1, 29, 127
3, 2039, Note_on_c, 1, 29, 0
3, 2040, Note_on_c, 1, 33, 127
3, 2159, Note_on_c, 1, 33, 0
3, 2160, Note_on_c, 1, 29, 127
3, 2228, Note_on_c, 1, 29, 0
3, 2265, Note_on_c, 1, 29, 127
3, 2279, Note_on_c, 1, 29, 0
3, 2280, Note_on_c, 1, 33, 127
3, 2337, Note_on_c, 1, 33, 0
3, 2340, Note_on_c, 1, 36, 127
3, 2398, Note_on_c, 1, 36, 0
3, 2400, Note_on_c, 1, 34, 127
3, 2519, Note_on_c, 1, 34, 0
3, 2520, Note_on_c, 1, 38, 124
3, 2639, Note_on_c, 1, 38, 0
3, 2640, Note_on_c, 1, 34, 127
3, 2705, Note_on_c, 1, 34, 0
3, 2745, Note_on_c, 1, 34, 127
3, 2760, Note_on_c, 1, 38, 127
3, 2762, Note_on_c, 1, 34, 0
3, 2820, Note_on_c, 1, 41, 127
3, 2823, Note_on_c, 1, 38, 0
3, 2873, Note_on_c, 1, 41, 0
3, 2880, Note_on_c, 1, 29, 127
3, 2999, Note_on_c, 1, 29, 0
3, 3000, Note_on_c, 1, 33, 127
3, 3119, Note_on_c, 1, 33, 0
3, 3120, Note_on_c, 1, 29, 127
3, 3188, Note_on_c, 1, 29, 0
3, 3225, Note_on_c, 1, 29, 127
3, 3239, Note_on_c, 1, 29, 0
3, 3240, Note_on_c, 1, 33, 127
3, 3300, Note_on_c, 1, 36, 127
3, 3301, Note_on_c, 1, 33, 0
3, 3330, Note_on_c, 1, 36, 0
3, 3360, Note_on_c, 1, 36, 127
3, 3479, Note_on_c, 1, 36, 0
3, 3480, Note_on_c, 1, 43, 127
3, 3536, Note_on_c, 1, 43, 0
3, 3540, Note_on_c, 1, 36, 127
3, 3599, Note_on_c, 1, 36, 0
3, 3600, Note_on_c, 1, 34, 125
3, 3644, Note_on_c, 1, 34, 0
3, 3840, Note_on_c, 1, 29, 100
3, 3959, Note_on_c, 1, 29, 0
3, 3960, Note_on_c, 1, 33, 127
3, 4079, Note_on_c, 1, 33, 0
3, 4080, Note_on_c, 1, 29, 127
3, 4141, Note_on_c, 1, 29, 0
3, 4185, Note_on_c, 1, 29, 127
3, 4199, Note_on_c, 1, 29, 0
3, 4200, Note_on_c, 1, 33, 127
3, 4260, Note_on_c, 1, 36, 127
3, 4265, Note_on_c, 1, 33, 0
3, 4319, Note_on_c, 1, 36, 0
3, 4320, Note_on_c, 1, 29, 126
3, 4439, Note_on_c, 1, 29, 0
3, 4440, Note_on_c, 1, 33, 127
3, 4559, Note_on_c, 1, 33, 0
3, 4560, Note_on_c, 1, 29, 127
3, 4631, Note_on_c, 1, 29, 0
3, 4665, Note_on_c, 1, 29, 127
3, 4679, Note_on_c, 1, 29, 0
3, 4680, Note_on_c, 1, 33, 127
3, 4740, Note_on_c, 1, 36, 127
3, 4744, Note_on_c, 1, 33, 0
3, 4799, Note_on_c, 1, 36, 0
3, 4800, Note_on_c, 1, 29, 127
3, 4919, Note_on_c, 1, 29, 0
3, 4920, Note_on_c, 1, 33, 127
3, 5039, Note_on_c, 1, 33, 0
3, 5040, Note_on_c, 1, 29, 127
3, 5108, Note_on_c, 1, 29, 0
3, 5145, Note_on_c, 1, 29, 127
3, 5159, Note_on_c, 1, 29, 0
3, 5160, Note_on_c, 1, 33, 127
3, 5217, Note_on_c, 1, 33, 0
3, 5220, Note_on_c, 1, 36, 127
3, 5278, Note_on_c, 1, 36, 0
3, 5280, Note_on_c, 1, 34, 127
3, 5399, Note_on_c, 1, 34, 0
3, 5400, Note_on_c, 1, 38, 124
3, 5519, Note_on_c, 1, 38, 0
3, 5520, Note_on_c, 1, 34, 127
3, 5585, Note_on_c, 1, 34, 0
3, 5625, Note_on_c, 1, 34, 127
3, 5640, Note_on_c, 1, 38, 127
3, 5642, Note_on_c, 1, 34, 0
3, 5700, Note_on_c, 1, 41, 127
3, 5703, Note_on_c, 1, 38, 0
3, 5753, Note_on_c, 1, 41, 0
3, 5760, Note_on_c, 1, 29, 127
3, 5879, Note_on_c, 1, 29, 0
3, 5880, Note_on_c, 1, 33, 127
3, 5999, Note_on_c, 1, 33, 0
3, 6000, Note_on_c, 1, 29, 127
3, 6068, Note_on_c, 1, 29, 0
3, 6105, Note_on_c, 1, 29, 127
3, 6119, Note_on_c, 1, 29, 0
3, 6120, Note_on_c, 1, 33, 127
3, 6180, Note_on_c, 1, 36, 127
3, 6181, Note_on_c, 1, 33, 0
3, 6210, Note_on_c, 1, 36, 0
3, 6240, Note_on_c, 1, 36, 127
3, 6359, Note_on_c, 1, 36, 0
3, 6360, Note_on_c, 1, 43, 127
3, 6416, Note_on_c, 1, 43, 0
3, 6420, Note_on_c, 1, 36, 127
3, 6479, Note_on_c, 1, 36, 0
3, 6480, Note_on_c, 1, 34, 125
3, 6524, Note_on_c, 1, 34, 0
3, 6720, Note_on_c, 1, 29, 100
3, 6839, Note_on_c, 1, 29, 0
3, 6840, Note_on_c, 1, 33, 127
3, 6959, Note_on_c, 1, 33, 0
3, 6960, Note_on_c, 1, 29, 127
3, 7021, Note_on_c, 1, 29, 0
3, 7065, Note_on_c, 1, 29, 127
3, 7079, Note_on_c, 1, 29, 0
3, 7080, Note_on_c, 1, 33, 127
3, 7140, Note_on_c, 1, 36, 127
3, 7145, Note_on_c, 1, 33, 0
3, 7199, Note_on_c, 1, 36, 0
3, 7200, Note_on_c, 1, 29, 126
3, 7319, Note_on_c, 1, 29, 0
3, 7320, Note_on_c, 1, 33, 127
3, 7439, Note_on_c, 1, 33, 0
3, 7440, Note_on_c, 1, 29, 127
3, 7511, Note_on_c, 1, 29, 0
3, 7545, Note_on_c, 1, 29, 127
3, 7559, Note_on_c, 1, 29, 0
3, 7560, Note_on_c, 1, 33, 127
3, 7620, Note_on_c, 1, 36, 127
3, 7624, Note_on_c, 1, 33, 0
3, 7679, Note_on_c, 1, 36, 0
3, 7680, Note_on_c, 1, 29, 127
3, 7799, Note_on_c, 1, 29, 0
3, 7800, Note_on_c, 1, 33, 127
3, 7919, Note_on_c, 1, 33, 0
3, 7920, Note_on_c, 1, 29, 127
3, 7988, Note_on_c, 1, 29, 0
3, 8025, Note_on_c, 1, 29, 127
3, 8039, Note_on_c, 1, 29, 0
3, 8040, Note_on_c, 1, 33, 127
3, 8097, Note_on_c, 1, 33, 0
3, 8100, Note_on_c, 1, 36, 127
3, 8158, Note_on_c, 1, 36, 0
3, 8160, Note_on_c, 1, 34, 127
3, 8279, Note_on_c, 1, 34, 0
3, 8280, Note_on_c, 1, 38, 124
3, 8399, Note_on_c, 1, 38, 0
3, 8400, Note_on_c, 1, 34, 127
3, 8465, Note_on_c, 1, 34, 0
3, 8505, Note_on_c, 1, 34, 127
3, 8520, Note_on_c, 1, 38, 127
3, 8522, Note_on_c, 1, 34, 0
3, 8580, Note_on_c, 1, 41, 127
3, 8583, Note_on_c, 1, 38, 0
3, 8633, Note_on_c, 1, 41, 0
3, 8640, Note_on_c, 1, 29, 127
3, 8759, Note_on_c, 1, 29, 0
3, 8760, Note_on_c, 1, 33, 127
3, 8879, Note_on_c, 1, 33, 0
3, 8880, Note_on_c, 1, 29, 127
3, 8948, Note_on_c, 1, 29, 0
3, 8985, Note_on_c, 1, 29, 127
3, 8999, Note_on_c, 1, 29, 0
3, 9000, Note_on_c, 1, 33, 127
3, 9060, Note_on_c, 1, 36, 127
3, 9061, Note_on_c, 1, 33, 0
3, 9090, Note_on_c, 1, 36, 0
3, 9120, Note_on_c, 1, 36, 127
3, 9239, Note_on_c, 1, 36, 0
3, 9240, Note_on_c, 1, 43, 127
3, 9296, Note_on_c, 1, 43, 0
3, 9300, Note_on_c, 1, 36, 127
3, 9359, Note_on_c, 1, 36, 0
3, 9360, Note_on_c, 1, 34, 125
3, 9404, Note_on_c, 1, 34, 0
3, 9600, Note_on_c, 1, 29, 100
3, 9719, Note_on_c, 1, 29, 0
3, 9720, Note_on_c, 1, 33, 127
3, 9839, Note_on_c, 1, 33, 0
3, 9840, Note_on_c, 1, 29, 127
3, 9901, Note_on_c, 1, 29, 0
3, 9945, Note_on_c, 1, 29, 127
3, 9959, Note_on_c, 1, 29, 0
3, 9960, Note_on_c, 1, 33, 127
3, 10020, Note_on_c, 1, 36, 127
3, 10025, Note_on_c, 1, 33, 0
3, 10079, Note_on_c, 1, 36, 0
3, 10080, Note_on_c, 1, 29, 126
3, 10199, Note_on_c, 1, 29, 0
3, 10200, Note_on_c, 1, 33, 127
3, 10319, Note_on_c, 1, 33, 0
3, 10320, Note_on_c, 1, 29, 127
3, 10391, Note_on_c, 1, 29, 0
3, 10425, Note_on_c, 1, 29, 127
3, 10439, Note_on_c, 1, 29, 0
3, 10440, Note_on_c, 1, 33, 127
3, 10500, Note_on_c, 1, 36, 127
3, 10504, Note_on_c, 1, 33, 0
3, 10559, Note_on_c, 1, 36, 0
3, 10560, Note_on_c, 1, 29, 127
3, 10679, Note_on_c, 1, 29, 0
3, 10680, Note_on_c, 1, 33, 127
3, 10799, Note_on_c, 1, 33, 0
3, 10800, Note_on_c, 1, 29, 127
3, 10868, Note_on_c, 1, 29, 0
3, 10905, Note_on_c, 1, 29, 127
3, 10919, Note_on_c, 1, 29, 0
3, 10920, Note_on_c, 1, 33, 127
3, 10977, Note_on_c, 1, 33, 0
3, 10980, Note_on_c, 1, 36, 127
3, 11038, Note_on_c, 1, 36, 0
3, 11040, Note_on_c, 1, 34, 127
3, 11159, Note_on_c, 1, 34, 0
3, 11160, Note_on_c, 1, 38, 124
3, 11279, Note_on_c, 1, 38, 0
3, 11280, Note_on_c, 1, 34, 127
3, 11345, Note_on_c, 1, 34, 0
3, 11385, Note_on_c, 1, 34, 127
3, 11400, Note_on_c, 1, 38, 127
3, 11402, Note_on_c, 1, 34, 0
3, 11460, Note_on_c, 1, 41, 127
3, 11463, Note_on_c, 1, 38, 0
3, 11513, Note_on_c, 1, 41, 0
3, 11520, Note_on_c, 1, 29, 127
3, 11639, Note_on_c, 1, 29, 0
3, 11640, Note_on_c, 1, 33, 127
3, 11759, Note_on_c, 1, 33, 0
3, 11760, Note_on_c, 1, 29, 127
3, 11828, Note_on_c, 1, 29, 0
3, 11865, Note_on_c, 1, 29, 127
3, 11879, Note_on_c, 1, 29, 0
3, 11880, Note_on_c, 1, 33, 127
3, 11940, Note_on_c, 1, 36, 127
3, 11941, Note_on_c, 1, 33, 0
3, 11970, Note_on_c, 1, 36, 0
3, 12000, Note_on_c, 1, 36, 127
3, 12119, Note_on_c, 1, 36, 0
3, 12120, Note_on_c, 1, 43, 127
3, 12176, Note_on_c, 1, 43, 0
3, 12180, Note_on_c, 1, 36, 125
3, 12239, Note_on_c, 1, 36, 0
3, 12240, Note_on_c, 1, 34, 125
3, 12314, Note_on_c, 1, 34, 0
3, 12336, Note_on_c, 1, 34, 127
3, 12359, Note_on_c, 1, 34, 0
3, 12360, Note_on_c, 1, 38, 127
3, 12416, Note_on_c, 1, 41, 127
3, 12450, Note_on_c, 1, 41, 0
3, 12479, Note_on_c, 1, 38, 0
3, 12480, Note_on_c, 1, 29, 127
3, 12599, Note_on_c, 1, 29, 0
3, 12600, Note_on_c, 1, 33, 127
3, 12719, Note_on_c, 1, 33, 0
3, 12720, Note_on_c, 1, 29, 127
3, 12781, Note_on_c, 1, 29, 0
3, 12825, Note_on_c, 1, 29, 127
3, 12839, Note_on_c, 1, 29, 0
3, 12840, Note_on_c, 1, 33, 127
3, 12900, Note_on_c, 1, 36, 127
3, 12905, Note_on_c, 1, 33, 0
3, 12959, Note_on_c, 1, 36, 0
3, 12960, Note_on_c, 1, 29, 126
3, 13079, Note_on_c, 1, 29, 0
3, 13080, Note_on_c, 1, 33, 127
3, 13199, Note_on_c, 1, 33, 0
3, 13200, Note_on_c, 1, 29, 127
3, 13271, Note_on_c, 1, 29, 0
3, 13305, Note_on_c, 1, 29, 127
3, 13319, Note_on_c, 1, 29, 0
3, 13320, Note_on_c, 1, 33, 127
3, 13380, Note_on_c, 1, 36, 127
3, 13384, Note_on_c, 1, 33, 0
3, 13439, Note_on_c, 1, 36, 0
3, 13440, Note_on_c, 1, 29, 127
3, 13559, Note_on_c, 1, 29, 0
3, 13560, Note_on_c, 1, 33, 127
3, 13679, Note_on_c, 1, 33, 0
3, 13680, Note_on_c, 1, 29, 127
3, 13748, Note_on_c, 1, 29, 0
3, 13785, Note_on_c, 1, 29, 127
3, 13799, Note_on_c, 1, 29, 0
3, 13800, Note_on_c, 1, 33, 127
3, 13857, Note_on_c, 1, 33, 0
3, 13860, Note_on_c, 1, 36, 127
3, 13918, Note_on_c, 1, 36, 0
3, 13920, Note_on_c, 1, 34, 127
3, 14039, Note_on_c, 1, 34, 0
3, 14040, Note_on_c, 1, 38, 124
3, 14159, Note_on_c, 1, 38, 0
3, 14160, Note_on_c, 1, 34, 127
3, 14225, Note_on_c, 1, 34, 0
3, 14265, Note_on_c, 1, 34, 127
3, 14280, Note_on_c, 1, 38, 127
3, 14282, Note_on_c, 1, 34, 0
3, 14340, Note_on_c, 1, 41, 127
3, 14343, Note_on_c, 1, 38, 0
3, 14393, Note_on_c, 1, 41, 0
3, 14400, Note_on_c, 1, 29, 127
3, 14519, Note_on_c, 1, 29, 0
3, 14520, Note_on_c, 1, 33, 127
3, 14639, Note_on_c, 1, 33, 0
3, 14640, Note_on_c, 1, 29, 127
3, 14708, Note_on_c, 1, 29, 0
3, 14745, Note_on_c, 1, 29, 127
3, 14759, Note_on_c, 1, 29, 0
3, 14760, Note_on_c, 1, 33, 127
3, 14820, Note_on_c, 1, 36, 127
3, 14821, Note_on_c, 1, 33, 0
3, 14850, Note_on_c, 1, 36, 0
3, 14880, Note_on_c, 1, 36, 127
3, 14999, Note_on_c, 1, 36, 0
3, 15000, Note_on_c, 1, 43, 127
3, 15056, Note_on_c, 1, 43, 0
3, 15060, Note_on_c, 1, 36, 127
3, 15119, Note_on_c, 1, 36, 0
3, 15120, Note_on_c, 1, 34, 125
3, 15164, Note_on_c, 1, 34, 0
3, 15360, Note_on_c, 1, 29, 100
3, 15479, Note_on_c, 1, 29, 0
3, 15480, Note_on_c, 1, 33, 127
3, 15599, Note_on_c, 1, 33, 0
3, 15600, Note_on_c, 1, 29, 127
3, 15661, Note_on_c, 1, 29, 0
3, 15705, Note_on_c, 1, 29, 127
3, 15719, Note_on_c, 1, 29, 0
3, 15720, Note_on_c, 1, 33, 127
3, 15780, Note_on_c, 1, 36, 127
3, 15785, Note_on_c, 1, 33, 0
3, 15839, Note_on_c, 1, 36, 0
3, 15840, Note_on_c, 1, 29, 126
3, 15959, Note_on_c, 1, 29, 0
3, 15960, Note_on_c, 1, 33, 127
3, 16079, Note_on_c, 1, 33, 0
3, 16080, Note_on_c, 1, 29, 127
3, 16151, Note_on_c, 1, 29, 0
3, 16185, Note_on_c, 1, 29, 127
3, 16199, Note_on_c, 1, 29, 0
3, 16200, Note_on_c, 1, 33, 127
3, 16260, Note_on_c, 1, 36, 127
3, 16264, Note_on_c, 1, 33, 0
3, 16319, Note_on_c, 1, 36, 0
3, 16320, Note_on_c, 1, 29, 127
3, 16439, Note_on_c, 1, 29, 0
3, 16440, Note_on_c, 1, 33, 127
3, 16559, Note_on_c, 1, 33, 0
3, 16560, Note_on_c, 1, 29, 127
3, 16628, Note_on_c, 1, 29, 0
3, 16665, Note_on_c, 1, 29, 127
3, 16679, Note_on_c, 1, 29, 0
3, 16680, Note_on_c, 1, 33, 127
3, 16737, Note_on_c, 1, 33, 0
3, 16740, Note_on_c, 1, 36, 127
3, 16798, Note_on_c, 1, 36, 0
3, 16800, Note_on_c, 1, 34, 127
3, 16919, Note_on_c, 1, 34, 0
3, 16920, Note_on_c, 1, 38, 124
3, 17039, Note_on_c, 1, 38, 0
3, 17040, Note_on_c, 1, 34, 127
3, 17105, Note_on_c, 1, 34, 0
3, 17145, Note_on_c, 1, 34, 127
3, 17160, Note_on_c, 1, 38, 127
3, 17162, Note_on_c, 1, 34, 0
3, 17220, Note_on_c, 1, 41, 127
3, 17223, Note_on_c, 1, 38, 0
3, 17273, Note_on_c, 1, 41, 0
3, 17280, Note_on_c, 1, 29, 127
3, 17399, Note_on_c, 1, 29, 0
3, 17400, Note_on_c, 1, 33, 127
3, 17519, Note_on_c, 1, 33, 0
3, 17520, Note_on_c, 1, 29, 127
3, 17588, Note_on_c, 1, 29, 0
3, 17625, Note_on_c, 1, 29, 127
3, 17639, Note_on_c, 1, 29, 0
3, 17640, Note_on_c, 1, 33, 127
3, 17700, Note_on_c, 1, 36, 127
3, 17701, Note_on_c, 1, 33, 0
3, 17730, Note_on_c, 1, 36, 0
3, 17760, Note_on_c, 1, 36, 127
3, 17879, Note_on_c, 1, 36, 0
3, 17880, Note_on_c, 1, 43, 127
3, 17936, Note_on_c, 1, 43, 0
3, 17940, Note_on_c, 1, 36, 127
3, 17999, Note_on_c, 1, 36, 0
3, 18000, Note_on_c, 1, 34, 125
3, 18044, Note_on_c, 1, 34, 0
3, 18240, Note_on_c, 1, 29, 100
3, 18359, Note_on_c, 1, 29, 0
3, 18360, Note_on_c, 1, 33, 127
3, 18479, Note_on_c, 1, 33, 0
3, 18480, Note_on_c, 1, 29, 127
3, 18541, Note_on_c, 1, 29, 0
3, 18585, Note_on_c, 1, 29, 127
3, 18599, Note_on_c, 1, 29, 0
3, 18600, Note_on_c, 1, 33, 127
3, 18660, Note_on_c, 1, 36, 127
3, 18665, Note_on_c, 1, 33, 0
3, 18719, Note_on_c, 1, 36, 0
3, 18720, Note_on_c, 1, 29, 126
3, 18839, Note_on_c, 1, 29, 0
3, 18840, Note_on_c, 1, 33, 127
3, 18959, Note_on_c, 1, 33, 0
3, 18960, Note_on_c, 1, 29, 127
3, 19031, Note_on_c, 1, 29, 0
3, 19065, Note_on_c, 1, 29, 127
3, 19079, Note_on_c, 1, 29, 0
3, 19080, Note_on_c, 1, 33, 127
3, 19140, Note_on_c, 1, 36, 127
3, 19144, Note_on_c, 1, 33, 0
3, 19199, Note_on_c, 1, 36, 0
3, 19200, Note_on_c, 1, 29, 127
3, 19319, Note_on_c, 1, 29, 0
3, 19320, Note_on_c, 1, 33, 127
3, 19439, Note_on_c, 1, 33, 0
3, 19440, Note_on_c, 1, 29, 127
3, 19508, Note_on_c, 1, 29, 0
3, 19545, Note_on_c, 1, 29, 127
3, 19559, Note_on_c, 1, 29, 0
3, 19560, Note_on_c, 1, 33, 127
3, 19617, Note_on_c, 1, 33, 0
3, 19620, Note_on_c, 1, 36, 127
3, 19678, Note_on_c, 1, 36, 0
3, 19680, Note_on_c, 1, 34, 127
3, 19799, Note_on_c, 1, 34, 0
3, 19800, Note_on_c, 1, 38, 124
3, 19919, Note_on_c, 1, 38, 0
3, 19920, Note_on_c, 1, 34, 127
3, 19985, Note_on_c, 1, 34, 0
3, 20025, Note_on_c, 1, 34, 127
3, 20040, Note_on_c, 1, 38, 127
3, 20042, Note_on_c, 1, 34, 0
3, 20100, Note_on_c, 1, 41, 127
3, 20103, Note_on_c, 1, 38, 0
3, 20153, Note_on_c, 1, 41, 0
3, 20160, Note_on_c, 1, 29, 127
3, 20279, Note_on_c, 1, 29, 0
3, 20280, Note_on_c, 1, 33, 127
3, 20399, Note_on_c, 1, 33, 0
3, 20400, Note_on_c, 1, 29, 127
3, 20468, Note_on_c, 1, 29, 0
3, 20505, Note_on_c, 1, 29, 127
3, 20519, Note_on_c, 1, 29, 0
3, 20520, Note_on_c, 1, 33, 127
3, 20580, Note_on_c, 1, 36, 127
3, 20581, Note_on_c, 1, 33, 0
3, 20610, Note_on_c, 1, 36, 0
3, 20640, Note_on_c, 1, 36, 127
3, 20759, Note_on_c, 1, 36, 0
3, 20760, Note_on_c, 1, 43, 127
3, 20816, Note_on_c, 1, 43, 0
3, 20820, Note_on_c, 1, 36, 127
3, 20879, Note_on_c, 1, 36, 0
3, 20880, Note_on_c, 1, 34, 125
3, 20924, Note_on_c, 1, 34, 0
3, 21180, Note_on_c, 1, 41, 122
3, 21224, Note_on_c, 1, 41, 0
3, 21240, Note_on_c, 1, 36, 122
3, 21264, Note_on_c, 1, 36, 0
3, 21270, Note_on_c, 1, 41, 122
3, 21314, Note_on_c, 1, 41, 0
3, 21330, Note_on_c, 1, 36, 123
3, 21359, Note_on_c, 1, 36, 0
3, 21360, Note_on_c, 1, 41, 123
3, 21404, Note_on_c, 1, 41, 0
3, 21420, Note_on_c, 1, 36, 123
3, 21449, Note_on_c, 1, 36, 0
3, 21450, Note_on_c, 1, 41, 123
3, 21899, Note_on_c, 1, 41, 0
3, 21899, End_track
4, 0, Start_track
4, 0, MIDI_port, 0
4, 0, Title_t, ">>PIANO"
4, 0, Program_c, 2, 0
4, 0, Control_c, 2, 7, 100
4, 465, Note_on_c, 2, 53, 74
4, 470, Note_on_c, 2, 53, 0
4, 480, Note_on_c, 2, 55, 87
4, 480, Note_on_c, 2, 60, 91
4, 480, Note_on_c, 2, 64, 82
4, 491, Note_on_c, 2, 64, 0
4, 493, Note_on_c, 2, 60, 0
4, 497, Note_on_c, 2, 55, 0
4, 510, Note_on_c, 2, 55, 62
4, 510, Note_on_c, 2, 60, 68
4, 510, Note_on_c, 2, 64, 66
4, 521, Note_on_c, 2, 64, 0
4, 523, Note_on_c, 2, 60, 0
4, 524, Note_on_c, 2, 55, 0
4, 540, Note_on_c, 2, 60, 88
4, 540, Note_on_c, 2, 55, 76
4, 540, Note_on_c, 2, 64, 86
4, 553, Note_on_c, 2, 55, 0
4, 554, Note_on_c, 2, 64, 0
4, 555, Note_on_c, 2, 60, 0
4, 570, Note_on_c, 2, 55, 79
4, 570, Note_on_c, 2, 60, 91
4, 570, Note_on_c, 2, 64, 81
4, 580, Note_on_c, 2, 64, 0
4, 583, Note_on_c, 2, 55, 0
4, 584, Note_on_c, 2, 60, 0
4, 600, Note_on_c, 2, 55, 80
4, 600, Note_on_c, 2, 60, 97
4, 600, Note_on_c, 2, 64, 96
4, 611, Note_on_c, 2, 64, 0
4, 612, Note_on_c, 2, 55, 0
4, 613, Note_on_c, 2, 60, 0
4, 630, Note_on_c, 2, 55, 76
4, 630, Note_on_c, 2, 64, 92
4, 630, Note_on_c, 2, 60, 82
4, 640, Note_on_c, 2, 60, 0
4, 642, Note_on_c, 2, 55, 0
4, 643, Note_on_c, 2, 64, 0
4, 660, Note_on_c, 2, 64, 96
4, 660, Note_on_c, 2, 55, 84
4, 660, Note_on_c, 2, 60, 96
4, 670, Note_on_c, 2, 60, 0
4, 672, Note_on_c, 2, 55, 0
4, 672, Note_on_c, 2, 64, 0
4, 690, Note_on_c, 2, 55, 79
4, 690, Note_on_c, 2, 60, 87
4, 690, Note_on_c, 2, 64, 81
4, 699, Note_on_c, 2, 64, 0
4, 701, Note_on_c, 2, 60, 0
4, 705, Note_on_c, 2, 55, 0
4, 705, Note_on_c, 2, 52, 79
4, 720, Note_on_c, 2, 52, 0
4, 720, Note_on_c, 2, 53, 101
4, 720, Note_on_c, 2, 58, 108
4, 720, Note_on_c, 2, 62, 103
4, 728, Note_on_c, 2, 58, 0
4, 734, Note_on_c, 2, 62, 0
4, 735, Note_on_c, 2, 53, 0
4, 750, Note_on_c, 2, 53, 66
4, 750, Note_on_c, 2, 58, 79
4, 750, Note_on_c, 2, 62, 74
4, 760, Note_on_c, 2, 58, 0
4, 762, Note_on_c, 2, 62, 0
4, 762, Note_on_c, 2, 53, 0
4, 780, Note_on_c, 2, 58, 89
4, 780, Note_on_c, 2, 62, 75
4, 780, Note_on_c, 2, 53, 77
4, 792, Note_on_c, 2, 58, 0
4, 793, Note_on_c, 2, 53, 0
4, 796, Note_on_c, 2, 62, 0
4, 810, Note_on_c, 2, 62, 80
4, 810, Note_on_c, 2, 53, 79
4, 810, Note_on_c, 2, 58, 85
4, 821, Note_on_c, 2, 58, 0
4, 824, Note_on_c, 2, 53, 0
4, 827, Note_on_c, 2, 62, 0
4, 840, Note_on_c, 2, 58, 85
4, 840, Note_on_c, 2, 62, 79
4, 840, Note_on_c, 2, 53, 76
4, 852, Note_on_c, 2, 53, 0
4, 852, Note_on_c, 2, 58, 0
4, 856, Note_on_c, 2, 62, 0
4, 870, Note_on_c, 2, 62, 80
4, 870, Note_on_c, 2, 53, 74
4, 870, Note_on_c, 2, 58, 87
4, 880, Note_on_c, 2, 58, 0
4, 881, Note_on_c, 2, 53, 0
4, 887, Note_on_c, 2, 62, 0
4, 900, Note_on_c, 2, 62, 74
4, 900, Note_on_c, 2, 58, 87
4, 900, Note_on_c, 2, 53, 66
4, 913, Note_on_c, 2, 53, 0
4, 914, Note_on_c, 2, 62, 0
4, 918, Note_on_c, 2, 58, 0
4, 930, Note_on_c, 2, 62, 74
4, 930, Note_on_c, 2, 58, 61
4, 930, Note_on_c, 2, 53, 69
4, 944, Note_on_c, 2, 62, 0
4, 945, Note_on_c, 2, 58, 0
4, 945, Note_on_c, 2, 48, 105
4, 946, Note_on_c, 2, 53, 0
4, 959, Note_on_c, 2, 48, 0
4, 960, Note_on_c, 2, 57, 110
4, 960, Note_on_c, 2, 53, 103
4, 960, Note_on_c, 2, 60, 94
4, 968, Note_on_c, 2, 53, 0
4, 969, Note_on_c, 2, 60, 0
4, 974, Note_on_c, 2, 57, 0
4, 990, Note_on_c, 2, 57, 74
4, 990, Note_on_c, 2, 60, 77
4, 990, Note_on_c, 2, 53, 77
4, 1002, Note_on_c, 2, 53, 0
4, 1003, Note_on_c, 2, 60, 0
4, 1007, Note_on_c, 2, 57, 0
4, 1020, Note_on_c, 2, 57, 87
4, 1020, Note_on_c, 2, 53, 83
4, 1020, Note_on_c, 2, 62, 101
4, 1033, Note_on_c, 2, 53, 0
4, 1036, Note_on_c, 2, 57, 0
4, 1037, Note_on_c, 2, 62, 0
4, 1050, Note_on_c, 2, 62, 77
4, 1050, Note_on_c, 2, 53, 73
4, 1050, Note_on_c, 2, 57, 75
4, 1062, Note_on_c, 2, 57, 0
4, 1062, Note_on_c, 2, 53, 0
4, 1065, Note_on_c, 2, 62, 0
4, 1080, Note_on_c, 2, 57, 97
4, 1080, Note_on_c, 2, 53, 80
4, 1080, Note_on_c, 2, 60, 97
4, 1092, Note_on_c, 2, 53, 0
4, 1094, Note_on_c, 2, 60, 0
4, 1095, Note_on_c, 2, 57, 0
4, 1110, Note_on_c, 2, 57, 78
4, 1110, Note_on_c, 2, 53, 61
4, 1110, Note_on_c, 2, 60, 88
4, 1118, Note_on_c, 2, 60, 0
4, 1119, Note_on_c, 2, 53, 0
4, 1122, Note_on_c, 2, 57, 0
4, 1140, Note_on_c, 2, 62, 74
4, 1140, Note_on_c, 2, 53, 68
4, 1140, Note_on_c, 2, 57, 82
4, 1145, Note_on_c, 2, 62, 0
4, 1148, Note_on_c, 2, 57, 0
4, 1151, Note_on_c, 2, 53, 0
4, 1170, Note_on_c, 2, 62, 80
4, 1170, Note_on_c, 2, 57, 74
4, 1170, Note_on_c, 2, 53, 74
4, 1175, Note_on_c, 2, 53, 0
4, 1175, Note_on_c, 2, 57, 0
4, 1184, Note_on_c, 2, 62, 0
4, 1185, Note_on_c, 2, 48, 107
4, 1197, Note_on_c, 2, 48, 0
4, 1200, Note_on_c, 2, 57, 118
4, 1200, Note_on_c, 2, 53, 105
4, 1200, Note_on_c, 2, 60, 110
4, 1215, Note_on_c, 2, 60, 0
4, 1217, Note_on_c, 2, 53, 0
4, 1219, Note_on_c, 2, 57, 0
4, 1230, Note_on_c, 2, 57, 74
4, 1230, Note_on_c, 2, 60, 80
4, 1230, Note_on_c, 2, 53, 68
4, 1242, Note_on_c, 2, 53, 0
4, 1243, Note_on_c, 2, 60, 0
4, 1246, Note_on_c, 2, 57, 0
4, 1260, Note_on_c, 2, 62, 99
4, 1260, Note_on_c, 2, 53, 79
4, 1260, Note_on_c, 2, 57, 86
4, 1270, Note_on_c, 2, 57, 0
4, 1275, Note_on_c, 2, 53, 0
4, 1281, Note_on_c, 2, 62, 0
4, 1290, Note_on_c, 2, 53, 79
4, 1290, Note_on_c, 2, 62, 94
4, 1290, Note_on_c, 2, 57, 68
4, 1297, Note_on_c, 2, 57, 0
4, 1304, Note_on_c, 2, 53, 0
4, 1305, Note_on_c, 2, 62, 0
4, 1320, Note_on_c, 2, 53, 82
4, 1320, Note_on_c, 2, 57, 87
4, 1320, Note_on_c, 2, 60, 99
4, 1332, Note_on_c, 2, 60, 0
4, 1333, Note_on_c, 2, 57, 0
4, 1335, Note_on_c, 2, 53, 0
4, 1350, Note_on_c, 2, 57, 77
4, 1350, Note_on_c, 2, 60, 92
4, 1350, Note_on_c, 2, 53, 68
4, 1362, Note_on_c, 2, 53, 0
4, 1363, Note_on_c, 2, 60, 0
4, 1364, Note_on_c, 2, 57, 0
4, 1380, Note_on_c, 2, 62, 99
4, 1380, Note_on_c, 2, 53, 78
4, 1380, Note_on_c, 2, 57, 91
4, 1387, Note_on_c, 2, 57, 0
4, 1388, Note_on_c, 2, 53, 0
4, 1396, Note_on_c, 2, 62, 0
4, 1410, Note_on_c, 2, 53, 74
4, 1410, Note_on_c, 2, 57, 74
4, 1410, Note_on_c, 2, 62, 74
4, 1415, Note_on_c, 2, 62, 0
4, 1415, Note_on_c, 2, 57, 0
4, 1415, Note_on_c, 2, 53, 0
4, 1439, Note_on_c, 2, 53, 79
4, 1439, Note_on_c, 2, 57, 77
4, 1440, Note_on_c, 2, 60, 91
4, 1451, Note_on_c, 2, 60, 0
4, 1454, Note_on_c, 2, 53, 0
4, 1455, Note_on_c, 2, 57, 0
4, 1470, Note_on_c, 2, 53, 84
4, 1470, Note_on_c, 2, 57, 84
4, 1470, Note_on_c, 2, 60, 84
4, 1480, Note_on_c, 2, 60, 0
4, 1482, Note_on_c, 2, 57, 0
4, 1482, Note_on_c, 2, 53, 0
4, 1500, Note_on_c, 2, 53, 89
4, 1500, Note_on_c, 2, 57, 89
4, 1500, Note_on_c, 2, 60, 89
4, 1513, Note_on_c, 2, 60, 0
4, 1514, Note_on_c, 2, 57, 0
4, 1514, Note_on_c, 2, 53, 0
4, 1530, Note_on_c, 2, 53, 79
4, 1530, Note_on_c, 2, 57, 79
4, 1530, Note_on_c, 2, 60, 79
4, 1541, Note_on_c, 2, 60, 0
4, 1543, Note_on_c, 2, 53, 0
4, 1544, Note_on_c, 2, 57, 0
4, 1560, Note_on_c, 2, 57, 89
4, 1560, Note_on_c, 2, 53, 89
4, 1560, Note_on_c, 2, 60, 89
4, 1571, Note_on_c, 2, 60, 0
4, 1573, Note_on_c, 2, 53, 0
4, 1576, Note_on_c, 2, 57, 0
4, 1590, Note_on_c, 2, 53, 77
4, 1590, Note_on_c, 2, 57, 77
4, 1590, Note_on_c, 2, 60, 77
4, 1600, Note_on_c, 2, 60, 0
4, 1604, Note_on_c, 2, 57, 0
4, 1604, Note_on_c, 2, 53, 0
4, 1620, Note_on_c, 2, 57, 89
4, 1620, Note_on_c, 2, 53, 89
4, 1620, Note_on_c, 2, 60, 89
4, 1632, Note_on_c, 2, 60, 0
4, 1633, Note_on_c, 2, 53, 0
4, 1636, Note_on_c, 2, 57, 0
4, 1650, Note_on_c, 2, 53, 77
4, 1650, Note_on_c, 2, 57, 77
4, 1650, Note_on_c, 2, 60, 77
4, 1660, Note_on_c, 2, 60, 0
4, 1664, Note_on_c, 2, 57, 0
4, 1664, Note_on_c, 2, 53, 0
4, 1680, Note_on_c, 2, 53, 90
4, 1680, Note_on_c, 2, 57, 90
4, 1680, Note_on_c, 2, 60, 90
4, 1690, Note_on_c, 2, 60, 0
4, 1692, Note_on_c, 2, 57, 0
4, 1693, Note_on_c, 2, 53, 0
4, 1710, Note_on_c, 2, 53, 79
4, 1710, Note_on_c, 2, 57, 79
4, 1710, Note_on_c, 2, 60, 79
4, 1720, Note_on_c, 2, 60, 0
4, 1720, Note_on_c, 2, 57, 0
4, 1724, Note_on_c, 2, 53, 0
4, 1740, Note_on_c, 2, 53, 91
4, 1740, Note_on_c, 2, 57, 91
4, 1740, Note_on_c, 2, 60, 91
4, 1752, Note_on_c, 2, 60, 0
4, 1753, Note_on_c, 2, 57, 0
4, 1755, Note_on_c, 2, 53, 0
4, 1770, Note_on_c, 2, 53, 80
4, 1770, Note_on_c, 2, 60, 80
4, 1770, Note_on_c, 2, 57, 80
4, 1780, Note_on_c, 2, 57, 0
4, 1782, Note_on_c, 2, 60, 0
4, 1783, Note_on_c, 2, 53, 0
4, 1800, Note_on_c, 2, 53, 91
4, 1800, Note_on_c, 2, 57, 91
4, 1800, Note_on_c, 2, 60, 91
4, 1802, Note_on_c, 2, 60, 0
4, 1812, Note_on_c, 2, 57, 0
4, 1814, Note_on_c, 2, 53, 0
4, 1830, Note_on_c, 2, 53, 77
4, 1830, Note_on_c, 2, 60, 77
4, 1830, Note_on_c, 2, 57, 77
4, 1840, Note_on_c, 2, 57, 0
4, 1841, Note_on_c, 2, 60, 0
4, 1844, Note_on_c, 2, 53, 0
4, 1860, Note_on_c, 2, 53, 91
4, 1860, Note_on_c, 2, 57, 91
4, 1860, Note_on_c, 2, 60, 91
4, 1871, Note_on_c, 2, 60, 0
4, 1873, Note_on_c, 2, 57, 0
4, 1874, Note_on_c, 2, 53, 0
4, 1890, Note_on_c, 2, 53, 78
4, 1890, Note_on_c, 2, 57, 78
4, 1890, Note_on_c, 2, 60, 78
4, 1899, Note_on_c, 2, 60, 0
4, 1902, Note_on_c, 2, 57, 0
4, 1902, Note_on_c, 2, 53, 0
4, 1905, Note_on_c, 2, 48, 110
4, 1919, Note_on_c, 2, 48, 0
4, 1920, Note_on_c, 2, 53, 91
4, 1920, Note_on_c, 2, 57, 91
4, 1920, Note_on_c, 2, 60, 91
4, 1934, Note_on_c, 2, 60, 0
4, 1936, Note_on_c, 2, 57, 0
4, 1936, Note_on_c, 2, 53, 0
4, 1950, Note_on_c, 2, 53, 76
4, 1950, Note_on_c, 2, 57, 76
4, 1950, Note_on_c, 2, 60, 76
4, 1962, Note_on_c, 2, 60, 0
4, 1962, Note_on_c, 2, 57, 0
4, 1962, Note_on_c, 2, 53, 0
4, 1980, Note_on_c, 2, 53, 91
4, 1980, Note_on_c, 2, 57, 91
4, 1980, Note_on_c, 2, 60, 91
4, 1991, Note_on_c, 2, 60, 0
4, 1994, Note_on_c, 2, 57, 0
4, 1995, Note_on_c, 2, 53, 0
4, 2010, Note_on_c, 2, 60, 77
4, 2010, Note_on_c, 2, 53, 77
4, 2010, Note_on_c, 2, 57, 77
4, 2022, Note_on_c, 2, 57, 0
4, 2022, Note_on_c, 2, 53, 0
4, 2024, Note_on_c, 2, 60, 0
4, 2040, Note_on_c, 2, 53, 91
4, 2040, Note_on_c, 2, 57, 91
4, 2040, Note_on_c, 2, 60, 91
4, 2052, Note_on_c, 2, 60, 0
4, 2052, Note_on_c, 2, 57, 0
4, 2052, Note_on_c, 2, 53, 0
4, 2070, Note_on_c, 2, 53, 80
4, 2070, Note_on_c, 2, 57, 80
4, 2070, Note_on_c, 2, 60, 80
4, 2082, Note_on_c, 2, 60, 0
4, 2082, Note_on_c, 2, 57, 0
4, 2082, Note_on_c, 2, 53, 0
4, 2100, Note_on_c, 2, 53, 91
4, 2100, Note_on_c, 2, 57, 91
4, 2100, Note_on_c, 2, 60, 91
4, 2112, Note_on_c, 2, 60, 0
4, 2112, Note_on_c, 2, 57, 0
4, 2113, Note_on_c, 2, 53, 0
4, 2130, Note_on_c, 2, 53, 79
4, 2130, Note_on_c, 2, 57, 79
4, 2130, Note_on_c, 2, 60, 79
4, 2141, Note_on_c, 2, 60, 0
4, 2141, Note_on_c, 2, 57, 0
4, 2144, Note_on_c, 2, 53, 0
4, 2145, Note_on_c, 2, 48, 110
4, 2159, Note_on_c, 2, 48, 0
4, 2160, Note_on_c, 2, 57, 91
4, 2160, Note_on_c, 2, 60, 91
4, 2160, Note_on_c, 2, 53, 91
4, 2172, Note_on_c, 2, 53, 0
4, 2174, Note_on_c, 2, 60, 0
4, 2174, Note_on_c, 2, 57, 0
4, 2190, Note_on_c, 2, 53, 78
4, 2190, Note_on_c, 2, 60, 78
4, 2190, Note_on_c, 2, 57, 78
4, 2202, Note_on_c, 2, 57, 0
4, 2204, Note_on_c, 2, 60, 0
4, 2206, Note_on_c, 2, 53, 0
4, 2220, Note_on_c, 2, 53, 91
4, 2220, Note_on_c, 2, 60, 91
4, 2220, Note_on_c, 2, 57, 91
4, 2232, Note_on_c, 2, 57, 0
4, 2234, Note_on_c, 2, 60, 0
4, 2235, Note_on_c, 2, 53, 0
4, 2250, Note_on_c, 2, 53, 78
4, 2250, Note_on_c, 2, 57, 78
4, 2250, Note_on_c, 2, 60, 78
4, 2262, Note_on_c, 2, 60, 0
4, 2262, Note_on_c, 2, 57, 0
4, 2262, Note_on_c, 2, 53, 0
4, 2280, Note_on_c, 2, 60, 92
4, 2280, Note_on_c, 2, 53, 92
4, 2280, Note_on_c, 2, 57, 92
4, 2292, Note_on_c, 2, 57, 0
4, 2292, Note_on_c, 2, 53, 0
4, 2296, Note_on_c, 2, 60, 0
4, 2310, Note_on_c, 2, 53, 92
4, 2310, Note_on_c, 2, 57, 92
4, 2310, Note_on_c, 2, 60, 92
4, 2322, Note_on_c, 2, 60, 0
4, 2322, Note_on_c, 2, 57, 0
4, 2322, Note_on_c, 2, 53, 0
4, 2340, Note_on_c, 2, 53, 80
4, 2340, Note_on_c, 2, 60, 80
4, 2340, Note_on_c, 2, 57, 80
4, 2352, Note_on_c, 2, 60, 0
4, 2353, Note_on_c, 2, 57, 0
4, 2353, Note_on_c, 2, 53, 0
4, 2370, Note_on_c, 2, 53, 92
4, 2370, Note_on_c, 2, 57, 92
4, 2370, Note_on_c, 2, 60, 92
4, 2377, Note_on_c, 2, 60, 0
4, 2381, Note_on_c, 2, 57, 0
4, 2384, Note_on_c, 2, 53, 0
4, 2400, Note_on_c, 2, 53, 80
4, 2400, Note_on_c, 2, 62, 80
4, 2400, Note_on_c, 2, 58, 80
4, 2403, Note_on_c, 2, 58, 0
4, 2412, Note_on_c, 2, 62, 0
4, 2415, Note_on_c, 2, 53, 0
4, 2430, Note_on_c, 2, 62, 92
4, 2430, Note_on_c, 2, 53, 92
4, 2430, Note_on_c, 2, 58, 92
4, 2442, Note_on_c, 2, 53, 0
4, 2443, Note_on_c, 2, 62, 0
4, 2444, Note_on_c, 2, 58, 0
4, 2460, Note_on_c, 2, 53, 78
4, 2460, Note_on_c, 2, 58, 78
4, 2460, Note_on_c, 2, 62, 78
4, 2472, Note_on_c, 2, 62, 0
4, 2472, Note_on_c, 2, 58, 0
4, 2475, Note_on_c, 2, 53, 0
4, 2490, Note_on_c, 2, 53, 92
4, 2490, Note_on_c, 2, 58, 92
4, 2490, Note_on_c, 2, 62, 92
4, 2502, Note_on_c, 2, 58, 0
4, 2503, Note_on_c, 2, 62, 0
4, 2503, Note_on_c, 2, 53, 0
4, 2520, Note_on_c, 2, 53, 80
4, 2520, Note_on_c, 2, 58, 80
4, 2520, Note_on_c, 2, 62, 80
4, 2532, Note_on_c, 2, 58, 0
4, 2534, Note_on_c, 2, 62, 0
4, 2536, Note_on_c, 2, 53, 0
4, 2550, Note_on_c, 2, 53, 92
4, 2550, Note_on_c, 2, 62, 92
4, 2550, Note_on_c, 2, 58, 92
4, 2560, Note_on_c, 2, 58, 0
4, 2564, Note_on_c, 2, 62, 0
4, 2564, Note_on_c, 2, 53, 0
4, 2580, Note_on_c, 2, 53, 82
4, 2580, Note_on_c, 2, 58, 82
4, 2580, Note_on_c, 2, 62, 82
4, 2590, Note_on_c, 2, 58, 0
4, 2593, Note_on_c, 2, 62, 0
4, 2594, Note_on_c, 2, 53, 0
4, 2610, Note_on_c, 2, 53, 97
4, 2610, Note_on_c, 2, 62, 97
4, 2610, Note_on_c, 2, 58, 97
4, 2619, Note_on_c, 2, 58, 0
4, 2623, Note_on_c, 2, 53, 0
4, 2624, Note_on_c, 2, 62, 0
4, 2640, Note_on_c, 2, 53, 82
4, 2640, Note_on_c, 2, 62, 82
4, 2640, Note_on_c, 2, 58, 82
4, 2650, Note_on_c, 2, 58, 0
4, 2655, Note_on_c, 2, 53, 0
4, 2656, Note_on_c, 2, 62, 0
4, 2670, Note_on_c, 2, 53, 97
4, 2670, Note_on_c, 2, 62, 97
4, 2670, Note_on_c, 2, 58, 97
4, 2680, Note_on_c, 2, 58, 0
4, 2685, Note_on_c, 2, 62, 0
4, 2685, Note_on_c, 2, 53, 0
4, 2700, Note_on_c, 2, 53, 83
4, 2700, Note_on_c, 2, 62, 83
4, 2700, Note_on_c, 2, 58, 83
4, 2710, Note_on_c, 2, 58, 0
4, 2715, Note_on_c, 2, 62, 0
4, 2715, Note_on_c, 2, 53, 0
4, 2730, Note_on_c, 2, 53, 97
4, 2730, Note_on_c, 2, 58, 97
4, 2730, Note_on_c, 2, 62, 97
4, 2741, Note_on_c, 2, 58, 0
4, 2744, Note_on_c, 2, 53, 0
4, 2745, Note_on_c, 2, 62, 0
4, 2760, Note_on_c, 2, 53, 78
4, 2760, Note_on_c, 2, 58, 78
4, 2760, Note_on_c, 2, 62, 78
4, 2773, Note_on_c, 2, 58, 0
4, 2775, Note_on_c, 2, 62, 0
4, 2775, Note_on_c, 2, 53, 0
4, 2790, Note_on_c, 2, 53, 97
4, 2790, Note_on_c, 2, 58, 97
4, 2790, Note_on_c, 2, 62, 97
4, 2802, Note_on_c, 2, 58, 0
4, 2804, Note_on_c, 2, 53, 0
4, 2805, Note_on_c, 2, 62, 0
4, 2820, Note_on_c, 2, 62, 80
4, 2820, Note_on_c, 2, 53, 80
4, 2820, Note_on_c, 2, 58, 80
4, 2831, Note_on_c, 2, 58, 0
4, 2833, Note_on_c, 2, 53, 0
4, 2839, Note_on_c, 2, 62, 0
4, 2850, Note_on_c, 2, 62, 97
4, 2850, Note_on_c, 2, 53, 97
4, 2850, Note_on_c, 2, 58, 97
4, 2861, Note_on_c, 2, 58, 0
4, 2863, Note_on_c, 2, 53, 0
4, 2865, Note_on_c, 2, 48, 110
4, 2867, Note_on_c, 2, 62, 0
4, 2879, Note_on_c, 2, 48, 0
4, 2880, Note_on_c, 2, 53, 79
4, 2880, Note_on_c, 2, 57, 79
4, 2880, Note_on_c, 2, 60, 79
4, 2885, Note_on_c, 2, 60, 0
4, 2890, Note_on_c, 2, 57, 0
4, 2891, Note_on_c, 2, 53, 0
4, 2910, Note_on_c, 2, 53, 97
4, 2910, Note_on_c, 2, 57, 97
4, 2910, Note_on_c, 2, 60, 97
4, 2919, Note_on_c, 2, 60, 0
4, 2922, Note_on_c, 2, 57, 0
4, 2922, Note_on_c, 2, 53, 0
4, 2940, Note_on_c, 2, 53, 82
4, 2940, Note_on_c, 2, 57, 82
4, 2940, Note_on_c, 2, 60, 82
4, 2950, Note_on_c, 2, 60, 0
4, 2954, Note_on_c, 2, 57, 0
4, 2954, Note_on_c, 2, 53, 0
4, 2970, Note_on_c, 2, 57, 97
4, 2970, Note_on_c, 2, 53, 97
4, 2970, Note_on_c, 2, 60, 97
4, 2980, Note_on_c, 2, 60, 0
4, 2980, Note_on_c, 2, 53, 0
4, 2983, Note_on_c, 2, 57, 0
4, 3000, Note_on_c, 2, 53, 80
4, 3000, Note_on_c, 2, 57, 80
4, 3000, Note_on_c, 2, 60, 80
4, 3012, Note_on_c, 2, 60, 0
4, 3013, Note_on_c, 2, 53, 0
4, 3014, Note_on_c, 2, 57, 0
4, 3030, Note_on_c, 2, 53, 97
4, 3030, Note_on_c, 2, 57, 97
4, 3030, Note_on_c, 2, 60, 97
4, 3040, Note_on_c, 2, 60, 0
4, 3042, Note_on_c, 2, 57, 0
4, 3042, Note_on_c, 2, 53, 0
4, 3060, Note_on_c, 2, 53, 81
4, 3060, Note_on_c, 2, 57, 81
4, 3060, Note_on_c, 2, 60, 81
4, 3070, Note_on_c, 2, 60, 0
4, 3073, Note_on_c, 2, 53, 0
4, 3074, Note_on_c, 2, 57, 0
4, 3090, Note_on_c, 2, 53, 97
4, 3090, Note_on_c, 2, 57, 97
4, 3090, Note_on_c, 2, 60, 97
4, 3101, Note_on_c, 2, 60, 0
4, 3103, Note_on_c, 2, 53, 0
4, 3104, Note_on_c, 2, 57, 0
4, 3105, Note_on_c, 2, 48, 110
4, 3119, Note_on_c, 2, 48, 0
4, 3120, Note_on_c, 2, 57, 79
4, 3120, Note_on_c, 2, 53, 79
4, 3120, Note_on_c, 2, 60, 79
4, 3130, Note_on_c, 2, 53, 0
4, 3131, Note_on_c, 2, 60, 0
4, 3134, Note_on_c, 2, 57, 0
4, 3150, Note_on_c, 2, 57, 97
4, 3150, Note_on_c, 2, 53, 97
4, 3150, Note_on_c, 2, 60, 97
4, 3158, Note_on_c, 2, 60, 0
4, 3160, Note_on_c, 2, 53, 0
4, 3162, Note_on_c, 2, 57, 0
4, 3180, Note_on_c, 2, 57, 80
4, 3180, Note_on_c, 2, 53, 80
4, 3180, Note_on_c, 2, 60, 80
4, 3190, Note_on_c, 2, 60, 0
4, 3190, Note_on_c, 2, 53, 0
4, 3195, Note_on_c, 2, 57, 0
4, 3210, Note_on_c, 2, 53, 97
4, 3210, Note_on_c, 2, 57, 97
4, 3210, Note_on_c, 2, 60, 97
4, 3224, Note_on_c, 2, 60, 0
4, 3224, Note_on_c, 2, 57, 0
4, 3224, Note_on_c, 2, 53, 0
4, 3240, Note_on_c, 2, 57, 80
4, 3240, Note_on_c, 2, 53, 80
4, 3240, Note_on_c, 2, 60, 80
4, 3250, Note_on_c, 2, 60, 0
4, 3250, Note_on_c, 2, 53, 0
4, 3254, Note_on_c, 2, 57, 0
4, 3270, Note_on_c, 2, 53, 97
4, 3270, Note_on_c, 2, 57, 97
4, 3270, Note_on_c, 2, 60, 97
4, 3279, Note_on_c, 2, 60, 0
4, 3281, Note_on_c, 2, 53, 0
4, 3282, Note_on_c, 2, 57, 0
4, 3300, Note_on_c, 2, 53, 81
4, 3300, Note_on_c, 2, 57, 81
4, 3300, Note_on_c, 2, 60, 81
4, 3309, Note_on_c, 2, 60, 0
4, 3312, Note_on_c, 2, 57, 0
4, 3312, Note_on_c, 2, 53, 0
4, 3330, Note_on_c, 2, 57, 95
4, 3330, Note_on_c, 2, 53, 95
4, 3330, Note_on_c, 2, 60, 95
4, 3338, Note_on_c, 2, 60, 0
4, 3339, Note_on_c, 2, 53, 0
4, 3344, Note_on_c, 2, 57, 0
4, 3360, Note_on_c, 2, 55, 81
4, 3360, Note_on_c, 2, 60, 81
4, 3360, Note_on_c, 2, 64, 81
4, 3368, Note_on_c, 2, 64, 0
4, 3371, Note_on_c, 2, 60, 0
4, 3371, Note_on_c, 2, 55, 0
4, 3390, Note_on_c, 2, 55, 97
4, 3390, Note_on_c, 2, 64, 97
4, 3390, Note_on_c, 2, 60, 97
4, 3403, Note_on_c, 2, 60, 0
4, 3403, Note_on_c, 2, 55, 0
4, 3404, Note_on_c, 2, 64, 0
4, 3420, Note_on_c, 2, 55, 83
4, 3420, Note_on_c, 2, 60, 83
4, 3420, Note_on_c, 2, 64, 83
4, 3430, Note_on_c, 2, 64, 0
4, 3431, Note_on_c, 2, 60, 0
4, 3435, Note_on_c, 2, 55, 0
4, 3450, Note_on_c, 2, 55, 97
4, 3450, Note_on_c, 2, 60, 97
4, 3450, Note_on_c, 2, 64, 97
4, 3463, Note_on_c, 2, 55, 0
4, 3464, Note_on_c, 2, 64, 0
4, 3464, Note_on_c, 2, 60, 0
4, 3480, Note_on_c, 2, 60, 83
4, 3480, Note_on_c, 2, 64, 83
4, 3480, Note_on_c, 2, 55, 83
4, 3492, Note_on_c, 2, 55, 0
4, 3493, Note_on_c, 2, 64, 0
4, 3494, Note_on_c, 2, 60, 0
4, 3510, Note_on_c, 2, 55, 97
4, 3510, Note_on_c, 2, 60, 97
4, 3510, Note_on_c, 2, 64, 97
4, 3523, Note_on_c, 2, 55, 0
4, 3524, Note_on_c, 2, 60, 0
4, 3525, Note_on_c, 2, 64, 0
4, 3540, Note_on_c, 2, 55, 84
4, 3540, Note_on_c, 2, 60, 84
4, 3540, Note_on_c, 2, 64, 84
4, 3552, Note_on_c, 2, 60, 0
4, 3552, Note_on_c, 2, 55, 0
4, 3553, Note_on_c, 2, 64, 0
4, 3570, Note_on_c, 2, 60, 97
4, 3570, Note_on_c, 2, 55, 97
4, 3570, Note_on_c, 2, 64, 97
4, 3584, Note_on_c, 2, 64, 0
4, 3584, Note_on_c, 2, 55, 0
4, 3585, Note_on_c, 2, 60, 0
4, 3600, Note_on_c, 2, 58, 127
4, 3600, Note_on_c, 2, 53, 127
4, 3600, Note_on_c, 2, 62, 127
4, 3609, Note_on_c, 2, 62, 0
4, 3612, Note_on_c, 2, 58, 0
4, 3614, Note_on_c, 2, 53, 0
4, 3870, Note_on_c, 2, 57, 82
4, 3870, Note_on_c, 2, 53, 82
4, 3870, Note_on_c, 2, 60, 82
4, 3880, Note_on_c, 2, 60, 0
4, 3882, Note_on_c, 2, 53, 0
4, 3882, Note_on_c, 2, 57, 0
4, 3900, Note_on_c, 2, 53, 91
4, 3900, Note_on_c, 2, 57, 91
4, 3900, Note_on_c, 2, 60, 91
4, 3913, Note_on_c, 2, 60, 0
4, 3914, Note_on_c, 2, 57, 0
4, 3916, Note_on_c, 2, 53, 0
4, 3930, Note_on_c, 2, 53, 83
4, 3930, Note_on_c, 2, 57, 83
4, 3930, Note_on_c, 2, 60, 83
4, 3941, Note_on_c, 2, 60, 0
4, 3942, Note_on_c, 2, 57, 0
4, 3942, Note_on_c, 2, 53, 0
4, 3960, Note_on_c, 2, 57, 92
4, 3960, Note_on_c, 2, 53, 92
4, 3960, Note_on_c, 2, 60, 92
4, 3969, Note_on_c, 2, 60, 0
4, 3972, Note_on_c, 2, 53, 0
4, 3974, Note_on_c, 2, 57, 0
4, 3990, Note_on_c, 2, 57, 80
4, 3990, Note_on_c, 2, 53, 80
4, 3990, Note_on_c, 2, 60, 80
4, 4002, Note_on_c, 2, 53, 0
4, 4003, Note_on_c, 2, 60, 0
4, 4004, Note_on_c, 2, 57, 0
4, 4020, Note_on_c, 2, 53, 94
4, 4020, Note_on_c, 2, 57, 94
4, 4020, Note_on_c, 2, 60, 94
4, 4031, Note_on_c, 2, 60, 0
4, 4033, Note_on_c, 2, 57, 0
4, 4033, Note_on_c, 2, 53, 0
4, 4050, Note_on_c, 2, 53, 82
4, 4050, Note_on_c, 2, 57, 82
4, 4050, Note_on_c, 2, 60, 82
4, 4062, Note_on_c, 2, 60, 0
4, 4063, Note_on_c, 2, 53, 0
4, 4064, Note_on_c, 2, 57, 0
4, 4080, Note_on_c, 2, 53, 94
4, 4080, Note_on_c, 2, 57, 94
4, 4080, Note_on_c, 2, 60, 94
4, 4094, Note_on_c, 2, 60, 0
4, 4094, Note_on_c, 2, 57, 0
4, 4094, Note_on_c, 2, 53, 0
4, 4110, Note_on_c, 2, 53, 80
4, 4110, Note_on_c, 2, 57, 80
4, 4110, Note_on_c, 2, 60, 80
4, 4122, Note_on_c, 2, 60, 0
4, 4122, Note_on_c, 2, 53, 0
4, 4123, Note_on_c, 2, 57, 0
4, 4140, Note_on_c, 2, 57, 95
4, 4140, Note_on_c, 2, 60, 95
4, 4140, Note_on_c, 2, 53, 95
4, 4151, Note_on_c, 2, 53, 0
4, 4154, Note_on_c, 2, 60, 0
4, 4156, Note_on_c, 2, 57, 0
4, 4170, Note_on_c, 2, 57, 83
4, 4170, Note_on_c, 2, 60, 83
4, 4170, Note_on_c, 2, 53, 83
4, 4182, Note_on_c, 2, 53, 0
4, 4183, Note_on_c, 2, 57, 0
4, 4184, Note_on_c, 2, 60, 0
4, 4200, Note_on_c, 2, 53, 72
4, 4200, Note_on_c, 2, 57, 76
4, 4200, Note_on_c, 2, 60, 94
4, 4213, Note_on_c, 2, 60, 0
4, 4214, Note_on_c, 2, 57, 0
4, 4214, Note_on_c, 2, 53, 0
4, 4230, Note_on_c, 2, 53, 80
4, 4230, Note_on_c, 2, 57, 80
4, 4230, Note_on_c, 2, 60, 80
4, 4242, Note_on_c, 2, 57, 0
4, 4243, Note_on_c, 2, 53, 0
4, 4244, Note_on_c, 2, 60, 0
4, 4260, Note_on_c, 2, 53, 74
4, 4260, Note_on_c, 2, 57, 86
4, 4260, Note_on_c, 2, 60, 96
4, 4272, Note_on_c, 2, 60, 0
4, 4272, Note_on_c, 2, 57, 0
4, 4272, Note_on_c, 2, 53, 0
4, 4290, Note_on_c, 2, 53, 81
4, 4290, Note_on_c, 2, 57, 81
4, 4290, Note_on_c, 2, 60, 81
4, 4300, Note_on_c, 2, 57, 0
4, 4301, Note_on_c, 2, 60, 0
4, 4301, Note_on_c, 2, 53, 0
4, 4320, Note_on_c, 2, 53, 84
4, 4320, Note_on_c, 2, 57, 84
4, 4320, Note_on_c, 2, 60, 91
4, 4331, Note_on_c, 2, 60, 0
4, 4332, Note_on_c, 2, 53, 0
4, 4334, Note_on_c, 2, 57, 0
4, 4350, Note_on_c, 2, 53, 84
4, 4350, Note_on_c, 2, 57, 84
4, 4350, Note_on_c, 2, 60, 84
4, 4360, Note_on_c, 2, 60, 0
4, 4362, Note_on_c, 2, 53, 0
4, 4364, Note_on_c, 2, 57, 0
4, 4380, Note_on_c, 2, 53, 89
4, 4380, Note_on_c, 2, 57, 89
4, 4380, Note_on_c, 2, 60, 89
4, 4393, Note_on_c, 2, 60, 0
4, 4394, Note_on_c, 2, 57, 0
4, 4394, Note_on_c, 2, 53, 0
4, 4410, Note_on_c, 2, 53, 79
4, 4410, Note_on_c, 2, 57, 79
4, 4410, Note_on_c, 2, 60, 79
4, 4421, Note_on_c, 2, 60, 0
4, 4423, Note_on_c, 2, 53, 0
4, 4424, Note_on_c, 2, 57, 0
4, 4440, Note_on_c, 2, 57, 89
4, 4440, Note_on_c, 2, 53, 89
4, 4440, Note_on_c, 2, 60, 89
4, 4451, Note_on_c, 2, 60, 0
4, 4453, Note_on_c, 2, 53, 0
4, 4456, Note_on_c, 2, 57, 0
4, 4470, Note_on_c, 2, 53, 77
4, 4470, Note_on_c, 2, 57, 77
4, 4470, Note_on_c, 2, 60, 77
4, 4480, Note_on_c, 2, 60, 0
4, 4484, Note_on_c, 2, 57, 0
4, 4484, Note_on_c, 2, 53, 0
4, 4500, Note_on_c, 2, 57, 89
4, 4500, Note_on_c, 2, 53, 89
4, 4500, Note_on_c, 2, 60, 89
4, 4512, Note_on_c, 2, 60, 0
4, 4513, Note_on_c, 2, 53, 0
4, 4516, Note_on_c, 2, 57, 0
4, 4530, Note_on_c, 2, 53, 77
4, 4530, Note_on_c, 2, 57, 77
4, 4530, Note_on_c, 2, 60, 77
4, 4540, Note_on_c, 2, 60, 0
4, 4544, Note_on_c, 2, 57, 0
4, 4544, Note_on_c, 2, 53, 0
4, 4560, Note_on_c, 2, 53, 90
4, 4560, Note_on_c, 2, 57, 90
4, 4560, Note_on_c, 2, 60, 90
4, 4570, Note_on_c, 2, 60, 0
4, 4572, Note_on_c, 2, 57, 0
4, 4573, Note_on_c, 2, 53, 0
4, 4590, Note_on_c, 2, 53, 79
4, 4590, Note_on_c, 2, 57, 79
4, 4590, Note_on_c, 2, 60, 79
4, 4600, Note_on_c, 2, 60, 0
4, 4600, Note_on_c, 2, 57, 0
4, 4604, Note_on_c, 2, 53, 0
4, 4620, Note_on_c, 2, 53, 91
4, 4620, Note_on_c, 2, 57, 91
4, 4620, Note_on_c, 2, 60, 91
4, 4632, Note_on_c, 2, 60, 0
4, 4633, Note_on_c, 2, 57, 0
4, 4635, Note_on_c, 2, 53, 0
4, 4650, Note_on_c, 2, 53, 80
4, 4650, Note_on_c, 2, 60, 80
4, 4650, Note_on_c, 2, 57, 80
4, 4660, Note_on_c, 2, 57, 0
4, 4662, Note_on_c, 2, 60, 0
4, 4663, Note_on_c, 2, 53, 0
4, 4680, Note_on_c, 2, 53, 91
4, 4680, Note_on_c, 2, 57, 91
4, 4680, Note_on_c, 2, 60, 91
4, 4682, Note_on_c, 2, 60, 0
4, 4692, Note_on_c, 2, 57, 0
4, 4694, Note_on_c, 2, 53, 0
4, 4710, Note_on_c, 2, 53, 77
4, 4710, Note_on_c, 2, 60, 77
4, 4710, Note_on_c, 2, 57, 77
4, 4720, Note_on_c, 2, 57, 0
4, 4721, Note_on_c, 2, 60, 0
4, 4724, Note_on_c, 2, 53, 0
4, 4740, Note_on_c, 2, 53, 91
4, 4740, Note_on_c, 2, 57, 91
4, 4740, Note_on_c, 2, 60, 91
4, 4751, Note_on_c, 2, 60, 0
4, 4753, Note_on_c, 2, 57, 0
4, 4754, Note_on_c, 2, 53, 0
4, 4770, Note_on_c, 2, 53, 78
4, 4770, Note_on_c, 2, 57, 78
4, 4770, Note_on_c, 2, 60, 78
4, 4779, Note_on_c, 2, 60, 0
4, 4782, Note_on_c, 2, 57, 0
4, 4782, Note_on_c, 2, 53, 0
4, 4785, Note_on_c, 2, 48, 84
4, 4797, Note_on_c, 2, 48, 0
4, 4800, Note_on_c, 2, 53, 91
4, 4800, Note_on_c, 2, 57, 91
4, 4800, Note_on_c, 2, 60, 91
4, 4814, Note_on_c, 2, 60, 0
4, 4816, Note_on_c, 2, 57, 0
4, 4816, Note_on_c, 2, 53, 0
4, 4830, Note_on_c, 2, 53, 76
4, 4830, Note_on_c, 2, 57, 76
4, 4830, Note_on_c, 2, 60, 76
4, 4842, Note_on_c, 2, 60, 0
4, 4842, Note_on_c, 2, 57, 0
4, 4842, Note_on_c, 2, 53, 0
4, 4860, Note_on_c, 2, 53, 91
4, 4860, Note_on_c, 2, 57, 91
4, 4860, Note_on_c, 2, 60, 91
4, 4871, Note_on_c, 2, 60, 0
4, 4874, Note_on_c, 2, 57, 0
4, 4875, Note_on_c, 2, 53, 0
4, 4890, Note_on_c, 2, 60, 77
4, 4890, Note_on_c, 2, 53, 77
4, 4890, Note_on_c, 2, 57, 77
4, 4902, Note_on_c, 2, 57, 0
4, 4902, Note_on_c, 2, 53, 0
4, 4904, Note_on_c, 2, 60, 0
4, 4920, Note_on_c, 2, 53, 91
4, 4920, Note_on_c, 2, 57, 91
4, 4920, Note_on_c, 2, 60, 91
4, 4932, Note_on_c, 2, 60, 0
4, 4932, Note_on_c, 2, 57, 0
4, 4932, Note_on_c, 2, 53, 0
4, 4950, Note_on_c, 2, 53, 80
4, 4950, Note_on_c, 2, 57, 80
4, 4950, Note_on_c, 2, 60, 80
4, 4962, Note_on_c, 2, 60, 0
4, 4962, Note_on_c, 2, 57, 0
4, 4962, Note_on_c, 2, 53, 0
4, 4980, Note_on_c, 2, 53, 91
4, 4980, Note_on_c, 2, 57, 91
4, 4980, Note_on_c, 2, 60, 91
4, 4992, Note_on_c, 2, 60, 0
4, 4992, Note_on_c, 2, 57, 0
4, 4993, Note_on_c, 2, 53, 0
4, 5010, Note_on_c, 2, 53, 79
4, 5010, Note_on_c, 2, 57, 79
4, 5010, Note_on_c, 2, 60, 79
4, 5021, Note_on_c, 2, 60, 0
4, 5021, Note_on_c, 2, 57, 0
4, 5024, Note_on_c, 2, 53, 0
4, 5025, Note_on_c, 2, 48, 84
4, 5037, Note_on_c, 2, 48, 0
4, 5040, Note_on_c, 2, 57, 91
4, 5040, Note_on_c, 2, 60, 91
4, 5040, Note_on_c, 2, 53, 91
4, 5052, Note_on_c, 2, 53, 0
4, 5054, Note_on_c, 2, 60, 0
4, 5054, Note_on_c, 2, 57, 0
4, 5070, Note_on_c, 2, 53, 78
4, 5070, Note_on_c, 2, 60, 78
4, 5070, Note_on_c, 2, 57, 78
4, 5082, Note_on_c, 2, 57, 0
4, 5084, Note_on_c, 2, 60, 0
4, 5086, Note_on_c, 2, 53, 0
4, 5100, Note_on_c, 2, 53, 91
4, 5100, Note_on_c, 2, 60, 91
4, 5100, Note_on_c, 2, 57, 91
4, 5112, Note_on_c, 2, 57, 0
4, 5114, Note_on_c, 2, 60, 0
4, 5115, Note_on_c, 2, 53, 0
4, 5130, Note_on_c, 2, 53, 78
4, 5130, Note_on_c, 2, 57, 78
4, 5130, Note_on_c, 2, 60, 78
4, 5142, Note_on_c, 2, 60, 0
4, 5142, Note_on_c, 2, 57, 0
4, 5142, Note_on_c, 2, 53, 0
4, 5160, Note_on_c, 2, 60, 92
4, 5160, Note_on_c, 2, 53, 92
4, 5160, Note_on_c, 2, 57, 92
4, 5172, Note_on_c, 2, 57, 0
4, 5172, Note_on_c, 2, 53, 0
4, 5176, Note_on_c, 2, 60, 0
4, 5190, Note_on_c, 2, 53, 92
4, 5190, Note_on_c, 2, 57, 92
4, 5190, Note_on_c, 2, 60, 92
4, 5202, Note_on_c, 2, 60, 0
4, 5202, Note_on_c, 2, 57, 0
4, 5202, Note_on_c, 2, 53, 0
4, 5220, Note_on_c, 2, 53, 80
4, 5220, Note_on_c, 2, 60, 80
4, 5220, Note_on_c, 2, 57, 80
4, 5232, Note_on_c, 2, 60, 0
4, 5233, Note_on_c, 2, 57, 0
4, 5233, Note_on_c, 2, 53, 0
4, 5250, Note_on_c, 2, 53, 92
4, 5250, Note_on_c, 2, 57, 92
4, 5250, Note_on_c, 2, 60, 92
4, 5257, Note_on_c, 2, 60, 0
4, 5261, Note_on_c, 2, 57, 0
4, 5264, Note_on_c, 2, 53, 0
4, 5280, Note_on_c, 2, 53, 80
4, 5280, Note_on_c, 2, 62, 80
4, 5280, Note_on_c, 2, 58, 80
4, 5283, Note_on_c, 2, 58, 0
4, 5292, Note_on_c, 2, 62, 0
4, 5295, Note_on_c, 2, 53, 0
4, 5310, Note_on_c, 2, 62, 92
4, 5310, Note_on_c, 2, 53, 92
4, 5310, Note_on_c, 2, 58, 92
4, 5322, Note_on_c, 2, 53, 0
4, 5323, Note_on_c, 2, 62, 0
4, 5324, Note_on_c, 2, 58, 0
4, 5340, Note_on_c, 2, 53, 78
4, 5340, Note_on_c, 2, 58, 78
4, 5340, Note_on_c, 2, 62, 78
4, 5352, Note_on_c, 2, 62, 0
4, 5352, Note_on_c, 2, 58, 0
4, 5355, Note_on_c, 2, 53, 0
4, 5370, Note_on_c, 2, 53, 92
4, 5370, Note_on_c, 2, 58, 92
4, 5370, Note_on_c, 2, 62, 92
4, 5382, Note_on_c, 2, 58, 0
4, 5383, Note_on_c, 2, 62, 0
4, 5383, Note_on_c, 2, 53, 0
4, 5400, Note_on_c, 2, 53, 80
4, 5400, Note_on_c, 2, 58, 80
4, 5400, Note_on_c, 2, 62, 80
4, 5412, Note_on_c, 2, 58, 0
4, 5414, Note_on_c, 2, 62, 0
4, 5416, Note_on_c, 2, 53, 0
4, 5430, Note_on_c, 2, 53, 92
4, 5430, Note_on_c, 2, 62, 92
4, 5430, Note_on_c, 2, 58, 92
4, 5440, Note_on_c, 2, 58, 0
4, 5444, Note_on_c, 2, 62, 0
4, 5444, Note_on_c, 2, 53, 0
4, 5460, Note_on_c, 2, 53, 82
4, 5460, Note_on_c, 2, 58, 82
4, 5460, Note_on_c, 2, 62, 82
4, 5470, Note_on_c, 2, 58, 0
4, 5473, Note_on_c, 2, 62, 0
4, 5474, Note_on_c, 2, 53, 0
4, 5490, Note_on_c, 2, 53, 97
4, 5490, Note_on_c, 2, 62, 97
4, 5490, Note_on_c, 2, 58, 97
4, 5499, Note_on_c, 2, 58, 0
4, 5503, Note_on_c, 2, 53, 0
4, 5504, Note_on_c, 2, 62, 0
4, 5520, Note_on_c, 2, 53, 82
4, 5520, Note_on_c, 2, 62, 82
4, 5520, Note_on_c, 2, 58, 82
4, 5530, Note_on_c, 2, 58, 0
4, 5535, Note_on_c, 2, 53, 0
4, 5536, Note_on_c, 2, 62, 0
4, 5550, Note_on_c, 2, 53, 97
4, 5550, Note_on_c, 2, 62, 97
4, 5550, Note_on_c, 2, 58, 97
4, 5560, Note_on_c, 2, 58, 0
4, 5565, Note_on_c, 2, 62, 0
4, 5565, Note_on_c, 2, 53, 0
4, 5580, Note_on_c, 2, 53, 83
4, 5580, Note_on_c, 2, 62, 83
4, 5580, Note_on_c, 2, 58, 83
4, 5590, Note_on_c, 2, 58, 0
4, 5595, Note_on_c, 2, 62, 0
4, 5595, Note_on_c, 2, 53, 0
4, 5610, Note_on_c, 2, 53, 97
4, 5610, Note_on_c, 2, 58, 97
4, 5610, Note_on_c, 2, 62, 97
4, 5621, Note_on_c, 2, 58, 0
4, 5624, Note_on_c, 2, 53, 0
4, 5625, Note_on_c, 2, 62, 0
4, 5640, Note_on_c, 2, 53, 78
4, 5640, Note_on_c, 2, 58, 78
4, 5640, Note_on_c, 2, 62, 78
4, 5653, Note_on_c, 2, 58, 0
4, 5655, Note_on_c, 2, 62, 0
4, 5655, Note_on_c, 2, 53, 0
4, 5670, Note_on_c, 2, 53, 97
4, 5670, Note_on_c, 2, 58, 97
4, 5670, Note_on_c, 2, 62, 97
4, 5682, Note_on_c, 2, 58, 0
4, 5684, Note_on_c, 2, 53, 0
4, 5685, Note_on_c, 2, 62, 0
4, 5700, Note_on_c, 2, 62, 80
4, 5700, Note_on_c, 2, 53, 80
4, 5700, Note_on_c, 2, 58, 80
4, 5711, Note_on_c, 2, 58, 0
4, 5713, Note_on_c, 2, 53, 0
4, 5719, Note_on_c, 2, 62, 0
4, 5730, Note_on_c, 2, 62, 97
4, 5730, Note_on_c, 2, 53, 97
4, 5730, Note_on_c, 2, 58, 97
4, 5741, Note_on_c, 2, 58, 0
4, 5743, Note_on_c, 2, 53, 0
4, 5745, Note_on_c, 2, 48, 84
4, 5747, Note_on_c, 2, 62, 0
4, 5757, Note_on_c, 2, 48, 0
4, 5760, Note_on_c, 2, 53, 79
4, 5760, Note_on_c, 2, 57, 79
4, 5760, Note_on_c, 2, 60, 79
4, 5765, Note_on_c, 2, 60, 0
4, 5770, Note_on_c, 2, 57, 0
4, 5771, Note_on_c, 2, 53, 0
4, 5790, Note_on_c, 2, 53, 97
4, 5790, Note_on_c, 2, 57, 97
4, 5790, Note_on_c, 2, 60, 97
4, 5799, Note_on_c, 2, 60, 0
4, 5802, Note_on_c, 2, 57, 0
4, 5802, Note_on_c, 2, 53, 0
4, 5820, Note_on_c, 2, 53, 82
4, 5820, Note_on_c, 2, 57, 82
4, 5820, Note_on_c, 2, 60, 82
4, 5830, Note_on_c, 2, 60, 0
4, 5834, Note_on_c, 2, 57, 0
4, 5834, Note_on_c, 2, 53, 0
4, 5850, Note_on_c, 2, 57, 97
4, 5850, Note_on_c, 2, 53, 97
4, 5850, Note_on_c, 2, 60, 97
4, 5860, Note_on_c, 2, 60, 0
4, 5860, Note_on_c, 2, 53, 0
4, 5863, Note_on_c, 2, 57, 0
4, 5880, Note_on_c, 2, 53, 80
4, 5880, Note_on_c, 2, 57, 80
4, 5880, Note_on_c, 2, 60, 80
4, 5892, Note_on_c, 2, 60, 0
4, 5893, Note_on_c, 2, 53, 0
4, 5894, Note_on_c, 2, 57, 0
4, 5910, Note_on_c, 2, 53, 97
4, 5910, Note_on_c, 2, 57, 97
4, 5910, Note_on_c, 2, 60, 97
4, 5920, Note_on_c, 2, 60, 0
4, 5922, Note_on_c, 2, 57, 0
4, 5922, Note_on_c, 2, 53, 0
4, 5940, Note_on_c, 2, 53, 81
4, 5940, Note_on_c, 2, 57, 81
4, 5940, Note_on_c, 2, 60, 81
4, 5950, Note_on_c, 2, 60, 0
4, 5953, Note_on_c, 2, 53, 0
4, 5954, Note_on_c, 2, 57, 0
4, 5970, Note_on_c, 2, 53, 97
4, 5970, Note_on_c, 2, 57, 97
4, 5970, Note_on_c, 2, 60, 97
4, 5981, Note_on_c, 2, 60, 0
4, 5983, Note_on_c, 2, 53, 0
4, 5984, Note_on_c, 2, 57, 0
4, 5985, Note_on_c, 2, 48, 84
4, 5997, Note_on_c, 2, 48, 0
4, 6000, Note_on_c, 2, 57, 79
4, 6000, Note_on_c, 2, 53, 79
4, 6000, Note_on_c, 2, 60, 79
4, 6010, Note_on_c, 2, 53, 0
4, 6011, Note_on_c, 2, 60, 0
4, 6014, Note_on_c, 2, 57, 0
4, 6030, Note_on_c, 2, 57, 97
4, 6030, Note_on_c, 2, 53, 97
4, 6030, Note_on_c, 2, 60, 97
4, 6038, Note_on_c, 2, 60, 0
4, 6040, Note_on_c, 2, 53, 0
4, 6042, Note_on_c, 2, 57, 0
4, 6060, Note_on_c, 2, 57, 80
4, 6060, Note_on_c, 2, 53, 80
4, 6060, Note_on_c, 2, 60, 80
4, 6070, Note_on_c, 2, 60, 0
4, 6070, Note_on_c, 2, 53, 0
4, 6075, Note_on_c, 2, 57, 0
4, 6090, Note_on_c, 2, 53, 97
4, 6090, Note_on_c, 2, 57, 97
4, 6090, Note_on_c, 2, 60, 97
4, 6104, Note_on_c, 2, 60, 0
4, 6104, Note_on_c, 2, 57, 0
4, 6104, Note_on_c, 2, 53, 0
4, 6120, Note_on_c, 2, 57, 80
4, 6120, Note_on_c, 2, 53, 80
4, 6120, Note_on_c, 2, 60, 80
4, 6130, Note_on_c, 2, 60, 0
4, 6130, Note_on_c, 2, 53, 0
4, 6134, Note_on_c, 2, 57, 0
4, 6150, Note_on_c, 2, 53, 97
4, 6150, Note_on_c, 2, 57, 97
4, 6150, Note_on_c, 2, 60, 97
4, 6159, Note_on_c, 2, 60, 0
4, 6161, Note_on_c, 2, 53, 0
4, 6162, Note_on_c, 2, 57, 0
4, 6180, Note_on_c, 2, 53, 81
4, 6180, Note_on_c, 2, 57, 81
4, 6180, Note_on_c, 2, 60, 81
4, 6189, Note_on_c, 2, 60, 0
4, 6192, Note_on_c, 2, 57, 0
4, 6192, Note_on_c, 2, 53, 0
4, 6210, Note_on_c, 2, 57, 95
4, 6210, Note_on_c, 2, 53, 95
4, 6210, Note_on_c, 2, 60, 95
4, 6218, Note_on_c, 2, 60, 0
4, 6219, Note_on_c, 2, 53, 0
4, 6224, Note_on_c, 2, 57, 0
4, 6240, Note_on_c, 2, 55, 81
4, 6240, Note_on_c, 2, 60, 81
4, 6240, Note_on_c, 2, 64, 81
4, 6248, Note_on_c, 2, 64, 0
4, 6251, Note_on_c, 2, 60, 0
4, 6251, Note_on_c, 2, 55, 0
4, 6270, Note_on_c, 2, 55, 97
4, 6270, Note_on_c, 2, 64, 97
4, 6270, Note_on_c, 2, 60, 97
4, 6283, Note_on_c, 2, 60, 0
4, 6283, Note_on_c, 2, 55, 0
4, 6284, Note_on_c, 2, 64, 0
4, 6300, Note_on_c, 2, 55, 83
4, 6300, Note_on_c, 2, 60, 83
4, 6300, Note_on_c, 2, 64, 83
4, 6310, Note_on_c, 2, 64, 0
4, 6311, Note_on_c, 2, 60, 0
4, 6315, Note_on_c, 2, 55, 0
4, 6330, Note_on_c, 2, 55, 97
4, 6330, Note_on_c, 2, 60, 97
4, 6330, Note_on_c, 2, 64, 97
4, 6343, Note_on_c, 2, 55, 0
4, 6344, Note_on_c, 2, 64, 0
4, 6344, Note_on_c, 2, 60, 0
4, 6360, Note_on_c, 2, 60, 83
4, 6360, Note_on_c, 2, 64, 83
4, 6360, Note_on_c, 2, 55, 83
4, 6372, Note_on_c, 2, 55, 0
4, 6373, Note_on_c, 2, 64, 0
4, 6374, Note_on_c, 2, 60, 0
4, 6390, Note_on_c, 2, 55, 97
4, 6390, Note_on_c, 2, 60, 97
4, 6390, Note_on_c, 2, 64, 97
4, 6403, Note_on_c, 2, 55, 0
4, 6404, Note_on_c, 2, 60, 0
4, 6405, Note_on_c, 2, 64, 0
4, 6420, Note_on_c, 2, 55, 84
4, 6420, Note_on_c, 2, 60, 84
4, 6420, Note_on_c, 2, 64, 84
4, 6432, Note_on_c, 2, 60, 0
4, 6432, Note_on_c, 2, 55, 0
4, 6433, Note_on_c, 2, 64, 0
4, 6450, Note_on_c, 2, 60, 97
4, 6450, Note_on_c, 2, 55, 97
4, 6450, Note_on_c, 2, 64, 97
4, 6464, Note_on_c, 2, 64, 0
4, 6464, Note_on_c, 2, 55, 0
4, 6465, Note_on_c, 2, 60, 0
4, 6480, Note_on_c, 2, 58, 127
4, 6480, Note_on_c, 2, 53, 127
4, 6480, Note_on_c, 2, 62, 127
4, 6489, Note_on_c, 2, 62, 0
4, 6492, Note_on_c, 2, 58, 0
4, 6494, Note_on_c, 2, 53, 0
4, 6750, Note_on_c, 2, 57, 82
4, 6750, Note_on_c, 2, 53, 82
4, 6750, Note_on_c, 2, 60, 82
4, 6760, Note_on_c, 2, 60, 0
4, 6762, Note_on_c, 2, 53, 0
4, 6762, Note_on_c, 2, 57, 0
4, 6780, Note_on_c, 2, 53, 91
4, 6780, Note_on_c, 2, 57, 91
4, 6780, Note_on_c, 2, 60, 91
4, 6793, Note_on_c, 2, 60, 0
4, 6794, Note_on_c, 2, 57, 0
4, 6796, Note_on_c, 2, 53, 0
4, 6810, Note_on_c, 2, 53, 83
4, 6810, Note_on_c, 2, 57, 83
4, 6810, Note_on_c, 2, 60, 83
4, 6821, Note_on_c, 2, 60, 0
4, 6822, Note_on_c, 2, 57, 0
4, 6822, Note_on_c, 2, 53, 0
4, 6840, Note_on_c, 2, 57, 92
4, 6840, Note_on_c, 2, 53, 92
4, 6840, Note_on_c, 2, 60, 92
4, 6849, Note_on_c, 2, 60, 0
4, 6852, Note_on_c, 2, 53, 0
4, 6854, Note_on_c, 2, 57, 0
4, 6870, Note_on_c, 2, 57, 80
4, 6870, Note_on_c, 2, 53, 80
4, 6870, Note_on_c, 2, 60, 80
4, 6882, Note_on_c, 2, 53, 0
4, 6883, Note_on_c, 2, 60, 0
4, 6884, Note_on_c, 2, 57, 0
4, 6900, Note_on_c, 2, 53, 94
4, 6900, Note_on_c, 2, 57, 94
4, 6900, Note_on_c, 2, 60, 94
4, 6911, Note_on_c, 2, 60, 0
4, 6913, Note_on_c, 2, 57, 0
4, 6913, Note_on_c, 2, 53, 0
4, 6930, Note_on_c, 2, 53, 82
4, 6930, Note_on_c, 2, 57, 82
4, 6930, Note_on_c, 2, 60, 82
4, 6942, Note_on_c, 2, 60, 0
4, 6943, Note_on_c, 2, 53, 0
4, 6944, Note_on_c, 2, 57, 0
4, 6960, Note_on_c, 2, 53, 94
4, 6960, Note_on_c, 2, 57, 94
4, 6960, Note_on_c, 2, 60, 94
4, 6974, Note_on_c, 2, 60, 0
4, 6974, Note_on_c, 2, 57, 0
4, 6974, Note_on_c, 2, 53, 0
4, 6990, Note_on_c, 2, 53, 80
4, 6990, Note_on_c, 2, 57, 80
4, 6990, Note_on_c, 2, 60, 80
4, 7002, Note_on_c, 2, 60, 0
4, 7002, Note_on_c, 2, 53, 0
4, 7003, Note_on_c, 2, 57, 0
4, 7020, Note_on_c, 2, 57, 95
4, 7020, Note_on_c, 2, 60, 95
4, 7020, Note_on_c, 2, 53, 95
4, 7031, Note_on_c, 2, 53, 0
4, 7034, Note_on_c, 2, 60, 0
4, 7036, Note_on_c, 2, 57, 0
4, 7050, Note_on_c, 2, 57, 83
4, 7050, Note_on_c, 2, 60, 83
4, 7050, Note_on_c, 2, 53, 83
4, 7062, Note_on_c, 2, 53, 0
4, 7063, Note_on_c, 2, 57, 0
4, 7064, Note_on_c, 2, 60, 0
4, 7080, Note_on_c, 2, 53, 72
4, 7080, Note_on_c, 2, 57, 76
4, 7080, Note_on_c, 2, 60, 94
4, 7093, Note_on_c, 2, 60, 0
4, 7094, Note_on_c, 2, 57, 0
4, 7094, Note_on_c, 2, 53, 0
4, 7110, Note_on_c, 2, 53, 80
4, 7110, Note_on_c, 2, 57, 80
4, 7110, Note_on_c, 2, 60, 80
4, 7122, Note_on_c, 2, 57, 0
4, 7123, Note_on_c, 2, 53, 0
4, 7124, Note_on_c, 2, 60, 0
4, 7140, Note_on_c, 2, 53, 74
4, 7140, Note_on_c, 2, 57, 86
4, 7140, Note_on_c, 2, 60, 96
4, 7152, Note_on_c, 2, 60, 0
4, 7152, Note_on_c, 2, 57, 0
4, 7152, Note_on_c, 2, 53, 0
4, 7170, Note_on_c, 2, 53, 81
4, 7170, Note_on_c, 2, 57, 81
4, 7170, Note_on_c, 2, 60, 81
4, 7180, Note_on_c, 2, 57, 0
4, 7181, Note_on_c, 2, 60, 0
4, 7181, Note_on_c, 2, 53, 0
4, 7200, Note_on_c, 2, 53, 84
4, 7200, Note_on_c, 2, 57, 84
4, 7200, Note_on_c, 2, 60, 91
4, 7211, Note_on_c, 2, 60, 0
4, 7212, Note_on_c, 2, 57, 0
4, 7212, Note_on_c, 2, 53, 0
4, 7230, Note_on_c, 2, 57, 84
4, 7230, Note_on_c, 2, 53, 84
4, 7230, Note_on_c, 2, 60, 84
4, 7240, Note_on_c, 2, 60, 0
4, 7242, Note_on_c, 2, 53, 0
4, 7242, Note_on_c, 2, 57, 0
4, 7260, Note_on_c, 2, 53, 89
4, 7260, Note_on_c, 2, 57, 89
4, 7260, Note_on_c, 2, 60, 89
4, 7273, Note_on_c, 2, 60, 0
4, 7274, Note_on_c, 2, 57, 0
4, 7274, Note_on_c, 2, 53, 0
4, 7290, Note_on_c, 2, 53, 79
4, 7290, Note_on_c, 2, 57, 79
4, 7290, Note_on_c, 2, 60, 79
4, 7301, Note_on_c, 2, 60, 0
4, 7303, Note_on_c, 2, 53, 0
4, 7304, Note_on_c, 2, 57, 0
4, 7320, Note_on_c, 2, 57, 89
4, 7320, Note_on_c, 2, 53, 89
4, 7320, Note_on_c, 2, 60, 89
4, 7331, Note_on_c, 2, 60, 0
4, 7333, Note_on_c, 2, 53, 0
4, 7336, Note_on_c, 2, 57, 0
4, 7350, Note_on_c, 2, 53, 77
4, 7350, Note_on_c, 2, 57, 77
4, 7350, Note_on_c, 2, 60, 77
4, 7360, Note_on_c, 2, 60, 0
4, 7364, Note_on_c, 2, 57, 0
4, 7364, Note_on_c, 2, 53, 0
4, 7380, Note_on_c, 2, 57, 89
4, 7380, Note_on_c, 2, 53, 89
4, 7380, Note_on_c, 2, 60, 89
4, 7392, Note_on_c, 2, 60, 0
4, 7393, Note_on_c, 2, 53, 0
4, 7396, Note_on_c, 2, 57, 0
4, 7410, Note_on_c, 2, 53, 77
4, 7410, Note_on_c, 2, 57, 77
4, 7410, Note_on_c, 2, 60, 77
4, 7420, Note_on_c, 2, 60, 0
4, 7424, Note_on_c, 2, 57, 0
4, 7424, Note_on_c, 2, 53, 0
4, 7440, Note_on_c, 2, 53, 90
4, 7440, Note_on_c, 2, 57, 90
4, 7440, Note_on_c, 2, 60, 90
4, 7450, Note_on_c, 2, 60, 0
4, 7452, Note_on_c, 2, 57, 0
4, 7453, Note_on_c, 2, 53, 0
4, 7470, Note_on_c, 2, 53, 79
4, 7470, Note_on_c, 2, 57, 79
4, 7470, Note_on_c, 2, 60, 79
4, 7480, Note_on_c, 2, 60, 0
4, 7480, Note_on_c, 2, 57, 0
4, 7484, Note_on_c, 2, 53, 0
4, 7500, Note_on_c, 2, 53, 91
4, 7500, Note_on_c, 2, 57, 91
4, 7500, Note_on_c, 2, 60, 91
4, 7512, Note_on_c, 2, 60, 0
4, 7513, Note_on_c, 2, 57, 0
4, 7515, Note_on_c, 2, 53, 0
4, 7530, Note_on_c, 2, 53, 80
4, 7530, Note_on_c, 2, 60, 80
4, 7530, Note_on_c, 2, 57, 80
4, 7540, Note_on_c, 2, 57, 0
4, 7542, Note_on_c, 2, 60, 0
4, 7543, Note_on_c, 2, 53, 0
4, 7560, Note_on_c, 2, 53, 91
4, 7560, Note_on_c, 2, 57, 91
4, 7560, Note_on_c, 2, 60, 91
4, 7562, Note_on_c, 2, 60, 0
4, 7572, Note_on_c, 2, 57, 0
4, 7574, Note_on_c, 2, 53, 0
4, 7590, Note_on_c, 2, 53, 77
4, 7590, Note_on_c, 2, 60, 77
4, 7590, Note_on_c, 2, 57, 77
4, 7600, Note_on_c, 2, 57, 0
4, 7601, Note_on_c, 2, 60, 0
4, 7604, Note_on_c, 2, 53, 0
4, 7620, Note_on_c, 2, 53, 91
4, 7620, Note_on_c, 2, 57, 91
4, 7620, Note_on_c, 2, 60, 91
4, 7631, Note_on_c, 2, 60, 0
4, 7633, Note_on_c, 2, 57, 0
4, 7634, Note_on_c, 2, 53, 0
4, 7650, Note_on_c, 2, 53, 78
4, 7650, Note_on_c, 2, 57, 78
4, 7650, Note_on_c, 2, 60, 78
4, 7659, Note_on_c, 2, 60, 0
4, 7662, Note_on_c, 2, 57, 0
4, 7662, Note_on_c, 2, 53, 0
4, 7665, Note_on_c, 2, 48, 84
4, 7677, Note_on_c, 2, 48, 0
4, 7680, Note_on_c, 2, 53, 91
4, 7680, Note_on_c, 2, 57, 91
4, 7680, Note_on_c, 2, 60, 91
4, 7694, Note_on_c, 2, 60, 0
4, 7696, Note_on_c, 2, 57, 0
4, 7696, Note_on_c, 2, 53, 0
4, 7710, Note_on_c, 2, 53, 76
4, 7710, Note_on_c, 2, 57, 76
4, 7710, Note_on_c, 2, 60, 76
4, 7722, Note_on_c, 2, 60, 0
4, 7722, Note_on_c, 2, 57, 0
4, 7722, Note_on_c, 2, 53, 0
4, 7740, Note_on_c, 2, 53, 91
4, 7740, Note_on_c, 2, 57, 91
4, 7740, Note_on_c, 2, 60, 91
4, 7751, Note_on_c, 2, 60, 0
4, 7754, Note_on_c, 2, 57, 0
4, 7755, Note_on_c, 2, 53, 0
4, 7770, Note_on_c, 2, 60, 77
4, 7770, Note_on_c, 2, 53, 77
4, 7770, Note_on_c, 2, 57, 77
4, 7782, Note_on_c, 2, 57, 0
4, 7782, Note_on_c, 2, 53, 0
4, 7784, Note_on_c, 2, 60, 0
4, 7800, Note_on_c, 2, 53, 91
4, 7800, Note_on_c, 2, 57, 91
4, 7800, Note_on_c, 2, 60, 91
4, 7812, Note_on_c, 2, 60, 0
4, 7812, Note_on_c, 2, 57, 0
4, 7812, Note_on_c, 2, 53, 0
4, 7830, Note_on_c, 2, 53, 80
4, 7830, Note_on_c, 2, 57, 80
4, 7830, Note_on_c, 2, 60, 80
4, 7842, Note_on_c, 2, 60, 0
4, 7842, Note_on_c, 2, 57, 0
4, 7842, Note_on_c, 2, 53, 0
4, 7860, Note_on_c, 2, 53, 91
4, 7860, Note_on_c, 2, 57, 91
4, 7860, Note_on_c, 2, 60, 91
4, 7872, Note_on_c, 2, 60, 0
4, 7872, Note_on_c, 2, 57, 0
4, 7873, Note_on_c, 2, 53, 0
4, 7890, Note_on_c, 2, 53, 79
4, 7890, Note_on_c, 2, 57, 79
4, 7890, Note_on_c, 2, 60, 79
4, 7901, Note_on_c, 2, 60, 0
4, 7901, Note_on_c, 2, 57, 0
4, 7904, Note_on_c, 2, 53, 0
4, 7905, Note_on_c, 2, 48, 84
4, 7917, Note_on_c, 2, 48, 0
4, 7920, Note_on_c, 2, 57, 91
4, 7920, Note_on_c, 2, 60, 91
4, 7920, Note_on_c, 2, 53, 91
4, 7932, Note_on_c, 2, 53, 0
4, 7934, Note_on_c, 2, 60, 0
4, 7934, Note_on_c, 2, 57, 0
4, 7950, Note_on_c, 2, 53, 78
4, 7950, Note_on_c, 2, 60, 78
4, 7950, Note_on_c, 2, 57, 78
4, 7962, Note_on_c, 2, 57, 0
4, 7964, Note_on_c, 2, 60, 0
4, 7966, Note_on_c, 2, 53, 0
4, 7980, Note_on_c, 2, 53, 91
4, 7980, Note_on_c, 2, 60, 91
4, 7980, Note_on_c, 2, 57, 91
4, 7992, Note_on_c, 2, 57, 0
4, 7994, Note_on_c, 2, 60, 0
4, 7995, Note_on_c, 2, 53, 0
4, 8010, Note_on_c, 2, 53, 78
4, 8010, Note_on_c, 2, 57, 78
4, 8010, Note_on_c, 2, 60, 78
4, 8022, Note_on_c, 2, 60, 0
4, 8022, Note_on_c, 2, 57, 0
4, 8022, Note_on_c, 2, 53, 0
4, 8040, Note_on_c, 2, 60, 92
4, 8040, Note_on_c, 2, 53, 92
4, 8040, Note_on_c, 2, 57, 92
4, 8052, Note_on_c, 2, 57, 0
4, 8052, Note_on_c, 2, 53, 0
4, 8056, Note_on_c, 2, 60, 0
4, 8070, Note_on_c, 2, 53, 92
4, 8070, Note_on_c, 2, 57, 92
4, 8070, Note_on_c, 2, 60, 92
4, 8082, Note_on_c, 2, 60, 0
4, 8082, Note_on_c, 2, 57, 0
4, 8082, Note_on_c, 2, 53, 0
4, 8100, Note_on_c, 2, 53, 80
4, 8100, Note_on_c, 2, 60, 80
4, 8100, Note_on_c, 2, 57, 80
4, 8112, Note_on_c, 2, 60, 0
4, 8113, Note_on_c, 2, 57, 0
4, 8113, Note_on_c, 2, 53, 0
4, 8130, Note_on_c, 2, 53, 92
4, 8130, Note_on_c, 2, 57, 92
4, 8130, Note_on_c, 2, 60, 92
4, 8137, Note_on_c, 2, 60, 0
4, 8141, Note_on_c, 2, 57, 0
4, 8144, Note_on_c, 2, 53, 0
4, 8160, Note_on_c, 2, 53, 80
4, 8160, Note_on_c, 2, 62, 80
4, 8160, Note_on_c, 2, 58, 80
4, 8163, Note_on_c, 2, 58, 0
4, 8172, Note_on_c, 2, 62, 0
4, 8175, Note_on_c, 2, 53, 0
4, 8190, Note_on_c, 2, 62, 92
4, 8190, Note_on_c, 2, 53, 92
4, 8190, Note_on_c, 2, 58, 92
4, 8202, Note_on_c, 2, 53, 0
4, 8203, Note_on_c, 2, 62, 0
4, 8204, Note_on_c, 2, 58, 0
4, 8220, Note_on_c, 2, 53, 78
4, 8220, Note_on_c, 2, 58, 78
4, 8220, Note_on_c, 2, 62, 78
4, 8232, Note_on_c, 2, 62, 0
4, 8232, Note_on_c, 2, 58, 0
4, 8235, Note_on_c, 2, 53, 0
4, 8250, Note_on_c, 2, 53, 92
4, 8250, Note_on_c, 2, 58, 92
4, 8250, Note_on_c, 2, 62, 92
4, 8262, Note_on_c, 2, 58, 0
4, 8263, Note_on_c, 2, 62, 0
4, 8263, Note_on_c, 2, 53, 0
4, 8280, Note_on_c, 2, 53, 80
4, 8280, Note_on_c, 2, 58, 80
4, 8280, Note_on_c, 2, 62, 80
4, 8292, Note_on_c, 2, 58, 0
4, 8294, Note_on_c, 2, 62, 0
4, 8296, Note_on_c, 2, 53, 0
4, 8310, Note_on_c, 2, 53, 92
4, 8310, Note_on_c, 2, 62, 92
4, 8310, Note_on_c, 2, 58, 92
4, 8320, Note_on_c, 2, 58, 0
4, 8324, Note_on_c, 2, 62, 0
4, 8324, Note_on_c, 2, 53, 0
4, 8340, Note_on_c, 2, 53, 82
4, 8340, Note_on_c, 2, 58, 82
4, 8340, Note_on_c, 2, 62, 82
4, 8350, Note_on_c, 2, 58, 0
4, 8353, Note_on_c, 2, 62, 0
4, 8354, Note_on_c, 2, 53, 0
4, 8370, Note_on_c, 2, 53, 97
4, 8370, Note_on_c, 2, 62, 97
4, 8370, Note_on_c, 2, 58, 97
4, 8379, Note_on_c, 2, 58, 0
4, 8383, Note_on_c, 2, 53, 0
4, 8384, Note_on_c, 2, 62, 0
4, 8400, Note_on_c, 2, 53, 82
4, 8400, Note_on_c, 2, 62, 82
4, 8400, Note_on_c, 2, 58, 82
4, 8410, Note_on_c, 2, 58, 0
4, 8415, Note_on_c, 2, 53, 0
4, 8416, Note_on_c, 2, 62, 0
4, 8430, Note_on_c, 2, 53, 97
4, 8430, Note_on_c, 2, 62, 97
4, 8430, Note_on_c, 2, 58, 97
4, 8440, Note_on_c, 2, 58, 0
4, 8445, Note_on_c, 2, 62, 0
4, 8445, Note_on_c, 2, 53, 0
4, 8460, Note_on_c, 2, 53, 83
4, 8460, Note_on_c, 2, 62, 83
4, 8460, Note_on_c, 2, 58, 83
4, 8470, Note_on_c, 2, 58, 0
4, 8475, Note_on_c, 2, 62, 0
4, 8475, Note_on_c, 2, 53, 0
4, 8490, Note_on_c, 2, 53, 97
4, 8490, Note_on_c, 2, 58, 97
4, 8490, Note_on_c, 2, 62, 97
4, 8501, Note_on_c, 2, 58, 0
4, 8504, Note_on_c, 2, 53, 0
4, 8505, Note_on_c, 2, 62, 0
4, 8520, Note_on_c, 2, 53, 78
4, 8520, Note_on_c, 2, 58, 78
4, 8520, Note_on_c, 2, 62, 78
4, 8533, Note_on_c, 2, 58, 0
4, 8535, Note_on_c, 2, 62, 0
4, 8535, Note_on_c, 2, 53, 0
4, 8550, Note_on_c, 2, 53, 97
4, 8550, Note_on_c, 2, 58, 97
4, 8550, Note_on_c, 2, 62, 97
4, 8562, Note_on_c, 2, 58, 0
4, 8564, Note_on_c, 2, 53, 0
4, 8565, Note_on_c, 2, 62, 0
4, 8580, Note_on_c, 2, 62, 80
4, 8580, Note_on_c, 2, 53, 80
4, 8580, Note_on_c, 2, 58, 80
4, 8591, Note_on_c, 2, 58, 0
4, 8593, Note_on_c, 2, 53, 0
4, 8599, Note_on_c, 2, 62, 0
4, 8610, Note_on_c, 2, 62, 97
4, 8610, Note_on_c, 2, 53, 97
4, 8610, Note_on_c, 2, 58, 97
4, 8621, Note_on_c, 2, 58, 0
4, 8623, Note_on_c, 2, 53, 0
4, 8625, Note_on_c, 2, 48, 84
4, 8627, Note_on_c, 2, 62, 0
4, 8637, Note_on_c, 2, 48, 0
4, 8640, Note_on_c, 2, 53, 79
4, 8640, Note_on_c, 2, 57, 79
4, 8640, Note_on_c, 2, 60, 79
4, 8645, Note_on_c, 2, 60, 0
4, 8650, Note_on_c, 2, 57, 0
4, 8651, Note_on_c, 2, 53, 0
4, 8670, Note_on_c, 2, 53, 97
4, 8670, Note_on_c, 2, 57, 97
4, 8670, Note_on_c, 2, 60, 97
4, 8679, Note_on_c, 2, 60, 0
4, 8682, Note_on_c, 2, 57, 0
4, 8682, Note_on_c, 2, 53, 0
4, 8700, Note_on_c, 2, 53, 82
4, 8700, Note_on_c, 2, 57, 82
4, 8700, Note_on_c, 2, 60, 82
4, 8710, Note_on_c, 2, 60, 0
4, 8714, Note_on_c, 2, 57, 0
4, 8714, Note_on_c, 2, 53, 0
4, 8730, Note_on_c, 2, 57, 97
4, 8730, Note_on_c, 2, 53, 97
4, 8730, Note_on_c, 2, 60, 97
4, 8740, Note_on_c, 2, 60, 0
4, 8740, Note_on_c, 2, 53, 0
4, 8743, Note_on_c, 2, 57, 0
4, 8760, Note_on_c, 2, 53, 80
4, 8760, Note_on_c, 2, 57, 80
4, 8760, Note_on_c, 2, 60, 80
4, 8772, Note_on_c, 2, 60, 0
4, 8773, Note_on_c, 2, 53, 0
4, 8774, Note_on_c, 2, 57, 0
4, 8790, Note_on_c, 2, 53, 97
4, 8790, Note_on_c, 2, 57, 97
4, 8790, Note_on_c, 2, 60, 97
4, 8800, Note_on_c, 2, 60, 0
4, 8802, Note_on_c, 2, 57, 0
4, 8802, Note_on_c, 2, 53, 0
4, 8820, Note_on_c, 2, 53, 81
4, 8820, Note_on_c, 2, 57, 81
4, 8820, Note_on_c, 2, 60, 81
4, 8830, Note_on_c, 2, 60, 0
4, 8833, Note_on_c, 2, 53, 0
4, 8834, Note_on_c, 2, 57, 0
4, 8850, Note_on_c, 2, 53, 97
4, 8850, Note_on_c, 2, 57, 97
4, 8850, Note_on_c, 2, 60, 97
4, 8861, Note_on_c, 2, 60, 0
4, 8863, Note_on_c, 2, 53, 0
4, 8864, Note_on_c, 2, 57, 0
4, 8865, Note_on_c, 2, 48, 84
4, 8877, Note_on_c, 2, 48, 0
4, 8880, Note_on_c, 2, 57, 79
4, 8880, Note_on_c, 2, 53, 79
4, 8880, Note_on_c, 2, 60, 79
4, 8890, Note_on_c, 2, 53, 0
4, 8891, Note_on_c, 2, 60, 0
4, 8894, Note_on_c, 2, 57, 0
4, 8910, Note_on_c, 2, 57, 97
4, 8910, Note_on_c, 2, 53, 97
4, 8910, Note_on_c, 2, 60, 97
4, 8918, Note_on_c, 2, 60, 0
4, 8920, Note_on_c, 2, 53, 0
4, 8922, Note_on_c, 2, 57, 0
4, 8940, Note_on_c, 2, 57, 80
4, 8940, Note_on_c, 2, 53, 80
4, 8940, Note_on_c, 2, 60, 80
4, 8950, Note_on_c, 2, 60, 0
4, 8950, Note_on_c, 2, 53, 0
4, 8955, Note_on_c, 2, 57, 0
4, 8970, Note_on_c, 2, 53, 97
4, 8970, Note_on_c, 2, 57, 97
4, 8970, Note_on_c, 2, 60, 97
4, 8984, Note_on_c, 2, 60, 0
4, 8984, Note_on_c, 2, 57, 0
4, 8984, Note_on_c, 2, 53, 0
4, 9000, Note_on_c, 2, 57, 80
4, 9000, Note_on_c, 2, 53, 80
4, 9000, Note_on_c, 2, 60, 80
4, 9010, Note_on_c, 2, 60, 0
4, 9010, Note_on_c, 2, 53, 0
4, 9014, Note_on_c, 2, 57, 0
4, 9030, Note_on_c, 2, 53, 97
4, 9030, Note_on_c, 2, 57, 97
4, 9030, Note_on_c, 2, 60, 97
4, 9039, Note_on_c, 2, 60, 0
4, 9041, Note_on_c, 2, 53, 0
4, 9042, Note_on_c, 2, 57, 0
4, 9060, Note_on_c, 2, 53, 81
4, 9060, Note_on_c, 2, 57, 81
4, 9060, Note_on_c, 2, 60, 81
4, 9069, Note_on_c, 2, 60, 0
4, 9072, Note_on_c, 2, 57, 0
4, 9072, Note_on_c, 2, 53, 0
4, 9090, Note_on_c, 2, 57, 95
4, 9090, Note_on_c, 2, 53, 95
4, 9090, Note_on_c, 2, 60, 95
4, 9098, Note_on_c, 2, 60, 0
4, 9099, Note_on_c, 2, 53, 0
4, 9104, Note_on_c, 2, 57, 0
4, 9120, Note_on_c, 2, 55, 81
4, 9120, Note_on_c, 2, 60, 81
4, 9120, Note_on_c, 2, 64, 81
4, 9128, Note_on_c, 2, 64, 0
4, 9131, Note_on_c, 2, 60, 0
4, 9131, Note_on_c, 2, 55, 0
4, 9150, Note_on_c, 2, 55, 97
4, 9150, Note_on_c, 2, 64, 97
4, 9150, Note_on_c, 2, 60, 97
4, 9163, Note_on_c, 2, 60, 0
4, 9163, Note_on_c, 2, 55, 0
4, 9164, Note_on_c, 2, 64, 0
4, 9180, Note_on_c, 2, 55, 83
4, 9180, Note_on_c, 2, 60, 83
4, 9180, Note_on_c, 2, 64, 83
4, 9190, Note_on_c, 2, 64, 0
4, 9191, Note_on_c, 2, 60, 0
4, 9195, Note_on_c, 2, 55, 0
4, 9210, Note_on_c, 2, 55, 97
4, 9210, Note_on_c, 2, 60, 97
4, 9210, Note_on_c, 2, 64, 97
4, 9223, Note_on_c, 2, 55, 0
4, 9224, Note_on_c, 2, 64, 0
4, 9224, Note_on_c, 2, 60, 0
4, 9240, Note_on_c, 2, 60, 83
4, 9240, Note_on_c, 2, 64, 83
4, 9240, Note_on_c, 2, 55, 83
4, 9252, Note_on_c, 2, 55, 0
4, 9253, Note_on_c, 2, 64, 0
4, 9254, Note_on_c, 2, 60, 0
4, 9270, Note_on_c, 2, 55, 97
4, 9270, Note_on_c, 2, 60, 97
4, 9270, Note_on_c, 2, 64, 97
4, 9283, Note_on_c, 2, 55, 0
4, 9284, Note_on_c, 2, 60, 0
4, 9285, Note_on_c, 2, 64, 0
4, 9300, Note_on_c, 2, 55, 84
4, 9300, Note_on_c, 2, 60, 84
4, 9300, Note_on_c, 2, 64, 84
4, 9312, Note_on_c, 2, 60, 0
4, 9312, Note_on_c, 2, 55, 0
4, 9313, Note_on_c, 2, 64, 0
4, 9330, Note_on_c, 2, 60, 97
4, 9330, Note_on_c, 2, 55, 97
4, 9330, Note_on_c, 2, 64, 97
4, 9344, Note_on_c, 2, 64, 0
4, 9344, Note_on_c, 2, 55, 0
4, 9345, Note_on_c, 2, 60, 0
4, 9360, Note_on_c, 2, 58, 127
4, 9360, Note_on_c, 2, 53, 127
4, 9360, Note_on_c, 2, 62, 127
4, 9369, Note_on_c, 2, 62, 0
4, 9372, Note_on_c, 2, 58, 0
4, 9374, Note_on_c, 2, 53, 0
4, 9630, Note_on_c, 2, 57, 82
4, 9630, Note_on_c, 2, 53, 82
4, 9630, Note_on_c, 2, 60, 82
4, 9640, Note_on_c, 2, 60, 0
4, 9642, Note_on_c, 2, 53, 0
4, 9642, Note_on_c, 2, 57, 0
4, 9660, Note_on_c, 2, 53, 91
4, 9660, Note_on_c, 2, 57, 91
4, 9660, Note_on_c, 2, 60, 91
4, 9673, Note_on_c, 2, 60, 0
4, 9674, Note_on_c, 2, 57, 0
4, 9676, Note_on_c, 2, 53, 0
4, 9690, Note_on_c, 2, 53, 83
4, 9690, Note_on_c, 2, 57, 83
4, 9690, Note_on_c, 2, 60, 83
4, 9701, Note_on_c, 2, 60, 0
4, 9702, Note_on_c, 2, 57, 0
4, 9702, Note_on_c, 2, 53, 0
4, 9720, Note_on_c, 2, 57, 92
4, 9720, Note_on_c, 2, 53, 92
4, 9720, Note_on_c, 2, 60, 92
4, 9729, Note_on_c, 2, 60, 0
4, 9732, Note_on_c, 2, 53, 0
4, 9734, Note_on_c, 2, 57, 0
4, 9750, Note_on_c, 2, 57, 80
4, 9750, Note_on_c, 2, 53, 80
4, 9750, Note_on_c, 2, 60, 80
4, 9762, Note_on_c, 2, 53, 0
4, 9763, Note_on_c, 2, 60, 0
4, 9764, Note_on_c, 2, 57, 0
4, 9780, Note_on_c, 2, 53, 94
4, 9780, Note_on_c, 2, 57, 94
4, 9780, Note_on_c, 2, 60, 94
4, 9791, Note_on_c, 2, 60, 0
4, 9793, Note_on_c, 2, 57, 0
4, 9793, Note_on_c, 2, 53, 0
4, 9810, Note_on_c, 2, 53, 82
4, 9810, Note_on_c, 2, 57, 82
4, 9810, Note_on_c, 2, 60, 82
4, 9822, Note_on_c, 2, 60, 0
4, 9823, Note_on_c, 2, 53, 0
4, 9824, Note_on_c, 2, 57, 0
4, 9840, Note_on_c, 2, 53, 94
4, 9840, Note_on_c, 2, 57, 94
4, 9840, Note_on_c, 2, 60, 94
4, 9854, Note_on_c, 2, 60, 0
4, 9854, Note_on_c, 2, 57, 0
4, 9854, Note_on_c, 2, 53, 0
4, 9870, Note_on_c, 2, 53, 80
4, 9870, Note_on_c, 2, 57, 80
4, 9870, Note_on_c, 2, 60, 80
4, 9882, Note_on_c, 2, 60, 0
4, 9882, Note_on_c, 2, 53, 0
4, 9883, Note_on_c, 2, 57, 0
4, 9900, Note_on_c, 2, 57, 95
4, 9900, Note_on_c, 2, 60, 95
4, 9900, Note_on_c, 2, 53, 95
4, 9911, Note_on_c, 2, 53, 0
4, 9914, Note_on_c, 2, 60, 0
4, 9916, Note_on_c, 2, 57, 0
4, 9930, Note_on_c, 2, 57, 83
4, 9930, Note_on_c, 2, 60, 83
4, 9930, Note_on_c, 2, 53, 83
4, 9942, Note_on_c, 2, 53, 0
4, 9943, Note_on_c, 2, 57, 0
4, 9944, Note_on_c, 2, 60, 0
4, 9960, Note_on_c, 2, 53, 72
4, 9960, Note_on_c, 2, 57, 76
4, 9960, Note_on_c, 2, 60, 94
4, 9973, Note_on_c, 2, 60, 0
4, 9974, Note_on_c, 2, 57, 0
4, 9974, Note_on_c, 2, 53, 0
4, 9990, Note_on_c, 2, 53, 80
4, 9990, Note_on_c, 2, 57, 80
4, 9990, Note_on_c, 2, 60, 80
4, 10002, Note_on_c, 2, 57, 0
4, 10003, Note_on_c, 2, 53, 0
4, 10004, Note_on_c, 2, 60, 0
4, 10020, Note_on_c, 2, 53, 74
4, 10020, Note_on_c, 2, 57, 86
4, 10020, Note_on_c, 2, 60, 96
4, 10032, Note_on_c, 2, 60, 0
4, 10032, Note_on_c, 2, 57, 0
4, 10032, Note_on_c, 2, 53, 0
4, 10050, Note_on_c, 2, 53, 81
4, 10050, Note_on_c, 2, 57, 81
4, 10050, Note_on_c, 2, 60, 81
4, 10060, Note_on_c, 2, 57, 0
4, 10061, Note_on_c, 2, 60, 0
4, 10061, Note_on_c, 2, 53, 0
4, 10080, Note_on_c, 2, 53, 84
4, 10080, Note_on_c, 2, 57, 84
4, 10080, Note_on_c, 2, 60, 91
4, 10091, Note_on_c, 2, 60, 0
4, 10092, Note_on_c, 2, 57, 0
4, 10092, Note_on_c, 2, 53, 0
4, 10110, Note_on_c, 2, 57, 84
4, 10110, Note_on_c, 2, 53, 84
4, 10110, Note_on_c, 2, 60, 84
4, 10120, Note_on_c, 2, 60, 0
4, 10122, Note_on_c, 2, 53, 0
4, 10122, Note_on_c, 2, 57, 0
4, 10140, Note_on_c, 2, 53, 89
4, 10140, Note_on_c, 2, 57, 89
4, 10140, Note_on_c, 2, 60, 89
4, 10153, Note_on_c, 2, 60, 0
4, 10154, Note_on_c, 2, 57, 0
4, 10154, Note_on_c, 2, 53, 0
4, 10170, Note_on_c, 2, 53, 79
4, 10170, Note_on_c, 2, 57, 79
4, 10170, Note_on_c, 2, 60, 79
4, 10181, Note_on_c, 2, 60, 0
4, 10183, Note_on_c, 2, 53, 0
4, 10184, Note_on_c, 2, 57, 0
4, 10200, Note_on_c, 2, 57, 89
4, 10200, Note_on_c, 2, 53, 89
4, 10200, Note_on_c, 2, 60, 89
4, 10211, Note_on_c, 2, 60, 0
4, 10213, Note_on_c, 2, 53, 0
4, 10216, Note_on_c, 2, 57, 0
4, 10230, Note_on_c, 2, 53, 77
4, 10230, Note_on_c, 2, 57, 77
4, 10230, Note_on_c, 2, 60, 77
4, 10240, Note_on_c, 2, 60, 0
4, 10244, Note_on_c, 2, 57, 0
4, 10244, Note_on_c, 2, 53, 0
4, 10260, Note_on_c, 2, 57, 89
4, 10260, Note_on_c, 2, 53, 89
4, 10260, Note_on_c, 2, 60, 89
4, 10272, Note_on_c, 2, 60, 0
4, 10273, Note_on_c, 2, 53, 0
4, 10276, Note_on_c, 2, 57, 0
4, 10290, Note_on_c, 2, 53, 77
4, 10290, Note_on_c, 2, 57, 77
4, 10290, Note_on_c, 2, 60, 77
4, 10300, Note_on_c, 2, 60, 0
4, 10304, Note_on_c, 2, 57, 0
4, 10304, Note_on_c, 2, 53, 0
4, 10320, Note_on_c, 2, 53, 90
4, 10320, Note_on_c, 2, 57, 90
4, 10320, Note_on_c, 2, 60, 90
4, 10330, Note_on_c, 2, 60, 0
4, 10332, Note_on_c, 2, 57, 0
4, 10333, Note_on_c, 2, 53, 0
4, 10350, Note_on_c, 2, 53, 79
4, 10350, Note_on_c, 2, 57, 79
4, 10350, Note_on_c, 2, 60, 79
4, 10360, Note_on_c, 2, 60, 0
4, 10360, Note_on_c, 2, 57, 0
4, 10364, Note_on_c, 2, 53, 0
4, 10380, Note_on_c, 2, 53, 91
4, 10380, Note_on_c, 2, 57, 91
4, 10380, Note_on_c, 2, 60, 91
4, 10392, Note_on_c, 2, 60, 0
4, 10393, Note_on_c, 2, 57, 0
4, 10395, Note_on_c, 2, 53, 0
4, 10410, Note_on_c, 2, 53, 80
4, 10410, Note_on_c, 2, 60, 80
4, 10410, Note_on_c, 2, 57, 80
4, 10420, Note_on_c, 2, 57, 0
4, 10422, Note_on_c, 2, 60, 0
4, 10423, Note_on_c, 2, 53, 0
4, 10440, Note_on_c, 2, 53, 91
4, 10440, Note_on_c, 2, 57, 91
4, 10440, Note_on_c, 2, 60, 91
4, 10442, Note_on_c, 2, 60, 0
4, 10452, Note_on_c, 2, 57, 0
4, 10454, Note_on_c, 2, 53, 0
4, 10470, Note_on_c, 2, 53, 77
4, 10470, Note_on_c, 2, 60, 77
4, 10470, Note_on_c, 2, 57, 77
4, 10480, Note_on_c, 2, 57, 0
4, 10481, Note_on_c, 2, 60, 0
4, 10484, Note_on_c, 2, 53, 0
4, 10500, Note_on_c, 2, 53, 91
4, 10500, Note_on_c, 2, 57, 91
4, 10500, Note_on_c, 2, 60, 91
4, 10511, Note_on_c, 2, 60, 0
4, 10513, Note_on_c, 2, 57, 0
4, 10514, Note_on_c, 2, 53, 0
4, 10530, Note_on_c, 2, 53, 78
4, 10530, Note_on_c, 2, 57, 78
4, 10530, Note_on_c, 2, 60, 78
4, 10539, Note_on_c, 2, 60, 0
4, 10542, Note_on_c, 2, 57, 0
4, 10542, Note_on_c, 2, 53, 0
4, 10560, Note_on_c, 2, 53, 91
4, 10560, Note_on_c, 2, 57, 91
4, 10560, Note_on_c, 2, 60, 91
4, 10574, Note_on_c, 2, 60, 0
4, 10576, Note_on_c, 2, 57, 0
4, 10576, Note_on_c, 2, 53, 0
4, 10590, Note_on_c, 2, 53, 76
4, 10590, Note_on_c, 2, 57, 76
4, 10590, Note_on_c, 2, 60, 76
4, 10602, Note_on_c, 2, 60, 0
4, 10602, Note_on_c, 2, 57, 0
4, 10602, Note_on_c, 2, 53, 0
4, 10620, Note_on_c, 2, 53, 91
4, 10620, Note_on_c, 2, 57, 91
4, 10620, Note_on_c, 2, 60, 91
4, 10631, Note_on_c, 2, 60, 0
4, 10634, Note_on_c, 2, 57, 0
4, 10635, Note_on_c, 2, 53, 0
4, 10650, Note_on_c, 2, 60, 77
4, 10650, Note_on_c, 2, 53, 77
4, 10650, Note_on_c, 2, 57, 77
4, 10662, Note_on_c, 2, 57, 0
4, 10662, Note_on_c, 2, 53, 0
4, 10664, Note_on_c, 2, 60, 0
4, 10680, Note_on_c, 2, 53, 91
4, 10680, Note_on_c, 2, 57, 91
4, 10680, Note_on_c, 2, 60, 91
4, 10692, Note_on_c, 2, 60, 0
4, 10692, Note_on_c, 2, 57, 0
4, 10692, Note_on_c, 2, 53, 0
4, 10710, Note_on_c, 2, 53, 80
4, 10710, Note_on_c, 2, 57, 80
4, 10710, Note_on_c, 2, 60, 80
4, 10722, Note_on_c, 2, 60, 0
4, 10722, Note_on_c, 2, 57, 0
4, 10722, Note_on_c, 2, 53, 0
4, 10740, Note_on_c, 2, 53, 91
4, 10740, Note_on_c, 2, 57, 91
4, 10740, Note_on_c, 2, 60, 91
4, 10752, Note_on_c, 2, 60, 0
4, 10752, Note_on_c, 2, 57, 0
4, 10753, Note_on_c, 2, 53, 0
4, 10770, Note_on_c, 2, 53, 79
4, 10770, Note_on_c, 2, 57, 79
4, 10770, Note_on_c, 2, 60, 79
4, 10781, Note_on_c, 2, 60, 0
4, 10781, Note_on_c, 2, 57, 0
4, 10784, Note_on_c, 2, 53, 0
4, 10800, Note_on_c, 2, 57, 91
4, 10800, Note_on_c, 2, 60, 91
4, 10800, Note_on_c, 2, 53, 91
4, 10812, Note_on_c, 2, 53, 0
4, 10814, Note_on_c, 2, 60, 0
4, 10814, Note_on_c, 2, 57, 0
4, 10830, Note_on_c, 2, 53, 78
4, 10830, Note_on_c, 2, 60, 78
4, 10830, Note_on_c, 2, 57, 78
4, 10842, Note_on_c, 2, 57, 0
4, 10844, Note_on_c, 2, 60, 0
4, 10846, Note_on_c, 2, 53, 0
4, 10860, Note_on_c, 2, 53, 91
4, 10860, Note_on_c, 2, 60, 91
4, 10860, Note_on_c, 2, 57, 91
4, 10872, Note_on_c, 2, 57, 0
4, 10874, Note_on_c, 2, 60, 0
4, 10875, Note_on_c, 2, 53, 0
4, 10890, Note_on_c, 2, 53, 78
4, 10890, Note_on_c, 2, 57, 78
4, 10890, Note_on_c, 2, 60, 78
4, 10902, Note_on_c, 2, 60, 0
4, 10902, Note_on_c, 2, 57, 0
4, 10902, Note_on_c, 2, 53, 0
4, 10920, Note_on_c, 2, 60, 92
4, 10920, Note_on_c, 2, 53, 92
4, 10920, Note_on_c, 2, 57, 92
4, 10932, Note_on_c, 2, 57, 0
4, 10932, Note_on_c, 2, 53, 0
4, 10936, Note_on_c, 2, 60, 0
4, 10950, Note_on_c, 2, 53, 92
4, 10950, Note_on_c, 2, 57, 92
4, 10950, Note_on_c, 2, 60, 92
4, 10962, Note_on_c, 2, 60, 0
4, 10962, Note_on_c, 2, 57, 0
4, 10962, Note_on_c, 2, 53, 0
4, 10980, Note_on_c, 2, 53, 80
4, 10980, Note_on_c, 2, 60, 80
4, 10980, Note_on_c, 2, 57, 80
4, 10992, Note_on_c, 2, 60, 0
4, 10993, Note_on_c, 2, 57, 0
4, 10993, Note_on_c, 2, 53, 0
4, 11010, Note_on_c, 2, 53, 92
4, 11010, Note_on_c, 2, 57, 92
4, 11010, Note_on_c, 2, 60, 92
4, 11017, Note_on_c, 2, 60, 0
4, 11021, Note_on_c, 2, 57, 0
4, 11024, Note_on_c, 2, 53, 0
4, 11040, Note_on_c, 2, 53, 80
4, 11040, Note_on_c, 2, 62, 80
4, 11040, Note_on_c, 2, 58, 80
4, 11043, Note_on_c, 2, 58, 0
4, 11052, Note_on_c, 2, 62, 0
4, 11055, Note_on_c, 2, 53, 0
4, 11070, Note_on_c, 2, 62, 92
4, 11070, Note_on_c, 2, 53, 92
4, 11070, Note_on_c, 2, 58, 92
4, 11082, Note_on_c, 2, 53, 0
4, 11083, Note_on_c, 2, 62, 0
4, 11084, Note_on_c, 2, 58, 0
4, 11100, Note_on_c, 2, 53, 78
4, 11100, Note_on_c, 2, 58, 78
4, 11100, Note_on_c, 2, 62, 78
4, 11112, Note_on_c, 2, 62, 0
4, 11112, Note_on_c, 2, 58, 0
4, 11115, Note_on_c, 2, 53, 0
4, 11130, Note_on_c, 2, 53, 92
4, 11130, Note_on_c, 2, 58, 92
4, 11130, Note_on_c, 2, 62, 92
4, 11142, Note_on_c, 2, 58, 0
4, 11143, Note_on_c, 2, 62, 0
4, 11143, Note_on_c, 2, 53, 0
4, 11160, Note_on_c, 2, 53, 80
4, 11160, Note_on_c, 2, 58, 80
4, 11160, Note_on_c, 2, 62, 80
4, 11172, Note_on_c, 2, 58, 0
4, 11174, Note_on_c, 2, 62, 0
4, 11176, Note_on_c, 2, 53, 0
4, 11190, Note_on_c, 2, 53, 92
4, 11190, Note_on_c, 2, 62, 92
4, 11190, Note_on_c, 2, 58, 92
4, 11200, Note_on_c, 2, 58, 0
4, 11204, Note_on_c, 2, 62, 0
4, 11204, Note_on_c, 2, 53, 0
4, 11220, Note_on_c, 2, 53, 82
4, 11220, Note_on_c, 2, 58, 82
4, 11220, Note_on_c, 2, 62, 82
4, 11230, Note_on_c, 2, 58, 0
4, 11233, Note_on_c, 2, 62, 0
4, 11234, Note_on_c, 2, 53, 0
4, 11250, Note_on_c, 2, 53, 97
4, 11250, Note_on_c, 2, 62, 97
4, 11250, Note_on_c, 2, 58, 97
4, 11259, Note_on_c, 2, 58, 0
4, 11263, Note_on_c, 2, 53, 0
4, 11264, Note_on_c, 2, 62, 0
4, 11280, Note_on_c, 2, 53, 82
4, 11280, Note_on_c, 2, 62, 82
4, 11280, Note_on_c, 2, 58, 82
4, 11290, Note_on_c, 2, 58, 0
4, 11295, Note_on_c, 2, 53, 0
4, 11296, Note_on_c, 2, 62, 0
4, 11310, Note_on_c, 2, 53, 97
4, 11310, Note_on_c, 2, 62, 97
4, 11310, Note_on_c, 2, 58, 97
4, 11320, Note_on_c, 2, 58, 0
4, 11325, Note_on_c, 2, 62, 0
4, 11325, Note_on_c, 2, 53, 0
4, 11340, Note_on_c, 2, 53, 83
4, 11340, Note_on_c, 2, 62, 83
4, 11340, Note_on_c, 2, 58, 83
4, 11350, Note_on_c, 2, 58, 0
4, 11355, Note_on_c, 2, 62, 0
4, 11355, Note_on_c, 2, 53, 0
4, 11370, Note_on_c, 2, 53, 97
4, 11370, Note_on_c, 2, 58, 97
4, 11370, Note_on_c, 2, 62, 97
4, 11381, Note_on_c, 2, 58, 0
4, 11384, Note_on_c, 2, 53, 0
4, 11385, Note_on_c, 2, 62, 0
4, 11400, Note_on_c, 2, 53, 78
4, 11400, Note_on_c, 2, 58, 78
4, 11400, Note_on_c, 2, 62, 78
4, 11413, Note_on_c, 2, 58, 0
4, 11415, Note_on_c, 2, 62, 0
4, 11415, Note_on_c, 2, 53, 0
4, 11430, Note_on_c, 2, 53, 97
4, 11430, Note_on_c, 2, 58, 97
4, 11430, Note_on_c, 2, 62, 97
4, 11442, Note_on_c, 2, 58, 0
4, 11444, Note_on_c, 2, 53, 0
4, 11445, Note_on_c, 2, 62, 0
4, 11460, Note_on_c, 2, 62, 80
4, 11460, Note_on_c, 2, 53, 80
4, 11460, Note_on_c, 2, 58, 80
4, 11471, Note_on_c, 2, 58, 0
4, 11473, Note_on_c, 2, 53, 0
4, 11479, Note_on_c, 2, 62, 0
4, 11490, Note_on_c, 2, 62, 97
4, 11490, Note_on_c, 2, 53, 97
4, 11490, Note_on_c, 2, 58, 97
4, 11501, Note_on_c, 2, 58, 0
4, 11503, Note_on_c, 2, 53, 0
4, 11507, Note_on_c, 2, 62, 0
4, 11520, Note_on_c, 2, 53, 79
4, 11520, Note_on_c, 2, 57, 79
4, 11520, Note_on_c, 2, 60, 79
4, 11525, Note_on_c, 2, 60, 0
4, 11530, Note_on_c, 2, 57, 0
4, 11531, Note_on_c, 2, 53, 0
4, 11550, Note_on_c, 2, 53, 97
4, 11550, Note_on_c, 2, 57, 97
4, 11550, Note_on_c, 2, 60, 97
4, 11559, Note_on_c, 2, 60, 0
4, 11562, Note_on_c, 2, 57, 0
4, 11562, Note_on_c, 2, 53, 0
4, 11580, Note_on_c, 2, 53, 82
4, 11580, Note_on_c, 2, 57, 82
4, 11580, Note_on_c, 2, 60, 82
4, 11590, Note_on_c, 2, 60, 0
4, 11594, Note_on_c, 2, 57, 0
4, 11594, Note_on_c, 2, 53, 0
4, 11610, Note_on_c, 2, 57, 97
4, 11610, Note_on_c, 2, 53, 97
4, 11610, Note_on_c, 2, 60, 97
4, 11620, Note_on_c, 2, 60, 0
4, 11620, Note_on_c, 2, 53, 0
4, 11623, Note_on_c, 2, 57, 0
4, 11640, Note_on_c, 2, 53, 80
4, 11640, Note_on_c, 2, 57, 80
4, 11640, Note_on_c, 2, 60, 80
4, 11652, Note_on_c, 2, 60, 0
4, 11653, Note_on_c, 2, 53, 0
4, 11654, Note_on_c, 2, 57, 0
4, 11670, Note_on_c, 2, 53, 97
4, 11670, Note_on_c, 2, 57, 97
4, 11670, Note_on_c, 2, 60, 97
4, 11680, Note_on_c, 2, 60, 0
4, 11682, Note_on_c, 2, 57, 0
4, 11682, Note_on_c, 2, 53, 0
4, 11700, Note_on_c, 2, 53, 81
4, 11700, Note_on_c, 2, 57, 81
4, 11700, Note_on_c, 2, 60, 81
4, 11710, Note_on_c, 2, 60, 0
4, 11713, Note_on_c, 2, 53, 0
4, 11714, Note_on_c, 2, 57, 0
4, 11730, Note_on_c, 2, 53, 97
4, 11730, Note_on_c, 2, 57, 97
4, 11730, Note_on_c, 2, 60, 97
4, 11741, Note_on_c, 2, 60, 0
4, 11743, Note_on_c, 2, 53, 0
4, 11744, Note_on_c, 2, 57, 0
4, 11760, Note_on_c, 2, 57, 79
4, 11760, Note_on_c, 2, 53, 79
4, 11760, Note_on_c, 2, 60, 79
4, 11770, Note_on_c, 2, 53, 0
4, 11771, Note_on_c, 2, 60, 0
4, 11774, Note_on_c, 2, 57, 0
4, 11790, Note_on_c, 2, 57, 97
4, 11790, Note_on_c, 2, 53, 97
4, 11790, Note_on_c, 2, 60, 97
4, 11798, Note_on_c, 2, 60, 0
4, 11800, Note_on_c, 2, 53, 0
4, 11802, Note_on_c, 2, 57, 0
4, 11820, Note_on_c, 2, 57, 80
4, 11820, Note_on_c, 2, 53, 80
4, 11820, Note_on_c, 2, 60, 80
4, 11830, Note_on_c, 2, 60, 0
4, 11830, Note_on_c, 2, 53, 0
4, 11835, Note_on_c, 2, 57, 0
4, 11850, Note_on_c, 2, 53, 97
4, 11850, Note_on_c, 2, 57, 97
4, 11850, Note_on_c, 2, 60, 97
4, 11864, Note_on_c, 2, 60, 0
4, 11864, Note_on_c, 2, 57, 0
4, 11864, Note_on_c, 2, 53, 0
4, 11880, Note_on_c, 2, 57, 80
4, 11880, Note_on_c, 2, 53, 80
4, 11880, Note_on_c, 2, 60, 80
4, 11890, Note_on_c, 2, 60, 0
4, 11890, Note_on_c, 2, 53, 0
4, 11894, Note_on_c, 2, 57, 0
4, 11910, Note_on_c, 2, 53, 97
4, 11910, Note_on_c, 2, 57, 97
4, 11910, Note_on_c, 2, 60, 97
4, 11919, Note_on_c, 2, 60, 0
4, 11921, Note_on_c, 2, 53, 0
4, 11922, Note_on_c, 2, 57, 0
4, 11940, Note_on_c, 2, 53, 81
4, 11940, Note_on_c, 2, 57, 81
4, 11940, Note_on_c, 2, 60, 81
4, 11949, Note_on_c, 2, 60, 0
4, 11952, Note_on_c, 2, 57, 0
4, 11952, Note_on_c, 2, 53, 0
4, 11970, Note_on_c, 2, 57, 95
4, 11970, Note_on_c, 2, 53, 95
4, 11970, Note_on_c, 2, 60, 95
4, 11978, Note_on_c, 2, 60, 0
4, 11979, Note_on_c, 2, 53, 0
4, 11984, Note_on_c, 2, 57, 0
4, 12000, Note_on_c, 2, 55, 81
4, 12000, Note_on_c, 2, 60, 81
4, 12000, Note_on_c, 2, 64, 81
4, 12008, Note_on_c, 2, 64, 0
4, 12011, Note_on_c, 2, 60, 0
4, 12011, Note_on_c, 2, 55, 0
4, 12030, Note_on_c, 2, 55, 97
4, 12030, Note_on_c, 2, 64, 97
4, 12030, Note_on_c, 2, 60, 97
4, 12043, Note_on_c, 2, 60, 0
4, 12043, Note_on_c, 2, 55, 0
4, 12044, Note_on_c, 2, 64, 0
4, 12060, Note_on_c, 2, 55, 83
4, 12060, Note_on_c, 2, 60, 83
4, 12060, Note_on_c, 2, 64, 83
4, 12070, Note_on_c, 2, 64, 0
4, 12071, Note_on_c, 2, 60, 0
4, 12075, Note_on_c, 2, 55, 0
4, 12090, Note_on_c, 2, 55, 97
4, 12090, Note_on_c, 2, 60, 97
4, 12090, Note_on_c, 2, 64, 97
4, 12103, Note_on_c, 2, 55, 0
4, 12104, Note_on_c, 2, 64, 0
4, 12104, Note_on_c, 2, 60, 0
4, 12120, Note_on_c, 2, 60, 83
4, 12120, Note_on_c, 2, 64, 83
4, 12120, Note_on_c, 2, 55, 83
4, 12132, Note_on_c, 2, 55, 0
4, 12133, Note_on_c, 2, 64, 0
4, 12134, Note_on_c, 2, 60, 0
4, 12150, Note_on_c, 2, 55, 97
4, 12150, Note_on_c, 2, 60, 97
4, 12150, Note_on_c, 2, 64, 97
4, 12163, Note_on_c, 2, 55, 0
4, 12164, Note_on_c, 2, 60, 0
4, 12165, Note_on_c, 2, 64, 0
4, 12180, Note_on_c, 2, 55, 84
4, 12180, Note_on_c, 2, 60, 84
4, 12180, Note_on_c, 2, 64, 84
4, 12192, Note_on_c, 2, 60, 0
4, 12192, Note_on_c, 2, 55, 0
4, 12193, Note_on_c, 2, 64, 0
4, 12210, Note_on_c, 2, 60, 97
4, 12210, Note_on_c, 2, 55, 97
4, 12210, Note_on_c, 2, 64, 97
4, 12224, Note_on_c, 2, 64, 0
4, 12224, Note_on_c, 2, 55, 0
4, 12225, Note_on_c, 2, 60, 0
4, 12240, Note_on_c, 2, 58, 110
4, 12240, Note_on_c, 2, 53, 110
4, 12240, Note_on_c, 2, 62, 110
4, 12249, Note_on_c, 2, 62, 0
4, 12252, Note_on_c, 2, 58, 0
4, 12254, Note_on_c, 2, 53, 0
4, 12270, Note_on_c, 2, 53, 93
4, 12270, Note_on_c, 2, 58, 93
4, 12270, Note_on_c, 2, 62, 93
4, 12284, Note_on_c, 2, 62, 0
4, 12284, Note_on_c, 2, 58, 0
4, 12284, Note_on_c, 2, 53, 0
4, 12300, Note_on_c, 2, 53, 110
4, 12300, Note_on_c, 2, 58, 110
4, 12300, Note_on_c, 2, 62, 110
4, 12314, Note_on_c, 2, 62, 0
4, 12314, Note_on_c, 2, 58, 0
4, 12314, Note_on_c, 2, 53, 0
4, 12330, Note_on_c, 2, 53, 89
4, 12330, Note_on_c, 2, 58, 89
4, 12330, Note_on_c, 2, 62, 89
4, 12344, Note_on_c, 2, 62, 0
4, 12344, Note_on_c, 2, 58, 0
4, 12344, Note_on_c, 2, 53, 0
4, 12360, Note_on_c, 2, 53, 110
4, 12360, Note_on_c, 2, 58, 110
4, 12360, Note_on_c, 2, 62, 110
4, 12374, Note_on_c, 2, 62, 0
4, 12374, Note_on_c, 2, 58, 0
4, 12374, Note_on_c, 2, 53, 0
4, 12390, Note_on_c, 2, 53, 88
4, 12390, Note_on_c, 2, 58, 88
4, 12390, Note_on_c, 2, 62, 88
4, 12404, Note_on_c, 2, 62, 0
4, 12404, Note_on_c, 2, 58, 0
4, 12404, Note_on_c, 2, 53, 0
4, 12420, Note_on_c, 2, 53, 110
4, 12420, Note_on_c, 2, 58, 110
4, 12420, Note_on_c, 2, 62, 110
4, 12434, Note_on_c, 2, 62, 0
4, 12434, Note_on_c, 2, 58, 0
4, 12434, Note_on_c, 2, 53, 0
4, 12450, Note_on_c, 2, 53, 89
4, 12450, Note_on_c, 2, 58, 89
4, 12450, Note_on_c, 2, 62, 89
4, 12464, Note_on_c, 2, 62, 0
4, 12464, Note_on_c, 2, 58, 0
4, 12464, Note_on_c, 2, 53, 0
4, 12480, Note_on_c, 2, 53, 103
4, 12480, Note_on_c, 2, 57, 103
4, 12480, Note_on_c, 2, 60, 103
4, 12490, Note_on_c, 2, 60, 0
4, 12490, Note_on_c, 2, 57, 0
4, 12490, Note_on_c, 2, 53, 0
4, 12510, Note_on_c, 2, 60, 82
4, 12510, Note_on_c, 2, 57, 82
4, 12510, Note_on_c, 2, 53, 82
4, 12520, Note_on_c, 2, 60, 0
4, 12522, Note_on_c, 2, 53, 0
4, 12522, Note_on_c, 2, 57, 0
4, 12540, Note_on_c, 2, 53, 91
4, 12540, Note_on_c, 2, 57, 91
4, 12540, Note_on_c, 2, 60, 91
4, 12553, Note_on_c, 2, 60, 0
4, 12554, Note_on_c, 2, 57, 0
4, 12556, Note_on_c, 2, 53, 0
4, 12570, Note_on_c, 2, 53, 83
4, 12570, Note_on_c, 2, 57, 83
4, 12570, Note_on_c, 2, 60, 83
4, 12581, Note_on_c, 2, 60, 0
4, 12582, Note_on_c, 2, 57, 0
4, 12582, Note_on_c, 2, 53, 0
4, 12600, Note_on_c, 2, 57, 92
4, 12600, Note_on_c, 2, 53, 92
4, 12600, Note_on_c, 2, 60, 92
4, 12609, Note_on_c, 2, 60, 0
4, 12612, Note_on_c, 2, 53, 0
4, 12614, Note_on_c, 2, 57, 0
4, 12630, Note_on_c, 2, 57, 80
4, 12630, Note_on_c, 2, 53, 80
4, 12630, Note_on_c, 2, 60, 80
4, 12642, Note_on_c, 2, 53, 0
4, 12643, Note_on_c, 2, 60, 0
4, 12644, Note_on_c, 2, 57, 0
4, 12660, Note_on_c, 2, 53, 94
4, 12660, Note_on_c, 2, 57, 94
4, 12660, Note_on_c, 2, 60, 94
4, 12671, Note_on_c, 2, 60, 0
4, 12673, Note_on_c, 2, 57, 0
4, 12673, Note_on_c, 2, 53, 0
4, 12690, Note_on_c, 2, 53, 82
4, 12690, Note_on_c, 2, 57, 82
4, 12690, Note_on_c, 2, 60, 82
4, 12702, Note_on_c, 2, 60, 0
4, 12703, Note_on_c, 2, 53, 0
4, 12704, Note_on_c, 2, 57, 0
4, 12720, Note_on_c, 2, 53, 94
4, 12720, Note_on_c, 2, 57, 94
4, 12720, Note_on_c, 2, 60, 94
4, 12734, Note_on_c, 2, 60, 0
4, 12734, Note_on_c, 2, 57, 0
4, 12734, Note_on_c, 2, 53, 0
4, 12750, Note_on_c, 2, 53, 80
4, 12750, Note_on_c, 2, 57, 80
4, 12750, Note_on_c, 2, 60, 80
4, 12762, Note_on_c, 2, 60, 0
4, 12762, Note_on_c, 2, 53, 0
4, 12763, Note_on_c, 2, 57, 0
4, 12780, Note_on_c, 2, 57, 95
4, 12780, Note_on_c, 2, 60, 95
4, 12780, Note_on_c, 2, 53, 95
4, 12791, Note_on_c, 2, 53, 0
4, 12794, Note_on_c, 2, 60, 0
4, 12796, Note_on_c, 2, 57, 0
4, 12810, Note_on_c, 2, 57, 83
4, 12810, Note_on_c, 2, 60, 83
4, 12810, Note_on_c, 2, 53, 83
4, 12822, Note_on_c, 2, 53, 0
4, 12823, Note_on_c, 2, 57, 0
4, 12824, Note_on_c, 2, 60, 0
4, 12840, Note_on_c, 2, 53, 72
4, 12840, Note_on_c, 2, 57, 76
4, 12840, Note_on_c, 2, 60, 94
4, 12853, Note_on_c, 2, 60, 0
4, 12854, Note_on_c, 2, 57, 0
4, 12854, Note_on_c, 2, 53, 0
4, 12870, Note_on_c, 2, 53, 80
4, 12870, Note_on_c, 2, 57, 80
4, 12870, Note_on_c, 2, 60, 80
4, 12882, Note_on_c, 2, 57, 0
4, 12883, Note_on_c, 2, 53, 0
4, 12884, Note_on_c, 2, 60, 0
4, 12900, Note_on_c, 2, 53, 74
4, 12900, Note_on_c, 2, 57, 86
4, 12900, Note_on_c, 2, 60, 96
4, 12912, Note_on_c, 2, 60, 0
4, 12912, Note_on_c, 2, 57, 0
4, 12912, Note_on_c, 2, 53, 0
4, 12930, Note_on_c, 2, 53, 81
4, 12930, Note_on_c, 2, 57, 81
4, 12930, Note_on_c, 2, 60, 81
4, 12940, Note_on_c, 2, 57, 0
4, 12941, Note_on_c, 2, 60, 0
4, 12941, Note_on_c, 2, 53, 0
4, 12960, Note_on_c, 2, 53, 84
4, 12960, Note_on_c, 2, 57, 84
4, 12960, Note_on_c, 2, 60, 91
4, 12971, Note_on_c, 2, 60, 0
4, 12972, Note_on_c, 2, 57, 0
4, 12972, Note_on_c, 2, 53, 0
4, 12990, Note_on_c, 2, 53, 84
4, 12990, Note_on_c, 2, 57, 84
4, 12990, Note_on_c, 2, 60, 84
4, 13000, Note_on_c, 2, 60, 0
4, 13002, Note_on_c, 2, 57, 0
4, 13002, Note_on_c, 2, 53, 0
4, 13020, Note_on_c, 2, 53, 89
4, 13020, Note_on_c, 2, 57, 89
4, 13020, Note_on_c, 2, 60, 89
4, 13033, Note_on_c, 2, 60, 0
4, 13034, Note_on_c, 2, 57, 0
4, 13034, Note_on_c, 2, 53, 0
4, 13050, Note_on_c, 2, 53, 79
4, 13050, Note_on_c, 2, 57, 79
4, 13050, Note_on_c, 2, 60, 79
4, 13061, Note_on_c, 2, 60, 0
4, 13063, Note_on_c, 2, 53, 0
4, 13064, Note_on_c, 2, 57, 0
4, 13080, Note_on_c, 2, 57, 89
4, 13080, Note_on_c, 2, 53, 89
4, 13080, Note_on_c, 2, 60, 89
4, 13091, Note_on_c, 2, 60, 0
4, 13093, Note_on_c, 2, 53, 0
4, 13096, Note_on_c, 2, 57, 0
4, 13110, Note_on_c, 2, 53, 77
4, 13110, Note_on_c, 2, 57, 77
4, 13110, Note_on_c, 2, 60, 77
4, 13120, Note_on_c, 2, 60, 0
4, 13124, Note_on_c, 2, 57, 0
4, 13124, Note_on_c, 2, 53, 0
4, 13140, Note_on_c, 2, 57, 89
4, 13140, Note_on_c, 2, 53, 89
4, 13140, Note_on_c, 2, 60, 89
4, 13152, Note_on_c, 2, 60, 0
4, 13153, Note_on_c, 2, 53, 0
4, 13156, Note_on_c, 2, 57, 0
4, 13170, Note_on_c, 2, 53, 77
4, 13170, Note_on_c, 2, 57, 77
4, 13170, Note_on_c, 2, 60, 77
4, 13180, Note_on_c, 2, 60, 0
4, 13184, Note_on_c, 2, 57, 0
4, 13184, Note_on_c, 2, 53, 0
4, 13200, Note_on_c, 2, 53, 90
4, 13200, Note_on_c, 2, 57, 90
4, 13200, Note_on_c, 2, 60, 90
4, 13210, Note_on_c, 2, 60, 0
4, 13212, Note_on_c, 2, 57, 0
4, 13213, Note_on_c, 2, 53, 0
4, 13230, Note_on_c, 2, 53, 79
4, 13230, Note_on_c, 2, 57, 79
4, 13230, Note_on_c, 2, 60, 79
4, 13240, Note_on_c, 2, 60, 0
4, 13240, Note_on_c, 2, 57, 0
4, 13244, Note_on_c, 2, 53, 0
4, 13260, Note_on_c, 2, 53, 91
4, 13260, Note_on_c, 2, 57, 91
4, 13260, Note_on_c, 2, 60, 91
4, 13272, Note_on_c, 2, 60, 0
4, 13273, Note_on_c, 2, 57, 0
4, 13275, Note_on_c, 2, 53, 0
4, 13290, Note_on_c, 2, 53, 80
4, 13290, Note_on_c, 2, 60, 80
4, 13290, Note_on_c, 2, 57, 80
4, 13300, Note_on_c, 2, 57, 0
4, 13302, Note_on_c, 2, 60, 0
4, 13303, Note_on_c, 2, 53, 0
4, 13320, Note_on_c, 2, 53, 91
4, 13320, Note_on_c, 2, 57, 91
4, 13320, Note_on_c, 2, 60, 91
4, 13322, Note_on_c, 2, 60, 0
4, 13332, Note_on_c, 2, 57, 0
4, 13334, Note_on_c, 2, 53, 0
4, 13350, Note_on_c, 2, 53, 77
4, 13350, Note_on_c, 2, 60, 77
4, 13350, Note_on_c, 2, 57, 77
4, 13360, Note_on_c, 2, 57, 0
4, 13361, Note_on_c, 2, 60, 0
4, 13364, Note_on_c, 2, 53, 0
4, 13380, Note_on_c, 2, 53, 91
4, 13380, Note_on_c, 2, 57, 91
4, 13380, Note_on_c, 2, 60, 91
4, 13391, Note_on_c, 2, 60, 0
4, 13393, Note_on_c, 2, 57, 0
4, 13394, Note_on_c, 2, 53, 0
4, 13410, Note_on_c, 2, 53, 78
4, 13410, Note_on_c, 2, 57, 78
4, 13410, Note_on_c, 2, 60, 78
4, 13419, Note_on_c, 2, 60, 0
4, 13422, Note_on_c, 2, 57, 0
4, 13422, Note_on_c, 2, 53, 0
4, 13425, Note_on_c, 2, 48, 84
4, 13437, Note_on_c, 2, 48, 0
4, 13440, Note_on_c, 2, 53, 91
4, 13440, Note_on_c, 2, 57, 91
4, 13440, Note_on_c, 2, 60, 91
4, 13454, Note_on_c, 2, 60, 0
4, 13456, Note_on_c, 2, 57, 0
4, 13456, Note_on_c, 2, 53, 0
4, 13470, Note_on_c, 2, 53, 76
4, 13470, Note_on_c, 2, 57, 76
4, 13470, Note_on_c, 2, 60, 76
4, 13482, Note_on_c, 2, 60, 0
4, 13482, Note_on_c, 2, 57, 0
4, 13482, Note_on_c, 2, 53, 0
4, 13500, Note_on_c, 2, 53, 91
4, 13500, Note_on_c, 2, 57, 91
4, 13500, Note_on_c, 2, 60, 91
4, 13511, Note_on_c, 2, 60, 0
4, 13514, Note_on_c, 2, 57, 0
4, 13515, Note_on_c, 2, 53, 0
4, 13530, Note_on_c, 2, 60, 77
4, 13530, Note_on_c, 2, 53, 77
4, 13530, Note_on_c, 2, 57, 77
4, 13542, Note_on_c, 2, 57, 0
4, 13542, Note_on_c, 2, 53, 0
4, 13544, Note_on_c, 2, 60, 0
4, 13560, Note_on_c, 2, 53, 91
4, 13560, Note_on_c, 2, 57, 91
4, 13560, Note_on_c, 2, 60, 91
4, 13572, Note_on_c, 2, 60, 0
4, 13572, Note_on_c, 2, 57, 0
4, 13572, Note_on_c, 2, 53, 0
4, 13590, Note_on_c, 2, 53, 80
4, 13590, Note_on_c, 2, 57, 80
4, 13590, Note_on_c, 2, 60, 80
4, 13602, Note_on_c, 2, 60, 0
4, 13602, Note_on_c, 2, 57, 0
4, 13602, Note_on_c, 2, 53, 0
4, 13620, Note_on_c, 2, 53, 91
4, 13620, Note_on_c, 2, 57, 91
4, 13620, Note_on_c, 2, 60, 91
4, 13632, Note_on_c, 2, 60, 0
4, 13632, Note_on_c, 2, 57, 0
4, 13633, Note_on_c, 2, 53, 0
4, 13650, Note_on_c, 2, 53, 79
4, 13650, Note_on_c, 2, 57, 79
4, 13650, Note_on_c, 2, 60, 79
4, 13661, Note_on_c, 2, 60, 0
4, 13661, Note_on_c, 2, 57, 0
4, 13664, Note_on_c, 2, 53, 0
4, 13665, Note_on_c, 2, 48, 84
4, 13677, Note_on_c, 2, 48, 0
4, 13680, Note_on_c, 2, 57, 91
4, 13680, Note_on_c, 2, 60, 91
4, 13680, Note_on_c, 2, 53, 91
4, 13692, Note_on_c, 2, 53, 0
4, 13694, Note_on_c, 2, 60, 0
4, 13694, Note_on_c, 2, 57, 0
4, 13710, Note_on_c, 2, 53, 78
4, 13710, Note_on_c, 2, 60, 78
4, 13710, Note_on_c, 2, 57, 78
4, 13722, Note_on_c, 2, 57, 0
4, 13724, Note_on_c, 2, 60, 0
4, 13726, Note_on_c, 2, 53, 0
4, 13740, Note_on_c, 2, 53, 91
4, 13740, Note_on_c, 2, 60, 91
4, 13740, Note_on_c, 2, 57, 91
4, 13752, Note_on_c, 2, 57, 0
4, 13754, Note_on_c, 2, 60, 0
4, 13755, Note_on_c, 2, 53, 0
4, 13770, Note_on_c, 2, 53, 78
4, 13770, Note_on_c, 2, 57, 78
4, 13770, Note_on_c, 2, 60, 78
4, 13782, Note_on_c, 2, 60, 0
4, 13782, Note_on_c, 2, 57, 0
4, 13782, Note_on_c, 2, 53, 0
4, 13800, Note_on_c, 2, 60, 92
4, 13800, Note_on_c, 2, 53, 92
4, 13800, Note_on_c, 2, 57, 92
4, 13812, Note_on_c, 2, 57, 0
4, 13812, Note_on_c, 2, 53, 0
4, 13816, Note_on_c, 2, 60, 0
4, 13830, Note_on_c, 2, 53, 92
4, 13830, Note_on_c, 2, 57, 92
4, 13830, Note_on_c, 2, 60, 92
4, 13842, Note_on_c, 2, 60, 0
4, 13842, Note_on_c, 2, 57, 0
4, 13842, Note_on_c, 2, 53, 0
4, 13860, Note_on_c, 2, 53, 80
4, 13860, Note_on_c, 2, 60, 80
4, 13860, Note_on_c, 2, 57, 80
4, 13872, Note_on_c, 2, 60, 0
4, 13873, Note_on_c, 2, 57, 0
4, 13873, Note_on_c, 2, 53, 0
4, 13890, Note_on_c, 2, 53, 92
4, 13890, Note_on_c, 2, 57, 92
4, 13890, Note_on_c, 2, 60, 92
4, 13897, Note_on_c, 2, 60, 0
4, 13901, Note_on_c, 2, 57, 0
4, 13904, Note_on_c, 2, 53, 0
4, 13920, Note_on_c, 2, 53, 80
4, 13920, Note_on_c, 2, 62, 80
4, 13920, Note_on_c, 2, 58, 80
4, 13923, Note_on_c, 2, 58, 0
4, 13932, Note_on_c, 2, 62, 0
4, 13935, Note_on_c, 2, 53, 0
4, 13950, Note_on_c, 2, 62, 92
4, 13950, Note_on_c, 2, 53, 92
4, 13950, Note_on_c, 2, 58, 92
4, 13962, Note_on_c, 2, 53, 0
4, 13963, Note_on_c, 2, 62, 0
4, 13964, Note_on_c, 2, 58, 0
4, 13980, Note_on_c, 2, 53, 78
4, 13980, Note_on_c, 2, 58, 78
4, 13980, Note_on_c, 2, 62, 78
4, 13992, Note_on_c, 2, 62, 0
4, 13992, Note_on_c, 2, 58, 0
4, 13995, Note_on_c, 2, 53, 0
4, 14010, Note_on_c, 2, 53, 92
4, 14010, Note_on_c, 2, 58, 92
4, 14010, Note_on_c, 2, 62, 92
4, 14022, Note_on_c, 2, 58, 0
4, 14023, Note_on_c, 2, 62, 0
4, 14023, Note_on_c, 2, 53, 0
4, 14040, Note_on_c, 2, 53, 80
4, 14040, Note_on_c, 2, 58, 80
4, 14040, Note_on_c, 2, 62, 80
4, 14052, Note_on_c, 2, 58, 0
4, 14054, Note_on_c, 2, 62, 0
4, 14056, Note_on_c, 2, 53, 0
4, 14070, Note_on_c, 2, 53, 92
4, 14070, Note_on_c, 2, 62, 92
4, 14070, Note_on_c, 2, 58, 92
4, 14080, Note_on_c, 2, 58, 0
4, 14084, Note_on_c, 2, 62, 0
4, 14084, Note_on_c, 2, 53, 0
4, 14100, Note_on_c, 2, 53, 82
4, 14100, Note_on_c, 2, 58, 82
4, 14100, Note_on_c, 2, 62, 82
4, 14110, Note_on_c, 2, 58, 0
4, 14113, Note_on_c, 2, 62, 0
4, 14114, Note_on_c, 2, 53, 0
4, 14130, Note_on_c, 2, 53, 97
4, 14130, Note_on_c, 2, 62, 97
4, 14130, Note_on_c, 2, 58, 97
4, 14139, Note_on_c, 2, 58, 0
4, 14143, Note_on_c, 2, 53, 0
4, 14144, Note_on_c, 2, 62, 0
4, 14160, Note_on_c, 2, 53, 82
4, 14160, Note_on_c, 2, 62, 82
4, 14160, Note_on_c, 2, 58, 82
4, 14170, Note_on_c, 2, 58, 0
4, 14175, Note_on_c, 2, 53, 0
4, 14176, Note_on_c, 2, 62, 0
4, 14190, Note_on_c, 2, 53, 97
4, 14190, Note_on_c, 2, 62, 97
4, 14190, Note_on_c, 2, 58, 97
4, 14200, Note_on_c, 2, 58, 0
4, 14205, Note_on_c, 2, 62, 0
4, 14205, Note_on_c, 2, 53, 0
4, 14220, Note_on_c, 2, 53, 83
4, 14220, Note_on_c, 2, 62, 83
4, 14220, Note_on_c, 2, 58, 83
4, 14230, Note_on_c, 2, 58, 0
4, 14235, Note_on_c, 2, 62, 0
4, 14235, Note_on_c, 2, 53, 0
4, 14250, Note_on_c, 2, 53, 97
4, 14250, Note_on_c, 2, 58, 97
4, 14250, Note_on_c, 2, 62, 97
4, 14261, Note_on_c, 2, 58, 0
4, 14264, Note_on_c, 2, 53, 0
4, 14265, Note_on_c, 2, 62, 0
4, 14280, Note_on_c, 2, 53, 78
4, 14280, Note_on_c, 2, 58, 78
4, 14280, Note_on_c, 2, 62, 78
4, 14293, Note_on_c, 2, 58, 0
4, 14295, Note_on_c, 2, 62, 0
4, 14295, Note_on_c, 2, 53, 0
4, 14310, Note_on_c, 2, 53, 97
4, 14310, Note_on_c, 2, 58, 97
4, 14310, Note_on_c, 2, 62, 97
4, 14322, Note_on_c, 2, 58, 0
4, 14324, Note_on_c, 2, 53, 0
4, 14325, Note_on_c, 2, 62, 0
4, 14340, Note_on_c, 2, 62, 80
4, 14340, Note_on_c, 2, 53, 80
4, 14340, Note_on_c, 2, 58, 80
4, 14351, Note_on_c, 2, 58, 0
4, 14353, Note_on_c, 2, 53, 0
4, 14359, Note_on_c, 2, 62, 0
4, 14370, Note_on_c, 2, 62, 97
4, 14370, Note_on_c, 2, 53, 97
4, 14370, Note_on_c, 2, 58, 97
4, 14381, Note_on_c, 2, 58, 0
4, 14383, Note_on_c, 2, 53, 0
4, 14385, Note_on_c, 2, 48, 84
4, 14387, Note_on_c, 2, 62, 0
4, 14397, Note_on_c, 2, 48, 0
4, 14400, Note_on_c, 2, 53, 79
4, 14400, Note_on_c, 2, 57, 79
4, 14400, Note_on_c, 2, 60, 79
4, 14405, Note_on_c, 2, 60, 0
4, 14410, Note_on_c, 2, 57, 0
4, 14411, Note_on_c, 2, 53, 0
4, 14430, Note_on_c, 2, 53, 97
4, 14430, Note_on_c, 2, 57, 97
4, 14430, Note_on_c, 2, 60, 97
4, 14439, Note_on_c, 2, 60, 0
4, 14442, Note_on_c, 2, 57, 0
4, 14442, Note_on_c, 2, 53, 0
4, 14460, Note_on_c, 2, 53, 82
4, 14460, Note_on_c, 2, 57, 82
4, 14460, Note_on_c, 2, 60, 82
4, 14470, Note_on_c, 2, 60, 0
4, 14474, Note_on_c, 2, 57, 0
4, 14474, Note_on_c, 2, 53, 0
4, 14490, Note_on_c, 2, 57, 97
4, 14490, Note_on_c, 2, 53, 97
4, 14490, Note_on_c, 2, 60, 97
4, 14500, Note_on_c, 2, 60, 0
4, 14500, Note_on_c, 2, 53, 0
4, 14503, Note_on_c, 2, 57, 0
4, 14520, Note_on_c, 2, 53, 80
4, 14520, Note_on_c, 2, 57, 80
4, 14520, Note_on_c, 2, 60, 80
4, 14532, Note_on_c, 2, 60, 0
4, 14533, Note_on_c, 2, 53, 0
4, 14534, Note_on_c, 2, 57, 0
4, 14550, Note_on_c, 2, 53, 97
4, 14550, Note_on_c, 2, 57, 97
4, 14550, Note_on_c, 2, 60, 97
4, 14560, Note_on_c, 2, 60, 0
4, 14562, Note_on_c, 2, 57, 0
4, 14562, Note_on_c, 2, 53, 0
4, 14580, Note_on_c, 2, 53, 81
4, 14580, Note_on_c, 2, 57, 81
4, 14580, Note_on_c, 2, 60, 81
4, 14590, Note_on_c, 2, 60, 0
4, 14593, Note_on_c, 2, 53, 0
4, 14594, Note_on_c, 2, 57, 0
4, 14610, Note_on_c, 2, 53, 97
4, 14610, Note_on_c, 2, 57, 97
4, 14610, Note_on_c, 2, 60, 97
4, 14621, Note_on_c, 2, 60, 0
4, 14623, Note_on_c, 2, 53, 0
4, 14624, Note_on_c, 2, 57, 0
4, 14625, Note_on_c, 2, 48, 84
4, 14637, Note_on_c, 2, 48, 0
4, 14640, Note_on_c, 2, 57, 79
4, 14640, Note_on_c, 2, 53, 79
4, 14640, Note_on_c, 2, 60, 79
4, 14650, Note_on_c, 2, 53, 0
4, 14651, Note_on_c, 2, 60, 0
4, 14654, Note_on_c, 2, 57, 0
4, 14670, Note_on_c, 2, 57, 97
4, 14670, Note_on_c, 2, 53, 97
4, 14670, Note_on_c, 2, 60, 97
4, 14678, Note_on_c, 2, 60, 0
4, 14680, Note_on_c, 2, 53, 0
4, 14682, Note_on_c, 2, 57, 0
4, 14700, Note_on_c, 2, 57, 80
4, 14700, Note_on_c, 2, 53, 80
4, 14700, Note_on_c, 2, 60, 80
4, 14710, Note_on_c, 2, 60, 0
4, 14710, Note_on_c, 2, 53, 0
4, 14715, Note_on_c, 2, 57, 0
4, 14730, Note_on_c, 2, 53, 97
4, 14730, Note_on_c, 2, 57, 97
4, 14730, Note_on_c, 2, 60, 97
4, 14744, Note_on_c, 2, 60, 0
4, 14744, Note_on_c, 2, 57, 0
4, 14744, Note_on_c, 2, 53, 0
4, 14760, Note_on_c, 2, 57, 80
4, 14760, Note_on_c, 2, 53, 80
4, 14760, Note_on_c, 2, 60, 80
4, 14770, Note_on_c, 2, 60, 0
4, 14770, Note_on_c, 2, 53, 0
4, 14774, Note_on_c, 2, 57, 0
4, 14790, Note_on_c, 2, 53, 97
4, 14790, Note_on_c, 2, 57, 97
4, 14790, Note_on_c, 2, 60, 97
4, 14799, Note_on_c, 2, 60, 0
4, 14801, Note_on_c, 2, 53, 0
4, 14802, Note_on_c, 2, 57, 0
4, 14820, Note_on_c, 2, 53, 81
4, 14820, Note_on_c, 2, 57, 81
4, 14820, Note_on_c, 2, 60, 81
4, 14829, Note_on_c, 2, 60, 0
4, 14832, Note_on_c, 2, 57, 0
4, 14832, Note_on_c, 2, 53, 0
4, 14850, Note_on_c, 2, 57, 95
4, 14850, Note_on_c, 2, 53, 95
4, 14850, Note_on_c, 2, 60, 95
4, 14858, Note_on_c, 2, 60, 0
4, 14859, Note_on_c, 2, 53, 0
4, 14864, Note_on_c, 2, 57, 0
4, 14880, Note_on_c, 2, 55, 81
4, 14880, Note_on_c, 2, 60, 81
4, 14880, Note_on_c, 2, 64, 81
4, 14888, Note_on_c, 2, 64, 0
4, 14891, Note_on_c, 2, 60, 0
4, 14891, Note_on_c, 2, 55, 0
4, 14910, Note_on_c, 2, 55, 97
4, 14910, Note_on_c, 2, 64, 97
4, 14910, Note_on_c, 2, 60, 97
4, 14923, Note_on_c, 2, 60, 0
4, 14923, Note_on_c, 2, 55, 0
4, 14924, Note_on_c, 2, 64, 0
4, 14940, Note_on_c, 2, 55, 83
4, 14940, Note_on_c, 2, 60, 83
4, 14940, Note_on_c, 2, 64, 83
4, 14950, Note_on_c, 2, 64, 0
4, 14951, Note_on_c, 2, 60, 0
4, 14955, Note_on_c, 2, 55, 0
4, 14970, Note_on_c, 2, 55, 97
4, 14970, Note_on_c, 2, 60, 97
4, 14970, Note_on_c, 2, 64, 97
4, 14983, Note_on_c, 2, 55, 0
4, 14984, Note_on_c, 2, 64, 0
4, 14984, Note_on_c, 2, 60, 0
4, 15000, Note_on_c, 2, 60, 83
4, 15000, Note_on_c, 2, 64, 83
4, 15000, Note_on_c, 2, 55, 83
4, 15012, Note_on_c, 2, 55, 0
4, 15013, Note_on_c, 2, 64, 0
4, 15014, Note_on_c, 2, 60, 0
4, 15030, Note_on_c, 2, 55, 97
4, 15030, Note_on_c, 2, 60, 97
4, 15030, Note_on_c, 2, 64, 97
4, 15043, Note_on_c, 2, 55, 0
4, 15044, Note_on_c, 2, 60, 0
4, 15045, Note_on_c, 2, 64, 0
4, 15060, Note_on_c, 2, 55, 84
4, 15060, Note_on_c, 2, 60, 84
4, 15060, Note_on_c, 2, 64, 84
4, 15072, Note_on_c, 2, 60, 0
4, 15072, Note_on_c, 2, 55, 0
4, 15073, Note_on_c, 2, 64, 0
4, 15090, Note_on_c, 2, 60, 97
4, 15090, Note_on_c, 2, 55, 97
4, 15090, Note_on_c, 2, 64, 97
4, 15104, Note_on_c, 2, 64, 0
4, 15104, Note_on_c, 2, 55, 0
4, 15105, Note_on_c, 2, 60, 0
4, 15120, Note_on_c, 2, 58, 127
4, 15120, Note_on_c, 2, 53, 127
4, 15120, Note_on_c, 2, 62, 127
4, 15129, Note_on_c, 2, 62, 0
4, 15132, Note_on_c, 2, 58, 0
4, 15134, Note_on_c, 2, 53, 0
4, 15390, Note_on_c, 2, 57, 82
4, 15390, Note_on_c, 2, 53, 82
4, 15390, Note_on_c, 2, 60, 82
4, 15400, Note_on_c, 2, 60, 0
4, 15402, Note_on_c, 2, 53, 0
4, 15402, Note_on_c, 2, 57, 0
4, 15420, Note_on_c, 2, 53, 91
4, 15420, Note_on_c, 2, 57, 91
4, 15420, Note_on_c, 2, 60, 91
4, 15433, Note_on_c, 2, 60, 0
4, 15434, Note_on_c, 2, 57, 0
4, 15436, Note_on_c, 2, 53, 0
4, 15450, Note_on_c, 2, 53, 83
4, 15450, Note_on_c, 2, 57, 83
4, 15450, Note_on_c, 2, 60, 83
4, 15461, Note_on_c, 2, 60, 0
4, 15462, Note_on_c, 2, 57, 0
4, 15462, Note_on_c, 2, 53, 0
4, 15480, Note_on_c, 2, 57, 92
4, 15480, Note_on_c, 2, 53, 92
4, 15480, Note_on_c, 2, 60, 92
4, 15489, Note_on_c, 2, 60, 0
4, 15492, Note_on_c, 2, 53, 0
4, 15494, Note_on_c, 2, 57, 0
4, 15510, Note_on_c, 2, 57, 80
4, 15510, Note_on_c, 2, 53, 80
4, 15510, Note_on_c, 2, 60, 80
4, 15522, Note_on_c, 2, 53, 0
4, 15523, Note_on_c, 2, 60, 0
4, 15524, Note_on_c, 2, 57, 0
4, 15540, Note_on_c, 2, 53, 94
4, 15540, Note_on_c, 2, 57, 94
4, 15540, Note_on_c, 2, 60, 94
4, 15551, Note_on_c, 2, 60, 0
4, 15553, Note_on_c, 2, 57, 0
4, 15553, Note_on_c, 2, 53, 0
4, 15570, Note_on_c, 2, 53, 82
4, 15570, Note_on_c, 2, 57, 82
4, 15570, Note_on_c, 2, 60, 82
4, 15582, Note_on_c, 2, 60, 0
4, 15583, Note_on_c, 2, 53, 0
4, 15584, Note_on_c, 2, 57, 0
4, 15600, Note_on_c, 2, 53, 94
4, 15600, Note_on_c, 2, 57, 94
4, 15600, Note_on_c, 2, 60, 94
4, 15614, Note_on_c, 2, 60, 0
4, 15614, Note_on_c, 2, 57, 0
4, 15614, Note_on_c, 2, 53, 0
4, 15630, Note_on_c, 2, 53, 80
4, 15630, Note_on_c, 2, 57, 80
4, 15630, Note_on_c, 2, 60, 80
4, 15642, Note_on_c, 2, 60, 0
4, 15642, Note_on_c, 2, 53, 0
4, 15643, Note_on_c, 2, 57, 0
4, 15660, Note_on_c, 2, 57, 95
4, 15660, Note_on_c, 2, 60, 95
4, 15660, Note_on_c, 2, 53, 95
4, 15671, Note_on_c, 2, 53, 0
4, 15674, Note_on_c, 2, 60, 0
4, 15676, Note_on_c, 2, 57, 0
4, 15690, Note_on_c, 2, 57, 83
4, 15690, Note_on_c, 2, 60, 83
4, 15690, Note_on_c, 2, 53, 83
4, 15702, Note_on_c, 2, 53, 0
4, 15703, Note_on_c, 2, 57, 0
4, 15704, Note_on_c, 2, 60, 0
4, 15720, Note_on_c, 2, 53, 72
4, 15720, Note_on_c, 2, 57, 76
4, 15720, Note_on_c, 2, 60, 94
4, 15733, Note_on_c, 2, 60, 0
4, 15734, Note_on_c, 2, 57, 0
4, 15734, Note_on_c, 2, 53, 0
4, 15750, Note_on_c, 2, 53, 80
4, 15750, Note_on_c, 2, 57, 80
4, 15750, Note_on_c, 2, 60, 80
4, 15762, Note_on_c, 2, 57, 0
4, 15763, Note_on_c, 2, 53, 0
4, 15764, Note_on_c, 2, 60, 0
4, 15780, Note_on_c, 2, 53, 74
4, 15780, Note_on_c, 2, 57, 86
4, 15780, Note_on_c, 2, 60, 96
4, 15792, Note_on_c, 2, 60, 0
4, 15792, Note_on_c, 2, 57, 0
4, 15792, Note_on_c, 2, 53, 0
4, 15810, Note_on_c, 2, 53, 81
4, 15810, Note_on_c, 2, 57, 81
4, 15810, Note_on_c, 2, 60, 81
4, 15820, Note_on_c, 2, 57, 0
4, 15821, Note_on_c, 2, 60, 0
4, 15821, Note_on_c, 2, 53, 0
4, 15840, Note_on_c, 2, 53, 84
4, 15840, Note_on_c, 2, 57, 84
4, 15840, Note_on_c, 2, 60, 91
4, 15851, Note_on_c, 2, 60, 0
4, 15852, Note_on_c, 2, 57, 0
4, 15852, Note_on_c, 2, 53, 0
4, 15870, Note_on_c, 2, 53, 84
4, 15870, Note_on_c, 2, 57, 84
4, 15870, Note_on_c, 2, 60, 84
4, 15880, Note_on_c, 2, 60, 0
4, 15882, Note_on_c, 2, 57, 0
4, 15882, Note_on_c, 2, 53, 0
4, 15900, Note_on_c, 2, 53, 89
4, 15900, Note_on_c, 2, 57, 89
4, 15900, Note_on_c, 2, 60, 89
4, 15913, Note_on_c, 2, 60, 0
4, 15914, Note_on_c, 2, 57, 0
4, 15914, Note_on_c, 2, 53, 0
4, 15930, Note_on_c, 2, 53, 79
4, 15930, Note_on_c, 2, 57, 79
4, 15930, Note_on_c, 2, 60, 79
4, 15941, Note_on_c, 2, 60, 0
4, 15943, Note_on_c, 2, 53, 0
4, 15944, Note_on_c, 2, 57, 0
4, 15960, Note_on_c, 2, 57, 89
4, 15960, Note_on_c, 2, 53, 89
4, 15960, Note_on_c, 2, 60, 89
4, 15971, Note_on_c, 2, 60, 0
4, 15973, Note_on_c, 2, 53, 0
4, 15976, Note_on_c, 2, 57, 0
4, 15990, Note_on_c, 2, 53, 77
4, 15990, Note_on_c, 2, 57, 77
4, 15990, Note_on_c, 2, 60, 77
4, 16000, Note_on_c, 2, 60, 0
4, 16004, Note_on_c, 2, 57, 0
4, 16004, Note_on_c, 2, 53, 0
4, 16020, Note_on_c, 2, 57, 89
4, 16020, Note_on_c, 2, 53, 89
4, 16020, Note_on_c, 2, 60, 89
4, 16032, Note_on_c, 2, 60, 0
4, 16033, Note_on_c, 2, 53, 0
4, 16036, Note_on_c, 2, 57, 0
4, 16050, Note_on_c, 2, 53, 77
4, 16050, Note_on_c, 2, 57, 77
4, 16050, Note_on_c, 2, 60, 77
4, 16060, Note_on_c, 2, 60, 0
4, 16064, Note_on_c, 2, 57, 0
4, 16064, Note_on_c, 2, 53, 0
4, 16080, Note_on_c, 2, 53, 90
4, 16080, Note_on_c, 2, 57, 90
4, 16080, Note_on_c, 2, 60, 90
4, 16090, Note_on_c, 2, 60, 0
4, 16092, Note_on_c, 2, 57, 0
4, 16093, Note_on_c, 2, 53, 0
4, 16110, Note_on_c, 2, 53, 79
4, 16110, Note_on_c, 2, 57, 79
4, 16110, Note_on_c, 2, 60, 79
4, 16120, Note_on_c, 2, 60, 0
4, 16120, Note_on_c, 2, 57, 0
4, 16124, Note_on_c, 2, 53, 0
4, 16140, Note_on_c, 2, 53, 91
4, 16140, Note_on_c, 2, 57, 91
4, 16140, Note_on_c, 2, 60, 91
4, 16152, Note_on_c, 2, 60, 0
4, 16153, Note_on_c, 2, 57, 0
4, 16155, Note_on_c, 2, 53, 0
4, 16170, Note_on_c, 2, 53, 80
4, 16170, Note_on_c, 2, 60, 80
4, 16170, Note_on_c, 2, 57, 80
4, 16180, Note_on_c, 2, 57, 0
4, 16182, Note_on_c, 2, 60, 0
4, 16183, Note_on_c, 2, 53, 0
4, 16200, Note_on_c, 2, 53, 91
4, 16200, Note_on_c, 2, 57, 91
4, 16200, Note_on_c, 2, 60, 91
4, 16202, Note_on_c, 2, 60, 0
4, 16212, Note_on_c, 2, 57, 0
4, 16214, Note_on_c, 2, 53, 0
4, 16230, Note_on_c, 2, 53, 77
4, 16230, Note_on_c, 2, 60, 77
4, 16230, Note_on_c, 2, 57, 77
4, 16240, Note_on_c, 2, 57, 0
4, 16241, Note_on_c, 2, 60, 0
4, 16244, Note_on_c, 2, 53, 0
4, 16260, Note_on_c, 2, 53, 91
4, 16260, Note_on_c, 2, 57, 91
4, 16260, Note_on_c, 2, 60, 91
4, 16271, Note_on_c, 2, 60, 0
4, 16273, Note_on_c, 2, 57, 0
4, 16274, Note_on_c, 2, 53, 0
4, 16290, Note_on_c, 2, 53, 78
4, 16290, Note_on_c, 2, 57, 78
4, 16290, Note_on_c, 2, 60, 78
4, 16299, Note_on_c, 2, 60, 0
4, 16302, Note_on_c, 2, 57, 0
4, 16302, Note_on_c, 2, 53, 0
4, 16305, Note_on_c, 2, 48, 91
4, 16317, Note_on_c, 2, 48, 0
4, 16320, Note_on_c, 2, 53, 91
4, 16320, Note_on_c, 2, 57, 91
4, 16320, Note_on_c, 2, 60, 91
4, 16334, Note_on_c, 2, 60, 0
4, 16336, Note_on_c, 2, 57, 0
4, 16336, Note_on_c, 2, 53, 0
4, 16350, Note_on_c, 2, 53, 76
4, 16350, Note_on_c, 2, 57, 76
4, 16350, Note_on_c, 2, 60, 76
4, 16362, Note_on_c, 2, 60, 0
4, 16362, Note_on_c, 2, 57, 0
4, 16362, Note_on_c, 2, 53, 0
4, 16380, Note_on_c, 2, 53, 91
4, 16380, Note_on_c, 2, 57, 91
4, 16380, Note_on_c, 2, 60, 91
4, 16391, Note_on_c, 2, 60, 0
4, 16394, Note_on_c, 2, 57, 0
4, 16395, Note_on_c, 2, 53, 0
4, 16410, Note_on_c, 2, 60, 77
4, 16410, Note_on_c, 2, 53, 77
4, 16410, Note_on_c, 2, 57, 77
4, 16422, Note_on_c, 2, 57, 0
4, 16422, Note_on_c, 2, 53, 0
4, 16424, Note_on_c, 2, 60, 0
4, 16440, Note_on_c, 2, 53, 91
4, 16440, Note_on_c, 2, 57, 91
4, 16440, Note_on_c, 2, 60, 91
4, 16452, Note_on_c, 2, 60, 0
4, 16452, Note_on_c, 2, 57, 0
4, 16452, Note_on_c, 2, 53, 0
4, 16470, Note_on_c, 2, 53, 80
4, 16470, Note_on_c, 2, 57, 80
4, 16470, Note_on_c, 2, 60, 80
4, 16482, Note_on_c, 2, 60, 0
4, 16482, Note_on_c, 2, 57, 0
4, 16482, Note_on_c, 2, 53, 0
4, 16500, Note_on_c, 2, 53, 91
4, 16500, Note_on_c, 2, 57, 91
4, 16500, Note_on_c, 2, 60, 91
4, 16512, Note_on_c, 2, 60, 0
4, 16512, Note_on_c, 2, 57, 0
4, 16513, Note_on_c, 2, 53, 0
4, 16530, Note_on_c, 2, 53, 79
4, 16530, Note_on_c, 2, 57, 79
4, 16530, Note_on_c, 2, 60, 79
4, 16541, Note_on_c, 2, 60, 0
4, 16541, Note_on_c, 2, 57, 0
4, 16544, Note_on_c, 2, 53, 0
4, 16545, Note_on_c, 2, 48, 89
4, 16557, Note_on_c, 2, 48, 0
4, 16560, Note_on_c, 2, 57, 91
4, 16560, Note_on_c, 2, 60, 91
4, 16560, Note_on_c, 2, 53, 91
4, 16572, Note_on_c, 2, 53, 0
4, 16574, Note_on_c, 2, 60, 0
4, 16574, Note_on_c, 2, 57, 0
4, 16590, Note_on_c, 2, 53, 78
4, 16590, Note_on_c, 2, 60, 78
4, 16590, Note_on_c, 2, 57, 78
4, 16602, Note_on_c, 2, 57, 0
4, 16604, Note_on_c, 2, 60, 0
4, 16606, Note_on_c, 2, 53, 0
4, 16620, Note_on_c, 2, 53, 91
4, 16620, Note_on_c, 2, 60, 91
4, 16620, Note_on_c, 2, 57, 91
4, 16632, Note_on_c, 2, 57, 0
4, 16634, Note_on_c, 2, 60, 0
4, 16635, Note_on_c, 2, 53, 0
4, 16650, Note_on_c, 2, 53, 78
4, 16650, Note_on_c, 2, 57, 78
4, 16650, Note_on_c, 2, 60, 78
4, 16662, Note_on_c, 2, 60, 0
4, 16662, Note_on_c, 2, 57, 0
4, 16662, Note_on_c, 2, 53, 0
4, 16680, Note_on_c, 2, 60, 92
4, 16680, Note_on_c, 2, 53, 92
4, 16680, Note_on_c, 2, 57, 92
4, 16692, Note_on_c, 2, 57, 0
4, 16692, Note_on_c, 2, 53, 0
4, 16696, Note_on_c, 2, 60, 0
4, 16710, Note_on_c, 2, 53, 92
4, 16710, Note_on_c, 2, 57, 92
4, 16710, Note_on_c, 2, 60, 92
4, 16722, Note_on_c, 2, 60, 0
4, 16722, Note_on_c, 2, 57, 0
4, 16722, Note_on_c, 2, 53, 0
4, 16740, Note_on_c, 2, 53, 80
4, 16740, Note_on_c, 2, 60, 80
4, 16740, Note_on_c, 2, 57, 80
4, 16752, Note_on_c, 2, 60, 0
4, 16753, Note_on_c, 2, 57, 0
4, 16753, Note_on_c, 2, 53, 0
4, 16770, Note_on_c, 2, 53, 92
4, 16770, Note_on_c, 2, 57, 92
4, 16770, Note_on_c, 2, 60, 92
4, 16777, Note_on_c, 2, 60, 0
4, 16781, Note_on_c, 2, 57, 0
4, 16784, Note_on_c, 2, 53, 0
4, 16800, Note_on_c, 2, 53, 80
4, 16800, Note_on_c, 2, 62, 80
4, 16800, Note_on_c, 2, 58, 80
4, 16803, Note_on_c, 2, 58, 0
4, 16812, Note_on_c, 2, 62, 0
4, 16815, Note_on_c, 2, 53, 0
4, 16830, Note_on_c, 2, 62, 92
4, 16830, Note_on_c, 2, 53, 92
4, 16830, Note_on_c, 2, 58, 92
4, 16842, Note_on_c, 2, 53, 0
4, 16843, Note_on_c, 2, 62, 0
4, 16844, Note_on_c, 2, 58, 0
4, 16860, Note_on_c, 2, 53, 78
4, 16860, Note_on_c, 2, 58, 78
4, 16860, Note_on_c, 2, 62, 78
4, 16872, Note_on_c, 2, 62, 0
4, 16872, Note_on_c, 2, 58, 0
4, 16875, Note_on_c, 2, 53, 0
4, 16890, Note_on_c, 2, 53, 92
4, 16890, Note_on_c, 2, 58, 92
4, 16890, Note_on_c, 2, 62, 92
4, 16902, Note_on_c, 2, 58, 0
4, 16903, Note_on_c, 2, 62, 0
4, 16903, Note_on_c, 2, 53, 0
4, 16920, Note_on_c, 2, 53, 80
4, 16920, Note_on_c, 2, 58, 80
4, 16920, Note_on_c, 2, 62, 80
4, 16932, Note_on_c, 2, 58, 0
4, 16934, Note_on_c, 2, 62, 0
4, 16936, Note_on_c, 2, 53, 0
4, 16950, Note_on_c, 2, 53, 92
4, 16950, Note_on_c, 2, 62, 92
4, 16950, Note_on_c, 2, 58, 92
4, 16960, Note_on_c, 2, 58, 0
4, 16964, Note_on_c, 2, 62, 0
4, 16964, Note_on_c, 2, 53, 0
4, 16980, Note_on_c, 2, 53, 82
4, 16980, Note_on_c, 2, 58, 82
4, 16980, Note_on_c, 2, 62, 82
4, 16990, Note_on_c, 2, 58, 0
4, 16993, Note_on_c, 2, 62, 0
4, 16994, Note_on_c, 2, 53, 0
4, 17010, Note_on_c, 2, 53, 97
4, 17010, Note_on_c, 2, 62, 97
4, 17010, Note_on_c, 2, 58, 97
4, 17019, Note_on_c, 2, 58, 0
4, 17023, Note_on_c, 2, 53, 0
4, 17024, Note_on_c, 2, 62, 0
4, 17040, Note_on_c, 2, 53, 82
4, 17040, Note_on_c, 2, 62, 82
4, 17040, Note_on_c, 2, 58, 82
4, 17050, Note_on_c, 2, 58, 0
4, 17055, Note_on_c, 2, 53, 0
4, 17056, Note_on_c, 2, 62, 0
4, 17070, Note_on_c, 2, 53, 97
4, 17070, Note_on_c, 2, 62, 97
4, 17070, Note_on_c, 2, 58, 97
4, 17080, Note_on_c, 2, 58, 0
4, 17085, Note_on_c, 2, 62, 0
4, 17085, Note_on_c, 2, 53, 0
4, 17100, Note_on_c, 2, 53, 83
4, 17100, Note_on_c, 2, 62, 83
4, 17100, Note_on_c, 2, 58, 83
4, 17110, Note_on_c, 2, 58, 0
4, 17115, Note_on_c, 2, 62, 0
4, 17115, Note_on_c, 2, 53, 0
4, 17130, Note_on_c, 2, 53, 97
4, 17130, Note_on_c, 2, 58, 97
4, 17130, Note_on_c, 2, 62, 97
4, 17141, Note_on_c, 2, 58, 0
4, 17144, Note_on_c, 2, 53, 0
4, 17145, Note_on_c, 2, 62, 0
4, 17160, Note_on_c, 2, 53, 78
4, 17160, Note_on_c, 2, 58, 78
4, 17160, Note_on_c, 2, 62, 78
4, 17173, Note_on_c, 2, 58, 0
4, 17175, Note_on_c, 2, 62, 0
4, 17175, Note_on_c, 2, 53, 0
4, 17190, Note_on_c, 2, 53, 97
4, 17190, Note_on_c, 2, 58, 97
4, 17190, Note_on_c, 2, 62, 97
4, 17202, Note_on_c, 2, 58, 0
4, 17204, Note_on_c, 2, 53, 0
4, 17205, Note_on_c, 2, 62, 0
4, 17220, Note_on_c, 2, 62, 80
4, 17220, Note_on_c, 2, 53, 80
4, 17220, Note_on_c, 2, 58, 80
4, 17231, Note_on_c, 2, 58, 0
4, 17233, Note_on_c, 2, 53, 0
4, 17239, Note_on_c, 2, 62, 0
4, 17250, Note_on_c, 2, 62, 97
4, 17250, Note_on_c, 2, 53, 97
4, 17250, Note_on_c, 2, 58, 97
4, 17261, Note_on_c, 2, 58, 0
4, 17263, Note_on_c, 2, 53, 0
4, 17265, Note_on_c, 2, 48, 84
4, 17267, Note_on_c, 2, 62, 0
4, 17277, Note_on_c, 2, 48, 0
4, 17280, Note_on_c, 2, 53, 79
4, 17280, Note_on_c, 2, 57, 79
4, 17280, Note_on_c, 2, 60, 79
4, 17285, Note_on_c, 2, 60, 0
4, 17290, Note_on_c, 2, 57, 0
4, 17291, Note_on_c, 2, 53, 0
4, 17310, Note_on_c, 2, 53, 97
4, 17310, Note_on_c, 2, 57, 97
4, 17310, Note_on_c, 2, 60, 97
4, 17319, Note_on_c, 2, 60, 0
4, 17322, Note_on_c, 2, 57, 0
4, 17322, Note_on_c, 2, 53, 0
4, 17340, Note_on_c, 2, 53, 82
4, 17340, Note_on_c, 2, 57, 82
4, 17340, Note_on_c, 2, 60, 82
4, 17350, Note_on_c, 2, 60, 0
4, 17354, Note_on_c, 2, 57, 0
4, 17354, Note_on_c, 2, 53, 0
4, 17370, Note_on_c, 2, 57, 97
4, 17370, Note_on_c, 2, 53, 97
4, 17370, Note_on_c, 2, 60, 97
4, 17380, Note_on_c, 2, 60, 0
4, 17380, Note_on_c, 2, 53, 0
4, 17383, Note_on_c, 2, 57, 0
4, 17400, Note_on_c, 2, 53, 80
4, 17400, Note_on_c, 2, 57, 80
4, 17400, Note_on_c, 2, 60, 80
4, 17412, Note_on_c, 2, 60, 0
4, 17413, Note_on_c, 2, 53, 0
4, 17414, Note_on_c, 2, 57, 0
4, 17430, Note_on_c, 2, 53, 97
4, 17430, Note_on_c, 2, 57, 97
4, 17430, Note_on_c, 2, 60, 97
4, 17440, Note_on_c, 2, 60, 0
4, 17442, Note_on_c, 2, 57, 0
4, 17442, Note_on_c, 2, 53, 0
4, 17460, Note_on_c, 2, 53, 81
4, 17460, Note_on_c, 2, 57, 81
4, 17460, Note_on_c, 2, 60, 81
4, 17470, Note_on_c, 2, 60, 0
4, 17473, Note_on_c, 2, 53, 0
4, 17474, Note_on_c, 2, 57, 0
4, 17490, Note_on_c, 2, 53, 97
4, 17490, Note_on_c, 2, 57, 97
4, 17490, Note_on_c, 2, 60, 97
4, 17501, Note_on_c, 2, 60, 0
4, 17503, Note_on_c, 2, 53, 0
4, 17504, Note_on_c, 2, 57, 0
4, 17505, Note_on_c, 2, 48, 84
4, 17517, Note_on_c, 2, 48, 0
4, 17520, Note_on_c, 2, 57, 79
4, 17520, Note_on_c, 2, 53, 79
4, 17520, Note_on_c, 2, 60, 79
4, 17530, Note_on_c, 2, 53, 0
4, 17531, Note_on_c, 2, 60, 0
4, 17534, Note_on_c, 2, 57, 0
4, 17550, Note_on_c, 2, 57, 97
4, 17550, Note_on_c, 2, 53, 97
4, 17550, Note_on_c, 2, 60, 97
4, 17558, Note_on_c, 2, 60, 0
4, 17560, Note_on_c, 2, 53, 0
4, 17562, Note_on_c, 2, 57, 0
4, 17580, Note_on_c, 2, 57, 80
4, 17580, Note_on_c, 2, 53, 80
4, 17580, Note_on_c, 2, 60, 80
4, 17590, Note_on_c, 2, 60, 0
4, 17590, Note_on_c, 2, 53, 0
4, 17595, Note_on_c, 2, 57, 0
4, 17610, Note_on_c, 2, 53, 97
4, 17610, Note_on_c, 2, 57, 97
4, 17610, Note_on_c, 2, 60, 97
4, 17624, Note_on_c, 2, 60, 0
4, 17624, Note_on_c, 2, 57, 0
4, 17624, Note_on_c, 2, 53, 0
4, 17640, Note_on_c, 2, 57, 80
4, 17640, Note_on_c, 2, 53, 80
4, 17640, Note_on_c, 2, 60, 80
4, 17650, Note_on_c, 2, 60, 0
4, 17650, Note_on_c, 2, 53, 0
4, 17654, Note_on_c, 2, 57, 0
4, 17670, Note_on_c, 2, 53, 97
4, 17670, Note_on_c, 2, 57, 97
4, 17670, Note_on_c, 2, 60, 97
4, 17679, Note_on_c, 2, 60, 0
4, 17681, Note_on_c, 2, 53, 0
4, 17682, Note_on_c, 2, 57, 0
4, 17700, Note_on_c, 2, 53, 81
4, 17700, Note_on_c, 2, 57, 81
4, 17700, Note_on_c, 2, 60, 81
4, 17709, Note_on_c, 2, 60, 0
4, 17712, Note_on_c, 2, 57, 0
4, 17712, Note_on_c, 2, 53, 0
4, 17730, Note_on_c, 2, 57, 95
4, 17730, Note_on_c, 2, 53, 95
4, 17730, Note_on_c, 2, 60, 95
4, 17738, Note_on_c, 2, 60, 0
4, 17739, Note_on_c, 2, 53, 0
4, 17744, Note_on_c, 2, 57, 0
4, 17760, Note_on_c, 2, 55, 81
4, 17760, Note_on_c, 2, 60, 81
4, 17760, Note_on_c, 2, 64, 81
4, 17768, Note_on_c, 2, 64, 0
4, 17771, Note_on_c, 2, 60, 0
4, 17771, Note_on_c, 2, 55, 0
4, 17790, Note_on_c, 2, 55, 97
4, 17790, Note_on_c, 2, 64, 97
4, 17790, Note_on_c, 2, 60, 97
4, 17803, Note_on_c, 2, 60, 0
4, 17803, Note_on_c, 2, 55, 0
4, 17804, Note_on_c, 2, 64, 0
4, 17820, Note_on_c, 2, 55, 83
4, 17820, Note_on_c, 2, 60, 83
4, 17820, Note_on_c, 2, 64, 83
4, 17830, Note_on_c, 2, 64, 0
4, 17831, Note_on_c, 2, 60, 0
4, 17835, Note_on_c, 2, 55, 0
4, 17850, Note_on_c, 2, 55, 97
4, 17850, Note_on_c, 2, 60, 97
4, 17850, Note_on_c, 2, 64, 97
4, 17863, Note_on_c, 2, 55, 0
4, 17864, Note_on_c, 2, 64, 0
4, 17864, Note_on_c, 2, 60, 0
4, 17880, Note_on_c, 2, 60, 83
4, 17880, Note_on_c, 2, 64, 83
4, 17880, Note_on_c, 2, 55, 83
4, 17892, Note_on_c, 2, 55, 0
4, 17893, Note_on_c, 2, 64, 0
4, 17894, Note_on_c, 2, 60, 0
4, 17910, Note_on_c, 2, 55, 97
4, 17910, Note_on_c, 2, 60, 97
4, 17910, Note_on_c, 2, 64, 97
4, 17923, Note_on_c, 2, 55, 0
4, 17924, Note_on_c, 2, 60, 0
4, 17925, Note_on_c, 2, 64, 0
4, 17940, Note_on_c, 2, 55, 84
4, 17940, Note_on_c, 2, 60, 84
4, 17940, Note_on_c, 2, 64, 84
4, 17952, Note_on_c, 2, 60, 0
4, 17952, Note_on_c, 2, 55, 0
4, 17953, Note_on_c, 2, 64, 0
4, 17970, Note_on_c, 2, 60, 97
4, 17970, Note_on_c, 2, 55, 97
4, 17970, Note_on_c, 2, 64, 97
4, 17984, Note_on_c, 2, 64, 0
4, 17984, Note_on_c, 2, 55, 0
4, 17985, Note_on_c, 2, 60, 0
4, 18000, Note_on_c, 2, 58, 127
4, 18000, Note_on_c, 2, 53, 127
4, 18000, Note_on_c, 2, 62, 127
4, 18009, Note_on_c, 2, 62, 0
4, 18012, Note_on_c, 2, 58, 0
4, 18014, Note_on_c, 2, 53, 0
4, 18270, Note_on_c, 2, 57, 82
4, 18270, Note_on_c, 2, 53, 82
4, 18270, Note_on_c, 2, 60, 82
4, 18280, Note_on_c, 2, 60, 0
4, 18282, Note_on_c, 2, 53, 0
4, 18282, Note_on_c, 2, 57, 0
4, 18300, Note_on_c, 2, 53, 91
4, 18300, Note_on_c, 2, 57, 91
4, 18300, Note_on_c, 2, 60, 91
4, 18313, Note_on_c, 2, 60, 0
4, 18314, Note_on_c, 2, 57, 0
4, 18316, Note_on_c, 2, 53, 0
4, 18330, Note_on_c, 2, 53, 83
4, 18330, Note_on_c, 2, 57, 83
4, 18330, Note_on_c, 2, 60, 83
4, 18341, Note_on_c, 2, 60, 0
4, 18342, Note_on_c, 2, 57, 0
4, 18342, Note_on_c, 2, 53, 0
4, 18360, Note_on_c, 2, 57, 92
4, 18360, Note_on_c, 2, 53, 92
4, 18360, Note_on_c, 2, 60, 92
4, 18369, Note_on_c, 2, 60, 0
4, 18372, Note_on_c, 2, 53, 0
4, 18374, Note_on_c, 2, 57, 0
4, 18390, Note_on_c, 2, 57, 80
4, 18390, Note_on_c, 2, 53, 80
4, 18390, Note_on_c, 2, 60, 80
4, 18402, Note_on_c, 2, 53, 0
4, 18403, Note_on_c, 2, 60, 0
4, 18404, Note_on_c, 2, 57, 0
4, 18420, Note_on_c, 2, 53, 94
4, 18420, Note_on_c, 2, 57, 94
4, 18420, Note_on_c, 2, 60, 94
4, 18431, Note_on_c, 2, 60, 0
4, 18433, Note_on_c, 2, 57, 0
4, 18433, Note_on_c, 2, 53, 0
4, 18450, Note_on_c, 2, 53, 82
4, 18450, Note_on_c, 2, 57, 82
4, 18450, Note_on_c, 2, 60, 82
4, 18462, Note_on_c, 2, 60, 0
4, 18463, Note_on_c, 2, 53, 0
4, 18464, Note_on_c, 2, 57, 0
4, 18480, Note_on_c, 2, 53, 94
4, 18480, Note_on_c, 2, 57, 94
4, 18480, Note_on_c, 2, 60, 94
4, 18494, Note_on_c, 2, 60, 0
4, 18494, Note_on_c, 2, 57, 0
4, 18494, Note_on_c, 2, 53, 0
4, 18510, Note_on_c, 2, 53, 80
4, 18510, Note_on_c, 2, 57, 80
4, 18510, Note_on_c, 2, 60, 80
4, 18522, Note_on_c, 2, 60, 0
4, 18522, Note_on_c, 2, 53, 0
4, 18523, Note_on_c, 2, 57, 0
4, 18540, Note_on_c, 2, 57, 95
4, 18540, Note_on_c, 2, 60, 95
4, 18540, Note_on_c, 2, 53, 95
4, 18551, Note_on_c, 2, 53, 0
4, 18554, Note_on_c, 2, 60, 0
4, 18556, Note_on_c, 2, 57, 0
4, 18570, Note_on_c, 2, 57, 83
4, 18570, Note_on_c, 2, 60, 83
4, 18570, Note_on_c, 2, 53, 83
4, 18582, Note_on_c, 2, 53, 0
4, 18583, Note_on_c, 2, 57, 0
4, 18584, Note_on_c, 2, 60, 0
4, 18600, Note_on_c, 2, 53, 72
4, 18600, Note_on_c, 2, 57, 76
4, 18600, Note_on_c, 2, 60, 94
4, 18613, Note_on_c, 2, 60, 0
4, 18614, Note_on_c, 2, 57, 0
4, 18614, Note_on_c, 2, 53, 0
4, 18630, Note_on_c, 2, 53, 80
4, 18630, Note_on_c, 2, 57, 80
4, 18630, Note_on_c, 2, 60, 80
4, 18642, Note_on_c, 2, 57, 0
4, 18643, Note_on_c, 2, 53, 0
4, 18644, Note_on_c, 2, 60, 0
4, 18660, Note_on_c, 2, 53, 74
4, 18660, Note_on_c, 2, 57, 86
4, 18660, Note_on_c, 2, 60, 96
4, 18672, Note_on_c, 2, 60, 0
4, 18672, Note_on_c, 2, 57, 0
4, 18672, Note_on_c, 2, 53, 0
4, 18690, Note_on_c, 2, 53, 81
4, 18690, Note_on_c, 2, 57, 81
4, 18690, Note_on_c, 2, 60, 81
4, 18700, Note_on_c, 2, 57, 0
4, 18701, Note_on_c, 2, 60, 0
4, 18701, Note_on_c, 2, 53, 0
4, 18720, Note_on_c, 2, 53, 84
4, 18720, Note_on_c, 2, 57, 84
4, 18720, Note_on_c, 2, 60, 91
4, 18731, Note_on_c, 2, 60, 0
4, 18732, Note_on_c, 2, 57, 0
4, 18732, Note_on_c, 2, 53, 0
4, 18750, Note_on_c, 2, 53, 84
4, 18750, Note_on_c, 2, 57, 84
4, 18750, Note_on_c, 2, 60, 84
4, 18760, Note_on_c, 2, 60, 0
4, 18762, Note_on_c, 2, 57, 0
4, 18762, Note_on_c, 2, 53, 0
4, 18780, Note_on_c, 2, 53, 89
4, 18780, Note_on_c, 2, 57, 89
4, 18780, Note_on_c, 2, 60, 89
4, 18793, Note_on_c, 2, 60, 0
4, 18794, Note_on_c, 2, 57, 0
4, 18794, Note_on_c, 2, 53, 0
4, 18810, Note_on_c, 2, 53, 79
4, 18810, Note_on_c, 2, 57, 79
4, 18810, Note_on_c, 2, 60, 79
4, 18821, Note_on_c, 2, 60, 0
4, 18823, Note_on_c, 2, 53, 0
4, 18824, Note_on_c, 2, 57, 0
4, 18840, Note_on_c, 2, 57, 89
4, 18840, Note_on_c, 2, 53, 89
4, 18840, Note_on_c, 2, 60, 89
4, 18851, Note_on_c, 2, 60, 0
4, 18853, Note_on_c, 2, 53, 0
4, 18856, Note_on_c, 2, 57, 0
4, 18870, Note_on_c, 2, 53, 77
4, 18870, Note_on_c, 2, 57, 77
4, 18870, Note_on_c, 2, 60, 77
4, 18880, Note_on_c, 2, 60, 0
4, 18884, Note_on_c, 2, 57, 0
4, 18884, Note_on_c, 2, 53, 0
4, 18900, Note_on_c, 2, 57, 89
4, 18900, Note_on_c, 2, 53, 89
4, 18900, Note_on_c, 2, 60, 89
4, 18912, Note_on_c, 2, 60, 0
4, 18913, Note_on_c, 2, 53, 0
4, 18916, Note_on_c, 2, 57, 0
4, 18930, Note_on_c, 2, 53, 77
4, 18930, Note_on_c, 2, 57, 77
4, 18930, Note_on_c, 2, 60, 77
4, 18940, Note_on_c, 2, 60, 0
4, 18944, Note_on_c, 2, 57, 0
4, 18944, Note_on_c, 2, 53, 0
4, 18960, Note_on_c, 2, 53, 90
4, 18960, Note_on_c, 2, 57, 90
4, 18960, Note_on_c, 2, 60, 90
4, 18970, Note_on_c, 2, 60, 0
4, 18972, Note_on_c, 2, 57, 0
4, 18973, Note_on_c, 2, 53, 0
4, 18990, Note_on_c, 2, 53, 79
4, 18990, Note_on_c, 2, 57, 79
4, 18990, Note_on_c, 2, 60, 79
4, 19000, Note_on_c, 2, 60, 0
4, 19000, Note_on_c, 2, 57, 0
4, 19004, Note_on_c, 2, 53, 0
4, 19020, Note_on_c, 2, 53, 91
4, 19020, Note_on_c, 2, 57, 91
4, 19020, Note_on_c, 2, 60, 91
4, 19032, Note_on_c, 2, 60, 0
4, 19033, Note_on_c, 2, 57, 0
4, 19035, Note_on_c, 2, 53, 0
4, 19050, Note_on_c, 2, 53, 80
4, 19050, Note_on_c, 2, 60, 80
4, 19050, Note_on_c, 2, 57, 80
4, 19060, Note_on_c, 2, 57, 0
4, 19062, Note_on_c, 2, 60, 0
4, 19063, Note_on_c, 2, 53, 0
4, 19080, Note_on_c, 2, 53, 91
4, 19080, Note_on_c, 2, 57, 91
4, 19080, Note_on_c, 2, 60, 91
4, 19082, Note_on_c, 2, 60, 0
4, 19092, Note_on_c, 2, 57, 0
4, 19094, Note_on_c, 2, 53, 0
4, 19110, Note_on_c, 2, 53, 77
4, 19110, Note_on_c, 2, 60, 77
4, 19110, Note_on_c, 2, 57, 77
4, 19120, Note_on_c, 2, 57, 0
4, 19121, Note_on_c, 2, 60, 0
4, 19124, Note_on_c, 2, 53, 0
4, 19140, Note_on_c, 2, 53, 91
4, 19140, Note_on_c, 2, 57, 91
4, 19140, Note_on_c, 2, 60, 91
4, 19151, Note_on_c, 2, 60, 0
4, 19153, Note_on_c, 2, 57, 0
4, 19154, Note_on_c, 2, 53, 0
4, 19170, Note_on_c, 2, 53, 78
4, 19170, Note_on_c, 2, 57, 78
4, 19170, Note_on_c, 2, 60, 78
4, 19179, Note_on_c, 2, 60, 0
4, 19182, Note_on_c, 2, 57, 0
4, 19182, Note_on_c, 2, 53, 0
4, 19185, Note_on_c, 2, 48, 84
4, 19197, Note_on_c, 2, 48, 0
4, 19200, Note_on_c, 2, 53, 91
4, 19200, Note_on_c, 2, 57, 91
4, 19200, Note_on_c, 2, 60, 91
4, 19214, Note_on_c, 2, 60, 0
4, 19216, Note_on_c, 2, 57, 0
4, 19216, Note_on_c, 2, 53, 0
4, 19230, Note_on_c, 2, 53, 76
4, 19230, Note_on_c, 2, 57, 76
4, 19230, Note_on_c, 2, 60, 76
4, 19242, Note_on_c, 2, 60, 0
4, 19242, Note_on_c, 2, 57, 0
4, 19242, Note_on_c, 2, 53, 0
4, 19260, Note_on_c, 2, 53, 91
4, 19260, Note_on_c, 2, 57, 91
4, 19260, Note_on_c, 2, 60, 91
4, 19271, Note_on_c, 2, 60, 0
4, 19274, Note_on_c, 2, 57, 0
4, 19275, Note_on_c, 2, 53, 0
4, 19290, Note_on_c, 2, 60, 77
4, 19290, Note_on_c, 2, 53, 77
4, 19290, Note_on_c, 2, 57, 77
4, 19302, Note_on_c, 2, 57, 0
4, 19302, Note_on_c, 2, 53, 0
4, 19304, Note_on_c, 2, 60, 0
4, 19320, Note_on_c, 2, 53, 91
4, 19320, Note_on_c, 2, 57, 91
4, 19320, Note_on_c, 2, 60, 91
4, 19332, Note_on_c, 2, 60, 0
4, 19332, Note_on_c, 2, 57, 0
4, 19332, Note_on_c, 2, 53, 0
4, 19350, Note_on_c, 2, 53, 80
4, 19350, Note_on_c, 2, 57, 80
4, 19350, Note_on_c, 2, 60, 80
4, 19362, Note_on_c, 2, 60, 0
4, 19362, Note_on_c, 2, 57, 0
4, 19362, Note_on_c, 2, 53, 0
4, 19380, Note_on_c, 2, 53, 91
4, 19380, Note_on_c, 2, 57, 91
4, 19380, Note_on_c, 2, 60, 91
4, 19392, Note_on_c, 2, 60, 0
4, 19392, Note_on_c, 2, 57, 0
4, 19393, Note_on_c, 2, 53, 0
4, 19410, Note_on_c, 2, 53, 79
4, 19410, Note_on_c, 2, 57, 79
4, 19410, Note_on_c, 2, 60, 79
4, 19421, Note_on_c, 2, 60, 0
4, 19421, Note_on_c, 2, 57, 0
4, 19424, Note_on_c, 2, 53, 0
4, 19425, Note_on_c, 2, 48, 84
4, 19437, Note_on_c, 2, 48, 0
4, 19440, Note_on_c, 2, 57, 91
4, 19440, Note_on_c, 2, 60, 91
4, 19440, Note_on_c, 2, 53, 91
4, 19452, Note_on_c, 2, 53, 0
4, 19454, Note_on_c, 2, 60, 0
4, 19454, Note_on_c, 2, 57, 0
4, 19470, Note_on_c, 2, 53, 78
4, 19470, Note_on_c, 2, 60, 78
4, 19470, Note_on_c, 2, 57, 78
4, 19482, Note_on_c, 2, 57, 0
4, 19484, Note_on_c, 2, 60, 0
4, 19486, Note_on_c, 2, 53, 0
4, 19500, Note_on_c, 2, 53, 91
4, 19500, Note_on_c, 2, 60, 91
4, 19500, Note_on_c, 2, 57, 91
4, 19512, Note_on_c, 2, 57, 0
4, 19514, Note_on_c, 2, 60, 0
4, 19515, Note_on_c, 2, 53, 0
4, 19530, Note_on_c, 2, 53, 78
4, 19530, Note_on_c, 2, 57, 78
4, 19530, Note_on_c, 2, 60, 78
4, 19542, Note_on_c, 2, 60, 0
4, 19542, Note_on_c, 2, 57, 0
4, 19542, Note_on_c, 2, 53, 0
4, 19560, Note_on_c, 2, 60, 92
4, 19560, Note_on_c, 2, 53, 92
4, 19560, Note_on_c, 2, 57, 92
4, 19572, Note_on_c, 2, 57, 0
4, 19572, Note_on_c, 2, 53, 0
4, 19576, Note_on_c, 2, 60, 0
4, 19590, Note_on_c, 2, 53, 92
4, 19590, Note_on_c, 2, 57, 92
4, 19590, Note_on_c, 2, 60, 92
4, 19602, Note_on_c, 2, 60, 0
4, 19602, Note_on_c, 2, 57, 0
4, 19602, Note_on_c, 2, 53, 0
4, 19620, Note_on_c, 2, 53, 80
4, 19620, Note_on_c, 2, 60, 80
4, 19620, Note_on_c, 2, 57, 80
4, 19632, Note_on_c, 2, 60, 0
4, 19633, Note_on_c, 2, 57, 0
4, 19633, Note_on_c, 2, 53, 0
4, 19650, Note_on_c, 2, 53, 92
4, 19650, Note_on_c, 2, 57, 92
4, 19650, Note_on_c, 2, 60, 92
4, 19657, Note_on_c, 2, 60, 0
4, 19661, Note_on_c, 2, 57, 0
4, 19664, Note_on_c, 2, 53, 0
4, 19680, Note_on_c, 2, 53, 80
4, 19680, Note_on_c, 2, 62, 80
4, 19680, Note_on_c, 2, 58, 80
4, 19683, Note_on_c, 2, 58, 0
4, 19692, Note_on_c, 2, 62, 0
4, 19695, Note_on_c, 2, 53, 0
4, 19710, Note_on_c, 2, 62, 92
4, 19710, Note_on_c, 2, 53, 92
4, 19710, Note_on_c, 2, 58, 92
4, 19722, Note_on_c, 2, 53, 0
4, 19723, Note_on_c, 2, 62, 0
4, 19724, Note_on_c, 2, 58, 0
4, 19740, Note_on_c, 2, 53, 78
4, 19740, Note_on_c, 2, 58, 78
4, 19740, Note_on_c, 2, 62, 78
4, 19752, Note_on_c, 2, 62, 0
4, 19752, Note_on_c, 2, 58, 0
4, 19755, Note_on_c, 2, 53, 0
4, 19770, Note_on_c, 2, 53, 92
4, 19770, Note_on_c, 2, 58, 92
4, 19770, Note_on_c, 2, 62, 92
4, 19782, Note_on_c, 2, 58, 0
4, 19783, Note_on_c, 2, 62, 0
4, 19783, Note_on_c, 2, 53, 0
4, 19800, Note_on_c, 2, 53, 80
4, 19800, Note_on_c, 2, 58, 80
4, 19800, Note_on_c, 2, 62, 80
4, 19812, Note_on_c, 2, 58, 0
4, 19814, Note_on_c, 2, 62, 0
4, 19816, Note_on_c, 2, 53, 0
4, 19830, Note_on_c, 2, 53, 92
4, 19830, Note_on_c, 2, 62, 92
4, 19830, Note_on_c, 2, 58, 92
4, 19840, Note_on_c, 2, 58, 0
4, 19844, Note_on_c, 2, 62, 0
4, 19844, Note_on_c, 2, 53, 0
4, 19860, Note_on_c, 2, 53, 82
4, 19860, Note_on_c, 2, 58, 82
4, 19860, Note_on_c, 2, 62, 82
4, 19870, Note_on_c, 2, 58, 0
4, 19873, Note_on_c, 2, 62, 0
4, 19874, Note_on_c, 2, 53, 0
4, 19890, Note_on_c, 2, 53, 97
4, 19890, Note_on_c, 2, 62, 97
4, 19890, Note_on_c, 2, 58, 97
4, 19899, Note_on_c, 2, 58, 0
4, 19903, Note_on_c, 2, 53, 0
4, 19904, Note_on_c, 2, 62, 0
4, 19920, Note_on_c, 2, 53, 82
4, 19920, Note_on_c, 2, 62, 82
4, 19920, Note_on_c, 2, 58, 82
4, 19930, Note_on_c, 2, 58, 0
4, 19935, Note_on_c, 2, 53, 0
4, 19936, Note_on_c, 2, 62, 0
4, 19950, Note_on_c, 2, 53, 97
4, 19950, Note_on_c, 2, 62, 97
4, 19950, Note_on_c, 2, 58, 97
4, 19960, Note_on_c, 2, 58, 0
4, 19965, Note_on_c, 2, 62, 0
4, 19965, Note_on_c, 2, 53, 0
4, 19980, Note_on_c, 2, 53, 83
4, 19980, Note_on_c, 2, 62, 83
4, 19980, Note_on_c, 2, 58, 83
4, 19990, Note_on_c, 2, 58, 0
4, 19995, Note_on_c, 2, 62, 0
4, 19995, Note_on_c, 2, 53, 0
4, 20010, Note_on_c, 2, 53, 97
4, 20010, Note_on_c, 2, 58, 97
4, 20010, Note_on_c, 2, 62, 97
4, 20021, Note_on_c, 2, 58, 0
4, 20024, Note_on_c, 2, 53, 0
4, 20025, Note_on_c, 2, 62, 0
4, 20040, Note_on_c, 2, 53, 78
4, 20040, Note_on_c, 2, 58, 78
4, 20040, Note_on_c, 2, 62, 78
4, 20053, Note_on_c, 2, 58, 0
4, 20055, Note_on_c, 2, 62, 0
4, 20055, Note_on_c, 2, 53, 0
4, 20070, Note_on_c, 2, 53, 97
4, 20070, Note_on_c, 2, 58, 97
4, 20070, Note_on_c, 2, 62, 97
4, 20082, Note_on_c, 2, 58, 0
4, 20084, Note_on_c, 2, 53, 0
4, 20085, Note_on_c, 2, 62, 0
4, 20100, Note_on_c, 2, 62, 80
4, 20100, Note_on_c, 2, 53, 80
4, 20100, Note_on_c, 2, 58, 80
4, 20111, Note_on_c, 2, 58, 0
4, 20113, Note_on_c, 2, 53, 0
4, 20119, Note_on_c, 2, 62, 0
4, 20130, Note_on_c, 2, 62, 97
4, 20130, Note_on_c, 2, 53, 97
4, 20130, Note_on_c, 2, 58, 97
4, 20141, Note_on_c, 2, 58, 0
4, 20143, Note_on_c, 2, 53, 0
4, 20145, Note_on_c, 2, 48, 84
4, 20147, Note_on_c, 2, 62, 0
4, 20157, Note_on_c, 2, 48, 0
4, 20160, Note_on_c, 2, 53, 79
4, 20160, Note_on_c, 2, 57, 79
4, 20160, Note_on_c, 2, 60, 79
4, 20165, Note_on_c, 2, 60, 0
4, 20170, Note_on_c, 2, 57, 0
4, 20171, Note_on_c, 2, 53, 0
4, 20190, Note_on_c, 2, 53, 97
4, 20190, Note_on_c, 2, 57, 97
4, 20190, Note_on_c, 2, 60, 97
4, 20199, Note_on_c, 2, 60, 0
4, 20202, Note_on_c, 2, 57, 0
4, 20202, Note_on_c, 2, 53, 0
4, 20220, Note_on_c, 2, 53, 82
4, 20220, Note_on_c, 2, 57, 82
4, 20220, Note_on_c, 2, 60, 82
4, 20230, Note_on_c, 2, 60, 0
4, 20234, Note_on_c, 2, 57, 0
4, 20234, Note_on_c, 2, 53, 0
4, 20250, Note_on_c, 2, 57, 97
4, 20250, Note_on_c, 2, 53, 97
4, 20250, Note_on_c, 2, 60, 97
4, 20260, Note_on_c, 2, 60, 0
4, 20260, Note_on_c, 2, 53, 0
4, 20263, Note_on_c, 2, 57, 0
4, 20280, Note_on_c, 2, 53, 80
4, 20280, Note_on_c, 2, 57, 80
4, 20280, Note_on_c, 2, 60, 80
4, 20292, Note_on_c, 2, 60, 0
4, 20293, Note_on_c, 2, 53, 0
4, 20294, Note_on_c, 2, 57, 0
4, 20310, Note_on_c, 2, 53, 97
4, 20310, Note_on_c, 2, 57, 97
4, 20310, Note_on_c, 2, 60, 97
4, 20320, Note_on_c, 2, 60, 0
4, 20322, Note_on_c, 2, 57, 0
4, 20322, Note_on_c, 2, 53, 0
4, 20340, Note_on_c, 2, 53, 81
4, 20340, Note_on_c, 2, 57, 81
4, 20340, Note_on_c, 2, 60, 81
4, 20350, Note_on_c, 2, 60, 0
4, 20353, Note_on_c, 2, 53, 0
4, 20354, Note_on_c, 2, 57, 0
4, 20370, Note_on_c, 2, 53, 97
4, 20370, Note_on_c, 2, 57, 97
4, 20370, Note_on_c, 2, 60, 97
4, 20381, Note_on_c, 2, 60, 0
4, 20383, Note_on_c, 2, 53, 0
4, 20384, Note_on_c, 2, 57, 0
4, 20385, Note_on_c, 2, 48, 84
4, 20397, Note_on_c, 2, 48, 0
4, 20400, Note_on_c, 2, 57, 79
4, 20400, Note_on_c, 2, 53, 79
4, 20400, Note_on_c, 2, 60, 79
4, 20410, Note_on_c, 2, 53, 0
4, 20411, Note_on_c, 2, 60, 0
4, 20414, Note_on_c, 2, 57, 0
4, 20430, Note_on_c, 2, 57, 97
4, 20430, Note_on_c, 2, 53, 97
4, 20430, Note_on_c, 2, 60, 97
4, 20438, Note_on_c, 2, 60, 0
4, 20440, Note_on_c, 2, 53, 0
4, 20442, Note_on_c, 2, 57, 0
4, 20460, Note_on_c, 2, 57, 80
4, 20460, Note_on_c, 2, 53, 80
4, 20460, Note_on_c, 2, 60, 80
4, 20470, Note_on_c, 2, 60, 0
4, 20470, Note_on_c, 2, 53, 0
4, 20475, Note_on_c, 2, 57, 0
4, 20490, Note_on_c, 2, 53, 97
4, 20490, Note_on_c, 2, 57, 97
4, 20490, Note_on_c, 2, 60, 97
4, 20504, Note_on_c, 2, 60, 0
4, 20504, Note_on_c, 2, 57, 0
4, 20504, Note_on_c, 2, 53, 0
4, 20520, Note_on_c, 2, 57, 80
4, 20520, Note_on_c, 2, 53, 80
4, 20520, Note_on_c, 2, 60, 80
4, 20530, Note_on_c, 2, 60, 0
4, 20530, Note_on_c, 2, 53, 0
4, 20534, Note_on_c, 2, 57, 0
4, 20550, Note_on_c, 2, 53, 97
4, 20550, Note_on_c, 2, 57, 97
4, 20550, Note_on_c, 2, 60, 97
4, 20559, Note_on_c, 2, 60, 0
4, 20561, Note_on_c, 2, 53, 0
4, 20562, Note_on_c, 2, 57, 0
4, 20580, Note_on_c, 2, 53, 81
4, 20580, Note_on_c, 2, 57, 81
4, 20580, Note_on_c, 2, 60, 81
4, 20589, Note_on_c, 2, 60, 0
4, 20592, Note_on_c, 2, 57, 0
4, 20592, Note_on_c, 2, 53, 0
4, 20610, Note_on_c, 2, 57, 95
4, 20610, Note_on_c, 2, 53, 95
4, 20610, Note_on_c, 2, 60, 95
4, 20618, Note_on_c, 2, 60, 0
4, 20619, Note_on_c, 2, 53, 0
4, 20624, Note_on_c, 2, 57, 0
4, 20640, Note_on_c, 2, 55, 81
4, 20640, Note_on_c, 2, 60, 81
4, 20640, Note_on_c, 2, 64, 81
4, 20648, Note_on_c, 2, 64, 0
4, 20651, Note_on_c, 2, 60, 0
4, 20651, Note_on_c, 2, 55, 0
4, 20670, Note_on_c, 2, 55, 97
4, 20670, Note_on_c, 2, 64, 97
4, 20670, Note_on_c, 2, 60, 97
4, 20683, Note_on_c, 2, 60, 0
4, 20683, Note_on_c, 2, 55, 0
4, 20684, Note_on_c, 2, 64, 0
4, 20700, Note_on_c, 2, 55, 83
4, 20700, Note_on_c, 2, 60, 83
4, 20700, Note_on_c, 2, 64, 83
4, 20710, Note_on_c, 2, 64, 0
4, 20711, Note_on_c, 2, 60, 0
4, 20715, Note_on_c, 2, 55, 0
4, 20730, Note_on_c, 2, 55, 97
4, 20730, Note_on_c, 2, 60, 97
4, 20730, Note_on_c, 2, 64, 97
4, 20743, Note_on_c, 2, 55, 0
4, 20744, Note_on_c, 2, 64, 0
4, 20744, Note_on_c, 2, 60, 0
4, 20760, Note_on_c, 2, 60, 83
4, 20760, Note_on_c, 2, 64, 83
4, 20760, Note_on_c, 2, 55, 83
4, 20772, Note_on_c, 2, 55, 0
4, 20773, Note_on_c, 2, 64, 0
4, 20774, Note_on_c, 2, 60, 0
4, 20790, Note_on_c, 2, 55, 97
4, 20790, Note_on_c, 2, 60, 97
4, 20790, Note_on_c, 2, 64, 97
4, 20803, Note_on_c, 2, 55, 0
4, 20804, Note_on_c, 2, 60, 0
4, 20805, Note_on_c, 2, 64, 0
4, 20820, Note_on_c, 2, 55, 84
4, 20820, Note_on_c, 2, 60, 84
4, 20820, Note_on_c, 2, 64, 84
4, 20832, Note_on_c, 2, 60, 0
4, 20832, Note_on_c, 2, 55, 0
4, 20833, Note_on_c, 2, 64, 0
4, 20850, Note_on_c, 2, 60, 97
4, 20850, Note_on_c, 2, 55, 97
4, 20850, Note_on_c, 2, 64, 97
4, 20864, Note_on_c, 2, 64, 0
4, 20864, Note_on_c, 2, 55, 0
4, 20865, Note_on_c, 2, 60, 0
4, 20880, Note_on_c, 2, 58, 127
4, 20880, Note_on_c, 2, 53, 127
4, 20880, Note_on_c, 2, 62, 127
4, 20889, Note_on_c, 2, 62, 0
4, 20892, Note_on_c, 2, 58, 0
4, 20894, Note_on_c, 2, 53, 0
4, 21182, Note_on_c, 2, 53, 103
4, 21182, Note_on_c, 2, 57, 99
4, 21183, Note_on_c, 2, 60, 97
4, 21200, Note_on_c, 2, 53, 0
4, 21201, Note_on_c, 2, 57, 0
4, 21204, Note_on_c, 2, 60, 0
4, 21240, Note_on_c, 2, 53, 105
4, 21240, Note_on_c, 2, 57, 107
4, 21241, Note_on_c, 2, 60, 96
4, 21255, Note_on_c, 2, 53, 0
4, 21257, Note_on_c, 2, 57, 0
4, 21258, Note_on_c, 2, 60, 0
4, 21274, Note_on_c, 2, 53, 103
4, 21275, Note_on_c, 2, 57, 96
4, 21275, Note_on_c, 2, 60, 97
4, 21291, Note_on_c, 2, 53, 0
4, 21292, Note_on_c, 2, 60, 0
4, 21292, Note_on_c, 2, 57, 0
4, 21339, Note_on_c, 2, 53, 103
4, 21340, Note_on_c, 2, 57, 112
4, 21340, Note_on_c, 2, 60, 103
4, 21351, Note_on_c, 2, 57, 0
4, 21353, Note_on_c, 2, 60, 0
4, 21353, Note_on_c, 2, 53, 0
4, 21366, Note_on_c, 2, 53, 107
4, 21368, Note_on_c, 2, 57, 110
4, 21368, Note_on_c, 2, 60, 101
4, 21383, Note_on_c, 2, 57, 0
4, 21383, Note_on_c, 2, 53, 0
4, 21385, Note_on_c, 2, 60, 0
4, 21420, Note_on_c, 2, 53, 101
4, 21420, Note_on_c, 2, 57, 118
4, 21420, Note_on_c, 2, 60, 101
4, 21432, Note_on_c, 2, 53, 0
4, 21434, Note_on_c, 2, 60, 0
4, 21434, Note_on_c, 2, 57, 0
4, 21450, Note_on_c, 2, 53, 115
4, 21450, Note_on_c, 2, 57, 124
4, 21450, Note_on_c, 2, 60, 103
4, 21899, Note_on_c, 2, 60, 0
4, 21899, Note_on_c, 2, 57, 0
4, 21899, Note_on_c, 2, 53, 0
4, 21899, End_track
5, 0, Start_track
5, 0, MIDI_port, 0
5, 0, Title_t, ">>MELODY"
5, 0, Program_c, 3, 22
5, 0, Control_c, 3, 7, 80
5, 1440, Control_c, 3, 93, 80
5, 1440, Note_on_c, 3, 68, 124
5, 1455, Note_on_c, 3, 68, 0
5, 1470, Note_on_c, 3, 68, 124
5, 1484, Note_on_c, 3, 68, 0
5, 1500, Note_on_c, 3, 68, 124
5, 1518, Note_on_c, 3, 68, 0
5, 1530, Note_on_c, 3, 67, 124
5, 1545, Note_on_c, 3, 67, 0
5, 1560, Note_on_c, 3, 65, 127
5, 1608, Note_on_c, 3, 65, 0
5, 1680, Note_on_c, 3, 68, 127
5, 1694, Note_on_c, 3, 68, 0
5, 1710, Note_on_c, 3, 68, 127
5, 1725, Note_on_c, 3, 68, 0
5, 1740, Note_on_c, 3, 68, 127
5, 1759, Note_on_c, 3, 68, 0
5, 1770, Note_on_c, 3, 67, 127
5, 1787, Note_on_c, 3, 67, 0
5, 1800, Note_on_c, 3, 65, 127
5, 1837, Note_on_c, 3, 65, 0
5, 1860, Note_on_c, 3, 62, 127
5, 1902, Note_on_c, 3, 62, 0
5, 1920, Note_on_c, 3, 60, 127
5, 1956, Note_on_c, 3, 60, 0
5, 1980, Note_on_c, 3, 65, 127
5, 2001, Note_on_c, 3, 65, 0
5, 2010, Note_on_c, 3, 62, 127
5, 2040, Note_on_c, 3, 60, 127
5, 2054, Note_on_c, 3, 62, 0
5, 2098, Note_on_c, 3, 60, 0
5, 2100, Note_on_c, 3, 62, 127
5, 2141, Note_on_c, 3, 62, 0
5, 2220, Note_on_c, 3, 65, 127
5, 2242, Note_on_c, 3, 65, 0
5, 2250, Note_on_c, 3, 62, 127
5, 2280, Note_on_c, 3, 60, 127
5, 2286, Note_on_c, 3, 62, 0
5, 2338, Note_on_c, 3, 60, 0
5, 2340, Note_on_c, 3, 62, 127
5, 2385, Note_on_c, 3, 62, 0
5, 2400, Note_on_c, 3, 68, 121
5, 2413, Note_on_c, 3, 68, 0
5, 2430, Note_on_c, 3, 68, 123
5, 2445, Note_on_c, 3, 68, 0
5, 2460, Note_on_c, 3, 68, 123
5, 2477, Note_on_c, 3, 68, 0
5, 2490, Note_on_c, 3, 67, 123
5, 2506, Note_on_c, 3, 67, 0
5, 2520, Note_on_c, 3, 65, 123
5, 2561, Note_on_c, 3, 65, 0
5, 2640, Note_on_c, 3, 68, 126
5, 2667, Note_on_c, 3, 68, 0
5, 2700, Note_on_c, 3, 68, 126
5, 2722, Note_on_c, 3, 68, 0
5, 2730, Note_on_c, 3, 67, 126
5, 2748, Note_on_c, 3, 67, 0
5, 2760, Note_on_c, 3, 65, 126
5, 2796, Note_on_c, 3, 65, 0
5, 2820, Note_on_c, 3, 62, 127
5, 2858, Note_on_c, 3, 62, 0
5, 2880, Note_on_c, 3, 60, 127
5, 2920, Note_on_c, 3, 60, 0
5, 2940, Note_on_c, 3, 65, 127
5, 2960, Note_on_c, 3, 65, 0
5, 2970, Note_on_c, 3, 62, 127
5, 3000, Note_on_c, 3, 60, 127
5, 3006, Note_on_c, 3, 62, 0
5, 3060, Note_on_c, 3, 62, 127
5, 3061, Note_on_c, 3, 60, 0
5, 3097, Note_on_c, 3, 62, 0
5, 3180, Note_on_c, 3, 65, 127
5, 3206, Note_on_c, 3, 65, 0
5, 3210, Note_on_c, 3, 62, 127
5, 3240, Note_on_c, 3, 60, 127
5, 3245, Note_on_c, 3, 62, 0
5, 3299, Note_on_c, 3, 60, 0
5, 3300, Note_on_c, 3, 62, 120
5, 3330, Note_on_c, 3, 67, 123
5, 3331, Note_on_c, 3, 62, 0
5, 3348, Note_on_c, 3, 67, 0
5, 3360, Note_on_c, 3, 68, 123
5, 3406, Note_on_c, 3, 68, 0
5, 3420, Note_on_c, 3, 67, 123
5, 3440, Note_on_c, 3, 67, 0
5, 3450, Note_on_c, 3, 67, 123
5, 3470, Note_on_c, 3, 67, 0
5, 3480, Note_on_c, 3, 65, 127
5, 3521, Note_on_c, 3, 65, 0
5, 3570, Note_on_c, 3, 60, 127
5, 3586, Note_on_c, 3, 60, 0
5, 3600, Note_on_c, 3, 65, 127
5, 3613, Note_on_c, 3, 65, 0
5, 3630, Note_on_c, 3, 65, 127
5, 3652, Note_on_c, 3, 65, 0
5, 3660, Note_on_c, 3, 62, 127
5, 3701, Note_on_c, 3, 62, 0
5, 3720, Note_on_c, 3, 60, 127
5, 3760, Note_on_c, 3, 60, 0
5, 3780, Note_on_c, 3, 57, 127
5, 3824, Note_on_c, 3, 57, 0
5, 3840, Note_on_c, 3, 53, 127
5, 3881, Note_on_c, 3, 53, 0
5, 4320, Note_on_c, 3, 68, 124
5, 4335, Note_on_c, 3, 68, 0
5, 4350, Note_on_c, 3, 68, 124
5, 4364, Note_on_c, 3, 68, 0
5, 4380, Note_on_c, 3, 68, 124
5, 4398, Note_on_c, 3, 68, 0
5, 4410, Note_on_c, 3, 67, 124
5, 4425, Note_on_c, 3, 67, 0
5, 4440, Note_on_c, 3, 65, 127
5, 4488, Note_on_c, 3, 65, 0
5, 4560, Note_on_c, 3, 68, 127
5, 4574, Note_on_c, 3, 68, 0
5, 4590, Note_on_c, 3, 68, 127
5, 4605, Note_on_c, 3, 68, 0
5, 4620, Note_on_c, 3, 68, 127
5, 4639, Note_on_c, 3, 68, 0
5, 4650, Note_on_c, 3, 67, 127
5, 4667, Note_on_c, 3, 67, 0
5, 4680, Note_on_c, 3, 65, 127
5, 4717, Note_on_c, 3, 65, 0
5, 4740, Note_on_c, 3, 62, 127
5, 4782, Note_on_c, 3, 62, 0
5, 4800, Note_on_c, 3, 60, 127
5, 4836, Note_on_c, 3, 60, 0
5, 4860, Note_on_c, 3, 65, 127
5, 4881, Note_on_c, 3, 65, 0
5, 4890, Note_on_c, 3, 62, 127
5, 4920, Note_on_c, 3, 60, 127
5, 4934, Note_on_c, 3, 62, 0
5, 4978, Note_on_c, 3, 60, 0
5, 4980, Note_on_c, 3, 62, 127
5, 5021, Note_on_c, 3, 62, 0
5, 5100, Note_on_c, 3, 65, 127
5, 5122, Note_on_c, 3, 65, 0
5, 5130, Note_on_c, 3, 62, 127
5, 5160, Note_on_c, 3, 60, 127
5, 5166, Note_on_c, 3, 62, 0
5, 5218, Note_on_c, 3, 60, 0
5, 5220, Note_on_c, 3, 62, 127
5, 5265, Note_on_c, 3, 62, 0
5, 5280, Note_on_c, 3, 68, 121
5, 5293, Note_on_c, 3, 68, 0
5, 5310, Note_on_c, 3, 68, 123
5, 5325, Note_on_c, 3, 68, 0
5, 5340, Note_on_c, 3, 68, 123
5, 5357, Note_on_c, 3, 68, 0
5, 5370, Note_on_c, 3, 67, 123
5, 5386, Note_on_c, 3, 67, 0
5, 5400, Note_on_c, 3, 65, 123
5, 5441, Note_on_c, 3, 65, 0
5, 5520, Note_on_c, 3, 68, 126
5, 5547, Note_on_c, 3, 68, 0
5, 5580, Note_on_c, 3, 68, 126
5, 5602, Note_on_c, 3, 68, 0
5, 5610, Note_on_c, 3, 67, 126
5, 5628, Note_on_c, 3, 67, 0
5, 5640, Note_on_c, 3, 65, 126
5, 5676, Note_on_c, 3, 65, 0
5, 5700, Note_on_c, 3, 62, 127
5, 5738, Note_on_c, 3, 62, 0
5, 5760, Note_on_c, 3, 60, 127
5, 5800, Note_on_c, 3, 60, 0
5, 5820, Note_on_c, 3, 65, 127
5, 5840, Note_on_c, 3, 65, 0
5, 5850, Note_on_c, 3, 62, 127
5, 5880, Note_on_c, 3, 60, 127
5, 5886, Note_on_c, 3, 62, 0
5, 5940, Note_on_c, 3, 62, 127
5, 5941, Note_on_c, 3, 60, 0
5, 5977, Note_on_c, 3, 62, 0
5, 6060, Note_on_c, 3, 65, 127
5, 6086, Note_on_c, 3, 65, 0
5, 6090, Note_on_c, 3, 62, 127
5, 6120, Note_on_c, 3, 60, 127
5, 6125, Note_on_c, 3, 62, 0
5, 6179, Note_on_c, 3, 60, 0
5, 6180, Note_on_c, 3, 62, 120
5, 6210, Note_on_c, 3, 67, 123
5, 6211, Note_on_c, 3, 62, 0
5, 6228, Note_on_c, 3, 67, 0
5, 6240, Note_on_c, 3, 68, 123
5, 6286, Note_on_c, 3, 68, 0
5, 6300, Note_on_c, 3, 67, 123
5, 6320, Note_on_c, 3, 67, 0
5, 6330, Note_on_c, 3, 67, 123
5, 6350, Note_on_c, 3, 67, 0
5, 6360, Note_on_c, 3, 65, 127
5, 6401, Note_on_c, 3, 65, 0
5, 6450, Note_on_c, 3, 60, 127
5, 6466, Note_on_c, 3, 60, 0
5, 6480, Note_on_c, 3, 65, 127
5, 6493, Note_on_c, 3, 65, 0
5, 6510, Note_on_c, 3, 65, 127
5, 6532, Note_on_c, 3, 65, 0
5, 6540, Note_on_c, 3, 62, 127
5, 6560, Note_on_c, 3, 62, 0
5, 6570, Note_on_c, 3, 62, 100
5, 6590, Note_on_c, 3, 62, 0
5, 6600, Note_on_c, 3, 60, 127
5, 6640, Note_on_c, 3, 60, 0
5, 6660, Note_on_c, 3, 57, 127
5, 6704, Note_on_c, 3, 57, 0
5, 6720, Note_on_c, 3, 53, 127
5, 6761, Note_on_c, 3, 53, 0
5, 7260, Note_on_c, 3, 68, 122
5, 7285, Note_on_c, 3, 68, 0
5, 7290, Note_on_c, 3, 67, 125
5, 7317, Note_on_c, 3, 67, 0
5, 7320, Note_on_c, 3, 65, 126
5, 7379, Note_on_c, 3, 65, 0
5, 7380, Note_on_c, 3, 62, 126
5, 7419, Note_on_c, 3, 62, 0
5, 7425, Note_on_c, 3, 65, 126
5, 7440, Note_on_c, 3, 68, 126
5, 7445, Note_on_c, 3, 65, 0
5, 7469, Note_on_c, 3, 68, 0
5, 7500, Note_on_c, 3, 68, 126
5, 7519, Note_on_c, 3, 68, 0
5, 7530, Note_on_c, 3, 67, 126
5, 7547, Note_on_c, 3, 67, 0
5, 7560, Note_on_c, 3, 65, 126
5, 7597, Note_on_c, 3, 65, 0
5, 7620, Note_on_c, 3, 62, 126
5, 7662, Note_on_c, 3, 62, 0
5, 7680, Note_on_c, 3, 60, 126
5, 7716, Note_on_c, 3, 60, 0
5, 7740, Note_on_c, 3, 65, 127
5, 7761, Note_on_c, 3, 65, 0
5, 7770, Note_on_c, 3, 62, 127
5, 7800, Note_on_c, 3, 60, 127
5, 7814, Note_on_c, 3, 62, 0
5, 7858, Note_on_c, 3, 60, 0
5, 7860, Note_on_c, 3, 62, 127
5, 7901, Note_on_c, 3, 62, 0
5, 7980, Note_on_c, 3, 65, 127
5, 8002, Note_on_c, 3, 65, 0
5, 8010, Note_on_c, 3, 62, 127
5, 8040, Note_on_c, 3, 60, 127
5, 8046, Note_on_c, 3, 62, 0
5, 8098, Note_on_c, 3, 60, 0
5, 8100, Note_on_c, 3, 62, 127
5, 8145, Note_on_c, 3, 62, 0
5, 8160, Note_on_c, 3, 70, 121
5, 8173, Note_on_c, 3, 70, 0
5, 8190, Note_on_c, 3, 70, 123
5, 8205, Note_on_c, 3, 70, 0
5, 8220, Note_on_c, 3, 70, 123
5, 8237, Note_on_c, 3, 70, 0
5, 8250, Note_on_c, 3, 68, 123
5, 8266, Note_on_c, 3, 68, 0
5, 8280, Note_on_c, 3, 65, 123
5, 8321, Note_on_c, 3, 65, 0
5, 8400, Note_on_c, 3, 68, 126
5, 8427, Note_on_c, 3, 68, 0
5, 8460, Note_on_c, 3, 68, 126
5, 8482, Note_on_c, 3, 68, 0
5, 8490, Note_on_c, 3, 67, 126
5, 8508, Note_on_c, 3, 67, 0
5, 8520, Note_on_c, 3, 65, 126
5, 8556, Note_on_c, 3, 65, 0
5, 8580, Note_on_c, 3, 62, 127
5, 8618, Note_on_c, 3, 62, 0
5, 8640, Note_on_c, 3, 60, 127
5, 8680, Note_on_c, 3, 60, 0
5, 8700, Note_on_c, 3, 65, 127
5, 8720, Note_on_c, 3, 65, 0
5, 8730, Note_on_c, 3, 62, 127
5, 8760, Note_on_c, 3, 60, 127
5, 8766, Note_on_c, 3, 62, 0
5, 8820, Note_on_c, 3, 62, 127
5, 8821, Note_on_c, 3, 60, 0
5, 8857, Note_on_c, 3, 62, 0
5, 8940, Note_on_c, 3, 65, 127
5, 8966, Note_on_c, 3, 65, 0
5, 8970, Note_on_c, 3, 62, 127
5, 9000, Note_on_c, 3, 60, 127
5, 9005, Note_on_c, 3, 62, 0
5, 9059, Note_on_c, 3, 60, 0
5, 9060, Note_on_c, 3, 62, 120
5, 9090, Note_on_c, 3, 67, 123
5, 9091, Note_on_c, 3, 62, 0
5, 9108, Note_on_c, 3, 67, 0
5, 9120, Note_on_c, 3, 68, 123
5, 9166, Note_on_c, 3, 68, 0
5, 9180, Note_on_c, 3, 67, 123
5, 9200, Note_on_c, 3, 67, 0
5, 9210, Note_on_c, 3, 67, 123
5, 9230, Note_on_c, 3, 67, 0
5, 9240, Note_on_c, 3, 65, 127
5, 9280, Note_on_c, 3, 65, 0
5, 9330, Note_on_c, 3, 60, 127
5, 9346, Note_on_c, 3, 60, 0
5, 9360, Note_on_c, 3, 65, 127
5, 9373, Note_on_c, 3, 65, 0
5, 9390, Note_on_c, 3, 65, 127
5, 9412, Note_on_c, 3, 65, 0
5, 9420, Note_on_c, 3, 62, 127
5, 9461, Note_on_c, 3, 62, 0
5, 9480, Note_on_c, 3, 60, 127
5, 9520, Note_on_c, 3, 60, 0
5, 9540, Note_on_c, 3, 57, 127
5, 9584, Note_on_c, 3, 57, 0
5, 9600, Note_on_c, 3, 53, 127
5, 9641, Note_on_c, 3, 53, 0
5, 12960, Note_on_c, 3, 68, 124
5, 12975, Note_on_c, 3, 68, 0
5, 12990, Note_on_c, 3, 68, 124
5, 13004, Note_on_c, 3, 68, 0
5, 13020, Note_on_c, 3, 68, 124
5, 13038, Note_on_c, 3, 68, 0
5, 13050, Note_on_c, 3, 67, 124
5, 13065, Note_on_c, 3, 67, 0
5, 13080, Note_on_c, 3, 65, 127
5, 13128, Note_on_c, 3, 65, 0
5, 13200, Note_on_c, 3, 68, 127
5, 13214, Note_on_c, 3, 68, 0
5, 13230, Note_on_c, 3, 68, 127
5, 13245, Note_on_c, 3, 68, 0
5, 13260, Note_on_c, 3, 68, 127
5, 13279, Note_on_c, 3, 68, 0
5, 13290, Note_on_c, 3, 67, 127
5, 13307, Note_on_c, 3, 67, 0
5, 13320, Note_on_c, 3, 65, 127
5, 13357, Note_on_c, 3, 65, 0
5, 13380, Note_on_c, 3, 62, 127
5, 13422, Note_on_c, 3, 62, 0
5, 13440, Note_on_c, 3, 60, 127
5, 13476, Note_on_c, 3, 60, 0
5, 13500, Note_on_c, 3, 65, 127
5, 13521, Note_on_c, 3, 65, 0
5, 13530, Note_on_c, 3, 62, 127
5, 13560, Note_on_c, 3, 60, 127
5, 13574, Note_on_c, 3, 62, 0
5, 13618, Note_on_c, 3, 60, 0
5, 13620, Note_on_c, 3, 62, 127
5, 13661, Note_on_c, 3, 62, 0
5, 13740, Note_on_c, 3, 65, 127
5, 13762, Note_on_c, 3, 65, 0
5, 13770, Note_on_c, 3, 62, 127
5, 13800, Note_on_c, 3, 60, 127
5, 13806, Note_on_c, 3, 62, 0
5, 13858, Note_on_c, 3, 60, 0
5, 13860, Note_on_c, 3, 62, 127
5, 13905, Note_on_c, 3, 62, 0
5, 13920, Note_on_c, 3, 68, 121
5, 13933, Note_on_c, 3, 68, 0
5, 13950, Note_on_c, 3, 68, 123
5, 13965, Note_on_c, 3, 68, 0
5, 13980, Note_on_c, 3, 68, 123
5, 13997, Note_on_c, 3, 68, 0
5, 14010, Note_on_c, 3, 67, 123
5, 14026, Note_on_c, 3, 67, 0
5, 14040, Note_on_c, 3, 65, 123
5, 14081, Note_on_c, 3, 65, 0
5, 14160, Note_on_c, 3, 68, 126
5, 14182, Note_on_c, 3, 68, 0
5, 14190, Note_on_c, 3, 68, 127
5, 14220, Note_on_c, 3, 68, 126
5, 14230, Note_on_c, 3, 68, 0
5, 14242, Note_on_c, 3, 68, 0
5, 14250, Note_on_c, 3, 67, 126
5, 14268, Note_on_c, 3, 67, 0
5, 14280, Note_on_c, 3, 65, 126
5, 14316, Note_on_c, 3, 65, 0
5, 14340, Note_on_c, 3, 62, 127
5, 14378, Note_on_c, 3, 62, 0
5, 14400, Note_on_c, 3, 60, 127
5, 14440, Note_on_c, 3, 60, 0
5, 14460, Note_on_c, 3, 65, 127
5, 14480, Note_on_c, 3, 65, 0
5, 14490, Note_on_c, 3, 62, 127
5, 14520, Note_on_c, 3, 60, 127
5, 14526, Note_on_c, 3, 62, 0
5, 14580, Note_on_c, 3, 62, 127
5, 14581, Note_on_c, 3, 60, 0
5, 14617, Note_on_c, 3, 62, 0
5, 14700, Note_on_c, 3, 65, 127
5, 14726, Note_on_c, 3, 65, 0
5, 14730, Note_on_c, 3, 62, 127
5, 14760, Note_on_c, 3, 60, 127
5, 14765, Note_on_c, 3, 62, 0
5, 14819, Note_on_c, 3, 60, 0
5, 14820, Note_on_c, 3, 62, 120
5, 14850, Note_on_c, 3, 67, 123
5, 14851, Note_on_c, 3, 62, 0
5, 14868, Note_on_c, 3, 67, 0
5, 14880, Note_on_c, 3, 68, 123
5, 14926, Note_on_c, 3, 68, 0
5, 14940, Note_on_c, 3, 67, 123
5, 14960, Note_on_c, 3, 67, 0
5, 14970, Note_on_c, 3, 67, 123
5, 14990, Note_on_c, 3, 67, 0
5, 15000, Note_on_c, 3, 65, 127
5, 15041, Note_on_c, 3, 65, 0
5, 15090, Note_on_c, 3, 60, 127
5, 15106, Note_on_c, 3, 60, 0
5, 15120, Note_on_c, 3, 65, 127
5, 15133, Note_on_c, 3, 65, 0
5, 15150, Note_on_c, 3, 65, 127
5, 15172, Note_on_c, 3, 65, 0
5, 15180, Note_on_c, 3, 62, 127
5, 15221, Note_on_c, 3, 62, 0
5, 15240, Note_on_c, 3, 60, 127
5, 15280, Note_on_c, 3, 60, 0
5, 15300, Note_on_c, 3, 57, 127
5, 15344, Note_on_c, 3, 57, 0
5, 15360, Note_on_c, 3, 53, 127
5, 15401, Note_on_c, 3, 53, 0
5, 15840, Note_on_c, 3, 68, 124
5, 15855, Note_on_c, 3, 68, 0
5, 15870, Note_on_c, 3, 68, 124
5, 15884, Note_on_c, 3, 68, 0
5, 15900, Note_on_c, 3, 68, 124
5, 15918, Note_on_c, 3, 68, 0
5, 15930, Note_on_c, 3, 67, 124
5, 15945, Note_on_c, 3, 67, 0
5, 15960, Note_on_c, 3, 65, 127
5, 16008, Note_on_c, 3, 65, 0
5, 16080, Note_on_c, 3, 68, 127
5, 16094, Note_on_c, 3, 68, 0
5, 16110, Note_on_c, 3, 68, 127
5, 16125, Note_on_c, 3, 68, 0
5, 16140, Note_on_c, 3, 68, 127
5, 16159, Note_on_c, 3, 68, 0
5, 16170, Note_on_c, 3, 67, 127
5, 16187, Note_on_c, 3, 67, 0
5, 16200, Note_on_c, 3, 65, 127
5, 16237, Note_on_c, 3, 65, 0
5, 16260, Note_on_c, 3, 62, 127
5, 16302, Note_on_c, 3, 62, 0
5, 16320, Note_on_c, 3, 60, 127
5, 16356, Note_on_c, 3, 60, 0
5, 16380, Note_on_c, 3, 65, 127
5, 16401, Note_on_c, 3, 65, 0
5, 16410, Note_on_c, 3, 62, 127
5, 16440, Note_on_c, 3, 60, 127
5, 16454, Note_on_c, 3, 62, 0
5, 16498, Note_on_c, 3, 60, 0
5, 16500, Note_on_c, 3, 62, 127
5, 16541, Note_on_c, 3, 62, 0
5, 16620, Note_on_c, 3, 65, 127
5, 16642, Note_on_c, 3, 65, 0
5, 16650, Note_on_c, 3, 62, 127
5, 16680, Note_on_c, 3, 60, 127
5, 16686, Note_on_c, 3, 62, 0
5, 16738, Note_on_c, 3, 60, 0
5, 16740, Note_on_c, 3, 62, 127
5, 16785, Note_on_c, 3, 62, 0
5, 16800, Note_on_c, 3, 68, 121
5, 16813, Note_on_c, 3, 68, 0
5, 16830, Note_on_c, 3, 68, 123
5, 16845, Note_on_c, 3, 68, 0
5, 16860, Note_on_c, 3, 68, 123
5, 16877, Note_on_c, 3, 68, 0
5, 16890, Note_on_c, 3, 67, 123
5, 16906, Note_on_c, 3, 67, 0
5, 16920, Note_on_c, 3, 65, 123
5, 16961, Note_on_c, 3, 65, 0
5, 17040, Note_on_c, 3, 68, 126
5, 17067, Note_on_c, 3, 68, 0
5, 17100, Note_on_c, 3, 68, 126
5, 17122, Note_on_c, 3, 68, 0
5, 17130, Note_on_c, 3, 67, 126
5, 17148, Note_on_c, 3, 67, 0
5, 17160, Note_on_c, 3, 65, 126
5, 17196, Note_on_c, 3, 65, 0
5, 17220, Note_on_c, 3, 62, 127
5, 17258, Note_on_c, 3, 62, 0
5, 17280, Note_on_c, 3, 60, 127
5, 17320, Note_on_c, 3, 60, 0
5, 17340, Note_on_c, 3, 65, 127
5, 17360, Note_on_c, 3, 65, 0
5, 17370, Note_on_c, 3, 62, 127
5, 17400, Note_on_c, 3, 60, 127
5, 17406, Note_on_c, 3, 62, 0
5, 17460, Note_on_c, 3, 62, 127
5, 17461, Note_on_c, 3, 60, 0
5, 17497, Note_on_c, 3, 62, 0
5, 17580, Note_on_c, 3, 65, 127
5, 17606, Note_on_c, 3, 65, 0
5, 17610, Note_on_c, 3, 62, 127
5, 17640, Note_on_c, 3, 60, 127
5, 17645, Note_on_c, 3, 62, 0
5, 17699, Note_on_c, 3, 60, 0
5, 17700, Note_on_c, 3, 62, 120
5, 17730, Note_on_c, 3, 67, 123
5, 17731, Note_on_c, 3, 62, 0
5, 17748, Note_on_c, 3, 67, 0
5, 17760, Note_on_c, 3, 68, 123
5, 17806, Note_on_c, 3, 68, 0
5, 17820, Note_on_c, 3, 67, 123
5, 17840, Note_on_c, 3, 67, 0
5, 17850, Note_on_c, 3, 67, 123
5, 17870, Note_on_c, 3, 67, 0
5, 17880, Note_on_c, 3, 65, 127
5, 17921, Note_on_c, 3, 65, 0
5, 17970, Note_on_c, 3, 60, 127
5, 17986, Note_on_c, 3, 60, 0
5, 18000, Note_on_c, 3, 65, 127
5, 18013, Note_on_c, 3, 65, 0
5, 18030, Note_on_c, 3, 65, 127
5, 18052, Note_on_c, 3, 65, 0
5, 18060, Note_on_c, 3, 62, 127
5, 18080, Note_on_c, 3, 62, 0
5, 18090, Note_on_c, 3, 62, 127
5, 18120, Note_on_c, 3, 62, 0
5, 18120, Note_on_c, 3, 60, 127
5, 18160, Note_on_c, 3, 60, 0
5, 18180, Note_on_c, 3, 57, 127
5, 18224, Note_on_c, 3, 57, 0
5, 18240, Note_on_c, 3, 53, 127
5, 18281, Note_on_c, 3, 53, 0
5, 18780, Note_on_c, 3, 68, 122
5, 18805, Note_on_c, 3, 68, 0
5, 18810, Note_on_c, 3, 67, 125
5, 18837, Note_on_c, 3, 67, 0
5, 18840, Note_on_c, 3, 65, 126
5, 18899, Note_on_c, 3, 65, 0
5, 18900, Note_on_c, 3, 62, 126
5, 18939, Note_on_c, 3, 62, 0
5, 18945, Note_on_c, 3, 65, 126
5, 18960, Note_on_c, 3, 68, 126
5, 18965, Note_on_c, 3, 65, 0
5, 18989, Note_on_c, 3, 68, 0
5, 19020, Note_on_c, 3, 68, 126
5, 19039, Note_on_c, 3, 68, 0
5, 19050, Note_on_c, 3, 67, 126
5, 19067, Note_on_c, 3, 67, 0
5, 19080, Note_on_c, 3, 65, 126
5, 19117, Note_on_c, 3, 65, 0
5, 19140, Note_on_c, 3, 62, 126
5, 19182, Note_on_c, 3, 62, 0
5, 19200, Note_on_c, 3, 60, 126
5, 19236, Note_on_c, 3, 60, 0
5, 19260, Note_on_c, 3, 65, 127
5, 19281, Note_on_c, 3, 65, 0
5, 19290, Note_on_c, 3, 62, 127
5, 19320, Note_on_c, 3, 60, 127
5, 19334, Note_on_c, 3, 62, 0
5, 19378, Note_on_c, 3, 60, 0
5, 19380, Note_on_c, 3, 62, 127
5, 19421, Note_on_c, 3, 62, 0
5, 19500, Note_on_c, 3, 65, 127
5, 19522, Note_on_c, 3, 65, 0
5, 19530, Note_on_c, 3, 62, 127
5, 19560, Note_on_c, 3, 60, 127
5, 19566, Note_on_c, 3, 62, 0
5, 19618, Note_on_c, 3, 60, 0
5, 19620, Note_on_c, 3, 62, 127
5, 19665, Note_on_c, 3, 62, 0
5, 19680, Note_on_c, 3, 70, 121
5, 19693, Note_on_c, 3, 70, 0
5, 19710, Note_on_c, 3, 70, 123
5, 19725, Note_on_c, 3, 70, 0
5, 19740, Note_on_c, 3, 70, 123
5, 19757, Note_on_c, 3, 70, 0
5, 19770, Note_on_c, 3, 68, 123
5, 19786, Note_on_c, 3, 68, 0
5, 19800, Note_on_c, 3, 65, 123
5, 19841, Note_on_c, 3, 65, 0
5, 19920, Note_on_c, 3, 68, 126
5, 19947, Note_on_c, 3, 68, 0
5, 19980, Note_on_c, 3, 68, 126
5, 20002, Note_on_c, 3, 68, 0
5, 20010, Note_on_c, 3, 67, 126
5, 20028, Note_on_c, 3, 67, 0
5, 20040, Note_on_c, 3, 65, 126
5, 20076, Note_on_c, 3, 65, 0
5, 20100, Note_on_c, 3, 62, 127
5, 20138, Note_on_c, 3, 62, 0
5, 20160, Note_on_c, 3, 60, 127
5, 20200, Note_on_c, 3, 60, 0
5, 20220, Note_on_c, 3, 65, 127
5, 20240, Note_on_c, 3, 65, 0
5, 20250, Note_on_c, 3, 62, 127
5, 20280, Note_on_c, 3, 60, 127
5, 20286, Note_on_c, 3, 62, 0
5, 20340, Note_on_c, 3, 62, 127
5, 20341, Note_on_c, 3, 60, 0
5, 20377, Note_on_c, 3, 62, 0
5, 20460, Note_on_c, 3, 65, 127
5, 20486, Note_on_c, 3, 65, 0
5, 20490, Note_on_c, 3, 62, 127
5, 20520, Note_on_c, 3, 60, 127
5, 20525, Note_on_c, 3, 62, 0
5, 20579, Note_on_c, 3, 60, 0
5, 20580, Note_on_c, 3, 62, 120
5, 20610, Note_on_c, 3, 67, 123
5, 20611, Note_on_c, 3, 62, 0
5, 20628, Note_on_c, 3, 67, 0
5, 20640, Note_on_c, 3, 68, 123
5, 20686, Note_on_c, 3, 68, 0
5, 20700, Note_on_c, 3, 67, 123
5, 20720, Note_on_c, 3, 67, 0
5, 20730, Note_on_c, 3, 67, 123
5, 20750, Note_on_c, 3, 67, 0
5, 20760, Note_on_c, 3, 65, 127
5, 20801, Note_on_c, 3, 65, 0
5, 20850, Note_on_c, 3, 60, 127
5, 20866, Note_on_c, 3, 60, 0
5, 20880, Note_on_c, 3, 65, 127
5, 20893, Note_on_c, 3, 65, 0
5, 20910, Note_on_c, 3, 65, 127
5, 20932, Note_on_c, 3, 65, 0
5, 20940, Note_on_c, 3, 62, 127
5, 20981, Note_on_c, 3, 62, 0
5, 21000, Note_on_c, 3, 60, 127
5, 21040, Note_on_c, 3, 60, 0
5, 21060, Note_on_c, 3, 57, 127
5, 21104, Note_on_c, 3, 57, 0
5, 21120, Note_on_c, 3, 53, 127
5, 21161, Note_on_c, 3, 53, 0
5, 21161, End_track
6, 0, Start_track
6, 0, MIDI_port, 0
6, 0, Title_t, ">>GUITAR"
6, 0, Program_c, 4, 24
6, 0, Control_c, 4, 7, 100
6, 0, End_track
7, 0, Start_track
7, 0, MIDI_port, 0
7, 0, Title_t, "Sax"
7, 0, Program_c, 5, 65
7, 0, Control_c, 5, 7, 100
7, 480, Note_on_c, 5, 60, 99
7, 720, Note_on_c, 5, 58, 100
7, 728, Note_on_c, 5, 60, 0
7, 958, Note_on_c, 5, 58, 0
7, 960, Note_on_c, 5, 53, 100
7, 1391, Note_on_c, 5, 53, 0
7, 1500, Note_on_c, 5, 56, 106
7, 1530, Note_on_c, 5, 56, 0
7, 1530, Note_on_c, 5, 55, 78
7, 1560, Note_on_c, 5, 53, 91
7, 1566, Note_on_c, 5, 55, 0
7, 1613, Note_on_c, 5, 53, 0
7, 1620, Note_on_c, 5, 50, 93
7, 1648, Note_on_c, 5, 50, 0
7, 1680, Note_on_c, 5, 56, 116
7, 1702, Note_on_c, 5, 56, 0
7, 1740, Note_on_c, 5, 56, 106
7, 1770, Note_on_c, 5, 55, 82
7, 1777, Note_on_c, 5, 56, 0
7, 1800, Note_on_c, 5, 53, 95
7, 1802, Note_on_c, 5, 55, 0
7, 1860, Note_on_c, 5, 50, 100
7, 1869, Note_on_c, 5, 53, 0
7, 1903, Note_on_c, 5, 50, 0
7, 1950, Note_on_c, 5, 57, 96
7, 1950, Note_on_c, 5, 53, 96
7, 1970, Note_on_c, 5, 53, 0
7, 1970, Note_on_c, 5, 57, 0
7, 1980, Note_on_c, 5, 57, 84
7, 1980, Note_on_c, 5, 53, 84
7, 2000, Note_on_c, 5, 53, 0
7, 2000, Note_on_c, 5, 57, 0
7, 2010, Note_on_c, 5, 57, 93
7, 2010, Note_on_c, 5, 53, 85
7, 2030, Note_on_c, 5, 53, 0
7, 2030, Note_on_c, 5, 57, 0
7, 2040, Note_on_c, 5, 57, 83
7, 2040, Note_on_c, 5, 53, 83
7, 2060, Note_on_c, 5, 53, 0
7, 2060, Note_on_c, 5, 57, 0
7, 2070, Note_on_c, 5, 53, 85
7, 2070, Note_on_c, 5, 57, 93
7, 2090, Note_on_c, 5, 57, 0
7, 2090, Note_on_c, 5, 53, 0
7, 2130, Note_on_c, 5, 56, 93
7, 2130, Note_on_c, 5, 52, 83
7, 2150, Note_on_c, 5, 52, 0
7, 2150, Note_on_c, 5, 56, 0
7, 2160, Note_on_c, 5, 57, 93
7, 2160, Note_on_c, 5, 53, 98
7, 2180, Note_on_c, 5, 53, 0
7, 2180, Note_on_c, 5, 57, 0
7, 2190, Note_on_c, 5, 57, 82
7, 2190, Note_on_c, 5, 53, 82
7, 2210, Note_on_c, 5, 53, 0
7, 2210, Note_on_c, 5, 57, 0
7, 2220, Note_on_c, 5, 57, 93
7, 2220, Note_on_c, 5, 53, 99
7, 2240, Note_on_c, 5, 53, 0
7, 2240, Note_on_c, 5, 57, 0
7, 2250, Note_on_c, 5, 57, 81
7, 2250, Note_on_c, 5, 53, 81
7, 2270, Note_on_c, 5, 53, 0
7, 2270, Note_on_c, 5, 57, 0
7, 2280, Note_on_c, 5, 57, 93
7, 2280, Note_on_c, 5, 53, 97
7, 2300, Note_on_c, 5, 53, 0
7, 2300, Note_on_c, 5, 57, 0
7, 2310, Note_on_c, 5, 57, 80
7, 2310, Note_on_c, 5, 53, 80
7, 2330, Note_on_c, 5, 53, 0
7, 2330, Note_on_c, 5, 57, 0
7, 2340, Note_on_c, 5, 57, 93
7, 2340, Note_on_c, 5, 53, 100
7, 2360, Note_on_c, 5, 53, 0
7, 2360, Note_on_c, 5, 57, 0
7, 2400, Note_on_c, 5, 53, 100
7, 2420, Note_on_c, 5, 53, 0
7, 2460, Note_on_c, 5, 56, 122
7, 2490, Note_on_c, 5, 55, 89
7, 2493, Note_on_c, 5, 56, 0
7, 2520, Note_on_c, 5, 53, 97
7, 2522, Note_on_c, 5, 55, 0
7, 2580, Note_on_c, 5, 50, 102
7, 2590, Note_on_c, 5, 53, 0
7, 2609, Note_on_c, 5, 50, 0
7, 2640, Note_on_c, 5, 56, 98
7, 2664, Note_on_c, 5, 56, 0
7, 2700, Note_on_c, 5, 56, 98
7, 2730, Note_on_c, 5, 55, 93
7, 2737, Note_on_c, 5, 56, 0
7, 2757, Note_on_c, 5, 55, 0
7, 2760, Note_on_c, 5, 53, 84
7, 2820, Note_on_c, 5, 50, 111
7, 2834, Note_on_c, 5, 53, 0
7, 2860, Note_on_c, 5, 50, 0
7, 2910, Note_on_c, 5, 57, 96
7, 2910, Note_on_c, 5, 53, 96
7, 2930, Note_on_c, 5, 53, 0
7, 2930, Note_on_c, 5, 57, 0
7, 2940, Note_on_c, 5, 57, 84
7, 2940, Note_on_c, 5, 53, 84
7, 2960, Note_on_c, 5, 53, 0
7, 2960, Note_on_c, 5, 57, 0
7, 2970, Note_on_c, 5, 57, 93
7, 2970, Note_on_c, 5, 53, 85
7, 2990, Note_on_c, 5, 53, 0
7, 2990, Note_on_c, 5, 57, 0
7, 3000, Note_on_c, 5, 57, 83
7, 3000, Note_on_c, 5, 53, 83
7, 3020, Note_on_c, 5, 53, 0
7, 3020, Note_on_c, 5, 57, 0
7, 3030, Note_on_c, 5, 53, 85
7, 3030, Note_on_c, 5, 57, 93
7, 3050, Note_on_c, 5, 57, 0
7, 3050, Note_on_c, 5, 53, 0
7, 3090, Note_on_c, 5, 56, 93
7, 3090, Note_on_c, 5, 52, 83
7, 3110, Note_on_c, 5, 52, 0
7, 3110, Note_on_c, 5, 56, 0
7, 3120, Note_on_c, 5, 57, 93
7, 3120, Note_on_c, 5, 53, 98
7, 3140, Note_on_c, 5, 53, 0
7, 3140, Note_on_c, 5, 57, 0
7, 3150, Note_on_c, 5, 57, 82
7, 3150, Note_on_c, 5, 53, 82
7, 3170, Note_on_c, 5, 53, 0
7, 3170, Note_on_c, 5, 57, 0
7, 3180, Note_on_c, 5, 57, 93
7, 3180, Note_on_c, 5, 53, 99
7, 3200, Note_on_c, 5, 53, 0
7, 3200, Note_on_c, 5, 57, 0
7, 3210, Note_on_c, 5, 57, 81
7, 3210, Note_on_c, 5, 53, 81
7, 3230, Note_on_c, 5, 53, 0
7, 3230, Note_on_c, 5, 57, 0
7, 3240, Note_on_c, 5, 57, 93
7, 3240, Note_on_c, 5, 53, 97
7, 3260, Note_on_c, 5, 53, 0
7, 3260, Note_on_c, 5, 57, 0
7, 3270, Note_on_c, 5, 57, 80
7, 3270, Note_on_c, 5, 53, 80
7, 3290, Note_on_c, 5, 53, 0
7, 3290, Note_on_c, 5, 57, 0
7, 3300, Note_on_c, 5, 57, 93
7, 3300, Note_on_c, 5, 53, 100
7, 3320, Note_on_c, 5, 53, 0
7, 3320, Note_on_c, 5, 57, 0
7, 3360, Note_on_c, 5, 53, 58
7, 3371, Note_on_c, 5, 53, 0
7, 3420, Note_on_c, 5, 56, 106
7, 3450, Note_on_c, 5, 55, 82
7, 3457, Note_on_c, 5, 56, 0
7, 3479, Note_on_c, 5, 55, 0
7, 3480, Note_on_c, 5, 53, 95
7, 3540, Note_on_c, 5, 50, 105
7, 3553, Note_on_c, 5, 53, 0
7, 3564, Note_on_c, 5, 50, 0
7, 3600, Note_on_c, 5, 55, 124
7, 3629, Note_on_c, 5, 55, 0
7, 3870, Note_on_c, 5, 57, 96
7, 3870, Note_on_c, 5, 53, 96
7, 3890, Note_on_c, 5, 53, 0
7, 3890, Note_on_c, 5, 57, 0
7, 3900, Note_on_c, 5, 57, 84
7, 3900, Note_on_c, 5, 53, 84
7, 3920, Note_on_c, 5, 53, 0
7, 3920, Note_on_c, 5, 57, 0
7, 3930, Note_on_c, 5, 57, 93
7, 3930, Note_on_c, 5, 53, 85
7, 3950, Note_on_c, 5, 53, 0
7, 3950, Note_on_c, 5, 57, 0
7, 3960, Note_on_c, 5, 57, 83
7, 3960, Note_on_c, 5, 53, 83
7, 3980, Note_on_c, 5, 53, 0
7, 3980, Note_on_c, 5, 57, 0
7, 3990, Note_on_c, 5, 53, 85
7, 3990, Note_on_c, 5, 57, 93
7, 4010, Note_on_c, 5, 57, 0
7, 4010, Note_on_c, 5, 53, 0
7, 4050, Note_on_c, 5, 56, 93
7, 4050, Note_on_c, 5, 52, 83
7, 4070, Note_on_c, 5, 52, 0
7, 4070, Note_on_c, 5, 56, 0
7, 4080, Note_on_c, 5, 57, 93
7, 4080, Note_on_c, 5, 53, 98
7, 4100, Note_on_c, 5, 53, 0
7, 4100, Note_on_c, 5, 57, 0
7, 4110, Note_on_c, 5, 57, 82
7, 4110, Note_on_c, 5, 53, 82
7, 4130, Note_on_c, 5, 53, 0
7, 4130, Note_on_c, 5, 57, 0
7, 4140, Note_on_c, 5, 57, 93
7, 4140, Note_on_c, 5, 53, 99
7, 4160, Note_on_c, 5, 53, 0
7, 4160, Note_on_c, 5, 57, 0
7, 4170, Note_on_c, 5, 57, 81
7, 4170, Note_on_c, 5, 53, 81
7, 4190, Note_on_c, 5, 53, 0
7, 4190, Note_on_c, 5, 57, 0
7, 4200, Note_on_c, 5, 57, 93
7, 4200, Note_on_c, 5, 53, 97
7, 4220, Note_on_c, 5, 53, 0
7, 4220, Note_on_c, 5, 57, 0
7, 4230, Note_on_c, 5, 57, 80
7, 4230, Note_on_c, 5, 53, 80
7, 4250, Note_on_c, 5, 53, 0
7, 4250, Note_on_c, 5, 57, 0
7, 4260, Note_on_c, 5, 57, 93
7, 4260, Note_on_c, 5, 53, 100
7, 4280, Note_on_c, 5, 53, 0
7, 4280, Note_on_c, 5, 57, 0
7, 4380, Note_on_c, 5, 56, 106
7, 4410, Note_on_c, 5, 56, 0
7, 4410, Note_on_c, 5, 55, 78
7, 4440, Note_on_c, 5, 53, 91
7, 4446, Note_on_c, 5, 55, 0
7, 4493, Note_on_c, 5, 53, 0
7, 4500, Note_on_c, 5, 50, 93
7, 4528, Note_on_c, 5, 50, 0
7, 4560, Note_on_c, 5, 56, 116
7, 4582, Note_on_c, 5, 56, 0
7, 4620, Note_on_c, 5, 56, 106
7, 4650, Note_on_c, 5, 55, 82
7, 4657, Note_on_c, 5, 56, 0
7, 4680, Note_on_c, 5, 53, 95
7, 4682, Note_on_c, 5, 55, 0
7, 4740, Note_on_c, 5, 50, 100
7, 4749, Note_on_c, 5, 53, 0
7, 4783, Note_on_c, 5, 50, 0
7, 4830, Note_on_c, 5, 57, 96
7, 4830, Note_on_c, 5, 53, 96
7, 4850, Note_on_c, 5, 53, 0
7, 4850, Note_on_c, 5, 57, 0
7, 4860, Note_on_c, 5, 57, 84
7, 4860, Note_on_c, 5, 53, 84
7, 4880, Note_on_c, 5, 53, 0
7, 4880, Note_on_c, 5, 57, 0
7, 4890, Note_on_c, 5, 57, 93
7, 4890, Note_on_c, 5, 53, 85
7, 4910, Note_on_c, 5, 53, 0
7, 4910, Note_on_c, 5, 57, 0
7, 4920, Note_on_c, 5, 57, 83
7, 4920, Note_on_c, 5, 53, 83
7, 4940, Note_on_c, 5, 53, 0
7, 4940, Note_on_c, 5, 57, 0
7, 4950, Note_on_c, 5, 53, 85
7, 4950, Note_on_c, 5, 57, 93
7, 4970, Note_on_c, 5, 57, 0
7, 4970, Note_on_c, 5, 53, 0
7, 5010, Note_on_c, 5, 56, 93
7, 5010, Note_on_c, 5, 52, 83
7, 5030, Note_on_c, 5, 52, 0
7, 5030, Note_on_c, 5, 56, 0
7, 5040, Note_on_c, 5, 57, 93
7, 5040, Note_on_c, 5, 53, 98
7, 5060, Note_on_c, 5, 53, 0
7, 5060, Note_on_c, 5, 57, 0
7, 5070, Note_on_c, 5, 57, 82
7, 5070, Note_on_c, 5, 53, 82
7, 5090, Note_on_c, 5, 53, 0
7, 5090, Note_on_c, 5, 57, 0
7, 5100, Note_on_c, 5, 57, 93
7, 5100, Note_on_c, 5, 53, 99
7, 5120, Note_on_c, 5, 53, 0
7, 5120, Note_on_c, 5, 57, 0
7, 5130, Note_on_c, 5, 57, 81
7, 5130, Note_on_c, 5, 53, 81
7, 5150, Note_on_c, 5, 53, 0
7, 5150, Note_on_c, 5, 57, 0
7, 5160, Note_on_c, 5, 57, 93
7, 5160, Note_on_c, 5, 53, 97
7, 5180, Note_on_c, 5, 53, 0
7, 5180, Note_on_c, 5, 57, 0
7, 5190, Note_on_c, 5, 57, 80
7, 5190, Note_on_c, 5, 53, 80
7, 5210, Note_on_c, 5, 53, 0
7, 5210, Note_on_c, 5, 57, 0
7, 5220, Note_on_c, 5, 57, 93
7, 5220, Note_on_c, 5, 53, 100
7, 5240, Note_on_c, 5, 53, 0
7, 5240, Note_on_c, 5, 57, 0
7, 5280, Note_on_c, 5, 53, 100
7, 5300, Note_on_c, 5, 53, 0
7, 5340, Note_on_c, 5, 56, 122
7, 5370, Note_on_c, 5, 55, 89
7, 5373, Note_on_c, 5, 56, 0
7, 5400, Note_on_c, 5, 53, 97
7, 5402, Note_on_c, 5, 55, 0
7, 5460, Note_on_c, 5, 50, 102
7, 5470, Note_on_c, 5, 53, 0
7, 5489, Note_on_c, 5, 50, 0
7, 5520, Note_on_c, 5, 56, 98
7, 5544, Note_on_c, 5, 56, 0
7, 5580, Note_on_c, 5, 56, 98
7, 5610, Note_on_c, 5, 55, 93
7, 5617, Note_on_c, 5, 56, 0
7, 5637, Note_on_c, 5, 55, 0
7, 5640, Note_on_c, 5, 53, 84
7, 5700, Note_on_c, 5, 50, 111
7, 5714, Note_on_c, 5, 53, 0
7, 5740, Note_on_c, 5, 50, 0
7, 5790, Note_on_c, 5, 57, 96
7, 5790, Note_on_c, 5, 53, 96
7, 5810, Note_on_c, 5, 53, 0
7, 5810, Note_on_c, 5, 57, 0
7, 5820, Note_on_c, 5, 57, 84
7, 5820, Note_on_c, 5, 53, 84
7, 5840, Note_on_c, 5, 53, 0
7, 5840, Note_on_c, 5, 57, 0
7, 5850, Note_on_c, 5, 57, 93
7, 5850, Note_on_c, 5, 53, 85
7, 5870, Note_on_c, 5, 53, 0
7, 5870, Note_on_c, 5, 57, 0
7, 5880, Note_on_c, 5, 57, 83
7, 5880, Note_on_c, 5, 53, 83
7, 5900, Note_on_c, 5, 53, 0
7, 5900, Note_on_c, 5, 57, 0
7, 5910, Note_on_c, 5, 53, 85
7, 5910, Note_on_c, 5, 57, 93
7, 5930, Note_on_c, 5, 57, 0
7, 5930, Note_on_c, 5, 53, 0
7, 5970, Note_on_c, 5, 56, 93
7, 5970, Note_on_c, 5, 52, 83
7, 5990, Note_on_c, 5, 52, 0
7, 5990, Note_on_c, 5, 56, 0
7, 6000, Note_on_c, 5, 57, 93
7, 6000, Note_on_c, 5, 53, 98
7, 6020, Note_on_c, 5, 53, 0
7, 6020, Note_on_c, 5, 57, 0
7, 6030, Note_on_c, 5, 57, 82
7, 6030, Note_on_c, 5, 53, 82
7, 6050, Note_on_c, 5, 53, 0
7, 6050, Note_on_c, 5, 57, 0
7, 6060, Note_on_c, 5, 57, 93
7, 6060, Note_on_c, 5, 53, 99
7, 6080, Note_on_c, 5, 53, 0
7, 6080, Note_on_c, 5, 57, 0
7, 6090, Note_on_c, 5, 57, 81
7, 6090, Note_on_c, 5, 53, 81
7, 6110, Note_on_c, 5, 53, 0
7, 6110, Note_on_c, 5, 57, 0
7, 6120, Note_on_c, 5, 57, 93
7, 6120, Note_on_c, 5, 53, 97
7, 6140, Note_on_c, 5, 53, 0
7, 6140, Note_on_c, 5, 57, 0
7, 6150, Note_on_c, 5, 57, 80
7, 6150, Note_on_c, 5, 53, 80
7, 6170, Note_on_c, 5, 53, 0
7, 6170, Note_on_c, 5, 57, 0
7, 6180, Note_on_c, 5, 57, 93
7, 6180, Note_on_c, 5, 53, 100
7, 6200, Note_on_c, 5, 53, 0
7, 6200, Note_on_c, 5, 57, 0
7, 6240, Note_on_c, 5, 53, 58
7, 6251, Note_on_c, 5, 53, 0
7, 6300, Note_on_c, 5, 56, 106
7, 6330, Note_on_c, 5, 55, 82
7, 6337, Note_on_c, 5, 56, 0
7, 6359, Note_on_c, 5, 55, 0
7, 6360, Note_on_c, 5, 53, 95
7, 6420, Note_on_c, 5, 50, 105
7, 6433, Note_on_c, 5, 53, 0
7, 6444, Note_on_c, 5, 50, 0
7, 6480, Note_on_c, 5, 55, 124
7, 6509, Note_on_c, 5, 55, 0
7, 6750, Note_on_c, 5, 57, 96
7, 6750, Note_on_c, 5, 53, 96
7, 6770, Note_on_c, 5, 53, 0
7, 6770, Note_on_c, 5, 57, 0
7, 6780, Note_on_c, 5, 57, 84
7, 6780, Note_on_c, 5, 53, 84
7, 6800, Note_on_c, 5, 53, 0
7, 6800, Note_on_c, 5, 57, 0
7, 6810, Note_on_c, 5, 57, 93
7, 6810, Note_on_c, 5, 53, 85
7, 6830, Note_on_c, 5, 53, 0
7, 6830, Note_on_c, 5, 57, 0
7, 6840, Note_on_c, 5, 57, 83
7, 6840, Note_on_c, 5, 53, 83
7, 6860, Note_on_c, 5, 53, 0
7, 6860, Note_on_c, 5, 57, 0
7, 6870, Note_on_c, 5, 53, 85
7, 6870, Note_on_c, 5, 57, 93
7, 6890, Note_on_c, 5, 57, 0
7, 6890, Note_on_c, 5, 53, 0
7, 6930, Note_on_c, 5, 56, 93
7, 6930, Note_on_c, 5, 52, 83
7, 6950, Note_on_c, 5, 52, 0
7, 6950, Note_on_c, 5, 56, 0
7, 6960, Note_on_c, 5, 57, 93
7, 6960, Note_on_c, 5, 53, 98
7, 6980, Note_on_c, 5, 53, 0
7, 6980, Note_on_c, 5, 57, 0
7, 6990, Note_on_c, 5, 57, 82
7, 6990, Note_on_c, 5, 53, 82
7, 7010, Note_on_c, 5, 53, 0
7, 7010, Note_on_c, 5, 57, 0
7, 7020, Note_on_c, 5, 57, 93
7, 7020, Note_on_c, 5, 53, 99
7, 7040, Note_on_c, 5, 53, 0
7, 7040, Note_on_c, 5, 57, 0
7, 7050, Note_on_c, 5, 57, 81
7, 7050, Note_on_c, 5, 53, 81
7, 7070, Note_on_c, 5, 53, 0
7, 7070, Note_on_c, 5, 57, 0
7, 7080, Note_on_c, 5, 57, 93
7, 7080, Note_on_c, 5, 53, 97
7, 7100, Note_on_c, 5, 53, 0
7, 7100, Note_on_c, 5, 57, 0
7, 7110, Note_on_c, 5, 57, 80
7, 7110, Note_on_c, 5, 53, 80
7, 7130, Note_on_c, 5, 53, 0
7, 7130, Note_on_c, 5, 57, 0
7, 7140, Note_on_c, 5, 57, 93
7, 7140, Note_on_c, 5, 53, 100
7, 7160, Note_on_c, 5, 53, 0
7, 7160, Note_on_c, 5, 57, 0
7, 7260, Note_on_c, 5, 56, 106
7, 7290, Note_on_c, 5, 56, 0
7, 7290, Note_on_c, 5, 55, 78
7, 7320, Note_on_c, 5, 53, 91
7, 7326, Note_on_c, 5, 55, 0
7, 7373, Note_on_c, 5, 53, 0
7, 7380, Note_on_c, 5, 50, 93
7, 7408, Note_on_c, 5, 50, 0
7, 7440, Note_on_c, 5, 56, 116
7, 7462, Note_on_c, 5, 56, 0
7, 7500, Note_on_c, 5, 56, 106
7, 7530, Note_on_c, 5, 55, 82
7, 7537, Note_on_c, 5, 56, 0
7, 7560, Note_on_c, 5, 53, 95
7, 7562, Note_on_c, 5, 55, 0
7, 7620, Note_on_c, 5, 50, 100
7, 7629, Note_on_c, 5, 53, 0
7, 7663, Note_on_c, 5, 50, 0
7, 7710, Note_on_c, 5, 57, 96
7, 7710, Note_on_c, 5, 53, 96
7, 7730, Note_on_c, 5, 53, 0
7, 7730, Note_on_c, 5, 57, 0
7, 7740, Note_on_c, 5, 57, 84
7, 7740, Note_on_c, 5, 53, 84
7, 7760, Note_on_c, 5, 53, 0
7, 7760, Note_on_c, 5, 57, 0
7, 7770, Note_on_c, 5, 57, 93
7, 7770, Note_on_c, 5, 53, 85
7, 7790, Note_on_c, 5, 53, 0
7, 7790, Note_on_c, 5, 57, 0
7, 7800, Note_on_c, 5, 57, 83
7, 7800, Note_on_c, 5, 53, 83
7, 7820, Note_on_c, 5, 53, 0
7, 7820, Note_on_c, 5, 57, 0
7, 7830, Note_on_c, 5, 53, 85
7, 7830, Note_on_c, 5, 57, 93
7, 7850, Note_on_c, 5, 57, 0
7, 7850, Note_on_c, 5, 53, 0
7, 7890, Note_on_c, 5, 56, 93
7, 7890, Note_on_c, 5, 52, 83
7, 7910, Note_on_c, 5, 52, 0
7, 7910, Note_on_c, 5, 56, 0
7, 7920, Note_on_c, 5, 57, 93
7, 7920, Note_on_c, 5, 53, 98
7, 7940, Note_on_c, 5, 53, 0
7, 7940, Note_on_c, 5, 57, 0
7, 7950, Note_on_c, 5, 57, 82
7, 7950, Note_on_c, 5, 53, 82
7, 7970, Note_on_c, 5, 53, 0
7, 7970, Note_on_c, 5, 57, 0
7, 7980, Note_on_c, 5, 57, 93
7, 7980, Note_on_c, 5, 53, 99
7, 8000, Note_on_c, 5, 53, 0
7, 8000, Note_on_c, 5, 57, 0
7, 8010, Note_on_c, 5, 57, 81
7, 8010, Note_on_c, 5, 53, 81
7, 8030, Note_on_c, 5, 53, 0
7, 8030, Note_on_c, 5, 57, 0
7, 8040, Note_on_c, 5, 57, 93
7, 8040, Note_on_c, 5, 53, 97
7, 8060, Note_on_c, 5, 53, 0
7, 8060, Note_on_c, 5, 57, 0
7, 8070, Note_on_c, 5, 57, 80
7, 8070, Note_on_c, 5, 53, 80
7, 8090, Note_on_c, 5, 53, 0
7, 8090, Note_on_c, 5, 57, 0
7, 8100, Note_on_c, 5, 57, 93
7, 8100, Note_on_c, 5, 53, 100
7, 8120, Note_on_c, 5, 53, 0
7, 8120, Note_on_c, 5, 57, 0
7, 8160, Note_on_c, 5, 53, 100
7, 8180, Note_on_c, 5, 53, 0
7, 8220, Note_on_c, 5, 56, 122
7, 8250, Note_on_c, 5, 55, 89
7, 8253, Note_on_c, 5, 56, 0
7, 8280, Note_on_c, 5, 53, 97
7, 8282, Note_on_c, 5, 55, 0
7, 8340, Note_on_c, 5, 50, 102
7, 8350, Note_on_c, 5, 53, 0
7, 8369, Note_on_c, 5, 50, 0
7, 8400, Note_on_c, 5, 56, 98
7, 8424, Note_on_c, 5, 56, 0
7, 8460, Note_on_c, 5, 56, 98
7, 8490, Note_on_c, 5, 55, 93
7, 8497, Note_on_c, 5, 56, 0
7, 8517, Note_on_c, 5, 55, 0
7, 8520, Note_on_c, 5, 53, 84
7, 8580, Note_on_c, 5, 50, 111
7, 8594, Note_on_c, 5, 53, 0
7, 8620, Note_on_c, 5, 50, 0
7, 8670, Note_on_c, 5, 57, 96
7, 8670, Note_on_c, 5, 53, 96
7, 8690, Note_on_c, 5, 53, 0
7, 8690, Note_on_c, 5, 57, 0
7, 8700, Note_on_c, 5, 57, 84
7, 8700, Note_on_c, 5, 53, 84
7, 8720, Note_on_c, 5, 53, 0
7, 8720, Note_on_c, 5, 57, 0
7, 8730, Note_on_c, 5, 57, 93
7, 8730, Note_on_c, 5, 53, 85
7, 8750, Note_on_c, 5, 53, 0
7, 8750, Note_on_c, 5, 57, 0
7, 8760, Note_on_c, 5, 57, 83
7, 8760, Note_on_c, 5, 53, 83
7, 8780, Note_on_c, 5, 53, 0
7, 8780, Note_on_c, 5, 57, 0
7, 8790, Note_on_c, 5, 53, 85
7, 8790, Note_on_c, 5, 57, 93
7, 8810, Note_on_c, 5, 57, 0
7, 8810, Note_on_c, 5, 53, 0
7, 8850, Note_on_c, 5, 56, 93
7, 8850, Note_on_c, 5, 52, 83
7, 8870, Note_on_c, 5, 52, 0
7, 8870, Note_on_c, 5, 56, 0
7, 8880, Note_on_c, 5, 57, 93
7, 8880, Note_on_c, 5, 53, 98
7, 8900, Note_on_c, 5, 53, 0
7, 8900, Note_on_c, 5, 57, 0
7, 8910, Note_on_c, 5, 57, 82
7, 8910, Note_on_c, 5, 53, 82
7, 8930, Note_on_c, 5, 53, 0
7, 8930, Note_on_c, 5, 57, 0
7, 8940, Note_on_c, 5, 57, 93
7, 8940, Note_on_c, 5, 53, 99
7, 8960, Note_on_c, 5, 53, 0
7, 8960, Note_on_c, 5, 57, 0
7, 8970, Note_on_c, 5, 57, 81
7, 8970, Note_on_c, 5, 53, 81
7, 8990, Note_on_c, 5, 53, 0
7, 8990, Note_on_c, 5, 57, 0
7, 9000, Note_on_c, 5, 57, 93
7, 9000, Note_on_c, 5, 53, 97
7, 9020, Note_on_c, 5, 53, 0
7, 9020, Note_on_c, 5, 57, 0
7, 9030, Note_on_c, 5, 57, 80
7, 9030, Note_on_c, 5, 53, 80
7, 9050, Note_on_c, 5, 53, 0
7, 9050, Note_on_c, 5, 57, 0
7, 9060, Note_on_c, 5, 57, 93
7, 9060, Note_on_c, 5, 53, 100
7, 9080, Note_on_c, 5, 53, 0
7, 9080, Note_on_c, 5, 57, 0
7, 9120, Note_on_c, 5, 53, 58
7, 9131, Note_on_c, 5, 53, 0
7, 9180, Note_on_c, 5, 56, 106
7, 9210, Note_on_c, 5, 55, 82
7, 9217, Note_on_c, 5, 56, 0
7, 9239, Note_on_c, 5, 55, 0
7, 9240, Note_on_c, 5, 53, 95
7, 9300, Note_on_c, 5, 50, 105
7, 9313, Note_on_c, 5, 53, 0
7, 9324, Note_on_c, 5, 50, 0
7, 9360, Note_on_c, 5, 55, 124
7, 9389, Note_on_c, 5, 55, 0
7, 9630, Note_on_c, 5, 57, 96
7, 9630, Note_on_c, 5, 53, 96
7, 9650, Note_on_c, 5, 53, 0
7, 9650, Note_on_c, 5, 57, 0
7, 9660, Note_on_c, 5, 57, 84
7, 9660, Note_on_c, 5, 53, 84
7, 9680, Note_on_c, 5, 53, 0
7, 9680, Note_on_c, 5, 57, 0
7, 9690, Note_on_c, 5, 57, 93
7, 9690, Note_on_c, 5, 53, 85
7, 9710, Note_on_c, 5, 53, 0
7, 9710, Note_on_c, 5, 57, 0
7, 9720, Note_on_c, 5, 57, 83
7, 9720, Note_on_c, 5, 53, 83
7, 9740, Note_on_c, 5, 53, 0
7, 9740, Note_on_c, 5, 57, 0
7, 9750, Note_on_c, 5, 53, 85
7, 9750, Note_on_c, 5, 57, 93
7, 9770, Note_on_c, 5, 57, 0
7, 9770, Note_on_c, 5, 53, 0
7, 9810, Note_on_c, 5, 56, 93
7, 9810, Note_on_c, 5, 52, 83
7, 9830, Note_on_c, 5, 52, 0
7, 9830, Note_on_c, 5, 56, 0
7, 9840, Note_on_c, 5, 57, 93
7, 9840, Note_on_c, 5, 53, 98
7, 9860, Note_on_c, 5, 53, 0
7, 9860, Note_on_c, 5, 57, 0
7, 9870, Note_on_c, 5, 57, 82
7, 9870, Note_on_c, 5, 53, 82
7, 9890, Note_on_c, 5, 53, 0
7, 9890, Note_on_c, 5, 57, 0
7, 9900, Note_on_c, 5, 57, 93
7, 9900, Note_on_c, 5, 53, 99
7, 9920, Note_on_c, 5, 53, 0
7, 9920, Note_on_c, 5, 57, 0
7, 9930, Note_on_c, 5, 57, 81
7, 9930, Note_on_c, 5, 53, 81
7, 9950, Note_on_c, 5, 53, 0
7, 9950, Note_on_c, 5, 57, 0
7, 9960, Note_on_c, 5, 57, 93
7, 9960, Note_on_c, 5, 53, 97
7, 9980, Note_on_c, 5, 53, 0
7, 9980, Note_on_c, 5, 57, 0
7, 9990, Note_on_c, 5, 57, 80
7, 9990, Note_on_c, 5, 53, 80
7, 10010, Note_on_c, 5, 53, 0
7, 10010, Note_on_c, 5, 57, 0
7, 10020, Note_on_c, 5, 57, 93
7, 10020, Note_on_c, 5, 53, 100
7, 10040, Note_on_c, 5, 53, 0
7, 10040, Note_on_c, 5, 57, 0
7, 10083, Note_on_c, 5, 56, 127
7, 10175, Pitch_bend_c, 5, 7680
7, 10177, Pitch_bend_c, 5, 7296
7, 10178, Pitch_bend_c, 5, 6912
7, 10180, Pitch_bend_c, 5, 6656
7, 10182, Pitch_bend_c, 5, 6400
7, 10183, Pitch_bend_c, 5, 6144
7, 10185, Pitch_bend_c, 5, 6016
7, 10187, Pitch_bend_c, 5, 5760
7, 10188, Pitch_bend_c, 5, 5632
7, 10190, Pitch_bend_c, 5, 5504
7, 10192, Pitch_bend_c, 5, 5248
7, 10193, Pitch_bend_c, 5, 4864
7, 10195, Pitch_bend_c, 5, 4608
7, 10197, Pitch_bend_c, 5, 4224
7, 10199, Pitch_bend_c, 5, 3584
7, 10201, Pitch_bend_c, 5, 3072
7, 10202, Pitch_bend_c, 5, 2432
7, 10204, Pitch_bend_c, 5, 1792
7, 10206, Pitch_bend_c, 5, 896
7, 10208, Pitch_bend_c, 5, 128
7, 10209, Pitch_bend_c, 5, 0
7, 10221, Pitch_bend_c, 5, 128
7, 10222, Note_on_c, 5, 56, 0
7, 10223, Pitch_bend_c, 5, 1024
7, 10224, Pitch_bend_c, 5, 1920
7, 10226, Pitch_bend_c, 5, 2816
7, 10228, Pitch_bend_c, 5, 3712
7, 10229, Pitch_bend_c, 5, 4864
7, 10230, Note_on_c, 5, 53, 127
7, 10231, Pitch_bend_c, 5, 5888
7, 10233, Pitch_bend_c, 5, 6912
7, 10235, Pitch_bend_c, 5, 7936
7, 10236, Pitch_bend_c, 5, 8192
7, 10245, Note_on_c, 5, 53, 0
7, 10260, Note_on_c, 5, 53, 127
7, 10285, Note_on_c, 5, 53, 0
7, 10290, Note_on_c, 5, 48, 127
7, 10320, Note_on_c, 5, 53, 127
7, 10323, Note_on_c, 5, 48, 0
7, 10344, Note_on_c, 5, 53, 0
7, 10380, Note_on_c, 5, 53, 127
7, 10408, Note_on_c, 5, 53, 0
7, 10410, Note_on_c, 5, 48, 127
7, 10440, Note_on_c, 5, 53, 127
7, 10447, Note_on_c, 5, 48, 0
7, 10470, Note_on_c, 5, 56, 127
7, 10471, Note_on_c, 5, 53, 0
7, 10500, Note_on_c, 5, 53, 127
7, 10503, Note_on_c, 5, 56, 0
7, 10530, Note_on_c, 5, 48, 127
7, 10535, Note_on_c, 5, 53, 0
7, 10555, Note_on_c, 5, 48, 0
7, 10560, Note_on_c, 5, 53, 127
7, 10588, Note_on_c, 5, 53, 0
7, 10620, Note_on_c, 5, 53, 127
7, 10650, Note_on_c, 5, 56, 127
7, 10656, Note_on_c, 5, 53, 0
7, 10710, Note_on_c, 5, 60, 127
7, 10712, Note_on_c, 5, 56, 0
7, 10739, Note_on_c, 5, 60, 0
7, 10740, Note_on_c, 5, 62, 127
7, 10770, Note_on_c, 5, 65, 127
7, 10780, Note_on_c, 5, 62, 0
7, 10785, Note_on_c, 5, 65, 0
7, 10800, Note_on_c, 5, 65, 127
7, 10824, Note_on_c, 5, 65, 0
7, 10830, Note_on_c, 5, 65, 127
7, 10869, Note_on_c, 5, 65, 0
7, 10885, Pitch_bend_c, 5, 7168
7, 10887, Pitch_bend_c, 5, 5248
7, 10889, Pitch_bend_c, 5, 3456
7, 10890, Pitch_bend_c, 5, 1664
7, 10890, Note_on_c, 5, 65, 127
7, 10892, Pitch_bend_c, 5, 0
7, 10894, Pitch_bend_c, 5, 0
7, 10902, Pitch_bend_c, 5, 384
7, 10904, Pitch_bend_c, 5, 1920
7, 10906, Pitch_bend_c, 5, 3328
7, 10908, Pitch_bend_c, 5, 4864
7, 10909, Pitch_bend_c, 5, 6656
7, 10911, Pitch_bend_c, 5, 8192
7, 10997, Pitch_bend_c, 5, 7808
7, 10998, Pitch_bend_c, 5, 7424
7, 11000, Pitch_bend_c, 5, 7040
7, 11002, Pitch_bend_c, 5, 6528
7, 11004, Pitch_bend_c, 5, 6016
7, 11006, Pitch_bend_c, 5, 5504
7, 11007, Pitch_bend_c, 5, 4736
7, 11009, Pitch_bend_c, 5, 3840
7, 11011, Pitch_bend_c, 5, 2816
7, 11012, Pitch_bend_c, 5, 1920
7, 11014, Note_on_c, 5, 65, 0
7, 11014, Pitch_bend_c, 5, 1024
7, 11016, Pitch_bend_c, 5, 0
7, 11017, Pitch_bend_c, 5, 0
7, 11027, Pitch_bend_c, 5, 896
7, 11029, Pitch_bend_c, 5, 2560
7, 11031, Pitch_bend_c, 5, 4608
7, 11033, Pitch_bend_c, 5, 7168
7, 11034, Pitch_bend_c, 5, 8192
7, 11040, Note_on_c, 5, 68, 127
7, 11071, Note_on_c, 5, 68, 0
7, 11100, Note_on_c, 5, 68, 127
7, 11130, Note_on_c, 5, 67, 127
7, 11136, Note_on_c, 5, 68, 0
7, 11158, Note_on_c, 5, 67, 0
7, 11160, Note_on_c, 5, 65, 127
7, 11215, Note_on_c, 5, 65, 0
7, 11220, Note_on_c, 5, 62, 127
7, 11220, Note_on_c, 5, 65, 127
7, 11226, Note_on_c, 5, 65, 0
7, 11248, Note_on_c, 5, 62, 0
7, 11280, Note_on_c, 5, 68, 127
7, 11322, Pitch_bend_c, 5, 7552
7, 11323, Pitch_bend_c, 5, 7040
7, 11325, Pitch_bend_c, 5, 6400
7, 11327, Pitch_bend_c, 5, 5760
7, 11328, Pitch_bend_c, 5, 5376
7, 11330, Pitch_bend_c, 5, 4736
7, 11332, Pitch_bend_c, 5, 4096
7, 11333, Pitch_bend_c, 5, 3456
7, 11335, Pitch_bend_c, 5, 2816
7, 11337, Pitch_bend_c, 5, 2176
7, 11339, Pitch_bend_c, 5, 1664
7, 11340, Pitch_bend_c, 5, 1024
7, 11342, Pitch_bend_c, 5, 512
7, 11344, Pitch_bend_c, 5, 128
7, 11346, Pitch_bend_c, 5, 0
7, 11353, Pitch_bend_c, 5, 384
7, 11354, Pitch_bend_c, 5, 1536
7, 11356, Note_on_c, 5, 68, 0
7, 11356, Pitch_bend_c, 5, 2816
7, 11358, Pitch_bend_c, 5, 4352
7, 11359, Pitch_bend_c, 5, 5632
7, 11361, Pitch_bend_c, 5, 6912
7, 11363, Pitch_bend_c, 5, 8192
7, 11370, Note_on_c, 5, 68, 127
7, 11439, Note_on_c, 5, 68, 0
7, 11460, Note_on_c, 5, 68, 127
7, 11507, Note_on_c, 5, 68, 0
7, 11520, Note_on_c, 5, 68, 127
7, 11550, Note_on_c, 5, 67, 127
7, 11555, Note_on_c, 5, 68, 0
7, 11578, Note_on_c, 5, 67, 0
7, 11580, Note_on_c, 5, 65, 127
7, 11610, Note_on_c, 5, 67, 127
7, 11618, Note_on_c, 5, 65, 0
7, 11632, Note_on_c, 5, 67, 0
7, 11640, Note_on_c, 5, 65, 127
7, 11670, Note_on_c, 5, 60, 127
7, 11675, Note_on_c, 5, 65, 0
7, 11687, Note_on_c, 5, 60, 0
7, 11700, Note_on_c, 5, 62, 127
7, 11730, Note_on_c, 5, 62, 0
7, 11730, Note_on_c, 5, 65, 127
7, 11757, Note_on_c, 5, 65, 0
7, 11760, Note_on_c, 5, 60, 127
7, 11790, Note_on_c, 5, 62, 127
7, 11793, Note_on_c, 5, 60, 0
7, 11817, Note_on_c, 5, 62, 0
7, 11820, Note_on_c, 5, 65, 127
7, 11850, Note_on_c, 5, 53, 127
7, 11853, Note_on_c, 5, 65, 0
7, 11870, Note_on_c, 5, 53, 0
7, 11880, Note_on_c, 5, 57, 127
7, 11910, Note_on_c, 5, 58, 127
7, 11920, Note_on_c, 5, 57, 0
7, 11937, Note_on_c, 5, 58, 0
7, 11940, Note_on_c, 5, 59, 127
7, 11970, Note_on_c, 5, 60, 127
7, 11975, Note_on_c, 5, 59, 0
7, 12000, Note_on_c, 5, 65, 127
7, 12005, Note_on_c, 5, 60, 0
7, 12023, Note_on_c, 5, 65, 0
7, 12030, Note_on_c, 5, 65, 127
7, 12065, Note_on_c, 5, 65, 0
7, 12066, Pitch_bend_c, 5, 7424
7, 12068, Pitch_bend_c, 5, 6912
7, 12070, Pitch_bend_c, 5, 6400
7, 12071, Pitch_bend_c, 5, 6016
7, 12073, Pitch_bend_c, 5, 5504
7, 12075, Pitch_bend_c, 5, 5248
7, 12077, Pitch_bend_c, 5, 4864
7, 12078, Pitch_bend_c, 5, 4736
7, 12080, Pitch_bend_c, 5, 4608
7, 12082, Pitch_bend_c, 5, 4480
7, 12084, Pitch_bend_c, 5, 4352
7, 12087, Pitch_bend_c, 5, 4352
7, 12090, Note_on_c, 5, 65, 127
7, 12090, Pitch_bend_c, 5, 4480
7, 12092, Pitch_bend_c, 5, 4480
7, 12094, Pitch_bend_c, 5, 4608
7, 12095, Pitch_bend_c, 5, 4864
7, 12097, Pitch_bend_c, 5, 4992
7, 12099, Pitch_bend_c, 5, 5120
7, 12101, Pitch_bend_c, 5, 5376
7, 12102, Pitch_bend_c, 5, 5504
7, 12104, Pitch_bend_c, 5, 5632
7, 12106, Pitch_bend_c, 5, 5760
7, 12107, Pitch_bend_c, 5, 6016
7, 12109, Pitch_bend_c, 5, 6144
7, 12111, Pitch_bend_c, 5, 6272
7, 12112, Pitch_bend_c, 5, 6400
7, 12114, Pitch_bend_c, 5, 6528
7, 12116, Pitch_bend_c, 5, 6656
7, 12118, Pitch_bend_c, 5, 6784
7, 12120, Pitch_bend_c, 5, 6912
7, 12121, Pitch_bend_c, 5, 7040
7, 12123, Pitch_bend_c, 5, 7040
7, 12125, Pitch_bend_c, 5, 7296
7, 12126, Pitch_bend_c, 5, 7424
7, 12128, Pitch_bend_c, 5, 7680
7, 12130, Pitch_bend_c, 5, 8192
7, 12224, Note_on_c, 5, 65, 0
7, 12270, Note_on_c, 5, 60, 127
7, 12300, Note_on_c, 5, 58, 127
7, 12305, Note_on_c, 5, 60, 0
7, 12329, Note_on_c, 5, 58, 0
7, 12330, Note_on_c, 5, 53, 127
7, 12360, Note_on_c, 5, 56, 127
7, 12367, Note_on_c, 5, 53, 0
7, 12390, Note_on_c, 5, 58, 127
7, 12393, Note_on_c, 5, 56, 0
7, 12419, Note_on_c, 5, 58, 0
7, 12420, Note_on_c, 5, 53, 127
7, 12450, Note_on_c, 5, 50, 127
7, 12457, Note_on_c, 5, 53, 0
7, 12468, Note_on_c, 5, 50, 0
7, 12480, Note_on_c, 5, 53, 127
7, 12539, Note_on_c, 5, 53, 0
7, 12570, Note_on_c, 5, 48, 127
7, 12599, Note_on_c, 5, 48, 0
7, 12600, Note_on_c, 5, 53, 127
7, 12630, Note_on_c, 5, 58, 127
7, 12651, Note_on_c, 5, 58, 0
7, 12652, Note_on_c, 5, 53, 0
7, 12660, Note_on_c, 5, 60, 127
7, 12690, Note_on_c, 5, 60, 0
7, 12690, Note_on_c, 5, 57, 127
7, 12713, Note_on_c, 5, 57, 0
7, 12720, Note_on_c, 5, 63, 127
7, 12764, Note_on_c, 5, 63, 0
7, 12765, Note_on_c, 5, 60, 127
7, 12779, Note_on_c, 5, 60, 0
7, 12780, Note_on_c, 5, 62, 127
7, 12808, Note_on_c, 5, 62, 0
7, 12810, Note_on_c, 5, 60, 127
7, 12900, Note_on_c, 5, 60, 0
7, 13020, Note_on_c, 5, 56, 127
7, 13050, Note_on_c, 5, 56, 0
7, 13050, Note_on_c, 5, 55, 127
7, 13080, Note_on_c, 5, 53, 127
7, 13086, Note_on_c, 5, 55, 0
7, 13133, Note_on_c, 5, 53, 0
7, 13140, Note_on_c, 5, 50, 127
7, 13168, Note_on_c, 5, 50, 0
7, 13200, Note_on_c, 5, 56, 127
7, 13222, Note_on_c, 5, 56, 0
7, 13260, Note_on_c, 5, 56, 127
7, 13290, Note_on_c, 5, 55, 127
7, 13297, Note_on_c, 5, 56, 0
7, 13320, Note_on_c, 5, 53, 127
7, 13322, Note_on_c, 5, 55, 0
7, 13380, Note_on_c, 5, 50, 100
7, 13389, Note_on_c, 5, 53, 0
7, 13423, Note_on_c, 5, 50, 0
7, 13470, Note_on_c, 5, 57, 96
7, 13470, Note_on_c, 5, 53, 96
7, 13490, Note_on_c, 5, 53, 0
7, 13490, Note_on_c, 5, 57, 0
7, 13500, Note_on_c, 5, 57, 84
7, 13500, Note_on_c, 5, 53, 84
7, 13520, Note_on_c, 5, 53, 0
7, 13520, Note_on_c, 5, 57, 0
7, 13530, Note_on_c, 5, 57, 93
7, 13530, Note_on_c, 5, 53, 85
7, 13550, Note_on_c, 5, 53, 0
7, 13550, Note_on_c, 5, 57, 0
7, 13560, Note_on_c, 5, 57, 83
7, 13560, Note_on_c, 5, 53, 83
7, 13580, Note_on_c, 5, 53, 0
7, 13580, Note_on_c, 5, 57, 0
7, 13590, Note_on_c, 5, 53, 85
7, 13590, Note_on_c, 5, 57, 93
7, 13610, Note_on_c, 5, 57, 0
7, 13610, Note_on_c, 5, 53, 0
7, 13650, Note_on_c, 5, 56, 93
7, 13650, Note_on_c, 5, 52, 83
7, 13670, Note_on_c, 5, 52, 0
7, 13670, Note_on_c, 5, 56, 0
7, 13680, Note_on_c, 5, 57, 93
7, 13680, Note_on_c, 5, 53, 98
7, 13700, Note_on_c, 5, 53, 0
7, 13700, Note_on_c, 5, 57, 0
7, 13710, Note_on_c, 5, 57, 82
7, 13710, Note_on_c, 5, 53, 82
7, 13730, Note_on_c, 5, 53, 0
7, 13730, Note_on_c, 5, 57, 0
7, 13740, Note_on_c, 5, 57, 93
7, 13740, Note_on_c, 5, 53, 99
7, 13760, Note_on_c, 5, 53, 0
7, 13760, Note_on_c, 5, 57, 0
7, 13770, Note_on_c, 5, 57, 81
7, 13770, Note_on_c, 5, 53, 81
7, 13790, Note_on_c, 5, 53, 0
7, 13790, Note_on_c, 5, 57, 0
7, 13800, Note_on_c, 5, 57, 93
7, 13800, Note_on_c, 5, 53, 97
7, 13820, Note_on_c, 5, 53, 0
7, 13820, Note_on_c, 5, 57, 0
7, 13830, Note_on_c, 5, 57, 80
7, 13830, Note_on_c, 5, 53, 80
7, 13850, Note_on_c, 5, 53, 0
7, 13850, Note_on_c, 5, 57, 0
7, 13860, Note_on_c, 5, 57, 93
7, 13860, Note_on_c, 5, 53, 100
7, 13880, Note_on_c, 5, 53, 0
7, 13880, Note_on_c, 5, 57, 0
7, 13920, Note_on_c, 5, 53, 100
7, 13940, Note_on_c, 5, 53, 0
7, 13980, Note_on_c, 5, 56, 122
7, 14010, Note_on_c, 5, 55, 89
7, 14013, Note_on_c, 5, 56, 0
7, 14040, Note_on_c, 5, 53, 97
7, 14042, Note_on_c, 5, 55, 0
7, 14100, Note_on_c, 5, 50, 102
7, 14110, Note_on_c, 5, 53, 0
7, 14129, Note_on_c, 5, 50, 0
7, 14160, Note_on_c, 5, 56, 98
7, 14184, Note_on_c, 5, 56, 0
7, 14220, Note_on_c, 5, 56, 98
7, 14250, Note_on_c, 5, 55, 93
7, 14257, Note_on_c, 5, 56, 0
7, 14277, Note_on_c, 5, 55, 0
7, 14280, Note_on_c, 5, 53, 84
7, 14340, Note_on_c, 5, 50, 111
7, 14354, Note_on_c, 5, 53, 0
7, 14380, Note_on_c, 5, 50, 0
7, 14430, Note_on_c, 5, 57, 96
7, 14430, Note_on_c, 5, 53, 96
7, 14450, Note_on_c, 5, 53, 0
7, 14450, Note_on_c, 5, 57, 0
7, 14460, Note_on_c, 5, 57, 84
7, 14460, Note_on_c, 5, 53, 84
7, 14480, Note_on_c, 5, 53, 0
7, 14480, Note_on_c, 5, 57, 0
7, 14490, Note_on_c, 5, 57, 93
7, 14490, Note_on_c, 5, 53, 85
7, 14510, Note_on_c, 5, 53, 0
7, 14510, Note_on_c, 5, 57, 0
7, 14520, Note_on_c, 5, 57, 83
7, 14520, Note_on_c, 5, 53, 83
7, 14540, Note_on_c, 5, 53, 0
7, 14540, Note_on_c, 5, 57, 0
7, 14550, Note_on_c, 5, 53, 85
7, 14550, Note_on_c, 5, 57, 93
7, 14570, Note_on_c, 5, 57, 0
7, 14570, Note_on_c, 5, 53, 0
7, 14610, Note_on_c, 5, 56, 93
7, 14610, Note_on_c, 5, 52, 83
7, 14630, Note_on_c, 5, 52, 0
7, 14630, Note_on_c, 5, 56, 0
7, 14640, Note_on_c, 5, 57, 93
7, 14640, Note_on_c, 5, 53, 98
7, 14660, Note_on_c, 5, 53, 0
7, 14660, Note_on_c, 5, 57, 0
7, 14670, Note_on_c, 5, 57, 82
7, 14670, Note_on_c, 5, 53, 82
7, 14690, Note_on_c, 5, 53, 0
7, 14690, Note_on_c, 5, 57, 0
7, 14700, Note_on_c, 5, 57, 93
7, 14700, Note_on_c, 5, 53, 99
7, 14720, Note_on_c, 5, 53, 0
7, 14720, Note_on_c, 5, 57, 0
7, 14730, Note_on_c, 5, 57, 81
7, 14730, Note_on_c, 5, 53, 81
7, 14750, Note_on_c, 5, 53, 0
7, 14750, Note_on_c, 5, 57, 0
7, 14760, Note_on_c, 5, 57, 93
7, 14760, Note_on_c, 5, 53, 97
7, 14780, Note_on_c, 5, 53, 0
7, 14780, Note_on_c, 5, 57, 0
7, 14790, Note_on_c, 5, 57, 80
7, 14790, Note_on_c, 5, 53, 80
7, 14810, Note_on_c, 5, 53, 0
7, 14810, Note_on_c, 5, 57, 0
7, 14820, Note_on_c, 5, 57, 93
7, 14820, Note_on_c, 5, 53, 100
7, 14840, Note_on_c, 5, 53, 0
7, 14840, Note_on_c, 5, 57, 0
7, 14880, Note_on_c, 5, 53, 58
7, 14891, Note_on_c, 5, 53, 0
7, 14940, Note_on_c, 5, 56, 106
7, 14970, Note_on_c, 5, 55, 82
7, 14977, Note_on_c, 5, 56, 0
7, 14999, Note_on_c, 5, 55, 0
7, 15000, Note_on_c, 5, 53, 95
7, 15060, Note_on_c, 5, 50, 105
7, 15073, Note_on_c, 5, 53, 0
7, 15084, Note_on_c, 5, 50, 0
7, 15120, Note_on_c, 5, 55, 124
7, 15149, Note_on_c, 5, 55, 0
7, 15390, Note_on_c, 5, 57, 96
7, 15390, Note_on_c, 5, 53, 96
7, 15410, Note_on_c, 5, 53, 0
7, 15410, Note_on_c, 5, 57, 0
7, 15420, Note_on_c, 5, 57, 84
7, 15420, Note_on_c, 5, 53, 84
7, 15440, Note_on_c, 5, 53, 0
7, 15440, Note_on_c, 5, 57, 0
7, 15450, Note_on_c, 5, 57, 93
7, 15450, Note_on_c, 5, 53, 85
7, 15470, Note_on_c, 5, 53, 0
7, 15470, Note_on_c, 5, 57, 0
7, 15480, Note_on_c, 5, 57, 83
7, 15480, Note_on_c, 5, 53, 83
7, 15500, Note_on_c, 5, 53, 0
7, 15500, Note_on_c, 5, 57, 0
7, 15510, Note_on_c, 5, 53, 85
7, 15510, Note_on_c, 5, 57, 93
7, 15530, Note_on_c, 5, 57, 0
7, 15530, Note_on_c, 5, 53, 0
7, 15570, Note_on_c, 5, 56, 93
7, 15570, Note_on_c, 5, 52, 83
7, 15590, Note_on_c, 5, 52, 0
7, 15590, Note_on_c, 5, 56, 0
7, 15600, Note_on_c, 5, 57, 93
7, 15600, Note_on_c, 5, 53, 98
7, 15620, Note_on_c, 5, 53, 0
7, 15620, Note_on_c, 5, 57, 0
7, 15630, Note_on_c, 5, 57, 82
7, 15630, Note_on_c, 5, 53, 82
7, 15650, Note_on_c, 5, 53, 0
7, 15650, Note_on_c, 5, 57, 0
7, 15660, Note_on_c, 5, 57, 93
7, 15660, Note_on_c, 5, 53, 99
7, 15680, Note_on_c, 5, 53, 0
7, 15680, Note_on_c, 5, 57, 0
7, 15690, Note_on_c, 5, 57, 81
7, 15690, Note_on_c, 5, 53, 81
7, 15710, Note_on_c, 5, 53, 0
7, 15710, Note_on_c, 5, 57, 0
7, 15720, Note_on_c, 5, 57, 93
7, 15720, Note_on_c, 5, 53, 97
7, 15740, Note_on_c, 5, 53, 0
7, 15740, Note_on_c, 5, 57, 0
7, 15750, Note_on_c, 5, 57, 80
7, 15750, Note_on_c, 5, 53, 80
7, 15770, Note_on_c, 5, 53, 0
7, 15770, Note_on_c, 5, 57, 0
7, 15780, Note_on_c, 5, 57, 93
7, 15780, Note_on_c, 5, 53, 100
7, 15800, Note_on_c, 5, 53, 0
7, 15800, Note_on_c, 5, 57, 0
7, 15900, Note_on_c, 5, 56, 106
7, 15930, Note_on_c, 5, 56, 0
7, 15930, Note_on_c, 5, 55, 78
7, 15960, Note_on_c, 5, 53, 91
7, 15966, Note_on_c, 5, 55, 0
7, 16013, Note_on_c, 5, 53, 0
7, 16020, Note_on_c, 5, 50, 93
7, 16048, Note_on_c, 5, 50, 0
7, 16080, Note_on_c, 5, 56, 116
7, 16102, Note_on_c, 5, 56, 0
7, 16140, Note_on_c, 5, 56, 106
7, 16170, Note_on_c, 5, 55, 82
7, 16177, Note_on_c, 5, 56, 0
7, 16200, Note_on_c, 5, 53, 95
7, 16202, Note_on_c, 5, 55, 0
7, 16260, Note_on_c, 5, 50, 100
7, 16269, Note_on_c, 5, 53, 0
7, 16303, Note_on_c, 5, 50, 0
7, 16350, Note_on_c, 5, 57, 96
7, 16350, Note_on_c, 5, 53, 96
7, 16370, Note_on_c, 5, 53, 0
7, 16370, Note_on_c, 5, 57, 0
7, 16380, Note_on_c, 5, 57, 84
7, 16380, Note_on_c, 5, 53, 84
7, 16400, Note_on_c, 5, 53, 0
7, 16400, Note_on_c, 5, 57, 0
7, 16410, Note_on_c, 5, 57, 93
7, 16410, Note_on_c, 5, 53, 85
7, 16430, Note_on_c, 5, 53, 0
7, 16430, Note_on_c, 5, 57, 0
7, 16440, Note_on_c, 5, 57, 83
7, 16440, Note_on_c, 5, 53, 83
7, 16460, Note_on_c, 5, 53, 0
7, 16460, Note_on_c, 5, 57, 0
7, 16470, Note_on_c, 5, 53, 85
7, 16470, Note_on_c, 5, 57, 93
7, 16490, Note_on_c, 5, 57, 0
7, 16490, Note_on_c, 5, 53, 0
7, 16530, Note_on_c, 5, 56, 93
7, 16530, Note_on_c, 5, 52, 83
7, 16550, Note_on_c, 5, 52, 0
7, 16550, Note_on_c, 5, 56, 0
7, 16560, Note_on_c, 5, 57, 93
7, 16560, Note_on_c, 5, 53, 98
7, 16580, Note_on_c, 5, 53, 0
7, 16580, Note_on_c, 5, 57, 0
7, 16590, Note_on_c, 5, 57, 82
7, 16590, Note_on_c, 5, 53, 82
7, 16610, Note_on_c, 5, 53, 0
7, 16610, Note_on_c, 5, 57, 0
7, 16620, Note_on_c, 5, 57, 93
7, 16620, Note_on_c, 5, 53, 99
7, 16640, Note_on_c, 5, 53, 0
7, 16640, Note_on_c, 5, 57, 0
7, 16650, Note_on_c, 5, 57, 81
7, 16650, Note_on_c, 5, 53, 81
7, 16670, Note_on_c, 5, 53, 0
7, 16670, Note_on_c, 5, 57, 0
7, 16680, Note_on_c, 5, 57, 93
7, 16680, Note_on_c, 5, 53, 97
7, 16700, Note_on_c, 5, 53, 0
7, 16700, Note_on_c, 5, 57, 0
7, 16710, Note_on_c, 5, 57, 80
7, 16710, Note_on_c, 5, 53, 80
7, 16730, Note_on_c, 5, 53, 0
7, 16730, Note_on_c, 5, 57, 0
7, 16740, Note_on_c, 5, 57, 93
7, 16740, Note_on_c, 5, 53, 100
7, 16760, Note_on_c, 5, 53, 0
7, 16760, Note_on_c, 5, 57, 0
7, 16800, Note_on_c, 5, 53, 100
7, 16820, Note_on_c, 5, 53, 0
7, 16860, Note_on_c, 5, 56, 122
7, 16890, Note_on_c, 5, 55, 89
7, 16893, Note_on_c, 5, 56, 0
7, 16920, Note_on_c, 5, 53, 97
7, 16922, Note_on_c, 5, 55, 0
7, 16980, Note_on_c, 5, 50, 102
7, 16990, Note_on_c, 5, 53, 0
7, 17009, Note_on_c, 5, 50, 0
7, 17040, Note_on_c, 5, 56, 98
7, 17064, Note_on_c, 5, 56, 0
7, 17100, Note_on_c, 5, 56, 98
7, 17130, Note_on_c, 5, 55, 93
7, 17137, Note_on_c, 5, 56, 0
7, 17157, Note_on_c, 5, 55, 0
7, 17160, Note_on_c, 5, 53, 84
7, 17220, Note_on_c, 5, 50, 111
7, 17234, Note_on_c, 5, 53, 0
7, 17260, Note_on_c, 5, 50, 0
7, 17310, Note_on_c, 5, 57, 96
7, 17310, Note_on_c, 5, 53, 96
7, 17330, Note_on_c, 5, 53, 0
7, 17330, Note_on_c, 5, 57, 0
7, 17340, Note_on_c, 5, 57, 84
7, 17340, Note_on_c, 5, 53, 84
7, 17360, Note_on_c, 5, 53, 0
7, 17360, Note_on_c, 5, 57, 0
7, 17370, Note_on_c, 5, 57, 93
7, 17370, Note_on_c, 5, 53, 85
7, 17390, Note_on_c, 5, 53, 0
7, 17390, Note_on_c, 5, 57, 0
7, 17400, Note_on_c, 5, 57, 83
7, 17400, Note_on_c, 5, 53, 83
7, 17420, Note_on_c, 5, 53, 0
7, 17420, Note_on_c, 5, 57, 0
7, 17430, Note_on_c, 5, 53, 85
7, 17430, Note_on_c, 5, 57, 93
7, 17450, Note_on_c, 5, 57, 0
7, 17450, Note_on_c, 5, 53, 0
7, 17490, Note_on_c, 5, 56, 93
7, 17490, Note_on_c, 5, 52, 83
7, 17510, Note_on_c, 5, 52, 0
7, 17510, Note_on_c, 5, 56, 0
7, 17520, Note_on_c, 5, 57, 93
7, 17520, Note_on_c, 5, 53, 98
7, 17540, Note_on_c, 5, 53, 0
7, 17540, Note_on_c, 5, 57, 0
7, 17550, Note_on_c, 5, 57, 82
7, 17550, Note_on_c, 5, 53, 82
7, 17570, Note_on_c, 5, 53, 0
7, 17570, Note_on_c, 5, 57, 0
7, 17580, Note_on_c, 5, 57, 93
7, 17580, Note_on_c, 5, 53, 99
7, 17600, Note_on_c, 5, 53, 0
7, 17600, Note_on_c, 5, 57, 0
7, 17610, Note_on_c, 5, 57, 81
7, 17610, Note_on_c, 5, 53, 81
7, 17630, Note_on_c, 5, 53, 0
7, 17630, Note_on_c, 5, 57, 0
7, 17640, Note_on_c, 5, 57, 93
7, 17640, Note_on_c, 5, 53, 97
7, 17660, Note_on_c, 5, 53, 0
7, 17660, Note_on_c, 5, 57, 0
7, 17670, Note_on_c, 5, 57, 80
7, 17670, Note_on_c, 5, 53, 80
7, 17690, Note_on_c, 5, 53, 0
7, 17690, Note_on_c, 5, 57, 0
7, 17700, Note_on_c, 5, 57, 93
7, 17700, Note_on_c, 5, 53, 100
7, 17720, Note_on_c, 5, 53, 0
7, 17720, Note_on_c, 5, 57, 0
7, 17760, Note_on_c, 5, 53, 58
7, 17771, Note_on_c, 5, 53, 0
7, 17820, Note_on_c, 5, 56, 106
7, 17850, Note_on_c, 5, 55, 82
7, 17857, Note_on_c, 5, 56, 0
7, 17879, Note_on_c, 5, 55, 0
7, 17880, Note_on_c, 5, 53, 95
7, 17940, Note_on_c, 5, 50, 105
7, 17953, Note_on_c, 5, 53, 0
7, 17964, Note_on_c, 5, 50, 0
7, 18000, Note_on_c, 5, 55, 124
7, 18029, Note_on_c, 5, 55, 0
7, 18270, Note_on_c, 5, 57, 96
7, 18270, Note_on_c, 5, 53, 96
7, 18290, Note_on_c, 5, 53, 0
7, 18290, Note_on_c, 5, 57, 0
7, 18300, Note_on_c, 5, 57, 84
7, 18300, Note_on_c, 5, 53, 84
7, 18320, Note_on_c, 5, 53, 0
7, 18320, Note_on_c, 5, 57, 0
7, 18330, Note_on_c, 5, 57, 93
7, 18330, Note_on_c, 5, 53, 85
7, 18350, Note_on_c, 5, 53, 0
7, 18350, Note_on_c, 5, 57, 0
7, 18360, Note_on_c, 5, 57, 83
7, 18360, Note_on_c, 5, 53, 83
7, 18380, Note_on_c, 5, 53, 0
7, 18380, Note_on_c, 5, 57, 0
7, 18390, Note_on_c, 5, 53, 85
7, 18390, Note_on_c, 5, 57, 93
7, 18410, Note_on_c, 5, 57, 0
7, 18410, Note_on_c, 5, 53, 0
7, 18450, Note_on_c, 5, 56, 93
7, 18450, Note_on_c, 5, 52, 83
7, 18470, Note_on_c, 5, 52, 0
7, 18470, Note_on_c, 5, 56, 0
7, 18480, Note_on_c, 5, 57, 93
7, 18480, Note_on_c, 5, 53, 98
7, 18500, Note_on_c, 5, 53, 0
7, 18500, Note_on_c, 5, 57, 0
7, 18510, Note_on_c, 5, 57, 82
7, 18510, Note_on_c, 5, 53, 82
7, 18530, Note_on_c, 5, 53, 0
7, 18530, Note_on_c, 5, 57, 0
7, 18540, Note_on_c, 5, 57, 93
7, 18540, Note_on_c, 5, 53, 99
7, 18560, Note_on_c, 5, 53, 0
7, 18560, Note_on_c, 5, 57, 0
7, 18570, Note_on_c, 5, 57, 81
7, 18570, Note_on_c, 5, 53, 81
7, 18590, Note_on_c, 5, 53, 0
7, 18590, Note_on_c, 5, 57, 0
7, 18600, Note_on_c, 5, 57, 93
7, 18600, Note_on_c, 5, 53, 97
7, 18620, Note_on_c, 5, 53, 0
7, 18620, Note_on_c, 5, 57, 0
7, 18630, Note_on_c, 5, 57, 80
7, 18630, Note_on_c, 5, 53, 80
7, 18650, Note_on_c, 5, 53, 0
7, 18650, Note_on_c, 5, 57, 0
7, 18660, Note_on_c, 5, 57, 93
7, 18660, Note_on_c, 5, 53, 100
7, 18680, Note_on_c, 5, 53, 0
7, 18680, Note_on_c, 5, 57, 0
7, 18780, Note_on_c, 5, 56, 106
7, 18810, Note_on_c, 5, 56, 0
7, 18810, Note_on_c, 5, 55, 78
7, 18840, Note_on_c, 5, 53, 91
7, 18846, Note_on_c, 5, 55, 0
7, 18893, Note_on_c, 5, 53, 0
7, 18900, Note_on_c, 5, 50, 93
7, 18928, Note_on_c, 5, 50, 0
7, 18960, Note_on_c, 5, 56, 116
7, 18982, Note_on_c, 5, 56, 0
7, 19020, Note_on_c, 5, 56, 106
7, 19050, Note_on_c, 5, 55, 82
7, 19057, Note_on_c, 5, 56, 0
7, 19080, Note_on_c, 5, 53, 95
7, 19082, Note_on_c, 5, 55, 0
7, 19140, Note_on_c, 5, 50, 100
7, 19149, Note_on_c, 5, 53, 0
7, 19183, Note_on_c, 5, 50, 0
7, 19230, Note_on_c, 5, 57, 96
7, 19230, Note_on_c, 5, 53, 96
7, 19250, Note_on_c, 5, 53, 0
7, 19250, Note_on_c, 5, 57, 0
7, 19260, Note_on_c, 5, 57, 84
7, 19260, Note_on_c, 5, 53, 84
7, 19280, Note_on_c, 5, 53, 0
7, 19280, Note_on_c, 5, 57, 0
7, 19290, Note_on_c, 5, 57, 93
7, 19290, Note_on_c, 5, 53, 85
7, 19310, Note_on_c, 5, 53, 0
7, 19310, Note_on_c, 5, 57, 0
7, 19320, Note_on_c, 5, 57, 83
7, 19320, Note_on_c, 5, 53, 83
7, 19340, Note_on_c, 5, 53, 0
7, 19340, Note_on_c, 5, 57, 0
7, 19350, Note_on_c, 5, 53, 85
7, 19350, Note_on_c, 5, 57, 93
7, 19370, Note_on_c, 5, 57, 0
7, 19370, Note_on_c, 5, 53, 0
7, 19410, Note_on_c, 5, 56, 93
7, 19410, Note_on_c, 5, 52, 83
7, 19430, Note_on_c, 5, 52, 0
7, 19430, Note_on_c, 5, 56, 0
7, 19440, Note_on_c, 5, 57, 93
7, 19440, Note_on_c, 5, 53, 98
7, 19460, Note_on_c, 5, 53, 0
7, 19460, Note_on_c, 5, 57, 0
7, 19470, Note_on_c, 5, 57, 82
7, 19470, Note_on_c, 5, 53, 82
7, 19490, Note_on_c, 5, 53, 0
7, 19490, Note_on_c, 5, 57, 0
7, 19500, Note_on_c, 5, 57, 93
7, 19500, Note_on_c, 5, 53, 99
7, 19520, Note_on_c, 5, 53, 0
7, 19520, Note_on_c, 5, 57, 0
7, 19530, Note_on_c, 5, 57, 81
7, 19530, Note_on_c, 5, 53, 81
7, 19550, Note_on_c, 5, 53, 0
7, 19550, Note_on_c, 5, 57, 0
7, 19560, Note_on_c, 5, 57, 93
7, 19560, Note_on_c, 5, 53, 97
7, 19580, Note_on_c, 5, 53, 0
7, 19580, Note_on_c, 5, 57, 0
7, 19590, Note_on_c, 5, 57, 80
7, 19590, Note_on_c, 5, 53, 80
7, 19610, Note_on_c, 5, 53, 0
7, 19610, Note_on_c, 5, 57, 0
7, 19620, Note_on_c, 5, 57, 93
7, 19620, Note_on_c, 5, 53, 100
7, 19640, Note_on_c, 5, 53, 0
7, 19640, Note_on_c, 5, 57, 0
7, 19680, Note_on_c, 5, 53, 100
7, 19700, Note_on_c, 5, 53, 0
7, 19740, Note_on_c, 5, 56, 122
7, 19770, Note_on_c, 5, 55, 89
7, 19773, Note_on_c, 5, 56, 0
7, 19800, Note_on_c, 5, 53, 97
7, 19802, Note_on_c, 5, 55, 0
7, 19860, Note_on_c, 5, 50, 102
7, 19870, Note_on_c, 5, 53, 0
7, 19889, Note_on_c, 5, 50, 0
7, 19920, Note_on_c, 5, 56, 98
7, 19944, Note_on_c, 5, 56, 0
7, 19980, Note_on_c, 5, 56, 98
7, 20010, Note_on_c, 5, 55, 93
7, 20017, Note_on_c, 5, 56, 0
7, 20037, Note_on_c, 5, 55, 0
7, 20040, Note_on_c, 5, 53, 84
7, 20100, Note_on_c, 5, 50, 111
7, 20114, Note_on_c, 5, 53, 0
7, 20140, Note_on_c, 5, 50, 0
7, 20190, Note_on_c, 5, 57, 96
7, 20190, Note_on_c, 5, 53, 96
7, 20210, Note_on_c, 5, 53, 0
7, 20210, Note_on_c, 5, 57, 0
7, 20220, Note_on_c, 5, 57, 84
7, 20220, Note_on_c, 5, 53, 84
7, 20240, Note_on_c, 5, 53, 0
7, 20240, Note_on_c, 5, 57, 0
7, 20250, Note_on_c, 5, 57, 93
7, 20250, Note_on_c, 5, 53, 85
7, 20270, Note_on_c, 5, 53, 0
7, 20270, Note_on_c, 5, 57, 0
7, 20280, Note_on_c, 5, 57, 83
7, 20280, Note_on_c, 5, 53, 83
7, 20300, Note_on_c, 5, 53, 0
7, 20300, Note_on_c, 5, 57, 0
7, 20310, Note_on_c, 5, 53, 85
7, 20310, Note_on_c, 5, 57, 93
7, 20330, Note_on_c, 5, 57, 0
7, 20330, Note_on_c, 5, 53, 0
7, 20370, Note_on_c, 5, 56, 93
7, 20370, Note_on_c, 5, 52, 83
7, 20390, Note_on_c, 5, 52, 0
7, 20390, Note_on_c, 5, 56, 0
7, 20400, Note_on_c, 5, 57, 93
7, 20400, Note_on_c, 5, 53, 98
7, 20420, Note_on_c, 5, 53, 0
7, 20420, Note_on_c, 5, 57, 0
7, 20430, Note_on_c, 5, 57, 82
7, 20430, Note_on_c, 5, 53, 82
7, 20450, Note_on_c, 5, 53, 0
7, 20450, Note_on_c, 5, 57, 0
7, 20460, Note_on_c, 5, 57, 93
7, 20460, Note_on_c, 5, 53, 99
7, 20480, Note_on_c, 5, 53, 0
7, 20480, Note_on_c, 5, 57, 0
7, 20490, Note_on_c, 5, 57, 81
7, 20490, Note_on_c, 5, 53, 81
7, 20510, Note_on_c, 5, 53, 0
7, 20510, Note_on_c, 5, 57, 0
7, 20520, Note_on_c, 5, 57, 93
7, 20520, Note_on_c, 5, 53, 97
7, 20540, Note_on_c, 5, 53, 0
7, 20540, Note_on_c, 5, 57, 0
7, 20550, Note_on_c, 5, 57, 80
7, 20550, Note_on_c, 5, 53, 80
7, 20570, Note_on_c, 5, 53, 0
7, 20570, Note_on_c, 5, 57, 0
7, 20580, Note_on_c, 5, 57, 93
7, 20580, Note_on_c, 5, 53, 100
7, 20600, Note_on_c, 5, 53, 0
7, 20600, Note_on_c, 5, 57, 0
7, 20640, Note_on_c, 5, 53, 58
7, 20651, Note_on_c, 5, 53, 0
7, 20700, Note_on_c, 5, 56, 106
7, 20730, Note_on_c, 5, 55, 82
7, 20737, Note_on_c, 5, 56, 0
7, 20759, Note_on_c, 5, 55, 0
7, 20760, Note_on_c, 5, 53, 95
7, 20820, Note_on_c, 5, 50, 105
7, 20833, Note_on_c, 5, 53, 0
7, 20844, Note_on_c, 5, 50, 0
7, 20880, Note_on_c, 5, 55, 124
7, 20909, Note_on_c, 5, 55, 0
7, 21180, Note_on_c, 5, 57, 118
7, 21197, Note_on_c, 5, 57, 0
7, 21210, Note_on_c, 5, 57, 120
7, 21226, Note_on_c, 5, 57, 0
7, 21240, Note_on_c, 5, 57, 120
7, 21257, Note_on_c, 5, 57, 0
7, 21270, Note_on_c, 5, 57, 120
7, 21285, Note_on_c, 5, 57, 0
7, 21300, Note_on_c, 5, 57, 120
7, 21317, Note_on_c, 5, 57, 0
7, 21330, Note_on_c, 5, 57, 124
7, 21345, Note_on_c, 5, 57, 0
7, 21360, Note_on_c, 5, 57, 124
7, 21386, Note_on_c, 5, 57, 0
7, 21420, Note_on_c, 5, 58, 124
7, 21438, Note_on_c, 5, 58, 0
7, 21450, Note_on_c, 5, 57, 124
7, 21899, Note_on_c, 5, 57, 0
7, 21899, End_track
8, 0, Start_track
8, 0, MIDI_port, 0
8, 0, Title_t, "Bari"
8, 0, Program_c, 6, 67
8, 0, Control_c, 6, 7, 86
8, 480, Note_on_c, 6, 48, 99
8, 720, Note_on_c, 6, 46, 100
8, 728, Note_on_c, 6, 48, 0
8, 958, Note_on_c, 6, 46, 0
8, 963, Note_on_c, 6, 41, 97
8, 1194, Note_on_c, 6, 41, 0
8, 1200, Note_on_c, 6, 40, 105
8, 1220, Note_on_c, 6, 40, 0
8, 1230, Note_on_c, 6, 41, 95
8, 1247, Note_on_c, 6, 41, 0
8, 1260, Note_on_c, 6, 41, 65
8, 1282, Note_on_c, 6, 41, 0
8, 1290, Note_on_c, 6, 40, 108
8, 1308, Note_on_c, 6, 40, 0
8, 1320, Note_on_c, 6, 41, 108
8, 1343, Note_on_c, 6, 41, 0
8, 1500, Note_on_c, 6, 44, 106
8, 1530, Note_on_c, 6, 44, 0
8, 1530, Note_on_c, 6, 43, 78
8, 1560, Note_on_c, 6, 41, 91
8, 1566, Note_on_c, 6, 43, 0
8, 1613, Note_on_c, 6, 41, 0
8, 1620, Note_on_c, 6, 38, 93
8, 1648, Note_on_c, 6, 38, 0
8, 1680, Note_on_c, 6, 44, 116
8, 1702, Note_on_c, 6, 44, 0
8, 1740, Note_on_c, 6, 44, 106
8, 1770, Note_on_c, 6, 43, 82
8, 1777, Note_on_c, 6, 44, 0
8, 1800, Note_on_c, 6, 41, 95
8, 1802, Note_on_c, 6, 43, 0
8, 1860, Note_on_c, 6, 38, 100
8, 1869, Note_on_c, 6, 41, 0
8, 1903, Note_on_c, 6, 38, 0
8, 1950, Note_on_c, 6, 45, 96
8, 1950, Note_on_c, 6, 41, 96
8, 1970, Note_on_c, 6, 41, 0
8, 1970, Note_on_c, 6, 45, 0
8, 1980, Note_on_c, 6, 45, 84
8, 1980, Note_on_c, 6, 41, 84
8, 2000, Note_on_c, 6, 41, 0
8, 2000, Note_on_c, 6, 45, 0
8, 2010, Note_on_c, 6, 45, 93
8, 2010, Note_on_c, 6, 41, 85
8, 2030, Note_on_c, 6, 41, 0
8, 2030, Note_on_c, 6, 45, 0
8, 2040, Note_on_c, 6, 45, 83
8, 2040, Note_on_c, 6, 41, 83
8, 2060, Note_on_c, 6, 41, 0
8, 2060, Note_on_c, 6, 45, 0
8, 2070, Note_on_c, 6, 41, 85
8, 2070, Note_on_c, 6, 45, 93
8, 2090, Note_on_c, 6, 45, 0
8, 2090, Note_on_c, 6, 41, 0
8, 2130, Note_on_c, 6, 44, 93
8, 2130, Note_on_c, 6, 40, 83
8, 2150, Note_on_c, 6, 40, 0
8, 2150, Note_on_c, 6, 44, 0
8, 2160, Note_on_c, 6, 45, 93
8, 2160, Note_on_c, 6, 41, 98
8, 2180, Note_on_c, 6, 41, 0
8, 2180, Note_on_c, 6, 45, 0
8, 2190, Note_on_c, 6, 45, 82
8, 2190, Note_on_c, 6, 41, 82
8, 2210, Note_on_c, 6, 41, 0
8, 2210, Note_on_c, 6, 45, 0
8, 2220, Note_on_c, 6, 45, 93
8, 2220, Note_on_c, 6, 41, 99
8, 2240, Note_on_c, 6, 41, 0
8, 2240, Note_on_c, 6, 45, 0
8, 2250, Note_on_c, 6, 45, 81
8, 2250, Note_on_c, 6, 41, 81
8, 2270, Note_on_c, 6, 41, 0
8, 2270, Note_on_c, 6, 45, 0
8, 2280, Note_on_c, 6, 45, 93
8, 2280, Note_on_c, 6, 41, 97
8, 2300, Note_on_c, 6, 41, 0
8, 2300, Note_on_c, 6, 45, 0
8, 2310, Note_on_c, 6, 45, 80
8, 2310, Note_on_c, 6, 41, 80
8, 2330, Note_on_c, 6, 41, 0
8, 2330, Note_on_c, 6, 45, 0
8, 2340, Note_on_c, 6, 45, 93
8, 2340, Note_on_c, 6, 41, 100
8, 2360, Note_on_c, 6, 41, 0
8, 2360, Note_on_c, 6, 45, 0
8, 2370, Note_on_c, 6, 45, 81
8, 2370, Note_on_c, 6, 41, 81
8, 2390, Note_on_c, 6, 41, 0
8, 2390, Note_on_c, 6, 45, 0
8, 2460, Note_on_c, 6, 44, 122
8, 2490, Note_on_c, 6, 43, 89
8, 2493, Note_on_c, 6, 44, 0
8, 2520, Note_on_c, 6, 41, 97
8, 2522, Note_on_c, 6, 43, 0
8, 2580, Note_on_c, 6, 38, 102
8, 2590, Note_on_c, 6, 41, 0
8, 2609, Note_on_c, 6, 38, 0
8, 2640, Note_on_c, 6, 44, 98
8, 2664, Note_on_c, 6, 44, 0
8, 2700, Note_on_c, 6, 44, 98
8, 2730, Note_on_c, 6, 43, 93
8, 2737, Note_on_c, 6, 44, 0
8, 2757, Note_on_c, 6, 43, 0
8, 2760, Note_on_c, 6, 41, 84
8, 2820, Note_on_c, 6, 38, 111
8, 2834, Note_on_c, 6, 41, 0
8, 2860, Note_on_c, 6, 38, 0
8, 2910, Note_on_c, 6, 45, 96
8, 2910, Note_on_c, 6, 41, 96
8, 2930, Note_on_c, 6, 41, 0
8, 2930, Note_on_c, 6, 45, 0
8, 2940, Note_on_c, 6, 45, 84
8, 2940, Note_on_c, 6, 41, 84
8, 2960, Note_on_c, 6, 41, 0
8, 2960, Note_on_c, 6, 45, 0
8, 2970, Note_on_c, 6, 45, 93
8, 2970, Note_on_c, 6, 41, 85
8, 2990, Note_on_c, 6, 41, 0
8, 2990, Note_on_c, 6, 45, 0
8, 3000, Note_on_c, 6, 45, 83
8, 3000, Note_on_c, 6, 41, 83
8, 3020, Note_on_c, 6, 41, 0
8, 3020, Note_on_c, 6, 45, 0
8, 3030, Note_on_c, 6, 41, 85
8, 3030, Note_on_c, 6, 45, 93
8, 3050, Note_on_c, 6, 45, 0
8, 3050, Note_on_c, 6, 41, 0
8, 3090, Note_on_c, 6, 44, 93
8, 3090, Note_on_c, 6, 40, 83
8, 3110, Note_on_c, 6, 40, 0
8, 3110, Note_on_c, 6, 44, 0
8, 3120, Note_on_c, 6, 45, 93
8, 3120, Note_on_c, 6, 41, 98
8, 3140, Note_on_c, 6, 41, 0
8, 3140, Note_on_c, 6, 45, 0
8, 3150, Note_on_c, 6, 45, 82
8, 3150, Note_on_c, 6, 41, 82
8, 3170, Note_on_c, 6, 41, 0
8, 3170, Note_on_c, 6, 45, 0
8, 3180, Note_on_c, 6, 45, 93
8, 3180, Note_on_c, 6, 41, 99
8, 3200, Note_on_c, 6, 41, 0
8, 3200, Note_on_c, 6, 45, 0
8, 3210, Note_on_c, 6, 45, 81
8, 3210, Note_on_c, 6, 41, 81
8, 3230, Note_on_c, 6, 41, 0
8, 3230, Note_on_c, 6, 45, 0
8, 3240, Note_on_c, 6, 45, 93
8, 3240, Note_on_c, 6, 41, 97
8, 3260, Note_on_c, 6, 41, 0
8, 3260, Note_on_c, 6, 45, 0
8, 3270, Note_on_c, 6, 45, 80
8, 3270, Note_on_c, 6, 41, 80
8, 3290, Note_on_c, 6, 41, 0
8, 3290, Note_on_c, 6, 45, 0
8, 3300, Note_on_c, 6, 45, 93
8, 3300, Note_on_c, 6, 41, 100
8, 3320, Note_on_c, 6, 41, 0
8, 3320, Note_on_c, 6, 45, 0
8, 3330, Note_on_c, 6, 45, 81
8, 3330, Note_on_c, 6, 41, 81
8, 3350, Note_on_c, 6, 41, 0
8, 3350, Note_on_c, 6, 45, 0
8, 3360, Note_on_c, 6, 41, 58
8, 3371, Note_on_c, 6, 41, 0
8, 3420, Note_on_c, 6, 44, 106
8, 3450, Note_on_c, 6, 43, 82
8, 3457, Note_on_c, 6, 44, 0
8, 3479, Note_on_c, 6, 43, 0
8, 3480, Note_on_c, 6, 41, 95
8, 3540, Note_on_c, 6, 38, 105
8, 3553, Note_on_c, 6, 41, 0
8, 3564, Note_on_c, 6, 38, 0
8, 3600, Note_on_c, 6, 43, 124
8, 3629, Note_on_c, 6, 43, 0
8, 3870, Note_on_c, 6, 45, 96
8, 3870, Note_on_c, 6, 41, 96
8, 3890, Note_on_c, 6, 41, 0
8, 3890, Note_on_c, 6, 45, 0
8, 3900, Note_on_c, 6, 45, 84
8, 3900, Note_on_c, 6, 41, 84
8, 3920, Note_on_c, 6, 41, 0
8, 3920, Note_on_c, 6, 45, 0
8, 3930, Note_on_c, 6, 45, 93
8, 3930, Note_on_c, 6, 41, 85
8, 3950, Note_on_c, 6, 41, 0
8, 3950, Note_on_c, 6, 45, 0
8, 3960, Note_on_c, 6, 45, 83
8, 3960, Note_on_c, 6, 41, 83
8, 3980, Note_on_c, 6, 41, 0
8, 3980, Note_on_c, 6, 45, 0
8, 3990, Note_on_c, 6, 41, 85
8, 3990, Note_on_c, 6, 45, 93
8, 4010, Note_on_c, 6, 45, 0
8, 4010, Note_on_c, 6, 41, 0
8, 4050, Note_on_c, 6, 44, 93
8, 4050, Note_on_c, 6, 40, 83
8, 4070, Note_on_c, 6, 40, 0
8, 4070, Note_on_c, 6, 44, 0
8, 4080, Note_on_c, 6, 45, 93
8, 4080, Note_on_c, 6, 41, 98
8, 4100, Note_on_c, 6, 41, 0
8, 4100, Note_on_c, 6, 45, 0
8, 4110, Note_on_c, 6, 45, 82
8, 4110, Note_on_c, 6, 41, 82
8, 4130, Note_on_c, 6, 41, 0
8, 4130, Note_on_c, 6, 45, 0
8, 4140, Note_on_c, 6, 45, 93
8, 4140, Note_on_c, 6, 41, 99
8, 4160, Note_on_c, 6, 41, 0
8, 4160, Note_on_c, 6, 45, 0
8, 4170, Note_on_c, 6, 45, 81
8, 4170, Note_on_c, 6, 41, 81
8, 4190, Note_on_c, 6, 41, 0
8, 4190, Note_on_c, 6, 45, 0
8, 4200, Note_on_c, 6, 45, 93
8, 4200, Note_on_c, 6, 41, 97
8, 4220, Note_on_c, 6, 41, 0
8, 4220, Note_on_c, 6, 45, 0
8, 4230, Note_on_c, 6, 45, 80
8, 4230, Note_on_c, 6, 41, 80
8, 4250, Note_on_c, 6, 41, 0
8, 4250, Note_on_c, 6, 45, 0
8, 4260, Note_on_c, 6, 45, 93
8, 4260, Note_on_c, 6, 41, 100
8, 4280, Note_on_c, 6, 41, 0
8, 4280, Note_on_c, 6, 45, 0
8, 4290, Note_on_c, 6, 45, 81
8, 4290, Note_on_c, 6, 41, 81
8, 4310, Note_on_c, 6, 41, 0
8, 4310, Note_on_c, 6, 45, 0
8, 4380, Note_on_c, 6, 44, 106
8, 4410, Note_on_c, 6, 44, 0
8, 4410, Note_on_c, 6, 43, 78
8, 4440, Note_on_c, 6, 41, 91
8, 4446, Note_on_c, 6, 43, 0
8, 4493, Note_on_c, 6, 41, 0
8, 4500, Note_on_c, 6, 38, 93
8, 4528, Note_on_c, 6, 38, 0
8, 4560, Note_on_c, 6, 44, 116
8, 4582, Note_on_c, 6, 44, 0
8, 4620, Note_on_c, 6, 44, 106
8, 4650, Note_on_c, 6, 43, 82
8, 4657, Note_on_c, 6, 44, 0
8, 4680, Note_on_c, 6, 41, 95
8, 4682, Note_on_c, 6, 43, 0
8, 4740, Note_on_c, 6, 38, 100
8, 4749, Note_on_c, 6, 41, 0
8, 4783, Note_on_c, 6, 38, 0
8, 4830, Note_on_c, 6, 45, 96
8, 4830, Note_on_c, 6, 41, 96
8, 4850, Note_on_c, 6, 41, 0
8, 4850, Note_on_c, 6, 45, 0
8, 4860, Note_on_c, 6, 45, 84
8, 4860, Note_on_c, 6, 41, 84
8, 4880, Note_on_c, 6, 41, 0
8, 4880, Note_on_c, 6, 45, 0
8, 4890, Note_on_c, 6, 45, 93
8, 4890, Note_on_c, 6, 41, 85
8, 4910, Note_on_c, 6, 41, 0
8, 4910, Note_on_c, 6, 45, 0
8, 4920, Note_on_c, 6, 45, 83
8, 4920, Note_on_c, 6, 41, 83
8, 4940, Note_on_c, 6, 41, 0
8, 4940, Note_on_c, 6, 45, 0
8, 4950, Note_on_c, 6, 41, 85
8, 4950, Note_on_c, 6, 45, 93
8, 4970, Note_on_c, 6, 45, 0
8, 4970, Note_on_c, 6, 41, 0
8, 5010, Note_on_c, 6, 44, 93
8, 5010, Note_on_c, 6, 40, 83
8, 5030, Note_on_c, 6, 40, 0
8, 5030, Note_on_c, 6, 44, 0
8, 5040, Note_on_c, 6, 45, 93
8, 5040, Note_on_c, 6, 41, 98
8, 5060, Note_on_c, 6, 41, 0
8, 5060, Note_on_c, 6, 45, 0
8, 5070, Note_on_c, 6, 45, 82
8, 5070, Note_on_c, 6, 41, 82
8, 5090, Note_on_c, 6, 41, 0
8, 5090, Note_on_c, 6, 45, 0
8, 5100, Note_on_c, 6, 45, 93
8, 5100, Note_on_c, 6, 41, 99
8, 5120, Note_on_c, 6, 41, 0
8, 5120, Note_on_c, 6, 45, 0
8, 5130, Note_on_c, 6, 45, 81
8, 5130, Note_on_c, 6, 41, 81
8, 5150, Note_on_c, 6, 41, 0
8, 5150, Note_on_c, 6, 45, 0
8, 5160, Note_on_c, 6, 45, 93
8, 5160, Note_on_c, 6, 41, 97
8, 5180, Note_on_c, 6, 41, 0
8, 5180, Note_on_c, 6, 45, 0
8, 5190, Note_on_c, 6, 45, 80
8, 5190, Note_on_c, 6, 41, 80
8, 5210, Note_on_c, 6, 41, 0
8, 5210, Note_on_c, 6, 45, 0
8, 5220, Note_on_c, 6, 45, 93
8, 5220, Note_on_c, 6, 41, 100
8, 5240, Note_on_c, 6, 41, 0
8, 5240, Note_on_c, 6, 45, 0
8, 5250, Note_on_c, 6, 45, 81
8, 5250, Note_on_c, 6, 41, 81
8, 5270, Note_on_c, 6, 41, 0
8, 5270, Note_on_c, 6, 45, 0
8, 5340, Note_on_c, 6, 44, 122
8, 5370, Note_on_c, 6, 43, 89
8, 5373, Note_on_c, 6, 44, 0
8, 5400, Note_on_c, 6, 41, 97
8, 5402, Note_on_c, 6, 43, 0
8, 5460, Note_on_c, 6, 38, 102
8, 5470, Note_on_c, 6, 41, 0
8, 5489, Note_on_c, 6, 38, 0
8, 5520, Note_on_c, 6, 44, 98
8, 5544, Note_on_c, 6, 44, 0
8, 5580, Note_on_c, 6, 44, 98
8, 5610, Note_on_c, 6, 43, 93
8, 5617, Note_on_c, 6, 44, 0
8, 5637, Note_on_c, 6, 43, 0
8, 5640, Note_on_c, 6, 41, 84
8, 5700, Note_on_c, 6, 38, 111
8, 5714, Note_on_c, 6, 41, 0
8, 5740, Note_on_c, 6, 38, 0
8, 5790, Note_on_c, 6, 45, 96
8, 5790, Note_on_c, 6, 41, 96
8, 5810, Note_on_c, 6, 41, 0
8, 5810, Note_on_c, 6, 45, 0
8, 5820, Note_on_c, 6, 45, 84
8, 5820, Note_on_c, 6, 41, 84
8, 5840, Note_on_c, 6, 41, 0
8, 5840, Note_on_c, 6, 45, 0
8, 5850, Note_on_c, 6, 45, 93
8, 5850, Note_on_c, 6, 41, 85
8, 5870, Note_on_c, 6, 41, 0
8, 5870, Note_on_c, 6, 45, 0
8, 5880, Note_on_c, 6, 45, 83
8, 5880, Note_on_c, 6, 41, 83
8, 5900, Note_on_c, 6, 41, 0
8, 5900, Note_on_c, 6, 45, 0
8, 5910, Note_on_c, 6, 41, 85
8, 5910, Note_on_c, 6, 45, 93
8, 5930, Note_on_c, 6, 45, 0
8, 5930, Note_on_c, 6, 41, 0
8, 5970, Note_on_c, 6, 44, 93
8, 5970, Note_on_c, 6, 40, 83
8, 5990, Note_on_c, 6, 40, 0
8, 5990, Note_on_c, 6, 44, 0
8, 6000, Note_on_c, 6, 45, 93
8, 6000, Note_on_c, 6, 41, 98
8, 6020, Note_on_c, 6, 41, 0
8, 6020, Note_on_c, 6, 45, 0
8, 6030, Note_on_c, 6, 45, 82
8, 6030, Note_on_c, 6, 41, 82
8, 6050, Note_on_c, 6, 41, 0
8, 6050, Note_on_c, 6, 45, 0
8, 6060, Note_on_c, 6, 45, 93
8, 6060, Note_on_c, 6, 41, 99
8, 6080, Note_on_c, 6, 41, 0
8, 6080, Note_on_c, 6, 45, 0
8, 6090, Note_on_c, 6, 45, 81
8, 6090, Note_on_c, 6, 41, 81
8, 6110, Note_on_c, 6, 41, 0
8, 6110, Note_on_c, 6, 45, 0
8, 6120, Note_on_c, 6, 45, 93
8, 6120, Note_on_c, 6, 41, 97
8, 6140, Note_on_c, 6, 41, 0
8, 6140, Note_on_c, 6, 45, 0
8, 6150, Note_on_c, 6, 45, 80
8, 6150, Note_on_c, 6, 41, 80
8, 6170, Note_on_c, 6, 41, 0
8, 6170, Note_on_c, 6, 45, 0
8, 6180, Note_on_c, 6, 45, 93
8, 6180, Note_on_c, 6, 41, 100
8, 6200, Note_on_c, 6, 41, 0
8, 6200, Note_on_c, 6, 45, 0
8, 6210, Note_on_c, 6, 45, 81
8, 6210, Note_on_c, 6, 41, 81
8, 6230, Note_on_c, 6, 41, 0
8, 6230, Note_on_c, 6, 45, 0
8, 6240, Note_on_c, 6, 41, 58
8, 6251, Note_on_c, 6, 41, 0
8, 6300, Note_on_c, 6, 44, 106
8, 6330, Note_on_c, 6, 43, 82
8, 6337, Note_on_c, 6, 44, 0
8, 6359, Note_on_c, 6, 43, 0
8, 6360, Note_on_c, 6, 41, 95
8, 6420, Note_on_c, 6, 38, 105
8, 6433, Note_on_c, 6, 41, 0
8, 6444, Note_on_c, 6, 38, 0
8, 6480, Note_on_c, 6, 43, 124
8, 6509, Note_on_c, 6, 43, 0
8, 6750, Note_on_c, 6, 45, 96
8, 6750, Note_on_c, 6, 41, 96
8, 6770, Note_on_c, 6, 41, 0
8, 6770, Note_on_c, 6, 45, 0
8, 6780, Note_on_c, 6, 45, 84
8, 6780, Note_on_c, 6, 41, 84
8, 6800, Note_on_c, 6, 41, 0
8, 6800, Note_on_c, 6, 45, 0
8, 6810, Note_on_c, 6, 45, 93
8, 6810, Note_on_c, 6, 41, 85
8, 6830, Note_on_c, 6, 41, 0
8, 6830, Note_on_c, 6, 45, 0
8, 6840, Note_on_c, 6, 45, 83
8, 6840, Note_on_c, 6, 41, 83
8, 6860, Note_on_c, 6, 41, 0
8, 6860, Note_on_c, 6, 45, 0
8, 6870, Note_on_c, 6, 41, 85
8, 6870, Note_on_c, 6, 45, 93
8, 6890, Note_on_c, 6, 45, 0
8, 6890, Note_on_c, 6, 41, 0
8, 6930, Note_on_c, 6, 44, 93
8, 6930, Note_on_c, 6, 40, 83
8, 6950, Note_on_c, 6, 40, 0
8, 6950, Note_on_c, 6, 44, 0
8, 6960, Note_on_c, 6, 45, 93
8, 6960, Note_on_c, 6, 41, 98
8, 6980, Note_on_c, 6, 41, 0
8, 6980, Note_on_c, 6, 45, 0
8, 6990, Note_on_c, 6, 45, 82
8, 6990, Note_on_c, 6, 41, 82
8, 7010, Note_on_c, 6, 41, 0
8, 7010, Note_on_c, 6, 45, 0
8, 7020, Note_on_c, 6, 45, 93
8, 7020, Note_on_c, 6, 41, 99
8, 7040, Note_on_c, 6, 41, 0
8, 7040, Note_on_c, 6, 45, 0
8, 7050, Note_on_c, 6, 45, 81
8, 7050, Note_on_c, 6, 41, 81
8, 7070, Note_on_c, 6, 41, 0
8, 7070, Note_on_c, 6, 45, 0
8, 7080, Note_on_c, 6, 45, 93
8, 7080, Note_on_c, 6, 41, 97
8, 7100, Note_on_c, 6, 41, 0
8, 7100, Note_on_c, 6, 45, 0
8, 7110, Note_on_c, 6, 45, 80
8, 7110, Note_on_c, 6, 41, 80
8, 7130, Note_on_c, 6, 41, 0
8, 7130, Note_on_c, 6, 45, 0
8, 7140, Note_on_c, 6, 45, 93
8, 7140, Note_on_c, 6, 41, 100
8, 7160, Note_on_c, 6, 41, 0
8, 7160, Note_on_c, 6, 45, 0
8, 7170, Note_on_c, 6, 45, 81
8, 7170, Note_on_c, 6, 41, 81
8, 7190, Note_on_c, 6, 41, 0
8, 7190, Note_on_c, 6, 45, 0
8, 7260, Note_on_c, 6, 44, 106
8, 7290, Note_on_c, 6, 44, 0
8, 7290, Note_on_c, 6, 43, 78
8, 7320, Note_on_c, 6, 41, 91
8, 7326, Note_on_c, 6, 43, 0
8, 7373, Note_on_c, 6, 41, 0
8, 7380, Note_on_c, 6, 38, 93
8, 7408, Note_on_c, 6, 38, 0
8, 7440, Note_on_c, 6, 44, 116
8, 7462, Note_on_c, 6, 44, 0
8, 7500, Note_on_c, 6, 44, 106
8, 7530, Note_on_c, 6, 43, 82
8, 7537, Note_on_c, 6, 44, 0
8, 7560, Note_on_c, 6, 41, 95
8, 7562, Note_on_c, 6, 43, 0
8, 7620, Note_on_c, 6, 38, 100
8, 7629, Note_on_c, 6, 41, 0
8, 7663, Note_on_c, 6, 38, 0
8, 7710, Note_on_c, 6, 45, 96
8, 7710, Note_on_c, 6, 41, 96
8, 7730, Note_on_c, 6, 41, 0
8, 7730, Note_on_c, 6, 45, 0
8, 7740, Note_on_c, 6, 45, 84
8, 7740, Note_on_c, 6, 41, 84
8, 7760, Note_on_c, 6, 41, 0
8, 7760, Note_on_c, 6, 45, 0
8, 7770, Note_on_c, 6, 45, 93
8, 7770, Note_on_c, 6, 41, 85
8, 7790, Note_on_c, 6, 41, 0
8, 7790, Note_on_c, 6, 45, 0
8, 7800, Note_on_c, 6, 45, 83
8, 7800, Note_on_c, 6, 41, 83
8, 7820, Note_on_c, 6, 41, 0
8, 7820, Note_on_c, 6, 45, 0
8, 7830, Note_on_c, 6, 41, 85
8, 7830, Note_on_c, 6, 45, 93
8, 7850, Note_on_c, 6, 45, 0
8, 7850, Note_on_c, 6, 41, 0
8, 7890, Note_on_c, 6, 44, 93
8, 7890, Note_on_c, 6, 40, 83
8, 7910, Note_on_c, 6, 40, 0
8, 7910, Note_on_c, 6, 44, 0
8, 7920, Note_on_c, 6, 45, 93
8, 7920, Note_on_c, 6, 41, 98
8, 7940, Note_on_c, 6, 41, 0
8, 7940, Note_on_c, 6, 45, 0
8, 7950, Note_on_c, 6, 45, 82
8, 7950, Note_on_c, 6, 41, 82
8, 7970, Note_on_c, 6, 41, 0
8, 7970, Note_on_c, 6, 45, 0
8, 7980, Note_on_c, 6, 45, 93
8, 7980, Note_on_c, 6, 41, 99
8, 8000, Note_on_c, 6, 41, 0
8, 8000, Note_on_c, 6, 45, 0
8, 8010, Note_on_c, 6, 45, 81
8, 8010, Note_on_c, 6, 41, 81
8, 8030, Note_on_c, 6, 41, 0
8, 8030, Note_on_c, 6, 45, 0
8, 8040, Note_on_c, 6, 45, 93
8, 8040, Note_on_c, 6, 41, 97
8, 8060, Note_on_c, 6, 41, 0
8, 8060, Note_on_c, 6, 45, 0
8, 8070, Note_on_c, 6, 45, 80
8, 8070, Note_on_c, 6, 41, 80
8, 8090, Note_on_c, 6, 41, 0
8, 8090, Note_on_c, 6, 45, 0
8, 8100, Note_on_c, 6, 45, 93
8, 8100, Note_on_c, 6, 41, 100
8, 8120, Note_on_c, 6, 41, 0
8, 8120, Note_on_c, 6, 45, 0
8, 8130, Note_on_c, 6, 45, 81
8, 8130, Note_on_c, 6, 41, 81
8, 8150, Note_on_c, 6, 41, 0
8, 8150, Note_on_c, 6, 45, 0
8, 8220, Note_on_c, 6, 44, 122
8, 8250, Note_on_c, 6, 43, 89
8, 8253, Note_on_c, 6, 44, 0
8, 8280, Note_on_c, 6, 41, 97
8, 8282, Note_on_c, 6, 43, 0
8, 8340, Note_on_c, 6, 38, 102
8, 8350, Note_on_c, 6, 41, 0
8, 8369, Note_on_c, 6, 38, 0
8, 8400, Note_on_c, 6, 44, 98
8, 8424, Note_on_c, 6, 44, 0
8, 8460, Note_on_c, 6, 44, 98
8, 8490, Note_on_c, 6, 43, 93
8, 8497, Note_on_c, 6, 44, 0
8, 8517, Note_on_c, 6, 43, 0
8, 8520, Note_on_c, 6, 41, 84
8, 8580, Note_on_c, 6, 38, 111
8, 8594, Note_on_c, 6, 41, 0
8, 8620, Note_on_c, 6, 38, 0
8, 8670, Note_on_c, 6, 45, 96
8, 8670, Note_on_c, 6, 41, 96
8, 8690, Note_on_c, 6, 41, 0
8, 8690, Note_on_c, 6, 45, 0
8, 8700, Note_on_c, 6, 45, 84
8, 8700, Note_on_c, 6, 41, 84
8, 8720, Note_on_c, 6, 41, 0
8, 8720, Note_on_c, 6, 45, 0
8, 8730, Note_on_c, 6, 45, 93
8, 8730, Note_on_c, 6, 41, 85
8, 8750, Note_on_c, 6, 41, 0
8, 8750, Note_on_c, 6, 45, 0
8, 8760, Note_on_c, 6, 45, 83
8, 8760, Note_on_c, 6, 41, 83
8, 8780, Note_on_c, 6, 41, 0
8, 8780, Note_on_c, 6, 45, 0
8, 8790, Note_on_c, 6, 41, 85
8, 8790, Note_on_c, 6, 45, 93
8, 8810, Note_on_c, 6, 45, 0
8, 8810, Note_on_c, 6, 41, 0
8, 8850, Note_on_c, 6, 44, 93
8, 8850, Note_on_c, 6, 40, 83
8, 8870, Note_on_c, 6, 40, 0
8, 8870, Note_on_c, 6, 44, 0
8, 8880, Note_on_c, 6, 45, 93
8, 8880, Note_on_c, 6, 41, 98
8, 8900, Note_on_c, 6, 41, 0
8, 8900, Note_on_c, 6, 45, 0
8, 8910, Note_on_c, 6, 45, 82
8, 8910, Note_on_c, 6, 41, 82
8, 8930, Note_on_c, 6, 41, 0
8, 8930, Note_on_c, 6, 45, 0
8, 8940, Note_on_c, 6, 45, 93
8, 8940, Note_on_c, 6, 41, 99
8, 8960, Note_on_c, 6, 41, 0
8, 8960, Note_on_c, 6, 45, 0
8, 8970, Note_on_c, 6, 45, 81
8, 8970, Note_on_c, 6, 41, 81
8, 8990, Note_on_c, 6, 41, 0
8, 8990, Note_on_c, 6, 45, 0
8, 9000, Note_on_c, 6, 45, 93
8, 9000, Note_on_c, 6, 41, 97
8, 9020, Note_on_c, 6, 41, 0
8, 9020, Note_on_c, 6, 45, 0
8, 9030, Note_on_c, 6, 45, 80
8, 9030, Note_on_c, 6, 41, 80
8, 9050, Note_on_c, 6, 41, 0
8, 9050, Note_on_c, 6, 45, 0
8, 9060, Note_on_c, 6, 45, 93
8, 9060, Note_on_c, 6, 41, 100
8, 9080, Note_on_c, 6, 41, 0
8, 9080, Note_on_c, 6, 45, 0
8, 9090, Note_on_c, 6, 45, 81
8, 9090, Note_on_c, 6, 41, 81
8, 9110, Note_on_c, 6, 41, 0
8, 9110, Note_on_c, 6, 45, 0
8, 9120, Note_on_c, 6, 41, 58
8, 9131, Note_on_c, 6, 41, 0
8, 9180, Note_on_c, 6, 44, 106
8, 9210, Note_on_c, 6, 43, 82
8, 9217, Note_on_c, 6, 44, 0
8, 9239, Note_on_c, 6, 43, 0
8, 9240, Note_on_c, 6, 41, 95
8, 9300, Note_on_c, 6, 38, 105
8, 9313, Note_on_c, 6, 41, 0
8, 9324, Note_on_c, 6, 38, 0
8, 9360, Note_on_c, 6, 43, 124
8, 9389, Note_on_c, 6, 43, 0
8, 9630, Note_on_c, 6, 45, 96
8, 9630, Note_on_c, 6, 41, 96
8, 9650, Note_on_c, 6, 41, 0
8, 9650, Note_on_c, 6, 45, 0
8, 9660, Note_on_c, 6, 45, 84
8, 9660, Note_on_c, 6, 41, 84
8, 9680, Note_on_c, 6, 41, 0
8, 9680, Note_on_c, 6, 45, 0
8, 9690, Note_on_c, 6, 45, 93
8, 9690, Note_on_c, 6, 41, 85
8, 9710, Note_on_c, 6, 41, 0
8, 9710, Note_on_c, 6, 45, 0
8, 9720, Note_on_c, 6, 45, 83
8, 9720, Note_on_c, 6, 41, 83
8, 9740, Note_on_c, 6, 41, 0
8, 9740, Note_on_c, 6, 45, 0
8, 9750, Note_on_c, 6, 41, 85
8, 9750, Note_on_c, 6, 45, 93
8, 9770, Note_on_c, 6, 45, 0
8, 9770, Note_on_c, 6, 41, 0
8, 9810, Note_on_c, 6, 44, 93
8, 9810, Note_on_c, 6, 40, 83
8, 9830, Note_on_c, 6, 40, 0
8, 9830, Note_on_c, 6, 44, 0
8, 9840, Note_on_c, 6, 45, 93
8, 9840, Note_on_c, 6, 41, 98
8, 9860, Note_on_c, 6, 41, 0
8, 9860, Note_on_c, 6, 45, 0
8, 9870, Note_on_c, 6, 45, 82
8, 9870, Note_on_c, 6, 41, 82
8, 9890, Note_on_c, 6, 41, 0
8, 9890, Note_on_c, 6, 45, 0
8, 9900, Note_on_c, 6, 45, 93
8, 9900, Note_on_c, 6, 41, 99
8, 9920, Note_on_c, 6, 41, 0
8, 9920, Note_on_c, 6, 45, 0
8, 9930, Note_on_c, 6, 45, 81
8, 9930, Note_on_c, 6, 41, 81
8, 9950, Note_on_c, 6, 41, 0
8, 9950, Note_on_c, 6, 45, 0
8, 9960, Note_on_c, 6, 45, 93
8, 9960, Note_on_c, 6, 41, 97
8, 9980, Note_on_c, 6, 41, 0
8, 9980, Note_on_c, 6, 45, 0
8, 9990, Note_on_c, 6, 45, 80
8, 9990, Note_on_c, 6, 41, 80
8, 10010, Note_on_c, 6, 41, 0
8, 10010, Note_on_c, 6, 45, 0
8, 10020, Note_on_c, 6, 45, 93
8, 10020, Note_on_c, 6, 41, 100
8, 10040, Note_on_c, 6, 41, 0
8, 10040, Note_on_c, 6, 45, 0
8, 10050, Note_on_c, 6, 45, 81
8, 10050, Note_on_c, 6, 41, 81
8, 10070, Note_on_c, 6, 41, 0
8, 10070, Note_on_c, 6, 45, 0
8, 10086, Note_on_c, 6, 41, 102
8, 10102, Note_on_c, 6, 41, 0
8, 10114, Note_on_c, 6, 41, 67
8, 10127, Note_on_c, 6, 41, 0
8, 10146, Note_on_c, 6, 41, 66
8, 10161, Note_on_c, 6, 41, 0
8, 10176, Note_on_c, 6, 41, 72
8, 10191, Note_on_c, 6, 41, 0
8, 10206, Note_on_c, 6, 41, 86
8, 10220, Note_on_c, 6, 41, 0
8, 10236, Note_on_c, 6, 41, 91
8, 10251, Note_on_c, 6, 41, 0
8, 10262, Note_on_c, 6, 41, 84
8, 10279, Note_on_c, 6, 41, 0
8, 10292, Note_on_c, 6, 40, 87
8, 10309, Note_on_c, 6, 40, 0
8, 10319, Note_on_c, 6, 41, 97
8, 10332, Note_on_c, 6, 41, 0
8, 10352, Note_on_c, 6, 41, 74
8, 10364, Note_on_c, 6, 41, 0
8, 10382, Note_on_c, 6, 40, 102
8, 10399, Note_on_c, 6, 40, 0
8, 10412, Note_on_c, 6, 41, 95
8, 10424, Note_on_c, 6, 41, 0
8, 10439, Note_on_c, 6, 41, 71
8, 10449, Note_on_c, 6, 41, 0
8, 10472, Note_on_c, 6, 40, 111
8, 10490, Note_on_c, 6, 40, 0
8, 10501, Note_on_c, 6, 41, 114
8, 10516, Note_on_c, 6, 41, 0
8, 10527, Note_on_c, 6, 41, 68
8, 10534, Note_on_c, 6, 41, 0
8, 10597, Note_on_c, 6, 41, 77
8, 10610, Note_on_c, 6, 41, 0
8, 10627, Note_on_c, 6, 41, 100
8, 10642, Note_on_c, 6, 41, 0
8, 10659, Note_on_c, 6, 41, 100
8, 10672, Note_on_c, 6, 41, 0
8, 10690, Note_on_c, 6, 41, 95
8, 10703, Note_on_c, 6, 41, 0
8, 10717, Note_on_c, 6, 41, 93
8, 10730, Note_on_c, 6, 41, 0
8, 10747, Note_on_c, 6, 41, 95
8, 10760, Note_on_c, 6, 41, 0
8, 10777, Note_on_c, 6, 40, 102
8, 10792, Note_on_c, 6, 40, 0
8, 10803, Note_on_c, 6, 41, 102
8, 10817, Note_on_c, 6, 41, 0
8, 10834, Note_on_c, 6, 41, 87
8, 10845, Note_on_c, 6, 41, 0
8, 10863, Note_on_c, 6, 40, 114
8, 10880, Note_on_c, 6, 40, 0
8, 10890, Note_on_c, 6, 41, 108
8, 10902, Note_on_c, 6, 41, 0
8, 10918, Note_on_c, 6, 41, 74
8, 10930, Note_on_c, 6, 41, 0
8, 10952, Note_on_c, 6, 40, 111
8, 10970, Note_on_c, 6, 40, 0
8, 10978, Note_on_c, 6, 41, 118
8, 10992, Note_on_c, 6, 41, 0
8, 11005, Note_on_c, 6, 41, 80
8, 11018, Note_on_c, 6, 41, 0
8, 11078, Note_on_c, 6, 46, 127
8, 11090, Note_on_c, 6, 46, 0
8, 11104, Note_on_c, 6, 46, 89
8, 11118, Note_on_c, 6, 46, 0
8, 11135, Note_on_c, 6, 46, 106
8, 11148, Note_on_c, 6, 46, 0
8, 11164, Note_on_c, 6, 46, 95
8, 11178, Note_on_c, 6, 46, 0
8, 11196, Note_on_c, 6, 46, 102
8, 11208, Note_on_c, 6, 46, 0
8, 11223, Note_on_c, 6, 46, 84
8, 11236, Note_on_c, 6, 46, 0
8, 11253, Note_on_c, 6, 45, 87
8, 11266, Note_on_c, 6, 45, 0
8, 11281, Note_on_c, 6, 46, 127
8, 11298, Note_on_c, 6, 46, 0
8, 11311, Note_on_c, 6, 46, 70
8, 11323, Note_on_c, 6, 46, 0
8, 11341, Note_on_c, 6, 45, 108
8, 11358, Note_on_c, 6, 45, 0
8, 11372, Note_on_c, 6, 46, 111
8, 11388, Note_on_c, 6, 46, 0
8, 11403, Note_on_c, 6, 46, 72
8, 11416, Note_on_c, 6, 46, 0
8, 11431, Note_on_c, 6, 45, 127
8, 11446, Note_on_c, 6, 45, 0
8, 11462, Note_on_c, 6, 46, 106
8, 11478, Note_on_c, 6, 46, 0
8, 11488, Note_on_c, 6, 46, 77
8, 11501, Note_on_c, 6, 46, 0
8, 11557, Note_on_c, 6, 41, 111
8, 11567, Note_on_c, 6, 41, 0
8, 11584, Note_on_c, 6, 41, 100
8, 11597, Note_on_c, 6, 41, 0
8, 11615, Note_on_c, 6, 41, 100
8, 11627, Note_on_c, 6, 41, 0
8, 11645, Note_on_c, 6, 41, 102
8, 11659, Note_on_c, 6, 41, 0
8, 11675, Note_on_c, 6, 41, 102
8, 11689, Note_on_c, 6, 41, 0
8, 11704, Note_on_c, 6, 41, 97
8, 11717, Note_on_c, 6, 41, 0
8, 11730, Note_on_c, 6, 40, 97
8, 11745, Note_on_c, 6, 40, 0
8, 11762, Note_on_c, 6, 41, 105
8, 11774, Note_on_c, 6, 41, 0
8, 11789, Note_on_c, 6, 41, 73
8, 11800, Note_on_c, 6, 41, 0
8, 11822, Note_on_c, 6, 40, 114
8, 11837, Note_on_c, 6, 40, 0
8, 11854, Note_on_c, 6, 41, 111
8, 11865, Note_on_c, 6, 41, 0
8, 11884, Note_on_c, 6, 41, 97
8, 11897, Note_on_c, 6, 41, 0
8, 11915, Note_on_c, 6, 40, 105
8, 11930, Note_on_c, 6, 40, 0
8, 11940, Note_on_c, 6, 41, 111
8, 11952, Note_on_c, 6, 41, 0
8, 11964, Note_on_c, 6, 41, 71
8, 11974, Note_on_c, 6, 41, 0
8, 12035, Note_on_c, 6, 48, 97
8, 12048, Note_on_c, 6, 48, 0
8, 12067, Note_on_c, 6, 48, 105
8, 12080, Note_on_c, 6, 48, 0
8, 12095, Note_on_c, 6, 48, 91
8, 12107, Note_on_c, 6, 48, 0
8, 12125, Note_on_c, 6, 48, 91
8, 12136, Note_on_c, 6, 48, 0
8, 12155, Note_on_c, 6, 48, 89
8, 12167, Note_on_c, 6, 48, 0
8, 12186, Note_on_c, 6, 48, 93
8, 12200, Note_on_c, 6, 48, 0
8, 12207, Note_on_c, 6, 48, 86
8, 12223, Note_on_c, 6, 48, 0
8, 12247, Note_on_c, 6, 46, 111
8, 12261, Note_on_c, 6, 46, 0
8, 12275, Note_on_c, 6, 46, 96
8, 12286, Note_on_c, 6, 46, 0
8, 12305, Note_on_c, 6, 46, 96
8, 12316, Note_on_c, 6, 46, 0
8, 12345, Note_on_c, 6, 45, 100
8, 12359, Note_on_c, 6, 45, 0
8, 12360, Note_on_c, 6, 46, 100
8, 12374, Note_on_c, 6, 46, 0
8, 12390, Note_on_c, 6, 46, 100
8, 12404, Note_on_c, 6, 46, 0
8, 12420, Note_on_c, 6, 46, 100
8, 12434, Note_on_c, 6, 46, 0
8, 12450, Note_on_c, 6, 46, 100
8, 12464, Note_on_c, 6, 46, 0
8, 12480, Note_on_c, 6, 41, 100
8, 12494, Note_on_c, 6, 41, 0
8, 12510, Note_on_c, 6, 41, 100
8, 12524, Note_on_c, 6, 41, 0
8, 12544, Note_on_c, 6, 41, 127
8, 12559, Note_on_c, 6, 41, 0
8, 12572, Note_on_c, 6, 41, 89
8, 12585, Note_on_c, 6, 41, 0
8, 12607, Note_on_c, 6, 41, 100
8, 12620, Note_on_c, 6, 41, 0
8, 12639, Note_on_c, 6, 41, 95
8, 12649, Note_on_c, 6, 41, 0
8, 12662, Note_on_c, 6, 41, 91
8, 12679, Note_on_c, 6, 41, 0
8, 12694, Note_on_c, 6, 40, 102
8, 12708, Note_on_c, 6, 40, 0
8, 12722, Note_on_c, 6, 41, 105
8, 12734, Note_on_c, 6, 41, 0
8, 12752, Note_on_c, 6, 41, 100
8, 12769, Note_on_c, 6, 41, 0
8, 12782, Note_on_c, 6, 40, 111
8, 12798, Note_on_c, 6, 40, 0
8, 12814, Note_on_c, 6, 41, 108
8, 12825, Note_on_c, 6, 41, 0
8, 12840, Note_on_c, 6, 41, 95
8, 12857, Note_on_c, 6, 41, 0
8, 12877, Note_on_c, 6, 40, 122
8, 12890, Note_on_c, 6, 40, 0
8, 12904, Note_on_c, 6, 41, 127
8, 12918, Note_on_c, 6, 41, 0
8, 13020, Note_on_c, 6, 44, 106
8, 13050, Note_on_c, 6, 44, 0
8, 13050, Note_on_c, 6, 43, 78
8, 13080, Note_on_c, 6, 41, 91
8, 13086, Note_on_c, 6, 43, 0
8, 13133, Note_on_c, 6, 41, 0
8, 13140, Note_on_c, 6, 38, 93
8, 13168, Note_on_c, 6, 38, 0
8, 13200, Note_on_c, 6, 44, 116
8, 13222, Note_on_c, 6, 44, 0
8, 13260, Note_on_c, 6, 44, 106
8, 13290, Note_on_c, 6, 43, 82
8, 13297, Note_on_c, 6, 44, 0
8, 13320, Note_on_c, 6, 41, 95
8, 13322, Note_on_c, 6, 43, 0
8, 13380, Note_on_c, 6, 38, 100
8, 13389, Note_on_c, 6, 41, 0
8, 13423, Note_on_c, 6, 38, 0
8, 13470, Note_on_c, 6, 45, 96
8, 13470, Note_on_c, 6, 41, 96
8, 13490, Note_on_c, 6, 41, 0
8, 13490, Note_on_c, 6, 45, 0
8, 13500, Note_on_c, 6, 45, 84
8, 13500, Note_on_c, 6, 41, 84
8, 13520, Note_on_c, 6, 41, 0
8, 13520, Note_on_c, 6, 45, 0
8, 13530, Note_on_c, 6, 45, 93
8, 13530, Note_on_c, 6, 41, 85
8, 13550, Note_on_c, 6, 41, 0
8, 13550, Note_on_c, 6, 45, 0
8, 13560, Note_on_c, 6, 45, 83
8, 13560, Note_on_c, 6, 41, 83
8, 13580, Note_on_c, 6, 41, 0
8, 13580, Note_on_c, 6, 45, 0
8, 13590, Note_on_c, 6, 41, 85
8, 13590, Note_on_c, 6, 45, 93
8, 13610, Note_on_c, 6, 45, 0
8, 13610, Note_on_c, 6, 41, 0
8, 13650, Note_on_c, 6, 44, 93
8, 13650, Note_on_c, 6, 40, 83
8, 13670, Note_on_c, 6, 40, 0
8, 13670, Note_on_c, 6, 44, 0
8, 13680, Note_on_c, 6, 45, 93
8, 13680, Note_on_c, 6, 41, 98
8, 13700, Note_on_c, 6, 41, 0
8, 13700, Note_on_c, 6, 45, 0
8, 13710, Note_on_c, 6, 45, 82
8, 13710, Note_on_c, 6, 41, 82
8, 13730, Note_on_c, 6, 41, 0
8, 13730, Note_on_c, 6, 45, 0
8, 13740, Note_on_c, 6, 45, 93
8, 13740, Note_on_c, 6, 41, 99
8, 13760, Note_on_c, 6, 41, 0
8, 13760, Note_on_c, 6, 45, 0
8, 13770, Note_on_c, 6, 45, 81
8, 13770, Note_on_c, 6, 41, 81
8, 13790, Note_on_c, 6, 41, 0
8, 13790, Note_on_c, 6, 45, 0
8, 13800, Note_on_c, 6, 45, 93
8, 13800, Note_on_c, 6, 41, 97
8, 13820, Note_on_c, 6, 41, 0
8, 13820, Note_on_c, 6, 45, 0
8, 13830, Note_on_c, 6, 45, 80
8, 13830, Note_on_c, 6, 41, 80
8, 13850, Note_on_c, 6, 41, 0
8, 13850, Note_on_c, 6, 45, 0
8, 13860, Note_on_c, 6, 45, 93
8, 13860, Note_on_c, 6, 41, 100
8, 13880, Note_on_c, 6, 41, 0
8, 13880, Note_on_c, 6, 45, 0
8, 13890, Note_on_c, 6, 45, 81
8, 13890, Note_on_c, 6, 41, 81
8, 13910, Note_on_c, 6, 41, 0
8, 13910, Note_on_c, 6, 45, 0
8, 13980, Note_on_c, 6, 44, 122
8, 14010, Note_on_c, 6, 43, 89
8, 14013, Note_on_c, 6, 44, 0
8, 14040, Note_on_c, 6, 41, 97
8, 14042, Note_on_c, 6, 43, 0
8, 14100, Note_on_c, 6, 38, 102
8, 14110, Note_on_c, 6, 41, 0
8, 14129, Note_on_c, 6, 38, 0
8, 14160, Note_on_c, 6, 44, 98
8, 14184, Note_on_c, 6, 44, 0
8, 14220, Note_on_c, 6, 44, 98
8, 14250, Note_on_c, 6, 43, 93
8, 14257, Note_on_c, 6, 44, 0
8, 14277, Note_on_c, 6, 43, 0
8, 14280, Note_on_c, 6, 41, 84
8, 14340, Note_on_c, 6, 38, 111
8, 14354, Note_on_c, 6, 41, 0
8, 14380, Note_on_c, 6, 38, 0
8, 14430, Note_on_c, 6, 45, 96
8, 14430, Note_on_c, 6, 41, 96
8, 14450, Note_on_c, 6, 41, 0
8, 14450, Note_on_c, 6, 45, 0
8, 14460, Note_on_c, 6, 45, 84
8, 14460, Note_on_c, 6, 41, 84
8, 14480, Note_on_c, 6, 41, 0
8, 14480, Note_on_c, 6, 45, 0
8, 14490, Note_on_c, 6, 45, 93
8, 14490, Note_on_c, 6, 41, 85
8, 14510, Note_on_c, 6, 41, 0
8, 14510, Note_on_c, 6, 45, 0
8, 14520, Note_on_c, 6, 45, 83
8, 14520, Note_on_c, 6, 41, 83
8, 14540, Note_on_c, 6, 41, 0
8, 14540, Note_on_c, 6, 45, 0
8, 14550, Note_on_c, 6, 41, 85
8, 14550, Note_on_c, 6, 45, 93
8, 14570, Note_on_c, 6, 45, 0
8, 14570, Note_on_c, 6, 41, 0
8, 14610, Note_on_c, 6, 44, 93
8, 14610, Note_on_c, 6, 40, 83
8, 14630, Note_on_c, 6, 40, 0
8, 14630, Note_on_c, 6, 44, 0
8, 14640, Note_on_c, 6, 45, 93
8, 14640, Note_on_c, 6, 41, 98
8, 14660, Note_on_c, 6, 41, 0
8, 14660, Note_on_c, 6, 45, 0
8, 14670, Note_on_c, 6, 45, 82
8, 14670, Note_on_c, 6, 41, 82
8, 14690, Note_on_c, 6, 41, 0
8, 14690, Note_on_c, 6, 45, 0
8, 14700, Note_on_c, 6, 45, 93
8, 14700, Note_on_c, 6, 41, 99
8, 14720, Note_on_c, 6, 41, 0
8, 14720, Note_on_c, 6, 45, 0
8, 14730, Note_on_c, 6, 45, 81
8, 14730, Note_on_c, 6, 41, 81
8, 14750, Note_on_c, 6, 41, 0
8, 14750, Note_on_c, 6, 45, 0
8, 14760, Note_on_c, 6, 45, 93
8, 14760, Note_on_c, 6, 41, 97
8, 14780, Note_on_c, 6, 41, 0
8, 14780, Note_on_c, 6, 45, 0
8, 14790, Note_on_c, 6, 45, 80
8, 14790, Note_on_c, 6, 41, 80
8, 14810, Note_on_c, 6, 41, 0
8, 14810, Note_on_c, 6, 45, 0
8, 14820, Note_on_c, 6, 45, 93
8, 14820, Note_on_c, 6, 41, 100
8, 14840, Note_on_c, 6, 41, 0
8, 14840, Note_on_c, 6, 45, 0
8, 14850, Note_on_c, 6, 45, 81
8, 14850, Note_on_c, 6, 41, 81
8, 14870, Note_on_c, 6, 41, 0
8, 14870, Note_on_c, 6, 45, 0
8, 14880, Note_on_c, 6, 41, 58
8, 14891, Note_on_c, 6, 41, 0
8, 14940, Note_on_c, 6, 44, 106
8, 14970, Note_on_c, 6, 43, 82
8, 14977, Note_on_c, 6, 44, 0
8, 14999, Note_on_c, 6, 43, 0
8, 15000, Note_on_c, 6, 41, 95
8, 15060, Note_on_c, 6, 38, 105
8, 15073, Note_on_c, 6, 41, 0
8, 15084, Note_on_c, 6, 38, 0
8, 15120, Note_on_c, 6, 43, 124
8, 15149, Note_on_c, 6, 43, 0
8, 15390, Note_on_c, 6, 45, 96
8, 15390, Note_on_c, 6, 41, 96
8, 15410, Note_on_c, 6, 41, 0
8, 15410, Note_on_c, 6, 45, 0
8, 15420, Note_on_c, 6, 45, 84
8, 15420, Note_on_c, 6, 41, 84
8, 15440, Note_on_c, 6, 41, 0
8, 15440, Note_on_c, 6, 45, 0
8, 15450, Note_on_c, 6, 45, 93
8, 15450, Note_on_c, 6, 41, 85
8, 15470, Note_on_c, 6, 41, 0
8, 15470, Note_on_c, 6, 45, 0
8, 15480, Note_on_c, 6, 45, 83
8, 15480, Note_on_c, 6, 41, 83
8, 15500, Note_on_c, 6, 41, 0
8, 15500, Note_on_c, 6, 45, 0
8, 15510, Note_on_c, 6, 41, 85
8, 15510, Note_on_c, 6, 45, 93
8, 15530, Note_on_c, 6, 45, 0
8, 15530, Note_on_c, 6, 41, 0
8, 15570, Note_on_c, 6, 44, 93
8, 15570, Note_on_c, 6, 40, 83
8, 15590, Note_on_c, 6, 40, 0
8, 15590, Note_on_c, 6, 44, 0
8, 15600, Note_on_c, 6, 45, 93
8, 15600, Note_on_c, 6, 41, 98
8, 15620, Note_on_c, 6, 41, 0
8, 15620, Note_on_c, 6, 45, 0
8, 15630, Note_on_c, 6, 45, 82
8, 15630, Note_on_c, 6, 41, 82
8, 15650, Note_on_c, 6, 41, 0
8, 15650, Note_on_c, 6, 45, 0
8, 15660, Note_on_c, 6, 45, 93
8, 15660, Note_on_c, 6, 41, 99
8, 15680, Note_on_c, 6, 41, 0
8, 15680, Note_on_c, 6, 45, 0
8, 15690, Note_on_c, 6, 45, 81
8, 15690, Note_on_c, 6, 41, 81
8, 15710, Note_on_c, 6, 41, 0
8, 15710, Note_on_c, 6, 45, 0
8, 15720, Note_on_c, 6, 45, 93
8, 15720, Note_on_c, 6, 41, 97
8, 15740, Note_on_c, 6, 41, 0
8, 15740, Note_on_c, 6, 45, 0
8, 15750, Note_on_c, 6, 45, 80
8, 15750, Note_on_c, 6, 41, 80
8, 15770, Note_on_c, 6, 41, 0
8, 15770, Note_on_c, 6, 45, 0
8, 15780, Note_on_c, 6, 45, 93
8, 15780, Note_on_c, 6, 41, 100
8, 15800, Note_on_c, 6, 41, 0
8, 15800, Note_on_c, 6, 45, 0
8, 15810, Note_on_c, 6, 45, 81
8, 15810, Note_on_c, 6, 41, 81
8, 15830, Note_on_c, 6, 41, 0
8, 15830, Note_on_c, 6, 45, 0
8, 15900, Note_on_c, 6, 44, 106
8, 15930, Note_on_c, 6, 44, 0
8, 15930, Note_on_c, 6, 43, 78
8, 15960, Note_on_c, 6, 41, 91
8, 15966, Note_on_c, 6, 43, 0
8, 16013, Note_on_c, 6, 41, 0
8, 16020, Note_on_c, 6, 38, 93
8, 16048, Note_on_c, 6, 38, 0
8, 16080, Note_on_c, 6, 44, 116
8, 16102, Note_on_c, 6, 44, 0
8, 16140, Note_on_c, 6, 44, 106
8, 16170, Note_on_c, 6, 43, 82
8, 16177, Note_on_c, 6, 44, 0
8, 16200, Note_on_c, 6, 41, 95
8, 16202, Note_on_c, 6, 43, 0
8, 16260, Note_on_c, 6, 38, 100
8, 16269, Note_on_c, 6, 41, 0
8, 16303, Note_on_c, 6, 38, 0
8, 16350, Note_on_c, 6, 45, 96
8, 16350, Note_on_c, 6, 41, 96
8, 16370, Note_on_c, 6, 41, 0
8, 16370, Note_on_c, 6, 45, 0
8, 16380, Note_on_c, 6, 45, 84
8, 16380, Note_on_c, 6, 41, 84
8, 16400, Note_on_c, 6, 41, 0
8, 16400, Note_on_c, 6, 45, 0
8, 16410, Note_on_c, 6, 45, 93
8, 16410, Note_on_c, 6, 41, 85
8, 16430, Note_on_c, 6, 41, 0
8, 16430, Note_on_c, 6, 45, 0
8, 16440, Note_on_c, 6, 45, 83
8, 16440, Note_on_c, 6, 41, 83
8, 16460, Note_on_c, 6, 41, 0
8, 16460, Note_on_c, 6, 45, 0
8, 16470, Note_on_c, 6, 41, 85
8, 16470, Note_on_c, 6, 45, 93
8, 16490, Note_on_c, 6, 45, 0
8, 16490, Note_on_c, 6, 41, 0
8, 16530, Note_on_c, 6, 44, 93
8, 16530, Note_on_c, 6, 40, 83
8, 16550, Note_on_c, 6, 40, 0
8, 16550, Note_on_c, 6, 44, 0
8, 16560, Note_on_c, 6, 45, 93
8, 16560, Note_on_c, 6, 41, 98
8, 16580, Note_on_c, 6, 41, 0
8, 16580, Note_on_c, 6, 45, 0
8, 16590, Note_on_c, 6, 45, 82
8, 16590, Note_on_c, 6, 41, 82
8, 16610, Note_on_c, 6, 41, 0
8, 16610, Note_on_c, 6, 45, 0
8, 16620, Note_on_c, 6, 45, 93
8, 16620, Note_on_c, 6, 41, 99
8, 16640, Note_on_c, 6, 41, 0
8, 16640, Note_on_c, 6, 45, 0
8, 16650, Note_on_c, 6, 45, 81
8, 16650, Note_on_c, 6, 41, 81
8, 16670, Note_on_c, 6, 41, 0
8, 16670, Note_on_c, 6, 45, 0
8, 16680, Note_on_c, 6, 45, 93
8, 16680, Note_on_c, 6, 41, 97
8, 16700, Note_on_c, 6, 41, 0
8, 16700, Note_on_c, 6, 45, 0
8, 16710, Note_on_c, 6, 45, 80
8, 16710, Note_on_c, 6, 41, 80
8, 16730, Note_on_c, 6, 41, 0
8, 16730, Note_on_c, 6, 45, 0
8, 16740, Note_on_c, 6, 45, 93
8, 16740, Note_on_c, 6, 41, 100
8, 16760, Note_on_c, 6, 41, 0
8, 16760, Note_on_c, 6, 45, 0
8, 16770, Note_on_c, 6, 45, 81
8, 16770, Note_on_c, 6, 41, 81
8, 16790, Note_on_c, 6, 41, 0
8, 16790, Note_on_c, 6, 45, 0
8, 16860, Note_on_c, 6, 44, 122
8, 16890, Note_on_c, 6, 43, 89
8, 16893, Note_on_c, 6, 44, 0
8, 16920, Note_on_c, 6, 41, 97
8, 16922, Note_on_c, 6, 43, 0
8, 16980, Note_on_c, 6, 38, 102
8, 16990, Note_on_c, 6, 41, 0
8, 17009, Note_on_c, 6, 38, 0
8, 17040, Note_on_c, 6, 44, 98
8, 17064, Note_on_c, 6, 44, 0
8, 17100, Note_on_c, 6, 44, 98
8, 17130, Note_on_c, 6, 43, 93
8, 17137, Note_on_c, 6, 44, 0
8, 17157, Note_on_c, 6, 43, 0
8, 17160, Note_on_c, 6, 41, 84
8, 17220, Note_on_c, 6, 38, 111
8, 17234, Note_on_c, 6, 41, 0
8, 17260, Note_on_c, 6, 38, 0
8, 17310, Note_on_c, 6, 45, 96
8, 17310, Note_on_c, 6, 41, 96
8, 17330, Note_on_c, 6, 41, 0
8, 17330, Note_on_c, 6, 45, 0
8, 17340, Note_on_c, 6, 45, 84
8, 17340, Note_on_c, 6, 41, 84
8, 17360, Note_on_c, 6, 41, 0
8, 17360, Note_on_c, 6, 45, 0
8, 17370, Note_on_c, 6, 45, 93
8, 17370, Note_on_c, 6, 41, 85
8, 17390, Note_on_c, 6, 41, 0
8, 17390, Note_on_c, 6, 45, 0
8, 17400, Note_on_c, 6, 45, 83
8, 17400, Note_on_c, 6, 41, 83
8, 17420, Note_on_c, 6, 41, 0
8, 17420, Note_on_c, 6, 45, 0
8, 17430, Note_on_c, 6, 41, 85
8, 17430, Note_on_c, 6, 45, 93
8, 17450, Note_on_c, 6, 45, 0
8, 17450, Note_on_c, 6, 41, 0
8, 17490, Note_on_c, 6, 44, 93
8, 17490, Note_on_c, 6, 40, 83
8, 17510, Note_on_c, 6, 40, 0
8, 17510, Note_on_c, 6, 44, 0
8, 17520, Note_on_c, 6, 45, 93
8, 17520, Note_on_c, 6, 41, 98
8, 17540, Note_on_c, 6, 41, 0
8, 17540, Note_on_c, 6, 45, 0
8, 17550, Note_on_c, 6, 45, 82
8, 17550, Note_on_c, 6, 41, 82
8, 17570, Note_on_c, 6, 41, 0
8, 17570, Note_on_c, 6, 45, 0
8, 17580, Note_on_c, 6, 45, 93
8, 17580, Note_on_c, 6, 41, 99
8, 17600, Note_on_c, 6, 41, 0
8, 17600, Note_on_c, 6, 45, 0
8, 17610, Note_on_c, 6, 45, 81
8, 17610, Note_on_c, 6, 41, 81
8, 17630, Note_on_c, 6, 41, 0
8, 17630, Note_on_c, 6, 45, 0
8, 17640, Note_on_c, 6, 45, 93
8, 17640, Note_on_c, 6, 41, 97
8, 17660, Note_on_c, 6, 41, 0
8, 17660, Note_on_c, 6, 45, 0
8, 17670, Note_on_c, 6, 45, 80
8, 17670, Note_on_c, 6, 41, 80
8, 17690, Note_on_c, 6, 41, 0
8, 17690, Note_on_c, 6, 45, 0
8, 17700, Note_on_c, 6, 45, 93
8, 17700, Note_on_c, 6, 41, 100
8, 17720, Note_on_c, 6, 41, 0
8, 17720, Note_on_c, 6, 45, 0
8, 17730, Note_on_c, 6, 45, 81
8, 17730, Note_on_c, 6, 41, 81
8, 17750, Note_on_c, 6, 41, 0
8, 17750, Note_on_c, 6, 45, 0
8, 17760, Note_on_c, 6, 41, 58
8, 17771, Note_on_c, 6, 41, 0
8, 17820, Note_on_c, 6, 44, 106
8, 17850, Note_on_c, 6, 43, 82
8, 17857, Note_on_c, 6, 44, 0
8, 17879, Note_on_c, 6, 43, 0
8, 17880, Note_on_c, 6, 41, 95
8, 17940, Note_on_c, 6, 38, 105
8, 17953, Note_on_c, 6, 41, 0
8, 17964, Note_on_c, 6, 38, 0
8, 18000, Note_on_c, 6, 43, 124
8, 18029, Note_on_c, 6, 43, 0
8, 18270, Note_on_c, 6, 45, 96
8, 18270, Note_on_c, 6, 41, 96
8, 18290, Note_on_c, 6, 41, 0
8, 18290, Note_on_c, 6, 45, 0
8, 18300, Note_on_c, 6, 45, 84
8, 18300, Note_on_c, 6, 41, 84
8, 18320, Note_on_c, 6, 41, 0
8, 18320, Note_on_c, 6, 45, 0
8, 18330, Note_on_c, 6, 45, 93
8, 18330, Note_on_c, 6, 41, 85
8, 18350, Note_on_c, 6, 41, 0
8, 18350, Note_on_c, 6, 45, 0
8, 18360, Note_on_c, 6, 45, 83
8, 18360, Note_on_c, 6, 41, 83
8, 18380, Note_on_c, 6, 41, 0
8, 18380, Note_on_c, 6, 45, 0
8, 18390, Note_on_c, 6, 41, 85
8, 18390, Note_on_c, 6, 45, 93
8, 18410, Note_on_c, 6, 45, 0
8, 18410, Note_on_c, 6, 41, 0
8, 18450, Note_on_c, 6, 44, 93
8, 18450, Note_on_c, 6, 40, 83
8, 18470, Note_on_c, 6, 40, 0
8, 18470, Note_on_c, 6, 44, 0
8, 18480, Note_on_c, 6, 45, 93
8, 18480, Note_on_c, 6, 41, 98
8, 18500, Note_on_c, 6, 41, 0
8, 18500, Note_on_c, 6, 45, 0
8, 18510, Note_on_c, 6, 45, 82
8, 18510, Note_on_c, 6, 41, 82
8, 18530, Note_on_c, 6, 41, 0
8, 18530, Note_on_c, 6, 45, 0
8, 18540, Note_on_c, 6, 45, 93
8, 18540, Note_on_c, 6, 41, 99
8, 18560, Note_on_c, 6, 41, 0
8, 18560, Note_on_c, 6, 45, 0
8, 18570, Note_on_c, 6, 45, 81
8, 18570, Note_on_c, 6, 41, 81
8, 18590, Note_on_c, 6, 41, 0
8, 18590, Note_on_c, 6, 45, 0
8, 18600, Note_on_c, 6, 45, 93
8, 18600, Note_on_c, 6, 41, 97
8, 18620, Note_on_c, 6, 41, 0
8, 18620, Note_on_c, 6, 45, 0
8, 18630, Note_on_c, 6, 45, 80
8, 18630, Note_on_c, 6, 41, 80
8, 18650, Note_on_c, 6, 41, 0
8, 18650, Note_on_c, 6, 45, 0
8, 18660, Note_on_c, 6, 45, 93
8, 18660, Note_on_c, 6, 41, 100
8, 18680, Note_on_c, 6, 41, 0
8, 18680, Note_on_c, 6, 45, 0
8, 18690, Note_on_c, 6, 45, 81
8, 18690, Note_on_c, 6, 41, 81
8, 18710, Note_on_c, 6, 41, 0
8, 18710, Note_on_c, 6, 45, 0
8, 18780, Note_on_c, 6, 44, 106
8, 18810, Note_on_c, 6, 44, 0
8, 18810, Note_on_c, 6, 43, 78
8, 18840, Note_on_c, 6, 41, 91
8, 18846, Note_on_c, 6, 43, 0
8, 18893, Note_on_c, 6, 41, 0
8, 18900, Note_on_c, 6, 38, 93
8, 18928, Note_on_c, 6, 38, 0
8, 18960, Note_on_c, 6, 44, 116
8, 18982, Note_on_c, 6, 44, 0
8, 19020, Note_on_c, 6, 44, 106
8, 19050, Note_on_c, 6, 43, 82
8, 19057, Note_on_c, 6, 44, 0
8, 19080, Note_on_c, 6, 41, 95
8, 19082, Note_on_c, 6, 43, 0
8, 19140, Note_on_c, 6, 38, 100
8, 19149, Note_on_c, 6, 41, 0
8, 19183, Note_on_c, 6, 38, 0
8, 19230, Note_on_c, 6, 45, 96
8, 19230, Note_on_c, 6, 41, 96
8, 19250, Note_on_c, 6, 41, 0
8, 19250, Note_on_c, 6, 45, 0
8, 19260, Note_on_c, 6, 45, 84
8, 19260, Note_on_c, 6, 41, 84
8, 19280, Note_on_c, 6, 41, 0
8, 19280, Note_on_c, 6, 45, 0
8, 19290, Note_on_c, 6, 45, 93
8, 19290, Note_on_c, 6, 41, 85
8, 19310, Note_on_c, 6, 41, 0
8, 19310, Note_on_c, 6, 45, 0
8, 19320, Note_on_c, 6, 45, 83
8, 19320, Note_on_c, 6, 41, 83
8, 19340, Note_on_c, 6, 41, 0
8, 19340, Note_on_c, 6, 45, 0
8, 19350, Note_on_c, 6, 41, 85
8, 19350, Note_on_c, 6, 45, 93
8, 19370, Note_on_c, 6, 45, 0
8, 19370, Note_on_c, 6, 41, 0
8, 19410, Note_on_c, 6, 44, 93
8, 19410, Note_on_c, 6, 40, 83
8, 19430, Note_on_c, 6, 40, 0
8, 19430, Note_on_c, 6, 44, 0
8, 19440, Note_on_c, 6, 45, 93
8, 19440, Note_on_c, 6, 41, 98
8, 19460, Note_on_c, 6, 41, 0
8, 19460, Note_on_c, 6, 45, 0
8, 19470, Note_on_c, 6, 45, 82
8, 19470, Note_on_c, 6, 41, 82
8, 19490, Note_on_c, 6, 41, 0
8, 19490, Note_on_c, 6, 45, 0
8, 19500, Note_on_c, 6, 45, 93
8, 19500, Note_on_c, 6, 41, 99
8, 19520, Note_on_c, 6, 41, 0
8, 19520, Note_on_c, 6, 45, 0
8, 19530, Note_on_c, 6, 45, 81
8, 19530, Note_on_c, 6, 41, 81
8, 19550, Note_on_c, 6, 41, 0
8, 19550, Note_on_c, 6, 45, 0
8, 19560, Note_on_c, 6, 45, 93
8, 19560, Note_on_c, 6, 41, 97
8, 19580, Note_on_c, 6, 41, 0
8, 19580, Note_on_c, 6, 45, 0
8, 19590, Note_on_c, 6, 45, 80
8, 19590, Note_on_c, 6, 41, 80
8, 19610, Note_on_c, 6, 41, 0
8, 19610, Note_on_c, 6, 45, 0
8, 19620, Note_on_c, 6, 45, 93
8, 19620, Note_on_c, 6, 41, 100
8, 19640, Note_on_c, 6, 41, 0
8, 19640, Note_on_c, 6, 45, 0
8, 19650, Note_on_c, 6, 45, 81
8, 19650, Note_on_c, 6, 41, 81
8, 19670, Note_on_c, 6, 41, 0
8, 19670, Note_on_c, 6, 45, 0
8, 19740, Note_on_c, 6, 44, 122
8, 19770, Note_on_c, 6, 43, 89
8, 19773, Note_on_c, 6, 44, 0
8, 19800, Note_on_c, 6, 41, 97
8, 19802, Note_on_c, 6, 43, 0
8, 19860, Note_on_c, 6, 38, 102
8, 19870, Note_on_c, 6, 41, 0
8, 19889, Note_on_c, 6, 38, 0
8, 19920, Note_on_c, 6, 44, 98
8, 19944, Note_on_c, 6, 44, 0
8, 19980, Note_on_c, 6, 44, 98
8, 20010, Note_on_c, 6, 43, 93
8, 20017, Note_on_c, 6, 44, 0
8, 20037, Note_on_c, 6, 43, 0
8, 20040, Note_on_c, 6, 41, 84
8, 20100, Note_on_c, 6, 38, 111
8, 20114, Note_on_c, 6, 41, 0
8, 20140, Note_on_c, 6, 38, 0
8, 20190, Note_on_c, 6, 45, 96
8, 20190, Note_on_c, 6, 41, 96
8, 20210, Note_on_c, 6, 41, 0
8, 20210, Note_on_c, 6, 45, 0
8, 20220, Note_on_c, 6, 45, 84
8, 20220, Note_on_c, 6, 41, 84
8, 20240, Note_on_c, 6, 41, 0
8, 20240, Note_on_c, 6, 45, 0
8, 20250, Note_on_c, 6, 45, 93
8, 20250, Note_on_c, 6, 41, 85
8, 20270, Note_on_c, 6, 41, 0
8, 20270, Note_on_c, 6, 45, 0
8, 20280, Note_on_c, 6, 45, 83
8, 20280, Note_on_c, 6, 41, 83
8, 20300, Note_on_c, 6, 41, 0
8, 20300, Note_on_c, 6, 45, 0
8, 20310, Note_on_c, 6, 41, 85
8, 20310, Note_on_c, 6, 45, 93
8, 20330, Note_on_c, 6, 45, 0
8, 20330, Note_on_c, 6, 41, 0
8, 20370, Note_on_c, 6, 44, 93
8, 20370, Note_on_c, 6, 40, 83
8, 20390, Note_on_c, 6, 40, 0
8, 20390, Note_on_c, 6, 44, 0
8, 20400, Note_on_c, 6, 45, 93
8, 20400, Note_on_c, 6, 41, 98
8, 20420, Note_on_c, 6, 41, 0
8, 20420, Note_on_c, 6, 45, 0
8, 20430, Note_on_c, 6, 45, 82
8, 20430, Note_on_c, 6, 41, 82
8, 20450, Note_on_c, 6, 41, 0
8, 20450, Note_on_c, 6, 45, 0
8, 20460, Note_on_c, 6, 45, 93
8, 20460, Note_on_c, 6, 41, 99
8, 20480, Note_on_c, 6, 41, 0
8, 20480, Note_on_c, 6, 45, 0
8, 20490, Note_on_c, 6, 45, 81
8, 20490, Note_on_c, 6, 41, 81
8, 20510, Note_on_c, 6, 41, 0
8, 20510, Note_on_c, 6, 45, 0
8, 20520, Note_on_c, 6, 45, 93
8, 20520, Note_on_c, 6, 41, 97
8, 20540, Note_on_c, 6, 41, 0
8, 20540, Note_on_c, 6, 45, 0
8, 20550, Note_on_c, 6, 45, 80
8, 20550, Note_on_c, 6, 41, 80
8, 20570, Note_on_c, 6, 41, 0
8, 20570, Note_on_c, 6, 45, 0
8, 20580, Note_on_c, 6, 45, 93
8, 20580, Note_on_c, 6, 41, 100
8, 20600, Note_on_c, 6, 41, 0
8, 20600, Note_on_c, 6, 45, 0
8, 20610, Note_on_c, 6, 45, 81
8, 20610, Note_on_c, 6, 41, 81
8, 20630, Note_on_c, 6, 41, 0
8, 20630, Note_on_c, 6, 45, 0
8, 20640, Note_on_c, 6, 41, 58
8, 20651, Note_on_c, 6, 41, 0
8, 20700, Note_on_c, 6, 44, 106
8, 20730, Note_on_c, 6, 43, 82
8, 20737, Note_on_c, 6, 44, 0
8, 20759, Note_on_c, 6, 43, 0
8, 20760, Note_on_c, 6, 41, 95
8, 20820, Note_on_c, 6, 38, 105
8, 20833, Note_on_c, 6, 41, 0
8, 20844, Note_on_c, 6, 38, 0
8, 20880, Note_on_c, 6, 43, 124
8, 20909, Note_on_c, 6, 43, 0
8, 21180, Note_on_c, 6, 45, 114
8, 21180, Note_on_c, 6, 41, 114
8, 21200, Note_on_c, 6, 41, 0
8, 21200, Note_on_c, 6, 45, 0
8, 21210, Note_on_c, 6, 45, 114
8, 21210, Note_on_c, 6, 41, 114
8, 21230, Note_on_c, 6, 41, 0
8, 21230, Note_on_c, 6, 45, 0
8, 21240, Note_on_c, 6, 45, 114
8, 21240, Note_on_c, 6, 41, 114
8, 21260, Note_on_c, 6, 41, 0
8, 21260, Note_on_c, 6, 45, 0
8, 21270, Note_on_c, 6, 41, 116
8, 21270, Note_on_c, 6, 45, 116
8, 21290, Note_on_c, 6, 45, 0
8, 21290, Note_on_c, 6, 41, 0
8, 21300, Note_on_c, 6, 45, 116
8, 21300, Note_on_c, 6, 41, 116
8, 21320, Note_on_c, 6, 41, 0
8, 21320, Note_on_c, 6, 45, 0
8, 21330, Note_on_c, 6, 41, 116
8, 21330, Note_on_c, 6, 45, 116
8, 21350, Note_on_c, 6, 45, 0
8, 21350, Note_on_c, 6, 41, 0
8, 21360, Note_on_c, 6, 41, 116
8, 21386, Note_on_c, 6, 41, 0
8, 21420, Note_on_c, 6, 42, 116
8, 21449, Note_on_c, 6, 42, 0
8, 21450, Note_on_c, 6, 41, 117
8, 21914, Note_on_c, 6, 41, 0
8, 21914, End_track
9, 0, Start_track
9, 0, MIDI_port, 0
9, 0, Control_c, 7, 7, 100
9, 0, End_track
10, 0, Start_track
10, 0, MIDI_port, 0
10, 0, Control_c, 8, 7, 100
10, 0, End_track
11, 0, Start_track
11, 0, MIDI_port, 0
11, 0, Title_t, ">>DRUMS"
11, 0, Program_c, 9, 0
11, 0, Control_c, 9, 7, 100
11, 480, Note_on_c, 9, 36, 82
11, 480, Note_on_c, 9, 46, 116
11, 493, Note_on_c, 9, 46, 0
11, 500, Note_on_c, 9, 36, 0
11, 540, Note_on_c, 9, 40, 124
11, 540, Note_on_c, 9, 46, 117
11, 553, Note_on_c, 9, 46, 0
11, 557, Note_on_c, 9, 40, 0
11, 600, Note_on_c, 9, 36, 87
11, 600, Note_on_c, 9, 46, 102
11, 614, Note_on_c, 9, 46, 0
11, 622, Note_on_c, 9, 36, 0
11, 660, Note_on_c, 9, 40, 119
11, 660, Note_on_c, 9, 46, 98
11, 673, Note_on_c, 9, 46, 0
11, 678, Note_on_c, 9, 40, 0
11, 720, Note_on_c, 9, 46, 106
11, 720, Note_on_c, 9, 36, 100
11, 734, Note_on_c, 9, 46, 0
11, 740, Note_on_c, 9, 36, 0
11, 780, Note_on_c, 9, 46, 102
11, 780, Note_on_c, 9, 40, 117
11, 792, Note_on_c, 9, 46, 0
11, 795, Note_on_c, 9, 40, 0
11, 840, Note_on_c, 9, 36, 93
11, 840, Note_on_c, 9, 46, 106
11, 851, Note_on_c, 9, 46, 0
11, 862, Note_on_c, 9, 36, 0
11, 900, Note_on_c, 9, 46, 106
11, 900, Note_on_c, 9, 40, 120
11, 912, Note_on_c, 9, 46, 0
11, 915, Note_on_c, 9, 40, 0
11, 960, Note_on_c, 9, 36, 82
11, 960, Note_on_c, 9, 46, 116
11, 973, Note_on_c, 9, 46, 0
11, 980, Note_on_c, 9, 36, 0
11, 1020, Note_on_c, 9, 40, 124
11, 1020, Note_on_c, 9, 46, 117
11, 1033, Note_on_c, 9, 46, 0
11, 1037, Note_on_c, 9, 40, 0
11, 1080, Note_on_c, 9, 36, 87
11, 1080, Note_on_c, 9, 46, 102
11, 1094, Note_on_c, 9, 46, 0
11, 1102, Note_on_c, 9, 36, 0
11, 1140, Note_on_c, 9, 40, 119
11, 1140, Note_on_c, 9, 46, 98
11, 1153, Note_on_c, 9, 46, 0
11, 1158, Note_on_c, 9, 40, 0
11, 1200, Note_on_c, 9, 46, 106
11, 1200, Note_on_c, 9, 36, 100
11, 1214, Note_on_c, 9, 46, 0
11, 1220, Note_on_c, 9, 36, 0
11, 1260, Note_on_c, 9, 46, 102
11, 1260, Note_on_c, 9, 40, 117
11, 1272, Note_on_c, 9, 46, 0
11, 1275, Note_on_c, 9, 40, 0
11, 1305, Note_on_c, 9, 36, 86
11, 1305, Note_on_c, 9, 46, 86
11, 1320, Note_on_c, 9, 36, 93
11, 1320, Note_on_c, 9, 46, 106
11, 1322, Note_on_c, 9, 46, 0
11, 1322, Note_on_c, 9, 36, 0
11, 1331, Note_on_c, 9, 46, 0
11, 1342, Note_on_c, 9, 36, 0
11, 1380, Note_on_c, 9, 46, 106
11, 1380, Note_on_c, 9, 40, 120
11, 1392, Note_on_c, 9, 46, 0
11, 1395, Note_on_c, 9, 40, 0
11, 1440, Note_on_c, 9, 36, 82
11, 1440, Note_on_c, 9, 46, 116
11, 1453, Note_on_c, 9, 46, 0
11, 1460, Note_on_c, 9, 36, 0
11, 1500, Note_on_c, 9, 40, 124
11, 1500, Note_on_c, 9, 46, 117
11, 1513, Note_on_c, 9, 46, 0
11, 1517, Note_on_c, 9, 40, 0
11, 1560, Note_on_c, 9, 36, 87
11, 1560, Note_on_c, 9, 46, 102
11, 1574, Note_on_c, 9, 46, 0
11, 1582, Note_on_c, 9, 36, 0
11, 1620, Note_on_c, 9, 40, 119
11, 1620, Note_on_c, 9, 46, 98
11, 1633, Note_on_c, 9, 46, 0
11, 1638, Note_on_c, 9, 40, 0
11, 1680, Note_on_c, 9, 46, 106
11, 1680, Note_on_c, 9, 36, 100
11, 1694, Note_on_c, 9, 46, 0
11, 1700, Note_on_c, 9, 36, 0
11, 1740, Note_on_c, 9, 46, 102
11, 1740, Note_on_c, 9, 40, 117
11, 1752, Note_on_c, 9, 46, 0
11, 1755, Note_on_c, 9, 40, 0
11, 1785, Note_on_c, 9, 36, 86
11, 1785, Note_on_c, 9, 46, 86
11, 1800, Note_on_c, 9, 36, 93
11, 1800, Note_on_c, 9, 46, 106
11, 1802, Note_on_c, 9, 46, 0
11, 1802, Note_on_c, 9, 36, 0
11, 1811, Note_on_c, 9, 46, 0
11, 1822, Note_on_c, 9, 36, 0
11, 1860, Note_on_c, 9, 46, 106
11, 1860, Note_on_c, 9, 40, 120
11, 1872, Note_on_c, 9, 46, 0
11, 1875, Note_on_c, 9, 40, 0
11, 1920, Note_on_c, 9, 36, 82
11, 1920, Note_on_c, 9, 46, 116
11, 1933, Note_on_c, 9, 46, 0
11, 1940, Note_on_c, 9, 36, 0
11, 1980, Note_on_c, 9, 40, 124
11, 1980, Note_on_c, 9, 46, 117
11, 1993, Note_on_c, 9, 46, 0
11, 1997, Note_on_c, 9, 40, 0
11, 2040, Note_on_c, 9, 36, 87
11, 2040, Note_on_c, 9, 46, 102
11, 2054, Note_on_c, 9, 46, 0
11, 2062, Note_on_c, 9, 36, 0
11, 2100, Note_on_c, 9, 40, 119
11, 2100, Note_on_c, 9, 46, 98
11, 2113, Note_on_c, 9, 46, 0
11, 2118, Note_on_c, 9, 40, 0
11, 2160, Note_on_c, 9, 46, 106
11, 2160, Note_on_c, 9, 36, 100
11, 2174, Note_on_c, 9, 46, 0
11, 2180, Note_on_c, 9, 36, 0
11, 2220, Note_on_c, 9, 46, 102
11, 2220, Note_on_c, 9, 40, 117
11, 2232, Note_on_c, 9, 46, 0
11, 2235, Note_on_c, 9, 40, 0
11, 2265, Note_on_c, 9, 36, 86
11, 2265, Note_on_c, 9, 46, 86
11, 2280, Note_on_c, 9, 36, 93
11, 2280, Note_on_c, 9, 46, 106
11, 2282, Note_on_c, 9, 46, 0
11, 2282, Note_on_c, 9, 36, 0
11, 2291, Note_on_c, 9, 46, 0
11, 2302, Note_on_c, 9, 36, 0
11, 2340, Note_on_c, 9, 46, 106
11, 2340, Note_on_c, 9, 40, 120
11, 2352, Note_on_c, 9, 46, 0
11, 2355, Note_on_c, 9, 40, 0
11, 2400, Note_on_c, 9, 36, 82
11, 2400, Note_on_c, 9, 46, 116
11, 2413, Note_on_c, 9, 46, 0
11, 2420, Note_on_c, 9, 36, 0
11, 2460, Note_on_c, 9, 40, 124
11, 2460, Note_on_c, 9, 46, 117
11, 2473, Note_on_c, 9, 46, 0
11, 2477, Note_on_c, 9, 40, 0
11, 2520, Note_on_c, 9, 36, 87
11, 2520, Note_on_c, 9, 46, 102
11, 2534, Note_on_c, 9, 46, 0
11, 2542, Note_on_c, 9, 36, 0
11, 2580, Note_on_c, 9, 40, 119
11, 2580, Note_on_c, 9, 46, 98
11, 2593, Note_on_c, 9, 46, 0
11, 2598, Note_on_c, 9, 40, 0
11, 2640, Note_on_c, 9, 46, 106
11, 2640, Note_on_c, 9, 36, 100
11, 2654, Note_on_c, 9, 46, 0
11, 2660, Note_on_c, 9, 36, 0
11, 2700, Note_on_c, 9, 46, 102
11, 2700, Note_on_c, 9, 40, 117
11, 2712, Note_on_c, 9, 46, 0
11, 2715, Note_on_c, 9, 40, 0
11, 2745, Note_on_c, 9, 36, 86
11, 2745, Note_on_c, 9, 46, 86
11, 2760, Note_on_c, 9, 36, 93
11, 2760, Note_on_c, 9, 46, 106
11, 2762, Note_on_c, 9, 46, 0
11, 2762, Note_on_c, 9, 36, 0
11, 2771, Note_on_c, 9, 46, 0
11, 2782, Note_on_c, 9, 36, 0
11, 2820, Note_on_c, 9, 46, 106
11, 2820, Note_on_c, 9, 40, 120
11, 2832, Note_on_c, 9, 46, 0
11, 2835, Note_on_c, 9, 40, 0
11, 2880, Note_on_c, 9, 36, 82
11, 2880, Note_on_c, 9, 46, 116
11, 2893, Note_on_c, 9, 46, 0
11, 2900, Note_on_c, 9, 36, 0
11, 2940, Note_on_c, 9, 40, 124
11, 2940, Note_on_c, 9, 46, 117
11, 2953, Note_on_c, 9, 46, 0
11, 2957, Note_on_c, 9, 40, 0
11, 3000, Note_on_c, 9, 36, 87
11, 3000, Note_on_c, 9, 46, 102
11, 3014, Note_on_c, 9, 46, 0
11, 3022, Note_on_c, 9, 36, 0
11, 3060, Note_on_c, 9, 40, 119
11, 3060, Note_on_c, 9, 46, 98
11, 3073, Note_on_c, 9, 46, 0
11, 3078, Note_on_c, 9, 40, 0
11, 3120, Note_on_c, 9, 46, 106
11, 3120, Note_on_c, 9, 36, 100
11, 3134, Note_on_c, 9, 46, 0
11, 3140, Note_on_c, 9, 36, 0
11, 3180, Note_on_c, 9, 46, 102
11, 3180, Note_on_c, 9, 40, 117
11, 3192, Note_on_c, 9, 46, 0
11, 3195, Note_on_c, 9, 40, 0
11, 3225, Note_on_c, 9, 36, 86
11, 3225, Note_on_c, 9, 46, 86
11, 3240, Note_on_c, 9, 36, 93
11, 3240, Note_on_c, 9, 46, 106
11, 3242, Note_on_c, 9, 46, 0
11, 3242, Note_on_c, 9, 36, 0
11, 3251, Note_on_c, 9, 46, 0
11, 3262, Note_on_c, 9, 36, 0
11, 3300, Note_on_c, 9, 46, 106
11, 3300, Note_on_c, 9, 40, 120
11, 3312, Note_on_c, 9, 46, 0
11, 3315, Note_on_c, 9, 40, 0
11, 3360, Note_on_c, 9, 36, 82
11, 3360, Note_on_c, 9, 46, 116
11, 3373, Note_on_c, 9, 46, 0
11, 3380, Note_on_c, 9, 36, 0
11, 3420, Note_on_c, 9, 40, 124
11, 3420, Note_on_c, 9, 46, 117
11, 3433, Note_on_c, 9, 46, 0
11, 3437, Note_on_c, 9, 40, 0
11, 3480, Note_on_c, 9, 36, 87
11, 3480, Note_on_c, 9, 46, 102
11, 3494, Note_on_c, 9, 46, 0
11, 3502, Note_on_c, 9, 36, 0
11, 3540, Note_on_c, 9, 40, 119
11, 3540, Note_on_c, 9, 46, 98
11, 3553, Note_on_c, 9, 46, 0
11, 3558, Note_on_c, 9, 40, 0
11, 3600, Note_on_c, 9, 46, 106
11, 3600, Note_on_c, 9, 36, 100
11, 3614, Note_on_c, 9, 46, 0
11, 3620, Note_on_c, 9, 36, 0
11, 3840, Note_on_c, 9, 49, 127
11, 3840, Note_on_c, 9, 36, 127
11, 3853, Note_on_c, 9, 49, 0
11, 3860, Note_on_c, 9, 36, 0
11, 3900, Note_on_c, 9, 40, 124
11, 3900, Note_on_c, 9, 46, 117
11, 3913, Note_on_c, 9, 46, 0
11, 3917, Note_on_c, 9, 40, 0
11, 3960, Note_on_c, 9, 36, 87
11, 3960, Note_on_c, 9, 46, 102
11, 3974, Note_on_c, 9, 46, 0
11, 3982, Note_on_c, 9, 36, 0
11, 4020, Note_on_c, 9, 40, 119
11, 4020, Note_on_c, 9, 46, 98
11, 4033, Note_on_c, 9, 46, 0
11, 4038, Note_on_c, 9, 40, 0
11, 4080, Note_on_c, 9, 46, 106
11, 4080, Note_on_c, 9, 36, 100
11, 4094, Note_on_c, 9, 46, 0
11, 4100, Note_on_c, 9, 36, 0
11, 4140, Note_on_c, 9, 46, 102
11, 4140, Note_on_c, 9, 40, 117
11, 4152, Note_on_c, 9, 46, 0
11, 4155, Note_on_c, 9, 40, 0
11, 4185, Note_on_c, 9, 36, 86
11, 4185, Note_on_c, 9, 46, 86
11, 4200, Note_on_c, 9, 36, 93
11, 4200, Note_on_c, 9, 46, 106
11, 4202, Note_on_c, 9, 46, 0
11, 4202, Note_on_c, 9, 36, 0
11, 4211, Note_on_c, 9, 46, 0
11, 4222, Note_on_c, 9, 36, 0
11, 4260, Note_on_c, 9, 46, 106
11, 4260, Note_on_c, 9, 40, 120
11, 4272, Note_on_c, 9, 46, 0
11, 4275, Note_on_c, 9, 40, 0
11, 4320, Note_on_c, 9, 36, 82
11, 4320, Note_on_c, 9, 46, 116
11, 4333, Note_on_c, 9, 46, 0
11, 4340, Note_on_c, 9, 36, 0
11, 4380, Note_on_c, 9, 40, 124
11, 4380, Note_on_c, 9, 46, 117
11, 4393, Note_on_c, 9, 46, 0
11, 4397, Note_on_c, 9, 40, 0
11, 4440, Note_on_c, 9, 36, 87
11, 4440, Note_on_c, 9, 46, 102
11, 4454, Note_on_c, 9, 46, 0
11, 4462, Note_on_c, 9, 36, 0
11, 4500, Note_on_c, 9, 40, 119
11, 4500, Note_on_c, 9, 46, 98
11, 4513, Note_on_c, 9, 46, 0
11, 4518, Note_on_c, 9, 40, 0
11, 4560, Note_on_c, 9, 46, 106
11, 4560, Note_on_c, 9, 36, 100
11, 4574, Note_on_c, 9, 46, 0
11, 4580, Note_on_c, 9, 36, 0
11, 4620, Note_on_c, 9, 46, 102
11, 4620, Note_on_c, 9, 40, 117
11, 4632, Note_on_c, 9, 46, 0
11, 4635, Note_on_c, 9, 40, 0
11, 4665, Note_on_c, 9, 36, 86
11, 4665, Note_on_c, 9, 46, 86
11, 4680, Note_on_c, 9, 36, 93
11, 4680, Note_on_c, 9, 46, 106
11, 4682, Note_on_c, 9, 46, 0
11, 4682, Note_on_c, 9, 36, 0
11, 4691, Note_on_c, 9, 46, 0
11, 4702, Note_on_c, 9, 36, 0
11, 4740, Note_on_c, 9, 46, 106
11, 4740, Note_on_c, 9, 40, 120
11, 4752, Note_on_c, 9, 46, 0
11, 4755, Note_on_c, 9, 40, 0
11, 4800, Note_on_c, 9, 36, 82
11, 4800, Note_on_c, 9, 46, 116
11, 4813, Note_on_c, 9, 46, 0
11, 4820, Note_on_c, 9, 36, 0
11, 4860, Note_on_c, 9, 40, 124
11, 4860, Note_on_c, 9, 46, 117
11, 4873, Note_on_c, 9, 46, 0
11, 4877, Note_on_c, 9, 40, 0
11, 4920, Note_on_c, 9, 36, 87
11, 4920, Note_on_c, 9, 46, 102
11, 4934, Note_on_c, 9, 46, 0
11, 4942, Note_on_c, 9, 36, 0
11, 4980, Note_on_c, 9, 40, 119
11, 4980, Note_on_c, 9, 46, 98
11, 4993, Note_on_c, 9, 46, 0
11, 4998, Note_on_c, 9, 40, 0
11, 5040, Note_on_c, 9, 46, 106
11, 5040, Note_on_c, 9, 36, 100
11, 5054, Note_on_c, 9, 46, 0
11, 5060, Note_on_c, 9, 36, 0
11, 5100, Note_on_c, 9, 46, 102
11, 5100, Note_on_c, 9, 40, 117
11, 5112, Note_on_c, 9, 46, 0
11, 5115, Note_on_c, 9, 40, 0
11, 5145, Note_on_c, 9, 36, 86
11, 5145, Note_on_c, 9, 46, 86
11, 5160, Note_on_c, 9, 36, 93
11, 5160, Note_on_c, 9, 46, 106
11, 5162, Note_on_c, 9, 46, 0
11, 5162, Note_on_c, 9, 36, 0
11, 5171, Note_on_c, 9, 46, 0
11, 5182, Note_on_c, 9, 36, 0
11, 5220, Note_on_c, 9, 46, 106
11, 5220, Note_on_c, 9, 40, 120
11, 5232, Note_on_c, 9, 46, 0
11, 5235, Note_on_c, 9, 40, 0
11, 5280, Note_on_c, 9, 36, 82
11, 5280, Note_on_c, 9, 46, 116
11, 5293, Note_on_c, 9, 46, 0
11, 5300, Note_on_c, 9, 36, 0
11, 5340, Note_on_c, 9, 40, 124
11, 5340, Note_on_c, 9, 46, 117
11, 5353, Note_on_c, 9, 46, 0
11, 5357, Note_on_c, 9, 40, 0
11, 5400, Note_on_c, 9, 36, 87
11, 5400, Note_on_c, 9, 46, 102
11, 5414, Note_on_c, 9, 46, 0
11, 5422, Note_on_c, 9, 36, 0
11, 5460, Note_on_c, 9, 40, 119
11, 5460, Note_on_c, 9, 46, 98
11, 5473, Note_on_c, 9, 46, 0
11, 5478, Note_on_c, 9, 40, 0
11, 5520, Note_on_c, 9, 46, 106
11, 5520, Note_on_c, 9, 36, 100
11, 5534, Note_on_c, 9, 46, 0
11, 5540, Note_on_c, 9, 36, 0
11, 5580, Note_on_c, 9, 46, 102
11, 5580, Note_on_c, 9, 40, 117
11, 5592, Note_on_c, 9, 46, 0
11, 5595, Note_on_c, 9, 40, 0
11, 5625, Note_on_c, 9, 36, 86
11, 5625, Note_on_c, 9, 46, 86
11, 5640, Note_on_c, 9, 36, 93
11, 5640, Note_on_c, 9, 46, 106
11, 5642, Note_on_c, 9, 46, 0
11, 5642, Note_on_c, 9, 36, 0
11, 5651, Note_on_c, 9, 46, 0
11, 5662, Note_on_c, 9, 36, 0
11, 5700, Note_on_c, 9, 46, 106
11, 5700, Note_on_c, 9, 40, 120
11, 5712, Note_on_c, 9, 46, 0
11, 5715, Note_on_c, 9, 40, 0
11, 5760, Note_on_c, 9, 36, 82
11, 5760, Note_on_c, 9, 46, 116
11, 5773, Note_on_c, 9, 46, 0
11, 5780, Note_on_c, 9, 36, 0
11, 5820, Note_on_c, 9, 40, 124
11, 5820, Note_on_c, 9, 46, 117
11, 5833, Note_on_c, 9, 46, 0
11, 5837, Note_on_c, 9, 40, 0
11, 5880, Note_on_c, 9, 36, 87
11, 5880, Note_on_c, 9, 46, 102
11, 5894, Note_on_c, 9, 46, 0
11, 5902, Note_on_c, 9, 36, 0
11, 5940, Note_on_c, 9, 40, 119
11, 5940, Note_on_c, 9, 46, 98
11, 5953, Note_on_c, 9, 46, 0
11, 5958, Note_on_c, 9, 40, 0
11, 6000, Note_on_c, 9, 46, 106
11, 6000, Note_on_c, 9, 36, 100
11, 6014, Note_on_c, 9, 46, 0
11, 6020, Note_on_c, 9, 36, 0
11, 6060, Note_on_c, 9, 46, 102
11, 6060, Note_on_c, 9, 40, 117
11, 6072, Note_on_c, 9, 46, 0
11, 6075, Note_on_c, 9, 40, 0
11, 6105, Note_on_c, 9, 36, 86
11, 6105, Note_on_c, 9, 46, 86
11, 6120, Note_on_c, 9, 36, 93
11, 6120, Note_on_c, 9, 46, 106
11, 6122, Note_on_c, 9, 46, 0
11, 6122, Note_on_c, 9, 36, 0
11, 6131, Note_on_c, 9, 46, 0
11, 6142, Note_on_c, 9, 36, 0
11, 6180, Note_on_c, 9, 46, 106
11, 6180, Note_on_c, 9, 40, 120
11, 6192, Note_on_c, 9, 46, 0
11, 6195, Note_on_c, 9, 40, 0
11, 6240, Note_on_c, 9, 36, 82
11, 6240, Note_on_c, 9, 46, 116
11, 6253, Note_on_c, 9, 46, 0
11, 6260, Note_on_c, 9, 36, 0
11, 6300, Note_on_c, 9, 40, 124
11, 6300, Note_on_c, 9, 46, 117
11, 6313, Note_on_c, 9, 46, 0
11, 6317, Note_on_c, 9, 40, 0
11, 6360, Note_on_c, 9, 36, 87
11, 6360, Note_on_c, 9, 46, 102
11, 6374, Note_on_c, 9, 46, 0
11, 6382, Note_on_c, 9, 36, 0
11, 6420, Note_on_c, 9, 40, 119
11, 6420, Note_on_c, 9, 46, 98
11, 6433, Note_on_c, 9, 46, 0
11, 6438, Note_on_c, 9, 40, 0
11, 6480, Note_on_c, 9, 46, 106
11, 6480, Note_on_c, 9, 36, 100
11, 6494, Note_on_c, 9, 46, 0
11, 6500, Note_on_c, 9, 36, 0
11, 6705, Note_on_c, 9, 36, 100
11, 6719, Note_on_c, 9, 36, 0
11, 6720, Note_on_c, 9, 49, 116
11, 6720, Note_on_c, 9, 36, 113
11, 6733, Note_on_c, 9, 49, 0
11, 6740, Note_on_c, 9, 36, 0
11, 6780, Note_on_c, 9, 40, 124
11, 6780, Note_on_c, 9, 46, 117
11, 6793, Note_on_c, 9, 46, 0
11, 6797, Note_on_c, 9, 40, 0
11, 6840, Note_on_c, 9, 36, 87
11, 6840, Note_on_c, 9, 46, 102
11, 6854, Note_on_c, 9, 46, 0
11, 6862, Note_on_c, 9, 36, 0
11, 6900, Note_on_c, 9, 40, 119
11, 6900, Note_on_c, 9, 46, 98
11, 6913, Note_on_c, 9, 46, 0
11, 6918, Note_on_c, 9, 40, 0
11, 6960, Note_on_c, 9, 46, 106
11, 6960, Note_on_c, 9, 36, 100
11, 6974, Note_on_c, 9, 46, 0
11, 6980, Note_on_c, 9, 36, 0
11, 7020, Note_on_c, 9, 46, 102
11, 7020, Note_on_c, 9, 40, 117
11, 7032, Note_on_c, 9, 46, 0
11, 7035, Note_on_c, 9, 40, 0
11, 7065, Note_on_c, 9, 36, 86
11, 7065, Note_on_c, 9, 46, 86
11, 7080, Note_on_c, 9, 36, 93
11, 7080, Note_on_c, 9, 46, 106
11, 7082, Note_on_c, 9, 46, 0
11, 7082, Note_on_c, 9, 36, 0
11, 7091, Note_on_c, 9, 46, 0
11, 7102, Note_on_c, 9, 36, 0
11, 7140, Note_on_c, 9, 46, 106
11, 7140, Note_on_c, 9, 40, 120
11, 7152, Note_on_c, 9, 46, 0
11, 7155, Note_on_c, 9, 40, 0
11, 7200, Note_on_c, 9, 36, 82
11, 7200, Note_on_c, 9, 46, 116
11, 7213, Note_on_c, 9, 46, 0
11, 7220, Note_on_c, 9, 36, 0
11, 7260, Note_on_c, 9, 40, 124
11, 7260, Note_on_c, 9, 46, 117
11, 7273, Note_on_c, 9, 46, 0
11, 7277, Note_on_c, 9, 40, 0
11, 7320, Note_on_c, 9, 36, 87
11, 7320, Note_on_c, 9, 46, 102
11, 7334, Note_on_c, 9, 46, 0
11, 7342, Note_on_c, 9, 36, 0
11, 7380, Note_on_c, 9, 40, 119
11, 7380, Note_on_c, 9, 46, 98
11, 7393, Note_on_c, 9, 46, 0
11, 7398, Note_on_c, 9, 40, 0
11, 7440, Note_on_c, 9, 46, 106
11, 7440, Note_on_c, 9, 36, 100
11, 7454, Note_on_c, 9, 46, 0
11, 7460, Note_on_c, 9, 36, 0
11, 7500, Note_on_c, 9, 46, 102
11, 7500, Note_on_c, 9, 40, 117
11, 7512, Note_on_c, 9, 46, 0
11, 7515, Note_on_c, 9, 40, 0
11, 7545, Note_on_c, 9, 36, 86
11, 7545, Note_on_c, 9, 46, 86
11, 7560, Note_on_c, 9, 36, 93
11, 7560, Note_on_c, 9, 46, 106
11, 7562, Note_on_c, 9, 46, 0
11, 7562, Note_on_c, 9, 36, 0
11, 7571, Note_on_c, 9, 46, 0
11, 7582, Note_on_c, 9, 36, 0
11, 7620, Note_on_c, 9, 46, 106
11, 7620, Note_on_c, 9, 40, 120
11, 7632, Note_on_c, 9, 46, 0
11, 7635, Note_on_c, 9, 40, 0
11, 7680, Note_on_c, 9, 36, 82
11, 7680, Note_on_c, 9, 46, 116
11, 7693, Note_on_c, 9, 46, 0
11, 7700, Note_on_c, 9, 36, 0
11, 7740, Note_on_c, 9, 40, 124
11, 7740, Note_on_c, 9, 46, 117
11, 7753, Note_on_c, 9, 46, 0
11, 7757, Note_on_c, 9, 40, 0
11, 7800, Note_on_c, 9, 36, 87
11, 7800, Note_on_c, 9, 46, 102
11, 7814, Note_on_c, 9, 46, 0
11, 7822, Note_on_c, 9, 36, 0
11, 7860, Note_on_c, 9, 40, 119
11, 7860, Note_on_c, 9, 46, 98
11, 7873, Note_on_c, 9, 46, 0
11, 7878, Note_on_c, 9, 40, 0
11, 7920, Note_on_c, 9, 46, 106
11, 7920, Note_on_c, 9, 36, 100
11, 7934, Note_on_c, 9, 46, 0
11, 7940, Note_on_c, 9, 36, 0
11, 7980, Note_on_c, 9, 46, 102
11, 7980, Note_on_c, 9, 40, 117
11, 7992, Note_on_c, 9, 46, 0
11, 7995, Note_on_c, 9, 40, 0
11, 8025, Note_on_c, 9, 36, 86
11, 8025, Note_on_c, 9, 46, 86
11, 8040, Note_on_c, 9, 36, 93
11, 8040, Note_on_c, 9, 46, 106
11, 8042, Note_on_c, 9, 46, 0
11, 8042, Note_on_c, 9, 36, 0
11, 8051, Note_on_c, 9, 46, 0
11, 8062, Note_on_c, 9, 36, 0
11, 8100, Note_on_c, 9, 46, 106
11, 8100, Note_on_c, 9, 40, 120
11, 8112, Note_on_c, 9, 46, 0
11, 8115, Note_on_c, 9, 40, 0
11, 8160, Note_on_c, 9, 36, 82
11, 8160, Note_on_c, 9, 46, 116
11, 8173, Note_on_c, 9, 46, 0
11, 8180, Note_on_c, 9, 36, 0
11, 8220, Note_on_c, 9, 40, 124
11, 8220, Note_on_c, 9, 46, 117
11, 8233, Note_on_c, 9, 46, 0
11, 8237, Note_on_c, 9, 40, 0
11, 8280, Note_on_c, 9, 36, 87
11, 8280, Note_on_c, 9, 46, 102
11, 8294, Note_on_c, 9, 46, 0
11, 8302, Note_on_c, 9, 36, 0
11, 8340, Note_on_c, 9, 40, 119
11, 8340, Note_on_c, 9, 46, 98
11, 8353, Note_on_c, 9, 46, 0
11, 8358, Note_on_c, 9, 40, 0
11, 8400, Note_on_c, 9, 46, 106
11, 8400, Note_on_c, 9, 36, 100
11, 8414, Note_on_c, 9, 46, 0
11, 8420, Note_on_c, 9, 36, 0
11, 8460, Note_on_c, 9, 46, 102
11, 8460, Note_on_c, 9, 40, 117
11, 8472, Note_on_c, 9, 46, 0
11, 8475, Note_on_c, 9, 40, 0
11, 8505, Note_on_c, 9, 36, 86
11, 8505, Note_on_c, 9, 46, 86
11, 8520, Note_on_c, 9, 36, 93
11, 8520, Note_on_c, 9, 46, 106
11, 8522, Note_on_c, 9, 46, 0
11, 8522, Note_on_c, 9, 36, 0
11, 8531, Note_on_c, 9, 46, 0
11, 8542, Note_on_c, 9, 36, 0
11, 8580, Note_on_c, 9, 46, 106
11, 8580, Note_on_c, 9, 40, 120
11, 8592, Note_on_c, 9, 46, 0
11, 8595, Note_on_c, 9, 40, 0
11, 8640, Note_on_c, 9, 36, 82
11, 8640, Note_on_c, 9, 46, 116
11, 8653, Note_on_c, 9, 46, 0
11, 8660, Note_on_c, 9, 36, 0
11, 8700, Note_on_c, 9, 40, 124
11, 8700, Note_on_c, 9, 46, 117
11, 8713, Note_on_c, 9, 46, 0
11, 8717, Note_on_c, 9, 40, 0
11, 8760, Note_on_c, 9, 36, 87
11, 8760, Note_on_c, 9, 46, 102
11, 8774, Note_on_c, 9, 46, 0
11, 8782, Note_on_c, 9, 36, 0
11, 8820, Note_on_c, 9, 40, 119
11, 8820, Note_on_c, 9, 46, 98
11, 8833, Note_on_c, 9, 46, 0
11, 8838, Note_on_c, 9, 40, 0
11, 8880, Note_on_c, 9, 46, 106
11, 8880, Note_on_c, 9, 36, 100
11, 8894, Note_on_c, 9, 46, 0
11, 8900, Note_on_c, 9, 36, 0
11, 8940, Note_on_c, 9, 46, 102
11, 8940, Note_on_c, 9, 40, 117
11, 8952, Note_on_c, 9, 46, 0
11, 8955, Note_on_c, 9, 40, 0
11, 8985, Note_on_c, 9, 36, 86
11, 8985, Note_on_c, 9, 46, 86
11, 9000, Note_on_c, 9, 36, 93
11, 9000, Note_on_c, 9, 46, 106
11, 9002, Note_on_c, 9, 46, 0
11, 9002, Note_on_c, 9, 36, 0
11, 9011, Note_on_c, 9, 46, 0
11, 9022, Note_on_c, 9, 36, 0
11, 9060, Note_on_c, 9, 46, 106
11, 9060, Note_on_c, 9, 40, 120
11, 9072, Note_on_c, 9, 46, 0
11, 9075, Note_on_c, 9, 40, 0
11, 9120, Note_on_c, 9, 36, 82
11, 9120, Note_on_c, 9, 46, 116
11, 9133, Note_on_c, 9, 46, 0
11, 9140, Note_on_c, 9, 36, 0
11, 9180, Note_on_c, 9, 40, 124
11, 9180, Note_on_c, 9, 46, 117
11, 9193, Note_on_c, 9, 46, 0
11, 9197, Note_on_c, 9, 40, 0
11, 9240, Note_on_c, 9, 36, 87
11, 9240, Note_on_c, 9, 46, 102
11, 9254, Note_on_c, 9, 46, 0
11, 9262, Note_on_c, 9, 36, 0
11, 9300, Note_on_c, 9, 40, 119
11, 9300, Note_on_c, 9, 46, 98
11, 9313, Note_on_c, 9, 46, 0
11, 9318, Note_on_c, 9, 40, 0
11, 9360, Note_on_c, 9, 46, 106
11, 9360, Note_on_c, 9, 36, 100
11, 9374, Note_on_c, 9, 46, 0
11, 9380, Note_on_c, 9, 36, 0
11, 9585, Note_on_c, 9, 36, 100
11, 9599, Note_on_c, 9, 36, 0
11, 9600, Note_on_c, 9, 49, 116
11, 9600, Note_on_c, 9, 36, 113
11, 9613, Note_on_c, 9, 49, 0
11, 9620, Note_on_c, 9, 36, 0
11, 9660, Note_on_c, 9, 40, 124
11, 9660, Note_on_c, 9, 46, 117
11, 9673, Note_on_c, 9, 46, 0
11, 9677, Note_on_c, 9, 40, 0
11, 9720, Note_on_c, 9, 36, 87
11, 9720, Note_on_c, 9, 46, 102
11, 9734, Note_on_c, 9, 46, 0
11, 9742, Note_on_c, 9, 36, 0
11, 9780, Note_on_c, 9, 46, 114
11, 9780, Note_on_c, 9, 40, 100
11, 9792, Note_on_c, 9, 46, 0
11, 9794, Note_on_c, 9, 40, 0
11, 9840, Note_on_c, 9, 40, 111
11, 9852, Note_on_c, 9, 40, 0
11, 9855, Note_on_c, 9, 40, 85
11, 9870, Note_on_c, 9, 40, 0
11, 9870, Note_on_c, 9, 40, 104
11, 9883, Note_on_c, 9, 40, 0
11, 9900, Note_on_c, 9, 40, 110
11, 9915, Note_on_c, 9, 40, 0
11, 9915, Note_on_c, 9, 40, 103
11, 9928, Note_on_c, 9, 40, 0
11, 9930, Note_on_c, 9, 40, 113
11, 9942, Note_on_c, 9, 40, 0
11, 9960, Note_on_c, 9, 40, 117
11, 9974, Note_on_c, 9, 40, 0
11, 9975, Note_on_c, 9, 40, 99
11, 9989, Note_on_c, 9, 40, 0
11, 9990, Note_on_c, 9, 40, 114
11, 10002, Note_on_c, 9, 40, 0
11, 10005, Note_on_c, 9, 40, 100
11, 10020, Note_on_c, 9, 40, 112
11, 10031, Note_on_c, 9, 40, 0
11, 10035, Note_on_c, 9, 40, 99
11, 10046, Note_on_c, 9, 40, 0
11, 10050, Note_on_c, 9, 40, 114
11, 10061, Note_on_c, 9, 40, 0
11, 10062, Note_on_c, 9, 40, 0
11, 10080, Note_on_c, 9, 49, 114
11, 10080, Note_on_c, 9, 36, 114
11, 10092, Note_on_c, 9, 36, 0
11, 10092, Note_on_c, 9, 49, 0
11, 10140, Note_on_c, 9, 46, 114
11, 10140, Note_on_c, 9, 40, 114
11, 10152, Note_on_c, 9, 40, 0
11, 10152, Note_on_c, 9, 46, 0
11, 10200, Note_on_c, 9, 36, 87
11, 10200, Note_on_c, 9, 46, 102
11, 10214, Note_on_c, 9, 46, 0
11, 10222, Note_on_c, 9, 36, 0
11, 10260, Note_on_c, 9, 40, 119
11, 10260, Note_on_c, 9, 46, 98
11, 10273, Note_on_c, 9, 46, 0
11, 10278, Note_on_c, 9, 40, 0
11, 10320, Note_on_c, 9, 46, 106
11, 10320, Note_on_c, 9, 36, 100
11, 10334, Note_on_c, 9, 46, 0
11, 10340, Note_on_c, 9, 36, 0
11, 10380, Note_on_c, 9, 46, 102
11, 10380, Note_on_c, 9, 40, 117
11, 10392, Note_on_c, 9, 46, 0
11, 10395, Note_on_c, 9, 40, 0
11, 10425, Note_on_c, 9, 36, 86
11, 10425, Note_on_c, 9, 46, 86
11, 10440, Note_on_c, 9, 36, 93
11, 10440, Note_on_c, 9, 46, 106
11, 10442, Note_on_c, 9, 46, 0
11, 10442, Note_on_c, 9, 36, 0
11, 10451, Note_on_c, 9, 46, 0
11, 10462, Note_on_c, 9, 36, 0
11, 10500, Note_on_c, 9, 46, 106
11, 10500, Note_on_c, 9, 40, 120
11, 10512, Note_on_c, 9, 46, 0
11, 10515, Note_on_c, 9, 40, 0
11, 10560, Note_on_c, 9, 36, 82
11, 10560, Note_on_c, 9, 46, 116
11, 10573, Note_on_c, 9, 46, 0
11, 10580, Note_on_c, 9, 36, 0
11, 10620, Note_on_c, 9, 40, 124
11, 10620, Note_on_c, 9, 46, 117
11, 10633, Note_on_c, 9, 46, 0
11, 10637, Note_on_c, 9, 40, 0
11, 10680, Note_on_c, 9, 36, 87
11, 10680, Note_on_c, 9, 46, 102
11, 10694, Note_on_c, 9, 46, 0
11, 10702, Note_on_c, 9, 36, 0
11, 10740, Note_on_c, 9, 40, 119
11, 10740, Note_on_c, 9, 46, 98
11, 10753, Note_on_c, 9, 46, 0
11, 10758, Note_on_c, 9, 40, 0
11, 10800, Note_on_c, 9, 46, 106
11, 10800, Note_on_c, 9, 36, 100
11, 10814, Note_on_c, 9, 46, 0
11, 10820, Note_on_c, 9, 36, 0
11, 10860, Note_on_c, 9, 46, 102
11, 10860, Note_on_c, 9, 40, 117
11, 10872, Note_on_c, 9, 46, 0
11, 10875, Note_on_c, 9, 40, 0
11, 10905, Note_on_c, 9, 36, 86
11, 10905, Note_on_c, 9, 46, 86
11, 10920, Note_on_c, 9, 36, 93
11, 10920, Note_on_c, 9, 46, 106
11, 10922, Note_on_c, 9, 46, 0
11, 10922, Note_on_c, 9, 36, 0
11, 10931, Note_on_c, 9, 46, 0
11, 10942, Note_on_c, 9, 36, 0
11, 10980, Note_on_c, 9, 46, 106
11, 10980, Note_on_c, 9, 40, 120
11, 10992, Note_on_c, 9, 46, 0
11, 10995, Note_on_c, 9, 40, 0
11, 11040, Note_on_c, 9, 36, 82
11, 11040, Note_on_c, 9, 46, 116
11, 11053, Note_on_c, 9, 46, 0
11, 11060, Note_on_c, 9, 36, 0
11, 11100, Note_on_c, 9, 40, 124
11, 11100, Note_on_c, 9, 46, 117
11, 11113, Note_on_c, 9, 46, 0
11, 11117, Note_on_c, 9, 40, 0
11, 11160, Note_on_c, 9, 36, 87
11, 11160, Note_on_c, 9, 46, 102
11, 11174, Note_on_c, 9, 46, 0
11, 11182, Note_on_c, 9, 36, 0
11, 11220, Note_on_c, 9, 40, 119
11, 11220, Note_on_c, 9, 46, 98
11, 11233, Note_on_c, 9, 46, 0
11, 11238, Note_on_c, 9, 40, 0
11, 11280, Note_on_c, 9, 46, 106
11, 11280, Note_on_c, 9, 36, 100
11, 11294, Note_on_c, 9, 46, 0
11, 11300, Note_on_c, 9, 36, 0
11, 11340, Note_on_c, 9, 46, 102
11, 11340, Note_on_c, 9, 40, 117
11, 11352, Note_on_c, 9, 46, 0
11, 11355, Note_on_c, 9, 40, 0
11, 11385, Note_on_c, 9, 36, 86
11, 11385, Note_on_c, 9, 46, 86
11, 11400, Note_on_c, 9, 36, 93
11, 11400, Note_on_c, 9, 46, 106
11, 11402, Note_on_c, 9, 46, 0
11, 11402, Note_on_c, 9, 36, 0
11, 11411, Note_on_c, 9, 46, 0
11, 11422, Note_on_c, 9, 36, 0
11, 11460, Note_on_c, 9, 46, 106
11, 11460, Note_on_c, 9, 40, 120
11, 11472, Note_on_c, 9, 46, 0
11, 11475, Note_on_c, 9, 40, 0
11, 11520, Note_on_c, 9, 36, 82
11, 11520, Note_on_c, 9, 46, 116
11, 11533, Note_on_c, 9, 46, 0
11, 11540, Note_on_c, 9, 36, 0
11, 11580, Note_on_c, 9, 40, 124
11, 11580, Note_on_c, 9, 46, 117
11, 11593, Note_on_c, 9, 46, 0
11, 11597, Note_on_c, 9, 40, 0
11, 11640, Note_on_c, 9, 36, 87
11, 11640, Note_on_c, 9, 46, 102
11, 11654, Note_on_c, 9, 46, 0
11, 11662, Note_on_c, 9, 36, 0
11, 11700, Note_on_c, 9, 40, 119
11, 11700, Note_on_c, 9, 46, 98
11, 11713, Note_on_c, 9, 46, 0
11, 11718, Note_on_c, 9, 40, 0
11, 11760, Note_on_c, 9, 46, 106
11, 11760, Note_on_c, 9, 36, 100
11, 11774, Note_on_c, 9, 46, 0
11, 11780, Note_on_c, 9, 36, 0
11, 11820, Note_on_c, 9, 46, 102
11, 11820, Note_on_c, 9, 40, 117
11, 11832, Note_on_c, 9, 46, 0
11, 11835, Note_on_c, 9, 40, 0
11, 11865, Note_on_c, 9, 36, 86
11, 11865, Note_on_c, 9, 46, 86
11, 11880, Note_on_c, 9, 36, 93
11, 11880, Note_on_c, 9, 46, 106
11, 11882, Note_on_c, 9, 46, 0
11, 11882, Note_on_c, 9, 36, 0
11, 11891, Note_on_c, 9, 46, 0
11, 11902, Note_on_c, 9, 36, 0
11, 11940, Note_on_c, 9, 46, 106
11, 11940, Note_on_c, 9, 40, 120
11, 11952, Note_on_c, 9, 46, 0
11, 11955, Note_on_c, 9, 40, 0
11, 12000, Note_on_c, 9, 36, 82
11, 12000, Note_on_c, 9, 46, 116
11, 12013, Note_on_c, 9, 46, 0
11, 12020, Note_on_c, 9, 36, 0
11, 12060, Note_on_c, 9, 40, 124
11, 12060, Note_on_c, 9, 46, 117
11, 12073, Note_on_c, 9, 46, 0
11, 12077, Note_on_c, 9, 40, 0
11, 12120, Note_on_c, 9, 36, 87
11, 12120, Note_on_c, 9, 46, 102
11, 12134, Note_on_c, 9, 46, 0
11, 12142, Note_on_c, 9, 36, 0
11, 12180, Note_on_c, 9, 40, 119
11, 12180, Note_on_c, 9, 46, 98
11, 12193, Note_on_c, 9, 46, 0
11, 12198, Note_on_c, 9, 40, 0
11, 12240, Note_on_c, 9, 46, 106
11, 12240, Note_on_c, 9, 36, 100
11, 12254, Note_on_c, 9, 46, 0
11, 12260, Note_on_c, 9, 36, 0
11, 12300, Note_on_c, 9, 46, 102
11, 12300, Note_on_c, 9, 40, 117
11, 12312, Note_on_c, 9, 46, 0
11, 12315, Note_on_c, 9, 40, 0
11, 12345, Note_on_c, 9, 36, 86
11, 12345, Note_on_c, 9, 46, 86
11, 12360, Note_on_c, 9, 36, 93
11, 12360, Note_on_c, 9, 46, 106
11, 12362, Note_on_c, 9, 46, 0
11, 12362, Note_on_c, 9, 36, 0
11, 12371, Note_on_c, 9, 46, 0
11, 12382, Note_on_c, 9, 36, 0
11, 12420, Note_on_c, 9, 46, 106
11, 12420, Note_on_c, 9, 40, 120
11, 12432, Note_on_c, 9, 46, 0
11, 12435, Note_on_c, 9, 40, 0
11, 12480, Note_on_c, 9, 49, 116
11, 12480, Note_on_c, 9, 36, 113
11, 12493, Note_on_c, 9, 49, 0
11, 12500, Note_on_c, 9, 36, 0
11, 12540, Note_on_c, 9, 40, 124
11, 12540, Note_on_c, 9, 46, 117
11, 12553, Note_on_c, 9, 46, 0
11, 12557, Note_on_c, 9, 40, 0
11, 12600, Note_on_c, 9, 36, 87
11, 12600, Note_on_c, 9, 46, 102
11, 12614, Note_on_c, 9, 46, 0
11, 12622, Note_on_c, 9, 36, 0
11, 12660, Note_on_c, 9, 40, 119
11, 12660, Note_on_c, 9, 46, 98
11, 12673, Note_on_c, 9, 46, 0
11, 12678, Note_on_c, 9, 40, 0
11, 12720, Note_on_c, 9, 46, 106
11, 12720, Note_on_c, 9, 36, 100
11, 12734, Note_on_c, 9, 46, 0
11, 12740, Note_on_c, 9, 36, 0
11, 12780, Note_on_c, 9, 46, 102
11, 12780, Note_on_c, 9, 40, 117
11, 12792, Note_on_c, 9, 46, 0
11, 12795, Note_on_c, 9, 40, 0
11, 12825, Note_on_c, 9, 36, 86
11, 12825, Note_on_c, 9, 46, 86
11, 12840, Note_on_c, 9, 36, 93
11, 12840, Note_on_c, 9, 46, 106
11, 12842, Note_on_c, 9, 46, 0
11, 12842, Note_on_c, 9, 36, 0
11, 12851, Note_on_c, 9, 46, 0
11, 12862, Note_on_c, 9, 36, 0
11, 12900, Note_on_c, 9, 46, 106
11, 12900, Note_on_c, 9, 40, 120
11, 12912, Note_on_c, 9, 46, 0
11, 12915, Note_on_c, 9, 40, 0
11, 12960, Note_on_c, 9, 36, 82
11, 12960, Note_on_c, 9, 46, 116
11, 12973, Note_on_c, 9, 46, 0
11, 12980, Note_on_c, 9, 36, 0
11, 13020, Note_on_c, 9, 40, 124
11, 13020, Note_on_c, 9, 46, 117
11, 13033, Note_on_c, 9, 46, 0
11, 13037, Note_on_c, 9, 40, 0
11, 13080, Note_on_c, 9, 36, 87
11, 13080, Note_on_c, 9, 46, 102
11, 13094, Note_on_c, 9, 46, 0
11, 13102, Note_on_c, 9, 36, 0
11, 13140, Note_on_c, 9, 40, 119
11, 13140, Note_on_c, 9, 46, 98
11, 13153, Note_on_c, 9, 46, 0
11, 13158, Note_on_c, 9, 40, 0
11, 13200, Note_on_c, 9, 46, 106
11, 13200, Note_on_c, 9, 36, 100
11, 13214, Note_on_c, 9, 46, 0
11, 13220, Note_on_c, 9, 36, 0
11, 13260, Note_on_c, 9, 46, 102
11, 13260, Note_on_c, 9, 40, 117
11, 13272, Note_on_c, 9, 46, 0
11, 13275, Note_on_c, 9, 40, 0
11, 13305, Note_on_c, 9, 36, 86
11, 13305, Note_on_c, 9, 46, 86
11, 13320, Note_on_c, 9, 36, 93
11, 13320, Note_on_c, 9, 46, 106
11, 13322, Note_on_c, 9, 46, 0
11, 13322, Note_on_c, 9, 36, 0
11, 13331, Note_on_c, 9, 46, 0
11, 13342, Note_on_c, 9, 36, 0
11, 13380, Note_on_c, 9, 46, 106
11, 13380, Note_on_c, 9, 40, 120
11, 13392, Note_on_c, 9, 46, 0
11, 13395, Note_on_c, 9, 40, 0
11, 13440, Note_on_c, 9, 36, 82
11, 13440, Note_on_c, 9, 46, 116
11, 13453, Note_on_c, 9, 46, 0
11, 13460, Note_on_c, 9, 36, 0
11, 13500, Note_on_c, 9, 40, 124
11, 13500, Note_on_c, 9, 46, 117
11, 13513, Note_on_c, 9, 46, 0
11, 13517, Note_on_c, 9, 40, 0
11, 13560, Note_on_c, 9, 36, 87
11, 13560, Note_on_c, 9, 46, 102
11, 13574, Note_on_c, 9, 46, 0
11, 13582, Note_on_c, 9, 36, 0
11, 13620, Note_on_c, 9, 40, 119
11, 13620, Note_on_c, 9, 46, 98
11, 13633, Note_on_c, 9, 46, 0
11, 13638, Note_on_c, 9, 40, 0
11, 13680, Note_on_c, 9, 46, 106
11, 13680, Note_on_c, 9, 36, 100
11, 13694, Note_on_c, 9, 46, 0
11, 13700, Note_on_c, 9, 36, 0
11, 13740, Note_on_c, 9, 46, 102
11, 13740, Note_on_c, 9, 40, 117
11, 13752, Note_on_c, 9, 46, 0
11, 13755, Note_on_c, 9, 40, 0
11, 13785, Note_on_c, 9, 36, 86
11, 13785, Note_on_c, 9, 46, 86
11, 13800, Note_on_c, 9, 36, 93
11, 13800, Note_on_c, 9, 46, 106
11, 13802, Note_on_c, 9, 46, 0
11, 13802, Note_on_c, 9, 36, 0
11, 13811, Note_on_c, 9, 46, 0
11, 13822, Note_on_c, 9, 36, 0
11, 13860, Note_on_c, 9, 46, 106
11, 13860, Note_on_c, 9, 40, 120
11, 13872, Note_on_c, 9, 46, 0
11, 13875, Note_on_c, 9, 40, 0
11, 13920, Note_on_c, 9, 36, 82
11, 13920, Note_on_c, 9, 46, 116
11, 13933, Note_on_c, 9, 46, 0
11, 13940, Note_on_c, 9, 36, 0
11, 13980, Note_on_c, 9, 40, 124
11, 13980, Note_on_c, 9, 46, 117
11, 13993, Note_on_c, 9, 46, 0
11, 13997, Note_on_c, 9, 40, 0
11, 14040, Note_on_c, 9, 36, 87
11, 14040, Note_on_c, 9, 46, 102
11, 14054, Note_on_c, 9, 46, 0
11, 14062, Note_on_c, 9, 36, 0
11, 14100, Note_on_c, 9, 40, 119
11, 14100, Note_on_c, 9, 46, 98
11, 14113, Note_on_c, 9, 46, 0
11, 14118, Note_on_c, 9, 40, 0
11, 14160, Note_on_c, 9, 46, 106
11, 14160, Note_on_c, 9, 36, 100
11, 14174, Note_on_c, 9, 46, 0
11, 14180, Note_on_c, 9, 36, 0
11, 14220, Note_on_c, 9, 46, 102
11, 14220, Note_on_c, 9, 40, 117
11, 14232, Note_on_c, 9, 46, 0
11, 14235, Note_on_c, 9, 40, 0
11, 14265, Note_on_c, 9, 36, 86
11, 14265, Note_on_c, 9, 46, 86
11, 14280, Note_on_c, 9, 36, 93
11, 14280, Note_on_c, 9, 46, 106
11, 14282, Note_on_c, 9, 46, 0
11, 14282, Note_on_c, 9, 36, 0
11, 14291, Note_on_c, 9, 46, 0
11, 14302, Note_on_c, 9, 36, 0
11, 14340, Note_on_c, 9, 46, 106
11, 14340, Note_on_c, 9, 40, 120
11, 14352, Note_on_c, 9, 46, 0
11, 14355, Note_on_c, 9, 40, 0
11, 14400, Note_on_c, 9, 36, 82
11, 14400, Note_on_c, 9, 46, 116
11, 14413, Note_on_c, 9, 46, 0
11, 14420, Note_on_c, 9, 36, 0
11, 14460, Note_on_c, 9, 40, 124
11, 14460, Note_on_c, 9, 46, 117
11, 14473, Note_on_c, 9, 46, 0
11, 14477, Note_on_c, 9, 40, 0
11, 14520, Note_on_c, 9, 36, 87
11, 14520, Note_on_c, 9, 46, 102
11, 14534, Note_on_c, 9, 46, 0
11, 14542, Note_on_c, 9, 36, 0
11, 14580, Note_on_c, 9, 40, 119
11, 14580, Note_on_c, 9, 46, 98
11, 14593, Note_on_c, 9, 46, 0
11, 14598, Note_on_c, 9, 40, 0
11, 14640, Note_on_c, 9, 46, 106
11, 14640, Note_on_c, 9, 36, 100
11, 14654, Note_on_c, 9, 46, 0
11, 14660, Note_on_c, 9, 36, 0
11, 14700, Note_on_c, 9, 46, 102
11, 14700, Note_on_c, 9, 40, 117
11, 14712, Note_on_c, 9, 46, 0
11, 14715, Note_on_c, 9, 40, 0
11, 14745, Note_on_c, 9, 36, 86
11, 14745, Note_on_c, 9, 46, 86
11, 14760, Note_on_c, 9, 36, 93
11, 14760, Note_on_c, 9, 46, 106
11, 14762, Note_on_c, 9, 46, 0
11, 14762, Note_on_c, 9, 36, 0
11, 14771, Note_on_c, 9, 46, 0
11, 14782, Note_on_c, 9, 36, 0
11, 14820, Note_on_c, 9, 46, 106
11, 14820, Note_on_c, 9, 40, 120
11, 14832, Note_on_c, 9, 46, 0
11, 14835, Note_on_c, 9, 40, 0
11, 14880, Note_on_c, 9, 36, 82
11, 14880, Note_on_c, 9, 46, 116
11, 14893, Note_on_c, 9, 46, 0
11, 14900, Note_on_c, 9, 36, 0
11, 14940, Note_on_c, 9, 40, 124
11, 14940, Note_on_c, 9, 46, 117
11, 14953, Note_on_c, 9, 46, 0
11, 14957, Note_on_c, 9, 40, 0
11, 15000, Note_on_c, 9, 36, 87
11, 15000, Note_on_c, 9, 46, 102
11, 15014, Note_on_c, 9, 46, 0
11, 15022, Note_on_c, 9, 36, 0
11, 15060, Note_on_c, 9, 40, 119
11, 15060, Note_on_c, 9, 46, 98
11, 15073, Note_on_c, 9, 46, 0
11, 15078, Note_on_c, 9, 40, 0
11, 15120, Note_on_c, 9, 46, 106
11, 15120, Note_on_c, 9, 36, 100
11, 15134, Note_on_c, 9, 46, 0
11, 15140, Note_on_c, 9, 36, 0
11, 15345, Note_on_c, 9, 36, 100
11, 15359, Note_on_c, 9, 36, 0
11, 15360, Note_on_c, 9, 49, 116
11, 15360, Note_on_c, 9, 36, 113
11, 15373, Note_on_c, 9, 49, 0
11, 15380, Note_on_c, 9, 36, 0
11, 15420, Note_on_c, 9, 40, 124
11, 15420, Note_on_c, 9, 46, 117
11, 15433, Note_on_c, 9, 46, 0
11, 15437, Note_on_c, 9, 40, 0
11, 15480, Note_on_c, 9, 36, 87
11, 15480, Note_on_c, 9, 46, 102
11, 15494, Note_on_c, 9, 46, 0
11, 15502, Note_on_c, 9, 36, 0
11, 15540, Note_on_c, 9, 40, 119
11, 15540, Note_on_c, 9, 46, 98
11, 15553, Note_on_c, 9, 46, 0
11, 15558, Note_on_c, 9, 40, 0
11, 15600, Note_on_c, 9, 46, 106
11, 15600, Note_on_c, 9, 36, 100
11, 15614, Note_on_c, 9, 46, 0
11, 15620, Note_on_c, 9, 36, 0
11, 15660, Note_on_c, 9, 46, 102
11, 15660, Note_on_c, 9, 40, 117
11, 15672, Note_on_c, 9, 46, 0
11, 15675, Note_on_c, 9, 40, 0
11, 15705, Note_on_c, 9, 36, 86
11, 15705, Note_on_c, 9, 46, 86
11, 15720, Note_on_c, 9, 36, 93
11, 15720, Note_on_c, 9, 46, 106
11, 15722, Note_on_c, 9, 46, 0
11, 15722, Note_on_c, 9, 36, 0
11, 15731, Note_on_c, 9, 46, 0
11, 15742, Note_on_c, 9, 36, 0
11, 15780, Note_on_c, 9, 46, 106
11, 15780, Note_on_c, 9, 40, 120
11, 15792, Note_on_c, 9, 46, 0
11, 15795, Note_on_c, 9, 40, 0
11, 15840, Note_on_c, 9, 36, 82
11, 15840, Note_on_c, 9, 46, 116
11, 15853, Note_on_c, 9, 46, 0
11, 15860, Note_on_c, 9, 36, 0
11, 15900, Note_on_c, 9, 40, 124
11, 15900, Note_on_c, 9, 46, 117
11, 15913, Note_on_c, 9, 46, 0
11, 15917, Note_on_c, 9, 40, 0
11, 15960, Note_on_c, 9, 36, 87
11, 15960, Note_on_c, 9, 46, 102
11, 15974, Note_on_c, 9, 46, 0
11, 15982, Note_on_c, 9, 36, 0
11, 16020, Note_on_c, 9, 40, 119
11, 16020, Note_on_c, 9, 46, 98
11, 16033, Note_on_c, 9, 46, 0
11, 16038, Note_on_c, 9, 40, 0
11, 16080, Note_on_c, 9, 46, 106
11, 16080, Note_on_c, 9, 36, 100
11, 16094, Note_on_c, 9, 46, 0
11, 16100, Note_on_c, 9, 36, 0
11, 16140, Note_on_c, 9, 46, 102
11, 16140, Note_on_c, 9, 40, 117
11, 16152, Note_on_c, 9, 46, 0
11, 16155, Note_on_c, 9, 40, 0
11, 16185, Note_on_c, 9, 36, 86
11, 16185, Note_on_c, 9, 46, 86
11, 16200, Note_on_c, 9, 36, 93
11, 16200, Note_on_c, 9, 46, 106
11, 16202, Note_on_c, 9, 46, 0
11, 16202, Note_on_c, 9, 36, 0
11, 16211, Note_on_c, 9, 46, 0
11, 16222, Note_on_c, 9, 36, 0
11, 16260, Note_on_c, 9, 46, 106
11, 16260, Note_on_c, 9, 40, 120
11, 16272, Note_on_c, 9, 46, 0
11, 16275, Note_on_c, 9, 40, 0
11, 16320, Note_on_c, 9, 36, 82
11, 16320, Note_on_c, 9, 46, 116
11, 16333, Note_on_c, 9, 46, 0
11, 16340, Note_on_c, 9, 36, 0
11, 16380, Note_on_c, 9, 40, 124
11, 16380, Note_on_c, 9, 46, 117
11, 16393, Note_on_c, 9, 46, 0
11, 16397, Note_on_c, 9, 40, 0
11, 16440, Note_on_c, 9, 36, 87
11, 16440, Note_on_c, 9, 46, 102
11, 16454, Note_on_c, 9, 46, 0
11, 16462, Note_on_c, 9, 36, 0
11, 16500, Note_on_c, 9, 40, 119
11, 16500, Note_on_c, 9, 46, 98
11, 16513, Note_on_c, 9, 46, 0
11, 16518, Note_on_c, 9, 40, 0
11, 16560, Note_on_c, 9, 46, 106
11, 16560, Note_on_c, 9, 36, 100
11, 16574, Note_on_c, 9, 46, 0
11, 16580, Note_on_c, 9, 36, 0
11, 16620, Note_on_c, 9, 46, 102
11, 16620, Note_on_c, 9, 40, 117
11, 16632, Note_on_c, 9, 46, 0
11, 16635, Note_on_c, 9, 40, 0
11, 16665, Note_on_c, 9, 36, 86
11, 16665, Note_on_c, 9, 46, 86
11, 16680, Note_on_c, 9, 36, 93
11, 16680, Note_on_c, 9, 46, 106
11, 16682, Note_on_c, 9, 46, 0
11, 16682, Note_on_c, 9, 36, 0
11, 16691, Note_on_c, 9, 46, 0
11, 16702, Note_on_c, 9, 36, 0
11, 16740, Note_on_c, 9, 46, 106
11, 16740, Note_on_c, 9, 40, 120
11, 16752, Note_on_c, 9, 46, 0
11, 16755, Note_on_c, 9, 40, 0
11, 16800, Note_on_c, 9, 36, 82
11, 16800, Note_on_c, 9, 46, 116
11, 16813, Note_on_c, 9, 46, 0
11, 16820, Note_on_c, 9, 36, 0
11, 16860, Note_on_c, 9, 40, 124
11, 16860, Note_on_c, 9, 46, 117
11, 16873, Note_on_c, 9, 46, 0
11, 16877, Note_on_c, 9, 40, 0
11, 16920, Note_on_c, 9, 36, 87
11, 16920, Note_on_c, 9, 46, 102
11, 16934, Note_on_c, 9, 46, 0
11, 16942, Note_on_c, 9, 36, 0
11, 16980, Note_on_c, 9, 40, 119
11, 16980, Note_on_c, 9, 46, 98
11, 16993, Note_on_c, 9, 46, 0
11, 16998, Note_on_c, 9, 40, 0
11, 17040, Note_on_c, 9, 46, 106
11, 17040, Note_on_c, 9, 36, 100
11, 17054, Note_on_c, 9, 46, 0
11, 17060, Note_on_c, 9, 36, 0
11, 17100, Note_on_c, 9, 46, 102
11, 17100, Note_on_c, 9, 40, 117
11, 17112, Note_on_c, 9, 46, 0
11, 17115, Note_on_c, 9, 40, 0
11, 17145, Note_on_c, 9, 36, 86
11, 17145, Note_on_c, 9, 46, 86
11, 17160, Note_on_c, 9, 36, 93
11, 17160, Note_on_c, 9, 46, 106
11, 17162, Note_on_c, 9, 46, 0
11, 17162, Note_on_c, 9, 36, 0
11, 17171, Note_on_c, 9, 46, 0
11, 17182, Note_on_c, 9, 36, 0
11, 17220, Note_on_c, 9, 46, 106
11, 17220, Note_on_c, 9, 40, 120
11, 17232, Note_on_c, 9, 46, 0
11, 17235, Note_on_c, 9, 40, 0
11, 17280, Note_on_c, 9, 36, 82
11, 17280, Note_on_c, 9, 46, 116
11, 17293, Note_on_c, 9, 46, 0
11, 17300, Note_on_c, 9, 36, 0
11, 17340, Note_on_c, 9, 40, 124
11, 17340, Note_on_c, 9, 46, 117
11, 17353, Note_on_c, 9, 46, 0
11, 17357, Note_on_c, 9, 40, 0
11, 17400, Note_on_c, 9, 36, 87
11, 17400, Note_on_c, 9, 46, 102
11, 17414, Note_on_c, 9, 46, 0
11, 17422, Note_on_c, 9, 36, 0
11, 17460, Note_on_c, 9, 40, 119
11, 17460, Note_on_c, 9, 46, 98
11, 17473, Note_on_c, 9, 46, 0
11, 17478, Note_on_c, 9, 40, 0
11, 17520, Note_on_c, 9, 46, 106
11, 17520, Note_on_c, 9, 36, 100
11, 17534, Note_on_c, 9, 46, 0
11, 17540, Note_on_c, 9, 36, 0
11, 17580, Note_on_c, 9, 46, 102
11, 17580, Note_on_c, 9, 40, 117
11, 17592, Note_on_c, 9, 46, 0
11, 17595, Note_on_c, 9, 40, 0
11, 17625, Note_on_c, 9, 36, 86
11, 17625, Note_on_c, 9, 46, 86
11, 17640, Note_on_c, 9, 36, 93
11, 17640, Note_on_c, 9, 46, 106
11, 17642, Note_on_c, 9, 46, 0
11, 17642, Note_on_c, 9, 36, 0
11, 17651, Note_on_c, 9, 46, 0
11, 17662, Note_on_c, 9, 36, 0
11, 17700, Note_on_c, 9, 46, 106
11, 17700, Note_on_c, 9, 40, 120
11, 17712, Note_on_c, 9, 46, 0
11, 17715, Note_on_c, 9, 40, 0
11, 17760, Note_on_c, 9, 36, 82
11, 17760, Note_on_c, 9, 46, 116
11, 17773, Note_on_c, 9, 46, 0
11, 17780, Note_on_c, 9, 36, 0
11, 17820, Note_on_c, 9, 40, 124
11, 17820, Note_on_c, 9, 46, 117
11, 17833, Note_on_c, 9, 46, 0
11, 17837, Note_on_c, 9, 40, 0
11, 17880, Note_on_c, 9, 36, 87
11, 17880, Note_on_c, 9, 46, 102
11, 17894, Note_on_c, 9, 46, 0
11, 17902, Note_on_c, 9, 36, 0
11, 17940, Note_on_c, 9, 40, 119
11, 17940, Note_on_c, 9, 46, 98
11, 17953, Note_on_c, 9, 46, 0
11, 17958, Note_on_c, 9, 40, 0
11, 18000, Note_on_c, 9, 46, 106
11, 18000, Note_on_c, 9, 36, 100
11, 18014, Note_on_c, 9, 46, 0
11, 18020, Note_on_c, 9, 36, 0
11, 18225, Note_on_c, 9, 36, 100
11, 18239, Note_on_c, 9, 36, 0
11, 18240, Note_on_c, 9, 49, 116
11, 18240, Note_on_c, 9, 36, 113
11, 18253, Note_on_c, 9, 49, 0
11, 18260, Note_on_c, 9, 36, 0
11, 18300, Note_on_c, 9, 40, 124
11, 18300, Note_on_c, 9, 46, 117
11, 18313, Note_on_c, 9, 46, 0
11, 18317, Note_on_c, 9, 40, 0
11, 18360, Note_on_c, 9, 36, 87
11, 18360, Note_on_c, 9, 46, 102
11, 18374, Note_on_c, 9, 46, 0
11, 18382, Note_on_c, 9, 36, 0
11, 18420, Note_on_c, 9, 40, 119
11, 18420, Note_on_c, 9, 46, 98
11, 18433, Note_on_c, 9, 46, 0
11, 18438, Note_on_c, 9, 40, 0
11, 18480, Note_on_c, 9, 46, 106
11, 18480, Note_on_c, 9, 36, 100
11, 18494, Note_on_c, 9, 46, 0
11, 18500, Note_on_c, 9, 36, 0
11, 18540, Note_on_c, 9, 46, 102
11, 18540, Note_on_c, 9, 40, 117
11, 18552, Note_on_c, 9, 46, 0
11, 18555, Note_on_c, 9, 40, 0
11, 18585, Note_on_c, 9, 36, 86
11, 18585, Note_on_c, 9, 46, 86
11, 18600, Note_on_c, 9, 36, 93
11, 18600, Note_on_c, 9, 46, 106
11, 18602, Note_on_c, 9, 46, 0
11, 18602, Note_on_c, 9, 36, 0
11, 18611, Note_on_c, 9, 46, 0
11, 18622, Note_on_c, 9, 36, 0
11, 18660, Note_on_c, 9, 46, 106
11, 18660, Note_on_c, 9, 40, 120
11, 18672, Note_on_c, 9, 46, 0
11, 18675, Note_on_c, 9, 40, 0
11, 18720, Note_on_c, 9, 36, 82
11, 18720, Note_on_c, 9, 46, 116
11, 18733, Note_on_c, 9, 46, 0
11, 18740, Note_on_c, 9, 36, 0
11, 18780, Note_on_c, 9, 40, 124
11, 18780, Note_on_c, 9, 46, 117
11, 18793, Note_on_c, 9, 46, 0
11, 18797, Note_on_c, 9, 40, 0
11, 18840, Note_on_c, 9, 36, 87
11, 18840, Note_on_c, 9, 46, 102
11, 18854, Note_on_c, 9, 46, 0
11, 18862, Note_on_c, 9, 36, 0
11, 18900, Note_on_c, 9, 40, 119
11, 18900, Note_on_c, 9, 46, 98
11, 18913, Note_on_c, 9, 46, 0
11, 18918, Note_on_c, 9, 40, 0
11, 18960, Note_on_c, 9, 46, 106
11, 18960, Note_on_c, 9, 36, 100
11, 18974, Note_on_c, 9, 46, 0
11, 18980, Note_on_c, 9, 36, 0
11, 19020, Note_on_c, 9, 46, 102
11, 19020, Note_on_c, 9, 40, 117
11, 19032, Note_on_c, 9, 46, 0
11, 19035, Note_on_c, 9, 40, 0
11, 19065, Note_on_c, 9, 36, 86
11, 19065, Note_on_c, 9, 46, 86
11, 19080, Note_on_c, 9, 36, 93
11, 19080, Note_on_c, 9, 46, 106
11, 19082, Note_on_c, 9, 46, 0
11, 19082, Note_on_c, 9, 36, 0
11, 19091, Note_on_c, 9, 46, 0
11, 19102, Note_on_c, 9, 36, 0
11, 19140, Note_on_c, 9, 46, 106
11, 19140, Note_on_c, 9, 40, 120
11, 19152, Note_on_c, 9, 46, 0
11, 19155, Note_on_c, 9, 40, 0
11, 19200, Note_on_c, 9, 36, 82
11, 19200, Note_on_c, 9, 46, 116
11, 19213, Note_on_c, 9, 46, 0
11, 19220, Note_on_c, 9, 36, 0
11, 19260, Note_on_c, 9, 40, 124
11, 19260, Note_on_c, 9, 46, 117
11, 19273, Note_on_c, 9, 46, 0
11, 19277, Note_on_c, 9, 40, 0
11, 19320, Note_on_c, 9, 36, 87
11, 19320, Note_on_c, 9, 46, 102
11, 19334, Note_on_c, 9, 46, 0
11, 19342, Note_on_c, 9, 36, 0
11, 19380, Note_on_c, 9, 40, 119
11, 19380, Note_on_c, 9, 46, 98
11, 19393, Note_on_c, 9, 46, 0
11, 19398, Note_on_c, 9, 40, 0
11, 19440, Note_on_c, 9, 46, 106
11, 19440, Note_on_c, 9, 36, 100
11, 19454, Note_on_c, 9, 46, 0
11, 19460, Note_on_c, 9, 36, 0
11, 19500, Note_on_c, 9, 46, 102
11, 19500, Note_on_c, 9, 40, 117
11, 19512, Note_on_c, 9, 46, 0
11, 19515, Note_on_c, 9, 40, 0
11, 19545, Note_on_c, 9, 36, 86
11, 19545, Note_on_c, 9, 46, 86
11, 19560, Note_on_c, 9, 36, 93
11, 19560, Note_on_c, 9, 46, 106
11, 19562, Note_on_c, 9, 46, 0
11, 19562, Note_on_c, 9, 36, 0
11, 19571, Note_on_c, 9, 46, 0
11, 19582, Note_on_c, 9, 36, 0
11, 19620, Note_on_c, 9, 46, 106
11, 19620, Note_on_c, 9, 40, 120
11, 19632, Note_on_c, 9, 46, 0
11, 19635, Note_on_c, 9, 40, 0
11, 19680, Note_on_c, 9, 36, 82
11, 19680, Note_on_c, 9, 46, 116
11, 19693, Note_on_c, 9, 46, 0
11, 19700, Note_on_c, 9, 36, 0
11, 19740, Note_on_c, 9, 40, 124
11, 19740, Note_on_c, 9, 46, 117
11, 19753, Note_on_c, 9, 46, 0
11, 19757, Note_on_c, 9, 40, 0
11, 19800, Note_on_c, 9, 36, 87
11, 19800, Note_on_c, 9, 46, 102
11, 19814, Note_on_c, 9, 46, 0
11, 19822, Note_on_c, 9, 36, 0
11, 19860, Note_on_c, 9, 40, 119
11, 19860, Note_on_c, 9, 46, 98
11, 19873, Note_on_c, 9, 46, 0
11, 19878, Note_on_c, 9, 40, 0
11, 19920, Note_on_c, 9, 46, 106
11, 19920, Note_on_c, 9, 36, 100
11, 19934, Note_on_c, 9, 46, 0
11, 19940, Note_on_c, 9, 36, 0
11, 19980, Note_on_c, 9, 46, 102
11, 19980, Note_on_c, 9, 40, 117
11, 19992, Note_on_c, 9, 46, 0
11, 19995, Note_on_c, 9, 40, 0
11, 20025, Note_on_c, 9, 36, 86
11, 20025, Note_on_c, 9, 46, 86
11, 20040, Note_on_c, 9, 36, 93
11, 20040, Note_on_c, 9, 46, 106
11, 20042, Note_on_c, 9, 46, 0
11, 20042, Note_on_c, 9, 36, 0
11, 20051, Note_on_c, 9, 46, 0
11, 20062, Note_on_c, 9, 36, 0
11, 20100, Note_on_c, 9, 46, 106
11, 20100, Note_on_c, 9, 40, 120
11, 20112, Note_on_c, 9, 46, 0
11, 20115, Note_on_c, 9, 40, 0
11, 20160, Note_on_c, 9, 36, 82
11, 20160, Note_on_c, 9, 46, 116
11, 20173, Note_on_c, 9, 46, 0
11, 20180, Note_on_c, 9, 36, 0
11, 20220, Note_on_c, 9, 40, 124
11, 20220, Note_on_c, 9, 46, 117
11, 20233, Note_on_c, 9, 46, 0
11, 20237, Note_on_c, 9, 40, 0
11, 20280, Note_on_c, 9, 36, 87
11, 20280, Note_on_c, 9, 46, 102
11, 20294, Note_on_c, 9, 46, 0
11, 20302, Note_on_c, 9, 36, 0
11, 20340, Note_on_c, 9, 40, 119
11, 20340, Note_on_c, 9, 46, 98
11, 20353, Note_on_c, 9, 46, 0
11, 20358, Note_on_c, 9, 40, 0
11, 20400, Note_on_c, 9, 46, 106
11, 20400, Note_on_c, 9, 36, 100
11, 20414, Note_on_c, 9, 46, 0
11, 20420, Note_on_c, 9, 36, 0
11, 20460, Note_on_c, 9, 46, 102
11, 20460, Note_on_c, 9, 40, 117
11, 20472, Note_on_c, 9, 46, 0
11, 20475, Note_on_c, 9, 40, 0
11, 20505, Note_on_c, 9, 36, 86
11, 20505, Note_on_c, 9, 46, 86
11, 20520, Note_on_c, 9, 36, 93
11, 20520, Note_on_c, 9, 46, 106
11, 20522, Note_on_c, 9, 46, 0
11, 20522, Note_on_c, 9, 36, 0
11, 20531, Note_on_c, 9, 46, 0
11, 20542, Note_on_c, 9, 36, 0
11, 20580, Note_on_c, 9, 46, 106
11, 20580, Note_on_c, 9, 40, 120
11, 20592, Note_on_c, 9, 46, 0
11, 20595, Note_on_c, 9, 40, 0
11, 20640, Note_on_c, 9, 36, 82
11, 20640, Note_on_c, 9, 46, 116
11, 20653, Note_on_c, 9, 46, 0
11, 20660, Note_on_c, 9, 36, 0
11, 20700, Note_on_c, 9, 40, 124
11, 20700, Note_on_c, 9, 46, 117
11, 20713, Note_on_c, 9, 46, 0
11, 20717, Note_on_c, 9, 40, 0
11, 20760, Note_on_c, 9, 36, 87
11, 20760, Note_on_c, 9, 46, 102
11, 20774, Note_on_c, 9, 46, 0
11, 20782, Note_on_c, 9, 36, 0
11, 20820, Note_on_c, 9, 40, 119
11, 20820, Note_on_c, 9, 46, 98
11, 20833, Note_on_c, 9, 46, 0
11, 20838, Note_on_c, 9, 40, 0
11, 20880, Note_on_c, 9, 46, 106
11, 20880, Note_on_c, 9, 36, 100
11, 20894, Note_on_c, 9, 46, 0
11, 20900, Note_on_c, 9, 36, 0
11, 21105, Note_on_c, 9, 40, 124
11, 21119, Note_on_c, 9, 40, 0
11, 21120, Note_on_c, 9, 40, 124
11, 21134, Note_on_c, 9, 40, 0
11, 21180, Note_on_c, 9, 49, 127
11, 21180, Note_on_c, 9, 36, 100
11, 21211, Note_on_c, 9, 36, 0
11, 21240, Note_on_c, 9, 43, 127
11, 21240, Note_on_c, 9, 40, 127
11, 21255, Note_on_c, 9, 43, 0
11, 21270, Note_on_c, 9, 49, 127
11, 21270, Note_on_c, 9, 36, 118
11, 21291, Note_on_c, 9, 36, 0
11, 21330, Note_on_c, 9, 43, 127
11, 21330, Note_on_c, 9, 40, 111
11, 21340, Note_on_c, 9, 49, 0
11, 21345, Note_on_c, 9, 43, 0
11, 21345, Note_on_c, 9, 40, 0
11, 21360, Note_on_c, 9, 43, 127
11, 21360, Note_on_c, 9, 40, 127
11, 21375, Note_on_c, 9, 43, 0
11, 21400, Note_on_c, 9, 40, 0
11, 21420, Note_on_c, 9, 40, 127
11, 21420, Note_on_c, 9, 43, 127
11, 21430, Note_on_c, 9, 49, 0
11, 21435, Note_on_c, 9, 43, 0
11, 21435, Note_on_c, 9, 40, 0
11, 21450, Note_on_c, 9, 36, 127
11, 21450, Note_on_c, 9, 49, 127
11, 21520, Note_on_c, 9, 40, 0
11, 21610, Note_on_c, 9, 49, 0
11, 21610, Note_on_c, 9, 36, 0
11, 21870, Note_on_c, 9, 45, 100
11, 21884, Note_on_c, 9, 45, 0
11, 21885, Note_on_c, 9, 43, 100
11, 21899, Note_on_c, 9, 43, 0
11, 21900, Note_on_c, 9, 41, 100
11, 21914, Note_on_c, 9, 41, 0
11, 21914, MIDI_port, 0
11, 22320, System_exclusive, 10, 65, 16, 66, 18, 64, 0, 127, 0, 65, 247
11, 22320, MIDI_port, 0
11, 22320, End_track
0, 0, End_of_file
