0, 0, Header, 1, 16, 480
1, 0, Start_track
1, 0, System_exclusive, 5, 126, 127, 9, 1, 247
1, 0, Tempo, 666667
1, 0, Time_signature, 6, 3, 12, 8
1, 0, Key_signature, 0, "major"
1, 2, Tempo, 666667
1, 2, End_track
2, 0, Start_track
2, 0, Title_t, "Soft karaoke"
2, 0, MIDI_port, 0
2, 0, End_track
3, 0, Start_track
3, 0, MIDI_port, 0
3, 0, Channel_prefix, 1
3, 0, Control_c, 1, 10, 64
3, 175, Control_c, 1, 121, 0
3, 255, Control_c, 1, 101, 0
3, 335, Control_c, 1, 100, 0
3, 415, Control_c, 1, 6, 12
3, 495, Program_c, 1, 33
3, 1450, Control_c, 1, 93, 0
3, 1530, Control_c, 1, 91, 0
3, 1610, Control_c, 1, 10, 64
3, 1690, Control_c, 1, 7, 93
3, 77762, Note_on_c, 1, 28, 127
3, 78773, Note_off_c, 1, 28, 64
3, 78960, Note_on_c, 1, 28, 127
3, 79025, Note_off_c, 1, 28, 64
3, 79198, Note_on_c, 1, 28, 127
3, 80518, Note_off_c, 1, 28, 64
3, 80638, Note_on_c, 1, 26, 127
3, 81686, Note_off_c, 1, 26, 64
3, 81841, Note_on_c, 1, 26, 127
3, 81991, Note_off_c, 1, 26, 64
3, 82081, Note_on_c, 1, 26, 116
3, 83215, Note_off_c, 1, 26, 64
3, 83521, Note_on_c, 1, 28, 127
3, 84556, Note_off_c, 1, 28, 64
3, 84716, Note_on_c, 1, 28, 107
3, 84836, Note_off_c, 1, 28, 64
3, 84961, Note_on_c, 1, 24, 127
3, 85513, Note_off_c, 1, 24, 64
3, 85678, Note_on_c, 1, 26, 127
3, 86238, Note_off_c, 1, 26, 64
3, 86402, Note_on_c, 1, 28, 127
3, 87353, Note_off_c, 1, 28, 64
3, 87597, Note_on_c, 1, 28, 113
3, 87787, Note_off_c, 1, 28, 64
3, 87838, Note_on_c, 1, 35, 127
3, 88016, Note_off_c, 1, 35, 64
3, 88077, Note_on_c, 1, 28, 127
3, 88852, Note_off_c, 1, 28, 64
3, 89038, Note_on_c, 1, 26, 127
3, 89280, Note_on_c, 1, 31, 127
3, 89300, Note_off_c, 1, 26, 64
3, 90255, Note_off_c, 1, 31, 64
3, 90475, Note_on_c, 1, 26, 127
3, 90657, Note_off_c, 1, 26, 64
3, 90718, Note_on_c, 1, 31, 127
3, 91690, Note_off_c, 1, 31, 64
3, 91910, Note_on_c, 1, 31, 127
3, 92083, Note_off_c, 1, 31, 64
3, 92162, Note_on_c, 1, 26, 127
3, 93265, Note_off_c, 1, 26, 64
3, 93358, Note_on_c, 1, 26, 127
3, 93533, Note_off_c, 1, 26, 64
3, 93591, Note_on_c, 1, 38, 127
3, 94476, Note_off_c, 1, 38, 64
3, 94552, Note_on_c, 1, 26, 127
3, 95030, Note_off_c, 1, 26, 64
3, 95041, Note_on_c, 1, 33, 127
3, 96033, Note_off_c, 1, 33, 64
3, 96235, Note_on_c, 1, 28, 127
3, 96482, Note_on_c, 1, 33, 127
3, 96496, Note_off_c, 1, 28, 64
3, 97221, Note_off_c, 1, 33, 64
3, 97431, Note_on_c, 1, 33, 127
3, 97622, Note_off_c, 1, 33, 64
3, 97675, Note_on_c, 1, 31, 127
3, 97896, Note_off_c, 1, 31, 64
3, 97921, Note_on_c, 1, 28, 127
3, 98891, Note_off_c, 1, 28, 64
3, 99117, Note_on_c, 1, 23, 127
3, 99307, Note_off_c, 1, 23, 64
3, 99363, Note_on_c, 1, 28, 127
3, 100066, Note_off_c, 1, 28, 64
3, 100313, Note_on_c, 1, 26, 127
3, 100516, Note_off_c, 1, 26, 64
3, 100558, Note_on_c, 1, 26, 127
3, 100661, Note_off_c, 1, 26, 64
3, 100805, Note_on_c, 1, 31, 127
3, 101737, Note_off_c, 1, 31, 64
3, 101996, Note_on_c, 1, 31, 127
3, 102106, Note_off_c, 1, 31, 64
3, 102241, Note_on_c, 1, 31, 127
3, 102977, Note_off_c, 1, 31, 64
3, 103201, Note_on_c, 1, 31, 127
3, 103385, Note_off_c, 1, 31, 64
3, 103443, Note_on_c, 1, 33, 127
3, 103612, Note_off_c, 1, 33, 64
3, 103678, Note_on_c, 1, 26, 127
3, 104648, Note_off_c, 1, 26, 64
3, 104868, Note_on_c, 1, 26, 127
3, 104993, Note_off_c, 1, 26, 64
3, 105122, Note_on_c, 1, 26, 127
3, 105928, Note_off_c, 1, 26, 64
3, 106312, Note_on_c, 1, 26, 127
3, 106460, Note_off_c, 1, 26, 64
3, 106561, Note_on_c, 1, 24, 127
3, 107560, Note_off_c, 1, 24, 64
3, 107758, Note_on_c, 1, 31, 127
3, 107890, Note_off_c, 1, 31, 64
3, 107998, Note_on_c, 1, 36, 127
3, 108780, Note_off_c, 1, 36, 64
3, 108958, Note_on_c, 1, 24, 127
3, 109143, Note_off_c, 1, 24, 64
3, 109203, Note_on_c, 1, 26, 127
3, 109371, Note_off_c, 1, 26, 64
3, 109445, Note_on_c, 1, 31, 127
3, 110447, Note_off_c, 1, 31, 64
3, 110636, Note_on_c, 1, 31, 127
3, 110820, Note_off_c, 1, 31, 64
3, 110877, Note_on_c, 1, 30, 127
3, 111067, Note_off_c, 1, 30, 64
3, 111117, Note_on_c, 1, 31, 127
3, 111293, Note_off_c, 1, 31, 64
3, 111353, Note_on_c, 1, 33, 127
3, 111518, Note_off_c, 1, 33, 64
3, 111593, Note_on_c, 1, 26, 127
3, 111767, Note_off_c, 1, 26, 64
3, 111837, Note_on_c, 1, 26, 127
3, 112015, Note_off_c, 1, 26, 64
3, 112076, Note_on_c, 1, 26, 127
3, 112246, Note_off_c, 1, 26, 64
3, 112321, Note_on_c, 1, 28, 127
3, 113343, Note_off_c, 1, 28, 64
3, 113517, Note_on_c, 1, 28, 127
3, 113712, Note_off_c, 1, 28, 64
3, 113763, Note_on_c, 1, 28, 127
3, 114772, Note_off_c, 1, 28, 64
3, 114958, Note_on_c, 1, 28, 127
3, 115151, Note_off_c, 1, 28, 64
3, 115201, Note_on_c, 1, 26, 127
3, 116198, Note_off_c, 1, 26, 64
3, 116397, Note_on_c, 1, 26, 127
3, 116612, Note_off_c, 1, 26, 64
3, 116647, Note_on_c, 1, 26, 127
3, 117607, Note_off_c, 1, 26, 64
3, 117831, Note_on_c, 1, 26, 127
3, 118065, Note_off_c, 1, 26, 64
3, 118077, Note_on_c, 1, 28, 127
3, 119071, Note_off_c, 1, 28, 64
3, 119276, Note_on_c, 1, 28, 127
3, 119473, Note_off_c, 1, 28, 64
3, 119522, Note_on_c, 1, 24, 127
3, 120131, Note_off_c, 1, 24, 64
3, 120237, Note_on_c, 1, 26, 127
3, 120785, Note_off_c, 1, 26, 64
3, 120958, Note_on_c, 1, 28, 127
3, 121900, Note_off_c, 1, 28, 64
3, 122147, Note_on_c, 1, 28, 127
3, 122368, Note_off_c, 1, 28, 64
3, 122400, Note_on_c, 1, 28, 127
3, 122740, Note_off_c, 1, 28, 64
3, 122872, Note_on_c, 1, 38, 127
3, 123087, Note_off_c, 1, 38, 64
3, 123115, Note_on_c, 1, 40, 127
3, 123306, Note_off_c, 1, 40, 64
3, 123355, Note_on_c, 1, 33, 127
3, 123541, Note_off_c, 1, 33, 64
3, 123596, Note_on_c, 1, 31, 127
3, 123787, Note_off_c, 1, 31, 64
3, 123851, Note_on_c, 1, 28, 127
3, 124786, Note_off_c, 1, 28, 64
3, 125033, Note_on_c, 1, 28, 127
3, 125242, Note_off_c, 1, 28, 64
3, 125281, Note_on_c, 1, 28, 127
3, 126178, Note_off_c, 1, 28, 64
3, 126471, Note_on_c, 1, 28, 127
3, 126686, Note_off_c, 1, 28, 64
3, 126716, Note_on_c, 1, 36, 127
3, 127732, Note_off_c, 1, 36, 64
3, 127915, Note_on_c, 1, 36, 127
3, 128137, Note_off_c, 1, 36, 64
3, 128161, Note_on_c, 1, 36, 127
3, 128937, Note_off_c, 1, 36, 64
3, 129117, Note_on_c, 1, 36, 127
3, 129303, Note_off_c, 1, 36, 64
3, 129356, Note_on_c, 1, 35, 127
3, 129565, Note_off_c, 1, 35, 64
3, 129596, Note_on_c, 1, 31, 127
3, 130642, Note_off_c, 1, 31, 64
3, 130803, Note_on_c, 1, 31, 127
3, 131011, Note_off_c, 1, 31, 64
3, 131046, Note_on_c, 1, 26, 127
3, 132140, Note_off_c, 1, 26, 64
3, 132236, Note_on_c, 1, 26, 127
3, 132446, Note_off_c, 1, 26, 64
3, 132486, Note_on_c, 1, 28, 127
3, 133596, Note_off_c, 1, 28, 64
3, 133686, Note_on_c, 1, 28, 127
3, 133862, Note_off_c, 1, 28, 64
3, 133925, Note_on_c, 1, 28, 127
3, 134560, Note_off_c, 1, 28, 64
3, 134643, Note_on_c, 1, 26, 127
3, 134823, Note_off_c, 1, 26, 64
3, 134882, Note_on_c, 1, 26, 127
3, 135063, Note_off_c, 1, 26, 64
3, 135121, Note_on_c, 1, 26, 127
3, 135343, Note_off_c, 1, 26, 64
3, 135371, Note_on_c, 1, 31, 127
3, 136290, Note_off_c, 1, 31, 64
3, 136557, Note_on_c, 1, 26, 127
3, 136740, Note_off_c, 1, 26, 64
3, 136806, Note_on_c, 1, 31, 127
3, 137516, Note_off_c, 1, 31, 64
3, 137750, Note_on_c, 1, 31, 115
3, 137955, Note_off_c, 1, 31, 64
3, 137992, Note_on_c, 1, 33, 127
3, 138176, Note_off_c, 1, 33, 64
3, 138236, Note_on_c, 1, 26, 127
3, 139218, Note_off_c, 1, 26, 64
3, 139428, Note_on_c, 1, 26, 127
3, 139552, Note_off_c, 1, 26, 64
3, 139676, Note_on_c, 1, 26, 127
3, 140438, Note_off_c, 1, 26, 64
3, 140637, Note_on_c, 1, 26, 127
3, 140803, Note_off_c, 1, 26, 64
3, 140877, Note_on_c, 1, 28, 127
3, 141028, Note_off_c, 1, 28, 64
3, 141123, Note_on_c, 1, 33, 127
3, 142130, Note_off_c, 1, 33, 64
3, 142323, Note_on_c, 1, 28, 127
3, 142532, Note_off_c, 1, 28, 64
3, 142556, Note_on_c, 1, 33, 127
3, 143356, Note_off_c, 1, 33, 64
3, 143522, Note_on_c, 1, 33, 127
3, 143695, Note_off_c, 1, 33, 64
3, 143761, Note_on_c, 1, 31, 127
3, 143983, Note_off_c, 1, 31, 64
3, 144006, Note_on_c, 1, 28, 127
3, 145000, Note_off_c, 1, 28, 64
3, 145197, Note_on_c, 1, 28, 127
3, 145286, Note_off_c, 1, 28, 64
3, 145438, Note_on_c, 1, 40, 127
3, 145842, Note_off_c, 1, 40, 64
3, 145916, Note_on_c, 1, 38, 127
3, 146237, Note_off_c, 1, 38, 64
3, 146397, Note_on_c, 1, 33, 127
3, 146520, Note_off_c, 1, 33, 64
3, 146638, Note_on_c, 1, 30, 127
3, 146775, Note_off_c, 1, 30, 64
3, 146881, Note_on_c, 1, 31, 127
3, 147876, Note_off_c, 1, 31, 64
3, 148082, Note_on_c, 1, 26, 127
3, 148207, Note_off_c, 1, 26, 64
3, 148323, Note_on_c, 1, 31, 127
3, 149068, Note_off_c, 1, 31, 64
3, 149277, Note_on_c, 1, 31, 127
3, 149451, Note_off_c, 1, 31, 64
3, 149522, Note_on_c, 1, 33, 127
3, 149676, Note_off_c, 1, 33, 64
3, 149763, Note_on_c, 1, 26, 127
3, 150972, Note_off_c, 1, 26, 64
3, 151202, Note_on_c, 1, 26, 127
3, 152331, Note_off_c, 1, 26, 64
3, 152648, Note_on_c, 1, 24, 127
3, 153568, Note_off_c, 1, 24, 64
3, 153836, Note_on_c, 1, 24, 127
3, 153917, Note_off_c, 1, 24, 64
3, 154085, Note_on_c, 1, 24, 127
3, 154476, Note_off_c, 1, 24, 64
3, 154561, Note_on_c, 1, 24, 127
3, 154822, Note_off_c, 1, 24, 64
3, 155046, Note_on_c, 1, 24, 127
3, 155267, Note_off_c, 1, 24, 64
3, 155521, Note_on_c, 1, 31, 127
3, 156647, Note_off_c, 1, 31, 64
3, 156725, Note_on_c, 1, 31, 127
3, 156810, Note_off_c, 1, 31, 64
3, 156958, Note_on_c, 1, 30, 127
3, 157145, Note_off_c, 1, 30, 64
3, 157201, Note_on_c, 1, 31, 127
3, 157395, Note_off_c, 1, 31, 64
3, 157438, Note_on_c, 1, 33, 127
3, 157762, Note_off_c, 1, 33, 64
3, 157923, Note_on_c, 1, 38, 127
3, 158113, Note_off_c, 1, 38, 64
3, 158158, Note_on_c, 1, 40, 127
3, 158360, Note_off_c, 1, 40, 64
3, 158400, Note_on_c, 1, 28, 127
3, 159383, Note_off_c, 1, 28, 64
3, 159570, Pitch_bend_c, 1, 8272
3, 159592, Note_on_c, 1, 28, 127
3, 159653, Pitch_bend_c, 1, 8261
3, 159687, Pitch_bend_c, 1, 8245
3, 159720, Pitch_bend_c, 1, 8234
3, 159760, Pitch_bend_c, 1, 8218
3, 159790, Note_off_c, 1, 28, 64
3, 159842, Note_on_c, 1, 28, 127
3, 160810, Note_off_c, 1, 28, 64
3, 161035, Note_on_c, 1, 28, 127
3, 161210, Note_off_c, 1, 28, 64
3, 161281, Note_on_c, 1, 26, 127
3, 162263, Note_off_c, 1, 26, 64
3, 162476, Note_on_c, 1, 26, 127
3, 162672, Note_off_c, 1, 26, 64
3, 162727, Note_on_c, 1, 26, 127
3, 163711, Note_off_c, 1, 26, 64
3, 163923, Note_on_c, 1, 26, 127
3, 164060, Note_off_c, 1, 26, 64
3, 164167, Note_on_c, 1, 28, 127
3, 165133, Note_off_c, 1, 28, 64
3, 165357, Note_on_c, 1, 28, 127
3, 165510, Note_off_c, 1, 28, 64
3, 165598, Note_on_c, 1, 24, 127
3, 166213, Note_off_c, 1, 24, 64
3, 166322, Note_on_c, 1, 26, 127
3, 166863, Note_off_c, 1, 26, 64
3, 167045, Note_on_c, 1, 28, 127
3, 168020, Note_off_c, 1, 28, 64
3, 168236, Note_on_c, 1, 28, 127
3, 168432, Note_off_c, 1, 28, 64
3, 168485, Note_on_c, 1, 24, 127
3, 169042, Note_off_c, 1, 24, 64
3, 169207, Note_on_c, 1, 26, 127
3, 169821, Note_off_c, 1, 26, 64
3, 169922, Note_on_c, 1, 28, 127
3, 170758, Note_off_c, 1, 28, 64
3, 171112, Note_on_c, 1, 28, 127
3, 171218, Note_off_c, 1, 28, 64
3, 171357, Note_on_c, 1, 24, 127
3, 171990, Note_off_c, 1, 24, 64
3, 172082, Note_on_c, 1, 26, 127
3, 172651, Note_off_c, 1, 26, 64
3, 172805, Note_on_c, 1, 28, 127
3, 173705, Note_off_c, 1, 28, 64
3, 174003, Note_on_c, 1, 28, 127
3, 174163, Note_off_c, 1, 28, 64
3, 174237, Note_on_c, 1, 36, 127
3, 174657, Note_off_c, 1, 36, 64
3, 174717, Note_on_c, 1, 36, 127
3, 174837, Note_off_c, 1, 36, 64
3, 174957, Note_on_c, 1, 38, 127
3, 175392, Note_off_c, 1, 38, 64
3, 175436, Note_on_c, 1, 38, 127
3, 175605, Note_off_c, 1, 38, 64
3, 175683, Note_on_c, 1, 28, 127
3, 176685, Note_off_c, 1, 28, 64
3, 176875, Note_on_c, 1, 28, 116
3, 177038, Note_off_c, 1, 28, 64
3, 177121, Note_on_c, 1, 24, 127
3, 177753, Note_off_c, 1, 24, 64
3, 177843, Note_on_c, 1, 26, 127
3, 178495, Note_off_c, 1, 26, 64
3, 178568, Note_on_c, 1, 28, 127
3, 179418, Note_off_c, 1, 28, 64
3, 179511, Note_on_c, 1, 30, 127
3, 179732, Note_off_c, 1, 30, 64
3, 179758, Note_on_c, 1, 31, 127
3, 179921, Note_off_c, 1, 31, 64
3, 180001, Note_on_c, 1, 36, 127
3, 180445, Note_off_c, 1, 36, 64
3, 180478, Note_on_c, 1, 36, 127
3, 180682, Note_off_c, 1, 36, 64
3, 180721, Note_on_c, 1, 38, 127
3, 181143, Note_off_c, 1, 38, 64
3, 181193, Note_on_c, 1, 38, 127
3, 181422, Note_off_c, 1, 38, 64
3, 181442, Note_on_c, 1, 28, 127
3, 182505, Note_off_c, 1, 28, 64
3, 182643, Note_on_c, 1, 28, 127
3, 182780, Note_off_c, 1, 28, 64
3, 182883, Note_on_c, 1, 24, 127
3, 183516, Note_off_c, 1, 24, 64
3, 183603, Note_on_c, 1, 26, 127
3, 184265, Note_off_c, 1, 26, 64
3, 184330, Note_on_c, 1, 28, 127
3, 185193, Note_off_c, 1, 28, 64
3, 185285, Note_on_c, 1, 30, 127
3, 185458, Note_off_c, 1, 30, 64
3, 185522, Note_on_c, 1, 31, 127
3, 185703, Note_off_c, 1, 31, 64
3, 185760, Note_on_c, 1, 36, 127
3, 186183, Note_off_c, 1, 36, 64
3, 186481, Note_on_c, 1, 38, 127
3, 186906, Note_off_c, 1, 38, 64
3, 186958, Note_on_c, 1, 38, 127
3, 187133, Note_off_c, 1, 38, 64
3, 187203, Note_on_c, 1, 28, 127
3, 188296, Note_off_c, 1, 28, 64
3, 188405, Note_on_c, 1, 28, 127
3, 188580, Note_off_c, 1, 28, 64
3, 188642, Note_on_c, 1, 24, 127
3, 189296, Note_off_c, 1, 24, 64
3, 189370, Note_on_c, 1, 26, 127
3, 189970, Note_off_c, 1, 26, 64
3, 190080, Note_on_c, 1, 28, 127
3, 190996, Note_off_c, 1, 28, 64
3, 191040, Note_on_c, 1, 30, 127
3, 191250, Note_off_c, 1, 30, 64
3, 191282, Note_on_c, 1, 31, 127
3, 191427, Note_off_c, 1, 31, 64
3, 191518, Note_on_c, 1, 36, 127
3, 191923, Note_off_c, 1, 36, 64
3, 192005, Note_on_c, 1, 36, 127
3, 192173, Note_off_c, 1, 36, 64
3, 192238, Note_on_c, 1, 38, 127
3, 192656, Note_off_c, 1, 38, 64
3, 192713, Note_on_c, 1, 38, 127
3, 192923, Note_off_c, 1, 38, 64
3, 192923, End_track
4, 0, Start_track
4, 0, MIDI_port, 0
4, 0, Channel_prefix, 2
4, 0, Control_c, 2, 10, 64
4, 180, Control_c, 2, 121, 0
4, 260, Control_c, 2, 101, 0
4, 340, Control_c, 2, 100, 0
4, 420, Control_c, 2, 6, 12
4, 500, Program_c, 2, 30
4, 1455, Control_c, 2, 93, 0
4, 1535, Control_c, 2, 91, 127
4, 1615, Control_c, 2, 10, 64
4, 1695, Control_c, 2, 7, 69
4, 53211, Control_c, 2, 11, 17
4, 53235, Control_c, 2, 11, 36
4, 53280, Control_c, 2, 11, 45
4, 53280, Note_on_c, 2, 74, 89
4, 53280, Note_on_c, 2, 78, 127
4, 53303, Control_c, 2, 11, 55
4, 53326, Control_c, 2, 11, 65
4, 53348, Control_c, 2, 11, 76
4, 53372, Control_c, 2, 11, 86
4, 53395, Control_c, 2, 11, 97
4, 53416, Control_c, 2, 11, 107
4, 53440, Control_c, 2, 11, 125
4, 53462, Control_c, 2, 11, 127
4, 53735, Pitch_bend_c, 2, 8074
4, 53767, Pitch_bend_c, 2, 7840
4, 53791, Pitch_bend_c, 2, 7606
4, 53802, Pitch_bend_c, 2, 7489
4, 53836, Pitch_bend_c, 2, 7255
4, 53870, Pitch_bend_c, 2, 7138
4, 53892, Pitch_bend_c, 2, 6904
4, 53927, Pitch_bend_c, 2, 6670
4, 53961, Pitch_bend_c, 2, 6436
4, 53983, Pitch_bend_c, 2, 6319
4, 54007, Pitch_bend_c, 2, 6085
4, 54030, Pitch_bend_c, 2, 5968
4, 54052, Pitch_bend_c, 2, 5734
4, 54097, Pitch_bend_c, 2, 5617
4, 54132, Pitch_bend_c, 2, 5383
4, 54165, Pitch_bend_c, 2, 5266
4, 54201, Pitch_bend_c, 2, 5032
4, 54222, Pitch_bend_c, 2, 4798
4, 54257, Pitch_bend_c, 2, 4681
4, 54280, Pitch_bend_c, 2, 4447
4, 54325, Pitch_bend_c, 2, 4330
4, 54360, Pitch_bend_c, 2, 4096
4, 54382, Pitch_bend_c, 2, 3979
4, 54405, Pitch_bend_c, 2, 3745
4, 54440, Pitch_bend_c, 2, 3511
4, 54473, Pitch_bend_c, 2, 3394
4, 54520, Pitch_bend_c, 2, 3160
4, 54540, Pitch_bend_c, 2, 2926
4, 54575, Pitch_bend_c, 2, 2809
4, 54611, Pitch_bend_c, 2, 2458
4, 54655, Pitch_bend_c, 2, 1990
4, 54678, Pitch_bend_c, 2, 1405
4, 54700, Pitch_bend_c, 2, 1288
4, 54712, Note_off_c, 2, 74, 64
4, 54713, Pitch_bend_c, 2, 820
4, 54720, Note_off_c, 2, 78, 64
4, 54733, Pitch_bend_c, 2, 118
4, 54756, Pitch_bend_c, 2, 8192
4, 54757, Note_on_c, 2, 40, 94
4, 55201, Pitch_bend_c, 2, 8202
4, 55225, Pitch_bend_c, 2, 8224
4, 55270, Pitch_bend_c, 2, 8202
4, 55287, Pitch_bend_c, 2, 8224
4, 55445, Pitch_bend_c, 2, 8202
4, 55760, Pitch_bend_c, 2, 8192
4, 57556, Note_off_c, 2, 40, 64
4, 64760, Note_on_c, 2, 47, 91
4, 64787, Note_on_c, 2, 52, 107
4, 64812, Note_on_c, 2, 55, 74
4, 64837, Note_on_c, 2, 64, 94
4, 64842, Note_on_c, 2, 59, 61
4, 68932, Note_off_c, 2, 64, 64
4, 68952, Note_off_c, 2, 55, 64
4, 68961, Note_off_c, 2, 59, 64
4, 69026, Note_off_c, 2, 52, 64
4, 69042, Note_off_c, 2, 47, 64
4, 121663, Pitch_bend_c, 2, 8192
4, 121693, Note_on_c, 2, 59, 127
4, 121703, Control_c, 2, 11, 18
4, 121708, Note_on_c, 2, 64, 127
4, 121715, Note_on_c, 2, 67, 105
4, 121737, Control_c, 2, 11, 25
4, 121748, Pitch_bend_c, 2, 8224
4, 121758, Control_c, 2, 11, 33
4, 121782, Control_c, 2, 11, 41
4, 121805, Control_c, 2, 11, 48
4, 121827, Control_c, 2, 11, 55
4, 121831, Pitch_bend_c, 2, 8266
4, 121848, Pitch_bend_c, 2, 8330
4, 121850, Control_c, 2, 11, 62
4, 121863, Pitch_bend_c, 2, 8394
4, 121872, Control_c, 2, 11, 68
4, 121878, Pitch_bend_c, 2, 8416
4, 121895, Control_c, 2, 11, 74
4, 121911, Pitch_bend_c, 2, 8309
4, 121918, Control_c, 2, 11, 79
4, 121930, Pitch_bend_c, 2, 8182
4, 121942, Control_c, 2, 11, 84
4, 121953, Pitch_bend_c, 2, 8160
4, 121965, Control_c, 2, 11, 88
4, 121986, Control_c, 2, 11, 92
4, 121993, Pitch_bend_c, 2, 8245
4, 122008, Control_c, 2, 11, 96
4, 122018, Pitch_bend_c, 2, 8352
4, 122032, Control_c, 2, 11, 99
4, 122037, Pitch_bend_c, 2, 8480
4, 122055, Control_c, 2, 11, 102
4, 122057, Pitch_bend_c, 2, 8501
4, 122087, Pitch_bend_c, 2, 8352
4, 122088, Control_c, 2, 11, 106
4, 122105, Pitch_bend_c, 2, 8202
4, 122122, Pitch_bend_c, 2, 8160
4, 122135, Control_c, 2, 11, 109
4, 122167, Pitch_bend_c, 2, 8352
4, 122168, Control_c, 2, 11, 112
4, 122195, Pitch_bend_c, 2, 8544
4, 122203, Control_c, 2, 11, 114
4, 122212, Pitch_bend_c, 2, 8608
4, 122236, Control_c, 2, 11, 117
4, 122248, Pitch_bend_c, 2, 8544
4, 122262, Pitch_bend_c, 2, 8266
4, 122281, Pitch_bend_c, 2, 8144
4, 122283, Control_c, 2, 11, 120
4, 122323, Pitch_bend_c, 2, 8160
4, 122332, Pitch_bend_c, 2, 8224
4, 122338, Control_c, 2, 11, 123
4, 122350, Pitch_bend_c, 2, 8352
4, 122370, Pitch_bend_c, 2, 8394
4, 122387, Pitch_bend_c, 2, 8394
4, 122412, Pitch_bend_c, 2, 8202
4, 122420, Control_c, 2, 11, 125
4, 122445, Pitch_bend_c, 2, 8182
4, 122472, Pitch_bend_c, 2, 8245
4, 122491, Pitch_bend_c, 2, 8416
4, 122508, Pitch_bend_c, 2, 8565
4, 122553, Pitch_bend_c, 2, 8352
4, 122578, Pitch_bend_c, 2, 8224
4, 122597, Pitch_bend_c, 2, 8202
4, 122613, Pitch_bend_c, 2, 8288
4, 122630, Pitch_bend_c, 2, 8394
4, 122647, Pitch_bend_c, 2, 8437
4, 122686, Pitch_bend_c, 2, 8416
4, 122707, Pitch_bend_c, 2, 8437
4, 122728, Pitch_bend_c, 2, 8458
4, 122755, Pitch_bend_c, 2, 8437
4, 122770, Pitch_bend_c, 2, 8416
4, 122792, Pitch_bend_c, 2, 8394
4, 122805, Pitch_bend_c, 2, 8373
4, 122907, Pitch_bend_c, 2, 8202
4, 122940, Pitch_bend_c, 2, 8182
4, 122967, Pitch_bend_c, 2, 8245
4, 122986, Pitch_bend_c, 2, 8416
4, 123003, Pitch_bend_c, 2, 8565
4, 123048, Pitch_bend_c, 2, 8352
4, 123073, Pitch_bend_c, 2, 8224
4, 123092, Pitch_bend_c, 2, 8202
4, 123108, Pitch_bend_c, 2, 8288
4, 123125, Pitch_bend_c, 2, 8394
4, 123142, Pitch_bend_c, 2, 8437
4, 123181, Pitch_bend_c, 2, 8416
4, 123202, Pitch_bend_c, 2, 8437
4, 123223, Pitch_bend_c, 2, 8458
4, 123250, Pitch_bend_c, 2, 8437
4, 123265, Pitch_bend_c, 2, 8416
4, 123287, Pitch_bend_c, 2, 8373
4, 123425, Pitch_bend_c, 2, 7894
4, 123447, Pitch_bend_c, 2, 7675
4, 123462, Pitch_bend_c, 2, 7638
4, 123498, Pitch_bend_c, 2, 7302
4, 123515, Pitch_bend_c, 2, 7019
4, 123533, Pitch_bend_c, 2, 6982
4, 123568, Pitch_bend_c, 2, 6539
4, 123585, Pitch_bend_c, 2, 6320
4, 123620, Pitch_bend_c, 2, 6304
4, 123642, Pitch_bend_c, 2, 5648
4, 123687, Pitch_bend_c, 2, 5616
4, 123725, Pitch_bend_c, 2, 5110
4, 123742, Pitch_bend_c, 2, 4934
4, 123808, Pitch_bend_c, 2, 4918
4, 123813, Pitch_bend_c, 2, 4427
4, 123832, Pitch_bend_c, 2, 4278
4, 123853, Pitch_bend_c, 2, 4262
4, 123868, Pitch_bend_c, 2, 8192
4, 123868, Note_on_c, 2, 40, 107
4, 123871, Note_off_c, 2, 67, 64
4, 123871, Note_off_c, 2, 64, 64
4, 123871, Note_off_c, 2, 59, 64
4, 123943, Pitch_bend_c, 2, 8245
4, 124027, Pitch_bend_c, 2, 8224
4, 124070, Pitch_bend_c, 2, 8202
4, 124105, Pitch_bend_c, 2, 8182
4, 124140, Pitch_bend_c, 2, 8160
4, 124182, Pitch_bend_c, 2, 8182
4, 124208, Pitch_bend_c, 2, 8192
4, 124243, Pitch_bend_c, 2, 8224
4, 124277, Pitch_bend_c, 2, 8202
4, 124312, Pitch_bend_c, 2, 8182
4, 124328, Pitch_bend_c, 2, 8160
4, 124346, Pitch_bend_c, 2, 8144
4, 124406, Pitch_bend_c, 2, 8160
4, 124432, Pitch_bend_c, 2, 8182
4, 124493, Pitch_bend_c, 2, 8160
4, 124501, Pitch_bend_c, 2, 8144
4, 124517, Pitch_bend_c, 2, 8123
4, 124536, Pitch_bend_c, 2, 8102
4, 124588, Pitch_bend_c, 2, 8144
4, 124603, Pitch_bend_c, 2, 8160
4, 124672, Pitch_bend_c, 2, 8144
4, 124690, Pitch_bend_c, 2, 8102
4, 124715, Pitch_bend_c, 2, 8080
4, 124742, Pitch_bend_c, 2, 8102
4, 124758, Pitch_bend_c, 2, 8144
4, 124785, Pitch_bend_c, 2, 8160
4, 124835, Pitch_bend_c, 2, 8144
4, 124855, Pitch_bend_c, 2, 8102
4, 124932, Pitch_bend_c, 2, 8144
4, 124955, Pitch_bend_c, 2, 8160
4, 125025, Pitch_bend_c, 2, 8144
4, 125043, Pitch_bend_c, 2, 8102
4, 125061, Pitch_bend_c, 2, 8080
4, 125077, Pitch_bend_c, 2, 8059
4, 125105, Pitch_bend_c, 2, 8080
4, 125121, Pitch_bend_c, 2, 8102
4, 125128, Pitch_bend_c, 2, 8123
4, 125155, Pitch_bend_c, 2, 8144
4, 125207, Pitch_bend_c, 2, 8123
4, 125223, Pitch_bend_c, 2, 8102
4, 125233, Pitch_bend_c, 2, 8059
4, 125251, Pitch_bend_c, 2, 8038
4, 125285, Pitch_bend_c, 2, 8059
4, 125302, Pitch_bend_c, 2, 8080
4, 125318, Pitch_bend_c, 2, 8102
4, 125336, Pitch_bend_c, 2, 8123
4, 125355, Pitch_bend_c, 2, 8144
4, 125390, Pitch_bend_c, 2, 8123
4, 125406, Pitch_bend_c, 2, 8102
4, 125425, Pitch_bend_c, 2, 8059
4, 125448, Pitch_bend_c, 2, 8038
4, 125492, Pitch_bend_c, 2, 8080
4, 125517, Pitch_bend_c, 2, 8102
4, 125536, Pitch_bend_c, 2, 8123
4, 125593, Pitch_bend_c, 2, 8102
4, 125597, Pitch_bend_c, 2, 8059
4, 125623, Pitch_bend_c, 2, 8038
4, 125665, Pitch_bend_c, 2, 8059
4, 125681, Pitch_bend_c, 2, 8080
4, 125691, Pitch_bend_c, 2, 8102
4, 125708, Pitch_bend_c, 2, 8123
4, 125761, Pitch_bend_c, 2, 8080
4, 125777, Pitch_bend_c, 2, 8038
4, 125795, Pitch_bend_c, 2, 8016
4, 125838, Pitch_bend_c, 2, 8038
4, 125846, Pitch_bend_c, 2, 8080
4, 125865, Pitch_bend_c, 2, 8102
4, 125925, Pitch_bend_c, 2, 8080
4, 125933, Pitch_bend_c, 2, 8059
4, 125952, Pitch_bend_c, 2, 8016
4, 125995, Pitch_bend_c, 2, 8038
4, 126011, Pitch_bend_c, 2, 8059
4, 126020, Pitch_bend_c, 2, 8102
4, 126045, Pitch_bend_c, 2, 8123
4, 126063, Pitch_bend_c, 2, 8102
4, 126090, Pitch_bend_c, 2, 8059
4, 126116, Pitch_bend_c, 2, 8038
4, 126141, Pitch_bend_c, 2, 8059
4, 126160, Pitch_bend_c, 2, 8080
4, 126177, Pitch_bend_c, 2, 8102
4, 126237, Pitch_bend_c, 2, 8080
4, 126253, Pitch_bend_c, 2, 8059
4, 126271, Pitch_bend_c, 2, 8038
4, 126305, Pitch_bend_c, 2, 8059
4, 126315, Pitch_bend_c, 2, 8102
4, 126340, Pitch_bend_c, 2, 8123
4, 126373, Pitch_bend_c, 2, 8102
4, 126392, Pitch_bend_c, 2, 8080
4, 126408, Pitch_bend_c, 2, 8038
4, 126443, Pitch_bend_c, 2, 8059
4, 126470, Pitch_bend_c, 2, 8080
4, 126497, Pitch_bend_c, 2, 8080
4, 126547, Pitch_bend_c, 2, 8059
4, 126590, Pitch_bend_c, 2, 8080
4, 126608, Pitch_bend_c, 2, 8102
4, 126623, Pitch_bend_c, 2, 8123
4, 126633, Pitch_bend_c, 2, 8144
4, 126651, Pitch_bend_c, 2, 8160
4, 126667, Note_off_c, 2, 40, 64
4, 126703, Pitch_bend_c, 2, 8213
4, 126705, Note_on_c, 2, 48, 101
4, 126882, Pitch_bend_c, 2, 8229
4, 126898, Pitch_bend_c, 2, 8261
4, 126918, Pitch_bend_c, 2, 8282
4, 126927, Pitch_bend_c, 2, 8346
4, 126976, Pitch_bend_c, 2, 8330
4, 126986, Pitch_bend_c, 2, 8282
4, 126998, Pitch_bend_c, 2, 8229
4, 127016, Pitch_bend_c, 2, 8182
4, 127036, Pitch_bend_c, 2, 8166
4, 127075, Pitch_bend_c, 2, 8182
4, 127101, Pitch_bend_c, 2, 8197
4, 127105, Pitch_bend_c, 2, 8245
4, 127123, Pitch_bend_c, 2, 8314
4, 127143, Pitch_bend_c, 2, 8330
4, 127155, Pitch_bend_c, 2, 8330
4, 127187, Pitch_bend_c, 2, 8314
4, 127191, Pitch_bend_c, 2, 8229
4, 127208, Pitch_bend_c, 2, 8197
4, 127225, Pitch_bend_c, 2, 8182
4, 127267, Pitch_bend_c, 2, 8197
4, 127277, Pitch_bend_c, 2, 8245
4, 127303, Pitch_bend_c, 2, 8314
4, 127316, Pitch_bend_c, 2, 8330
4, 127353, Pitch_bend_c, 2, 8282
4, 127370, Pitch_bend_c, 2, 8213
4, 127387, Pitch_bend_c, 2, 8182
4, 127418, Pitch_bend_c, 2, 8182
4, 127445, Pitch_bend_c, 2, 8197
4, 127457, Pitch_bend_c, 2, 8229
4, 127472, Pitch_bend_c, 2, 8261
4, 127526, Pitch_bend_c, 2, 8213
4, 127542, Pitch_bend_c, 2, 8182
4, 127563, Pitch_bend_c, 2, 8166
4, 127618, Pitch_bend_c, 2, 8197
4, 127627, Pitch_bend_c, 2, 8245
4, 127648, Pitch_bend_c, 2, 8298
4, 127670, Pitch_bend_c, 2, 8314
4, 127697, Pitch_bend_c, 2, 8261
4, 127718, Pitch_bend_c, 2, 8213
4, 127741, Pitch_bend_c, 2, 8197
4, 127768, Pitch_bend_c, 2, 8261
4, 127788, Pitch_bend_c, 2, 8314
4, 127803, Pitch_bend_c, 2, 8346
4, 127853, Pitch_bend_c, 2, 8330
4, 127858, Pitch_bend_c, 2, 8261
4, 127875, Pitch_bend_c, 2, 8213
4, 127901, Pitch_bend_c, 2, 8197
4, 127907, Pitch_bend_c, 2, 8197
4, 127935, Pitch_bend_c, 2, 8213
4, 127950, Pitch_bend_c, 2, 8245
4, 127960, Pitch_bend_c, 2, 8346
4, 127980, Pitch_bend_c, 2, 8378
4, 128017, Pitch_bend_c, 2, 8346
4, 128031, Pitch_bend_c, 2, 8261
4, 128052, Pitch_bend_c, 2, 8182
4, 128106, Pitch_bend_c, 2, 8245
4, 128122, Pitch_bend_c, 2, 8314
4, 128142, Pitch_bend_c, 2, 8330
4, 128200, Pitch_bend_c, 2, 8298
4, 128207, Pitch_bend_c, 2, 8213
4, 128223, Pitch_bend_c, 2, 8182
4, 128248, Pitch_bend_c, 2, 8197
4, 128267, Pitch_bend_c, 2, 8213
4, 128276, Pitch_bend_c, 2, 8298
4, 128293, Pitch_bend_c, 2, 8362
4, 128313, Pitch_bend_c, 2, 8378
4, 128346, Pitch_bend_c, 2, 8298
4, 128368, Pitch_bend_c, 2, 8213
4, 128387, Pitch_bend_c, 2, 8197
4, 128420, Pitch_bend_c, 2, 8229
4, 128432, Pitch_bend_c, 2, 8298
4, 128452, Pitch_bend_c, 2, 8362
4, 128471, Pitch_bend_c, 2, 8378
4, 128506, Pitch_bend_c, 2, 8261
4, 128525, Pitch_bend_c, 2, 8213
4, 128541, Pitch_bend_c, 2, 8182
4, 128576, Pitch_bend_c, 2, 8213
4, 128596, Pitch_bend_c, 2, 8261
4, 128611, Pitch_bend_c, 2, 8346
4, 128630, Pitch_bend_c, 2, 8378
4, 128677, Pitch_bend_c, 2, 8282
4, 128695, Pitch_bend_c, 2, 8213
4, 128716, Pitch_bend_c, 2, 8197
4, 128753, Pitch_bend_c, 2, 8229
4, 128766, Pitch_bend_c, 2, 8314
4, 128786, Pitch_bend_c, 2, 8378
4, 128827, Pitch_bend_c, 2, 8362
4, 128835, Pitch_bend_c, 2, 8245
4, 128855, Pitch_bend_c, 2, 8213
4, 128870, Pitch_bend_c, 2, 8197
4, 128905, Pitch_bend_c, 2, 8282
4, 128931, Pitch_bend_c, 2, 8378
4, 128943, Pitch_bend_c, 2, 8432
4, 128986, Pitch_bend_c, 2, 8416
4, 128992, Pitch_bend_c, 2, 8261
4, 129012, Pitch_bend_c, 2, 8182
4, 129071, Pitch_bend_c, 2, 8229
4, 129085, Pitch_bend_c, 2, 8330
4, 129101, Pitch_bend_c, 2, 8362
4, 129127, Pitch_bend_c, 2, 8378
4, 129133, Pitch_bend_c, 2, 8314
4, 129151, Pitch_bend_c, 2, 8213
4, 129170, Pitch_bend_c, 2, 8182
4, 129225, Pitch_bend_c, 2, 8229
4, 129238, Pitch_bend_c, 2, 8282
4, 129263, Pitch_bend_c, 2, 8298
4, 129283, Pitch_bend_c, 2, 8314
4, 129290, Pitch_bend_c, 2, 8261
4, 129317, Pitch_bend_c, 2, 8197
4, 129337, Pitch_bend_c, 2, 8182
4, 129368, Pitch_bend_c, 2, 8213
4, 129381, Pitch_bend_c, 2, 8314
4, 129401, Pitch_bend_c, 2, 8378
4, 129415, Pitch_bend_c, 2, 8400
4, 129432, Pitch_bend_c, 2, 8400
4, 129458, Pitch_bend_c, 2, 8378
4, 129465, Pitch_bend_c, 2, 8314
4, 129486, Pitch_bend_c, 2, 8282
4, 129512, Note_off_c, 2, 48, 64
4, 165756, Control_c, 2, 11, 18
4, 167095, Control_c, 2, 11, 15
4, 167623, Control_c, 2, 11, 18
4, 167747, Note_on_c, 2, 62, 107
4, 167751, Note_on_c, 2, 74, 107
4, 167756, Note_on_c, 2, 69, 75
4, 167762, Pitch_bend_c, 2, 8192
4, 167783, Pitch_bend_c, 2, 8250
4, 167810, Pitch_bend_c, 2, 8272
4, 167850, Pitch_bend_c, 2, 8250
4, 167871, Control_c, 2, 11, 21
4, 167876, Pitch_bend_c, 2, 8272
4, 167882, Control_c, 2, 11, 26
4, 167885, Pitch_bend_c, 2, 8346
4, 167903, Control_c, 2, 11, 34
4, 167907, Pitch_bend_c, 2, 8421
4, 167922, Pitch_bend_c, 2, 8496
4, 167926, Control_c, 2, 11, 42
4, 167940, Pitch_bend_c, 2, 8533
4, 167950, Control_c, 2, 11, 50
4, 167957, Pitch_bend_c, 2, 8554
4, 167971, Control_c, 2, 11, 58
4, 167976, Pitch_bend_c, 2, 8517
4, 167992, Control_c, 2, 11, 66
4, 167996, Pitch_bend_c, 2, 8458
4, 168007, Pitch_bend_c, 2, 8309
4, 168016, Control_c, 2, 11, 73
4, 168025, Pitch_bend_c, 2, 8234
4, 168038, Control_c, 2, 11, 80
4, 168061, Control_c, 2, 11, 88
4, 168083, Control_c, 2, 11, 96
4, 168087, Pitch_bend_c, 2, 8384
4, 168106, Control_c, 2, 11, 104
4, 168113, Pitch_bend_c, 2, 8458
4, 168130, Control_c, 2, 11, 111
4, 168137, Pitch_bend_c, 2, 8496
4, 168150, Control_c, 2, 11, 115
4, 168165, Pitch_bend_c, 2, 8384
4, 168175, Control_c, 2, 11, 119
4, 168185, Pitch_bend_c, 2, 8272
4, 168197, Control_c, 2, 11, 121
4, 168203, Pitch_bend_c, 2, 8250
4, 168218, Control_c, 2, 11, 125
4, 168222, Pitch_bend_c, 2, 8234
4, 168241, Control_c, 2, 11, 127
4, 168253, Pitch_bend_c, 2, 8325
4, 168270, Pitch_bend_c, 2, 8458
4, 168288, Pitch_bend_c, 2, 8517
4, 168322, Pitch_bend_c, 2, 8421
4, 168341, Pitch_bend_c, 2, 8272
4, 168358, Pitch_bend_c, 2, 8250
4, 168385, Pitch_bend_c, 2, 8325
4, 168410, Pitch_bend_c, 2, 8474
4, 168428, Pitch_bend_c, 2, 8570
4, 168450, Pitch_bend_c, 2, 8570
4, 168468, Pitch_bend_c, 2, 8496
4, 168480, Pitch_bend_c, 2, 8309
4, 168498, Pitch_bend_c, 2, 8250
4, 168518, Pitch_bend_c, 2, 8234
4, 168542, Pitch_bend_c, 2, 8421
4, 168568, Pitch_bend_c, 2, 8554
4, 168587, Pitch_bend_c, 2, 8570
4, 168616, Pitch_bend_c, 2, 8400
4, 168637, Pitch_bend_c, 2, 8250
4, 168661, Pitch_bend_c, 2, 8234
4, 168690, Pitch_bend_c, 2, 8272
4, 168707, Pitch_bend_c, 2, 8517
4, 168726, Pitch_bend_c, 2, 8592
4, 168743, Pitch_bend_c, 2, 8608
4, 168768, Pitch_bend_c, 2, 8592
4, 168777, Pitch_bend_c, 2, 8309
4, 168795, Pitch_bend_c, 2, 8213
4, 168817, Pitch_bend_c, 2, 8197
4, 168831, Pitch_bend_c, 2, 8234
4, 168847, Pitch_bend_c, 2, 8421
4, 168865, Pitch_bend_c, 2, 8592
4, 168886, Pitch_bend_c, 2, 8629
4, 168912, Pitch_bend_c, 2, 8346
4, 168935, Pitch_bend_c, 2, 8213
4, 168957, Pitch_bend_c, 2, 8197
4, 168990, Pitch_bend_c, 2, 8288
4, 169005, Pitch_bend_c, 2, 8458
4, 169023, Pitch_bend_c, 2, 8570
4, 169041, Pitch_bend_c, 2, 8592
4, 169070, Pitch_bend_c, 2, 8309
4, 169092, Pitch_bend_c, 2, 8234
4, 169112, Pitch_bend_c, 2, 8213
4, 169142, Pitch_bend_c, 2, 8400
4, 169163, Pitch_bend_c, 2, 8554
4, 169180, Pitch_bend_c, 2, 8629
4, 169212, Pitch_bend_c, 2, 8437
4, 169232, Pitch_bend_c, 2, 8250
4, 169257, Pitch_bend_c, 2, 8234
4, 169291, Pitch_bend_c, 2, 8325
4, 169306, Pitch_bend_c, 2, 8496
4, 169320, Pitch_bend_c, 2, 8650
4, 169340, Pitch_bend_c, 2, 8666
4, 169361, Pitch_bend_c, 2, 8496
4, 169373, Pitch_bend_c, 2, 8309
4, 169396, Pitch_bend_c, 2, 8272
4, 169430, Pitch_bend_c, 2, 8288
4, 169443, Pitch_bend_c, 2, 8421
4, 169460, Pitch_bend_c, 2, 8666
4, 169471, Control_c, 2, 11, 126
4, 169477, Pitch_bend_c, 2, 8746
4, 169495, Pitch_bend_c, 2, 8704
4, 169512, Pitch_bend_c, 2, 8400
4, 169531, Pitch_bend_c, 2, 8250
4, 169558, Pitch_bend_c, 2, 8250
4, 169586, Pitch_bend_c, 2, 8362
4, 169601, Pitch_bend_c, 2, 8570
4, 169617, Pitch_bend_c, 2, 8704
4, 169648, Pitch_bend_c, 2, 8437
4, 169671, Pitch_bend_c, 2, 8272
4, 169685, Control_c, 2, 11, 123
4, 169691, Pitch_bend_c, 2, 8250
4, 169712, Pitch_bend_c, 2, 8250
4, 169720, Control_c, 2, 11, 118
4, 169731, Pitch_bend_c, 2, 8309
4, 169740, Pitch_bend_c, 2, 8496
4, 169741, Control_c, 2, 11, 113
4, 169762, Pitch_bend_c, 2, 8704
4, 169765, Control_c, 2, 11, 107
4, 169787, Control_c, 2, 11, 102
4, 169797, Pitch_bend_c, 2, 8554
4, 169810, Control_c, 2, 11, 97
4, 169813, Pitch_bend_c, 2, 8346
4, 169831, Pitch_bend_c, 2, 8272
4, 169831, Control_c, 2, 11, 91
4, 169850, Pitch_bend_c, 2, 8192
4, 169855, Control_c, 2, 11, 87
4, 169877, Control_c, 2, 11, 82
4, 169906, Note_off_c, 2, 62, 64
4, 169911, Note_off_c, 2, 74, 64
4, 169936, Note_off_c, 2, 69, 64
4, 170017, Control_c, 2, 11, 9
4, 170100, Control_c, 2, 11, 127
4, 172017, Pitch_bend_c, 2, 8192
4, 172017, Note_on_c, 2, 76, 107
4, 172078, Pitch_bend_c, 2, 8309
4, 172141, Pitch_bend_c, 2, 8288
4, 172153, Pitch_bend_c, 2, 8330
4, 172168, Pitch_bend_c, 2, 8394
4, 172185, Pitch_bend_c, 2, 8480
4, 172200, Pitch_bend_c, 2, 8586
4, 172217, Pitch_bend_c, 2, 8672
4, 172235, Pitch_bend_c, 2, 8693
4, 172268, Pitch_bend_c, 2, 8672
4, 172272, Pitch_bend_c, 2, 8544
4, 172288, Pitch_bend_c, 2, 8373
4, 172305, Pitch_bend_c, 2, 8288
4, 172311, Control_c, 2, 11, 13
4, 172333, Control_c, 2, 11, 21
4, 172355, Pitch_bend_c, 2, 8309
4, 172355, Control_c, 2, 11, 30
4, 172365, Pitch_bend_c, 2, 8394
4, 172375, Pitch_bend_c, 2, 8650
4, 172377, Control_c, 2, 11, 39
4, 172392, Pitch_bend_c, 2, 8778
4, 172401, Control_c, 2, 11, 48
4, 172418, Pitch_bend_c, 2, 8778
4, 172423, Control_c, 2, 11, 56
4, 172433, Pitch_bend_c, 2, 8672
4, 172445, Pitch_bend_c, 2, 8394
4, 172446, Control_c, 2, 11, 64
4, 172462, Pitch_bend_c, 2, 8288
4, 172468, Control_c, 2, 11, 73
4, 172491, Control_c, 2, 11, 83
4, 172496, Pitch_bend_c, 2, 8266
4, 172506, Pitch_bend_c, 2, 8266
4, 172513, Control_c, 2, 11, 93
4, 172515, Pitch_bend_c, 2, 8458
4, 172533, Pitch_bend_c, 2, 8629
4, 172535, Control_c, 2, 11, 102
4, 172550, Pitch_bend_c, 2, 8693
4, 172558, Control_c, 2, 11, 110
4, 172567, Pitch_bend_c, 2, 8693
4, 172581, Control_c, 2, 11, 116
4, 172596, Pitch_bend_c, 2, 8586
4, 172602, Pitch_bend_c, 2, 8352
4, 172602, Control_c, 2, 11, 125
4, 172623, Pitch_bend_c, 2, 8288
4, 172626, Control_c, 2, 11, 127
4, 172638, Pitch_bend_c, 2, 8309
4, 172661, Pitch_bend_c, 2, 8416
4, 172672, Pitch_bend_c, 2, 8672
4, 172691, Pitch_bend_c, 2, 8800
4, 172715, Pitch_bend_c, 2, 8842
4, 172735, Pitch_bend_c, 2, 8821
4, 172742, Pitch_bend_c, 2, 8501
4, 172760, Pitch_bend_c, 2, 8330
4, 172777, Pitch_bend_c, 2, 8309
4, 172803, Pitch_bend_c, 2, 8352
4, 172813, Pitch_bend_c, 2, 8544
4, 172830, Pitch_bend_c, 2, 8714
4, 172850, Pitch_bend_c, 2, 8778
4, 172871, Pitch_bend_c, 2, 8757
4, 172883, Pitch_bend_c, 2, 8501
4, 172901, Pitch_bend_c, 2, 8352
4, 172927, Pitch_bend_c, 2, 8352
4, 172935, Pitch_bend_c, 2, 8352
4, 172955, Pitch_bend_c, 2, 8501
4, 172971, Pitch_bend_c, 2, 8714
4, 172988, Pitch_bend_c, 2, 8757
4, 173005, Pitch_bend_c, 2, 8778
4, 173025, Pitch_bend_c, 2, 8693
4, 173040, Pitch_bend_c, 2, 8416
4, 173058, Pitch_bend_c, 2, 8394
4, 173075, Pitch_bend_c, 2, 8394
4, 173095, Pitch_bend_c, 2, 8565
4, 173110, Pitch_bend_c, 2, 8736
4, 173128, Pitch_bend_c, 2, 8778
4, 173161, Pitch_bend_c, 2, 8800
4, 173162, Pitch_bend_c, 2, 8565
4, 173181, Pitch_bend_c, 2, 8394
4, 173200, Pitch_bend_c, 2, 8373
4, 173218, Pitch_bend_c, 2, 8373
4, 173233, Pitch_bend_c, 2, 8458
4, 173252, Pitch_bend_c, 2, 8672
4, 173270, Pitch_bend_c, 2, 8736
4, 173291, Pitch_bend_c, 2, 8736
4, 173306, Pitch_bend_c, 2, 8650
4, 173321, Pitch_bend_c, 2, 8330
4, 173338, Pitch_bend_c, 2, 8245
4, 173362, Pitch_bend_c, 2, 8266
4, 173373, Pitch_bend_c, 2, 8245
4, 173396, Pitch_bend_c, 2, 8437
4, 173411, Pitch_bend_c, 2, 8650
4, 173425, Pitch_bend_c, 2, 8778
4, 173445, Pitch_bend_c, 2, 8800
4, 173463, Pitch_bend_c, 2, 8757
4, 173481, Pitch_bend_c, 2, 8416
4, 173496, Pitch_bend_c, 2, 8288
4, 173518, Pitch_bend_c, 2, 8245
4, 173530, Pitch_bend_c, 2, 8416
4, 173548, Pitch_bend_c, 2, 8586
4, 173567, Pitch_bend_c, 2, 8714
4, 173602, Pitch_bend_c, 2, 8629
4, 173617, Pitch_bend_c, 2, 8330
4, 173638, Pitch_bend_c, 2, 8309
4, 173662, Pitch_bend_c, 2, 8266
4, 173671, Pitch_bend_c, 2, 8352
4, 173688, Pitch_bend_c, 2, 8501
4, 173707, Pitch_bend_c, 2, 8693
4, 173725, Pitch_bend_c, 2, 8842
4, 173742, Pitch_bend_c, 2, 8842
4, 173760, Pitch_bend_c, 2, 8586
4, 173776, Pitch_bend_c, 2, 8309
4, 173797, Pitch_bend_c, 2, 8266
4, 173818, Pitch_bend_c, 2, 8266
4, 173831, Pitch_bend_c, 2, 8330
4, 173847, Pitch_bend_c, 2, 8586
4, 173865, Pitch_bend_c, 2, 8736
4, 173880, Pitch_bend_c, 2, 8869
4, 173907, Pitch_bend_c, 2, 8890
4, 173928, Pitch_bend_c, 2, 8842
4, 173932, Pitch_bend_c, 2, 8586
4, 173932, Control_c, 2, 11, 126
4, 173950, Pitch_bend_c, 2, 8416
4, 173968, Pitch_bend_c, 2, 8352
4, 173976, Control_c, 2, 11, 122
4, 173991, Pitch_bend_c, 2, 8394
4, 174000, Control_c, 2, 11, 116
4, 174003, Pitch_bend_c, 2, 8608
4, 174022, Control_c, 2, 11, 110
4, 174023, Pitch_bend_c, 2, 8693
4, 174037, Note_off_c, 2, 76, 64
4, 174045, Control_c, 2, 11, 104
4, 174066, Control_c, 2, 11, 98
4, 174090, Control_c, 2, 11, 93
4, 174110, Control_c, 2, 11, 87
4, 174133, Control_c, 2, 11, 81
4, 174156, Control_c, 2, 11, 76
4, 174180, Control_c, 2, 11, 70
4, 174202, Control_c, 2, 11, 65
4, 174225, Control_c, 2, 11, 60
4, 174247, Control_c, 2, 11, 55
4, 174268, Control_c, 2, 11, 51
4, 174292, Control_c, 2, 11, 47
4, 174313, Control_c, 2, 11, 43
4, 174337, Control_c, 2, 11, 39
4, 174360, Control_c, 2, 11, 35
4, 174381, Control_c, 2, 11, 32
4, 174405, Control_c, 2, 11, 28
4, 174426, Control_c, 2, 11, 25
4, 174450, Control_c, 2, 11, 20
4, 174471, Control_c, 2, 11, 16
4, 174495, Control_c, 2, 11, 12
4, 174517, Control_c, 2, 11, 10
4, 174540, Control_c, 2, 11, 8
4, 174586, Control_c, 2, 11, 5
4, 174663, Control_c, 2, 11, 8
4, 174675, Control_c, 2, 11, 127
4, 178560, Pitch_bend_c, 2, 8245
4, 178560, Note_on_c, 2, 40, 87
4, 178688, Pitch_bend_c, 2, 8224
4, 178783, Pitch_bend_c, 2, 8245
4, 178853, Pitch_bend_c, 2, 8266
4, 178876, Pitch_bend_c, 2, 8288
4, 178902, Pitch_bend_c, 2, 8330
4, 178927, Pitch_bend_c, 2, 8352
4, 178978, Pitch_bend_c, 2, 8330
4, 178995, Pitch_bend_c, 2, 8309
4, 179021, Pitch_bend_c, 2, 8288
4, 179080, Pitch_bend_c, 2, 8330
4, 179097, Pitch_bend_c, 2, 8394
4, 179122, Pitch_bend_c, 2, 8416
4, 179131, Pitch_bend_c, 2, 8458
4, 179190, Pitch_bend_c, 2, 8416
4, 179215, Pitch_bend_c, 2, 8394
4, 179223, Pitch_bend_c, 2, 8352
4, 179241, Pitch_bend_c, 2, 8330
4, 179257, Pitch_bend_c, 2, 8309
4, 179308, Pitch_bend_c, 2, 8352
4, 179323, Pitch_bend_c, 2, 8394
4, 179342, Pitch_bend_c, 2, 8458
4, 179357, Pitch_bend_c, 2, 8501
4, 179397, Pitch_bend_c, 2, 8480
4, 179417, Pitch_bend_c, 2, 8458
4, 179427, Pitch_bend_c, 2, 8394
4, 179448, Pitch_bend_c, 2, 8352
4, 179468, Pitch_bend_c, 2, 8309
4, 179517, Pitch_bend_c, 2, 8352
4, 179535, Pitch_bend_c, 2, 8416
4, 179552, Pitch_bend_c, 2, 8480
4, 179568, Pitch_bend_c, 2, 8522
4, 179610, Pitch_bend_c, 2, 8501
4, 179626, Pitch_bend_c, 2, 8437
4, 179643, Pitch_bend_c, 2, 8394
4, 179661, Pitch_bend_c, 2, 8330
4, 179687, Pitch_bend_c, 2, 8309
4, 179703, Pitch_bend_c, 2, 8288
4, 179728, Pitch_bend_c, 2, 8330
4, 179745, Pitch_bend_c, 2, 8394
4, 179760, Pitch_bend_c, 2, 8480
4, 179778, Pitch_bend_c, 2, 8522
4, 179797, Pitch_bend_c, 2, 8522
4, 179821, Pitch_bend_c, 2, 8480
4, 179837, Pitch_bend_c, 2, 8458
4, 179847, Pitch_bend_c, 2, 8394
4, 179870, Pitch_bend_c, 2, 8352
4, 179887, Pitch_bend_c, 2, 8330
4, 179905, Pitch_bend_c, 2, 8309
4, 179922, Pitch_bend_c, 2, 8330
4, 179937, Pitch_bend_c, 2, 8394
4, 179955, Pitch_bend_c, 2, 8458
4, 179971, Pitch_bend_c, 2, 8522
4, 179988, Pitch_bend_c, 2, 8544
4, 180022, Pitch_bend_c, 2, 8501
4, 180040, Pitch_bend_c, 2, 8437
4, 180066, Pitch_bend_c, 2, 8373
4, 180081, Pitch_bend_c, 2, 8330
4, 180107, Pitch_bend_c, 2, 8309
4, 180123, Pitch_bend_c, 2, 8330
4, 180138, Pitch_bend_c, 2, 8352
4, 180156, Pitch_bend_c, 2, 8394
4, 180165, Pitch_bend_c, 2, 8458
4, 180181, Pitch_bend_c, 2, 8522
4, 180198, Pitch_bend_c, 2, 8565
4, 180215, Pitch_bend_c, 2, 8522
4, 180230, Control_c, 2, 11, 126
4, 180241, Pitch_bend_c, 2, 8480
4, 180256, Pitch_bend_c, 2, 8437
4, 180275, Pitch_bend_c, 2, 8394
4, 180291, Pitch_bend_c, 2, 8352
4, 180308, Pitch_bend_c, 2, 8330
4, 180325, Pitch_bend_c, 2, 8309
4, 180348, Pitch_bend_c, 2, 8330
4, 180360, Pitch_bend_c, 2, 8373
4, 180373, Pitch_bend_c, 2, 8458
4, 180391, Pitch_bend_c, 2, 8501
4, 180407, Pitch_bend_c, 2, 8565
4, 180450, Pitch_bend_c, 2, 8522
4, 180467, Pitch_bend_c, 2, 8480
4, 180477, Control_c, 2, 11, 124
4, 180485, Pitch_bend_c, 2, 8437
4, 180501, Pitch_bend_c, 2, 8373
4, 180518, Pitch_bend_c, 2, 8352
4, 180521, Control_c, 2, 11, 121
4, 180536, Pitch_bend_c, 2, 8330
4, 180556, Control_c, 2, 11, 118
4, 180558, Pitch_bend_c, 2, 8352
4, 180567, Pitch_bend_c, 2, 8416
4, 180567, Control_c, 2, 11, 114
4, 180585, Pitch_bend_c, 2, 8501
4, 180590, Control_c, 2, 11, 108
4, 180601, Pitch_bend_c, 2, 8565
4, 180611, Control_c, 2, 11, 103
4, 180617, Pitch_bend_c, 2, 8608
4, 180635, Control_c, 2, 11, 97
4, 180643, Pitch_bend_c, 2, 8565
4, 180656, Control_c, 2, 11, 92
4, 180667, Pitch_bend_c, 2, 8544
4, 180677, Pitch_bend_c, 2, 8480
4, 180680, Control_c, 2, 11, 87
4, 180693, Pitch_bend_c, 2, 8437
4, 180702, Control_c, 2, 11, 82
4, 180711, Pitch_bend_c, 2, 8394
4, 180725, Control_c, 2, 11, 78
4, 180727, Pitch_bend_c, 2, 8352
4, 180747, Control_c, 2, 11, 74
4, 180750, Pitch_bend_c, 2, 8330
4, 180758, Pitch_bend_c, 2, 8373
4, 180770, Control_c, 2, 11, 70
4, 180776, Pitch_bend_c, 2, 8416
4, 180792, Control_c, 2, 11, 66
4, 180793, Pitch_bend_c, 2, 8522
4, 180815, Control_c, 2, 11, 62
4, 180818, Pitch_bend_c, 2, 8544
4, 180827, Pitch_bend_c, 2, 8565
4, 180837, Control_c, 2, 11, 58
4, 180860, Pitch_bend_c, 2, 8544
4, 180860, Control_c, 2, 11, 55
4, 180868, Pitch_bend_c, 2, 8501
4, 180882, Control_c, 2, 11, 51
4, 180886, Pitch_bend_c, 2, 8437
4, 180902, Pitch_bend_c, 2, 8394
4, 180903, Control_c, 2, 11, 48
4, 180920, Pitch_bend_c, 2, 8352
4, 180926, Control_c, 2, 11, 45
4, 180951, Control_c, 2, 11, 42
4, 180961, Pitch_bend_c, 2, 8373
4, 180968, Pitch_bend_c, 2, 8416
4, 180972, Control_c, 2, 11, 40
4, 180986, Pitch_bend_c, 2, 8480
4, 180995, Control_c, 2, 11, 38
4, 181012, Pitch_bend_c, 2, 8522
4, 181017, Control_c, 2, 11, 35
4, 181020, Pitch_bend_c, 2, 8565
4, 181051, Control_c, 2, 11, 32
4, 181055, Pitch_bend_c, 2, 8480
4, 181078, Pitch_bend_c, 2, 8437
4, 181085, Control_c, 2, 11, 29
4, 181101, Pitch_bend_c, 2, 8458
4, 181118, Pitch_bend_c, 2, 8480
4, 181118, Control_c, 2, 11, 27
4, 181127, Pitch_bend_c, 2, 8522
4, 181143, Pitch_bend_c, 2, 8544
4, 181153, Control_c, 2, 11, 24
4, 181161, Pitch_bend_c, 2, 8586
4, 181195, Pitch_bend_c, 2, 8565
4, 181197, Control_c, 2, 11, 22
4, 181212, Pitch_bend_c, 2, 8501
4, 181233, Pitch_bend_c, 2, 8394
4, 181247, Pitch_bend_c, 2, 8309
4, 181255, Control_c, 2, 11, 19
4, 181272, Pitch_bend_c, 2, 8245
4, 181290, Pitch_bend_c, 2, 8224
4, 181306, Pitch_bend_c, 2, 8202
4, 181321, Control_c, 2, 11, 17
4, 181332, Pitch_bend_c, 2, 8182
4, 181333, Control_c, 2, 11, 24
4, 181355, Control_c, 2, 11, 127
4, 181376, Note_off_c, 2, 40, 64
4, 183210, Control_c, 2, 11, 125
4, 183218, Control_c, 2, 11, 118
4, 183241, Control_c, 2, 11, 108
4, 183265, Control_c, 2, 11, 98
4, 183286, Control_c, 2, 11, 89
4, 183308, Pitch_bend_c, 2, 8384
4, 183308, Control_c, 2, 11, 81
4, 183310, Note_on_c, 2, 62, 107
4, 183315, Pitch_bend_c, 2, 8192
4, 183316, Note_on_c, 2, 66, 100
4, 183320, Note_on_c, 2, 50, 106
4, 183320, Note_on_c, 2, 57, 107
4, 183332, Control_c, 2, 11, 74
4, 183355, Control_c, 2, 11, 69
4, 183377, Control_c, 2, 11, 64
4, 183398, Control_c, 2, 11, 61
4, 183421, Control_c, 2, 11, 58
4, 183445, Control_c, 2, 11, 56
4, 183477, Control_c, 2, 11, 53
4, 183533, Control_c, 2, 11, 61
4, 183557, Control_c, 2, 11, 69
4, 183578, Control_c, 2, 11, 78
4, 183602, Control_c, 2, 11, 91
4, 183625, Control_c, 2, 11, 103
4, 183647, Control_c, 2, 11, 122
4, 183670, Control_c, 2, 11, 127
4, 183843, Pitch_bend_c, 2, 8192
4, 183883, Pitch_bend_c, 2, 8192
4, 183891, Pitch_bend_c, 2, 8192
4, 184075, Control_c, 2, 11, 122
4, 184097, Control_c, 2, 11, 113
4, 184110, Note_off_c, 2, 62, 64
4, 184116, Note_off_c, 2, 66, 64
4, 184118, Control_c, 2, 11, 103
4, 184120, Note_off_c, 2, 57, 64
4, 184128, Note_on_c, 2, 52, 107
4, 184128, Pitch_bend_c, 2, 8144
4, 184135, Pitch_bend_c, 2, 8192
4, 184137, Note_on_c, 2, 59, 106
4, 184142, Control_c, 2, 11, 90
4, 184145, Note_on_c, 2, 64, 107
4, 184158, Note_on_c, 2, 67, 74
4, 184158, Pitch_bend_c, 2, 8192
4, 184160, Note_off_c, 2, 50, 64
4, 184165, Control_c, 2, 11, 80
4, 184186, Control_c, 2, 11, 72
4, 184210, Control_c, 2, 11, 66
4, 184232, Control_c, 2, 11, 62
4, 184255, Control_c, 2, 11, 58
4, 184277, Control_c, 2, 11, 55
4, 184312, Control_c, 2, 11, 52
4, 184345, Control_c, 2, 11, 50
4, 184378, Control_c, 2, 11, 53
4, 184390, Control_c, 2, 11, 59
4, 184412, Control_c, 2, 11, 65
4, 184435, Control_c, 2, 11, 72
4, 184457, Control_c, 2, 11, 78
4, 184478, Control_c, 2, 11, 84
4, 184501, Control_c, 2, 11, 91
4, 184526, Control_c, 2, 11, 97
4, 184547, Control_c, 2, 11, 102
4, 184570, Control_c, 2, 11, 107
4, 184592, Control_c, 2, 11, 112
4, 184615, Control_c, 2, 11, 118
4, 184637, Control_c, 2, 11, 127
4, 185527, Control_c, 2, 11, 126
4, 185686, Control_c, 2, 11, 124
4, 185730, Control_c, 2, 11, 120
4, 185741, Control_c, 2, 11, 116
4, 185763, Control_c, 2, 11, 110
4, 185786, Control_c, 2, 11, 105
4, 185808, Control_c, 2, 11, 99
4, 185830, Control_c, 2, 11, 94
4, 185852, Control_c, 2, 11, 89
4, 185876, Control_c, 2, 11, 84
4, 185898, Control_c, 2, 11, 79
4, 185921, Control_c, 2, 11, 75
4, 185942, Control_c, 2, 11, 71
4, 185966, Control_c, 2, 11, 67
4, 185987, Control_c, 2, 11, 62
4, 186010, Control_c, 2, 11, 59
4, 186033, Control_c, 2, 11, 55
4, 186056, Control_c, 2, 11, 51
4, 186078, Control_c, 2, 11, 48
4, 186101, Control_c, 2, 11, 44
4, 186123, Control_c, 2, 11, 41
4, 186146, Control_c, 2, 11, 38
4, 186170, Control_c, 2, 11, 37
4, 186191, Control_c, 2, 11, 34
4, 186213, Control_c, 2, 11, 32
4, 186236, Control_c, 2, 11, 29
4, 186270, Control_c, 2, 11, 26
4, 186281, Control_c, 2, 11, 25
4, 186316, Control_c, 2, 11, 22
4, 186337, Control_c, 2, 11, 19
4, 186371, Control_c, 2, 11, 16
4, 186393, Control_c, 2, 11, 14
4, 186427, Control_c, 2, 11, 11
4, 186460, Control_c, 2, 11, 8
4, 186495, Control_c, 2, 11, 5
4, 186552, Control_c, 2, 11, 3
4, 186568, Note_off_c, 2, 52, 64
4, 186598, Note_off_c, 2, 67, 64
4, 186605, Note_off_c, 2, 64, 64
4, 186617, Note_off_c, 2, 59, 64
4, 186675, Control_c, 2, 11, 0
4, 186855, Control_c, 2, 11, 1
4, 186923, Control_c, 2, 11, 9
4, 186935, Control_c, 2, 11, 126
4, 188357, Pitch_bend_c, 2, 8357
4, 188357, Note_on_c, 2, 69, 107
4, 188393, Pitch_bend_c, 2, 8330
4, 188426, Pitch_bend_c, 2, 8288
4, 188473, Pitch_bend_c, 2, 8304
4, 188486, Pitch_bend_c, 2, 8314
4, 188503, Pitch_bend_c, 2, 8346
4, 188522, Pitch_bend_c, 2, 8400
4, 188540, Pitch_bend_c, 2, 8442
4, 188552, Pitch_bend_c, 2, 8544
4, 188570, Pitch_bend_c, 2, 8613
4, 188591, Pitch_bend_c, 2, 8672
4, 188610, Pitch_bend_c, 2, 8714
4, 188625, Pitch_bend_c, 2, 8789
4, 188642, Pitch_bend_c, 2, 8858
4, 188660, Pitch_bend_c, 2, 8933
4, 188680, Pitch_bend_c, 2, 8992
4, 188695, Pitch_bend_c, 2, 9056
4, 188712, Pitch_bend_c, 2, 9130
4, 188732, Pitch_bend_c, 2, 9173
4, 188748, Pitch_bend_c, 2, 9205
4, 188763, Pitch_bend_c, 2, 9264
4, 188780, Pitch_bend_c, 2, 9322
4, 188800, Pitch_bend_c, 2, 9386
4, 188820, Pitch_bend_c, 2, 9418
4, 188835, Pitch_bend_c, 2, 9445
4, 188856, Pitch_bend_c, 2, 9477
4, 188871, Pitch_bend_c, 2, 9525
4, 188890, Pitch_bend_c, 2, 9557
4, 188905, Pitch_bend_c, 2, 9605
4, 188921, Pitch_bend_c, 2, 9632
4, 188947, Pitch_bend_c, 2, 9664
4, 188981, Pitch_bend_c, 2, 9680
4, 188990, Pitch_bend_c, 2, 9696
4, 189038, Pitch_bend_c, 2, 9712
4, 189071, Pitch_bend_c, 2, 9600
4, 189115, Pitch_bend_c, 2, 9504
4, 189175, Pitch_bend_c, 2, 9520
4, 189216, Pitch_bend_c, 2, 9520
4, 189278, Pitch_bend_c, 2, 9536
4, 189356, Pitch_bend_c, 2, 9536
4, 189480, Pitch_bend_c, 2, 9520
4, 189517, Pitch_bend_c, 2, 9536
4, 189555, Pitch_bend_c, 2, 9648
4, 189675, Pitch_bend_c, 2, 9504
4, 189711, Pitch_bend_c, 2, 9392
4, 189743, Pitch_bend_c, 2, 9376
4, 189777, Pitch_bend_c, 2, 9520
4, 189803, Pitch_bend_c, 2, 9536
4, 189813, Pitch_bend_c, 2, 9648
4, 190001, Note_off_c, 2, 69, 64
4, 191376, Pitch_bend_c, 2, 8192
4, 191376, End_track
5, 0, Start_track
5, 0, MIDI_port, 0
5, 0, Channel_prefix, 3
5, 0, Control_c, 3, 10, 64
5, 0, Program_c, 3, 72
5, 185, Control_c, 3, 121, 0
5, 265, Control_c, 3, 101, 0
5, 345, Control_c, 3, 100, 0
5, 425, Control_c, 3, 6, 12
5, 505, Program_c, 3, 64
5, 1460, Control_c, 3, 93, 0
5, 1540, Control_c, 3, 91, 92
5, 1620, Control_c, 3, 10, 64
5, 1700, Control_c, 3, 7, 97
5, 7606, Note_on_c, 3, 71, 55
5, 7747, Note_off_c, 3, 71, 64
5, 7873, Note_on_c, 3, 74, 57
5, 8073, Note_on_c, 3, 76, 70
5, 8085, Note_off_c, 3, 74, 64
5, 8173, Note_off_c, 3, 76, 64
5, 8376, Note_on_c, 3, 76, 74
5, 8548, Note_off_c, 3, 76, 64
5, 8640, Note_on_c, 3, 79, 107
5, 8771, Note_off_c, 3, 79, 64
5, 8771, Note_on_c, 3, 76, 102
5, 10031, Note_off_c, 3, 76, 64
5, 10708, Note_on_c, 3, 79, 97
5, 10762, Note_off_c, 3, 79, 64
5, 10935, Note_on_c, 3, 79, 107
5, 11448, Note_off_c, 3, 79, 64
5, 11470, Note_on_c, 3, 78, 77
5, 11545, Note_off_c, 3, 78, 64
5, 11601, Note_on_c, 3, 78, 77
5, 12857, Note_off_c, 3, 78, 64
5, 13467, Note_on_c, 3, 74, 64
5, 13618, Note_on_c, 3, 76, 78
5, 13625, Note_off_c, 3, 74, 64
5, 13763, Note_off_c, 3, 76, 64
5, 13882, Note_on_c, 3, 76, 78
5, 14077, Note_off_c, 3, 76, 64
5, 14286, Note_on_c, 3, 79, 107
5, 14483, Note_on_c, 3, 76, 75
5, 14500, Note_off_c, 3, 79, 64
5, 15527, Note_off_c, 3, 76, 64
5, 16465, Note_on_c, 3, 76, 80
5, 16520, Note_off_c, 3, 76, 64
5, 16713, Note_on_c, 3, 76, 94
5, 16816, Note_off_c, 3, 76, 64
5, 16853, Note_on_c, 3, 76, 80
5, 16983, Note_off_c, 3, 76, 64
5, 17253, Note_on_c, 3, 76, 90
5, 17846, Note_off_c, 3, 76, 64
5, 19226, Note_on_c, 3, 76, 64
5, 19277, Note_off_c, 3, 76, 64
5, 19442, Note_on_c, 3, 76, 84
5, 19692, Note_off_c, 3, 76, 64
5, 19738, Note_on_c, 3, 76, 87
5, 19822, Note_off_c, 3, 76, 64
5, 20133, Note_on_c, 3, 79, 107
5, 20258, Note_off_c, 3, 79, 64
5, 20368, Note_on_c, 3, 76, 78
5, 21052, Note_off_c, 3, 76, 64
5, 22091, Note_on_c, 3, 79, 107
5, 22138, Note_off_c, 3, 79, 64
5, 22352, Note_on_c, 3, 79, 107
5, 22778, Note_on_c, 3, 78, 58
5, 22790, Note_off_c, 3, 79, 64
5, 22846, Note_off_c, 3, 78, 64
5, 22973, Note_on_c, 3, 78, 95
5, 23256, Note_on_c, 3, 76, 65
5, 23281, Note_off_c, 3, 78, 64
5, 23345, Note_on_c, 3, 74, 80
5, 23346, Note_off_c, 3, 76, 64
5, 23616, Note_off_c, 3, 74, 64
5, 25188, Note_on_c, 3, 76, 78
5, 25237, Note_off_c, 3, 76, 64
5, 25415, Note_on_c, 3, 76, 84
5, 25632, Note_off_c, 3, 76, 64
5, 25658, Note_on_c, 3, 76, 40
5, 25732, Note_off_c, 3, 76, 64
5, 25898, Note_on_c, 3, 79, 107
5, 26017, Note_off_c, 3, 79, 64
5, 26041, Note_on_c, 3, 76, 90
5, 27062, Note_off_c, 3, 76, 64
5, 28053, Note_on_c, 3, 74, 97
5, 28320, Note_off_c, 3, 74, 64
5, 28338, Note_on_c, 3, 76, 70
5, 28417, Note_off_c, 3, 76, 64
5, 28546, Note_on_c, 3, 76, 66
5, 28626, Note_off_c, 3, 76, 64
5, 28688, Note_on_c, 3, 76, 106
5, 29612, Note_off_c, 3, 76, 64
5, 30955, Note_on_c, 3, 76, 100
5, 31048, Note_off_c, 3, 76, 64
5, 31181, Note_on_c, 3, 79, 107
5, 31386, Note_off_c, 3, 79, 64
5, 31512, Note_on_c, 3, 81, 80
5, 31557, Note_off_c, 3, 81, 64
5, 31668, Note_on_c, 3, 83, 107
5, 31820, Note_on_c, 3, 81, 70
5, 31853, Note_off_c, 3, 83, 64
5, 31913, Note_on_c, 3, 79, 97
5, 31945, Note_off_c, 3, 81, 64
5, 32775, Note_off_c, 3, 79, 64
5, 33777, Note_on_c, 3, 83, 107
5, 33786, Note_on_c, 3, 80, 74
5, 33790, Note_on_c, 3, 78, 65
5, 33802, Note_off_c, 3, 78, 64
5, 33805, Note_off_c, 3, 80, 64
5, 34241, Note_off_c, 3, 83, 64
5, 34312, Note_on_c, 3, 81, 80
5, 34358, Note_off_c, 3, 81, 64
5, 34516, Note_on_c, 3, 81, 107
5, 34766, Note_on_c, 3, 78, 77
5, 34783, Note_off_c, 3, 81, 64
5, 34828, Note_on_c, 3, 76, 72
5, 34862, Note_off_c, 3, 78, 64
5, 34937, Note_on_c, 3, 74, 80
5, 34963, Note_off_c, 3, 76, 64
5, 35465, Note_off_c, 3, 74, 64
5, 36725, Note_on_c, 3, 81, 102
5, 36956, Note_off_c, 3, 81, 64
5, 37008, Note_on_c, 3, 81, 95
5, 37071, Note_off_c, 3, 81, 64
5, 37201, Note_on_c, 3, 83, 107
5, 37281, Note_off_c, 3, 83, 64
5, 37385, Note_on_c, 3, 83, 107
5, 37416, Pitch_bend_c, 3, 8619
5, 37438, Pitch_bend_c, 3, 8959
5, 37737, Pitch_bend_c, 3, 8597
5, 37750, Pitch_bend_c, 3, 8192
5, 37795, Pitch_bend_c, 3, 8309
5, 37818, Pitch_bend_c, 3, 8959
5, 37887, Pitch_bend_c, 3, 8192
5, 37962, Note_on_c, 3, 81, 92
5, 38002, Note_off_c, 3, 83, 64
5, 38593, Note_off_c, 3, 81, 64
5, 39602, Note_on_c, 3, 83, 107
5, 39676, Pitch_bend_c, 3, 8838
5, 39711, Pitch_bend_c, 3, 8959
5, 39951, Pitch_bend_c, 3, 8787
5, 39965, Pitch_bend_c, 3, 8287
5, 39975, Pitch_bend_c, 3, 8192
5, 40055, Note_off_c, 3, 83, 64
5, 40057, Note_on_c, 3, 81, 107
5, 40137, Note_off_c, 3, 81, 64
5, 40251, Note_on_c, 3, 81, 107
5, 40263, Pitch_bend_c, 3, 8298
5, 40276, Pitch_bend_c, 3, 8645
5, 40286, Pitch_bend_c, 3, 9701
5, 40322, Pitch_bend_c, 3, 9599
5, 40632, Pitch_bend_c, 3, 9321
5, 40643, Pitch_bend_c, 3, 8276
5, 40655, Pitch_bend_c, 3, 8192
5, 40690, Pitch_bend_c, 3, 9599
5, 40770, Pitch_bend_c, 3, 9598
5, 40782, Pitch_bend_c, 3, 9321
5, 40795, Pitch_bend_c, 3, 8192
5, 40858, Note_on_c, 3, 79, 107
5, 40885, Note_off_c, 3, 81, 64
5, 41098, Note_off_c, 3, 79, 64
5, 42470, Note_on_c, 3, 76, 107
5, 42523, Note_off_c, 3, 76, 64
5, 42551, Note_on_c, 3, 79, 107
5, 43027, Note_off_c, 3, 79, 64
5, 43061, Note_on_c, 3, 81, 107
5, 43118, Note_off_c, 3, 81, 64
5, 43198, Note_on_c, 3, 83, 98
5, 44335, Note_off_c, 3, 83, 64
5, 45356, Note_on_c, 3, 79, 107
5, 45428, Note_off_c, 3, 79, 64
5, 45428, Note_on_c, 3, 83, 100
5, 45823, Note_on_c, 3, 81, 107
5, 45833, Note_off_c, 3, 83, 64
5, 45877, Note_off_c, 3, 81, 64
5, 46017, Pitch_bend_c, 3, 9690
5, 46040, Pitch_bend_c, 3, 10239
5, 46050, Note_on_c, 3, 78, 93
5, 46421, Pitch_bend_c, 3, 9299
5, 46443, Pitch_bend_c, 3, 8192
5, 46646, Pitch_bend_c, 3, 7632
5, 46670, Pitch_bend_c, 3, 6784
5, 46806, Pitch_bend_c, 3, 8096
5, 46830, Pitch_bend_c, 3, 8192
5, 46911, Pitch_bend_c, 3, 7537
5, 46933, Pitch_bend_c, 3, 6784
5, 46992, Pitch_bend_c, 3, 7906
5, 47015, Pitch_bend_c, 3, 8192
5, 47072, Pitch_bend_c, 3, 7252
5, 47083, Pitch_bend_c, 3, 6784
5, 47195, Pitch_bend_c, 3, 5456
5, 47966, Note_off_c, 3, 78, 64
5, 48132, Pitch_bend_c, 3, 8192
5, 48218, Note_on_c, 3, 81, 107
5, 48255, Note_off_c, 3, 81, 64
5, 48390, Note_on_c, 3, 81, 107
5, 48687, Note_on_c, 3, 79, 107
5, 48698, Note_off_c, 3, 81, 64
5, 48733, Note_off_c, 3, 79, 64
5, 48831, Pitch_bend_c, 3, 10143
5, 48852, Pitch_bend_c, 3, 10239
5, 48861, Note_on_c, 3, 76, 107
5, 49250, Pitch_bend_c, 3, 10070
5, 49262, Pitch_bend_c, 3, 8192
5, 49476, Pitch_bend_c, 3, 7285
5, 49497, Pitch_bend_c, 3, 6902
5, 49508, Pitch_bend_c, 3, 6784
5, 49600, Pitch_bend_c, 3, 6902
5, 49621, Pitch_bend_c, 3, 7274
5, 49632, Pitch_bend_c, 3, 8192
5, 49722, Pitch_bend_c, 3, 7537
5, 49746, Pitch_bend_c, 3, 6784
5, 49802, Pitch_bend_c, 3, 6978
5, 49813, Pitch_bend_c, 3, 7811
5, 49825, Pitch_bend_c, 3, 8192
5, 49892, Pitch_bend_c, 3, 7621
5, 49915, Pitch_bend_c, 3, 6784
5, 50043, Pitch_bend_c, 3, 6579
5, 50066, Pitch_bend_c, 3, 5456
5, 50863, Note_off_c, 3, 76, 64
5, 51095, Pitch_bend_c, 3, 8192
5, 51110, Note_on_c, 3, 76, 100
5, 51446, Note_off_c, 3, 76, 64
5, 51595, Note_on_c, 3, 79, 107
5, 51620, Note_off_c, 3, 79, 64
5, 51733, Note_on_c, 3, 79, 107
5, 52937, Note_off_c, 3, 79, 64
5, 54002, Note_on_c, 3, 76, 100
5, 54043, Note_off_c, 3, 76, 64
5, 54208, Note_on_c, 3, 76, 107
5, 54455, Note_off_c, 3, 76, 64
5, 54501, Note_on_c, 3, 76, 88
5, 54548, Note_off_c, 3, 76, 64
5, 54707, Note_on_c, 3, 79, 107
5, 54843, Note_off_c, 3, 79, 64
5, 54871, Note_on_c, 3, 76, 102
5, 56218, Note_off_c, 3, 76, 64
5, 56812, Note_on_c, 3, 79, 107
5, 57278, Note_off_c, 3, 79, 64
5, 57320, Note_on_c, 3, 78, 107
5, 57371, Note_off_c, 3, 78, 64
5, 57598, Note_on_c, 3, 78, 107
5, 57686, Note_on_c, 3, 76, 92
5, 57721, Note_off_c, 3, 78, 64
5, 57765, Note_on_c, 3, 74, 83
5, 57798, Note_off_c, 3, 76, 64
5, 59065, Note_off_c, 3, 74, 64
5, 59742, Note_on_c, 3, 74, 98
5, 59830, Note_off_c, 3, 74, 64
5, 59851, Note_on_c, 3, 76, 91
5, 59948, Note_off_c, 3, 76, 64
5, 59952, Note_on_c, 3, 76, 87
5, 60223, Note_off_c, 3, 76, 64
5, 60490, Note_on_c, 3, 79, 107
5, 60610, Note_off_c, 3, 79, 64
5, 60628, Note_on_c, 3, 76, 106
5, 61895, Note_off_c, 3, 76, 64
5, 62635, Note_on_c, 3, 74, 94
5, 62691, Note_off_c, 3, 74, 64
5, 62852, Note_on_c, 3, 76, 100
5, 62917, Note_off_c, 3, 76, 64
5, 62995, Pitch_bend_c, 3, 7906
5, 63006, Pitch_bend_c, 3, 7274
5, 63027, Pitch_bend_c, 3, 6785
5, 63040, Pitch_bend_c, 3, 6784
5, 63080, Note_on_c, 3, 76, 104
5, 63152, Pitch_bend_c, 3, 6894
5, 63163, Pitch_bend_c, 3, 7358
5, 63176, Pitch_bend_c, 3, 7917
5, 63197, Pitch_bend_c, 3, 8192
5, 64017, Note_off_c, 3, 76, 64
5, 76826, Note_on_c, 3, 76, 104
5, 76877, Note_off_c, 3, 76, 64
5, 77042, Note_on_c, 3, 76, 124
5, 77292, Note_off_c, 3, 76, 64
5, 77338, Note_on_c, 3, 76, 127
5, 77422, Note_off_c, 3, 76, 64
5, 77733, Note_on_c, 3, 79, 127
5, 77858, Note_off_c, 3, 79, 64
5, 77968, Note_on_c, 3, 76, 118
5, 78652, Note_off_c, 3, 76, 64
5, 79691, Note_on_c, 3, 79, 127
5, 79738, Note_off_c, 3, 79, 64
5, 79952, Note_on_c, 3, 79, 127
5, 80378, Note_on_c, 3, 78, 98
5, 80390, Note_off_c, 3, 79, 64
5, 80446, Note_off_c, 3, 78, 64
5, 80573, Note_on_c, 3, 78, 127
5, 80856, Note_on_c, 3, 76, 105
5, 80881, Note_off_c, 3, 78, 64
5, 80945, Note_on_c, 3, 74, 120
5, 80946, Note_off_c, 3, 76, 64
5, 81216, Note_off_c, 3, 74, 64
5, 82788, Note_on_c, 3, 76, 118
5, 82837, Note_off_c, 3, 76, 64
5, 83015, Note_on_c, 3, 76, 124
5, 83232, Note_off_c, 3, 76, 64
5, 83258, Note_on_c, 3, 76, 80
5, 83332, Note_off_c, 3, 76, 64
5, 83498, Note_on_c, 3, 79, 127
5, 83617, Note_off_c, 3, 79, 64
5, 83641, Note_on_c, 3, 76, 127
5, 84662, Note_off_c, 3, 76, 64
5, 85653, Note_on_c, 3, 74, 127
5, 85920, Note_off_c, 3, 74, 64
5, 85938, Note_on_c, 3, 76, 110
5, 86017, Note_off_c, 3, 76, 64
5, 86146, Note_on_c, 3, 76, 106
5, 86226, Note_off_c, 3, 76, 64
5, 86288, Note_on_c, 3, 76, 127
5, 87212, Note_off_c, 3, 76, 64
5, 88555, Note_on_c, 3, 76, 127
5, 88648, Note_off_c, 3, 76, 64
5, 88781, Note_on_c, 3, 79, 127
5, 88986, Note_off_c, 3, 79, 64
5, 89112, Note_on_c, 3, 81, 120
5, 89157, Note_off_c, 3, 81, 64
5, 89268, Note_on_c, 3, 83, 127
5, 89420, Note_on_c, 3, 81, 110
5, 89453, Note_off_c, 3, 83, 64
5, 89513, Note_on_c, 3, 79, 127
5, 89545, Note_off_c, 3, 81, 64
5, 90375, Note_off_c, 3, 79, 64
5, 91377, Note_on_c, 3, 83, 127
5, 91386, Note_on_c, 3, 80, 114
5, 91390, Note_on_c, 3, 78, 105
5, 91402, Note_off_c, 3, 78, 64
5, 91405, Note_off_c, 3, 80, 64
5, 91841, Note_off_c, 3, 83, 64
5, 91912, Note_on_c, 3, 81, 120
5, 91958, Note_off_c, 3, 81, 64
5, 92116, Note_on_c, 3, 81, 127
5, 92366, Note_on_c, 3, 78, 117
5, 92383, Note_off_c, 3, 81, 64
5, 92428, Note_on_c, 3, 76, 112
5, 92462, Note_off_c, 3, 78, 64
5, 92537, Note_on_c, 3, 74, 120
5, 92563, Note_off_c, 3, 76, 64
5, 93065, Note_off_c, 3, 74, 64
5, 94325, Note_on_c, 3, 81, 127
5, 94556, Note_off_c, 3, 81, 64
5, 94608, Note_on_c, 3, 81, 127
5, 94671, Note_off_c, 3, 81, 64
5, 94801, Note_on_c, 3, 83, 127
5, 94881, Note_off_c, 3, 83, 64
5, 94985, Note_on_c, 3, 83, 127
5, 95016, Pitch_bend_c, 3, 8619
5, 95038, Pitch_bend_c, 3, 8959
5, 95337, Pitch_bend_c, 3, 8597
5, 95350, Pitch_bend_c, 3, 8192
5, 95395, Pitch_bend_c, 3, 8309
5, 95418, Pitch_bend_c, 3, 8959
5, 95487, Pitch_bend_c, 3, 8703
5, 95498, Pitch_bend_c, 3, 8192
5, 95562, Note_on_c, 3, 81, 127
5, 95602, Note_off_c, 3, 83, 64
5, 96193, Note_off_c, 3, 81, 64
5, 97202, Note_on_c, 3, 83, 127
5, 97276, Pitch_bend_c, 3, 8495
5, 97287, Pitch_bend_c, 3, 8838
5, 97311, Pitch_bend_c, 3, 8959
5, 97551, Pitch_bend_c, 3, 8787
5, 97565, Pitch_bend_c, 3, 8192
5, 97655, Note_off_c, 3, 83, 64
5, 97657, Note_on_c, 3, 81, 127
5, 97737, Note_off_c, 3, 81, 64
5, 97851, Note_on_c, 3, 81, 127
5, 97863, Pitch_bend_c, 3, 8645
5, 97886, Pitch_bend_c, 3, 9120
5, 97897, Pitch_bend_c, 3, 9701
5, 97922, Pitch_bend_c, 3, 9599
5, 98232, Pitch_bend_c, 3, 8276
5, 98255, Pitch_bend_c, 3, 8192
5, 98290, Pitch_bend_c, 3, 9047
5, 98302, Pitch_bend_c, 3, 9599
5, 98370, Pitch_bend_c, 3, 9321
5, 98395, Pitch_bend_c, 3, 8192
5, 98458, Note_on_c, 3, 79, 127
5, 98485, Note_off_c, 3, 81, 64
5, 98698, Note_off_c, 3, 79, 64
5, 100070, Note_on_c, 3, 76, 127
5, 100123, Note_off_c, 3, 76, 64
5, 100151, Note_on_c, 3, 79, 127
5, 100627, Note_off_c, 3, 79, 64
5, 100661, Note_on_c, 3, 81, 127
5, 100718, Note_off_c, 3, 81, 64
5, 100798, Note_on_c, 3, 83, 127
5, 101935, Note_off_c, 3, 83, 64
5, 102956, Note_on_c, 3, 79, 127
5, 103028, Note_off_c, 3, 79, 64
5, 103028, Note_on_c, 3, 83, 127
5, 103423, Note_on_c, 3, 81, 127
5, 103433, Note_off_c, 3, 83, 64
5, 103477, Note_off_c, 3, 81, 64
5, 103617, Pitch_bend_c, 3, 9690
5, 103640, Pitch_bend_c, 3, 10239
5, 103650, Note_on_c, 3, 78, 127
5, 104021, Pitch_bend_c, 3, 9299
5, 104043, Pitch_bend_c, 3, 8192
5, 104246, Pitch_bend_c, 3, 7632
5, 104270, Pitch_bend_c, 3, 6784
5, 104406, Pitch_bend_c, 3, 8096
5, 104430, Pitch_bend_c, 3, 8192
5, 104511, Pitch_bend_c, 3, 7537
5, 104533, Pitch_bend_c, 3, 6784
5, 104592, Pitch_bend_c, 3, 7073
5, 104603, Pitch_bend_c, 3, 7906
5, 104615, Pitch_bend_c, 3, 8192
5, 104672, Pitch_bend_c, 3, 6784
5, 104795, Pitch_bend_c, 3, 5456
5, 105566, Note_off_c, 3, 78, 64
5, 105732, Pitch_bend_c, 3, 8192
5, 105818, Note_on_c, 3, 81, 127
5, 105855, Note_off_c, 3, 81, 64
5, 105990, Note_on_c, 3, 81, 127
5, 106287, Note_on_c, 3, 79, 127
5, 106298, Note_off_c, 3, 81, 64
5, 106333, Note_off_c, 3, 79, 64
5, 106431, Pitch_bend_c, 3, 9014
5, 106441, Pitch_bend_c, 3, 10143
5, 106452, Pitch_bend_c, 3, 10239
5, 106461, Note_on_c, 3, 76, 127
5, 106850, Pitch_bend_c, 3, 10070
5, 106862, Pitch_bend_c, 3, 9036
5, 106873, Pitch_bend_c, 3, 8192
5, 107076, Pitch_bend_c, 3, 8074
5, 107086, Pitch_bend_c, 3, 6902
5, 107108, Pitch_bend_c, 3, 6784
5, 107200, Pitch_bend_c, 3, 6902
5, 107221, Pitch_bend_c, 3, 7274
5, 107232, Pitch_bend_c, 3, 8023
5, 107243, Pitch_bend_c, 3, 8192
5, 107322, Pitch_bend_c, 3, 7537
5, 107346, Pitch_bend_c, 3, 6784
5, 107402, Pitch_bend_c, 3, 7811
5, 107425, Pitch_bend_c, 3, 8192
5, 107492, Pitch_bend_c, 3, 7621
5, 107515, Pitch_bend_c, 3, 6784
5, 107643, Pitch_bend_c, 3, 6579
5, 107666, Pitch_bend_c, 3, 5456
5, 108463, Note_off_c, 3, 76, 64
5, 108695, Pitch_bend_c, 3, 8192
5, 108710, Note_on_c, 3, 76, 127
5, 109046, Note_off_c, 3, 76, 64
5, 109195, Note_on_c, 3, 79, 127
5, 109220, Note_off_c, 3, 79, 64
5, 109333, Note_on_c, 3, 79, 127
5, 110537, Note_off_c, 3, 79, 64
5, 111602, Note_on_c, 3, 76, 127
5, 111643, Note_off_c, 3, 76, 64
5, 111808, Note_on_c, 3, 76, 127
5, 112055, Note_off_c, 3, 76, 64
5, 112101, Note_on_c, 3, 76, 127
5, 112148, Note_off_c, 3, 76, 64
5, 112307, Note_on_c, 3, 79, 127
5, 112443, Note_off_c, 3, 79, 64
5, 112471, Note_on_c, 3, 76, 127
5, 113818, Note_off_c, 3, 76, 64
5, 114412, Note_on_c, 3, 79, 127
5, 114878, Note_off_c, 3, 79, 64
5, 114920, Note_on_c, 3, 78, 127
5, 114971, Note_off_c, 3, 78, 64
5, 115198, Note_on_c, 3, 78, 127
5, 115286, Note_on_c, 3, 76, 127
5, 115321, Note_off_c, 3, 78, 64
5, 115365, Note_on_c, 3, 74, 123
5, 115398, Note_off_c, 3, 76, 64
5, 116665, Note_off_c, 3, 74, 64
5, 117342, Note_on_c, 3, 74, 127
5, 117430, Note_off_c, 3, 74, 64
5, 117451, Note_on_c, 3, 76, 127
5, 117548, Note_off_c, 3, 76, 64
5, 117552, Note_on_c, 3, 76, 127
5, 117823, Note_off_c, 3, 76, 64
5, 118090, Note_on_c, 3, 79, 127
5, 118210, Note_off_c, 3, 79, 64
5, 118228, Note_on_c, 3, 76, 127
5, 119495, Note_off_c, 3, 76, 64
5, 120235, Note_on_c, 3, 74, 127
5, 120291, Note_off_c, 3, 74, 64
5, 120452, Note_on_c, 3, 76, 127
5, 120517, Note_off_c, 3, 76, 64
5, 120595, Pitch_bend_c, 3, 7274
5, 120627, Pitch_bend_c, 3, 6784
5, 120680, Note_on_c, 3, 76, 127
5, 120752, Pitch_bend_c, 3, 7358
5, 120776, Pitch_bend_c, 3, 7632
5, 120786, Pitch_bend_c, 3, 8107
5, 120808, Pitch_bend_c, 3, 8192
5, 121617, Note_off_c, 3, 76, 64
5, 134635, Note_on_c, 3, 76, 127
5, 134728, Note_off_c, 3, 76, 64
5, 134861, Note_on_c, 3, 79, 127
5, 135066, Note_off_c, 3, 79, 64
5, 135192, Note_on_c, 3, 81, 120
5, 135237, Note_off_c, 3, 81, 64
5, 135348, Note_on_c, 3, 83, 127
5, 135500, Note_on_c, 3, 81, 110
5, 135533, Note_off_c, 3, 83, 64
5, 135593, Note_on_c, 3, 79, 127
5, 135625, Note_off_c, 3, 81, 64
5, 136455, Note_off_c, 3, 79, 64
5, 137457, Note_on_c, 3, 83, 127
5, 137466, Note_on_c, 3, 80, 114
5, 137470, Note_on_c, 3, 78, 105
5, 137482, Note_off_c, 3, 78, 64
5, 137485, Note_off_c, 3, 80, 64
5, 137921, Note_off_c, 3, 83, 64
5, 137992, Note_on_c, 3, 81, 120
5, 138038, Note_off_c, 3, 81, 64
5, 138196, Note_on_c, 3, 81, 127
5, 138446, Note_on_c, 3, 78, 117
5, 138463, Note_off_c, 3, 81, 64
5, 138508, Note_on_c, 3, 76, 112
5, 138542, Note_off_c, 3, 78, 64
5, 138617, Note_on_c, 3, 74, 120
5, 138643, Note_off_c, 3, 76, 64
5, 139145, Note_off_c, 3, 74, 64
5, 140405, Note_on_c, 3, 81, 127
5, 140636, Note_off_c, 3, 81, 64
5, 140688, Note_on_c, 3, 81, 127
5, 140751, Note_off_c, 3, 81, 64
5, 140881, Note_on_c, 3, 83, 127
5, 140961, Note_off_c, 3, 83, 64
5, 141065, Note_on_c, 3, 83, 127
5, 141096, Pitch_bend_c, 3, 8619
5, 141118, Pitch_bend_c, 3, 8959
5, 141417, Pitch_bend_c, 3, 8192
5, 141475, Pitch_bend_c, 3, 8309
5, 141498, Pitch_bend_c, 3, 8959
5, 141567, Pitch_bend_c, 3, 8703
5, 141578, Pitch_bend_c, 3, 8192
5, 141642, Note_on_c, 3, 81, 127
5, 141682, Note_off_c, 3, 83, 64
5, 142273, Note_off_c, 3, 81, 64
5, 143282, Note_on_c, 3, 83, 127
5, 143356, Pitch_bend_c, 3, 8495
5, 143367, Pitch_bend_c, 3, 8838
5, 143391, Pitch_bend_c, 3, 8959
5, 143631, Pitch_bend_c, 3, 8787
5, 143645, Pitch_bend_c, 3, 8192
5, 143735, Note_off_c, 3, 83, 64
5, 143737, Note_on_c, 3, 81, 127
5, 143817, Note_off_c, 3, 81, 64
5, 143931, Note_on_c, 3, 81, 127
5, 143943, Pitch_bend_c, 3, 8298
5, 143956, Pitch_bend_c, 3, 9120
5, 143977, Pitch_bend_c, 3, 9701
5, 144002, Pitch_bend_c, 3, 9599
5, 144312, Pitch_bend_c, 3, 9321
5, 144323, Pitch_bend_c, 3, 8192
5, 144370, Pitch_bend_c, 3, 9047
5, 144382, Pitch_bend_c, 3, 9599
5, 144450, Pitch_bend_c, 3, 9598
5, 144462, Pitch_bend_c, 3, 8192
5, 144538, Note_on_c, 3, 79, 127
5, 144565, Note_off_c, 3, 81, 64
5, 144778, Note_off_c, 3, 79, 64
5, 146150, Note_on_c, 3, 76, 127
5, 146203, Note_off_c, 3, 76, 64
5, 146231, Note_on_c, 3, 79, 127
5, 146707, Note_off_c, 3, 79, 64
5, 146741, Note_on_c, 3, 81, 127
5, 146798, Note_off_c, 3, 81, 64
5, 146878, Note_on_c, 3, 83, 127
5, 148015, Note_off_c, 3, 83, 64
5, 149036, Note_on_c, 3, 79, 127
5, 149108, Note_off_c, 3, 79, 64
5, 149108, Note_on_c, 3, 83, 127
5, 149503, Note_on_c, 3, 81, 127
5, 149513, Note_off_c, 3, 83, 64
5, 149557, Note_off_c, 3, 81, 64
5, 149697, Pitch_bend_c, 3, 9690
5, 149720, Pitch_bend_c, 3, 10239
5, 149730, Note_on_c, 3, 78, 127
5, 150101, Pitch_bend_c, 3, 9299
5, 150123, Pitch_bend_c, 3, 8192
5, 150326, Pitch_bend_c, 3, 7632
5, 150350, Pitch_bend_c, 3, 6784
5, 150486, Pitch_bend_c, 3, 8096
5, 150510, Pitch_bend_c, 3, 8192
5, 150591, Pitch_bend_c, 3, 7537
5, 150613, Pitch_bend_c, 3, 6784
5, 150672, Pitch_bend_c, 3, 7073
5, 150683, Pitch_bend_c, 3, 7906
5, 150695, Pitch_bend_c, 3, 8192
5, 150752, Pitch_bend_c, 3, 7252
5, 150763, Pitch_bend_c, 3, 6784
5, 150875, Pitch_bend_c, 3, 5456
5, 151646, Note_off_c, 3, 78, 64
5, 151812, Pitch_bend_c, 3, 8192
5, 151898, Note_on_c, 3, 81, 127
5, 151935, Note_off_c, 3, 81, 64
5, 152070, Note_on_c, 3, 81, 127
5, 152367, Note_on_c, 3, 79, 127
5, 152378, Note_off_c, 3, 81, 64
5, 152413, Note_off_c, 3, 79, 64
5, 152511, Pitch_bend_c, 3, 9014
5, 152521, Pitch_bend_c, 3, 10143
5, 152532, Pitch_bend_c, 3, 10239
5, 152541, Note_on_c, 3, 76, 127
5, 152930, Pitch_bend_c, 3, 10070
5, 152942, Pitch_bend_c, 3, 9036
5, 152953, Pitch_bend_c, 3, 8192
5, 153156, Pitch_bend_c, 3, 8074
5, 153166, Pitch_bend_c, 3, 7285
5, 153177, Pitch_bend_c, 3, 6784
5, 153280, Pitch_bend_c, 3, 6902
5, 153301, Pitch_bend_c, 3, 8023
5, 153323, Pitch_bend_c, 3, 8192
5, 153402, Pitch_bend_c, 3, 7537
5, 153426, Pitch_bend_c, 3, 6784
5, 153482, Pitch_bend_c, 3, 6978
5, 153493, Pitch_bend_c, 3, 8192
5, 153572, Pitch_bend_c, 3, 7621
5, 153595, Pitch_bend_c, 3, 6784
5, 153723, Pitch_bend_c, 3, 6579
5, 153746, Pitch_bend_c, 3, 5456
5, 154543, Note_off_c, 3, 76, 64
5, 154775, Pitch_bend_c, 3, 8192
5, 154790, Note_on_c, 3, 76, 127
5, 155126, Note_off_c, 3, 76, 64
5, 155275, Note_on_c, 3, 79, 127
5, 155300, Note_off_c, 3, 79, 64
5, 155413, Note_on_c, 3, 79, 127
5, 156617, Note_off_c, 3, 79, 64
5, 157682, Note_on_c, 3, 76, 127
5, 157723, Note_off_c, 3, 76, 64
5, 157888, Note_on_c, 3, 76, 127
5, 158135, Note_off_c, 3, 76, 64
5, 158181, Note_on_c, 3, 76, 127
5, 158228, Note_off_c, 3, 76, 64
5, 158387, Note_on_c, 3, 79, 127
5, 158523, Note_off_c, 3, 79, 64
5, 158551, Note_on_c, 3, 76, 127
5, 159898, Note_off_c, 3, 76, 64
5, 160492, Note_on_c, 3, 79, 127
5, 160958, Note_off_c, 3, 79, 64
5, 161000, Note_on_c, 3, 78, 127
5, 161051, Note_off_c, 3, 78, 64
5, 161278, Note_on_c, 3, 78, 127
5, 161366, Note_on_c, 3, 76, 127
5, 161401, Note_off_c, 3, 78, 64
5, 161445, Note_on_c, 3, 74, 123
5, 161478, Note_off_c, 3, 76, 64
5, 162745, Note_off_c, 3, 74, 64
5, 163422, Note_on_c, 3, 74, 127
5, 163510, Note_off_c, 3, 74, 64
5, 163531, Note_on_c, 3, 76, 127
5, 163628, Note_off_c, 3, 76, 64
5, 163632, Note_on_c, 3, 76, 127
5, 163903, Note_off_c, 3, 76, 64
5, 164170, Note_on_c, 3, 79, 127
5, 164290, Note_off_c, 3, 79, 64
5, 164308, Note_on_c, 3, 76, 127
5, 165575, Note_off_c, 3, 76, 64
5, 166315, Note_on_c, 3, 74, 127
5, 166371, Note_off_c, 3, 74, 64
5, 166532, Note_on_c, 3, 76, 127
5, 166597, Note_off_c, 3, 76, 64
5, 166675, Pitch_bend_c, 3, 7274
5, 166707, Pitch_bend_c, 3, 6784
5, 166760, Note_on_c, 3, 76, 127
5, 166832, Pitch_bend_c, 3, 7358
5, 166856, Pitch_bend_c, 3, 7632
5, 166866, Pitch_bend_c, 3, 8107
5, 166888, Pitch_bend_c, 3, 8192
5, 167697, Note_off_c, 3, 76, 64
5, 169156, Pitch_bend_c, 3, 7051
5, 169175, Note_on_c, 3, 71, 127
5, 169188, Pitch_bend_c, 3, 6785
5, 169201, Pitch_bend_c, 3, 6784
5, 169281, Pitch_bend_c, 3, 6785
5, 169371, Pitch_bend_c, 3, 6788
5, 169383, Pitch_bend_c, 3, 7073
5, 169406, Pitch_bend_c, 3, 7285
5, 169417, Pitch_bend_c, 3, 7358
5, 169441, Pitch_bend_c, 3, 7431
5, 169462, Pitch_bend_c, 3, 7537
5, 169475, Pitch_bend_c, 3, 7727
5, 169496, Pitch_bend_c, 3, 7822
5, 169510, Pitch_bend_c, 3, 8023
5, 169532, Pitch_bend_c, 3, 7990
5, 169543, Pitch_bend_c, 3, 8192
5, 169660, Note_off_c, 3, 71, 64
5, 169660, Note_on_c, 3, 69, 127
5, 169812, Note_off_c, 3, 69, 64
5, 172366, Note_on_c, 3, 69, 127
5, 172447, Pitch_bend_c, 3, 9098
5, 172481, Pitch_bend_c, 3, 9599
5, 172595, Pitch_bend_c, 3, 9394
5, 172606, Pitch_bend_c, 3, 8192
5, 172652, Note_off_c, 3, 69, 64
5, 172680, Note_on_c, 3, 67, 127
5, 172747, Note_off_c, 3, 67, 64
5, 172786, Note_on_c, 3, 69, 127
5, 172880, Pitch_bend_c, 3, 8645
5, 172890, Pitch_bend_c, 3, 9416
5, 172913, Pitch_bend_c, 3, 9599
5, 173148, Note_off_c, 3, 69, 64
5, 173288, Pitch_bend_c, 3, 9098
5, 173312, Pitch_bend_c, 3, 8762
5, 173323, Pitch_bend_c, 3, 8192
5, 174938, Note_on_c, 3, 62, 127
5, 174988, Note_off_c, 3, 62, 64
5, 175171, Note_on_c, 3, 64, 127
5, 175213, Note_off_c, 3, 64, 64
5, 175417, Note_on_c, 3, 64, 127
5, 175677, Note_off_c, 3, 64, 64
5, 177828, Note_on_c, 3, 67, 127
5, 177911, Note_off_c, 3, 67, 64
5, 177923, Note_on_c, 3, 66, 127
5, 178223, Note_off_c, 3, 66, 64
5, 178312, Note_on_c, 3, 66, 127
5, 178392, Note_off_c, 3, 66, 64
5, 178531, Note_on_c, 3, 64, 127
5, 178812, Note_off_c, 3, 64, 64
5, 180937, Note_on_c, 3, 62, 127
5, 180986, Note_off_c, 3, 62, 64
5, 181181, Note_on_c, 3, 64, 127
5, 181237, Note_off_c, 3, 64, 64
5, 181425, Note_on_c, 3, 64, 127
5, 181661, Note_off_c, 3, 64, 64
5, 185582, Note_on_c, 3, 64, 120
5, 185645, Note_off_c, 3, 64, 64
5, 185681, Pitch_bend_c, 3, 6788
5, 185693, Note_on_c, 3, 64, 93
5, 185703, Pitch_bend_c, 3, 6784
5, 185705, Note_on_c, 3, 67, 127
5, 185738, Note_off_c, 3, 64, 64
5, 185805, Pitch_bend_c, 3, 7285
5, 185816, Pitch_bend_c, 3, 8192
5, 185872, Note_on_c, 3, 66, 127
5, 185898, Note_off_c, 3, 67, 64
5, 186237, Note_off_c, 3, 66, 64
5, 186253, Note_on_c, 3, 62, 118
5, 186320, Note_off_c, 3, 62, 64
5, 186386, Pitch_bend_c, 3, 7431
5, 186400, Note_on_c, 3, 66, 127
5, 186408, Pitch_bend_c, 3, 6784
5, 186488, Pitch_bend_c, 3, 8477
5, 186500, Pitch_bend_c, 3, 8192
5, 186571, Note_on_c, 3, 64, 127
5, 186596, Note_off_c, 3, 66, 64
5, 186968, Note_off_c, 3, 64, 64
5, 189217, Note_on_c, 3, 67, 127
5, 189273, Note_off_c, 3, 67, 64
5, 189322, Note_on_c, 3, 69, 127
5, 189338, Note_on_c, 3, 67, 85
5, 189352, Pitch_bend_c, 3, 9599
5, 189355, Note_off_c, 3, 67, 64
5, 189443, Pitch_bend_c, 3, 8192
5, 189860, Note_off_c, 3, 69, 64
5, 189928, Note_on_c, 3, 67, 127
5, 189983, Note_off_c, 3, 67, 64
5, 190027, Note_on_c, 3, 67, 127
5, 190035, Pitch_bend_c, 3, 9599
5, 190137, Pitch_bend_c, 3, 8192
5, 190446, Note_off_c, 3, 67, 64
5, 190446, End_track
6, 0, Start_track
6, 0, MIDI_port, 0
6, 0, Channel_prefix, 4
6, 0, Control_c, 4, 10, 64
6, 190, Control_c, 4, 121, 0
6, 270, Control_c, 4, 101, 0
6, 350, Control_c, 4, 100, 0
6, 430, Control_c, 4, 6, 12
6, 510, Program_c, 4, 89
6, 1465, Control_c, 4, 93, 0
6, 1545, Control_c, 4, 91, 49
6, 1625, Control_c, 4, 10, 37
6, 1705, Control_c, 4, 7, 50
6, 2890, Note_on_c, 4, 78, 71
6, 2891, Note_on_c, 4, 74, 67
6, 2893, Note_on_c, 4, 69, 77
6, 3241, Note_on_c, 4, 81, 76
6, 3265, Note_off_c, 4, 69, 64
6, 3555, Note_off_c, 4, 74, 64
6, 3595, Note_on_c, 4, 83, 70
6, 3597, Note_on_c, 4, 71, 69
6, 3603, Note_on_c, 4, 76, 65
6, 4508, Note_on_c, 4, 88, 70
6, 4513, Note_on_c, 4, 79, 66
6, 4530, Note_off_c, 4, 78, 64
6, 5171, Note_on_c, 4, 90, 93
6, 5172, Note_on_c, 4, 86, 58
6, 6320, Note_off_c, 4, 76, 64
6, 6322, Note_off_c, 4, 81, 64
6, 6343, Note_off_c, 4, 71, 64
6, 6600, Note_off_c, 4, 79, 64
6, 7888, Note_off_c, 4, 88, 64
6, 7935, Note_off_c, 4, 83, 64
6, 7967, Note_off_c, 4, 86, 64
6, 7975, Note_off_c, 4, 90, 64
6, 8643, Note_on_c, 4, 59, 60
6, 8646, Note_on_c, 4, 64, 70
6, 8647, Note_on_c, 4, 40, 67
6, 8648, Note_on_c, 4, 67, 94
6, 11422, Note_off_c, 4, 67, 64
6, 11461, Note_off_c, 4, 59, 64
6, 11488, Note_on_c, 4, 66, 58
6, 11492, Note_on_c, 4, 38, 63
6, 11498, Note_on_c, 4, 62, 70
6, 11501, Note_off_c, 4, 64, 64
6, 11505, Note_on_c, 4, 57, 60
6, 11528, Note_off_c, 4, 40, 64
6, 14322, Note_off_c, 4, 57, 64
6, 14371, Note_off_c, 4, 66, 64
6, 14386, Note_on_c, 4, 40, 63
6, 14390, Note_on_c, 4, 64, 93
6, 14411, Note_on_c, 4, 59, 69
6, 14411, Note_on_c, 4, 67, 100
6, 14438, Note_off_c, 4, 38, 64
6, 14445, Note_off_c, 4, 62, 64
6, 15723, Note_off_c, 4, 59, 64
6, 15731, Note_off_c, 4, 67, 64
6, 15770, Note_off_c, 4, 64, 64
6, 15780, Note_on_c, 4, 36, 59
6, 15818, Note_on_c, 4, 60, 104
6, 15818, Note_on_c, 4, 55, 95
6, 15822, Note_on_c, 4, 64, 102
6, 15828, Note_off_c, 4, 40, 64
6, 16430, Note_off_c, 4, 55, 64
6, 16442, Note_off_c, 4, 60, 64
6, 16451, Note_off_c, 4, 64, 64
6, 16493, Note_on_c, 4, 38, 55
6, 16535, Note_off_c, 4, 36, 64
6, 16565, Note_on_c, 4, 57, 87
6, 16572, Note_on_c, 4, 66, 104
6, 16572, Note_on_c, 4, 62, 104
6, 17205, Note_off_c, 4, 57, 64
6, 17217, Note_off_c, 4, 62, 64
6, 17226, Note_off_c, 4, 66, 64
6, 17235, Note_on_c, 4, 40, 70
6, 17248, Note_on_c, 4, 59, 67
6, 17248, Note_on_c, 4, 67, 96
6, 17251, Note_on_c, 4, 64, 68
6, 17273, Note_off_c, 4, 38, 64
6, 22168, Note_off_c, 4, 67, 64
6, 22208, Note_off_c, 4, 59, 64
6, 22231, Note_off_c, 4, 64, 64
6, 22340, Note_on_c, 4, 64, 86
6, 22341, Note_on_c, 4, 71, 90
6, 22341, Note_on_c, 4, 67, 91
6, 22875, Note_off_c, 4, 40, 64
6, 22978, Note_off_c, 4, 67, 64
6, 22997, Note_off_c, 4, 64, 64
6, 23037, Note_on_c, 4, 38, 106
6, 23043, Note_off_c, 4, 71, 64
6, 23060, Note_on_c, 4, 69, 73
6, 23063, Note_on_c, 4, 66, 79
6, 23068, Note_on_c, 4, 62, 74
6, 24442, Note_on_c, 4, 74, 97
6, 25862, Note_off_c, 4, 38, 64
6, 25876, Note_on_c, 4, 59, 80
6, 25878, Note_on_c, 4, 71, 95
6, 25880, Note_off_c, 4, 62, 64
6, 25880, Note_on_c, 4, 64, 100
6, 25881, Note_on_c, 4, 40, 108
6, 25883, Note_off_c, 4, 74, 64
6, 25883, Note_on_c, 4, 67, 87
6, 25896, Note_off_c, 4, 69, 64
6, 25900, Note_off_c, 4, 66, 64
6, 27283, Note_off_c, 4, 71, 64
6, 27293, Note_off_c, 4, 59, 64
6, 27295, Note_off_c, 4, 67, 64
6, 27300, Note_off_c, 4, 64, 64
6, 27332, Note_on_c, 4, 60, 87
6, 27335, Note_on_c, 4, 64, 94
6, 27336, Note_on_c, 4, 67, 87
6, 27345, Note_on_c, 4, 36, 127
6, 27348, Note_off_c, 4, 40, 64
6, 27941, Note_off_c, 4, 60, 64
6, 27947, Note_off_c, 4, 64, 64
6, 27970, Note_off_c, 4, 67, 64
6, 28046, Note_on_c, 4, 62, 86
6, 28047, Note_on_c, 4, 66, 95
6, 28051, Note_on_c, 4, 69, 97
6, 28067, Note_on_c, 4, 38, 104
6, 28092, Note_off_c, 4, 36, 64
6, 28662, Note_off_c, 4, 66, 64
6, 28675, Note_off_c, 4, 62, 64
6, 28686, Note_off_c, 4, 69, 64
6, 28783, Note_on_c, 4, 40, 102
6, 28790, Note_off_c, 4, 38, 64
6, 28828, Note_on_c, 4, 67, 83
6, 28831, Note_on_c, 4, 64, 78
6, 28832, Note_on_c, 4, 59, 81
6, 28833, Note_on_c, 4, 71, 86
6, 31578, Note_off_c, 4, 59, 64
6, 31598, Note_off_c, 4, 67, 64
6, 31600, Note_off_c, 4, 64, 64
6, 31606, Note_off_c, 4, 71, 64
6, 31643, Note_off_c, 4, 40, 64
6, 31680, Note_on_c, 4, 67, 80
6, 31680, Note_on_c, 4, 71, 80
6, 31680, Note_on_c, 4, 62, 71
6, 31680, Note_on_c, 4, 43, 90
6, 34366, Note_off_c, 4, 71, 64
6, 34397, Note_off_c, 4, 62, 64
6, 34411, Note_off_c, 4, 67, 64
6, 34518, Note_on_c, 4, 62, 84
6, 34523, Note_on_c, 4, 66, 91
6, 34525, Note_on_c, 4, 69, 97
6, 34538, Note_on_c, 4, 38, 108
6, 34585, Note_off_c, 4, 43, 64
6, 37248, Note_off_c, 4, 66, 64
6, 37258, Note_off_c, 4, 62, 64
6, 37277, Note_off_c, 4, 69, 64
6, 37417, Note_on_c, 4, 64, 100
6, 37417, Note_on_c, 4, 60, 88
6, 37420, Note_on_c, 4, 69, 100
6, 37421, Note_off_c, 4, 38, 64
6, 37423, Note_on_c, 4, 45, 110
6, 40245, Note_off_c, 4, 60, 64
6, 40247, Note_off_c, 4, 69, 64
6, 40250, Note_off_c, 4, 64, 64
6, 40268, Note_on_c, 4, 59, 80
6, 40270, Note_on_c, 4, 64, 87
6, 40271, Note_on_c, 4, 67, 75
6, 40320, Note_on_c, 4, 40, 112
6, 40351, Note_off_c, 4, 45, 64
6, 42285, Note_off_c, 4, 59, 64
6, 42301, Note_off_c, 4, 67, 64
6, 42307, Note_off_c, 4, 64, 64
6, 42457, Note_on_c, 4, 42, 116
6, 42461, Note_on_c, 4, 62, 94
6, 42467, Note_on_c, 4, 69, 104
6, 42468, Note_on_c, 4, 66, 97
6, 42480, Note_off_c, 4, 40, 64
6, 43060, Note_off_c, 4, 66, 64
6, 43066, Note_off_c, 4, 62, 64
6, 43066, Note_off_c, 4, 69, 64
6, 43106, Note_off_c, 4, 42, 64
6, 43200, Note_on_c, 4, 43, 102
6, 43201, Note_on_c, 4, 62, 91
6, 43203, Note_on_c, 4, 71, 90
6, 43203, Note_on_c, 4, 67, 91
6, 46045, Note_on_c, 4, 69, 70
6, 46056, Note_on_c, 4, 66, 95
6, 46061, Note_off_c, 4, 71, 64
6, 46078, Note_on_c, 4, 38, 112
6, 46097, Note_off_c, 4, 67, 64
6, 46126, Note_off_c, 4, 43, 64
6, 48792, Note_off_c, 4, 69, 64
6, 48805, Note_off_c, 4, 62, 64
6, 48808, Note_off_c, 4, 66, 64
6, 48900, Note_on_c, 4, 36, 127
6, 48915, Note_on_c, 4, 60, 71
6, 48916, Note_on_c, 4, 64, 86
6, 48917, Note_on_c, 4, 67, 80
6, 48931, Note_off_c, 4, 38, 64
6, 51691, Note_off_c, 4, 64, 64
6, 51701, Note_off_c, 4, 60, 64
6, 51792, Note_on_c, 4, 59, 66
6, 51801, Note_on_c, 4, 62, 80
6, 51803, Note_on_c, 4, 43, 98
6, 51805, Note_off_c, 4, 36, 64
6, 53156, Note_off_c, 4, 59, 64
6, 53203, Note_off_c, 4, 67, 64
6, 53235, Note_on_c, 4, 66, 77
6, 53237, Note_on_c, 4, 57, 73
6, 53256, Note_on_c, 4, 38, 112
6, 53288, Note_off_c, 4, 43, 64
6, 54687, Note_off_c, 4, 62, 64
6, 54691, Note_off_c, 4, 57, 64
6, 54693, Note_off_c, 4, 66, 64
6, 54716, Note_off_c, 4, 38, 64
6, 54720, Note_on_c, 4, 59, 88
6, 54720, Note_on_c, 4, 64, 98
6, 54720, Note_on_c, 4, 67, 88
6, 54720, Note_on_c, 4, 40, 74
6, 57506, Note_off_c, 4, 67, 64
6, 57513, Note_off_c, 4, 59, 64
6, 57558, Note_off_c, 4, 64, 64
6, 57558, Note_on_c, 4, 66, 79
6, 57561, Note_on_c, 4, 62, 88
6, 57565, Note_on_c, 4, 57, 92
6, 57590, Note_on_c, 4, 38, 98
6, 57646, Note_off_c, 4, 40, 64
6, 60366, Note_off_c, 4, 57, 64
6, 60401, Note_off_c, 4, 66, 64
6, 60412, Note_off_c, 4, 62, 64
6, 60450, Note_on_c, 4, 59, 100
6, 60450, Note_on_c, 4, 64, 97
6, 60451, Note_on_c, 4, 67, 100
6, 60485, Note_on_c, 4, 40, 100
6, 60506, Note_off_c, 4, 38, 64
6, 61740, Note_off_c, 4, 59, 64
6, 61883, Note_on_c, 4, 60, 95
6, 61888, Note_on_c, 4, 36, 127
6, 61913, Note_off_c, 4, 40, 64
6, 62461, Note_off_c, 4, 60, 64
6, 62493, Note_off_c, 4, 67, 64
6, 62502, Note_off_c, 4, 64, 64
6, 62567, Note_on_c, 4, 62, 79
6, 62568, Note_on_c, 4, 69, 97
6, 62570, Note_on_c, 4, 66, 93
6, 62578, Note_on_c, 4, 38, 83
6, 62628, Note_off_c, 4, 36, 64
6, 63241, Note_off_c, 4, 69, 64
6, 63242, Note_off_c, 4, 62, 64
6, 63243, Note_off_c, 4, 66, 64
6, 63328, Note_on_c, 4, 67, 76
6, 63332, Note_on_c, 4, 64, 81
6, 63332, Note_on_c, 4, 59, 83
6, 63332, Note_on_c, 4, 40, 106
6, 63345, Note_off_c, 4, 38, 64
6, 66158, Note_off_c, 4, 40, 64
6, 66202, Note_off_c, 4, 59, 64
6, 66206, Note_off_c, 4, 64, 64
6, 66218, Note_off_c, 4, 67, 64
6, 66240, Note_on_c, 4, 67, 97
6, 66240, Note_on_c, 4, 59, 94
6, 66240, Note_on_c, 4, 64, 102
6, 66240, Note_on_c, 4, 40, 110
6, 69002, Note_off_c, 4, 59, 64
6, 69008, Note_off_c, 4, 67, 64
6, 69042, Note_off_c, 4, 64, 64
6, 69081, Note_on_c, 4, 67, 83
6, 69082, Note_on_c, 4, 64, 87
6, 69087, Note_on_c, 4, 60, 95
6, 69106, Note_on_c, 4, 36, 127
6, 69160, Note_off_c, 4, 40, 64
6, 71848, Note_off_c, 4, 60, 64
6, 71935, Note_off_c, 4, 64, 64
6, 71940, Note_on_c, 4, 43, 100
6, 71942, Note_off_c, 4, 36, 64
6, 71950, Note_on_c, 4, 59, 95
6, 71953, Note_on_c, 4, 62, 98
6, 73282, Note_off_c, 4, 59, 64
6, 73353, Note_off_c, 4, 67, 64
6, 73388, Note_on_c, 4, 66, 85
6, 73390, Note_on_c, 4, 57, 98
6, 73407, Note_on_c, 4, 38, 106
6, 73443, Note_off_c, 4, 43, 64
6, 74772, Note_off_c, 4, 57, 64
6, 74807, Note_off_c, 4, 66, 64
6, 74816, Note_off_c, 4, 62, 64
6, 74845, Note_on_c, 4, 40, 108
6, 74847, Note_on_c, 4, 64, 94
6, 74851, Note_on_c, 4, 59, 92
6, 74852, Note_on_c, 4, 67, 98
6, 74866, Note_off_c, 4, 38, 64
6, 80471, Note_off_c, 4, 59, 64
6, 80487, Note_off_c, 4, 64, 64
6, 80512, Note_off_c, 4, 67, 64
6, 80545, Note_off_c, 4, 40, 64
6, 80625, Note_on_c, 4, 38, 106
6, 80638, Note_on_c, 4, 57, 83
6, 80640, Note_on_c, 4, 62, 88
6, 80642, Note_on_c, 4, 66, 82
6, 83350, Note_off_c, 4, 57, 64
6, 83403, Note_off_c, 4, 66, 64
6, 83427, Note_off_c, 4, 62, 64
6, 83437, Note_off_c, 4, 38, 64
6, 83450, Note_on_c, 4, 40, 114
6, 83480, Note_on_c, 4, 64, 100
6, 83481, Note_on_c, 4, 59, 104
6, 83485, Note_on_c, 4, 67, 102
6, 84850, Note_off_c, 4, 59, 64
6, 84926, Note_on_c, 4, 36, 127
6, 84945, Note_off_c, 4, 40, 64
6, 84950, Note_on_c, 4, 60, 92
6, 85533, Note_off_c, 4, 67, 64
6, 85548, Note_off_c, 4, 60, 64
6, 85625, Note_off_c, 4, 64, 64
6, 85630, Note_on_c, 4, 66, 67
6, 85637, Note_on_c, 4, 62, 83
6, 85638, Note_on_c, 4, 38, 102
6, 85642, Note_on_c, 4, 57, 88
6, 85675, Note_off_c, 4, 36, 64
6, 86300, Note_off_c, 4, 57, 64
6, 86336, Note_off_c, 4, 66, 64
6, 86341, Note_off_c, 4, 62, 64
6, 86356, Note_on_c, 4, 40, 108
6, 86368, Note_on_c, 4, 64, 81
6, 86371, Note_off_c, 4, 38, 64
6, 86377, Note_on_c, 4, 67, 106
6, 86377, Note_on_c, 4, 59, 104
6, 89040, Note_off_c, 4, 67, 64
6, 89067, Note_off_c, 4, 59, 64
6, 89070, Note_off_c, 4, 64, 64
6, 89248, Note_off_c, 4, 40, 64
6, 89280, Note_on_c, 4, 67, 104
6, 89280, Note_on_c, 4, 62, 97
6, 89280, Note_on_c, 4, 71, 100
6, 89280, Note_on_c, 4, 43, 90
6, 92080, Note_off_c, 4, 71, 64
6, 92138, Note_on_c, 4, 38, 108
6, 92151, Note_off_c, 4, 67, 64
6, 92167, Note_on_c, 4, 69, 98
6, 92167, Note_on_c, 4, 66, 99
6, 92185, Note_off_c, 4, 43, 64
6, 94880, Note_off_c, 4, 62, 64
6, 94922, Note_off_c, 4, 66, 64
6, 95021, Note_off_c, 4, 38, 64
6, 95023, Note_on_c, 4, 45, 110
6, 95055, Note_on_c, 4, 64, 91
6, 95056, Note_on_c, 4, 72, 106
6, 97747, Note_off_c, 4, 69, 64
6, 97760, Note_off_c, 4, 72, 64
6, 97906, Note_on_c, 4, 71, 97
6, 97907, Note_on_c, 4, 67, 95
6, 97920, Note_on_c, 4, 40, 112
6, 97951, Note_off_c, 4, 45, 64
6, 99875, Note_off_c, 4, 64, 64
6, 99916, Note_off_c, 4, 67, 64
6, 99937, Note_off_c, 4, 71, 64
6, 100017, Note_on_c, 4, 74, 100
6, 100018, Note_on_c, 4, 69, 98
6, 100027, Note_on_c, 4, 66, 82
6, 100057, Note_on_c, 4, 42, 116
6, 100080, Note_off_c, 4, 40, 64
6, 100656, Note_off_c, 4, 66, 64
6, 100670, Note_off_c, 4, 69, 64
6, 100671, Note_off_c, 4, 74, 64
6, 100706, Note_off_c, 4, 42, 64
6, 100800, Note_on_c, 4, 62, 94
6, 100800, Note_on_c, 4, 71, 104
6, 100800, Note_on_c, 4, 67, 98
6, 100800, Note_on_c, 4, 43, 102
6, 103543, Note_off_c, 4, 71, 64
6, 103597, Note_off_c, 4, 67, 64
6, 103642, Note_on_c, 4, 66, 110
6, 103643, Note_on_c, 4, 69, 102
6, 103678, Note_on_c, 4, 38, 112
6, 103726, Note_off_c, 4, 43, 64
6, 106400, Note_off_c, 4, 62, 64
6, 106418, Note_off_c, 4, 69, 64
6, 106421, Note_off_c, 4, 66, 64
6, 106500, Note_on_c, 4, 36, 127
6, 106531, Note_off_c, 4, 38, 64
6, 106536, Note_on_c, 4, 67, 98
6, 106536, Note_on_c, 4, 60, 88
6, 106538, Note_on_c, 4, 64, 104
6, 109278, Note_off_c, 4, 67, 64
6, 109286, Note_off_c, 4, 60, 64
6, 109297, Note_off_c, 4, 64, 64
6, 109398, Note_on_c, 4, 67, 104
6, 109398, Note_on_c, 4, 59, 100
6, 109400, Note_on_c, 4, 62, 117
6, 109403, Note_on_c, 4, 43, 98
6, 109405, Note_off_c, 4, 36, 64
6, 110753, Note_off_c, 4, 67, 64
6, 110763, Note_off_c, 4, 59, 64
6, 110782, Note_off_c, 4, 62, 64
6, 110837, Note_on_c, 4, 57, 94
6, 110841, Note_on_c, 4, 62, 104
6, 110843, Note_on_c, 4, 66, 110
6, 110856, Note_on_c, 4, 38, 112
6, 110888, Note_off_c, 4, 43, 64
6, 112233, Note_off_c, 4, 57, 64
6, 112247, Note_off_c, 4, 62, 64
6, 112263, Note_off_c, 4, 66, 64
6, 112316, Note_off_c, 4, 38, 64
6, 112320, Note_on_c, 4, 64, 104
6, 112320, Note_on_c, 4, 59, 97
6, 112320, Note_on_c, 4, 67, 97
6, 112320, Note_on_c, 4, 40, 74
6, 115102, Note_off_c, 4, 67, 64
6, 115131, Note_off_c, 4, 59, 64
6, 115142, Note_off_c, 4, 64, 64
6, 115190, Note_on_c, 4, 38, 98
6, 115191, Note_on_c, 4, 57, 92
6, 115192, Note_on_c, 4, 66, 107
6, 115193, Note_on_c, 4, 62, 106
6, 115246, Note_off_c, 4, 40, 64
6, 117951, Note_off_c, 4, 57, 64
6, 117975, Note_off_c, 4, 62, 64
6, 117978, Note_off_c, 4, 66, 64
6, 118081, Note_on_c, 4, 59, 100
6, 118082, Note_on_c, 4, 67, 100
6, 118085, Note_on_c, 4, 64, 104
6, 118085, Note_on_c, 4, 40, 100
6, 118106, Note_off_c, 4, 38, 64
6, 119413, Note_off_c, 4, 59, 64
6, 119488, Note_on_c, 4, 36, 127
6, 119507, Note_on_c, 4, 60, 104
6, 119513, Note_off_c, 4, 40, 64
6, 120117, Note_off_c, 4, 60, 64
6, 120130, Note_off_c, 4, 67, 64
6, 120178, Note_on_c, 4, 38, 83
6, 120192, Note_off_c, 4, 64, 64
6, 120207, Note_on_c, 4, 57, 100
6, 120208, Note_on_c, 4, 62, 97
6, 120211, Note_on_c, 4, 66, 99
6, 120228, Note_off_c, 4, 36, 64
6, 120831, Note_off_c, 4, 57, 64
6, 120872, Note_off_c, 4, 62, 64
6, 120878, Note_off_c, 4, 66, 64
6, 120915, Note_on_c, 4, 64, 92
6, 120920, Note_on_c, 4, 67, 95
6, 120920, Note_on_c, 4, 59, 95
6, 120932, Note_on_c, 4, 40, 106
6, 120945, Note_off_c, 4, 38, 64
6, 123686, Note_off_c, 4, 67, 64
6, 123840, Note_on_c, 4, 55, 92
6, 126512, Note_off_c, 4, 40, 64
6, 126520, Note_off_c, 4, 59, 64
6, 126698, Note_on_c, 4, 60, 102
6, 126706, Note_on_c, 4, 36, 127
6, 129443, Note_off_c, 4, 60, 64
6, 129455, Note_off_c, 4, 64, 64
6, 129500, Note_off_c, 4, 55, 64
6, 129540, Note_on_c, 4, 43, 100
6, 129542, Note_off_c, 4, 36, 64
6, 129575, Note_on_c, 4, 59, 87
6, 129580, Note_on_c, 4, 62, 97
6, 129583, Note_on_c, 4, 67, 95
6, 130918, Note_off_c, 4, 59, 64
6, 130930, Note_off_c, 4, 67, 64
6, 130958, Note_off_c, 4, 62, 64
6, 131007, Note_on_c, 4, 38, 106
6, 131020, Note_on_c, 4, 62, 80
6, 131021, Note_on_c, 4, 57, 76
6, 131022, Note_on_c, 4, 66, 87
6, 131043, Note_off_c, 4, 43, 64
6, 132306, Note_off_c, 4, 66, 64
6, 132307, Note_off_c, 4, 62, 64
6, 132312, Note_off_c, 4, 57, 64
6, 132445, Note_on_c, 4, 40, 108
6, 132466, Note_off_c, 4, 38, 64
6, 132467, Note_on_c, 4, 55, 86
6, 132471, Note_on_c, 4, 64, 95
6, 132473, Note_on_c, 4, 59, 95
6, 134418, Note_off_c, 4, 55, 64
6, 134435, Note_off_c, 4, 59, 64
6, 134441, Note_off_c, 4, 64, 64
6, 134600, Note_on_c, 4, 57, 84
6, 134607, Note_on_c, 4, 62, 106
6, 134612, Note_on_c, 4, 66, 101
6, 135237, Note_off_c, 4, 57, 64
6, 135246, Note_off_c, 4, 62, 64
6, 135250, Note_off_c, 4, 66, 64
6, 135360, Note_on_c, 4, 62, 95
6, 135360, Note_on_c, 4, 67, 104
6, 135360, Note_on_c, 4, 71, 98
6, 135360, Note_on_c, 4, 43, 90
6, 135361, Note_off_c, 4, 40, 64
6, 138183, Note_off_c, 4, 71, 64
6, 138218, Note_on_c, 4, 38, 108
6, 138227, Note_off_c, 4, 67, 64
6, 138247, Note_on_c, 4, 66, 113
6, 138250, Note_on_c, 4, 69, 102
6, 138265, Note_off_c, 4, 43, 64
6, 140900, Note_off_c, 4, 62, 64
6, 140993, Note_off_c, 4, 66, 64
6, 141101, Note_off_c, 4, 38, 64
6, 141103, Note_on_c, 4, 45, 110
6, 141108, Note_on_c, 4, 72, 98
6, 141112, Note_on_c, 4, 64, 94
6, 143846, Note_off_c, 4, 72, 64
6, 143850, Note_off_c, 4, 69, 64
6, 143877, Note_off_c, 4, 64, 64
6, 143985, Note_on_c, 4, 64, 85
6, 143990, Note_on_c, 4, 71, 95
6, 143991, Note_on_c, 4, 67, 98
6, 144000, Note_on_c, 4, 40, 112
6, 144031, Note_off_c, 4, 45, 64
6, 145996, Note_off_c, 4, 67, 64
6, 146015, Note_off_c, 4, 64, 64
6, 146016, Note_off_c, 4, 71, 64
6, 146116, Note_on_c, 4, 66, 116
6, 146116, Note_on_c, 4, 69, 104
6, 146118, Note_on_c, 4, 62, 97
6, 146137, Note_on_c, 4, 42, 116
6, 146160, Note_off_c, 4, 40, 64
6, 146731, Note_off_c, 4, 66, 64
6, 146731, Note_off_c, 4, 62, 64
6, 146736, Note_off_c, 4, 69, 64
6, 146786, Note_off_c, 4, 42, 64
6, 146880, Note_on_c, 4, 71, 112
6, 146880, Note_on_c, 4, 67, 95
6, 146880, Note_on_c, 4, 74, 98
6, 146880, Note_on_c, 4, 43, 102
6, 149663, Note_off_c, 4, 67, 64
6, 149707, Note_off_c, 4, 71, 64
6, 149746, Note_on_c, 4, 69, 100
6, 149750, Note_on_c, 4, 66, 91
6, 149758, Note_on_c, 4, 38, 112
6, 149806, Note_off_c, 4, 43, 64
6, 152440, Note_off_c, 4, 74, 64
6, 152511, Note_off_c, 4, 66, 64
6, 152517, Note_off_c, 4, 69, 64
6, 152580, Note_on_c, 4, 36, 127
6, 152611, Note_off_c, 4, 38, 64
6, 152640, Note_on_c, 4, 64, 94
6, 152641, Note_on_c, 4, 72, 102
6, 152641, Note_on_c, 4, 67, 98
6, 155345, Note_off_c, 4, 64, 64
6, 155366, Note_off_c, 4, 72, 64
6, 155483, Note_on_c, 4, 43, 98
6, 155485, Note_off_c, 4, 36, 64
6, 155502, Note_on_c, 4, 71, 91
6, 155502, Note_on_c, 4, 62, 87
6, 156860, Note_off_c, 4, 62, 64
6, 156861, Note_off_c, 4, 67, 64
6, 156865, Note_off_c, 4, 71, 64
6, 156933, Note_on_c, 4, 62, 81
6, 156935, Note_on_c, 4, 69, 110
6, 156936, Note_on_c, 4, 38, 112
6, 156937, Note_on_c, 4, 66, 113
6, 156968, Note_off_c, 4, 43, 64
6, 158246, Note_off_c, 4, 62, 64
6, 158263, Note_off_c, 4, 66, 64
6, 158273, Note_off_c, 4, 69, 64
6, 158396, Note_off_c, 4, 38, 64
6, 158400, Note_on_c, 4, 64, 98
6, 158400, Note_on_c, 4, 67, 104
6, 158400, Note_on_c, 4, 71, 94
6, 158400, Note_on_c, 4, 40, 74
6, 161191, Note_off_c, 4, 67, 64
6, 161208, Note_off_c, 4, 71, 64
6, 161211, Note_off_c, 4, 64, 64
6, 161265, Note_on_c, 4, 66, 107
6, 161266, Note_on_c, 4, 62, 91
6, 161267, Note_on_c, 4, 69, 100
6, 161270, Note_on_c, 4, 38, 98
6, 161326, Note_off_c, 4, 40, 64
6, 163940, Note_off_c, 4, 62, 64
6, 163947, Note_off_c, 4, 66, 64
6, 163985, Note_off_c, 4, 69, 64
6, 164140, Note_on_c, 4, 64, 90
6, 164140, Note_on_c, 4, 71, 95
6, 164142, Note_on_c, 4, 67, 98
6, 164165, Note_on_c, 4, 40, 100
6, 164186, Note_off_c, 4, 38, 64
6, 165410, Note_off_c, 4, 64, 64
6, 165425, Note_off_c, 4, 67, 64
6, 165437, Note_off_c, 4, 71, 64
6, 165563, Note_on_c, 4, 64, 91
6, 165565, Note_on_c, 4, 67, 102
6, 165567, Note_on_c, 4, 72, 108
6, 165568, Note_on_c, 4, 36, 127
6, 165593, Note_off_c, 4, 40, 64
6, 166151, Note_off_c, 4, 72, 64
6, 166156, Note_off_c, 4, 64, 64
6, 166165, Note_off_c, 4, 67, 64
6, 166258, Note_on_c, 4, 38, 83
6, 166282, Note_on_c, 4, 66, 101
6, 166282, Note_on_c, 4, 69, 97
6, 166286, Note_on_c, 4, 62, 90
6, 166308, Note_off_c, 4, 36, 64
6, 166836, Note_off_c, 4, 62, 64
6, 166838, Note_off_c, 4, 66, 64
6, 166876, Note_off_c, 4, 69, 64
6, 166993, Note_on_c, 4, 67, 97
6, 166993, Note_on_c, 4, 71, 98
6, 166997, Note_on_c, 4, 64, 78
6, 167012, Note_on_c, 4, 40, 106
6, 167025, Note_off_c, 4, 38, 64
6, 168452, Note_off_c, 4, 40, 64
6, 168463, Note_on_c, 4, 36, 127
6, 169127, Note_off_c, 4, 64, 64
6, 169138, Note_off_c, 4, 67, 64
6, 169153, Note_on_c, 4, 38, 83
6, 169162, Note_on_c, 4, 69, 97
6, 169162, Note_on_c, 4, 66, 101
6, 169166, Note_on_c, 4, 62, 90
6, 169168, Note_off_c, 4, 71, 64
6, 169203, Note_off_c, 4, 36, 64
6, 169716, Note_off_c, 4, 62, 64
6, 169718, Note_off_c, 4, 66, 64
6, 169756, Note_off_c, 4, 69, 64
6, 169920, Note_off_c, 4, 38, 64
6, 169920, Note_on_c, 4, 67, 95
6, 169920, Note_on_c, 4, 71, 94
6, 169920, Note_on_c, 4, 64, 98
6, 169920, Note_on_c, 4, 40, 102
6, 171311, Note_on_c, 4, 36, 127
6, 171346, Note_off_c, 4, 40, 64
6, 172005, Note_off_c, 4, 71, 64
6, 172006, Note_off_c, 4, 64, 64
6, 172053, Note_on_c, 4, 38, 104
6, 172055, Note_off_c, 4, 67, 64
6, 172061, Note_on_c, 4, 69, 91
6, 172062, Note_on_c, 4, 66, 99
6, 172065, Note_on_c, 4, 62, 87
6, 172093, Note_off_c, 4, 36, 64
6, 172667, Note_off_c, 4, 62, 64
6, 172710, Note_off_c, 4, 69, 64
6, 172727, Note_off_c, 4, 66, 64
6, 172761, Note_on_c, 4, 40, 114
6, 172775, Note_on_c, 4, 67, 94
6, 172776, Note_on_c, 4, 71, 95
6, 172776, Note_on_c, 4, 64, 104
6, 172778, Note_off_c, 4, 38, 64
6, 174193, Note_on_c, 4, 36, 127
6, 174216, Note_off_c, 4, 40, 64
6, 174871, Note_off_c, 4, 71, 64
6, 174898, Note_off_c, 4, 64, 64
6, 174913, Note_on_c, 4, 38, 98
6, 174928, Note_off_c, 4, 36, 64
6, 174945, Note_on_c, 4, 66, 101
6, 174946, Note_on_c, 4, 69, 95
6, 174947, Note_on_c, 4, 62, 94
6, 174956, Note_off_c, 4, 67, 64
6, 175608, Note_off_c, 4, 62, 64
6, 175617, Note_on_c, 4, 40, 112
6, 175631, Note_off_c, 4, 69, 64
6, 175642, Note_off_c, 4, 38, 64
6, 175643, Note_off_c, 4, 66, 64
6, 175667, Note_on_c, 4, 64, 91
6, 175668, Note_on_c, 4, 71, 106
6, 175671, Note_on_c, 4, 67, 108
6, 177098, Note_on_c, 4, 36, 127
6, 177117, Note_off_c, 4, 40, 64
6, 177737, Note_off_c, 4, 71, 64
6, 177747, Note_off_c, 4, 64, 64
6, 177817, Note_on_c, 4, 62, 85
6, 177817, Note_on_c, 4, 38, 110
6, 177818, Note_off_c, 4, 67, 64
6, 177818, Note_on_c, 4, 69, 88
6, 177820, Note_on_c, 4, 66, 85
6, 177851, Note_off_c, 4, 36, 64
6, 178470, Note_off_c, 4, 62, 64
6, 178501, Note_off_c, 4, 69, 64
6, 178512, Note_on_c, 4, 40, 108
6, 178516, Note_off_c, 4, 66, 64
6, 178537, Note_off_c, 4, 38, 64
6, 178546, Note_on_c, 4, 67, 102
6, 178546, Note_on_c, 4, 64, 102
6, 178547, Note_on_c, 4, 71, 110
6, 179977, Note_on_c, 4, 36, 127
6, 180012, Note_off_c, 4, 40, 64
6, 180635, Note_off_c, 4, 64, 64
6, 180640, Note_off_c, 4, 71, 64
6, 180680, Note_on_c, 4, 38, 106
6, 180700, Note_on_c, 4, 62, 67
6, 180700, Note_on_c, 4, 69, 70
6, 180700, Note_on_c, 4, 66, 61
6, 180707, Note_off_c, 4, 36, 64
6, 180722, Note_off_c, 4, 67, 64
6, 181372, Note_off_c, 4, 62, 64
6, 181397, Note_off_c, 4, 69, 64
6, 181402, Note_on_c, 4, 40, 114
6, 181410, Note_off_c, 4, 66, 64
6, 181423, Note_on_c, 4, 67, 62
6, 181423, Note_on_c, 4, 71, 80
6, 181425, Note_on_c, 4, 64, 84
6, 181437, Note_off_c, 4, 38, 64
6, 182855, Note_on_c, 4, 36, 127
6, 182872, Note_off_c, 4, 40, 64
6, 183511, Note_off_c, 4, 71, 64
6, 183517, Note_off_c, 4, 64, 64
6, 183561, Note_on_c, 4, 38, 104
6, 183590, Note_on_c, 4, 69, 80
6, 183591, Note_on_c, 4, 62, 86
6, 183592, Note_on_c, 4, 66, 84
6, 183596, Note_off_c, 4, 36, 64
6, 183601, Note_off_c, 4, 67, 64
6, 184233, Note_off_c, 4, 62, 64
6, 184257, Note_off_c, 4, 69, 64
6, 184265, Note_off_c, 4, 66, 64
6, 184281, Note_on_c, 4, 40, 112
6, 184305, Note_on_c, 4, 64, 92
6, 184307, Note_on_c, 4, 67, 97
6, 184307, Note_on_c, 4, 71, 100
6, 184310, Note_off_c, 4, 38, 64
6, 185751, Note_on_c, 4, 36, 127
6, 185777, Note_off_c, 4, 40, 64
6, 186370, Note_off_c, 4, 71, 64
6, 186390, Note_off_c, 4, 64, 64
6, 186431, Note_off_c, 4, 67, 64
6, 186452, Note_on_c, 4, 38, 108
6, 186467, Note_on_c, 4, 62, 84
6, 186467, Note_on_c, 4, 69, 84
6, 186468, Note_on_c, 4, 66, 87
6, 186470, Note_off_c, 4, 36, 64
6, 187111, Note_off_c, 4, 62, 64
6, 187130, Note_off_c, 4, 66, 64
6, 187141, Note_off_c, 4, 69, 64
6, 187165, Note_on_c, 4, 40, 106
6, 187185, Note_on_c, 4, 64, 77
6, 187187, Note_on_c, 4, 67, 87
6, 187188, Note_on_c, 4, 71, 92
6, 187193, Note_off_c, 4, 38, 64
6, 188618, Note_on_c, 4, 36, 127
6, 188651, Note_off_c, 4, 40, 64
6, 189260, Note_off_c, 4, 71, 64
6, 189268, Note_off_c, 4, 64, 64
6, 189315, Note_off_c, 4, 67, 64
6, 189316, Note_on_c, 4, 38, 110
6, 189348, Note_on_c, 4, 62, 81
6, 189348, Note_on_c, 4, 66, 99
6, 189350, Note_off_c, 4, 36, 64
6, 189350, Note_on_c, 4, 69, 95
6, 189963, Note_off_c, 4, 62, 64
6, 189982, Note_off_c, 4, 66, 64
6, 189993, Note_off_c, 4, 69, 64
6, 190037, Note_on_c, 4, 40, 114
6, 190058, Note_on_c, 4, 67, 92
6, 190058, Note_on_c, 4, 64, 92
6, 190060, Note_on_c, 4, 71, 95
6, 190083, Note_off_c, 4, 38, 64
6, 191485, Note_on_c, 4, 36, 127
6, 191517, Note_off_c, 4, 40, 64
6, 192145, Note_off_c, 4, 71, 64
6, 192150, Note_off_c, 4, 64, 64
6, 192160, Note_on_c, 4, 38, 104
6, 192193, Note_off_c, 4, 36, 64
6, 192205, Note_off_c, 4, 67, 64
6, 192226, Note_on_c, 4, 62, 83
6, 192227, Note_on_c, 4, 69, 94
6, 192227, Note_on_c, 4, 66, 95
6, 192847, Note_off_c, 4, 62, 64
6, 192850, Note_off_c, 4, 66, 64
6, 192860, Note_off_c, 4, 69, 64
6, 192935, Note_off_c, 4, 38, 64
6, 192935, End_track
7, 0, Start_track
7, 0, MIDI_port, 0
7, 0, Channel_prefix, 5
7, 0, Control_c, 5, 10, 64
7, 235, Control_c, 5, 121, 0
7, 315, Control_c, 5, 101, 0
7, 395, Control_c, 5, 100, 0
7, 475, Control_c, 5, 6, 12
7, 555, Program_c, 5, 53
7, 1510, Control_c, 5, 93, 0
7, 1590, Control_c, 5, 91, 80
7, 1670, Control_c, 5, 10, 64
7, 1750, Control_c, 5, 7, 107
7, 113035, Note_on_c, 5, 62, 122
7, 113173, Note_off_c, 5, 62, 64
7, 113253, Note_on_c, 5, 64, 120
7, 113393, Note_off_c, 5, 64, 64
7, 113491, Note_on_c, 5, 64, 122
7, 113628, Note_off_c, 5, 64, 64
7, 113725, Note_on_c, 5, 67, 120
7, 113808, Note_off_c, 5, 67, 64
7, 113842, Note_on_c, 5, 64, 120
7, 114527, Note_off_c, 5, 64, 64
7, 115900, Note_on_c, 5, 67, 127
7, 115980, Note_off_c, 5, 67, 64
7, 116615, Note_on_c, 5, 66, 127
7, 116723, Note_on_c, 5, 64, 104
7, 116755, Note_off_c, 5, 66, 64
7, 116796, Note_on_c, 5, 62, 97
7, 116821, Note_off_c, 5, 64, 64
7, 117408, Note_off_c, 5, 62, 64
7, 119257, Note_on_c, 5, 71, 114
7, 119358, Note_off_c, 5, 71, 64
7, 119513, Note_on_c, 5, 69, 120
7, 119642, Note_on_c, 5, 67, 90
7, 119671, Note_off_c, 5, 69, 64
7, 119706, Note_on_c, 5, 64, 104
7, 119733, Note_off_c, 5, 67, 64
7, 120066, Note_off_c, 5, 64, 64
7, 120970, Note_on_c, 5, 62, 125
7, 121025, Note_off_c, 5, 62, 64
7, 121183, Note_on_c, 5, 64, 117
7, 121235, Note_off_c, 5, 64, 64
7, 121431, Note_on_c, 5, 64, 125
7, 121478, Note_off_c, 5, 64, 64
7, 121671, Note_on_c, 5, 62, 125
7, 121716, Note_off_c, 5, 62, 64
7, 121890, Note_on_c, 5, 64, 117
7, 121938, Note_off_c, 5, 64, 64
7, 122135, Note_on_c, 5, 64, 127
7, 122192, Note_off_c, 5, 64, 64
7, 159115, Note_on_c, 5, 62, 122
7, 159253, Note_off_c, 5, 62, 64
7, 159333, Note_on_c, 5, 64, 120
7, 159473, Note_off_c, 5, 64, 64
7, 159571, Note_on_c, 5, 64, 122
7, 159708, Note_off_c, 5, 64, 64
7, 159805, Note_on_c, 5, 67, 120
7, 159888, Note_off_c, 5, 67, 64
7, 159922, Note_on_c, 5, 64, 120
7, 160607, Note_off_c, 5, 64, 64
7, 161980, Note_on_c, 5, 67, 127
7, 162060, Note_off_c, 5, 67, 64
7, 162695, Note_on_c, 5, 66, 127
7, 162803, Note_on_c, 5, 64, 104
7, 162835, Note_off_c, 5, 66, 64
7, 162876, Note_on_c, 5, 62, 97
7, 162901, Note_off_c, 5, 64, 64
7, 163488, Note_off_c, 5, 62, 64
7, 165337, Note_on_c, 5, 71, 114
7, 165438, Note_off_c, 5, 71, 64
7, 165593, Note_on_c, 5, 69, 120
7, 165722, Note_on_c, 5, 67, 90
7, 165751, Note_off_c, 5, 69, 64
7, 165786, Note_on_c, 5, 64, 104
7, 165813, Note_off_c, 5, 67, 64
7, 166146, Note_off_c, 5, 64, 64
7, 167050, Note_on_c, 5, 62, 125
7, 167105, Note_off_c, 5, 62, 64
7, 167263, Note_on_c, 5, 64, 117
7, 167315, Note_off_c, 5, 64, 64
7, 167511, Note_on_c, 5, 64, 125
7, 167558, Note_off_c, 5, 64, 64
7, 167751, Note_on_c, 5, 62, 125
7, 167796, Note_off_c, 5, 62, 64
7, 167970, Note_on_c, 5, 64, 117
7, 168018, Note_off_c, 5, 64, 64
7, 168215, Note_on_c, 5, 64, 127
7, 168272, Note_off_c, 5, 64, 64
7, 169938, Note_on_c, 5, 62, 127
7, 169975, Note_off_c, 5, 62, 64
7, 170142, Note_on_c, 5, 64, 117
7, 170173, Note_off_c, 5, 64, 64
7, 170387, Note_on_c, 5, 64, 127
7, 170418, Note_off_c, 5, 64, 64
7, 170632, Note_on_c, 5, 62, 127
7, 170665, Note_off_c, 5, 62, 64
7, 170863, Note_on_c, 5, 64, 122
7, 170892, Note_off_c, 5, 64, 64
7, 171110, Note_on_c, 5, 64, 127
7, 171141, Note_off_c, 5, 64, 64
7, 172830, Note_on_c, 5, 64, 112
7, 172867, Note_off_c, 5, 64, 64
7, 173050, Note_on_c, 5, 66, 127
7, 173087, Note_off_c, 5, 66, 64
7, 173303, Note_on_c, 5, 64, 102
7, 173333, Note_off_c, 5, 64, 64
7, 173532, Note_on_c, 5, 64, 110
7, 173566, Note_off_c, 5, 64, 64
7, 173748, Note_on_c, 5, 66, 127
7, 173787, Note_off_c, 5, 66, 64
7, 174013, Note_on_c, 5, 64, 114
7, 174035, Note_off_c, 5, 64, 64
7, 175682, Note_on_c, 5, 62, 98
7, 175715, Note_off_c, 5, 62, 64
7, 175922, Note_on_c, 5, 64, 112
7, 175953, Note_off_c, 5, 64, 64
7, 176178, Note_on_c, 5, 64, 120
7, 176211, Note_off_c, 5, 64, 64
7, 176420, Note_on_c, 5, 62, 117
7, 176451, Note_off_c, 5, 62, 64
7, 176636, Note_on_c, 5, 64, 127
7, 176671, Note_off_c, 5, 64, 64
7, 176887, Note_on_c, 5, 64, 127
7, 176918, Note_off_c, 5, 64, 64
7, 178573, Note_on_c, 5, 64, 112
7, 178608, Note_off_c, 5, 64, 64
7, 178796, Note_on_c, 5, 66, 127
7, 178833, Note_off_c, 5, 66, 64
7, 179048, Note_on_c, 5, 64, 112
7, 179081, Note_off_c, 5, 64, 64
7, 179290, Note_on_c, 5, 64, 110
7, 179323, Note_off_c, 5, 64, 64
7, 179508, Note_on_c, 5, 66, 127
7, 179542, Note_off_c, 5, 66, 64
7, 179750, Note_on_c, 5, 64, 127
7, 179782, Note_off_c, 5, 64, 64
7, 181450, Note_on_c, 5, 62, 120
7, 181485, Note_off_c, 5, 62, 64
7, 181680, Note_on_c, 5, 64, 120
7, 181711, Note_off_c, 5, 64, 64
7, 181936, Note_on_c, 5, 64, 127
7, 181968, Note_off_c, 5, 64, 64
7, 182172, Note_on_c, 5, 62, 122
7, 182203, Note_off_c, 5, 62, 64
7, 182397, Note_on_c, 5, 64, 127
7, 182427, Note_off_c, 5, 64, 64
7, 182645, Note_on_c, 5, 64, 127
7, 182673, Note_off_c, 5, 64, 64
7, 184333, Note_on_c, 5, 64, 108
7, 184370, Note_off_c, 5, 64, 64
7, 184567, Note_on_c, 5, 66, 127
7, 184596, Note_off_c, 5, 66, 64
7, 184813, Note_on_c, 5, 64, 110
7, 184847, Note_off_c, 5, 64, 64
7, 185060, Note_on_c, 5, 64, 114
7, 185096, Note_off_c, 5, 64, 64
7, 185278, Note_on_c, 5, 66, 127
7, 185313, Note_off_c, 5, 66, 64
7, 185518, Note_on_c, 5, 64, 112
7, 185555, Note_off_c, 5, 64, 64
7, 187217, Note_on_c, 5, 62, 125
7, 187255, Note_off_c, 5, 62, 64
7, 187443, Note_on_c, 5, 64, 120
7, 187478, Note_off_c, 5, 64, 64
7, 187693, Note_on_c, 5, 64, 125
7, 187727, Note_off_c, 5, 64, 64
7, 187927, Note_on_c, 5, 62, 125
7, 187963, Note_off_c, 5, 62, 64
7, 188152, Note_on_c, 5, 64, 110
7, 188183, Note_off_c, 5, 64, 64
7, 188386, Note_on_c, 5, 64, 127
7, 188417, Note_off_c, 5, 64, 64
7, 190075, Note_on_c, 5, 64, 120
7, 190117, Note_off_c, 5, 64, 64
7, 190307, Note_on_c, 5, 66, 119
7, 190352, Note_off_c, 5, 66, 64
7, 190562, Note_on_c, 5, 64, 114
7, 190600, Note_off_c, 5, 64, 64
7, 190810, Note_on_c, 5, 64, 110
7, 190846, Note_off_c, 5, 64, 64
7, 191030, Note_on_c, 5, 66, 127
7, 191067, Note_off_c, 5, 66, 64
7, 191271, Note_on_c, 5, 64, 108
7, 191300, Note_off_c, 5, 64, 64
7, 191300, End_track
8, 0, Start_track
8, 0, MIDI_port, 0
8, 0, Channel_prefix, 6
8, 0, Control_c, 6, 10, 64
8, 200, Control_c, 6, 121, 0
8, 280, Control_c, 6, 101, 0
8, 360, Control_c, 6, 100, 0
8, 440, Control_c, 6, 6, 12
8, 520, Program_c, 6, 92
8, 1475, Control_c, 6, 93, 0
8, 1555, Control_c, 6, 91, 64
8, 1635, Control_c, 6, 10, 64
8, 1715, Control_c, 6, 7, 87
8, 3065, Control_c, 6, 64, 127
8, 3090, Note_on_c, 6, 83, 85
8, 3107, Control_c, 6, 11, 121
8, 3130, Control_c, 6, 11, 112
8, 3152, Control_c, 6, 11, 104
8, 3176, Control_c, 6, 11, 102
8, 3196, Note_off_c, 6, 83, 64
8, 3200, Control_c, 6, 11, 127
8, 3292, Control_c, 6, 11, 120
8, 3313, Control_c, 6, 11, 110
8, 3328, Note_on_c, 6, 90, 119
8, 3337, Control_c, 6, 11, 102
8, 3361, Control_c, 6, 11, 99
8, 3392, Note_off_c, 6, 90, 64
8, 3395, Control_c, 6, 11, 127
8, 3476, Control_c, 6, 11, 119
8, 3496, Control_c, 6, 11, 113
8, 3510, Control_c, 6, 11, 98
8, 3532, Control_c, 6, 11, 88
8, 3556, Control_c, 6, 11, 85
8, 3580, Control_c, 6, 11, 127
8, 3672, Control_c, 6, 11, 117
8, 3695, Control_c, 6, 11, 102
8, 3717, Control_c, 6, 11, 91
8, 3738, Control_c, 6, 11, 86
8, 3763, Control_c, 6, 11, 127
8, 3845, Control_c, 6, 11, 126
8, 3855, Control_c, 6, 11, 115
8, 3860, Note_on_c, 6, 95, 114
8, 3878, Control_c, 6, 11, 93
8, 3902, Control_c, 6, 11, 78
8, 3923, Control_c, 6, 11, 73
8, 3935, Note_off_c, 6, 95, 64
8, 3947, Control_c, 6, 11, 127
8, 4040, Control_c, 6, 11, 124
8, 4051, Control_c, 6, 11, 108
8, 4075, Control_c, 6, 11, 85
8, 4097, Control_c, 6, 11, 73
8, 4120, Control_c, 6, 11, 71
8, 4142, Control_c, 6, 11, 127
8, 4225, Control_c, 6, 11, 126
8, 4233, Control_c, 6, 11, 115
8, 4257, Control_c, 6, 11, 90
8, 4281, Control_c, 6, 11, 71
8, 4302, Control_c, 6, 11, 66
8, 4338, Control_c, 6, 11, 89
8, 4351, Control_c, 6, 11, 127
8, 4420, Control_c, 6, 11, 119
8, 4442, Control_c, 6, 11, 100
8, 4466, Control_c, 6, 11, 88
8, 4470, Note_on_c, 6, 88, 112
8, 4477, Control_c, 6, 11, 73
8, 4501, Control_c, 6, 11, 69
8, 4523, Control_c, 6, 11, 127
8, 4526, Note_off_c, 6, 88, 64
8, 4616, Control_c, 6, 11, 120
8, 4637, Control_c, 6, 11, 103
8, 4661, Control_c, 6, 11, 80
8, 4685, Control_c, 6, 11, 71
8, 4707, Control_c, 6, 11, 70
8, 4730, Control_c, 6, 11, 127
8, 4810, Control_c, 6, 11, 125
8, 4822, Control_c, 6, 11, 113
8, 4845, Control_c, 6, 11, 89
8, 4868, Control_c, 6, 11, 72
8, 4892, Control_c, 6, 11, 67
8, 4926, Control_c, 6, 11, 83
8, 4937, Control_c, 6, 11, 127
8, 5007, Control_c, 6, 11, 126
8, 5017, Control_c, 6, 11, 116
8, 5041, Control_c, 6, 11, 94
8, 5063, Control_c, 6, 11, 74
8, 5087, Control_c, 6, 11, 67
8, 5122, Control_c, 6, 11, 70
8, 5133, Control_c, 6, 11, 127
8, 5213, Control_c, 6, 11, 123
8, 5226, Control_c, 6, 11, 107
8, 5247, Control_c, 6, 11, 77
8, 5271, Control_c, 6, 11, 61
8, 5295, Control_c, 6, 11, 57
8, 5317, Control_c, 6, 11, 125
8, 5341, Control_c, 6, 11, 127
8, 5410, Control_c, 6, 11, 120
8, 5432, Control_c, 6, 11, 100
8, 5455, Control_c, 6, 11, 86
8, 5467, Control_c, 6, 11, 66
8, 5490, Control_c, 6, 11, 60
8, 5525, Control_c, 6, 11, 65
8, 5536, Control_c, 6, 11, 127
8, 5616, Control_c, 6, 11, 123
8, 5628, Control_c, 6, 11, 102
8, 5652, Control_c, 6, 11, 73
8, 5673, Control_c, 6, 11, 56
8, 5698, Control_c, 6, 11, 54
8, 5732, Control_c, 6, 11, 119
8, 5743, Control_c, 6, 11, 127
8, 5810, Note_on_c, 6, 64, 79
8, 5813, Control_c, 6, 11, 122
8, 5835, Control_c, 6, 11, 103
8, 5858, Control_c, 6, 11, 78
8, 5882, Control_c, 6, 11, 65
8, 5903, Control_c, 6, 11, 63
8, 5927, Control_c, 6, 11, 127
8, 6018, Control_c, 6, 11, 124
8, 6031, Control_c, 6, 11, 111
8, 6053, Control_c, 6, 11, 89
8, 6067, Note_on_c, 6, 71, 65
8, 6077, Control_c, 6, 11, 78
8, 6102, Control_c, 6, 11, 74
8, 6123, Control_c, 6, 11, 127
8, 6217, Control_c, 6, 11, 120
8, 6238, Control_c, 6, 11, 106
8, 6260, Control_c, 6, 11, 86
8, 6285, Control_c, 6, 11, 77
8, 6308, Control_c, 6, 11, 75
8, 6310, Note_on_c, 6, 76, 85
8, 6330, Control_c, 6, 11, 127
8, 6338, Note_off_c, 6, 71, 64
8, 6391, Control_c, 6, 64, 0
8, 6422, Control_c, 6, 11, 116
8, 6445, Control_c, 6, 11, 91
8, 6468, Control_c, 6, 11, 78
8, 6480, Control_c, 6, 11, 67
8, 6505, Control_c, 6, 11, 65
8, 6526, Control_c, 6, 11, 127
8, 6561, Note_on_c, 6, 100, 102
8, 6562, Note_on_c, 6, 91, 100
8, 6563, Note_on_c, 6, 95, 110
8, 6578, Note_on_c, 6, 71, 70
8, 6607, Control_c, 6, 11, 126
8, 6617, Control_c, 6, 11, 116
8, 6641, Control_c, 6, 11, 90
8, 6665, Control_c, 6, 11, 69
8, 6688, Control_c, 6, 11, 63
8, 6722, Control_c, 6, 11, 67
8, 6735, Control_c, 6, 11, 127
8, 6815, Control_c, 6, 11, 123
8, 6825, Control_c, 6, 11, 107
8, 6848, Control_c, 6, 11, 81
8, 6863, Note_on_c, 6, 67, 53
8, 6872, Control_c, 6, 11, 68
8, 6893, Control_c, 6, 11, 64
8, 6917, Control_c, 6, 11, 67
8, 6930, Control_c, 6, 11, 127
8, 7011, Control_c, 6, 11, 124
8, 7022, Control_c, 6, 11, 109
8, 7043, Control_c, 6, 11, 81
8, 7066, Control_c, 6, 11, 65
8, 7091, Control_c, 6, 11, 60
8, 7112, Control_c, 6, 11, 125
8, 7136, Control_c, 6, 11, 127
8, 7206, Control_c, 6, 11, 121
8, 7228, Control_c, 6, 11, 103
8, 7251, Control_c, 6, 11, 80
8, 7275, Control_c, 6, 11, 71
8, 7297, Control_c, 6, 11, 68
8, 7320, Control_c, 6, 11, 127
8, 7412, Control_c, 6, 11, 123
8, 7425, Control_c, 6, 11, 110
8, 7448, Control_c, 6, 11, 88
8, 7470, Control_c, 6, 11, 77
8, 7493, Control_c, 6, 11, 74
8, 7528, Control_c, 6, 11, 127
8, 7608, Control_c, 6, 11, 119
8, 7631, Control_c, 6, 11, 99
8, 7655, Control_c, 6, 11, 75
8, 7677, Control_c, 6, 11, 67
8, 7701, Control_c, 6, 11, 65
8, 7722, Control_c, 6, 11, 127
8, 7816, Control_c, 6, 11, 117
8, 7840, Control_c, 6, 11, 97
8, 7862, Control_c, 6, 11, 78
8, 7883, Control_c, 6, 11, 74
8, 7897, Control_c, 6, 11, 70
8, 7920, Control_c, 6, 11, 127
8, 8023, Control_c, 6, 11, 122
8, 8035, Control_c, 6, 11, 110
8, 8057, Control_c, 6, 11, 95
8, 8081, Control_c, 6, 11, 86
8, 8102, Control_c, 6, 11, 83
8, 8126, Control_c, 6, 11, 127
8, 8218, Control_c, 6, 11, 118
8, 8241, Control_c, 6, 11, 94
8, 8265, Control_c, 6, 11, 70
8, 8287, Control_c, 6, 11, 62
8, 8311, Control_c, 6, 11, 63
8, 8332, Control_c, 6, 11, 127
8, 8415, Control_c, 6, 11, 122
8, 8437, Control_c, 6, 11, 108
8, 8460, Control_c, 6, 11, 86
8, 8483, Control_c, 6, 11, 76
8, 8507, Control_c, 6, 11, 73
8, 8530, Control_c, 6, 11, 127
8, 8633, Control_c, 6, 11, 125
8, 8641, Note_off_c, 6, 95, 64
8, 8641, Note_off_c, 6, 91, 64
8, 8641, Note_off_c, 6, 100, 64
8, 8643, Note_off_c, 6, 67, 64
8, 8650, Note_off_c, 6, 64, 64
8, 8650, Note_off_c, 6, 76, 64
8, 8658, Note_off_c, 6, 71, 64
8, 10751, Note_on_c, 6, 83, 110
8, 10913, Control_c, 6, 11, 117
8, 10937, Control_c, 6, 11, 81
8, 10960, Control_c, 6, 11, 52
8, 10980, Control_c, 6, 11, 43
8, 11005, Control_c, 6, 11, 42
8, 11027, Control_c, 6, 11, 127
8, 11120, Control_c, 6, 11, 120
8, 11143, Control_c, 6, 11, 98
8, 11167, Control_c, 6, 11, 69
8, 11188, Control_c, 6, 11, 50
8, 11212, Control_c, 6, 11, 45
8, 11257, Control_c, 6, 11, 127
8, 11340, Control_c, 6, 11, 120
8, 11362, Control_c, 6, 11, 104
8, 11386, Control_c, 6, 11, 82
8, 11410, Control_c, 6, 11, 72
8, 11431, Control_c, 6, 11, 68
8, 11455, Control_c, 6, 11, 94
8, 11477, Control_c, 6, 11, 127
8, 11546, Control_c, 6, 11, 117
8, 11570, Control_c, 6, 11, 101
8, 11592, Control_c, 6, 11, 81
8, 11616, Control_c, 6, 11, 70
8, 11638, Control_c, 6, 11, 66
8, 11662, Control_c, 6, 11, 92
8, 11685, Control_c, 6, 11, 127
8, 11766, Control_c, 6, 11, 125
8, 11777, Control_c, 6, 11, 114
8, 11800, Control_c, 6, 11, 91
8, 11822, Control_c, 6, 11, 79
8, 11836, Control_c, 6, 11, 61
8, 11857, Control_c, 6, 11, 56
8, 11903, Control_c, 6, 11, 127
8, 11985, Control_c, 6, 11, 125
8, 11996, Control_c, 6, 11, 113
8, 12020, Control_c, 6, 11, 78
8, 12042, Control_c, 6, 11, 49
8, 12065, Control_c, 6, 11, 35
8, 12078, Note_off_c, 6, 83, 64
8, 12087, Control_c, 6, 11, 34
8, 12135, Control_c, 6, 11, 107
8, 12157, Control_c, 6, 11, 127
8, 12203, Control_c, 6, 11, 119
8, 12227, Control_c, 6, 11, 98
8, 12248, Control_c, 6, 11, 68
8, 12272, Control_c, 6, 11, 49
8, 12295, Control_c, 6, 11, 46
8, 12307, Control_c, 6, 11, 44
8, 12342, Control_c, 6, 11, 52
8, 12352, Control_c, 6, 11, 127
8, 12411, Control_c, 6, 11, 126
8, 12422, Control_c, 6, 11, 116
8, 12445, Control_c, 6, 11, 87
8, 12468, Control_c, 6, 11, 57
8, 12492, Control_c, 6, 11, 38
8, 12513, Control_c, 6, 11, 33
8, 12547, Control_c, 6, 11, 36
8, 12560, Control_c, 6, 11, 127
8, 13092, Control_c, 6, 11, 124
8, 13102, Control_c, 6, 11, 114
8, 13126, Control_c, 6, 11, 91
8, 13150, Control_c, 6, 11, 54
8, 13173, Control_c, 6, 11, 22
8, 13195, Control_c, 6, 11, 9
8, 13218, Control_c, 6, 11, 4
8, 13222, Note_on_c, 6, 74, 125
8, 13483, Control_c, 6, 11, 6
8, 13598, Control_c, 6, 11, 9
8, 13712, Control_c, 6, 11, 11
8, 13748, Control_c, 6, 11, 16
8, 13771, Control_c, 6, 11, 21
8, 13795, Control_c, 6, 11, 30
8, 13817, Control_c, 6, 11, 40
8, 13840, Control_c, 6, 11, 49
8, 13863, Control_c, 6, 11, 58
8, 13885, Control_c, 6, 11, 66
8, 13910, Control_c, 6, 11, 74
8, 13932, Control_c, 6, 11, 81
8, 13956, Control_c, 6, 11, 88
8, 13978, Control_c, 6, 11, 96
8, 14002, Control_c, 6, 11, 103
8, 14023, Control_c, 6, 11, 110
8, 14047, Control_c, 6, 11, 116
8, 14070, Control_c, 6, 11, 124
8, 14093, Control_c, 6, 11, 127
8, 15633, Note_off_c, 6, 74, 64
8, 15665, Control_c, 6, 11, 118
8, 15687, Control_c, 6, 11, 103
8, 15710, Note_on_c, 6, 76, 114
8, 15712, Control_c, 6, 11, 77
8, 15732, Control_c, 6, 11, 54
8, 15756, Control_c, 6, 11, 39
8, 15778, Control_c, 6, 11, 33
8, 15826, Control_c, 6, 11, 30
8, 15871, Control_c, 6, 11, 38
8, 15895, Control_c, 6, 11, 44
8, 15907, Control_c, 6, 11, 59
8, 15930, Control_c, 6, 11, 120
8, 15963, Control_c, 6, 11, 127
8, 16433, Note_off_c, 6, 76, 64
8, 16471, Control_c, 6, 11, 121
8, 16490, Note_on_c, 6, 74, 114
8, 16493, Control_c, 6, 11, 113
8, 16516, Control_c, 6, 11, 104
8, 16538, Control_c, 6, 11, 95
8, 16562, Control_c, 6, 11, 87
8, 16586, Control_c, 6, 11, 81
8, 16608, Control_c, 6, 11, 79
8, 16643, Control_c, 6, 11, 83
8, 16655, Control_c, 6, 11, 93
8, 16676, Control_c, 6, 11, 127
8, 16987, Note_off_c, 6, 74, 64
8, 17001, Note_on_c, 6, 71, 106
8, 17011, Control_c, 6, 11, 124
8, 17033, Control_c, 6, 11, 116
8, 17057, Control_c, 6, 11, 106
8, 17081, Control_c, 6, 11, 95
8, 17103, Control_c, 6, 11, 85
8, 17126, Control_c, 6, 11, 77
8, 17148, Control_c, 6, 11, 72
8, 17170, Control_c, 6, 11, 70
8, 17220, Control_c, 6, 11, 78
8, 17241, Control_c, 6, 11, 93
8, 17265, Control_c, 6, 11, 127
8, 17667, Control_c, 6, 11, 119
8, 17690, Control_c, 6, 11, 108
8, 17710, Note_off_c, 6, 71, 64
8, 17715, Control_c, 6, 11, 88
8, 17720, Note_on_c, 6, 76, 117
8, 17737, Control_c, 6, 11, 66
8, 17760, Control_c, 6, 11, 50
8, 17781, Control_c, 6, 11, 39
8, 17806, Control_c, 6, 11, 36
8, 17828, Control_c, 6, 11, 34
8, 17862, Control_c, 6, 11, 32
8, 17910, Control_c, 6, 11, 42
8, 17932, Control_c, 6, 11, 54
8, 17956, Control_c, 6, 11, 85
8, 17978, Control_c, 6, 11, 84
8, 17995, Note_on_c, 6, 88, 98
8, 18000, Note_on_c, 6, 91, 98
8, 18001, Note_on_c, 6, 95, 95
8, 18017, Control_c, 6, 11, 77
8, 18041, Control_c, 6, 11, 73
8, 18052, Control_c, 6, 11, 40
8, 18075, Control_c, 6, 11, 21
8, 18097, Control_c, 6, 11, 18
8, 18156, Control_c, 6, 11, 24
8, 18166, Control_c, 6, 11, 61
8, 18190, Control_c, 6, 11, 127
8, 18260, Control_c, 6, 11, 118
8, 18271, Control_c, 6, 11, 105
8, 18293, Control_c, 6, 11, 98
8, 18317, Control_c, 6, 11, 88
8, 18341, Control_c, 6, 11, 99
8, 18373, Control_c, 6, 11, 121
8, 18385, Control_c, 6, 11, 127
8, 18432, Control_c, 6, 11, 122
8, 18455, Control_c, 6, 11, 111
8, 18477, Control_c, 6, 11, 96
8, 18501, Control_c, 6, 11, 83
8, 18523, Control_c, 6, 11, 77
8, 18558, Control_c, 6, 11, 79
8, 18570, Control_c, 6, 11, 89
8, 18592, Control_c, 6, 11, 95
8, 18615, Control_c, 6, 11, 90
8, 18638, Control_c, 6, 11, 79
8, 18662, Control_c, 6, 11, 61
8, 18685, Control_c, 6, 11, 54
8, 18697, Control_c, 6, 11, 48
8, 18731, Control_c, 6, 11, 51
8, 18742, Control_c, 6, 11, 77
8, 18765, Control_c, 6, 11, 94
8, 18811, Control_c, 6, 11, 83
8, 18835, Control_c, 6, 11, 63
8, 18857, Control_c, 6, 11, 45
8, 18882, Control_c, 6, 11, 40
8, 18916, Control_c, 6, 11, 43
8, 18926, Control_c, 6, 11, 121
8, 18948, Control_c, 6, 11, 126
8, 18983, Control_c, 6, 11, 121
8, 18995, Control_c, 6, 11, 104
8, 19018, Control_c, 6, 11, 71
8, 19041, Control_c, 6, 11, 47
8, 19063, Control_c, 6, 11, 40
8, 19098, Control_c, 6, 11, 45
8, 19111, Control_c, 6, 11, 127
8, 19167, Control_c, 6, 11, 123
8, 19181, Control_c, 6, 11, 106
8, 19203, Control_c, 6, 11, 89
8, 19215, Control_c, 6, 11, 58
8, 19237, Control_c, 6, 11, 44
8, 19261, Control_c, 6, 11, 54
8, 19296, Control_c, 6, 11, 127
8, 19342, Control_c, 6, 11, 125
8, 19351, Control_c, 6, 11, 113
8, 19375, Control_c, 6, 11, 82
8, 19398, Control_c, 6, 11, 54
8, 19422, Control_c, 6, 11, 45
8, 19456, Control_c, 6, 11, 48
8, 19467, Control_c, 6, 11, 127
8, 19525, Control_c, 6, 11, 126
8, 19537, Control_c, 6, 11, 115
8, 19560, Control_c, 6, 11, 84
8, 19583, Control_c, 6, 11, 58
8, 19607, Control_c, 6, 11, 50
8, 19640, Control_c, 6, 11, 58
8, 19652, Control_c, 6, 11, 127
8, 19721, Control_c, 6, 11, 123
8, 19732, Control_c, 6, 11, 110
8, 19755, Control_c, 6, 11, 88
8, 19778, Control_c, 6, 11, 78
8, 19802, Control_c, 6, 11, 79
8, 19825, Control_c, 6, 11, 127
8, 19893, Control_c, 6, 11, 121
8, 19917, Control_c, 6, 11, 108
8, 19940, Control_c, 6, 11, 92
8, 19962, Control_c, 6, 11, 83
8, 19970, Note_off_c, 6, 76, 64
8, 19996, Control_c, 6, 11, 86
8, 20010, Control_c, 6, 11, 127
8, 20077, Control_c, 6, 11, 117
8, 20101, Control_c, 6, 11, 95
8, 20125, Control_c, 6, 11, 71
8, 20146, Control_c, 6, 11, 127
8, 20160, Note_on_c, 6, 67, 86
8, 20160, Note_on_c, 6, 71, 104
8, 20160, Note_on_c, 6, 76, 105
8, 20161, Note_off_c, 6, 88, 64
8, 20161, Note_off_c, 6, 91, 64
8, 20161, Note_off_c, 6, 95, 64
8, 20298, Control_c, 6, 11, 122
8, 20321, Control_c, 6, 11, 112
8, 20343, Control_c, 6, 11, 93
8, 20366, Control_c, 6, 11, 72
8, 20388, Control_c, 6, 11, 64
8, 20411, Control_c, 6, 11, 62
8, 20435, Control_c, 6, 11, 120
8, 20458, Control_c, 6, 11, 127
8, 20525, Control_c, 6, 11, 116
8, 20546, Control_c, 6, 11, 96
8, 20571, Control_c, 6, 11, 77
8, 20593, Control_c, 6, 11, 69
8, 20617, Control_c, 6, 11, 69
8, 20640, Control_c, 6, 11, 127
8, 20720, Control_c, 6, 11, 126
8, 20731, Control_c, 6, 11, 116
8, 20753, Control_c, 6, 11, 101
8, 20776, Control_c, 6, 11, 89
8, 20800, Control_c, 6, 11, 83
8, 20832, Control_c, 6, 11, 86
8, 20845, Control_c, 6, 11, 115
8, 20866, Control_c, 6, 11, 119
8, 20901, Control_c, 6, 11, 116
8, 20912, Control_c, 6, 11, 105
8, 20935, Control_c, 6, 11, 97
8, 20947, Control_c, 6, 11, 84
8, 20970, Control_c, 6, 11, 77
8, 21003, Control_c, 6, 11, 80
8, 21015, Control_c, 6, 11, 127
8, 21072, Control_c, 6, 11, 126
8, 21083, Control_c, 6, 11, 118
8, 21107, Control_c, 6, 11, 107
8, 21128, Control_c, 6, 11, 98
8, 21152, Control_c, 6, 11, 95
8, 21185, Control_c, 6, 11, 125
8, 21195, Control_c, 6, 11, 127
8, 21253, Control_c, 6, 11, 123
8, 21265, Control_c, 6, 11, 113
8, 21288, Control_c, 6, 11, 103
8, 21312, Control_c, 6, 11, 95
8, 21333, Control_c, 6, 11, 95
8, 21357, Control_c, 6, 11, 127
8, 21437, Control_c, 6, 11, 122
8, 21447, Control_c, 6, 11, 112
8, 21471, Control_c, 6, 11, 103
8, 21493, Control_c, 6, 11, 96
8, 21527, Control_c, 6, 11, 98
8, 21538, Control_c, 6, 11, 127
8, 21547, Note_off_c, 6, 67, 64
8, 21570, Note_on_c, 6, 79, 127
8, 21608, Control_c, 6, 11, 122
8, 21630, Control_c, 6, 11, 113
8, 21653, Control_c, 6, 11, 105
8, 21676, Control_c, 6, 11, 102
8, 21698, Control_c, 6, 11, 127
8, 21790, Control_c, 6, 11, 120
8, 21810, Control_c, 6, 11, 111
8, 21835, Control_c, 6, 11, 106
8, 21868, Control_c, 6, 11, 120
8, 21880, Control_c, 6, 11, 127
8, 21961, Control_c, 6, 11, 119
8, 21982, Control_c, 6, 11, 107
8, 22006, Control_c, 6, 11, 92
8, 22028, Control_c, 6, 11, 82
8, 22051, Control_c, 6, 11, 77
8, 22073, Control_c, 6, 11, 97
8, 22097, Control_c, 6, 11, 127
8, 22188, Control_c, 6, 11, 120
8, 22208, Control_c, 6, 11, 107
8, 22233, Control_c, 6, 11, 93
8, 22256, Control_c, 6, 11, 85
8, 22278, Control_c, 6, 11, 82
8, 22301, Control_c, 6, 11, 127
8, 22382, Control_c, 6, 11, 126
8, 22392, Control_c, 6, 11, 116
8, 22416, Control_c, 6, 11, 103
8, 22438, Control_c, 6, 11, 92
8, 22462, Control_c, 6, 11, 85
8, 22507, Control_c, 6, 11, 127
8, 22598, Control_c, 6, 11, 119
8, 22621, Control_c, 6, 11, 110
8, 22643, Control_c, 6, 11, 102
8, 22666, Control_c, 6, 11, 99
8, 22688, Control_c, 6, 11, 127
8, 22802, Control_c, 6, 11, 121
8, 22826, Control_c, 6, 11, 118
8, 22837, Control_c, 6, 11, 115
8, 22882, Control_c, 6, 11, 127
8, 22990, Note_off_c, 6, 79, 64
8, 23001, Note_on_c, 6, 69, 94
8, 23002, Note_on_c, 6, 66, 121
8, 23007, Note_on_c, 6, 74, 104
8, 23023, Note_off_c, 6, 71, 64
8, 23025, Note_off_c, 6, 76, 64
8, 23135, Control_c, 6, 11, 120
8, 23156, Control_c, 6, 11, 100
8, 23178, Control_c, 6, 11, 69
8, 23202, Control_c, 6, 11, 51
8, 23225, Control_c, 6, 11, 48
8, 23257, Control_c, 6, 11, 121
8, 23270, Control_c, 6, 11, 127
8, 23350, Control_c, 6, 11, 123
8, 23360, Control_c, 6, 11, 97
8, 23383, Control_c, 6, 11, 65
8, 23406, Control_c, 6, 11, 48
8, 23430, Control_c, 6, 11, 47
8, 23451, Control_c, 6, 11, 127
8, 23542, Control_c, 6, 11, 119
8, 23565, Control_c, 6, 11, 99
8, 23588, Control_c, 6, 11, 78
8, 23611, Control_c, 6, 11, 71
8, 23657, Control_c, 6, 11, 127
8, 23736, Control_c, 6, 11, 124
8, 23747, Control_c, 6, 11, 119
8, 23760, Control_c, 6, 11, 99
8, 23782, Control_c, 6, 11, 78
8, 23805, Control_c, 6, 11, 71
8, 23827, Control_c, 6, 11, 73
8, 23851, Control_c, 6, 11, 127
8, 23920, Control_c, 6, 11, 121
8, 23940, Control_c, 6, 11, 101
8, 23965, Control_c, 6, 11, 74
8, 23987, Control_c, 6, 11, 64
8, 24008, Control_c, 6, 11, 64
8, 24032, Control_c, 6, 11, 127
8, 24112, Control_c, 6, 11, 124
8, 24123, Control_c, 6, 11, 114
8, 24146, Control_c, 6, 11, 100
8, 24170, Control_c, 6, 11, 90
8, 24192, Control_c, 6, 11, 86
8, 24215, Control_c, 6, 11, 119
8, 24237, Control_c, 6, 11, 127
8, 24305, Control_c, 6, 11, 119
8, 24327, Control_c, 6, 11, 109
8, 24351, Control_c, 6, 11, 100
8, 24375, Control_c, 6, 11, 95
8, 24407, Control_c, 6, 11, 119
8, 24420, Control_c, 6, 11, 127
8, 24436, Note_on_c, 6, 78, 113
8, 24453, Note_off_c, 6, 66, 64
8, 24613, Control_c, 6, 11, 124
8, 24625, Control_c, 6, 11, 113
8, 24647, Control_c, 6, 11, 91
8, 24670, Control_c, 6, 11, 76
8, 24693, Control_c, 6, 11, 71
8, 24726, Control_c, 6, 11, 127
8, 24818, Control_c, 6, 11, 121
8, 24840, Control_c, 6, 11, 109
8, 24863, Control_c, 6, 11, 98
8, 24886, Control_c, 6, 11, 91
8, 24920, Control_c, 6, 11, 125
8, 24932, Control_c, 6, 11, 127
8, 25011, Control_c, 6, 11, 125
8, 25023, Control_c, 6, 11, 114
8, 25045, Control_c, 6, 11, 93
8, 25068, Control_c, 6, 11, 82
8, 25091, Control_c, 6, 11, 79
8, 25115, Control_c, 6, 11, 127
8, 25217, Control_c, 6, 11, 122
8, 25228, Control_c, 6, 11, 103
8, 25251, Control_c, 6, 11, 78
8, 25273, Control_c, 6, 11, 66
8, 25296, Control_c, 6, 11, 64
8, 25318, Control_c, 6, 11, 127
8, 25420, Control_c, 6, 11, 124
8, 25433, Control_c, 6, 11, 113
8, 25455, Control_c, 6, 11, 98
8, 25478, Control_c, 6, 11, 87
8, 25502, Control_c, 6, 11, 82
8, 25523, Control_c, 6, 11, 107
8, 25547, Control_c, 6, 11, 127
8, 25637, Control_c, 6, 11, 120
8, 25660, Control_c, 6, 11, 115
8, 25672, Control_c, 6, 11, 107
8, 25695, Control_c, 6, 11, 103
8, 25728, Control_c, 6, 11, 117
8, 25740, Control_c, 6, 11, 127
8, 25791, Note_off_c, 6, 69, 64
8, 25791, Note_off_c, 6, 78, 64
8, 25793, Note_off_c, 6, 74, 64
8, 25876, Control_c, 6, 11, 124
8, 25900, Control_c, 6, 11, 117
8, 25920, Note_on_c, 6, 88, 114
8, 25920, Note_on_c, 6, 91, 127
8, 25920, Note_on_c, 6, 95, 126
8, 25923, Control_c, 6, 11, 107
8, 25943, Control_c, 6, 11, 95
8, 25968, Control_c, 6, 11, 82
8, 25990, Control_c, 6, 11, 71
8, 26013, Control_c, 6, 11, 64
8, 26035, Control_c, 6, 11, 62
8, 26070, Control_c, 6, 11, 127
8, 26162, Control_c, 6, 11, 125
8, 26172, Control_c, 6, 11, 116
8, 26195, Control_c, 6, 11, 107
8, 26218, Control_c, 6, 11, 99
8, 26253, Control_c, 6, 11, 113
8, 26263, Control_c, 6, 11, 127
8, 26355, Control_c, 6, 11, 120
8, 26377, Control_c, 6, 11, 113
8, 26400, Control_c, 6, 11, 106
8, 26447, Control_c, 6, 11, 127
8, 26550, Control_c, 6, 11, 118
8, 26582, Control_c, 6, 11, 107
8, 26601, Note_off_c, 6, 88, 64
8, 26605, Note_off_c, 6, 91, 64
8, 26605, Note_on_c, 6, 100, 120
8, 26605, Note_on_c, 6, 103, 112
8, 26606, Control_c, 6, 11, 101
8, 26617, Control_c, 6, 11, 87
8, 26651, Control_c, 6, 11, 83
8, 26662, Control_c, 6, 11, 80
8, 26697, Control_c, 6, 11, 126
8, 26797, Control_c, 6, 11, 119
8, 26822, Control_c, 6, 11, 109
8, 26843, Control_c, 6, 11, 99
8, 26867, Control_c, 6, 11, 93
8, 26888, Control_c, 6, 11, 127
8, 26993, Control_c, 6, 11, 125
8, 27002, Control_c, 6, 11, 117
8, 27027, Control_c, 6, 11, 109
8, 27050, Control_c, 6, 11, 103
8, 27085, Control_c, 6, 11, 123
8, 27093, Control_c, 6, 11, 127
8, 27175, Control_c, 6, 11, 123
8, 27186, Control_c, 6, 11, 114
8, 27208, Control_c, 6, 11, 105
8, 27232, Control_c, 6, 11, 99
8, 27252, Note_off_c, 6, 95, 64
8, 27288, Control_c, 6, 11, 104
8, 27298, Control_c, 6, 11, 109
8, 27312, Note_on_c, 6, 96, 106
8, 27322, Control_c, 6, 11, 111
8, 27381, Control_c, 6, 11, 106
8, 27391, Control_c, 6, 11, 95
8, 27413, Control_c, 6, 11, 75
8, 27436, Control_c, 6, 11, 58
8, 27460, Control_c, 6, 11, 47
8, 27482, Control_c, 6, 11, 45
8, 27515, Control_c, 6, 11, 51
8, 27528, Control_c, 6, 11, 127
8, 27618, Control_c, 6, 11, 126
8, 27630, Control_c, 6, 11, 117
8, 27652, Control_c, 6, 11, 106
8, 27676, Control_c, 6, 11, 96
8, 27698, Control_c, 6, 11, 91
8, 27720, Control_c, 6, 11, 127
8, 27825, Control_c, 6, 11, 125
8, 27835, Control_c, 6, 11, 115
8, 27857, Control_c, 6, 11, 105
8, 27881, Control_c, 6, 11, 96
8, 27903, Control_c, 6, 11, 93
8, 27936, Control_c, 6, 11, 127
8, 28015, Note_off_c, 6, 103, 64
8, 28027, Note_off_c, 6, 100, 64
8, 28030, Note_off_c, 6, 96, 64
8, 28030, Control_c, 6, 11, 126
8, 28040, Control_c, 6, 11, 117
8, 28061, Control_c, 6, 11, 107
8, 28085, Control_c, 6, 11, 98
8, 28107, Control_c, 6, 11, 92
8, 28142, Control_c, 6, 11, 96
8, 28155, Control_c, 6, 11, 127
8, 28246, Control_c, 6, 11, 121
8, 28267, Control_c, 6, 11, 111
8, 28291, Control_c, 6, 11, 101
8, 28312, Control_c, 6, 11, 93
8, 28335, Control_c, 6, 11, 91
8, 28370, Control_c, 6, 11, 95
8, 28381, Control_c, 6, 11, 127
8, 28461, Control_c, 6, 11, 123
8, 28472, Control_c, 6, 11, 114
8, 28493, Control_c, 6, 11, 109
8, 28507, Control_c, 6, 11, 94
8, 28541, Control_c, 6, 11, 90
8, 28552, Control_c, 6, 11, 84
8, 28575, Control_c, 6, 11, 82
8, 28632, Control_c, 6, 11, 78
8, 28643, Control_c, 6, 11, 73
8, 28665, Control_c, 6, 11, 65
8, 28688, Control_c, 6, 11, 53
8, 28711, Control_c, 6, 11, 42
8, 28733, Control_c, 6, 11, 37
8, 28768, Control_c, 6, 11, 34
8, 28793, Note_on_c, 6, 95, 90
8, 28795, Note_on_c, 6, 103, 104
8, 28797, Note_on_c, 6, 100, 106
8, 28802, Control_c, 6, 11, 80
8, 28826, Control_c, 6, 11, 127
8, 28951, Control_c, 6, 11, 125
8, 28961, Control_c, 6, 11, 117
8, 28985, Control_c, 6, 11, 108
8, 29008, Control_c, 6, 11, 101
8, 29031, Control_c, 6, 11, 99
8, 29053, Control_c, 6, 11, 127
8, 29156, Control_c, 6, 11, 122
8, 29166, Control_c, 6, 11, 111
8, 29190, Control_c, 6, 11, 99
8, 29212, Control_c, 6, 11, 91
8, 29236, Control_c, 6, 11, 92
8, 29258, Control_c, 6, 11, 127
8, 29350, Control_c, 6, 11, 118
8, 29371, Control_c, 6, 11, 107
8, 29395, Control_c, 6, 11, 97
8, 29417, Control_c, 6, 11, 91
8, 29451, Control_c, 6, 11, 97
8, 29462, Control_c, 6, 11, 127
8, 29543, Control_c, 6, 11, 121
8, 29565, Control_c, 6, 11, 112
8, 29588, Control_c, 6, 11, 104
8, 29611, Control_c, 6, 11, 98
8, 29656, Control_c, 6, 11, 126
8, 29760, Control_c, 6, 11, 122
8, 29770, Control_c, 6, 11, 114
8, 29792, Control_c, 6, 11, 106
8, 29816, Control_c, 6, 11, 101
8, 29862, Control_c, 6, 11, 127
8, 29941, Control_c, 6, 11, 126
8, 29953, Control_c, 6, 11, 119
8, 29973, Control_c, 6, 11, 112
8, 29998, Control_c, 6, 11, 105
8, 30022, Control_c, 6, 11, 102
8, 30067, Control_c, 6, 11, 105
8, 30088, Control_c, 6, 11, 107
8, 30135, Control_c, 6, 11, 102
8, 30157, Control_c, 6, 11, 95
8, 30180, Control_c, 6, 11, 89
8, 30203, Control_c, 6, 11, 84
8, 30248, Control_c, 6, 11, 89
8, 30272, Control_c, 6, 11, 92
8, 30306, Control_c, 6, 11, 89
8, 30317, Control_c, 6, 11, 83
8, 30340, Control_c, 6, 11, 77
8, 30362, Control_c, 6, 11, 71
8, 30386, Control_c, 6, 11, 67
8, 30431, Control_c, 6, 11, 74
8, 30453, Control_c, 6, 11, 77
8, 30465, Control_c, 6, 11, 79
8, 30488, Control_c, 6, 11, 74
8, 30510, Control_c, 6, 11, 68
8, 30533, Control_c, 6, 11, 62
8, 30557, Control_c, 6, 11, 57
8, 30578, Control_c, 6, 11, 55
8, 30670, Control_c, 6, 11, 50
8, 30692, Control_c, 6, 11, 41
8, 30715, Control_c, 6, 11, 32
8, 30738, Control_c, 6, 11, 27
8, 30818, Control_c, 6, 11, 25
8, 30862, Control_c, 6, 11, 22
8, 30873, Control_c, 6, 11, 18
8, 30897, Control_c, 6, 11, 14
8, 30977, Control_c, 6, 11, 12
8, 31001, Control_c, 6, 11, 9
8, 31011, Control_c, 6, 11, 6
8, 31035, Control_c, 6, 11, 3
8, 31126, Control_c, 6, 11, 0
8, 31268, Note_off_c, 6, 100, 64
8, 31272, Note_off_c, 6, 95, 64
8, 31277, Note_off_c, 6, 103, 64
8, 31398, Control_c, 6, 11, 1
8, 31410, Control_c, 6, 11, 127
8, 31528, Note_on_c, 6, 86, 79
8, 31531, Note_on_c, 6, 79, 62
8, 31531, Note_on_c, 6, 83, 70
8, 31860, Control_c, 6, 11, 117
8, 31882, Control_c, 6, 11, 107
8, 31905, Control_c, 6, 11, 95
8, 31927, Control_c, 6, 11, 86
8, 31951, Control_c, 6, 11, 79
8, 31973, Control_c, 6, 11, 77
8, 31996, Control_c, 6, 11, 127
8, 32122, Control_c, 6, 11, 125
8, 32131, Control_c, 6, 11, 115
8, 32155, Control_c, 6, 11, 104
8, 32177, Control_c, 6, 11, 94
8, 32200, Control_c, 6, 11, 87
8, 32223, Control_c, 6, 11, 85
8, 32246, Control_c, 6, 11, 127
8, 32360, Control_c, 6, 11, 120
8, 32383, Control_c, 6, 11, 112
8, 32405, Control_c, 6, 11, 104
8, 32428, Control_c, 6, 11, 98
8, 32450, Control_c, 6, 11, 98
8, 32473, Control_c, 6, 11, 127
8, 32577, Control_c, 6, 11, 124
8, 32587, Control_c, 6, 11, 116
8, 32610, Control_c, 6, 11, 106
8, 32632, Control_c, 6, 11, 97
8, 32656, Control_c, 6, 11, 94
8, 32691, Control_c, 6, 11, 127
8, 32781, Control_c, 6, 11, 123
8, 32792, Control_c, 6, 11, 113
8, 32815, Control_c, 6, 11, 107
8, 32827, Control_c, 6, 11, 94
8, 32862, Control_c, 6, 11, 93
8, 32872, Control_c, 6, 11, 127
8, 32975, Control_c, 6, 11, 125
8, 32986, Control_c, 6, 11, 116
8, 33008, Control_c, 6, 11, 106
8, 33032, Control_c, 6, 11, 97
8, 33055, Control_c, 6, 11, 92
8, 33077, Control_c, 6, 11, 104
8, 33100, Control_c, 6, 11, 127
8, 33180, Control_c, 6, 11, 126
8, 33191, Control_c, 6, 11, 117
8, 33213, Control_c, 6, 11, 107
8, 33236, Control_c, 6, 11, 97
8, 33260, Control_c, 6, 11, 92
8, 33293, Control_c, 6, 11, 118
8, 33303, Control_c, 6, 11, 127
8, 33396, Control_c, 6, 11, 119
8, 33418, Control_c, 6, 11, 110
8, 33441, Control_c, 6, 11, 103
8, 33465, Control_c, 6, 11, 101
8, 33487, Control_c, 6, 11, 127
8, 33591, Control_c, 6, 11, 126
8, 33601, Control_c, 6, 11, 119
8, 33623, Control_c, 6, 11, 112
8, 33646, Control_c, 6, 11, 110
8, 33678, Control_c, 6, 11, 127
8, 34045, Control_c, 6, 11, 118
8, 34066, Control_c, 6, 11, 109
8, 34091, Control_c, 6, 11, 100
8, 34113, Control_c, 6, 11, 97
8, 34147, Control_c, 6, 11, 127
8, 34238, Control_c, 6, 11, 126
8, 34248, Control_c, 6, 11, 119
8, 34272, Control_c, 6, 11, 111
8, 34295, Control_c, 6, 11, 105
8, 34328, Control_c, 6, 11, 120
8, 34341, Control_c, 6, 11, 127
8, 34476, Control_c, 6, 11, 120
8, 34498, Note_off_c, 6, 86, 64
8, 34501, Control_c, 6, 11, 111
8, 34502, Note_off_c, 6, 79, 64
8, 34508, Note_off_c, 6, 83, 64
8, 34523, Control_c, 6, 11, 100
8, 34535, Note_on_c, 6, 86, 94
8, 34536, Note_on_c, 6, 81, 97
8, 34537, Note_on_c, 6, 93, 102
8, 34545, Control_c, 6, 11, 91
8, 34567, Control_c, 6, 11, 85
8, 34602, Control_c, 6, 11, 87
8, 34613, Control_c, 6, 11, 127
8, 34727, Control_c, 6, 11, 123
8, 34750, Control_c, 6, 11, 119
8, 34762, Control_c, 6, 11, 110
8, 34785, Control_c, 6, 11, 103
8, 34808, Control_c, 6, 11, 103
8, 34830, Control_c, 6, 11, 127
8, 34933, Control_c, 6, 11, 126
8, 34943, Control_c, 6, 11, 117
8, 34966, Control_c, 6, 11, 107
8, 34990, Control_c, 6, 11, 98
8, 35012, Control_c, 6, 11, 96
8, 35046, Control_c, 6, 11, 127
8, 35150, Control_c, 6, 11, 119
8, 35172, Control_c, 6, 11, 108
8, 35193, Control_c, 6, 11, 99
8, 35217, Control_c, 6, 11, 93
8, 35251, Control_c, 6, 11, 98
8, 35252, Note_on_c, 6, 91, 127
8, 35263, Control_c, 6, 11, 127
8, 35276, Note_off_c, 6, 93, 64
8, 35355, Control_c, 6, 11, 121
8, 35376, Control_c, 6, 11, 110
8, 35400, Control_c, 6, 11, 99
8, 35422, Control_c, 6, 11, 90
8, 35445, Control_c, 6, 11, 87
8, 35480, Control_c, 6, 11, 127
8, 35571, Control_c, 6, 11, 126
8, 35581, Control_c, 6, 11, 117
8, 35605, Control_c, 6, 11, 106
8, 35628, Control_c, 6, 11, 96
8, 35651, Control_c, 6, 11, 89
8, 35695, Control_c, 6, 11, 126
8, 35810, Control_c, 6, 11, 122
8, 35821, Control_c, 6, 11, 112
8, 35843, Control_c, 6, 11, 102
8, 35866, Control_c, 6, 11, 95
8, 35890, Control_c, 6, 11, 96
8, 35912, Control_c, 6, 11, 127
8, 35945, Note_on_c, 6, 90, 127
8, 35975, Note_off_c, 6, 91, 64
8, 36138, Control_c, 6, 11, 120
8, 36162, Control_c, 6, 11, 110
8, 36185, Control_c, 6, 11, 101
8, 36208, Control_c, 6, 11, 95
8, 36253, Control_c, 6, 11, 127
8, 36356, Control_c, 6, 11, 125
8, 36368, Control_c, 6, 11, 116
8, 36390, Control_c, 6, 11, 106
8, 36412, Control_c, 6, 11, 96
8, 36436, Control_c, 6, 11, 90
8, 36470, Control_c, 6, 11, 93
8, 36481, Control_c, 6, 11, 127
8, 36585, Control_c, 6, 11, 116
8, 36618, Control_c, 6, 11, 110
8, 36630, Control_c, 6, 11, 100
8, 36652, Control_c, 6, 11, 93
8, 36697, Control_c, 6, 11, 127
8, 36801, Control_c, 6, 11, 125
8, 36811, Control_c, 6, 11, 117
8, 36833, Control_c, 6, 11, 107
8, 36857, Control_c, 6, 11, 101
8, 36903, Control_c, 6, 11, 127
8, 36993, Control_c, 6, 11, 123
8, 37016, Control_c, 6, 11, 115
8, 37038, Control_c, 6, 11, 109
8, 37083, Control_c, 6, 11, 127
8, 37210, Control_c, 6, 11, 124
8, 37222, Control_c, 6, 11, 120
8, 37267, Control_c, 6, 11, 127
8, 37285, Note_off_c, 6, 90, 64
8, 37290, Note_off_c, 6, 86, 64
8, 37308, Note_off_c, 6, 81, 64
8, 37420, Note_on_c, 6, 81, 97
8, 37427, Note_on_c, 6, 84, 95
8, 37428, Note_on_c, 6, 88, 106
8, 37655, Control_c, 6, 11, 124
8, 37665, Control_c, 6, 11, 114
8, 37688, Control_c, 6, 11, 103
8, 37711, Control_c, 6, 11, 94
8, 37735, Control_c, 6, 11, 87
8, 37757, Control_c, 6, 11, 88
8, 37778, Control_c, 6, 11, 127
8, 37871, Control_c, 6, 11, 122
8, 37893, Control_c, 6, 11, 111
8, 37916, Control_c, 6, 11, 102
8, 37938, Control_c, 6, 11, 97
8, 37972, Control_c, 6, 11, 126
8, 38076, Control_c, 6, 11, 118
8, 38097, Control_c, 6, 11, 107
8, 38121, Control_c, 6, 11, 99
8, 38143, Control_c, 6, 11, 96
8, 38177, Control_c, 6, 11, 127
8, 38267, Control_c, 6, 11, 126
8, 38280, Control_c, 6, 11, 117
8, 38302, Control_c, 6, 11, 107
8, 38326, Control_c, 6, 11, 98
8, 38348, Control_c, 6, 11, 96
8, 38371, Control_c, 6, 11, 127
8, 38485, Control_c, 6, 11, 121
8, 38507, Control_c, 6, 11, 112
8, 38531, Control_c, 6, 11, 105
8, 38576, Control_c, 6, 11, 124
8, 38587, Control_c, 6, 11, 127
8, 38826, Note_on_c, 6, 93, 117
8, 38850, Control_c, 6, 11, 123
8, 38861, Control_c, 6, 11, 113
8, 38871, Note_off_c, 6, 81, 64
8, 38882, Control_c, 6, 11, 99
8, 38906, Control_c, 6, 11, 84
8, 38930, Control_c, 6, 11, 76
8, 38951, Control_c, 6, 11, 71
8, 38975, Control_c, 6, 11, 98
8, 38997, Control_c, 6, 11, 127
8, 39088, Control_c, 6, 11, 121
8, 39111, Control_c, 6, 11, 110
8, 39132, Control_c, 6, 11, 100
8, 39157, Control_c, 6, 11, 94
8, 39191, Control_c, 6, 11, 114
8, 39201, Control_c, 6, 11, 127
8, 39293, Control_c, 6, 11, 119
8, 39316, Control_c, 6, 11, 108
8, 39338, Control_c, 6, 11, 98
8, 39362, Control_c, 6, 11, 92
8, 39396, Control_c, 6, 11, 95
8, 39407, Control_c, 6, 11, 127
8, 39511, Control_c, 6, 11, 114
8, 39545, Control_c, 6, 11, 109
8, 39555, Control_c, 6, 11, 100
8, 39577, Control_c, 6, 11, 94
8, 39623, Control_c, 6, 11, 127
8, 39737, Control_c, 6, 11, 121
8, 39760, Control_c, 6, 11, 112
8, 39782, Control_c, 6, 11, 104
8, 39806, Control_c, 6, 11, 98
8, 39840, Control_c, 6, 11, 101
8, 39850, Control_c, 6, 11, 127
8, 40261, Control_c, 6, 11, 118
8, 40285, Control_c, 6, 11, 104
8, 40287, Note_off_c, 6, 84, 64
8, 40287, Note_off_c, 6, 93, 64
8, 40296, Note_off_c, 6, 88, 64
8, 40306, Control_c, 6, 11, 87
8, 40316, Note_on_c, 6, 88, 95
8, 40317, Note_on_c, 6, 95, 81
8, 40321, Note_on_c, 6, 91, 127
8, 40328, Control_c, 6, 11, 75
8, 40351, Control_c, 6, 11, 69
8, 40375, Control_c, 6, 11, 67
8, 40397, Control_c, 6, 11, 126
8, 40420, Control_c, 6, 11, 127
8, 40523, Control_c, 6, 11, 122
8, 40546, Control_c, 6, 11, 112
8, 40568, Control_c, 6, 11, 102
8, 40591, Control_c, 6, 11, 96
8, 40625, Control_c, 6, 11, 99
8, 40636, Control_c, 6, 11, 127
8, 40740, Control_c, 6, 11, 123
8, 40750, Control_c, 6, 11, 113
8, 40773, Control_c, 6, 11, 103
8, 40796, Control_c, 6, 11, 96
8, 40842, Control_c, 6, 11, 127
8, 40945, Control_c, 6, 11, 123
8, 40956, Control_c, 6, 11, 114
8, 40977, Control_c, 6, 11, 105
8, 41000, Control_c, 6, 11, 99
8, 41046, Control_c, 6, 11, 127
8, 41148, Control_c, 6, 11, 123
8, 41160, Control_c, 6, 11, 113
8, 41183, Control_c, 6, 11, 104
8, 41207, Control_c, 6, 11, 97
8, 41252, Control_c, 6, 11, 127
8, 41355, Control_c, 6, 11, 118
8, 41388, Control_c, 6, 11, 114
8, 41400, Control_c, 6, 11, 107
8, 41422, Control_c, 6, 11, 104
8, 41446, Control_c, 6, 11, 127
8, 41518, Note_off_c, 6, 95, 64
8, 41617, Note_off_c, 6, 91, 64
8, 41642, Note_off_c, 6, 88, 64
8, 41733, Note_on_c, 6, 88, 100
8, 41735, Note_on_c, 6, 91, 127
8, 41736, Note_on_c, 6, 83, 94
8, 41787, Control_c, 6, 11, 122
8, 41808, Control_c, 6, 11, 111
8, 41832, Control_c, 6, 11, 98
8, 41855, Control_c, 6, 11, 88
8, 41876, Control_c, 6, 11, 82
8, 41912, Control_c, 6, 11, 86
8, 41923, Control_c, 6, 11, 127
8, 42027, Control_c, 6, 11, 125
8, 42037, Control_c, 6, 11, 116
8, 42060, Control_c, 6, 11, 107
8, 42082, Control_c, 6, 11, 102
8, 42116, Control_c, 6, 11, 114
8, 42127, Control_c, 6, 11, 127
8, 42231, Control_c, 6, 11, 124
8, 42242, Control_c, 6, 11, 117
8, 42266, Control_c, 6, 11, 110
8, 42286, Control_c, 6, 11, 108
8, 42290, Note_off_c, 6, 83, 64
8, 42322, Control_c, 6, 11, 127
8, 42353, Note_off_c, 6, 88, 64
8, 42426, Note_off_c, 6, 91, 64
8, 42441, Note_on_c, 6, 93, 80
8, 42446, Note_on_c, 6, 90, 110
8, 42446, Note_on_c, 6, 86, 95
8, 42458, Control_c, 6, 11, 121
8, 42481, Control_c, 6, 11, 109
8, 42503, Control_c, 6, 11, 94
8, 42526, Control_c, 6, 11, 84
8, 42548, Control_c, 6, 11, 79
8, 42583, Control_c, 6, 11, 84
8, 42595, Control_c, 6, 11, 127
8, 42697, Control_c, 6, 11, 126
8, 42708, Control_c, 6, 11, 118
8, 42731, Control_c, 6, 11, 109
8, 42753, Control_c, 6, 11, 102
8, 42788, Control_c, 6, 11, 105
8, 42800, Control_c, 6, 11, 127
8, 42891, Control_c, 6, 11, 121
8, 42912, Control_c, 6, 11, 106
8, 42936, Control_c, 6, 11, 84
8, 42958, Control_c, 6, 11, 74
8, 42982, Control_c, 6, 11, 72
8, 43005, Control_c, 6, 11, 127
8, 43096, Control_c, 6, 11, 120
8, 43100, Note_off_c, 6, 86, 64
8, 43102, Note_off_c, 6, 90, 64
8, 43111, Note_off_c, 6, 93, 64
8, 43116, Control_c, 6, 11, 110
8, 43141, Control_c, 6, 11, 102
8, 43165, Control_c, 6, 11, 100
8, 43187, Control_c, 6, 11, 127
8, 43200, Note_on_c, 6, 86, 106
8, 43200, Note_on_c, 6, 83, 102
8, 43200, Note_on_c, 6, 91, 127
8, 43380, Control_c, 6, 11, 117
8, 43402, Control_c, 6, 11, 107
8, 43425, Control_c, 6, 11, 95
8, 43447, Control_c, 6, 11, 86
8, 43471, Control_c, 6, 11, 79
8, 43493, Control_c, 6, 11, 77
8, 43516, Control_c, 6, 11, 127
8, 43642, Control_c, 6, 11, 125
8, 43651, Control_c, 6, 11, 115
8, 43675, Control_c, 6, 11, 104
8, 43697, Control_c, 6, 11, 94
8, 43720, Control_c, 6, 11, 87
8, 43743, Control_c, 6, 11, 85
8, 43766, Control_c, 6, 11, 127
8, 43880, Control_c, 6, 11, 120
8, 43903, Control_c, 6, 11, 112
8, 43925, Control_c, 6, 11, 104
8, 43948, Control_c, 6, 11, 98
8, 43970, Control_c, 6, 11, 98
8, 43993, Control_c, 6, 11, 127
8, 44097, Control_c, 6, 11, 124
8, 44107, Control_c, 6, 11, 116
8, 44130, Control_c, 6, 11, 106
8, 44152, Control_c, 6, 11, 97
8, 44176, Control_c, 6, 11, 94
8, 44211, Control_c, 6, 11, 127
8, 44301, Control_c, 6, 11, 123
8, 44312, Control_c, 6, 11, 113
8, 44335, Control_c, 6, 11, 107
8, 44347, Control_c, 6, 11, 94
8, 44382, Control_c, 6, 11, 93
8, 44392, Control_c, 6, 11, 127
8, 44495, Control_c, 6, 11, 125
8, 44506, Control_c, 6, 11, 116
8, 44520, Note_off_c, 6, 91, 64
8, 44525, Note_off_c, 6, 86, 64
8, 44528, Control_c, 6, 11, 106
8, 44535, Note_off_c, 6, 83, 64
8, 44552, Control_c, 6, 11, 97
8, 44575, Control_c, 6, 11, 92
8, 44596, Note_on_c, 6, 98, 122
8, 44597, Control_c, 6, 11, 104
8, 44598, Note_on_c, 6, 91, 127
8, 44600, Note_on_c, 6, 93, 114
8, 44620, Control_c, 6, 11, 127
8, 44700, Control_c, 6, 11, 126
8, 44711, Control_c, 6, 11, 117
8, 44733, Control_c, 6, 11, 107
8, 44756, Control_c, 6, 11, 97
8, 44780, Control_c, 6, 11, 92
8, 44813, Control_c, 6, 11, 118
8, 44823, Control_c, 6, 11, 127
8, 44916, Control_c, 6, 11, 119
8, 44938, Control_c, 6, 11, 110
8, 44961, Control_c, 6, 11, 103
8, 44985, Control_c, 6, 11, 101
8, 45007, Control_c, 6, 11, 127
8, 45111, Control_c, 6, 11, 126
8, 45121, Control_c, 6, 11, 119
8, 45143, Control_c, 6, 11, 112
8, 45166, Control_c, 6, 11, 110
8, 45198, Control_c, 6, 11, 127
8, 45565, Control_c, 6, 11, 118
8, 45586, Control_c, 6, 11, 109
8, 45611, Control_c, 6, 11, 100
8, 45633, Control_c, 6, 11, 97
8, 45667, Control_c, 6, 11, 127
8, 45758, Control_c, 6, 11, 126
8, 45768, Control_c, 6, 11, 119
8, 45792, Control_c, 6, 11, 111
8, 45815, Control_c, 6, 11, 105
8, 45848, Control_c, 6, 11, 120
8, 45861, Control_c, 6, 11, 127
8, 45973, Note_off_c, 6, 93, 64
8, 45973, Note_off_c, 6, 98, 64
8, 45978, Note_off_c, 6, 91, 64
8, 45996, Control_c, 6, 11, 120
8, 46016, Note_on_c, 6, 98, 110
8, 46017, Note_on_c, 6, 90, 113
8, 46020, Note_on_c, 6, 93, 106
8, 46021, Control_c, 6, 11, 111
8, 46043, Control_c, 6, 11, 100
8, 46065, Control_c, 6, 11, 91
8, 46087, Control_c, 6, 11, 85
8, 46122, Control_c, 6, 11, 87
8, 46133, Control_c, 6, 11, 127
8, 46247, Control_c, 6, 11, 123
8, 46270, Control_c, 6, 11, 119
8, 46282, Control_c, 6, 11, 110
8, 46305, Control_c, 6, 11, 103
8, 46328, Control_c, 6, 11, 103
8, 46350, Control_c, 6, 11, 127
8, 46453, Control_c, 6, 11, 126
8, 46463, Control_c, 6, 11, 117
8, 46486, Control_c, 6, 11, 107
8, 46510, Control_c, 6, 11, 98
8, 46532, Control_c, 6, 11, 96
8, 46566, Control_c, 6, 11, 127
8, 46670, Control_c, 6, 11, 119
8, 46692, Control_c, 6, 11, 108
8, 46713, Control_c, 6, 11, 99
8, 46737, Control_c, 6, 11, 93
8, 46771, Control_c, 6, 11, 98
8, 46783, Control_c, 6, 11, 127
8, 46875, Control_c, 6, 11, 121
8, 46896, Control_c, 6, 11, 110
8, 46920, Control_c, 6, 11, 99
8, 46942, Control_c, 6, 11, 90
8, 46965, Control_c, 6, 11, 87
8, 47000, Control_c, 6, 11, 127
8, 47091, Control_c, 6, 11, 126
8, 47101, Control_c, 6, 11, 117
8, 47125, Control_c, 6, 11, 106
8, 47148, Control_c, 6, 11, 96
8, 47171, Control_c, 6, 11, 89
8, 47215, Control_c, 6, 11, 126
8, 47330, Control_c, 6, 11, 122
8, 47341, Control_c, 6, 11, 112
8, 47363, Control_c, 6, 11, 102
8, 47386, Control_c, 6, 11, 95
8, 47410, Control_c, 6, 11, 96
8, 47432, Control_c, 6, 11, 127
8, 47658, Control_c, 6, 11, 120
8, 47682, Control_c, 6, 11, 110
8, 47705, Control_c, 6, 11, 101
8, 47728, Control_c, 6, 11, 95
8, 47773, Control_c, 6, 11, 127
8, 47876, Control_c, 6, 11, 125
8, 47888, Control_c, 6, 11, 116
8, 47910, Control_c, 6, 11, 106
8, 47932, Control_c, 6, 11, 96
8, 47956, Control_c, 6, 11, 90
8, 47990, Control_c, 6, 11, 93
8, 48001, Control_c, 6, 11, 127
8, 48105, Control_c, 6, 11, 116
8, 48138, Control_c, 6, 11, 110
8, 48150, Control_c, 6, 11, 100
8, 48172, Control_c, 6, 11, 93
8, 48217, Control_c, 6, 11, 127
8, 48321, Control_c, 6, 11, 125
8, 48331, Control_c, 6, 11, 117
8, 48353, Control_c, 6, 11, 107
8, 48377, Control_c, 6, 11, 101
8, 48423, Control_c, 6, 11, 127
8, 48513, Control_c, 6, 11, 123
8, 48536, Control_c, 6, 11, 115
8, 48558, Control_c, 6, 11, 109
8, 48603, Control_c, 6, 11, 127
8, 48730, Control_c, 6, 11, 124
8, 48742, Control_c, 6, 11, 120
8, 48771, Note_off_c, 6, 90, 64
8, 48781, Note_off_c, 6, 98, 64
8, 48787, Control_c, 6, 11, 127
8, 48791, Note_off_c, 6, 93, 64
8, 48883, Note_on_c, 6, 98, 112
8, 48885, Note_on_c, 6, 91, 127
8, 48886, Note_on_c, 6, 88, 106
8, 49175, Control_c, 6, 11, 124
8, 49185, Control_c, 6, 11, 114
8, 49208, Control_c, 6, 11, 103
8, 49231, Control_c, 6, 11, 94
8, 49255, Control_c, 6, 11, 87
8, 49277, Control_c, 6, 11, 88
8, 49298, Control_c, 6, 11, 127
8, 49391, Control_c, 6, 11, 122
8, 49413, Control_c, 6, 11, 111
8, 49436, Control_c, 6, 11, 102
8, 49458, Control_c, 6, 11, 97
8, 49492, Control_c, 6, 11, 126
8, 49596, Control_c, 6, 11, 118
8, 49617, Control_c, 6, 11, 107
8, 49641, Control_c, 6, 11, 99
8, 49663, Control_c, 6, 11, 96
8, 49697, Control_c, 6, 11, 127
8, 49787, Control_c, 6, 11, 126
8, 49800, Control_c, 6, 11, 117
8, 49822, Control_c, 6, 11, 107
8, 49846, Control_c, 6, 11, 98
8, 49868, Control_c, 6, 11, 96
8, 49891, Control_c, 6, 11, 127
8, 50005, Control_c, 6, 11, 121
8, 50027, Control_c, 6, 11, 112
8, 50051, Control_c, 6, 11, 105
8, 50096, Control_c, 6, 11, 124
8, 50107, Control_c, 6, 11, 127
8, 50370, Control_c, 6, 11, 123
8, 50381, Control_c, 6, 11, 113
8, 50396, Note_on_c, 6, 93, 117
8, 50402, Control_c, 6, 11, 99
8, 50426, Control_c, 6, 11, 84
8, 50450, Control_c, 6, 11, 76
8, 50471, Control_c, 6, 11, 71
8, 50495, Control_c, 6, 11, 98
8, 50517, Control_c, 6, 11, 127
8, 50608, Control_c, 6, 11, 121
8, 50631, Control_c, 6, 11, 110
8, 50652, Control_c, 6, 11, 100
8, 50677, Control_c, 6, 11, 94
8, 50711, Control_c, 6, 11, 114
8, 50721, Control_c, 6, 11, 127
8, 50813, Control_c, 6, 11, 119
8, 50836, Control_c, 6, 11, 108
8, 50858, Control_c, 6, 11, 98
8, 50882, Control_c, 6, 11, 92
8, 50916, Control_c, 6, 11, 95
8, 50927, Control_c, 6, 11, 127
8, 51031, Control_c, 6, 11, 114
8, 51065, Control_c, 6, 11, 109
8, 51075, Control_c, 6, 11, 100
8, 51097, Control_c, 6, 11, 94
8, 51143, Control_c, 6, 11, 127
8, 51257, Control_c, 6, 11, 121
8, 51280, Control_c, 6, 11, 112
8, 51302, Control_c, 6, 11, 104
8, 51326, Control_c, 6, 11, 98
8, 51360, Control_c, 6, 11, 101
8, 51370, Control_c, 6, 11, 127
8, 51677, Note_off_c, 6, 98, 64
8, 51680, Note_off_c, 6, 91, 64
8, 51685, Note_off_c, 6, 93, 64
8, 51698, Note_off_c, 6, 88, 64
8, 51781, Control_c, 6, 11, 118
8, 51805, Control_c, 6, 11, 104
8, 51826, Control_c, 6, 11, 87
8, 51832, Note_on_c, 6, 86, 110
8, 51835, Note_on_c, 6, 95, 117
8, 51836, Note_on_c, 6, 91, 127
8, 51848, Control_c, 6, 11, 75
8, 51871, Control_c, 6, 11, 69
8, 51895, Control_c, 6, 11, 67
8, 51917, Control_c, 6, 11, 126
8, 51940, Control_c, 6, 11, 127
8, 52043, Control_c, 6, 11, 122
8, 52066, Control_c, 6, 11, 112
8, 52088, Control_c, 6, 11, 102
8, 52111, Control_c, 6, 11, 96
8, 52145, Control_c, 6, 11, 99
8, 52156, Control_c, 6, 11, 127
8, 52260, Control_c, 6, 11, 123
8, 52270, Control_c, 6, 11, 113
8, 52293, Control_c, 6, 11, 103
8, 52316, Control_c, 6, 11, 96
8, 52362, Control_c, 6, 11, 127
8, 52465, Control_c, 6, 11, 123
8, 52476, Control_c, 6, 11, 114
8, 52497, Control_c, 6, 11, 105
8, 52520, Control_c, 6, 11, 99
8, 52566, Control_c, 6, 11, 127
8, 52668, Control_c, 6, 11, 123
8, 52680, Control_c, 6, 11, 113
8, 52703, Control_c, 6, 11, 104
8, 52727, Control_c, 6, 11, 97
8, 52772, Control_c, 6, 11, 127
8, 52875, Control_c, 6, 11, 118
8, 52908, Control_c, 6, 11, 114
8, 52920, Control_c, 6, 11, 107
8, 52942, Control_c, 6, 11, 104
8, 52966, Control_c, 6, 11, 127
8, 53307, Control_c, 6, 11, 122
8, 53328, Control_c, 6, 11, 111
8, 53352, Control_c, 6, 11, 98
8, 53375, Control_c, 6, 11, 88
8, 53396, Control_c, 6, 11, 82
8, 53432, Control_c, 6, 11, 86
8, 53443, Control_c, 6, 11, 127
8, 53547, Control_c, 6, 11, 125
8, 53557, Control_c, 6, 11, 116
8, 53580, Control_c, 6, 11, 107
8, 53592, Note_off_c, 6, 95, 64
8, 53597, Note_off_c, 6, 86, 64
8, 53602, Note_off_c, 6, 91, 64
8, 53602, Control_c, 6, 11, 102
8, 53636, Control_c, 6, 11, 114
8, 53647, Control_c, 6, 11, 127
8, 53751, Control_c, 6, 11, 124
8, 53762, Control_c, 6, 11, 117
8, 53786, Control_c, 6, 11, 110
8, 53806, Control_c, 6, 11, 108
8, 53842, Control_c, 6, 11, 127
8, 53978, Control_c, 6, 11, 121
8, 54001, Control_c, 6, 11, 109
8, 54023, Control_c, 6, 11, 94
8, 54046, Control_c, 6, 11, 84
8, 54068, Control_c, 6, 11, 79
8, 54103, Control_c, 6, 11, 84
8, 54115, Control_c, 6, 11, 127
8, 54217, Control_c, 6, 11, 126
8, 54228, Control_c, 6, 11, 118
8, 54251, Control_c, 6, 11, 109
8, 54273, Control_c, 6, 11, 102
8, 54308, Control_c, 6, 11, 105
8, 54320, Control_c, 6, 11, 127
8, 54411, Control_c, 6, 11, 121
8, 54432, Control_c, 6, 11, 106
8, 54456, Control_c, 6, 11, 84
8, 54478, Control_c, 6, 11, 74
8, 54502, Control_c, 6, 11, 72
8, 54525, Control_c, 6, 11, 127
8, 54616, Control_c, 6, 11, 120
8, 54636, Control_c, 6, 11, 110
8, 54661, Control_c, 6, 11, 102
8, 54685, Control_c, 6, 11, 100
8, 54707, Control_c, 6, 11, 127
8, 54720, Note_on_c, 6, 83, 110
8, 54720, Note_on_c, 6, 88, 122
8, 54720, Note_on_c, 6, 91, 127
8, 54720, Note_on_c, 6, 95, 114
8, 54760, Control_c, 6, 11, 125
8, 54771, Control_c, 6, 11, 116
8, 54792, Control_c, 6, 11, 96
8, 54816, Control_c, 6, 11, 60
8, 54840, Control_c, 6, 11, 34
8, 54861, Control_c, 6, 11, 22
8, 54885, Control_c, 6, 11, 20
8, 54941, Control_c, 6, 11, 26
8, 54952, Control_c, 6, 11, 127
8, 55022, Control_c, 6, 11, 121
8, 55042, Control_c, 6, 11, 110
8, 55065, Control_c, 6, 11, 99
8, 55090, Control_c, 6, 11, 90
8, 55111, Control_c, 6, 11, 85
8, 55146, Control_c, 6, 11, 89
8, 55156, Control_c, 6, 11, 110
8, 55170, Control_c, 6, 11, 127
8, 55215, Control_c, 6, 11, 122
8, 55237, Control_c, 6, 11, 111
8, 55260, Control_c, 6, 11, 97
8, 55282, Control_c, 6, 11, 85
8, 55306, Control_c, 6, 11, 79
8, 55327, Control_c, 6, 11, 78
8, 55351, Control_c, 6, 11, 87
8, 55373, Control_c, 6, 11, 94
8, 55418, Control_c, 6, 11, 87
8, 55441, Control_c, 6, 11, 77
8, 55465, Control_c, 6, 11, 64
8, 55486, Control_c, 6, 11, 57
8, 55510, Control_c, 6, 11, 53
8, 55556, Control_c, 6, 11, 70
8, 55578, Control_c, 6, 11, 88
8, 55601, Control_c, 6, 11, 91
8, 55636, Control_c, 6, 11, 88
8, 55646, Control_c, 6, 11, 80
8, 55670, Control_c, 6, 11, 68
8, 55692, Control_c, 6, 11, 56
8, 55716, Control_c, 6, 11, 51
8, 55737, Control_c, 6, 11, 50
8, 55771, Control_c, 6, 11, 56
8, 55782, Control_c, 6, 11, 120
8, 55806, Control_c, 6, 11, 126
8, 55852, Control_c, 6, 11, 116
8, 55876, Control_c, 6, 11, 104
8, 55896, Control_c, 6, 11, 91
8, 55920, Control_c, 6, 11, 82
8, 55943, Control_c, 6, 11, 77
8, 55966, Control_c, 6, 11, 78
8, 55988, Control_c, 6, 11, 89
8, 56010, Control_c, 6, 11, 105
8, 56033, Control_c, 6, 11, 108
8, 56068, Control_c, 6, 11, 104
8, 56080, Control_c, 6, 11, 96
8, 56101, Control_c, 6, 11, 87
8, 56125, Control_c, 6, 11, 80
8, 56148, Control_c, 6, 11, 75
8, 56193, Control_c, 6, 11, 83
8, 56205, Control_c, 6, 11, 127
8, 56285, Control_c, 6, 11, 123
8, 56296, Control_c, 6, 11, 116
8, 56318, Control_c, 6, 11, 109
8, 56341, Control_c, 6, 11, 105
8, 56386, Control_c, 6, 11, 127
8, 56478, Control_c, 6, 11, 120
8, 56500, Control_c, 6, 11, 113
8, 56523, Control_c, 6, 11, 107
8, 56547, Control_c, 6, 11, 105
8, 56581, Control_c, 6, 11, 120
8, 56592, Control_c, 6, 11, 127
8, 56682, Control_c, 6, 11, 121
8, 56706, Control_c, 6, 11, 115
8, 56728, Control_c, 6, 11, 108
8, 56751, Control_c, 6, 11, 107
8, 56787, Control_c, 6, 11, 123
8, 56797, Control_c, 6, 11, 127
8, 56877, Control_c, 6, 11, 126
8, 56887, Control_c, 6, 11, 119
8, 56911, Control_c, 6, 11, 111
8, 56933, Control_c, 6, 11, 104
8, 56957, Control_c, 6, 11, 102
8, 56988, Control_c, 6, 11, 106
8, 57002, Control_c, 6, 11, 127
8, 57071, Control_c, 6, 11, 126
8, 57082, Control_c, 6, 11, 119
8, 57105, Control_c, 6, 11, 112
8, 57127, Control_c, 6, 11, 106
8, 57150, Control_c, 6, 11, 103
8, 57183, Control_c, 6, 11, 106
8, 57195, Control_c, 6, 11, 126
8, 57287, Control_c, 6, 11, 117
8, 57308, Control_c, 6, 11, 110
8, 57326, Note_off_c, 6, 95, 64
8, 57331, Note_off_c, 6, 91, 64
8, 57332, Control_c, 6, 11, 104
8, 57333, Note_off_c, 6, 83, 64
8, 57337, Note_off_c, 6, 88, 64
8, 57390, Control_c, 6, 11, 108
8, 57400, Control_c, 6, 11, 127
8, 57467, Control_c, 6, 11, 121
8, 57490, Control_c, 6, 11, 112
8, 57515, Control_c, 6, 11, 104
8, 57537, Control_c, 6, 11, 98
8, 57560, Control_c, 6, 11, 95
8, 57581, Control_c, 6, 11, 127
8, 58948, Control_c, 6, 11, 124
8, 58961, Control_c, 6, 11, 109
8, 58982, Control_c, 6, 11, 90
8, 58995, Control_c, 6, 11, 21
8, 59017, Note_on_c, 6, 86, 98
8, 59023, Note_on_c, 6, 93, 117
8, 59023, Note_on_c, 6, 88, 100
8, 59030, Control_c, 6, 11, 12
8, 59040, Control_c, 6, 11, 5
8, 59153, Control_c, 6, 11, 19
8, 59176, Control_c, 6, 11, 31
8, 59200, Control_c, 6, 11, 40
8, 59256, Control_c, 6, 11, 37
8, 59266, Control_c, 6, 11, 34
8, 59291, Control_c, 6, 11, 29
8, 59312, Control_c, 6, 11, 27
8, 59347, Control_c, 6, 11, 24
8, 59370, Control_c, 6, 11, 29
8, 59381, Control_c, 6, 11, 127
8, 59462, Control_c, 6, 11, 124
8, 59472, Control_c, 6, 11, 114
8, 59493, Control_c, 6, 11, 103
8, 59516, Control_c, 6, 11, 94
8, 59541, Control_c, 6, 11, 90
8, 59575, Control_c, 6, 11, 112
8, 59586, Control_c, 6, 11, 127
8, 59677, Control_c, 6, 11, 122
8, 59700, Control_c, 6, 11, 114
8, 59721, Control_c, 6, 11, 106
8, 59742, Note_on_c, 6, 98, 112
8, 59745, Control_c, 6, 11, 103
8, 59752, Note_off_c, 6, 86, 64
8, 59780, Control_c, 6, 11, 126
8, 59791, Control_c, 6, 11, 127
8, 59882, Control_c, 6, 11, 122
8, 59895, Control_c, 6, 11, 108
8, 59926, Control_c, 6, 11, 103
8, 59940, Control_c, 6, 11, 97
8, 59983, Control_c, 6, 11, 127
8, 60076, Control_c, 6, 11, 117
8, 60098, Control_c, 6, 11, 101
8, 60121, Control_c, 6, 11, 87
8, 60145, Control_c, 6, 11, 80
8, 60190, Control_c, 6, 11, 127
8, 60281, Control_c, 6, 11, 117
8, 60291, Note_off_c, 6, 93, 64
8, 60303, Control_c, 6, 11, 105
8, 60311, Note_off_c, 6, 88, 64
8, 60326, Control_c, 6, 11, 95
8, 60348, Control_c, 6, 11, 91
8, 60371, Control_c, 6, 11, 127
8, 60455, Note_on_c, 6, 86, 97
8, 60462, Note_on_c, 6, 93, 106
8, 60462, Control_c, 6, 11, 121
8, 60463, Note_on_c, 6, 88, 110
8, 60485, Control_c, 6, 11, 110
8, 60507, Control_c, 6, 11, 99
8, 60531, Control_c, 6, 11, 92
8, 60537, Note_off_c, 6, 98, 64
8, 60576, Control_c, 6, 11, 127
8, 60667, Control_c, 6, 11, 120
8, 60690, Control_c, 6, 11, 110
8, 60713, Control_c, 6, 11, 101
8, 60736, Control_c, 6, 11, 96
8, 60770, Control_c, 6, 11, 125
8, 60781, Control_c, 6, 11, 127
8, 60861, Control_c, 6, 11, 125
8, 60872, Control_c, 6, 11, 120
8, 60885, Control_c, 6, 11, 100
8, 60918, Control_c, 6, 11, 94
8, 60930, Control_c, 6, 11, 88
8, 60963, Control_c, 6, 11, 115
8, 60975, Control_c, 6, 11, 127
8, 61056, Control_c, 6, 11, 125
8, 61066, Control_c, 6, 11, 114
8, 61088, Control_c, 6, 11, 95
8, 61111, Control_c, 6, 11, 83
8, 61135, Control_c, 6, 11, 78
8, 61157, Control_c, 6, 11, 126
8, 61180, Control_c, 6, 11, 127
8, 61208, Note_on_c, 6, 95, 117
8, 61226, Note_off_c, 6, 86, 64
8, 61250, Control_c, 6, 11, 121
8, 61272, Control_c, 6, 11, 106
8, 61293, Control_c, 6, 11, 92
8, 61317, Control_c, 6, 11, 84
8, 61338, Control_c, 6, 11, 85
8, 61362, Control_c, 6, 11, 127
8, 61443, Control_c, 6, 11, 126
8, 61453, Control_c, 6, 11, 116
8, 61475, Control_c, 6, 11, 98
8, 61498, Control_c, 6, 11, 81
8, 61522, Control_c, 6, 11, 74
8, 61543, Control_c, 6, 11, 76
8, 61567, Control_c, 6, 11, 127
8, 61647, Control_c, 6, 11, 126
8, 61658, Control_c, 6, 11, 115
8, 61681, Control_c, 6, 11, 101
8, 61703, Control_c, 6, 11, 91
8, 61727, Control_c, 6, 11, 88
8, 61760, Control_c, 6, 11, 127
8, 61852, Control_c, 6, 11, 110
8, 61885, Control_c, 6, 11, 102
8, 61897, Control_c, 6, 11, 89
8, 61938, Note_off_c, 6, 88, 64
8, 61941, Note_off_c, 6, 93, 64
8, 61946, Note_off_c, 6, 95, 64
8, 61955, Control_c, 6, 11, 127
8, 62033, Control_c, 6, 11, 120
8, 62057, Control_c, 6, 11, 102
8, 62080, Control_c, 6, 11, 83
8, 62102, Control_c, 6, 11, 77
8, 62137, Control_c, 6, 11, 79
8, 62148, Control_c, 6, 11, 127
8, 62228, Control_c, 6, 11, 125
8, 62238, Control_c, 6, 11, 114
8, 62262, Control_c, 6, 11, 98
8, 62285, Control_c, 6, 11, 86
8, 62307, Control_c, 6, 11, 81
8, 62341, Control_c, 6, 11, 115
8, 62352, Control_c, 6, 11, 127
8, 62443, Control_c, 6, 11, 120
8, 62467, Control_c, 6, 11, 110
8, 62490, Control_c, 6, 11, 101
8, 62512, Control_c, 6, 11, 95
8, 62546, Control_c, 6, 11, 98
8, 62557, Control_c, 6, 11, 127
8, 63308, Control_c, 6, 11, 126
8, 63320, Control_c, 6, 11, 115
8, 63327, Note_on_c, 6, 88, 100
8, 63328, Note_on_c, 6, 91, 127
8, 63332, Note_on_c, 6, 95, 110
8, 63343, Control_c, 6, 11, 81
8, 63366, Control_c, 6, 11, 48
8, 63388, Control_c, 6, 11, 30
8, 63411, Control_c, 6, 11, 25
8, 63467, Control_c, 6, 11, 33
8, 63480, Control_c, 6, 11, 127
8, 63570, Control_c, 6, 11, 117
8, 63593, Control_c, 6, 11, 104
8, 63616, Control_c, 6, 11, 91
8, 63637, Control_c, 6, 11, 86
8, 63652, Control_c, 6, 11, 83
8, 63685, Control_c, 6, 11, 127
8, 63765, Control_c, 6, 11, 115
8, 63800, Control_c, 6, 11, 107
8, 63810, Control_c, 6, 11, 81
8, 63845, Control_c, 6, 11, 77
8, 63856, Control_c, 6, 11, 75
8, 63878, Control_c, 6, 11, 127
8, 63970, Control_c, 6, 11, 122
8, 63992, Control_c, 6, 11, 111
8, 64015, Control_c, 6, 11, 100
8, 64037, Control_c, 6, 11, 93
8, 64061, Control_c, 6, 11, 94
8, 64082, Control_c, 6, 11, 127
8, 64175, Control_c, 6, 11, 117
8, 64197, Control_c, 6, 11, 100
8, 64218, Control_c, 6, 11, 84
8, 64242, Control_c, 6, 11, 77
8, 64277, Control_c, 6, 11, 80
8, 64287, Control_c, 6, 11, 127
8, 64368, Control_c, 6, 11, 126
8, 64380, Control_c, 6, 11, 115
8, 64401, Control_c, 6, 11, 101
8, 64425, Control_c, 6, 11, 90
8, 64448, Control_c, 6, 11, 86
8, 64468, Control_c, 6, 11, 127
8, 64573, Control_c, 6, 11, 123
8, 64583, Control_c, 6, 11, 98
8, 64607, Control_c, 6, 11, 27
8, 64630, Control_c, 6, 11, 2
8, 64653, Control_c, 6, 11, 1
8, 64755, Control_c, 6, 11, 13
8, 64760, Note_on_c, 6, 100, 117
8, 64778, Control_c, 6, 11, 115
8, 64800, Control_c, 6, 11, 127
8, 64937, Control_c, 6, 11, 121
8, 64961, Control_c, 6, 11, 110
8, 64981, Control_c, 6, 11, 96
8, 65005, Control_c, 6, 11, 88
8, 65028, Control_c, 6, 11, 86
8, 65050, Control_c, 6, 11, 127
8, 65142, Control_c, 6, 11, 118
8, 65165, Control_c, 6, 11, 103
8, 65186, Control_c, 6, 11, 90
8, 65210, Control_c, 6, 11, 85
8, 65233, Control_c, 6, 11, 127
8, 65323, Control_c, 6, 11, 119
8, 65346, Control_c, 6, 11, 86
8, 65370, Control_c, 6, 11, 56
8, 65392, Control_c, 6, 11, 47
8, 65438, Control_c, 6, 11, 127
8, 65528, Control_c, 6, 11, 119
8, 65551, Control_c, 6, 11, 108
8, 65575, Control_c, 6, 11, 97
8, 65597, Control_c, 6, 11, 92
8, 65610, Control_c, 6, 11, 93
8, 65643, Control_c, 6, 11, 127
8, 65722, Control_c, 6, 11, 121
8, 65745, Control_c, 6, 11, 110
8, 65768, Control_c, 6, 11, 100
8, 65790, Control_c, 6, 11, 95
8, 65825, Control_c, 6, 11, 127
8, 65916, Control_c, 6, 11, 124
8, 65927, Control_c, 6, 11, 114
8, 65950, Control_c, 6, 11, 102
8, 65973, Control_c, 6, 11, 94
8, 65995, Control_c, 6, 11, 92
8, 66018, Control_c, 6, 11, 127
8, 66076, Note_off_c, 6, 100, 64
8, 66081, Note_off_c, 6, 91, 64
8, 66100, Note_off_c, 6, 88, 64
8, 66100, Note_off_c, 6, 95, 64
8, 66100, End_track
9, 0, Start_track
9, 0, MIDI_port, 0
9, 0, Channel_prefix, 7
9, 0, Control_c, 7, 10, 64
9, 205, Control_c, 7, 121, 0
9, 285, Control_c, 7, 101, 0
9, 365, Control_c, 7, 100, 0
9, 445, Control_c, 7, 6, 12
9, 525, Program_c, 7, 54
9, 1480, Control_c, 7, 93, 100
9, 1560, Control_c, 7, 91, 117
9, 1640, Control_c, 7, 10, 64
9, 1720, Control_c, 7, 7, 36
9, 66240, Note_on_c, 7, 55, 74
9, 66240, Note_on_c, 7, 64, 85
9, 66240, Note_on_c, 7, 59, 84
9, 69031, Note_off_c, 7, 64, 64
9, 69076, Note_off_c, 7, 59, 64
9, 69085, Note_off_c, 7, 55, 64
9, 69101, Note_on_c, 7, 55, 68
9, 69110, Note_on_c, 7, 60, 104
9, 69110, Note_on_c, 7, 64, 102
9, 71840, Note_off_c, 7, 64, 64
9, 71888, Note_off_c, 7, 55, 64
9, 71908, Note_off_c, 7, 60, 64
9, 71985, Note_on_c, 7, 55, 79
9, 71988, Note_on_c, 7, 59, 98
9, 71993, Note_on_c, 7, 62, 100
9, 73297, Note_off_c, 7, 59, 64
9, 73352, Note_off_c, 7, 55, 64
9, 73363, Note_off_c, 7, 62, 64
9, 73428, Note_on_c, 7, 57, 97
9, 73431, Note_on_c, 7, 62, 91
9, 73435, Note_on_c, 7, 54, 89
9, 74731, Note_off_c, 7, 54, 64
9, 74746, Note_off_c, 7, 62, 64
9, 74750, Note_off_c, 7, 57, 64
9, 74837, Note_on_c, 7, 55, 68
9, 74847, Note_on_c, 7, 64, 91
9, 74848, Note_on_c, 7, 59, 87
9, 77196, Note_off_c, 7, 64, 64
9, 77197, Note_off_c, 7, 55, 64
9, 77206, Note_off_c, 7, 59, 64
9, 123840, Note_on_c, 7, 64, 94
9, 123840, Note_on_c, 7, 55, 77
9, 123840, Note_on_c, 7, 59, 84
9, 126681, Note_off_c, 7, 59, 64
9, 126696, Note_on_c, 7, 60, 91
9, 129398, Note_off_c, 7, 60, 64
9, 129408, Note_off_c, 7, 64, 64
9, 129423, Note_off_c, 7, 55, 64
9, 129563, Note_on_c, 7, 55, 73
9, 129565, Note_on_c, 7, 59, 81
9, 129571, Note_on_c, 7, 62, 83
9, 130880, Note_off_c, 7, 59, 64
9, 130902, Note_off_c, 7, 55, 64
9, 131000, Note_on_c, 7, 57, 81
9, 131001, Note_on_c, 7, 54, 84
9, 132331, Note_off_c, 7, 54, 64
9, 132358, Note_off_c, 7, 57, 64
9, 132371, Note_off_c, 7, 62, 64
9, 132480, Note_on_c, 7, 55, 73
9, 132487, Note_on_c, 7, 64, 90
9, 132488, Note_on_c, 7, 59, 84
9, 134478, Note_off_c, 7, 64, 64
9, 134485, Note_off_c, 7, 59, 64
9, 134487, Note_off_c, 7, 55, 64
9, 135360, Note_on_c, 7, 74, 100
9, 135360, Note_on_c, 7, 67, 127
9, 135360, Note_on_c, 7, 71, 90
9, 138116, Note_off_c, 7, 67, 64
9, 138173, Note_off_c, 7, 71, 64
9, 138210, Note_on_c, 7, 69, 94
9, 138215, Note_on_c, 7, 66, 89
9, 141050, Note_off_c, 7, 66, 64
9, 141055, Note_off_c, 7, 74, 64
9, 141056, Note_off_c, 7, 69, 64
9, 141116, Note_on_c, 7, 64, 87
9, 141118, Note_on_c, 7, 69, 97
9, 141118, Note_on_c, 7, 72, 98
9, 143272, Note_on_c, 7, 74, 122
9, 143292, Note_off_c, 7, 72, 64
9, 143872, Note_off_c, 7, 69, 64
9, 143935, Note_off_c, 7, 74, 64
9, 143935, Note_on_c, 7, 71, 81
9, 143943, Note_on_c, 7, 67, 127
9, 146123, Note_off_c, 7, 64, 64
9, 146128, Note_on_c, 7, 62, 91
9, 146130, Note_off_c, 7, 67, 64
9, 146131, Note_off_c, 7, 71, 64
9, 146132, Note_on_c, 7, 69, 92
9, 146132, Note_on_c, 7, 66, 87
9, 146780, Note_off_c, 7, 62, 64
9, 146787, Note_off_c, 7, 69, 64
9, 146788, Note_off_c, 7, 66, 64
9, 146855, Note_on_c, 7, 74, 100
9, 146856, Note_on_c, 7, 67, 127
9, 146858, Note_on_c, 7, 71, 98
9, 149663, Note_off_c, 7, 67, 64
9, 149733, Note_off_c, 7, 71, 64
9, 149757, Note_on_c, 7, 69, 97
9, 149760, Note_on_c, 7, 66, 93
9, 152538, Note_off_c, 7, 74, 64
9, 152542, Note_off_c, 7, 69, 64
9, 152543, Note_off_c, 7, 66, 64
9, 152636, Note_on_c, 7, 64, 102
9, 152636, Note_on_c, 7, 72, 98
9, 152638, Note_on_c, 7, 67, 127
9, 155441, Note_off_c, 7, 72, 64
9, 155458, Note_off_c, 7, 64, 64
9, 155463, Note_off_c, 7, 67, 64
9, 155536, Note_on_c, 7, 62, 77
9, 155536, Note_on_c, 7, 67, 127
9, 155538, Note_on_c, 7, 71, 95
9, 156848, Note_off_c, 7, 67, 64
9, 156873, Note_off_c, 7, 71, 64
9, 156896, Note_off_c, 7, 62, 64
9, 156923, Note_on_c, 7, 62, 40
9, 156935, Note_on_c, 7, 69, 88
9, 156936, Note_on_c, 7, 66, 97
9, 158322, Note_off_c, 7, 62, 64
9, 158335, Note_off_c, 7, 66, 64
9, 158336, Note_off_c, 7, 69, 64
9, 158400, Note_on_c, 7, 67, 127
9, 158400, Note_on_c, 7, 76, 100
9, 158400, Note_on_c, 7, 71, 94
9, 161176, Note_off_c, 7, 76, 64
9, 161188, Note_off_c, 7, 67, 64
9, 161207, Note_off_c, 7, 71, 64
9, 161256, Note_on_c, 7, 66, 97
9, 161257, Note_on_c, 7, 69, 102
9, 161260, Note_on_c, 7, 74, 87
9, 163901, Note_off_c, 7, 69, 64
9, 163902, Note_off_c, 7, 66, 64
9, 163918, Note_off_c, 7, 74, 64
9, 164147, Note_on_c, 7, 76, 80
9, 164153, Note_on_c, 7, 71, 84
9, 164155, Note_on_c, 7, 67, 98
9, 165582, Note_on_c, 7, 74, 81
9, 165585, Note_on_c, 7, 72, 76
9, 165588, Note_off_c, 7, 76, 64
9, 165607, Note_off_c, 7, 71, 64
9, 166238, Note_off_c, 7, 67, 64
9, 166285, Note_off_c, 7, 72, 64
9, 166315, Note_on_c, 7, 69, 86
9, 166326, Note_on_c, 7, 66, 99
9, 166935, Note_off_c, 7, 69, 64
9, 166965, Note_off_c, 7, 66, 64
9, 167025, Note_off_c, 7, 74, 64
9, 167025, Note_on_c, 7, 76, 98
9, 167028, Note_on_c, 7, 71, 86
9, 167033, Note_on_c, 7, 67, 117
9, 168443, Note_on_c, 7, 74, 85
9, 168446, Note_on_c, 7, 72, 75
9, 168467, Note_off_c, 7, 71, 64
9, 168467, Note_off_c, 7, 76, 64
9, 169086, Note_off_c, 7, 67, 64
9, 169131, Note_off_c, 7, 72, 64
9, 169177, Note_on_c, 7, 69, 91
9, 169181, Note_on_c, 7, 66, 95
9, 169836, Note_off_c, 7, 69, 64
9, 169842, Note_off_c, 7, 66, 64
9, 169893, Note_on_c, 7, 67, 94
9, 169910, Note_on_c, 7, 71, 94
9, 169916, Note_on_c, 7, 76, 80
9, 169937, Note_off_c, 7, 74, 64
9, 171330, Note_on_c, 7, 74, 86
9, 171335, Note_on_c, 7, 72, 73
9, 171347, Note_off_c, 7, 71, 64
9, 171406, Note_off_c, 7, 76, 64
9, 171996, Note_off_c, 7, 67, 64
9, 172007, Note_off_c, 7, 72, 64
9, 172075, Note_on_c, 7, 69, 90
9, 172083, Note_on_c, 7, 66, 104
9, 172698, Note_off_c, 7, 69, 64
9, 172727, Note_off_c, 7, 66, 64
9, 172776, Note_on_c, 7, 67, 81
9, 172785, Note_on_c, 7, 71, 90
9, 172786, Note_on_c, 7, 76, 98
9, 172811, Note_off_c, 7, 74, 64
9, 174232, Note_on_c, 7, 74, 88
9, 174233, Note_off_c, 7, 76, 64
9, 174233, Note_on_c, 7, 72, 77
9, 174257, Note_off_c, 7, 71, 64
9, 174897, Note_off_c, 7, 67, 64
9, 174917, Note_off_c, 7, 72, 64
9, 174977, Note_on_c, 7, 69, 90
9, 174985, Note_on_c, 7, 66, 104
9, 175597, Note_off_c, 7, 69, 64
9, 175643, Note_off_c, 7, 66, 64
9, 175671, Note_on_c, 7, 67, 94
9, 175675, Note_on_c, 7, 76, 104
9, 175675, Note_on_c, 7, 71, 84
9, 175698, Note_off_c, 7, 74, 64
9, 177092, Note_on_c, 7, 74, 88
9, 177095, Note_on_c, 7, 72, 76
9, 177112, Note_off_c, 7, 76, 64
9, 177122, Note_off_c, 7, 71, 64
9, 177743, Note_off_c, 7, 67, 64
9, 177770, Note_off_c, 7, 72, 64
9, 177822, Note_on_c, 7, 69, 68
9, 177828, Note_on_c, 7, 66, 89
9, 178462, Note_off_c, 7, 69, 64
9, 178507, Note_off_c, 7, 66, 64
9, 178533, Note_on_c, 7, 67, 87
9, 178543, Note_on_c, 7, 71, 84
9, 178551, Note_on_c, 7, 76, 94
9, 178578, Note_off_c, 7, 74, 64
9, 179985, Note_on_c, 7, 74, 88
9, 179990, Note_on_c, 7, 72, 70
9, 180012, Note_off_c, 7, 76, 64
9, 180020, Note_off_c, 7, 71, 64
9, 180623, Note_off_c, 7, 67, 64
9, 180662, Note_off_c, 7, 72, 64
9, 180705, Note_on_c, 7, 69, 73
9, 180713, Note_on_c, 7, 66, 89
9, 181346, Note_off_c, 7, 69, 64
9, 181397, Note_off_c, 7, 66, 64
9, 181426, Note_on_c, 7, 71, 73
9, 181427, Note_on_c, 7, 67, 88
9, 181428, Note_on_c, 7, 76, 94
9, 181462, Note_off_c, 7, 74, 64
9, 182817, Note_on_c, 7, 74, 86
9, 182822, Note_on_c, 7, 72, 73
9, 182843, Note_off_c, 7, 76, 64
9, 182848, Note_off_c, 7, 71, 64
9, 183502, Note_off_c, 7, 67, 64
9, 183526, Note_off_c, 7, 72, 64
9, 183583, Note_on_c, 7, 66, 81
9, 183583, Note_on_c, 7, 69, 80
9, 184246, Note_off_c, 7, 69, 64
9, 184256, Note_off_c, 7, 66, 64
9, 184300, Note_on_c, 7, 67, 70
9, 184316, Note_on_c, 7, 71, 80
9, 184317, Note_on_c, 7, 76, 97
9, 184351, Note_off_c, 7, 74, 64
9, 185765, Note_on_c, 7, 74, 85
9, 185767, Note_on_c, 7, 72, 73
9, 185791, Note_off_c, 7, 76, 64
9, 185796, Note_off_c, 7, 71, 64
9, 186358, Note_off_c, 7, 67, 64
9, 186413, Note_off_c, 7, 72, 64
9, 186443, Note_on_c, 7, 69, 83
9, 186443, Note_on_c, 7, 66, 74
9, 187130, Note_off_c, 7, 69, 64
9, 187158, Note_off_c, 7, 66, 64
9, 187178, Note_on_c, 7, 67, 86
9, 187188, Note_on_c, 7, 76, 98
9, 187193, Note_on_c, 7, 71, 76
9, 187225, Note_off_c, 7, 74, 64
9, 188620, Note_on_c, 7, 74, 84
9, 188621, Note_on_c, 7, 72, 74
9, 188647, Note_off_c, 7, 76, 64
9, 188652, Note_off_c, 7, 71, 64
9, 189248, Note_off_c, 7, 67, 64
9, 189300, Note_off_c, 7, 72, 64
9, 189348, Note_on_c, 7, 66, 85
9, 189355, Note_on_c, 7, 69, 83
9, 189980, Note_off_c, 7, 69, 64
9, 189997, Note_off_c, 7, 66, 64
9, 190046, Note_on_c, 7, 67, 79
9, 190060, Note_on_c, 7, 76, 97
9, 190060, Note_on_c, 7, 71, 80
9, 190086, Note_off_c, 7, 74, 64
9, 191486, Note_on_c, 7, 74, 80
9, 191487, Note_on_c, 7, 72, 73
9, 191508, Note_off_c, 7, 76, 64
9, 191516, Note_off_c, 7, 71, 64
9, 192122, Note_off_c, 7, 67, 64
9, 192173, Note_off_c, 7, 72, 64
9, 192215, Note_on_c, 7, 66, 84
9, 192218, Note_on_c, 7, 69, 85
9, 192860, Note_off_c, 7, 66, 64
9, 192863, Note_off_c, 7, 69, 64
9, 192867, Note_off_c, 7, 74, 64
9, 192867, End_track
10, 0, Start_track
10, 0, MIDI_port, 0
10, 0, Channel_prefix, 8
10, 0, Control_c, 8, 10, 64
10, 210, Control_c, 8, 121, 0
10, 290, Control_c, 8, 101, 0
10, 370, Control_c, 8, 100, 0
10, 450, Control_c, 8, 6, 12
10, 530, Program_c, 8, 49
10, 1485, Control_c, 8, 93, 100
10, 1565, Control_c, 8, 91, 76
10, 1645, Control_c, 8, 10, 111
10, 1725, Control_c, 8, 7, 60
10, 77760, Note_on_c, 8, 71, 83
10, 77760, Note_on_c, 8, 64, 87
10, 77760, Note_on_c, 8, 67, 120
10, 80556, Note_off_c, 8, 64, 64
10, 80607, Note_off_c, 8, 67, 64
10, 80623, Note_off_c, 8, 71, 64
10, 80638, Note_on_c, 8, 62, 78
10, 80643, Note_on_c, 8, 69, 85
10, 80650, Note_on_c, 8, 66, 75
10, 83432, Note_off_c, 8, 62, 64
10, 83457, Note_off_c, 8, 69, 64
10, 83497, Note_on_c, 8, 71, 71
10, 83505, Note_on_c, 8, 67, 110
10, 83512, Note_on_c, 8, 64, 75
10, 83545, Note_off_c, 8, 66, 64
10, 84747, Note_off_c, 8, 71, 64
10, 84856, Note_off_c, 8, 67, 64
10, 84856, Note_off_c, 8, 64, 64
10, 84923, Note_on_c, 8, 60, 65
10, 84927, Note_on_c, 8, 64, 73
10, 84927, Note_on_c, 8, 67, 108
10, 85537, Note_off_c, 8, 60, 64
10, 85547, Note_off_c, 8, 64, 64
10, 85610, Note_off_c, 8, 67, 64
10, 85623, Note_on_c, 8, 69, 47
10, 85633, Note_on_c, 8, 62, 83
10, 85635, Note_on_c, 8, 66, 82
10, 86307, Note_off_c, 8, 62, 64
10, 86350, Note_on_c, 8, 67, 66
10, 86351, Note_off_c, 8, 66, 64
10, 86353, Note_off_c, 8, 69, 64
10, 86367, Note_on_c, 8, 71, 71
10, 86376, Note_on_c, 8, 64, 71
10, 89143, Note_off_c, 8, 64, 64
10, 89171, Note_off_c, 8, 71, 64
10, 89172, Note_off_c, 8, 67, 64
10, 89280, Note_on_c, 8, 71, 80
10, 89280, Note_on_c, 8, 67, 117
10, 89280, Note_on_c, 8, 62, 71
10, 92125, Note_on_c, 8, 69, 80
10, 92128, Note_on_c, 8, 66, 78
10, 92193, Note_off_c, 8, 71, 64
10, 92197, Note_off_c, 8, 67, 64
10, 95002, Note_off_c, 8, 62, 64
10, 95008, Note_off_c, 8, 66, 64
10, 95008, Note_on_c, 8, 72, 84
10, 95032, Note_on_c, 8, 64, 68
10, 97901, Note_on_c, 8, 71, 73
10, 97915, Note_on_c, 8, 67, 112
10, 97921, Note_off_c, 8, 72, 64
10, 97941, Note_off_c, 8, 69, 64
10, 99971, Note_off_c, 8, 67, 64
10, 100008, Note_off_c, 8, 64, 64
10, 100042, Note_on_c, 8, 69, 80
10, 100050, Note_on_c, 8, 66, 95
10, 100056, Note_on_c, 8, 62, 76
10, 100097, Note_off_c, 8, 71, 64
10, 100703, Note_off_c, 8, 69, 64
10, 100705, Note_off_c, 8, 66, 64
10, 100718, Note_off_c, 8, 62, 64
10, 100800, Note_on_c, 8, 62, 81
10, 100800, Note_on_c, 8, 67, 120
10, 100801, Note_on_c, 8, 71, 85
10, 103632, Note_on_c, 8, 69, 74
10, 103637, Note_off_c, 8, 71, 64
10, 103637, Note_on_c, 8, 66, 81
10, 103668, Note_off_c, 8, 67, 64
10, 106442, Note_off_c, 8, 66, 64
10, 106448, Note_off_c, 8, 62, 64
10, 106520, Note_on_c, 8, 67, 104
10, 106523, Note_on_c, 8, 60, 72
10, 106527, Note_on_c, 8, 64, 91
10, 106567, Note_off_c, 8, 69, 64
10, 109375, Note_off_c, 8, 60, 64
10, 109428, Note_on_c, 8, 62, 91
10, 109430, Note_on_c, 8, 59, 86
10, 109440, Note_off_c, 8, 64, 64
10, 110792, Note_off_c, 8, 59, 64
10, 110840, Note_on_c, 8, 66, 82
10, 110853, Note_on_c, 8, 57, 87
10, 110886, Note_off_c, 8, 67, 64
10, 112228, Note_off_c, 8, 57, 64
10, 112237, Note_off_c, 8, 62, 64
10, 112246, Note_off_c, 8, 66, 64
10, 112320, Note_on_c, 8, 64, 90
10, 112320, Note_on_c, 8, 59, 78
10, 112320, Note_on_c, 8, 67, 125
10, 115161, Note_off_c, 8, 59, 64
10, 115178, Note_on_c, 8, 66, 75
10, 115180, Note_off_c, 8, 64, 64
10, 115187, Note_on_c, 8, 62, 81
10, 115198, Note_on_c, 8, 57, 70
10, 115232, Note_off_c, 8, 67, 64
10, 118001, Note_off_c, 8, 57, 64
10, 118031, Note_off_c, 8, 66, 64
10, 118051, Note_off_c, 8, 62, 64
10, 118066, Note_on_c, 8, 64, 79
10, 118076, Note_on_c, 8, 59, 80
10, 118082, Note_on_c, 8, 67, 122
10, 119391, Note_off_c, 8, 59, 64
10, 119493, Note_on_c, 8, 60, 87
10, 120113, Note_off_c, 8, 60, 64
10, 120172, Note_off_c, 8, 67, 64
10, 120176, Note_off_c, 8, 64, 64
10, 120180, Note_on_c, 8, 62, 81
10, 120187, Note_on_c, 8, 66, 48
10, 120191, Note_on_c, 8, 57, 80
10, 120870, Note_off_c, 8, 57, 64
10, 120917, Note_off_c, 8, 66, 64
10, 120945, Note_on_c, 8, 59, 85
10, 120947, Note_on_c, 8, 64, 88
10, 120956, Note_on_c, 8, 67, 125
10, 120981, Note_off_c, 8, 62, 64
10, 123841, Note_off_c, 8, 59, 64
10, 123841, Note_off_c, 8, 64, 64
10, 123841, Note_off_c, 8, 67, 64
10, 135360, Note_on_c, 8, 71, 80
10, 135360, Note_on_c, 8, 67, 117
10, 135360, Note_on_c, 8, 62, 71
10, 138205, Note_on_c, 8, 69, 80
10, 138208, Note_on_c, 8, 66, 78
10, 138273, Note_off_c, 8, 71, 64
10, 138277, Note_off_c, 8, 67, 64
10, 141082, Note_off_c, 8, 62, 64
10, 141088, Note_off_c, 8, 66, 64
10, 141088, Note_on_c, 8, 72, 84
10, 141112, Note_on_c, 8, 64, 68
10, 143981, Note_on_c, 8, 71, 73
10, 143995, Note_on_c, 8, 67, 112
10, 144001, Note_off_c, 8, 72, 64
10, 144021, Note_off_c, 8, 69, 64
10, 146051, Note_off_c, 8, 67, 64
10, 146088, Note_off_c, 8, 64, 64
10, 146122, Note_on_c, 8, 69, 80
10, 146130, Note_on_c, 8, 66, 95
10, 146136, Note_on_c, 8, 62, 76
10, 146177, Note_off_c, 8, 71, 64
10, 146783, Note_off_c, 8, 69, 64
10, 146785, Note_off_c, 8, 66, 64
10, 146798, Note_off_c, 8, 62, 64
10, 146880, Note_on_c, 8, 62, 81
10, 146880, Note_on_c, 8, 67, 120
10, 146881, Note_on_c, 8, 71, 85
10, 149712, Note_on_c, 8, 69, 74
10, 149717, Note_off_c, 8, 71, 64
10, 149717, Note_on_c, 8, 66, 81
10, 149748, Note_off_c, 8, 67, 64
10, 152522, Note_off_c, 8, 66, 64
10, 152528, Note_off_c, 8, 62, 64
10, 152600, Note_on_c, 8, 67, 104
10, 152603, Note_on_c, 8, 60, 72
10, 152607, Note_on_c, 8, 64, 91
10, 152647, Note_off_c, 8, 69, 64
10, 155455, Note_off_c, 8, 60, 64
10, 155508, Note_on_c, 8, 62, 91
10, 155510, Note_on_c, 8, 59, 86
10, 155520, Note_off_c, 8, 64, 64
10, 156872, Note_off_c, 8, 59, 64
10, 156920, Note_on_c, 8, 66, 82
10, 156933, Note_on_c, 8, 57, 87
10, 156966, Note_off_c, 8, 67, 64
10, 158308, Note_off_c, 8, 57, 64
10, 158317, Note_off_c, 8, 62, 64
10, 158326, Note_off_c, 8, 66, 64
10, 158400, Note_on_c, 8, 64, 90
10, 158400, Note_on_c, 8, 59, 78
10, 158400, Note_on_c, 8, 67, 125
10, 161241, Note_off_c, 8, 59, 64
10, 161258, Note_on_c, 8, 66, 75
10, 161260, Note_off_c, 8, 64, 64
10, 161267, Note_on_c, 8, 62, 81
10, 161278, Note_on_c, 8, 57, 70
10, 161312, Note_off_c, 8, 67, 64
10, 164081, Note_off_c, 8, 57, 64
10, 164111, Note_off_c, 8, 66, 64
10, 164131, Note_off_c, 8, 62, 64
10, 164160, Note_on_c, 8, 59, 70
10, 164160, Note_on_c, 8, 64, 69
10, 164162, Note_on_c, 8, 67, 112
10, 165475, Note_off_c, 8, 59, 64
10, 165573, Note_on_c, 8, 60, 77
10, 166193, Note_off_c, 8, 60, 64
10, 166252, Note_off_c, 8, 67, 64
10, 166260, Note_on_c, 8, 62, 71
10, 166267, Note_on_c, 8, 66, 104
10, 166270, Note_off_c, 8, 64, 64
10, 166271, Note_on_c, 8, 57, 70
10, 166950, Note_off_c, 8, 57, 64
10, 166997, Note_off_c, 8, 66, 64
10, 167040, Note_on_c, 8, 59, 70
10, 167040, Note_on_c, 8, 64, 69
10, 167042, Note_on_c, 8, 67, 112
10, 167061, Note_off_c, 8, 62, 64
10, 168355, Note_off_c, 8, 59, 64
10, 168453, Note_on_c, 8, 60, 77
10, 169073, Note_off_c, 8, 60, 64
10, 169132, Note_off_c, 8, 67, 64
10, 169140, Note_on_c, 8, 62, 71
10, 169147, Note_on_c, 8, 66, 104
10, 169150, Note_off_c, 8, 64, 64
10, 169151, Note_on_c, 8, 57, 70
10, 169830, Note_off_c, 8, 57, 64
10, 169877, Note_off_c, 8, 66, 64
10, 169920, Note_on_c, 8, 59, 70
10, 169920, Note_on_c, 8, 64, 69
10, 169922, Note_on_c, 8, 67, 112
10, 169941, Note_off_c, 8, 62, 64
10, 171235, Note_off_c, 8, 59, 64
10, 171333, Note_on_c, 8, 60, 77
10, 171953, Note_off_c, 8, 60, 64
10, 172012, Note_off_c, 8, 67, 64
10, 172020, Note_on_c, 8, 62, 71
10, 172027, Note_on_c, 8, 66, 104
10, 172030, Note_off_c, 8, 64, 64
10, 172031, Note_on_c, 8, 57, 70
10, 172710, Note_off_c, 8, 57, 64
10, 172757, Note_off_c, 8, 66, 64
10, 172800, Note_on_c, 8, 59, 70
10, 172800, Note_on_c, 8, 64, 69
10, 172802, Note_on_c, 8, 67, 112
10, 172821, Note_off_c, 8, 62, 64
10, 174115, Note_off_c, 8, 59, 64
10, 174213, Note_on_c, 8, 60, 77
10, 174833, Note_off_c, 8, 60, 64
10, 174892, Note_off_c, 8, 67, 64
10, 174900, Note_on_c, 8, 62, 71
10, 174907, Note_on_c, 8, 66, 104
10, 174910, Note_off_c, 8, 64, 64
10, 174911, Note_on_c, 8, 57, 70
10, 175590, Note_off_c, 8, 57, 64
10, 175637, Note_off_c, 8, 66, 64
10, 175680, Note_on_c, 8, 59, 70
10, 175680, Note_on_c, 8, 64, 69
10, 175682, Note_on_c, 8, 67, 112
10, 175701, Note_off_c, 8, 62, 64
10, 176995, Note_off_c, 8, 59, 64
10, 177093, Note_on_c, 8, 60, 77
10, 177713, Note_off_c, 8, 60, 64
10, 177772, Note_off_c, 8, 67, 64
10, 177780, Note_on_c, 8, 62, 71
10, 177787, Note_on_c, 8, 66, 104
10, 177790, Note_off_c, 8, 64, 64
10, 177791, Note_on_c, 8, 57, 70
10, 178470, Note_off_c, 8, 57, 64
10, 178517, Note_off_c, 8, 66, 64
10, 178560, Note_on_c, 8, 59, 70
10, 178560, Note_on_c, 8, 64, 69
10, 178562, Note_on_c, 8, 67, 112
10, 178581, Note_off_c, 8, 62, 64
10, 179875, Note_off_c, 8, 59, 64
10, 179973, Note_on_c, 8, 60, 77
10, 180593, Note_off_c, 8, 60, 64
10, 180652, Note_off_c, 8, 67, 64
10, 180660, Note_on_c, 8, 62, 71
10, 180667, Note_on_c, 8, 66, 104
10, 180670, Note_off_c, 8, 64, 64
10, 180671, Note_on_c, 8, 57, 70
10, 181350, Note_off_c, 8, 57, 64
10, 181397, Note_off_c, 8, 66, 64
10, 181440, Note_on_c, 8, 59, 70
10, 181440, Note_on_c, 8, 64, 69
10, 181442, Note_on_c, 8, 67, 112
10, 181461, Note_off_c, 8, 62, 64
10, 182755, Note_off_c, 8, 59, 64
10, 182853, Note_on_c, 8, 60, 77
10, 183473, Note_off_c, 8, 60, 64
10, 183532, Note_off_c, 8, 67, 64
10, 183540, Note_on_c, 8, 62, 71
10, 183547, Note_on_c, 8, 66, 104
10, 183550, Note_off_c, 8, 64, 64
10, 183551, Note_on_c, 8, 57, 70
10, 184230, Note_off_c, 8, 57, 64
10, 184277, Note_off_c, 8, 66, 64
10, 184320, Note_on_c, 8, 59, 70
10, 184320, Note_on_c, 8, 64, 69
10, 184322, Note_on_c, 8, 67, 112
10, 184341, Note_off_c, 8, 62, 64
10, 185635, Note_off_c, 8, 59, 64
10, 185733, Note_on_c, 8, 60, 77
10, 186353, Note_off_c, 8, 60, 64
10, 186412, Note_off_c, 8, 67, 64
10, 186420, Note_on_c, 8, 62, 71
10, 186427, Note_on_c, 8, 66, 104
10, 186430, Note_off_c, 8, 64, 64
10, 186431, Note_on_c, 8, 57, 70
10, 187110, Note_off_c, 8, 57, 64
10, 187157, Note_off_c, 8, 66, 64
10, 187200, Note_on_c, 8, 59, 70
10, 187200, Note_on_c, 8, 64, 69
10, 187202, Note_on_c, 8, 67, 112
10, 187221, Note_off_c, 8, 62, 64
10, 188515, Note_off_c, 8, 59, 64
10, 188613, Note_on_c, 8, 60, 77
10, 189233, Note_off_c, 8, 60, 64
10, 189292, Note_off_c, 8, 67, 64
10, 189300, Note_on_c, 8, 62, 71
10, 189307, Note_on_c, 8, 66, 104
10, 189310, Note_off_c, 8, 64, 64
10, 189311, Note_on_c, 8, 57, 70
10, 189990, Note_off_c, 8, 57, 64
10, 190037, Note_off_c, 8, 66, 64
10, 190080, Note_on_c, 8, 59, 70
10, 190080, Note_on_c, 8, 64, 69
10, 190082, Note_on_c, 8, 67, 112
10, 190101, Note_off_c, 8, 62, 64
10, 191395, Note_off_c, 8, 59, 64
10, 191493, Note_on_c, 8, 60, 77
10, 192113, Note_off_c, 8, 60, 64
10, 192172, Note_off_c, 8, 67, 64
10, 192180, Note_on_c, 8, 62, 71
10, 192187, Note_on_c, 8, 66, 104
10, 192190, Note_off_c, 8, 64, 64
10, 192191, Note_on_c, 8, 57, 70
10, 192870, Note_off_c, 8, 57, 64
10, 192917, Note_off_c, 8, 66, 64
10, 192981, Note_off_c, 8, 62, 64
10, 192981, End_track
11, 0, Start_track
11, 0, MIDI_port, 0
11, 0, Channel_prefix, 9
11, 0, Control_c, 9, 10, 64
11, 165, Control_c, 9, 121, 0
11, 245, Control_c, 9, 101, 0
11, 325, Control_c, 9, 100, 0
11, 405, Control_c, 9, 6, 0
11, 485, Program_c, 9, 16
11, 1440, Control_c, 9, 93, 0
11, 1520, Control_c, 9, 91, 127
11, 1600, Control_c, 9, 10, 64
11, 1680, Control_c, 9, 7, 107
11, 20632, Note_on_c, 9, 64, 58
11, 20662, Note_off_c, 9, 64, 64
11, 21102, Note_on_c, 9, 64, 46
11, 21132, Note_off_c, 9, 64, 64
11, 21356, Note_on_c, 9, 62, 71
11, 21385, Note_off_c, 9, 62, 64
11, 21602, Note_on_c, 9, 85, 78
11, 21632, Note_off_c, 9, 85, 64
11, 21841, Note_on_c, 9, 63, 83
11, 21871, Note_off_c, 9, 63, 64
11, 22082, Note_on_c, 9, 64, 76
11, 22112, Note_off_c, 9, 64, 64
11, 22556, Note_on_c, 9, 64, 85
11, 22586, Note_off_c, 9, 64, 64
11, 22795, Note_on_c, 9, 63, 78
11, 22823, Note_off_c, 9, 63, 64
11, 23512, Note_on_c, 9, 64, 58
11, 23542, Note_off_c, 9, 64, 64
11, 23982, Note_on_c, 9, 64, 46
11, 24012, Note_off_c, 9, 64, 64
11, 24236, Note_on_c, 9, 62, 71
11, 24265, Note_off_c, 9, 62, 64
11, 24482, Note_on_c, 9, 76, 78
11, 24512, Note_off_c, 9, 76, 64
11, 24721, Note_on_c, 9, 63, 83
11, 24751, Note_off_c, 9, 63, 64
11, 24962, Note_on_c, 9, 64, 76
11, 24992, Note_off_c, 9, 64, 64
11, 25436, Note_on_c, 9, 64, 85
11, 25466, Note_off_c, 9, 64, 64
11, 25675, Note_on_c, 9, 63, 78
11, 25703, Note_off_c, 9, 63, 64
11, 26392, Note_on_c, 9, 64, 58
11, 26422, Note_off_c, 9, 64, 64
11, 26862, Note_on_c, 9, 64, 46
11, 26892, Note_off_c, 9, 64, 64
11, 27116, Note_on_c, 9, 62, 71
11, 27145, Note_off_c, 9, 62, 64
11, 27362, Note_on_c, 9, 85, 78
11, 27392, Note_off_c, 9, 85, 64
11, 27601, Note_on_c, 9, 63, 83
11, 27631, Note_off_c, 9, 63, 64
11, 27842, Note_on_c, 9, 64, 76
11, 27872, Note_off_c, 9, 64, 64
11, 28316, Note_on_c, 9, 64, 85
11, 28346, Note_off_c, 9, 64, 64
11, 28555, Note_on_c, 9, 63, 78
11, 28583, Note_off_c, 9, 63, 64
11, 29272, Note_on_c, 9, 64, 58
11, 29302, Note_off_c, 9, 64, 64
11, 29742, Note_on_c, 9, 64, 46
11, 29772, Note_off_c, 9, 64, 64
11, 29996, Note_on_c, 9, 62, 71
11, 30025, Note_off_c, 9, 62, 64
11, 30242, Note_on_c, 9, 76, 78
11, 30272, Note_off_c, 9, 76, 64
11, 30481, Note_on_c, 9, 63, 83
11, 30511, Note_off_c, 9, 63, 64
11, 30722, Note_on_c, 9, 64, 76
11, 30752, Note_off_c, 9, 64, 64
11, 31196, Note_on_c, 9, 64, 85
11, 31226, Note_off_c, 9, 64, 64
11, 31435, Note_on_c, 9, 63, 78
11, 31463, Note_off_c, 9, 63, 64
11, 31680, Note_on_c, 9, 64, 66
11, 31707, Note_off_c, 9, 64, 64
11, 31918, Note_on_c, 9, 63, 77
11, 31948, Note_off_c, 9, 63, 64
11, 32156, Note_on_c, 9, 64, 81
11, 32185, Note_off_c, 9, 64, 64
11, 32635, Note_on_c, 9, 64, 75
11, 32663, Note_off_c, 9, 64, 64
11, 32878, Note_on_c, 9, 63, 76
11, 32908, Note_off_c, 9, 63, 64
11, 33118, Note_on_c, 9, 62, 86
11, 33148, Note_off_c, 9, 62, 64
11, 33355, Note_on_c, 9, 63, 84
11, 33385, Note_off_c, 9, 63, 64
11, 33603, Note_on_c, 9, 64, 90
11, 33633, Note_off_c, 9, 64, 64
11, 34073, Note_on_c, 9, 64, 75
11, 34102, Note_off_c, 9, 64, 64
11, 34318, Note_on_c, 9, 63, 92
11, 34347, Note_off_c, 9, 63, 64
11, 34560, Note_on_c, 9, 64, 66
11, 34587, Note_off_c, 9, 64, 64
11, 34798, Note_on_c, 9, 63, 77
11, 34828, Note_off_c, 9, 63, 64
11, 35036, Note_on_c, 9, 64, 81
11, 35065, Note_off_c, 9, 64, 64
11, 35515, Note_on_c, 9, 64, 75
11, 35543, Note_off_c, 9, 64, 64
11, 35758, Note_on_c, 9, 63, 76
11, 35788, Note_off_c, 9, 63, 64
11, 35998, Note_on_c, 9, 62, 86
11, 35998, Note_on_c, 9, 76, 63
11, 36027, Note_off_c, 9, 76, 64
11, 36028, Note_off_c, 9, 62, 64
11, 36235, Note_on_c, 9, 63, 84
11, 36265, Note_off_c, 9, 63, 64
11, 36483, Note_on_c, 9, 64, 90
11, 36513, Note_off_c, 9, 64, 64
11, 36953, Note_on_c, 9, 64, 75
11, 36982, Note_off_c, 9, 64, 64
11, 37198, Note_on_c, 9, 63, 92
11, 37227, Note_off_c, 9, 63, 64
11, 37440, Note_on_c, 9, 64, 66
11, 37467, Note_off_c, 9, 64, 64
11, 37678, Note_on_c, 9, 63, 77
11, 37708, Note_off_c, 9, 63, 64
11, 37916, Note_on_c, 9, 64, 81
11, 37945, Note_off_c, 9, 64, 64
11, 38395, Note_on_c, 9, 64, 75
11, 38423, Note_off_c, 9, 64, 64
11, 38638, Note_on_c, 9, 63, 76
11, 38668, Note_off_c, 9, 63, 64
11, 38878, Note_on_c, 9, 62, 86
11, 38908, Note_off_c, 9, 62, 64
11, 39115, Note_on_c, 9, 63, 84
11, 39145, Note_off_c, 9, 63, 64
11, 39363, Note_on_c, 9, 64, 90
11, 39393, Note_off_c, 9, 64, 64
11, 39833, Note_on_c, 9, 64, 75
11, 39862, Note_off_c, 9, 64, 64
11, 40078, Note_on_c, 9, 63, 92
11, 40107, Note_off_c, 9, 63, 64
11, 40320, Note_on_c, 9, 64, 66
11, 40347, Note_off_c, 9, 64, 64
11, 40558, Note_on_c, 9, 63, 77
11, 40588, Note_off_c, 9, 63, 64
11, 40796, Note_on_c, 9, 64, 81
11, 40825, Note_off_c, 9, 64, 64
11, 41275, Note_on_c, 9, 64, 75
11, 41303, Note_off_c, 9, 64, 64
11, 41518, Note_on_c, 9, 63, 76
11, 41548, Note_off_c, 9, 63, 64
11, 41758, Note_on_c, 9, 62, 86
11, 41758, Note_on_c, 9, 76, 63
11, 41787, Note_off_c, 9, 76, 64
11, 41788, Note_off_c, 9, 62, 64
11, 41995, Note_on_c, 9, 63, 84
11, 42025, Note_off_c, 9, 63, 64
11, 42243, Note_on_c, 9, 64, 90
11, 42273, Note_off_c, 9, 64, 64
11, 42713, Note_on_c, 9, 64, 75
11, 42742, Note_off_c, 9, 64, 64
11, 42958, Note_on_c, 9, 63, 92
11, 42987, Note_off_c, 9, 63, 64
11, 43200, Note_on_c, 9, 64, 66
11, 43227, Note_off_c, 9, 64, 64
11, 43438, Note_on_c, 9, 63, 77
11, 43468, Note_off_c, 9, 63, 64
11, 43672, Note_on_c, 9, 70, 87
11, 43676, Note_on_c, 9, 64, 81
11, 43701, Note_off_c, 9, 70, 64
11, 43705, Note_off_c, 9, 64, 64
11, 43910, Note_on_c, 9, 70, 47
11, 43938, Note_off_c, 9, 70, 64
11, 44155, Note_on_c, 9, 64, 75
11, 44183, Note_off_c, 9, 64, 64
11, 44398, Note_on_c, 9, 63, 76
11, 44428, Note_off_c, 9, 63, 64
11, 44638, Note_on_c, 9, 62, 86
11, 44668, Note_off_c, 9, 62, 64
11, 44875, Note_on_c, 9, 63, 84
11, 44905, Note_off_c, 9, 63, 64
11, 45112, Note_on_c, 9, 70, 87
11, 45123, Note_on_c, 9, 64, 90
11, 45141, Note_off_c, 9, 70, 64
11, 45153, Note_off_c, 9, 64, 64
11, 45350, Note_on_c, 9, 70, 47
11, 45378, Note_off_c, 9, 70, 64
11, 45593, Note_on_c, 9, 64, 75
11, 45622, Note_off_c, 9, 64, 64
11, 45838, Note_on_c, 9, 63, 92
11, 45867, Note_off_c, 9, 63, 64
11, 46080, Note_on_c, 9, 64, 66
11, 46107, Note_off_c, 9, 64, 64
11, 46318, Note_on_c, 9, 63, 77
11, 46348, Note_off_c, 9, 63, 64
11, 46552, Note_on_c, 9, 70, 87
11, 46556, Note_on_c, 9, 64, 81
11, 46581, Note_off_c, 9, 70, 64
11, 46585, Note_off_c, 9, 64, 64
11, 46790, Note_on_c, 9, 70, 47
11, 46818, Note_off_c, 9, 70, 64
11, 47035, Note_on_c, 9, 64, 75
11, 47063, Note_off_c, 9, 64, 64
11, 47278, Note_on_c, 9, 63, 76
11, 47308, Note_off_c, 9, 63, 64
11, 47518, Note_on_c, 9, 62, 86
11, 47518, Note_on_c, 9, 76, 63
11, 47547, Note_off_c, 9, 76, 64
11, 47548, Note_off_c, 9, 62, 64
11, 47755, Note_on_c, 9, 63, 84
11, 47785, Note_off_c, 9, 63, 64
11, 47992, Note_on_c, 9, 70, 87
11, 48003, Note_on_c, 9, 64, 90
11, 48021, Note_off_c, 9, 70, 64
11, 48033, Note_off_c, 9, 64, 64
11, 48230, Note_on_c, 9, 70, 47
11, 48258, Note_off_c, 9, 70, 64
11, 48473, Note_on_c, 9, 64, 75
11, 48502, Note_off_c, 9, 64, 64
11, 48718, Note_on_c, 9, 63, 92
11, 48747, Note_off_c, 9, 63, 64
11, 48960, Note_on_c, 9, 64, 66
11, 48987, Note_off_c, 9, 64, 64
11, 49198, Note_on_c, 9, 63, 77
11, 49228, Note_off_c, 9, 63, 64
11, 49432, Note_on_c, 9, 70, 87
11, 49436, Note_on_c, 9, 64, 81
11, 49461, Note_off_c, 9, 70, 64
11, 49465, Note_off_c, 9, 64, 64
11, 49670, Note_on_c, 9, 70, 47
11, 49698, Note_off_c, 9, 70, 64
11, 49915, Note_on_c, 9, 64, 75
11, 49943, Note_off_c, 9, 64, 64
11, 50158, Note_on_c, 9, 63, 76
11, 50188, Note_off_c, 9, 63, 64
11, 50398, Note_on_c, 9, 62, 86
11, 50428, Note_off_c, 9, 62, 64
11, 50635, Note_on_c, 9, 63, 84
11, 50665, Note_off_c, 9, 63, 64
11, 50872, Note_on_c, 9, 70, 87
11, 50883, Note_on_c, 9, 64, 90
11, 50901, Note_off_c, 9, 70, 64
11, 50913, Note_off_c, 9, 64, 64
11, 51110, Note_on_c, 9, 70, 47
11, 51138, Note_off_c, 9, 70, 64
11, 51353, Note_on_c, 9, 64, 75
11, 51382, Note_off_c, 9, 64, 64
11, 51598, Note_on_c, 9, 63, 92
11, 51627, Note_off_c, 9, 63, 64
11, 51840, Note_on_c, 9, 64, 66
11, 51867, Note_off_c, 9, 64, 64
11, 52078, Note_on_c, 9, 63, 77
11, 52108, Note_off_c, 9, 63, 64
11, 52312, Note_on_c, 9, 70, 87
11, 52316, Note_on_c, 9, 64, 81
11, 52341, Note_off_c, 9, 70, 64
11, 52345, Note_off_c, 9, 64, 64
11, 52550, Note_on_c, 9, 70, 47
11, 52578, Note_off_c, 9, 70, 64
11, 52795, Note_on_c, 9, 64, 75
11, 52823, Note_off_c, 9, 64, 64
11, 53038, Note_on_c, 9, 63, 76
11, 53068, Note_off_c, 9, 63, 64
11, 53278, Note_on_c, 9, 62, 86
11, 53278, Note_on_c, 9, 76, 63
11, 53307, Note_off_c, 9, 76, 64
11, 53308, Note_off_c, 9, 62, 64
11, 53515, Note_on_c, 9, 63, 84
11, 53545, Note_off_c, 9, 63, 64
11, 53752, Note_on_c, 9, 70, 87
11, 53763, Note_on_c, 9, 64, 90
11, 53781, Note_off_c, 9, 70, 64
11, 53793, Note_off_c, 9, 64, 64
11, 53990, Note_on_c, 9, 70, 47
11, 54018, Note_off_c, 9, 70, 64
11, 54233, Note_on_c, 9, 64, 75
11, 54262, Note_off_c, 9, 64, 64
11, 54478, Note_on_c, 9, 63, 92
11, 54507, Note_off_c, 9, 63, 64
11, 54720, Note_on_c, 9, 64, 66
11, 54747, Note_off_c, 9, 64, 64
11, 54958, Note_on_c, 9, 63, 77
11, 54988, Note_off_c, 9, 63, 64
11, 55192, Note_on_c, 9, 70, 87
11, 55196, Note_on_c, 9, 64, 81
11, 55221, Note_off_c, 9, 70, 64
11, 55225, Note_off_c, 9, 64, 64
11, 55430, Note_on_c, 9, 70, 47
11, 55458, Note_off_c, 9, 70, 64
11, 55675, Note_on_c, 9, 64, 75
11, 55703, Note_off_c, 9, 64, 64
11, 55918, Note_on_c, 9, 63, 76
11, 55948, Note_off_c, 9, 63, 64
11, 56158, Note_on_c, 9, 62, 86
11, 56188, Note_off_c, 9, 62, 64
11, 56395, Note_on_c, 9, 63, 84
11, 56425, Note_off_c, 9, 63, 64
11, 56632, Note_on_c, 9, 70, 87
11, 56643, Note_on_c, 9, 64, 90
11, 56661, Note_off_c, 9, 70, 64
11, 56673, Note_off_c, 9, 64, 64
11, 56870, Note_on_c, 9, 70, 47
11, 56898, Note_off_c, 9, 70, 64
11, 57113, Note_on_c, 9, 64, 75
11, 57142, Note_off_c, 9, 64, 64
11, 57358, Note_on_c, 9, 63, 92
11, 57387, Note_off_c, 9, 63, 64
11, 57600, Note_on_c, 9, 64, 66
11, 57627, Note_off_c, 9, 64, 64
11, 57838, Note_on_c, 9, 63, 77
11, 57868, Note_off_c, 9, 63, 64
11, 58072, Note_on_c, 9, 70, 87
11, 58076, Note_on_c, 9, 64, 81
11, 58101, Note_off_c, 9, 70, 64
11, 58105, Note_off_c, 9, 64, 64
11, 58310, Note_on_c, 9, 70, 47
11, 58338, Note_off_c, 9, 70, 64
11, 58555, Note_on_c, 9, 64, 75
11, 58583, Note_off_c, 9, 64, 64
11, 58798, Note_on_c, 9, 63, 76
11, 58828, Note_off_c, 9, 63, 64
11, 59038, Note_on_c, 9, 62, 86
11, 59038, Note_on_c, 9, 76, 63
11, 59067, Note_off_c, 9, 76, 64
11, 59068, Note_off_c, 9, 62, 64
11, 59275, Note_on_c, 9, 63, 84
11, 59305, Note_off_c, 9, 63, 64
11, 59512, Note_on_c, 9, 70, 87
11, 59523, Note_on_c, 9, 64, 90
11, 59541, Note_off_c, 9, 70, 64
11, 59553, Note_off_c, 9, 64, 64
11, 59750, Note_on_c, 9, 70, 47
11, 59778, Note_off_c, 9, 70, 64
11, 59993, Note_on_c, 9, 64, 75
11, 60022, Note_off_c, 9, 64, 64
11, 60238, Note_on_c, 9, 63, 92
11, 60267, Note_off_c, 9, 63, 64
11, 60480, Note_on_c, 9, 64, 66
11, 60507, Note_off_c, 9, 64, 64
11, 60718, Note_on_c, 9, 63, 77
11, 60748, Note_off_c, 9, 63, 64
11, 60952, Note_on_c, 9, 70, 87
11, 60956, Note_on_c, 9, 64, 81
11, 60981, Note_off_c, 9, 70, 64
11, 60985, Note_off_c, 9, 64, 64
11, 61190, Note_on_c, 9, 70, 47
11, 61218, Note_off_c, 9, 70, 64
11, 61435, Note_on_c, 9, 64, 75
11, 61463, Note_off_c, 9, 64, 64
11, 61678, Note_on_c, 9, 63, 76
11, 61708, Note_off_c, 9, 63, 64
11, 61918, Note_on_c, 9, 62, 86
11, 61948, Note_off_c, 9, 62, 64
11, 62155, Note_on_c, 9, 63, 84
11, 62185, Note_off_c, 9, 63, 64
11, 62392, Note_on_c, 9, 70, 87
11, 62403, Note_on_c, 9, 64, 90
11, 62421, Note_off_c, 9, 70, 64
11, 62433, Note_off_c, 9, 64, 64
11, 62630, Note_on_c, 9, 70, 47
11, 62658, Note_off_c, 9, 70, 64
11, 62873, Note_on_c, 9, 64, 75
11, 62902, Note_off_c, 9, 64, 64
11, 63118, Note_on_c, 9, 63, 92
11, 63147, Note_off_c, 9, 63, 64
11, 63360, Note_on_c, 9, 36, 63
11, 63360, Note_on_c, 9, 64, 66
11, 63387, Note_off_c, 9, 64, 64
11, 63388, Note_off_c, 9, 36, 64
11, 63598, Note_on_c, 9, 63, 77
11, 63628, Note_off_c, 9, 63, 64
11, 63832, Note_on_c, 9, 70, 87
11, 63836, Note_on_c, 9, 64, 81
11, 63861, Note_off_c, 9, 70, 64
11, 63865, Note_off_c, 9, 64, 64
11, 64070, Note_on_c, 9, 70, 47
11, 64098, Note_off_c, 9, 70, 64
11, 64315, Note_on_c, 9, 64, 75
11, 64343, Note_off_c, 9, 64, 64
11, 64558, Note_on_c, 9, 63, 76
11, 64588, Note_off_c, 9, 63, 64
11, 64798, Note_on_c, 9, 62, 86
11, 64798, Note_on_c, 9, 76, 63
11, 64827, Note_off_c, 9, 76, 64
11, 64828, Note_off_c, 9, 62, 64
11, 65035, Note_on_c, 9, 63, 84
11, 65065, Note_off_c, 9, 63, 64
11, 65272, Note_on_c, 9, 70, 87
11, 65283, Note_on_c, 9, 64, 90
11, 65301, Note_off_c, 9, 70, 64
11, 65313, Note_off_c, 9, 64, 64
11, 65510, Note_on_c, 9, 70, 47
11, 65538, Note_off_c, 9, 70, 64
11, 65753, Note_on_c, 9, 64, 75
11, 65782, Note_off_c, 9, 64, 64
11, 65998, Note_on_c, 9, 63, 92
11, 66027, Note_off_c, 9, 63, 64
11, 66240, Note_on_c, 9, 64, 66
11, 66267, Note_off_c, 9, 64, 64
11, 66478, Note_on_c, 9, 63, 77
11, 66508, Note_off_c, 9, 63, 64
11, 66712, Note_on_c, 9, 70, 87
11, 66716, Note_on_c, 9, 64, 81
11, 66741, Note_off_c, 9, 70, 64
11, 66745, Note_off_c, 9, 64, 64
11, 66950, Note_on_c, 9, 70, 47
11, 66978, Note_off_c, 9, 70, 64
11, 67195, Note_on_c, 9, 64, 75
11, 67223, Note_off_c, 9, 64, 64
11, 67438, Note_on_c, 9, 63, 76
11, 67468, Note_off_c, 9, 63, 64
11, 67678, Note_on_c, 9, 62, 86
11, 67708, Note_off_c, 9, 62, 64
11, 67915, Note_on_c, 9, 63, 84
11, 67945, Note_off_c, 9, 63, 64
11, 68152, Note_on_c, 9, 70, 87
11, 68163, Note_on_c, 9, 64, 90
11, 68181, Note_off_c, 9, 70, 64
11, 68193, Note_off_c, 9, 64, 64
11, 68390, Note_on_c, 9, 70, 47
11, 68418, Note_off_c, 9, 70, 64
11, 68633, Note_on_c, 9, 64, 75
11, 68662, Note_off_c, 9, 64, 64
11, 68878, Note_on_c, 9, 63, 92
11, 68907, Note_off_c, 9, 63, 64
11, 69120, Note_on_c, 9, 64, 66
11, 69147, Note_off_c, 9, 64, 64
11, 69358, Note_on_c, 9, 63, 77
11, 69388, Note_off_c, 9, 63, 64
11, 69592, Note_on_c, 9, 70, 87
11, 69596, Note_on_c, 9, 64, 81
11, 69621, Note_off_c, 9, 70, 64
11, 69625, Note_off_c, 9, 64, 64
11, 69830, Note_on_c, 9, 70, 47
11, 69858, Note_off_c, 9, 70, 64
11, 70075, Note_on_c, 9, 64, 75
11, 70103, Note_off_c, 9, 64, 64
11, 70318, Note_on_c, 9, 63, 76
11, 70348, Note_off_c, 9, 63, 64
11, 70558, Note_on_c, 9, 62, 86
11, 70558, Note_on_c, 9, 76, 63
11, 70587, Note_off_c, 9, 76, 64
11, 70588, Note_off_c, 9, 62, 64
11, 70795, Note_on_c, 9, 63, 84
11, 70825, Note_off_c, 9, 63, 64
11, 71032, Note_on_c, 9, 70, 87
11, 71043, Note_on_c, 9, 64, 90
11, 71061, Note_off_c, 9, 70, 64
11, 71073, Note_off_c, 9, 64, 64
11, 71270, Note_on_c, 9, 70, 47
11, 71298, Note_off_c, 9, 70, 64
11, 71513, Note_on_c, 9, 64, 75
11, 71542, Note_off_c, 9, 64, 64
11, 71758, Note_on_c, 9, 63, 92
11, 71787, Note_off_c, 9, 63, 64
11, 72000, Note_on_c, 9, 64, 66
11, 72027, Note_off_c, 9, 64, 64
11, 72238, Note_on_c, 9, 63, 77
11, 72268, Note_off_c, 9, 63, 64
11, 72472, Note_on_c, 9, 70, 87
11, 72476, Note_on_c, 9, 64, 81
11, 72501, Note_off_c, 9, 70, 64
11, 72505, Note_off_c, 9, 64, 64
11, 72710, Note_on_c, 9, 70, 47
11, 72738, Note_off_c, 9, 70, 64
11, 72955, Note_on_c, 9, 64, 75
11, 72983, Note_off_c, 9, 64, 64
11, 73198, Note_on_c, 9, 63, 76
11, 73228, Note_off_c, 9, 63, 64
11, 73438, Note_on_c, 9, 62, 86
11, 73468, Note_off_c, 9, 62, 64
11, 73675, Note_on_c, 9, 63, 84
11, 73705, Note_off_c, 9, 63, 64
11, 73912, Note_on_c, 9, 70, 87
11, 73923, Note_on_c, 9, 64, 90
11, 73941, Note_off_c, 9, 70, 64
11, 73953, Note_off_c, 9, 64, 64
11, 74150, Note_on_c, 9, 70, 47
11, 74178, Note_off_c, 9, 70, 64
11, 74393, Note_on_c, 9, 64, 75
11, 74422, Note_off_c, 9, 64, 64
11, 74638, Note_on_c, 9, 63, 92
11, 74667, Note_off_c, 9, 63, 64
11, 74880, Note_on_c, 9, 64, 66
11, 74907, Note_off_c, 9, 64, 64
11, 75118, Note_on_c, 9, 63, 77
11, 75148, Note_off_c, 9, 63, 64
11, 75352, Note_on_c, 9, 70, 87
11, 75356, Note_on_c, 9, 64, 81
11, 75381, Note_off_c, 9, 70, 64
11, 75385, Note_off_c, 9, 64, 64
11, 75590, Note_on_c, 9, 70, 47
11, 75618, Note_off_c, 9, 70, 64
11, 75835, Note_on_c, 9, 64, 75
11, 75863, Note_off_c, 9, 64, 64
11, 76078, Note_on_c, 9, 63, 76
11, 76108, Note_off_c, 9, 63, 64
11, 76318, Note_on_c, 9, 62, 86
11, 76318, Note_on_c, 9, 76, 63
11, 76347, Note_off_c, 9, 76, 64
11, 76348, Note_off_c, 9, 62, 64
11, 76555, Note_on_c, 9, 63, 84
11, 76585, Note_off_c, 9, 63, 64
11, 76792, Note_on_c, 9, 70, 87
11, 76803, Note_on_c, 9, 64, 90
11, 76821, Note_off_c, 9, 70, 64
11, 76833, Note_off_c, 9, 64, 64
11, 77030, Note_on_c, 9, 70, 47
11, 77058, Note_off_c, 9, 70, 64
11, 77273, Note_on_c, 9, 64, 75
11, 77278, Note_on_c, 9, 45, 112
11, 77302, Note_off_c, 9, 64, 64
11, 77307, Note_off_c, 9, 45, 64
11, 77515, Note_on_c, 9, 41, 105
11, 77518, Note_on_c, 9, 63, 92
11, 77545, Note_off_c, 9, 41, 64
11, 77547, Note_off_c, 9, 63, 64
11, 77760, Note_on_c, 9, 49, 85
11, 77760, Note_on_c, 9, 64, 66
11, 77761, Note_on_c, 9, 36, 91
11, 77787, Note_off_c, 9, 64, 64
11, 77788, Note_off_c, 9, 49, 64
11, 77791, Note_off_c, 9, 36, 64
11, 77998, Note_on_c, 9, 63, 77
11, 78028, Note_off_c, 9, 63, 64
11, 78232, Note_on_c, 9, 70, 87
11, 78236, Note_on_c, 9, 64, 81
11, 78237, Note_on_c, 9, 42, 86
11, 78261, Note_off_c, 9, 70, 64
11, 78265, Note_off_c, 9, 64, 64
11, 78267, Note_off_c, 9, 42, 64
11, 78470, Note_on_c, 9, 70, 47
11, 78478, Note_on_c, 9, 40, 102
11, 78478, Note_on_c, 9, 42, 92
11, 78498, Note_off_c, 9, 70, 64
11, 78507, Note_off_c, 9, 40, 64
11, 78508, Note_off_c, 9, 42, 64
11, 78715, Note_on_c, 9, 64, 75
11, 78718, Note_on_c, 9, 42, 86
11, 78743, Note_off_c, 9, 64, 64
11, 78747, Note_off_c, 9, 42, 64
11, 78957, Note_on_c, 9, 36, 69
11, 78957, Note_on_c, 9, 42, 92
11, 78958, Note_on_c, 9, 63, 76
11, 78987, Note_off_c, 9, 42, 64
11, 78987, Note_off_c, 9, 36, 64
11, 78988, Note_off_c, 9, 63, 64
11, 79197, Note_on_c, 9, 42, 92
11, 79198, Note_on_c, 9, 36, 92
11, 79198, Note_on_c, 9, 62, 86
11, 79227, Note_off_c, 9, 36, 64
11, 79227, Note_off_c, 9, 42, 64
11, 79228, Note_off_c, 9, 62, 64
11, 79435, Note_on_c, 9, 63, 84
11, 79441, Note_on_c, 9, 42, 90
11, 79465, Note_off_c, 9, 63, 64
11, 79470, Note_off_c, 9, 42, 64
11, 79672, Note_on_c, 9, 70, 87
11, 79676, Note_on_c, 9, 42, 85
11, 79683, Note_on_c, 9, 64, 90
11, 79701, Note_off_c, 9, 70, 64
11, 79706, Note_off_c, 9, 42, 64
11, 79713, Note_off_c, 9, 64, 64
11, 79910, Note_on_c, 9, 70, 47
11, 79917, Note_on_c, 9, 42, 92
11, 79921, Note_on_c, 9, 40, 102
11, 79938, Note_off_c, 9, 70, 64
11, 79947, Note_off_c, 9, 42, 64
11, 79951, Note_off_c, 9, 40, 64
11, 80153, Note_on_c, 9, 64, 75
11, 80158, Note_on_c, 9, 42, 49
11, 80182, Note_off_c, 9, 64, 64
11, 80187, Note_off_c, 9, 42, 64
11, 80396, Note_on_c, 9, 42, 91
11, 80398, Note_on_c, 9, 63, 92
11, 80425, Note_off_c, 9, 42, 64
11, 80427, Note_off_c, 9, 63, 64
11, 80640, Note_on_c, 9, 64, 66
11, 80641, Note_on_c, 9, 36, 91
11, 80642, Note_on_c, 9, 42, 80
11, 80667, Note_off_c, 9, 64, 64
11, 80671, Note_off_c, 9, 36, 64
11, 80671, Note_off_c, 9, 42, 64
11, 80878, Note_on_c, 9, 42, 88
11, 80878, Note_on_c, 9, 63, 77
11, 80907, Note_off_c, 9, 42, 64
11, 80908, Note_off_c, 9, 63, 64
11, 81112, Note_on_c, 9, 70, 87
11, 81116, Note_on_c, 9, 64, 81
11, 81117, Note_on_c, 9, 42, 86
11, 81141, Note_off_c, 9, 70, 64
11, 81145, Note_off_c, 9, 64, 64
11, 81147, Note_off_c, 9, 42, 64
11, 81350, Note_on_c, 9, 70, 47
11, 81358, Note_on_c, 9, 40, 102
11, 81358, Note_on_c, 9, 42, 92
11, 81378, Note_off_c, 9, 70, 64
11, 81387, Note_off_c, 9, 40, 64
11, 81388, Note_off_c, 9, 42, 64
11, 81595, Note_on_c, 9, 64, 75
11, 81598, Note_on_c, 9, 42, 86
11, 81623, Note_off_c, 9, 64, 64
11, 81627, Note_off_c, 9, 42, 64
11, 81837, Note_on_c, 9, 36, 69
11, 81837, Note_on_c, 9, 42, 92
11, 81838, Note_on_c, 9, 63, 76
11, 81867, Note_off_c, 9, 42, 64
11, 81867, Note_off_c, 9, 36, 64
11, 81868, Note_off_c, 9, 63, 64
11, 82077, Note_on_c, 9, 42, 92
11, 82078, Note_on_c, 9, 36, 92
11, 82078, Note_on_c, 9, 62, 86
11, 82078, Note_on_c, 9, 76, 63
11, 82107, Note_off_c, 9, 76, 64
11, 82107, Note_off_c, 9, 36, 64
11, 82107, Note_off_c, 9, 42, 64
11, 82108, Note_off_c, 9, 62, 64
11, 82315, Note_on_c, 9, 63, 84
11, 82321, Note_on_c, 9, 42, 90
11, 82345, Note_off_c, 9, 63, 64
11, 82350, Note_off_c, 9, 42, 64
11, 82552, Note_on_c, 9, 70, 87
11, 82556, Note_on_c, 9, 42, 85
11, 82563, Note_on_c, 9, 64, 90
11, 82581, Note_off_c, 9, 70, 64
11, 82586, Note_off_c, 9, 42, 64
11, 82593, Note_off_c, 9, 64, 64
11, 82790, Note_on_c, 9, 70, 47
11, 82797, Note_on_c, 9, 42, 92
11, 82801, Note_on_c, 9, 40, 102
11, 82818, Note_off_c, 9, 70, 64
11, 82827, Note_off_c, 9, 42, 64
11, 82831, Note_off_c, 9, 40, 64
11, 83033, Note_on_c, 9, 64, 75
11, 83038, Note_on_c, 9, 42, 49
11, 83062, Note_off_c, 9, 64, 64
11, 83067, Note_off_c, 9, 42, 64
11, 83276, Note_on_c, 9, 42, 91
11, 83278, Note_on_c, 9, 63, 92
11, 83305, Note_off_c, 9, 42, 64
11, 83307, Note_off_c, 9, 63, 64
11, 83520, Note_on_c, 9, 64, 66
11, 83521, Note_on_c, 9, 36, 91
11, 83522, Note_on_c, 9, 42, 80
11, 83547, Note_off_c, 9, 64, 64
11, 83551, Note_off_c, 9, 36, 64
11, 83551, Note_off_c, 9, 42, 64
11, 83758, Note_on_c, 9, 42, 88
11, 83758, Note_on_c, 9, 63, 77
11, 83787, Note_off_c, 9, 42, 64
11, 83788, Note_off_c, 9, 63, 64
11, 83992, Note_on_c, 9, 70, 87
11, 83996, Note_on_c, 9, 64, 81
11, 83997, Note_on_c, 9, 42, 86
11, 84021, Note_off_c, 9, 70, 64
11, 84025, Note_off_c, 9, 64, 64
11, 84027, Note_off_c, 9, 42, 64
11, 84230, Note_on_c, 9, 70, 47
11, 84238, Note_on_c, 9, 40, 102
11, 84238, Note_on_c, 9, 42, 92
11, 84258, Note_off_c, 9, 70, 64
11, 84267, Note_off_c, 9, 40, 64
11, 84268, Note_off_c, 9, 42, 64
11, 84475, Note_on_c, 9, 64, 75
11, 84478, Note_on_c, 9, 42, 86
11, 84503, Note_off_c, 9, 64, 64
11, 84507, Note_off_c, 9, 42, 64
11, 84717, Note_on_c, 9, 36, 69
11, 84717, Note_on_c, 9, 42, 92
11, 84718, Note_on_c, 9, 63, 76
11, 84747, Note_off_c, 9, 42, 64
11, 84747, Note_off_c, 9, 36, 64
11, 84748, Note_off_c, 9, 63, 64
11, 84957, Note_on_c, 9, 42, 92
11, 84958, Note_on_c, 9, 36, 92
11, 84958, Note_on_c, 9, 62, 86
11, 84987, Note_off_c, 9, 36, 64
11, 84987, Note_off_c, 9, 42, 64
11, 84988, Note_off_c, 9, 62, 64
11, 85195, Note_on_c, 9, 63, 84
11, 85201, Note_on_c, 9, 42, 90
11, 85225, Note_off_c, 9, 63, 64
11, 85230, Note_off_c, 9, 42, 64
11, 85432, Note_on_c, 9, 70, 87
11, 85436, Note_on_c, 9, 42, 85
11, 85443, Note_on_c, 9, 64, 90
11, 85461, Note_off_c, 9, 70, 64
11, 85466, Note_off_c, 9, 42, 64
11, 85473, Note_off_c, 9, 64, 64
11, 85670, Note_on_c, 9, 70, 47
11, 85677, Note_on_c, 9, 42, 92
11, 85681, Note_on_c, 9, 40, 102
11, 85698, Note_off_c, 9, 70, 64
11, 85707, Note_off_c, 9, 42, 64
11, 85711, Note_off_c, 9, 40, 64
11, 85913, Note_on_c, 9, 64, 75
11, 85918, Note_on_c, 9, 42, 49
11, 85942, Note_off_c, 9, 64, 64
11, 85947, Note_off_c, 9, 42, 64
11, 86156, Note_on_c, 9, 42, 91
11, 86158, Note_on_c, 9, 63, 92
11, 86185, Note_off_c, 9, 42, 64
11, 86187, Note_off_c, 9, 63, 64
11, 86400, Note_on_c, 9, 64, 66
11, 86401, Note_on_c, 9, 36, 91
11, 86402, Note_on_c, 9, 42, 80
11, 86427, Note_off_c, 9, 64, 64
11, 86431, Note_off_c, 9, 36, 64
11, 86431, Note_off_c, 9, 42, 64
11, 86638, Note_on_c, 9, 42, 88
11, 86638, Note_on_c, 9, 63, 77
11, 86667, Note_off_c, 9, 42, 64
11, 86668, Note_off_c, 9, 63, 64
11, 86872, Note_on_c, 9, 70, 87
11, 86876, Note_on_c, 9, 64, 81
11, 86877, Note_on_c, 9, 42, 86
11, 86901, Note_off_c, 9, 70, 64
11, 86905, Note_off_c, 9, 64, 64
11, 86907, Note_off_c, 9, 42, 64
11, 87110, Note_on_c, 9, 70, 47
11, 87118, Note_on_c, 9, 40, 102
11, 87118, Note_on_c, 9, 42, 92
11, 87138, Note_off_c, 9, 70, 64
11, 87147, Note_off_c, 9, 40, 64
11, 87148, Note_off_c, 9, 42, 64
11, 87355, Note_on_c, 9, 64, 75
11, 87358, Note_on_c, 9, 42, 86
11, 87383, Note_off_c, 9, 64, 64
11, 87387, Note_off_c, 9, 42, 64
11, 87597, Note_on_c, 9, 36, 69
11, 87597, Note_on_c, 9, 42, 92
11, 87598, Note_on_c, 9, 63, 76
11, 87627, Note_off_c, 9, 42, 64
11, 87627, Note_off_c, 9, 36, 64
11, 87628, Note_off_c, 9, 63, 64
11, 87837, Note_on_c, 9, 42, 92
11, 87838, Note_on_c, 9, 36, 92
11, 87838, Note_on_c, 9, 62, 86
11, 87838, Note_on_c, 9, 76, 63
11, 87867, Note_off_c, 9, 76, 64
11, 87867, Note_off_c, 9, 36, 64
11, 87867, Note_off_c, 9, 42, 64
11, 87868, Note_off_c, 9, 62, 64
11, 88075, Note_on_c, 9, 63, 84
11, 88081, Note_on_c, 9, 42, 90
11, 88105, Note_off_c, 9, 63, 64
11, 88110, Note_off_c, 9, 42, 64
11, 88312, Note_on_c, 9, 70, 87
11, 88316, Note_on_c, 9, 42, 85
11, 88323, Note_on_c, 9, 64, 90
11, 88341, Note_off_c, 9, 70, 64
11, 88346, Note_off_c, 9, 42, 64
11, 88353, Note_off_c, 9, 64, 64
11, 88550, Note_on_c, 9, 70, 47
11, 88557, Note_on_c, 9, 42, 92
11, 88561, Note_on_c, 9, 40, 102
11, 88578, Note_off_c, 9, 70, 64
11, 88587, Note_off_c, 9, 42, 64
11, 88591, Note_off_c, 9, 40, 64
11, 88793, Note_on_c, 9, 64, 75
11, 88798, Note_on_c, 9, 42, 49
11, 88822, Note_off_c, 9, 64, 64
11, 88827, Note_off_c, 9, 42, 64
11, 89033, Note_on_c, 9, 41, 112
11, 89036, Note_on_c, 9, 42, 91
11, 89037, Note_on_c, 9, 36, 92
11, 89038, Note_on_c, 9, 63, 92
11, 89063, Note_off_c, 9, 41, 64
11, 89065, Note_off_c, 9, 42, 64
11, 89066, Note_off_c, 9, 36, 64
11, 89067, Note_off_c, 9, 63, 64
11, 89280, Note_on_c, 9, 64, 66
11, 89281, Note_on_c, 9, 36, 91
11, 89281, Note_on_c, 9, 42, 80
11, 89307, Note_off_c, 9, 64, 64
11, 89310, Note_off_c, 9, 42, 64
11, 89311, Note_off_c, 9, 36, 64
11, 89518, Note_on_c, 9, 42, 88
11, 89518, Note_on_c, 9, 63, 77
11, 89547, Note_off_c, 9, 42, 64
11, 89548, Note_off_c, 9, 63, 64
11, 89752, Note_on_c, 9, 70, 87
11, 89756, Note_on_c, 9, 64, 81
11, 89758, Note_on_c, 9, 42, 86
11, 89781, Note_off_c, 9, 70, 64
11, 89785, Note_off_c, 9, 64, 64
11, 89788, Note_off_c, 9, 42, 64
11, 89990, Note_on_c, 9, 70, 47
11, 89997, Note_on_c, 9, 40, 102
11, 89998, Note_on_c, 9, 42, 92
11, 90018, Note_off_c, 9, 70, 64
11, 90026, Note_off_c, 9, 40, 64
11, 90028, Note_off_c, 9, 42, 64
11, 90235, Note_on_c, 9, 64, 75
11, 90238, Note_on_c, 9, 42, 86
11, 90263, Note_off_c, 9, 64, 64
11, 90267, Note_off_c, 9, 42, 64
11, 90477, Note_on_c, 9, 36, 69
11, 90478, Note_on_c, 9, 42, 92
11, 90478, Note_on_c, 9, 63, 76
11, 90507, Note_off_c, 9, 36, 64
11, 90508, Note_off_c, 9, 42, 64
11, 90508, Note_off_c, 9, 63, 64
11, 90718, Note_on_c, 9, 36, 92
11, 90718, Note_on_c, 9, 42, 92
11, 90718, Note_on_c, 9, 62, 86
11, 90747, Note_off_c, 9, 36, 64
11, 90748, Note_off_c, 9, 42, 64
11, 90748, Note_off_c, 9, 62, 64
11, 90955, Note_on_c, 9, 63, 84
11, 90961, Note_on_c, 9, 42, 90
11, 90985, Note_off_c, 9, 63, 64
11, 90990, Note_off_c, 9, 42, 64
11, 91192, Note_on_c, 9, 70, 87
11, 91198, Note_on_c, 9, 42, 85
11, 91203, Note_on_c, 9, 64, 90
11, 91221, Note_off_c, 9, 70, 64
11, 91228, Note_off_c, 9, 42, 64
11, 91233, Note_off_c, 9, 64, 64
11, 91430, Note_on_c, 9, 70, 47
11, 91437, Note_on_c, 9, 40, 102
11, 91438, Note_on_c, 9, 42, 92
11, 91458, Note_off_c, 9, 70, 64
11, 91467, Note_off_c, 9, 40, 64
11, 91468, Note_off_c, 9, 42, 64
11, 91673, Note_on_c, 9, 64, 75
11, 91678, Note_on_c, 9, 42, 49
11, 91702, Note_off_c, 9, 64, 64
11, 91707, Note_off_c, 9, 42, 64
11, 91918, Note_on_c, 9, 42, 91
11, 91918, Note_on_c, 9, 63, 92
11, 91947, Note_off_c, 9, 63, 64
11, 91947, Note_off_c, 9, 42, 64
11, 92160, Note_on_c, 9, 64, 66
11, 92161, Note_on_c, 9, 36, 91
11, 92161, Note_on_c, 9, 42, 80
11, 92187, Note_off_c, 9, 64, 64
11, 92190, Note_off_c, 9, 42, 64
11, 92191, Note_off_c, 9, 36, 64
11, 92398, Note_on_c, 9, 42, 88
11, 92398, Note_on_c, 9, 63, 77
11, 92427, Note_off_c, 9, 42, 64
11, 92428, Note_off_c, 9, 63, 64
11, 92632, Note_on_c, 9, 70, 87
11, 92636, Note_on_c, 9, 64, 81
11, 92638, Note_on_c, 9, 42, 86
11, 92661, Note_off_c, 9, 70, 64
11, 92665, Note_off_c, 9, 64, 64
11, 92668, Note_off_c, 9, 42, 64
11, 92870, Note_on_c, 9, 70, 47
11, 92877, Note_on_c, 9, 40, 102
11, 92878, Note_on_c, 9, 42, 92
11, 92898, Note_off_c, 9, 70, 64
11, 92906, Note_off_c, 9, 40, 64
11, 92908, Note_off_c, 9, 42, 64
11, 93115, Note_on_c, 9, 64, 75
11, 93118, Note_on_c, 9, 42, 86
11, 93143, Note_off_c, 9, 64, 64
11, 93147, Note_off_c, 9, 42, 64
11, 93357, Note_on_c, 9, 36, 69
11, 93358, Note_on_c, 9, 42, 92
11, 93358, Note_on_c, 9, 63, 76
11, 93387, Note_off_c, 9, 36, 64
11, 93388, Note_off_c, 9, 42, 64
11, 93388, Note_off_c, 9, 63, 64
11, 93598, Note_on_c, 9, 36, 92
11, 93598, Note_on_c, 9, 42, 92
11, 93598, Note_on_c, 9, 62, 86
11, 93598, Note_on_c, 9, 76, 63
11, 93627, Note_off_c, 9, 76, 64
11, 93627, Note_off_c, 9, 36, 64
11, 93628, Note_off_c, 9, 42, 64
11, 93628, Note_off_c, 9, 62, 64
11, 93835, Note_on_c, 9, 63, 84
11, 93841, Note_on_c, 9, 42, 90
11, 93865, Note_off_c, 9, 63, 64
11, 93870, Note_off_c, 9, 42, 64
11, 94072, Note_on_c, 9, 70, 87
11, 94078, Note_on_c, 9, 42, 85
11, 94083, Note_on_c, 9, 64, 90
11, 94101, Note_off_c, 9, 70, 64
11, 94108, Note_off_c, 9, 42, 64
11, 94113, Note_off_c, 9, 64, 64
11, 94310, Note_on_c, 9, 70, 47
11, 94317, Note_on_c, 9, 40, 102
11, 94318, Note_on_c, 9, 42, 92
11, 94338, Note_off_c, 9, 70, 64
11, 94347, Note_off_c, 9, 40, 64
11, 94348, Note_off_c, 9, 42, 64
11, 94553, Note_on_c, 9, 64, 75
11, 94558, Note_on_c, 9, 42, 49
11, 94582, Note_off_c, 9, 64, 64
11, 94587, Note_off_c, 9, 42, 64
11, 94798, Note_on_c, 9, 42, 91
11, 94798, Note_on_c, 9, 63, 92
11, 94827, Note_off_c, 9, 63, 64
11, 94827, Note_off_c, 9, 42, 64
11, 95040, Note_on_c, 9, 64, 66
11, 95041, Note_on_c, 9, 36, 91
11, 95041, Note_on_c, 9, 42, 80
11, 95067, Note_off_c, 9, 64, 64
11, 95070, Note_off_c, 9, 42, 64
11, 95071, Note_off_c, 9, 36, 64
11, 95278, Note_on_c, 9, 42, 88
11, 95278, Note_on_c, 9, 63, 77
11, 95307, Note_off_c, 9, 42, 64
11, 95308, Note_off_c, 9, 63, 64
11, 95512, Note_on_c, 9, 70, 87
11, 95516, Note_on_c, 9, 64, 81
11, 95518, Note_on_c, 9, 42, 86
11, 95541, Note_off_c, 9, 70, 64
11, 95545, Note_off_c, 9, 64, 64
11, 95548, Note_off_c, 9, 42, 64
11, 95750, Note_on_c, 9, 70, 47
11, 95757, Note_on_c, 9, 40, 102
11, 95758, Note_on_c, 9, 42, 92
11, 95778, Note_off_c, 9, 70, 64
11, 95786, Note_off_c, 9, 40, 64
11, 95788, Note_off_c, 9, 42, 64
11, 95995, Note_on_c, 9, 64, 75
11, 95998, Note_on_c, 9, 42, 86
11, 96023, Note_off_c, 9, 64, 64
11, 96027, Note_off_c, 9, 42, 64
11, 96237, Note_on_c, 9, 36, 69
11, 96238, Note_on_c, 9, 42, 92
11, 96238, Note_on_c, 9, 63, 76
11, 96267, Note_off_c, 9, 36, 64
11, 96268, Note_off_c, 9, 42, 64
11, 96268, Note_off_c, 9, 63, 64
11, 96478, Note_on_c, 9, 36, 92
11, 96478, Note_on_c, 9, 42, 92
11, 96478, Note_on_c, 9, 62, 86
11, 96507, Note_off_c, 9, 36, 64
11, 96508, Note_off_c, 9, 42, 64
11, 96508, Note_off_c, 9, 62, 64
11, 96715, Note_on_c, 9, 63, 84
11, 96721, Note_on_c, 9, 42, 90
11, 96745, Note_off_c, 9, 63, 64
11, 96750, Note_off_c, 9, 42, 64
11, 96952, Note_on_c, 9, 70, 87
11, 96958, Note_on_c, 9, 42, 85
11, 96963, Note_on_c, 9, 64, 90
11, 96981, Note_off_c, 9, 70, 64
11, 96988, Note_off_c, 9, 42, 64
11, 96993, Note_off_c, 9, 64, 64
11, 97190, Note_on_c, 9, 70, 47
11, 97197, Note_on_c, 9, 40, 102
11, 97198, Note_on_c, 9, 42, 92
11, 97218, Note_off_c, 9, 70, 64
11, 97227, Note_off_c, 9, 40, 64
11, 97228, Note_off_c, 9, 42, 64
11, 97433, Note_on_c, 9, 64, 75
11, 97438, Note_on_c, 9, 42, 49
11, 97462, Note_off_c, 9, 64, 64
11, 97467, Note_off_c, 9, 42, 64
11, 97678, Note_on_c, 9, 42, 91
11, 97678, Note_on_c, 9, 63, 92
11, 97707, Note_off_c, 9, 63, 64
11, 97707, Note_off_c, 9, 42, 64
11, 97920, Note_on_c, 9, 64, 66
11, 97921, Note_on_c, 9, 36, 91
11, 97921, Note_on_c, 9, 42, 80
11, 97947, Note_off_c, 9, 64, 64
11, 97950, Note_off_c, 9, 42, 64
11, 97951, Note_off_c, 9, 36, 64
11, 98158, Note_on_c, 9, 42, 88
11, 98158, Note_on_c, 9, 63, 77
11, 98187, Note_off_c, 9, 42, 64
11, 98188, Note_off_c, 9, 63, 64
11, 98392, Note_on_c, 9, 70, 87
11, 98396, Note_on_c, 9, 64, 81
11, 98398, Note_on_c, 9, 42, 86
11, 98421, Note_off_c, 9, 70, 64
11, 98425, Note_off_c, 9, 64, 64
11, 98428, Note_off_c, 9, 42, 64
11, 98630, Note_on_c, 9, 70, 47
11, 98637, Note_on_c, 9, 40, 102
11, 98638, Note_on_c, 9, 42, 92
11, 98658, Note_off_c, 9, 70, 64
11, 98666, Note_off_c, 9, 40, 64
11, 98668, Note_off_c, 9, 42, 64
11, 98875, Note_on_c, 9, 64, 75
11, 98878, Note_on_c, 9, 42, 86
11, 98903, Note_off_c, 9, 64, 64
11, 98907, Note_off_c, 9, 42, 64
11, 99117, Note_on_c, 9, 36, 69
11, 99118, Note_on_c, 9, 42, 92
11, 99118, Note_on_c, 9, 63, 76
11, 99147, Note_off_c, 9, 36, 64
11, 99148, Note_off_c, 9, 42, 64
11, 99148, Note_off_c, 9, 63, 64
11, 99358, Note_on_c, 9, 36, 92
11, 99358, Note_on_c, 9, 42, 92
11, 99358, Note_on_c, 9, 62, 86
11, 99358, Note_on_c, 9, 76, 63
11, 99387, Note_off_c, 9, 76, 64
11, 99387, Note_off_c, 9, 36, 64
11, 99388, Note_off_c, 9, 42, 64
11, 99388, Note_off_c, 9, 62, 64
11, 99595, Note_on_c, 9, 63, 84
11, 99601, Note_on_c, 9, 42, 90
11, 99625, Note_off_c, 9, 63, 64
11, 99630, Note_off_c, 9, 42, 64
11, 99832, Note_on_c, 9, 70, 87
11, 99838, Note_on_c, 9, 42, 85
11, 99843, Note_on_c, 9, 64, 90
11, 99861, Note_off_c, 9, 70, 64
11, 99868, Note_off_c, 9, 42, 64
11, 99873, Note_off_c, 9, 64, 64
11, 100070, Note_on_c, 9, 70, 47
11, 100077, Note_on_c, 9, 40, 102
11, 100078, Note_on_c, 9, 42, 92
11, 100098, Note_off_c, 9, 70, 64
11, 100107, Note_off_c, 9, 40, 64
11, 100108, Note_off_c, 9, 42, 64
11, 100313, Note_on_c, 9, 64, 75
11, 100318, Note_on_c, 9, 42, 49
11, 100342, Note_off_c, 9, 64, 64
11, 100347, Note_off_c, 9, 42, 64
11, 100557, Note_on_c, 9, 36, 92
11, 100558, Note_on_c, 9, 42, 91
11, 100558, Note_on_c, 9, 63, 92
11, 100558, Note_on_c, 9, 84, 81
11, 100586, Note_off_c, 9, 36, 64
11, 100587, Note_off_c, 9, 42, 64
11, 100587, Note_off_c, 9, 63, 64
11, 100587, Note_off_c, 9, 84, 64
11, 100800, Note_on_c, 9, 49, 85
11, 100800, Note_on_c, 9, 64, 66
11, 100801, Note_on_c, 9, 36, 91
11, 100827, Note_off_c, 9, 64, 64
11, 100828, Note_off_c, 9, 49, 64
11, 100831, Note_off_c, 9, 36, 64
11, 101038, Note_on_c, 9, 63, 77
11, 101068, Note_off_c, 9, 63, 64
11, 101272, Note_on_c, 9, 70, 87
11, 101276, Note_on_c, 9, 64, 81
11, 101277, Note_on_c, 9, 42, 86
11, 101301, Note_off_c, 9, 70, 64
11, 101305, Note_off_c, 9, 64, 64
11, 101307, Note_off_c, 9, 42, 64
11, 101510, Note_on_c, 9, 70, 47
11, 101518, Note_on_c, 9, 40, 102
11, 101518, Note_on_c, 9, 42, 92
11, 101538, Note_off_c, 9, 70, 64
11, 101547, Note_off_c, 9, 40, 64
11, 101548, Note_off_c, 9, 42, 64
11, 101755, Note_on_c, 9, 64, 75
11, 101758, Note_on_c, 9, 42, 86
11, 101783, Note_off_c, 9, 64, 64
11, 101787, Note_off_c, 9, 42, 64
11, 101997, Note_on_c, 9, 36, 69
11, 101997, Note_on_c, 9, 42, 92
11, 101998, Note_on_c, 9, 63, 76
11, 102027, Note_off_c, 9, 42, 64
11, 102027, Note_off_c, 9, 36, 64
11, 102028, Note_off_c, 9, 63, 64
11, 102237, Note_on_c, 9, 42, 92
11, 102238, Note_on_c, 9, 36, 92
11, 102238, Note_on_c, 9, 62, 86
11, 102267, Note_off_c, 9, 36, 64
11, 102267, Note_off_c, 9, 42, 64
11, 102268, Note_off_c, 9, 62, 64
11, 102475, Note_on_c, 9, 63, 84
11, 102481, Note_on_c, 9, 42, 90
11, 102505, Note_off_c, 9, 63, 64
11, 102510, Note_off_c, 9, 42, 64
11, 102712, Note_on_c, 9, 70, 87
11, 102716, Note_on_c, 9, 42, 85
11, 102723, Note_on_c, 9, 64, 90
11, 102741, Note_off_c, 9, 70, 64
11, 102746, Note_off_c, 9, 42, 64
11, 102753, Note_off_c, 9, 64, 64
11, 102950, Note_on_c, 9, 70, 47
11, 102957, Note_on_c, 9, 42, 92
11, 102961, Note_on_c, 9, 40, 102
11, 102978, Note_off_c, 9, 70, 64
11, 102987, Note_off_c, 9, 42, 64
11, 102991, Note_off_c, 9, 40, 64
11, 103193, Note_on_c, 9, 64, 75
11, 103198, Note_on_c, 9, 42, 49
11, 103222, Note_off_c, 9, 64, 64
11, 103227, Note_off_c, 9, 42, 64
11, 103436, Note_on_c, 9, 42, 91
11, 103438, Note_on_c, 9, 63, 92
11, 103465, Note_off_c, 9, 42, 64
11, 103467, Note_off_c, 9, 63, 64
11, 103680, Note_on_c, 9, 64, 66
11, 103681, Note_on_c, 9, 36, 91
11, 103681, Note_on_c, 9, 42, 80
11, 103707, Note_off_c, 9, 64, 64
11, 103710, Note_off_c, 9, 42, 64
11, 103711, Note_off_c, 9, 36, 64
11, 103918, Note_on_c, 9, 42, 88
11, 103918, Note_on_c, 9, 63, 77
11, 103947, Note_off_c, 9, 42, 64
11, 103948, Note_off_c, 9, 63, 64
11, 104152, Note_on_c, 9, 70, 87
11, 104156, Note_on_c, 9, 64, 81
11, 104158, Note_on_c, 9, 42, 86
11, 104181, Note_off_c, 9, 70, 64
11, 104185, Note_off_c, 9, 64, 64
11, 104188, Note_off_c, 9, 42, 64
11, 104390, Note_on_c, 9, 70, 47
11, 104397, Note_on_c, 9, 40, 102
11, 104398, Note_on_c, 9, 42, 92
11, 104418, Note_off_c, 9, 70, 64
11, 104426, Note_off_c, 9, 40, 64
11, 104428, Note_off_c, 9, 42, 64
11, 104635, Note_on_c, 9, 64, 75
11, 104638, Note_on_c, 9, 42, 86
11, 104663, Note_off_c, 9, 64, 64
11, 104667, Note_off_c, 9, 42, 64
11, 104877, Note_on_c, 9, 36, 69
11, 104878, Note_on_c, 9, 42, 92
11, 104878, Note_on_c, 9, 63, 76
11, 104907, Note_off_c, 9, 36, 64
11, 104908, Note_off_c, 9, 42, 64
11, 104908, Note_off_c, 9, 63, 64
11, 105118, Note_on_c, 9, 36, 92
11, 105118, Note_on_c, 9, 42, 92
11, 105118, Note_on_c, 9, 62, 86
11, 105118, Note_on_c, 9, 76, 63
11, 105147, Note_off_c, 9, 76, 64
11, 105147, Note_off_c, 9, 36, 64
11, 105148, Note_off_c, 9, 42, 64
11, 105148, Note_off_c, 9, 62, 64
11, 105355, Note_on_c, 9, 63, 84
11, 105361, Note_on_c, 9, 42, 90
11, 105385, Note_off_c, 9, 63, 64
11, 105390, Note_off_c, 9, 42, 64
11, 105525, Note_on_c, 9, 77, 15
11, 105533, Note_off_c, 9, 77, 64
11, 105555, Note_on_c, 9, 77, 15
11, 105563, Note_off_c, 9, 77, 64
11, 105592, Note_on_c, 9, 70, 87
11, 105598, Note_on_c, 9, 42, 85
11, 105602, Note_on_c, 9, 77, 47
11, 105603, Note_on_c, 9, 64, 90
11, 105621, Note_off_c, 9, 70, 64
11, 105628, Note_off_c, 9, 42, 64
11, 105631, Note_off_c, 9, 77, 64
11, 105633, Note_off_c, 9, 64, 64
11, 105753, Note_on_c, 9, 77, 92
11, 105766, Note_off_c, 9, 77, 64
11, 105795, Note_on_c, 9, 77, 85
11, 105806, Note_off_c, 9, 77, 64
11, 105830, Note_on_c, 9, 70, 47
11, 105833, Note_on_c, 9, 77, 92
11, 105837, Note_on_c, 9, 40, 102
11, 105838, Note_on_c, 9, 42, 92
11, 105858, Note_off_c, 9, 70, 64
11, 105861, Note_off_c, 9, 77, 64
11, 105867, Note_off_c, 9, 40, 64
11, 105868, Note_off_c, 9, 42, 64
11, 106073, Note_on_c, 9, 64, 75
11, 106078, Note_on_c, 9, 42, 49
11, 106102, Note_off_c, 9, 64, 64
11, 106107, Note_off_c, 9, 42, 64
11, 106318, Note_on_c, 9, 42, 91
11, 106318, Note_on_c, 9, 63, 92
11, 106347, Note_off_c, 9, 63, 64
11, 106347, Note_off_c, 9, 42, 64
11, 106560, Note_on_c, 9, 64, 66
11, 106561, Note_on_c, 9, 36, 91
11, 106561, Note_on_c, 9, 42, 80
11, 106587, Note_off_c, 9, 64, 64
11, 106590, Note_off_c, 9, 42, 64
11, 106591, Note_off_c, 9, 36, 64
11, 106798, Note_on_c, 9, 42, 88
11, 106798, Note_on_c, 9, 63, 77
11, 106827, Note_off_c, 9, 42, 64
11, 106828, Note_off_c, 9, 63, 64
11, 107032, Note_on_c, 9, 70, 87
11, 107036, Note_on_c, 9, 64, 81
11, 107038, Note_on_c, 9, 42, 86
11, 107061, Note_off_c, 9, 70, 64
11, 107065, Note_off_c, 9, 64, 64
11, 107068, Note_off_c, 9, 42, 64
11, 107270, Note_on_c, 9, 70, 47
11, 107277, Note_on_c, 9, 40, 102
11, 107278, Note_on_c, 9, 42, 92
11, 107298, Note_off_c, 9, 70, 64
11, 107306, Note_off_c, 9, 40, 64
11, 107308, Note_off_c, 9, 42, 64
11, 107515, Note_on_c, 9, 64, 75
11, 107518, Note_on_c, 9, 42, 86
11, 107543, Note_off_c, 9, 64, 64
11, 107547, Note_off_c, 9, 42, 64
11, 107757, Note_on_c, 9, 36, 69
11, 107758, Note_on_c, 9, 42, 92
11, 107758, Note_on_c, 9, 63, 76
11, 107787, Note_off_c, 9, 36, 64
11, 107788, Note_off_c, 9, 42, 64
11, 107788, Note_off_c, 9, 63, 64
11, 107998, Note_on_c, 9, 36, 92
11, 107998, Note_on_c, 9, 42, 92
11, 107998, Note_on_c, 9, 62, 86
11, 108027, Note_off_c, 9, 36, 64
11, 108028, Note_off_c, 9, 42, 64
11, 108028, Note_off_c, 9, 62, 64
11, 108235, Note_on_c, 9, 63, 84
11, 108241, Note_on_c, 9, 42, 90
11, 108265, Note_off_c, 9, 63, 64
11, 108270, Note_off_c, 9, 42, 64
11, 108472, Note_on_c, 9, 70, 87
11, 108478, Note_on_c, 9, 42, 85
11, 108483, Note_on_c, 9, 64, 90
11, 108501, Note_off_c, 9, 70, 64
11, 108508, Note_off_c, 9, 42, 64
11, 108513, Note_off_c, 9, 64, 64
11, 108710, Note_on_c, 9, 70, 47
11, 108717, Note_on_c, 9, 40, 102
11, 108718, Note_on_c, 9, 42, 92
11, 108738, Note_off_c, 9, 70, 64
11, 108747, Note_off_c, 9, 40, 64
11, 108748, Note_off_c, 9, 42, 64
11, 108953, Note_on_c, 9, 64, 75
11, 108958, Note_on_c, 9, 42, 49
11, 108982, Note_off_c, 9, 64, 64
11, 108987, Note_off_c, 9, 42, 64
11, 109198, Note_on_c, 9, 42, 91
11, 109198, Note_on_c, 9, 63, 92
11, 109227, Note_off_c, 9, 63, 64
11, 109227, Note_off_c, 9, 42, 64
11, 109440, Note_on_c, 9, 64, 66
11, 109441, Note_on_c, 9, 36, 91
11, 109441, Note_on_c, 9, 42, 80
11, 109467, Note_off_c, 9, 64, 64
11, 109470, Note_off_c, 9, 42, 64
11, 109471, Note_off_c, 9, 36, 64
11, 109678, Note_on_c, 9, 42, 88
11, 109678, Note_on_c, 9, 63, 77
11, 109707, Note_off_c, 9, 42, 64
11, 109708, Note_off_c, 9, 63, 64
11, 109912, Note_on_c, 9, 70, 87
11, 109916, Note_on_c, 9, 64, 81
11, 109918, Note_on_c, 9, 42, 86
11, 109941, Note_off_c, 9, 70, 64
11, 109945, Note_off_c, 9, 64, 64
11, 109948, Note_off_c, 9, 42, 64
11, 110150, Note_on_c, 9, 70, 47
11, 110157, Note_on_c, 9, 40, 102
11, 110158, Note_on_c, 9, 42, 92
11, 110178, Note_off_c, 9, 70, 64
11, 110186, Note_off_c, 9, 40, 64
11, 110188, Note_off_c, 9, 42, 64
11, 110395, Note_on_c, 9, 64, 75
11, 110398, Note_on_c, 9, 42, 86
11, 110423, Note_off_c, 9, 64, 64
11, 110427, Note_off_c, 9, 42, 64
11, 110637, Note_on_c, 9, 36, 69
11, 110638, Note_on_c, 9, 42, 92
11, 110638, Note_on_c, 9, 63, 76
11, 110667, Note_off_c, 9, 36, 64
11, 110668, Note_off_c, 9, 42, 64
11, 110668, Note_off_c, 9, 63, 64
11, 110878, Note_on_c, 9, 36, 92
11, 110878, Note_on_c, 9, 42, 92
11, 110878, Note_on_c, 9, 62, 86
11, 110878, Note_on_c, 9, 76, 63
11, 110907, Note_off_c, 9, 76, 64
11, 110907, Note_off_c, 9, 36, 64
11, 110908, Note_off_c, 9, 42, 64
11, 110908, Note_off_c, 9, 62, 64
11, 111112, Note_on_c, 9, 40, 102
11, 111115, Note_on_c, 9, 63, 84
11, 111121, Note_on_c, 9, 42, 90
11, 111142, Note_off_c, 9, 40, 64
11, 111145, Note_off_c, 9, 63, 64
11, 111150, Note_off_c, 9, 42, 64
11, 111352, Note_on_c, 9, 70, 87
11, 111358, Note_on_c, 9, 42, 85
11, 111363, Note_on_c, 9, 64, 90
11, 111381, Note_off_c, 9, 70, 64
11, 111388, Note_off_c, 9, 42, 64
11, 111393, Note_off_c, 9, 64, 64
11, 111590, Note_on_c, 9, 70, 47
11, 111592, Note_on_c, 9, 40, 99
11, 111598, Note_on_c, 9, 42, 92
11, 111618, Note_off_c, 9, 70, 64
11, 111622, Note_off_c, 9, 40, 64
11, 111628, Note_off_c, 9, 42, 64
11, 111833, Note_on_c, 9, 64, 75
11, 111837, Note_on_c, 9, 45, 112
11, 111838, Note_on_c, 9, 42, 49
11, 111862, Note_off_c, 9, 64, 64
11, 111867, Note_off_c, 9, 45, 64
11, 111867, Note_off_c, 9, 42, 64
11, 112077, Note_on_c, 9, 36, 92
11, 112077, Note_on_c, 9, 41, 112
11, 112078, Note_on_c, 9, 42, 91
11, 112078, Note_on_c, 9, 63, 92
11, 112106, Note_off_c, 9, 36, 64
11, 112107, Note_off_c, 9, 41, 64
11, 112107, Note_off_c, 9, 42, 64
11, 112107, Note_off_c, 9, 63, 64
11, 112320, Note_on_c, 9, 41, 105
11, 112320, Note_on_c, 9, 64, 66
11, 112321, Note_on_c, 9, 36, 91
11, 112347, Note_off_c, 9, 64, 64
11, 112348, Note_off_c, 9, 41, 64
11, 112351, Note_off_c, 9, 36, 64
11, 112558, Note_on_c, 9, 63, 77
11, 112588, Note_off_c, 9, 63, 64
11, 112796, Note_on_c, 9, 64, 81
11, 112797, Note_on_c, 9, 42, 86
11, 112825, Note_off_c, 9, 64, 64
11, 112827, Note_off_c, 9, 42, 64
11, 113038, Note_on_c, 9, 40, 102
11, 113038, Note_on_c, 9, 42, 92
11, 113067, Note_off_c, 9, 40, 64
11, 113068, Note_off_c, 9, 42, 64
11, 113275, Note_on_c, 9, 64, 75
11, 113278, Note_on_c, 9, 42, 86
11, 113303, Note_off_c, 9, 64, 64
11, 113307, Note_off_c, 9, 42, 64
11, 113517, Note_on_c, 9, 36, 69
11, 113517, Note_on_c, 9, 42, 92
11, 113518, Note_on_c, 9, 63, 76
11, 113547, Note_off_c, 9, 42, 64
11, 113547, Note_off_c, 9, 36, 64
11, 113548, Note_off_c, 9, 63, 64
11, 113757, Note_on_c, 9, 42, 92
11, 113758, Note_on_c, 9, 36, 92
11, 113758, Note_on_c, 9, 62, 86
11, 113787, Note_off_c, 9, 36, 64
11, 113787, Note_off_c, 9, 42, 64
11, 113788, Note_off_c, 9, 62, 64
11, 113995, Note_on_c, 9, 63, 84
11, 114001, Note_on_c, 9, 42, 90
11, 114025, Note_off_c, 9, 63, 64
11, 114030, Note_off_c, 9, 42, 64
11, 114232, Note_on_c, 9, 70, 87
11, 114236, Note_on_c, 9, 42, 85
11, 114243, Note_on_c, 9, 64, 90
11, 114261, Note_off_c, 9, 70, 64
11, 114266, Note_off_c, 9, 42, 64
11, 114273, Note_off_c, 9, 64, 64
11, 114470, Note_on_c, 9, 70, 47
11, 114477, Note_on_c, 9, 42, 92
11, 114481, Note_on_c, 9, 40, 102
11, 114498, Note_off_c, 9, 70, 64
11, 114507, Note_off_c, 9, 42, 64
11, 114511, Note_off_c, 9, 40, 64
11, 114713, Note_on_c, 9, 64, 75
11, 114718, Note_on_c, 9, 42, 49
11, 114742, Note_off_c, 9, 64, 64
11, 114747, Note_off_c, 9, 42, 64
11, 114956, Note_on_c, 9, 42, 91
11, 114958, Note_on_c, 9, 63, 92
11, 114985, Note_off_c, 9, 42, 64
11, 114987, Note_off_c, 9, 63, 64
11, 115200, Note_on_c, 9, 64, 66
11, 115201, Note_on_c, 9, 36, 91
11, 115201, Note_on_c, 9, 42, 80
11, 115227, Note_off_c, 9, 64, 64
11, 115230, Note_off_c, 9, 42, 64
11, 115231, Note_off_c, 9, 36, 64
11, 115438, Note_on_c, 9, 42, 88
11, 115438, Note_on_c, 9, 63, 77
11, 115467, Note_off_c, 9, 42, 64
11, 115468, Note_off_c, 9, 63, 64
11, 115672, Note_on_c, 9, 70, 87
11, 115676, Note_on_c, 9, 64, 81
11, 115678, Note_on_c, 9, 42, 86
11, 115701, Note_off_c, 9, 70, 64
11, 115705, Note_off_c, 9, 64, 64
11, 115708, Note_off_c, 9, 42, 64
11, 115910, Note_on_c, 9, 70, 47
11, 115917, Note_on_c, 9, 40, 102
11, 115918, Note_on_c, 9, 42, 92
11, 115938, Note_off_c, 9, 70, 64
11, 115946, Note_off_c, 9, 40, 64
11, 115948, Note_off_c, 9, 42, 64
11, 116155, Note_on_c, 9, 64, 75
11, 116158, Note_on_c, 9, 42, 86
11, 116183, Note_off_c, 9, 64, 64
11, 116187, Note_off_c, 9, 42, 64
11, 116397, Note_on_c, 9, 36, 69
11, 116398, Note_on_c, 9, 42, 92
11, 116398, Note_on_c, 9, 63, 76
11, 116427, Note_off_c, 9, 36, 64
11, 116428, Note_off_c, 9, 42, 64
11, 116428, Note_off_c, 9, 63, 64
11, 116638, Note_on_c, 9, 36, 92
11, 116638, Note_on_c, 9, 42, 92
11, 116638, Note_on_c, 9, 62, 86
11, 116638, Note_on_c, 9, 76, 63
11, 116667, Note_off_c, 9, 76, 64
11, 116667, Note_off_c, 9, 36, 64
11, 116668, Note_off_c, 9, 42, 64
11, 116668, Note_off_c, 9, 62, 64
11, 116875, Note_on_c, 9, 63, 84
11, 116881, Note_on_c, 9, 42, 90
11, 116905, Note_off_c, 9, 63, 64
11, 116910, Note_off_c, 9, 42, 64
11, 117112, Note_on_c, 9, 70, 87
11, 117118, Note_on_c, 9, 42, 85
11, 117123, Note_on_c, 9, 64, 90
11, 117141, Note_off_c, 9, 70, 64
11, 117148, Note_off_c, 9, 42, 64
11, 117153, Note_off_c, 9, 64, 64
11, 117350, Note_on_c, 9, 70, 47
11, 117357, Note_on_c, 9, 40, 102
11, 117358, Note_on_c, 9, 42, 92
11, 117378, Note_off_c, 9, 70, 64
11, 117387, Note_off_c, 9, 40, 64
11, 117388, Note_off_c, 9, 42, 64
11, 117593, Note_on_c, 9, 64, 75
11, 117598, Note_on_c, 9, 42, 49
11, 117622, Note_off_c, 9, 64, 64
11, 117627, Note_off_c, 9, 42, 64
11, 117838, Note_on_c, 9, 42, 91
11, 117838, Note_on_c, 9, 63, 92
11, 117867, Note_off_c, 9, 63, 64
11, 117867, Note_off_c, 9, 42, 64
11, 118080, Note_on_c, 9, 64, 66
11, 118081, Note_on_c, 9, 36, 91
11, 118081, Note_on_c, 9, 42, 80
11, 118107, Note_off_c, 9, 64, 64
11, 118110, Note_off_c, 9, 42, 64
11, 118111, Note_off_c, 9, 36, 64
11, 118318, Note_on_c, 9, 42, 88
11, 118318, Note_on_c, 9, 63, 77
11, 118347, Note_off_c, 9, 42, 64
11, 118348, Note_off_c, 9, 63, 64
11, 118552, Note_on_c, 9, 70, 87
11, 118556, Note_on_c, 9, 64, 81
11, 118558, Note_on_c, 9, 42, 86
11, 118581, Note_off_c, 9, 70, 64
11, 118585, Note_off_c, 9, 64, 64
11, 118588, Note_off_c, 9, 42, 64
11, 118790, Note_on_c, 9, 70, 47
11, 118797, Note_on_c, 9, 40, 102
11, 118798, Note_on_c, 9, 42, 92
11, 118818, Note_off_c, 9, 70, 64
11, 118826, Note_off_c, 9, 40, 64
11, 118828, Note_off_c, 9, 42, 64
11, 119035, Note_on_c, 9, 64, 75
11, 119038, Note_on_c, 9, 42, 86
11, 119063, Note_off_c, 9, 64, 64
11, 119067, Note_off_c, 9, 42, 64
11, 119277, Note_on_c, 9, 36, 69
11, 119278, Note_on_c, 9, 42, 92
11, 119278, Note_on_c, 9, 63, 76
11, 119307, Note_off_c, 9, 36, 64
11, 119308, Note_off_c, 9, 42, 64
11, 119308, Note_off_c, 9, 63, 64
11, 119518, Note_on_c, 9, 36, 92
11, 119518, Note_on_c, 9, 42, 92
11, 119518, Note_on_c, 9, 62, 86
11, 119547, Note_off_c, 9, 36, 64
11, 119548, Note_off_c, 9, 42, 64
11, 119548, Note_off_c, 9, 62, 64
11, 119755, Note_on_c, 9, 63, 84
11, 119761, Note_on_c, 9, 42, 90
11, 119785, Note_off_c, 9, 63, 64
11, 119790, Note_off_c, 9, 42, 64
11, 119992, Note_on_c, 9, 70, 87
11, 119998, Note_on_c, 9, 42, 85
11, 120003, Note_on_c, 9, 64, 90
11, 120021, Note_off_c, 9, 70, 64
11, 120028, Note_off_c, 9, 42, 64
11, 120033, Note_off_c, 9, 64, 64
11, 120230, Note_on_c, 9, 70, 47
11, 120237, Note_on_c, 9, 40, 102
11, 120238, Note_on_c, 9, 42, 92
11, 120258, Note_off_c, 9, 70, 64
11, 120267, Note_off_c, 9, 40, 64
11, 120268, Note_off_c, 9, 42, 64
11, 120473, Note_on_c, 9, 64, 75
11, 120478, Note_on_c, 9, 42, 49
11, 120502, Note_off_c, 9, 64, 64
11, 120507, Note_off_c, 9, 42, 64
11, 120718, Note_on_c, 9, 42, 91
11, 120718, Note_on_c, 9, 63, 92
11, 120747, Note_off_c, 9, 63, 64
11, 120747, Note_off_c, 9, 42, 64
11, 120960, Note_on_c, 9, 64, 66
11, 120961, Note_on_c, 9, 36, 91
11, 120961, Note_on_c, 9, 42, 80
11, 120962, Note_on_c, 9, 57, 92
11, 120987, Note_off_c, 9, 64, 64
11, 120990, Note_off_c, 9, 42, 64
11, 120991, Note_off_c, 9, 36, 64
11, 120991, Note_off_c, 9, 57, 64
11, 121198, Note_on_c, 9, 42, 88
11, 121198, Note_on_c, 9, 63, 77
11, 121227, Note_off_c, 9, 42, 64
11, 121228, Note_off_c, 9, 63, 64
11, 121432, Note_on_c, 9, 70, 87
11, 121436, Note_on_c, 9, 64, 81
11, 121438, Note_on_c, 9, 42, 86
11, 121461, Note_off_c, 9, 70, 64
11, 121465, Note_off_c, 9, 64, 64
11, 121468, Note_off_c, 9, 42, 64
11, 121670, Note_on_c, 9, 70, 47
11, 121677, Note_on_c, 9, 40, 102
11, 121678, Note_on_c, 9, 42, 92
11, 121698, Note_off_c, 9, 70, 64
11, 121706, Note_off_c, 9, 40, 64
11, 121708, Note_off_c, 9, 42, 64
11, 121915, Note_on_c, 9, 64, 75
11, 121918, Note_on_c, 9, 42, 86
11, 121943, Note_off_c, 9, 64, 64
11, 121947, Note_off_c, 9, 42, 64
11, 122157, Note_on_c, 9, 36, 69
11, 122158, Note_on_c, 9, 42, 92
11, 122158, Note_on_c, 9, 63, 76
11, 122187, Note_off_c, 9, 36, 64
11, 122188, Note_off_c, 9, 42, 64
11, 122188, Note_off_c, 9, 63, 64
11, 122398, Note_on_c, 9, 36, 92
11, 122398, Note_on_c, 9, 62, 86
11, 122398, Note_on_c, 9, 76, 63
11, 122400, Note_on_c, 9, 46, 92
11, 122427, Note_off_c, 9, 76, 64
11, 122427, Note_off_c, 9, 36, 64
11, 122428, Note_off_c, 9, 62, 64
11, 122428, Note_off_c, 9, 46, 64
11, 122635, Note_on_c, 9, 63, 84
11, 122641, Note_on_c, 9, 42, 92
11, 122665, Note_off_c, 9, 63, 64
11, 122671, Note_off_c, 9, 42, 64
11, 122872, Note_on_c, 9, 70, 87
11, 122877, Note_on_c, 9, 46, 84
11, 122878, Note_on_c, 9, 36, 92
11, 122883, Note_on_c, 9, 64, 90
11, 122901, Note_off_c, 9, 70, 64
11, 122907, Note_off_c, 9, 46, 64
11, 122907, Note_off_c, 9, 36, 64
11, 122913, Note_off_c, 9, 64, 64
11, 123110, Note_on_c, 9, 70, 47
11, 123116, Note_on_c, 9, 40, 102
11, 123116, Note_on_c, 9, 46, 78
11, 123138, Note_off_c, 9, 70, 64
11, 123145, Note_off_c, 9, 46, 64
11, 123146, Note_off_c, 9, 40, 64
11, 123348, Note_on_c, 9, 40, 102
11, 123351, Note_on_c, 9, 49, 86
11, 123353, Note_on_c, 9, 64, 75
11, 123357, Note_on_c, 9, 46, 77
11, 123377, Note_off_c, 9, 40, 64
11, 123380, Note_off_c, 9, 49, 64
11, 123382, Note_off_c, 9, 64, 64
11, 123387, Note_off_c, 9, 46, 64
11, 123577, Note_on_c, 9, 52, 90
11, 123595, Note_on_c, 9, 45, 111
11, 123596, Note_on_c, 9, 46, 91
11, 123597, Note_on_c, 9, 36, 92
11, 123598, Note_on_c, 9, 63, 92
11, 123606, Note_off_c, 9, 52, 64
11, 123623, Note_off_c, 9, 45, 64
11, 123625, Note_off_c, 9, 46, 64
11, 123626, Note_off_c, 9, 36, 64
11, 123627, Note_off_c, 9, 63, 64
11, 123838, Note_on_c, 9, 41, 112
11, 123840, Note_on_c, 9, 64, 66
11, 123841, Note_on_c, 9, 36, 91
11, 123867, Note_off_c, 9, 64, 64
11, 123867, Note_off_c, 9, 41, 64
11, 123871, Note_off_c, 9, 36, 64
11, 124078, Note_on_c, 9, 63, 77
11, 124108, Note_off_c, 9, 63, 64
11, 124316, Note_on_c, 9, 64, 81
11, 124317, Note_on_c, 9, 42, 86
11, 124345, Note_off_c, 9, 64, 64
11, 124347, Note_off_c, 9, 42, 64
11, 124558, Note_on_c, 9, 40, 102
11, 124558, Note_on_c, 9, 42, 92
11, 124587, Note_off_c, 9, 40, 64
11, 124588, Note_off_c, 9, 42, 64
11, 124795, Note_on_c, 9, 64, 75
11, 124798, Note_on_c, 9, 42, 86
11, 124823, Note_off_c, 9, 64, 64
11, 124827, Note_off_c, 9, 42, 64
11, 125037, Note_on_c, 9, 36, 69
11, 125037, Note_on_c, 9, 42, 92
11, 125038, Note_on_c, 9, 63, 76
11, 125067, Note_off_c, 9, 42, 64
11, 125067, Note_off_c, 9, 36, 64
11, 125068, Note_off_c, 9, 63, 64
11, 125277, Note_on_c, 9, 42, 92
11, 125278, Note_on_c, 9, 36, 92
11, 125278, Note_on_c, 9, 62, 86
11, 125307, Note_off_c, 9, 36, 64
11, 125307, Note_off_c, 9, 42, 64
11, 125308, Note_off_c, 9, 62, 64
11, 125515, Note_on_c, 9, 63, 84
11, 125521, Note_on_c, 9, 42, 90
11, 125545, Note_off_c, 9, 63, 64
11, 125550, Note_off_c, 9, 42, 64
11, 125752, Note_on_c, 9, 70, 87
11, 125756, Note_on_c, 9, 42, 85
11, 125763, Note_on_c, 9, 64, 90
11, 125781, Note_off_c, 9, 70, 64
11, 125786, Note_off_c, 9, 42, 64
11, 125793, Note_off_c, 9, 64, 64
11, 125990, Note_on_c, 9, 70, 47
11, 125997, Note_on_c, 9, 42, 92
11, 126001, Note_on_c, 9, 40, 102
11, 126018, Note_off_c, 9, 70, 64
11, 126027, Note_off_c, 9, 42, 64
11, 126031, Note_off_c, 9, 40, 64
11, 126233, Note_on_c, 9, 64, 75
11, 126238, Note_on_c, 9, 42, 49
11, 126262, Note_off_c, 9, 64, 64
11, 126267, Note_off_c, 9, 42, 64
11, 126476, Note_on_c, 9, 42, 91
11, 126478, Note_on_c, 9, 63, 92
11, 126505, Note_off_c, 9, 42, 64
11, 126507, Note_off_c, 9, 63, 64
11, 126720, Note_on_c, 9, 57, 92
11, 126720, Note_on_c, 9, 64, 66
11, 126721, Note_on_c, 9, 36, 91
11, 126721, Note_on_c, 9, 42, 80
11, 126747, Note_off_c, 9, 64, 64
11, 126750, Note_off_c, 9, 57, 64
11, 126750, Note_off_c, 9, 42, 64
11, 126751, Note_off_c, 9, 36, 64
11, 126958, Note_on_c, 9, 42, 88
11, 126958, Note_on_c, 9, 63, 77
11, 126987, Note_off_c, 9, 42, 64
11, 126988, Note_off_c, 9, 63, 64
11, 127192, Note_on_c, 9, 70, 87
11, 127196, Note_on_c, 9, 64, 81
11, 127197, Note_on_c, 9, 46, 92
11, 127221, Note_off_c, 9, 70, 64
11, 127225, Note_off_c, 9, 64, 64
11, 127226, Note_off_c, 9, 46, 64
11, 127430, Note_on_c, 9, 70, 47
11, 127437, Note_on_c, 9, 40, 102
11, 127438, Note_on_c, 9, 42, 92
11, 127458, Note_off_c, 9, 70, 64
11, 127466, Note_off_c, 9, 40, 64
11, 127468, Note_off_c, 9, 42, 64
11, 127675, Note_on_c, 9, 64, 75
11, 127685, Note_on_c, 9, 46, 92
11, 127703, Note_off_c, 9, 64, 64
11, 127715, Note_off_c, 9, 46, 64
11, 127917, Note_on_c, 9, 36, 69
11, 127918, Note_on_c, 9, 42, 92
11, 127918, Note_on_c, 9, 63, 76
11, 127947, Note_off_c, 9, 36, 64
11, 127948, Note_off_c, 9, 42, 64
11, 127948, Note_off_c, 9, 63, 64
11, 128157, Note_on_c, 9, 46, 92
11, 128158, Note_on_c, 9, 36, 92
11, 128158, Note_on_c, 9, 62, 86
11, 128158, Note_on_c, 9, 76, 63
11, 128187, Note_off_c, 9, 76, 64
11, 128187, Note_off_c, 9, 36, 64
11, 128187, Note_off_c, 9, 46, 64
11, 128188, Note_off_c, 9, 62, 64
11, 128395, Note_on_c, 9, 63, 84
11, 128401, Note_on_c, 9, 42, 90
11, 128425, Note_off_c, 9, 63, 64
11, 128430, Note_off_c, 9, 42, 64
11, 128632, Note_on_c, 9, 70, 87
11, 128641, Note_on_c, 9, 46, 91
11, 128643, Note_on_c, 9, 64, 90
11, 128661, Note_off_c, 9, 70, 64
11, 128670, Note_off_c, 9, 46, 64
11, 128673, Note_off_c, 9, 64, 64
11, 128870, Note_on_c, 9, 70, 47
11, 128877, Note_on_c, 9, 40, 102
11, 128878, Note_on_c, 9, 42, 92
11, 128898, Note_off_c, 9, 70, 64
11, 128907, Note_off_c, 9, 40, 64
11, 128908, Note_off_c, 9, 42, 64
11, 129113, Note_on_c, 9, 64, 75
11, 129116, Note_on_c, 9, 46, 92
11, 129142, Note_off_c, 9, 64, 64
11, 129146, Note_off_c, 9, 46, 64
11, 129358, Note_on_c, 9, 42, 91
11, 129358, Note_on_c, 9, 63, 92
11, 129387, Note_off_c, 9, 63, 64
11, 129387, Note_off_c, 9, 42, 64
11, 129600, Note_on_c, 9, 57, 92
11, 129600, Note_on_c, 9, 64, 66
11, 129601, Note_on_c, 9, 36, 91
11, 129601, Note_on_c, 9, 42, 80
11, 129627, Note_off_c, 9, 64, 64
11, 129630, Note_off_c, 9, 57, 64
11, 129630, Note_off_c, 9, 42, 64
11, 129631, Note_off_c, 9, 36, 64
11, 129838, Note_on_c, 9, 42, 88
11, 129838, Note_on_c, 9, 63, 77
11, 129867, Note_off_c, 9, 42, 64
11, 129868, Note_off_c, 9, 63, 64
11, 130076, Note_on_c, 9, 64, 81
11, 130078, Note_on_c, 9, 42, 86
11, 130105, Note_off_c, 9, 64, 64
11, 130108, Note_off_c, 9, 42, 64
11, 130317, Note_on_c, 9, 40, 102
11, 130318, Note_on_c, 9, 42, 92
11, 130346, Note_off_c, 9, 40, 64
11, 130348, Note_off_c, 9, 42, 64
11, 130555, Note_on_c, 9, 64, 75
11, 130558, Note_on_c, 9, 42, 86
11, 130583, Note_off_c, 9, 64, 64
11, 130587, Note_off_c, 9, 42, 64
11, 130797, Note_on_c, 9, 36, 69
11, 130798, Note_on_c, 9, 42, 92
11, 130798, Note_on_c, 9, 63, 76
11, 130827, Note_off_c, 9, 36, 64
11, 130828, Note_off_c, 9, 42, 64
11, 130828, Note_off_c, 9, 63, 64
11, 131038, Note_on_c, 9, 36, 92
11, 131038, Note_on_c, 9, 42, 92
11, 131038, Note_on_c, 9, 62, 86
11, 131067, Note_off_c, 9, 36, 64
11, 131068, Note_off_c, 9, 42, 64
11, 131068, Note_off_c, 9, 62, 64
11, 131273, Note_on_c, 9, 51, 91
11, 131275, Note_on_c, 9, 63, 84
11, 131281, Note_on_c, 9, 42, 90
11, 131302, Note_off_c, 9, 51, 64
11, 131305, Note_off_c, 9, 63, 64
11, 131310, Note_off_c, 9, 42, 64
11, 131512, Note_on_c, 9, 70, 87
11, 131518, Note_on_c, 9, 42, 85
11, 131523, Note_on_c, 9, 64, 90
11, 131533, Note_on_c, 9, 51, 90
11, 131541, Note_off_c, 9, 70, 64
11, 131548, Note_off_c, 9, 42, 64
11, 131553, Note_off_c, 9, 64, 64
11, 131555, Note_off_c, 9, 51, 64
11, 131750, Note_on_c, 9, 70, 47
11, 131757, Note_on_c, 9, 40, 102
11, 131757, Note_on_c, 9, 59, 92
11, 131758, Note_on_c, 9, 42, 92
11, 131778, Note_off_c, 9, 70, 64
11, 131787, Note_off_c, 9, 40, 64
11, 131787, Note_off_c, 9, 59, 64
11, 131788, Note_off_c, 9, 42, 64
11, 131993, Note_on_c, 9, 64, 75
11, 131998, Note_on_c, 9, 42, 49
11, 132022, Note_off_c, 9, 64, 64
11, 132027, Note_off_c, 9, 42, 64
11, 132238, Note_on_c, 9, 42, 91
11, 132238, Note_on_c, 9, 63, 92
11, 132267, Note_off_c, 9, 63, 64
11, 132267, Note_off_c, 9, 42, 64
11, 132480, Note_on_c, 9, 57, 92
11, 132480, Note_on_c, 9, 64, 66
11, 132481, Note_on_c, 9, 36, 91
11, 132486, Note_on_c, 9, 51, 92
11, 132507, Note_off_c, 9, 64, 64
11, 132510, Note_off_c, 9, 57, 64
11, 132511, Note_off_c, 9, 36, 64
11, 132515, Note_off_c, 9, 51, 64
11, 132718, Note_on_c, 9, 63, 77
11, 132748, Note_off_c, 9, 63, 64
11, 132952, Note_on_c, 9, 70, 87
11, 132956, Note_on_c, 9, 64, 81
11, 132981, Note_off_c, 9, 70, 64
11, 132985, Note_off_c, 9, 64, 64
11, 133190, Note_on_c, 9, 70, 47
11, 133197, Note_on_c, 9, 40, 102
11, 133210, Note_on_c, 9, 51, 89
11, 133218, Note_off_c, 9, 70, 64
11, 133226, Note_off_c, 9, 40, 64
11, 133240, Note_off_c, 9, 51, 64
11, 133435, Note_on_c, 9, 64, 75
11, 133463, Note_off_c, 9, 64, 64
11, 133651, Note_on_c, 9, 51, 91
11, 133677, Note_on_c, 9, 36, 69
11, 133678, Note_on_c, 9, 63, 76
11, 133682, Note_off_c, 9, 51, 64
11, 133707, Note_off_c, 9, 36, 64
11, 133708, Note_off_c, 9, 63, 64
11, 133918, Note_on_c, 9, 36, 92
11, 133918, Note_on_c, 9, 62, 86
11, 133918, Note_on_c, 9, 76, 63
11, 133923, Note_on_c, 9, 51, 86
11, 133947, Note_off_c, 9, 76, 64
11, 133947, Note_off_c, 9, 36, 64
11, 133948, Note_off_c, 9, 62, 64
11, 133953, Note_off_c, 9, 51, 64
11, 134155, Note_on_c, 9, 63, 84
11, 134185, Note_off_c, 9, 63, 64
11, 134392, Note_on_c, 9, 40, 102
11, 134392, Note_on_c, 9, 70, 87
11, 134403, Note_on_c, 9, 64, 90
11, 134405, Note_on_c, 9, 51, 89
11, 134421, Note_off_c, 9, 70, 64
11, 134422, Note_off_c, 9, 40, 64
11, 134433, Note_off_c, 9, 64, 64
11, 134433, Note_off_c, 9, 51, 64
11, 134630, Note_on_c, 9, 70, 47
11, 134637, Note_on_c, 9, 40, 102
11, 134646, Note_on_c, 9, 51, 82
11, 134658, Note_off_c, 9, 70, 64
11, 134666, Note_off_c, 9, 40, 64
11, 134675, Note_off_c, 9, 51, 64
11, 134861, Note_on_c, 9, 45, 111
11, 134862, Note_off_c, 9, 45, 64
11, 134868, Note_on_c, 9, 51, 91
11, 134873, Note_on_c, 9, 64, 75
11, 134881, Note_on_c, 9, 45, 112
11, 134888, Note_off_c, 9, 45, 64
11, 134897, Note_off_c, 9, 51, 64
11, 134902, Note_off_c, 9, 64, 64
11, 135098, Note_on_c, 9, 41, 111
11, 135100, Note_off_c, 9, 41, 64
11, 135105, Note_on_c, 9, 51, 92
11, 135116, Note_on_c, 9, 41, 112
11, 135117, Note_on_c, 9, 36, 92
11, 135118, Note_on_c, 9, 63, 92
11, 135135, Note_off_c, 9, 51, 64
11, 135145, Note_off_c, 9, 41, 64
11, 135146, Note_off_c, 9, 36, 64
11, 135147, Note_off_c, 9, 63, 64
11, 135360, Note_on_c, 9, 49, 92
11, 135360, Note_on_c, 9, 64, 66
11, 135361, Note_on_c, 9, 36, 91
11, 135387, Note_off_c, 9, 64, 64
11, 135388, Note_off_c, 9, 49, 64
11, 135391, Note_off_c, 9, 36, 64
11, 135598, Note_on_c, 9, 63, 77
11, 135628, Note_off_c, 9, 63, 64
11, 135836, Note_on_c, 9, 64, 81
11, 135865, Note_off_c, 9, 64, 64
11, 136078, Note_on_c, 9, 40, 102
11, 136107, Note_off_c, 9, 40, 64
11, 136315, Note_on_c, 9, 64, 75
11, 136343, Note_off_c, 9, 64, 64
11, 136557, Note_on_c, 9, 36, 69
11, 136558, Note_on_c, 9, 63, 76
11, 136561, Note_on_c, 9, 51, 92
11, 136587, Note_off_c, 9, 36, 64
11, 136588, Note_off_c, 9, 63, 64
11, 136590, Note_off_c, 9, 51, 64
11, 136798, Note_on_c, 9, 36, 92
11, 136798, Note_on_c, 9, 62, 86
11, 136827, Note_off_c, 9, 36, 64
11, 136828, Note_off_c, 9, 62, 64
11, 137035, Note_on_c, 9, 63, 84
11, 137043, Note_on_c, 9, 51, 82
11, 137065, Note_off_c, 9, 63, 64
11, 137073, Note_off_c, 9, 51, 64
11, 137272, Note_on_c, 9, 70, 87
11, 137281, Note_on_c, 9, 51, 77
11, 137283, Note_on_c, 9, 64, 90
11, 137301, Note_off_c, 9, 70, 64
11, 137311, Note_off_c, 9, 51, 64
11, 137313, Note_off_c, 9, 64, 64
11, 137510, Note_on_c, 9, 70, 47
11, 137521, Note_on_c, 9, 40, 102
11, 137521, Note_on_c, 9, 51, 85
11, 137538, Note_off_c, 9, 70, 64
11, 137551, Note_off_c, 9, 40, 64
11, 137551, Note_off_c, 9, 51, 64
11, 137753, Note_on_c, 9, 64, 75
11, 137782, Note_off_c, 9, 64, 64
11, 137998, Note_on_c, 9, 59, 92
11, 137998, Note_on_c, 9, 63, 92
11, 138027, Note_off_c, 9, 63, 64
11, 138028, Note_off_c, 9, 59, 64
11, 138240, Note_on_c, 9, 64, 66
11, 138241, Note_on_c, 9, 36, 91
11, 138267, Note_off_c, 9, 64, 64
11, 138271, Note_off_c, 9, 36, 64
11, 138478, Note_on_c, 9, 63, 77
11, 138481, Note_on_c, 9, 59, 70
11, 138508, Note_off_c, 9, 63, 64
11, 138511, Note_off_c, 9, 59, 64
11, 138712, Note_on_c, 9, 70, 87
11, 138716, Note_on_c, 9, 59, 90
11, 138716, Note_on_c, 9, 64, 81
11, 138741, Note_off_c, 9, 70, 64
11, 138745, Note_off_c, 9, 64, 64
11, 138746, Note_off_c, 9, 59, 64
11, 138950, Note_on_c, 9, 70, 47
11, 138957, Note_on_c, 9, 40, 102
11, 138957, Note_on_c, 9, 59, 89
11, 138978, Note_off_c, 9, 70, 64
11, 138986, Note_off_c, 9, 40, 64
11, 138987, Note_off_c, 9, 59, 64
11, 139195, Note_on_c, 9, 64, 75
11, 139223, Note_off_c, 9, 64, 64
11, 139437, Note_on_c, 9, 36, 69
11, 139438, Note_on_c, 9, 59, 85
11, 139438, Note_on_c, 9, 63, 76
11, 139467, Note_off_c, 9, 36, 64
11, 139468, Note_off_c, 9, 59, 64
11, 139468, Note_off_c, 9, 63, 64
11, 139678, Note_on_c, 9, 36, 92
11, 139678, Note_on_c, 9, 62, 86
11, 139678, Note_on_c, 9, 76, 63
11, 139707, Note_off_c, 9, 76, 64
11, 139707, Note_off_c, 9, 36, 64
11, 139708, Note_off_c, 9, 62, 64
11, 139915, Note_on_c, 9, 51, 72
11, 139915, Note_on_c, 9, 63, 84
11, 139945, Note_off_c, 9, 63, 64
11, 139945, Note_off_c, 9, 51, 64
11, 140157, Note_on_c, 9, 51, 78
11, 140163, Note_on_c, 9, 64, 90
11, 140187, Note_off_c, 9, 51, 64
11, 140193, Note_off_c, 9, 64, 64
11, 140397, Note_on_c, 9, 40, 102
11, 140397, Note_on_c, 9, 51, 92
11, 140426, Note_off_c, 9, 51, 64
11, 140427, Note_off_c, 9, 40, 64
11, 140633, Note_on_c, 9, 64, 75
11, 140662, Note_off_c, 9, 64, 64
11, 140878, Note_on_c, 9, 51, 84
11, 140878, Note_on_c, 9, 63, 92
11, 140907, Note_off_c, 9, 63, 64
11, 140908, Note_off_c, 9, 51, 64
11, 141120, Note_on_c, 9, 64, 66
11, 141121, Note_on_c, 9, 36, 91
11, 141121, Note_on_c, 9, 51, 77
11, 141147, Note_off_c, 9, 64, 64
11, 141150, Note_off_c, 9, 51, 64
11, 141151, Note_off_c, 9, 36, 64
11, 141358, Note_on_c, 9, 63, 77
11, 141361, Note_on_c, 9, 51, 92
11, 141388, Note_off_c, 9, 63, 64
11, 141391, Note_off_c, 9, 51, 64
11, 141598, Note_on_c, 9, 64, 81
11, 141601, Note_on_c, 9, 51, 75
11, 141627, Note_off_c, 9, 64, 64
11, 141630, Note_off_c, 9, 51, 64
11, 141837, Note_on_c, 9, 40, 102
11, 141838, Note_on_c, 9, 51, 92
11, 141866, Note_off_c, 9, 40, 64
11, 141867, Note_off_c, 9, 51, 64
11, 142078, Note_on_c, 9, 64, 75
11, 142107, Note_off_c, 9, 64, 64
11, 142317, Note_on_c, 9, 36, 69
11, 142318, Note_on_c, 9, 63, 76
11, 142321, Note_on_c, 9, 51, 91
11, 142347, Note_off_c, 9, 36, 64
11, 142348, Note_off_c, 9, 63, 64
11, 142350, Note_off_c, 9, 51, 64
11, 142558, Note_on_c, 9, 36, 92
11, 142558, Note_on_c, 9, 62, 86
11, 142561, Note_on_c, 9, 51, 58
11, 142587, Note_off_c, 9, 36, 64
11, 142588, Note_off_c, 9, 62, 64
11, 142590, Note_off_c, 9, 51, 64
11, 142798, Note_on_c, 9, 51, 80
11, 142798, Note_on_c, 9, 63, 84
11, 142827, Note_off_c, 9, 51, 64
11, 142828, Note_off_c, 9, 63, 64
11, 143038, Note_on_c, 9, 51, 92
11, 143038, Note_on_c, 9, 70, 87
11, 143041, Note_on_c, 9, 64, 90
11, 143067, Note_off_c, 9, 70, 64
11, 143068, Note_off_c, 9, 51, 64
11, 143071, Note_off_c, 9, 64, 64
11, 143276, Note_on_c, 9, 70, 47
11, 143277, Note_on_c, 9, 40, 102
11, 143278, Note_on_c, 9, 51, 92
11, 143305, Note_off_c, 9, 70, 64
11, 143307, Note_off_c, 9, 40, 64
11, 143307, Note_off_c, 9, 51, 64
11, 143518, Note_on_c, 9, 64, 75
11, 143547, Note_off_c, 9, 64, 64
11, 143758, Note_on_c, 9, 51, 85
11, 143758, Note_on_c, 9, 63, 92
11, 143787, Note_off_c, 9, 63, 64
11, 143788, Note_off_c, 9, 51, 64
11, 144000, Note_on_c, 9, 51, 28
11, 144000, Note_on_c, 9, 64, 66
11, 144001, Note_on_c, 9, 36, 91
11, 144027, Note_off_c, 9, 64, 64
11, 144028, Note_off_c, 9, 51, 64
11, 144031, Note_off_c, 9, 36, 64
11, 144238, Note_on_c, 9, 63, 77
11, 144241, Note_on_c, 9, 51, 72
11, 144268, Note_off_c, 9, 63, 64
11, 144270, Note_off_c, 9, 51, 64
11, 144478, Note_on_c, 9, 51, 74
11, 144478, Note_on_c, 9, 64, 81
11, 144478, Note_on_c, 9, 70, 87
11, 144507, Note_off_c, 9, 70, 64
11, 144507, Note_off_c, 9, 64, 64
11, 144507, Note_off_c, 9, 51, 64
11, 144716, Note_on_c, 9, 51, 91
11, 144716, Note_on_c, 9, 70, 47
11, 144717, Note_on_c, 9, 40, 102
11, 144745, Note_off_c, 9, 70, 64
11, 144745, Note_off_c, 9, 51, 64
11, 144746, Note_off_c, 9, 40, 64
11, 144958, Note_on_c, 9, 64, 75
11, 144987, Note_off_c, 9, 64, 64
11, 145197, Note_on_c, 9, 36, 69
11, 145198, Note_on_c, 9, 63, 76
11, 145200, Note_on_c, 9, 51, 73
11, 145227, Note_off_c, 9, 36, 64
11, 145228, Note_off_c, 9, 63, 64
11, 145230, Note_off_c, 9, 51, 64
11, 145438, Note_on_c, 9, 36, 92
11, 145438, Note_on_c, 9, 62, 86
11, 145438, Note_on_c, 9, 76, 63
11, 145467, Note_off_c, 9, 76, 64
11, 145467, Note_off_c, 9, 36, 64
11, 145468, Note_off_c, 9, 62, 64
11, 145676, Note_on_c, 9, 51, 88
11, 145678, Note_on_c, 9, 63, 84
11, 145705, Note_off_c, 9, 51, 64
11, 145708, Note_off_c, 9, 63, 64
11, 145917, Note_on_c, 9, 51, 91
11, 145921, Note_on_c, 9, 64, 90
11, 145947, Note_off_c, 9, 51, 64
11, 145951, Note_off_c, 9, 64, 64
11, 146157, Note_on_c, 9, 40, 102
11, 146157, Note_on_c, 9, 49, 92
11, 146186, Note_off_c, 9, 49, 64
11, 146187, Note_off_c, 9, 40, 64
11, 146376, Note_on_c, 9, 45, 112
11, 146380, Note_off_c, 9, 45, 64
11, 146391, Note_on_c, 9, 45, 112
11, 146398, Note_on_c, 9, 64, 75
11, 146420, Note_off_c, 9, 45, 64
11, 146427, Note_off_c, 9, 64, 64
11, 146620, Note_on_c, 9, 41, 112
11, 146623, Note_off_c, 9, 41, 64
11, 146633, Note_on_c, 9, 51, 56
11, 146635, Note_on_c, 9, 41, 112
11, 146638, Note_on_c, 9, 63, 92
11, 146663, Note_off_c, 9, 41, 64
11, 146663, Note_off_c, 9, 51, 64
11, 146667, Note_off_c, 9, 63, 64
11, 146880, Note_on_c, 9, 64, 66
11, 146881, Note_on_c, 9, 36, 91
11, 146891, Note_on_c, 9, 51, 92
11, 146907, Note_off_c, 9, 64, 64
11, 146911, Note_off_c, 9, 36, 64
11, 146921, Note_off_c, 9, 51, 64
11, 147118, Note_on_c, 9, 63, 77
11, 147128, Note_on_c, 9, 51, 88
11, 147148, Note_off_c, 9, 63, 64
11, 147157, Note_off_c, 9, 51, 64
11, 147357, Note_on_c, 9, 51, 81
11, 147358, Note_on_c, 9, 64, 81
11, 147386, Note_off_c, 9, 51, 64
11, 147387, Note_off_c, 9, 64, 64
11, 147597, Note_on_c, 9, 40, 102
11, 147597, Note_on_c, 9, 51, 92
11, 147626, Note_off_c, 9, 40, 64
11, 147627, Note_off_c, 9, 51, 64
11, 147835, Note_on_c, 9, 51, 52
11, 147838, Note_on_c, 9, 64, 75
11, 147865, Note_off_c, 9, 51, 64
11, 147867, Note_off_c, 9, 64, 64
11, 148073, Note_on_c, 9, 51, 92
11, 148077, Note_on_c, 9, 36, 69
11, 148078, Note_on_c, 9, 63, 76
11, 148102, Note_off_c, 9, 51, 64
11, 148107, Note_off_c, 9, 36, 64
11, 148108, Note_off_c, 9, 63, 64
11, 148312, Note_on_c, 9, 51, 51
11, 148318, Note_on_c, 9, 36, 92
11, 148318, Note_on_c, 9, 62, 86
11, 148341, Note_off_c, 9, 51, 64
11, 148347, Note_off_c, 9, 36, 64
11, 148348, Note_off_c, 9, 62, 64
11, 148551, Note_on_c, 9, 51, 81
11, 148558, Note_on_c, 9, 63, 84
11, 148580, Note_off_c, 9, 51, 64
11, 148588, Note_off_c, 9, 63, 64
11, 148798, Note_on_c, 9, 70, 87
11, 148801, Note_on_c, 9, 64, 90
11, 148802, Note_on_c, 9, 51, 89
11, 148827, Note_off_c, 9, 70, 64
11, 148831, Note_off_c, 9, 64, 64
11, 148831, Note_off_c, 9, 51, 64
11, 149036, Note_on_c, 9, 70, 47
11, 149037, Note_on_c, 9, 40, 102
11, 149041, Note_on_c, 9, 51, 92
11, 149065, Note_off_c, 9, 70, 64
11, 149067, Note_off_c, 9, 40, 64
11, 149071, Note_off_c, 9, 51, 64
11, 149278, Note_on_c, 9, 64, 75
11, 149286, Note_on_c, 9, 51, 45
11, 149307, Note_off_c, 9, 64, 64
11, 149316, Note_off_c, 9, 51, 64
11, 149518, Note_on_c, 9, 51, 89
11, 149518, Note_on_c, 9, 63, 92
11, 149547, Note_off_c, 9, 63, 64
11, 149548, Note_off_c, 9, 51, 64
11, 149755, Note_on_c, 9, 51, 92
11, 149760, Note_on_c, 9, 64, 66
11, 149761, Note_on_c, 9, 36, 91
11, 149785, Note_off_c, 9, 51, 64
11, 149787, Note_off_c, 9, 64, 64
11, 149791, Note_off_c, 9, 36, 64
11, 149995, Note_on_c, 9, 51, 55
11, 149998, Note_on_c, 9, 63, 77
11, 150025, Note_off_c, 9, 51, 64
11, 150028, Note_off_c, 9, 63, 64
11, 150233, Note_on_c, 9, 51, 75
11, 150238, Note_on_c, 9, 64, 81
11, 150238, Note_on_c, 9, 70, 87
11, 150263, Note_off_c, 9, 51, 64
11, 150267, Note_off_c, 9, 64, 64
11, 150267, Note_off_c, 9, 70, 64
11, 150476, Note_on_c, 9, 70, 47
11, 150477, Note_on_c, 9, 40, 102
11, 150478, Note_on_c, 9, 51, 92
11, 150505, Note_off_c, 9, 70, 64
11, 150506, Note_off_c, 9, 40, 64
11, 150507, Note_off_c, 9, 51, 64
11, 150711, Note_on_c, 9, 51, 74
11, 150718, Note_on_c, 9, 64, 75
11, 150740, Note_off_c, 9, 51, 64
11, 150747, Note_off_c, 9, 64, 64
11, 150957, Note_on_c, 9, 36, 69
11, 150957, Note_on_c, 9, 51, 92
11, 150958, Note_on_c, 9, 63, 76
11, 150987, Note_off_c, 9, 51, 64
11, 150987, Note_off_c, 9, 36, 64
11, 150988, Note_off_c, 9, 63, 64
11, 151196, Note_on_c, 9, 51, 32
11, 151198, Note_on_c, 9, 36, 92
11, 151198, Note_on_c, 9, 62, 86
11, 151198, Note_on_c, 9, 76, 63
11, 151226, Note_off_c, 9, 51, 64
11, 151227, Note_off_c, 9, 36, 64
11, 151227, Note_off_c, 9, 76, 64
11, 151228, Note_off_c, 9, 62, 64
11, 151431, Note_on_c, 9, 51, 85
11, 151438, Note_on_c, 9, 63, 84
11, 151461, Note_off_c, 9, 51, 64
11, 151468, Note_off_c, 9, 63, 64
11, 151677, Note_on_c, 9, 51, 66
11, 151681, Note_on_c, 9, 64, 90
11, 151707, Note_off_c, 9, 51, 64
11, 151711, Note_off_c, 9, 64, 64
11, 151917, Note_on_c, 9, 40, 102
11, 151917, Note_on_c, 9, 51, 89
11, 151947, Note_off_c, 9, 51, 64
11, 151947, Note_off_c, 9, 40, 64
11, 152157, Note_on_c, 9, 51, 31
11, 152158, Note_on_c, 9, 64, 75
11, 152186, Note_off_c, 9, 51, 64
11, 152187, Note_off_c, 9, 64, 64
11, 152398, Note_on_c, 9, 63, 92
11, 152402, Note_on_c, 9, 51, 80
11, 152427, Note_off_c, 9, 63, 64
11, 152431, Note_off_c, 9, 51, 64
11, 152640, Note_on_c, 9, 64, 66
11, 152641, Note_on_c, 9, 36, 91
11, 152642, Note_on_c, 9, 51, 92
11, 152667, Note_off_c, 9, 64, 64
11, 152671, Note_off_c, 9, 36, 64
11, 152671, Note_off_c, 9, 51, 64
11, 152878, Note_on_c, 9, 63, 77
11, 152882, Note_on_c, 9, 51, 67
11, 152908, Note_off_c, 9, 63, 64
11, 152912, Note_off_c, 9, 51, 64
11, 153118, Note_on_c, 9, 51, 52
11, 153118, Note_on_c, 9, 64, 81
11, 153147, Note_off_c, 9, 64, 64
11, 153148, Note_off_c, 9, 51, 64
11, 153357, Note_on_c, 9, 40, 102
11, 153363, Note_on_c, 9, 51, 92
11, 153386, Note_off_c, 9, 40, 64
11, 153393, Note_off_c, 9, 51, 64
11, 153598, Note_on_c, 9, 64, 75
11, 153602, Note_on_c, 9, 51, 31
11, 153627, Note_off_c, 9, 64, 64
11, 153631, Note_off_c, 9, 51, 64
11, 153837, Note_on_c, 9, 36, 69
11, 153837, Note_on_c, 9, 51, 89
11, 153838, Note_on_c, 9, 63, 76
11, 153866, Note_off_c, 9, 51, 64
11, 153867, Note_off_c, 9, 36, 64
11, 153868, Note_off_c, 9, 63, 64
11, 154078, Note_on_c, 9, 36, 92
11, 154078, Note_on_c, 9, 62, 86
11, 154081, Note_on_c, 9, 51, 59
11, 154107, Note_off_c, 9, 36, 64
11, 154108, Note_off_c, 9, 62, 64
11, 154111, Note_off_c, 9, 51, 64
11, 154316, Note_on_c, 9, 51, 35
11, 154318, Note_on_c, 9, 63, 84
11, 154345, Note_off_c, 9, 51, 64
11, 154348, Note_off_c, 9, 63, 64
11, 154558, Note_on_c, 9, 70, 87
11, 154561, Note_on_c, 9, 51, 69
11, 154561, Note_on_c, 9, 64, 90
11, 154587, Note_off_c, 9, 70, 64
11, 154590, Note_off_c, 9, 51, 64
11, 154591, Note_off_c, 9, 64, 64
11, 154796, Note_on_c, 9, 70, 47
11, 154797, Note_on_c, 9, 40, 102
11, 154802, Note_on_c, 9, 51, 76
11, 154825, Note_off_c, 9, 70, 64
11, 154827, Note_off_c, 9, 40, 64
11, 154831, Note_off_c, 9, 51, 64
11, 155038, Note_on_c, 9, 51, 22
11, 155038, Note_on_c, 9, 64, 75
11, 155067, Note_off_c, 9, 64, 64
11, 155067, Note_off_c, 9, 51, 64
11, 155278, Note_on_c, 9, 51, 25
11, 155278, Note_on_c, 9, 63, 92
11, 155307, Note_off_c, 9, 63, 64
11, 155307, Note_off_c, 9, 51, 64
11, 155520, Note_on_c, 9, 64, 66
11, 155521, Note_on_c, 9, 36, 91
11, 155523, Note_on_c, 9, 51, 70
11, 155547, Note_off_c, 9, 64, 64
11, 155551, Note_off_c, 9, 36, 64
11, 155552, Note_off_c, 9, 51, 64
11, 155756, Note_on_c, 9, 51, 32
11, 155758, Note_on_c, 9, 63, 77
11, 155785, Note_off_c, 9, 51, 64
11, 155788, Note_off_c, 9, 63, 64
11, 155993, Note_on_c, 9, 51, 19
11, 155998, Note_on_c, 9, 64, 81
11, 155998, Note_on_c, 9, 70, 87
11, 156022, Note_off_c, 9, 51, 64
11, 156027, Note_off_c, 9, 64, 64
11, 156027, Note_off_c, 9, 70, 64
11, 156236, Note_on_c, 9, 70, 47
11, 156237, Note_on_c, 9, 40, 102
11, 156241, Note_on_c, 9, 51, 92
11, 156265, Note_off_c, 9, 70, 64
11, 156266, Note_off_c, 9, 40, 64
11, 156271, Note_off_c, 9, 51, 64
11, 156478, Note_on_c, 9, 64, 75
11, 156481, Note_on_c, 9, 51, 27
11, 156507, Note_off_c, 9, 64, 64
11, 156511, Note_off_c, 9, 51, 64
11, 156717, Note_on_c, 9, 36, 69
11, 156718, Note_on_c, 9, 63, 76
11, 156720, Note_on_c, 9, 51, 88
11, 156747, Note_off_c, 9, 36, 64
11, 156748, Note_off_c, 9, 63, 64
11, 156748, Note_off_c, 9, 51, 64
11, 156947, Note_on_c, 9, 51, 33
11, 156958, Note_on_c, 9, 36, 92
11, 156958, Note_on_c, 9, 62, 86
11, 156958, Note_on_c, 9, 76, 63
11, 156960, Note_on_c, 9, 84, 90
11, 156977, Note_off_c, 9, 51, 64
11, 156987, Note_off_c, 9, 36, 64
11, 156987, Note_off_c, 9, 76, 64
11, 156988, Note_off_c, 9, 62, 64
11, 156988, Note_off_c, 9, 84, 64
11, 157196, Note_on_c, 9, 51, 78
11, 157198, Note_on_c, 9, 63, 84
11, 157225, Note_off_c, 9, 51, 64
11, 157228, Note_off_c, 9, 63, 64
11, 157437, Note_on_c, 9, 40, 102
11, 157437, Note_on_c, 9, 51, 80
11, 157441, Note_on_c, 9, 64, 90
11, 157448, Note_off_c, 9, 40, 64
11, 157456, Note_on_c, 9, 40, 11
11, 157466, Note_off_c, 9, 51, 64
11, 157471, Note_off_c, 9, 64, 64
11, 157485, Note_off_c, 9, 40, 64
11, 157677, Note_on_c, 9, 40, 102
11, 157707, Note_off_c, 9, 40, 64
11, 157908, Note_on_c, 9, 57, 92
11, 157913, Note_on_c, 9, 45, 112
11, 157918, Note_on_c, 9, 64, 75
11, 157938, Note_off_c, 9, 57, 64
11, 157943, Note_off_c, 9, 45, 64
11, 157947, Note_off_c, 9, 64, 64
11, 158148, Note_on_c, 9, 41, 112
11, 158158, Note_on_c, 9, 63, 92
11, 158160, Note_on_c, 9, 57, 83
11, 158177, Note_off_c, 9, 41, 64
11, 158187, Note_off_c, 9, 63, 64
11, 158190, Note_off_c, 9, 57, 64
11, 158400, Note_on_c, 9, 49, 90
11, 158400, Note_on_c, 9, 64, 66
11, 158401, Note_on_c, 9, 36, 91
11, 158411, Note_on_c, 9, 42, 71
11, 158427, Note_off_c, 9, 64, 64
11, 158428, Note_off_c, 9, 49, 64
11, 158431, Note_off_c, 9, 36, 64
11, 158441, Note_off_c, 9, 42, 64
11, 158638, Note_on_c, 9, 63, 77
11, 158645, Note_on_c, 9, 42, 51
11, 158668, Note_off_c, 9, 63, 64
11, 158675, Note_off_c, 9, 42, 64
11, 158876, Note_on_c, 9, 64, 81
11, 158878, Note_on_c, 9, 42, 84
11, 158905, Note_off_c, 9, 64, 64
11, 158908, Note_off_c, 9, 42, 64
11, 159115, Note_on_c, 9, 46, 91
11, 159118, Note_on_c, 9, 40, 102
11, 159145, Note_off_c, 9, 46, 64
11, 159147, Note_off_c, 9, 40, 64
11, 159355, Note_on_c, 9, 64, 75
11, 159361, Note_on_c, 9, 42, 83
11, 159383, Note_off_c, 9, 64, 64
11, 159390, Note_off_c, 9, 42, 64
11, 159596, Note_on_c, 9, 42, 65
11, 159597, Note_on_c, 9, 36, 69
11, 159598, Note_on_c, 9, 63, 76
11, 159625, Note_off_c, 9, 42, 64
11, 159627, Note_off_c, 9, 36, 64
11, 159628, Note_off_c, 9, 63, 64
11, 159833, Note_on_c, 9, 42, 88
11, 159838, Note_on_c, 9, 36, 92
11, 159838, Note_on_c, 9, 62, 86
11, 159865, Note_off_c, 9, 42, 64
11, 159867, Note_off_c, 9, 36, 64
11, 159868, Note_off_c, 9, 62, 64
11, 160075, Note_on_c, 9, 63, 84
11, 160078, Note_on_c, 9, 42, 81
11, 160105, Note_off_c, 9, 63, 64
11, 160107, Note_off_c, 9, 42, 64
11, 160311, Note_on_c, 9, 42, 72
11, 160312, Note_on_c, 9, 70, 87
11, 160323, Note_on_c, 9, 64, 90
11, 160341, Note_off_c, 9, 70, 64
11, 160341, Note_off_c, 9, 42, 64
11, 160353, Note_off_c, 9, 64, 64
11, 160550, Note_on_c, 9, 70, 47
11, 160552, Note_on_c, 9, 46, 92
11, 160561, Note_on_c, 9, 40, 102
11, 160578, Note_off_c, 9, 70, 64
11, 160582, Note_off_c, 9, 46, 64
11, 160591, Note_off_c, 9, 40, 64
11, 160793, Note_on_c, 9, 42, 70
11, 160793, Note_on_c, 9, 64, 75
11, 160822, Note_off_c, 9, 64, 64
11, 160822, Note_off_c, 9, 42, 64
11, 161038, Note_on_c, 9, 63, 92
11, 161041, Note_on_c, 9, 42, 65
11, 161067, Note_off_c, 9, 63, 64
11, 161070, Note_off_c, 9, 42, 64
11, 161280, Note_on_c, 9, 64, 66
11, 161281, Note_on_c, 9, 36, 91
11, 161281, Note_on_c, 9, 42, 89
11, 161307, Note_off_c, 9, 64, 64
11, 161311, Note_off_c, 9, 36, 64
11, 161311, Note_off_c, 9, 42, 64
11, 161513, Note_on_c, 9, 42, 66
11, 161518, Note_on_c, 9, 63, 77
11, 161543, Note_off_c, 9, 42, 64
11, 161548, Note_off_c, 9, 63, 64
11, 161752, Note_on_c, 9, 70, 87
11, 161756, Note_on_c, 9, 64, 81
11, 161758, Note_on_c, 9, 42, 73
11, 161781, Note_off_c, 9, 70, 64
11, 161785, Note_off_c, 9, 64, 64
11, 161788, Note_off_c, 9, 42, 64
11, 161990, Note_on_c, 9, 70, 47
11, 161997, Note_on_c, 9, 40, 102
11, 162018, Note_off_c, 9, 70, 64
11, 162026, Note_off_c, 9, 40, 64
11, 162031, Note_on_c, 9, 57, 92
11, 162061, Note_off_c, 9, 57, 64
11, 162235, Note_on_c, 9, 64, 75
11, 162252, Note_on_c, 9, 42, 82
11, 162263, Note_off_c, 9, 64, 64
11, 162281, Note_off_c, 9, 42, 64
11, 162477, Note_on_c, 9, 36, 69
11, 162478, Note_on_c, 9, 63, 76
11, 162481, Note_on_c, 9, 42, 89
11, 162507, Note_off_c, 9, 36, 64
11, 162508, Note_off_c, 9, 63, 64
11, 162511, Note_off_c, 9, 42, 64
11, 162718, Note_on_c, 9, 36, 92
11, 162718, Note_on_c, 9, 62, 86
11, 162718, Note_on_c, 9, 76, 63
11, 162722, Note_on_c, 9, 42, 90
11, 162747, Note_off_c, 9, 76, 64
11, 162747, Note_off_c, 9, 36, 64
11, 162748, Note_off_c, 9, 62, 64
11, 162751, Note_off_c, 9, 42, 64
11, 162955, Note_on_c, 9, 63, 84
11, 162960, Note_on_c, 9, 42, 91
11, 162985, Note_off_c, 9, 63, 64
11, 162990, Note_off_c, 9, 42, 64
11, 163198, Note_on_c, 9, 42, 92
11, 163203, Note_on_c, 9, 64, 90
11, 163228, Note_off_c, 9, 42, 64
11, 163233, Note_off_c, 9, 64, 64
11, 163425, Note_on_c, 9, 46, 92
11, 163437, Note_on_c, 9, 40, 102
11, 163455, Note_off_c, 9, 46, 64
11, 163467, Note_off_c, 9, 40, 64
11, 163672, Note_on_c, 9, 42, 89
11, 163673, Note_on_c, 9, 64, 75
11, 163701, Note_off_c, 9, 42, 64
11, 163702, Note_off_c, 9, 64, 64
11, 163915, Note_on_c, 9, 42, 89
11, 163918, Note_on_c, 9, 63, 92
11, 163945, Note_off_c, 9, 42, 64
11, 163947, Note_off_c, 9, 63, 64
11, 164160, Note_on_c, 9, 64, 66
11, 164161, Note_on_c, 9, 36, 91
11, 164171, Note_on_c, 9, 42, 71
11, 164187, Note_off_c, 9, 64, 64
11, 164191, Note_off_c, 9, 36, 64
11, 164201, Note_off_c, 9, 42, 64
11, 164398, Note_on_c, 9, 63, 77
11, 164405, Note_on_c, 9, 42, 51
11, 164428, Note_off_c, 9, 63, 64
11, 164435, Note_off_c, 9, 42, 64
11, 164638, Note_on_c, 9, 42, 84
11, 164638, Note_on_c, 9, 64, 81
11, 164667, Note_off_c, 9, 64, 64
11, 164668, Note_off_c, 9, 42, 64
11, 164875, Note_on_c, 9, 46, 91
11, 164877, Note_on_c, 9, 40, 102
11, 164905, Note_off_c, 9, 46, 64
11, 164906, Note_off_c, 9, 40, 64
11, 165118, Note_on_c, 9, 64, 75
11, 165121, Note_on_c, 9, 42, 83
11, 165147, Note_off_c, 9, 64, 64
11, 165150, Note_off_c, 9, 42, 64
11, 165356, Note_on_c, 9, 42, 65
11, 165357, Note_on_c, 9, 36, 69
11, 165358, Note_on_c, 9, 63, 76
11, 165385, Note_off_c, 9, 42, 64
11, 165387, Note_off_c, 9, 36, 64
11, 165388, Note_off_c, 9, 63, 64
11, 165593, Note_on_c, 9, 42, 88
11, 165598, Note_on_c, 9, 36, 92
11, 165598, Note_on_c, 9, 62, 86
11, 165625, Note_off_c, 9, 42, 64
11, 165627, Note_off_c, 9, 36, 64
11, 165628, Note_off_c, 9, 62, 64
11, 165838, Note_on_c, 9, 42, 81
11, 165838, Note_on_c, 9, 63, 84
11, 165867, Note_off_c, 9, 42, 64
11, 165868, Note_off_c, 9, 63, 64
11, 166071, Note_on_c, 9, 42, 72
11, 166078, Note_on_c, 9, 70, 87
11, 166081, Note_on_c, 9, 64, 90
11, 166101, Note_off_c, 9, 42, 64
11, 166107, Note_off_c, 9, 70, 64
11, 166111, Note_off_c, 9, 64, 64
11, 166312, Note_on_c, 9, 46, 92
11, 166316, Note_on_c, 9, 70, 47
11, 166317, Note_on_c, 9, 40, 102
11, 166342, Note_off_c, 9, 46, 64
11, 166345, Note_off_c, 9, 70, 64
11, 166347, Note_off_c, 9, 40, 64
11, 166553, Note_on_c, 9, 42, 70
11, 166558, Note_on_c, 9, 64, 75
11, 166582, Note_off_c, 9, 42, 64
11, 166587, Note_off_c, 9, 64, 64
11, 166798, Note_on_c, 9, 63, 92
11, 166801, Note_on_c, 9, 42, 65
11, 166827, Note_off_c, 9, 63, 64
11, 166830, Note_off_c, 9, 42, 64
11, 167040, Note_on_c, 9, 64, 66
11, 167041, Note_on_c, 9, 36, 91
11, 167041, Note_on_c, 9, 42, 89
11, 167041, Note_on_c, 9, 84, 92
11, 167067, Note_off_c, 9, 64, 64
11, 167071, Note_off_c, 9, 36, 64
11, 167071, Note_off_c, 9, 42, 64
11, 167071, Note_off_c, 9, 84, 64
11, 167273, Note_on_c, 9, 42, 66
11, 167278, Note_on_c, 9, 63, 77
11, 167303, Note_off_c, 9, 42, 64
11, 167308, Note_off_c, 9, 63, 64
11, 167518, Note_on_c, 9, 42, 73
11, 167518, Note_on_c, 9, 64, 81
11, 167518, Note_on_c, 9, 70, 87
11, 167547, Note_off_c, 9, 70, 64
11, 167547, Note_off_c, 9, 64, 64
11, 167548, Note_off_c, 9, 42, 64
11, 167756, Note_on_c, 9, 70, 47
11, 167757, Note_on_c, 9, 40, 102
11, 167785, Note_off_c, 9, 70, 64
11, 167786, Note_off_c, 9, 40, 64
11, 167998, Note_on_c, 9, 64, 75
11, 168012, Note_on_c, 9, 42, 82
11, 168027, Note_off_c, 9, 64, 64
11, 168041, Note_off_c, 9, 42, 64
11, 168237, Note_on_c, 9, 36, 69
11, 168238, Note_on_c, 9, 63, 76
11, 168241, Note_on_c, 9, 42, 89
11, 168267, Note_off_c, 9, 36, 64
11, 168268, Note_off_c, 9, 63, 64
11, 168271, Note_off_c, 9, 42, 64
11, 168478, Note_on_c, 9, 36, 92
11, 168478, Note_on_c, 9, 62, 86
11, 168478, Note_on_c, 9, 76, 63
11, 168481, Note_on_c, 9, 53, 89
11, 168507, Note_off_c, 9, 76, 64
11, 168507, Note_off_c, 9, 36, 64
11, 168508, Note_off_c, 9, 62, 64
11, 168510, Note_off_c, 9, 53, 64
11, 168718, Note_on_c, 9, 53, 80
11, 168718, Note_on_c, 9, 63, 84
11, 168747, Note_off_c, 9, 53, 64
11, 168748, Note_off_c, 9, 63, 64
11, 168958, Note_on_c, 9, 53, 91
11, 168961, Note_on_c, 9, 64, 90
11, 168988, Note_off_c, 9, 53, 64
11, 168991, Note_off_c, 9, 64, 64
11, 169197, Note_on_c, 9, 40, 102
11, 169198, Note_on_c, 9, 53, 80
11, 169206, Note_on_c, 9, 57, 83
11, 169227, Note_off_c, 9, 53, 64
11, 169227, Note_off_c, 9, 40, 64
11, 169236, Note_off_c, 9, 57, 64
11, 169435, Note_on_c, 9, 45, 112
11, 169437, Note_on_c, 9, 53, 84
11, 169438, Note_on_c, 9, 64, 75
11, 169465, Note_off_c, 9, 45, 64
11, 169467, Note_off_c, 9, 53, 64
11, 169467, Note_off_c, 9, 64, 64
11, 169678, Note_on_c, 9, 53, 80
11, 169678, Note_on_c, 9, 63, 92
11, 169681, Note_on_c, 9, 41, 112
11, 169707, Note_off_c, 9, 63, 64
11, 169707, Note_off_c, 9, 53, 64
11, 169710, Note_off_c, 9, 41, 64
11, 169920, Note_on_c, 9, 57, 92
11, 169920, Note_on_c, 9, 64, 66
11, 169921, Note_on_c, 9, 36, 91
11, 169947, Note_off_c, 9, 64, 64
11, 169948, Note_off_c, 9, 57, 64
11, 169951, Note_off_c, 9, 36, 64
11, 170158, Note_on_c, 9, 63, 77
11, 170188, Note_off_c, 9, 63, 64
11, 170396, Note_on_c, 9, 64, 81
11, 170397, Note_on_c, 9, 51, 82
11, 170425, Note_off_c, 9, 64, 64
11, 170426, Note_off_c, 9, 51, 64
11, 170638, Note_on_c, 9, 40, 102
11, 170667, Note_off_c, 9, 40, 64
11, 170875, Note_on_c, 9, 64, 75
11, 170882, Note_on_c, 9, 51, 92
11, 170903, Note_off_c, 9, 64, 64
11, 170912, Note_off_c, 9, 51, 64
11, 171117, Note_on_c, 9, 36, 69
11, 171118, Note_on_c, 9, 63, 76
11, 171147, Note_off_c, 9, 36, 64
11, 171148, Note_off_c, 9, 63, 64
11, 171358, Note_on_c, 9, 36, 92
11, 171358, Note_on_c, 9, 62, 86
11, 171362, Note_on_c, 9, 51, 91
11, 171387, Note_off_c, 9, 36, 64
11, 171388, Note_off_c, 9, 62, 64
11, 171392, Note_off_c, 9, 51, 64
11, 171595, Note_on_c, 9, 51, 55
11, 171595, Note_on_c, 9, 63, 84
11, 171625, Note_off_c, 9, 63, 64
11, 171625, Note_off_c, 9, 51, 64
11, 171832, Note_on_c, 9, 70, 87
11, 171840, Note_on_c, 9, 51, 90
11, 171843, Note_on_c, 9, 64, 90
11, 171861, Note_off_c, 9, 70, 64
11, 171870, Note_off_c, 9, 51, 64
11, 171873, Note_off_c, 9, 64, 64
11, 172070, Note_on_c, 9, 70, 47
11, 172072, Note_on_c, 9, 51, 21
11, 172081, Note_on_c, 9, 40, 102
11, 172098, Note_off_c, 9, 70, 64
11, 172102, Note_off_c, 9, 51, 64
11, 172111, Note_off_c, 9, 40, 64
11, 172313, Note_on_c, 9, 64, 75
11, 172321, Note_on_c, 9, 51, 92
11, 172342, Note_off_c, 9, 64, 64
11, 172350, Note_off_c, 9, 51, 64
11, 172553, Note_on_c, 9, 51, 66
11, 172558, Note_on_c, 9, 63, 92
11, 172575, Note_on_c, 9, 55, 92
11, 172583, Note_off_c, 9, 51, 64
11, 172587, Note_off_c, 9, 63, 64
11, 172605, Note_off_c, 9, 55, 64
11, 172648, Note_on_c, 9, 52, 92
11, 172678, Note_off_c, 9, 52, 64
11, 172778, Note_on_c, 9, 49, 92
11, 172800, Note_on_c, 9, 64, 66
11, 172801, Note_on_c, 9, 36, 91
11, 172807, Note_off_c, 9, 49, 64
11, 172827, Note_off_c, 9, 64, 64
11, 172831, Note_off_c, 9, 36, 64
11, 173038, Note_on_c, 9, 63, 77
11, 173068, Note_off_c, 9, 63, 64
11, 173272, Note_on_c, 9, 70, 87
11, 173276, Note_on_c, 9, 64, 81
11, 173301, Note_off_c, 9, 70, 64
11, 173305, Note_off_c, 9, 64, 64
11, 173510, Note_on_c, 9, 70, 47
11, 173517, Note_on_c, 9, 40, 102
11, 173528, Note_on_c, 9, 51, 92
11, 173538, Note_off_c, 9, 70, 64
11, 173546, Note_off_c, 9, 40, 64
11, 173557, Note_off_c, 9, 51, 64
11, 173755, Note_on_c, 9, 64, 75
11, 173783, Note_off_c, 9, 64, 64
11, 173998, Note_on_c, 9, 36, 69
11, 173998, Note_on_c, 9, 63, 76
11, 174016, Note_on_c, 9, 51, 92
11, 174028, Note_off_c, 9, 63, 64
11, 174028, Note_off_c, 9, 36, 64
11, 174046, Note_off_c, 9, 51, 64
11, 174238, Note_on_c, 9, 36, 92
11, 174238, Note_on_c, 9, 62, 86
11, 174238, Note_on_c, 9, 76, 63
11, 174267, Note_off_c, 9, 76, 64
11, 174267, Note_off_c, 9, 36, 64
11, 174268, Note_off_c, 9, 62, 64
11, 174475, Note_on_c, 9, 63, 84
11, 174481, Note_on_c, 9, 51, 82
11, 174505, Note_off_c, 9, 63, 64
11, 174511, Note_off_c, 9, 51, 64
11, 174723, Note_on_c, 9, 64, 90
11, 174753, Note_off_c, 9, 64, 64
11, 174957, Note_on_c, 9, 40, 102
11, 174987, Note_off_c, 9, 40, 64
11, 175191, Note_on_c, 9, 40, 102
11, 175193, Note_on_c, 9, 64, 75
11, 175220, Note_off_c, 9, 40, 64
11, 175222, Note_off_c, 9, 64, 64
11, 175438, Note_on_c, 9, 36, 92
11, 175438, Note_on_c, 9, 41, 112
11, 175438, Note_on_c, 9, 63, 92
11, 175467, Note_off_c, 9, 63, 64
11, 175468, Note_off_c, 9, 41, 64
11, 175468, Note_off_c, 9, 36, 64
11, 175680, Note_on_c, 9, 57, 92
11, 175680, Note_on_c, 9, 64, 66
11, 175681, Note_on_c, 9, 36, 91
11, 175707, Note_off_c, 9, 64, 64
11, 175708, Note_off_c, 9, 57, 64
11, 175711, Note_off_c, 9, 36, 64
11, 175918, Note_on_c, 9, 63, 77
11, 175948, Note_off_c, 9, 63, 64
11, 176156, Note_on_c, 9, 64, 81
11, 176157, Note_on_c, 9, 51, 82
11, 176185, Note_off_c, 9, 64, 64
11, 176186, Note_off_c, 9, 51, 64
11, 176398, Note_on_c, 9, 40, 102
11, 176427, Note_off_c, 9, 40, 64
11, 176635, Note_on_c, 9, 64, 75
11, 176642, Note_on_c, 9, 51, 92
11, 176663, Note_off_c, 9, 64, 64
11, 176672, Note_off_c, 9, 51, 64
11, 176877, Note_on_c, 9, 36, 69
11, 176878, Note_on_c, 9, 63, 76
11, 176907, Note_off_c, 9, 36, 64
11, 176908, Note_off_c, 9, 63, 64
11, 177118, Note_on_c, 9, 36, 92
11, 177118, Note_on_c, 9, 62, 86
11, 177122, Note_on_c, 9, 51, 91
11, 177147, Note_off_c, 9, 36, 64
11, 177148, Note_off_c, 9, 62, 64
11, 177152, Note_off_c, 9, 51, 64
11, 177355, Note_on_c, 9, 51, 55
11, 177355, Note_on_c, 9, 63, 84
11, 177385, Note_off_c, 9, 63, 64
11, 177385, Note_off_c, 9, 51, 64
11, 177592, Note_on_c, 9, 70, 87
11, 177600, Note_on_c, 9, 51, 90
11, 177603, Note_on_c, 9, 64, 90
11, 177621, Note_off_c, 9, 70, 64
11, 177630, Note_off_c, 9, 51, 64
11, 177633, Note_off_c, 9, 64, 64
11, 177830, Note_on_c, 9, 70, 47
11, 177832, Note_on_c, 9, 51, 21
11, 177841, Note_on_c, 9, 40, 102
11, 177858, Note_off_c, 9, 70, 64
11, 177862, Note_off_c, 9, 51, 64
11, 177871, Note_off_c, 9, 40, 64
11, 178073, Note_on_c, 9, 64, 75
11, 178081, Note_on_c, 9, 51, 92
11, 178102, Note_off_c, 9, 64, 64
11, 178110, Note_off_c, 9, 51, 64
11, 178313, Note_on_c, 9, 51, 66
11, 178318, Note_on_c, 9, 63, 92
11, 178335, Note_on_c, 9, 55, 92
11, 178343, Note_off_c, 9, 51, 64
11, 178347, Note_off_c, 9, 63, 64
11, 178365, Note_off_c, 9, 55, 64
11, 178408, Note_on_c, 9, 52, 92
11, 178438, Note_off_c, 9, 52, 64
11, 178538, Note_on_c, 9, 49, 92
11, 178560, Note_on_c, 9, 64, 66
11, 178561, Note_on_c, 9, 36, 91
11, 178567, Note_off_c, 9, 49, 64
11, 178587, Note_off_c, 9, 64, 64
11, 178591, Note_off_c, 9, 36, 64
11, 178798, Note_on_c, 9, 63, 77
11, 178828, Note_off_c, 9, 63, 64
11, 179032, Note_on_c, 9, 70, 87
11, 179036, Note_on_c, 9, 64, 81
11, 179061, Note_off_c, 9, 70, 64
11, 179065, Note_off_c, 9, 64, 64
11, 179270, Note_on_c, 9, 70, 47
11, 179277, Note_on_c, 9, 40, 102
11, 179288, Note_on_c, 9, 51, 92
11, 179298, Note_off_c, 9, 70, 64
11, 179306, Note_off_c, 9, 40, 64
11, 179317, Note_off_c, 9, 51, 64
11, 179515, Note_on_c, 9, 64, 75
11, 179543, Note_off_c, 9, 64, 64
11, 179758, Note_on_c, 9, 36, 69
11, 179758, Note_on_c, 9, 63, 76
11, 179776, Note_on_c, 9, 51, 92
11, 179788, Note_off_c, 9, 63, 64
11, 179788, Note_off_c, 9, 36, 64
11, 179806, Note_off_c, 9, 51, 64
11, 179998, Note_on_c, 9, 36, 92
11, 179998, Note_on_c, 9, 62, 86
11, 179998, Note_on_c, 9, 76, 63
11, 180027, Note_off_c, 9, 76, 64
11, 180027, Note_off_c, 9, 36, 64
11, 180028, Note_off_c, 9, 62, 64
11, 180235, Note_on_c, 9, 63, 84
11, 180241, Note_on_c, 9, 51, 82
11, 180265, Note_off_c, 9, 63, 64
11, 180271, Note_off_c, 9, 51, 64
11, 180483, Note_on_c, 9, 64, 90
11, 180513, Note_off_c, 9, 64, 64
11, 180717, Note_on_c, 9, 49, 92
11, 180723, Note_on_c, 9, 40, 102
11, 180747, Note_off_c, 9, 49, 64
11, 180752, Note_off_c, 9, 40, 64
11, 180953, Note_on_c, 9, 64, 75
11, 180982, Note_off_c, 9, 64, 64
11, 181198, Note_on_c, 9, 36, 92
11, 181198, Note_on_c, 9, 41, 112
11, 181198, Note_on_c, 9, 63, 92
11, 181202, Note_on_c, 9, 57, 91
11, 181227, Note_off_c, 9, 63, 64
11, 181228, Note_off_c, 9, 41, 64
11, 181228, Note_off_c, 9, 36, 64
11, 181232, Note_off_c, 9, 57, 64
11, 181440, Note_on_c, 9, 64, 66
11, 181440, Note_on_c, 9, 84, 88
11, 181441, Note_on_c, 9, 36, 91
11, 181467, Note_off_c, 9, 64, 64
11, 181468, Note_off_c, 9, 84, 64
11, 181471, Note_off_c, 9, 36, 64
11, 181678, Note_on_c, 9, 63, 77
11, 181708, Note_off_c, 9, 63, 64
11, 181916, Note_on_c, 9, 64, 81
11, 181917, Note_on_c, 9, 51, 82
11, 181945, Note_off_c, 9, 64, 64
11, 181946, Note_off_c, 9, 51, 64
11, 182158, Note_on_c, 9, 40, 102
11, 182187, Note_off_c, 9, 40, 64
11, 182395, Note_on_c, 9, 64, 75
11, 182402, Note_on_c, 9, 51, 92
11, 182423, Note_off_c, 9, 64, 64
11, 182432, Note_off_c, 9, 51, 64
11, 182637, Note_on_c, 9, 36, 69
11, 182638, Note_on_c, 9, 63, 76
11, 182667, Note_off_c, 9, 36, 64
11, 182668, Note_off_c, 9, 63, 64
11, 182878, Note_on_c, 9, 36, 92
11, 182878, Note_on_c, 9, 62, 86
11, 182882, Note_on_c, 9, 51, 91
11, 182907, Note_off_c, 9, 36, 64
11, 182908, Note_off_c, 9, 62, 64
11, 182912, Note_off_c, 9, 51, 64
11, 183115, Note_on_c, 9, 51, 55
11, 183115, Note_on_c, 9, 63, 84
11, 183145, Note_off_c, 9, 63, 64
11, 183145, Note_off_c, 9, 51, 64
11, 183352, Note_on_c, 9, 70, 87
11, 183360, Note_on_c, 9, 51, 90
11, 183363, Note_on_c, 9, 64, 90
11, 183381, Note_off_c, 9, 70, 64
11, 183390, Note_off_c, 9, 51, 64
11, 183393, Note_off_c, 9, 64, 64
11, 183590, Note_on_c, 9, 70, 47
11, 183592, Note_on_c, 9, 51, 21
11, 183601, Note_on_c, 9, 40, 102
11, 183618, Note_off_c, 9, 70, 64
11, 183622, Note_off_c, 9, 51, 64
11, 183631, Note_off_c, 9, 40, 64
11, 183833, Note_on_c, 9, 64, 75
11, 183841, Note_on_c, 9, 51, 92
11, 183862, Note_off_c, 9, 64, 64
11, 183870, Note_off_c, 9, 51, 64
11, 184073, Note_on_c, 9, 51, 66
11, 184078, Note_on_c, 9, 63, 92
11, 184095, Note_on_c, 9, 55, 92
11, 184103, Note_off_c, 9, 51, 64
11, 184107, Note_off_c, 9, 63, 64
11, 184125, Note_off_c, 9, 55, 64
11, 184168, Note_on_c, 9, 52, 92
11, 184198, Note_off_c, 9, 52, 64
11, 184298, Note_on_c, 9, 49, 92
11, 184320, Note_on_c, 9, 64, 66
11, 184321, Note_on_c, 9, 36, 91
11, 184327, Note_off_c, 9, 49, 64
11, 184347, Note_off_c, 9, 64, 64
11, 184351, Note_off_c, 9, 36, 64
11, 184558, Note_on_c, 9, 63, 77
11, 184588, Note_off_c, 9, 63, 64
11, 184792, Note_on_c, 9, 70, 87
11, 184796, Note_on_c, 9, 64, 81
11, 184821, Note_off_c, 9, 70, 64
11, 184825, Note_off_c, 9, 64, 64
11, 185030, Note_on_c, 9, 70, 47
11, 185037, Note_on_c, 9, 40, 102
11, 185048, Note_on_c, 9, 51, 92
11, 185058, Note_off_c, 9, 70, 64
11, 185066, Note_off_c, 9, 40, 64
11, 185077, Note_off_c, 9, 51, 64
11, 185275, Note_on_c, 9, 64, 75
11, 185303, Note_off_c, 9, 64, 64
11, 185518, Note_on_c, 9, 36, 69
11, 185518, Note_on_c, 9, 63, 76
11, 185536, Note_on_c, 9, 51, 92
11, 185548, Note_off_c, 9, 63, 64
11, 185548, Note_off_c, 9, 36, 64
11, 185566, Note_off_c, 9, 51, 64
11, 185758, Note_on_c, 9, 36, 92
11, 185758, Note_on_c, 9, 62, 86
11, 185758, Note_on_c, 9, 76, 63
11, 185787, Note_off_c, 9, 76, 64
11, 185787, Note_off_c, 9, 36, 64
11, 185788, Note_off_c, 9, 62, 64
11, 185995, Note_on_c, 9, 63, 84
11, 186001, Note_on_c, 9, 51, 82
11, 186025, Note_off_c, 9, 63, 64
11, 186031, Note_off_c, 9, 51, 64
11, 186232, Note_on_c, 9, 49, 92
11, 186243, Note_on_c, 9, 64, 90
11, 186262, Note_off_c, 9, 49, 64
11, 186273, Note_off_c, 9, 64, 64
11, 186477, Note_on_c, 9, 40, 102
11, 186507, Note_off_c, 9, 40, 64
11, 186711, Note_on_c, 9, 40, 102
11, 186713, Note_on_c, 9, 64, 75
11, 186740, Note_off_c, 9, 40, 64
11, 186742, Note_off_c, 9, 64, 64
11, 186958, Note_on_c, 9, 36, 92
11, 186958, Note_on_c, 9, 41, 112
11, 186958, Note_on_c, 9, 63, 92
11, 186968, Note_on_c, 9, 57, 92
11, 186987, Note_off_c, 9, 63, 64
11, 186988, Note_off_c, 9, 41, 64
11, 186988, Note_off_c, 9, 36, 64
11, 186997, Note_off_c, 9, 57, 64
11, 187200, Note_on_c, 9, 57, 92
11, 187200, Note_on_c, 9, 64, 66
11, 187201, Note_on_c, 9, 36, 91
11, 187227, Note_off_c, 9, 64, 64
11, 187228, Note_off_c, 9, 57, 64
11, 187231, Note_off_c, 9, 36, 64
11, 187438, Note_on_c, 9, 63, 77
11, 187468, Note_off_c, 9, 63, 64
11, 187676, Note_on_c, 9, 64, 81
11, 187677, Note_on_c, 9, 51, 82
11, 187705, Note_off_c, 9, 64, 64
11, 187706, Note_off_c, 9, 51, 64
11, 187918, Note_on_c, 9, 40, 102
11, 187947, Note_off_c, 9, 40, 64
11, 188155, Note_on_c, 9, 64, 75
11, 188162, Note_on_c, 9, 51, 92
11, 188183, Note_off_c, 9, 64, 64
11, 188192, Note_off_c, 9, 51, 64
11, 188397, Note_on_c, 9, 36, 69
11, 188398, Note_on_c, 9, 63, 76
11, 188427, Note_off_c, 9, 36, 64
11, 188428, Note_off_c, 9, 63, 64
11, 188638, Note_on_c, 9, 36, 92
11, 188638, Note_on_c, 9, 62, 86
11, 188642, Note_on_c, 9, 51, 91
11, 188667, Note_off_c, 9, 36, 64
11, 188668, Note_off_c, 9, 62, 64
11, 188672, Note_off_c, 9, 51, 64
11, 188875, Note_on_c, 9, 51, 55
11, 188875, Note_on_c, 9, 63, 84
11, 188905, Note_off_c, 9, 63, 64
11, 188905, Note_off_c, 9, 51, 64
11, 189112, Note_on_c, 9, 70, 87
11, 189120, Note_on_c, 9, 51, 90
11, 189123, Note_on_c, 9, 64, 90
11, 189141, Note_off_c, 9, 70, 64
11, 189150, Note_off_c, 9, 51, 64
11, 189153, Note_off_c, 9, 64, 64
11, 189350, Note_on_c, 9, 70, 47
11, 189352, Note_on_c, 9, 51, 21
11, 189361, Note_on_c, 9, 40, 102
11, 189378, Note_off_c, 9, 70, 64
11, 189382, Note_off_c, 9, 51, 64
11, 189391, Note_off_c, 9, 40, 64
11, 189583, Note_on_c, 9, 40, 102
11, 189593, Note_on_c, 9, 64, 75
11, 189601, Note_on_c, 9, 51, 92
11, 189612, Note_off_c, 9, 40, 64
11, 189622, Note_off_c, 9, 64, 64
11, 189630, Note_off_c, 9, 51, 64
11, 189831, Note_on_c, 9, 41, 112
11, 189833, Note_on_c, 9, 51, 66
11, 189838, Note_on_c, 9, 63, 92
11, 189861, Note_off_c, 9, 41, 64
11, 189863, Note_off_c, 9, 51, 64
11, 189867, Note_off_c, 9, 63, 64
11, 190080, Note_on_c, 9, 64, 66
11, 190081, Note_on_c, 9, 36, 91
11, 190107, Note_off_c, 9, 64, 64
11, 190111, Note_off_c, 9, 36, 64
11, 190318, Note_on_c, 9, 63, 77
11, 190348, Note_off_c, 9, 63, 64
11, 190552, Note_on_c, 9, 70, 87
11, 190556, Note_on_c, 9, 64, 81
11, 190581, Note_off_c, 9, 70, 64
11, 190585, Note_off_c, 9, 64, 64
11, 190790, Note_on_c, 9, 70, 47
11, 190797, Note_on_c, 9, 40, 102
11, 190808, Note_on_c, 9, 51, 92
11, 190818, Note_off_c, 9, 70, 64
11, 190826, Note_off_c, 9, 40, 64
11, 190837, Note_off_c, 9, 51, 64
11, 191035, Note_on_c, 9, 64, 75
11, 191063, Note_off_c, 9, 64, 64
11, 191278, Note_on_c, 9, 36, 69
11, 191278, Note_on_c, 9, 63, 76
11, 191296, Note_on_c, 9, 51, 92
11, 191308, Note_off_c, 9, 63, 64
11, 191308, Note_off_c, 9, 36, 64
11, 191326, Note_off_c, 9, 51, 64
11, 191518, Note_on_c, 9, 36, 92
11, 191518, Note_on_c, 9, 62, 86
11, 191518, Note_on_c, 9, 76, 63
11, 191547, Note_off_c, 9, 76, 64
11, 191547, Note_off_c, 9, 36, 64
11, 191548, Note_off_c, 9, 62, 64
11, 191755, Note_on_c, 9, 63, 84
11, 191761, Note_on_c, 9, 51, 82
11, 191785, Note_off_c, 9, 63, 64
11, 191791, Note_off_c, 9, 51, 64
11, 192003, Note_on_c, 9, 64, 90
11, 192033, Note_off_c, 9, 64, 64
11, 192237, Note_on_c, 9, 49, 92
11, 192243, Note_on_c, 9, 40, 102
11, 192267, Note_off_c, 9, 49, 64
11, 192272, Note_off_c, 9, 40, 64
11, 192473, Note_on_c, 9, 64, 75
11, 192502, Note_off_c, 9, 64, 64
11, 192718, Note_on_c, 9, 36, 92
11, 192718, Note_on_c, 9, 41, 112
11, 192718, Note_on_c, 9, 63, 92
11, 192722, Note_on_c, 9, 57, 91
11, 192747, Note_off_c, 9, 63, 64
11, 192748, Note_off_c, 9, 41, 64
11, 192748, Note_off_c, 9, 36, 64
11, 192752, Note_off_c, 9, 57, 64
11, 192752, End_track
12, 0, Start_track
12, 0, MIDI_port, 0
12, 0, Channel_prefix, 10
12, 0, Control_c, 10, 10, 64
12, 215, Control_c, 10, 121, 0
12, 295, Control_c, 10, 101, 0
12, 375, Control_c, 10, 100, 0
12, 455, Control_c, 10, 6, 12
12, 535, Program_c, 10, 126
12, 1490, Control_c, 10, 93, 0
12, 1570, Control_c, 10, 91, 68
12, 1650, Control_c, 10, 10, 64
12, 1730, Control_c, 10, 7, 63
12, 54720, Note_on_c, 10, 61, 127
12, 55013, Pitch_bend_c, 10, 8074
12, 55025, Pitch_bend_c, 10, 7957
12, 55046, Pitch_bend_c, 10, 7723
12, 55058, Pitch_bend_c, 10, 7372
12, 55093, Pitch_bend_c, 10, 7138
12, 55115, Pitch_bend_c, 10, 6787
12, 55126, Pitch_bend_c, 10, 6670
12, 55148, Pitch_bend_c, 10, 6319
12, 55161, Pitch_bend_c, 10, 5968
12, 55182, Pitch_bend_c, 10, 5734
12, 55195, Pitch_bend_c, 10, 5617
12, 55217, Pitch_bend_c, 10, 5383
12, 55230, Pitch_bend_c, 10, 5032
12, 55265, Pitch_bend_c, 10, 4798
12, 55286, Pitch_bend_c, 10, 4447
12, 55320, Pitch_bend_c, 10, 4330
12, 55355, Pitch_bend_c, 10, 3745
12, 55388, Pitch_bend_c, 10, 3511
12, 55410, Pitch_bend_c, 10, 3277
12, 55435, Pitch_bend_c, 10, 3043
12, 55456, Pitch_bend_c, 10, 2809
12, 55503, Pitch_bend_c, 10, 2692
12, 55537, Pitch_bend_c, 10, 2458
12, 55581, Pitch_bend_c, 10, 2224
12, 55605, Pitch_bend_c, 10, 1990
12, 55651, Pitch_bend_c, 10, 1873
12, 55696, Pitch_bend_c, 10, 1639
12, 55731, Pitch_bend_c, 10, 1405
12, 55776, Pitch_bend_c, 10, 1288
12, 55833, Pitch_bend_c, 10, 1054
12, 55855, Pitch_bend_c, 10, 937
12, 55867, Pitch_bend_c, 10, 703
12, 55890, Pitch_bend_c, 10, 469
12, 55913, Pitch_bend_c, 10, 235
12, 55935, Pitch_bend_c, 10, 118
12, 55968, Pitch_bend_c, 10, 0
12, 56281, Note_off_c, 10, 61, 64
12, 57393, Pitch_bend_c, 10, 118
12, 57403, Pitch_bend_c, 10, 9362
12, 57426, Pitch_bend_c, 10, 8192
12, 57426, End_track
13, 0, Start_track
13, 0, MIDI_port, 0
13, 0, Channel_prefix, 11
13, 0, Control_c, 11, 10, 64
13, 220, Control_c, 11, 121, 0
13, 300, Control_c, 11, 101, 0
13, 380, Control_c, 11, 100, 0
13, 460, Control_c, 11, 6, 12
13, 540, Program_c, 11, 27
13, 1495, Control_c, 11, 93, 127
13, 1575, Control_c, 11, 91, 87
13, 1655, Control_c, 11, 10, 64
13, 1735, Control_c, 11, 7, 80
13, 78461, Note_on_c, 11, 59, 87
13, 78470, Note_on_c, 11, 67, 87
13, 78470, Note_on_c, 11, 71, 91
13, 78565, Note_off_c, 11, 59, 64
13, 78567, Note_off_c, 11, 71, 64
13, 78576, Note_off_c, 11, 67, 64
13, 79196, Pitch_bend_c, 11, 8182
13, 79196, Note_on_c, 11, 52, 112
13, 79207, Pitch_bend_c, 11, 8160
13, 79230, Pitch_bend_c, 11, 8160
13, 79247, Pitch_bend_c, 11, 8202
13, 79261, Pitch_bend_c, 11, 8224
13, 79438, Note_on_c, 11, 55, 118
13, 79438, Pitch_bend_c, 11, 8192
13, 79666, Note_on_c, 11, 62, 127
13, 79666, Pitch_bend_c, 11, 8192
13, 80762, Note_off_c, 11, 55, 64
13, 80786, Note_off_c, 11, 52, 64
13, 80805, Note_off_c, 11, 62, 64
13, 81361, Note_on_c, 11, 69, 88
13, 81361, Note_on_c, 11, 66, 85
13, 81361, Note_on_c, 11, 62, 107
13, 81392, Note_off_c, 11, 62, 64
13, 81392, Note_off_c, 11, 66, 64
13, 81392, Note_off_c, 11, 69, 64
13, 84238, Note_on_c, 11, 71, 107
13, 84238, Note_on_c, 11, 67, 77
13, 84238, Note_on_c, 11, 64, 107
13, 84270, Note_off_c, 11, 64, 64
13, 84270, Note_off_c, 11, 67, 64
13, 84270, Note_off_c, 11, 71, 64
13, 87118, Note_on_c, 11, 67, 77
13, 87118, Note_on_c, 11, 64, 107
13, 87118, Note_on_c, 11, 71, 107
13, 87150, Note_off_c, 11, 71, 64
13, 87150, Note_off_c, 11, 64, 64
13, 87150, Note_off_c, 11, 67, 64
13, 89998, Note_on_c, 11, 67, 107
13, 89998, Note_on_c, 11, 59, 107
13, 90001, Note_on_c, 11, 62, 86
13, 90030, Note_off_c, 11, 59, 64
13, 90030, Note_off_c, 11, 67, 64
13, 90032, Note_off_c, 11, 62, 64
13, 92878, Note_on_c, 11, 69, 62
13, 92878, Note_on_c, 11, 74, 107
13, 92878, Note_on_c, 11, 66, 107
13, 92910, Note_off_c, 11, 66, 64
13, 92910, Note_off_c, 11, 74, 64
13, 92910, Note_off_c, 11, 69, 64
13, 95758, Note_on_c, 11, 60, 107
13, 95761, Note_on_c, 11, 69, 107
13, 95761, Note_on_c, 11, 64, 74
13, 95790, Note_off_c, 11, 60, 64
13, 95792, Note_off_c, 11, 69, 64
13, 95792, Note_off_c, 11, 64, 64
13, 98638, Note_on_c, 11, 76, 107
13, 98638, Note_on_c, 11, 67, 107
13, 98641, Note_on_c, 11, 71, 65
13, 98670, Note_off_c, 11, 67, 64
13, 98670, Note_off_c, 11, 76, 64
13, 98672, Note_off_c, 11, 71, 64
13, 101521, Note_on_c, 11, 67, 107
13, 101521, Note_on_c, 11, 74, 107
13, 101521, Note_on_c, 11, 71, 71
13, 101552, Note_off_c, 11, 71, 64
13, 101552, Note_off_c, 11, 74, 64
13, 101552, Note_off_c, 11, 67, 64
13, 104398, Note_on_c, 11, 66, 107
13, 104398, Note_on_c, 11, 74, 107
13, 104398, Note_on_c, 11, 69, 74
13, 104430, Note_off_c, 11, 69, 64
13, 104430, Note_off_c, 11, 74, 64
13, 104430, Note_off_c, 11, 66, 64
13, 107278, Note_on_c, 11, 72, 107
13, 107278, Note_on_c, 11, 64, 107
13, 107278, Note_on_c, 11, 67, 66
13, 107310, Note_off_c, 11, 67, 64
13, 107310, Note_off_c, 11, 64, 64
13, 107310, Note_off_c, 11, 72, 64
13, 110158, Note_on_c, 11, 71, 96
13, 110158, Note_on_c, 11, 74, 127
13, 110158, Note_on_c, 11, 67, 127
13, 110190, Note_off_c, 11, 67, 64
13, 110190, Note_off_c, 11, 74, 64
13, 110190, Note_off_c, 11, 71, 64
13, 110878, Note_on_c, 11, 50, 127
13, 110907, Pitch_bend_c, 11, 8250
13, 110930, Pitch_bend_c, 11, 8234
13, 110960, Pitch_bend_c, 11, 8213
13, 111057, Pitch_bend_c, 11, 8197
13, 111102, Pitch_bend_c, 11, 8192
13, 111103, Note_on_c, 11, 57, 127
13, 111346, Note_on_c, 11, 62, 113
13, 111346, Pitch_bend_c, 11, 8192
13, 111416, Note_off_c, 11, 50, 64
13, 111818, Note_on_c, 11, 64, 127
13, 111818, Pitch_bend_c, 11, 8192
13, 111926, Pitch_bend_c, 11, 8192
13, 112321, Note_off_c, 11, 57, 64
13, 112321, Note_off_c, 11, 62, 64
13, 112321, Note_off_c, 11, 64, 64
13, 113038, Note_on_c, 11, 67, 77
13, 113038, Note_on_c, 11, 71, 107
13, 113038, Note_on_c, 11, 59, 107
13, 113070, Note_off_c, 11, 59, 64
13, 113070, Note_off_c, 11, 71, 64
13, 113070, Note_off_c, 11, 67, 64
13, 115921, Note_on_c, 11, 62, 107
13, 115922, Note_on_c, 11, 66, 85
13, 115922, Note_on_c, 11, 69, 88
13, 115952, Note_off_c, 11, 62, 64
13, 115953, Note_off_c, 11, 66, 64
13, 115953, Note_off_c, 11, 69, 64
13, 118798, Note_on_c, 11, 64, 107
13, 118798, Note_on_c, 11, 67, 77
13, 118798, Note_on_c, 11, 71, 107
13, 118830, Note_off_c, 11, 71, 64
13, 118830, Note_off_c, 11, 67, 64
13, 118830, Note_off_c, 11, 64, 64
13, 121678, Note_on_c, 11, 71, 107
13, 121678, Note_on_c, 11, 64, 107
13, 121678, Note_on_c, 11, 67, 77
13, 121710, Note_off_c, 11, 67, 64
13, 121710, Note_off_c, 11, 64, 64
13, 121710, Note_off_c, 11, 71, 64
13, 136077, Note_on_c, 11, 59, 107
13, 136077, Note_on_c, 11, 67, 107
13, 136110, Note_on_c, 11, 62, 86
13, 136115, Note_off_c, 11, 62, 64
13, 136170, Note_off_c, 11, 67, 64
13, 136175, Note_off_c, 11, 59, 64
13, 138922, Note_on_c, 11, 66, 107
13, 138927, Note_on_c, 11, 74, 107
13, 138947, Note_on_c, 11, 69, 62
13, 139060, Note_off_c, 11, 74, 64
13, 139065, Note_off_c, 11, 69, 64
13, 139066, Note_off_c, 11, 66, 64
13, 141838, Note_on_c, 11, 60, 107
13, 141842, Note_on_c, 11, 64, 74
13, 141842, Note_on_c, 11, 69, 107
13, 141938, Note_off_c, 11, 69, 64
13, 141941, Note_off_c, 11, 60, 64
13, 141953, Note_off_c, 11, 64, 64
13, 144710, Note_on_c, 11, 67, 107
13, 144716, Note_on_c, 11, 76, 107
13, 144722, Note_on_c, 11, 71, 65
13, 144820, Note_off_c, 11, 71, 64
13, 144820, Note_off_c, 11, 67, 64
13, 144822, Note_off_c, 11, 76, 64
13, 145451, Note_on_c, 11, 45, 113
13, 145451, Pitch_bend_c, 11, 8192
13, 145665, Note_on_c, 11, 57, 118
13, 145665, Pitch_bend_c, 11, 8192
13, 145915, Pitch_bend_c, 11, 8192
13, 145916, Note_on_c, 11, 62, 115
13, 146093, Note_off_c, 11, 62, 64
13, 146131, Note_on_c, 11, 62, 111
13, 146131, Pitch_bend_c, 11, 8192
13, 146341, Note_off_c, 11, 57, 64
13, 146378, Note_on_c, 11, 57, 112
13, 146378, Pitch_bend_c, 11, 8192
13, 146618, Note_on_c, 11, 50, 114
13, 146618, Pitch_bend_c, 11, 8192
13, 146881, Note_off_c, 11, 50, 64
13, 146881, Note_off_c, 11, 45, 64
13, 146881, Note_off_c, 11, 62, 64
13, 146881, Note_off_c, 11, 57, 64
13, 147606, Note_on_c, 11, 67, 107
13, 147611, Note_on_c, 11, 71, 71
13, 147611, Note_on_c, 11, 74, 107
13, 147712, Note_off_c, 11, 71, 64
13, 147713, Note_off_c, 11, 67, 64
13, 147716, Note_off_c, 11, 74, 64
13, 150468, Note_on_c, 11, 66, 107
13, 150473, Note_on_c, 11, 69, 74
13, 150473, Note_on_c, 11, 74, 107
13, 150556, Note_off_c, 11, 66, 64
13, 150560, Note_off_c, 11, 69, 64
13, 150561, Note_off_c, 11, 74, 64
13, 153343, Note_on_c, 11, 64, 107
13, 153348, Note_on_c, 11, 72, 107
13, 153357, Note_on_c, 11, 67, 66
13, 153448, Note_off_c, 11, 72, 64
13, 153448, Note_off_c, 11, 64, 64
13, 153453, Note_off_c, 11, 67, 64
13, 156220, Note_on_c, 11, 67, 127
13, 156225, Note_on_c, 11, 74, 127
13, 156226, Note_on_c, 11, 71, 96
13, 156263, Note_off_c, 11, 71, 64
13, 156317, Note_off_c, 11, 67, 64
13, 156318, Note_off_c, 11, 74, 64
13, 156943, Pitch_bend_c, 11, 8192
13, 156943, Note_on_c, 11, 50, 127
13, 156987, Pitch_bend_c, 11, 8250
13, 157010, Pitch_bend_c, 11, 8234
13, 157040, Pitch_bend_c, 11, 8213
13, 157137, Pitch_bend_c, 11, 8197
13, 157182, Pitch_bend_c, 11, 8192
13, 157183, Note_on_c, 11, 57, 127
13, 157426, Note_on_c, 11, 62, 113
13, 157426, Pitch_bend_c, 11, 8192
13, 157898, Note_on_c, 11, 64, 127
13, 157898, Pitch_bend_c, 11, 8192
13, 158006, Pitch_bend_c, 11, 8192
13, 158401, Note_off_c, 11, 64, 64
13, 158401, Note_off_c, 11, 62, 64
13, 158401, Note_off_c, 11, 57, 64
13, 158401, Note_off_c, 11, 50, 64
13, 159101, Note_on_c, 11, 59, 107
13, 159110, Note_on_c, 11, 67, 77
13, 159110, Note_on_c, 11, 71, 107
13, 159205, Note_off_c, 11, 59, 64
13, 159207, Note_off_c, 11, 71, 64
13, 159216, Note_off_c, 11, 67, 64
13, 162017, Note_on_c, 11, 62, 107
13, 162022, Note_on_c, 11, 69, 88
13, 162023, Note_on_c, 11, 66, 85
13, 162047, Note_off_c, 11, 62, 64
13, 162105, Note_off_c, 11, 69, 64
13, 162110, Note_off_c, 11, 66, 64
13, 164875, Note_on_c, 11, 64, 107
13, 164875, Note_on_c, 11, 67, 77
13, 164875, Note_on_c, 11, 71, 107
13, 164908, Note_off_c, 11, 67, 64
13, 164953, Note_off_c, 11, 71, 64
13, 164963, Note_off_c, 11, 64, 64
13, 167742, Note_on_c, 11, 71, 107
13, 167748, Note_on_c, 11, 64, 107
13, 167748, Note_on_c, 11, 67, 77
13, 167857, Note_off_c, 11, 67, 64
13, 167860, Note_off_c, 11, 71, 64
13, 167865, Note_off_c, 11, 64, 64
13, 170622, Note_on_c, 11, 71, 107
13, 170628, Note_on_c, 11, 64, 107
13, 170628, Note_on_c, 11, 67, 77
13, 170737, Note_off_c, 11, 67, 64
13, 170740, Note_off_c, 11, 71, 64
13, 170745, Note_off_c, 11, 64, 64
13, 173502, Note_on_c, 11, 71, 107
13, 173508, Note_on_c, 11, 64, 107
13, 173508, Note_on_c, 11, 67, 77
13, 173617, Note_off_c, 11, 67, 64
13, 173620, Note_off_c, 11, 71, 64
13, 173625, Note_off_c, 11, 64, 64
13, 176382, Note_on_c, 11, 71, 107
13, 176388, Note_on_c, 11, 64, 107
13, 176388, Note_on_c, 11, 67, 77
13, 176497, Note_off_c, 11, 67, 64
13, 176500, Note_off_c, 11, 71, 64
13, 176505, Note_off_c, 11, 64, 64
13, 179262, Note_on_c, 11, 71, 107
13, 179268, Note_on_c, 11, 64, 107
13, 179268, Note_on_c, 11, 67, 77
13, 179377, Note_off_c, 11, 67, 64
13, 179380, Note_off_c, 11, 71, 64
13, 179385, Note_off_c, 11, 64, 64
13, 182142, Note_on_c, 11, 71, 107
13, 182148, Note_on_c, 11, 64, 107
13, 182148, Note_on_c, 11, 67, 77
13, 182257, Note_off_c, 11, 67, 64
13, 182260, Note_off_c, 11, 71, 64
13, 182265, Note_off_c, 11, 64, 64
13, 185022, Note_on_c, 11, 71, 107
13, 185028, Note_on_c, 11, 64, 107
13, 185028, Note_on_c, 11, 67, 77
13, 185137, Note_off_c, 11, 67, 64
13, 185140, Note_off_c, 11, 71, 64
13, 185145, Note_off_c, 11, 64, 64
13, 187902, Note_on_c, 11, 71, 107
13, 187908, Note_on_c, 11, 64, 107
13, 187908, Note_on_c, 11, 67, 77
13, 188017, Note_off_c, 11, 67, 64
13, 188020, Note_off_c, 11, 71, 64
13, 188025, Note_off_c, 11, 64, 64
13, 190782, Note_on_c, 11, 71, 107
13, 190788, Note_on_c, 11, 64, 107
13, 190788, Note_on_c, 11, 67, 77
13, 190897, Note_off_c, 11, 67, 64
13, 190900, Note_off_c, 11, 71, 64
13, 190905, Note_off_c, 11, 64, 64
13, 190905, End_track
14, 0, Start_track
14, 0, MIDI_port, 0
14, 0, Channel_prefix, 12
14, 0, Control_c, 12, 10, 64
14, 225, Control_c, 12, 121, 0
14, 305, Control_c, 12, 101, 0
14, 385, Control_c, 12, 100, 0
14, 465, Control_c, 12, 6, 12
14, 545, Program_c, 12, 18
14, 1500, Control_c, 12, 93, 0
14, 1580, Control_c, 12, 91, 70
14, 1660, Control_c, 12, 10, 45
14, 1740, Control_c, 12, 7, 40
14, 2896, Note_on_c, 12, 79, 86
14, 2896, Note_on_c, 12, 76, 61
14, 2897, Note_on_c, 12, 71, 60
14, 2898, Note_on_c, 12, 83, 53
14, 11398, Note_off_c, 12, 83, 64
14, 11436, Note_off_c, 12, 76, 64
14, 11436, Note_off_c, 12, 79, 64
14, 11457, Note_off_c, 12, 71, 64
14, 11502, Note_on_c, 12, 69, 64
14, 11505, Note_on_c, 12, 74, 61
14, 11507, Note_on_c, 12, 78, 65
14, 14240, Note_off_c, 12, 69, 64
14, 14277, Note_off_c, 12, 78, 64
14, 14303, Note_off_c, 12, 74, 64
14, 14315, Note_on_c, 12, 76, 20
14, 14333, Note_on_c, 12, 79, 58
14, 14350, Note_on_c, 12, 71, 57
14, 15683, Note_off_c, 12, 79, 64
14, 15695, Note_off_c, 12, 71, 64
14, 15775, Note_on_c, 12, 72, 53
14, 15785, Note_on_c, 12, 67, 70
14, 16458, Note_off_c, 12, 67, 64
14, 16473, Note_off_c, 12, 72, 64
14, 16521, Note_on_c, 12, 78, 53
14, 16548, Note_off_c, 12, 76, 64
14, 16548, Note_on_c, 12, 69, 65
14, 16557, Note_on_c, 12, 74, 65
14, 17210, Note_off_c, 12, 69, 64
14, 17231, Note_on_c, 12, 76, 49
14, 17253, Note_off_c, 12, 74, 64
14, 17263, Note_off_c, 12, 78, 64
14, 17283, Note_on_c, 12, 79, 85
14, 17287, Note_on_c, 12, 71, 61
14, 22871, Note_off_c, 12, 76, 64
14, 22927, Note_off_c, 12, 71, 64
14, 23003, Note_off_c, 12, 79, 64
14, 23030, Note_on_c, 12, 69, 51
14, 23035, Note_on_c, 12, 78, 47
14, 23042, Note_on_c, 12, 74, 61
14, 25778, Note_off_c, 12, 69, 64
14, 25826, Note_off_c, 12, 78, 64
14, 25853, Note_on_c, 12, 76, 33
14, 25888, Note_on_c, 12, 79, 80
14, 25890, Note_on_c, 12, 71, 60
14, 25916, Note_off_c, 12, 74, 64
14, 27211, Note_off_c, 12, 71, 64
14, 27250, Note_off_c, 12, 79, 64
14, 27316, Note_on_c, 12, 72, 60
14, 27326, Note_on_c, 12, 67, 61
14, 27966, Note_off_c, 12, 67, 64
14, 28000, Note_off_c, 12, 72, 64
14, 28023, Note_on_c, 12, 78, 52
14, 28038, Note_off_c, 12, 76, 64
14, 28057, Note_on_c, 12, 69, 63
14, 28076, Note_on_c, 12, 74, 58
14, 28737, Note_off_c, 12, 69, 64
14, 28758, Note_off_c, 12, 74, 64
14, 28771, Note_off_c, 12, 78, 64
14, 28795, Note_on_c, 12, 79, 88
14, 28796, Note_on_c, 12, 76, 28
14, 28823, Note_on_c, 12, 71, 62
14, 31670, Note_off_c, 12, 79, 64
14, 31680, Note_on_c, 12, 79, 76
14, 31681, Note_off_c, 12, 76, 64
14, 31681, Note_off_c, 12, 71, 64
14, 31681, Note_on_c, 12, 71, 53
14, 31685, Note_on_c, 12, 74, 68
14, 34463, Note_off_c, 12, 71, 64
14, 34507, Note_on_c, 12, 78, 47
14, 34518, Note_off_c, 12, 79, 64
14, 34525, Note_on_c, 12, 69, 68
14, 37412, Note_off_c, 12, 69, 64
14, 37413, Note_off_c, 12, 78, 64
14, 37415, Note_off_c, 12, 74, 64
14, 37436, Note_on_c, 12, 72, 56
14, 37440, Note_on_c, 12, 81, 70
14, 37440, Note_on_c, 12, 76, 62
14, 40273, Note_off_c, 12, 72, 64
14, 40303, Note_off_c, 12, 81, 64
14, 40328, Note_on_c, 12, 71, 60
14, 40338, Note_on_c, 12, 79, 78
14, 42406, Note_off_c, 12, 71, 64
14, 42451, Note_off_c, 12, 79, 64
14, 42457, Note_on_c, 12, 78, 55
14, 42488, Note_on_c, 12, 81, 70
14, 42500, Note_on_c, 12, 74, 77
14, 42516, Note_off_c, 12, 76, 64
14, 43116, Note_off_c, 12, 81, 64
14, 43121, Note_off_c, 12, 74, 64
14, 43126, Note_off_c, 12, 78, 64
14, 43201, Note_on_c, 12, 83, 65
14, 43202, Note_on_c, 12, 79, 83
14, 43207, Note_on_c, 12, 74, 60
14, 46052, Note_off_c, 12, 83, 64
14, 46061, Note_on_c, 12, 78, 57
14, 46085, Note_off_c, 12, 79, 64
14, 46096, Note_on_c, 12, 81, 47
14, 48837, Note_off_c, 12, 78, 64
14, 48842, Note_off_c, 12, 74, 64
14, 48908, Note_on_c, 12, 76, 64
14, 48918, Note_on_c, 12, 72, 60
14, 48920, Note_on_c, 12, 79, 85
14, 48972, Note_off_c, 12, 81, 64
14, 51758, Note_off_c, 12, 72, 64
14, 51823, Note_on_c, 12, 71, 60
14, 51825, Note_on_c, 12, 74, 71
14, 51841, Note_off_c, 12, 76, 64
14, 53181, Note_off_c, 12, 71, 64
14, 53221, Note_off_c, 12, 79, 64
14, 53251, Note_on_c, 12, 78, 64
14, 53261, Note_on_c, 12, 69, 66
14, 54701, Note_off_c, 12, 78, 64
14, 54702, Note_off_c, 12, 74, 64
14, 54703, Note_off_c, 12, 69, 64
14, 54720, Note_on_c, 12, 76, 70
14, 54720, Note_on_c, 12, 79, 84
14, 54720, Note_on_c, 12, 71, 59
14, 57498, Note_off_c, 12, 79, 64
14, 57532, Note_off_c, 12, 71, 64
14, 57555, Note_off_c, 12, 76, 64
14, 57573, Note_on_c, 12, 74, 70
14, 57577, Note_on_c, 12, 78, 68
14, 57585, Note_on_c, 12, 69, 61
14, 60337, Note_off_c, 12, 69, 64
14, 60348, Note_off_c, 12, 78, 64
14, 60366, Note_off_c, 12, 74, 64
14, 60448, Note_on_c, 12, 79, 81
14, 60450, Note_on_c, 12, 76, 56
14, 60453, Note_on_c, 12, 71, 54
14, 61873, Note_off_c, 12, 71, 64
14, 61893, Note_on_c, 12, 72, 75
14, 62527, Note_off_c, 12, 79, 64
14, 62556, Note_off_c, 12, 72, 64
14, 62593, Note_off_c, 12, 76, 64
14, 62596, Note_on_c, 12, 69, 59
14, 62611, Note_on_c, 12, 78, 64
14, 62621, Note_on_c, 12, 74, 65
14, 63272, Note_off_c, 12, 69, 64
14, 63296, Note_off_c, 12, 78, 64
14, 63325, Note_off_c, 12, 74, 64
14, 63346, Note_on_c, 12, 76, 72
14, 63351, Note_on_c, 12, 79, 94
14, 63352, Note_on_c, 12, 71, 66
14, 69032, Note_off_c, 12, 71, 64
14, 69083, Note_on_c, 12, 72, 80
14, 71906, Note_off_c, 12, 76, 64
14, 71920, Note_off_c, 12, 72, 64
14, 71986, Note_on_c, 12, 71, 55
14, 72017, Note_on_c, 12, 74, 70
14, 73331, Note_off_c, 12, 79, 64
14, 73336, Note_off_c, 12, 71, 64
14, 73407, Note_on_c, 12, 78, 71
14, 73417, Note_on_c, 12, 69, 68
14, 74805, Note_off_c, 12, 69, 64
14, 74847, Note_off_c, 12, 78, 64
14, 74868, Note_on_c, 12, 76, 52
14, 74883, Note_on_c, 12, 71, 68
14, 74916, Note_on_c, 12, 79, 73
14, 74918, Note_off_c, 12, 74, 64
14, 80606, Note_off_c, 12, 71, 64
14, 80607, Note_off_c, 12, 79, 64
14, 80612, Note_off_c, 12, 76, 64
14, 80640, Note_on_c, 12, 74, 73
14, 80640, Note_on_c, 12, 78, 71
14, 80640, Note_on_c, 12, 69, 69
14, 83450, Note_off_c, 12, 69, 64
14, 83471, Note_off_c, 12, 78, 64
14, 83505, Note_on_c, 12, 76, 66
14, 83511, Note_on_c, 12, 71, 80
14, 83522, Note_on_c, 12, 79, 91
14, 83568, Note_off_c, 12, 74, 64
14, 84932, Note_on_c, 12, 72, 87
14, 84935, Note_off_c, 12, 71, 64
14, 85607, Note_off_c, 12, 72, 64
14, 85620, Note_off_c, 12, 79, 64
14, 85658, Note_on_c, 12, 69, 67
14, 85661, Note_off_c, 12, 76, 64
14, 85676, Note_on_c, 12, 78, 51
14, 85685, Note_on_c, 12, 74, 66
14, 86303, Note_off_c, 12, 69, 64
14, 86337, Note_off_c, 12, 78, 64
14, 86380, Note_on_c, 12, 76, 66
14, 86391, Note_on_c, 12, 79, 94
14, 86393, Note_on_c, 12, 71, 72
14, 86426, Note_off_c, 12, 74, 64
14, 89238, Note_off_c, 12, 79, 64
14, 89248, Note_off_c, 12, 76, 64
14, 89248, Note_off_c, 12, 71, 64
14, 89280, Note_on_c, 12, 83, 71
14, 89280, Note_on_c, 12, 74, 73
14, 89280, Note_on_c, 12, 79, 100
14, 92087, Note_off_c, 12, 79, 64
14, 92153, Note_on_c, 12, 81, 86
14, 92158, Note_on_c, 12, 78, 82
14, 92193, Note_off_c, 12, 83, 64
14, 94993, Note_off_c, 12, 74, 64
14, 95056, Note_on_c, 12, 84, 100
14, 95056, Note_on_c, 12, 76, 80
14, 95075, Note_off_c, 12, 78, 64
14, 97888, Note_off_c, 12, 84, 64
14, 97902, Note_on_c, 12, 83, 71
14, 97905, Note_on_c, 12, 79, 102
14, 97936, Note_off_c, 12, 81, 64
14, 100001, Note_off_c, 12, 79, 64
14, 100027, Note_off_c, 12, 76, 64
14, 100077, Note_on_c, 12, 81, 74
14, 100085, Note_on_c, 12, 74, 80
14, 100086, Note_on_c, 12, 78, 99
14, 100101, Note_off_c, 12, 83, 64
14, 100701, Note_off_c, 12, 81, 64
14, 100706, Note_off_c, 12, 74, 64
14, 100712, Note_off_c, 12, 78, 64
14, 100786, Note_on_c, 12, 74, 85
14, 100786, Note_on_c, 12, 83, 85
14, 100787, Note_on_c, 12, 79, 106
14, 103681, Note_off_c, 12, 83, 64
14, 103682, Note_on_c, 12, 81, 78
14, 103683, Note_on_c, 12, 78, 93
14, 103708, Note_off_c, 12, 79, 64
14, 106480, Note_off_c, 12, 78, 64
14, 106493, Note_off_c, 12, 74, 64
14, 106538, Note_on_c, 12, 79, 69
14, 106548, Note_on_c, 12, 72, 80
14, 106553, Note_on_c, 12, 76, 92
14, 106607, Note_off_c, 12, 81, 64
14, 109385, Note_off_c, 12, 72, 64
14, 109435, Note_on_c, 12, 74, 87
14, 109443, Note_on_c, 12, 71, 73
14, 109453, Note_off_c, 12, 76, 64
14, 110791, Note_off_c, 12, 71, 64
14, 110822, Note_off_c, 12, 79, 64
14, 110838, Note_on_c, 12, 78, 62
14, 110858, Note_on_c, 12, 69, 83
14, 112248, Note_off_c, 12, 69, 64
14, 112252, Note_off_c, 12, 78, 64
14, 112253, Note_off_c, 12, 74, 64
14, 112345, Note_on_c, 12, 83, 77
14, 112346, Note_on_c, 12, 76, 78
14, 112347, Note_on_c, 12, 79, 92
14, 115101, Note_off_c, 12, 79, 64
14, 115123, Note_off_c, 12, 76, 64
14, 115173, Note_on_c, 12, 81, 80
14, 115180, Note_on_c, 12, 74, 77
14, 115185, Note_on_c, 12, 78, 101
14, 115207, Note_off_c, 12, 83, 64
14, 117938, Note_off_c, 12, 74, 64
14, 117982, Note_off_c, 12, 78, 64
14, 118031, Note_off_c, 12, 81, 64
14, 118040, Note_on_c, 12, 76, 79
14, 118041, Note_on_c, 12, 83, 80
14, 118042, Note_on_c, 12, 79, 92
14, 119521, Note_on_c, 12, 84, 97
14, 119546, Note_off_c, 12, 83, 64
14, 120155, Note_off_c, 12, 79, 64
14, 120185, Note_off_c, 12, 76, 64
14, 120216, Note_on_c, 12, 81, 65
14, 120232, Note_on_c, 12, 78, 99
14, 120233, Note_on_c, 12, 74, 70
14, 120245, Note_off_c, 12, 84, 64
14, 120888, Note_off_c, 12, 74, 64
14, 120913, Note_off_c, 12, 78, 64
14, 120918, Note_on_c, 12, 83, 61
14, 120935, Note_off_c, 12, 81, 64
14, 120940, Note_on_c, 12, 76, 78
14, 120943, Note_on_c, 12, 79, 88
14, 126727, Note_on_c, 12, 84, 97
14, 126752, Note_off_c, 12, 83, 64
14, 129552, Note_off_c, 12, 84, 64
14, 129570, Note_off_c, 12, 76, 64
14, 129621, Note_on_c, 12, 83, 73
14, 129626, Note_on_c, 12, 74, 88
14, 130971, Note_off_c, 12, 79, 64
14, 131046, Note_on_c, 12, 81, 86
14, 131057, Note_on_c, 12, 78, 101
14, 131077, Note_off_c, 12, 83, 64
14, 132387, Note_off_c, 12, 74, 64
14, 132416, Note_off_c, 12, 78, 64
14, 132452, Note_on_c, 12, 83, 79
14, 132452, Note_on_c, 12, 79, 87
14, 132456, Note_on_c, 12, 76, 78
14, 132478, Note_off_c, 12, 81, 64
14, 134532, Note_off_c, 12, 79, 64
14, 134571, Note_off_c, 12, 76, 64
14, 134621, Note_on_c, 12, 81, 64
14, 134628, Note_on_c, 12, 78, 107
14, 134628, Note_on_c, 12, 74, 86
14, 134662, Note_off_c, 12, 83, 64
14, 135321, Note_off_c, 12, 74, 64
14, 135332, Note_off_c, 12, 81, 64
14, 135342, Note_off_c, 12, 78, 64
14, 135360, Note_on_c, 12, 83, 83
14, 135360, Note_on_c, 12, 79, 80
14, 135360, Note_on_c, 12, 86, 79
14, 138145, Note_off_c, 12, 79, 64
14, 138155, Note_off_c, 12, 83, 64
14, 138235, Note_on_c, 12, 81, 92
14, 138235, Note_on_c, 12, 78, 95
14, 141036, Note_off_c, 12, 78, 64
14, 141065, Note_off_c, 12, 86, 64
14, 141108, Note_on_c, 12, 84, 83
14, 141108, Note_on_c, 12, 76, 74
14, 143906, Note_off_c, 12, 81, 64
14, 143986, Note_on_c, 12, 83, 78
14, 143993, Note_on_c, 12, 79, 85
14, 144028, Note_off_c, 12, 84, 64
14, 146040, Note_off_c, 12, 76, 64
14, 146061, Note_off_c, 12, 79, 64
14, 146090, Note_off_c, 12, 83, 64
14, 146142, Note_on_c, 12, 81, 98
14, 146143, Note_on_c, 12, 86, 97
14, 146145, Note_on_c, 12, 78, 87
14, 146831, Note_off_c, 12, 78, 64
14, 146865, Note_on_c, 12, 83, 86
14, 146868, Note_on_c, 12, 79, 95
14, 146893, Note_off_c, 12, 81, 64
14, 149705, Note_off_c, 12, 79, 64
14, 149736, Note_off_c, 12, 83, 64
14, 149777, Note_on_c, 12, 81, 68
14, 149785, Note_on_c, 12, 78, 89
14, 152542, Note_off_c, 12, 86, 64
14, 152548, Note_off_c, 12, 78, 64
14, 152558, Note_off_c, 12, 81, 64
14, 152616, Note_on_c, 12, 76, 81
14, 152620, Note_on_c, 12, 79, 94
14, 152621, Note_on_c, 12, 84, 74
14, 155462, Note_off_c, 12, 76, 64
14, 155472, Note_off_c, 12, 84, 64
14, 155517, Note_on_c, 12, 74, 76
14, 155525, Note_on_c, 12, 83, 78
14, 156847, Note_off_c, 12, 79, 64
14, 156936, Note_on_c, 12, 78, 84
14, 156936, Note_on_c, 12, 81, 85
14, 156957, Note_off_c, 12, 83, 64
14, 158368, Note_off_c, 12, 74, 64
14, 158368, Note_off_c, 12, 81, 64
14, 158371, Note_off_c, 12, 78, 64
14, 158408, Note_on_c, 12, 76, 86
14, 158408, Note_on_c, 12, 83, 80
14, 158411, Note_on_c, 12, 79, 108
14, 161195, Note_off_c, 12, 79, 64
14, 161225, Note_off_c, 12, 76, 64
14, 161270, Note_on_c, 12, 81, 83
14, 161276, Note_on_c, 12, 78, 82
14, 161280, Note_on_c, 12, 74, 72
14, 161307, Note_off_c, 12, 83, 64
14, 164060, Note_off_c, 12, 74, 64
14, 164112, Note_off_c, 12, 78, 64
14, 164145, Note_off_c, 12, 81, 64
14, 164151, Note_on_c, 12, 76, 85
14, 164152, Note_on_c, 12, 83, 84
14, 164155, Note_on_c, 12, 79, 100
14, 165605, Note_on_c, 12, 84, 104
14, 165613, Note_off_c, 12, 83, 64
14, 166250, Note_off_c, 12, 79, 64
14, 166267, Note_off_c, 12, 76, 64
14, 166307, Note_off_c, 12, 84, 64
14, 166310, Note_on_c, 12, 81, 59
14, 166326, Note_on_c, 12, 78, 97
14, 166326, Note_on_c, 12, 74, 86
14, 166967, Note_off_c, 12, 74, 64
14, 166988, Note_off_c, 12, 78, 64
14, 167022, Note_on_c, 12, 83, 73
14, 167031, Note_on_c, 12, 76, 94
14, 167032, Note_on_c, 12, 79, 104
14, 167053, Note_off_c, 12, 81, 64
14, 168425, Note_on_c, 12, 84, 104
14, 168433, Note_off_c, 12, 83, 64
14, 169098, Note_off_c, 12, 79, 64
14, 169115, Note_off_c, 12, 76, 64
14, 169176, Note_on_c, 12, 74, 98
14, 169176, Note_on_c, 12, 81, 95
14, 169178, Note_on_c, 12, 78, 107
14, 169196, Note_off_c, 12, 84, 64
14, 169837, Note_off_c, 12, 74, 64
14, 169840, Note_off_c, 12, 81, 64
14, 169840, Note_off_c, 12, 78, 64
14, 169920, Note_on_c, 12, 79, 92
14, 169920, Note_on_c, 12, 76, 83
14, 169920, Note_on_c, 12, 83, 81
14, 171337, Note_on_c, 12, 84, 106
14, 171370, Note_off_c, 12, 83, 64
14, 171992, Note_off_c, 12, 79, 64
14, 172008, Note_off_c, 12, 76, 64
14, 172051, Note_on_c, 12, 81, 60
14, 172058, Note_off_c, 12, 84, 64
14, 172065, Note_on_c, 12, 74, 79
14, 172070, Note_on_c, 12, 78, 93
14, 172705, Note_off_c, 12, 74, 64
14, 172747, Note_off_c, 12, 78, 64
14, 172783, Note_on_c, 12, 76, 74
14, 172785, Note_on_c, 12, 79, 94
14, 172787, Note_on_c, 12, 83, 79
14, 172801, Note_off_c, 12, 81, 64
14, 174243, Note_on_c, 12, 84, 106
14, 174267, Note_off_c, 12, 83, 64
14, 174890, Note_off_c, 12, 79, 64
14, 174915, Note_off_c, 12, 76, 64
14, 174956, Note_on_c, 12, 81, 70
14, 174970, Note_on_c, 12, 74, 84
14, 174972, Note_on_c, 12, 78, 101
14, 174990, Note_off_c, 12, 84, 64
14, 175612, Note_off_c, 12, 74, 64
14, 175641, Note_off_c, 12, 78, 64
14, 175663, Note_off_c, 12, 81, 64
14, 175667, Note_on_c, 12, 83, 70
14, 175672, Note_on_c, 12, 79, 85
14, 175676, Note_on_c, 12, 76, 78
14, 177123, Note_on_c, 12, 84, 92
14, 177151, Note_off_c, 12, 83, 64
14, 177763, Note_off_c, 12, 79, 64
14, 177780, Note_off_c, 12, 76, 64
14, 177816, Note_on_c, 12, 81, 48
14, 177846, Note_on_c, 12, 74, 86
14, 177847, Note_on_c, 12, 78, 91
14, 177866, Note_off_c, 12, 84, 64
14, 178478, Note_off_c, 12, 74, 64
14, 178505, Note_off_c, 12, 78, 64
14, 178538, Note_on_c, 12, 76, 78
14, 178540, Note_on_c, 12, 79, 86
14, 178542, Note_on_c, 12, 83, 83
14, 178576, Note_off_c, 12, 81, 64
14, 179987, Note_on_c, 12, 84, 100
14, 179995, Note_off_c, 12, 83, 64
14, 180641, Note_off_c, 12, 79, 64
14, 180643, Note_off_c, 12, 76, 64
14, 180681, Note_on_c, 12, 81, 49
14, 180700, Note_on_c, 12, 74, 83
14, 180705, Note_on_c, 12, 78, 84
14, 180710, Note_off_c, 12, 84, 64
14, 181307, Note_off_c, 12, 74, 64
14, 181381, Note_off_c, 12, 78, 64
14, 181408, Note_off_c, 12, 81, 64
14, 181425, Note_on_c, 12, 76, 81
14, 181435, Note_on_c, 12, 79, 97
14, 181435, Note_on_c, 12, 83, 80
14, 182875, Note_on_c, 12, 84, 110
14, 182896, Note_off_c, 12, 83, 64
14, 183538, Note_off_c, 12, 79, 64
14, 183550, Note_off_c, 12, 76, 64
14, 183591, Note_on_c, 12, 81, 51
14, 183606, Note_off_c, 12, 84, 64
14, 183611, Note_on_c, 12, 74, 87
14, 183616, Note_on_c, 12, 78, 97
14, 184191, Note_off_c, 12, 74, 64
14, 184252, Note_off_c, 12, 78, 64
14, 184275, Note_off_c, 12, 81, 64
14, 184305, Note_on_c, 12, 76, 86
14, 184306, Note_on_c, 12, 83, 83
14, 184312, Note_on_c, 12, 79, 95
14, 185762, Note_off_c, 12, 83, 64
14, 185770, Note_on_c, 12, 84, 92
14, 186410, Note_off_c, 12, 79, 64
14, 186413, Note_off_c, 12, 76, 64
14, 186463, Note_off_c, 12, 84, 64
14, 186468, Note_on_c, 12, 81, 65
14, 186475, Note_on_c, 12, 74, 74
14, 186482, Note_on_c, 12, 78, 84
14, 187071, Note_off_c, 12, 74, 64
14, 187125, Note_off_c, 12, 78, 64
14, 187136, Note_off_c, 12, 81, 64
14, 187183, Note_on_c, 12, 76, 80
14, 187190, Note_on_c, 12, 79, 91
14, 187191, Note_on_c, 12, 83, 85
14, 188610, Note_on_c, 12, 84, 104
14, 188632, Note_off_c, 12, 83, 64
14, 189302, Note_off_c, 12, 79, 64
14, 189307, Note_off_c, 12, 76, 64
14, 189327, Note_off_c, 12, 84, 64
14, 189368, Note_on_c, 12, 81, 80
14, 189372, Note_on_c, 12, 78, 87
14, 189375, Note_on_c, 12, 74, 81
14, 189961, Note_off_c, 12, 74, 64
14, 189996, Note_off_c, 12, 78, 64
14, 190026, Note_off_c, 12, 81, 64
14, 190050, Note_on_c, 12, 76, 80
14, 190055, Note_on_c, 12, 79, 98
14, 190055, Note_on_c, 12, 83, 90
14, 191510, Note_on_c, 12, 84, 110
14, 191537, Note_off_c, 12, 83, 64
14, 192165, Note_off_c, 12, 79, 64
14, 192173, Note_off_c, 12, 76, 64
14, 192192, Note_off_c, 12, 84, 64
14, 192238, Note_on_c, 12, 81, 79
14, 192242, Note_on_c, 12, 74, 76
14, 192245, Note_on_c, 12, 78, 85
14, 192851, Note_off_c, 12, 81, 64
14, 192852, Note_off_c, 12, 74, 64
14, 192857, Note_off_c, 12, 78, 64
14, 192857, End_track
15, 0, Start_track
15, 0, MIDI_port, 0
15, 0, Channel_prefix, 13
15, 0, Control_c, 13, 10, 64
15, 230, Control_c, 13, 121, 0
15, 310, Control_c, 13, 101, 0
15, 390, Control_c, 13, 100, 0
15, 470, Control_c, 13, 6, 12
15, 550, Program_c, 13, 66
15, 1505, Control_c, 13, 93, 69
15, 1585, Control_c, 13, 91, 127
15, 1665, Control_c, 13, 10, 64
15, 1745, Control_c, 13, 7, 107
15, 65740, Note_on_c, 13, 69, 112
15, 65811, Note_off_c, 13, 69, 64
15, 65845, Note_on_c, 13, 71, 114
15, 65907, Note_off_c, 13, 71, 64
15, 65951, Note_on_c, 13, 74, 127
15, 66068, Note_off_c, 13, 74, 64
15, 66167, Pitch_bend_c, 13, 7618
15, 66185, Note_on_c, 13, 76, 127
15, 66200, Pitch_bend_c, 13, 7424
15, 66268, Pitch_bend_c, 13, 7545
15, 66280, Pitch_bend_c, 13, 7797
15, 66290, Pitch_bend_c, 13, 8151
15, 66313, Pitch_bend_c, 13, 8192
15, 66426, Pitch_bend_c, 13, 8151
15, 66437, Pitch_bend_c, 13, 7837
15, 66448, Pitch_bend_c, 13, 7640
15, 66517, Pitch_bend_c, 13, 7428
15, 66560, Pitch_bend_c, 13, 7545
15, 66572, Pitch_bend_c, 13, 7742
15, 66595, Pitch_bend_c, 13, 7888
15, 66606, Pitch_bend_c, 13, 8192
15, 67125, Pitch_bend_c, 13, 8074
15, 67135, Pitch_bend_c, 13, 8129
15, 67147, Pitch_bend_c, 13, 7939
15, 67170, Pitch_bend_c, 13, 7877
15, 67203, Pitch_bend_c, 13, 8056
15, 67225, Pitch_bend_c, 13, 8107
15, 67237, Pitch_bend_c, 13, 8192
15, 67328, Pitch_bend_c, 13, 8129
15, 67360, Pitch_bend_c, 13, 8192
15, 67485, Pitch_bend_c, 13, 8096
15, 67517, Pitch_bend_c, 13, 8192
15, 67653, Pitch_bend_c, 13, 8085
15, 67687, Pitch_bend_c, 13, 8192
15, 67822, Pitch_bend_c, 13, 8096
15, 67843, Pitch_bend_c, 13, 8192
15, 68565, Pitch_bend_c, 13, 7877
15, 68571, Note_on_c, 13, 74, 114
15, 68588, Pitch_bend_c, 13, 7424
15, 68601, Note_off_c, 13, 76, 64
15, 68655, Pitch_bend_c, 13, 8192
15, 68826, Note_on_c, 13, 71, 117
15, 68828, Note_off_c, 13, 74, 64
15, 69051, Note_off_c, 13, 71, 64
15, 69090, Note_on_c, 13, 71, 127
15, 69151, Pitch_bend_c, 13, 8586
15, 69162, Pitch_bend_c, 13, 8959
15, 69207, Pitch_bend_c, 13, 8958
15, 69217, Pitch_bend_c, 13, 8192
15, 69293, Note_on_c, 13, 69, 117
15, 69315, Note_off_c, 13, 71, 64
15, 69428, Control_c, 13, 11, 126
15, 69448, Control_c, 13, 11, 123
15, 69460, Control_c, 13, 11, 117
15, 69482, Control_c, 13, 11, 111
15, 69507, Control_c, 13, 11, 105
15, 69528, Control_c, 13, 11, 99
15, 69551, Control_c, 13, 11, 94
15, 69573, Control_c, 13, 11, 89
15, 69596, Control_c, 13, 11, 84
15, 69618, Control_c, 13, 11, 80
15, 69642, Control_c, 13, 11, 75
15, 69663, Control_c, 13, 11, 70
15, 69686, Control_c, 13, 11, 65
15, 69707, Control_c, 13, 11, 61
15, 69731, Control_c, 13, 11, 56
15, 69753, Control_c, 13, 11, 52
15, 69775, Control_c, 13, 11, 48
15, 69797, Control_c, 13, 11, 45
15, 69821, Control_c, 13, 11, 41
15, 69843, Control_c, 13, 11, 38
15, 69866, Control_c, 13, 11, 37
15, 69878, Note_off_c, 13, 69, 64
15, 69888, Control_c, 13, 11, 34
15, 69911, Control_c, 13, 11, 32
15, 69945, Control_c, 13, 11, 127
15, 70085, Note_on_c, 13, 67, 106
15, 70145, Note_off_c, 13, 67, 64
15, 70191, Note_on_c, 13, 67, 98
15, 70271, Note_off_c, 13, 67, 64
15, 70315, Note_on_c, 13, 71, 127
15, 70318, Pitch_bend_c, 13, 7753
15, 70338, Pitch_bend_c, 13, 7424
15, 70396, Pitch_bend_c, 13, 7731
15, 70406, Pitch_bend_c, 13, 8192
15, 70542, Note_on_c, 13, 64, 81
15, 70577, Note_off_c, 13, 71, 64
15, 70806, Note_off_c, 13, 64, 64
15, 70876, Control_c, 13, 11, 126
15, 70922, Control_c, 13, 11, 120
15, 70945, Control_c, 13, 11, 113
15, 70966, Control_c, 13, 11, 107
15, 70990, Control_c, 13, 11, 101
15, 71012, Control_c, 13, 11, 94
15, 71033, Control_c, 13, 11, 87
15, 71056, Control_c, 13, 11, 81
15, 71080, Control_c, 13, 11, 74
15, 71101, Control_c, 13, 11, 65
15, 71136, Control_c, 13, 11, 62
15, 71147, Control_c, 13, 11, 56
15, 71170, Control_c, 13, 11, 50
15, 71191, Control_c, 13, 11, 44
15, 71213, Control_c, 13, 11, 39
15, 71237, Control_c, 13, 11, 34
15, 71260, Control_c, 13, 11, 30
15, 71305, Control_c, 13, 11, 28
15, 71326, Control_c, 13, 11, 126
15, 71676, Note_on_c, 13, 64, 81
15, 71693, Note_off_c, 13, 64, 64
15, 71755, Note_on_c, 13, 67, 110
15, 71880, Note_off_c, 13, 67, 64
15, 71881, Note_on_c, 13, 64, 95
15, 71916, Note_off_c, 13, 64, 64
15, 71977, Pitch_bend_c, 13, 7523
15, 71981, Note_on_c, 13, 71, 127
15, 72011, Pitch_bend_c, 13, 7424
15, 72088, Pitch_bend_c, 13, 7534
15, 72100, Pitch_bend_c, 13, 8034
15, 72122, Pitch_bend_c, 13, 8192
15, 72201, Note_on_c, 13, 74, 120
15, 72215, Note_off_c, 13, 71, 64
15, 72957, Note_on_c, 13, 76, 127
15, 72958, Note_off_c, 13, 74, 64
15, 73152, Note_off_c, 13, 76, 64
15, 73180, Note_on_c, 13, 74, 127
15, 73342, Note_off_c, 13, 74, 64
15, 73353, Pitch_bend_c, 13, 8012
15, 73373, Pitch_bend_c, 13, 6784
15, 73378, Note_on_c, 13, 71, 127
15, 73407, Pitch_bend_c, 13, 6978
15, 73421, Pitch_bend_c, 13, 7431
15, 73432, Pitch_bend_c, 13, 8192
15, 73537, Pitch_bend_c, 13, 8243
15, 73558, Pitch_bend_c, 13, 8959
15, 73605, Pitch_bend_c, 13, 8192
15, 73656, Note_off_c, 13, 71, 64
15, 73660, Note_on_c, 13, 69, 120
15, 73828, Control_c, 13, 11, 119
15, 73850, Control_c, 13, 11, 113
15, 73872, Control_c, 13, 11, 106
15, 73895, Control_c, 13, 11, 100
15, 73917, Control_c, 13, 11, 95
15, 73941, Control_c, 13, 11, 89
15, 73963, Control_c, 13, 11, 85
15, 73985, Control_c, 13, 11, 83
15, 74018, Control_c, 13, 11, 86
15, 74030, Control_c, 13, 11, 90
15, 74053, Control_c, 13, 11, 96
15, 74076, Control_c, 13, 11, 106
15, 74097, Control_c, 13, 11, 127
15, 74400, Note_off_c, 13, 69, 64
15, 74523, Note_on_c, 13, 69, 110
15, 74597, Note_off_c, 13, 69, 64
15, 74602, Note_on_c, 13, 71, 100
15, 74712, Pitch_bend_c, 13, 8140
15, 74735, Pitch_bend_c, 13, 8056
15, 74745, Pitch_bend_c, 13, 7742
15, 74768, Pitch_bend_c, 13, 7629
15, 74791, Pitch_bend_c, 13, 7425
15, 74802, Pitch_bend_c, 13, 7424
15, 74831, Note_off_c, 13, 71, 64
15, 74865, Note_on_c, 13, 64, 104
15, 74938, Pitch_bend_c, 13, 8309
15, 74960, Pitch_bend_c, 13, 8192
15, 75086, Note_on_c, 13, 67, 106
15, 75115, Note_off_c, 13, 64, 64
15, 75347, Control_c, 13, 11, 122
15, 75357, Control_c, 13, 11, 114
15, 75381, Control_c, 13, 11, 105
15, 75402, Control_c, 13, 11, 96
15, 75427, Control_c, 13, 11, 88
15, 75448, Control_c, 13, 11, 80
15, 75471, Control_c, 13, 11, 75
15, 75493, Control_c, 13, 11, 71
15, 75516, Control_c, 13, 11, 69
15, 75537, Control_c, 13, 11, 75
15, 75560, Control_c, 13, 11, 88
15, 75582, Control_c, 13, 11, 126
15, 75655, Note_off_c, 13, 67, 64
15, 76267, Note_on_c, 13, 57, 104
15, 76310, Pitch_bend_c, 13, 8309
15, 76321, Pitch_bend_c, 13, 9584
15, 76355, Pitch_bend_c, 13, 9599
15, 76466, Pitch_bend_c, 13, 9120
15, 76478, Pitch_bend_c, 13, 8192
15, 76520, Note_off_c, 13, 57, 64
15, 76540, Note_on_c, 13, 57, 127
15, 76668, Note_off_c, 13, 57, 64
15, 76690, Note_on_c, 13, 55, 110
15, 76740, Note_off_c, 13, 55, 64
15, 76755, Note_on_c, 13, 57, 125
15, 76908, Note_on_c, 13, 59, 106
15, 76912, Note_off_c, 13, 57, 64
15, 77023, Note_on_c, 13, 62, 75
15, 77036, Note_off_c, 13, 59, 64
15, 77167, Note_on_c, 13, 64, 63
15, 77192, Note_off_c, 13, 62, 64
15, 77265, Note_on_c, 13, 67, 67
15, 77285, Note_off_c, 13, 64, 64
15, 77543, Note_off_c, 13, 67, 64
15, 123323, Note_on_c, 13, 67, 104
15, 123518, Note_off_c, 13, 67, 64
15, 123553, Note_on_c, 13, 69, 122
15, 123752, Note_off_c, 13, 69, 64
15, 123796, Pitch_bend_c, 13, 7680
15, 123801, Note_on_c, 13, 71, 125
15, 123830, Pitch_bend_c, 13, 7424
15, 123910, Pitch_bend_c, 13, 7425
15, 123943, Pitch_bend_c, 13, 7545
15, 123956, Pitch_bend_c, 13, 7877
15, 123978, Pitch_bend_c, 13, 8140
15, 123988, Pitch_bend_c, 13, 8192
15, 124046, Note_off_c, 13, 71, 64
15, 124060, Note_on_c, 13, 64, 127
15, 124731, Note_off_c, 13, 64, 64
15, 124765, Note_on_c, 13, 67, 122
15, 124948, Note_off_c, 13, 67, 64
15, 124990, Note_on_c, 13, 69, 122
15, 125161, Note_off_c, 13, 69, 64
15, 125207, Pitch_bend_c, 13, 8045
15, 125217, Pitch_bend_c, 13, 7585
15, 125242, Pitch_bend_c, 13, 7424
15, 125248, Note_on_c, 13, 71, 127
15, 125378, Pitch_bend_c, 13, 7797
15, 125390, Pitch_bend_c, 13, 8192
15, 125455, Note_off_c, 13, 71, 64
15, 125466, Note_on_c, 13, 74, 127
15, 126106, Note_off_c, 13, 74, 64
15, 126200, Pitch_bend_c, 13, 7680
15, 126210, Pitch_bend_c, 13, 7424
15, 126215, Note_on_c, 13, 71, 117
15, 126335, Pitch_bend_c, 13, 7797
15, 126357, Pitch_bend_c, 13, 7888
15, 126368, Pitch_bend_c, 13, 8192
15, 126438, Note_on_c, 13, 74, 127
15, 126467, Note_off_c, 13, 71, 64
15, 126607, Note_off_c, 13, 74, 64
15, 126671, Note_on_c, 13, 74, 127
15, 126742, Pitch_bend_c, 13, 8309
15, 126753, Pitch_bend_c, 13, 8455
15, 126775, Pitch_bend_c, 13, 8729
15, 126787, Pitch_bend_c, 13, 9383
15, 126810, Pitch_bend_c, 13, 9701
15, 126935, Pitch_bend_c, 13, 9599
15, 127596, Pitch_bend_c, 13, 9416
15, 127618, Pitch_bend_c, 13, 9098
15, 127631, Pitch_bend_c, 13, 8751
15, 127645, Note_off_c, 13, 74, 64
15, 127653, Pitch_bend_c, 13, 8309
15, 127665, Pitch_bend_c, 13, 8192
15, 127683, Note_on_c, 13, 74, 127
15, 127862, Note_off_c, 13, 74, 64
15, 127862, Pitch_bend_c, 13, 8140
15, 127872, Pitch_bend_c, 13, 7424
15, 127891, Note_on_c, 13, 71, 127
15, 127951, Pitch_bend_c, 13, 7753
15, 127961, Pitch_bend_c, 13, 8192
15, 128095, Note_off_c, 13, 71, 64
15, 128118, Note_on_c, 13, 69, 127
15, 128155, Pitch_bend_c, 13, 8959
15, 128211, Pitch_bend_c, 13, 8958
15, 128223, Pitch_bend_c, 13, 8192
15, 128276, Note_on_c, 13, 67, 112
15, 128287, Note_off_c, 13, 69, 64
15, 128346, Note_on_c, 13, 64, 102
15, 128351, Note_off_c, 13, 67, 64
15, 128467, Pitch_bend_c, 13, 7910
15, 128487, Pitch_bend_c, 13, 7950
15, 128511, Pitch_bend_c, 13, 8074
15, 128522, Pitch_bend_c, 13, 8192
15, 128570, Control_c, 13, 11, 126
15, 128592, Pitch_bend_c, 13, 7921
15, 128615, Pitch_bend_c, 13, 7910
15, 128626, Pitch_bend_c, 13, 8107
15, 128647, Pitch_bend_c, 13, 8192
15, 128650, Control_c, 13, 11, 124
15, 128693, Control_c, 13, 11, 121
15, 128706, Pitch_bend_c, 13, 7877
15, 128716, Pitch_bend_c, 13, 7921
15, 128716, Control_c, 13, 11, 119
15, 128728, Control_c, 13, 11, 114
15, 128740, Pitch_bend_c, 13, 7994
15, 128751, Pitch_bend_c, 13, 8192
15, 128751, Control_c, 13, 11, 108
15, 128773, Control_c, 13, 11, 103
15, 128795, Control_c, 13, 11, 97
15, 128818, Control_c, 13, 11, 92
15, 128820, Pitch_bend_c, 13, 7910
15, 128841, Pitch_bend_c, 13, 7961
15, 128842, Control_c, 13, 11, 87
15, 128860, Note_off_c, 13, 64, 64
15, 128865, Pitch_bend_c, 13, 8096
15, 128865, Control_c, 13, 11, 83
15, 128876, Pitch_bend_c, 13, 8192
15, 128887, Control_c, 13, 11, 78
15, 128907, Control_c, 13, 11, 74
15, 128932, Pitch_bend_c, 13, 7983
15, 128932, Control_c, 13, 11, 69
15, 128956, Pitch_bend_c, 13, 7939
15, 128956, Control_c, 13, 11, 64
15, 128967, Pitch_bend_c, 13, 8107
15, 128977, Control_c, 13, 11, 60
15, 128978, Pitch_bend_c, 13, 8192
15, 129001, Control_c, 13, 11, 56
15, 129023, Control_c, 13, 11, 52
15, 129047, Control_c, 13, 11, 48
15, 129068, Control_c, 13, 11, 45
15, 129092, Control_c, 13, 11, 127
15, 129235, Note_on_c, 13, 64, 127
15, 129277, Note_off_c, 13, 64, 64
15, 129352, Note_on_c, 13, 67, 127
15, 129460, Note_on_c, 13, 64, 127
15, 129467, Note_off_c, 13, 67, 64
15, 129511, Note_off_c, 13, 64, 64
15, 129546, Pitch_bend_c, 13, 8107
15, 129556, Pitch_bend_c, 13, 7797
15, 129578, Pitch_bend_c, 13, 7424
15, 129606, Note_on_c, 13, 71, 122
15, 129638, Pitch_bend_c, 13, 7425
15, 129658, Pitch_bend_c, 13, 7899
15, 129681, Pitch_bend_c, 13, 8192
15, 129715, Note_on_c, 13, 74, 112
15, 129731, Note_off_c, 13, 71, 64
15, 129775, Note_off_c, 13, 74, 64
15, 129820, Note_on_c, 13, 74, 122
15, 129922, Note_off_c, 13, 74, 64
15, 129927, Note_on_c, 13, 71, 120
15, 129998, Note_off_c, 13, 71, 64
15, 130042, Note_on_c, 13, 74, 127
15, 130242, Pitch_bend_c, 13, 8151
15, 130286, Pitch_bend_c, 13, 8118
15, 130295, Pitch_bend_c, 13, 8192
15, 130433, Pitch_bend_c, 13, 8096
15, 130445, Pitch_bend_c, 13, 8140
15, 130477, Pitch_bend_c, 13, 8034
15, 130501, Pitch_bend_c, 13, 8085
15, 130523, Pitch_bend_c, 13, 8192
15, 130570, Pitch_bend_c, 13, 8151
15, 130593, Pitch_bend_c, 13, 7961
15, 130605, Pitch_bend_c, 13, 7888
15, 130638, Pitch_bend_c, 13, 8034
15, 130661, Pitch_bend_c, 13, 8096
15, 130673, Pitch_bend_c, 13, 8192
15, 130740, Pitch_bend_c, 13, 8151
15, 130752, Pitch_bend_c, 13, 7877
15, 130763, Pitch_bend_c, 13, 7826
15, 130787, Pitch_bend_c, 13, 7921
15, 130798, Pitch_bend_c, 13, 8107
15, 130820, Pitch_bend_c, 13, 8192
15, 130890, Pitch_bend_c, 13, 8096
15, 130900, Pitch_bend_c, 13, 7972
15, 130923, Pitch_bend_c, 13, 7877
15, 130946, Pitch_bend_c, 13, 7939
15, 130957, Pitch_bend_c, 13, 8118
15, 130970, Pitch_bend_c, 13, 8192
15, 131013, Pitch_bend_c, 13, 8074
15, 131025, Pitch_bend_c, 13, 7972
15, 131048, Pitch_bend_c, 13, 7877
15, 131072, Pitch_bend_c, 13, 8034
15, 131081, Pitch_bend_c, 13, 8192
15, 131187, Pitch_bend_c, 13, 8085
15, 131197, Pitch_bend_c, 13, 7950
15, 131220, Pitch_bend_c, 13, 7574
15, 131232, Pitch_bend_c, 13, 7786
15, 131253, Pitch_bend_c, 13, 7596
15, 131267, Pitch_bend_c, 13, 7425
15, 131267, Note_on_c, 13, 72, 117
15, 131282, Note_off_c, 13, 74, 64
15, 131357, Pitch_bend_c, 13, 8192
15, 131410, Note_off_c, 13, 72, 64
15, 131413, Note_on_c, 13, 71, 110
15, 131493, Note_on_c, 13, 69, 114
15, 131511, Note_off_c, 13, 71, 64
15, 131652, Pitch_bend_c, 13, 7424
15, 131703, Note_off_c, 13, 69, 64
15, 131762, Note_on_c, 13, 69, 122
15, 131842, Pitch_bend_c, 13, 8393
15, 131853, Pitch_bend_c, 13, 8455
15, 131863, Pitch_bend_c, 13, 8952
15, 131887, Pitch_bend_c, 13, 9131
15, 131898, Pitch_bend_c, 13, 9500
15, 131922, Pitch_bend_c, 13, 9701
15, 131988, Pitch_bend_c, 13, 9599
15, 132103, Pitch_bend_c, 13, 9405
15, 132116, Pitch_bend_c, 13, 8729
15, 132126, Pitch_bend_c, 13, 8192
15, 132182, Note_off_c, 13, 69, 64
15, 132212, Note_on_c, 13, 69, 112
15, 132363, Note_off_c, 13, 69, 64
15, 132453, Note_on_c, 13, 69, 127
15, 132541, Note_off_c, 13, 69, 64
15, 132578, Note_on_c, 13, 67, 127
15, 132863, Pitch_bend_c, 13, 8096
15, 132886, Pitch_bend_c, 13, 7990
15, 132897, Pitch_bend_c, 13, 7906
15, 132917, Pitch_bend_c, 13, 7822
15, 132931, Pitch_bend_c, 13, 7643
15, 132953, Pitch_bend_c, 13, 7548
15, 132965, Pitch_bend_c, 13, 7285
15, 132987, Pitch_bend_c, 13, 7084
15, 133000, Pitch_bend_c, 13, 6905
15, 133085, Note_off_c, 13, 67, 64
15, 133090, Pitch_bend_c, 13, 6902
15, 133108, Note_on_c, 13, 64, 95
15, 133125, Pitch_bend_c, 13, 8360
15, 133147, Pitch_bend_c, 13, 8192
15, 133488, Note_off_c, 13, 64, 64
15, 133920, Note_on_c, 13, 62, 110
15, 134011, Note_on_c, 13, 59, 108
15, 134042, Note_off_c, 13, 62, 64
15, 134063, Note_off_c, 13, 59, 64
15, 134132, Note_on_c, 13, 57, 110
15, 134233, Note_on_c, 13, 55, 97
15, 134270, Note_off_c, 13, 57, 64
15, 134318, Note_off_c, 13, 55, 64
15, 134382, Note_on_c, 13, 57, 122
15, 134402, Pitch_bend_c, 13, 9599
15, 134446, Pitch_bend_c, 13, 8192
15, 134461, Note_off_c, 13, 57, 64
15, 134496, Note_on_c, 13, 57, 100
15, 134625, Note_on_c, 13, 55, 91
15, 134645, Note_off_c, 13, 57, 64
15, 134767, Note_off_c, 13, 55, 64
15, 134772, Note_on_c, 13, 52, 91
15, 134861, Note_off_c, 13, 52, 64
15, 134878, Note_on_c, 13, 50, 87
15, 135051, Note_off_c, 13, 50, 64
15, 173130, Pitch_bend_c, 13, 7000
15, 173165, Pitch_bend_c, 13, 6784
15, 173178, Note_on_c, 13, 69, 127
15, 173256, Pitch_bend_c, 13, 7431
15, 173280, Pitch_bend_c, 13, 7727
15, 173290, Pitch_bend_c, 13, 7917
15, 173312, Pitch_bend_c, 13, 8023
15, 173336, Pitch_bend_c, 13, 8012
15, 173347, Pitch_bend_c, 13, 8107
15, 173357, Pitch_bend_c, 13, 8192
15, 173790, Note_on_c, 13, 67, 97
15, 173800, Note_off_c, 13, 69, 64
15, 173850, Note_off_c, 13, 67, 64
15, 173857, Note_on_c, 13, 64, 91
15, 173927, Note_off_c, 13, 64, 64
15, 176321, Pitch_bend_c, 13, 7705
15, 176331, Pitch_bend_c, 13, 7168
15, 176361, Note_on_c, 13, 71, 112
15, 176367, Pitch_bend_c, 13, 6784
15, 176455, Pitch_bend_c, 13, 7285
15, 176478, Pitch_bend_c, 13, 7442
15, 176488, Pitch_bend_c, 13, 8001
15, 176512, Pitch_bend_c, 13, 8192
15, 176642, Note_on_c, 13, 64, 79
15, 176651, Note_off_c, 13, 71, 64
15, 176770, Note_off_c, 13, 64, 64
15, 176872, Pitch_bend_c, 13, 7537
15, 176893, Pitch_bend_c, 13, 7000
15, 176917, Pitch_bend_c, 13, 6784
15, 176932, Note_on_c, 13, 69, 114
15, 176996, Pitch_bend_c, 13, 6902
15, 177041, Pitch_bend_c, 13, 6905
15, 177052, Pitch_bend_c, 13, 7168
15, 177075, Pitch_bend_c, 13, 7347
15, 177086, Pitch_bend_c, 13, 7822
15, 177108, Pitch_bend_c, 13, 8012
15, 177120, Pitch_bend_c, 13, 8192
15, 177786, Note_off_c, 13, 69, 64
15, 179510, Note_on_c, 13, 74, 120
15, 179590, Note_off_c, 13, 74, 64
15, 179727, Note_on_c, 13, 76, 108
15, 179816, Note_off_c, 13, 76, 64
15, 179970, Note_on_c, 13, 69, 114
15, 180000, Pitch_bend_c, 13, 8751
15, 180008, Pitch_bend_c, 13, 9383
15, 180032, Pitch_bend_c, 13, 9599
15, 180078, Pitch_bend_c, 13, 8192
15, 180160, Note_on_c, 13, 67, 97
15, 180165, Note_off_c, 13, 69, 64
15, 180670, Note_on_c, 13, 64, 68
15, 180676, Note_off_c, 13, 67, 64
15, 180796, Note_on_c, 13, 62, 95
15, 180800, Note_off_c, 13, 64, 64
15, 180911, Note_on_c, 13, 64, 94
15, 180936, Note_off_c, 13, 62, 64
15, 182410, Note_off_c, 13, 64, 64
15, 184522, Pitch_bend_c, 13, 7654
15, 184543, Pitch_bend_c, 13, 7285
15, 184555, Pitch_bend_c, 13, 6905
15, 184563, Note_on_c, 13, 76, 98
15, 184646, Pitch_bend_c, 13, 6978
15, 184668, Pitch_bend_c, 13, 7062
15, 184678, Pitch_bend_c, 13, 7358
15, 184702, Pitch_bend_c, 13, 7431
15, 184713, Pitch_bend_c, 13, 7621
15, 184736, Pitch_bend_c, 13, 7811
15, 184758, Pitch_bend_c, 13, 8023
15, 184768, Pitch_bend_c, 13, 8012
15, 184782, Pitch_bend_c, 13, 8074
15, 184802, Pitch_bend_c, 13, 8192
15, 185040, Pitch_bend_c, 13, 8023
15, 185048, Note_off_c, 13, 76, 64
15, 185051, Pitch_bend_c, 13, 7285
15, 185073, Pitch_bend_c, 13, 6894
15, 185075, Note_on_c, 13, 71, 79
15, 185173, Pitch_bend_c, 13, 6905
15, 185186, Pitch_bend_c, 13, 7073
15, 185208, Pitch_bend_c, 13, 7285
15, 185220, Pitch_bend_c, 13, 7442
15, 185242, Pitch_bend_c, 13, 7738
15, 185265, Pitch_bend_c, 13, 7811
15, 185276, Pitch_bend_c, 13, 8096
15, 185298, Pitch_bend_c, 13, 8192
15, 185607, Note_off_c, 13, 71, 64
15, 185733, Note_on_c, 13, 69, 98
15, 185782, Pitch_bend_c, 13, 9584
15, 185826, Pitch_bend_c, 13, 9584
15, 185838, Pitch_bend_c, 13, 8192
15, 185882, Note_off_c, 13, 69, 64
15, 185885, Note_on_c, 13, 67, 78
15, 185961, Note_on_c, 13, 69, 74
15, 185967, Note_off_c, 13, 67, 64
15, 186061, Note_on_c, 13, 67, 78
15, 186067, Note_off_c, 13, 69, 64
15, 186198, Pitch_bend_c, 13, 7548
15, 186208, Note_off_c, 13, 67, 64
15, 186208, Note_on_c, 13, 71, 100
15, 186212, Pitch_bend_c, 13, 6905
15, 186311, Pitch_bend_c, 13, 6894
15, 186322, Pitch_bend_c, 13, 7537
15, 186345, Pitch_bend_c, 13, 7990
15, 186365, Pitch_bend_c, 13, 8192
15, 186448, Note_on_c, 13, 69, 100
15, 186451, Note_off_c, 13, 71, 64
15, 186490, Pitch_bend_c, 13, 9036
15, 186513, Pitch_bend_c, 13, 9598
15, 186523, Pitch_bend_c, 13, 9599
15, 186558, Pitch_bend_c, 13, 9584
15, 186568, Pitch_bend_c, 13, 8192
15, 186618, Note_on_c, 13, 67, 74
15, 186620, Note_off_c, 13, 69, 64
15, 186691, Note_on_c, 13, 69, 83
15, 186713, Note_off_c, 13, 67, 64
15, 186790, Note_on_c, 13, 67, 83
15, 186791, Note_off_c, 13, 69, 64
15, 186901, Note_off_c, 13, 67, 64
15, 186901, Note_on_c, 13, 71, 88
15, 186908, Pitch_bend_c, 13, 8085
15, 186918, Pitch_bend_c, 13, 6788
15, 187008, Pitch_bend_c, 13, 7632
15, 187031, Pitch_bend_c, 13, 8085
15, 187041, Pitch_bend_c, 13, 8192
15, 187251, Note_off_c, 13, 71, 64
15, 188612, Note_on_c, 13, 69, 97
15, 188650, Pitch_bend_c, 13, 9598
15, 188672, Pitch_bend_c, 13, 9599
15, 188716, Pitch_bend_c, 13, 9383
15, 188728, Pitch_bend_c, 13, 8371
15, 188740, Pitch_bend_c, 13, 8192
15, 188771, Note_off_c, 13, 69, 64
15, 188778, Note_on_c, 13, 67, 91
15, 189322, Note_off_c, 13, 67, 64
15, 189333, Note_on_c, 13, 69, 87
15, 189392, Pitch_bend_c, 13, 9405
15, 189403, Pitch_bend_c, 13, 9599
15, 189437, Pitch_bend_c, 13, 9478
15, 189460, Pitch_bend_c, 13, 8466
15, 189472, Pitch_bend_c, 13, 8192
15, 189488, Note_on_c, 13, 67, 79
15, 189498, Note_off_c, 13, 69, 64
15, 189583, Note_on_c, 13, 71, 98
15, 189585, Note_off_c, 13, 67, 64
15, 189800, Note_on_c, 13, 69, 83
15, 189815, Note_off_c, 13, 71, 64
15, 190047, Note_off_c, 13, 69, 64
15, 190047, End_track
16, 0, Start_track
16, 0, MIDI_port, 0
16, 0, Channel_prefix, 14
16, 0, Control_c, 14, 10, 64
16, 195, Control_c, 14, 121, 0
16, 275, Control_c, 14, 101, 0
16, 355, Control_c, 14, 100, 0
16, 435, Control_c, 14, 6, 12
16, 515, Program_c, 14, 88
16, 1470, Control_c, 14, 93, 0
16, 1550, Control_c, 14, 91, 66
16, 1630, Control_c, 14, 10, 116
16, 1710, Control_c, 14, 7, 81
16, 2881, Note_on_c, 14, 52, 57
16, 2891, Note_on_c, 14, 78, 61
16, 2895, Note_on_c, 14, 74, 56
16, 2895, Note_on_c, 14, 69, 58
16, 3497, Note_off_c, 14, 69, 64
16, 3515, Note_off_c, 14, 78, 64
16, 3560, Note_on_c, 14, 76, 48
16, 3578, Note_on_c, 14, 79, 62
16, 3581, Note_on_c, 14, 71, 55
16, 3600, Note_off_c, 14, 74, 64
16, 11260, Note_off_c, 14, 76, 64
16, 11298, Note_off_c, 14, 79, 64
16, 11301, Note_off_c, 14, 71, 64
16, 11381, Note_off_c, 14, 52, 64
16, 11427, Note_on_c, 14, 74, 59
16, 11435, Note_on_c, 14, 78, 39
16, 11440, Note_on_c, 14, 69, 46
16, 14222, Note_off_c, 14, 69, 64
16, 14298, Note_off_c, 14, 78, 64
16, 14406, Note_on_c, 14, 76, 41
16, 14406, Note_on_c, 14, 71, 35
16, 14407, Note_on_c, 14, 79, 75
16, 14443, Note_off_c, 14, 74, 64
16, 15696, Note_off_c, 14, 71, 64
16, 15805, Note_on_c, 14, 72, 41
16, 16381, Note_off_c, 14, 72, 64
16, 16486, Note_off_c, 14, 76, 64
16, 16487, Note_on_c, 14, 78, 39
16, 16488, Note_on_c, 14, 74, 35
16, 16537, Note_off_c, 14, 79, 64
16, 16537, Note_on_c, 14, 69, 47
16, 17145, Note_off_c, 14, 69, 64
16, 17202, Note_off_c, 14, 78, 64
16, 17225, Note_on_c, 14, 76, 38
16, 17228, Note_on_c, 14, 79, 54
16, 17257, Note_on_c, 14, 71, 47
16, 17285, Note_off_c, 14, 74, 64
16, 20160, Note_on_c, 14, 71, 45
16, 20160, Note_on_c, 14, 76, 53
16, 20160, Note_on_c, 14, 79, 81
16, 20161, Note_off_c, 14, 76, 64
16, 20161, Note_off_c, 14, 79, 64
16, 20161, Note_off_c, 14, 71, 64
16, 21556, Note_on_c, 14, 83, 66
16, 22922, Note_off_c, 14, 71, 64
16, 22942, Note_off_c, 14, 76, 64
16, 22952, Note_off_c, 14, 79, 64
16, 23063, Note_on_c, 14, 78, 47
16, 23078, Note_on_c, 14, 81, 38
16, 23091, Note_on_c, 14, 74, 38
16, 23241, Note_off_c, 14, 83, 64
16, 24478, Note_on_c, 14, 86, 55
16, 25806, Note_off_c, 14, 86, 64
16, 25810, Note_off_c, 14, 81, 64
16, 25811, Note_off_c, 14, 78, 64
16, 25813, Note_off_c, 14, 74, 64
16, 25921, Note_on_c, 14, 76, 60
16, 25922, Note_on_c, 14, 79, 68
16, 25930, Note_on_c, 14, 71, 45
16, 27261, Note_off_c, 14, 71, 64
16, 27368, Note_on_c, 14, 72, 52
16, 28003, Note_off_c, 14, 72, 64
16, 28092, Note_on_c, 14, 78, 50
16, 28102, Note_off_c, 14, 76, 64
16, 28118, Note_on_c, 14, 74, 55
16, 28123, Note_on_c, 14, 81, 55
16, 28127, Note_off_c, 14, 79, 64
16, 28727, Note_off_c, 14, 74, 64
16, 28738, Note_off_c, 14, 78, 64
16, 28785, Note_off_c, 14, 81, 64
16, 28826, Note_on_c, 14, 76, 44
16, 28830, Note_on_c, 14, 79, 69
16, 28843, Note_on_c, 14, 71, 44
16, 29151, Control_c, 14, 64, 127
16, 29360, Note_off_c, 14, 79, 64
16, 29368, Note_off_c, 14, 71, 64
16, 29370, Note_off_c, 14, 76, 64
16, 31602, Control_c, 14, 64, 0
16, 31720, Note_on_c, 14, 79, 67
16, 31720, Note_on_c, 14, 86, 59
16, 31735, Note_on_c, 14, 83, 51
16, 34346, Note_off_c, 14, 79, 64
16, 34446, Note_on_c, 14, 81, 49
16, 34450, Note_off_c, 14, 83, 64
16, 34505, Note_on_c, 14, 78, 50
16, 37407, Note_off_c, 14, 86, 64
16, 37410, Note_off_c, 14, 78, 64
16, 37430, Note_on_c, 14, 76, 58
16, 37433, Note_on_c, 14, 84, 64
16, 40292, Note_on_c, 14, 83, 61
16, 40311, Note_on_c, 14, 79, 106
16, 40346, Note_off_c, 14, 81, 64
16, 40358, Note_off_c, 14, 84, 64
16, 42402, Note_off_c, 14, 76, 64
16, 42406, Note_off_c, 14, 79, 64
16, 42408, Note_off_c, 14, 83, 64
16, 42460, Note_on_c, 14, 81, 40
16, 42465, Note_on_c, 14, 74, 60
16, 42465, Note_on_c, 14, 78, 60
16, 43112, Note_off_c, 14, 74, 64
16, 43113, Note_off_c, 14, 78, 64
16, 43117, Note_off_c, 14, 81, 64
16, 43200, Note_on_c, 14, 74, 56
16, 43200, Note_on_c, 14, 79, 73
16, 43200, Note_on_c, 14, 83, 56
16, 44368, Control_c, 14, 11, 126
16, 44645, Control_c, 14, 11, 124
16, 44943, Control_c, 14, 11, 121
16, 44978, Control_c, 14, 11, 119
16, 45012, Control_c, 14, 11, 116
16, 45058, Control_c, 14, 11, 113
16, 45092, Control_c, 14, 11, 111
16, 45127, Control_c, 14, 11, 108
16, 45140, Control_c, 14, 11, 104
16, 45162, Control_c, 14, 11, 100
16, 45183, Control_c, 14, 11, 95
16, 45207, Control_c, 14, 11, 90
16, 45230, Control_c, 14, 11, 85
16, 45255, Control_c, 14, 11, 81
16, 45277, Control_c, 14, 11, 77
16, 45301, Control_c, 14, 11, 73
16, 45322, Control_c, 14, 11, 69
16, 45346, Control_c, 14, 11, 65
16, 45347, Note_on_c, 14, 86, 77
16, 45368, Control_c, 14, 11, 62
16, 45392, Control_c, 14, 11, 59
16, 45415, Control_c, 14, 11, 57
16, 45422, Note_off_c, 14, 74, 64
16, 45427, Control_c, 14, 11, 54
16, 45462, Control_c, 14, 11, 52
16, 45472, Control_c, 14, 11, 50
16, 45496, Control_c, 14, 11, 48
16, 45530, Control_c, 14, 11, 44
16, 45566, Control_c, 14, 11, 41
16, 45600, Control_c, 14, 11, 37
16, 45633, Control_c, 14, 11, 34
16, 45668, Control_c, 14, 11, 31
16, 45702, Control_c, 14, 11, 28
16, 45737, Control_c, 14, 11, 26
16, 45772, Control_c, 14, 11, 23
16, 45806, Control_c, 14, 11, 21
16, 45840, Control_c, 14, 11, 18
16, 45863, Control_c, 14, 11, 14
16, 45886, Control_c, 14, 11, 11
16, 45911, Control_c, 14, 11, 9
16, 45945, Control_c, 14, 11, 6
16, 45998, Note_off_c, 14, 86, 64
16, 46013, Control_c, 14, 11, 4
16, 46043, Note_off_c, 14, 83, 64
16, 46045, Note_on_c, 14, 74, 62
16, 46048, Note_on_c, 14, 90, 59
16, 46051, Note_off_c, 14, 79, 64
16, 46053, Note_on_c, 14, 81, 60
16, 46055, Note_on_c, 14, 86, 66
16, 46245, Control_c, 14, 11, 6
16, 46382, Control_c, 14, 11, 9
16, 46476, Control_c, 14, 11, 12
16, 46486, Control_c, 14, 11, 15
16, 46510, Control_c, 14, 11, 20
16, 46532, Control_c, 14, 11, 28
16, 46555, Control_c, 14, 11, 36
16, 46578, Control_c, 14, 11, 43
16, 46601, Control_c, 14, 11, 50
16, 46621, Control_c, 14, 11, 58
16, 46647, Control_c, 14, 11, 65
16, 46671, Control_c, 14, 11, 72
16, 46693, Control_c, 14, 11, 77
16, 46717, Control_c, 14, 11, 83
16, 46737, Control_c, 14, 11, 88
16, 46761, Control_c, 14, 11, 93
16, 46786, Control_c, 14, 11, 97
16, 46807, Control_c, 14, 11, 101
16, 46831, Control_c, 14, 11, 105
16, 46853, Control_c, 14, 11, 110
16, 46878, Control_c, 14, 11, 113
16, 46900, Control_c, 14, 11, 115
16, 46912, Control_c, 14, 11, 118
16, 46958, Control_c, 14, 11, 121
16, 46992, Control_c, 14, 11, 124
16, 47051, Control_c, 14, 11, 126
16, 48876, Note_off_c, 14, 90, 64
16, 48880, Note_off_c, 14, 81, 64
16, 48887, Note_off_c, 14, 74, 64
16, 48923, Note_on_c, 14, 84, 64
16, 48927, Note_on_c, 14, 72, 53
16, 48930, Note_on_c, 14, 79, 98
16, 50077, Control_c, 14, 11, 124
16, 50342, Control_c, 14, 11, 121
16, 50400, Control_c, 14, 11, 118
16, 50435, Control_c, 14, 11, 116
16, 50467, Control_c, 14, 11, 113
16, 50502, Control_c, 14, 11, 111
16, 50526, Control_c, 14, 11, 108
16, 50536, Control_c, 14, 11, 104
16, 50560, Control_c, 14, 11, 100
16, 50583, Control_c, 14, 11, 95
16, 50606, Control_c, 14, 11, 90
16, 50628, Control_c, 14, 11, 86
16, 50652, Control_c, 14, 11, 82
16, 50675, Control_c, 14, 11, 78
16, 50698, Control_c, 14, 11, 74
16, 50720, Control_c, 14, 11, 70
16, 50743, Control_c, 14, 11, 67
16, 50768, Control_c, 14, 11, 64
16, 50790, Control_c, 14, 11, 60
16, 50813, Control_c, 14, 11, 57
16, 50848, Control_c, 14, 11, 55
16, 50860, Control_c, 14, 11, 53
16, 50882, Control_c, 14, 11, 51
16, 50906, Control_c, 14, 11, 48
16, 50941, Control_c, 14, 11, 45
16, 50962, Control_c, 14, 11, 43
16, 50997, Control_c, 14, 11, 40
16, 51032, Control_c, 14, 11, 38
16, 51067, Control_c, 14, 11, 35
16, 51101, Control_c, 14, 11, 33
16, 51148, Control_c, 14, 11, 30
16, 51193, Control_c, 14, 11, 28
16, 51241, Control_c, 14, 11, 25
16, 51297, Control_c, 14, 11, 23
16, 51356, Control_c, 14, 11, 20
16, 51425, Control_c, 14, 11, 18
16, 51493, Control_c, 14, 11, 15
16, 51562, Control_c, 14, 11, 13
16, 51587, Note_off_c, 14, 79, 64
16, 51590, Note_off_c, 14, 84, 64
16, 51595, Note_off_c, 14, 86, 64
16, 51597, Control_c, 14, 11, 10
16, 51600, Note_off_c, 14, 72, 64
16, 51632, Control_c, 14, 11, 7
16, 51688, Control_c, 14, 11, 4
16, 51746, Control_c, 14, 11, 8
16, 51758, Control_c, 14, 11, 127
16, 52903, Control_c, 14, 11, 126
16, 52925, Control_c, 14, 11, 120
16, 52947, Control_c, 14, 11, 113
16, 52971, Control_c, 14, 11, 103
16, 52995, Control_c, 14, 11, 88
16, 53017, Control_c, 14, 11, 65
16, 53040, Control_c, 14, 11, 43
16, 53063, Control_c, 14, 11, 27
16, 53086, Control_c, 14, 11, 18
16, 53090, Note_on_c, 14, 81, 110
16, 53091, Note_on_c, 14, 86, 112
16, 53091, Note_on_c, 14, 90, 123
16, 53110, Control_c, 14, 11, 13
16, 53271, Control_c, 14, 11, 20
16, 53282, Control_c, 14, 11, 32
16, 53305, Control_c, 14, 11, 44
16, 53327, Control_c, 14, 11, 60
16, 53352, Control_c, 14, 11, 82
16, 53373, Control_c, 14, 11, 127
16, 53706, Control_c, 14, 11, 126
16, 53856, Control_c, 14, 11, 124
16, 53926, Control_c, 14, 11, 121
16, 53948, Control_c, 14, 11, 119
16, 53960, Control_c, 14, 11, 114
16, 53982, Control_c, 14, 11, 108
16, 54006, Control_c, 14, 11, 102
16, 54028, Control_c, 14, 11, 97
16, 54051, Control_c, 14, 11, 91
16, 54075, Control_c, 14, 11, 86
16, 54097, Control_c, 14, 11, 82
16, 54121, Control_c, 14, 11, 77
16, 54142, Control_c, 14, 11, 73
16, 54167, Control_c, 14, 11, 68
16, 54190, Control_c, 14, 11, 63
16, 54212, Control_c, 14, 11, 61
16, 54225, Control_c, 14, 11, 57
16, 54247, Control_c, 14, 11, 53
16, 54271, Control_c, 14, 11, 49
16, 54293, Control_c, 14, 11, 44
16, 54328, Control_c, 14, 11, 42
16, 54338, Control_c, 14, 11, 39
16, 54362, Control_c, 14, 11, 36
16, 54385, Control_c, 14, 11, 33
16, 54420, Control_c, 14, 11, 31
16, 54456, Control_c, 14, 11, 27
16, 54488, Control_c, 14, 11, 24
16, 54501, Control_c, 14, 11, 21
16, 54536, Control_c, 14, 11, 19
16, 54547, Control_c, 14, 11, 15
16, 54581, Control_c, 14, 11, 13
16, 54593, Control_c, 14, 11, 10
16, 54638, Control_c, 14, 11, 7
16, 54665, Note_off_c, 14, 81, 64
16, 54671, Note_off_c, 14, 90, 64
16, 54672, Control_c, 14, 11, 4
16, 54675, Note_off_c, 14, 86, 64
16, 54720, Note_on_c, 14, 88, 91
16, 54720, Control_c, 14, 11, 127
16, 54950, Note_on_c, 14, 90, 78
16, 54972, Note_off_c, 14, 88, 64
16, 55198, Note_on_c, 14, 91, 90
16, 55220, Note_off_c, 14, 90, 64
16, 55438, Note_off_c, 14, 91, 64
16, 55438, Note_on_c, 14, 93, 95
16, 55680, Note_on_c, 14, 91, 84
16, 55692, Note_off_c, 14, 93, 64
16, 55906, Note_off_c, 14, 91, 64
16, 55910, Note_on_c, 14, 90, 104
16, 56153, Note_off_c, 14, 90, 64
16, 56158, Note_on_c, 14, 88, 95
16, 56395, Note_on_c, 14, 90, 87
16, 56407, Note_off_c, 14, 88, 64
16, 56630, Note_off_c, 14, 90, 64
16, 56635, Note_on_c, 14, 91, 95
16, 56866, Note_off_c, 14, 91, 64
16, 56875, Note_on_c, 14, 93, 88
16, 57093, Note_off_c, 14, 93, 64
16, 57105, Note_on_c, 14, 91, 78
16, 57347, Note_on_c, 14, 90, 110
16, 57381, Note_off_c, 14, 91, 64
16, 57591, Note_off_c, 14, 90, 64
16, 57596, Note_on_c, 14, 86, 88
16, 57828, Note_on_c, 14, 88, 92
16, 57842, Note_off_c, 14, 86, 64
16, 58070, Note_on_c, 14, 90, 91
16, 58077, Note_off_c, 14, 88, 64
16, 58295, Note_off_c, 14, 90, 64
16, 58312, Note_on_c, 14, 91, 91
16, 58551, Note_on_c, 14, 90, 104
16, 58570, Note_off_c, 14, 91, 64
16, 58792, Note_on_c, 14, 88, 86
16, 58822, Note_off_c, 14, 90, 64
16, 59023, Note_off_c, 14, 88, 64
16, 59031, Note_on_c, 14, 86, 80
16, 59263, Note_on_c, 14, 88, 88
16, 59290, Note_off_c, 14, 86, 64
16, 59500, Note_on_c, 14, 90, 84
16, 59520, Note_off_c, 14, 88, 64
16, 59755, Note_on_c, 14, 91, 88
16, 59756, Note_off_c, 14, 90, 64
16, 59997, Note_on_c, 14, 90, 107
16, 60030, Note_off_c, 14, 91, 64
16, 60238, Note_on_c, 14, 86, 84
16, 60240, Note_off_c, 14, 90, 64
16, 60477, Note_on_c, 14, 88, 91
16, 60492, Note_off_c, 14, 86, 64
16, 60720, Note_on_c, 14, 90, 91
16, 60731, Note_off_c, 14, 88, 64
16, 60955, Note_off_c, 14, 90, 64
16, 60966, Note_on_c, 14, 91, 92
16, 61187, Note_off_c, 14, 91, 64
16, 61203, Note_on_c, 14, 93, 80
16, 61431, Note_on_c, 14, 91, 83
16, 61452, Note_off_c, 14, 93, 64
16, 61670, Note_on_c, 14, 90, 104
16, 61705, Note_off_c, 14, 91, 64
16, 61896, Note_off_c, 14, 90, 64
16, 61908, Note_on_c, 14, 88, 97
16, 62146, Note_on_c, 14, 90, 95
16, 62176, Note_off_c, 14, 88, 64
16, 62391, Note_on_c, 14, 91, 94
16, 62396, Note_off_c, 14, 90, 64
16, 62615, Note_off_c, 14, 91, 64
16, 62632, Note_on_c, 14, 93, 94
16, 62860, Note_off_c, 14, 93, 64
16, 62861, Note_on_c, 14, 91, 85
16, 63120, Note_on_c, 14, 90, 107
16, 63168, Note_off_c, 14, 91, 64
16, 63358, Note_off_c, 14, 90, 64
16, 63358, Note_on_c, 14, 88, 91
16, 63590, Note_on_c, 14, 90, 89
16, 63608, Note_off_c, 14, 88, 64
16, 63838, Note_on_c, 14, 91, 95
16, 63850, Note_off_c, 14, 90, 64
16, 64082, Note_off_c, 14, 91, 64
16, 64085, Note_on_c, 14, 93, 90
16, 64308, Note_on_c, 14, 91, 86
16, 64310, Note_off_c, 14, 93, 64
16, 64552, Note_on_c, 14, 90, 107
16, 64588, Note_off_c, 14, 91, 64
16, 64786, Note_off_c, 14, 90, 64
16, 64792, Note_on_c, 14, 88, 100
16, 65022, Note_on_c, 14, 90, 89
16, 65043, Note_off_c, 14, 88, 64
16, 65270, Note_on_c, 14, 91, 92
16, 65281, Note_off_c, 14, 90, 64
16, 65512, Note_off_c, 14, 91, 64
16, 65516, Note_on_c, 14, 93, 92
16, 65748, Note_on_c, 14, 91, 85
16, 65766, Note_off_c, 14, 93, 64
16, 65990, Note_on_c, 14, 90, 110
16, 66018, Note_off_c, 14, 91, 64
16, 66170, Note_off_c, 14, 90, 64
16, 66247, Note_on_c, 14, 88, 97
16, 66423, Note_off_c, 14, 88, 64
16, 66481, Note_on_c, 14, 90, 107
16, 66700, Note_off_c, 14, 90, 64
16, 66720, Note_on_c, 14, 91, 97
16, 66938, Note_off_c, 14, 91, 64
16, 66956, Note_on_c, 14, 93, 95
16, 67172, Note_off_c, 14, 93, 64
16, 67198, Note_on_c, 14, 91, 94
16, 67425, Note_off_c, 14, 91, 64
16, 67437, Note_on_c, 14, 90, 113
16, 67640, Note_off_c, 14, 90, 64
16, 67670, Note_on_c, 14, 88, 102
16, 67880, Note_off_c, 14, 88, 64
16, 67907, Note_on_c, 14, 90, 95
16, 68118, Note_off_c, 14, 90, 64
16, 68148, Note_on_c, 14, 91, 94
16, 68370, Note_off_c, 14, 91, 64
16, 68395, Note_on_c, 14, 93, 90
16, 68626, Note_on_c, 14, 91, 85
16, 68638, Note_off_c, 14, 93, 64
16, 68876, Note_on_c, 14, 90, 107
16, 68910, Note_off_c, 14, 91, 64
16, 69118, Note_off_c, 14, 90, 64
16, 69125, Note_on_c, 14, 88, 100
16, 69312, Note_off_c, 14, 88, 64
16, 69352, Note_on_c, 14, 90, 91
16, 69502, Control_c, 14, 64, 0
16, 69555, Note_off_c, 14, 90, 64
16, 69593, Note_on_c, 14, 91, 100
16, 69811, Note_off_c, 14, 91, 64
16, 69831, Note_on_c, 14, 93, 91
16, 70028, Note_off_c, 14, 93, 64
16, 70062, Note_on_c, 14, 91, 86
16, 70301, Note_off_c, 14, 91, 64
16, 70307, Note_on_c, 14, 90, 107
16, 70518, Note_off_c, 14, 90, 64
16, 70548, Note_on_c, 14, 88, 95
16, 70741, Note_off_c, 14, 88, 64
16, 70787, Note_on_c, 14, 90, 99
16, 70987, Note_off_c, 14, 90, 64
16, 71030, Note_on_c, 14, 91, 95
16, 71245, Note_off_c, 14, 91, 64
16, 71268, Note_on_c, 14, 93, 87
16, 71475, Note_off_c, 14, 93, 64
16, 71505, Note_on_c, 14, 91, 84
16, 71736, Note_off_c, 14, 91, 64
16, 71748, Note_on_c, 14, 90, 104
16, 71932, Note_off_c, 14, 90, 64
16, 72002, Note_on_c, 14, 86, 97
16, 72230, Note_on_c, 14, 88, 91
16, 72238, Note_off_c, 14, 86, 64
16, 72481, Note_on_c, 14, 91, 77
16, 72491, Note_off_c, 14, 88, 64
16, 72668, Note_off_c, 14, 91, 64
16, 72706, Note_on_c, 14, 93, 83
16, 72883, Note_off_c, 14, 93, 64
16, 72940, Note_on_c, 14, 91, 88
16, 73186, Note_on_c, 14, 90, 107
16, 73191, Note_off_c, 14, 91, 64
16, 73418, Note_off_c, 14, 90, 64
16, 73430, Note_on_c, 14, 86, 95
16, 73666, Note_on_c, 14, 91, 92
16, 73706, Note_off_c, 14, 86, 64
16, 73877, Note_off_c, 14, 91, 64
16, 73908, Note_on_c, 14, 93, 85
16, 74151, Note_on_c, 14, 91, 86
16, 74182, Note_off_c, 14, 93, 64
16, 74386, Note_on_c, 14, 90, 104
16, 74415, Note_off_c, 14, 91, 64
16, 74606, Note_off_c, 14, 90, 64
16, 74621, Note_on_c, 14, 86, 87
16, 74825, Note_off_c, 14, 86, 64
16, 74876, Note_on_c, 14, 88, 100
16, 75057, Note_off_c, 14, 88, 64
16, 75107, Note_on_c, 14, 90, 97
16, 75303, Note_off_c, 14, 90, 64
16, 75350, Note_on_c, 14, 91, 100
16, 75573, Note_off_c, 14, 91, 64
16, 75595, Note_on_c, 14, 93, 94
16, 75832, Note_on_c, 14, 91, 91
16, 75841, Note_off_c, 14, 93, 64
16, 76040, Note_off_c, 14, 91, 64
16, 76071, Note_on_c, 14, 90, 107
16, 76271, Note_off_c, 14, 90, 64
16, 76308, Note_on_c, 14, 88, 100
16, 76492, Note_off_c, 14, 88, 64
16, 76547, Note_on_c, 14, 90, 99
16, 76727, Note_off_c, 14, 90, 64
16, 76781, Note_on_c, 14, 91, 97
16, 77022, Note_off_c, 14, 91, 64
16, 77035, Note_on_c, 14, 93, 91
16, 77226, Note_off_c, 14, 93, 64
16, 77271, Note_on_c, 14, 91, 97
16, 77490, Note_off_c, 14, 91, 64
16, 77512, Note_on_c, 14, 90, 107
16, 77712, Note_off_c, 14, 90, 64
16, 77766, Note_on_c, 14, 88, 104
16, 77946, Note_off_c, 14, 88, 64
16, 77993, Note_on_c, 14, 90, 85
16, 78202, Note_off_c, 14, 90, 64
16, 78236, Note_on_c, 14, 91, 91
16, 78428, Note_off_c, 14, 91, 64
16, 78471, Note_on_c, 14, 93, 95
16, 78662, Note_off_c, 14, 93, 64
16, 78710, Note_on_c, 14, 91, 94
16, 78935, Note_off_c, 14, 91, 64
16, 78956, Note_on_c, 14, 90, 84
16, 79182, Note_off_c, 14, 90, 64
16, 79196, Note_on_c, 14, 88, 98
16, 79390, Note_off_c, 14, 88, 64
16, 79438, Note_on_c, 14, 90, 93
16, 79636, Note_off_c, 14, 90, 64
16, 79681, Note_on_c, 14, 91, 98
16, 79880, Note_off_c, 14, 91, 64
16, 79916, Note_on_c, 14, 93, 97
16, 80101, Note_off_c, 14, 93, 64
16, 80146, Note_on_c, 14, 91, 97
16, 80397, Note_on_c, 14, 90, 113
16, 80411, Note_off_c, 14, 91, 64
16, 80630, Note_off_c, 14, 90, 64
16, 80643, Note_on_c, 14, 86, 84
16, 80855, Note_off_c, 14, 86, 64
16, 80870, Note_on_c, 14, 88, 75
16, 81061, Note_off_c, 14, 88, 64
16, 81107, Note_on_c, 14, 90, 89
16, 81307, Note_off_c, 14, 90, 64
16, 81347, Note_on_c, 14, 91, 95
16, 81592, Note_on_c, 14, 90, 110
16, 81605, Note_off_c, 14, 91, 64
16, 81833, Note_on_c, 14, 88, 88
16, 81850, Note_off_c, 14, 90, 64
16, 82066, Note_off_c, 14, 88, 64
16, 82073, Note_on_c, 14, 86, 100
16, 82303, Note_on_c, 14, 88, 88
16, 82312, Note_off_c, 14, 86, 64
16, 82493, Note_off_c, 14, 88, 64
16, 82541, Note_on_c, 14, 90, 91
16, 82761, Note_off_c, 14, 90, 64
16, 82788, Note_on_c, 14, 91, 95
16, 83023, Note_on_c, 14, 90, 107
16, 83035, Note_off_c, 14, 91, 64
16, 83240, Note_off_c, 14, 90, 64
16, 83262, Note_on_c, 14, 86, 81
16, 83506, Note_on_c, 14, 88, 92
16, 83535, Note_off_c, 14, 86, 64
16, 83721, Note_off_c, 14, 88, 64
16, 83742, Note_on_c, 14, 90, 82
16, 83987, Note_on_c, 14, 91, 90
16, 83990, Note_off_c, 14, 90, 64
16, 84200, Note_off_c, 14, 91, 64
16, 84226, Note_on_c, 14, 93, 79
16, 84450, Note_off_c, 14, 93, 64
16, 84462, Note_on_c, 14, 91, 78
16, 84700, Note_on_c, 14, 90, 99
16, 84735, Note_off_c, 14, 91, 64
16, 84947, Note_on_c, 14, 88, 94
16, 84952, Note_off_c, 14, 90, 64
16, 85183, Note_on_c, 14, 90, 93
16, 85213, Note_off_c, 14, 88, 64
16, 85423, Note_on_c, 14, 91, 90
16, 85425, Note_off_c, 14, 90, 64
16, 85670, Note_on_c, 14, 90, 107
16, 85702, Note_off_c, 14, 91, 64
16, 85903, Note_on_c, 14, 88, 98
16, 85923, Note_off_c, 14, 90, 64
16, 86142, Note_on_c, 14, 86, 83
16, 86172, Note_off_c, 14, 88, 64
16, 86382, Note_on_c, 14, 88, 100
16, 86408, Note_off_c, 14, 86, 64
16, 86628, Note_on_c, 14, 90, 85
16, 86658, Note_off_c, 14, 88, 64
16, 86841, Note_off_c, 14, 90, 64
16, 86861, Note_on_c, 14, 91, 97
16, 87103, Note_off_c, 14, 91, 64
16, 87105, Note_on_c, 14, 93, 92
16, 87347, Note_on_c, 14, 91, 79
16, 87388, Note_off_c, 14, 93, 64
16, 87586, Note_on_c, 14, 90, 95
16, 87602, Note_off_c, 14, 91, 64
16, 87811, Note_off_c, 14, 90, 64
16, 87823, Note_on_c, 14, 88, 88
16, 88037, Note_off_c, 14, 88, 64
16, 88062, Note_on_c, 14, 90, 85
16, 88305, Note_off_c, 14, 90, 64
16, 88311, Note_on_c, 14, 91, 97
16, 88538, Note_off_c, 14, 91, 64
16, 88548, Note_on_c, 14, 93, 92
16, 88775, Note_on_c, 14, 91, 83
16, 88785, Note_off_c, 14, 93, 64
16, 89033, Note_on_c, 14, 90, 107
16, 89078, Note_off_c, 14, 91, 64
16, 89223, Note_off_c, 14, 90, 64
16, 89280, Note_on_c, 14, 91, 102
16, 89503, Note_on_c, 14, 93, 86
16, 89531, Note_off_c, 14, 91, 64
16, 89722, Note_off_c, 14, 93, 64
16, 89748, Note_on_c, 14, 95, 95
16, 89965, Note_off_c, 14, 95, 64
16, 89991, Note_on_c, 14, 96, 110
16, 90222, Note_on_c, 14, 95, 88
16, 90237, Note_off_c, 14, 96, 64
16, 90466, Note_on_c, 14, 93, 94
16, 90497, Note_off_c, 14, 95, 64
16, 90708, Note_on_c, 14, 91, 97
16, 90718, Note_off_c, 14, 93, 64
16, 90945, Note_on_c, 14, 93, 90
16, 90987, Note_off_c, 14, 91, 64
16, 91175, Note_off_c, 14, 93, 64
16, 91191, Note_on_c, 14, 95, 94
16, 91417, Note_off_c, 14, 95, 64
16, 91428, Note_on_c, 14, 96, 108
16, 91661, Note_on_c, 14, 95, 87
16, 91677, Note_off_c, 14, 96, 64
16, 91902, Note_on_c, 14, 91, 80
16, 91913, Note_off_c, 14, 95, 64
16, 92150, Note_on_c, 14, 90, 89
16, 92173, Note_off_c, 14, 91, 64
16, 92383, Note_on_c, 14, 91, 88
16, 92402, Note_off_c, 14, 90, 64
16, 92616, Note_off_c, 14, 91, 64
16, 92636, Note_on_c, 14, 91, 62
16, 92640, Note_on_c, 14, 93, 95
16, 92681, Note_off_c, 14, 91, 64
16, 92866, Note_off_c, 14, 93, 64
16, 92878, Note_on_c, 14, 95, 87
16, 93108, Note_on_c, 14, 93, 94
16, 93110, Note_off_c, 14, 95, 64
16, 93345, Note_on_c, 14, 91, 80
16, 93357, Note_off_c, 14, 93, 64
16, 93577, Note_on_c, 14, 90, 84
16, 93578, Note_off_c, 14, 91, 64
16, 93838, Note_on_c, 14, 91, 95
16, 93880, Note_off_c, 14, 90, 64
16, 94068, Note_on_c, 14, 93, 85
16, 94096, Note_off_c, 14, 91, 64
16, 94313, Note_off_c, 14, 93, 64
16, 94316, Note_on_c, 14, 95, 85
16, 94548, Note_on_c, 14, 93, 88
16, 94593, Note_off_c, 14, 95, 64
16, 94785, Note_on_c, 14, 91, 97
16, 94787, Note_off_c, 14, 93, 64
16, 94998, Note_off_c, 14, 91, 64
16, 95037, Note_on_c, 14, 93, 106
16, 95272, Note_on_c, 14, 95, 98
16, 95292, Note_off_c, 14, 93, 64
16, 95482, Note_off_c, 14, 95, 64
16, 95512, Note_on_c, 14, 96, 112
16, 95728, Note_off_c, 14, 96, 64
16, 95753, Note_on_c, 14, 98, 104
16, 95995, Note_on_c, 14, 96, 100
16, 96013, Note_off_c, 14, 98, 64
16, 96200, Note_off_c, 14, 96, 64
16, 96232, Note_on_c, 14, 95, 97
16, 96460, Note_off_c, 14, 95, 64
16, 96475, Note_on_c, 14, 93, 102
16, 96671, Note_off_c, 14, 93, 64
16, 96713, Note_on_c, 14, 95, 98
16, 96898, Note_off_c, 14, 95, 64
16, 96947, Note_on_c, 14, 96, 114
16, 97176, Note_off_c, 14, 96, 64
16, 97197, Note_on_c, 14, 98, 104
16, 97387, Note_off_c, 14, 98, 64
16, 97430, Note_on_c, 14, 96, 94
16, 97675, Note_on_c, 14, 95, 110
16, 97690, Note_off_c, 14, 96, 64
16, 97863, Note_off_c, 14, 95, 64
16, 97916, Note_on_c, 14, 91, 98
16, 98151, Note_on_c, 14, 93, 88
16, 98171, Note_off_c, 14, 91, 64
16, 98330, Note_off_c, 14, 93, 64
16, 98383, Note_on_c, 14, 95, 95
16, 98612, Note_off_c, 14, 95, 64
16, 98638, Note_on_c, 14, 96, 106
16, 98827, Note_off_c, 14, 96, 64
16, 98881, Note_on_c, 14, 95, 102
16, 99077, Note_off_c, 14, 95, 64
16, 99115, Note_on_c, 14, 93, 95
16, 99317, Note_off_c, 14, 93, 64
16, 99346, Note_on_c, 14, 91, 98
16, 99588, Note_on_c, 14, 93, 95
16, 99616, Note_off_c, 14, 91, 64
16, 99770, Note_off_c, 14, 93, 64
16, 99820, Note_on_c, 14, 95, 102
16, 100068, Note_on_c, 14, 90, 95
16, 100106, Note_off_c, 14, 95, 64
16, 100305, Note_on_c, 14, 91, 97
16, 100320, Note_off_c, 14, 90, 64
16, 100495, Note_off_c, 14, 91, 64
16, 100532, Note_on_c, 14, 93, 95
16, 100768, Note_off_c, 14, 93, 64
16, 100807, Note_on_c, 14, 91, 102
16, 101011, Note_off_c, 14, 91, 64
16, 101037, Note_on_c, 14, 93, 90
16, 101221, Note_off_c, 14, 93, 64
16, 101277, Note_on_c, 14, 95, 102
16, 101481, Note_off_c, 14, 95, 64
16, 101515, Note_on_c, 14, 96, 106
16, 101698, Note_off_c, 14, 96, 64
16, 101753, Note_on_c, 14, 95, 98
16, 101977, Note_off_c, 14, 95, 64
16, 101995, Note_on_c, 14, 93, 92
16, 102200, Note_off_c, 14, 93, 64
16, 102232, Note_on_c, 14, 91, 100
16, 102412, Note_off_c, 14, 91, 64
16, 102466, Note_on_c, 14, 93, 95
16, 102668, Note_off_c, 14, 93, 64
16, 102710, Note_on_c, 14, 95, 94
16, 102912, Note_off_c, 14, 95, 64
16, 102953, Note_on_c, 14, 96, 102
16, 103142, Note_off_c, 14, 96, 64
16, 103193, Note_on_c, 14, 95, 95
16, 103402, Note_off_c, 14, 95, 64
16, 103432, Note_on_c, 14, 91, 87
16, 103666, Note_off_c, 14, 91, 64
16, 103676, Note_on_c, 14, 90, 95
16, 103873, Note_off_c, 14, 90, 64
16, 103916, Note_on_c, 14, 91, 91
16, 104111, Note_off_c, 14, 91, 64
16, 104153, Note_on_c, 14, 93, 86
16, 104360, Note_off_c, 14, 93, 64
16, 104395, Note_on_c, 14, 95, 92
16, 104593, Note_off_c, 14, 95, 64
16, 104623, Note_on_c, 14, 93, 85
16, 104823, Note_off_c, 14, 93, 64
16, 104863, Note_on_c, 14, 91, 77
16, 105072, Note_off_c, 14, 91, 64
16, 105108, Note_on_c, 14, 90, 101
16, 105291, Note_off_c, 14, 90, 64
16, 105346, Note_on_c, 14, 91, 95
16, 105521, Note_off_c, 14, 91, 64
16, 105583, Note_on_c, 14, 93, 87
16, 105806, Note_off_c, 14, 93, 64
16, 105830, Note_on_c, 14, 95, 92
16, 106033, Note_off_c, 14, 95, 64
16, 106070, Note_on_c, 14, 93, 100
16, 106270, Note_off_c, 14, 93, 64
16, 106305, Note_on_c, 14, 91, 91
16, 106482, Note_off_c, 14, 91, 64
16, 106568, Note_on_c, 14, 88, 94
16, 106798, Note_on_c, 14, 90, 91
16, 106810, Note_off_c, 14, 88, 64
16, 106986, Note_off_c, 14, 90, 64
16, 107032, Note_on_c, 14, 91, 94
16, 107243, Note_off_c, 14, 91, 64
16, 107277, Note_on_c, 14, 93, 90
16, 107470, Note_off_c, 14, 93, 64
16, 107508, Note_on_c, 14, 91, 91
16, 107705, Note_off_c, 14, 91, 64
16, 107747, Note_on_c, 14, 90, 101
16, 107968, Note_off_c, 14, 90, 64
16, 107991, Note_on_c, 14, 88, 98
16, 108217, Note_off_c, 14, 88, 64
16, 108231, Note_on_c, 14, 90, 99
16, 108398, Note_off_c, 14, 90, 64
16, 108468, Note_on_c, 14, 91, 90
16, 108686, Note_off_c, 14, 91, 64
16, 108710, Note_on_c, 14, 93, 84
16, 108937, Note_off_c, 14, 93, 64
16, 108952, Note_on_c, 14, 91, 108
16, 109168, Note_off_c, 14, 91, 64
16, 109183, Note_on_c, 14, 88, 98
16, 109382, Note_off_c, 14, 88, 64
16, 109418, Note_on_c, 14, 91, 102
16, 109433, Note_on_c, 14, 91, 104
16, 109665, Note_on_c, 14, 95, 97
16, 109675, Note_off_c, 14, 91, 64
16, 109698, Note_off_c, 14, 91, 64
16, 109910, Note_off_c, 14, 95, 64
16, 109910, Note_on_c, 14, 98, 108
16, 110148, Note_on_c, 14, 91, 104
16, 110150, Note_off_c, 14, 98, 64
16, 110382, Note_on_c, 14, 90, 110
16, 110396, Note_off_c, 14, 91, 64
16, 110635, Note_on_c, 14, 88, 106
16, 110640, Note_off_c, 14, 90, 64
16, 110826, Note_off_c, 14, 88, 64
16, 110865, Note_on_c, 14, 90, 104
16, 111107, Note_on_c, 14, 86, 92
16, 111110, Note_off_c, 14, 90, 64
16, 111348, Note_on_c, 14, 88, 106
16, 111376, Note_off_c, 14, 86, 64
16, 111546, Note_off_c, 14, 88, 64
16, 111587, Note_on_c, 14, 90, 110
16, 111827, Note_off_c, 14, 90, 64
16, 111832, Note_on_c, 14, 88, 98
16, 112050, Note_off_c, 14, 88, 64
16, 112067, Note_on_c, 14, 86, 108
16, 112267, Note_off_c, 14, 86, 64
16, 112326, Note_on_c, 14, 88, 104
16, 112506, Note_off_c, 14, 88, 64
16, 112553, Note_on_c, 14, 90, 85
16, 112762, Note_off_c, 14, 90, 64
16, 112796, Note_on_c, 14, 91, 91
16, 112988, Note_off_c, 14, 91, 64
16, 113031, Note_on_c, 14, 93, 95
16, 113222, Note_off_c, 14, 93, 64
16, 113270, Note_on_c, 14, 91, 94
16, 113495, Note_off_c, 14, 91, 64
16, 113516, Note_on_c, 14, 90, 84
16, 113742, Note_off_c, 14, 90, 64
16, 113756, Note_on_c, 14, 88, 98
16, 113950, Note_off_c, 14, 88, 64
16, 113998, Note_on_c, 14, 90, 93
16, 114196, Note_off_c, 14, 90, 64
16, 114241, Note_on_c, 14, 91, 98
16, 114440, Note_off_c, 14, 91, 64
16, 114476, Note_on_c, 14, 93, 97
16, 114661, Note_off_c, 14, 93, 64
16, 114706, Note_on_c, 14, 91, 97
16, 114957, Note_on_c, 14, 90, 113
16, 114971, Note_off_c, 14, 91, 64
16, 115190, Note_off_c, 14, 90, 64
16, 115203, Note_on_c, 14, 86, 84
16, 115415, Note_off_c, 14, 86, 64
16, 115430, Note_on_c, 14, 88, 75
16, 115621, Note_off_c, 14, 88, 64
16, 115667, Note_on_c, 14, 90, 89
16, 115867, Note_off_c, 14, 90, 64
16, 115907, Note_on_c, 14, 91, 95
16, 116152, Note_on_c, 14, 90, 110
16, 116165, Note_off_c, 14, 91, 64
16, 116393, Note_on_c, 14, 88, 88
16, 116410, Note_off_c, 14, 90, 64
16, 116626, Note_off_c, 14, 88, 64
16, 116633, Note_on_c, 14, 86, 100
16, 116863, Note_on_c, 14, 88, 88
16, 116872, Note_off_c, 14, 86, 64
16, 117053, Note_off_c, 14, 88, 64
16, 117101, Note_on_c, 14, 90, 91
16, 117321, Note_off_c, 14, 90, 64
16, 117348, Note_on_c, 14, 91, 95
16, 117583, Note_on_c, 14, 90, 107
16, 117595, Note_off_c, 14, 91, 64
16, 117800, Note_off_c, 14, 90, 64
16, 117822, Note_on_c, 14, 86, 81
16, 118066, Note_on_c, 14, 88, 92
16, 118095, Note_off_c, 14, 86, 64
16, 118281, Note_off_c, 14, 88, 64
16, 118302, Note_on_c, 14, 90, 82
16, 118547, Note_on_c, 14, 91, 90
16, 118550, Note_off_c, 14, 90, 64
16, 118760, Note_off_c, 14, 91, 64
16, 118786, Note_on_c, 14, 93, 79
16, 119010, Note_off_c, 14, 93, 64
16, 119022, Note_on_c, 14, 91, 78
16, 119260, Note_on_c, 14, 90, 99
16, 119295, Note_off_c, 14, 91, 64
16, 119507, Note_on_c, 14, 88, 94
16, 119512, Note_off_c, 14, 90, 64
16, 119743, Note_on_c, 14, 90, 93
16, 119773, Note_off_c, 14, 88, 64
16, 119983, Note_on_c, 14, 91, 90
16, 119985, Note_off_c, 14, 90, 64
16, 120230, Note_on_c, 14, 90, 107
16, 120262, Note_off_c, 14, 91, 64
16, 120463, Note_on_c, 14, 88, 98
16, 120483, Note_off_c, 14, 90, 64
16, 120702, Note_on_c, 14, 86, 83
16, 120732, Note_off_c, 14, 88, 64
16, 120942, Note_on_c, 14, 88, 100
16, 120968, Note_off_c, 14, 86, 64
16, 121188, Note_on_c, 14, 90, 85
16, 121218, Note_off_c, 14, 88, 64
16, 121401, Note_off_c, 14, 90, 64
16, 121421, Note_on_c, 14, 91, 97
16, 121663, Note_off_c, 14, 91, 64
16, 121665, Note_on_c, 14, 93, 92
16, 121907, Note_on_c, 14, 91, 79
16, 121948, Note_off_c, 14, 93, 64
16, 122146, Note_on_c, 14, 90, 95
16, 122162, Note_off_c, 14, 91, 64
16, 122371, Note_off_c, 14, 90, 64
16, 122383, Note_on_c, 14, 88, 88
16, 122597, Note_off_c, 14, 88, 64
16, 122622, Note_on_c, 14, 90, 85
16, 122865, Note_off_c, 14, 90, 64
16, 122871, Note_on_c, 14, 91, 97
16, 123098, Note_off_c, 14, 91, 64
16, 123108, Note_on_c, 14, 93, 92
16, 123335, Note_on_c, 14, 91, 83
16, 123345, Note_off_c, 14, 93, 64
16, 123593, Note_on_c, 14, 90, 107
16, 123638, Note_off_c, 14, 91, 64
16, 123783, Note_off_c, 14, 90, 64
16, 123840, Note_on_c, 14, 88, 100
16, 124066, Note_on_c, 14, 90, 93
16, 124087, Note_off_c, 14, 88, 64
16, 124260, Note_off_c, 14, 90, 64
16, 124306, Note_on_c, 14, 91, 94
16, 124530, Note_off_c, 14, 91, 64
16, 124548, Note_on_c, 14, 93, 90
16, 124792, Note_on_c, 14, 91, 98
16, 124812, Note_off_c, 14, 93, 64
16, 125037, Note_off_c, 14, 91, 64
16, 125037, Note_on_c, 14, 90, 101
16, 125246, Note_off_c, 14, 90, 64
16, 125271, Note_on_c, 14, 88, 108
16, 125476, Note_off_c, 14, 88, 64
16, 125511, Note_on_c, 14, 90, 110
16, 125722, Note_off_c, 14, 90, 64
16, 125756, Note_on_c, 14, 91, 92
16, 125966, Note_off_c, 14, 91, 64
16, 125987, Note_on_c, 14, 93, 90
16, 126227, Note_on_c, 14, 91, 106
16, 126235, Note_off_c, 14, 93, 64
16, 126472, Note_on_c, 14, 90, 99
16, 126497, Note_off_c, 14, 91, 64
16, 126658, Note_off_c, 14, 90, 64
16, 126705, Note_on_c, 14, 88, 108
16, 126922, Note_off_c, 14, 88, 64
16, 126943, Note_on_c, 14, 90, 104
16, 127133, Note_off_c, 14, 90, 64
16, 127183, Note_on_c, 14, 91, 97
16, 127433, Note_off_c, 14, 91, 64
16, 127437, Note_on_c, 14, 93, 84
16, 127651, Note_off_c, 14, 93, 64
16, 127676, Note_on_c, 14, 91, 95
16, 127871, Note_off_c, 14, 91, 64
16, 127913, Note_on_c, 14, 90, 95
16, 128122, Note_off_c, 14, 90, 64
16, 128147, Note_on_c, 14, 88, 106
16, 128375, Note_off_c, 14, 88, 64
16, 128397, Note_on_c, 14, 90, 101
16, 128580, Note_off_c, 14, 90, 64
16, 128630, Note_on_c, 14, 91, 90
16, 128843, Note_off_c, 14, 91, 64
16, 128871, Note_on_c, 14, 93, 90
16, 129075, Note_off_c, 14, 93, 64
16, 129112, Note_on_c, 14, 91, 97
16, 129318, Note_off_c, 14, 91, 64
16, 129345, Note_on_c, 14, 90, 91
16, 129513, Note_off_c, 14, 90, 64
16, 129592, Note_on_c, 14, 91, 110
16, 129820, Note_off_c, 14, 91, 64
16, 129831, Note_on_c, 14, 95, 91
16, 130046, Note_off_c, 14, 95, 64
16, 130071, Note_on_c, 14, 98, 106
16, 130307, Note_off_c, 14, 98, 64
16, 130315, Note_on_c, 14, 91, 97
16, 130537, Note_off_c, 14, 91, 64
16, 130546, Note_on_c, 14, 90, 107
16, 130755, Note_off_c, 14, 90, 64
16, 130790, Note_on_c, 14, 88, 81
16, 131023, Note_off_c, 14, 88, 64
16, 131031, Note_on_c, 14, 90, 119
16, 131236, Note_off_c, 14, 90, 64
16, 131266, Note_on_c, 14, 86, 94
16, 131492, Note_off_c, 14, 86, 64
16, 131515, Note_on_c, 14, 88, 91
16, 131703, Note_off_c, 14, 88, 64
16, 131746, Note_on_c, 14, 90, 99
16, 131987, Note_on_c, 14, 88, 97
16, 132011, Note_off_c, 14, 90, 64
16, 132211, Note_off_c, 14, 88, 64
16, 132227, Note_on_c, 14, 86, 91
16, 132428, Note_off_c, 14, 86, 64
16, 132468, Note_on_c, 14, 88, 104
16, 132676, Note_off_c, 14, 88, 64
16, 132708, Note_on_c, 14, 90, 87
16, 132898, Note_off_c, 14, 90, 64
16, 132948, Note_on_c, 14, 91, 92
16, 133150, Note_off_c, 14, 91, 64
16, 133196, Note_on_c, 14, 90, 110
16, 133418, Note_off_c, 14, 90, 64
16, 133428, Note_on_c, 14, 88, 88
16, 133658, Note_off_c, 14, 88, 64
16, 133672, Note_on_c, 14, 86, 90
16, 133882, Note_off_c, 14, 86, 64
16, 133911, Note_on_c, 14, 88, 97
16, 134143, Note_on_c, 14, 90, 82
16, 134157, Note_off_c, 14, 88, 64
16, 134356, Note_off_c, 14, 90, 64
16, 134382, Note_on_c, 14, 91, 88
16, 134600, Note_off_c, 14, 91, 64
16, 134623, Note_on_c, 14, 90, 104
16, 134786, Note_off_c, 14, 90, 64
16, 134856, Note_on_c, 14, 91, 110
16, 135075, Note_off_c, 14, 91, 64
16, 135098, Note_on_c, 14, 93, 100
16, 135311, Note_off_c, 14, 93, 64
16, 135363, Note_on_c, 14, 91, 104
16, 135591, Note_on_c, 14, 93, 94
16, 135612, Note_off_c, 14, 91, 64
16, 135838, Note_on_c, 14, 95, 95
16, 135876, Note_off_c, 14, 93, 64
16, 136068, Note_off_c, 14, 95, 64
16, 136082, Note_on_c, 14, 96, 108
16, 136318, Note_on_c, 14, 95, 104
16, 136332, Note_off_c, 14, 96, 64
16, 136552, Note_on_c, 14, 93, 102
16, 136568, Note_off_c, 14, 95, 64
16, 136778, Note_off_c, 14, 93, 64
16, 136790, Note_on_c, 14, 91, 104
16, 137027, Note_on_c, 14, 93, 100
16, 137051, Note_off_c, 14, 91, 64
16, 137265, Note_on_c, 14, 95, 94
16, 137283, Note_off_c, 14, 93, 64
16, 137501, Note_off_c, 14, 95, 64
16, 137506, Note_on_c, 14, 96, 106
16, 137748, Note_on_c, 14, 95, 108
16, 137780, Note_off_c, 14, 96, 64
16, 137966, Note_off_c, 14, 95, 64
16, 137981, Note_on_c, 14, 91, 102
16, 138188, Note_off_c, 14, 91, 64
16, 138228, Note_on_c, 14, 90, 113
16, 138435, Note_off_c, 14, 90, 64
16, 138468, Note_on_c, 14, 91, 95
16, 138677, Note_off_c, 14, 91, 64
16, 138707, Note_on_c, 14, 93, 100
16, 138923, Note_off_c, 14, 93, 64
16, 138946, Note_on_c, 14, 95, 108
16, 139137, Note_off_c, 14, 95, 64
16, 139181, Note_on_c, 14, 93, 100
16, 139397, Note_off_c, 14, 93, 64
16, 139421, Note_on_c, 14, 91, 94
16, 139667, Note_on_c, 14, 90, 110
16, 139668, Note_off_c, 14, 91, 64
16, 139868, Note_off_c, 14, 90, 64
16, 139906, Note_on_c, 14, 91, 104
16, 140098, Note_off_c, 14, 91, 64
16, 140140, Note_on_c, 14, 93, 94
16, 140363, Note_off_c, 14, 93, 64
16, 140386, Note_on_c, 14, 95, 104
16, 140556, Note_off_c, 14, 95, 64
16, 140613, Note_on_c, 14, 93, 98
16, 140845, Note_off_c, 14, 93, 64
16, 140868, Note_on_c, 14, 91, 98
16, 141047, Note_off_c, 14, 91, 64
16, 141120, Note_on_c, 14, 93, 108
16, 141345, Note_off_c, 14, 93, 64
16, 141353, Note_on_c, 14, 95, 98
16, 141556, Note_off_c, 14, 95, 64
16, 141590, Note_on_c, 14, 96, 108
16, 141793, Note_off_c, 14, 96, 64
16, 141831, Note_on_c, 14, 98, 104
16, 142011, Note_off_c, 14, 98, 64
16, 142063, Note_on_c, 14, 96, 108
16, 142276, Note_off_c, 14, 96, 64
16, 142307, Note_on_c, 14, 95, 97
16, 142526, Note_off_c, 14, 95, 64
16, 142547, Note_on_c, 14, 93, 104
16, 142736, Note_off_c, 14, 93, 64
16, 142783, Note_on_c, 14, 95, 104
16, 142985, Note_off_c, 14, 95, 64
16, 143026, Note_on_c, 14, 96, 104
16, 143215, Note_off_c, 14, 96, 64
16, 143271, Note_on_c, 14, 95, 106
16, 143481, Note_off_c, 14, 95, 64
16, 143508, Note_on_c, 14, 93, 97
16, 143752, Note_on_c, 14, 90, 116
16, 143760, Note_off_c, 14, 93, 64
16, 143965, Note_off_c, 14, 90, 64
16, 143990, Note_on_c, 14, 91, 104
16, 144210, Note_off_c, 14, 91, 64
16, 144228, Note_on_c, 14, 93, 94
16, 144437, Note_off_c, 14, 93, 64
16, 144472, Note_on_c, 14, 95, 100
16, 144675, Note_off_c, 14, 95, 64
16, 144716, Note_on_c, 14, 96, 110
16, 144886, Note_off_c, 14, 96, 64
16, 144945, Note_on_c, 14, 95, 102
16, 145132, Note_off_c, 14, 95, 64
16, 145192, Note_on_c, 14, 93, 106
16, 145391, Note_off_c, 14, 93, 64
16, 145432, Note_on_c, 14, 91, 106
16, 145613, Note_off_c, 14, 91, 64
16, 145663, Note_on_c, 14, 93, 95
16, 145861, Note_off_c, 14, 93, 64
16, 145911, Note_on_c, 14, 95, 94
16, 146153, Note_on_c, 14, 90, 110
16, 146173, Note_off_c, 14, 95, 64
16, 146352, Note_off_c, 14, 90, 64
16, 146386, Note_on_c, 14, 91, 104
16, 146605, Note_off_c, 14, 91, 64
16, 146628, Note_on_c, 14, 93, 94
16, 146810, Note_off_c, 14, 93, 64
16, 146882, Note_on_c, 14, 91, 114
16, 147113, Note_on_c, 14, 93, 97
16, 147133, Note_off_c, 14, 91, 64
16, 147352, Note_off_c, 14, 93, 64
16, 147358, Note_on_c, 14, 95, 98
16, 147597, Note_off_c, 14, 95, 64
16, 147603, Note_on_c, 14, 96, 112
16, 147798, Note_off_c, 14, 96, 64
16, 147833, Note_on_c, 14, 95, 91
16, 148070, Note_on_c, 14, 93, 110
16, 148091, Note_off_c, 14, 95, 64
16, 148313, Note_on_c, 14, 91, 112
16, 148317, Note_off_c, 14, 93, 64
16, 148507, Note_off_c, 14, 91, 64
16, 148545, Note_on_c, 14, 93, 102
16, 148773, Note_off_c, 14, 93, 64
16, 148787, Note_on_c, 14, 95, 98
16, 149022, Note_off_c, 14, 95, 64
16, 149033, Note_on_c, 14, 96, 110
16, 149215, Note_off_c, 14, 96, 64
16, 149267, Note_on_c, 14, 95, 98
16, 149511, Note_off_c, 14, 95, 64
16, 149511, Note_on_c, 14, 91, 102
16, 149751, Note_on_c, 14, 90, 95
16, 149768, Note_off_c, 14, 91, 64
16, 149986, Note_on_c, 14, 91, 88
16, 150011, Note_off_c, 14, 90, 64
16, 150206, Note_off_c, 14, 91, 64
16, 150226, Note_on_c, 14, 93, 83
16, 150455, Note_off_c, 14, 93, 64
16, 150473, Note_on_c, 14, 95, 100
16, 150705, Note_on_c, 14, 93, 88
16, 150711, Note_off_c, 14, 95, 64
16, 150950, Note_on_c, 14, 91, 108
16, 150982, Note_off_c, 14, 93, 64
16, 151196, Note_on_c, 14, 90, 113
16, 151201, Note_off_c, 14, 91, 64
16, 151430, Note_on_c, 14, 91, 95
16, 151456, Note_off_c, 14, 90, 64
16, 151657, Note_off_c, 14, 91, 64
16, 151663, Note_on_c, 14, 93, 90
16, 151910, Note_on_c, 14, 95, 102
16, 151911, Note_off_c, 14, 93, 64
16, 152115, Note_off_c, 14, 95, 64
16, 152141, Note_on_c, 14, 93, 86
16, 152386, Note_on_c, 14, 90, 107
16, 152406, Note_off_c, 14, 93, 64
16, 152621, Note_on_c, 14, 88, 100
16, 152626, Note_off_c, 14, 90, 64
16, 152865, Note_on_c, 14, 90, 101
16, 152915, Note_off_c, 14, 88, 64
16, 153120, Note_on_c, 14, 91, 88
16, 153165, Note_off_c, 14, 90, 64
16, 153333, Note_off_c, 14, 91, 64
16, 153353, Note_on_c, 14, 93, 98
16, 153593, Note_on_c, 14, 91, 110
16, 153630, Note_off_c, 14, 93, 64
16, 153831, Note_on_c, 14, 90, 113
16, 153862, Note_off_c, 14, 91, 64
16, 154052, Note_off_c, 14, 90, 64
16, 154065, Note_on_c, 14, 88, 104
16, 154307, Note_on_c, 14, 90, 110
16, 154342, Note_off_c, 14, 88, 64
16, 154517, Note_off_c, 14, 90, 64
16, 154552, Note_on_c, 14, 91, 95
16, 154778, Note_off_c, 14, 91, 64
16, 154795, Note_on_c, 14, 93, 92
16, 155035, Note_on_c, 14, 91, 108
16, 155066, Note_off_c, 14, 93, 64
16, 155271, Note_on_c, 14, 90, 110
16, 155302, Note_off_c, 14, 91, 64
16, 155441, Note_off_c, 14, 90, 64
16, 155521, Note_on_c, 14, 91, 97
16, 155741, Note_off_c, 14, 91, 64
16, 155757, Note_on_c, 14, 86, 104
16, 155995, Note_on_c, 14, 88, 106
16, 156016, Note_off_c, 14, 86, 64
16, 156212, Note_off_c, 14, 88, 64
16, 156240, Note_on_c, 14, 91, 110
16, 156481, Note_on_c, 14, 90, 104
16, 156490, Note_off_c, 14, 91, 64
16, 156703, Note_off_c, 14, 90, 64
16, 156728, Note_on_c, 14, 88, 106
16, 156925, Note_off_c, 14, 88, 64
16, 156962, Note_on_c, 14, 90, 113
16, 157190, Note_off_c, 14, 90, 64
16, 157198, Note_on_c, 14, 86, 98
16, 157443, Note_on_c, 14, 88, 114
16, 157478, Note_off_c, 14, 86, 64
16, 157647, Note_off_c, 14, 88, 64
16, 157673, Note_on_c, 14, 90, 101
16, 157872, Note_off_c, 14, 90, 64
16, 157912, Note_on_c, 14, 91, 110
16, 158115, Note_off_c, 14, 91, 64
16, 158146, Note_on_c, 14, 93, 100
16, 158298, Note_off_c, 14, 93, 64
16, 158400, Note_on_c, 14, 88, 102
16, 158628, Note_on_c, 14, 90, 93
16, 158643, Note_off_c, 14, 88, 64
16, 158831, Note_off_c, 14, 90, 64
16, 158872, Note_on_c, 14, 91, 98
16, 159085, Note_off_c, 14, 91, 64
16, 159118, Note_on_c, 14, 93, 102
16, 159293, Note_off_c, 14, 93, 64
16, 159350, Note_on_c, 14, 91, 98
16, 159541, Note_off_c, 14, 91, 64
16, 159591, Note_on_c, 14, 90, 123
16, 159795, Note_off_c, 14, 90, 64
16, 159842, Note_on_c, 14, 88, 104
16, 160013, Note_off_c, 14, 88, 64
16, 160070, Note_on_c, 14, 90, 95
16, 160268, Note_off_c, 14, 90, 64
16, 160311, Note_on_c, 14, 91, 97
16, 160507, Note_off_c, 14, 91, 64
16, 160553, Note_on_c, 14, 93, 88
16, 160727, Note_off_c, 14, 93, 64
16, 160791, Note_on_c, 14, 91, 100
16, 160986, Note_off_c, 14, 91, 64
16, 161032, Note_on_c, 14, 90, 116
16, 161241, Note_off_c, 14, 90, 64
16, 161270, Note_on_c, 14, 86, 102
16, 161497, Note_off_c, 14, 86, 64
16, 161517, Note_on_c, 14, 88, 98
16, 161710, Note_off_c, 14, 88, 64
16, 161751, Note_on_c, 14, 90, 74
16, 161967, Note_off_c, 14, 90, 64
16, 161996, Note_on_c, 14, 91, 97
16, 162192, Note_off_c, 14, 91, 64
16, 162232, Note_on_c, 14, 90, 113
16, 162428, Note_off_c, 14, 90, 64
16, 162467, Note_on_c, 14, 88, 97
16, 162697, Note_off_c, 14, 88, 64
16, 162721, Note_on_c, 14, 86, 95
16, 162911, Note_off_c, 14, 86, 64
16, 162951, Note_on_c, 14, 88, 95
16, 163137, Note_off_c, 14, 88, 64
16, 163185, Note_on_c, 14, 90, 87
16, 163378, Note_off_c, 14, 90, 64
16, 163428, Note_on_c, 14, 91, 100
16, 163632, Note_off_c, 14, 91, 64
16, 163671, Note_on_c, 14, 90, 110
16, 163891, Note_off_c, 14, 90, 64
16, 163910, Note_on_c, 14, 86, 98
16, 164142, Note_off_c, 14, 86, 64
16, 164160, Note_on_c, 14, 88, 100
16, 164340, Note_off_c, 14, 88, 64
16, 164385, Note_on_c, 14, 90, 89
16, 164576, Note_off_c, 14, 90, 64
16, 164626, Note_on_c, 14, 91, 98
16, 164821, Note_off_c, 14, 91, 64
16, 164873, Note_on_c, 14, 93, 80
16, 165068, Note_off_c, 14, 93, 64
16, 165103, Note_on_c, 14, 91, 87
16, 165317, Note_off_c, 14, 91, 64
16, 165347, Note_on_c, 14, 90, 107
16, 165533, Note_off_c, 14, 90, 64
16, 165588, Note_on_c, 14, 88, 91
16, 165783, Note_off_c, 14, 88, 64
16, 165823, Note_on_c, 14, 90, 87
16, 166051, Note_off_c, 14, 90, 64
16, 166063, Note_on_c, 14, 91, 95
16, 166316, Note_on_c, 14, 90, 116
16, 166347, Note_off_c, 14, 91, 64
16, 166506, Note_off_c, 14, 90, 64
16, 166550, Note_on_c, 14, 88, 97
16, 166773, Note_off_c, 14, 88, 64
16, 166787, Note_on_c, 14, 86, 95
16, 167013, Note_off_c, 14, 86, 64
16, 167031, Note_on_c, 14, 88, 106
16, 167233, Note_off_c, 14, 88, 64
16, 167263, Note_on_c, 14, 90, 89
16, 167468, Note_off_c, 14, 90, 64
16, 167502, Note_on_c, 14, 91, 94
16, 167715, Note_off_c, 14, 91, 64
16, 167745, Note_on_c, 14, 93, 85
16, 167920, Note_off_c, 14, 93, 64
16, 167976, Note_on_c, 14, 91, 83
16, 168222, Note_on_c, 14, 90, 110
16, 168257, Note_off_c, 14, 91, 64
16, 168416, Note_off_c, 14, 90, 64
16, 168465, Note_on_c, 14, 88, 106
16, 168652, Note_off_c, 14, 88, 64
16, 168693, Note_on_c, 14, 90, 95
16, 168892, Note_off_c, 14, 90, 64
16, 168936, Note_on_c, 14, 91, 98
16, 169192, Note_on_c, 14, 90, 127
16, 169222, Note_off_c, 14, 91, 64
16, 169418, Note_on_c, 14, 88, 95
16, 169441, Note_off_c, 14, 90, 64
16, 169660, Note_off_c, 14, 88, 64
16, 169665, Note_on_c, 14, 86, 97
16, 169846, Note_off_c, 14, 86, 64
16, 169920, Note_on_c, 14, 88, 104
16, 170153, Note_on_c, 14, 90, 97
16, 170160, Note_off_c, 14, 88, 64
16, 170370, Note_off_c, 14, 90, 64
16, 170397, Note_on_c, 14, 91, 97
16, 170625, Note_off_c, 14, 91, 64
16, 170638, Note_on_c, 14, 93, 95
16, 170873, Note_on_c, 14, 91, 91
16, 170882, Note_off_c, 14, 93, 64
16, 171106, Note_off_c, 14, 91, 64
16, 171116, Note_on_c, 14, 90, 110
16, 171333, Note_off_c, 14, 90, 64
16, 171358, Note_on_c, 14, 88, 100
16, 171551, Note_off_c, 14, 88, 64
16, 171592, Note_on_c, 14, 90, 99
16, 171805, Note_off_c, 14, 90, 64
16, 171835, Note_on_c, 14, 91, 98
16, 172077, Note_off_c, 14, 91, 64
16, 172077, Note_on_c, 14, 90, 116
16, 172283, Note_off_c, 14, 90, 64
16, 172311, Note_on_c, 14, 88, 102
16, 172531, Note_off_c, 14, 88, 64
16, 172552, Note_on_c, 14, 86, 87
16, 172772, Note_off_c, 14, 86, 64
16, 172791, Note_on_c, 14, 88, 100
16, 173032, Note_on_c, 14, 90, 87
16, 173058, Note_off_c, 14, 88, 64
16, 173228, Note_off_c, 14, 90, 64
16, 173272, Note_on_c, 14, 91, 102
16, 173491, Note_off_c, 14, 91, 64
16, 173516, Note_on_c, 14, 93, 91
16, 173755, Note_on_c, 14, 91, 86
16, 173768, Note_off_c, 14, 93, 64
16, 173975, Note_off_c, 14, 91, 64
16, 173995, Note_on_c, 14, 90, 116
16, 174192, Note_off_c, 14, 90, 64
16, 174236, Note_on_c, 14, 88, 108
16, 174412, Note_off_c, 14, 88, 64
16, 174470, Note_on_c, 14, 90, 95
16, 174667, Note_off_c, 14, 90, 64
16, 174713, Note_on_c, 14, 91, 92
16, 174953, Note_off_c, 14, 91, 64
16, 174955, Note_on_c, 14, 90, 119
16, 175196, Note_on_c, 14, 88, 97
16, 175222, Note_off_c, 14, 90, 64
16, 175402, Note_off_c, 14, 88, 64
16, 175433, Note_on_c, 14, 86, 98
16, 175648, Note_off_c, 14, 86, 64
16, 175667, Note_on_c, 14, 88, 98
16, 175885, Note_off_c, 14, 88, 64
16, 175908, Note_on_c, 14, 90, 87
16, 176105, Note_off_c, 14, 90, 64
16, 176148, Note_on_c, 14, 91, 98
16, 176377, Note_off_c, 14, 91, 64
16, 176396, Note_on_c, 14, 93, 88
16, 176591, Note_off_c, 14, 93, 64
16, 176633, Note_on_c, 14, 91, 90
16, 176845, Note_off_c, 14, 91, 64
16, 176873, Note_on_c, 14, 90, 99
16, 177062, Note_off_c, 14, 90, 64
16, 177113, Note_on_c, 14, 88, 104
16, 177308, Note_off_c, 14, 88, 64
16, 177347, Note_on_c, 14, 90, 89
16, 177568, Note_off_c, 14, 90, 64
16, 177595, Note_on_c, 14, 91, 97
16, 177830, Note_off_c, 14, 91, 64
16, 177833, Note_on_c, 14, 90, 107
16, 178075, Note_on_c, 14, 88, 97
16, 178092, Note_off_c, 14, 90, 64
16, 178270, Note_off_c, 14, 88, 64
16, 178312, Note_on_c, 14, 86, 98
16, 178545, Note_off_c, 14, 86, 64
16, 178556, Note_on_c, 14, 88, 100
16, 178746, Note_off_c, 14, 88, 64
16, 178792, Note_on_c, 14, 90, 97
16, 179010, Note_off_c, 14, 90, 64
16, 179036, Note_on_c, 14, 91, 100
16, 179242, Note_off_c, 14, 91, 64
16, 179276, Note_on_c, 14, 93, 91
16, 179453, Note_off_c, 14, 93, 64
16, 179513, Note_on_c, 14, 91, 91
16, 179712, Note_off_c, 14, 91, 64
16, 179755, Note_on_c, 14, 90, 107
16, 179940, Note_off_c, 14, 90, 64
16, 179995, Note_on_c, 14, 88, 92
16, 180172, Note_off_c, 14, 88, 64
16, 180230, Note_on_c, 14, 90, 84
16, 180426, Note_off_c, 14, 90, 64
16, 180471, Note_on_c, 14, 91, 94
16, 180717, Note_on_c, 14, 90, 113
16, 180747, Note_off_c, 14, 91, 64
16, 180911, Note_off_c, 14, 90, 64
16, 180956, Note_on_c, 14, 88, 100
16, 181158, Note_off_c, 14, 88, 64
16, 181195, Note_on_c, 14, 86, 98
16, 181412, Note_off_c, 14, 86, 64
16, 181435, Note_on_c, 14, 88, 95
16, 181623, Note_off_c, 14, 88, 64
16, 181668, Note_on_c, 14, 90, 91
16, 181887, Note_off_c, 14, 90, 64
16, 181916, Note_on_c, 14, 91, 90
16, 182123, Note_off_c, 14, 91, 64
16, 182155, Note_on_c, 14, 93, 90
16, 182368, Note_off_c, 14, 93, 64
16, 182392, Note_on_c, 14, 91, 74
16, 182603, Note_off_c, 14, 91, 64
16, 182632, Note_on_c, 14, 90, 99
16, 182843, Note_off_c, 14, 90, 64
16, 182873, Note_on_c, 14, 88, 97
16, 183077, Note_off_c, 14, 88, 64
16, 183112, Note_on_c, 14, 90, 87
16, 183298, Note_off_c, 14, 90, 64
16, 183348, Note_on_c, 14, 91, 95
16, 183568, Note_off_c, 14, 91, 64
16, 183593, Note_on_c, 14, 90, 107
16, 183798, Note_off_c, 14, 90, 64
16, 183835, Note_on_c, 14, 88, 92
16, 184037, Note_off_c, 14, 88, 64
16, 184071, Note_on_c, 14, 86, 100
16, 184296, Note_off_c, 14, 86, 64
16, 184317, Note_on_c, 14, 88, 104
16, 184516, Note_off_c, 14, 88, 64
16, 184556, Note_on_c, 14, 90, 97
16, 184761, Note_off_c, 14, 90, 64
16, 184796, Note_on_c, 14, 91, 94
16, 185002, Note_off_c, 14, 91, 64
16, 185037, Note_on_c, 14, 93, 92
16, 185217, Note_off_c, 14, 93, 64
16, 185275, Note_on_c, 14, 91, 91
16, 185488, Note_off_c, 14, 91, 64
16, 185516, Note_on_c, 14, 90, 99
16, 185707, Note_off_c, 14, 90, 64
16, 185753, Note_on_c, 14, 88, 98
16, 185945, Note_off_c, 14, 88, 64
16, 185990, Note_on_c, 14, 90, 97
16, 186223, Note_off_c, 14, 90, 64
16, 186237, Note_on_c, 14, 91, 92
16, 186462, Note_off_c, 14, 91, 64
16, 186478, Note_on_c, 14, 90, 107
16, 186690, Note_off_c, 14, 90, 64
16, 186716, Note_on_c, 14, 88, 84
16, 186920, Note_off_c, 14, 88, 64
16, 186955, Note_on_c, 14, 86, 102
16, 187157, Note_off_c, 14, 86, 64
16, 187197, Note_on_c, 14, 88, 76
16, 187376, Note_off_c, 14, 88, 64
16, 187432, Note_on_c, 14, 90, 82
16, 187607, Note_off_c, 14, 90, 64
16, 187671, Note_on_c, 14, 91, 98
16, 187897, Note_off_c, 14, 91, 64
16, 187917, Note_on_c, 14, 93, 95
16, 188096, Note_off_c, 14, 93, 64
16, 188153, Note_on_c, 14, 91, 84
16, 188351, Note_off_c, 14, 91, 64
16, 188393, Note_on_c, 14, 90, 99
16, 188577, Note_off_c, 14, 90, 64
16, 188633, Note_on_c, 14, 88, 92
16, 188816, Note_off_c, 14, 88, 64
16, 188870, Note_on_c, 14, 90, 87
16, 189066, Note_off_c, 14, 90, 64
16, 189113, Note_on_c, 14, 91, 98
16, 189338, Note_off_c, 14, 91, 64
16, 189355, Note_on_c, 14, 90, 107
16, 189543, Note_off_c, 14, 90, 64
16, 189596, Note_on_c, 14, 88, 97
16, 189790, Note_off_c, 14, 88, 64
16, 189832, Note_on_c, 14, 86, 98
16, 190037, Note_off_c, 14, 86, 64
16, 190073, Note_on_c, 14, 88, 97
16, 190275, Note_off_c, 14, 88, 64
16, 190311, Note_on_c, 14, 90, 93
16, 190522, Note_off_c, 14, 90, 64
16, 190558, Note_on_c, 14, 91, 102
16, 190753, Note_off_c, 14, 91, 64
16, 190797, Note_on_c, 14, 93, 95
16, 190975, Note_off_c, 14, 93, 64
16, 191036, Note_on_c, 14, 91, 91
16, 191212, Note_off_c, 14, 91, 64
16, 191272, Note_on_c, 14, 90, 116
16, 191480, Note_off_c, 14, 90, 64
16, 191517, Note_on_c, 14, 88, 97
16, 191703, Note_off_c, 14, 88, 64
16, 191757, Note_on_c, 14, 90, 99
16, 191966, Note_off_c, 14, 90, 64
16, 192002, Note_on_c, 14, 91, 95
16, 192202, Note_off_c, 14, 91, 64
16, 192237, Note_on_c, 14, 90, 110
16, 192420, Note_off_c, 14, 90, 64
16, 192476, Note_on_c, 14, 88, 100
16, 192668, Note_off_c, 14, 88, 64
16, 192713, Note_on_c, 14, 86, 104
16, 192911, Note_off_c, 14, 86, 64
16, 192911, End_track
0, 0, End_of_file
