0, 0, Header, 1, 13, 120
1, 0, Start_track
1, 0, Title_t, "Jumpin, Jumpin"
1, 0, Copyright_t, "Copyright © 2000  Michael Spikes"
1, 0, Text_t, "Sequenced By: Michael A. Spike"
1, 0, Time_signature, 4, 2, 24, 8
1, 0, Key_signature, 0, "major"
1, 0, Tempo, 333333
1, 0, End_track
2, 0, Start_track
2, 0, MIDI_port, 0
2, 0, Title_t, "Jumpin' Jumpin    (Beep)"
2, 0, Control_c, 0, 0, 0
2, 0, Control_c, 0, 32, 20
2, 0, Program_c, 0, 87
2, 281, Control_c, 0, 7, 120
2, 366, Control_c, 0, 7, 119
2, 376, Control_c, 0, 7, 118
2, 391, Control_c, 0, 7, 117
2, 406, Control_c, 0, 7, 96
2, 466, Control_c, 0, 7, 94
2, 485, Note_on_c, 0, 73, 127
2, 490, Control_c, 0, 7, 93
2, 510, Note_on_c, 0, 73, 0
2, 510, Control_c, 0, 7, 92
2, 515, Control_c, 0, 7, 91
2, 543, Control_c, 0, 7, 89
2, 543, Note_on_c, 0, 73, 127
2, 558, Control_c, 0, 7, 87
2, 565, Note_on_c, 0, 73, 0
2, 565, Control_c, 0, 7, 86
2, 574, Control_c, 0, 7, 82
2, 584, Control_c, 0, 7, 80
2, 600, Note_on_c, 0, 73, 127
2, 601, Control_c, 0, 7, 79
2, 616, Control_c, 0, 7, 75
2, 621, Control_c, 0, 7, 73
2, 623, Note_on_c, 0, 73, 0
2, 634, Control_c, 0, 7, 72
2, 649, Control_c, 0, 7, 68
2, 659, Note_on_c, 0, 73, 127
2, 664, Control_c, 0, 7, 66
2, 682, Control_c, 0, 7, 65
2, 689, Note_on_c, 0, 73, 0
2, 709, Control_c, 0, 7, 64
2, 722, Note_on_c, 0, 68, 127
2, 778, Note_on_c, 0, 68, 0
2, 836, Note_on_c, 0, 68, 127
2, 865, Note_on_c, 0, 68, 0
2, 898, Note_on_c, 0, 69, 124
2, 943, Note_on_c, 0, 69, 0
2, 1121, Control_c, 0, 7, 66
2, 1143, Note_on_c, 0, 68, 127
2, 1158, Control_c, 0, 7, 65
2, 1169, Note_on_c, 0, 68, 0
2, 1206, Note_on_c, 0, 69, 99
2, 1237, Note_on_c, 0, 69, 0
2, 1321, Note_on_c, 0, 71, 127
2, 1349, Control_c, 0, 7, 66
2, 1359, Control_c, 0, 7, 67
2, 1368, Note_on_c, 0, 71, 0
2, 1368, Control_c, 0, 7, 71
2, 1378, Control_c, 0, 7, 73
2, 1389, Control_c, 0, 7, 74
2, 1425, Control_c, 0, 7, 75
2, 1450, Note_on_c, 0, 68, 127
2, 1471, Note_on_c, 0, 68, 0
2, 1504, Note_on_c, 0, 68, 119
2, 1527, Note_on_c, 0, 68, 0
2, 1564, Note_on_c, 0, 68, 127
2, 1588, Note_on_c, 0, 68, 0
2, 1622, Note_on_c, 0, 68, 124
2, 1645, Note_on_c, 0, 68, 0
2, 1686, Note_on_c, 0, 68, 127
2, 1706, Note_on_c, 0, 68, 0
2, 1716, Control_c, 0, 7, 73
2, 1726, Control_c, 0, 7, 72
2, 1746, Note_on_c, 0, 68, 127
2, 1766, Note_on_c, 0, 68, 0
2, 1807, Note_on_c, 0, 68, 127
2, 1852, Note_on_c, 0, 68, 0
2, 1919, Note_on_c, 0, 69, 127
2, 1966, Note_on_c, 0, 69, 0
2, 1981, Control_c, 0, 7, 71
2, 2031, Control_c, 0, 7, 70
2, 2101, Control_c, 0, 7, 68
2, 2136, Control_c, 0, 7, 66
2, 2206, Control_c, 0, 7, 65
2, 2232, Note_on_c, 0, 68, 127
2, 2254, Note_on_c, 0, 68, 0
2, 2290, Note_on_c, 0, 68, 127
2, 2300, Control_c, 0, 7, 64
2, 2316, Note_on_c, 0, 68, 0
2, 2346, Note_on_c, 0, 68, 127
2, 2373, Note_on_c, 0, 68, 0
2, 2403, Note_on_c, 0, 73, 127
2, 2426, Note_on_c, 0, 73, 0
2, 2446, Control_c, 0, 7, 63
2, 2459, Note_on_c, 0, 73, 127
2, 2484, Note_on_c, 0, 73, 0
2, 2519, Note_on_c, 0, 73, 127
2, 2544, Note_on_c, 0, 73, 0
2, 2581, Control_c, 0, 7, 61
2, 2581, Note_on_c, 0, 73, 127
2, 2606, Note_on_c, 0, 73, 0
2, 2638, Note_on_c, 0, 68, 127
2, 2656, Note_on_c, 0, 68, 0
2, 2668, Control_c, 0, 7, 60
2, 2698, Note_on_c, 0, 68, 127
2, 2720, Note_on_c, 0, 68, 0
2, 2757, Note_on_c, 0, 68, 127
2, 2782, Note_on_c, 0, 68, 0
2, 2821, Note_on_c, 0, 69, 124
2, 2861, Note_on_c, 0, 69, 0
2, 3071, Note_on_c, 0, 68, 127
2, 3095, Note_on_c, 0, 68, 0
2, 3130, Note_on_c, 0, 69, 102
2, 3169, Note_on_c, 0, 69, 0
2, 3245, Note_on_c, 0, 71, 127
2, 3280, Note_on_c, 0, 71, 0
2, 3360, Note_on_c, 0, 68, 127
2, 3385, Note_on_c, 0, 68, 0
2, 3416, Note_on_c, 0, 68, 115
2, 3443, Note_on_c, 0, 68, 0
2, 3474, Note_on_c, 0, 68, 127
2, 3498, Note_on_c, 0, 68, 0
2, 3533, Note_on_c, 0, 68, 127
2, 3558, Note_on_c, 0, 68, 0
2, 3599, Note_on_c, 0, 68, 127
2, 3630, Note_on_c, 0, 68, 0
2, 3717, Note_on_c, 0, 68, 127
2, 3749, Note_on_c, 0, 68, 0
2, 3834, Note_on_c, 0, 68, 127
2, 3871, Note_on_c, 0, 68, 0
2, 3958, Note_on_c, 0, 66, 127
2, 3993, Note_on_c, 0, 66, 0
2, 4076, Note_on_c, 0, 64, 127
2, 4117, Note_on_c, 0, 64, 0
2, 4200, Note_on_c, 0, 63, 127
2, 4247, Note_on_c, 0, 63, 0
2, 4322, Note_on_c, 0, 75, 127
2, 4329, Note_on_c, 0, 61, 127
2, 4370, Note_on_c, 0, 75, 0
2, 4372, Note_on_c, 0, 61, 0
2, 4445, Note_on_c, 0, 75, 127
2, 4475, Note_on_c, 0, 75, 0
2, 4502, Note_on_c, 0, 75, 124
2, 4529, Note_on_c, 0, 75, 0
2, 4564, Note_on_c, 0, 75, 127
2, 4593, Note_on_c, 0, 75, 0
2, 4627, Note_on_c, 0, 75, 119
2, 4652, Note_on_c, 0, 75, 0
2, 4690, Note_on_c, 0, 75, 127
2, 4719, Note_on_c, 0, 75, 0
2, 4746, Note_on_c, 0, 75, 115
2, 4777, Note_on_c, 0, 75, 0
2, 4806, Note_on_c, 0, 75, 127
2, 4852, Note_on_c, 0, 75, 0
2, 4929, Note_on_c, 0, 75, 127
2, 4961, Note_on_c, 0, 75, 0
2, 4987, Note_on_c, 0, 75, 127
2, 5016, Note_on_c, 0, 75, 0
2, 5047, Note_on_c, 0, 75, 127
2, 5077, Note_on_c, 0, 75, 0
2, 5110, Note_on_c, 0, 75, 127
2, 5138, Note_on_c, 0, 75, 0
2, 5168, Note_on_c, 0, 75, 124
2, 5197, Note_on_c, 0, 75, 0
2, 5225, Note_on_c, 0, 75, 127
2, 5258, Note_on_c, 0, 75, 0
2, 5286, Note_on_c, 0, 75, 127
2, 5331, Note_on_c, 0, 75, 0
2, 5407, Note_on_c, 0, 75, 127
2, 5439, Note_on_c, 0, 75, 0
2, 5469, Note_on_c, 0, 75, 127
2, 5500, Note_on_c, 0, 75, 0
2, 5532, Note_on_c, 0, 75, 127
2, 5561, Note_on_c, 0, 75, 0
2, 5591, Note_on_c, 0, 75, 127
2, 5621, Note_on_c, 0, 75, 0
2, 5647, Note_on_c, 0, 75, 119
2, 5678, Note_on_c, 0, 75, 0
2, 5705, Note_on_c, 0, 75, 127
2, 5736, Note_on_c, 0, 75, 0
2, 5766, Note_on_c, 0, 75, 127
2, 5802, Note_on_c, 0, 75, 0
2, 5826, Note_on_c, 0, 75, 124
2, 5861, Note_on_c, 0, 75, 0
2, 5886, Note_on_c, 0, 75, 124
2, 5919, Note_on_c, 0, 75, 0
2, 5944, Note_on_c, 0, 75, 124
2, 5973, Note_on_c, 0, 75, 0
2, 6004, Note_on_c, 0, 75, 127
2, 6037, Note_on_c, 0, 75, 0
2, 6060, Note_on_c, 0, 75, 88
2, 6092, Note_on_c, 0, 75, 0
2, 6124, Note_on_c, 0, 75, 112
2, 6152, Note_on_c, 0, 75, 0
2, 6181, Note_on_c, 0, 75, 102
2, 6207, Note_on_c, 0, 75, 0
2, 6245, Note_on_c, 0, 75, 127
2, 6307, Note_on_c, 0, 75, 0
2, 6366, Note_on_c, 0, 75, 127
2, 6393, Note_on_c, 0, 75, 0
2, 6424, Note_on_c, 0, 75, 119
2, 6450, Note_on_c, 0, 75, 0
2, 6482, Note_on_c, 0, 75, 119
2, 6510, Note_on_c, 0, 75, 0
2, 6543, Note_on_c, 0, 75, 112
2, 6570, Note_on_c, 0, 75, 0
2, 6601, Note_on_c, 0, 75, 108
2, 6629, Note_on_c, 0, 75, 0
2, 6662, Note_on_c, 0, 75, 127
2, 6690, Note_on_c, 0, 75, 0
2, 6725, Note_on_c, 0, 75, 127
2, 6751, Note_on_c, 0, 75, 0
2, 6778, Note_on_c, 0, 75, 105
2, 6809, Note_on_c, 0, 75, 0
2, 6843, Note_on_c, 0, 78, 127
2, 6878, Note_on_c, 0, 78, 0
2, 6904, Note_on_c, 0, 75, 127
2, 6935, Note_on_c, 0, 75, 0
2, 6964, Note_on_c, 0, 78, 127
2, 7000, Note_on_c, 0, 78, 0
2, 7024, Note_on_c, 0, 75, 112
2, 7051, Note_on_c, 0, 75, 0
2, 7079, Note_on_c, 0, 78, 127
2, 7116, Note_on_c, 0, 78, 0
2, 7140, Note_on_c, 0, 78, 102
2, 7165, Note_on_c, 0, 75, 61
2, 7166, Note_on_c, 0, 78, 0
2, 7191, Note_on_c, 0, 75, 0
2, 7223, Note_on_c, 0, 75, 112
2, 7253, Note_on_c, 0, 75, 0
2, 7276, Note_on_c, 0, 75, 105
2, 7309, Note_on_c, 0, 75, 0
2, 7333, Note_on_c, 0, 75, 94
2, 7364, Note_on_c, 0, 75, 0
2, 7388, Note_on_c, 0, 75, 105
2, 7420, Note_on_c, 0, 75, 0
2, 7449, Note_on_c, 0, 75, 105
2, 7481, Note_on_c, 0, 75, 0
2, 7503, Note_on_c, 0, 75, 102
2, 7536, Note_on_c, 0, 75, 0
2, 7565, Note_on_c, 0, 75, 105
2, 7599, Note_on_c, 0, 75, 0
2, 7622, Note_on_c, 0, 75, 94
2, 7657, Note_on_c, 0, 75, 0
2, 7683, Note_on_c, 0, 75, 99
2, 7719, Note_on_c, 0, 75, 0
2, 7740, Note_on_c, 0, 75, 84
2, 7778, Note_on_c, 0, 75, 0
2, 7806, Note_on_c, 0, 78, 127
2, 7847, Note_on_c, 0, 78, 0
2, 7863, Note_on_c, 0, 75, 112
2, 7895, Note_on_c, 0, 75, 0
2, 7926, Note_on_c, 0, 78, 127
2, 7965, Note_on_c, 0, 78, 0
2, 7983, Note_on_c, 0, 75, 94
2, 8014, Note_on_c, 0, 75, 0
2, 8039, Note_on_c, 0, 78, 127
2, 8080, Note_on_c, 0, 78, 0
2, 8100, Note_on_c, 0, 75, 102
2, 8125, Note_on_c, 0, 75, 0
2, 8159, Note_on_c, 0, 75, 127
2, 8209, Note_on_c, 0, 75, 0
2, 8282, Note_on_c, 0, 75, 127
2, 8311, Note_on_c, 0, 75, 0
2, 8339, Note_on_c, 0, 75, 94
2, 8368, Note_on_c, 0, 75, 0
2, 8407, Note_on_c, 0, 75, 115
2, 8437, Note_on_c, 0, 75, 0
2, 8467, Note_on_c, 0, 75, 94
2, 8494, Note_on_c, 0, 75, 0
2, 8534, Note_on_c, 0, 75, 108
2, 8559, Note_on_c, 0, 75, 0
2, 8592, Note_on_c, 0, 75, 97
2, 8620, Note_on_c, 0, 75, 0
2, 8656, Note_on_c, 0, 75, 102
2, 8684, Note_on_c, 0, 75, 0
2, 8706, Note_on_c, 0, 75, 90
2, 8742, Note_on_c, 0, 75, 0
2, 8768, Note_on_c, 0, 78, 127
2, 8807, Note_on_c, 0, 78, 0
2, 8825, Note_on_c, 0, 75, 124
2, 8853, Note_on_c, 0, 75, 0
2, 8882, Note_on_c, 0, 78, 127
2, 8924, Note_on_c, 0, 78, 0
2, 8942, Note_on_c, 0, 75, 105
2, 8974, Note_on_c, 0, 75, 0
2, 9002, Note_on_c, 0, 78, 127
2, 9049, Note_on_c, 0, 78, 0
2, 9063, Note_on_c, 0, 75, 115
2, 9090, Note_on_c, 0, 75, 0
2, 9120, Note_on_c, 0, 75, 127
2, 9134, Note_on_c, 0, 75, 127
2, 9161, Note_on_c, 0, 75, 0
2, 9169, Note_on_c, 0, 75, 0
2, 9191, Note_on_c, 0, 75, 99
2, 9218, Note_on_c, 0, 75, 0
2, 9246, Note_on_c, 0, 75, 127
2, 9250, Note_on_c, 0, 75, 115
2, 9279, Note_on_c, 0, 75, 0
2, 9282, Note_on_c, 0, 75, 0
2, 9306, Note_on_c, 0, 75, 86
2, 9311, Note_on_c, 0, 75, 124
2, 9340, Note_on_c, 0, 75, 0
2, 9342, Note_on_c, 0, 75, 0
2, 9371, Note_on_c, 0, 75, 127
2, 9401, Note_on_c, 0, 75, 0
2, 9430, Note_on_c, 0, 75, 127
2, 9458, Note_on_c, 0, 75, 0
2, 9486, Note_on_c, 0, 75, 115
2, 9515, Note_on_c, 0, 75, 0
2, 9542, Note_on_c, 0, 75, 105
2, 9571, Note_on_c, 0, 75, 0
2, 9606, Note_on_c, 0, 75, 127
2, 9606, Note_on_c, 0, 74, 124
2, 9629, Note_on_c, 0, 74, 0
2, 9632, Note_on_c, 0, 75, 0
2, 9667, Note_on_c, 0, 75, 119
2, 9696, Note_on_c, 0, 75, 0
2, 9728, Note_on_c, 0, 78, 127
2, 9761, Note_on_c, 0, 78, 0
2, 9788, Note_on_c, 0, 75, 127
2, 9814, Note_on_c, 0, 75, 0
2, 9849, Note_on_c, 0, 78, 127
2, 9885, Note_on_c, 0, 78, 0
2, 9909, Note_on_c, 0, 75, 127
2, 9934, Note_on_c, 0, 75, 0
2, 9965, Note_on_c, 0, 78, 127
2, 10001, Note_on_c, 0, 78, 0
2, 10021, Note_on_c, 0, 75, 127
2, 10047, Note_on_c, 0, 75, 0
2, 10084, Note_on_c, 0, 75, 127
2, 10084, Note_on_c, 0, 76, 127
2, 10112, Note_on_c, 0, 76, 0
2, 10124, Note_on_c, 0, 75, 0
2, 10206, Note_on_c, 0, 75, 127
2, 10234, Note_on_c, 0, 75, 0
2, 10267, Note_on_c, 0, 75, 127
2, 10293, Note_on_c, 0, 75, 0
2, 10328, Note_on_c, 0, 75, 127
2, 10354, Note_on_c, 0, 75, 0
2, 10390, Note_on_c, 0, 75, 127
2, 10413, Note_on_c, 0, 75, 0
2, 10449, Note_on_c, 0, 75, 127
2, 10473, Note_on_c, 0, 75, 0
2, 10508, Note_on_c, 0, 75, 127
2, 10535, Note_on_c, 0, 75, 0
2, 10564, Note_on_c, 0, 75, 127
2, 10593, Note_on_c, 0, 75, 0
2, 10623, Note_on_c, 0, 75, 124
2, 10651, Note_on_c, 0, 75, 0
2, 10684, Note_on_c, 0, 78, 127
2, 10715, Note_on_c, 0, 78, 0
2, 10742, Note_on_c, 0, 75, 127
2, 10773, Note_on_c, 0, 75, 0
2, 10807, Note_on_c, 0, 78, 127
2, 10844, Note_on_c, 0, 78, 0
2, 10867, Note_on_c, 0, 75, 127
2, 10895, Note_on_c, 0, 75, 0
2, 10926, Note_on_c, 0, 78, 127
2, 10965, Note_on_c, 0, 78, 0
2, 10981, Note_on_c, 0, 75, 127
2, 11012, Note_on_c, 0, 75, 0
2, 11045, Note_on_c, 0, 75, 127
2, 11119, Note_on_c, 0, 75, 0
2, 11160, Note_on_c, 0, 75, 127
2, 11191, Note_on_c, 0, 75, 0
2, 11220, Note_on_c, 0, 75, 115
2, 11250, Note_on_c, 0, 75, 0
2, 11282, Note_on_c, 0, 75, 124
2, 11312, Note_on_c, 0, 75, 0
2, 11341, Note_on_c, 0, 75, 127
2, 11370, Note_on_c, 0, 75, 0
2, 11401, Note_on_c, 0, 75, 127
2, 11430, Note_on_c, 0, 75, 0
2, 11459, Note_on_c, 0, 75, 127
2, 11491, Note_on_c, 0, 75, 0
2, 11523, Note_on_c, 0, 75, 119
2, 11551, Note_on_c, 0, 75, 0
2, 11582, Note_on_c, 0, 75, 119
2, 11615, Note_on_c, 0, 75, 0
2, 11646, Note_on_c, 0, 78, 124
2, 11685, Note_on_c, 0, 78, 0
2, 11699, Note_on_c, 0, 75, 119
2, 11731, Note_on_c, 0, 75, 0
2, 11763, Note_on_c, 0, 78, 127
2, 11809, Note_on_c, 0, 78, 0
2, 11825, Note_on_c, 0, 75, 119
2, 11857, Note_on_c, 0, 75, 0
2, 11883, Note_on_c, 0, 78, 127
2, 11934, Note_on_c, 0, 78, 0
2, 11938, Note_on_c, 0, 75, 127
2, 11967, Note_on_c, 0, 75, 0
2, 11997, Note_on_c, 0, 75, 127
2, 12032, Note_on_c, 0, 75, 0
2, 12057, Note_on_c, 0, 75, 97
2, 12092, Note_on_c, 0, 75, 0
2, 12121, Note_on_c, 0, 75, 119
2, 12158, Note_on_c, 0, 75, 0
2, 12185, Note_on_c, 0, 75, 102
2, 12219, Note_on_c, 0, 75, 0
2, 12246, Note_on_c, 0, 75, 112
2, 12279, Note_on_c, 0, 75, 0
2, 12310, Note_on_c, 0, 75, 112
2, 12342, Note_on_c, 0, 75, 0
2, 12364, Note_on_c, 0, 75, 86
2, 12400, Note_on_c, 0, 75, 0
2, 12428, Note_on_c, 0, 75, 119
2, 12457, Note_on_c, 0, 75, 0
2, 12487, Note_on_c, 0, 75, 108
2, 12516, Note_on_c, 0, 75, 0
2, 12540, Note_on_c, 0, 75, 108
2, 12576, Note_on_c, 0, 75, 0
2, 12609, Note_on_c, 0, 78, 127
2, 12649, Note_on_c, 0, 78, 0
2, 12665, Note_on_c, 0, 75, 127
2, 12699, Note_on_c, 0, 75, 0
2, 12722, Note_on_c, 0, 78, 127
2, 12767, Note_on_c, 0, 78, 0
2, 12783, Note_on_c, 0, 75, 127
2, 12818, Note_on_c, 0, 75, 0
2, 12843, Note_on_c, 0, 78, 127
2, 12894, Note_on_c, 0, 78, 0
2, 12903, Note_on_c, 0, 75, 127
2, 12934, Note_on_c, 0, 75, 0
2, 12964, Note_on_c, 0, 75, 124
2, 12996, Note_on_c, 0, 75, 0
2, 13025, Note_on_c, 0, 75, 112
2, 13058, Note_on_c, 0, 75, 0
2, 13087, Note_on_c, 0, 75, 105
2, 13121, Note_on_c, 0, 75, 0
2, 13148, Note_on_c, 0, 75, 102
2, 13182, Note_on_c, 0, 75, 0
2, 13207, Note_on_c, 0, 75, 94
2, 13241, Note_on_c, 0, 75, 0
2, 13271, Note_on_c, 0, 75, 105
2, 13304, Note_on_c, 0, 75, 0
2, 13328, Note_on_c, 0, 75, 94
2, 13361, Note_on_c, 0, 75, 0
2, 13386, Note_on_c, 0, 75, 92
2, 13417, Note_on_c, 0, 75, 0
2, 13445, Note_on_c, 0, 75, 94
2, 13477, Note_on_c, 0, 75, 0
2, 13503, Note_on_c, 0, 75, 88
2, 13544, Note_on_c, 0, 75, 0
2, 13566, Note_on_c, 0, 78, 115
2, 13611, Note_on_c, 0, 78, 0
2, 13621, Note_on_c, 0, 75, 124
2, 13660, Note_on_c, 0, 75, 0
2, 13682, Note_on_c, 0, 78, 127
2, 13734, Note_on_c, 0, 78, 0
2, 13742, Note_on_c, 0, 75, 119
2, 13786, Note_on_c, 0, 75, 0
2, 13800, Note_on_c, 0, 78, 119
2, 13854, Note_on_c, 0, 75, 119
2, 13856, Note_on_c, 0, 78, 0
2, 13886, Note_on_c, 0, 75, 0
2, 13914, Note_on_c, 0, 75, 92
2, 13914, Note_on_c, 0, 77, 94
2, 13955, Note_on_c, 0, 77, 0
2, 14020, Note_on_c, 0, 75, 0
2, 14045, Note_on_c, 0, 75, 102
2, 14091, Note_on_c, 0, 75, 0
2, 14114, Note_on_c, 0, 75, 66
2, 14144, Note_on_c, 0, 75, 0
2, 14171, Note_on_c, 0, 75, 112
2, 14234, Note_on_c, 0, 75, 0
2, 14344, Note_on_c, 0, 73, 124
2, 14372, Note_on_c, 0, 73, 0
2, 14405, Note_on_c, 0, 73, 119
2, 14449, Note_on_c, 0, 73, 0
2, 14580, Note_on_c, 0, 73, 127
2, 14611, Note_on_c, 0, 73, 0
2, 14638, Note_on_c, 0, 73, 127
2, 14656, Note_on_c, 0, 72, 127
2, 14682, Note_on_c, 0, 73, 0
2, 14684, Note_on_c, 0, 72, 0
2, 14832, Note_on_c, 0, 73, 127
2, 14864, Note_on_c, 0, 73, 0
2, 14890, Note_on_c, 0, 75, 127
2, 14925, Note_on_c, 0, 75, 0
2, 14952, Note_on_c, 0, 75, 69
2, 14980, Note_on_c, 0, 75, 0
2, 15008, Note_on_c, 0, 75, 119
2, 15046, Note_on_c, 0, 75, 0
2, 15071, Note_on_c, 0, 75, 88
2, 15101, Note_on_c, 0, 75, 0
2, 15127, Note_on_c, 0, 75, 112
2, 15159, Note_on_c, 0, 75, 0
2, 15183, Note_on_c, 0, 75, 105
2, 15212, Note_on_c, 0, 75, 0
2, 15246, Note_on_c, 0, 75, 127
2, 15273, Note_on_c, 0, 75, 0
2, 15300, Note_on_c, 0, 75, 88
2, 15327, Note_on_c, 0, 75, 0
2, 15360, Note_on_c, 0, 75, 127
2, 15388, Note_on_c, 0, 75, 0
2, 15423, Note_on_c, 0, 75, 105
2, 15446, Note_on_c, 0, 75, 0
2, 15483, Note_on_c, 0, 75, 115
2, 15510, Note_on_c, 0, 75, 0
2, 15542, Note_on_c, 0, 75, 94
2, 15570, Note_on_c, 0, 75, 0
2, 15604, Note_on_c, 0, 75, 97
2, 15630, Note_on_c, 0, 75, 0
2, 15648, Note_on_c, 0, 75, 92
2, 15650, Control_c, 0, 7, 120
2, 15673, Note_on_c, 0, 75, 0
2, 15723, Note_on_c, 0, 75, 102
2, 15735, Control_c, 0, 7, 119
2, 15745, Control_c, 0, 7, 118
2, 15751, Note_on_c, 0, 75, 0
2, 15760, Control_c, 0, 7, 117
2, 15775, Control_c, 0, 7, 96
2, 15784, Note_on_c, 0, 75, 97
2, 15811, Note_on_c, 0, 75, 0
2, 15835, Control_c, 0, 7, 94
2, 15854, Note_on_c, 0, 73, 127
2, 15859, Control_c, 0, 7, 93
2, 15879, Note_on_c, 0, 73, 0
2, 15879, Control_c, 0, 7, 92
2, 15884, Control_c, 0, 7, 91
2, 15912, Control_c, 0, 7, 89
2, 15912, Note_on_c, 0, 73, 127
2, 15927, Control_c, 0, 7, 87
2, 15934, Note_on_c, 0, 73, 0
2, 15934, Control_c, 0, 7, 86
2, 15943, Control_c, 0, 7, 82
2, 15953, Control_c, 0, 7, 80
2, 15969, Note_on_c, 0, 73, 127
2, 15970, Control_c, 0, 7, 79
2, 15985, Control_c, 0, 7, 75
2, 15990, Control_c, 0, 7, 73
2, 15992, Note_on_c, 0, 73, 0
2, 16003, Control_c, 0, 7, 72
2, 16018, Control_c, 0, 7, 68
2, 16028, Note_on_c, 0, 73, 127
2, 16033, Control_c, 0, 7, 66
2, 16051, Control_c, 0, 7, 65
2, 16058, Note_on_c, 0, 73, 0
2, 16078, Control_c, 0, 7, 64
2, 16091, Note_on_c, 0, 68, 127
2, 16147, Note_on_c, 0, 68, 0
2, 16205, Note_on_c, 0, 68, 127
2, 16234, Note_on_c, 0, 68, 0
2, 16267, Note_on_c, 0, 69, 124
2, 16312, Note_on_c, 0, 69, 0
2, 16490, Control_c, 0, 7, 66
2, 16512, Note_on_c, 0, 68, 127
2, 16527, Control_c, 0, 7, 65
2, 16538, Note_on_c, 0, 68, 0
2, 16575, Note_on_c, 0, 69, 99
2, 16606, Note_on_c, 0, 69, 0
2, 16690, Note_on_c, 0, 71, 127
2, 16718, Control_c, 0, 7, 66
2, 16728, Control_c, 0, 7, 67
2, 16737, Note_on_c, 0, 71, 0
2, 16737, Control_c, 0, 7, 71
2, 16747, Control_c, 0, 7, 73
2, 16758, Control_c, 0, 7, 74
2, 16794, Control_c, 0, 7, 75
2, 16819, Note_on_c, 0, 68, 127
2, 16840, Note_on_c, 0, 68, 0
2, 16873, Note_on_c, 0, 68, 119
2, 16896, Note_on_c, 0, 68, 0
2, 16933, Note_on_c, 0, 68, 127
2, 16957, Note_on_c, 0, 68, 0
2, 16991, Note_on_c, 0, 68, 124
2, 17014, Note_on_c, 0, 68, 0
2, 17055, Note_on_c, 0, 68, 127
2, 17075, Note_on_c, 0, 68, 0
2, 17085, Control_c, 0, 7, 73
2, 17095, Control_c, 0, 7, 72
2, 17115, Note_on_c, 0, 68, 127
2, 17135, Note_on_c, 0, 68, 0
2, 17176, Note_on_c, 0, 68, 127
2, 17221, Note_on_c, 0, 68, 0
2, 17288, Note_on_c, 0, 69, 127
2, 17335, Note_on_c, 0, 69, 0
2, 17350, Control_c, 0, 7, 71
2, 17400, Control_c, 0, 7, 70
2, 17470, Control_c, 0, 7, 68
2, 17505, Control_c, 0, 7, 66
2, 17575, Control_c, 0, 7, 65
2, 17601, Note_on_c, 0, 68, 127
2, 17623, Note_on_c, 0, 68, 0
2, 17659, Note_on_c, 0, 68, 127
2, 17669, Control_c, 0, 7, 64
2, 17685, Note_on_c, 0, 68, 0
2, 17715, Note_on_c, 0, 68, 127
2, 17742, Note_on_c, 0, 68, 0
2, 17772, Note_on_c, 0, 73, 127
2, 17795, Note_on_c, 0, 73, 0
2, 17815, Control_c, 0, 7, 63
2, 17828, Note_on_c, 0, 73, 127
2, 17853, Note_on_c, 0, 73, 0
2, 17888, Note_on_c, 0, 73, 127
2, 17913, Note_on_c, 0, 73, 0
2, 17950, Control_c, 0, 7, 61
2, 17950, Note_on_c, 0, 73, 127
2, 17975, Note_on_c, 0, 73, 0
2, 18007, Note_on_c, 0, 68, 127
2, 18025, Note_on_c, 0, 68, 0
2, 18037, Control_c, 0, 7, 60
2, 18067, Note_on_c, 0, 68, 127
2, 18089, Note_on_c, 0, 68, 0
2, 18126, Note_on_c, 0, 68, 127
2, 18151, Note_on_c, 0, 68, 0
2, 18190, Note_on_c, 0, 69, 124
2, 18230, Note_on_c, 0, 69, 0
2, 18440, Note_on_c, 0, 68, 127
2, 18464, Note_on_c, 0, 68, 0
2, 18499, Note_on_c, 0, 69, 102
2, 18538, Note_on_c, 0, 69, 0
2, 18614, Note_on_c, 0, 71, 127
2, 18649, Note_on_c, 0, 71, 0
2, 18729, Note_on_c, 0, 68, 127
2, 18754, Note_on_c, 0, 68, 0
2, 18785, Note_on_c, 0, 68, 115
2, 18812, Note_on_c, 0, 68, 0
2, 18843, Note_on_c, 0, 68, 127
2, 18867, Note_on_c, 0, 68, 0
2, 18902, Note_on_c, 0, 68, 127
2, 18927, Note_on_c, 0, 68, 0
2, 18968, Note_on_c, 0, 68, 127
2, 18999, Note_on_c, 0, 68, 0
2, 19086, Note_on_c, 0, 68, 127
2, 19118, Note_on_c, 0, 68, 0
2, 19203, Note_on_c, 0, 68, 127
2, 19240, Note_on_c, 0, 68, 0
2, 19327, Note_on_c, 0, 66, 127
2, 19362, Note_on_c, 0, 66, 0
2, 19445, Note_on_c, 0, 64, 127
2, 19486, Note_on_c, 0, 64, 0
2, 19490, Control_c, 0, 7, 120
2, 19569, Note_on_c, 0, 63, 127
2, 19575, Control_c, 0, 7, 119
2, 19585, Control_c, 0, 7, 118
2, 19600, Control_c, 0, 7, 117
2, 19615, Control_c, 0, 7, 96
2, 19616, Note_on_c, 0, 63, 0
2, 19675, Control_c, 0, 7, 94
2, 19694, Note_on_c, 0, 73, 127
2, 19698, Note_on_c, 0, 61, 127
2, 19699, Control_c, 0, 7, 93
2, 19719, Note_on_c, 0, 73, 0
2, 19719, Control_c, 0, 7, 92
2, 19724, Control_c, 0, 7, 91
2, 19741, Note_on_c, 0, 61, 0
2, 19752, Control_c, 0, 7, 89
2, 19752, Note_on_c, 0, 73, 127
2, 19767, Control_c, 0, 7, 87
2, 19774, Note_on_c, 0, 73, 0
2, 19774, Control_c, 0, 7, 86
2, 19783, Control_c, 0, 7, 82
2, 19793, Control_c, 0, 7, 80
2, 19809, Note_on_c, 0, 73, 127
2, 19810, Control_c, 0, 7, 79
2, 19825, Control_c, 0, 7, 75
2, 19830, Control_c, 0, 7, 73
2, 19832, Note_on_c, 0, 73, 0
2, 19843, Control_c, 0, 7, 72
2, 19858, Control_c, 0, 7, 68
2, 19868, Note_on_c, 0, 73, 127
2, 19873, Control_c, 0, 7, 66
2, 19891, Control_c, 0, 7, 65
2, 19898, Note_on_c, 0, 73, 0
2, 19918, Control_c, 0, 7, 64
2, 19931, Note_on_c, 0, 68, 127
2, 19987, Note_on_c, 0, 68, 0
2, 20045, Note_on_c, 0, 68, 127
2, 20074, Note_on_c, 0, 68, 0
2, 20107, Note_on_c, 0, 69, 124
2, 20152, Note_on_c, 0, 69, 0
2, 20330, Control_c, 0, 7, 66
2, 20352, Note_on_c, 0, 68, 127
2, 20367, Control_c, 0, 7, 65
2, 20378, Note_on_c, 0, 68, 0
2, 20415, Note_on_c, 0, 69, 99
2, 20446, Note_on_c, 0, 69, 0
2, 20530, Note_on_c, 0, 71, 127
2, 20558, Control_c, 0, 7, 66
2, 20568, Control_c, 0, 7, 67
2, 20577, Note_on_c, 0, 71, 0
2, 20577, Control_c, 0, 7, 71
2, 20587, Control_c, 0, 7, 73
2, 20598, Control_c, 0, 7, 74
2, 20634, Control_c, 0, 7, 75
2, 20659, Note_on_c, 0, 68, 127
2, 20680, Note_on_c, 0, 68, 0
2, 20713, Note_on_c, 0, 68, 119
2, 20736, Note_on_c, 0, 68, 0
2, 20773, Note_on_c, 0, 68, 127
2, 20797, Note_on_c, 0, 68, 0
2, 20831, Note_on_c, 0, 68, 124
2, 20854, Note_on_c, 0, 68, 0
2, 20895, Note_on_c, 0, 68, 127
2, 20915, Note_on_c, 0, 68, 0
2, 20925, Control_c, 0, 7, 73
2, 20935, Control_c, 0, 7, 72
2, 20955, Note_on_c, 0, 68, 127
2, 20975, Note_on_c, 0, 68, 0
2, 21016, Note_on_c, 0, 68, 127
2, 21061, Note_on_c, 0, 68, 0
2, 21128, Note_on_c, 0, 69, 127
2, 21175, Note_on_c, 0, 69, 0
2, 21190, Control_c, 0, 7, 71
2, 21240, Control_c, 0, 7, 70
2, 21310, Control_c, 0, 7, 68
2, 21345, Control_c, 0, 7, 66
2, 21415, Control_c, 0, 7, 65
2, 21441, Note_on_c, 0, 68, 127
2, 21463, Note_on_c, 0, 68, 0
2, 21499, Note_on_c, 0, 68, 127
2, 21509, Control_c, 0, 7, 64
2, 21525, Note_on_c, 0, 68, 0
2, 21555, Note_on_c, 0, 68, 127
2, 21582, Note_on_c, 0, 68, 0
2, 21612, Note_on_c, 0, 73, 127
2, 21635, Note_on_c, 0, 73, 0
2, 21655, Control_c, 0, 7, 63
2, 21668, Note_on_c, 0, 73, 127
2, 21693, Note_on_c, 0, 73, 0
2, 21728, Note_on_c, 0, 73, 127
2, 21753, Note_on_c, 0, 73, 0
2, 21790, Control_c, 0, 7, 61
2, 21790, Note_on_c, 0, 73, 127
2, 21815, Note_on_c, 0, 73, 0
2, 21847, Note_on_c, 0, 68, 127
2, 21865, Note_on_c, 0, 68, 0
2, 21877, Control_c, 0, 7, 60
2, 21907, Note_on_c, 0, 68, 127
2, 21929, Note_on_c, 0, 68, 0
2, 21966, Note_on_c, 0, 68, 127
2, 21991, Note_on_c, 0, 68, 0
2, 22030, Note_on_c, 0, 69, 124
2, 22070, Note_on_c, 0, 69, 0
2, 22280, Note_on_c, 0, 68, 127
2, 22304, Note_on_c, 0, 68, 0
2, 22339, Note_on_c, 0, 69, 102
2, 22378, Note_on_c, 0, 69, 0
2, 22454, Note_on_c, 0, 71, 127
2, 22489, Note_on_c, 0, 71, 0
2, 22569, Note_on_c, 0, 68, 127
2, 22594, Note_on_c, 0, 68, 0
2, 22625, Note_on_c, 0, 68, 115
2, 22652, Note_on_c, 0, 68, 0
2, 22683, Note_on_c, 0, 68, 127
2, 22707, Note_on_c, 0, 68, 0
2, 22742, Note_on_c, 0, 68, 127
2, 22767, Note_on_c, 0, 68, 0
2, 22808, Note_on_c, 0, 68, 127
2, 22839, Note_on_c, 0, 68, 0
2, 22926, Note_on_c, 0, 68, 127
2, 22958, Note_on_c, 0, 68, 0
2, 23043, Note_on_c, 0, 68, 127
2, 23080, Note_on_c, 0, 68, 0
2, 23167, Note_on_c, 0, 66, 127
2, 23202, Note_on_c, 0, 66, 0
2, 23285, Note_on_c, 0, 64, 127
2, 23326, Note_on_c, 0, 64, 0
2, 23409, Note_on_c, 0, 63, 127
2, 23456, Note_on_c, 0, 63, 0
2, 23520, Note_on_c, 0, 75, 127
2, 23538, Note_on_c, 0, 61, 127
2, 23568, Note_on_c, 0, 75, 0
2, 23581, Note_on_c, 0, 61, 0
2, 23643, Note_on_c, 0, 75, 127
2, 23673, Note_on_c, 0, 75, 0
2, 23700, Note_on_c, 0, 75, 124
2, 23727, Note_on_c, 0, 75, 0
2, 23762, Note_on_c, 0, 75, 127
2, 23791, Note_on_c, 0, 75, 0
2, 23825, Note_on_c, 0, 75, 119
2, 23850, Note_on_c, 0, 75, 0
2, 23888, Note_on_c, 0, 75, 127
2, 23917, Note_on_c, 0, 75, 0
2, 23944, Note_on_c, 0, 75, 115
2, 23975, Note_on_c, 0, 75, 0
2, 24004, Note_on_c, 0, 75, 127
2, 24050, Note_on_c, 0, 75, 0
2, 24127, Note_on_c, 0, 75, 127
2, 24159, Note_on_c, 0, 75, 0
2, 24185, Note_on_c, 0, 75, 127
2, 24214, Note_on_c, 0, 75, 0
2, 24245, Note_on_c, 0, 75, 127
2, 24275, Note_on_c, 0, 75, 0
2, 24308, Note_on_c, 0, 75, 127
2, 24336, Note_on_c, 0, 75, 0
2, 24366, Note_on_c, 0, 75, 124
2, 24395, Note_on_c, 0, 75, 0
2, 24423, Note_on_c, 0, 75, 127
2, 24456, Note_on_c, 0, 75, 0
2, 24484, Note_on_c, 0, 75, 127
2, 24529, Note_on_c, 0, 75, 0
2, 24605, Note_on_c, 0, 75, 127
2, 24637, Note_on_c, 0, 75, 0
2, 24667, Note_on_c, 0, 75, 127
2, 24698, Note_on_c, 0, 75, 0
2, 24730, Note_on_c, 0, 75, 127
2, 24759, Note_on_c, 0, 75, 0
2, 24789, Note_on_c, 0, 75, 127
2, 24819, Note_on_c, 0, 75, 0
2, 24845, Note_on_c, 0, 75, 119
2, 24876, Note_on_c, 0, 75, 0
2, 24903, Note_on_c, 0, 75, 127
2, 24934, Note_on_c, 0, 75, 0
2, 24964, Note_on_c, 0, 75, 127
2, 25000, Note_on_c, 0, 75, 0
2, 25024, Note_on_c, 0, 75, 124
2, 25059, Note_on_c, 0, 75, 0
2, 25084, Note_on_c, 0, 75, 124
2, 25117, Note_on_c, 0, 75, 0
2, 25142, Note_on_c, 0, 75, 124
2, 25171, Note_on_c, 0, 75, 0
2, 25202, Note_on_c, 0, 75, 127
2, 25235, Note_on_c, 0, 75, 0
2, 25258, Note_on_c, 0, 75, 88
2, 25290, Note_on_c, 0, 75, 0
2, 25322, Note_on_c, 0, 75, 112
2, 25350, Note_on_c, 0, 75, 0
2, 25379, Note_on_c, 0, 75, 102
2, 25405, Note_on_c, 0, 75, 0
2, 25443, Note_on_c, 0, 75, 127
2, 25505, Note_on_c, 0, 75, 0
2, 25564, Note_on_c, 0, 75, 127
2, 25591, Note_on_c, 0, 75, 0
2, 25622, Note_on_c, 0, 75, 119
2, 25648, Note_on_c, 0, 75, 0
2, 25680, Note_on_c, 0, 75, 119
2, 25708, Note_on_c, 0, 75, 0
2, 25741, Note_on_c, 0, 75, 112
2, 25768, Note_on_c, 0, 75, 0
2, 25799, Note_on_c, 0, 75, 108
2, 25827, Note_on_c, 0, 75, 0
2, 25860, Note_on_c, 0, 75, 127
2, 25888, Note_on_c, 0, 75, 0
2, 25923, Note_on_c, 0, 75, 127
2, 25949, Note_on_c, 0, 75, 0
2, 25976, Note_on_c, 0, 75, 105
2, 26007, Note_on_c, 0, 75, 0
2, 26041, Note_on_c, 0, 78, 127
2, 26076, Note_on_c, 0, 78, 0
2, 26102, Note_on_c, 0, 75, 127
2, 26133, Note_on_c, 0, 75, 0
2, 26162, Note_on_c, 0, 78, 127
2, 26198, Note_on_c, 0, 78, 0
2, 26222, Note_on_c, 0, 75, 112
2, 26249, Note_on_c, 0, 75, 0
2, 26277, Note_on_c, 0, 78, 127
2, 26314, Note_on_c, 0, 78, 0
2, 26338, Note_on_c, 0, 78, 102
2, 26363, Note_on_c, 0, 75, 61
2, 26364, Note_on_c, 0, 78, 0
2, 26389, Note_on_c, 0, 75, 0
2, 26421, Note_on_c, 0, 75, 112
2, 26451, Note_on_c, 0, 75, 0
2, 26474, Note_on_c, 0, 75, 105
2, 26507, Note_on_c, 0, 75, 0
2, 26531, Note_on_c, 0, 75, 94
2, 26562, Note_on_c, 0, 75, 0
2, 26586, Note_on_c, 0, 75, 105
2, 26618, Note_on_c, 0, 75, 0
2, 26647, Note_on_c, 0, 75, 105
2, 26679, Note_on_c, 0, 75, 0
2, 26701, Note_on_c, 0, 75, 102
2, 26734, Note_on_c, 0, 75, 0
2, 26763, Note_on_c, 0, 75, 105
2, 26797, Note_on_c, 0, 75, 0
2, 26820, Note_on_c, 0, 75, 94
2, 26855, Note_on_c, 0, 75, 0
2, 26881, Note_on_c, 0, 75, 99
2, 26917, Note_on_c, 0, 75, 0
2, 26938, Note_on_c, 0, 75, 84
2, 26976, Note_on_c, 0, 75, 0
2, 27004, Note_on_c, 0, 78, 127
2, 27045, Note_on_c, 0, 78, 0
2, 27061, Note_on_c, 0, 75, 112
2, 27093, Note_on_c, 0, 75, 0
2, 27124, Note_on_c, 0, 78, 127
2, 27163, Note_on_c, 0, 78, 0
2, 27181, Note_on_c, 0, 75, 94
2, 27212, Note_on_c, 0, 75, 0
2, 27237, Note_on_c, 0, 78, 127
2, 27278, Note_on_c, 0, 78, 0
2, 27298, Note_on_c, 0, 75, 102
2, 27323, Note_on_c, 0, 75, 0
2, 27357, Note_on_c, 0, 75, 127
2, 27407, Note_on_c, 0, 75, 0
2, 27480, Note_on_c, 0, 75, 127
2, 27509, Note_on_c, 0, 75, 0
2, 27537, Note_on_c, 0, 75, 94
2, 27566, Note_on_c, 0, 75, 0
2, 27605, Note_on_c, 0, 75, 115
2, 27635, Note_on_c, 0, 75, 0
2, 27665, Note_on_c, 0, 75, 94
2, 27692, Note_on_c, 0, 75, 0
2, 27732, Note_on_c, 0, 75, 108
2, 27757, Note_on_c, 0, 75, 0
2, 27790, Note_on_c, 0, 75, 97
2, 27818, Note_on_c, 0, 75, 0
2, 27854, Note_on_c, 0, 75, 102
2, 27882, Note_on_c, 0, 75, 0
2, 27904, Note_on_c, 0, 75, 90
2, 27940, Note_on_c, 0, 75, 0
2, 27966, Note_on_c, 0, 78, 127
2, 28005, Note_on_c, 0, 78, 0
2, 28023, Note_on_c, 0, 75, 124
2, 28051, Note_on_c, 0, 75, 0
2, 28080, Note_on_c, 0, 78, 127
2, 28122, Note_on_c, 0, 78, 0
2, 28140, Note_on_c, 0, 75, 105
2, 28172, Note_on_c, 0, 75, 0
2, 28200, Note_on_c, 0, 78, 127
2, 28247, Note_on_c, 0, 78, 0
2, 28261, Note_on_c, 0, 75, 115
2, 28288, Note_on_c, 0, 75, 0
2, 28318, Note_on_c, 0, 75, 127
2, 28318, Note_on_c, 0, 75, 127
2, 28347, Note_on_c, 0, 75, 0
2, 28367, Note_on_c, 0, 75, 0
2, 28375, Note_on_c, 0, 75, 119
2, 28406, Note_on_c, 0, 75, 0
2, 28437, Note_on_c, 0, 75, 127
2, 28444, Note_on_c, 0, 75, 127
2, 28468, Note_on_c, 0, 75, 0
2, 28480, Note_on_c, 0, 75, 0
2, 28498, Note_on_c, 0, 75, 119
2, 28504, Note_on_c, 0, 75, 86
2, 28526, Note_on_c, 0, 75, 0
2, 28538, Note_on_c, 0, 75, 0
2, 28559, Note_on_c, 0, 75, 127
2, 28588, Note_on_c, 0, 75, 0
2, 28619, Note_on_c, 0, 75, 119
2, 28649, Note_on_c, 0, 75, 0
2, 28677, Note_on_c, 0, 75, 119
2, 28707, Note_on_c, 0, 75, 0
2, 28733, Note_on_c, 0, 75, 102
2, 28764, Note_on_c, 0, 75, 0
2, 28797, Note_on_c, 0, 75, 127
2, 28829, Note_on_c, 0, 75, 0
2, 28857, Note_on_c, 0, 75, 124
2, 28897, Note_on_c, 0, 75, 0
2, 28919, Note_on_c, 0, 78, 127
2, 28981, Note_on_c, 0, 78, 0
2, 28984, Note_on_c, 0, 75, 127
2, 29045, Note_on_c, 0, 78, 127
2, 29053, Note_on_c, 0, 75, 0
2, 29102, Note_on_c, 0, 78, 0
2, 29107, Note_on_c, 0, 75, 127
2, 29168, Note_on_c, 0, 78, 127
2, 29173, Note_on_c, 0, 75, 0
2, 29223, Note_on_c, 0, 78, 0
2, 29224, Note_on_c, 0, 75, 127
2, 29256, Note_on_c, 0, 75, 0
2, 29287, Note_on_c, 0, 75, 127
2, 29336, Note_on_c, 0, 75, 0
2, 29400, Note_on_c, 0, 75, 127
2, 29431, Note_on_c, 0, 75, 0
2, 29461, Note_on_c, 0, 75, 112
2, 29492, Note_on_c, 0, 75, 0
2, 29526, Note_on_c, 0, 75, 127
2, 29556, Note_on_c, 0, 75, 0
2, 29585, Note_on_c, 0, 75, 124
2, 29612, Note_on_c, 0, 75, 0
2, 29645, Note_on_c, 0, 75, 127
2, 29673, Note_on_c, 0, 75, 0
2, 29703, Note_on_c, 0, 75, 119
2, 29733, Note_on_c, 0, 75, 0
2, 29763, Note_on_c, 0, 75, 112
2, 29792, Note_on_c, 0, 75, 0
2, 29822, Note_on_c, 0, 75, 127
2, 29857, Note_on_c, 0, 75, 0
2, 29886, Note_on_c, 0, 78, 127
2, 29945, Note_on_c, 0, 78, 0
2, 29953, Note_on_c, 0, 75, 127
2, 29994, Note_on_c, 0, 75, 0
2, 30005, Note_on_c, 0, 78, 127
2, 30054, Note_on_c, 0, 78, 0
2, 30062, Note_on_c, 0, 75, 127
2, 30116, Note_on_c, 0, 75, 0
2, 30126, Note_on_c, 0, 78, 127
2, 30177, Note_on_c, 0, 78, 0
2, 30181, Note_on_c, 0, 75, 127
2, 30209, Note_on_c, 0, 75, 0
2, 30232, Note_on_c, 0, 75, 102
2, 30290, Note_on_c, 0, 75, 0
2, 30361, Note_on_c, 0, 75, 127
2, 30393, Note_on_c, 0, 75, 0
2, 30421, Note_on_c, 0, 75, 97
2, 30452, Note_on_c, 0, 75, 0
2, 30482, Note_on_c, 0, 75, 127
2, 30514, Note_on_c, 0, 75, 0
2, 30544, Note_on_c, 0, 75, 108
2, 30573, Note_on_c, 0, 75, 0
2, 30607, Note_on_c, 0, 75, 115
2, 30633, Note_on_c, 0, 75, 0
2, 30666, Note_on_c, 0, 75, 127
2, 30695, Note_on_c, 0, 75, 0
2, 30726, Note_on_c, 0, 75, 119
2, 30756, Note_on_c, 0, 75, 0
2, 30786, Note_on_c, 0, 75, 119
2, 30827, Note_on_c, 0, 75, 0
2, 30847, Note_on_c, 0, 78, 127
2, 30902, Note_on_c, 0, 78, 0
2, 30906, Note_on_c, 0, 75, 127
2, 30967, Note_on_c, 0, 75, 0
2, 30968, Note_on_c, 0, 78, 127
2, 31020, Note_on_c, 0, 78, 0
2, 31024, Note_on_c, 0, 75, 127
2, 31085, Note_on_c, 0, 78, 127
2, 31087, Note_on_c, 0, 75, 0
2, 31141, Note_on_c, 0, 78, 0
2, 31144, Note_on_c, 0, 75, 127
2, 31173, Note_on_c, 0, 75, 0
2, 31202, Note_on_c, 0, 75, 127
2, 31234, Note_on_c, 0, 75, 0
2, 31263, Note_on_c, 0, 75, 108
2, 31296, Note_on_c, 0, 75, 0
2, 31323, Note_on_c, 0, 75, 119
2, 31359, Note_on_c, 0, 75, 0
2, 31382, Note_on_c, 0, 75, 92
2, 31417, Note_on_c, 0, 75, 0
2, 31442, Note_on_c, 0, 75, 102
2, 31478, Note_on_c, 0, 75, 0
2, 31503, Note_on_c, 0, 75, 90
2, 31537, Note_on_c, 0, 75, 0
2, 31562, Note_on_c, 0, 75, 97
2, 31594, Note_on_c, 0, 75, 0
2, 31622, Note_on_c, 0, 75, 94
2, 31655, Note_on_c, 0, 75, 0
2, 31682, Note_on_c, 0, 75, 105
2, 31714, Note_on_c, 0, 75, 0
2, 31740, Note_on_c, 0, 75, 102
2, 31785, Note_on_c, 0, 75, 0
2, 31803, Note_on_c, 0, 78, 127
2, 31812, Note_on_c, 0, 79, 58
2, 31839, Note_on_c, 0, 79, 0
2, 31839, Note_on_c, 0, 78, 0
2, 31863, Note_on_c, 0, 75, 127
2, 31911, Note_on_c, 0, 75, 0
2, 31919, Note_on_c, 0, 78, 127
2, 31973, Note_on_c, 0, 78, 0
2, 31979, Note_on_c, 0, 75, 127
2, 32028, Note_on_c, 0, 75, 0
2, 32042, Note_on_c, 0, 78, 127
2, 32100, Note_on_c, 0, 78, 0
2, 32102, Note_on_c, 0, 75, 127
2, 32133, Note_on_c, 0, 75, 0
2, 32160, Note_on_c, 0, 75, 127
2, 32208, Note_on_c, 0, 75, 0
2, 32282, Note_on_c, 0, 75, 127
2, 32308, Note_on_c, 0, 75, 0
2, 32339, Note_on_c, 0, 75, 127
2, 32370, Note_on_c, 0, 75, 0
2, 32401, Note_on_c, 0, 75, 124
2, 32434, Note_on_c, 0, 75, 0
2, 32462, Note_on_c, 0, 75, 102
2, 32494, Note_on_c, 0, 75, 0
2, 32522, Note_on_c, 0, 75, 108
2, 32555, Note_on_c, 0, 75, 0
2, 32584, Note_on_c, 0, 75, 92
2, 32617, Note_on_c, 0, 75, 0
2, 32645, Note_on_c, 0, 75, 97
2, 32679, Note_on_c, 0, 75, 0
2, 32704, Note_on_c, 0, 75, 102
2, 32751, Note_on_c, 0, 75, 0
2, 32767, Note_on_c, 0, 78, 124
2, 32820, Note_on_c, 0, 78, 0
2, 32826, Note_on_c, 0, 75, 97
2, 32877, Note_on_c, 0, 78, 115
2, 32887, Note_on_c, 0, 75, 0
2, 32938, Note_on_c, 0, 75, 112
2, 32942, Note_on_c, 0, 78, 0
2, 32999, Note_on_c, 0, 78, 127
2, 33005, Note_on_c, 0, 75, 0
2, 33060, Note_on_c, 0, 75, 127
2, 33072, Note_on_c, 0, 78, 0
2, 33089, Note_on_c, 0, 75, 0
2, 33112, Note_on_c, 0, 75, 127
2, 33118, Note_on_c, 0, 75, 127
2, 33166, Note_on_c, 0, 75, 0
2, 33186, Note_on_c, 0, 75, 0
2, 33239, Note_on_c, 0, 75, 127
2, 33265, Note_on_c, 0, 75, 0
2, 33296, Note_on_c, 0, 75, 127
2, 33321, Note_on_c, 0, 75, 0
2, 33355, Note_on_c, 0, 75, 127
2, 33381, Note_on_c, 0, 75, 0
2, 33416, Note_on_c, 0, 75, 127
2, 33442, Note_on_c, 0, 75, 0
2, 33480, Note_on_c, 0, 75, 127
2, 33511, Note_on_c, 0, 75, 0
2, 33540, Note_on_c, 0, 75, 112
2, 33569, Note_on_c, 0, 75, 0
2, 33606, Note_on_c, 0, 75, 127
2, 33668, Note_on_c, 0, 75, 0
2, 33725, Note_on_c, 0, 75, 127
2, 33753, Note_on_c, 0, 75, 0
2, 33782, Note_on_c, 0, 75, 112
2, 33808, Note_on_c, 0, 75, 0
2, 33839, Note_on_c, 0, 75, 127
2, 33873, Note_on_c, 0, 75, 0
2, 33903, Note_on_c, 0, 75, 94
2, 33934, Note_on_c, 0, 75, 0
2, 33966, Note_on_c, 0, 75, 124
2, 33998, Note_on_c, 0, 75, 0
2, 34023, Note_on_c, 0, 75, 108
2, 34053, Note_on_c, 0, 75, 0
2, 34082, Note_on_c, 0, 75, 127
2, 34136, Note_on_c, 0, 75, 0
2, 34211, Note_on_c, 0, 75, 127
2, 34239, Note_on_c, 0, 75, 0
2, 34265, Note_on_c, 0, 75, 127
2, 34293, Note_on_c, 0, 75, 0
2, 34324, Note_on_c, 0, 75, 127
2, 34349, Note_on_c, 0, 75, 0
2, 34381, Note_on_c, 0, 75, 127
2, 34410, Note_on_c, 0, 75, 0
2, 34444, Note_on_c, 0, 75, 127
2, 34471, Note_on_c, 0, 75, 0
2, 34502, Note_on_c, 0, 75, 119
2, 34529, Note_on_c, 0, 75, 0
2, 34566, Note_on_c, 0, 75, 127
2, 34609, Note_on_c, 0, 75, 0
2, 34678, Note_on_c, 0, 75, 127
2, 34704, Note_on_c, 0, 75, 0
2, 34737, Note_on_c, 0, 75, 127
2, 34765, Note_on_c, 0, 75, 0
2, 34802, Note_on_c, 0, 75, 127
2, 34829, Note_on_c, 0, 75, 0
2, 34850, Control_c, 0, 7, 120
2, 34862, Note_on_c, 0, 75, 112
2, 34887, Note_on_c, 0, 75, 0
2, 34924, Note_on_c, 0, 75, 127
2, 34935, Control_c, 0, 7, 119
2, 34945, Control_c, 0, 7, 118
2, 34950, Note_on_c, 0, 75, 0
2, 34960, Control_c, 0, 7, 117
2, 34975, Control_c, 0, 7, 96
2, 34988, Note_on_c, 0, 75, 112
2, 35008, Note_on_c, 0, 75, 0
2, 35035, Control_c, 0, 7, 94
2, 35054, Note_on_c, 0, 73, 127
2, 35059, Control_c, 0, 7, 93
2, 35079, Note_on_c, 0, 73, 0
2, 35079, Control_c, 0, 7, 92
2, 35084, Control_c, 0, 7, 91
2, 35112, Control_c, 0, 7, 89
2, 35112, Note_on_c, 0, 73, 127
2, 35127, Control_c, 0, 7, 87
2, 35134, Note_on_c, 0, 73, 0
2, 35134, Control_c, 0, 7, 86
2, 35143, Control_c, 0, 7, 82
2, 35153, Control_c, 0, 7, 80
2, 35169, Note_on_c, 0, 73, 127
2, 35170, Control_c, 0, 7, 79
2, 35185, Control_c, 0, 7, 75
2, 35190, Control_c, 0, 7, 73
2, 35192, Note_on_c, 0, 73, 0
2, 35203, Control_c, 0, 7, 72
2, 35218, Control_c, 0, 7, 68
2, 35228, Note_on_c, 0, 73, 127
2, 35233, Control_c, 0, 7, 66
2, 35251, Control_c, 0, 7, 65
2, 35258, Note_on_c, 0, 73, 0
2, 35278, Control_c, 0, 7, 64
2, 35291, Note_on_c, 0, 68, 127
2, 35347, Note_on_c, 0, 68, 0
2, 35405, Note_on_c, 0, 68, 127
2, 35434, Note_on_c, 0, 68, 0
2, 35467, Note_on_c, 0, 69, 124
2, 35512, Note_on_c, 0, 69, 0
2, 35690, Control_c, 0, 7, 66
2, 35712, Note_on_c, 0, 68, 127
2, 35727, Control_c, 0, 7, 65
2, 35738, Note_on_c, 0, 68, 0
2, 35775, Note_on_c, 0, 69, 99
2, 35806, Note_on_c, 0, 69, 0
2, 35890, Note_on_c, 0, 71, 127
2, 35918, Control_c, 0, 7, 66
2, 35928, Control_c, 0, 7, 67
2, 35937, Note_on_c, 0, 71, 0
2, 35937, Control_c, 0, 7, 71
2, 35947, Control_c, 0, 7, 73
2, 35958, Control_c, 0, 7, 74
2, 35994, Control_c, 0, 7, 75
2, 36019, Note_on_c, 0, 68, 127
2, 36040, Note_on_c, 0, 68, 0
2, 36073, Note_on_c, 0, 68, 119
2, 36096, Note_on_c, 0, 68, 0
2, 36133, Note_on_c, 0, 68, 127
2, 36157, Note_on_c, 0, 68, 0
2, 36191, Note_on_c, 0, 68, 124
2, 36214, Note_on_c, 0, 68, 0
2, 36255, Note_on_c, 0, 68, 127
2, 36275, Note_on_c, 0, 68, 0
2, 36285, Control_c, 0, 7, 73
2, 36295, Control_c, 0, 7, 72
2, 36315, Note_on_c, 0, 68, 127
2, 36335, Note_on_c, 0, 68, 0
2, 36376, Note_on_c, 0, 68, 127
2, 36421, Note_on_c, 0, 68, 0
2, 36488, Note_on_c, 0, 69, 127
2, 36535, Note_on_c, 0, 69, 0
2, 36550, Control_c, 0, 7, 71
2, 36600, Control_c, 0, 7, 70
2, 36670, Control_c, 0, 7, 68
2, 36705, Control_c, 0, 7, 66
2, 36775, Control_c, 0, 7, 65
2, 36801, Note_on_c, 0, 68, 127
2, 36823, Note_on_c, 0, 68, 0
2, 36859, Note_on_c, 0, 68, 127
2, 36869, Control_c, 0, 7, 64
2, 36885, Note_on_c, 0, 68, 0
2, 36915, Note_on_c, 0, 68, 127
2, 36942, Note_on_c, 0, 68, 0
2, 36972, Note_on_c, 0, 73, 127
2, 36995, Note_on_c, 0, 73, 0
2, 37015, Control_c, 0, 7, 63
2, 37028, Note_on_c, 0, 73, 127
2, 37053, Note_on_c, 0, 73, 0
2, 37088, Note_on_c, 0, 73, 127
2, 37113, Note_on_c, 0, 73, 0
2, 37150, Control_c, 0, 7, 61
2, 37150, Note_on_c, 0, 73, 127
2, 37175, Note_on_c, 0, 73, 0
2, 37207, Note_on_c, 0, 68, 127
2, 37225, Note_on_c, 0, 68, 0
2, 37237, Control_c, 0, 7, 60
2, 37267, Note_on_c, 0, 68, 127
2, 37289, Note_on_c, 0, 68, 0
2, 37326, Note_on_c, 0, 68, 127
2, 37351, Note_on_c, 0, 68, 0
2, 37390, Note_on_c, 0, 69, 124
2, 37430, Note_on_c, 0, 69, 0
2, 37640, Note_on_c, 0, 68, 127
2, 37664, Note_on_c, 0, 68, 0
2, 37699, Note_on_c, 0, 69, 102
2, 37738, Note_on_c, 0, 69, 0
2, 37814, Note_on_c, 0, 71, 127
2, 37849, Note_on_c, 0, 71, 0
2, 37929, Note_on_c, 0, 68, 127
2, 37954, Note_on_c, 0, 68, 0
2, 37985, Note_on_c, 0, 68, 115
2, 38012, Note_on_c, 0, 68, 0
2, 38043, Note_on_c, 0, 68, 127
2, 38067, Note_on_c, 0, 68, 0
2, 38102, Note_on_c, 0, 68, 127
2, 38127, Note_on_c, 0, 68, 0
2, 38168, Note_on_c, 0, 68, 127
2, 38199, Note_on_c, 0, 68, 0
2, 38286, Note_on_c, 0, 68, 127
2, 38318, Note_on_c, 0, 68, 0
2, 38403, Note_on_c, 0, 68, 127
2, 38440, Note_on_c, 0, 68, 0
2, 38527, Note_on_c, 0, 66, 127
2, 38562, Note_on_c, 0, 66, 0
2, 38645, Note_on_c, 0, 64, 127
2, 38686, Note_on_c, 0, 64, 0
2, 38690, Control_c, 0, 7, 120
2, 38769, Note_on_c, 0, 63, 127
2, 38775, Control_c, 0, 7, 119
2, 38785, Control_c, 0, 7, 118
2, 38800, Control_c, 0, 7, 117
2, 38815, Control_c, 0, 7, 96
2, 38816, Note_on_c, 0, 63, 0
2, 38875, Control_c, 0, 7, 94
2, 38894, Note_on_c, 0, 73, 127
2, 38898, Note_on_c, 0, 61, 127
2, 38899, Control_c, 0, 7, 93
2, 38919, Note_on_c, 0, 73, 0
2, 38919, Control_c, 0, 7, 92
2, 38924, Control_c, 0, 7, 91
2, 38941, Note_on_c, 0, 61, 0
2, 38952, Control_c, 0, 7, 89
2, 38952, Note_on_c, 0, 73, 127
2, 38967, Control_c, 0, 7, 87
2, 38974, Note_on_c, 0, 73, 0
2, 38974, Control_c, 0, 7, 86
2, 38983, Control_c, 0, 7, 82
2, 38993, Control_c, 0, 7, 80
2, 39009, Note_on_c, 0, 73, 127
2, 39010, Control_c, 0, 7, 79
2, 39025, Control_c, 0, 7, 75
2, 39030, Control_c, 0, 7, 73
2, 39032, Note_on_c, 0, 73, 0
2, 39043, Control_c, 0, 7, 72
2, 39058, Control_c, 0, 7, 68
2, 39068, Note_on_c, 0, 73, 127
2, 39073, Control_c, 0, 7, 66
2, 39091, Control_c, 0, 7, 65
2, 39098, Note_on_c, 0, 73, 0
2, 39118, Control_c, 0, 7, 64
2, 39131, Note_on_c, 0, 68, 127
2, 39187, Note_on_c, 0, 68, 0
2, 39245, Note_on_c, 0, 68, 127
2, 39274, Note_on_c, 0, 68, 0
2, 39307, Note_on_c, 0, 69, 124
2, 39352, Note_on_c, 0, 69, 0
2, 39530, Control_c, 0, 7, 66
2, 39552, Note_on_c, 0, 68, 127
2, 39567, Control_c, 0, 7, 65
2, 39578, Note_on_c, 0, 68, 0
2, 39615, Note_on_c, 0, 69, 99
2, 39646, Note_on_c, 0, 69, 0
2, 39730, Note_on_c, 0, 71, 127
2, 39758, Control_c, 0, 7, 66
2, 39768, Control_c, 0, 7, 67
2, 39777, Note_on_c, 0, 71, 0
2, 39777, Control_c, 0, 7, 71
2, 39787, Control_c, 0, 7, 73
2, 39798, Control_c, 0, 7, 74
2, 39834, Control_c, 0, 7, 75
2, 39859, Note_on_c, 0, 68, 127
2, 39880, Note_on_c, 0, 68, 0
2, 39913, Note_on_c, 0, 68, 119
2, 39936, Note_on_c, 0, 68, 0
2, 39973, Note_on_c, 0, 68, 127
2, 39997, Note_on_c, 0, 68, 0
2, 40031, Note_on_c, 0, 68, 124
2, 40054, Note_on_c, 0, 68, 0
2, 40095, Note_on_c, 0, 68, 127
2, 40115, Note_on_c, 0, 68, 0
2, 40125, Control_c, 0, 7, 73
2, 40135, Control_c, 0, 7, 72
2, 40155, Note_on_c, 0, 68, 127
2, 40175, Note_on_c, 0, 68, 0
2, 40216, Note_on_c, 0, 68, 127
2, 40261, Note_on_c, 0, 68, 0
2, 40328, Note_on_c, 0, 69, 127
2, 40375, Note_on_c, 0, 69, 0
2, 40390, Control_c, 0, 7, 71
2, 40440, Control_c, 0, 7, 70
2, 40510, Control_c, 0, 7, 68
2, 40545, Control_c, 0, 7, 66
2, 40615, Control_c, 0, 7, 65
2, 40641, Note_on_c, 0, 68, 127
2, 40663, Note_on_c, 0, 68, 0
2, 40699, Note_on_c, 0, 68, 127
2, 40709, Control_c, 0, 7, 64
2, 40725, Note_on_c, 0, 68, 0
2, 40755, Note_on_c, 0, 68, 127
2, 40782, Note_on_c, 0, 68, 0
2, 40812, Note_on_c, 0, 73, 127
2, 40835, Note_on_c, 0, 73, 0
2, 40855, Control_c, 0, 7, 63
2, 40868, Note_on_c, 0, 73, 127
2, 40893, Note_on_c, 0, 73, 0
2, 40928, Note_on_c, 0, 73, 127
2, 40953, Note_on_c, 0, 73, 0
2, 40990, Control_c, 0, 7, 61
2, 40990, Note_on_c, 0, 73, 127
2, 41015, Note_on_c, 0, 73, 0
2, 41047, Note_on_c, 0, 68, 127
2, 41065, Note_on_c, 0, 68, 0
2, 41077, Control_c, 0, 7, 60
2, 41107, Note_on_c, 0, 68, 127
2, 41129, Note_on_c, 0, 68, 0
2, 41166, Note_on_c, 0, 68, 127
2, 41191, Note_on_c, 0, 68, 0
2, 41230, Note_on_c, 0, 69, 124
2, 41270, Note_on_c, 0, 69, 0
2, 41480, Note_on_c, 0, 68, 127
2, 41504, Note_on_c, 0, 68, 0
2, 41539, Note_on_c, 0, 69, 102
2, 41578, Note_on_c, 0, 69, 0
2, 41654, Note_on_c, 0, 71, 127
2, 41689, Note_on_c, 0, 71, 0
2, 41769, Note_on_c, 0, 68, 127
2, 41794, Note_on_c, 0, 68, 0
2, 41825, Note_on_c, 0, 68, 115
2, 41852, Note_on_c, 0, 68, 0
2, 41883, Note_on_c, 0, 68, 127
2, 41907, Note_on_c, 0, 68, 0
2, 41942, Note_on_c, 0, 68, 127
2, 41967, Note_on_c, 0, 68, 0
2, 42008, Note_on_c, 0, 68, 127
2, 42039, Note_on_c, 0, 68, 0
2, 42126, Note_on_c, 0, 68, 127
2, 42158, Note_on_c, 0, 68, 0
2, 42243, Note_on_c, 0, 68, 127
2, 42280, Note_on_c, 0, 68, 0
2, 42367, Note_on_c, 0, 66, 127
2, 42402, Note_on_c, 0, 66, 0
2, 42485, Note_on_c, 0, 64, 127
2, 42526, Note_on_c, 0, 64, 0
2, 42530, Control_c, 0, 7, 120
2, 42609, Note_on_c, 0, 63, 127
2, 42615, Control_c, 0, 7, 119
2, 42625, Control_c, 0, 7, 118
2, 42640, Control_c, 0, 7, 117
2, 42655, Control_c, 0, 7, 96
2, 42656, Note_on_c, 0, 63, 0
2, 42715, Control_c, 0, 7, 94
2, 42734, Note_on_c, 0, 73, 127
2, 42738, Note_on_c, 0, 61, 127
2, 42739, Control_c, 0, 7, 93
2, 42759, Note_on_c, 0, 73, 0
2, 42759, Control_c, 0, 7, 92
2, 42764, Control_c, 0, 7, 91
2, 42781, Note_on_c, 0, 61, 0
2, 42792, Control_c, 0, 7, 89
2, 42792, Note_on_c, 0, 73, 127
2, 42807, Control_c, 0, 7, 87
2, 42814, Note_on_c, 0, 73, 0
2, 42814, Control_c, 0, 7, 86
2, 42823, Control_c, 0, 7, 82
2, 42833, Control_c, 0, 7, 80
2, 42849, Note_on_c, 0, 73, 127
2, 42850, Control_c, 0, 7, 79
2, 42865, Control_c, 0, 7, 75
2, 42870, Control_c, 0, 7, 73
2, 42872, Note_on_c, 0, 73, 0
2, 42883, Control_c, 0, 7, 72
2, 42898, Control_c, 0, 7, 68
2, 42908, Note_on_c, 0, 73, 127
2, 42913, Control_c, 0, 7, 66
2, 42931, Control_c, 0, 7, 65
2, 42938, Note_on_c, 0, 73, 0
2, 42958, Control_c, 0, 7, 64
2, 42971, Note_on_c, 0, 68, 127
2, 43027, Note_on_c, 0, 68, 0
2, 43085, Note_on_c, 0, 68, 127
2, 43114, Note_on_c, 0, 68, 0
2, 43147, Note_on_c, 0, 69, 124
2, 43192, Note_on_c, 0, 69, 0
2, 43370, Control_c, 0, 7, 66
2, 43392, Note_on_c, 0, 68, 127
2, 43407, Control_c, 0, 7, 65
2, 43418, Note_on_c, 0, 68, 0
2, 43455, Note_on_c, 0, 69, 99
2, 43486, Note_on_c, 0, 69, 0
2, 43570, Note_on_c, 0, 71, 127
2, 43598, Control_c, 0, 7, 66
2, 43608, Control_c, 0, 7, 67
2, 43617, Note_on_c, 0, 71, 0
2, 43617, Control_c, 0, 7, 71
2, 43627, Control_c, 0, 7, 73
2, 43638, Control_c, 0, 7, 74
2, 43674, Control_c, 0, 7, 75
2, 43699, Note_on_c, 0, 68, 127
2, 43720, Note_on_c, 0, 68, 0
2, 43753, Note_on_c, 0, 68, 119
2, 43776, Note_on_c, 0, 68, 0
2, 43813, Note_on_c, 0, 68, 127
2, 43837, Note_on_c, 0, 68, 0
2, 43871, Note_on_c, 0, 68, 124
2, 43894, Note_on_c, 0, 68, 0
2, 43935, Note_on_c, 0, 68, 127
2, 43955, Note_on_c, 0, 68, 0
2, 43965, Control_c, 0, 7, 73
2, 43975, Control_c, 0, 7, 72
2, 43995, Note_on_c, 0, 68, 127
2, 44015, Note_on_c, 0, 68, 0
2, 44056, Note_on_c, 0, 68, 127
2, 44101, Note_on_c, 0, 68, 0
2, 44168, Note_on_c, 0, 69, 127
2, 44215, Note_on_c, 0, 69, 0
2, 44230, Control_c, 0, 7, 71
2, 44280, Control_c, 0, 7, 70
2, 44350, Control_c, 0, 7, 68
2, 44385, Control_c, 0, 7, 66
2, 44455, Control_c, 0, 7, 65
2, 44481, Note_on_c, 0, 68, 127
2, 44503, Note_on_c, 0, 68, 0
2, 44539, Note_on_c, 0, 68, 127
2, 44549, Control_c, 0, 7, 64
2, 44565, Note_on_c, 0, 68, 0
2, 44595, Note_on_c, 0, 68, 127
2, 44622, Note_on_c, 0, 68, 0
2, 44652, Note_on_c, 0, 73, 127
2, 44675, Note_on_c, 0, 73, 0
2, 44695, Control_c, 0, 7, 63
2, 44708, Note_on_c, 0, 73, 127
2, 44733, Note_on_c, 0, 73, 0
2, 44768, Note_on_c, 0, 73, 127
2, 44793, Note_on_c, 0, 73, 0
2, 44830, Control_c, 0, 7, 61
2, 44830, Note_on_c, 0, 73, 127
2, 44855, Note_on_c, 0, 73, 0
2, 44887, Note_on_c, 0, 68, 127
2, 44905, Note_on_c, 0, 68, 0
2, 44917, Control_c, 0, 7, 60
2, 44947, Note_on_c, 0, 68, 127
2, 44969, Note_on_c, 0, 68, 0
2, 45006, Note_on_c, 0, 68, 127
2, 45031, Note_on_c, 0, 68, 0
2, 45070, Note_on_c, 0, 69, 124
2, 45110, Note_on_c, 0, 69, 0
2, 45320, Note_on_c, 0, 68, 127
2, 45344, Note_on_c, 0, 68, 0
2, 45379, Note_on_c, 0, 69, 102
2, 45418, Note_on_c, 0, 69, 0
2, 45494, Note_on_c, 0, 71, 127
2, 45529, Note_on_c, 0, 71, 0
2, 45609, Note_on_c, 0, 68, 127
2, 45634, Note_on_c, 0, 68, 0
2, 45665, Note_on_c, 0, 68, 115
2, 45692, Note_on_c, 0, 68, 0
2, 45723, Note_on_c, 0, 68, 127
2, 45747, Note_on_c, 0, 68, 0
2, 45782, Note_on_c, 0, 68, 127
2, 45807, Note_on_c, 0, 68, 0
2, 45848, Note_on_c, 0, 68, 127
2, 45879, Note_on_c, 0, 68, 0
2, 45966, Note_on_c, 0, 68, 127
2, 45998, Note_on_c, 0, 68, 0
2, 46083, Note_on_c, 0, 68, 127
2, 46120, Note_on_c, 0, 68, 0
2, 46207, Note_on_c, 0, 66, 127
2, 46242, Note_on_c, 0, 66, 0
2, 46325, Note_on_c, 0, 64, 127
2, 46366, Note_on_c, 0, 64, 0
2, 46449, Note_on_c, 0, 63, 127
2, 46496, Note_on_c, 0, 63, 0
2, 46567, Note_on_c, 0, 75, 127
2, 46578, Note_on_c, 0, 61, 127
2, 46615, Note_on_c, 0, 75, 0
2, 46621, Note_on_c, 0, 61, 0
2, 46690, Note_on_c, 0, 75, 127
2, 46720, Note_on_c, 0, 75, 0
2, 46747, Note_on_c, 0, 75, 124
2, 46774, Note_on_c, 0, 75, 0
2, 46809, Note_on_c, 0, 75, 127
2, 46838, Note_on_c, 0, 75, 0
2, 46872, Note_on_c, 0, 75, 119
2, 46897, Note_on_c, 0, 75, 0
2, 46935, Note_on_c, 0, 75, 127
2, 46964, Note_on_c, 0, 75, 0
2, 46991, Note_on_c, 0, 75, 115
2, 47022, Note_on_c, 0, 75, 0
2, 47051, Note_on_c, 0, 75, 127
2, 47097, Note_on_c, 0, 75, 0
2, 47174, Note_on_c, 0, 75, 127
2, 47206, Note_on_c, 0, 75, 0
2, 47232, Note_on_c, 0, 75, 127
2, 47261, Note_on_c, 0, 75, 0
2, 47292, Note_on_c, 0, 75, 127
2, 47322, Note_on_c, 0, 75, 0
2, 47355, Note_on_c, 0, 75, 127
2, 47383, Note_on_c, 0, 75, 0
2, 47413, Note_on_c, 0, 75, 124
2, 47442, Note_on_c, 0, 75, 0
2, 47470, Note_on_c, 0, 75, 127
2, 47503, Note_on_c, 0, 75, 0
2, 47531, Note_on_c, 0, 75, 127
2, 47576, Note_on_c, 0, 75, 0
2, 47652, Note_on_c, 0, 75, 127
2, 47684, Note_on_c, 0, 75, 0
2, 47714, Note_on_c, 0, 75, 127
2, 47745, Note_on_c, 0, 75, 0
2, 47777, Note_on_c, 0, 75, 127
2, 47806, Note_on_c, 0, 75, 0
2, 47836, Note_on_c, 0, 75, 127
2, 47866, Note_on_c, 0, 75, 0
2, 47892, Note_on_c, 0, 75, 119
2, 47923, Note_on_c, 0, 75, 0
2, 47950, Note_on_c, 0, 75, 127
2, 47981, Note_on_c, 0, 75, 0
2, 48011, Note_on_c, 0, 75, 127
2, 48047, Note_on_c, 0, 75, 0
2, 48071, Note_on_c, 0, 75, 124
2, 48106, Note_on_c, 0, 75, 0
2, 48131, Note_on_c, 0, 75, 124
2, 48164, Note_on_c, 0, 75, 0
2, 48189, Note_on_c, 0, 75, 124
2, 48218, Note_on_c, 0, 75, 0
2, 48249, Note_on_c, 0, 75, 127
2, 48282, Note_on_c, 0, 75, 0
2, 48305, Note_on_c, 0, 75, 88
2, 48337, Note_on_c, 0, 75, 0
2, 48369, Note_on_c, 0, 75, 112
2, 48397, Note_on_c, 0, 75, 0
2, 48426, Note_on_c, 0, 75, 102
2, 48452, Note_on_c, 0, 75, 0
2, 48491, Note_on_c, 0, 75, 127
2, 48559, Note_on_c, 0, 75, 0
2, 48604, Note_on_c, 0, 75, 127
2, 48634, Note_on_c, 0, 75, 0
2, 48664, Note_on_c, 0, 75, 127
2, 48690, Note_on_c, 0, 75, 0
2, 48727, Note_on_c, 0, 75, 127
2, 48748, Note_on_c, 0, 75, 0
2, 48782, Note_on_c, 0, 75, 127
2, 48806, Note_on_c, 0, 75, 0
2, 48841, Note_on_c, 0, 75, 119
2, 48866, Note_on_c, 0, 75, 0
2, 48900, Note_on_c, 0, 75, 127
2, 48927, Note_on_c, 0, 75, 0
2, 48960, Note_on_c, 0, 75, 127
2, 48987, Note_on_c, 0, 75, 0
2, 49020, Note_on_c, 0, 75, 127
2, 49050, Note_on_c, 0, 75, 0
2, 49090, Note_on_c, 0, 78, 127
2, 49127, Note_on_c, 0, 78, 0
2, 49149, Note_on_c, 0, 75, 127
2, 49185, Note_on_c, 0, 75, 0
2, 49211, Note_on_c, 0, 78, 127
2, 49254, Note_on_c, 0, 78, 0
2, 49267, Note_on_c, 0, 75, 127
2, 49305, Note_on_c, 0, 75, 0
2, 49331, Note_on_c, 0, 78, 127
2, 49378, Note_on_c, 0, 78, 0
2, 49393, Note_on_c, 0, 75, 127
2, 49422, Note_on_c, 0, 75, 0
2, 49451, Note_on_c, 0, 75, 127
2, 49492, Note_on_c, 0, 75, 0
2, 49562, Note_on_c, 0, 75, 127
2, 49591, Note_on_c, 0, 75, 0
2, 49620, Note_on_c, 0, 75, 112
2, 49650, Note_on_c, 0, 75, 0
2, 49683, Note_on_c, 0, 75, 127
2, 49710, Note_on_c, 0, 75, 0
2, 49740, Note_on_c, 0, 75, 119
2, 49766, Note_on_c, 0, 75, 0
2, 49800, Note_on_c, 0, 75, 124
2, 49829, Note_on_c, 0, 75, 0
2, 49858, Note_on_c, 0, 75, 115
2, 49887, Note_on_c, 0, 75, 0
2, 49918, Note_on_c, 0, 75, 127
2, 49930, Note_on_c, 0, 78, 84
2, 49933, Note_on_c, 0, 78, 0
2, 49949, Note_on_c, 0, 75, 0
2, 49979, Note_on_c, 0, 75, 108
2, 50009, Note_on_c, 0, 75, 0
2, 50043, Note_on_c, 0, 78, 127
2, 50099, Note_on_c, 0, 78, 0
2, 50101, Note_on_c, 0, 75, 127
2, 50146, Note_on_c, 0, 75, 0
2, 50162, Note_on_c, 0, 78, 127
2, 50216, Note_on_c, 0, 78, 0
2, 50223, Note_on_c, 0, 75, 127
2, 50287, Note_on_c, 0, 75, 0
2, 50288, Note_on_c, 0, 78, 127
2, 50346, Note_on_c, 0, 78, 0
2, 50352, Note_on_c, 0, 75, 127
2, 50354, Note_on_c, 0, 74, 97
2, 50372, Note_on_c, 0, 74, 0
2, 50380, Note_on_c, 0, 75, 0
2, 50407, Note_on_c, 0, 75, 127
2, 50440, Note_on_c, 0, 75, 0
2, 50470, Note_on_c, 0, 75, 112
2, 50501, Note_on_c, 0, 75, 0
2, 50529, Note_on_c, 0, 75, 112
2, 50559, Note_on_c, 0, 75, 0
2, 50589, Note_on_c, 0, 75, 127
2, 50618, Note_on_c, 0, 75, 0
2, 50645, Note_on_c, 0, 75, 99
2, 50672, Note_on_c, 0, 75, 0
2, 50707, Note_on_c, 0, 75, 127
2, 50731, Note_on_c, 0, 75, 0
2, 50763, Note_on_c, 0, 75, 124
2, 50789, Note_on_c, 0, 75, 0
2, 50822, Note_on_c, 0, 75, 112
2, 50851, Note_on_c, 0, 75, 0
2, 50882, Note_on_c, 0, 75, 115
2, 50912, Note_on_c, 0, 75, 0
2, 50943, Note_on_c, 0, 75, 119
2, 50976, Note_on_c, 0, 75, 0
2, 51008, Note_on_c, 0, 78, 127
2, 51043, Note_on_c, 0, 78, 0
2, 51066, Note_on_c, 0, 75, 124
2, 51100, Note_on_c, 0, 75, 0
2, 51125, Note_on_c, 0, 78, 127
2, 51164, Note_on_c, 0, 78, 0
2, 51186, Note_on_c, 0, 75, 119
2, 51221, Note_on_c, 0, 75, 0
2, 51245, Note_on_c, 0, 78, 127
2, 51281, Note_on_c, 0, 78, 0
2, 51300, Note_on_c, 0, 75, 127
2, 51329, Note_on_c, 0, 75, 0
2, 51360, Note_on_c, 0, 75, 119
2, 51405, Note_on_c, 0, 75, 0
2, 51479, Note_on_c, 0, 75, 127
2, 51510, Note_on_c, 0, 75, 0
2, 51539, Note_on_c, 0, 75, 90
2, 51566, Note_on_c, 0, 75, 0
2, 51597, Note_on_c, 0, 75, 112
2, 51630, Note_on_c, 0, 75, 0
2, 51655, Note_on_c, 0, 75, 97
2, 51687, Note_on_c, 0, 75, 0
2, 51719, Note_on_c, 0, 75, 108
2, 51750, Note_on_c, 0, 75, 0
2, 51781, Note_on_c, 0, 75, 105
2, 51813, Note_on_c, 0, 75, 0
2, 51845, Note_on_c, 0, 75, 112
2, 51887, Note_on_c, 0, 75, 0
2, 51913, Note_on_c, 0, 75, 97
2, 51949, Note_on_c, 0, 75, 0
2, 51968, Note_on_c, 0, 78, 127
2, 52007, Note_on_c, 0, 78, 0
2, 52025, Note_on_c, 0, 75, 127
2, 52060, Note_on_c, 0, 75, 0
2, 52085, Note_on_c, 0, 78, 127
2, 52130, Note_on_c, 0, 78, 0
2, 52144, Note_on_c, 0, 75, 127
2, 52178, Note_on_c, 0, 75, 0
2, 52200, Note_on_c, 0, 78, 127
2, 52247, Note_on_c, 0, 78, 0
2, 52265, Note_on_c, 0, 75, 127
2, 52290, Note_on_c, 0, 75, 0
2, 52315, Note_on_c, 0, 75, 127
2, 52317, Note_on_c, 0, 75, 127
2, 52345, Note_on_c, 0, 75, 0
2, 52389, Note_on_c, 0, 75, 0
2, 52447, Note_on_c, 0, 75, 127
2, 52474, Note_on_c, 0, 75, 0
2, 52505, Note_on_c, 0, 75, 127
2, 52530, Note_on_c, 0, 75, 0
2, 52563, Note_on_c, 0, 75, 127
2, 52563, Note_on_c, 0, 77, 112
2, 52581, Note_on_c, 0, 77, 0
2, 52588, Note_on_c, 0, 75, 0
2, 52621, Note_on_c, 0, 75, 127
2, 52646, Note_on_c, 0, 75, 0
2, 52682, Note_on_c, 0, 75, 127
2, 52709, Note_on_c, 0, 75, 0
2, 52740, Note_on_c, 0, 75, 127
2, 52768, Note_on_c, 0, 75, 0
2, 52803, Note_on_c, 0, 75, 127
2, 52827, Note_on_c, 0, 75, 0
2, 52859, Note_on_c, 0, 75, 127
2, 52888, Note_on_c, 0, 75, 0
2, 52921, Note_on_c, 0, 78, 127
2, 52960, Note_on_c, 0, 78, 0
2, 52980, Note_on_c, 0, 75, 127
2, 53011, Note_on_c, 0, 75, 0
2, 53042, Note_on_c, 0, 78, 127
2, 53083, Note_on_c, 0, 78, 0
2, 53100, Note_on_c, 0, 75, 127
2, 53130, Note_on_c, 0, 75, 0
2, 53158, Note_on_c, 0, 78, 127
2, 53196, Note_on_c, 0, 78, 0
2, 53215, Note_on_c, 0, 75, 127
2, 53239, Note_on_c, 0, 75, 0
2, 53274, Note_on_c, 0, 75, 127
2, 53342, Note_on_c, 0, 75, 0
2, 53400, Note_on_c, 0, 75, 127
2, 53424, Note_on_c, 0, 75, 0
2, 53456, Note_on_c, 0, 75, 127
2, 53481, Note_on_c, 0, 75, 0
2, 53516, Note_on_c, 0, 75, 127
2, 53545, Note_on_c, 0, 75, 0
2, 53575, Note_on_c, 0, 75, 105
2, 53602, Note_on_c, 0, 75, 0
2, 53636, Note_on_c, 0, 75, 127
2, 53666, Note_on_c, 0, 75, 0
2, 53698, Note_on_c, 0, 75, 127
2, 53726, Note_on_c, 0, 75, 0
2, 53763, Note_on_c, 0, 75, 127
2, 53788, Note_on_c, 0, 75, 0
2, 53820, Note_on_c, 0, 75, 127
2, 53849, Note_on_c, 0, 75, 0
2, 53885, Note_on_c, 0, 78, 127
2, 53920, Note_on_c, 0, 78, 0
2, 53939, Note_on_c, 0, 75, 127
2, 53968, Note_on_c, 0, 75, 0
2, 53996, Note_on_c, 0, 78, 127
2, 54036, Note_on_c, 0, 78, 0
2, 54051, Note_on_c, 0, 75, 127
2, 54083, Note_on_c, 0, 75, 0
2, 54115, Note_on_c, 0, 78, 127
2, 54156, Note_on_c, 0, 78, 0
2, 54175, Note_on_c, 0, 75, 127
2, 54202, Note_on_c, 0, 75, 0
2, 54235, Note_on_c, 0, 75, 127
2, 54261, Note_on_c, 0, 75, 0
2, 54295, Note_on_c, 0, 75, 127
2, 54324, Note_on_c, 0, 75, 0
2, 54360, Note_on_c, 0, 75, 127
2, 54389, Note_on_c, 0, 75, 0
2, 54421, Note_on_c, 0, 75, 127
2, 54448, Note_on_c, 0, 75, 0
2, 54485, Note_on_c, 0, 75, 127
2, 54512, Note_on_c, 0, 75, 0
2, 54546, Note_on_c, 0, 75, 127
2, 54572, Note_on_c, 0, 75, 0
2, 54603, Note_on_c, 0, 75, 127
2, 54630, Note_on_c, 0, 75, 0
2, 54662, Note_on_c, 0, 75, 127
2, 54689, Note_on_c, 0, 75, 0
2, 54720, Note_on_c, 0, 75, 127
2, 54745, Note_on_c, 0, 75, 0
2, 54777, Note_on_c, 0, 75, 127
2, 54805, Note_on_c, 0, 75, 0
2, 54843, Note_on_c, 0, 78, 127
2, 54877, Note_on_c, 0, 78, 0
2, 54900, Note_on_c, 0, 75, 127
2, 54932, Note_on_c, 0, 75, 0
2, 54960, Note_on_c, 0, 78, 127
2, 55002, Note_on_c, 0, 78, 0
2, 55017, Note_on_c, 0, 75, 127
2, 55055, Note_on_c, 0, 75, 0
2, 55072, Note_on_c, 0, 78, 127
2, 55117, Note_on_c, 0, 78, 0
2, 55128, Note_on_c, 0, 75, 127
2, 55160, Note_on_c, 0, 75, 0
2, 55190, Note_on_c, 0, 75, 127
2, 55224, Note_on_c, 0, 75, 0
2, 55251, Note_on_c, 0, 75, 127
2, 55283, Note_on_c, 0, 75, 0
2, 55313, Note_on_c, 0, 75, 127
2, 55346, Note_on_c, 0, 75, 0
2, 55372, Note_on_c, 0, 75, 108
2, 55409, Note_on_c, 0, 75, 0
2, 55439, Note_on_c, 0, 75, 127
2, 55471, Note_on_c, 0, 75, 0
2, 55500, Note_on_c, 0, 75, 115
2, 55531, Note_on_c, 0, 75, 0
2, 55562, Note_on_c, 0, 75, 124
2, 55593, Note_on_c, 0, 75, 0
2, 55620, Note_on_c, 0, 75, 127
2, 55651, Note_on_c, 0, 75, 0
2, 55683, Note_on_c, 0, 75, 124
2, 55714, Note_on_c, 0, 75, 0
2, 55742, Note_on_c, 0, 75, 124
2, 55776, Note_on_c, 0, 75, 0
2, 55808, Note_on_c, 0, 78, 127
2, 55854, Note_on_c, 0, 78, 0
2, 55865, Note_on_c, 0, 75, 119
2, 55897, Note_on_c, 0, 75, 0
2, 55923, Note_on_c, 0, 78, 127
2, 55966, Note_on_c, 0, 78, 0
2, 55981, Note_on_c, 0, 75, 115
2, 56014, Note_on_c, 0, 75, 0
2, 56042, Note_on_c, 0, 78, 127
2, 56080, Note_on_c, 0, 78, 0
2, 56108, Note_on_c, 0, 78, 102
2, 56135, Note_on_c, 0, 78, 0
2, 56153, Note_on_c, 0, 75, 119
2, 56167, Note_on_c, 0, 75, 127
2, 56183, Note_on_c, 0, 75, 0
2, 56215, Note_on_c, 0, 75, 0
2, 56290, Note_on_c, 0, 75, 127
2, 56320, Note_on_c, 0, 75, 0
2, 56347, Note_on_c, 0, 75, 124
2, 56374, Note_on_c, 0, 75, 0
2, 56409, Note_on_c, 0, 75, 127
2, 56438, Note_on_c, 0, 75, 0
2, 56472, Note_on_c, 0, 75, 119
2, 56497, Note_on_c, 0, 75, 0
2, 56535, Note_on_c, 0, 75, 127
2, 56564, Note_on_c, 0, 75, 0
2, 56591, Note_on_c, 0, 75, 115
2, 56622, Note_on_c, 0, 75, 0
2, 56651, Note_on_c, 0, 75, 127
2, 56697, Note_on_c, 0, 75, 0
2, 56774, Note_on_c, 0, 75, 127
2, 56806, Note_on_c, 0, 75, 0
2, 56832, Note_on_c, 0, 75, 127
2, 56861, Note_on_c, 0, 75, 0
2, 56892, Note_on_c, 0, 75, 127
2, 56922, Note_on_c, 0, 75, 0
2, 56955, Note_on_c, 0, 75, 127
2, 56983, Note_on_c, 0, 75, 0
2, 57013, Note_on_c, 0, 75, 124
2, 57042, Note_on_c, 0, 75, 0
2, 57070, Note_on_c, 0, 75, 127
2, 57103, Note_on_c, 0, 75, 0
2, 57131, Note_on_c, 0, 75, 127
2, 57176, Note_on_c, 0, 75, 0
2, 57252, Note_on_c, 0, 75, 127
2, 57284, Note_on_c, 0, 75, 0
2, 57314, Note_on_c, 0, 75, 127
2, 57345, Note_on_c, 0, 75, 0
2, 57377, Note_on_c, 0, 75, 127
2, 57406, Note_on_c, 0, 75, 0
2, 57436, Note_on_c, 0, 75, 127
2, 57466, Note_on_c, 0, 75, 0
2, 57492, Note_on_c, 0, 75, 119
2, 57523, Note_on_c, 0, 75, 0
2, 57550, Note_on_c, 0, 75, 127
2, 57581, Note_on_c, 0, 75, 0
2, 57611, Note_on_c, 0, 75, 127
2, 57647, Note_on_c, 0, 75, 0
2, 57671, Note_on_c, 0, 75, 124
2, 57706, Note_on_c, 0, 75, 0
2, 57731, Note_on_c, 0, 75, 124
2, 57764, Note_on_c, 0, 75, 0
2, 57789, Note_on_c, 0, 75, 124
2, 57818, Note_on_c, 0, 75, 0
2, 57849, Note_on_c, 0, 75, 127
2, 57882, Note_on_c, 0, 75, 0
2, 57890, Control_c, 0, 7, 120
2, 57905, Note_on_c, 0, 75, 88
2, 57937, Note_on_c, 0, 75, 0
2, 57969, Note_on_c, 0, 75, 112
2, 57975, Control_c, 0, 7, 119
2, 57985, Control_c, 0, 7, 118
2, 57997, Note_on_c, 0, 75, 0
2, 58000, Control_c, 0, 7, 117
2, 58015, Control_c, 0, 7, 96
2, 58026, Note_on_c, 0, 75, 102
2, 58052, Note_on_c, 0, 75, 0
2, 58075, Control_c, 0, 7, 94
2, 58094, Note_on_c, 0, 73, 127
2, 58099, Control_c, 0, 7, 93
2, 58119, Note_on_c, 0, 73, 0
2, 58119, Control_c, 0, 7, 92
2, 58124, Control_c, 0, 7, 91
2, 58152, Control_c, 0, 7, 89
2, 58152, Note_on_c, 0, 73, 127
2, 58167, Control_c, 0, 7, 87
2, 58174, Note_on_c, 0, 73, 0
2, 58174, Control_c, 0, 7, 86
2, 58183, Control_c, 0, 7, 82
2, 58193, Control_c, 0, 7, 80
2, 58209, Note_on_c, 0, 73, 127
2, 58210, Control_c, 0, 7, 79
2, 58225, Control_c, 0, 7, 75
2, 58230, Control_c, 0, 7, 73
2, 58232, Note_on_c, 0, 73, 0
2, 58243, Control_c, 0, 7, 72
2, 58258, Control_c, 0, 7, 68
2, 58268, Note_on_c, 0, 73, 127
2, 58273, Control_c, 0, 7, 66
2, 58291, Control_c, 0, 7, 65
2, 58298, Note_on_c, 0, 73, 0
2, 58318, Control_c, 0, 7, 64
2, 58331, Note_on_c, 0, 68, 127
2, 58387, Note_on_c, 0, 68, 0
2, 58445, Note_on_c, 0, 68, 127
2, 58474, Note_on_c, 0, 68, 0
2, 58507, Note_on_c, 0, 69, 124
2, 58552, Note_on_c, 0, 69, 0
2, 58730, Control_c, 0, 7, 66
2, 58752, Note_on_c, 0, 68, 127
2, 58767, Control_c, 0, 7, 65
2, 58778, Note_on_c, 0, 68, 0
2, 58815, Note_on_c, 0, 69, 99
2, 58846, Note_on_c, 0, 69, 0
2, 58930, Note_on_c, 0, 71, 127
2, 58958, Control_c, 0, 7, 66
2, 58968, Control_c, 0, 7, 67
2, 58977, Note_on_c, 0, 71, 0
2, 58977, Control_c, 0, 7, 71
2, 58987, Control_c, 0, 7, 73
2, 58998, Control_c, 0, 7, 74
2, 59034, Control_c, 0, 7, 75
2, 59059, Note_on_c, 0, 68, 127
2, 59080, Note_on_c, 0, 68, 0
2, 59113, Note_on_c, 0, 68, 119
2, 59136, Note_on_c, 0, 68, 0
2, 59173, Note_on_c, 0, 68, 127
2, 59197, Note_on_c, 0, 68, 0
2, 59231, Note_on_c, 0, 68, 124
2, 59254, Note_on_c, 0, 68, 0
2, 59295, Note_on_c, 0, 68, 127
2, 59315, Note_on_c, 0, 68, 0
2, 59325, Control_c, 0, 7, 73
2, 59335, Control_c, 0, 7, 72
2, 59355, Note_on_c, 0, 68, 127
2, 59375, Note_on_c, 0, 68, 0
2, 59416, Note_on_c, 0, 68, 127
2, 59461, Note_on_c, 0, 68, 0
2, 59528, Note_on_c, 0, 69, 127
2, 59575, Note_on_c, 0, 69, 0
2, 59590, Control_c, 0, 7, 71
2, 59640, Control_c, 0, 7, 70
2, 59710, Control_c, 0, 7, 68
2, 59745, Control_c, 0, 7, 66
2, 59815, Control_c, 0, 7, 65
2, 59841, Note_on_c, 0, 68, 127
2, 59863, Note_on_c, 0, 68, 0
2, 59899, Note_on_c, 0, 68, 127
2, 59909, Control_c, 0, 7, 64
2, 59925, Note_on_c, 0, 68, 0
2, 59955, Note_on_c, 0, 68, 127
2, 59982, Note_on_c, 0, 68, 0
2, 60012, Note_on_c, 0, 73, 127
2, 60035, Note_on_c, 0, 73, 0
2, 60055, Control_c, 0, 7, 63
2, 60068, Note_on_c, 0, 73, 127
2, 60093, Note_on_c, 0, 73, 0
2, 60128, Note_on_c, 0, 73, 127
2, 60153, Note_on_c, 0, 73, 0
2, 60190, Control_c, 0, 7, 61
2, 60190, Note_on_c, 0, 73, 127
2, 60215, Note_on_c, 0, 73, 0
2, 60247, Note_on_c, 0, 68, 127
2, 60265, Note_on_c, 0, 68, 0
2, 60277, Control_c, 0, 7, 60
2, 60307, Note_on_c, 0, 68, 127
2, 60329, Note_on_c, 0, 68, 0
2, 60366, Note_on_c, 0, 68, 127
2, 60391, Note_on_c, 0, 68, 0
2, 60430, Note_on_c, 0, 69, 124
2, 60470, Note_on_c, 0, 69, 0
2, 60680, Note_on_c, 0, 68, 127
2, 60704, Note_on_c, 0, 68, 0
2, 60739, Note_on_c, 0, 69, 102
2, 60778, Note_on_c, 0, 69, 0
2, 60854, Note_on_c, 0, 71, 127
2, 60889, Note_on_c, 0, 71, 0
2, 60969, Note_on_c, 0, 68, 127
2, 60994, Note_on_c, 0, 68, 0
2, 61025, Note_on_c, 0, 68, 115
2, 61052, Note_on_c, 0, 68, 0
2, 61083, Note_on_c, 0, 68, 127
2, 61107, Note_on_c, 0, 68, 0
2, 61142, Note_on_c, 0, 68, 127
2, 61167, Note_on_c, 0, 68, 0
2, 61208, Note_on_c, 0, 68, 127
2, 61239, Note_on_c, 0, 68, 0
2, 61326, Note_on_c, 0, 68, 127
2, 61358, Note_on_c, 0, 68, 0
2, 61443, Note_on_c, 0, 68, 127
2, 61480, Note_on_c, 0, 68, 0
2, 61567, Note_on_c, 0, 66, 127
2, 61602, Note_on_c, 0, 66, 0
2, 61685, Note_on_c, 0, 64, 127
2, 61726, Note_on_c, 0, 64, 0
2, 61730, Control_c, 0, 7, 120
2, 61809, Note_on_c, 0, 63, 127
2, 61815, Control_c, 0, 7, 119
2, 61825, Control_c, 0, 7, 118
2, 61840, Control_c, 0, 7, 117
2, 61855, Control_c, 0, 7, 96
2, 61856, Note_on_c, 0, 63, 0
2, 61915, Control_c, 0, 7, 94
2, 61934, Note_on_c, 0, 73, 127
2, 61938, Note_on_c, 0, 61, 127
2, 61939, Control_c, 0, 7, 93
2, 61959, Note_on_c, 0, 73, 0
2, 61959, Control_c, 0, 7, 92
2, 61964, Control_c, 0, 7, 91
2, 61981, Note_on_c, 0, 61, 0
2, 61992, Control_c, 0, 7, 89
2, 61992, Note_on_c, 0, 73, 127
2, 62007, Control_c, 0, 7, 87
2, 62014, Note_on_c, 0, 73, 0
2, 62014, Control_c, 0, 7, 86
2, 62023, Control_c, 0, 7, 82
2, 62033, Control_c, 0, 7, 80
2, 62049, Note_on_c, 0, 73, 127
2, 62050, Control_c, 0, 7, 79
2, 62065, Control_c, 0, 7, 75
2, 62070, Control_c, 0, 7, 73
2, 62072, Note_on_c, 0, 73, 0
2, 62083, Control_c, 0, 7, 72
2, 62098, Control_c, 0, 7, 68
2, 62108, Note_on_c, 0, 73, 127
2, 62113, Control_c, 0, 7, 66
2, 62131, Control_c, 0, 7, 65
2, 62138, Note_on_c, 0, 73, 0
2, 62158, Control_c, 0, 7, 64
2, 62171, Note_on_c, 0, 68, 127
2, 62227, Note_on_c, 0, 68, 0
2, 62285, Note_on_c, 0, 68, 127
2, 62314, Note_on_c, 0, 68, 0
2, 62347, Note_on_c, 0, 69, 124
2, 62392, Note_on_c, 0, 69, 0
2, 62570, Control_c, 0, 7, 66
2, 62592, Note_on_c, 0, 68, 127
2, 62607, Control_c, 0, 7, 65
2, 62618, Note_on_c, 0, 68, 0
2, 62655, Note_on_c, 0, 69, 99
2, 62686, Note_on_c, 0, 69, 0
2, 62770, Note_on_c, 0, 71, 127
2, 62798, Control_c, 0, 7, 66
2, 62808, Control_c, 0, 7, 67
2, 62817, Note_on_c, 0, 71, 0
2, 62817, Control_c, 0, 7, 71
2, 62827, Control_c, 0, 7, 73
2, 62838, Control_c, 0, 7, 74
2, 62874, Control_c, 0, 7, 75
2, 62899, Note_on_c, 0, 68, 127
2, 62920, Note_on_c, 0, 68, 0
2, 62953, Note_on_c, 0, 68, 119
2, 62976, Note_on_c, 0, 68, 0
2, 63013, Note_on_c, 0, 68, 127
2, 63037, Note_on_c, 0, 68, 0
2, 63071, Note_on_c, 0, 68, 124
2, 63094, Note_on_c, 0, 68, 0
2, 63135, Note_on_c, 0, 68, 127
2, 63155, Note_on_c, 0, 68, 0
2, 63165, Control_c, 0, 7, 73
2, 63175, Control_c, 0, 7, 72
2, 63195, Note_on_c, 0, 68, 127
2, 63215, Note_on_c, 0, 68, 0
2, 63256, Note_on_c, 0, 68, 127
2, 63301, Note_on_c, 0, 68, 0
2, 63368, Note_on_c, 0, 69, 127
2, 63415, Note_on_c, 0, 69, 0
2, 63430, Control_c, 0, 7, 71
2, 63480, Control_c, 0, 7, 70
2, 63550, Control_c, 0, 7, 68
2, 63585, Control_c, 0, 7, 66
2, 63655, Control_c, 0, 7, 65
2, 63681, Note_on_c, 0, 68, 127
2, 63703, Note_on_c, 0, 68, 0
2, 63739, Note_on_c, 0, 68, 127
2, 63749, Control_c, 0, 7, 64
2, 63765, Note_on_c, 0, 68, 0
2, 63795, Note_on_c, 0, 68, 127
2, 63822, Note_on_c, 0, 68, 0
2, 63852, Note_on_c, 0, 73, 127
2, 63875, Note_on_c, 0, 73, 0
2, 63895, Control_c, 0, 7, 63
2, 63908, Note_on_c, 0, 73, 127
2, 63933, Note_on_c, 0, 73, 0
2, 63968, Note_on_c, 0, 73, 127
2, 63993, Note_on_c, 0, 73, 0
2, 64030, Control_c, 0, 7, 61
2, 64030, Note_on_c, 0, 73, 127
2, 64055, Note_on_c, 0, 73, 0
2, 64087, Note_on_c, 0, 68, 127
2, 64105, Note_on_c, 0, 68, 0
2, 64117, Control_c, 0, 7, 60
2, 64147, Note_on_c, 0, 68, 127
2, 64169, Note_on_c, 0, 68, 0
2, 64206, Note_on_c, 0, 68, 127
2, 64231, Note_on_c, 0, 68, 0
2, 64270, Note_on_c, 0, 69, 124
2, 64310, Note_on_c, 0, 69, 0
2, 64520, Note_on_c, 0, 68, 127
2, 64544, Note_on_c, 0, 68, 0
2, 64579, Note_on_c, 0, 69, 102
2, 64618, Note_on_c, 0, 69, 0
2, 64694, Note_on_c, 0, 71, 127
2, 64729, Note_on_c, 0, 71, 0
2, 64809, Note_on_c, 0, 68, 127
2, 64834, Note_on_c, 0, 68, 0
2, 64865, Note_on_c, 0, 68, 115
2, 64892, Note_on_c, 0, 68, 0
2, 64923, Note_on_c, 0, 68, 127
2, 64947, Note_on_c, 0, 68, 0
2, 64982, Note_on_c, 0, 68, 127
2, 65007, Note_on_c, 0, 68, 0
2, 65048, Note_on_c, 0, 68, 127
2, 65079, Note_on_c, 0, 68, 0
2, 65166, Note_on_c, 0, 68, 127
2, 65198, Note_on_c, 0, 68, 0
2, 65283, Note_on_c, 0, 68, 127
2, 65320, Note_on_c, 0, 68, 0
2, 65407, Note_on_c, 0, 66, 127
2, 65442, Note_on_c, 0, 66, 0
2, 65525, Note_on_c, 0, 64, 127
2, 65566, Note_on_c, 0, 64, 0
2, 65649, Note_on_c, 0, 63, 127
2, 65696, Note_on_c, 0, 63, 0
2, 65778, Note_on_c, 0, 61, 127
2, 65821, Note_on_c, 0, 61, 0
2, 73561, Note_on_c, 0, 68, 127
2, 73582, Note_on_c, 0, 68, 0
2, 73622, Note_on_c, 0, 68, 127
2, 73638, Note_on_c, 0, 68, 0
2, 73684, Note_on_c, 0, 68, 127
2, 73704, Note_on_c, 0, 68, 0
2, 73809, Note_on_c, 0, 68, 127
2, 73836, Note_on_c, 0, 68, 0
2, 73925, Note_on_c, 0, 68, 127
2, 73958, Note_on_c, 0, 68, 0
2, 74049, Note_on_c, 0, 66, 127
2, 74075, Note_on_c, 0, 66, 0
2, 74167, Note_on_c, 0, 64, 127
2, 74204, Note_on_c, 0, 64, 0
2, 74288, Note_on_c, 0, 63, 127
2, 74328, Note_on_c, 0, 63, 0
2, 74404, Note_on_c, 0, 68, 127
2, 74439, Note_on_c, 0, 68, 0
2, 74523, Note_on_c, 0, 68, 127
2, 74547, Note_on_c, 0, 68, 0
2, 74590, Note_on_c, 0, 68, 127
2, 74613, Note_on_c, 0, 68, 0
2, 74648, Note_on_c, 0, 68, 127
2, 74680, Note_on_c, 0, 68, 0
2, 74769, Note_on_c, 0, 68, 127
2, 74792, Note_on_c, 0, 68, 0
2, 74885, Note_on_c, 0, 68, 127
2, 74912, Note_on_c, 0, 68, 0
2, 75006, Note_on_c, 0, 66, 127
2, 75034, Note_on_c, 0, 66, 0
2, 75131, Note_on_c, 0, 64, 127
2, 75165, Note_on_c, 0, 64, 0
2, 75249, Note_on_c, 0, 63, 127
2, 75285, Note_on_c, 0, 63, 0
2, 75366, Note_on_c, 0, 73, 127
2, 75391, Note_on_c, 0, 73, 0
2, 75428, Note_on_c, 0, 73, 127
2, 75453, Note_on_c, 0, 73, 0
2, 75488, Note_on_c, 0, 73, 127
2, 75514, Note_on_c, 0, 73, 0
2, 75549, Note_on_c, 0, 73, 127
2, 75572, Note_on_c, 0, 73, 0
2, 75608, Note_on_c, 0, 68, 127
2, 75685, Note_on_c, 0, 68, 0
2, 75716, Note_on_c, 0, 68, 127
2, 75742, Note_on_c, 0, 68, 0
2, 75781, Note_on_c, 0, 69, 119
2, 75834, Note_on_c, 0, 69, 0
2, 76013, Note_on_c, 0, 68, 127
2, 76066, Note_on_c, 0, 68, 0
2, 76088, Note_on_c, 0, 69, 127
2, 76131, Note_on_c, 0, 69, 0
2, 76201, Note_on_c, 0, 71, 127
2, 76237, Note_on_c, 0, 71, 0
2, 76320, Note_on_c, 0, 68, 127
2, 76341, Note_on_c, 0, 68, 0
2, 76381, Note_on_c, 0, 68, 119
2, 76402, Note_on_c, 0, 68, 0
2, 76442, Note_on_c, 0, 68, 127
2, 76463, Note_on_c, 0, 68, 0
2, 76505, Note_on_c, 0, 68, 127
2, 76523, Note_on_c, 0, 68, 0
2, 76563, Note_on_c, 0, 68, 127
2, 76583, Note_on_c, 0, 68, 0
2, 76624, Note_on_c, 0, 68, 127
2, 76643, Note_on_c, 0, 68, 0
2, 76679, Note_on_c, 0, 68, 127
2, 76712, Note_on_c, 0, 68, 0
2, 76792, Note_on_c, 0, 69, 127
2, 76843, Note_on_c, 0, 69, 0
2, 77104, Note_on_c, 0, 68, 127
2, 77123, Note_on_c, 0, 68, 0
2, 77170, Note_on_c, 0, 68, 127
2, 77222, Note_on_c, 0, 68, 0
2, 77281, Note_on_c, 0, 73, 127
2, 77302, Note_on_c, 0, 73, 0
2, 77339, Note_on_c, 0, 73, 127
2, 77364, Note_on_c, 0, 73, 0
2, 77401, Note_on_c, 0, 73, 112
2, 77423, Note_on_c, 0, 73, 0
2, 77455, Note_on_c, 0, 73, 112
2, 77473, Note_on_c, 0, 73, 0
2, 77526, Note_on_c, 0, 68, 127
2, 77593, Note_on_c, 0, 68, 0
2, 77635, Note_on_c, 0, 68, 127
2, 77673, Note_on_c, 0, 68, 0
2, 77702, Note_on_c, 0, 69, 124
2, 77752, Note_on_c, 0, 69, 0
2, 77949, Note_on_c, 0, 68, 127
2, 77974, Note_on_c, 0, 68, 0
2, 78010, Note_on_c, 0, 69, 115
2, 78045, Note_on_c, 0, 69, 0
2, 78125, Note_on_c, 0, 71, 127
2, 78156, Note_on_c, 0, 71, 0
2, 78245, Note_on_c, 0, 68, 127
2, 78269, Note_on_c, 0, 68, 0
2, 78307, Note_on_c, 0, 68, 112
2, 78327, Note_on_c, 0, 68, 0
2, 78364, Note_on_c, 0, 68, 124
2, 78389, Note_on_c, 0, 68, 0
2, 78425, Note_on_c, 0, 68, 127
2, 78451, Note_on_c, 0, 68, 0
2, 78487, Note_on_c, 0, 68, 115
2, 78509, Note_on_c, 0, 68, 0
2, 78604, Note_on_c, 0, 68, 127
2, 78624, Note_on_c, 0, 68, 0
2, 78730, Note_on_c, 0, 68, 127
2, 78758, Note_on_c, 0, 68, 0
2, 79079, Note_on_c, 0, 68, 127
2, 79101, Note_on_c, 0, 68, 0
2, 79205, Note_on_c, 0, 73, 127
2, 79229, Note_on_c, 0, 73, 0
2, 79268, Note_on_c, 0, 73, 127
2, 79290, Note_on_c, 0, 73, 0
2, 79322, Note_on_c, 0, 73, 127
2, 79348, Note_on_c, 0, 73, 0
2, 79383, Note_on_c, 0, 73, 127
2, 79404, Note_on_c, 0, 73, 0
2, 79454, Note_on_c, 0, 68, 127
2, 79512, Note_on_c, 0, 68, 0
2, 79556, Note_on_c, 0, 68, 115
2, 79591, Note_on_c, 0, 68, 0
2, 79624, Note_on_c, 0, 69, 127
2, 79671, Note_on_c, 0, 69, 0
2, 79872, Note_on_c, 0, 68, 127
2, 79912, Note_on_c, 0, 68, 0
2, 79930, Note_on_c, 0, 69, 115
2, 79966, Note_on_c, 0, 69, 0
2, 80039, Note_on_c, 0, 71, 127
2, 80069, Note_on_c, 0, 71, 0
2, 80164, Note_on_c, 0, 68, 127
2, 80189, Note_on_c, 0, 68, 0
2, 80223, Note_on_c, 0, 68, 127
2, 80247, Note_on_c, 0, 68, 0
2, 80283, Note_on_c, 0, 68, 127
2, 80304, Note_on_c, 0, 68, 0
2, 80339, Note_on_c, 0, 68, 127
2, 80363, Note_on_c, 0, 68, 0
2, 80401, Note_on_c, 0, 68, 127
2, 80422, Note_on_c, 0, 68, 0
2, 80462, Note_on_c, 0, 68, 127
2, 80479, Note_on_c, 0, 68, 0
2, 80527, Note_on_c, 0, 68, 127
2, 80586, Note_on_c, 0, 68, 0
2, 80645, Note_on_c, 0, 69, 127
2, 80686, Note_on_c, 0, 69, 0
2, 80951, Note_on_c, 0, 68, 127
2, 80970, Note_on_c, 0, 68, 0
2, 81011, Note_on_c, 0, 68, 127
2, 81033, Note_on_c, 0, 68, 0
2, 81067, Note_on_c, 0, 68, 119
2, 81084, Note_on_c, 0, 68, 0
2, 81126, Note_on_c, 0, 73, 124
2, 81149, Note_on_c, 0, 73, 0
2, 81182, Note_on_c, 0, 73, 112
2, 81207, Note_on_c, 0, 73, 0
2, 81243, Note_on_c, 0, 73, 127
2, 81267, Note_on_c, 0, 73, 0
2, 81301, Note_on_c, 0, 73, 115
2, 81324, Note_on_c, 0, 73, 0
2, 81362, Note_on_c, 0, 68, 127
2, 81384, Note_on_c, 0, 68, 0
2, 81422, Note_on_c, 0, 68, 124
2, 81443, Note_on_c, 0, 68, 0
2, 81482, Note_on_c, 0, 68, 127
2, 81511, Note_on_c, 0, 68, 0
2, 81542, Note_on_c, 0, 69, 127
2, 81577, Note_on_c, 0, 69, 0
2, 81788, Note_on_c, 0, 68, 127
2, 81814, Note_on_c, 0, 68, 0
2, 81841, Note_on_c, 0, 69, 127
2, 81876, Note_on_c, 0, 69, 0
2, 81958, Note_on_c, 0, 71, 127
2, 81983, Note_on_c, 0, 71, 0
2, 82080, Note_on_c, 0, 68, 127
2, 82097, Note_on_c, 0, 68, 0
2, 82139, Note_on_c, 0, 68, 127
2, 82156, Note_on_c, 0, 68, 0
2, 82199, Note_on_c, 0, 68, 127
2, 82217, Note_on_c, 0, 68, 0
2, 82260, Note_on_c, 0, 68, 119
2, 82274, Note_on_c, 0, 68, 0
2, 82319, Note_on_c, 0, 68, 127
2, 82342, Note_on_c, 0, 68, 0
2, 82439, Note_on_c, 0, 68, 127
2, 82460, Note_on_c, 0, 68, 0
2, 82561, Note_on_c, 0, 68, 127
2, 82586, Note_on_c, 0, 68, 0
2, 82677, Note_on_c, 0, 66, 127
2, 82704, Note_on_c, 0, 66, 0
2, 82791, Note_on_c, 0, 64, 127
2, 82822, Note_on_c, 0, 64, 0
2, 82920, Note_on_c, 0, 61, 100
2, 83040, Note_on_c, 0, 61, 0
2, 83040, End_track
3, 0, Start_track
3, 0, MIDI_port, 0
3, 0, Title_t, "Performed By:      (Vocal)"
3, 0, Control_c, 1, 0, 0
3, 0, Control_c, 1, 32, 0
3, 0, Program_c, 1, 85
3, 483, Note_on_c, 1, 61, 127
3, 515, Note_on_c, 1, 61, 0
3, 543, Note_on_c, 1, 61, 124
3, 569, Note_on_c, 1, 61, 0
3, 601, Note_on_c, 1, 61, 127
3, 629, Note_on_c, 1, 61, 0
3, 657, Note_on_c, 1, 61, 115
3, 682, Note_on_c, 1, 61, 0
3, 724, Note_on_c, 1, 56, 127
3, 805, Note_on_c, 1, 56, 0
3, 840, Note_on_c, 1, 56, 127
3, 878, Note_on_c, 1, 56, 0
3, 901, Note_on_c, 1, 57, 127
3, 955, Note_on_c, 1, 57, 0
3, 1143, Note_on_c, 1, 56, 127
3, 1179, Note_on_c, 1, 56, 0
3, 1197, Note_on_c, 1, 57, 127
3, 1228, Note_on_c, 1, 57, 0
3, 1254, Note_on_c, 1, 57, 108
3, 1284, Note_on_c, 1, 57, 0
3, 1321, Note_on_c, 1, 59, 127
3, 1349, Note_on_c, 1, 59, 0
3, 1384, Note_on_c, 1, 59, 127
3, 1405, Note_on_c, 1, 59, 0
3, 1446, Note_on_c, 1, 56, 127
3, 1468, Note_on_c, 1, 56, 0
3, 1500, Note_on_c, 1, 56, 127
3, 1526, Note_on_c, 1, 56, 0
3, 1560, Note_on_c, 1, 56, 127
3, 1586, Note_on_c, 1, 56, 0
3, 1614, Note_on_c, 1, 56, 127
3, 1642, Note_on_c, 1, 56, 0
3, 1676, Note_on_c, 1, 56, 127
3, 1704, Note_on_c, 1, 56, 0
3, 1737, Note_on_c, 1, 56, 127
3, 1765, Note_on_c, 1, 56, 0
3, 1801, Note_on_c, 1, 56, 127
3, 1843, Note_on_c, 1, 56, 0
3, 1918, Note_on_c, 1, 57, 127
3, 1975, Note_on_c, 1, 57, 0
3, 2223, Note_on_c, 1, 56, 127
3, 2250, Note_on_c, 1, 56, 0
3, 2277, Note_on_c, 1, 56, 127
3, 2310, Note_on_c, 1, 56, 0
3, 2340, Note_on_c, 1, 56, 124
3, 2365, Note_on_c, 1, 56, 0
3, 2394, Note_on_c, 1, 61, 127
3, 2420, Note_on_c, 1, 61, 0
3, 2453, Note_on_c, 1, 61, 127
3, 2480, Note_on_c, 1, 61, 0
3, 2516, Note_on_c, 1, 61, 127
3, 2541, Note_on_c, 1, 61, 0
3, 2569, Note_on_c, 1, 61, 127
3, 2596, Note_on_c, 1, 61, 0
3, 2636, Note_on_c, 1, 56, 127
3, 2663, Note_on_c, 1, 56, 0
3, 2699, Note_on_c, 1, 56, 127
3, 2724, Note_on_c, 1, 56, 0
3, 2751, Note_on_c, 1, 56, 112
3, 2786, Note_on_c, 1, 56, 0
3, 2813, Note_on_c, 1, 57, 127
3, 2863, Note_on_c, 1, 57, 0
3, 3057, Note_on_c, 1, 56, 127
3, 3096, Note_on_c, 1, 56, 0
3, 3116, Note_on_c, 1, 57, 127
3, 3145, Note_on_c, 1, 57, 0
3, 3177, Note_on_c, 1, 57, 105
3, 3208, Note_on_c, 1, 57, 0
3, 3238, Note_on_c, 1, 59, 127
3, 3266, Note_on_c, 1, 59, 0
3, 3295, Note_on_c, 1, 59, 119
3, 3321, Note_on_c, 1, 59, 0
3, 3360, Note_on_c, 1, 56, 127
3, 3388, Note_on_c, 1, 56, 0
3, 3419, Note_on_c, 1, 56, 127
3, 3445, Note_on_c, 1, 56, 0
3, 3480, Note_on_c, 1, 56, 127
3, 3508, Note_on_c, 1, 56, 0
3, 3540, Note_on_c, 1, 56, 127
3, 3566, Note_on_c, 1, 56, 0
3, 3597, Note_on_c, 1, 56, 127
3, 3627, Note_on_c, 1, 56, 0
3, 3716, Note_on_c, 1, 56, 127
3, 3750, Note_on_c, 1, 56, 0
3, 3840, Note_on_c, 1, 56, 127
3, 3874, Note_on_c, 1, 56, 0
3, 3953, Note_on_c, 1, 54, 127
3, 3995, Note_on_c, 1, 54, 0
3, 4074, Note_on_c, 1, 52, 127
3, 4122, Note_on_c, 1, 52, 0
3, 4195, Note_on_c, 1, 51, 127
3, 4246, Note_on_c, 1, 51, 0
3, 4322, Note_on_c, 1, 61, 127
3, 4390, Note_on_c, 1, 61, 0
3, 4448, Note_on_c, 1, 61, 127
3, 4477, Note_on_c, 1, 61, 0
3, 4503, Note_on_c, 1, 61, 127
3, 4529, Note_on_c, 1, 61, 0
3, 4564, Note_on_c, 1, 61, 127
3, 4593, Note_on_c, 1, 61, 0
3, 4625, Note_on_c, 1, 61, 127
3, 4651, Note_on_c, 1, 61, 0
3, 4684, Note_on_c, 1, 61, 127
3, 4770, Note_on_c, 1, 61, 0
3, 4800, Note_on_c, 1, 64, 127
3, 4830, Note_on_c, 1, 64, 0
3, 4860, Note_on_c, 1, 64, 124
3, 4888, Note_on_c, 1, 64, 0
3, 4921, Note_on_c, 1, 64, 127
3, 4949, Note_on_c, 1, 64, 0
3, 4982, Note_on_c, 1, 64, 127
3, 5009, Note_on_c, 1, 64, 0
3, 5046, Note_on_c, 1, 64, 127
3, 5072, Note_on_c, 1, 64, 0
3, 5106, Note_on_c, 1, 64, 127
3, 5130, Note_on_c, 1, 64, 0
3, 5163, Note_on_c, 1, 64, 127
3, 5249, Note_on_c, 1, 64, 0
3, 5284, Note_on_c, 1, 68, 127
3, 5312, Note_on_c, 1, 68, 0
3, 5340, Note_on_c, 1, 68, 127
3, 5369, Note_on_c, 1, 68, 0
3, 5400, Note_on_c, 1, 68, 127
3, 5425, Note_on_c, 1, 68, 0
3, 5460, Note_on_c, 1, 68, 127
3, 5487, Note_on_c, 1, 68, 0
3, 5523, Note_on_c, 1, 68, 127
3, 5549, Note_on_c, 1, 68, 0
3, 5581, Note_on_c, 1, 68, 127
3, 5611, Note_on_c, 1, 68, 0
3, 5643, Note_on_c, 1, 68, 127
3, 5728, Note_on_c, 1, 68, 0
3, 5763, Note_on_c, 1, 68, 127
3, 5788, Note_on_c, 1, 68, 0
3, 5824, Note_on_c, 1, 68, 127
3, 5848, Note_on_c, 1, 68, 0
3, 5885, Note_on_c, 1, 68, 127
3, 5911, Note_on_c, 1, 68, 0
3, 5947, Note_on_c, 1, 68, 127
3, 5970, Note_on_c, 1, 68, 0
3, 6002, Note_on_c, 1, 68, 127
3, 6088, Note_on_c, 1, 68, 0
3, 6124, Note_on_c, 1, 68, 127
3, 6224, Note_on_c, 1, 68, 0
3, 6246, Note_on_c, 1, 63, 127
3, 6327, Note_on_c, 1, 63, 0
3, 6363, Note_on_c, 1, 63, 127
3, 6388, Note_on_c, 1, 63, 0
3, 6422, Note_on_c, 1, 63, 127
3, 6448, Note_on_c, 1, 63, 0
3, 6482, Note_on_c, 1, 63, 127
3, 6511, Note_on_c, 1, 63, 0
3, 6545, Note_on_c, 1, 63, 127
3, 6571, Note_on_c, 1, 63, 0
3, 6604, Note_on_c, 1, 63, 127
3, 6630, Note_on_c, 1, 63, 0
3, 6663, Note_on_c, 1, 63, 127
3, 6688, Note_on_c, 1, 63, 0
3, 6723, Note_on_c, 1, 63, 127
3, 6749, Note_on_c, 1, 63, 0
3, 6784, Note_on_c, 1, 63, 127
3, 6819, Note_on_c, 1, 63, 0
3, 6845, Note_on_c, 1, 66, 127
3, 6879, Note_on_c, 1, 66, 0
3, 6905, Note_on_c, 1, 63, 124
3, 6951, Note_on_c, 1, 63, 0
3, 6968, Note_on_c, 1, 66, 127
3, 7002, Note_on_c, 1, 66, 0
3, 7026, Note_on_c, 1, 63, 94
3, 7070, Note_on_c, 1, 63, 0
3, 7091, Note_on_c, 1, 66, 127
3, 7124, Note_on_c, 1, 66, 0
3, 7141, Note_on_c, 1, 63, 124
3, 7191, Note_on_c, 1, 63, 0
3, 7315, Note_on_c, 1, 63, 127
3, 7339, Note_on_c, 1, 63, 0
3, 7378, Note_on_c, 1, 63, 127
3, 7402, Note_on_c, 1, 63, 0
3, 7440, Note_on_c, 1, 63, 127
3, 7464, Note_on_c, 1, 63, 0
3, 7504, Note_on_c, 1, 63, 127
3, 7524, Note_on_c, 1, 63, 0
3, 7557, Note_on_c, 1, 63, 127
3, 7557, Note_on_c, 1, 64, 124
3, 7575, Note_on_c, 1, 64, 0
3, 7649, Note_on_c, 1, 63, 0
3, 7680, Note_on_c, 1, 63, 127
3, 7703, Note_on_c, 1, 63, 0
3, 7734, Note_on_c, 1, 63, 127
3, 7767, Note_on_c, 1, 63, 0
3, 7803, Note_on_c, 1, 66, 127
3, 7830, Note_on_c, 1, 66, 0
3, 7860, Note_on_c, 1, 63, 127
3, 7899, Note_on_c, 1, 63, 0
3, 7929, Note_on_c, 1, 66, 127
3, 7953, Note_on_c, 1, 66, 0
3, 7984, Note_on_c, 1, 63, 124
3, 8015, Note_on_c, 1, 63, 0
3, 8044, Note_on_c, 1, 66, 127
3, 8069, Note_on_c, 1, 66, 0
3, 8098, Note_on_c, 1, 63, 127
3, 8140, Note_on_c, 1, 63, 0
3, 8280, Note_on_c, 1, 63, 127
3, 8362, Note_on_c, 1, 63, 0
3, 8398, Note_on_c, 1, 63, 127
3, 8472, Note_on_c, 1, 63, 0
3, 8517, Note_on_c, 1, 63, 127
3, 8539, Note_on_c, 1, 63, 0
3, 8575, Note_on_c, 1, 63, 127
3, 8603, Note_on_c, 1, 63, 0
3, 8641, Note_on_c, 1, 63, 127
3, 8725, Note_on_c, 1, 63, 0
3, 8757, Note_on_c, 1, 63, 108
3, 8778, Note_on_c, 1, 63, 0
3, 8818, Note_on_c, 1, 63, 127
3, 8963, Note_on_c, 1, 63, 0
3, 9000, Note_on_c, 1, 63, 127
3, 9113, Note_on_c, 1, 63, 0
3, 9238, Note_on_c, 1, 63, 127
3, 9259, Note_on_c, 1, 63, 0
3, 9297, Note_on_c, 1, 63, 127
3, 9320, Note_on_c, 1, 63, 0
3, 9359, Note_on_c, 1, 63, 127
3, 9446, Note_on_c, 1, 63, 0
3, 9482, Note_on_c, 1, 63, 127
3, 9505, Note_on_c, 1, 63, 0
3, 9540, Note_on_c, 1, 63, 127
3, 9566, Note_on_c, 1, 63, 0
3, 9602, Note_on_c, 1, 63, 127
3, 9683, Note_on_c, 1, 63, 0
3, 9724, Note_on_c, 1, 63, 127
3, 9747, Note_on_c, 1, 63, 0
3, 9780, Note_on_c, 1, 63, 127
3, 9803, Note_on_c, 1, 63, 0
3, 9838, Note_on_c, 1, 63, 127
3, 9864, Note_on_c, 1, 63, 0
3, 9891, Note_on_c, 1, 63, 99
3, 9917, Note_on_c, 1, 63, 0
3, 9955, Note_on_c, 1, 63, 127
3, 10055, Note_on_c, 1, 63, 0
3, 10210, Note_on_c, 1, 63, 115
3, 10301, Note_on_c, 1, 63, 0
3, 10324, Note_on_c, 1, 56, 127
3, 10415, Note_on_c, 1, 56, 0
3, 10446, Note_on_c, 1, 56, 115
3, 10474, Note_on_c, 1, 56, 0
3, 10503, Note_on_c, 1, 56, 97
3, 10541, Note_on_c, 1, 56, 0
3, 10565, Note_on_c, 1, 63, 105
3, 10645, Note_on_c, 1, 63, 0
3, 10680, Note_on_c, 1, 63, 127
3, 10786, Note_on_c, 1, 63, 0
3, 10804, Note_on_c, 1, 56, 127
3, 10887, Note_on_c, 1, 56, 0
3, 10923, Note_on_c, 1, 56, 127
3, 10952, Note_on_c, 1, 56, 0
3, 10982, Note_on_c, 1, 56, 127
3, 11022, Note_on_c, 1, 56, 0
3, 11167, Note_on_c, 1, 63, 127
3, 11267, Note_on_c, 1, 63, 0
3, 11285, Note_on_c, 1, 56, 127
3, 11366, Note_on_c, 1, 56, 0
3, 11402, Note_on_c, 1, 56, 124
3, 11427, Note_on_c, 1, 56, 0
3, 11462, Note_on_c, 1, 56, 119
3, 11495, Note_on_c, 1, 56, 0
3, 11526, Note_on_c, 1, 63, 127
3, 11606, Note_on_c, 1, 63, 0
3, 11643, Note_on_c, 1, 63, 108
3, 11670, Note_on_c, 1, 63, 0
3, 11697, Note_on_c, 1, 56, 127
3, 11843, Note_on_c, 1, 56, 0
3, 11880, Note_on_c, 1, 56, 127
3, 11931, Note_on_c, 1, 56, 0
3, 12122, Note_on_c, 1, 63, 127
3, 12208, Note_on_c, 1, 63, 0
3, 12247, Note_on_c, 1, 63, 127
3, 12319, Note_on_c, 1, 63, 0
3, 12355, Note_on_c, 1, 63, 115
3, 12386, Note_on_c, 1, 63, 0
3, 12417, Note_on_c, 1, 63, 119
3, 12446, Note_on_c, 1, 63, 0
3, 12477, Note_on_c, 1, 63, 127
3, 12570, Note_on_c, 1, 63, 0
3, 12599, Note_on_c, 1, 66, 108
3, 12646, Note_on_c, 1, 66, 0
3, 12655, Note_on_c, 1, 63, 115
3, 12694, Note_on_c, 1, 63, 0
3, 12723, Note_on_c, 1, 66, 127
3, 12771, Note_on_c, 1, 66, 0
3, 12786, Note_on_c, 1, 63, 127
3, 12815, Note_on_c, 1, 63, 0
3, 12842, Note_on_c, 1, 66, 127
3, 12885, Note_on_c, 1, 66, 0
3, 12900, Note_on_c, 1, 63, 127
3, 12946, Note_on_c, 1, 63, 0
3, 13078, Note_on_c, 1, 63, 127
3, 13100, Note_on_c, 1, 63, 0
3, 13134, Note_on_c, 1, 63, 119
3, 13162, Note_on_c, 1, 63, 0
3, 13199, Note_on_c, 1, 63, 127
3, 13278, Note_on_c, 1, 63, 0
3, 13316, Note_on_c, 1, 63, 127
3, 13343, Note_on_c, 1, 63, 0
3, 13379, Note_on_c, 1, 63, 127
3, 13406, Note_on_c, 1, 63, 0
3, 13438, Note_on_c, 1, 63, 127
3, 13469, Note_on_c, 1, 63, 0
3, 13500, Note_on_c, 1, 63, 112
3, 13530, Note_on_c, 1, 63, 0
3, 13556, Note_on_c, 1, 66, 127
3, 13602, Note_on_c, 1, 66, 0
3, 13618, Note_on_c, 1, 63, 112
3, 13651, Note_on_c, 1, 63, 0
3, 13683, Note_on_c, 1, 66, 127
3, 13733, Note_on_c, 1, 66, 0
3, 13744, Note_on_c, 1, 63, 124
3, 13777, Note_on_c, 1, 63, 0
3, 13804, Note_on_c, 1, 66, 124
3, 13845, Note_on_c, 1, 66, 0
3, 13859, Note_on_c, 1, 63, 119
3, 13888, Note_on_c, 1, 63, 0
3, 13929, Note_on_c, 1, 61, 127
3, 14002, Note_on_c, 1, 61, 0
3, 14041, Note_on_c, 1, 61, 127
3, 14067, Note_on_c, 1, 61, 0
3, 14100, Note_on_c, 1, 61, 127
3, 14125, Note_on_c, 1, 61, 0
3, 14159, Note_on_c, 1, 61, 127
3, 14185, Note_on_c, 1, 61, 0
3, 14219, Note_on_c, 1, 61, 119
3, 14242, Note_on_c, 1, 61, 0
3, 14277, Note_on_c, 1, 61, 127
3, 14283, Note_on_c, 1, 64, 119
3, 14291, Note_on_c, 1, 64, 0
3, 14373, Note_on_c, 1, 61, 0
3, 14403, Note_on_c, 1, 64, 127
3, 14488, Note_on_c, 1, 64, 0
3, 14520, Note_on_c, 1, 64, 127
3, 14548, Note_on_c, 1, 64, 0
3, 14579, Note_on_c, 1, 64, 127
3, 14607, Note_on_c, 1, 64, 0
3, 14642, Note_on_c, 1, 64, 119
3, 14672, Note_on_c, 1, 64, 0
3, 14703, Note_on_c, 1, 64, 115
3, 14729, Note_on_c, 1, 64, 0
3, 14761, Note_on_c, 1, 64, 127
3, 14847, Note_on_c, 1, 64, 0
3, 14878, Note_on_c, 1, 68, 127
3, 14906, Note_on_c, 1, 68, 0
3, 14938, Note_on_c, 1, 68, 127
3, 14967, Note_on_c, 1, 68, 0
3, 14999, Note_on_c, 1, 68, 127
3, 15027, Note_on_c, 1, 68, 0
3, 15059, Note_on_c, 1, 68, 127
3, 15088, Note_on_c, 1, 68, 0
3, 15125, Note_on_c, 1, 68, 127
3, 15150, Note_on_c, 1, 68, 0
3, 15185, Note_on_c, 1, 68, 127
3, 15211, Note_on_c, 1, 68, 0
3, 15244, Note_on_c, 1, 68, 127
3, 15328, Note_on_c, 1, 68, 0
3, 15363, Note_on_c, 1, 68, 127
3, 15388, Note_on_c, 1, 68, 0
3, 15420, Note_on_c, 1, 68, 127
3, 15444, Note_on_c, 1, 68, 0
3, 15480, Note_on_c, 1, 68, 127
3, 15506, Note_on_c, 1, 68, 0
3, 15541, Note_on_c, 1, 68, 127
3, 15563, Note_on_c, 1, 68, 0
3, 15607, Note_on_c, 1, 68, 127
3, 15685, Note_on_c, 1, 68, 0
3, 15727, Note_on_c, 1, 68, 127
3, 15828, Note_on_c, 1, 68, 0
3, 15840, Note_on_c, 1, 61, 127
3, 15872, Note_on_c, 1, 61, 0
3, 15900, Note_on_c, 1, 61, 124
3, 15926, Note_on_c, 1, 61, 0
3, 15958, Note_on_c, 1, 61, 127
3, 15986, Note_on_c, 1, 61, 0
3, 16014, Note_on_c, 1, 61, 115
3, 16039, Note_on_c, 1, 61, 0
3, 16081, Note_on_c, 1, 56, 127
3, 16162, Note_on_c, 1, 56, 0
3, 16197, Note_on_c, 1, 56, 127
3, 16235, Note_on_c, 1, 56, 0
3, 16258, Note_on_c, 1, 57, 127
3, 16312, Note_on_c, 1, 57, 0
3, 16500, Note_on_c, 1, 56, 127
3, 16536, Note_on_c, 1, 56, 0
3, 16554, Note_on_c, 1, 57, 127
3, 16585, Note_on_c, 1, 57, 0
3, 16611, Note_on_c, 1, 57, 108
3, 16641, Note_on_c, 1, 57, 0
3, 16678, Note_on_c, 1, 59, 127
3, 16706, Note_on_c, 1, 59, 0
3, 16741, Note_on_c, 1, 59, 127
3, 16762, Note_on_c, 1, 59, 0
3, 16803, Note_on_c, 1, 56, 127
3, 16825, Note_on_c, 1, 56, 0
3, 16857, Note_on_c, 1, 56, 127
3, 16883, Note_on_c, 1, 56, 0
3, 16917, Note_on_c, 1, 56, 127
3, 16943, Note_on_c, 1, 56, 0
3, 16971, Note_on_c, 1, 56, 127
3, 16999, Note_on_c, 1, 56, 0
3, 17033, Note_on_c, 1, 56, 127
3, 17061, Note_on_c, 1, 56, 0
3, 17094, Note_on_c, 1, 56, 127
3, 17122, Note_on_c, 1, 56, 0
3, 17158, Note_on_c, 1, 56, 127
3, 17200, Note_on_c, 1, 56, 0
3, 17275, Note_on_c, 1, 57, 127
3, 17332, Note_on_c, 1, 57, 0
3, 17580, Note_on_c, 1, 56, 127
3, 17607, Note_on_c, 1, 56, 0
3, 17634, Note_on_c, 1, 56, 127
3, 17667, Note_on_c, 1, 56, 0
3, 17697, Note_on_c, 1, 56, 124
3, 17722, Note_on_c, 1, 56, 0
3, 17751, Note_on_c, 1, 61, 127
3, 17777, Note_on_c, 1, 61, 0
3, 17810, Note_on_c, 1, 61, 127
3, 17837, Note_on_c, 1, 61, 0
3, 17873, Note_on_c, 1, 61, 127
3, 17898, Note_on_c, 1, 61, 0
3, 17926, Note_on_c, 1, 61, 127
3, 17953, Note_on_c, 1, 61, 0
3, 17993, Note_on_c, 1, 56, 127
3, 18020, Note_on_c, 1, 56, 0
3, 18056, Note_on_c, 1, 56, 127
3, 18081, Note_on_c, 1, 56, 0
3, 18108, Note_on_c, 1, 56, 112
3, 18143, Note_on_c, 1, 56, 0
3, 18170, Note_on_c, 1, 57, 127
3, 18220, Note_on_c, 1, 57, 0
3, 18414, Note_on_c, 1, 56, 127
3, 18453, Note_on_c, 1, 56, 0
3, 18473, Note_on_c, 1, 57, 127
3, 18502, Note_on_c, 1, 57, 0
3, 18534, Note_on_c, 1, 57, 105
3, 18565, Note_on_c, 1, 57, 0
3, 18595, Note_on_c, 1, 59, 127
3, 18623, Note_on_c, 1, 59, 0
3, 18652, Note_on_c, 1, 59, 119
3, 18678, Note_on_c, 1, 59, 0
3, 18717, Note_on_c, 1, 56, 127
3, 18745, Note_on_c, 1, 56, 0
3, 18776, Note_on_c, 1, 56, 127
3, 18802, Note_on_c, 1, 56, 0
3, 18837, Note_on_c, 1, 56, 127
3, 18865, Note_on_c, 1, 56, 0
3, 18897, Note_on_c, 1, 56, 127
3, 18923, Note_on_c, 1, 56, 0
3, 18954, Note_on_c, 1, 56, 127
3, 18984, Note_on_c, 1, 56, 0
3, 19073, Note_on_c, 1, 56, 127
3, 19107, Note_on_c, 1, 56, 0
3, 19197, Note_on_c, 1, 56, 127
3, 19231, Note_on_c, 1, 56, 0
3, 19310, Note_on_c, 1, 54, 127
3, 19352, Note_on_c, 1, 54, 0
3, 19431, Note_on_c, 1, 52, 127
3, 19479, Note_on_c, 1, 52, 0
3, 19552, Note_on_c, 1, 51, 127
3, 19603, Note_on_c, 1, 51, 0
3, 19680, Note_on_c, 1, 61, 127
3, 19712, Note_on_c, 1, 61, 0
3, 19740, Note_on_c, 1, 61, 124
3, 19766, Note_on_c, 1, 61, 0
3, 19798, Note_on_c, 1, 61, 127
3, 19826, Note_on_c, 1, 61, 0
3, 19854, Note_on_c, 1, 61, 115
3, 19879, Note_on_c, 1, 61, 0
3, 19921, Note_on_c, 1, 56, 127
3, 20002, Note_on_c, 1, 56, 0
3, 20037, Note_on_c, 1, 56, 127
3, 20075, Note_on_c, 1, 56, 0
3, 20098, Note_on_c, 1, 57, 127
3, 20152, Note_on_c, 1, 57, 0
3, 20340, Note_on_c, 1, 56, 127
3, 20376, Note_on_c, 1, 56, 0
3, 20394, Note_on_c, 1, 57, 127
3, 20425, Note_on_c, 1, 57, 0
3, 20451, Note_on_c, 1, 57, 108
3, 20481, Note_on_c, 1, 57, 0
3, 20518, Note_on_c, 1, 59, 127
3, 20546, Note_on_c, 1, 59, 0
3, 20581, Note_on_c, 1, 59, 127
3, 20602, Note_on_c, 1, 59, 0
3, 20643, Note_on_c, 1, 56, 127
3, 20665, Note_on_c, 1, 56, 0
3, 20697, Note_on_c, 1, 56, 127
3, 20723, Note_on_c, 1, 56, 0
3, 20757, Note_on_c, 1, 56, 127
3, 20783, Note_on_c, 1, 56, 0
3, 20811, Note_on_c, 1, 56, 127
3, 20839, Note_on_c, 1, 56, 0
3, 20873, Note_on_c, 1, 56, 127
3, 20901, Note_on_c, 1, 56, 0
3, 20934, Note_on_c, 1, 56, 127
3, 20962, Note_on_c, 1, 56, 0
3, 20998, Note_on_c, 1, 56, 127
3, 21040, Note_on_c, 1, 56, 0
3, 21115, Note_on_c, 1, 57, 127
3, 21172, Note_on_c, 1, 57, 0
3, 21420, Note_on_c, 1, 56, 127
3, 21447, Note_on_c, 1, 56, 0
3, 21474, Note_on_c, 1, 56, 127
3, 21507, Note_on_c, 1, 56, 0
3, 21537, Note_on_c, 1, 56, 124
3, 21562, Note_on_c, 1, 56, 0
3, 21591, Note_on_c, 1, 61, 127
3, 21617, Note_on_c, 1, 61, 0
3, 21650, Note_on_c, 1, 61, 127
3, 21677, Note_on_c, 1, 61, 0
3, 21713, Note_on_c, 1, 61, 127
3, 21738, Note_on_c, 1, 61, 0
3, 21766, Note_on_c, 1, 61, 127
3, 21793, Note_on_c, 1, 61, 0
3, 21833, Note_on_c, 1, 56, 127
3, 21860, Note_on_c, 1, 56, 0
3, 21896, Note_on_c, 1, 56, 127
3, 21921, Note_on_c, 1, 56, 0
3, 21948, Note_on_c, 1, 56, 112
3, 21983, Note_on_c, 1, 56, 0
3, 22010, Note_on_c, 1, 57, 127
3, 22060, Note_on_c, 1, 57, 0
3, 22254, Note_on_c, 1, 56, 127
3, 22293, Note_on_c, 1, 56, 0
3, 22313, Note_on_c, 1, 57, 127
3, 22342, Note_on_c, 1, 57, 0
3, 22374, Note_on_c, 1, 57, 105
3, 22405, Note_on_c, 1, 57, 0
3, 22435, Note_on_c, 1, 59, 127
3, 22463, Note_on_c, 1, 59, 0
3, 22492, Note_on_c, 1, 59, 119
3, 22518, Note_on_c, 1, 59, 0
3, 22557, Note_on_c, 1, 56, 127
3, 22585, Note_on_c, 1, 56, 0
3, 22616, Note_on_c, 1, 56, 127
3, 22642, Note_on_c, 1, 56, 0
3, 22677, Note_on_c, 1, 56, 127
3, 22705, Note_on_c, 1, 56, 0
3, 22737, Note_on_c, 1, 56, 127
3, 22763, Note_on_c, 1, 56, 0
3, 22794, Note_on_c, 1, 56, 127
3, 22824, Note_on_c, 1, 56, 0
3, 22913, Note_on_c, 1, 56, 127
3, 22947, Note_on_c, 1, 56, 0
3, 23037, Note_on_c, 1, 56, 127
3, 23071, Note_on_c, 1, 56, 0
3, 23150, Note_on_c, 1, 54, 127
3, 23192, Note_on_c, 1, 54, 0
3, 23271, Note_on_c, 1, 52, 127
3, 23319, Note_on_c, 1, 52, 0
3, 23392, Note_on_c, 1, 51, 127
3, 23443, Note_on_c, 1, 51, 0
3, 23520, Note_on_c, 1, 61, 127
3, 23588, Note_on_c, 1, 61, 0
3, 23646, Note_on_c, 1, 61, 127
3, 23675, Note_on_c, 1, 61, 0
3, 23701, Note_on_c, 1, 61, 127
3, 23727, Note_on_c, 1, 61, 0
3, 23762, Note_on_c, 1, 61, 127
3, 23791, Note_on_c, 1, 61, 0
3, 23823, Note_on_c, 1, 61, 127
3, 23849, Note_on_c, 1, 61, 0
3, 23882, Note_on_c, 1, 61, 127
3, 23968, Note_on_c, 1, 61, 0
3, 23998, Note_on_c, 1, 64, 127
3, 24028, Note_on_c, 1, 64, 0
3, 24058, Note_on_c, 1, 64, 124
3, 24086, Note_on_c, 1, 64, 0
3, 24119, Note_on_c, 1, 64, 127
3, 24147, Note_on_c, 1, 64, 0
3, 24180, Note_on_c, 1, 64, 127
3, 24207, Note_on_c, 1, 64, 0
3, 24244, Note_on_c, 1, 64, 127
3, 24270, Note_on_c, 1, 64, 0
3, 24304, Note_on_c, 1, 64, 127
3, 24328, Note_on_c, 1, 64, 0
3, 24361, Note_on_c, 1, 64, 127
3, 24447, Note_on_c, 1, 64, 0
3, 24482, Note_on_c, 1, 68, 127
3, 24510, Note_on_c, 1, 68, 0
3, 24538, Note_on_c, 1, 68, 127
3, 24567, Note_on_c, 1, 68, 0
3, 24598, Note_on_c, 1, 68, 127
3, 24623, Note_on_c, 1, 68, 0
3, 24658, Note_on_c, 1, 68, 127
3, 24685, Note_on_c, 1, 68, 0
3, 24721, Note_on_c, 1, 68, 127
3, 24747, Note_on_c, 1, 68, 0
3, 24779, Note_on_c, 1, 68, 127
3, 24809, Note_on_c, 1, 68, 0
3, 24841, Note_on_c, 1, 68, 127
3, 24926, Note_on_c, 1, 68, 0
3, 24961, Note_on_c, 1, 68, 127
3, 24986, Note_on_c, 1, 68, 0
3, 25022, Note_on_c, 1, 68, 127
3, 25046, Note_on_c, 1, 68, 0
3, 25083, Note_on_c, 1, 68, 127
3, 25109, Note_on_c, 1, 68, 0
3, 25145, Note_on_c, 1, 68, 127
3, 25168, Note_on_c, 1, 68, 0
3, 25200, Note_on_c, 1, 68, 127
3, 25286, Note_on_c, 1, 68, 0
3, 25322, Note_on_c, 1, 68, 127
3, 25422, Note_on_c, 1, 68, 0
3, 25440, Note_on_c, 1, 63, 127
3, 25521, Note_on_c, 1, 63, 0
3, 25557, Note_on_c, 1, 63, 127
3, 25582, Note_on_c, 1, 63, 0
3, 25616, Note_on_c, 1, 63, 127
3, 25642, Note_on_c, 1, 63, 0
3, 25676, Note_on_c, 1, 63, 127
3, 25705, Note_on_c, 1, 63, 0
3, 25739, Note_on_c, 1, 63, 127
3, 25765, Note_on_c, 1, 63, 0
3, 25798, Note_on_c, 1, 63, 127
3, 25824, Note_on_c, 1, 63, 0
3, 25857, Note_on_c, 1, 63, 127
3, 25882, Note_on_c, 1, 63, 0
3, 25917, Note_on_c, 1, 63, 127
3, 25943, Note_on_c, 1, 63, 0
3, 25978, Note_on_c, 1, 63, 127
3, 26013, Note_on_c, 1, 63, 0
3, 26039, Note_on_c, 1, 66, 127
3, 26073, Note_on_c, 1, 66, 0
3, 26099, Note_on_c, 1, 63, 124
3, 26145, Note_on_c, 1, 63, 0
3, 26162, Note_on_c, 1, 66, 127
3, 26196, Note_on_c, 1, 66, 0
3, 26220, Note_on_c, 1, 63, 94
3, 26264, Note_on_c, 1, 63, 0
3, 26285, Note_on_c, 1, 66, 127
3, 26318, Note_on_c, 1, 66, 0
3, 26335, Note_on_c, 1, 63, 124
3, 26385, Note_on_c, 1, 63, 0
3, 26509, Note_on_c, 1, 63, 127
3, 26533, Note_on_c, 1, 63, 0
3, 26572, Note_on_c, 1, 63, 127
3, 26596, Note_on_c, 1, 63, 0
3, 26634, Note_on_c, 1, 63, 127
3, 26658, Note_on_c, 1, 63, 0
3, 26698, Note_on_c, 1, 63, 127
3, 26718, Note_on_c, 1, 63, 0
3, 26751, Note_on_c, 1, 63, 127
3, 26751, Note_on_c, 1, 64, 124
3, 26769, Note_on_c, 1, 64, 0
3, 26843, Note_on_c, 1, 63, 0
3, 26874, Note_on_c, 1, 63, 127
3, 26897, Note_on_c, 1, 63, 0
3, 26928, Note_on_c, 1, 63, 127
3, 26961, Note_on_c, 1, 63, 0
3, 26997, Note_on_c, 1, 66, 127
3, 27024, Note_on_c, 1, 66, 0
3, 27054, Note_on_c, 1, 63, 127
3, 27093, Note_on_c, 1, 63, 0
3, 27123, Note_on_c, 1, 66, 127
3, 27147, Note_on_c, 1, 66, 0
3, 27178, Note_on_c, 1, 63, 124
3, 27209, Note_on_c, 1, 63, 0
3, 27238, Note_on_c, 1, 66, 127
3, 27263, Note_on_c, 1, 66, 0
3, 27292, Note_on_c, 1, 63, 127
3, 27334, Note_on_c, 1, 63, 0
3, 27474, Note_on_c, 1, 63, 127
3, 27556, Note_on_c, 1, 63, 0
3, 27592, Note_on_c, 1, 63, 127
3, 27666, Note_on_c, 1, 63, 0
3, 27711, Note_on_c, 1, 63, 127
3, 27733, Note_on_c, 1, 63, 0
3, 27769, Note_on_c, 1, 63, 127
3, 27797, Note_on_c, 1, 63, 0
3, 27835, Note_on_c, 1, 63, 127
3, 27919, Note_on_c, 1, 63, 0
3, 27951, Note_on_c, 1, 63, 108
3, 27972, Note_on_c, 1, 63, 0
3, 28012, Note_on_c, 1, 63, 127
3, 28157, Note_on_c, 1, 63, 0
3, 28194, Note_on_c, 1, 63, 127
3, 28307, Note_on_c, 1, 63, 0
3, 28432, Note_on_c, 1, 63, 127
3, 28453, Note_on_c, 1, 63, 0
3, 28491, Note_on_c, 1, 63, 127
3, 28514, Note_on_c, 1, 63, 0
3, 28553, Note_on_c, 1, 63, 127
3, 28640, Note_on_c, 1, 63, 0
3, 28676, Note_on_c, 1, 63, 127
3, 28699, Note_on_c, 1, 63, 0
3, 28734, Note_on_c, 1, 63, 127
3, 28760, Note_on_c, 1, 63, 0
3, 28796, Note_on_c, 1, 63, 127
3, 28877, Note_on_c, 1, 63, 0
3, 28918, Note_on_c, 1, 63, 127
3, 28941, Note_on_c, 1, 63, 0
3, 28974, Note_on_c, 1, 63, 127
3, 28997, Note_on_c, 1, 63, 0
3, 29032, Note_on_c, 1, 63, 127
3, 29058, Note_on_c, 1, 63, 0
3, 29085, Note_on_c, 1, 63, 99
3, 29111, Note_on_c, 1, 63, 0
3, 29149, Note_on_c, 1, 63, 127
3, 29249, Note_on_c, 1, 63, 0
3, 29404, Note_on_c, 1, 63, 115
3, 29495, Note_on_c, 1, 63, 0
3, 29518, Note_on_c, 1, 56, 127
3, 29609, Note_on_c, 1, 56, 0
3, 29640, Note_on_c, 1, 56, 115
3, 29668, Note_on_c, 1, 56, 0
3, 29697, Note_on_c, 1, 56, 97
3, 29735, Note_on_c, 1, 56, 0
3, 29759, Note_on_c, 1, 63, 105
3, 29839, Note_on_c, 1, 63, 0
3, 29874, Note_on_c, 1, 63, 127
3, 29980, Note_on_c, 1, 63, 0
3, 29998, Note_on_c, 1, 56, 127
3, 30081, Note_on_c, 1, 56, 0
3, 30117, Note_on_c, 1, 56, 127
3, 30146, Note_on_c, 1, 56, 0
3, 30176, Note_on_c, 1, 56, 127
3, 30216, Note_on_c, 1, 56, 0
3, 30361, Note_on_c, 1, 63, 127
3, 30461, Note_on_c, 1, 63, 0
3, 30479, Note_on_c, 1, 56, 127
3, 30560, Note_on_c, 1, 56, 0
3, 30596, Note_on_c, 1, 56, 124
3, 30621, Note_on_c, 1, 56, 0
3, 30656, Note_on_c, 1, 56, 119
3, 30689, Note_on_c, 1, 56, 0
3, 30720, Note_on_c, 1, 63, 127
3, 30800, Note_on_c, 1, 63, 0
3, 30837, Note_on_c, 1, 63, 108
3, 30864, Note_on_c, 1, 63, 0
3, 30891, Note_on_c, 1, 56, 127
3, 31037, Note_on_c, 1, 56, 0
3, 31074, Note_on_c, 1, 56, 127
3, 31125, Note_on_c, 1, 56, 0
3, 31316, Note_on_c, 1, 63, 127
3, 31402, Note_on_c, 1, 63, 0
3, 31441, Note_on_c, 1, 63, 127
3, 31513, Note_on_c, 1, 63, 0
3, 31549, Note_on_c, 1, 63, 115
3, 31580, Note_on_c, 1, 63, 0
3, 31611, Note_on_c, 1, 63, 119
3, 31640, Note_on_c, 1, 63, 0
3, 31671, Note_on_c, 1, 63, 127
3, 31764, Note_on_c, 1, 63, 0
3, 31793, Note_on_c, 1, 66, 108
3, 31840, Note_on_c, 1, 66, 0
3, 31849, Note_on_c, 1, 63, 115
3, 31888, Note_on_c, 1, 63, 0
3, 31917, Note_on_c, 1, 66, 127
3, 31965, Note_on_c, 1, 66, 0
3, 31980, Note_on_c, 1, 63, 127
3, 32009, Note_on_c, 1, 63, 0
3, 32036, Note_on_c, 1, 66, 127
3, 32079, Note_on_c, 1, 66, 0
3, 32094, Note_on_c, 1, 63, 127
3, 32140, Note_on_c, 1, 63, 0
3, 32272, Note_on_c, 1, 63, 127
3, 32294, Note_on_c, 1, 63, 0
3, 32328, Note_on_c, 1, 63, 119
3, 32356, Note_on_c, 1, 63, 0
3, 32393, Note_on_c, 1, 63, 127
3, 32472, Note_on_c, 1, 63, 0
3, 32510, Note_on_c, 1, 63, 127
3, 32537, Note_on_c, 1, 63, 0
3, 32573, Note_on_c, 1, 63, 127
3, 32600, Note_on_c, 1, 63, 0
3, 32632, Note_on_c, 1, 63, 127
3, 32663, Note_on_c, 1, 63, 0
3, 32694, Note_on_c, 1, 63, 112
3, 32724, Note_on_c, 1, 63, 0
3, 32750, Note_on_c, 1, 66, 127
3, 32796, Note_on_c, 1, 66, 0
3, 32812, Note_on_c, 1, 63, 112
3, 32845, Note_on_c, 1, 63, 0
3, 32877, Note_on_c, 1, 66, 127
3, 32927, Note_on_c, 1, 66, 0
3, 32938, Note_on_c, 1, 63, 124
3, 32971, Note_on_c, 1, 63, 0
3, 32998, Note_on_c, 1, 66, 124
3, 33039, Note_on_c, 1, 66, 0
3, 33053, Note_on_c, 1, 63, 119
3, 33082, Note_on_c, 1, 63, 0
3, 33123, Note_on_c, 1, 61, 127
3, 33196, Note_on_c, 1, 61, 0
3, 33235, Note_on_c, 1, 61, 127
3, 33261, Note_on_c, 1, 61, 0
3, 33294, Note_on_c, 1, 61, 127
3, 33319, Note_on_c, 1, 61, 0
3, 33353, Note_on_c, 1, 61, 127
3, 33379, Note_on_c, 1, 61, 0
3, 33413, Note_on_c, 1, 61, 119
3, 33436, Note_on_c, 1, 61, 0
3, 33471, Note_on_c, 1, 61, 127
3, 33477, Note_on_c, 1, 64, 119
3, 33485, Note_on_c, 1, 64, 0
3, 33567, Note_on_c, 1, 61, 0
3, 33597, Note_on_c, 1, 64, 127
3, 33682, Note_on_c, 1, 64, 0
3, 33714, Note_on_c, 1, 64, 127
3, 33742, Note_on_c, 1, 64, 0
3, 33773, Note_on_c, 1, 64, 127
3, 33801, Note_on_c, 1, 64, 0
3, 33836, Note_on_c, 1, 64, 119
3, 33866, Note_on_c, 1, 64, 0
3, 33897, Note_on_c, 1, 64, 115
3, 33923, Note_on_c, 1, 64, 0
3, 33955, Note_on_c, 1, 64, 127
3, 34041, Note_on_c, 1, 64, 0
3, 34072, Note_on_c, 1, 68, 127
3, 34100, Note_on_c, 1, 68, 0
3, 34132, Note_on_c, 1, 68, 127
3, 34161, Note_on_c, 1, 68, 0
3, 34193, Note_on_c, 1, 68, 127
3, 34221, Note_on_c, 1, 68, 0
3, 34253, Note_on_c, 1, 68, 127
3, 34282, Note_on_c, 1, 68, 0
3, 34319, Note_on_c, 1, 68, 127
3, 34344, Note_on_c, 1, 68, 0
3, 34379, Note_on_c, 1, 68, 127
3, 34405, Note_on_c, 1, 68, 0
3, 34438, Note_on_c, 1, 68, 127
3, 34522, Note_on_c, 1, 68, 0
3, 34557, Note_on_c, 1, 68, 127
3, 34582, Note_on_c, 1, 68, 0
3, 34614, Note_on_c, 1, 68, 127
3, 34638, Note_on_c, 1, 68, 0
3, 34674, Note_on_c, 1, 68, 127
3, 34700, Note_on_c, 1, 68, 0
3, 34735, Note_on_c, 1, 68, 127
3, 34757, Note_on_c, 1, 68, 0
3, 34801, Note_on_c, 1, 68, 127
3, 34879, Note_on_c, 1, 68, 0
3, 34921, Note_on_c, 1, 68, 127
3, 35022, Note_on_c, 1, 68, 0
3, 35040, Note_on_c, 1, 61, 127
3, 35072, Note_on_c, 1, 61, 0
3, 35100, Note_on_c, 1, 61, 124
3, 35126, Note_on_c, 1, 61, 0
3, 35158, Note_on_c, 1, 61, 127
3, 35186, Note_on_c, 1, 61, 0
3, 35214, Note_on_c, 1, 61, 115
3, 35239, Note_on_c, 1, 61, 0
3, 35281, Note_on_c, 1, 56, 127
3, 35362, Note_on_c, 1, 56, 0
3, 35397, Note_on_c, 1, 56, 127
3, 35435, Note_on_c, 1, 56, 0
3, 35458, Note_on_c, 1, 57, 127
3, 35512, Note_on_c, 1, 57, 0
3, 35700, Note_on_c, 1, 56, 127
3, 35736, Note_on_c, 1, 56, 0
3, 35754, Note_on_c, 1, 57, 127
3, 35785, Note_on_c, 1, 57, 0
3, 35811, Note_on_c, 1, 57, 108
3, 35841, Note_on_c, 1, 57, 0
3, 35878, Note_on_c, 1, 59, 127
3, 35906, Note_on_c, 1, 59, 0
3, 35941, Note_on_c, 1, 59, 127
3, 35962, Note_on_c, 1, 59, 0
3, 36003, Note_on_c, 1, 56, 127
3, 36025, Note_on_c, 1, 56, 0
3, 36057, Note_on_c, 1, 56, 127
3, 36083, Note_on_c, 1, 56, 0
3, 36117, Note_on_c, 1, 56, 127
3, 36143, Note_on_c, 1, 56, 0
3, 36171, Note_on_c, 1, 56, 127
3, 36199, Note_on_c, 1, 56, 0
3, 36233, Note_on_c, 1, 56, 127
3, 36261, Note_on_c, 1, 56, 0
3, 36294, Note_on_c, 1, 56, 127
3, 36322, Note_on_c, 1, 56, 0
3, 36358, Note_on_c, 1, 56, 127
3, 36400, Note_on_c, 1, 56, 0
3, 36475, Note_on_c, 1, 57, 127
3, 36532, Note_on_c, 1, 57, 0
3, 36780, Note_on_c, 1, 56, 127
3, 36807, Note_on_c, 1, 56, 0
3, 36834, Note_on_c, 1, 56, 127
3, 36867, Note_on_c, 1, 56, 0
3, 36897, Note_on_c, 1, 56, 124
3, 36922, Note_on_c, 1, 56, 0
3, 36951, Note_on_c, 1, 61, 127
3, 36977, Note_on_c, 1, 61, 0
3, 37010, Note_on_c, 1, 61, 127
3, 37037, Note_on_c, 1, 61, 0
3, 37073, Note_on_c, 1, 61, 127
3, 37098, Note_on_c, 1, 61, 0
3, 37126, Note_on_c, 1, 61, 127
3, 37153, Note_on_c, 1, 61, 0
3, 37193, Note_on_c, 1, 56, 127
3, 37220, Note_on_c, 1, 56, 0
3, 37256, Note_on_c, 1, 56, 127
3, 37281, Note_on_c, 1, 56, 0
3, 37308, Note_on_c, 1, 56, 112
3, 37343, Note_on_c, 1, 56, 0
3, 37370, Note_on_c, 1, 57, 127
3, 37420, Note_on_c, 1, 57, 0
3, 37614, Note_on_c, 1, 56, 127
3, 37653, Note_on_c, 1, 56, 0
3, 37673, Note_on_c, 1, 57, 127
3, 37702, Note_on_c, 1, 57, 0
3, 37734, Note_on_c, 1, 57, 105
3, 37765, Note_on_c, 1, 57, 0
3, 37795, Note_on_c, 1, 59, 127
3, 37823, Note_on_c, 1, 59, 0
3, 37852, Note_on_c, 1, 59, 119
3, 37878, Note_on_c, 1, 59, 0
3, 37917, Note_on_c, 1, 56, 127
3, 37945, Note_on_c, 1, 56, 0
3, 37976, Note_on_c, 1, 56, 127
3, 38002, Note_on_c, 1, 56, 0
3, 38037, Note_on_c, 1, 56, 127
3, 38065, Note_on_c, 1, 56, 0
3, 38097, Note_on_c, 1, 56, 127
3, 38123, Note_on_c, 1, 56, 0
3, 38154, Note_on_c, 1, 56, 127
3, 38184, Note_on_c, 1, 56, 0
3, 38273, Note_on_c, 1, 56, 127
3, 38307, Note_on_c, 1, 56, 0
3, 38397, Note_on_c, 1, 56, 127
3, 38431, Note_on_c, 1, 56, 0
3, 38510, Note_on_c, 1, 54, 127
3, 38552, Note_on_c, 1, 54, 0
3, 38631, Note_on_c, 1, 52, 127
3, 38679, Note_on_c, 1, 52, 0
3, 38752, Note_on_c, 1, 51, 127
3, 38803, Note_on_c, 1, 51, 0
3, 38880, Note_on_c, 1, 61, 127
3, 38912, Note_on_c, 1, 61, 0
3, 38940, Note_on_c, 1, 61, 124
3, 38966, Note_on_c, 1, 61, 0
3, 38998, Note_on_c, 1, 61, 127
3, 39026, Note_on_c, 1, 61, 0
3, 39054, Note_on_c, 1, 61, 115
3, 39079, Note_on_c, 1, 61, 0
3, 39121, Note_on_c, 1, 56, 127
3, 39202, Note_on_c, 1, 56, 0
3, 39237, Note_on_c, 1, 56, 127
3, 39275, Note_on_c, 1, 56, 0
3, 39298, Note_on_c, 1, 57, 127
3, 39352, Note_on_c, 1, 57, 0
3, 39540, Note_on_c, 1, 56, 127
3, 39576, Note_on_c, 1, 56, 0
3, 39594, Note_on_c, 1, 57, 127
3, 39625, Note_on_c, 1, 57, 0
3, 39651, Note_on_c, 1, 57, 108
3, 39681, Note_on_c, 1, 57, 0
3, 39718, Note_on_c, 1, 59, 127
3, 39746, Note_on_c, 1, 59, 0
3, 39781, Note_on_c, 1, 59, 127
3, 39802, Note_on_c, 1, 59, 0
3, 39843, Note_on_c, 1, 56, 127
3, 39865, Note_on_c, 1, 56, 0
3, 39897, Note_on_c, 1, 56, 127
3, 39923, Note_on_c, 1, 56, 0
3, 39957, Note_on_c, 1, 56, 127
3, 39983, Note_on_c, 1, 56, 0
3, 40011, Note_on_c, 1, 56, 127
3, 40039, Note_on_c, 1, 56, 0
3, 40073, Note_on_c, 1, 56, 127
3, 40101, Note_on_c, 1, 56, 0
3, 40134, Note_on_c, 1, 56, 127
3, 40162, Note_on_c, 1, 56, 0
3, 40198, Note_on_c, 1, 56, 127
3, 40240, Note_on_c, 1, 56, 0
3, 40315, Note_on_c, 1, 57, 127
3, 40372, Note_on_c, 1, 57, 0
3, 40620, Note_on_c, 1, 56, 127
3, 40647, Note_on_c, 1, 56, 0
3, 40674, Note_on_c, 1, 56, 127
3, 40707, Note_on_c, 1, 56, 0
3, 40737, Note_on_c, 1, 56, 124
3, 40762, Note_on_c, 1, 56, 0
3, 40791, Note_on_c, 1, 61, 127
3, 40817, Note_on_c, 1, 61, 0
3, 40850, Note_on_c, 1, 61, 127
3, 40877, Note_on_c, 1, 61, 0
3, 40913, Note_on_c, 1, 61, 127
3, 40938, Note_on_c, 1, 61, 0
3, 40966, Note_on_c, 1, 61, 127
3, 40993, Note_on_c, 1, 61, 0
3, 41033, Note_on_c, 1, 56, 127
3, 41060, Note_on_c, 1, 56, 0
3, 41096, Note_on_c, 1, 56, 127
3, 41121, Note_on_c, 1, 56, 0
3, 41148, Note_on_c, 1, 56, 112
3, 41183, Note_on_c, 1, 56, 0
3, 41210, Note_on_c, 1, 57, 127
3, 41260, Note_on_c, 1, 57, 0
3, 41454, Note_on_c, 1, 56, 127
3, 41493, Note_on_c, 1, 56, 0
3, 41513, Note_on_c, 1, 57, 127
3, 41542, Note_on_c, 1, 57, 0
3, 41574, Note_on_c, 1, 57, 105
3, 41605, Note_on_c, 1, 57, 0
3, 41635, Note_on_c, 1, 59, 127
3, 41663, Note_on_c, 1, 59, 0
3, 41692, Note_on_c, 1, 59, 119
3, 41718, Note_on_c, 1, 59, 0
3, 41757, Note_on_c, 1, 56, 127
3, 41785, Note_on_c, 1, 56, 0
3, 41816, Note_on_c, 1, 56, 127
3, 41842, Note_on_c, 1, 56, 0
3, 41877, Note_on_c, 1, 56, 127
3, 41905, Note_on_c, 1, 56, 0
3, 41937, Note_on_c, 1, 56, 127
3, 41963, Note_on_c, 1, 56, 0
3, 41994, Note_on_c, 1, 56, 127
3, 42024, Note_on_c, 1, 56, 0
3, 42113, Note_on_c, 1, 56, 127
3, 42147, Note_on_c, 1, 56, 0
3, 42237, Note_on_c, 1, 56, 127
3, 42271, Note_on_c, 1, 56, 0
3, 42350, Note_on_c, 1, 54, 127
3, 42392, Note_on_c, 1, 54, 0
3, 42471, Note_on_c, 1, 52, 127
3, 42519, Note_on_c, 1, 52, 0
3, 42592, Note_on_c, 1, 51, 127
3, 42643, Note_on_c, 1, 51, 0
3, 42720, Note_on_c, 1, 61, 127
3, 42752, Note_on_c, 1, 61, 0
3, 42780, Note_on_c, 1, 61, 124
3, 42806, Note_on_c, 1, 61, 0
3, 42838, Note_on_c, 1, 61, 127
3, 42866, Note_on_c, 1, 61, 0
3, 42894, Note_on_c, 1, 61, 115
3, 42919, Note_on_c, 1, 61, 0
3, 42961, Note_on_c, 1, 56, 127
3, 43042, Note_on_c, 1, 56, 0
3, 43077, Note_on_c, 1, 56, 127
3, 43115, Note_on_c, 1, 56, 0
3, 43138, Note_on_c, 1, 57, 127
3, 43192, Note_on_c, 1, 57, 0
3, 43380, Note_on_c, 1, 56, 127
3, 43416, Note_on_c, 1, 56, 0
3, 43434, Note_on_c, 1, 57, 127
3, 43465, Note_on_c, 1, 57, 0
3, 43491, Note_on_c, 1, 57, 108
3, 43521, Note_on_c, 1, 57, 0
3, 43558, Note_on_c, 1, 59, 127
3, 43586, Note_on_c, 1, 59, 0
3, 43621, Note_on_c, 1, 59, 127
3, 43642, Note_on_c, 1, 59, 0
3, 43683, Note_on_c, 1, 56, 127
3, 43705, Note_on_c, 1, 56, 0
3, 43737, Note_on_c, 1, 56, 127
3, 43763, Note_on_c, 1, 56, 0
3, 43797, Note_on_c, 1, 56, 127
3, 43823, Note_on_c, 1, 56, 0
3, 43851, Note_on_c, 1, 56, 127
3, 43879, Note_on_c, 1, 56, 0
3, 43913, Note_on_c, 1, 56, 127
3, 43941, Note_on_c, 1, 56, 0
3, 43974, Note_on_c, 1, 56, 127
3, 44002, Note_on_c, 1, 56, 0
3, 44038, Note_on_c, 1, 56, 127
3, 44080, Note_on_c, 1, 56, 0
3, 44155, Note_on_c, 1, 57, 127
3, 44212, Note_on_c, 1, 57, 0
3, 44460, Note_on_c, 1, 56, 127
3, 44487, Note_on_c, 1, 56, 0
3, 44514, Note_on_c, 1, 56, 127
3, 44547, Note_on_c, 1, 56, 0
3, 44577, Note_on_c, 1, 56, 124
3, 44602, Note_on_c, 1, 56, 0
3, 44631, Note_on_c, 1, 61, 127
3, 44657, Note_on_c, 1, 61, 0
3, 44690, Note_on_c, 1, 61, 127
3, 44717, Note_on_c, 1, 61, 0
3, 44753, Note_on_c, 1, 61, 127
3, 44778, Note_on_c, 1, 61, 0
3, 44806, Note_on_c, 1, 61, 127
3, 44833, Note_on_c, 1, 61, 0
3, 44873, Note_on_c, 1, 56, 127
3, 44900, Note_on_c, 1, 56, 0
3, 44936, Note_on_c, 1, 56, 127
3, 44961, Note_on_c, 1, 56, 0
3, 44988, Note_on_c, 1, 56, 112
3, 45023, Note_on_c, 1, 56, 0
3, 45050, Note_on_c, 1, 57, 127
3, 45100, Note_on_c, 1, 57, 0
3, 45294, Note_on_c, 1, 56, 127
3, 45333, Note_on_c, 1, 56, 0
3, 45353, Note_on_c, 1, 57, 127
3, 45382, Note_on_c, 1, 57, 0
3, 45414, Note_on_c, 1, 57, 105
3, 45445, Note_on_c, 1, 57, 0
3, 45475, Note_on_c, 1, 59, 127
3, 45503, Note_on_c, 1, 59, 0
3, 45532, Note_on_c, 1, 59, 119
3, 45558, Note_on_c, 1, 59, 0
3, 45597, Note_on_c, 1, 56, 127
3, 45625, Note_on_c, 1, 56, 0
3, 45656, Note_on_c, 1, 56, 127
3, 45682, Note_on_c, 1, 56, 0
3, 45717, Note_on_c, 1, 56, 127
3, 45745, Note_on_c, 1, 56, 0
3, 45777, Note_on_c, 1, 56, 127
3, 45803, Note_on_c, 1, 56, 0
3, 45834, Note_on_c, 1, 56, 127
3, 45864, Note_on_c, 1, 56, 0
3, 45953, Note_on_c, 1, 56, 127
3, 45987, Note_on_c, 1, 56, 0
3, 46077, Note_on_c, 1, 56, 127
3, 46111, Note_on_c, 1, 56, 0
3, 46190, Note_on_c, 1, 54, 127
3, 46232, Note_on_c, 1, 54, 0
3, 46311, Note_on_c, 1, 52, 127
3, 46359, Note_on_c, 1, 52, 0
3, 46432, Note_on_c, 1, 51, 127
3, 46483, Note_on_c, 1, 51, 0
3, 46567, Note_on_c, 1, 61, 127
3, 46635, Note_on_c, 1, 61, 0
3, 46693, Note_on_c, 1, 61, 127
3, 46722, Note_on_c, 1, 61, 0
3, 46748, Note_on_c, 1, 61, 127
3, 46774, Note_on_c, 1, 61, 0
3, 46809, Note_on_c, 1, 61, 127
3, 46838, Note_on_c, 1, 61, 0
3, 46870, Note_on_c, 1, 61, 127
3, 46896, Note_on_c, 1, 61, 0
3, 46929, Note_on_c, 1, 61, 127
3, 47015, Note_on_c, 1, 61, 0
3, 47045, Note_on_c, 1, 64, 127
3, 47075, Note_on_c, 1, 64, 0
3, 47105, Note_on_c, 1, 64, 124
3, 47133, Note_on_c, 1, 64, 0
3, 47166, Note_on_c, 1, 64, 127
3, 47194, Note_on_c, 1, 64, 0
3, 47227, Note_on_c, 1, 64, 127
3, 47254, Note_on_c, 1, 64, 0
3, 47291, Note_on_c, 1, 64, 127
3, 47317, Note_on_c, 1, 64, 0
3, 47351, Note_on_c, 1, 64, 127
3, 47375, Note_on_c, 1, 64, 0
3, 47408, Note_on_c, 1, 64, 127
3, 47494, Note_on_c, 1, 64, 0
3, 47529, Note_on_c, 1, 68, 127
3, 47557, Note_on_c, 1, 68, 0
3, 47585, Note_on_c, 1, 68, 127
3, 47614, Note_on_c, 1, 68, 0
3, 47645, Note_on_c, 1, 68, 127
3, 47670, Note_on_c, 1, 68, 0
3, 47705, Note_on_c, 1, 68, 127
3, 47732, Note_on_c, 1, 68, 0
3, 47768, Note_on_c, 1, 68, 127
3, 47794, Note_on_c, 1, 68, 0
3, 47826, Note_on_c, 1, 68, 127
3, 47856, Note_on_c, 1, 68, 0
3, 47888, Note_on_c, 1, 68, 127
3, 47973, Note_on_c, 1, 68, 0
3, 48008, Note_on_c, 1, 68, 127
3, 48033, Note_on_c, 1, 68, 0
3, 48069, Note_on_c, 1, 68, 127
3, 48093, Note_on_c, 1, 68, 0
3, 48130, Note_on_c, 1, 68, 127
3, 48156, Note_on_c, 1, 68, 0
3, 48192, Note_on_c, 1, 68, 127
3, 48215, Note_on_c, 1, 68, 0
3, 48247, Note_on_c, 1, 68, 127
3, 48333, Note_on_c, 1, 68, 0
3, 48369, Note_on_c, 1, 68, 127
3, 48469, Note_on_c, 1, 68, 0
3, 48485, Note_on_c, 1, 60, 127
3, 48569, Note_on_c, 1, 60, 0
3, 48601, Note_on_c, 1, 60, 127
3, 48632, Note_on_c, 1, 60, 0
3, 48663, Note_on_c, 1, 60, 127
3, 48689, Note_on_c, 1, 60, 0
3, 48721, Note_on_c, 1, 60, 127
3, 48806, Note_on_c, 1, 60, 0
3, 48838, Note_on_c, 1, 60, 127
3, 48866, Note_on_c, 1, 60, 0
3, 48899, Note_on_c, 1, 60, 127
3, 48981, Note_on_c, 1, 60, 0
3, 49021, Note_on_c, 1, 60, 127
3, 49047, Note_on_c, 1, 60, 0
3, 49085, Note_on_c, 1, 60, 127
3, 49174, Note_on_c, 1, 60, 0
3, 49207, Note_on_c, 1, 60, 124
3, 49233, Note_on_c, 1, 60, 0
3, 49261, Note_on_c, 1, 60, 115
3, 49298, Note_on_c, 1, 60, 0
3, 49319, Note_on_c, 1, 63, 127
3, 49374, Note_on_c, 1, 63, 0
3, 49386, Note_on_c, 1, 60, 127
3, 49422, Note_on_c, 1, 60, 0
3, 49452, Note_on_c, 1, 61, 127
3, 49525, Note_on_c, 1, 61, 0
3, 49566, Note_on_c, 1, 61, 127
3, 49588, Note_on_c, 1, 61, 0
3, 49626, Note_on_c, 1, 61, 127
3, 49651, Note_on_c, 1, 61, 0
3, 49692, Note_on_c, 1, 61, 127
3, 49765, Note_on_c, 1, 61, 0
3, 49808, Note_on_c, 1, 61, 127
3, 49831, Note_on_c, 1, 61, 0
3, 49865, Note_on_c, 1, 61, 127
3, 49945, Note_on_c, 1, 61, 0
3, 49982, Note_on_c, 1, 61, 127
3, 50007, Note_on_c, 1, 61, 0
3, 50048, Note_on_c, 1, 61, 127
3, 50128, Note_on_c, 1, 61, 0
3, 50171, Note_on_c, 1, 61, 127
3, 50197, Note_on_c, 1, 61, 0
3, 50228, Note_on_c, 1, 61, 127
3, 50261, Note_on_c, 1, 61, 0
3, 50286, Note_on_c, 1, 63, 127
3, 50288, Note_on_c, 1, 62, 112
3, 50313, Note_on_c, 1, 62, 0
3, 50390, Note_on_c, 1, 63, 0
3, 50404, Note_on_c, 1, 60, 127
3, 50475, Note_on_c, 1, 60, 0
3, 50521, Note_on_c, 1, 60, 127
3, 50543, Note_on_c, 1, 60, 0
3, 50581, Note_on_c, 1, 60, 127
3, 50604, Note_on_c, 1, 60, 0
3, 50641, Note_on_c, 1, 60, 127
3, 50719, Note_on_c, 1, 60, 0
3, 50759, Note_on_c, 1, 60, 127
3, 50783, Note_on_c, 1, 60, 0
3, 50819, Note_on_c, 1, 60, 127
3, 50897, Note_on_c, 1, 60, 0
3, 50941, Note_on_c, 1, 60, 127
3, 50959, Note_on_c, 1, 60, 0
3, 51000, Note_on_c, 1, 60, 127
3, 51025, Note_on_c, 1, 60, 0
3, 51066, Note_on_c, 1, 60, 127
3, 51088, Note_on_c, 1, 60, 0
3, 51120, Note_on_c, 1, 60, 127
3, 51157, Note_on_c, 1, 60, 0
3, 51239, Note_on_c, 1, 63, 127
3, 51280, Note_on_c, 1, 63, 0
3, 51367, Note_on_c, 1, 61, 127
3, 52257, Note_on_c, 1, 61, 0
3, 52323, Note_on_c, 1, 61, 119
3, 52412, Note_on_c, 1, 61, 0
3, 52447, Note_on_c, 1, 61, 127
3, 52473, Note_on_c, 1, 61, 0
3, 52504, Note_on_c, 1, 61, 112
3, 52528, Note_on_c, 1, 61, 0
3, 52560, Note_on_c, 1, 61, 127
3, 52644, Note_on_c, 1, 61, 0
3, 52685, Note_on_c, 1, 61, 127
3, 52708, Note_on_c, 1, 61, 0
3, 52746, Note_on_c, 1, 61, 127
3, 52824, Note_on_c, 1, 61, 0
3, 52861, Note_on_c, 1, 61, 127
3, 52882, Note_on_c, 1, 61, 0
3, 52919, Note_on_c, 1, 61, 127
3, 53010, Note_on_c, 1, 61, 0
3, 53049, Note_on_c, 1, 61, 127
3, 53072, Note_on_c, 1, 61, 0
3, 53105, Note_on_c, 1, 61, 119
3, 53129, Note_on_c, 1, 61, 0
3, 53163, Note_on_c, 1, 61, 115
3, 53186, Note_on_c, 1, 61, 0
3, 53223, Note_on_c, 1, 61, 119
3, 53243, Note_on_c, 1, 61, 0
3, 53279, Note_on_c, 1, 60, 127
3, 53364, Note_on_c, 1, 60, 0
3, 53400, Note_on_c, 1, 60, 127
3, 53425, Note_on_c, 1, 60, 0
3, 53463, Note_on_c, 1, 60, 119
3, 53483, Note_on_c, 1, 60, 0
3, 53521, Note_on_c, 1, 60, 127
3, 53597, Note_on_c, 1, 60, 0
3, 53634, Note_on_c, 1, 60, 97
3, 53654, Note_on_c, 1, 60, 0
3, 53691, Note_on_c, 1, 60, 127
3, 53786, Note_on_c, 1, 60, 0
3, 53824, Note_on_c, 1, 60, 108
3, 53843, Note_on_c, 1, 60, 0
3, 53880, Note_on_c, 1, 60, 127
3, 53969, Note_on_c, 1, 60, 0
3, 54007, Note_on_c, 1, 60, 97
3, 54028, Note_on_c, 1, 60, 0
3, 54063, Note_on_c, 1, 60, 105
3, 54086, Note_on_c, 1, 60, 0
3, 54121, Note_on_c, 1, 60, 115
3, 54142, Note_on_c, 1, 60, 0
3, 54180, Note_on_c, 1, 60, 105
3, 54196, Note_on_c, 1, 60, 0
3, 54239, Note_on_c, 1, 60, 127
3, 54318, Note_on_c, 1, 60, 0
3, 54355, Note_on_c, 1, 60, 102
3, 54373, Note_on_c, 1, 60, 0
3, 54415, Note_on_c, 1, 60, 119
3, 54436, Note_on_c, 1, 60, 0
3, 54475, Note_on_c, 1, 60, 127
3, 54563, Note_on_c, 1, 60, 0
3, 54601, Note_on_c, 1, 60, 112
3, 54624, Note_on_c, 1, 60, 0
3, 54660, Note_on_c, 1, 60, 119
3, 54744, Note_on_c, 1, 60, 0
3, 54782, Note_on_c, 1, 60, 119
3, 54803, Note_on_c, 1, 60, 0
3, 54839, Note_on_c, 1, 60, 124
3, 54862, Note_on_c, 1, 60, 0
3, 54899, Note_on_c, 1, 60, 127
3, 54921, Note_on_c, 1, 60, 0
3, 54957, Note_on_c, 1, 60, 115
3, 55013, Note_on_c, 1, 60, 0
3, 55075, Note_on_c, 1, 60, 127
3, 55116, Note_on_c, 1, 60, 0
3, 55194, Note_on_c, 1, 61, 127
3, 55643, Note_on_c, 1, 61, 0
3, 56167, Note_on_c, 1, 61, 127
3, 56235, Note_on_c, 1, 61, 0
3, 56293, Note_on_c, 1, 61, 127
3, 56322, Note_on_c, 1, 61, 0
3, 56348, Note_on_c, 1, 61, 127
3, 56374, Note_on_c, 1, 61, 0
3, 56409, Note_on_c, 1, 61, 127
3, 56438, Note_on_c, 1, 61, 0
3, 56470, Note_on_c, 1, 61, 127
3, 56496, Note_on_c, 1, 61, 0
3, 56529, Note_on_c, 1, 61, 127
3, 56615, Note_on_c, 1, 61, 0
3, 56645, Note_on_c, 1, 64, 127
3, 56675, Note_on_c, 1, 64, 0
3, 56705, Note_on_c, 1, 64, 124
3, 56733, Note_on_c, 1, 64, 0
3, 56766, Note_on_c, 1, 64, 127
3, 56794, Note_on_c, 1, 64, 0
3, 56827, Note_on_c, 1, 64, 127
3, 56854, Note_on_c, 1, 64, 0
3, 56891, Note_on_c, 1, 64, 127
3, 56917, Note_on_c, 1, 64, 0
3, 56951, Note_on_c, 1, 64, 127
3, 56975, Note_on_c, 1, 64, 0
3, 57008, Note_on_c, 1, 64, 127
3, 57094, Note_on_c, 1, 64, 0
3, 57129, Note_on_c, 1, 68, 127
3, 57157, Note_on_c, 1, 68, 0
3, 57185, Note_on_c, 1, 68, 127
3, 57214, Note_on_c, 1, 68, 0
3, 57245, Note_on_c, 1, 68, 127
3, 57270, Note_on_c, 1, 68, 0
3, 57305, Note_on_c, 1, 68, 127
3, 57332, Note_on_c, 1, 68, 0
3, 57368, Note_on_c, 1, 68, 127
3, 57394, Note_on_c, 1, 68, 0
3, 57426, Note_on_c, 1, 68, 127
3, 57456, Note_on_c, 1, 68, 0
3, 57488, Note_on_c, 1, 68, 127
3, 57573, Note_on_c, 1, 68, 0
3, 57608, Note_on_c, 1, 68, 127
3, 57633, Note_on_c, 1, 68, 0
3, 57669, Note_on_c, 1, 68, 127
3, 57693, Note_on_c, 1, 68, 0
3, 57730, Note_on_c, 1, 68, 127
3, 57756, Note_on_c, 1, 68, 0
3, 57792, Note_on_c, 1, 68, 127
3, 57815, Note_on_c, 1, 68, 0
3, 57847, Note_on_c, 1, 68, 127
3, 57933, Note_on_c, 1, 68, 0
3, 57969, Note_on_c, 1, 68, 127
3, 58069, Note_on_c, 1, 68, 0
3, 58080, Note_on_c, 1, 61, 127
3, 58112, Note_on_c, 1, 61, 0
3, 58140, Note_on_c, 1, 61, 124
3, 58166, Note_on_c, 1, 61, 0
3, 58198, Note_on_c, 1, 61, 127
3, 58226, Note_on_c, 1, 61, 0
3, 58254, Note_on_c, 1, 61, 115
3, 58279, Note_on_c, 1, 61, 0
3, 58321, Note_on_c, 1, 56, 127
3, 58402, Note_on_c, 1, 56, 0
3, 58437, Note_on_c, 1, 56, 127
3, 58475, Note_on_c, 1, 56, 0
3, 58498, Note_on_c, 1, 57, 127
3, 58552, Note_on_c, 1, 57, 0
3, 58740, Note_on_c, 1, 56, 127
3, 58776, Note_on_c, 1, 56, 0
3, 58794, Note_on_c, 1, 57, 127
3, 58825, Note_on_c, 1, 57, 0
3, 58851, Note_on_c, 1, 57, 108
3, 58881, Note_on_c, 1, 57, 0
3, 58918, Note_on_c, 1, 59, 127
3, 58946, Note_on_c, 1, 59, 0
3, 58981, Note_on_c, 1, 59, 127
3, 59002, Note_on_c, 1, 59, 0
3, 59043, Note_on_c, 1, 56, 127
3, 59065, Note_on_c, 1, 56, 0
3, 59097, Note_on_c, 1, 56, 127
3, 59123, Note_on_c, 1, 56, 0
3, 59157, Note_on_c, 1, 56, 127
3, 59183, Note_on_c, 1, 56, 0
3, 59211, Note_on_c, 1, 56, 127
3, 59239, Note_on_c, 1, 56, 0
3, 59273, Note_on_c, 1, 56, 127
3, 59301, Note_on_c, 1, 56, 0
3, 59334, Note_on_c, 1, 56, 127
3, 59362, Note_on_c, 1, 56, 0
3, 59398, Note_on_c, 1, 56, 127
3, 59440, Note_on_c, 1, 56, 0
3, 59515, Note_on_c, 1, 57, 127
3, 59572, Note_on_c, 1, 57, 0
3, 59820, Note_on_c, 1, 56, 127
3, 59847, Note_on_c, 1, 56, 0
3, 59874, Note_on_c, 1, 56, 127
3, 59907, Note_on_c, 1, 56, 0
3, 59937, Note_on_c, 1, 56, 124
3, 59962, Note_on_c, 1, 56, 0
3, 59991, Note_on_c, 1, 61, 127
3, 60017, Note_on_c, 1, 61, 0
3, 60050, Note_on_c, 1, 61, 127
3, 60077, Note_on_c, 1, 61, 0
3, 60113, Note_on_c, 1, 61, 127
3, 60138, Note_on_c, 1, 61, 0
3, 60166, Note_on_c, 1, 61, 127
3, 60193, Note_on_c, 1, 61, 0
3, 60233, Note_on_c, 1, 56, 127
3, 60260, Note_on_c, 1, 56, 0
3, 60296, Note_on_c, 1, 56, 127
3, 60321, Note_on_c, 1, 56, 0
3, 60348, Note_on_c, 1, 56, 112
3, 60383, Note_on_c, 1, 56, 0
3, 60410, Note_on_c, 1, 57, 127
3, 60460, Note_on_c, 1, 57, 0
3, 60654, Note_on_c, 1, 56, 127
3, 60693, Note_on_c, 1, 56, 0
3, 60713, Note_on_c, 1, 57, 127
3, 60742, Note_on_c, 1, 57, 0
3, 60774, Note_on_c, 1, 57, 105
3, 60805, Note_on_c, 1, 57, 0
3, 60835, Note_on_c, 1, 59, 127
3, 60863, Note_on_c, 1, 59, 0
3, 60892, Note_on_c, 1, 59, 119
3, 60918, Note_on_c, 1, 59, 0
3, 60957, Note_on_c, 1, 56, 127
3, 60985, Note_on_c, 1, 56, 0
3, 61016, Note_on_c, 1, 56, 127
3, 61042, Note_on_c, 1, 56, 0
3, 61077, Note_on_c, 1, 56, 127
3, 61105, Note_on_c, 1, 56, 0
3, 61137, Note_on_c, 1, 56, 127
3, 61163, Note_on_c, 1, 56, 0
3, 61194, Note_on_c, 1, 56, 127
3, 61224, Note_on_c, 1, 56, 0
3, 61313, Note_on_c, 1, 56, 127
3, 61347, Note_on_c, 1, 56, 0
3, 61437, Note_on_c, 1, 56, 127
3, 61471, Note_on_c, 1, 56, 0
3, 61550, Note_on_c, 1, 54, 127
3, 61592, Note_on_c, 1, 54, 0
3, 61671, Note_on_c, 1, 52, 127
3, 61719, Note_on_c, 1, 52, 0
3, 61792, Note_on_c, 1, 51, 127
3, 61843, Note_on_c, 1, 51, 0
3, 61920, Note_on_c, 1, 61, 127
3, 61952, Note_on_c, 1, 61, 0
3, 61980, Note_on_c, 1, 61, 124
3, 62006, Note_on_c, 1, 61, 0
3, 62038, Note_on_c, 1, 61, 127
3, 62066, Note_on_c, 1, 61, 0
3, 62094, Note_on_c, 1, 61, 115
3, 62119, Note_on_c, 1, 61, 0
3, 62161, Note_on_c, 1, 56, 127
3, 62242, Note_on_c, 1, 56, 0
3, 62277, Note_on_c, 1, 56, 127
3, 62315, Note_on_c, 1, 56, 0
3, 62338, Note_on_c, 1, 57, 127
3, 62392, Note_on_c, 1, 57, 0
3, 62580, Note_on_c, 1, 56, 127
3, 62616, Note_on_c, 1, 56, 0
3, 62634, Note_on_c, 1, 57, 127
3, 62665, Note_on_c, 1, 57, 0
3, 62691, Note_on_c, 1, 57, 108
3, 62721, Note_on_c, 1, 57, 0
3, 62758, Note_on_c, 1, 59, 127
3, 62786, Note_on_c, 1, 59, 0
3, 62821, Note_on_c, 1, 59, 127
3, 62842, Note_on_c, 1, 59, 0
3, 62883, Note_on_c, 1, 56, 127
3, 62905, Note_on_c, 1, 56, 0
3, 62937, Note_on_c, 1, 56, 127
3, 62963, Note_on_c, 1, 56, 0
3, 62997, Note_on_c, 1, 56, 127
3, 63023, Note_on_c, 1, 56, 0
3, 63051, Note_on_c, 1, 56, 127
3, 63079, Note_on_c, 1, 56, 0
3, 63113, Note_on_c, 1, 56, 127
3, 63141, Note_on_c, 1, 56, 0
3, 63174, Note_on_c, 1, 56, 127
3, 63202, Note_on_c, 1, 56, 0
3, 63238, Note_on_c, 1, 56, 127
3, 63280, Note_on_c, 1, 56, 0
3, 63355, Note_on_c, 1, 57, 127
3, 63412, Note_on_c, 1, 57, 0
3, 63660, Note_on_c, 1, 56, 127
3, 63687, Note_on_c, 1, 56, 0
3, 63714, Note_on_c, 1, 56, 127
3, 63747, Note_on_c, 1, 56, 0
3, 63777, Note_on_c, 1, 56, 124
3, 63802, Note_on_c, 1, 56, 0
3, 63831, Note_on_c, 1, 61, 127
3, 63857, Note_on_c, 1, 61, 0
3, 63890, Note_on_c, 1, 61, 127
3, 63917, Note_on_c, 1, 61, 0
3, 63953, Note_on_c, 1, 61, 127
3, 63978, Note_on_c, 1, 61, 0
3, 64006, Note_on_c, 1, 61, 127
3, 64033, Note_on_c, 1, 61, 0
3, 64073, Note_on_c, 1, 56, 127
3, 64100, Note_on_c, 1, 56, 0
3, 64136, Note_on_c, 1, 56, 127
3, 64161, Note_on_c, 1, 56, 0
3, 64188, Note_on_c, 1, 56, 112
3, 64223, Note_on_c, 1, 56, 0
3, 64250, Note_on_c, 1, 57, 127
3, 64300, Note_on_c, 1, 57, 0
3, 64494, Note_on_c, 1, 56, 127
3, 64533, Note_on_c, 1, 56, 0
3, 64553, Note_on_c, 1, 57, 127
3, 64582, Note_on_c, 1, 57, 0
3, 64614, Note_on_c, 1, 57, 105
3, 64645, Note_on_c, 1, 57, 0
3, 64675, Note_on_c, 1, 59, 127
3, 64703, Note_on_c, 1, 59, 0
3, 64732, Note_on_c, 1, 59, 119
3, 64758, Note_on_c, 1, 59, 0
3, 64797, Note_on_c, 1, 56, 127
3, 64825, Note_on_c, 1, 56, 0
3, 64856, Note_on_c, 1, 56, 127
3, 64882, Note_on_c, 1, 56, 0
3, 64917, Note_on_c, 1, 56, 127
3, 64945, Note_on_c, 1, 56, 0
3, 64977, Note_on_c, 1, 56, 127
3, 65003, Note_on_c, 1, 56, 0
3, 65034, Note_on_c, 1, 56, 127
3, 65064, Note_on_c, 1, 56, 0
3, 65153, Note_on_c, 1, 56, 127
3, 65187, Note_on_c, 1, 56, 0
3, 65277, Note_on_c, 1, 56, 127
3, 65311, Note_on_c, 1, 56, 0
3, 65390, Note_on_c, 1, 54, 127
3, 65432, Note_on_c, 1, 54, 0
3, 65511, Note_on_c, 1, 52, 127
3, 65559, Note_on_c, 1, 52, 0
3, 65632, Note_on_c, 1, 51, 127
3, 65683, Note_on_c, 1, 51, 0
3, 65760, Note_on_c, 1, 61, 127
3, 65792, Note_on_c, 1, 61, 0
3, 65820, Note_on_c, 1, 61, 124
3, 65846, Note_on_c, 1, 61, 0
3, 65878, Note_on_c, 1, 61, 127
3, 65906, Note_on_c, 1, 61, 0
3, 65934, Note_on_c, 1, 61, 115
3, 65959, Note_on_c, 1, 61, 0
3, 66001, Note_on_c, 1, 56, 127
3, 66082, Note_on_c, 1, 56, 0
3, 66117, Note_on_c, 1, 56, 127
3, 66155, Note_on_c, 1, 56, 0
3, 66178, Note_on_c, 1, 57, 127
3, 66232, Note_on_c, 1, 57, 0
3, 66420, Note_on_c, 1, 56, 127
3, 66456, Note_on_c, 1, 56, 0
3, 66474, Note_on_c, 1, 57, 127
3, 66505, Note_on_c, 1, 57, 0
3, 66531, Note_on_c, 1, 57, 108
3, 66561, Note_on_c, 1, 57, 0
3, 66598, Note_on_c, 1, 59, 127
3, 66626, Note_on_c, 1, 59, 0
3, 66661, Note_on_c, 1, 59, 127
3, 66682, Note_on_c, 1, 59, 0
3, 66723, Note_on_c, 1, 56, 127
3, 66745, Note_on_c, 1, 56, 0
3, 66777, Note_on_c, 1, 56, 127
3, 66803, Note_on_c, 1, 56, 0
3, 66837, Note_on_c, 1, 56, 127
3, 66863, Note_on_c, 1, 56, 0
3, 66891, Note_on_c, 1, 56, 127
3, 66919, Note_on_c, 1, 56, 0
3, 66953, Note_on_c, 1, 56, 127
3, 66981, Note_on_c, 1, 56, 0
3, 67014, Note_on_c, 1, 56, 127
3, 67042, Note_on_c, 1, 56, 0
3, 67078, Note_on_c, 1, 56, 127
3, 67120, Note_on_c, 1, 56, 0
3, 67195, Note_on_c, 1, 57, 127
3, 67252, Note_on_c, 1, 57, 0
3, 67500, Note_on_c, 1, 56, 127
3, 67527, Note_on_c, 1, 56, 0
3, 67554, Note_on_c, 1, 56, 127
3, 67587, Note_on_c, 1, 56, 0
3, 67617, Note_on_c, 1, 56, 124
3, 67642, Note_on_c, 1, 56, 0
3, 67671, Note_on_c, 1, 61, 127
3, 67697, Note_on_c, 1, 61, 0
3, 67730, Note_on_c, 1, 61, 127
3, 67757, Note_on_c, 1, 61, 0
3, 67793, Note_on_c, 1, 61, 127
3, 67818, Note_on_c, 1, 61, 0
3, 67846, Note_on_c, 1, 61, 127
3, 67873, Note_on_c, 1, 61, 0
3, 67913, Note_on_c, 1, 56, 127
3, 67940, Note_on_c, 1, 56, 0
3, 67976, Note_on_c, 1, 56, 127
3, 68001, Note_on_c, 1, 56, 0
3, 68028, Note_on_c, 1, 56, 112
3, 68063, Note_on_c, 1, 56, 0
3, 68090, Note_on_c, 1, 57, 127
3, 68140, Note_on_c, 1, 57, 0
3, 68334, Note_on_c, 1, 56, 127
3, 68373, Note_on_c, 1, 56, 0
3, 68393, Note_on_c, 1, 57, 127
3, 68422, Note_on_c, 1, 57, 0
3, 68454, Note_on_c, 1, 57, 105
3, 68485, Note_on_c, 1, 57, 0
3, 68515, Note_on_c, 1, 59, 127
3, 68543, Note_on_c, 1, 59, 0
3, 68572, Note_on_c, 1, 59, 119
3, 68598, Note_on_c, 1, 59, 0
3, 68637, Note_on_c, 1, 56, 127
3, 68665, Note_on_c, 1, 56, 0
3, 68696, Note_on_c, 1, 56, 127
3, 68722, Note_on_c, 1, 56, 0
3, 68757, Note_on_c, 1, 56, 127
3, 68785, Note_on_c, 1, 56, 0
3, 68817, Note_on_c, 1, 56, 127
3, 68843, Note_on_c, 1, 56, 0
3, 68874, Note_on_c, 1, 56, 127
3, 68904, Note_on_c, 1, 56, 0
3, 68993, Note_on_c, 1, 56, 127
3, 69027, Note_on_c, 1, 56, 0
3, 69117, Note_on_c, 1, 56, 127
3, 69151, Note_on_c, 1, 56, 0
3, 69230, Note_on_c, 1, 54, 127
3, 69272, Note_on_c, 1, 54, 0
3, 69351, Note_on_c, 1, 52, 127
3, 69399, Note_on_c, 1, 52, 0
3, 69472, Note_on_c, 1, 51, 127
3, 69523, Note_on_c, 1, 51, 0
3, 69600, Note_on_c, 1, 68, 100
3, 69600, Note_on_c, 1, 61, 127
3, 69604, Note_on_c, 1, 68, 127
3, 69628, Note_on_c, 1, 68, 0
3, 69632, Note_on_c, 1, 61, 0
3, 69657, Note_on_c, 1, 68, 127
3, 69660, Note_on_c, 1, 68, 0
3, 69660, Note_on_c, 1, 68, 100
3, 69660, Note_on_c, 1, 61, 124
3, 69682, Note_on_c, 1, 68, 0
3, 69686, Note_on_c, 1, 61, 0
3, 69717, Note_on_c, 1, 68, 127
3, 69718, Note_on_c, 1, 61, 127
3, 69720, Note_on_c, 1, 68, 0
3, 69720, Note_on_c, 1, 68, 100
3, 69742, Note_on_c, 1, 68, 0
3, 69746, Note_on_c, 1, 61, 0
3, 69774, Note_on_c, 1, 61, 115
3, 69777, Note_on_c, 1, 68, 127
3, 69780, Note_on_c, 1, 68, 0
3, 69780, Note_on_c, 1, 68, 100
3, 69799, Note_on_c, 1, 61, 0
3, 69800, Note_on_c, 1, 68, 0
3, 69834, Note_on_c, 1, 63, 112
3, 69840, Note_on_c, 1, 68, 0
3, 69840, Note_on_c, 1, 63, 100
3, 69841, Note_on_c, 1, 56, 127
3, 69900, Note_on_c, 1, 63, 0
3, 69922, Note_on_c, 1, 56, 0
3, 69922, Note_on_c, 1, 63, 0
3, 69949, Note_on_c, 1, 63, 105
3, 69957, Note_on_c, 1, 56, 127
3, 69960, Note_on_c, 1, 63, 100
3, 69985, Note_on_c, 1, 63, 0
3, 69995, Note_on_c, 1, 56, 0
3, 70018, Note_on_c, 1, 57, 127
3, 70018, Note_on_c, 1, 64, 127
3, 70020, Note_on_c, 1, 63, 0
3, 70020, Note_on_c, 1, 64, 100
3, 70072, Note_on_c, 1, 57, 0
3, 70080, Note_on_c, 1, 64, 0
3, 70080, Note_on_c, 1, 64, 0
3, 70259, Note_on_c, 1, 63, 127
3, 70260, Note_on_c, 1, 64, 100
3, 70260, Note_on_c, 1, 56, 127
3, 70290, Note_on_c, 1, 63, 0
3, 70296, Note_on_c, 1, 56, 0
3, 70314, Note_on_c, 1, 57, 127
3, 70320, Note_on_c, 1, 64, 0
3, 70320, Note_on_c, 1, 64, 100
3, 70323, Note_on_c, 1, 64, 127
3, 70345, Note_on_c, 1, 57, 0
3, 70347, Note_on_c, 1, 64, 0
3, 70371, Note_on_c, 1, 57, 108
3, 70376, Note_on_c, 1, 64, 127
3, 70380, Note_on_c, 1, 64, 0
3, 70380, Note_on_c, 1, 64, 100
3, 70401, Note_on_c, 1, 57, 0
3, 70403, Note_on_c, 1, 64, 0
3, 70435, Note_on_c, 1, 66, 127
3, 70438, Note_on_c, 1, 59, 127
3, 70440, Note_on_c, 1, 64, 0
3, 70440, Note_on_c, 1, 66, 100
3, 70458, Note_on_c, 1, 66, 0
3, 70466, Note_on_c, 1, 59, 0
3, 70491, Note_on_c, 1, 66, 127
3, 70500, Note_on_c, 1, 66, 0
3, 70500, Note_on_c, 1, 66, 100
3, 70501, Note_on_c, 1, 59, 127
3, 70516, Note_on_c, 1, 66, 0
3, 70522, Note_on_c, 1, 59, 0
3, 70556, Note_on_c, 1, 63, 127
3, 70557, Note_on_c, 1, 65, 108
3, 70560, Note_on_c, 1, 66, 0
3, 70560, Note_on_c, 1, 63, 100
3, 70563, Note_on_c, 1, 56, 127
3, 70577, Note_on_c, 1, 65, 0
3, 70582, Note_on_c, 1, 63, 0
3, 70585, Note_on_c, 1, 56, 0
3, 70616, Note_on_c, 1, 63, 127
3, 70617, Note_on_c, 1, 56, 127
3, 70620, Note_on_c, 1, 63, 0
3, 70641, Note_on_c, 1, 63, 0
3, 70643, Note_on_c, 1, 56, 0
3, 70676, Note_on_c, 1, 63, 127
3, 70677, Note_on_c, 1, 56, 127
3, 70699, Note_on_c, 1, 63, 0
3, 70703, Note_on_c, 1, 56, 0
3, 70731, Note_on_c, 1, 56, 127
3, 70736, Note_on_c, 1, 63, 127
3, 70758, Note_on_c, 1, 63, 0
3, 70759, Note_on_c, 1, 56, 0
3, 70793, Note_on_c, 1, 56, 127
3, 70796, Note_on_c, 1, 63, 127
3, 70821, Note_on_c, 1, 63, 0
3, 70821, Note_on_c, 1, 56, 0
3, 70854, Note_on_c, 1, 56, 127
3, 70857, Note_on_c, 1, 63, 127
3, 70880, Note_on_c, 1, 63, 0
3, 70882, Note_on_c, 1, 56, 0
3, 70917, Note_on_c, 1, 63, 127
3, 70918, Note_on_c, 1, 56, 127
3, 70960, Note_on_c, 1, 56, 0
3, 70983, Note_on_c, 1, 63, 0
3, 71035, Note_on_c, 1, 57, 127
3, 71035, Note_on_c, 1, 64, 127
3, 71092, Note_on_c, 1, 57, 0
3, 71096, Note_on_c, 1, 64, 0
3, 71339, Note_on_c, 1, 63, 127
3, 71340, Note_on_c, 1, 56, 127
3, 71363, Note_on_c, 1, 63, 0
3, 71367, Note_on_c, 1, 56, 0
3, 71394, Note_on_c, 1, 56, 127
3, 71397, Note_on_c, 1, 63, 127
3, 71421, Note_on_c, 1, 63, 0
3, 71427, Note_on_c, 1, 56, 0
3, 71452, Note_on_c, 1, 63, 127
3, 71457, Note_on_c, 1, 56, 124
3, 71477, Note_on_c, 1, 63, 0
3, 71482, Note_on_c, 1, 56, 0
3, 71511, Note_on_c, 1, 61, 127
3, 71518, Note_on_c, 1, 68, 127
3, 71537, Note_on_c, 1, 61, 0
3, 71543, Note_on_c, 1, 68, 0
3, 71570, Note_on_c, 1, 61, 127
3, 71579, Note_on_c, 1, 68, 127
3, 71597, Note_on_c, 1, 61, 0
3, 71603, Note_on_c, 1, 68, 0
3, 71633, Note_on_c, 1, 61, 127
3, 71636, Note_on_c, 1, 68, 127
3, 71658, Note_on_c, 1, 61, 0
3, 71660, Note_on_c, 1, 68, 0
3, 71686, Note_on_c, 1, 61, 127
3, 71695, Note_on_c, 1, 68, 127
3, 71712, Note_on_c, 1, 68, 0
3, 71713, Note_on_c, 1, 61, 0
3, 71753, Note_on_c, 1, 56, 127
3, 71759, Note_on_c, 1, 63, 127
3, 71759, Note_on_c, 1, 65, 127
3, 71777, Note_on_c, 1, 65, 0
3, 71778, Note_on_c, 1, 63, 0
3, 71780, Note_on_c, 1, 56, 0
3, 71813, Note_on_c, 1, 63, 99
3, 71816, Note_on_c, 1, 56, 127
3, 71836, Note_on_c, 1, 63, 0
3, 71841, Note_on_c, 1, 56, 0
3, 71868, Note_on_c, 1, 56, 112
3, 71874, Note_on_c, 1, 63, 127
3, 71899, Note_on_c, 1, 63, 0
3, 71903, Note_on_c, 1, 56, 0
3, 71930, Note_on_c, 1, 57, 127
3, 71933, Note_on_c, 1, 64, 127
3, 71980, Note_on_c, 1, 57, 0
3, 71982, Note_on_c, 1, 64, 0
3, 72174, Note_on_c, 1, 56, 127
3, 72181, Note_on_c, 1, 63, 127
3, 72209, Note_on_c, 1, 63, 0
3, 72213, Note_on_c, 1, 56, 0
3, 72233, Note_on_c, 1, 57, 127
3, 72238, Note_on_c, 1, 64, 127
3, 72262, Note_on_c, 1, 57, 0
3, 72265, Note_on_c, 1, 64, 0
3, 72294, Note_on_c, 1, 57, 105
3, 72298, Note_on_c, 1, 64, 127
3, 72322, Note_on_c, 1, 64, 0
3, 72325, Note_on_c, 1, 57, 0
3, 72355, Note_on_c, 1, 59, 127
3, 72360, Note_on_c, 1, 66, 127
3, 72383, Note_on_c, 1, 66, 0
3, 72383, Note_on_c, 1, 59, 0
3, 72412, Note_on_c, 1, 59, 119
3, 72418, Note_on_c, 1, 66, 127
3, 72438, Note_on_c, 1, 66, 0
3, 72438, Note_on_c, 1, 59, 0
3, 72477, Note_on_c, 1, 56, 127
3, 72482, Note_on_c, 1, 63, 127
3, 72505, Note_on_c, 1, 63, 0
3, 72505, Note_on_c, 1, 56, 0
3, 72536, Note_on_c, 1, 56, 127
3, 72540, Note_on_c, 1, 63, 127
3, 72562, Note_on_c, 1, 63, 0
3, 72562, Note_on_c, 1, 56, 0
3, 72597, Note_on_c, 1, 56, 127
3, 72599, Note_on_c, 1, 63, 127
3, 72623, Note_on_c, 1, 63, 0
3, 72625, Note_on_c, 1, 56, 0
3, 72657, Note_on_c, 1, 56, 127
3, 72661, Note_on_c, 1, 63, 127
3, 72683, Note_on_c, 1, 56, 0
3, 72686, Note_on_c, 1, 63, 0
3, 72714, Note_on_c, 1, 56, 127
3, 72719, Note_on_c, 1, 63, 127
3, 72744, Note_on_c, 1, 56, 0
3, 72753, Note_on_c, 1, 63, 0
3, 72833, Note_on_c, 1, 56, 127
3, 72838, Note_on_c, 1, 63, 127
3, 72867, Note_on_c, 1, 56, 0
3, 72875, Note_on_c, 1, 63, 0
3, 72957, Note_on_c, 1, 56, 127
3, 72959, Note_on_c, 1, 63, 127
3, 72991, Note_on_c, 1, 56, 0
3, 73000, Note_on_c, 1, 63, 0
3, 73070, Note_on_c, 1, 54, 127
3, 73112, Note_on_c, 1, 54, 0
3, 73191, Note_on_c, 1, 52, 127
3, 73239, Note_on_c, 1, 52, 0
3, 73312, Note_on_c, 1, 51, 127
3, 73363, Note_on_c, 1, 51, 0
3, 73566, Note_on_c, 1, 56, 127
3, 73594, Note_on_c, 1, 56, 0
3, 73629, Note_on_c, 1, 56, 127
3, 73655, Note_on_c, 1, 56, 0
3, 73687, Note_on_c, 1, 56, 127
3, 73711, Note_on_c, 1, 56, 0
3, 73743, Note_on_c, 1, 56, 127
3, 73770, Note_on_c, 1, 56, 0
3, 73805, Note_on_c, 1, 56, 127
3, 73831, Note_on_c, 1, 56, 0
3, 73866, Note_on_c, 1, 56, 127
3, 73885, Note_on_c, 1, 56, 0
3, 73920, Note_on_c, 1, 56, 127
3, 73943, Note_on_c, 1, 56, 0
3, 73979, Note_on_c, 1, 56, 127
3, 73996, Note_on_c, 1, 56, 0
3, 74043, Note_on_c, 1, 56, 127
3, 74094, Note_on_c, 1, 56, 0
3, 74519, Note_on_c, 1, 44, 127
3, 74545, Note_on_c, 1, 44, 0
3, 74579, Note_on_c, 1, 44, 127
3, 74605, Note_on_c, 1, 44, 0
3, 74639, Note_on_c, 1, 44, 127
3, 74664, Note_on_c, 1, 44, 0
3, 74700, Note_on_c, 1, 44, 127
3, 74720, Note_on_c, 1, 44, 0
3, 74758, Note_on_c, 1, 44, 127
3, 74779, Note_on_c, 1, 44, 0
3, 74816, Note_on_c, 1, 44, 127
3, 74841, Note_on_c, 1, 44, 0
3, 74884, Note_on_c, 1, 44, 112
3, 74907, Note_on_c, 1, 44, 0
3, 74945, Note_on_c, 1, 44, 119
3, 74966, Note_on_c, 1, 44, 0
3, 75005, Note_on_c, 1, 44, 127
3, 75068, Note_on_c, 1, 44, 0
3, 75117, Note_on_c, 1, 44, 127
3, 75234, Note_on_c, 1, 44, 0
3, 75246, Note_on_c, 1, 56, 127
3, 75321, Note_on_c, 1, 56, 0
3, 75370, Note_on_c, 1, 61, 127
3, 75393, Note_on_c, 1, 61, 0
3, 75425, Note_on_c, 1, 61, 124
3, 75449, Note_on_c, 1, 61, 0
3, 75488, Note_on_c, 1, 61, 127
3, 75512, Note_on_c, 1, 61, 0
3, 75547, Note_on_c, 1, 61, 127
3, 75571, Note_on_c, 1, 61, 0
3, 75610, Note_on_c, 1, 56, 127
3, 75691, Note_on_c, 1, 56, 0
3, 75726, Note_on_c, 1, 56, 127
3, 75751, Note_on_c, 1, 56, 0
3, 75784, Note_on_c, 1, 57, 127
3, 75839, Note_on_c, 1, 57, 0
3, 76032, Note_on_c, 1, 56, 127
3, 76061, Note_on_c, 1, 56, 0
3, 76085, Note_on_c, 1, 57, 127
3, 76111, Note_on_c, 1, 57, 0
3, 76139, Note_on_c, 1, 57, 112
3, 76167, Note_on_c, 1, 57, 0
3, 76198, Note_on_c, 1, 59, 127
3, 76223, Note_on_c, 1, 59, 0
3, 76262, Note_on_c, 1, 59, 127
3, 76280, Note_on_c, 1, 59, 0
3, 76321, Note_on_c, 1, 56, 127
3, 76345, Note_on_c, 1, 56, 0
3, 76383, Note_on_c, 1, 56, 127
3, 76404, Note_on_c, 1, 56, 0
3, 76444, Note_on_c, 1, 56, 127
3, 76460, Note_on_c, 1, 56, 0
3, 76503, Note_on_c, 1, 56, 127
3, 76519, Note_on_c, 1, 56, 0
3, 76563, Note_on_c, 1, 56, 127
3, 76579, Note_on_c, 1, 56, 0
3, 76623, Note_on_c, 1, 56, 127
3, 76644, Note_on_c, 1, 56, 0
3, 76685, Note_on_c, 1, 56, 127
3, 76778, Note_on_c, 1, 56, 0
3, 76804, Note_on_c, 1, 57, 127
3, 76861, Note_on_c, 1, 57, 0
3, 77114, Note_on_c, 1, 56, 127
3, 77138, Note_on_c, 1, 56, 0
3, 77172, Note_on_c, 1, 56, 124
3, 77198, Note_on_c, 1, 56, 0
3, 77231, Note_on_c, 1, 56, 127
3, 77258, Note_on_c, 1, 56, 0
3, 77284, Note_on_c, 1, 61, 127
3, 77314, Note_on_c, 1, 61, 0
3, 77350, Note_on_c, 1, 61, 127
3, 77374, Note_on_c, 1, 61, 0
3, 77404, Note_on_c, 1, 61, 127
3, 77430, Note_on_c, 1, 61, 0
3, 77459, Note_on_c, 1, 61, 108
3, 77483, Note_on_c, 1, 61, 0
3, 77521, Note_on_c, 1, 56, 127
3, 77551, Note_on_c, 1, 56, 0
3, 77584, Note_on_c, 1, 56, 124
3, 77607, Note_on_c, 1, 56, 0
3, 77636, Note_on_c, 1, 56, 112
3, 77668, Note_on_c, 1, 56, 0
3, 77705, Note_on_c, 1, 57, 127
3, 77753, Note_on_c, 1, 57, 0
3, 77942, Note_on_c, 1, 56, 127
3, 77975, Note_on_c, 1, 56, 0
3, 78004, Note_on_c, 1, 57, 127
3, 78029, Note_on_c, 1, 57, 0
3, 78061, Note_on_c, 1, 57, 105
3, 78089, Note_on_c, 1, 57, 0
3, 78115, Note_on_c, 1, 59, 127
3, 78140, Note_on_c, 1, 59, 0
3, 78174, Note_on_c, 1, 59, 115
3, 78197, Note_on_c, 1, 59, 0
3, 78238, Note_on_c, 1, 56, 127
3, 78263, Note_on_c, 1, 56, 0
3, 78301, Note_on_c, 1, 56, 127
3, 78322, Note_on_c, 1, 56, 0
3, 78359, Note_on_c, 1, 56, 127
3, 78381, Note_on_c, 1, 56, 0
3, 78420, Note_on_c, 1, 56, 127
3, 78441, Note_on_c, 1, 56, 0
3, 78476, Note_on_c, 1, 56, 127
3, 78504, Note_on_c, 1, 56, 0
3, 78602, Note_on_c, 1, 56, 127
3, 78626, Note_on_c, 1, 56, 0
3, 78718, Note_on_c, 1, 56, 127
3, 78750, Note_on_c, 1, 56, 0
3, 78843, Note_on_c, 1, 54, 127
3, 78874, Note_on_c, 1, 54, 0
3, 78959, Note_on_c, 1, 52, 127
3, 78996, Note_on_c, 1, 52, 0
3, 79084, Note_on_c, 1, 51, 127
3, 79132, Note_on_c, 1, 51, 0
3, 79228, Note_on_c, 1, 61, 127
3, 79256, Note_on_c, 1, 61, 0
3, 79287, Note_on_c, 1, 61, 127
3, 79311, Note_on_c, 1, 61, 0
3, 79343, Note_on_c, 1, 61, 127
3, 79370, Note_on_c, 1, 61, 0
3, 79394, Note_on_c, 1, 61, 127
3, 79424, Note_on_c, 1, 61, 0
3, 79446, Note_on_c, 1, 56, 127
3, 79525, Note_on_c, 1, 56, 0
3, 79557, Note_on_c, 1, 56, 127
3, 79595, Note_on_c, 1, 56, 0
3, 79615, Note_on_c, 1, 57, 127
3, 79659, Note_on_c, 1, 57, 0
3, 79856, Note_on_c, 1, 56, 127
3, 79882, Note_on_c, 1, 56, 0
3, 79911, Note_on_c, 1, 57, 127
3, 79937, Note_on_c, 1, 57, 0
3, 79966, Note_on_c, 1, 57, 99
3, 79996, Note_on_c, 1, 57, 0
3, 80034, Note_on_c, 1, 59, 127
3, 80060, Note_on_c, 1, 59, 0
3, 80093, Note_on_c, 1, 59, 127
3, 80118, Note_on_c, 1, 59, 0
3, 80162, Note_on_c, 1, 56, 127
3, 80184, Note_on_c, 1, 56, 0
3, 80225, Note_on_c, 1, 56, 127
3, 80248, Note_on_c, 1, 56, 0
3, 80284, Note_on_c, 1, 56, 127
3, 80303, Note_on_c, 1, 56, 0
3, 80342, Note_on_c, 1, 56, 127
3, 80362, Note_on_c, 1, 56, 0
3, 80403, Note_on_c, 1, 56, 127
3, 80424, Note_on_c, 1, 56, 0
3, 80461, Note_on_c, 1, 56, 127
3, 80484, Note_on_c, 1, 56, 0
3, 80525, Note_on_c, 1, 56, 127
3, 80611, Note_on_c, 1, 56, 0
3, 80643, Note_on_c, 1, 57, 127
3, 80701, Note_on_c, 1, 57, 0
3, 80947, Note_on_c, 1, 56, 127
3, 80971, Note_on_c, 1, 56, 0
3, 81007, Note_on_c, 1, 56, 127
3, 81031, Note_on_c, 1, 56, 0
3, 81064, Note_on_c, 1, 56, 127
3, 81088, Note_on_c, 1, 56, 0
3, 81117, Note_on_c, 1, 61, 127
3, 81147, Note_on_c, 1, 61, 0
3, 81181, Note_on_c, 1, 61, 124
3, 81207, Note_on_c, 1, 61, 0
3, 81241, Note_on_c, 1, 61, 124
3, 81265, Note_on_c, 1, 61, 0
3, 81299, Note_on_c, 1, 61, 127
3, 81323, Note_on_c, 1, 61, 0
3, 81360, Note_on_c, 1, 56, 127
3, 81387, Note_on_c, 1, 56, 0
3, 81420, Note_on_c, 1, 56, 127
3, 81446, Note_on_c, 1, 56, 0
3, 81480, Note_on_c, 1, 56, 119
3, 81513, Note_on_c, 1, 56, 0
3, 81542, Note_on_c, 1, 57, 127
3, 81593, Note_on_c, 1, 57, 0
3, 81776, Note_on_c, 1, 56, 127
3, 81820, Note_on_c, 1, 56, 0
3, 81841, Note_on_c, 1, 57, 127
3, 81867, Note_on_c, 1, 57, 0
3, 81896, Note_on_c, 1, 57, 94
3, 81927, Note_on_c, 1, 57, 0
3, 81953, Note_on_c, 1, 59, 127
3, 81980, Note_on_c, 1, 59, 0
3, 82013, Note_on_c, 1, 59, 108
3, 82036, Note_on_c, 1, 59, 0
3, 82082, Note_on_c, 1, 56, 127
3, 82105, Note_on_c, 1, 56, 0
3, 82143, Note_on_c, 1, 56, 127
3, 82163, Note_on_c, 1, 56, 0
3, 82203, Note_on_c, 1, 56, 119
3, 82223, Note_on_c, 1, 56, 0
3, 82264, Note_on_c, 1, 56, 127
3, 82283, Note_on_c, 1, 56, 0
3, 82320, Note_on_c, 1, 56, 127
3, 82362, Note_on_c, 1, 56, 0
3, 82436, Note_on_c, 1, 56, 127
3, 82466, Note_on_c, 1, 56, 0
3, 82548, Note_on_c, 1, 56, 127
3, 82594, Note_on_c, 1, 56, 0
3, 82668, Note_on_c, 1, 54, 127
3, 82711, Note_on_c, 1, 54, 0
3, 82791, Note_on_c, 1, 52, 127
3, 82835, Note_on_c, 1, 52, 0
3, 82915, Note_on_c, 1, 51, 127
3, 82963, Note_on_c, 1, 51, 0
3, 83034, Note_on_c, 1, 49, 127
3, 83087, Note_on_c, 1, 49, 0
3, 83087, End_track
4, 0, Start_track
4, 0, MIDI_port, 0
4, 0, Title_t, "Destiny's Child      (Bass)"
4, 0, Control_c, 2, 0, 0
4, 0, Control_c, 2, 32, 32
4, 0, Program_c, 2, 39
4, 4319, Note_on_c, 2, 37, 127
4, 4386, Note_on_c, 2, 37, 0
4, 4502, Note_on_c, 2, 35, 127
4, 4543, Note_on_c, 2, 35, 0
4, 4565, Note_on_c, 2, 37, 127
4, 4614, Note_on_c, 2, 37, 0
4, 4741, Note_on_c, 2, 35, 127
4, 4783, Note_on_c, 2, 35, 0
4, 4805, Note_on_c, 2, 37, 127
4, 4853, Note_on_c, 2, 37, 0
4, 4983, Note_on_c, 2, 35, 127
4, 5018, Note_on_c, 2, 35, 0
4, 5044, Note_on_c, 2, 37, 127
4, 5093, Note_on_c, 2, 37, 0
4, 5222, Note_on_c, 2, 35, 127
4, 5246, Note_on_c, 2, 35, 0
4, 5286, Note_on_c, 2, 32, 127
4, 5310, Note_on_c, 2, 32, 0
4, 5345, Note_on_c, 2, 32, 127
4, 5366, Note_on_c, 2, 32, 0
4, 5404, Note_on_c, 2, 32, 127
4, 5422, Note_on_c, 2, 32, 0
4, 5463, Note_on_c, 2, 32, 127
4, 5482, Note_on_c, 2, 32, 0
4, 5523, Note_on_c, 2, 32, 127
4, 5542, Note_on_c, 2, 32, 0
4, 5582, Note_on_c, 2, 32, 127
4, 5600, Note_on_c, 2, 32, 0
4, 5643, Note_on_c, 2, 32, 127
4, 5662, Note_on_c, 2, 32, 0
4, 5701, Note_on_c, 2, 32, 127
4, 5722, Note_on_c, 2, 32, 0
4, 5764, Note_on_c, 2, 32, 127
4, 5783, Note_on_c, 2, 32, 0
4, 5825, Note_on_c, 2, 32, 127
4, 5842, Note_on_c, 2, 32, 0
4, 5887, Note_on_c, 2, 30, 127
4, 5914, Note_on_c, 2, 30, 0
4, 5945, Note_on_c, 2, 30, 115
4, 5969, Note_on_c, 2, 30, 0
4, 6001, Note_on_c, 2, 29, 127
4, 6002, Note_on_c, 2, 28, 127
4, 6014, Note_on_c, 2, 28, 0
4, 6039, Note_on_c, 2, 29, 0
4, 6124, Note_on_c, 2, 27, 127
4, 6198, Note_on_c, 2, 27, 0
4, 6242, Note_on_c, 2, 37, 127
4, 6308, Note_on_c, 2, 37, 0
4, 6428, Note_on_c, 2, 36, 127
4, 6488, Note_on_c, 2, 36, 0
4, 7199, Note_on_c, 2, 37, 127
4, 7289, Note_on_c, 2, 37, 0
4, 7386, Note_on_c, 2, 36, 127
4, 7457, Note_on_c, 2, 36, 0
4, 8042, Note_on_c, 2, 32, 127
4, 8070, Note_on_c, 2, 32, 0
4, 8169, Note_on_c, 2, 37, 127
4, 8234, Note_on_c, 2, 37, 0
4, 8345, Note_on_c, 2, 36, 127
4, 8409, Note_on_c, 2, 36, 0
4, 8998, Note_on_c, 2, 32, 127
4, 9057, Note_on_c, 2, 32, 0
4, 9125, Note_on_c, 2, 37, 127
4, 9192, Note_on_c, 2, 37, 0
4, 10077, Note_on_c, 2, 37, 127
4, 10162, Note_on_c, 2, 37, 0
4, 10266, Note_on_c, 2, 36, 127
4, 10355, Note_on_c, 2, 36, 0
4, 11042, Note_on_c, 2, 37, 127
4, 11118, Note_on_c, 2, 37, 0
4, 11220, Note_on_c, 2, 36, 124
4, 11305, Note_on_c, 2, 36, 0
4, 12003, Note_on_c, 2, 37, 127
4, 12077, Note_on_c, 2, 37, 0
4, 12194, Note_on_c, 2, 36, 127
4, 12266, Note_on_c, 2, 36, 0
4, 12970, Note_on_c, 2, 37, 127
4, 13028, Note_on_c, 2, 37, 0
4, 13149, Note_on_c, 2, 36, 127
4, 13213, Note_on_c, 2, 36, 0
4, 13797, Note_on_c, 2, 32, 45
4, 13898, Note_on_c, 2, 32, 0
4, 13926, Note_on_c, 2, 37, 127
4, 13985, Note_on_c, 2, 37, 0
4, 14162, Note_on_c, 2, 37, 127
4, 14222, Note_on_c, 2, 37, 0
4, 14419, Note_on_c, 2, 37, 127
4, 14463, Note_on_c, 2, 37, 0
4, 14529, Note_on_c, 2, 37, 127
4, 14584, Note_on_c, 2, 37, 0
4, 14643, Note_on_c, 2, 37, 127
4, 14696, Note_on_c, 2, 37, 0
4, 14769, Note_on_c, 2, 37, 127
4, 14826, Note_on_c, 2, 37, 0
4, 14875, Note_on_c, 2, 32, 119
4, 14949, Note_on_c, 2, 32, 0
4, 14995, Note_on_c, 2, 32, 112
4, 15075, Note_on_c, 2, 32, 0
4, 15123, Note_on_c, 2, 32, 127
4, 15187, Note_on_c, 2, 32, 0
4, 15245, Note_on_c, 2, 32, 124
4, 15327, Note_on_c, 2, 32, 0
4, 15365, Note_on_c, 2, 44, 124
4, 15443, Note_on_c, 2, 44, 0
4, 15483, Note_on_c, 2, 42, 99
4, 15569, Note_on_c, 2, 42, 0
4, 15607, Note_on_c, 2, 40, 127
4, 15694, Note_on_c, 2, 40, 0
4, 15725, Note_on_c, 2, 39, 99
4, 15793, Note_on_c, 2, 39, 0
4, 15843, Note_on_c, 2, 37, 127
4, 15908, Note_on_c, 2, 37, 0
4, 16447, Note_on_c, 2, 37, 127
4, 16553, Note_on_c, 2, 37, 0
4, 16615, Note_on_c, 2, 37, 127
4, 16775, Note_on_c, 2, 37, 0
4, 16803, Note_on_c, 2, 32, 127
4, 16885, Note_on_c, 2, 32, 0
4, 17411, Note_on_c, 2, 32, 127
4, 17461, Note_on_c, 2, 32, 0
4, 17470, Note_on_c, 2, 44, 127
4, 17530, Note_on_c, 2, 44, 0
4, 17587, Note_on_c, 2, 32, 127
4, 17639, Note_on_c, 2, 32, 0
4, 17644, Note_on_c, 2, 44, 127
4, 17750, Note_on_c, 2, 44, 0
4, 17770, Note_on_c, 2, 37, 127
4, 17844, Note_on_c, 2, 37, 0
4, 18364, Note_on_c, 2, 37, 127
4, 18468, Note_on_c, 2, 37, 0
4, 18547, Note_on_c, 2, 37, 127
4, 18691, Note_on_c, 2, 37, 0
4, 18717, Note_on_c, 2, 32, 127
4, 18811, Note_on_c, 2, 32, 0
4, 19211, Note_on_c, 2, 32, 127
4, 19257, Note_on_c, 2, 32, 0
4, 19264, Note_on_c, 2, 44, 127
4, 19306, Note_on_c, 2, 44, 0
4, 19333, Note_on_c, 2, 30, 127
4, 19389, Note_on_c, 2, 30, 0
4, 19392, Note_on_c, 2, 42, 127
4, 19394, Note_on_c, 2, 40, 105
4, 19433, Note_on_c, 2, 40, 0
4, 19435, Note_on_c, 2, 42, 0
4, 19454, Note_on_c, 2, 28, 119
4, 19454, Note_on_c, 2, 30, 102
4, 19491, Note_on_c, 2, 30, 0
4, 19504, Note_on_c, 2, 28, 0
4, 19508, Note_on_c, 2, 40, 127
4, 19557, Note_on_c, 2, 40, 0
4, 19569, Note_on_c, 2, 27, 108
4, 19621, Note_on_c, 2, 27, 0
4, 19622, Note_on_c, 2, 39, 53
4, 19653, Note_on_c, 2, 39, 0
4, 19694, Note_on_c, 2, 37, 127
4, 19762, Note_on_c, 2, 37, 0
4, 20285, Note_on_c, 2, 37, 127
4, 20362, Note_on_c, 2, 37, 0
4, 20471, Note_on_c, 2, 37, 127
4, 20610, Note_on_c, 2, 37, 0
4, 20629, Note_on_c, 2, 32, 127
4, 20722, Note_on_c, 2, 32, 0
4, 21247, Note_on_c, 2, 32, 127
4, 21298, Note_on_c, 2, 32, 0
4, 21306, Note_on_c, 2, 44, 127
4, 21370, Note_on_c, 2, 44, 0
4, 21427, Note_on_c, 2, 44, 127
4, 21573, Note_on_c, 2, 44, 0
4, 21600, Note_on_c, 2, 37, 127
4, 21674, Note_on_c, 2, 37, 0
4, 22197, Note_on_c, 2, 37, 127
4, 22272, Note_on_c, 2, 37, 0
4, 22384, Note_on_c, 2, 37, 127
4, 22535, Note_on_c, 2, 37, 0
4, 22560, Note_on_c, 2, 32, 127
4, 22659, Note_on_c, 2, 32, 0
4, 23045, Note_on_c, 2, 32, 127
4, 23093, Note_on_c, 2, 32, 0
4, 23099, Note_on_c, 2, 44, 127
4, 23147, Note_on_c, 2, 44, 0
4, 23170, Note_on_c, 2, 30, 124
4, 23221, Note_on_c, 2, 30, 0
4, 23221, Note_on_c, 2, 42, 94
4, 23265, Note_on_c, 2, 42, 0
4, 23284, Note_on_c, 2, 28, 127
4, 23342, Note_on_c, 2, 28, 0
4, 23343, Note_on_c, 2, 40, 115
4, 23393, Note_on_c, 2, 40, 0
4, 23409, Note_on_c, 2, 27, 94
4, 23466, Note_on_c, 2, 27, 0
4, 23478, Note_on_c, 2, 39, 112
4, 23522, Note_on_c, 2, 39, 0
4, 23539, Note_on_c, 2, 37, 127
4, 23594, Note_on_c, 2, 37, 0
4, 23632, Note_on_c, 2, 37, 54
4, 23673, Note_on_c, 2, 37, 0
4, 23952, Note_on_c, 2, 36, 84
4, 23984, Note_on_c, 2, 36, 0
4, 24009, Note_on_c, 2, 37, 108
4, 24054, Note_on_c, 2, 37, 0
4, 24182, Note_on_c, 2, 36, 127
4, 24213, Note_on_c, 2, 36, 0
4, 24242, Note_on_c, 2, 37, 127
4, 24287, Note_on_c, 2, 37, 0
4, 24419, Note_on_c, 2, 36, 127
4, 24444, Note_on_c, 2, 36, 0
4, 24485, Note_on_c, 2, 32, 127
4, 24508, Note_on_c, 2, 32, 0
4, 24543, Note_on_c, 2, 32, 127
4, 24567, Note_on_c, 2, 32, 0
4, 24602, Note_on_c, 2, 32, 127
4, 24627, Note_on_c, 2, 32, 0
4, 24665, Note_on_c, 2, 32, 127
4, 24688, Note_on_c, 2, 32, 0
4, 24727, Note_on_c, 2, 32, 127
4, 24748, Note_on_c, 2, 32, 0
4, 24785, Note_on_c, 2, 32, 127
4, 24806, Note_on_c, 2, 32, 0
4, 24845, Note_on_c, 2, 32, 127
4, 24867, Note_on_c, 2, 32, 0
4, 24905, Note_on_c, 2, 32, 127
4, 24927, Note_on_c, 2, 32, 0
4, 24970, Note_on_c, 2, 32, 127
4, 25006, Note_on_c, 2, 32, 0
4, 25085, Note_on_c, 2, 32, 127
4, 25117, Note_on_c, 2, 32, 0
4, 25210, Note_on_c, 2, 32, 127
4, 25242, Note_on_c, 2, 32, 0
4, 25324, Note_on_c, 2, 32, 124
4, 25381, Note_on_c, 2, 32, 0
4, 25449, Note_on_c, 2, 37, 127
4, 25503, Note_on_c, 2, 37, 0
4, 25624, Note_on_c, 2, 36, 127
4, 25675, Note_on_c, 2, 36, 0
4, 26406, Note_on_c, 2, 37, 127
4, 26475, Note_on_c, 2, 37, 0
4, 26569, Note_on_c, 2, 36, 127
4, 26644, Note_on_c, 2, 36, 0
4, 27362, Note_on_c, 2, 37, 127
4, 27447, Note_on_c, 2, 37, 0
4, 27535, Note_on_c, 2, 36, 127
4, 27611, Note_on_c, 2, 36, 0
4, 28322, Note_on_c, 2, 37, 127
4, 28403, Note_on_c, 2, 37, 0
4, 28500, Note_on_c, 2, 36, 127
4, 28567, Note_on_c, 2, 36, 0
4, 29166, Note_on_c, 2, 32, 92
4, 29245, Note_on_c, 2, 32, 0
4, 29282, Note_on_c, 2, 37, 127
4, 29356, Note_on_c, 2, 37, 0
4, 29468, Note_on_c, 2, 36, 124
4, 29525, Note_on_c, 2, 36, 0
4, 30246, Note_on_c, 2, 37, 127
4, 30303, Note_on_c, 2, 37, 0
4, 30422, Note_on_c, 2, 36, 127
4, 30482, Note_on_c, 2, 36, 0
4, 31205, Note_on_c, 2, 37, 127
4, 31271, Note_on_c, 2, 37, 0
4, 31381, Note_on_c, 2, 36, 127
4, 31448, Note_on_c, 2, 36, 0
4, 32164, Note_on_c, 2, 37, 127
4, 32240, Note_on_c, 2, 37, 0
4, 32342, Note_on_c, 2, 36, 127
4, 32409, Note_on_c, 2, 36, 0
4, 33115, Note_on_c, 2, 37, 115
4, 33187, Note_on_c, 2, 37, 0
4, 33304, Note_on_c, 2, 36, 112
4, 33334, Note_on_c, 2, 36, 0
4, 33365, Note_on_c, 2, 37, 119
4, 33421, Note_on_c, 2, 37, 0
4, 33540, Note_on_c, 2, 36, 127
4, 33576, Note_on_c, 2, 36, 0
4, 33604, Note_on_c, 2, 37, 127
4, 33669, Note_on_c, 2, 37, 0
4, 33787, Note_on_c, 2, 36, 127
4, 33825, Note_on_c, 2, 36, 0
4, 33845, Note_on_c, 2, 37, 127
4, 33897, Note_on_c, 2, 37, 0
4, 34028, Note_on_c, 2, 36, 102
4, 34055, Note_on_c, 2, 36, 0
4, 34088, Note_on_c, 2, 32, 119
4, 34119, Note_on_c, 2, 32, 0
4, 34152, Note_on_c, 2, 32, 119
4, 34177, Note_on_c, 2, 32, 0
4, 34206, Note_on_c, 2, 32, 119
4, 34236, Note_on_c, 2, 32, 0
4, 34265, Note_on_c, 2, 32, 127
4, 34294, Note_on_c, 2, 32, 0
4, 34324, Note_on_c, 2, 32, 127
4, 34356, Note_on_c, 2, 32, 0
4, 34387, Note_on_c, 2, 32, 119
4, 34416, Note_on_c, 2, 32, 0
4, 34447, Note_on_c, 2, 32, 115
4, 34474, Note_on_c, 2, 32, 0
4, 34504, Note_on_c, 2, 32, 108
4, 34531, Note_on_c, 2, 32, 0
4, 34562, Note_on_c, 2, 32, 119
4, 34598, Note_on_c, 2, 32, 0
4, 34686, Note_on_c, 2, 30, 115
4, 34723, Note_on_c, 2, 30, 0
4, 34807, Note_on_c, 2, 28, 115
4, 34855, Note_on_c, 2, 28, 0
4, 34928, Note_on_c, 2, 27, 124
4, 34999, Note_on_c, 2, 27, 0
4, 35050, Note_on_c, 2, 37, 127
4, 35113, Note_on_c, 2, 37, 0
4, 35651, Note_on_c, 2, 37, 127
4, 35711, Note_on_c, 2, 37, 0
4, 35821, Note_on_c, 2, 37, 127
4, 35961, Note_on_c, 2, 37, 0
4, 35997, Note_on_c, 2, 32, 127
4, 36089, Note_on_c, 2, 32, 0
4, 36613, Note_on_c, 2, 32, 112
4, 36670, Note_on_c, 2, 32, 0
4, 36675, Note_on_c, 2, 44, 127
4, 36732, Note_on_c, 2, 44, 0
4, 36779, Note_on_c, 2, 32, 102
4, 36844, Note_on_c, 2, 44, 127
4, 36848, Note_on_c, 2, 32, 0
4, 36934, Note_on_c, 2, 44, 0
4, 36965, Note_on_c, 2, 37, 127
4, 37032, Note_on_c, 2, 37, 0
4, 37554, Note_on_c, 2, 37, 127
4, 37629, Note_on_c, 2, 37, 0
4, 37738, Note_on_c, 2, 37, 127
4, 37842, Note_on_c, 2, 37, 0
4, 37906, Note_on_c, 2, 32, 127
4, 38004, Note_on_c, 2, 32, 0
4, 38398, Note_on_c, 2, 32, 94
4, 38454, Note_on_c, 2, 32, 0
4, 38455, Note_on_c, 2, 44, 119
4, 38494, Note_on_c, 2, 44, 0
4, 38517, Note_on_c, 2, 30, 99
4, 38574, Note_on_c, 2, 30, 0
4, 38575, Note_on_c, 2, 42, 127
4, 38617, Note_on_c, 2, 42, 0
4, 38635, Note_on_c, 2, 28, 108
4, 38698, Note_on_c, 2, 40, 108
4, 38701, Note_on_c, 2, 28, 0
4, 38741, Note_on_c, 2, 40, 0
4, 38752, Note_on_c, 2, 27, 81
4, 38817, Note_on_c, 2, 39, 77
4, 38819, Note_on_c, 2, 27, 0
4, 38866, Note_on_c, 2, 39, 0
4, 38885, Note_on_c, 2, 37, 127
4, 38954, Note_on_c, 2, 37, 0
4, 39485, Note_on_c, 2, 37, 127
4, 39547, Note_on_c, 2, 37, 0
4, 39660, Note_on_c, 2, 37, 127
4, 39816, Note_on_c, 2, 37, 0
4, 39843, Note_on_c, 2, 32, 127
4, 39936, Note_on_c, 2, 32, 0
4, 40434, Note_on_c, 2, 32, 97
4, 40495, Note_on_c, 2, 32, 0
4, 40502, Note_on_c, 2, 44, 127
4, 40558, Note_on_c, 2, 44, 0
4, 40619, Note_on_c, 2, 32, 112
4, 40674, Note_on_c, 2, 32, 0
4, 40677, Note_on_c, 2, 44, 127
4, 40777, Note_on_c, 2, 44, 0
4, 40805, Note_on_c, 2, 37, 127
4, 40884, Note_on_c, 2, 37, 0
4, 41405, Note_on_c, 2, 37, 127
4, 41456, Note_on_c, 2, 37, 0
4, 41581, Note_on_c, 2, 37, 127
4, 41724, Note_on_c, 2, 37, 0
4, 41760, Note_on_c, 2, 32, 127
4, 41853, Note_on_c, 2, 32, 0
4, 42237, Note_on_c, 2, 32, 115
4, 42288, Note_on_c, 2, 32, 0
4, 42295, Note_on_c, 2, 44, 119
4, 42324, Note_on_c, 2, 44, 0
4, 42360, Note_on_c, 2, 28, 105
4, 42413, Note_on_c, 2, 28, 0
4, 42421, Note_on_c, 2, 42, 102
4, 42422, Note_on_c, 2, 40, 74
4, 42449, Note_on_c, 2, 40, 0
4, 42453, Note_on_c, 2, 42, 0
4, 42478, Note_on_c, 2, 28, 127
4, 42535, Note_on_c, 2, 28, 0
4, 42538, Note_on_c, 2, 40, 124
4, 42573, Note_on_c, 2, 40, 0
4, 42595, Note_on_c, 2, 27, 115
4, 42650, Note_on_c, 2, 27, 0
4, 42660, Note_on_c, 2, 39, 119
4, 42694, Note_on_c, 2, 39, 0
4, 42730, Note_on_c, 2, 37, 127
4, 42737, Note_on_c, 2, 37, 108
4, 42793, Note_on_c, 2, 37, 0
4, 42801, Note_on_c, 2, 37, 0
4, 43331, Note_on_c, 2, 37, 127
4, 43391, Note_on_c, 2, 37, 0
4, 43501, Note_on_c, 2, 37, 127
4, 43641, Note_on_c, 2, 37, 0
4, 43677, Note_on_c, 2, 32, 127
4, 43769, Note_on_c, 2, 32, 0
4, 44293, Note_on_c, 2, 32, 112
4, 44350, Note_on_c, 2, 32, 0
4, 44355, Note_on_c, 2, 44, 127
4, 44412, Note_on_c, 2, 44, 0
4, 44459, Note_on_c, 2, 32, 102
4, 44524, Note_on_c, 2, 44, 127
4, 44528, Note_on_c, 2, 32, 0
4, 44614, Note_on_c, 2, 44, 0
4, 44645, Note_on_c, 2, 37, 127
4, 44712, Note_on_c, 2, 37, 0
4, 45234, Note_on_c, 2, 37, 127
4, 45309, Note_on_c, 2, 37, 0
4, 45418, Note_on_c, 2, 37, 127
4, 45522, Note_on_c, 2, 37, 0
4, 45586, Note_on_c, 2, 32, 127
4, 45684, Note_on_c, 2, 32, 0
4, 46078, Note_on_c, 2, 32, 94
4, 46134, Note_on_c, 2, 32, 0
4, 46135, Note_on_c, 2, 44, 119
4, 46174, Note_on_c, 2, 44, 0
4, 46197, Note_on_c, 2, 30, 99
4, 46254, Note_on_c, 2, 30, 0
4, 46255, Note_on_c, 2, 42, 127
4, 46297, Note_on_c, 2, 42, 0
4, 46315, Note_on_c, 2, 28, 108
4, 46378, Note_on_c, 2, 40, 108
4, 46381, Note_on_c, 2, 28, 0
4, 46421, Note_on_c, 2, 40, 0
4, 46432, Note_on_c, 2, 27, 81
4, 46497, Note_on_c, 2, 39, 77
4, 46499, Note_on_c, 2, 27, 0
4, 46546, Note_on_c, 2, 39, 0
4, 46564, Note_on_c, 2, 37, 127
4, 46565, Note_on_c, 2, 37, 127
4, 46631, Note_on_c, 2, 37, 0
4, 46634, Note_on_c, 2, 37, 0
4, 46747, Note_on_c, 2, 35, 127
4, 46788, Note_on_c, 2, 35, 0
4, 46810, Note_on_c, 2, 37, 127
4, 46859, Note_on_c, 2, 37, 0
4, 46986, Note_on_c, 2, 35, 127
4, 47028, Note_on_c, 2, 35, 0
4, 47050, Note_on_c, 2, 37, 127
4, 47098, Note_on_c, 2, 37, 0
4, 47165, Note_on_c, 2, 37, 127
4, 47227, Note_on_c, 2, 37, 0
4, 47228, Note_on_c, 2, 35, 127
4, 47263, Note_on_c, 2, 35, 0
4, 47289, Note_on_c, 2, 37, 127
4, 47338, Note_on_c, 2, 37, 0
4, 47340, Note_on_c, 2, 37, 127
4, 47467, Note_on_c, 2, 35, 127
4, 47491, Note_on_c, 2, 35, 0
4, 47496, Note_on_c, 2, 37, 0
4, 47523, Note_on_c, 2, 32, 127
4, 47531, Note_on_c, 2, 32, 127
4, 47555, Note_on_c, 2, 32, 0
4, 47590, Note_on_c, 2, 32, 127
4, 47611, Note_on_c, 2, 32, 0
4, 47616, Note_on_c, 2, 32, 0
4, 47649, Note_on_c, 2, 32, 127
4, 47667, Note_on_c, 2, 32, 0
4, 47708, Note_on_c, 2, 32, 127
4, 47727, Note_on_c, 2, 32, 0
4, 47768, Note_on_c, 2, 32, 127
4, 47787, Note_on_c, 2, 32, 0
4, 47827, Note_on_c, 2, 32, 127
4, 47845, Note_on_c, 2, 32, 0
4, 47888, Note_on_c, 2, 32, 127
4, 47907, Note_on_c, 2, 32, 0
4, 47946, Note_on_c, 2, 32, 127
4, 47967, Note_on_c, 2, 32, 0
4, 48009, Note_on_c, 2, 32, 127
4, 48028, Note_on_c, 2, 32, 0
4, 48070, Note_on_c, 2, 32, 127
4, 48087, Note_on_c, 2, 32, 0
4, 48114, Note_on_c, 2, 32, 97
4, 48132, Note_on_c, 2, 30, 127
4, 48159, Note_on_c, 2, 30, 0
4, 48175, Note_on_c, 2, 32, 0
4, 48182, Note_on_c, 2, 44, 127
4, 48190, Note_on_c, 2, 30, 115
4, 48214, Note_on_c, 2, 30, 0
4, 48238, Note_on_c, 2, 44, 0
4, 48246, Note_on_c, 2, 29, 127
4, 48247, Note_on_c, 2, 28, 127
4, 48259, Note_on_c, 2, 28, 0
4, 48284, Note_on_c, 2, 29, 0
4, 48299, Note_on_c, 2, 32, 112
4, 48354, Note_on_c, 2, 32, 0
4, 48357, Note_on_c, 2, 44, 127
4, 48369, Note_on_c, 2, 27, 127
4, 48443, Note_on_c, 2, 27, 0
4, 48457, Note_on_c, 2, 44, 0
4, 48474, Note_on_c, 2, 36, 115
4, 48583, Note_on_c, 2, 36, 0
4, 49083, Note_on_c, 2, 36, 115
4, 49144, Note_on_c, 2, 36, 0
4, 49149, Note_on_c, 2, 44, 127
4, 49220, Note_on_c, 2, 44, 0
4, 49261, Note_on_c, 2, 36, 90
4, 49322, Note_on_c, 2, 36, 0
4, 49329, Note_on_c, 2, 44, 127
4, 49421, Note_on_c, 2, 44, 0
4, 49446, Note_on_c, 2, 37, 127
4, 49544, Note_on_c, 2, 37, 0
4, 50049, Note_on_c, 2, 37, 124
4, 50103, Note_on_c, 2, 37, 0
4, 50114, Note_on_c, 2, 44, 127
4, 50162, Note_on_c, 2, 44, 0
4, 50229, Note_on_c, 2, 37, 115
4, 50288, Note_on_c, 2, 37, 0
4, 50290, Note_on_c, 2, 44, 124
4, 50385, Note_on_c, 2, 44, 0
4, 50408, Note_on_c, 2, 36, 127
4, 50494, Note_on_c, 2, 36, 0
4, 51003, Note_on_c, 2, 36, 83
4, 51059, Note_on_c, 2, 36, 0
4, 51068, Note_on_c, 2, 44, 115
4, 51120, Note_on_c, 2, 44, 0
4, 51184, Note_on_c, 2, 36, 115
4, 51239, Note_on_c, 2, 36, 0
4, 51243, Note_on_c, 2, 44, 105
4, 51332, Note_on_c, 2, 44, 0
4, 51361, Note_on_c, 2, 37, 127
4, 51475, Note_on_c, 2, 37, 0
4, 51833, Note_on_c, 2, 32, 105
4, 51882, Note_on_c, 2, 32, 0
4, 51892, Note_on_c, 2, 44, 124
4, 51928, Note_on_c, 2, 44, 0
4, 51962, Note_on_c, 2, 30, 127
4, 52014, Note_on_c, 2, 30, 0
4, 52016, Note_on_c, 2, 42, 108
4, 52055, Note_on_c, 2, 42, 0
4, 52081, Note_on_c, 2, 28, 112
4, 52133, Note_on_c, 2, 28, 0
4, 52142, Note_on_c, 2, 40, 124
4, 52190, Note_on_c, 2, 40, 0
4, 52199, Note_on_c, 2, 27, 74
4, 52257, Note_on_c, 2, 27, 0
4, 52262, Note_on_c, 2, 39, 74
4, 52310, Note_on_c, 2, 37, 119
4, 52314, Note_on_c, 2, 39, 0
4, 52407, Note_on_c, 2, 37, 0
4, 52923, Note_on_c, 2, 37, 83
4, 52979, Note_on_c, 2, 37, 0
4, 52985, Note_on_c, 2, 44, 105
4, 53037, Note_on_c, 2, 44, 0
4, 53107, Note_on_c, 2, 37, 97
4, 53163, Note_on_c, 2, 37, 0
4, 53169, Note_on_c, 2, 44, 99
4, 53281, Note_on_c, 2, 44, 0
4, 53287, Note_on_c, 2, 36, 86
4, 53379, Note_on_c, 2, 36, 0
4, 53876, Note_on_c, 2, 32, 66
4, 53939, Note_on_c, 2, 32, 0
4, 53939, Note_on_c, 2, 36, 75
4, 54002, Note_on_c, 2, 36, 0
4, 54059, Note_on_c, 2, 32, 108
4, 54116, Note_on_c, 2, 32, 0
4, 54127, Note_on_c, 2, 36, 105
4, 54197, Note_on_c, 2, 36, 0
4, 54236, Note_on_c, 2, 36, 79
4, 54310, Note_on_c, 2, 36, 0
4, 54837, Note_on_c, 2, 32, 119
4, 54888, Note_on_c, 2, 32, 0
4, 54897, Note_on_c, 2, 36, 102
4, 54952, Note_on_c, 2, 36, 0
4, 55020, Note_on_c, 2, 32, 102
4, 55063, Note_on_c, 2, 32, 0
4, 55080, Note_on_c, 2, 36, 94
4, 55129, Note_on_c, 2, 36, 0
4, 55195, Note_on_c, 2, 37, 102
4, 55285, Note_on_c, 2, 37, 0
4, 55688, Note_on_c, 2, 32, 108
4, 55732, Note_on_c, 2, 32, 0
4, 55738, Note_on_c, 2, 44, 99
4, 55773, Note_on_c, 2, 44, 0
4, 55804, Note_on_c, 2, 30, 108
4, 55856, Note_on_c, 2, 30, 0
4, 55857, Note_on_c, 2, 42, 48
4, 55886, Note_on_c, 2, 42, 0
4, 55912, Note_on_c, 2, 28, 92
4, 55966, Note_on_c, 2, 40, 60
4, 55968, Note_on_c, 2, 28, 0
4, 56009, Note_on_c, 2, 40, 0
4, 56030, Note_on_c, 2, 27, 83
4, 56085, Note_on_c, 2, 27, 0
4, 56089, Note_on_c, 2, 39, 90
4, 56125, Note_on_c, 2, 39, 0
4, 56164, Note_on_c, 2, 37, 127
4, 56165, Note_on_c, 2, 37, 66
4, 56207, Note_on_c, 2, 37, 0
4, 56231, Note_on_c, 2, 37, 0
4, 56347, Note_on_c, 2, 35, 127
4, 56388, Note_on_c, 2, 35, 0
4, 56410, Note_on_c, 2, 37, 127
4, 56459, Note_on_c, 2, 37, 0
4, 56586, Note_on_c, 2, 35, 127
4, 56628, Note_on_c, 2, 35, 0
4, 56650, Note_on_c, 2, 37, 127
4, 56698, Note_on_c, 2, 37, 0
4, 56828, Note_on_c, 2, 35, 127
4, 56863, Note_on_c, 2, 35, 0
4, 56889, Note_on_c, 2, 37, 127
4, 56938, Note_on_c, 2, 37, 0
4, 57067, Note_on_c, 2, 35, 127
4, 57091, Note_on_c, 2, 35, 0
4, 57131, Note_on_c, 2, 32, 127
4, 57155, Note_on_c, 2, 32, 0
4, 57190, Note_on_c, 2, 32, 127
4, 57211, Note_on_c, 2, 32, 0
4, 57249, Note_on_c, 2, 32, 127
4, 57267, Note_on_c, 2, 32, 0
4, 57308, Note_on_c, 2, 32, 127
4, 57327, Note_on_c, 2, 32, 0
4, 57368, Note_on_c, 2, 32, 127
4, 57387, Note_on_c, 2, 32, 0
4, 57427, Note_on_c, 2, 32, 127
4, 57445, Note_on_c, 2, 32, 0
4, 57488, Note_on_c, 2, 32, 127
4, 57507, Note_on_c, 2, 32, 0
4, 57546, Note_on_c, 2, 32, 127
4, 57567, Note_on_c, 2, 32, 0
4, 57609, Note_on_c, 2, 32, 127
4, 57628, Note_on_c, 2, 32, 0
4, 57670, Note_on_c, 2, 32, 127
4, 57687, Note_on_c, 2, 32, 0
4, 57732, Note_on_c, 2, 30, 127
4, 57759, Note_on_c, 2, 30, 0
4, 57790, Note_on_c, 2, 30, 115
4, 57814, Note_on_c, 2, 30, 0
4, 57846, Note_on_c, 2, 29, 127
4, 57847, Note_on_c, 2, 28, 127
4, 57859, Note_on_c, 2, 28, 0
4, 57884, Note_on_c, 2, 29, 0
4, 57969, Note_on_c, 2, 27, 127
4, 58043, Note_on_c, 2, 27, 0
4, 58090, Note_on_c, 2, 37, 127
4, 58153, Note_on_c, 2, 37, 0
4, 58691, Note_on_c, 2, 37, 127
4, 58751, Note_on_c, 2, 37, 0
4, 58861, Note_on_c, 2, 37, 127
4, 59001, Note_on_c, 2, 37, 0
4, 59037, Note_on_c, 2, 32, 127
4, 59129, Note_on_c, 2, 32, 0
4, 59653, Note_on_c, 2, 32, 112
4, 59710, Note_on_c, 2, 32, 0
4, 59715, Note_on_c, 2, 44, 127
4, 59772, Note_on_c, 2, 44, 0
4, 59819, Note_on_c, 2, 32, 102
4, 59884, Note_on_c, 2, 44, 127
4, 59888, Note_on_c, 2, 32, 0
4, 59974, Note_on_c, 2, 44, 0
4, 60005, Note_on_c, 2, 37, 127
4, 60072, Note_on_c, 2, 37, 0
4, 60594, Note_on_c, 2, 37, 127
4, 60669, Note_on_c, 2, 37, 0
4, 60778, Note_on_c, 2, 37, 127
4, 60882, Note_on_c, 2, 37, 0
4, 60946, Note_on_c, 2, 32, 127
4, 61044, Note_on_c, 2, 32, 0
4, 61438, Note_on_c, 2, 32, 94
4, 61494, Note_on_c, 2, 32, 0
4, 61495, Note_on_c, 2, 44, 119
4, 61534, Note_on_c, 2, 44, 0
4, 61557, Note_on_c, 2, 30, 99
4, 61614, Note_on_c, 2, 30, 0
4, 61615, Note_on_c, 2, 42, 127
4, 61657, Note_on_c, 2, 42, 0
4, 61675, Note_on_c, 2, 28, 108
4, 61738, Note_on_c, 2, 40, 108
4, 61741, Note_on_c, 2, 28, 0
4, 61781, Note_on_c, 2, 40, 0
4, 61792, Note_on_c, 2, 27, 81
4, 61857, Note_on_c, 2, 39, 77
4, 61859, Note_on_c, 2, 27, 0
4, 61906, Note_on_c, 2, 39, 0
4, 61925, Note_on_c, 2, 37, 127
4, 61994, Note_on_c, 2, 37, 0
4, 62525, Note_on_c, 2, 37, 127
4, 62587, Note_on_c, 2, 37, 0
4, 62700, Note_on_c, 2, 37, 127
4, 62856, Note_on_c, 2, 37, 0
4, 62883, Note_on_c, 2, 32, 127
4, 62976, Note_on_c, 2, 32, 0
4, 63474, Note_on_c, 2, 32, 97
4, 63535, Note_on_c, 2, 32, 0
4, 63542, Note_on_c, 2, 44, 127
4, 63598, Note_on_c, 2, 44, 0
4, 63659, Note_on_c, 2, 32, 112
4, 63714, Note_on_c, 2, 32, 0
4, 63717, Note_on_c, 2, 44, 127
4, 63817, Note_on_c, 2, 44, 0
4, 63845, Note_on_c, 2, 37, 127
4, 63924, Note_on_c, 2, 37, 0
4, 64445, Note_on_c, 2, 37, 127
4, 64496, Note_on_c, 2, 37, 0
4, 64621, Note_on_c, 2, 37, 127
4, 64764, Note_on_c, 2, 37, 0
4, 64800, Note_on_c, 2, 32, 127
4, 64893, Note_on_c, 2, 32, 0
4, 65277, Note_on_c, 2, 32, 115
4, 65328, Note_on_c, 2, 32, 0
4, 65335, Note_on_c, 2, 44, 119
4, 65364, Note_on_c, 2, 44, 0
4, 65400, Note_on_c, 2, 28, 105
4, 65453, Note_on_c, 2, 28, 0
4, 65461, Note_on_c, 2, 42, 102
4, 65462, Note_on_c, 2, 40, 74
4, 65489, Note_on_c, 2, 40, 0
4, 65493, Note_on_c, 2, 42, 0
4, 65518, Note_on_c, 2, 28, 127
4, 65575, Note_on_c, 2, 28, 0
4, 65578, Note_on_c, 2, 40, 124
4, 65613, Note_on_c, 2, 40, 0
4, 65635, Note_on_c, 2, 27, 115
4, 65690, Note_on_c, 2, 27, 0
4, 65700, Note_on_c, 2, 39, 119
4, 65734, Note_on_c, 2, 39, 0
4, 65760, Note_on_c, 2, 37, 127
4, 65777, Note_on_c, 2, 37, 108
4, 65823, Note_on_c, 2, 37, 0
4, 65841, Note_on_c, 2, 37, 0
4, 66361, Note_on_c, 2, 37, 127
4, 66421, Note_on_c, 2, 37, 0
4, 66531, Note_on_c, 2, 37, 127
4, 66671, Note_on_c, 2, 37, 0
4, 66707, Note_on_c, 2, 32, 127
4, 66799, Note_on_c, 2, 32, 0
4, 67323, Note_on_c, 2, 32, 112
4, 67380, Note_on_c, 2, 32, 0
4, 67385, Note_on_c, 2, 44, 127
4, 67442, Note_on_c, 2, 44, 0
4, 67489, Note_on_c, 2, 32, 102
4, 67554, Note_on_c, 2, 44, 127
4, 67558, Note_on_c, 2, 32, 0
4, 67644, Note_on_c, 2, 44, 0
4, 67675, Note_on_c, 2, 37, 127
4, 67742, Note_on_c, 2, 37, 0
4, 68264, Note_on_c, 2, 37, 127
4, 68339, Note_on_c, 2, 37, 0
4, 68448, Note_on_c, 2, 37, 127
4, 68552, Note_on_c, 2, 37, 0
4, 68616, Note_on_c, 2, 32, 127
4, 68714, Note_on_c, 2, 32, 0
4, 69108, Note_on_c, 2, 32, 94
4, 69164, Note_on_c, 2, 32, 0
4, 69165, Note_on_c, 2, 44, 119
4, 69204, Note_on_c, 2, 44, 0
4, 69227, Note_on_c, 2, 30, 99
4, 69284, Note_on_c, 2, 30, 0
4, 69285, Note_on_c, 2, 42, 127
4, 69327, Note_on_c, 2, 42, 0
4, 69345, Note_on_c, 2, 28, 108
4, 69408, Note_on_c, 2, 40, 108
4, 69411, Note_on_c, 2, 28, 0
4, 69451, Note_on_c, 2, 40, 0
4, 69462, Note_on_c, 2, 27, 81
4, 69527, Note_on_c, 2, 39, 77
4, 69529, Note_on_c, 2, 27, 0
4, 69576, Note_on_c, 2, 39, 0
4, 69595, Note_on_c, 2, 37, 127
4, 69664, Note_on_c, 2, 37, 0
4, 70195, Note_on_c, 2, 37, 127
4, 70257, Note_on_c, 2, 37, 0
4, 70370, Note_on_c, 2, 37, 127
4, 70526, Note_on_c, 2, 37, 0
4, 70553, Note_on_c, 2, 32, 127
4, 70646, Note_on_c, 2, 32, 0
4, 71144, Note_on_c, 2, 32, 97
4, 71205, Note_on_c, 2, 32, 0
4, 71212, Note_on_c, 2, 44, 127
4, 71268, Note_on_c, 2, 44, 0
4, 71329, Note_on_c, 2, 32, 112
4, 71384, Note_on_c, 2, 32, 0
4, 71387, Note_on_c, 2, 44, 127
4, 71487, Note_on_c, 2, 44, 0
4, 71515, Note_on_c, 2, 37, 127
4, 71594, Note_on_c, 2, 37, 0
4, 72115, Note_on_c, 2, 37, 127
4, 72166, Note_on_c, 2, 37, 0
4, 72291, Note_on_c, 2, 37, 127
4, 72434, Note_on_c, 2, 37, 0
4, 72470, Note_on_c, 2, 32, 127
4, 72563, Note_on_c, 2, 32, 0
4, 72947, Note_on_c, 2, 32, 115
4, 72998, Note_on_c, 2, 32, 0
4, 73005, Note_on_c, 2, 44, 119
4, 73034, Note_on_c, 2, 44, 0
4, 73070, Note_on_c, 2, 28, 105
4, 73123, Note_on_c, 2, 28, 0
4, 73131, Note_on_c, 2, 42, 102
4, 73132, Note_on_c, 2, 40, 74
4, 73159, Note_on_c, 2, 40, 0
4, 73163, Note_on_c, 2, 42, 0
4, 73188, Note_on_c, 2, 28, 127
4, 73245, Note_on_c, 2, 28, 0
4, 73248, Note_on_c, 2, 40, 124
4, 73283, Note_on_c, 2, 40, 0
4, 73305, Note_on_c, 2, 27, 115
4, 73360, Note_on_c, 2, 27, 0
4, 73370, Note_on_c, 2, 39, 119
4, 73404, Note_on_c, 2, 39, 0
4, 73447, Note_on_c, 2, 37, 108
4, 73511, Note_on_c, 2, 37, 0
4, 75360, Note_on_c, 2, 37, 127
4, 75423, Note_on_c, 2, 37, 0
4, 75961, Note_on_c, 2, 37, 127
4, 76021, Note_on_c, 2, 37, 0
4, 76131, Note_on_c, 2, 37, 127
4, 76271, Note_on_c, 2, 37, 0
4, 76307, Note_on_c, 2, 32, 127
4, 76399, Note_on_c, 2, 32, 0
4, 76923, Note_on_c, 2, 32, 112
4, 76980, Note_on_c, 2, 32, 0
4, 76985, Note_on_c, 2, 44, 127
4, 77042, Note_on_c, 2, 44, 0
4, 77089, Note_on_c, 2, 32, 102
4, 77154, Note_on_c, 2, 44, 127
4, 77158, Note_on_c, 2, 32, 0
4, 77244, Note_on_c, 2, 44, 0
4, 77275, Note_on_c, 2, 37, 127
4, 77342, Note_on_c, 2, 37, 0
4, 77864, Note_on_c, 2, 37, 127
4, 77939, Note_on_c, 2, 37, 0
4, 78048, Note_on_c, 2, 37, 127
4, 78152, Note_on_c, 2, 37, 0
4, 78216, Note_on_c, 2, 32, 127
4, 78314, Note_on_c, 2, 32, 0
4, 78708, Note_on_c, 2, 32, 94
4, 78764, Note_on_c, 2, 32, 0
4, 78765, Note_on_c, 2, 44, 119
4, 78804, Note_on_c, 2, 44, 0
4, 78827, Note_on_c, 2, 30, 99
4, 78884, Note_on_c, 2, 30, 0
4, 78885, Note_on_c, 2, 42, 127
4, 78927, Note_on_c, 2, 42, 0
4, 78945, Note_on_c, 2, 28, 108
4, 79008, Note_on_c, 2, 40, 108
4, 79011, Note_on_c, 2, 28, 0
4, 79051, Note_on_c, 2, 40, 0
4, 79062, Note_on_c, 2, 27, 81
4, 79127, Note_on_c, 2, 39, 77
4, 79129, Note_on_c, 2, 27, 0
4, 79176, Note_on_c, 2, 39, 0
4, 79195, Note_on_c, 2, 37, 127
4, 79264, Note_on_c, 2, 37, 0
4, 79795, Note_on_c, 2, 37, 127
4, 79857, Note_on_c, 2, 37, 0
4, 79970, Note_on_c, 2, 37, 127
4, 80126, Note_on_c, 2, 37, 0
4, 80153, Note_on_c, 2, 32, 127
4, 80246, Note_on_c, 2, 32, 0
4, 80744, Note_on_c, 2, 32, 97
4, 80805, Note_on_c, 2, 32, 0
4, 80812, Note_on_c, 2, 44, 127
4, 80868, Note_on_c, 2, 44, 0
4, 80929, Note_on_c, 2, 32, 112
4, 80984, Note_on_c, 2, 32, 0
4, 80987, Note_on_c, 2, 44, 127
4, 81087, Note_on_c, 2, 44, 0
4, 81115, Note_on_c, 2, 37, 127
4, 81194, Note_on_c, 2, 37, 0
4, 81715, Note_on_c, 2, 37, 127
4, 81766, Note_on_c, 2, 37, 0
4, 81891, Note_on_c, 2, 37, 127
4, 82034, Note_on_c, 2, 37, 0
4, 82070, Note_on_c, 2, 32, 127
4, 82163, Note_on_c, 2, 32, 0
4, 82547, Note_on_c, 2, 32, 115
4, 82598, Note_on_c, 2, 32, 0
4, 82605, Note_on_c, 2, 44, 119
4, 82634, Note_on_c, 2, 44, 0
4, 82670, Note_on_c, 2, 28, 105
4, 82723, Note_on_c, 2, 28, 0
4, 82731, Note_on_c, 2, 42, 102
4, 82732, Note_on_c, 2, 40, 74
4, 82759, Note_on_c, 2, 40, 0
4, 82763, Note_on_c, 2, 42, 0
4, 82788, Note_on_c, 2, 28, 127
4, 82845, Note_on_c, 2, 28, 0
4, 82848, Note_on_c, 2, 40, 124
4, 82883, Note_on_c, 2, 40, 0
4, 82905, Note_on_c, 2, 27, 115
4, 82960, Note_on_c, 2, 27, 0
4, 82970, Note_on_c, 2, 39, 119
4, 83004, Note_on_c, 2, 39, 0
4, 83047, Note_on_c, 2, 37, 108
4, 83111, Note_on_c, 2, 37, 0
4, 83111, End_track
5, 0, Start_track
5, 0, MIDI_port, 0
5, 0, Title_t, "----------------------       (Orchestra)"
5, 0, Control_c, 3, 0, 0
5, 0, Control_c, 3, 32, 40
5, 0, Program_c, 3, 48
5, 4325, Note_on_c, 3, 61, 127
5, 4363, Note_on_c, 3, 61, 0
5, 4501, Note_on_c, 3, 60, 127
5, 4535, Note_on_c, 3, 60, 0
5, 4562, Note_on_c, 3, 61, 127
5, 4608, Note_on_c, 3, 61, 0
5, 4746, Note_on_c, 3, 60, 127
5, 4778, Note_on_c, 3, 60, 0
5, 4803, Note_on_c, 3, 61, 127
5, 4846, Note_on_c, 3, 61, 0
5, 4986, Note_on_c, 3, 60, 127
5, 5014, Note_on_c, 3, 60, 0
5, 5047, Note_on_c, 3, 61, 127
5, 5079, Note_on_c, 3, 61, 0
5, 5216, Note_on_c, 3, 60, 127
5, 5219, Note_on_c, 3, 62, 112
5, 5233, Note_on_c, 3, 62, 0
5, 5243, Note_on_c, 3, 60, 0
5, 5287, Note_on_c, 3, 56, 127
5, 5308, Note_on_c, 3, 56, 0
5, 5343, Note_on_c, 3, 56, 127
5, 5366, Note_on_c, 3, 56, 0
5, 5396, Note_on_c, 3, 56, 127
5, 5420, Note_on_c, 3, 56, 0
5, 5459, Note_on_c, 3, 56, 127
5, 5482, Note_on_c, 3, 56, 0
5, 5518, Note_on_c, 3, 56, 127
5, 5543, Note_on_c, 3, 56, 0
5, 5576, Note_on_c, 3, 56, 127
5, 5601, Note_on_c, 3, 56, 0
5, 5638, Note_on_c, 3, 56, 127
5, 5662, Note_on_c, 3, 56, 0
5, 5700, Note_on_c, 3, 56, 127
5, 5719, Note_on_c, 3, 56, 0
5, 5762, Note_on_c, 3, 56, 127
5, 5780, Note_on_c, 3, 56, 0
5, 5822, Note_on_c, 3, 56, 124
5, 5839, Note_on_c, 3, 56, 0
5, 5884, Note_on_c, 3, 56, 127
5, 5907, Note_on_c, 3, 56, 0
5, 5999, Note_on_c, 3, 56, 127
5, 6027, Note_on_c, 3, 56, 0
5, 6123, Note_on_c, 3, 56, 127
5, 6153, Note_on_c, 3, 56, 0
5, 6243, Note_on_c, 3, 61, 127
5, 6289, Note_on_c, 3, 61, 0
5, 6424, Note_on_c, 3, 60, 127
5, 6476, Note_on_c, 3, 60, 0
5, 6963, Note_on_c, 3, 56, 127
5, 6989, Note_on_c, 3, 56, 0
5, 7024, Note_on_c, 3, 56, 127
5, 7049, Note_on_c, 3, 56, 0
5, 7082, Note_on_c, 3, 56, 127
5, 7110, Note_on_c, 3, 56, 0
5, 7142, Note_on_c, 3, 56, 127
5, 7169, Note_on_c, 3, 56, 0
5, 7206, Note_on_c, 3, 61, 127
5, 7242, Note_on_c, 3, 61, 0
5, 7384, Note_on_c, 3, 60, 127
5, 7432, Note_on_c, 3, 60, 0
5, 7929, Note_on_c, 3, 56, 127
5, 7955, Note_on_c, 3, 56, 0
5, 7989, Note_on_c, 3, 56, 127
5, 8012, Note_on_c, 3, 56, 0
5, 8046, Note_on_c, 3, 56, 127
5, 8071, Note_on_c, 3, 56, 0
5, 8102, Note_on_c, 3, 56, 127
5, 8127, Note_on_c, 3, 56, 0
5, 8165, Note_on_c, 3, 61, 127
5, 8208, Note_on_c, 3, 61, 0
5, 8335, Note_on_c, 3, 60, 127
5, 8382, Note_on_c, 3, 60, 0
5, 8874, Note_on_c, 3, 56, 127
5, 8904, Note_on_c, 3, 56, 0
5, 8941, Note_on_c, 3, 56, 127
5, 8966, Note_on_c, 3, 56, 0
5, 8999, Note_on_c, 3, 56, 127
5, 9025, Note_on_c, 3, 56, 0
5, 9062, Note_on_c, 3, 56, 124
5, 9077, Note_on_c, 3, 56, 0
5, 9118, Note_on_c, 3, 61, 127
5, 9160, Note_on_c, 3, 61, 0
5, 9290, Note_on_c, 3, 60, 127
5, 9329, Note_on_c, 3, 60, 0
5, 9840, Note_on_c, 3, 56, 127
5, 9882, Note_on_c, 3, 56, 0
5, 9897, Note_on_c, 3, 58, 127
5, 9940, Note_on_c, 3, 58, 0
5, 9952, Note_on_c, 3, 59, 127
5, 10002, Note_on_c, 3, 59, 0
5, 10012, Note_on_c, 3, 60, 127
5, 10055, Note_on_c, 3, 60, 0
5, 10074, Note_on_c, 3, 61, 127
5, 10128, Note_on_c, 3, 61, 0
5, 10268, Note_on_c, 3, 60, 127
5, 10309, Note_on_c, 3, 60, 0
5, 10926, Note_on_c, 3, 56, 127
5, 11016, Note_on_c, 3, 56, 0
5, 11042, Note_on_c, 3, 61, 127
5, 11123, Note_on_c, 3, 61, 0
5, 11223, Note_on_c, 3, 60, 127
5, 11298, Note_on_c, 3, 60, 0
5, 11884, Note_on_c, 3, 56, 127
5, 11976, Note_on_c, 3, 56, 0
5, 12003, Note_on_c, 3, 61, 127
5, 12085, Note_on_c, 3, 61, 0
5, 12173, Note_on_c, 3, 60, 127
5, 12240, Note_on_c, 3, 60, 0
5, 12843, Note_on_c, 3, 56, 127
5, 12929, Note_on_c, 3, 56, 0
5, 12957, Note_on_c, 3, 61, 127
5, 13039, Note_on_c, 3, 61, 0
5, 13137, Note_on_c, 3, 60, 127
5, 13204, Note_on_c, 3, 60, 0
5, 13806, Note_on_c, 3, 56, 127
5, 13879, Note_on_c, 3, 56, 0
5, 13919, Note_on_c, 3, 61, 127
5, 13979, Note_on_c, 3, 61, 0
5, 14099, Note_on_c, 3, 60, 127
5, 14134, Note_on_c, 3, 60, 0
5, 14161, Note_on_c, 3, 61, 127
5, 14221, Note_on_c, 3, 61, 0
5, 14343, Note_on_c, 3, 60, 127
5, 14375, Note_on_c, 3, 60, 0
5, 14402, Note_on_c, 3, 61, 127
5, 14455, Note_on_c, 3, 61, 0
5, 14585, Note_on_c, 3, 60, 127
5, 14616, Note_on_c, 3, 60, 0
5, 14643, Note_on_c, 3, 61, 127
5, 14685, Note_on_c, 3, 61, 0
5, 14824, Note_on_c, 3, 60, 127
5, 14858, Note_on_c, 3, 60, 0
5, 14886, Note_on_c, 3, 56, 127
5, 14916, Note_on_c, 3, 56, 0
5, 14947, Note_on_c, 3, 56, 127
5, 14975, Note_on_c, 3, 56, 0
5, 15006, Note_on_c, 3, 56, 127
5, 15031, Note_on_c, 3, 56, 0
5, 15063, Note_on_c, 3, 56, 127
5, 15089, Note_on_c, 3, 56, 0
5, 15120, Note_on_c, 3, 56, 127
5, 15145, Note_on_c, 3, 56, 0
5, 15179, Note_on_c, 3, 56, 127
5, 15206, Note_on_c, 3, 56, 0
5, 15244, Note_on_c, 3, 56, 127
5, 15266, Note_on_c, 3, 56, 0
5, 15300, Note_on_c, 3, 56, 127
5, 15323, Note_on_c, 3, 56, 0
5, 15364, Note_on_c, 3, 56, 127
5, 15385, Note_on_c, 3, 56, 0
5, 15422, Note_on_c, 3, 56, 127
5, 15448, Note_on_c, 3, 56, 0
5, 15487, Note_on_c, 3, 56, 127
5, 15512, Note_on_c, 3, 56, 0
5, 15548, Note_on_c, 3, 56, 127
5, 15570, Note_on_c, 3, 56, 0
5, 15606, Note_on_c, 3, 56, 127
5, 15632, Note_on_c, 3, 56, 0
5, 15664, Note_on_c, 3, 56, 127
5, 15691, Note_on_c, 3, 56, 0
5, 15724, Note_on_c, 3, 56, 127
5, 15751, Note_on_c, 3, 56, 0
5, 15780, Note_on_c, 3, 56, 127
5, 15806, Note_on_c, 3, 56, 0
5, 15846, Note_on_c, 3, 56, 127
5, 15855, Note_on_c, 3, 61, 127
5, 15895, Note_on_c, 3, 56, 0
5, 15942, Note_on_c, 3, 61, 0
5, 16800, Note_on_c, 3, 60, 127
5, 16910, Note_on_c, 3, 60, 0
5, 17747, Note_on_c, 3, 61, 127
5, 17854, Note_on_c, 3, 61, 0
5, 18716, Note_on_c, 3, 60, 127
5, 18720, Note_on_c, 3, 58, 127
5, 18761, Note_on_c, 3, 58, 0
5, 18816, Note_on_c, 3, 60, 0
5, 19679, Note_on_c, 3, 61, 127
5, 19762, Note_on_c, 3, 61, 0
5, 20635, Note_on_c, 3, 60, 127
5, 20743, Note_on_c, 3, 60, 0
5, 21586, Note_on_c, 3, 61, 127
5, 21679, Note_on_c, 3, 61, 0
5, 22560, Note_on_c, 3, 60, 127
5, 22670, Note_on_c, 3, 60, 0
5, 23530, Note_on_c, 3, 61, 127
5, 23568, Note_on_c, 3, 61, 0
5, 23706, Note_on_c, 3, 60, 127
5, 23740, Note_on_c, 3, 60, 0
5, 23767, Note_on_c, 3, 61, 127
5, 23813, Note_on_c, 3, 61, 0
5, 23951, Note_on_c, 3, 60, 127
5, 23983, Note_on_c, 3, 60, 0
5, 24008, Note_on_c, 3, 61, 127
5, 24051, Note_on_c, 3, 61, 0
5, 24191, Note_on_c, 3, 60, 127
5, 24219, Note_on_c, 3, 60, 0
5, 24252, Note_on_c, 3, 61, 127
5, 24284, Note_on_c, 3, 61, 0
5, 24421, Note_on_c, 3, 60, 127
5, 24424, Note_on_c, 3, 62, 112
5, 24438, Note_on_c, 3, 62, 0
5, 24448, Note_on_c, 3, 60, 0
5, 24492, Note_on_c, 3, 56, 127
5, 24513, Note_on_c, 3, 56, 0
5, 24548, Note_on_c, 3, 56, 127
5, 24571, Note_on_c, 3, 56, 0
5, 24601, Note_on_c, 3, 56, 127
5, 24625, Note_on_c, 3, 56, 0
5, 24664, Note_on_c, 3, 56, 127
5, 24687, Note_on_c, 3, 56, 0
5, 24723, Note_on_c, 3, 56, 127
5, 24748, Note_on_c, 3, 56, 0
5, 24781, Note_on_c, 3, 56, 127
5, 24806, Note_on_c, 3, 56, 0
5, 24843, Note_on_c, 3, 56, 127
5, 24867, Note_on_c, 3, 56, 0
5, 24905, Note_on_c, 3, 56, 127
5, 24924, Note_on_c, 3, 56, 0
5, 24967, Note_on_c, 3, 56, 127
5, 24985, Note_on_c, 3, 56, 0
5, 25027, Note_on_c, 3, 56, 124
5, 25044, Note_on_c, 3, 56, 0
5, 25089, Note_on_c, 3, 56, 127
5, 25112, Note_on_c, 3, 56, 0
5, 25204, Note_on_c, 3, 56, 127
5, 25232, Note_on_c, 3, 56, 0
5, 25328, Note_on_c, 3, 56, 127
5, 25358, Note_on_c, 3, 56, 0
5, 25448, Note_on_c, 3, 61, 127
5, 25494, Note_on_c, 3, 61, 0
5, 25629, Note_on_c, 3, 60, 127
5, 25681, Note_on_c, 3, 60, 0
5, 26168, Note_on_c, 3, 56, 127
5, 26194, Note_on_c, 3, 56, 0
5, 26229, Note_on_c, 3, 56, 127
5, 26254, Note_on_c, 3, 56, 0
5, 26287, Note_on_c, 3, 56, 127
5, 26315, Note_on_c, 3, 56, 0
5, 26347, Note_on_c, 3, 56, 127
5, 26374, Note_on_c, 3, 56, 0
5, 26411, Note_on_c, 3, 61, 127
5, 26447, Note_on_c, 3, 61, 0
5, 26589, Note_on_c, 3, 60, 127
5, 26637, Note_on_c, 3, 60, 0
5, 27134, Note_on_c, 3, 56, 127
5, 27160, Note_on_c, 3, 56, 0
5, 27194, Note_on_c, 3, 56, 127
5, 27217, Note_on_c, 3, 56, 0
5, 27251, Note_on_c, 3, 56, 127
5, 27276, Note_on_c, 3, 56, 0
5, 27307, Note_on_c, 3, 56, 127
5, 27332, Note_on_c, 3, 56, 0
5, 27370, Note_on_c, 3, 61, 127
5, 27413, Note_on_c, 3, 61, 0
5, 27540, Note_on_c, 3, 60, 127
5, 27587, Note_on_c, 3, 60, 0
5, 28079, Note_on_c, 3, 56, 127
5, 28109, Note_on_c, 3, 56, 0
5, 28146, Note_on_c, 3, 56, 127
5, 28171, Note_on_c, 3, 56, 0
5, 28204, Note_on_c, 3, 56, 127
5, 28230, Note_on_c, 3, 56, 0
5, 28267, Note_on_c, 3, 56, 124
5, 28282, Note_on_c, 3, 56, 0
5, 28323, Note_on_c, 3, 61, 127
5, 28365, Note_on_c, 3, 61, 0
5, 28495, Note_on_c, 3, 60, 127
5, 28534, Note_on_c, 3, 60, 0
5, 29045, Note_on_c, 3, 56, 127
5, 29087, Note_on_c, 3, 56, 0
5, 29102, Note_on_c, 3, 58, 127
5, 29145, Note_on_c, 3, 58, 0
5, 29157, Note_on_c, 3, 59, 127
5, 29207, Note_on_c, 3, 59, 0
5, 29217, Note_on_c, 3, 60, 127
5, 29260, Note_on_c, 3, 60, 0
5, 29279, Note_on_c, 3, 61, 127
5, 29333, Note_on_c, 3, 61, 0
5, 29473, Note_on_c, 3, 60, 127
5, 29514, Note_on_c, 3, 60, 0
5, 30120, Note_on_c, 3, 56, 127
5, 30210, Note_on_c, 3, 56, 0
5, 30236, Note_on_c, 3, 61, 127
5, 30317, Note_on_c, 3, 61, 0
5, 30417, Note_on_c, 3, 60, 127
5, 30492, Note_on_c, 3, 60, 0
5, 31078, Note_on_c, 3, 56, 127
5, 31170, Note_on_c, 3, 56, 0
5, 31197, Note_on_c, 3, 61, 127
5, 31279, Note_on_c, 3, 61, 0
5, 31367, Note_on_c, 3, 60, 127
5, 31434, Note_on_c, 3, 60, 0
5, 32037, Note_on_c, 3, 56, 127
5, 32123, Note_on_c, 3, 56, 0
5, 32151, Note_on_c, 3, 61, 127
5, 32233, Note_on_c, 3, 61, 0
5, 32331, Note_on_c, 3, 60, 127
5, 32398, Note_on_c, 3, 60, 0
5, 33000, Note_on_c, 3, 56, 127
5, 33073, Note_on_c, 3, 56, 0
5, 33113, Note_on_c, 3, 61, 127
5, 33173, Note_on_c, 3, 61, 0
5, 33293, Note_on_c, 3, 60, 127
5, 33328, Note_on_c, 3, 60, 0
5, 33355, Note_on_c, 3, 61, 127
5, 33415, Note_on_c, 3, 61, 0
5, 33537, Note_on_c, 3, 60, 127
5, 33569, Note_on_c, 3, 60, 0
5, 33596, Note_on_c, 3, 61, 127
5, 33649, Note_on_c, 3, 61, 0
5, 33779, Note_on_c, 3, 60, 127
5, 33810, Note_on_c, 3, 60, 0
5, 33837, Note_on_c, 3, 61, 127
5, 33879, Note_on_c, 3, 61, 0
5, 34018, Note_on_c, 3, 60, 127
5, 34052, Note_on_c, 3, 60, 0
5, 34080, Note_on_c, 3, 56, 127
5, 34110, Note_on_c, 3, 56, 0
5, 34141, Note_on_c, 3, 56, 127
5, 34169, Note_on_c, 3, 56, 0
5, 34200, Note_on_c, 3, 56, 127
5, 34225, Note_on_c, 3, 56, 0
5, 34257, Note_on_c, 3, 56, 127
5, 34283, Note_on_c, 3, 56, 0
5, 34314, Note_on_c, 3, 56, 127
5, 34339, Note_on_c, 3, 56, 0
5, 34373, Note_on_c, 3, 56, 127
5, 34400, Note_on_c, 3, 56, 0
5, 34438, Note_on_c, 3, 56, 127
5, 34460, Note_on_c, 3, 56, 0
5, 34494, Note_on_c, 3, 56, 127
5, 34517, Note_on_c, 3, 56, 0
5, 34558, Note_on_c, 3, 56, 127
5, 34579, Note_on_c, 3, 56, 0
5, 34616, Note_on_c, 3, 56, 127
5, 34642, Note_on_c, 3, 56, 0
5, 34681, Note_on_c, 3, 56, 127
5, 34706, Note_on_c, 3, 56, 0
5, 34742, Note_on_c, 3, 56, 127
5, 34764, Note_on_c, 3, 56, 0
5, 34800, Note_on_c, 3, 56, 127
5, 34826, Note_on_c, 3, 56, 0
5, 34858, Note_on_c, 3, 56, 127
5, 34885, Note_on_c, 3, 56, 0
5, 34918, Note_on_c, 3, 56, 127
5, 34945, Note_on_c, 3, 56, 0
5, 34974, Note_on_c, 3, 56, 127
5, 35000, Note_on_c, 3, 56, 0
5, 35040, Note_on_c, 3, 56, 127
5, 35055, Note_on_c, 3, 61, 127
5, 35089, Note_on_c, 3, 56, 0
5, 35142, Note_on_c, 3, 61, 0
5, 36000, Note_on_c, 3, 60, 127
5, 36110, Note_on_c, 3, 60, 0
5, 36947, Note_on_c, 3, 61, 127
5, 37054, Note_on_c, 3, 61, 0
5, 37916, Note_on_c, 3, 60, 127
5, 37920, Note_on_c, 3, 58, 127
5, 37961, Note_on_c, 3, 58, 0
5, 38016, Note_on_c, 3, 60, 0
5, 38879, Note_on_c, 3, 61, 127
5, 38962, Note_on_c, 3, 61, 0
5, 39835, Note_on_c, 3, 60, 127
5, 39943, Note_on_c, 3, 60, 0
5, 40786, Note_on_c, 3, 61, 127
5, 40879, Note_on_c, 3, 61, 0
5, 41760, Note_on_c, 3, 60, 127
5, 41870, Note_on_c, 3, 60, 0
5, 42735, Note_on_c, 3, 61, 127
5, 42822, Note_on_c, 3, 61, 0
5, 43680, Note_on_c, 3, 60, 127
5, 43790, Note_on_c, 3, 60, 0
5, 44627, Note_on_c, 3, 61, 127
5, 44734, Note_on_c, 3, 61, 0
5, 45596, Note_on_c, 3, 60, 127
5, 45600, Note_on_c, 3, 58, 127
5, 45641, Note_on_c, 3, 58, 0
5, 45696, Note_on_c, 3, 60, 0
5, 46559, Note_on_c, 3, 61, 127
5, 46570, Note_on_c, 3, 61, 127
5, 46608, Note_on_c, 3, 61, 0
5, 46642, Note_on_c, 3, 61, 0
5, 46746, Note_on_c, 3, 60, 127
5, 46780, Note_on_c, 3, 60, 0
5, 46807, Note_on_c, 3, 61, 127
5, 46853, Note_on_c, 3, 61, 0
5, 46991, Note_on_c, 3, 60, 127
5, 47023, Note_on_c, 3, 60, 0
5, 47048, Note_on_c, 3, 61, 127
5, 47091, Note_on_c, 3, 61, 0
5, 47231, Note_on_c, 3, 60, 127
5, 47259, Note_on_c, 3, 60, 0
5, 47292, Note_on_c, 3, 61, 127
5, 47324, Note_on_c, 3, 61, 0
5, 47461, Note_on_c, 3, 60, 127
5, 47464, Note_on_c, 3, 62, 112
5, 47478, Note_on_c, 3, 62, 0
5, 47488, Note_on_c, 3, 60, 0
5, 47515, Note_on_c, 3, 60, 127
5, 47532, Note_on_c, 3, 56, 127
5, 47553, Note_on_c, 3, 56, 0
5, 47588, Note_on_c, 3, 56, 127
5, 47611, Note_on_c, 3, 56, 0
5, 47623, Note_on_c, 3, 60, 0
5, 47641, Note_on_c, 3, 56, 127
5, 47665, Note_on_c, 3, 56, 0
5, 47704, Note_on_c, 3, 56, 127
5, 47727, Note_on_c, 3, 56, 0
5, 47763, Note_on_c, 3, 56, 127
5, 47788, Note_on_c, 3, 56, 0
5, 47821, Note_on_c, 3, 56, 127
5, 47846, Note_on_c, 3, 56, 0
5, 47883, Note_on_c, 3, 56, 127
5, 47907, Note_on_c, 3, 56, 0
5, 47945, Note_on_c, 3, 56, 127
5, 47964, Note_on_c, 3, 56, 0
5, 48007, Note_on_c, 3, 56, 127
5, 48025, Note_on_c, 3, 56, 0
5, 48067, Note_on_c, 3, 56, 124
5, 48084, Note_on_c, 3, 56, 0
5, 48129, Note_on_c, 3, 56, 127
5, 48152, Note_on_c, 3, 56, 0
5, 48244, Note_on_c, 3, 56, 127
5, 48272, Note_on_c, 3, 56, 0
5, 48368, Note_on_c, 3, 56, 127
5, 48398, Note_on_c, 3, 56, 0
5, 56170, Note_on_c, 3, 61, 127
5, 56208, Note_on_c, 3, 61, 0
5, 56346, Note_on_c, 3, 60, 127
5, 56380, Note_on_c, 3, 60, 0
5, 56407, Note_on_c, 3, 61, 127
5, 56453, Note_on_c, 3, 61, 0
5, 56591, Note_on_c, 3, 60, 127
5, 56623, Note_on_c, 3, 60, 0
5, 56648, Note_on_c, 3, 61, 127
5, 56691, Note_on_c, 3, 61, 0
5, 56831, Note_on_c, 3, 60, 127
5, 56859, Note_on_c, 3, 60, 0
5, 56892, Note_on_c, 3, 61, 127
5, 56924, Note_on_c, 3, 61, 0
5, 57061, Note_on_c, 3, 60, 127
5, 57064, Note_on_c, 3, 62, 112
5, 57078, Note_on_c, 3, 62, 0
5, 57088, Note_on_c, 3, 60, 0
5, 57132, Note_on_c, 3, 56, 127
5, 57153, Note_on_c, 3, 56, 0
5, 57188, Note_on_c, 3, 56, 127
5, 57211, Note_on_c, 3, 56, 0
5, 57241, Note_on_c, 3, 56, 127
5, 57265, Note_on_c, 3, 56, 0
5, 57304, Note_on_c, 3, 56, 127
5, 57327, Note_on_c, 3, 56, 0
5, 57363, Note_on_c, 3, 56, 127
5, 57388, Note_on_c, 3, 56, 0
5, 57421, Note_on_c, 3, 56, 127
5, 57446, Note_on_c, 3, 56, 0
5, 57483, Note_on_c, 3, 56, 127
5, 57507, Note_on_c, 3, 56, 0
5, 57545, Note_on_c, 3, 56, 127
5, 57564, Note_on_c, 3, 56, 0
5, 57607, Note_on_c, 3, 56, 127
5, 57625, Note_on_c, 3, 56, 0
5, 57667, Note_on_c, 3, 56, 124
5, 57684, Note_on_c, 3, 56, 0
5, 57729, Note_on_c, 3, 56, 127
5, 57752, Note_on_c, 3, 56, 0
5, 57844, Note_on_c, 3, 56, 127
5, 57872, Note_on_c, 3, 56, 0
5, 57968, Note_on_c, 3, 56, 127
5, 57998, Note_on_c, 3, 56, 0
5, 58073, Note_on_c, 3, 85, 88
5, 59030, Note_on_c, 3, 84, 94
5, 59038, Note_on_c, 3, 85, 0
5, 59993, Note_on_c, 3, 85, 73
5, 60007, Note_on_c, 3, 84, 0
5, 60953, Note_on_c, 3, 87, 92
5, 60966, Note_on_c, 3, 85, 0
5, 61669, Note_on_c, 3, 88, 70
5, 61677, Note_on_c, 3, 87, 0
5, 61791, Note_on_c, 3, 90, 105
5, 61804, Note_on_c, 3, 88, 0
5, 61916, Note_on_c, 3, 92, 108
5, 61920, Note_on_c, 3, 90, 0
5, 62876, Note_on_c, 3, 87, 86
5, 62885, Note_on_c, 3, 92, 0
5, 63830, Note_on_c, 3, 85, 65
5, 63843, Note_on_c, 3, 87, 0
5, 64789, Note_on_c, 3, 84, 61
5, 64797, Note_on_c, 3, 85, 0
5, 65731, Note_on_c, 3, 84, 0
5, 75360, Note_on_c, 3, 61, 127
5, 75447, Note_on_c, 3, 61, 0
5, 76305, Note_on_c, 3, 60, 127
5, 76415, Note_on_c, 3, 60, 0
5, 77252, Note_on_c, 3, 61, 127
5, 77359, Note_on_c, 3, 61, 0
5, 78221, Note_on_c, 3, 60, 127
5, 78225, Note_on_c, 3, 58, 127
5, 78266, Note_on_c, 3, 58, 0
5, 78321, Note_on_c, 3, 60, 0
5, 79184, Note_on_c, 3, 61, 127
5, 79267, Note_on_c, 3, 61, 0
5, 80140, Note_on_c, 3, 60, 127
5, 80248, Note_on_c, 3, 60, 0
5, 81091, Note_on_c, 3, 61, 127
5, 81184, Note_on_c, 3, 61, 0
5, 82065, Note_on_c, 3, 60, 127
5, 82175, Note_on_c, 3, 60, 0
5, 83040, Note_on_c, 3, 49, 100
5, 83040, Note_on_c, 3, 61, 127
5, 83076, Note_on_c, 3, 49, 0
5, 83127, Note_on_c, 3, 61, 0
5, 83985, Note_on_c, 3, 60, 127
5, 84000, Note_on_c, 3, 48, 100
5, 84095, Note_on_c, 3, 60, 0
5, 84120, Note_on_c, 3, 48, 0
5, 84932, Note_on_c, 3, 61, 127
5, 84960, Note_on_c, 3, 49, 100
5, 85039, Note_on_c, 3, 61, 0
5, 85080, Note_on_c, 3, 49, 0
5, 85901, Note_on_c, 3, 60, 127
5, 85920, Note_on_c, 3, 48, 100
5, 86001, Note_on_c, 3, 60, 0
5, 86040, Note_on_c, 3, 48, 0
5, 86403, Note_on_c, 3, 68, 112
5, 86455, Note_on_c, 3, 68, 0
5, 86518, Note_on_c, 3, 66, 127
5, 86569, Note_on_c, 3, 66, 0
5, 86631, Note_on_c, 3, 64, 127
5, 86683, Note_on_c, 3, 64, 0
5, 86748, Note_on_c, 3, 63, 127
5, 86826, Note_on_c, 3, 63, 0
5, 86826, End_track
6, 0, Start_track
6, 0, MIDI_port, 0
6, 0, Title_t, "Sequenced By:     (Orch Hit)"
6, 0, Control_c, 4, 0, 0
6, 0, Control_c, 4, 32, 64
6, 0, Program_c, 4, 55
6, 4315, Note_on_c, 4, 61, 127
6, 4366, Note_on_c, 4, 61, 0
6, 4500, Note_on_c, 4, 60, 127
6, 4529, Note_on_c, 4, 60, 0
6, 4558, Note_on_c, 4, 61, 127
6, 4596, Note_on_c, 4, 61, 0
6, 4750, Note_on_c, 4, 60, 127
6, 4776, Note_on_c, 4, 60, 0
6, 4809, Note_on_c, 4, 61, 127
6, 4836, Note_on_c, 4, 61, 0
6, 4992, Note_on_c, 4, 60, 127
6, 5016, Note_on_c, 4, 60, 0
6, 5049, Note_on_c, 4, 61, 127
6, 5077, Note_on_c, 4, 61, 0
6, 5224, Note_on_c, 4, 60, 127
6, 5245, Note_on_c, 4, 60, 0
6, 5292, Note_on_c, 4, 56, 127
6, 5308, Note_on_c, 4, 56, 0
6, 5350, Note_on_c, 4, 56, 127
6, 5366, Note_on_c, 4, 56, 0
6, 5405, Note_on_c, 4, 56, 127
6, 5425, Note_on_c, 4, 56, 0
6, 5466, Note_on_c, 4, 56, 127
6, 5480, Note_on_c, 4, 56, 0
6, 5522, Note_on_c, 4, 56, 127
6, 5541, Note_on_c, 4, 56, 0
6, 5579, Note_on_c, 4, 56, 127
6, 5598, Note_on_c, 4, 56, 0
6, 5641, Note_on_c, 4, 56, 127
6, 5657, Note_on_c, 4, 56, 0
6, 5703, Note_on_c, 4, 56, 127
6, 5720, Note_on_c, 4, 56, 0
6, 5762, Note_on_c, 4, 56, 127
6, 5788, Note_on_c, 4, 56, 0
6, 5878, Note_on_c, 4, 54, 127
6, 5912, Note_on_c, 4, 54, 0
6, 6007, Note_on_c, 4, 52, 127
6, 6044, Note_on_c, 4, 52, 0
6, 6123, Note_on_c, 4, 50, 127
6, 6159, Note_on_c, 4, 50, 0
6, 6240, Note_on_c, 4, 61, 127
6, 6243, Note_on_c, 4, 59, 97
6, 6244, Note_on_c, 4, 60, 124
6, 6265, Note_on_c, 4, 59, 0
6, 6266, Note_on_c, 4, 60, 0
6, 6272, Note_on_c, 4, 61, 0
6, 6424, Note_on_c, 4, 60, 127
6, 6463, Note_on_c, 4, 60, 0
6, 6965, Note_on_c, 4, 56, 127
6, 6989, Note_on_c, 4, 56, 0
6, 7022, Note_on_c, 4, 56, 127
6, 7045, Note_on_c, 4, 56, 0
6, 7087, Note_on_c, 4, 56, 127
6, 7109, Note_on_c, 4, 56, 0
6, 7145, Note_on_c, 4, 56, 127
6, 7168, Note_on_c, 4, 56, 0
6, 7204, Note_on_c, 4, 61, 127
6, 7235, Note_on_c, 4, 61, 0
6, 7378, Note_on_c, 4, 60, 127
6, 7419, Note_on_c, 4, 60, 0
6, 7923, Note_on_c, 4, 56, 127
6, 7949, Note_on_c, 4, 56, 0
6, 7988, Note_on_c, 4, 56, 127
6, 8009, Note_on_c, 4, 56, 0
6, 8049, Note_on_c, 4, 56, 127
6, 8066, Note_on_c, 4, 56, 0
6, 8105, Note_on_c, 4, 56, 127
6, 8123, Note_on_c, 4, 56, 0
6, 8167, Note_on_c, 4, 61, 127
6, 8195, Note_on_c, 4, 61, 0
6, 8340, Note_on_c, 4, 60, 127
6, 8375, Note_on_c, 4, 60, 0
6, 8888, Note_on_c, 4, 56, 127
6, 8914, Note_on_c, 4, 56, 0
6, 8948, Note_on_c, 4, 56, 124
6, 8973, Note_on_c, 4, 56, 0
6, 9007, Note_on_c, 4, 56, 127
6, 9033, Note_on_c, 4, 56, 0
6, 9066, Note_on_c, 4, 56, 127
6, 9087, Note_on_c, 4, 56, 0
6, 9127, Note_on_c, 4, 61, 127
6, 9164, Note_on_c, 4, 61, 0
6, 9304, Note_on_c, 4, 60, 127
6, 9339, Note_on_c, 4, 60, 0
6, 9843, Note_on_c, 4, 56, 127
6, 9891, Note_on_c, 4, 56, 0
6, 9902, Note_on_c, 4, 58, 119
6, 9958, Note_on_c, 4, 58, 0
6, 9965, Note_on_c, 4, 59, 127
6, 10013, Note_on_c, 4, 59, 0
6, 10019, Note_on_c, 4, 60, 115
6, 10070, Note_on_c, 4, 60, 0
6, 10082, Note_on_c, 4, 61, 127
6, 10132, Note_on_c, 4, 61, 0
6, 10264, Note_on_c, 4, 60, 127
6, 10327, Note_on_c, 4, 60, 0
6, 10927, Note_on_c, 4, 56, 119
6, 11026, Note_on_c, 4, 56, 0
6, 11042, Note_on_c, 4, 61, 127
6, 11114, Note_on_c, 4, 61, 0
6, 11227, Note_on_c, 4, 60, 127
6, 11290, Note_on_c, 4, 60, 0
6, 11880, Note_on_c, 4, 56, 124
6, 11986, Note_on_c, 4, 56, 0
6, 12003, Note_on_c, 4, 61, 127
6, 12068, Note_on_c, 4, 61, 0
6, 12189, Note_on_c, 4, 60, 127
6, 12256, Note_on_c, 4, 60, 0
6, 12835, Note_on_c, 4, 56, 99
6, 12938, Note_on_c, 4, 56, 0
6, 12966, Note_on_c, 4, 61, 127
6, 13030, Note_on_c, 4, 61, 0
6, 13139, Note_on_c, 4, 60, 115
6, 13193, Note_on_c, 4, 60, 0
6, 13801, Note_on_c, 4, 56, 105
6, 13883, Note_on_c, 4, 56, 0
6, 13920, Note_on_c, 4, 61, 127
6, 13979, Note_on_c, 4, 61, 0
6, 14107, Note_on_c, 4, 60, 119
6, 14143, Note_on_c, 4, 60, 0
6, 14166, Note_on_c, 4, 61, 127
6, 14213, Note_on_c, 4, 61, 0
6, 14348, Note_on_c, 4, 60, 127
6, 14383, Note_on_c, 4, 60, 0
6, 14404, Note_on_c, 4, 61, 127
6, 14450, Note_on_c, 4, 61, 0
6, 14594, Note_on_c, 4, 60, 127
6, 14629, Note_on_c, 4, 60, 0
6, 14653, Note_on_c, 4, 61, 127
6, 14694, Note_on_c, 4, 61, 0
6, 14829, Note_on_c, 4, 61, 124
6, 14856, Note_on_c, 4, 61, 0
6, 14884, Note_on_c, 4, 56, 127
6, 14908, Note_on_c, 4, 56, 0
6, 14946, Note_on_c, 4, 56, 127
6, 14966, Note_on_c, 4, 56, 0
6, 15004, Note_on_c, 4, 56, 127
6, 15029, Note_on_c, 4, 56, 0
6, 15064, Note_on_c, 4, 56, 127
6, 15088, Note_on_c, 4, 56, 0
6, 15123, Note_on_c, 4, 56, 127
6, 15147, Note_on_c, 4, 56, 0
6, 15184, Note_on_c, 4, 56, 127
6, 15206, Note_on_c, 4, 56, 0
6, 15243, Note_on_c, 4, 56, 127
6, 15266, Note_on_c, 4, 56, 0
6, 15303, Note_on_c, 4, 56, 127
6, 15321, Note_on_c, 4, 56, 0
6, 15363, Note_on_c, 4, 56, 127
6, 15385, Note_on_c, 4, 56, 0
6, 15476, Note_on_c, 4, 54, 124
6, 15512, Note_on_c, 4, 54, 0
6, 15605, Note_on_c, 4, 52, 127
6, 15665, Note_on_c, 4, 52, 0
6, 15723, Note_on_c, 4, 51, 119
6, 15795, Note_on_c, 4, 51, 0
6, 15852, Note_on_c, 4, 49, 119
6, 15905, Note_on_c, 4, 49, 0
6, 23520, Note_on_c, 4, 61, 127
6, 23571, Note_on_c, 4, 61, 0
6, 23705, Note_on_c, 4, 60, 127
6, 23734, Note_on_c, 4, 60, 0
6, 23763, Note_on_c, 4, 61, 127
6, 23801, Note_on_c, 4, 61, 0
6, 23955, Note_on_c, 4, 60, 127
6, 23981, Note_on_c, 4, 60, 0
6, 24014, Note_on_c, 4, 61, 127
6, 24041, Note_on_c, 4, 61, 0
6, 24197, Note_on_c, 4, 60, 127
6, 24221, Note_on_c, 4, 60, 0
6, 24254, Note_on_c, 4, 61, 127
6, 24282, Note_on_c, 4, 61, 0
6, 24429, Note_on_c, 4, 60, 127
6, 24450, Note_on_c, 4, 60, 0
6, 24497, Note_on_c, 4, 56, 127
6, 24513, Note_on_c, 4, 56, 0
6, 24555, Note_on_c, 4, 56, 127
6, 24571, Note_on_c, 4, 56, 0
6, 24610, Note_on_c, 4, 56, 127
6, 24630, Note_on_c, 4, 56, 0
6, 24671, Note_on_c, 4, 56, 127
6, 24685, Note_on_c, 4, 56, 0
6, 24727, Note_on_c, 4, 56, 127
6, 24746, Note_on_c, 4, 56, 0
6, 24784, Note_on_c, 4, 56, 127
6, 24803, Note_on_c, 4, 56, 0
6, 24846, Note_on_c, 4, 56, 127
6, 24862, Note_on_c, 4, 56, 0
6, 24908, Note_on_c, 4, 56, 127
6, 24925, Note_on_c, 4, 56, 0
6, 24967, Note_on_c, 4, 56, 127
6, 24993, Note_on_c, 4, 56, 0
6, 25083, Note_on_c, 4, 54, 127
6, 25117, Note_on_c, 4, 54, 0
6, 25212, Note_on_c, 4, 52, 127
6, 25249, Note_on_c, 4, 52, 0
6, 25328, Note_on_c, 4, 50, 127
6, 25364, Note_on_c, 4, 50, 0
6, 25445, Note_on_c, 4, 61, 127
6, 25448, Note_on_c, 4, 59, 97
6, 25449, Note_on_c, 4, 60, 124
6, 25470, Note_on_c, 4, 59, 0
6, 25471, Note_on_c, 4, 60, 0
6, 25477, Note_on_c, 4, 61, 0
6, 25629, Note_on_c, 4, 60, 127
6, 25668, Note_on_c, 4, 60, 0
6, 26170, Note_on_c, 4, 56, 127
6, 26194, Note_on_c, 4, 56, 0
6, 26227, Note_on_c, 4, 56, 127
6, 26250, Note_on_c, 4, 56, 0
6, 26292, Note_on_c, 4, 56, 127
6, 26314, Note_on_c, 4, 56, 0
6, 26350, Note_on_c, 4, 56, 127
6, 26373, Note_on_c, 4, 56, 0
6, 26409, Note_on_c, 4, 61, 127
6, 26440, Note_on_c, 4, 61, 0
6, 26583, Note_on_c, 4, 60, 127
6, 26624, Note_on_c, 4, 60, 0
6, 27128, Note_on_c, 4, 56, 127
6, 27154, Note_on_c, 4, 56, 0
6, 27193, Note_on_c, 4, 56, 127
6, 27214, Note_on_c, 4, 56, 0
6, 27254, Note_on_c, 4, 56, 127
6, 27271, Note_on_c, 4, 56, 0
6, 27310, Note_on_c, 4, 56, 127
6, 27328, Note_on_c, 4, 56, 0
6, 27372, Note_on_c, 4, 61, 127
6, 27400, Note_on_c, 4, 61, 0
6, 27545, Note_on_c, 4, 60, 127
6, 27580, Note_on_c, 4, 60, 0
6, 28093, Note_on_c, 4, 56, 127
6, 28119, Note_on_c, 4, 56, 0
6, 28153, Note_on_c, 4, 56, 124
6, 28178, Note_on_c, 4, 56, 0
6, 28212, Note_on_c, 4, 56, 127
6, 28238, Note_on_c, 4, 56, 0
6, 28271, Note_on_c, 4, 56, 127
6, 28292, Note_on_c, 4, 56, 0
6, 28332, Note_on_c, 4, 61, 127
6, 28369, Note_on_c, 4, 61, 0
6, 28509, Note_on_c, 4, 60, 127
6, 28544, Note_on_c, 4, 60, 0
6, 29040, Note_on_c, 4, 56, 127
6, 29088, Note_on_c, 4, 56, 0
6, 29099, Note_on_c, 4, 58, 119
6, 29155, Note_on_c, 4, 58, 0
6, 29162, Note_on_c, 4, 59, 127
6, 29210, Note_on_c, 4, 59, 0
6, 29216, Note_on_c, 4, 60, 115
6, 29267, Note_on_c, 4, 60, 0
6, 29279, Note_on_c, 4, 61, 127
6, 29329, Note_on_c, 4, 61, 0
6, 29461, Note_on_c, 4, 60, 127
6, 29524, Note_on_c, 4, 60, 0
6, 30124, Note_on_c, 4, 56, 119
6, 30223, Note_on_c, 4, 56, 0
6, 30239, Note_on_c, 4, 61, 127
6, 30311, Note_on_c, 4, 61, 0
6, 30424, Note_on_c, 4, 60, 127
6, 30487, Note_on_c, 4, 60, 0
6, 31077, Note_on_c, 4, 56, 124
6, 31183, Note_on_c, 4, 56, 0
6, 31200, Note_on_c, 4, 61, 127
6, 31265, Note_on_c, 4, 61, 0
6, 31386, Note_on_c, 4, 60, 127
6, 31453, Note_on_c, 4, 60, 0
6, 32032, Note_on_c, 4, 56, 99
6, 32135, Note_on_c, 4, 56, 0
6, 32163, Note_on_c, 4, 61, 127
6, 32227, Note_on_c, 4, 61, 0
6, 32336, Note_on_c, 4, 60, 115
6, 32390, Note_on_c, 4, 60, 0
6, 32998, Note_on_c, 4, 56, 105
6, 33080, Note_on_c, 4, 56, 0
6, 33117, Note_on_c, 4, 61, 127
6, 33176, Note_on_c, 4, 61, 0
6, 33304, Note_on_c, 4, 60, 119
6, 33340, Note_on_c, 4, 60, 0
6, 33363, Note_on_c, 4, 61, 127
6, 33410, Note_on_c, 4, 61, 0
6, 33545, Note_on_c, 4, 60, 127
6, 33580, Note_on_c, 4, 60, 0
6, 33601, Note_on_c, 4, 61, 127
6, 33647, Note_on_c, 4, 61, 0
6, 33791, Note_on_c, 4, 60, 127
6, 33826, Note_on_c, 4, 60, 0
6, 33850, Note_on_c, 4, 61, 127
6, 33891, Note_on_c, 4, 61, 0
6, 34026, Note_on_c, 4, 61, 124
6, 34053, Note_on_c, 4, 61, 0
6, 34081, Note_on_c, 4, 56, 127
6, 34105, Note_on_c, 4, 56, 0
6, 34143, Note_on_c, 4, 56, 127
6, 34163, Note_on_c, 4, 56, 0
6, 34201, Note_on_c, 4, 56, 127
6, 34226, Note_on_c, 4, 56, 0
6, 34261, Note_on_c, 4, 56, 127
6, 34285, Note_on_c, 4, 56, 0
6, 34320, Note_on_c, 4, 56, 127
6, 34344, Note_on_c, 4, 56, 0
6, 34381, Note_on_c, 4, 56, 127
6, 34403, Note_on_c, 4, 56, 0
6, 34440, Note_on_c, 4, 56, 127
6, 34463, Note_on_c, 4, 56, 0
6, 34500, Note_on_c, 4, 56, 127
6, 34518, Note_on_c, 4, 56, 0
6, 34560, Note_on_c, 4, 56, 127
6, 34582, Note_on_c, 4, 56, 0
6, 34673, Note_on_c, 4, 54, 124
6, 34709, Note_on_c, 4, 54, 0
6, 34802, Note_on_c, 4, 52, 127
6, 34862, Note_on_c, 4, 52, 0
6, 34920, Note_on_c, 4, 51, 119
6, 34992, Note_on_c, 4, 51, 0
6, 35049, Note_on_c, 4, 49, 119
6, 35102, Note_on_c, 4, 49, 0
6, 46560, Note_on_c, 4, 61, 127
6, 46611, Note_on_c, 4, 61, 0
6, 46745, Note_on_c, 4, 60, 127
6, 46774, Note_on_c, 4, 60, 0
6, 46803, Note_on_c, 4, 61, 127
6, 46841, Note_on_c, 4, 61, 0
6, 46995, Note_on_c, 4, 60, 127
6, 47021, Note_on_c, 4, 60, 0
6, 47054, Note_on_c, 4, 61, 127
6, 47081, Note_on_c, 4, 61, 0
6, 47237, Note_on_c, 4, 60, 127
6, 47261, Note_on_c, 4, 60, 0
6, 47294, Note_on_c, 4, 61, 127
6, 47322, Note_on_c, 4, 61, 0
6, 47469, Note_on_c, 4, 60, 127
6, 47490, Note_on_c, 4, 60, 0
6, 47537, Note_on_c, 4, 56, 127
6, 47553, Note_on_c, 4, 56, 0
6, 47595, Note_on_c, 4, 56, 127
6, 47611, Note_on_c, 4, 56, 0
6, 47650, Note_on_c, 4, 56, 127
6, 47670, Note_on_c, 4, 56, 0
6, 47711, Note_on_c, 4, 56, 127
6, 47725, Note_on_c, 4, 56, 0
6, 47767, Note_on_c, 4, 56, 127
6, 47786, Note_on_c, 4, 56, 0
6, 47824, Note_on_c, 4, 56, 127
6, 47843, Note_on_c, 4, 56, 0
6, 47886, Note_on_c, 4, 56, 127
6, 47902, Note_on_c, 4, 56, 0
6, 47948, Note_on_c, 4, 56, 127
6, 47965, Note_on_c, 4, 56, 0
6, 48007, Note_on_c, 4, 56, 127
6, 48033, Note_on_c, 4, 56, 0
6, 48123, Note_on_c, 4, 54, 127
6, 48157, Note_on_c, 4, 54, 0
6, 48252, Note_on_c, 4, 52, 127
6, 48289, Note_on_c, 4, 52, 0
6, 48368, Note_on_c, 4, 50, 127
6, 48404, Note_on_c, 4, 50, 0
6, 56160, Note_on_c, 4, 61, 127
6, 56211, Note_on_c, 4, 61, 0
6, 56345, Note_on_c, 4, 60, 127
6, 56374, Note_on_c, 4, 60, 0
6, 56403, Note_on_c, 4, 61, 127
6, 56441, Note_on_c, 4, 61, 0
6, 56595, Note_on_c, 4, 60, 127
6, 56621, Note_on_c, 4, 60, 0
6, 56654, Note_on_c, 4, 61, 127
6, 56681, Note_on_c, 4, 61, 0
6, 56837, Note_on_c, 4, 60, 127
6, 56861, Note_on_c, 4, 60, 0
6, 56894, Note_on_c, 4, 61, 127
6, 56922, Note_on_c, 4, 61, 0
6, 57069, Note_on_c, 4, 60, 127
6, 57090, Note_on_c, 4, 60, 0
6, 57137, Note_on_c, 4, 56, 127
6, 57153, Note_on_c, 4, 56, 0
6, 57195, Note_on_c, 4, 56, 127
6, 57211, Note_on_c, 4, 56, 0
6, 57250, Note_on_c, 4, 56, 127
6, 57270, Note_on_c, 4, 56, 0
6, 57311, Note_on_c, 4, 56, 127
6, 57325, Note_on_c, 4, 56, 0
6, 57367, Note_on_c, 4, 56, 127
6, 57386, Note_on_c, 4, 56, 0
6, 57424, Note_on_c, 4, 56, 127
6, 57443, Note_on_c, 4, 56, 0
6, 57486, Note_on_c, 4, 56, 127
6, 57502, Note_on_c, 4, 56, 0
6, 57548, Note_on_c, 4, 56, 127
6, 57565, Note_on_c, 4, 56, 0
6, 57607, Note_on_c, 4, 56, 127
6, 57633, Note_on_c, 4, 56, 0
6, 57723, Note_on_c, 4, 54, 127
6, 57757, Note_on_c, 4, 54, 0
6, 57852, Note_on_c, 4, 52, 127
6, 57889, Note_on_c, 4, 52, 0
6, 57968, Note_on_c, 4, 50, 127
6, 58004, Note_on_c, 4, 50, 0
6, 58004, End_track
7, 0, Start_track
7, 0, MIDI_port, 0
7, 0, Title_t, "Michael A. Spikes  (Pad)"
7, 0, Program_c, 5, 89
7, 48489, Note_on_c, 5, 60, 127
7, 48491, Note_on_c, 5, 54, 127
7, 49391, Note_on_c, 5, 60, 0
7, 49401, Note_on_c, 5, 54, 0
7, 49426, Note_on_c, 5, 56, 115
7, 49430, Note_on_c, 5, 61, 127
7, 50362, Note_on_c, 5, 56, 0
7, 50378, Note_on_c, 5, 61, 0
7, 50400, Note_on_c, 5, 60, 127
7, 50401, Note_on_c, 5, 54, 127
7, 51305, Note_on_c, 5, 54, 0
7, 51308, Note_on_c, 5, 60, 0
7, 51349, Note_on_c, 5, 56, 127
7, 51352, Note_on_c, 5, 61, 127
7, 52197, Note_on_c, 5, 56, 0
7, 52198, Note_on_c, 5, 61, 0
7, 52311, Note_on_c, 5, 61, 94
7, 52312, Note_on_c, 5, 56, 115
7, 53237, Note_on_c, 5, 56, 0
7, 53240, Note_on_c, 5, 61, 0
7, 53269, Note_on_c, 5, 60, 77
7, 53274, Note_on_c, 5, 54, 119
7, 54190, Note_on_c, 5, 54, 0
7, 54200, Note_on_c, 5, 60, 0
7, 54227, Note_on_c, 5, 60, 92
7, 54229, Note_on_c, 5, 54, 124
7, 55077, Note_on_c, 5, 54, 0
7, 55164, Note_on_c, 5, 60, 0
7, 55181, Note_on_c, 5, 56, 127
7, 55184, Note_on_c, 5, 61, 105
7, 56107, Note_on_c, 5, 56, 0
7, 56112, Note_on_c, 5, 61, 0
7, 56112, End_track
8, 0, Start_track
8, 0, MIDI_port, 0
8, 0, Title_t, "---------------------          (Wah Effect)"
8, 0, Control_c, 6, 0, 0
8, 0, Control_c, 6, 32, 40
8, 0, Program_c, 6, 81
8, 48487, Note_on_c, 6, 60, 105
8, 48611, Note_on_c, 6, 60, 0
8, 48722, Note_on_c, 6, 60, 112
8, 48838, Note_on_c, 6, 60, 0
8, 48904, Note_on_c, 6, 60, 108
8, 48989, Note_on_c, 6, 60, 0
8, 49088, Note_on_c, 6, 60, 99
8, 49270, Note_on_c, 6, 60, 0
8, 49329, Note_on_c, 6, 60, 108
8, 49402, Note_on_c, 6, 60, 0
8, 49439, Note_on_c, 6, 61, 97
8, 49627, Note_on_c, 6, 61, 0
8, 49683, Note_on_c, 6, 61, 124
8, 49820, Note_on_c, 6, 61, 0
8, 49866, Note_on_c, 6, 61, 115
8, 49974, Note_on_c, 6, 61, 0
8, 50037, Note_on_c, 6, 61, 102
8, 50231, Note_on_c, 6, 61, 0
8, 50287, Note_on_c, 6, 61, 112
8, 50353, Note_on_c, 6, 61, 0
8, 50401, Note_on_c, 6, 60, 108
8, 50604, Note_on_c, 6, 60, 0
8, 50651, Note_on_c, 6, 60, 97
8, 50781, Note_on_c, 6, 60, 0
8, 50824, Note_on_c, 6, 60, 94
8, 50971, Note_on_c, 6, 60, 0
8, 51010, Note_on_c, 6, 60, 102
8, 51190, Note_on_c, 6, 60, 0
8, 51250, Note_on_c, 6, 60, 97
8, 51322, Note_on_c, 6, 60, 0
8, 51362, Note_on_c, 6, 61, 92
8, 52167, Note_on_c, 6, 61, 0
8, 52318, Note_on_c, 6, 61, 74
8, 52412, Note_on_c, 6, 61, 0
8, 52441, Note_on_c, 6, 61, 75
8, 52469, Note_on_c, 6, 61, 0
8, 52500, Note_on_c, 6, 61, 52
8, 52528, Note_on_c, 6, 61, 0
8, 52559, Note_on_c, 6, 61, 77
8, 52657, Note_on_c, 6, 61, 0
8, 52681, Note_on_c, 6, 61, 88
8, 52712, Note_on_c, 6, 61, 0
8, 52740, Note_on_c, 6, 61, 83
8, 52830, Note_on_c, 6, 61, 0
8, 52859, Note_on_c, 6, 61, 81
8, 52888, Note_on_c, 6, 61, 0
8, 52917, Note_on_c, 6, 61, 67
8, 53006, Note_on_c, 6, 61, 0
8, 53034, Note_on_c, 6, 61, 68
8, 53068, Note_on_c, 6, 61, 0
8, 53098, Note_on_c, 6, 61, 67
8, 53128, Note_on_c, 6, 61, 0
8, 53158, Note_on_c, 6, 61, 79
8, 53187, Note_on_c, 6, 61, 0
8, 53218, Note_on_c, 6, 61, 70
8, 53243, Note_on_c, 6, 61, 0
8, 53278, Note_on_c, 6, 60, 74
8, 53345, Note_on_c, 6, 60, 0
8, 53392, Note_on_c, 6, 60, 84
8, 53418, Note_on_c, 6, 60, 0
8, 53462, Note_on_c, 6, 60, 88
8, 53482, Note_on_c, 6, 60, 0
8, 53518, Note_on_c, 6, 60, 97
8, 53608, Note_on_c, 6, 60, 0
8, 53641, Note_on_c, 6, 60, 94
8, 53665, Note_on_c, 6, 60, 0
8, 53698, Note_on_c, 6, 60, 88
8, 53780, Note_on_c, 6, 60, 0
8, 53815, Note_on_c, 6, 60, 86
8, 53835, Note_on_c, 6, 60, 0
8, 53875, Note_on_c, 6, 60, 105
8, 53960, Note_on_c, 6, 60, 0
8, 53990, Note_on_c, 6, 60, 74
8, 54020, Note_on_c, 6, 60, 0
8, 54054, Note_on_c, 6, 60, 63
8, 54079, Note_on_c, 6, 60, 0
8, 54112, Note_on_c, 6, 60, 70
8, 54141, Note_on_c, 6, 60, 0
8, 54177, Note_on_c, 6, 60, 69
8, 54202, Note_on_c, 6, 60, 0
8, 54236, Note_on_c, 6, 60, 97
8, 54337, Note_on_c, 6, 60, 0
8, 54361, Note_on_c, 6, 60, 83
8, 54392, Note_on_c, 6, 60, 0
8, 54418, Note_on_c, 6, 60, 61
8, 54449, Note_on_c, 6, 60, 0
8, 54479, Note_on_c, 6, 60, 102
8, 54558, Note_on_c, 6, 60, 0
8, 54589, Note_on_c, 6, 60, 94
8, 54615, Note_on_c, 6, 60, 0
8, 54650, Note_on_c, 6, 60, 73
8, 54743, Note_on_c, 6, 60, 0
8, 54772, Note_on_c, 6, 60, 72
8, 54799, Note_on_c, 6, 60, 0
8, 54832, Note_on_c, 6, 60, 92
8, 54861, Note_on_c, 6, 60, 0
8, 54898, Note_on_c, 6, 60, 74
8, 54922, Note_on_c, 6, 60, 0
8, 54953, Note_on_c, 6, 60, 99
8, 54985, Note_on_c, 6, 60, 0
8, 55073, Note_on_c, 6, 60, 115
8, 55103, Note_on_c, 6, 60, 0
8, 55193, Note_on_c, 6, 61, 108
8, 55706, Note_on_c, 6, 61, 0
8, 55706, End_track
9, 0, Start_track
9, 0, MIDI_port, 0
9, 0, Title_t, "Friday, August 18th  (Vocal 2/Beyonce)"
9, 0, Program_c, 7, 85
9, 19670, Note_on_c, 7, 68, 127
9, 19706, Note_on_c, 7, 68, 0
9, 19734, Note_on_c, 7, 68, 127
9, 19766, Note_on_c, 7, 68, 0
9, 19801, Note_on_c, 7, 68, 127
9, 19829, Note_on_c, 7, 68, 0
9, 19857, Note_on_c, 7, 68, 127
9, 19884, Note_on_c, 7, 68, 0
9, 19927, Note_on_c, 7, 63, 127
9, 20027, Note_on_c, 7, 63, 0
9, 20053, Note_on_c, 7, 63, 119
9, 20079, Note_on_c, 7, 63, 0
9, 20107, Note_on_c, 7, 64, 127
9, 20161, Note_on_c, 7, 64, 0
9, 20347, Note_on_c, 7, 63, 127
9, 20372, Note_on_c, 7, 63, 0
9, 20411, Note_on_c, 7, 64, 127
9, 20431, Note_on_c, 7, 63, 39
9, 20455, Note_on_c, 7, 63, 0
9, 20470, Note_on_c, 7, 64, 0
9, 20520, Note_on_c, 7, 66, 127
9, 20542, Note_on_c, 7, 66, 0
9, 20575, Note_on_c, 7, 66, 127
9, 20601, Note_on_c, 7, 66, 0
9, 20640, Note_on_c, 7, 63, 127
9, 20669, Note_on_c, 7, 63, 0
9, 20699, Note_on_c, 7, 63, 127
9, 20726, Note_on_c, 7, 63, 0
9, 20762, Note_on_c, 7, 63, 127
9, 20785, Note_on_c, 7, 63, 0
9, 20819, Note_on_c, 7, 63, 127
9, 20845, Note_on_c, 7, 63, 0
9, 20883, Note_on_c, 7, 63, 127
9, 20909, Note_on_c, 7, 63, 0
9, 20945, Note_on_c, 7, 63, 127
9, 20969, Note_on_c, 7, 63, 0
9, 21004, Note_on_c, 7, 63, 127
9, 21080, Note_on_c, 7, 63, 0
9, 21119, Note_on_c, 7, 64, 127
9, 21182, Note_on_c, 7, 64, 0
9, 21419, Note_on_c, 7, 63, 127
9, 21449, Note_on_c, 7, 63, 0
9, 21478, Note_on_c, 7, 63, 124
9, 21510, Note_on_c, 7, 63, 0
9, 21538, Note_on_c, 7, 63, 108
9, 21569, Note_on_c, 7, 63, 0
9, 21600, Note_on_c, 7, 68, 127
9, 21627, Note_on_c, 7, 68, 0
9, 21657, Note_on_c, 7, 68, 127
9, 21686, Note_on_c, 7, 68, 0
9, 21716, Note_on_c, 7, 68, 119
9, 21744, Note_on_c, 7, 68, 0
9, 21780, Note_on_c, 7, 68, 124
9, 21800, Note_on_c, 7, 68, 0
9, 21843, Note_on_c, 7, 63, 127
9, 21869, Note_on_c, 7, 63, 0
9, 21900, Note_on_c, 7, 63, 127
9, 21928, Note_on_c, 7, 63, 0
9, 21957, Note_on_c, 7, 63, 127
9, 21988, Note_on_c, 7, 63, 0
9, 22020, Note_on_c, 7, 64, 127
9, 22066, Note_on_c, 7, 64, 0
9, 22254, Note_on_c, 7, 63, 127
9, 22280, Note_on_c, 7, 63, 0
9, 22316, Note_on_c, 7, 64, 127
9, 22342, Note_on_c, 7, 64, 0
9, 22371, Note_on_c, 7, 64, 127
9, 22396, Note_on_c, 7, 64, 0
9, 22434, Note_on_c, 7, 66, 127
9, 22463, Note_on_c, 7, 66, 0
9, 22497, Note_on_c, 7, 66, 124
9, 22519, Note_on_c, 7, 66, 0
9, 22559, Note_on_c, 7, 63, 127
9, 22564, Note_on_c, 7, 62, 115
9, 22577, Note_on_c, 7, 62, 0
9, 22588, Note_on_c, 7, 63, 0
9, 22619, Note_on_c, 7, 63, 127
9, 22645, Note_on_c, 7, 63, 0
9, 22683, Note_on_c, 7, 63, 127
9, 22707, Note_on_c, 7, 63, 0
9, 22742, Note_on_c, 7, 63, 127
9, 22766, Note_on_c, 7, 63, 0
9, 22803, Note_on_c, 7, 63, 127
9, 22831, Note_on_c, 7, 63, 0
9, 22917, Note_on_c, 7, 63, 127
9, 22942, Note_on_c, 7, 63, 0
9, 23032, Note_on_c, 7, 63, 127
9, 23066, Note_on_c, 7, 63, 0
9, 38880, Note_on_c, 7, 68, 127
9, 38916, Note_on_c, 7, 68, 0
9, 38944, Note_on_c, 7, 68, 127
9, 38976, Note_on_c, 7, 68, 0
9, 39011, Note_on_c, 7, 68, 127
9, 39039, Note_on_c, 7, 68, 0
9, 39067, Note_on_c, 7, 68, 127
9, 39094, Note_on_c, 7, 68, 0
9, 39137, Note_on_c, 7, 63, 127
9, 39237, Note_on_c, 7, 63, 0
9, 39263, Note_on_c, 7, 63, 119
9, 39289, Note_on_c, 7, 63, 0
9, 39317, Note_on_c, 7, 64, 127
9, 39371, Note_on_c, 7, 64, 0
9, 39557, Note_on_c, 7, 63, 127
9, 39582, Note_on_c, 7, 63, 0
9, 39621, Note_on_c, 7, 64, 127
9, 39641, Note_on_c, 7, 63, 39
9, 39665, Note_on_c, 7, 63, 0
9, 39680, Note_on_c, 7, 64, 0
9, 39730, Note_on_c, 7, 66, 127
9, 39752, Note_on_c, 7, 66, 0
9, 39785, Note_on_c, 7, 66, 127
9, 39811, Note_on_c, 7, 66, 0
9, 39850, Note_on_c, 7, 63, 127
9, 39879, Note_on_c, 7, 63, 0
9, 39909, Note_on_c, 7, 63, 127
9, 39936, Note_on_c, 7, 63, 0
9, 39972, Note_on_c, 7, 63, 127
9, 39995, Note_on_c, 7, 63, 0
9, 40029, Note_on_c, 7, 63, 127
9, 40055, Note_on_c, 7, 63, 0
9, 40093, Note_on_c, 7, 63, 127
9, 40119, Note_on_c, 7, 63, 0
9, 40155, Note_on_c, 7, 63, 127
9, 40179, Note_on_c, 7, 63, 0
9, 40214, Note_on_c, 7, 63, 127
9, 40290, Note_on_c, 7, 63, 0
9, 40329, Note_on_c, 7, 64, 127
9, 40392, Note_on_c, 7, 64, 0
9, 40629, Note_on_c, 7, 63, 127
9, 40659, Note_on_c, 7, 63, 0
9, 40688, Note_on_c, 7, 63, 124
9, 40720, Note_on_c, 7, 63, 0
9, 40748, Note_on_c, 7, 63, 108
9, 40779, Note_on_c, 7, 63, 0
9, 40810, Note_on_c, 7, 68, 127
9, 40837, Note_on_c, 7, 68, 0
9, 40867, Note_on_c, 7, 68, 127
9, 40896, Note_on_c, 7, 68, 0
9, 40926, Note_on_c, 7, 68, 119
9, 40954, Note_on_c, 7, 68, 0
9, 40990, Note_on_c, 7, 68, 124
9, 41010, Note_on_c, 7, 68, 0
9, 41053, Note_on_c, 7, 63, 127
9, 41079, Note_on_c, 7, 63, 0
9, 41110, Note_on_c, 7, 63, 127
9, 41138, Note_on_c, 7, 63, 0
9, 41167, Note_on_c, 7, 63, 127
9, 41198, Note_on_c, 7, 63, 0
9, 41230, Note_on_c, 7, 64, 127
9, 41276, Note_on_c, 7, 64, 0
9, 41464, Note_on_c, 7, 63, 127
9, 41490, Note_on_c, 7, 63, 0
9, 41526, Note_on_c, 7, 64, 127
9, 41552, Note_on_c, 7, 64, 0
9, 41581, Note_on_c, 7, 64, 127
9, 41606, Note_on_c, 7, 64, 0
9, 41644, Note_on_c, 7, 66, 127
9, 41673, Note_on_c, 7, 66, 0
9, 41707, Note_on_c, 7, 66, 124
9, 41729, Note_on_c, 7, 66, 0
9, 41769, Note_on_c, 7, 63, 127
9, 41774, Note_on_c, 7, 62, 115
9, 41787, Note_on_c, 7, 62, 0
9, 41798, Note_on_c, 7, 63, 0
9, 41829, Note_on_c, 7, 63, 127
9, 41855, Note_on_c, 7, 63, 0
9, 41893, Note_on_c, 7, 63, 127
9, 41917, Note_on_c, 7, 63, 0
9, 41952, Note_on_c, 7, 63, 127
9, 41976, Note_on_c, 7, 63, 0
9, 42013, Note_on_c, 7, 63, 127
9, 42041, Note_on_c, 7, 63, 0
9, 42127, Note_on_c, 7, 63, 127
9, 42152, Note_on_c, 7, 63, 0
9, 42242, Note_on_c, 7, 63, 127
9, 42276, Note_on_c, 7, 63, 0
9, 66120, Note_on_c, 7, 68, 127
9, 66146, Note_on_c, 7, 68, 0
9, 66183, Note_on_c, 7, 68, 124
9, 66208, Note_on_c, 7, 68, 0
9, 66243, Note_on_c, 7, 68, 124
9, 66274, Note_on_c, 7, 68, 0
9, 66294, Note_on_c, 7, 66, 105
9, 66326, Note_on_c, 7, 66, 0
9, 66355, Note_on_c, 7, 68, 124
9, 66393, Note_on_c, 7, 68, 0
9, 66419, Note_on_c, 7, 66, 115
9, 66458, Note_on_c, 7, 66, 0
9, 67085, Note_on_c, 7, 64, 90
9, 67111, Note_on_c, 7, 64, 0
9, 67148, Note_on_c, 7, 64, 88
9, 67174, Note_on_c, 7, 64, 0
9, 67209, Note_on_c, 7, 64, 94
9, 67234, Note_on_c, 7, 64, 0
9, 67270, Note_on_c, 7, 61, 112
9, 67292, Note_on_c, 7, 61, 0
9, 67327, Note_on_c, 7, 64, 127
9, 67360, Note_on_c, 7, 64, 0
9, 67387, Note_on_c, 7, 61, 105
9, 67423, Note_on_c, 7, 61, 0
9, 68038, Note_on_c, 7, 61, 127
9, 68057, Note_on_c, 7, 61, 0
9, 68097, Note_on_c, 7, 61, 102
9, 68115, Note_on_c, 7, 61, 0
9, 68159, Note_on_c, 7, 61, 127
9, 68184, Note_on_c, 7, 61, 0
9, 68214, Note_on_c, 7, 56, 84
9, 68244, Note_on_c, 7, 56, 0
9, 68283, Note_on_c, 7, 61, 127
9, 68313, Note_on_c, 7, 61, 0
9, 68340, Note_on_c, 7, 56, 108
9, 68381, Note_on_c, 7, 56, 0
9, 68762, Note_on_c, 7, 64, 112
9, 68783, Note_on_c, 7, 64, 0
9, 68827, Note_on_c, 7, 64, 124
9, 68976, Note_on_c, 7, 64, 0
9, 69236, Note_on_c, 7, 64, 102
9, 69260, Note_on_c, 7, 64, 0
9, 69298, Note_on_c, 7, 66, 127
9, 69416, Note_on_c, 7, 66, 0
9, 69424, Note_on_c, 7, 64, 105
9, 69456, Note_on_c, 7, 64, 0
9, 69484, Note_on_c, 7, 61, 102
9, 69579, Note_on_c, 7, 61, 0
9, 69960, Note_on_c, 7, 68, 127
9, 69984, Note_on_c, 7, 68, 0
9, 70019, Note_on_c, 7, 68, 84
9, 70043, Note_on_c, 7, 68, 0
9, 70083, Note_on_c, 7, 68, 105
9, 70115, Note_on_c, 7, 68, 0
9, 70140, Note_on_c, 7, 66, 78
9, 70167, Note_on_c, 7, 66, 0
9, 70205, Note_on_c, 7, 68, 127
9, 70234, Note_on_c, 7, 68, 0
9, 70263, Note_on_c, 7, 66, 94
9, 70291, Note_on_c, 7, 66, 0
9, 70918, Note_on_c, 7, 64, 124
9, 70944, Note_on_c, 7, 64, 0
9, 70985, Note_on_c, 7, 64, 119
9, 71007, Note_on_c, 7, 64, 0
9, 71043, Note_on_c, 7, 64, 108
9, 71073, Note_on_c, 7, 64, 0
9, 71097, Note_on_c, 7, 61, 90
9, 71122, Note_on_c, 7, 61, 0
9, 71158, Note_on_c, 7, 64, 127
9, 71190, Note_on_c, 7, 64, 0
9, 71223, Note_on_c, 7, 61, 90
9, 71259, Note_on_c, 7, 61, 0
9, 71875, Note_on_c, 7, 61, 127
9, 71903, Note_on_c, 7, 61, 0
9, 71941, Note_on_c, 7, 61, 127
9, 71963, Note_on_c, 7, 61, 0
9, 72003, Note_on_c, 7, 61, 124
9, 72031, Note_on_c, 7, 61, 0
9, 72056, Note_on_c, 7, 56, 83
9, 72086, Note_on_c, 7, 56, 0
9, 72124, Note_on_c, 7, 61, 127
9, 72155, Note_on_c, 7, 61, 0
9, 72179, Note_on_c, 7, 56, 84
9, 72264, Note_on_c, 7, 56, 0
9, 72597, Note_on_c, 7, 64, 108
9, 72617, Note_on_c, 7, 64, 0
9, 72663, Note_on_c, 7, 64, 119
9, 72940, Note_on_c, 7, 64, 0
9, 73072, Note_on_c, 7, 64, 88
9, 73095, Note_on_c, 7, 64, 0
9, 73135, Note_on_c, 7, 66, 124
9, 73246, Note_on_c, 7, 66, 0
9, 73259, Note_on_c, 7, 64, 97
9, 73290, Note_on_c, 7, 64, 0
9, 73322, Note_on_c, 7, 61, 86
9, 73412, Note_on_c, 7, 61, 0
9, 79208, Note_on_c, 7, 68, 124
9, 79232, Note_on_c, 7, 68, 0
9, 79264, Note_on_c, 7, 68, 119
9, 79290, Note_on_c, 7, 68, 0
9, 79325, Note_on_c, 7, 68, 119
9, 79348, Note_on_c, 7, 68, 0
9, 79383, Note_on_c, 7, 68, 115
9, 79409, Note_on_c, 7, 68, 0
9, 79441, Note_on_c, 7, 63, 127
9, 79521, Note_on_c, 7, 63, 0
9, 79558, Note_on_c, 7, 63, 75
9, 79580, Note_on_c, 7, 63, 0
9, 79618, Note_on_c, 7, 64, 112
9, 79668, Note_on_c, 7, 64, 0
9, 79857, Note_on_c, 7, 63, 119
9, 79885, Note_on_c, 7, 63, 0
9, 79916, Note_on_c, 7, 64, 127
9, 79947, Note_on_c, 7, 64, 0
9, 79978, Note_on_c, 7, 64, 112
9, 80004, Note_on_c, 7, 64, 0
9, 80038, Note_on_c, 7, 66, 127
9, 80065, Note_on_c, 7, 66, 0
9, 80096, Note_on_c, 7, 66, 108
9, 80125, Note_on_c, 7, 66, 0
9, 80163, Note_on_c, 7, 63, 124
9, 80195, Note_on_c, 7, 63, 0
9, 80224, Note_on_c, 7, 63, 115
9, 80250, Note_on_c, 7, 63, 0
9, 80279, Note_on_c, 7, 63, 124
9, 80307, Note_on_c, 7, 63, 0
9, 80336, Note_on_c, 7, 63, 102
9, 80363, Note_on_c, 7, 63, 0
9, 80398, Note_on_c, 7, 63, 124
9, 80428, Note_on_c, 7, 63, 0
9, 80459, Note_on_c, 7, 63, 112
9, 80484, Note_on_c, 7, 63, 0
9, 80519, Note_on_c, 7, 63, 108
9, 80597, Note_on_c, 7, 63, 0
9, 80628, Note_on_c, 7, 64, 127
9, 80691, Note_on_c, 7, 64, 0
9, 80936, Note_on_c, 7, 63, 124
9, 80968, Note_on_c, 7, 63, 0
9, 80996, Note_on_c, 7, 63, 99
9, 81027, Note_on_c, 7, 63, 0
9, 81055, Note_on_c, 7, 63, 115
9, 81093, Note_on_c, 7, 63, 0
9, 81120, Note_on_c, 7, 68, 115
9, 81149, Note_on_c, 7, 68, 0
9, 81182, Note_on_c, 7, 68, 97
9, 81207, Note_on_c, 7, 68, 0
9, 81242, Note_on_c, 7, 68, 92
9, 81267, Note_on_c, 7, 68, 0
9, 81302, Note_on_c, 7, 68, 99
9, 81325, Note_on_c, 7, 68, 0
9, 81359, Note_on_c, 7, 63, 115
9, 81388, Note_on_c, 7, 63, 0
9, 81420, Note_on_c, 7, 63, 112
9, 81445, Note_on_c, 7, 63, 0
9, 81476, Note_on_c, 7, 63, 115
9, 81510, Note_on_c, 7, 63, 0
9, 81542, Note_on_c, 7, 64, 127
9, 81582, Note_on_c, 7, 64, 0
9, 81770, Note_on_c, 7, 63, 119
9, 81799, Note_on_c, 7, 63, 0
9, 81835, Note_on_c, 7, 64, 127
9, 81858, Note_on_c, 7, 64, 0
9, 81894, Note_on_c, 7, 64, 127
9, 81915, Note_on_c, 7, 64, 0
9, 81954, Note_on_c, 7, 66, 127
9, 81975, Note_on_c, 7, 66, 0
9, 82015, Note_on_c, 7, 66, 119
9, 82036, Note_on_c, 7, 66, 0
9, 82079, Note_on_c, 7, 63, 127
9, 82101, Note_on_c, 7, 63, 0
9, 82136, Note_on_c, 7, 63, 112
9, 82161, Note_on_c, 7, 63, 0
9, 82195, Note_on_c, 7, 63, 112
9, 82222, Note_on_c, 7, 63, 0
9, 82256, Note_on_c, 7, 63, 119
9, 82282, Note_on_c, 7, 63, 0
9, 82319, Note_on_c, 7, 63, 119
9, 82343, Note_on_c, 7, 63, 0
9, 82439, Note_on_c, 7, 63, 115
9, 82459, Note_on_c, 7, 63, 0
9, 82555, Note_on_c, 7, 63, 124
9, 82579, Note_on_c, 7, 63, 0
9, 82579, End_track
10, 0, Start_track
10, 0, MIDI_port, 0
10, 0, Title_t, "2000  --------              (Sine)"
10, 0, Control_c, 8, 0, 0
10, 0, Control_c, 8, 32, 66
10, 0, Program_c, 8, 80
10, 55938, Control_c, 8, 7, 127
10, 56006, Control_c, 8, 7, 126
10, 56016, Control_c, 8, 7, 122
10, 56042, Control_c, 8, 7, 123
10, 56108, Control_c, 8, 7, 127
10, 56136, Pitch_bend_c, 8, 7168
10, 56140, Pitch_bend_c, 8, 5632
10, 56145, Pitch_bend_c, 8, 3712
10, 56149, Pitch_bend_c, 8, 1664
10, 56154, Pitch_bend_c, 8, 0
10, 56157, Note_on_c, 8, 85, 70
10, 56193, Pitch_bend_c, 8, 1152
10, 56198, Pitch_bend_c, 8, 2944
10, 56202, Pitch_bend_c, 8, 4608
10, 56207, Pitch_bend_c, 8, 5888
10, 56211, Pitch_bend_c, 8, 6912
10, 56215, Pitch_bend_c, 8, 7680
10, 56220, Pitch_bend_c, 8, 8192
10, 56625, Pitch_bend_c, 8, 7424
10, 56630, Pitch_bend_c, 8, 5120
10, 56634, Pitch_bend_c, 8, 1920
10, 56638, Pitch_bend_c, 8, 0
10, 56650, Note_on_c, 8, 80, 49
10, 56661, Note_on_c, 8, 85, 0
10, 56687, Pitch_bend_c, 8, 3200
10, 56691, Pitch_bend_c, 8, 6400
10, 56695, Pitch_bend_c, 8, 8192
10, 57100, Pitch_bend_c, 8, 6912
10, 57104, Pitch_bend_c, 8, 4864
10, 57108, Pitch_bend_c, 8, 1920
10, 57113, Pitch_bend_c, 8, 0
10, 57121, Note_on_c, 8, 87, 77
10, 57131, Note_on_c, 8, 80, 0
10, 57161, Pitch_bend_c, 8, 2176
10, 57164, Pitch_bend_c, 8, 5376
10, 57168, Pitch_bend_c, 8, 7680
10, 57173, Pitch_bend_c, 8, 8192
10, 57588, Pitch_bend_c, 8, 8064
10, 57593, Pitch_bend_c, 8, 6656
10, 57597, Pitch_bend_c, 8, 3968
10, 57601, Pitch_bend_c, 8, 896
10, 57605, Pitch_bend_c, 8, 0
10, 57614, Note_on_c, 8, 80, 79
10, 57615, Note_on_c, 8, 87, 0
10, 57646, Pitch_bend_c, 8, 3456
10, 57650, Pitch_bend_c, 8, 6656
10, 57654, Pitch_bend_c, 8, 8192
10, 58080, Note_on_c, 8, 73, 100
10, 58094, Note_on_c, 8, 80, 0
10, 58369, Control_c, 8, 7, 124
10, 58402, Control_c, 8, 7, 122
10, 58466, Control_c, 8, 7, 119
10, 58500, Control_c, 8, 7, 116
10, 58521, Control_c, 8, 7, 114
10, 58553, Control_c, 8, 7, 112
10, 58565, Control_c, 8, 7, 109
10, 58576, Control_c, 8, 7, 107
10, 58597, Control_c, 8, 7, 105
10, 58608, Control_c, 8, 7, 102
10, 58619, Control_c, 8, 7, 100
10, 58641, Control_c, 8, 7, 98
10, 58652, Control_c, 8, 7, 96
10, 58674, Control_c, 8, 7, 92
10, 58686, Control_c, 8, 7, 90
10, 58697, Control_c, 8, 7, 88
10, 58708, Control_c, 8, 7, 86
10, 58718, Control_c, 8, 7, 82
10, 58729, Control_c, 8, 7, 81
10, 58751, Control_c, 8, 7, 79
10, 58762, Control_c, 8, 7, 77
10, 58772, Control_c, 8, 7, 76
10, 58783, Control_c, 8, 7, 72
10, 58795, Control_c, 8, 7, 69
10, 58817, Control_c, 8, 7, 66
10, 58828, Control_c, 8, 7, 64
10, 58849, Control_c, 8, 7, 61
10, 58860, Control_c, 8, 7, 58
10, 58882, Control_c, 8, 7, 56
10, 58893, Control_c, 8, 7, 54
10, 58903, Control_c, 8, 7, 51
10, 58914, Control_c, 8, 7, 49
10, 58926, Control_c, 8, 7, 47
10, 58937, Control_c, 8, 7, 45
10, 58947, Control_c, 8, 7, 43
10, 58958, Control_c, 8, 7, 41
10, 58969, Control_c, 8, 7, 40
10, 58991, Control_c, 8, 7, 38
10, 59001, Control_c, 8, 7, 35
10, 59023, Control_c, 8, 7, 33
10, 59035, Control_c, 8, 7, 32
10, 59046, Control_c, 8, 7, 30
10, 59057, Control_c, 8, 7, 28
10, 59078, Control_c, 8, 7, 26
10, 59111, Control_c, 8, 7, 25
10, 59122, Control_c, 8, 7, 23
10, 59166, Control_c, 8, 7, 22
10, 59199, Control_c, 8, 7, 20
10, 59209, Control_c, 8, 7, 18
10, 59220, Control_c, 8, 7, 17
10, 59232, Control_c, 8, 7, 15
10, 59242, Control_c, 8, 7, 13
10, 59253, Control_c, 8, 7, 11
10, 59263, Control_c, 8, 7, 8
10, 59274, Control_c, 8, 7, 6
10, 59285, Control_c, 8, 7, 3
10, 59296, Control_c, 8, 7, 1
10, 59307, Control_c, 8, 7, 0
10, 59400, Note_on_c, 8, 73, 0
10, 59400, End_track
11, 0, Start_track
11, 0, MIDI_port, 0
11, 0, Title_t, "--------------------            (Drum)"
11, 0, Control_c, 9, 0, 127
11, 0, Control_c, 9, 32, 0
11, 0, Program_c, 9, 0
11, 4320, Note_on_c, 9, 36, 100
11, 4320, Note_on_c, 9, 44, 100
11, 4320, Note_on_c, 9, 36, 100
11, 4320, Note_on_c, 9, 44, 100
11, 4320, Note_on_c, 9, 36, 100
11, 4320, Note_on_c, 9, 44, 100
11, 4350, Note_on_c, 9, 44, 0
11, 4350, Note_on_c, 9, 44, 0
11, 4350, Note_on_c, 9, 36, 0
11, 4350, Note_on_c, 9, 36, 0
11, 4350, Note_on_c, 9, 36, 0
11, 4350, Note_on_c, 9, 44, 0
11, 4380, Note_on_c, 9, 36, 100
11, 4380, Note_on_c, 9, 36, 100
11, 4380, Note_on_c, 9, 36, 100
11, 4410, Note_on_c, 9, 36, 0
11, 4410, Note_on_c, 9, 36, 0
11, 4410, Note_on_c, 9, 36, 0
11, 4440, Note_on_c, 9, 36, 100
11, 4440, Note_on_c, 9, 44, 100
11, 4440, Note_on_c, 9, 34, 100
11, 4440, Note_on_c, 9, 36, 100
11, 4440, Note_on_c, 9, 44, 100
11, 4440, Note_on_c, 9, 40, 100
11, 4440, Note_on_c, 9, 36, 100
11, 4440, Note_on_c, 9, 44, 100
11, 4440, Note_on_c, 9, 40, 100
11, 4470, Note_on_c, 9, 40, 0
11, 4470, Note_on_c, 9, 36, 0
11, 4470, Note_on_c, 9, 36, 0
11, 4470, Note_on_c, 9, 44, 0
11, 4470, Note_on_c, 9, 44, 0
11, 4470, Note_on_c, 9, 34, 0
11, 4470, Note_on_c, 9, 36, 0
11, 4470, Note_on_c, 9, 40, 0
11, 4470, Note_on_c, 9, 44, 0
11, 4500, Note_on_c, 9, 36, 100
11, 4500, Note_on_c, 9, 36, 100
11, 4500, Note_on_c, 9, 36, 100
11, 4530, Note_on_c, 9, 36, 0
11, 4530, Note_on_c, 9, 36, 0
11, 4530, Note_on_c, 9, 36, 0
11, 4560, Note_on_c, 9, 36, 100
11, 4560, Note_on_c, 9, 44, 100
11, 4560, Note_on_c, 9, 36, 100
11, 4560, Note_on_c, 9, 44, 100
11, 4560, Note_on_c, 9, 36, 100
11, 4560, Note_on_c, 9, 44, 100
11, 4590, Note_on_c, 9, 44, 0
11, 4590, Note_on_c, 9, 44, 0
11, 4590, Note_on_c, 9, 36, 0
11, 4590, Note_on_c, 9, 36, 0
11, 4590, Note_on_c, 9, 36, 0
11, 4590, Note_on_c, 9, 44, 0
11, 4680, Note_on_c, 9, 36, 100
11, 4680, Note_on_c, 9, 44, 100
11, 4680, Note_on_c, 9, 34, 100
11, 4680, Note_on_c, 9, 36, 100
11, 4680, Note_on_c, 9, 44, 100
11, 4680, Note_on_c, 9, 40, 100
11, 4680, Note_on_c, 9, 36, 100
11, 4680, Note_on_c, 9, 44, 100
11, 4680, Note_on_c, 9, 40, 100
11, 4710, Note_on_c, 9, 40, 0
11, 4710, Note_on_c, 9, 36, 0
11, 4710, Note_on_c, 9, 36, 0
11, 4710, Note_on_c, 9, 44, 0
11, 4710, Note_on_c, 9, 44, 0
11, 4710, Note_on_c, 9, 34, 0
11, 4710, Note_on_c, 9, 36, 0
11, 4710, Note_on_c, 9, 40, 0
11, 4710, Note_on_c, 9, 44, 0
11, 4800, Note_on_c, 9, 36, 100
11, 4800, Note_on_c, 9, 44, 100
11, 4800, Note_on_c, 9, 36, 100
11, 4800, Note_on_c, 9, 44, 100
11, 4800, Note_on_c, 9, 36, 100
11, 4800, Note_on_c, 9, 44, 100
11, 4830, Note_on_c, 9, 44, 0
11, 4830, Note_on_c, 9, 44, 0
11, 4830, Note_on_c, 9, 36, 0
11, 4830, Note_on_c, 9, 36, 0
11, 4830, Note_on_c, 9, 36, 0
11, 4830, Note_on_c, 9, 44, 0
11, 4920, Note_on_c, 9, 36, 100
11, 4920, Note_on_c, 9, 44, 100
11, 4920, Note_on_c, 9, 36, 100
11, 4920, Note_on_c, 9, 44, 100
11, 4920, Note_on_c, 9, 36, 100
11, 4920, Note_on_c, 9, 44, 100
11, 4950, Note_on_c, 9, 44, 0
11, 4950, Note_on_c, 9, 44, 0
11, 4950, Note_on_c, 9, 36, 0
11, 4950, Note_on_c, 9, 36, 0
11, 4950, Note_on_c, 9, 36, 0
11, 4950, Note_on_c, 9, 44, 0
11, 5040, Note_on_c, 9, 36, 100
11, 5040, Note_on_c, 9, 44, 100
11, 5040, Note_on_c, 9, 36, 100
11, 5040, Note_on_c, 9, 44, 100
11, 5040, Note_on_c, 9, 36, 100
11, 5040, Note_on_c, 9, 44, 100
11, 5070, Note_on_c, 9, 44, 0
11, 5070, Note_on_c, 9, 44, 0
11, 5070, Note_on_c, 9, 36, 0
11, 5070, Note_on_c, 9, 36, 0
11, 5070, Note_on_c, 9, 36, 0
11, 5070, Note_on_c, 9, 44, 0
11, 5160, Note_on_c, 9, 36, 100
11, 5160, Note_on_c, 9, 44, 100
11, 5160, Note_on_c, 9, 34, 100
11, 5160, Note_on_c, 9, 36, 100
11, 5160, Note_on_c, 9, 44, 100
11, 5160, Note_on_c, 9, 40, 100
11, 5160, Note_on_c, 9, 36, 100
11, 5160, Note_on_c, 9, 44, 100
11, 5160, Note_on_c, 9, 40, 100
11, 5190, Note_on_c, 9, 40, 0
11, 5190, Note_on_c, 9, 36, 0
11, 5190, Note_on_c, 9, 36, 0
11, 5190, Note_on_c, 9, 44, 0
11, 5190, Note_on_c, 9, 44, 0
11, 5190, Note_on_c, 9, 34, 0
11, 5190, Note_on_c, 9, 36, 0
11, 5190, Note_on_c, 9, 40, 0
11, 5190, Note_on_c, 9, 44, 0
11, 5280, Note_on_c, 9, 36, 100
11, 5280, Note_on_c, 9, 44, 100
11, 5280, Note_on_c, 9, 82, 100
11, 5280, Note_on_c, 9, 36, 100
11, 5280, Note_on_c, 9, 44, 100
11, 5280, Note_on_c, 9, 82, 100
11, 5310, Note_on_c, 9, 82, 0
11, 5310, Note_on_c, 9, 44, 0
11, 5310, Note_on_c, 9, 82, 0
11, 5310, Note_on_c, 9, 36, 0
11, 5310, Note_on_c, 9, 44, 0
11, 5310, Note_on_c, 9, 36, 0
11, 5340, Note_on_c, 9, 36, 100
11, 5340, Note_on_c, 9, 82, 100
11, 5340, Note_on_c, 9, 36, 100
11, 5340, Note_on_c, 9, 82, 100
11, 5370, Note_on_c, 9, 82, 0
11, 5370, Note_on_c, 9, 36, 0
11, 5370, Note_on_c, 9, 82, 0
11, 5370, Note_on_c, 9, 36, 0
11, 5400, Note_on_c, 9, 36, 100
11, 5400, Note_on_c, 9, 44, 100
11, 5400, Note_on_c, 9, 40, 100
11, 5400, Note_on_c, 9, 82, 100
11, 5400, Note_on_c, 9, 36, 100
11, 5400, Note_on_c, 9, 44, 100
11, 5400, Note_on_c, 9, 34, 100
11, 5400, Note_on_c, 9, 82, 100
11, 5430, Note_on_c, 9, 82, 0
11, 5430, Note_on_c, 9, 36, 0
11, 5430, Note_on_c, 9, 36, 0
11, 5430, Note_on_c, 9, 44, 0
11, 5430, Note_on_c, 9, 40, 0
11, 5430, Note_on_c, 9, 82, 0
11, 5430, Note_on_c, 9, 44, 0
11, 5430, Note_on_c, 9, 34, 0
11, 5460, Note_on_c, 9, 36, 100
11, 5460, Note_on_c, 9, 36, 100
11, 5490, Note_on_c, 9, 36, 0
11, 5490, Note_on_c, 9, 36, 0
11, 5520, Note_on_c, 9, 36, 100
11, 5520, Note_on_c, 9, 44, 100
11, 5520, Note_on_c, 9, 82, 100
11, 5520, Note_on_c, 9, 36, 100
11, 5520, Note_on_c, 9, 44, 100
11, 5520, Note_on_c, 9, 82, 100
11, 5550, Note_on_c, 9, 82, 0
11, 5550, Note_on_c, 9, 44, 0
11, 5550, Note_on_c, 9, 82, 0
11, 5550, Note_on_c, 9, 36, 0
11, 5550, Note_on_c, 9, 44, 0
11, 5550, Note_on_c, 9, 36, 0
11, 5580, Note_on_c, 9, 82, 100
11, 5580, Note_on_c, 9, 82, 100
11, 5610, Note_on_c, 9, 82, 0
11, 5610, Note_on_c, 9, 82, 0
11, 5640, Note_on_c, 9, 36, 100
11, 5640, Note_on_c, 9, 44, 100
11, 5640, Note_on_c, 9, 40, 100
11, 5640, Note_on_c, 9, 82, 100
11, 5640, Note_on_c, 9, 36, 100
11, 5640, Note_on_c, 9, 44, 100
11, 5640, Note_on_c, 9, 34, 100
11, 5640, Note_on_c, 9, 82, 100
11, 5670, Note_on_c, 9, 82, 0
11, 5670, Note_on_c, 9, 36, 0
11, 5670, Note_on_c, 9, 36, 0
11, 5670, Note_on_c, 9, 44, 0
11, 5670, Note_on_c, 9, 40, 0
11, 5670, Note_on_c, 9, 82, 0
11, 5670, Note_on_c, 9, 44, 0
11, 5670, Note_on_c, 9, 34, 0
11, 5760, Note_on_c, 9, 36, 100
11, 5760, Note_on_c, 9, 44, 100
11, 5760, Note_on_c, 9, 82, 100
11, 5760, Note_on_c, 9, 36, 100
11, 5760, Note_on_c, 9, 44, 100
11, 5760, Note_on_c, 9, 82, 100
11, 5790, Note_on_c, 9, 82, 0
11, 5790, Note_on_c, 9, 44, 0
11, 5790, Note_on_c, 9, 82, 0
11, 5790, Note_on_c, 9, 36, 0
11, 5790, Note_on_c, 9, 44, 0
11, 5790, Note_on_c, 9, 36, 0
11, 5820, Note_on_c, 9, 82, 100
11, 5820, Note_on_c, 9, 82, 100
11, 5850, Note_on_c, 9, 82, 0
11, 5850, Note_on_c, 9, 82, 0
11, 5880, Note_on_c, 9, 36, 100
11, 5880, Note_on_c, 9, 44, 100
11, 5880, Note_on_c, 9, 82, 100
11, 5880, Note_on_c, 9, 36, 100
11, 5880, Note_on_c, 9, 44, 100
11, 5880, Note_on_c, 9, 82, 100
11, 5910, Note_on_c, 9, 82, 0
11, 5910, Note_on_c, 9, 44, 0
11, 5910, Note_on_c, 9, 82, 0
11, 5910, Note_on_c, 9, 36, 0
11, 5910, Note_on_c, 9, 44, 0
11, 5910, Note_on_c, 9, 36, 0
11, 5940, Note_on_c, 9, 82, 100
11, 5940, Note_on_c, 9, 82, 100
11, 5970, Note_on_c, 9, 82, 0
11, 5970, Note_on_c, 9, 82, 0
11, 6000, Note_on_c, 9, 36, 100
11, 6000, Note_on_c, 9, 44, 100
11, 6000, Note_on_c, 9, 82, 100
11, 6000, Note_on_c, 9, 36, 100
11, 6000, Note_on_c, 9, 44, 100
11, 6000, Note_on_c, 9, 82, 100
11, 6030, Note_on_c, 9, 82, 0
11, 6030, Note_on_c, 9, 44, 0
11, 6030, Note_on_c, 9, 82, 0
11, 6030, Note_on_c, 9, 36, 0
11, 6030, Note_on_c, 9, 44, 0
11, 6030, Note_on_c, 9, 36, 0
11, 6060, Note_on_c, 9, 82, 100
11, 6060, Note_on_c, 9, 82, 100
11, 6090, Note_on_c, 9, 82, 0
11, 6090, Note_on_c, 9, 82, 0
11, 6120, Note_on_c, 9, 36, 100
11, 6120, Note_on_c, 9, 44, 100
11, 6120, Note_on_c, 9, 40, 100
11, 6120, Note_on_c, 9, 82, 100
11, 6120, Note_on_c, 9, 36, 100
11, 6120, Note_on_c, 9, 44, 100
11, 6120, Note_on_c, 9, 34, 100
11, 6120, Note_on_c, 9, 82, 100
11, 6150, Note_on_c, 9, 82, 0
11, 6150, Note_on_c, 9, 36, 0
11, 6150, Note_on_c, 9, 36, 0
11, 6150, Note_on_c, 9, 44, 0
11, 6150, Note_on_c, 9, 40, 0
11, 6150, Note_on_c, 9, 82, 0
11, 6150, Note_on_c, 9, 44, 0
11, 6150, Note_on_c, 9, 34, 0
11, 6180, Note_on_c, 9, 82, 100
11, 6180, Note_on_c, 9, 82, 100
11, 6210, Note_on_c, 9, 82, 0
11, 6210, Note_on_c, 9, 82, 0
11, 6240, Note_on_c, 9, 36, 100
11, 6240, Note_on_c, 9, 42, 100
11, 6270, Note_on_c, 9, 42, 0
11, 6270, Note_on_c, 9, 36, 0
11, 6300, Note_on_c, 9, 42, 100
11, 6330, Note_on_c, 9, 42, 0
11, 6360, Note_on_c, 9, 42, 100
11, 6390, Note_on_c, 9, 42, 0
11, 6420, Note_on_c, 9, 42, 100
11, 6450, Note_on_c, 9, 42, 0
11, 6480, Note_on_c, 9, 42, 100
11, 6480, Note_on_c, 9, 40, 100
11, 6510, Note_on_c, 9, 40, 0
11, 6510, Note_on_c, 9, 42, 0
11, 6540, Note_on_c, 9, 42, 100
11, 6570, Note_on_c, 9, 42, 0
11, 6600, Note_on_c, 9, 42, 100
11, 6630, Note_on_c, 9, 42, 0
11, 6660, Note_on_c, 9, 42, 100
11, 6690, Note_on_c, 9, 42, 0
11, 6720, Note_on_c, 9, 42, 100
11, 6720, Note_on_c, 9, 82, 100
11, 6720, Note_on_c, 9, 82, 100
11, 6720, Note_on_c, 9, 69, 100
11, 6750, Note_on_c, 9, 69, 0
11, 6750, Note_on_c, 9, 42, 0
11, 6750, Note_on_c, 9, 82, 0
11, 6750, Note_on_c, 9, 82, 0
11, 6780, Note_on_c, 9, 42, 100
11, 6780, Note_on_c, 9, 82, 100
11, 6780, Note_on_c, 9, 82, 100
11, 6780, Note_on_c, 9, 69, 100
11, 6810, Note_on_c, 9, 69, 0
11, 6810, Note_on_c, 9, 42, 0
11, 6810, Note_on_c, 9, 82, 0
11, 6810, Note_on_c, 9, 82, 0
11, 6840, Note_on_c, 9, 36, 100
11, 6840, Note_on_c, 9, 42, 100
11, 6840, Note_on_c, 9, 82, 100
11, 6840, Note_on_c, 9, 82, 100
11, 6840, Note_on_c, 9, 69, 100
11, 6870, Note_on_c, 9, 69, 0
11, 6870, Note_on_c, 9, 82, 0
11, 6870, Note_on_c, 9, 36, 0
11, 6870, Note_on_c, 9, 42, 0
11, 6870, Note_on_c, 9, 82, 0
11, 6900, Note_on_c, 9, 42, 100
11, 6930, Note_on_c, 9, 42, 0
11, 6960, Note_on_c, 9, 42, 100
11, 6960, Note_on_c, 9, 40, 100
11, 6990, Note_on_c, 9, 40, 0
11, 6990, Note_on_c, 9, 42, 0
11, 7020, Note_on_c, 9, 36, 100
11, 7020, Note_on_c, 9, 42, 100
11, 7050, Note_on_c, 9, 42, 0
11, 7050, Note_on_c, 9, 36, 0
11, 7080, Note_on_c, 9, 42, 100
11, 7110, Note_on_c, 9, 42, 0
11, 7140, Note_on_c, 9, 42, 100
11, 7170, Note_on_c, 9, 42, 0
11, 7200, Note_on_c, 9, 36, 100
11, 7200, Note_on_c, 9, 42, 100
11, 7230, Note_on_c, 9, 42, 0
11, 7230, Note_on_c, 9, 36, 0
11, 7260, Note_on_c, 9, 42, 100
11, 7290, Note_on_c, 9, 42, 0
11, 7320, Note_on_c, 9, 42, 100
11, 7350, Note_on_c, 9, 42, 0
11, 7380, Note_on_c, 9, 42, 100
11, 7410, Note_on_c, 9, 42, 0
11, 7440, Note_on_c, 9, 42, 100
11, 7440, Note_on_c, 9, 40, 100
11, 7470, Note_on_c, 9, 40, 0
11, 7470, Note_on_c, 9, 42, 0
11, 7500, Note_on_c, 9, 42, 100
11, 7530, Note_on_c, 9, 42, 0
11, 7560, Note_on_c, 9, 42, 100
11, 7590, Note_on_c, 9, 42, 0
11, 7620, Note_on_c, 9, 42, 100
11, 7650, Note_on_c, 9, 42, 0
11, 7680, Note_on_c, 9, 42, 100
11, 7680, Note_on_c, 9, 82, 100
11, 7680, Note_on_c, 9, 82, 100
11, 7680, Note_on_c, 9, 69, 100
11, 7710, Note_on_c, 9, 69, 0
11, 7710, Note_on_c, 9, 42, 0
11, 7710, Note_on_c, 9, 82, 0
11, 7710, Note_on_c, 9, 82, 0
11, 7740, Note_on_c, 9, 42, 100
11, 7740, Note_on_c, 9, 82, 100
11, 7740, Note_on_c, 9, 82, 100
11, 7740, Note_on_c, 9, 69, 100
11, 7770, Note_on_c, 9, 69, 0
11, 7770, Note_on_c, 9, 42, 0
11, 7770, Note_on_c, 9, 82, 0
11, 7770, Note_on_c, 9, 82, 0
11, 7800, Note_on_c, 9, 36, 100
11, 7800, Note_on_c, 9, 42, 100
11, 7800, Note_on_c, 9, 82, 100
11, 7800, Note_on_c, 9, 82, 100
11, 7800, Note_on_c, 9, 69, 100
11, 7830, Note_on_c, 9, 69, 0
11, 7830, Note_on_c, 9, 82, 0
11, 7830, Note_on_c, 9, 36, 0
11, 7830, Note_on_c, 9, 42, 0
11, 7830, Note_on_c, 9, 82, 0
11, 7860, Note_on_c, 9, 42, 100
11, 7890, Note_on_c, 9, 42, 0
11, 7920, Note_on_c, 9, 42, 100
11, 7920, Note_on_c, 9, 40, 100
11, 7950, Note_on_c, 9, 40, 0
11, 7950, Note_on_c, 9, 42, 0
11, 7980, Note_on_c, 9, 36, 100
11, 7980, Note_on_c, 9, 42, 100
11, 8010, Note_on_c, 9, 42, 0
11, 8010, Note_on_c, 9, 36, 0
11, 8040, Note_on_c, 9, 42, 100
11, 8070, Note_on_c, 9, 42, 0
11, 8100, Note_on_c, 9, 42, 100
11, 8130, Note_on_c, 9, 42, 0
11, 8160, Note_on_c, 9, 36, 100
11, 8160, Note_on_c, 9, 42, 100
11, 8190, Note_on_c, 9, 42, 0
11, 8190, Note_on_c, 9, 36, 0
11, 8220, Note_on_c, 9, 42, 100
11, 8250, Note_on_c, 9, 42, 0
11, 8280, Note_on_c, 9, 42, 100
11, 8310, Note_on_c, 9, 42, 0
11, 8340, Note_on_c, 9, 42, 100
11, 8370, Note_on_c, 9, 42, 0
11, 8400, Note_on_c, 9, 42, 100
11, 8400, Note_on_c, 9, 40, 100
11, 8430, Note_on_c, 9, 40, 0
11, 8430, Note_on_c, 9, 42, 0
11, 8460, Note_on_c, 9, 42, 100
11, 8490, Note_on_c, 9, 42, 0
11, 8520, Note_on_c, 9, 42, 100
11, 8550, Note_on_c, 9, 42, 0
11, 8580, Note_on_c, 9, 42, 100
11, 8610, Note_on_c, 9, 42, 0
11, 8640, Note_on_c, 9, 42, 100
11, 8640, Note_on_c, 9, 82, 100
11, 8640, Note_on_c, 9, 82, 100
11, 8640, Note_on_c, 9, 69, 100
11, 8670, Note_on_c, 9, 69, 0
11, 8670, Note_on_c, 9, 42, 0
11, 8670, Note_on_c, 9, 82, 0
11, 8670, Note_on_c, 9, 82, 0
11, 8700, Note_on_c, 9, 42, 100
11, 8700, Note_on_c, 9, 82, 100
11, 8700, Note_on_c, 9, 82, 100
11, 8700, Note_on_c, 9, 69, 100
11, 8730, Note_on_c, 9, 69, 0
11, 8730, Note_on_c, 9, 42, 0
11, 8730, Note_on_c, 9, 82, 0
11, 8730, Note_on_c, 9, 82, 0
11, 8760, Note_on_c, 9, 36, 100
11, 8760, Note_on_c, 9, 42, 100
11, 8760, Note_on_c, 9, 82, 100
11, 8760, Note_on_c, 9, 82, 100
11, 8760, Note_on_c, 9, 69, 100
11, 8790, Note_on_c, 9, 69, 0
11, 8790, Note_on_c, 9, 82, 0
11, 8790, Note_on_c, 9, 36, 0
11, 8790, Note_on_c, 9, 42, 0
11, 8790, Note_on_c, 9, 82, 0
11, 8820, Note_on_c, 9, 42, 100
11, 8850, Note_on_c, 9, 42, 0
11, 8880, Note_on_c, 9, 42, 100
11, 8880, Note_on_c, 9, 40, 100
11, 8910, Note_on_c, 9, 40, 0
11, 8910, Note_on_c, 9, 42, 0
11, 8940, Note_on_c, 9, 36, 100
11, 8940, Note_on_c, 9, 42, 100
11, 8970, Note_on_c, 9, 42, 0
11, 8970, Note_on_c, 9, 36, 0
11, 9000, Note_on_c, 9, 42, 100
11, 9030, Note_on_c, 9, 42, 0
11, 9060, Note_on_c, 9, 42, 100
11, 9090, Note_on_c, 9, 42, 0
11, 9120, Note_on_c, 9, 36, 100
11, 9120, Note_on_c, 9, 42, 100
11, 9150, Note_on_c, 9, 42, 0
11, 9150, Note_on_c, 9, 36, 0
11, 9180, Note_on_c, 9, 42, 100
11, 9210, Note_on_c, 9, 42, 0
11, 9240, Note_on_c, 9, 42, 100
11, 9270, Note_on_c, 9, 42, 0
11, 9300, Note_on_c, 9, 42, 100
11, 9330, Note_on_c, 9, 42, 0
11, 9360, Note_on_c, 9, 42, 100
11, 9360, Note_on_c, 9, 40, 100
11, 9390, Note_on_c, 9, 40, 0
11, 9390, Note_on_c, 9, 42, 0
11, 9420, Note_on_c, 9, 42, 100
11, 9450, Note_on_c, 9, 42, 0
11, 9480, Note_on_c, 9, 42, 100
11, 9510, Note_on_c, 9, 42, 0
11, 9540, Note_on_c, 9, 42, 100
11, 9570, Note_on_c, 9, 42, 0
11, 9600, Note_on_c, 9, 42, 100
11, 9600, Note_on_c, 9, 82, 100
11, 9600, Note_on_c, 9, 82, 100
11, 9600, Note_on_c, 9, 69, 100
11, 9630, Note_on_c, 9, 69, 0
11, 9630, Note_on_c, 9, 42, 0
11, 9630, Note_on_c, 9, 82, 0
11, 9630, Note_on_c, 9, 82, 0
11, 9660, Note_on_c, 9, 42, 100
11, 9660, Note_on_c, 9, 82, 100
11, 9660, Note_on_c, 9, 82, 100
11, 9660, Note_on_c, 9, 69, 100
11, 9690, Note_on_c, 9, 69, 0
11, 9690, Note_on_c, 9, 42, 0
11, 9690, Note_on_c, 9, 82, 0
11, 9690, Note_on_c, 9, 82, 0
11, 9720, Note_on_c, 9, 36, 100
11, 9720, Note_on_c, 9, 42, 100
11, 9720, Note_on_c, 9, 82, 100
11, 9720, Note_on_c, 9, 82, 100
11, 9720, Note_on_c, 9, 69, 100
11, 9750, Note_on_c, 9, 69, 0
11, 9750, Note_on_c, 9, 82, 0
11, 9750, Note_on_c, 9, 36, 0
11, 9750, Note_on_c, 9, 42, 0
11, 9750, Note_on_c, 9, 82, 0
11, 9780, Note_on_c, 9, 42, 100
11, 9810, Note_on_c, 9, 42, 0
11, 9840, Note_on_c, 9, 42, 100
11, 9840, Note_on_c, 9, 40, 100
11, 9870, Note_on_c, 9, 40, 0
11, 9870, Note_on_c, 9, 42, 0
11, 9900, Note_on_c, 9, 36, 100
11, 9900, Note_on_c, 9, 42, 100
11, 9930, Note_on_c, 9, 42, 0
11, 9930, Note_on_c, 9, 36, 0
11, 9960, Note_on_c, 9, 42, 100
11, 9990, Note_on_c, 9, 42, 0
11, 10020, Note_on_c, 9, 42, 100
11, 10050, Note_on_c, 9, 42, 0
11, 10080, Note_on_c, 9, 36, 100
11, 10080, Note_on_c, 9, 42, 100
11, 10110, Note_on_c, 9, 42, 0
11, 10110, Note_on_c, 9, 36, 0
11, 10140, Note_on_c, 9, 42, 100
11, 10170, Note_on_c, 9, 42, 0
11, 10200, Note_on_c, 9, 42, 100
11, 10230, Note_on_c, 9, 42, 0
11, 10260, Note_on_c, 9, 42, 100
11, 10290, Note_on_c, 9, 42, 0
11, 10320, Note_on_c, 9, 42, 100
11, 10320, Note_on_c, 9, 40, 100
11, 10350, Note_on_c, 9, 40, 0
11, 10350, Note_on_c, 9, 42, 0
11, 10380, Note_on_c, 9, 42, 100
11, 10410, Note_on_c, 9, 42, 0
11, 10440, Note_on_c, 9, 42, 100
11, 10470, Note_on_c, 9, 42, 0
11, 10500, Note_on_c, 9, 42, 100
11, 10530, Note_on_c, 9, 42, 0
11, 10560, Note_on_c, 9, 42, 100
11, 10560, Note_on_c, 9, 82, 100
11, 10560, Note_on_c, 9, 82, 100
11, 10560, Note_on_c, 9, 69, 100
11, 10590, Note_on_c, 9, 69, 0
11, 10590, Note_on_c, 9, 42, 0
11, 10590, Note_on_c, 9, 82, 0
11, 10590, Note_on_c, 9, 82, 0
11, 10620, Note_on_c, 9, 42, 100
11, 10620, Note_on_c, 9, 82, 100
11, 10620, Note_on_c, 9, 82, 100
11, 10620, Note_on_c, 9, 69, 100
11, 10650, Note_on_c, 9, 69, 0
11, 10650, Note_on_c, 9, 42, 0
11, 10650, Note_on_c, 9, 82, 0
11, 10650, Note_on_c, 9, 82, 0
11, 10680, Note_on_c, 9, 36, 100
11, 10680, Note_on_c, 9, 42, 100
11, 10680, Note_on_c, 9, 82, 100
11, 10680, Note_on_c, 9, 82, 100
11, 10680, Note_on_c, 9, 69, 100
11, 10710, Note_on_c, 9, 69, 0
11, 10710, Note_on_c, 9, 82, 0
11, 10710, Note_on_c, 9, 36, 0
11, 10710, Note_on_c, 9, 42, 0
11, 10710, Note_on_c, 9, 82, 0
11, 10740, Note_on_c, 9, 42, 100
11, 10770, Note_on_c, 9, 42, 0
11, 10800, Note_on_c, 9, 42, 100
11, 10800, Note_on_c, 9, 40, 100
11, 10830, Note_on_c, 9, 40, 0
11, 10830, Note_on_c, 9, 42, 0
11, 10860, Note_on_c, 9, 36, 100
11, 10860, Note_on_c, 9, 42, 100
11, 10890, Note_on_c, 9, 42, 0
11, 10890, Note_on_c, 9, 36, 0
11, 10920, Note_on_c, 9, 42, 100
11, 10950, Note_on_c, 9, 42, 0
11, 10980, Note_on_c, 9, 42, 100
11, 11010, Note_on_c, 9, 42, 0
11, 11040, Note_on_c, 9, 36, 100
11, 11040, Note_on_c, 9, 42, 100
11, 11070, Note_on_c, 9, 42, 0
11, 11070, Note_on_c, 9, 36, 0
11, 11100, Note_on_c, 9, 42, 100
11, 11130, Note_on_c, 9, 42, 0
11, 11160, Note_on_c, 9, 42, 100
11, 11190, Note_on_c, 9, 42, 0
11, 11220, Note_on_c, 9, 42, 100
11, 11250, Note_on_c, 9, 42, 0
11, 11280, Note_on_c, 9, 42, 100
11, 11280, Note_on_c, 9, 40, 100
11, 11310, Note_on_c, 9, 40, 0
11, 11310, Note_on_c, 9, 42, 0
11, 11340, Note_on_c, 9, 42, 100
11, 11370, Note_on_c, 9, 42, 0
11, 11400, Note_on_c, 9, 42, 100
11, 11430, Note_on_c, 9, 42, 0
11, 11460, Note_on_c, 9, 42, 100
11, 11490, Note_on_c, 9, 42, 0
11, 11520, Note_on_c, 9, 42, 100
11, 11520, Note_on_c, 9, 82, 100
11, 11520, Note_on_c, 9, 82, 100
11, 11520, Note_on_c, 9, 69, 100
11, 11550, Note_on_c, 9, 69, 0
11, 11550, Note_on_c, 9, 42, 0
11, 11550, Note_on_c, 9, 82, 0
11, 11550, Note_on_c, 9, 82, 0
11, 11580, Note_on_c, 9, 42, 100
11, 11580, Note_on_c, 9, 82, 100
11, 11580, Note_on_c, 9, 82, 100
11, 11580, Note_on_c, 9, 69, 100
11, 11610, Note_on_c, 9, 69, 0
11, 11610, Note_on_c, 9, 42, 0
11, 11610, Note_on_c, 9, 82, 0
11, 11610, Note_on_c, 9, 82, 0
11, 11640, Note_on_c, 9, 36, 100
11, 11640, Note_on_c, 9, 42, 100
11, 11640, Note_on_c, 9, 82, 100
11, 11640, Note_on_c, 9, 82, 100
11, 11640, Note_on_c, 9, 69, 100
11, 11670, Note_on_c, 9, 69, 0
11, 11670, Note_on_c, 9, 82, 0
11, 11670, Note_on_c, 9, 36, 0
11, 11670, Note_on_c, 9, 42, 0
11, 11670, Note_on_c, 9, 82, 0
11, 11700, Note_on_c, 9, 42, 100
11, 11730, Note_on_c, 9, 42, 0
11, 11760, Note_on_c, 9, 42, 100
11, 11760, Note_on_c, 9, 40, 100
11, 11790, Note_on_c, 9, 40, 0
11, 11790, Note_on_c, 9, 42, 0
11, 11820, Note_on_c, 9, 36, 100
11, 11820, Note_on_c, 9, 42, 100
11, 11850, Note_on_c, 9, 42, 0
11, 11850, Note_on_c, 9, 36, 0
11, 11880, Note_on_c, 9, 42, 100
11, 11910, Note_on_c, 9, 42, 0
11, 11940, Note_on_c, 9, 42, 100
11, 11970, Note_on_c, 9, 42, 0
11, 12000, Note_on_c, 9, 36, 100
11, 12000, Note_on_c, 9, 42, 100
11, 12030, Note_on_c, 9, 42, 0
11, 12030, Note_on_c, 9, 36, 0
11, 12060, Note_on_c, 9, 42, 100
11, 12090, Note_on_c, 9, 42, 0
11, 12120, Note_on_c, 9, 42, 100
11, 12150, Note_on_c, 9, 42, 0
11, 12180, Note_on_c, 9, 42, 100
11, 12210, Note_on_c, 9, 42, 0
11, 12240, Note_on_c, 9, 42, 100
11, 12240, Note_on_c, 9, 40, 100
11, 12270, Note_on_c, 9, 40, 0
11, 12270, Note_on_c, 9, 42, 0
11, 12300, Note_on_c, 9, 42, 100
11, 12330, Note_on_c, 9, 42, 0
11, 12360, Note_on_c, 9, 42, 100
11, 12390, Note_on_c, 9, 42, 0
11, 12420, Note_on_c, 9, 42, 100
11, 12450, Note_on_c, 9, 42, 0
11, 12480, Note_on_c, 9, 42, 100
11, 12480, Note_on_c, 9, 82, 100
11, 12480, Note_on_c, 9, 82, 100
11, 12480, Note_on_c, 9, 69, 100
11, 12510, Note_on_c, 9, 69, 0
11, 12510, Note_on_c, 9, 42, 0
11, 12510, Note_on_c, 9, 82, 0
11, 12510, Note_on_c, 9, 82, 0
11, 12540, Note_on_c, 9, 42, 100
11, 12540, Note_on_c, 9, 82, 100
11, 12540, Note_on_c, 9, 82, 100
11, 12540, Note_on_c, 9, 69, 100
11, 12570, Note_on_c, 9, 69, 0
11, 12570, Note_on_c, 9, 42, 0
11, 12570, Note_on_c, 9, 82, 0
11, 12570, Note_on_c, 9, 82, 0
11, 12600, Note_on_c, 9, 36, 100
11, 12600, Note_on_c, 9, 42, 100
11, 12600, Note_on_c, 9, 82, 100
11, 12600, Note_on_c, 9, 82, 100
11, 12600, Note_on_c, 9, 69, 100
11, 12630, Note_on_c, 9, 69, 0
11, 12630, Note_on_c, 9, 82, 0
11, 12630, Note_on_c, 9, 36, 0
11, 12630, Note_on_c, 9, 42, 0
11, 12630, Note_on_c, 9, 82, 0
11, 12660, Note_on_c, 9, 42, 100
11, 12690, Note_on_c, 9, 42, 0
11, 12720, Note_on_c, 9, 42, 100
11, 12720, Note_on_c, 9, 40, 100
11, 12750, Note_on_c, 9, 40, 0
11, 12750, Note_on_c, 9, 42, 0
11, 12780, Note_on_c, 9, 36, 100
11, 12780, Note_on_c, 9, 42, 100
11, 12810, Note_on_c, 9, 42, 0
11, 12810, Note_on_c, 9, 36, 0
11, 12840, Note_on_c, 9, 42, 100
11, 12870, Note_on_c, 9, 42, 0
11, 12900, Note_on_c, 9, 42, 100
11, 12930, Note_on_c, 9, 42, 0
11, 12960, Note_on_c, 9, 36, 100
11, 12960, Note_on_c, 9, 42, 100
11, 12990, Note_on_c, 9, 42, 0
11, 12990, Note_on_c, 9, 36, 0
11, 13020, Note_on_c, 9, 42, 100
11, 13050, Note_on_c, 9, 42, 0
11, 13080, Note_on_c, 9, 42, 100
11, 13110, Note_on_c, 9, 42, 0
11, 13140, Note_on_c, 9, 42, 100
11, 13170, Note_on_c, 9, 42, 0
11, 13200, Note_on_c, 9, 42, 100
11, 13200, Note_on_c, 9, 40, 100
11, 13230, Note_on_c, 9, 40, 0
11, 13230, Note_on_c, 9, 42, 0
11, 13260, Note_on_c, 9, 42, 100
11, 13290, Note_on_c, 9, 42, 0
11, 13320, Note_on_c, 9, 42, 100
11, 13350, Note_on_c, 9, 42, 0
11, 13380, Note_on_c, 9, 42, 100
11, 13410, Note_on_c, 9, 42, 0
11, 13440, Note_on_c, 9, 42, 100
11, 13440, Note_on_c, 9, 82, 100
11, 13440, Note_on_c, 9, 82, 100
11, 13440, Note_on_c, 9, 69, 100
11, 13470, Note_on_c, 9, 69, 0
11, 13470, Note_on_c, 9, 42, 0
11, 13470, Note_on_c, 9, 82, 0
11, 13470, Note_on_c, 9, 82, 0
11, 13500, Note_on_c, 9, 42, 100
11, 13500, Note_on_c, 9, 82, 100
11, 13500, Note_on_c, 9, 82, 100
11, 13500, Note_on_c, 9, 69, 100
11, 13530, Note_on_c, 9, 69, 0
11, 13530, Note_on_c, 9, 42, 0
11, 13530, Note_on_c, 9, 82, 0
11, 13530, Note_on_c, 9, 82, 0
11, 13560, Note_on_c, 9, 36, 100
11, 13560, Note_on_c, 9, 42, 100
11, 13560, Note_on_c, 9, 82, 100
11, 13560, Note_on_c, 9, 82, 100
11, 13560, Note_on_c, 9, 69, 100
11, 13590, Note_on_c, 9, 69, 0
11, 13590, Note_on_c, 9, 82, 0
11, 13590, Note_on_c, 9, 36, 0
11, 13590, Note_on_c, 9, 42, 0
11, 13590, Note_on_c, 9, 82, 0
11, 13620, Note_on_c, 9, 42, 100
11, 13650, Note_on_c, 9, 42, 0
11, 13680, Note_on_c, 9, 42, 100
11, 13680, Note_on_c, 9, 40, 100
11, 13710, Note_on_c, 9, 40, 0
11, 13710, Note_on_c, 9, 42, 0
11, 13740, Note_on_c, 9, 36, 100
11, 13740, Note_on_c, 9, 42, 100
11, 13770, Note_on_c, 9, 42, 0
11, 13770, Note_on_c, 9, 36, 0
11, 13800, Note_on_c, 9, 42, 100
11, 13830, Note_on_c, 9, 42, 0
11, 13860, Note_on_c, 9, 42, 100
11, 13890, Note_on_c, 9, 42, 0
11, 13920, Note_on_c, 9, 36, 100
11, 13920, Note_on_c, 9, 44, 100
11, 13920, Note_on_c, 9, 36, 100
11, 13920, Note_on_c, 9, 44, 100
11, 13920, Note_on_c, 9, 36, 100
11, 13920, Note_on_c, 9, 44, 100
11, 13920, Note_on_c, 9, 36, 100
11, 13920, Note_on_c, 9, 44, 100
11, 13950, Note_on_c, 9, 44, 0
11, 13950, Note_on_c, 9, 36, 0
11, 13950, Note_on_c, 9, 36, 0
11, 13950, Note_on_c, 9, 44, 0
11, 13950, Note_on_c, 9, 36, 0
11, 13950, Note_on_c, 9, 44, 0
11, 13950, Note_on_c, 9, 44, 0
11, 13950, Note_on_c, 9, 36, 0
11, 13980, Note_on_c, 9, 36, 100
11, 13980, Note_on_c, 9, 36, 100
11, 13980, Note_on_c, 9, 36, 100
11, 13980, Note_on_c, 9, 36, 100
11, 14010, Note_on_c, 9, 36, 0
11, 14010, Note_on_c, 9, 36, 0
11, 14010, Note_on_c, 9, 36, 0
11, 14010, Note_on_c, 9, 36, 0
11, 14040, Note_on_c, 9, 36, 100
11, 14040, Note_on_c, 9, 44, 100
11, 14040, Note_on_c, 9, 34, 100
11, 14040, Note_on_c, 9, 36, 100
11, 14040, Note_on_c, 9, 44, 100
11, 14040, Note_on_c, 9, 34, 100
11, 14040, Note_on_c, 9, 36, 100
11, 14040, Note_on_c, 9, 44, 100
11, 14040, Note_on_c, 9, 40, 100
11, 14040, Note_on_c, 9, 36, 100
11, 14040, Note_on_c, 9, 44, 100
11, 14040, Note_on_c, 9, 40, 100
11, 14070, Note_on_c, 9, 40, 0
11, 14070, Note_on_c, 9, 44, 0
11, 14070, Note_on_c, 9, 44, 0
11, 14070, Note_on_c, 9, 34, 0
11, 14070, Note_on_c, 9, 36, 0
11, 14070, Note_on_c, 9, 36, 0
11, 14070, Note_on_c, 9, 44, 0
11, 14070, Note_on_c, 9, 34, 0
11, 14070, Note_on_c, 9, 40, 0
11, 14070, Note_on_c, 9, 36, 0
11, 14070, Note_on_c, 9, 44, 0
11, 14070, Note_on_c, 9, 36, 0
11, 14100, Note_on_c, 9, 36, 100
11, 14100, Note_on_c, 9, 36, 100
11, 14100, Note_on_c, 9, 36, 100
11, 14100, Note_on_c, 9, 36, 100
11, 14130, Note_on_c, 9, 36, 0
11, 14130, Note_on_c, 9, 36, 0
11, 14130, Note_on_c, 9, 36, 0
11, 14130, Note_on_c, 9, 36, 0
11, 14160, Note_on_c, 9, 36, 100
11, 14160, Note_on_c, 9, 44, 100
11, 14160, Note_on_c, 9, 36, 100
11, 14160, Note_on_c, 9, 44, 100
11, 14160, Note_on_c, 9, 36, 100
11, 14160, Note_on_c, 9, 44, 100
11, 14160, Note_on_c, 9, 36, 100
11, 14160, Note_on_c, 9, 44, 100
11, 14190, Note_on_c, 9, 44, 0
11, 14190, Note_on_c, 9, 36, 0
11, 14190, Note_on_c, 9, 36, 0
11, 14190, Note_on_c, 9, 44, 0
11, 14190, Note_on_c, 9, 36, 0
11, 14190, Note_on_c, 9, 44, 0
11, 14190, Note_on_c, 9, 44, 0
11, 14190, Note_on_c, 9, 36, 0
11, 14280, Note_on_c, 9, 36, 100
11, 14280, Note_on_c, 9, 44, 100
11, 14280, Note_on_c, 9, 34, 100
11, 14280, Note_on_c, 9, 36, 100
11, 14280, Note_on_c, 9, 44, 100
11, 14280, Note_on_c, 9, 34, 100
11, 14280, Note_on_c, 9, 36, 100
11, 14280, Note_on_c, 9, 44, 100
11, 14280, Note_on_c, 9, 40, 100
11, 14280, Note_on_c, 9, 36, 100
11, 14280, Note_on_c, 9, 44, 100
11, 14280, Note_on_c, 9, 40, 100
11, 14310, Note_on_c, 9, 40, 0
11, 14310, Note_on_c, 9, 44, 0
11, 14310, Note_on_c, 9, 44, 0
11, 14310, Note_on_c, 9, 34, 0
11, 14310, Note_on_c, 9, 36, 0
11, 14310, Note_on_c, 9, 36, 0
11, 14310, Note_on_c, 9, 44, 0
11, 14310, Note_on_c, 9, 34, 0
11, 14310, Note_on_c, 9, 40, 0
11, 14310, Note_on_c, 9, 36, 0
11, 14310, Note_on_c, 9, 44, 0
11, 14310, Note_on_c, 9, 36, 0
11, 14400, Note_on_c, 9, 36, 100
11, 14400, Note_on_c, 9, 44, 100
11, 14400, Note_on_c, 9, 36, 100
11, 14400, Note_on_c, 9, 44, 100
11, 14400, Note_on_c, 9, 36, 100
11, 14400, Note_on_c, 9, 44, 100
11, 14400, Note_on_c, 9, 36, 100
11, 14400, Note_on_c, 9, 44, 100
11, 14430, Note_on_c, 9, 44, 0
11, 14430, Note_on_c, 9, 36, 0
11, 14430, Note_on_c, 9, 36, 0
11, 14430, Note_on_c, 9, 44, 0
11, 14430, Note_on_c, 9, 36, 0
11, 14430, Note_on_c, 9, 44, 0
11, 14430, Note_on_c, 9, 44, 0
11, 14430, Note_on_c, 9, 36, 0
11, 14520, Note_on_c, 9, 36, 100
11, 14520, Note_on_c, 9, 44, 100
11, 14520, Note_on_c, 9, 36, 100
11, 14520, Note_on_c, 9, 44, 100
11, 14520, Note_on_c, 9, 36, 100
11, 14520, Note_on_c, 9, 44, 100
11, 14520, Note_on_c, 9, 36, 100
11, 14520, Note_on_c, 9, 44, 100
11, 14550, Note_on_c, 9, 44, 0
11, 14550, Note_on_c, 9, 36, 0
11, 14550, Note_on_c, 9, 36, 0
11, 14550, Note_on_c, 9, 44, 0
11, 14550, Note_on_c, 9, 36, 0
11, 14550, Note_on_c, 9, 44, 0
11, 14550, Note_on_c, 9, 44, 0
11, 14550, Note_on_c, 9, 36, 0
11, 14640, Note_on_c, 9, 36, 100
11, 14640, Note_on_c, 9, 44, 100
11, 14640, Note_on_c, 9, 36, 100
11, 14640, Note_on_c, 9, 44, 100
11, 14640, Note_on_c, 9, 36, 100
11, 14640, Note_on_c, 9, 44, 100
11, 14640, Note_on_c, 9, 36, 100
11, 14640, Note_on_c, 9, 44, 100
11, 14670, Note_on_c, 9, 44, 0
11, 14670, Note_on_c, 9, 36, 0
11, 14670, Note_on_c, 9, 36, 0
11, 14670, Note_on_c, 9, 44, 0
11, 14670, Note_on_c, 9, 36, 0
11, 14670, Note_on_c, 9, 44, 0
11, 14670, Note_on_c, 9, 44, 0
11, 14670, Note_on_c, 9, 36, 0
11, 14760, Note_on_c, 9, 36, 100
11, 14760, Note_on_c, 9, 44, 100
11, 14760, Note_on_c, 9, 34, 100
11, 14760, Note_on_c, 9, 36, 100
11, 14760, Note_on_c, 9, 44, 100
11, 14760, Note_on_c, 9, 34, 100
11, 14760, Note_on_c, 9, 36, 100
11, 14760, Note_on_c, 9, 44, 100
11, 14760, Note_on_c, 9, 40, 100
11, 14760, Note_on_c, 9, 36, 100
11, 14760, Note_on_c, 9, 44, 100
11, 14760, Note_on_c, 9, 40, 100
11, 14790, Note_on_c, 9, 40, 0
11, 14790, Note_on_c, 9, 44, 0
11, 14790, Note_on_c, 9, 44, 0
11, 14790, Note_on_c, 9, 34, 0
11, 14790, Note_on_c, 9, 36, 0
11, 14790, Note_on_c, 9, 36, 0
11, 14790, Note_on_c, 9, 44, 0
11, 14790, Note_on_c, 9, 34, 0
11, 14790, Note_on_c, 9, 40, 0
11, 14790, Note_on_c, 9, 36, 0
11, 14790, Note_on_c, 9, 44, 0
11, 14790, Note_on_c, 9, 36, 0
11, 14880, Note_on_c, 9, 36, 100
11, 14880, Note_on_c, 9, 44, 100
11, 14880, Note_on_c, 9, 82, 100
11, 14880, Note_on_c, 9, 36, 100
11, 14880, Note_on_c, 9, 44, 100
11, 14880, Note_on_c, 9, 82, 100
11, 14880, Note_on_c, 9, 36, 100
11, 14880, Note_on_c, 9, 44, 100
11, 14880, Note_on_c, 9, 82, 100
11, 14910, Note_on_c, 9, 82, 0
11, 14910, Note_on_c, 9, 36, 0
11, 14910, Note_on_c, 9, 36, 0
11, 14910, Note_on_c, 9, 44, 0
11, 14910, Note_on_c, 9, 44, 0
11, 14910, Note_on_c, 9, 82, 0
11, 14910, Note_on_c, 9, 36, 0
11, 14910, Note_on_c, 9, 82, 0
11, 14910, Note_on_c, 9, 44, 0
11, 14940, Note_on_c, 9, 36, 100
11, 14940, Note_on_c, 9, 82, 100
11, 14940, Note_on_c, 9, 36, 100
11, 14940, Note_on_c, 9, 82, 100
11, 14940, Note_on_c, 9, 36, 100
11, 14940, Note_on_c, 9, 82, 100
11, 14970, Note_on_c, 9, 82, 0
11, 14970, Note_on_c, 9, 82, 0
11, 14970, Note_on_c, 9, 36, 0
11, 14970, Note_on_c, 9, 36, 0
11, 14970, Note_on_c, 9, 36, 0
11, 14970, Note_on_c, 9, 82, 0
11, 15000, Note_on_c, 9, 36, 100
11, 15000, Note_on_c, 9, 44, 100
11, 15000, Note_on_c, 9, 34, 100
11, 15000, Note_on_c, 9, 82, 100
11, 15000, Note_on_c, 9, 36, 100
11, 15000, Note_on_c, 9, 44, 100
11, 15000, Note_on_c, 9, 40, 100
11, 15000, Note_on_c, 9, 82, 100
11, 15000, Note_on_c, 9, 36, 100
11, 15000, Note_on_c, 9, 44, 100
11, 15000, Note_on_c, 9, 34, 100
11, 15000, Note_on_c, 9, 82, 100
11, 15030, Note_on_c, 9, 82, 0
11, 15030, Note_on_c, 9, 44, 0
11, 15030, Note_on_c, 9, 82, 0
11, 15030, Note_on_c, 9, 34, 0
11, 15030, Note_on_c, 9, 82, 0
11, 15030, Note_on_c, 9, 36, 0
11, 15030, Note_on_c, 9, 36, 0
11, 15030, Note_on_c, 9, 44, 0
11, 15030, Note_on_c, 9, 36, 0
11, 15030, Note_on_c, 9, 40, 0
11, 15030, Note_on_c, 9, 34, 0
11, 15030, Note_on_c, 9, 44, 0
11, 15060, Note_on_c, 9, 36, 100
11, 15060, Note_on_c, 9, 36, 100
11, 15060, Note_on_c, 9, 36, 100
11, 15090, Note_on_c, 9, 36, 0
11, 15090, Note_on_c, 9, 36, 0
11, 15090, Note_on_c, 9, 36, 0
11, 15120, Note_on_c, 9, 36, 100
11, 15120, Note_on_c, 9, 44, 100
11, 15120, Note_on_c, 9, 82, 100
11, 15120, Note_on_c, 9, 36, 100
11, 15120, Note_on_c, 9, 44, 100
11, 15120, Note_on_c, 9, 82, 100
11, 15120, Note_on_c, 9, 36, 100
11, 15120, Note_on_c, 9, 44, 100
11, 15120, Note_on_c, 9, 82, 100
11, 15150, Note_on_c, 9, 82, 0
11, 15150, Note_on_c, 9, 36, 0
11, 15150, Note_on_c, 9, 36, 0
11, 15150, Note_on_c, 9, 44, 0
11, 15150, Note_on_c, 9, 44, 0
11, 15150, Note_on_c, 9, 82, 0
11, 15150, Note_on_c, 9, 36, 0
11, 15150, Note_on_c, 9, 82, 0
11, 15150, Note_on_c, 9, 44, 0
11, 15180, Note_on_c, 9, 82, 100
11, 15180, Note_on_c, 9, 82, 100
11, 15180, Note_on_c, 9, 82, 100
11, 15210, Note_on_c, 9, 82, 0
11, 15210, Note_on_c, 9, 82, 0
11, 15210, Note_on_c, 9, 82, 0
11, 15240, Note_on_c, 9, 36, 100
11, 15240, Note_on_c, 9, 44, 100
11, 15240, Note_on_c, 9, 34, 100
11, 15240, Note_on_c, 9, 82, 100
11, 15240, Note_on_c, 9, 36, 100
11, 15240, Note_on_c, 9, 44, 100
11, 15240, Note_on_c, 9, 40, 100
11, 15240, Note_on_c, 9, 82, 100
11, 15240, Note_on_c, 9, 36, 100
11, 15240, Note_on_c, 9, 44, 100
11, 15240, Note_on_c, 9, 34, 100
11, 15240, Note_on_c, 9, 82, 100
11, 15270, Note_on_c, 9, 82, 0
11, 15270, Note_on_c, 9, 44, 0
11, 15270, Note_on_c, 9, 82, 0
11, 15270, Note_on_c, 9, 34, 0
11, 15270, Note_on_c, 9, 82, 0
11, 15270, Note_on_c, 9, 36, 0
11, 15270, Note_on_c, 9, 36, 0
11, 15270, Note_on_c, 9, 44, 0
11, 15270, Note_on_c, 9, 36, 0
11, 15270, Note_on_c, 9, 40, 0
11, 15270, Note_on_c, 9, 34, 0
11, 15270, Note_on_c, 9, 44, 0
11, 15360, Note_on_c, 9, 36, 100
11, 15360, Note_on_c, 9, 44, 100
11, 15360, Note_on_c, 9, 82, 100
11, 15360, Note_on_c, 9, 36, 100
11, 15360, Note_on_c, 9, 44, 100
11, 15360, Note_on_c, 9, 82, 100
11, 15360, Note_on_c, 9, 36, 100
11, 15360, Note_on_c, 9, 44, 100
11, 15360, Note_on_c, 9, 82, 100
11, 15390, Note_on_c, 9, 82, 0
11, 15390, Note_on_c, 9, 36, 0
11, 15390, Note_on_c, 9, 36, 0
11, 15390, Note_on_c, 9, 44, 0
11, 15390, Note_on_c, 9, 44, 0
11, 15390, Note_on_c, 9, 82, 0
11, 15390, Note_on_c, 9, 36, 0
11, 15390, Note_on_c, 9, 82, 0
11, 15390, Note_on_c, 9, 44, 0
11, 15420, Note_on_c, 9, 82, 100
11, 15420, Note_on_c, 9, 82, 100
11, 15420, Note_on_c, 9, 82, 100
11, 15450, Note_on_c, 9, 82, 0
11, 15450, Note_on_c, 9, 82, 0
11, 15450, Note_on_c, 9, 82, 0
11, 15480, Note_on_c, 9, 36, 100
11, 15480, Note_on_c, 9, 44, 100
11, 15480, Note_on_c, 9, 82, 100
11, 15480, Note_on_c, 9, 36, 100
11, 15480, Note_on_c, 9, 44, 100
11, 15480, Note_on_c, 9, 82, 100
11, 15480, Note_on_c, 9, 36, 100
11, 15480, Note_on_c, 9, 44, 100
11, 15480, Note_on_c, 9, 82, 100
11, 15510, Note_on_c, 9, 82, 0
11, 15510, Note_on_c, 9, 36, 0
11, 15510, Note_on_c, 9, 36, 0
11, 15510, Note_on_c, 9, 44, 0
11, 15510, Note_on_c, 9, 44, 0
11, 15510, Note_on_c, 9, 82, 0
11, 15510, Note_on_c, 9, 36, 0
11, 15510, Note_on_c, 9, 82, 0
11, 15510, Note_on_c, 9, 44, 0
11, 15540, Note_on_c, 9, 82, 100
11, 15540, Note_on_c, 9, 82, 100
11, 15540, Note_on_c, 9, 82, 100
11, 15570, Note_on_c, 9, 82, 0
11, 15570, Note_on_c, 9, 82, 0
11, 15570, Note_on_c, 9, 82, 0
11, 15600, Note_on_c, 9, 36, 100
11, 15600, Note_on_c, 9, 44, 100
11, 15600, Note_on_c, 9, 82, 100
11, 15600, Note_on_c, 9, 36, 100
11, 15600, Note_on_c, 9, 44, 100
11, 15600, Note_on_c, 9, 82, 100
11, 15600, Note_on_c, 9, 36, 100
11, 15600, Note_on_c, 9, 44, 100
11, 15600, Note_on_c, 9, 82, 100
11, 15630, Note_on_c, 9, 82, 0
11, 15630, Note_on_c, 9, 36, 0
11, 15630, Note_on_c, 9, 36, 0
11, 15630, Note_on_c, 9, 44, 0
11, 15630, Note_on_c, 9, 44, 0
11, 15630, Note_on_c, 9, 82, 0
11, 15630, Note_on_c, 9, 36, 0
11, 15630, Note_on_c, 9, 82, 0
11, 15630, Note_on_c, 9, 44, 0
11, 15660, Note_on_c, 9, 82, 100
11, 15660, Note_on_c, 9, 82, 100
11, 15660, Note_on_c, 9, 82, 100
11, 15690, Note_on_c, 9, 82, 0
11, 15690, Note_on_c, 9, 82, 0
11, 15690, Note_on_c, 9, 82, 0
11, 15720, Note_on_c, 9, 36, 100
11, 15720, Note_on_c, 9, 44, 100
11, 15720, Note_on_c, 9, 34, 100
11, 15720, Note_on_c, 9, 82, 100
11, 15720, Note_on_c, 9, 36, 100
11, 15720, Note_on_c, 9, 44, 100
11, 15720, Note_on_c, 9, 40, 100
11, 15720, Note_on_c, 9, 82, 100
11, 15720, Note_on_c, 9, 36, 100
11, 15720, Note_on_c, 9, 44, 100
11, 15720, Note_on_c, 9, 34, 100
11, 15720, Note_on_c, 9, 82, 100
11, 15750, Note_on_c, 9, 82, 0
11, 15750, Note_on_c, 9, 44, 0
11, 15750, Note_on_c, 9, 82, 0
11, 15750, Note_on_c, 9, 34, 0
11, 15750, Note_on_c, 9, 82, 0
11, 15750, Note_on_c, 9, 36, 0
11, 15750, Note_on_c, 9, 36, 0
11, 15750, Note_on_c, 9, 44, 0
11, 15750, Note_on_c, 9, 36, 0
11, 15750, Note_on_c, 9, 40, 0
11, 15750, Note_on_c, 9, 34, 0
11, 15750, Note_on_c, 9, 44, 0
11, 15780, Note_on_c, 9, 82, 100
11, 15780, Note_on_c, 9, 82, 100
11, 15780, Note_on_c, 9, 82, 100
11, 15810, Note_on_c, 9, 82, 0
11, 15810, Note_on_c, 9, 82, 0
11, 15810, Note_on_c, 9, 82, 0
11, 15840, Note_on_c, 9, 35, 100
11, 15840, Note_on_c, 9, 54, 100
11, 15840, Note_on_c, 9, 69, 100
11, 15870, Note_on_c, 9, 69, 0
11, 15870, Note_on_c, 9, 54, 0
11, 15870, Note_on_c, 9, 35, 0
11, 15870, Note_on_c, 9, 69, 100
11, 15900, Note_on_c, 9, 69, 0
11, 15960, Note_on_c, 9, 54, 100
11, 15960, Note_on_c, 9, 69, 100
11, 15990, Note_on_c, 9, 69, 0
11, 15990, Note_on_c, 9, 54, 0
11, 16080, Note_on_c, 9, 40, 100
11, 16080, Note_on_c, 9, 69, 100
11, 16110, Note_on_c, 9, 69, 0
11, 16110, Note_on_c, 9, 40, 0
11, 16200, Note_on_c, 9, 69, 100
11, 16230, Note_on_c, 9, 69, 0
11, 16320, Note_on_c, 9, 54, 100
11, 16320, Note_on_c, 9, 82, 100
11, 16320, Note_on_c, 9, 69, 100
11, 16350, Note_on_c, 9, 69, 0
11, 16350, Note_on_c, 9, 82, 0
11, 16350, Note_on_c, 9, 54, 0
11, 16380, Note_on_c, 9, 54, 100
11, 16380, Note_on_c, 9, 82, 100
11, 16410, Note_on_c, 9, 82, 0
11, 16410, Note_on_c, 9, 54, 0
11, 16440, Note_on_c, 9, 35, 100
11, 16440, Note_on_c, 9, 54, 100
11, 16440, Note_on_c, 9, 82, 100
11, 16440, Note_on_c, 9, 69, 100
11, 16470, Note_on_c, 9, 69, 0
11, 16470, Note_on_c, 9, 35, 0
11, 16470, Note_on_c, 9, 54, 0
11, 16470, Note_on_c, 9, 82, 0
11, 16560, Note_on_c, 9, 40, 100
11, 16560, Note_on_c, 9, 69, 100
11, 16590, Note_on_c, 9, 69, 0
11, 16590, Note_on_c, 9, 40, 0
11, 16620, Note_on_c, 9, 35, 100
11, 16650, Note_on_c, 9, 35, 0
11, 16680, Note_on_c, 9, 54, 100
11, 16680, Note_on_c, 9, 69, 100
11, 16710, Note_on_c, 9, 69, 0
11, 16710, Note_on_c, 9, 54, 0
11, 16800, Note_on_c, 9, 36, 100
11, 16800, Note_on_c, 9, 54, 100
11, 16800, Note_on_c, 9, 54, 100
11, 16800, Note_on_c, 9, 69, 100
11, 16830, Note_on_c, 9, 69, 0
11, 16830, Note_on_c, 9, 36, 0
11, 16830, Note_on_c, 9, 54, 0
11, 16830, Note_on_c, 9, 54, 0
11, 16920, Note_on_c, 9, 54, 100
11, 16920, Note_on_c, 9, 54, 100
11, 16920, Note_on_c, 9, 69, 100
11, 16950, Note_on_c, 9, 69, 0
11, 16950, Note_on_c, 9, 54, 0
11, 16950, Note_on_c, 9, 54, 0
11, 17040, Note_on_c, 9, 38, 100
11, 17040, Note_on_c, 9, 69, 100
11, 17070, Note_on_c, 9, 69, 0
11, 17070, Note_on_c, 9, 38, 0
11, 17160, Note_on_c, 9, 69, 100
11, 17190, Note_on_c, 9, 69, 0
11, 17280, Note_on_c, 9, 54, 100
11, 17280, Note_on_c, 9, 54, 100
11, 17280, Note_on_c, 9, 82, 100
11, 17280, Note_on_c, 9, 69, 100
11, 17310, Note_on_c, 9, 69, 0
11, 17310, Note_on_c, 9, 54, 0
11, 17310, Note_on_c, 9, 54, 0
11, 17310, Note_on_c, 9, 82, 0
11, 17340, Note_on_c, 9, 54, 100
11, 17340, Note_on_c, 9, 54, 100
11, 17340, Note_on_c, 9, 82, 100
11, 17370, Note_on_c, 9, 82, 0
11, 17370, Note_on_c, 9, 54, 0
11, 17370, Note_on_c, 9, 54, 0
11, 17400, Note_on_c, 9, 36, 100
11, 17400, Note_on_c, 9, 54, 100
11, 17400, Note_on_c, 9, 54, 100
11, 17400, Note_on_c, 9, 82, 100
11, 17400, Note_on_c, 9, 69, 100
11, 17430, Note_on_c, 9, 69, 0
11, 17430, Note_on_c, 9, 54, 0
11, 17430, Note_on_c, 9, 36, 0
11, 17430, Note_on_c, 9, 54, 0
11, 17430, Note_on_c, 9, 82, 0
11, 17460, Note_on_c, 9, 35, 100
11, 17490, Note_on_c, 9, 35, 0
11, 17520, Note_on_c, 9, 38, 100
11, 17520, Note_on_c, 9, 69, 100
11, 17550, Note_on_c, 9, 69, 0
11, 17550, Note_on_c, 9, 38, 0
11, 17580, Note_on_c, 9, 36, 100
11, 17610, Note_on_c, 9, 36, 0
11, 17640, Note_on_c, 9, 35, 100
11, 17640, Note_on_c, 9, 54, 100
11, 17640, Note_on_c, 9, 54, 100
11, 17640, Note_on_c, 9, 69, 100
11, 17670, Note_on_c, 9, 69, 0
11, 17670, Note_on_c, 9, 35, 0
11, 17670, Note_on_c, 9, 54, 0
11, 17670, Note_on_c, 9, 54, 0
11, 17760, Note_on_c, 9, 35, 100
11, 17760, Note_on_c, 9, 54, 100
11, 17760, Note_on_c, 9, 69, 100
11, 17790, Note_on_c, 9, 69, 0
11, 17790, Note_on_c, 9, 54, 0
11, 17790, Note_on_c, 9, 35, 0
11, 17790, Note_on_c, 9, 69, 100
11, 17820, Note_on_c, 9, 69, 0
11, 17880, Note_on_c, 9, 54, 100
11, 17880, Note_on_c, 9, 69, 100
11, 17910, Note_on_c, 9, 69, 0
11, 17910, Note_on_c, 9, 54, 0
11, 18000, Note_on_c, 9, 40, 100
11, 18000, Note_on_c, 9, 69, 100
11, 18030, Note_on_c, 9, 69, 0
11, 18030, Note_on_c, 9, 40, 0
11, 18120, Note_on_c, 9, 69, 100
11, 18150, Note_on_c, 9, 69, 0
11, 18240, Note_on_c, 9, 54, 100
11, 18240, Note_on_c, 9, 82, 100
11, 18240, Note_on_c, 9, 69, 100
11, 18270, Note_on_c, 9, 69, 0
11, 18270, Note_on_c, 9, 82, 0
11, 18270, Note_on_c, 9, 54, 0
11, 18300, Note_on_c, 9, 54, 100
11, 18300, Note_on_c, 9, 82, 100
11, 18330, Note_on_c, 9, 82, 0
11, 18330, Note_on_c, 9, 54, 0
11, 18360, Note_on_c, 9, 35, 100
11, 18360, Note_on_c, 9, 54, 100
11, 18360, Note_on_c, 9, 82, 100
11, 18360, Note_on_c, 9, 69, 100
11, 18390, Note_on_c, 9, 69, 0
11, 18390, Note_on_c, 9, 35, 0
11, 18390, Note_on_c, 9, 54, 0
11, 18390, Note_on_c, 9, 82, 0
11, 18480, Note_on_c, 9, 40, 100
11, 18480, Note_on_c, 9, 69, 100
11, 18510, Note_on_c, 9, 69, 0
11, 18510, Note_on_c, 9, 40, 0
11, 18540, Note_on_c, 9, 35, 100
11, 18570, Note_on_c, 9, 35, 0
11, 18600, Note_on_c, 9, 54, 100
11, 18600, Note_on_c, 9, 69, 100
11, 18630, Note_on_c, 9, 69, 0
11, 18630, Note_on_c, 9, 54, 0
11, 18720, Note_on_c, 9, 36, 100
11, 18720, Note_on_c, 9, 54, 100
11, 18720, Note_on_c, 9, 69, 100
11, 18750, Note_on_c, 9, 69, 0
11, 18750, Note_on_c, 9, 54, 0
11, 18750, Note_on_c, 9, 36, 0
11, 18840, Note_on_c, 9, 54, 100
11, 18840, Note_on_c, 9, 69, 100
11, 18870, Note_on_c, 9, 69, 0
11, 18870, Note_on_c, 9, 54, 0
11, 18960, Note_on_c, 9, 38, 100
11, 18960, Note_on_c, 9, 69, 100
11, 18990, Note_on_c, 9, 69, 0
11, 18990, Note_on_c, 9, 38, 0
11, 19080, Note_on_c, 9, 69, 100
11, 19110, Note_on_c, 9, 69, 0
11, 19200, Note_on_c, 9, 54, 100
11, 19200, Note_on_c, 9, 38, 100
11, 19200, Note_on_c, 9, 82, 100
11, 19200, Note_on_c, 9, 82, 100
11, 19200, Note_on_c, 9, 69, 100
11, 19200, Note_on_c, 9, 69, 100
11, 19230, Note_on_c, 9, 69, 0
11, 19230, Note_on_c, 9, 38, 0
11, 19230, Note_on_c, 9, 82, 0
11, 19230, Note_on_c, 9, 54, 0
11, 19230, Note_on_c, 9, 69, 0
11, 19230, Note_on_c, 9, 82, 0
11, 19260, Note_on_c, 9, 54, 100
11, 19260, Note_on_c, 9, 38, 100
11, 19260, Note_on_c, 9, 82, 100
11, 19260, Note_on_c, 9, 82, 100
11, 19260, Note_on_c, 9, 69, 100
11, 19290, Note_on_c, 9, 69, 0
11, 19290, Note_on_c, 9, 82, 0
11, 19290, Note_on_c, 9, 54, 0
11, 19290, Note_on_c, 9, 38, 0
11, 19290, Note_on_c, 9, 82, 0
11, 19320, Note_on_c, 9, 36, 100
11, 19320, Note_on_c, 9, 54, 100
11, 19320, Note_on_c, 9, 82, 100
11, 19320, Note_on_c, 9, 82, 100
11, 19320, Note_on_c, 9, 69, 100
11, 19320, Note_on_c, 9, 69, 100
11, 19350, Note_on_c, 9, 69, 0
11, 19350, Note_on_c, 9, 54, 0
11, 19350, Note_on_c, 9, 82, 0
11, 19350, Note_on_c, 9, 36, 0
11, 19350, Note_on_c, 9, 69, 0
11, 19350, Note_on_c, 9, 82, 0
11, 19380, Note_on_c, 9, 35, 100
11, 19410, Note_on_c, 9, 35, 0
11, 19440, Note_on_c, 9, 38, 100
11, 19440, Note_on_c, 9, 69, 100
11, 19470, Note_on_c, 9, 69, 0
11, 19470, Note_on_c, 9, 38, 0
11, 19500, Note_on_c, 9, 36, 100
11, 19500, Note_on_c, 9, 38, 100
11, 19530, Note_on_c, 9, 38, 0
11, 19530, Note_on_c, 9, 36, 0
11, 19560, Note_on_c, 9, 35, 100
11, 19560, Note_on_c, 9, 54, 100
11, 19560, Note_on_c, 9, 69, 100
11, 19590, Note_on_c, 9, 69, 0
11, 19590, Note_on_c, 9, 54, 0
11, 19590, Note_on_c, 9, 35, 0
11, 19680, Note_on_c, 9, 35, 100
11, 19680, Note_on_c, 9, 54, 100
11, 19680, Note_on_c, 9, 69, 100
11, 19710, Note_on_c, 9, 69, 0
11, 19710, Note_on_c, 9, 54, 0
11, 19710, Note_on_c, 9, 35, 0
11, 19710, Note_on_c, 9, 69, 100
11, 19740, Note_on_c, 9, 69, 0
11, 19800, Note_on_c, 9, 54, 100
11, 19800, Note_on_c, 9, 69, 100
11, 19830, Note_on_c, 9, 69, 0
11, 19830, Note_on_c, 9, 54, 0
11, 19920, Note_on_c, 9, 40, 100
11, 19920, Note_on_c, 9, 69, 100
11, 19950, Note_on_c, 9, 69, 0
11, 19950, Note_on_c, 9, 40, 0
11, 20040, Note_on_c, 9, 69, 100
11, 20070, Note_on_c, 9, 69, 0
11, 20160, Note_on_c, 9, 54, 100
11, 20160, Note_on_c, 9, 82, 100
11, 20160, Note_on_c, 9, 69, 100
11, 20190, Note_on_c, 9, 69, 0
11, 20190, Note_on_c, 9, 82, 0
11, 20190, Note_on_c, 9, 54, 0
11, 20220, Note_on_c, 9, 54, 100
11, 20220, Note_on_c, 9, 82, 100
11, 20250, Note_on_c, 9, 82, 0
11, 20250, Note_on_c, 9, 54, 0
11, 20280, Note_on_c, 9, 35, 100
11, 20280, Note_on_c, 9, 54, 100
11, 20280, Note_on_c, 9, 82, 100
11, 20280, Note_on_c, 9, 69, 100
11, 20310, Note_on_c, 9, 69, 0
11, 20310, Note_on_c, 9, 35, 0
11, 20310, Note_on_c, 9, 54, 0
11, 20310, Note_on_c, 9, 82, 0
11, 20400, Note_on_c, 9, 40, 100
11, 20400, Note_on_c, 9, 69, 100
11, 20430, Note_on_c, 9, 69, 0
11, 20430, Note_on_c, 9, 40, 0
11, 20460, Note_on_c, 9, 35, 100
11, 20490, Note_on_c, 9, 35, 0
11, 20520, Note_on_c, 9, 54, 100
11, 20520, Note_on_c, 9, 69, 100
11, 20550, Note_on_c, 9, 69, 0
11, 20550, Note_on_c, 9, 54, 0
11, 20640, Note_on_c, 9, 36, 100
11, 20640, Note_on_c, 9, 54, 100
11, 20640, Note_on_c, 9, 54, 100
11, 20640, Note_on_c, 9, 69, 100
11, 20670, Note_on_c, 9, 69, 0
11, 20670, Note_on_c, 9, 36, 0
11, 20670, Note_on_c, 9, 54, 0
11, 20670, Note_on_c, 9, 54, 0
11, 20760, Note_on_c, 9, 54, 100
11, 20760, Note_on_c, 9, 54, 100
11, 20760, Note_on_c, 9, 69, 100
11, 20790, Note_on_c, 9, 69, 0
11, 20790, Note_on_c, 9, 54, 0
11, 20790, Note_on_c, 9, 54, 0
11, 20880, Note_on_c, 9, 38, 100
11, 20880, Note_on_c, 9, 69, 100
11, 20910, Note_on_c, 9, 69, 0
11, 20910, Note_on_c, 9, 38, 0
11, 21000, Note_on_c, 9, 69, 100
11, 21030, Note_on_c, 9, 69, 0
11, 21120, Note_on_c, 9, 54, 100
11, 21120, Note_on_c, 9, 54, 100
11, 21120, Note_on_c, 9, 82, 100
11, 21120, Note_on_c, 9, 69, 100
11, 21150, Note_on_c, 9, 69, 0
11, 21150, Note_on_c, 9, 54, 0
11, 21150, Note_on_c, 9, 54, 0
11, 21150, Note_on_c, 9, 82, 0
11, 21180, Note_on_c, 9, 54, 100
11, 21180, Note_on_c, 9, 54, 100
11, 21180, Note_on_c, 9, 82, 100
11, 21210, Note_on_c, 9, 82, 0
11, 21210, Note_on_c, 9, 54, 0
11, 21210, Note_on_c, 9, 54, 0
11, 21240, Note_on_c, 9, 36, 100
11, 21240, Note_on_c, 9, 54, 100
11, 21240, Note_on_c, 9, 54, 100
11, 21240, Note_on_c, 9, 82, 100
11, 21240, Note_on_c, 9, 69, 100
11, 21270, Note_on_c, 9, 69, 0
11, 21270, Note_on_c, 9, 54, 0
11, 21270, Note_on_c, 9, 36, 0
11, 21270, Note_on_c, 9, 54, 0
11, 21270, Note_on_c, 9, 82, 0
11, 21300, Note_on_c, 9, 35, 100
11, 21330, Note_on_c, 9, 35, 0
11, 21360, Note_on_c, 9, 38, 100
11, 21360, Note_on_c, 9, 69, 100
11, 21390, Note_on_c, 9, 69, 0
11, 21390, Note_on_c, 9, 38, 0
11, 21420, Note_on_c, 9, 36, 100
11, 21450, Note_on_c, 9, 36, 0
11, 21480, Note_on_c, 9, 35, 100
11, 21480, Note_on_c, 9, 54, 100
11, 21480, Note_on_c, 9, 54, 100
11, 21480, Note_on_c, 9, 69, 100
11, 21510, Note_on_c, 9, 69, 0
11, 21510, Note_on_c, 9, 35, 0
11, 21510, Note_on_c, 9, 54, 0
11, 21510, Note_on_c, 9, 54, 0
11, 21600, Note_on_c, 9, 35, 100
11, 21600, Note_on_c, 9, 54, 100
11, 21600, Note_on_c, 9, 69, 100
11, 21630, Note_on_c, 9, 69, 0
11, 21630, Note_on_c, 9, 54, 0
11, 21630, Note_on_c, 9, 35, 0
11, 21630, Note_on_c, 9, 69, 100
11, 21660, Note_on_c, 9, 69, 0
11, 21720, Note_on_c, 9, 54, 100
11, 21720, Note_on_c, 9, 69, 100
11, 21750, Note_on_c, 9, 69, 0
11, 21750, Note_on_c, 9, 54, 0
11, 21840, Note_on_c, 9, 40, 100
11, 21840, Note_on_c, 9, 69, 100
11, 21870, Note_on_c, 9, 69, 0
11, 21870, Note_on_c, 9, 40, 0
11, 21960, Note_on_c, 9, 69, 100
11, 21990, Note_on_c, 9, 69, 0
11, 22080, Note_on_c, 9, 54, 100
11, 22080, Note_on_c, 9, 82, 100
11, 22080, Note_on_c, 9, 69, 100
11, 22110, Note_on_c, 9, 69, 0
11, 22110, Note_on_c, 9, 82, 0
11, 22110, Note_on_c, 9, 54, 0
11, 22140, Note_on_c, 9, 54, 100
11, 22140, Note_on_c, 9, 82, 100
11, 22170, Note_on_c, 9, 82, 0
11, 22170, Note_on_c, 9, 54, 0
11, 22200, Note_on_c, 9, 35, 100
11, 22200, Note_on_c, 9, 54, 100
11, 22200, Note_on_c, 9, 82, 100
11, 22200, Note_on_c, 9, 69, 100
11, 22230, Note_on_c, 9, 69, 0
11, 22230, Note_on_c, 9, 35, 0
11, 22230, Note_on_c, 9, 54, 0
11, 22230, Note_on_c, 9, 82, 0
11, 22320, Note_on_c, 9, 40, 100
11, 22320, Note_on_c, 9, 69, 100
11, 22350, Note_on_c, 9, 69, 0
11, 22350, Note_on_c, 9, 40, 0
11, 22380, Note_on_c, 9, 35, 100
11, 22410, Note_on_c, 9, 35, 0
11, 22440, Note_on_c, 9, 54, 100
11, 22440, Note_on_c, 9, 69, 100
11, 22470, Note_on_c, 9, 69, 0
11, 22470, Note_on_c, 9, 54, 0
11, 22560, Note_on_c, 9, 36, 100
11, 22560, Note_on_c, 9, 54, 100
11, 22560, Note_on_c, 9, 69, 100
11, 22590, Note_on_c, 9, 69, 0
11, 22590, Note_on_c, 9, 54, 0
11, 22590, Note_on_c, 9, 36, 0
11, 22680, Note_on_c, 9, 54, 100
11, 22680, Note_on_c, 9, 69, 100
11, 22710, Note_on_c, 9, 69, 0
11, 22710, Note_on_c, 9, 54, 0
11, 22800, Note_on_c, 9, 38, 100
11, 22800, Note_on_c, 9, 69, 100
11, 22830, Note_on_c, 9, 69, 0
11, 22830, Note_on_c, 9, 38, 0
11, 22920, Note_on_c, 9, 69, 100
11, 22950, Note_on_c, 9, 69, 0
11, 23040, Note_on_c, 9, 54, 100
11, 23040, Note_on_c, 9, 38, 100
11, 23040, Note_on_c, 9, 82, 100
11, 23040, Note_on_c, 9, 82, 100
11, 23040, Note_on_c, 9, 69, 100
11, 23040, Note_on_c, 9, 69, 100
11, 23070, Note_on_c, 9, 69, 0
11, 23070, Note_on_c, 9, 38, 0
11, 23070, Note_on_c, 9, 82, 0
11, 23070, Note_on_c, 9, 54, 0
11, 23070, Note_on_c, 9, 69, 0
11, 23070, Note_on_c, 9, 82, 0
11, 23100, Note_on_c, 9, 54, 100
11, 23100, Note_on_c, 9, 38, 100
11, 23100, Note_on_c, 9, 82, 100
11, 23100, Note_on_c, 9, 82, 100
11, 23100, Note_on_c, 9, 69, 100
11, 23130, Note_on_c, 9, 69, 0
11, 23130, Note_on_c, 9, 82, 0
11, 23130, Note_on_c, 9, 54, 0
11, 23130, Note_on_c, 9, 38, 0
11, 23130, Note_on_c, 9, 82, 0
11, 23160, Note_on_c, 9, 36, 100
11, 23160, Note_on_c, 9, 54, 100
11, 23160, Note_on_c, 9, 82, 100
11, 23160, Note_on_c, 9, 82, 100
11, 23160, Note_on_c, 9, 69, 100
11, 23160, Note_on_c, 9, 69, 100
11, 23190, Note_on_c, 9, 69, 0
11, 23190, Note_on_c, 9, 54, 0
11, 23190, Note_on_c, 9, 82, 0
11, 23190, Note_on_c, 9, 36, 0
11, 23190, Note_on_c, 9, 69, 0
11, 23190, Note_on_c, 9, 82, 0
11, 23220, Note_on_c, 9, 35, 100
11, 23250, Note_on_c, 9, 35, 0
11, 23280, Note_on_c, 9, 38, 100
11, 23280, Note_on_c, 9, 69, 100
11, 23310, Note_on_c, 9, 69, 0
11, 23310, Note_on_c, 9, 38, 0
11, 23340, Note_on_c, 9, 36, 100
11, 23340, Note_on_c, 9, 38, 100
11, 23370, Note_on_c, 9, 38, 0
11, 23370, Note_on_c, 9, 36, 0
11, 23400, Note_on_c, 9, 35, 100
11, 23400, Note_on_c, 9, 54, 100
11, 23400, Note_on_c, 9, 69, 100
11, 23430, Note_on_c, 9, 69, 0
11, 23430, Note_on_c, 9, 54, 0
11, 23430, Note_on_c, 9, 35, 0
11, 23520, Note_on_c, 9, 36, 100
11, 23520, Note_on_c, 9, 44, 100
11, 23520, Note_on_c, 9, 36, 100
11, 23520, Note_on_c, 9, 44, 100
11, 23520, Note_on_c, 9, 36, 100
11, 23520, Note_on_c, 9, 44, 100
11, 23520, Note_on_c, 9, 36, 100
11, 23520, Note_on_c, 9, 44, 100
11, 23520, Note_on_c, 9, 36, 100
11, 23520, Note_on_c, 9, 44, 100
11, 23550, Note_on_c, 9, 44, 0
11, 23550, Note_on_c, 9, 36, 0
11, 23550, Note_on_c, 9, 44, 0
11, 23550, Note_on_c, 9, 36, 0
11, 23550, Note_on_c, 9, 36, 0
11, 23550, Note_on_c, 9, 44, 0
11, 23550, Note_on_c, 9, 44, 0
11, 23550, Note_on_c, 9, 36, 0
11, 23550, Note_on_c, 9, 44, 0
11, 23550, Note_on_c, 9, 36, 0
11, 23580, Note_on_c, 9, 36, 100
11, 23580, Note_on_c, 9, 36, 100
11, 23580, Note_on_c, 9, 36, 100
11, 23580, Note_on_c, 9, 36, 100
11, 23580, Note_on_c, 9, 36, 100
11, 23610, Note_on_c, 9, 36, 0
11, 23610, Note_on_c, 9, 36, 0
11, 23610, Note_on_c, 9, 36, 0
11, 23610, Note_on_c, 9, 36, 0
11, 23610, Note_on_c, 9, 36, 0
11, 23640, Note_on_c, 9, 36, 100
11, 23640, Note_on_c, 9, 44, 100
11, 23640, Note_on_c, 9, 34, 100
11, 23640, Note_on_c, 9, 36, 100
11, 23640, Note_on_c, 9, 44, 100
11, 23640, Note_on_c, 9, 34, 100
11, 23640, Note_on_c, 9, 36, 100
11, 23640, Note_on_c, 9, 44, 100
11, 23640, Note_on_c, 9, 40, 100
11, 23640, Note_on_c, 9, 36, 100
11, 23640, Note_on_c, 9, 44, 100
11, 23640, Note_on_c, 9, 40, 100
11, 23640, Note_on_c, 9, 36, 100
11, 23640, Note_on_c, 9, 44, 100
11, 23640, Note_on_c, 9, 34, 100
11, 23670, Note_on_c, 9, 34, 0
11, 23670, Note_on_c, 9, 40, 0
11, 23670, Note_on_c, 9, 44, 0
11, 23670, Note_on_c, 9, 34, 0
11, 23670, Note_on_c, 9, 44, 0
11, 23670, Note_on_c, 9, 44, 0
11, 23670, Note_on_c, 9, 34, 0
11, 23670, Note_on_c, 9, 36, 0
11, 23670, Note_on_c, 9, 36, 0
11, 23670, Note_on_c, 9, 36, 0
11, 23670, Note_on_c, 9, 44, 0
11, 23670, Note_on_c, 9, 40, 0
11, 23670, Note_on_c, 9, 36, 0
11, 23670, Note_on_c, 9, 44, 0
11, 23670, Note_on_c, 9, 36, 0
11, 23700, Note_on_c, 9, 36, 100
11, 23700, Note_on_c, 9, 36, 100
11, 23700, Note_on_c, 9, 36, 100
11, 23700, Note_on_c, 9, 36, 100
11, 23700, Note_on_c, 9, 36, 100
11, 23730, Note_on_c, 9, 36, 0
11, 23730, Note_on_c, 9, 36, 0
11, 23730, Note_on_c, 9, 36, 0
11, 23730, Note_on_c, 9, 36, 0
11, 23730, Note_on_c, 9, 36, 0
11, 23760, Note_on_c, 9, 36, 100
11, 23760, Note_on_c, 9, 44, 100
11, 23760, Note_on_c, 9, 36, 100
11, 23760, Note_on_c, 9, 44, 100
11, 23760, Note_on_c, 9, 36, 100
11, 23760, Note_on_c, 9, 44, 100
11, 23760, Note_on_c, 9, 36, 100
11, 23760, Note_on_c, 9, 44, 100
11, 23760, Note_on_c, 9, 36, 100
11, 23760, Note_on_c, 9, 44, 100
11, 23790, Note_on_c, 9, 44, 0
11, 23790, Note_on_c, 9, 36, 0
11, 23790, Note_on_c, 9, 44, 0
11, 23790, Note_on_c, 9, 36, 0
11, 23790, Note_on_c, 9, 36, 0
11, 23790, Note_on_c, 9, 44, 0
11, 23790, Note_on_c, 9, 44, 0
11, 23790, Note_on_c, 9, 36, 0
11, 23790, Note_on_c, 9, 44, 0
11, 23790, Note_on_c, 9, 36, 0
11, 23880, Note_on_c, 9, 36, 100
11, 23880, Note_on_c, 9, 44, 100
11, 23880, Note_on_c, 9, 34, 100
11, 23880, Note_on_c, 9, 36, 100
11, 23880, Note_on_c, 9, 44, 100
11, 23880, Note_on_c, 9, 34, 100
11, 23880, Note_on_c, 9, 36, 100
11, 23880, Note_on_c, 9, 44, 100
11, 23880, Note_on_c, 9, 40, 100
11, 23880, Note_on_c, 9, 36, 100
11, 23880, Note_on_c, 9, 44, 100
11, 23880, Note_on_c, 9, 40, 100
11, 23880, Note_on_c, 9, 36, 100
11, 23880, Note_on_c, 9, 44, 100
11, 23880, Note_on_c, 9, 34, 100
11, 23910, Note_on_c, 9, 34, 0
11, 23910, Note_on_c, 9, 40, 0
11, 23910, Note_on_c, 9, 44, 0
11, 23910, Note_on_c, 9, 34, 0
11, 23910, Note_on_c, 9, 44, 0
11, 23910, Note_on_c, 9, 44, 0
11, 23910, Note_on_c, 9, 34, 0
11, 23910, Note_on_c, 9, 36, 0
11, 23910, Note_on_c, 9, 36, 0
11, 23910, Note_on_c, 9, 36, 0
11, 23910, Note_on_c, 9, 44, 0
11, 23910, Note_on_c, 9, 40, 0
11, 23910, Note_on_c, 9, 36, 0
11, 23910, Note_on_c, 9, 44, 0
11, 23910, Note_on_c, 9, 36, 0
11, 24000, Note_on_c, 9, 36, 100
11, 24000, Note_on_c, 9, 44, 100
11, 24000, Note_on_c, 9, 36, 100
11, 24000, Note_on_c, 9, 44, 100
11, 24000, Note_on_c, 9, 36, 100
11, 24000, Note_on_c, 9, 44, 100
11, 24000, Note_on_c, 9, 36, 100
11, 24000, Note_on_c, 9, 44, 100
11, 24000, Note_on_c, 9, 36, 100
11, 24000, Note_on_c, 9, 44, 100
11, 24030, Note_on_c, 9, 44, 0
11, 24030, Note_on_c, 9, 36, 0
11, 24030, Note_on_c, 9, 44, 0
11, 24030, Note_on_c, 9, 36, 0
11, 24030, Note_on_c, 9, 36, 0
11, 24030, Note_on_c, 9, 44, 0
11, 24030, Note_on_c, 9, 44, 0
11, 24030, Note_on_c, 9, 36, 0
11, 24030, Note_on_c, 9, 44, 0
11, 24030, Note_on_c, 9, 36, 0
11, 24120, Note_on_c, 9, 36, 100
11, 24120, Note_on_c, 9, 44, 100
11, 24120, Note_on_c, 9, 36, 100
11, 24120, Note_on_c, 9, 44, 100
11, 24120, Note_on_c, 9, 36, 100
11, 24120, Note_on_c, 9, 44, 100
11, 24120, Note_on_c, 9, 36, 100
11, 24120, Note_on_c, 9, 44, 100
11, 24120, Note_on_c, 9, 36, 100
11, 24120, Note_on_c, 9, 44, 100
11, 24150, Note_on_c, 9, 44, 0
11, 24150, Note_on_c, 9, 36, 0
11, 24150, Note_on_c, 9, 44, 0
11, 24150, Note_on_c, 9, 36, 0
11, 24150, Note_on_c, 9, 36, 0
11, 24150, Note_on_c, 9, 44, 0
11, 24150, Note_on_c, 9, 44, 0
11, 24150, Note_on_c, 9, 36, 0
11, 24150, Note_on_c, 9, 44, 0
11, 24150, Note_on_c, 9, 36, 0
11, 24240, Note_on_c, 9, 36, 100
11, 24240, Note_on_c, 9, 44, 100
11, 24240, Note_on_c, 9, 36, 100
11, 24240, Note_on_c, 9, 44, 100
11, 24240, Note_on_c, 9, 36, 100
11, 24240, Note_on_c, 9, 44, 100
11, 24240, Note_on_c, 9, 36, 100
11, 24240, Note_on_c, 9, 44, 100
11, 24240, Note_on_c, 9, 36, 100
11, 24240, Note_on_c, 9, 44, 100
11, 24270, Note_on_c, 9, 44, 0
11, 24270, Note_on_c, 9, 36, 0
11, 24270, Note_on_c, 9, 44, 0
11, 24270, Note_on_c, 9, 36, 0
11, 24270, Note_on_c, 9, 36, 0
11, 24270, Note_on_c, 9, 44, 0
11, 24270, Note_on_c, 9, 44, 0
11, 24270, Note_on_c, 9, 36, 0
11, 24270, Note_on_c, 9, 44, 0
11, 24270, Note_on_c, 9, 36, 0
11, 24360, Note_on_c, 9, 36, 100
11, 24360, Note_on_c, 9, 44, 100
11, 24360, Note_on_c, 9, 34, 100
11, 24360, Note_on_c, 9, 36, 100
11, 24360, Note_on_c, 9, 44, 100
11, 24360, Note_on_c, 9, 34, 100
11, 24360, Note_on_c, 9, 36, 100
11, 24360, Note_on_c, 9, 44, 100
11, 24360, Note_on_c, 9, 40, 100
11, 24360, Note_on_c, 9, 36, 100
11, 24360, Note_on_c, 9, 44, 100
11, 24360, Note_on_c, 9, 40, 100
11, 24360, Note_on_c, 9, 36, 100
11, 24360, Note_on_c, 9, 44, 100
11, 24360, Note_on_c, 9, 34, 100
11, 24390, Note_on_c, 9, 34, 0
11, 24390, Note_on_c, 9, 40, 0
11, 24390, Note_on_c, 9, 44, 0
11, 24390, Note_on_c, 9, 34, 0
11, 24390, Note_on_c, 9, 44, 0
11, 24390, Note_on_c, 9, 44, 0
11, 24390, Note_on_c, 9, 34, 0
11, 24390, Note_on_c, 9, 36, 0
11, 24390, Note_on_c, 9, 36, 0
11, 24390, Note_on_c, 9, 36, 0
11, 24390, Note_on_c, 9, 44, 0
11, 24390, Note_on_c, 9, 40, 0
11, 24390, Note_on_c, 9, 36, 0
11, 24390, Note_on_c, 9, 44, 0
11, 24390, Note_on_c, 9, 36, 0
11, 24480, Note_on_c, 9, 36, 100
11, 24480, Note_on_c, 9, 44, 100
11, 24480, Note_on_c, 9, 82, 100
11, 24480, Note_on_c, 9, 36, 100
11, 24480, Note_on_c, 9, 44, 100
11, 24480, Note_on_c, 9, 82, 100
11, 24480, Note_on_c, 9, 36, 100
11, 24480, Note_on_c, 9, 44, 100
11, 24480, Note_on_c, 9, 82, 100
11, 24480, Note_on_c, 9, 36, 100
11, 24480, Note_on_c, 9, 44, 100
11, 24480, Note_on_c, 9, 82, 100
11, 24510, Note_on_c, 9, 82, 0
11, 24510, Note_on_c, 9, 44, 0
11, 24510, Note_on_c, 9, 44, 0
11, 24510, Note_on_c, 9, 82, 0
11, 24510, Note_on_c, 9, 36, 0
11, 24510, Note_on_c, 9, 36, 0
11, 24510, Note_on_c, 9, 44, 0
11, 24510, Note_on_c, 9, 82, 0
11, 24510, Note_on_c, 9, 82, 0
11, 24510, Note_on_c, 9, 36, 0
11, 24510, Note_on_c, 9, 44, 0
11, 24510, Note_on_c, 9, 36, 0
11, 24540, Note_on_c, 9, 36, 100
11, 24540, Note_on_c, 9, 82, 100
11, 24540, Note_on_c, 9, 36, 100
11, 24540, Note_on_c, 9, 82, 100
11, 24540, Note_on_c, 9, 36, 100
11, 24540, Note_on_c, 9, 82, 100
11, 24540, Note_on_c, 9, 36, 100
11, 24540, Note_on_c, 9, 82, 100
11, 24570, Note_on_c, 9, 82, 0
11, 24570, Note_on_c, 9, 36, 0
11, 24570, Note_on_c, 9, 36, 0
11, 24570, Note_on_c, 9, 82, 0
11, 24570, Note_on_c, 9, 36, 0
11, 24570, Note_on_c, 9, 82, 0
11, 24570, Note_on_c, 9, 82, 0
11, 24570, Note_on_c, 9, 36, 0
11, 24600, Note_on_c, 9, 36, 100
11, 24600, Note_on_c, 9, 44, 100
11, 24600, Note_on_c, 9, 40, 100
11, 24600, Note_on_c, 9, 82, 100
11, 24600, Note_on_c, 9, 36, 100
11, 24600, Note_on_c, 9, 44, 100
11, 24600, Note_on_c, 9, 34, 100
11, 24600, Note_on_c, 9, 82, 100
11, 24600, Note_on_c, 9, 36, 100
11, 24600, Note_on_c, 9, 44, 100
11, 24600, Note_on_c, 9, 34, 100
11, 24600, Note_on_c, 9, 82, 100
11, 24600, Note_on_c, 9, 36, 100
11, 24600, Note_on_c, 9, 44, 100
11, 24600, Note_on_c, 9, 34, 100
11, 24600, Note_on_c, 9, 82, 100
11, 24630, Note_on_c, 9, 82, 0
11, 24630, Note_on_c, 9, 36, 0
11, 24630, Note_on_c, 9, 82, 0
11, 24630, Note_on_c, 9, 36, 0
11, 24630, Note_on_c, 9, 44, 0
11, 24630, Note_on_c, 9, 44, 0
11, 24630, Note_on_c, 9, 82, 0
11, 24630, Note_on_c, 9, 40, 0
11, 24630, Note_on_c, 9, 82, 0
11, 24630, Note_on_c, 9, 34, 0
11, 24630, Note_on_c, 9, 36, 0
11, 24630, Note_on_c, 9, 34, 0
11, 24630, Note_on_c, 9, 36, 0
11, 24630, Note_on_c, 9, 44, 0
11, 24630, Note_on_c, 9, 44, 0
11, 24630, Note_on_c, 9, 34, 0
11, 24660, Note_on_c, 9, 36, 100
11, 24660, Note_on_c, 9, 36, 100
11, 24660, Note_on_c, 9, 36, 100
11, 24660, Note_on_c, 9, 36, 100
11, 24690, Note_on_c, 9, 36, 0
11, 24690, Note_on_c, 9, 36, 0
11, 24690, Note_on_c, 9, 36, 0
11, 24690, Note_on_c, 9, 36, 0
11, 24720, Note_on_c, 9, 36, 100
11, 24720, Note_on_c, 9, 44, 100
11, 24720, Note_on_c, 9, 82, 100
11, 24720, Note_on_c, 9, 36, 100
11, 24720, Note_on_c, 9, 44, 100
11, 24720, Note_on_c, 9, 82, 100
11, 24720, Note_on_c, 9, 36, 100
11, 24720, Note_on_c, 9, 44, 100
11, 24720, Note_on_c, 9, 82, 100
11, 24720, Note_on_c, 9, 36, 100
11, 24720, Note_on_c, 9, 44, 100
11, 24720, Note_on_c, 9, 82, 100
11, 24750, Note_on_c, 9, 82, 0
11, 24750, Note_on_c, 9, 44, 0
11, 24750, Note_on_c, 9, 44, 0
11, 24750, Note_on_c, 9, 82, 0
11, 24750, Note_on_c, 9, 36, 0
11, 24750, Note_on_c, 9, 36, 0
11, 24750, Note_on_c, 9, 44, 0
11, 24750, Note_on_c, 9, 82, 0
11, 24750, Note_on_c, 9, 82, 0
11, 24750, Note_on_c, 9, 36, 0
11, 24750, Note_on_c, 9, 44, 0
11, 24750, Note_on_c, 9, 36, 0
11, 24780, Note_on_c, 9, 82, 100
11, 24780, Note_on_c, 9, 82, 100
11, 24780, Note_on_c, 9, 82, 100
11, 24780, Note_on_c, 9, 82, 100
11, 24810, Note_on_c, 9, 82, 0
11, 24810, Note_on_c, 9, 82, 0
11, 24810, Note_on_c, 9, 82, 0
11, 24810, Note_on_c, 9, 82, 0
11, 24840, Note_on_c, 9, 36, 100
11, 24840, Note_on_c, 9, 44, 100
11, 24840, Note_on_c, 9, 40, 100
11, 24840, Note_on_c, 9, 82, 100
11, 24840, Note_on_c, 9, 36, 100
11, 24840, Note_on_c, 9, 44, 100
11, 24840, Note_on_c, 9, 34, 100
11, 24840, Note_on_c, 9, 82, 100
11, 24840, Note_on_c, 9, 36, 100
11, 24840, Note_on_c, 9, 44, 100
11, 24840, Note_on_c, 9, 34, 100
11, 24840, Note_on_c, 9, 82, 100
11, 24840, Note_on_c, 9, 36, 100
11, 24840, Note_on_c, 9, 44, 100
11, 24840, Note_on_c, 9, 34, 100
11, 24840, Note_on_c, 9, 82, 100
11, 24870, Note_on_c, 9, 82, 0
11, 24870, Note_on_c, 9, 36, 0
11, 24870, Note_on_c, 9, 82, 0
11, 24870, Note_on_c, 9, 36, 0
11, 24870, Note_on_c, 9, 44, 0
11, 24870, Note_on_c, 9, 44, 0
11, 24870, Note_on_c, 9, 82, 0
11, 24870, Note_on_c, 9, 40, 0
11, 24870, Note_on_c, 9, 82, 0
11, 24870, Note_on_c, 9, 34, 0
11, 24870, Note_on_c, 9, 36, 0
11, 24870, Note_on_c, 9, 34, 0
11, 24870, Note_on_c, 9, 36, 0
11, 24870, Note_on_c, 9, 44, 0
11, 24870, Note_on_c, 9, 44, 0
11, 24870, Note_on_c, 9, 34, 0
11, 24960, Note_on_c, 9, 36, 100
11, 24960, Note_on_c, 9, 44, 100
11, 24960, Note_on_c, 9, 82, 100
11, 24960, Note_on_c, 9, 36, 100
11, 24960, Note_on_c, 9, 44, 100
11, 24960, Note_on_c, 9, 82, 100
11, 24960, Note_on_c, 9, 36, 100
11, 24960, Note_on_c, 9, 44, 100
11, 24960, Note_on_c, 9, 82, 100
11, 24960, Note_on_c, 9, 36, 100
11, 24960, Note_on_c, 9, 44, 100
11, 24960, Note_on_c, 9, 82, 100
11, 24990, Note_on_c, 9, 82, 0
11, 24990, Note_on_c, 9, 44, 0
11, 24990, Note_on_c, 9, 44, 0
11, 24990, Note_on_c, 9, 82, 0
11, 24990, Note_on_c, 9, 36, 0
11, 24990, Note_on_c, 9, 36, 0
11, 24990, Note_on_c, 9, 44, 0
11, 24990, Note_on_c, 9, 82, 0
11, 24990, Note_on_c, 9, 82, 0
11, 24990, Note_on_c, 9, 36, 0
11, 24990, Note_on_c, 9, 44, 0
11, 24990, Note_on_c, 9, 36, 0
11, 25020, Note_on_c, 9, 82, 100
11, 25020, Note_on_c, 9, 82, 100
11, 25020, Note_on_c, 9, 82, 100
11, 25020, Note_on_c, 9, 82, 100
11, 25050, Note_on_c, 9, 82, 0
11, 25050, Note_on_c, 9, 82, 0
11, 25050, Note_on_c, 9, 82, 0
11, 25050, Note_on_c, 9, 82, 0
11, 25080, Note_on_c, 9, 36, 100
11, 25080, Note_on_c, 9, 44, 100
11, 25080, Note_on_c, 9, 82, 100
11, 25080, Note_on_c, 9, 36, 100
11, 25080, Note_on_c, 9, 44, 100
11, 25080, Note_on_c, 9, 82, 100
11, 25080, Note_on_c, 9, 36, 100
11, 25080, Note_on_c, 9, 44, 100
11, 25080, Note_on_c, 9, 82, 100
11, 25080, Note_on_c, 9, 36, 100
11, 25080, Note_on_c, 9, 44, 100
11, 25080, Note_on_c, 9, 82, 100
11, 25110, Note_on_c, 9, 82, 0
11, 25110, Note_on_c, 9, 44, 0
11, 25110, Note_on_c, 9, 44, 0
11, 25110, Note_on_c, 9, 82, 0
11, 25110, Note_on_c, 9, 36, 0
11, 25110, Note_on_c, 9, 36, 0
11, 25110, Note_on_c, 9, 44, 0
11, 25110, Note_on_c, 9, 82, 0
11, 25110, Note_on_c, 9, 82, 0
11, 25110, Note_on_c, 9, 36, 0
11, 25110, Note_on_c, 9, 44, 0
11, 25110, Note_on_c, 9, 36, 0
11, 25140, Note_on_c, 9, 82, 100
11, 25140, Note_on_c, 9, 82, 100
11, 25140, Note_on_c, 9, 82, 100
11, 25140, Note_on_c, 9, 82, 100
11, 25170, Note_on_c, 9, 82, 0
11, 25170, Note_on_c, 9, 82, 0
11, 25170, Note_on_c, 9, 82, 0
11, 25170, Note_on_c, 9, 82, 0
11, 25200, Note_on_c, 9, 36, 100
11, 25200, Note_on_c, 9, 44, 100
11, 25200, Note_on_c, 9, 82, 100
11, 25200, Note_on_c, 9, 36, 100
11, 25200, Note_on_c, 9, 44, 100
11, 25200, Note_on_c, 9, 82, 100
11, 25200, Note_on_c, 9, 36, 100
11, 25200, Note_on_c, 9, 44, 100
11, 25200, Note_on_c, 9, 82, 100
11, 25200, Note_on_c, 9, 36, 100
11, 25200, Note_on_c, 9, 44, 100
11, 25200, Note_on_c, 9, 82, 100
11, 25230, Note_on_c, 9, 82, 0
11, 25230, Note_on_c, 9, 44, 0
11, 25230, Note_on_c, 9, 44, 0
11, 25230, Note_on_c, 9, 82, 0
11, 25230, Note_on_c, 9, 36, 0
11, 25230, Note_on_c, 9, 36, 0
11, 25230, Note_on_c, 9, 44, 0
11, 25230, Note_on_c, 9, 82, 0
11, 25230, Note_on_c, 9, 82, 0
11, 25230, Note_on_c, 9, 36, 0
11, 25230, Note_on_c, 9, 44, 0
11, 25230, Note_on_c, 9, 36, 0
11, 25260, Note_on_c, 9, 82, 100
11, 25260, Note_on_c, 9, 82, 100
11, 25260, Note_on_c, 9, 82, 100
11, 25260, Note_on_c, 9, 82, 100
11, 25290, Note_on_c, 9, 82, 0
11, 25290, Note_on_c, 9, 82, 0
11, 25290, Note_on_c, 9, 82, 0
11, 25290, Note_on_c, 9, 82, 0
11, 25320, Note_on_c, 9, 36, 100
11, 25320, Note_on_c, 9, 44, 100
11, 25320, Note_on_c, 9, 40, 100
11, 25320, Note_on_c, 9, 82, 100
11, 25320, Note_on_c, 9, 36, 100
11, 25320, Note_on_c, 9, 44, 100
11, 25320, Note_on_c, 9, 34, 100
11, 25320, Note_on_c, 9, 82, 100
11, 25320, Note_on_c, 9, 36, 100
11, 25320, Note_on_c, 9, 44, 100
11, 25320, Note_on_c, 9, 34, 100
11, 25320, Note_on_c, 9, 82, 100
11, 25320, Note_on_c, 9, 36, 100
11, 25320, Note_on_c, 9, 44, 100
11, 25320, Note_on_c, 9, 34, 100
11, 25320, Note_on_c, 9, 82, 100
11, 25350, Note_on_c, 9, 82, 0
11, 25350, Note_on_c, 9, 36, 0
11, 25350, Note_on_c, 9, 82, 0
11, 25350, Note_on_c, 9, 36, 0
11, 25350, Note_on_c, 9, 44, 0
11, 25350, Note_on_c, 9, 44, 0
11, 25350, Note_on_c, 9, 82, 0
11, 25350, Note_on_c, 9, 40, 0
11, 25350, Note_on_c, 9, 82, 0
11, 25350, Note_on_c, 9, 34, 0
11, 25350, Note_on_c, 9, 36, 0
11, 25350, Note_on_c, 9, 34, 0
11, 25350, Note_on_c, 9, 36, 0
11, 25350, Note_on_c, 9, 44, 0
11, 25350, Note_on_c, 9, 44, 0
11, 25350, Note_on_c, 9, 34, 0
11, 25380, Note_on_c, 9, 82, 100
11, 25380, Note_on_c, 9, 82, 100
11, 25380, Note_on_c, 9, 82, 100
11, 25380, Note_on_c, 9, 82, 100
11, 25410, Note_on_c, 9, 82, 0
11, 25410, Note_on_c, 9, 82, 0
11, 25410, Note_on_c, 9, 82, 0
11, 25410, Note_on_c, 9, 82, 0
11, 25440, Note_on_c, 9, 36, 100
11, 25440, Note_on_c, 9, 42, 100
11, 25470, Note_on_c, 9, 42, 0
11, 25470, Note_on_c, 9, 36, 0
11, 25500, Note_on_c, 9, 42, 100
11, 25530, Note_on_c, 9, 42, 0
11, 25560, Note_on_c, 9, 42, 100
11, 25590, Note_on_c, 9, 42, 0
11, 25620, Note_on_c, 9, 42, 100
11, 25650, Note_on_c, 9, 42, 0
11, 25680, Note_on_c, 9, 42, 100
11, 25680, Note_on_c, 9, 40, 100
11, 25710, Note_on_c, 9, 40, 0
11, 25710, Note_on_c, 9, 42, 0
11, 25740, Note_on_c, 9, 42, 100
11, 25770, Note_on_c, 9, 42, 0
11, 25800, Note_on_c, 9, 42, 100
11, 25830, Note_on_c, 9, 42, 0
11, 25860, Note_on_c, 9, 42, 100
11, 25890, Note_on_c, 9, 42, 0
11, 25920, Note_on_c, 9, 42, 100
11, 25920, Note_on_c, 9, 82, 100
11, 25920, Note_on_c, 9, 82, 100
11, 25920, Note_on_c, 9, 69, 100
11, 25950, Note_on_c, 9, 69, 0
11, 25950, Note_on_c, 9, 42, 0
11, 25950, Note_on_c, 9, 82, 0
11, 25950, Note_on_c, 9, 82, 0
11, 25980, Note_on_c, 9, 42, 100
11, 25980, Note_on_c, 9, 82, 100
11, 25980, Note_on_c, 9, 82, 100
11, 25980, Note_on_c, 9, 69, 100
11, 26010, Note_on_c, 9, 69, 0
11, 26010, Note_on_c, 9, 42, 0
11, 26010, Note_on_c, 9, 82, 0
11, 26010, Note_on_c, 9, 82, 0
11, 26040, Note_on_c, 9, 36, 100
11, 26040, Note_on_c, 9, 42, 100
11, 26040, Note_on_c, 9, 82, 100
11, 26040, Note_on_c, 9, 82, 100
11, 26040, Note_on_c, 9, 69, 100
11, 26070, Note_on_c, 9, 69, 0
11, 26070, Note_on_c, 9, 82, 0
11, 26070, Note_on_c, 9, 36, 0
11, 26070, Note_on_c, 9, 42, 0
11, 26070, Note_on_c, 9, 82, 0
11, 26100, Note_on_c, 9, 42, 100
11, 26130, Note_on_c, 9, 42, 0
11, 26160, Note_on_c, 9, 42, 100
11, 26160, Note_on_c, 9, 40, 100
11, 26190, Note_on_c, 9, 40, 0
11, 26190, Note_on_c, 9, 42, 0
11, 26220, Note_on_c, 9, 36, 100
11, 26220, Note_on_c, 9, 42, 100
11, 26250, Note_on_c, 9, 42, 0
11, 26250, Note_on_c, 9, 36, 0
11, 26280, Note_on_c, 9, 42, 100
11, 26310, Note_on_c, 9, 42, 0
11, 26340, Note_on_c, 9, 42, 100
11, 26370, Note_on_c, 9, 42, 0
11, 26400, Note_on_c, 9, 36, 100
11, 26400, Note_on_c, 9, 42, 100
11, 26430, Note_on_c, 9, 42, 0
11, 26430, Note_on_c, 9, 36, 0
11, 26460, Note_on_c, 9, 42, 100
11, 26490, Note_on_c, 9, 42, 0
11, 26520, Note_on_c, 9, 42, 100
11, 26550, Note_on_c, 9, 42, 0
11, 26580, Note_on_c, 9, 42, 100
11, 26610, Note_on_c, 9, 42, 0
11, 26640, Note_on_c, 9, 42, 100
11, 26640, Note_on_c, 9, 40, 100
11, 26670, Note_on_c, 9, 40, 0
11, 26670, Note_on_c, 9, 42, 0
11, 26700, Note_on_c, 9, 42, 100
11, 26730, Note_on_c, 9, 42, 0
11, 26760, Note_on_c, 9, 42, 100
11, 26790, Note_on_c, 9, 42, 0
11, 26820, Note_on_c, 9, 42, 100
11, 26850, Note_on_c, 9, 42, 0
11, 26880, Note_on_c, 9, 42, 100
11, 26880, Note_on_c, 9, 82, 100
11, 26880, Note_on_c, 9, 82, 100
11, 26880, Note_on_c, 9, 69, 100
11, 26910, Note_on_c, 9, 69, 0
11, 26910, Note_on_c, 9, 42, 0
11, 26910, Note_on_c, 9, 82, 0
11, 26910, Note_on_c, 9, 82, 0
11, 26940, Note_on_c, 9, 42, 100
11, 26940, Note_on_c, 9, 82, 100
11, 26940, Note_on_c, 9, 82, 100
11, 26940, Note_on_c, 9, 69, 100
11, 26970, Note_on_c, 9, 69, 0
11, 26970, Note_on_c, 9, 42, 0
11, 26970, Note_on_c, 9, 82, 0
11, 26970, Note_on_c, 9, 82, 0
11, 27000, Note_on_c, 9, 36, 100
11, 27000, Note_on_c, 9, 42, 100
11, 27000, Note_on_c, 9, 82, 100
11, 27000, Note_on_c, 9, 82, 100
11, 27000, Note_on_c, 9, 69, 100
11, 27030, Note_on_c, 9, 69, 0
11, 27030, Note_on_c, 9, 82, 0
11, 27030, Note_on_c, 9, 36, 0
11, 27030, Note_on_c, 9, 42, 0
11, 27030, Note_on_c, 9, 82, 0
11, 27060, Note_on_c, 9, 42, 100
11, 27090, Note_on_c, 9, 42, 0
11, 27120, Note_on_c, 9, 42, 100
11, 27120, Note_on_c, 9, 40, 100
11, 27150, Note_on_c, 9, 40, 0
11, 27150, Note_on_c, 9, 42, 0
11, 27180, Note_on_c, 9, 36, 100
11, 27180, Note_on_c, 9, 42, 100
11, 27210, Note_on_c, 9, 42, 0
11, 27210, Note_on_c, 9, 36, 0
11, 27240, Note_on_c, 9, 42, 100
11, 27270, Note_on_c, 9, 42, 0
11, 27300, Note_on_c, 9, 42, 100
11, 27330, Note_on_c, 9, 42, 0
11, 27360, Note_on_c, 9, 36, 100
11, 27360, Note_on_c, 9, 42, 100
11, 27390, Note_on_c, 9, 42, 0
11, 27390, Note_on_c, 9, 36, 0
11, 27420, Note_on_c, 9, 42, 100
11, 27450, Note_on_c, 9, 42, 0
11, 27480, Note_on_c, 9, 42, 100
11, 27510, Note_on_c, 9, 42, 0
11, 27540, Note_on_c, 9, 42, 100
11, 27570, Note_on_c, 9, 42, 0
11, 27600, Note_on_c, 9, 42, 100
11, 27600, Note_on_c, 9, 40, 100
11, 27630, Note_on_c, 9, 40, 0
11, 27630, Note_on_c, 9, 42, 0
11, 27660, Note_on_c, 9, 42, 100
11, 27690, Note_on_c, 9, 42, 0
11, 27720, Note_on_c, 9, 42, 100
11, 27750, Note_on_c, 9, 42, 0
11, 27780, Note_on_c, 9, 42, 100
11, 27810, Note_on_c, 9, 42, 0
11, 27840, Note_on_c, 9, 42, 100
11, 27840, Note_on_c, 9, 82, 100
11, 27840, Note_on_c, 9, 82, 100
11, 27840, Note_on_c, 9, 69, 100
11, 27870, Note_on_c, 9, 69, 0
11, 27870, Note_on_c, 9, 42, 0
11, 27870, Note_on_c, 9, 82, 0
11, 27870, Note_on_c, 9, 82, 0
11, 27900, Note_on_c, 9, 42, 100
11, 27900, Note_on_c, 9, 82, 100
11, 27900, Note_on_c, 9, 82, 100
11, 27900, Note_on_c, 9, 69, 100
11, 27930, Note_on_c, 9, 69, 0
11, 27930, Note_on_c, 9, 42, 0
11, 27930, Note_on_c, 9, 82, 0
11, 27930, Note_on_c, 9, 82, 0
11, 27960, Note_on_c, 9, 36, 100
11, 27960, Note_on_c, 9, 42, 100
11, 27960, Note_on_c, 9, 82, 100
11, 27960, Note_on_c, 9, 82, 100
11, 27960, Note_on_c, 9, 69, 100
11, 27990, Note_on_c, 9, 69, 0
11, 27990, Note_on_c, 9, 82, 0
11, 27990, Note_on_c, 9, 36, 0
11, 27990, Note_on_c, 9, 42, 0
11, 27990, Note_on_c, 9, 82, 0
11, 28020, Note_on_c, 9, 42, 100
11, 28050, Note_on_c, 9, 42, 0
11, 28080, Note_on_c, 9, 42, 100
11, 28080, Note_on_c, 9, 40, 100
11, 28110, Note_on_c, 9, 40, 0
11, 28110, Note_on_c, 9, 42, 0
11, 28140, Note_on_c, 9, 36, 100
11, 28140, Note_on_c, 9, 42, 100
11, 28170, Note_on_c, 9, 42, 0
11, 28170, Note_on_c, 9, 36, 0
11, 28200, Note_on_c, 9, 42, 100
11, 28230, Note_on_c, 9, 42, 0
11, 28260, Note_on_c, 9, 42, 100
11, 28290, Note_on_c, 9, 42, 0
11, 28320, Note_on_c, 9, 36, 100
11, 28320, Note_on_c, 9, 42, 100
11, 28350, Note_on_c, 9, 42, 0
11, 28350, Note_on_c, 9, 36, 0
11, 28380, Note_on_c, 9, 42, 100
11, 28410, Note_on_c, 9, 42, 0
11, 28440, Note_on_c, 9, 42, 100
11, 28470, Note_on_c, 9, 42, 0
11, 28500, Note_on_c, 9, 42, 100
11, 28530, Note_on_c, 9, 42, 0
11, 28560, Note_on_c, 9, 42, 100
11, 28560, Note_on_c, 9, 40, 100
11, 28590, Note_on_c, 9, 40, 0
11, 28590, Note_on_c, 9, 42, 0
11, 28620, Note_on_c, 9, 42, 100
11, 28650, Note_on_c, 9, 42, 0
11, 28680, Note_on_c, 9, 42, 100
11, 28710, Note_on_c, 9, 42, 0
11, 28740, Note_on_c, 9, 42, 100
11, 28770, Note_on_c, 9, 42, 0
11, 28800, Note_on_c, 9, 42, 100
11, 28800, Note_on_c, 9, 82, 100
11, 28800, Note_on_c, 9, 82, 100
11, 28800, Note_on_c, 9, 69, 100
11, 28830, Note_on_c, 9, 69, 0
11, 28830, Note_on_c, 9, 42, 0
11, 28830, Note_on_c, 9, 82, 0
11, 28830, Note_on_c, 9, 82, 0
11, 28860, Note_on_c, 9, 42, 100
11, 28860, Note_on_c, 9, 82, 100
11, 28860, Note_on_c, 9, 82, 100
11, 28860, Note_on_c, 9, 69, 100
11, 28890, Note_on_c, 9, 69, 0
11, 28890, Note_on_c, 9, 42, 0
11, 28890, Note_on_c, 9, 82, 0
11, 28890, Note_on_c, 9, 82, 0
11, 28920, Note_on_c, 9, 36, 100
11, 28920, Note_on_c, 9, 42, 100
11, 28920, Note_on_c, 9, 82, 100
11, 28920, Note_on_c, 9, 82, 100
11, 28920, Note_on_c, 9, 69, 100
11, 28950, Note_on_c, 9, 69, 0
11, 28950, Note_on_c, 9, 82, 0
11, 28950, Note_on_c, 9, 36, 0
11, 28950, Note_on_c, 9, 42, 0
11, 28950, Note_on_c, 9, 82, 0
11, 28980, Note_on_c, 9, 42, 100
11, 29010, Note_on_c, 9, 42, 0
11, 29040, Note_on_c, 9, 42, 100
11, 29040, Note_on_c, 9, 40, 100
11, 29070, Note_on_c, 9, 40, 0
11, 29070, Note_on_c, 9, 42, 0
11, 29100, Note_on_c, 9, 36, 100
11, 29100, Note_on_c, 9, 42, 100
11, 29130, Note_on_c, 9, 42, 0
11, 29130, Note_on_c, 9, 36, 0
11, 29160, Note_on_c, 9, 42, 100
11, 29190, Note_on_c, 9, 42, 0
11, 29220, Note_on_c, 9, 42, 100
11, 29250, Note_on_c, 9, 42, 0
11, 29280, Note_on_c, 9, 36, 100
11, 29280, Note_on_c, 9, 42, 100
11, 29310, Note_on_c, 9, 42, 0
11, 29310, Note_on_c, 9, 36, 0
11, 29340, Note_on_c, 9, 42, 100
11, 29370, Note_on_c, 9, 42, 0
11, 29400, Note_on_c, 9, 42, 100
11, 29430, Note_on_c, 9, 42, 0
11, 29460, Note_on_c, 9, 42, 100
11, 29490, Note_on_c, 9, 42, 0
11, 29520, Note_on_c, 9, 42, 100
11, 29520, Note_on_c, 9, 40, 100
11, 29550, Note_on_c, 9, 40, 0
11, 29550, Note_on_c, 9, 42, 0
11, 29580, Note_on_c, 9, 42, 100
11, 29610, Note_on_c, 9, 42, 0
11, 29640, Note_on_c, 9, 42, 100
11, 29670, Note_on_c, 9, 42, 0
11, 29700, Note_on_c, 9, 42, 100
11, 29730, Note_on_c, 9, 42, 0
11, 29760, Note_on_c, 9, 42, 100
11, 29760, Note_on_c, 9, 82, 100
11, 29760, Note_on_c, 9, 82, 100
11, 29760, Note_on_c, 9, 69, 100
11, 29790, Note_on_c, 9, 69, 0
11, 29790, Note_on_c, 9, 42, 0
11, 29790, Note_on_c, 9, 82, 0
11, 29790, Note_on_c, 9, 82, 0
11, 29820, Note_on_c, 9, 42, 100
11, 29820, Note_on_c, 9, 82, 100
11, 29820, Note_on_c, 9, 82, 100
11, 29820, Note_on_c, 9, 69, 100
11, 29850, Note_on_c, 9, 69, 0
11, 29850, Note_on_c, 9, 42, 0
11, 29850, Note_on_c, 9, 82, 0
11, 29850, Note_on_c, 9, 82, 0
11, 29880, Note_on_c, 9, 36, 100
11, 29880, Note_on_c, 9, 42, 100
11, 29880, Note_on_c, 9, 82, 100
11, 29880, Note_on_c, 9, 82, 100
11, 29880, Note_on_c, 9, 69, 100
11, 29910, Note_on_c, 9, 69, 0
11, 29910, Note_on_c, 9, 82, 0
11, 29910, Note_on_c, 9, 36, 0
11, 29910, Note_on_c, 9, 42, 0
11, 29910, Note_on_c, 9, 82, 0
11, 29940, Note_on_c, 9, 42, 100
11, 29970, Note_on_c, 9, 42, 0
11, 30000, Note_on_c, 9, 42, 100
11, 30000, Note_on_c, 9, 40, 100
11, 30030, Note_on_c, 9, 40, 0
11, 30030, Note_on_c, 9, 42, 0
11, 30060, Note_on_c, 9, 36, 100
11, 30060, Note_on_c, 9, 42, 100
11, 30090, Note_on_c, 9, 42, 0
11, 30090, Note_on_c, 9, 36, 0
11, 30120, Note_on_c, 9, 42, 100
11, 30150, Note_on_c, 9, 42, 0
11, 30180, Note_on_c, 9, 42, 100
11, 30210, Note_on_c, 9, 42, 0
11, 30240, Note_on_c, 9, 36, 100
11, 30240, Note_on_c, 9, 42, 100
11, 30270, Note_on_c, 9, 42, 0
11, 30270, Note_on_c, 9, 36, 0
11, 30300, Note_on_c, 9, 42, 100
11, 30330, Note_on_c, 9, 42, 0
11, 30360, Note_on_c, 9, 42, 100
11, 30390, Note_on_c, 9, 42, 0
11, 30420, Note_on_c, 9, 42, 100
11, 30450, Note_on_c, 9, 42, 0
11, 30480, Note_on_c, 9, 42, 100
11, 30480, Note_on_c, 9, 40, 100
11, 30510, Note_on_c, 9, 40, 0
11, 30510, Note_on_c, 9, 42, 0
11, 30540, Note_on_c, 9, 42, 100
11, 30570, Note_on_c, 9, 42, 0
11, 30600, Note_on_c, 9, 42, 100
11, 30630, Note_on_c, 9, 42, 0
11, 30660, Note_on_c, 9, 42, 100
11, 30690, Note_on_c, 9, 42, 0
11, 30720, Note_on_c, 9, 42, 100
11, 30720, Note_on_c, 9, 82, 100
11, 30720, Note_on_c, 9, 82, 100
11, 30720, Note_on_c, 9, 69, 100
11, 30750, Note_on_c, 9, 69, 0
11, 30750, Note_on_c, 9, 42, 0
11, 30750, Note_on_c, 9, 82, 0
11, 30750, Note_on_c, 9, 82, 0
11, 30780, Note_on_c, 9, 42, 100
11, 30780, Note_on_c, 9, 82, 100
11, 30780, Note_on_c, 9, 82, 100
11, 30780, Note_on_c, 9, 69, 100
11, 30810, Note_on_c, 9, 69, 0
11, 30810, Note_on_c, 9, 42, 0
11, 30810, Note_on_c, 9, 82, 0
11, 30810, Note_on_c, 9, 82, 0
11, 30840, Note_on_c, 9, 36, 100
11, 30840, Note_on_c, 9, 42, 100
11, 30840, Note_on_c, 9, 82, 100
11, 30840, Note_on_c, 9, 82, 100
11, 30840, Note_on_c, 9, 69, 100
11, 30870, Note_on_c, 9, 69, 0
11, 30870, Note_on_c, 9, 82, 0
11, 30870, Note_on_c, 9, 36, 0
11, 30870, Note_on_c, 9, 42, 0
11, 30870, Note_on_c, 9, 82, 0
11, 30900, Note_on_c, 9, 42, 100
11, 30930, Note_on_c, 9, 42, 0
11, 30960, Note_on_c, 9, 42, 100
11, 30960, Note_on_c, 9, 40, 100
11, 30990, Note_on_c, 9, 40, 0
11, 30990, Note_on_c, 9, 42, 0
11, 31020, Note_on_c, 9, 36, 100
11, 31020, Note_on_c, 9, 42, 100
11, 31050, Note_on_c, 9, 42, 0
11, 31050, Note_on_c, 9, 36, 0
11, 31080, Note_on_c, 9, 42, 100
11, 31110, Note_on_c, 9, 42, 0
11, 31140, Note_on_c, 9, 42, 100
11, 31170, Note_on_c, 9, 42, 0
11, 31200, Note_on_c, 9, 36, 100
11, 31200, Note_on_c, 9, 42, 100
11, 31230, Note_on_c, 9, 42, 0
11, 31230, Note_on_c, 9, 36, 0
11, 31260, Note_on_c, 9, 42, 100
11, 31290, Note_on_c, 9, 42, 0
11, 31320, Note_on_c, 9, 42, 100
11, 31350, Note_on_c, 9, 42, 0
11, 31380, Note_on_c, 9, 42, 100
11, 31410, Note_on_c, 9, 42, 0
11, 31440, Note_on_c, 9, 42, 100
11, 31440, Note_on_c, 9, 40, 100
11, 31470, Note_on_c, 9, 40, 0
11, 31470, Note_on_c, 9, 42, 0
11, 31500, Note_on_c, 9, 42, 100
11, 31530, Note_on_c, 9, 42, 0
11, 31560, Note_on_c, 9, 42, 100
11, 31590, Note_on_c, 9, 42, 0
11, 31620, Note_on_c, 9, 42, 100
11, 31650, Note_on_c, 9, 42, 0
11, 31680, Note_on_c, 9, 42, 100
11, 31680, Note_on_c, 9, 82, 100
11, 31680, Note_on_c, 9, 82, 100
11, 31680, Note_on_c, 9, 69, 100
11, 31710, Note_on_c, 9, 69, 0
11, 31710, Note_on_c, 9, 42, 0
11, 31710, Note_on_c, 9, 82, 0
11, 31710, Note_on_c, 9, 82, 0
11, 31740, Note_on_c, 9, 42, 100
11, 31740, Note_on_c, 9, 82, 100
11, 31740, Note_on_c, 9, 82, 100
11, 31740, Note_on_c, 9, 69, 100
11, 31770, Note_on_c, 9, 69, 0
11, 31770, Note_on_c, 9, 42, 0
11, 31770, Note_on_c, 9, 82, 0
11, 31770, Note_on_c, 9, 82, 0
11, 31800, Note_on_c, 9, 36, 100
11, 31800, Note_on_c, 9, 42, 100
11, 31800, Note_on_c, 9, 82, 100
11, 31800, Note_on_c, 9, 82, 100
11, 31800, Note_on_c, 9, 69, 100
11, 31830, Note_on_c, 9, 69, 0
11, 31830, Note_on_c, 9, 82, 0
11, 31830, Note_on_c, 9, 36, 0
11, 31830, Note_on_c, 9, 42, 0
11, 31830, Note_on_c, 9, 82, 0
11, 31860, Note_on_c, 9, 42, 100
11, 31890, Note_on_c, 9, 42, 0
11, 31920, Note_on_c, 9, 42, 100
11, 31920, Note_on_c, 9, 40, 100
11, 31950, Note_on_c, 9, 40, 0
11, 31950, Note_on_c, 9, 42, 0
11, 31980, Note_on_c, 9, 36, 100
11, 31980, Note_on_c, 9, 42, 100
11, 32010, Note_on_c, 9, 42, 0
11, 32010, Note_on_c, 9, 36, 0
11, 32040, Note_on_c, 9, 42, 100
11, 32070, Note_on_c, 9, 42, 0
11, 32100, Note_on_c, 9, 42, 100
11, 32130, Note_on_c, 9, 42, 0
11, 32160, Note_on_c, 9, 36, 100
11, 32160, Note_on_c, 9, 42, 100
11, 32190, Note_on_c, 9, 42, 0
11, 32190, Note_on_c, 9, 36, 0
11, 32220, Note_on_c, 9, 42, 100
11, 32250, Note_on_c, 9, 42, 0
11, 32280, Note_on_c, 9, 42, 100
11, 32310, Note_on_c, 9, 42, 0
11, 32340, Note_on_c, 9, 42, 100
11, 32370, Note_on_c, 9, 42, 0
11, 32400, Note_on_c, 9, 42, 100
11, 32400, Note_on_c, 9, 40, 100
11, 32430, Note_on_c, 9, 40, 0
11, 32430, Note_on_c, 9, 42, 0
11, 32460, Note_on_c, 9, 42, 100
11, 32490, Note_on_c, 9, 42, 0
11, 32520, Note_on_c, 9, 42, 100
11, 32550, Note_on_c, 9, 42, 0
11, 32580, Note_on_c, 9, 42, 100
11, 32610, Note_on_c, 9, 42, 0
11, 32640, Note_on_c, 9, 42, 100
11, 32640, Note_on_c, 9, 82, 100
11, 32640, Note_on_c, 9, 82, 100
11, 32640, Note_on_c, 9, 69, 100
11, 32670, Note_on_c, 9, 69, 0
11, 32670, Note_on_c, 9, 42, 0
11, 32670, Note_on_c, 9, 82, 0
11, 32670, Note_on_c, 9, 82, 0
11, 32700, Note_on_c, 9, 42, 100
11, 32700, Note_on_c, 9, 82, 100
11, 32700, Note_on_c, 9, 82, 100
11, 32700, Note_on_c, 9, 69, 100
11, 32730, Note_on_c, 9, 69, 0
11, 32730, Note_on_c, 9, 42, 0
11, 32730, Note_on_c, 9, 82, 0
11, 32730, Note_on_c, 9, 82, 0
11, 32760, Note_on_c, 9, 36, 100
11, 32760, Note_on_c, 9, 42, 100
11, 32760, Note_on_c, 9, 82, 100
11, 32760, Note_on_c, 9, 82, 100
11, 32760, Note_on_c, 9, 69, 100
11, 32790, Note_on_c, 9, 69, 0
11, 32790, Note_on_c, 9, 82, 0
11, 32790, Note_on_c, 9, 36, 0
11, 32790, Note_on_c, 9, 42, 0
11, 32790, Note_on_c, 9, 82, 0
11, 32820, Note_on_c, 9, 42, 100
11, 32850, Note_on_c, 9, 42, 0
11, 32880, Note_on_c, 9, 42, 100
11, 32880, Note_on_c, 9, 40, 100
11, 32910, Note_on_c, 9, 40, 0
11, 32910, Note_on_c, 9, 42, 0
11, 32940, Note_on_c, 9, 36, 100
11, 32940, Note_on_c, 9, 42, 100
11, 32970, Note_on_c, 9, 42, 0
11, 32970, Note_on_c, 9, 36, 0
11, 33000, Note_on_c, 9, 42, 100
11, 33030, Note_on_c, 9, 42, 0
11, 33060, Note_on_c, 9, 42, 100
11, 33090, Note_on_c, 9, 42, 0
11, 33120, Note_on_c, 9, 36, 100
11, 33120, Note_on_c, 9, 44, 100
11, 33120, Note_on_c, 9, 36, 100
11, 33120, Note_on_c, 9, 44, 100
11, 33120, Note_on_c, 9, 36, 100
11, 33120, Note_on_c, 9, 44, 100
11, 33120, Note_on_c, 9, 36, 100
11, 33120, Note_on_c, 9, 44, 100
11, 33150, Note_on_c, 9, 44, 0
11, 33150, Note_on_c, 9, 36, 0
11, 33150, Note_on_c, 9, 36, 0
11, 33150, Note_on_c, 9, 44, 0
11, 33150, Note_on_c, 9, 36, 0
11, 33150, Note_on_c, 9, 44, 0
11, 33150, Note_on_c, 9, 44, 0
11, 33150, Note_on_c, 9, 36, 0
11, 33180, Note_on_c, 9, 36, 100
11, 33180, Note_on_c, 9, 36, 100
11, 33180, Note_on_c, 9, 36, 100
11, 33180, Note_on_c, 9, 36, 100
11, 33210, Note_on_c, 9, 36, 0
11, 33210, Note_on_c, 9, 36, 0
11, 33210, Note_on_c, 9, 36, 0
11, 33210, Note_on_c, 9, 36, 0
11, 33240, Note_on_c, 9, 36, 100
11, 33240, Note_on_c, 9, 44, 100
11, 33240, Note_on_c, 9, 34, 100
11, 33240, Note_on_c, 9, 36, 100
11, 33240, Note_on_c, 9, 44, 100
11, 33240, Note_on_c, 9, 34, 100
11, 33240, Note_on_c, 9, 36, 100
11, 33240, Note_on_c, 9, 44, 100
11, 33240, Note_on_c, 9, 40, 100
11, 33240, Note_on_c, 9, 36, 100
11, 33240, Note_on_c, 9, 44, 100
11, 33240, Note_on_c, 9, 40, 100
11, 33270, Note_on_c, 9, 40, 0
11, 33270, Note_on_c, 9, 44, 0
11, 33270, Note_on_c, 9, 44, 0
11, 33270, Note_on_c, 9, 34, 0
11, 33270, Note_on_c, 9, 36, 0
11, 33270, Note_on_c, 9, 36, 0
11, 33270, Note_on_c, 9, 44, 0
11, 33270, Note_on_c, 9, 34, 0
11, 33270, Note_on_c, 9, 40, 0
11, 33270, Note_on_c, 9, 36, 0
11, 33270, Note_on_c, 9, 44, 0
11, 33270, Note_on_c, 9, 36, 0
11, 33300, Note_on_c, 9, 36, 100
11, 33300, Note_on_c, 9, 36, 100
11, 33300, Note_on_c, 9, 36, 100
11, 33300, Note_on_c, 9, 36, 100
11, 33330, Note_on_c, 9, 36, 0
11, 33330, Note_on_c, 9, 36, 0
11, 33330, Note_on_c, 9, 36, 0
11, 33330, Note_on_c, 9, 36, 0
11, 33360, Note_on_c, 9, 36, 100
11, 33360, Note_on_c, 9, 44, 100
11, 33360, Note_on_c, 9, 36, 100
11, 33360, Note_on_c, 9, 44, 100
11, 33360, Note_on_c, 9, 36, 100
11, 33360, Note_on_c, 9, 44, 100
11, 33360, Note_on_c, 9, 36, 100
11, 33360, Note_on_c, 9, 44, 100
11, 33390, Note_on_c, 9, 44, 0
11, 33390, Note_on_c, 9, 36, 0
11, 33390, Note_on_c, 9, 36, 0
11, 33390, Note_on_c, 9, 44, 0
11, 33390, Note_on_c, 9, 36, 0
11, 33390, Note_on_c, 9, 44, 0
11, 33390, Note_on_c, 9, 44, 0
11, 33390, Note_on_c, 9, 36, 0
11, 33480, Note_on_c, 9, 36, 100
11, 33480, Note_on_c, 9, 44, 100
11, 33480, Note_on_c, 9, 34, 100
11, 33480, Note_on_c, 9, 36, 100
11, 33480, Note_on_c, 9, 44, 100
11, 33480, Note_on_c, 9, 34, 100
11, 33480, Note_on_c, 9, 36, 100
11, 33480, Note_on_c, 9, 44, 100
11, 33480, Note_on_c, 9, 40, 100
11, 33480, Note_on_c, 9, 36, 100
11, 33480, Note_on_c, 9, 44, 100
11, 33480, Note_on_c, 9, 40, 100
11, 33510, Note_on_c, 9, 40, 0
11, 33510, Note_on_c, 9, 44, 0
11, 33510, Note_on_c, 9, 44, 0
11, 33510, Note_on_c, 9, 34, 0
11, 33510, Note_on_c, 9, 36, 0
11, 33510, Note_on_c, 9, 36, 0
11, 33510, Note_on_c, 9, 44, 0
11, 33510, Note_on_c, 9, 34, 0
11, 33510, Note_on_c, 9, 40, 0
11, 33510, Note_on_c, 9, 36, 0
11, 33510, Note_on_c, 9, 44, 0
11, 33510, Note_on_c, 9, 36, 0
11, 33600, Note_on_c, 9, 36, 100
11, 33600, Note_on_c, 9, 44, 100
11, 33600, Note_on_c, 9, 36, 100
11, 33600, Note_on_c, 9, 44, 100
11, 33600, Note_on_c, 9, 36, 100
11, 33600, Note_on_c, 9, 44, 100
11, 33600, Note_on_c, 9, 36, 100
11, 33600, Note_on_c, 9, 44, 100
11, 33630, Note_on_c, 9, 44, 0
11, 33630, Note_on_c, 9, 36, 0
11, 33630, Note_on_c, 9, 36, 0
11, 33630, Note_on_c, 9, 44, 0
11, 33630, Note_on_c, 9, 36, 0
11, 33630, Note_on_c, 9, 44, 0
11, 33630, Note_on_c, 9, 44, 0
11, 33630, Note_on_c, 9, 36, 0
11, 33720, Note_on_c, 9, 36, 100
11, 33720, Note_on_c, 9, 44, 100
11, 33720, Note_on_c, 9, 36, 100
11, 33720, Note_on_c, 9, 44, 100
11, 33720, Note_on_c, 9, 36, 100
11, 33720, Note_on_c, 9, 44, 100
11, 33720, Note_on_c, 9, 36, 100
11, 33720, Note_on_c, 9, 44, 100
11, 33750, Note_on_c, 9, 44, 0
11, 33750, Note_on_c, 9, 36, 0
11, 33750, Note_on_c, 9, 36, 0
11, 33750, Note_on_c, 9, 44, 0
11, 33750, Note_on_c, 9, 36, 0
11, 33750, Note_on_c, 9, 44, 0
11, 33750, Note_on_c, 9, 44, 0
11, 33750, Note_on_c, 9, 36, 0
11, 33840, Note_on_c, 9, 36, 100
11, 33840, Note_on_c, 9, 44, 100
11, 33840, Note_on_c, 9, 36, 100
11, 33840, Note_on_c, 9, 44, 100
11, 33840, Note_on_c, 9, 36, 100
11, 33840, Note_on_c, 9, 44, 100
11, 33840, Note_on_c, 9, 36, 100
11, 33840, Note_on_c, 9, 44, 100
11, 33870, Note_on_c, 9, 44, 0
11, 33870, Note_on_c, 9, 36, 0
11, 33870, Note_on_c, 9, 36, 0
11, 33870, Note_on_c, 9, 44, 0
11, 33870, Note_on_c, 9, 36, 0
11, 33870, Note_on_c, 9, 44, 0
11, 33870, Note_on_c, 9, 44, 0
11, 33870, Note_on_c, 9, 36, 0
11, 33960, Note_on_c, 9, 36, 100
11, 33960, Note_on_c, 9, 44, 100
11, 33960, Note_on_c, 9, 34, 100
11, 33960, Note_on_c, 9, 36, 100
11, 33960, Note_on_c, 9, 44, 100
11, 33960, Note_on_c, 9, 34, 100
11, 33960, Note_on_c, 9, 36, 100
11, 33960, Note_on_c, 9, 44, 100
11, 33960, Note_on_c, 9, 40, 100
11, 33960, Note_on_c, 9, 36, 100
11, 33960, Note_on_c, 9, 44, 100
11, 33960, Note_on_c, 9, 40, 100
11, 33990, Note_on_c, 9, 40, 0
11, 33990, Note_on_c, 9, 44, 0
11, 33990, Note_on_c, 9, 44, 0
11, 33990, Note_on_c, 9, 34, 0
11, 33990, Note_on_c, 9, 36, 0
11, 33990, Note_on_c, 9, 36, 0
11, 33990, Note_on_c, 9, 44, 0
11, 33990, Note_on_c, 9, 34, 0
11, 33990, Note_on_c, 9, 40, 0
11, 33990, Note_on_c, 9, 36, 0
11, 33990, Note_on_c, 9, 44, 0
11, 33990, Note_on_c, 9, 36, 0
11, 34080, Note_on_c, 9, 36, 100
11, 34080, Note_on_c, 9, 44, 100
11, 34080, Note_on_c, 9, 82, 100
11, 34080, Note_on_c, 9, 36, 100
11, 34080, Note_on_c, 9, 44, 100
11, 34080, Note_on_c, 9, 82, 100
11, 34080, Note_on_c, 9, 36, 100
11, 34080, Note_on_c, 9, 44, 100
11, 34080, Note_on_c, 9, 82, 100
11, 34110, Note_on_c, 9, 82, 0
11, 34110, Note_on_c, 9, 36, 0
11, 34110, Note_on_c, 9, 36, 0
11, 34110, Note_on_c, 9, 44, 0
11, 34110, Note_on_c, 9, 44, 0
11, 34110, Note_on_c, 9, 82, 0
11, 34110, Note_on_c, 9, 36, 0
11, 34110, Note_on_c, 9, 82, 0
11, 34110, Note_on_c, 9, 44, 0
11, 34140, Note_on_c, 9, 36, 100
11, 34140, Note_on_c, 9, 82, 100
11, 34140, Note_on_c, 9, 36, 100
11, 34140, Note_on_c, 9, 82, 100
11, 34140, Note_on_c, 9, 36, 100
11, 34140, Note_on_c, 9, 82, 100
11, 34170, Note_on_c, 9, 82, 0
11, 34170, Note_on_c, 9, 82, 0
11, 34170, Note_on_c, 9, 36, 0
11, 34170, Note_on_c, 9, 36, 0
11, 34170, Note_on_c, 9, 36, 0
11, 34170, Note_on_c, 9, 82, 0
11, 34200, Note_on_c, 9, 36, 100
11, 34200, Note_on_c, 9, 44, 100
11, 34200, Note_on_c, 9, 40, 100
11, 34200, Note_on_c, 9, 82, 100
11, 34200, Note_on_c, 9, 36, 100
11, 34200, Note_on_c, 9, 44, 100
11, 34200, Note_on_c, 9, 34, 100
11, 34200, Note_on_c, 9, 82, 100
11, 34200, Note_on_c, 9, 36, 100
11, 34200, Note_on_c, 9, 44, 100
11, 34200, Note_on_c, 9, 34, 100
11, 34200, Note_on_c, 9, 82, 100
11, 34230, Note_on_c, 9, 82, 0
11, 34230, Note_on_c, 9, 44, 0
11, 34230, Note_on_c, 9, 82, 0
11, 34230, Note_on_c, 9, 40, 0
11, 34230, Note_on_c, 9, 82, 0
11, 34230, Note_on_c, 9, 36, 0
11, 34230, Note_on_c, 9, 36, 0
11, 34230, Note_on_c, 9, 44, 0
11, 34230, Note_on_c, 9, 36, 0
11, 34230, Note_on_c, 9, 34, 0
11, 34230, Note_on_c, 9, 34, 0
11, 34230, Note_on_c, 9, 44, 0
11, 34260, Note_on_c, 9, 36, 100
11, 34260, Note_on_c, 9, 36, 100
11, 34260, Note_on_c, 9, 36, 100
11, 34290, Note_on_c, 9, 36, 0
11, 34290, Note_on_c, 9, 36, 0
11, 34290, Note_on_c, 9, 36, 0
11, 34320, Note_on_c, 9, 36, 100
11, 34320, Note_on_c, 9, 44, 100
11, 34320, Note_on_c, 9, 82, 100
11, 34320, Note_on_c, 9, 36, 100
11, 34320, Note_on_c, 9, 44, 100
11, 34320, Note_on_c, 9, 82, 100
11, 34320, Note_on_c, 9, 36, 100
11, 34320, Note_on_c, 9, 44, 100
11, 34320, Note_on_c, 9, 82, 100
11, 34350, Note_on_c, 9, 82, 0
11, 34350, Note_on_c, 9, 36, 0
11, 34350, Note_on_c, 9, 36, 0
11, 34350, Note_on_c, 9, 44, 0
11, 34350, Note_on_c, 9, 44, 0
11, 34350, Note_on_c, 9, 82, 0
11, 34350, Note_on_c, 9, 36, 0
11, 34350, Note_on_c, 9, 82, 0
11, 34350, Note_on_c, 9, 44, 0
11, 34380, Note_on_c, 9, 82, 100
11, 34380, Note_on_c, 9, 82, 100
11, 34380, Note_on_c, 9, 82, 100
11, 34410, Note_on_c, 9, 82, 0
11, 34410, Note_on_c, 9, 82, 0
11, 34410, Note_on_c, 9, 82, 0
11, 34440, Note_on_c, 9, 36, 100
11, 34440, Note_on_c, 9, 44, 100
11, 34440, Note_on_c, 9, 40, 100
11, 34440, Note_on_c, 9, 82, 100
11, 34440, Note_on_c, 9, 36, 100
11, 34440, Note_on_c, 9, 44, 100
11, 34440, Note_on_c, 9, 34, 100
11, 34440, Note_on_c, 9, 82, 100
11, 34440, Note_on_c, 9, 36, 100
11, 34440, Note_on_c, 9, 44, 100
11, 34440, Note_on_c, 9, 34, 100
11, 34440, Note_on_c, 9, 82, 100
11, 34470, Note_on_c, 9, 82, 0
11, 34470, Note_on_c, 9, 44, 0
11, 34470, Note_on_c, 9, 82, 0
11, 34470, Note_on_c, 9, 40, 0
11, 34470, Note_on_c, 9, 82, 0
11, 34470, Note_on_c, 9, 36, 0
11, 34470, Note_on_c, 9, 36, 0
11, 34470, Note_on_c, 9, 44, 0
11, 34470, Note_on_c, 9, 36, 0
11, 34470, Note_on_c, 9, 34, 0
11, 34470, Note_on_c, 9, 34, 0
11, 34470, Note_on_c, 9, 44, 0
11, 34560, Note_on_c, 9, 36, 100
11, 34560, Note_on_c, 9, 44, 100
11, 34560, Note_on_c, 9, 82, 100
11, 34560, Note_on_c, 9, 36, 100
11, 34560, Note_on_c, 9, 44, 100
11, 34560, Note_on_c, 9, 82, 100
11, 34560, Note_on_c, 9, 36, 100
11, 34560, Note_on_c, 9, 44, 100
11, 34560, Note_on_c, 9, 82, 100
11, 34590, Note_on_c, 9, 82, 0
11, 34590, Note_on_c, 9, 36, 0
11, 34590, Note_on_c, 9, 36, 0
11, 34590, Note_on_c, 9, 44, 0
11, 34590, Note_on_c, 9, 44, 0
11, 34590, Note_on_c, 9, 82, 0
11, 34590, Note_on_c, 9, 36, 0
11, 34590, Note_on_c, 9, 82, 0
11, 34590, Note_on_c, 9, 44, 0
11, 34620, Note_on_c, 9, 82, 100
11, 34620, Note_on_c, 9, 82, 100
11, 34620, Note_on_c, 9, 82, 100
11, 34650, Note_on_c, 9, 82, 0
11, 34650, Note_on_c, 9, 82, 0
11, 34650, Note_on_c, 9, 82, 0
11, 34680, Note_on_c, 9, 36, 100
11, 34680, Note_on_c, 9, 44, 100
11, 34680, Note_on_c, 9, 82, 100
11, 34680, Note_on_c, 9, 36, 100
11, 34680, Note_on_c, 9, 44, 100
11, 34680, Note_on_c, 9, 82, 100
11, 34680, Note_on_c, 9, 36, 100
11, 34680, Note_on_c, 9, 44, 100
11, 34680, Note_on_c, 9, 82, 100
11, 34710, Note_on_c, 9, 82, 0
11, 34710, Note_on_c, 9, 36, 0
11, 34710, Note_on_c, 9, 36, 0
11, 34710, Note_on_c, 9, 44, 0
11, 34710, Note_on_c, 9, 44, 0
11, 34710, Note_on_c, 9, 82, 0
11, 34710, Note_on_c, 9, 36, 0
11, 34710, Note_on_c, 9, 82, 0
11, 34710, Note_on_c, 9, 44, 0
11, 34740, Note_on_c, 9, 82, 100
11, 34740, Note_on_c, 9, 82, 100
11, 34740, Note_on_c, 9, 82, 100
11, 34770, Note_on_c, 9, 82, 0
11, 34770, Note_on_c, 9, 82, 0
11, 34770, Note_on_c, 9, 82, 0
11, 34800, Note_on_c, 9, 36, 100
11, 34800, Note_on_c, 9, 44, 100
11, 34800, Note_on_c, 9, 82, 100
11, 34800, Note_on_c, 9, 36, 100
11, 34800, Note_on_c, 9, 44, 100
11, 34800, Note_on_c, 9, 82, 100
11, 34800, Note_on_c, 9, 36, 100
11, 34800, Note_on_c, 9, 44, 100
11, 34800, Note_on_c, 9, 82, 100
11, 34830, Note_on_c, 9, 82, 0
11, 34830, Note_on_c, 9, 36, 0
11, 34830, Note_on_c, 9, 36, 0
11, 34830, Note_on_c, 9, 44, 0
11, 34830, Note_on_c, 9, 44, 0
11, 34830, Note_on_c, 9, 82, 0
11, 34830, Note_on_c, 9, 36, 0
11, 34830, Note_on_c, 9, 82, 0
11, 34830, Note_on_c, 9, 44, 0
11, 34860, Note_on_c, 9, 82, 100
11, 34860, Note_on_c, 9, 82, 100
11, 34860, Note_on_c, 9, 82, 100
11, 34890, Note_on_c, 9, 82, 0
11, 34890, Note_on_c, 9, 82, 0
11, 34890, Note_on_c, 9, 82, 0
11, 34920, Note_on_c, 9, 36, 100
11, 34920, Note_on_c, 9, 44, 100
11, 34920, Note_on_c, 9, 40, 100
11, 34920, Note_on_c, 9, 82, 100
11, 34920, Note_on_c, 9, 36, 100
11, 34920, Note_on_c, 9, 44, 100
11, 34920, Note_on_c, 9, 34, 100
11, 34920, Note_on_c, 9, 82, 100
11, 34920, Note_on_c, 9, 36, 100
11, 34920, Note_on_c, 9, 44, 100
11, 34920, Note_on_c, 9, 34, 100
11, 34920, Note_on_c, 9, 82, 100
11, 34950, Note_on_c, 9, 82, 0
11, 34950, Note_on_c, 9, 44, 0
11, 34950, Note_on_c, 9, 82, 0
11, 34950, Note_on_c, 9, 40, 0
11, 34950, Note_on_c, 9, 82, 0
11, 34950, Note_on_c, 9, 36, 0
11, 34950, Note_on_c, 9, 36, 0
11, 34950, Note_on_c, 9, 44, 0
11, 34950, Note_on_c, 9, 36, 0
11, 34950, Note_on_c, 9, 34, 0
11, 34950, Note_on_c, 9, 34, 0
11, 34950, Note_on_c, 9, 44, 0
11, 34980, Note_on_c, 9, 82, 100
11, 34980, Note_on_c, 9, 82, 100
11, 34980, Note_on_c, 9, 82, 100
11, 35010, Note_on_c, 9, 82, 0
11, 35010, Note_on_c, 9, 82, 0
11, 35010, Note_on_c, 9, 82, 0
11, 35040, Note_on_c, 9, 35, 100
11, 35040, Note_on_c, 9, 54, 100
11, 35040, Note_on_c, 9, 69, 100
11, 35070, Note_on_c, 9, 69, 0
11, 35070, Note_on_c, 9, 54, 0
11, 35070, Note_on_c, 9, 35, 0
11, 35070, Note_on_c, 9, 69, 100
11, 35100, Note_on_c, 9, 69, 0
11, 35160, Note_on_c, 9, 54, 100
11, 35160, Note_on_c, 9, 69, 100
11, 35190, Note_on_c, 9, 69, 0
11, 35190, Note_on_c, 9, 54, 0
11, 35280, Note_on_c, 9, 40, 100
11, 35280, Note_on_c, 9, 69, 100
11, 35310, Note_on_c, 9, 69, 0
11, 35310, Note_on_c, 9, 40, 0
11, 35400, Note_on_c, 9, 69, 100
11, 35430, Note_on_c, 9, 69, 0
11, 35520, Note_on_c, 9, 54, 100
11, 35520, Note_on_c, 9, 82, 100
11, 35520, Note_on_c, 9, 69, 100
11, 35550, Note_on_c, 9, 69, 0
11, 35550, Note_on_c, 9, 82, 0
11, 35550, Note_on_c, 9, 54, 0
11, 35580, Note_on_c, 9, 54, 100
11, 35580, Note_on_c, 9, 82, 100
11, 35610, Note_on_c, 9, 82, 0
11, 35610, Note_on_c, 9, 54, 0
11, 35640, Note_on_c, 9, 35, 100
11, 35640, Note_on_c, 9, 54, 100
11, 35640, Note_on_c, 9, 82, 100
11, 35640, Note_on_c, 9, 69, 100
11, 35670, Note_on_c, 9, 69, 0
11, 35670, Note_on_c, 9, 35, 0
11, 35670, Note_on_c, 9, 54, 0
11, 35670, Note_on_c, 9, 82, 0
11, 35760, Note_on_c, 9, 40, 100
11, 35760, Note_on_c, 9, 69, 100
11, 35790, Note_on_c, 9, 69, 0
11, 35790, Note_on_c, 9, 40, 0
11, 35820, Note_on_c, 9, 35, 100
11, 35850, Note_on_c, 9, 35, 0
11, 35880, Note_on_c, 9, 54, 100
11, 35880, Note_on_c, 9, 69, 100
11, 35910, Note_on_c, 9, 69, 0
11, 35910, Note_on_c, 9, 54, 0
11, 36000, Note_on_c, 9, 36, 100
11, 36000, Note_on_c, 9, 54, 100
11, 36000, Note_on_c, 9, 54, 100
11, 36000, Note_on_c, 9, 69, 100
11, 36030, Note_on_c, 9, 69, 0
11, 36030, Note_on_c, 9, 36, 0
11, 36030, Note_on_c, 9, 54, 0
11, 36030, Note_on_c, 9, 54, 0
11, 36120, Note_on_c, 9, 54, 100
11, 36120, Note_on_c, 9, 54, 100
11, 36120, Note_on_c, 9, 69, 100
11, 36150, Note_on_c, 9, 69, 0
11, 36150, Note_on_c, 9, 54, 0
11, 36150, Note_on_c, 9, 54, 0
11, 36240, Note_on_c, 9, 38, 100
11, 36240, Note_on_c, 9, 69, 100
11, 36270, Note_on_c, 9, 69, 0
11, 36270, Note_on_c, 9, 38, 0
11, 36360, Note_on_c, 9, 69, 100
11, 36390, Note_on_c, 9, 69, 0
11, 36480, Note_on_c, 9, 54, 100
11, 36480, Note_on_c, 9, 54, 100
11, 36480, Note_on_c, 9, 82, 100
11, 36480, Note_on_c, 9, 69, 100
11, 36510, Note_on_c, 9, 69, 0
11, 36510, Note_on_c, 9, 54, 0
11, 36510, Note_on_c, 9, 54, 0
11, 36510, Note_on_c, 9, 82, 0
11, 36540, Note_on_c, 9, 54, 100
11, 36540, Note_on_c, 9, 54, 100
11, 36540, Note_on_c, 9, 82, 100
11, 36570, Note_on_c, 9, 82, 0
11, 36570, Note_on_c, 9, 54, 0
11, 36570, Note_on_c, 9, 54, 0
11, 36600, Note_on_c, 9, 36, 100
11, 36600, Note_on_c, 9, 54, 100
11, 36600, Note_on_c, 9, 54, 100
11, 36600, Note_on_c, 9, 82, 100
11, 36600, Note_on_c, 9, 69, 100
11, 36630, Note_on_c, 9, 69, 0
11, 36630, Note_on_c, 9, 54, 0
11, 36630, Note_on_c, 9, 36, 0
11, 36630, Note_on_c, 9, 54, 0
11, 36630, Note_on_c, 9, 82, 0
11, 36660, Note_on_c, 9, 35, 100
11, 36690, Note_on_c, 9, 35, 0
11, 36720, Note_on_c, 9, 38, 100
11, 36720, Note_on_c, 9, 69, 100
11, 36750, Note_on_c, 9, 69, 0
11, 36750, Note_on_c, 9, 38, 0
11, 36780, Note_on_c, 9, 36, 100
11, 36810, Note_on_c, 9, 36, 0
11, 36840, Note_on_c, 9, 35, 100
11, 36840, Note_on_c, 9, 54, 100
11, 36840, Note_on_c, 9, 54, 100
11, 36840, Note_on_c, 9, 69, 100
11, 36870, Note_on_c, 9, 69, 0
11, 36870, Note_on_c, 9, 35, 0
11, 36870, Note_on_c, 9, 54, 0
11, 36870, Note_on_c, 9, 54, 0
11, 36960, Note_on_c, 9, 35, 100
11, 36960, Note_on_c, 9, 54, 100
11, 36960, Note_on_c, 9, 69, 100
11, 36990, Note_on_c, 9, 69, 0
11, 36990, Note_on_c, 9, 54, 0
11, 36990, Note_on_c, 9, 35, 0
11, 36990, Note_on_c, 9, 69, 100
11, 37020, Note_on_c, 9, 69, 0
11, 37080, Note_on_c, 9, 54, 100
11, 37080, Note_on_c, 9, 69, 100
11, 37110, Note_on_c, 9, 69, 0
11, 37110, Note_on_c, 9, 54, 0
11, 37200, Note_on_c, 9, 40, 100
11, 37200, Note_on_c, 9, 69, 100
11, 37230, Note_on_c, 9, 69, 0
11, 37230, Note_on_c, 9, 40, 0
11, 37320, Note_on_c, 9, 69, 100
11, 37350, Note_on_c, 9, 69, 0
11, 37440, Note_on_c, 9, 54, 100
11, 37440, Note_on_c, 9, 82, 100
11, 37440, Note_on_c, 9, 69, 100
11, 37470, Note_on_c, 9, 69, 0
11, 37470, Note_on_c, 9, 82, 0
11, 37470, Note_on_c, 9, 54, 0
11, 37500, Note_on_c, 9, 54, 100
11, 37500, Note_on_c, 9, 82, 100
11, 37530, Note_on_c, 9, 82, 0
11, 37530, Note_on_c, 9, 54, 0
11, 37560, Note_on_c, 9, 35, 100
11, 37560, Note_on_c, 9, 54, 100
11, 37560, Note_on_c, 9, 82, 100
11, 37560, Note_on_c, 9, 69, 100
11, 37590, Note_on_c, 9, 69, 0
11, 37590, Note_on_c, 9, 35, 0
11, 37590, Note_on_c, 9, 54, 0
11, 37590, Note_on_c, 9, 82, 0
11, 37680, Note_on_c, 9, 40, 100
11, 37680, Note_on_c, 9, 69, 100
11, 37710, Note_on_c, 9, 69, 0
11, 37710, Note_on_c, 9, 40, 0
11, 37740, Note_on_c, 9, 35, 100
11, 37770, Note_on_c, 9, 35, 0
11, 37800, Note_on_c, 9, 54, 100
11, 37800, Note_on_c, 9, 69, 100
11, 37830, Note_on_c, 9, 69, 0
11, 37830, Note_on_c, 9, 54, 0
11, 37920, Note_on_c, 9, 36, 100
11, 37920, Note_on_c, 9, 54, 100
11, 37920, Note_on_c, 9, 69, 100
11, 37950, Note_on_c, 9, 69, 0
11, 37950, Note_on_c, 9, 54, 0
11, 37950, Note_on_c, 9, 36, 0
11, 38040, Note_on_c, 9, 54, 100
11, 38040, Note_on_c, 9, 69, 100
11, 38070, Note_on_c, 9, 69, 0
11, 38070, Note_on_c, 9, 54, 0
11, 38160, Note_on_c, 9, 38, 100
11, 38160, Note_on_c, 9, 69, 100
11, 38190, Note_on_c, 9, 69, 0
11, 38190, Note_on_c, 9, 38, 0
11, 38280, Note_on_c, 9, 69, 100
11, 38310, Note_on_c, 9, 69, 0
11, 38400, Note_on_c, 9, 54, 100
11, 38400, Note_on_c, 9, 38, 100
11, 38400, Note_on_c, 9, 82, 100
11, 38400, Note_on_c, 9, 82, 100
11, 38400, Note_on_c, 9, 69, 100
11, 38400, Note_on_c, 9, 69, 100
11, 38430, Note_on_c, 9, 69, 0
11, 38430, Note_on_c, 9, 38, 0
11, 38430, Note_on_c, 9, 82, 0
11, 38430, Note_on_c, 9, 54, 0
11, 38430, Note_on_c, 9, 69, 0
11, 38430, Note_on_c, 9, 82, 0
11, 38460, Note_on_c, 9, 54, 100
11, 38460, Note_on_c, 9, 38, 100
11, 38460, Note_on_c, 9, 82, 100
11, 38460, Note_on_c, 9, 82, 100
11, 38460, Note_on_c, 9, 69, 100
11, 38490, Note_on_c, 9, 69, 0
11, 38490, Note_on_c, 9, 82, 0
11, 38490, Note_on_c, 9, 54, 0
11, 38490, Note_on_c, 9, 38, 0
11, 38490, Note_on_c, 9, 82, 0
11, 38520, Note_on_c, 9, 36, 100
11, 38520, Note_on_c, 9, 54, 100
11, 38520, Note_on_c, 9, 82, 100
11, 38520, Note_on_c, 9, 82, 100
11, 38520, Note_on_c, 9, 69, 100
11, 38520, Note_on_c, 9, 69, 100
11, 38550, Note_on_c, 9, 69, 0
11, 38550, Note_on_c, 9, 54, 0
11, 38550, Note_on_c, 9, 82, 0
11, 38550, Note_on_c, 9, 36, 0
11, 38550, Note_on_c, 9, 69, 0
11, 38550, Note_on_c, 9, 82, 0
11, 38580, Note_on_c, 9, 35, 100
11, 38610, Note_on_c, 9, 35, 0
11, 38640, Note_on_c, 9, 38, 100
11, 38640, Note_on_c, 9, 69, 100
11, 38670, Note_on_c, 9, 69, 0
11, 38670, Note_on_c, 9, 38, 0
11, 38700, Note_on_c, 9, 36, 100
11, 38700, Note_on_c, 9, 38, 100
11, 38730, Note_on_c, 9, 38, 0
11, 38730, Note_on_c, 9, 36, 0
11, 38760, Note_on_c, 9, 35, 100
11, 38760, Note_on_c, 9, 54, 100
11, 38760, Note_on_c, 9, 69, 100
11, 38790, Note_on_c, 9, 69, 0
11, 38790, Note_on_c, 9, 54, 0
11, 38790, Note_on_c, 9, 35, 0
11, 38880, Note_on_c, 9, 35, 100
11, 38880, Note_on_c, 9, 54, 100
11, 38880, Note_on_c, 9, 69, 100
11, 38910, Note_on_c, 9, 69, 0
11, 38910, Note_on_c, 9, 54, 0
11, 38910, Note_on_c, 9, 35, 0
11, 38910, Note_on_c, 9, 69, 100
11, 38940, Note_on_c, 9, 69, 0
11, 39000, Note_on_c, 9, 54, 100
11, 39000, Note_on_c, 9, 69, 100
11, 39030, Note_on_c, 9, 69, 0
11, 39030, Note_on_c, 9, 54, 0
11, 39120, Note_on_c, 9, 40, 100
11, 39120, Note_on_c, 9, 69, 100
11, 39150, Note_on_c, 9, 69, 0
11, 39150, Note_on_c, 9, 40, 0
11, 39240, Note_on_c, 9, 69, 100
11, 39270, Note_on_c, 9, 69, 0
11, 39360, Note_on_c, 9, 54, 100
11, 39360, Note_on_c, 9, 82, 100
11, 39360, Note_on_c, 9, 69, 100
11, 39390, Note_on_c, 9, 69, 0
11, 39390, Note_on_c, 9, 82, 0
11, 39390, Note_on_c, 9, 54, 0
11, 39420, Note_on_c, 9, 54, 100
11, 39420, Note_on_c, 9, 82, 100
11, 39450, Note_on_c, 9, 82, 0
11, 39450, Note_on_c, 9, 54, 0
11, 39480, Note_on_c, 9, 35, 100
11, 39480, Note_on_c, 9, 54, 100
11, 39480, Note_on_c, 9, 82, 100
11, 39480, Note_on_c, 9, 69, 100
11, 39510, Note_on_c, 9, 69, 0
11, 39510, Note_on_c, 9, 35, 0
11, 39510, Note_on_c, 9, 54, 0
11, 39510, Note_on_c, 9, 82, 0
11, 39600, Note_on_c, 9, 40, 100
11, 39600, Note_on_c, 9, 69, 100
11, 39630, Note_on_c, 9, 69, 0
11, 39630, Note_on_c, 9, 40, 0
11, 39660, Note_on_c, 9, 35, 100
11, 39690, Note_on_c, 9, 35, 0
11, 39720, Note_on_c, 9, 54, 100
11, 39720, Note_on_c, 9, 69, 100
11, 39750, Note_on_c, 9, 69, 0
11, 39750, Note_on_c, 9, 54, 0
11, 39840, Note_on_c, 9, 36, 100
11, 39840, Note_on_c, 9, 54, 100
11, 39840, Note_on_c, 9, 54, 100
11, 39840, Note_on_c, 9, 69, 100
11, 39870, Note_on_c, 9, 69, 0
11, 39870, Note_on_c, 9, 36, 0
11, 39870, Note_on_c, 9, 54, 0
11, 39870, Note_on_c, 9, 54, 0
11, 39960, Note_on_c, 9, 54, 100
11, 39960, Note_on_c, 9, 54, 100
11, 39960, Note_on_c, 9, 69, 100
11, 39990, Note_on_c, 9, 69, 0
11, 39990, Note_on_c, 9, 54, 0
11, 39990, Note_on_c, 9, 54, 0
11, 40080, Note_on_c, 9, 38, 100
11, 40080, Note_on_c, 9, 69, 100
11, 40110, Note_on_c, 9, 69, 0
11, 40110, Note_on_c, 9, 38, 0
11, 40200, Note_on_c, 9, 69, 100
11, 40230, Note_on_c, 9, 69, 0
11, 40320, Note_on_c, 9, 54, 100
11, 40320, Note_on_c, 9, 54, 100
11, 40320, Note_on_c, 9, 82, 100
11, 40320, Note_on_c, 9, 69, 100
11, 40350, Note_on_c, 9, 69, 0
11, 40350, Note_on_c, 9, 54, 0
11, 40350, Note_on_c, 9, 54, 0
11, 40350, Note_on_c, 9, 82, 0
11, 40380, Note_on_c, 9, 54, 100
11, 40380, Note_on_c, 9, 54, 100
11, 40380, Note_on_c, 9, 82, 100
11, 40410, Note_on_c, 9, 82, 0
11, 40410, Note_on_c, 9, 54, 0
11, 40410, Note_on_c, 9, 54, 0
11, 40440, Note_on_c, 9, 36, 100
11, 40440, Note_on_c, 9, 54, 100
11, 40440, Note_on_c, 9, 54, 100
11, 40440, Note_on_c, 9, 82, 100
11, 40440, Note_on_c, 9, 69, 100
11, 40470, Note_on_c, 9, 69, 0
11, 40470, Note_on_c, 9, 54, 0
11, 40470, Note_on_c, 9, 36, 0
11, 40470, Note_on_c, 9, 54, 0
11, 40470, Note_on_c, 9, 82, 0
11, 40500, Note_on_c, 9, 35, 100
11, 40530, Note_on_c, 9, 35, 0
11, 40560, Note_on_c, 9, 38, 100
11, 40560, Note_on_c, 9, 69, 100
11, 40590, Note_on_c, 9, 69, 0
11, 40590, Note_on_c, 9, 38, 0
11, 40620, Note_on_c, 9, 36, 100
11, 40650, Note_on_c, 9, 36, 0
11, 40680, Note_on_c, 9, 35, 100
11, 40680, Note_on_c, 9, 54, 100
11, 40680, Note_on_c, 9, 54, 100
11, 40680, Note_on_c, 9, 69, 100
11, 40710, Note_on_c, 9, 69, 0
11, 40710, Note_on_c, 9, 35, 0
11, 40710, Note_on_c, 9, 54, 0
11, 40710, Note_on_c, 9, 54, 0
11, 40800, Note_on_c, 9, 35, 100
11, 40800, Note_on_c, 9, 54, 100
11, 40800, Note_on_c, 9, 69, 100
11, 40830, Note_on_c, 9, 69, 0
11, 40830, Note_on_c, 9, 54, 0
11, 40830, Note_on_c, 9, 35, 0
11, 40830, Note_on_c, 9, 69, 100
11, 40860, Note_on_c, 9, 69, 0
11, 40920, Note_on_c, 9, 54, 100
11, 40920, Note_on_c, 9, 69, 100
11, 40950, Note_on_c, 9, 69, 0
11, 40950, Note_on_c, 9, 54, 0
11, 41040, Note_on_c, 9, 40, 100
11, 41040, Note_on_c, 9, 69, 100
11, 41070, Note_on_c, 9, 69, 0
11, 41070, Note_on_c, 9, 40, 0
11, 41160, Note_on_c, 9, 69, 100
11, 41190, Note_on_c, 9, 69, 0
11, 41280, Note_on_c, 9, 54, 100
11, 41280, Note_on_c, 9, 82, 100
11, 41280, Note_on_c, 9, 69, 100
11, 41310, Note_on_c, 9, 69, 0
11, 41310, Note_on_c, 9, 82, 0
11, 41310, Note_on_c, 9, 54, 0
11, 41340, Note_on_c, 9, 54, 100
11, 41340, Note_on_c, 9, 82, 100
11, 41370, Note_on_c, 9, 82, 0
11, 41370, Note_on_c, 9, 54, 0
11, 41400, Note_on_c, 9, 35, 100
11, 41400, Note_on_c, 9, 54, 100
11, 41400, Note_on_c, 9, 82, 100
11, 41400, Note_on_c, 9, 69, 100
11, 41430, Note_on_c, 9, 69, 0
11, 41430, Note_on_c, 9, 35, 0
11, 41430, Note_on_c, 9, 54, 0
11, 41430, Note_on_c, 9, 82, 0
11, 41520, Note_on_c, 9, 40, 100
11, 41520, Note_on_c, 9, 69, 100
11, 41550, Note_on_c, 9, 69, 0
11, 41550, Note_on_c, 9, 40, 0
11, 41580, Note_on_c, 9, 35, 100
11, 41610, Note_on_c, 9, 35, 0
11, 41640, Note_on_c, 9, 54, 100
11, 41640, Note_on_c, 9, 69, 100
11, 41670, Note_on_c, 9, 69, 0
11, 41670, Note_on_c, 9, 54, 0
11, 41760, Note_on_c, 9, 36, 100
11, 41760, Note_on_c, 9, 54, 100
11, 41760, Note_on_c, 9, 69, 100
11, 41790, Note_on_c, 9, 69, 0
11, 41790, Note_on_c, 9, 54, 0
11, 41790, Note_on_c, 9, 36, 0
11, 41880, Note_on_c, 9, 54, 100
11, 41880, Note_on_c, 9, 69, 100
11, 41910, Note_on_c, 9, 69, 0
11, 41910, Note_on_c, 9, 54, 0
11, 42000, Note_on_c, 9, 38, 100
11, 42000, Note_on_c, 9, 69, 100
11, 42030, Note_on_c, 9, 69, 0
11, 42030, Note_on_c, 9, 38, 0
11, 42120, Note_on_c, 9, 69, 100
11, 42150, Note_on_c, 9, 69, 0
11, 42240, Note_on_c, 9, 54, 100
11, 42240, Note_on_c, 9, 38, 100
11, 42240, Note_on_c, 9, 82, 100
11, 42240, Note_on_c, 9, 82, 100
11, 42240, Note_on_c, 9, 69, 100
11, 42240, Note_on_c, 9, 69, 100
11, 42270, Note_on_c, 9, 69, 0
11, 42270, Note_on_c, 9, 38, 0
11, 42270, Note_on_c, 9, 82, 0
11, 42270, Note_on_c, 9, 54, 0
11, 42270, Note_on_c, 9, 69, 0
11, 42270, Note_on_c, 9, 82, 0
11, 42300, Note_on_c, 9, 54, 100
11, 42300, Note_on_c, 9, 38, 100
11, 42300, Note_on_c, 9, 82, 100
11, 42300, Note_on_c, 9, 82, 100
11, 42300, Note_on_c, 9, 69, 100
11, 42330, Note_on_c, 9, 69, 0
11, 42330, Note_on_c, 9, 82, 0
11, 42330, Note_on_c, 9, 54, 0
11, 42330, Note_on_c, 9, 38, 0
11, 42330, Note_on_c, 9, 82, 0
11, 42360, Note_on_c, 9, 36, 100
11, 42360, Note_on_c, 9, 54, 100
11, 42360, Note_on_c, 9, 82, 100
11, 42360, Note_on_c, 9, 82, 100
11, 42360, Note_on_c, 9, 69, 100
11, 42360, Note_on_c, 9, 69, 100
11, 42390, Note_on_c, 9, 69, 0
11, 42390, Note_on_c, 9, 54, 0
11, 42390, Note_on_c, 9, 82, 0
11, 42390, Note_on_c, 9, 36, 0
11, 42390, Note_on_c, 9, 69, 0
11, 42390, Note_on_c, 9, 82, 0
11, 42420, Note_on_c, 9, 35, 100
11, 42450, Note_on_c, 9, 35, 0
11, 42480, Note_on_c, 9, 38, 100
11, 42480, Note_on_c, 9, 69, 100
11, 42510, Note_on_c, 9, 69, 0
11, 42510, Note_on_c, 9, 38, 0
11, 42540, Note_on_c, 9, 36, 100
11, 42540, Note_on_c, 9, 38, 100
11, 42570, Note_on_c, 9, 38, 0
11, 42570, Note_on_c, 9, 36, 0
11, 42600, Note_on_c, 9, 35, 100
11, 42600, Note_on_c, 9, 54, 100
11, 42600, Note_on_c, 9, 69, 100
11, 42630, Note_on_c, 9, 69, 0
11, 42630, Note_on_c, 9, 54, 0
11, 42630, Note_on_c, 9, 35, 0
11, 42720, Note_on_c, 9, 35, 100
11, 42720, Note_on_c, 9, 54, 100
11, 42720, Note_on_c, 9, 69, 100
11, 42750, Note_on_c, 9, 69, 0
11, 42750, Note_on_c, 9, 54, 0
11, 42750, Note_on_c, 9, 35, 0
11, 42750, Note_on_c, 9, 69, 100
11, 42780, Note_on_c, 9, 69, 0
11, 42840, Note_on_c, 9, 54, 100
11, 42840, Note_on_c, 9, 69, 100
11, 42870, Note_on_c, 9, 69, 0
11, 42870, Note_on_c, 9, 54, 0
11, 42960, Note_on_c, 9, 40, 100
11, 42960, Note_on_c, 9, 69, 100
11, 42990, Note_on_c, 9, 69, 0
11, 42990, Note_on_c, 9, 40, 0
11, 43080, Note_on_c, 9, 69, 100
11, 43110, Note_on_c, 9, 69, 0
11, 43200, Note_on_c, 9, 54, 100
11, 43200, Note_on_c, 9, 82, 100
11, 43200, Note_on_c, 9, 69, 100
11, 43230, Note_on_c, 9, 69, 0
11, 43230, Note_on_c, 9, 82, 0
11, 43230, Note_on_c, 9, 54, 0
11, 43260, Note_on_c, 9, 54, 100
11, 43260, Note_on_c, 9, 82, 100
11, 43290, Note_on_c, 9, 82, 0
11, 43290, Note_on_c, 9, 54, 0
11, 43320, Note_on_c, 9, 35, 100
11, 43320, Note_on_c, 9, 54, 100
11, 43320, Note_on_c, 9, 82, 100
11, 43320, Note_on_c, 9, 69, 100
11, 43350, Note_on_c, 9, 69, 0
11, 43350, Note_on_c, 9, 35, 0
11, 43350, Note_on_c, 9, 54, 0
11, 43350, Note_on_c, 9, 82, 0
11, 43440, Note_on_c, 9, 40, 100
11, 43440, Note_on_c, 9, 69, 100
11, 43470, Note_on_c, 9, 69, 0
11, 43470, Note_on_c, 9, 40, 0
11, 43500, Note_on_c, 9, 35, 100
11, 43530, Note_on_c, 9, 35, 0
11, 43560, Note_on_c, 9, 54, 100
11, 43560, Note_on_c, 9, 69, 100
11, 43590, Note_on_c, 9, 69, 0
11, 43590, Note_on_c, 9, 54, 0
11, 43680, Note_on_c, 9, 36, 100
11, 43680, Note_on_c, 9, 54, 100
11, 43680, Note_on_c, 9, 54, 100
11, 43680, Note_on_c, 9, 69, 100
11, 43710, Note_on_c, 9, 69, 0
11, 43710, Note_on_c, 9, 36, 0
11, 43710, Note_on_c, 9, 54, 0
11, 43710, Note_on_c, 9, 54, 0
11, 43800, Note_on_c, 9, 54, 100
11, 43800, Note_on_c, 9, 54, 100
11, 43800, Note_on_c, 9, 69, 100
11, 43830, Note_on_c, 9, 69, 0
11, 43830, Note_on_c, 9, 54, 0
11, 43830, Note_on_c, 9, 54, 0
11, 43920, Note_on_c, 9, 38, 100
11, 43920, Note_on_c, 9, 69, 100
11, 43950, Note_on_c, 9, 69, 0
11, 43950, Note_on_c, 9, 38, 0
11, 44040, Note_on_c, 9, 69, 100
11, 44070, Note_on_c, 9, 69, 0
11, 44160, Note_on_c, 9, 54, 100
11, 44160, Note_on_c, 9, 54, 100
11, 44160, Note_on_c, 9, 82, 100
11, 44160, Note_on_c, 9, 69, 100
11, 44190, Note_on_c, 9, 69, 0
11, 44190, Note_on_c, 9, 54, 0
11, 44190, Note_on_c, 9, 54, 0
11, 44190, Note_on_c, 9, 82, 0
11, 44220, Note_on_c, 9, 54, 100
11, 44220, Note_on_c, 9, 54, 100
11, 44220, Note_on_c, 9, 82, 100
11, 44250, Note_on_c, 9, 82, 0
11, 44250, Note_on_c, 9, 54, 0
11, 44250, Note_on_c, 9, 54, 0
11, 44280, Note_on_c, 9, 36, 100
11, 44280, Note_on_c, 9, 54, 100
11, 44280, Note_on_c, 9, 54, 100
11, 44280, Note_on_c, 9, 82, 100
11, 44280, Note_on_c, 9, 69, 100
11, 44310, Note_on_c, 9, 69, 0
11, 44310, Note_on_c, 9, 54, 0
11, 44310, Note_on_c, 9, 36, 0
11, 44310, Note_on_c, 9, 54, 0
11, 44310, Note_on_c, 9, 82, 0
11, 44340, Note_on_c, 9, 35, 100
11, 44370, Note_on_c, 9, 35, 0
11, 44400, Note_on_c, 9, 38, 100
11, 44400, Note_on_c, 9, 69, 100
11, 44430, Note_on_c, 9, 69, 0
11, 44430, Note_on_c, 9, 38, 0
11, 44460, Note_on_c, 9, 36, 100
11, 44490, Note_on_c, 9, 36, 0
11, 44520, Note_on_c, 9, 35, 100
11, 44520, Note_on_c, 9, 54, 100
11, 44520, Note_on_c, 9, 54, 100
11, 44520, Note_on_c, 9, 69, 100
11, 44550, Note_on_c, 9, 69, 0
11, 44550, Note_on_c, 9, 35, 0
11, 44550, Note_on_c, 9, 54, 0
11, 44550, Note_on_c, 9, 54, 0
11, 44640, Note_on_c, 9, 35, 100
11, 44640, Note_on_c, 9, 54, 100
11, 44640, Note_on_c, 9, 69, 100
11, 44670, Note_on_c, 9, 69, 0
11, 44670, Note_on_c, 9, 54, 0
11, 44670, Note_on_c, 9, 35, 0
11, 44670, Note_on_c, 9, 69, 100
11, 44700, Note_on_c, 9, 69, 0
11, 44760, Note_on_c, 9, 54, 100
11, 44760, Note_on_c, 9, 69, 100
11, 44790, Note_on_c, 9, 69, 0
11, 44790, Note_on_c, 9, 54, 0
11, 44880, Note_on_c, 9, 40, 100
11, 44880, Note_on_c, 9, 69, 100
11, 44910, Note_on_c, 9, 69, 0
11, 44910, Note_on_c, 9, 40, 0
11, 45000, Note_on_c, 9, 69, 100
11, 45030, Note_on_c, 9, 69, 0
11, 45120, Note_on_c, 9, 54, 100
11, 45120, Note_on_c, 9, 82, 100
11, 45120, Note_on_c, 9, 69, 100
11, 45150, Note_on_c, 9, 69, 0
11, 45150, Note_on_c, 9, 82, 0
11, 45150, Note_on_c, 9, 54, 0
11, 45180, Note_on_c, 9, 54, 100
11, 45180, Note_on_c, 9, 82, 100
11, 45210, Note_on_c, 9, 82, 0
11, 45210, Note_on_c, 9, 54, 0
11, 45240, Note_on_c, 9, 35, 100
11, 45240, Note_on_c, 9, 54, 100
11, 45240, Note_on_c, 9, 82, 100
11, 45240, Note_on_c, 9, 69, 100
11, 45270, Note_on_c, 9, 69, 0
11, 45270, Note_on_c, 9, 35, 0
11, 45270, Note_on_c, 9, 54, 0
11, 45270, Note_on_c, 9, 82, 0
11, 45360, Note_on_c, 9, 40, 100
11, 45360, Note_on_c, 9, 69, 100
11, 45390, Note_on_c, 9, 69, 0
11, 45390, Note_on_c, 9, 40, 0
11, 45420, Note_on_c, 9, 35, 100
11, 45450, Note_on_c, 9, 35, 0
11, 45480, Note_on_c, 9, 54, 100
11, 45480, Note_on_c, 9, 69, 100
11, 45510, Note_on_c, 9, 69, 0
11, 45510, Note_on_c, 9, 54, 0
11, 45600, Note_on_c, 9, 36, 100
11, 45600, Note_on_c, 9, 54, 100
11, 45600, Note_on_c, 9, 69, 100
11, 45630, Note_on_c, 9, 69, 0
11, 45630, Note_on_c, 9, 54, 0
11, 45630, Note_on_c, 9, 36, 0
11, 45720, Note_on_c, 9, 54, 100
11, 45720, Note_on_c, 9, 69, 100
11, 45750, Note_on_c, 9, 69, 0
11, 45750, Note_on_c, 9, 54, 0
11, 45840, Note_on_c, 9, 38, 100
11, 45840, Note_on_c, 9, 69, 100
11, 45870, Note_on_c, 9, 69, 0
11, 45870, Note_on_c, 9, 38, 0
11, 45960, Note_on_c, 9, 69, 100
11, 45990, Note_on_c, 9, 69, 0
11, 46080, Note_on_c, 9, 54, 100
11, 46080, Note_on_c, 9, 38, 100
11, 46080, Note_on_c, 9, 82, 100
11, 46080, Note_on_c, 9, 82, 100
11, 46080, Note_on_c, 9, 69, 100
11, 46080, Note_on_c, 9, 69, 100
11, 46110, Note_on_c, 9, 69, 0
11, 46110, Note_on_c, 9, 38, 0
11, 46110, Note_on_c, 9, 82, 0
11, 46110, Note_on_c, 9, 54, 0
11, 46110, Note_on_c, 9, 69, 0
11, 46110, Note_on_c, 9, 82, 0
11, 46140, Note_on_c, 9, 54, 100
11, 46140, Note_on_c, 9, 38, 100
11, 46140, Note_on_c, 9, 82, 100
11, 46140, Note_on_c, 9, 82, 100
11, 46140, Note_on_c, 9, 69, 100
11, 46170, Note_on_c, 9, 69, 0
11, 46170, Note_on_c, 9, 82, 0
11, 46170, Note_on_c, 9, 54, 0
11, 46170, Note_on_c, 9, 38, 0
11, 46170, Note_on_c, 9, 82, 0
11, 46200, Note_on_c, 9, 36, 100
11, 46200, Note_on_c, 9, 54, 100
11, 46200, Note_on_c, 9, 82, 100
11, 46200, Note_on_c, 9, 82, 100
11, 46200, Note_on_c, 9, 69, 100
11, 46200, Note_on_c, 9, 69, 100
11, 46230, Note_on_c, 9, 69, 0
11, 46230, Note_on_c, 9, 54, 0
11, 46230, Note_on_c, 9, 82, 0
11, 46230, Note_on_c, 9, 36, 0
11, 46230, Note_on_c, 9, 69, 0
11, 46230, Note_on_c, 9, 82, 0
11, 46260, Note_on_c, 9, 35, 100
11, 46290, Note_on_c, 9, 35, 0
11, 46320, Note_on_c, 9, 38, 100
11, 46320, Note_on_c, 9, 69, 100
11, 46350, Note_on_c, 9, 69, 0
11, 46350, Note_on_c, 9, 38, 0
11, 46380, Note_on_c, 9, 36, 100
11, 46380, Note_on_c, 9, 38, 100
11, 46410, Note_on_c, 9, 38, 0
11, 46410, Note_on_c, 9, 36, 0
11, 46440, Note_on_c, 9, 35, 100
11, 46440, Note_on_c, 9, 54, 100
11, 46440, Note_on_c, 9, 69, 100
11, 46470, Note_on_c, 9, 69, 0
11, 46470, Note_on_c, 9, 54, 0
11, 46470, Note_on_c, 9, 35, 0
11, 46565, Note_on_c, 9, 36, 100
11, 46565, Note_on_c, 9, 44, 100
11, 46565, Note_on_c, 9, 36, 100
11, 46565, Note_on_c, 9, 44, 100
11, 46565, Note_on_c, 9, 36, 100
11, 46565, Note_on_c, 9, 44, 100
11, 46595, Note_on_c, 9, 44, 0
11, 46595, Note_on_c, 9, 44, 0
11, 46595, Note_on_c, 9, 36, 0
11, 46595, Note_on_c, 9, 36, 0
11, 46595, Note_on_c, 9, 36, 0
11, 46595, Note_on_c, 9, 44, 0
11, 46625, Note_on_c, 9, 36, 100
11, 46625, Note_on_c, 9, 36, 100
11, 46625, Note_on_c, 9, 36, 100
11, 46655, Note_on_c, 9, 36, 0
11, 46655, Note_on_c, 9, 36, 0
11, 46655, Note_on_c, 9, 36, 0
11, 46685, Note_on_c, 9, 36, 100
11, 46685, Note_on_c, 9, 44, 100
11, 46685, Note_on_c, 9, 34, 100
11, 46685, Note_on_c, 9, 36, 100
11, 46685, Note_on_c, 9, 44, 100
11, 46685, Note_on_c, 9, 40, 100
11, 46685, Note_on_c, 9, 36, 100
11, 46685, Note_on_c, 9, 44, 100
11, 46685, Note_on_c, 9, 40, 100
11, 46715, Note_on_c, 9, 40, 0
11, 46715, Note_on_c, 9, 36, 0
11, 46715, Note_on_c, 9, 36, 0
11, 46715, Note_on_c, 9, 44, 0
11, 46715, Note_on_c, 9, 44, 0
11, 46715, Note_on_c, 9, 34, 0
11, 46715, Note_on_c, 9, 36, 0
11, 46715, Note_on_c, 9, 40, 0
11, 46715, Note_on_c, 9, 44, 0
11, 46745, Note_on_c, 9, 36, 100
11, 46745, Note_on_c, 9, 36, 100
11, 46745, Note_on_c, 9, 36, 100
11, 46775, Note_on_c, 9, 36, 0
11, 46775, Note_on_c, 9, 36, 0
11, 46775, Note_on_c, 9, 36, 0
11, 46805, Note_on_c, 9, 36, 100
11, 46805, Note_on_c, 9, 44, 100
11, 46805, Note_on_c, 9, 36, 100
11, 46805, Note_on_c, 9, 44, 100
11, 46805, Note_on_c, 9, 36, 100
11, 46805, Note_on_c, 9, 44, 100
11, 46835, Note_on_c, 9, 44, 0
11, 46835, Note_on_c, 9, 44, 0
11, 46835, Note_on_c, 9, 36, 0
11, 46835, Note_on_c, 9, 36, 0
11, 46835, Note_on_c, 9, 36, 0
11, 46835, Note_on_c, 9, 44, 0
11, 46925, Note_on_c, 9, 36, 100
11, 46925, Note_on_c, 9, 44, 100
11, 46925, Note_on_c, 9, 34, 100
11, 46925, Note_on_c, 9, 36, 100
11, 46925, Note_on_c, 9, 44, 100
11, 46925, Note_on_c, 9, 40, 100
11, 46925, Note_on_c, 9, 36, 100
11, 46925, Note_on_c, 9, 44, 100
11, 46925, Note_on_c, 9, 40, 100
11, 46955, Note_on_c, 9, 40, 0
11, 46955, Note_on_c, 9, 36, 0
11, 46955, Note_on_c, 9, 36, 0
11, 46955, Note_on_c, 9, 44, 0
11, 46955, Note_on_c, 9, 44, 0
11, 46955, Note_on_c, 9, 34, 0
11, 46955, Note_on_c, 9, 36, 0
11, 46955, Note_on_c, 9, 40, 0
11, 46955, Note_on_c, 9, 44, 0
11, 47045, Note_on_c, 9, 36, 100
11, 47045, Note_on_c, 9, 44, 100
11, 47045, Note_on_c, 9, 36, 100
11, 47045, Note_on_c, 9, 44, 100
11, 47045, Note_on_c, 9, 36, 100
11, 47045, Note_on_c, 9, 44, 100
11, 47075, Note_on_c, 9, 44, 0
11, 47075, Note_on_c, 9, 44, 0
11, 47075, Note_on_c, 9, 36, 0
11, 47075, Note_on_c, 9, 36, 0
11, 47075, Note_on_c, 9, 36, 0
11, 47075, Note_on_c, 9, 44, 0
11, 47165, Note_on_c, 9, 36, 100
11, 47165, Note_on_c, 9, 44, 100
11, 47165, Note_on_c, 9, 36, 100
11, 47165, Note_on_c, 9, 44, 100
11, 47165, Note_on_c, 9, 36, 100
11, 47165, Note_on_c, 9, 44, 100
11, 47195, Note_on_c, 9, 44, 0
11, 47195, Note_on_c, 9, 44, 0
11, 47195, Note_on_c, 9, 36, 0
11, 47195, Note_on_c, 9, 36, 0
11, 47195, Note_on_c, 9, 36, 0
11, 47195, Note_on_c, 9, 44, 0
11, 47285, Note_on_c, 9, 36, 100
11, 47285, Note_on_c, 9, 44, 100
11, 47285, Note_on_c, 9, 36, 100
11, 47285, Note_on_c, 9, 44, 100
11, 47285, Note_on_c, 9, 36, 100
11, 47285, Note_on_c, 9, 44, 100
11, 47315, Note_on_c, 9, 44, 0
11, 47315, Note_on_c, 9, 44, 0
11, 47315, Note_on_c, 9, 36, 0
11, 47315, Note_on_c, 9, 36, 0
11, 47315, Note_on_c, 9, 36, 0
11, 47315, Note_on_c, 9, 44, 0
11, 47405, Note_on_c, 9, 36, 100
11, 47405, Note_on_c, 9, 44, 100
11, 47405, Note_on_c, 9, 34, 100
11, 47405, Note_on_c, 9, 36, 100
11, 47405, Note_on_c, 9, 44, 100
11, 47405, Note_on_c, 9, 40, 100
11, 47405, Note_on_c, 9, 36, 100
11, 47405, Note_on_c, 9, 44, 100
11, 47405, Note_on_c, 9, 40, 100
11, 47435, Note_on_c, 9, 40, 0
11, 47435, Note_on_c, 9, 36, 0
11, 47435, Note_on_c, 9, 36, 0
11, 47435, Note_on_c, 9, 44, 0
11, 47435, Note_on_c, 9, 44, 0
11, 47435, Note_on_c, 9, 34, 0
11, 47435, Note_on_c, 9, 36, 0
11, 47435, Note_on_c, 9, 40, 0
11, 47435, Note_on_c, 9, 44, 0
11, 47525, Note_on_c, 9, 36, 100
11, 47525, Note_on_c, 9, 44, 100
11, 47525, Note_on_c, 9, 82, 100
11, 47525, Note_on_c, 9, 36, 100
11, 47525, Note_on_c, 9, 44, 100
11, 47525, Note_on_c, 9, 82, 100
11, 47555, Note_on_c, 9, 82, 0
11, 47555, Note_on_c, 9, 44, 0
11, 47555, Note_on_c, 9, 82, 0
11, 47555, Note_on_c, 9, 36, 0
11, 47555, Note_on_c, 9, 44, 0
11, 47555, Note_on_c, 9, 36, 0
11, 47585, Note_on_c, 9, 36, 100
11, 47585, Note_on_c, 9, 82, 100
11, 47585, Note_on_c, 9, 36, 100
11, 47585, Note_on_c, 9, 82, 100
11, 47615, Note_on_c, 9, 82, 0
11, 47615, Note_on_c, 9, 36, 0
11, 47615, Note_on_c, 9, 82, 0
11, 47615, Note_on_c, 9, 36, 0
11, 47645, Note_on_c, 9, 36, 100
11, 47645, Note_on_c, 9, 44, 100
11, 47645, Note_on_c, 9, 34, 100
11, 47645, Note_on_c, 9, 82, 100
11, 47645, Note_on_c, 9, 36, 100
11, 47645, Note_on_c, 9, 44, 100
11, 47645, Note_on_c, 9, 40, 100
11, 47645, Note_on_c, 9, 82, 100
11, 47675, Note_on_c, 9, 82, 0
11, 47675, Note_on_c, 9, 36, 0
11, 47675, Note_on_c, 9, 36, 0
11, 47675, Note_on_c, 9, 44, 0
11, 47675, Note_on_c, 9, 34, 0
11, 47675, Note_on_c, 9, 82, 0
11, 47675, Note_on_c, 9, 44, 0
11, 47675, Note_on_c, 9, 40, 0
11, 47705, Note_on_c, 9, 36, 100
11, 47705, Note_on_c, 9, 36, 100
11, 47735, Note_on_c, 9, 36, 0
11, 47735, Note_on_c, 9, 36, 0
11, 47765, Note_on_c, 9, 36, 100
11, 47765, Note_on_c, 9, 44, 100
11, 47765, Note_on_c, 9, 82, 100
11, 47765, Note_on_c, 9, 36, 100
11, 47765, Note_on_c, 9, 44, 100
11, 47765, Note_on_c, 9, 82, 100
11, 47795, Note_on_c, 9, 82, 0
11, 47795, Note_on_c, 9, 44, 0
11, 47795, Note_on_c, 9, 82, 0
11, 47795, Note_on_c, 9, 36, 0
11, 47795, Note_on_c, 9, 44, 0
11, 47795, Note_on_c, 9, 36, 0
11, 47825, Note_on_c, 9, 82, 100
11, 47825, Note_on_c, 9, 82, 100
11, 47855, Note_on_c, 9, 82, 0
11, 47855, Note_on_c, 9, 82, 0
11, 47885, Note_on_c, 9, 36, 100
11, 47885, Note_on_c, 9, 44, 100
11, 47885, Note_on_c, 9, 34, 100
11, 47885, Note_on_c, 9, 82, 100
11, 47885, Note_on_c, 9, 36, 100
11, 47885, Note_on_c, 9, 44, 100
11, 47885, Note_on_c, 9, 40, 100
11, 47885, Note_on_c, 9, 82, 100
11, 47915, Note_on_c, 9, 82, 0
11, 47915, Note_on_c, 9, 36, 0
11, 47915, Note_on_c, 9, 36, 0
11, 47915, Note_on_c, 9, 44, 0
11, 47915, Note_on_c, 9, 34, 0
11, 47915, Note_on_c, 9, 82, 0
11, 47915, Note_on_c, 9, 44, 0
11, 47915, Note_on_c, 9, 40, 0
11, 48005, Note_on_c, 9, 36, 100
11, 48005, Note_on_c, 9, 44, 100
11, 48005, Note_on_c, 9, 82, 100
11, 48005, Note_on_c, 9, 36, 100
11, 48005, Note_on_c, 9, 44, 100
11, 48005, Note_on_c, 9, 82, 100
11, 48035, Note_on_c, 9, 82, 0
11, 48035, Note_on_c, 9, 44, 0
11, 48035, Note_on_c, 9, 82, 0
11, 48035, Note_on_c, 9, 36, 0
11, 48035, Note_on_c, 9, 44, 0
11, 48035, Note_on_c, 9, 36, 0
11, 48065, Note_on_c, 9, 82, 100
11, 48065, Note_on_c, 9, 82, 100
11, 48095, Note_on_c, 9, 82, 0
11, 48095, Note_on_c, 9, 82, 0
11, 48125, Note_on_c, 9, 36, 100
11, 48125, Note_on_c, 9, 44, 100
11, 48125, Note_on_c, 9, 82, 100
11, 48125, Note_on_c, 9, 36, 100
11, 48125, Note_on_c, 9, 44, 100
11, 48125, Note_on_c, 9, 82, 100
11, 48155, Note_on_c, 9, 82, 0
11, 48155, Note_on_c, 9, 44, 0
11, 48155, Note_on_c, 9, 82, 0
11, 48155, Note_on_c, 9, 36, 0
11, 48155, Note_on_c, 9, 44, 0
11, 48155, Note_on_c, 9, 36, 0
11, 48185, Note_on_c, 9, 82, 100
11, 48185, Note_on_c, 9, 82, 100
11, 48215, Note_on_c, 9, 82, 0
11, 48215, Note_on_c, 9, 82, 0
11, 48245, Note_on_c, 9, 36, 100
11, 48245, Note_on_c, 9, 44, 100
11, 48245, Note_on_c, 9, 82, 100
11, 48245, Note_on_c, 9, 36, 100
11, 48245, Note_on_c, 9, 44, 100
11, 48245, Note_on_c, 9, 82, 100
11, 48275, Note_on_c, 9, 82, 0
11, 48275, Note_on_c, 9, 44, 0
11, 48275, Note_on_c, 9, 82, 0
11, 48275, Note_on_c, 9, 36, 0
11, 48275, Note_on_c, 9, 44, 0
11, 48275, Note_on_c, 9, 36, 0
11, 48305, Note_on_c, 9, 82, 100
11, 48305, Note_on_c, 9, 82, 100
11, 48335, Note_on_c, 9, 82, 0
11, 48335, Note_on_c, 9, 82, 0
11, 48365, Note_on_c, 9, 36, 100
11, 48365, Note_on_c, 9, 44, 100
11, 48365, Note_on_c, 9, 34, 100
11, 48365, Note_on_c, 9, 82, 100
11, 48365, Note_on_c, 9, 36, 100
11, 48365, Note_on_c, 9, 44, 100
11, 48365, Note_on_c, 9, 40, 100
11, 48365, Note_on_c, 9, 82, 100
11, 48395, Note_on_c, 9, 82, 0
11, 48395, Note_on_c, 9, 36, 0
11, 48395, Note_on_c, 9, 36, 0
11, 48395, Note_on_c, 9, 44, 0
11, 48395, Note_on_c, 9, 34, 0
11, 48395, Note_on_c, 9, 82, 0
11, 48395, Note_on_c, 9, 44, 0
11, 48395, Note_on_c, 9, 40, 0
11, 48425, Note_on_c, 9, 82, 100
11, 48425, Note_on_c, 9, 82, 100
11, 48455, Note_on_c, 9, 82, 0
11, 48455, Note_on_c, 9, 82, 0
11, 48485, Note_on_c, 9, 36, 100
11, 48485, Note_on_c, 9, 42, 100
11, 48515, Note_on_c, 9, 42, 0
11, 48515, Note_on_c, 9, 36, 0
11, 48545, Note_on_c, 9, 42, 100
11, 48575, Note_on_c, 9, 42, 0
11, 48605, Note_on_c, 9, 42, 100
11, 48635, Note_on_c, 9, 42, 0
11, 48665, Note_on_c, 9, 42, 100
11, 48695, Note_on_c, 9, 42, 0
11, 48725, Note_on_c, 9, 42, 100
11, 48725, Note_on_c, 9, 40, 100
11, 48755, Note_on_c, 9, 40, 0
11, 48755, Note_on_c, 9, 42, 0
11, 48785, Note_on_c, 9, 42, 100
11, 48815, Note_on_c, 9, 42, 0
11, 48845, Note_on_c, 9, 42, 100
11, 48875, Note_on_c, 9, 42, 0
11, 48905, Note_on_c, 9, 42, 100
11, 48935, Note_on_c, 9, 42, 0
11, 48965, Note_on_c, 9, 42, 100
11, 48965, Note_on_c, 9, 82, 100
11, 48965, Note_on_c, 9, 82, 100
11, 48965, Note_on_c, 9, 69, 100
11, 48995, Note_on_c, 9, 69, 0
11, 48995, Note_on_c, 9, 42, 0
11, 48995, Note_on_c, 9, 82, 0
11, 48995, Note_on_c, 9, 82, 0
11, 49025, Note_on_c, 9, 42, 100
11, 49025, Note_on_c, 9, 82, 100
11, 49025, Note_on_c, 9, 82, 100
11, 49025, Note_on_c, 9, 69, 100
11, 49055, Note_on_c, 9, 69, 0
11, 49055, Note_on_c, 9, 42, 0
11, 49055, Note_on_c, 9, 82, 0
11, 49055, Note_on_c, 9, 82, 0
11, 49085, Note_on_c, 9, 36, 100
11, 49085, Note_on_c, 9, 42, 100
11, 49085, Note_on_c, 9, 82, 100
11, 49085, Note_on_c, 9, 82, 100
11, 49085, Note_on_c, 9, 69, 100
11, 49115, Note_on_c, 9, 69, 0
11, 49115, Note_on_c, 9, 82, 0
11, 49115, Note_on_c, 9, 36, 0
11, 49115, Note_on_c, 9, 42, 0
11, 49115, Note_on_c, 9, 82, 0
11, 49145, Note_on_c, 9, 42, 100
11, 49175, Note_on_c, 9, 42, 0
11, 49205, Note_on_c, 9, 42, 100
11, 49205, Note_on_c, 9, 40, 100
11, 49235, Note_on_c, 9, 40, 0
11, 49235, Note_on_c, 9, 42, 0
11, 49265, Note_on_c, 9, 36, 100
11, 49265, Note_on_c, 9, 42, 100
11, 49295, Note_on_c, 9, 42, 0
11, 49295, Note_on_c, 9, 36, 0
11, 49325, Note_on_c, 9, 42, 100
11, 49355, Note_on_c, 9, 42, 0
11, 49385, Note_on_c, 9, 42, 100
11, 49415, Note_on_c, 9, 42, 0
11, 49445, Note_on_c, 9, 36, 100
11, 49445, Note_on_c, 9, 42, 100
11, 49475, Note_on_c, 9, 42, 0
11, 49475, Note_on_c, 9, 36, 0
11, 49505, Note_on_c, 9, 42, 100
11, 49535, Note_on_c, 9, 42, 0
11, 49565, Note_on_c, 9, 42, 100
11, 49595, Note_on_c, 9, 42, 0
11, 49625, Note_on_c, 9, 42, 100
11, 49655, Note_on_c, 9, 42, 0
11, 49685, Note_on_c, 9, 42, 100
11, 49685, Note_on_c, 9, 40, 100
11, 49715, Note_on_c, 9, 40, 0
11, 49715, Note_on_c, 9, 42, 0
11, 49745, Note_on_c, 9, 42, 100
11, 49775, Note_on_c, 9, 42, 0
11, 49805, Note_on_c, 9, 42, 100
11, 49835, Note_on_c, 9, 42, 0
11, 49865, Note_on_c, 9, 42, 100
11, 49895, Note_on_c, 9, 42, 0
11, 49925, Note_on_c, 9, 42, 100
11, 49925, Note_on_c, 9, 82, 100
11, 49925, Note_on_c, 9, 82, 100
11, 49925, Note_on_c, 9, 69, 100
11, 49955, Note_on_c, 9, 69, 0
11, 49955, Note_on_c, 9, 42, 0
11, 49955, Note_on_c, 9, 82, 0
11, 49955, Note_on_c, 9, 82, 0
11, 49985, Note_on_c, 9, 42, 100
11, 49985, Note_on_c, 9, 82, 100
11, 49985, Note_on_c, 9, 82, 100
11, 49985, Note_on_c, 9, 69, 100
11, 50015, Note_on_c, 9, 69, 0
11, 50015, Note_on_c, 9, 42, 0
11, 50015, Note_on_c, 9, 82, 0
11, 50015, Note_on_c, 9, 82, 0
11, 50045, Note_on_c, 9, 36, 100
11, 50045, Note_on_c, 9, 42, 100
11, 50045, Note_on_c, 9, 82, 100
11, 50045, Note_on_c, 9, 82, 100
11, 50045, Note_on_c, 9, 69, 100
11, 50075, Note_on_c, 9, 69, 0
11, 50075, Note_on_c, 9, 82, 0
11, 50075, Note_on_c, 9, 36, 0
11, 50075, Note_on_c, 9, 42, 0
11, 50075, Note_on_c, 9, 82, 0
11, 50105, Note_on_c, 9, 42, 100
11, 50135, Note_on_c, 9, 42, 0
11, 50165, Note_on_c, 9, 42, 100
11, 50165, Note_on_c, 9, 40, 100
11, 50195, Note_on_c, 9, 40, 0
11, 50195, Note_on_c, 9, 42, 0
11, 50225, Note_on_c, 9, 36, 100
11, 50225, Note_on_c, 9, 42, 100
11, 50255, Note_on_c, 9, 42, 0
11, 50255, Note_on_c, 9, 36, 0
11, 50285, Note_on_c, 9, 42, 100
11, 50315, Note_on_c, 9, 42, 0
11, 50345, Note_on_c, 9, 42, 100
11, 50375, Note_on_c, 9, 42, 0
11, 50405, Note_on_c, 9, 36, 100
11, 50405, Note_on_c, 9, 42, 100
11, 50435, Note_on_c, 9, 42, 0
11, 50435, Note_on_c, 9, 36, 0
11, 50465, Note_on_c, 9, 42, 100
11, 50495, Note_on_c, 9, 42, 0
11, 50525, Note_on_c, 9, 42, 100
11, 50555, Note_on_c, 9, 42, 0
11, 50585, Note_on_c, 9, 42, 100
11, 50615, Note_on_c, 9, 42, 0
11, 50645, Note_on_c, 9, 42, 100
11, 50645, Note_on_c, 9, 40, 100
11, 50675, Note_on_c, 9, 40, 0
11, 50675, Note_on_c, 9, 42, 0
11, 50705, Note_on_c, 9, 42, 100
11, 50735, Note_on_c, 9, 42, 0
11, 50765, Note_on_c, 9, 42, 100
11, 50795, Note_on_c, 9, 42, 0
11, 50825, Note_on_c, 9, 42, 100
11, 50855, Note_on_c, 9, 42, 0
11, 50885, Note_on_c, 9, 42, 100
11, 50885, Note_on_c, 9, 82, 100
11, 50885, Note_on_c, 9, 82, 100
11, 50885, Note_on_c, 9, 69, 100
11, 50915, Note_on_c, 9, 69, 0
11, 50915, Note_on_c, 9, 42, 0
11, 50915, Note_on_c, 9, 82, 0
11, 50915, Note_on_c, 9, 82, 0
11, 50945, Note_on_c, 9, 42, 100
11, 50945, Note_on_c, 9, 82, 100
11, 50945, Note_on_c, 9, 82, 100
11, 50945, Note_on_c, 9, 69, 100
11, 50975, Note_on_c, 9, 69, 0
11, 50975, Note_on_c, 9, 42, 0
11, 50975, Note_on_c, 9, 82, 0
11, 50975, Note_on_c, 9, 82, 0
11, 51005, Note_on_c, 9, 36, 100
11, 51005, Note_on_c, 9, 42, 100
11, 51005, Note_on_c, 9, 82, 100
11, 51005, Note_on_c, 9, 82, 100
11, 51005, Note_on_c, 9, 69, 100
11, 51035, Note_on_c, 9, 69, 0
11, 51035, Note_on_c, 9, 82, 0
11, 51035, Note_on_c, 9, 36, 0
11, 51035, Note_on_c, 9, 42, 0
11, 51035, Note_on_c, 9, 82, 0
11, 51065, Note_on_c, 9, 42, 100
11, 51095, Note_on_c, 9, 42, 0
11, 51125, Note_on_c, 9, 42, 100
11, 51125, Note_on_c, 9, 40, 100
11, 51155, Note_on_c, 9, 40, 0
11, 51155, Note_on_c, 9, 42, 0
11, 51185, Note_on_c, 9, 36, 100
11, 51185, Note_on_c, 9, 42, 100
11, 51215, Note_on_c, 9, 42, 0
11, 51215, Note_on_c, 9, 36, 0
11, 51245, Note_on_c, 9, 42, 100
11, 51275, Note_on_c, 9, 42, 0
11, 51305, Note_on_c, 9, 42, 100
11, 51335, Note_on_c, 9, 42, 0
11, 51365, Note_on_c, 9, 36, 100
11, 51365, Note_on_c, 9, 42, 100
11, 51395, Note_on_c, 9, 42, 0
11, 51395, Note_on_c, 9, 36, 0
11, 51425, Note_on_c, 9, 42, 100
11, 51455, Note_on_c, 9, 42, 0
11, 51485, Note_on_c, 9, 42, 100
11, 51515, Note_on_c, 9, 42, 0
11, 51545, Note_on_c, 9, 42, 100
11, 51575, Note_on_c, 9, 42, 0
11, 51605, Note_on_c, 9, 42, 100
11, 51605, Note_on_c, 9, 40, 100
11, 51635, Note_on_c, 9, 40, 0
11, 51635, Note_on_c, 9, 42, 0
11, 51665, Note_on_c, 9, 42, 100
11, 51695, Note_on_c, 9, 42, 0
11, 51725, Note_on_c, 9, 42, 100
11, 51755, Note_on_c, 9, 42, 0
11, 51785, Note_on_c, 9, 42, 100
11, 51815, Note_on_c, 9, 42, 0
11, 51845, Note_on_c, 9, 42, 100
11, 51845, Note_on_c, 9, 82, 100
11, 51845, Note_on_c, 9, 82, 100
11, 51845, Note_on_c, 9, 69, 100
11, 51875, Note_on_c, 9, 69, 0
11, 51875, Note_on_c, 9, 42, 0
11, 51875, Note_on_c, 9, 82, 0
11, 51875, Note_on_c, 9, 82, 0
11, 51905, Note_on_c, 9, 42, 100
11, 51905, Note_on_c, 9, 82, 100
11, 51905, Note_on_c, 9, 82, 100
11, 51905, Note_on_c, 9, 69, 100
11, 51935, Note_on_c, 9, 69, 0
11, 51935, Note_on_c, 9, 42, 0
11, 51935, Note_on_c, 9, 82, 0
11, 51935, Note_on_c, 9, 82, 0
11, 51965, Note_on_c, 9, 36, 100
11, 51965, Note_on_c, 9, 42, 100
11, 51965, Note_on_c, 9, 82, 100
11, 51965, Note_on_c, 9, 82, 100
11, 51965, Note_on_c, 9, 69, 100
11, 51995, Note_on_c, 9, 69, 0
11, 51995, Note_on_c, 9, 82, 0
11, 51995, Note_on_c, 9, 36, 0
11, 51995, Note_on_c, 9, 42, 0
11, 51995, Note_on_c, 9, 82, 0
11, 52025, Note_on_c, 9, 42, 100
11, 52055, Note_on_c, 9, 42, 0
11, 52085, Note_on_c, 9, 42, 100
11, 52085, Note_on_c, 9, 40, 100
11, 52115, Note_on_c, 9, 40, 0
11, 52115, Note_on_c, 9, 42, 0
11, 52145, Note_on_c, 9, 36, 100
11, 52145, Note_on_c, 9, 42, 100
11, 52175, Note_on_c, 9, 42, 0
11, 52175, Note_on_c, 9, 36, 0
11, 52205, Note_on_c, 9, 42, 100
11, 52235, Note_on_c, 9, 42, 0
11, 52265, Note_on_c, 9, 42, 100
11, 52295, Note_on_c, 9, 42, 0
11, 52320, Note_on_c, 9, 36, 100
11, 52320, Note_on_c, 9, 42, 100
11, 52350, Note_on_c, 9, 42, 0
11, 52350, Note_on_c, 9, 36, 0
11, 52380, Note_on_c, 9, 42, 100
11, 52410, Note_on_c, 9, 42, 0
11, 52440, Note_on_c, 9, 42, 100
11, 52470, Note_on_c, 9, 42, 0
11, 52500, Note_on_c, 9, 42, 100
11, 52530, Note_on_c, 9, 42, 0
11, 52560, Note_on_c, 9, 42, 100
11, 52560, Note_on_c, 9, 40, 100
11, 52590, Note_on_c, 9, 40, 0
11, 52590, Note_on_c, 9, 42, 0
11, 52620, Note_on_c, 9, 42, 100
11, 52650, Note_on_c, 9, 42, 0
11, 52680, Note_on_c, 9, 42, 100
11, 52710, Note_on_c, 9, 42, 0
11, 52740, Note_on_c, 9, 42, 100
11, 52770, Note_on_c, 9, 42, 0
11, 52800, Note_on_c, 9, 42, 100
11, 52800, Note_on_c, 9, 82, 100
11, 52800, Note_on_c, 9, 82, 100
11, 52800, Note_on_c, 9, 69, 100
11, 52830, Note_on_c, 9, 69, 0
11, 52830, Note_on_c, 9, 42, 0
11, 52830, Note_on_c, 9, 82, 0
11, 52830, Note_on_c, 9, 82, 0
11, 52860, Note_on_c, 9, 42, 100
11, 52860, Note_on_c, 9, 82, 100
11, 52860, Note_on_c, 9, 82, 100
11, 52860, Note_on_c, 9, 69, 100
11, 52890, Note_on_c, 9, 69, 0
11, 52890, Note_on_c, 9, 42, 0
11, 52890, Note_on_c, 9, 82, 0
11, 52890, Note_on_c, 9, 82, 0
11, 52920, Note_on_c, 9, 36, 100
11, 52920, Note_on_c, 9, 42, 100
11, 52920, Note_on_c, 9, 82, 100
11, 52920, Note_on_c, 9, 82, 100
11, 52920, Note_on_c, 9, 69, 100
11, 52950, Note_on_c, 9, 69, 0
11, 52950, Note_on_c, 9, 82, 0
11, 52950, Note_on_c, 9, 36, 0
11, 52950, Note_on_c, 9, 42, 0
11, 52950, Note_on_c, 9, 82, 0
11, 52980, Note_on_c, 9, 42, 100
11, 53010, Note_on_c, 9, 42, 0
11, 53040, Note_on_c, 9, 42, 100
11, 53040, Note_on_c, 9, 40, 100
11, 53070, Note_on_c, 9, 40, 0
11, 53070, Note_on_c, 9, 42, 0
11, 53100, Note_on_c, 9, 36, 100
11, 53100, Note_on_c, 9, 42, 100
11, 53130, Note_on_c, 9, 42, 0
11, 53130, Note_on_c, 9, 36, 0
11, 53160, Note_on_c, 9, 42, 100
11, 53190, Note_on_c, 9, 42, 0
11, 53220, Note_on_c, 9, 42, 100
11, 53250, Note_on_c, 9, 42, 0
11, 53280, Note_on_c, 9, 36, 100
11, 53280, Note_on_c, 9, 42, 100
11, 53310, Note_on_c, 9, 42, 0
11, 53310, Note_on_c, 9, 36, 0
11, 53340, Note_on_c, 9, 42, 100
11, 53370, Note_on_c, 9, 42, 0
11, 53400, Note_on_c, 9, 42, 100
11, 53430, Note_on_c, 9, 42, 0
11, 53460, Note_on_c, 9, 42, 100
11, 53490, Note_on_c, 9, 42, 0
11, 53520, Note_on_c, 9, 42, 100
11, 53520, Note_on_c, 9, 40, 100
11, 53550, Note_on_c, 9, 40, 0
11, 53550, Note_on_c, 9, 42, 0
11, 53580, Note_on_c, 9, 42, 100
11, 53610, Note_on_c, 9, 42, 0
11, 53640, Note_on_c, 9, 42, 100
11, 53670, Note_on_c, 9, 42, 0
11, 53700, Note_on_c, 9, 42, 100
11, 53730, Note_on_c, 9, 42, 0
11, 53760, Note_on_c, 9, 42, 100
11, 53760, Note_on_c, 9, 82, 100
11, 53760, Note_on_c, 9, 82, 100
11, 53760, Note_on_c, 9, 69, 100
11, 53790, Note_on_c, 9, 69, 0
11, 53790, Note_on_c, 9, 42, 0
11, 53790, Note_on_c, 9, 82, 0
11, 53790, Note_on_c, 9, 82, 0
11, 53820, Note_on_c, 9, 42, 100
11, 53820, Note_on_c, 9, 82, 100
11, 53820, Note_on_c, 9, 82, 100
11, 53820, Note_on_c, 9, 69, 100
11, 53850, Note_on_c, 9, 69, 0
11, 53850, Note_on_c, 9, 42, 0
11, 53850, Note_on_c, 9, 82, 0
11, 53850, Note_on_c, 9, 82, 0
11, 53880, Note_on_c, 9, 36, 100
11, 53880, Note_on_c, 9, 42, 100
11, 53880, Note_on_c, 9, 82, 100
11, 53880, Note_on_c, 9, 82, 100
11, 53880, Note_on_c, 9, 69, 100
11, 53910, Note_on_c, 9, 69, 0
11, 53910, Note_on_c, 9, 82, 0
11, 53910, Note_on_c, 9, 36, 0
11, 53910, Note_on_c, 9, 42, 0
11, 53910, Note_on_c, 9, 82, 0
11, 53940, Note_on_c, 9, 42, 100
11, 53970, Note_on_c, 9, 42, 0
11, 54000, Note_on_c, 9, 42, 100
11, 54000, Note_on_c, 9, 40, 100
11, 54030, Note_on_c, 9, 40, 0
11, 54030, Note_on_c, 9, 42, 0
11, 54060, Note_on_c, 9, 36, 100
11, 54060, Note_on_c, 9, 42, 100
11, 54090, Note_on_c, 9, 42, 0
11, 54090, Note_on_c, 9, 36, 0
11, 54120, Note_on_c, 9, 42, 100
11, 54150, Note_on_c, 9, 42, 0
11, 54180, Note_on_c, 9, 42, 100
11, 54210, Note_on_c, 9, 42, 0
11, 54240, Note_on_c, 9, 36, 100
11, 54240, Note_on_c, 9, 42, 100
11, 54270, Note_on_c, 9, 42, 0
11, 54270, Note_on_c, 9, 36, 0
11, 54300, Note_on_c, 9, 42, 100
11, 54330, Note_on_c, 9, 42, 0
11, 54360, Note_on_c, 9, 42, 100
11, 54390, Note_on_c, 9, 42, 0
11, 54420, Note_on_c, 9, 42, 100
11, 54450, Note_on_c, 9, 42, 0
11, 54480, Note_on_c, 9, 42, 100
11, 54480, Note_on_c, 9, 40, 100
11, 54510, Note_on_c, 9, 40, 0
11, 54510, Note_on_c, 9, 42, 0
11, 54540, Note_on_c, 9, 42, 100
11, 54570, Note_on_c, 9, 42, 0
11, 54600, Note_on_c, 9, 42, 100
11, 54630, Note_on_c, 9, 42, 0
11, 54660, Note_on_c, 9, 42, 100
11, 54690, Note_on_c, 9, 42, 0
11, 54720, Note_on_c, 9, 42, 100
11, 54720, Note_on_c, 9, 82, 100
11, 54720, Note_on_c, 9, 82, 100
11, 54720, Note_on_c, 9, 69, 100
11, 54750, Note_on_c, 9, 69, 0
11, 54750, Note_on_c, 9, 42, 0
11, 54750, Note_on_c, 9, 82, 0
11, 54750, Note_on_c, 9, 82, 0
11, 54780, Note_on_c, 9, 42, 100
11, 54780, Note_on_c, 9, 82, 100
11, 54780, Note_on_c, 9, 82, 100
11, 54780, Note_on_c, 9, 69, 100
11, 54810, Note_on_c, 9, 69, 0
11, 54810, Note_on_c, 9, 42, 0
11, 54810, Note_on_c, 9, 82, 0
11, 54810, Note_on_c, 9, 82, 0
11, 54840, Note_on_c, 9, 36, 100
11, 54840, Note_on_c, 9, 42, 100
11, 54840, Note_on_c, 9, 82, 100
11, 54840, Note_on_c, 9, 82, 100
11, 54840, Note_on_c, 9, 69, 100
11, 54870, Note_on_c, 9, 69, 0
11, 54870, Note_on_c, 9, 82, 0
11, 54870, Note_on_c, 9, 36, 0
11, 54870, Note_on_c, 9, 42, 0
11, 54870, Note_on_c, 9, 82, 0
11, 54900, Note_on_c, 9, 42, 100
11, 54930, Note_on_c, 9, 42, 0
11, 54960, Note_on_c, 9, 42, 100
11, 54960, Note_on_c, 9, 40, 100
11, 54990, Note_on_c, 9, 40, 0
11, 54990, Note_on_c, 9, 42, 0
11, 55020, Note_on_c, 9, 36, 100
11, 55020, Note_on_c, 9, 42, 100
11, 55050, Note_on_c, 9, 42, 0
11, 55050, Note_on_c, 9, 36, 0
11, 55080, Note_on_c, 9, 42, 100
11, 55110, Note_on_c, 9, 42, 0
11, 55140, Note_on_c, 9, 42, 100
11, 55170, Note_on_c, 9, 42, 0
11, 55200, Note_on_c, 9, 36, 100
11, 55200, Note_on_c, 9, 42, 100
11, 55230, Note_on_c, 9, 42, 0
11, 55230, Note_on_c, 9, 36, 0
11, 55260, Note_on_c, 9, 42, 100
11, 55290, Note_on_c, 9, 42, 0
11, 55320, Note_on_c, 9, 42, 100
11, 55350, Note_on_c, 9, 42, 0
11, 55380, Note_on_c, 9, 42, 100
11, 55410, Note_on_c, 9, 42, 0
11, 55440, Note_on_c, 9, 42, 100
11, 55440, Note_on_c, 9, 40, 100
11, 55470, Note_on_c, 9, 40, 0
11, 55470, Note_on_c, 9, 42, 0
11, 55500, Note_on_c, 9, 42, 100
11, 55530, Note_on_c, 9, 42, 0
11, 55560, Note_on_c, 9, 42, 100
11, 55590, Note_on_c, 9, 42, 0
11, 55620, Note_on_c, 9, 42, 100
11, 55650, Note_on_c, 9, 42, 0
11, 55680, Note_on_c, 9, 42, 100
11, 55680, Note_on_c, 9, 82, 100
11, 55680, Note_on_c, 9, 82, 100
11, 55680, Note_on_c, 9, 69, 100
11, 55710, Note_on_c, 9, 69, 0
11, 55710, Note_on_c, 9, 42, 0
11, 55710, Note_on_c, 9, 82, 0
11, 55710, Note_on_c, 9, 82, 0
11, 55740, Note_on_c, 9, 42, 100
11, 55740, Note_on_c, 9, 82, 100
11, 55740, Note_on_c, 9, 82, 100
11, 55740, Note_on_c, 9, 69, 100
11, 55770, Note_on_c, 9, 69, 0
11, 55770, Note_on_c, 9, 42, 0
11, 55770, Note_on_c, 9, 82, 0
11, 55770, Note_on_c, 9, 82, 0
11, 55800, Note_on_c, 9, 36, 100
11, 55800, Note_on_c, 9, 42, 100
11, 55800, Note_on_c, 9, 82, 100
11, 55800, Note_on_c, 9, 82, 100
11, 55800, Note_on_c, 9, 69, 100
11, 55830, Note_on_c, 9, 69, 0
11, 55830, Note_on_c, 9, 82, 0
11, 55830, Note_on_c, 9, 36, 0
11, 55830, Note_on_c, 9, 42, 0
11, 55830, Note_on_c, 9, 82, 0
11, 55860, Note_on_c, 9, 42, 100
11, 55890, Note_on_c, 9, 42, 0
11, 55920, Note_on_c, 9, 42, 100
11, 55920, Note_on_c, 9, 40, 100
11, 55950, Note_on_c, 9, 40, 0
11, 55950, Note_on_c, 9, 42, 0
11, 55980, Note_on_c, 9, 36, 100
11, 55980, Note_on_c, 9, 42, 100
11, 56010, Note_on_c, 9, 42, 0
11, 56010, Note_on_c, 9, 36, 0
11, 56040, Note_on_c, 9, 42, 100
11, 56070, Note_on_c, 9, 42, 0
11, 56100, Note_on_c, 9, 42, 100
11, 56130, Note_on_c, 9, 42, 0
11, 56165, Note_on_c, 9, 36, 100
11, 56165, Note_on_c, 9, 44, 100
11, 56165, Note_on_c, 9, 36, 100
11, 56165, Note_on_c, 9, 44, 100
11, 56165, Note_on_c, 9, 36, 100
11, 56165, Note_on_c, 9, 44, 100
11, 56195, Note_on_c, 9, 44, 0
11, 56195, Note_on_c, 9, 44, 0
11, 56195, Note_on_c, 9, 36, 0
11, 56195, Note_on_c, 9, 36, 0
11, 56195, Note_on_c, 9, 36, 0
11, 56195, Note_on_c, 9, 44, 0
11, 56225, Note_on_c, 9, 36, 100
11, 56225, Note_on_c, 9, 36, 100
11, 56225, Note_on_c, 9, 36, 100
11, 56255, Note_on_c, 9, 36, 0
11, 56255, Note_on_c, 9, 36, 0
11, 56255, Note_on_c, 9, 36, 0
11, 56285, Note_on_c, 9, 36, 100
11, 56285, Note_on_c, 9, 44, 100
11, 56285, Note_on_c, 9, 34, 100
11, 56285, Note_on_c, 9, 36, 100
11, 56285, Note_on_c, 9, 44, 100
11, 56285, Note_on_c, 9, 40, 100
11, 56285, Note_on_c, 9, 36, 100
11, 56285, Note_on_c, 9, 44, 100
11, 56285, Note_on_c, 9, 40, 100
11, 56315, Note_on_c, 9, 40, 0
11, 56315, Note_on_c, 9, 36, 0
11, 56315, Note_on_c, 9, 36, 0
11, 56315, Note_on_c, 9, 44, 0
11, 56315, Note_on_c, 9, 44, 0
11, 56315, Note_on_c, 9, 34, 0
11, 56315, Note_on_c, 9, 36, 0
11, 56315, Note_on_c, 9, 40, 0
11, 56315, Note_on_c, 9, 44, 0
11, 56345, Note_on_c, 9, 36, 100
11, 56345, Note_on_c, 9, 36, 100
11, 56345, Note_on_c, 9, 36, 100
11, 56375, Note_on_c, 9, 36, 0
11, 56375, Note_on_c, 9, 36, 0
11, 56375, Note_on_c, 9, 36, 0
11, 56405, Note_on_c, 9, 36, 100
11, 56405, Note_on_c, 9, 44, 100
11, 56405, Note_on_c, 9, 36, 100
11, 56405, Note_on_c, 9, 44, 100
11, 56405, Note_on_c, 9, 36, 100
11, 56405, Note_on_c, 9, 44, 100
11, 56435, Note_on_c, 9, 44, 0
11, 56435, Note_on_c, 9, 44, 0
11, 56435, Note_on_c, 9, 36, 0
11, 56435, Note_on_c, 9, 36, 0
11, 56435, Note_on_c, 9, 36, 0
11, 56435, Note_on_c, 9, 44, 0
11, 56525, Note_on_c, 9, 36, 100
11, 56525, Note_on_c, 9, 44, 100
11, 56525, Note_on_c, 9, 34, 100
11, 56525, Note_on_c, 9, 36, 100
11, 56525, Note_on_c, 9, 44, 100
11, 56525, Note_on_c, 9, 40, 100
11, 56525, Note_on_c, 9, 36, 100
11, 56525, Note_on_c, 9, 44, 100
11, 56525, Note_on_c, 9, 40, 100
11, 56555, Note_on_c, 9, 40, 0
11, 56555, Note_on_c, 9, 36, 0
11, 56555, Note_on_c, 9, 36, 0
11, 56555, Note_on_c, 9, 44, 0
11, 56555, Note_on_c, 9, 44, 0
11, 56555, Note_on_c, 9, 34, 0
11, 56555, Note_on_c, 9, 36, 0
11, 56555, Note_on_c, 9, 40, 0
11, 56555, Note_on_c, 9, 44, 0
11, 56645, Note_on_c, 9, 36, 100
11, 56645, Note_on_c, 9, 44, 100
11, 56645, Note_on_c, 9, 36, 100
11, 56645, Note_on_c, 9, 44, 100
11, 56645, Note_on_c, 9, 36, 100
11, 56645, Note_on_c, 9, 44, 100
11, 56675, Note_on_c, 9, 44, 0
11, 56675, Note_on_c, 9, 44, 0
11, 56675, Note_on_c, 9, 36, 0
11, 56675, Note_on_c, 9, 36, 0
11, 56675, Note_on_c, 9, 36, 0
11, 56675, Note_on_c, 9, 44, 0
11, 56765, Note_on_c, 9, 36, 100
11, 56765, Note_on_c, 9, 44, 100
11, 56765, Note_on_c, 9, 36, 100
11, 56765, Note_on_c, 9, 44, 100
11, 56765, Note_on_c, 9, 36, 100
11, 56765, Note_on_c, 9, 44, 100
11, 56795, Note_on_c, 9, 44, 0
11, 56795, Note_on_c, 9, 44, 0
11, 56795, Note_on_c, 9, 36, 0
11, 56795, Note_on_c, 9, 36, 0
11, 56795, Note_on_c, 9, 36, 0
11, 56795, Note_on_c, 9, 44, 0
11, 56885, Note_on_c, 9, 36, 100
11, 56885, Note_on_c, 9, 44, 100
11, 56885, Note_on_c, 9, 36, 100
11, 56885, Note_on_c, 9, 44, 100
11, 56885, Note_on_c, 9, 36, 100
11, 56885, Note_on_c, 9, 44, 100
11, 56915, Note_on_c, 9, 44, 0
11, 56915, Note_on_c, 9, 44, 0
11, 56915, Note_on_c, 9, 36, 0
11, 56915, Note_on_c, 9, 36, 0
11, 56915, Note_on_c, 9, 36, 0
11, 56915, Note_on_c, 9, 44, 0
11, 57005, Note_on_c, 9, 36, 100
11, 57005, Note_on_c, 9, 44, 100
11, 57005, Note_on_c, 9, 34, 100
11, 57005, Note_on_c, 9, 36, 100
11, 57005, Note_on_c, 9, 44, 100
11, 57005, Note_on_c, 9, 40, 100
11, 57005, Note_on_c, 9, 36, 100
11, 57005, Note_on_c, 9, 44, 100
11, 57005, Note_on_c, 9, 40, 100
11, 57035, Note_on_c, 9, 40, 0
11, 57035, Note_on_c, 9, 36, 0
11, 57035, Note_on_c, 9, 36, 0
11, 57035, Note_on_c, 9, 44, 0
11, 57035, Note_on_c, 9, 44, 0
11, 57035, Note_on_c, 9, 34, 0
11, 57035, Note_on_c, 9, 36, 0
11, 57035, Note_on_c, 9, 40, 0
11, 57035, Note_on_c, 9, 44, 0
11, 57125, Note_on_c, 9, 36, 100
11, 57125, Note_on_c, 9, 44, 100
11, 57125, Note_on_c, 9, 82, 100
11, 57125, Note_on_c, 9, 36, 100
11, 57125, Note_on_c, 9, 44, 100
11, 57125, Note_on_c, 9, 82, 100
11, 57155, Note_on_c, 9, 82, 0
11, 57155, Note_on_c, 9, 44, 0
11, 57155, Note_on_c, 9, 82, 0
11, 57155, Note_on_c, 9, 36, 0
11, 57155, Note_on_c, 9, 44, 0
11, 57155, Note_on_c, 9, 36, 0
11, 57185, Note_on_c, 9, 36, 100
11, 57185, Note_on_c, 9, 82, 100
11, 57185, Note_on_c, 9, 36, 100
11, 57185, Note_on_c, 9, 82, 100
11, 57215, Note_on_c, 9, 82, 0
11, 57215, Note_on_c, 9, 36, 0
11, 57215, Note_on_c, 9, 82, 0
11, 57215, Note_on_c, 9, 36, 0
11, 57245, Note_on_c, 9, 36, 100
11, 57245, Note_on_c, 9, 44, 100
11, 57245, Note_on_c, 9, 34, 100
11, 57245, Note_on_c, 9, 82, 100
11, 57245, Note_on_c, 9, 36, 100
11, 57245, Note_on_c, 9, 44, 100
11, 57245, Note_on_c, 9, 40, 100
11, 57245, Note_on_c, 9, 82, 100
11, 57275, Note_on_c, 9, 82, 0
11, 57275, Note_on_c, 9, 36, 0
11, 57275, Note_on_c, 9, 36, 0
11, 57275, Note_on_c, 9, 44, 0
11, 57275, Note_on_c, 9, 34, 0
11, 57275, Note_on_c, 9, 82, 0
11, 57275, Note_on_c, 9, 44, 0
11, 57275, Note_on_c, 9, 40, 0
11, 57305, Note_on_c, 9, 36, 100
11, 57305, Note_on_c, 9, 36, 100
11, 57335, Note_on_c, 9, 36, 0
11, 57335, Note_on_c, 9, 36, 0
11, 57365, Note_on_c, 9, 36, 100
11, 57365, Note_on_c, 9, 44, 100
11, 57365, Note_on_c, 9, 82, 100
11, 57365, Note_on_c, 9, 36, 100
11, 57365, Note_on_c, 9, 44, 100
11, 57365, Note_on_c, 9, 82, 100
11, 57395, Note_on_c, 9, 82, 0
11, 57395, Note_on_c, 9, 44, 0
11, 57395, Note_on_c, 9, 82, 0
11, 57395, Note_on_c, 9, 36, 0
11, 57395, Note_on_c, 9, 44, 0
11, 57395, Note_on_c, 9, 36, 0
11, 57425, Note_on_c, 9, 82, 100
11, 57425, Note_on_c, 9, 82, 100
11, 57455, Note_on_c, 9, 82, 0
11, 57455, Note_on_c, 9, 82, 0
11, 57485, Note_on_c, 9, 36, 100
11, 57485, Note_on_c, 9, 44, 100
11, 57485, Note_on_c, 9, 34, 100
11, 57485, Note_on_c, 9, 82, 100
11, 57485, Note_on_c, 9, 36, 100
11, 57485, Note_on_c, 9, 44, 100
11, 57485, Note_on_c, 9, 40, 100
11, 57485, Note_on_c, 9, 82, 100
11, 57515, Note_on_c, 9, 82, 0
11, 57515, Note_on_c, 9, 36, 0
11, 57515, Note_on_c, 9, 36, 0
11, 57515, Note_on_c, 9, 44, 0
11, 57515, Note_on_c, 9, 34, 0
11, 57515, Note_on_c, 9, 82, 0
11, 57515, Note_on_c, 9, 44, 0
11, 57515, Note_on_c, 9, 40, 0
11, 57605, Note_on_c, 9, 36, 100
11, 57605, Note_on_c, 9, 44, 100
11, 57605, Note_on_c, 9, 82, 100
11, 57605, Note_on_c, 9, 36, 100
11, 57605, Note_on_c, 9, 44, 100
11, 57605, Note_on_c, 9, 82, 100
11, 57635, Note_on_c, 9, 82, 0
11, 57635, Note_on_c, 9, 44, 0
11, 57635, Note_on_c, 9, 82, 0
11, 57635, Note_on_c, 9, 36, 0
11, 57635, Note_on_c, 9, 44, 0
11, 57635, Note_on_c, 9, 36, 0
11, 57665, Note_on_c, 9, 82, 100
11, 57665, Note_on_c, 9, 82, 100
11, 57695, Note_on_c, 9, 82, 0
11, 57695, Note_on_c, 9, 82, 0
11, 57725, Note_on_c, 9, 36, 100
11, 57725, Note_on_c, 9, 44, 100
11, 57725, Note_on_c, 9, 82, 100
11, 57725, Note_on_c, 9, 36, 100
11, 57725, Note_on_c, 9, 44, 100
11, 57725, Note_on_c, 9, 82, 100
11, 57755, Note_on_c, 9, 82, 0
11, 57755, Note_on_c, 9, 44, 0
11, 57755, Note_on_c, 9, 82, 0
11, 57755, Note_on_c, 9, 36, 0
11, 57755, Note_on_c, 9, 44, 0
11, 57755, Note_on_c, 9, 36, 0
11, 57785, Note_on_c, 9, 82, 100
11, 57785, Note_on_c, 9, 82, 100
11, 57815, Note_on_c, 9, 82, 0
11, 57815, Note_on_c, 9, 82, 0
11, 57845, Note_on_c, 9, 36, 100
11, 57845, Note_on_c, 9, 44, 100
11, 57845, Note_on_c, 9, 82, 100
11, 57845, Note_on_c, 9, 36, 100
11, 57845, Note_on_c, 9, 44, 100
11, 57845, Note_on_c, 9, 82, 100
11, 57875, Note_on_c, 9, 82, 0
11, 57875, Note_on_c, 9, 44, 0
11, 57875, Note_on_c, 9, 82, 0
11, 57875, Note_on_c, 9, 36, 0
11, 57875, Note_on_c, 9, 44, 0
11, 57875, Note_on_c, 9, 36, 0
11, 57905, Note_on_c, 9, 82, 100
11, 57905, Note_on_c, 9, 82, 100
11, 57935, Note_on_c, 9, 82, 0
11, 57935, Note_on_c, 9, 82, 0
11, 57965, Note_on_c, 9, 36, 100
11, 57965, Note_on_c, 9, 44, 100
11, 57965, Note_on_c, 9, 34, 100
11, 57965, Note_on_c, 9, 82, 100
11, 57965, Note_on_c, 9, 36, 100
11, 57965, Note_on_c, 9, 44, 100
11, 57965, Note_on_c, 9, 40, 100
11, 57965, Note_on_c, 9, 82, 100
11, 57995, Note_on_c, 9, 82, 0
11, 57995, Note_on_c, 9, 36, 0
11, 57995, Note_on_c, 9, 36, 0
11, 57995, Note_on_c, 9, 44, 0
11, 57995, Note_on_c, 9, 34, 0
11, 57995, Note_on_c, 9, 82, 0
11, 57995, Note_on_c, 9, 44, 0
11, 57995, Note_on_c, 9, 40, 0
11, 58025, Note_on_c, 9, 82, 100
11, 58025, Note_on_c, 9, 82, 100
11, 58055, Note_on_c, 9, 82, 0
11, 58055, Note_on_c, 9, 82, 0
11, 58080, Note_on_c, 9, 35, 100
11, 58080, Note_on_c, 9, 54, 100
11, 58080, Note_on_c, 9, 69, 100
11, 58110, Note_on_c, 9, 69, 0
11, 58110, Note_on_c, 9, 54, 0
11, 58110, Note_on_c, 9, 35, 0
11, 58110, Note_on_c, 9, 69, 100
11, 58140, Note_on_c, 9, 69, 0
11, 58200, Note_on_c, 9, 54, 100
11, 58200, Note_on_c, 9, 69, 100
11, 58230, Note_on_c, 9, 69, 0
11, 58230, Note_on_c, 9, 54, 0
11, 58320, Note_on_c, 9, 40, 100
11, 58320, Note_on_c, 9, 69, 100
11, 58350, Note_on_c, 9, 69, 0
11, 58350, Note_on_c, 9, 40, 0
11, 58440, Note_on_c, 9, 69, 100
11, 58470, Note_on_c, 9, 69, 0
11, 58560, Note_on_c, 9, 54, 100
11, 58560, Note_on_c, 9, 82, 100
11, 58560, Note_on_c, 9, 69, 100
11, 58590, Note_on_c, 9, 69, 0
11, 58590, Note_on_c, 9, 82, 0
11, 58590, Note_on_c, 9, 54, 0
11, 58620, Note_on_c, 9, 54, 100
11, 58620, Note_on_c, 9, 82, 100
11, 58650, Note_on_c, 9, 82, 0
11, 58650, Note_on_c, 9, 54, 0
11, 58680, Note_on_c, 9, 35, 100
11, 58680, Note_on_c, 9, 54, 100
11, 58680, Note_on_c, 9, 82, 100
11, 58680, Note_on_c, 9, 69, 100
11, 58710, Note_on_c, 9, 69, 0
11, 58710, Note_on_c, 9, 35, 0
11, 58710, Note_on_c, 9, 54, 0
11, 58710, Note_on_c, 9, 82, 0
11, 58800, Note_on_c, 9, 40, 100
11, 58800, Note_on_c, 9, 69, 100
11, 58830, Note_on_c, 9, 69, 0
11, 58830, Note_on_c, 9, 40, 0
11, 58860, Note_on_c, 9, 35, 100
11, 58890, Note_on_c, 9, 35, 0
11, 58920, Note_on_c, 9, 54, 100
11, 58920, Note_on_c, 9, 69, 100
11, 58950, Note_on_c, 9, 69, 0
11, 58950, Note_on_c, 9, 54, 0
11, 59040, Note_on_c, 9, 36, 100
11, 59040, Note_on_c, 9, 54, 100
11, 59040, Note_on_c, 9, 54, 100
11, 59040, Note_on_c, 9, 69, 100
11, 59070, Note_on_c, 9, 69, 0
11, 59070, Note_on_c, 9, 36, 0
11, 59070, Note_on_c, 9, 54, 0
11, 59070, Note_on_c, 9, 54, 0
11, 59160, Note_on_c, 9, 54, 100
11, 59160, Note_on_c, 9, 54, 100
11, 59160, Note_on_c, 9, 69, 100
11, 59190, Note_on_c, 9, 69, 0
11, 59190, Note_on_c, 9, 54, 0
11, 59190, Note_on_c, 9, 54, 0
11, 59280, Note_on_c, 9, 38, 100
11, 59280, Note_on_c, 9, 69, 100
11, 59310, Note_on_c, 9, 69, 0
11, 59310, Note_on_c, 9, 38, 0
11, 59400, Note_on_c, 9, 69, 100
11, 59430, Note_on_c, 9, 69, 0
11, 59520, Note_on_c, 9, 54, 100
11, 59520, Note_on_c, 9, 54, 100
11, 59520, Note_on_c, 9, 82, 100
11, 59520, Note_on_c, 9, 69, 100
11, 59550, Note_on_c, 9, 69, 0
11, 59550, Note_on_c, 9, 54, 0
11, 59550, Note_on_c, 9, 54, 0
11, 59550, Note_on_c, 9, 82, 0
11, 59580, Note_on_c, 9, 54, 100
11, 59580, Note_on_c, 9, 54, 100
11, 59580, Note_on_c, 9, 82, 100
11, 59610, Note_on_c, 9, 82, 0
11, 59610, Note_on_c, 9, 54, 0
11, 59610, Note_on_c, 9, 54, 0
11, 59640, Note_on_c, 9, 36, 100
11, 59640, Note_on_c, 9, 54, 100
11, 59640, Note_on_c, 9, 54, 100
11, 59640, Note_on_c, 9, 82, 100
11, 59640, Note_on_c, 9, 69, 100
11, 59670, Note_on_c, 9, 69, 0
11, 59670, Note_on_c, 9, 54, 0
11, 59670, Note_on_c, 9, 36, 0
11, 59670, Note_on_c, 9, 54, 0
11, 59670, Note_on_c, 9, 82, 0
11, 59700, Note_on_c, 9, 35, 100
11, 59730, Note_on_c, 9, 35, 0
11, 59760, Note_on_c, 9, 38, 100
11, 59760, Note_on_c, 9, 69, 100
11, 59790, Note_on_c, 9, 69, 0
11, 59790, Note_on_c, 9, 38, 0
11, 59820, Note_on_c, 9, 36, 100
11, 59850, Note_on_c, 9, 36, 0
11, 59880, Note_on_c, 9, 35, 100
11, 59880, Note_on_c, 9, 54, 100
11, 59880, Note_on_c, 9, 54, 100
11, 59880, Note_on_c, 9, 69, 100
11, 59910, Note_on_c, 9, 69, 0
11, 59910, Note_on_c, 9, 35, 0
11, 59910, Note_on_c, 9, 54, 0
11, 59910, Note_on_c, 9, 54, 0
11, 60000, Note_on_c, 9, 35, 100
11, 60000, Note_on_c, 9, 54, 100
11, 60000, Note_on_c, 9, 69, 100
11, 60030, Note_on_c, 9, 69, 0
11, 60030, Note_on_c, 9, 54, 0
11, 60030, Note_on_c, 9, 35, 0
11, 60030, Note_on_c, 9, 69, 100
11, 60060, Note_on_c, 9, 69, 0
11, 60120, Note_on_c, 9, 54, 100
11, 60120, Note_on_c, 9, 69, 100
11, 60150, Note_on_c, 9, 69, 0
11, 60150, Note_on_c, 9, 54, 0
11, 60240, Note_on_c, 9, 40, 100
11, 60240, Note_on_c, 9, 69, 100
11, 60270, Note_on_c, 9, 69, 0
11, 60270, Note_on_c, 9, 40, 0
11, 60360, Note_on_c, 9, 69, 100
11, 60390, Note_on_c, 9, 69, 0
11, 60480, Note_on_c, 9, 54, 100
11, 60480, Note_on_c, 9, 82, 100
11, 60480, Note_on_c, 9, 69, 100
11, 60510, Note_on_c, 9, 69, 0
11, 60510, Note_on_c, 9, 82, 0
11, 60510, Note_on_c, 9, 54, 0
11, 60540, Note_on_c, 9, 54, 100
11, 60540, Note_on_c, 9, 82, 100
11, 60570, Note_on_c, 9, 82, 0
11, 60570, Note_on_c, 9, 54, 0
11, 60600, Note_on_c, 9, 35, 100
11, 60600, Note_on_c, 9, 54, 100
11, 60600, Note_on_c, 9, 82, 100
11, 60600, Note_on_c, 9, 69, 100
11, 60630, Note_on_c, 9, 69, 0
11, 60630, Note_on_c, 9, 35, 0
11, 60630, Note_on_c, 9, 54, 0
11, 60630, Note_on_c, 9, 82, 0
11, 60720, Note_on_c, 9, 40, 100
11, 60720, Note_on_c, 9, 69, 100
11, 60750, Note_on_c, 9, 69, 0
11, 60750, Note_on_c, 9, 40, 0
11, 60780, Note_on_c, 9, 35, 100
11, 60810, Note_on_c, 9, 35, 0
11, 60840, Note_on_c, 9, 54, 100
11, 60840, Note_on_c, 9, 69, 100
11, 60870, Note_on_c, 9, 69, 0
11, 60870, Note_on_c, 9, 54, 0
11, 60960, Note_on_c, 9, 36, 100
11, 60960, Note_on_c, 9, 54, 100
11, 60960, Note_on_c, 9, 69, 100
11, 60990, Note_on_c, 9, 69, 0
11, 60990, Note_on_c, 9, 54, 0
11, 60990, Note_on_c, 9, 36, 0
11, 61080, Note_on_c, 9, 54, 100
11, 61080, Note_on_c, 9, 69, 100
11, 61110, Note_on_c, 9, 69, 0
11, 61110, Note_on_c, 9, 54, 0
11, 61200, Note_on_c, 9, 38, 100
11, 61200, Note_on_c, 9, 69, 100
11, 61230, Note_on_c, 9, 69, 0
11, 61230, Note_on_c, 9, 38, 0
11, 61320, Note_on_c, 9, 69, 100
11, 61350, Note_on_c, 9, 69, 0
11, 61440, Note_on_c, 9, 54, 100
11, 61440, Note_on_c, 9, 38, 100
11, 61440, Note_on_c, 9, 82, 100
11, 61440, Note_on_c, 9, 82, 100
11, 61440, Note_on_c, 9, 69, 100
11, 61440, Note_on_c, 9, 69, 100
11, 61470, Note_on_c, 9, 69, 0
11, 61470, Note_on_c, 9, 38, 0
11, 61470, Note_on_c, 9, 82, 0
11, 61470, Note_on_c, 9, 54, 0
11, 61470, Note_on_c, 9, 69, 0
11, 61470, Note_on_c, 9, 82, 0
11, 61500, Note_on_c, 9, 54, 100
11, 61500, Note_on_c, 9, 38, 100
11, 61500, Note_on_c, 9, 82, 100
11, 61500, Note_on_c, 9, 82, 100
11, 61500, Note_on_c, 9, 69, 100
11, 61530, Note_on_c, 9, 69, 0
11, 61530, Note_on_c, 9, 82, 0
11, 61530, Note_on_c, 9, 54, 0
11, 61530, Note_on_c, 9, 38, 0
11, 61530, Note_on_c, 9, 82, 0
11, 61560, Note_on_c, 9, 36, 100
11, 61560, Note_on_c, 9, 54, 100
11, 61560, Note_on_c, 9, 82, 100
11, 61560, Note_on_c, 9, 82, 100
11, 61560, Note_on_c, 9, 69, 100
11, 61560, Note_on_c, 9, 69, 100
11, 61590, Note_on_c, 9, 69, 0
11, 61590, Note_on_c, 9, 54, 0
11, 61590, Note_on_c, 9, 82, 0
11, 61590, Note_on_c, 9, 36, 0
11, 61590, Note_on_c, 9, 69, 0
11, 61590, Note_on_c, 9, 82, 0
11, 61620, Note_on_c, 9, 35, 100
11, 61650, Note_on_c, 9, 35, 0
11, 61680, Note_on_c, 9, 38, 100
11, 61680, Note_on_c, 9, 69, 100
11, 61710, Note_on_c, 9, 69, 0
11, 61710, Note_on_c, 9, 38, 0
11, 61740, Note_on_c, 9, 36, 100
11, 61740, Note_on_c, 9, 38, 100
11, 61770, Note_on_c, 9, 38, 0
11, 61770, Note_on_c, 9, 36, 0
11, 61800, Note_on_c, 9, 35, 100
11, 61800, Note_on_c, 9, 54, 100
11, 61800, Note_on_c, 9, 69, 100
11, 61830, Note_on_c, 9, 69, 0
11, 61830, Note_on_c, 9, 54, 0
11, 61830, Note_on_c, 9, 35, 0
11, 61920, Note_on_c, 9, 35, 100
11, 61920, Note_on_c, 9, 54, 100
11, 61920, Note_on_c, 9, 69, 100
11, 61950, Note_on_c, 9, 69, 0
11, 61950, Note_on_c, 9, 54, 0
11, 61950, Note_on_c, 9, 35, 0
11, 61950, Note_on_c, 9, 69, 100
11, 61980, Note_on_c, 9, 69, 0
11, 62040, Note_on_c, 9, 54, 100
11, 62040, Note_on_c, 9, 69, 100
11, 62070, Note_on_c, 9, 69, 0
11, 62070, Note_on_c, 9, 54, 0
11, 62160, Note_on_c, 9, 40, 100
11, 62160, Note_on_c, 9, 69, 100
11, 62190, Note_on_c, 9, 69, 0
11, 62190, Note_on_c, 9, 40, 0
11, 62280, Note_on_c, 9, 69, 100
11, 62310, Note_on_c, 9, 69, 0
11, 62400, Note_on_c, 9, 54, 100
11, 62400, Note_on_c, 9, 82, 100
11, 62400, Note_on_c, 9, 69, 100
11, 62430, Note_on_c, 9, 69, 0
11, 62430, Note_on_c, 9, 82, 0
11, 62430, Note_on_c, 9, 54, 0
11, 62460, Note_on_c, 9, 54, 100
11, 62460, Note_on_c, 9, 82, 100
11, 62490, Note_on_c, 9, 82, 0
11, 62490, Note_on_c, 9, 54, 0
11, 62520, Note_on_c, 9, 35, 100
11, 62520, Note_on_c, 9, 54, 100
11, 62520, Note_on_c, 9, 82, 100
11, 62520, Note_on_c, 9, 69, 100
11, 62550, Note_on_c, 9, 69, 0
11, 62550, Note_on_c, 9, 35, 0
11, 62550, Note_on_c, 9, 54, 0
11, 62550, Note_on_c, 9, 82, 0
11, 62640, Note_on_c, 9, 40, 100
11, 62640, Note_on_c, 9, 69, 100
11, 62670, Note_on_c, 9, 69, 0
11, 62670, Note_on_c, 9, 40, 0
11, 62700, Note_on_c, 9, 35, 100
11, 62730, Note_on_c, 9, 35, 0
11, 62760, Note_on_c, 9, 54, 100
11, 62760, Note_on_c, 9, 69, 100
11, 62790, Note_on_c, 9, 69, 0
11, 62790, Note_on_c, 9, 54, 0
11, 62880, Note_on_c, 9, 36, 100
11, 62880, Note_on_c, 9, 54, 100
11, 62880, Note_on_c, 9, 54, 100
11, 62880, Note_on_c, 9, 69, 100
11, 62910, Note_on_c, 9, 69, 0
11, 62910, Note_on_c, 9, 36, 0
11, 62910, Note_on_c, 9, 54, 0
11, 62910, Note_on_c, 9, 54, 0
11, 63000, Note_on_c, 9, 54, 100
11, 63000, Note_on_c, 9, 54, 100
11, 63000, Note_on_c, 9, 69, 100
11, 63030, Note_on_c, 9, 69, 0
11, 63030, Note_on_c, 9, 54, 0
11, 63030, Note_on_c, 9, 54, 0
11, 63120, Note_on_c, 9, 38, 100
11, 63120, Note_on_c, 9, 69, 100
11, 63150, Note_on_c, 9, 69, 0
11, 63150, Note_on_c, 9, 38, 0
11, 63240, Note_on_c, 9, 69, 100
11, 63270, Note_on_c, 9, 69, 0
11, 63360, Note_on_c, 9, 54, 100
11, 63360, Note_on_c, 9, 54, 100
11, 63360, Note_on_c, 9, 82, 100
11, 63360, Note_on_c, 9, 69, 100
11, 63390, Note_on_c, 9, 69, 0
11, 63390, Note_on_c, 9, 54, 0
11, 63390, Note_on_c, 9, 54, 0
11, 63390, Note_on_c, 9, 82, 0
11, 63420, Note_on_c, 9, 54, 100
11, 63420, Note_on_c, 9, 54, 100
11, 63420, Note_on_c, 9, 82, 100
11, 63450, Note_on_c, 9, 82, 0
11, 63450, Note_on_c, 9, 54, 0
11, 63450, Note_on_c, 9, 54, 0
11, 63480, Note_on_c, 9, 36, 100
11, 63480, Note_on_c, 9, 54, 100
11, 63480, Note_on_c, 9, 54, 100
11, 63480, Note_on_c, 9, 82, 100
11, 63480, Note_on_c, 9, 69, 100
11, 63510, Note_on_c, 9, 69, 0
11, 63510, Note_on_c, 9, 54, 0
11, 63510, Note_on_c, 9, 36, 0
11, 63510, Note_on_c, 9, 54, 0
11, 63510, Note_on_c, 9, 82, 0
11, 63540, Note_on_c, 9, 35, 100
11, 63570, Note_on_c, 9, 35, 0
11, 63600, Note_on_c, 9, 38, 100
11, 63600, Note_on_c, 9, 69, 100
11, 63630, Note_on_c, 9, 69, 0
11, 63630, Note_on_c, 9, 38, 0
11, 63660, Note_on_c, 9, 36, 100
11, 63690, Note_on_c, 9, 36, 0
11, 63720, Note_on_c, 9, 35, 100
11, 63720, Note_on_c, 9, 54, 100
11, 63720, Note_on_c, 9, 54, 100
11, 63720, Note_on_c, 9, 69, 100
11, 63750, Note_on_c, 9, 69, 0
11, 63750, Note_on_c, 9, 35, 0
11, 63750, Note_on_c, 9, 54, 0
11, 63750, Note_on_c, 9, 54, 0
11, 63840, Note_on_c, 9, 35, 100
11, 63840, Note_on_c, 9, 54, 100
11, 63840, Note_on_c, 9, 69, 100
11, 63870, Note_on_c, 9, 69, 0
11, 63870, Note_on_c, 9, 54, 0
11, 63870, Note_on_c, 9, 35, 0
11, 63870, Note_on_c, 9, 69, 100
11, 63900, Note_on_c, 9, 69, 0
11, 63960, Note_on_c, 9, 54, 100
11, 63960, Note_on_c, 9, 69, 100
11, 63990, Note_on_c, 9, 69, 0
11, 63990, Note_on_c, 9, 54, 0
11, 64080, Note_on_c, 9, 40, 100
11, 64080, Note_on_c, 9, 69, 100
11, 64110, Note_on_c, 9, 69, 0
11, 64110, Note_on_c, 9, 40, 0
11, 64200, Note_on_c, 9, 69, 100
11, 64230, Note_on_c, 9, 69, 0
11, 64320, Note_on_c, 9, 54, 100
11, 64320, Note_on_c, 9, 82, 100
11, 64320, Note_on_c, 9, 69, 100
11, 64350, Note_on_c, 9, 69, 0
11, 64350, Note_on_c, 9, 82, 0
11, 64350, Note_on_c, 9, 54, 0
11, 64380, Note_on_c, 9, 54, 100
11, 64380, Note_on_c, 9, 82, 100
11, 64410, Note_on_c, 9, 82, 0
11, 64410, Note_on_c, 9, 54, 0
11, 64440, Note_on_c, 9, 35, 100
11, 64440, Note_on_c, 9, 54, 100
11, 64440, Note_on_c, 9, 82, 100
11, 64440, Note_on_c, 9, 69, 100
11, 64470, Note_on_c, 9, 69, 0
11, 64470, Note_on_c, 9, 35, 0
11, 64470, Note_on_c, 9, 54, 0
11, 64470, Note_on_c, 9, 82, 0
11, 64560, Note_on_c, 9, 40, 100
11, 64560, Note_on_c, 9, 69, 100
11, 64590, Note_on_c, 9, 69, 0
11, 64590, Note_on_c, 9, 40, 0
11, 64620, Note_on_c, 9, 35, 100
11, 64650, Note_on_c, 9, 35, 0
11, 64680, Note_on_c, 9, 54, 100
11, 64680, Note_on_c, 9, 69, 100
11, 64710, Note_on_c, 9, 69, 0
11, 64710, Note_on_c, 9, 54, 0
11, 64800, Note_on_c, 9, 36, 100
11, 64800, Note_on_c, 9, 54, 100
11, 64800, Note_on_c, 9, 69, 100
11, 64830, Note_on_c, 9, 69, 0
11, 64830, Note_on_c, 9, 54, 0
11, 64830, Note_on_c, 9, 36, 0
11, 64920, Note_on_c, 9, 54, 100
11, 64920, Note_on_c, 9, 69, 100
11, 64950, Note_on_c, 9, 69, 0
11, 64950, Note_on_c, 9, 54, 0
11, 65040, Note_on_c, 9, 38, 100
11, 65040, Note_on_c, 9, 69, 100
11, 65070, Note_on_c, 9, 69, 0
11, 65070, Note_on_c, 9, 38, 0
11, 65160, Note_on_c, 9, 69, 100
11, 65190, Note_on_c, 9, 69, 0
11, 65280, Note_on_c, 9, 54, 100
11, 65280, Note_on_c, 9, 38, 100
11, 65280, Note_on_c, 9, 82, 100
11, 65280, Note_on_c, 9, 82, 100
11, 65280, Note_on_c, 9, 69, 100
11, 65280, Note_on_c, 9, 69, 100
11, 65310, Note_on_c, 9, 69, 0
11, 65310, Note_on_c, 9, 38, 0
11, 65310, Note_on_c, 9, 82, 0
11, 65310, Note_on_c, 9, 54, 0
11, 65310, Note_on_c, 9, 69, 0
11, 65310, Note_on_c, 9, 82, 0
11, 65340, Note_on_c, 9, 54, 100
11, 65340, Note_on_c, 9, 38, 100
11, 65340, Note_on_c, 9, 82, 100
11, 65340, Note_on_c, 9, 82, 100
11, 65340, Note_on_c, 9, 69, 100
11, 65370, Note_on_c, 9, 69, 0
11, 65370, Note_on_c, 9, 82, 0
11, 65370, Note_on_c, 9, 54, 0
11, 65370, Note_on_c, 9, 38, 0
11, 65370, Note_on_c, 9, 82, 0
11, 65400, Note_on_c, 9, 36, 100
11, 65400, Note_on_c, 9, 54, 100
11, 65400, Note_on_c, 9, 82, 100
11, 65400, Note_on_c, 9, 82, 100
11, 65400, Note_on_c, 9, 69, 100
11, 65400, Note_on_c, 9, 69, 100
11, 65430, Note_on_c, 9, 69, 0
11, 65430, Note_on_c, 9, 54, 0
11, 65430, Note_on_c, 9, 82, 0
11, 65430, Note_on_c, 9, 36, 0
11, 65430, Note_on_c, 9, 69, 0
11, 65430, Note_on_c, 9, 82, 0
11, 65460, Note_on_c, 9, 35, 100
11, 65490, Note_on_c, 9, 35, 0
11, 65520, Note_on_c, 9, 38, 100
11, 65520, Note_on_c, 9, 69, 100
11, 65550, Note_on_c, 9, 69, 0
11, 65550, Note_on_c, 9, 38, 0
11, 65580, Note_on_c, 9, 36, 100
11, 65580, Note_on_c, 9, 38, 100
11, 65610, Note_on_c, 9, 38, 0
11, 65610, Note_on_c, 9, 36, 0
11, 65640, Note_on_c, 9, 35, 100
11, 65640, Note_on_c, 9, 54, 100
11, 65640, Note_on_c, 9, 69, 100
11, 65670, Note_on_c, 9, 69, 0
11, 65670, Note_on_c, 9, 54, 0
11, 65670, Note_on_c, 9, 35, 0
11, 65760, Note_on_c, 9, 35, 100
11, 65760, Note_on_c, 9, 54, 100
11, 65760, Note_on_c, 9, 69, 100
11, 65790, Note_on_c, 9, 69, 0
11, 65790, Note_on_c, 9, 54, 0
11, 65790, Note_on_c, 9, 35, 0
11, 65790, Note_on_c, 9, 69, 100
11, 65820, Note_on_c, 9, 69, 0
11, 65880, Note_on_c, 9, 54, 100
11, 65880, Note_on_c, 9, 69, 100
11, 65910, Note_on_c, 9, 69, 0
11, 65910, Note_on_c, 9, 54, 0
11, 66000, Note_on_c, 9, 40, 100
11, 66000, Note_on_c, 9, 69, 100
11, 66030, Note_on_c, 9, 69, 0
11, 66030, Note_on_c, 9, 40, 0
11, 66120, Note_on_c, 9, 69, 100
11, 66150, Note_on_c, 9, 69, 0
11, 66240, Note_on_c, 9, 54, 100
11, 66240, Note_on_c, 9, 82, 100
11, 66240, Note_on_c, 9, 69, 100
11, 66270, Note_on_c, 9, 69, 0
11, 66270, Note_on_c, 9, 82, 0
11, 66270, Note_on_c, 9, 54, 0
11, 66300, Note_on_c, 9, 54, 100
11, 66300, Note_on_c, 9, 82, 100
11, 66330, Note_on_c, 9, 82, 0
11, 66330, Note_on_c, 9, 54, 0
11, 66360, Note_on_c, 9, 35, 100
11, 66360, Note_on_c, 9, 54, 100
11, 66360, Note_on_c, 9, 82, 100
11, 66360, Note_on_c, 9, 69, 100
11, 66390, Note_on_c, 9, 69, 0
11, 66390, Note_on_c, 9, 35, 0
11, 66390, Note_on_c, 9, 54, 0
11, 66390, Note_on_c, 9, 82, 0
11, 66480, Note_on_c, 9, 40, 100
11, 66480, Note_on_c, 9, 69, 100
11, 66510, Note_on_c, 9, 69, 0
11, 66510, Note_on_c, 9, 40, 0
11, 66540, Note_on_c, 9, 35, 100
11, 66570, Note_on_c, 9, 35, 0
11, 66600, Note_on_c, 9, 54, 100
11, 66600, Note_on_c, 9, 69, 100
11, 66630, Note_on_c, 9, 69, 0
11, 66630, Note_on_c, 9, 54, 0
11, 66720, Note_on_c, 9, 36, 100
11, 66720, Note_on_c, 9, 54, 100
11, 66720, Note_on_c, 9, 54, 100
11, 66720, Note_on_c, 9, 69, 100
11, 66750, Note_on_c, 9, 69, 0
11, 66750, Note_on_c, 9, 36, 0
11, 66750, Note_on_c, 9, 54, 0
11, 66750, Note_on_c, 9, 54, 0
11, 66840, Note_on_c, 9, 54, 100
11, 66840, Note_on_c, 9, 54, 100
11, 66840, Note_on_c, 9, 69, 100
11, 66870, Note_on_c, 9, 69, 0
11, 66870, Note_on_c, 9, 54, 0
11, 66870, Note_on_c, 9, 54, 0
11, 66960, Note_on_c, 9, 38, 100
11, 66960, Note_on_c, 9, 69, 100
11, 66990, Note_on_c, 9, 69, 0
11, 66990, Note_on_c, 9, 38, 0
11, 67080, Note_on_c, 9, 69, 100
11, 67110, Note_on_c, 9, 69, 0
11, 67200, Note_on_c, 9, 54, 100
11, 67200, Note_on_c, 9, 54, 100
11, 67200, Note_on_c, 9, 82, 100
11, 67200, Note_on_c, 9, 69, 100
11, 67230, Note_on_c, 9, 69, 0
11, 67230, Note_on_c, 9, 54, 0
11, 67230, Note_on_c, 9, 54, 0
11, 67230, Note_on_c, 9, 82, 0
11, 67260, Note_on_c, 9, 54, 100
11, 67260, Note_on_c, 9, 54, 100
11, 67260, Note_on_c, 9, 82, 100
11, 67290, Note_on_c, 9, 82, 0
11, 67290, Note_on_c, 9, 54, 0
11, 67290, Note_on_c, 9, 54, 0
11, 67320, Note_on_c, 9, 36, 100
11, 67320, Note_on_c, 9, 54, 100
11, 67320, Note_on_c, 9, 54, 100
11, 67320, Note_on_c, 9, 82, 100
11, 67320, Note_on_c, 9, 69, 100
11, 67350, Note_on_c, 9, 69, 0
11, 67350, Note_on_c, 9, 54, 0
11, 67350, Note_on_c, 9, 36, 0
11, 67350, Note_on_c, 9, 54, 0
11, 67350, Note_on_c, 9, 82, 0
11, 67380, Note_on_c, 9, 35, 100
11, 67410, Note_on_c, 9, 35, 0
11, 67440, Note_on_c, 9, 38, 100
11, 67440, Note_on_c, 9, 69, 100
11, 67470, Note_on_c, 9, 69, 0
11, 67470, Note_on_c, 9, 38, 0
11, 67500, Note_on_c, 9, 36, 100
11, 67530, Note_on_c, 9, 36, 0
11, 67560, Note_on_c, 9, 35, 100
11, 67560, Note_on_c, 9, 54, 100
11, 67560, Note_on_c, 9, 54, 100
11, 67560, Note_on_c, 9, 69, 100
11, 67590, Note_on_c, 9, 69, 0
11, 67590, Note_on_c, 9, 35, 0
11, 67590, Note_on_c, 9, 54, 0
11, 67590, Note_on_c, 9, 54, 0
11, 67680, Note_on_c, 9, 35, 100
11, 67680, Note_on_c, 9, 54, 100
11, 67680, Note_on_c, 9, 69, 100
11, 67710, Note_on_c, 9, 69, 0
11, 67710, Note_on_c, 9, 54, 0
11, 67710, Note_on_c, 9, 35, 0
11, 67710, Note_on_c, 9, 69, 100
11, 67740, Note_on_c, 9, 69, 0
11, 67800, Note_on_c, 9, 54, 100
11, 67800, Note_on_c, 9, 69, 100
11, 67830, Note_on_c, 9, 69, 0
11, 67830, Note_on_c, 9, 54, 0
11, 67920, Note_on_c, 9, 40, 100
11, 67920, Note_on_c, 9, 69, 100
11, 67950, Note_on_c, 9, 69, 0
11, 67950, Note_on_c, 9, 40, 0
11, 68040, Note_on_c, 9, 69, 100
11, 68070, Note_on_c, 9, 69, 0
11, 68160, Note_on_c, 9, 54, 100
11, 68160, Note_on_c, 9, 82, 100
11, 68160, Note_on_c, 9, 69, 100
11, 68190, Note_on_c, 9, 69, 0
11, 68190, Note_on_c, 9, 82, 0
11, 68190, Note_on_c, 9, 54, 0
11, 68220, Note_on_c, 9, 54, 100
11, 68220, Note_on_c, 9, 82, 100
11, 68250, Note_on_c, 9, 82, 0
11, 68250, Note_on_c, 9, 54, 0
11, 68280, Note_on_c, 9, 35, 100
11, 68280, Note_on_c, 9, 54, 100
11, 68280, Note_on_c, 9, 82, 100
11, 68280, Note_on_c, 9, 69, 100
11, 68310, Note_on_c, 9, 69, 0
11, 68310, Note_on_c, 9, 35, 0
11, 68310, Note_on_c, 9, 54, 0
11, 68310, Note_on_c, 9, 82, 0
11, 68400, Note_on_c, 9, 40, 100
11, 68400, Note_on_c, 9, 69, 100
11, 68430, Note_on_c, 9, 69, 0
11, 68430, Note_on_c, 9, 40, 0
11, 68460, Note_on_c, 9, 35, 100
11, 68490, Note_on_c, 9, 35, 0
11, 68520, Note_on_c, 9, 54, 100
11, 68520, Note_on_c, 9, 69, 100
11, 68550, Note_on_c, 9, 69, 0
11, 68550, Note_on_c, 9, 54, 0
11, 68640, Note_on_c, 9, 36, 100
11, 68640, Note_on_c, 9, 54, 100
11, 68640, Note_on_c, 9, 69, 100
11, 68670, Note_on_c, 9, 69, 0
11, 68670, Note_on_c, 9, 54, 0
11, 68670, Note_on_c, 9, 36, 0
11, 68760, Note_on_c, 9, 54, 100
11, 68760, Note_on_c, 9, 69, 100
11, 68790, Note_on_c, 9, 69, 0
11, 68790, Note_on_c, 9, 54, 0
11, 68880, Note_on_c, 9, 38, 100
11, 68880, Note_on_c, 9, 69, 100
11, 68910, Note_on_c, 9, 69, 0
11, 68910, Note_on_c, 9, 38, 0
11, 69000, Note_on_c, 9, 69, 100
11, 69030, Note_on_c, 9, 69, 0
11, 69120, Note_on_c, 9, 54, 100
11, 69120, Note_on_c, 9, 38, 100
11, 69120, Note_on_c, 9, 82, 100
11, 69120, Note_on_c, 9, 82, 100
11, 69120, Note_on_c, 9, 69, 100
11, 69120, Note_on_c, 9, 69, 100
11, 69150, Note_on_c, 9, 69, 0
11, 69150, Note_on_c, 9, 38, 0
11, 69150, Note_on_c, 9, 82, 0
11, 69150, Note_on_c, 9, 54, 0
11, 69150, Note_on_c, 9, 69, 0
11, 69150, Note_on_c, 9, 82, 0
11, 69180, Note_on_c, 9, 54, 100
11, 69180, Note_on_c, 9, 38, 100
11, 69180, Note_on_c, 9, 82, 100
11, 69180, Note_on_c, 9, 82, 100
11, 69180, Note_on_c, 9, 69, 100
11, 69210, Note_on_c, 9, 69, 0
11, 69210, Note_on_c, 9, 82, 0
11, 69210, Note_on_c, 9, 54, 0
11, 69210, Note_on_c, 9, 38, 0
11, 69210, Note_on_c, 9, 82, 0
11, 69240, Note_on_c, 9, 36, 100
11, 69240, Note_on_c, 9, 54, 100
11, 69240, Note_on_c, 9, 82, 100
11, 69240, Note_on_c, 9, 82, 100
11, 69240, Note_on_c, 9, 69, 100
11, 69240, Note_on_c, 9, 69, 100
11, 69270, Note_on_c, 9, 69, 0
11, 69270, Note_on_c, 9, 54, 0
11, 69270, Note_on_c, 9, 82, 0
11, 69270, Note_on_c, 9, 36, 0
11, 69270, Note_on_c, 9, 69, 0
11, 69270, Note_on_c, 9, 82, 0
11, 69300, Note_on_c, 9, 35, 100
11, 69330, Note_on_c, 9, 35, 0
11, 69360, Note_on_c, 9, 38, 100
11, 69360, Note_on_c, 9, 69, 100
11, 69390, Note_on_c, 9, 69, 0
11, 69390, Note_on_c, 9, 38, 0
11, 69420, Note_on_c, 9, 36, 100
11, 69420, Note_on_c, 9, 38, 100
11, 69450, Note_on_c, 9, 38, 0
11, 69450, Note_on_c, 9, 36, 0
11, 69480, Note_on_c, 9, 35, 100
11, 69480, Note_on_c, 9, 54, 100
11, 69480, Note_on_c, 9, 69, 100
11, 69510, Note_on_c, 9, 69, 0
11, 69510, Note_on_c, 9, 54, 0
11, 69510, Note_on_c, 9, 35, 0
11, 69600, Note_on_c, 9, 35, 100
11, 69600, Note_on_c, 9, 54, 100
11, 69600, Note_on_c, 9, 69, 100
11, 69630, Note_on_c, 9, 69, 0
11, 69630, Note_on_c, 9, 54, 0
11, 69630, Note_on_c, 9, 35, 0
11, 69630, Note_on_c, 9, 69, 100
11, 69660, Note_on_c, 9, 69, 0
11, 69720, Note_on_c, 9, 54, 100
11, 69720, Note_on_c, 9, 69, 100
11, 69750, Note_on_c, 9, 69, 0
11, 69750, Note_on_c, 9, 54, 0
11, 69840, Note_on_c, 9, 40, 100
11, 69840, Note_on_c, 9, 69, 100
11, 69870, Note_on_c, 9, 69, 0
11, 69870, Note_on_c, 9, 40, 0
11, 69960, Note_on_c, 9, 69, 100
11, 69990, Note_on_c, 9, 69, 0
11, 70080, Note_on_c, 9, 54, 100
11, 70080, Note_on_c, 9, 82, 100
11, 70080, Note_on_c, 9, 69, 100
11, 70110, Note_on_c, 9, 69, 0
11, 70110, Note_on_c, 9, 82, 0
11, 70110, Note_on_c, 9, 54, 0
11, 70140, Note_on_c, 9, 54, 100
11, 70140, Note_on_c, 9, 82, 100
11, 70170, Note_on_c, 9, 82, 0
11, 70170, Note_on_c, 9, 54, 0
11, 70200, Note_on_c, 9, 35, 100
11, 70200, Note_on_c, 9, 54, 100
11, 70200, Note_on_c, 9, 82, 100
11, 70200, Note_on_c, 9, 69, 100
11, 70230, Note_on_c, 9, 69, 0
11, 70230, Note_on_c, 9, 35, 0
11, 70230, Note_on_c, 9, 54, 0
11, 70230, Note_on_c, 9, 82, 0
11, 70320, Note_on_c, 9, 40, 100
11, 70320, Note_on_c, 9, 69, 100
11, 70350, Note_on_c, 9, 69, 0
11, 70350, Note_on_c, 9, 40, 0
11, 70380, Note_on_c, 9, 35, 100
11, 70410, Note_on_c, 9, 35, 0
11, 70440, Note_on_c, 9, 54, 100
11, 70440, Note_on_c, 9, 69, 100
11, 70470, Note_on_c, 9, 69, 0
11, 70470, Note_on_c, 9, 54, 0
11, 70560, Note_on_c, 9, 36, 100
11, 70560, Note_on_c, 9, 54, 100
11, 70560, Note_on_c, 9, 54, 100
11, 70560, Note_on_c, 9, 69, 100
11, 70590, Note_on_c, 9, 69, 0
11, 70590, Note_on_c, 9, 36, 0
11, 70590, Note_on_c, 9, 54, 0
11, 70590, Note_on_c, 9, 54, 0
11, 70680, Note_on_c, 9, 54, 100
11, 70680, Note_on_c, 9, 54, 100
11, 70680, Note_on_c, 9, 69, 100
11, 70710, Note_on_c, 9, 69, 0
11, 70710, Note_on_c, 9, 54, 0
11, 70710, Note_on_c, 9, 54, 0
11, 70800, Note_on_c, 9, 38, 100
11, 70800, Note_on_c, 9, 69, 100
11, 70830, Note_on_c, 9, 69, 0
11, 70830, Note_on_c, 9, 38, 0
11, 70920, Note_on_c, 9, 69, 100
11, 70950, Note_on_c, 9, 69, 0
11, 71040, Note_on_c, 9, 54, 100
11, 71040, Note_on_c, 9, 54, 100
11, 71040, Note_on_c, 9, 82, 100
11, 71040, Note_on_c, 9, 69, 100
11, 71070, Note_on_c, 9, 69, 0
11, 71070, Note_on_c, 9, 54, 0
11, 71070, Note_on_c, 9, 54, 0
11, 71070, Note_on_c, 9, 82, 0
11, 71100, Note_on_c, 9, 54, 100
11, 71100, Note_on_c, 9, 54, 100
11, 71100, Note_on_c, 9, 82, 100
11, 71130, Note_on_c, 9, 82, 0
11, 71130, Note_on_c, 9, 54, 0
11, 71130, Note_on_c, 9, 54, 0
11, 71160, Note_on_c, 9, 36, 100
11, 71160, Note_on_c, 9, 54, 100
11, 71160, Note_on_c, 9, 54, 100
11, 71160, Note_on_c, 9, 82, 100
11, 71160, Note_on_c, 9, 69, 100
11, 71190, Note_on_c, 9, 69, 0
11, 71190, Note_on_c, 9, 54, 0
11, 71190, Note_on_c, 9, 36, 0
11, 71190, Note_on_c, 9, 54, 0
11, 71190, Note_on_c, 9, 82, 0
11, 71220, Note_on_c, 9, 35, 100
11, 71250, Note_on_c, 9, 35, 0
11, 71280, Note_on_c, 9, 38, 100
11, 71280, Note_on_c, 9, 69, 100
11, 71310, Note_on_c, 9, 69, 0
11, 71310, Note_on_c, 9, 38, 0
11, 71340, Note_on_c, 9, 36, 100
11, 71370, Note_on_c, 9, 36, 0
11, 71400, Note_on_c, 9, 35, 100
11, 71400, Note_on_c, 9, 54, 100
11, 71400, Note_on_c, 9, 54, 100
11, 71400, Note_on_c, 9, 69, 100
11, 71430, Note_on_c, 9, 69, 0
11, 71430, Note_on_c, 9, 35, 0
11, 71430, Note_on_c, 9, 54, 0
11, 71430, Note_on_c, 9, 54, 0
11, 71520, Note_on_c, 9, 35, 100
11, 71520, Note_on_c, 9, 54, 100
11, 71520, Note_on_c, 9, 69, 100
11, 71550, Note_on_c, 9, 69, 0
11, 71550, Note_on_c, 9, 54, 0
11, 71550, Note_on_c, 9, 35, 0
11, 71550, Note_on_c, 9, 69, 100
11, 71580, Note_on_c, 9, 69, 0
11, 71640, Note_on_c, 9, 54, 100
11, 71640, Note_on_c, 9, 69, 100
11, 71670, Note_on_c, 9, 69, 0
11, 71670, Note_on_c, 9, 54, 0
11, 71760, Note_on_c, 9, 40, 100
11, 71760, Note_on_c, 9, 69, 100
11, 71790, Note_on_c, 9, 69, 0
11, 71790, Note_on_c, 9, 40, 0
11, 71880, Note_on_c, 9, 69, 100
11, 71910, Note_on_c, 9, 69, 0
11, 72000, Note_on_c, 9, 54, 100
11, 72000, Note_on_c, 9, 82, 100
11, 72000, Note_on_c, 9, 69, 100
11, 72030, Note_on_c, 9, 69, 0
11, 72030, Note_on_c, 9, 82, 0
11, 72030, Note_on_c, 9, 54, 0
11, 72060, Note_on_c, 9, 54, 100
11, 72060, Note_on_c, 9, 82, 100
11, 72090, Note_on_c, 9, 82, 0
11, 72090, Note_on_c, 9, 54, 0
11, 72120, Note_on_c, 9, 35, 100
11, 72120, Note_on_c, 9, 54, 100
11, 72120, Note_on_c, 9, 82, 100
11, 72120, Note_on_c, 9, 69, 100
11, 72150, Note_on_c, 9, 69, 0
11, 72150, Note_on_c, 9, 35, 0
11, 72150, Note_on_c, 9, 54, 0
11, 72150, Note_on_c, 9, 82, 0
11, 72240, Note_on_c, 9, 40, 100
11, 72240, Note_on_c, 9, 69, 100
11, 72270, Note_on_c, 9, 69, 0
11, 72270, Note_on_c, 9, 40, 0
11, 72300, Note_on_c, 9, 35, 100
11, 72330, Note_on_c, 9, 35, 0
11, 72360, Note_on_c, 9, 54, 100
11, 72360, Note_on_c, 9, 69, 100
11, 72390, Note_on_c, 9, 69, 0
11, 72390, Note_on_c, 9, 54, 0
11, 72480, Note_on_c, 9, 36, 100
11, 72480, Note_on_c, 9, 54, 100
11, 72480, Note_on_c, 9, 69, 100
11, 72510, Note_on_c, 9, 69, 0
11, 72510, Note_on_c, 9, 54, 0
11, 72510, Note_on_c, 9, 36, 0
11, 72600, Note_on_c, 9, 54, 100
11, 72600, Note_on_c, 9, 69, 100
11, 72630, Note_on_c, 9, 69, 0
11, 72630, Note_on_c, 9, 54, 0
11, 72720, Note_on_c, 9, 38, 100
11, 72720, Note_on_c, 9, 69, 100
11, 72750, Note_on_c, 9, 69, 0
11, 72750, Note_on_c, 9, 38, 0
11, 72840, Note_on_c, 9, 69, 100
11, 72870, Note_on_c, 9, 69, 0
11, 72960, Note_on_c, 9, 54, 100
11, 72960, Note_on_c, 9, 38, 100
11, 72960, Note_on_c, 9, 82, 100
11, 72960, Note_on_c, 9, 82, 100
11, 72960, Note_on_c, 9, 69, 100
11, 72960, Note_on_c, 9, 69, 100
11, 72990, Note_on_c, 9, 69, 0
11, 72990, Note_on_c, 9, 38, 0
11, 72990, Note_on_c, 9, 82, 0
11, 72990, Note_on_c, 9, 54, 0
11, 72990, Note_on_c, 9, 69, 0
11, 72990, Note_on_c, 9, 82, 0
11, 73020, Note_on_c, 9, 54, 100
11, 73020, Note_on_c, 9, 38, 100
11, 73020, Note_on_c, 9, 82, 100
11, 73020, Note_on_c, 9, 82, 100
11, 73020, Note_on_c, 9, 69, 100
11, 73050, Note_on_c, 9, 69, 0
11, 73050, Note_on_c, 9, 82, 0
11, 73050, Note_on_c, 9, 54, 0
11, 73050, Note_on_c, 9, 38, 0
11, 73050, Note_on_c, 9, 82, 0
11, 73080, Note_on_c, 9, 36, 100
11, 73080, Note_on_c, 9, 54, 100
11, 73080, Note_on_c, 9, 82, 100
11, 73080, Note_on_c, 9, 82, 100
11, 73080, Note_on_c, 9, 69, 100
11, 73080, Note_on_c, 9, 69, 100
11, 73110, Note_on_c, 9, 69, 0
11, 73110, Note_on_c, 9, 54, 0
11, 73110, Note_on_c, 9, 82, 0
11, 73110, Note_on_c, 9, 36, 0
11, 73110, Note_on_c, 9, 69, 0
11, 73110, Note_on_c, 9, 82, 0
11, 73140, Note_on_c, 9, 35, 100
11, 73170, Note_on_c, 9, 35, 0
11, 73200, Note_on_c, 9, 38, 100
11, 73200, Note_on_c, 9, 69, 100
11, 73230, Note_on_c, 9, 69, 0
11, 73230, Note_on_c, 9, 38, 0
11, 73260, Note_on_c, 9, 36, 100
11, 73260, Note_on_c, 9, 38, 100
11, 73290, Note_on_c, 9, 38, 0
11, 73290, Note_on_c, 9, 36, 0
11, 73320, Note_on_c, 9, 35, 100
11, 73320, Note_on_c, 9, 54, 100
11, 73320, Note_on_c, 9, 69, 100
11, 73350, Note_on_c, 9, 69, 0
11, 73350, Note_on_c, 9, 54, 0
11, 73350, Note_on_c, 9, 35, 0
11, 75360, Note_on_c, 9, 35, 100
11, 75360, Note_on_c, 9, 54, 100
11, 75360, Note_on_c, 9, 69, 100
11, 75390, Note_on_c, 9, 69, 0
11, 75390, Note_on_c, 9, 54, 0
11, 75390, Note_on_c, 9, 35, 0
11, 75390, Note_on_c, 9, 69, 100
11, 75420, Note_on_c, 9, 69, 0
11, 75480, Note_on_c, 9, 54, 100
11, 75480, Note_on_c, 9, 69, 100
11, 75510, Note_on_c, 9, 69, 0
11, 75510, Note_on_c, 9, 54, 0
11, 75600, Note_on_c, 9, 40, 100
11, 75600, Note_on_c, 9, 69, 100
11, 75630, Note_on_c, 9, 69, 0
11, 75630, Note_on_c, 9, 40, 0
11, 75720, Note_on_c, 9, 69, 100
11, 75750, Note_on_c, 9, 69, 0
11, 75840, Note_on_c, 9, 54, 100
11, 75840, Note_on_c, 9, 82, 100
11, 75840, Note_on_c, 9, 69, 100
11, 75870, Note_on_c, 9, 69, 0
11, 75870, Note_on_c, 9, 82, 0
11, 75870, Note_on_c, 9, 54, 0
11, 75900, Note_on_c, 9, 54, 100
11, 75900, Note_on_c, 9, 82, 100
11, 75930, Note_on_c, 9, 82, 0
11, 75930, Note_on_c, 9, 54, 0
11, 75960, Note_on_c, 9, 35, 100
11, 75960, Note_on_c, 9, 54, 100
11, 75960, Note_on_c, 9, 82, 100
11, 75960, Note_on_c, 9, 69, 100
11, 75990, Note_on_c, 9, 69, 0
11, 75990, Note_on_c, 9, 35, 0
11, 75990, Note_on_c, 9, 54, 0
11, 75990, Note_on_c, 9, 82, 0
11, 76080, Note_on_c, 9, 40, 100
11, 76080, Note_on_c, 9, 69, 100
11, 76110, Note_on_c, 9, 69, 0
11, 76110, Note_on_c, 9, 40, 0
11, 76140, Note_on_c, 9, 35, 100
11, 76170, Note_on_c, 9, 35, 0
11, 76200, Note_on_c, 9, 54, 100
11, 76200, Note_on_c, 9, 69, 100
11, 76230, Note_on_c, 9, 69, 0
11, 76230, Note_on_c, 9, 54, 0
11, 76320, Note_on_c, 9, 36, 100
11, 76320, Note_on_c, 9, 54, 100
11, 76320, Note_on_c, 9, 54, 100
11, 76320, Note_on_c, 9, 69, 100
11, 76350, Note_on_c, 9, 69, 0
11, 76350, Note_on_c, 9, 36, 0
11, 76350, Note_on_c, 9, 54, 0
11, 76350, Note_on_c, 9, 54, 0
11, 76440, Note_on_c, 9, 54, 100
11, 76440, Note_on_c, 9, 54, 100
11, 76440, Note_on_c, 9, 69, 100
11, 76470, Note_on_c, 9, 69, 0
11, 76470, Note_on_c, 9, 54, 0
11, 76470, Note_on_c, 9, 54, 0
11, 76560, Note_on_c, 9, 38, 100
11, 76560, Note_on_c, 9, 69, 100
11, 76590, Note_on_c, 9, 69, 0
11, 76590, Note_on_c, 9, 38, 0
11, 76680, Note_on_c, 9, 69, 100
11, 76710, Note_on_c, 9, 69, 0
11, 76800, Note_on_c, 9, 54, 100
11, 76800, Note_on_c, 9, 54, 100
11, 76800, Note_on_c, 9, 82, 100
11, 76800, Note_on_c, 9, 69, 100
11, 76830, Note_on_c, 9, 69, 0
11, 76830, Note_on_c, 9, 54, 0
11, 76830, Note_on_c, 9, 54, 0
11, 76830, Note_on_c, 9, 82, 0
11, 76860, Note_on_c, 9, 54, 100
11, 76860, Note_on_c, 9, 54, 100
11, 76860, Note_on_c, 9, 82, 100
11, 76890, Note_on_c, 9, 82, 0
11, 76890, Note_on_c, 9, 54, 0
11, 76890, Note_on_c, 9, 54, 0
11, 76920, Note_on_c, 9, 36, 100
11, 76920, Note_on_c, 9, 54, 100
11, 76920, Note_on_c, 9, 54, 100
11, 76920, Note_on_c, 9, 82, 100
11, 76920, Note_on_c, 9, 69, 100
11, 76950, Note_on_c, 9, 69, 0
11, 76950, Note_on_c, 9, 54, 0
11, 76950, Note_on_c, 9, 36, 0
11, 76950, Note_on_c, 9, 54, 0
11, 76950, Note_on_c, 9, 82, 0
11, 76980, Note_on_c, 9, 35, 100
11, 77010, Note_on_c, 9, 35, 0
11, 77040, Note_on_c, 9, 38, 100
11, 77040, Note_on_c, 9, 69, 100
11, 77070, Note_on_c, 9, 69, 0
11, 77070, Note_on_c, 9, 38, 0
11, 77100, Note_on_c, 9, 36, 100
11, 77130, Note_on_c, 9, 36, 0
11, 77160, Note_on_c, 9, 35, 100
11, 77160, Note_on_c, 9, 54, 100
11, 77160, Note_on_c, 9, 54, 100
11, 77160, Note_on_c, 9, 69, 100
11, 77190, Note_on_c, 9, 69, 0
11, 77190, Note_on_c, 9, 35, 0
11, 77190, Note_on_c, 9, 54, 0
11, 77190, Note_on_c, 9, 54, 0
11, 77280, Note_on_c, 9, 35, 100
11, 77280, Note_on_c, 9, 54, 100
11, 77280, Note_on_c, 9, 69, 100
11, 77310, Note_on_c, 9, 69, 0
11, 77310, Note_on_c, 9, 54, 0
11, 77310, Note_on_c, 9, 35, 0
11, 77310, Note_on_c, 9, 69, 100
11, 77340, Note_on_c, 9, 69, 0
11, 77400, Note_on_c, 9, 54, 100
11, 77400, Note_on_c, 9, 69, 100
11, 77430, Note_on_c, 9, 69, 0
11, 77430, Note_on_c, 9, 54, 0
11, 77520, Note_on_c, 9, 40, 100
11, 77520, Note_on_c, 9, 69, 100
11, 77550, Note_on_c, 9, 69, 0
11, 77550, Note_on_c, 9, 40, 0
11, 77640, Note_on_c, 9, 69, 100
11, 77670, Note_on_c, 9, 69, 0
11, 77760, Note_on_c, 9, 54, 100
11, 77760, Note_on_c, 9, 82, 100
11, 77760, Note_on_c, 9, 69, 100
11, 77790, Note_on_c, 9, 69, 0
11, 77790, Note_on_c, 9, 82, 0
11, 77790, Note_on_c, 9, 54, 0
11, 77820, Note_on_c, 9, 54, 100
11, 77820, Note_on_c, 9, 82, 100
11, 77850, Note_on_c, 9, 82, 0
11, 77850, Note_on_c, 9, 54, 0
11, 77880, Note_on_c, 9, 35, 100
11, 77880, Note_on_c, 9, 54, 100
11, 77880, Note_on_c, 9, 82, 100
11, 77880, Note_on_c, 9, 69, 100
11, 77910, Note_on_c, 9, 69, 0
11, 77910, Note_on_c, 9, 35, 0
11, 77910, Note_on_c, 9, 54, 0
11, 77910, Note_on_c, 9, 82, 0
11, 78000, Note_on_c, 9, 40, 100
11, 78000, Note_on_c, 9, 69, 100
11, 78030, Note_on_c, 9, 69, 0
11, 78030, Note_on_c, 9, 40, 0
11, 78060, Note_on_c, 9, 35, 100
11, 78090, Note_on_c, 9, 35, 0
11, 78120, Note_on_c, 9, 54, 100
11, 78120, Note_on_c, 9, 69, 100
11, 78150, Note_on_c, 9, 69, 0
11, 78150, Note_on_c, 9, 54, 0
11, 78240, Note_on_c, 9, 36, 100
11, 78240, Note_on_c, 9, 54, 100
11, 78240, Note_on_c, 9, 69, 100
11, 78270, Note_on_c, 9, 69, 0
11, 78270, Note_on_c, 9, 54, 0
11, 78270, Note_on_c, 9, 36, 0
11, 78360, Note_on_c, 9, 54, 100
11, 78360, Note_on_c, 9, 69, 100
11, 78390, Note_on_c, 9, 69, 0
11, 78390, Note_on_c, 9, 54, 0
11, 78480, Note_on_c, 9, 38, 100
11, 78480, Note_on_c, 9, 69, 100
11, 78510, Note_on_c, 9, 69, 0
11, 78510, Note_on_c, 9, 38, 0
11, 78600, Note_on_c, 9, 69, 100
11, 78630, Note_on_c, 9, 69, 0
11, 78720, Note_on_c, 9, 54, 100
11, 78720, Note_on_c, 9, 38, 100
11, 78720, Note_on_c, 9, 82, 100
11, 78720, Note_on_c, 9, 82, 100
11, 78720, Note_on_c, 9, 69, 100
11, 78720, Note_on_c, 9, 69, 100
11, 78750, Note_on_c, 9, 69, 0
11, 78750, Note_on_c, 9, 38, 0
11, 78750, Note_on_c, 9, 82, 0
11, 78750, Note_on_c, 9, 54, 0
11, 78750, Note_on_c, 9, 69, 0
11, 78750, Note_on_c, 9, 82, 0
11, 78780, Note_on_c, 9, 54, 100
11, 78780, Note_on_c, 9, 38, 100
11, 78780, Note_on_c, 9, 82, 100
11, 78780, Note_on_c, 9, 82, 100
11, 78780, Note_on_c, 9, 69, 100
11, 78810, Note_on_c, 9, 69, 0
11, 78810, Note_on_c, 9, 82, 0
11, 78810, Note_on_c, 9, 54, 0
11, 78810, Note_on_c, 9, 38, 0
11, 78810, Note_on_c, 9, 82, 0
11, 78840, Note_on_c, 9, 36, 100
11, 78840, Note_on_c, 9, 54, 100
11, 78840, Note_on_c, 9, 82, 100
11, 78840, Note_on_c, 9, 82, 100
11, 78840, Note_on_c, 9, 69, 100
11, 78840, Note_on_c, 9, 69, 100
11, 78870, Note_on_c, 9, 69, 0
11, 78870, Note_on_c, 9, 54, 0
11, 78870, Note_on_c, 9, 82, 0
11, 78870, Note_on_c, 9, 36, 0
11, 78870, Note_on_c, 9, 69, 0
11, 78870, Note_on_c, 9, 82, 0
11, 78900, Note_on_c, 9, 35, 100
11, 78930, Note_on_c, 9, 35, 0
11, 78960, Note_on_c, 9, 38, 100
11, 78960, Note_on_c, 9, 69, 100
11, 78990, Note_on_c, 9, 69, 0
11, 78990, Note_on_c, 9, 38, 0
11, 79020, Note_on_c, 9, 36, 100
11, 79020, Note_on_c, 9, 38, 100
11, 79050, Note_on_c, 9, 38, 0
11, 79050, Note_on_c, 9, 36, 0
11, 79080, Note_on_c, 9, 35, 100
11, 79080, Note_on_c, 9, 54, 100
11, 79080, Note_on_c, 9, 69, 100
11, 79110, Note_on_c, 9, 69, 0
11, 79110, Note_on_c, 9, 54, 0
11, 79110, Note_on_c, 9, 35, 0
11, 79200, Note_on_c, 9, 35, 100
11, 79200, Note_on_c, 9, 54, 100
11, 79200, Note_on_c, 9, 69, 100
11, 79230, Note_on_c, 9, 69, 0
11, 79230, Note_on_c, 9, 54, 0
11, 79230, Note_on_c, 9, 35, 0
11, 79230, Note_on_c, 9, 69, 100
11, 79260, Note_on_c, 9, 69, 0
11, 79320, Note_on_c, 9, 54, 100
11, 79320, Note_on_c, 9, 69, 100
11, 79350, Note_on_c, 9, 69, 0
11, 79350, Note_on_c, 9, 54, 0
11, 79440, Note_on_c, 9, 40, 100
11, 79440, Note_on_c, 9, 69, 100
11, 79470, Note_on_c, 9, 69, 0
11, 79470, Note_on_c, 9, 40, 0
11, 79560, Note_on_c, 9, 69, 100
11, 79590, Note_on_c, 9, 69, 0
11, 79680, Note_on_c, 9, 54, 100
11, 79680, Note_on_c, 9, 82, 100
11, 79680, Note_on_c, 9, 69, 100
11, 79710, Note_on_c, 9, 69, 0
11, 79710, Note_on_c, 9, 82, 0
11, 79710, Note_on_c, 9, 54, 0
11, 79740, Note_on_c, 9, 54, 100
11, 79740, Note_on_c, 9, 82, 100
11, 79770, Note_on_c, 9, 82, 0
11, 79770, Note_on_c, 9, 54, 0
11, 79800, Note_on_c, 9, 35, 100
11, 79800, Note_on_c, 9, 54, 100
11, 79800, Note_on_c, 9, 82, 100
11, 79800, Note_on_c, 9, 69, 100
11, 79830, Note_on_c, 9, 69, 0
11, 79830, Note_on_c, 9, 35, 0
11, 79830, Note_on_c, 9, 54, 0
11, 79830, Note_on_c, 9, 82, 0
11, 79920, Note_on_c, 9, 40, 100
11, 79920, Note_on_c, 9, 69, 100
11, 79950, Note_on_c, 9, 69, 0
11, 79950, Note_on_c, 9, 40, 0
11, 79980, Note_on_c, 9, 35, 100
11, 80010, Note_on_c, 9, 35, 0
11, 80040, Note_on_c, 9, 54, 100
11, 80040, Note_on_c, 9, 69, 100
11, 80070, Note_on_c, 9, 69, 0
11, 80070, Note_on_c, 9, 54, 0
11, 80160, Note_on_c, 9, 36, 100
11, 80160, Note_on_c, 9, 54, 100
11, 80160, Note_on_c, 9, 54, 100
11, 80160, Note_on_c, 9, 69, 100
11, 80190, Note_on_c, 9, 69, 0
11, 80190, Note_on_c, 9, 36, 0
11, 80190, Note_on_c, 9, 54, 0
11, 80190, Note_on_c, 9, 54, 0
11, 80280, Note_on_c, 9, 54, 100
11, 80280, Note_on_c, 9, 54, 100
11, 80280, Note_on_c, 9, 69, 100
11, 80310, Note_on_c, 9, 69, 0
11, 80310, Note_on_c, 9, 54, 0
11, 80310, Note_on_c, 9, 54, 0
11, 80400, Note_on_c, 9, 38, 100
11, 80400, Note_on_c, 9, 69, 100
11, 80430, Note_on_c, 9, 69, 0
11, 80430, Note_on_c, 9, 38, 0
11, 80520, Note_on_c, 9, 69, 100
11, 80550, Note_on_c, 9, 69, 0
11, 80640, Note_on_c, 9, 54, 100
11, 80640, Note_on_c, 9, 54, 100
11, 80640, Note_on_c, 9, 82, 100
11, 80640, Note_on_c, 9, 69, 100
11, 80670, Note_on_c, 9, 69, 0
11, 80670, Note_on_c, 9, 54, 0
11, 80670, Note_on_c, 9, 54, 0
11, 80670, Note_on_c, 9, 82, 0
11, 80700, Note_on_c, 9, 54, 100
11, 80700, Note_on_c, 9, 54, 100
11, 80700, Note_on_c, 9, 82, 100
11, 80730, Note_on_c, 9, 82, 0
11, 80730, Note_on_c, 9, 54, 0
11, 80730, Note_on_c, 9, 54, 0
11, 80760, Note_on_c, 9, 36, 100
11, 80760, Note_on_c, 9, 54, 100
11, 80760, Note_on_c, 9, 54, 100
11, 80760, Note_on_c, 9, 82, 100
11, 80760, Note_on_c, 9, 69, 100
11, 80790, Note_on_c, 9, 69, 0
11, 80790, Note_on_c, 9, 54, 0
11, 80790, Note_on_c, 9, 36, 0
11, 80790, Note_on_c, 9, 54, 0
11, 80790, Note_on_c, 9, 82, 0
11, 80820, Note_on_c, 9, 35, 100
11, 80850, Note_on_c, 9, 35, 0
11, 80880, Note_on_c, 9, 38, 100
11, 80880, Note_on_c, 9, 69, 100
11, 80910, Note_on_c, 9, 69, 0
11, 80910, Note_on_c, 9, 38, 0
11, 80940, Note_on_c, 9, 36, 100
11, 80970, Note_on_c, 9, 36, 0
11, 81000, Note_on_c, 9, 35, 100
11, 81000, Note_on_c, 9, 54, 100
11, 81000, Note_on_c, 9, 54, 100
11, 81000, Note_on_c, 9, 69, 100
11, 81030, Note_on_c, 9, 69, 0
11, 81030, Note_on_c, 9, 35, 0
11, 81030, Note_on_c, 9, 54, 0
11, 81030, Note_on_c, 9, 54, 0
11, 81120, Note_on_c, 9, 35, 100
11, 81120, Note_on_c, 9, 54, 100
11, 81120, Note_on_c, 9, 69, 100
11, 81150, Note_on_c, 9, 69, 0
11, 81150, Note_on_c, 9, 54, 0
11, 81150, Note_on_c, 9, 35, 0
11, 81150, Note_on_c, 9, 69, 100
11, 81180, Note_on_c, 9, 69, 0
11, 81240, Note_on_c, 9, 54, 100
11, 81240, Note_on_c, 9, 69, 100
11, 81270, Note_on_c, 9, 69, 0
11, 81270, Note_on_c, 9, 54, 0
11, 81360, Note_on_c, 9, 40, 100
11, 81360, Note_on_c, 9, 69, 100
11, 81390, Note_on_c, 9, 69, 0
11, 81390, Note_on_c, 9, 40, 0
11, 81480, Note_on_c, 9, 69, 100
11, 81510, Note_on_c, 9, 69, 0
11, 81600, Note_on_c, 9, 54, 100
11, 81600, Note_on_c, 9, 82, 100
11, 81600, Note_on_c, 9, 69, 100
11, 81630, Note_on_c, 9, 69, 0
11, 81630, Note_on_c, 9, 82, 0
11, 81630, Note_on_c, 9, 54, 0
11, 81660, Note_on_c, 9, 54, 100
11, 81660, Note_on_c, 9, 82, 100
11, 81690, Note_on_c, 9, 82, 0
11, 81690, Note_on_c, 9, 54, 0
11, 81720, Note_on_c, 9, 35, 100
11, 81720, Note_on_c, 9, 54, 100
11, 81720, Note_on_c, 9, 82, 100
11, 81720, Note_on_c, 9, 69, 100
11, 81750, Note_on_c, 9, 69, 0
11, 81750, Note_on_c, 9, 35, 0
11, 81750, Note_on_c, 9, 54, 0
11, 81750, Note_on_c, 9, 82, 0
11, 81840, Note_on_c, 9, 40, 100
11, 81840, Note_on_c, 9, 69, 100
11, 81870, Note_on_c, 9, 69, 0
11, 81870, Note_on_c, 9, 40, 0
11, 81900, Note_on_c, 9, 35, 100
11, 81930, Note_on_c, 9, 35, 0
11, 81960, Note_on_c, 9, 54, 100
11, 81960, Note_on_c, 9, 69, 100
11, 81990, Note_on_c, 9, 69, 0
11, 81990, Note_on_c, 9, 54, 0
11, 82080, Note_on_c, 9, 36, 100
11, 82080, Note_on_c, 9, 54, 100
11, 82080, Note_on_c, 9, 69, 100
11, 82110, Note_on_c, 9, 69, 0
11, 82110, Note_on_c, 9, 54, 0
11, 82110, Note_on_c, 9, 36, 0
11, 82200, Note_on_c, 9, 54, 100
11, 82200, Note_on_c, 9, 69, 100
11, 82230, Note_on_c, 9, 69, 0
11, 82230, Note_on_c, 9, 54, 0
11, 82320, Note_on_c, 9, 38, 100
11, 82320, Note_on_c, 9, 69, 100
11, 82350, Note_on_c, 9, 69, 0
11, 82350, Note_on_c, 9, 38, 0
11, 82440, Note_on_c, 9, 69, 100
11, 82470, Note_on_c, 9, 69, 0
11, 82560, Note_on_c, 9, 54, 100
11, 82560, Note_on_c, 9, 38, 100
11, 82560, Note_on_c, 9, 82, 100
11, 82560, Note_on_c, 9, 82, 100
11, 82560, Note_on_c, 9, 69, 100
11, 82560, Note_on_c, 9, 69, 100
11, 82590, Note_on_c, 9, 69, 0
11, 82590, Note_on_c, 9, 38, 0
11, 82590, Note_on_c, 9, 82, 0
11, 82590, Note_on_c, 9, 54, 0
11, 82590, Note_on_c, 9, 69, 0
11, 82590, Note_on_c, 9, 82, 0
11, 82620, Note_on_c, 9, 54, 100
11, 82620, Note_on_c, 9, 38, 100
11, 82620, Note_on_c, 9, 82, 100
11, 82620, Note_on_c, 9, 82, 100
11, 82620, Note_on_c, 9, 69, 100
11, 82650, Note_on_c, 9, 69, 0
11, 82650, Note_on_c, 9, 82, 0
11, 82650, Note_on_c, 9, 54, 0
11, 82650, Note_on_c, 9, 38, 0
11, 82650, Note_on_c, 9, 82, 0
11, 82680, Note_on_c, 9, 36, 100
11, 82680, Note_on_c, 9, 54, 100
11, 82680, Note_on_c, 9, 82, 100
11, 82680, Note_on_c, 9, 82, 100
11, 82680, Note_on_c, 9, 69, 100
11, 82680, Note_on_c, 9, 69, 100
11, 82710, Note_on_c, 9, 69, 0
11, 82710, Note_on_c, 9, 54, 0
11, 82710, Note_on_c, 9, 82, 0
11, 82710, Note_on_c, 9, 36, 0
11, 82710, Note_on_c, 9, 69, 0
11, 82710, Note_on_c, 9, 82, 0
11, 82740, Note_on_c, 9, 35, 100
11, 82770, Note_on_c, 9, 35, 0
11, 82800, Note_on_c, 9, 38, 100
11, 82800, Note_on_c, 9, 69, 100
11, 82830, Note_on_c, 9, 69, 0
11, 82830, Note_on_c, 9, 38, 0
11, 82860, Note_on_c, 9, 36, 100
11, 82860, Note_on_c, 9, 38, 100
11, 82890, Note_on_c, 9, 38, 0
11, 82890, Note_on_c, 9, 36, 0
11, 82920, Note_on_c, 9, 35, 100
11, 82920, Note_on_c, 9, 54, 100
11, 82920, Note_on_c, 9, 69, 100
11, 82950, Note_on_c, 9, 69, 0
11, 82950, Note_on_c, 9, 54, 0
11, 82950, Note_on_c, 9, 35, 0
11, 82950, End_track
12, 0, Start_track
12, 0, MIDI_port, 0
12, 0, Title_t, ""
12, 0, End_track
13, 0, Start_track
13, 0, MIDI_port, 0
13, 0, Title_t, ""
13, 0, End_track
0, 0, End_of_file
