0, 0, Header, 1, 9, 480
1, 0, Start_track
1, 0, System_exclusive, 5, 126, 127, 9, 1, 247
1, 0, SMPTE_offset, 0, 0, 0, 0, 0
1, 0, Tempo, 705799
1, 0, Time_signature, 4, 2, 24, 8
1, 0, Key_signature, 0, "major"
1, 0, End_track
2, 0, Start_track
2, 0, Title_t, "tk1"
2, 0, MIDI_port, 0
2, 0, Channel_prefix, 0
2, 0, Control_c, 0, 7, 117
2, 0, Control_c, 0, 10, 30
2, 50, System_exclusive, 5, 126, 127, 9, 1, 247
2, 480, Control_c, 0, 120, 0
2, 480, Control_c, 0, 121, 0
2, 580, Program_c, 0, 1
2, 580, Control_c, 0, 11, 127
2, 580, Control_c, 0, 93, 0
2, 620, Control_c, 0, 91, 64
2, 700, Control_c, 0, 7, 117
2, 700, Control_c, 0, 10, 30
2, 3840, Note_on_c, 0, 52, 102
2, 3840, Note_on_c, 0, 45, 107
2, 3840, Note_on_c, 0, 55, 93
2, 3840, Note_on_c, 0, 64, 93
2, 3840, Note_on_c, 0, 61, 93
2, 3935, Note_off_c, 0, 64, 64
2, 3935, Note_off_c, 0, 55, 64
2, 3945, Note_off_c, 0, 52, 64
2, 3945, Note_off_c, 0, 61, 64
2, 3950, Note_off_c, 0, 45, 64
2, 4160, Note_on_c, 0, 64, 85
2, 4160, Note_on_c, 0, 61, 76
2, 4160, Note_on_c, 0, 45, 98
2, 4160, Note_on_c, 0, 52, 93
2, 4160, Note_on_c, 0, 55, 89
2, 4250, Note_off_c, 0, 55, 64
2, 4255, Note_off_c, 0, 45, 64
2, 4265, Note_off_c, 0, 64, 64
2, 4300, Note_off_c, 0, 61, 64
2, 4320, Note_on_c, 0, 54, 93
2, 4320, Note_on_c, 0, 66, 102
2, 4320, Note_on_c, 0, 57, 85
2, 4320, Note_on_c, 0, 45, 85
2, 4320, Note_on_c, 0, 62, 89
2, 4330, Note_off_c, 0, 52, 64
2, 4410, Note_off_c, 0, 66, 64
2, 4415, Note_off_c, 0, 54, 64
2, 4415, Note_off_c, 0, 57, 64
2, 4420, Note_off_c, 0, 45, 64
2, 4425, Note_off_c, 0, 62, 64
2, 4640, Note_on_c, 0, 62, 89
2, 4640, Note_on_c, 0, 45, 98
2, 4640, Note_on_c, 0, 54, 98
2, 4640, Note_on_c, 0, 66, 89
2, 4640, Note_on_c, 0, 57, 60
2, 4725, Note_off_c, 0, 45, 64
2, 4745, Note_off_c, 0, 57, 64
2, 4750, Note_off_c, 0, 66, 64
2, 4760, Note_off_c, 0, 62, 64
2, 4795, Note_off_c, 0, 54, 64
2, 4800, Note_on_c, 0, 52, 98
2, 4800, Note_on_c, 0, 64, 68
2, 4800, Note_on_c, 0, 45, 80
2, 4800, Note_on_c, 0, 55, 80
2, 4800, Note_on_c, 0, 61, 72
2, 4895, Note_off_c, 0, 55, 64
2, 4915, Note_off_c, 0, 45, 64
2, 4915, Note_off_c, 0, 52, 64
2, 4925, Note_off_c, 0, 61, 64
2, 4935, Note_off_c, 0, 64, 64
2, 5120, Note_on_c, 0, 52, 89
2, 5120, Note_on_c, 0, 45, 89
2, 5120, Note_on_c, 0, 64, 45
2, 5120, Note_on_c, 0, 55, 62
2, 5120, Note_on_c, 0, 61, 64
2, 5200, Note_off_c, 0, 45, 64
2, 5210, Note_off_c, 0, 55, 64
2, 5230, Note_off_c, 0, 64, 64
2, 5235, Note_off_c, 0, 52, 64
2, 5255, Note_off_c, 0, 61, 64
2, 5280, Note_on_c, 0, 45, 102
2, 5280, Note_on_c, 0, 54, 107
2, 5280, Note_on_c, 0, 66, 89
2, 5280, Note_on_c, 0, 62, 85
2, 5430, Note_off_c, 0, 66, 64
2, 5440, Note_off_c, 0, 62, 64
2, 5440, Note_on_c, 0, 55, 102
2, 5480, Note_off_c, 0, 45, 64
2, 5600, Note_on_c, 0, 56, 98
2, 5600, Note_on_c, 0, 45, 93
2, 5600, Note_on_c, 0, 52, 89
2, 5605, Note_off_c, 0, 54, 64
2, 5620, Note_off_c, 0, 55, 64
2, 5680, Note_off_c, 0, 52, 64
2, 5705, Note_off_c, 0, 56, 64
2, 5760, Note_on_c, 0, 40, 93
2, 5760, Note_on_c, 0, 64, 89
2, 5760, Note_on_c, 0, 62, 93
2, 5760, Note_on_c, 0, 47, 107
2, 5760, Note_on_c, 0, 59, 98
2, 5765, Note_off_c, 0, 45, 64
2, 5845, Note_off_c, 0, 47, 64
2, 5855, Note_off_c, 0, 62, 64
2, 5865, Note_off_c, 0, 59, 64
2, 5870, Note_off_c, 0, 64, 64
2, 5880, Note_off_c, 0, 40, 64
2, 6080, Note_on_c, 0, 40, 89
2, 6080, Note_on_c, 0, 47, 98
2, 6080, Note_on_c, 0, 64, 102
2, 6080, Note_on_c, 0, 62, 93
2, 6080, Note_on_c, 0, 59, 102
2, 6175, Note_off_c, 0, 40, 64
2, 6200, Note_off_c, 0, 62, 64
2, 6230, Note_off_c, 0, 59, 64
2, 6235, Note_off_c, 0, 47, 64
2, 6240, Note_on_c, 0, 57, 80
2, 6240, Note_on_c, 0, 49, 93
2, 6240, Note_on_c, 0, 40, 85
2, 6240, Note_on_c, 0, 61, 76
2, 6315, Note_off_c, 0, 57, 64
2, 6320, Note_off_c, 0, 61, 64
2, 6340, Note_off_c, 0, 64, 64
2, 6340, Note_off_c, 0, 49, 64
2, 6340, Note_off_c, 0, 40, 64
2, 6560, Note_on_c, 0, 57, 93
2, 6560, Note_on_c, 0, 40, 93
2, 6560, Note_on_c, 0, 49, 98
2, 6560, Note_on_c, 0, 61, 93
2, 6560, Note_on_c, 0, 64, 93
2, 6645, Note_off_c, 0, 40, 64
2, 6670, Note_off_c, 0, 61, 64
2, 6675, Note_off_c, 0, 57, 64
2, 6675, Note_off_c, 0, 64, 64
2, 6705, Note_off_c, 0, 49, 64
2, 6720, Note_on_c, 0, 59, 80
2, 6720, Note_on_c, 0, 62, 80
2, 6720, Note_on_c, 0, 64, 62
2, 6720, Note_on_c, 0, 40, 89
2, 6720, Note_on_c, 0, 47, 89
2, 6805, Note_off_c, 0, 64, 64
2, 6815, Note_off_c, 0, 62, 64
2, 6815, Note_off_c, 0, 59, 64
2, 6825, Note_off_c, 0, 47, 64
2, 6830, Note_off_c, 0, 40, 64
2, 7040, Note_on_c, 0, 59, 102
2, 7040, Note_on_c, 0, 62, 93
2, 7040, Note_on_c, 0, 40, 89
2, 7040, Note_on_c, 0, 64, 102
2, 7040, Note_on_c, 0, 47, 93
2, 7120, Note_off_c, 0, 40, 64
2, 7155, Note_off_c, 0, 62, 64
2, 7155, Note_off_c, 0, 64, 64
2, 7165, Note_off_c, 0, 59, 64
2, 7165, Note_off_c, 0, 47, 64
2, 7200, Note_on_c, 0, 61, 98
2, 7200, Note_on_c, 0, 40, 98
2, 7200, Note_on_c, 0, 49, 93
2, 7200, Note_on_c, 0, 64, 85
2, 7325, Note_off_c, 0, 61, 64
2, 7335, Note_off_c, 0, 64, 64
2, 7360, Note_on_c, 0, 53, 93
2, 7380, Note_off_c, 0, 40, 64
2, 7520, Note_off_c, 0, 49, 64
2, 7520, Note_on_c, 0, 47, 80
2, 7520, Note_on_c, 0, 54, 93
2, 7520, Note_on_c, 0, 40, 85
2, 7540, Note_off_c, 0, 53, 64
2, 7605, Note_off_c, 0, 40, 64
2, 7620, Note_off_c, 0, 47, 64
2, 7635, Note_off_c, 0, 54, 64
2, 7680, Note_on_c, 0, 57, 102
2, 7680, Note_on_c, 0, 62, 89
2, 7680, Note_on_c, 0, 38, 89
2, 7680, Note_on_c, 0, 60, 93
2, 7680, Note_on_c, 0, 45, 98
2, 7785, Note_off_c, 0, 38, 64
2, 7790, Note_off_c, 0, 60, 64
2, 7790, Note_off_c, 0, 45, 64
2, 7795, Note_off_c, 0, 62, 64
2, 7800, Note_off_c, 0, 57, 64
2, 8000, Note_on_c, 0, 62, 98
2, 8000, Note_on_c, 0, 38, 72
2, 8000, Note_on_c, 0, 45, 93
2, 8000, Note_on_c, 0, 57, 102
2, 8000, Note_on_c, 0, 60, 89
2, 8105, Note_off_c, 0, 38, 64
2, 8115, Note_off_c, 0, 60, 64
2, 8125, Note_off_c, 0, 62, 64
2, 8145, Note_off_c, 0, 45, 64
2, 8150, Note_off_c, 0, 57, 64
2, 8160, Note_on_c, 0, 38, 80
2, 8160, Note_on_c, 0, 47, 93
2, 8160, Note_on_c, 0, 59, 85
2, 8160, Note_on_c, 0, 62, 64
2, 8160, Note_on_c, 0, 55, 80
2, 8245, Note_off_c, 0, 59, 64
2, 8250, Note_off_c, 0, 62, 64
2, 8260, Note_off_c, 0, 55, 64
2, 8265, Note_off_c, 0, 38, 64
2, 8275, Note_off_c, 0, 47, 64
2, 8480, Note_on_c, 0, 59, 98
2, 8480, Note_on_c, 0, 38, 89
2, 8480, Note_on_c, 0, 55, 93
2, 8480, Note_on_c, 0, 47, 93
2, 8480, Note_on_c, 0, 62, 98
2, 8560, Note_off_c, 0, 38, 64
2, 8580, Note_off_c, 0, 59, 64
2, 8590, Note_off_c, 0, 62, 64
2, 8610, Note_off_c, 0, 55, 64
2, 8625, Note_off_c, 0, 47, 64
2, 8640, Note_on_c, 0, 57, 68
2, 8640, Note_on_c, 0, 38, 85
2, 8640, Note_on_c, 0, 62, 64
2, 8640, Note_on_c, 0, 60, 72
2, 8640, Note_on_c, 0, 45, 93
2, 8720, Note_off_c, 0, 62, 64
2, 8735, Note_off_c, 0, 57, 64
2, 8740, Note_off_c, 0, 60, 64
2, 8765, Note_off_c, 0, 38, 64
2, 8770, Note_off_c, 0, 45, 64
2, 8960, Note_on_c, 0, 62, 107
2, 8960, Note_on_c, 0, 45, 85
2, 8960, Note_on_c, 0, 38, 89
2, 8960, Note_on_c, 0, 57, 98
2, 8960, Note_on_c, 0, 60, 85
2, 9050, Note_off_c, 0, 38, 64
2, 9055, Note_off_c, 0, 60, 64
2, 9065, Note_off_c, 0, 62, 64
2, 9075, Note_off_c, 0, 57, 64
2, 9080, Note_off_c, 0, 45, 64
2, 9120, Note_on_c, 0, 38, 93
2, 9120, Note_on_c, 0, 47, 98
2, 9120, Note_on_c, 0, 62, 93
2, 9120, Note_on_c, 0, 59, 98
2, 9240, Note_off_c, 0, 59, 64
2, 9280, Note_on_c, 0, 53, 76
2, 9325, Note_off_c, 0, 38, 64
2, 9415, Note_off_c, 0, 47, 64
2, 9440, Note_on_c, 0, 45, 89
2, 9440, Note_on_c, 0, 54, 93
2, 9440, Note_on_c, 0, 38, 93
2, 9460, Note_off_c, 0, 53, 64
2, 9505, Note_off_c, 0, 62, 64
2, 9525, Note_off_c, 0, 38, 64
2, 9555, Note_off_c, 0, 45, 64
2, 9555, Note_off_c, 0, 54, 64
2, 9600, Note_on_c, 0, 60, 89
2, 9600, Note_on_c, 0, 45, 93
2, 9600, Note_on_c, 0, 38, 85
2, 9600, Note_on_c, 0, 57, 102
2, 9600, Note_on_c, 0, 62, 89
2, 9680, Note_off_c, 0, 60, 64
2, 9690, Note_off_c, 0, 57, 64
2, 9690, Note_off_c, 0, 62, 64
2, 9725, Note_off_c, 0, 45, 64
2, 9750, Note_off_c, 0, 38, 64
2, 9920, Note_on_c, 0, 57, 98
2, 9920, Note_on_c, 0, 45, 89
2, 9920, Note_on_c, 0, 38, 85
2, 9920, Note_on_c, 0, 62, 107
2, 9920, Note_on_c, 0, 60, 93
2, 10010, Note_off_c, 0, 38, 64
2, 10030, Note_off_c, 0, 62, 64
2, 10035, Note_off_c, 0, 60, 64
2, 10060, Note_off_c, 0, 45, 64
2, 10065, Note_off_c, 0, 57, 64
2, 10080, Note_on_c, 0, 47, 98
2, 10080, Note_on_c, 0, 62, 72
2, 10080, Note_on_c, 0, 55, 76
2, 10080, Note_on_c, 0, 59, 85
2, 10080, Note_on_c, 0, 38, 89
2, 10170, Note_off_c, 0, 59, 64
2, 10170, Note_off_c, 0, 55, 64
2, 10175, Note_off_c, 0, 62, 64
2, 10175, Note_off_c, 0, 47, 64
2, 10180, Note_off_c, 0, 38, 64
2, 10400, Note_on_c, 0, 59, 89
2, 10400, Note_on_c, 0, 38, 89
2, 10400, Note_on_c, 0, 47, 93
2, 10400, Note_on_c, 0, 55, 76
2, 10400, Note_on_c, 0, 62, 93
2, 10485, Note_off_c, 0, 38, 64
2, 10505, Note_off_c, 0, 62, 64
2, 10510, Note_off_c, 0, 59, 64
2, 10515, Note_off_c, 0, 55, 64
2, 10535, Note_off_c, 0, 47, 64
2, 10560, Note_on_c, 0, 45, 89
2, 10560, Note_on_c, 0, 38, 89
2, 10560, Note_on_c, 0, 57, 76
2, 10560, Note_on_c, 0, 60, 80
2, 10560, Note_on_c, 0, 62, 72
2, 10660, Note_off_c, 0, 60, 64
2, 10670, Note_off_c, 0, 57, 64
2, 10675, Note_off_c, 0, 38, 64
2, 10675, Note_off_c, 0, 62, 64
2, 10680, Note_off_c, 0, 45, 64
2, 10880, Note_on_c, 0, 38, 85
2, 10880, Note_on_c, 0, 57, 98
2, 10880, Note_on_c, 0, 62, 93
2, 10880, Note_on_c, 0, 60, 80
2, 10880, Note_on_c, 0, 45, 80
2, 10965, Note_off_c, 0, 38, 64
2, 10975, Note_off_c, 0, 60, 64
2, 10990, Note_off_c, 0, 62, 64
2, 10990, Note_off_c, 0, 45, 64
2, 11000, Note_off_c, 0, 57, 64
2, 11040, Note_on_c, 0, 59, 93
2, 11040, Note_on_c, 0, 38, 89
2, 11040, Note_on_c, 0, 47, 93
2, 11040, Note_on_c, 0, 62, 85
2, 11145, Note_off_c, 0, 59, 64
2, 11200, Note_off_c, 0, 38, 64
2, 11200, Note_on_c, 0, 53, 89
2, 11360, Note_off_c, 0, 47, 64
2, 11360, Note_on_c, 0, 54, 85
2, 11360, Note_on_c, 0, 45, 89
2, 11360, Note_on_c, 0, 38, 85
2, 11390, Note_off_c, 0, 53, 64
2, 11420, Note_off_c, 0, 62, 64
2, 11425, Note_off_c, 0, 45, 64
2, 11445, Note_off_c, 0, 54, 64
2, 11505, Note_off_c, 0, 38, 64
2, 11520, Note_on_c, 0, 45, 107
2, 11520, Note_on_c, 0, 64, 89
2, 11520, Note_on_c, 0, 52, 107
2, 11520, Note_on_c, 0, 61, 93
2, 11520, Note_on_c, 0, 55, 76
2, 11610, Note_off_c, 0, 55, 64
2, 11610, Note_off_c, 0, 61, 64
2, 11610, Note_off_c, 0, 64, 64
2, 11630, Note_off_c, 0, 45, 64
2, 11640, Note_off_c, 0, 52, 64
2, 11840, Note_on_c, 0, 52, 93
2, 11840, Note_on_c, 0, 64, 68
2, 11840, Note_on_c, 0, 61, 68
2, 11840, Note_on_c, 0, 55, 76
2, 11840, Note_on_c, 0, 45, 107
2, 11895, Note_off_c, 0, 55, 64
2, 11905, Note_off_c, 0, 64, 64
2, 11915, Note_off_c, 0, 61, 64
2, 11935, Note_off_c, 0, 45, 64
2, 12000, Note_on_c, 0, 45, 89
2, 12000, Note_on_c, 0, 57, 80
2, 12000, Note_on_c, 0, 62, 76
2, 12000, Note_on_c, 0, 66, 93
2, 12000, Note_on_c, 0, 54, 93
2, 12005, Note_off_c, 0, 52, 64
2, 12085, Note_off_c, 0, 54, 64
2, 12090, Note_off_c, 0, 45, 64
2, 12120, Note_off_c, 0, 57, 64
2, 12120, Note_off_c, 0, 66, 64
2, 12125, Note_off_c, 0, 62, 64
2, 12320, Note_on_c, 0, 54, 102
2, 12320, Note_on_c, 0, 66, 76
2, 12320, Note_on_c, 0, 62, 72
2, 12320, Note_on_c, 0, 57, 64
2, 12320, Note_on_c, 0, 45, 102
2, 12395, Note_off_c, 0, 45, 64
2, 12415, Note_off_c, 0, 57, 64
2, 12425, Note_off_c, 0, 66, 64
2, 12445, Note_off_c, 0, 62, 64
2, 12460, Note_off_c, 0, 54, 64
2, 12480, Note_on_c, 0, 52, 93
2, 12480, Note_on_c, 0, 45, 93
2, 12480, Note_on_c, 0, 64, 80
2, 12480, Note_on_c, 0, 61, 80
2, 12480, Note_on_c, 0, 55, 68
2, 12555, Note_off_c, 0, 55, 64
2, 12585, Note_off_c, 0, 45, 64
2, 12590, Note_off_c, 0, 52, 64
2, 12595, Note_off_c, 0, 61, 64
2, 12620, Note_off_c, 0, 64, 64
2, 12800, Note_on_c, 0, 64, 51
2, 12800, Note_on_c, 0, 52, 93
2, 12800, Note_on_c, 0, 55, 50
2, 12800, Note_on_c, 0, 61, 57
2, 12800, Note_on_c, 0, 45, 98
2, 12885, Note_off_c, 0, 45, 64
2, 12885, Note_off_c, 0, 55, 64
2, 12910, Note_off_c, 0, 64, 64
2, 12925, Note_off_c, 0, 52, 64
2, 12925, Note_off_c, 0, 61, 64
2, 12960, Note_on_c, 0, 66, 80
2, 12960, Note_on_c, 0, 62, 85
2, 12960, Note_on_c, 0, 45, 98
2, 12960, Note_on_c, 0, 54, 93
2, 12960, Note_on_c, 0, 57, 49
2, 12990, Note_off_c, 0, 57, 64
2, 13080, Note_off_c, 0, 62, 64
2, 13090, Note_off_c, 0, 66, 64
2, 13105, Note_off_c, 0, 45, 64
2, 13120, Note_on_c, 0, 55, 98
2, 13280, Note_on_c, 0, 56, 93
2, 13280, Note_on_c, 0, 45, 85
2, 13280, Note_on_c, 0, 52, 85
2, 13300, Note_off_c, 0, 54, 64
2, 13310, Note_off_c, 0, 55, 64
2, 13360, Note_off_c, 0, 52, 64
2, 13380, Note_off_c, 0, 56, 64
2, 13425, Note_off_c, 0, 45, 64
2, 13440, Note_on_c, 0, 40, 89
2, 13440, Note_on_c, 0, 64, 93
2, 13440, Note_on_c, 0, 59, 98
2, 13440, Note_on_c, 0, 62, 93
2, 13440, Note_on_c, 0, 47, 102
2, 13530, Note_off_c, 0, 47, 64
2, 13530, Note_off_c, 0, 59, 64
2, 13545, Note_off_c, 0, 62, 64
2, 13550, Note_off_c, 0, 64, 64
2, 13550, Note_off_c, 0, 40, 64
2, 13760, Note_on_c, 0, 40, 89
2, 13760, Note_on_c, 0, 59, 93
2, 13760, Note_on_c, 0, 64, 98
2, 13760, Note_on_c, 0, 62, 85
2, 13760, Note_on_c, 0, 47, 89
2, 13855, Note_off_c, 0, 40, 64
2, 13865, Note_off_c, 0, 62, 64
2, 13880, Note_off_c, 0, 64, 64
2, 13900, Note_off_c, 0, 59, 64
2, 13920, Note_on_c, 0, 64, 80
2, 13920, Note_on_c, 0, 40, 89
2, 13920, Note_on_c, 0, 61, 85
2, 13920, Note_on_c, 0, 57, 89
2, 13920, Note_on_c, 0, 49, 93
2, 13935, Note_off_c, 0, 47, 64
2, 14005, Note_off_c, 0, 40, 64
2, 14015, Note_off_c, 0, 49, 64
2, 14020, Note_off_c, 0, 64, 64
2, 14020, Note_off_c, 0, 61, 64
2, 14025, Note_off_c, 0, 57, 64
2, 14240, Note_on_c, 0, 57, 89
2, 14240, Note_on_c, 0, 61, 93
2, 14240, Note_on_c, 0, 40, 85
2, 14240, Note_on_c, 0, 49, 107
2, 14240, Note_on_c, 0, 64, 89
2, 14320, Note_off_c, 0, 40, 64
2, 14350, Note_off_c, 0, 61, 64
2, 14365, Note_off_c, 0, 64, 64
2, 14370, Note_off_c, 0, 57, 64
2, 14375, Note_off_c, 0, 49, 64
2, 14400, Note_on_c, 0, 47, 98
2, 14400, Note_on_c, 0, 40, 85
2, 14400, Note_on_c, 0, 59, 76
2, 14400, Note_on_c, 0, 64, 60
2, 14400, Note_on_c, 0, 62, 80
2, 14505, Note_off_c, 0, 64, 64
2, 14510, Note_off_c, 0, 59, 64
2, 14510, Note_off_c, 0, 47, 64
2, 14515, Note_off_c, 0, 40, 64
2, 14515, Note_off_c, 0, 62, 64
2, 14720, Note_on_c, 0, 64, 93
2, 14720, Note_on_c, 0, 40, 89
2, 14720, Note_on_c, 0, 47, 98
2, 14720, Note_on_c, 0, 62, 89
2, 14720, Note_on_c, 0, 59, 93
2, 14800, Note_off_c, 0, 40, 64
2, 14845, Note_off_c, 0, 62, 64
2, 14855, Note_off_c, 0, 59, 64
2, 14865, Note_off_c, 0, 47, 64
2, 14880, Note_on_c, 0, 49, 89
2, 14880, Note_on_c, 0, 40, 80
2, 14880, Note_on_c, 0, 61, 98
2, 15020, Note_off_c, 0, 40, 64
2, 15165, Note_off_c, 0, 61, 64
2, 15200, Note_on_c, 0, 40, 76
2, 15200, Note_on_c, 0, 47, 93
2, 15200, Note_on_c, 0, 59, 59
2, 15205, Note_off_c, 0, 49, 64
2, 15310, Note_off_c, 0, 59, 64
2, 15320, Note_off_c, 0, 64, 64
2, 15325, Note_off_c, 0, 47, 64
2, 15345, Note_off_c, 0, 40, 64
2, 15360, Note_on_c, 0, 45, 102
2, 15360, Note_on_c, 0, 64, 107
2, 15360, Note_on_c, 0, 61, 107
2, 15360, Note_on_c, 0, 57, 93
2, 15570, Note_off_c, 0, 57, 64
2, 15680, Note_on_c, 0, 57, 85
2, 15760, Note_off_c, 0, 57, 64
2, 15795, Note_off_c, 0, 45, 64
2, 15840, Note_on_c, 0, 55, 107
2, 15840, Note_on_c, 0, 43, 89
2, 16020, Note_off_c, 0, 64, 64
2, 16035, Note_off_c, 0, 61, 64
2, 16160, Note_on_c, 0, 61, 107
2, 16160, Note_on_c, 0, 64, 102
2, 16200, Note_off_c, 0, 55, 64
2, 16255, Note_off_c, 0, 64, 64
2, 16290, Note_off_c, 0, 43, 64
2, 16305, Note_off_c, 0, 61, 64
2, 16320, Note_on_c, 0, 42, 85
2, 16320, Note_on_c, 0, 54, 72
2, 16640, Note_on_c, 0, 62, 93
2, 16640, Note_on_c, 0, 57, 80
2, 16750, Note_off_c, 0, 54, 64
2, 16780, Note_off_c, 0, 42, 64
2, 16800, Note_on_c, 0, 53, 89
2, 16800, Note_on_c, 0, 41, 89
2, 17010, Note_off_c, 0, 57, 64
2, 17120, Note_on_c, 0, 57, 76
2, 17175, Note_off_c, 0, 53, 64
2, 17230, Note_off_c, 0, 41, 64
2, 17240, Note_off_c, 0, 62, 64
2, 17280, Note_on_c, 0, 61, 107
2, 17280, Note_on_c, 0, 40, 93
2, 17280, Note_on_c, 0, 52, 76
2, 17535, Note_off_c, 0, 52, 64
2, 17760, Note_on_c, 0, 52, 62
2, 17830, Note_off_c, 0, 61, 64
2, 17845, Note_off_c, 0, 57, 64
2, 17920, Note_off_c, 0, 40, 64
2, 18080, Note_off_c, 0, 52, 64
2, 18080, Note_on_c, 0, 64, 98
2, 18080, Note_on_c, 0, 40, 102
2, 18080, Note_on_c, 0, 52, 113
2, 18080, Note_on_c, 0, 62, 98
2, 18720, Note_off_c, 0, 52, 64
2, 18720, Note_on_c, 0, 52, 98
2, 18770, Note_off_c, 0, 64, 64
2, 18810, Note_off_c, 0, 62, 64
2, 18880, Note_on_c, 0, 54, 102
2, 18990, Note_off_c, 0, 54, 64
2, 19040, Note_on_c, 0, 57, 93
2, 19055, Note_off_c, 0, 52, 64
2, 19135, Note_off_c, 0, 40, 64
2, 19135, Note_off_c, 0, 57, 64
2, 19200, Note_on_c, 0, 55, 93
2, 19200, Note_on_c, 0, 64, 93
2, 19200, Note_on_c, 0, 45, 107
2, 19200, Note_on_c, 0, 61, 93
2, 19200, Note_on_c, 0, 52, 102
2, 19295, Note_off_c, 0, 64, 64
2, 19295, Note_off_c, 0, 55, 64
2, 19305, Note_off_c, 0, 61, 64
2, 19305, Note_off_c, 0, 52, 64
2, 19310, Note_off_c, 0, 45, 64
2, 19520, Note_on_c, 0, 61, 76
2, 19520, Note_on_c, 0, 55, 89
2, 19520, Note_on_c, 0, 64, 85
2, 19520, Note_on_c, 0, 45, 98
2, 19520, Note_on_c, 0, 52, 93
2, 19610, Note_off_c, 0, 55, 64
2, 19615, Note_off_c, 0, 45, 64
2, 19625, Note_off_c, 0, 64, 64
2, 19660, Note_off_c, 0, 61, 64
2, 19680, Note_on_c, 0, 62, 89
2, 19680, Note_on_c, 0, 45, 85
2, 19680, Note_on_c, 0, 66, 102
2, 19680, Note_on_c, 0, 54, 93
2, 19680, Note_on_c, 0, 57, 85
2, 19690, Note_off_c, 0, 52, 64
2, 19770, Note_off_c, 0, 66, 64
2, 19775, Note_off_c, 0, 54, 64
2, 19775, Note_off_c, 0, 57, 64
2, 19780, Note_off_c, 0, 45, 64
2, 19785, Note_off_c, 0, 62, 64
2, 20000, Note_on_c, 0, 57, 60
2, 20000, Note_on_c, 0, 45, 98
2, 20000, Note_on_c, 0, 62, 89
2, 20000, Note_on_c, 0, 54, 98
2, 20000, Note_on_c, 0, 66, 89
2, 20085, Note_off_c, 0, 45, 64
2, 20105, Note_off_c, 0, 57, 64
2, 20110, Note_off_c, 0, 66, 64
2, 20120, Note_off_c, 0, 62, 64
2, 20155, Note_off_c, 0, 54, 64
2, 20160, Note_on_c, 0, 52, 98
2, 20160, Note_on_c, 0, 64, 68
2, 20160, Note_on_c, 0, 45, 80
2, 20160, Note_on_c, 0, 61, 72
2, 20160, Note_on_c, 0, 55, 80
2, 20255, Note_off_c, 0, 55, 64
2, 20275, Note_off_c, 0, 45, 64
2, 20275, Note_off_c, 0, 52, 64
2, 20285, Note_off_c, 0, 61, 64
2, 20295, Note_off_c, 0, 64, 64
2, 20480, Note_on_c, 0, 64, 45
2, 20480, Note_on_c, 0, 61, 64
2, 20480, Note_on_c, 0, 55, 62
2, 20480, Note_on_c, 0, 45, 89
2, 20480, Note_on_c, 0, 52, 89
2, 20560, Note_off_c, 0, 45, 64
2, 20570, Note_off_c, 0, 55, 64
2, 20590, Note_off_c, 0, 64, 64
2, 20595, Note_off_c, 0, 52, 64
2, 20615, Note_off_c, 0, 61, 64
2, 20640, Note_on_c, 0, 45, 102
2, 20640, Note_on_c, 0, 62, 85
2, 20640, Note_on_c, 0, 54, 107
2, 20640, Note_on_c, 0, 66, 89
2, 20790, Note_off_c, 0, 66, 64
2, 20800, Note_off_c, 0, 62, 64
2, 20800, Note_on_c, 0, 55, 102
2, 20840, Note_off_c, 0, 45, 64
2, 20960, Note_on_c, 0, 56, 98
2, 20960, Note_on_c, 0, 52, 89
2, 20960, Note_on_c, 0, 45, 93
2, 20965, Note_off_c, 0, 54, 64
2, 20980, Note_off_c, 0, 55, 64
2, 21040, Note_off_c, 0, 52, 64
2, 21065, Note_off_c, 0, 56, 64
2, 21120, Note_on_c, 0, 62, 93
2, 21120, Note_on_c, 0, 59, 98
2, 21120, Note_on_c, 0, 64, 89
2, 21120, Note_on_c, 0, 47, 107
2, 21120, Note_on_c, 0, 40, 93
2, 21125, Note_off_c, 0, 45, 64
2, 21205, Note_off_c, 0, 47, 64
2, 21215, Note_off_c, 0, 62, 64
2, 21225, Note_off_c, 0, 59, 64
2, 21230, Note_off_c, 0, 64, 64
2, 21240, Note_off_c, 0, 40, 64
2, 21440, Note_on_c, 0, 40, 89
2, 21440, Note_on_c, 0, 47, 98
2, 21440, Note_on_c, 0, 64, 102
2, 21440, Note_on_c, 0, 62, 93
2, 21440, Note_on_c, 0, 59, 102
2, 21535, Note_off_c, 0, 40, 64
2, 21560, Note_off_c, 0, 62, 64
2, 21590, Note_off_c, 0, 59, 64
2, 21595, Note_off_c, 0, 47, 64
2, 21600, Note_on_c, 0, 49, 93
2, 21600, Note_on_c, 0, 61, 76
2, 21600, Note_on_c, 0, 40, 85
2, 21600, Note_on_c, 0, 57, 80
2, 21675, Note_off_c, 0, 57, 64
2, 21680, Note_off_c, 0, 61, 64
2, 21700, Note_off_c, 0, 64, 64
2, 21700, Note_off_c, 0, 49, 64
2, 21700, Note_off_c, 0, 40, 64
2, 21920, Note_on_c, 0, 49, 98
2, 21920, Note_on_c, 0, 64, 93
2, 21920, Note_on_c, 0, 40, 93
2, 21920, Note_on_c, 0, 61, 93
2, 21920, Note_on_c, 0, 57, 93
2, 22005, Note_off_c, 0, 40, 64
2, 22030, Note_off_c, 0, 61, 64
2, 22035, Note_off_c, 0, 64, 64
2, 22035, Note_off_c, 0, 57, 64
2, 22065, Note_off_c, 0, 49, 64
2, 22080, Note_on_c, 0, 64, 62
2, 22080, Note_on_c, 0, 40, 89
2, 22080, Note_on_c, 0, 62, 80
2, 22080, Note_on_c, 0, 47, 89
2, 22080, Note_on_c, 0, 59, 80
2, 22165, Note_off_c, 0, 64, 64
2, 22175, Note_off_c, 0, 62, 64
2, 22175, Note_off_c, 0, 59, 64
2, 22185, Note_off_c, 0, 47, 64
2, 22190, Note_off_c, 0, 40, 64
2, 22400, Note_on_c, 0, 62, 93
2, 22400, Note_on_c, 0, 59, 102
2, 22400, Note_on_c, 0, 40, 89
2, 22400, Note_on_c, 0, 64, 102
2, 22400, Note_on_c, 0, 47, 93
2, 22480, Note_off_c, 0, 40, 64
2, 22515, Note_off_c, 0, 62, 64
2, 22515, Note_off_c, 0, 64, 64
2, 22525, Note_off_c, 0, 59, 64
2, 22525, Note_off_c, 0, 47, 64
2, 22560, Note_on_c, 0, 49, 93
2, 22560, Note_on_c, 0, 64, 85
2, 22560, Note_on_c, 0, 61, 98
2, 22560, Note_on_c, 0, 40, 98
2, 22685, Note_off_c, 0, 61, 64
2, 22695, Note_off_c, 0, 64, 64
2, 22720, Note_on_c, 0, 53, 93
2, 22740, Note_off_c, 0, 40, 64
2, 22880, Note_off_c, 0, 49, 64
2, 22880, Note_on_c, 0, 54, 93
2, 22880, Note_on_c, 0, 40, 85
2, 22880, Note_on_c, 0, 47, 80
2, 22900, Note_off_c, 0, 53, 64
2, 22965, Note_off_c, 0, 40, 64
2, 22980, Note_off_c, 0, 47, 64
2, 22995, Note_off_c, 0, 54, 64
2, 23040, Note_on_c, 0, 62, 89
2, 23040, Note_on_c, 0, 57, 102
2, 23040, Note_on_c, 0, 45, 98
2, 23040, Note_on_c, 0, 60, 93
2, 23040, Note_on_c, 0, 38, 89
2, 23145, Note_off_c, 0, 38, 64
2, 23150, Note_off_c, 0, 60, 64
2, 23150, Note_off_c, 0, 45, 64
2, 23155, Note_off_c, 0, 62, 64
2, 23160, Note_off_c, 0, 57, 64
2, 23360, Note_on_c, 0, 60, 89
2, 23360, Note_on_c, 0, 38, 72
2, 23360, Note_on_c, 0, 62, 98
2, 23360, Note_on_c, 0, 45, 93
2, 23360, Note_on_c, 0, 57, 102
2, 23465, Note_off_c, 0, 38, 64
2, 23475, Note_off_c, 0, 60, 64
2, 23485, Note_off_c, 0, 62, 64
2, 23505, Note_off_c, 0, 45, 64
2, 23510, Note_off_c, 0, 57, 64
2, 23520, Note_on_c, 0, 62, 64
2, 23520, Note_on_c, 0, 55, 80
2, 23520, Note_on_c, 0, 59, 85
2, 23520, Note_on_c, 0, 47, 93
2, 23520, Note_on_c, 0, 38, 80
2, 23605, Note_off_c, 0, 59, 64
2, 23610, Note_off_c, 0, 62, 64
2, 23620, Note_off_c, 0, 55, 64
2, 23625, Note_off_c, 0, 38, 64
2, 23635, Note_off_c, 0, 47, 64
2, 23840, Note_on_c, 0, 47, 93
2, 23840, Note_on_c, 0, 38, 89
2, 23840, Note_on_c, 0, 59, 98
2, 23840, Note_on_c, 0, 62, 98
2, 23840, Note_on_c, 0, 55, 93
2, 23920, Note_off_c, 0, 38, 64
2, 23940, Note_off_c, 0, 59, 64
2, 23950, Note_off_c, 0, 62, 64
2, 23970, Note_off_c, 0, 55, 64
2, 23985, Note_off_c, 0, 47, 64
2, 24000, Note_on_c, 0, 60, 72
2, 24000, Note_on_c, 0, 57, 68
2, 24000, Note_on_c, 0, 38, 85
2, 24000, Note_on_c, 0, 62, 64
2, 24000, Note_on_c, 0, 45, 93
2, 24080, Note_off_c, 0, 62, 64
2, 24095, Note_off_c, 0, 57, 64
2, 24100, Note_off_c, 0, 60, 64
2, 24125, Note_off_c, 0, 38, 64
2, 24130, Note_off_c, 0, 45, 64
2, 24320, Note_on_c, 0, 38, 89
2, 24320, Note_on_c, 0, 45, 85
2, 24320, Note_on_c, 0, 62, 107
2, 24320, Note_on_c, 0, 57, 98
2, 24320, Note_on_c, 0, 60, 85
2, 24410, Note_off_c, 0, 38, 64
2, 24415, Note_off_c, 0, 60, 64
2, 24425, Note_off_c, 0, 62, 64
2, 24435, Note_off_c, 0, 57, 64
2, 24440, Note_off_c, 0, 45, 64
2, 24480, Note_on_c, 0, 62, 93
2, 24480, Note_on_c, 0, 47, 98
2, 24480, Note_on_c, 0, 38, 93
2, 24480, Note_on_c, 0, 59, 98
2, 24600, Note_off_c, 0, 59, 64
2, 24640, Note_on_c, 0, 53, 76
2, 24685, Note_off_c, 0, 38, 64
2, 24775, Note_off_c, 0, 47, 64
2, 24800, Note_on_c, 0, 38, 93
2, 24800, Note_on_c, 0, 45, 89
2, 24800, Note_on_c, 0, 54, 93
2, 24820, Note_off_c, 0, 53, 64
2, 24865, Note_off_c, 0, 62, 64
2, 24885, Note_off_c, 0, 38, 64
2, 24915, Note_off_c, 0, 45, 64
2, 24915, Note_off_c, 0, 54, 64
2, 24960, Note_on_c, 0, 38, 85
2, 24960, Note_on_c, 0, 60, 89
2, 24960, Note_on_c, 0, 62, 89
2, 24960, Note_on_c, 0, 57, 102
2, 24960, Note_on_c, 0, 45, 93
2, 25040, Note_off_c, 0, 60, 64
2, 25050, Note_off_c, 0, 62, 64
2, 25050, Note_off_c, 0, 57, 64
2, 25085, Note_off_c, 0, 45, 64
2, 25110, Note_off_c, 0, 38, 64
2, 25280, Note_on_c, 0, 60, 93
2, 25280, Note_on_c, 0, 62, 107
2, 25280, Note_on_c, 0, 57, 98
2, 25280, Note_on_c, 0, 45, 89
2, 25280, Note_on_c, 0, 38, 85
2, 25370, Note_off_c, 0, 38, 64
2, 25390, Note_off_c, 0, 62, 64
2, 25395, Note_off_c, 0, 60, 64
2, 25420, Note_off_c, 0, 45, 64
2, 25425, Note_off_c, 0, 57, 64
2, 25440, Note_on_c, 0, 59, 85
2, 25440, Note_on_c, 0, 47, 98
2, 25440, Note_on_c, 0, 62, 72
2, 25440, Note_on_c, 0, 55, 76
2, 25440, Note_on_c, 0, 38, 89
2, 25530, Note_off_c, 0, 55, 64
2, 25530, Note_off_c, 0, 59, 64
2, 25535, Note_off_c, 0, 47, 64
2, 25535, Note_off_c, 0, 62, 64
2, 25540, Note_off_c, 0, 38, 64
2, 25760, Note_on_c, 0, 47, 93
2, 25760, Note_on_c, 0, 59, 89
2, 25760, Note_on_c, 0, 38, 89
2, 25760, Note_on_c, 0, 62, 93
2, 25760, Note_on_c, 0, 55, 76
2, 25845, Note_off_c, 0, 38, 64
2, 25865, Note_off_c, 0, 62, 64
2, 25870, Note_off_c, 0, 59, 64
2, 25875, Note_off_c, 0, 55, 64
2, 25895, Note_off_c, 0, 47, 64
2, 25920, Note_on_c, 0, 60, 80
2, 25920, Note_on_c, 0, 45, 89
2, 25920, Note_on_c, 0, 57, 76
2, 25920, Note_on_c, 0, 38, 89
2, 25920, Note_on_c, 0, 62, 72
2, 26020, Note_off_c, 0, 60, 64
2, 26030, Note_off_c, 0, 57, 64
2, 26035, Note_off_c, 0, 38, 64
2, 26035, Note_off_c, 0, 62, 64
2, 26040, Note_off_c, 0, 45, 64
2, 26240, Note_on_c, 0, 62, 93
2, 26240, Note_on_c, 0, 60, 80
2, 26240, Note_on_c, 0, 57, 98
2, 26240, Note_on_c, 0, 45, 80
2, 26240, Note_on_c, 0, 38, 85
2, 26325, Note_off_c, 0, 38, 64
2, 26335, Note_off_c, 0, 60, 64
2, 26350, Note_off_c, 0, 62, 64
2, 26350, Note_off_c, 0, 45, 64
2, 26360, Note_off_c, 0, 57, 64
2, 26400, Note_on_c, 0, 38, 89
2, 26400, Note_on_c, 0, 47, 93
2, 26400, Note_on_c, 0, 59, 93
2, 26400, Note_on_c, 0, 62, 85
2, 26505, Note_off_c, 0, 59, 64
2, 26560, Note_off_c, 0, 38, 64
2, 26560, Note_on_c, 0, 53, 89
2, 26720, Note_off_c, 0, 47, 64
2, 26720, Note_on_c, 0, 38, 85
2, 26720, Note_on_c, 0, 45, 89
2, 26720, Note_on_c, 0, 54, 85
2, 26750, Note_off_c, 0, 53, 64
2, 26780, Note_off_c, 0, 62, 64
2, 26785, Note_off_c, 0, 45, 64
2, 26805, Note_off_c, 0, 54, 64
2, 26865, Note_off_c, 0, 38, 64
2, 26880, Note_on_c, 0, 52, 107
2, 26880, Note_on_c, 0, 64, 89
2, 26880, Note_on_c, 0, 55, 76
2, 26880, Note_on_c, 0, 61, 93
2, 26880, Note_on_c, 0, 45, 107
2, 26970, Note_off_c, 0, 61, 64
2, 26970, Note_off_c, 0, 55, 64
2, 26970, Note_off_c, 0, 64, 64
2, 26990, Note_off_c, 0, 45, 64
2, 27000, Note_off_c, 0, 52, 64
2, 27200, Note_on_c, 0, 61, 68
2, 27200, Note_on_c, 0, 64, 68
2, 27200, Note_on_c, 0, 45, 107
2, 27200, Note_on_c, 0, 52, 93
2, 27200, Note_on_c, 0, 55, 76
2, 27255, Note_off_c, 0, 55, 64
2, 27265, Note_off_c, 0, 64, 64
2, 27275, Note_off_c, 0, 61, 64
2, 27295, Note_off_c, 0, 45, 64
2, 27360, Note_on_c, 0, 54, 93
2, 27360, Note_on_c, 0, 45, 89
2, 27360, Note_on_c, 0, 66, 93
2, 27360, Note_on_c, 0, 57, 80
2, 27360, Note_on_c, 0, 62, 76
2, 27365, Note_off_c, 0, 52, 64
2, 27445, Note_off_c, 0, 54, 64
2, 27450, Note_off_c, 0, 45, 64
2, 27480, Note_off_c, 0, 66, 64
2, 27480, Note_off_c, 0, 57, 64
2, 27485, Note_off_c, 0, 62, 64
2, 27680, Note_on_c, 0, 54, 102
2, 27680, Note_on_c, 0, 62, 72
2, 27680, Note_on_c, 0, 66, 76
2, 27680, Note_on_c, 0, 57, 64
2, 27680, Note_on_c, 0, 45, 102
2, 27755, Note_off_c, 0, 45, 64
2, 27775, Note_off_c, 0, 57, 64
2, 27785, Note_off_c, 0, 66, 64
2, 27805, Note_off_c, 0, 62, 64
2, 27820, Note_off_c, 0, 54, 64
2, 27840, Note_on_c, 0, 45, 93
2, 27840, Note_on_c, 0, 52, 93
2, 27840, Note_on_c, 0, 55, 68
2, 27840, Note_on_c, 0, 61, 80
2, 27840, Note_on_c, 0, 64, 80
2, 27915, Note_off_c, 0, 55, 64
2, 27945, Note_off_c, 0, 45, 64
2, 27950, Note_off_c, 0, 52, 64
2, 27955, Note_off_c, 0, 61, 64
2, 27980, Note_off_c, 0, 64, 64
2, 28160, Note_on_c, 0, 61, 57
2, 28160, Note_on_c, 0, 52, 93
2, 28160, Note_on_c, 0, 55, 50
2, 28160, Note_on_c, 0, 64, 51
2, 28160, Note_on_c, 0, 45, 98
2, 28245, Note_off_c, 0, 45, 64
2, 28245, Note_off_c, 0, 55, 64
2, 28270, Note_off_c, 0, 64, 64
2, 28285, Note_off_c, 0, 52, 64
2, 28285, Note_off_c, 0, 61, 64
2, 28320, Note_on_c, 0, 45, 98
2, 28320, Note_on_c, 0, 54, 93
2, 28320, Note_on_c, 0, 57, 49
2, 28320, Note_on_c, 0, 62, 85
2, 28320, Note_on_c, 0, 66, 80
2, 28350, Note_off_c, 0, 57, 64
2, 28440, Note_off_c, 0, 62, 64
2, 28450, Note_off_c, 0, 66, 64
2, 28465, Note_off_c, 0, 45, 64
2, 28480, Note_on_c, 0, 55, 98
2, 28640, Note_on_c, 0, 52, 85
2, 28640, Note_on_c, 0, 56, 93
2, 28640, Note_on_c, 0, 45, 85
2, 28660, Note_off_c, 0, 54, 64
2, 28670, Note_off_c, 0, 55, 64
2, 28720, Note_off_c, 0, 52, 64
2, 28740, Note_off_c, 0, 56, 64
2, 28785, Note_off_c, 0, 45, 64
2, 28800, Note_on_c, 0, 59, 98
2, 28800, Note_on_c, 0, 62, 93
2, 28800, Note_on_c, 0, 40, 89
2, 28800, Note_on_c, 0, 64, 93
2, 28800, Note_on_c, 0, 47, 102
2, 28890, Note_off_c, 0, 47, 64
2, 28890, Note_off_c, 0, 59, 64
2, 28905, Note_off_c, 0, 62, 64
2, 28910, Note_off_c, 0, 40, 64
2, 28910, Note_off_c, 0, 64, 64
2, 29120, Note_on_c, 0, 62, 85
2, 29120, Note_on_c, 0, 40, 89
2, 29120, Note_on_c, 0, 59, 93
2, 29120, Note_on_c, 0, 47, 89
2, 29120, Note_on_c, 0, 64, 98
2, 29215, Note_off_c, 0, 40, 64
2, 29225, Note_off_c, 0, 62, 64
2, 29240, Note_off_c, 0, 64, 64
2, 29260, Note_off_c, 0, 59, 64
2, 29280, Note_on_c, 0, 64, 80
2, 29280, Note_on_c, 0, 49, 93
2, 29280, Note_on_c, 0, 57, 89
2, 29280, Note_on_c, 0, 61, 85
2, 29280, Note_on_c, 0, 40, 89
2, 29295, Note_off_c, 0, 47, 64
2, 29365, Note_off_c, 0, 40, 64
2, 29375, Note_off_c, 0, 49, 64
2, 29380, Note_off_c, 0, 64, 64
2, 29380, Note_off_c, 0, 61, 64
2, 29385, Note_off_c, 0, 57, 64
2, 29600, Note_on_c, 0, 57, 89
2, 29600, Note_on_c, 0, 40, 85
2, 29600, Note_on_c, 0, 61, 93
2, 29600, Note_on_c, 0, 49, 107
2, 29600, Note_on_c, 0, 64, 89
2, 29680, Note_off_c, 0, 40, 64
2, 29710, Note_off_c, 0, 61, 64
2, 29725, Note_off_c, 0, 64, 64
2, 29730, Note_off_c, 0, 57, 64
2, 29735, Note_off_c, 0, 49, 64
2, 29760, Note_on_c, 0, 47, 98
2, 29760, Note_on_c, 0, 40, 85
2, 29760, Note_on_c, 0, 59, 76
2, 29760, Note_on_c, 0, 64, 60
2, 29760, Note_on_c, 0, 62, 80
2, 29865, Note_off_c, 0, 64, 64
2, 29870, Note_off_c, 0, 59, 64
2, 29870, Note_off_c, 0, 47, 64
2, 29875, Note_off_c, 0, 40, 64
2, 29875, Note_off_c, 0, 62, 64
2, 30080, Note_on_c, 0, 64, 93
2, 30080, Note_on_c, 0, 62, 89
2, 30080, Note_on_c, 0, 47, 98
2, 30080, Note_on_c, 0, 59, 93
2, 30080, Note_on_c, 0, 40, 89
2, 30160, Note_off_c, 0, 40, 64
2, 30205, Note_off_c, 0, 62, 64
2, 30215, Note_off_c, 0, 59, 64
2, 30225, Note_off_c, 0, 47, 64
2, 30240, Note_on_c, 0, 40, 80
2, 30240, Note_on_c, 0, 61, 98
2, 30240, Note_on_c, 0, 49, 89
2, 30380, Note_off_c, 0, 40, 64
2, 30525, Note_off_c, 0, 61, 64
2, 30560, Note_on_c, 0, 40, 76
2, 30560, Note_on_c, 0, 59, 59
2, 30560, Note_on_c, 0, 47, 93
2, 30565, Note_off_c, 0, 49, 64
2, 30670, Note_off_c, 0, 59, 64
2, 30680, Note_off_c, 0, 64, 64
2, 30685, Note_off_c, 0, 47, 64
2, 30705, Note_off_c, 0, 40, 64
2, 30720, Note_on_c, 0, 64, 107
2, 30720, Note_on_c, 0, 45, 102
2, 30720, Note_on_c, 0, 61, 107
2, 30720, Note_on_c, 0, 57, 93
2, 30930, Note_off_c, 0, 57, 64
2, 31040, Note_on_c, 0, 57, 85
2, 31120, Note_off_c, 0, 57, 64
2, 31155, Note_off_c, 0, 45, 64
2, 31200, Note_on_c, 0, 55, 107
2, 31200, Note_on_c, 0, 43, 89
2, 31380, Note_off_c, 0, 64, 64
2, 31395, Note_off_c, 0, 61, 64
2, 31520, Note_on_c, 0, 64, 102
2, 31520, Note_on_c, 0, 61, 107
2, 31560, Note_off_c, 0, 55, 64
2, 31615, Note_off_c, 0, 64, 64
2, 31650, Note_off_c, 0, 43, 64
2, 31665, Note_off_c, 0, 61, 64
2, 31680, Note_on_c, 0, 54, 72
2, 31680, Note_on_c, 0, 42, 85
2, 32000, Note_on_c, 0, 57, 80
2, 32000, Note_on_c, 0, 62, 93
2, 32110, Note_off_c, 0, 54, 64
2, 32140, Note_off_c, 0, 42, 64
2, 32160, Note_on_c, 0, 41, 89
2, 32160, Note_on_c, 0, 53, 89
2, 32370, Note_off_c, 0, 57, 64
2, 32480, Note_on_c, 0, 57, 76
2, 32535, Note_off_c, 0, 53, 64
2, 32590, Note_off_c, 0, 41, 64
2, 32600, Note_off_c, 0, 62, 64
2, 32640, Note_on_c, 0, 40, 93
2, 32640, Note_on_c, 0, 52, 76
2, 32640, Note_on_c, 0, 61, 107
2, 32895, Note_off_c, 0, 52, 64
2, 33120, Note_on_c, 0, 52, 62
2, 33190, Note_off_c, 0, 61, 64
2, 33205, Note_off_c, 0, 57, 64
2, 33280, Note_off_c, 0, 40, 64
2, 33440, Note_off_c, 0, 52, 64
2, 33440, Note_on_c, 0, 40, 102
2, 33440, Note_on_c, 0, 64, 98
2, 33440, Note_on_c, 0, 62, 98
2, 33440, Note_on_c, 0, 52, 113
2, 34080, Note_off_c, 0, 52, 64
2, 34080, Note_on_c, 0, 52, 98
2, 34130, Note_off_c, 0, 64, 64
2, 34170, Note_off_c, 0, 62, 64
2, 34240, Note_on_c, 0, 54, 102
2, 34350, Note_off_c, 0, 54, 64
2, 34400, Note_on_c, 0, 57, 93
2, 34415, Note_off_c, 0, 52, 64
2, 34495, Note_off_c, 0, 40, 64
2, 34495, Note_off_c, 0, 57, 64
2, 34560, Note_on_c, 0, 61, 93
2, 34560, Note_on_c, 0, 45, 107
2, 34560, Note_on_c, 0, 55, 93
2, 34560, Note_on_c, 0, 64, 93
2, 34560, Note_on_c, 0, 52, 102
2, 34655, Note_off_c, 0, 64, 64
2, 34655, Note_off_c, 0, 55, 64
2, 34665, Note_off_c, 0, 61, 64
2, 34665, Note_off_c, 0, 52, 64
2, 34670, Note_off_c, 0, 45, 64
2, 34880, Note_on_c, 0, 45, 98
2, 34880, Note_on_c, 0, 55, 89
2, 34880, Note_on_c, 0, 61, 76
2, 34880, Note_on_c, 0, 52, 93
2, 34880, Note_on_c, 0, 64, 85
2, 34970, Note_off_c, 0, 55, 64
2, 34975, Note_off_c, 0, 45, 64
2, 34985, Note_off_c, 0, 64, 64
2, 35020, Note_off_c, 0, 61, 64
2, 35040, Note_on_c, 0, 57, 85
2, 35040, Note_on_c, 0, 54, 93
2, 35040, Note_on_c, 0, 66, 102
2, 35040, Note_on_c, 0, 62, 89
2, 35040, Note_on_c, 0, 45, 85
2, 35050, Note_off_c, 0, 52, 64
2, 35130, Note_off_c, 0, 66, 64
2, 35135, Note_off_c, 0, 57, 64
2, 35135, Note_off_c, 0, 54, 64
2, 35140, Note_off_c, 0, 45, 64
2, 35145, Note_off_c, 0, 62, 64
2, 35360, Note_on_c, 0, 57, 60
2, 35360, Note_on_c, 0, 66, 89
2, 35360, Note_on_c, 0, 45, 98
2, 35360, Note_on_c, 0, 54, 98
2, 35360, Note_on_c, 0, 62, 89
2, 35445, Note_off_c, 0, 45, 64
2, 35465, Note_off_c, 0, 57, 64
2, 35470, Note_off_c, 0, 66, 64
2, 35480, Note_off_c, 0, 62, 64
2, 35515, Note_off_c, 0, 54, 64
2, 35520, Note_on_c, 0, 52, 98
2, 35520, Note_on_c, 0, 64, 68
2, 35520, Note_on_c, 0, 55, 80
2, 35520, Note_on_c, 0, 61, 72
2, 35520, Note_on_c, 0, 45, 80
2, 35615, Note_off_c, 0, 55, 64
2, 35635, Note_off_c, 0, 52, 64
2, 35635, Note_off_c, 0, 45, 64
2, 35645, Note_off_c, 0, 61, 64
2, 35655, Note_off_c, 0, 64, 64
2, 35840, Note_on_c, 0, 64, 45
2, 35840, Note_on_c, 0, 55, 62
2, 35840, Note_on_c, 0, 52, 89
2, 35840, Note_on_c, 0, 45, 89
2, 35840, Note_on_c, 0, 61, 64
2, 35920, Note_off_c, 0, 45, 64
2, 35930, Note_off_c, 0, 55, 64
2, 35950, Note_off_c, 0, 64, 64
2, 35955, Note_off_c, 0, 52, 64
2, 35975, Note_off_c, 0, 61, 64
2, 36000, Note_on_c, 0, 62, 85
2, 36000, Note_on_c, 0, 66, 89
2, 36000, Note_on_c, 0, 54, 107
2, 36000, Note_on_c, 0, 45, 102
2, 36150, Note_off_c, 0, 66, 64
2, 36160, Note_off_c, 0, 62, 64
2, 36160, Note_on_c, 0, 55, 102
2, 36200, Note_off_c, 0, 45, 64
2, 36320, Note_on_c, 0, 45, 93
2, 36320, Note_on_c, 0, 52, 89
2, 36320, Note_on_c, 0, 56, 98
2, 36325, Note_off_c, 0, 54, 64
2, 36340, Note_off_c, 0, 55, 64
2, 36400, Note_off_c, 0, 52, 64
2, 36425, Note_off_c, 0, 56, 64
2, 36480, Note_on_c, 0, 47, 107
2, 36480, Note_on_c, 0, 64, 89
2, 36480, Note_on_c, 0, 59, 98
2, 36480, Note_on_c, 0, 62, 93
2, 36480, Note_on_c, 0, 40, 93
2, 36485, Note_off_c, 0, 45, 64
2, 36565, Note_off_c, 0, 47, 64
2, 36575, Note_off_c, 0, 62, 64
2, 36585, Note_off_c, 0, 59, 64
2, 36590, Note_off_c, 0, 64, 64
2, 36600, Note_off_c, 0, 40, 64
2, 36800, Note_on_c, 0, 62, 93
2, 36800, Note_on_c, 0, 64, 102
2, 36800, Note_on_c, 0, 40, 89
2, 36800, Note_on_c, 0, 59, 102
2, 36800, Note_on_c, 0, 47, 98
2, 36895, Note_off_c, 0, 40, 64
2, 36920, Note_off_c, 0, 62, 64
2, 36950, Note_off_c, 0, 59, 64
2, 36955, Note_off_c, 0, 47, 64
2, 36960, Note_on_c, 0, 57, 80
2, 36960, Note_on_c, 0, 61, 76
2, 36960, Note_on_c, 0, 49, 93
2, 36960, Note_on_c, 0, 40, 85
2, 37035, Note_off_c, 0, 57, 64
2, 37040, Note_off_c, 0, 61, 64
2, 37060, Note_off_c, 0, 64, 64
2, 37060, Note_off_c, 0, 49, 64
2, 37060, Note_off_c, 0, 40, 64
2, 37280, Note_on_c, 0, 61, 93
2, 37280, Note_on_c, 0, 64, 93
2, 37280, Note_on_c, 0, 40, 93
2, 37280, Note_on_c, 0, 57, 93
2, 37280, Note_on_c, 0, 49, 98
2, 37365, Note_off_c, 0, 40, 64
2, 37390, Note_off_c, 0, 61, 64
2, 37395, Note_off_c, 0, 64, 64
2, 37395, Note_off_c, 0, 57, 64
2, 37425, Note_off_c, 0, 49, 64
2, 37440, Note_on_c, 0, 59, 80
2, 37440, Note_on_c, 0, 62, 80
2, 37440, Note_on_c, 0, 47, 89
2, 37440, Note_on_c, 0, 40, 89
2, 37440, Note_on_c, 0, 64, 62
2, 37525, Note_off_c, 0, 64, 64
2, 37535, Note_off_c, 0, 62, 64
2, 37535, Note_off_c, 0, 59, 64
2, 37545, Note_off_c, 0, 47, 64
2, 37550, Note_off_c, 0, 40, 64
2, 37760, Note_on_c, 0, 64, 102
2, 37760, Note_on_c, 0, 47, 93
2, 37760, Note_on_c, 0, 40, 89
2, 37760, Note_on_c, 0, 62, 93
2, 37760, Note_on_c, 0, 59, 102
2, 37840, Note_off_c, 0, 40, 64
2, 37875, Note_off_c, 0, 64, 64
2, 37875, Note_off_c, 0, 62, 64
2, 37885, Note_off_c, 0, 47, 64
2, 37885, Note_off_c, 0, 59, 64
2, 37920, Note_on_c, 0, 40, 98
2, 37920, Note_on_c, 0, 64, 85
2, 37920, Note_on_c, 0, 61, 98
2, 37920, Note_on_c, 0, 49, 93
2, 38045, Note_off_c, 0, 61, 64
2, 38055, Note_off_c, 0, 64, 64
2, 38080, Note_on_c, 0, 53, 93
2, 38100, Note_off_c, 0, 40, 64
2, 38240, Note_off_c, 0, 49, 64
2, 38240, Note_on_c, 0, 54, 93
2, 38240, Note_on_c, 0, 47, 80
2, 38240, Note_on_c, 0, 40, 85
2, 38260, Note_off_c, 0, 53, 64
2, 38325, Note_off_c, 0, 40, 64
2, 38340, Note_off_c, 0, 47, 64
2, 38355, Note_off_c, 0, 54, 64
2, 38400, Note_on_c, 0, 57, 102
2, 38400, Note_on_c, 0, 45, 98
2, 38400, Note_on_c, 0, 60, 93
2, 38400, Note_on_c, 0, 38, 89
2, 38400, Note_on_c, 0, 62, 89
2, 38505, Note_off_c, 0, 38, 64
2, 38510, Note_off_c, 0, 60, 64
2, 38510, Note_off_c, 0, 45, 64
2, 38515, Note_off_c, 0, 62, 64
2, 38520, Note_off_c, 0, 57, 64
2, 38720, Note_on_c, 0, 38, 72
2, 38720, Note_on_c, 0, 57, 102
2, 38720, Note_on_c, 0, 62, 98
2, 38720, Note_on_c, 0, 60, 89
2, 38720, Note_on_c, 0, 45, 93
2, 38825, Note_off_c, 0, 38, 64
2, 38835, Note_off_c, 0, 60, 64
2, 38845, Note_off_c, 0, 62, 64
2, 38865, Note_off_c, 0, 45, 64
2, 38870, Note_off_c, 0, 57, 64
2, 38880, Note_on_c, 0, 38, 80
2, 38880, Note_on_c, 0, 62, 64
2, 38880, Note_on_c, 0, 59, 85
2, 38880, Note_on_c, 0, 55, 80
2, 38880, Note_on_c, 0, 47, 93
2, 38965, Note_off_c, 0, 59, 64
2, 38970, Note_off_c, 0, 62, 64
2, 38980, Note_off_c, 0, 55, 64
2, 38985, Note_off_c, 0, 38, 64
2, 38995, Note_off_c, 0, 47, 64
2, 39200, Note_on_c, 0, 47, 93
2, 39200, Note_on_c, 0, 62, 98
2, 39200, Note_on_c, 0, 55, 93
2, 39200, Note_on_c, 0, 38, 89
2, 39200, Note_on_c, 0, 59, 98
2, 39280, Note_off_c, 0, 38, 64
2, 39300, Note_off_c, 0, 59, 64
2, 39310, Note_off_c, 0, 62, 64
2, 39330, Note_off_c, 0, 55, 64
2, 39345, Note_off_c, 0, 47, 64
2, 39360, Note_on_c, 0, 62, 64
2, 39360, Note_on_c, 0, 38, 85
2, 39360, Note_on_c, 0, 60, 72
2, 39360, Note_on_c, 0, 57, 68
2, 39360, Note_on_c, 0, 45, 93
2, 39440, Note_off_c, 0, 62, 64
2, 39455, Note_off_c, 0, 57, 64
2, 39460, Note_off_c, 0, 60, 64
2, 39485, Note_off_c, 0, 38, 64
2, 39490, Note_off_c, 0, 45, 64
2, 39680, Note_on_c, 0, 45, 85
2, 39680, Note_on_c, 0, 38, 89
2, 39680, Note_on_c, 0, 60, 85
2, 39680, Note_on_c, 0, 62, 107
2, 39680, Note_on_c, 0, 57, 98
2, 39770, Note_off_c, 0, 38, 64
2, 39775, Note_off_c, 0, 60, 64
2, 39785, Note_off_c, 0, 62, 64
2, 39795, Note_off_c, 0, 57, 64
2, 39800, Note_off_c, 0, 45, 64
2, 39840, Note_on_c, 0, 62, 93
2, 39840, Note_on_c, 0, 59, 98
2, 39840, Note_on_c, 0, 47, 98
2, 39840, Note_on_c, 0, 38, 93
2, 39960, Note_off_c, 0, 59, 64
2, 40000, Note_on_c, 0, 53, 76
2, 40045, Note_off_c, 0, 38, 64
2, 40135, Note_off_c, 0, 47, 64
2, 40160, Note_on_c, 0, 54, 93
2, 40160, Note_on_c, 0, 38, 93
2, 40160, Note_on_c, 0, 45, 89
2, 40180, Note_off_c, 0, 53, 64
2, 40225, Note_off_c, 0, 62, 64
2, 40245, Note_off_c, 0, 38, 64
2, 40275, Note_off_c, 0, 54, 64
2, 40275, Note_off_c, 0, 45, 64
2, 40320, Note_on_c, 0, 57, 102
2, 40320, Note_on_c, 0, 38, 85
2, 40320, Note_on_c, 0, 60, 89
2, 40320, Note_on_c, 0, 62, 89
2, 40320, Note_on_c, 0, 45, 93
2, 40400, Note_off_c, 0, 60, 64
2, 40410, Note_off_c, 0, 57, 64
2, 40410, Note_off_c, 0, 62, 64
2, 40445, Note_off_c, 0, 45, 64
2, 40470, Note_off_c, 0, 38, 64
2, 40640, Note_on_c, 0, 38, 85
2, 40640, Note_on_c, 0, 45, 89
2, 40640, Note_on_c, 0, 57, 98
2, 40640, Note_on_c, 0, 62, 107
2, 40640, Note_on_c, 0, 60, 93
2, 40730, Note_off_c, 0, 38, 64
2, 40750, Note_off_c, 0, 62, 64
2, 40755, Note_off_c, 0, 60, 64
2, 40780, Note_off_c, 0, 45, 64
2, 40785, Note_off_c, 0, 57, 64
2, 40800, Note_on_c, 0, 59, 85
2, 40800, Note_on_c, 0, 38, 89
2, 40800, Note_on_c, 0, 47, 98
2, 40800, Note_on_c, 0, 55, 76
2, 40800, Note_on_c, 0, 62, 72
2, 40890, Note_off_c, 0, 55, 64
2, 40890, Note_off_c, 0, 59, 64
2, 40895, Note_off_c, 0, 47, 64
2, 40895, Note_off_c, 0, 62, 64
2, 40900, Note_off_c, 0, 38, 64
2, 41120, Note_on_c, 0, 55, 76
2, 41120, Note_on_c, 0, 38, 89
2, 41120, Note_on_c, 0, 59, 89
2, 41120, Note_on_c, 0, 47, 93
2, 41120, Note_on_c, 0, 62, 93
2, 41205, Note_off_c, 0, 38, 64
2, 41225, Note_off_c, 0, 62, 64
2, 41230, Note_off_c, 0, 59, 64
2, 41235, Note_off_c, 0, 55, 64
2, 41255, Note_off_c, 0, 47, 64
2, 41280, Note_on_c, 0, 62, 72
2, 41280, Note_on_c, 0, 57, 76
2, 41280, Note_on_c, 0, 38, 89
2, 41280, Note_on_c, 0, 45, 89
2, 41280, Note_on_c, 0, 60, 80
2, 41380, Note_off_c, 0, 60, 64
2, 41390, Note_off_c, 0, 57, 64
2, 41395, Note_off_c, 0, 62, 64
2, 41395, Note_off_c, 0, 38, 64
2, 41400, Note_off_c, 0, 45, 64
2, 41600, Note_on_c, 0, 45, 80
2, 41600, Note_on_c, 0, 62, 93
2, 41600, Note_on_c, 0, 57, 98
2, 41600, Note_on_c, 0, 60, 80
2, 41600, Note_on_c, 0, 38, 85
2, 41685, Note_off_c, 0, 38, 64
2, 41695, Note_off_c, 0, 60, 64
2, 41710, Note_off_c, 0, 62, 64
2, 41710, Note_off_c, 0, 45, 64
2, 41720, Note_off_c, 0, 57, 64
2, 41760, Note_on_c, 0, 62, 85
2, 41760, Note_on_c, 0, 59, 93
2, 41760, Note_on_c, 0, 47, 93
2, 41760, Note_on_c, 0, 38, 89
2, 41865, Note_off_c, 0, 59, 64
2, 41920, Note_off_c, 0, 38, 64
2, 41920, Note_on_c, 0, 53, 89
2, 42080, Note_off_c, 0, 47, 64
2, 42080, Note_on_c, 0, 45, 89
2, 42080, Note_on_c, 0, 38, 85
2, 42080, Note_on_c, 0, 54, 85
2, 42110, Note_off_c, 0, 53, 64
2, 42140, Note_off_c, 0, 62, 64
2, 42145, Note_off_c, 0, 45, 64
2, 42165, Note_off_c, 0, 54, 64
2, 42225, Note_off_c, 0, 38, 64
2, 42240, Note_on_c, 0, 64, 89
2, 42240, Note_on_c, 0, 52, 107
2, 42240, Note_on_c, 0, 61, 93
2, 42240, Note_on_c, 0, 45, 107
2, 42240, Note_on_c, 0, 55, 76
2, 42330, Note_off_c, 0, 55, 64
2, 42330, Note_off_c, 0, 61, 64
2, 42330, Note_off_c, 0, 64, 64
2, 42350, Note_off_c, 0, 45, 64
2, 42360, Note_off_c, 0, 52, 64
2, 42560, Note_on_c, 0, 64, 68
2, 42560, Note_on_c, 0, 55, 76
2, 42560, Note_on_c, 0, 61, 68
2, 42560, Note_on_c, 0, 45, 107
2, 42560, Note_on_c, 0, 52, 93
2, 42615, Note_off_c, 0, 55, 64
2, 42625, Note_off_c, 0, 64, 64
2, 42635, Note_off_c, 0, 61, 64
2, 42655, Note_off_c, 0, 45, 64
2, 42720, Note_on_c, 0, 62, 76
2, 42720, Note_on_c, 0, 66, 93
2, 42720, Note_on_c, 0, 45, 89
2, 42720, Note_on_c, 0, 57, 80
2, 42720, Note_on_c, 0, 54, 93
2, 42725, Note_off_c, 0, 52, 64
2, 42805, Note_off_c, 0, 54, 64
2, 42810, Note_off_c, 0, 45, 64
2, 42840, Note_off_c, 0, 66, 64
2, 42840, Note_off_c, 0, 57, 64
2, 42845, Note_off_c, 0, 62, 64
2, 43040, Note_on_c, 0, 57, 64
2, 43040, Note_on_c, 0, 54, 102
2, 43040, Note_on_c, 0, 66, 76
2, 43040, Note_on_c, 0, 62, 72
2, 43040, Note_on_c, 0, 45, 102
2, 43115, Note_off_c, 0, 45, 64
2, 43135, Note_off_c, 0, 57, 64
2, 43145, Note_off_c, 0, 66, 64
2, 43165, Note_off_c, 0, 62, 64
2, 43180, Note_off_c, 0, 54, 64
2, 43200, Note_on_c, 0, 61, 80
2, 43200, Note_on_c, 0, 55, 68
2, 43200, Note_on_c, 0, 52, 93
2, 43200, Note_on_c, 0, 64, 80
2, 43200, Note_on_c, 0, 45, 93
2, 43275, Note_off_c, 0, 55, 64
2, 43305, Note_off_c, 0, 45, 64
2, 43310, Note_off_c, 0, 52, 64
2, 43315, Note_off_c, 0, 61, 64
2, 43340, Note_off_c, 0, 64, 64
2, 43520, Note_on_c, 0, 61, 57
2, 43520, Note_on_c, 0, 64, 51
2, 43520, Note_on_c, 0, 45, 98
2, 43520, Note_on_c, 0, 55, 50
2, 43520, Note_on_c, 0, 52, 93
2, 43605, Note_off_c, 0, 55, 64
2, 43605, Note_off_c, 0, 45, 64
2, 43630, Note_off_c, 0, 64, 64
2, 43645, Note_off_c, 0, 61, 64
2, 43645, Note_off_c, 0, 52, 64
2, 43680, Note_on_c, 0, 66, 80
2, 43680, Note_on_c, 0, 57, 49
2, 43680, Note_on_c, 0, 62, 85
2, 43680, Note_on_c, 0, 45, 98
2, 43680, Note_on_c, 0, 54, 93
2, 43710, Note_off_c, 0, 57, 64
2, 43800, Note_off_c, 0, 62, 64
2, 43810, Note_off_c, 0, 66, 64
2, 43825, Note_off_c, 0, 45, 64
2, 43840, Note_on_c, 0, 55, 98
2, 44000, Note_on_c, 0, 52, 85
2, 44000, Note_on_c, 0, 56, 93
2, 44000, Note_on_c, 0, 45, 85
2, 44020, Note_off_c, 0, 54, 64
2, 44030, Note_off_c, 0, 55, 64
2, 44080, Note_off_c, 0, 52, 64
2, 44100, Note_off_c, 0, 56, 64
2, 44145, Note_off_c, 0, 45, 64
2, 44160, Note_on_c, 0, 47, 102
2, 44160, Note_on_c, 0, 64, 93
2, 44160, Note_on_c, 0, 62, 93
2, 44160, Note_on_c, 0, 40, 89
2, 44160, Note_on_c, 0, 59, 98
2, 44250, Note_off_c, 0, 59, 64
2, 44250, Note_off_c, 0, 47, 64
2, 44265, Note_off_c, 0, 62, 64
2, 44270, Note_off_c, 0, 64, 64
2, 44270, Note_off_c, 0, 40, 64
2, 44480, Note_on_c, 0, 59, 93
2, 44480, Note_on_c, 0, 62, 85
2, 44480, Note_on_c, 0, 47, 89
2, 44480, Note_on_c, 0, 64, 98
2, 44480, Note_on_c, 0, 40, 89
2, 44575, Note_off_c, 0, 40, 64
2, 44585, Note_off_c, 0, 62, 64
2, 44600, Note_off_c, 0, 64, 64
2, 44620, Note_off_c, 0, 59, 64
2, 44640, Note_on_c, 0, 40, 89
2, 44640, Note_on_c, 0, 57, 89
2, 44640, Note_on_c, 0, 49, 93
2, 44640, Note_on_c, 0, 61, 85
2, 44640, Note_on_c, 0, 64, 80
2, 44655, Note_off_c, 0, 47, 64
2, 44725, Note_off_c, 0, 40, 64
2, 44735, Note_off_c, 0, 49, 64
2, 44740, Note_off_c, 0, 61, 64
2, 44740, Note_off_c, 0, 64, 64
2, 44745, Note_off_c, 0, 57, 64
2, 44960, Note_on_c, 0, 57, 89
2, 44960, Note_on_c, 0, 61, 93
2, 44960, Note_on_c, 0, 64, 89
2, 44960, Note_on_c, 0, 49, 107
2, 44960, Note_on_c, 0, 40, 85
2, 45040, Note_off_c, 0, 40, 64
2, 45070, Note_off_c, 0, 61, 64
2, 45085, Note_off_c, 0, 64, 64
2, 45090, Note_off_c, 0, 57, 64
2, 45095, Note_off_c, 0, 49, 64
2, 45120, Note_on_c, 0, 47, 98
2, 45120, Note_on_c, 0, 59, 76
2, 45120, Note_on_c, 0, 62, 80
2, 45120, Note_on_c, 0, 40, 85
2, 45120, Note_on_c, 0, 64, 60
2, 45225, Note_off_c, 0, 64, 64
2, 45230, Note_off_c, 0, 59, 64
2, 45230, Note_off_c, 0, 47, 64
2, 45235, Note_off_c, 0, 62, 64
2, 45235, Note_off_c, 0, 40, 64
2, 45440, Note_on_c, 0, 62, 89
2, 45440, Note_on_c, 0, 40, 89
2, 45440, Note_on_c, 0, 47, 98
2, 45440, Note_on_c, 0, 64, 93
2, 45440, Note_on_c, 0, 59, 93
2, 45520, Note_off_c, 0, 40, 64
2, 45565, Note_off_c, 0, 62, 64
2, 45575, Note_off_c, 0, 59, 64
2, 45585, Note_off_c, 0, 47, 64
2, 45600, Note_on_c, 0, 61, 98
2, 45600, Note_on_c, 0, 49, 89
2, 45600, Note_on_c, 0, 40, 80
2, 45740, Note_off_c, 0, 40, 64
2, 45885, Note_off_c, 0, 61, 64
2, 45920, Note_on_c, 0, 47, 93
2, 45920, Note_on_c, 0, 40, 76
2, 45920, Note_on_c, 0, 59, 59
2, 45925, Note_off_c, 0, 49, 64
2, 46030, Note_off_c, 0, 59, 64
2, 46040, Note_off_c, 0, 64, 64
2, 46045, Note_off_c, 0, 47, 64
2, 46065, Note_off_c, 0, 40, 64
2, 46080, Note_on_c, 0, 45, 102
2, 46080, Note_on_c, 0, 57, 93
2, 46080, Note_on_c, 0, 61, 107
2, 46080, Note_on_c, 0, 64, 107
2, 46290, Note_off_c, 0, 57, 64
2, 46400, Note_on_c, 0, 57, 85
2, 46480, Note_off_c, 0, 57, 64
2, 46515, Note_off_c, 0, 45, 64
2, 46560, Note_on_c, 0, 43, 89
2, 46560, Note_on_c, 0, 55, 107
2, 46740, Note_off_c, 0, 64, 64
2, 46755, Note_off_c, 0, 61, 64
2, 46880, Note_on_c, 0, 61, 107
2, 46880, Note_on_c, 0, 64, 102
2, 46920, Note_off_c, 0, 55, 64
2, 46975, Note_off_c, 0, 64, 64
2, 47010, Note_off_c, 0, 43, 64
2, 47025, Note_off_c, 0, 61, 64
2, 47040, Note_on_c, 0, 54, 72
2, 47040, Note_on_c, 0, 42, 85
2, 47360, Note_on_c, 0, 62, 93
2, 47360, Note_on_c, 0, 57, 80
2, 47470, Note_off_c, 0, 54, 64
2, 47500, Note_off_c, 0, 42, 64
2, 47520, Note_on_c, 0, 41, 89
2, 47520, Note_on_c, 0, 53, 89
2, 47730, Note_off_c, 0, 57, 64
2, 47840, Note_on_c, 0, 57, 76
2, 47895, Note_off_c, 0, 53, 64
2, 47950, Note_off_c, 0, 41, 64
2, 47960, Note_off_c, 0, 62, 64
2, 48000, Note_on_c, 0, 40, 93
2, 48000, Note_on_c, 0, 52, 76
2, 48000, Note_on_c, 0, 61, 107
2, 48255, Note_off_c, 0, 52, 64
2, 48480, Note_on_c, 0, 52, 62
2, 48550, Note_off_c, 0, 61, 64
2, 48565, Note_off_c, 0, 57, 64
2, 48640, Note_off_c, 0, 40, 64
2, 48800, Note_off_c, 0, 52, 64
2, 48800, Note_on_c, 0, 52, 113
2, 48800, Note_on_c, 0, 62, 98
2, 48800, Note_on_c, 0, 40, 102
2, 48800, Note_on_c, 0, 64, 98
2, 49440, Note_off_c, 0, 52, 64
2, 49440, Note_on_c, 0, 52, 98
2, 49490, Note_off_c, 0, 64, 64
2, 49530, Note_off_c, 0, 62, 64
2, 49600, Note_on_c, 0, 54, 102
2, 49710, Note_off_c, 0, 54, 64
2, 49760, Note_on_c, 0, 57, 93
2, 49775, Note_off_c, 0, 52, 64
2, 49855, Note_off_c, 0, 40, 64
2, 49855, Note_off_c, 0, 57, 64
2, 49920, Note_on_c, 0, 61, 93
2, 49920, Note_on_c, 0, 64, 93
2, 49920, Note_on_c, 0, 45, 107
2, 49920, Note_on_c, 0, 52, 102
2, 49920, Note_on_c, 0, 55, 93
2, 50015, Note_off_c, 0, 55, 64
2, 50015, Note_off_c, 0, 64, 64
2, 50025, Note_off_c, 0, 61, 64
2, 50025, Note_off_c, 0, 52, 64
2, 50030, Note_off_c, 0, 45, 64
2, 50240, Note_on_c, 0, 64, 85
2, 50240, Note_on_c, 0, 55, 89
2, 50240, Note_on_c, 0, 45, 98
2, 50240, Note_on_c, 0, 61, 76
2, 50240, Note_on_c, 0, 52, 93
2, 50330, Note_off_c, 0, 55, 64
2, 50335, Note_off_c, 0, 45, 64
2, 50345, Note_off_c, 0, 64, 64
2, 50380, Note_off_c, 0, 61, 64
2, 50400, Note_on_c, 0, 45, 85
2, 50400, Note_on_c, 0, 62, 89
2, 50400, Note_on_c, 0, 54, 93
2, 50400, Note_on_c, 0, 57, 85
2, 50400, Note_on_c, 0, 66, 102
2, 50410, Note_off_c, 0, 52, 64
2, 50490, Note_off_c, 0, 66, 64
2, 50495, Note_off_c, 0, 54, 64
2, 50495, Note_off_c, 0, 57, 64
2, 50500, Note_off_c, 0, 45, 64
2, 50505, Note_off_c, 0, 62, 64
2, 50720, Note_on_c, 0, 45, 98
2, 50720, Note_on_c, 0, 57, 60
2, 50720, Note_on_c, 0, 54, 98
2, 50720, Note_on_c, 0, 62, 89
2, 50720, Note_on_c, 0, 66, 89
2, 50805, Note_off_c, 0, 45, 64
2, 50825, Note_off_c, 0, 57, 64
2, 50830, Note_off_c, 0, 66, 64
2, 50840, Note_off_c, 0, 62, 64
2, 50875, Note_off_c, 0, 54, 64
2, 50880, Note_on_c, 0, 45, 80
2, 50880, Note_on_c, 0, 61, 72
2, 50880, Note_on_c, 0, 52, 98
2, 50880, Note_on_c, 0, 64, 68
2, 50880, Note_on_c, 0, 55, 80
2, 50975, Note_off_c, 0, 55, 64
2, 50995, Note_off_c, 0, 52, 64
2, 50995, Note_off_c, 0, 45, 64
2, 51005, Note_off_c, 0, 61, 64
2, 51015, Note_off_c, 0, 64, 64
2, 51200, Note_on_c, 0, 45, 89
2, 51200, Note_on_c, 0, 61, 64
2, 51200, Note_on_c, 0, 52, 89
2, 51200, Note_on_c, 0, 64, 45
2, 51200, Note_on_c, 0, 55, 62
2, 51280, Note_off_c, 0, 45, 64
2, 51290, Note_off_c, 0, 55, 64
2, 51310, Note_off_c, 0, 64, 64
2, 51315, Note_off_c, 0, 52, 64
2, 51335, Note_off_c, 0, 61, 64
2, 51360, Note_on_c, 0, 54, 107
2, 51360, Note_on_c, 0, 62, 85
2, 51360, Note_on_c, 0, 45, 102
2, 51360, Note_on_c, 0, 66, 89
2, 51510, Note_off_c, 0, 66, 64
2, 51520, Note_off_c, 0, 62, 64
2, 51520, Note_on_c, 0, 55, 102
2, 51560, Note_off_c, 0, 45, 64
2, 51680, Note_on_c, 0, 45, 93
2, 51680, Note_on_c, 0, 52, 89
2, 51680, Note_on_c, 0, 56, 98
2, 51685, Note_off_c, 0, 54, 64
2, 51700, Note_off_c, 0, 55, 64
2, 51760, Note_off_c, 0, 52, 64
2, 51785, Note_off_c, 0, 56, 64
2, 51840, Note_on_c, 0, 47, 107
2, 51840, Note_on_c, 0, 62, 93
2, 51840, Note_on_c, 0, 40, 93
2, 51840, Note_on_c, 0, 64, 89
2, 51840, Note_on_c, 0, 59, 98
2, 51845, Note_off_c, 0, 45, 64
2, 51925, Note_off_c, 0, 47, 64
2, 51935, Note_off_c, 0, 62, 64
2, 51945, Note_off_c, 0, 59, 64
2, 51950, Note_off_c, 0, 64, 64
2, 51960, Note_off_c, 0, 40, 64
2, 52160, Note_on_c, 0, 47, 98
2, 52160, Note_on_c, 0, 59, 102
2, 52160, Note_on_c, 0, 40, 89
2, 52160, Note_on_c, 0, 64, 102
2, 52160, Note_on_c, 0, 62, 93
2, 52255, Note_off_c, 0, 40, 64
2, 52280, Note_off_c, 0, 62, 64
2, 52310, Note_off_c, 0, 59, 64
2, 52315, Note_off_c, 0, 47, 64
2, 52320, Note_on_c, 0, 57, 80
2, 52320, Note_on_c, 0, 49, 93
2, 52320, Note_on_c, 0, 40, 85
2, 52320, Note_on_c, 0, 61, 76
2, 52395, Note_off_c, 0, 57, 64
2, 52400, Note_off_c, 0, 61, 64
2, 52420, Note_off_c, 0, 64, 64
2, 52420, Note_off_c, 0, 49, 64
2, 52420, Note_off_c, 0, 40, 64
2, 52640, Note_on_c, 0, 64, 93
2, 52640, Note_on_c, 0, 40, 93
2, 52640, Note_on_c, 0, 57, 93
2, 52640, Note_on_c, 0, 49, 98
2, 52640, Note_on_c, 0, 61, 93
2, 52725, Note_off_c, 0, 40, 64
2, 52750, Note_off_c, 0, 61, 64
2, 52755, Note_off_c, 0, 64, 64
2, 52755, Note_off_c, 0, 57, 64
2, 52785, Note_off_c, 0, 49, 64
2, 52800, Note_on_c, 0, 40, 89
2, 52800, Note_on_c, 0, 62, 80
2, 52800, Note_on_c, 0, 64, 62
2, 52800, Note_on_c, 0, 59, 80
2, 52800, Note_on_c, 0, 47, 89
2, 52885, Note_off_c, 0, 64, 64
2, 52895, Note_off_c, 0, 62, 64
2, 52895, Note_off_c, 0, 59, 64
2, 52905, Note_off_c, 0, 47, 64
2, 52910, Note_off_c, 0, 40, 64
2, 53120, Note_on_c, 0, 40, 89
2, 53120, Note_on_c, 0, 47, 93
2, 53120, Note_on_c, 0, 64, 102
2, 53120, Note_on_c, 0, 62, 93
2, 53120, Note_on_c, 0, 59, 102
2, 53200, Note_off_c, 0, 40, 64
2, 53235, Note_off_c, 0, 64, 64
2, 53235, Note_off_c, 0, 62, 64
2, 53245, Note_off_c, 0, 47, 64
2, 53245, Note_off_c, 0, 59, 64
2, 53280, Note_on_c, 0, 49, 93
2, 53280, Note_on_c, 0, 64, 85
2, 53280, Note_on_c, 0, 40, 98
2, 53280, Note_on_c, 0, 61, 98
2, 53405, Note_off_c, 0, 61, 64
2, 53415, Note_off_c, 0, 64, 64
2, 53440, Note_on_c, 0, 53, 93
2, 53460, Note_off_c, 0, 40, 64
2, 53600, Note_off_c, 0, 49, 64
2, 53600, Note_on_c, 0, 40, 85
2, 53600, Note_on_c, 0, 54, 93
2, 53600, Note_on_c, 0, 47, 80
2, 53620, Note_off_c, 0, 53, 64
2, 53685, Note_off_c, 0, 40, 64
2, 53700, Note_off_c, 0, 47, 64
2, 53715, Note_off_c, 0, 54, 64
2, 53760, Note_on_c, 0, 38, 89
2, 53760, Note_on_c, 0, 57, 102
2, 53760, Note_on_c, 0, 62, 89
2, 53760, Note_on_c, 0, 45, 98
2, 53760, Note_on_c, 0, 60, 93
2, 53865, Note_off_c, 0, 38, 64
2, 53870, Note_off_c, 0, 45, 64
2, 53870, Note_off_c, 0, 60, 64
2, 53875, Note_off_c, 0, 62, 64
2, 53880, Note_off_c, 0, 57, 64
2, 54080, Note_on_c, 0, 45, 93
2, 54080, Note_on_c, 0, 60, 89
2, 54080, Note_on_c, 0, 38, 72
2, 54080, Note_on_c, 0, 62, 98
2, 54080, Note_on_c, 0, 57, 102
2, 54185, Note_off_c, 0, 38, 64
2, 54195, Note_off_c, 0, 60, 64
2, 54205, Note_off_c, 0, 62, 64
2, 54225, Note_off_c, 0, 45, 64
2, 54230, Note_off_c, 0, 57, 64
2, 54240, Note_on_c, 0, 47, 93
2, 54240, Note_on_c, 0, 59, 85
2, 54240, Note_on_c, 0, 62, 64
2, 54240, Note_on_c, 0, 38, 80
2, 54240, Note_on_c, 0, 55, 80
2, 54325, Note_off_c, 0, 59, 64
2, 54330, Note_off_c, 0, 62, 64
2, 54340, Note_off_c, 0, 55, 64
2, 54345, Note_off_c, 0, 38, 64
2, 54355, Note_off_c, 0, 47, 64
2, 54560, Note_on_c, 0, 62, 98
2, 54560, Note_on_c, 0, 47, 93
2, 54560, Note_on_c, 0, 55, 93
2, 54560, Note_on_c, 0, 59, 98
2, 54560, Note_on_c, 0, 38, 89
2, 54640, Note_off_c, 0, 38, 64
2, 54660, Note_off_c, 0, 59, 64
2, 54670, Note_off_c, 0, 62, 64
2, 54690, Note_off_c, 0, 55, 64
2, 54705, Note_off_c, 0, 47, 64
2, 54720, Note_on_c, 0, 45, 93
2, 54720, Note_on_c, 0, 38, 85
2, 54720, Note_on_c, 0, 62, 64
2, 54720, Note_on_c, 0, 57, 68
2, 54720, Note_on_c, 0, 60, 72
2, 54800, Note_off_c, 0, 62, 64
2, 54815, Note_off_c, 0, 57, 64
2, 54820, Note_off_c, 0, 60, 64
2, 54845, Note_off_c, 0, 38, 64
2, 54850, Note_off_c, 0, 45, 64
2, 55040, Note_on_c, 0, 45, 85
2, 55040, Note_on_c, 0, 38, 89
2, 55040, Note_on_c, 0, 60, 85
2, 55040, Note_on_c, 0, 57, 98
2, 55040, Note_on_c, 0, 62, 107
2, 55130, Note_off_c, 0, 38, 64
2, 55135, Note_off_c, 0, 60, 64
2, 55145, Note_off_c, 0, 62, 64
2, 55155, Note_off_c, 0, 57, 64
2, 55160, Note_off_c, 0, 45, 64
2, 55200, Note_on_c, 0, 47, 98
2, 55200, Note_on_c, 0, 62, 93
2, 55200, Note_on_c, 0, 59, 98
2, 55200, Note_on_c, 0, 38, 93
2, 55320, Note_off_c, 0, 59, 64
2, 55360, Note_on_c, 0, 53, 76
2, 55405, Note_off_c, 0, 38, 64
2, 55495, Note_off_c, 0, 47, 64
2, 55520, Note_on_c, 0, 54, 93
2, 55520, Note_on_c, 0, 38, 93
2, 55520, Note_on_c, 0, 45, 89
2, 55540, Note_off_c, 0, 53, 64
2, 55585, Note_off_c, 0, 62, 64
2, 55605, Note_off_c, 0, 38, 64
2, 55635, Note_off_c, 0, 54, 64
2, 55635, Note_off_c, 0, 45, 64
2, 55680, Note_on_c, 0, 62, 89
2, 55680, Note_on_c, 0, 38, 85
2, 55680, Note_on_c, 0, 60, 89
2, 55680, Note_on_c, 0, 57, 102
2, 55680, Note_on_c, 0, 45, 93
2, 55760, Note_off_c, 0, 60, 64
2, 55770, Note_off_c, 0, 62, 64
2, 55770, Note_off_c, 0, 57, 64
2, 55805, Note_off_c, 0, 45, 64
2, 55830, Note_off_c, 0, 38, 64
2, 56000, Note_on_c, 0, 45, 89
2, 56000, Note_on_c, 0, 62, 107
2, 56000, Note_on_c, 0, 38, 85
2, 56000, Note_on_c, 0, 60, 93
2, 56000, Note_on_c, 0, 57, 98
2, 56090, Note_off_c, 0, 38, 64
2, 56110, Note_off_c, 0, 62, 64
2, 56115, Note_off_c, 0, 60, 64
2, 56140, Note_off_c, 0, 45, 64
2, 56145, Note_off_c, 0, 57, 64
2, 56160, Note_on_c, 0, 38, 89
2, 56160, Note_on_c, 0, 59, 85
2, 56160, Note_on_c, 0, 55, 76
2, 56160, Note_on_c, 0, 62, 72
2, 56160, Note_on_c, 0, 47, 98
2, 56250, Note_off_c, 0, 55, 64
2, 56250, Note_off_c, 0, 59, 64
2, 56255, Note_off_c, 0, 62, 64
2, 56255, Note_off_c, 0, 47, 64
2, 56260, Note_off_c, 0, 38, 64
2, 56480, Note_on_c, 0, 62, 93
2, 56480, Note_on_c, 0, 38, 89
2, 56480, Note_on_c, 0, 47, 93
2, 56480, Note_on_c, 0, 55, 76
2, 56480, Note_on_c, 0, 59, 89
2, 56565, Note_off_c, 0, 38, 64
2, 56585, Note_off_c, 0, 62, 64
2, 56590, Note_off_c, 0, 59, 64
2, 56595, Note_off_c, 0, 55, 64
2, 56615, Note_off_c, 0, 47, 64
2, 56640, Note_on_c, 0, 45, 89
2, 56640, Note_on_c, 0, 62, 72
2, 56640, Note_on_c, 0, 60, 80
2, 56640, Note_on_c, 0, 57, 76
2, 56640, Note_on_c, 0, 38, 89
2, 56740, Note_off_c, 0, 60, 64
2, 56750, Note_off_c, 0, 57, 64
2, 56755, Note_off_c, 0, 62, 64
2, 56755, Note_off_c, 0, 38, 64
2, 56760, Note_off_c, 0, 45, 64
2, 56960, Note_on_c, 0, 62, 93
2, 56960, Note_on_c, 0, 45, 80
2, 56960, Note_on_c, 0, 57, 98
2, 56960, Note_on_c, 0, 60, 80
2, 56960, Note_on_c, 0, 38, 85
2, 57045, Note_off_c, 0, 38, 64
2, 57055, Note_off_c, 0, 60, 64
2, 57070, Note_off_c, 0, 45, 64
2, 57070, Note_off_c, 0, 62, 64
2, 57080, Note_off_c, 0, 57, 64
2, 57120, Note_on_c, 0, 59, 93
2, 57120, Note_on_c, 0, 47, 93
2, 57120, Note_on_c, 0, 38, 89
2, 57120, Note_on_c, 0, 62, 85
2, 57225, Note_off_c, 0, 59, 64
2, 57280, Note_off_c, 0, 38, 64
2, 57280, Note_on_c, 0, 53, 89
2, 57440, Note_off_c, 0, 47, 64
2, 57440, Note_on_c, 0, 54, 85
2, 57440, Note_on_c, 0, 45, 89
2, 57440, Note_on_c, 0, 38, 85
2, 57470, Note_off_c, 0, 53, 64
2, 57500, Note_off_c, 0, 62, 64
2, 57505, Note_off_c, 0, 45, 64
2, 57525, Note_off_c, 0, 54, 64
2, 57585, Note_off_c, 0, 38, 64
2, 57600, Note_on_c, 0, 64, 89
2, 57600, Note_on_c, 0, 45, 107
2, 57600, Note_on_c, 0, 55, 76
2, 57600, Note_on_c, 0, 52, 107
2, 57600, Note_on_c, 0, 61, 93
2, 57690, Note_off_c, 0, 61, 64
2, 57690, Note_off_c, 0, 55, 64
2, 57690, Note_off_c, 0, 64, 64
2, 57710, Note_off_c, 0, 45, 64
2, 57720, Note_off_c, 0, 52, 64
2, 57920, Note_on_c, 0, 55, 76
2, 57920, Note_on_c, 0, 61, 68
2, 57920, Note_on_c, 0, 45, 107
2, 57920, Note_on_c, 0, 52, 93
2, 57920, Note_on_c, 0, 64, 68
2, 57975, Note_off_c, 0, 55, 64
2, 57985, Note_off_c, 0, 64, 64
2, 57995, Note_off_c, 0, 61, 64
2, 58015, Note_off_c, 0, 45, 64
2, 58080, Note_on_c, 0, 57, 80
2, 58080, Note_on_c, 0, 66, 93
2, 58080, Note_on_c, 0, 54, 93
2, 58080, Note_on_c, 0, 62, 76
2, 58080, Note_on_c, 0, 45, 89
2, 58085, Note_off_c, 0, 52, 64
2, 58165, Note_off_c, 0, 54, 64
2, 58170, Note_off_c, 0, 45, 64
2, 58200, Note_off_c, 0, 57, 64
2, 58200, Note_off_c, 0, 66, 64
2, 58205, Note_off_c, 0, 62, 64
2, 58400, Note_on_c, 0, 66, 76
2, 58400, Note_on_c, 0, 62, 72
2, 58400, Note_on_c, 0, 57, 64
2, 58400, Note_on_c, 0, 54, 102
2, 58400, Note_on_c, 0, 45, 102
2, 58475, Note_off_c, 0, 45, 64
2, 58495, Note_off_c, 0, 57, 64
2, 58505, Note_off_c, 0, 66, 64
2, 58525, Note_off_c, 0, 62, 64
2, 58540, Note_off_c, 0, 54, 64
2, 58560, Note_on_c, 0, 61, 80
2, 58560, Note_on_c, 0, 64, 80
2, 58560, Note_on_c, 0, 45, 93
2, 58560, Note_on_c, 0, 55, 68
2, 58560, Note_on_c, 0, 52, 93
2, 58635, Note_off_c, 0, 55, 64
2, 58665, Note_off_c, 0, 45, 64
2, 58670, Note_off_c, 0, 52, 64
2, 58675, Note_off_c, 0, 61, 64
2, 58700, Note_off_c, 0, 64, 64
2, 58880, Note_on_c, 0, 52, 93
2, 58880, Note_on_c, 0, 61, 57
2, 58880, Note_on_c, 0, 55, 50
2, 58880, Note_on_c, 0, 45, 98
2, 58880, Note_on_c, 0, 64, 51
2, 58965, Note_off_c, 0, 45, 64
2, 58965, Note_off_c, 0, 55, 64
2, 58990, Note_off_c, 0, 64, 64
2, 59005, Note_off_c, 0, 61, 64
2, 59005, Note_off_c, 0, 52, 64
2, 59040, Note_on_c, 0, 66, 80
2, 59040, Note_on_c, 0, 45, 98
2, 59040, Note_on_c, 0, 54, 93
2, 59040, Note_on_c, 0, 57, 49
2, 59040, Note_on_c, 0, 62, 85
2, 59070, Note_off_c, 0, 57, 64
2, 59160, Note_off_c, 0, 62, 64
2, 59170, Note_off_c, 0, 66, 64
2, 59185, Note_off_c, 0, 45, 64
2, 59200, Note_on_c, 0, 55, 98
2, 59360, Note_on_c, 0, 56, 93
2, 59360, Note_on_c, 0, 45, 85
2, 59360, Note_on_c, 0, 52, 85
2, 59380, Note_off_c, 0, 54, 64
2, 59390, Note_off_c, 0, 55, 64
2, 59440, Note_off_c, 0, 52, 64
2, 59460, Note_off_c, 0, 56, 64
2, 59505, Note_off_c, 0, 45, 64
2, 59520, Note_on_c, 0, 40, 89
2, 59520, Note_on_c, 0, 47, 102
2, 59520, Note_on_c, 0, 59, 98
2, 59520, Note_on_c, 0, 62, 93
2, 59520, Note_on_c, 0, 64, 93
2, 59610, Note_off_c, 0, 59, 64
2, 59610, Note_off_c, 0, 47, 64
2, 59625, Note_off_c, 0, 62, 64
2, 59630, Note_off_c, 0, 40, 64
2, 59630, Note_off_c, 0, 64, 64
2, 59840, Note_on_c, 0, 59, 93
2, 59840, Note_on_c, 0, 40, 89
2, 59840, Note_on_c, 0, 62, 85
2, 59840, Note_on_c, 0, 47, 89
2, 59840, Note_on_c, 0, 64, 98
2, 59935, Note_off_c, 0, 40, 64
2, 59945, Note_off_c, 0, 62, 64
2, 59960, Note_off_c, 0, 64, 64
2, 59980, Note_off_c, 0, 59, 64
2, 60000, Note_on_c, 0, 64, 80
2, 60000, Note_on_c, 0, 49, 93
2, 60000, Note_on_c, 0, 40, 89
2, 60000, Note_on_c, 0, 57, 89
2, 60000, Note_on_c, 0, 61, 85
2, 60015, Note_off_c, 0, 47, 64
2, 60085, Note_off_c, 0, 40, 64
2, 60095, Note_off_c, 0, 49, 64
2, 60100, Note_off_c, 0, 64, 64
2, 60100, Note_off_c, 0, 61, 64
2, 60105, Note_off_c, 0, 57, 64
2, 60320, Note_on_c, 0, 40, 85
2, 60320, Note_on_c, 0, 49, 107
2, 60320, Note_on_c, 0, 64, 89
2, 60320, Note_on_c, 0, 61, 93
2, 60320, Note_on_c, 0, 57, 89
2, 60400, Note_off_c, 0, 40, 64
2, 60430, Note_off_c, 0, 61, 64
2, 60445, Note_off_c, 0, 64, 64
2, 60450, Note_off_c, 0, 57, 64
2, 60455, Note_off_c, 0, 49, 64
2, 60480, Note_on_c, 0, 64, 60
2, 60480, Note_on_c, 0, 47, 98
2, 60480, Note_on_c, 0, 59, 76
2, 60480, Note_on_c, 0, 62, 80
2, 60480, Note_on_c, 0, 40, 85
2, 60585, Note_off_c, 0, 64, 64
2, 60590, Note_off_c, 0, 47, 64
2, 60590, Note_off_c, 0, 59, 64
2, 60595, Note_off_c, 0, 62, 64
2, 60595, Note_off_c, 0, 40, 64
2, 60800, Note_on_c, 0, 64, 93
2, 60800, Note_on_c, 0, 62, 89
2, 60800, Note_on_c, 0, 40, 89
2, 60800, Note_on_c, 0, 47, 98
2, 60800, Note_on_c, 0, 59, 93
2, 60880, Note_off_c, 0, 40, 64
2, 60925, Note_off_c, 0, 62, 64
2, 60935, Note_off_c, 0, 59, 64
2, 60945, Note_off_c, 0, 47, 64
2, 60960, Note_on_c, 0, 40, 80
2, 60960, Note_on_c, 0, 61, 98
2, 60960, Note_on_c, 0, 49, 89
2, 61100, Note_off_c, 0, 40, 64
2, 61245, Note_off_c, 0, 61, 64
2, 61280, Note_on_c, 0, 47, 93
2, 61280, Note_on_c, 0, 40, 76
2, 61280, Note_on_c, 0, 59, 59
2, 61285, Note_off_c, 0, 49, 64
2, 61390, Note_off_c, 0, 59, 64
2, 61400, Note_off_c, 0, 64, 64
2, 61405, Note_off_c, 0, 47, 64
2, 61425, Note_off_c, 0, 40, 64
2, 61440, Note_on_c, 0, 57, 93
2, 61440, Note_on_c, 0, 61, 107
2, 61440, Note_on_c, 0, 64, 107
2, 61440, Note_on_c, 0, 45, 102
2, 61650, Note_off_c, 0, 57, 64
2, 61760, Note_on_c, 0, 57, 85
2, 61840, Note_off_c, 0, 57, 64
2, 61875, Note_off_c, 0, 45, 64
2, 61920, Note_on_c, 0, 43, 89
2, 61920, Note_on_c, 0, 55, 107
2, 62100, Note_off_c, 0, 64, 64
2, 62115, Note_off_c, 0, 61, 64
2, 62240, Note_on_c, 0, 61, 107
2, 62240, Note_on_c, 0, 64, 102
2, 62280, Note_off_c, 0, 55, 64
2, 62335, Note_off_c, 0, 64, 64
2, 62370, Note_off_c, 0, 43, 64
2, 62385, Note_off_c, 0, 61, 64
2, 62400, Note_on_c, 0, 54, 72
2, 62400, Note_on_c, 0, 42, 85
2, 62720, Note_on_c, 0, 62, 93
2, 62720, Note_on_c, 0, 57, 80
2, 62830, Note_off_c, 0, 54, 64
2, 62860, Note_off_c, 0, 42, 64
2, 62880, Note_on_c, 0, 53, 89
2, 62880, Note_on_c, 0, 41, 89
2, 63090, Note_off_c, 0, 57, 64
2, 63200, Note_on_c, 0, 57, 76
2, 63255, Note_off_c, 0, 53, 64
2, 63310, Note_off_c, 0, 41, 64
2, 63320, Note_off_c, 0, 62, 64
2, 63360, Note_on_c, 0, 52, 76
2, 63360, Note_on_c, 0, 40, 93
2, 63360, Note_on_c, 0, 61, 107
2, 63615, Note_off_c, 0, 52, 64
2, 63840, Note_on_c, 0, 52, 62
2, 63910, Note_off_c, 0, 61, 64
2, 63925, Note_off_c, 0, 57, 64
2, 64000, Note_off_c, 0, 40, 64
2, 64160, Note_off_c, 0, 52, 64
2, 64160, Note_on_c, 0, 62, 98
2, 64160, Note_on_c, 0, 52, 113
2, 64160, Note_on_c, 0, 40, 102
2, 64160, Note_on_c, 0, 64, 98
2, 64800, Note_off_c, 0, 52, 64
2, 64800, Note_on_c, 0, 52, 98
2, 64850, Note_off_c, 0, 64, 64
2, 64890, Note_off_c, 0, 62, 64
2, 64960, Note_on_c, 0, 54, 102
2, 65070, Note_off_c, 0, 54, 64
2, 65120, Note_on_c, 0, 57, 93
2, 65135, Note_off_c, 0, 52, 64
2, 65215, Note_off_c, 0, 40, 64
2, 65215, Note_off_c, 0, 57, 64
2, 65280, Note_on_c, 0, 61, 93
2, 65280, Note_on_c, 0, 64, 93
2, 65280, Note_on_c, 0, 55, 93
2, 65280, Note_on_c, 0, 52, 102
2, 65280, Note_on_c, 0, 45, 107
2, 65375, Note_off_c, 0, 55, 64
2, 65375, Note_off_c, 0, 64, 64
2, 65385, Note_off_c, 0, 61, 64
2, 65385, Note_off_c, 0, 52, 64
2, 65390, Note_off_c, 0, 45, 64
2, 65600, Note_on_c, 0, 64, 85
2, 65600, Note_on_c, 0, 52, 93
2, 65600, Note_on_c, 0, 55, 89
2, 65600, Note_on_c, 0, 61, 76
2, 65600, Note_on_c, 0, 45, 98
2, 65690, Note_off_c, 0, 55, 64
2, 65695, Note_off_c, 0, 45, 64
2, 65705, Note_off_c, 0, 64, 64
2, 65740, Note_off_c, 0, 61, 64
2, 65760, Note_on_c, 0, 54, 93
2, 65760, Note_on_c, 0, 62, 89
2, 65760, Note_on_c, 0, 66, 102
2, 65760, Note_on_c, 0, 45, 85
2, 65760, Note_on_c, 0, 57, 85
2, 65770, Note_off_c, 0, 52, 64
2, 65850, Note_off_c, 0, 66, 64
2, 65855, Note_off_c, 0, 54, 64
2, 65855, Note_off_c, 0, 57, 64
2, 65860, Note_off_c, 0, 45, 64
2, 65865, Note_off_c, 0, 62, 64
2, 66080, Note_on_c, 0, 54, 98
2, 66080, Note_on_c, 0, 45, 98
2, 66080, Note_on_c, 0, 66, 89
2, 66080, Note_on_c, 0, 57, 60
2, 66080, Note_on_c, 0, 62, 89
2, 66165, Note_off_c, 0, 45, 64
2, 66185, Note_off_c, 0, 57, 64
2, 66190, Note_off_c, 0, 66, 64
2, 66200, Note_off_c, 0, 62, 64
2, 66235, Note_off_c, 0, 54, 64
2, 66240, Note_on_c, 0, 55, 80
2, 66240, Note_on_c, 0, 52, 98
2, 66240, Note_on_c, 0, 61, 72
2, 66240, Note_on_c, 0, 64, 68
2, 66240, Note_on_c, 0, 45, 80
2, 66335, Note_off_c, 0, 55, 64
2, 66355, Note_off_c, 0, 52, 64
2, 66355, Note_off_c, 0, 45, 64
2, 66365, Note_off_c, 0, 61, 64
2, 66375, Note_off_c, 0, 64, 64
2, 66560, Note_on_c, 0, 64, 45
2, 66560, Note_on_c, 0, 45, 89
2, 66560, Note_on_c, 0, 61, 64
2, 66560, Note_on_c, 0, 55, 62
2, 66560, Note_on_c, 0, 52, 89
2, 66640, Note_off_c, 0, 45, 64
2, 66650, Note_off_c, 0, 55, 64
2, 66670, Note_off_c, 0, 64, 64
2, 66675, Note_off_c, 0, 52, 64
2, 66695, Note_off_c, 0, 61, 64
2, 66720, Note_on_c, 0, 62, 85
2, 66720, Note_on_c, 0, 54, 107
2, 66720, Note_on_c, 0, 66, 89
2, 66720, Note_on_c, 0, 45, 102
2, 66870, Note_off_c, 0, 66, 64
2, 66880, Note_off_c, 0, 62, 64
2, 66880, Note_on_c, 0, 55, 102
2, 66920, Note_off_c, 0, 45, 64
2, 67040, Note_on_c, 0, 52, 89
2, 67040, Note_on_c, 0, 45, 93
2, 67040, Note_on_c, 0, 56, 98
2, 67045, Note_off_c, 0, 54, 64
2, 67060, Note_off_c, 0, 55, 64
2, 67120, Note_off_c, 0, 52, 64
2, 67145, Note_off_c, 0, 56, 64
2, 67200, Note_on_c, 0, 40, 93
2, 67200, Note_on_c, 0, 64, 89
2, 67200, Note_on_c, 0, 59, 98
2, 67200, Note_on_c, 0, 47, 107
2, 67200, Note_on_c, 0, 62, 93
2, 67205, Note_off_c, 0, 45, 64
2, 67285, Note_off_c, 0, 47, 64
2, 67295, Note_off_c, 0, 62, 64
2, 67305, Note_off_c, 0, 59, 64
2, 67310, Note_off_c, 0, 64, 64
2, 67320, Note_off_c, 0, 40, 64
2, 67520, Note_on_c, 0, 59, 102
2, 67520, Note_on_c, 0, 62, 93
2, 67520, Note_on_c, 0, 40, 89
2, 67520, Note_on_c, 0, 47, 98
2, 67520, Note_on_c, 0, 64, 102
2, 67615, Note_off_c, 0, 40, 64
2, 67640, Note_off_c, 0, 62, 64
2, 67670, Note_off_c, 0, 59, 64
2, 67675, Note_off_c, 0, 47, 64
2, 67680, Note_on_c, 0, 57, 80
2, 67680, Note_on_c, 0, 49, 93
2, 67680, Note_on_c, 0, 40, 85
2, 67680, Note_on_c, 0, 61, 76
2, 67755, Note_off_c, 0, 57, 64
2, 67760, Note_off_c, 0, 61, 64
2, 67780, Note_off_c, 0, 64, 64
2, 67780, Note_off_c, 0, 49, 64
2, 67780, Note_off_c, 0, 40, 64
2, 68000, Note_on_c, 0, 64, 93
2, 68000, Note_on_c, 0, 49, 98
2, 68000, Note_on_c, 0, 61, 93
2, 68000, Note_on_c, 0, 57, 93
2, 68000, Note_on_c, 0, 40, 93
2, 68085, Note_off_c, 0, 40, 64
2, 68110, Note_off_c, 0, 61, 64
2, 68115, Note_off_c, 0, 64, 64
2, 68115, Note_off_c, 0, 57, 64
2, 68145, Note_off_c, 0, 49, 64
2, 68160, Note_on_c, 0, 40, 89
2, 68160, Note_on_c, 0, 47, 89
2, 68160, Note_on_c, 0, 62, 80
2, 68160, Note_on_c, 0, 59, 80
2, 68160, Note_on_c, 0, 64, 62
2, 68245, Note_off_c, 0, 64, 64
2, 68255, Note_off_c, 0, 59, 64
2, 68255, Note_off_c, 0, 62, 64
2, 68265, Note_off_c, 0, 47, 64
2, 68270, Note_off_c, 0, 40, 64
2, 68480, Note_on_c, 0, 62, 93
2, 68480, Note_on_c, 0, 64, 102
2, 68480, Note_on_c, 0, 40, 89
2, 68480, Note_on_c, 0, 59, 102
2, 68480, Note_on_c, 0, 47, 93
2, 68560, Note_off_c, 0, 40, 64
2, 68595, Note_off_c, 0, 64, 64
2, 68595, Note_off_c, 0, 62, 64
2, 68605, Note_off_c, 0, 59, 64
2, 68605, Note_off_c, 0, 47, 64
2, 68640, Note_on_c, 0, 64, 85
2, 68640, Note_on_c, 0, 61, 98
2, 68640, Note_on_c, 0, 49, 93
2, 68640, Note_on_c, 0, 40, 98
2, 68765, Note_off_c, 0, 61, 64
2, 68775, Note_off_c, 0, 64, 64
2, 68800, Note_on_c, 0, 53, 93
2, 68820, Note_off_c, 0, 40, 64
2, 68960, Note_off_c, 0, 49, 64
2, 68960, Note_on_c, 0, 40, 85
2, 68960, Note_on_c, 0, 54, 93
2, 68960, Note_on_c, 0, 47, 80
2, 68980, Note_off_c, 0, 53, 64
2, 69045, Note_off_c, 0, 40, 64
2, 69060, Note_off_c, 0, 47, 64
2, 69075, Note_off_c, 0, 54, 64
2, 69120, Note_on_c, 0, 45, 98
2, 69120, Note_on_c, 0, 57, 102
2, 69120, Note_on_c, 0, 62, 89
2, 69120, Note_on_c, 0, 38, 89
2, 69120, Note_on_c, 0, 60, 93
2, 69225, Note_off_c, 0, 38, 64
2, 69230, Note_off_c, 0, 45, 64
2, 69230, Note_off_c, 0, 60, 64
2, 69235, Note_off_c, 0, 62, 64
2, 69240, Note_off_c, 0, 57, 64
2, 69440, Note_on_c, 0, 57, 102
2, 69440, Note_on_c, 0, 45, 93
2, 69440, Note_on_c, 0, 38, 72
2, 69440, Note_on_c, 0, 62, 98
2, 69440, Note_on_c, 0, 60, 89
2, 69545, Note_off_c, 0, 38, 64
2, 69555, Note_off_c, 0, 60, 64
2, 69565, Note_off_c, 0, 62, 64
2, 69585, Note_off_c, 0, 45, 64
2, 69590, Note_off_c, 0, 57, 64
2, 69600, Note_on_c, 0, 47, 93
2, 69600, Note_on_c, 0, 38, 80
2, 69600, Note_on_c, 0, 59, 85
2, 69600, Note_on_c, 0, 62, 64
2, 69600, Note_on_c, 0, 55, 80
2, 69685, Note_off_c, 0, 59, 64
2, 69690, Note_off_c, 0, 62, 64
2, 69700, Note_off_c, 0, 55, 64
2, 69705, Note_off_c, 0, 38, 64
2, 69715, Note_off_c, 0, 47, 64
2, 69920, Note_on_c, 0, 62, 98
2, 69920, Note_on_c, 0, 55, 93
2, 69920, Note_on_c, 0, 38, 89
2, 69920, Note_on_c, 0, 59, 98
2, 69920, Note_on_c, 0, 47, 93
2, 70000, Note_off_c, 0, 38, 64
2, 70020, Note_off_c, 0, 59, 64
2, 70030, Note_off_c, 0, 62, 64
2, 70050, Note_off_c, 0, 55, 64
2, 70065, Note_off_c, 0, 47, 64
2, 70080, Note_on_c, 0, 60, 72
2, 70080, Note_on_c, 0, 38, 85
2, 70080, Note_on_c, 0, 62, 64
2, 70080, Note_on_c, 0, 57, 68
2, 70080, Note_on_c, 0, 45, 93
2, 70160, Note_off_c, 0, 62, 64
2, 70175, Note_off_c, 0, 57, 64
2, 70180, Note_off_c, 0, 60, 64
2, 70205, Note_off_c, 0, 38, 64
2, 70210, Note_off_c, 0, 45, 64
2, 70400, Note_on_c, 0, 38, 89
2, 70400, Note_on_c, 0, 62, 107
2, 70400, Note_on_c, 0, 57, 98
2, 70400, Note_on_c, 0, 60, 85
2, 70400, Note_on_c, 0, 45, 85
2, 70490, Note_off_c, 0, 38, 64
2, 70495, Note_off_c, 0, 60, 64
2, 70505, Note_off_c, 0, 62, 64
2, 70515, Note_off_c, 0, 57, 64
2, 70520, Note_off_c, 0, 45, 64
2, 70560, Note_on_c, 0, 62, 93
2, 70560, Note_on_c, 0, 38, 93
2, 70560, Note_on_c, 0, 59, 98
2, 70560, Note_on_c, 0, 47, 98
2, 70680, Note_off_c, 0, 59, 64
2, 70720, Note_on_c, 0, 53, 76
2, 70765, Note_off_c, 0, 38, 64
2, 70855, Note_off_c, 0, 47, 64
2, 70880, Note_on_c, 0, 38, 93
2, 70880, Note_on_c, 0, 54, 93
2, 70880, Note_on_c, 0, 45, 89
2, 70900, Note_off_c, 0, 53, 64
2, 70945, Note_off_c, 0, 62, 64
2, 70965, Note_off_c, 0, 38, 64
2, 70995, Note_off_c, 0, 54, 64
2, 70995, Note_off_c, 0, 45, 64
2, 71040, Note_on_c, 0, 60, 89
2, 71040, Note_on_c, 0, 62, 89
2, 71040, Note_on_c, 0, 45, 93
2, 71040, Note_on_c, 0, 38, 85
2, 71040, Note_on_c, 0, 57, 102
2, 71120, Note_off_c, 0, 60, 64
2, 71130, Note_off_c, 0, 62, 64
2, 71130, Note_off_c, 0, 57, 64
2, 71165, Note_off_c, 0, 45, 64
2, 71190, Note_off_c, 0, 38, 64
2, 71360, Note_on_c, 0, 45, 89
2, 71360, Note_on_c, 0, 60, 93
2, 71360, Note_on_c, 0, 57, 98
2, 71360, Note_on_c, 0, 62, 107
2, 71360, Note_on_c, 0, 38, 85
2, 71450, Note_off_c, 0, 38, 64
2, 71470, Note_off_c, 0, 62, 64
2, 71475, Note_off_c, 0, 60, 64
2, 71500, Note_off_c, 0, 45, 64
2, 71505, Note_off_c, 0, 57, 64
2, 71520, Note_on_c, 0, 55, 76
2, 71520, Note_on_c, 0, 62, 72
2, 71520, Note_on_c, 0, 38, 89
2, 71520, Note_on_c, 0, 59, 85
2, 71520, Note_on_c, 0, 47, 98
2, 71610, Note_off_c, 0, 59, 64
2, 71610, Note_off_c, 0, 55, 64
2, 71615, Note_off_c, 0, 62, 64
2, 71615, Note_off_c, 0, 47, 64
2, 71620, Note_off_c, 0, 38, 64
2, 71840, Note_on_c, 0, 47, 93
2, 71840, Note_on_c, 0, 55, 76
2, 71840, Note_on_c, 0, 62, 93
2, 71840, Note_on_c, 0, 38, 89
2, 71840, Note_on_c, 0, 59, 89
2, 71925, Note_off_c, 0, 38, 64
2, 71945, Note_off_c, 0, 62, 64
2, 71950, Note_off_c, 0, 59, 64
2, 71955, Note_off_c, 0, 55, 64
2, 71975, Note_off_c, 0, 47, 64
2, 72000, Note_on_c, 0, 57, 76
2, 72000, Note_on_c, 0, 38, 89
2, 72000, Note_on_c, 0, 45, 89
2, 72000, Note_on_c, 0, 60, 80
2, 72000, Note_on_c, 0, 62, 72
2, 72100, Note_off_c, 0, 60, 64
2, 72110, Note_off_c, 0, 57, 64
2, 72115, Note_off_c, 0, 38, 64
2, 72115, Note_off_c, 0, 62, 64
2, 72120, Note_off_c, 0, 45, 64
2, 72320, Note_on_c, 0, 57, 98
2, 72320, Note_on_c, 0, 62, 93
2, 72320, Note_on_c, 0, 38, 85
2, 72320, Note_on_c, 0, 45, 80
2, 72320, Note_on_c, 0, 60, 80
2, 72405, Note_off_c, 0, 38, 64
2, 72415, Note_off_c, 0, 60, 64
2, 72430, Note_off_c, 0, 62, 64
2, 72430, Note_off_c, 0, 45, 64
2, 72440, Note_off_c, 0, 57, 64
2, 72480, Note_on_c, 0, 59, 93
2, 72480, Note_on_c, 0, 62, 85
2, 72480, Note_on_c, 0, 47, 93
2, 72480, Note_on_c, 0, 38, 89
2, 72585, Note_off_c, 0, 59, 64
2, 72640, Note_off_c, 0, 38, 64
2, 72640, Note_on_c, 0, 53, 89
2, 72800, Note_off_c, 0, 47, 64
2, 72800, Note_on_c, 0, 45, 89
2, 72800, Note_on_c, 0, 54, 85
2, 72800, Note_on_c, 0, 38, 85
2, 72830, Note_off_c, 0, 53, 64
2, 72860, Note_off_c, 0, 62, 64
2, 72865, Note_off_c, 0, 45, 64
2, 72885, Note_off_c, 0, 54, 64
2, 72945, Note_off_c, 0, 38, 64
2, 72960, Note_on_c, 0, 61, 93
2, 72960, Note_on_c, 0, 52, 107
2, 72960, Note_on_c, 0, 55, 76
2, 72960, Note_on_c, 0, 45, 107
2, 72960, Note_on_c, 0, 64, 89
2, 73050, Note_off_c, 0, 64, 64
2, 73050, Note_off_c, 0, 55, 64
2, 73050, Note_off_c, 0, 61, 64
2, 73070, Note_off_c, 0, 45, 64
2, 73080, Note_off_c, 0, 52, 64
2, 73280, Note_on_c, 0, 64, 68
2, 73280, Note_on_c, 0, 45, 107
2, 73280, Note_on_c, 0, 55, 76
2, 73280, Note_on_c, 0, 52, 93
2, 73280, Note_on_c, 0, 61, 68
2, 73335, Note_off_c, 0, 55, 64
2, 73345, Note_off_c, 0, 64, 64
2, 73355, Note_off_c, 0, 61, 64
2, 73375, Note_off_c, 0, 45, 64
2, 73440, Note_on_c, 0, 66, 93
2, 73440, Note_on_c, 0, 45, 89
2, 73440, Note_on_c, 0, 62, 76
2, 73440, Note_on_c, 0, 54, 93
2, 73440, Note_on_c, 0, 57, 80
2, 73445, Note_off_c, 0, 52, 64
2, 73525, Note_off_c, 0, 54, 64
2, 73530, Note_off_c, 0, 45, 64
2, 73560, Note_off_c, 0, 66, 64
2, 73560, Note_off_c, 0, 57, 64
2, 73565, Note_off_c, 0, 62, 64
2, 73760, Note_on_c, 0, 57, 64
2, 73760, Note_on_c, 0, 66, 76
2, 73760, Note_on_c, 0, 54, 102
2, 73760, Note_on_c, 0, 62, 72
2, 73760, Note_on_c, 0, 45, 102
2, 73835, Note_off_c, 0, 45, 64
2, 73855, Note_off_c, 0, 57, 64
2, 73865, Note_off_c, 0, 66, 64
2, 73885, Note_off_c, 0, 62, 64
2, 73900, Note_off_c, 0, 54, 64
2, 73920, Note_on_c, 0, 64, 80
2, 73920, Note_on_c, 0, 45, 93
2, 73920, Note_on_c, 0, 52, 93
2, 73920, Note_on_c, 0, 55, 68
2, 73920, Note_on_c, 0, 61, 80
2, 73995, Note_off_c, 0, 55, 64
2, 74025, Note_off_c, 0, 45, 64
2, 74030, Note_off_c, 0, 52, 64
2, 74035, Note_off_c, 0, 61, 64
2, 74060, Note_off_c, 0, 64, 64
2, 74240, Note_on_c, 0, 55, 50
2, 74240, Note_on_c, 0, 52, 93
2, 74240, Note_on_c, 0, 61, 57
2, 74240, Note_on_c, 0, 64, 51
2, 74240, Note_on_c, 0, 45, 98
2, 74325, Note_off_c, 0, 45, 64
2, 74325, Note_off_c, 0, 55, 64
2, 74350, Note_off_c, 0, 64, 64
2, 74365, Note_off_c, 0, 52, 64
2, 74365, Note_off_c, 0, 61, 64
2, 74400, Note_on_c, 0, 57, 49
2, 74400, Note_on_c, 0, 66, 80
2, 74400, Note_on_c, 0, 54, 93
2, 74400, Note_on_c, 0, 45, 98
2, 74400, Note_on_c, 0, 62, 85
2, 74430, Note_off_c, 0, 57, 64
2, 74520, Note_off_c, 0, 62, 64
2, 74530, Note_off_c, 0, 66, 64
2, 74545, Note_off_c, 0, 45, 64
2, 74560, Note_on_c, 0, 55, 98
2, 74720, Note_on_c, 0, 56, 93
2, 74720, Note_on_c, 0, 52, 85
2, 74720, Note_on_c, 0, 45, 85
2, 74740, Note_off_c, 0, 54, 64
2, 74750, Note_off_c, 0, 55, 64
2, 74800, Note_off_c, 0, 52, 64
2, 74820, Note_off_c, 0, 56, 64
2, 74865, Note_off_c, 0, 45, 64
2, 74880, Note_on_c, 0, 64, 93
2, 74880, Note_on_c, 0, 62, 93
2, 74880, Note_on_c, 0, 59, 98
2, 74880, Note_on_c, 0, 47, 102
2, 74880, Note_on_c, 0, 40, 89
2, 74970, Note_off_c, 0, 47, 64
2, 74970, Note_off_c, 0, 59, 64
2, 74985, Note_off_c, 0, 62, 64
2, 74990, Note_off_c, 0, 64, 64
2, 74990, Note_off_c, 0, 40, 64
2, 75200, Note_on_c, 0, 40, 89
2, 75200, Note_on_c, 0, 59, 93
2, 75200, Note_on_c, 0, 62, 85
2, 75200, Note_on_c, 0, 64, 98
2, 75200, Note_on_c, 0, 47, 89
2, 75295, Note_off_c, 0, 40, 64
2, 75305, Note_off_c, 0, 62, 64
2, 75320, Note_off_c, 0, 64, 64
2, 75340, Note_off_c, 0, 59, 64
2, 75360, Note_on_c, 0, 61, 85
2, 75360, Note_on_c, 0, 64, 80
2, 75360, Note_on_c, 0, 49, 93
2, 75360, Note_on_c, 0, 40, 89
2, 75360, Note_on_c, 0, 57, 89
2, 75375, Note_off_c, 0, 47, 64
2, 75445, Note_off_c, 0, 40, 64
2, 75455, Note_off_c, 0, 49, 64
2, 75460, Note_off_c, 0, 61, 64
2, 75460, Note_off_c, 0, 64, 64
2, 75465, Note_off_c, 0, 57, 64
2, 75680, Note_on_c, 0, 57, 89
2, 75680, Note_on_c, 0, 61, 93
2, 75680, Note_on_c, 0, 49, 107
2, 75680, Note_on_c, 0, 64, 89
2, 75680, Note_on_c, 0, 40, 85
2, 75760, Note_off_c, 0, 40, 64
2, 75790, Note_off_c, 0, 61, 64
2, 75805, Note_off_c, 0, 64, 64
2, 75810, Note_off_c, 0, 57, 64
2, 75815, Note_off_c, 0, 49, 64
2, 75840, Note_on_c, 0, 59, 76
2, 75840, Note_on_c, 0, 40, 85
2, 75840, Note_on_c, 0, 47, 98
2, 75840, Note_on_c, 0, 62, 80
2, 75840, Note_on_c, 0, 64, 60
2, 75945, Note_off_c, 0, 64, 64
2, 75950, Note_off_c, 0, 47, 64
2, 75950, Note_off_c, 0, 59, 64
2, 75955, Note_off_c, 0, 40, 64
2, 75955, Note_off_c, 0, 62, 64
2, 76160, Note_on_c, 0, 40, 89
2, 76160, Note_on_c, 0, 47, 98
2, 76160, Note_on_c, 0, 64, 93
2, 76160, Note_on_c, 0, 59, 93
2, 76160, Note_on_c, 0, 62, 89
2, 76240, Note_off_c, 0, 40, 64
2, 76285, Note_off_c, 0, 62, 64
2, 76295, Note_off_c, 0, 59, 64
2, 76305, Note_off_c, 0, 47, 64
2, 76320, Note_on_c, 0, 61, 98
2, 76320, Note_on_c, 0, 40, 80
2, 76320, Note_on_c, 0, 49, 89
2, 76460, Note_off_c, 0, 40, 64
2, 76605, Note_off_c, 0, 61, 64
2, 76640, Note_on_c, 0, 47, 93
2, 76640, Note_on_c, 0, 40, 76
2, 76640, Note_on_c, 0, 59, 59
2, 76645, Note_off_c, 0, 49, 64
2, 76750, Note_off_c, 0, 59, 64
2, 76760, Note_off_c, 0, 64, 64
2, 76765, Note_off_c, 0, 47, 64
2, 76785, Note_off_c, 0, 40, 64
2, 76800, Note_on_c, 0, 57, 93
2, 76800, Note_on_c, 0, 64, 107
2, 76800, Note_on_c, 0, 61, 107
2, 76800, Note_on_c, 0, 45, 102
2, 77010, Note_off_c, 0, 57, 64
2, 77120, Note_on_c, 0, 57, 85
2, 77200, Note_off_c, 0, 57, 64
2, 77235, Note_off_c, 0, 45, 64
2, 77280, Note_on_c, 0, 55, 107
2, 77280, Note_on_c, 0, 43, 89
2, 77460, Note_off_c, 0, 64, 64
2, 77475, Note_off_c, 0, 61, 64
2, 77600, Note_on_c, 0, 64, 102
2, 77600, Note_on_c, 0, 61, 107
2, 77640, Note_off_c, 0, 55, 64
2, 77695, Note_off_c, 0, 64, 64
2, 77730, Note_off_c, 0, 43, 64
2, 77745, Note_off_c, 0, 61, 64
2, 77760, Note_on_c, 0, 42, 85
2, 77760, Note_on_c, 0, 54, 72
2, 78080, Note_on_c, 0, 62, 93
2, 78080, Note_on_c, 0, 57, 80
2, 78190, Note_off_c, 0, 54, 64
2, 78220, Note_off_c, 0, 42, 64
2, 78240, Note_on_c, 0, 41, 89
2, 78240, Note_on_c, 0, 53, 89
2, 78450, Note_off_c, 0, 57, 64
2, 78560, Note_on_c, 0, 57, 76
2, 78615, Note_off_c, 0, 53, 64
2, 78670, Note_off_c, 0, 41, 64
2, 78680, Note_off_c, 0, 62, 64
2, 78720, Note_on_c, 0, 61, 107
2, 78720, Note_on_c, 0, 52, 76
2, 78720, Note_on_c, 0, 40, 93
2, 78975, Note_off_c, 0, 52, 64
2, 79200, Note_on_c, 0, 52, 62
2, 79270, Note_off_c, 0, 61, 64
2, 79285, Note_off_c, 0, 57, 64
2, 79360, Note_off_c, 0, 40, 64
2, 79520, Note_off_c, 0, 52, 64
2, 79520, Note_on_c, 0, 62, 98
2, 79520, Note_on_c, 0, 40, 102
2, 79520, Note_on_c, 0, 64, 98
2, 79520, Note_on_c, 0, 52, 113
2, 80160, Note_off_c, 0, 52, 64
2, 80160, Note_on_c, 0, 52, 98
2, 80210, Note_off_c, 0, 64, 64
2, 80250, Note_off_c, 0, 62, 64
2, 80320, Note_on_c, 0, 54, 102
2, 80430, Note_off_c, 0, 54, 64
2, 80480, Note_on_c, 0, 57, 93
2, 80495, Note_off_c, 0, 52, 64
2, 80575, Note_off_c, 0, 40, 64
2, 80575, Note_off_c, 0, 57, 64
2, 80640, Note_on_c, 0, 52, 102
2, 80640, Note_on_c, 0, 45, 107
2, 80640, Note_on_c, 0, 61, 93
2, 80640, Note_on_c, 0, 64, 93
2, 80640, Note_on_c, 0, 55, 93
2, 80735, Note_off_c, 0, 55, 64
2, 80735, Note_off_c, 0, 64, 64
2, 80745, Note_off_c, 0, 61, 64
2, 80745, Note_off_c, 0, 52, 64
2, 80750, Note_off_c, 0, 45, 64
2, 80960, Note_on_c, 0, 45, 98
2, 80960, Note_on_c, 0, 64, 85
2, 80960, Note_on_c, 0, 61, 76
2, 80960, Note_on_c, 0, 55, 89
2, 80960, Note_on_c, 0, 52, 93
2, 81050, Note_off_c, 0, 55, 64
2, 81055, Note_off_c, 0, 45, 64
2, 81065, Note_off_c, 0, 64, 64
2, 81100, Note_off_c, 0, 61, 64
2, 81120, Note_on_c, 0, 62, 89
2, 81120, Note_on_c, 0, 54, 93
2, 81120, Note_on_c, 0, 66, 102
2, 81120, Note_on_c, 0, 45, 85
2, 81120, Note_on_c, 0, 57, 85
2, 81130, Note_off_c, 0, 52, 64
2, 81210, Note_off_c, 0, 66, 64
2, 81215, Note_off_c, 0, 54, 64
2, 81215, Note_off_c, 0, 57, 64
2, 81220, Note_off_c, 0, 45, 64
2, 81225, Note_off_c, 0, 62, 64
2, 81440, Note_on_c, 0, 66, 89
2, 81440, Note_on_c, 0, 45, 98
2, 81440, Note_on_c, 0, 57, 60
2, 81440, Note_on_c, 0, 62, 89
2, 81440, Note_on_c, 0, 54, 98
2, 81525, Note_off_c, 0, 45, 64
2, 81545, Note_off_c, 0, 57, 64
2, 81550, Note_off_c, 0, 66, 64
2, 81560, Note_off_c, 0, 62, 64
2, 81595, Note_off_c, 0, 54, 64
2, 81600, Note_on_c, 0, 52, 98
2, 81600, Note_on_c, 0, 64, 68
2, 81600, Note_on_c, 0, 45, 80
2, 81600, Note_on_c, 0, 61, 72
2, 81600, Note_on_c, 0, 55, 80
2, 81695, Note_off_c, 0, 55, 64
2, 81715, Note_off_c, 0, 45, 64
2, 81715, Note_off_c, 0, 52, 64
2, 81725, Note_off_c, 0, 61, 64
2, 81735, Note_off_c, 0, 64, 64
2, 81920, Note_on_c, 0, 52, 89
2, 81920, Note_on_c, 0, 55, 62
2, 81920, Note_on_c, 0, 45, 89
2, 81920, Note_on_c, 0, 64, 45
2, 81920, Note_on_c, 0, 61, 64
2, 82000, Note_off_c, 0, 45, 64
2, 82010, Note_off_c, 0, 55, 64
2, 82030, Note_off_c, 0, 64, 64
2, 82035, Note_off_c, 0, 52, 64
2, 82055, Note_off_c, 0, 61, 64
2, 82080, Note_on_c, 0, 66, 89
2, 82080, Note_on_c, 0, 62, 85
2, 82080, Note_on_c, 0, 45, 102
2, 82080, Note_on_c, 0, 54, 107
2, 82230, Note_off_c, 0, 66, 64
2, 82240, Note_off_c, 0, 62, 64
2, 82240, Note_on_c, 0, 55, 102
2, 82280, Note_off_c, 0, 45, 64
2, 82400, Note_on_c, 0, 52, 89
2, 82400, Note_on_c, 0, 56, 98
2, 82400, Note_on_c, 0, 45, 93
2, 82405, Note_off_c, 0, 54, 64
2, 82420, Note_off_c, 0, 55, 64
2, 82480, Note_off_c, 0, 52, 64
2, 82505, Note_off_c, 0, 56, 64
2, 82560, Note_on_c, 0, 59, 98
2, 82560, Note_on_c, 0, 47, 107
2, 82560, Note_on_c, 0, 62, 93
2, 82560, Note_on_c, 0, 40, 93
2, 82560, Note_on_c, 0, 64, 89
2, 82565, Note_off_c, 0, 45, 64
2, 82645, Note_off_c, 0, 47, 64
2, 82655, Note_off_c, 0, 62, 64
2, 82665, Note_off_c, 0, 59, 64
2, 82670, Note_off_c, 0, 64, 64
2, 82680, Note_off_c, 0, 40, 64
2, 82880, Note_on_c, 0, 64, 102
2, 82880, Note_on_c, 0, 62, 93
2, 82880, Note_on_c, 0, 40, 89
2, 82880, Note_on_c, 0, 47, 98
2, 82880, Note_on_c, 0, 59, 102
2, 82975, Note_off_c, 0, 40, 64
2, 83000, Note_off_c, 0, 62, 64
2, 83030, Note_off_c, 0, 59, 64
2, 83035, Note_off_c, 0, 47, 64
2, 83040, Note_on_c, 0, 49, 93
2, 83040, Note_on_c, 0, 61, 76
2, 83040, Note_on_c, 0, 40, 85
2, 83040, Note_on_c, 0, 57, 80
2, 83115, Note_off_c, 0, 57, 64
2, 83120, Note_off_c, 0, 61, 64
2, 83140, Note_off_c, 0, 64, 64
2, 83140, Note_off_c, 0, 49, 64
2, 83140, Note_off_c, 0, 40, 64
2, 83360, Note_on_c, 0, 40, 93
2, 83360, Note_on_c, 0, 61, 93
2, 83360, Note_on_c, 0, 57, 93
2, 83360, Note_on_c, 0, 49, 98
2, 83360, Note_on_c, 0, 64, 93
2, 83445, Note_off_c, 0, 40, 64
2, 83470, Note_off_c, 0, 61, 64
2, 83475, Note_off_c, 0, 57, 64
2, 83475, Note_off_c, 0, 64, 64
2, 83505, Note_off_c, 0, 49, 64
2, 83520, Note_on_c, 0, 47, 89
2, 83520, Note_on_c, 0, 62, 80
2, 83520, Note_on_c, 0, 40, 89
2, 83520, Note_on_c, 0, 64, 62
2, 83520, Note_on_c, 0, 59, 80
2, 83605, Note_off_c, 0, 64, 64
2, 83615, Note_off_c, 0, 62, 64
2, 83615, Note_off_c, 0, 59, 64
2, 83625, Note_off_c, 0, 47, 64
2, 83630, Note_off_c, 0, 40, 64
2, 83840, Note_on_c, 0, 62, 93
2, 83840, Note_on_c, 0, 47, 93
2, 83840, Note_on_c, 0, 40, 89
2, 83840, Note_on_c, 0, 59, 102
2, 83840, Note_on_c, 0, 64, 102
2, 83920, Note_off_c, 0, 40, 64
2, 83955, Note_off_c, 0, 62, 64
2, 83955, Note_off_c, 0, 64, 64
2, 83965, Note_off_c, 0, 47, 64
2, 83965, Note_off_c, 0, 59, 64
2, 84000, Note_on_c, 0, 61, 98
2, 84000, Note_on_c, 0, 49, 93
2, 84000, Note_on_c, 0, 40, 98
2, 84000, Note_on_c, 0, 64, 85
2, 84125, Note_off_c, 0, 61, 64
2, 84135, Note_off_c, 0, 64, 64
2, 84160, Note_on_c, 0, 53, 93
2, 84180, Note_off_c, 0, 40, 64
2, 84320, Note_off_c, 0, 49, 64
2, 84320, Note_on_c, 0, 40, 85
2, 84320, Note_on_c, 0, 54, 93
2, 84320, Note_on_c, 0, 47, 80
2, 84340, Note_off_c, 0, 53, 64
2, 84405, Note_off_c, 0, 40, 64
2, 84420, Note_off_c, 0, 47, 64
2, 84435, Note_off_c, 0, 54, 64
2, 84480, Note_on_c, 0, 57, 102
2, 84480, Note_on_c, 0, 60, 93
2, 84480, Note_on_c, 0, 62, 89
2, 84480, Note_on_c, 0, 45, 98
2, 84480, Note_on_c, 0, 38, 89
2, 84585, Note_off_c, 0, 38, 64
2, 84590, Note_off_c, 0, 45, 64
2, 84590, Note_off_c, 0, 60, 64
2, 84595, Note_off_c, 0, 62, 64
2, 84600, Note_off_c, 0, 57, 64
2, 84800, Note_on_c, 0, 57, 102
2, 84800, Note_on_c, 0, 38, 72
2, 84800, Note_on_c, 0, 45, 93
2, 84800, Note_on_c, 0, 60, 89
2, 84800, Note_on_c, 0, 62, 98
2, 84905, Note_off_c, 0, 38, 64
2, 84915, Note_off_c, 0, 60, 64
2, 84925, Note_off_c, 0, 62, 64
2, 84945, Note_off_c, 0, 45, 64
2, 84950, Note_off_c, 0, 57, 64
2, 84960, Note_on_c, 0, 55, 80
2, 84960, Note_on_c, 0, 38, 80
2, 84960, Note_on_c, 0, 47, 93
2, 84960, Note_on_c, 0, 59, 85
2, 84960, Note_on_c, 0, 62, 64
2, 85045, Note_off_c, 0, 59, 64
2, 85050, Note_off_c, 0, 62, 64
2, 85060, Note_off_c, 0, 55, 64
2, 85065, Note_off_c, 0, 38, 64
2, 85075, Note_off_c, 0, 47, 64
2, 85280, Note_on_c, 0, 47, 93
2, 85280, Note_on_c, 0, 62, 98
2, 85280, Note_on_c, 0, 38, 89
2, 85280, Note_on_c, 0, 55, 93
2, 85280, Note_on_c, 0, 59, 98
2, 85360, Note_off_c, 0, 38, 64
2, 85380, Note_off_c, 0, 59, 64
2, 85390, Note_off_c, 0, 62, 64
2, 85410, Note_off_c, 0, 55, 64
2, 85425, Note_off_c, 0, 47, 64
2, 85440, Note_on_c, 0, 38, 85
2, 85440, Note_on_c, 0, 62, 64
2, 85440, Note_on_c, 0, 45, 93
2, 85440, Note_on_c, 0, 57, 68
2, 85440, Note_on_c, 0, 60, 72
2, 85520, Note_off_c, 0, 62, 64
2, 85535, Note_off_c, 0, 57, 64
2, 85540, Note_off_c, 0, 60, 64
2, 85565, Note_off_c, 0, 38, 64
2, 85570, Note_off_c, 0, 45, 64
2, 85760, Note_on_c, 0, 60, 85
2, 85760, Note_on_c, 0, 57, 98
2, 85760, Note_on_c, 0, 62, 107
2, 85760, Note_on_c, 0, 45, 85
2, 85760, Note_on_c, 0, 38, 89
2, 85850, Note_off_c, 0, 38, 64
2, 85855, Note_off_c, 0, 60, 64
2, 85865, Note_off_c, 0, 62, 64
2, 85875, Note_off_c, 0, 57, 64
2, 85880, Note_off_c, 0, 45, 64
2, 85920, Note_on_c, 0, 47, 98
2, 85920, Note_on_c, 0, 59, 98
2, 85920, Note_on_c, 0, 38, 93
2, 85920, Note_on_c, 0, 62, 93
2, 86040, Note_off_c, 0, 59, 64
2, 86080, Note_on_c, 0, 53, 76
2, 86125, Note_off_c, 0, 38, 64
2, 86215, Note_off_c, 0, 47, 64
2, 86240, Note_on_c, 0, 38, 93
2, 86240, Note_on_c, 0, 45, 89
2, 86240, Note_on_c, 0, 54, 93
2, 86260, Note_off_c, 0, 53, 64
2, 86305, Note_off_c, 0, 62, 64
2, 86325, Note_off_c, 0, 38, 64
2, 86355, Note_off_c, 0, 45, 64
2, 86355, Note_off_c, 0, 54, 64
2, 86400, Note_on_c, 0, 60, 89
2, 86400, Note_on_c, 0, 45, 93
2, 86400, Note_on_c, 0, 38, 85
2, 86400, Note_on_c, 0, 62, 89
2, 86400, Note_on_c, 0, 57, 102
2, 86480, Note_off_c, 0, 60, 64
2, 86490, Note_off_c, 0, 62, 64
2, 86490, Note_off_c, 0, 57, 64
2, 86525, Note_off_c, 0, 45, 64
2, 86550, Note_off_c, 0, 38, 64
2, 86720, Note_on_c, 0, 38, 85
2, 86720, Note_on_c, 0, 60, 93
2, 86720, Note_on_c, 0, 57, 98
2, 86720, Note_on_c, 0, 62, 107
2, 86720, Note_on_c, 0, 45, 89
2, 86810, Note_off_c, 0, 38, 64
2, 86830, Note_off_c, 0, 62, 64
2, 86835, Note_off_c, 0, 60, 64
2, 86860, Note_off_c, 0, 45, 64
2, 86865, Note_off_c, 0, 57, 64
2, 86880, Note_on_c, 0, 55, 76
2, 86880, Note_on_c, 0, 38, 89
2, 86880, Note_on_c, 0, 47, 98
2, 86880, Note_on_c, 0, 59, 85
2, 86880, Note_on_c, 0, 62, 72
2, 86970, Note_off_c, 0, 59, 64
2, 86970, Note_off_c, 0, 55, 64
2, 86975, Note_off_c, 0, 47, 64
2, 86975, Note_off_c, 0, 62, 64
2, 86980, Note_off_c, 0, 38, 64
2, 87200, Note_on_c, 0, 59, 89
2, 87200, Note_on_c, 0, 55, 76
2, 87200, Note_on_c, 0, 47, 93
2, 87200, Note_on_c, 0, 38, 89
2, 87200, Note_on_c, 0, 62, 93
2, 87285, Note_off_c, 0, 38, 64
2, 87305, Note_off_c, 0, 62, 64
2, 87310, Note_off_c, 0, 59, 64
2, 87315, Note_off_c, 0, 55, 64
2, 87335, Note_off_c, 0, 47, 64
2, 87360, Note_on_c, 0, 62, 72
2, 87360, Note_on_c, 0, 38, 89
2, 87360, Note_on_c, 0, 57, 76
2, 87360, Note_on_c, 0, 45, 89
2, 87360, Note_on_c, 0, 60, 80
2, 87460, Note_off_c, 0, 60, 64
2, 87470, Note_off_c, 0, 57, 64
2, 87475, Note_off_c, 0, 38, 64
2, 87475, Note_off_c, 0, 62, 64
2, 87480, Note_off_c, 0, 45, 64
2, 87680, Note_on_c, 0, 57, 98
2, 87680, Note_on_c, 0, 38, 85
2, 87680, Note_on_c, 0, 60, 80
2, 87680, Note_on_c, 0, 45, 80
2, 87680, Note_on_c, 0, 62, 93
2, 87765, Note_off_c, 0, 38, 64
2, 87775, Note_off_c, 0, 60, 64
2, 87790, Note_off_c, 0, 45, 64
2, 87790, Note_off_c, 0, 62, 64
2, 87800, Note_off_c, 0, 57, 64
2, 87840, Note_on_c, 0, 59, 93
2, 87840, Note_on_c, 0, 47, 93
2, 87840, Note_on_c, 0, 62, 85
2, 87840, Note_on_c, 0, 38, 89
2, 87945, Note_off_c, 0, 59, 64
2, 88000, Note_off_c, 0, 38, 64
2, 88000, Note_on_c, 0, 53, 89
2, 88160, Note_off_c, 0, 47, 64
2, 88160, Note_on_c, 0, 54, 85
2, 88160, Note_on_c, 0, 38, 85
2, 88160, Note_on_c, 0, 45, 89
2, 88190, Note_off_c, 0, 53, 64
2, 88220, Note_off_c, 0, 62, 64
2, 88225, Note_off_c, 0, 45, 64
2, 88245, Note_off_c, 0, 54, 64
2, 88305, Note_off_c, 0, 38, 64
2, 88320, Note_on_c, 0, 64, 89
2, 88320, Note_on_c, 0, 45, 107
2, 88320, Note_on_c, 0, 61, 93
2, 88320, Note_on_c, 0, 55, 76
2, 88320, Note_on_c, 0, 52, 107
2, 88410, Note_off_c, 0, 55, 64
2, 88410, Note_off_c, 0, 61, 64
2, 88410, Note_off_c, 0, 64, 64
2, 88430, Note_off_c, 0, 45, 64
2, 88440, Note_off_c, 0, 52, 64
2, 88640, Note_on_c, 0, 55, 76
2, 88640, Note_on_c, 0, 52, 93
2, 88640, Note_on_c, 0, 45, 107
2, 88640, Note_on_c, 0, 61, 68
2, 88640, Note_on_c, 0, 64, 68
2, 88695, Note_off_c, 0, 55, 64
2, 88705, Note_off_c, 0, 64, 64
2, 88715, Note_off_c, 0, 61, 64
2, 88735, Note_off_c, 0, 45, 64
2, 88800, Note_on_c, 0, 66, 93
2, 88800, Note_on_c, 0, 62, 76
2, 88800, Note_on_c, 0, 57, 80
2, 88800, Note_on_c, 0, 54, 93
2, 88800, Note_on_c, 0, 45, 89
2, 88805, Note_off_c, 0, 52, 64
2, 88885, Note_off_c, 0, 54, 64
2, 88890, Note_off_c, 0, 45, 64
2, 88920, Note_off_c, 0, 66, 64
2, 88920, Note_off_c, 0, 57, 64
2, 88925, Note_off_c, 0, 62, 64
2, 89120, Note_on_c, 0, 57, 64
2, 89120, Note_on_c, 0, 62, 72
2, 89120, Note_on_c, 0, 66, 76
2, 89120, Note_on_c, 0, 45, 102
2, 89120, Note_on_c, 0, 54, 102
2, 89195, Note_off_c, 0, 45, 64
2, 89215, Note_off_c, 0, 57, 64
2, 89225, Note_off_c, 0, 66, 64
2, 89245, Note_off_c, 0, 62, 64
2, 89260, Note_off_c, 0, 54, 64
2, 89280, Note_on_c, 0, 64, 80
2, 89280, Note_on_c, 0, 55, 68
2, 89280, Note_on_c, 0, 52, 93
2, 89280, Note_on_c, 0, 61, 80
2, 89280, Note_on_c, 0, 45, 93
2, 89355, Note_off_c, 0, 55, 64
2, 89385, Note_off_c, 0, 45, 64
2, 89390, Note_off_c, 0, 52, 64
2, 89395, Note_off_c, 0, 61, 64
2, 89420, Note_off_c, 0, 64, 64
2, 89600, Note_on_c, 0, 52, 93
2, 89600, Note_on_c, 0, 61, 57
2, 89600, Note_on_c, 0, 55, 50
2, 89600, Note_on_c, 0, 64, 51
2, 89600, Note_on_c, 0, 45, 98
2, 89685, Note_off_c, 0, 45, 64
2, 89685, Note_off_c, 0, 55, 64
2, 89710, Note_off_c, 0, 64, 64
2, 89725, Note_off_c, 0, 61, 64
2, 89725, Note_off_c, 0, 52, 64
2, 89760, Note_on_c, 0, 66, 80
2, 89760, Note_on_c, 0, 54, 93
2, 89760, Note_on_c, 0, 45, 98
2, 89760, Note_on_c, 0, 62, 85
2, 89760, Note_on_c, 0, 57, 49
2, 89790, Note_off_c, 0, 57, 64
2, 89880, Note_off_c, 0, 62, 64
2, 89890, Note_off_c, 0, 66, 64
2, 89905, Note_off_c, 0, 45, 64
2, 89920, Note_on_c, 0, 55, 98
2, 90080, Note_on_c, 0, 56, 93
2, 90080, Note_on_c, 0, 45, 85
2, 90080, Note_on_c, 0, 52, 85
2, 90100, Note_off_c, 0, 54, 64
2, 90110, Note_off_c, 0, 55, 64
2, 90160, Note_off_c, 0, 52, 64
2, 90180, Note_off_c, 0, 56, 64
2, 90225, Note_off_c, 0, 45, 64
2, 90240, Note_on_c, 0, 59, 98
2, 90240, Note_on_c, 0, 64, 93
2, 90240, Note_on_c, 0, 62, 93
2, 90240, Note_on_c, 0, 40, 89
2, 90240, Note_on_c, 0, 47, 102
2, 90330, Note_off_c, 0, 47, 64
2, 90330, Note_off_c, 0, 59, 64
2, 90345, Note_off_c, 0, 62, 64
2, 90350, Note_off_c, 0, 64, 64
2, 90350, Note_off_c, 0, 40, 64
2, 90560, Note_on_c, 0, 64, 98
2, 90560, Note_on_c, 0, 40, 89
2, 90560, Note_on_c, 0, 59, 93
2, 90560, Note_on_c, 0, 62, 85
2, 90560, Note_on_c, 0, 47, 89
2, 90655, Note_off_c, 0, 40, 64
2, 90665, Note_off_c, 0, 62, 64
2, 90680, Note_off_c, 0, 64, 64
2, 90700, Note_off_c, 0, 59, 64
2, 90720, Note_on_c, 0, 61, 85
2, 90720, Note_on_c, 0, 64, 80
2, 90720, Note_on_c, 0, 40, 89
2, 90720, Note_on_c, 0, 57, 89
2, 90720, Note_on_c, 0, 49, 93
2, 90735, Note_off_c, 0, 47, 64
2, 90805, Note_off_c, 0, 40, 64
2, 90815, Note_off_c, 0, 49, 64
2, 90820, Note_off_c, 0, 61, 64
2, 90820, Note_off_c, 0, 64, 64
2, 90825, Note_off_c, 0, 57, 64
2, 91040, Note_on_c, 0, 49, 107
2, 91040, Note_on_c, 0, 64, 89
2, 91040, Note_on_c, 0, 57, 89
2, 91040, Note_on_c, 0, 40, 85
2, 91040, Note_on_c, 0, 61, 93
2, 91120, Note_off_c, 0, 40, 64
2, 91150, Note_off_c, 0, 61, 64
2, 91165, Note_off_c, 0, 64, 64
2, 91170, Note_off_c, 0, 57, 64
2, 91175, Note_off_c, 0, 49, 64
2, 91200, Note_on_c, 0, 40, 85
2, 91200, Note_on_c, 0, 62, 80
2, 91200, Note_on_c, 0, 47, 98
2, 91200, Note_on_c, 0, 59, 76
2, 91200, Note_on_c, 0, 64, 60
2, 91305, Note_off_c, 0, 64, 64
2, 91310, Note_off_c, 0, 59, 64
2, 91310, Note_off_c, 0, 47, 64
2, 91315, Note_off_c, 0, 62, 64
2, 91315, Note_off_c, 0, 40, 64
2, 91520, Note_on_c, 0, 64, 93
2, 91520, Note_on_c, 0, 62, 89
2, 91520, Note_on_c, 0, 59, 93
2, 91520, Note_on_c, 0, 47, 98
2, 91520, Note_on_c, 0, 40, 89
2, 91600, Note_off_c, 0, 40, 64
2, 91645, Note_off_c, 0, 62, 64
2, 91655, Note_off_c, 0, 59, 64
2, 91665, Note_off_c, 0, 47, 64
2, 91680, Note_on_c, 0, 61, 98
2, 91680, Note_on_c, 0, 49, 89
2, 91680, Note_on_c, 0, 40, 80
2, 91820, Note_off_c, 0, 40, 64
2, 91965, Note_off_c, 0, 61, 64
2, 92000, Note_on_c, 0, 59, 59
2, 92000, Note_on_c, 0, 40, 76
2, 92000, Note_on_c, 0, 47, 93
2, 92005, Note_off_c, 0, 49, 64
2, 92110, Note_off_c, 0, 59, 64
2, 92120, Note_off_c, 0, 64, 64
2, 92125, Note_off_c, 0, 47, 64
2, 92145, Note_off_c, 0, 40, 64
2, 92160, Note_on_c, 0, 45, 102
2, 92160, Note_on_c, 0, 64, 107
2, 92160, Note_on_c, 0, 61, 107
2, 92160, Note_on_c, 0, 57, 93
2, 92370, Note_off_c, 0, 57, 64
2, 92480, Note_on_c, 0, 57, 85
2, 92560, Note_off_c, 0, 57, 64
2, 92595, Note_off_c, 0, 45, 64
2, 92640, Note_on_c, 0, 43, 89
2, 92640, Note_on_c, 0, 55, 107
2, 92820, Note_off_c, 0, 64, 64
2, 92835, Note_off_c, 0, 61, 64
2, 92960, Note_on_c, 0, 61, 107
2, 92960, Note_on_c, 0, 64, 102
2, 93000, Note_off_c, 0, 55, 64
2, 93055, Note_off_c, 0, 64, 64
2, 93090, Note_off_c, 0, 43, 64
2, 93105, Note_off_c, 0, 61, 64
2, 93120, Note_on_c, 0, 42, 85
2, 93120, Note_on_c, 0, 54, 72
2, 93440, Note_on_c, 0, 62, 93
2, 93440, Note_on_c, 0, 57, 80
2, 93550, Note_off_c, 0, 54, 64
2, 93580, Note_off_c, 0, 42, 64
2, 93600, Note_on_c, 0, 53, 89
2, 93600, Note_on_c, 0, 41, 89
2, 93810, Note_off_c, 0, 57, 64
2, 93920, Note_on_c, 0, 57, 76
2, 93975, Note_off_c, 0, 53, 64
2, 94030, Note_off_c, 0, 41, 64
2, 94040, Note_off_c, 0, 62, 64
2, 94080, Note_on_c, 0, 40, 93
2, 94080, Note_on_c, 0, 52, 76
2, 94080, Note_on_c, 0, 61, 107
2, 94335, Note_off_c, 0, 52, 64
2, 94560, Note_on_c, 0, 52, 62
2, 94630, Note_off_c, 0, 61, 64
2, 94645, Note_off_c, 0, 57, 64
2, 94720, Note_off_c, 0, 40, 64
2, 94880, Note_off_c, 0, 52, 64
2, 94880, Note_on_c, 0, 62, 98
2, 94880, Note_on_c, 0, 64, 98
2, 94880, Note_on_c, 0, 40, 102
2, 94880, Note_on_c, 0, 52, 113
2, 95520, Note_off_c, 0, 52, 64
2, 95520, Note_on_c, 0, 52, 98
2, 95570, Note_off_c, 0, 64, 64
2, 95610, Note_off_c, 0, 62, 64
2, 95680, Note_on_c, 0, 54, 102
2, 95790, Note_off_c, 0, 54, 64
2, 95840, Note_on_c, 0, 57, 93
2, 95855, Note_off_c, 0, 52, 64
2, 95935, Note_off_c, 0, 40, 64
2, 95935, Note_off_c, 0, 57, 64
2, 96000, Note_on_c, 0, 52, 102
2, 96000, Note_on_c, 0, 64, 93
2, 96000, Note_on_c, 0, 61, 93
2, 96000, Note_on_c, 0, 55, 93
2, 96000, Note_on_c, 0, 45, 107
2, 96095, Note_off_c, 0, 55, 64
2, 96095, Note_off_c, 0, 64, 64
2, 96105, Note_off_c, 0, 52, 64
2, 96105, Note_off_c, 0, 61, 64
2, 96110, Note_off_c, 0, 45, 64
2, 96320, Note_on_c, 0, 61, 76
2, 96320, Note_on_c, 0, 64, 85
2, 96320, Note_on_c, 0, 55, 89
2, 96320, Note_on_c, 0, 52, 93
2, 96320, Note_on_c, 0, 45, 98
2, 96410, Note_off_c, 0, 55, 64
2, 96415, Note_off_c, 0, 45, 64
2, 96425, Note_off_c, 0, 64, 64
2, 96460, Note_off_c, 0, 61, 64
2, 96480, Note_on_c, 0, 57, 85
2, 96480, Note_on_c, 0, 45, 85
2, 96480, Note_on_c, 0, 54, 93
2, 96480, Note_on_c, 0, 66, 102
2, 96480, Note_on_c, 0, 62, 89
2, 96490, Note_off_c, 0, 52, 64
2, 96570, Note_off_c, 0, 66, 64
2, 96575, Note_off_c, 0, 57, 64
2, 96575, Note_off_c, 0, 54, 64
2, 96580, Note_off_c, 0, 45, 64
2, 96585, Note_off_c, 0, 62, 64
2, 96800, Note_on_c, 0, 66, 89
2, 96800, Note_on_c, 0, 54, 98
2, 96800, Note_on_c, 0, 62, 89
2, 96800, Note_on_c, 0, 57, 60
2, 96800, Note_on_c, 0, 45, 98
2, 96885, Note_off_c, 0, 45, 64
2, 96905, Note_off_c, 0, 57, 64
2, 96910, Note_off_c, 0, 66, 64
2, 96920, Note_off_c, 0, 62, 64
2, 96955, Note_off_c, 0, 54, 64
2, 96960, Note_on_c, 0, 52, 98
2, 96960, Note_on_c, 0, 61, 72
2, 96960, Note_on_c, 0, 64, 68
2, 96960, Note_on_c, 0, 45, 80
2, 96960, Note_on_c, 0, 55, 80
2, 97055, Note_off_c, 0, 55, 64
2, 97075, Note_off_c, 0, 45, 64
2, 97075, Note_off_c, 0, 52, 64
2, 97085, Note_off_c, 0, 61, 64
2, 97095, Note_off_c, 0, 64, 64
2, 97280, Note_on_c, 0, 61, 64
2, 97280, Note_on_c, 0, 55, 62
2, 97280, Note_on_c, 0, 52, 89
2, 97280, Note_on_c, 0, 64, 45
2, 97280, Note_on_c, 0, 45, 89
2, 97360, Note_off_c, 0, 45, 64
2, 97370, Note_off_c, 0, 55, 64
2, 97390, Note_off_c, 0, 64, 64
2, 97395, Note_off_c, 0, 52, 64
2, 97415, Note_off_c, 0, 61, 64
2, 97440, Note_on_c, 0, 45, 102
2, 97440, Note_on_c, 0, 62, 85
2, 97440, Note_on_c, 0, 66, 89
2, 97440, Note_on_c, 0, 54, 107
2, 97590, Note_off_c, 0, 66, 64
2, 97600, Note_off_c, 0, 62, 64
2, 97600, Note_on_c, 0, 55, 102
2, 97640, Note_off_c, 0, 45, 64
2, 97760, Note_on_c, 0, 45, 93
2, 97760, Note_on_c, 0, 56, 98
2, 97760, Note_on_c, 0, 52, 89
2, 97765, Note_off_c, 0, 54, 64
2, 97780, Note_off_c, 0, 55, 64
2, 97840, Note_off_c, 0, 52, 64
2, 97865, Note_off_c, 0, 56, 64
2, 97920, Note_on_c, 0, 47, 107
2, 97920, Note_on_c, 0, 59, 98
2, 97920, Note_on_c, 0, 64, 89
2, 97920, Note_on_c, 0, 40, 93
2, 97920, Note_on_c, 0, 62, 93
2, 97925, Note_off_c, 0, 45, 64
2, 98005, Note_off_c, 0, 47, 64
2, 98015, Note_off_c, 0, 62, 64
2, 98025, Note_off_c, 0, 59, 64
2, 98030, Note_off_c, 0, 64, 64
2, 98040, Note_off_c, 0, 40, 64
2, 98240, Note_on_c, 0, 40, 89
2, 98240, Note_on_c, 0, 47, 98
2, 98240, Note_on_c, 0, 64, 102
2, 98240, Note_on_c, 0, 59, 102
2, 98240, Note_on_c, 0, 62, 93
2, 98335, Note_off_c, 0, 40, 64
2, 98360, Note_off_c, 0, 62, 64
2, 98390, Note_off_c, 0, 59, 64
2, 98395, Note_off_c, 0, 47, 64
2, 98400, Note_on_c, 0, 61, 76
2, 98400, Note_on_c, 0, 57, 80
2, 98400, Note_on_c, 0, 40, 85
2, 98400, Note_on_c, 0, 49, 93
2, 98475, Note_off_c, 0, 57, 64
2, 98480, Note_off_c, 0, 61, 64
2, 98500, Note_off_c, 0, 64, 64
2, 98500, Note_off_c, 0, 40, 64
2, 98500, Note_off_c, 0, 49, 64
2, 98720, Note_on_c, 0, 57, 93
2, 98720, Note_on_c, 0, 61, 93
2, 98720, Note_on_c, 0, 40, 93
2, 98720, Note_on_c, 0, 64, 93
2, 98720, Note_on_c, 0, 49, 98
2, 98805, Note_off_c, 0, 40, 64
2, 98830, Note_off_c, 0, 61, 64
2, 98835, Note_off_c, 0, 57, 64
2, 98835, Note_off_c, 0, 64, 64
2, 98865, Note_off_c, 0, 49, 64
2, 98880, Note_on_c, 0, 40, 89
2, 98880, Note_on_c, 0, 59, 80
2, 98880, Note_on_c, 0, 64, 62
2, 98880, Note_on_c, 0, 47, 89
2, 98880, Note_on_c, 0, 62, 80
2, 98965, Note_off_c, 0, 64, 64
2, 98975, Note_off_c, 0, 59, 64
2, 98975, Note_off_c, 0, 62, 64
2, 98985, Note_off_c, 0, 47, 64
2, 98990, Note_off_c, 0, 40, 64
2, 99200, Note_on_c, 0, 47, 93
2, 99200, Note_on_c, 0, 64, 102
2, 99200, Note_on_c, 0, 40, 89
2, 99200, Note_on_c, 0, 62, 93
2, 99200, Note_on_c, 0, 59, 102
2, 99280, Note_off_c, 0, 40, 64
2, 99315, Note_off_c, 0, 64, 64
2, 99315, Note_off_c, 0, 62, 64
2, 99325, Note_off_c, 0, 47, 64
2, 99325, Note_off_c, 0, 59, 64
2, 99360, Note_on_c, 0, 64, 85
2, 99360, Note_on_c, 0, 40, 98
2, 99360, Note_on_c, 0, 61, 98
2, 99360, Note_on_c, 0, 49, 93
2, 99485, Note_off_c, 0, 61, 64
2, 99495, Note_off_c, 0, 64, 64
2, 99520, Note_on_c, 0, 53, 93
2, 99540, Note_off_c, 0, 40, 64
2, 99680, Note_off_c, 0, 49, 64
2, 99680, Note_on_c, 0, 47, 80
2, 99680, Note_on_c, 0, 40, 85
2, 99680, Note_on_c, 0, 54, 93
2, 99700, Note_off_c, 0, 53, 64
2, 99765, Note_off_c, 0, 40, 64
2, 99780, Note_off_c, 0, 47, 64
2, 99795, Note_off_c, 0, 54, 64
2, 99840, Note_on_c, 0, 60, 93
2, 99840, Note_on_c, 0, 38, 89
2, 99840, Note_on_c, 0, 45, 98
2, 99840, Note_on_c, 0, 57, 102
2, 99840, Note_on_c, 0, 62, 89
2, 99945, Note_off_c, 0, 38, 64
2, 99950, Note_off_c, 0, 60, 64
2, 99950, Note_off_c, 0, 45, 64
2, 99955, Note_off_c, 0, 62, 64
2, 99960, Note_off_c, 0, 57, 64
2, 100160, Note_on_c, 0, 45, 93
2, 100160, Note_on_c, 0, 60, 89
2, 100160, Note_on_c, 0, 57, 102
2, 100160, Note_on_c, 0, 62, 98
2, 100160, Note_on_c, 0, 38, 72
2, 100265, Note_off_c, 0, 38, 64
2, 100275, Note_off_c, 0, 60, 64
2, 100285, Note_off_c, 0, 62, 64
2, 100305, Note_off_c, 0, 45, 64
2, 100310, Note_off_c, 0, 57, 64
2, 100320, Note_on_c, 0, 62, 64
2, 100320, Note_on_c, 0, 47, 93
2, 100320, Note_on_c, 0, 55, 80
2, 100320, Note_on_c, 0, 59, 85
2, 100320, Note_on_c, 0, 38, 80
2, 100405, Note_off_c, 0, 59, 64
2, 100410, Note_off_c, 0, 62, 64
2, 100420, Note_off_c, 0, 55, 64
2, 100425, Note_off_c, 0, 38, 64
2, 100435, Note_off_c, 0, 47, 64
2, 100640, Note_on_c, 0, 55, 93
2, 100640, Note_on_c, 0, 38, 89
2, 100640, Note_on_c, 0, 62, 98
2, 100640, Note_on_c, 0, 59, 98
2, 100640, Note_on_c, 0, 47, 93
2, 100720, Note_off_c, 0, 38, 64
2, 100740, Note_off_c, 0, 59, 64
2, 100750, Note_off_c, 0, 62, 64
2, 100770, Note_off_c, 0, 55, 64
2, 100785, Note_off_c, 0, 47, 64
2, 100800, Note_on_c, 0, 60, 72
2, 100800, Note_on_c, 0, 45, 93
2, 100800, Note_on_c, 0, 62, 64
2, 100800, Note_on_c, 0, 57, 68
2, 100800, Note_on_c, 0, 38, 85
2, 100880, Note_off_c, 0, 62, 64
2, 100895, Note_off_c, 0, 57, 64
2, 100900, Note_off_c, 0, 60, 64
2, 100925, Note_off_c, 0, 38, 64
2, 100930, Note_off_c, 0, 45, 64
2, 101120, Note_on_c, 0, 57, 98
2, 101120, Note_on_c, 0, 45, 85
2, 101120, Note_on_c, 0, 60, 85
2, 101120, Note_on_c, 0, 38, 89
2, 101120, Note_on_c, 0, 62, 107
2, 101210, Note_off_c, 0, 38, 64
2, 101215, Note_off_c, 0, 60, 64
2, 101225, Note_off_c, 0, 62, 64
2, 101235, Note_off_c, 0, 57, 64
2, 101240, Note_off_c, 0, 45, 64
2, 101280, Note_on_c, 0, 47, 98
2, 101280, Note_on_c, 0, 59, 98
2, 101280, Note_on_c, 0, 62, 93
2, 101280, Note_on_c, 0, 38, 93
2, 101400, Note_off_c, 0, 59, 64
2, 101440, Note_on_c, 0, 53, 76
2, 101485, Note_off_c, 0, 38, 64
2, 101575, Note_off_c, 0, 47, 64
2, 101600, Note_on_c, 0, 54, 93
2, 101600, Note_on_c, 0, 38, 93
2, 101600, Note_on_c, 0, 45, 89
2, 101620, Note_off_c, 0, 53, 64
2, 101665, Note_off_c, 0, 62, 64
2, 101685, Note_off_c, 0, 38, 64
2, 101715, Note_off_c, 0, 54, 64
2, 101715, Note_off_c, 0, 45, 64
2, 101760, Note_on_c, 0, 62, 89
2, 101760, Note_on_c, 0, 60, 89
2, 101760, Note_on_c, 0, 57, 102
2, 101760, Note_on_c, 0, 45, 93
2, 101760, Note_on_c, 0, 38, 85
2, 101840, Note_off_c, 0, 60, 64
2, 101850, Note_off_c, 0, 62, 64
2, 101850, Note_off_c, 0, 57, 64
2, 101885, Note_off_c, 0, 45, 64
2, 101910, Note_off_c, 0, 38, 64
2, 102080, Note_on_c, 0, 57, 98
2, 102080, Note_on_c, 0, 38, 85
2, 102080, Note_on_c, 0, 60, 93
2, 102080, Note_on_c, 0, 45, 89
2, 102080, Note_on_c, 0, 62, 107
2, 102170, Note_off_c, 0, 38, 64
2, 102190, Note_off_c, 0, 62, 64
2, 102195, Note_off_c, 0, 60, 64
2, 102220, Note_off_c, 0, 45, 64
2, 102225, Note_off_c, 0, 57, 64
2, 102240, Note_on_c, 0, 59, 85
2, 102240, Note_on_c, 0, 62, 72
2, 102240, Note_on_c, 0, 55, 76
2, 102240, Note_on_c, 0, 38, 89
2, 102240, Note_on_c, 0, 47, 98
2, 102330, Note_off_c, 0, 55, 64
2, 102330, Note_off_c, 0, 59, 64
2, 102335, Note_off_c, 0, 62, 64
2, 102335, Note_off_c, 0, 47, 64
2, 102340, Note_off_c, 0, 38, 64
2, 102560, Note_on_c, 0, 55, 76
2, 102560, Note_on_c, 0, 59, 89
2, 102560, Note_on_c, 0, 38, 89
2, 102560, Note_on_c, 0, 62, 93
2, 102560, Note_on_c, 0, 47, 93
2, 102645, Note_off_c, 0, 38, 64
2, 102665, Note_off_c, 0, 62, 64
2, 102670, Note_off_c, 0, 59, 64
2, 102675, Note_off_c, 0, 55, 64
2, 102695, Note_off_c, 0, 47, 64
2, 102720, Note_on_c, 0, 60, 80
2, 102720, Note_on_c, 0, 62, 72
2, 102720, Note_on_c, 0, 45, 89
2, 102720, Note_on_c, 0, 38, 89
2, 102720, Note_on_c, 0, 57, 76
2, 102820, Note_off_c, 0, 60, 64
2, 102830, Note_off_c, 0, 57, 64
2, 102835, Note_off_c, 0, 62, 64
2, 102835, Note_off_c, 0, 38, 64
2, 102840, Note_off_c, 0, 45, 64
2, 103040, Note_on_c, 0, 57, 98
2, 103040, Note_on_c, 0, 60, 80
2, 103040, Note_on_c, 0, 38, 85
2, 103040, Note_on_c, 0, 45, 80
2, 103040, Note_on_c, 0, 62, 93
2, 103125, Note_off_c, 0, 38, 64
2, 103135, Note_off_c, 0, 60, 64
2, 103150, Note_off_c, 0, 45, 64
2, 103150, Note_off_c, 0, 62, 64
2, 103160, Note_off_c, 0, 57, 64
2, 103200, Note_on_c, 0, 62, 85
2, 103200, Note_on_c, 0, 47, 93
2, 103200, Note_on_c, 0, 38, 89
2, 103200, Note_on_c, 0, 59, 93
2, 103305, Note_off_c, 0, 59, 64
2, 103360, Note_off_c, 0, 38, 64
2, 103360, Note_on_c, 0, 53, 89
2, 103520, Note_off_c, 0, 47, 64
2, 103520, Note_on_c, 0, 45, 89
2, 103520, Note_on_c, 0, 54, 85
2, 103520, Note_on_c, 0, 38, 85
2, 103550, Note_off_c, 0, 53, 64
2, 103580, Note_off_c, 0, 62, 64
2, 103585, Note_off_c, 0, 45, 64
2, 103605, Note_off_c, 0, 54, 64
2, 103665, Note_off_c, 0, 38, 64
2, 103680, Note_on_c, 0, 52, 107
2, 103680, Note_on_c, 0, 55, 76
2, 103680, Note_on_c, 0, 61, 93
2, 103680, Note_on_c, 0, 45, 107
2, 103680, Note_on_c, 0, 64, 89
2, 103770, Note_off_c, 0, 64, 64
2, 103770, Note_off_c, 0, 61, 64
2, 103770, Note_off_c, 0, 55, 64
2, 103790, Note_off_c, 0, 45, 64
2, 103800, Note_off_c, 0, 52, 64
2, 104000, Note_on_c, 0, 61, 68
2, 104000, Note_on_c, 0, 55, 76
2, 104000, Note_on_c, 0, 52, 93
2, 104000, Note_on_c, 0, 45, 107
2, 104000, Note_on_c, 0, 64, 68
2, 104055, Note_off_c, 0, 55, 64
2, 104065, Note_off_c, 0, 64, 64
2, 104075, Note_off_c, 0, 61, 64
2, 104095, Note_off_c, 0, 45, 64
2, 104160, Note_on_c, 0, 45, 89
2, 104160, Note_on_c, 0, 57, 80
2, 104160, Note_on_c, 0, 62, 76
2, 104160, Note_on_c, 0, 66, 93
2, 104160, Note_on_c, 0, 54, 93
2, 104165, Note_off_c, 0, 52, 64
2, 104245, Note_off_c, 0, 54, 64
2, 104250, Note_off_c, 0, 45, 64
2, 104280, Note_off_c, 0, 57, 64
2, 104280, Note_off_c, 0, 66, 64
2, 104285, Note_off_c, 0, 62, 64
2, 104480, Note_on_c, 0, 54, 102
2, 104480, Note_on_c, 0, 62, 72
2, 104480, Note_on_c, 0, 66, 76
2, 104480, Note_on_c, 0, 45, 102
2, 104480, Note_on_c, 0, 57, 64
2, 104555, Note_off_c, 0, 45, 64
2, 104575, Note_off_c, 0, 57, 64
2, 104585, Note_off_c, 0, 66, 64
2, 104605, Note_off_c, 0, 62, 64
2, 104620, Note_off_c, 0, 54, 64
2, 104640, Note_on_c, 0, 45, 93
2, 104640, Note_on_c, 0, 52, 93
2, 104640, Note_on_c, 0, 61, 80
2, 104640, Note_on_c, 0, 64, 80
2, 104640, Note_on_c, 0, 55, 68
2, 104715, Note_off_c, 0, 55, 64
2, 104745, Note_off_c, 0, 45, 64
2, 104750, Note_off_c, 0, 52, 64
2, 104755, Note_off_c, 0, 61, 64
2, 104780, Note_off_c, 0, 64, 64
2, 104960, Note_on_c, 0, 55, 50
2, 104960, Note_on_c, 0, 61, 57
2, 104960, Note_on_c, 0, 52, 93
2, 104960, Note_on_c, 0, 64, 51
2, 104960, Note_on_c, 0, 45, 98
2, 105045, Note_off_c, 0, 45, 64
2, 105045, Note_off_c, 0, 55, 64
2, 105070, Note_off_c, 0, 64, 64
2, 105085, Note_off_c, 0, 61, 64
2, 105085, Note_off_c, 0, 52, 64
2, 105120, Note_on_c, 0, 54, 93
2, 105120, Note_on_c, 0, 57, 49
2, 105120, Note_on_c, 0, 62, 85
2, 105120, Note_on_c, 0, 66, 80
2, 105120, Note_on_c, 0, 45, 98
2, 105150, Note_off_c, 0, 57, 64
2, 105240, Note_off_c, 0, 62, 64
2, 105250, Note_off_c, 0, 66, 64
2, 105265, Note_off_c, 0, 45, 64
2, 105280, Note_on_c, 0, 55, 98
2, 105440, Note_on_c, 0, 56, 93
2, 105440, Note_on_c, 0, 45, 85
2, 105440, Note_on_c, 0, 52, 85
2, 105460, Note_off_c, 0, 54, 64
2, 105470, Note_off_c, 0, 55, 64
2, 105520, Note_off_c, 0, 52, 64
2, 105540, Note_off_c, 0, 56, 64
2, 105585, Note_off_c, 0, 45, 64
2, 105600, Note_on_c, 0, 59, 98
2, 105600, Note_on_c, 0, 62, 93
2, 105600, Note_on_c, 0, 47, 102
2, 105600, Note_on_c, 0, 64, 93
2, 105600, Note_on_c, 0, 40, 89
2, 105690, Note_off_c, 0, 47, 64
2, 105690, Note_off_c, 0, 59, 64
2, 105705, Note_off_c, 0, 62, 64
2, 105710, Note_off_c, 0, 64, 64
2, 105710, Note_off_c, 0, 40, 64
2, 105920, Note_on_c, 0, 64, 98
2, 105920, Note_on_c, 0, 40, 89
2, 105920, Note_on_c, 0, 59, 93
2, 105920, Note_on_c, 0, 47, 89
2, 105920, Note_on_c, 0, 62, 85
2, 106015, Note_off_c, 0, 40, 64
2, 106025, Note_off_c, 0, 62, 64
2, 106040, Note_off_c, 0, 64, 64
2, 106060, Note_off_c, 0, 59, 64
2, 106080, Note_on_c, 0, 64, 80
2, 106080, Note_on_c, 0, 57, 89
2, 106080, Note_on_c, 0, 40, 89
2, 106080, Note_on_c, 0, 49, 93
2, 106080, Note_on_c, 0, 61, 85
2, 106095, Note_off_c, 0, 47, 64
2, 106165, Note_off_c, 0, 40, 64
2, 106175, Note_off_c, 0, 49, 64
2, 106180, Note_off_c, 0, 64, 64
2, 106180, Note_off_c, 0, 61, 64
2, 106185, Note_off_c, 0, 57, 64
2, 106400, Note_on_c, 0, 57, 89
2, 106400, Note_on_c, 0, 61, 93
2, 106400, Note_on_c, 0, 40, 85
2, 106400, Note_on_c, 0, 64, 89
2, 106400, Note_on_c, 0, 49, 107
2, 106480, Note_off_c, 0, 40, 64
2, 106510, Note_off_c, 0, 61, 64
2, 106525, Note_off_c, 0, 64, 64
2, 106530, Note_off_c, 0, 57, 64
2, 106535, Note_off_c, 0, 49, 64
2, 106560, Note_on_c, 0, 47, 98
2, 106560, Note_on_c, 0, 40, 85
2, 106560, Note_on_c, 0, 62, 80
2, 106560, Note_on_c, 0, 59, 76
2, 106560, Note_on_c, 0, 64, 60
2, 106665, Note_off_c, 0, 64, 64
2, 106670, Note_off_c, 0, 59, 64
2, 106670, Note_off_c, 0, 47, 64
2, 106675, Note_off_c, 0, 40, 64
2, 106675, Note_off_c, 0, 62, 64
2, 106880, Note_on_c, 0, 40, 89
2, 106880, Note_on_c, 0, 59, 93
2, 106880, Note_on_c, 0, 47, 98
2, 106880, Note_on_c, 0, 62, 89
2, 106880, Note_on_c, 0, 64, 93
2, 106960, Note_off_c, 0, 40, 64
2, 107005, Note_off_c, 0, 62, 64
2, 107015, Note_off_c, 0, 59, 64
2, 107025, Note_off_c, 0, 47, 64
2, 107040, Note_on_c, 0, 40, 80
2, 107040, Note_on_c, 0, 61, 98
2, 107040, Note_on_c, 0, 49, 89
2, 107180, Note_off_c, 0, 40, 64
2, 107325, Note_off_c, 0, 61, 64
2, 107360, Note_on_c, 0, 59, 59
2, 107360, Note_on_c, 0, 40, 76
2, 107360, Note_on_c, 0, 47, 93
2, 107365, Note_off_c, 0, 49, 64
2, 107470, Note_off_c, 0, 59, 64
2, 107480, Note_off_c, 0, 64, 64
2, 107485, Note_off_c, 0, 47, 64
2, 107505, Note_off_c, 0, 40, 64
2, 107520, Note_on_c, 0, 61, 107
2, 107520, Note_on_c, 0, 45, 102
2, 107520, Note_on_c, 0, 64, 107
2, 107520, Note_on_c, 0, 57, 93
2, 107730, Note_off_c, 0, 57, 64
2, 107840, Note_on_c, 0, 57, 85
2, 107920, Note_off_c, 0, 57, 64
2, 107955, Note_off_c, 0, 45, 64
2, 108000, Note_on_c, 0, 43, 89
2, 108000, Note_on_c, 0, 55, 107
2, 108180, Note_off_c, 0, 64, 64
2, 108195, Note_off_c, 0, 61, 64
2, 108320, Note_on_c, 0, 61, 107
2, 108320, Note_on_c, 0, 64, 102
2, 108360, Note_off_c, 0, 55, 64
2, 108415, Note_off_c, 0, 64, 64
2, 108450, Note_off_c, 0, 43, 64
2, 108465, Note_off_c, 0, 61, 64
2, 108480, Note_on_c, 0, 42, 85
2, 108480, Note_on_c, 0, 54, 72
2, 108800, Note_on_c, 0, 62, 93
2, 108800, Note_on_c, 0, 57, 80
2, 108910, Note_off_c, 0, 54, 64
2, 108940, Note_off_c, 0, 42, 64
2, 108960, Note_on_c, 0, 41, 89
2, 108960, Note_on_c, 0, 53, 89
2, 109170, Note_off_c, 0, 57, 64
2, 109280, Note_on_c, 0, 57, 76
2, 109335, Note_off_c, 0, 53, 64
2, 109390, Note_off_c, 0, 41, 64
2, 109400, Note_off_c, 0, 62, 64
2, 109440, Note_on_c, 0, 40, 93
2, 109440, Note_on_c, 0, 61, 107
2, 109440, Note_on_c, 0, 52, 76
2, 109695, Note_off_c, 0, 52, 64
2, 109920, Note_on_c, 0, 52, 62
2, 109990, Note_off_c, 0, 61, 64
2, 110005, Note_off_c, 0, 57, 64
2, 110080, Note_off_c, 0, 40, 64
2, 110240, Note_off_c, 0, 52, 64
2, 110240, Note_on_c, 0, 52, 113
2, 110240, Note_on_c, 0, 40, 102
2, 110240, Note_on_c, 0, 64, 98
2, 110240, Note_on_c, 0, 62, 98
2, 110880, Note_off_c, 0, 52, 64
2, 110880, Note_on_c, 0, 52, 98
2, 110930, Note_off_c, 0, 64, 64
2, 110970, Note_off_c, 0, 62, 64
2, 111040, Note_on_c, 0, 54, 102
2, 111150, Note_off_c, 0, 54, 64
2, 111200, Note_on_c, 0, 57, 93
2, 111215, Note_off_c, 0, 52, 64
2, 111295, Note_off_c, 0, 40, 64
2, 111295, Note_off_c, 0, 57, 64
2, 111360, Note_on_c, 0, 45, 107
2, 111360, Note_on_c, 0, 52, 102
2, 111360, Note_on_c, 0, 61, 93
2, 111360, Note_on_c, 0, 55, 93
2, 111360, Note_on_c, 0, 64, 93
2, 111455, Note_off_c, 0, 64, 64
2, 111455, Note_off_c, 0, 55, 64
2, 111465, Note_off_c, 0, 61, 64
2, 111465, Note_off_c, 0, 52, 64
2, 111470, Note_off_c, 0, 45, 64
2, 111680, Note_on_c, 0, 61, 76
2, 111680, Note_on_c, 0, 64, 85
2, 111680, Note_on_c, 0, 45, 98
2, 111680, Note_on_c, 0, 52, 93
2, 111680, Note_on_c, 0, 55, 89
2, 111770, Note_off_c, 0, 55, 64
2, 111775, Note_off_c, 0, 45, 64
2, 111785, Note_off_c, 0, 64, 64
2, 111820, Note_off_c, 0, 61, 64
2, 111840, Note_on_c, 0, 62, 89
2, 111840, Note_on_c, 0, 54, 93
2, 111840, Note_on_c, 0, 45, 85
2, 111840, Note_on_c, 0, 66, 102
2, 111840, Note_on_c, 0, 57, 85
2, 111850, Note_off_c, 0, 52, 64
2, 111930, Note_off_c, 0, 66, 64
2, 111935, Note_off_c, 0, 54, 64
2, 111935, Note_off_c, 0, 57, 64
2, 111940, Note_off_c, 0, 45, 64
2, 111945, Note_off_c, 0, 62, 64
2, 112160, Note_on_c, 0, 57, 60
2, 112160, Note_on_c, 0, 45, 98
2, 112160, Note_on_c, 0, 66, 89
2, 112160, Note_on_c, 0, 54, 98
2, 112160, Note_on_c, 0, 62, 89
2, 112245, Note_off_c, 0, 45, 64
2, 112265, Note_off_c, 0, 57, 64
2, 112270, Note_off_c, 0, 66, 64
2, 112280, Note_off_c, 0, 62, 64
2, 112315, Note_off_c, 0, 54, 64
2, 112320, Note_on_c, 0, 45, 80
2, 112320, Note_on_c, 0, 64, 68
2, 112320, Note_on_c, 0, 61, 72
2, 112320, Note_on_c, 0, 52, 98
2, 112320, Note_on_c, 0, 55, 80
2, 112415, Note_off_c, 0, 55, 64
2, 112435, Note_off_c, 0, 52, 64
2, 112435, Note_off_c, 0, 45, 64
2, 112445, Note_off_c, 0, 61, 64
2, 112455, Note_off_c, 0, 64, 64
2, 112640, Note_on_c, 0, 64, 45
2, 112640, Note_on_c, 0, 61, 64
2, 112640, Note_on_c, 0, 52, 89
2, 112640, Note_on_c, 0, 55, 62
2, 112640, Note_on_c, 0, 45, 89
2, 112720, Note_off_c, 0, 45, 64
2, 112730, Note_off_c, 0, 55, 64
2, 112750, Note_off_c, 0, 64, 64
2, 112755, Note_off_c, 0, 52, 64
2, 112775, Note_off_c, 0, 61, 64
2, 112800, Note_on_c, 0, 62, 85
2, 112800, Note_on_c, 0, 66, 89
2, 112800, Note_on_c, 0, 45, 102
2, 112800, Note_on_c, 0, 54, 107
2, 112950, Note_off_c, 0, 66, 64
2, 112960, Note_off_c, 0, 62, 64
2, 112960, Note_on_c, 0, 55, 102
2, 113000, Note_off_c, 0, 45, 64
2, 113120, Note_on_c, 0, 52, 89
2, 113120, Note_on_c, 0, 56, 98
2, 113120, Note_on_c, 0, 45, 93
2, 113125, Note_off_c, 0, 54, 64
2, 113140, Note_off_c, 0, 55, 64
2, 113200, Note_off_c, 0, 52, 64
2, 113225, Note_off_c, 0, 56, 64
2, 113280, Note_on_c, 0, 40, 93
2, 113280, Note_on_c, 0, 59, 98
2, 113280, Note_on_c, 0, 47, 107
2, 113280, Note_on_c, 0, 62, 93
2, 113280, Note_on_c, 0, 64, 89
2, 113285, Note_off_c, 0, 45, 64
2, 113365, Note_off_c, 0, 47, 64
2, 113375, Note_off_c, 0, 62, 64
2, 113385, Note_off_c, 0, 59, 64
2, 113390, Note_off_c, 0, 64, 64
2, 113400, Note_off_c, 0, 40, 64
2, 113600, Note_on_c, 0, 47, 98
2, 113600, Note_on_c, 0, 62, 93
2, 113600, Note_on_c, 0, 40, 89
2, 113600, Note_on_c, 0, 64, 102
2, 113600, Note_on_c, 0, 59, 102
2, 113695, Note_off_c, 0, 40, 64
2, 113720, Note_off_c, 0, 62, 64
2, 113750, Note_off_c, 0, 59, 64
2, 113755, Note_off_c, 0, 47, 64
2, 113760, Note_on_c, 0, 57, 80
2, 113760, Note_on_c, 0, 49, 93
2, 113760, Note_on_c, 0, 40, 85
2, 113760, Note_on_c, 0, 61, 76
2, 113835, Note_off_c, 0, 57, 64
2, 113840, Note_off_c, 0, 61, 64
2, 113860, Note_off_c, 0, 64, 64
2, 113860, Note_off_c, 0, 49, 64
2, 113860, Note_off_c, 0, 40, 64
2, 114080, Note_on_c, 0, 40, 93
2, 114080, Note_on_c, 0, 64, 93
2, 114080, Note_on_c, 0, 49, 98
2, 114080, Note_on_c, 0, 61, 93
2, 114080, Note_on_c, 0, 57, 93
2, 114165, Note_off_c, 0, 40, 64
2, 114190, Note_off_c, 0, 61, 64
2, 114195, Note_off_c, 0, 64, 64
2, 114195, Note_off_c, 0, 57, 64
2, 114225, Note_off_c, 0, 49, 64
2, 114240, Note_on_c, 0, 62, 80
2, 114240, Note_on_c, 0, 59, 80
2, 114240, Note_on_c, 0, 47, 89
2, 114240, Note_on_c, 0, 64, 62
2, 114240, Note_on_c, 0, 40, 89
2, 114325, Note_off_c, 0, 64, 64
2, 114335, Note_off_c, 0, 59, 64
2, 114335, Note_off_c, 0, 62, 64
2, 114345, Note_off_c, 0, 47, 64
2, 114350, Note_off_c, 0, 40, 64
2, 114560, Note_on_c, 0, 62, 93
2, 114560, Note_on_c, 0, 47, 93
2, 114560, Note_on_c, 0, 40, 89
2, 114560, Note_on_c, 0, 64, 102
2, 114560, Note_on_c, 0, 59, 102
2, 114640, Note_off_c, 0, 40, 64
2, 114675, Note_off_c, 0, 62, 64
2, 114675, Note_off_c, 0, 64, 64
2, 114685, Note_off_c, 0, 47, 64
2, 114685, Note_off_c, 0, 59, 64
2, 114720, Note_on_c, 0, 61, 98
2, 114720, Note_on_c, 0, 49, 93
2, 114720, Note_on_c, 0, 64, 85
2, 114720, Note_on_c, 0, 40, 98
2, 114845, Note_off_c, 0, 61, 64
2, 114855, Note_off_c, 0, 64, 64
2, 114880, Note_on_c, 0, 53, 93
2, 114900, Note_off_c, 0, 40, 64
2, 115040, Note_off_c, 0, 49, 64
2, 115040, Note_on_c, 0, 47, 80
2, 115040, Note_on_c, 0, 40, 85
2, 115040, Note_on_c, 0, 54, 93
2, 115060, Note_off_c, 0, 53, 64
2, 115125, Note_off_c, 0, 40, 64
2, 115140, Note_off_c, 0, 47, 64
2, 115155, Note_off_c, 0, 54, 64
2, 115200, Note_on_c, 0, 62, 89
2, 115200, Note_on_c, 0, 38, 89
2, 115200, Note_on_c, 0, 60, 93
2, 115200, Note_on_c, 0, 45, 98
2, 115200, Note_on_c, 0, 57, 102
2, 115305, Note_off_c, 0, 38, 64
2, 115310, Note_off_c, 0, 60, 64
2, 115310, Note_off_c, 0, 45, 64
2, 115315, Note_off_c, 0, 62, 64
2, 115320, Note_off_c, 0, 57, 64
2, 115520, Note_on_c, 0, 45, 93
2, 115520, Note_on_c, 0, 57, 102
2, 115520, Note_on_c, 0, 38, 72
2, 115520, Note_on_c, 0, 62, 98
2, 115520, Note_on_c, 0, 60, 89
2, 115625, Note_off_c, 0, 38, 64
2, 115635, Note_off_c, 0, 60, 64
2, 115645, Note_off_c, 0, 62, 64
2, 115665, Note_off_c, 0, 45, 64
2, 115670, Note_off_c, 0, 57, 64
2, 115680, Note_on_c, 0, 55, 80
2, 115680, Note_on_c, 0, 59, 85
2, 115680, Note_on_c, 0, 38, 80
2, 115680, Note_on_c, 0, 47, 93
2, 115680, Note_on_c, 0, 62, 64
2, 115765, Note_off_c, 0, 59, 64
2, 115770, Note_off_c, 0, 62, 64
2, 115780, Note_off_c, 0, 55, 64
2, 115785, Note_off_c, 0, 38, 64
2, 115795, Note_off_c, 0, 47, 64
2, 116000, Note_on_c, 0, 38, 89
2, 116000, Note_on_c, 0, 55, 93
2, 116000, Note_on_c, 0, 62, 98
2, 116000, Note_on_c, 0, 59, 98
2, 116000, Note_on_c, 0, 47, 93
2, 116080, Note_off_c, 0, 38, 64
2, 116100, Note_off_c, 0, 59, 64
2, 116110, Note_off_c, 0, 62, 64
2, 116130, Note_off_c, 0, 55, 64
2, 116145, Note_off_c, 0, 47, 64
2, 116160, Note_on_c, 0, 38, 85
2, 116160, Note_on_c, 0, 57, 68
2, 116160, Note_on_c, 0, 45, 93
2, 116160, Note_on_c, 0, 62, 64
2, 116160, Note_on_c, 0, 60, 72
2, 116240, Note_off_c, 0, 62, 64
2, 116255, Note_off_c, 0, 57, 64
2, 116260, Note_off_c, 0, 60, 64
2, 116285, Note_off_c, 0, 38, 64
2, 116290, Note_off_c, 0, 45, 64
2, 116480, Note_on_c, 0, 45, 85
2, 116480, Note_on_c, 0, 38, 89
2, 116480, Note_on_c, 0, 57, 98
2, 116480, Note_on_c, 0, 62, 107
2, 116480, Note_on_c, 0, 60, 85
2, 116570, Note_off_c, 0, 38, 64
2, 116575, Note_off_c, 0, 60, 64
2, 116585, Note_off_c, 0, 62, 64
2, 116595, Note_off_c, 0, 57, 64
2, 116600, Note_off_c, 0, 45, 64
2, 116640, Note_on_c, 0, 62, 93
2, 116640, Note_on_c, 0, 59, 98
2, 116640, Note_on_c, 0, 47, 98
2, 116640, Note_on_c, 0, 38, 93
2, 116760, Note_off_c, 0, 59, 64
2, 116800, Note_on_c, 0, 53, 76
2, 116845, Note_off_c, 0, 38, 64
2, 116935, Note_off_c, 0, 47, 64
2, 116960, Note_on_c, 0, 54, 93
2, 116960, Note_on_c, 0, 38, 93
2, 116960, Note_on_c, 0, 45, 89
2, 116980, Note_off_c, 0, 53, 64
2, 117025, Note_off_c, 0, 62, 64
2, 117045, Note_off_c, 0, 38, 64
2, 117075, Note_off_c, 0, 54, 64
2, 117075, Note_off_c, 0, 45, 64
2, 117120, Note_on_c, 0, 38, 85
2, 117120, Note_on_c, 0, 62, 89
2, 117120, Note_on_c, 0, 57, 102
2, 117120, Note_on_c, 0, 60, 89
2, 117120, Note_on_c, 0, 45, 93
2, 117200, Note_off_c, 0, 60, 64
2, 117210, Note_off_c, 0, 57, 64
2, 117210, Note_off_c, 0, 62, 64
2, 117245, Note_off_c, 0, 45, 64
2, 117270, Note_off_c, 0, 38, 64
2, 117440, Note_on_c, 0, 60, 93
2, 117440, Note_on_c, 0, 45, 89
2, 117440, Note_on_c, 0, 57, 98
2, 117440, Note_on_c, 0, 62, 107
2, 117440, Note_on_c, 0, 38, 85
2, 117530, Note_off_c, 0, 38, 64
2, 117550, Note_off_c, 0, 62, 64
2, 117555, Note_off_c, 0, 60, 64
2, 117580, Note_off_c, 0, 45, 64
2, 117585, Note_off_c, 0, 57, 64
2, 117600, Note_on_c, 0, 38, 89
2, 117600, Note_on_c, 0, 55, 76
2, 117600, Note_on_c, 0, 62, 72
2, 117600, Note_on_c, 0, 47, 98
2, 117600, Note_on_c, 0, 59, 85
2, 117690, Note_off_c, 0, 59, 64
2, 117690, Note_off_c, 0, 55, 64
2, 117695, Note_off_c, 0, 62, 64
2, 117695, Note_off_c, 0, 47, 64
2, 117700, Note_off_c, 0, 38, 64
2, 117920, Note_on_c, 0, 59, 89
2, 117920, Note_on_c, 0, 38, 89
2, 117920, Note_on_c, 0, 47, 93
2, 117920, Note_on_c, 0, 62, 93
2, 117920, Note_on_c, 0, 55, 76
2, 118005, Note_off_c, 0, 38, 64
2, 118025, Note_off_c, 0, 62, 64
2, 118030, Note_off_c, 0, 59, 64
2, 118035, Note_off_c, 0, 55, 64
2, 118055, Note_off_c, 0, 47, 64
2, 118080, Note_on_c, 0, 60, 80
2, 118080, Note_on_c, 0, 45, 89
2, 118080, Note_on_c, 0, 57, 76
2, 118080, Note_on_c, 0, 62, 72
2, 118080, Note_on_c, 0, 38, 89
2, 118180, Note_off_c, 0, 60, 64
2, 118190, Note_off_c, 0, 57, 64
2, 118195, Note_off_c, 0, 62, 64
2, 118195, Note_off_c, 0, 38, 64
2, 118200, Note_off_c, 0, 45, 64
2, 118400, Note_on_c, 0, 62, 93
2, 118400, Note_on_c, 0, 57, 98
2, 118400, Note_on_c, 0, 45, 80
2, 118400, Note_on_c, 0, 38, 85
2, 118400, Note_on_c, 0, 60, 80
2, 118485, Note_off_c, 0, 38, 64
2, 118495, Note_off_c, 0, 60, 64
2, 118510, Note_off_c, 0, 45, 64
2, 118510, Note_off_c, 0, 62, 64
2, 118520, Note_off_c, 0, 57, 64
2, 118560, Note_on_c, 0, 62, 85
2, 118560, Note_on_c, 0, 38, 89
2, 118560, Note_on_c, 0, 47, 93
2, 118560, Note_on_c, 0, 59, 93
2, 118665, Note_off_c, 0, 59, 64
2, 118720, Note_off_c, 0, 38, 64
2, 118720, Note_on_c, 0, 53, 89
2, 118880, Note_off_c, 0, 47, 64
2, 118880, Note_on_c, 0, 45, 89
2, 118880, Note_on_c, 0, 54, 85
2, 118880, Note_on_c, 0, 38, 85
2, 118910, Note_off_c, 0, 53, 64
2, 118940, Note_off_c, 0, 62, 64
2, 118945, Note_off_c, 0, 45, 64
2, 118965, Note_off_c, 0, 54, 64
2, 119025, Note_off_c, 0, 38, 64
2, 119040, Note_on_c, 0, 55, 76
2, 119040, Note_on_c, 0, 45, 107
2, 119040, Note_on_c, 0, 64, 89
2, 119040, Note_on_c, 0, 61, 93
2, 119040, Note_on_c, 0, 52, 107
2, 119130, Note_off_c, 0, 61, 64
2, 119130, Note_off_c, 0, 64, 64
2, 119130, Note_off_c, 0, 55, 64
2, 119150, Note_off_c, 0, 45, 64
2, 119160, Note_off_c, 0, 52, 64
2, 119360, Note_on_c, 0, 55, 76
2, 119360, Note_on_c, 0, 52, 93
2, 119360, Note_on_c, 0, 61, 68
2, 119360, Note_on_c, 0, 45, 107
2, 119360, Note_on_c, 0, 64, 68
2, 119415, Note_off_c, 0, 55, 64
2, 119425, Note_off_c, 0, 64, 64
2, 119435, Note_off_c, 0, 61, 64
2, 119455, Note_off_c, 0, 45, 64
2, 119520, Note_on_c, 0, 66, 93
2, 119520, Note_on_c, 0, 57, 80
2, 119520, Note_on_c, 0, 54, 93
2, 119520, Note_on_c, 0, 62, 76
2, 119520, Note_on_c, 0, 45, 89
2, 119525, Note_off_c, 0, 52, 64
2, 119605, Note_off_c, 0, 54, 64
2, 119610, Note_off_c, 0, 45, 64
2, 119640, Note_off_c, 0, 66, 64
2, 119640, Note_off_c, 0, 57, 64
2, 119645, Note_off_c, 0, 62, 64
2, 119840, Note_on_c, 0, 45, 102
2, 119840, Note_on_c, 0, 54, 102
2, 119840, Note_on_c, 0, 57, 64
2, 119840, Note_on_c, 0, 66, 76
2, 119840, Note_on_c, 0, 62, 72
2, 119915, Note_off_c, 0, 45, 64
2, 119935, Note_off_c, 0, 57, 64
2, 119945, Note_off_c, 0, 66, 64
2, 119965, Note_off_c, 0, 62, 64
2, 119980, Note_off_c, 0, 54, 64
2, 120000, Note_on_c, 0, 64, 80
2, 120000, Note_on_c, 0, 45, 93
2, 120000, Note_on_c, 0, 61, 80
2, 120000, Note_on_c, 0, 55, 68
2, 120000, Note_on_c, 0, 52, 93
2, 120075, Note_off_c, 0, 55, 64
2, 120105, Note_off_c, 0, 45, 64
2, 120110, Note_off_c, 0, 52, 64
2, 120115, Note_off_c, 0, 61, 64
2, 120140, Note_off_c, 0, 64, 64
2, 120320, Note_on_c, 0, 64, 51
2, 120320, Note_on_c, 0, 52, 93
2, 120320, Note_on_c, 0, 55, 50
2, 120320, Note_on_c, 0, 61, 57
2, 120320, Note_on_c, 0, 45, 98
2, 120405, Note_off_c, 0, 45, 64
2, 120405, Note_off_c, 0, 55, 64
2, 120430, Note_off_c, 0, 64, 64
2, 120445, Note_off_c, 0, 52, 64
2, 120445, Note_off_c, 0, 61, 64
2, 120480, Note_on_c, 0, 66, 80
2, 120480, Note_on_c, 0, 57, 49
2, 120480, Note_on_c, 0, 45, 98
2, 120480, Note_on_c, 0, 54, 93
2, 120480, Note_on_c, 0, 62, 85
2, 120510, Note_off_c, 0, 57, 64
2, 120600, Note_off_c, 0, 62, 64
2, 120610, Note_off_c, 0, 66, 64
2, 120625, Note_off_c, 0, 45, 64
2, 120640, Note_on_c, 0, 55, 98
2, 120800, Note_on_c, 0, 56, 93
2, 120800, Note_on_c, 0, 45, 85
2, 120800, Note_on_c, 0, 52, 85
2, 120820, Note_off_c, 0, 54, 64
2, 120830, Note_off_c, 0, 55, 64
2, 120880, Note_off_c, 0, 52, 64
2, 120900, Note_off_c, 0, 56, 64
2, 120945, Note_off_c, 0, 45, 64
2, 120960, Note_on_c, 0, 47, 102
2, 120960, Note_on_c, 0, 59, 98
2, 120960, Note_on_c, 0, 64, 93
2, 120960, Note_on_c, 0, 40, 89
2, 120960, Note_on_c, 0, 62, 93
2, 121050, Note_off_c, 0, 59, 64
2, 121050, Note_off_c, 0, 47, 64
2, 121065, Note_off_c, 0, 62, 64
2, 121070, Note_off_c, 0, 64, 64
2, 121070, Note_off_c, 0, 40, 64
2, 121280, Note_on_c, 0, 62, 85
2, 121280, Note_on_c, 0, 64, 98
2, 121280, Note_on_c, 0, 47, 89
2, 121280, Note_on_c, 0, 40, 89
2, 121280, Note_on_c, 0, 59, 93
2, 121375, Note_off_c, 0, 40, 64
2, 121385, Note_off_c, 0, 62, 64
2, 121400, Note_off_c, 0, 64, 64
2, 121420, Note_off_c, 0, 59, 64
2, 121440, Note_on_c, 0, 64, 80
2, 121440, Note_on_c, 0, 57, 89
2, 121440, Note_on_c, 0, 49, 93
2, 121440, Note_on_c, 0, 40, 89
2, 121440, Note_on_c, 0, 61, 85
2, 121455, Note_off_c, 0, 47, 64
2, 121525, Note_off_c, 0, 40, 64
2, 121535, Note_off_c, 0, 49, 64
2, 121540, Note_off_c, 0, 64, 64
2, 121540, Note_off_c, 0, 61, 64
2, 121545, Note_off_c, 0, 57, 64
2, 121760, Note_on_c, 0, 40, 85
2, 121760, Note_on_c, 0, 61, 93
2, 121760, Note_on_c, 0, 64, 89
2, 121760, Note_on_c, 0, 49, 107
2, 121760, Note_on_c, 0, 57, 89
2, 121840, Note_off_c, 0, 40, 64
2, 121870, Note_off_c, 0, 61, 64
2, 121885, Note_off_c, 0, 64, 64
2, 121890, Note_off_c, 0, 57, 64
2, 121895, Note_off_c, 0, 49, 64
2, 121920, Note_on_c, 0, 47, 98
2, 121920, Note_on_c, 0, 40, 85
2, 121920, Note_on_c, 0, 59, 76
2, 121920, Note_on_c, 0, 64, 60
2, 121920, Note_on_c, 0, 62, 80
2, 122025, Note_off_c, 0, 64, 64
2, 122030, Note_off_c, 0, 59, 64
2, 122030, Note_off_c, 0, 47, 64
2, 122035, Note_off_c, 0, 40, 64
2, 122035, Note_off_c, 0, 62, 64
2, 122240, Note_on_c, 0, 40, 89
2, 122240, Note_on_c, 0, 59, 93
2, 122240, Note_on_c, 0, 64, 93
2, 122240, Note_on_c, 0, 62, 89
2, 122240, Note_on_c, 0, 47, 98
2, 122320, Note_off_c, 0, 40, 64
2, 122365, Note_off_c, 0, 62, 64
2, 122375, Note_off_c, 0, 59, 64
2, 122385, Note_off_c, 0, 47, 64
2, 122400, Note_on_c, 0, 49, 89
2, 122400, Note_on_c, 0, 61, 98
2, 122400, Note_on_c, 0, 40, 80
2, 122540, Note_off_c, 0, 40, 64
2, 122685, Note_off_c, 0, 61, 64
2, 122720, Note_on_c, 0, 47, 93
2, 122720, Note_on_c, 0, 40, 76
2, 122720, Note_on_c, 0, 59, 59
2, 122725, Note_off_c, 0, 49, 64
2, 122830, Note_off_c, 0, 59, 64
2, 122840, Note_off_c, 0, 64, 64
2, 122845, Note_off_c, 0, 47, 64
2, 122865, Note_off_c, 0, 40, 64
2, 122880, Note_on_c, 0, 45, 102
2, 122880, Note_on_c, 0, 64, 107
2, 122880, Note_on_c, 0, 57, 93
2, 122880, Note_on_c, 0, 61, 107
2, 123090, Note_off_c, 0, 57, 64
2, 123200, Note_on_c, 0, 57, 85
2, 123280, Note_off_c, 0, 57, 64
2, 123315, Note_off_c, 0, 45, 64
2, 123360, Note_on_c, 0, 43, 89
2, 123360, Note_on_c, 0, 55, 107
2, 123540, Note_off_c, 0, 64, 64
2, 123555, Note_off_c, 0, 61, 64
2, 123680, Note_on_c, 0, 61, 107
2, 123680, Note_on_c, 0, 64, 102
2, 123720, Note_off_c, 0, 55, 64
2, 123775, Note_off_c, 0, 64, 64
2, 123810, Note_off_c, 0, 43, 64
2, 123825, Note_off_c, 0, 61, 64
2, 123840, Note_on_c, 0, 42, 85
2, 123840, Note_on_c, 0, 54, 72
2, 124160, Note_on_c, 0, 57, 80
2, 124160, Note_on_c, 0, 62, 93
2, 124270, Note_off_c, 0, 54, 64
2, 124300, Note_off_c, 0, 42, 64
2, 124320, Note_on_c, 0, 41, 89
2, 124320, Note_on_c, 0, 53, 89
2, 124530, Note_off_c, 0, 57, 64
2, 124640, Note_on_c, 0, 57, 76
2, 124695, Note_off_c, 0, 53, 64
2, 124750, Note_off_c, 0, 41, 64
2, 124760, Note_off_c, 0, 62, 64
2, 124800, Note_on_c, 0, 52, 76
2, 124800, Note_on_c, 0, 61, 107
2, 124800, Note_on_c, 0, 40, 93
2, 125055, Note_off_c, 0, 52, 64
2, 125280, Note_on_c, 0, 52, 62
2, 125350, Note_off_c, 0, 61, 64
2, 125365, Note_off_c, 0, 57, 64
2, 125440, Note_off_c, 0, 40, 64
2, 125600, Note_off_c, 0, 52, 64
2, 125600, Note_on_c, 0, 52, 113
2, 125600, Note_on_c, 0, 40, 102
2, 125600, Note_on_c, 0, 62, 98
2, 125600, Note_on_c, 0, 64, 98
2, 126240, Note_off_c, 0, 52, 64
2, 126240, Note_on_c, 0, 52, 98
2, 126290, Note_off_c, 0, 64, 64
2, 126330, Note_off_c, 0, 62, 64
2, 126400, Note_on_c, 0, 54, 102
2, 126510, Note_off_c, 0, 54, 64
2, 126560, Note_on_c, 0, 57, 93
2, 126575, Note_off_c, 0, 52, 64
2, 126655, Note_off_c, 0, 40, 64
2, 126655, Note_off_c, 0, 57, 64
2, 126720, Note_on_c, 0, 61, 93
2, 126720, Note_on_c, 0, 55, 93
2, 126720, Note_on_c, 0, 64, 93
2, 126720, Note_on_c, 0, 45, 107
2, 126720, Note_on_c, 0, 52, 102
2, 126815, Note_off_c, 0, 64, 64
2, 126815, Note_off_c, 0, 55, 64
2, 126825, Note_off_c, 0, 61, 64
2, 126825, Note_off_c, 0, 52, 64
2, 126830, Note_off_c, 0, 45, 64
2, 127040, Note_on_c, 0, 61, 76
2, 127040, Note_on_c, 0, 52, 93
2, 127040, Note_on_c, 0, 55, 89
2, 127040, Note_on_c, 0, 64, 85
2, 127040, Note_on_c, 0, 45, 98
2, 127130, Note_off_c, 0, 55, 64
2, 127135, Note_off_c, 0, 45, 64
2, 127145, Note_off_c, 0, 64, 64
2, 127180, Note_off_c, 0, 61, 64
2, 127200, Note_on_c, 0, 54, 93
2, 127200, Note_on_c, 0, 66, 102
2, 127200, Note_on_c, 0, 57, 85
2, 127200, Note_on_c, 0, 45, 85
2, 127200, Note_on_c, 0, 62, 89
2, 127210, Note_off_c, 0, 52, 64
2, 127290, Note_off_c, 0, 66, 64
2, 127295, Note_off_c, 0, 54, 64
2, 127295, Note_off_c, 0, 57, 64
2, 127300, Note_off_c, 0, 45, 64
2, 127305, Note_off_c, 0, 62, 64
2, 127520, Note_on_c, 0, 57, 60
2, 127520, Note_on_c, 0, 54, 98
2, 127520, Note_on_c, 0, 62, 89
2, 127520, Note_on_c, 0, 66, 89
2, 127520, Note_on_c, 0, 45, 98
2, 127605, Note_off_c, 0, 45, 64
2, 127625, Note_off_c, 0, 57, 64
2, 127630, Note_off_c, 0, 66, 64
2, 127640, Note_off_c, 0, 62, 64
2, 127675, Note_off_c, 0, 54, 64
2, 127680, Note_on_c, 0, 64, 68
2, 127680, Note_on_c, 0, 61, 72
2, 127680, Note_on_c, 0, 52, 98
2, 127680, Note_on_c, 0, 45, 80
2, 127680, Note_on_c, 0, 55, 80
2, 127775, Note_off_c, 0, 55, 64
2, 127795, Note_off_c, 0, 45, 64
2, 127795, Note_off_c, 0, 52, 64
2, 127805, Note_off_c, 0, 61, 64
2, 127815, Note_off_c, 0, 64, 64
2, 128000, Note_on_c, 0, 64, 45
2, 128000, Note_on_c, 0, 45, 89
2, 128000, Note_on_c, 0, 52, 89
2, 128000, Note_on_c, 0, 61, 64
2, 128000, Note_on_c, 0, 55, 62
2, 128080, Note_off_c, 0, 45, 64
2, 128090, Note_off_c, 0, 55, 64
2, 128110, Note_off_c, 0, 64, 64
2, 128115, Note_off_c, 0, 52, 64
2, 128135, Note_off_c, 0, 61, 64
2, 128160, Note_on_c, 0, 66, 89
2, 128160, Note_on_c, 0, 54, 107
2, 128160, Note_on_c, 0, 62, 85
2, 128160, Note_on_c, 0, 45, 102
2, 128310, Note_off_c, 0, 66, 64
2, 128320, Note_off_c, 0, 62, 64
2, 128320, Note_on_c, 0, 55, 102
2, 128360, Note_off_c, 0, 45, 64
2, 128480, Note_on_c, 0, 56, 98
2, 128480, Note_on_c, 0, 52, 89
2, 128480, Note_on_c, 0, 45, 93
2, 128485, Note_off_c, 0, 54, 64
2, 128500, Note_off_c, 0, 55, 64
2, 128560, Note_off_c, 0, 52, 64
2, 128585, Note_off_c, 0, 56, 64
2, 128640, Note_on_c, 0, 59, 98
2, 128640, Note_on_c, 0, 47, 107
2, 128640, Note_on_c, 0, 62, 93
2, 128640, Note_on_c, 0, 64, 89
2, 128640, Note_on_c, 0, 40, 93
2, 128645, Note_off_c, 0, 45, 64
2, 128725, Note_off_c, 0, 47, 64
2, 128735, Note_off_c, 0, 62, 64
2, 128745, Note_off_c, 0, 59, 64
2, 128750, Note_off_c, 0, 64, 64
2, 128760, Note_off_c, 0, 40, 64
2, 128960, Note_on_c, 0, 59, 102
2, 128960, Note_on_c, 0, 40, 89
2, 128960, Note_on_c, 0, 64, 102
2, 128960, Note_on_c, 0, 62, 93
2, 128960, Note_on_c, 0, 47, 98
2, 129055, Note_off_c, 0, 40, 64
2, 129080, Note_off_c, 0, 62, 64
2, 129110, Note_off_c, 0, 59, 64
2, 129115, Note_off_c, 0, 47, 64
2, 129120, Note_on_c, 0, 61, 76
2, 129120, Note_on_c, 0, 57, 80
2, 129120, Note_on_c, 0, 40, 85
2, 129120, Note_on_c, 0, 49, 93
2, 129195, Note_off_c, 0, 57, 64
2, 129200, Note_off_c, 0, 61, 64
2, 129220, Note_off_c, 0, 64, 64
2, 129220, Note_off_c, 0, 40, 64
2, 129220, Note_off_c, 0, 49, 64
2, 129440, Note_on_c, 0, 57, 93
2, 129440, Note_on_c, 0, 61, 93
2, 129440, Note_on_c, 0, 40, 93
2, 129440, Note_on_c, 0, 49, 98
2, 129440, Note_on_c, 0, 64, 93
2, 129525, Note_off_c, 0, 40, 64
2, 129550, Note_off_c, 0, 61, 64
2, 129555, Note_off_c, 0, 57, 64
2, 129555, Note_off_c, 0, 64, 64
2, 129585, Note_off_c, 0, 49, 64
2, 129600, Note_on_c, 0, 59, 80
2, 129600, Note_on_c, 0, 40, 89
2, 129600, Note_on_c, 0, 47, 89
2, 129600, Note_on_c, 0, 64, 62
2, 129600, Note_on_c, 0, 62, 80
2, 129685, Note_off_c, 0, 64, 64
2, 129695, Note_off_c, 0, 59, 64
2, 129695, Note_off_c, 0, 62, 64
2, 129705, Note_off_c, 0, 47, 64
2, 129710, Note_off_c, 0, 40, 64
2, 129920, Note_on_c, 0, 59, 102
2, 129920, Note_on_c, 0, 64, 102
2, 129920, Note_on_c, 0, 40, 89
2, 129920, Note_on_c, 0, 62, 93
2, 129920, Note_on_c, 0, 47, 93
2, 130000, Note_off_c, 0, 40, 64
2, 130035, Note_off_c, 0, 64, 64
2, 130035, Note_off_c, 0, 62, 64
2, 130045, Note_off_c, 0, 59, 64
2, 130045, Note_off_c, 0, 47, 64
2, 130080, Note_on_c, 0, 40, 98
2, 130080, Note_on_c, 0, 49, 93
2, 130080, Note_on_c, 0, 61, 98
2, 130080, Note_on_c, 0, 64, 85
2, 130205, Note_off_c, 0, 61, 64
2, 130215, Note_off_c, 0, 64, 64
2, 130240, Note_on_c, 0, 53, 93
2, 130260, Note_off_c, 0, 40, 64
2, 130400, Note_off_c, 0, 49, 64
2, 130400, Note_on_c, 0, 54, 93
2, 130400, Note_on_c, 0, 40, 85
2, 130400, Note_on_c, 0, 47, 80
2, 130420, Note_off_c, 0, 53, 64
2, 130485, Note_off_c, 0, 40, 64
2, 130500, Note_off_c, 0, 47, 64
2, 130515, Note_off_c, 0, 54, 64
2, 130560, Note_on_c, 0, 57, 102
2, 130560, Note_on_c, 0, 45, 98
2, 130560, Note_on_c, 0, 60, 93
2, 130560, Note_on_c, 0, 62, 89
2, 130560, Note_on_c, 0, 38, 89
2, 130665, Note_off_c, 0, 38, 64
2, 130670, Note_off_c, 0, 60, 64
2, 130670, Note_off_c, 0, 45, 64
2, 130675, Note_off_c, 0, 62, 64
2, 130680, Note_off_c, 0, 57, 64
2, 130880, Note_on_c, 0, 38, 72
2, 130880, Note_on_c, 0, 57, 102
2, 130880, Note_on_c, 0, 62, 98
2, 130880, Note_on_c, 0, 60, 89
2, 130880, Note_on_c, 0, 45, 93
2, 130985, Note_off_c, 0, 38, 64
2, 130995, Note_off_c, 0, 60, 64
2, 131005, Note_off_c, 0, 62, 64
2, 131025, Note_off_c, 0, 45, 64
2, 131030, Note_off_c, 0, 57, 64
2, 131040, Note_on_c, 0, 55, 80
2, 131040, Note_on_c, 0, 62, 64
2, 131040, Note_on_c, 0, 38, 80
2, 131040, Note_on_c, 0, 59, 85
2, 131040, Note_on_c, 0, 47, 93
2, 131125, Note_off_c, 0, 59, 64
2, 131130, Note_off_c, 0, 62, 64
2, 131140, Note_off_c, 0, 55, 64
2, 131145, Note_off_c, 0, 38, 64
2, 131155, Note_off_c, 0, 47, 64
2, 131360, Note_on_c, 0, 47, 93
2, 131360, Note_on_c, 0, 62, 98
2, 131360, Note_on_c, 0, 38, 89
2, 131360, Note_on_c, 0, 59, 98
2, 131360, Note_on_c, 0, 55, 93
2, 131440, Note_off_c, 0, 38, 64
2, 131460, Note_off_c, 0, 59, 64
2, 131470, Note_off_c, 0, 62, 64
2, 131490, Note_off_c, 0, 55, 64
2, 131505, Note_off_c, 0, 47, 64
2, 131520, Note_on_c, 0, 45, 93
2, 131520, Note_on_c, 0, 62, 64
2, 131520, Note_on_c, 0, 57, 68
2, 131520, Note_on_c, 0, 60, 72
2, 131520, Note_on_c, 0, 38, 85
2, 131600, Note_off_c, 0, 62, 64
2, 131615, Note_off_c, 0, 57, 64
2, 131620, Note_off_c, 0, 60, 64
2, 131645, Note_off_c, 0, 38, 64
2, 131650, Note_off_c, 0, 45, 64
2, 131840, Note_on_c, 0, 45, 85
2, 131840, Note_on_c, 0, 60, 85
2, 131840, Note_on_c, 0, 57, 98
2, 131840, Note_on_c, 0, 38, 89
2, 131840, Note_on_c, 0, 62, 107
2, 131930, Note_off_c, 0, 38, 64
2, 131935, Note_off_c, 0, 60, 64
2, 131945, Note_off_c, 0, 62, 64
2, 131955, Note_off_c, 0, 57, 64
2, 131960, Note_off_c, 0, 45, 64
2, 132000, Note_on_c, 0, 62, 93
2, 132000, Note_on_c, 0, 38, 93
2, 132000, Note_on_c, 0, 47, 98
2, 132000, Note_on_c, 0, 59, 98
2, 132120, Note_off_c, 0, 59, 64
2, 132160, Note_on_c, 0, 53, 76
2, 132205, Note_off_c, 0, 38, 64
2, 132295, Note_off_c, 0, 47, 64
2, 132320, Note_on_c, 0, 54, 93
2, 132320, Note_on_c, 0, 45, 89
2, 132320, Note_on_c, 0, 38, 93
2, 132340, Note_off_c, 0, 53, 64
2, 132385, Note_off_c, 0, 62, 64
2, 132405, Note_off_c, 0, 38, 64
2, 132435, Note_off_c, 0, 54, 64
2, 132435, Note_off_c, 0, 45, 64
2, 132480, Note_on_c, 0, 60, 89
2, 132480, Note_on_c, 0, 62, 89
2, 132480, Note_on_c, 0, 38, 85
2, 132480, Note_on_c, 0, 57, 102
2, 132480, Note_on_c, 0, 45, 93
2, 132560, Note_off_c, 0, 60, 64
2, 132570, Note_off_c, 0, 62, 64
2, 132570, Note_off_c, 0, 57, 64
2, 132605, Note_off_c, 0, 45, 64
2, 132630, Note_off_c, 0, 38, 64
2, 132800, Note_on_c, 0, 57, 98
2, 132800, Note_on_c, 0, 38, 85
2, 132800, Note_on_c, 0, 62, 107
2, 132800, Note_on_c, 0, 45, 89
2, 132800, Note_on_c, 0, 60, 93
2, 132890, Note_off_c, 0, 38, 64
2, 132910, Note_off_c, 0, 62, 64
2, 132915, Note_off_c, 0, 60, 64
2, 132940, Note_off_c, 0, 45, 64
2, 132945, Note_off_c, 0, 57, 64
2, 132960, Note_on_c, 0, 47, 98
2, 132960, Note_on_c, 0, 59, 85
2, 132960, Note_on_c, 0, 38, 89
2, 132960, Note_on_c, 0, 62, 72
2, 132960, Note_on_c, 0, 55, 76
2, 133050, Note_off_c, 0, 55, 64
2, 133050, Note_off_c, 0, 59, 64
2, 133055, Note_off_c, 0, 47, 64
2, 133055, Note_off_c, 0, 62, 64
2, 133060, Note_off_c, 0, 38, 64
2, 133280, Note_on_c, 0, 47, 93
2, 133280, Note_on_c, 0, 55, 76
2, 133280, Note_on_c, 0, 38, 89
2, 133280, Note_on_c, 0, 59, 89
2, 133280, Note_on_c, 0, 62, 93
2, 133365, Note_off_c, 0, 38, 64
2, 133385, Note_off_c, 0, 62, 64
2, 133390, Note_off_c, 0, 59, 64
2, 133395, Note_off_c, 0, 55, 64
2, 133415, Note_off_c, 0, 47, 64
2, 133440, Note_on_c, 0, 57, 76
2, 133440, Note_on_c, 0, 38, 89
2, 133440, Note_on_c, 0, 60, 80
2, 133440, Note_on_c, 0, 62, 72
2, 133440, Note_on_c, 0, 45, 89
2, 133540, Note_off_c, 0, 60, 64
2, 133550, Note_off_c, 0, 57, 64
2, 133555, Note_off_c, 0, 38, 64
2, 133555, Note_off_c, 0, 62, 64
2, 133560, Note_off_c, 0, 45, 64
2, 133760, Note_on_c, 0, 38, 85
2, 133760, Note_on_c, 0, 57, 98
2, 133760, Note_on_c, 0, 45, 80
2, 133760, Note_on_c, 0, 62, 93
2, 133760, Note_on_c, 0, 60, 80
2, 133845, Note_off_c, 0, 38, 64
2, 133855, Note_off_c, 0, 60, 64
2, 133870, Note_off_c, 0, 45, 64
2, 133870, Note_off_c, 0, 62, 64
2, 133880, Note_off_c, 0, 57, 64
2, 133920, Note_on_c, 0, 38, 89
2, 133920, Note_on_c, 0, 47, 93
2, 133920, Note_on_c, 0, 62, 85
2, 133920, Note_on_c, 0, 59, 93
2, 134025, Note_off_c, 0, 59, 64
2, 134080, Note_off_c, 0, 38, 64
2, 134080, Note_on_c, 0, 53, 89
2, 134240, Note_off_c, 0, 47, 64
2, 134240, Note_on_c, 0, 54, 85
2, 134240, Note_on_c, 0, 38, 85
2, 134240, Note_on_c, 0, 45, 89
2, 134270, Note_off_c, 0, 53, 64
2, 134300, Note_off_c, 0, 62, 64
2, 134305, Note_off_c, 0, 45, 64
2, 134325, Note_off_c, 0, 54, 64
2, 134385, Note_off_c, 0, 38, 64
2, 134400, Note_on_c, 0, 55, 76
2, 134400, Note_on_c, 0, 52, 107
2, 134400, Note_on_c, 0, 64, 89
2, 134400, Note_on_c, 0, 45, 107
2, 134400, Note_on_c, 0, 61, 93
2, 134490, Note_off_c, 0, 61, 64
2, 134490, Note_off_c, 0, 64, 64
2, 134490, Note_off_c, 0, 55, 64
2, 134510, Note_off_c, 0, 45, 64
2, 134520, Note_off_c, 0, 52, 64
2, 134720, Note_on_c, 0, 52, 93
2, 134720, Note_on_c, 0, 64, 68
2, 134720, Note_on_c, 0, 55, 76
2, 134720, Note_on_c, 0, 61, 68
2, 134720, Note_on_c, 0, 45, 107
2, 134775, Note_off_c, 0, 55, 64
2, 134785, Note_off_c, 0, 64, 64
2, 134795, Note_off_c, 0, 61, 64
2, 134815, Note_off_c, 0, 45, 64
2, 134880, Note_on_c, 0, 45, 89
2, 134880, Note_on_c, 0, 54, 93
2, 134880, Note_on_c, 0, 62, 76
2, 134880, Note_on_c, 0, 66, 93
2, 134880, Note_on_c, 0, 57, 80
2, 134885, Note_off_c, 0, 52, 64
2, 134965, Note_off_c, 0, 54, 64
2, 134970, Note_off_c, 0, 45, 64
2, 135000, Note_off_c, 0, 66, 64
2, 135000, Note_off_c, 0, 57, 64
2, 135005, Note_off_c, 0, 62, 64
2, 135200, Note_on_c, 0, 54, 102
2, 135200, Note_on_c, 0, 62, 72
2, 135200, Note_on_c, 0, 66, 76
2, 135200, Note_on_c, 0, 45, 102
2, 135200, Note_on_c, 0, 57, 64
2, 135275, Note_off_c, 0, 45, 64
2, 135295, Note_off_c, 0, 57, 64
2, 135305, Note_off_c, 0, 66, 64
2, 135325, Note_off_c, 0, 62, 64
2, 135340, Note_off_c, 0, 54, 64
2, 135360, Note_on_c, 0, 52, 93
2, 135360, Note_on_c, 0, 45, 93
2, 135360, Note_on_c, 0, 55, 68
2, 135360, Note_on_c, 0, 64, 80
2, 135360, Note_on_c, 0, 61, 80
2, 135435, Note_off_c, 0, 55, 64
2, 135465, Note_off_c, 0, 45, 64
2, 135470, Note_off_c, 0, 52, 64
2, 135475, Note_off_c, 0, 61, 64
2, 135500, Note_off_c, 0, 64, 64
2, 135680, Note_on_c, 0, 45, 98
2, 135680, Note_on_c, 0, 52, 93
2, 135680, Note_on_c, 0, 55, 50
2, 135680, Note_on_c, 0, 64, 51
2, 135680, Note_on_c, 0, 61, 57
2, 135765, Note_off_c, 0, 55, 64
2, 135765, Note_off_c, 0, 45, 64
2, 135790, Note_off_c, 0, 64, 64
2, 135805, Note_off_c, 0, 52, 64
2, 135805, Note_off_c, 0, 61, 64
2, 135840, Note_on_c, 0, 45, 98
2, 135840, Note_on_c, 0, 66, 80
2, 135840, Note_on_c, 0, 62, 85
2, 135840, Note_on_c, 0, 54, 93
2, 135840, Note_on_c, 0, 57, 49
2, 135870, Note_off_c, 0, 57, 64
2, 135960, Note_off_c, 0, 62, 64
2, 135970, Note_off_c, 0, 66, 64
2, 135985, Note_off_c, 0, 45, 64
2, 136000, Note_on_c, 0, 55, 98
2, 136160, Note_on_c, 0, 52, 85
2, 136160, Note_on_c, 0, 56, 93
2, 136160, Note_on_c, 0, 45, 85
2, 136180, Note_off_c, 0, 54, 64
2, 136190, Note_off_c, 0, 55, 64
2, 136240, Note_off_c, 0, 52, 64
2, 136260, Note_off_c, 0, 56, 64
2, 136305, Note_off_c, 0, 45, 64
2, 136320, Note_on_c, 0, 40, 89
2, 136320, Note_on_c, 0, 62, 93
2, 136320, Note_on_c, 0, 59, 98
2, 136320, Note_on_c, 0, 64, 93
2, 136320, Note_on_c, 0, 47, 102
2, 136410, Note_off_c, 0, 47, 64
2, 136410, Note_off_c, 0, 59, 64
2, 136425, Note_off_c, 0, 62, 64
2, 136430, Note_off_c, 0, 40, 64
2, 136430, Note_off_c, 0, 64, 64
2, 136640, Note_on_c, 0, 62, 85
2, 136640, Note_on_c, 0, 47, 89
2, 136640, Note_on_c, 0, 40, 89
2, 136640, Note_on_c, 0, 64, 98
2, 136640, Note_on_c, 0, 59, 93
2, 136735, Note_off_c, 0, 40, 64
2, 136745, Note_off_c, 0, 62, 64
2, 136760, Note_off_c, 0, 64, 64
2, 136780, Note_off_c, 0, 59, 64
2, 136800, Note_on_c, 0, 49, 93
2, 136800, Note_on_c, 0, 40, 89
2, 136800, Note_on_c, 0, 64, 80
2, 136800, Note_on_c, 0, 57, 89
2, 136800, Note_on_c, 0, 61, 85
2, 136815, Note_off_c, 0, 47, 64
2, 136885, Note_off_c, 0, 40, 64
2, 136895, Note_off_c, 0, 49, 64
2, 136900, Note_off_c, 0, 64, 64
2, 136900, Note_off_c, 0, 61, 64
2, 136905, Note_off_c, 0, 57, 64
2, 137120, Note_on_c, 0, 64, 89
2, 137120, Note_on_c, 0, 57, 89
2, 137120, Note_on_c, 0, 40, 85
2, 137120, Note_on_c, 0, 49, 107
2, 137120, Note_on_c, 0, 61, 93
2, 137200, Note_off_c, 0, 40, 64
2, 137230, Note_off_c, 0, 61, 64
2, 137245, Note_off_c, 0, 64, 64
2, 137250, Note_off_c, 0, 57, 64
2, 137255, Note_off_c, 0, 49, 64
2, 137280, Note_on_c, 0, 64, 60
2, 137280, Note_on_c, 0, 62, 80
2, 137280, Note_on_c, 0, 40, 85
2, 137280, Note_on_c, 0, 47, 98
2, 137280, Note_on_c, 0, 59, 76
2, 137385, Note_off_c, 0, 64, 64
2, 137390, Note_off_c, 0, 47, 64
2, 137390, Note_off_c, 0, 59, 64
2, 137395, Note_off_c, 0, 62, 64
2, 137395, Note_off_c, 0, 40, 64
2, 137600, Note_on_c, 0, 40, 89
2, 137600, Note_on_c, 0, 59, 93
2, 137600, Note_on_c, 0, 64, 93
2, 137600, Note_on_c, 0, 47, 98
2, 137600, Note_on_c, 0, 62, 89
2, 137680, Note_off_c, 0, 40, 64
2, 137725, Note_off_c, 0, 62, 64
2, 137735, Note_off_c, 0, 59, 64
2, 137745, Note_off_c, 0, 47, 64
2, 137760, Note_on_c, 0, 61, 98
2, 137760, Note_on_c, 0, 49, 89
2, 137760, Note_on_c, 0, 40, 80
2, 137900, Note_off_c, 0, 40, 64
2, 138045, Note_off_c, 0, 61, 64
2, 138080, Note_on_c, 0, 40, 76
2, 138080, Note_on_c, 0, 59, 59
2, 138080, Note_on_c, 0, 47, 93
2, 138085, Note_off_c, 0, 49, 64
2, 138190, Note_off_c, 0, 59, 64
2, 138200, Note_off_c, 0, 64, 64
2, 138205, Note_off_c, 0, 47, 64
2, 138225, Note_off_c, 0, 40, 64
2, 138240, Note_on_c, 0, 64, 107
2, 138240, Note_on_c, 0, 45, 102
2, 138240, Note_on_c, 0, 61, 107
2, 138240, Note_on_c, 0, 57, 93
2, 138450, Note_off_c, 0, 57, 64
2, 138560, Note_on_c, 0, 57, 85
2, 138640, Note_off_c, 0, 57, 64
2, 138675, Note_off_c, 0, 45, 64
2, 138720, Note_on_c, 0, 55, 107
2, 138720, Note_on_c, 0, 43, 89
2, 138900, Note_off_c, 0, 64, 64
2, 138915, Note_off_c, 0, 61, 64
2, 139040, Note_on_c, 0, 61, 107
2, 139040, Note_on_c, 0, 64, 102
2, 139080, Note_off_c, 0, 55, 64
2, 139135, Note_off_c, 0, 64, 64
2, 139170, Note_off_c, 0, 43, 64
2, 139185, Note_off_c, 0, 61, 64
2, 139200, Note_on_c, 0, 42, 85
2, 139200, Note_on_c, 0, 54, 72
2, 139520, Note_on_c, 0, 57, 80
2, 139520, Note_on_c, 0, 62, 93
2, 139630, Note_off_c, 0, 54, 64
2, 139660, Note_off_c, 0, 42, 64
2, 139680, Note_on_c, 0, 41, 89
2, 139680, Note_on_c, 0, 53, 89
2, 139890, Note_off_c, 0, 57, 64
2, 140000, Note_on_c, 0, 57, 76
2, 140055, Note_off_c, 0, 53, 64
2, 140110, Note_off_c, 0, 41, 64
2, 140120, Note_off_c, 0, 62, 64
2, 140160, Note_on_c, 0, 52, 76
2, 140160, Note_on_c, 0, 61, 107
2, 140160, Note_on_c, 0, 40, 93
2, 140415, Note_off_c, 0, 52, 64
2, 140640, Note_on_c, 0, 52, 62
2, 140710, Note_off_c, 0, 61, 64
2, 140725, Note_off_c, 0, 57, 64
2, 140800, Note_off_c, 0, 40, 64
2, 140960, Note_off_c, 0, 52, 64
2, 140960, Note_on_c, 0, 64, 98
2, 140960, Note_on_c, 0, 52, 113
2, 140960, Note_on_c, 0, 40, 102
2, 140960, Note_on_c, 0, 62, 98
2, 141600, Note_off_c, 0, 52, 64
2, 141600, Note_on_c, 0, 52, 98
2, 141650, Note_off_c, 0, 64, 64
2, 141690, Note_off_c, 0, 62, 64
2, 141760, Note_on_c, 0, 54, 102
2, 141870, Note_off_c, 0, 54, 64
2, 141920, Note_on_c, 0, 57, 93
2, 141935, Note_off_c, 0, 52, 64
2, 142015, Note_off_c, 0, 40, 64
2, 142015, Note_off_c, 0, 57, 64
2, 142080, Note_on_c, 0, 64, 93
2, 142080, Note_on_c, 0, 55, 93
2, 142080, Note_on_c, 0, 61, 93
2, 142080, Note_on_c, 0, 52, 102
2, 142080, Note_on_c, 0, 45, 107
2, 142175, Note_off_c, 0, 55, 64
2, 142175, Note_off_c, 0, 64, 64
2, 142185, Note_off_c, 0, 61, 64
2, 142185, Note_off_c, 0, 52, 64
2, 142190, Note_off_c, 0, 45, 64
2, 142400, Note_on_c, 0, 45, 98
2, 142400, Note_on_c, 0, 52, 93
2, 142400, Note_on_c, 0, 61, 76
2, 142400, Note_on_c, 0, 55, 89
2, 142400, Note_on_c, 0, 64, 85
2, 142490, Note_off_c, 0, 55, 64
2, 142495, Note_off_c, 0, 45, 64
2, 142505, Note_off_c, 0, 64, 64
2, 142540, Note_off_c, 0, 61, 64
2, 142560, Note_on_c, 0, 57, 85
2, 142560, Note_on_c, 0, 62, 89
2, 142560, Note_on_c, 0, 66, 102
2, 142560, Note_on_c, 0, 45, 85
2, 142560, Note_on_c, 0, 54, 93
2, 142570, Note_off_c, 0, 52, 64
2, 142650, Note_off_c, 0, 66, 64
2, 142655, Note_off_c, 0, 57, 64
2, 142655, Note_off_c, 0, 54, 64
2, 142660, Note_off_c, 0, 45, 64
2, 142665, Note_off_c, 0, 62, 64
2, 142880, Note_on_c, 0, 54, 98
2, 142880, Note_on_c, 0, 45, 98
2, 142880, Note_on_c, 0, 57, 60
2, 142880, Note_on_c, 0, 66, 89
2, 142880, Note_on_c, 0, 62, 89
2, 142965, Note_off_c, 0, 45, 64
2, 142985, Note_off_c, 0, 57, 64
2, 142990, Note_off_c, 0, 66, 64
2, 143000, Note_off_c, 0, 62, 64
2, 143035, Note_off_c, 0, 54, 64
2, 143040, Note_on_c, 0, 64, 68
2, 143040, Note_on_c, 0, 52, 98
2, 143040, Note_on_c, 0, 55, 80
2, 143040, Note_on_c, 0, 61, 72
2, 143040, Note_on_c, 0, 45, 80
2, 143135, Note_off_c, 0, 55, 64
2, 143155, Note_off_c, 0, 52, 64
2, 143155, Note_off_c, 0, 45, 64
2, 143165, Note_off_c, 0, 61, 64
2, 143175, Note_off_c, 0, 64, 64
2, 143360, Note_on_c, 0, 64, 45
2, 143360, Note_on_c, 0, 55, 62
2, 143360, Note_on_c, 0, 61, 64
2, 143360, Note_on_c, 0, 45, 89
2, 143360, Note_on_c, 0, 52, 89
2, 143440, Note_off_c, 0, 45, 64
2, 143450, Note_off_c, 0, 55, 64
2, 143470, Note_off_c, 0, 64, 64
2, 143475, Note_off_c, 0, 52, 64
2, 143495, Note_off_c, 0, 61, 64
2, 143520, Note_on_c, 0, 45, 102
2, 143520, Note_on_c, 0, 66, 89
2, 143520, Note_on_c, 0, 62, 85
2, 143520, Note_on_c, 0, 54, 107
2, 143670, Note_off_c, 0, 66, 64
2, 143680, Note_off_c, 0, 62, 64
2, 143680, Note_on_c, 0, 55, 102
2, 143720, Note_off_c, 0, 45, 64
2, 143840, Note_on_c, 0, 45, 93
2, 143840, Note_on_c, 0, 56, 98
2, 143840, Note_on_c, 0, 52, 89
2, 143845, Note_off_c, 0, 54, 64
2, 143860, Note_off_c, 0, 55, 64
2, 143920, Note_off_c, 0, 52, 64
2, 143945, Note_off_c, 0, 56, 64
2, 144000, Note_on_c, 0, 64, 89
2, 144000, Note_on_c, 0, 47, 107
2, 144000, Note_on_c, 0, 40, 93
2, 144000, Note_on_c, 0, 62, 93
2, 144000, Note_on_c, 0, 59, 98
2, 144005, Note_off_c, 0, 45, 64
2, 144085, Note_off_c, 0, 47, 64
2, 144095, Note_off_c, 0, 62, 64
2, 144105, Note_off_c, 0, 59, 64
2, 144110, Note_off_c, 0, 64, 64
2, 144120, Note_off_c, 0, 40, 64
2, 144320, Note_on_c, 0, 47, 98
2, 144320, Note_on_c, 0, 64, 102
2, 144320, Note_on_c, 0, 40, 89
2, 144320, Note_on_c, 0, 62, 93
2, 144320, Note_on_c, 0, 59, 102
2, 144415, Note_off_c, 0, 40, 64
2, 144440, Note_off_c, 0, 62, 64
2, 144470, Note_off_c, 0, 59, 64
2, 144475, Note_off_c, 0, 47, 64
2, 144480, Note_on_c, 0, 57, 80
2, 144480, Note_on_c, 0, 49, 93
2, 144480, Note_on_c, 0, 61, 76
2, 144480, Note_on_c, 0, 40, 85
2, 144555, Note_off_c, 0, 57, 64
2, 144560, Note_off_c, 0, 61, 64
2, 144580, Note_off_c, 0, 64, 64
2, 144580, Note_off_c, 0, 49, 64
2, 144580, Note_off_c, 0, 40, 64
2, 144800, Note_on_c, 0, 40, 93
2, 144800, Note_on_c, 0, 57, 93
2, 144800, Note_on_c, 0, 49, 98
2, 144800, Note_on_c, 0, 61, 93
2, 144800, Note_on_c, 0, 64, 93
2, 144885, Note_off_c, 0, 40, 64
2, 144910, Note_off_c, 0, 61, 64
2, 144915, Note_off_c, 0, 57, 64
2, 144915, Note_off_c, 0, 64, 64
2, 144945, Note_off_c, 0, 49, 64
2, 144960, Note_on_c, 0, 47, 89
2, 144960, Note_on_c, 0, 40, 89
2, 144960, Note_on_c, 0, 59, 80
2, 144960, Note_on_c, 0, 62, 80
2, 144960, Note_on_c, 0, 64, 62
2, 145045, Note_off_c, 0, 64, 64
2, 145055, Note_off_c, 0, 62, 64
2, 145055, Note_off_c, 0, 59, 64
2, 145065, Note_off_c, 0, 47, 64
2, 145070, Note_off_c, 0, 40, 64
2, 145280, Note_on_c, 0, 59, 102
2, 145280, Note_on_c, 0, 62, 93
2, 145280, Note_on_c, 0, 64, 102
2, 145280, Note_on_c, 0, 47, 93
2, 145280, Note_on_c, 0, 40, 89
2, 145360, Note_off_c, 0, 40, 64
2, 145395, Note_off_c, 0, 64, 64
2, 145395, Note_off_c, 0, 62, 64
2, 145405, Note_off_c, 0, 59, 64
2, 145405, Note_off_c, 0, 47, 64
2, 145440, Note_on_c, 0, 64, 85
2, 145440, Note_on_c, 0, 61, 98
2, 145440, Note_on_c, 0, 49, 93
2, 145440, Note_on_c, 0, 40, 98
2, 145565, Note_off_c, 0, 61, 64
2, 145575, Note_off_c, 0, 64, 64
2, 145600, Note_on_c, 0, 53, 93
2, 145620, Note_off_c, 0, 40, 64
2, 145760, Note_off_c, 0, 49, 64
2, 145760, Note_on_c, 0, 40, 85
2, 145760, Note_on_c, 0, 47, 80
2, 145760, Note_on_c, 0, 54, 93
2, 145780, Note_off_c, 0, 53, 64
2, 145845, Note_off_c, 0, 40, 64
2, 145860, Note_off_c, 0, 47, 64
2, 145875, Note_off_c, 0, 54, 64
2, 145920, Note_on_c, 0, 62, 89
2, 145920, Note_on_c, 0, 38, 89
2, 145920, Note_on_c, 0, 60, 93
2, 145920, Note_on_c, 0, 45, 98
2, 145920, Note_on_c, 0, 57, 102
2, 146025, Note_off_c, 0, 38, 64
2, 146030, Note_off_c, 0, 60, 64
2, 146030, Note_off_c, 0, 45, 64
2, 146035, Note_off_c, 0, 62, 64
2, 146040, Note_off_c, 0, 57, 64
2, 146240, Note_on_c, 0, 60, 89
2, 146240, Note_on_c, 0, 62, 98
2, 146240, Note_on_c, 0, 45, 93
2, 146240, Note_on_c, 0, 38, 72
2, 146240, Note_on_c, 0, 57, 102
2, 146345, Note_off_c, 0, 38, 64
2, 146355, Note_off_c, 0, 60, 64
2, 146365, Note_off_c, 0, 62, 64
2, 146385, Note_off_c, 0, 45, 64
2, 146390, Note_off_c, 0, 57, 64
2, 146400, Note_on_c, 0, 47, 93
2, 146400, Note_on_c, 0, 62, 64
2, 146400, Note_on_c, 0, 38, 80
2, 146400, Note_on_c, 0, 59, 85
2, 146400, Note_on_c, 0, 55, 80
2, 146485, Note_off_c, 0, 59, 64
2, 146490, Note_off_c, 0, 62, 64
2, 146500, Note_off_c, 0, 55, 64
2, 146505, Note_off_c, 0, 38, 64
2, 146515, Note_off_c, 0, 47, 64
2, 146720, Note_on_c, 0, 47, 93
2, 146720, Note_on_c, 0, 59, 98
2, 146720, Note_on_c, 0, 55, 93
2, 146720, Note_on_c, 0, 38, 89
2, 146720, Note_on_c, 0, 62, 98
2, 146800, Note_off_c, 0, 38, 64
2, 146820, Note_off_c, 0, 59, 64
2, 146830, Note_off_c, 0, 62, 64
2, 146850, Note_off_c, 0, 55, 64
2, 146865, Note_off_c, 0, 47, 64
2, 146880, Note_on_c, 0, 38, 85
2, 146880, Note_on_c, 0, 62, 64
2, 146880, Note_on_c, 0, 57, 68
2, 146880, Note_on_c, 0, 45, 93
2, 146880, Note_on_c, 0, 60, 72
2, 146960, Note_off_c, 0, 62, 64
2, 146975, Note_off_c, 0, 57, 64
2, 146980, Note_off_c, 0, 60, 64
2, 147005, Note_off_c, 0, 38, 64
2, 147010, Note_off_c, 0, 45, 64
2, 147200, Note_on_c, 0, 38, 89
2, 147200, Note_on_c, 0, 45, 85
2, 147200, Note_on_c, 0, 60, 85
2, 147200, Note_on_c, 0, 62, 107
2, 147200, Note_on_c, 0, 57, 98
2, 147290, Note_off_c, 0, 38, 64
2, 147295, Note_off_c, 0, 60, 64
2, 147305, Note_off_c, 0, 62, 64
2, 147315, Note_off_c, 0, 57, 64
2, 147320, Note_off_c, 0, 45, 64
2, 147360, Note_on_c, 0, 47, 98
2, 147360, Note_on_c, 0, 38, 93
2, 147360, Note_on_c, 0, 62, 93
2, 147360, Note_on_c, 0, 59, 98
2, 147480, Note_off_c, 0, 59, 64
2, 147520, Note_on_c, 0, 53, 76
2, 147565, Note_off_c, 0, 38, 64
2, 147655, Note_off_c, 0, 47, 64
2, 147680, Note_on_c, 0, 45, 89
2, 147680, Note_on_c, 0, 38, 93
2, 147680, Note_on_c, 0, 54, 93
2, 147700, Note_off_c, 0, 53, 64
2, 147745, Note_off_c, 0, 62, 64
2, 147765, Note_off_c, 0, 38, 64
2, 147795, Note_off_c, 0, 45, 64
2, 147795, Note_off_c, 0, 54, 64
2, 147840, Note_on_c, 0, 45, 93
2, 147840, Note_on_c, 0, 38, 85
2, 147840, Note_on_c, 0, 60, 89
2, 147840, Note_on_c, 0, 62, 89
2, 147840, Note_on_c, 0, 57, 102
2, 147920, Note_off_c, 0, 60, 64
2, 147930, Note_off_c, 0, 62, 64
2, 147930, Note_off_c, 0, 57, 64
2, 147965, Note_off_c, 0, 45, 64
2, 147990, Note_off_c, 0, 38, 64
2, 148160, Note_on_c, 0, 57, 98
2, 148160, Note_on_c, 0, 60, 93
2, 148160, Note_on_c, 0, 38, 85
2, 148160, Note_on_c, 0, 45, 89
2, 148160, Note_on_c, 0, 62, 107
2, 148250, Note_off_c, 0, 38, 64
2, 148270, Note_off_c, 0, 62, 64
2, 148275, Note_off_c, 0, 60, 64
2, 148300, Note_off_c, 0, 45, 64
2, 148305, Note_off_c, 0, 57, 64
2, 148320, Note_on_c, 0, 47, 98
2, 148320, Note_on_c, 0, 59, 85
2, 148320, Note_on_c, 0, 55, 76
2, 148320, Note_on_c, 0, 38, 89
2, 148320, Note_on_c, 0, 62, 72
2, 148410, Note_off_c, 0, 55, 64
2, 148410, Note_off_c, 0, 59, 64
2, 148415, Note_off_c, 0, 47, 64
2, 148415, Note_off_c, 0, 62, 64
2, 148420, Note_off_c, 0, 38, 64
2, 148640, Note_on_c, 0, 55, 76
2, 148640, Note_on_c, 0, 59, 89
2, 148640, Note_on_c, 0, 62, 93
2, 148640, Note_on_c, 0, 47, 93
2, 148640, Note_on_c, 0, 38, 89
2, 148725, Note_off_c, 0, 38, 64
2, 148745, Note_off_c, 0, 62, 64
2, 148750, Note_off_c, 0, 59, 64
2, 148755, Note_off_c, 0, 55, 64
2, 148775, Note_off_c, 0, 47, 64
2, 148800, Note_on_c, 0, 57, 76
2, 148800, Note_on_c, 0, 60, 80
2, 148800, Note_on_c, 0, 62, 72
2, 148800, Note_on_c, 0, 38, 89
2, 148800, Note_on_c, 0, 45, 89
2, 148900, Note_off_c, 0, 60, 64
2, 148910, Note_off_c, 0, 57, 64
2, 148915, Note_off_c, 0, 62, 64
2, 148915, Note_off_c, 0, 38, 64
2, 148920, Note_off_c, 0, 45, 64
2, 149120, Note_on_c, 0, 60, 80
2, 149120, Note_on_c, 0, 38, 85
2, 149120, Note_on_c, 0, 57, 98
2, 149120, Note_on_c, 0, 45, 80
2, 149120, Note_on_c, 0, 62, 93
2, 149205, Note_off_c, 0, 38, 64
2, 149215, Note_off_c, 0, 60, 64
2, 149230, Note_off_c, 0, 45, 64
2, 149230, Note_off_c, 0, 62, 64
2, 149240, Note_off_c, 0, 57, 64
2, 149280, Note_on_c, 0, 62, 85
2, 149280, Note_on_c, 0, 38, 89
2, 149280, Note_on_c, 0, 59, 93
2, 149280, Note_on_c, 0, 47, 93
2, 149385, Note_off_c, 0, 59, 64
2, 149440, Note_off_c, 0, 38, 64
2, 149440, Note_on_c, 0, 53, 89
2, 149600, Note_off_c, 0, 47, 64
2, 149600, Note_on_c, 0, 45, 89
2, 149600, Note_on_c, 0, 54, 85
2, 149600, Note_on_c, 0, 38, 85
2, 149630, Note_off_c, 0, 53, 64
2, 149660, Note_off_c, 0, 62, 64
2, 149665, Note_off_c, 0, 45, 64
2, 149685, Note_off_c, 0, 54, 64
2, 149745, Note_off_c, 0, 38, 64
2, 149760, Note_on_c, 0, 52, 107
2, 149760, Note_on_c, 0, 64, 89
2, 149760, Note_on_c, 0, 45, 107
2, 149760, Note_on_c, 0, 55, 76
2, 149760, Note_on_c, 0, 61, 93
2, 149850, Note_off_c, 0, 61, 64
2, 149850, Note_off_c, 0, 55, 64
2, 149850, Note_off_c, 0, 64, 64
2, 149870, Note_off_c, 0, 45, 64
2, 149880, Note_off_c, 0, 52, 64
2, 150080, Note_on_c, 0, 61, 68
2, 150080, Note_on_c, 0, 45, 107
2, 150080, Note_on_c, 0, 52, 93
2, 150080, Note_on_c, 0, 55, 76
2, 150080, Note_on_c, 0, 64, 68
2, 150135, Note_off_c, 0, 55, 64
2, 150145, Note_off_c, 0, 64, 64
2, 150155, Note_off_c, 0, 61, 64
2, 150175, Note_off_c, 0, 45, 64
2, 150240, Note_on_c, 0, 66, 93
2, 150240, Note_on_c, 0, 62, 76
2, 150240, Note_on_c, 0, 45, 89
2, 150240, Note_on_c, 0, 57, 80
2, 150240, Note_on_c, 0, 54, 93
2, 150245, Note_off_c, 0, 52, 64
2, 150325, Note_off_c, 0, 54, 64
2, 150330, Note_off_c, 0, 45, 64
2, 150360, Note_off_c, 0, 66, 64
2, 150360, Note_off_c, 0, 57, 64
2, 150365, Note_off_c, 0, 62, 64
2, 150560, Note_on_c, 0, 62, 72
2, 150560, Note_on_c, 0, 57, 64
2, 150560, Note_on_c, 0, 66, 76
2, 150560, Note_on_c, 0, 45, 102
2, 150560, Note_on_c, 0, 54, 102
2, 150635, Note_off_c, 0, 45, 64
2, 150655, Note_off_c, 0, 57, 64
2, 150665, Note_off_c, 0, 66, 64
2, 150685, Note_off_c, 0, 62, 64
2, 150700, Note_off_c, 0, 54, 64
2, 150720, Note_on_c, 0, 52, 93
2, 150720, Note_on_c, 0, 64, 80
2, 150720, Note_on_c, 0, 45, 93
2, 150720, Note_on_c, 0, 55, 68
2, 150720, Note_on_c, 0, 61, 80
2, 150795, Note_off_c, 0, 55, 64
2, 150825, Note_off_c, 0, 45, 64
2, 150830, Note_off_c, 0, 52, 64
2, 150835, Note_off_c, 0, 61, 64
2, 150860, Note_off_c, 0, 64, 64
2, 151040, Note_on_c, 0, 45, 98
2, 151040, Note_on_c, 0, 64, 51
2, 151040, Note_on_c, 0, 52, 93
2, 151040, Note_on_c, 0, 55, 50
2, 151040, Note_on_c, 0, 61, 57
2, 151125, Note_off_c, 0, 55, 64
2, 151125, Note_off_c, 0, 45, 64
2, 151150, Note_off_c, 0, 64, 64
2, 151165, Note_off_c, 0, 52, 64
2, 151165, Note_off_c, 0, 61, 64
2, 151200, Note_on_c, 0, 62, 85
2, 151200, Note_on_c, 0, 45, 98
2, 151200, Note_on_c, 0, 57, 49
2, 151200, Note_on_c, 0, 66, 80
2, 151200, Note_on_c, 0, 54, 93
2, 151230, Note_off_c, 0, 57, 64
2, 151320, Note_off_c, 0, 62, 64
2, 151330, Note_off_c, 0, 66, 64
2, 151345, Note_off_c, 0, 45, 64
2, 151360, Note_on_c, 0, 55, 98
2, 151520, Note_on_c, 0, 56, 93
2, 151520, Note_on_c, 0, 45, 85
2, 151520, Note_on_c, 0, 52, 85
2, 151540, Note_off_c, 0, 54, 64
2, 151550, Note_off_c, 0, 55, 64
2, 151600, Note_off_c, 0, 52, 64
2, 151620, Note_off_c, 0, 56, 64
2, 151665, Note_off_c, 0, 45, 64
2, 151680, Note_on_c, 0, 64, 93
2, 151680, Note_on_c, 0, 62, 93
2, 151680, Note_on_c, 0, 59, 98
2, 151680, Note_on_c, 0, 47, 102
2, 151680, Note_on_c, 0, 40, 89
2, 151770, Note_off_c, 0, 47, 64
2, 151770, Note_off_c, 0, 59, 64
2, 151785, Note_off_c, 0, 62, 64
2, 151790, Note_off_c, 0, 64, 64
2, 151790, Note_off_c, 0, 40, 64
2, 152000, Note_on_c, 0, 64, 98
2, 152000, Note_on_c, 0, 40, 89
2, 152000, Note_on_c, 0, 59, 93
2, 152000, Note_on_c, 0, 62, 85
2, 152000, Note_on_c, 0, 47, 89
2, 152095, Note_off_c, 0, 40, 64
2, 152105, Note_off_c, 0, 62, 64
2, 152120, Note_off_c, 0, 64, 64
2, 152140, Note_off_c, 0, 59, 64
2, 152160, Note_on_c, 0, 49, 93
2, 152160, Note_on_c, 0, 40, 89
2, 152160, Note_on_c, 0, 64, 80
2, 152160, Note_on_c, 0, 57, 89
2, 152160, Note_on_c, 0, 61, 85
2, 152175, Note_off_c, 0, 47, 64
2, 152245, Note_off_c, 0, 40, 64
2, 152255, Note_off_c, 0, 49, 64
2, 152260, Note_off_c, 0, 64, 64
2, 152260, Note_off_c, 0, 61, 64
2, 152265, Note_off_c, 0, 57, 64
2, 152480, Note_on_c, 0, 64, 89
2, 152480, Note_on_c, 0, 57, 89
2, 152480, Note_on_c, 0, 61, 93
2, 152480, Note_on_c, 0, 49, 107
2, 152480, Note_on_c, 0, 40, 85
2, 152560, Note_off_c, 0, 40, 64
2, 152590, Note_off_c, 0, 61, 64
2, 152605, Note_off_c, 0, 64, 64
2, 152610, Note_off_c, 0, 57, 64
2, 152615, Note_off_c, 0, 49, 64
2, 152640, Note_on_c, 0, 47, 98
2, 152640, Note_on_c, 0, 62, 80
2, 152640, Note_on_c, 0, 40, 85
2, 152640, Note_on_c, 0, 59, 76
2, 152640, Note_on_c, 0, 64, 60
2, 152745, Note_off_c, 0, 64, 64
2, 152750, Note_off_c, 0, 59, 64
2, 152750, Note_off_c, 0, 47, 64
2, 152755, Note_off_c, 0, 62, 64
2, 152755, Note_off_c, 0, 40, 64
2, 152960, Note_on_c, 0, 40, 89
2, 152960, Note_on_c, 0, 47, 98
2, 152960, Note_on_c, 0, 62, 89
2, 152960, Note_on_c, 0, 64, 93
2, 152960, Note_on_c, 0, 59, 93
2, 153040, Note_off_c, 0, 40, 64
2, 153085, Note_off_c, 0, 62, 64
2, 153095, Note_off_c, 0, 59, 64
2, 153105, Note_off_c, 0, 47, 64
2, 153120, Note_on_c, 0, 49, 89
2, 153120, Note_on_c, 0, 40, 80
2, 153120, Note_on_c, 0, 61, 98
2, 153260, Note_off_c, 0, 40, 64
2, 153405, Note_off_c, 0, 61, 64
2, 153440, Note_on_c, 0, 59, 59
2, 153440, Note_on_c, 0, 40, 76
2, 153440, Note_on_c, 0, 47, 93
2, 153445, Note_off_c, 0, 49, 64
2, 153550, Note_off_c, 0, 59, 64
2, 153560, Note_off_c, 0, 64, 64
2, 153565, Note_off_c, 0, 47, 64
2, 153585, Note_off_c, 0, 40, 64
2, 153600, Note_on_c, 0, 64, 107
2, 153600, Note_on_c, 0, 57, 93
2, 153600, Note_on_c, 0, 61, 107
2, 153600, Note_on_c, 0, 45, 102
2, 153810, Note_off_c, 0, 57, 64
2, 153920, Note_on_c, 0, 57, 85
2, 154000, Note_off_c, 0, 57, 64
2, 154035, Note_off_c, 0, 45, 64
2, 154080, Note_on_c, 0, 55, 107
2, 154080, Note_on_c, 0, 43, 89
2, 154260, Note_off_c, 0, 64, 64
2, 154275, Note_off_c, 0, 61, 64
2, 154400, Note_on_c, 0, 64, 102
2, 154400, Note_on_c, 0, 61, 107
2, 154440, Note_off_c, 0, 55, 64
2, 154495, Note_off_c, 0, 64, 64
2, 154530, Note_off_c, 0, 43, 64
2, 154545, Note_off_c, 0, 61, 64
2, 154560, Note_on_c, 0, 42, 85
2, 154560, Note_on_c, 0, 54, 72
2, 154880, Note_on_c, 0, 57, 80
2, 154880, Note_on_c, 0, 62, 93
2, 154990, Note_off_c, 0, 54, 64
2, 155020, Note_off_c, 0, 42, 64
2, 155040, Note_on_c, 0, 53, 89
2, 155040, Note_on_c, 0, 41, 89
2, 155250, Note_off_c, 0, 57, 64
2, 155360, Note_on_c, 0, 57, 76
2, 155415, Note_off_c, 0, 53, 64
2, 155470, Note_off_c, 0, 41, 64
2, 155480, Note_off_c, 0, 62, 64
2, 155520, Note_on_c, 0, 52, 76
2, 155520, Note_on_c, 0, 61, 107
2, 155520, Note_on_c, 0, 40, 93
2, 155775, Note_off_c, 0, 52, 64
2, 156000, Note_on_c, 0, 52, 62
2, 156070, Note_off_c, 0, 61, 64
2, 156085, Note_off_c, 0, 57, 64
2, 156160, Note_off_c, 0, 40, 64
2, 156320, Note_off_c, 0, 52, 64
2, 156320, Note_on_c, 0, 64, 98
2, 156320, Note_on_c, 0, 62, 98
2, 156320, Note_on_c, 0, 52, 113
2, 156320, Note_on_c, 0, 40, 102
2, 156960, Note_off_c, 0, 52, 64
2, 156960, Note_on_c, 0, 52, 98
2, 157010, Note_off_c, 0, 64, 64
2, 157050, Note_off_c, 0, 62, 64
2, 157120, Note_on_c, 0, 54, 102
2, 157230, Note_off_c, 0, 54, 64
2, 157280, Note_on_c, 0, 57, 93
2, 157295, Note_off_c, 0, 52, 64
2, 157375, Note_off_c, 0, 40, 64
2, 157375, Note_off_c, 0, 57, 64
2, 157440, Note_on_c, 0, 55, 93
2, 157440, Note_on_c, 0, 45, 107
2, 157440, Note_on_c, 0, 61, 93
2, 157440, Note_on_c, 0, 52, 102
2, 157440, Note_on_c, 0, 64, 93
2, 157535, Note_off_c, 0, 64, 64
2, 157535, Note_off_c, 0, 55, 64
2, 157545, Note_off_c, 0, 61, 64
2, 157545, Note_off_c, 0, 52, 64
2, 157550, Note_off_c, 0, 45, 64
2, 157760, Note_on_c, 0, 55, 89
2, 157760, Note_on_c, 0, 45, 98
2, 157760, Note_on_c, 0, 61, 76
2, 157760, Note_on_c, 0, 64, 85
2, 157760, Note_on_c, 0, 52, 93
2, 157850, Note_off_c, 0, 55, 64
2, 157855, Note_off_c, 0, 45, 64
2, 157865, Note_off_c, 0, 64, 64
2, 157900, Note_off_c, 0, 61, 64
2, 157920, Note_on_c, 0, 57, 85
2, 157920, Note_on_c, 0, 54, 93
2, 157920, Note_on_c, 0, 66, 102
2, 157920, Note_on_c, 0, 45, 85
2, 157920, Note_on_c, 0, 62, 89
2, 157930, Note_off_c, 0, 52, 64
2, 158010, Note_off_c, 0, 66, 64
2, 158015, Note_off_c, 0, 57, 64
2, 158015, Note_off_c, 0, 54, 64
2, 158020, Note_off_c, 0, 45, 64
2, 158025, Note_off_c, 0, 62, 64
2, 158240, Note_on_c, 0, 66, 89
2, 158240, Note_on_c, 0, 45, 98
2, 158240, Note_on_c, 0, 54, 98
2, 158240, Note_on_c, 0, 62, 89
2, 158240, Note_on_c, 0, 57, 60
2, 158325, Note_off_c, 0, 45, 64
2, 158345, Note_off_c, 0, 57, 64
2, 158350, Note_off_c, 0, 66, 64
2, 158360, Note_off_c, 0, 62, 64
2, 158395, Note_off_c, 0, 54, 64
2, 158400, Note_on_c, 0, 64, 68
2, 158400, Note_on_c, 0, 52, 98
2, 158400, Note_on_c, 0, 55, 80
2, 158400, Note_on_c, 0, 45, 80
2, 158400, Note_on_c, 0, 61, 72
2, 158495, Note_off_c, 0, 55, 64
2, 158515, Note_off_c, 0, 52, 64
2, 158515, Note_off_c, 0, 45, 64
2, 158525, Note_off_c, 0, 61, 64
2, 158535, Note_off_c, 0, 64, 64
2, 158720, Note_on_c, 0, 55, 62
2, 158720, Note_on_c, 0, 61, 64
2, 158720, Note_on_c, 0, 45, 89
2, 158720, Note_on_c, 0, 52, 89
2, 158720, Note_on_c, 0, 64, 45
2, 158800, Note_off_c, 0, 45, 64
2, 158810, Note_off_c, 0, 55, 64
2, 158830, Note_off_c, 0, 64, 64
2, 158835, Note_off_c, 0, 52, 64
2, 158855, Note_off_c, 0, 61, 64
2, 158880, Note_on_c, 0, 45, 102
2, 158880, Note_on_c, 0, 62, 85
2, 158880, Note_on_c, 0, 66, 89
2, 158880, Note_on_c, 0, 54, 107
2, 159030, Note_off_c, 0, 66, 64
2, 159040, Note_off_c, 0, 62, 64
2, 159040, Note_on_c, 0, 55, 102
2, 159080, Note_off_c, 0, 45, 64
2, 159200, Note_on_c, 0, 52, 89
2, 159200, Note_on_c, 0, 56, 98
2, 159200, Note_on_c, 0, 45, 93
2, 159205, Note_off_c, 0, 54, 64
2, 159220, Note_off_c, 0, 55, 64
2, 159280, Note_off_c, 0, 52, 64
2, 159305, Note_off_c, 0, 56, 64
2, 159360, Note_on_c, 0, 59, 98
2, 159360, Note_on_c, 0, 40, 93
2, 159360, Note_on_c, 0, 64, 89
2, 159360, Note_on_c, 0, 62, 93
2, 159360, Note_on_c, 0, 47, 107
2, 159365, Note_off_c, 0, 45, 64
2, 159445, Note_off_c, 0, 47, 64
2, 159455, Note_off_c, 0, 62, 64
2, 159465, Note_off_c, 0, 59, 64
2, 159470, Note_off_c, 0, 64, 64
2, 159480, Note_off_c, 0, 40, 64
2, 159680, Note_on_c, 0, 47, 98
2, 159680, Note_on_c, 0, 62, 93
2, 159680, Note_on_c, 0, 64, 102
2, 159680, Note_on_c, 0, 40, 89
2, 159680, Note_on_c, 0, 59, 102
2, 159775, Note_off_c, 0, 40, 64
2, 159800, Note_off_c, 0, 62, 64
2, 159830, Note_off_c, 0, 59, 64
2, 159835, Note_off_c, 0, 47, 64
2, 159840, Note_on_c, 0, 61, 76
2, 159840, Note_on_c, 0, 49, 93
2, 159840, Note_on_c, 0, 57, 80
2, 159840, Note_on_c, 0, 40, 85
2, 159915, Note_off_c, 0, 57, 64
2, 159920, Note_off_c, 0, 61, 64
2, 159940, Note_off_c, 0, 64, 64
2, 159940, Note_off_c, 0, 49, 64
2, 159940, Note_off_c, 0, 40, 64
2, 160160, Note_on_c, 0, 49, 98
2, 160160, Note_on_c, 0, 61, 93
2, 160160, Note_on_c, 0, 40, 93
2, 160160, Note_on_c, 0, 57, 93
2, 160160, Note_on_c, 0, 64, 93
2, 160245, Note_off_c, 0, 40, 64
2, 160270, Note_off_c, 0, 61, 64
2, 160275, Note_off_c, 0, 57, 64
2, 160275, Note_off_c, 0, 64, 64
2, 160305, Note_off_c, 0, 49, 64
2, 160320, Note_on_c, 0, 64, 62
2, 160320, Note_on_c, 0, 59, 80
2, 160320, Note_on_c, 0, 47, 89
2, 160320, Note_on_c, 0, 40, 89
2, 160320, Note_on_c, 0, 62, 80
2, 160405, Note_off_c, 0, 64, 64
2, 160415, Note_off_c, 0, 59, 64
2, 160415, Note_off_c, 0, 62, 64
2, 160425, Note_off_c, 0, 47, 64
2, 160430, Note_off_c, 0, 40, 64
2, 160640, Note_on_c, 0, 64, 102
2, 160640, Note_on_c, 0, 62, 93
2, 160640, Note_on_c, 0, 47, 93
2, 160640, Note_on_c, 0, 40, 89
2, 160640, Note_on_c, 0, 59, 102
2, 160720, Note_off_c, 0, 40, 64
2, 160755, Note_off_c, 0, 62, 64
2, 160755, Note_off_c, 0, 64, 64
2, 160765, Note_off_c, 0, 47, 64
2, 160765, Note_off_c, 0, 59, 64
2, 160800, Note_on_c, 0, 61, 98
2, 160800, Note_on_c, 0, 40, 98
2, 160800, Note_on_c, 0, 49, 93
2, 160800, Note_on_c, 0, 64, 85
2, 160925, Note_off_c, 0, 61, 64
2, 160935, Note_off_c, 0, 64, 64
2, 160960, Note_on_c, 0, 53, 93
2, 160980, Note_off_c, 0, 40, 64
2, 161120, Note_off_c, 0, 49, 64
2, 161120, Note_on_c, 0, 47, 80
2, 161120, Note_on_c, 0, 40, 85
2, 161120, Note_on_c, 0, 54, 93
2, 161140, Note_off_c, 0, 53, 64
2, 161205, Note_off_c, 0, 40, 64
2, 161220, Note_off_c, 0, 47, 64
2, 161235, Note_off_c, 0, 54, 64
2, 161280, Note_on_c, 0, 38, 89
2, 161280, Note_on_c, 0, 45, 98
2, 161280, Note_on_c, 0, 60, 93
2, 161280, Note_on_c, 0, 57, 102
2, 161280, Note_on_c, 0, 62, 89
2, 161385, Note_off_c, 0, 38, 64
2, 161390, Note_off_c, 0, 45, 64
2, 161390, Note_off_c, 0, 60, 64
2, 161395, Note_off_c, 0, 62, 64
2, 161400, Note_off_c, 0, 57, 64
2, 161600, Note_on_c, 0, 62, 98
2, 161600, Note_on_c, 0, 57, 102
2, 161600, Note_on_c, 0, 38, 72
2, 161600, Note_on_c, 0, 45, 93
2, 161600, Note_on_c, 0, 60, 89
2, 161705, Note_off_c, 0, 38, 64
2, 161715, Note_off_c, 0, 60, 64
2, 161725, Note_off_c, 0, 62, 64
2, 161745, Note_off_c, 0, 45, 64
2, 161750, Note_off_c, 0, 57, 64
2, 161760, Note_on_c, 0, 38, 80
2, 161760, Note_on_c, 0, 55, 80
2, 161760, Note_on_c, 0, 59, 85
2, 161760, Note_on_c, 0, 47, 93
2, 161760, Note_on_c, 0, 62, 64
2, 161845, Note_off_c, 0, 59, 64
2, 161850, Note_off_c, 0, 62, 64
2, 161860, Note_off_c, 0, 55, 64
2, 161865, Note_off_c, 0, 38, 64
2, 161875, Note_off_c, 0, 47, 64
2, 162080, Note_on_c, 0, 59, 98
2, 162080, Note_on_c, 0, 47, 93
2, 162080, Note_on_c, 0, 55, 93
2, 162080, Note_on_c, 0, 62, 98
2, 162080, Note_on_c, 0, 38, 89
2, 162160, Note_off_c, 0, 38, 64
2, 162180, Note_off_c, 0, 59, 64
2, 162190, Note_off_c, 0, 62, 64
2, 162210, Note_off_c, 0, 55, 64
2, 162225, Note_off_c, 0, 47, 64
2, 162240, Note_on_c, 0, 45, 93
2, 162240, Note_on_c, 0, 57, 68
2, 162240, Note_on_c, 0, 38, 85
2, 162240, Note_on_c, 0, 62, 64
2, 162240, Note_on_c, 0, 60, 72
2, 162320, Note_off_c, 0, 62, 64
2, 162335, Note_off_c, 0, 57, 64
2, 162340, Note_off_c, 0, 60, 64
2, 162365, Note_off_c, 0, 38, 64
2, 162370, Note_off_c, 0, 45, 64
2, 162560, Note_on_c, 0, 60, 85
2, 162560, Note_on_c, 0, 38, 89
2, 162560, Note_on_c, 0, 62, 107
2, 162560, Note_on_c, 0, 45, 85
2, 162560, Note_on_c, 0, 57, 98
2, 162650, Note_off_c, 0, 38, 64
2, 162655, Note_off_c, 0, 60, 64
2, 162665, Note_off_c, 0, 62, 64
2, 162675, Note_off_c, 0, 57, 64
2, 162680, Note_off_c, 0, 45, 64
2, 162720, Note_on_c, 0, 59, 98
2, 162720, Note_on_c, 0, 38, 93
2, 162720, Note_on_c, 0, 47, 98
2, 162720, Note_on_c, 0, 62, 93
2, 162840, Note_off_c, 0, 59, 64
2, 162880, Note_on_c, 0, 53, 76
2, 162925, Note_off_c, 0, 38, 64
2, 163015, Note_off_c, 0, 47, 64
2, 163040, Note_on_c, 0, 38, 93
2, 163040, Note_on_c, 0, 45, 89
2, 163040, Note_on_c, 0, 54, 93
2, 163060, Note_off_c, 0, 53, 64
2, 163105, Note_off_c, 0, 62, 64
2, 163125, Note_off_c, 0, 38, 64
2, 163155, Note_off_c, 0, 45, 64
2, 163155, Note_off_c, 0, 54, 64
2, 163200, Note_on_c, 0, 38, 85
2, 163200, Note_on_c, 0, 60, 89
2, 163200, Note_on_c, 0, 45, 93
2, 163200, Note_on_c, 0, 57, 102
2, 163200, Note_on_c, 0, 62, 89
2, 163280, Note_off_c, 0, 60, 64
2, 163290, Note_off_c, 0, 57, 64
2, 163290, Note_off_c, 0, 62, 64
2, 163325, Note_off_c, 0, 45, 64
2, 163350, Note_off_c, 0, 38, 64
2, 163520, Note_on_c, 0, 62, 107
2, 163520, Note_on_c, 0, 38, 85
2, 163520, Note_on_c, 0, 45, 89
2, 163520, Note_on_c, 0, 60, 93
2, 163520, Note_on_c, 0, 57, 98
2, 163610, Note_off_c, 0, 38, 64
2, 163630, Note_off_c, 0, 62, 64
2, 163635, Note_off_c, 0, 60, 64
2, 163660, Note_off_c, 0, 45, 64
2, 163665, Note_off_c, 0, 57, 64
2, 163680, Note_on_c, 0, 47, 98
2, 163680, Note_on_c, 0, 38, 89
2, 163680, Note_on_c, 0, 55, 76
2, 163680, Note_on_c, 0, 59, 85
2, 163680, Note_on_c, 0, 62, 72
2, 163770, Note_off_c, 0, 59, 64
2, 163770, Note_off_c, 0, 55, 64
2, 163775, Note_off_c, 0, 47, 64
2, 163775, Note_off_c, 0, 62, 64
2, 163780, Note_off_c, 0, 38, 64
2, 164000, Note_on_c, 0, 55, 76
2, 164000, Note_on_c, 0, 47, 93
2, 164000, Note_on_c, 0, 38, 89
2, 164000, Note_on_c, 0, 62, 93
2, 164000, Note_on_c, 0, 59, 89
2, 164085, Note_off_c, 0, 38, 64
2, 164105, Note_off_c, 0, 62, 64
2, 164110, Note_off_c, 0, 59, 64
2, 164115, Note_off_c, 0, 55, 64
2, 164135, Note_off_c, 0, 47, 64
2, 164160, Note_on_c, 0, 57, 76
2, 164160, Note_on_c, 0, 60, 80
2, 164160, Note_on_c, 0, 38, 89
2, 164160, Note_on_c, 0, 62, 72
2, 164160, Note_on_c, 0, 45, 89
2, 164260, Note_off_c, 0, 60, 64
2, 164270, Note_off_c, 0, 57, 64
2, 164275, Note_off_c, 0, 38, 64
2, 164275, Note_off_c, 0, 62, 64
2, 164280, Note_off_c, 0, 45, 64
2, 164480, Note_on_c, 0, 45, 80
2, 164480, Note_on_c, 0, 60, 80
2, 164480, Note_on_c, 0, 38, 85
2, 164480, Note_on_c, 0, 57, 98
2, 164480, Note_on_c, 0, 62, 93
2, 164565, Note_off_c, 0, 38, 64
2, 164575, Note_off_c, 0, 60, 64
2, 164590, Note_off_c, 0, 45, 64
2, 164590, Note_off_c, 0, 62, 64
2, 164600, Note_off_c, 0, 57, 64
2, 164640, Note_on_c, 0, 59, 93
2, 164640, Note_on_c, 0, 47, 93
2, 164640, Note_on_c, 0, 38, 89
2, 164640, Note_on_c, 0, 62, 85
2, 164745, Note_off_c, 0, 59, 64
2, 164800, Note_off_c, 0, 38, 64
2, 164800, Note_on_c, 0, 53, 89
2, 164960, Note_off_c, 0, 47, 64
2, 164960, Note_on_c, 0, 38, 85
2, 164960, Note_on_c, 0, 45, 89
2, 164960, Note_on_c, 0, 54, 85
2, 164990, Note_off_c, 0, 53, 64
2, 165020, Note_off_c, 0, 62, 64
2, 165025, Note_off_c, 0, 45, 64
2, 165045, Note_off_c, 0, 54, 64
2, 165105, Note_off_c, 0, 38, 64
2, 165120, Note_on_c, 0, 55, 76
2, 165120, Note_on_c, 0, 64, 89
2, 165120, Note_on_c, 0, 61, 93
2, 165120, Note_on_c, 0, 52, 107
2, 165120, Note_on_c, 0, 45, 107
2, 165210, Note_off_c, 0, 61, 64
2, 165210, Note_off_c, 0, 64, 64
2, 165210, Note_off_c, 0, 55, 64
2, 165230, Note_off_c, 0, 45, 64
2, 165240, Note_off_c, 0, 52, 64
2, 165440, Note_on_c, 0, 52, 93
2, 165440, Note_on_c, 0, 55, 76
2, 165440, Note_on_c, 0, 45, 107
2, 165440, Note_on_c, 0, 61, 68
2, 165440, Note_on_c, 0, 64, 68
2, 165495, Note_off_c, 0, 55, 64
2, 165505, Note_off_c, 0, 64, 64
2, 165515, Note_off_c, 0, 61, 64
2, 165535, Note_off_c, 0, 45, 64
2, 165600, Note_on_c, 0, 54, 93
2, 165600, Note_on_c, 0, 45, 89
2, 165600, Note_on_c, 0, 57, 80
2, 165600, Note_on_c, 0, 62, 76
2, 165600, Note_on_c, 0, 66, 93
2, 165605, Note_off_c, 0, 52, 64
2, 165685, Note_off_c, 0, 54, 64
2, 165690, Note_off_c, 0, 45, 64
2, 165720, Note_off_c, 0, 57, 64
2, 165720, Note_off_c, 0, 66, 64
2, 165725, Note_off_c, 0, 62, 64
2, 165920, Note_on_c, 0, 45, 102
2, 165920, Note_on_c, 0, 62, 72
2, 165920, Note_on_c, 0, 54, 102
2, 165920, Note_on_c, 0, 57, 64
2, 165920, Note_on_c, 0, 66, 76
2, 165995, Note_off_c, 0, 45, 64
2, 166015, Note_off_c, 0, 57, 64
2, 166025, Note_off_c, 0, 66, 64
2, 166045, Note_off_c, 0, 62, 64
2, 166060, Note_off_c, 0, 54, 64
2, 166080, Note_on_c, 0, 45, 93
2, 166080, Note_on_c, 0, 52, 93
2, 166080, Note_on_c, 0, 55, 68
2, 166080, Note_on_c, 0, 61, 80
2, 166080, Note_on_c, 0, 64, 80
2, 166155, Note_off_c, 0, 55, 64
2, 166185, Note_off_c, 0, 45, 64
2, 166190, Note_off_c, 0, 52, 64
2, 166195, Note_off_c, 0, 61, 64
2, 166220, Note_off_c, 0, 64, 64
2, 166400, Note_on_c, 0, 52, 93
2, 166400, Note_on_c, 0, 55, 50
2, 166400, Note_on_c, 0, 64, 51
2, 166400, Note_on_c, 0, 61, 57
2, 166400, Note_on_c, 0, 45, 98
2, 166485, Note_off_c, 0, 45, 64
2, 166485, Note_off_c, 0, 55, 64
2, 166510, Note_off_c, 0, 64, 64
2, 166525, Note_off_c, 0, 52, 64
2, 166525, Note_off_c, 0, 61, 64
2, 166560, Note_on_c, 0, 45, 98
2, 166560, Note_on_c, 0, 57, 49
2, 166560, Note_on_c, 0, 62, 85
2, 166560, Note_on_c, 0, 66, 80
2, 166560, Note_on_c, 0, 54, 93
2, 166590, Note_off_c, 0, 57, 64
2, 166680, Note_off_c, 0, 62, 64
2, 166690, Note_off_c, 0, 66, 64
2, 166705, Note_off_c, 0, 45, 64
2, 166720, Note_on_c, 0, 55, 98
2, 166880, Note_on_c, 0, 45, 85
2, 166880, Note_on_c, 0, 52, 85
2, 166880, Note_on_c, 0, 56, 93
2, 166900, Note_off_c, 0, 54, 64
2, 166910, Note_off_c, 0, 55, 64
2, 166960, Note_off_c, 0, 52, 64
2, 166980, Note_off_c, 0, 56, 64
2, 167025, Note_off_c, 0, 45, 64
2, 167040, Note_on_c, 0, 59, 98
2, 167040, Note_on_c, 0, 47, 102
2, 167040, Note_on_c, 0, 64, 93
2, 167040, Note_on_c, 0, 62, 93
2, 167040, Note_on_c, 0, 40, 89
2, 167130, Note_off_c, 0, 47, 64
2, 167130, Note_off_c, 0, 59, 64
2, 167145, Note_off_c, 0, 62, 64
2, 167150, Note_off_c, 0, 64, 64
2, 167150, Note_off_c, 0, 40, 64
2, 167360, Note_on_c, 0, 47, 89
2, 167360, Note_on_c, 0, 62, 85
2, 167360, Note_on_c, 0, 40, 89
2, 167360, Note_on_c, 0, 64, 98
2, 167360, Note_on_c, 0, 59, 93
2, 167455, Note_off_c, 0, 40, 64
2, 167465, Note_off_c, 0, 62, 64
2, 167480, Note_off_c, 0, 64, 64
2, 167500, Note_off_c, 0, 59, 64
2, 167520, Note_on_c, 0, 49, 93
2, 167520, Note_on_c, 0, 57, 89
2, 167520, Note_on_c, 0, 40, 89
2, 167520, Note_on_c, 0, 64, 80
2, 167520, Note_on_c, 0, 61, 85
2, 167535, Note_off_c, 0, 47, 64
2, 167605, Note_off_c, 0, 40, 64
2, 167615, Note_off_c, 0, 49, 64
2, 167620, Note_off_c, 0, 64, 64
2, 167620, Note_off_c, 0, 61, 64
2, 167625, Note_off_c, 0, 57, 64
2, 167840, Note_on_c, 0, 49, 107
2, 167840, Note_on_c, 0, 40, 85
2, 167840, Note_on_c, 0, 57, 89
2, 167840, Note_on_c, 0, 61, 93
2, 167840, Note_on_c, 0, 64, 89
2, 167920, Note_off_c, 0, 40, 64
2, 167950, Note_off_c, 0, 61, 64
2, 167965, Note_off_c, 0, 64, 64
2, 167970, Note_off_c, 0, 57, 64
2, 167975, Note_off_c, 0, 49, 64
2, 168000, Note_on_c, 0, 62, 80
2, 168000, Note_on_c, 0, 47, 98
2, 168000, Note_on_c, 0, 59, 76
2, 168000, Note_on_c, 0, 40, 85
2, 168000, Note_on_c, 0, 64, 60
2, 168105, Note_off_c, 0, 64, 64
2, 168110, Note_off_c, 0, 59, 64
2, 168110, Note_off_c, 0, 47, 64
2, 168115, Note_off_c, 0, 62, 64
2, 168115, Note_off_c, 0, 40, 64
2, 168320, Note_on_c, 0, 59, 93
2, 168320, Note_on_c, 0, 40, 89
2, 168320, Note_on_c, 0, 64, 93
2, 168320, Note_on_c, 0, 47, 98
2, 168320, Note_on_c, 0, 62, 89
2, 168400, Note_off_c, 0, 40, 64
2, 168445, Note_off_c, 0, 62, 64
2, 168455, Note_off_c, 0, 59, 64
2, 168465, Note_off_c, 0, 47, 64
2, 168480, Note_on_c, 0, 61, 98
2, 168480, Note_on_c, 0, 49, 89
2, 168480, Note_on_c, 0, 40, 80
2, 168620, Note_off_c, 0, 40, 64
2, 168765, Note_off_c, 0, 61, 64
2, 168800, Note_on_c, 0, 40, 76
2, 168800, Note_on_c, 0, 47, 93
2, 168800, Note_on_c, 0, 59, 59
2, 168805, Note_off_c, 0, 49, 64
2, 168910, Note_off_c, 0, 59, 64
2, 168920, Note_off_c, 0, 64, 64
2, 168925, Note_off_c, 0, 47, 64
2, 168945, Note_off_c, 0, 40, 64
2, 168960, Note_on_c, 0, 64, 93
2, 168960, Note_on_c, 0, 61, 102
2, 168960, Note_on_c, 0, 57, 93
2, 168960, Note_on_c, 0, 45, 93
2, 169365, Note_off_c, 0, 57, 64
2, 169365, Note_off_c, 0, 64, 64
2, 169375, Note_off_c, 0, 61, 64
2, 169395, Note_off_c, 0, 45, 64
2, 169440, Note_on_c, 0, 64, 98
2, 169440, Note_on_c, 0, 55, 98
2, 169440, Note_on_c, 0, 43, 98
2, 169440, Note_on_c, 0, 61, 107
2, 169765, Note_off_c, 0, 64, 64
2, 169815, Note_off_c, 0, 61, 64
2, 169825, Note_off_c, 0, 55, 64
2, 169850, Note_off_c, 0, 43, 64
2, 169920, Note_on_c, 0, 42, 93
2, 169920, Note_on_c, 0, 57, 89
2, 169920, Note_on_c, 0, 62, 93
2, 170280, Note_off_c, 0, 62, 64
2, 170295, Note_off_c, 0, 57, 64
2, 170330, Note_off_c, 0, 42, 64
2, 170400, Note_on_c, 0, 57, 102
2, 170400, Note_on_c, 0, 62, 107
2, 170400, Note_on_c, 0, 41, 93
2, 170715, Note_off_c, 0, 62, 64
2, 170720, Note_off_c, 0, 57, 64
2, 170770, Note_off_c, 0, 41, 64
2, 170880, Note_on_c, 0, 57, 89
2, 170880, Note_on_c, 0, 61, 107
2, 170880, Note_on_c, 0, 40, 89
2, 170995, Note_off_c, 0, 57, 64
2, 171000, Note_off_c, 0, 61, 64
2, 171020, Note_off_c, 0, 40, 64
2, 171360, Note_on_c, 0, 60, 93
2, 171360, Note_on_c, 0, 44, 107
2, 171360, Note_on_c, 0, 63, 80
2, 171360, Note_on_c, 0, 54, 98
2, 171590, Note_off_c, 0, 54, 64
2, 171595, Note_off_c, 0, 60, 64
2, 171600, Note_off_c, 0, 63, 64
2, 171610, Note_off_c, 0, 44, 64
2, 171680, Note_on_c, 0, 61, 68
2, 171680, Note_on_c, 0, 55, 85
2, 171680, Note_on_c, 0, 45, 102
2, 171680, Note_on_c, 0, 64, 76
2, 174545, Note_off_c, 0, 55, 64
2, 174550, Note_off_c, 0, 45, 64
2, 174550, Note_off_c, 0, 64, 64
2, 174560, Note_off_c, 0, 61, 64
2, 174720, Note_on_c, 0, 59, 93
2, 174720, Note_on_c, 0, 61, 93
2, 174720, Note_on_c, 0, 55, 93
2, 174720, Note_on_c, 0, 45, 98
2, 174720, Note_on_c, 0, 64, 93
2, 174880, Note_off_c, 0, 55, 64
2, 174885, Note_off_c, 0, 61, 64
2, 174885, Note_off_c, 0, 59, 64
2, 174885, Note_off_c, 0, 45, 64
2, 174895, Note_off_c, 0, 64, 64
2, 174895, End_track
3, 0, Start_track
3, 0, Title_t, "tk2"
3, 0, MIDI_port, 0
3, 0, Channel_prefix, 1
3, 0, Control_c, 1, 7, 127
3, 0, Control_c, 1, 10, 64
3, 480, Control_c, 1, 121, 0
3, 480, Control_c, 1, 120, 0
3, 540, Control_c, 1, 11, 127
3, 540, Program_c, 1, 33
3, 540, Control_c, 1, 93, 9
3, 550, Control_c, 1, 91, 0
3, 700, Control_c, 1, 7, 127
3, 700, Control_c, 1, 10, 64
3, 3840, Note_on_c, 1, 33, 119
3, 4085, Note_off_c, 1, 33, 64
3, 4160, Note_on_c, 1, 33, 93
3, 4215, Note_off_c, 1, 33, 64
3, 4320, Note_on_c, 1, 33, 107
3, 4505, Note_off_c, 1, 33, 64
3, 4640, Note_on_c, 1, 33, 102
3, 4705, Note_off_c, 1, 33, 64
3, 4800, Note_on_c, 1, 33, 107
3, 4975, Note_off_c, 1, 33, 64
3, 5120, Note_on_c, 1, 33, 107
3, 5185, Note_off_c, 1, 33, 64
3, 5280, Note_on_c, 1, 33, 107
3, 5465, Note_off_c, 1, 33, 64
3, 5600, Note_on_c, 1, 33, 107
3, 5750, Note_off_c, 1, 33, 64
3, 5760, Note_on_c, 1, 28, 93
3, 5935, Note_off_c, 1, 28, 64
3, 6080, Note_on_c, 1, 28, 89
3, 6170, Note_off_c, 1, 28, 64
3, 6240, Note_on_c, 1, 28, 85
3, 6360, Note_off_c, 1, 28, 64
3, 6560, Note_on_c, 1, 28, 89
3, 6650, Note_off_c, 1, 28, 64
3, 6720, Note_on_c, 1, 28, 76
3, 6860, Note_off_c, 1, 28, 64
3, 7040, Note_on_c, 1, 28, 93
3, 7115, Note_off_c, 1, 28, 64
3, 7200, Note_on_c, 1, 28, 89
3, 7315, Note_off_c, 1, 28, 64
3, 7520, Note_on_c, 1, 28, 102
3, 7665, Note_off_c, 1, 28, 64
3, 7680, Note_on_c, 1, 26, 89
3, 7835, Note_off_c, 1, 26, 64
3, 8000, Note_on_c, 1, 26, 98
3, 8095, Note_off_c, 1, 26, 64
3, 8160, Note_on_c, 1, 26, 89
3, 8300, Note_off_c, 1, 26, 64
3, 8480, Note_on_c, 1, 26, 102
3, 8580, Note_off_c, 1, 26, 64
3, 8640, Note_on_c, 1, 26, 98
3, 8785, Note_off_c, 1, 26, 64
3, 8960, Note_on_c, 1, 26, 102
3, 9065, Note_off_c, 1, 26, 64
3, 9120, Note_on_c, 1, 26, 93
3, 9265, Note_off_c, 1, 26, 64
3, 9440, Note_on_c, 1, 26, 93
3, 9545, Note_off_c, 1, 26, 64
3, 9600, Note_on_c, 1, 26, 102
3, 9785, Note_off_c, 1, 26, 64
3, 9920, Note_on_c, 1, 26, 102
3, 10020, Note_off_c, 1, 26, 64
3, 10080, Note_on_c, 1, 26, 98
3, 10240, Note_off_c, 1, 26, 64
3, 10400, Note_on_c, 1, 26, 102
3, 10480, Note_off_c, 1, 26, 64
3, 10560, Note_on_c, 1, 26, 93
3, 10690, Note_off_c, 1, 26, 64
3, 10880, Note_on_c, 1, 26, 98
3, 10960, Note_off_c, 1, 26, 64
3, 11040, Note_on_c, 1, 26, 102
3, 11200, Note_off_c, 1, 26, 64
3, 11360, Note_on_c, 1, 26, 102
3, 11500, Note_off_c, 1, 26, 64
3, 11520, Note_on_c, 1, 33, 107
3, 11670, Note_off_c, 1, 33, 64
3, 11840, Note_on_c, 1, 33, 113
3, 11945, Note_off_c, 1, 33, 64
3, 12000, Note_on_c, 1, 33, 98
3, 12150, Note_off_c, 1, 33, 64
3, 12320, Note_on_c, 1, 33, 107
3, 12415, Note_off_c, 1, 33, 64
3, 12480, Note_on_c, 1, 33, 93
3, 12660, Note_off_c, 1, 33, 64
3, 12800, Note_on_c, 1, 33, 107
3, 12895, Note_off_c, 1, 33, 64
3, 12960, Note_on_c, 1, 33, 93
3, 13085, Note_off_c, 1, 33, 64
3, 13280, Note_on_c, 1, 33, 107
3, 13415, Note_off_c, 1, 33, 64
3, 13440, Note_on_c, 1, 28, 98
3, 13610, Note_off_c, 1, 28, 64
3, 13760, Note_on_c, 1, 28, 93
3, 13855, Note_off_c, 1, 28, 64
3, 13920, Note_on_c, 1, 28, 80
3, 14065, Note_off_c, 1, 28, 64
3, 14240, Note_on_c, 1, 28, 89
3, 14350, Note_off_c, 1, 28, 64
3, 14400, Note_on_c, 1, 28, 89
3, 14545, Note_off_c, 1, 28, 64
3, 14720, Note_on_c, 1, 28, 93
3, 14810, Note_off_c, 1, 28, 64
3, 14880, Note_on_c, 1, 28, 89
3, 15025, Note_off_c, 1, 28, 64
3, 15200, Note_on_c, 1, 28, 89
3, 15340, Note_off_c, 1, 28, 64
3, 15360, Note_on_c, 1, 33, 102
3, 15595, Note_off_c, 1, 33, 64
3, 15680, Note_on_c, 1, 33, 93
3, 15840, Note_on_c, 1, 31, 93
3, 15850, Note_off_c, 1, 33, 64
3, 16070, Note_off_c, 1, 31, 64
3, 16160, Note_on_c, 1, 31, 85
3, 16320, Note_on_c, 1, 30, 98
3, 16335, Note_off_c, 1, 31, 64
3, 16530, Note_off_c, 1, 30, 64
3, 16640, Note_on_c, 1, 30, 89
3, 16770, Note_off_c, 1, 30, 64
3, 16800, Note_on_c, 1, 29, 89
3, 17010, Note_off_c, 1, 29, 64
3, 17120, Note_on_c, 1, 29, 93
3, 17260, Note_off_c, 1, 29, 64
3, 17280, Note_on_c, 1, 28, 93
3, 17475, Note_off_c, 1, 28, 64
3, 17600, Note_on_c, 1, 28, 72
3, 17660, Note_off_c, 1, 28, 64
3, 17760, Note_on_c, 1, 28, 93
3, 17905, Note_off_c, 1, 28, 64
3, 18080, Note_on_c, 1, 28, 89
3, 18170, Note_off_c, 1, 28, 64
3, 18240, Note_on_c, 1, 28, 85
3, 18395, Note_off_c, 1, 28, 64
3, 18560, Note_on_c, 1, 28, 93
3, 18630, Note_off_c, 1, 28, 64
3, 18720, Note_on_c, 1, 28, 89
3, 18840, Note_off_c, 1, 28, 64
3, 19040, Note_on_c, 1, 30, 119
3, 19195, Note_off_c, 1, 30, 64
3, 19200, Note_on_c, 1, 33, 107
3, 19350, Note_off_c, 1, 33, 64
3, 19520, Note_on_c, 1, 33, 102
3, 19620, Note_off_c, 1, 33, 64
3, 19680, Note_on_c, 1, 33, 93
3, 19805, Note_off_c, 1, 33, 64
3, 20000, Note_on_c, 1, 33, 102
3, 20100, Note_off_c, 1, 33, 64
3, 20160, Note_on_c, 1, 33, 93
3, 20305, Note_off_c, 1, 33, 64
3, 20480, Note_on_c, 1, 33, 107
3, 20570, Note_off_c, 1, 33, 64
3, 20640, Note_on_c, 1, 33, 93
3, 20780, Note_off_c, 1, 33, 64
3, 20960, Note_on_c, 1, 33, 107
3, 21105, Note_off_c, 1, 33, 64
3, 21120, Note_on_c, 1, 28, 102
3, 21280, Note_off_c, 1, 28, 64
3, 21440, Note_on_c, 1, 28, 98
3, 21535, Note_off_c, 1, 28, 64
3, 21600, Note_on_c, 1, 28, 102
3, 21735, Note_off_c, 1, 28, 64
3, 21920, Note_on_c, 1, 28, 93
3, 22010, Note_off_c, 1, 28, 64
3, 22080, Note_on_c, 1, 28, 93
3, 22190, Note_off_c, 1, 28, 64
3, 22400, Note_on_c, 1, 28, 93
3, 22530, Note_off_c, 1, 28, 64
3, 22560, Note_on_c, 1, 32, 89
3, 22865, Note_off_c, 1, 32, 64
3, 22880, Note_on_c, 1, 35, 89
3, 23025, Note_off_c, 1, 35, 64
3, 23040, Note_on_c, 1, 38, 98
3, 23225, Note_off_c, 1, 38, 64
3, 23360, Note_on_c, 1, 38, 98
3, 23465, Note_off_c, 1, 38, 64
3, 23520, Note_on_c, 1, 38, 89
3, 23640, Note_off_c, 1, 38, 64
3, 23840, Note_on_c, 1, 38, 93
3, 23930, Note_off_c, 1, 38, 64
3, 24000, Note_on_c, 1, 38, 93
3, 24140, Note_off_c, 1, 38, 64
3, 24320, Note_on_c, 1, 38, 98
3, 24420, Note_off_c, 1, 38, 64
3, 24480, Note_on_c, 1, 38, 93
3, 24655, Note_off_c, 1, 38, 64
3, 24800, Note_on_c, 1, 38, 102
3, 24905, Note_off_c, 1, 38, 64
3, 24960, Note_on_c, 1, 38, 98
3, 25110, Note_off_c, 1, 38, 64
3, 25280, Note_on_c, 1, 38, 107
3, 25420, Note_off_c, 1, 38, 64
3, 25440, Note_on_c, 1, 30, 102
3, 25600, Note_off_c, 1, 30, 64
3, 25760, Note_on_c, 1, 30, 93
3, 25890, Note_off_c, 1, 30, 64
3, 25920, Note_on_c, 1, 31, 80
3, 26095, Note_off_c, 1, 31, 64
3, 26240, Note_on_c, 1, 31, 113
3, 26395, Note_off_c, 1, 31, 64
3, 26400, Note_on_c, 1, 32, 102
3, 26545, Note_off_c, 1, 32, 64
3, 26720, Note_on_c, 1, 32, 113
3, 26860, Note_off_c, 1, 32, 64
3, 26880, Note_on_c, 1, 33, 107
3, 27065, Note_off_c, 1, 33, 64
3, 27200, Note_on_c, 1, 33, 113
3, 27310, Note_off_c, 1, 33, 64
3, 27360, Note_on_c, 1, 33, 102
3, 27510, Note_off_c, 1, 33, 64
3, 27680, Note_on_c, 1, 33, 113
3, 27785, Note_off_c, 1, 33, 64
3, 27840, Note_on_c, 1, 33, 93
3, 28005, Note_off_c, 1, 33, 64
3, 28160, Note_on_c, 1, 33, 113
3, 28250, Note_off_c, 1, 33, 64
3, 28320, Note_on_c, 1, 33, 89
3, 28485, Note_off_c, 1, 33, 64
3, 28640, Note_on_c, 1, 33, 113
3, 28795, Note_off_c, 1, 33, 64
3, 28800, Note_on_c, 1, 28, 98
3, 28995, Note_off_c, 1, 28, 64
3, 29120, Note_on_c, 1, 28, 93
3, 29220, Note_off_c, 1, 28, 64
3, 29280, Note_on_c, 1, 28, 89
3, 29420, Note_off_c, 1, 28, 64
3, 29600, Note_on_c, 1, 28, 89
3, 29685, Note_off_c, 1, 28, 64
3, 29760, Note_on_c, 1, 28, 89
3, 29875, Note_off_c, 1, 28, 64
3, 30080, Note_on_c, 1, 28, 93
3, 30170, Note_off_c, 1, 28, 64
3, 30240, Note_on_c, 1, 28, 85
3, 30350, Note_off_c, 1, 28, 64
3, 30560, Note_on_c, 1, 28, 93
3, 30720, Note_on_c, 1, 33, 107
3, 30730, Note_off_c, 1, 28, 64
3, 31155, Note_off_c, 1, 33, 64
3, 31200, Note_on_c, 1, 31, 102
3, 31650, Note_off_c, 1, 31, 64
3, 31680, Note_on_c, 1, 30, 85
3, 32150, Note_off_c, 1, 30, 64
3, 32160, Note_on_c, 1, 29, 98
3, 32590, Note_off_c, 1, 29, 64
3, 32640, Note_on_c, 1, 28, 98
3, 33050, Note_off_c, 1, 28, 64
3, 33120, Note_on_c, 1, 28, 102
3, 33225, Note_off_c, 1, 28, 64
3, 33440, Note_on_c, 1, 28, 107
3, 33775, Note_off_c, 1, 28, 64
3, 33920, Note_on_c, 1, 28, 93
3, 33995, Note_off_c, 1, 28, 64
3, 34080, Note_on_c, 1, 28, 93
3, 34400, Note_off_c, 1, 28, 64
3, 34400, Note_on_c, 1, 30, 93
3, 34560, Note_on_c, 1, 33, 113
3, 34565, Note_off_c, 1, 30, 64
3, 34665, Note_off_c, 1, 33, 64
3, 34880, Note_on_c, 1, 33, 85
3, 34965, Note_off_c, 1, 33, 64
3, 35040, Note_on_c, 1, 33, 98
3, 35175, Note_off_c, 1, 33, 64
3, 35360, Note_on_c, 1, 33, 93
3, 35440, Note_off_c, 1, 33, 64
3, 35520, Note_on_c, 1, 33, 98
3, 35630, Note_off_c, 1, 33, 64
3, 35840, Note_on_c, 1, 33, 102
3, 35980, Note_off_c, 1, 33, 64
3, 36000, Note_on_c, 1, 37, 102
3, 36310, Note_off_c, 1, 37, 64
3, 36320, Note_on_c, 1, 38, 80
3, 36480, Note_on_c, 1, 40, 102
3, 36485, Note_off_c, 1, 38, 64
3, 36610, Note_off_c, 1, 40, 64
3, 36800, Note_on_c, 1, 40, 93
3, 36880, Note_off_c, 1, 40, 64
3, 36960, Note_on_c, 1, 40, 85
3, 37085, Note_off_c, 1, 40, 64
3, 37280, Note_on_c, 1, 40, 102
3, 37365, Note_off_c, 1, 40, 64
3, 37440, Note_on_c, 1, 40, 76
3, 37595, Note_off_c, 1, 40, 64
3, 37760, Note_on_c, 1, 40, 98
3, 37855, Note_off_c, 1, 40, 64
3, 37920, Note_on_c, 1, 40, 93
3, 38075, Note_off_c, 1, 40, 64
3, 38240, Note_on_c, 1, 40, 107
3, 38385, Note_off_c, 1, 40, 64
3, 38400, Note_on_c, 1, 38, 102
3, 38560, Note_off_c, 1, 38, 64
3, 38720, Note_on_c, 1, 38, 102
3, 38810, Note_off_c, 1, 38, 64
3, 38880, Note_on_c, 1, 38, 93
3, 39010, Note_off_c, 1, 38, 64
3, 39200, Note_on_c, 1, 38, 107
3, 39295, Note_off_c, 1, 38, 64
3, 39360, Note_on_c, 1, 38, 102
3, 39510, Note_off_c, 1, 38, 64
3, 39680, Note_on_c, 1, 38, 107
3, 39775, Note_off_c, 1, 38, 64
3, 39840, Note_on_c, 1, 38, 102
3, 39990, Note_off_c, 1, 38, 64
3, 40160, Note_on_c, 1, 38, 107
3, 40250, Note_off_c, 1, 38, 64
3, 40320, Note_on_c, 1, 38, 93
3, 40530, Note_off_c, 1, 38, 64
3, 40640, Note_on_c, 1, 38, 93
3, 40740, Note_off_c, 1, 38, 64
3, 40800, Note_on_c, 1, 38, 98
3, 40950, Note_off_c, 1, 38, 64
3, 41120, Note_on_c, 1, 38, 107
3, 41215, Note_off_c, 1, 38, 64
3, 41280, Note_on_c, 1, 38, 89
3, 41450, Note_off_c, 1, 38, 64
3, 41600, Note_on_c, 1, 38, 113
3, 41755, Note_off_c, 1, 38, 64
3, 41760, Note_on_c, 1, 30, 93
3, 41890, Note_off_c, 1, 30, 64
3, 41920, Note_on_c, 1, 31, 102
3, 42070, Note_off_c, 1, 31, 64
3, 42080, Note_on_c, 1, 32, 85
3, 42240, Note_on_c, 1, 33, 107
3, 42245, Note_off_c, 1, 32, 64
3, 42400, Note_off_c, 1, 33, 64
3, 42560, Note_on_c, 1, 33, 107
3, 42670, Note_off_c, 1, 33, 64
3, 42720, Note_on_c, 1, 33, 102
3, 42850, Note_off_c, 1, 33, 64
3, 43040, Note_on_c, 1, 33, 107
3, 43160, Note_off_c, 1, 33, 64
3, 43200, Note_on_c, 1, 33, 93
3, 43320, Note_off_c, 1, 33, 64
3, 43520, Note_on_c, 1, 33, 113
3, 43625, Note_off_c, 1, 33, 64
3, 43680, Note_on_c, 1, 33, 98
3, 43815, Note_off_c, 1, 33, 64
3, 44000, Note_on_c, 1, 33, 107
3, 44155, Note_off_c, 1, 33, 64
3, 44160, Note_on_c, 1, 28, 98
3, 44325, Note_off_c, 1, 28, 64
3, 44480, Note_on_c, 1, 28, 89
3, 44590, Note_off_c, 1, 28, 64
3, 44640, Note_on_c, 1, 28, 89
3, 44770, Note_off_c, 1, 28, 64
3, 44960, Note_on_c, 1, 28, 89
3, 45070, Note_off_c, 1, 28, 64
3, 45120, Note_on_c, 1, 28, 85
3, 45265, Note_off_c, 1, 28, 64
3, 45440, Note_on_c, 1, 28, 98
3, 45530, Note_off_c, 1, 28, 64
3, 45600, Note_on_c, 1, 28, 89
3, 45730, Note_off_c, 1, 28, 64
3, 45920, Note_on_c, 1, 28, 93
3, 46075, Note_off_c, 1, 28, 64
3, 46080, Note_on_c, 1, 33, 102
3, 46270, Note_off_c, 1, 33, 64
3, 46400, Note_on_c, 1, 33, 107
3, 46545, Note_off_c, 1, 33, 64
3, 46560, Note_on_c, 1, 31, 102
3, 46740, Note_off_c, 1, 31, 64
3, 46880, Note_on_c, 1, 31, 107
3, 47040, Note_on_c, 1, 30, 107
3, 47060, Note_off_c, 1, 31, 64
3, 47255, Note_off_c, 1, 30, 64
3, 47360, Note_on_c, 1, 30, 107
3, 47495, Note_off_c, 1, 30, 64
3, 47520, Note_on_c, 1, 29, 98
3, 47705, Note_off_c, 1, 29, 64
3, 47840, Note_on_c, 1, 29, 89
3, 47985, Note_off_c, 1, 29, 64
3, 48000, Note_on_c, 1, 28, 89
3, 48195, Note_off_c, 1, 28, 64
3, 48320, Note_on_c, 1, 28, 102
3, 48415, Note_off_c, 1, 28, 64
3, 48480, Note_on_c, 1, 28, 89
3, 48620, Note_off_c, 1, 28, 64
3, 48800, Note_on_c, 1, 28, 113
3, 48895, Note_off_c, 1, 28, 64
3, 48960, Note_on_c, 1, 28, 80
3, 49135, Note_off_c, 1, 28, 64
3, 49280, Note_on_c, 1, 28, 93
3, 49365, Note_off_c, 1, 28, 64
3, 49440, Note_on_c, 1, 28, 98
3, 49580, Note_off_c, 1, 28, 64
3, 49760, Note_on_c, 1, 31, 48
3, 49760, Note_on_c, 1, 30, 102
3, 49825, Note_off_c, 1, 31, 64
3, 49890, Note_off_c, 1, 30, 64
3, 49920, Note_on_c, 1, 33, 76
3, 50075, Note_off_c, 1, 33, 64
3, 50240, Note_on_c, 1, 33, 107
3, 50400, Note_on_c, 1, 37, 107
3, 50425, Note_off_c, 1, 33, 64
3, 50545, Note_off_c, 1, 37, 64
3, 50720, Note_on_c, 1, 37, 89
3, 50880, Note_off_c, 1, 37, 64
3, 50880, Note_on_c, 1, 40, 89
3, 51005, Note_off_c, 1, 40, 64
3, 51200, Note_on_c, 1, 40, 80
3, 51360, Note_on_c, 1, 42, 80
3, 51375, Note_off_c, 1, 40, 64
3, 51505, Note_off_c, 1, 42, 64
3, 51520, Note_on_c, 1, 40, 85
3, 51645, Note_off_c, 1, 40, 64
3, 51680, Note_on_c, 1, 37, 93
3, 51810, Note_off_c, 1, 37, 64
3, 51840, Note_on_c, 1, 28, 107
3, 51990, Note_off_c, 1, 28, 64
3, 52160, Note_on_c, 1, 28, 93
3, 52320, Note_off_c, 1, 28, 64
3, 52320, Note_on_c, 1, 32, 107
3, 52445, Note_off_c, 1, 32, 64
3, 52640, Note_on_c, 1, 32, 98
3, 52795, Note_off_c, 1, 32, 64
3, 52800, Note_on_c, 1, 35, 98
3, 52935, Note_off_c, 1, 35, 64
3, 53120, Note_on_c, 1, 35, 93
3, 53280, Note_on_c, 1, 37, 93
3, 53305, Note_off_c, 1, 35, 64
3, 53600, Note_off_c, 1, 37, 64
3, 53600, Note_on_c, 1, 35, 93
3, 53750, Note_off_c, 1, 35, 64
3, 53760, Note_on_c, 1, 38, 107
3, 53925, Note_off_c, 1, 38, 64
3, 54080, Note_on_c, 1, 38, 107
3, 54195, Note_off_c, 1, 38, 64
3, 54240, Note_on_c, 1, 38, 93
3, 54405, Note_off_c, 1, 38, 64
3, 54560, Note_on_c, 1, 38, 89
3, 54675, Note_off_c, 1, 38, 64
3, 54720, Note_on_c, 1, 38, 93
3, 54875, Note_off_c, 1, 38, 64
3, 55040, Note_on_c, 1, 38, 98
3, 55150, Note_off_c, 1, 38, 64
3, 55200, Note_on_c, 1, 38, 89
3, 55360, Note_off_c, 1, 38, 64
3, 55520, Note_on_c, 1, 38, 107
3, 55635, Note_off_c, 1, 38, 64
3, 55680, Note_on_c, 1, 38, 102
3, 55835, Note_off_c, 1, 38, 64
3, 56000, Note_on_c, 1, 38, 102
3, 56110, Note_off_c, 1, 38, 64
3, 56160, Note_on_c, 1, 38, 89
3, 56355, Note_off_c, 1, 38, 64
3, 56480, Note_on_c, 1, 38, 107
3, 56605, Note_off_c, 1, 38, 64
3, 56640, Note_on_c, 1, 38, 107
3, 56800, Note_off_c, 1, 38, 64
3, 56960, Note_on_c, 1, 38, 98
3, 57110, Note_off_c, 1, 38, 64
3, 57120, Note_on_c, 1, 30, 98
3, 57405, Note_off_c, 1, 30, 64
3, 57440, Note_on_c, 1, 31, 93
3, 57600, Note_on_c, 1, 33, 113
3, 57610, Note_off_c, 1, 31, 64
3, 57745, Note_off_c, 1, 33, 64
3, 57920, Note_on_c, 1, 33, 113
3, 58025, Note_off_c, 1, 33, 64
3, 58080, Note_on_c, 1, 33, 102
3, 58210, Note_off_c, 1, 33, 64
3, 58400, Note_on_c, 1, 33, 107
3, 58515, Note_off_c, 1, 33, 64
3, 58560, Note_on_c, 1, 33, 98
3, 58715, Note_off_c, 1, 33, 64
3, 58880, Note_on_c, 1, 33, 107
3, 58995, Note_off_c, 1, 33, 64
3, 59040, Note_on_c, 1, 33, 102
3, 59190, Note_off_c, 1, 33, 64
3, 59360, Note_on_c, 1, 33, 98
3, 59520, Note_on_c, 1, 28, 113
3, 59525, Note_off_c, 1, 33, 64
3, 59680, Note_off_c, 1, 28, 64
3, 59840, Note_on_c, 1, 28, 98
3, 59945, Note_off_c, 1, 28, 64
3, 60000, Note_on_c, 1, 28, 93
3, 60140, Note_off_c, 1, 28, 64
3, 60320, Note_on_c, 1, 28, 93
3, 60420, Note_off_c, 1, 28, 64
3, 60480, Note_on_c, 1, 28, 93
3, 60630, Note_off_c, 1, 28, 64
3, 60800, Note_on_c, 1, 28, 93
3, 60895, Note_off_c, 1, 28, 64
3, 60960, Note_on_c, 1, 28, 85
3, 61090, Note_off_c, 1, 28, 64
3, 61280, Note_on_c, 1, 28, 93
3, 61390, Note_off_c, 1, 28, 64
3, 61440, Note_on_c, 1, 33, 107
3, 61760, Note_on_c, 1, 45, 107
3, 61790, Note_off_c, 1, 33, 64
3, 61920, Note_on_c, 1, 31, 102
3, 61955, Note_off_c, 1, 45, 64
3, 62240, Note_on_c, 1, 43, 102
3, 62300, Note_off_c, 1, 31, 64
3, 62385, Note_off_c, 1, 43, 64
3, 62400, Note_on_c, 1, 30, 102
3, 62720, Note_on_c, 1, 42, 102
3, 62800, Note_off_c, 1, 30, 64
3, 62875, Note_off_c, 1, 42, 64
3, 62880, Note_on_c, 1, 29, 113
3, 63200, Note_on_c, 1, 41, 102
3, 63285, Note_off_c, 1, 29, 64
3, 63320, Note_off_c, 1, 41, 64
3, 63360, Note_on_c, 1, 28, 93
3, 63680, Note_off_c, 1, 28, 64
3, 63680, Note_on_c, 1, 40, 113
3, 63840, Note_on_c, 1, 28, 89
3, 63920, Note_off_c, 1, 40, 64
3, 64145, Note_off_c, 1, 28, 64
3, 64160, Note_on_c, 1, 40, 119
3, 64625, Note_off_c, 1, 40, 64
3, 64640, Note_on_c, 1, 28, 89
3, 64740, Note_off_c, 1, 28, 64
3, 64800, Note_on_c, 1, 28, 98
3, 65120, Note_off_c, 1, 28, 64
3, 65120, Note_on_c, 1, 30, 107
3, 65280, Note_on_c, 1, 33, 119
3, 65295, Note_off_c, 1, 30, 64
3, 65420, Note_off_c, 1, 33, 64
3, 65600, Note_on_c, 1, 33, 93
3, 65705, Note_off_c, 1, 33, 64
3, 65760, Note_on_c, 1, 33, 113
3, 65905, Note_off_c, 1, 33, 64
3, 66080, Note_on_c, 1, 33, 93
3, 66165, Note_off_c, 1, 33, 64
3, 66240, Note_on_c, 1, 33, 89
3, 66365, Note_off_c, 1, 33, 64
3, 66560, Note_on_c, 1, 33, 107
3, 66705, Note_off_c, 1, 33, 64
3, 66720, Note_on_c, 1, 37, 98
3, 67040, Note_on_c, 1, 40, 89
3, 67045, Note_off_c, 1, 37, 64
3, 67185, Note_off_c, 1, 40, 64
3, 67200, Note_on_c, 1, 28, 98
3, 67345, Note_off_c, 1, 28, 64
3, 67520, Note_on_c, 1, 28, 98
3, 67640, Note_off_c, 1, 28, 64
3, 67680, Note_on_c, 1, 28, 89
3, 67820, Note_off_c, 1, 28, 64
3, 68000, Note_on_c, 1, 28, 98
3, 68100, Note_off_c, 1, 28, 64
3, 68160, Note_on_c, 1, 28, 85
3, 68325, Note_off_c, 1, 28, 64
3, 68480, Note_on_c, 1, 28, 102
3, 68625, Note_off_c, 1, 28, 64
3, 68640, Note_on_c, 1, 32, 102
3, 68950, Note_off_c, 1, 32, 64
3, 68960, Note_on_c, 1, 35, 93
3, 69120, Note_on_c, 1, 38, 98
3, 69130, Note_off_c, 1, 35, 64
3, 69280, Note_off_c, 1, 38, 64
3, 69440, Note_on_c, 1, 38, 107
3, 69550, Note_off_c, 1, 38, 64
3, 69600, Note_on_c, 1, 38, 93
3, 69795, Note_off_c, 1, 38, 64
3, 69920, Note_on_c, 1, 38, 98
3, 70000, Note_off_c, 1, 38, 64
3, 70080, Note_on_c, 1, 38, 93
3, 70255, Note_off_c, 1, 38, 64
3, 70400, Note_on_c, 1, 38, 57
3, 70500, Note_off_c, 1, 38, 64
3, 70560, Note_on_c, 1, 40, 98
3, 70560, Note_on_c, 1, 42, 59
3, 70640, Note_off_c, 1, 40, 64
3, 70850, Note_off_c, 1, 42, 64
3, 70880, Note_on_c, 1, 45, 89
3, 71020, Note_off_c, 1, 45, 64
3, 71040, Note_on_c, 1, 38, 98
3, 71190, Note_off_c, 1, 38, 64
3, 71360, Note_on_c, 1, 38, 113
3, 71520, Note_on_c, 1, 30, 102
3, 71525, Note_off_c, 1, 38, 64
3, 71725, Note_off_c, 1, 30, 64
3, 71840, Note_on_c, 1, 30, 93
3, 71995, Note_off_c, 1, 30, 64
3, 72000, Note_on_c, 1, 31, 107
3, 72175, Note_off_c, 1, 31, 64
3, 72320, Note_on_c, 1, 31, 102
3, 72470, Note_off_c, 1, 31, 64
3, 72480, Note_on_c, 1, 32, 102
3, 72635, Note_off_c, 1, 32, 64
3, 72800, Note_on_c, 1, 32, 107
3, 72935, Note_off_c, 1, 32, 64
3, 72960, Note_on_c, 1, 33, 102
3, 73125, Note_off_c, 1, 33, 64
3, 73280, Note_on_c, 1, 33, 107
3, 73415, Note_off_c, 1, 33, 64
3, 73440, Note_on_c, 1, 37, 113
3, 73630, Note_off_c, 1, 37, 64
3, 73760, Note_on_c, 1, 37, 89
3, 73900, Note_off_c, 1, 37, 64
3, 73920, Note_on_c, 1, 40, 89
3, 74105, Note_off_c, 1, 40, 64
3, 74240, Note_on_c, 1, 40, 93
3, 74375, Note_off_c, 1, 40, 64
3, 74400, Note_on_c, 1, 42, 85
3, 74720, Note_on_c, 1, 40, 93
3, 74745, Note_off_c, 1, 42, 64
3, 74880, Note_off_c, 1, 40, 64
3, 74880, Note_on_c, 1, 28, 93
3, 75035, Note_off_c, 1, 28, 64
3, 75200, Note_on_c, 1, 28, 107
3, 75285, Note_off_c, 1, 28, 64
3, 75360, Note_on_c, 1, 28, 93
3, 75535, Note_off_c, 1, 28, 64
3, 75680, Note_on_c, 1, 28, 93
3, 75780, Note_off_c, 1, 28, 64
3, 75840, Note_on_c, 1, 28, 89
3, 76000, Note_off_c, 1, 28, 64
3, 76160, Note_on_c, 1, 28, 93
3, 76235, Note_off_c, 1, 28, 64
3, 76320, Note_on_c, 1, 28, 89
3, 76610, Note_off_c, 1, 28, 64
3, 76640, Note_on_c, 1, 30, 107
3, 76745, Note_off_c, 1, 30, 64
3, 76800, Note_on_c, 1, 33, 107
3, 77045, Note_off_c, 1, 33, 64
3, 77120, Note_on_c, 1, 33, 93
3, 77255, Note_off_c, 1, 33, 64
3, 77280, Note_on_c, 1, 31, 107
3, 77550, Note_off_c, 1, 31, 64
3, 77600, Note_on_c, 1, 31, 89
3, 77730, Note_off_c, 1, 31, 64
3, 77760, Note_on_c, 1, 30, 98
3, 78010, Note_off_c, 1, 30, 64
3, 78080, Note_on_c, 1, 30, 98
3, 78220, Note_off_c, 1, 30, 64
3, 78240, Note_on_c, 1, 29, 107
3, 78430, Note_off_c, 1, 29, 64
3, 78560, Note_on_c, 1, 29, 89
3, 78675, Note_off_c, 1, 29, 64
3, 78720, Note_on_c, 1, 28, 102
3, 78935, Note_off_c, 1, 28, 64
3, 79040, Note_on_c, 1, 28, 102
3, 79145, Note_off_c, 1, 28, 64
3, 79200, Note_on_c, 1, 28, 98
3, 79390, Note_off_c, 1, 28, 64
3, 79520, Note_on_c, 1, 28, 102
3, 79625, Note_off_c, 1, 28, 64
3, 79680, Note_on_c, 1, 28, 89
3, 79840, Note_off_c, 1, 28, 64
3, 80000, Note_on_c, 1, 28, 102
3, 80090, Note_off_c, 1, 28, 64
3, 80160, Note_on_c, 1, 28, 98
3, 80395, Note_off_c, 1, 28, 64
3, 80480, Note_on_c, 1, 30, 102
3, 80630, Note_off_c, 1, 30, 64
3, 80640, Note_on_c, 1, 33, 119
3, 80755, Note_off_c, 1, 33, 64
3, 80960, Note_on_c, 1, 33, 107
3, 81060, Note_off_c, 1, 33, 64
3, 81120, Note_on_c, 1, 33, 107
3, 81285, Note_off_c, 1, 33, 64
3, 81440, Note_on_c, 1, 33, 107
3, 81535, Note_off_c, 1, 33, 64
3, 81600, Note_on_c, 1, 33, 93
3, 81765, Note_off_c, 1, 33, 64
3, 81920, Note_on_c, 1, 33, 107
3, 82060, Note_off_c, 1, 33, 64
3, 82080, Note_on_c, 1, 37, 98
3, 82380, Note_off_c, 1, 37, 64
3, 82400, Note_on_c, 1, 38, 93
3, 82560, Note_on_c, 1, 40, 107
3, 82580, Note_off_c, 1, 38, 64
3, 82685, Note_off_c, 1, 40, 64
3, 82880, Note_on_c, 1, 40, 107
3, 82975, Note_off_c, 1, 40, 64
3, 83040, Note_on_c, 1, 40, 102
3, 83180, Note_off_c, 1, 40, 64
3, 83360, Note_on_c, 1, 40, 98
3, 83450, Note_off_c, 1, 40, 64
3, 83520, Note_on_c, 1, 40, 102
3, 83695, Note_off_c, 1, 40, 64
3, 83840, Note_on_c, 1, 40, 93
3, 83920, Note_off_c, 1, 40, 64
3, 84000, Note_on_c, 1, 40, 107
3, 84310, Note_off_c, 1, 40, 64
3, 84320, Note_on_c, 1, 39, 107
3, 84465, Note_off_c, 1, 39, 64
3, 84480, Note_on_c, 1, 38, 102
3, 84670, Note_off_c, 1, 38, 64
3, 84800, Note_on_c, 1, 38, 102
3, 84900, Note_off_c, 1, 38, 64
3, 84960, Note_on_c, 1, 38, 98
3, 85115, Note_off_c, 1, 38, 64
3, 85280, Note_on_c, 1, 38, 89
3, 85375, Note_off_c, 1, 38, 64
3, 85440, Note_on_c, 1, 38, 89
3, 85565, Note_off_c, 1, 38, 64
3, 85760, Note_on_c, 1, 38, 98
3, 85870, Note_off_c, 1, 38, 64
3, 85920, Note_on_c, 1, 38, 76
3, 86110, Note_off_c, 1, 38, 64
3, 86240, Note_on_c, 1, 38, 93
3, 86340, Note_off_c, 1, 38, 64
3, 86400, Note_on_c, 1, 38, 89
3, 86565, Note_off_c, 1, 38, 64
3, 86720, Note_on_c, 1, 38, 98
3, 86880, Note_on_c, 1, 30, 102
3, 86895, Note_off_c, 1, 38, 64
3, 87040, Note_off_c, 1, 30, 64
3, 87200, Note_on_c, 1, 30, 85
3, 87360, Note_on_c, 1, 33, 98
3, 87390, Note_off_c, 1, 30, 64
3, 87520, Note_off_c, 1, 33, 64
3, 87680, Note_on_c, 1, 33, 89
3, 87840, Note_on_c, 1, 35, 93
3, 87845, Note_off_c, 1, 33, 64
3, 88015, Note_off_c, 1, 35, 64
3, 88160, Note_on_c, 1, 35, 102
3, 88305, Note_off_c, 1, 35, 64
3, 88320, Note_on_c, 1, 33, 98
3, 88470, Note_off_c, 1, 33, 64
3, 88640, Note_on_c, 1, 33, 113
3, 88740, Note_off_c, 1, 33, 64
3, 88800, Note_on_c, 1, 33, 102
3, 88960, Note_off_c, 1, 33, 64
3, 89120, Note_on_c, 1, 33, 107
3, 89215, Note_off_c, 1, 33, 64
3, 89280, Note_on_c, 1, 33, 93
3, 89470, Note_off_c, 1, 33, 64
3, 89600, Note_on_c, 1, 33, 93
3, 89695, Note_off_c, 1, 33, 64
3, 89760, Note_on_c, 1, 33, 98
3, 89900, Note_off_c, 1, 33, 64
3, 90080, Note_on_c, 1, 33, 93
3, 90190, Note_off_c, 1, 33, 64
3, 90240, Note_on_c, 1, 28, 89
3, 90385, Note_off_c, 1, 28, 64
3, 90560, Note_on_c, 1, 28, 98
3, 90720, Note_on_c, 1, 32, 107
3, 90745, Note_off_c, 1, 28, 64
3, 90900, Note_off_c, 1, 32, 64
3, 91040, Note_on_c, 1, 32, 102
3, 91200, Note_on_c, 1, 35, 93
3, 91205, Note_off_c, 1, 32, 64
3, 91345, Note_off_c, 1, 35, 64
3, 91520, Note_on_c, 1, 35, 98
3, 91675, Note_off_c, 1, 35, 64
3, 91680, Note_on_c, 1, 37, 102
3, 91965, Note_off_c, 1, 37, 64
3, 92000, Note_on_c, 1, 40, 89
3, 92160, Note_on_c, 1, 33, 107
3, 92165, Note_off_c, 1, 40, 64
3, 92295, Note_off_c, 1, 33, 64
3, 92480, Note_on_c, 1, 33, 107
3, 92630, Note_off_c, 1, 33, 64
3, 92640, Note_on_c, 1, 31, 98
3, 92830, Note_off_c, 1, 31, 64
3, 92960, Note_on_c, 1, 31, 98
3, 93120, Note_off_c, 1, 31, 64
3, 93120, Note_on_c, 1, 30, 98
3, 93335, Note_off_c, 1, 30, 64
3, 93440, Note_on_c, 1, 30, 107
3, 93595, Note_off_c, 1, 30, 64
3, 93600, Note_on_c, 1, 29, 80
3, 93845, Note_off_c, 1, 29, 64
3, 93920, Note_on_c, 1, 29, 98
3, 94065, Note_off_c, 1, 29, 64
3, 94080, Note_on_c, 1, 28, 107
3, 94300, Note_off_c, 1, 28, 64
3, 94400, Note_on_c, 1, 28, 89
3, 94505, Note_off_c, 1, 28, 64
3, 94560, Note_on_c, 1, 28, 107
3, 94745, Note_off_c, 1, 28, 64
3, 94880, Note_on_c, 1, 28, 107
3, 94965, Note_off_c, 1, 28, 64
3, 95040, Note_on_c, 1, 28, 89
3, 95240, Note_off_c, 1, 28, 64
3, 95360, Note_on_c, 1, 28, 98
3, 95460, Note_off_c, 1, 28, 64
3, 95520, Note_on_c, 1, 28, 89
3, 95690, Note_off_c, 1, 28, 64
3, 95840, Note_on_c, 1, 28, 107
3, 95995, Note_off_c, 1, 28, 64
3, 96000, Note_on_c, 1, 33, 107
3, 96130, Note_off_c, 1, 33, 64
3, 96320, Note_on_c, 1, 33, 119
3, 96405, Note_off_c, 1, 33, 64
3, 96480, Note_on_c, 1, 33, 113
3, 96615, Note_off_c, 1, 33, 64
3, 96800, Note_on_c, 1, 33, 119
3, 96890, Note_off_c, 1, 33, 64
3, 96960, Note_on_c, 1, 33, 102
3, 97085, Note_off_c, 1, 33, 64
3, 97280, Note_on_c, 1, 33, 113
3, 97365, Note_off_c, 1, 33, 64
3, 97440, Note_on_c, 1, 33, 107
3, 97590, Note_off_c, 1, 33, 64
3, 97760, Note_on_c, 1, 33, 113
3, 97905, Note_off_c, 1, 33, 64
3, 97920, Note_on_c, 1, 28, 107
3, 98055, Note_off_c, 1, 28, 64
3, 98240, Note_on_c, 1, 28, 102
3, 98330, Note_off_c, 1, 28, 64
3, 98400, Note_on_c, 1, 28, 102
3, 98525, Note_off_c, 1, 28, 64
3, 98720, Note_on_c, 1, 28, 113
3, 98800, Note_off_c, 1, 28, 64
3, 98880, Note_on_c, 1, 28, 98
3, 99015, Note_off_c, 1, 28, 64
3, 99200, Note_on_c, 1, 28, 102
3, 99280, Note_off_c, 1, 28, 64
3, 99360, Note_on_c, 1, 28, 107
3, 99480, Note_off_c, 1, 28, 64
3, 99680, Note_on_c, 1, 28, 102
3, 99820, Note_off_c, 1, 28, 64
3, 99840, Note_on_c, 1, 26, 102
3, 99975, Note_off_c, 1, 26, 64
3, 100160, Note_on_c, 1, 26, 102
3, 100250, Note_off_c, 1, 26, 64
3, 100320, Note_on_c, 1, 26, 98
3, 100445, Note_off_c, 1, 26, 64
3, 100640, Note_on_c, 1, 26, 107
3, 100735, Note_off_c, 1, 26, 64
3, 100800, Note_on_c, 1, 26, 93
3, 100930, Note_off_c, 1, 26, 64
3, 101120, Note_on_c, 1, 26, 102
3, 101210, Note_off_c, 1, 26, 64
3, 101280, Note_on_c, 1, 26, 98
3, 101415, Note_off_c, 1, 26, 64
3, 101600, Note_on_c, 1, 26, 107
3, 101685, Note_off_c, 1, 26, 64
3, 101760, Note_on_c, 1, 26, 107
3, 101890, Note_off_c, 1, 26, 64
3, 102080, Note_on_c, 1, 26, 107
3, 102175, Note_off_c, 1, 26, 64
3, 102240, Note_on_c, 1, 26, 107
3, 102375, Note_off_c, 1, 26, 64
3, 102560, Note_on_c, 1, 26, 93
3, 102655, Note_off_c, 1, 26, 64
3, 102720, Note_on_c, 1, 26, 102
3, 102860, Note_off_c, 1, 26, 64
3, 103040, Note_on_c, 1, 26, 89
3, 103130, Note_off_c, 1, 26, 64
3, 103200, Note_on_c, 1, 26, 93
3, 103340, Note_off_c, 1, 26, 64
3, 103520, Note_on_c, 1, 26, 98
3, 103680, Note_on_c, 1, 33, 98
3, 103735, Note_off_c, 1, 26, 64
3, 103850, Note_off_c, 1, 33, 64
3, 104000, Note_on_c, 1, 33, 113
3, 104100, Note_off_c, 1, 33, 64
3, 104160, Note_on_c, 1, 33, 102
3, 104315, Note_off_c, 1, 33, 64
3, 104480, Note_on_c, 1, 33, 107
3, 104565, Note_off_c, 1, 33, 64
3, 104640, Note_on_c, 1, 33, 98
3, 104785, Note_off_c, 1, 33, 64
3, 104960, Note_on_c, 1, 33, 107
3, 105045, Note_off_c, 1, 33, 64
3, 105120, Note_on_c, 1, 33, 107
3, 105240, Note_off_c, 1, 33, 64
3, 105440, Note_on_c, 1, 33, 107
3, 105570, Note_off_c, 1, 33, 64
3, 105600, Note_on_c, 1, 28, 107
3, 105745, Note_off_c, 1, 28, 64
3, 105920, Note_on_c, 1, 28, 107
3, 106000, Note_off_c, 1, 28, 64
3, 106080, Note_on_c, 1, 28, 113
3, 106205, Note_off_c, 1, 28, 64
3, 106400, Note_on_c, 1, 28, 113
3, 106490, Note_off_c, 1, 28, 64
3, 106560, Note_on_c, 1, 28, 89
3, 106685, Note_off_c, 1, 28, 64
3, 106880, Note_on_c, 1, 28, 107
3, 106970, Note_off_c, 1, 28, 64
3, 107040, Note_on_c, 1, 28, 107
3, 107165, Note_off_c, 1, 28, 64
3, 107360, Note_on_c, 1, 28, 107
3, 107490, Note_off_c, 1, 28, 64
3, 107520, Note_on_c, 1, 33, 113
3, 107710, Note_off_c, 1, 33, 64
3, 107840, Note_on_c, 1, 33, 113
3, 107980, Note_off_c, 1, 33, 64
3, 108000, Note_on_c, 1, 31, 113
3, 108215, Note_off_c, 1, 31, 64
3, 108320, Note_on_c, 1, 31, 102
3, 108480, Note_on_c, 1, 30, 98
3, 108495, Note_off_c, 1, 31, 64
3, 108725, Note_off_c, 1, 30, 64
3, 108800, Note_on_c, 1, 30, 107
3, 108930, Note_off_c, 1, 30, 64
3, 108960, Note_on_c, 1, 29, 93
3, 109200, Note_off_c, 1, 29, 64
3, 109280, Note_on_c, 1, 29, 98
3, 109410, Note_off_c, 1, 29, 64
3, 109440, Note_on_c, 1, 28, 102
3, 109655, Note_off_c, 1, 28, 64
3, 109760, Note_on_c, 1, 28, 93
3, 109840, Note_off_c, 1, 28, 64
3, 109920, Note_on_c, 1, 28, 107
3, 110065, Note_off_c, 1, 28, 64
3, 110240, Note_on_c, 1, 28, 107
3, 110330, Note_off_c, 1, 28, 64
3, 110400, Note_on_c, 1, 28, 93
3, 110565, Note_off_c, 1, 28, 64
3, 110720, Note_on_c, 1, 28, 102
3, 110825, Note_off_c, 1, 28, 64
3, 110880, Note_on_c, 1, 28, 107
3, 111105, Note_off_c, 1, 28, 64
3, 111200, Note_on_c, 1, 28, 93
3, 111360, Note_on_c, 1, 33, 107
3, 111390, Note_off_c, 1, 28, 64
3, 111510, Note_off_c, 1, 33, 64
3, 111680, Note_on_c, 1, 33, 102
3, 111780, Note_off_c, 1, 33, 64
3, 111840, Note_on_c, 1, 33, 93
3, 111965, Note_off_c, 1, 33, 64
3, 112160, Note_on_c, 1, 33, 102
3, 112260, Note_off_c, 1, 33, 64
3, 112320, Note_on_c, 1, 33, 93
3, 112465, Note_off_c, 1, 33, 64
3, 112640, Note_on_c, 1, 33, 107
3, 112730, Note_off_c, 1, 33, 64
3, 112800, Note_on_c, 1, 33, 93
3, 112940, Note_off_c, 1, 33, 64
3, 113120, Note_on_c, 1, 33, 107
3, 113265, Note_off_c, 1, 33, 64
3, 113280, Note_on_c, 1, 28, 102
3, 113440, Note_off_c, 1, 28, 64
3, 113600, Note_on_c, 1, 28, 98
3, 113695, Note_off_c, 1, 28, 64
3, 113760, Note_on_c, 1, 28, 102
3, 113895, Note_off_c, 1, 28, 64
3, 114080, Note_on_c, 1, 28, 93
3, 114170, Note_off_c, 1, 28, 64
3, 114240, Note_on_c, 1, 28, 93
3, 114350, Note_off_c, 1, 28, 64
3, 114560, Note_on_c, 1, 28, 93
3, 114690, Note_off_c, 1, 28, 64
3, 114720, Note_on_c, 1, 32, 89
3, 115025, Note_off_c, 1, 32, 64
3, 115040, Note_on_c, 1, 35, 89
3, 115185, Note_off_c, 1, 35, 64
3, 115200, Note_on_c, 1, 38, 98
3, 115385, Note_off_c, 1, 38, 64
3, 115520, Note_on_c, 1, 38, 98
3, 115625, Note_off_c, 1, 38, 64
3, 115680, Note_on_c, 1, 38, 89
3, 115800, Note_off_c, 1, 38, 64
3, 116000, Note_on_c, 1, 38, 93
3, 116090, Note_off_c, 1, 38, 64
3, 116160, Note_on_c, 1, 38, 93
3, 116300, Note_off_c, 1, 38, 64
3, 116480, Note_on_c, 1, 38, 98
3, 116580, Note_off_c, 1, 38, 64
3, 116640, Note_on_c, 1, 38, 93
3, 116815, Note_off_c, 1, 38, 64
3, 116960, Note_on_c, 1, 38, 102
3, 117065, Note_off_c, 1, 38, 64
3, 117120, Note_on_c, 1, 38, 98
3, 117270, Note_off_c, 1, 38, 64
3, 117440, Note_on_c, 1, 38, 107
3, 117580, Note_off_c, 1, 38, 64
3, 117600, Note_on_c, 1, 30, 102
3, 117760, Note_off_c, 1, 30, 64
3, 117920, Note_on_c, 1, 30, 93
3, 118050, Note_off_c, 1, 30, 64
3, 118080, Note_on_c, 1, 31, 80
3, 118255, Note_off_c, 1, 31, 64
3, 118400, Note_on_c, 1, 31, 113
3, 118555, Note_off_c, 1, 31, 64
3, 118560, Note_on_c, 1, 32, 102
3, 118705, Note_off_c, 1, 32, 64
3, 118880, Note_on_c, 1, 32, 113
3, 119020, Note_off_c, 1, 32, 64
3, 119040, Note_on_c, 1, 33, 107
3, 119225, Note_off_c, 1, 33, 64
3, 119360, Note_on_c, 1, 33, 113
3, 119470, Note_off_c, 1, 33, 64
3, 119520, Note_on_c, 1, 33, 102
3, 119670, Note_off_c, 1, 33, 64
3, 119840, Note_on_c, 1, 33, 113
3, 119945, Note_off_c, 1, 33, 64
3, 120000, Note_on_c, 1, 33, 93
3, 120165, Note_off_c, 1, 33, 64
3, 120320, Note_on_c, 1, 33, 113
3, 120410, Note_off_c, 1, 33, 64
3, 120480, Note_on_c, 1, 33, 89
3, 120645, Note_off_c, 1, 33, 64
3, 120800, Note_on_c, 1, 33, 113
3, 120955, Note_off_c, 1, 33, 64
3, 120960, Note_on_c, 1, 28, 98
3, 121155, Note_off_c, 1, 28, 64
3, 121280, Note_on_c, 1, 28, 93
3, 121380, Note_off_c, 1, 28, 64
3, 121440, Note_on_c, 1, 28, 89
3, 121580, Note_off_c, 1, 28, 64
3, 121760, Note_on_c, 1, 28, 89
3, 121845, Note_off_c, 1, 28, 64
3, 121920, Note_on_c, 1, 28, 89
3, 122035, Note_off_c, 1, 28, 64
3, 122240, Note_on_c, 1, 28, 93
3, 122330, Note_off_c, 1, 28, 64
3, 122400, Note_on_c, 1, 28, 85
3, 122510, Note_off_c, 1, 28, 64
3, 122720, Note_on_c, 1, 28, 93
3, 122880, Note_on_c, 1, 33, 107
3, 122890, Note_off_c, 1, 28, 64
3, 123315, Note_off_c, 1, 33, 64
3, 123360, Note_on_c, 1, 31, 102
3, 123810, Note_off_c, 1, 31, 64
3, 123840, Note_on_c, 1, 30, 85
3, 124310, Note_off_c, 1, 30, 64
3, 124320, Note_on_c, 1, 29, 98
3, 124750, Note_off_c, 1, 29, 64
3, 124800, Note_on_c, 1, 28, 98
3, 125210, Note_off_c, 1, 28, 64
3, 125280, Note_on_c, 1, 28, 102
3, 125385, Note_off_c, 1, 28, 64
3, 125600, Note_on_c, 1, 28, 107
3, 125935, Note_off_c, 1, 28, 64
3, 126080, Note_on_c, 1, 28, 93
3, 126155, Note_off_c, 1, 28, 64
3, 126240, Note_on_c, 1, 28, 93
3, 126560, Note_off_c, 1, 28, 64
3, 126560, Note_on_c, 1, 30, 93
3, 126720, Note_on_c, 1, 33, 113
3, 126725, Note_off_c, 1, 30, 64
3, 126825, Note_off_c, 1, 33, 64
3, 127040, Note_on_c, 1, 33, 85
3, 127125, Note_off_c, 1, 33, 64
3, 127200, Note_on_c, 1, 33, 98
3, 127335, Note_off_c, 1, 33, 64
3, 127520, Note_on_c, 1, 33, 93
3, 127600, Note_off_c, 1, 33, 64
3, 127680, Note_on_c, 1, 33, 98
3, 127790, Note_off_c, 1, 33, 64
3, 128000, Note_on_c, 1, 33, 102
3, 128140, Note_off_c, 1, 33, 64
3, 128160, Note_on_c, 1, 37, 102
3, 128470, Note_off_c, 1, 37, 64
3, 128480, Note_on_c, 1, 38, 80
3, 128640, Note_on_c, 1, 40, 102
3, 128645, Note_off_c, 1, 38, 64
3, 128770, Note_off_c, 1, 40, 64
3, 128960, Note_on_c, 1, 40, 93
3, 129040, Note_off_c, 1, 40, 64
3, 129120, Note_on_c, 1, 40, 85
3, 129245, Note_off_c, 1, 40, 64
3, 129440, Note_on_c, 1, 40, 102
3, 129525, Note_off_c, 1, 40, 64
3, 129600, Note_on_c, 1, 40, 76
3, 129755, Note_off_c, 1, 40, 64
3, 129920, Note_on_c, 1, 40, 98
3, 130015, Note_off_c, 1, 40, 64
3, 130080, Note_on_c, 1, 40, 93
3, 130235, Note_off_c, 1, 40, 64
3, 130400, Note_on_c, 1, 40, 107
3, 130545, Note_off_c, 1, 40, 64
3, 130560, Note_on_c, 1, 38, 102
3, 130720, Note_off_c, 1, 38, 64
3, 130880, Note_on_c, 1, 38, 102
3, 130970, Note_off_c, 1, 38, 64
3, 131040, Note_on_c, 1, 38, 93
3, 131170, Note_off_c, 1, 38, 64
3, 131360, Note_on_c, 1, 38, 107
3, 131455, Note_off_c, 1, 38, 64
3, 131520, Note_on_c, 1, 38, 102
3, 131670, Note_off_c, 1, 38, 64
3, 131840, Note_on_c, 1, 38, 107
3, 131935, Note_off_c, 1, 38, 64
3, 132000, Note_on_c, 1, 38, 102
3, 132150, Note_off_c, 1, 38, 64
3, 132320, Note_on_c, 1, 38, 107
3, 132410, Note_off_c, 1, 38, 64
3, 132480, Note_on_c, 1, 38, 93
3, 132690, Note_off_c, 1, 38, 64
3, 132800, Note_on_c, 1, 38, 93
3, 132900, Note_off_c, 1, 38, 64
3, 132960, Note_on_c, 1, 38, 98
3, 133110, Note_off_c, 1, 38, 64
3, 133280, Note_on_c, 1, 38, 107
3, 133375, Note_off_c, 1, 38, 64
3, 133440, Note_on_c, 1, 38, 89
3, 133610, Note_off_c, 1, 38, 64
3, 133760, Note_on_c, 1, 38, 113
3, 133915, Note_off_c, 1, 38, 64
3, 133920, Note_on_c, 1, 30, 93
3, 134050, Note_off_c, 1, 30, 64
3, 134080, Note_on_c, 1, 31, 102
3, 134230, Note_off_c, 1, 31, 64
3, 134240, Note_on_c, 1, 32, 85
3, 134400, Note_on_c, 1, 33, 107
3, 134405, Note_off_c, 1, 32, 64
3, 134560, Note_off_c, 1, 33, 64
3, 134720, Note_on_c, 1, 33, 107
3, 134830, Note_off_c, 1, 33, 64
3, 134880, Note_on_c, 1, 33, 102
3, 135010, Note_off_c, 1, 33, 64
3, 135200, Note_on_c, 1, 33, 107
3, 135320, Note_off_c, 1, 33, 64
3, 135360, Note_on_c, 1, 33, 93
3, 135480, Note_off_c, 1, 33, 64
3, 135680, Note_on_c, 1, 33, 113
3, 135785, Note_off_c, 1, 33, 64
3, 135840, Note_on_c, 1, 33, 98
3, 135975, Note_off_c, 1, 33, 64
3, 136160, Note_on_c, 1, 33, 107
3, 136315, Note_off_c, 1, 33, 64
3, 136320, Note_on_c, 1, 28, 98
3, 136485, Note_off_c, 1, 28, 64
3, 136640, Note_on_c, 1, 28, 89
3, 136750, Note_off_c, 1, 28, 64
3, 136800, Note_on_c, 1, 28, 89
3, 136930, Note_off_c, 1, 28, 64
3, 137120, Note_on_c, 1, 28, 89
3, 137230, Note_off_c, 1, 28, 64
3, 137280, Note_on_c, 1, 28, 85
3, 137425, Note_off_c, 1, 28, 64
3, 137600, Note_on_c, 1, 28, 98
3, 137690, Note_off_c, 1, 28, 64
3, 137760, Note_on_c, 1, 28, 89
3, 137890, Note_off_c, 1, 28, 64
3, 138080, Note_on_c, 1, 28, 93
3, 138235, Note_off_c, 1, 28, 64
3, 138240, Note_on_c, 1, 33, 102
3, 138430, Note_off_c, 1, 33, 64
3, 138560, Note_on_c, 1, 33, 107
3, 138705, Note_off_c, 1, 33, 64
3, 138720, Note_on_c, 1, 31, 102
3, 138900, Note_off_c, 1, 31, 64
3, 139040, Note_on_c, 1, 31, 107
3, 139200, Note_on_c, 1, 30, 107
3, 139220, Note_off_c, 1, 31, 64
3, 139415, Note_off_c, 1, 30, 64
3, 139520, Note_on_c, 1, 30, 107
3, 139655, Note_off_c, 1, 30, 64
3, 139680, Note_on_c, 1, 29, 98
3, 139865, Note_off_c, 1, 29, 64
3, 140000, Note_on_c, 1, 29, 89
3, 140145, Note_off_c, 1, 29, 64
3, 140160, Note_on_c, 1, 28, 89
3, 140355, Note_off_c, 1, 28, 64
3, 140480, Note_on_c, 1, 28, 102
3, 140575, Note_off_c, 1, 28, 64
3, 140640, Note_on_c, 1, 28, 89
3, 140780, Note_off_c, 1, 28, 64
3, 140960, Note_on_c, 1, 28, 113
3, 141055, Note_off_c, 1, 28, 64
3, 141120, Note_on_c, 1, 28, 80
3, 141295, Note_off_c, 1, 28, 64
3, 141440, Note_on_c, 1, 28, 93
3, 141525, Note_off_c, 1, 28, 64
3, 141600, Note_on_c, 1, 28, 98
3, 141740, Note_off_c, 1, 28, 64
3, 141920, Note_on_c, 1, 31, 48
3, 141920, Note_on_c, 1, 30, 102
3, 141985, Note_off_c, 1, 31, 64
3, 142050, Note_off_c, 1, 30, 64
3, 142080, Note_on_c, 1, 33, 119
3, 142220, Note_off_c, 1, 33, 64
3, 142400, Note_on_c, 1, 33, 93
3, 142505, Note_off_c, 1, 33, 64
3, 142560, Note_on_c, 1, 33, 113
3, 142705, Note_off_c, 1, 33, 64
3, 142880, Note_on_c, 1, 33, 93
3, 142965, Note_off_c, 1, 33, 64
3, 143040, Note_on_c, 1, 33, 89
3, 143165, Note_off_c, 1, 33, 64
3, 143360, Note_on_c, 1, 33, 107
3, 143505, Note_off_c, 1, 33, 64
3, 143520, Note_on_c, 1, 37, 98
3, 143840, Note_on_c, 1, 40, 89
3, 143845, Note_off_c, 1, 37, 64
3, 143985, Note_off_c, 1, 40, 64
3, 144000, Note_on_c, 1, 28, 98
3, 144145, Note_off_c, 1, 28, 64
3, 144320, Note_on_c, 1, 28, 98
3, 144440, Note_off_c, 1, 28, 64
3, 144480, Note_on_c, 1, 28, 89
3, 144620, Note_off_c, 1, 28, 64
3, 144800, Note_on_c, 1, 28, 98
3, 144900, Note_off_c, 1, 28, 64
3, 144960, Note_on_c, 1, 28, 85
3, 145125, Note_off_c, 1, 28, 64
3, 145280, Note_on_c, 1, 28, 102
3, 145425, Note_off_c, 1, 28, 64
3, 145440, Note_on_c, 1, 32, 102
3, 145750, Note_off_c, 1, 32, 64
3, 145760, Note_on_c, 1, 35, 93
3, 145920, Note_on_c, 1, 38, 98
3, 145930, Note_off_c, 1, 35, 64
3, 146080, Note_off_c, 1, 38, 64
3, 146240, Note_on_c, 1, 38, 107
3, 146350, Note_off_c, 1, 38, 64
3, 146400, Note_on_c, 1, 38, 93
3, 146595, Note_off_c, 1, 38, 64
3, 146720, Note_on_c, 1, 38, 98
3, 146800, Note_off_c, 1, 38, 64
3, 146880, Note_on_c, 1, 38, 93
3, 147055, Note_off_c, 1, 38, 64
3, 147200, Note_on_c, 1, 38, 57
3, 147300, Note_off_c, 1, 38, 64
3, 147360, Note_on_c, 1, 40, 98
3, 147360, Note_on_c, 1, 42, 59
3, 147440, Note_off_c, 1, 40, 64
3, 147650, Note_off_c, 1, 42, 64
3, 147680, Note_on_c, 1, 45, 89
3, 147820, Note_off_c, 1, 45, 64
3, 147840, Note_on_c, 1, 38, 98
3, 147990, Note_off_c, 1, 38, 64
3, 148160, Note_on_c, 1, 38, 113
3, 148320, Note_on_c, 1, 30, 102
3, 148325, Note_off_c, 1, 38, 64
3, 148525, Note_off_c, 1, 30, 64
3, 148640, Note_on_c, 1, 30, 93
3, 148795, Note_off_c, 1, 30, 64
3, 148800, Note_on_c, 1, 31, 107
3, 148975, Note_off_c, 1, 31, 64
3, 149120, Note_on_c, 1, 31, 102
3, 149270, Note_off_c, 1, 31, 64
3, 149280, Note_on_c, 1, 32, 102
3, 149435, Note_off_c, 1, 32, 64
3, 149600, Note_on_c, 1, 32, 107
3, 149735, Note_off_c, 1, 32, 64
3, 149760, Note_on_c, 1, 33, 102
3, 149925, Note_off_c, 1, 33, 64
3, 150080, Note_on_c, 1, 33, 107
3, 150215, Note_off_c, 1, 33, 64
3, 150240, Note_on_c, 1, 37, 113
3, 150430, Note_off_c, 1, 37, 64
3, 150560, Note_on_c, 1, 37, 89
3, 150700, Note_off_c, 1, 37, 64
3, 150720, Note_on_c, 1, 40, 89
3, 150905, Note_off_c, 1, 40, 64
3, 151040, Note_on_c, 1, 40, 93
3, 151175, Note_off_c, 1, 40, 64
3, 151200, Note_on_c, 1, 42, 85
3, 151520, Note_on_c, 1, 40, 93
3, 151545, Note_off_c, 1, 42, 64
3, 151680, Note_off_c, 1, 40, 64
3, 151680, Note_on_c, 1, 28, 93
3, 151835, Note_off_c, 1, 28, 64
3, 152000, Note_on_c, 1, 28, 107
3, 152085, Note_off_c, 1, 28, 64
3, 152160, Note_on_c, 1, 28, 93
3, 152335, Note_off_c, 1, 28, 64
3, 152480, Note_on_c, 1, 28, 93
3, 152580, Note_off_c, 1, 28, 64
3, 152640, Note_on_c, 1, 28, 89
3, 152800, Note_off_c, 1, 28, 64
3, 152960, Note_on_c, 1, 28, 93
3, 153035, Note_off_c, 1, 28, 64
3, 153120, Note_on_c, 1, 28, 89
3, 153410, Note_off_c, 1, 28, 64
3, 153440, Note_on_c, 1, 30, 107
3, 153545, Note_off_c, 1, 30, 64
3, 153600, Note_on_c, 1, 33, 107
3, 153845, Note_off_c, 1, 33, 64
3, 153920, Note_on_c, 1, 33, 93
3, 154055, Note_off_c, 1, 33, 64
3, 154080, Note_on_c, 1, 31, 107
3, 154350, Note_off_c, 1, 31, 64
3, 154400, Note_on_c, 1, 31, 89
3, 154530, Note_off_c, 1, 31, 64
3, 154560, Note_on_c, 1, 30, 98
3, 154810, Note_off_c, 1, 30, 64
3, 154880, Note_on_c, 1, 30, 98
3, 155020, Note_off_c, 1, 30, 64
3, 155040, Note_on_c, 1, 29, 107
3, 155230, Note_off_c, 1, 29, 64
3, 155360, Note_on_c, 1, 29, 89
3, 155475, Note_off_c, 1, 29, 64
3, 155520, Note_on_c, 1, 28, 102
3, 155735, Note_off_c, 1, 28, 64
3, 155840, Note_on_c, 1, 28, 102
3, 155945, Note_off_c, 1, 28, 64
3, 156000, Note_on_c, 1, 28, 98
3, 156190, Note_off_c, 1, 28, 64
3, 156320, Note_on_c, 1, 28, 102
3, 156425, Note_off_c, 1, 28, 64
3, 156480, Note_on_c, 1, 28, 89
3, 156640, Note_off_c, 1, 28, 64
3, 156800, Note_on_c, 1, 28, 102
3, 156890, Note_off_c, 1, 28, 64
3, 156960, Note_on_c, 1, 28, 98
3, 157195, Note_off_c, 1, 28, 64
3, 157280, Note_on_c, 1, 30, 102
3, 157430, Note_off_c, 1, 30, 64
3, 157440, Note_on_c, 1, 33, 119
3, 157555, Note_off_c, 1, 33, 64
3, 157760, Note_on_c, 1, 33, 107
3, 157860, Note_off_c, 1, 33, 64
3, 157920, Note_on_c, 1, 33, 107
3, 158085, Note_off_c, 1, 33, 64
3, 158240, Note_on_c, 1, 33, 107
3, 158335, Note_off_c, 1, 33, 64
3, 158400, Note_on_c, 1, 33, 93
3, 158565, Note_off_c, 1, 33, 64
3, 158720, Note_on_c, 1, 33, 107
3, 158860, Note_off_c, 1, 33, 64
3, 158880, Note_on_c, 1, 37, 98
3, 159180, Note_off_c, 1, 37, 64
3, 159200, Note_on_c, 1, 38, 93
3, 159360, Note_on_c, 1, 40, 107
3, 159380, Note_off_c, 1, 38, 64
3, 159485, Note_off_c, 1, 40, 64
3, 159680, Note_on_c, 1, 40, 107
3, 159775, Note_off_c, 1, 40, 64
3, 159840, Note_on_c, 1, 40, 102
3, 159980, Note_off_c, 1, 40, 64
3, 160160, Note_on_c, 1, 40, 98
3, 160250, Note_off_c, 1, 40, 64
3, 160320, Note_on_c, 1, 40, 102
3, 160495, Note_off_c, 1, 40, 64
3, 160640, Note_on_c, 1, 40, 93
3, 160720, Note_off_c, 1, 40, 64
3, 160800, Note_on_c, 1, 40, 107
3, 161110, Note_off_c, 1, 40, 64
3, 161120, Note_on_c, 1, 39, 107
3, 161265, Note_off_c, 1, 39, 64
3, 161280, Note_on_c, 1, 38, 102
3, 161470, Note_off_c, 1, 38, 64
3, 161600, Note_on_c, 1, 38, 102
3, 161700, Note_off_c, 1, 38, 64
3, 161760, Note_on_c, 1, 38, 98
3, 161915, Note_off_c, 1, 38, 64
3, 162080, Note_on_c, 1, 38, 89
3, 162175, Note_off_c, 1, 38, 64
3, 162240, Note_on_c, 1, 38, 89
3, 162365, Note_off_c, 1, 38, 64
3, 162560, Note_on_c, 1, 38, 98
3, 162670, Note_off_c, 1, 38, 64
3, 162720, Note_on_c, 1, 38, 76
3, 162910, Note_off_c, 1, 38, 64
3, 163040, Note_on_c, 1, 38, 93
3, 163140, Note_off_c, 1, 38, 64
3, 163200, Note_on_c, 1, 38, 89
3, 163365, Note_off_c, 1, 38, 64
3, 163520, Note_on_c, 1, 38, 98
3, 163680, Note_on_c, 1, 30, 102
3, 163695, Note_off_c, 1, 38, 64
3, 163840, Note_off_c, 1, 30, 64
3, 164000, Note_on_c, 1, 30, 85
3, 164160, Note_on_c, 1, 33, 98
3, 164190, Note_off_c, 1, 30, 64
3, 164320, Note_off_c, 1, 33, 64
3, 164480, Note_on_c, 1, 33, 89
3, 164640, Note_on_c, 1, 35, 93
3, 164645, Note_off_c, 1, 33, 64
3, 164815, Note_off_c, 1, 35, 64
3, 164960, Note_on_c, 1, 35, 102
3, 165105, Note_off_c, 1, 35, 64
3, 165120, Note_on_c, 1, 33, 98
3, 165270, Note_off_c, 1, 33, 64
3, 165440, Note_on_c, 1, 33, 113
3, 165540, Note_off_c, 1, 33, 64
3, 165600, Note_on_c, 1, 33, 102
3, 165760, Note_off_c, 1, 33, 64
3, 165920, Note_on_c, 1, 33, 107
3, 166015, Note_off_c, 1, 33, 64
3, 166080, Note_on_c, 1, 33, 93
3, 166270, Note_off_c, 1, 33, 64
3, 166400, Note_on_c, 1, 33, 93
3, 166495, Note_off_c, 1, 33, 64
3, 166560, Note_on_c, 1, 33, 98
3, 166700, Note_off_c, 1, 33, 64
3, 166880, Note_on_c, 1, 33, 93
3, 166990, Note_off_c, 1, 33, 64
3, 167040, Note_on_c, 1, 28, 89
3, 167185, Note_off_c, 1, 28, 64
3, 167360, Note_on_c, 1, 28, 98
3, 167520, Note_on_c, 1, 32, 107
3, 167545, Note_off_c, 1, 28, 64
3, 167700, Note_off_c, 1, 32, 64
3, 167840, Note_on_c, 1, 32, 102
3, 168000, Note_on_c, 1, 35, 93
3, 168005, Note_off_c, 1, 32, 64
3, 168145, Note_off_c, 1, 35, 64
3, 168320, Note_on_c, 1, 35, 98
3, 168475, Note_off_c, 1, 35, 64
3, 168480, Note_on_c, 1, 37, 102
3, 168765, Note_off_c, 1, 37, 64
3, 168800, Note_on_c, 1, 40, 89
3, 168960, Note_on_c, 1, 33, 107
3, 168965, Note_off_c, 1, 40, 64
3, 169095, Note_off_c, 1, 33, 64
3, 169280, Note_on_c, 1, 33, 107
3, 169430, Note_off_c, 1, 33, 64
3, 169440, Note_on_c, 1, 31, 98
3, 169630, Note_off_c, 1, 31, 64
3, 169760, Note_on_c, 1, 31, 98
3, 169920, Note_off_c, 1, 31, 64
3, 169920, Note_on_c, 1, 30, 98
3, 170135, Note_off_c, 1, 30, 64
3, 170240, Note_on_c, 1, 30, 107
3, 170395, Note_off_c, 1, 30, 64
3, 170400, Note_on_c, 1, 29, 80
3, 170645, Note_off_c, 1, 29, 64
3, 170720, Note_on_c, 1, 29, 98
3, 170865, Note_off_c, 1, 29, 64
3, 170880, Note_on_c, 1, 28, 102
3, 171040, Note_off_c, 1, 28, 64
3, 171360, Note_on_c, 1, 32, 127
3, 171595, Note_off_c, 1, 32, 64
3, 171680, Note_on_c, 1, 33, 119
3, 174600, Note_off_c, 1, 33, 64
3, 174720, Note_on_c, 1, 33, 127
3, 174870, Note_off_c, 1, 33, 64
3, 174870, End_track
4, 0, Start_track
4, 0, Title_t, "tk3"
4, 0, MIDI_port, 0
4, 0, Channel_prefix, 2
4, 0, Control_c, 2, 7, 118
4, 0, Control_c, 2, 10, 40
4, 480, Control_c, 2, 120, 0
4, 480, Control_c, 2, 121, 0
4, 580, Program_c, 2, 0
4, 580, Control_c, 2, 11, 127
4, 580, Control_c, 2, 91, 80
4, 590, Control_c, 2, 93, 0
4, 700, Control_c, 2, 7, 118
4, 700, Control_c, 2, 10, 40
4, 65280, Note_on_c, 2, 87, 113
4, 65280, Note_on_c, 2, 91, 107
4, 65280, Note_on_c, 2, 86, 113
4, 65330, Note_off_c, 2, 86, 64
4, 65345, Note_off_c, 2, 87, 64
4, 65350, Note_off_c, 2, 91, 64
4, 65440, Note_on_c, 2, 91, 89
4, 65440, Note_on_c, 2, 88, 80
4, 65500, Note_off_c, 2, 88, 64
4, 65510, Note_off_c, 2, 91, 64
4, 65600, Note_on_c, 2, 91, 89
4, 65600, Note_on_c, 2, 88, 93
4, 65665, Note_off_c, 2, 88, 64
4, 65685, Note_off_c, 2, 91, 64
4, 65760, Note_on_c, 2, 91, 93
4, 65760, Note_on_c, 2, 88, 93
4, 65820, Note_off_c, 2, 88, 64
4, 65840, Note_off_c, 2, 91, 64
4, 65920, Note_on_c, 2, 91, 89
4, 65920, Note_on_c, 2, 88, 93
4, 65985, Note_off_c, 2, 88, 64
4, 66005, Note_off_c, 2, 91, 64
4, 66080, Note_on_c, 2, 91, 89
4, 66080, Note_on_c, 2, 88, 89
4, 66155, Note_off_c, 2, 88, 64
4, 66165, Note_off_c, 2, 91, 64
4, 66240, Note_on_c, 2, 91, 93
4, 66240, Note_on_c, 2, 87, 102
4, 66240, Note_on_c, 2, 86, 80
4, 66295, Note_off_c, 2, 86, 64
4, 66310, Note_off_c, 2, 87, 64
4, 66315, Note_off_c, 2, 91, 64
4, 66400, Note_on_c, 2, 88, 80
4, 66400, Note_on_c, 2, 91, 85
4, 66470, Note_off_c, 2, 88, 64
4, 66480, Note_off_c, 2, 91, 64
4, 66560, Note_on_c, 2, 91, 93
4, 66560, Note_on_c, 2, 88, 93
4, 66625, Note_off_c, 2, 88, 64
4, 66650, Note_off_c, 2, 91, 64
4, 66720, Note_on_c, 2, 91, 89
4, 66720, Note_on_c, 2, 88, 93
4, 66795, Note_off_c, 2, 88, 64
4, 66800, Note_off_c, 2, 91, 64
4, 66880, Note_on_c, 2, 88, 89
4, 66880, Note_on_c, 2, 91, 89
4, 66950, Note_off_c, 2, 91, 64
4, 66950, Note_off_c, 2, 88, 64
4, 67040, Note_on_c, 2, 91, 89
4, 67040, Note_on_c, 2, 88, 76
4, 67105, Note_off_c, 2, 88, 64
4, 67110, Note_off_c, 2, 91, 64
4, 67200, Note_on_c, 2, 88, 93
4, 67285, Note_off_c, 2, 88, 64
4, 67360, Note_on_c, 2, 88, 76
4, 67455, Note_off_c, 2, 88, 64
4, 67520, Note_on_c, 2, 88, 85
4, 67520, Note_on_c, 2, 83, 98
4, 67600, Note_off_c, 2, 83, 64
4, 67615, Note_off_c, 2, 88, 64
4, 67680, Note_on_c, 2, 88, 85
4, 67680, Note_on_c, 2, 83, 89
4, 67750, Note_off_c, 2, 83, 64
4, 67765, Note_off_c, 2, 88, 64
4, 67840, Note_on_c, 2, 88, 85
4, 67840, Note_on_c, 2, 83, 89
4, 67910, Note_off_c, 2, 83, 64
4, 67925, Note_off_c, 2, 88, 64
4, 68000, Note_on_c, 2, 88, 76
4, 68000, Note_on_c, 2, 83, 89
4, 68075, Note_off_c, 2, 83, 64
4, 68085, Note_off_c, 2, 88, 64
4, 68160, Note_on_c, 2, 83, 85
4, 68160, Note_on_c, 2, 88, 68
4, 68250, Note_off_c, 2, 83, 64
4, 68255, Note_off_c, 2, 88, 64
4, 68320, Note_on_c, 2, 83, 76
4, 68320, Note_on_c, 2, 88, 72
4, 68405, Note_off_c, 2, 83, 64
4, 68415, Note_off_c, 2, 88, 64
4, 68480, Note_on_c, 2, 88, 64
4, 68480, Note_on_c, 2, 83, 72
4, 68555, Note_off_c, 2, 83, 64
4, 68560, Note_off_c, 2, 88, 64
4, 68640, Note_on_c, 2, 88, 72
4, 68640, Note_on_c, 2, 83, 76
4, 68710, Note_off_c, 2, 83, 64
4, 68720, Note_off_c, 2, 88, 64
4, 68800, Note_on_c, 2, 83, 76
4, 68800, Note_on_c, 2, 88, 62
4, 68870, Note_off_c, 2, 83, 64
4, 68875, Note_off_c, 2, 88, 64
4, 68960, Note_on_c, 2, 88, 72
4, 68960, Note_on_c, 2, 83, 76
4, 69045, Note_off_c, 2, 88, 64
4, 69050, Note_off_c, 2, 83, 64
4, 69120, Note_on_c, 2, 81, 80
4, 69120, Note_on_c, 2, 86, 89
4, 69215, Note_off_c, 2, 86, 64
4, 69235, Note_off_c, 2, 81, 64
4, 69280, Note_on_c, 2, 81, 64
4, 69280, Note_on_c, 2, 86, 68
4, 69375, Note_off_c, 2, 86, 64
4, 69380, Note_off_c, 2, 81, 64
4, 69440, Note_on_c, 2, 86, 85
4, 69440, Note_on_c, 2, 81, 76
4, 69530, Note_off_c, 2, 86, 64
4, 69540, Note_off_c, 2, 81, 64
4, 69600, Note_on_c, 2, 81, 72
4, 69600, Note_on_c, 2, 86, 89
4, 69685, Note_off_c, 2, 86, 64
4, 69690, Note_off_c, 2, 81, 64
4, 69760, Note_on_c, 2, 81, 72
4, 69760, Note_on_c, 2, 86, 89
4, 69845, Note_off_c, 2, 86, 64
4, 69850, Note_off_c, 2, 81, 64
4, 69920, Note_on_c, 2, 81, 76
4, 69920, Note_on_c, 2, 86, 93
4, 70005, Note_off_c, 2, 86, 64
4, 70010, Note_off_c, 2, 81, 64
4, 70080, Note_on_c, 2, 86, 89
4, 70080, Note_on_c, 2, 81, 68
4, 70160, Note_off_c, 2, 81, 64
4, 70165, Note_off_c, 2, 86, 64
4, 70240, Note_on_c, 2, 86, 89
4, 70240, Note_on_c, 2, 81, 68
4, 70315, Note_off_c, 2, 81, 64
4, 70325, Note_off_c, 2, 86, 64
4, 70400, Note_on_c, 2, 81, 62
4, 70400, Note_on_c, 2, 86, 80
4, 70475, Note_off_c, 2, 86, 64
4, 70475, Note_off_c, 2, 81, 64
4, 70560, Note_on_c, 2, 86, 89
4, 70560, Note_on_c, 2, 81, 64
4, 70625, Note_off_c, 2, 81, 64
4, 70630, Note_off_c, 2, 86, 64
4, 70720, Note_on_c, 2, 86, 80
4, 70720, Note_on_c, 2, 81, 56
4, 70770, Note_off_c, 2, 81, 64
4, 70790, Note_off_c, 2, 86, 64
4, 70880, Note_on_c, 2, 81, 62
4, 70880, Note_on_c, 2, 86, 72
4, 70960, Note_off_c, 2, 81, 64
4, 70965, Note_off_c, 2, 86, 64
4, 71040, Note_on_c, 2, 78, 107
4, 71200, Note_on_c, 2, 86, 93
4, 71205, Note_off_c, 2, 78, 64
4, 71360, Note_on_c, 2, 78, 107
4, 71420, Note_off_c, 2, 86, 64
4, 71520, Note_on_c, 2, 76, 102
4, 71550, Note_off_c, 2, 78, 64
4, 71680, Note_on_c, 2, 84, 93
4, 71760, Note_off_c, 2, 76, 64
4, 71840, Note_on_c, 2, 76, 80
4, 71935, Note_off_c, 2, 76, 64
4, 72000, Note_on_c, 2, 74, 102
4, 72035, Note_off_c, 2, 84, 64
4, 72160, Note_on_c, 2, 83, 89
4, 72195, Note_off_c, 2, 74, 64
4, 72320, Note_on_c, 2, 74, 72
4, 72425, Note_off_c, 2, 74, 64
4, 72480, Note_on_c, 2, 72, 102
4, 72490, Note_off_c, 2, 83, 64
4, 72640, Note_on_c, 2, 81, 76
4, 72660, Note_off_c, 2, 72, 64
4, 72800, Note_on_c, 2, 72, 93
4, 72870, Note_off_c, 2, 81, 64
4, 72930, Note_off_c, 2, 72, 64
4, 72960, Note_on_c, 2, 75, 98
4, 72960, Note_on_c, 2, 81, 93
4, 73060, Note_off_c, 2, 75, 64
4, 73070, Note_off_c, 2, 81, 64
4, 73120, Note_on_c, 2, 76, 76
4, 73120, Note_on_c, 2, 81, 72
4, 73190, Note_off_c, 2, 76, 64
4, 73220, Note_off_c, 2, 81, 64
4, 73280, Note_on_c, 2, 81, 76
4, 73280, Note_on_c, 2, 76, 80
4, 73370, Note_off_c, 2, 76, 64
4, 73385, Note_off_c, 2, 81, 64
4, 73440, Note_on_c, 2, 81, 72
4, 73440, Note_on_c, 2, 76, 89
4, 73520, Note_off_c, 2, 76, 64
4, 73535, Note_off_c, 2, 81, 64
4, 73600, Note_on_c, 2, 76, 72
4, 73600, Note_on_c, 2, 81, 72
4, 73690, Note_off_c, 2, 76, 64
4, 73705, Note_off_c, 2, 81, 64
4, 73760, Note_on_c, 2, 76, 89
4, 73760, Note_on_c, 2, 81, 76
4, 73830, Note_off_c, 2, 76, 64
4, 73840, Note_off_c, 2, 81, 64
4, 73920, Note_on_c, 2, 81, 76
4, 73920, Note_on_c, 2, 76, 89
4, 73995, Note_off_c, 2, 76, 64
4, 73995, Note_off_c, 2, 81, 64
4, 74080, Note_on_c, 2, 76, 68
4, 74080, Note_on_c, 2, 81, 64
4, 74160, Note_off_c, 2, 76, 64
4, 74180, Note_off_c, 2, 81, 64
4, 74240, Note_on_c, 2, 76, 80
4, 74240, Note_on_c, 2, 81, 68
4, 74310, Note_off_c, 2, 76, 64
4, 74325, Note_off_c, 2, 81, 64
4, 74400, Note_on_c, 2, 76, 76
4, 74400, Note_on_c, 2, 81, 72
4, 74465, Note_off_c, 2, 76, 64
4, 74475, Note_off_c, 2, 81, 64
4, 74560, Note_on_c, 2, 81, 62
4, 74560, Note_on_c, 2, 76, 76
4, 74630, Note_off_c, 2, 76, 64
4, 74650, Note_off_c, 2, 81, 64
4, 74720, Note_on_c, 2, 76, 89
4, 74720, Note_on_c, 2, 81, 64
4, 74775, Note_off_c, 2, 76, 64
4, 74790, Note_off_c, 2, 81, 64
4, 74880, Note_on_c, 2, 79, 113
4, 75000, Note_off_c, 2, 79, 64
4, 75040, Note_on_c, 2, 80, 93
4, 75200, Note_on_c, 2, 88, 102
4, 75290, Note_off_c, 2, 88, 64
4, 75290, Note_off_c, 2, 80, 64
4, 75360, Note_on_c, 2, 78, 102
4, 75360, Note_on_c, 2, 86, 98
4, 75460, Note_off_c, 2, 78, 64
4, 75520, Note_on_c, 2, 76, 102
4, 75620, Note_off_c, 2, 86, 64
4, 75635, Note_off_c, 2, 76, 64
4, 75680, Note_on_c, 2, 86, 72
4, 75680, Note_on_c, 2, 78, 93
4, 75790, Note_off_c, 2, 78, 64
4, 75790, Note_off_c, 2, 86, 64
4, 75840, Note_on_c, 2, 76, 59
4, 75840, Note_on_c, 2, 85, 107
4, 75920, Note_off_c, 2, 76, 64
4, 76000, Note_on_c, 2, 76, 102
4, 76005, Note_off_c, 2, 85, 64
4, 76160, Note_on_c, 2, 85, 102
4, 76240, Note_off_c, 2, 76, 64
4, 76250, Note_off_c, 2, 85, 64
4, 76320, Note_on_c, 2, 74, 80
4, 76320, Note_on_c, 2, 83, 89
4, 76390, Note_off_c, 2, 74, 64
4, 76480, Note_on_c, 2, 74, 89
4, 76565, Note_off_c, 2, 74, 64
4, 76630, Note_off_c, 2, 83, 64
4, 76640, Note_on_c, 2, 72, 107
4, 76800, Note_on_c, 2, 73, 107
4, 76840, Note_off_c, 2, 72, 64
4, 76960, Note_on_c, 2, 81, 93
4, 77020, Note_off_c, 2, 73, 64
4, 77120, Note_on_c, 2, 73, 93
4, 77280, Note_off_c, 2, 73, 64
4, 77280, Note_on_c, 2, 79, 93
4, 77600, Note_on_c, 2, 73, 89
4, 77700, Note_off_c, 2, 73, 64
4, 77720, Note_off_c, 2, 79, 64
4, 77760, Note_on_c, 2, 78, 98
4, 77905, Note_off_c, 2, 78, 64
4, 77920, Note_on_c, 2, 74, 93
4, 78080, Note_on_c, 2, 78, 85
4, 78155, Note_off_c, 2, 74, 64
4, 78185, Note_off_c, 2, 78, 64
4, 78240, Note_on_c, 2, 77, 107
4, 78380, Note_off_c, 2, 77, 64
4, 78400, Note_on_c, 2, 74, 80
4, 78560, Note_on_c, 2, 77, 76
4, 78610, Note_off_c, 2, 74, 64
4, 78685, Note_off_c, 2, 77, 64
4, 78720, Note_on_c, 2, 76, 93
4, 79045, Note_off_c, 2, 76, 64
4, 79200, Note_on_c, 2, 72, 89
4, 79200, Note_on_c, 2, 73, 98
4, 79280, Note_off_c, 2, 72, 64
4, 79435, Note_off_c, 2, 73, 64
4, 79520, Note_on_c, 2, 76, 89
4, 79840, Note_off_c, 2, 76, 64
4, 80000, Note_on_c, 2, 76, 93
4, 80060, Note_off_c, 2, 76, 64
4, 80160, Note_on_c, 2, 76, 93
4, 80320, Note_on_c, 2, 78, 93
4, 80335, Note_off_c, 2, 76, 64
4, 80410, Note_off_c, 2, 81, 64
4, 80480, Note_on_c, 2, 81, 80
4, 80505, Note_off_c, 2, 78, 64
4, 80555, Note_off_c, 2, 81, 64
4, 80640, Note_on_c, 2, 79, 98
4, 80640, Note_on_c, 2, 85, 107
4, 80695, Note_off_c, 2, 85, 64
4, 80705, Note_off_c, 2, 79, 64
4, 80800, Note_on_c, 2, 85, 98
4, 80800, Note_on_c, 2, 79, 80
4, 80855, Note_off_c, 2, 85, 64
4, 80860, Note_off_c, 2, 79, 64
4, 80960, Note_on_c, 2, 79, 98
4, 80960, Note_on_c, 2, 85, 98
4, 81020, Note_off_c, 2, 85, 64
4, 81040, Note_off_c, 2, 79, 64
4, 81120, Note_on_c, 2, 85, 107
4, 81120, Note_on_c, 2, 79, 89
4, 81190, Note_off_c, 2, 85, 64
4, 81200, Note_off_c, 2, 79, 64
4, 81280, Note_on_c, 2, 79, 76
4, 81280, Note_on_c, 2, 85, 93
4, 81345, Note_off_c, 2, 85, 64
4, 81360, Note_off_c, 2, 79, 64
4, 81440, Note_on_c, 2, 85, 102
4, 81440, Note_on_c, 2, 79, 85
4, 81505, Note_off_c, 2, 85, 64
4, 81520, Note_off_c, 2, 79, 64
4, 81600, Note_on_c, 2, 85, 102
4, 81600, Note_on_c, 2, 79, 76
4, 81665, Note_off_c, 2, 85, 64
4, 81670, Note_off_c, 2, 79, 64
4, 81760, Note_on_c, 2, 85, 102
4, 81760, Note_on_c, 2, 79, 76
4, 81825, Note_off_c, 2, 85, 64
4, 81840, Note_off_c, 2, 79, 64
4, 81920, Note_on_c, 2, 79, 72
4, 81920, Note_on_c, 2, 85, 98
4, 81990, Note_off_c, 2, 85, 64
4, 82005, Note_off_c, 2, 79, 64
4, 82080, Note_on_c, 2, 85, 107
4, 82080, Note_on_c, 2, 79, 80
4, 82140, Note_off_c, 2, 85, 64
4, 82160, Note_off_c, 2, 79, 64
4, 82240, Note_on_c, 2, 85, 93
4, 82240, Note_on_c, 2, 79, 60
4, 82305, Note_off_c, 2, 85, 64
4, 82310, Note_off_c, 2, 79, 64
4, 82400, Note_on_c, 2, 85, 89
4, 82400, Note_on_c, 2, 79, 93
4, 82465, Note_off_c, 2, 85, 64
4, 82485, Note_off_c, 2, 79, 64
4, 82560, Note_on_c, 2, 80, 98
4, 82560, Note_on_c, 2, 86, 89
4, 82630, Note_off_c, 2, 80, 64
4, 82655, Note_off_c, 2, 86, 64
4, 82720, Note_on_c, 2, 80, 72
4, 82720, Note_on_c, 2, 86, 68
4, 82790, Note_off_c, 2, 80, 64
4, 82805, Note_off_c, 2, 86, 64
4, 82880, Note_on_c, 2, 86, 72
4, 82880, Note_on_c, 2, 80, 89
4, 82960, Note_off_c, 2, 80, 64
4, 82975, Note_off_c, 2, 86, 64
4, 83040, Note_on_c, 2, 80, 93
4, 83040, Note_on_c, 2, 86, 76
4, 83110, Note_off_c, 2, 80, 64
4, 83120, Note_off_c, 2, 86, 64
4, 83200, Note_on_c, 2, 80, 89
4, 83200, Note_on_c, 2, 86, 72
4, 83270, Note_off_c, 2, 80, 64
4, 83280, Note_off_c, 2, 86, 64
4, 83360, Note_on_c, 2, 80, 89
4, 83360, Note_on_c, 2, 86, 76
4, 83420, Note_off_c, 2, 80, 64
4, 83435, Note_off_c, 2, 86, 64
4, 83520, Note_on_c, 2, 86, 85
4, 83520, Note_on_c, 2, 80, 93
4, 83580, Note_off_c, 2, 80, 64
4, 83590, Note_off_c, 2, 86, 64
4, 83680, Note_on_c, 2, 86, 76
4, 83680, Note_on_c, 2, 80, 89
4, 83745, Note_off_c, 2, 80, 64
4, 83750, Note_off_c, 2, 86, 64
4, 83840, Note_on_c, 2, 80, 76
4, 83840, Note_on_c, 2, 86, 72
4, 83905, Note_off_c, 2, 80, 64
4, 83910, Note_off_c, 2, 86, 64
4, 84000, Note_on_c, 2, 80, 89
4, 84000, Note_on_c, 2, 86, 89
4, 84070, Note_off_c, 2, 86, 64
4, 84070, Note_off_c, 2, 80, 64
4, 84160, Note_on_c, 2, 80, 89
4, 84160, Note_on_c, 2, 86, 72
4, 84230, Note_off_c, 2, 86, 64
4, 84230, Note_off_c, 2, 80, 64
4, 84320, Note_on_c, 2, 86, 72
4, 84320, Note_on_c, 2, 80, 85
4, 84385, Note_off_c, 2, 80, 64
4, 84385, Note_off_c, 2, 86, 64
4, 84480, Note_on_c, 2, 78, 102
4, 84480, Note_on_c, 2, 86, 93
4, 84540, Note_off_c, 2, 78, 64
4, 84560, Note_off_c, 2, 86, 64
4, 84640, Note_on_c, 2, 78, 85
4, 84640, Note_on_c, 2, 86, 89
4, 84705, Note_off_c, 2, 78, 64
4, 84720, Note_off_c, 2, 86, 64
4, 84800, Note_on_c, 2, 86, 72
4, 84800, Note_on_c, 2, 78, 93
4, 84875, Note_off_c, 2, 86, 64
4, 84890, Note_off_c, 2, 78, 64
4, 84960, Note_on_c, 2, 84, 93
4, 84960, Note_on_c, 2, 76, 107
4, 85030, Note_off_c, 2, 76, 64
4, 85045, Note_off_c, 2, 84, 64
4, 85120, Note_on_c, 2, 76, 80
4, 85120, Note_on_c, 2, 84, 89
4, 85195, Note_off_c, 2, 84, 64
4, 85195, Note_off_c, 2, 76, 64
4, 85280, Note_on_c, 2, 76, 76
4, 85280, Note_on_c, 2, 84, 89
4, 85350, Note_off_c, 2, 84, 64
4, 85355, Note_off_c, 2, 76, 64
4, 85440, Note_on_c, 2, 83, 89
4, 85440, Note_on_c, 2, 74, 93
4, 85510, Note_off_c, 2, 74, 64
4, 85515, Note_off_c, 2, 83, 64
4, 85600, Note_on_c, 2, 83, 89
4, 85600, Note_on_c, 2, 74, 76
4, 85670, Note_off_c, 2, 74, 64
4, 85675, Note_off_c, 2, 83, 64
4, 85760, Note_on_c, 2, 74, 72
4, 85760, Note_on_c, 2, 83, 85
4, 85835, Note_off_c, 2, 83, 64
4, 85835, Note_off_c, 2, 74, 64
4, 85920, Note_on_c, 2, 81, 93
4, 85920, Note_on_c, 2, 72, 89
4, 85990, Note_off_c, 2, 72, 64
4, 85995, Note_off_c, 2, 81, 64
4, 86080, Note_on_c, 2, 81, 80
4, 86080, Note_on_c, 2, 72, 76
4, 86145, Note_off_c, 2, 72, 64
4, 86150, Note_off_c, 2, 81, 64
4, 86240, Note_on_c, 2, 81, 93
4, 86240, Note_on_c, 2, 72, 80
4, 86315, Note_off_c, 2, 72, 64
4, 86315, Note_off_c, 2, 81, 64
4, 86400, Note_on_c, 2, 71, 93
4, 86400, Note_on_c, 2, 79, 93
4, 86470, Note_off_c, 2, 71, 64
4, 86475, Note_off_c, 2, 79, 64
4, 86560, Note_on_c, 2, 79, 93
4, 86560, Note_on_c, 2, 71, 68
4, 86630, Note_off_c, 2, 79, 64
4, 86635, Note_off_c, 2, 71, 64
4, 86720, Note_on_c, 2, 71, 76
4, 86720, Note_on_c, 2, 79, 89
4, 86795, Note_off_c, 2, 71, 64
4, 86805, Note_off_c, 2, 79, 64
4, 86880, Note_on_c, 2, 69, 93
4, 86880, Note_on_c, 2, 78, 98
4, 86945, Note_off_c, 2, 78, 64
4, 86955, Note_off_c, 2, 69, 64
4, 87040, Note_on_c, 2, 78, 89
4, 87040, Note_on_c, 2, 69, 60
4, 87110, Note_off_c, 2, 69, 64
4, 87110, Note_off_c, 2, 78, 64
4, 87200, Note_on_c, 2, 78, 93
4, 87200, Note_on_c, 2, 69, 68
4, 87270, Note_off_c, 2, 69, 64
4, 87270, Note_off_c, 2, 78, 64
4, 87360, Note_on_c, 2, 67, 98
4, 87360, Note_on_c, 2, 76, 85
4, 87430, Note_off_c, 2, 67, 64
4, 87435, Note_off_c, 2, 76, 64
4, 87520, Note_on_c, 2, 76, 89
4, 87520, Note_on_c, 2, 67, 85
4, 87585, Note_off_c, 2, 67, 64
4, 87585, Note_off_c, 2, 76, 64
4, 87680, Note_on_c, 2, 76, 89
4, 87680, Note_on_c, 2, 67, 85
4, 87740, Note_off_c, 2, 76, 64
4, 87760, Note_off_c, 2, 67, 64
4, 87840, Note_on_c, 2, 66, 98
4, 87840, Note_on_c, 2, 74, 98
4, 87900, Note_off_c, 2, 66, 64
4, 87920, Note_off_c, 2, 74, 64
4, 88000, Note_on_c, 2, 66, 76
4, 88000, Note_on_c, 2, 74, 76
4, 88055, Note_off_c, 2, 66, 64
4, 88065, Note_off_c, 2, 74, 64
4, 88160, Note_on_c, 2, 74, 89
4, 88160, Note_on_c, 2, 66, 80
4, 88235, Note_off_c, 2, 66, 64
4, 88235, Note_off_c, 2, 74, 64
4, 88320, Note_on_c, 2, 64, 93
4, 88320, Note_on_c, 2, 73, 98
4, 88445, Note_off_c, 2, 64, 64
4, 88520, Note_off_c, 2, 73, 64
4, 88800, Note_on_c, 2, 72, 102
4, 88800, Note_on_c, 2, 73, 113
4, 88880, Note_off_c, 2, 72, 64
4, 88940, Note_off_c, 2, 73, 64
4, 88960, Note_on_c, 2, 76, 85
4, 89070, Note_off_c, 2, 76, 64
4, 89120, Note_on_c, 2, 78, 107
4, 89225, Note_off_c, 2, 78, 64
4, 89280, Note_on_c, 2, 69, 107
4, 89280, Note_on_c, 2, 81, 93
4, 89280, Note_on_c, 2, 79, 93
4, 89300, Note_off_c, 2, 79, 64
4, 89460, Note_off_c, 2, 69, 64
4, 89600, Note_on_c, 2, 69, 72
4, 89645, Note_off_c, 2, 81, 64
4, 89645, Note_off_c, 2, 69, 64
4, 89760, Note_on_c, 2, 72, 107
4, 89760, Note_on_c, 2, 73, 102
4, 89890, Note_off_c, 2, 72, 64
4, 90010, Note_off_c, 2, 73, 64
4, 90080, Note_on_c, 2, 76, 107
4, 90225, Note_off_c, 2, 76, 64
4, 90240, Note_on_c, 2, 71, 102
4, 90315, Note_off_c, 2, 71, 64
4, 90560, Note_on_c, 2, 76, 80
4, 90640, Note_off_c, 2, 76, 64
4, 90720, Note_on_c, 2, 80, 60
4, 90720, Note_on_c, 2, 79, 93
4, 90790, Note_off_c, 2, 79, 64
4, 90845, Note_off_c, 2, 80, 64
4, 90880, Note_on_c, 2, 83, 93
4, 91040, Note_on_c, 2, 80, 107
4, 91045, Note_off_c, 2, 83, 64
4, 91185, Note_off_c, 2, 80, 64
4, 91200, Note_on_c, 2, 76, 89
4, 91380, Note_off_c, 2, 76, 64
4, 91520, Note_on_c, 2, 76, 119
4, 91655, Note_off_c, 2, 76, 64
4, 91680, Note_on_c, 2, 78, 93
4, 91830, Note_off_c, 2, 78, 64
4, 91840, Note_on_c, 2, 81, 93
4, 92000, Note_on_c, 2, 73, 102
4, 92000, Note_on_c, 2, 72, 68
4, 92050, Note_off_c, 2, 81, 64
4, 92055, Note_off_c, 2, 72, 64
4, 92160, Note_on_c, 2, 81, 93
4, 92180, Note_off_c, 2, 73, 64
4, 92480, Note_on_c, 2, 69, 102
4, 92625, Note_off_c, 2, 69, 64
4, 92640, Note_on_c, 2, 79, 102
4, 92960, Note_on_c, 2, 69, 76
4, 93000, Note_off_c, 2, 79, 64
4, 93120, Note_on_c, 2, 78, 113
4, 93190, Note_off_c, 2, 69, 64
4, 93440, Note_off_c, 2, 78, 64
4, 93440, Note_on_c, 2, 69, 89
4, 93540, Note_off_c, 2, 69, 64
4, 93600, Note_on_c, 2, 76, 93
4, 93600, Note_on_c, 2, 77, 102
4, 93665, Note_off_c, 2, 76, 64
4, 93890, Note_off_c, 2, 77, 64
4, 93920, Note_on_c, 2, 69, 89
4, 94045, Note_off_c, 2, 69, 64
4, 94080, Note_on_c, 2, 76, 80
4, 94240, Note_off_c, 2, 76, 64
4, 94240, Note_on_c, 2, 72, 93
4, 94370, Note_off_c, 2, 72, 64
4, 94400, Note_on_c, 2, 73, 85
4, 94560, Note_on_c, 2, 76, 102
4, 94565, Note_off_c, 2, 73, 64
4, 95110, Note_off_c, 2, 76, 64
4, 95115, Note_off_c, 2, 81, 64
4, 95200, Note_on_c, 2, 76, 107
4, 95315, Note_off_c, 2, 76, 64
4, 95360, Note_on_c, 2, 78, 102
4, 95500, Note_off_c, 2, 78, 64
4, 95520, Note_on_c, 2, 81, 98
4, 95660, Note_off_c, 2, 81, 64
4, 95680, Note_on_c, 2, 78, 107
4, 95840, Note_on_c, 2, 76, 72
4, 95855, Note_off_c, 2, 78, 64
4, 95890, Note_off_c, 2, 76, 64
4, 96000, Note_on_c, 2, 88, 107
4, 96000, Note_on_c, 2, 85, 55
4, 96000, Note_on_c, 2, 84, 119
4, 96000, Note_on_c, 2, 83, 68
4, 96020, Note_off_c, 2, 83, 64
4, 96060, Note_off_c, 2, 84, 64
4, 96095, Note_off_c, 2, 88, 64
4, 96100, Note_off_c, 2, 85, 64
4, 96160, Note_on_c, 2, 88, 59
4, 96160, Note_on_c, 2, 85, 72
4, 96205, Note_off_c, 2, 88, 64
4, 96230, Note_off_c, 2, 85, 64
4, 96320, Note_on_c, 2, 88, 89
4, 96320, Note_on_c, 2, 85, 107
4, 96385, Note_off_c, 2, 88, 64
4, 96390, Note_off_c, 2, 85, 64
4, 96480, Note_on_c, 2, 85, 107
4, 96480, Note_on_c, 2, 88, 89
4, 96545, Note_off_c, 2, 85, 64
4, 96555, Note_off_c, 2, 88, 64
4, 96640, Note_on_c, 2, 85, 107
4, 96640, Note_on_c, 2, 88, 89
4, 96705, Note_off_c, 2, 85, 64
4, 96710, Note_off_c, 2, 88, 64
4, 96800, Note_on_c, 2, 85, 113
4, 96800, Note_on_c, 2, 88, 93
4, 96860, Note_off_c, 2, 85, 64
4, 96865, Note_off_c, 2, 88, 64
4, 96960, Note_on_c, 2, 85, 107
4, 96960, Note_on_c, 2, 88, 85
4, 97015, Note_off_c, 2, 85, 64
4, 97020, Note_off_c, 2, 88, 64
4, 97120, Note_on_c, 2, 85, 102
4, 97120, Note_on_c, 2, 88, 89
4, 97185, Note_off_c, 2, 85, 64
4, 97195, Note_off_c, 2, 88, 64
4, 97280, Note_on_c, 2, 85, 102
4, 97280, Note_on_c, 2, 88, 85
4, 97340, Note_off_c, 2, 85, 64
4, 97345, Note_off_c, 2, 88, 64
4, 97440, Note_on_c, 2, 88, 89
4, 97440, Note_on_c, 2, 85, 102
4, 97505, Note_off_c, 2, 85, 64
4, 97510, Note_off_c, 2, 88, 64
4, 97600, Note_on_c, 2, 85, 98
4, 97600, Note_on_c, 2, 88, 85
4, 97655, Note_off_c, 2, 85, 64
4, 97665, Note_off_c, 2, 88, 64
4, 97760, Note_on_c, 2, 85, 102
4, 97760, Note_on_c, 2, 88, 89
4, 97830, Note_off_c, 2, 88, 64
4, 97840, Note_off_c, 2, 85, 64
4, 97920, Note_on_c, 2, 88, 85
4, 97920, Note_on_c, 2, 83, 98
4, 97985, Note_off_c, 2, 83, 64
4, 98005, Note_off_c, 2, 88, 64
4, 98080, Note_on_c, 2, 88, 85
4, 98080, Note_on_c, 2, 83, 93
4, 98150, Note_off_c, 2, 83, 64
4, 98165, Note_off_c, 2, 88, 64
4, 98240, Note_on_c, 2, 88, 85
4, 98240, Note_on_c, 2, 83, 93
4, 98310, Note_off_c, 2, 83, 64
4, 98320, Note_off_c, 2, 88, 64
4, 98400, Note_on_c, 2, 88, 89
4, 98400, Note_on_c, 2, 83, 98
4, 98460, Note_off_c, 2, 83, 64
4, 98475, Note_off_c, 2, 88, 64
4, 98560, Note_on_c, 2, 83, 89
4, 98560, Note_on_c, 2, 88, 85
4, 98620, Note_off_c, 2, 83, 64
4, 98640, Note_off_c, 2, 88, 64
4, 98720, Note_on_c, 2, 83, 93
4, 98720, Note_on_c, 2, 88, 89
4, 98785, Note_off_c, 2, 83, 64
4, 98805, Note_off_c, 2, 88, 64
4, 98880, Note_on_c, 2, 88, 85
4, 98880, Note_on_c, 2, 83, 93
4, 98945, Note_off_c, 2, 83, 64
4, 98960, Note_off_c, 2, 88, 64
4, 99040, Note_on_c, 2, 83, 89
4, 99040, Note_on_c, 2, 88, 85
4, 99105, Note_off_c, 2, 83, 64
4, 99120, Note_off_c, 2, 88, 64
4, 99200, Note_on_c, 2, 88, 85
4, 99200, Note_on_c, 2, 83, 93
4, 99265, Note_off_c, 2, 83, 64
4, 99275, Note_off_c, 2, 88, 64
4, 99360, Note_on_c, 2, 88, 89
4, 99360, Note_on_c, 2, 83, 93
4, 99420, Note_off_c, 2, 83, 64
4, 99440, Note_off_c, 2, 88, 64
4, 99520, Note_on_c, 2, 83, 93
4, 99520, Note_on_c, 2, 88, 89
4, 99580, Note_off_c, 2, 83, 64
4, 99585, Note_off_c, 2, 88, 64
4, 99680, Note_on_c, 2, 83, 102
4, 99680, Note_on_c, 2, 88, 89
4, 99755, Note_off_c, 2, 83, 64
4, 99760, Note_off_c, 2, 88, 64
4, 99840, Note_on_c, 2, 86, 102
4, 99840, Note_on_c, 2, 81, 89
4, 99925, Note_off_c, 2, 86, 64
4, 99935, Note_off_c, 2, 81, 64
4, 100000, Note_on_c, 2, 81, 64
4, 100000, Note_on_c, 2, 86, 80
4, 100065, Note_off_c, 2, 86, 64
4, 100080, Note_off_c, 2, 81, 64
4, 100160, Note_on_c, 2, 81, 76
4, 100160, Note_on_c, 2, 86, 93
4, 100235, Note_off_c, 2, 86, 64
4, 100235, Note_off_c, 2, 81, 64
4, 100320, Note_on_c, 2, 86, 89
4, 100320, Note_on_c, 2, 81, 76
4, 100395, Note_off_c, 2, 81, 64
4, 100395, Note_off_c, 2, 86, 64
4, 100480, Note_on_c, 2, 86, 89
4, 100480, Note_on_c, 2, 81, 72
4, 100555, Note_off_c, 2, 81, 64
4, 100555, Note_off_c, 2, 86, 64
4, 100640, Note_on_c, 2, 86, 89
4, 100640, Note_on_c, 2, 81, 76
4, 100720, Note_off_c, 2, 86, 64
4, 100725, Note_off_c, 2, 81, 64
4, 100800, Note_on_c, 2, 86, 89
4, 100800, Note_on_c, 2, 81, 76
4, 100880, Note_off_c, 2, 81, 64
4, 100880, Note_off_c, 2, 86, 64
4, 100960, Note_on_c, 2, 86, 89
4, 100960, Note_on_c, 2, 81, 76
4, 101045, Note_off_c, 2, 81, 64
4, 101045, Note_off_c, 2, 86, 64
4, 101120, Note_on_c, 2, 81, 72
4, 101120, Note_on_c, 2, 86, 85
4, 101195, Note_off_c, 2, 86, 64
4, 101200, Note_off_c, 2, 81, 64
4, 101280, Note_on_c, 2, 81, 72
4, 101280, Note_on_c, 2, 86, 93
4, 101355, Note_off_c, 2, 86, 64
4, 101360, Note_off_c, 2, 81, 64
4, 101440, Note_on_c, 2, 86, 89
4, 101440, Note_on_c, 2, 81, 64
4, 101515, Note_off_c, 2, 81, 64
4, 101520, Note_off_c, 2, 86, 64
4, 101600, Note_on_c, 2, 81, 76
4, 101600, Note_on_c, 2, 86, 89
4, 101675, Note_off_c, 2, 86, 64
4, 101680, Note_off_c, 2, 81, 64
4, 101760, Note_on_c, 2, 81, 72
4, 101760, Note_on_c, 2, 86, 93
4, 101840, Note_off_c, 2, 86, 64
4, 101845, Note_off_c, 2, 81, 64
4, 101920, Note_on_c, 2, 86, 93
4, 101920, Note_on_c, 2, 81, 72
4, 101995, Note_off_c, 2, 81, 64
4, 102000, Note_off_c, 2, 86, 64
4, 102080, Note_on_c, 2, 81, 72
4, 102080, Note_on_c, 2, 86, 89
4, 102155, Note_off_c, 2, 86, 64
4, 102155, Note_off_c, 2, 81, 64
4, 102240, Note_on_c, 2, 81, 68
4, 102240, Note_on_c, 2, 86, 89
4, 102315, Note_off_c, 2, 86, 64
4, 102320, Note_off_c, 2, 81, 64
4, 102400, Note_on_c, 2, 86, 93
4, 102400, Note_on_c, 2, 81, 76
4, 102480, Note_off_c, 2, 81, 64
4, 102480, Note_off_c, 2, 86, 64
4, 102560, Note_on_c, 2, 86, 89
4, 102560, Note_on_c, 2, 81, 72
4, 102640, Note_off_c, 2, 81, 64
4, 102640, Note_off_c, 2, 86, 64
4, 102720, Note_on_c, 2, 81, 72
4, 102720, Note_on_c, 2, 86, 89
4, 102795, Note_off_c, 2, 86, 64
4, 102795, Note_off_c, 2, 81, 64
4, 102880, Note_on_c, 2, 81, 68
4, 102880, Note_on_c, 2, 86, 89
4, 102955, Note_off_c, 2, 86, 64
4, 102955, Note_off_c, 2, 81, 64
4, 103040, Note_on_c, 2, 86, 89
4, 103040, Note_on_c, 2, 81, 68
4, 103110, Note_off_c, 2, 81, 64
4, 103110, Note_off_c, 2, 86, 64
4, 103200, Note_on_c, 2, 81, 76
4, 103200, Note_on_c, 2, 86, 93
4, 103270, Note_off_c, 2, 86, 64
4, 103270, Note_off_c, 2, 81, 64
4, 103360, Note_on_c, 2, 86, 85
4, 103360, Note_on_c, 2, 81, 62
4, 103425, Note_off_c, 2, 81, 64
4, 103430, Note_off_c, 2, 86, 64
4, 103520, Note_on_c, 2, 86, 85
4, 103520, Note_on_c, 2, 81, 62
4, 103600, Note_off_c, 2, 81, 64
4, 103610, Note_off_c, 2, 86, 64
4, 103680, Note_on_c, 2, 85, 59
4, 103680, Note_on_c, 2, 84, 102
4, 103750, Note_off_c, 2, 84, 64
4, 103840, Note_on_c, 2, 88, 85
4, 103875, Note_off_c, 2, 85, 64
4, 103920, Note_off_c, 2, 88, 64
4, 104000, Note_on_c, 2, 88, 89
4, 104000, Note_on_c, 2, 85, 98
4, 104065, Note_off_c, 2, 85, 64
4, 104075, Note_off_c, 2, 88, 64
4, 104160, Note_on_c, 2, 88, 89
4, 104160, Note_on_c, 2, 85, 93
4, 104225, Note_off_c, 2, 85, 64
4, 104235, Note_off_c, 2, 88, 64
4, 104320, Note_on_c, 2, 88, 80
4, 104320, Note_on_c, 2, 85, 85
4, 104385, Note_off_c, 2, 85, 64
4, 104390, Note_off_c, 2, 88, 64
4, 104480, Note_on_c, 2, 85, 98
4, 104480, Note_on_c, 2, 88, 76
4, 104545, Note_off_c, 2, 88, 64
4, 104545, Note_off_c, 2, 85, 64
4, 104640, Note_on_c, 2, 88, 72
4, 104640, Note_on_c, 2, 85, 93
4, 104705, Note_off_c, 2, 85, 64
4, 104705, Note_off_c, 2, 88, 64
4, 104800, Note_on_c, 2, 88, 76
4, 104800, Note_on_c, 2, 85, 85
4, 104850, Note_off_c, 2, 85, 64
4, 104855, Note_off_c, 2, 88, 64
4, 104960, Note_on_c, 2, 88, 85
4, 104960, Note_on_c, 2, 85, 93
4, 105005, Note_off_c, 2, 85, 64
4, 105015, Note_off_c, 2, 88, 64
4, 105120, Note_on_c, 2, 85, 107
4, 105120, Note_on_c, 2, 88, 102
4, 105230, Note_off_c, 2, 85, 64
4, 105280, Note_off_c, 2, 88, 64
4, 105280, Note_on_c, 2, 81, 93
4, 105385, Note_off_c, 2, 81, 64
4, 105440, Note_on_c, 2, 78, 113
4, 105530, Note_off_c, 2, 78, 64
4, 105600, Note_on_c, 2, 83, 98
4, 105600, Note_on_c, 2, 80, 102
4, 105675, Note_off_c, 2, 80, 64
4, 105685, Note_off_c, 2, 83, 64
4, 105760, Note_on_c, 2, 80, 93
4, 105760, Note_on_c, 2, 83, 76
4, 105830, Note_off_c, 2, 80, 64
4, 105835, Note_off_c, 2, 83, 64
4, 105920, Note_on_c, 2, 83, 89
4, 105920, Note_on_c, 2, 80, 102
4, 105990, Note_off_c, 2, 80, 64
4, 105990, Note_off_c, 2, 83, 64
4, 106080, Note_on_c, 2, 83, 89
4, 106080, Note_on_c, 2, 80, 93
4, 106140, Note_off_c, 2, 80, 64
4, 106150, Note_off_c, 2, 83, 64
4, 106240, Note_on_c, 2, 80, 89
4, 106240, Note_on_c, 2, 83, 85
4, 106300, Note_off_c, 2, 80, 64
4, 106305, Note_off_c, 2, 83, 64
4, 106400, Note_on_c, 2, 83, 89
4, 106400, Note_on_c, 2, 80, 89
4, 106460, Note_off_c, 2, 80, 64
4, 106480, Note_off_c, 2, 83, 64
4, 106560, Note_on_c, 2, 84, 102
4, 106560, Note_on_c, 2, 85, 98
4, 106615, Note_off_c, 2, 84, 64
4, 106705, Note_off_c, 2, 85, 64
4, 106720, Note_on_c, 2, 88, 98
4, 106810, Note_off_c, 2, 88, 64
4, 106880, Note_on_c, 2, 88, 62
4, 106880, Note_on_c, 2, 85, 113
4, 106990, Note_off_c, 2, 85, 64
4, 107020, Note_off_c, 2, 88, 64
4, 107040, Note_on_c, 2, 83, 93
4, 107040, Note_on_c, 2, 88, 48
4, 107170, Note_off_c, 2, 88, 64
4, 107170, Note_off_c, 2, 83, 64
4, 107200, Note_on_c, 2, 81, 89
4, 107280, Note_off_c, 2, 81, 64
4, 107360, Note_on_c, 2, 78, 107
4, 107505, Note_off_c, 2, 78, 64
4, 108000, Note_on_c, 2, 81, 107
4, 108000, Note_on_c, 2, 79, 119
4, 108215, Note_off_c, 2, 79, 64
4, 108215, Note_off_c, 2, 81, 64
4, 108320, Note_on_c, 2, 79, 113
4, 108320, Note_on_c, 2, 81, 107
4, 108420, Note_off_c, 2, 79, 64
4, 108480, Note_on_c, 2, 78, 93
4, 108625, Note_off_c, 2, 81, 64
4, 108630, Note_off_c, 2, 78, 64
4, 108800, Note_on_c, 2, 81, 113
4, 108800, Note_on_c, 2, 78, 113
4, 108915, Note_off_c, 2, 81, 64
4, 108920, Note_off_c, 2, 78, 64
4, 108960, Note_on_c, 2, 77, 98
4, 108960, Note_on_c, 2, 81, 80
4, 109110, Note_off_c, 2, 81, 64
4, 109110, Note_off_c, 2, 77, 64
4, 109280, Note_on_c, 2, 77, 102
4, 109280, Note_on_c, 2, 81, 98
4, 109370, Note_off_c, 2, 81, 64
4, 109375, Note_off_c, 2, 77, 64
4, 109440, Note_on_c, 2, 81, 76
4, 109440, Note_on_c, 2, 76, 107
4, 109560, Note_off_c, 2, 76, 64
4, 109600, Note_on_c, 2, 72, 89
4, 109725, Note_off_c, 2, 72, 64
4, 109760, Note_on_c, 2, 73, 102
4, 109915, Note_off_c, 2, 73, 64
4, 109920, Note_on_c, 2, 76, 102
4, 110080, Note_on_c, 2, 73, 102
4, 110100, Note_off_c, 2, 76, 64
4, 110185, Note_off_c, 2, 81, 64
4, 110215, Note_off_c, 2, 73, 64
4, 110400, Note_on_c, 2, 71, 113
4, 110400, Note_on_c, 2, 76, 107
4, 110460, Note_off_c, 2, 76, 64
4, 110470, Note_off_c, 2, 71, 64
4, 110560, Note_on_c, 2, 71, 93
4, 110560, Note_on_c, 2, 76, 89
4, 110620, Note_off_c, 2, 71, 64
4, 110625, Note_off_c, 2, 76, 64
4, 110720, Note_on_c, 2, 76, 102
4, 110720, Note_on_c, 2, 71, 107
4, 110775, Note_off_c, 2, 71, 64
4, 110780, Note_off_c, 2, 76, 64
4, 110880, Note_on_c, 2, 71, 113
4, 110880, Note_on_c, 2, 76, 102
4, 111010, Note_off_c, 2, 76, 64
4, 111015, Note_off_c, 2, 71, 64
4, 111040, Note_on_c, 2, 69, 98
4, 111135, Note_off_c, 2, 69, 64
4, 111200, Note_on_c, 2, 66, 107
4, 111295, Note_off_c, 2, 66, 64
4, 111360, Note_on_c, 2, 64, 107
4, 111360, Note_on_c, 2, 69, 107
4, 111450, Note_off_c, 2, 64, 64
4, 111465, Note_off_c, 2, 69, 64
4, 142080, Note_on_c, 2, 86, 113
4, 142080, Note_on_c, 2, 91, 107
4, 142080, Note_on_c, 2, 87, 113
4, 142130, Note_off_c, 2, 86, 64
4, 142145, Note_off_c, 2, 87, 64
4, 142150, Note_off_c, 2, 91, 64
4, 142240, Note_on_c, 2, 88, 80
4, 142240, Note_on_c, 2, 91, 89
4, 142300, Note_off_c, 2, 88, 64
4, 142310, Note_off_c, 2, 91, 64
4, 142400, Note_on_c, 2, 91, 89
4, 142400, Note_on_c, 2, 88, 93
4, 142465, Note_off_c, 2, 88, 64
4, 142485, Note_off_c, 2, 91, 64
4, 142560, Note_on_c, 2, 88, 93
4, 142560, Note_on_c, 2, 91, 93
4, 142620, Note_off_c, 2, 88, 64
4, 142640, Note_off_c, 2, 91, 64
4, 142720, Note_on_c, 2, 88, 93
4, 142720, Note_on_c, 2, 91, 89
4, 142785, Note_off_c, 2, 88, 64
4, 142805, Note_off_c, 2, 91, 64
4, 142880, Note_on_c, 2, 91, 89
4, 142880, Note_on_c, 2, 88, 89
4, 142955, Note_off_c, 2, 88, 64
4, 142965, Note_off_c, 2, 91, 64
4, 143040, Note_on_c, 2, 86, 80
4, 143040, Note_on_c, 2, 87, 102
4, 143040, Note_on_c, 2, 91, 93
4, 143095, Note_off_c, 2, 86, 64
4, 143110, Note_off_c, 2, 87, 64
4, 143115, Note_off_c, 2, 91, 64
4, 143200, Note_on_c, 2, 91, 85
4, 143200, Note_on_c, 2, 88, 80
4, 143270, Note_off_c, 2, 88, 64
4, 143280, Note_off_c, 2, 91, 64
4, 143360, Note_on_c, 2, 91, 93
4, 143360, Note_on_c, 2, 88, 93
4, 143425, Note_off_c, 2, 88, 64
4, 143450, Note_off_c, 2, 91, 64
4, 143520, Note_on_c, 2, 88, 93
4, 143520, Note_on_c, 2, 91, 89
4, 143595, Note_off_c, 2, 88, 64
4, 143600, Note_off_c, 2, 91, 64
4, 143680, Note_on_c, 2, 88, 89
4, 143680, Note_on_c, 2, 91, 89
4, 143750, Note_off_c, 2, 91, 64
4, 143750, Note_off_c, 2, 88, 64
4, 143840, Note_on_c, 2, 88, 76
4, 143840, Note_on_c, 2, 91, 89
4, 143905, Note_off_c, 2, 88, 64
4, 143910, Note_off_c, 2, 91, 64
4, 144000, Note_on_c, 2, 81, 85
4, 144000, Note_on_c, 2, 82, 107
4, 144000, Note_on_c, 2, 88, 93
4, 144055, Note_off_c, 2, 81, 64
4, 144085, Note_off_c, 2, 88, 64
4, 144090, Note_off_c, 2, 82, 64
4, 144160, Note_on_c, 2, 83, 85
4, 144160, Note_on_c, 2, 88, 76
4, 144250, Note_off_c, 2, 83, 64
4, 144255, Note_off_c, 2, 88, 64
4, 144320, Note_on_c, 2, 88, 85
4, 144320, Note_on_c, 2, 83, 98
4, 144400, Note_off_c, 2, 83, 64
4, 144415, Note_off_c, 2, 88, 64
4, 144480, Note_on_c, 2, 88, 85
4, 144480, Note_on_c, 2, 83, 89
4, 144550, Note_off_c, 2, 83, 64
4, 144565, Note_off_c, 2, 88, 64
4, 144640, Note_on_c, 2, 88, 85
4, 144640, Note_on_c, 2, 83, 89
4, 144710, Note_off_c, 2, 83, 64
4, 144725, Note_off_c, 2, 88, 64
4, 144800, Note_on_c, 2, 88, 76
4, 144800, Note_on_c, 2, 83, 89
4, 144875, Note_off_c, 2, 83, 64
4, 144885, Note_off_c, 2, 88, 64
4, 144960, Note_on_c, 2, 88, 68
4, 144960, Note_on_c, 2, 83, 85
4, 145050, Note_off_c, 2, 83, 64
4, 145055, Note_off_c, 2, 88, 64
4, 145120, Note_on_c, 2, 83, 76
4, 145120, Note_on_c, 2, 88, 72
4, 145205, Note_off_c, 2, 83, 64
4, 145215, Note_off_c, 2, 88, 64
4, 145280, Note_on_c, 2, 83, 72
4, 145280, Note_on_c, 2, 88, 64
4, 145355, Note_off_c, 2, 83, 64
4, 145360, Note_off_c, 2, 88, 64
4, 145440, Note_on_c, 2, 88, 72
4, 145440, Note_on_c, 2, 83, 76
4, 145510, Note_off_c, 2, 83, 64
4, 145520, Note_off_c, 2, 88, 64
4, 145600, Note_on_c, 2, 88, 62
4, 145600, Note_on_c, 2, 83, 76
4, 145670, Note_off_c, 2, 83, 64
4, 145675, Note_off_c, 2, 88, 64
4, 145760, Note_on_c, 2, 88, 72
4, 145760, Note_on_c, 2, 83, 76
4, 145845, Note_off_c, 2, 88, 64
4, 145850, Note_off_c, 2, 83, 64
4, 145920, Note_on_c, 2, 86, 89
4, 145920, Note_on_c, 2, 81, 80
4, 146015, Note_off_c, 2, 86, 64
4, 146035, Note_off_c, 2, 81, 64
4, 146080, Note_on_c, 2, 81, 64
4, 146080, Note_on_c, 2, 86, 68
4, 146175, Note_off_c, 2, 86, 64
4, 146180, Note_off_c, 2, 81, 64
4, 146240, Note_on_c, 2, 86, 85
4, 146240, Note_on_c, 2, 81, 76
4, 146330, Note_off_c, 2, 86, 64
4, 146340, Note_off_c, 2, 81, 64
4, 146400, Note_on_c, 2, 81, 72
4, 146400, Note_on_c, 2, 86, 89
4, 146485, Note_off_c, 2, 86, 64
4, 146490, Note_off_c, 2, 81, 64
4, 146560, Note_on_c, 2, 81, 72
4, 146560, Note_on_c, 2, 86, 89
4, 146645, Note_off_c, 2, 86, 64
4, 146650, Note_off_c, 2, 81, 64
4, 146720, Note_on_c, 2, 81, 76
4, 146720, Note_on_c, 2, 86, 93
4, 146805, Note_off_c, 2, 86, 64
4, 146810, Note_off_c, 2, 81, 64
4, 146880, Note_on_c, 2, 86, 89
4, 146880, Note_on_c, 2, 81, 68
4, 146960, Note_off_c, 2, 81, 64
4, 146965, Note_off_c, 2, 86, 64
4, 147040, Note_on_c, 2, 86, 89
4, 147040, Note_on_c, 2, 81, 68
4, 147115, Note_off_c, 2, 81, 64
4, 147125, Note_off_c, 2, 86, 64
4, 147200, Note_on_c, 2, 86, 80
4, 147200, Note_on_c, 2, 81, 62
4, 147275, Note_off_c, 2, 81, 64
4, 147275, Note_off_c, 2, 86, 64
4, 147360, Note_on_c, 2, 81, 64
4, 147360, Note_on_c, 2, 86, 89
4, 147425, Note_off_c, 2, 81, 64
4, 147430, Note_off_c, 2, 86, 64
4, 147520, Note_on_c, 2, 86, 80
4, 147520, Note_on_c, 2, 81, 56
4, 147570, Note_off_c, 2, 81, 64
4, 147590, Note_off_c, 2, 86, 64
4, 147680, Note_on_c, 2, 86, 72
4, 147680, Note_on_c, 2, 81, 62
4, 147760, Note_off_c, 2, 81, 64
4, 147765, Note_off_c, 2, 86, 64
4, 147840, Note_on_c, 2, 78, 107
4, 148000, Note_on_c, 2, 86, 93
4, 148005, Note_off_c, 2, 78, 64
4, 148160, Note_on_c, 2, 78, 107
4, 148220, Note_off_c, 2, 86, 64
4, 148320, Note_on_c, 2, 76, 102
4, 148350, Note_off_c, 2, 78, 64
4, 148480, Note_on_c, 2, 84, 93
4, 148560, Note_off_c, 2, 76, 64
4, 148640, Note_on_c, 2, 76, 80
4, 148735, Note_off_c, 2, 76, 64
4, 148800, Note_on_c, 2, 74, 102
4, 148835, Note_off_c, 2, 84, 64
4, 148960, Note_on_c, 2, 83, 89
4, 148995, Note_off_c, 2, 74, 64
4, 149120, Note_on_c, 2, 74, 72
4, 149225, Note_off_c, 2, 74, 64
4, 149280, Note_on_c, 2, 72, 102
4, 149290, Note_off_c, 2, 83, 64
4, 149440, Note_on_c, 2, 81, 76
4, 149460, Note_off_c, 2, 72, 64
4, 149600, Note_on_c, 2, 72, 93
4, 149670, Note_off_c, 2, 81, 64
4, 149730, Note_off_c, 2, 72, 64
4, 149760, Note_on_c, 2, 75, 98
4, 149760, Note_on_c, 2, 81, 93
4, 149860, Note_off_c, 2, 75, 64
4, 149870, Note_off_c, 2, 81, 64
4, 149920, Note_on_c, 2, 76, 76
4, 149920, Note_on_c, 2, 81, 72
4, 149990, Note_off_c, 2, 76, 64
4, 150020, Note_off_c, 2, 81, 64
4, 150080, Note_on_c, 2, 81, 76
4, 150080, Note_on_c, 2, 76, 80
4, 150170, Note_off_c, 2, 76, 64
4, 150185, Note_off_c, 2, 81, 64
4, 150240, Note_on_c, 2, 81, 72
4, 150240, Note_on_c, 2, 76, 89
4, 150320, Note_off_c, 2, 76, 64
4, 150335, Note_off_c, 2, 81, 64
4, 150400, Note_on_c, 2, 81, 72
4, 150400, Note_on_c, 2, 76, 72
4, 150490, Note_off_c, 2, 76, 64
4, 150505, Note_off_c, 2, 81, 64
4, 150560, Note_on_c, 2, 81, 76
4, 150560, Note_on_c, 2, 76, 89
4, 150630, Note_off_c, 2, 76, 64
4, 150640, Note_off_c, 2, 81, 64
4, 150720, Note_on_c, 2, 81, 76
4, 150720, Note_on_c, 2, 76, 89
4, 150795, Note_off_c, 2, 76, 64
4, 150795, Note_off_c, 2, 81, 64
4, 150880, Note_on_c, 2, 81, 64
4, 150880, Note_on_c, 2, 76, 68
4, 150960, Note_off_c, 2, 76, 64
4, 150980, Note_off_c, 2, 81, 64
4, 151040, Note_on_c, 2, 76, 80
4, 151040, Note_on_c, 2, 81, 68
4, 151110, Note_off_c, 2, 76, 64
4, 151125, Note_off_c, 2, 81, 64
4, 151200, Note_on_c, 2, 76, 76
4, 151200, Note_on_c, 2, 81, 72
4, 151265, Note_off_c, 2, 76, 64
4, 151275, Note_off_c, 2, 81, 64
4, 151360, Note_on_c, 2, 76, 76
4, 151360, Note_on_c, 2, 81, 62
4, 151430, Note_off_c, 2, 76, 64
4, 151450, Note_off_c, 2, 81, 64
4, 151520, Note_on_c, 2, 81, 64
4, 151520, Note_on_c, 2, 76, 89
4, 151575, Note_off_c, 2, 76, 64
4, 151590, Note_off_c, 2, 81, 64
4, 151680, Note_on_c, 2, 79, 113
4, 151800, Note_off_c, 2, 79, 64
4, 151840, Note_on_c, 2, 80, 93
4, 152000, Note_on_c, 2, 88, 102
4, 152090, Note_off_c, 2, 88, 64
4, 152090, Note_off_c, 2, 80, 64
4, 152160, Note_on_c, 2, 86, 98
4, 152160, Note_on_c, 2, 78, 102
4, 152260, Note_off_c, 2, 78, 64
4, 152320, Note_on_c, 2, 76, 102
4, 152420, Note_off_c, 2, 86, 64
4, 152435, Note_off_c, 2, 76, 64
4, 152480, Note_on_c, 2, 86, 72
4, 152480, Note_on_c, 2, 78, 93
4, 152590, Note_off_c, 2, 78, 64
4, 152590, Note_off_c, 2, 86, 64
4, 152640, Note_on_c, 2, 76, 59
4, 152640, Note_on_c, 2, 85, 107
4, 152720, Note_off_c, 2, 76, 64
4, 152800, Note_on_c, 2, 76, 102
4, 152805, Note_off_c, 2, 85, 64
4, 152960, Note_on_c, 2, 85, 102
4, 153040, Note_off_c, 2, 76, 64
4, 153050, Note_off_c, 2, 85, 64
4, 153120, Note_on_c, 2, 83, 89
4, 153120, Note_on_c, 2, 74, 80
4, 153190, Note_off_c, 2, 74, 64
4, 153280, Note_on_c, 2, 74, 89
4, 153365, Note_off_c, 2, 74, 64
4, 153430, Note_off_c, 2, 83, 64
4, 153440, Note_on_c, 2, 72, 107
4, 153600, Note_on_c, 2, 73, 107
4, 153640, Note_off_c, 2, 72, 64
4, 153760, Note_on_c, 2, 81, 93
4, 153820, Note_off_c, 2, 73, 64
4, 153920, Note_on_c, 2, 73, 93
4, 154080, Note_off_c, 2, 73, 64
4, 154080, Note_on_c, 2, 79, 93
4, 154400, Note_on_c, 2, 73, 89
4, 154500, Note_off_c, 2, 73, 64
4, 154520, Note_off_c, 2, 79, 64
4, 154560, Note_on_c, 2, 78, 98
4, 154705, Note_off_c, 2, 78, 64
4, 154720, Note_on_c, 2, 74, 93
4, 154880, Note_on_c, 2, 78, 85
4, 154955, Note_off_c, 2, 74, 64
4, 154985, Note_off_c, 2, 78, 64
4, 155040, Note_on_c, 2, 77, 107
4, 155180, Note_off_c, 2, 77, 64
4, 155200, Note_on_c, 2, 74, 80
4, 155360, Note_on_c, 2, 77, 76
4, 155410, Note_off_c, 2, 74, 64
4, 155485, Note_off_c, 2, 77, 64
4, 155520, Note_on_c, 2, 76, 93
4, 155845, Note_off_c, 2, 76, 64
4, 156000, Note_on_c, 2, 72, 89
4, 156000, Note_on_c, 2, 73, 98
4, 156080, Note_off_c, 2, 72, 64
4, 156235, Note_off_c, 2, 73, 64
4, 156320, Note_on_c, 2, 76, 89
4, 156640, Note_off_c, 2, 76, 64
4, 156800, Note_on_c, 2, 76, 93
4, 156860, Note_off_c, 2, 76, 64
4, 156960, Note_on_c, 2, 76, 93
4, 157120, Note_on_c, 2, 78, 93
4, 157135, Note_off_c, 2, 76, 64
4, 157210, Note_off_c, 2, 81, 64
4, 157280, Note_on_c, 2, 81, 80
4, 157305, Note_off_c, 2, 78, 64
4, 157355, Note_off_c, 2, 81, 64
4, 157440, Note_on_c, 2, 79, 98
4, 157440, Note_on_c, 2, 85, 107
4, 157495, Note_off_c, 2, 85, 64
4, 157505, Note_off_c, 2, 79, 64
4, 157600, Note_on_c, 2, 85, 98
4, 157600, Note_on_c, 2, 79, 80
4, 157655, Note_off_c, 2, 85, 64
4, 157660, Note_off_c, 2, 79, 64
4, 157760, Note_on_c, 2, 85, 98
4, 157760, Note_on_c, 2, 79, 98
4, 157820, Note_off_c, 2, 85, 64
4, 157840, Note_off_c, 2, 79, 64
4, 157920, Note_on_c, 2, 85, 107
4, 157920, Note_on_c, 2, 79, 89
4, 157990, Note_off_c, 2, 85, 64
4, 158000, Note_off_c, 2, 79, 64
4, 158080, Note_on_c, 2, 79, 76
4, 158080, Note_on_c, 2, 85, 93
4, 158145, Note_off_c, 2, 85, 64
4, 158160, Note_off_c, 2, 79, 64
4, 158240, Note_on_c, 2, 79, 85
4, 158240, Note_on_c, 2, 85, 102
4, 158305, Note_off_c, 2, 85, 64
4, 158320, Note_off_c, 2, 79, 64
4, 158400, Note_on_c, 2, 79, 76
4, 158400, Note_on_c, 2, 85, 102
4, 158465, Note_off_c, 2, 85, 64
4, 158470, Note_off_c, 2, 79, 64
4, 158560, Note_on_c, 2, 79, 76
4, 158560, Note_on_c, 2, 85, 102
4, 158625, Note_off_c, 2, 85, 64
4, 158640, Note_off_c, 2, 79, 64
4, 158720, Note_on_c, 2, 85, 98
4, 158720, Note_on_c, 2, 79, 72
4, 158790, Note_off_c, 2, 85, 64
4, 158805, Note_off_c, 2, 79, 64
4, 158880, Note_on_c, 2, 85, 107
4, 158880, Note_on_c, 2, 79, 80
4, 158940, Note_off_c, 2, 85, 64
4, 158960, Note_off_c, 2, 79, 64
4, 159040, Note_on_c, 2, 79, 60
4, 159040, Note_on_c, 2, 85, 93
4, 159105, Note_off_c, 2, 85, 64
4, 159110, Note_off_c, 2, 79, 64
4, 159200, Note_on_c, 2, 85, 89
4, 159200, Note_on_c, 2, 79, 93
4, 159265, Note_off_c, 2, 85, 64
4, 159285, Note_off_c, 2, 79, 64
4, 159360, Note_on_c, 2, 80, 98
4, 159360, Note_on_c, 2, 86, 89
4, 159430, Note_off_c, 2, 80, 64
4, 159455, Note_off_c, 2, 86, 64
4, 159520, Note_on_c, 2, 80, 72
4, 159520, Note_on_c, 2, 86, 68
4, 159590, Note_off_c, 2, 80, 64
4, 159605, Note_off_c, 2, 86, 64
4, 159680, Note_on_c, 2, 80, 89
4, 159680, Note_on_c, 2, 86, 72
4, 159760, Note_off_c, 2, 80, 64
4, 159775, Note_off_c, 2, 86, 64
4, 159840, Note_on_c, 2, 80, 93
4, 159840, Note_on_c, 2, 86, 76
4, 159910, Note_off_c, 2, 80, 64
4, 159920, Note_off_c, 2, 86, 64
4, 160000, Note_on_c, 2, 86, 72
4, 160000, Note_on_c, 2, 80, 89
4, 160070, Note_off_c, 2, 80, 64
4, 160080, Note_off_c, 2, 86, 64
4, 160160, Note_on_c, 2, 86, 76
4, 160160, Note_on_c, 2, 80, 89
4, 160220, Note_off_c, 2, 80, 64
4, 160235, Note_off_c, 2, 86, 64
4, 160320, Note_on_c, 2, 86, 85
4, 160320, Note_on_c, 2, 80, 93
4, 160380, Note_off_c, 2, 80, 64
4, 160390, Note_off_c, 2, 86, 64
4, 160480, Note_on_c, 2, 80, 89
4, 160480, Note_on_c, 2, 86, 76
4, 160545, Note_off_c, 2, 80, 64
4, 160550, Note_off_c, 2, 86, 64
4, 160640, Note_on_c, 2, 86, 72
4, 160640, Note_on_c, 2, 80, 76
4, 160705, Note_off_c, 2, 80, 64
4, 160710, Note_off_c, 2, 86, 64
4, 160800, Note_on_c, 2, 80, 89
4, 160800, Note_on_c, 2, 86, 89
4, 160870, Note_off_c, 2, 86, 64
4, 160870, Note_off_c, 2, 80, 64
4, 160960, Note_on_c, 2, 86, 72
4, 160960, Note_on_c, 2, 80, 89
4, 161030, Note_off_c, 2, 80, 64
4, 161030, Note_off_c, 2, 86, 64
4, 161120, Note_on_c, 2, 80, 85
4, 161120, Note_on_c, 2, 86, 72
4, 161185, Note_off_c, 2, 86, 64
4, 161185, Note_off_c, 2, 80, 64
4, 161280, Note_on_c, 2, 86, 93
4, 161280, Note_on_c, 2, 78, 102
4, 161340, Note_off_c, 2, 78, 64
4, 161360, Note_off_c, 2, 86, 64
4, 161440, Note_on_c, 2, 86, 89
4, 161440, Note_on_c, 2, 78, 85
4, 161505, Note_off_c, 2, 78, 64
4, 161520, Note_off_c, 2, 86, 64
4, 161600, Note_on_c, 2, 78, 93
4, 161600, Note_on_c, 2, 86, 72
4, 161675, Note_off_c, 2, 86, 64
4, 161690, Note_off_c, 2, 78, 64
4, 161760, Note_on_c, 2, 84, 93
4, 161760, Note_on_c, 2, 76, 107
4, 161830, Note_off_c, 2, 76, 64
4, 161845, Note_off_c, 2, 84, 64
4, 161920, Note_on_c, 2, 76, 80
4, 161920, Note_on_c, 2, 84, 89
4, 161995, Note_off_c, 2, 84, 64
4, 161995, Note_off_c, 2, 76, 64
4, 162080, Note_on_c, 2, 76, 76
4, 162080, Note_on_c, 2, 84, 89
4, 162150, Note_off_c, 2, 84, 64
4, 162155, Note_off_c, 2, 76, 64
4, 162240, Note_on_c, 2, 83, 89
4, 162240, Note_on_c, 2, 74, 93
4, 162310, Note_off_c, 2, 74, 64
4, 162315, Note_off_c, 2, 83, 64
4, 162400, Note_on_c, 2, 83, 89
4, 162400, Note_on_c, 2, 74, 76
4, 162470, Note_off_c, 2, 74, 64
4, 162475, Note_off_c, 2, 83, 64
4, 162560, Note_on_c, 2, 83, 85
4, 162560, Note_on_c, 2, 74, 72
4, 162635, Note_off_c, 2, 74, 64
4, 162635, Note_off_c, 2, 83, 64
4, 162720, Note_on_c, 2, 81, 93
4, 162720, Note_on_c, 2, 72, 89
4, 162790, Note_off_c, 2, 72, 64
4, 162795, Note_off_c, 2, 81, 64
4, 162880, Note_on_c, 2, 81, 80
4, 162880, Note_on_c, 2, 72, 76
4, 162945, Note_off_c, 2, 72, 64
4, 162950, Note_off_c, 2, 81, 64
4, 163040, Note_on_c, 2, 72, 80
4, 163040, Note_on_c, 2, 81, 93
4, 163115, Note_off_c, 2, 81, 64
4, 163115, Note_off_c, 2, 72, 64
4, 163200, Note_on_c, 2, 79, 93
4, 163200, Note_on_c, 2, 71, 93
4, 163270, Note_off_c, 2, 71, 64
4, 163275, Note_off_c, 2, 79, 64
4, 163360, Note_on_c, 2, 79, 93
4, 163360, Note_on_c, 2, 71, 68
4, 163430, Note_off_c, 2, 79, 64
4, 163435, Note_off_c, 2, 71, 64
4, 163520, Note_on_c, 2, 79, 89
4, 163520, Note_on_c, 2, 71, 76
4, 163595, Note_off_c, 2, 71, 64
4, 163605, Note_off_c, 2, 79, 64
4, 163680, Note_on_c, 2, 78, 98
4, 163680, Note_on_c, 2, 69, 93
4, 163745, Note_off_c, 2, 78, 64
4, 163755, Note_off_c, 2, 69, 64
4, 163840, Note_on_c, 2, 69, 60
4, 163840, Note_on_c, 2, 78, 89
4, 163910, Note_off_c, 2, 78, 64
4, 163910, Note_off_c, 2, 69, 64
4, 164000, Note_on_c, 2, 69, 68
4, 164000, Note_on_c, 2, 78, 93
4, 164070, Note_off_c, 2, 78, 64
4, 164070, Note_off_c, 2, 69, 64
4, 164160, Note_on_c, 2, 67, 98
4, 164160, Note_on_c, 2, 76, 85
4, 164230, Note_off_c, 2, 67, 64
4, 164235, Note_off_c, 2, 76, 64
4, 164320, Note_on_c, 2, 67, 85
4, 164320, Note_on_c, 2, 76, 89
4, 164385, Note_off_c, 2, 76, 64
4, 164385, Note_off_c, 2, 67, 64
4, 164480, Note_on_c, 2, 76, 89
4, 164480, Note_on_c, 2, 67, 85
4, 164540, Note_off_c, 2, 76, 64
4, 164560, Note_off_c, 2, 67, 64
4, 164640, Note_on_c, 2, 66, 98
4, 164640, Note_on_c, 2, 74, 98
4, 164700, Note_off_c, 2, 66, 64
4, 164720, Note_off_c, 2, 74, 64
4, 164800, Note_on_c, 2, 66, 76
4, 164800, Note_on_c, 2, 74, 76
4, 164855, Note_off_c, 2, 66, 64
4, 164865, Note_off_c, 2, 74, 64
4, 164960, Note_on_c, 2, 66, 80
4, 164960, Note_on_c, 2, 74, 89
4, 165035, Note_off_c, 2, 74, 64
4, 165035, Note_off_c, 2, 66, 64
4, 165120, Note_on_c, 2, 64, 93
4, 165120, Note_on_c, 2, 73, 98
4, 165245, Note_off_c, 2, 64, 64
4, 165320, Note_off_c, 2, 73, 64
4, 165600, Note_on_c, 2, 72, 102
4, 165600, Note_on_c, 2, 73, 113
4, 165680, Note_off_c, 2, 72, 64
4, 165740, Note_off_c, 2, 73, 64
4, 165760, Note_on_c, 2, 76, 85
4, 165870, Note_off_c, 2, 76, 64
4, 165920, Note_on_c, 2, 78, 107
4, 166025, Note_off_c, 2, 78, 64
4, 166080, Note_on_c, 2, 69, 107
4, 166080, Note_on_c, 2, 79, 93
4, 166080, Note_on_c, 2, 81, 93
4, 166100, Note_off_c, 2, 79, 64
4, 166260, Note_off_c, 2, 69, 64
4, 166400, Note_on_c, 2, 69, 72
4, 166445, Note_off_c, 2, 81, 64
4, 166445, Note_off_c, 2, 69, 64
4, 166560, Note_on_c, 2, 73, 102
4, 166560, Note_on_c, 2, 72, 107
4, 166690, Note_off_c, 2, 72, 64
4, 166810, Note_off_c, 2, 73, 64
4, 166880, Note_on_c, 2, 76, 107
4, 167025, Note_off_c, 2, 76, 64
4, 167040, Note_on_c, 2, 71, 102
4, 167115, Note_off_c, 2, 71, 64
4, 167360, Note_on_c, 2, 76, 80
4, 167440, Note_off_c, 2, 76, 64
4, 167520, Note_on_c, 2, 80, 60
4, 167520, Note_on_c, 2, 79, 93
4, 167590, Note_off_c, 2, 79, 64
4, 167645, Note_off_c, 2, 80, 64
4, 167680, Note_on_c, 2, 83, 93
4, 167840, Note_on_c, 2, 80, 107
4, 167845, Note_off_c, 2, 83, 64
4, 167985, Note_off_c, 2, 80, 64
4, 168000, Note_on_c, 2, 76, 89
4, 168180, Note_off_c, 2, 76, 64
4, 168320, Note_on_c, 2, 76, 119
4, 168455, Note_off_c, 2, 76, 64
4, 168480, Note_on_c, 2, 78, 93
4, 168630, Note_off_c, 2, 78, 64
4, 168640, Note_on_c, 2, 81, 93
4, 168800, Note_on_c, 2, 72, 68
4, 168800, Note_on_c, 2, 73, 102
4, 168850, Note_off_c, 2, 81, 64
4, 168855, Note_off_c, 2, 72, 64
4, 168960, Note_on_c, 2, 69, 102
4, 168980, Note_off_c, 2, 73, 64
4, 169120, Note_off_c, 2, 69, 64
4, 169280, Note_on_c, 2, 69, 107
4, 169440, Note_on_c, 2, 73, 113
4, 169460, Note_off_c, 2, 69, 64
4, 169595, Note_off_c, 2, 73, 64
4, 169600, Note_on_c, 2, 69, 89
4, 169760, Note_on_c, 2, 73, 102
4, 169875, Note_off_c, 2, 73, 64
4, 169920, Note_on_c, 2, 74, 102
4, 169960, Note_off_c, 2, 69, 64
4, 170080, Note_on_c, 2, 69, 102
4, 170120, Note_off_c, 2, 74, 64
4, 170240, Note_on_c, 2, 74, 93
4, 170355, Note_off_c, 2, 74, 64
4, 170400, Note_on_c, 2, 75, 113
4, 170430, Note_off_c, 2, 69, 64
4, 170560, Note_on_c, 2, 69, 102
4, 170565, Note_off_c, 2, 75, 64
4, 170720, Note_on_c, 2, 75, 85
4, 170780, Note_off_c, 2, 69, 64
4, 170870, Note_off_c, 2, 75, 64
4, 170880, Note_on_c, 2, 76, 93
4, 170985, Note_off_c, 2, 76, 64
4, 171360, Note_on_c, 2, 66, 113
4, 171360, Note_on_c, 2, 72, 93
4, 171360, Note_on_c, 2, 75, 98
4, 171570, Note_off_c, 2, 72, 64
4, 171570, Note_off_c, 2, 66, 64
4, 171580, Note_off_c, 2, 75, 64
4, 171680, Note_on_c, 2, 67, 102
4, 171680, Note_on_c, 2, 76, 102
4, 171680, Note_on_c, 2, 73, 107
4, 173045, Note_off_c, 2, 73, 64
4, 173045, Note_off_c, 2, 76, 64
4, 173050, Note_off_c, 2, 67, 64
4, 174720, Note_on_c, 2, 67, 113
4, 174720, Note_on_c, 2, 76, 113
4, 174720, Note_on_c, 2, 73, 119
4, 174720, Note_on_c, 2, 74, 107
4, 174745, Note_off_c, 2, 74, 64
4, 174860, Note_off_c, 2, 67, 64
4, 174865, Note_off_c, 2, 73, 64
4, 174880, Note_off_c, 2, 76, 64
4, 174880, End_track
5, 0, Start_track
5, 0, Title_t, "tk4"
5, 0, MIDI_port, 0
5, 0, Channel_prefix, 3
5, 0, Control_c, 3, 7, 90
5, 0, Control_c, 3, 10, 110
5, 480, Control_c, 3, 120, 0
5, 480, Control_c, 3, 121, 0
5, 535, Program_c, 3, 27
5, 535, Control_c, 3, 11, 127
5, 535, Control_c, 3, 93, 64
5, 550, Control_c, 3, 91, 63
5, 700, Control_c, 3, 7, 90
5, 700, Control_c, 3, 10, 110
5, 3840, Note_on_c, 3, 57, 102
5, 3840, Note_on_c, 3, 52, 107
5, 3930, Note_off_c, 3, 57, 64
5, 3935, Note_off_c, 3, 52, 64
5, 4160, Note_on_c, 3, 57, 98
5, 4160, Note_on_c, 3, 52, 107
5, 4320, Note_off_c, 3, 52, 64
5, 4320, Note_on_c, 3, 54, 76
5, 4405, Note_off_c, 3, 57, 64
5, 4430, Note_off_c, 3, 54, 64
5, 4640, Note_on_c, 3, 54, 107
5, 4640, Note_on_c, 3, 57, 107
5, 4785, Note_off_c, 3, 54, 64
5, 4800, Note_on_c, 3, 52, 76
5, 4905, Note_off_c, 3, 52, 64
5, 4910, Note_off_c, 3, 57, 64
5, 5120, Note_on_c, 3, 57, 102
5, 5120, Note_on_c, 3, 52, 107
5, 5280, Note_on_c, 3, 54, 102
5, 5290, Note_off_c, 3, 52, 64
5, 5590, Note_off_c, 3, 54, 64
5, 5600, Note_on_c, 3, 52, 76
5, 5650, Note_off_c, 3, 57, 64
5, 5680, Note_off_c, 3, 52, 64
5, 5760, Note_on_c, 3, 47, 107
5, 5760, Note_on_c, 3, 52, 93
5, 5865, Note_off_c, 3, 52, 64
5, 5875, Note_off_c, 3, 47, 64
5, 6080, Note_on_c, 3, 47, 107
5, 6080, Note_on_c, 3, 52, 102
5, 6240, Note_on_c, 3, 49, 98
5, 6245, Note_off_c, 3, 47, 64
5, 6325, Note_off_c, 3, 49, 64
5, 6330, Note_off_c, 3, 52, 64
5, 6560, Note_on_c, 3, 49, 107
5, 6560, Note_on_c, 3, 52, 98
5, 6695, Note_off_c, 3, 49, 64
5, 6720, Note_on_c, 3, 47, 89
5, 6825, Note_off_c, 3, 52, 64
5, 6825, Note_off_c, 3, 47, 64
5, 7040, Note_on_c, 3, 47, 102
5, 7040, Note_on_c, 3, 52, 102
5, 7195, Note_off_c, 3, 47, 64
5, 7200, Note_on_c, 3, 49, 76
5, 7515, Note_off_c, 3, 49, 64
5, 7520, Note_on_c, 3, 47, 93
5, 7590, Note_off_c, 3, 52, 64
5, 7665, Note_off_c, 3, 47, 64
5, 7680, Note_on_c, 3, 45, 89
5, 7680, Note_on_c, 3, 50, 93
5, 7790, Note_off_c, 3, 50, 64
5, 7790, Note_off_c, 3, 45, 64
5, 8000, Note_on_c, 3, 50, 102
5, 8000, Note_on_c, 3, 45, 93
5, 8150, Note_off_c, 3, 45, 64
5, 8160, Note_on_c, 3, 47, 98
5, 8265, Note_off_c, 3, 47, 64
5, 8280, Note_off_c, 3, 50, 64
5, 8480, Note_on_c, 3, 50, 107
5, 8480, Note_on_c, 3, 47, 107
5, 8640, Note_off_c, 3, 47, 64
5, 8640, Note_on_c, 3, 45, 89
5, 8735, Note_off_c, 3, 45, 64
5, 8755, Note_off_c, 3, 50, 64
5, 8960, Note_on_c, 3, 50, 102
5, 8960, Note_on_c, 3, 45, 93
5, 9120, Note_on_c, 3, 47, 93
5, 9140, Note_off_c, 3, 45, 64
5, 9220, Note_off_c, 3, 47, 64
5, 9230, Note_off_c, 3, 50, 64
5, 9440, Note_on_c, 3, 50, 107
5, 9440, Note_on_c, 3, 47, 113
5, 9595, Note_off_c, 3, 47, 64
5, 9600, Note_on_c, 3, 45, 76
5, 9715, Note_off_c, 3, 45, 64
5, 9720, Note_off_c, 3, 50, 64
5, 9920, Note_on_c, 3, 50, 98
5, 9920, Note_on_c, 3, 45, 93
5, 10070, Note_off_c, 3, 45, 64
5, 10080, Note_on_c, 3, 47, 93
5, 10190, Note_off_c, 3, 50, 64
5, 10190, Note_off_c, 3, 47, 64
5, 10400, Note_on_c, 3, 47, 107
5, 10400, Note_on_c, 3, 50, 107
5, 10540, Note_off_c, 3, 47, 64
5, 10560, Note_on_c, 3, 45, 68
5, 10655, Note_off_c, 3, 50, 64
5, 10680, Note_off_c, 3, 45, 64
5, 10880, Note_on_c, 3, 50, 98
5, 10880, Note_on_c, 3, 45, 93
5, 11010, Note_off_c, 3, 45, 64
5, 11040, Note_on_c, 3, 47, 102
5, 11355, Note_off_c, 3, 47, 64
5, 11360, Note_on_c, 3, 45, 76
5, 11410, Note_off_c, 3, 50, 64
5, 11435, Note_off_c, 3, 45, 64
5, 11520, Note_on_c, 3, 52, 107
5, 11520, Note_on_c, 3, 57, 107
5, 11610, Note_off_c, 3, 52, 64
5, 11630, Note_off_c, 3, 57, 64
5, 11840, Note_on_c, 3, 52, 107
5, 11840, Note_on_c, 3, 57, 93
5, 12000, Note_on_c, 3, 54, 89
5, 12005, Note_off_c, 3, 52, 64
5, 12080, Note_off_c, 3, 57, 64
5, 12100, Note_off_c, 3, 54, 64
5, 12320, Note_on_c, 3, 57, 102
5, 12320, Note_on_c, 3, 54, 107
5, 12445, Note_off_c, 3, 54, 64
5, 12480, Note_on_c, 3, 52, 76
5, 12585, Note_off_c, 3, 57, 64
5, 12585, Note_off_c, 3, 52, 64
5, 12800, Note_on_c, 3, 52, 102
5, 12800, Note_on_c, 3, 57, 93
5, 12960, Note_on_c, 3, 54, 98
5, 12965, Note_off_c, 3, 52, 64
5, 13280, Note_on_c, 3, 52, 76
5, 13305, Note_off_c, 3, 54, 64
5, 13320, Note_off_c, 3, 57, 64
5, 13360, Note_off_c, 3, 52, 64
5, 13440, Note_on_c, 3, 52, 107
5, 13440, Note_on_c, 3, 47, 102
5, 13550, Note_off_c, 3, 47, 64
5, 13550, Note_off_c, 3, 52, 64
5, 13760, Note_on_c, 3, 47, 107
5, 13760, Note_on_c, 3, 52, 98
5, 13920, Note_on_c, 3, 49, 89
5, 13950, Note_off_c, 3, 47, 64
5, 14010, Note_off_c, 3, 49, 64
5, 14025, Note_off_c, 3, 52, 64
5, 14240, Note_on_c, 3, 52, 102
5, 14240, Note_on_c, 3, 49, 107
5, 14370, Note_off_c, 3, 49, 64
5, 14400, Note_on_c, 3, 47, 93
5, 14500, Note_off_c, 3, 47, 64
5, 14505, Note_off_c, 3, 52, 64
5, 14720, Note_on_c, 3, 47, 113
5, 14720, Note_on_c, 3, 52, 107
5, 14865, Note_off_c, 3, 47, 64
5, 14880, Note_on_c, 3, 49, 89
5, 15200, Note_on_c, 3, 47, 76
5, 15220, Note_off_c, 3, 49, 64
5, 15255, Note_off_c, 3, 52, 64
5, 15340, Note_off_c, 3, 47, 64
5, 15360, Note_on_c, 3, 45, 107
5, 15530, Note_off_c, 3, 45, 64
5, 15680, Note_on_c, 3, 57, 102
5, 15840, Note_on_c, 3, 55, 102
5, 15900, Note_off_c, 3, 57, 64
5, 16160, Note_on_c, 3, 57, 89
5, 16320, Note_on_c, 3, 54, 107
5, 16400, Note_off_c, 3, 55, 64
5, 16430, Note_off_c, 3, 57, 64
5, 16640, Note_on_c, 3, 57, 76
5, 16645, Note_off_c, 3, 54, 64
5, 16800, Note_on_c, 3, 53, 98
5, 16865, Note_off_c, 3, 57, 64
5, 17120, Note_on_c, 3, 57, 85
5, 17140, Note_off_c, 3, 53, 64
5, 17280, Note_on_c, 3, 52, 89
5, 18640, Note_off_c, 3, 52, 64
5, 18720, Note_on_c, 3, 52, 98
5, 18845, Note_off_c, 3, 57, 64
5, 18880, Note_on_c, 3, 54, 107
5, 18885, Note_off_c, 3, 52, 64
5, 19030, Note_off_c, 3, 54, 64
5, 19040, Note_on_c, 3, 57, 102
5, 19200, Note_off_c, 3, 57, 64
5, 19200, Note_on_c, 3, 52, 107
5, 19200, Note_on_c, 3, 57, 102
5, 19295, Note_off_c, 3, 52, 64
5, 19350, Note_off_c, 3, 57, 64
5, 19520, Note_on_c, 3, 57, 98
5, 19520, Note_on_c, 3, 52, 107
5, 19680, Note_off_c, 3, 52, 64
5, 19680, Note_on_c, 3, 54, 76
5, 19765, Note_off_c, 3, 57, 64
5, 19790, Note_off_c, 3, 54, 64
5, 20000, Note_on_c, 3, 57, 107
5, 20000, Note_on_c, 3, 54, 107
5, 20145, Note_off_c, 3, 54, 64
5, 20160, Note_on_c, 3, 52, 76
5, 20265, Note_off_c, 3, 52, 64
5, 20270, Note_off_c, 3, 57, 64
5, 20480, Note_on_c, 3, 52, 107
5, 20480, Note_on_c, 3, 57, 102
5, 20640, Note_on_c, 3, 54, 102
5, 20650, Note_off_c, 3, 52, 64
5, 20950, Note_off_c, 3, 54, 64
5, 20960, Note_on_c, 3, 52, 76
5, 21010, Note_off_c, 3, 57, 64
5, 21040, Note_off_c, 3, 52, 64
5, 21120, Note_on_c, 3, 47, 107
5, 21120, Note_on_c, 3, 52, 93
5, 21225, Note_off_c, 3, 52, 64
5, 21235, Note_off_c, 3, 47, 64
5, 21440, Note_on_c, 3, 47, 107
5, 21440, Note_on_c, 3, 52, 102
5, 21600, Note_on_c, 3, 49, 98
5, 21605, Note_off_c, 3, 47, 64
5, 21685, Note_off_c, 3, 49, 64
5, 21690, Note_off_c, 3, 52, 64
5, 21920, Note_on_c, 3, 49, 107
5, 21920, Note_on_c, 3, 52, 98
5, 22055, Note_off_c, 3, 49, 64
5, 22080, Note_on_c, 3, 47, 89
5, 22185, Note_off_c, 3, 52, 64
5, 22185, Note_off_c, 3, 47, 64
5, 22400, Note_on_c, 3, 47, 102
5, 22400, Note_on_c, 3, 52, 102
5, 22555, Note_off_c, 3, 47, 64
5, 22560, Note_on_c, 3, 49, 76
5, 22875, Note_off_c, 3, 49, 64
5, 22880, Note_on_c, 3, 47, 93
5, 22950, Note_off_c, 3, 52, 64
5, 23025, Note_off_c, 3, 47, 64
5, 23040, Note_on_c, 3, 45, 89
5, 23040, Note_on_c, 3, 50, 93
5, 23150, Note_off_c, 3, 50, 64
5, 23150, Note_off_c, 3, 45, 64
5, 23360, Note_on_c, 3, 50, 102
5, 23360, Note_on_c, 3, 45, 93
5, 23510, Note_off_c, 3, 45, 64
5, 23520, Note_on_c, 3, 47, 98
5, 23625, Note_off_c, 3, 47, 64
5, 23640, Note_off_c, 3, 50, 64
5, 23840, Note_on_c, 3, 47, 107
5, 23840, Note_on_c, 3, 50, 107
5, 24000, Note_off_c, 3, 47, 64
5, 24000, Note_on_c, 3, 45, 89
5, 24095, Note_off_c, 3, 45, 64
5, 24115, Note_off_c, 3, 50, 64
5, 24320, Note_on_c, 3, 50, 102
5, 24320, Note_on_c, 3, 45, 93
5, 24480, Note_on_c, 3, 47, 93
5, 24500, Note_off_c, 3, 45, 64
5, 24580, Note_off_c, 3, 47, 64
5, 24590, Note_off_c, 3, 50, 64
5, 24800, Note_on_c, 3, 47, 113
5, 24800, Note_on_c, 3, 50, 107
5, 24955, Note_off_c, 3, 47, 64
5, 24960, Note_on_c, 3, 45, 76
5, 25075, Note_off_c, 3, 45, 64
5, 25080, Note_off_c, 3, 50, 64
5, 25280, Note_on_c, 3, 45, 93
5, 25280, Note_on_c, 3, 50, 98
5, 25430, Note_off_c, 3, 45, 64
5, 25440, Note_on_c, 3, 47, 93
5, 25550, Note_off_c, 3, 50, 64
5, 25550, Note_off_c, 3, 47, 64
5, 25760, Note_on_c, 3, 50, 107
5, 25760, Note_on_c, 3, 47, 107
5, 25900, Note_off_c, 3, 47, 64
5, 25920, Note_on_c, 3, 45, 68
5, 26015, Note_off_c, 3, 50, 64
5, 26040, Note_off_c, 3, 45, 64
5, 26240, Note_on_c, 3, 50, 98
5, 26240, Note_on_c, 3, 45, 93
5, 26370, Note_off_c, 3, 45, 64
5, 26400, Note_on_c, 3, 47, 102
5, 26715, Note_off_c, 3, 47, 64
5, 26720, Note_on_c, 3, 45, 76
5, 26770, Note_off_c, 3, 50, 64
5, 26795, Note_off_c, 3, 45, 64
5, 26880, Note_on_c, 3, 52, 107
5, 26880, Note_on_c, 3, 57, 107
5, 26970, Note_off_c, 3, 52, 64
5, 26990, Note_off_c, 3, 57, 64
5, 27200, Note_on_c, 3, 52, 107
5, 27200, Note_on_c, 3, 57, 93
5, 27360, Note_on_c, 3, 54, 89
5, 27365, Note_off_c, 3, 52, 64
5, 27440, Note_off_c, 3, 57, 64
5, 27460, Note_off_c, 3, 54, 64
5, 27680, Note_on_c, 3, 57, 102
5, 27680, Note_on_c, 3, 54, 107
5, 27805, Note_off_c, 3, 54, 64
5, 27840, Note_on_c, 3, 52, 76
5, 27945, Note_off_c, 3, 57, 64
5, 27945, Note_off_c, 3, 52, 64
5, 28160, Note_on_c, 3, 57, 93
5, 28160, Note_on_c, 3, 52, 102
5, 28320, Note_on_c, 3, 54, 98
5, 28325, Note_off_c, 3, 52, 64
5, 28640, Note_on_c, 3, 52, 76
5, 28665, Note_off_c, 3, 54, 64
5, 28680, Note_off_c, 3, 57, 64
5, 28720, Note_off_c, 3, 52, 64
5, 28800, Note_on_c, 3, 47, 102
5, 28800, Note_on_c, 3, 52, 107
5, 28910, Note_off_c, 3, 52, 64
5, 28910, Note_off_c, 3, 47, 64
5, 29120, Note_on_c, 3, 52, 98
5, 29120, Note_on_c, 3, 47, 107
5, 29280, Note_on_c, 3, 49, 89
5, 29310, Note_off_c, 3, 47, 64
5, 29370, Note_off_c, 3, 49, 64
5, 29385, Note_off_c, 3, 52, 64
5, 29600, Note_on_c, 3, 49, 107
5, 29600, Note_on_c, 3, 52, 102
5, 29730, Note_off_c, 3, 49, 64
5, 29760, Note_on_c, 3, 47, 93
5, 29860, Note_off_c, 3, 47, 64
5, 29865, Note_off_c, 3, 52, 64
5, 30080, Note_on_c, 3, 47, 113
5, 30080, Note_on_c, 3, 52, 107
5, 30225, Note_off_c, 3, 47, 64
5, 30240, Note_on_c, 3, 49, 89
5, 30560, Note_on_c, 3, 47, 76
5, 30580, Note_off_c, 3, 49, 64
5, 30615, Note_off_c, 3, 52, 64
5, 30700, Note_off_c, 3, 47, 64
5, 30720, Note_on_c, 3, 45, 107
5, 30890, Note_off_c, 3, 45, 64
5, 31040, Note_on_c, 3, 57, 102
5, 31200, Note_on_c, 3, 55, 102
5, 31260, Note_off_c, 3, 57, 64
5, 31520, Note_on_c, 3, 57, 89
5, 31680, Note_on_c, 3, 54, 107
5, 31760, Note_off_c, 3, 55, 64
5, 31790, Note_off_c, 3, 57, 64
5, 32000, Note_on_c, 3, 57, 76
5, 32005, Note_off_c, 3, 54, 64
5, 32160, Note_on_c, 3, 53, 98
5, 32225, Note_off_c, 3, 57, 64
5, 32480, Note_on_c, 3, 57, 85
5, 32500, Note_off_c, 3, 53, 64
5, 32640, Note_on_c, 3, 52, 89
5, 34000, Note_off_c, 3, 52, 64
5, 34080, Note_on_c, 3, 52, 98
5, 34205, Note_off_c, 3, 57, 64
5, 34240, Note_on_c, 3, 54, 107
5, 34245, Note_off_c, 3, 52, 64
5, 34390, Note_off_c, 3, 54, 64
5, 34400, Note_on_c, 3, 57, 102
5, 34560, Note_off_c, 3, 57, 64
5, 34560, Note_on_c, 3, 52, 107
5, 34560, Note_on_c, 3, 57, 102
5, 34655, Note_off_c, 3, 52, 64
5, 34710, Note_off_c, 3, 57, 64
5, 34880, Note_on_c, 3, 52, 107
5, 34880, Note_on_c, 3, 57, 98
5, 35040, Note_off_c, 3, 52, 64
5, 35040, Note_on_c, 3, 54, 76
5, 35125, Note_off_c, 3, 57, 64
5, 35150, Note_off_c, 3, 54, 64
5, 35360, Note_on_c, 3, 57, 107
5, 35360, Note_on_c, 3, 54, 107
5, 35505, Note_off_c, 3, 54, 64
5, 35520, Note_on_c, 3, 52, 76
5, 35625, Note_off_c, 3, 52, 64
5, 35630, Note_off_c, 3, 57, 64
5, 35840, Note_on_c, 3, 57, 102
5, 35840, Note_on_c, 3, 52, 107
5, 36000, Note_on_c, 3, 54, 102
5, 36010, Note_off_c, 3, 52, 64
5, 36310, Note_off_c, 3, 54, 64
5, 36320, Note_on_c, 3, 52, 76
5, 36370, Note_off_c, 3, 57, 64
5, 36400, Note_off_c, 3, 52, 64
5, 36480, Note_on_c, 3, 52, 93
5, 36480, Note_on_c, 3, 47, 107
5, 36585, Note_off_c, 3, 52, 64
5, 36595, Note_off_c, 3, 47, 64
5, 36800, Note_on_c, 3, 47, 107
5, 36800, Note_on_c, 3, 52, 102
5, 36960, Note_on_c, 3, 49, 98
5, 36965, Note_off_c, 3, 47, 64
5, 37045, Note_off_c, 3, 49, 64
5, 37050, Note_off_c, 3, 52, 64
5, 37280, Note_on_c, 3, 52, 98
5, 37280, Note_on_c, 3, 49, 107
5, 37415, Note_off_c, 3, 49, 64
5, 37440, Note_on_c, 3, 47, 89
5, 37545, Note_off_c, 3, 52, 64
5, 37545, Note_off_c, 3, 47, 64
5, 37760, Note_on_c, 3, 52, 102
5, 37760, Note_on_c, 3, 47, 102
5, 37915, Note_off_c, 3, 47, 64
5, 37920, Note_on_c, 3, 49, 76
5, 38235, Note_off_c, 3, 49, 64
5, 38240, Note_on_c, 3, 47, 93
5, 38310, Note_off_c, 3, 52, 64
5, 38385, Note_off_c, 3, 47, 64
5, 38400, Note_on_c, 3, 50, 93
5, 38400, Note_on_c, 3, 45, 89
5, 38510, Note_off_c, 3, 45, 64
5, 38510, Note_off_c, 3, 50, 64
5, 38720, Note_on_c, 3, 50, 102
5, 38720, Note_on_c, 3, 45, 93
5, 38870, Note_off_c, 3, 45, 64
5, 38880, Note_on_c, 3, 47, 98
5, 38985, Note_off_c, 3, 47, 64
5, 39000, Note_off_c, 3, 50, 64
5, 39200, Note_on_c, 3, 47, 107
5, 39200, Note_on_c, 3, 50, 107
5, 39360, Note_off_c, 3, 47, 64
5, 39360, Note_on_c, 3, 45, 89
5, 39455, Note_off_c, 3, 45, 64
5, 39475, Note_off_c, 3, 50, 64
5, 39680, Note_on_c, 3, 45, 93
5, 39680, Note_on_c, 3, 50, 102
5, 39840, Note_on_c, 3, 47, 93
5, 39860, Note_off_c, 3, 45, 64
5, 39940, Note_off_c, 3, 47, 64
5, 39950, Note_off_c, 3, 50, 64
5, 40160, Note_on_c, 3, 47, 113
5, 40160, Note_on_c, 3, 50, 107
5, 40315, Note_off_c, 3, 47, 64
5, 40320, Note_on_c, 3, 45, 76
5, 40435, Note_off_c, 3, 45, 64
5, 40440, Note_off_c, 3, 50, 64
5, 40640, Note_on_c, 3, 45, 93
5, 40640, Note_on_c, 3, 50, 98
5, 40790, Note_off_c, 3, 45, 64
5, 40800, Note_on_c, 3, 47, 93
5, 40910, Note_off_c, 3, 50, 64
5, 40910, Note_off_c, 3, 47, 64
5, 41120, Note_on_c, 3, 50, 107
5, 41120, Note_on_c, 3, 47, 107
5, 41260, Note_off_c, 3, 47, 64
5, 41280, Note_on_c, 3, 45, 68
5, 41375, Note_off_c, 3, 50, 64
5, 41400, Note_off_c, 3, 45, 64
5, 41600, Note_on_c, 3, 50, 98
5, 41600, Note_on_c, 3, 45, 93
5, 41730, Note_off_c, 3, 45, 64
5, 41760, Note_on_c, 3, 47, 102
5, 42075, Note_off_c, 3, 47, 64
5, 42080, Note_on_c, 3, 45, 76
5, 42130, Note_off_c, 3, 50, 64
5, 42155, Note_off_c, 3, 45, 64
5, 42240, Note_on_c, 3, 57, 107
5, 42240, Note_on_c, 3, 52, 107
5, 42330, Note_off_c, 3, 52, 64
5, 42350, Note_off_c, 3, 57, 64
5, 42560, Note_on_c, 3, 52, 107
5, 42560, Note_on_c, 3, 57, 93
5, 42720, Note_on_c, 3, 54, 89
5, 42725, Note_off_c, 3, 52, 64
5, 42800, Note_off_c, 3, 57, 64
5, 42820, Note_off_c, 3, 54, 64
5, 43040, Note_on_c, 3, 54, 107
5, 43040, Note_on_c, 3, 57, 102
5, 43165, Note_off_c, 3, 54, 64
5, 43200, Note_on_c, 3, 52, 76
5, 43305, Note_off_c, 3, 57, 64
5, 43305, Note_off_c, 3, 52, 64
5, 43520, Note_on_c, 3, 57, 93
5, 43520, Note_on_c, 3, 52, 102
5, 43680, Note_on_c, 3, 54, 98
5, 43685, Note_off_c, 3, 52, 64
5, 44000, Note_on_c, 3, 52, 76
5, 44025, Note_off_c, 3, 54, 64
5, 44040, Note_off_c, 3, 57, 64
5, 44080, Note_off_c, 3, 52, 64
5, 44160, Note_on_c, 3, 52, 107
5, 44160, Note_on_c, 3, 47, 102
5, 44270, Note_off_c, 3, 47, 64
5, 44270, Note_off_c, 3, 52, 64
5, 44480, Note_on_c, 3, 47, 107
5, 44480, Note_on_c, 3, 52, 98
5, 44640, Note_on_c, 3, 49, 89
5, 44670, Note_off_c, 3, 47, 64
5, 44730, Note_off_c, 3, 49, 64
5, 44745, Note_off_c, 3, 52, 64
5, 44960, Note_on_c, 3, 49, 107
5, 44960, Note_on_c, 3, 52, 102
5, 45090, Note_off_c, 3, 49, 64
5, 45120, Note_on_c, 3, 47, 93
5, 45220, Note_off_c, 3, 47, 64
5, 45225, Note_off_c, 3, 52, 64
5, 45440, Note_on_c, 3, 52, 107
5, 45440, Note_on_c, 3, 47, 113
5, 45585, Note_off_c, 3, 47, 64
5, 45600, Note_on_c, 3, 49, 89
5, 45920, Note_on_c, 3, 47, 76
5, 45940, Note_off_c, 3, 49, 64
5, 45975, Note_off_c, 3, 52, 64
5, 46060, Note_off_c, 3, 47, 64
5, 46080, Note_on_c, 3, 45, 107
5, 46250, Note_off_c, 3, 45, 64
5, 46400, Note_on_c, 3, 57, 102
5, 46560, Note_on_c, 3, 55, 102
5, 46620, Note_off_c, 3, 57, 64
5, 46880, Note_on_c, 3, 57, 89
5, 47040, Note_on_c, 3, 54, 107
5, 47120, Note_off_c, 3, 55, 64
5, 47150, Note_off_c, 3, 57, 64
5, 47360, Note_on_c, 3, 57, 76
5, 47365, Note_off_c, 3, 54, 64
5, 47520, Note_on_c, 3, 53, 98
5, 47585, Note_off_c, 3, 57, 64
5, 47840, Note_on_c, 3, 57, 85
5, 47860, Note_off_c, 3, 53, 64
5, 48000, Note_on_c, 3, 52, 89
5, 49360, Note_off_c, 3, 52, 64
5, 49440, Note_on_c, 3, 52, 98
5, 49565, Note_off_c, 3, 57, 64
5, 49600, Note_on_c, 3, 54, 107
5, 49605, Note_off_c, 3, 52, 64
5, 49750, Note_off_c, 3, 54, 64
5, 49760, Note_on_c, 3, 57, 102
5, 49920, Note_off_c, 3, 57, 64
5, 49920, Note_on_c, 3, 57, 102
5, 49920, Note_on_c, 3, 52, 107
5, 50015, Note_off_c, 3, 52, 64
5, 50070, Note_off_c, 3, 57, 64
5, 50240, Note_on_c, 3, 57, 98
5, 50240, Note_on_c, 3, 52, 107
5, 50400, Note_off_c, 3, 52, 64
5, 50400, Note_on_c, 3, 54, 76
5, 50485, Note_off_c, 3, 57, 64
5, 50510, Note_off_c, 3, 54, 64
5, 50720, Note_on_c, 3, 57, 107
5, 50720, Note_on_c, 3, 54, 107
5, 50865, Note_off_c, 3, 54, 64
5, 50880, Note_on_c, 3, 52, 76
5, 50985, Note_off_c, 3, 52, 64
5, 50990, Note_off_c, 3, 57, 64
5, 51200, Note_on_c, 3, 52, 107
5, 51200, Note_on_c, 3, 57, 102
5, 51360, Note_on_c, 3, 54, 102
5, 51370, Note_off_c, 3, 52, 64
5, 51670, Note_off_c, 3, 54, 64
5, 51680, Note_on_c, 3, 52, 76
5, 51730, Note_off_c, 3, 57, 64
5, 51760, Note_off_c, 3, 52, 64
5, 51840, Note_on_c, 3, 52, 93
5, 51840, Note_on_c, 3, 47, 107
5, 51945, Note_off_c, 3, 52, 64
5, 51955, Note_off_c, 3, 47, 64
5, 52160, Note_on_c, 3, 52, 102
5, 52160, Note_on_c, 3, 47, 107
5, 52320, Note_on_c, 3, 49, 98
5, 52325, Note_off_c, 3, 47, 64
5, 52405, Note_off_c, 3, 49, 64
5, 52410, Note_off_c, 3, 52, 64
5, 52640, Note_on_c, 3, 49, 107
5, 52640, Note_on_c, 3, 52, 98
5, 52775, Note_off_c, 3, 49, 64
5, 52800, Note_on_c, 3, 47, 89
5, 52905, Note_off_c, 3, 52, 64
5, 52905, Note_off_c, 3, 47, 64
5, 53120, Note_on_c, 3, 52, 102
5, 53120, Note_on_c, 3, 47, 102
5, 53275, Note_off_c, 3, 47, 64
5, 53280, Note_on_c, 3, 49, 76
5, 53595, Note_off_c, 3, 49, 64
5, 53600, Note_on_c, 3, 47, 93
5, 53670, Note_off_c, 3, 52, 64
5, 53745, Note_off_c, 3, 47, 64
5, 53760, Note_on_c, 3, 50, 93
5, 53760, Note_on_c, 3, 45, 89
5, 53870, Note_off_c, 3, 45, 64
5, 53870, Note_off_c, 3, 50, 64
5, 54080, Note_on_c, 3, 45, 93
5, 54080, Note_on_c, 3, 50, 102
5, 54230, Note_off_c, 3, 45, 64
5, 54240, Note_on_c, 3, 47, 98
5, 54345, Note_off_c, 3, 47, 64
5, 54360, Note_off_c, 3, 50, 64
5, 54560, Note_on_c, 3, 47, 107
5, 54560, Note_on_c, 3, 50, 107
5, 54720, Note_off_c, 3, 47, 64
5, 54720, Note_on_c, 3, 45, 89
5, 54815, Note_off_c, 3, 45, 64
5, 54835, Note_off_c, 3, 50, 64
5, 55040, Note_on_c, 3, 45, 93
5, 55040, Note_on_c, 3, 50, 102
5, 55200, Note_on_c, 3, 47, 93
5, 55220, Note_off_c, 3, 45, 64
5, 55300, Note_off_c, 3, 47, 64
5, 55310, Note_off_c, 3, 50, 64
5, 55520, Note_on_c, 3, 47, 113
5, 55520, Note_on_c, 3, 50, 107
5, 55675, Note_off_c, 3, 47, 64
5, 55680, Note_on_c, 3, 45, 76
5, 55795, Note_off_c, 3, 45, 64
5, 55800, Note_off_c, 3, 50, 64
5, 56000, Note_on_c, 3, 45, 93
5, 56000, Note_on_c, 3, 50, 98
5, 56150, Note_off_c, 3, 45, 64
5, 56160, Note_on_c, 3, 47, 93
5, 56270, Note_off_c, 3, 50, 64
5, 56270, Note_off_c, 3, 47, 64
5, 56480, Note_on_c, 3, 50, 107
5, 56480, Note_on_c, 3, 47, 107
5, 56620, Note_off_c, 3, 47, 64
5, 56640, Note_on_c, 3, 45, 68
5, 56735, Note_off_c, 3, 50, 64
5, 56760, Note_off_c, 3, 45, 64
5, 56960, Note_on_c, 3, 50, 98
5, 56960, Note_on_c, 3, 45, 93
5, 57090, Note_off_c, 3, 45, 64
5, 57120, Note_on_c, 3, 47, 102
5, 57435, Note_off_c, 3, 47, 64
5, 57440, Note_on_c, 3, 45, 76
5, 57490, Note_off_c, 3, 50, 64
5, 57515, Note_off_c, 3, 45, 64
5, 57600, Note_on_c, 3, 57, 107
5, 57600, Note_on_c, 3, 52, 107
5, 57690, Note_off_c, 3, 52, 64
5, 57710, Note_off_c, 3, 57, 64
5, 57920, Note_on_c, 3, 57, 93
5, 57920, Note_on_c, 3, 52, 107
5, 58080, Note_on_c, 3, 54, 89
5, 58085, Note_off_c, 3, 52, 64
5, 58160, Note_off_c, 3, 57, 64
5, 58180, Note_off_c, 3, 54, 64
5, 58400, Note_on_c, 3, 57, 102
5, 58400, Note_on_c, 3, 54, 107
5, 58525, Note_off_c, 3, 54, 64
5, 58560, Note_on_c, 3, 52, 76
5, 58665, Note_off_c, 3, 57, 64
5, 58665, Note_off_c, 3, 52, 64
5, 58880, Note_on_c, 3, 52, 102
5, 58880, Note_on_c, 3, 57, 93
5, 59040, Note_on_c, 3, 54, 98
5, 59045, Note_off_c, 3, 52, 64
5, 59360, Note_on_c, 3, 52, 76
5, 59385, Note_off_c, 3, 54, 64
5, 59400, Note_off_c, 3, 57, 64
5, 59440, Note_off_c, 3, 52, 64
5, 59520, Note_on_c, 3, 47, 102
5, 59520, Note_on_c, 3, 52, 107
5, 59630, Note_off_c, 3, 52, 64
5, 59630, Note_off_c, 3, 47, 64
5, 59840, Note_on_c, 3, 52, 98
5, 59840, Note_on_c, 3, 47, 107
5, 60000, Note_on_c, 3, 49, 89
5, 60030, Note_off_c, 3, 47, 64
5, 60090, Note_off_c, 3, 49, 64
5, 60105, Note_off_c, 3, 52, 64
5, 60320, Note_on_c, 3, 52, 102
5, 60320, Note_on_c, 3, 49, 107
5, 60450, Note_off_c, 3, 49, 64
5, 60480, Note_on_c, 3, 47, 93
5, 60580, Note_off_c, 3, 47, 64
5, 60585, Note_off_c, 3, 52, 64
5, 60800, Note_on_c, 3, 47, 113
5, 60800, Note_on_c, 3, 52, 107
5, 60945, Note_off_c, 3, 47, 64
5, 60960, Note_on_c, 3, 49, 89
5, 61280, Note_on_c, 3, 47, 76
5, 61300, Note_off_c, 3, 49, 64
5, 61335, Note_off_c, 3, 52, 64
5, 61420, Note_off_c, 3, 47, 64
5, 61440, Note_on_c, 3, 45, 107
5, 61610, Note_off_c, 3, 45, 64
5, 61760, Note_on_c, 3, 57, 102
5, 61920, Note_on_c, 3, 55, 102
5, 61980, Note_off_c, 3, 57, 64
5, 62240, Note_on_c, 3, 57, 89
5, 62400, Note_on_c, 3, 54, 107
5, 62480, Note_off_c, 3, 55, 64
5, 62510, Note_off_c, 3, 57, 64
5, 62720, Note_on_c, 3, 57, 76
5, 62725, Note_off_c, 3, 54, 64
5, 62880, Note_on_c, 3, 53, 98
5, 62945, Note_off_c, 3, 57, 64
5, 63200, Note_on_c, 3, 57, 85
5, 63220, Note_off_c, 3, 53, 64
5, 63360, Note_on_c, 3, 52, 89
5, 64720, Note_off_c, 3, 52, 64
5, 64800, Note_on_c, 3, 52, 98
5, 64925, Note_off_c, 3, 57, 64
5, 64960, Note_on_c, 3, 54, 107
5, 64965, Note_off_c, 3, 52, 64
5, 65110, Note_off_c, 3, 54, 64
5, 65120, Note_on_c, 3, 57, 102
5, 65280, Note_off_c, 3, 57, 64
5, 65280, Note_on_c, 3, 52, 107
5, 65280, Note_on_c, 3, 57, 102
5, 65375, Note_off_c, 3, 52, 64
5, 65430, Note_off_c, 3, 57, 64
5, 65600, Note_on_c, 3, 52, 107
5, 65600, Note_on_c, 3, 57, 98
5, 65760, Note_off_c, 3, 52, 64
5, 65760, Note_on_c, 3, 54, 76
5, 65845, Note_off_c, 3, 57, 64
5, 65870, Note_off_c, 3, 54, 64
5, 66080, Note_on_c, 3, 57, 107
5, 66080, Note_on_c, 3, 54, 107
5, 66225, Note_off_c, 3, 54, 64
5, 66240, Note_on_c, 3, 52, 76
5, 66345, Note_off_c, 3, 52, 64
5, 66350, Note_off_c, 3, 57, 64
5, 66560, Note_on_c, 3, 52, 107
5, 66560, Note_on_c, 3, 57, 102
5, 66720, Note_on_c, 3, 54, 102
5, 66730, Note_off_c, 3, 52, 64
5, 67030, Note_off_c, 3, 54, 64
5, 67040, Note_on_c, 3, 52, 76
5, 67090, Note_off_c, 3, 57, 64
5, 67120, Note_off_c, 3, 52, 64
5, 67200, Note_on_c, 3, 52, 93
5, 67200, Note_on_c, 3, 47, 107
5, 67305, Note_off_c, 3, 52, 64
5, 67315, Note_off_c, 3, 47, 64
5, 67520, Note_on_c, 3, 47, 107
5, 67520, Note_on_c, 3, 52, 102
5, 67680, Note_on_c, 3, 49, 98
5, 67685, Note_off_c, 3, 47, 64
5, 67765, Note_off_c, 3, 49, 64
5, 67770, Note_off_c, 3, 52, 64
5, 68000, Note_on_c, 3, 52, 98
5, 68000, Note_on_c, 3, 49, 107
5, 68135, Note_off_c, 3, 49, 64
5, 68160, Note_on_c, 3, 47, 89
5, 68265, Note_off_c, 3, 52, 64
5, 68265, Note_off_c, 3, 47, 64
5, 68480, Note_on_c, 3, 52, 102
5, 68480, Note_on_c, 3, 47, 102
5, 68635, Note_off_c, 3, 47, 64
5, 68640, Note_on_c, 3, 49, 76
5, 68955, Note_off_c, 3, 49, 64
5, 68960, Note_on_c, 3, 47, 93
5, 69030, Note_off_c, 3, 52, 64
5, 69105, Note_off_c, 3, 47, 64
5, 69120, Note_on_c, 3, 45, 89
5, 69120, Note_on_c, 3, 50, 93
5, 69230, Note_off_c, 3, 50, 64
5, 69230, Note_off_c, 3, 45, 64
5, 69440, Note_on_c, 3, 45, 93
5, 69440, Note_on_c, 3, 50, 102
5, 69590, Note_off_c, 3, 45, 64
5, 69600, Note_on_c, 3, 47, 98
5, 69705, Note_off_c, 3, 47, 64
5, 69720, Note_off_c, 3, 50, 64
5, 69920, Note_on_c, 3, 50, 107
5, 69920, Note_on_c, 3, 47, 107
5, 70080, Note_off_c, 3, 47, 64
5, 70080, Note_on_c, 3, 45, 89
5, 70175, Note_off_c, 3, 45, 64
5, 70195, Note_off_c, 3, 50, 64
5, 70400, Note_on_c, 3, 50, 102
5, 70400, Note_on_c, 3, 45, 93
5, 70560, Note_on_c, 3, 47, 93
5, 70580, Note_off_c, 3, 45, 64
5, 70660, Note_off_c, 3, 47, 64
5, 70670, Note_off_c, 3, 50, 64
5, 70880, Note_on_c, 3, 50, 107
5, 70880, Note_on_c, 3, 47, 113
5, 71035, Note_off_c, 3, 47, 64
5, 71040, Note_on_c, 3, 45, 76
5, 71155, Note_off_c, 3, 45, 64
5, 71160, Note_off_c, 3, 50, 64
5, 71360, Note_on_c, 3, 45, 93
5, 71360, Note_on_c, 3, 50, 98
5, 71510, Note_off_c, 3, 45, 64
5, 71520, Note_on_c, 3, 47, 93
5, 71630, Note_off_c, 3, 50, 64
5, 71630, Note_off_c, 3, 47, 64
5, 71840, Note_on_c, 3, 47, 107
5, 71840, Note_on_c, 3, 50, 107
5, 71980, Note_off_c, 3, 47, 64
5, 72000, Note_on_c, 3, 45, 68
5, 72095, Note_off_c, 3, 50, 64
5, 72120, Note_off_c, 3, 45, 64
5, 72320, Note_on_c, 3, 50, 98
5, 72320, Note_on_c, 3, 45, 93
5, 72450, Note_off_c, 3, 45, 64
5, 72480, Note_on_c, 3, 47, 102
5, 72795, Note_off_c, 3, 47, 64
5, 72800, Note_on_c, 3, 45, 76
5, 72850, Note_off_c, 3, 50, 64
5, 72875, Note_off_c, 3, 45, 64
5, 72960, Note_on_c, 3, 57, 107
5, 72960, Note_on_c, 3, 52, 107
5, 73050, Note_off_c, 3, 52, 64
5, 73070, Note_off_c, 3, 57, 64
5, 73280, Note_on_c, 3, 57, 93
5, 73280, Note_on_c, 3, 52, 107
5, 73440, Note_on_c, 3, 54, 89
5, 73445, Note_off_c, 3, 52, 64
5, 73520, Note_off_c, 3, 57, 64
5, 73540, Note_off_c, 3, 54, 64
5, 73760, Note_on_c, 3, 57, 102
5, 73760, Note_on_c, 3, 54, 107
5, 73885, Note_off_c, 3, 54, 64
5, 73920, Note_on_c, 3, 52, 76
5, 74025, Note_off_c, 3, 57, 64
5, 74025, Note_off_c, 3, 52, 64
5, 74240, Note_on_c, 3, 52, 102
5, 74240, Note_on_c, 3, 57, 93
5, 74400, Note_on_c, 3, 54, 98
5, 74405, Note_off_c, 3, 52, 64
5, 74720, Note_on_c, 3, 52, 76
5, 74745, Note_off_c, 3, 54, 64
5, 74760, Note_off_c, 3, 57, 64
5, 74800, Note_off_c, 3, 52, 64
5, 74880, Note_on_c, 3, 52, 107
5, 74880, Note_on_c, 3, 47, 102
5, 74990, Note_off_c, 3, 47, 64
5, 74990, Note_off_c, 3, 52, 64
5, 75200, Note_on_c, 3, 47, 107
5, 75200, Note_on_c, 3, 52, 98
5, 75360, Note_on_c, 3, 49, 89
5, 75390, Note_off_c, 3, 47, 64
5, 75450, Note_off_c, 3, 49, 64
5, 75465, Note_off_c, 3, 52, 64
5, 75680, Note_on_c, 3, 52, 102
5, 75680, Note_on_c, 3, 49, 107
5, 75810, Note_off_c, 3, 49, 64
5, 75840, Note_on_c, 3, 47, 93
5, 75940, Note_off_c, 3, 47, 64
5, 75945, Note_off_c, 3, 52, 64
5, 76160, Note_on_c, 3, 47, 113
5, 76160, Note_on_c, 3, 52, 107
5, 76305, Note_off_c, 3, 47, 64
5, 76320, Note_on_c, 3, 49, 89
5, 76640, Note_on_c, 3, 47, 76
5, 76660, Note_off_c, 3, 49, 64
5, 76695, Note_off_c, 3, 52, 64
5, 76780, Note_off_c, 3, 47, 64
5, 76800, Note_on_c, 3, 45, 107
5, 76970, Note_off_c, 3, 45, 64
5, 77120, Note_on_c, 3, 57, 102
5, 77280, Note_on_c, 3, 55, 102
5, 77340, Note_off_c, 3, 57, 64
5, 77600, Note_on_c, 3, 57, 89
5, 77760, Note_on_c, 3, 54, 107
5, 77840, Note_off_c, 3, 55, 64
5, 77870, Note_off_c, 3, 57, 64
5, 78080, Note_on_c, 3, 57, 76
5, 78085, Note_off_c, 3, 54, 64
5, 78240, Note_on_c, 3, 53, 98
5, 78305, Note_off_c, 3, 57, 64
5, 78560, Note_on_c, 3, 57, 85
5, 78580, Note_off_c, 3, 53, 64
5, 78720, Note_on_c, 3, 52, 89
5, 80080, Note_off_c, 3, 52, 64
5, 80160, Note_on_c, 3, 52, 98
5, 80285, Note_off_c, 3, 57, 64
5, 80320, Note_on_c, 3, 54, 107
5, 80325, Note_off_c, 3, 52, 64
5, 80470, Note_off_c, 3, 54, 64
5, 80480, Note_on_c, 3, 57, 102
5, 80640, Note_off_c, 3, 57, 64
5, 80640, Note_on_c, 3, 52, 107
5, 80640, Note_on_c, 3, 57, 102
5, 80735, Note_off_c, 3, 52, 64
5, 80790, Note_off_c, 3, 57, 64
5, 80960, Note_on_c, 3, 52, 107
5, 80960, Note_on_c, 3, 57, 98
5, 81120, Note_off_c, 3, 52, 64
5, 81120, Note_on_c, 3, 54, 76
5, 81205, Note_off_c, 3, 57, 64
5, 81230, Note_off_c, 3, 54, 64
5, 81440, Note_on_c, 3, 54, 107
5, 81440, Note_on_c, 3, 57, 107
5, 81585, Note_off_c, 3, 54, 64
5, 81600, Note_on_c, 3, 52, 76
5, 81705, Note_off_c, 3, 52, 64
5, 81710, Note_off_c, 3, 57, 64
5, 81920, Note_on_c, 3, 57, 102
5, 81920, Note_on_c, 3, 52, 107
5, 82080, Note_on_c, 3, 54, 102
5, 82090, Note_off_c, 3, 52, 64
5, 82390, Note_off_c, 3, 54, 64
5, 82400, Note_on_c, 3, 52, 76
5, 82450, Note_off_c, 3, 57, 64
5, 82480, Note_off_c, 3, 52, 64
5, 82560, Note_on_c, 3, 47, 107
5, 82560, Note_on_c, 3, 52, 93
5, 82665, Note_off_c, 3, 52, 64
5, 82675, Note_off_c, 3, 47, 64
5, 82880, Note_on_c, 3, 47, 107
5, 82880, Note_on_c, 3, 52, 102
5, 83040, Note_on_c, 3, 49, 98
5, 83045, Note_off_c, 3, 47, 64
5, 83125, Note_off_c, 3, 49, 64
5, 83130, Note_off_c, 3, 52, 64
5, 83360, Note_on_c, 3, 52, 98
5, 83360, Note_on_c, 3, 49, 107
5, 83495, Note_off_c, 3, 49, 64
5, 83520, Note_on_c, 3, 47, 89
5, 83625, Note_off_c, 3, 52, 64
5, 83625, Note_off_c, 3, 47, 64
5, 83840, Note_on_c, 3, 47, 102
5, 83840, Note_on_c, 3, 52, 102
5, 83995, Note_off_c, 3, 47, 64
5, 84000, Note_on_c, 3, 49, 76
5, 84315, Note_off_c, 3, 49, 64
5, 84320, Note_on_c, 3, 47, 93
5, 84390, Note_off_c, 3, 52, 64
5, 84465, Note_off_c, 3, 47, 64
5, 84480, Note_on_c, 3, 50, 93
5, 84480, Note_on_c, 3, 45, 89
5, 84590, Note_off_c, 3, 45, 64
5, 84590, Note_off_c, 3, 50, 64
5, 84800, Note_on_c, 3, 45, 93
5, 84800, Note_on_c, 3, 50, 102
5, 84950, Note_off_c, 3, 45, 64
5, 84960, Note_on_c, 3, 47, 98
5, 85065, Note_off_c, 3, 47, 64
5, 85080, Note_off_c, 3, 50, 64
5, 85280, Note_on_c, 3, 50, 107
5, 85280, Note_on_c, 3, 47, 107
5, 85440, Note_off_c, 3, 47, 64
5, 85440, Note_on_c, 3, 45, 89
5, 85535, Note_off_c, 3, 45, 64
5, 85555, Note_off_c, 3, 50, 64
5, 85760, Note_on_c, 3, 50, 102
5, 85760, Note_on_c, 3, 45, 93
5, 85920, Note_on_c, 3, 47, 93
5, 85940, Note_off_c, 3, 45, 64
5, 86020, Note_off_c, 3, 47, 64
5, 86030, Note_off_c, 3, 50, 64
5, 86240, Note_on_c, 3, 50, 107
5, 86240, Note_on_c, 3, 47, 113
5, 86395, Note_off_c, 3, 47, 64
5, 86400, Note_on_c, 3, 45, 76
5, 86515, Note_off_c, 3, 45, 64
5, 86520, Note_off_c, 3, 50, 64
5, 86720, Note_on_c, 3, 50, 98
5, 86720, Note_on_c, 3, 45, 93
5, 86870, Note_off_c, 3, 45, 64
5, 86880, Note_on_c, 3, 47, 93
5, 86990, Note_off_c, 3, 50, 64
5, 86990, Note_off_c, 3, 47, 64
5, 87200, Note_on_c, 3, 50, 107
5, 87200, Note_on_c, 3, 47, 107
5, 87340, Note_off_c, 3, 47, 64
5, 87360, Note_on_c, 3, 45, 68
5, 87455, Note_off_c, 3, 50, 64
5, 87480, Note_off_c, 3, 45, 64
5, 87680, Note_on_c, 3, 50, 98
5, 87680, Note_on_c, 3, 45, 93
5, 87810, Note_off_c, 3, 45, 64
5, 87840, Note_on_c, 3, 47, 102
5, 88155, Note_off_c, 3, 47, 64
5, 88160, Note_on_c, 3, 45, 76
5, 88210, Note_off_c, 3, 50, 64
5, 88235, Note_off_c, 3, 45, 64
5, 88320, Note_on_c, 3, 57, 107
5, 88320, Note_on_c, 3, 52, 107
5, 88410, Note_off_c, 3, 52, 64
5, 88430, Note_off_c, 3, 57, 64
5, 88640, Note_on_c, 3, 52, 107
5, 88640, Note_on_c, 3, 57, 93
5, 88800, Note_on_c, 3, 54, 89
5, 88805, Note_off_c, 3, 52, 64
5, 88880, Note_off_c, 3, 57, 64
5, 88900, Note_off_c, 3, 54, 64
5, 89120, Note_on_c, 3, 57, 102
5, 89120, Note_on_c, 3, 54, 107
5, 89245, Note_off_c, 3, 54, 64
5, 89280, Note_on_c, 3, 52, 76
5, 89385, Note_off_c, 3, 57, 64
5, 89385, Note_off_c, 3, 52, 64
5, 89600, Note_on_c, 3, 57, 93
5, 89600, Note_on_c, 3, 52, 102
5, 89760, Note_on_c, 3, 54, 98
5, 89765, Note_off_c, 3, 52, 64
5, 90080, Note_on_c, 3, 52, 76
5, 90105, Note_off_c, 3, 54, 64
5, 90120, Note_off_c, 3, 57, 64
5, 90160, Note_off_c, 3, 52, 64
5, 90240, Note_on_c, 3, 52, 107
5, 90240, Note_on_c, 3, 47, 102
5, 90350, Note_off_c, 3, 47, 64
5, 90350, Note_off_c, 3, 52, 64
5, 90560, Note_on_c, 3, 52, 98
5, 90560, Note_on_c, 3, 47, 107
5, 90720, Note_on_c, 3, 49, 89
5, 90750, Note_off_c, 3, 47, 64
5, 90810, Note_off_c, 3, 49, 64
5, 90825, Note_off_c, 3, 52, 64
5, 91040, Note_on_c, 3, 49, 107
5, 91040, Note_on_c, 3, 52, 102
5, 91170, Note_off_c, 3, 49, 64
5, 91200, Note_on_c, 3, 47, 93
5, 91300, Note_off_c, 3, 47, 64
5, 91305, Note_off_c, 3, 52, 64
5, 91520, Note_on_c, 3, 47, 113
5, 91520, Note_on_c, 3, 52, 107
5, 91665, Note_off_c, 3, 47, 64
5, 91680, Note_on_c, 3, 49, 89
5, 92000, Note_on_c, 3, 47, 76
5, 92020, Note_off_c, 3, 49, 64
5, 92055, Note_off_c, 3, 52, 64
5, 92140, Note_off_c, 3, 47, 64
5, 92160, Note_on_c, 3, 45, 107
5, 92330, Note_off_c, 3, 45, 64
5, 92480, Note_on_c, 3, 57, 102
5, 92640, Note_on_c, 3, 55, 102
5, 92700, Note_off_c, 3, 57, 64
5, 92960, Note_on_c, 3, 57, 89
5, 93120, Note_on_c, 3, 54, 107
5, 93200, Note_off_c, 3, 55, 64
5, 93230, Note_off_c, 3, 57, 64
5, 93440, Note_on_c, 3, 57, 76
5, 93445, Note_off_c, 3, 54, 64
5, 93600, Note_on_c, 3, 53, 98
5, 93665, Note_off_c, 3, 57, 64
5, 93920, Note_on_c, 3, 57, 85
5, 93940, Note_off_c, 3, 53, 64
5, 94080, Note_on_c, 3, 52, 89
5, 95440, Note_off_c, 3, 52, 64
5, 95520, Note_on_c, 3, 52, 98
5, 95645, Note_off_c, 3, 57, 64
5, 95680, Note_on_c, 3, 54, 107
5, 95685, Note_off_c, 3, 52, 64
5, 95830, Note_off_c, 3, 54, 64
5, 95840, Note_on_c, 3, 57, 102
5, 96000, Note_off_c, 3, 57, 64
5, 96000, Note_on_c, 3, 57, 102
5, 96000, Note_on_c, 3, 52, 107
5, 96095, Note_off_c, 3, 52, 64
5, 96150, Note_off_c, 3, 57, 64
5, 96320, Note_on_c, 3, 52, 107
5, 96320, Note_on_c, 3, 57, 98
5, 96480, Note_off_c, 3, 52, 64
5, 96480, Note_on_c, 3, 54, 76
5, 96565, Note_off_c, 3, 57, 64
5, 96590, Note_off_c, 3, 54, 64
5, 96800, Note_on_c, 3, 57, 107
5, 96800, Note_on_c, 3, 54, 107
5, 96945, Note_off_c, 3, 54, 64
5, 96960, Note_on_c, 3, 52, 76
5, 97065, Note_off_c, 3, 52, 64
5, 97070, Note_off_c, 3, 57, 64
5, 97280, Note_on_c, 3, 52, 107
5, 97280, Note_on_c, 3, 57, 102
5, 97440, Note_on_c, 3, 54, 102
5, 97450, Note_off_c, 3, 52, 64
5, 97750, Note_off_c, 3, 54, 64
5, 97760, Note_on_c, 3, 52, 76
5, 97810, Note_off_c, 3, 57, 64
5, 97840, Note_off_c, 3, 52, 64
5, 97920, Note_on_c, 3, 52, 93
5, 97920, Note_on_c, 3, 47, 107
5, 98025, Note_off_c, 3, 52, 64
5, 98035, Note_off_c, 3, 47, 64
5, 98240, Note_on_c, 3, 52, 102
5, 98240, Note_on_c, 3, 47, 107
5, 98400, Note_on_c, 3, 49, 98
5, 98405, Note_off_c, 3, 47, 64
5, 98485, Note_off_c, 3, 49, 64
5, 98490, Note_off_c, 3, 52, 64
5, 98720, Note_on_c, 3, 52, 98
5, 98720, Note_on_c, 3, 49, 107
5, 98855, Note_off_c, 3, 49, 64
5, 98880, Note_on_c, 3, 47, 89
5, 98985, Note_off_c, 3, 52, 64
5, 98985, Note_off_c, 3, 47, 64
5, 99200, Note_on_c, 3, 47, 102
5, 99200, Note_on_c, 3, 52, 102
5, 99355, Note_off_c, 3, 47, 64
5, 99360, Note_on_c, 3, 49, 76
5, 99675, Note_off_c, 3, 49, 64
5, 99680, Note_on_c, 3, 47, 93
5, 99750, Note_off_c, 3, 52, 64
5, 99825, Note_off_c, 3, 47, 64
5, 99840, Note_on_c, 3, 50, 93
5, 99840, Note_on_c, 3, 45, 89
5, 99950, Note_off_c, 3, 45, 64
5, 99950, Note_off_c, 3, 50, 64
5, 100160, Note_on_c, 3, 45, 93
5, 100160, Note_on_c, 3, 50, 102
5, 100310, Note_off_c, 3, 45, 64
5, 100320, Note_on_c, 3, 47, 98
5, 100425, Note_off_c, 3, 47, 64
5, 100440, Note_off_c, 3, 50, 64
5, 100640, Note_on_c, 3, 47, 107
5, 100640, Note_on_c, 3, 50, 107
5, 100800, Note_off_c, 3, 47, 64
5, 100800, Note_on_c, 3, 45, 89
5, 100895, Note_off_c, 3, 45, 64
5, 100915, Note_off_c, 3, 50, 64
5, 101120, Note_on_c, 3, 45, 93
5, 101120, Note_on_c, 3, 50, 102
5, 101280, Note_on_c, 3, 47, 93
5, 101300, Note_off_c, 3, 45, 64
5, 101380, Note_off_c, 3, 47, 64
5, 101390, Note_off_c, 3, 50, 64
5, 101600, Note_on_c, 3, 50, 107
5, 101600, Note_on_c, 3, 47, 113
5, 101755, Note_off_c, 3, 47, 64
5, 101760, Note_on_c, 3, 45, 76
5, 101875, Note_off_c, 3, 45, 64
5, 101880, Note_off_c, 3, 50, 64
5, 102080, Note_on_c, 3, 50, 98
5, 102080, Note_on_c, 3, 45, 93
5, 102230, Note_off_c, 3, 45, 64
5, 102240, Note_on_c, 3, 47, 93
5, 102350, Note_off_c, 3, 50, 64
5, 102350, Note_off_c, 3, 47, 64
5, 102560, Note_on_c, 3, 47, 107
5, 102560, Note_on_c, 3, 50, 107
5, 102700, Note_off_c, 3, 47, 64
5, 102720, Note_on_c, 3, 45, 68
5, 102815, Note_off_c, 3, 50, 64
5, 102840, Note_off_c, 3, 45, 64
5, 103040, Note_on_c, 3, 45, 93
5, 103040, Note_on_c, 3, 50, 98
5, 103170, Note_off_c, 3, 45, 64
5, 103200, Note_on_c, 3, 47, 102
5, 103515, Note_off_c, 3, 47, 64
5, 103520, Note_on_c, 3, 45, 76
5, 103570, Note_off_c, 3, 50, 64
5, 103595, Note_off_c, 3, 45, 64
5, 103680, Note_on_c, 3, 57, 107
5, 103680, Note_on_c, 3, 52, 107
5, 103770, Note_off_c, 3, 52, 64
5, 103790, Note_off_c, 3, 57, 64
5, 104000, Note_on_c, 3, 57, 93
5, 104000, Note_on_c, 3, 52, 107
5, 104160, Note_on_c, 3, 54, 89
5, 104165, Note_off_c, 3, 52, 64
5, 104240, Note_off_c, 3, 57, 64
5, 104260, Note_off_c, 3, 54, 64
5, 104480, Note_on_c, 3, 54, 107
5, 104480, Note_on_c, 3, 57, 102
5, 104605, Note_off_c, 3, 54, 64
5, 104640, Note_on_c, 3, 52, 76
5, 104745, Note_off_c, 3, 57, 64
5, 104745, Note_off_c, 3, 52, 64
5, 104960, Note_on_c, 3, 52, 102
5, 104960, Note_on_c, 3, 57, 93
5, 105120, Note_on_c, 3, 54, 98
5, 105125, Note_off_c, 3, 52, 64
5, 105440, Note_on_c, 3, 52, 76
5, 105465, Note_off_c, 3, 54, 64
5, 105480, Note_off_c, 3, 57, 64
5, 105520, Note_off_c, 3, 52, 64
5, 105600, Note_on_c, 3, 47, 102
5, 105600, Note_on_c, 3, 52, 107
5, 105710, Note_off_c, 3, 52, 64
5, 105710, Note_off_c, 3, 47, 64
5, 105920, Note_on_c, 3, 52, 98
5, 105920, Note_on_c, 3, 47, 107
5, 106080, Note_on_c, 3, 49, 89
5, 106110, Note_off_c, 3, 47, 64
5, 106170, Note_off_c, 3, 49, 64
5, 106185, Note_off_c, 3, 52, 64
5, 106400, Note_on_c, 3, 52, 102
5, 106400, Note_on_c, 3, 49, 107
5, 106530, Note_off_c, 3, 49, 64
5, 106560, Note_on_c, 3, 47, 93
5, 106660, Note_off_c, 3, 47, 64
5, 106665, Note_off_c, 3, 52, 64
5, 106880, Note_on_c, 3, 52, 107
5, 106880, Note_on_c, 3, 47, 113
5, 107025, Note_off_c, 3, 47, 64
5, 107040, Note_on_c, 3, 49, 89
5, 107360, Note_on_c, 3, 47, 76
5, 107380, Note_off_c, 3, 49, 64
5, 107415, Note_off_c, 3, 52, 64
5, 107500, Note_off_c, 3, 47, 64
5, 107520, Note_on_c, 3, 45, 107
5, 107690, Note_off_c, 3, 45, 64
5, 107840, Note_on_c, 3, 57, 102
5, 108000, Note_on_c, 3, 55, 102
5, 108060, Note_off_c, 3, 57, 64
5, 108320, Note_on_c, 3, 57, 89
5, 108480, Note_on_c, 3, 54, 107
5, 108560, Note_off_c, 3, 55, 64
5, 108590, Note_off_c, 3, 57, 64
5, 108800, Note_on_c, 3, 57, 76
5, 108805, Note_off_c, 3, 54, 64
5, 108960, Note_on_c, 3, 53, 98
5, 109025, Note_off_c, 3, 57, 64
5, 109280, Note_on_c, 3, 57, 85
5, 109300, Note_off_c, 3, 53, 64
5, 109440, Note_on_c, 3, 52, 89
5, 110800, Note_off_c, 3, 52, 64
5, 110880, Note_on_c, 3, 52, 98
5, 111005, Note_off_c, 3, 57, 64
5, 111040, Note_on_c, 3, 54, 107
5, 111045, Note_off_c, 3, 52, 64
5, 111190, Note_off_c, 3, 54, 64
5, 111200, Note_on_c, 3, 57, 102
5, 111360, Note_off_c, 3, 57, 64
5, 111360, Note_on_c, 3, 57, 102
5, 111360, Note_on_c, 3, 52, 107
5, 111455, Note_off_c, 3, 52, 64
5, 111510, Note_off_c, 3, 57, 64
5, 111680, Note_on_c, 3, 57, 98
5, 111680, Note_on_c, 3, 52, 107
5, 111840, Note_off_c, 3, 52, 64
5, 111840, Note_on_c, 3, 54, 76
5, 111925, Note_off_c, 3, 57, 64
5, 111950, Note_off_c, 3, 54, 64
5, 112160, Note_on_c, 3, 54, 107
5, 112160, Note_on_c, 3, 57, 107
5, 112305, Note_off_c, 3, 54, 64
5, 112320, Note_on_c, 3, 52, 76
5, 112425, Note_off_c, 3, 52, 64
5, 112430, Note_off_c, 3, 57, 64
5, 112640, Note_on_c, 3, 57, 102
5, 112640, Note_on_c, 3, 52, 107
5, 112800, Note_on_c, 3, 54, 102
5, 112810, Note_off_c, 3, 52, 64
5, 113110, Note_off_c, 3, 54, 64
5, 113120, Note_on_c, 3, 52, 76
5, 113170, Note_off_c, 3, 57, 64
5, 113200, Note_off_c, 3, 52, 64
5, 113280, Note_on_c, 3, 47, 107
5, 113280, Note_on_c, 3, 52, 93
5, 113385, Note_off_c, 3, 52, 64
5, 113395, Note_off_c, 3, 47, 64
5, 113600, Note_on_c, 3, 47, 107
5, 113600, Note_on_c, 3, 52, 102
5, 113760, Note_on_c, 3, 49, 98
5, 113765, Note_off_c, 3, 47, 64
5, 113845, Note_off_c, 3, 49, 64
5, 113850, Note_off_c, 3, 52, 64
5, 114080, Note_on_c, 3, 49, 107
5, 114080, Note_on_c, 3, 52, 98
5, 114215, Note_off_c, 3, 49, 64
5, 114240, Note_on_c, 3, 47, 89
5, 114345, Note_off_c, 3, 52, 64
5, 114345, Note_off_c, 3, 47, 64
5, 114560, Note_on_c, 3, 52, 102
5, 114560, Note_on_c, 3, 47, 102
5, 114715, Note_off_c, 3, 47, 64
5, 114720, Note_on_c, 3, 49, 76
5, 115035, Note_off_c, 3, 49, 64
5, 115040, Note_on_c, 3, 47, 93
5, 115110, Note_off_c, 3, 52, 64
5, 115185, Note_off_c, 3, 47, 64
5, 115200, Note_on_c, 3, 50, 93
5, 115200, Note_on_c, 3, 45, 89
5, 115310, Note_off_c, 3, 45, 64
5, 115310, Note_off_c, 3, 50, 64
5, 115520, Note_on_c, 3, 50, 102
5, 115520, Note_on_c, 3, 45, 93
5, 115670, Note_off_c, 3, 45, 64
5, 115680, Note_on_c, 3, 47, 98
5, 115785, Note_off_c, 3, 47, 64
5, 115800, Note_off_c, 3, 50, 64
5, 116000, Note_on_c, 3, 47, 107
5, 116000, Note_on_c, 3, 50, 107
5, 116160, Note_off_c, 3, 47, 64
5, 116160, Note_on_c, 3, 45, 89
5, 116255, Note_off_c, 3, 45, 64
5, 116275, Note_off_c, 3, 50, 64
5, 116480, Note_on_c, 3, 50, 102
5, 116480, Note_on_c, 3, 45, 93
5, 116640, Note_on_c, 3, 47, 93
5, 116660, Note_off_c, 3, 45, 64
5, 116740, Note_off_c, 3, 47, 64
5, 116750, Note_off_c, 3, 50, 64
5, 116960, Note_on_c, 3, 50, 107
5, 116960, Note_on_c, 3, 47, 113
5, 117115, Note_off_c, 3, 47, 64
5, 117120, Note_on_c, 3, 45, 76
5, 117235, Note_off_c, 3, 45, 64
5, 117240, Note_off_c, 3, 50, 64
5, 117440, Note_on_c, 3, 50, 98
5, 117440, Note_on_c, 3, 45, 93
5, 117590, Note_off_c, 3, 45, 64
5, 117600, Note_on_c, 3, 47, 93
5, 117710, Note_off_c, 3, 50, 64
5, 117710, Note_off_c, 3, 47, 64
5, 117920, Note_on_c, 3, 50, 107
5, 117920, Note_on_c, 3, 47, 107
5, 118060, Note_off_c, 3, 47, 64
5, 118080, Note_on_c, 3, 45, 68
5, 118175, Note_off_c, 3, 50, 64
5, 118200, Note_off_c, 3, 45, 64
5, 118400, Note_on_c, 3, 50, 98
5, 118400, Note_on_c, 3, 45, 93
5, 118530, Note_off_c, 3, 45, 64
5, 118560, Note_on_c, 3, 47, 102
5, 118875, Note_off_c, 3, 47, 64
5, 118880, Note_on_c, 3, 45, 76
5, 118930, Note_off_c, 3, 50, 64
5, 118955, Note_off_c, 3, 45, 64
5, 119040, Note_on_c, 3, 52, 107
5, 119040, Note_on_c, 3, 57, 107
5, 119130, Note_off_c, 3, 52, 64
5, 119150, Note_off_c, 3, 57, 64
5, 119360, Note_on_c, 3, 52, 107
5, 119360, Note_on_c, 3, 57, 93
5, 119520, Note_on_c, 3, 54, 89
5, 119525, Note_off_c, 3, 52, 64
5, 119600, Note_off_c, 3, 57, 64
5, 119620, Note_off_c, 3, 54, 64
5, 119840, Note_on_c, 3, 57, 102
5, 119840, Note_on_c, 3, 54, 107
5, 119965, Note_off_c, 3, 54, 64
5, 120000, Note_on_c, 3, 52, 76
5, 120105, Note_off_c, 3, 57, 64
5, 120105, Note_off_c, 3, 52, 64
5, 120320, Note_on_c, 3, 57, 93
5, 120320, Note_on_c, 3, 52, 102
5, 120480, Note_on_c, 3, 54, 98
5, 120485, Note_off_c, 3, 52, 64
5, 120800, Note_on_c, 3, 52, 76
5, 120825, Note_off_c, 3, 54, 64
5, 120840, Note_off_c, 3, 57, 64
5, 120880, Note_off_c, 3, 52, 64
5, 120960, Note_on_c, 3, 52, 107
5, 120960, Note_on_c, 3, 47, 102
5, 121070, Note_off_c, 3, 47, 64
5, 121070, Note_off_c, 3, 52, 64
5, 121280, Note_on_c, 3, 52, 98
5, 121280, Note_on_c, 3, 47, 107
5, 121440, Note_on_c, 3, 49, 89
5, 121470, Note_off_c, 3, 47, 64
5, 121530, Note_off_c, 3, 49, 64
5, 121545, Note_off_c, 3, 52, 64
5, 121760, Note_on_c, 3, 52, 102
5, 121760, Note_on_c, 3, 49, 107
5, 121890, Note_off_c, 3, 49, 64
5, 121920, Note_on_c, 3, 47, 93
5, 122020, Note_off_c, 3, 47, 64
5, 122025, Note_off_c, 3, 52, 64
5, 122240, Note_on_c, 3, 47, 113
5, 122240, Note_on_c, 3, 52, 107
5, 122385, Note_off_c, 3, 47, 64
5, 122400, Note_on_c, 3, 49, 89
5, 122720, Note_on_c, 3, 47, 76
5, 122740, Note_off_c, 3, 49, 64
5, 122775, Note_off_c, 3, 52, 64
5, 122860, Note_off_c, 3, 47, 64
5, 122880, Note_on_c, 3, 45, 107
5, 123050, Note_off_c, 3, 45, 64
5, 123200, Note_on_c, 3, 57, 102
5, 123360, Note_on_c, 3, 55, 102
5, 123420, Note_off_c, 3, 57, 64
5, 123680, Note_on_c, 3, 57, 89
5, 123840, Note_on_c, 3, 54, 107
5, 123920, Note_off_c, 3, 55, 64
5, 123950, Note_off_c, 3, 57, 64
5, 124160, Note_on_c, 3, 57, 76
5, 124165, Note_off_c, 3, 54, 64
5, 124320, Note_on_c, 3, 53, 98
5, 124385, Note_off_c, 3, 57, 64
5, 124640, Note_on_c, 3, 57, 85
5, 124660, Note_off_c, 3, 53, 64
5, 124800, Note_on_c, 3, 52, 89
5, 126160, Note_off_c, 3, 52, 64
5, 126240, Note_on_c, 3, 52, 98
5, 126365, Note_off_c, 3, 57, 64
5, 126400, Note_on_c, 3, 54, 107
5, 126405, Note_off_c, 3, 52, 64
5, 126550, Note_off_c, 3, 54, 64
5, 126560, Note_on_c, 3, 57, 102
5, 126720, Note_off_c, 3, 57, 64
5, 126720, Note_on_c, 3, 57, 102
5, 126720, Note_on_c, 3, 52, 107
5, 126815, Note_off_c, 3, 52, 64
5, 126870, Note_off_c, 3, 57, 64
5, 127040, Note_on_c, 3, 52, 107
5, 127040, Note_on_c, 3, 57, 98
5, 127200, Note_off_c, 3, 52, 64
5, 127200, Note_on_c, 3, 54, 76
5, 127285, Note_off_c, 3, 57, 64
5, 127310, Note_off_c, 3, 54, 64
5, 127520, Note_on_c, 3, 57, 107
5, 127520, Note_on_c, 3, 54, 107
5, 127665, Note_off_c, 3, 54, 64
5, 127680, Note_on_c, 3, 52, 76
5, 127785, Note_off_c, 3, 52, 64
5, 127790, Note_off_c, 3, 57, 64
5, 128000, Note_on_c, 3, 57, 102
5, 128000, Note_on_c, 3, 52, 107
5, 128160, Note_on_c, 3, 54, 102
5, 128170, Note_off_c, 3, 52, 64
5, 128470, Note_off_c, 3, 54, 64
5, 128480, Note_on_c, 3, 52, 76
5, 128530, Note_off_c, 3, 57, 64
5, 128560, Note_off_c, 3, 52, 64
5, 128640, Note_on_c, 3, 47, 107
5, 128640, Note_on_c, 3, 52, 93
5, 128745, Note_off_c, 3, 52, 64
5, 128755, Note_off_c, 3, 47, 64
5, 128960, Note_on_c, 3, 52, 102
5, 128960, Note_on_c, 3, 47, 107
5, 129120, Note_on_c, 3, 49, 98
5, 129125, Note_off_c, 3, 47, 64
5, 129205, Note_off_c, 3, 49, 64
5, 129210, Note_off_c, 3, 52, 64
5, 129440, Note_on_c, 3, 49, 107
5, 129440, Note_on_c, 3, 52, 98
5, 129575, Note_off_c, 3, 49, 64
5, 129600, Note_on_c, 3, 47, 89
5, 129705, Note_off_c, 3, 52, 64
5, 129705, Note_off_c, 3, 47, 64
5, 129920, Note_on_c, 3, 47, 102
5, 129920, Note_on_c, 3, 52, 102
5, 130075, Note_off_c, 3, 47, 64
5, 130080, Note_on_c, 3, 49, 76
5, 130395, Note_off_c, 3, 49, 64
5, 130400, Note_on_c, 3, 47, 93
5, 130470, Note_off_c, 3, 52, 64
5, 130545, Note_off_c, 3, 47, 64
5, 130560, Note_on_c, 3, 50, 93
5, 130560, Note_on_c, 3, 45, 89
5, 130670, Note_off_c, 3, 45, 64
5, 130670, Note_off_c, 3, 50, 64
5, 130880, Note_on_c, 3, 45, 93
5, 130880, Note_on_c, 3, 50, 102
5, 131030, Note_off_c, 3, 45, 64
5, 131040, Note_on_c, 3, 47, 98
5, 131145, Note_off_c, 3, 47, 64
5, 131160, Note_off_c, 3, 50, 64
5, 131360, Note_on_c, 3, 50, 107
5, 131360, Note_on_c, 3, 47, 107
5, 131520, Note_off_c, 3, 47, 64
5, 131520, Note_on_c, 3, 45, 89
5, 131615, Note_off_c, 3, 45, 64
5, 131635, Note_off_c, 3, 50, 64
5, 131840, Note_on_c, 3, 45, 93
5, 131840, Note_on_c, 3, 50, 102
5, 132000, Note_on_c, 3, 47, 93
5, 132020, Note_off_c, 3, 45, 64
5, 132100, Note_off_c, 3, 47, 64
5, 132110, Note_off_c, 3, 50, 64
5, 132320, Note_on_c, 3, 47, 113
5, 132320, Note_on_c, 3, 50, 107
5, 132475, Note_off_c, 3, 47, 64
5, 132480, Note_on_c, 3, 45, 76
5, 132595, Note_off_c, 3, 45, 64
5, 132600, Note_off_c, 3, 50, 64
5, 132800, Note_on_c, 3, 45, 93
5, 132800, Note_on_c, 3, 50, 98
5, 132950, Note_off_c, 3, 45, 64
5, 132960, Note_on_c, 3, 47, 93
5, 133070, Note_off_c, 3, 50, 64
5, 133070, Note_off_c, 3, 47, 64
5, 133280, Note_on_c, 3, 50, 107
5, 133280, Note_on_c, 3, 47, 107
5, 133420, Note_off_c, 3, 47, 64
5, 133440, Note_on_c, 3, 45, 68
5, 133535, Note_off_c, 3, 50, 64
5, 133560, Note_off_c, 3, 45, 64
5, 133760, Note_on_c, 3, 45, 93
5, 133760, Note_on_c, 3, 50, 98
5, 133890, Note_off_c, 3, 45, 64
5, 133920, Note_on_c, 3, 47, 102
5, 134235, Note_off_c, 3, 47, 64
5, 134240, Note_on_c, 3, 45, 76
5, 134290, Note_off_c, 3, 50, 64
5, 134315, Note_off_c, 3, 45, 64
5, 134400, Note_on_c, 3, 52, 107
5, 134400, Note_on_c, 3, 57, 107
5, 134490, Note_off_c, 3, 52, 64
5, 134510, Note_off_c, 3, 57, 64
5, 134720, Note_on_c, 3, 52, 107
5, 134720, Note_on_c, 3, 57, 93
5, 134880, Note_on_c, 3, 54, 89
5, 134885, Note_off_c, 3, 52, 64
5, 134960, Note_off_c, 3, 57, 64
5, 134980, Note_off_c, 3, 54, 64
5, 135200, Note_on_c, 3, 54, 107
5, 135200, Note_on_c, 3, 57, 102
5, 135325, Note_off_c, 3, 54, 64
5, 135360, Note_on_c, 3, 52, 76
5, 135465, Note_off_c, 3, 57, 64
5, 135465, Note_off_c, 3, 52, 64
5, 135680, Note_on_c, 3, 57, 93
5, 135680, Note_on_c, 3, 52, 102
5, 135840, Note_on_c, 3, 54, 98
5, 135845, Note_off_c, 3, 52, 64
5, 136160, Note_on_c, 3, 52, 76
5, 136185, Note_off_c, 3, 54, 64
5, 136200, Note_off_c, 3, 57, 64
5, 136240, Note_off_c, 3, 52, 64
5, 136320, Note_on_c, 3, 52, 107
5, 136320, Note_on_c, 3, 47, 102
5, 136430, Note_off_c, 3, 47, 64
5, 136430, Note_off_c, 3, 52, 64
5, 136640, Note_on_c, 3, 52, 98
5, 136640, Note_on_c, 3, 47, 107
5, 136800, Note_on_c, 3, 49, 89
5, 136830, Note_off_c, 3, 47, 64
5, 136890, Note_off_c, 3, 49, 64
5, 136905, Note_off_c, 3, 52, 64
5, 137120, Note_on_c, 3, 52, 102
5, 137120, Note_on_c, 3, 49, 107
5, 137250, Note_off_c, 3, 49, 64
5, 137280, Note_on_c, 3, 47, 93
5, 137380, Note_off_c, 3, 47, 64
5, 137385, Note_off_c, 3, 52, 64
5, 137600, Note_on_c, 3, 47, 113
5, 137600, Note_on_c, 3, 52, 107
5, 137745, Note_off_c, 3, 47, 64
5, 137760, Note_on_c, 3, 49, 89
5, 138080, Note_on_c, 3, 47, 76
5, 138100, Note_off_c, 3, 49, 64
5, 138135, Note_off_c, 3, 52, 64
5, 138220, Note_off_c, 3, 47, 64
5, 138240, Note_on_c, 3, 45, 107
5, 138410, Note_off_c, 3, 45, 64
5, 138560, Note_on_c, 3, 57, 102
5, 138720, Note_on_c, 3, 55, 102
5, 138780, Note_off_c, 3, 57, 64
5, 139040, Note_on_c, 3, 57, 89
5, 139200, Note_on_c, 3, 54, 107
5, 139280, Note_off_c, 3, 55, 64
5, 139310, Note_off_c, 3, 57, 64
5, 139520, Note_on_c, 3, 57, 76
5, 139525, Note_off_c, 3, 54, 64
5, 139680, Note_on_c, 3, 53, 98
5, 139745, Note_off_c, 3, 57, 64
5, 140000, Note_on_c, 3, 57, 85
5, 140020, Note_off_c, 3, 53, 64
5, 140160, Note_on_c, 3, 52, 89
5, 141520, Note_off_c, 3, 52, 64
5, 141600, Note_on_c, 3, 52, 98
5, 141725, Note_off_c, 3, 57, 64
5, 141760, Note_on_c, 3, 54, 107
5, 141765, Note_off_c, 3, 52, 64
5, 141910, Note_off_c, 3, 54, 64
5, 141920, Note_on_c, 3, 57, 102
5, 142080, Note_off_c, 3, 57, 64
5, 142080, Note_on_c, 3, 52, 107
5, 142080, Note_on_c, 3, 57, 102
5, 142175, Note_off_c, 3, 52, 64
5, 142230, Note_off_c, 3, 57, 64
5, 142400, Note_on_c, 3, 52, 107
5, 142400, Note_on_c, 3, 57, 98
5, 142560, Note_off_c, 3, 52, 64
5, 142560, Note_on_c, 3, 54, 76
5, 142645, Note_off_c, 3, 57, 64
5, 142670, Note_off_c, 3, 54, 64
5, 142880, Note_on_c, 3, 54, 107
5, 142880, Note_on_c, 3, 57, 107
5, 143025, Note_off_c, 3, 54, 64
5, 143040, Note_on_c, 3, 52, 76
5, 143145, Note_off_c, 3, 52, 64
5, 143150, Note_off_c, 3, 57, 64
5, 143360, Note_on_c, 3, 52, 107
5, 143360, Note_on_c, 3, 57, 102
5, 143520, Note_on_c, 3, 54, 102
5, 143530, Note_off_c, 3, 52, 64
5, 143830, Note_off_c, 3, 54, 64
5, 143840, Note_on_c, 3, 52, 76
5, 143890, Note_off_c, 3, 57, 64
5, 143920, Note_off_c, 3, 52, 64
5, 144000, Note_on_c, 3, 47, 107
5, 144000, Note_on_c, 3, 52, 93
5, 144105, Note_off_c, 3, 52, 64
5, 144115, Note_off_c, 3, 47, 64
5, 144320, Note_on_c, 3, 47, 107
5, 144320, Note_on_c, 3, 52, 102
5, 144480, Note_on_c, 3, 49, 98
5, 144485, Note_off_c, 3, 47, 64
5, 144565, Note_off_c, 3, 49, 64
5, 144570, Note_off_c, 3, 52, 64
5, 144800, Note_on_c, 3, 52, 98
5, 144800, Note_on_c, 3, 49, 107
5, 144935, Note_off_c, 3, 49, 64
5, 144960, Note_on_c, 3, 47, 89
5, 145065, Note_off_c, 3, 52, 64
5, 145065, Note_off_c, 3, 47, 64
5, 145280, Note_on_c, 3, 47, 102
5, 145280, Note_on_c, 3, 52, 102
5, 145435, Note_off_c, 3, 47, 64
5, 145440, Note_on_c, 3, 49, 76
5, 145755, Note_off_c, 3, 49, 64
5, 145760, Note_on_c, 3, 47, 93
5, 145830, Note_off_c, 3, 52, 64
5, 145905, Note_off_c, 3, 47, 64
5, 145920, Note_on_c, 3, 45, 89
5, 145920, Note_on_c, 3, 50, 93
5, 146030, Note_off_c, 3, 50, 64
5, 146030, Note_off_c, 3, 45, 64
5, 146240, Note_on_c, 3, 45, 93
5, 146240, Note_on_c, 3, 50, 102
5, 146390, Note_off_c, 3, 45, 64
5, 146400, Note_on_c, 3, 47, 98
5, 146505, Note_off_c, 3, 47, 64
5, 146520, Note_off_c, 3, 50, 64
5, 146720, Note_on_c, 3, 50, 107
5, 146720, Note_on_c, 3, 47, 107
5, 146880, Note_off_c, 3, 47, 64
5, 146880, Note_on_c, 3, 45, 89
5, 146975, Note_off_c, 3, 45, 64
5, 146995, Note_off_c, 3, 50, 64
5, 147200, Note_on_c, 3, 50, 102
5, 147200, Note_on_c, 3, 45, 93
5, 147360, Note_on_c, 3, 47, 93
5, 147380, Note_off_c, 3, 45, 64
5, 147460, Note_off_c, 3, 47, 64
5, 147470, Note_off_c, 3, 50, 64
5, 147680, Note_on_c, 3, 47, 113
5, 147680, Note_on_c, 3, 50, 107
5, 147835, Note_off_c, 3, 47, 64
5, 147840, Note_on_c, 3, 45, 76
5, 147955, Note_off_c, 3, 45, 64
5, 147960, Note_off_c, 3, 50, 64
5, 148160, Note_on_c, 3, 50, 98
5, 148160, Note_on_c, 3, 45, 93
5, 148310, Note_off_c, 3, 45, 64
5, 148320, Note_on_c, 3, 47, 93
5, 148430, Note_off_c, 3, 50, 64
5, 148430, Note_off_c, 3, 47, 64
5, 148640, Note_on_c, 3, 47, 107
5, 148640, Note_on_c, 3, 50, 107
5, 148780, Note_off_c, 3, 47, 64
5, 148800, Note_on_c, 3, 45, 68
5, 148895, Note_off_c, 3, 50, 64
5, 148920, Note_off_c, 3, 45, 64
5, 149120, Note_on_c, 3, 50, 98
5, 149120, Note_on_c, 3, 45, 93
5, 149250, Note_off_c, 3, 45, 64
5, 149280, Note_on_c, 3, 47, 102
5, 149595, Note_off_c, 3, 47, 64
5, 149600, Note_on_c, 3, 45, 76
5, 149650, Note_off_c, 3, 50, 64
5, 149675, Note_off_c, 3, 45, 64
5, 149760, Note_on_c, 3, 57, 107
5, 149760, Note_on_c, 3, 52, 107
5, 149850, Note_off_c, 3, 52, 64
5, 149870, Note_off_c, 3, 57, 64
5, 150080, Note_on_c, 3, 52, 107
5, 150080, Note_on_c, 3, 57, 93
5, 150240, Note_on_c, 3, 54, 89
5, 150245, Note_off_c, 3, 52, 64
5, 150320, Note_off_c, 3, 57, 64
5, 150340, Note_off_c, 3, 54, 64
5, 150560, Note_on_c, 3, 57, 102
5, 150560, Note_on_c, 3, 54, 107
5, 150685, Note_off_c, 3, 54, 64
5, 150720, Note_on_c, 3, 52, 76
5, 150825, Note_off_c, 3, 57, 64
5, 150825, Note_off_c, 3, 52, 64
5, 151040, Note_on_c, 3, 57, 93
5, 151040, Note_on_c, 3, 52, 102
5, 151200, Note_on_c, 3, 54, 98
5, 151205, Note_off_c, 3, 52, 64
5, 151520, Note_on_c, 3, 52, 76
5, 151545, Note_off_c, 3, 54, 64
5, 151560, Note_off_c, 3, 57, 64
5, 151600, Note_off_c, 3, 52, 64
5, 151680, Note_on_c, 3, 47, 102
5, 151680, Note_on_c, 3, 52, 107
5, 151790, Note_off_c, 3, 52, 64
5, 151790, Note_off_c, 3, 47, 64
5, 152000, Note_on_c, 3, 47, 107
5, 152000, Note_on_c, 3, 52, 98
5, 152160, Note_on_c, 3, 49, 89
5, 152190, Note_off_c, 3, 47, 64
5, 152250, Note_off_c, 3, 49, 64
5, 152265, Note_off_c, 3, 52, 64
5, 152480, Note_on_c, 3, 52, 102
5, 152480, Note_on_c, 3, 49, 107
5, 152610, Note_off_c, 3, 49, 64
5, 152640, Note_on_c, 3, 47, 93
5, 152740, Note_off_c, 3, 47, 64
5, 152745, Note_off_c, 3, 52, 64
5, 152960, Note_on_c, 3, 52, 107
5, 152960, Note_on_c, 3, 47, 113
5, 153105, Note_off_c, 3, 47, 64
5, 153120, Note_on_c, 3, 49, 89
5, 153440, Note_on_c, 3, 47, 76
5, 153460, Note_off_c, 3, 49, 64
5, 153495, Note_off_c, 3, 52, 64
5, 153580, Note_off_c, 3, 47, 64
5, 153600, Note_on_c, 3, 45, 107
5, 153770, Note_off_c, 3, 45, 64
5, 153920, Note_on_c, 3, 57, 102
5, 154080, Note_on_c, 3, 55, 102
5, 154140, Note_off_c, 3, 57, 64
5, 154400, Note_on_c, 3, 57, 89
5, 154560, Note_on_c, 3, 54, 107
5, 154640, Note_off_c, 3, 55, 64
5, 154670, Note_off_c, 3, 57, 64
5, 154880, Note_on_c, 3, 57, 76
5, 154885, Note_off_c, 3, 54, 64
5, 155040, Note_on_c, 3, 53, 98
5, 155105, Note_off_c, 3, 57, 64
5, 155360, Note_on_c, 3, 57, 85
5, 155380, Note_off_c, 3, 53, 64
5, 155520, Note_on_c, 3, 52, 89
5, 156880, Note_off_c, 3, 52, 64
5, 156960, Note_on_c, 3, 52, 98
5, 157085, Note_off_c, 3, 57, 64
5, 157120, Note_on_c, 3, 54, 107
5, 157125, Note_off_c, 3, 52, 64
5, 157270, Note_off_c, 3, 54, 64
5, 157280, Note_on_c, 3, 57, 102
5, 157440, Note_off_c, 3, 57, 64
5, 157440, Note_on_c, 3, 57, 102
5, 157440, Note_on_c, 3, 52, 107
5, 157535, Note_off_c, 3, 52, 64
5, 157590, Note_off_c, 3, 57, 64
5, 157760, Note_on_c, 3, 57, 98
5, 157760, Note_on_c, 3, 52, 107
5, 157920, Note_off_c, 3, 52, 64
5, 157920, Note_on_c, 3, 54, 76
5, 158005, Note_off_c, 3, 57, 64
5, 158030, Note_off_c, 3, 54, 64
5, 158240, Note_on_c, 3, 57, 107
5, 158240, Note_on_c, 3, 54, 107
5, 158385, Note_off_c, 3, 54, 64
5, 158400, Note_on_c, 3, 52, 76
5, 158505, Note_off_c, 3, 52, 64
5, 158510, Note_off_c, 3, 57, 64
5, 158720, Note_on_c, 3, 52, 107
5, 158720, Note_on_c, 3, 57, 102
5, 158880, Note_on_c, 3, 54, 102
5, 158890, Note_off_c, 3, 52, 64
5, 159190, Note_off_c, 3, 54, 64
5, 159200, Note_on_c, 3, 52, 76
5, 159250, Note_off_c, 3, 57, 64
5, 159280, Note_off_c, 3, 52, 64
5, 159360, Note_on_c, 3, 47, 107
5, 159360, Note_on_c, 3, 52, 93
5, 159465, Note_off_c, 3, 52, 64
5, 159475, Note_off_c, 3, 47, 64
5, 159680, Note_on_c, 3, 47, 107
5, 159680, Note_on_c, 3, 52, 102
5, 159840, Note_on_c, 3, 49, 98
5, 159845, Note_off_c, 3, 47, 64
5, 159925, Note_off_c, 3, 49, 64
5, 159930, Note_off_c, 3, 52, 64
5, 160160, Note_on_c, 3, 49, 107
5, 160160, Note_on_c, 3, 52, 98
5, 160295, Note_off_c, 3, 49, 64
5, 160320, Note_on_c, 3, 47, 89
5, 160425, Note_off_c, 3, 52, 64
5, 160425, Note_off_c, 3, 47, 64
5, 160640, Note_on_c, 3, 47, 102
5, 160640, Note_on_c, 3, 52, 102
5, 160795, Note_off_c, 3, 47, 64
5, 160800, Note_on_c, 3, 49, 76
5, 161115, Note_off_c, 3, 49, 64
5, 161120, Note_on_c, 3, 47, 93
5, 161190, Note_off_c, 3, 52, 64
5, 161265, Note_off_c, 3, 47, 64
5, 161280, Note_on_c, 3, 50, 93
5, 161280, Note_on_c, 3, 45, 89
5, 161390, Note_off_c, 3, 45, 64
5, 161390, Note_off_c, 3, 50, 64
5, 161600, Note_on_c, 3, 45, 93
5, 161600, Note_on_c, 3, 50, 102
5, 161750, Note_off_c, 3, 45, 64
5, 161760, Note_on_c, 3, 47, 98
5, 161865, Note_off_c, 3, 47, 64
5, 161880, Note_off_c, 3, 50, 64
5, 162080, Note_on_c, 3, 47, 107
5, 162080, Note_on_c, 3, 50, 107
5, 162240, Note_off_c, 3, 47, 64
5, 162240, Note_on_c, 3, 45, 89
5, 162335, Note_off_c, 3, 45, 64
5, 162355, Note_off_c, 3, 50, 64
5, 162560, Note_on_c, 3, 50, 102
5, 162560, Note_on_c, 3, 45, 93
5, 162720, Note_on_c, 3, 47, 93
5, 162740, Note_off_c, 3, 45, 64
5, 162820, Note_off_c, 3, 47, 64
5, 162830, Note_off_c, 3, 50, 64
5, 163040, Note_on_c, 3, 47, 113
5, 163040, Note_on_c, 3, 50, 107
5, 163195, Note_off_c, 3, 47, 64
5, 163200, Note_on_c, 3, 45, 76
5, 163315, Note_off_c, 3, 45, 64
5, 163320, Note_off_c, 3, 50, 64
5, 163520, Note_on_c, 3, 45, 93
5, 163520, Note_on_c, 3, 50, 98
5, 163670, Note_off_c, 3, 45, 64
5, 163680, Note_on_c, 3, 47, 93
5, 163790, Note_off_c, 3, 50, 64
5, 163790, Note_off_c, 3, 47, 64
5, 164000, Note_on_c, 3, 47, 107
5, 164000, Note_on_c, 3, 50, 107
5, 164140, Note_off_c, 3, 47, 64
5, 164160, Note_on_c, 3, 45, 68
5, 164255, Note_off_c, 3, 50, 64
5, 164280, Note_off_c, 3, 45, 64
5, 164480, Note_on_c, 3, 50, 98
5, 164480, Note_on_c, 3, 45, 93
5, 164610, Note_off_c, 3, 45, 64
5, 164640, Note_on_c, 3, 47, 102
5, 164955, Note_off_c, 3, 47, 64
5, 164960, Note_on_c, 3, 45, 76
5, 165010, Note_off_c, 3, 50, 64
5, 165035, Note_off_c, 3, 45, 64
5, 165120, Note_on_c, 3, 57, 107
5, 165120, Note_on_c, 3, 52, 107
5, 165210, Note_off_c, 3, 52, 64
5, 165230, Note_off_c, 3, 57, 64
5, 165440, Note_on_c, 3, 52, 107
5, 165440, Note_on_c, 3, 57, 93
5, 165600, Note_on_c, 3, 54, 89
5, 165605, Note_off_c, 3, 52, 64
5, 165680, Note_off_c, 3, 57, 64
5, 165700, Note_off_c, 3, 54, 64
5, 165920, Note_on_c, 3, 57, 102
5, 165920, Note_on_c, 3, 54, 107
5, 166045, Note_off_c, 3, 54, 64
5, 166080, Note_on_c, 3, 52, 76
5, 166185, Note_off_c, 3, 57, 64
5, 166185, Note_off_c, 3, 52, 64
5, 166400, Note_on_c, 3, 57, 93
5, 166400, Note_on_c, 3, 52, 102
5, 166560, Note_on_c, 3, 54, 98
5, 166565, Note_off_c, 3, 52, 64
5, 166880, Note_on_c, 3, 52, 76
5, 166905, Note_off_c, 3, 54, 64
5, 166920, Note_off_c, 3, 57, 64
5, 166960, Note_off_c, 3, 52, 64
5, 167040, Note_on_c, 3, 47, 102
5, 167040, Note_on_c, 3, 52, 107
5, 167150, Note_off_c, 3, 52, 64
5, 167150, Note_off_c, 3, 47, 64
5, 167360, Note_on_c, 3, 52, 98
5, 167360, Note_on_c, 3, 47, 107
5, 167520, Note_on_c, 3, 49, 89
5, 167550, Note_off_c, 3, 47, 64
5, 167610, Note_off_c, 3, 49, 64
5, 167625, Note_off_c, 3, 52, 64
5, 167840, Note_on_c, 3, 52, 102
5, 167840, Note_on_c, 3, 49, 107
5, 167970, Note_off_c, 3, 49, 64
5, 168000, Note_on_c, 3, 47, 93
5, 168100, Note_off_c, 3, 47, 64
5, 168105, Note_off_c, 3, 52, 64
5, 168320, Note_on_c, 3, 47, 113
5, 168320, Note_on_c, 3, 52, 107
5, 168465, Note_off_c, 3, 47, 64
5, 168480, Note_on_c, 3, 49, 89
5, 168800, Note_on_c, 3, 47, 76
5, 168820, Note_off_c, 3, 49, 64
5, 168855, Note_off_c, 3, 52, 64
5, 168940, Note_off_c, 3, 47, 64
5, 168960, Note_on_c, 3, 45, 93
5, 169240, Note_off_c, 3, 45, 64
5, 169280, Note_on_c, 3, 57, 98
5, 169440, Note_on_c, 3, 55, 102
5, 169535, Note_off_c, 3, 57, 64
5, 169920, Note_on_c, 3, 57, 76
5, 169920, Note_on_c, 3, 54, 113
5, 169975, Note_off_c, 3, 55, 64
5, 170370, Note_off_c, 3, 54, 64
5, 170400, Note_off_c, 3, 57, 64
5, 170400, Note_on_c, 3, 53, 102
5, 170400, Note_on_c, 3, 57, 80
5, 170790, Note_off_c, 3, 53, 64
5, 170795, Note_off_c, 3, 57, 64
5, 170880, Note_on_c, 3, 52, 85
5, 170880, Note_on_c, 3, 57, 85
5, 170970, Note_off_c, 3, 52, 64
5, 170995, Note_off_c, 3, 57, 64
5, 171360, Note_on_c, 3, 54, 107
5, 171360, Note_on_c, 3, 60, 102
5, 171360, Note_on_c, 3, 63, 93
5, 171590, Note_off_c, 3, 60, 64
5, 171595, Note_off_c, 3, 54, 64
5, 171605, Note_off_c, 3, 63, 64
5, 171680, Note_on_c, 3, 61, 89
5, 171680, Note_on_c, 3, 55, 102
5, 171680, Note_on_c, 3, 64, 107
5, 174540, Note_off_c, 3, 55, 64
5, 174550, Note_off_c, 3, 61, 64
5, 174550, Note_off_c, 3, 64, 64
5, 174720, Note_on_c, 3, 55, 113
5, 174720, Note_on_c, 3, 61, 113
5, 174720, Note_on_c, 3, 64, 113
5, 174830, Note_off_c, 3, 61, 64
5, 174840, Note_off_c, 3, 55, 64
5, 174840, Note_off_c, 3, 64, 64
5, 174840, End_track
6, 0, Start_track
6, 0, Title_t, "tk10"
6, 0, MIDI_port, 0
6, 0, Channel_prefix, 9
6, 0, Control_c, 9, 7, 118
6, 0, Control_c, 9, 10, 64
6, 525, Control_c, 9, 93, 0
6, 575, Control_c, 9, 91, 62
6, 700, Control_c, 9, 7, 118
6, 700, Control_c, 9, 10, 64
6, 1920, Note_on_c, 9, 42, 127
6, 2040, Note_off_c, 9, 42, 64
6, 2400, Note_on_c, 9, 42, 127
6, 2525, Note_off_c, 9, 42, 64
6, 2880, Note_on_c, 9, 40, 76
6, 2880, Note_on_c, 9, 45, 56
6, 2880, Note_on_c, 9, 43, 52
6, 2880, Note_on_c, 9, 42, 127
6, 2925, Note_off_c, 9, 43, 64
6, 2925, Note_off_c, 9, 45, 64
6, 2935, Note_off_c, 9, 40, 64
6, 2980, Note_off_c, 9, 42, 64
6, 3040, Note_on_c, 9, 43, 57
6, 3040, Note_on_c, 9, 45, 68
6, 3040, Note_on_c, 9, 40, 64
6, 3095, Note_off_c, 9, 45, 64
6, 3095, Note_off_c, 9, 43, 64
6, 3105, Note_off_c, 9, 40, 64
6, 3200, Note_on_c, 9, 40, 102
6, 3200, Note_on_c, 9, 45, 93
6, 3200, Note_on_c, 9, 43, 93
6, 3260, Note_off_c, 9, 45, 64
6, 3265, Note_off_c, 9, 43, 64
6, 3275, Note_off_c, 9, 40, 64
6, 3360, Note_on_c, 9, 40, 113
6, 3360, Note_on_c, 9, 43, 107
6, 3360, Note_on_c, 9, 42, 127
6, 3360, Note_on_c, 9, 45, 107
6, 3420, Note_off_c, 9, 43, 64
6, 3425, Note_off_c, 9, 40, 64
6, 3430, Note_off_c, 9, 45, 64
6, 3435, Note_off_c, 9, 42, 64
6, 3520, Note_on_c, 9, 40, 113
6, 3520, Note_on_c, 9, 43, 107
6, 3520, Note_on_c, 9, 45, 102
6, 3585, Note_off_c, 9, 45, 64
6, 3590, Note_off_c, 9, 43, 64
6, 3590, Note_off_c, 9, 40, 64
6, 3680, Note_on_c, 9, 43, 113
6, 3680, Note_on_c, 9, 45, 113
6, 3680, Note_on_c, 9, 40, 107
6, 3805, Note_off_c, 9, 40, 64
6, 3815, Note_off_c, 9, 45, 64
6, 3815, Note_off_c, 9, 43, 64
6, 3840, Note_on_c, 9, 36, 76
6, 3840, Note_on_c, 9, 57, 107
6, 3840, Note_on_c, 9, 36, 107
6, 3840, Note_on_c, 9, 51, 127
6, 3841, Note_off_c, 9, 36, 64
6, 3865, Note_off_c, 9, 57, 64
6, 3910, Note_off_c, 9, 51, 64
6, 4160, Note_on_c, 9, 51, 85
6, 4180, Note_off_c, 9, 51, 64
6, 4320, Note_on_c, 9, 40, 127
6, 4320, Note_on_c, 9, 51, 127
6, 4430, Note_off_c, 9, 51, 64
6, 4480, Note_off_c, 9, 36, 64
6, 4640, Note_off_c, 9, 40, 64
6, 4640, Note_on_c, 9, 36, 93
6, 4640, Note_on_c, 9, 51, 107
6, 4685, Note_off_c, 9, 51, 64
6, 4705, Note_off_c, 9, 36, 64
6, 4800, Note_on_c, 9, 36, 93
6, 4800, Note_on_c, 9, 51, 127
6, 4860, Note_off_c, 9, 51, 64
6, 5120, Note_on_c, 9, 51, 98
6, 5155, Note_off_c, 9, 51, 64
6, 5280, Note_on_c, 9, 40, 127
6, 5280, Note_on_c, 9, 51, 127
6, 5355, Note_off_c, 9, 51, 64
6, 5430, Note_off_c, 9, 36, 64
6, 5585, Note_off_c, 9, 40, 64
6, 5600, Note_on_c, 9, 36, 72
6, 5600, Note_on_c, 9, 51, 113
6, 5645, Note_off_c, 9, 51, 64
6, 5665, Note_off_c, 9, 36, 64
6, 5760, Note_on_c, 9, 36, 107
6, 5760, Note_on_c, 9, 51, 127
6, 5830, Note_off_c, 9, 51, 64
6, 6080, Note_on_c, 9, 51, 85
6, 6115, Note_off_c, 9, 51, 64
6, 6240, Note_on_c, 9, 51, 127
6, 6240, Note_on_c, 9, 40, 127
6, 6315, Note_off_c, 9, 51, 64
6, 6400, Note_off_c, 9, 36, 64
6, 6560, Note_on_c, 9, 36, 85
6, 6560, Note_on_c, 9, 51, 107
6, 6575, Note_off_c, 9, 40, 64
6, 6600, Note_off_c, 9, 51, 64
6, 6625, Note_off_c, 9, 36, 64
6, 6720, Note_on_c, 9, 36, 85
6, 6720, Note_on_c, 9, 51, 107
6, 6775, Note_off_c, 9, 51, 64
6, 7040, Note_on_c, 9, 51, 107
6, 7085, Note_off_c, 9, 51, 64
6, 7200, Note_on_c, 9, 51, 127
6, 7200, Note_on_c, 9, 40, 127
6, 7275, Note_off_c, 9, 51, 64
6, 7355, Note_off_c, 9, 36, 64
6, 7400, Note_off_c, 9, 40, 64
6, 7520, Note_on_c, 9, 51, 127
6, 7520, Note_on_c, 9, 36, 93
6, 7555, Note_off_c, 9, 51, 64
6, 7560, Note_off_c, 9, 36, 64
6, 7680, Note_on_c, 9, 51, 127
6, 7680, Note_on_c, 9, 36, 107
6, 7720, Note_off_c, 9, 51, 64
6, 8000, Note_on_c, 9, 51, 68
6, 8025, Note_off_c, 9, 51, 64
6, 8160, Note_on_c, 9, 51, 127
6, 8160, Note_on_c, 9, 40, 127
6, 8285, Note_off_c, 9, 51, 64
6, 8330, Note_off_c, 9, 36, 64
6, 8480, Note_on_c, 9, 36, 50
6, 8480, Note_on_c, 9, 51, 102
6, 8530, Note_off_c, 9, 51, 64
6, 8530, Note_off_c, 9, 36, 64
6, 8535, Note_off_c, 9, 40, 64
6, 8640, Note_on_c, 9, 51, 113
6, 8640, Note_on_c, 9, 36, 85
6, 8735, Note_off_c, 9, 51, 64
6, 8960, Note_on_c, 9, 51, 93
6, 8995, Note_off_c, 9, 51, 64
6, 9120, Note_on_c, 9, 40, 127
6, 9120, Note_on_c, 9, 51, 127
6, 9240, Note_off_c, 9, 51, 64
6, 9330, Note_off_c, 9, 36, 64
6, 9420, Note_off_c, 9, 40, 64
6, 9440, Note_on_c, 9, 51, 107
6, 9440, Note_on_c, 9, 36, 72
6, 9495, Note_off_c, 9, 51, 64
6, 9520, Note_off_c, 9, 36, 64
6, 9600, Note_on_c, 9, 36, 80
6, 9600, Note_on_c, 9, 51, 113
6, 9695, Note_off_c, 9, 51, 64
6, 9920, Note_on_c, 9, 51, 68
6, 9945, Note_off_c, 9, 51, 64
6, 10080, Note_on_c, 9, 40, 127
6, 10080, Note_on_c, 9, 51, 127
6, 10220, Note_off_c, 9, 51, 64
6, 10300, Note_off_c, 9, 36, 64
6, 10375, Note_off_c, 9, 40, 64
6, 10400, Note_on_c, 9, 36, 72
6, 10400, Note_on_c, 9, 51, 98
6, 10445, Note_off_c, 9, 51, 64
6, 10455, Note_off_c, 9, 36, 64
6, 10560, Note_on_c, 9, 36, 98
6, 10560, Note_on_c, 9, 51, 113
6, 10650, Note_off_c, 9, 51, 64
6, 10880, Note_on_c, 9, 51, 89
6, 10915, Note_off_c, 9, 51, 64
6, 11040, Note_on_c, 9, 51, 127
6, 11040, Note_on_c, 9, 40, 127
6, 11160, Note_off_c, 9, 51, 64
6, 11210, Note_off_c, 9, 36, 64
6, 11350, Note_off_c, 9, 40, 64
6, 11360, Note_on_c, 9, 51, 102
6, 11360, Note_on_c, 9, 36, 76
6, 11405, Note_off_c, 9, 51, 64
6, 11425, Note_off_c, 9, 36, 64
6, 11520, Note_on_c, 9, 51, 127
6, 11520, Note_on_c, 9, 36, 76
6, 11590, Note_off_c, 9, 51, 64
6, 11840, Note_on_c, 9, 51, 85
6, 11860, Note_off_c, 9, 51, 64
6, 12000, Note_on_c, 9, 51, 127
6, 12000, Note_on_c, 9, 40, 127
6, 12000, Note_on_c, 9, 49, 107
6, 12060, Note_off_c, 9, 49, 64
6, 12110, Note_off_c, 9, 51, 64
6, 12160, Note_off_c, 9, 36, 64
6, 12320, Note_off_c, 9, 40, 64
6, 12320, Note_on_c, 9, 36, 93
6, 12320, Note_on_c, 9, 51, 107
6, 12365, Note_off_c, 9, 51, 64
6, 12385, Note_off_c, 9, 36, 64
6, 12480, Note_on_c, 9, 36, 93
6, 12480, Note_on_c, 9, 51, 127
6, 12540, Note_off_c, 9, 51, 64
6, 12800, Note_on_c, 9, 51, 98
6, 12835, Note_off_c, 9, 51, 64
6, 12960, Note_on_c, 9, 51, 127
6, 12960, Note_on_c, 9, 40, 127
6, 13035, Note_off_c, 9, 51, 64
6, 13110, Note_off_c, 9, 36, 64
6, 13265, Note_off_c, 9, 40, 64
6, 13280, Note_on_c, 9, 36, 72
6, 13280, Note_on_c, 9, 51, 113
6, 13325, Note_off_c, 9, 51, 64
6, 13345, Note_off_c, 9, 36, 64
6, 13440, Note_on_c, 9, 36, 107
6, 13440, Note_on_c, 9, 51, 127
6, 13510, Note_off_c, 9, 51, 64
6, 13760, Note_on_c, 9, 51, 85
6, 13795, Note_off_c, 9, 51, 64
6, 13920, Note_on_c, 9, 40, 127
6, 13920, Note_on_c, 9, 51, 127
6, 13995, Note_off_c, 9, 51, 64
6, 14080, Note_off_c, 9, 36, 64
6, 14240, Note_on_c, 9, 36, 85
6, 14240, Note_on_c, 9, 51, 107
6, 14255, Note_off_c, 9, 40, 64
6, 14280, Note_off_c, 9, 51, 64
6, 14305, Note_off_c, 9, 36, 64
6, 14400, Note_on_c, 9, 51, 107
6, 14400, Note_on_c, 9, 36, 85
6, 14455, Note_off_c, 9, 51, 64
6, 14720, Note_on_c, 9, 51, 107
6, 14765, Note_off_c, 9, 51, 64
6, 14880, Note_on_c, 9, 40, 127
6, 14880, Note_on_c, 9, 51, 127
6, 14955, Note_off_c, 9, 51, 64
6, 15035, Note_off_c, 9, 36, 64
6, 15080, Note_off_c, 9, 40, 64
6, 15200, Note_on_c, 9, 51, 127
6, 15200, Note_on_c, 9, 36, 93
6, 15235, Note_off_c, 9, 51, 64
6, 15240, Note_off_c, 9, 36, 64
6, 15360, Note_on_c, 9, 51, 127
6, 15360, Note_on_c, 9, 57, 93
6, 15360, Note_on_c, 9, 36, 107
6, 15400, Note_off_c, 9, 51, 64
6, 15415, Note_off_c, 9, 57, 64
6, 15680, Note_on_c, 9, 51, 68
6, 15705, Note_off_c, 9, 51, 64
6, 15840, Note_on_c, 9, 51, 127
6, 15840, Note_on_c, 9, 40, 127
6, 15965, Note_off_c, 9, 51, 64
6, 16010, Note_off_c, 9, 36, 64
6, 16160, Note_on_c, 9, 51, 102
6, 16160, Note_on_c, 9, 36, 50
6, 16210, Note_off_c, 9, 36, 64
6, 16210, Note_off_c, 9, 51, 64
6, 16215, Note_off_c, 9, 40, 64
6, 16320, Note_on_c, 9, 51, 113
6, 16320, Note_on_c, 9, 36, 85
6, 16415, Note_off_c, 9, 51, 64
6, 16640, Note_on_c, 9, 51, 93
6, 16675, Note_off_c, 9, 51, 64
6, 16800, Note_on_c, 9, 40, 127
6, 16800, Note_on_c, 9, 51, 127
6, 16920, Note_off_c, 9, 51, 64
6, 17010, Note_off_c, 9, 36, 64
6, 17100, Note_off_c, 9, 40, 64
6, 17120, Note_on_c, 9, 51, 107
6, 17120, Note_on_c, 9, 36, 72
6, 17175, Note_off_c, 9, 51, 64
6, 17200, Note_off_c, 9, 36, 64
6, 17280, Note_on_c, 9, 36, 80
6, 17280, Note_on_c, 9, 51, 113
6, 17375, Note_off_c, 9, 51, 64
6, 17600, Note_on_c, 9, 51, 68
6, 17625, Note_off_c, 9, 51, 64
6, 17760, Note_on_c, 9, 51, 127
6, 17760, Note_on_c, 9, 40, 127
6, 17900, Note_off_c, 9, 51, 64
6, 17980, Note_off_c, 9, 36, 64
6, 18055, Note_off_c, 9, 40, 64
6, 18080, Note_on_c, 9, 36, 72
6, 18080, Note_on_c, 9, 51, 98
6, 18125, Note_off_c, 9, 51, 64
6, 18135, Note_off_c, 9, 36, 64
6, 18240, Note_on_c, 9, 36, 98
6, 18240, Note_on_c, 9, 51, 113
6, 18330, Note_off_c, 9, 51, 64
6, 18560, Note_on_c, 9, 40, 76
6, 18560, Note_on_c, 9, 51, 89
6, 18595, Note_off_c, 9, 51, 64
6, 18610, Note_off_c, 9, 40, 64
6, 18720, Note_on_c, 9, 40, 107
6, 18720, Note_on_c, 9, 51, 127
6, 18780, Note_off_c, 9, 40, 64
6, 18840, Note_off_c, 9, 51, 64
6, 18880, Note_on_c, 9, 40, 119
6, 18890, Note_off_c, 9, 36, 64
6, 18945, Note_off_c, 9, 40, 64
6, 19040, Note_on_c, 9, 51, 102
6, 19040, Note_on_c, 9, 40, 127
6, 19040, Note_on_c, 9, 36, 76
6, 19085, Note_off_c, 9, 51, 64
6, 19105, Note_off_c, 9, 36, 64
6, 19140, Note_off_c, 9, 40, 64
6, 19200, Note_on_c, 9, 51, 127
6, 19200, Note_on_c, 9, 36, 76
6, 19200, Note_on_c, 9, 49, 107
6, 19235, Note_off_c, 9, 49, 64
6, 19270, Note_off_c, 9, 51, 64
6, 19520, Note_on_c, 9, 51, 85
6, 19540, Note_off_c, 9, 51, 64
6, 19680, Note_on_c, 9, 51, 127
6, 19680, Note_on_c, 9, 40, 127
6, 19790, Note_off_c, 9, 51, 64
6, 19840, Note_off_c, 9, 36, 64
6, 20000, Note_off_c, 9, 40, 64
6, 20000, Note_on_c, 9, 36, 93
6, 20000, Note_on_c, 9, 51, 107
6, 20045, Note_off_c, 9, 51, 64
6, 20065, Note_off_c, 9, 36, 64
6, 20160, Note_on_c, 9, 51, 127
6, 20160, Note_on_c, 9, 36, 93
6, 20220, Note_off_c, 9, 51, 64
6, 20480, Note_on_c, 9, 51, 98
6, 20515, Note_off_c, 9, 51, 64
6, 20640, Note_on_c, 9, 51, 127
6, 20640, Note_on_c, 9, 40, 127
6, 20715, Note_off_c, 9, 51, 64
6, 20790, Note_off_c, 9, 36, 64
6, 20945, Note_off_c, 9, 40, 64
6, 20960, Note_on_c, 9, 36, 72
6, 20960, Note_on_c, 9, 51, 113
6, 21005, Note_off_c, 9, 51, 64
6, 21025, Note_off_c, 9, 36, 64
6, 21120, Note_on_c, 9, 51, 127
6, 21120, Note_on_c, 9, 36, 107
6, 21190, Note_off_c, 9, 51, 64
6, 21440, Note_on_c, 9, 51, 85
6, 21475, Note_off_c, 9, 51, 64
6, 21600, Note_on_c, 9, 51, 127
6, 21600, Note_on_c, 9, 40, 127
6, 21675, Note_off_c, 9, 51, 64
6, 21760, Note_off_c, 9, 36, 64
6, 21920, Note_on_c, 9, 36, 85
6, 21920, Note_on_c, 9, 51, 107
6, 21935, Note_off_c, 9, 40, 64
6, 21960, Note_off_c, 9, 51, 64
6, 21985, Note_off_c, 9, 36, 64
6, 22080, Note_on_c, 9, 36, 85
6, 22080, Note_on_c, 9, 51, 107
6, 22135, Note_off_c, 9, 51, 64
6, 22400, Note_on_c, 9, 51, 107
6, 22445, Note_off_c, 9, 51, 64
6, 22560, Note_on_c, 9, 51, 127
6, 22560, Note_on_c, 9, 40, 127
6, 22635, Note_off_c, 9, 51, 64
6, 22715, Note_off_c, 9, 36, 64
6, 22760, Note_off_c, 9, 40, 64
6, 22880, Note_on_c, 9, 36, 93
6, 22880, Note_on_c, 9, 51, 127
6, 22915, Note_off_c, 9, 51, 64
6, 22920, Note_off_c, 9, 36, 64
6, 23040, Note_on_c, 9, 51, 127
6, 23040, Note_on_c, 9, 36, 107
6, 23040, Note_on_c, 9, 57, 98
6, 23080, Note_off_c, 9, 57, 64
6, 23080, Note_off_c, 9, 51, 64
6, 23360, Note_on_c, 9, 51, 68
6, 23385, Note_off_c, 9, 51, 64
6, 23520, Note_on_c, 9, 40, 127
6, 23520, Note_on_c, 9, 51, 127
6, 23645, Note_off_c, 9, 51, 64
6, 23690, Note_off_c, 9, 36, 64
6, 23840, Note_on_c, 9, 36, 50
6, 23840, Note_on_c, 9, 51, 102
6, 23890, Note_off_c, 9, 51, 64
6, 23890, Note_off_c, 9, 36, 64
6, 23895, Note_off_c, 9, 40, 64
6, 24000, Note_on_c, 9, 36, 85
6, 24000, Note_on_c, 9, 51, 113
6, 24095, Note_off_c, 9, 51, 64
6, 24320, Note_on_c, 9, 51, 93
6, 24355, Note_off_c, 9, 51, 64
6, 24480, Note_on_c, 9, 40, 127
6, 24480, Note_on_c, 9, 51, 127
6, 24600, Note_off_c, 9, 51, 64
6, 24690, Note_off_c, 9, 36, 64
6, 24780, Note_off_c, 9, 40, 64
6, 24800, Note_on_c, 9, 36, 72
6, 24800, Note_on_c, 9, 51, 107
6, 24855, Note_off_c, 9, 51, 64
6, 24880, Note_off_c, 9, 36, 64
6, 24960, Note_on_c, 9, 51, 113
6, 24960, Note_on_c, 9, 36, 80
6, 25055, Note_off_c, 9, 51, 64
6, 25280, Note_on_c, 9, 51, 68
6, 25305, Note_off_c, 9, 51, 64
6, 25440, Note_on_c, 9, 40, 127
6, 25440, Note_on_c, 9, 51, 127
6, 25440, Note_on_c, 9, 49, 113
6, 25500, Note_off_c, 9, 49, 64
6, 25580, Note_off_c, 9, 51, 64
6, 25660, Note_off_c, 9, 36, 64
6, 25735, Note_off_c, 9, 40, 64
6, 25760, Note_on_c, 9, 36, 72
6, 25760, Note_on_c, 9, 51, 98
6, 25805, Note_off_c, 9, 51, 64
6, 25815, Note_off_c, 9, 36, 64
6, 25920, Note_on_c, 9, 36, 98
6, 25920, Note_on_c, 9, 51, 113
6, 26010, Note_off_c, 9, 51, 64
6, 26240, Note_on_c, 9, 51, 89
6, 26275, Note_off_c, 9, 51, 64
6, 26400, Note_on_c, 9, 40, 127
6, 26400, Note_on_c, 9, 57, 107
6, 26400, Note_on_c, 9, 51, 127
6, 26460, Note_off_c, 9, 57, 64
6, 26520, Note_off_c, 9, 51, 64
6, 26570, Note_off_c, 9, 36, 64
6, 26710, Note_off_c, 9, 40, 64
6, 26720, Note_on_c, 9, 36, 76
6, 26720, Note_on_c, 9, 51, 102
6, 26765, Note_off_c, 9, 51, 64
6, 26785, Note_off_c, 9, 36, 64
6, 26880, Note_on_c, 9, 36, 76
6, 26880, Note_on_c, 9, 51, 127
6, 26950, Note_off_c, 9, 51, 64
6, 27200, Note_on_c, 9, 51, 85
6, 27220, Note_off_c, 9, 51, 64
6, 27360, Note_on_c, 9, 51, 127
6, 27360, Note_on_c, 9, 49, 113
6, 27360, Note_on_c, 9, 40, 127
6, 27410, Note_off_c, 9, 49, 64
6, 27470, Note_off_c, 9, 51, 64
6, 27520, Note_off_c, 9, 36, 64
6, 27680, Note_off_c, 9, 40, 64
6, 27680, Note_on_c, 9, 51, 107
6, 27680, Note_on_c, 9, 36, 93
6, 27725, Note_off_c, 9, 51, 64
6, 27745, Note_off_c, 9, 36, 64
6, 27840, Note_on_c, 9, 51, 127
6, 27840, Note_on_c, 9, 36, 93
6, 27900, Note_off_c, 9, 51, 64
6, 28160, Note_on_c, 9, 51, 98
6, 28195, Note_off_c, 9, 51, 64
6, 28320, Note_on_c, 9, 51, 127
6, 28320, Note_on_c, 9, 40, 127
6, 28395, Note_off_c, 9, 51, 64
6, 28470, Note_off_c, 9, 36, 64
6, 28625, Note_off_c, 9, 40, 64
6, 28640, Note_on_c, 9, 36, 72
6, 28640, Note_on_c, 9, 51, 113
6, 28685, Note_off_c, 9, 51, 64
6, 28705, Note_off_c, 9, 36, 64
6, 28800, Note_on_c, 9, 51, 127
6, 28800, Note_on_c, 9, 36, 107
6, 28870, Note_off_c, 9, 51, 64
6, 29120, Note_on_c, 9, 51, 85
6, 29155, Note_off_c, 9, 51, 64
6, 29280, Note_on_c, 9, 51, 127
6, 29280, Note_on_c, 9, 40, 127
6, 29280, Note_on_c, 9, 57, 107
6, 29320, Note_off_c, 9, 57, 64
6, 29355, Note_off_c, 9, 51, 64
6, 29440, Note_off_c, 9, 36, 64
6, 29600, Note_on_c, 9, 36, 85
6, 29600, Note_on_c, 9, 51, 107
6, 29615, Note_off_c, 9, 40, 64
6, 29640, Note_off_c, 9, 51, 64
6, 29665, Note_off_c, 9, 36, 64
6, 29760, Note_on_c, 9, 51, 107
6, 29760, Note_on_c, 9, 36, 85
6, 29815, Note_off_c, 9, 51, 64
6, 30080, Note_on_c, 9, 51, 107
6, 30125, Note_off_c, 9, 51, 64
6, 30240, Note_on_c, 9, 51, 127
6, 30240, Note_on_c, 9, 40, 127
6, 30315, Note_off_c, 9, 51, 64
6, 30395, Note_off_c, 9, 36, 64
6, 30440, Note_off_c, 9, 40, 64
6, 30560, Note_on_c, 9, 36, 93
6, 30560, Note_on_c, 9, 51, 127
6, 30595, Note_off_c, 9, 51, 64
6, 30600, Note_off_c, 9, 36, 64
6, 30720, Note_on_c, 9, 36, 107
6, 30720, Note_on_c, 9, 49, 102
6, 30720, Note_on_c, 9, 51, 127
6, 30760, Note_off_c, 9, 51, 64
6, 30770, Note_off_c, 9, 49, 64
6, 31040, Note_on_c, 9, 51, 68
6, 31065, Note_off_c, 9, 51, 64
6, 31200, Note_on_c, 9, 40, 127
6, 31200, Note_on_c, 9, 51, 127
6, 31325, Note_off_c, 9, 51, 64
6, 31370, Note_off_c, 9, 36, 64
6, 31520, Note_on_c, 9, 36, 50
6, 31520, Note_on_c, 9, 51, 102
6, 31570, Note_off_c, 9, 51, 64
6, 31570, Note_off_c, 9, 36, 64
6, 31575, Note_off_c, 9, 40, 64
6, 31680, Note_on_c, 9, 51, 113
6, 31680, Note_on_c, 9, 36, 85
6, 31775, Note_off_c, 9, 51, 64
6, 32000, Note_on_c, 9, 51, 93
6, 32035, Note_off_c, 9, 51, 64
6, 32160, Note_on_c, 9, 51, 127
6, 32160, Note_on_c, 9, 40, 127
6, 32280, Note_off_c, 9, 51, 64
6, 32370, Note_off_c, 9, 36, 64
6, 32460, Note_off_c, 9, 40, 64
6, 32480, Note_on_c, 9, 36, 72
6, 32480, Note_on_c, 9, 51, 107
6, 32535, Note_off_c, 9, 51, 64
6, 32560, Note_off_c, 9, 36, 64
6, 32640, Note_on_c, 9, 36, 80
6, 32640, Note_on_c, 9, 51, 113
6, 32735, Note_off_c, 9, 51, 64
6, 32960, Note_on_c, 9, 51, 68
6, 32985, Note_off_c, 9, 51, 64
6, 33120, Note_on_c, 9, 40, 127
6, 33120, Note_on_c, 9, 51, 127
6, 33260, Note_off_c, 9, 51, 64
6, 33340, Note_off_c, 9, 36, 64
6, 33415, Note_off_c, 9, 40, 64
6, 33440, Note_on_c, 9, 51, 98
6, 33440, Note_on_c, 9, 36, 72
6, 33485, Note_off_c, 9, 51, 64
6, 33495, Note_off_c, 9, 36, 64
6, 33600, Note_on_c, 9, 36, 98
6, 33600, Note_on_c, 9, 51, 113
6, 33690, Note_off_c, 9, 51, 64
6, 33920, Note_on_c, 9, 51, 89
6, 33955, Note_off_c, 9, 51, 64
6, 34080, Note_on_c, 9, 40, 127
6, 34080, Note_on_c, 9, 51, 127
6, 34200, Note_off_c, 9, 51, 64
6, 34240, Note_off_c, 9, 40, 64
6, 34240, Note_on_c, 9, 40, 102
6, 34250, Note_off_c, 9, 36, 64
6, 34390, Note_off_c, 9, 40, 64
6, 34400, Note_on_c, 9, 36, 76
6, 34400, Note_on_c, 9, 40, 119
6, 34400, Note_on_c, 9, 51, 102
6, 34445, Note_off_c, 9, 51, 64
6, 34465, Note_off_c, 9, 36, 64
6, 34475, Note_off_c, 9, 40, 64
6, 34560, Note_on_c, 9, 42, 127
6, 34560, Note_on_c, 9, 36, 113
6, 34560, Note_on_c, 9, 57, 107
6, 34590, Note_off_c, 9, 57, 64
6, 34600, Note_off_c, 9, 42, 64
6, 34880, Note_on_c, 9, 42, 127
6, 34925, Note_off_c, 9, 42, 64
6, 35040, Note_on_c, 9, 40, 127
6, 35040, Note_on_c, 9, 42, 127
6, 35100, Note_off_c, 9, 42, 64
6, 35200, Note_off_c, 9, 36, 64
6, 35360, Note_on_c, 9, 42, 127
6, 35360, Note_on_c, 9, 36, 80
6, 35380, Note_off_c, 9, 40, 64
6, 35395, Note_off_c, 9, 42, 64
6, 35440, Note_off_c, 9, 36, 64
6, 35520, Note_on_c, 9, 36, 113
6, 35520, Note_on_c, 9, 42, 127
6, 35580, Note_off_c, 9, 42, 64
6, 35840, Note_on_c, 9, 42, 127
6, 35885, Note_off_c, 9, 42, 64
6, 36000, Note_on_c, 9, 42, 127
6, 36000, Note_on_c, 9, 40, 127
6, 36130, Note_off_c, 9, 42, 64
6, 36170, Note_off_c, 9, 36, 64
6, 36320, Note_on_c, 9, 46, 127
6, 36320, Note_on_c, 9, 36, 98
6, 36380, Note_off_c, 9, 36, 64
6, 36415, Note_off_c, 9, 40, 64
6, 36475, Note_off_c, 9, 46, 64
6, 36480, Note_on_c, 9, 42, 113
6, 36480, Note_on_c, 9, 36, 107
6, 36555, Note_off_c, 9, 42, 64
6, 36800, Note_on_c, 9, 42, 127
6, 36855, Note_off_c, 9, 42, 64
6, 36960, Note_on_c, 9, 42, 127
6, 36960, Note_on_c, 9, 40, 127
6, 37015, Note_off_c, 9, 42, 64
6, 37105, Note_off_c, 9, 36, 64
6, 37280, Note_on_c, 9, 42, 127
6, 37280, Note_on_c, 9, 36, 98
6, 37295, Note_off_c, 9, 40, 64
6, 37335, Note_off_c, 9, 42, 64
6, 37350, Note_off_c, 9, 36, 64
6, 37440, Note_on_c, 9, 42, 127
6, 37440, Note_on_c, 9, 36, 107
6, 37500, Note_off_c, 9, 42, 64
6, 37630, Note_off_c, 9, 36, 64
6, 37760, Note_on_c, 9, 36, 64
6, 37760, Note_on_c, 9, 42, 127
6, 37815, Note_off_c, 9, 42, 64
6, 37920, Note_on_c, 9, 42, 127
6, 37920, Note_on_c, 9, 40, 127
6, 38035, Note_off_c, 9, 42, 64
6, 38055, Note_off_c, 9, 36, 64
6, 38240, Note_on_c, 9, 46, 119
6, 38240, Note_on_c, 9, 36, 93
6, 38270, Note_off_c, 9, 40, 64
6, 38325, Note_off_c, 9, 36, 64
6, 38400, Note_off_c, 9, 46, 64
6, 38400, Note_on_c, 9, 42, 119
6, 38400, Note_on_c, 9, 36, 102
6, 38470, Note_off_c, 9, 42, 64
6, 38720, Note_on_c, 9, 42, 127
6, 38780, Note_off_c, 9, 42, 64
6, 38880, Note_on_c, 9, 42, 127
6, 38880, Note_on_c, 9, 40, 127
6, 38940, Note_off_c, 9, 42, 64
6, 38965, Note_off_c, 9, 36, 64
6, 39140, Note_off_c, 9, 40, 64
6, 39200, Note_on_c, 9, 42, 127
6, 39200, Note_on_c, 9, 36, 102
6, 39250, Note_off_c, 9, 42, 64
6, 39275, Note_off_c, 9, 36, 64
6, 39360, Note_on_c, 9, 36, 89
6, 39360, Note_on_c, 9, 42, 127
6, 39435, Note_off_c, 9, 42, 64
6, 39490, Note_off_c, 9, 36, 64
6, 39680, Note_on_c, 9, 36, 93
6, 39680, Note_on_c, 9, 42, 127
6, 39735, Note_off_c, 9, 42, 64
6, 39805, Note_off_c, 9, 36, 64
6, 39840, Note_on_c, 9, 40, 127
6, 39840, Note_on_c, 9, 42, 127
6, 39915, Note_off_c, 9, 42, 64
6, 40160, Note_on_c, 9, 42, 127
6, 40160, Note_on_c, 9, 36, 98
6, 40170, Note_off_c, 9, 40, 64
6, 40220, Note_off_c, 9, 42, 64
6, 40235, Note_off_c, 9, 36, 64
6, 40320, Note_on_c, 9, 36, 98
6, 40320, Note_on_c, 9, 42, 127
6, 40380, Note_off_c, 9, 42, 64
6, 40570, Note_off_c, 9, 36, 64
6, 40640, Note_on_c, 9, 42, 127
6, 40695, Note_off_c, 9, 42, 64
6, 40800, Note_on_c, 9, 42, 127
6, 40800, Note_on_c, 9, 40, 127
6, 40875, Note_off_c, 9, 42, 64
6, 41045, Note_off_c, 9, 40, 64
6, 41120, Note_on_c, 9, 36, 76
6, 41120, Note_on_c, 9, 42, 127
6, 41185, Note_off_c, 9, 42, 64
6, 41200, Note_off_c, 9, 36, 64
6, 41280, Note_on_c, 9, 42, 127
6, 41280, Note_on_c, 9, 36, 98
6, 41350, Note_off_c, 9, 42, 64
6, 41465, Note_off_c, 9, 36, 64
6, 41600, Note_on_c, 9, 42, 127
6, 41600, Note_on_c, 9, 36, 85
6, 41655, Note_off_c, 9, 42, 64
6, 41720, Note_off_c, 9, 36, 64
6, 41760, Note_on_c, 9, 40, 127
6, 41760, Note_on_c, 9, 42, 127
6, 41875, Note_off_c, 9, 42, 64
6, 42080, Note_off_c, 9, 40, 64
6, 42080, Note_on_c, 9, 36, 93
6, 42080, Note_on_c, 9, 46, 119
6, 42165, Note_off_c, 9, 36, 64
6, 42230, Note_off_c, 9, 46, 64
6, 42240, Note_on_c, 9, 49, 76
6, 42240, Note_on_c, 9, 42, 119
6, 42240, Note_on_c, 9, 36, 107
6, 42285, Note_off_c, 9, 49, 64
6, 42315, Note_off_c, 9, 42, 64
6, 42470, Note_off_c, 9, 36, 64
6, 42560, Note_on_c, 9, 42, 127
6, 42615, Note_off_c, 9, 42, 64
6, 42720, Note_on_c, 9, 42, 127
6, 42720, Note_on_c, 9, 40, 127
6, 42800, Note_off_c, 9, 42, 64
6, 42970, Note_off_c, 9, 40, 64
6, 43040, Note_on_c, 9, 36, 98
6, 43040, Note_on_c, 9, 42, 127
6, 43095, Note_off_c, 9, 42, 64
6, 43115, Note_off_c, 9, 36, 64
6, 43200, Note_on_c, 9, 42, 127
6, 43200, Note_on_c, 9, 36, 107
6, 43270, Note_off_c, 9, 42, 64
6, 43375, Note_off_c, 9, 36, 64
6, 43520, Note_on_c, 9, 42, 127
6, 43580, Note_off_c, 9, 42, 64
6, 43680, Note_on_c, 9, 42, 127
6, 43680, Note_on_c, 9, 40, 127
6, 43785, Note_off_c, 9, 42, 64
6, 43945, Note_off_c, 9, 40, 64
6, 44000, Note_on_c, 9, 46, 119
6, 44000, Note_on_c, 9, 36, 93
6, 44075, Note_off_c, 9, 36, 64
6, 44160, Note_off_c, 9, 46, 64
6, 44160, Note_on_c, 9, 36, 102
6, 44160, Note_on_c, 9, 42, 127
6, 44230, Note_off_c, 9, 42, 64
6, 44380, Note_off_c, 9, 36, 64
6, 44480, Note_on_c, 9, 42, 127
6, 44535, Note_off_c, 9, 42, 64
6, 44640, Note_on_c, 9, 42, 127
6, 44640, Note_on_c, 9, 40, 127
6, 44705, Note_off_c, 9, 42, 64
6, 44860, Note_off_c, 9, 40, 64
6, 44960, Note_on_c, 9, 42, 127
6, 44960, Note_on_c, 9, 36, 102
6, 45020, Note_off_c, 9, 42, 64
6, 45045, Note_off_c, 9, 36, 64
6, 45120, Note_on_c, 9, 42, 127
6, 45120, Note_on_c, 9, 36, 93
6, 45185, Note_off_c, 9, 42, 64
6, 45235, Note_off_c, 9, 36, 64
6, 45440, Note_on_c, 9, 36, 102
6, 45440, Note_on_c, 9, 42, 127
6, 45495, Note_off_c, 9, 42, 64
6, 45530, Note_off_c, 9, 36, 64
6, 45600, Note_on_c, 9, 42, 127
6, 45600, Note_on_c, 9, 40, 127
6, 45670, Note_off_c, 9, 42, 64
6, 45870, Note_off_c, 9, 40, 64
6, 45920, Note_on_c, 9, 36, 102
6, 45920, Note_on_c, 9, 42, 127
6, 45985, Note_off_c, 9, 42, 64
6, 45995, Note_off_c, 9, 36, 64
6, 46080, Note_on_c, 9, 36, 113
6, 46080, Note_on_c, 9, 42, 127
6, 46145, Note_off_c, 9, 42, 64
6, 46240, Note_off_c, 9, 36, 64
6, 46400, Note_on_c, 9, 42, 127
6, 46450, Note_off_c, 9, 42, 64
6, 46560, Note_on_c, 9, 42, 127
6, 46560, Note_on_c, 9, 40, 127
6, 46630, Note_off_c, 9, 42, 64
6, 46840, Note_off_c, 9, 40, 64
6, 46880, Note_on_c, 9, 42, 127
6, 46880, Note_on_c, 9, 36, 98
6, 46940, Note_off_c, 9, 42, 64
6, 46975, Note_off_c, 9, 36, 64
6, 47040, Note_on_c, 9, 42, 127
6, 47040, Note_on_c, 9, 36, 102
6, 47120, Note_off_c, 9, 42, 64
6, 47255, Note_off_c, 9, 36, 64
6, 47360, Note_on_c, 9, 42, 127
6, 47415, Note_off_c, 9, 42, 64
6, 47520, Note_on_c, 9, 40, 127
6, 47520, Note_on_c, 9, 42, 127
6, 47595, Note_off_c, 9, 42, 64
6, 47800, Note_off_c, 9, 40, 64
6, 47840, Note_on_c, 9, 36, 98
6, 47840, Note_on_c, 9, 42, 127
6, 47905, Note_off_c, 9, 42, 64
6, 47925, Note_off_c, 9, 36, 64
6, 48000, Note_on_c, 9, 42, 127
6, 48000, Note_on_c, 9, 36, 102
6, 48070, Note_off_c, 9, 42, 64
6, 48320, Note_on_c, 9, 42, 127
6, 48380, Note_off_c, 9, 42, 64
6, 48480, Note_on_c, 9, 42, 127
6, 48480, Note_on_c, 9, 40, 127
6, 48520, Note_off_c, 9, 36, 64
6, 48565, Note_off_c, 9, 42, 64
6, 48800, Note_on_c, 9, 42, 127
6, 48800, Note_on_c, 9, 36, 85
6, 48845, Note_off_c, 9, 36, 64
6, 48860, Note_off_c, 9, 42, 64
6, 48945, Note_off_c, 9, 40, 64
6, 48960, Note_on_c, 9, 42, 127
6, 48960, Note_on_c, 9, 36, 93
6, 49040, Note_off_c, 9, 42, 64
6, 49120, Note_on_c, 9, 40, 127
6, 49155, Note_off_c, 9, 36, 64
6, 49265, Note_off_c, 9, 40, 64
6, 49280, Note_on_c, 9, 42, 127
6, 49280, Note_on_c, 9, 36, 76
6, 49340, Note_off_c, 9, 42, 64
6, 49440, Note_on_c, 9, 42, 127
6, 49440, Note_on_c, 9, 40, 127
6, 49450, Note_off_c, 9, 36, 64
6, 49550, Note_off_c, 9, 42, 64
6, 49600, Note_on_c, 9, 36, 107
6, 49670, Note_off_c, 9, 40, 64
6, 49700, Note_off_c, 9, 36, 64
6, 49760, Note_on_c, 9, 46, 127
6, 49760, Note_on_c, 9, 36, 107
6, 49850, Note_off_c, 9, 36, 64
6, 49890, Note_off_c, 9, 46, 64
6, 49920, Note_on_c, 9, 42, 127
6, 49920, Note_on_c, 9, 36, 113
6, 49920, Note_on_c, 9, 57, 107
6, 49950, Note_off_c, 9, 57, 64
6, 49960, Note_off_c, 9, 42, 64
6, 50240, Note_on_c, 9, 42, 127
6, 50285, Note_off_c, 9, 42, 64
6, 50400, Note_on_c, 9, 40, 127
6, 50400, Note_on_c, 9, 42, 127
6, 50460, Note_off_c, 9, 42, 64
6, 50560, Note_off_c, 9, 36, 64
6, 50720, Note_on_c, 9, 42, 127
6, 50720, Note_on_c, 9, 36, 80
6, 50740, Note_off_c, 9, 40, 64
6, 50755, Note_off_c, 9, 42, 64
6, 50800, Note_off_c, 9, 36, 64
6, 50880, Note_on_c, 9, 42, 127
6, 50880, Note_on_c, 9, 36, 113
6, 50940, Note_off_c, 9, 42, 64
6, 51200, Note_on_c, 9, 42, 127
6, 51245, Note_off_c, 9, 42, 64
6, 51360, Note_on_c, 9, 40, 127
6, 51360, Note_on_c, 9, 42, 127
6, 51490, Note_off_c, 9, 42, 64
6, 51530, Note_off_c, 9, 36, 64
6, 51680, Note_on_c, 9, 36, 98
6, 51680, Note_on_c, 9, 46, 127
6, 51740, Note_off_c, 9, 36, 64
6, 51775, Note_off_c, 9, 40, 64
6, 51835, Note_off_c, 9, 46, 64
6, 51840, Note_on_c, 9, 42, 113
6, 51840, Note_on_c, 9, 36, 107
6, 51915, Note_off_c, 9, 42, 64
6, 52160, Note_on_c, 9, 42, 127
6, 52215, Note_off_c, 9, 42, 64
6, 52320, Note_on_c, 9, 42, 127
6, 52320, Note_on_c, 9, 40, 127
6, 52375, Note_off_c, 9, 42, 64
6, 52465, Note_off_c, 9, 36, 64
6, 52640, Note_on_c, 9, 36, 98
6, 52640, Note_on_c, 9, 42, 127
6, 52655, Note_off_c, 9, 40, 64
6, 52695, Note_off_c, 9, 42, 64
6, 52710, Note_off_c, 9, 36, 64
6, 52800, Note_on_c, 9, 36, 107
6, 52800, Note_on_c, 9, 42, 127
6, 52860, Note_off_c, 9, 42, 64
6, 52990, Note_off_c, 9, 36, 64
6, 53120, Note_on_c, 9, 42, 127
6, 53120, Note_on_c, 9, 36, 64
6, 53175, Note_off_c, 9, 42, 64
6, 53280, Note_on_c, 9, 40, 127
6, 53280, Note_on_c, 9, 42, 127
6, 53395, Note_off_c, 9, 42, 64
6, 53415, Note_off_c, 9, 36, 64
6, 53600, Note_on_c, 9, 46, 119
6, 53600, Note_on_c, 9, 36, 93
6, 53630, Note_off_c, 9, 40, 64
6, 53685, Note_off_c, 9, 36, 64
6, 53760, Note_off_c, 9, 46, 64
6, 53760, Note_on_c, 9, 42, 119
6, 53760, Note_on_c, 9, 36, 102
6, 53830, Note_off_c, 9, 42, 64
6, 54080, Note_on_c, 9, 42, 127
6, 54140, Note_off_c, 9, 42, 64
6, 54240, Note_on_c, 9, 40, 127
6, 54240, Note_on_c, 9, 42, 127
6, 54300, Note_off_c, 9, 42, 64
6, 54325, Note_off_c, 9, 36, 64
6, 54500, Note_off_c, 9, 40, 64
6, 54560, Note_on_c, 9, 36, 102
6, 54560, Note_on_c, 9, 42, 127
6, 54610, Note_off_c, 9, 42, 64
6, 54635, Note_off_c, 9, 36, 64
6, 54720, Note_on_c, 9, 36, 89
6, 54720, Note_on_c, 9, 42, 127
6, 54795, Note_off_c, 9, 42, 64
6, 54850, Note_off_c, 9, 36, 64
6, 55040, Note_on_c, 9, 36, 93
6, 55040, Note_on_c, 9, 42, 127
6, 55095, Note_off_c, 9, 42, 64
6, 55165, Note_off_c, 9, 36, 64
6, 55200, Note_on_c, 9, 42, 127
6, 55200, Note_on_c, 9, 40, 127
6, 55275, Note_off_c, 9, 42, 64
6, 55520, Note_on_c, 9, 36, 98
6, 55520, Note_on_c, 9, 42, 127
6, 55530, Note_off_c, 9, 40, 64
6, 55580, Note_off_c, 9, 42, 64
6, 55595, Note_off_c, 9, 36, 64
6, 55680, Note_on_c, 9, 42, 127
6, 55680, Note_on_c, 9, 36, 98
6, 55740, Note_off_c, 9, 42, 64
6, 55930, Note_off_c, 9, 36, 64
6, 56000, Note_on_c, 9, 42, 127
6, 56055, Note_off_c, 9, 42, 64
6, 56160, Note_on_c, 9, 40, 127
6, 56160, Note_on_c, 9, 42, 127
6, 56235, Note_off_c, 9, 42, 64
6, 56405, Note_off_c, 9, 40, 64
6, 56480, Note_on_c, 9, 42, 127
6, 56480, Note_on_c, 9, 36, 76
6, 56545, Note_off_c, 9, 42, 64
6, 56560, Note_off_c, 9, 36, 64
6, 56640, Note_on_c, 9, 42, 127
6, 56640, Note_on_c, 9, 36, 98
6, 56710, Note_off_c, 9, 42, 64
6, 56825, Note_off_c, 9, 36, 64
6, 56960, Note_on_c, 9, 42, 127
6, 56960, Note_on_c, 9, 36, 85
6, 57015, Note_off_c, 9, 42, 64
6, 57080, Note_off_c, 9, 36, 64
6, 57120, Note_on_c, 9, 40, 127
6, 57120, Note_on_c, 9, 42, 127
6, 57235, Note_off_c, 9, 42, 64
6, 57440, Note_off_c, 9, 40, 64
6, 57440, Note_on_c, 9, 36, 93
6, 57440, Note_on_c, 9, 46, 119
6, 57525, Note_off_c, 9, 36, 64
6, 57590, Note_off_c, 9, 46, 64
6, 57600, Note_on_c, 9, 36, 107
6, 57600, Note_on_c, 9, 42, 119
6, 57600, Note_on_c, 9, 49, 76
6, 57645, Note_off_c, 9, 49, 64
6, 57675, Note_off_c, 9, 42, 64
6, 57830, Note_off_c, 9, 36, 64
6, 57920, Note_on_c, 9, 42, 127
6, 57975, Note_off_c, 9, 42, 64
6, 58080, Note_on_c, 9, 40, 127
6, 58080, Note_on_c, 9, 42, 127
6, 58160, Note_off_c, 9, 42, 64
6, 58330, Note_off_c, 9, 40, 64
6, 58400, Note_on_c, 9, 36, 98
6, 58400, Note_on_c, 9, 42, 127
6, 58455, Note_off_c, 9, 42, 64
6, 58475, Note_off_c, 9, 36, 64
6, 58560, Note_on_c, 9, 36, 107
6, 58560, Note_on_c, 9, 42, 127
6, 58630, Note_off_c, 9, 42, 64
6, 58735, Note_off_c, 9, 36, 64
6, 58880, Note_on_c, 9, 42, 127
6, 58940, Note_off_c, 9, 42, 64
6, 59040, Note_on_c, 9, 40, 127
6, 59040, Note_on_c, 9, 42, 127
6, 59145, Note_off_c, 9, 42, 64
6, 59305, Note_off_c, 9, 40, 64
6, 59360, Note_on_c, 9, 36, 93
6, 59360, Note_on_c, 9, 46, 119
6, 59435, Note_off_c, 9, 36, 64
6, 59520, Note_off_c, 9, 46, 64
6, 59520, Note_on_c, 9, 42, 127
6, 59520, Note_on_c, 9, 36, 102
6, 59590, Note_off_c, 9, 42, 64
6, 59740, Note_off_c, 9, 36, 64
6, 59840, Note_on_c, 9, 42, 127
6, 59895, Note_off_c, 9, 42, 64
6, 60000, Note_on_c, 9, 40, 127
6, 60000, Note_on_c, 9, 42, 127
6, 60065, Note_off_c, 9, 42, 64
6, 60220, Note_off_c, 9, 40, 64
6, 60320, Note_on_c, 9, 36, 102
6, 60320, Note_on_c, 9, 42, 127
6, 60380, Note_off_c, 9, 42, 64
6, 60405, Note_off_c, 9, 36, 64
6, 60480, Note_on_c, 9, 42, 127
6, 60480, Note_on_c, 9, 36, 93
6, 60545, Note_off_c, 9, 42, 64
6, 60595, Note_off_c, 9, 36, 64
6, 60800, Note_on_c, 9, 42, 127
6, 60800, Note_on_c, 9, 36, 102
6, 60855, Note_off_c, 9, 42, 64
6, 60890, Note_off_c, 9, 36, 64
6, 60960, Note_on_c, 9, 42, 127
6, 60960, Note_on_c, 9, 40, 127
6, 61030, Note_off_c, 9, 42, 64
6, 61230, Note_off_c, 9, 40, 64
6, 61280, Note_on_c, 9, 42, 127
6, 61280, Note_on_c, 9, 36, 102
6, 61345, Note_off_c, 9, 42, 64
6, 61355, Note_off_c, 9, 36, 64
6, 61440, Note_on_c, 9, 36, 113
6, 61440, Note_on_c, 9, 42, 127
6, 61505, Note_off_c, 9, 42, 64
6, 61600, Note_off_c, 9, 36, 64
6, 61760, Note_on_c, 9, 42, 127
6, 61810, Note_off_c, 9, 42, 64
6, 61920, Note_on_c, 9, 40, 127
6, 61920, Note_on_c, 9, 42, 127
6, 61990, Note_off_c, 9, 42, 64
6, 62200, Note_off_c, 9, 40, 64
6, 62240, Note_on_c, 9, 42, 127
6, 62240, Note_on_c, 9, 36, 98
6, 62300, Note_off_c, 9, 42, 64
6, 62335, Note_off_c, 9, 36, 64
6, 62400, Note_on_c, 9, 36, 102
6, 62400, Note_on_c, 9, 42, 127
6, 62480, Note_off_c, 9, 42, 64
6, 62615, Note_off_c, 9, 36, 64
6, 62720, Note_on_c, 9, 42, 127
6, 62775, Note_off_c, 9, 42, 64
6, 62880, Note_on_c, 9, 42, 127
6, 62880, Note_on_c, 9, 40, 127
6, 62955, Note_off_c, 9, 42, 64
6, 63160, Note_off_c, 9, 40, 64
6, 63200, Note_on_c, 9, 36, 98
6, 63200, Note_on_c, 9, 42, 127
6, 63265, Note_off_c, 9, 42, 64
6, 63285, Note_off_c, 9, 36, 64
6, 63360, Note_on_c, 9, 36, 102
6, 63360, Note_on_c, 9, 42, 127
6, 63430, Note_off_c, 9, 42, 64
6, 63680, Note_on_c, 9, 42, 127
6, 63740, Note_off_c, 9, 42, 64
6, 63840, Note_on_c, 9, 40, 127
6, 63840, Note_on_c, 9, 42, 127
6, 63880, Note_off_c, 9, 36, 64
6, 63925, Note_off_c, 9, 42, 64
6, 64160, Note_on_c, 9, 36, 85
6, 64160, Note_on_c, 9, 42, 127
6, 64205, Note_off_c, 9, 36, 64
6, 64220, Note_off_c, 9, 42, 64
6, 64305, Note_off_c, 9, 40, 64
6, 64320, Note_on_c, 9, 42, 127
6, 64320, Note_on_c, 9, 36, 93
6, 64400, Note_off_c, 9, 42, 64
6, 64480, Note_on_c, 9, 40, 127
6, 64515, Note_off_c, 9, 36, 64
6, 64625, Note_off_c, 9, 40, 64
6, 64640, Note_on_c, 9, 36, 76
6, 64640, Note_on_c, 9, 42, 127
6, 64700, Note_off_c, 9, 42, 64
6, 64800, Note_on_c, 9, 42, 127
6, 64800, Note_on_c, 9, 40, 127
6, 64810, Note_off_c, 9, 36, 64
6, 64910, Note_off_c, 9, 42, 64
6, 64960, Note_on_c, 9, 36, 107
6, 65030, Note_off_c, 9, 40, 64
6, 65060, Note_off_c, 9, 36, 64
6, 65120, Note_on_c, 9, 36, 107
6, 65120, Note_on_c, 9, 46, 127
6, 65210, Note_off_c, 9, 36, 64
6, 65250, Note_off_c, 9, 46, 64
6, 65280, Note_on_c, 9, 51, 127
6, 65280, Note_on_c, 9, 36, 76
6, 65280, Note_on_c, 9, 36, 107
6, 65280, Note_on_c, 9, 57, 107
6, 65281, Note_off_c, 9, 36, 64
6, 65305, Note_off_c, 9, 57, 64
6, 65350, Note_off_c, 9, 51, 64
6, 65600, Note_on_c, 9, 51, 85
6, 65620, Note_off_c, 9, 51, 64
6, 65760, Note_on_c, 9, 40, 127
6, 65760, Note_on_c, 9, 51, 127
6, 65870, Note_off_c, 9, 51, 64
6, 65920, Note_off_c, 9, 36, 64
6, 66080, Note_off_c, 9, 40, 64
6, 66080, Note_on_c, 9, 51, 107
6, 66080, Note_on_c, 9, 36, 93
6, 66125, Note_off_c, 9, 51, 64
6, 66145, Note_off_c, 9, 36, 64
6, 66240, Note_on_c, 9, 51, 127
6, 66240, Note_on_c, 9, 36, 93
6, 66300, Note_off_c, 9, 51, 64
6, 66560, Note_on_c, 9, 51, 98
6, 66595, Note_off_c, 9, 51, 64
6, 66720, Note_on_c, 9, 40, 127
6, 66720, Note_on_c, 9, 51, 127
6, 66795, Note_off_c, 9, 51, 64
6, 66870, Note_off_c, 9, 36, 64
6, 67025, Note_off_c, 9, 40, 64
6, 67040, Note_on_c, 9, 51, 113
6, 67040, Note_on_c, 9, 36, 72
6, 67085, Note_off_c, 9, 51, 64
6, 67105, Note_off_c, 9, 36, 64
6, 67200, Note_on_c, 9, 36, 107
6, 67200, Note_on_c, 9, 51, 127
6, 67270, Note_off_c, 9, 51, 64
6, 67520, Note_on_c, 9, 51, 85
6, 67555, Note_off_c, 9, 51, 64
6, 67680, Note_on_c, 9, 51, 127
6, 67680, Note_on_c, 9, 40, 127
6, 67755, Note_off_c, 9, 51, 64
6, 67840, Note_off_c, 9, 36, 64
6, 68000, Note_on_c, 9, 51, 107
6, 68000, Note_on_c, 9, 36, 85
6, 68015, Note_off_c, 9, 40, 64
6, 68040, Note_off_c, 9, 51, 64
6, 68065, Note_off_c, 9, 36, 64
6, 68160, Note_on_c, 9, 51, 107
6, 68160, Note_on_c, 9, 36, 85
6, 68215, Note_off_c, 9, 51, 64
6, 68480, Note_on_c, 9, 51, 107
6, 68525, Note_off_c, 9, 51, 64
6, 68640, Note_on_c, 9, 40, 127
6, 68640, Note_on_c, 9, 51, 127
6, 68715, Note_off_c, 9, 51, 64
6, 68795, Note_off_c, 9, 36, 64
6, 68840, Note_off_c, 9, 40, 64
6, 68960, Note_on_c, 9, 51, 127
6, 68960, Note_on_c, 9, 36, 93
6, 68995, Note_off_c, 9, 51, 64
6, 69000, Note_off_c, 9, 36, 64
6, 69120, Note_on_c, 9, 51, 127
6, 69120, Note_on_c, 9, 36, 107
6, 69160, Note_off_c, 9, 51, 64
6, 69440, Note_on_c, 9, 51, 68
6, 69465, Note_off_c, 9, 51, 64
6, 69600, Note_on_c, 9, 40, 127
6, 69600, Note_on_c, 9, 51, 127
6, 69725, Note_off_c, 9, 51, 64
6, 69770, Note_off_c, 9, 36, 64
6, 69920, Note_on_c, 9, 36, 50
6, 69920, Note_on_c, 9, 51, 102
6, 69970, Note_off_c, 9, 51, 64
6, 69970, Note_off_c, 9, 36, 64
6, 69975, Note_off_c, 9, 40, 64
6, 70080, Note_on_c, 9, 36, 85
6, 70080, Note_on_c, 9, 51, 113
6, 70175, Note_off_c, 9, 51, 64
6, 70400, Note_on_c, 9, 51, 93
6, 70435, Note_off_c, 9, 51, 64
6, 70560, Note_on_c, 9, 40, 127
6, 70560, Note_on_c, 9, 51, 127
6, 70680, Note_off_c, 9, 51, 64
6, 70770, Note_off_c, 9, 36, 64
6, 70860, Note_off_c, 9, 40, 64
6, 70880, Note_on_c, 9, 36, 72
6, 70880, Note_on_c, 9, 51, 107
6, 70935, Note_off_c, 9, 51, 64
6, 70960, Note_off_c, 9, 36, 64
6, 71040, Note_on_c, 9, 51, 113
6, 71040, Note_on_c, 9, 36, 80
6, 71135, Note_off_c, 9, 51, 64
6, 71360, Note_on_c, 9, 51, 68
6, 71385, Note_off_c, 9, 51, 64
6, 71520, Note_on_c, 9, 40, 127
6, 71520, Note_on_c, 9, 51, 127
6, 71660, Note_off_c, 9, 51, 64
6, 71740, Note_off_c, 9, 36, 64
6, 71815, Note_off_c, 9, 40, 64
6, 71840, Note_on_c, 9, 36, 72
6, 71840, Note_on_c, 9, 51, 98
6, 71885, Note_off_c, 9, 51, 64
6, 71895, Note_off_c, 9, 36, 64
6, 72000, Note_on_c, 9, 36, 98
6, 72000, Note_on_c, 9, 51, 113
6, 72090, Note_off_c, 9, 51, 64
6, 72320, Note_on_c, 9, 51, 89
6, 72355, Note_off_c, 9, 51, 64
6, 72480, Note_on_c, 9, 51, 127
6, 72480, Note_on_c, 9, 40, 127
6, 72600, Note_off_c, 9, 51, 64
6, 72650, Note_off_c, 9, 36, 64
6, 72790, Note_off_c, 9, 40, 64
6, 72800, Note_on_c, 9, 51, 102
6, 72800, Note_on_c, 9, 36, 76
6, 72845, Note_off_c, 9, 51, 64
6, 72865, Note_off_c, 9, 36, 64
6, 72960, Note_on_c, 9, 36, 76
6, 72960, Note_on_c, 9, 51, 127
6, 73030, Note_off_c, 9, 51, 64
6, 73280, Note_on_c, 9, 51, 85
6, 73300, Note_off_c, 9, 51, 64
6, 73440, Note_on_c, 9, 40, 127
6, 73440, Note_on_c, 9, 49, 107
6, 73440, Note_on_c, 9, 51, 127
6, 73500, Note_off_c, 9, 49, 64
6, 73550, Note_off_c, 9, 51, 64
6, 73600, Note_off_c, 9, 36, 64
6, 73760, Note_off_c, 9, 40, 64
6, 73760, Note_on_c, 9, 36, 93
6, 73760, Note_on_c, 9, 51, 107
6, 73805, Note_off_c, 9, 51, 64
6, 73825, Note_off_c, 9, 36, 64
6, 73920, Note_on_c, 9, 36, 93
6, 73920, Note_on_c, 9, 51, 127
6, 73980, Note_off_c, 9, 51, 64
6, 74240, Note_on_c, 9, 51, 98
6, 74275, Note_off_c, 9, 51, 64
6, 74400, Note_on_c, 9, 40, 127
6, 74400, Note_on_c, 9, 51, 127
6, 74475, Note_off_c, 9, 51, 64
6, 74550, Note_off_c, 9, 36, 64
6, 74705, Note_off_c, 9, 40, 64
6, 74720, Note_on_c, 9, 51, 113
6, 74720, Note_on_c, 9, 36, 72
6, 74765, Note_off_c, 9, 51, 64
6, 74785, Note_off_c, 9, 36, 64
6, 74880, Note_on_c, 9, 36, 107
6, 74880, Note_on_c, 9, 51, 127
6, 74950, Note_off_c, 9, 51, 64
6, 75200, Note_on_c, 9, 51, 85
6, 75235, Note_off_c, 9, 51, 64
6, 75360, Note_on_c, 9, 51, 127
6, 75360, Note_on_c, 9, 40, 127
6, 75435, Note_off_c, 9, 51, 64
6, 75520, Note_off_c, 9, 36, 64
6, 75680, Note_on_c, 9, 36, 85
6, 75680, Note_on_c, 9, 51, 107
6, 75695, Note_off_c, 9, 40, 64
6, 75720, Note_off_c, 9, 51, 64
6, 75745, Note_off_c, 9, 36, 64
6, 75840, Note_on_c, 9, 51, 107
6, 75840, Note_on_c, 9, 36, 85
6, 75895, Note_off_c, 9, 51, 64
6, 76160, Note_on_c, 9, 51, 107
6, 76205, Note_off_c, 9, 51, 64
6, 76320, Note_on_c, 9, 40, 127
6, 76320, Note_on_c, 9, 51, 127
6, 76395, Note_off_c, 9, 51, 64
6, 76475, Note_off_c, 9, 36, 64
6, 76520, Note_off_c, 9, 40, 64
6, 76640, Note_on_c, 9, 36, 93
6, 76640, Note_on_c, 9, 51, 127
6, 76675, Note_off_c, 9, 51, 64
6, 76680, Note_off_c, 9, 36, 64
6, 76800, Note_on_c, 9, 51, 127
6, 76800, Note_on_c, 9, 36, 107
6, 76800, Note_on_c, 9, 57, 93
6, 76840, Note_off_c, 9, 51, 64
6, 76855, Note_off_c, 9, 57, 64
6, 77120, Note_on_c, 9, 51, 68
6, 77145, Note_off_c, 9, 51, 64
6, 77280, Note_on_c, 9, 40, 127
6, 77280, Note_on_c, 9, 51, 127
6, 77405, Note_off_c, 9, 51, 64
6, 77450, Note_off_c, 9, 36, 64
6, 77600, Note_on_c, 9, 36, 50
6, 77600, Note_on_c, 9, 51, 102
6, 77650, Note_off_c, 9, 51, 64
6, 77650, Note_off_c, 9, 36, 64
6, 77655, Note_off_c, 9, 40, 64
6, 77760, Note_on_c, 9, 36, 85
6, 77760, Note_on_c, 9, 51, 113
6, 77855, Note_off_c, 9, 51, 64
6, 78080, Note_on_c, 9, 51, 93
6, 78115, Note_off_c, 9, 51, 64
6, 78240, Note_on_c, 9, 51, 127
6, 78240, Note_on_c, 9, 40, 127
6, 78360, Note_off_c, 9, 51, 64
6, 78450, Note_off_c, 9, 36, 64
6, 78540, Note_off_c, 9, 40, 64
6, 78560, Note_on_c, 9, 36, 72
6, 78560, Note_on_c, 9, 51, 107
6, 78615, Note_off_c, 9, 51, 64
6, 78640, Note_off_c, 9, 36, 64
6, 78720, Note_on_c, 9, 51, 113
6, 78720, Note_on_c, 9, 36, 80
6, 78815, Note_off_c, 9, 51, 64
6, 79040, Note_on_c, 9, 51, 68
6, 79065, Note_off_c, 9, 51, 64
6, 79200, Note_on_c, 9, 51, 127
6, 79200, Note_on_c, 9, 40, 127
6, 79340, Note_off_c, 9, 51, 64
6, 79420, Note_off_c, 9, 36, 64
6, 79495, Note_off_c, 9, 40, 64
6, 79520, Note_on_c, 9, 36, 72
6, 79520, Note_on_c, 9, 51, 98
6, 79565, Note_off_c, 9, 51, 64
6, 79575, Note_off_c, 9, 36, 64
6, 79680, Note_on_c, 9, 51, 113
6, 79680, Note_on_c, 9, 36, 98
6, 79770, Note_off_c, 9, 51, 64
6, 80000, Note_on_c, 9, 40, 76
6, 80000, Note_on_c, 9, 51, 89
6, 80035, Note_off_c, 9, 51, 64
6, 80050, Note_off_c, 9, 40, 64
6, 80160, Note_on_c, 9, 40, 107
6, 80160, Note_on_c, 9, 51, 127
6, 80220, Note_off_c, 9, 40, 64
6, 80280, Note_off_c, 9, 51, 64
6, 80320, Note_on_c, 9, 40, 119
6, 80330, Note_off_c, 9, 36, 64
6, 80385, Note_off_c, 9, 40, 64
6, 80480, Note_on_c, 9, 40, 127
6, 80480, Note_on_c, 9, 51, 102
6, 80480, Note_on_c, 9, 36, 76
6, 80525, Note_off_c, 9, 51, 64
6, 80545, Note_off_c, 9, 36, 64
6, 80580, Note_off_c, 9, 40, 64
6, 80640, Note_on_c, 9, 51, 127
6, 80640, Note_on_c, 9, 49, 107
6, 80640, Note_on_c, 9, 36, 76
6, 80675, Note_off_c, 9, 49, 64
6, 80710, Note_off_c, 9, 51, 64
6, 80960, Note_on_c, 9, 51, 85
6, 80980, Note_off_c, 9, 51, 64
6, 81120, Note_on_c, 9, 40, 127
6, 81120, Note_on_c, 9, 51, 127
6, 81230, Note_off_c, 9, 51, 64
6, 81280, Note_off_c, 9, 36, 64
6, 81440, Note_off_c, 9, 40, 64
6, 81440, Note_on_c, 9, 36, 93
6, 81440, Note_on_c, 9, 51, 107
6, 81485, Note_off_c, 9, 51, 64
6, 81505, Note_off_c, 9, 36, 64
6, 81600, Note_on_c, 9, 51, 127
6, 81600, Note_on_c, 9, 36, 93
6, 81660, Note_off_c, 9, 51, 64
6, 81920, Note_on_c, 9, 51, 98
6, 81955, Note_off_c, 9, 51, 64
6, 82080, Note_on_c, 9, 51, 127
6, 82080, Note_on_c, 9, 40, 127
6, 82155, Note_off_c, 9, 51, 64
6, 82230, Note_off_c, 9, 36, 64
6, 82385, Note_off_c, 9, 40, 64
6, 82400, Note_on_c, 9, 36, 72
6, 82400, Note_on_c, 9, 51, 113
6, 82445, Note_off_c, 9, 51, 64
6, 82465, Note_off_c, 9, 36, 64
6, 82560, Note_on_c, 9, 36, 107
6, 82560, Note_on_c, 9, 51, 127
6, 82630, Note_off_c, 9, 51, 64
6, 82880, Note_on_c, 9, 51, 85
6, 82915, Note_off_c, 9, 51, 64
6, 83040, Note_on_c, 9, 40, 127
6, 83040, Note_on_c, 9, 51, 127
6, 83115, Note_off_c, 9, 51, 64
6, 83200, Note_off_c, 9, 36, 64
6, 83360, Note_on_c, 9, 36, 85
6, 83360, Note_on_c, 9, 51, 107
6, 83375, Note_off_c, 9, 40, 64
6, 83400, Note_off_c, 9, 51, 64
6, 83425, Note_off_c, 9, 36, 64
6, 83520, Note_on_c, 9, 36, 85
6, 83520, Note_on_c, 9, 51, 107
6, 83575, Note_off_c, 9, 51, 64
6, 83840, Note_on_c, 9, 51, 107
6, 83885, Note_off_c, 9, 51, 64
6, 84000, Note_on_c, 9, 51, 127
6, 84000, Note_on_c, 9, 40, 127
6, 84075, Note_off_c, 9, 51, 64
6, 84155, Note_off_c, 9, 36, 64
6, 84200, Note_off_c, 9, 40, 64
6, 84320, Note_on_c, 9, 36, 93
6, 84320, Note_on_c, 9, 51, 127
6, 84355, Note_off_c, 9, 51, 64
6, 84360, Note_off_c, 9, 36, 64
6, 84480, Note_on_c, 9, 51, 127
6, 84480, Note_on_c, 9, 36, 107
6, 84480, Note_on_c, 9, 57, 98
6, 84520, Note_off_c, 9, 57, 64
6, 84520, Note_off_c, 9, 51, 64
6, 84800, Note_on_c, 9, 51, 68
6, 84825, Note_off_c, 9, 51, 64
6, 84960, Note_on_c, 9, 51, 127
6, 84960, Note_on_c, 9, 40, 127
6, 85085, Note_off_c, 9, 51, 64
6, 85130, Note_off_c, 9, 36, 64
6, 85280, Note_on_c, 9, 36, 50
6, 85280, Note_on_c, 9, 51, 102
6, 85330, Note_off_c, 9, 51, 64
6, 85330, Note_off_c, 9, 36, 64
6, 85335, Note_off_c, 9, 40, 64
6, 85440, Note_on_c, 9, 36, 85
6, 85440, Note_on_c, 9, 51, 113
6, 85535, Note_off_c, 9, 51, 64
6, 85760, Note_on_c, 9, 51, 93
6, 85795, Note_off_c, 9, 51, 64
6, 85920, Note_on_c, 9, 40, 127
6, 85920, Note_on_c, 9, 51, 127
6, 86040, Note_off_c, 9, 51, 64
6, 86130, Note_off_c, 9, 36, 64
6, 86220, Note_off_c, 9, 40, 64
6, 86240, Note_on_c, 9, 51, 107
6, 86240, Note_on_c, 9, 36, 72
6, 86295, Note_off_c, 9, 51, 64
6, 86320, Note_off_c, 9, 36, 64
6, 86400, Note_on_c, 9, 51, 113
6, 86400, Note_on_c, 9, 36, 80
6, 86495, Note_off_c, 9, 51, 64
6, 86720, Note_on_c, 9, 51, 68
6, 86745, Note_off_c, 9, 51, 64
6, 86880, Note_on_c, 9, 49, 113
6, 86880, Note_on_c, 9, 51, 127
6, 86880, Note_on_c, 9, 40, 127
6, 86940, Note_off_c, 9, 49, 64
6, 87020, Note_off_c, 9, 51, 64
6, 87100, Note_off_c, 9, 36, 64
6, 87175, Note_off_c, 9, 40, 64
6, 87200, Note_on_c, 9, 51, 98
6, 87200, Note_on_c, 9, 36, 72
6, 87245, Note_off_c, 9, 51, 64
6, 87255, Note_off_c, 9, 36, 64
6, 87360, Note_on_c, 9, 36, 98
6, 87360, Note_on_c, 9, 51, 113
6, 87450, Note_off_c, 9, 51, 64
6, 87680, Note_on_c, 9, 51, 89
6, 87715, Note_off_c, 9, 51, 64
6, 87840, Note_on_c, 9, 57, 107
6, 87840, Note_on_c, 9, 40, 127
6, 87840, Note_on_c, 9, 51, 127
6, 87900, Note_off_c, 9, 57, 64
6, 87960, Note_off_c, 9, 51, 64
6, 88010, Note_off_c, 9, 36, 64
6, 88150, Note_off_c, 9, 40, 64
6, 88160, Note_on_c, 9, 36, 76
6, 88160, Note_on_c, 9, 51, 102
6, 88205, Note_off_c, 9, 51, 64
6, 88225, Note_off_c, 9, 36, 64
6, 88320, Note_on_c, 9, 51, 127
6, 88320, Note_on_c, 9, 36, 76
6, 88390, Note_off_c, 9, 51, 64
6, 88640, Note_on_c, 9, 51, 85
6, 88660, Note_off_c, 9, 51, 64
6, 88800, Note_on_c, 9, 51, 127
6, 88800, Note_on_c, 9, 40, 127
6, 88800, Note_on_c, 9, 49, 113
6, 88850, Note_off_c, 9, 49, 64
6, 88910, Note_off_c, 9, 51, 64
6, 88960, Note_off_c, 9, 36, 64
6, 89120, Note_off_c, 9, 40, 64
6, 89120, Note_on_c, 9, 36, 93
6, 89120, Note_on_c, 9, 51, 107
6, 89165, Note_off_c, 9, 51, 64
6, 89185, Note_off_c, 9, 36, 64
6, 89280, Note_on_c, 9, 51, 127
6, 89280, Note_on_c, 9, 36, 93
6, 89340, Note_off_c, 9, 51, 64
6, 89600, Note_on_c, 9, 51, 98
6, 89635, Note_off_c, 9, 51, 64
6, 89760, Note_on_c, 9, 40, 127
6, 89760, Note_on_c, 9, 51, 127
6, 89835, Note_off_c, 9, 51, 64
6, 89910, Note_off_c, 9, 36, 64
6, 90065, Note_off_c, 9, 40, 64
6, 90080, Note_on_c, 9, 36, 72
6, 90080, Note_on_c, 9, 51, 113
6, 90125, Note_off_c, 9, 51, 64
6, 90145, Note_off_c, 9, 36, 64
6, 90240, Note_on_c, 9, 36, 107
6, 90240, Note_on_c, 9, 51, 127
6, 90310, Note_off_c, 9, 51, 64
6, 90560, Note_on_c, 9, 51, 85
6, 90595, Note_off_c, 9, 51, 64
6, 90720, Note_on_c, 9, 57, 107
6, 90720, Note_on_c, 9, 40, 127
6, 90720, Note_on_c, 9, 51, 127
6, 90760, Note_off_c, 9, 57, 64
6, 90795, Note_off_c, 9, 51, 64
6, 90880, Note_off_c, 9, 36, 64
6, 91040, Note_on_c, 9, 51, 107
6, 91040, Note_on_c, 9, 36, 85
6, 91055, Note_off_c, 9, 40, 64
6, 91080, Note_off_c, 9, 51, 64
6, 91105, Note_off_c, 9, 36, 64
6, 91200, Note_on_c, 9, 51, 107
6, 91200, Note_on_c, 9, 36, 85
6, 91255, Note_off_c, 9, 51, 64
6, 91520, Note_on_c, 9, 51, 107
6, 91565, Note_off_c, 9, 51, 64
6, 91680, Note_on_c, 9, 40, 127
6, 91680, Note_on_c, 9, 51, 127
6, 91755, Note_off_c, 9, 51, 64
6, 91835, Note_off_c, 9, 36, 64
6, 91880, Note_off_c, 9, 40, 64
6, 92000, Note_on_c, 9, 51, 127
6, 92000, Note_on_c, 9, 36, 93
6, 92035, Note_off_c, 9, 51, 64
6, 92040, Note_off_c, 9, 36, 64
6, 92160, Note_on_c, 9, 49, 102
6, 92160, Note_on_c, 9, 36, 107
6, 92160, Note_on_c, 9, 51, 127
6, 92200, Note_off_c, 9, 51, 64
6, 92210, Note_off_c, 9, 49, 64
6, 92480, Note_on_c, 9, 51, 68
6, 92505, Note_off_c, 9, 51, 64
6, 92640, Note_on_c, 9, 40, 127
6, 92640, Note_on_c, 9, 51, 127
6, 92765, Note_off_c, 9, 51, 64
6, 92810, Note_off_c, 9, 36, 64
6, 92960, Note_on_c, 9, 36, 50
6, 92960, Note_on_c, 9, 51, 102
6, 93010, Note_off_c, 9, 51, 64
6, 93010, Note_off_c, 9, 36, 64
6, 93015, Note_off_c, 9, 40, 64
6, 93120, Note_on_c, 9, 51, 113
6, 93120, Note_on_c, 9, 36, 85
6, 93215, Note_off_c, 9, 51, 64
6, 93440, Note_on_c, 9, 51, 93
6, 93475, Note_off_c, 9, 51, 64
6, 93600, Note_on_c, 9, 40, 127
6, 93600, Note_on_c, 9, 51, 127
6, 93720, Note_off_c, 9, 51, 64
6, 93810, Note_off_c, 9, 36, 64
6, 93900, Note_off_c, 9, 40, 64
6, 93920, Note_on_c, 9, 36, 72
6, 93920, Note_on_c, 9, 51, 107
6, 93975, Note_off_c, 9, 51, 64
6, 94000, Note_off_c, 9, 36, 64
6, 94080, Note_on_c, 9, 51, 113
6, 94080, Note_on_c, 9, 36, 80
6, 94175, Note_off_c, 9, 51, 64
6, 94400, Note_on_c, 9, 51, 68
6, 94425, Note_off_c, 9, 51, 64
6, 94560, Note_on_c, 9, 40, 127
6, 94560, Note_on_c, 9, 51, 127
6, 94700, Note_off_c, 9, 51, 64
6, 94780, Note_off_c, 9, 36, 64
6, 94855, Note_off_c, 9, 40, 64
6, 94880, Note_on_c, 9, 51, 98
6, 94880, Note_on_c, 9, 36, 72
6, 94925, Note_off_c, 9, 51, 64
6, 94935, Note_off_c, 9, 36, 64
6, 95040, Note_on_c, 9, 36, 98
6, 95040, Note_on_c, 9, 51, 113
6, 95130, Note_off_c, 9, 51, 64
6, 95360, Note_on_c, 9, 51, 89
6, 95395, Note_off_c, 9, 51, 64
6, 95520, Note_on_c, 9, 40, 127
6, 95520, Note_on_c, 9, 51, 127
6, 95640, Note_off_c, 9, 51, 64
6, 95680, Note_off_c, 9, 40, 64
6, 95680, Note_on_c, 9, 40, 102
6, 95690, Note_off_c, 9, 36, 64
6, 95830, Note_off_c, 9, 40, 64
6, 95840, Note_on_c, 9, 51, 102
6, 95840, Note_on_c, 9, 36, 76
6, 95840, Note_on_c, 9, 40, 119
6, 95885, Note_off_c, 9, 51, 64
6, 95905, Note_off_c, 9, 36, 64
6, 95915, Note_off_c, 9, 40, 64
6, 96000, Note_on_c, 9, 57, 107
6, 96000, Note_on_c, 9, 51, 127
6, 96000, Note_on_c, 9, 36, 76
6, 96000, Note_on_c, 9, 36, 107
6, 96001, Note_off_c, 9, 36, 64
6, 96025, Note_off_c, 9, 57, 64
6, 96070, Note_off_c, 9, 51, 64
6, 96320, Note_on_c, 9, 51, 85
6, 96340, Note_off_c, 9, 51, 64
6, 96480, Note_on_c, 9, 40, 127
6, 96480, Note_on_c, 9, 51, 127
6, 96590, Note_off_c, 9, 51, 64
6, 96640, Note_off_c, 9, 36, 64
6, 96800, Note_off_c, 9, 40, 64
6, 96800, Note_on_c, 9, 36, 93
6, 96800, Note_on_c, 9, 51, 107
6, 96845, Note_off_c, 9, 51, 64
6, 96865, Note_off_c, 9, 36, 64
6, 96960, Note_on_c, 9, 36, 93
6, 96960, Note_on_c, 9, 51, 127
6, 97020, Note_off_c, 9, 51, 64
6, 97280, Note_on_c, 9, 51, 98
6, 97315, Note_off_c, 9, 51, 64
6, 97440, Note_on_c, 9, 51, 127
6, 97440, Note_on_c, 9, 40, 127
6, 97515, Note_off_c, 9, 51, 64
6, 97590, Note_off_c, 9, 36, 64
6, 97745, Note_off_c, 9, 40, 64
6, 97760, Note_on_c, 9, 51, 113
6, 97760, Note_on_c, 9, 36, 72
6, 97805, Note_off_c, 9, 51, 64
6, 97825, Note_off_c, 9, 36, 64
6, 97920, Note_on_c, 9, 51, 127
6, 97920, Note_on_c, 9, 36, 107
6, 97990, Note_off_c, 9, 51, 64
6, 98240, Note_on_c, 9, 51, 85
6, 98275, Note_off_c, 9, 51, 64
6, 98400, Note_on_c, 9, 51, 127
6, 98400, Note_on_c, 9, 40, 127
6, 98475, Note_off_c, 9, 51, 64
6, 98560, Note_off_c, 9, 36, 64
6, 98720, Note_on_c, 9, 36, 85
6, 98720, Note_on_c, 9, 51, 107
6, 98735, Note_off_c, 9, 40, 64
6, 98760, Note_off_c, 9, 51, 64
6, 98785, Note_off_c, 9, 36, 64
6, 98880, Note_on_c, 9, 36, 85
6, 98880, Note_on_c, 9, 51, 107
6, 98935, Note_off_c, 9, 51, 64
6, 99200, Note_on_c, 9, 51, 107
6, 99245, Note_off_c, 9, 51, 64
6, 99360, Note_on_c, 9, 51, 127
6, 99360, Note_on_c, 9, 40, 127
6, 99435, Note_off_c, 9, 51, 64
6, 99515, Note_off_c, 9, 36, 64
6, 99560, Note_off_c, 9, 40, 64
6, 99680, Note_on_c, 9, 51, 127
6, 99680, Note_on_c, 9, 36, 93
6, 99715, Note_off_c, 9, 51, 64
6, 99720, Note_off_c, 9, 36, 64
6, 99840, Note_on_c, 9, 51, 127
6, 99840, Note_on_c, 9, 36, 107
6, 99880, Note_off_c, 9, 51, 64
6, 100160, Note_on_c, 9, 51, 68
6, 100185, Note_off_c, 9, 51, 64
6, 100320, Note_on_c, 9, 51, 127
6, 100320, Note_on_c, 9, 40, 127
6, 100445, Note_off_c, 9, 51, 64
6, 100490, Note_off_c, 9, 36, 64
6, 100640, Note_on_c, 9, 36, 50
6, 100640, Note_on_c, 9, 51, 102
6, 100690, Note_off_c, 9, 51, 64
6, 100690, Note_off_c, 9, 36, 64
6, 100695, Note_off_c, 9, 40, 64
6, 100800, Note_on_c, 9, 51, 113
6, 100800, Note_on_c, 9, 36, 85
6, 100895, Note_off_c, 9, 51, 64
6, 101120, Note_on_c, 9, 51, 93
6, 101155, Note_off_c, 9, 51, 64
6, 101280, Note_on_c, 9, 40, 127
6, 101280, Note_on_c, 9, 51, 127
6, 101400, Note_off_c, 9, 51, 64
6, 101490, Note_off_c, 9, 36, 64
6, 101580, Note_off_c, 9, 40, 64
6, 101600, Note_on_c, 9, 36, 72
6, 101600, Note_on_c, 9, 51, 107
6, 101655, Note_off_c, 9, 51, 64
6, 101680, Note_off_c, 9, 36, 64
6, 101760, Note_on_c, 9, 51, 113
6, 101760, Note_on_c, 9, 36, 80
6, 101855, Note_off_c, 9, 51, 64
6, 102080, Note_on_c, 9, 51, 68
6, 102105, Note_off_c, 9, 51, 64
6, 102240, Note_on_c, 9, 51, 127
6, 102240, Note_on_c, 9, 40, 127
6, 102380, Note_off_c, 9, 51, 64
6, 102460, Note_off_c, 9, 36, 64
6, 102535, Note_off_c, 9, 40, 64
6, 102560, Note_on_c, 9, 51, 98
6, 102560, Note_on_c, 9, 36, 72
6, 102605, Note_off_c, 9, 51, 64
6, 102615, Note_off_c, 9, 36, 64
6, 102720, Note_on_c, 9, 36, 98
6, 102720, Note_on_c, 9, 51, 113
6, 102810, Note_off_c, 9, 51, 64
6, 103040, Note_on_c, 9, 51, 89
6, 103075, Note_off_c, 9, 51, 64
6, 103200, Note_on_c, 9, 40, 127
6, 103200, Note_on_c, 9, 51, 127
6, 103320, Note_off_c, 9, 51, 64
6, 103370, Note_off_c, 9, 36, 64
6, 103510, Note_off_c, 9, 40, 64
6, 103520, Note_on_c, 9, 36, 76
6, 103520, Note_on_c, 9, 51, 102
6, 103565, Note_off_c, 9, 51, 64
6, 103585, Note_off_c, 9, 36, 64
6, 103680, Note_on_c, 9, 36, 76
6, 103680, Note_on_c, 9, 51, 127
6, 103750, Note_off_c, 9, 51, 64
6, 104000, Note_on_c, 9, 51, 85
6, 104020, Note_off_c, 9, 51, 64
6, 104160, Note_on_c, 9, 49, 107
6, 104160, Note_on_c, 9, 51, 127
6, 104160, Note_on_c, 9, 40, 127
6, 104220, Note_off_c, 9, 49, 64
6, 104270, Note_off_c, 9, 51, 64
6, 104320, Note_off_c, 9, 36, 64
6, 104480, Note_off_c, 9, 40, 64
6, 104480, Note_on_c, 9, 51, 107
6, 104480, Note_on_c, 9, 36, 93
6, 104525, Note_off_c, 9, 51, 64
6, 104545, Note_off_c, 9, 36, 64
6, 104640, Note_on_c, 9, 51, 127
6, 104640, Note_on_c, 9, 36, 93
6, 104700, Note_off_c, 9, 51, 64
6, 104960, Note_on_c, 9, 51, 98
6, 104995, Note_off_c, 9, 51, 64
6, 105120, Note_on_c, 9, 51, 127
6, 105120, Note_on_c, 9, 40, 127
6, 105195, Note_off_c, 9, 51, 64
6, 105270, Note_off_c, 9, 36, 64
6, 105425, Note_off_c, 9, 40, 64
6, 105440, Note_on_c, 9, 51, 113
6, 105440, Note_on_c, 9, 36, 72
6, 105485, Note_off_c, 9, 51, 64
6, 105505, Note_off_c, 9, 36, 64
6, 105600, Note_on_c, 9, 36, 107
6, 105600, Note_on_c, 9, 51, 127
6, 105670, Note_off_c, 9, 51, 64
6, 105920, Note_on_c, 9, 51, 85
6, 105955, Note_off_c, 9, 51, 64
6, 106080, Note_on_c, 9, 40, 127
6, 106080, Note_on_c, 9, 51, 127
6, 106155, Note_off_c, 9, 51, 64
6, 106240, Note_off_c, 9, 36, 64
6, 106400, Note_on_c, 9, 36, 85
6, 106400, Note_on_c, 9, 51, 107
6, 106415, Note_off_c, 9, 40, 64
6, 106440, Note_off_c, 9, 51, 64
6, 106465, Note_off_c, 9, 36, 64
6, 106560, Note_on_c, 9, 51, 107
6, 106560, Note_on_c, 9, 36, 85
6, 106615, Note_off_c, 9, 51, 64
6, 106880, Note_on_c, 9, 51, 107
6, 106925, Note_off_c, 9, 51, 64
6, 107040, Note_on_c, 9, 40, 127
6, 107040, Note_on_c, 9, 51, 127
6, 107115, Note_off_c, 9, 51, 64
6, 107195, Note_off_c, 9, 36, 64
6, 107240, Note_off_c, 9, 40, 64
6, 107360, Note_on_c, 9, 51, 127
6, 107360, Note_on_c, 9, 36, 93
6, 107395, Note_off_c, 9, 51, 64
6, 107400, Note_off_c, 9, 36, 64
6, 107520, Note_on_c, 9, 51, 127
6, 107520, Note_on_c, 9, 36, 107
6, 107520, Note_on_c, 9, 57, 93
6, 107560, Note_off_c, 9, 51, 64
6, 107575, Note_off_c, 9, 57, 64
6, 107840, Note_on_c, 9, 51, 68
6, 107865, Note_off_c, 9, 51, 64
6, 108000, Note_on_c, 9, 51, 127
6, 108000, Note_on_c, 9, 40, 127
6, 108125, Note_off_c, 9, 51, 64
6, 108170, Note_off_c, 9, 36, 64
6, 108320, Note_on_c, 9, 36, 50
6, 108320, Note_on_c, 9, 51, 102
6, 108370, Note_off_c, 9, 51, 64
6, 108370, Note_off_c, 9, 36, 64
6, 108375, Note_off_c, 9, 40, 64
6, 108480, Note_on_c, 9, 51, 113
6, 108480, Note_on_c, 9, 36, 85
6, 108575, Note_off_c, 9, 51, 64
6, 108800, Note_on_c, 9, 51, 93
6, 108835, Note_off_c, 9, 51, 64
6, 108960, Note_on_c, 9, 40, 127
6, 108960, Note_on_c, 9, 51, 127
6, 109080, Note_off_c, 9, 51, 64
6, 109170, Note_off_c, 9, 36, 64
6, 109260, Note_off_c, 9, 40, 64
6, 109280, Note_on_c, 9, 51, 107
6, 109280, Note_on_c, 9, 36, 72
6, 109335, Note_off_c, 9, 51, 64
6, 109360, Note_off_c, 9, 36, 64
6, 109440, Note_on_c, 9, 36, 80
6, 109440, Note_on_c, 9, 51, 113
6, 109535, Note_off_c, 9, 51, 64
6, 109760, Note_on_c, 9, 51, 68
6, 109785, Note_off_c, 9, 51, 64
6, 109920, Note_on_c, 9, 40, 127
6, 109920, Note_on_c, 9, 51, 127
6, 110060, Note_off_c, 9, 51, 64
6, 110140, Note_off_c, 9, 36, 64
6, 110215, Note_off_c, 9, 40, 64
6, 110240, Note_on_c, 9, 36, 72
6, 110240, Note_on_c, 9, 51, 98
6, 110285, Note_off_c, 9, 51, 64
6, 110295, Note_off_c, 9, 36, 64
6, 110400, Note_on_c, 9, 36, 98
6, 110400, Note_on_c, 9, 51, 113
6, 110490, Note_off_c, 9, 51, 64
6, 110720, Note_on_c, 9, 40, 76
6, 110720, Note_on_c, 9, 51, 89
6, 110755, Note_off_c, 9, 51, 64
6, 110770, Note_off_c, 9, 40, 64
6, 110880, Note_on_c, 9, 40, 107
6, 110880, Note_on_c, 9, 51, 127
6, 110940, Note_off_c, 9, 40, 64
6, 111000, Note_off_c, 9, 51, 64
6, 111040, Note_on_c, 9, 40, 119
6, 111050, Note_off_c, 9, 36, 64
6, 111105, Note_off_c, 9, 40, 64
6, 111200, Note_on_c, 9, 40, 127
6, 111200, Note_on_c, 9, 36, 76
6, 111200, Note_on_c, 9, 51, 102
6, 111245, Note_off_c, 9, 51, 64
6, 111265, Note_off_c, 9, 36, 64
6, 111300, Note_off_c, 9, 40, 64
6, 111360, Note_on_c, 9, 42, 127
6, 111360, Note_on_c, 9, 57, 107
6, 111360, Note_on_c, 9, 36, 113
6, 111390, Note_off_c, 9, 57, 64
6, 111400, Note_off_c, 9, 42, 64
6, 111680, Note_on_c, 9, 42, 127
6, 111725, Note_off_c, 9, 42, 64
6, 111840, Note_on_c, 9, 42, 127
6, 111840, Note_on_c, 9, 40, 127
6, 111900, Note_off_c, 9, 42, 64
6, 112000, Note_off_c, 9, 36, 64
6, 112160, Note_on_c, 9, 42, 127
6, 112160, Note_on_c, 9, 36, 80
6, 112180, Note_off_c, 9, 40, 64
6, 112195, Note_off_c, 9, 42, 64
6, 112240, Note_off_c, 9, 36, 64
6, 112320, Note_on_c, 9, 36, 113
6, 112320, Note_on_c, 9, 42, 127
6, 112380, Note_off_c, 9, 42, 64
6, 112640, Note_on_c, 9, 42, 127
6, 112685, Note_off_c, 9, 42, 64
6, 112800, Note_on_c, 9, 42, 127
6, 112800, Note_on_c, 9, 40, 127
6, 112930, Note_off_c, 9, 42, 64
6, 112970, Note_off_c, 9, 36, 64
6, 113120, Note_on_c, 9, 46, 127
6, 113120, Note_on_c, 9, 36, 98
6, 113180, Note_off_c, 9, 36, 64
6, 113215, Note_off_c, 9, 40, 64
6, 113275, Note_off_c, 9, 46, 64
6, 113280, Note_on_c, 9, 36, 107
6, 113280, Note_on_c, 9, 42, 113
6, 113355, Note_off_c, 9, 42, 64
6, 113600, Note_on_c, 9, 42, 127
6, 113655, Note_off_c, 9, 42, 64
6, 113760, Note_on_c, 9, 40, 127
6, 113760, Note_on_c, 9, 42, 127
6, 113815, Note_off_c, 9, 42, 64
6, 113905, Note_off_c, 9, 36, 64
6, 114080, Note_on_c, 9, 36, 98
6, 114080, Note_on_c, 9, 42, 127
6, 114095, Note_off_c, 9, 40, 64
6, 114135, Note_off_c, 9, 42, 64
6, 114150, Note_off_c, 9, 36, 64
6, 114240, Note_on_c, 9, 42, 127
6, 114240, Note_on_c, 9, 36, 107
6, 114300, Note_off_c, 9, 42, 64
6, 114430, Note_off_c, 9, 36, 64
6, 114560, Note_on_c, 9, 42, 127
6, 114560, Note_on_c, 9, 36, 64
6, 114615, Note_off_c, 9, 42, 64
6, 114720, Note_on_c, 9, 40, 127
6, 114720, Note_on_c, 9, 42, 127
6, 114835, Note_off_c, 9, 42, 64
6, 114855, Note_off_c, 9, 36, 64
6, 115040, Note_on_c, 9, 46, 119
6, 115040, Note_on_c, 9, 36, 93
6, 115070, Note_off_c, 9, 40, 64
6, 115125, Note_off_c, 9, 36, 64
6, 115200, Note_off_c, 9, 46, 64
6, 115200, Note_on_c, 9, 42, 119
6, 115200, Note_on_c, 9, 36, 102
6, 115270, Note_off_c, 9, 42, 64
6, 115520, Note_on_c, 9, 42, 127
6, 115580, Note_off_c, 9, 42, 64
6, 115680, Note_on_c, 9, 42, 127
6, 115680, Note_on_c, 9, 40, 127
6, 115740, Note_off_c, 9, 42, 64
6, 115765, Note_off_c, 9, 36, 64
6, 115940, Note_off_c, 9, 40, 64
6, 116000, Note_on_c, 9, 42, 127
6, 116000, Note_on_c, 9, 36, 102
6, 116050, Note_off_c, 9, 42, 64
6, 116075, Note_off_c, 9, 36, 64
6, 116160, Note_on_c, 9, 36, 89
6, 116160, Note_on_c, 9, 42, 127
6, 116235, Note_off_c, 9, 42, 64
6, 116290, Note_off_c, 9, 36, 64
6, 116480, Note_on_c, 9, 42, 127
6, 116480, Note_on_c, 9, 36, 93
6, 116535, Note_off_c, 9, 42, 64
6, 116605, Note_off_c, 9, 36, 64
6, 116640, Note_on_c, 9, 42, 127
6, 116640, Note_on_c, 9, 40, 127
6, 116715, Note_off_c, 9, 42, 64
6, 116960, Note_on_c, 9, 42, 127
6, 116960, Note_on_c, 9, 36, 98
6, 116970, Note_off_c, 9, 40, 64
6, 117020, Note_off_c, 9, 42, 64
6, 117035, Note_off_c, 9, 36, 64
6, 117120, Note_on_c, 9, 42, 127
6, 117120, Note_on_c, 9, 36, 98
6, 117180, Note_off_c, 9, 42, 64
6, 117370, Note_off_c, 9, 36, 64
6, 117440, Note_on_c, 9, 42, 127
6, 117495, Note_off_c, 9, 42, 64
6, 117600, Note_on_c, 9, 40, 127
6, 117600, Note_on_c, 9, 42, 127
6, 117675, Note_off_c, 9, 42, 64
6, 117845, Note_off_c, 9, 40, 64
6, 117920, Note_on_c, 9, 42, 127
6, 117920, Note_on_c, 9, 36, 76
6, 117985, Note_off_c, 9, 42, 64
6, 118000, Note_off_c, 9, 36, 64
6, 118080, Note_on_c, 9, 42, 127
6, 118080, Note_on_c, 9, 36, 98
6, 118150, Note_off_c, 9, 42, 64
6, 118265, Note_off_c, 9, 36, 64
6, 118400, Note_on_c, 9, 36, 85
6, 118400, Note_on_c, 9, 42, 127
6, 118455, Note_off_c, 9, 42, 64
6, 118520, Note_off_c, 9, 36, 64
6, 118560, Note_on_c, 9, 40, 127
6, 118560, Note_on_c, 9, 42, 127
6, 118675, Note_off_c, 9, 42, 64
6, 118880, Note_off_c, 9, 40, 64
6, 118880, Note_on_c, 9, 36, 93
6, 118880, Note_on_c, 9, 46, 119
6, 118965, Note_off_c, 9, 36, 64
6, 119030, Note_off_c, 9, 46, 64
6, 119040, Note_on_c, 9, 49, 76
6, 119040, Note_on_c, 9, 36, 107
6, 119040, Note_on_c, 9, 42, 119
6, 119085, Note_off_c, 9, 49, 64
6, 119115, Note_off_c, 9, 42, 64
6, 119270, Note_off_c, 9, 36, 64
6, 119360, Note_on_c, 9, 42, 127
6, 119415, Note_off_c, 9, 42, 64
6, 119520, Note_on_c, 9, 42, 127
6, 119520, Note_on_c, 9, 40, 127
6, 119600, Note_off_c, 9, 42, 64
6, 119770, Note_off_c, 9, 40, 64
6, 119840, Note_on_c, 9, 42, 127
6, 119840, Note_on_c, 9, 36, 98
6, 119895, Note_off_c, 9, 42, 64
6, 119915, Note_off_c, 9, 36, 64
6, 120000, Note_on_c, 9, 36, 107
6, 120000, Note_on_c, 9, 42, 127
6, 120070, Note_off_c, 9, 42, 64
6, 120175, Note_off_c, 9, 36, 64
6, 120320, Note_on_c, 9, 42, 127
6, 120380, Note_off_c, 9, 42, 64
6, 120480, Note_on_c, 9, 42, 127
6, 120480, Note_on_c, 9, 40, 127
6, 120585, Note_off_c, 9, 42, 64
6, 120745, Note_off_c, 9, 40, 64
6, 120800, Note_on_c, 9, 36, 93
6, 120800, Note_on_c, 9, 46, 119
6, 120875, Note_off_c, 9, 36, 64
6, 120960, Note_off_c, 9, 46, 64
6, 120960, Note_on_c, 9, 36, 102
6, 120960, Note_on_c, 9, 42, 127
6, 121030, Note_off_c, 9, 42, 64
6, 121180, Note_off_c, 9, 36, 64
6, 121280, Note_on_c, 9, 42, 127
6, 121335, Note_off_c, 9, 42, 64
6, 121440, Note_on_c, 9, 42, 127
6, 121440, Note_on_c, 9, 40, 127
6, 121505, Note_off_c, 9, 42, 64
6, 121660, Note_off_c, 9, 40, 64
6, 121760, Note_on_c, 9, 42, 127
6, 121760, Note_on_c, 9, 36, 102
6, 121820, Note_off_c, 9, 42, 64
6, 121845, Note_off_c, 9, 36, 64
6, 121920, Note_on_c, 9, 42, 127
6, 121920, Note_on_c, 9, 36, 93
6, 121985, Note_off_c, 9, 42, 64
6, 122035, Note_off_c, 9, 36, 64
6, 122240, Note_on_c, 9, 36, 102
6, 122240, Note_on_c, 9, 42, 127
6, 122295, Note_off_c, 9, 42, 64
6, 122330, Note_off_c, 9, 36, 64
6, 122400, Note_on_c, 9, 40, 127
6, 122400, Note_on_c, 9, 42, 127
6, 122470, Note_off_c, 9, 42, 64
6, 122670, Note_off_c, 9, 40, 64
6, 122720, Note_on_c, 9, 42, 127
6, 122720, Note_on_c, 9, 36, 102
6, 122785, Note_off_c, 9, 42, 64
6, 122795, Note_off_c, 9, 36, 64
6, 122880, Note_on_c, 9, 42, 127
6, 122880, Note_on_c, 9, 36, 113
6, 122945, Note_off_c, 9, 42, 64
6, 123040, Note_off_c, 9, 36, 64
6, 123200, Note_on_c, 9, 42, 127
6, 123250, Note_off_c, 9, 42, 64
6, 123360, Note_on_c, 9, 40, 127
6, 123360, Note_on_c, 9, 42, 127
6, 123430, Note_off_c, 9, 42, 64
6, 123640, Note_off_c, 9, 40, 64
6, 123680, Note_on_c, 9, 42, 127
6, 123680, Note_on_c, 9, 36, 98
6, 123740, Note_off_c, 9, 42, 64
6, 123775, Note_off_c, 9, 36, 64
6, 123840, Note_on_c, 9, 42, 127
6, 123840, Note_on_c, 9, 36, 102
6, 123920, Note_off_c, 9, 42, 64
6, 124055, Note_off_c, 9, 36, 64
6, 124160, Note_on_c, 9, 42, 127
6, 124215, Note_off_c, 9, 42, 64
6, 124320, Note_on_c, 9, 42, 127
6, 124320, Note_on_c, 9, 40, 127
6, 124395, Note_off_c, 9, 42, 64
6, 124600, Note_off_c, 9, 40, 64
6, 124640, Note_on_c, 9, 42, 127
6, 124640, Note_on_c, 9, 36, 98
6, 124705, Note_off_c, 9, 42, 64
6, 124725, Note_off_c, 9, 36, 64
6, 124800, Note_on_c, 9, 36, 102
6, 124800, Note_on_c, 9, 42, 127
6, 124870, Note_off_c, 9, 42, 64
6, 125120, Note_on_c, 9, 42, 127
6, 125180, Note_off_c, 9, 42, 64
6, 125280, Note_on_c, 9, 42, 127
6, 125280, Note_on_c, 9, 40, 127
6, 125320, Note_off_c, 9, 36, 64
6, 125365, Note_off_c, 9, 42, 64
6, 125600, Note_on_c, 9, 42, 127
6, 125600, Note_on_c, 9, 36, 85
6, 125645, Note_off_c, 9, 36, 64
6, 125660, Note_off_c, 9, 42, 64
6, 125745, Note_off_c, 9, 40, 64
6, 125760, Note_on_c, 9, 42, 127
6, 125760, Note_on_c, 9, 36, 93
6, 125840, Note_off_c, 9, 42, 64
6, 125920, Note_on_c, 9, 40, 127
6, 125955, Note_off_c, 9, 36, 64
6, 126065, Note_off_c, 9, 40, 64
6, 126080, Note_on_c, 9, 36, 76
6, 126080, Note_on_c, 9, 42, 127
6, 126140, Note_off_c, 9, 42, 64
6, 126240, Note_on_c, 9, 40, 127
6, 126240, Note_on_c, 9, 42, 127
6, 126250, Note_off_c, 9, 36, 64
6, 126350, Note_off_c, 9, 42, 64
6, 126400, Note_on_c, 9, 36, 107
6, 126470, Note_off_c, 9, 40, 64
6, 126500, Note_off_c, 9, 36, 64
6, 126560, Note_on_c, 9, 46, 127
6, 126560, Note_on_c, 9, 36, 107
6, 126650, Note_off_c, 9, 36, 64
6, 126690, Note_off_c, 9, 46, 64
6, 126720, Note_on_c, 9, 42, 127
6, 126720, Note_on_c, 9, 57, 107
6, 126720, Note_on_c, 9, 36, 113
6, 126750, Note_off_c, 9, 57, 64
6, 126760, Note_off_c, 9, 42, 64
6, 127040, Note_on_c, 9, 42, 127
6, 127085, Note_off_c, 9, 42, 64
6, 127200, Note_on_c, 9, 42, 127
6, 127200, Note_on_c, 9, 40, 127
6, 127260, Note_off_c, 9, 42, 64
6, 127360, Note_off_c, 9, 36, 64
6, 127520, Note_on_c, 9, 36, 80
6, 127520, Note_on_c, 9, 42, 127
6, 127540, Note_off_c, 9, 40, 64
6, 127555, Note_off_c, 9, 42, 64
6, 127600, Note_off_c, 9, 36, 64
6, 127680, Note_on_c, 9, 36, 113
6, 127680, Note_on_c, 9, 42, 127
6, 127740, Note_off_c, 9, 42, 64
6, 128000, Note_on_c, 9, 42, 127
6, 128045, Note_off_c, 9, 42, 64
6, 128160, Note_on_c, 9, 40, 127
6, 128160, Note_on_c, 9, 42, 127
6, 128290, Note_off_c, 9, 42, 64
6, 128330, Note_off_c, 9, 36, 64
6, 128480, Note_on_c, 9, 46, 127
6, 128480, Note_on_c, 9, 36, 98
6, 128540, Note_off_c, 9, 36, 64
6, 128575, Note_off_c, 9, 40, 64
6, 128635, Note_off_c, 9, 46, 64
6, 128640, Note_on_c, 9, 36, 107
6, 128640, Note_on_c, 9, 42, 113
6, 128715, Note_off_c, 9, 42, 64
6, 128960, Note_on_c, 9, 42, 127
6, 129015, Note_off_c, 9, 42, 64
6, 129120, Note_on_c, 9, 40, 127
6, 129120, Note_on_c, 9, 42, 127
6, 129175, Note_off_c, 9, 42, 64
6, 129265, Note_off_c, 9, 36, 64
6, 129440, Note_on_c, 9, 42, 127
6, 129440, Note_on_c, 9, 36, 98
6, 129455, Note_off_c, 9, 40, 64
6, 129495, Note_off_c, 9, 42, 64
6, 129510, Note_off_c, 9, 36, 64
6, 129600, Note_on_c, 9, 36, 107
6, 129600, Note_on_c, 9, 42, 127
6, 129660, Note_off_c, 9, 42, 64
6, 129790, Note_off_c, 9, 36, 64
6, 129920, Note_on_c, 9, 42, 127
6, 129920, Note_on_c, 9, 36, 64
6, 129975, Note_off_c, 9, 42, 64
6, 130080, Note_on_c, 9, 40, 127
6, 130080, Note_on_c, 9, 42, 127
6, 130195, Note_off_c, 9, 42, 64
6, 130215, Note_off_c, 9, 36, 64
6, 130400, Note_on_c, 9, 36, 93
6, 130400, Note_on_c, 9, 46, 119
6, 130430, Note_off_c, 9, 40, 64
6, 130485, Note_off_c, 9, 36, 64
6, 130560, Note_off_c, 9, 46, 64
6, 130560, Note_on_c, 9, 42, 119
6, 130560, Note_on_c, 9, 36, 102
6, 130630, Note_off_c, 9, 42, 64
6, 130880, Note_on_c, 9, 42, 127
6, 130940, Note_off_c, 9, 42, 64
6, 131040, Note_on_c, 9, 40, 127
6, 131040, Note_on_c, 9, 42, 127
6, 131100, Note_off_c, 9, 42, 64
6, 131125, Note_off_c, 9, 36, 64
6, 131300, Note_off_c, 9, 40, 64
6, 131360, Note_on_c, 9, 36, 102
6, 131360, Note_on_c, 9, 42, 127
6, 131410, Note_off_c, 9, 42, 64
6, 131435, Note_off_c, 9, 36, 64
6, 131520, Note_on_c, 9, 42, 127
6, 131520, Note_on_c, 9, 36, 89
6, 131595, Note_off_c, 9, 42, 64
6, 131650, Note_off_c, 9, 36, 64
6, 131840, Note_on_c, 9, 36, 93
6, 131840, Note_on_c, 9, 42, 127
6, 131895, Note_off_c, 9, 42, 64
6, 131965, Note_off_c, 9, 36, 64
6, 132000, Note_on_c, 9, 40, 127
6, 132000, Note_on_c, 9, 42, 127
6, 132075, Note_off_c, 9, 42, 64
6, 132320, Note_on_c, 9, 36, 98
6, 132320, Note_on_c, 9, 42, 127
6, 132330, Note_off_c, 9, 40, 64
6, 132380, Note_off_c, 9, 42, 64
6, 132395, Note_off_c, 9, 36, 64
6, 132480, Note_on_c, 9, 42, 127
6, 132480, Note_on_c, 9, 36, 98
6, 132540, Note_off_c, 9, 42, 64
6, 132730, Note_off_c, 9, 36, 64
6, 132800, Note_on_c, 9, 42, 127
6, 132855, Note_off_c, 9, 42, 64
6, 132960, Note_on_c, 9, 40, 127
6, 132960, Note_on_c, 9, 42, 127
6, 133035, Note_off_c, 9, 42, 64
6, 133205, Note_off_c, 9, 40, 64
6, 133280, Note_on_c, 9, 36, 76
6, 133280, Note_on_c, 9, 42, 127
6, 133345, Note_off_c, 9, 42, 64
6, 133360, Note_off_c, 9, 36, 64
6, 133440, Note_on_c, 9, 42, 127
6, 133440, Note_on_c, 9, 36, 98
6, 133510, Note_off_c, 9, 42, 64
6, 133625, Note_off_c, 9, 36, 64
6, 133760, Note_on_c, 9, 42, 127
6, 133760, Note_on_c, 9, 36, 85
6, 133815, Note_off_c, 9, 42, 64
6, 133880, Note_off_c, 9, 36, 64
6, 133920, Note_on_c, 9, 40, 127
6, 133920, Note_on_c, 9, 42, 127
6, 134035, Note_off_c, 9, 42, 64
6, 134240, Note_off_c, 9, 40, 64
6, 134240, Note_on_c, 9, 36, 93
6, 134240, Note_on_c, 9, 46, 119
6, 134325, Note_off_c, 9, 36, 64
6, 134390, Note_off_c, 9, 46, 64
6, 134400, Note_on_c, 9, 36, 107
6, 134400, Note_on_c, 9, 49, 76
6, 134400, Note_on_c, 9, 42, 119
6, 134445, Note_off_c, 9, 49, 64
6, 134475, Note_off_c, 9, 42, 64
6, 134630, Note_off_c, 9, 36, 64
6, 134720, Note_on_c, 9, 42, 127
6, 134775, Note_off_c, 9, 42, 64
6, 134880, Note_on_c, 9, 40, 127
6, 134880, Note_on_c, 9, 42, 127
6, 134960, Note_off_c, 9, 42, 64
6, 135130, Note_off_c, 9, 40, 64
6, 135200, Note_on_c, 9, 42, 127
6, 135200, Note_on_c, 9, 36, 98
6, 135255, Note_off_c, 9, 42, 64
6, 135275, Note_off_c, 9, 36, 64
6, 135360, Note_on_c, 9, 42, 127
6, 135360, Note_on_c, 9, 36, 107
6, 135430, Note_off_c, 9, 42, 64
6, 135535, Note_off_c, 9, 36, 64
6, 135680, Note_on_c, 9, 42, 127
6, 135740, Note_off_c, 9, 42, 64
6, 135840, Note_on_c, 9, 40, 127
6, 135840, Note_on_c, 9, 42, 127
6, 135945, Note_off_c, 9, 42, 64
6, 136105, Note_off_c, 9, 40, 64
6, 136160, Note_on_c, 9, 36, 93
6, 136160, Note_on_c, 9, 46, 119
6, 136235, Note_off_c, 9, 36, 64
6, 136320, Note_off_c, 9, 46, 64
6, 136320, Note_on_c, 9, 36, 102
6, 136320, Note_on_c, 9, 42, 127
6, 136390, Note_off_c, 9, 42, 64
6, 136540, Note_off_c, 9, 36, 64
6, 136640, Note_on_c, 9, 42, 127
6, 136695, Note_off_c, 9, 42, 64
6, 136800, Note_on_c, 9, 40, 127
6, 136800, Note_on_c, 9, 42, 127
6, 136865, Note_off_c, 9, 42, 64
6, 137020, Note_off_c, 9, 40, 64
6, 137120, Note_on_c, 9, 36, 102
6, 137120, Note_on_c, 9, 42, 127
6, 137180, Note_off_c, 9, 42, 64
6, 137205, Note_off_c, 9, 36, 64
6, 137280, Note_on_c, 9, 36, 93
6, 137280, Note_on_c, 9, 42, 127
6, 137345, Note_off_c, 9, 42, 64
6, 137395, Note_off_c, 9, 36, 64
6, 137600, Note_on_c, 9, 42, 127
6, 137600, Note_on_c, 9, 36, 102
6, 137655, Note_off_c, 9, 42, 64
6, 137690, Note_off_c, 9, 36, 64
6, 137760, Note_on_c, 9, 42, 127
6, 137760, Note_on_c, 9, 40, 127
6, 137830, Note_off_c, 9, 42, 64
6, 138030, Note_off_c, 9, 40, 64
6, 138080, Note_on_c, 9, 36, 102
6, 138080, Note_on_c, 9, 42, 127
6, 138145, Note_off_c, 9, 42, 64
6, 138155, Note_off_c, 9, 36, 64
6, 138240, Note_on_c, 9, 42, 127
6, 138240, Note_on_c, 9, 36, 113
6, 138305, Note_off_c, 9, 42, 64
6, 138400, Note_off_c, 9, 36, 64
6, 138560, Note_on_c, 9, 42, 127
6, 138610, Note_off_c, 9, 42, 64
6, 138720, Note_on_c, 9, 42, 127
6, 138720, Note_on_c, 9, 40, 127
6, 138790, Note_off_c, 9, 42, 64
6, 139000, Note_off_c, 9, 40, 64
6, 139040, Note_on_c, 9, 36, 98
6, 139040, Note_on_c, 9, 42, 127
6, 139100, Note_off_c, 9, 42, 64
6, 139135, Note_off_c, 9, 36, 64
6, 139200, Note_on_c, 9, 36, 102
6, 139200, Note_on_c, 9, 42, 127
6, 139280, Note_off_c, 9, 42, 64
6, 139415, Note_off_c, 9, 36, 64
6, 139520, Note_on_c, 9, 42, 127
6, 139575, Note_off_c, 9, 42, 64
6, 139680, Note_on_c, 9, 40, 127
6, 139680, Note_on_c, 9, 42, 127
6, 139755, Note_off_c, 9, 42, 64
6, 139960, Note_off_c, 9, 40, 64
6, 140000, Note_on_c, 9, 42, 127
6, 140000, Note_on_c, 9, 36, 98
6, 140065, Note_off_c, 9, 42, 64
6, 140085, Note_off_c, 9, 36, 64
6, 140160, Note_on_c, 9, 36, 102
6, 140160, Note_on_c, 9, 42, 127
6, 140230, Note_off_c, 9, 42, 64
6, 140480, Note_on_c, 9, 42, 127
6, 140540, Note_off_c, 9, 42, 64
6, 140640, Note_on_c, 9, 40, 127
6, 140640, Note_on_c, 9, 42, 127
6, 140680, Note_off_c, 9, 36, 64
6, 140725, Note_off_c, 9, 42, 64
6, 140960, Note_on_c, 9, 42, 127
6, 140960, Note_on_c, 9, 36, 85
6, 141005, Note_off_c, 9, 36, 64
6, 141020, Note_off_c, 9, 42, 64
6, 141105, Note_off_c, 9, 40, 64
6, 141120, Note_on_c, 9, 42, 127
6, 141120, Note_on_c, 9, 36, 93
6, 141200, Note_off_c, 9, 42, 64
6, 141280, Note_on_c, 9, 40, 127
6, 141315, Note_off_c, 9, 36, 64
6, 141425, Note_off_c, 9, 40, 64
6, 141440, Note_on_c, 9, 42, 127
6, 141440, Note_on_c, 9, 36, 76
6, 141500, Note_off_c, 9, 42, 64
6, 141600, Note_on_c, 9, 42, 127
6, 141600, Note_on_c, 9, 40, 127
6, 141610, Note_off_c, 9, 36, 64
6, 141710, Note_off_c, 9, 42, 64
6, 141760, Note_on_c, 9, 36, 107
6, 141830, Note_off_c, 9, 40, 64
6, 141860, Note_off_c, 9, 36, 64
6, 141920, Note_on_c, 9, 36, 107
6, 141920, Note_on_c, 9, 46, 127
6, 142010, Note_off_c, 9, 36, 64
6, 142050, Note_off_c, 9, 46, 64
6, 142080, Note_on_c, 9, 36, 107
6, 142080, Note_on_c, 9, 57, 107
6, 142080, Note_on_c, 9, 51, 127
6, 142080, Note_on_c, 9, 36, 76
6, 142081, Note_off_c, 9, 36, 64
6, 142105, Note_off_c, 9, 57, 64
6, 142150, Note_off_c, 9, 51, 64
6, 142400, Note_on_c, 9, 51, 85
6, 142420, Note_off_c, 9, 51, 64
6, 142560, Note_on_c, 9, 40, 127
6, 142560, Note_on_c, 9, 51, 127
6, 142670, Note_off_c, 9, 51, 64
6, 142720, Note_off_c, 9, 36, 64
6, 142880, Note_off_c, 9, 40, 64
6, 142880, Note_on_c, 9, 51, 107
6, 142880, Note_on_c, 9, 36, 93
6, 142925, Note_off_c, 9, 51, 64
6, 142945, Note_off_c, 9, 36, 64
6, 143040, Note_on_c, 9, 51, 127
6, 143040, Note_on_c, 9, 36, 93
6, 143100, Note_off_c, 9, 51, 64
6, 143360, Note_on_c, 9, 51, 98
6, 143395, Note_off_c, 9, 51, 64
6, 143520, Note_on_c, 9, 51, 127
6, 143520, Note_on_c, 9, 40, 127
6, 143595, Note_off_c, 9, 51, 64
6, 143670, Note_off_c, 9, 36, 64
6, 143825, Note_off_c, 9, 40, 64
6, 143840, Note_on_c, 9, 51, 113
6, 143840, Note_on_c, 9, 36, 72
6, 143885, Note_off_c, 9, 51, 64
6, 143905, Note_off_c, 9, 36, 64
6, 144000, Note_on_c, 9, 36, 107
6, 144000, Note_on_c, 9, 51, 127
6, 144070, Note_off_c, 9, 51, 64
6, 144320, Note_on_c, 9, 51, 85
6, 144355, Note_off_c, 9, 51, 64
6, 144480, Note_on_c, 9, 51, 127
6, 144480, Note_on_c, 9, 40, 127
6, 144555, Note_off_c, 9, 51, 64
6, 144640, Note_off_c, 9, 36, 64
6, 144800, Note_on_c, 9, 36, 85
6, 144800, Note_on_c, 9, 51, 107
6, 144815, Note_off_c, 9, 40, 64
6, 144840, Note_off_c, 9, 51, 64
6, 144865, Note_off_c, 9, 36, 64
6, 144960, Note_on_c, 9, 36, 85
6, 144960, Note_on_c, 9, 51, 107
6, 145015, Note_off_c, 9, 51, 64
6, 145280, Note_on_c, 9, 51, 107
6, 145325, Note_off_c, 9, 51, 64
6, 145440, Note_on_c, 9, 51, 127
6, 145440, Note_on_c, 9, 40, 127
6, 145515, Note_off_c, 9, 51, 64
6, 145595, Note_off_c, 9, 36, 64
6, 145640, Note_off_c, 9, 40, 64
6, 145760, Note_on_c, 9, 51, 127
6, 145760, Note_on_c, 9, 36, 93
6, 145795, Note_off_c, 9, 51, 64
6, 145800, Note_off_c, 9, 36, 64
6, 145920, Note_on_c, 9, 51, 127
6, 145920, Note_on_c, 9, 36, 107
6, 145960, Note_off_c, 9, 51, 64
6, 146240, Note_on_c, 9, 51, 68
6, 146265, Note_off_c, 9, 51, 64
6, 146400, Note_on_c, 9, 51, 127
6, 146400, Note_on_c, 9, 40, 127
6, 146525, Note_off_c, 9, 51, 64
6, 146570, Note_off_c, 9, 36, 64
6, 146720, Note_on_c, 9, 36, 50
6, 146720, Note_on_c, 9, 51, 102
6, 146770, Note_off_c, 9, 51, 64
6, 146770, Note_off_c, 9, 36, 64
6, 146775, Note_off_c, 9, 40, 64
6, 146880, Note_on_c, 9, 36, 85
6, 146880, Note_on_c, 9, 51, 113
6, 146975, Note_off_c, 9, 51, 64
6, 147200, Note_on_c, 9, 51, 93
6, 147235, Note_off_c, 9, 51, 64
6, 147360, Note_on_c, 9, 40, 127
6, 147360, Note_on_c, 9, 51, 127
6, 147480, Note_off_c, 9, 51, 64
6, 147570, Note_off_c, 9, 36, 64
6, 147660, Note_off_c, 9, 40, 64
6, 147680, Note_on_c, 9, 36, 72
6, 147680, Note_on_c, 9, 51, 107
6, 147735, Note_off_c, 9, 51, 64
6, 147760, Note_off_c, 9, 36, 64
6, 147840, Note_on_c, 9, 36, 80
6, 147840, Note_on_c, 9, 51, 113
6, 147935, Note_off_c, 9, 51, 64
6, 148160, Note_on_c, 9, 51, 68
6, 148185, Note_off_c, 9, 51, 64
6, 148320, Note_on_c, 9, 51, 127
6, 148320, Note_on_c, 9, 40, 127
6, 148460, Note_off_c, 9, 51, 64
6, 148540, Note_off_c, 9, 36, 64
6, 148615, Note_off_c, 9, 40, 64
6, 148640, Note_on_c, 9, 51, 98
6, 148640, Note_on_c, 9, 36, 72
6, 148685, Note_off_c, 9, 51, 64
6, 148695, Note_off_c, 9, 36, 64
6, 148800, Note_on_c, 9, 36, 98
6, 148800, Note_on_c, 9, 51, 113
6, 148890, Note_off_c, 9, 51, 64
6, 149120, Note_on_c, 9, 51, 89
6, 149155, Note_off_c, 9, 51, 64
6, 149280, Note_on_c, 9, 40, 127
6, 149280, Note_on_c, 9, 51, 127
6, 149400, Note_off_c, 9, 51, 64
6, 149450, Note_off_c, 9, 36, 64
6, 149590, Note_off_c, 9, 40, 64
6, 149600, Note_on_c, 9, 51, 102
6, 149600, Note_on_c, 9, 36, 76
6, 149645, Note_off_c, 9, 51, 64
6, 149665, Note_off_c, 9, 36, 64
6, 149760, Note_on_c, 9, 36, 76
6, 149760, Note_on_c, 9, 51, 127
6, 149830, Note_off_c, 9, 51, 64
6, 150080, Note_on_c, 9, 51, 85
6, 150100, Note_off_c, 9, 51, 64
6, 150240, Note_on_c, 9, 40, 127
6, 150240, Note_on_c, 9, 51, 127
6, 150240, Note_on_c, 9, 49, 107
6, 150300, Note_off_c, 9, 49, 64
6, 150350, Note_off_c, 9, 51, 64
6, 150400, Note_off_c, 9, 36, 64
6, 150560, Note_off_c, 9, 40, 64
6, 150560, Note_on_c, 9, 51, 107
6, 150560, Note_on_c, 9, 36, 93
6, 150605, Note_off_c, 9, 51, 64
6, 150625, Note_off_c, 9, 36, 64
6, 150720, Note_on_c, 9, 36, 93
6, 150720, Note_on_c, 9, 51, 127
6, 150780, Note_off_c, 9, 51, 64
6, 151040, Note_on_c, 9, 51, 98
6, 151075, Note_off_c, 9, 51, 64
6, 151200, Note_on_c, 9, 40, 127
6, 151200, Note_on_c, 9, 51, 127
6, 151275, Note_off_c, 9, 51, 64
6, 151350, Note_off_c, 9, 36, 64
6, 151505, Note_off_c, 9, 40, 64
6, 151520, Note_on_c, 9, 51, 113
6, 151520, Note_on_c, 9, 36, 72
6, 151565, Note_off_c, 9, 51, 64
6, 151585, Note_off_c, 9, 36, 64
6, 151680, Note_on_c, 9, 36, 107
6, 151680, Note_on_c, 9, 51, 127
6, 151750, Note_off_c, 9, 51, 64
6, 152000, Note_on_c, 9, 51, 85
6, 152035, Note_off_c, 9, 51, 64
6, 152160, Note_on_c, 9, 40, 127
6, 152160, Note_on_c, 9, 51, 127
6, 152235, Note_off_c, 9, 51, 64
6, 152320, Note_off_c, 9, 36, 64
6, 152480, Note_on_c, 9, 36, 85
6, 152480, Note_on_c, 9, 51, 107
6, 152495, Note_off_c, 9, 40, 64
6, 152520, Note_off_c, 9, 51, 64
6, 152545, Note_off_c, 9, 36, 64
6, 152640, Note_on_c, 9, 36, 85
6, 152640, Note_on_c, 9, 51, 107
6, 152695, Note_off_c, 9, 51, 64
6, 152960, Note_on_c, 9, 51, 107
6, 153005, Note_off_c, 9, 51, 64
6, 153120, Note_on_c, 9, 51, 127
6, 153120, Note_on_c, 9, 40, 127
6, 153195, Note_off_c, 9, 51, 64
6, 153275, Note_off_c, 9, 36, 64
6, 153320, Note_off_c, 9, 40, 64
6, 153440, Note_on_c, 9, 51, 127
6, 153440, Note_on_c, 9, 36, 93
6, 153475, Note_off_c, 9, 51, 64
6, 153480, Note_off_c, 9, 36, 64
6, 153600, Note_on_c, 9, 51, 127
6, 153600, Note_on_c, 9, 36, 107
6, 153600, Note_on_c, 9, 57, 93
6, 153640, Note_off_c, 9, 51, 64
6, 153655, Note_off_c, 9, 57, 64
6, 153920, Note_on_c, 9, 51, 68
6, 153945, Note_off_c, 9, 51, 64
6, 154080, Note_on_c, 9, 51, 127
6, 154080, Note_on_c, 9, 40, 127
6, 154205, Note_off_c, 9, 51, 64
6, 154250, Note_off_c, 9, 36, 64
6, 154400, Note_on_c, 9, 36, 50
6, 154400, Note_on_c, 9, 51, 102
6, 154450, Note_off_c, 9, 51, 64
6, 154450, Note_off_c, 9, 36, 64
6, 154455, Note_off_c, 9, 40, 64
6, 154560, Note_on_c, 9, 36, 85
6, 154560, Note_on_c, 9, 51, 113
6, 154655, Note_off_c, 9, 51, 64
6, 154880, Note_on_c, 9, 51, 93
6, 154915, Note_off_c, 9, 51, 64
6, 155040, Note_on_c, 9, 51, 127
6, 155040, Note_on_c, 9, 40, 127
6, 155160, Note_off_c, 9, 51, 64
6, 155250, Note_off_c, 9, 36, 64
6, 155340, Note_off_c, 9, 40, 64
6, 155360, Note_on_c, 9, 51, 107
6, 155360, Note_on_c, 9, 36, 72
6, 155415, Note_off_c, 9, 51, 64
6, 155440, Note_off_c, 9, 36, 64
6, 155520, Note_on_c, 9, 36, 80
6, 155520, Note_on_c, 9, 51, 113
6, 155615, Note_off_c, 9, 51, 64
6, 155840, Note_on_c, 9, 51, 68
6, 155865, Note_off_c, 9, 51, 64
6, 156000, Note_on_c, 9, 40, 127
6, 156000, Note_on_c, 9, 51, 127
6, 156140, Note_off_c, 9, 51, 64
6, 156220, Note_off_c, 9, 36, 64
6, 156295, Note_off_c, 9, 40, 64
6, 156320, Note_on_c, 9, 36, 72
6, 156320, Note_on_c, 9, 51, 98
6, 156365, Note_off_c, 9, 51, 64
6, 156375, Note_off_c, 9, 36, 64
6, 156480, Note_on_c, 9, 36, 98
6, 156480, Note_on_c, 9, 51, 113
6, 156570, Note_off_c, 9, 51, 64
6, 156800, Note_on_c, 9, 40, 76
6, 156800, Note_on_c, 9, 51, 89
6, 156835, Note_off_c, 9, 51, 64
6, 156850, Note_off_c, 9, 40, 64
6, 156960, Note_on_c, 9, 51, 127
6, 156960, Note_on_c, 9, 40, 107
6, 157020, Note_off_c, 9, 40, 64
6, 157080, Note_off_c, 9, 51, 64
6, 157120, Note_on_c, 9, 40, 119
6, 157130, Note_off_c, 9, 36, 64
6, 157185, Note_off_c, 9, 40, 64
6, 157280, Note_on_c, 9, 36, 76
6, 157280, Note_on_c, 9, 40, 127
6, 157280, Note_on_c, 9, 51, 102
6, 157325, Note_off_c, 9, 51, 64
6, 157345, Note_off_c, 9, 36, 64
6, 157380, Note_off_c, 9, 40, 64
6, 157440, Note_on_c, 9, 36, 76
6, 157440, Note_on_c, 9, 49, 107
6, 157440, Note_on_c, 9, 51, 127
6, 157475, Note_off_c, 9, 49, 64
6, 157510, Note_off_c, 9, 51, 64
6, 157760, Note_on_c, 9, 51, 85
6, 157780, Note_off_c, 9, 51, 64
6, 157920, Note_on_c, 9, 51, 127
6, 157920, Note_on_c, 9, 40, 127
6, 158030, Note_off_c, 9, 51, 64
6, 158080, Note_off_c, 9, 36, 64
6, 158240, Note_off_c, 9, 40, 64
6, 158240, Note_on_c, 9, 36, 93
6, 158240, Note_on_c, 9, 51, 107
6, 158285, Note_off_c, 9, 51, 64
6, 158305, Note_off_c, 9, 36, 64
6, 158400, Note_on_c, 9, 51, 127
6, 158400, Note_on_c, 9, 36, 93
6, 158460, Note_off_c, 9, 51, 64
6, 158720, Note_on_c, 9, 51, 98
6, 158755, Note_off_c, 9, 51, 64
6, 158880, Note_on_c, 9, 40, 127
6, 158880, Note_on_c, 9, 51, 127
6, 158955, Note_off_c, 9, 51, 64
6, 159030, Note_off_c, 9, 36, 64
6, 159185, Note_off_c, 9, 40, 64
6, 159200, Note_on_c, 9, 51, 113
6, 159200, Note_on_c, 9, 36, 72
6, 159245, Note_off_c, 9, 51, 64
6, 159265, Note_off_c, 9, 36, 64
6, 159360, Note_on_c, 9, 51, 127
6, 159360, Note_on_c, 9, 36, 107
6, 159430, Note_off_c, 9, 51, 64
6, 159680, Note_on_c, 9, 51, 85
6, 159715, Note_off_c, 9, 51, 64
6, 159840, Note_on_c, 9, 51, 127
6, 159840, Note_on_c, 9, 40, 127
6, 159915, Note_off_c, 9, 51, 64
6, 160000, Note_off_c, 9, 36, 64
6, 160160, Note_on_c, 9, 36, 85
6, 160160, Note_on_c, 9, 51, 107
6, 160175, Note_off_c, 9, 40, 64
6, 160200, Note_off_c, 9, 51, 64
6, 160225, Note_off_c, 9, 36, 64
6, 160320, Note_on_c, 9, 51, 107
6, 160320, Note_on_c, 9, 36, 85
6, 160375, Note_off_c, 9, 51, 64
6, 160640, Note_on_c, 9, 51, 107
6, 160685, Note_off_c, 9, 51, 64
6, 160800, Note_on_c, 9, 40, 127
6, 160800, Note_on_c, 9, 51, 127
6, 160875, Note_off_c, 9, 51, 64
6, 160955, Note_off_c, 9, 36, 64
6, 161000, Note_off_c, 9, 40, 64
6, 161120, Note_on_c, 9, 36, 93
6, 161120, Note_on_c, 9, 51, 127
6, 161155, Note_off_c, 9, 51, 64
6, 161160, Note_off_c, 9, 36, 64
6, 161280, Note_on_c, 9, 51, 127
6, 161280, Note_on_c, 9, 57, 98
6, 161280, Note_on_c, 9, 36, 107
6, 161320, Note_off_c, 9, 57, 64
6, 161320, Note_off_c, 9, 51, 64
6, 161600, Note_on_c, 9, 51, 68
6, 161625, Note_off_c, 9, 51, 64
6, 161760, Note_on_c, 9, 51, 127
6, 161760, Note_on_c, 9, 40, 127
6, 161885, Note_off_c, 9, 51, 64
6, 161930, Note_off_c, 9, 36, 64
6, 162080, Note_on_c, 9, 36, 50
6, 162080, Note_on_c, 9, 51, 102
6, 162130, Note_off_c, 9, 51, 64
6, 162130, Note_off_c, 9, 36, 64
6, 162135, Note_off_c, 9, 40, 64
6, 162240, Note_on_c, 9, 36, 85
6, 162240, Note_on_c, 9, 51, 113
6, 162335, Note_off_c, 9, 51, 64
6, 162560, Note_on_c, 9, 51, 93
6, 162595, Note_off_c, 9, 51, 64
6, 162720, Note_on_c, 9, 40, 127
6, 162720, Note_on_c, 9, 51, 127
6, 162840, Note_off_c, 9, 51, 64
6, 162930, Note_off_c, 9, 36, 64
6, 163020, Note_off_c, 9, 40, 64
6, 163040, Note_on_c, 9, 36, 72
6, 163040, Note_on_c, 9, 51, 107
6, 163095, Note_off_c, 9, 51, 64
6, 163120, Note_off_c, 9, 36, 64
6, 163200, Note_on_c, 9, 51, 113
6, 163200, Note_on_c, 9, 36, 80
6, 163295, Note_off_c, 9, 51, 64
6, 163520, Note_on_c, 9, 51, 68
6, 163545, Note_off_c, 9, 51, 64
6, 163680, Note_on_c, 9, 49, 113
6, 163680, Note_on_c, 9, 40, 127
6, 163680, Note_on_c, 9, 51, 127
6, 163740, Note_off_c, 9, 49, 64
6, 163820, Note_off_c, 9, 51, 64
6, 163900, Note_off_c, 9, 36, 64
6, 163975, Note_off_c, 9, 40, 64
6, 164000, Note_on_c, 9, 51, 98
6, 164000, Note_on_c, 9, 36, 72
6, 164045, Note_off_c, 9, 51, 64
6, 164055, Note_off_c, 9, 36, 64
6, 164160, Note_on_c, 9, 36, 98
6, 164160, Note_on_c, 9, 51, 113
6, 164250, Note_off_c, 9, 51, 64
6, 164480, Note_on_c, 9, 51, 89
6, 164515, Note_off_c, 9, 51, 64
6, 164640, Note_on_c, 9, 51, 127
6, 164640, Note_on_c, 9, 57, 107
6, 164640, Note_on_c, 9, 40, 127
6, 164700, Note_off_c, 9, 57, 64
6, 164760, Note_off_c, 9, 51, 64
6, 164810, Note_off_c, 9, 36, 64
6, 164950, Note_off_c, 9, 40, 64
6, 164960, Note_on_c, 9, 36, 76
6, 164960, Note_on_c, 9, 51, 102
6, 165005, Note_off_c, 9, 51, 64
6, 165025, Note_off_c, 9, 36, 64
6, 165120, Note_on_c, 9, 36, 76
6, 165120, Note_on_c, 9, 51, 127
6, 165190, Note_off_c, 9, 51, 64
6, 165440, Note_on_c, 9, 51, 85
6, 165460, Note_off_c, 9, 51, 64
6, 165600, Note_on_c, 9, 49, 113
6, 165600, Note_on_c, 9, 51, 127
6, 165600, Note_on_c, 9, 40, 127
6, 165650, Note_off_c, 9, 49, 64
6, 165710, Note_off_c, 9, 51, 64
6, 165760, Note_off_c, 9, 36, 64
6, 165920, Note_off_c, 9, 40, 64
6, 165920, Note_on_c, 9, 51, 107
6, 165920, Note_on_c, 9, 36, 93
6, 165965, Note_off_c, 9, 51, 64
6, 165985, Note_off_c, 9, 36, 64
6, 166080, Note_on_c, 9, 51, 127
6, 166080, Note_on_c, 9, 36, 93
6, 166140, Note_off_c, 9, 51, 64
6, 166400, Note_on_c, 9, 51, 98
6, 166435, Note_off_c, 9, 51, 64
6, 166560, Note_on_c, 9, 40, 127
6, 166560, Note_on_c, 9, 51, 127
6, 166635, Note_off_c, 9, 51, 64
6, 166710, Note_off_c, 9, 36, 64
6, 166865, Note_off_c, 9, 40, 64
6, 166880, Note_on_c, 9, 36, 72
6, 166880, Note_on_c, 9, 51, 113
6, 166925, Note_off_c, 9, 51, 64
6, 166945, Note_off_c, 9, 36, 64
6, 167040, Note_on_c, 9, 36, 107
6, 167040, Note_on_c, 9, 51, 127
6, 167110, Note_off_c, 9, 51, 64
6, 167360, Note_on_c, 9, 51, 85
6, 167395, Note_off_c, 9, 51, 64
6, 167520, Note_on_c, 9, 57, 107
6, 167520, Note_on_c, 9, 40, 127
6, 167520, Note_on_c, 9, 51, 127
6, 167560, Note_off_c, 9, 57, 64
6, 167595, Note_off_c, 9, 51, 64
6, 167680, Note_off_c, 9, 36, 64
6, 167840, Note_on_c, 9, 51, 107
6, 167840, Note_on_c, 9, 36, 85
6, 167855, Note_off_c, 9, 40, 64
6, 167880, Note_off_c, 9, 51, 64
6, 167905, Note_off_c, 9, 36, 64
6, 168000, Note_on_c, 9, 36, 85
6, 168000, Note_on_c, 9, 51, 107
6, 168055, Note_off_c, 9, 51, 64
6, 168320, Note_on_c, 9, 51, 107
6, 168365, Note_off_c, 9, 51, 64
6, 168480, Note_on_c, 9, 40, 127
6, 168480, Note_on_c, 9, 51, 127
6, 168555, Note_off_c, 9, 51, 64
6, 168635, Note_off_c, 9, 36, 64
6, 168680, Note_off_c, 9, 40, 64
6, 168800, Note_on_c, 9, 36, 93
6, 168800, Note_on_c, 9, 51, 127
6, 168835, Note_off_c, 9, 51, 64
6, 168840, Note_off_c, 9, 36, 64
6, 168960, Note_on_c, 9, 36, 107
6, 168960, Note_on_c, 9, 51, 127
6, 168960, Note_on_c, 9, 49, 102
6, 169000, Note_off_c, 9, 51, 64
6, 169010, Note_off_c, 9, 49, 64
6, 169280, Note_on_c, 9, 51, 68
6, 169305, Note_off_c, 9, 51, 64
6, 169440, Note_on_c, 9, 40, 127
6, 169440, Note_on_c, 9, 51, 127
6, 169565, Note_off_c, 9, 51, 64
6, 169610, Note_off_c, 9, 36, 64
6, 169760, Note_on_c, 9, 51, 102
6, 169760, Note_on_c, 9, 36, 50
6, 169810, Note_off_c, 9, 36, 64
6, 169810, Note_off_c, 9, 51, 64
6, 169815, Note_off_c, 9, 40, 64
6, 169920, Note_on_c, 9, 51, 113
6, 169920, Note_on_c, 9, 36, 85
6, 170015, Note_off_c, 9, 51, 64
6, 170240, Note_on_c, 9, 51, 93
6, 170275, Note_off_c, 9, 51, 64
6, 170400, Note_on_c, 9, 51, 127
6, 170400, Note_on_c, 9, 40, 127
6, 170520, Note_off_c, 9, 51, 64
6, 170610, Note_off_c, 9, 36, 64
6, 170700, Note_off_c, 9, 40, 64
6, 170720, Note_on_c, 9, 36, 72
6, 170720, Note_on_c, 9, 51, 107
6, 170775, Note_off_c, 9, 51, 64
6, 170800, Note_off_c, 9, 36, 64
6, 170880, Note_on_c, 9, 36, 107
6, 170880, Note_on_c, 9, 46, 113
6, 170920, Note_off_c, 9, 46, 64
6, 171010, Note_off_c, 9, 36, 64
6, 171200, Note_on_c, 9, 36, 72
6, 171240, Note_off_c, 9, 36, 64
6, 171360, Note_on_c, 9, 40, 127
6, 171360, Note_on_c, 9, 36, 107
6, 171360, Note_on_c, 9, 57, 113
6, 171475, Note_off_c, 9, 57, 64
6, 171520, Note_off_c, 9, 40, 64
6, 171525, Note_off_c, 9, 36, 64
6, 171680, Note_on_c, 9, 36, 119
6, 171680, Note_on_c, 9, 49, 127
6, 171680, Note_on_c, 9, 40, 127
6, 171735, Note_off_c, 9, 49, 64
6, 172080, Note_off_c, 9, 40, 64
6, 172085, Note_off_c, 9, 36, 64
6, 174720, Note_on_c, 9, 40, 127
6, 174720, Note_on_c, 9, 36, 127
6, 174890, Note_off_c, 9, 40, 64
6, 174900, Note_off_c, 9, 36, 64
6, 174900, End_track
7, 0, Start_track
7, 0, Title_t, "tk11"
7, 0, MIDI_port, 0
7, 0, Channel_prefix, 10
7, 0, Control_c, 10, 7, 80
7, 0, Control_c, 10, 10, 70
7, 480, Control_c, 10, 120, 0
7, 480, Control_c, 10, 121, 0
7, 550, Program_c, 10, 29
7, 550, Control_c, 10, 11, 127
7, 550, Control_c, 10, 93, 97
7, 565, Control_c, 10, 91, 96
7, 700, Control_c, 10, 7, 80
7, 700, Control_c, 10, 10, 70
7, 3360, Note_on_c, 10, 64, 127
7, 3520, Note_off_c, 10, 64, 64
7, 3520, Note_on_c, 10, 66, 107
7, 3680, Note_off_c, 10, 66, 64
7, 3680, Note_on_c, 10, 69, 107
7, 3840, Note_off_c, 10, 69, 64
7, 3840, Note_on_c, 10, 71, 127
7, 3945, Pitch_bend_c, 10, 8263
7, 3965, Pitch_bend_c, 10, 8623
7, 3975, Pitch_bend_c, 10, 8839
7, 3985, Pitch_bend_c, 10, 9127
7, 4000, Pitch_bend_c, 10, 9414
7, 4005, Pitch_bend_c, 10, 9702
7, 4025, Pitch_bend_c, 10, 9990
7, 4035, Pitch_bend_c, 10, 10349
7, 4060, Pitch_bend_c, 10, 10781
7, 4070, Pitch_bend_c, 10, 10997
7, 4085, Pitch_bend_c, 10, 11213
7, 4095, Pitch_bend_c, 10, 11428
7, 4110, Pitch_bend_c, 10, 11788
7, 4120, Pitch_bend_c, 10, 12076
7, 4135, Pitch_bend_c, 10, 12363
7, 4135, Control_c, 10, 1, 1
7, 4145, Pitch_bend_c, 10, 12579
7, 4160, Control_c, 10, 1, 6
7, 4170, Pitch_bend_c, 10, 12795
7, 4185, Control_c, 10, 1, 11
7, 4195, Pitch_bend_c, 10, 13011
7, 4195, Control_c, 10, 1, 16
7, 4230, Pitch_bend_c, 10, 13227
7, 4270, Pitch_bend_c, 10, 13442
7, 4280, Pitch_bend_c, 10, 13658
7, 4280, Control_c, 10, 1, 21
7, 4305, Pitch_bend_c, 10, 14018
7, 4305, Control_c, 10, 1, 26
7, 4320, Control_c, 10, 1, 31
7, 4330, Pitch_bend_c, 10, 14305
7, 4340, Pitch_bend_c, 10, 14521
7, 4345, Control_c, 10, 1, 36
7, 4350, Pitch_bend_c, 10, 14737
7, 4365, Pitch_bend_c, 10, 15025
7, 4365, Control_c, 10, 1, 42
7, 4375, Pitch_bend_c, 10, 15241
7, 4385, Pitch_bend_c, 10, 15600
7, 4390, Control_c, 10, 1, 48
7, 4400, Pitch_bend_c, 10, 15816
7, 4415, Pitch_bend_c, 10, 16104
7, 4415, Control_c, 10, 1, 54
7, 4425, Pitch_bend_c, 10, 16320
7, 4435, Control_c, 10, 1, 61
7, 4450, Pitch_bend_c, 10, 16383
7, 4465, Control_c, 10, 1, 69
7, 4515, Control_c, 10, 1, 74
7, 4560, Control_c, 10, 1, 79
7, 4670, Control_c, 10, 1, 84
7, 5060, Control_c, 10, 1, 74
7, 5075, Control_c, 10, 1, 66
7, 5085, Pitch_bend_c, 10, 15816
7, 5085, Control_c, 10, 1, 56
7, 5100, Pitch_bend_c, 10, 15097
7, 5100, Control_c, 10, 1, 39
7, 5110, Pitch_bend_c, 10, 12795
7, 5110, Control_c, 10, 1, 24
7, 5120, Pitch_bend_c, 10, 9918
7, 5125, Control_c, 10, 1, 2
7, 5135, Pitch_bend_c, 10, 8192
7, 5135, Control_c, 10, 1, 0
7, 5200, Note_off_c, 10, 71, 64
7, 5200, Note_on_c, 10, 64, 107
7, 5275, Note_off_c, 10, 64, 64
7, 5280, Note_on_c, 10, 64, 93
7, 5440, Note_on_c, 10, 66, 107
7, 5520, Note_off_c, 10, 64, 64
7, 5600, Note_off_c, 10, 66, 64
7, 5600, Note_on_c, 10, 69, 107
7, 5760, Note_off_c, 10, 69, 64
7, 5760, Note_on_c, 10, 71, 107
7, 5890, Control_c, 10, 1, 7
7, 5905, Control_c, 10, 1, 16
7, 5915, Control_c, 10, 1, 21
7, 5940, Control_c, 10, 1, 27
7, 5965, Control_c, 10, 1, 32
7, 5990, Control_c, 10, 1, 37
7, 6015, Control_c, 10, 1, 46
7, 6025, Control_c, 10, 1, 54
7, 6040, Control_c, 10, 1, 59
7, 6050, Control_c, 10, 1, 66
7, 6065, Control_c, 10, 1, 73
7, 6090, Control_c, 10, 1, 78
7, 6185, Control_c, 10, 1, 83
7, 6240, Note_off_c, 10, 71, 64
7, 6240, Note_on_c, 10, 71, 107
7, 6245, Control_c, 10, 1, 78
7, 6260, Control_c, 10, 1, 73
7, 6270, Control_c, 10, 1, 68
7, 6280, Control_c, 10, 1, 58
7, 6295, Control_c, 10, 1, 41
7, 6305, Control_c, 10, 1, 26
7, 6320, Control_c, 10, 1, 6
7, 6330, Control_c, 10, 1, 0
7, 6560, Note_off_c, 10, 71, 64
7, 6560, Note_on_c, 10, 69, 89
7, 6720, Note_off_c, 10, 69, 64
7, 6720, Note_on_c, 10, 71, 107
7, 6845, Pitch_bend_c, 10, 8263
7, 6855, Pitch_bend_c, 10, 8479
7, 6865, Pitch_bend_c, 10, 8767
7, 6875, Pitch_bend_c, 10, 9199
7, 6885, Pitch_bend_c, 10, 9486
7, 6900, Pitch_bend_c, 10, 9846
7, 6910, Pitch_bend_c, 10, 10134
7, 6925, Pitch_bend_c, 10, 10421
7, 6930, Control_c, 10, 1, 1
7, 6940, Pitch_bend_c, 10, 10781
7, 6950, Pitch_bend_c, 10, 11141
7, 6955, Control_c, 10, 1, 6
7, 6965, Pitch_bend_c, 10, 11500
7, 6975, Pitch_bend_c, 10, 11932
7, 6975, Control_c, 10, 1, 11
7, 6990, Pitch_bend_c, 10, 12148
7, 7000, Pitch_bend_c, 10, 12507
7, 7000, Control_c, 10, 1, 17
7, 7015, Pitch_bend_c, 10, 13083
7, 7025, Pitch_bend_c, 10, 13658
7, 7025, Control_c, 10, 1, 26
7, 7035, Pitch_bend_c, 10, 14305
7, 7050, Pitch_bend_c, 10, 15241
7, 7050, Control_c, 10, 1, 32
7, 7060, Pitch_bend_c, 10, 16176
7, 7075, Pitch_bend_c, 10, 16383
7, 7075, Control_c, 10, 1, 41
7, 7120, Note_off_c, 10, 71, 64
7, 7145, Pitch_bend_c, 10, 16248
7, 7160, Pitch_bend_c, 10, 14090
7, 7160, Control_c, 10, 1, 34
7, 7170, Pitch_bend_c, 10, 12004
7, 7175, Control_c, 10, 1, 21
7, 7185, Pitch_bend_c, 10, 9774
7, 7185, Control_c, 10, 1, 6
7, 7195, Pitch_bend_c, 10, 8192
7, 7200, Control_c, 10, 1, 0
7, 7520, Note_on_c, 10, 64, 76
7, 7595, Note_off_c, 10, 64, 64
7, 7680, Note_on_c, 10, 74, 107
7, 7705, Pitch_bend_c, 10, 8263
7, 7715, Pitch_bend_c, 10, 8695
7, 7730, Pitch_bend_c, 10, 9127
7, 7745, Pitch_bend_c, 10, 9486
7, 7755, Pitch_bend_c, 10, 9846
7, 7770, Pitch_bend_c, 10, 10493
7, 7780, Pitch_bend_c, 10, 11141
7, 7790, Pitch_bend_c, 10, 11716
7, 7800, Pitch_bend_c, 10, 12076
7, 7820, Pitch_bend_c, 10, 12363
7, 7830, Pitch_bend_c, 10, 12579
7, 7845, Pitch_bend_c, 10, 12867
7, 7855, Pitch_bend_c, 10, 13370
7, 7865, Pitch_bend_c, 10, 14090
7, 7880, Pitch_bend_c, 10, 14737
7, 7880, Control_c, 10, 1, 4
7, 7890, Pitch_bend_c, 10, 15169
7, 7905, Pitch_bend_c, 10, 15528
7, 7905, Control_c, 10, 1, 11
7, 7915, Pitch_bend_c, 10, 15744
7, 7930, Control_c, 10, 1, 16
7, 7940, Pitch_bend_c, 10, 16032
7, 7965, Pitch_bend_c, 10, 16320
7, 7990, Pitch_bend_c, 10, 16383
7, 8015, Control_c, 10, 1, 21
7, 8050, Control_c, 10, 1, 26
7, 8080, Note_off_c, 10, 74, 64
7, 8130, Pitch_bend_c, 10, 16176
7, 8145, Pitch_bend_c, 10, 14377
7, 8150, Control_c, 10, 1, 21
7, 8155, Pitch_bend_c, 10, 12651
7, 8160, Control_c, 10, 1, 14
7, 8160, Note_on_c, 10, 72, 127
7, 8170, Pitch_bend_c, 10, 10853
7, 8175, Control_c, 10, 1, 7
7, 8180, Pitch_bend_c, 10, 9486
7, 8185, Control_c, 10, 1, 0
7, 8190, Pitch_bend_c, 10, 9270
7, 8220, Pitch_bend_c, 10, 9630
7, 8235, Pitch_bend_c, 10, 10277
7, 8245, Pitch_bend_c, 10, 10997
7, 8245, Control_c, 10, 1, 4
7, 8255, Pitch_bend_c, 10, 11500
7, 8270, Pitch_bend_c, 10, 12004
7, 8270, Control_c, 10, 1, 11
7, 8280, Pitch_bend_c, 10, 12291
7, 8295, Pitch_bend_c, 10, 12723
7, 8295, Control_c, 10, 1, 16
7, 8305, Pitch_bend_c, 10, 13227
7, 8320, Pitch_bend_c, 10, 13730
7, 8330, Pitch_bend_c, 10, 14162
7, 8345, Pitch_bend_c, 10, 14593
7, 8345, Control_c, 10, 1, 21
7, 8355, Pitch_bend_c, 10, 14953
7, 8365, Pitch_bend_c, 10, 15169
7, 8380, Pitch_bend_c, 10, 15600
7, 8390, Pitch_bend_c, 10, 16032
7, 8405, Pitch_bend_c, 10, 16383
7, 8405, Control_c, 10, 1, 29
7, 8440, Control_c, 10, 1, 34
7, 8560, Note_off_c, 10, 72, 64
7, 8565, Control_c, 10, 1, 29
7, 8575, Control_c, 10, 1, 22
7, 8590, Control_c, 10, 1, 17
7, 8600, Pitch_bend_c, 10, 15456
7, 8600, Control_c, 10, 1, 11
7, 8610, Pitch_bend_c, 10, 12723
7, 8610, Control_c, 10, 1, 0
7, 8625, Pitch_bend_c, 10, 9630
7, 8635, Pitch_bend_c, 10, 8192
7, 8640, Note_on_c, 10, 72, 113
7, 8715, Note_off_c, 10, 72, 64
7, 8720, Control_c, 10, 1, 1
7, 8720, Note_on_c, 10, 69, 107
7, 8735, Control_c, 10, 1, 14
7, 8745, Control_c, 10, 1, 31
7, 8760, Control_c, 10, 1, 48
7, 8770, Control_c, 10, 1, 64
7, 8785, Control_c, 10, 1, 76
7, 8795, Control_c, 10, 1, 83
7, 8880, Control_c, 10, 1, 88
7, 9030, Control_c, 10, 1, 81
7, 9040, Note_off_c, 10, 69, 64
7, 9055, Control_c, 10, 1, 73
7, 9065, Control_c, 10, 1, 63
7, 9070, Control_c, 10, 1, 41
7, 9090, Control_c, 10, 1, 17
7, 9100, Control_c, 10, 1, 0
7, 9120, Note_on_c, 10, 69, 102
7, 9280, Note_off_c, 10, 69, 64
7, 9280, Note_on_c, 10, 66, 113
7, 9360, Note_on_c, 10, 69, 89
7, 9440, Note_off_c, 10, 66, 64
7, 9600, Note_off_c, 10, 69, 64
7, 9600, Note_on_c, 10, 72, 113
7, 9650, Pitch_bend_c, 10, 8263
7, 9660, Pitch_bend_c, 10, 8695
7, 9675, Pitch_bend_c, 10, 9199
7, 9685, Pitch_bend_c, 10, 9774
7, 9700, Pitch_bend_c, 10, 10349
7, 9710, Pitch_bend_c, 10, 10781
7, 9720, Pitch_bend_c, 10, 11141
7, 9735, Pitch_bend_c, 10, 11500
7, 9745, Pitch_bend_c, 10, 12004
7, 9760, Pitch_bend_c, 10, 12435
7, 9770, Pitch_bend_c, 10, 13011
7, 9770, Control_c, 10, 1, 1
7, 9785, Pitch_bend_c, 10, 13442
7, 9795, Pitch_bend_c, 10, 13874
7, 9795, Control_c, 10, 1, 7
7, 9810, Pitch_bend_c, 10, 14234
7, 9815, Pitch_bend_c, 10, 14593
7, 9820, Control_c, 10, 1, 12
7, 9830, Pitch_bend_c, 10, 15097
7, 9845, Pitch_bend_c, 10, 15816
7, 9845, Control_c, 10, 1, 19
7, 9855, Pitch_bend_c, 10, 16383
7, 9860, Control_c, 10, 1, 27
7, 9870, Control_c, 10, 1, 37
7, 9880, Control_c, 10, 1, 44
7, 9895, Control_c, 10, 1, 56
7, 9900, Control_c, 10, 1, 63
7, 9915, Control_c, 10, 1, 69
7, 9920, Note_off_c, 10, 72, 64
7, 9940, Control_c, 10, 1, 74
7, 10005, Control_c, 10, 1, 69
7, 10015, Control_c, 10, 1, 58
7, 10025, Pitch_bend_c, 10, 16032
7, 10030, Control_c, 10, 1, 37
7, 10040, Pitch_bend_c, 10, 13370
7, 10040, Control_c, 10, 1, 14
7, 10050, Pitch_bend_c, 10, 10781
7, 10055, Control_c, 10, 1, 0
7, 10065, Pitch_bend_c, 10, 8551
7, 10075, Pitch_bend_c, 10, 8192
7, 10560, Note_on_c, 10, 64, 113
7, 10720, Note_on_c, 10, 66, 107
7, 10800, Note_off_c, 10, 64, 64
7, 10880, Note_off_c, 10, 66, 64
7, 10880, Note_on_c, 10, 69, 107
7, 11040, Note_on_c, 10, 64, 113
7, 11120, Note_off_c, 10, 69, 64
7, 11200, Note_on_c, 10, 66, 76
7, 11280, Note_off_c, 10, 64, 64
7, 11360, Note_off_c, 10, 66, 64
7, 11360, Note_on_c, 10, 69, 93
7, 11520, Note_off_c, 10, 69, 64
7, 11520, Note_on_c, 10, 71, 107
7, 11565, Pitch_bend_c, 10, 8263
7, 11575, Pitch_bend_c, 10, 8551
7, 11590, Pitch_bend_c, 10, 8911
7, 11600, Pitch_bend_c, 10, 9342
7, 11615, Pitch_bend_c, 10, 9918
7, 11625, Pitch_bend_c, 10, 10493
7, 11635, Pitch_bend_c, 10, 11141
7, 11650, Pitch_bend_c, 10, 11644
7, 11660, Pitch_bend_c, 10, 12148
7, 11675, Pitch_bend_c, 10, 12723
7, 11685, Pitch_bend_c, 10, 13083
7, 11690, Control_c, 10, 1, 4
7, 11700, Pitch_bend_c, 10, 13298
7, 11710, Pitch_bend_c, 10, 13658
7, 11710, Control_c, 10, 1, 11
7, 11735, Pitch_bend_c, 10, 13946
7, 11745, Pitch_bend_c, 10, 14162
7, 11750, Control_c, 10, 1, 17
7, 11760, Pitch_bend_c, 10, 14377
7, 11770, Pitch_bend_c, 10, 14809
7, 11775, Control_c, 10, 1, 22
7, 11785, Pitch_bend_c, 10, 15025
7, 11795, Pitch_bend_c, 10, 15312
7, 11810, Pitch_bend_c, 10, 15744
7, 11810, Control_c, 10, 1, 29
7, 11820, Pitch_bend_c, 10, 16248
7, 11820, Control_c, 10, 1, 34
7, 11835, Pitch_bend_c, 10, 16383
7, 11860, Control_c, 10, 1, 41
7, 11920, Note_off_c, 10, 71, 64
7, 11930, Control_c, 10, 1, 36
7, 11945, Pitch_bend_c, 10, 16248
7, 11955, Pitch_bend_c, 10, 14162
7, 11955, Control_c, 10, 1, 26
7, 11965, Pitch_bend_c, 10, 11572
7, 11970, Control_c, 10, 1, 16
7, 11980, Pitch_bend_c, 10, 9414
7, 11980, Control_c, 10, 1, 4
7, 11985, Pitch_bend_c, 10, 8263
7, 11990, Control_c, 10, 1, 0
7, 12000, Note_on_c, 10, 71, 113
7, 12005, Pitch_bend_c, 10, 8192
7, 12030, Pitch_bend_c, 10, 8407
7, 12040, Pitch_bend_c, 10, 8983
7, 12050, Pitch_bend_c, 10, 9702
7, 12065, Pitch_bend_c, 10, 10493
7, 12075, Pitch_bend_c, 10, 11572
7, 12090, Pitch_bend_c, 10, 12507
7, 12100, Pitch_bend_c, 10, 13298
7, 12115, Pitch_bend_c, 10, 14018
7, 12125, Pitch_bend_c, 10, 14665
7, 12140, Pitch_bend_c, 10, 15097
7, 12150, Pitch_bend_c, 10, 15600
7, 12150, Control_c, 10, 1, 1
7, 12160, Pitch_bend_c, 10, 15888
7, 12175, Pitch_bend_c, 10, 16248
7, 12185, Pitch_bend_c, 10, 16383
7, 12235, Control_c, 10, 1, 7
7, 12285, Control_c, 10, 1, 12
7, 12335, Pitch_bend_c, 10, 15672
7, 12335, Control_c, 10, 1, 7
7, 12340, Pitch_bend_c, 10, 12220
7, 12345, Control_c, 10, 1, 0
7, 12355, Pitch_bend_c, 10, 8623
7, 12370, Pitch_bend_c, 10, 8192
7, 12480, Note_off_c, 10, 71, 64
7, 12480, Note_on_c, 10, 69, 98
7, 12515, Control_c, 10, 1, 2
7, 12530, Control_c, 10, 1, 14
7, 12540, Control_c, 10, 1, 31
7, 12555, Control_c, 10, 1, 44
7, 12565, Control_c, 10, 1, 64
7, 12580, Control_c, 10, 1, 76
7, 12590, Control_c, 10, 1, 88
7, 12605, Control_c, 10, 1, 100
7, 12615, Control_c, 10, 1, 108
7, 12625, Control_c, 10, 1, 113
7, 12640, Control_c, 10, 1, 118
7, 12830, Control_c, 10, 1, 113
7, 12850, Control_c, 10, 1, 108
7, 12860, Control_c, 10, 1, 101
7, 12865, Control_c, 10, 1, 90
7, 12885, Control_c, 10, 1, 74
7, 12895, Control_c, 10, 1, 56
7, 12910, Control_c, 10, 1, 32
7, 12920, Control_c, 10, 1, 7
7, 12930, Control_c, 10, 1, 0
7, 12960, Note_off_c, 10, 69, 64
7, 12960, Note_on_c, 10, 66, 113
7, 13280, Note_off_c, 10, 66, 64
7, 13280, Note_on_c, 10, 64, 102
7, 13440, Note_off_c, 10, 64, 64
7, 13440, Note_on_c, 10, 67, 107
7, 13610, Pitch_bend_c, 10, 8263
7, 13640, Pitch_bend_c, 10, 8551
7, 13660, Pitch_bend_c, 10, 8767
7, 13685, Pitch_bend_c, 10, 9055
7, 13700, Pitch_bend_c, 10, 9558
7, 13710, Pitch_bend_c, 10, 10206
7, 13725, Pitch_bend_c, 10, 10637
7, 13735, Pitch_bend_c, 10, 10925
7, 13810, Pitch_bend_c, 10, 11428
7, 13820, Pitch_bend_c, 10, 11644
7, 13840, Note_off_c, 10, 67, 64
7, 13845, Pitch_bend_c, 10, 11284
7, 13860, Pitch_bend_c, 10, 10493
7, 13870, Pitch_bend_c, 10, 9127
7, 13885, Pitch_bend_c, 10, 8192
7, 13920, Note_on_c, 10, 67, 113
7, 13980, Pitch_bend_c, 10, 8335
7, 13995, Pitch_bend_c, 10, 8623
7, 14005, Pitch_bend_c, 10, 8983
7, 14015, Pitch_bend_c, 10, 9414
7, 14025, Pitch_bend_c, 10, 9918
7, 14035, Pitch_bend_c, 10, 10421
7, 14050, Pitch_bend_c, 10, 10853
7, 14065, Pitch_bend_c, 10, 11141
7, 14140, Pitch_bend_c, 10, 10493
7, 14150, Pitch_bend_c, 10, 8335
7, 14165, Pitch_bend_c, 10, 8192
7, 14240, Note_off_c, 10, 67, 64
7, 14240, Note_on_c, 10, 66, 113
7, 14400, Note_off_c, 10, 66, 64
7, 14400, Note_on_c, 10, 64, 102
7, 14435, Control_c, 10, 1, 1
7, 14445, Control_c, 10, 1, 9
7, 14460, Control_c, 10, 1, 17
7, 14470, Control_c, 10, 1, 24
7, 14485, Control_c, 10, 1, 34
7, 14495, Control_c, 10, 1, 39
7, 14505, Control_c, 10, 1, 49
7, 14520, Control_c, 10, 1, 58
7, 14530, Control_c, 10, 1, 64
7, 14540, Control_c, 10, 1, 71
7, 14550, Control_c, 10, 1, 76
7, 14565, Control_c, 10, 1, 81
7, 14610, Control_c, 10, 1, 88
7, 14655, Control_c, 10, 1, 93
7, 14700, Control_c, 10, 1, 98
7, 14725, Control_c, 10, 1, 103
7, 14800, Note_off_c, 10, 64, 64
7, 14800, Control_c, 10, 1, 96
7, 14810, Control_c, 10, 1, 84
7, 14825, Control_c, 10, 1, 71
7, 14835, Control_c, 10, 1, 49
7, 14850, Control_c, 10, 1, 27
7, 14860, Control_c, 10, 1, 2
7, 14875, Control_c, 10, 1, 0
7, 14880, Note_on_c, 10, 64, 102
7, 15040, Note_off_c, 10, 64, 64
7, 15040, Note_on_c, 10, 66, 98
7, 15200, Note_off_c, 10, 66, 64
7, 15200, Note_on_c, 10, 69, 107
7, 15300, Control_c, 10, 1, 6
7, 15325, Control_c, 10, 1, 16
7, 15335, Control_c, 10, 1, 21
7, 15345, Control_c, 10, 1, 32
7, 15355, Control_c, 10, 1, 41
7, 15360, Note_off_c, 10, 69, 64
7, 15360, Note_on_c, 10, 69, 93
7, 15370, Control_c, 10, 1, 56
7, 15385, Control_c, 10, 1, 64
7, 15395, Control_c, 10, 1, 69
7, 15420, Control_c, 10, 1, 76
7, 15460, Control_c, 10, 1, 83
7, 15480, Control_c, 10, 1, 90
7, 15530, Control_c, 10, 1, 84
7, 15615, Control_c, 10, 1, 76
7, 15630, Control_c, 10, 1, 68
7, 15640, Control_c, 10, 1, 59
7, 15655, Control_c, 10, 1, 41
7, 15665, Control_c, 10, 1, 24
7, 15680, Control_c, 10, 1, 2
7, 15690, Control_c, 10, 1, 0
7, 15770, Pitch_bend_c, 10, 5688
7, 15780, Pitch_bend_c, 10, 2503
7, 15800, Pitch_bend_c, 10, 758
7, 15810, Pitch_bend_c, 10, 0
7, 15840, Note_off_c, 10, 69, 64
7, 15840, Note_on_c, 10, 64, 113
7, 15895, Pitch_bend_c, 10, 682
7, 15910, Pitch_bend_c, 10, 2427
7, 15920, Pitch_bend_c, 10, 4626
7, 15935, Pitch_bend_c, 10, 6674
7, 15945, Pitch_bend_c, 10, 8192
7, 16000, Note_off_c, 10, 64, 64
7, 16000, Note_on_c, 10, 69, 107
7, 16160, Note_off_c, 10, 69, 64
7, 16160, Note_on_c, 10, 64, 102
7, 16320, Note_off_c, 10, 64, 64
7, 16320, Note_on_c, 10, 67, 107
7, 16345, Pitch_bend_c, 10, 8695
7, 16360, Pitch_bend_c, 10, 12507
7, 16370, Pitch_bend_c, 10, 16383
7, 16375, Control_c, 10, 1, 12
7, 16400, Control_c, 10, 1, 22
7, 16445, Control_c, 10, 1, 17
7, 16460, Pitch_bend_c, 10, 14953
7, 16470, Pitch_bend_c, 10, 11644
7, 16470, Control_c, 10, 1, 9
7, 16480, Pitch_bend_c, 10, 8192
7, 16485, Control_c, 10, 1, 0
7, 16640, Note_off_c, 10, 67, 64
7, 16640, Note_on_c, 10, 64, 98
7, 16800, Note_off_c, 10, 64, 64
7, 16800, Note_on_c, 10, 62, 107
7, 16960, Note_off_c, 10, 62, 64
7, 16960, Note_on_c, 10, 60, 102
7, 17120, Note_off_c, 10, 60, 64
7, 17120, Note_on_c, 10, 62, 113
7, 17195, Note_off_c, 10, 62, 64
7, 17280, Note_on_c, 10, 60, 113
7, 17390, Pitch_bend_c, 10, 8263
7, 17435, Pitch_bend_c, 10, 8479
7, 17470, Pitch_bend_c, 10, 8695
7, 17495, Pitch_bend_c, 10, 8911
7, 17520, Pitch_bend_c, 10, 9199
7, 17555, Pitch_bend_c, 10, 9414
7, 17580, Pitch_bend_c, 10, 9630
7, 17640, Pitch_bend_c, 10, 10062
7, 17655, Pitch_bend_c, 10, 10493
7, 17665, Pitch_bend_c, 10, 10997
7, 17680, Pitch_bend_c, 10, 11572
7, 17690, Pitch_bend_c, 10, 12004
7, 17725, Pitch_bend_c, 10, 9846
7, 17740, Pitch_bend_c, 10, 8192
7, 17760, Note_off_c, 10, 60, 64
7, 17760, Note_on_c, 10, 57, 102
7, 18000, Note_off_c, 10, 57, 64
7, 18000, Note_on_c, 10, 52, 113
7, 18215, Control_c, 10, 1, 1
7, 18230, Control_c, 10, 1, 14
7, 18240, Control_c, 10, 1, 27
7, 18255, Control_c, 10, 1, 36
7, 18265, Control_c, 10, 1, 41
7, 18280, Control_c, 10, 1, 48
7, 18290, Control_c, 10, 1, 56
7, 18315, Control_c, 10, 1, 66
7, 18320, Control_c, 10, 1, 71
7, 18350, Control_c, 10, 1, 79
7, 18480, Note_off_c, 10, 52, 64
7, 18580, Control_c, 10, 1, 71
7, 18595, Control_c, 10, 1, 59
7, 18605, Control_c, 10, 1, 42
7, 18620, Control_c, 10, 1, 31
7, 18630, Control_c, 10, 1, 14
7, 18645, Control_c, 10, 1, 1
7, 18655, Control_c, 10, 1, 0
7, 18720, Note_on_c, 10, 69, 113
7, 18880, Note_off_c, 10, 69, 64
7, 18880, Note_on_c, 10, 73, 113
7, 18955, Note_off_c, 10, 73, 64
7, 19040, Note_on_c, 10, 74, 102
7, 19115, Note_off_c, 10, 74, 64
7, 19200, Note_on_c, 10, 74, 119
7, 19250, Pitch_bend_c, 10, 8407
7, 19265, Pitch_bend_c, 10, 8767
7, 19275, Pitch_bend_c, 10, 9270
7, 19290, Pitch_bend_c, 10, 9774
7, 19300, Pitch_bend_c, 10, 10277
7, 19300, Control_c, 10, 1, 1
7, 19315, Pitch_bend_c, 10, 10781
7, 19315, Control_c, 10, 1, 11
7, 19325, Pitch_bend_c, 10, 11213
7, 19325, Control_c, 10, 1, 16
7, 19335, Pitch_bend_c, 10, 11572
7, 19350, Pitch_bend_c, 10, 12004
7, 19350, Control_c, 10, 1, 21
7, 19360, Pitch_bend_c, 10, 12220
7, 19375, Pitch_bend_c, 10, 12579
7, 19375, Control_c, 10, 1, 27
7, 19385, Pitch_bend_c, 10, 12939
7, 19400, Pitch_bend_c, 10, 13298
7, 19400, Control_c, 10, 1, 32
7, 19410, Pitch_bend_c, 10, 13730
7, 19425, Pitch_bend_c, 10, 14018
7, 19425, Control_c, 10, 1, 39
7, 19435, Pitch_bend_c, 10, 14305
7, 19445, Pitch_bend_c, 10, 14521
7, 19450, Control_c, 10, 1, 48
7, 19460, Pitch_bend_c, 10, 14809
7, 19470, Pitch_bend_c, 10, 15097
7, 19475, Control_c, 10, 1, 54
7, 19485, Pitch_bend_c, 10, 15456
7, 19485, Control_c, 10, 1, 59
7, 19490, Pitch_bend_c, 10, 15744
7, 19505, Pitch_bend_c, 10, 16104
7, 19510, Control_c, 10, 1, 68
7, 19520, Pitch_bend_c, 10, 16320
7, 19545, Pitch_bend_c, 10, 16383
7, 19545, Control_c, 10, 1, 73
7, 19560, Control_c, 10, 1, 78
7, 19595, Control_c, 10, 1, 83
7, 19630, Control_c, 10, 1, 88
7, 19690, Control_c, 10, 1, 93
7, 19755, Control_c, 10, 1, 98
7, 20000, Control_c, 10, 1, 93
7, 20010, Control_c, 10, 1, 88
7, 20030, Control_c, 10, 1, 79
7, 20040, Control_c, 10, 1, 74
7, 20060, Control_c, 10, 1, 68
7, 20070, Control_c, 10, 1, 58
7, 20080, Note_off_c, 10, 74, 64
7, 20080, Control_c, 10, 1, 42
7, 20095, Control_c, 10, 1, 32
7, 20105, Control_c, 10, 1, 16
7, 20120, Pitch_bend_c, 10, 15169
7, 20120, Control_c, 10, 1, 1
7, 20130, Pitch_bend_c, 10, 13083
7, 20130, Control_c, 10, 1, 0
7, 20140, Pitch_bend_c, 10, 9918
7, 20155, Pitch_bend_c, 10, 8192
7, 20160, Note_on_c, 10, 74, 119
7, 20180, Pitch_bend_c, 10, 8335
7, 20190, Pitch_bend_c, 10, 9414
7, 20205, Pitch_bend_c, 10, 10493
7, 20215, Pitch_bend_c, 10, 11141
7, 20230, Pitch_bend_c, 10, 11356
7, 20240, Pitch_bend_c, 10, 11644
7, 20250, Pitch_bend_c, 10, 11932
7, 20265, Pitch_bend_c, 10, 12363
7, 20275, Pitch_bend_c, 10, 13083
7, 20290, Pitch_bend_c, 10, 13802
7, 20300, Pitch_bend_c, 10, 14377
7, 20315, Pitch_bend_c, 10, 14593
7, 20325, Pitch_bend_c, 10, 14881
7, 20340, Pitch_bend_c, 10, 15097
7, 20345, Pitch_bend_c, 10, 15384
7, 20365, Pitch_bend_c, 10, 15816
7, 20365, Control_c, 10, 1, 6
7, 20375, Pitch_bend_c, 10, 16383
7, 20375, Control_c, 10, 1, 14
7, 20390, Control_c, 10, 1, 21
7, 20410, Control_c, 10, 1, 27
7, 20495, Control_c, 10, 1, 34
7, 20560, Control_c, 10, 1, 39
7, 20630, Control_c, 10, 1, 46
7, 20755, Control_c, 10, 1, 51
7, 20960, Control_c, 10, 1, 44
7, 21000, Control_c, 10, 1, 39
7, 21020, Control_c, 10, 1, 34
7, 21035, Control_c, 10, 1, 29
7, 21040, Note_off_c, 10, 74, 64
7, 21045, Control_c, 10, 1, 21
7, 21060, Control_c, 10, 1, 14
7, 21070, Pitch_bend_c, 10, 15960
7, 21070, Control_c, 10, 1, 7
7, 21080, Pitch_bend_c, 10, 14521
7, 21085, Control_c, 10, 1, 0
7, 21095, Pitch_bend_c, 10, 12291
7, 21105, Pitch_bend_c, 10, 10493
7, 21120, Pitch_bend_c, 10, 9270
7, 21120, Note_on_c, 10, 74, 119
7, 21130, Pitch_bend_c, 10, 9055
7, 21155, Pitch_bend_c, 10, 9486
7, 21170, Pitch_bend_c, 10, 10493
7, 21180, Pitch_bend_c, 10, 11356
7, 21185, Pitch_bend_c, 10, 12148
7, 21205, Pitch_bend_c, 10, 12867
7, 21210, Pitch_bend_c, 10, 13514
7, 21225, Pitch_bend_c, 10, 14305
7, 21235, Pitch_bend_c, 10, 15456
7, 21250, Pitch_bend_c, 10, 16383
7, 21280, Control_c, 10, 1, 2
7, 21340, Control_c, 10, 1, 7
7, 21365, Control_c, 10, 1, 14
7, 21415, Control_c, 10, 1, 21
7, 21460, Control_c, 10, 1, 16
7, 21485, Control_c, 10, 1, 11
7, 21510, Control_c, 10, 1, 2
7, 21525, Control_c, 10, 1, 0
7, 21535, Pitch_bend_c, 10, 15384
7, 21545, Pitch_bend_c, 10, 13155
7, 21560, Pitch_bend_c, 10, 10925
7, 21570, Pitch_bend_c, 10, 9199
7, 21585, Pitch_bend_c, 10, 8192
7, 21600, Note_off_c, 10, 74, 64
7, 21600, Note_on_c, 10, 74, 113
7, 21615, Pitch_bend_c, 10, 8263
7, 21630, Pitch_bend_c, 10, 9127
7, 21645, Pitch_bend_c, 10, 10421
7, 21650, Pitch_bend_c, 10, 11644
7, 21665, Pitch_bend_c, 10, 13083
7, 21680, Pitch_bend_c, 10, 14737
7, 21690, Pitch_bend_c, 10, 16320
7, 21700, Pitch_bend_c, 10, 16383
7, 21925, Pitch_bend_c, 10, 14665
7, 21935, Pitch_bend_c, 10, 10349
7, 21950, Pitch_bend_c, 10, 8192
7, 21985, Control_c, 10, 1, 9
7, 22000, Control_c, 10, 1, 14
7, 22060, Control_c, 10, 1, 19
7, 22070, Control_c, 10, 1, 26
7, 22085, Control_c, 10, 1, 34
7, 22090, Control_c, 10, 1, 39
7, 22110, Control_c, 10, 1, 48
7, 22120, Control_c, 10, 1, 56
7, 22135, Control_c, 10, 1, 61
7, 22145, Control_c, 10, 1, 66
7, 22390, Control_c, 10, 1, 61
7, 22465, Control_c, 10, 1, 54
7, 22485, Control_c, 10, 1, 49
7, 22500, Control_c, 10, 1, 42
7, 22525, Control_c, 10, 1, 32
7, 22535, Control_c, 10, 1, 24
7, 22550, Control_c, 10, 1, 16
7, 22555, Control_c, 10, 1, 11
7, 22570, Control_c, 10, 1, 4
7, 22830, Control_c, 10, 1, 0
7, 22880, Note_off_c, 10, 74, 64
7, 22880, Note_on_c, 10, 76, 113
7, 23040, Note_off_c, 10, 76, 64
7, 23040, Note_on_c, 10, 79, 127
7, 23095, Pitch_bend_c, 10, 8335
7, 23105, Pitch_bend_c, 10, 9055
7, 23120, Pitch_bend_c, 10, 9918
7, 23130, Pitch_bend_c, 10, 10493
7, 23135, Control_c, 10, 1, 6
7, 23145, Pitch_bend_c, 10, 10853
7, 23145, Control_c, 10, 1, 14
7, 23160, Control_c, 10, 1, 19
7, 23170, Pitch_bend_c, 10, 11213
7, 23170, Control_c, 10, 1, 26
7, 23180, Pitch_bend_c, 10, 11716
7, 23180, Control_c, 10, 1, 34
7, 23195, Pitch_bend_c, 10, 12435
7, 23205, Pitch_bend_c, 10, 13370
7, 23205, Control_c, 10, 1, 44
7, 23220, Pitch_bend_c, 10, 14234
7, 23220, Control_c, 10, 1, 53
7, 23230, Pitch_bend_c, 10, 15025
7, 23230, Control_c, 10, 1, 59
7, 23240, Pitch_bend_c, 10, 15528
7, 23245, Control_c, 10, 1, 64
7, 23255, Pitch_bend_c, 10, 15888
7, 23255, Control_c, 10, 1, 69
7, 23265, Pitch_bend_c, 10, 16320
7, 23275, Pitch_bend_c, 10, 16383
7, 23280, Control_c, 10, 1, 76
7, 23305, Control_c, 10, 1, 81
7, 23335, Control_c, 10, 1, 88
7, 23365, Control_c, 10, 1, 95
7, 23450, Control_c, 10, 1, 83
7, 23460, Control_c, 10, 1, 76
7, 23470, Control_c, 10, 1, 69
7, 23485, Control_c, 10, 1, 59
7, 23500, Pitch_bend_c, 10, 15384
7, 23500, Control_c, 10, 1, 48
7, 23510, Pitch_bend_c, 10, 13946
7, 23510, Control_c, 10, 1, 36
7, 23520, Note_off_c, 10, 79, 64
7, 23520, Pitch_bend_c, 10, 12363
7, 23520, Note_on_c, 10, 79, 113
7, 23525, Control_c, 10, 1, 26
7, 23535, Control_c, 10, 1, 14
7, 23535, Pitch_bend_c, 10, 10997
7, 23545, Pitch_bend_c, 10, 10349
7, 23550, Control_c, 10, 1, 6
7, 23570, Pitch_bend_c, 10, 10997
7, 23585, Pitch_bend_c, 10, 12004
7, 23595, Pitch_bend_c, 10, 13011
7, 23610, Pitch_bend_c, 10, 13730
7, 23610, Control_c, 10, 1, 17
7, 23620, Pitch_bend_c, 10, 14377
7, 23620, Control_c, 10, 1, 27
7, 23630, Pitch_bend_c, 10, 15169
7, 23635, Control_c, 10, 1, 39
7, 23645, Pitch_bend_c, 10, 15888
7, 23645, Control_c, 10, 1, 51
7, 23655, Pitch_bend_c, 10, 16383
7, 23660, Control_c, 10, 1, 58
7, 23745, Control_c, 10, 1, 63
7, 23795, Control_c, 10, 1, 68
7, 23875, Control_c, 10, 1, 63
7, 23890, Control_c, 10, 1, 54
7, 23900, Control_c, 10, 1, 39
7, 23915, Pitch_bend_c, 10, 15744
7, 23915, Control_c, 10, 1, 29
7, 23920, Note_off_c, 10, 79, 64
7, 23925, Pitch_bend_c, 10, 14234
7, 23925, Control_c, 10, 1, 16
7, 23935, Pitch_bend_c, 10, 11932
7, 23940, Control_c, 10, 1, 6
7, 23950, Pitch_bend_c, 10, 9486
7, 23950, Control_c, 10, 1, 0
7, 23960, Pitch_bend_c, 10, 8192
7, 24000, Note_on_c, 10, 79, 119
7, 24025, Pitch_bend_c, 10, 9342
7, 24035, Pitch_bend_c, 10, 12148
7, 24035, Control_c, 10, 1, 7
7, 24045, Pitch_bend_c, 10, 15672
7, 24050, Control_c, 10, 1, 27
7, 24060, Pitch_bend_c, 10, 16383
7, 24060, Control_c, 10, 1, 46
7, 24075, Control_c, 10, 1, 58
7, 24085, Control_c, 10, 1, 63
7, 24120, Control_c, 10, 1, 56
7, 24135, Control_c, 10, 1, 42
7, 24145, Control_c, 10, 1, 31
7, 24155, Pitch_bend_c, 10, 16176
7, 24160, Control_c, 10, 1, 16
7, 24170, Pitch_bend_c, 10, 13011
7, 24170, Control_c, 10, 1, 2
7, 24180, Pitch_bend_c, 10, 9702
7, 24185, Control_c, 10, 1, 0
7, 24190, Pitch_bend_c, 10, 8192
7, 24320, Note_on_c, 10, 76, 98
7, 24400, Note_off_c, 10, 79, 64
7, 24480, Note_off_c, 10, 76, 64
7, 24480, Note_on_c, 10, 74, 113
7, 24640, Note_off_c, 10, 74, 64
7, 24640, Note_on_c, 10, 72, 107
7, 24800, Note_off_c, 10, 72, 64
7, 24800, Note_on_c, 10, 74, 107
7, 24875, Note_off_c, 10, 74, 64
7, 24960, Note_on_c, 10, 74, 107
7, 24980, Pitch_bend_c, 10, 8263
7, 25000, Pitch_bend_c, 10, 8479
7, 25010, Pitch_bend_c, 10, 8911
7, 25025, Pitch_bend_c, 10, 9486
7, 25030, Pitch_bend_c, 10, 10206
7, 25050, Pitch_bend_c, 10, 10853
7, 25050, Control_c, 10, 1, 1
7, 25060, Pitch_bend_c, 10, 11500
7, 25060, Control_c, 10, 1, 6
7, 25070, Pitch_bend_c, 10, 12076
7, 25075, Control_c, 10, 1, 11
7, 25085, Pitch_bend_c, 10, 12651
7, 25095, Pitch_bend_c, 10, 13083
7, 25095, Control_c, 10, 1, 17
7, 25110, Pitch_bend_c, 10, 13730
7, 25120, Pitch_bend_c, 10, 14305
7, 25120, Control_c, 10, 1, 26
7, 25135, Pitch_bend_c, 10, 15097
7, 25135, Control_c, 10, 1, 34
7, 25145, Pitch_bend_c, 10, 15672
7, 25155, Pitch_bend_c, 10, 16176
7, 25160, Control_c, 10, 1, 41
7, 25170, Pitch_bend_c, 10, 16383
7, 25170, Control_c, 10, 1, 48
7, 25185, Control_c, 10, 1, 54
7, 25195, Control_c, 10, 1, 59
7, 25210, Control_c, 10, 1, 64
7, 25220, Control_c, 10, 1, 69
7, 25270, Control_c, 10, 1, 74
7, 25365, Control_c, 10, 1, 68
7, 25380, Control_c, 10, 1, 58
7, 25390, Pitch_bend_c, 10, 14881
7, 25390, Control_c, 10, 1, 42
7, 25400, Pitch_bend_c, 10, 12220
7, 25405, Control_c, 10, 1, 31
7, 25415, Pitch_bend_c, 10, 9199
7, 25415, Control_c, 10, 1, 14
7, 25425, Pitch_bend_c, 10, 8192
7, 25430, Control_c, 10, 1, 6
7, 25440, Note_off_c, 10, 74, 64
7, 25440, Control_c, 10, 1, 0
7, 25440, Note_on_c, 10, 72, 119
7, 25500, Pitch_bend_c, 10, 8407
7, 25505, Pitch_bend_c, 10, 8911
7, 25510, Control_c, 10, 1, 4
7, 25525, Pitch_bend_c, 10, 9774
7, 25525, Control_c, 10, 1, 9
7, 25535, Pitch_bend_c, 10, 10997
7, 25535, Control_c, 10, 1, 14
7, 25550, Pitch_bend_c, 10, 12148
7, 25560, Pitch_bend_c, 10, 13298
7, 25560, Control_c, 10, 1, 21
7, 25570, Pitch_bend_c, 10, 14162
7, 25585, Pitch_bend_c, 10, 14809
7, 25585, Control_c, 10, 1, 26
7, 25595, Pitch_bend_c, 10, 15241
7, 25610, Pitch_bend_c, 10, 15528
7, 25620, Pitch_bend_c, 10, 15888
7, 25635, Pitch_bend_c, 10, 16383
7, 25660, Control_c, 10, 1, 31
7, 25695, Control_c, 10, 1, 36
7, 25735, Control_c, 10, 1, 42
7, 25755, Control_c, 10, 1, 48
7, 25830, Control_c, 10, 1, 41
7, 25840, Note_off_c, 10, 72, 64
7, 25845, Control_c, 10, 1, 34
7, 25855, Control_c, 10, 1, 22
7, 25860, Control_c, 10, 1, 9
7, 25875, Pitch_bend_c, 10, 16032
7, 25880, Control_c, 10, 1, 0
7, 25890, Pitch_bend_c, 10, 13658
7, 25900, Pitch_bend_c, 10, 10421
7, 25915, Pitch_bend_c, 10, 8192
7, 25920, Note_on_c, 10, 72, 113
7, 25995, Note_off_c, 10, 72, 64
7, 26000, Note_on_c, 10, 69, 113
7, 26035, Control_c, 10, 1, 11
7, 26050, Control_c, 10, 1, 17
7, 26060, Control_c, 10, 1, 22
7, 26075, Control_c, 10, 1, 29
7, 26100, Control_c, 10, 1, 36
7, 26125, Control_c, 10, 1, 48
7, 26135, Control_c, 10, 1, 58
7, 26145, Control_c, 10, 1, 66
7, 26160, Control_c, 10, 1, 73
7, 26185, Control_c, 10, 1, 78
7, 26220, Control_c, 10, 1, 71
7, 26330, Control_c, 10, 1, 76
7, 26350, Control_c, 10, 1, 69
7, 26365, Control_c, 10, 1, 56
7, 26380, Control_c, 10, 1, 34
7, 26390, Control_c, 10, 1, 9
7, 26400, Note_off_c, 10, 69, 64
7, 26400, Control_c, 10, 1, 0
7, 26400, Note_on_c, 10, 64, 113
7, 26560, Note_on_c, 10, 66, 80
7, 26640, Note_off_c, 10, 64, 64
7, 26720, Note_off_c, 10, 66, 64
7, 26720, Note_on_c, 10, 69, 102
7, 26880, Note_off_c, 10, 69, 64
7, 26880, Note_on_c, 10, 71, 113
7, 27000, Pitch_bend_c, 10, 8335
7, 27010, Pitch_bend_c, 10, 8623
7, 27025, Pitch_bend_c, 10, 8911
7, 27025, Control_c, 10, 1, 1
7, 27035, Pitch_bend_c, 10, 9342
7, 27050, Pitch_bend_c, 10, 9918
7, 27050, Control_c, 10, 1, 6
7, 27060, Pitch_bend_c, 10, 10565
7, 27075, Pitch_bend_c, 10, 11213
7, 27075, Control_c, 10, 1, 11
7, 27080, Pitch_bend_c, 10, 11716
7, 27095, Pitch_bend_c, 10, 12004
7, 27100, Control_c, 10, 1, 16
7, 27110, Control_c, 10, 1, 21
7, 27120, Pitch_bend_c, 10, 12291
7, 27125, Control_c, 10, 1, 26
7, 27135, Pitch_bend_c, 10, 12651
7, 27135, Control_c, 10, 1, 32
7, 27145, Pitch_bend_c, 10, 13083
7, 27150, Control_c, 10, 1, 37
7, 27160, Pitch_bend_c, 10, 13514
7, 27165, Pitch_bend_c, 10, 13874
7, 27175, Control_c, 10, 1, 44
7, 27180, Pitch_bend_c, 10, 14305
7, 27180, Control_c, 10, 1, 53
7, 27195, Pitch_bend_c, 10, 14593
7, 27205, Pitch_bend_c, 10, 15097
7, 27210, Control_c, 10, 1, 58
7, 27220, Pitch_bend_c, 10, 15456
7, 27230, Pitch_bend_c, 10, 15816
7, 27245, Pitch_bend_c, 10, 16032
7, 27280, Note_off_c, 10, 71, 64
7, 27280, Pitch_bend_c, 10, 15600
7, 27280, Control_c, 10, 1, 51
7, 27295, Pitch_bend_c, 10, 14593
7, 27295, Control_c, 10, 1, 41
7, 27305, Pitch_bend_c, 10, 12867
7, 27305, Control_c, 10, 1, 36
7, 27315, Pitch_bend_c, 10, 10853
7, 27320, Control_c, 10, 1, 27
7, 27330, Pitch_bend_c, 10, 8623
7, 27330, Control_c, 10, 1, 16
7, 27340, Pitch_bend_c, 10, 8192
7, 27345, Control_c, 10, 1, 0
7, 27360, Note_on_c, 10, 71, 119
7, 27405, Pitch_bend_c, 10, 8263
7, 27415, Pitch_bend_c, 10, 8623
7, 27425, Pitch_bend_c, 10, 9270
7, 27440, Pitch_bend_c, 10, 10134
7, 27450, Pitch_bend_c, 10, 11141
7, 27465, Pitch_bend_c, 10, 11932
7, 27465, Control_c, 10, 1, 4
7, 27475, Pitch_bend_c, 10, 12435
7, 27480, Control_c, 10, 1, 9
7, 27490, Pitch_bend_c, 10, 12939
7, 27500, Pitch_bend_c, 10, 13298
7, 27515, Control_c, 10, 1, 14
7, 27520, Pitch_bend_c, 10, 13730
7, 27535, Pitch_bend_c, 10, 14090
7, 27545, Pitch_bend_c, 10, 14881
7, 27545, Control_c, 10, 1, 21
7, 27560, Pitch_bend_c, 10, 15600
7, 27570, Pitch_bend_c, 10, 16383
7, 27575, Control_c, 10, 1, 31
7, 27585, Control_c, 10, 1, 36
7, 27605, Control_c, 10, 1, 42
7, 27685, Control_c, 10, 1, 37
7, 27695, Pitch_bend_c, 10, 15384
7, 27710, Pitch_bend_c, 10, 12507
7, 27710, Control_c, 10, 1, 26
7, 27720, Pitch_bend_c, 10, 9342
7, 27720, Control_c, 10, 1, 16
7, 27730, Pitch_bend_c, 10, 8192
7, 27735, Control_c, 10, 1, 1
7, 27745, Control_c, 10, 1, 0
7, 27840, Note_off_c, 10, 71, 64
7, 27840, Note_on_c, 10, 69, 98
7, 27890, Control_c, 10, 1, 11
7, 27905, Control_c, 10, 1, 27
7, 27915, Control_c, 10, 1, 44
7, 27930, Control_c, 10, 1, 68
7, 27940, Control_c, 10, 1, 83
7, 27955, Control_c, 10, 1, 96
7, 27965, Control_c, 10, 1, 103
7, 27980, Control_c, 10, 1, 108
7, 27985, Control_c, 10, 1, 113
7, 28195, Control_c, 10, 1, 108
7, 28210, Control_c, 10, 1, 103
7, 28220, Control_c, 10, 1, 93
7, 28235, Control_c, 10, 1, 81
7, 28245, Control_c, 10, 1, 66
7, 28260, Control_c, 10, 1, 44
7, 28270, Control_c, 10, 1, 26
7, 28285, Control_c, 10, 1, 9
7, 28295, Control_c, 10, 1, 0
7, 28320, Note_off_c, 10, 69, 64
7, 28320, Note_on_c, 10, 64, 107
7, 28640, Note_off_c, 10, 64, 64
7, 29120, Note_on_c, 10, 74, 127
7, 29135, Pitch_bend_c, 10, 8551
7, 29150, Pitch_bend_c, 10, 9199
7, 29160, Pitch_bend_c, 10, 9774
7, 29170, Pitch_bend_c, 10, 10421
7, 29180, Pitch_bend_c, 10, 11141
7, 29190, Pitch_bend_c, 10, 11860
7, 29205, Pitch_bend_c, 10, 12579
7, 29220, Pitch_bend_c, 10, 13442
7, 29235, Pitch_bend_c, 10, 14234
7, 29240, Pitch_bend_c, 10, 15169
7, 29255, Pitch_bend_c, 10, 15744
7, 29270, Pitch_bend_c, 10, 16176
7, 29340, Pitch_bend_c, 10, 15528
7, 29355, Pitch_bend_c, 10, 13730
7, 29360, Note_off_c, 10, 74, 64
7, 29365, Pitch_bend_c, 10, 11356
7, 29380, Pitch_bend_c, 10, 8911
7, 29390, Pitch_bend_c, 10, 8192
7, 29440, Note_on_c, 10, 74, 119
7, 29455, Pitch_bend_c, 10, 8623
7, 29465, Pitch_bend_c, 10, 9127
7, 29475, Pitch_bend_c, 10, 9486
7, 29490, Pitch_bend_c, 10, 9990
7, 29500, Pitch_bend_c, 10, 10781
7, 29515, Pitch_bend_c, 10, 11356
7, 29525, Pitch_bend_c, 10, 12148
7, 29540, Pitch_bend_c, 10, 12795
7, 29550, Pitch_bend_c, 10, 13370
7, 29565, Pitch_bend_c, 10, 13874
7, 29575, Pitch_bend_c, 10, 14377
7, 29585, Pitch_bend_c, 10, 15025
7, 29600, Pitch_bend_c, 10, 15600
7, 29605, Pitch_bend_c, 10, 16032
7, 29620, Pitch_bend_c, 10, 16383
7, 29680, Note_off_c, 10, 74, 64
7, 29685, Pitch_bend_c, 10, 15744
7, 29695, Pitch_bend_c, 10, 14234
7, 29710, Pitch_bend_c, 10, 12507
7, 29720, Pitch_bend_c, 10, 10493
7, 29735, Pitch_bend_c, 10, 8623
7, 29745, Pitch_bend_c, 10, 8192
7, 29760, Note_on_c, 10, 74, 119
7, 29795, Pitch_bend_c, 10, 9199
7, 29805, Pitch_bend_c, 10, 11141
7, 29820, Pitch_bend_c, 10, 12723
7, 29830, Pitch_bend_c, 10, 13802
7, 29845, Pitch_bend_c, 10, 14305
7, 29855, Pitch_bend_c, 10, 14809
7, 29865, Pitch_bend_c, 10, 15169
7, 29880, Pitch_bend_c, 10, 15600
7, 29890, Pitch_bend_c, 10, 15960
7, 29905, Pitch_bend_c, 10, 16320
7, 29930, Pitch_bend_c, 10, 16383
7, 29990, Control_c, 10, 1, 4
7, 30185, Pitch_bend_c, 10, 15025
7, 30185, Control_c, 10, 1, 0
7, 30195, Pitch_bend_c, 10, 12507
7, 30210, Pitch_bend_c, 10, 9702
7, 30220, Pitch_bend_c, 10, 8192
7, 30240, Note_off_c, 10, 74, 64
7, 30240, Note_on_c, 10, 72, 119
7, 30345, Pitch_bend_c, 10, 8263
7, 30355, Pitch_bend_c, 10, 8623
7, 30370, Pitch_bend_c, 10, 8839
7, 30390, Pitch_bend_c, 10, 9127
7, 30405, Pitch_bend_c, 10, 9414
7, 30430, Pitch_bend_c, 10, 9774
7, 30455, Pitch_bend_c, 10, 10206
7, 30475, Pitch_bend_c, 10, 10421
7, 30500, Pitch_bend_c, 10, 10781
7, 30525, Pitch_bend_c, 10, 11069
7, 30540, Pitch_bend_c, 10, 11284
7, 30550, Pitch_bend_c, 10, 11572
7, 30560, Pitch_bend_c, 10, 11932
7, 30585, Pitch_bend_c, 10, 12148
7, 30640, Note_off_c, 10, 72, 64
7, 30650, Pitch_bend_c, 10, 11644
7, 30660, Pitch_bend_c, 10, 10277
7, 30675, Pitch_bend_c, 10, 8192
7, 30720, Note_on_c, 10, 69, 107
7, 30795, Control_c, 10, 1, 14
7, 30810, Control_c, 10, 1, 32
7, 30820, Control_c, 10, 1, 49
7, 30835, Control_c, 10, 1, 64
7, 30845, Control_c, 10, 1, 73
7, 30860, Control_c, 10, 1, 79
7, 30870, Control_c, 10, 1, 84
7, 30880, Control_c, 10, 1, 91
7, 30895, Control_c, 10, 1, 100
7, 30905, Control_c, 10, 1, 110
7, 30920, Control_c, 10, 1, 118
7, 30925, Control_c, 10, 1, 127
7, 30990, Control_c, 10, 1, 116
7, 31005, Control_c, 10, 1, 106
7, 31015, Control_c, 10, 1, 86
7, 31030, Control_c, 10, 1, 73
7, 31040, Control_c, 10, 1, 56
7, 31050, Control_c, 10, 1, 39
7, 31065, Control_c, 10, 1, 26
7, 31075, Control_c, 10, 1, 9
7, 31090, Control_c, 10, 1, 0
7, 31150, Pitch_bend_c, 10, 7205
7, 31160, Pitch_bend_c, 10, 3640
7, 31175, Pitch_bend_c, 10, 1061
7, 31185, Pitch_bend_c, 10, 0
7, 31200, Note_off_c, 10, 69, 64
7, 31200, Note_on_c, 10, 64, 113
7, 31235, Pitch_bend_c, 10, 75
7, 31245, Pitch_bend_c, 10, 530
7, 31260, Pitch_bend_c, 10, 1441
7, 31270, Pitch_bend_c, 10, 2123
7, 31285, Pitch_bend_c, 10, 3109
7, 31295, Pitch_bend_c, 10, 4399
7, 31305, Pitch_bend_c, 10, 6144
7, 31320, Pitch_bend_c, 10, 8040
7, 31330, Pitch_bend_c, 10, 8192
7, 31360, Note_off_c, 10, 64, 64
7, 31360, Note_on_c, 10, 69, 113
7, 31520, Note_off_c, 10, 69, 64
7, 31520, Note_on_c, 10, 64, 107
7, 31680, Note_off_c, 10, 64, 64
7, 31680, Note_on_c, 10, 69, 113
7, 31840, Note_off_c, 10, 69, 64
7, 31840, Note_on_c, 10, 64, 98
7, 32000, Note_off_c, 10, 64, 64
7, 32000, Note_on_c, 10, 69, 107
7, 32075, Pitch_bend_c, 10, 7812
7, 32090, Pitch_bend_c, 10, 4930
7, 32100, Pitch_bend_c, 10, 3034
7, 32115, Pitch_bend_c, 10, 1668
7, 32125, Pitch_bend_c, 10, 986
7, 32140, Pitch_bend_c, 10, 606
7, 32160, Note_off_c, 10, 69, 64
7, 32160, Note_on_c, 10, 64, 119
7, 32175, Pitch_bend_c, 10, 910
7, 32185, Pitch_bend_c, 10, 1289
7, 32195, Pitch_bend_c, 10, 1744
7, 32210, Pitch_bend_c, 10, 2123
7, 32235, Pitch_bend_c, 10, 3261
7, 32245, Pitch_bend_c, 10, 4702
7, 32255, Pitch_bend_c, 10, 6599
7, 32270, Pitch_bend_c, 10, 8192
7, 32320, Note_off_c, 10, 64, 64
7, 32320, Note_on_c, 10, 69, 107
7, 32480, Note_off_c, 10, 69, 64
7, 32480, Note_on_c, 10, 64, 107
7, 32640, Note_off_c, 10, 64, 64
7, 32640, Note_on_c, 10, 69, 119
7, 32645, Control_c, 10, 1, 7
7, 32665, Control_c, 10, 1, 16
7, 32675, Control_c, 10, 1, 22
7, 32685, Control_c, 10, 1, 32
7, 32700, Control_c, 10, 1, 42
7, 32710, Control_c, 10, 1, 58
7, 32725, Control_c, 10, 1, 66
7, 32735, Control_c, 10, 1, 74
7, 32750, Control_c, 10, 1, 83
7, 32775, Control_c, 10, 1, 88
7, 32795, Control_c, 10, 1, 95
7, 32845, Control_c, 10, 1, 100
7, 33020, Control_c, 10, 1, 93
7, 33030, Control_c, 10, 1, 83
7, 33035, Control_c, 10, 1, 73
7, 33050, Control_c, 10, 1, 56
7, 33060, Control_c, 10, 1, 32
7, 33080, Control_c, 10, 1, 4
7, 33090, Control_c, 10, 1, 0
7, 33120, Note_off_c, 10, 69, 64
7, 33120, Note_on_c, 10, 64, 107
7, 33360, Note_off_c, 10, 64, 64
7, 33440, Note_on_c, 10, 64, 119
7, 33625, Control_c, 10, 1, 4
7, 33640, Control_c, 10, 1, 11
7, 33665, Control_c, 10, 1, 16
7, 33715, Control_c, 10, 1, 21
7, 33735, Control_c, 10, 1, 26
7, 33760, Control_c, 10, 1, 31
7, 33785, Control_c, 10, 1, 37
7, 33800, Control_c, 10, 1, 42
7, 33810, Control_c, 10, 1, 51
7, 33825, Control_c, 10, 1, 56
7, 33845, Control_c, 10, 1, 61
7, 33870, Control_c, 10, 1, 68
7, 33895, Control_c, 10, 1, 73
7, 33945, Control_c, 10, 1, 64
7, 33955, Control_c, 10, 1, 58
7, 33980, Control_c, 10, 1, 51
7, 33995, Control_c, 10, 1, 39
7, 34000, Note_off_c, 10, 64, 64
7, 34005, Control_c, 10, 1, 26
7, 34015, Control_c, 10, 1, 6
7, 34030, Control_c, 10, 1, 0
7, 65280, Note_on_c, 10, 79, 127
7, 65350, Pitch_bend_c, 10, 8335
7, 65360, Pitch_bend_c, 10, 8911
7, 65375, Pitch_bend_c, 10, 9774
7, 65375, Control_c, 10, 1, 6
7, 65385, Pitch_bend_c, 10, 10709
7, 65390, Control_c, 10, 1, 16
7, 65400, Pitch_bend_c, 10, 11356
7, 65400, Control_c, 10, 1, 24
7, 65410, Pitch_bend_c, 10, 12004
7, 65415, Control_c, 10, 1, 36
7, 65420, Pitch_bend_c, 10, 12435
7, 65425, Control_c, 10, 1, 42
7, 65435, Pitch_bend_c, 10, 13011
7, 65435, Control_c, 10, 1, 51
7, 65445, Pitch_bend_c, 10, 13442
7, 65450, Control_c, 10, 1, 58
7, 65460, Pitch_bend_c, 10, 13802
7, 65470, Pitch_bend_c, 10, 14090
7, 65475, Control_c, 10, 1, 64
7, 65485, Pitch_bend_c, 10, 14377
7, 65495, Pitch_bend_c, 10, 14737
7, 65495, Control_c, 10, 1, 71
7, 65510, Pitch_bend_c, 10, 15025
7, 65520, Pitch_bend_c, 10, 15241
7, 65520, Control_c, 10, 1, 79
7, 65530, Pitch_bend_c, 10, 15600
7, 65545, Pitch_bend_c, 10, 15816
7, 65545, Control_c, 10, 1, 84
7, 65555, Pitch_bend_c, 10, 16104
7, 65560, Control_c, 10, 1, 93
7, 65570, Pitch_bend_c, 10, 16320
7, 65570, Control_c, 10, 1, 101
7, 65585, Control_c, 10, 1, 106
7, 65595, Control_c, 10, 1, 111
7, 65605, Pitch_bend_c, 10, 16383
7, 65630, Control_c, 10, 1, 118
7, 65695, Control_c, 10, 1, 123
7, 65730, Control_c, 10, 1, 127
7, 66365, Control_c, 10, 1, 121
7, 66375, Control_c, 10, 1, 116
7, 66390, Control_c, 10, 1, 111
7, 66400, Control_c, 10, 1, 101
7, 66410, Control_c, 10, 1, 91
7, 66425, Control_c, 10, 1, 81
7, 66435, Control_c, 10, 1, 66
7, 66450, Pitch_bend_c, 10, 15672
7, 66450, Control_c, 10, 1, 53
7, 66460, Pitch_bend_c, 10, 14234
7, 66460, Control_c, 10, 1, 37
7, 66470, Pitch_bend_c, 10, 12220
7, 66475, Control_c, 10, 1, 27
7, 66480, Note_off_c, 10, 79, 64
7, 66485, Pitch_bend_c, 10, 10206
7, 66485, Control_c, 10, 1, 14
7, 66495, Pitch_bend_c, 10, 8407
7, 66500, Control_c, 10, 1, 4
7, 66510, Pitch_bend_c, 10, 8192
7, 66510, Control_c, 10, 1, 0
7, 66560, Note_on_c, 10, 79, 127
7, 66570, Pitch_bend_c, 10, 9702
7, 66580, Pitch_bend_c, 10, 12291
7, 66585, Control_c, 10, 1, 11
7, 66595, Pitch_bend_c, 10, 14809
7, 66595, Control_c, 10, 1, 21
7, 66605, Pitch_bend_c, 10, 16383
7, 66610, Control_c, 10, 1, 34
7, 66620, Control_c, 10, 1, 39
7, 66635, Note_off_c, 10, 79, 64
7, 66645, Control_c, 10, 1, 48
7, 66715, Pitch_bend_c, 10, 16032
7, 66720, Note_on_c, 10, 79, 119
7, 66730, Control_c, 10, 1, 42
7, 66730, Pitch_bend_c, 10, 13442
7, 66740, Pitch_bend_c, 10, 10781
7, 66740, Control_c, 10, 1, 34
7, 66750, Pitch_bend_c, 10, 9342
7, 66755, Control_c, 10, 1, 29
7, 66775, Pitch_bend_c, 10, 11069
7, 66780, Control_c, 10, 1, 34
7, 66790, Pitch_bend_c, 10, 13730
7, 66790, Control_c, 10, 1, 42
7, 66800, Pitch_bend_c, 10, 16383
7, 66805, Control_c, 10, 1, 54
7, 66815, Control_c, 10, 1, 64
7, 66825, Control_c, 10, 1, 71
7, 66840, Control_c, 10, 1, 81
7, 66865, Control_c, 10, 1, 90
7, 66900, Control_c, 10, 1, 84
7, 66915, Control_c, 10, 1, 76
7, 66925, Control_c, 10, 1, 66
7, 66935, Control_c, 10, 1, 54
7, 66950, Pitch_bend_c, 10, 15600
7, 66950, Control_c, 10, 1, 41
7, 66960, Pitch_bend_c, 10, 13946
7, 66960, Control_c, 10, 1, 32
7, 66975, Pitch_bend_c, 10, 12363
7, 66975, Control_c, 10, 1, 22
7, 66985, Pitch_bend_c, 10, 10637
7, 66985, Control_c, 10, 1, 14
7, 66995, Pitch_bend_c, 10, 8479
7, 67000, Control_c, 10, 1, 2
7, 67010, Pitch_bend_c, 10, 8192
7, 67010, Control_c, 10, 1, 0
7, 67040, Note_off_c, 10, 79, 64
7, 67040, Note_on_c, 10, 76, 102
7, 67195, Control_c, 10, 1, 1
7, 67205, Control_c, 10, 1, 6
7, 67220, Control_c, 10, 1, 12
7, 67230, Control_c, 10, 1, 17
7, 67240, Control_c, 10, 1, 26
7, 67255, Control_c, 10, 1, 32
7, 67265, Control_c, 10, 1, 37
7, 67280, Control_c, 10, 1, 46
7, 67290, Control_c, 10, 1, 59
7, 67305, Control_c, 10, 1, 69
7, 67315, Control_c, 10, 1, 81
7, 67330, Control_c, 10, 1, 91
7, 67340, Control_c, 10, 1, 103
7, 67350, Control_c, 10, 1, 108
7, 67485, Control_c, 10, 1, 113
7, 67890, Control_c, 10, 1, 108
7, 68120, Control_c, 10, 1, 103
7, 68195, Control_c, 10, 1, 98
7, 68440, Control_c, 10, 1, 93
7, 68475, Control_c, 10, 1, 88
7, 68500, Control_c, 10, 1, 83
7, 68525, Control_c, 10, 1, 73
7, 68535, Control_c, 10, 1, 68
7, 68550, Control_c, 10, 1, 58
7, 68560, Note_off_c, 10, 76, 64
7, 68560, Control_c, 10, 1, 44
7, 68570, Control_c, 10, 1, 34
7, 68585, Control_c, 10, 1, 19
7, 68595, Control_c, 10, 1, 9
7, 68610, Control_c, 10, 1, 0
7, 68640, Note_on_c, 10, 76, 127
7, 68800, Note_off_c, 10, 76, 64
7, 68800, Note_on_c, 10, 78, 107
7, 68960, Note_off_c, 10, 78, 64
7, 68960, Note_on_c, 10, 81, 113
7, 69120, Note_off_c, 10, 81, 64
7, 69120, Note_on_c, 10, 79, 102
7, 69155, Pitch_bend_c, 10, 8407
7, 69170, Pitch_bend_c, 10, 8623
7, 69180, Pitch_bend_c, 10, 8911
7, 69195, Pitch_bend_c, 10, 9414
7, 69205, Pitch_bend_c, 10, 10134
7, 69215, Pitch_bend_c, 10, 10781
7, 69230, Pitch_bend_c, 10, 11500
7, 69240, Pitch_bend_c, 10, 12148
7, 69245, Control_c, 10, 1, 4
7, 69255, Pitch_bend_c, 10, 12651
7, 69255, Control_c, 10, 1, 9
7, 69265, Pitch_bend_c, 10, 13083
7, 69265, Control_c, 10, 1, 16
7, 69280, Pitch_bend_c, 10, 13658
7, 69290, Pitch_bend_c, 10, 14018
7, 69290, Control_c, 10, 1, 24
7, 69305, Pitch_bend_c, 10, 14449
7, 69315, Pitch_bend_c, 10, 15025
7, 69315, Control_c, 10, 1, 34
7, 69325, Pitch_bend_c, 10, 15528
7, 69340, Pitch_bend_c, 10, 15960
7, 69340, Control_c, 10, 1, 42
7, 69350, Pitch_bend_c, 10, 16383
7, 69355, Control_c, 10, 1, 48
7, 69365, Control_c, 10, 1, 58
7, 69380, Control_c, 10, 1, 63
7, 69390, Control_c, 10, 1, 69
7, 69400, Control_c, 10, 1, 74
7, 69415, Control_c, 10, 1, 79
7, 69425, Control_c, 10, 1, 84
7, 69520, Note_off_c, 10, 79, 64
7, 69535, Control_c, 10, 1, 78
7, 69550, Pitch_bend_c, 10, 15600
7, 69550, Control_c, 10, 1, 64
7, 69560, Pitch_bend_c, 10, 12795
7, 69560, Control_c, 10, 1, 42
7, 69570, Pitch_bend_c, 10, 9342
7, 69575, Control_c, 10, 1, 16
7, 69585, Pitch_bend_c, 10, 8192
7, 69585, Control_c, 10, 1, 0
7, 69600, Note_on_c, 10, 79, 119
7, 69770, Control_c, 10, 1, 11
7, 69780, Control_c, 10, 1, 24
7, 69790, Control_c, 10, 1, 36
7, 69805, Control_c, 10, 1, 48
7, 69815, Control_c, 10, 1, 61
7, 69830, Control_c, 10, 1, 71
7, 69840, Control_c, 10, 1, 79
7, 69855, Control_c, 10, 1, 86
7, 69865, Control_c, 10, 1, 93
7, 69890, Control_c, 10, 1, 100
7, 69950, Control_c, 10, 1, 95
7, 69975, Control_c, 10, 1, 84
7, 69990, Control_c, 10, 1, 74
7, 70000, Control_c, 10, 1, 61
7, 70015, Control_c, 10, 1, 44
7, 70025, Control_c, 10, 1, 24
7, 70035, Control_c, 10, 1, 2
7, 70050, Control_c, 10, 1, 0
7, 70080, Note_off_c, 10, 79, 64
7, 70080, Note_on_c, 10, 72, 119
7, 70180, Pitch_bend_c, 10, 8623
7, 70195, Pitch_bend_c, 10, 9270
7, 70205, Pitch_bend_c, 10, 9774
7, 70220, Pitch_bend_c, 10, 10349
7, 70230, Pitch_bend_c, 10, 10781
7, 70245, Pitch_bend_c, 10, 11284
7, 70255, Pitch_bend_c, 10, 12004
7, 70265, Pitch_bend_c, 10, 12291
7, 70280, Pitch_bend_c, 10, 12651
7, 70290, Pitch_bend_c, 10, 12867
7, 70305, Pitch_bend_c, 10, 13227
7, 70315, Pitch_bend_c, 10, 13730
7, 70330, Pitch_bend_c, 10, 14449
7, 70330, Control_c, 10, 1, 2
7, 70340, Pitch_bend_c, 10, 15241
7, 70355, Pitch_bend_c, 10, 15960
7, 70355, Control_c, 10, 1, 7
7, 70365, Pitch_bend_c, 10, 16383
7, 70390, Control_c, 10, 1, 12
7, 70415, Control_c, 10, 1, 17
7, 70535, Control_c, 10, 1, 12
7, 70550, Pitch_bend_c, 10, 14090
7, 70550, Control_c, 10, 1, 4
7, 70560, Note_off_c, 10, 72, 64
7, 70560, Pitch_bend_c, 10, 10853
7, 70560, Control_c, 10, 1, 0
7, 70560, Note_on_c, 10, 72, 113
7, 70570, Pitch_bend_c, 10, 8192
7, 70880, Note_off_c, 10, 72, 64
7, 70880, Note_on_c, 10, 69, 113
7, 70940, Control_c, 10, 1, 4
7, 70950, Control_c, 10, 1, 9
7, 70965, Control_c, 10, 1, 14
7, 70975, Control_c, 10, 1, 19
7, 70990, Control_c, 10, 1, 24
7, 71000, Control_c, 10, 1, 32
7, 71010, Control_c, 10, 1, 37
7, 71025, Control_c, 10, 1, 42
7, 71035, Control_c, 10, 1, 48
7, 71050, Control_c, 10, 1, 54
7, 71100, Control_c, 10, 1, 59
7, 71125, Control_c, 10, 1, 64
7, 71160, Control_c, 10, 1, 69
7, 71220, Control_c, 10, 1, 74
7, 71610, Control_c, 10, 1, 79
7, 71670, Control_c, 10, 1, 73
7, 71680, Note_off_c, 10, 69, 64
7, 71680, Note_on_c, 10, 66, 98
7, 71685, Control_c, 10, 1, 64
7, 71695, Control_c, 10, 1, 49
7, 71710, Control_c, 10, 1, 24
7, 71720, Control_c, 10, 1, 0
7, 71840, Note_off_c, 10, 66, 64
7, 71840, Note_on_c, 10, 69, 89
7, 72000, Note_off_c, 10, 69, 64
7, 72000, Note_on_c, 10, 71, 107
7, 72110, Pitch_bend_c, 10, 8407
7, 72120, Pitch_bend_c, 10, 8767
7, 72135, Pitch_bend_c, 10, 9270
7, 72145, Pitch_bend_c, 10, 9702
7, 72160, Pitch_bend_c, 10, 10134
7, 72170, Pitch_bend_c, 10, 10421
7, 72180, Pitch_bend_c, 10, 10637
7, 72195, Pitch_bend_c, 10, 10997
7, 72205, Pitch_bend_c, 10, 11213
7, 72220, Pitch_bend_c, 10, 11716
7, 72220, Control_c, 10, 1, 4
7, 72230, Pitch_bend_c, 10, 12220
7, 72240, Note_off_c, 10, 71, 64
7, 72245, Pitch_bend_c, 10, 12651
7, 72245, Control_c, 10, 1, 9
7, 72255, Pitch_bend_c, 10, 13083
7, 72270, Pitch_bend_c, 10, 13442
7, 72280, Pitch_bend_c, 10, 13730
7, 72290, Pitch_bend_c, 10, 14162
7, 72305, Pitch_bend_c, 10, 14593
7, 72340, Pitch_bend_c, 10, 14018
7, 72355, Pitch_bend_c, 10, 12867
7, 72355, Control_c, 10, 1, 1
7, 72365, Pitch_bend_c, 10, 11428
7, 72365, Control_c, 10, 1, 0
7, 72380, Pitch_bend_c, 10, 9774
7, 72390, Pitch_bend_c, 10, 8335
7, 72405, Pitch_bend_c, 10, 8192
7, 72645, Pitch_bend_c, 10, 7736
7, 72660, Pitch_bend_c, 10, 4626
7, 72670, Pitch_bend_c, 10, 2199
7, 72685, Pitch_bend_c, 10, 151
7, 72695, Pitch_bend_c, 10, 0
7, 72800, Note_on_c, 10, 76, 127
7, 72815, Pitch_bend_c, 10, 1061
7, 72830, Pitch_bend_c, 10, 2427
7, 72840, Pitch_bend_c, 10, 4323
7, 72855, Pitch_bend_c, 10, 6750
7, 72865, Pitch_bend_c, 10, 8192
7, 72960, Note_off_c, 10, 76, 64
7, 72960, Note_on_c, 10, 81, 113
7, 73120, Note_off_c, 10, 81, 64
7, 73120, Note_on_c, 10, 76, 113
7, 73280, Note_off_c, 10, 76, 64
7, 73280, Note_on_c, 10, 81, 107
7, 73440, Note_off_c, 10, 81, 64
7, 73440, Note_on_c, 10, 76, 113
7, 73600, Note_off_c, 10, 76, 64
7, 73600, Note_on_c, 10, 81, 107
7, 73760, Note_off_c, 10, 81, 64
7, 73760, Note_on_c, 10, 76, 119
7, 73920, Note_off_c, 10, 76, 64
7, 73920, Note_on_c, 10, 79, 119
7, 73975, Pitch_bend_c, 10, 8767
7, 73980, Control_c, 10, 1, 11
7, 73990, Pitch_bend_c, 10, 9846
7, 73990, Control_c, 10, 1, 24
7, 74000, Pitch_bend_c, 10, 11213
7, 74000, Control_c, 10, 1, 41
7, 74015, Pitch_bend_c, 10, 12651
7, 74015, Control_c, 10, 1, 58
7, 74025, Pitch_bend_c, 10, 13946
7, 74025, Control_c, 10, 1, 71
7, 74035, Pitch_bend_c, 10, 15025
7, 74040, Control_c, 10, 1, 84
7, 74050, Pitch_bend_c, 10, 15672
7, 74050, Control_c, 10, 1, 95
7, 74060, Pitch_bend_c, 10, 16176
7, 74065, Control_c, 10, 1, 101
7, 74075, Pitch_bend_c, 10, 16383
7, 74075, Control_c, 10, 1, 106
7, 74135, Control_c, 10, 1, 111
7, 74175, Control_c, 10, 1, 116
7, 74200, Control_c, 10, 1, 121
7, 74220, Control_c, 10, 1, 127
7, 74320, Note_off_c, 10, 79, 64
7, 74400, Note_on_c, 10, 79, 119
7, 74405, Control_c, 10, 1, 121
7, 74505, Control_c, 10, 1, 116
7, 74515, Control_c, 10, 1, 110
7, 74525, Control_c, 10, 1, 98
7, 74540, Pitch_bend_c, 10, 15888
7, 74540, Control_c, 10, 1, 71
7, 74550, Pitch_bend_c, 10, 13370
7, 74550, Control_c, 10, 1, 37
7, 74565, Pitch_bend_c, 10, 10565
7, 74565, Control_c, 10, 1, 9
7, 74575, Pitch_bend_c, 10, 8335
7, 74575, Control_c, 10, 1, 0
7, 74585, Pitch_bend_c, 10, 8192
7, 74720, Note_off_c, 10, 79, 64
7, 74720, Note_on_c, 10, 76, 102
7, 74880, Note_off_c, 10, 76, 64
7, 74880, Note_on_c, 10, 79, 127
7, 74930, Pitch_bend_c, 10, 8263
7, 74940, Pitch_bend_c, 10, 8479
7, 74955, Pitch_bend_c, 10, 8695
7, 74975, Pitch_bend_c, 10, 8983
7, 74990, Pitch_bend_c, 10, 9342
7, 75000, Pitch_bend_c, 10, 9558
7, 75015, Pitch_bend_c, 10, 9846
7, 75025, Pitch_bend_c, 10, 10277
7, 75040, Pitch_bend_c, 10, 10493
7, 75050, Pitch_bend_c, 10, 10781
7, 75060, Pitch_bend_c, 10, 11069
7, 75120, Note_off_c, 10, 79, 64
7, 75125, Pitch_bend_c, 10, 10134
7, 75135, Pitch_bend_c, 10, 8551
7, 75145, Pitch_bend_c, 10, 8192
7, 75200, Note_on_c, 10, 79, 119
7, 75235, Pitch_bend_c, 10, 8839
7, 75245, Pitch_bend_c, 10, 9990
7, 75260, Pitch_bend_c, 10, 10781
7, 75270, Pitch_bend_c, 10, 11284
7, 75280, Pitch_bend_c, 10, 11860
7, 75305, Pitch_bend_c, 10, 11213
7, 75320, Pitch_bend_c, 10, 9630
7, 75330, Pitch_bend_c, 10, 8192
7, 75360, Note_off_c, 10, 79, 64
7, 75360, Note_on_c, 10, 76, 107
7, 75670, Pitch_bend_c, 10, 3413
7, 75685, Pitch_bend_c, 10, 0
7, 76240, Note_off_c, 10, 76, 64
7, 76355, Pitch_bend_c, 10, 379
7, 76365, Pitch_bend_c, 10, 1517
7, 76380, Pitch_bend_c, 10, 3034
7, 76390, Pitch_bend_c, 10, 4475
7, 76400, Note_on_c, 10, 76, 127
7, 76405, Pitch_bend_c, 10, 5916
7, 76415, Pitch_bend_c, 10, 7130
7, 76430, Pitch_bend_c, 10, 8192
7, 76640, Note_off_c, 10, 76, 64
7, 76640, Control_c, 10, 1, 11
7, 76640, Note_on_c, 10, 81, 119
7, 76650, Control_c, 10, 1, 21
7, 76665, Control_c, 10, 1, 36
7, 76675, Control_c, 10, 1, 49
7, 76685, Control_c, 10, 1, 61
7, 76700, Control_c, 10, 1, 74
7, 76710, Control_c, 10, 1, 90
7, 76725, Control_c, 10, 1, 105
7, 76735, Control_c, 10, 1, 115
7, 76750, Control_c, 10, 1, 127
7, 77190, Control_c, 10, 1, 125
7, 77200, Note_off_c, 10, 81, 64
7, 77200, Control_c, 10, 1, 115
7, 77210, Control_c, 10, 1, 103
7, 77225, Control_c, 10, 1, 81
7, 77235, Control_c, 10, 1, 58
7, 77250, Control_c, 10, 1, 32
7, 77260, Control_c, 10, 1, 12
7, 77270, Control_c, 10, 1, 0
7, 77280, Note_on_c, 10, 72, 127
7, 77430, Pitch_bend_c, 10, 8623
7, 77440, Pitch_bend_c, 10, 8839
7, 77490, Pitch_bend_c, 10, 9055
7, 77520, Note_off_c, 10, 72, 64
7, 77530, Pitch_bend_c, 10, 8695
7, 77540, Pitch_bend_c, 10, 8192
7, 77600, Note_on_c, 10, 72, 127
7, 77625, Pitch_bend_c, 10, 9342
7, 77635, Pitch_bend_c, 10, 10062
7, 77650, Pitch_bend_c, 10, 10637
7, 77660, Pitch_bend_c, 10, 10925
7, 77685, Pitch_bend_c, 10, 11141
7, 77700, Pitch_bend_c, 10, 10925
7, 77710, Pitch_bend_c, 10, 9630
7, 77720, Pitch_bend_c, 10, 8192
7, 77760, Note_off_c, 10, 72, 64
7, 77760, Note_on_c, 10, 69, 107
7, 78055, Control_c, 10, 1, 12
7, 78065, Control_c, 10, 1, 26
7, 78080, Control_c, 10, 1, 41
7, 78090, Control_c, 10, 1, 56
7, 78100, Control_c, 10, 1, 66
7, 78115, Control_c, 10, 1, 71
7, 78160, Note_off_c, 10, 69, 64
7, 78165, Control_c, 10, 1, 58
7, 78175, Control_c, 10, 1, 37
7, 78185, Control_c, 10, 1, 14
7, 78200, Control_c, 10, 1, 0
7, 78240, Note_on_c, 10, 69, 102
7, 78400, Note_off_c, 10, 69, 64
7, 78400, Note_on_c, 10, 67, 93
7, 78560, Note_off_c, 10, 67, 64
7, 78560, Note_on_c, 10, 64, 113
7, 78720, Note_off_c, 10, 64, 64
7, 78720, Note_on_c, 10, 69, 107
7, 78880, Note_off_c, 10, 69, 64
7, 78880, Note_on_c, 10, 67, 102
7, 79040, Note_off_c, 10, 67, 64
7, 79040, Note_on_c, 10, 64, 107
7, 79200, Note_off_c, 10, 64, 64
7, 79200, Note_on_c, 10, 67, 127
7, 79235, Pitch_bend_c, 10, 8695
7, 79250, Pitch_bend_c, 10, 9702
7, 79260, Pitch_bend_c, 10, 10349
7, 79275, Pitch_bend_c, 10, 10997
7, 79285, Pitch_bend_c, 10, 11644
7, 79295, Pitch_bend_c, 10, 12435
7, 79310, Pitch_bend_c, 10, 13442
7, 79320, Pitch_bend_c, 10, 14449
7, 79335, Pitch_bend_c, 10, 15600
7, 79345, Pitch_bend_c, 10, 16383
7, 79455, Pitch_bend_c, 10, 15097
7, 79465, Pitch_bend_c, 10, 12148
7, 79480, Pitch_bend_c, 10, 8407
7, 79490, Pitch_bend_c, 10, 8192
7, 79520, Note_off_c, 10, 67, 64
7, 79520, Note_on_c, 10, 64, 119
7, 79640, Control_c, 10, 1, 2
7, 79650, Control_c, 10, 1, 11
7, 79665, Control_c, 10, 1, 19
7, 79675, Control_c, 10, 1, 29
7, 79690, Control_c, 10, 1, 34
7, 79700, Control_c, 10, 1, 41
7, 79715, Control_c, 10, 1, 46
7, 79725, Control_c, 10, 1, 54
7, 79740, Control_c, 10, 1, 61
7, 79750, Control_c, 10, 1, 69
7, 79760, Control_c, 10, 1, 74
7, 79775, Control_c, 10, 1, 81
7, 79810, Control_c, 10, 1, 86
7, 79945, Control_c, 10, 1, 91
7, 79995, Control_c, 10, 1, 96
7, 80065, Control_c, 10, 1, 101
7, 80080, Note_off_c, 10, 64, 64
7, 80140, Control_c, 10, 1, 93
7, 80155, Control_c, 10, 1, 79
7, 80160, Note_on_c, 10, 64, 113
7, 80165, Control_c, 10, 1, 63
7, 80175, Control_c, 10, 1, 37
7, 80190, Control_c, 10, 1, 12
7, 80200, Control_c, 10, 1, 0
7, 80320, Note_off_c, 10, 64, 64
7, 80320, Note_on_c, 10, 66, 107
7, 80480, Note_off_c, 10, 66, 64
7, 80480, Note_on_c, 10, 69, 98
7, 80640, Note_off_c, 10, 69, 64
7, 80640, Note_on_c, 10, 64, 119
7, 80800, Note_off_c, 10, 64, 64
7, 80990, Pitch_bend_c, 10, 6978
7, 81005, Pitch_bend_c, 10, 5309
7, 81020, Pitch_bend_c, 10, 3640
7, 81030, Pitch_bend_c, 10, 2199
7, 81040, Pitch_bend_c, 10, 1592
7, 81055, Pitch_bend_c, 10, 1365
7, 81090, Pitch_bend_c, 10, 1061
7, 81100, Pitch_bend_c, 10, 455
7, 81115, Pitch_bend_c, 10, 0
7, 81120, Note_on_c, 10, 76, 127
7, 81200, Pitch_bend_c, 10, 227
7, 81235, Pitch_bend_c, 10, 530
7, 81260, Pitch_bend_c, 10, 1137
7, 81275, Pitch_bend_c, 10, 1668
7, 81285, Pitch_bend_c, 10, 2199
7, 81300, Pitch_bend_c, 10, 2730
7, 81310, Pitch_bend_c, 10, 3261
7, 81325, Pitch_bend_c, 10, 3944
7, 81335, Pitch_bend_c, 10, 4551
7, 81345, Pitch_bend_c, 10, 5385
7, 81360, Pitch_bend_c, 10, 6826
7, 81370, Pitch_bend_c, 10, 8116
7, 81385, Pitch_bend_c, 10, 8192
7, 81440, Note_on_c, 10, 79, 102
7, 81520, Note_off_c, 10, 76, 64
7, 81565, Pitch_bend_c, 10, 7736
7, 81580, Pitch_bend_c, 10, 4854
7, 81590, Pitch_bend_c, 10, 3109
7, 81600, Note_on_c, 10, 76, 113
7, 81605, Pitch_bend_c, 10, 1896
7, 81615, Pitch_bend_c, 10, 1289
7, 81625, Pitch_bend_c, 10, 1061
7, 81665, Pitch_bend_c, 10, 1365
7, 81680, Note_off_c, 10, 79, 64
7, 81700, Pitch_bend_c, 10, 1668
7, 81725, Pitch_bend_c, 10, 2048
7, 81750, Pitch_bend_c, 10, 2503
7, 81760, Pitch_bend_c, 10, 2806
7, 81775, Pitch_bend_c, 10, 3261
7, 81785, Pitch_bend_c, 10, 3489
7, 81795, Pitch_bend_c, 10, 3792
7, 81810, Pitch_bend_c, 10, 4096
7, 81825, Pitch_bend_c, 10, 4551
7, 81835, Pitch_bend_c, 10, 5233
7, 81845, Pitch_bend_c, 10, 6219
7, 81860, Pitch_bend_c, 10, 7509
7, 81870, Pitch_bend_c, 10, 8192
7, 81920, Note_on_c, 10, 79, 113
7, 82000, Note_off_c, 10, 76, 64
7, 82065, Pitch_bend_c, 10, 8040
7, 82080, Note_off_c, 10, 79, 64
7, 82080, Pitch_bend_c, 10, 6978
7, 82080, Note_on_c, 10, 75, 62
7, 82080, Note_on_c, 10, 76, 98
7, 82090, Pitch_bend_c, 10, 5385
7, 82105, Pitch_bend_c, 10, 4020
7, 82115, Pitch_bend_c, 10, 3109
7, 82130, Pitch_bend_c, 10, 2503
7, 82150, Pitch_bend_c, 10, 2275
7, 82155, Note_off_c, 10, 75, 64
7, 82190, Pitch_bend_c, 10, 2048
7, 82215, Pitch_bend_c, 10, 1820
7, 82275, Pitch_bend_c, 10, 2123
7, 82285, Pitch_bend_c, 10, 2351
7, 82300, Pitch_bend_c, 10, 3034
7, 82310, Pitch_bend_c, 10, 3565
7, 82320, Pitch_bend_c, 10, 4702
7, 82335, Pitch_bend_c, 10, 5764
7, 82345, Pitch_bend_c, 10, 7130
7, 82360, Pitch_bend_c, 10, 8192
7, 82400, Note_on_c, 10, 79, 102
7, 82480, Note_off_c, 10, 76, 64
7, 82560, Note_off_c, 10, 79, 64
7, 82560, Note_on_c, 10, 76, 119
7, 82570, Control_c, 10, 1, 4
7, 82580, Control_c, 10, 1, 17
7, 82595, Control_c, 10, 1, 31
7, 82605, Control_c, 10, 1, 37
7, 82615, Control_c, 10, 1, 48
7, 82630, Control_c, 10, 1, 59
7, 82640, Control_c, 10, 1, 66
7, 82655, Control_c, 10, 1, 73
7, 82665, Control_c, 10, 1, 78
7, 82675, Control_c, 10, 1, 83
7, 82700, Control_c, 10, 1, 91
7, 82715, Control_c, 10, 1, 96
7, 82740, Control_c, 10, 1, 105
7, 82765, Control_c, 10, 1, 110
7, 82875, Control_c, 10, 1, 115
7, 82900, Control_c, 10, 1, 121
7, 82910, Control_c, 10, 1, 127
7, 82960, Control_c, 10, 1, 116
7, 82970, Control_c, 10, 1, 110
7, 82985, Control_c, 10, 1, 100
7, 82995, Control_c, 10, 1, 84
7, 83010, Control_c, 10, 1, 73
7, 83020, Control_c, 10, 1, 64
7, 83030, Control_c, 10, 1, 56
7, 83040, Note_off_c, 10, 76, 64
7, 83045, Control_c, 10, 1, 42
7, 83055, Control_c, 10, 1, 32
7, 83070, Control_c, 10, 1, 19
7, 83080, Control_c, 10, 1, 1
7, 83095, Control_c, 10, 1, 0
7, 83120, Note_on_c, 10, 76, 113
7, 83385, Pitch_bend_c, 10, 6826
7, 83395, Pitch_bend_c, 10, 3034
7, 83410, Pitch_bend_c, 10, 455
7, 83420, Pitch_bend_c, 10, 0
7, 83600, Note_off_c, 10, 76, 64
7, 83665, Pitch_bend_c, 10, 303
7, 83675, Pitch_bend_c, 10, 606
7, 83690, Pitch_bend_c, 10, 910
7, 83700, Pitch_bend_c, 10, 1137
7, 83715, Pitch_bend_c, 10, 1365
7, 83740, Pitch_bend_c, 10, 1744
7, 83750, Pitch_bend_c, 10, 2123
7, 83765, Pitch_bend_c, 10, 2503
7, 83800, Pitch_bend_c, 10, 2123
7, 83810, Pitch_bend_c, 10, 1744
7, 83825, Pitch_bend_c, 10, 1365
7, 83835, Pitch_bend_c, 10, 986
7, 83850, Pitch_bend_c, 10, 455
7, 83860, Pitch_bend_c, 10, 0
7, 84000, Note_on_c, 10, 76, 127
7, 84055, Pitch_bend_c, 10, 758
7, 84065, Pitch_bend_c, 10, 2730
7, 84080, Pitch_bend_c, 10, 4854
7, 84090, Pitch_bend_c, 10, 6902
7, 84105, Pitch_bend_c, 10, 8192
7, 84160, Note_off_c, 10, 76, 64
7, 84160, Note_on_c, 10, 81, 107
7, 84320, Note_off_c, 10, 81, 64
7, 84320, Note_on_c, 10, 76, 113
7, 84480, Note_off_c, 10, 76, 64
7, 84480, Note_on_c, 10, 84, 127
7, 84485, Control_c, 10, 1, 12
7, 84495, Control_c, 10, 1, 22
7, 84510, Control_c, 10, 1, 34
7, 84520, Control_c, 10, 1, 44
7, 84530, Control_c, 10, 1, 59
7, 84545, Control_c, 10, 1, 68
7, 84555, Control_c, 10, 1, 74
7, 84570, Control_c, 10, 1, 83
7, 84595, Control_c, 10, 1, 93
7, 84620, Control_c, 10, 1, 100
7, 84640, Note_off_c, 10, 84, 64
7, 84640, Note_on_c, 10, 81, 107
7, 84665, Control_c, 10, 1, 95
7, 84690, Control_c, 10, 1, 90
7, 84705, Control_c, 10, 1, 84
7, 84730, Control_c, 10, 1, 74
7, 84740, Control_c, 10, 1, 66
7, 84755, Control_c, 10, 1, 51
7, 84765, Control_c, 10, 1, 31
7, 84775, Control_c, 10, 1, 7
7, 84790, Control_c, 10, 1, 0
7, 84800, Note_on_c, 10, 76, 113
7, 84880, Note_off_c, 10, 81, 64
7, 84960, Note_off_c, 10, 76, 64
7, 84960, Note_on_c, 10, 84, 119
7, 85120, Note_off_c, 10, 84, 64
7, 85120, Note_on_c, 10, 81, 107
7, 85280, Note_on_c, 10, 76, 119
7, 85300, Control_c, 10, 1, 2
7, 85315, Control_c, 10, 1, 7
7, 85325, Control_c, 10, 1, 14
7, 85350, Control_c, 10, 1, 24
7, 85360, Note_off_c, 10, 81, 64
7, 85360, Control_c, 10, 1, 29
7, 85375, Control_c, 10, 1, 34
7, 85400, Control_c, 10, 1, 41
7, 85425, Control_c, 10, 1, 48
7, 85440, Note_on_c, 10, 84, 127
7, 85460, Control_c, 10, 1, 42
7, 85485, Control_c, 10, 1, 36
7, 85510, Control_c, 10, 1, 29
7, 85520, Note_off_c, 10, 76, 64
7, 85520, Control_c, 10, 1, 22
7, 85535, Control_c, 10, 1, 16
7, 85545, Control_c, 10, 1, 11
7, 85570, Control_c, 10, 1, 1
7, 85585, Control_c, 10, 1, 0
7, 85600, Note_off_c, 10, 84, 64
7, 85600, Note_on_c, 10, 81, 113
7, 85760, Note_on_c, 10, 76, 113
7, 85840, Note_off_c, 10, 81, 64
7, 85920, Note_on_c, 10, 84, 119
7, 86000, Note_off_c, 10, 76, 64
7, 86080, Note_off_c, 10, 84, 64
7, 86080, Note_on_c, 10, 81, 93
7, 86240, Note_off_c, 10, 81, 64
7, 86240, Note_on_c, 10, 76, 113
7, 86400, Note_off_c, 10, 76, 64
7, 86400, Note_on_c, 10, 86, 119
7, 86580, Pitch_bend_c, 10, 8407
7, 86595, Pitch_bend_c, 10, 8911
7, 86605, Pitch_bend_c, 10, 9486
7, 86620, Pitch_bend_c, 10, 9918
7, 86630, Pitch_bend_c, 10, 10493
7, 86640, Pitch_bend_c, 10, 11069
7, 86655, Pitch_bend_c, 10, 11428
7, 86665, Pitch_bend_c, 10, 11788
7, 86680, Pitch_bend_c, 10, 12004
7, 86690, Pitch_bend_c, 10, 12220
7, 86705, Pitch_bend_c, 10, 12507
7, 86715, Pitch_bend_c, 10, 12867
7, 86730, Pitch_bend_c, 10, 13227
7, 86740, Pitch_bend_c, 10, 13730
7, 86750, Pitch_bend_c, 10, 14234
7, 86765, Pitch_bend_c, 10, 14737
7, 86775, Pitch_bend_c, 10, 15241
7, 86790, Pitch_bend_c, 10, 15816
7, 86800, Pitch_bend_c, 10, 16320
7, 86840, Pitch_bend_c, 10, 15600
7, 86850, Pitch_bend_c, 10, 13730
7, 86860, Pitch_bend_c, 10, 11860
7, 86875, Pitch_bend_c, 10, 10062
7, 86880, Note_off_c, 10, 86, 64
7, 86880, Note_on_c, 10, 84, 113
7, 86885, Pitch_bend_c, 10, 8695
7, 86945, Pitch_bend_c, 10, 9199
7, 86960, Pitch_bend_c, 10, 9702
7, 86970, Pitch_bend_c, 10, 10206
7, 86985, Pitch_bend_c, 10, 10493
7, 86995, Pitch_bend_c, 10, 10997
7, 87010, Pitch_bend_c, 10, 11284
7, 87020, Pitch_bend_c, 10, 11644
7, 87030, Pitch_bend_c, 10, 12004
7, 87045, Pitch_bend_c, 10, 12291
7, 87055, Pitch_bend_c, 10, 12579
7, 87070, Pitch_bend_c, 10, 13011
7, 87080, Pitch_bend_c, 10, 13442
7, 87095, Pitch_bend_c, 10, 13730
7, 87105, Pitch_bend_c, 10, 14305
7, 87120, Pitch_bend_c, 10, 15025
7, 87130, Pitch_bend_c, 10, 15528
7, 87145, Pitch_bend_c, 10, 15888
7, 87155, Pitch_bend_c, 10, 16176
7, 87165, Pitch_bend_c, 10, 16383
7, 87280, Note_off_c, 10, 84, 64
7, 87290, Pitch_bend_c, 10, 15888
7, 87300, Pitch_bend_c, 10, 14018
7, 87315, Pitch_bend_c, 10, 11716
7, 87325, Pitch_bend_c, 10, 9199
7, 87335, Pitch_bend_c, 10, 8192
7, 87360, Note_on_c, 10, 84, 119
7, 87435, Note_off_c, 10, 84, 64
7, 87440, Note_on_c, 10, 81, 107
7, 87475, Control_c, 10, 1, 4
7, 87485, Control_c, 10, 1, 12
7, 87500, Control_c, 10, 1, 19
7, 87510, Control_c, 10, 1, 27
7, 87520, Control_c, 10, 1, 36
7, 87545, Control_c, 10, 1, 44
7, 87560, Control_c, 10, 1, 54
7, 87570, Control_c, 10, 1, 59
7, 87585, Control_c, 10, 1, 66
7, 87595, Control_c, 10, 1, 71
7, 87620, Control_c, 10, 1, 81
7, 87645, Control_c, 10, 1, 86
7, 87655, Control_c, 10, 1, 91
7, 87680, Control_c, 10, 1, 98
7, 87730, Control_c, 10, 1, 103
7, 87760, Note_off_c, 10, 81, 64
7, 87815, Control_c, 10, 1, 98
7, 87840, Note_on_c, 10, 81, 107
7, 87840, Control_c, 10, 1, 90
7, 87850, Control_c, 10, 1, 81
7, 87865, Control_c, 10, 1, 68
7, 87875, Control_c, 10, 1, 54
7, 87890, Control_c, 10, 1, 36
7, 87900, Control_c, 10, 1, 17
7, 87910, Control_c, 10, 1, 2
7, 87925, Control_c, 10, 1, 0
7, 88000, Note_off_c, 10, 81, 64
7, 88000, Note_on_c, 10, 76, 113
7, 88160, Note_off_c, 10, 76, 64
7, 88160, Note_on_c, 10, 78, 113
7, 88320, Note_off_c, 10, 78, 64
7, 88320, Note_on_c, 10, 81, 119
7, 88375, Control_c, 10, 1, 9
7, 88390, Control_c, 10, 1, 17
7, 88400, Control_c, 10, 1, 29
7, 88415, Control_c, 10, 1, 37
7, 88425, Control_c, 10, 1, 44
7, 88440, Control_c, 10, 1, 54
7, 88460, Control_c, 10, 1, 59
7, 88550, Control_c, 10, 1, 64
7, 88585, Control_c, 10, 1, 69
7, 88720, Note_off_c, 10, 81, 64
7, 88755, Control_c, 10, 1, 64
7, 88790, Control_c, 10, 1, 58
7, 88800, Note_on_c, 10, 81, 113
7, 88805, Control_c, 10, 1, 51
7, 88815, Control_c, 10, 1, 39
7, 88830, Control_c, 10, 1, 26
7, 88840, Control_c, 10, 1, 9
7, 88850, Control_c, 10, 1, 0
7, 89120, Note_off_c, 10, 81, 64
7, 89120, Note_on_c, 10, 83, 113
7, 89180, Pitch_bend_c, 10, 8263
7, 89190, Pitch_bend_c, 10, 8479
7, 89230, Pitch_bend_c, 10, 8983
7, 89240, Pitch_bend_c, 10, 9414
7, 89255, Pitch_bend_c, 10, 9918
7, 89265, Pitch_bend_c, 10, 10421
7, 89280, Pitch_bend_c, 10, 10925
7, 89290, Pitch_bend_c, 10, 11284
7, 89305, Pitch_bend_c, 10, 11788
7, 89315, Pitch_bend_c, 10, 12004
7, 89325, Pitch_bend_c, 10, 12220
7, 89330, Control_c, 10, 1, 1
7, 89340, Pitch_bend_c, 10, 12507
7, 89350, Pitch_bend_c, 10, 12939
7, 89360, Note_off_c, 10, 83, 64
7, 89360, Pitch_bend_c, 10, 13442
7, 89375, Pitch_bend_c, 10, 14162
7, 89390, Pitch_bend_c, 10, 14881
7, 89390, Control_c, 10, 1, 6
7, 89400, Pitch_bend_c, 10, 15456
7, 89410, Pitch_bend_c, 10, 15960
7, 89425, Pitch_bend_c, 10, 16383
7, 89570, Pitch_bend_c, 10, 15960
7, 89585, Pitch_bend_c, 10, 15241
7, 89595, Pitch_bend_c, 10, 14377
7, 89605, Pitch_bend_c, 10, 13370
7, 89620, Pitch_bend_c, 10, 12076
7, 89630, Pitch_bend_c, 10, 10565
7, 89635, Control_c, 10, 1, 1
7, 89645, Pitch_bend_c, 10, 9630
7, 89645, Control_c, 10, 1, 0
7, 89655, Pitch_bend_c, 10, 8767
7, 89670, Pitch_bend_c, 10, 8263
7, 89680, Pitch_bend_c, 10, 8192
7, 90080, Note_on_c, 10, 76, 98
7, 90240, Note_off_c, 10, 76, 64
7, 90240, Note_on_c, 10, 79, 119
7, 90305, Control_c, 10, 1, 2
7, 90315, Control_c, 10, 1, 11
7, 90330, Control_c, 10, 1, 17
7, 90340, Control_c, 10, 1, 26
7, 90355, Control_c, 10, 1, 32
7, 90375, Control_c, 10, 1, 37
7, 90425, Control_c, 10, 1, 32
7, 90440, Control_c, 10, 1, 27
7, 90450, Control_c, 10, 1, 19
7, 90465, Control_c, 10, 1, 12
7, 90475, Control_c, 10, 1, 2
7, 90485, Control_c, 10, 1, 0
7, 90640, Note_off_c, 10, 79, 64
7, 90640, Note_on_c, 10, 74, 56
7, 90715, Note_off_c, 10, 74, 64
7, 90720, Note_on_c, 10, 78, 127
7, 91040, Note_off_c, 10, 78, 64
7, 91040, Note_on_c, 10, 76, 119
7, 91085, Control_c, 10, 1, 6
7, 91100, Control_c, 10, 1, 14
7, 91120, Control_c, 10, 1, 22
7, 91135, Control_c, 10, 1, 31
7, 91160, Control_c, 10, 1, 39
7, 91180, Control_c, 10, 1, 51
7, 91195, Control_c, 10, 1, 56
7, 91220, Control_c, 10, 1, 64
7, 91245, Control_c, 10, 1, 73
7, 91270, Control_c, 10, 1, 79
7, 91290, Control_c, 10, 1, 86
7, 91330, Control_c, 10, 1, 93
7, 91525, Control_c, 10, 1, 88
7, 91560, Control_c, 10, 1, 83
7, 91575, Control_c, 10, 1, 74
7, 91585, Control_c, 10, 1, 69
7, 91595, Control_c, 10, 1, 63
7, 91610, Control_c, 10, 1, 56
7, 91625, Control_c, 10, 1, 42
7, 91635, Control_c, 10, 1, 37
7, 91645, Control_c, 10, 1, 31
7, 91660, Control_c, 10, 1, 26
7, 91680, Note_off_c, 10, 76, 64
7, 91680, Note_on_c, 10, 74, 107
7, 91685, Control_c, 10, 1, 19
7, 91730, Control_c, 10, 1, 14
7, 91840, Note_off_c, 10, 74, 64
7, 91840, Note_on_c, 10, 76, 98
7, 91855, Control_c, 10, 1, 9
7, 91890, Control_c, 10, 1, 4
7, 91915, Note_off_c, 10, 76, 64
7, 91965, Control_c, 10, 1, 0
7, 92000, Note_on_c, 10, 72, 102
7, 92000, Note_on_c, 10, 73, 113
7, 92075, Note_off_c, 10, 72, 64
7, 92160, Note_off_c, 10, 73, 64
7, 92160, Note_on_c, 10, 81, 102
7, 92195, Control_c, 10, 1, 1
7, 92210, Control_c, 10, 1, 17
7, 92220, Control_c, 10, 1, 36
7, 92230, Control_c, 10, 1, 58
7, 92245, Control_c, 10, 1, 78
7, 92255, Control_c, 10, 1, 100
7, 92270, Control_c, 10, 1, 115
7, 92280, Control_c, 10, 1, 127
7, 92465, Control_c, 10, 1, 115
7, 92475, Control_c, 10, 1, 101
7, 92490, Control_c, 10, 1, 84
7, 92500, Control_c, 10, 1, 66
7, 92515, Control_c, 10, 1, 37
7, 92525, Control_c, 10, 1, 9
7, 92535, Control_c, 10, 1, 0
7, 92560, Note_off_c, 10, 81, 64
7, 92640, Note_on_c, 10, 67, 113
7, 93120, Note_off_c, 10, 67, 64
7, 93120, Note_on_c, 10, 66, 119
7, 93120, Note_on_c, 10, 67, 72
7, 93185, Control_c, 10, 1, 9
7, 93195, Note_off_c, 10, 67, 64
7, 93195, Control_c, 10, 1, 17
7, 93210, Control_c, 10, 1, 27
7, 93220, Control_c, 10, 1, 37
7, 93230, Control_c, 10, 1, 44
7, 93245, Control_c, 10, 1, 54
7, 93270, Control_c, 10, 1, 59
7, 93305, Control_c, 10, 1, 66
7, 93330, Control_c, 10, 1, 71
7, 93355, Control_c, 10, 1, 76
7, 93500, Control_c, 10, 1, 69
7, 93515, Control_c, 10, 1, 64
7, 93525, Control_c, 10, 1, 54
7, 93540, Control_c, 10, 1, 36
7, 93550, Control_c, 10, 1, 19
7, 93565, Control_c, 10, 1, 0
7, 93600, Note_off_c, 10, 66, 64
7, 93600, Note_on_c, 10, 65, 102
7, 93745, Control_c, 10, 1, 6
7, 93755, Control_c, 10, 1, 14
7, 93770, Control_c, 10, 1, 22
7, 93780, Control_c, 10, 1, 32
7, 93805, Control_c, 10, 1, 39
7, 93855, Control_c, 10, 1, 44
7, 93865, Control_c, 10, 1, 51
7, 93890, Control_c, 10, 1, 59
7, 93905, Control_c, 10, 1, 68
7, 93915, Control_c, 10, 1, 74
7, 93930, Control_c, 10, 1, 83
7, 93955, Control_c, 10, 1, 91
7, 93975, Control_c, 10, 1, 83
7, 93990, Control_c, 10, 1, 71
7, 94000, Control_c, 10, 1, 54
7, 94015, Control_c, 10, 1, 32
7, 94025, Control_c, 10, 1, 11
7, 94040, Control_c, 10, 1, 0
7, 94080, Note_off_c, 10, 65, 64
7, 94080, Note_on_c, 10, 64, 102
7, 94240, Note_off_c, 10, 64, 64
7, 94240, Note_on_c, 10, 73, 113
7, 94400, Note_off_c, 10, 73, 64
7, 94400, Note_on_c, 10, 64, 113
7, 94560, Note_off_c, 10, 64, 64
7, 94560, Note_on_c, 10, 73, 107
7, 94720, Note_off_c, 10, 73, 64
7, 94720, Note_on_c, 10, 64, 113
7, 94880, Note_off_c, 10, 64, 64
7, 94880, Note_on_c, 10, 73, 119
7, 94965, Control_c, 10, 1, 2
7, 94990, Control_c, 10, 1, 11
7, 95015, Control_c, 10, 1, 16
7, 95040, Note_off_c, 10, 73, 64
7, 95040, Note_on_c, 10, 64, 107
7, 95040, Note_on_c, 10, 68, 52
7, 95065, Control_c, 10, 1, 21
7, 95110, Control_c, 10, 1, 26
7, 95115, Note_off_c, 10, 68, 64
7, 95150, Control_c, 10, 1, 34
7, 95200, Note_off_c, 10, 64, 64
7, 95200, Note_on_c, 10, 73, 119
7, 95235, Control_c, 10, 1, 39
7, 95360, Note_off_c, 10, 73, 64
7, 95360, Note_on_c, 10, 64, 119
7, 95520, Note_off_c, 10, 64, 64
7, 95520, Note_on_c, 10, 73, 113
7, 95680, Note_off_c, 10, 73, 64
7, 95680, Note_on_c, 10, 64, 107
7, 95840, Note_off_c, 10, 64, 64
7, 95840, Note_on_c, 10, 73, 127
7, 96000, Note_off_c, 10, 73, 64
7, 96000, Note_on_c, 10, 64, 113
7, 96160, Note_off_c, 10, 64, 64
7, 96160, Note_on_c, 10, 73, 113
7, 96260, Control_c, 10, 1, 44
7, 96320, Note_off_c, 10, 73, 64
7, 96320, Note_on_c, 10, 64, 107
7, 96480, Note_off_c, 10, 64, 64
7, 96480, Note_on_c, 10, 73, 107
7, 96640, Note_off_c, 10, 73, 64
7, 96640, Note_on_c, 10, 64, 107
7, 96800, Note_off_c, 10, 64, 64
7, 96800, Note_on_c, 10, 73, 113
7, 96905, Control_c, 10, 1, 39
7, 96960, Note_off_c, 10, 73, 64
7, 96960, Note_on_c, 10, 64, 107
7, 96965, Control_c, 10, 1, 32
7, 97120, Note_off_c, 10, 64, 64
7, 97120, Note_on_c, 10, 73, 113
7, 97280, Note_off_c, 10, 73, 64
7, 97280, Note_on_c, 10, 64, 107
7, 97440, Note_off_c, 10, 64, 64
7, 97440, Note_on_c, 10, 73, 113
7, 97600, Note_off_c, 10, 73, 64
7, 97600, Note_on_c, 10, 64, 107
7, 97760, Note_on_c, 10, 73, 102
7, 97840, Note_off_c, 10, 64, 64
7, 97920, Note_off_c, 10, 73, 64
7, 97920, Note_on_c, 10, 66, 107
7, 97940, Control_c, 10, 1, 27
7, 98030, Control_c, 10, 1, 22
7, 98065, Control_c, 10, 1, 17
7, 98080, Note_off_c, 10, 66, 64
7, 98080, Note_on_c, 10, 74, 102
7, 98115, Control_c, 10, 1, 12
7, 98150, Control_c, 10, 1, 6
7, 98185, Control_c, 10, 1, 1
7, 98240, Note_off_c, 10, 74, 64
7, 98240, Note_on_c, 10, 66, 107
7, 98260, Control_c, 10, 1, 6
7, 98310, Control_c, 10, 1, 12
7, 98400, Note_off_c, 10, 66, 64
7, 98400, Note_on_c, 10, 74, 85
7, 98405, Control_c, 10, 1, 19
7, 98445, Control_c, 10, 1, 24
7, 98465, Control_c, 10, 1, 31
7, 98560, Note_off_c, 10, 74, 64
7, 98560, Note_on_c, 10, 66, 107
7, 98720, Note_off_c, 10, 66, 64
7, 98720, Note_on_c, 10, 74, 102
7, 98880, Note_off_c, 10, 74, 64
7, 98880, Note_on_c, 10, 66, 102
7, 99040, Note_off_c, 10, 66, 64
7, 99040, Note_on_c, 10, 74, 102
7, 99200, Note_off_c, 10, 74, 64
7, 99200, Note_on_c, 10, 66, 102
7, 99360, Note_off_c, 10, 66, 64
7, 99360, Note_on_c, 10, 74, 89
7, 99520, Note_off_c, 10, 74, 64
7, 99520, Note_on_c, 10, 66, 113
7, 99615, Control_c, 10, 1, 36
7, 99680, Note_on_c, 10, 74, 107
7, 99700, Control_c, 10, 1, 41
7, 99775, Control_c, 10, 1, 34
7, 99800, Control_c, 10, 1, 21
7, 99810, Control_c, 10, 1, 14
7, 99820, Control_c, 10, 1, 2
7, 99835, Control_c, 10, 1, 0
7, 99840, Note_off_c, 10, 74, 64
7, 99840, Note_off_c, 10, 66, 64
7, 99840, Note_on_c, 10, 64, 127
7, 100000, Note_on_c, 10, 72, 102
7, 100080, Note_off_c, 10, 64, 64
7, 100160, Note_off_c, 10, 72, 64
7, 100160, Note_on_c, 10, 64, 107
7, 100320, Note_on_c, 10, 72, 102
7, 100400, Note_off_c, 10, 64, 64
7, 100420, Control_c, 10, 1, 2
7, 100445, Control_c, 10, 1, 7
7, 100480, Note_on_c, 10, 64, 93
7, 100560, Note_off_c, 10, 72, 64
7, 100640, Note_off_c, 10, 64, 64
7, 100640, Note_on_c, 10, 72, 107
7, 100750, Control_c, 10, 1, 14
7, 100800, Note_off_c, 10, 72, 64
7, 100800, Note_on_c, 10, 64, 102
7, 100945, Control_c, 10, 1, 19
7, 100960, Note_off_c, 10, 64, 64
7, 100960, Note_on_c, 10, 72, 107
7, 101055, Control_c, 10, 1, 24
7, 101120, Note_off_c, 10, 72, 64
7, 101120, Note_on_c, 10, 64, 107
7, 101280, Note_off_c, 10, 64, 64
7, 101280, Note_on_c, 10, 72, 107
7, 101310, Control_c, 10, 1, 19
7, 101440, Note_off_c, 10, 72, 64
7, 101440, Note_on_c, 10, 64, 119
7, 101455, Control_c, 10, 1, 14
7, 101555, Control_c, 10, 1, 7
7, 101580, Control_c, 10, 1, 0
7, 101600, Note_off_c, 10, 64, 64
7, 101600, Note_on_c, 10, 72, 102
7, 101675, Note_off_c, 10, 72, 64
7, 101760, Note_on_c, 10, 74, 119
7, 101860, Pitch_bend_c, 10, 8263
7, 101885, Pitch_bend_c, 10, 8551
7, 101895, Pitch_bend_c, 10, 8839
7, 101905, Pitch_bend_c, 10, 9342
7, 101920, Pitch_bend_c, 10, 9846
7, 101930, Pitch_bend_c, 10, 10349
7, 101945, Pitch_bend_c, 10, 10709
7, 101955, Pitch_bend_c, 10, 10997
7, 101970, Pitch_bend_c, 10, 11213
7, 101980, Pitch_bend_c, 10, 11428
7, 101990, Pitch_bend_c, 10, 11860
7, 102005, Pitch_bend_c, 10, 12220
7, 102015, Pitch_bend_c, 10, 12723
7, 102030, Pitch_bend_c, 10, 13155
7, 102040, Pitch_bend_c, 10, 13658
7, 102055, Pitch_bend_c, 10, 14234
7, 102065, Pitch_bend_c, 10, 15025
7, 102075, Pitch_bend_c, 10, 15672
7, 102090, Pitch_bend_c, 10, 16248
7, 102100, Pitch_bend_c, 10, 16383
7, 102160, Note_off_c, 10, 74, 64
7, 102175, Pitch_bend_c, 10, 15528
7, 102185, Pitch_bend_c, 10, 13514
7, 102200, Pitch_bend_c, 10, 11141
7, 102210, Pitch_bend_c, 10, 9127
7, 102225, Pitch_bend_c, 10, 8407
7, 102240, Note_on_c, 10, 72, 113
7, 102250, Pitch_bend_c, 10, 9127
7, 102260, Pitch_bend_c, 10, 10206
7, 102275, Pitch_bend_c, 10, 10925
7, 102285, Pitch_bend_c, 10, 11213
7, 102300, Pitch_bend_c, 10, 11428
7, 102310, Pitch_bend_c, 10, 11644
7, 102320, Pitch_bend_c, 10, 12004
7, 102335, Pitch_bend_c, 10, 12651
7, 102345, Pitch_bend_c, 10, 13227
7, 102360, Pitch_bend_c, 10, 13730
7, 102370, Pitch_bend_c, 10, 13946
7, 102385, Pitch_bend_c, 10, 14234
7, 102395, Pitch_bend_c, 10, 14449
7, 102410, Pitch_bend_c, 10, 14881
7, 102420, Pitch_bend_c, 10, 15097
7, 102430, Pitch_bend_c, 10, 15384
7, 102455, Pitch_bend_c, 10, 15816
7, 102470, Pitch_bend_c, 10, 16104
7, 102480, Pitch_bend_c, 10, 16383
7, 102530, Control_c, 10, 1, 1
7, 102640, Note_off_c, 10, 72, 64
7, 102655, Control_c, 10, 1, 0
7, 102690, Pitch_bend_c, 10, 14809
7, 102690, Control_c, 10, 1, 1
7, 102700, Pitch_bend_c, 10, 11284
7, 102710, Pitch_bend_c, 10, 8192
7, 102715, Control_c, 10, 1, 0
7, 102720, Note_on_c, 10, 72, 113
7, 102810, Control_c, 10, 1, 17
7, 102825, Control_c, 10, 1, 39
7, 102835, Control_c, 10, 1, 64
7, 102850, Control_c, 10, 1, 81
7, 102860, Control_c, 10, 1, 98
7, 102875, Control_c, 10, 1, 108
7, 102885, Control_c, 10, 1, 113
7, 102920, Control_c, 10, 1, 118
7, 102945, Control_c, 10, 1, 127
7, 103090, Control_c, 10, 1, 121
7, 103105, Control_c, 10, 1, 116
7, 103115, Control_c, 10, 1, 110
7, 103130, Control_c, 10, 1, 101
7, 103140, Control_c, 10, 1, 86
7, 103155, Control_c, 10, 1, 74
7, 103165, Control_c, 10, 1, 63
7, 103180, Control_c, 10, 1, 54
7, 103190, Control_c, 10, 1, 42
7, 103200, Note_off_c, 10, 72, 64
7, 103200, Control_c, 10, 1, 32
7, 103200, Note_on_c, 10, 69, 107
7, 103215, Control_c, 10, 1, 24
7, 103225, Control_c, 10, 1, 16
7, 103240, Control_c, 10, 1, 7
7, 103250, Control_c, 10, 1, 0
7, 103360, Note_off_c, 10, 69, 64
7, 103360, Note_on_c, 10, 64, 107
7, 103520, Note_off_c, 10, 64, 64
7, 103520, Note_on_c, 10, 66, 119
7, 103680, Note_off_c, 10, 66, 64
7, 103680, Note_on_c, 10, 64, 119
7, 103750, Control_c, 10, 1, 1
7, 103760, Control_c, 10, 1, 9
7, 103775, Control_c, 10, 1, 16
7, 103785, Control_c, 10, 1, 21
7, 103800, Control_c, 10, 1, 27
7, 103835, Control_c, 10, 1, 32
7, 103885, Control_c, 10, 1, 37
7, 103910, Control_c, 10, 1, 42
7, 103920, Note_off_c, 10, 64, 64
7, 103945, Control_c, 10, 1, 34
7, 103960, Control_c, 10, 1, 21
7, 103970, Control_c, 10, 1, 7
7, 103985, Control_c, 10, 1, 0
7, 104320, Note_on_c, 10, 72, 127
7, 104395, Pitch_bend_c, 10, 8911
7, 104410, Pitch_bend_c, 10, 9846
7, 104420, Pitch_bend_c, 10, 11213
7, 104435, Pitch_bend_c, 10, 12579
7, 104445, Pitch_bend_c, 10, 13442
7, 104455, Pitch_bend_c, 10, 13083
7, 104470, Pitch_bend_c, 10, 10925
7, 104480, Note_off_c, 10, 72, 64
7, 104480, Note_on_c, 10, 76, 107
7, 104480, Pitch_bend_c, 10, 8192
7, 104640, Note_off_c, 10, 76, 64
7, 104640, Note_on_c, 10, 72, 113
7, 104800, Note_off_c, 10, 72, 64
7, 104800, Note_on_c, 10, 69, 113
7, 104960, Note_off_c, 10, 69, 64
7, 104960, Note_on_c, 10, 66, 119
7, 105120, Note_off_c, 10, 66, 64
7, 105120, Note_on_c, 10, 64, 113
7, 105140, Control_c, 10, 1, 1
7, 105155, Control_c, 10, 1, 11
7, 105165, Control_c, 10, 1, 19
7, 105180, Control_c, 10, 1, 31
7, 105190, Control_c, 10, 1, 37
7, 105205, Control_c, 10, 1, 44
7, 105215, Control_c, 10, 1, 56
7, 105225, Control_c, 10, 1, 61
7, 105240, Control_c, 10, 1, 66
7, 105250, Control_c, 10, 1, 71
7, 105290, Control_c, 10, 1, 79
7, 105325, Control_c, 10, 1, 86
7, 105350, Control_c, 10, 1, 91
7, 105375, Control_c, 10, 1, 86
7, 105400, Control_c, 10, 1, 81
7, 105420, Control_c, 10, 1, 74
7, 105435, Control_c, 10, 1, 69
7, 105450, Control_c, 10, 1, 63
7, 105460, Control_c, 10, 1, 54
7, 105470, Control_c, 10, 1, 41
7, 105485, Control_c, 10, 1, 32
7, 105495, Control_c, 10, 1, 24
7, 105510, Control_c, 10, 1, 12
7, 105520, Control_c, 10, 1, 0
7, 105600, Note_off_c, 10, 64, 64
7, 105600, Note_on_c, 10, 67, 119
7, 105800, Pitch_bend_c, 10, 8263
7, 105825, Pitch_bend_c, 10, 8551
7, 105835, Pitch_bend_c, 10, 8839
7, 105850, Pitch_bend_c, 10, 9342
7, 105860, Pitch_bend_c, 10, 9774
7, 105870, Pitch_bend_c, 10, 10349
7, 105895, Pitch_bend_c, 10, 10637
7, 105920, Pitch_bend_c, 10, 10853
7, 105945, Pitch_bend_c, 10, 11069
7, 105995, Pitch_bend_c, 10, 10349
7, 106000, Note_off_c, 10, 67, 64
7, 106005, Pitch_bend_c, 10, 9342
7, 106020, Pitch_bend_c, 10, 8407
7, 106030, Pitch_bend_c, 10, 8192
7, 106080, Note_on_c, 10, 67, 119
7, 106165, Pitch_bend_c, 10, 8479
7, 106180, Pitch_bend_c, 10, 8839
7, 106190, Pitch_bend_c, 10, 9342
7, 106200, Pitch_bend_c, 10, 9774
7, 106215, Pitch_bend_c, 10, 10134
7, 106225, Pitch_bend_c, 10, 10349
7, 106240, Pitch_bend_c, 10, 10565
7, 106275, Pitch_bend_c, 10, 10781
7, 106310, Pitch_bend_c, 10, 10565
7, 106325, Pitch_bend_c, 10, 9774
7, 106335, Pitch_bend_c, 10, 8263
7, 106350, Pitch_bend_c, 10, 8192
7, 106400, Note_off_c, 10, 67, 64
7, 106400, Note_on_c, 10, 66, 113
7, 106560, Note_off_c, 10, 66, 64
7, 106560, Note_on_c, 10, 64, 107
7, 106570, Control_c, 10, 1, 6
7, 106580, Control_c, 10, 1, 14
7, 106605, Control_c, 10, 1, 24
7, 106620, Control_c, 10, 1, 34
7, 106630, Control_c, 10, 1, 41
7, 106645, Control_c, 10, 1, 54
7, 106670, Control_c, 10, 1, 66
7, 106690, Control_c, 10, 1, 73
7, 106730, Control_c, 10, 1, 78
7, 106840, Control_c, 10, 1, 71
7, 106850, Control_c, 10, 1, 63
7, 106860, Control_c, 10, 1, 54
7, 106875, Control_c, 10, 1, 37
7, 106885, Control_c, 10, 1, 24
7, 106900, Control_c, 10, 1, 9
7, 106910, Control_c, 10, 1, 0
7, 107020, Pitch_bend_c, 10, 7205
7, 107030, Pitch_bend_c, 10, 4626
7, 107040, Note_off_c, 10, 64, 64
7, 107045, Pitch_bend_c, 10, 2199
7, 107055, Pitch_bend_c, 10, 227
7, 107070, Pitch_bend_c, 10, 0
7, 107120, Note_on_c, 10, 64, 119
7, 107130, Pitch_bend_c, 10, 758
7, 107140, Pitch_bend_c, 10, 1517
7, 107155, Pitch_bend_c, 10, 2351
7, 107165, Pitch_bend_c, 10, 3261
7, 107180, Pitch_bend_c, 10, 3868
7, 107190, Pitch_bend_c, 10, 4778
7, 107200, Pitch_bend_c, 10, 5537
7, 107215, Pitch_bend_c, 10, 6219
7, 107225, Pitch_bend_c, 10, 7054
7, 107240, Pitch_bend_c, 10, 7888
7, 107250, Pitch_bend_c, 10, 8192
7, 107360, Note_off_c, 10, 64, 64
7, 107360, Note_on_c, 10, 69, 119
7, 107425, Control_c, 10, 1, 14
7, 107435, Control_c, 10, 1, 27
7, 107450, Control_c, 10, 1, 41
7, 107460, Control_c, 10, 1, 61
7, 107470, Control_c, 10, 1, 74
7, 107485, Control_c, 10, 1, 86
7, 107495, Control_c, 10, 1, 100
7, 107510, Control_c, 10, 1, 108
7, 107520, Control_c, 10, 1, 115
7, 107535, Control_c, 10, 1, 120
7, 107545, Control_c, 10, 1, 127
7, 107755, Control_c, 10, 1, 120
7, 107765, Control_c, 10, 1, 103
7, 107780, Control_c, 10, 1, 83
7, 107790, Control_c, 10, 1, 58
7, 107800, Control_c, 10, 1, 29
7, 107815, Control_c, 10, 1, 2
7, 107825, Control_c, 10, 1, 0
7, 107840, Note_off_c, 10, 69, 64
7, 107840, Note_on_c, 10, 64, 113
7, 108000, Note_off_c, 10, 64, 64
7, 108000, Note_on_c, 10, 67, 119
7, 108030, Pitch_bend_c, 10, 8479
7, 108045, Pitch_bend_c, 10, 9486
7, 108055, Pitch_bend_c, 10, 10709
7, 108070, Pitch_bend_c, 10, 12076
7, 108080, Pitch_bend_c, 10, 13155
7, 108095, Pitch_bend_c, 10, 14090
7, 108095, Control_c, 10, 1, 1
7, 108105, Pitch_bend_c, 10, 14809
7, 108105, Control_c, 10, 1, 7
7, 108120, Pitch_bend_c, 10, 15025
7, 108140, Pitch_bend_c, 10, 15241
7, 108155, Pitch_bend_c, 10, 15744
7, 108165, Pitch_bend_c, 10, 16320
7, 108180, Pitch_bend_c, 10, 16383
7, 108385, Pitch_bend_c, 10, 15888
7, 108390, Control_c, 10, 1, 1
7, 108400, Note_off_c, 10, 67, 64
7, 108400, Pitch_bend_c, 10, 14449
7, 108400, Control_c, 10, 1, 0
7, 108410, Pitch_bend_c, 10, 12867
7, 108420, Pitch_bend_c, 10, 10781
7, 108435, Pitch_bend_c, 10, 9055
7, 108445, Pitch_bend_c, 10, 8192
7, 108480, Note_on_c, 10, 67, 113
7, 108520, Pitch_bend_c, 10, 9270
7, 108535, Pitch_bend_c, 10, 12076
7, 108545, Pitch_bend_c, 10, 16248
7, 108555, Pitch_bend_c, 10, 16383
7, 108560, Control_c, 10, 1, 1
7, 108585, Control_c, 10, 1, 6
7, 108620, Control_c, 10, 1, 1
7, 108645, Pitch_bend_c, 10, 14953
7, 108655, Pitch_bend_c, 10, 11428
7, 108665, Pitch_bend_c, 10, 8479
7, 108670, Control_c, 10, 1, 0
7, 108680, Pitch_bend_c, 10, 8192
7, 108800, Note_off_c, 10, 67, 64
7, 108800, Note_on_c, 10, 64, 107
7, 108960, Note_off_c, 10, 64, 64
7, 108960, Note_on_c, 10, 62, 113
7, 109120, Note_off_c, 10, 62, 64
7, 109120, Note_on_c, 10, 60, 113
7, 109195, Note_off_c, 10, 60, 64
7, 109280, Note_on_c, 10, 62, 113
7, 109355, Note_off_c, 10, 62, 64
7, 109440, Note_on_c, 10, 60, 127
7, 109605, Pitch_bend_c, 10, 8263
7, 109640, Pitch_bend_c, 10, 8479
7, 109680, Pitch_bend_c, 10, 8695
7, 109715, Pitch_bend_c, 10, 8911
7, 109740, Pitch_bend_c, 10, 9127
7, 109755, Pitch_bend_c, 10, 9342
7, 109765, Pitch_bend_c, 10, 9630
7, 109775, Pitch_bend_c, 10, 9918
7, 109790, Pitch_bend_c, 10, 10277
7, 109800, Pitch_bend_c, 10, 10493
7, 109825, Pitch_bend_c, 10, 10709
7, 109850, Pitch_bend_c, 10, 10925
7, 109875, Pitch_bend_c, 10, 9918
7, 109885, Pitch_bend_c, 10, 8192
7, 109920, Note_off_c, 10, 60, 64
7, 109920, Note_on_c, 10, 57, 113
7, 110160, Note_off_c, 10, 57, 64
7, 110240, Note_on_c, 10, 52, 127
7, 110465, Control_c, 10, 1, 4
7, 110510, Control_c, 10, 1, 9
7, 110535, Control_c, 10, 1, 16
7, 110570, Control_c, 10, 1, 21
7, 110595, Control_c, 10, 1, 26
7, 110610, Control_c, 10, 1, 32
7, 110635, Control_c, 10, 1, 39
7, 110645, Control_c, 10, 1, 44
7, 110655, Control_c, 10, 1, 54
7, 110680, Control_c, 10, 1, 61
7, 110705, Control_c, 10, 1, 66
7, 110755, Control_c, 10, 1, 71
7, 110780, Control_c, 10, 1, 79
7, 110790, Control_c, 10, 1, 84
7, 110805, Control_c, 10, 1, 90
7, 110855, Control_c, 10, 1, 95
7, 110880, Note_off_c, 10, 52, 64
7, 110890, Control_c, 10, 1, 84
7, 110900, Control_c, 10, 1, 73
7, 110915, Control_c, 10, 1, 58
7, 110925, Control_c, 10, 1, 11
7, 110940, Control_c, 10, 1, 0
7, 142080, Note_on_c, 10, 79, 127
7, 142155, Pitch_bend_c, 10, 8263
7, 142165, Pitch_bend_c, 10, 8623
7, 142175, Pitch_bend_c, 10, 9055
7, 142190, Pitch_bend_c, 10, 9774
7, 142200, Pitch_bend_c, 10, 10637
7, 142215, Pitch_bend_c, 10, 11716
7, 142225, Pitch_bend_c, 10, 12939
7, 142230, Control_c, 10, 1, 2
7, 142240, Pitch_bend_c, 10, 14090
7, 142240, Control_c, 10, 1, 9
7, 142250, Pitch_bend_c, 10, 15312
7, 142250, Control_c, 10, 1, 16
7, 142265, Pitch_bend_c, 10, 16383
7, 142275, Control_c, 10, 1, 24
7, 142315, Control_c, 10, 1, 29
7, 142340, Control_c, 10, 1, 22
7, 142385, Pitch_bend_c, 10, 15097
7, 142385, Control_c, 10, 1, 16
7, 142400, Note_off_c, 10, 79, 64
7, 142400, Pitch_bend_c, 10, 12651
7, 142400, Control_c, 10, 1, 7
7, 142400, Note_on_c, 10, 79, 127
7, 142410, Pitch_bend_c, 10, 10925
7, 142410, Control_c, 10, 1, 0
7, 142420, Pitch_bend_c, 10, 10493
7, 142475, Note_off_c, 10, 79, 64
7, 142495, Pitch_bend_c, 10, 10997
7, 142495, Control_c, 10, 1, 1
7, 142510, Pitch_bend_c, 10, 11284
7, 142520, Pitch_bend_c, 10, 11860
7, 142520, Control_c, 10, 1, 6
7, 142530, Pitch_bend_c, 10, 12435
7, 142545, Pitch_bend_c, 10, 13298
7, 142555, Pitch_bend_c, 10, 14162
7, 142560, Note_on_c, 10, 79, 119
7, 142570, Pitch_bend_c, 10, 15025
7, 142580, Pitch_bend_c, 10, 15744
7, 142585, Control_c, 10, 1, 16
7, 142590, Pitch_bend_c, 10, 16383
7, 142595, Control_c, 10, 1, 24
7, 142605, Control_c, 10, 1, 32
7, 142620, Control_c, 10, 1, 39
7, 142630, Control_c, 10, 1, 49
7, 142645, Control_c, 10, 1, 58
7, 142655, Control_c, 10, 1, 63
7, 142715, Control_c, 10, 1, 58
7, 142730, Control_c, 10, 1, 49
7, 142740, Pitch_bend_c, 10, 14881
7, 142740, Control_c, 10, 1, 37
7, 142750, Pitch_bend_c, 10, 12004
7, 142755, Control_c, 10, 1, 22
7, 142765, Pitch_bend_c, 10, 8911
7, 142765, Control_c, 10, 1, 7
7, 142775, Pitch_bend_c, 10, 8192
7, 142775, Control_c, 10, 1, 0
7, 142880, Note_off_c, 10, 79, 64
7, 142880, Note_on_c, 10, 76, 113
7, 143040, Note_off_c, 10, 76, 64
7, 143040, Note_on_c, 10, 79, 119
7, 143095, Pitch_bend_c, 10, 8335
7, 143105, Pitch_bend_c, 10, 8623
7, 143115, Pitch_bend_c, 10, 9055
7, 143130, Pitch_bend_c, 10, 9414
7, 143140, Pitch_bend_c, 10, 9918
7, 143155, Pitch_bend_c, 10, 10493
7, 143155, Control_c, 10, 1, 6
7, 143165, Pitch_bend_c, 10, 11069
7, 143170, Control_c, 10, 1, 16
7, 143180, Pitch_bend_c, 10, 11428
7, 143180, Control_c, 10, 1, 22
7, 143190, Pitch_bend_c, 10, 11932
7, 143190, Control_c, 10, 1, 31
7, 143205, Pitch_bend_c, 10, 12291
7, 143215, Pitch_bend_c, 10, 12723
7, 143225, Pitch_bend_c, 10, 13083
7, 143230, Control_c, 10, 1, 36
7, 143240, Pitch_bend_c, 10, 13442
7, 143250, Pitch_bend_c, 10, 13730
7, 143265, Pitch_bend_c, 10, 14018
7, 143265, Control_c, 10, 1, 41
7, 143275, Pitch_bend_c, 10, 14234
7, 143290, Pitch_bend_c, 10, 14449
7, 143290, Control_c, 10, 1, 51
7, 143300, Pitch_bend_c, 10, 14881
7, 143300, Control_c, 10, 1, 58
7, 143315, Pitch_bend_c, 10, 15241
7, 143315, Control_c, 10, 1, 63
7, 143325, Pitch_bend_c, 10, 15744
7, 143325, Control_c, 10, 1, 69
7, 143335, Pitch_bend_c, 10, 16320
7, 143340, Control_c, 10, 1, 74
7, 143350, Pitch_bend_c, 10, 16383
7, 143350, Control_c, 10, 1, 79
7, 143365, Control_c, 10, 1, 84
7, 143390, Control_c, 10, 1, 93
7, 143425, Control_c, 10, 1, 98
7, 143475, Control_c, 10, 1, 103
7, 143510, Control_c, 10, 1, 108
7, 143645, Control_c, 10, 1, 113
7, 143815, Control_c, 10, 1, 108
7, 143840, Note_off_c, 10, 79, 64
7, 143840, Control_c, 10, 1, 100
7, 143850, Control_c, 10, 1, 93
7, 143865, Control_c, 10, 1, 83
7, 143875, Control_c, 10, 1, 78
7, 143885, Control_c, 10, 1, 69
7, 143900, Pitch_bend_c, 10, 15960
7, 143900, Control_c, 10, 1, 59
7, 143910, Pitch_bend_c, 10, 14665
7, 143915, Control_c, 10, 1, 41
7, 143920, Pitch_bend_c, 10, 12795
7, 143925, Control_c, 10, 1, 27
7, 143935, Pitch_bend_c, 10, 10781
7, 143935, Control_c, 10, 1, 12
7, 143945, Pitch_bend_c, 10, 9342
7, 143950, Control_c, 10, 1, 0
7, 143960, Pitch_bend_c, 10, 8479
7, 143995, Pitch_bend_c, 10, 9702
7, 144000, Note_on_c, 10, 74, 127
7, 144010, Pitch_bend_c, 10, 10997
7, 144020, Pitch_bend_c, 10, 12004
7, 144035, Pitch_bend_c, 10, 12723
7, 144035, Control_c, 10, 1, 2
7, 144045, Pitch_bend_c, 10, 13874
7, 144045, Control_c, 10, 1, 12
7, 144055, Pitch_bend_c, 10, 15097
7, 144060, Control_c, 10, 1, 22
7, 144070, Pitch_bend_c, 10, 16176
7, 144070, Control_c, 10, 1, 34
7, 144080, Pitch_bend_c, 10, 16383
7, 144085, Control_c, 10, 1, 39
7, 144130, Control_c, 10, 1, 44
7, 144160, Note_off_c, 10, 74, 64
7, 144160, Note_on_c, 10, 74, 113
7, 144195, Control_c, 10, 1, 49
7, 144220, Control_c, 10, 1, 54
7, 144235, Note_off_c, 10, 74, 64
7, 144240, Control_c, 10, 1, 59
7, 144275, Control_c, 10, 1, 64
7, 144320, Note_on_c, 10, 74, 113
7, 144395, Note_off_c, 10, 74, 64
7, 144480, Note_on_c, 10, 74, 113
7, 144555, Note_off_c, 10, 74, 64
7, 144640, Note_on_c, 10, 74, 113
7, 144715, Note_off_c, 10, 74, 64
7, 144800, Note_on_c, 10, 74, 107
7, 144875, Note_off_c, 10, 74, 64
7, 144960, Note_on_c, 10, 74, 113
7, 144985, Control_c, 10, 1, 58
7, 145035, Note_off_c, 10, 74, 64
7, 145045, Control_c, 10, 1, 51
7, 145070, Control_c, 10, 1, 44
7, 145095, Control_c, 10, 1, 39
7, 145120, Note_on_c, 10, 74, 107
7, 145135, Control_c, 10, 1, 34
7, 145195, Note_off_c, 10, 74, 64
7, 145215, Control_c, 10, 1, 29
7, 145240, Control_c, 10, 1, 22
7, 145280, Note_on_c, 10, 74, 113
7, 145280, Control_c, 10, 1, 17
7, 145355, Note_off_c, 10, 74, 64
7, 145390, Control_c, 10, 1, 11
7, 145440, Note_on_c, 10, 74, 102
7, 145515, Note_off_c, 10, 74, 64
7, 145535, Control_c, 10, 1, 6
7, 145595, Control_c, 10, 1, 1
7, 145600, Note_on_c, 10, 74, 113
7, 145630, Pitch_bend_c, 10, 16248
7, 145670, Control_c, 10, 1, 0
7, 145675, Note_off_c, 10, 74, 64
7, 145680, Pitch_bend_c, 10, 16032
7, 145760, Note_on_c, 10, 74, 113
7, 145765, Pitch_bend_c, 10, 15816
7, 145825, Pitch_bend_c, 10, 15600
7, 145835, Note_off_c, 10, 74, 64
7, 145900, Pitch_bend_c, 10, 15384
7, 145920, Note_on_c, 10, 74, 113
7, 145950, Pitch_bend_c, 10, 15097
7, 145995, Note_off_c, 10, 74, 64
7, 146035, Pitch_bend_c, 10, 14881
7, 146070, Pitch_bend_c, 10, 14665
7, 146080, Note_on_c, 10, 74, 113
7, 146095, Pitch_bend_c, 10, 14449
7, 146120, Pitch_bend_c, 10, 14234
7, 146145, Pitch_bend_c, 10, 14018
7, 146155, Note_off_c, 10, 74, 64
7, 146195, Pitch_bend_c, 10, 13730
7, 146230, Pitch_bend_c, 10, 13514
7, 146240, Note_on_c, 10, 74, 107
7, 146280, Pitch_bend_c, 10, 13298
7, 146315, Note_off_c, 10, 74, 64
7, 146325, Pitch_bend_c, 10, 13083
7, 146365, Pitch_bend_c, 10, 12867
7, 146400, Note_on_c, 10, 74, 113
7, 146400, Pitch_bend_c, 10, 12579
7, 146435, Pitch_bend_c, 10, 12291
7, 146460, Pitch_bend_c, 10, 12076
7, 146475, Note_off_c, 10, 74, 64
7, 146485, Pitch_bend_c, 10, 11572
7, 146510, Pitch_bend_c, 10, 11356
7, 146545, Pitch_bend_c, 10, 11069
7, 146560, Note_on_c, 10, 74, 113
7, 146570, Pitch_bend_c, 10, 10781
7, 146595, Pitch_bend_c, 10, 10493
7, 146620, Pitch_bend_c, 10, 10206
7, 146635, Note_off_c, 10, 74, 64
7, 146645, Pitch_bend_c, 10, 9918
7, 146680, Pitch_bend_c, 10, 9702
7, 146720, Note_on_c, 10, 74, 113
7, 146795, Note_off_c, 10, 74, 64
7, 146800, Pitch_bend_c, 10, 10349
7, 146815, Pitch_bend_c, 10, 11428
7, 146825, Pitch_bend_c, 10, 12795
7, 146840, Pitch_bend_c, 10, 13658
7, 146850, Pitch_bend_c, 10, 14090
7, 146875, Pitch_bend_c, 10, 13802
7, 146880, Note_on_c, 10, 74, 119
7, 146890, Pitch_bend_c, 10, 13227
7, 146900, Pitch_bend_c, 10, 13011
7, 146925, Pitch_bend_c, 10, 12723
7, 146935, Pitch_bend_c, 10, 12507
7, 146950, Pitch_bend_c, 10, 11932
7, 146960, Pitch_bend_c, 10, 10853
7, 146975, Pitch_bend_c, 10, 9846
7, 146985, Pitch_bend_c, 10, 8983
7, 147000, Pitch_bend_c, 10, 8263
7, 147010, Pitch_bend_c, 10, 8192
7, 147200, Note_off_c, 10, 74, 64
7, 147200, Note_on_c, 10, 72, 113
7, 147360, Note_off_c, 10, 72, 64
7, 147360, Note_on_c, 10, 69, 113
7, 147560, Control_c, 10, 1, 1
7, 147575, Control_c, 10, 1, 7
7, 147600, Control_c, 10, 1, 12
7, 147660, Control_c, 10, 1, 17
7, 147680, Note_off_c, 10, 69, 64
7, 147680, Note_on_c, 10, 69, 102
7, 147685, Control_c, 10, 1, 22
7, 147705, Control_c, 10, 1, 29
7, 147745, Control_c, 10, 1, 34
7, 147780, Control_c, 10, 1, 41
7, 147805, Control_c, 10, 1, 48
7, 147880, Control_c, 10, 1, 53
7, 147900, Control_c, 10, 1, 58
7, 147950, Control_c, 10, 1, 63
7, 148180, Control_c, 10, 1, 68
7, 148355, Control_c, 10, 1, 74
7, 148450, Control_c, 10, 1, 69
7, 148465, Control_c, 10, 1, 64
7, 148475, Control_c, 10, 1, 54
7, 148480, Note_off_c, 10, 69, 64
7, 148480, Note_on_c, 10, 66, 107
7, 148490, Control_c, 10, 1, 36
7, 148500, Control_c, 10, 1, 19
7, 148510, Control_c, 10, 1, 0
7, 148640, Note_off_c, 10, 66, 64
7, 148640, Note_on_c, 10, 69, 93
7, 148800, Note_off_c, 10, 69, 64
7, 148800, Note_on_c, 10, 72, 113
7, 148935, Pitch_bend_c, 10, 8551
7, 148950, Pitch_bend_c, 10, 8839
7, 148960, Pitch_bend_c, 10, 9127
7, 148975, Pitch_bend_c, 10, 9342
7, 148985, Pitch_bend_c, 10, 9558
7, 149000, Pitch_bend_c, 10, 9774
7, 149010, Pitch_bend_c, 10, 9990
7, 149025, Pitch_bend_c, 10, 10206
7, 149035, Pitch_bend_c, 10, 10421
7, 149040, Note_off_c, 10, 72, 64
7, 149060, Pitch_bend_c, 10, 10925
7, 149070, Pitch_bend_c, 10, 11141
7, 149085, Pitch_bend_c, 10, 11428
7, 149095, Pitch_bend_c, 10, 11644
7, 149110, Pitch_bend_c, 10, 12004
7, 149120, Pitch_bend_c, 10, 12291
7, 149135, Pitch_bend_c, 10, 12507
7, 149195, Pitch_bend_c, 10, 12148
7, 149205, Pitch_bend_c, 10, 11356
7, 149220, Pitch_bend_c, 10, 10493
7, 149230, Pitch_bend_c, 10, 9486
7, 149245, Pitch_bend_c, 10, 8192
7, 149600, Note_on_c, 10, 64, 107
7, 149675, Note_off_c, 10, 64, 64
7, 149760, Note_on_c, 10, 74, 127
7, 149790, Pitch_bend_c, 10, 8695
7, 149805, Pitch_bend_c, 10, 9414
7, 149815, Pitch_bend_c, 10, 9774
7, 149830, Pitch_bend_c, 10, 10277
7, 149840, Pitch_bend_c, 10, 10709
7, 149855, Pitch_bend_c, 10, 11141
7, 149865, Pitch_bend_c, 10, 11428
7, 149875, Pitch_bend_c, 10, 12004
7, 149890, Pitch_bend_c, 10, 12363
7, 149900, Pitch_bend_c, 10, 12795
7, 149915, Pitch_bend_c, 10, 13083
7, 149925, Pitch_bend_c, 10, 13298
7, 149940, Pitch_bend_c, 10, 13730
7, 149950, Pitch_bend_c, 10, 13946
7, 149975, Pitch_bend_c, 10, 14305
7, 149985, Pitch_bend_c, 10, 14593
7, 150000, Pitch_bend_c, 10, 14881
7, 150010, Pitch_bend_c, 10, 15097
7, 150035, Pitch_bend_c, 10, 15384
7, 150050, Pitch_bend_c, 10, 15600
7, 150075, Pitch_bend_c, 10, 15816
7, 150100, Pitch_bend_c, 10, 16248
7, 150120, Pitch_bend_c, 10, 16383
7, 150160, Note_off_c, 10, 74, 64
7, 150205, Pitch_bend_c, 10, 15528
7, 150220, Pitch_bend_c, 10, 13874
7, 150230, Pitch_bend_c, 10, 12148
7, 150240, Note_on_c, 10, 74, 119
7, 150245, Pitch_bend_c, 10, 10637
7, 150255, Pitch_bend_c, 10, 9342
7, 150270, Pitch_bend_c, 10, 9127
7, 150305, Pitch_bend_c, 10, 9558
7, 150315, Pitch_bend_c, 10, 10349
7, 150330, Pitch_bend_c, 10, 11284
7, 150340, Pitch_bend_c, 10, 12148
7, 150355, Pitch_bend_c, 10, 12867
7, 150365, Pitch_bend_c, 10, 13298
7, 150380, Pitch_bend_c, 10, 13658
7, 150390, Pitch_bend_c, 10, 13946
7, 150415, Pitch_bend_c, 10, 14162
7, 150425, Pitch_bend_c, 10, 14377
7, 150440, Pitch_bend_c, 10, 14881
7, 150450, Pitch_bend_c, 10, 15097
7, 150465, Pitch_bend_c, 10, 15456
7, 150500, Pitch_bend_c, 10, 15816
7, 150510, Pitch_bend_c, 10, 16104
7, 150525, Pitch_bend_c, 10, 16383
7, 150695, Pitch_bend_c, 10, 16248
7, 150705, Pitch_bend_c, 10, 14449
7, 150720, Note_off_c, 10, 74, 64
7, 150720, Pitch_bend_c, 10, 12220
7, 150720, Note_on_c, 10, 72, 119
7, 150730, Pitch_bend_c, 10, 9774
7, 150745, Pitch_bend_c, 10, 8192
7, 150780, Pitch_bend_c, 10, 8335
7, 150795, Pitch_bend_c, 10, 8911
7, 150805, Pitch_bend_c, 10, 9270
7, 150855, Pitch_bend_c, 10, 9486
7, 150865, Pitch_bend_c, 10, 9774
7, 150890, Pitch_bend_c, 10, 10134
7, 150905, Pitch_bend_c, 10, 10349
7, 150925, Pitch_bend_c, 10, 10781
7, 150950, Pitch_bend_c, 10, 10997
7, 150975, Pitch_bend_c, 10, 11213
7, 151000, Pitch_bend_c, 10, 11500
7, 151010, Pitch_bend_c, 10, 11716
7, 151025, Pitch_bend_c, 10, 11932
7, 151050, Pitch_bend_c, 10, 12220
7, 151075, Pitch_bend_c, 10, 12435
7, 151085, Pitch_bend_c, 10, 12795
7, 151095, Pitch_bend_c, 10, 13155
7, 151110, Pitch_bend_c, 10, 13442
7, 151120, Note_off_c, 10, 72, 64
7, 151135, Pitch_bend_c, 10, 11428
7, 151145, Pitch_bend_c, 10, 8192
7, 151200, Note_on_c, 10, 69, 107
7, 151360, Note_off_c, 10, 69, 64
7, 151360, Note_on_c, 10, 66, 107
7, 151435, Note_off_c, 10, 66, 64
7, 151440, Note_on_c, 10, 64, 107
7, 151610, Control_c, 10, 1, 9
7, 151625, Control_c, 10, 1, 21
7, 151635, Control_c, 10, 1, 36
7, 151650, Control_c, 10, 1, 46
7, 151660, Control_c, 10, 1, 58
7, 151675, Control_c, 10, 1, 64
7, 151695, Control_c, 10, 1, 71
7, 151720, Control_c, 10, 1, 76
7, 151760, Control_c, 10, 1, 81
7, 151795, Control_c, 10, 1, 73
7, 151820, Control_c, 10, 1, 64
7, 151830, Control_c, 10, 1, 59
7, 151845, Control_c, 10, 1, 51
7, 151855, Control_c, 10, 1, 39
7, 151870, Control_c, 10, 1, 26
7, 151880, Control_c, 10, 1, 9
7, 151895, Control_c, 10, 1, 0
7, 151920, Note_off_c, 10, 64, 64
7, 152000, Note_on_c, 10, 64, 113
7, 152160, Note_off_c, 10, 64, 64
7, 152160, Note_on_c, 10, 67, 127
7, 152195, Pitch_bend_c, 10, 9270
7, 152210, Pitch_bend_c, 10, 10637
7, 152220, Pitch_bend_c, 10, 11788
7, 152235, Pitch_bend_c, 10, 12579
7, 152245, Pitch_bend_c, 10, 13298
7, 152255, Pitch_bend_c, 10, 13946
7, 152270, Pitch_bend_c, 10, 14809
7, 152270, Control_c, 10, 1, 7
7, 152280, Pitch_bend_c, 10, 15744
7, 152285, Control_c, 10, 1, 14
7, 152295, Pitch_bend_c, 10, 16383
7, 152305, Control_c, 10, 1, 21
7, 152330, Control_c, 10, 1, 26
7, 152390, Control_c, 10, 1, 21
7, 152400, Note_off_c, 10, 67, 64
7, 152405, Control_c, 10, 1, 12
7, 152415, Pitch_bend_c, 10, 15312
7, 152415, Control_c, 10, 1, 6
7, 152430, Pitch_bend_c, 10, 12939
7, 152430, Control_c, 10, 1, 0
7, 152440, Pitch_bend_c, 10, 10637
7, 152450, Pitch_bend_c, 10, 8623
7, 152465, Pitch_bend_c, 10, 8263
7, 152480, Note_on_c, 10, 67, 127
7, 152490, Pitch_bend_c, 10, 9127
7, 152500, Pitch_bend_c, 10, 10349
7, 152515, Pitch_bend_c, 10, 11644
7, 152525, Pitch_bend_c, 10, 13011
7, 152525, Control_c, 10, 1, 2
7, 152540, Pitch_bend_c, 10, 14521
7, 152540, Control_c, 10, 1, 11
7, 152550, Pitch_bend_c, 10, 16032
7, 152550, Control_c, 10, 1, 19
7, 152560, Pitch_bend_c, 10, 16383
7, 152565, Control_c, 10, 1, 27
7, 152575, Control_c, 10, 1, 34
7, 152685, Control_c, 10, 1, 29
7, 152710, Control_c, 10, 1, 24
7, 152735, Control_c, 10, 1, 17
7, 152760, Control_c, 10, 1, 12
7, 152785, Control_c, 10, 1, 6
7, 152795, Control_c, 10, 1, 1
7, 152855, Pitch_bend_c, 10, 16104
7, 152855, Control_c, 10, 1, 0
7, 152865, Pitch_bend_c, 10, 15312
7, 152880, Pitch_bend_c, 10, 13946
7, 152890, Pitch_bend_c, 10, 12148
7, 152905, Pitch_bend_c, 10, 10349
7, 152915, Pitch_bend_c, 10, 8695
7, 152930, Pitch_bend_c, 10, 8192
7, 153040, Note_off_c, 10, 67, 64
7, 153040, Note_on_c, 10, 64, 102
7, 153115, Note_off_c, 10, 64, 64
7, 153120, Note_on_c, 10, 69, 113
7, 153360, Note_off_c, 10, 69, 64
7, 153360, Note_on_c, 10, 69, 107
7, 153490, Control_c, 10, 1, 6
7, 153505, Control_c, 10, 1, 16
7, 153515, Control_c, 10, 1, 24
7, 153530, Control_c, 10, 1, 34
7, 153540, Control_c, 10, 1, 39
7, 153550, Control_c, 10, 1, 44
7, 153565, Control_c, 10, 1, 53
7, 153590, Control_c, 10, 1, 59
7, 153610, Control_c, 10, 1, 68
7, 153635, Control_c, 10, 1, 73
7, 153660, Control_c, 10, 1, 81
7, 153685, Control_c, 10, 1, 86
7, 153710, Control_c, 10, 1, 91
7, 153770, Control_c, 10, 1, 83
7, 153785, Control_c, 10, 1, 73
7, 153795, Control_c, 10, 1, 58
7, 153810, Control_c, 10, 1, 39
7, 153820, Control_c, 10, 1, 14
7, 153835, Control_c, 10, 1, 0
7, 153855, Control_c, 10, 1, 7
7, 153870, Control_c, 10, 1, 21
7, 153880, Pitch_bend_c, 10, 7509
7, 153890, Pitch_bend_c, 10, 4247
7, 153895, Control_c, 10, 1, 9
7, 153905, Pitch_bend_c, 10, 2123
7, 153905, Control_c, 10, 1, 0
7, 153915, Pitch_bend_c, 10, 606
7, 153920, Note_off_c, 10, 69, 64
7, 153920, Note_on_c, 10, 64, 113
7, 153930, Pitch_bend_c, 10, 0
7, 153950, Pitch_bend_c, 10, 303
7, 153965, Pitch_bend_c, 10, 1061
7, 153975, Pitch_bend_c, 10, 1668
7, 153990, Pitch_bend_c, 10, 2351
7, 154000, Pitch_bend_c, 10, 2958
7, 154015, Pitch_bend_c, 10, 3792
7, 154025, Pitch_bend_c, 10, 4854
7, 154040, Pitch_bend_c, 10, 6068
7, 154050, Pitch_bend_c, 10, 7054
7, 154060, Pitch_bend_c, 10, 7888
7, 154075, Pitch_bend_c, 10, 8192
7, 154080, Note_on_c, 10, 69, 107
7, 154160, Note_off_c, 10, 64, 64
7, 154240, Note_off_c, 10, 69, 64
7, 154240, Note_on_c, 10, 64, 107
7, 154400, Note_off_c, 10, 64, 64
7, 154400, Note_on_c, 10, 69, 107
7, 154500, Pitch_bend_c, 10, 8116
7, 154515, Pitch_bend_c, 10, 6902
7, 154525, Pitch_bend_c, 10, 5385
7, 154540, Pitch_bend_c, 10, 3261
7, 154550, Pitch_bend_c, 10, 1668
7, 154560, Note_off_c, 10, 69, 64
7, 154560, Note_on_c, 10, 64, 113
7, 154565, Pitch_bend_c, 10, 0
7, 154635, Pitch_bend_c, 10, 682
7, 154650, Pitch_bend_c, 10, 2123
7, 154660, Pitch_bend_c, 10, 3565
7, 154675, Pitch_bend_c, 10, 5082
7, 154685, Pitch_bend_c, 10, 6826
7, 154700, Pitch_bend_c, 10, 8192
7, 154720, Note_on_c, 10, 69, 107
7, 154800, Note_off_c, 10, 64, 64
7, 154880, Note_off_c, 10, 69, 64
7, 154880, Note_on_c, 10, 64, 107
7, 155040, Note_off_c, 10, 64, 64
7, 155040, Note_on_c, 10, 69, 107
7, 155200, Note_off_c, 10, 69, 64
7, 155200, Note_on_c, 10, 64, 107
7, 155360, Note_off_c, 10, 64, 64
7, 155360, Note_on_c, 10, 69, 107
7, 155430, Pitch_bend_c, 10, 7509
7, 155440, Pitch_bend_c, 10, 4096
7, 155455, Pitch_bend_c, 10, 1441
7, 155465, Pitch_bend_c, 10, 0
7, 155520, Note_off_c, 10, 69, 64
7, 155520, Note_on_c, 10, 64, 119
7, 155565, Pitch_bend_c, 10, 75
7, 155575, Pitch_bend_c, 10, 986
7, 155590, Pitch_bend_c, 10, 2199
7, 155600, Pitch_bend_c, 10, 3792
7, 155610, Pitch_bend_c, 10, 5764
7, 155625, Pitch_bend_c, 10, 8116
7, 155635, Pitch_bend_c, 10, 8192
7, 155680, Note_off_c, 10, 64, 64
7, 155680, Note_on_c, 10, 69, 107
7, 155840, Note_off_c, 10, 69, 64
7, 155840, Note_on_c, 10, 64, 113
7, 156000, Note_off_c, 10, 64, 64
7, 156000, Note_on_c, 10, 69, 107
7, 156160, Note_off_c, 10, 69, 64
7, 156160, Note_on_c, 10, 64, 107
7, 156240, Note_on_c, 10, 69, 107
7, 156320, Note_off_c, 10, 64, 64
7, 156395, Pitch_bend_c, 10, 5537
7, 156405, Pitch_bend_c, 10, 2123
7, 156415, Pitch_bend_c, 10, 0
7, 156480, Note_off_c, 10, 69, 64
7, 156480, Note_on_c, 10, 64, 119
7, 156515, Pitch_bend_c, 10, 151
7, 156525, Pitch_bend_c, 10, 1517
7, 156540, Pitch_bend_c, 10, 3185
7, 156550, Pitch_bend_c, 10, 5006
7, 156565, Pitch_bend_c, 10, 7205
7, 156575, Pitch_bend_c, 10, 8192
7, 156640, Note_on_c, 10, 69, 113
7, 156720, Note_off_c, 10, 64, 64
7, 156800, Note_off_c, 10, 69, 64
7, 156800, Note_on_c, 10, 64, 113
7, 156960, Note_off_c, 10, 64, 64
7, 156960, Note_on_c, 10, 69, 113
7, 157120, Note_off_c, 10, 69, 64
7, 157120, Note_on_c, 10, 64, 113
7, 157280, Note_off_c, 10, 64, 64
7, 157280, Note_on_c, 10, 69, 107
7, 157345, Pitch_bend_c, 10, 7205
7, 157355, Pitch_bend_c, 10, 4171
7, 157370, Pitch_bend_c, 10, 1441
7, 157380, Pitch_bend_c, 10, 0
7, 157385, Control_c, 10, 2, 17
7, 157395, Control_c, 10, 2, 26
7, 157440, Note_off_c, 10, 69, 64
7, 157440, Note_on_c, 10, 64, 107
7, 157455, Control_c, 10, 2, 17
7, 157465, Pitch_bend_c, 10, 303
7, 157470, Control_c, 10, 2, 9
7, 157480, Pitch_bend_c, 10, 1820
7, 157480, Control_c, 10, 2, 0
7, 157490, Pitch_bend_c, 10, 4171
7, 157505, Pitch_bend_c, 10, 7054
7, 157515, Pitch_bend_c, 10, 8192
7, 157600, Note_on_c, 10, 73, 113
7, 157680, Note_off_c, 10, 64, 64
7, 157760, Note_on_c, 10, 64, 107
7, 157840, Note_off_c, 10, 73, 64
7, 157920, Note_on_c, 10, 73, 113
7, 158000, Note_off_c, 10, 64, 64
7, 158005, Control_c, 10, 1, 6
7, 158020, Control_c, 10, 1, 11
7, 158030, Control_c, 10, 1, 17
7, 158040, Control_c, 10, 1, 24
7, 158055, Control_c, 10, 1, 31
7, 158080, Note_on_c, 10, 64, 107
7, 158080, Control_c, 10, 1, 36
7, 158115, Control_c, 10, 1, 41
7, 158160, Note_off_c, 10, 73, 64
7, 158235, Control_c, 10, 1, 48
7, 158240, Note_on_c, 10, 73, 113
7, 158320, Note_off_c, 10, 64, 64
7, 158345, Control_c, 10, 1, 42
7, 158370, Control_c, 10, 1, 31
7, 158385, Control_c, 10, 1, 21
7, 158395, Control_c, 10, 1, 9
7, 158400, Note_on_c, 10, 64, 102
7, 158410, Control_c, 10, 1, 0
7, 158480, Note_off_c, 10, 73, 64
7, 158560, Note_on_c, 10, 73, 119
7, 158640, Note_off_c, 10, 64, 64
7, 158665, Control_c, 10, 1, 2
7, 158675, Control_c, 10, 1, 9
7, 158690, Control_c, 10, 1, 14
7, 158715, Control_c, 10, 1, 19
7, 158720, Note_off_c, 10, 73, 64
7, 158720, Note_on_c, 10, 64, 119
7, 158810, Control_c, 10, 1, 12
7, 158835, Control_c, 10, 1, 6
7, 158860, Control_c, 10, 1, 0
7, 158880, Note_off_c, 10, 64, 64
7, 158880, Note_on_c, 10, 73, 113
7, 159040, Note_off_c, 10, 73, 64
7, 159040, Note_on_c, 10, 64, 107
7, 159200, Note_off_c, 10, 64, 64
7, 159200, Note_on_c, 10, 73, 107
7, 159275, Note_off_c, 10, 73, 64
7, 159360, Note_on_c, 10, 62, 113
7, 159520, Note_on_c, 10, 71, 102
7, 159600, Note_off_c, 10, 62, 64
7, 159680, Note_off_c, 10, 71, 64
7, 159680, Note_on_c, 10, 62, 107
7, 159840, Note_off_c, 10, 62, 64
7, 159840, Note_on_c, 10, 71, 98
7, 160000, Note_on_c, 10, 62, 107
7, 160080, Note_off_c, 10, 71, 64
7, 160160, Note_off_c, 10, 62, 64
7, 160160, Note_on_c, 10, 71, 98
7, 160320, Note_off_c, 10, 71, 64
7, 160320, Note_on_c, 10, 62, 107
7, 160480, Note_off_c, 10, 62, 64
7, 160480, Note_on_c, 10, 71, 102
7, 160640, Note_off_c, 10, 71, 64
7, 160640, Note_on_c, 10, 62, 113
7, 160800, Note_off_c, 10, 62, 64
7, 160800, Note_on_c, 10, 71, 107
7, 160880, Note_on_c, 10, 62, 102
7, 160960, Note_off_c, 10, 71, 64
7, 161040, Note_on_c, 10, 71, 107
7, 161120, Note_off_c, 10, 62, 64
7, 161200, Note_off_c, 10, 71, 64
7, 161200, Note_on_c, 10, 60, 107
7, 161440, Note_off_c, 10, 60, 64
7, 161440, Note_on_c, 10, 69, 98
7, 161600, Note_off_c, 10, 69, 64
7, 161600, Note_on_c, 10, 60, 113
7, 161760, Note_on_c, 10, 69, 98
7, 161840, Note_off_c, 10, 60, 64
7, 161920, Note_off_c, 10, 69, 64
7, 161920, Note_on_c, 10, 60, 107
7, 162080, Note_off_c, 10, 60, 64
7, 162080, Note_on_c, 10, 69, 98
7, 162240, Note_off_c, 10, 69, 64
7, 162240, Note_on_c, 10, 60, 113
7, 162400, Note_off_c, 10, 60, 64
7, 162400, Note_on_c, 10, 69, 98
7, 162480, Note_on_c, 10, 60, 98
7, 162560, Note_off_c, 10, 69, 64
7, 162720, Note_off_c, 10, 60, 64
7, 162720, Note_on_c, 10, 69, 98
7, 162800, Note_on_c, 10, 60, 89
7, 162880, Note_off_c, 10, 69, 64
7, 162960, Note_on_c, 10, 69, 107
7, 163040, Note_off_c, 10, 60, 64
7, 163120, Note_off_c, 10, 69, 64
7, 163200, Note_on_c, 10, 67, 127
7, 163225, Pitch_bend_c, 10, 9199
7, 163240, Pitch_bend_c, 10, 10997
7, 163250, Pitch_bend_c, 10, 12651
7, 163265, Pitch_bend_c, 10, 14090
7, 163275, Pitch_bend_c, 10, 15384
7, 163275, Control_c, 10, 1, 1
7, 163285, Pitch_bend_c, 10, 16320
7, 163290, Control_c, 10, 1, 9
7, 163300, Pitch_bend_c, 10, 16383
7, 163300, Control_c, 10, 1, 14
7, 163325, Control_c, 10, 1, 21
7, 163335, Control_c, 10, 1, 26
7, 163350, Control_c, 10, 1, 32
7, 163375, Control_c, 10, 1, 37
7, 163410, Control_c, 10, 1, 44
7, 163545, Control_c, 10, 1, 37
7, 163570, Control_c, 10, 1, 32
7, 163595, Control_c, 10, 1, 22
7, 163600, Note_off_c, 10, 67, 64
7, 163605, Pitch_bend_c, 10, 15888
7, 163605, Control_c, 10, 1, 17
7, 163620, Pitch_bend_c, 10, 14953
7, 163630, Pitch_bend_c, 10, 13946
7, 163630, Control_c, 10, 1, 9
7, 163640, Pitch_bend_c, 10, 12435
7, 163645, Control_c, 10, 1, 4
7, 163655, Pitch_bend_c, 10, 10925
7, 163655, Control_c, 10, 1, 0
7, 163665, Pitch_bend_c, 10, 9486
7, 163680, Note_on_c, 10, 67, 119
7, 163680, Pitch_bend_c, 10, 8263
7, 163690, Pitch_bend_c, 10, 8192
7, 163715, Pitch_bend_c, 10, 8695
7, 163725, Pitch_bend_c, 10, 10997
7, 163740, Pitch_bend_c, 10, 13442
7, 163750, Pitch_bend_c, 10, 15816
7, 163765, Pitch_bend_c, 10, 16383
7, 163765, Control_c, 10, 1, 7
7, 163775, Control_c, 10, 1, 14
7, 163825, Control_c, 10, 1, 6
7, 163840, Control_c, 10, 1, 0
7, 163850, Pitch_bend_c, 10, 14737
7, 163860, Pitch_bend_c, 10, 11213
7, 163875, Pitch_bend_c, 10, 8192
7, 164000, Note_off_c, 10, 67, 64
7, 164000, Note_on_c, 10, 64, 113
7, 164160, Note_off_c, 10, 64, 64
7, 164160, Note_on_c, 10, 67, 127
7, 164180, Pitch_bend_c, 10, 8911
7, 164190, Pitch_bend_c, 10, 9558
7, 164200, Pitch_bend_c, 10, 10062
7, 164215, Pitch_bend_c, 10, 10421
7, 164225, Pitch_bend_c, 10, 10853
7, 164240, Pitch_bend_c, 10, 11356
7, 164250, Pitch_bend_c, 10, 12004
7, 164265, Pitch_bend_c, 10, 12507
7, 164275, Pitch_bend_c, 10, 13083
7, 164290, Pitch_bend_c, 10, 13802
7, 164300, Pitch_bend_c, 10, 14377
7, 164315, Pitch_bend_c, 10, 15025
7, 164315, Control_c, 10, 1, 7
7, 164325, Pitch_bend_c, 10, 15528
7, 164335, Pitch_bend_c, 10, 16248
7, 164350, Pitch_bend_c, 10, 16383
7, 164350, Control_c, 10, 1, 12
7, 164385, Control_c, 10, 1, 17
7, 164410, Control_c, 10, 1, 24
7, 164425, Control_c, 10, 1, 29
7, 164460, Control_c, 10, 1, 34
7, 164520, Control_c, 10, 1, 29
7, 164535, Control_c, 10, 1, 22
7, 164555, Control_c, 10, 1, 16
7, 164580, Pitch_bend_c, 10, 15241
7, 164580, Control_c, 10, 1, 6
7, 164595, Pitch_bend_c, 10, 13586
7, 164595, Control_c, 10, 1, 0
7, 164605, Pitch_bend_c, 10, 11141
7, 164615, Pitch_bend_c, 10, 8839
7, 164630, Pitch_bend_c, 10, 8192
7, 164640, Note_off_c, 10, 67, 64
7, 164640, Note_on_c, 10, 67, 113
7, 164665, Pitch_bend_c, 10, 8983
7, 164680, Pitch_bend_c, 10, 11572
7, 164690, Pitch_bend_c, 10, 13802
7, 164705, Pitch_bend_c, 10, 15600
7, 164715, Pitch_bend_c, 10, 16383
7, 164730, Control_c, 10, 1, 2
7, 164740, Control_c, 10, 1, 7
7, 164790, Control_c, 10, 1, 2
7, 164800, Pitch_bend_c, 10, 15672
7, 164800, Control_c, 10, 1, 0
7, 164815, Pitch_bend_c, 10, 13370
7, 164825, Pitch_bend_c, 10, 10565
7, 164840, Pitch_bend_c, 10, 8192
7, 164960, Note_off_c, 10, 67, 64
7, 164960, Note_on_c, 10, 64, 107
7, 165120, Note_off_c, 10, 64, 64
7, 165120, Note_on_c, 10, 67, 113
7, 165205, Pitch_bend_c, 10, 9414
7, 165215, Pitch_bend_c, 10, 10709
7, 165230, Pitch_bend_c, 10, 11788
7, 165240, Pitch_bend_c, 10, 13227
7, 165250, Pitch_bend_c, 10, 15169
7, 165265, Pitch_bend_c, 10, 16383
7, 165315, Control_c, 10, 1, 1
7, 165350, Control_c, 10, 1, 6
7, 165435, Control_c, 10, 1, 0
7, 165440, Note_off_c, 10, 67, 64
7, 165460, Pitch_bend_c, 10, 15672
7, 165470, Pitch_bend_c, 10, 13730
7, 165485, Pitch_bend_c, 10, 11860
7, 165495, Pitch_bend_c, 10, 9630
7, 165510, Pitch_bend_c, 10, 8192
7, 165600, Note_on_c, 10, 67, 127
7, 165605, Pitch_bend_c, 10, 8335
7, 165620, Pitch_bend_c, 10, 8767
7, 165630, Pitch_bend_c, 10, 9558
7, 165645, Pitch_bend_c, 10, 10925
7, 165655, Pitch_bend_c, 10, 12795
7, 165665, Pitch_bend_c, 10, 14521
7, 165680, Pitch_bend_c, 10, 16032
7, 165690, Pitch_bend_c, 10, 16383
7, 165840, Note_off_c, 10, 67, 64
7, 165850, Pitch_bend_c, 10, 15672
7, 165860, Pitch_bend_c, 10, 13802
7, 165875, Pitch_bend_c, 10, 11141
7, 165885, Pitch_bend_c, 10, 9270
7, 165900, Pitch_bend_c, 10, 8263
7, 165920, Note_on_c, 10, 67, 127
7, 165925, Pitch_bend_c, 10, 8479
7, 165935, Pitch_bend_c, 10, 9630
7, 165950, Pitch_bend_c, 10, 10997
7, 165960, Pitch_bend_c, 10, 12651
7, 165970, Pitch_bend_c, 10, 14305
7, 165985, Pitch_bend_c, 10, 15888
7, 165995, Pitch_bend_c, 10, 16383
7, 166020, Control_c, 10, 1, 6
7, 166045, Control_c, 10, 1, 11
7, 166145, Control_c, 10, 1, 17
7, 166195, Control_c, 10, 1, 22
7, 166280, Control_c, 10, 1, 17
7, 166315, Control_c, 10, 1, 12
7, 166340, Control_c, 10, 1, 4
7, 166350, Control_c, 10, 1, 0
7, 166385, Pitch_bend_c, 10, 16248
7, 166400, Pitch_bend_c, 10, 15960
7, 166410, Pitch_bend_c, 10, 15672
7, 166425, Pitch_bend_c, 10, 15025
7, 166435, Pitch_bend_c, 10, 13946
7, 166450, Pitch_bend_c, 10, 13083
7, 166460, Pitch_bend_c, 10, 12220
7, 166475, Pitch_bend_c, 10, 11716
7, 166485, Pitch_bend_c, 10, 11213
7, 166495, Pitch_bend_c, 10, 10421
7, 166510, Pitch_bend_c, 10, 9558
7, 166520, Pitch_bend_c, 10, 8695
7, 166530, Pitch_bend_c, 10, 8192
7, 166560, Note_off_c, 10, 67, 64
7, 166560, Note_on_c, 10, 64, 102
7, 166800, Note_off_c, 10, 64, 64
7, 166880, Note_on_c, 10, 64, 119
7, 166900, Control_c, 10, 1, 7
7, 166915, Control_c, 10, 1, 14
7, 166925, Control_c, 10, 1, 21
7, 166940, Control_c, 10, 1, 29
7, 166950, Control_c, 10, 1, 36
7, 166960, Control_c, 10, 1, 42
7, 166975, Control_c, 10, 1, 51
7, 166985, Control_c, 10, 1, 58
7, 167000, Control_c, 10, 1, 63
7, 167020, Control_c, 10, 1, 69
7, 167070, Control_c, 10, 1, 76
7, 167085, Control_c, 10, 1, 81
7, 167110, Control_c, 10, 1, 88
7, 167130, Control_c, 10, 1, 93
7, 167180, Control_c, 10, 1, 83
7, 167195, Control_c, 10, 1, 78
7, 167205, Control_c, 10, 1, 68
7, 167220, Control_c, 10, 1, 59
7, 167230, Control_c, 10, 1, 48
7, 167240, Control_c, 10, 1, 37
7, 167255, Control_c, 10, 1, 29
7, 167265, Control_c, 10, 1, 19
7, 167280, Note_off_c, 10, 64, 64
7, 167280, Control_c, 10, 1, 14
7, 167290, Control_c, 10, 1, 7
7, 167305, Control_c, 10, 1, 1
7, 167315, Control_c, 10, 1, 0
7, 167360, Note_on_c, 10, 64, 113
7, 167435, Note_off_c, 10, 64, 64
7, 167520, Note_on_c, 10, 72, 119
7, 167520, Note_on_c, 10, 73, 107
7, 167595, Note_off_c, 10, 73, 64
7, 167630, Pitch_bend_c, 10, 8407
7, 167645, Pitch_bend_c, 10, 8767
7, 167655, Pitch_bend_c, 10, 9127
7, 167670, Pitch_bend_c, 10, 9486
7, 167680, Pitch_bend_c, 10, 9846
7, 167695, Pitch_bend_c, 10, 10206
7, 167705, Pitch_bend_c, 10, 10565
7, 167715, Pitch_bend_c, 10, 11213
7, 167730, Pitch_bend_c, 10, 11860
7, 167740, Pitch_bend_c, 10, 12507
7, 167755, Pitch_bend_c, 10, 13227
7, 167765, Pitch_bend_c, 10, 13586
7, 167800, Pitch_bend_c, 10, 13083
7, 167815, Pitch_bend_c, 10, 12148
7, 167825, Pitch_bend_c, 10, 10421
7, 167840, Note_off_c, 10, 72, 64
7, 167840, Pitch_bend_c, 10, 8263
7, 167840, Note_on_c, 10, 76, 113
7, 167850, Pitch_bend_c, 10, 8192
7, 168000, Note_off_c, 10, 76, 64
7, 168000, Note_on_c, 10, 72, 107
7, 168095, Pitch_bend_c, 10, 8407
7, 168105, Pitch_bend_c, 10, 8623
7, 168120, Pitch_bend_c, 10, 8839
7, 168130, Pitch_bend_c, 10, 9270
7, 168145, Pitch_bend_c, 10, 9630
7, 168155, Pitch_bend_c, 10, 9918
7, 168170, Pitch_bend_c, 10, 10277
7, 168180, Pitch_bend_c, 10, 10493
7, 168220, Pitch_bend_c, 10, 9270
7, 168230, Pitch_bend_c, 10, 8192
7, 168320, Note_off_c, 10, 72, 64
7, 168320, Note_on_c, 10, 69, 113
7, 168480, Note_off_c, 10, 69, 64
7, 168480, Note_on_c, 10, 66, 119
7, 168800, Note_off_c, 10, 66, 64
7, 168800, Note_on_c, 10, 64, 102
7, 168875, Note_off_c, 10, 64, 64
7, 168960, Note_on_c, 10, 69, 113
7, 168965, Control_c, 10, 1, 6
7, 168975, Control_c, 10, 1, 16
7, 168985, Control_c, 10, 1, 22
7, 169000, Control_c, 10, 1, 34
7, 169010, Control_c, 10, 1, 39
7, 169025, Control_c, 10, 1, 46
7, 169035, Control_c, 10, 1, 56
7, 169050, Control_c, 10, 1, 68
7, 169060, Control_c, 10, 1, 78
7, 169075, Control_c, 10, 1, 84
7, 169085, Control_c, 10, 1, 96
7, 169100, Control_c, 10, 1, 103
7, 169120, Control_c, 10, 1, 108
7, 169160, Control_c, 10, 1, 101
7, 169355, Control_c, 10, 1, 86
7, 169365, Control_c, 10, 1, 68
7, 169380, Control_c, 10, 1, 37
7, 169390, Control_c, 10, 1, 4
7, 169400, Control_c, 10, 1, 0
7, 169440, Note_off_c, 10, 69, 64
7, 169440, Note_on_c, 10, 67, 107
7, 169760, Note_off_c, 10, 67, 64
7, 169760, Note_on_c, 10, 69, 102
7, 169920, Note_off_c, 10, 69, 64
7, 169920, Note_on_c, 10, 66, 119
7, 170240, Note_off_c, 10, 66, 64
7, 170240, Note_on_c, 10, 69, 102
7, 170400, Note_off_c, 10, 69, 64
7, 170400, Note_on_c, 10, 65, 107
7, 170720, Note_off_c, 10, 65, 64
7, 170720, Note_on_c, 10, 69, 107
7, 170880, Note_on_c, 10, 64, 113
7, 170960, Note_off_c, 10, 69, 64
7, 171040, Note_off_c, 10, 64, 64
7, 171360, Note_on_c, 10, 72, 107
7, 171360, Note_on_c, 10, 75, 119
7, 171360, Note_on_c, 10, 66, 119
7, 171695, Pitch_bend_c, 10, 8479
7, 171705, Pitch_bend_c, 10, 8911
7, 171720, Pitch_bend_c, 10, 9486
7, 171730, Pitch_bend_c, 10, 10277
7, 171745, Pitch_bend_c, 10, 10781
7, 171755, Pitch_bend_c, 10, 11213
7, 171770, Pitch_bend_c, 10, 11428
7, 171790, Pitch_bend_c, 10, 11716
7, 171805, Pitch_bend_c, 10, 11932
7, 171830, Pitch_bend_c, 10, 12291
7, 171865, Pitch_bend_c, 10, 12507
7, 171915, Pitch_bend_c, 10, 12723
7, 172085, Pitch_bend_c, 10, 12939
7, 172125, Control_c, 10, 1, 1
7, 172235, Control_c, 10, 1, 6
7, 172320, Control_c, 10, 1, 11
7, 172405, Control_c, 10, 1, 16
7, 172560, Control_c, 10, 1, 21
7, 172695, Control_c, 10, 1, 26
7, 172795, Control_c, 10, 1, 31
7, 173065, Control_c, 10, 1, 36
7, 174025, Control_c, 10, 1, 41
7, 174770, Pitch_bend_c, 10, 12579
7, 174780, Pitch_bend_c, 10, 12076
7, 174785, Control_c, 10, 1, 31
7, 174795, Pitch_bend_c, 10, 10997
7, 174795, Control_c, 10, 1, 16
7, 174800, Note_off_c, 10, 66, 64
7, 174800, Note_off_c, 10, 75, 64
7, 174800, Note_off_c, 10, 72, 64
7, 174805, Pitch_bend_c, 10, 8407
7, 174810, Control_c, 10, 1, 0
7, 174820, Pitch_bend_c, 10, 8192
7, 174820, End_track
8, 0, Start_track
8, 0, MIDI_port, 0
8, 0, Channel_prefix, 4
8, 0, Control_c, 4, 7, 99
8, 0, Control_c, 4, 10, 64
8, 0, Program_c, 4, 65
8, 8, Control_c, 4, 32, 0
8, 10, Control_c, 4, 101, 0
8, 22, Control_c, 4, 100, 0
8, 25, Control_c, 4, 91, 90
8, 25, Control_c, 4, 93, 75
8, 26, Control_c, 4, 6, 24
8, 29, Control_c, 4, 11, 127
8, 33840, Note_on_c, 4, 73, 107
8, 34030, Note_off_c, 4, 73, 64
8, 34080, Note_on_c, 4, 71, 107
8, 34335, Note_off_c, 4, 71, 64
8, 34400, Note_on_c, 4, 69, 107
8, 34527, Note_off_c, 4, 69, 64
8, 34560, Note_on_c, 4, 73, 107
8, 34942, Note_off_c, 4, 73, 64
8, 36000, Note_on_c, 4, 73, 107
8, 36287, Note_off_c, 4, 73, 64
8, 36320, Note_on_c, 4, 69, 107
8, 36447, Note_off_c, 4, 69, 64
8, 36480, Note_on_c, 4, 73, 107
8, 36735, Note_off_c, 4, 73, 64
8, 36800, Note_on_c, 4, 71, 107
8, 36927, Note_off_c, 4, 71, 64
8, 38640, Note_on_c, 4, 78, 107
8, 39022, Note_off_c, 4, 78, 64
8, 39120, Note_on_c, 4, 78, 107
8, 39502, Note_off_c, 4, 78, 64
8, 39600, Note_on_c, 4, 76, 107
8, 39855, Note_off_c, 4, 76, 64
8, 39920, Note_on_c, 4, 74, 107
8, 40047, Note_off_c, 4, 74, 64
8, 40080, Note_on_c, 4, 72, 107
8, 40270, Note_off_c, 4, 72, 64
8, 40320, Note_on_c, 4, 69, 107
8, 40702, Note_off_c, 4, 69, 64
8, 41760, Note_on_c, 4, 66, 107
8, 42015, Note_off_c, 4, 66, 64
8, 42080, Note_on_c, 4, 66, 107
8, 42207, Note_off_c, 4, 66, 64
8, 42240, Note_on_c, 4, 69, 107
8, 42622, Note_off_c, 4, 69, 64
8, 42720, Note_on_c, 4, 73, 107
8, 43102, Note_off_c, 4, 73, 64
8, 43200, Note_on_c, 4, 64, 107
8, 43455, Note_off_c, 4, 64, 64
8, 43520, Note_on_c, 4, 64, 107
8, 43647, Note_off_c, 4, 64, 64
8, 44480, Note_on_c, 4, 69, 107
8, 44607, Note_off_c, 4, 69, 64
8, 44640, Note_on_c, 4, 67, 107
8, 44895, Note_off_c, 4, 67, 64
8, 44960, Note_on_c, 4, 67, 107
8, 45087, Note_off_c, 4, 67, 64
8, 45120, Note_on_c, 4, 64, 107
8, 45502, Note_off_c, 4, 64, 64
8, 45600, Note_on_c, 4, 62, 107
8, 45855, Note_off_c, 4, 62, 64
8, 45920, Note_on_c, 4, 61, 107
8, 46462, Note_off_c, 4, 61, 64
8, 49280, Note_on_c, 4, 73, 107
8, 49407, Note_off_c, 4, 73, 64
8, 49440, Note_on_c, 4, 71, 107
8, 49695, Note_off_c, 4, 71, 64
8, 49760, Note_on_c, 4, 69, 107
8, 49887, Note_off_c, 4, 69, 64
8, 49920, Note_on_c, 4, 73, 107
8, 50302, Note_off_c, 4, 73, 64
8, 51360, Note_on_c, 4, 73, 107
8, 51647, Note_off_c, 4, 73, 64
8, 51680, Note_on_c, 4, 69, 107
8, 51807, Note_off_c, 4, 69, 64
8, 51840, Note_on_c, 4, 73, 107
8, 52095, Note_off_c, 4, 73, 64
8, 52160, Note_on_c, 4, 71, 107
8, 52287, Note_off_c, 4, 71, 64
8, 54000, Note_on_c, 4, 78, 107
8, 54382, Note_off_c, 4, 78, 64
8, 54480, Note_on_c, 4, 78, 107
8, 54862, Note_off_c, 4, 78, 64
8, 54960, Note_on_c, 4, 76, 107
8, 55215, Note_off_c, 4, 76, 64
8, 55280, Note_on_c, 4, 74, 107
8, 55407, Note_off_c, 4, 74, 64
8, 55440, Note_on_c, 4, 72, 107
8, 55630, Note_off_c, 4, 72, 64
8, 55680, Note_on_c, 4, 69, 107
8, 56062, Note_off_c, 4, 69, 64
8, 57120, Note_on_c, 4, 66, 107
8, 57375, Note_off_c, 4, 66, 64
8, 57440, Note_on_c, 4, 66, 107
8, 57567, Note_off_c, 4, 66, 64
8, 57600, Note_on_c, 4, 69, 107
8, 57982, Note_off_c, 4, 69, 64
8, 58080, Note_on_c, 4, 73, 107
8, 58462, Note_off_c, 4, 73, 64
8, 58560, Note_on_c, 4, 64, 107
8, 58815, Note_off_c, 4, 64, 64
8, 58880, Note_on_c, 4, 64, 107
8, 59007, Note_off_c, 4, 64, 64
8, 59840, Note_on_c, 4, 69, 107
8, 59967, Note_off_c, 4, 69, 64
8, 60000, Note_on_c, 4, 67, 107
8, 60255, Note_off_c, 4, 67, 64
8, 60320, Note_on_c, 4, 67, 107
8, 60447, Note_off_c, 4, 67, 64
8, 60480, Note_on_c, 4, 64, 107
8, 60862, Note_off_c, 4, 64, 64
8, 60960, Note_on_c, 4, 62, 107
8, 61215, Note_off_c, 4, 62, 64
8, 61280, Note_on_c, 4, 61, 107
8, 61822, Note_off_c, 4, 61, 64
8, 109440, Pitch_bend_c, 4, 8222
8, 110400, Note_on_c, 4, 73, 117
8, 110880, Note_off_c, 4, 73, 64
8, 110880, Note_on_c, 4, 71, 117
8, 111135, Note_off_c, 4, 71, 64
8, 111200, Note_on_c, 4, 69, 117
8, 111327, Note_off_c, 4, 69, 64
8, 111360, Note_on_c, 4, 73, 117
8, 111742, Note_off_c, 4, 73, 64
8, 112800, Note_on_c, 4, 73, 117
8, 113087, Note_off_c, 4, 73, 64
8, 113120, Note_on_c, 4, 69, 117
8, 113247, Note_off_c, 4, 69, 64
8, 113280, Note_on_c, 4, 73, 117
8, 113535, Note_off_c, 4, 73, 64
8, 113600, Note_on_c, 4, 71, 117
8, 113727, Note_off_c, 4, 71, 64
8, 115440, Note_on_c, 4, 78, 117
8, 115822, Note_off_c, 4, 78, 64
8, 115920, Note_on_c, 4, 78, 117
8, 116302, Note_off_c, 4, 78, 64
8, 116400, Note_on_c, 4, 76, 117
8, 116655, Note_off_c, 4, 76, 64
8, 116720, Note_on_c, 4, 74, 117
8, 116847, Note_off_c, 4, 74, 64
8, 116880, Note_on_c, 4, 72, 117
8, 117070, Note_off_c, 4, 72, 64
8, 117120, Note_on_c, 4, 69, 117
8, 117502, Note_off_c, 4, 69, 64
8, 118560, Note_on_c, 4, 66, 117
8, 118815, Note_off_c, 4, 66, 64
8, 118880, Note_on_c, 4, 66, 117
8, 119007, Note_off_c, 4, 66, 64
8, 119040, Note_on_c, 4, 69, 117
8, 119422, Note_off_c, 4, 69, 64
8, 119520, Note_on_c, 4, 73, 117
8, 119902, Note_off_c, 4, 73, 64
8, 120000, Note_on_c, 4, 64, 117
8, 120255, Note_off_c, 4, 64, 64
8, 120320, Note_on_c, 4, 64, 117
8, 120447, Note_off_c, 4, 64, 64
8, 121280, Note_on_c, 4, 69, 117
8, 121407, Note_off_c, 4, 69, 64
8, 121440, Note_on_c, 4, 67, 117
8, 121695, Note_off_c, 4, 67, 64
8, 121760, Note_on_c, 4, 67, 117
8, 121887, Note_off_c, 4, 67, 64
8, 121920, Note_on_c, 4, 64, 117
8, 122302, Note_off_c, 4, 64, 64
8, 122400, Note_on_c, 4, 62, 117
8, 122655, Note_off_c, 4, 62, 64
8, 122720, Note_on_c, 4, 61, 117
8, 123262, Note_off_c, 4, 61, 64
8, 126080, Note_on_c, 4, 85, 102
8, 126207, Note_off_c, 4, 85, 64
8, 126240, Note_on_c, 4, 83, 102
8, 126495, Note_off_c, 4, 83, 64
8, 126560, Note_on_c, 4, 81, 102
8, 126687, Note_off_c, 4, 81, 64
8, 126720, Note_on_c, 4, 85, 102
8, 127102, Note_off_c, 4, 85, 64
8, 128160, Note_on_c, 4, 85, 102
8, 128447, Note_off_c, 4, 85, 64
8, 128480, Note_on_c, 4, 81, 102
8, 128607, Note_off_c, 4, 81, 64
8, 128640, Note_on_c, 4, 85, 102
8, 128895, Note_off_c, 4, 85, 64
8, 128960, Note_on_c, 4, 83, 102
8, 129087, Note_off_c, 4, 83, 64
8, 130800, Note_on_c, 4, 90, 102
8, 131182, Note_off_c, 4, 90, 64
8, 131280, Note_on_c, 4, 90, 102
8, 131662, Note_off_c, 4, 90, 64
8, 131760, Note_on_c, 4, 88, 102
8, 132015, Note_off_c, 4, 88, 64
8, 132080, Note_on_c, 4, 86, 102
8, 132207, Note_off_c, 4, 86, 64
8, 132240, Note_on_c, 4, 84, 102
8, 132430, Note_off_c, 4, 84, 64
8, 132480, Note_on_c, 4, 81, 102
8, 132862, Note_off_c, 4, 81, 64
8, 133920, Note_on_c, 4, 78, 102
8, 134175, Note_off_c, 4, 78, 64
8, 134240, Note_on_c, 4, 78, 102
8, 134367, Note_off_c, 4, 78, 64
8, 134400, Note_on_c, 4, 81, 102
8, 134782, Note_off_c, 4, 81, 64
8, 134880, Note_on_c, 4, 85, 102
8, 135262, Note_off_c, 4, 85, 64
8, 135360, Note_on_c, 4, 76, 102
8, 135615, Note_off_c, 4, 76, 64
8, 135680, Note_on_c, 4, 76, 102
8, 135807, Note_off_c, 4, 76, 64
8, 136640, Note_on_c, 4, 81, 102
8, 136767, Note_off_c, 4, 81, 64
8, 136800, Note_on_c, 4, 79, 102
8, 137055, Note_off_c, 4, 79, 64
8, 137120, Note_on_c, 4, 79, 102
8, 137247, Note_off_c, 4, 79, 64
8, 137280, Note_on_c, 4, 76, 102
8, 137662, Note_off_c, 4, 76, 64
8, 137760, Note_on_c, 4, 74, 102
8, 138015, Note_off_c, 4, 74, 64
8, 138080, Note_on_c, 4, 73, 102
8, 138680, Note_off_c, 4, 73, 64
8, 138720, Note_on_c, 4, 74, 102
8, 138720, Note_on_c, 4, 77, 102
8, 138910, Note_off_c, 4, 77, 64
8, 138910, Note_off_c, 4, 74, 64
8, 138960, Note_on_c, 4, 76, 102
8, 138960, Note_on_c, 4, 73, 102
8, 139967, Note_off_c, 4, 73, 64
8, 139967, Note_off_c, 4, 76, 64
8, 139967, End_track
9, 0, Start_track
9, 0, MIDI_port, 0
9, 0, Channel_prefix, 5
9, 0, Control_c, 5, 10, 64
9, 0, Program_c, 5, 26
9, 480, Control_c, 5, 121, 0
9, 480, Control_c, 5, 120, 0
9, 550, Control_c, 5, 11, 127
9, 550, Control_c, 5, 93, 97
9, 565, Control_c, 5, 91, 96
9, 700, Control_c, 5, 7, 80
9, 700, Control_c, 5, 10, 70
9, 3360, Note_on_c, 5, 64, 127
9, 3520, Note_off_c, 5, 64, 64
9, 3520, Note_on_c, 5, 66, 107
9, 3680, Note_off_c, 5, 66, 64
9, 3680, Note_on_c, 5, 69, 107
9, 3840, Note_off_c, 5, 69, 64
9, 3840, Note_on_c, 5, 71, 127
9, 3945, Pitch_bend_c, 5, 8263
9, 3965, Pitch_bend_c, 5, 8623
9, 3975, Pitch_bend_c, 5, 8839
9, 3985, Pitch_bend_c, 5, 9127
9, 4000, Pitch_bend_c, 5, 9414
9, 4005, Pitch_bend_c, 5, 9702
9, 4025, Pitch_bend_c, 5, 9990
9, 4035, Pitch_bend_c, 5, 10349
9, 4060, Pitch_bend_c, 5, 10781
9, 4070, Pitch_bend_c, 5, 10997
9, 4085, Pitch_bend_c, 5, 11213
9, 4095, Pitch_bend_c, 5, 11428
9, 4110, Pitch_bend_c, 5, 11788
9, 4120, Pitch_bend_c, 5, 12076
9, 4135, Pitch_bend_c, 5, 12363
9, 4135, Control_c, 5, 1, 1
9, 4145, Pitch_bend_c, 5, 12579
9, 4160, Control_c, 5, 1, 6
9, 4170, Pitch_bend_c, 5, 12795
9, 4185, Control_c, 5, 1, 11
9, 4195, Pitch_bend_c, 5, 13011
9, 4195, Control_c, 5, 1, 16
9, 4230, Pitch_bend_c, 5, 13227
9, 4270, Pitch_bend_c, 5, 13442
9, 4280, Pitch_bend_c, 5, 13658
9, 4280, Control_c, 5, 1, 21
9, 4305, Pitch_bend_c, 5, 14018
9, 4305, Control_c, 5, 1, 26
9, 4320, Control_c, 5, 1, 31
9, 4330, Pitch_bend_c, 5, 14305
9, 4340, Pitch_bend_c, 5, 14521
9, 4345, Control_c, 5, 1, 36
9, 4350, Pitch_bend_c, 5, 14737
9, 4365, Pitch_bend_c, 5, 15025
9, 4365, Control_c, 5, 1, 42
9, 4375, Pitch_bend_c, 5, 15241
9, 4385, Pitch_bend_c, 5, 15600
9, 4390, Control_c, 5, 1, 48
9, 4400, Pitch_bend_c, 5, 15816
9, 4415, Pitch_bend_c, 5, 16104
9, 4415, Control_c, 5, 1, 54
9, 4425, Pitch_bend_c, 5, 16320
9, 4435, Control_c, 5, 1, 61
9, 4450, Pitch_bend_c, 5, 16383
9, 4465, Control_c, 5, 1, 69
9, 4515, Control_c, 5, 1, 74
9, 4560, Control_c, 5, 1, 79
9, 4670, Control_c, 5, 1, 84
9, 5060, Control_c, 5, 1, 74
9, 5075, Control_c, 5, 1, 66
9, 5085, Pitch_bend_c, 5, 15816
9, 5085, Control_c, 5, 1, 56
9, 5100, Pitch_bend_c, 5, 15097
9, 5100, Control_c, 5, 1, 39
9, 5110, Pitch_bend_c, 5, 12795
9, 5110, Control_c, 5, 1, 24
9, 5120, Pitch_bend_c, 5, 9918
9, 5125, Control_c, 5, 1, 2
9, 5135, Pitch_bend_c, 5, 8192
9, 5135, Control_c, 5, 1, 0
9, 5200, Note_off_c, 5, 71, 64
9, 5200, Note_on_c, 5, 64, 107
9, 5275, Note_off_c, 5, 64, 64
9, 5280, Note_on_c, 5, 64, 93
9, 5440, Note_on_c, 5, 66, 107
9, 5520, Note_off_c, 5, 64, 64
9, 5600, Note_off_c, 5, 66, 64
9, 5600, Note_on_c, 5, 69, 107
9, 5760, Note_off_c, 5, 69, 64
9, 5760, Note_on_c, 5, 71, 107
9, 5890, Control_c, 5, 1, 7
9, 5905, Control_c, 5, 1, 16
9, 5915, Control_c, 5, 1, 21
9, 5940, Control_c, 5, 1, 27
9, 5965, Control_c, 5, 1, 32
9, 5990, Control_c, 5, 1, 37
9, 6015, Control_c, 5, 1, 46
9, 6025, Control_c, 5, 1, 54
9, 6040, Control_c, 5, 1, 59
9, 6050, Control_c, 5, 1, 66
9, 6065, Control_c, 5, 1, 73
9, 6090, Control_c, 5, 1, 78
9, 6185, Control_c, 5, 1, 83
9, 6240, Note_off_c, 5, 71, 64
9, 6240, Note_on_c, 5, 71, 107
9, 6245, Control_c, 5, 1, 78
9, 6260, Control_c, 5, 1, 73
9, 6270, Control_c, 5, 1, 68
9, 6280, Control_c, 5, 1, 58
9, 6295, Control_c, 5, 1, 41
9, 6305, Control_c, 5, 1, 26
9, 6320, Control_c, 5, 1, 6
9, 6330, Control_c, 5, 1, 0
9, 6560, Note_off_c, 5, 71, 64
9, 6560, Note_on_c, 5, 69, 89
9, 6720, Note_off_c, 5, 69, 64
9, 6720, Note_on_c, 5, 71, 107
9, 6845, Pitch_bend_c, 5, 8263
9, 6855, Pitch_bend_c, 5, 8479
9, 6865, Pitch_bend_c, 5, 8767
9, 6875, Pitch_bend_c, 5, 9199
9, 6885, Pitch_bend_c, 5, 9486
9, 6900, Pitch_bend_c, 5, 9846
9, 6910, Pitch_bend_c, 5, 10134
9, 6925, Pitch_bend_c, 5, 10421
9, 6930, Control_c, 5, 1, 1
9, 6940, Pitch_bend_c, 5, 10781
9, 6950, Pitch_bend_c, 5, 11141
9, 6955, Control_c, 5, 1, 6
9, 6965, Pitch_bend_c, 5, 11500
9, 6975, Pitch_bend_c, 5, 11932
9, 6975, Control_c, 5, 1, 11
9, 6990, Pitch_bend_c, 5, 12148
9, 7000, Pitch_bend_c, 5, 12507
9, 7000, Control_c, 5, 1, 17
9, 7015, Pitch_bend_c, 5, 13083
9, 7025, Pitch_bend_c, 5, 13658
9, 7025, Control_c, 5, 1, 26
9, 7035, Pitch_bend_c, 5, 14305
9, 7050, Pitch_bend_c, 5, 15241
9, 7050, Control_c, 5, 1, 32
9, 7060, Pitch_bend_c, 5, 16176
9, 7075, Pitch_bend_c, 5, 16383
9, 7075, Control_c, 5, 1, 41
9, 7120, Note_off_c, 5, 71, 64
9, 7145, Pitch_bend_c, 5, 16248
9, 7160, Pitch_bend_c, 5, 14090
9, 7160, Control_c, 5, 1, 34
9, 7170, Pitch_bend_c, 5, 12004
9, 7175, Control_c, 5, 1, 21
9, 7185, Pitch_bend_c, 5, 9774
9, 7185, Control_c, 5, 1, 6
9, 7195, Pitch_bend_c, 5, 8192
9, 7200, Control_c, 5, 1, 0
9, 7520, Note_on_c, 5, 64, 76
9, 7595, Note_off_c, 5, 64, 64
9, 7680, Note_on_c, 5, 74, 107
9, 7705, Pitch_bend_c, 5, 8263
9, 7715, Pitch_bend_c, 5, 8695
9, 7730, Pitch_bend_c, 5, 9127
9, 7745, Pitch_bend_c, 5, 9486
9, 7755, Pitch_bend_c, 5, 9846
9, 7770, Pitch_bend_c, 5, 10493
9, 7780, Pitch_bend_c, 5, 11141
9, 7790, Pitch_bend_c, 5, 11716
9, 7800, Pitch_bend_c, 5, 12076
9, 7820, Pitch_bend_c, 5, 12363
9, 7830, Pitch_bend_c, 5, 12579
9, 7845, Pitch_bend_c, 5, 12867
9, 7855, Pitch_bend_c, 5, 13370
9, 7865, Pitch_bend_c, 5, 14090
9, 7880, Pitch_bend_c, 5, 14737
9, 7880, Control_c, 5, 1, 4
9, 7890, Pitch_bend_c, 5, 15169
9, 7905, Pitch_bend_c, 5, 15528
9, 7905, Control_c, 5, 1, 11
9, 7915, Pitch_bend_c, 5, 15744
9, 7930, Control_c, 5, 1, 16
9, 7940, Pitch_bend_c, 5, 16032
9, 7965, Pitch_bend_c, 5, 16320
9, 7990, Pitch_bend_c, 5, 16383
9, 8015, Control_c, 5, 1, 21
9, 8050, Control_c, 5, 1, 26
9, 8080, Note_off_c, 5, 74, 64
9, 8130, Pitch_bend_c, 5, 16176
9, 8145, Pitch_bend_c, 5, 14377
9, 8150, Control_c, 5, 1, 21
9, 8155, Pitch_bend_c, 5, 12651
9, 8160, Control_c, 5, 1, 14
9, 8160, Note_on_c, 5, 72, 127
9, 8170, Pitch_bend_c, 5, 10853
9, 8175, Control_c, 5, 1, 7
9, 8180, Pitch_bend_c, 5, 9486
9, 8185, Control_c, 5, 1, 0
9, 8190, Pitch_bend_c, 5, 9270
9, 8220, Pitch_bend_c, 5, 9630
9, 8235, Pitch_bend_c, 5, 10277
9, 8245, Pitch_bend_c, 5, 10997
9, 8245, Control_c, 5, 1, 4
9, 8255, Pitch_bend_c, 5, 11500
9, 8270, Pitch_bend_c, 5, 12004
9, 8270, Control_c, 5, 1, 11
9, 8280, Pitch_bend_c, 5, 12291
9, 8295, Pitch_bend_c, 5, 12723
9, 8295, Control_c, 5, 1, 16
9, 8305, Pitch_bend_c, 5, 13227
9, 8320, Pitch_bend_c, 5, 13730
9, 8330, Pitch_bend_c, 5, 14162
9, 8345, Pitch_bend_c, 5, 14593
9, 8345, Control_c, 5, 1, 21
9, 8355, Pitch_bend_c, 5, 14953
9, 8365, Pitch_bend_c, 5, 15169
9, 8380, Pitch_bend_c, 5, 15600
9, 8390, Pitch_bend_c, 5, 16032
9, 8405, Pitch_bend_c, 5, 16383
9, 8405, Control_c, 5, 1, 29
9, 8440, Control_c, 5, 1, 34
9, 8560, Note_off_c, 5, 72, 64
9, 8565, Control_c, 5, 1, 29
9, 8575, Control_c, 5, 1, 22
9, 8590, Control_c, 5, 1, 17
9, 8600, Pitch_bend_c, 5, 15456
9, 8600, Control_c, 5, 1, 11
9, 8610, Pitch_bend_c, 5, 12723
9, 8610, Control_c, 5, 1, 0
9, 8625, Pitch_bend_c, 5, 9630
9, 8635, Pitch_bend_c, 5, 8192
9, 8640, Note_on_c, 5, 72, 113
9, 8715, Note_off_c, 5, 72, 64
9, 8720, Control_c, 5, 1, 1
9, 8720, Note_on_c, 5, 69, 107
9, 8735, Control_c, 5, 1, 14
9, 8745, Control_c, 5, 1, 31
9, 8760, Control_c, 5, 1, 48
9, 8770, Control_c, 5, 1, 64
9, 8785, Control_c, 5, 1, 76
9, 8795, Control_c, 5, 1, 83
9, 8880, Control_c, 5, 1, 88
9, 9030, Control_c, 5, 1, 81
9, 9040, Note_off_c, 5, 69, 64
9, 9055, Control_c, 5, 1, 73
9, 9065, Control_c, 5, 1, 63
9, 9070, Control_c, 5, 1, 41
9, 9090, Control_c, 5, 1, 17
9, 9100, Control_c, 5, 1, 0
9, 9120, Note_on_c, 5, 69, 102
9, 9280, Note_off_c, 5, 69, 64
9, 9280, Note_on_c, 5, 66, 113
9, 9360, Note_on_c, 5, 69, 89
9, 9440, Note_off_c, 5, 66, 64
9, 9600, Note_off_c, 5, 69, 64
9, 9600, Note_on_c, 5, 72, 113
9, 9650, Pitch_bend_c, 5, 8263
9, 9660, Pitch_bend_c, 5, 8695
9, 9675, Pitch_bend_c, 5, 9199
9, 9685, Pitch_bend_c, 5, 9774
9, 9700, Pitch_bend_c, 5, 10349
9, 9710, Pitch_bend_c, 5, 10781
9, 9720, Pitch_bend_c, 5, 11141
9, 9735, Pitch_bend_c, 5, 11500
9, 9745, Pitch_bend_c, 5, 12004
9, 9760, Pitch_bend_c, 5, 12435
9, 9770, Pitch_bend_c, 5, 13011
9, 9770, Control_c, 5, 1, 1
9, 9785, Pitch_bend_c, 5, 13442
9, 9795, Pitch_bend_c, 5, 13874
9, 9795, Control_c, 5, 1, 7
9, 9810, Pitch_bend_c, 5, 14234
9, 9815, Pitch_bend_c, 5, 14593
9, 9820, Control_c, 5, 1, 12
9, 9830, Pitch_bend_c, 5, 15097
9, 9845, Pitch_bend_c, 5, 15816
9, 9845, Control_c, 5, 1, 19
9, 9855, Pitch_bend_c, 5, 16383
9, 9860, Control_c, 5, 1, 27
9, 9870, Control_c, 5, 1, 37
9, 9880, Control_c, 5, 1, 44
9, 9895, Control_c, 5, 1, 56
9, 9900, Control_c, 5, 1, 63
9, 9915, Control_c, 5, 1, 69
9, 9920, Note_off_c, 5, 72, 64
9, 9940, Control_c, 5, 1, 74
9, 10005, Control_c, 5, 1, 69
9, 10015, Control_c, 5, 1, 58
9, 10025, Pitch_bend_c, 5, 16032
9, 10030, Control_c, 5, 1, 37
9, 10040, Pitch_bend_c, 5, 13370
9, 10040, Control_c, 5, 1, 14
9, 10050, Pitch_bend_c, 5, 10781
9, 10055, Control_c, 5, 1, 0
9, 10065, Pitch_bend_c, 5, 8551
9, 10075, Pitch_bend_c, 5, 8192
9, 10560, Note_on_c, 5, 64, 113
9, 10720, Note_on_c, 5, 66, 107
9, 10800, Note_off_c, 5, 64, 64
9, 10880, Note_off_c, 5, 66, 64
9, 10880, Note_on_c, 5, 69, 107
9, 11040, Note_on_c, 5, 64, 113
9, 11120, Note_off_c, 5, 69, 64
9, 11200, Note_on_c, 5, 66, 76
9, 11280, Note_off_c, 5, 64, 64
9, 11360, Note_off_c, 5, 66, 64
9, 11360, Note_on_c, 5, 69, 93
9, 11520, Note_off_c, 5, 69, 64
9, 11520, Note_on_c, 5, 71, 107
9, 11565, Pitch_bend_c, 5, 8263
9, 11575, Pitch_bend_c, 5, 8551
9, 11590, Pitch_bend_c, 5, 8911
9, 11600, Pitch_bend_c, 5, 9342
9, 11615, Pitch_bend_c, 5, 9918
9, 11625, Pitch_bend_c, 5, 10493
9, 11635, Pitch_bend_c, 5, 11141
9, 11650, Pitch_bend_c, 5, 11644
9, 11660, Pitch_bend_c, 5, 12148
9, 11675, Pitch_bend_c, 5, 12723
9, 11685, Pitch_bend_c, 5, 13083
9, 11690, Control_c, 5, 1, 4
9, 11700, Pitch_bend_c, 5, 13298
9, 11710, Pitch_bend_c, 5, 13658
9, 11710, Control_c, 5, 1, 11
9, 11735, Pitch_bend_c, 5, 13946
9, 11745, Pitch_bend_c, 5, 14162
9, 11750, Control_c, 5, 1, 17
9, 11760, Pitch_bend_c, 5, 14377
9, 11770, Pitch_bend_c, 5, 14809
9, 11775, Control_c, 5, 1, 22
9, 11785, Pitch_bend_c, 5, 15025
9, 11795, Pitch_bend_c, 5, 15312
9, 11810, Pitch_bend_c, 5, 15744
9, 11810, Control_c, 5, 1, 29
9, 11820, Pitch_bend_c, 5, 16248
9, 11820, Control_c, 5, 1, 34
9, 11835, Pitch_bend_c, 5, 16383
9, 11860, Control_c, 5, 1, 41
9, 11920, Note_off_c, 5, 71, 64
9, 11930, Control_c, 5, 1, 36
9, 11945, Pitch_bend_c, 5, 16248
9, 11955, Pitch_bend_c, 5, 14162
9, 11955, Control_c, 5, 1, 26
9, 11965, Pitch_bend_c, 5, 11572
9, 11970, Control_c, 5, 1, 16
9, 11980, Pitch_bend_c, 5, 9414
9, 11980, Control_c, 5, 1, 4
9, 11985, Pitch_bend_c, 5, 8263
9, 11990, Control_c, 5, 1, 0
9, 12000, Note_on_c, 5, 71, 113
9, 12005, Pitch_bend_c, 5, 8192
9, 12030, Pitch_bend_c, 5, 8407
9, 12040, Pitch_bend_c, 5, 8983
9, 12050, Pitch_bend_c, 5, 9702
9, 12065, Pitch_bend_c, 5, 10493
9, 12075, Pitch_bend_c, 5, 11572
9, 12090, Pitch_bend_c, 5, 12507
9, 12100, Pitch_bend_c, 5, 13298
9, 12115, Pitch_bend_c, 5, 14018
9, 12125, Pitch_bend_c, 5, 14665
9, 12140, Pitch_bend_c, 5, 15097
9, 12150, Pitch_bend_c, 5, 15600
9, 12150, Control_c, 5, 1, 1
9, 12160, Pitch_bend_c, 5, 15888
9, 12175, Pitch_bend_c, 5, 16248
9, 12185, Pitch_bend_c, 5, 16383
9, 12235, Control_c, 5, 1, 7
9, 12285, Control_c, 5, 1, 12
9, 12335, Pitch_bend_c, 5, 15672
9, 12335, Control_c, 5, 1, 7
9, 12340, Pitch_bend_c, 5, 12220
9, 12345, Control_c, 5, 1, 0
9, 12355, Pitch_bend_c, 5, 8623
9, 12370, Pitch_bend_c, 5, 8192
9, 12480, Note_off_c, 5, 71, 64
9, 12480, Note_on_c, 5, 69, 98
9, 12515, Control_c, 5, 1, 2
9, 12530, Control_c, 5, 1, 14
9, 12540, Control_c, 5, 1, 31
9, 12555, Control_c, 5, 1, 44
9, 12565, Control_c, 5, 1, 64
9, 12580, Control_c, 5, 1, 76
9, 12590, Control_c, 5, 1, 88
9, 12605, Control_c, 5, 1, 100
9, 12615, Control_c, 5, 1, 108
9, 12625, Control_c, 5, 1, 113
9, 12640, Control_c, 5, 1, 118
9, 12830, Control_c, 5, 1, 113
9, 12850, Control_c, 5, 1, 108
9, 12860, Control_c, 5, 1, 101
9, 12865, Control_c, 5, 1, 90
9, 12885, Control_c, 5, 1, 74
9, 12895, Control_c, 5, 1, 56
9, 12910, Control_c, 5, 1, 32
9, 12920, Control_c, 5, 1, 7
9, 12930, Control_c, 5, 1, 0
9, 12960, Note_off_c, 5, 69, 64
9, 12960, Note_on_c, 5, 66, 113
9, 13280, Note_off_c, 5, 66, 64
9, 13280, Note_on_c, 5, 64, 102
9, 13440, Note_off_c, 5, 64, 64
9, 13440, Note_on_c, 5, 67, 107
9, 13610, Pitch_bend_c, 5, 8263
9, 13640, Pitch_bend_c, 5, 8551
9, 13660, Pitch_bend_c, 5, 8767
9, 13685, Pitch_bend_c, 5, 9055
9, 13700, Pitch_bend_c, 5, 9558
9, 13710, Pitch_bend_c, 5, 10206
9, 13725, Pitch_bend_c, 5, 10637
9, 13735, Pitch_bend_c, 5, 10925
9, 13810, Pitch_bend_c, 5, 11428
9, 13820, Pitch_bend_c, 5, 11644
9, 13840, Note_off_c, 5, 67, 64
9, 13845, Pitch_bend_c, 5, 11284
9, 13860, Pitch_bend_c, 5, 10493
9, 13870, Pitch_bend_c, 5, 9127
9, 13885, Pitch_bend_c, 5, 8192
9, 13920, Note_on_c, 5, 67, 113
9, 13980, Pitch_bend_c, 5, 8335
9, 13995, Pitch_bend_c, 5, 8623
9, 14005, Pitch_bend_c, 5, 8983
9, 14015, Pitch_bend_c, 5, 9414
9, 14025, Pitch_bend_c, 5, 9918
9, 14035, Pitch_bend_c, 5, 10421
9, 14050, Pitch_bend_c, 5, 10853
9, 14065, Pitch_bend_c, 5, 11141
9, 14140, Pitch_bend_c, 5, 10493
9, 14150, Pitch_bend_c, 5, 8335
9, 14165, Pitch_bend_c, 5, 8192
9, 14240, Note_off_c, 5, 67, 64
9, 14240, Note_on_c, 5, 66, 113
9, 14400, Note_off_c, 5, 66, 64
9, 14400, Note_on_c, 5, 64, 102
9, 14435, Control_c, 5, 1, 1
9, 14445, Control_c, 5, 1, 9
9, 14460, Control_c, 5, 1, 17
9, 14470, Control_c, 5, 1, 24
9, 14485, Control_c, 5, 1, 34
9, 14495, Control_c, 5, 1, 39
9, 14505, Control_c, 5, 1, 49
9, 14520, Control_c, 5, 1, 58
9, 14530, Control_c, 5, 1, 64
9, 14540, Control_c, 5, 1, 71
9, 14550, Control_c, 5, 1, 76
9, 14565, Control_c, 5, 1, 81
9, 14610, Control_c, 5, 1, 88
9, 14655, Control_c, 5, 1, 93
9, 14700, Control_c, 5, 1, 98
9, 14725, Control_c, 5, 1, 103
9, 14800, Note_off_c, 5, 64, 64
9, 14800, Control_c, 5, 1, 96
9, 14810, Control_c, 5, 1, 84
9, 14825, Control_c, 5, 1, 71
9, 14835, Control_c, 5, 1, 49
9, 14850, Control_c, 5, 1, 27
9, 14860, Control_c, 5, 1, 2
9, 14875, Control_c, 5, 1, 0
9, 14880, Note_on_c, 5, 64, 102
9, 15040, Note_off_c, 5, 64, 64
9, 15040, Note_on_c, 5, 66, 98
9, 15200, Note_off_c, 5, 66, 64
9, 15200, Note_on_c, 5, 69, 107
9, 15300, Control_c, 5, 1, 6
9, 15325, Control_c, 5, 1, 16
9, 15335, Control_c, 5, 1, 21
9, 15345, Control_c, 5, 1, 32
9, 15355, Control_c, 5, 1, 41
9, 15360, Note_off_c, 5, 69, 64
9, 15360, Note_on_c, 5, 69, 93
9, 15370, Control_c, 5, 1, 56
9, 15385, Control_c, 5, 1, 64
9, 15395, Control_c, 5, 1, 69
9, 15420, Control_c, 5, 1, 76
9, 15460, Control_c, 5, 1, 83
9, 15480, Control_c, 5, 1, 90
9, 15530, Control_c, 5, 1, 84
9, 15615, Control_c, 5, 1, 76
9, 15630, Control_c, 5, 1, 68
9, 15640, Control_c, 5, 1, 59
9, 15655, Control_c, 5, 1, 41
9, 15665, Control_c, 5, 1, 24
9, 15680, Control_c, 5, 1, 2
9, 15690, Control_c, 5, 1, 0
9, 15770, Pitch_bend_c, 5, 5688
9, 15780, Pitch_bend_c, 5, 2503
9, 15800, Pitch_bend_c, 5, 758
9, 15810, Pitch_bend_c, 5, 0
9, 15840, Note_off_c, 5, 69, 64
9, 15840, Note_on_c, 5, 64, 113
9, 15895, Pitch_bend_c, 5, 682
9, 15910, Pitch_bend_c, 5, 2427
9, 15920, Pitch_bend_c, 5, 4626
9, 15935, Pitch_bend_c, 5, 6674
9, 15945, Pitch_bend_c, 5, 8192
9, 16000, Note_off_c, 5, 64, 64
9, 16000, Note_on_c, 5, 69, 107
9, 16160, Note_off_c, 5, 69, 64
9, 16160, Note_on_c, 5, 64, 102
9, 16320, Note_off_c, 5, 64, 64
9, 16320, Note_on_c, 5, 67, 107
9, 16345, Pitch_bend_c, 5, 8695
9, 16360, Pitch_bend_c, 5, 12507
9, 16370, Pitch_bend_c, 5, 16383
9, 16375, Control_c, 5, 1, 12
9, 16400, Control_c, 5, 1, 22
9, 16445, Control_c, 5, 1, 17
9, 16460, Pitch_bend_c, 5, 14953
9, 16470, Pitch_bend_c, 5, 11644
9, 16470, Control_c, 5, 1, 9
9, 16480, Pitch_bend_c, 5, 8192
9, 16485, Control_c, 5, 1, 0
9, 16640, Note_off_c, 5, 67, 64
9, 16640, Note_on_c, 5, 64, 98
9, 16800, Note_off_c, 5, 64, 64
9, 16800, Note_on_c, 5, 62, 107
9, 16960, Note_off_c, 5, 62, 64
9, 16960, Note_on_c, 5, 60, 102
9, 17120, Note_off_c, 5, 60, 64
9, 17120, Note_on_c, 5, 62, 113
9, 17195, Note_off_c, 5, 62, 64
9, 17280, Note_on_c, 5, 60, 113
9, 17390, Pitch_bend_c, 5, 8263
9, 17435, Pitch_bend_c, 5, 8479
9, 17470, Pitch_bend_c, 5, 8695
9, 17495, Pitch_bend_c, 5, 8911
9, 17520, Pitch_bend_c, 5, 9199
9, 17555, Pitch_bend_c, 5, 9414
9, 17580, Pitch_bend_c, 5, 9630
9, 17640, Pitch_bend_c, 5, 10062
9, 17655, Pitch_bend_c, 5, 10493
9, 17665, Pitch_bend_c, 5, 10997
9, 17680, Pitch_bend_c, 5, 11572
9, 17690, Pitch_bend_c, 5, 12004
9, 17725, Pitch_bend_c, 5, 9846
9, 17740, Pitch_bend_c, 5, 8192
9, 17760, Note_off_c, 5, 60, 64
9, 17760, Note_on_c, 5, 57, 102
9, 18000, Note_off_c, 5, 57, 64
9, 18000, Note_on_c, 5, 52, 113
9, 18215, Control_c, 5, 1, 1
9, 18230, Control_c, 5, 1, 14
9, 18240, Control_c, 5, 1, 27
9, 18255, Control_c, 5, 1, 36
9, 18265, Control_c, 5, 1, 41
9, 18280, Control_c, 5, 1, 48
9, 18290, Control_c, 5, 1, 56
9, 18315, Control_c, 5, 1, 66
9, 18320, Control_c, 5, 1, 71
9, 18350, Control_c, 5, 1, 79
9, 18480, Note_off_c, 5, 52, 64
9, 18580, Control_c, 5, 1, 71
9, 18595, Control_c, 5, 1, 59
9, 18605, Control_c, 5, 1, 42
9, 18620, Control_c, 5, 1, 31
9, 18630, Control_c, 5, 1, 14
9, 18645, Control_c, 5, 1, 1
9, 18655, Control_c, 5, 1, 0
9, 18720, Note_on_c, 5, 69, 113
9, 18880, Note_off_c, 5, 69, 64
9, 18880, Note_on_c, 5, 73, 113
9, 18955, Note_off_c, 5, 73, 64
9, 19040, Note_on_c, 5, 74, 102
9, 19115, Note_off_c, 5, 74, 64
9, 19200, Note_on_c, 5, 74, 119
9, 19250, Pitch_bend_c, 5, 8407
9, 19265, Pitch_bend_c, 5, 8767
9, 19275, Pitch_bend_c, 5, 9270
9, 19290, Pitch_bend_c, 5, 9774
9, 19300, Pitch_bend_c, 5, 10277
9, 19300, Control_c, 5, 1, 1
9, 19315, Pitch_bend_c, 5, 10781
9, 19315, Control_c, 5, 1, 11
9, 19325, Pitch_bend_c, 5, 11213
9, 19325, Control_c, 5, 1, 16
9, 19335, Pitch_bend_c, 5, 11572
9, 19350, Pitch_bend_c, 5, 12004
9, 19350, Control_c, 5, 1, 21
9, 19360, Pitch_bend_c, 5, 12220
9, 19375, Pitch_bend_c, 5, 12579
9, 19375, Control_c, 5, 1, 27
9, 19385, Pitch_bend_c, 5, 12939
9, 19400, Pitch_bend_c, 5, 13298
9, 19400, Control_c, 5, 1, 32
9, 19410, Pitch_bend_c, 5, 13730
9, 19425, Pitch_bend_c, 5, 14018
9, 19425, Control_c, 5, 1, 39
9, 19435, Pitch_bend_c, 5, 14305
9, 19445, Pitch_bend_c, 5, 14521
9, 19450, Control_c, 5, 1, 48
9, 19460, Pitch_bend_c, 5, 14809
9, 19470, Pitch_bend_c, 5, 15097
9, 19475, Control_c, 5, 1, 54
9, 19485, Pitch_bend_c, 5, 15456
9, 19485, Control_c, 5, 1, 59
9, 19490, Pitch_bend_c, 5, 15744
9, 19505, Pitch_bend_c, 5, 16104
9, 19510, Control_c, 5, 1, 68
9, 19520, Pitch_bend_c, 5, 16320
9, 19545, Pitch_bend_c, 5, 16383
9, 19545, Control_c, 5, 1, 73
9, 19560, Control_c, 5, 1, 78
9, 19595, Control_c, 5, 1, 83
9, 19630, Control_c, 5, 1, 88
9, 19690, Control_c, 5, 1, 93
9, 19755, Control_c, 5, 1, 98
9, 20000, Control_c, 5, 1, 93
9, 20010, Control_c, 5, 1, 88
9, 20030, Control_c, 5, 1, 79
9, 20040, Control_c, 5, 1, 74
9, 20060, Control_c, 5, 1, 68
9, 20070, Control_c, 5, 1, 58
9, 20080, Note_off_c, 5, 74, 64
9, 20080, Control_c, 5, 1, 42
9, 20095, Control_c, 5, 1, 32
9, 20105, Control_c, 5, 1, 16
9, 20120, Pitch_bend_c, 5, 15169
9, 20120, Control_c, 5, 1, 1
9, 20130, Pitch_bend_c, 5, 13083
9, 20130, Control_c, 5, 1, 0
9, 20140, Pitch_bend_c, 5, 9918
9, 20155, Pitch_bend_c, 5, 8192
9, 20160, Note_on_c, 5, 74, 119
9, 20180, Pitch_bend_c, 5, 8335
9, 20190, Pitch_bend_c, 5, 9414
9, 20205, Pitch_bend_c, 5, 10493
9, 20215, Pitch_bend_c, 5, 11141
9, 20230, Pitch_bend_c, 5, 11356
9, 20240, Pitch_bend_c, 5, 11644
9, 20250, Pitch_bend_c, 5, 11932
9, 20265, Pitch_bend_c, 5, 12363
9, 20275, Pitch_bend_c, 5, 13083
9, 20290, Pitch_bend_c, 5, 13802
9, 20300, Pitch_bend_c, 5, 14377
9, 20315, Pitch_bend_c, 5, 14593
9, 20325, Pitch_bend_c, 5, 14881
9, 20340, Pitch_bend_c, 5, 15097
9, 20345, Pitch_bend_c, 5, 15384
9, 20365, Pitch_bend_c, 5, 15816
9, 20365, Control_c, 5, 1, 6
9, 20375, Pitch_bend_c, 5, 16383
9, 20375, Control_c, 5, 1, 14
9, 20390, Control_c, 5, 1, 21
9, 20410, Control_c, 5, 1, 27
9, 20495, Control_c, 5, 1, 34
9, 20560, Control_c, 5, 1, 39
9, 20630, Control_c, 5, 1, 46
9, 20755, Control_c, 5, 1, 51
9, 20960, Control_c, 5, 1, 44
9, 21000, Control_c, 5, 1, 39
9, 21020, Control_c, 5, 1, 34
9, 21035, Control_c, 5, 1, 29
9, 21040, Note_off_c, 5, 74, 64
9, 21045, Control_c, 5, 1, 21
9, 21060, Control_c, 5, 1, 14
9, 21070, Pitch_bend_c, 5, 15960
9, 21070, Control_c, 5, 1, 7
9, 21080, Pitch_bend_c, 5, 14521
9, 21085, Control_c, 5, 1, 0
9, 21095, Pitch_bend_c, 5, 12291
9, 21105, Pitch_bend_c, 5, 10493
9, 21120, Pitch_bend_c, 5, 9270
9, 21120, Note_on_c, 5, 74, 119
9, 21130, Pitch_bend_c, 5, 9055
9, 21155, Pitch_bend_c, 5, 9486
9, 21170, Pitch_bend_c, 5, 10493
9, 21180, Pitch_bend_c, 5, 11356
9, 21185, Pitch_bend_c, 5, 12148
9, 21205, Pitch_bend_c, 5, 12867
9, 21210, Pitch_bend_c, 5, 13514
9, 21225, Pitch_bend_c, 5, 14305
9, 21235, Pitch_bend_c, 5, 15456
9, 21250, Pitch_bend_c, 5, 16383
9, 21280, Control_c, 5, 1, 2
9, 21340, Control_c, 5, 1, 7
9, 21365, Control_c, 5, 1, 14
9, 21415, Control_c, 5, 1, 21
9, 21460, Control_c, 5, 1, 16
9, 21485, Control_c, 5, 1, 11
9, 21510, Control_c, 5, 1, 2
9, 21525, Control_c, 5, 1, 0
9, 21535, Pitch_bend_c, 5, 15384
9, 21545, Pitch_bend_c, 5, 13155
9, 21560, Pitch_bend_c, 5, 10925
9, 21570, Pitch_bend_c, 5, 9199
9, 21585, Pitch_bend_c, 5, 8192
9, 21600, Note_off_c, 5, 74, 64
9, 21600, Note_on_c, 5, 74, 113
9, 21615, Pitch_bend_c, 5, 8263
9, 21630, Pitch_bend_c, 5, 9127
9, 21645, Pitch_bend_c, 5, 10421
9, 21650, Pitch_bend_c, 5, 11644
9, 21665, Pitch_bend_c, 5, 13083
9, 21680, Pitch_bend_c, 5, 14737
9, 21690, Pitch_bend_c, 5, 16320
9, 21700, Pitch_bend_c, 5, 16383
9, 21925, Pitch_bend_c, 5, 14665
9, 21935, Pitch_bend_c, 5, 10349
9, 21950, Pitch_bend_c, 5, 8192
9, 21985, Control_c, 5, 1, 9
9, 22000, Control_c, 5, 1, 14
9, 22060, Control_c, 5, 1, 19
9, 22070, Control_c, 5, 1, 26
9, 22085, Control_c, 5, 1, 34
9, 22090, Control_c, 5, 1, 39
9, 22110, Control_c, 5, 1, 48
9, 22120, Control_c, 5, 1, 56
9, 22135, Control_c, 5, 1, 61
9, 22145, Control_c, 5, 1, 66
9, 22390, Control_c, 5, 1, 61
9, 22465, Control_c, 5, 1, 54
9, 22485, Control_c, 5, 1, 49
9, 22500, Control_c, 5, 1, 42
9, 22525, Control_c, 5, 1, 32
9, 22535, Control_c, 5, 1, 24
9, 22550, Control_c, 5, 1, 16
9, 22555, Control_c, 5, 1, 11
9, 22570, Control_c, 5, 1, 4
9, 22830, Control_c, 5, 1, 0
9, 22880, Note_off_c, 5, 74, 64
9, 22880, Note_on_c, 5, 76, 113
9, 23040, Note_off_c, 5, 76, 64
9, 23040, Note_on_c, 5, 79, 127
9, 23095, Pitch_bend_c, 5, 8335
9, 23105, Pitch_bend_c, 5, 9055
9, 23120, Pitch_bend_c, 5, 9918
9, 23130, Pitch_bend_c, 5, 10493
9, 23135, Control_c, 5, 1, 6
9, 23145, Pitch_bend_c, 5, 10853
9, 23145, Control_c, 5, 1, 14
9, 23160, Control_c, 5, 1, 19
9, 23170, Pitch_bend_c, 5, 11213
9, 23170, Control_c, 5, 1, 26
9, 23180, Pitch_bend_c, 5, 11716
9, 23180, Control_c, 5, 1, 34
9, 23195, Pitch_bend_c, 5, 12435
9, 23205, Pitch_bend_c, 5, 13370
9, 23205, Control_c, 5, 1, 44
9, 23220, Pitch_bend_c, 5, 14234
9, 23220, Control_c, 5, 1, 53
9, 23230, Pitch_bend_c, 5, 15025
9, 23230, Control_c, 5, 1, 59
9, 23240, Pitch_bend_c, 5, 15528
9, 23245, Control_c, 5, 1, 64
9, 23255, Pitch_bend_c, 5, 15888
9, 23255, Control_c, 5, 1, 69
9, 23265, Pitch_bend_c, 5, 16320
9, 23275, Pitch_bend_c, 5, 16383
9, 23280, Control_c, 5, 1, 76
9, 23305, Control_c, 5, 1, 81
9, 23335, Control_c, 5, 1, 88
9, 23365, Control_c, 5, 1, 95
9, 23450, Control_c, 5, 1, 83
9, 23460, Control_c, 5, 1, 76
9, 23470, Control_c, 5, 1, 69
9, 23485, Control_c, 5, 1, 59
9, 23500, Pitch_bend_c, 5, 15384
9, 23500, Control_c, 5, 1, 48
9, 23510, Pitch_bend_c, 5, 13946
9, 23510, Control_c, 5, 1, 36
9, 23520, Note_off_c, 5, 79, 64
9, 23520, Pitch_bend_c, 5, 12363
9, 23520, Note_on_c, 5, 79, 113
9, 23525, Control_c, 5, 1, 26
9, 23535, Control_c, 5, 1, 14
9, 23535, Pitch_bend_c, 5, 10997
9, 23545, Pitch_bend_c, 5, 10349
9, 23550, Control_c, 5, 1, 6
9, 23570, Pitch_bend_c, 5, 10997
9, 23585, Pitch_bend_c, 5, 12004
9, 23595, Pitch_bend_c, 5, 13011
9, 23610, Pitch_bend_c, 5, 13730
9, 23610, Control_c, 5, 1, 17
9, 23620, Pitch_bend_c, 5, 14377
9, 23620, Control_c, 5, 1, 27
9, 23630, Pitch_bend_c, 5, 15169
9, 23635, Control_c, 5, 1, 39
9, 23645, Pitch_bend_c, 5, 15888
9, 23645, Control_c, 5, 1, 51
9, 23655, Pitch_bend_c, 5, 16383
9, 23660, Control_c, 5, 1, 58
9, 23745, Control_c, 5, 1, 63
9, 23795, Control_c, 5, 1, 68
9, 23875, Control_c, 5, 1, 63
9, 23890, Control_c, 5, 1, 54
9, 23900, Control_c, 5, 1, 39
9, 23915, Pitch_bend_c, 5, 15744
9, 23915, Control_c, 5, 1, 29
9, 23920, Note_off_c, 5, 79, 64
9, 23925, Pitch_bend_c, 5, 14234
9, 23925, Control_c, 5, 1, 16
9, 23935, Pitch_bend_c, 5, 11932
9, 23940, Control_c, 5, 1, 6
9, 23950, Pitch_bend_c, 5, 9486
9, 23950, Control_c, 5, 1, 0
9, 23960, Pitch_bend_c, 5, 8192
9, 24000, Note_on_c, 5, 79, 119
9, 24025, Pitch_bend_c, 5, 9342
9, 24035, Pitch_bend_c, 5, 12148
9, 24035, Control_c, 5, 1, 7
9, 24045, Pitch_bend_c, 5, 15672
9, 24050, Control_c, 5, 1, 27
9, 24060, Pitch_bend_c, 5, 16383
9, 24060, Control_c, 5, 1, 46
9, 24075, Control_c, 5, 1, 58
9, 24085, Control_c, 5, 1, 63
9, 24120, Control_c, 5, 1, 56
9, 24135, Control_c, 5, 1, 42
9, 24145, Control_c, 5, 1, 31
9, 24155, Pitch_bend_c, 5, 16176
9, 24160, Control_c, 5, 1, 16
9, 24170, Pitch_bend_c, 5, 13011
9, 24170, Control_c, 5, 1, 2
9, 24180, Pitch_bend_c, 5, 9702
9, 24185, Control_c, 5, 1, 0
9, 24190, Pitch_bend_c, 5, 8192
9, 24320, Note_on_c, 5, 76, 98
9, 24400, Note_off_c, 5, 79, 64
9, 24480, Note_off_c, 5, 76, 64
9, 24480, Note_on_c, 5, 74, 113
9, 24640, Note_off_c, 5, 74, 64
9, 24640, Note_on_c, 5, 72, 107
9, 24800, Note_off_c, 5, 72, 64
9, 24800, Note_on_c, 5, 74, 107
9, 24875, Note_off_c, 5, 74, 64
9, 24960, Note_on_c, 5, 74, 107
9, 24980, Pitch_bend_c, 5, 8263
9, 25000, Pitch_bend_c, 5, 8479
9, 25010, Pitch_bend_c, 5, 8911
9, 25025, Pitch_bend_c, 5, 9486
9, 25030, Pitch_bend_c, 5, 10206
9, 25050, Pitch_bend_c, 5, 10853
9, 25050, Control_c, 5, 1, 1
9, 25060, Pitch_bend_c, 5, 11500
9, 25060, Control_c, 5, 1, 6
9, 25070, Pitch_bend_c, 5, 12076
9, 25075, Control_c, 5, 1, 11
9, 25085, Pitch_bend_c, 5, 12651
9, 25095, Pitch_bend_c, 5, 13083
9, 25095, Control_c, 5, 1, 17
9, 25110, Pitch_bend_c, 5, 13730
9, 25120, Pitch_bend_c, 5, 14305
9, 25120, Control_c, 5, 1, 26
9, 25135, Pitch_bend_c, 5, 15097
9, 25135, Control_c, 5, 1, 34
9, 25145, Pitch_bend_c, 5, 15672
9, 25155, Pitch_bend_c, 5, 16176
9, 25160, Control_c, 5, 1, 41
9, 25170, Pitch_bend_c, 5, 16383
9, 25170, Control_c, 5, 1, 48
9, 25185, Control_c, 5, 1, 54
9, 25195, Control_c, 5, 1, 59
9, 25210, Control_c, 5, 1, 64
9, 25220, Control_c, 5, 1, 69
9, 25270, Control_c, 5, 1, 74
9, 25365, Control_c, 5, 1, 68
9, 25380, Control_c, 5, 1, 58
9, 25390, Pitch_bend_c, 5, 14881
9, 25390, Control_c, 5, 1, 42
9, 25400, Pitch_bend_c, 5, 12220
9, 25405, Control_c, 5, 1, 31
9, 25415, Pitch_bend_c, 5, 9199
9, 25415, Control_c, 5, 1, 14
9, 25425, Pitch_bend_c, 5, 8192
9, 25430, Control_c, 5, 1, 6
9, 25440, Note_off_c, 5, 74, 64
9, 25440, Control_c, 5, 1, 0
9, 25440, Note_on_c, 5, 72, 119
9, 25500, Pitch_bend_c, 5, 8407
9, 25505, Pitch_bend_c, 5, 8911
9, 25510, Control_c, 5, 1, 4
9, 25525, Pitch_bend_c, 5, 9774
9, 25525, Control_c, 5, 1, 9
9, 25535, Pitch_bend_c, 5, 10997
9, 25535, Control_c, 5, 1, 14
9, 25550, Pitch_bend_c, 5, 12148
9, 25560, Pitch_bend_c, 5, 13298
9, 25560, Control_c, 5, 1, 21
9, 25570, Pitch_bend_c, 5, 14162
9, 25585, Pitch_bend_c, 5, 14809
9, 25585, Control_c, 5, 1, 26
9, 25595, Pitch_bend_c, 5, 15241
9, 25610, Pitch_bend_c, 5, 15528
9, 25620, Pitch_bend_c, 5, 15888
9, 25635, Pitch_bend_c, 5, 16383
9, 25660, Control_c, 5, 1, 31
9, 25695, Control_c, 5, 1, 36
9, 25735, Control_c, 5, 1, 42
9, 25755, Control_c, 5, 1, 48
9, 25830, Control_c, 5, 1, 41
9, 25840, Note_off_c, 5, 72, 64
9, 25845, Control_c, 5, 1, 34
9, 25855, Control_c, 5, 1, 22
9, 25860, Control_c, 5, 1, 9
9, 25875, Pitch_bend_c, 5, 16032
9, 25880, Control_c, 5, 1, 0
9, 25890, Pitch_bend_c, 5, 13658
9, 25900, Pitch_bend_c, 5, 10421
9, 25915, Pitch_bend_c, 5, 8192
9, 25920, Note_on_c, 5, 72, 113
9, 25995, Note_off_c, 5, 72, 64
9, 26000, Note_on_c, 5, 69, 113
9, 26035, Control_c, 5, 1, 11
9, 26050, Control_c, 5, 1, 17
9, 26060, Control_c, 5, 1, 22
9, 26075, Control_c, 5, 1, 29
9, 26100, Control_c, 5, 1, 36
9, 26125, Control_c, 5, 1, 48
9, 26135, Control_c, 5, 1, 58
9, 26145, Control_c, 5, 1, 66
9, 26160, Control_c, 5, 1, 73
9, 26185, Control_c, 5, 1, 78
9, 26220, Control_c, 5, 1, 71
9, 26330, Control_c, 5, 1, 76
9, 26350, Control_c, 5, 1, 69
9, 26365, Control_c, 5, 1, 56
9, 26380, Control_c, 5, 1, 34
9, 26390, Control_c, 5, 1, 9
9, 26400, Note_off_c, 5, 69, 64
9, 26400, Control_c, 5, 1, 0
9, 26400, Note_on_c, 5, 64, 113
9, 26560, Note_on_c, 5, 66, 80
9, 26640, Note_off_c, 5, 64, 64
9, 26720, Note_off_c, 5, 66, 64
9, 26720, Note_on_c, 5, 69, 102
9, 26880, Note_off_c, 5, 69, 64
9, 26880, Note_on_c, 5, 71, 113
9, 27000, Pitch_bend_c, 5, 8335
9, 27010, Pitch_bend_c, 5, 8623
9, 27025, Pitch_bend_c, 5, 8911
9, 27025, Control_c, 5, 1, 1
9, 27035, Pitch_bend_c, 5, 9342
9, 27050, Pitch_bend_c, 5, 9918
9, 27050, Control_c, 5, 1, 6
9, 27060, Pitch_bend_c, 5, 10565
9, 27075, Pitch_bend_c, 5, 11213
9, 27075, Control_c, 5, 1, 11
9, 27080, Pitch_bend_c, 5, 11716
9, 27095, Pitch_bend_c, 5, 12004
9, 27100, Control_c, 5, 1, 16
9, 27110, Control_c, 5, 1, 21
9, 27120, Pitch_bend_c, 5, 12291
9, 27125, Control_c, 5, 1, 26
9, 27135, Pitch_bend_c, 5, 12651
9, 27135, Control_c, 5, 1, 32
9, 27145, Pitch_bend_c, 5, 13083
9, 27150, Control_c, 5, 1, 37
9, 27160, Pitch_bend_c, 5, 13514
9, 27165, Pitch_bend_c, 5, 13874
9, 27175, Control_c, 5, 1, 44
9, 27180, Pitch_bend_c, 5, 14305
9, 27180, Control_c, 5, 1, 53
9, 27195, Pitch_bend_c, 5, 14593
9, 27205, Pitch_bend_c, 5, 15097
9, 27210, Control_c, 5, 1, 58
9, 27220, Pitch_bend_c, 5, 15456
9, 27230, Pitch_bend_c, 5, 15816
9, 27245, Pitch_bend_c, 5, 16032
9, 27280, Note_off_c, 5, 71, 64
9, 27280, Pitch_bend_c, 5, 15600
9, 27280, Control_c, 5, 1, 51
9, 27295, Pitch_bend_c, 5, 14593
9, 27295, Control_c, 5, 1, 41
9, 27305, Pitch_bend_c, 5, 12867
9, 27305, Control_c, 5, 1, 36
9, 27315, Pitch_bend_c, 5, 10853
9, 27320, Control_c, 5, 1, 27
9, 27330, Pitch_bend_c, 5, 8623
9, 27330, Control_c, 5, 1, 16
9, 27340, Pitch_bend_c, 5, 8192
9, 27345, Control_c, 5, 1, 0
9, 27360, Note_on_c, 5, 71, 119
9, 27405, Pitch_bend_c, 5, 8263
9, 27415, Pitch_bend_c, 5, 8623
9, 27425, Pitch_bend_c, 5, 9270
9, 27440, Pitch_bend_c, 5, 10134
9, 27450, Pitch_bend_c, 5, 11141
9, 27465, Pitch_bend_c, 5, 11932
9, 27465, Control_c, 5, 1, 4
9, 27475, Pitch_bend_c, 5, 12435
9, 27480, Control_c, 5, 1, 9
9, 27490, Pitch_bend_c, 5, 12939
9, 27500, Pitch_bend_c, 5, 13298
9, 27515, Control_c, 5, 1, 14
9, 27520, Pitch_bend_c, 5, 13730
9, 27535, Pitch_bend_c, 5, 14090
9, 27545, Pitch_bend_c, 5, 14881
9, 27545, Control_c, 5, 1, 21
9, 27560, Pitch_bend_c, 5, 15600
9, 27570, Pitch_bend_c, 5, 16383
9, 27575, Control_c, 5, 1, 31
9, 27585, Control_c, 5, 1, 36
9, 27605, Control_c, 5, 1, 42
9, 27685, Control_c, 5, 1, 37
9, 27695, Pitch_bend_c, 5, 15384
9, 27710, Pitch_bend_c, 5, 12507
9, 27710, Control_c, 5, 1, 26
9, 27720, Pitch_bend_c, 5, 9342
9, 27720, Control_c, 5, 1, 16
9, 27730, Pitch_bend_c, 5, 8192
9, 27735, Control_c, 5, 1, 1
9, 27745, Control_c, 5, 1, 0
9, 27840, Note_off_c, 5, 71, 64
9, 27840, Note_on_c, 5, 69, 98
9, 27890, Control_c, 5, 1, 11
9, 27905, Control_c, 5, 1, 27
9, 27915, Control_c, 5, 1, 44
9, 27930, Control_c, 5, 1, 68
9, 27940, Control_c, 5, 1, 83
9, 27955, Control_c, 5, 1, 96
9, 27965, Control_c, 5, 1, 103
9, 27980, Control_c, 5, 1, 108
9, 27985, Control_c, 5, 1, 113
9, 28195, Control_c, 5, 1, 108
9, 28210, Control_c, 5, 1, 103
9, 28220, Control_c, 5, 1, 93
9, 28235, Control_c, 5, 1, 81
9, 28245, Control_c, 5, 1, 66
9, 28260, Control_c, 5, 1, 44
9, 28270, Control_c, 5, 1, 26
9, 28285, Control_c, 5, 1, 9
9, 28295, Control_c, 5, 1, 0
9, 28320, Note_off_c, 5, 69, 64
9, 28320, Note_on_c, 5, 64, 107
9, 28640, Note_off_c, 5, 64, 64
9, 29120, Note_on_c, 5, 74, 127
9, 29135, Pitch_bend_c, 5, 8551
9, 29150, Pitch_bend_c, 5, 9199
9, 29160, Pitch_bend_c, 5, 9774
9, 29170, Pitch_bend_c, 5, 10421
9, 29180, Pitch_bend_c, 5, 11141
9, 29190, Pitch_bend_c, 5, 11860
9, 29205, Pitch_bend_c, 5, 12579
9, 29220, Pitch_bend_c, 5, 13442
9, 29235, Pitch_bend_c, 5, 14234
9, 29240, Pitch_bend_c, 5, 15169
9, 29255, Pitch_bend_c, 5, 15744
9, 29270, Pitch_bend_c, 5, 16176
9, 29340, Pitch_bend_c, 5, 15528
9, 29355, Pitch_bend_c, 5, 13730
9, 29360, Note_off_c, 5, 74, 64
9, 29365, Pitch_bend_c, 5, 11356
9, 29380, Pitch_bend_c, 5, 8911
9, 29390, Pitch_bend_c, 5, 8192
9, 29440, Note_on_c, 5, 74, 119
9, 29455, Pitch_bend_c, 5, 8623
9, 29465, Pitch_bend_c, 5, 9127
9, 29475, Pitch_bend_c, 5, 9486
9, 29490, Pitch_bend_c, 5, 9990
9, 29500, Pitch_bend_c, 5, 10781
9, 29515, Pitch_bend_c, 5, 11356
9, 29525, Pitch_bend_c, 5, 12148
9, 29540, Pitch_bend_c, 5, 12795
9, 29550, Pitch_bend_c, 5, 13370
9, 29565, Pitch_bend_c, 5, 13874
9, 29575, Pitch_bend_c, 5, 14377
9, 29585, Pitch_bend_c, 5, 15025
9, 29600, Pitch_bend_c, 5, 15600
9, 29605, Pitch_bend_c, 5, 16032
9, 29620, Pitch_bend_c, 5, 16383
9, 29680, Note_off_c, 5, 74, 64
9, 29685, Pitch_bend_c, 5, 15744
9, 29695, Pitch_bend_c, 5, 14234
9, 29710, Pitch_bend_c, 5, 12507
9, 29720, Pitch_bend_c, 5, 10493
9, 29735, Pitch_bend_c, 5, 8623
9, 29745, Pitch_bend_c, 5, 8192
9, 29760, Note_on_c, 5, 74, 119
9, 29795, Pitch_bend_c, 5, 9199
9, 29805, Pitch_bend_c, 5, 11141
9, 29820, Pitch_bend_c, 5, 12723
9, 29830, Pitch_bend_c, 5, 13802
9, 29845, Pitch_bend_c, 5, 14305
9, 29855, Pitch_bend_c, 5, 14809
9, 29865, Pitch_bend_c, 5, 15169
9, 29880, Pitch_bend_c, 5, 15600
9, 29890, Pitch_bend_c, 5, 15960
9, 29905, Pitch_bend_c, 5, 16320
9, 29930, Pitch_bend_c, 5, 16383
9, 29990, Control_c, 5, 1, 4
9, 30185, Pitch_bend_c, 5, 15025
9, 30185, Control_c, 5, 1, 0
9, 30195, Pitch_bend_c, 5, 12507
9, 30210, Pitch_bend_c, 5, 9702
9, 30220, Pitch_bend_c, 5, 8192
9, 30240, Note_off_c, 5, 74, 64
9, 30240, Note_on_c, 5, 72, 119
9, 30345, Pitch_bend_c, 5, 8263
9, 30355, Pitch_bend_c, 5, 8623
9, 30370, Pitch_bend_c, 5, 8839
9, 30390, Pitch_bend_c, 5, 9127
9, 30405, Pitch_bend_c, 5, 9414
9, 30430, Pitch_bend_c, 5, 9774
9, 30455, Pitch_bend_c, 5, 10206
9, 30475, Pitch_bend_c, 5, 10421
9, 30500, Pitch_bend_c, 5, 10781
9, 30525, Pitch_bend_c, 5, 11069
9, 30540, Pitch_bend_c, 5, 11284
9, 30550, Pitch_bend_c, 5, 11572
9, 30560, Pitch_bend_c, 5, 11932
9, 30585, Pitch_bend_c, 5, 12148
9, 30640, Note_off_c, 5, 72, 64
9, 30650, Pitch_bend_c, 5, 11644
9, 30660, Pitch_bend_c, 5, 10277
9, 30675, Pitch_bend_c, 5, 8192
9, 30720, Note_on_c, 5, 69, 107
9, 30795, Control_c, 5, 1, 14
9, 30810, Control_c, 5, 1, 32
9, 30820, Control_c, 5, 1, 49
9, 30835, Control_c, 5, 1, 64
9, 30845, Control_c, 5, 1, 73
9, 30860, Control_c, 5, 1, 79
9, 30870, Control_c, 5, 1, 84
9, 30880, Control_c, 5, 1, 91
9, 30895, Control_c, 5, 1, 100
9, 30905, Control_c, 5, 1, 110
9, 30920, Control_c, 5, 1, 118
9, 30925, Control_c, 5, 1, 127
9, 30990, Control_c, 5, 1, 116
9, 31005, Control_c, 5, 1, 106
9, 31015, Control_c, 5, 1, 86
9, 31030, Control_c, 5, 1, 73
9, 31040, Control_c, 5, 1, 56
9, 31050, Control_c, 5, 1, 39
9, 31065, Control_c, 5, 1, 26
9, 31075, Control_c, 5, 1, 9
9, 31090, Control_c, 5, 1, 0
9, 31150, Pitch_bend_c, 5, 7205
9, 31160, Pitch_bend_c, 5, 3640
9, 31175, Pitch_bend_c, 5, 1061
9, 31185, Pitch_bend_c, 5, 0
9, 31200, Note_off_c, 5, 69, 64
9, 31200, Note_on_c, 5, 64, 113
9, 31235, Pitch_bend_c, 5, 75
9, 31245, Pitch_bend_c, 5, 530
9, 31260, Pitch_bend_c, 5, 1441
9, 31270, Pitch_bend_c, 5, 2123
9, 31285, Pitch_bend_c, 5, 3109
9, 31295, Pitch_bend_c, 5, 4399
9, 31305, Pitch_bend_c, 5, 6144
9, 31320, Pitch_bend_c, 5, 8040
9, 31330, Pitch_bend_c, 5, 8192
9, 31360, Note_off_c, 5, 64, 64
9, 31360, Note_on_c, 5, 69, 113
9, 31520, Note_off_c, 5, 69, 64
9, 31520, Note_on_c, 5, 64, 107
9, 31680, Note_off_c, 5, 64, 64
9, 31680, Note_on_c, 5, 69, 113
9, 31840, Note_off_c, 5, 69, 64
9, 31840, Note_on_c, 5, 64, 98
9, 32000, Note_off_c, 5, 64, 64
9, 32000, Note_on_c, 5, 69, 107
9, 32075, Pitch_bend_c, 5, 7812
9, 32090, Pitch_bend_c, 5, 4930
9, 32100, Pitch_bend_c, 5, 3034
9, 32115, Pitch_bend_c, 5, 1668
9, 32125, Pitch_bend_c, 5, 986
9, 32140, Pitch_bend_c, 5, 606
9, 32160, Note_off_c, 5, 69, 64
9, 32160, Note_on_c, 5, 64, 119
9, 32175, Pitch_bend_c, 5, 910
9, 32185, Pitch_bend_c, 5, 1289
9, 32195, Pitch_bend_c, 5, 1744
9, 32210, Pitch_bend_c, 5, 2123
9, 32235, Pitch_bend_c, 5, 3261
9, 32245, Pitch_bend_c, 5, 4702
9, 32255, Pitch_bend_c, 5, 6599
9, 32270, Pitch_bend_c, 5, 8192
9, 32320, Note_off_c, 5, 64, 64
9, 32320, Note_on_c, 5, 69, 107
9, 32480, Note_off_c, 5, 69, 64
9, 32480, Note_on_c, 5, 64, 107
9, 32640, Note_off_c, 5, 64, 64
9, 32640, Note_on_c, 5, 69, 119
9, 32645, Control_c, 5, 1, 7
9, 32665, Control_c, 5, 1, 16
9, 32675, Control_c, 5, 1, 22
9, 32685, Control_c, 5, 1, 32
9, 32700, Control_c, 5, 1, 42
9, 32710, Control_c, 5, 1, 58
9, 32725, Control_c, 5, 1, 66
9, 32735, Control_c, 5, 1, 74
9, 32750, Control_c, 5, 1, 83
9, 32775, Control_c, 5, 1, 88
9, 32795, Control_c, 5, 1, 95
9, 32845, Control_c, 5, 1, 100
9, 33020, Control_c, 5, 1, 93
9, 33030, Control_c, 5, 1, 83
9, 33035, Control_c, 5, 1, 73
9, 33050, Control_c, 5, 1, 56
9, 33060, Control_c, 5, 1, 32
9, 33080, Control_c, 5, 1, 4
9, 33090, Control_c, 5, 1, 0
9, 33120, Note_off_c, 5, 69, 64
9, 33120, Note_on_c, 5, 64, 107
9, 33360, Note_off_c, 5, 64, 64
9, 33440, Note_on_c, 5, 64, 119
9, 33625, Control_c, 5, 1, 4
9, 33640, Control_c, 5, 1, 11
9, 33665, Control_c, 5, 1, 16
9, 33715, Control_c, 5, 1, 21
9, 33735, Control_c, 5, 1, 26
9, 33760, Control_c, 5, 1, 31
9, 33785, Control_c, 5, 1, 37
9, 33800, Control_c, 5, 1, 42
9, 33810, Control_c, 5, 1, 51
9, 33825, Control_c, 5, 1, 56
9, 33845, Control_c, 5, 1, 61
9, 33870, Control_c, 5, 1, 68
9, 33895, Control_c, 5, 1, 73
9, 33945, Control_c, 5, 1, 64
9, 33955, Control_c, 5, 1, 58
9, 33980, Control_c, 5, 1, 51
9, 33995, Control_c, 5, 1, 39
9, 34000, Note_off_c, 5, 64, 64
9, 34005, Control_c, 5, 1, 26
9, 34015, Control_c, 5, 1, 6
9, 34030, Control_c, 5, 1, 0
9, 65280, Note_on_c, 5, 79, 127
9, 65350, Pitch_bend_c, 5, 8335
9, 65360, Pitch_bend_c, 5, 8911
9, 65375, Pitch_bend_c, 5, 9774
9, 65375, Control_c, 5, 1, 6
9, 65385, Pitch_bend_c, 5, 10709
9, 65390, Control_c, 5, 1, 16
9, 65400, Pitch_bend_c, 5, 11356
9, 65400, Control_c, 5, 1, 24
9, 65410, Pitch_bend_c, 5, 12004
9, 65415, Control_c, 5, 1, 36
9, 65420, Pitch_bend_c, 5, 12435
9, 65425, Control_c, 5, 1, 42
9, 65435, Pitch_bend_c, 5, 13011
9, 65435, Control_c, 5, 1, 51
9, 65445, Pitch_bend_c, 5, 13442
9, 65450, Control_c, 5, 1, 58
9, 65460, Pitch_bend_c, 5, 13802
9, 65470, Pitch_bend_c, 5, 14090
9, 65475, Control_c, 5, 1, 64
9, 65485, Pitch_bend_c, 5, 14377
9, 65495, Pitch_bend_c, 5, 14737
9, 65495, Control_c, 5, 1, 71
9, 65510, Pitch_bend_c, 5, 15025
9, 65520, Pitch_bend_c, 5, 15241
9, 65520, Control_c, 5, 1, 79
9, 65530, Pitch_bend_c, 5, 15600
9, 65545, Pitch_bend_c, 5, 15816
9, 65545, Control_c, 5, 1, 84
9, 65555, Pitch_bend_c, 5, 16104
9, 65560, Control_c, 5, 1, 93
9, 65570, Pitch_bend_c, 5, 16320
9, 65570, Control_c, 5, 1, 101
9, 65585, Control_c, 5, 1, 106
9, 65595, Control_c, 5, 1, 111
9, 65605, Pitch_bend_c, 5, 16383
9, 65630, Control_c, 5, 1, 118
9, 65695, Control_c, 5, 1, 123
9, 65730, Control_c, 5, 1, 127
9, 66365, Control_c, 5, 1, 121
9, 66375, Control_c, 5, 1, 116
9, 66390, Control_c, 5, 1, 111
9, 66400, Control_c, 5, 1, 101
9, 66410, Control_c, 5, 1, 91
9, 66425, Control_c, 5, 1, 81
9, 66435, Control_c, 5, 1, 66
9, 66450, Pitch_bend_c, 5, 15672
9, 66450, Control_c, 5, 1, 53
9, 66460, Pitch_bend_c, 5, 14234
9, 66460, Control_c, 5, 1, 37
9, 66470, Pitch_bend_c, 5, 12220
9, 66475, Control_c, 5, 1, 27
9, 66480, Note_off_c, 5, 79, 64
9, 66485, Pitch_bend_c, 5, 10206
9, 66485, Control_c, 5, 1, 14
9, 66495, Pitch_bend_c, 5, 8407
9, 66500, Control_c, 5, 1, 4
9, 66510, Pitch_bend_c, 5, 8192
9, 66510, Control_c, 5, 1, 0
9, 66560, Note_on_c, 5, 79, 127
9, 66570, Pitch_bend_c, 5, 9702
9, 66580, Pitch_bend_c, 5, 12291
9, 66585, Control_c, 5, 1, 11
9, 66595, Pitch_bend_c, 5, 14809
9, 66595, Control_c, 5, 1, 21
9, 66605, Pitch_bend_c, 5, 16383
9, 66610, Control_c, 5, 1, 34
9, 66620, Control_c, 5, 1, 39
9, 66635, Note_off_c, 5, 79, 64
9, 66645, Control_c, 5, 1, 48
9, 66715, Pitch_bend_c, 5, 16032
9, 66720, Note_on_c, 5, 79, 119
9, 66730, Control_c, 5, 1, 42
9, 66730, Pitch_bend_c, 5, 13442
9, 66740, Pitch_bend_c, 5, 10781
9, 66740, Control_c, 5, 1, 34
9, 66750, Pitch_bend_c, 5, 9342
9, 66755, Control_c, 5, 1, 29
9, 66775, Pitch_bend_c, 5, 11069
9, 66780, Control_c, 5, 1, 34
9, 66790, Pitch_bend_c, 5, 13730
9, 66790, Control_c, 5, 1, 42
9, 66800, Pitch_bend_c, 5, 16383
9, 66805, Control_c, 5, 1, 54
9, 66815, Control_c, 5, 1, 64
9, 66825, Control_c, 5, 1, 71
9, 66840, Control_c, 5, 1, 81
9, 66865, Control_c, 5, 1, 90
9, 66900, Control_c, 5, 1, 84
9, 66915, Control_c, 5, 1, 76
9, 66925, Control_c, 5, 1, 66
9, 66935, Control_c, 5, 1, 54
9, 66950, Pitch_bend_c, 5, 15600
9, 66950, Control_c, 5, 1, 41
9, 66960, Pitch_bend_c, 5, 13946
9, 66960, Control_c, 5, 1, 32
9, 66975, Pitch_bend_c, 5, 12363
9, 66975, Control_c, 5, 1, 22
9, 66985, Pitch_bend_c, 5, 10637
9, 66985, Control_c, 5, 1, 14
9, 66995, Pitch_bend_c, 5, 8479
9, 67000, Control_c, 5, 1, 2
9, 67010, Pitch_bend_c, 5, 8192
9, 67010, Control_c, 5, 1, 0
9, 67040, Note_off_c, 5, 79, 64
9, 67040, Note_on_c, 5, 76, 102
9, 67195, Control_c, 5, 1, 1
9, 67205, Control_c, 5, 1, 6
9, 67220, Control_c, 5, 1, 12
9, 67230, Control_c, 5, 1, 17
9, 67240, Control_c, 5, 1, 26
9, 67255, Control_c, 5, 1, 32
9, 67265, Control_c, 5, 1, 37
9, 67280, Control_c, 5, 1, 46
9, 67290, Control_c, 5, 1, 59
9, 67305, Control_c, 5, 1, 69
9, 67315, Control_c, 5, 1, 81
9, 67330, Control_c, 5, 1, 91
9, 67340, Control_c, 5, 1, 103
9, 67350, Control_c, 5, 1, 108
9, 67485, Control_c, 5, 1, 113
9, 67890, Control_c, 5, 1, 108
9, 68120, Control_c, 5, 1, 103
9, 68195, Control_c, 5, 1, 98
9, 68440, Control_c, 5, 1, 93
9, 68475, Control_c, 5, 1, 88
9, 68500, Control_c, 5, 1, 83
9, 68525, Control_c, 5, 1, 73
9, 68535, Control_c, 5, 1, 68
9, 68550, Control_c, 5, 1, 58
9, 68560, Note_off_c, 5, 76, 64
9, 68560, Control_c, 5, 1, 44
9, 68570, Control_c, 5, 1, 34
9, 68585, Control_c, 5, 1, 19
9, 68595, Control_c, 5, 1, 9
9, 68610, Control_c, 5, 1, 0
9, 68640, Note_on_c, 5, 76, 127
9, 68800, Note_off_c, 5, 76, 64
9, 68800, Note_on_c, 5, 78, 107
9, 68960, Note_off_c, 5, 78, 64
9, 68960, Note_on_c, 5, 81, 113
9, 69120, Note_off_c, 5, 81, 64
9, 69120, Note_on_c, 5, 79, 102
9, 69155, Pitch_bend_c, 5, 8407
9, 69170, Pitch_bend_c, 5, 8623
9, 69180, Pitch_bend_c, 5, 8911
9, 69195, Pitch_bend_c, 5, 9414
9, 69205, Pitch_bend_c, 5, 10134
9, 69215, Pitch_bend_c, 5, 10781
9, 69230, Pitch_bend_c, 5, 11500
9, 69240, Pitch_bend_c, 5, 12148
9, 69245, Control_c, 5, 1, 4
9, 69255, Pitch_bend_c, 5, 12651
9, 69255, Control_c, 5, 1, 9
9, 69265, Pitch_bend_c, 5, 13083
9, 69265, Control_c, 5, 1, 16
9, 69280, Pitch_bend_c, 5, 13658
9, 69290, Pitch_bend_c, 5, 14018
9, 69290, Control_c, 5, 1, 24
9, 69305, Pitch_bend_c, 5, 14449
9, 69315, Pitch_bend_c, 5, 15025
9, 69315, Control_c, 5, 1, 34
9, 69325, Pitch_bend_c, 5, 15528
9, 69340, Pitch_bend_c, 5, 15960
9, 69340, Control_c, 5, 1, 42
9, 69350, Pitch_bend_c, 5, 16383
9, 69355, Control_c, 5, 1, 48
9, 69365, Control_c, 5, 1, 58
9, 69380, Control_c, 5, 1, 63
9, 69390, Control_c, 5, 1, 69
9, 69400, Control_c, 5, 1, 74
9, 69415, Control_c, 5, 1, 79
9, 69425, Control_c, 5, 1, 84
9, 69520, Note_off_c, 5, 79, 64
9, 69535, Control_c, 5, 1, 78
9, 69550, Pitch_bend_c, 5, 15600
9, 69550, Control_c, 5, 1, 64
9, 69560, Pitch_bend_c, 5, 12795
9, 69560, Control_c, 5, 1, 42
9, 69570, Pitch_bend_c, 5, 9342
9, 69575, Control_c, 5, 1, 16
9, 69585, Pitch_bend_c, 5, 8192
9, 69585, Control_c, 5, 1, 0
9, 69600, Note_on_c, 5, 79, 119
9, 69770, Control_c, 5, 1, 11
9, 69780, Control_c, 5, 1, 24
9, 69790, Control_c, 5, 1, 36
9, 69805, Control_c, 5, 1, 48
9, 69815, Control_c, 5, 1, 61
9, 69830, Control_c, 5, 1, 71
9, 69840, Control_c, 5, 1, 79
9, 69855, Control_c, 5, 1, 86
9, 69865, Control_c, 5, 1, 93
9, 69890, Control_c, 5, 1, 100
9, 69950, Control_c, 5, 1, 95
9, 69975, Control_c, 5, 1, 84
9, 69990, Control_c, 5, 1, 74
9, 70000, Control_c, 5, 1, 61
9, 70015, Control_c, 5, 1, 44
9, 70025, Control_c, 5, 1, 24
9, 70035, Control_c, 5, 1, 2
9, 70050, Control_c, 5, 1, 0
9, 70080, Note_off_c, 5, 79, 64
9, 70080, Note_on_c, 5, 72, 119
9, 70180, Pitch_bend_c, 5, 8623
9, 70195, Pitch_bend_c, 5, 9270
9, 70205, Pitch_bend_c, 5, 9774
9, 70220, Pitch_bend_c, 5, 10349
9, 70230, Pitch_bend_c, 5, 10781
9, 70245, Pitch_bend_c, 5, 11284
9, 70255, Pitch_bend_c, 5, 12004
9, 70265, Pitch_bend_c, 5, 12291
9, 70280, Pitch_bend_c, 5, 12651
9, 70290, Pitch_bend_c, 5, 12867
9, 70305, Pitch_bend_c, 5, 13227
9, 70315, Pitch_bend_c, 5, 13730
9, 70330, Pitch_bend_c, 5, 14449
9, 70330, Control_c, 5, 1, 2
9, 70340, Pitch_bend_c, 5, 15241
9, 70355, Pitch_bend_c, 5, 15960
9, 70355, Control_c, 5, 1, 7
9, 70365, Pitch_bend_c, 5, 16383
9, 70390, Control_c, 5, 1, 12
9, 70415, Control_c, 5, 1, 17
9, 70535, Control_c, 5, 1, 12
9, 70550, Pitch_bend_c, 5, 14090
9, 70550, Control_c, 5, 1, 4
9, 70560, Note_off_c, 5, 72, 64
9, 70560, Pitch_bend_c, 5, 10853
9, 70560, Control_c, 5, 1, 0
9, 70560, Note_on_c, 5, 72, 113
9, 70570, Pitch_bend_c, 5, 8192
9, 70880, Note_off_c, 5, 72, 64
9, 70880, Note_on_c, 5, 69, 113
9, 70940, Control_c, 5, 1, 4
9, 70950, Control_c, 5, 1, 9
9, 70965, Control_c, 5, 1, 14
9, 70975, Control_c, 5, 1, 19
9, 70990, Control_c, 5, 1, 24
9, 71000, Control_c, 5, 1, 32
9, 71010, Control_c, 5, 1, 37
9, 71025, Control_c, 5, 1, 42
9, 71035, Control_c, 5, 1, 48
9, 71050, Control_c, 5, 1, 54
9, 71100, Control_c, 5, 1, 59
9, 71125, Control_c, 5, 1, 64
9, 71160, Control_c, 5, 1, 69
9, 71220, Control_c, 5, 1, 74
9, 71610, Control_c, 5, 1, 79
9, 71670, Control_c, 5, 1, 73
9, 71680, Note_off_c, 5, 69, 64
9, 71680, Note_on_c, 5, 66, 98
9, 71685, Control_c, 5, 1, 64
9, 71695, Control_c, 5, 1, 49
9, 71710, Control_c, 5, 1, 24
9, 71720, Control_c, 5, 1, 0
9, 71840, Note_off_c, 5, 66, 64
9, 71840, Note_on_c, 5, 69, 89
9, 72000, Note_off_c, 5, 69, 64
9, 72000, Note_on_c, 5, 71, 107
9, 72110, Pitch_bend_c, 5, 8407
9, 72120, Pitch_bend_c, 5, 8767
9, 72135, Pitch_bend_c, 5, 9270
9, 72145, Pitch_bend_c, 5, 9702
9, 72160, Pitch_bend_c, 5, 10134
9, 72170, Pitch_bend_c, 5, 10421
9, 72180, Pitch_bend_c, 5, 10637
9, 72195, Pitch_bend_c, 5, 10997
9, 72205, Pitch_bend_c, 5, 11213
9, 72220, Pitch_bend_c, 5, 11716
9, 72220, Control_c, 5, 1, 4
9, 72230, Pitch_bend_c, 5, 12220
9, 72240, Note_off_c, 5, 71, 64
9, 72245, Pitch_bend_c, 5, 12651
9, 72245, Control_c, 5, 1, 9
9, 72255, Pitch_bend_c, 5, 13083
9, 72270, Pitch_bend_c, 5, 13442
9, 72280, Pitch_bend_c, 5, 13730
9, 72290, Pitch_bend_c, 5, 14162
9, 72305, Pitch_bend_c, 5, 14593
9, 72340, Pitch_bend_c, 5, 14018
9, 72355, Pitch_bend_c, 5, 12867
9, 72355, Control_c, 5, 1, 1
9, 72365, Pitch_bend_c, 5, 11428
9, 72365, Control_c, 5, 1, 0
9, 72380, Pitch_bend_c, 5, 9774
9, 72390, Pitch_bend_c, 5, 8335
9, 72405, Pitch_bend_c, 5, 8192
9, 72645, Pitch_bend_c, 5, 7736
9, 72660, Pitch_bend_c, 5, 4626
9, 72670, Pitch_bend_c, 5, 2199
9, 72685, Pitch_bend_c, 5, 151
9, 72695, Pitch_bend_c, 5, 0
9, 72800, Note_on_c, 5, 76, 127
9, 72815, Pitch_bend_c, 5, 1061
9, 72830, Pitch_bend_c, 5, 2427
9, 72840, Pitch_bend_c, 5, 4323
9, 72855, Pitch_bend_c, 5, 6750
9, 72865, Pitch_bend_c, 5, 8192
9, 72960, Note_off_c, 5, 76, 64
9, 72960, Note_on_c, 5, 81, 113
9, 73120, Note_off_c, 5, 81, 64
9, 73120, Note_on_c, 5, 76, 113
9, 73280, Note_off_c, 5, 76, 64
9, 73280, Note_on_c, 5, 81, 107
9, 73440, Note_off_c, 5, 81, 64
9, 73440, Note_on_c, 5, 76, 113
9, 73600, Note_off_c, 5, 76, 64
9, 73600, Note_on_c, 5, 81, 107
9, 73760, Note_off_c, 5, 81, 64
9, 73760, Note_on_c, 5, 76, 119
9, 73920, Note_off_c, 5, 76, 64
9, 73920, Note_on_c, 5, 79, 119
9, 73975, Pitch_bend_c, 5, 8767
9, 73980, Control_c, 5, 1, 11
9, 73990, Pitch_bend_c, 5, 9846
9, 73990, Control_c, 5, 1, 24
9, 74000, Pitch_bend_c, 5, 11213
9, 74000, Control_c, 5, 1, 41
9, 74015, Pitch_bend_c, 5, 12651
9, 74015, Control_c, 5, 1, 58
9, 74025, Pitch_bend_c, 5, 13946
9, 74025, Control_c, 5, 1, 71
9, 74035, Pitch_bend_c, 5, 15025
9, 74040, Control_c, 5, 1, 84
9, 74050, Pitch_bend_c, 5, 15672
9, 74050, Control_c, 5, 1, 95
9, 74060, Pitch_bend_c, 5, 16176
9, 74065, Control_c, 5, 1, 101
9, 74075, Pitch_bend_c, 5, 16383
9, 74075, Control_c, 5, 1, 106
9, 74135, Control_c, 5, 1, 111
9, 74175, Control_c, 5, 1, 116
9, 74200, Control_c, 5, 1, 121
9, 74220, Control_c, 5, 1, 127
9, 74320, Note_off_c, 5, 79, 64
9, 74400, Note_on_c, 5, 79, 119
9, 74405, Control_c, 5, 1, 121
9, 74505, Control_c, 5, 1, 116
9, 74515, Control_c, 5, 1, 110
9, 74525, Control_c, 5, 1, 98
9, 74540, Pitch_bend_c, 5, 15888
9, 74540, Control_c, 5, 1, 71
9, 74550, Pitch_bend_c, 5, 13370
9, 74550, Control_c, 5, 1, 37
9, 74565, Pitch_bend_c, 5, 10565
9, 74565, Control_c, 5, 1, 9
9, 74575, Pitch_bend_c, 5, 8335
9, 74575, Control_c, 5, 1, 0
9, 74585, Pitch_bend_c, 5, 8192
9, 74720, Note_off_c, 5, 79, 64
9, 74720, Note_on_c, 5, 76, 102
9, 74880, Note_off_c, 5, 76, 64
9, 74880, Note_on_c, 5, 79, 127
9, 74930, Pitch_bend_c, 5, 8263
9, 74940, Pitch_bend_c, 5, 8479
9, 74955, Pitch_bend_c, 5, 8695
9, 74975, Pitch_bend_c, 5, 8983
9, 74990, Pitch_bend_c, 5, 9342
9, 75000, Pitch_bend_c, 5, 9558
9, 75015, Pitch_bend_c, 5, 9846
9, 75025, Pitch_bend_c, 5, 10277
9, 75040, Pitch_bend_c, 5, 10493
9, 75050, Pitch_bend_c, 5, 10781
9, 75060, Pitch_bend_c, 5, 11069
9, 75120, Note_off_c, 5, 79, 64
9, 75125, Pitch_bend_c, 5, 10134
9, 75135, Pitch_bend_c, 5, 8551
9, 75145, Pitch_bend_c, 5, 8192
9, 75200, Note_on_c, 5, 79, 119
9, 75235, Pitch_bend_c, 5, 8839
9, 75245, Pitch_bend_c, 5, 9990
9, 75260, Pitch_bend_c, 5, 10781
9, 75270, Pitch_bend_c, 5, 11284
9, 75280, Pitch_bend_c, 5, 11860
9, 75305, Pitch_bend_c, 5, 11213
9, 75320, Pitch_bend_c, 5, 9630
9, 75330, Pitch_bend_c, 5, 8192
9, 75360, Note_off_c, 5, 79, 64
9, 75360, Note_on_c, 5, 76, 107
9, 75670, Pitch_bend_c, 5, 3413
9, 75685, Pitch_bend_c, 5, 0
9, 76240, Note_off_c, 5, 76, 64
9, 76355, Pitch_bend_c, 5, 379
9, 76365, Pitch_bend_c, 5, 1517
9, 76380, Pitch_bend_c, 5, 3034
9, 76390, Pitch_bend_c, 5, 4475
9, 76400, Note_on_c, 5, 76, 127
9, 76405, Pitch_bend_c, 5, 5916
9, 76415, Pitch_bend_c, 5, 7130
9, 76430, Pitch_bend_c, 5, 8192
9, 76640, Note_off_c, 5, 76, 64
9, 76640, Control_c, 5, 1, 11
9, 76640, Note_on_c, 5, 81, 119
9, 76650, Control_c, 5, 1, 21
9, 76665, Control_c, 5, 1, 36
9, 76675, Control_c, 5, 1, 49
9, 76685, Control_c, 5, 1, 61
9, 76700, Control_c, 5, 1, 74
9, 76710, Control_c, 5, 1, 90
9, 76725, Control_c, 5, 1, 105
9, 76735, Control_c, 5, 1, 115
9, 76750, Control_c, 5, 1, 127
9, 77190, Control_c, 5, 1, 125
9, 77200, Note_off_c, 5, 81, 64
9, 77200, Control_c, 5, 1, 115
9, 77210, Control_c, 5, 1, 103
9, 77225, Control_c, 5, 1, 81
9, 77235, Control_c, 5, 1, 58
9, 77250, Control_c, 5, 1, 32
9, 77260, Control_c, 5, 1, 12
9, 77270, Control_c, 5, 1, 0
9, 77280, Note_on_c, 5, 72, 127
9, 77430, Pitch_bend_c, 5, 8623
9, 77440, Pitch_bend_c, 5, 8839
9, 77490, Pitch_bend_c, 5, 9055
9, 77520, Note_off_c, 5, 72, 64
9, 77530, Pitch_bend_c, 5, 8695
9, 77540, Pitch_bend_c, 5, 8192
9, 77600, Note_on_c, 5, 72, 127
9, 77625, Pitch_bend_c, 5, 9342
9, 77635, Pitch_bend_c, 5, 10062
9, 77650, Pitch_bend_c, 5, 10637
9, 77660, Pitch_bend_c, 5, 10925
9, 77685, Pitch_bend_c, 5, 11141
9, 77700, Pitch_bend_c, 5, 10925
9, 77710, Pitch_bend_c, 5, 9630
9, 77720, Pitch_bend_c, 5, 8192
9, 77760, Note_off_c, 5, 72, 64
9, 77760, Note_on_c, 5, 69, 107
9, 78055, Control_c, 5, 1, 12
9, 78065, Control_c, 5, 1, 26
9, 78080, Control_c, 5, 1, 41
9, 78090, Control_c, 5, 1, 56
9, 78100, Control_c, 5, 1, 66
9, 78115, Control_c, 5, 1, 71
9, 78160, Note_off_c, 5, 69, 64
9, 78165, Control_c, 5, 1, 58
9, 78175, Control_c, 5, 1, 37
9, 78185, Control_c, 5, 1, 14
9, 78200, Control_c, 5, 1, 0
9, 78240, Note_on_c, 5, 69, 102
9, 78400, Note_off_c, 5, 69, 64
9, 78400, Note_on_c, 5, 67, 93
9, 78560, Note_off_c, 5, 67, 64
9, 78560, Note_on_c, 5, 64, 113
9, 78720, Note_off_c, 5, 64, 64
9, 78720, Note_on_c, 5, 69, 107
9, 78880, Note_off_c, 5, 69, 64
9, 78880, Note_on_c, 5, 67, 102
9, 79040, Note_off_c, 5, 67, 64
9, 79040, Note_on_c, 5, 64, 107
9, 79200, Note_off_c, 5, 64, 64
9, 79200, Note_on_c, 5, 67, 127
9, 79235, Pitch_bend_c, 5, 8695
9, 79250, Pitch_bend_c, 5, 9702
9, 79260, Pitch_bend_c, 5, 10349
9, 79275, Pitch_bend_c, 5, 10997
9, 79285, Pitch_bend_c, 5, 11644
9, 79295, Pitch_bend_c, 5, 12435
9, 79310, Pitch_bend_c, 5, 13442
9, 79320, Pitch_bend_c, 5, 14449
9, 79335, Pitch_bend_c, 5, 15600
9, 79345, Pitch_bend_c, 5, 16383
9, 79455, Pitch_bend_c, 5, 15097
9, 79465, Pitch_bend_c, 5, 12148
9, 79480, Pitch_bend_c, 5, 8407
9, 79490, Pitch_bend_c, 5, 8192
9, 79520, Note_off_c, 5, 67, 64
9, 79520, Note_on_c, 5, 64, 119
9, 79640, Control_c, 5, 1, 2
9, 79650, Control_c, 5, 1, 11
9, 79665, Control_c, 5, 1, 19
9, 79675, Control_c, 5, 1, 29
9, 79690, Control_c, 5, 1, 34
9, 79700, Control_c, 5, 1, 41
9, 79715, Control_c, 5, 1, 46
9, 79725, Control_c, 5, 1, 54
9, 79740, Control_c, 5, 1, 61
9, 79750, Control_c, 5, 1, 69
9, 79760, Control_c, 5, 1, 74
9, 79775, Control_c, 5, 1, 81
9, 79810, Control_c, 5, 1, 86
9, 79945, Control_c, 5, 1, 91
9, 79995, Control_c, 5, 1, 96
9, 80065, Control_c, 5, 1, 101
9, 80080, Note_off_c, 5, 64, 64
9, 80140, Control_c, 5, 1, 93
9, 80155, Control_c, 5, 1, 79
9, 80160, Note_on_c, 5, 64, 113
9, 80165, Control_c, 5, 1, 63
9, 80175, Control_c, 5, 1, 37
9, 80190, Control_c, 5, 1, 12
9, 80200, Control_c, 5, 1, 0
9, 80320, Note_off_c, 5, 64, 64
9, 80320, Note_on_c, 5, 66, 107
9, 80480, Note_off_c, 5, 66, 64
9, 80480, Note_on_c, 5, 69, 98
9, 80640, Note_off_c, 5, 69, 64
9, 80640, Note_on_c, 5, 64, 119
9, 80800, Note_off_c, 5, 64, 64
9, 80990, Pitch_bend_c, 5, 6978
9, 81005, Pitch_bend_c, 5, 5309
9, 81020, Pitch_bend_c, 5, 3640
9, 81030, Pitch_bend_c, 5, 2199
9, 81040, Pitch_bend_c, 5, 1592
9, 81055, Pitch_bend_c, 5, 1365
9, 81090, Pitch_bend_c, 5, 1061
9, 81100, Pitch_bend_c, 5, 455
9, 81115, Pitch_bend_c, 5, 0
9, 81120, Note_on_c, 5, 76, 127
9, 81200, Pitch_bend_c, 5, 227
9, 81235, Pitch_bend_c, 5, 530
9, 81260, Pitch_bend_c, 5, 1137
9, 81275, Pitch_bend_c, 5, 1668
9, 81285, Pitch_bend_c, 5, 2199
9, 81300, Pitch_bend_c, 5, 2730
9, 81310, Pitch_bend_c, 5, 3261
9, 81325, Pitch_bend_c, 5, 3944
9, 81335, Pitch_bend_c, 5, 4551
9, 81345, Pitch_bend_c, 5, 5385
9, 81360, Pitch_bend_c, 5, 6826
9, 81370, Pitch_bend_c, 5, 8116
9, 81385, Pitch_bend_c, 5, 8192
9, 81440, Note_on_c, 5, 79, 102
9, 81520, Note_off_c, 5, 76, 64
9, 81565, Pitch_bend_c, 5, 7736
9, 81580, Pitch_bend_c, 5, 4854
9, 81590, Pitch_bend_c, 5, 3109
9, 81600, Note_on_c, 5, 76, 113
9, 81605, Pitch_bend_c, 5, 1896
9, 81615, Pitch_bend_c, 5, 1289
9, 81625, Pitch_bend_c, 5, 1061
9, 81665, Pitch_bend_c, 5, 1365
9, 81680, Note_off_c, 5, 79, 64
9, 81700, Pitch_bend_c, 5, 1668
9, 81725, Pitch_bend_c, 5, 2048
9, 81750, Pitch_bend_c, 5, 2503
9, 81760, Pitch_bend_c, 5, 2806
9, 81775, Pitch_bend_c, 5, 3261
9, 81785, Pitch_bend_c, 5, 3489
9, 81795, Pitch_bend_c, 5, 3792
9, 81810, Pitch_bend_c, 5, 4096
9, 81825, Pitch_bend_c, 5, 4551
9, 81835, Pitch_bend_c, 5, 5233
9, 81845, Pitch_bend_c, 5, 6219
9, 81860, Pitch_bend_c, 5, 7509
9, 81870, Pitch_bend_c, 5, 8192
9, 81920, Note_on_c, 5, 79, 113
9, 82000, Note_off_c, 5, 76, 64
9, 82065, Pitch_bend_c, 5, 8040
9, 82080, Note_off_c, 5, 79, 64
9, 82080, Pitch_bend_c, 5, 6978
9, 82080, Note_on_c, 5, 75, 62
9, 82080, Note_on_c, 5, 76, 98
9, 82090, Pitch_bend_c, 5, 5385
9, 82105, Pitch_bend_c, 5, 4020
9, 82115, Pitch_bend_c, 5, 3109
9, 82130, Pitch_bend_c, 5, 2503
9, 82150, Pitch_bend_c, 5, 2275
9, 82155, Note_off_c, 5, 75, 64
9, 82190, Pitch_bend_c, 5, 2048
9, 82215, Pitch_bend_c, 5, 1820
9, 82275, Pitch_bend_c, 5, 2123
9, 82285, Pitch_bend_c, 5, 2351
9, 82300, Pitch_bend_c, 5, 3034
9, 82310, Pitch_bend_c, 5, 3565
9, 82320, Pitch_bend_c, 5, 4702
9, 82335, Pitch_bend_c, 5, 5764
9, 82345, Pitch_bend_c, 5, 7130
9, 82360, Pitch_bend_c, 5, 8192
9, 82400, Note_on_c, 5, 79, 102
9, 82480, Note_off_c, 5, 76, 64
9, 82560, Note_off_c, 5, 79, 64
9, 82560, Note_on_c, 5, 76, 119
9, 82570, Control_c, 5, 1, 4
9, 82580, Control_c, 5, 1, 17
9, 82595, Control_c, 5, 1, 31
9, 82605, Control_c, 5, 1, 37
9, 82615, Control_c, 5, 1, 48
9, 82630, Control_c, 5, 1, 59
9, 82640, Control_c, 5, 1, 66
9, 82655, Control_c, 5, 1, 73
9, 82665, Control_c, 5, 1, 78
9, 82675, Control_c, 5, 1, 83
9, 82700, Control_c, 5, 1, 91
9, 82715, Control_c, 5, 1, 96
9, 82740, Control_c, 5, 1, 105
9, 82765, Control_c, 5, 1, 110
9, 82875, Control_c, 5, 1, 115
9, 82900, Control_c, 5, 1, 121
9, 82910, Control_c, 5, 1, 127
9, 82960, Control_c, 5, 1, 116
9, 82970, Control_c, 5, 1, 110
9, 82985, Control_c, 5, 1, 100
9, 82995, Control_c, 5, 1, 84
9, 83010, Control_c, 5, 1, 73
9, 83020, Control_c, 5, 1, 64
9, 83030, Control_c, 5, 1, 56
9, 83040, Note_off_c, 5, 76, 64
9, 83045, Control_c, 5, 1, 42
9, 83055, Control_c, 5, 1, 32
9, 83070, Control_c, 5, 1, 19
9, 83080, Control_c, 5, 1, 1
9, 83095, Control_c, 5, 1, 0
9, 83120, Note_on_c, 5, 76, 113
9, 83385, Pitch_bend_c, 5, 6826
9, 83395, Pitch_bend_c, 5, 3034
9, 83410, Pitch_bend_c, 5, 455
9, 83420, Pitch_bend_c, 5, 0
9, 83600, Note_off_c, 5, 76, 64
9, 83665, Pitch_bend_c, 5, 303
9, 83675, Pitch_bend_c, 5, 606
9, 83690, Pitch_bend_c, 5, 910
9, 83700, Pitch_bend_c, 5, 1137
9, 83715, Pitch_bend_c, 5, 1365
9, 83740, Pitch_bend_c, 5, 1744
9, 83750, Pitch_bend_c, 5, 2123
9, 83765, Pitch_bend_c, 5, 2503
9, 83800, Pitch_bend_c, 5, 2123
9, 83810, Pitch_bend_c, 5, 1744
9, 83825, Pitch_bend_c, 5, 1365
9, 83835, Pitch_bend_c, 5, 986
9, 83850, Pitch_bend_c, 5, 455
9, 83860, Pitch_bend_c, 5, 0
9, 84000, Note_on_c, 5, 76, 127
9, 84055, Pitch_bend_c, 5, 758
9, 84065, Pitch_bend_c, 5, 2730
9, 84080, Pitch_bend_c, 5, 4854
9, 84090, Pitch_bend_c, 5, 6902
9, 84105, Pitch_bend_c, 5, 8192
9, 84160, Note_off_c, 5, 76, 64
9, 84160, Note_on_c, 5, 81, 107
9, 84320, Note_off_c, 5, 81, 64
9, 84320, Note_on_c, 5, 76, 113
9, 84480, Note_off_c, 5, 76, 64
9, 84480, Note_on_c, 5, 84, 127
9, 84485, Control_c, 5, 1, 12
9, 84495, Control_c, 5, 1, 22
9, 84510, Control_c, 5, 1, 34
9, 84520, Control_c, 5, 1, 44
9, 84530, Control_c, 5, 1, 59
9, 84545, Control_c, 5, 1, 68
9, 84555, Control_c, 5, 1, 74
9, 84570, Control_c, 5, 1, 83
9, 84595, Control_c, 5, 1, 93
9, 84620, Control_c, 5, 1, 100
9, 84640, Note_off_c, 5, 84, 64
9, 84640, Note_on_c, 5, 81, 107
9, 84665, Control_c, 5, 1, 95
9, 84690, Control_c, 5, 1, 90
9, 84705, Control_c, 5, 1, 84
9, 84730, Control_c, 5, 1, 74
9, 84740, Control_c, 5, 1, 66
9, 84755, Control_c, 5, 1, 51
9, 84765, Control_c, 5, 1, 31
9, 84775, Control_c, 5, 1, 7
9, 84790, Control_c, 5, 1, 0
9, 84800, Note_on_c, 5, 76, 113
9, 84880, Note_off_c, 5, 81, 64
9, 84960, Note_off_c, 5, 76, 64
9, 84960, Note_on_c, 5, 84, 119
9, 85120, Note_off_c, 5, 84, 64
9, 85120, Note_on_c, 5, 81, 107
9, 85280, Note_on_c, 5, 76, 119
9, 85300, Control_c, 5, 1, 2
9, 85315, Control_c, 5, 1, 7
9, 85325, Control_c, 5, 1, 14
9, 85350, Control_c, 5, 1, 24
9, 85360, Note_off_c, 5, 81, 64
9, 85360, Control_c, 5, 1, 29
9, 85375, Control_c, 5, 1, 34
9, 85400, Control_c, 5, 1, 41
9, 85425, Control_c, 5, 1, 48
9, 85440, Note_on_c, 5, 84, 127
9, 85460, Control_c, 5, 1, 42
9, 85485, Control_c, 5, 1, 36
9, 85510, Control_c, 5, 1, 29
9, 85520, Note_off_c, 5, 76, 64
9, 85520, Control_c, 5, 1, 22
9, 85535, Control_c, 5, 1, 16
9, 85545, Control_c, 5, 1, 11
9, 85570, Control_c, 5, 1, 1
9, 85585, Control_c, 5, 1, 0
9, 85600, Note_off_c, 5, 84, 64
9, 85600, Note_on_c, 5, 81, 113
9, 85760, Note_on_c, 5, 76, 113
9, 85840, Note_off_c, 5, 81, 64
9, 85920, Note_on_c, 5, 84, 119
9, 86000, Note_off_c, 5, 76, 64
9, 86080, Note_off_c, 5, 84, 64
9, 86080, Note_on_c, 5, 81, 93
9, 86240, Note_off_c, 5, 81, 64
9, 86240, Note_on_c, 5, 76, 113
9, 86400, Note_off_c, 5, 76, 64
9, 86400, Note_on_c, 5, 86, 119
9, 86580, Pitch_bend_c, 5, 8407
9, 86595, Pitch_bend_c, 5, 8911
9, 86605, Pitch_bend_c, 5, 9486
9, 86620, Pitch_bend_c, 5, 9918
9, 86630, Pitch_bend_c, 5, 10493
9, 86640, Pitch_bend_c, 5, 11069
9, 86655, Pitch_bend_c, 5, 11428
9, 86665, Pitch_bend_c, 5, 11788
9, 86680, Pitch_bend_c, 5, 12004
9, 86690, Pitch_bend_c, 5, 12220
9, 86705, Pitch_bend_c, 5, 12507
9, 86715, Pitch_bend_c, 5, 12867
9, 86730, Pitch_bend_c, 5, 13227
9, 86740, Pitch_bend_c, 5, 13730
9, 86750, Pitch_bend_c, 5, 14234
9, 86765, Pitch_bend_c, 5, 14737
9, 86775, Pitch_bend_c, 5, 15241
9, 86790, Pitch_bend_c, 5, 15816
9, 86800, Pitch_bend_c, 5, 16320
9, 86840, Pitch_bend_c, 5, 15600
9, 86850, Pitch_bend_c, 5, 13730
9, 86860, Pitch_bend_c, 5, 11860
9, 86875, Pitch_bend_c, 5, 10062
9, 86880, Note_off_c, 5, 86, 64
9, 86880, Note_on_c, 5, 84, 113
9, 86885, Pitch_bend_c, 5, 8695
9, 86945, Pitch_bend_c, 5, 9199
9, 86960, Pitch_bend_c, 5, 9702
9, 86970, Pitch_bend_c, 5, 10206
9, 86985, Pitch_bend_c, 5, 10493
9, 86995, Pitch_bend_c, 5, 10997
9, 87010, Pitch_bend_c, 5, 11284
9, 87020, Pitch_bend_c, 5, 11644
9, 87030, Pitch_bend_c, 5, 12004
9, 87045, Pitch_bend_c, 5, 12291
9, 87055, Pitch_bend_c, 5, 12579
9, 87070, Pitch_bend_c, 5, 13011
9, 87080, Pitch_bend_c, 5, 13442
9, 87095, Pitch_bend_c, 5, 13730
9, 87105, Pitch_bend_c, 5, 14305
9, 87120, Pitch_bend_c, 5, 15025
9, 87130, Pitch_bend_c, 5, 15528
9, 87145, Pitch_bend_c, 5, 15888
9, 87155, Pitch_bend_c, 5, 16176
9, 87165, Pitch_bend_c, 5, 16383
9, 87280, Note_off_c, 5, 84, 64
9, 87290, Pitch_bend_c, 5, 15888
9, 87300, Pitch_bend_c, 5, 14018
9, 87315, Pitch_bend_c, 5, 11716
9, 87325, Pitch_bend_c, 5, 9199
9, 87335, Pitch_bend_c, 5, 8192
9, 87360, Note_on_c, 5, 84, 119
9, 87435, Note_off_c, 5, 84, 64
9, 87440, Note_on_c, 5, 81, 107
9, 87475, Control_c, 5, 1, 4
9, 87485, Control_c, 5, 1, 12
9, 87500, Control_c, 5, 1, 19
9, 87510, Control_c, 5, 1, 27
9, 87520, Control_c, 5, 1, 36
9, 87545, Control_c, 5, 1, 44
9, 87560, Control_c, 5, 1, 54
9, 87570, Control_c, 5, 1, 59
9, 87585, Control_c, 5, 1, 66
9, 87595, Control_c, 5, 1, 71
9, 87620, Control_c, 5, 1, 81
9, 87645, Control_c, 5, 1, 86
9, 87655, Control_c, 5, 1, 91
9, 87680, Control_c, 5, 1, 98
9, 87730, Control_c, 5, 1, 103
9, 87760, Note_off_c, 5, 81, 64
9, 87815, Control_c, 5, 1, 98
9, 87840, Note_on_c, 5, 81, 107
9, 87840, Control_c, 5, 1, 90
9, 87850, Control_c, 5, 1, 81
9, 87865, Control_c, 5, 1, 68
9, 87875, Control_c, 5, 1, 54
9, 87890, Control_c, 5, 1, 36
9, 87900, Control_c, 5, 1, 17
9, 87910, Control_c, 5, 1, 2
9, 87925, Control_c, 5, 1, 0
9, 88000, Note_off_c, 5, 81, 64
9, 88000, Note_on_c, 5, 76, 113
9, 88160, Note_off_c, 5, 76, 64
9, 88160, Note_on_c, 5, 78, 113
9, 88320, Note_off_c, 5, 78, 64
9, 88320, Note_on_c, 5, 81, 119
9, 88375, Control_c, 5, 1, 9
9, 88390, Control_c, 5, 1, 17
9, 88400, Control_c, 5, 1, 29
9, 88415, Control_c, 5, 1, 37
9, 88425, Control_c, 5, 1, 44
9, 88440, Control_c, 5, 1, 54
9, 88460, Control_c, 5, 1, 59
9, 88550, Control_c, 5, 1, 64
9, 88585, Control_c, 5, 1, 69
9, 88720, Note_off_c, 5, 81, 64
9, 88755, Control_c, 5, 1, 64
9, 88790, Control_c, 5, 1, 58
9, 88800, Note_on_c, 5, 81, 113
9, 88805, Control_c, 5, 1, 51
9, 88815, Control_c, 5, 1, 39
9, 88830, Control_c, 5, 1, 26
9, 88840, Control_c, 5, 1, 9
9, 88850, Control_c, 5, 1, 0
9, 89120, Note_off_c, 5, 81, 64
9, 89120, Note_on_c, 5, 83, 113
9, 89180, Pitch_bend_c, 5, 8263
9, 89190, Pitch_bend_c, 5, 8479
9, 89230, Pitch_bend_c, 5, 8983
9, 89240, Pitch_bend_c, 5, 9414
9, 89255, Pitch_bend_c, 5, 9918
9, 89265, Pitch_bend_c, 5, 10421
9, 89280, Pitch_bend_c, 5, 10925
9, 89290, Pitch_bend_c, 5, 11284
9, 89305, Pitch_bend_c, 5, 11788
9, 89315, Pitch_bend_c, 5, 12004
9, 89325, Pitch_bend_c, 5, 12220
9, 89330, Control_c, 5, 1, 1
9, 89340, Pitch_bend_c, 5, 12507
9, 89350, Pitch_bend_c, 5, 12939
9, 89360, Note_off_c, 5, 83, 64
9, 89360, Pitch_bend_c, 5, 13442
9, 89375, Pitch_bend_c, 5, 14162
9, 89390, Pitch_bend_c, 5, 14881
9, 89390, Control_c, 5, 1, 6
9, 89400, Pitch_bend_c, 5, 15456
9, 89410, Pitch_bend_c, 5, 15960
9, 89425, Pitch_bend_c, 5, 16383
9, 89570, Pitch_bend_c, 5, 15960
9, 89585, Pitch_bend_c, 5, 15241
9, 89595, Pitch_bend_c, 5, 14377
9, 89605, Pitch_bend_c, 5, 13370
9, 89620, Pitch_bend_c, 5, 12076
9, 89630, Pitch_bend_c, 5, 10565
9, 89635, Control_c, 5, 1, 1
9, 89645, Pitch_bend_c, 5, 9630
9, 89645, Control_c, 5, 1, 0
9, 89655, Pitch_bend_c, 5, 8767
9, 89670, Pitch_bend_c, 5, 8263
9, 89680, Pitch_bend_c, 5, 8192
9, 90080, Note_on_c, 5, 76, 98
9, 90240, Note_off_c, 5, 76, 64
9, 90240, Note_on_c, 5, 79, 119
9, 90305, Control_c, 5, 1, 2
9, 90315, Control_c, 5, 1, 11
9, 90330, Control_c, 5, 1, 17
9, 90340, Control_c, 5, 1, 26
9, 90355, Control_c, 5, 1, 32
9, 90375, Control_c, 5, 1, 37
9, 90425, Control_c, 5, 1, 32
9, 90440, Control_c, 5, 1, 27
9, 90450, Control_c, 5, 1, 19
9, 90465, Control_c, 5, 1, 12
9, 90475, Control_c, 5, 1, 2
9, 90485, Control_c, 5, 1, 0
9, 90640, Note_off_c, 5, 79, 64
9, 90640, Note_on_c, 5, 74, 56
9, 90715, Note_off_c, 5, 74, 64
9, 90720, Note_on_c, 5, 78, 127
9, 91040, Note_off_c, 5, 78, 64
9, 91040, Note_on_c, 5, 76, 119
9, 91085, Control_c, 5, 1, 6
9, 91100, Control_c, 5, 1, 14
9, 91120, Control_c, 5, 1, 22
9, 91135, Control_c, 5, 1, 31
9, 91160, Control_c, 5, 1, 39
9, 91180, Control_c, 5, 1, 51
9, 91195, Control_c, 5, 1, 56
9, 91220, Control_c, 5, 1, 64
9, 91245, Control_c, 5, 1, 73
9, 91270, Control_c, 5, 1, 79
9, 91290, Control_c, 5, 1, 86
9, 91330, Control_c, 5, 1, 93
9, 91525, Control_c, 5, 1, 88
9, 91560, Control_c, 5, 1, 83
9, 91575, Control_c, 5, 1, 74
9, 91585, Control_c, 5, 1, 69
9, 91595, Control_c, 5, 1, 63
9, 91610, Control_c, 5, 1, 56
9, 91625, Control_c, 5, 1, 42
9, 91635, Control_c, 5, 1, 37
9, 91645, Control_c, 5, 1, 31
9, 91660, Control_c, 5, 1, 26
9, 91680, Note_off_c, 5, 76, 64
9, 91680, Note_on_c, 5, 74, 107
9, 91685, Control_c, 5, 1, 19
9, 91730, Control_c, 5, 1, 14
9, 91840, Note_off_c, 5, 74, 64
9, 91840, Note_on_c, 5, 76, 98
9, 91855, Control_c, 5, 1, 9
9, 91890, Control_c, 5, 1, 4
9, 91915, Note_off_c, 5, 76, 64
9, 91965, Control_c, 5, 1, 0
9, 92000, Note_on_c, 5, 72, 102
9, 92000, Note_on_c, 5, 73, 113
9, 92075, Note_off_c, 5, 72, 64
9, 92160, Note_off_c, 5, 73, 64
9, 92160, Note_on_c, 5, 81, 102
9, 92195, Control_c, 5, 1, 1
9, 92210, Control_c, 5, 1, 17
9, 92220, Control_c, 5, 1, 36
9, 92230, Control_c, 5, 1, 58
9, 92245, Control_c, 5, 1, 78
9, 92255, Control_c, 5, 1, 100
9, 92270, Control_c, 5, 1, 115
9, 92280, Control_c, 5, 1, 127
9, 92465, Control_c, 5, 1, 115
9, 92475, Control_c, 5, 1, 101
9, 92490, Control_c, 5, 1, 84
9, 92500, Control_c, 5, 1, 66
9, 92515, Control_c, 5, 1, 37
9, 92525, Control_c, 5, 1, 9
9, 92535, Control_c, 5, 1, 0
9, 92560, Note_off_c, 5, 81, 64
9, 92640, Note_on_c, 5, 67, 113
9, 93120, Note_off_c, 5, 67, 64
9, 93120, Note_on_c, 5, 66, 119
9, 93120, Note_on_c, 5, 67, 72
9, 93185, Control_c, 5, 1, 9
9, 93195, Note_off_c, 5, 67, 64
9, 93195, Control_c, 5, 1, 17
9, 93210, Control_c, 5, 1, 27
9, 93220, Control_c, 5, 1, 37
9, 93230, Control_c, 5, 1, 44
9, 93245, Control_c, 5, 1, 54
9, 93270, Control_c, 5, 1, 59
9, 93305, Control_c, 5, 1, 66
9, 93330, Control_c, 5, 1, 71
9, 93355, Control_c, 5, 1, 76
9, 93500, Control_c, 5, 1, 69
9, 93515, Control_c, 5, 1, 64
9, 93525, Control_c, 5, 1, 54
9, 93540, Control_c, 5, 1, 36
9, 93550, Control_c, 5, 1, 19
9, 93565, Control_c, 5, 1, 0
9, 93600, Note_off_c, 5, 66, 64
9, 93600, Note_on_c, 5, 65, 102
9, 93745, Control_c, 5, 1, 6
9, 93755, Control_c, 5, 1, 14
9, 93770, Control_c, 5, 1, 22
9, 93780, Control_c, 5, 1, 32
9, 93805, Control_c, 5, 1, 39
9, 93855, Control_c, 5, 1, 44
9, 93865, Control_c, 5, 1, 51
9, 93890, Control_c, 5, 1, 59
9, 93905, Control_c, 5, 1, 68
9, 93915, Control_c, 5, 1, 74
9, 93930, Control_c, 5, 1, 83
9, 93955, Control_c, 5, 1, 91
9, 93975, Control_c, 5, 1, 83
9, 93990, Control_c, 5, 1, 71
9, 94000, Control_c, 5, 1, 54
9, 94015, Control_c, 5, 1, 32
9, 94025, Control_c, 5, 1, 11
9, 94040, Control_c, 5, 1, 0
9, 94080, Note_off_c, 5, 65, 64
9, 94080, Note_on_c, 5, 64, 102
9, 94240, Note_off_c, 5, 64, 64
9, 94240, Note_on_c, 5, 73, 113
9, 94400, Note_off_c, 5, 73, 64
9, 94400, Note_on_c, 5, 64, 113
9, 94560, Note_off_c, 5, 64, 64
9, 94560, Note_on_c, 5, 73, 107
9, 94720, Note_off_c, 5, 73, 64
9, 94720, Note_on_c, 5, 64, 113
9, 94880, Note_off_c, 5, 64, 64
9, 94880, Note_on_c, 5, 73, 119
9, 94965, Control_c, 5, 1, 2
9, 94990, Control_c, 5, 1, 11
9, 95015, Control_c, 5, 1, 16
9, 95040, Note_off_c, 5, 73, 64
9, 95040, Note_on_c, 5, 64, 107
9, 95040, Note_on_c, 5, 68, 52
9, 95065, Control_c, 5, 1, 21
9, 95110, Control_c, 5, 1, 26
9, 95115, Note_off_c, 5, 68, 64
9, 95150, Control_c, 5, 1, 34
9, 95200, Note_off_c, 5, 64, 64
9, 95200, Note_on_c, 5, 73, 119
9, 95235, Control_c, 5, 1, 39
9, 95360, Note_off_c, 5, 73, 64
9, 95360, Note_on_c, 5, 64, 119
9, 95520, Note_off_c, 5, 64, 64
9, 95520, Note_on_c, 5, 73, 113
9, 95680, Note_off_c, 5, 73, 64
9, 95680, Note_on_c, 5, 64, 107
9, 95840, Note_off_c, 5, 64, 64
9, 95840, Note_on_c, 5, 73, 127
9, 96000, Note_off_c, 5, 73, 64
9, 96000, Note_on_c, 5, 64, 113
9, 96160, Note_off_c, 5, 64, 64
9, 96160, Note_on_c, 5, 73, 113
9, 96260, Control_c, 5, 1, 44
9, 96320, Note_off_c, 5, 73, 64
9, 96320, Note_on_c, 5, 64, 107
9, 96480, Note_off_c, 5, 64, 64
9, 96480, Note_on_c, 5, 73, 107
9, 96640, Note_off_c, 5, 73, 64
9, 96640, Note_on_c, 5, 64, 107
9, 96800, Note_off_c, 5, 64, 64
9, 96800, Note_on_c, 5, 73, 113
9, 96905, Control_c, 5, 1, 39
9, 96960, Note_off_c, 5, 73, 64
9, 96960, Note_on_c, 5, 64, 107
9, 96965, Control_c, 5, 1, 32
9, 97120, Note_off_c, 5, 64, 64
9, 97120, Note_on_c, 5, 73, 113
9, 97280, Note_off_c, 5, 73, 64
9, 97280, Note_on_c, 5, 64, 107
9, 97440, Note_off_c, 5, 64, 64
9, 97440, Note_on_c, 5, 73, 113
9, 97600, Note_off_c, 5, 73, 64
9, 97600, Note_on_c, 5, 64, 107
9, 97760, Note_on_c, 5, 73, 102
9, 97840, Note_off_c, 5, 64, 64
9, 97920, Note_off_c, 5, 73, 64
9, 97920, Note_on_c, 5, 66, 107
9, 97940, Control_c, 5, 1, 27
9, 98030, Control_c, 5, 1, 22
9, 98065, Control_c, 5, 1, 17
9, 98080, Note_off_c, 5, 66, 64
9, 98080, Note_on_c, 5, 74, 102
9, 98115, Control_c, 5, 1, 12
9, 98150, Control_c, 5, 1, 6
9, 98185, Control_c, 5, 1, 1
9, 98240, Note_off_c, 5, 74, 64
9, 98240, Note_on_c, 5, 66, 107
9, 98260, Control_c, 5, 1, 6
9, 98310, Control_c, 5, 1, 12
9, 98400, Note_off_c, 5, 66, 64
9, 98400, Note_on_c, 5, 74, 85
9, 98405, Control_c, 5, 1, 19
9, 98445, Control_c, 5, 1, 24
9, 98465, Control_c, 5, 1, 31
9, 98560, Note_off_c, 5, 74, 64
9, 98560, Note_on_c, 5, 66, 107
9, 98720, Note_off_c, 5, 66, 64
9, 98720, Note_on_c, 5, 74, 102
9, 98880, Note_off_c, 5, 74, 64
9, 98880, Note_on_c, 5, 66, 102
9, 99040, Note_off_c, 5, 66, 64
9, 99040, Note_on_c, 5, 74, 102
9, 99200, Note_off_c, 5, 74, 64
9, 99200, Note_on_c, 5, 66, 102
9, 99360, Note_off_c, 5, 66, 64
9, 99360, Note_on_c, 5, 74, 89
9, 99520, Note_off_c, 5, 74, 64
9, 99520, Note_on_c, 5, 66, 113
9, 99615, Control_c, 5, 1, 36
9, 99680, Note_on_c, 5, 74, 107
9, 99700, Control_c, 5, 1, 41
9, 99775, Control_c, 5, 1, 34
9, 99800, Control_c, 5, 1, 21
9, 99810, Control_c, 5, 1, 14
9, 99820, Control_c, 5, 1, 2
9, 99835, Control_c, 5, 1, 0
9, 99840, Note_off_c, 5, 74, 64
9, 99840, Note_off_c, 5, 66, 64
9, 99840, Note_on_c, 5, 64, 127
9, 100000, Note_on_c, 5, 72, 102
9, 100080, Note_off_c, 5, 64, 64
9, 100160, Note_off_c, 5, 72, 64
9, 100160, Note_on_c, 5, 64, 107
9, 100320, Note_on_c, 5, 72, 102
9, 100400, Note_off_c, 5, 64, 64
9, 100420, Control_c, 5, 1, 2
9, 100445, Control_c, 5, 1, 7
9, 100480, Note_on_c, 5, 64, 93
9, 100560, Note_off_c, 5, 72, 64
9, 100640, Note_off_c, 5, 64, 64
9, 100640, Note_on_c, 5, 72, 107
9, 100750, Control_c, 5, 1, 14
9, 100800, Note_off_c, 5, 72, 64
9, 100800, Note_on_c, 5, 64, 102
9, 100945, Control_c, 5, 1, 19
9, 100960, Note_off_c, 5, 64, 64
9, 100960, Note_on_c, 5, 72, 107
9, 101055, Control_c, 5, 1, 24
9, 101120, Note_off_c, 5, 72, 64
9, 101120, Note_on_c, 5, 64, 107
9, 101280, Note_off_c, 5, 64, 64
9, 101280, Note_on_c, 5, 72, 107
9, 101310, Control_c, 5, 1, 19
9, 101440, Note_off_c, 5, 72, 64
9, 101440, Note_on_c, 5, 64, 119
9, 101455, Control_c, 5, 1, 14
9, 101555, Control_c, 5, 1, 7
9, 101580, Control_c, 5, 1, 0
9, 101600, Note_off_c, 5, 64, 64
9, 101600, Note_on_c, 5, 72, 102
9, 101675, Note_off_c, 5, 72, 64
9, 101760, Note_on_c, 5, 74, 119
9, 101860, Pitch_bend_c, 5, 8263
9, 101885, Pitch_bend_c, 5, 8551
9, 101895, Pitch_bend_c, 5, 8839
9, 101905, Pitch_bend_c, 5, 9342
9, 101920, Pitch_bend_c, 5, 9846
9, 101930, Pitch_bend_c, 5, 10349
9, 101945, Pitch_bend_c, 5, 10709
9, 101955, Pitch_bend_c, 5, 10997
9, 101970, Pitch_bend_c, 5, 11213
9, 101980, Pitch_bend_c, 5, 11428
9, 101990, Pitch_bend_c, 5, 11860
9, 102005, Pitch_bend_c, 5, 12220
9, 102015, Pitch_bend_c, 5, 12723
9, 102030, Pitch_bend_c, 5, 13155
9, 102040, Pitch_bend_c, 5, 13658
9, 102055, Pitch_bend_c, 5, 14234
9, 102065, Pitch_bend_c, 5, 15025
9, 102075, Pitch_bend_c, 5, 15672
9, 102090, Pitch_bend_c, 5, 16248
9, 102100, Pitch_bend_c, 5, 16383
9, 102160, Note_off_c, 5, 74, 64
9, 102175, Pitch_bend_c, 5, 15528
9, 102185, Pitch_bend_c, 5, 13514
9, 102200, Pitch_bend_c, 5, 11141
9, 102210, Pitch_bend_c, 5, 9127
9, 102225, Pitch_bend_c, 5, 8407
9, 102240, Note_on_c, 5, 72, 113
9, 102250, Pitch_bend_c, 5, 9127
9, 102260, Pitch_bend_c, 5, 10206
9, 102275, Pitch_bend_c, 5, 10925
9, 102285, Pitch_bend_c, 5, 11213
9, 102300, Pitch_bend_c, 5, 11428
9, 102310, Pitch_bend_c, 5, 11644
9, 102320, Pitch_bend_c, 5, 12004
9, 102335, Pitch_bend_c, 5, 12651
9, 102345, Pitch_bend_c, 5, 13227
9, 102360, Pitch_bend_c, 5, 13730
9, 102370, Pitch_bend_c, 5, 13946
9, 102385, Pitch_bend_c, 5, 14234
9, 102395, Pitch_bend_c, 5, 14449
9, 102410, Pitch_bend_c, 5, 14881
9, 102420, Pitch_bend_c, 5, 15097
9, 102430, Pitch_bend_c, 5, 15384
9, 102455, Pitch_bend_c, 5, 15816
9, 102470, Pitch_bend_c, 5, 16104
9, 102480, Pitch_bend_c, 5, 16383
9, 102530, Control_c, 5, 1, 1
9, 102640, Note_off_c, 5, 72, 64
9, 102655, Control_c, 5, 1, 0
9, 102690, Pitch_bend_c, 5, 14809
9, 102690, Control_c, 5, 1, 1
9, 102700, Pitch_bend_c, 5, 11284
9, 102710, Pitch_bend_c, 5, 8192
9, 102715, Control_c, 5, 1, 0
9, 102720, Note_on_c, 5, 72, 113
9, 102810, Control_c, 5, 1, 17
9, 102825, Control_c, 5, 1, 39
9, 102835, Control_c, 5, 1, 64
9, 102850, Control_c, 5, 1, 81
9, 102860, Control_c, 5, 1, 98
9, 102875, Control_c, 5, 1, 108
9, 102885, Control_c, 5, 1, 113
9, 102920, Control_c, 5, 1, 118
9, 102945, Control_c, 5, 1, 127
9, 103090, Control_c, 5, 1, 121
9, 103105, Control_c, 5, 1, 116
9, 103115, Control_c, 5, 1, 110
9, 103130, Control_c, 5, 1, 101
9, 103140, Control_c, 5, 1, 86
9, 103155, Control_c, 5, 1, 74
9, 103165, Control_c, 5, 1, 63
9, 103180, Control_c, 5, 1, 54
9, 103190, Control_c, 5, 1, 42
9, 103200, Note_off_c, 5, 72, 64
9, 103200, Control_c, 5, 1, 32
9, 103200, Note_on_c, 5, 69, 107
9, 103215, Control_c, 5, 1, 24
9, 103225, Control_c, 5, 1, 16
9, 103240, Control_c, 5, 1, 7
9, 103250, Control_c, 5, 1, 0
9, 103360, Note_off_c, 5, 69, 64
9, 103360, Note_on_c, 5, 64, 107
9, 103520, Note_off_c, 5, 64, 64
9, 103520, Note_on_c, 5, 66, 119
9, 103680, Note_off_c, 5, 66, 64
9, 103680, Note_on_c, 5, 64, 119
9, 103750, Control_c, 5, 1, 1
9, 103760, Control_c, 5, 1, 9
9, 103775, Control_c, 5, 1, 16
9, 103785, Control_c, 5, 1, 21
9, 103800, Control_c, 5, 1, 27
9, 103835, Control_c, 5, 1, 32
9, 103885, Control_c, 5, 1, 37
9, 103910, Control_c, 5, 1, 42
9, 103920, Note_off_c, 5, 64, 64
9, 103945, Control_c, 5, 1, 34
9, 103960, Control_c, 5, 1, 21
9, 103970, Control_c, 5, 1, 7
9, 103985, Control_c, 5, 1, 0
9, 104320, Note_on_c, 5, 72, 127
9, 104395, Pitch_bend_c, 5, 8911
9, 104410, Pitch_bend_c, 5, 9846
9, 104420, Pitch_bend_c, 5, 11213
9, 104435, Pitch_bend_c, 5, 12579
9, 104445, Pitch_bend_c, 5, 13442
9, 104455, Pitch_bend_c, 5, 13083
9, 104470, Pitch_bend_c, 5, 10925
9, 104480, Note_off_c, 5, 72, 64
9, 104480, Note_on_c, 5, 76, 107
9, 104480, Pitch_bend_c, 5, 8192
9, 104640, Note_off_c, 5, 76, 64
9, 104640, Note_on_c, 5, 72, 113
9, 104800, Note_off_c, 5, 72, 64
9, 104800, Note_on_c, 5, 69, 113
9, 104960, Note_off_c, 5, 69, 64
9, 104960, Note_on_c, 5, 66, 119
9, 105120, Note_off_c, 5, 66, 64
9, 105120, Note_on_c, 5, 64, 113
9, 105140, Control_c, 5, 1, 1
9, 105155, Control_c, 5, 1, 11
9, 105165, Control_c, 5, 1, 19
9, 105180, Control_c, 5, 1, 31
9, 105190, Control_c, 5, 1, 37
9, 105205, Control_c, 5, 1, 44
9, 105215, Control_c, 5, 1, 56
9, 105225, Control_c, 5, 1, 61
9, 105240, Control_c, 5, 1, 66
9, 105250, Control_c, 5, 1, 71
9, 105290, Control_c, 5, 1, 79
9, 105325, Control_c, 5, 1, 86
9, 105350, Control_c, 5, 1, 91
9, 105375, Control_c, 5, 1, 86
9, 105400, Control_c, 5, 1, 81
9, 105420, Control_c, 5, 1, 74
9, 105435, Control_c, 5, 1, 69
9, 105450, Control_c, 5, 1, 63
9, 105460, Control_c, 5, 1, 54
9, 105470, Control_c, 5, 1, 41
9, 105485, Control_c, 5, 1, 32
9, 105495, Control_c, 5, 1, 24
9, 105510, Control_c, 5, 1, 12
9, 105520, Control_c, 5, 1, 0
9, 105600, Note_off_c, 5, 64, 64
9, 105600, Note_on_c, 5, 67, 119
9, 105800, Pitch_bend_c, 5, 8263
9, 105825, Pitch_bend_c, 5, 8551
9, 105835, Pitch_bend_c, 5, 8839
9, 105850, Pitch_bend_c, 5, 9342
9, 105860, Pitch_bend_c, 5, 9774
9, 105870, Pitch_bend_c, 5, 10349
9, 105895, Pitch_bend_c, 5, 10637
9, 105920, Pitch_bend_c, 5, 10853
9, 105945, Pitch_bend_c, 5, 11069
9, 105995, Pitch_bend_c, 5, 10349
9, 106000, Note_off_c, 5, 67, 64
9, 106005, Pitch_bend_c, 5, 9342
9, 106020, Pitch_bend_c, 5, 8407
9, 106030, Pitch_bend_c, 5, 8192
9, 106080, Note_on_c, 5, 67, 119
9, 106165, Pitch_bend_c, 5, 8479
9, 106180, Pitch_bend_c, 5, 8839
9, 106190, Pitch_bend_c, 5, 9342
9, 106200, Pitch_bend_c, 5, 9774
9, 106215, Pitch_bend_c, 5, 10134
9, 106225, Pitch_bend_c, 5, 10349
9, 106240, Pitch_bend_c, 5, 10565
9, 106275, Pitch_bend_c, 5, 10781
9, 106310, Pitch_bend_c, 5, 10565
9, 106325, Pitch_bend_c, 5, 9774
9, 106335, Pitch_bend_c, 5, 8263
9, 106350, Pitch_bend_c, 5, 8192
9, 106400, Note_off_c, 5, 67, 64
9, 106400, Note_on_c, 5, 66, 113
9, 106560, Note_off_c, 5, 66, 64
9, 106560, Note_on_c, 5, 64, 107
9, 106570, Control_c, 5, 1, 6
9, 106580, Control_c, 5, 1, 14
9, 106605, Control_c, 5, 1, 24
9, 106620, Control_c, 5, 1, 34
9, 106630, Control_c, 5, 1, 41
9, 106645, Control_c, 5, 1, 54
9, 106670, Control_c, 5, 1, 66
9, 106690, Control_c, 5, 1, 73
9, 106730, Control_c, 5, 1, 78
9, 106840, Control_c, 5, 1, 71
9, 106850, Control_c, 5, 1, 63
9, 106860, Control_c, 5, 1, 54
9, 106875, Control_c, 5, 1, 37
9, 106885, Control_c, 5, 1, 24
9, 106900, Control_c, 5, 1, 9
9, 106910, Control_c, 5, 1, 0
9, 107020, Pitch_bend_c, 5, 7205
9, 107030, Pitch_bend_c, 5, 4626
9, 107040, Note_off_c, 5, 64, 64
9, 107045, Pitch_bend_c, 5, 2199
9, 107055, Pitch_bend_c, 5, 227
9, 107070, Pitch_bend_c, 5, 0
9, 107120, Note_on_c, 5, 64, 119
9, 107130, Pitch_bend_c, 5, 758
9, 107140, Pitch_bend_c, 5, 1517
9, 107155, Pitch_bend_c, 5, 2351
9, 107165, Pitch_bend_c, 5, 3261
9, 107180, Pitch_bend_c, 5, 3868
9, 107190, Pitch_bend_c, 5, 4778
9, 107200, Pitch_bend_c, 5, 5537
9, 107215, Pitch_bend_c, 5, 6219
9, 107225, Pitch_bend_c, 5, 7054
9, 107240, Pitch_bend_c, 5, 7888
9, 107250, Pitch_bend_c, 5, 8192
9, 107360, Note_off_c, 5, 64, 64
9, 107360, Note_on_c, 5, 69, 119
9, 107425, Control_c, 5, 1, 14
9, 107435, Control_c, 5, 1, 27
9, 107450, Control_c, 5, 1, 41
9, 107460, Control_c, 5, 1, 61
9, 107470, Control_c, 5, 1, 74
9, 107485, Control_c, 5, 1, 86
9, 107495, Control_c, 5, 1, 100
9, 107510, Control_c, 5, 1, 108
9, 107520, Control_c, 5, 1, 115
9, 107535, Control_c, 5, 1, 120
9, 107545, Control_c, 5, 1, 127
9, 107755, Control_c, 5, 1, 120
9, 107765, Control_c, 5, 1, 103
9, 107780, Control_c, 5, 1, 83
9, 107790, Control_c, 5, 1, 58
9, 107800, Control_c, 5, 1, 29
9, 107815, Control_c, 5, 1, 2
9, 107825, Control_c, 5, 1, 0
9, 107840, Note_off_c, 5, 69, 64
9, 107840, Note_on_c, 5, 64, 113
9, 108000, Note_off_c, 5, 64, 64
9, 108000, Note_on_c, 5, 67, 119
9, 108030, Pitch_bend_c, 5, 8479
9, 108045, Pitch_bend_c, 5, 9486
9, 108055, Pitch_bend_c, 5, 10709
9, 108070, Pitch_bend_c, 5, 12076
9, 108080, Pitch_bend_c, 5, 13155
9, 108095, Pitch_bend_c, 5, 14090
9, 108095, Control_c, 5, 1, 1
9, 108105, Pitch_bend_c, 5, 14809
9, 108105, Control_c, 5, 1, 7
9, 108120, Pitch_bend_c, 5, 15025
9, 108140, Pitch_bend_c, 5, 15241
9, 108155, Pitch_bend_c, 5, 15744
9, 108165, Pitch_bend_c, 5, 16320
9, 108180, Pitch_bend_c, 5, 16383
9, 108385, Pitch_bend_c, 5, 15888
9, 108390, Control_c, 5, 1, 1
9, 108400, Note_off_c, 5, 67, 64
9, 108400, Pitch_bend_c, 5, 14449
9, 108400, Control_c, 5, 1, 0
9, 108410, Pitch_bend_c, 5, 12867
9, 108420, Pitch_bend_c, 5, 10781
9, 108435, Pitch_bend_c, 5, 9055
9, 108445, Pitch_bend_c, 5, 8192
9, 108480, Note_on_c, 5, 67, 113
9, 108520, Pitch_bend_c, 5, 9270
9, 108535, Pitch_bend_c, 5, 12076
9, 108545, Pitch_bend_c, 5, 16248
9, 108555, Pitch_bend_c, 5, 16383
9, 108560, Control_c, 5, 1, 1
9, 108585, Control_c, 5, 1, 6
9, 108620, Control_c, 5, 1, 1
9, 108645, Pitch_bend_c, 5, 14953
9, 108655, Pitch_bend_c, 5, 11428
9, 108665, Pitch_bend_c, 5, 8479
9, 108670, Control_c, 5, 1, 0
9, 108680, Pitch_bend_c, 5, 8192
9, 108800, Note_off_c, 5, 67, 64
9, 108800, Note_on_c, 5, 64, 107
9, 108960, Note_off_c, 5, 64, 64
9, 108960, Note_on_c, 5, 62, 113
9, 109120, Note_off_c, 5, 62, 64
9, 109120, Note_on_c, 5, 60, 113
9, 109195, Note_off_c, 5, 60, 64
9, 109280, Note_on_c, 5, 62, 113
9, 109355, Note_off_c, 5, 62, 64
9, 109440, Note_on_c, 5, 60, 127
9, 109605, Pitch_bend_c, 5, 8263
9, 109640, Pitch_bend_c, 5, 8479
9, 109680, Pitch_bend_c, 5, 8695
9, 109715, Pitch_bend_c, 5, 8911
9, 109740, Pitch_bend_c, 5, 9127
9, 109755, Pitch_bend_c, 5, 9342
9, 109765, Pitch_bend_c, 5, 9630
9, 109775, Pitch_bend_c, 5, 9918
9, 109790, Pitch_bend_c, 5, 10277
9, 109800, Pitch_bend_c, 5, 10493
9, 109825, Pitch_bend_c, 5, 10709
9, 109850, Pitch_bend_c, 5, 10925
9, 109875, Pitch_bend_c, 5, 9918
9, 109885, Pitch_bend_c, 5, 8192
9, 109920, Note_off_c, 5, 60, 64
9, 109920, Note_on_c, 5, 57, 113
9, 110160, Note_off_c, 5, 57, 64
9, 110240, Note_on_c, 5, 52, 127
9, 110465, Control_c, 5, 1, 4
9, 110510, Control_c, 5, 1, 9
9, 110535, Control_c, 5, 1, 16
9, 110570, Control_c, 5, 1, 21
9, 110595, Control_c, 5, 1, 26
9, 110610, Control_c, 5, 1, 32
9, 110635, Control_c, 5, 1, 39
9, 110645, Control_c, 5, 1, 44
9, 110655, Control_c, 5, 1, 54
9, 110680, Control_c, 5, 1, 61
9, 110705, Control_c, 5, 1, 66
9, 110755, Control_c, 5, 1, 71
9, 110780, Control_c, 5, 1, 79
9, 110790, Control_c, 5, 1, 84
9, 110805, Control_c, 5, 1, 90
9, 110855, Control_c, 5, 1, 95
9, 110880, Note_off_c, 5, 52, 64
9, 110890, Control_c, 5, 1, 84
9, 110900, Control_c, 5, 1, 73
9, 110915, Control_c, 5, 1, 58
9, 110925, Control_c, 5, 1, 11
9, 110940, Control_c, 5, 1, 0
9, 142080, Note_on_c, 5, 79, 127
9, 142155, Pitch_bend_c, 5, 8263
9, 142165, Pitch_bend_c, 5, 8623
9, 142175, Pitch_bend_c, 5, 9055
9, 142190, Pitch_bend_c, 5, 9774
9, 142200, Pitch_bend_c, 5, 10637
9, 142215, Pitch_bend_c, 5, 11716
9, 142225, Pitch_bend_c, 5, 12939
9, 142230, Control_c, 5, 1, 2
9, 142240, Pitch_bend_c, 5, 14090
9, 142240, Control_c, 5, 1, 9
9, 142250, Pitch_bend_c, 5, 15312
9, 142250, Control_c, 5, 1, 16
9, 142265, Pitch_bend_c, 5, 16383
9, 142275, Control_c, 5, 1, 24
9, 142315, Control_c, 5, 1, 29
9, 142340, Control_c, 5, 1, 22
9, 142385, Pitch_bend_c, 5, 15097
9, 142385, Control_c, 5, 1, 16
9, 142400, Note_off_c, 5, 79, 64
9, 142400, Pitch_bend_c, 5, 12651
9, 142400, Control_c, 5, 1, 7
9, 142400, Note_on_c, 5, 79, 127
9, 142410, Pitch_bend_c, 5, 10925
9, 142410, Control_c, 5, 1, 0
9, 142420, Pitch_bend_c, 5, 10493
9, 142475, Note_off_c, 5, 79, 64
9, 142495, Pitch_bend_c, 5, 10997
9, 142495, Control_c, 5, 1, 1
9, 142510, Pitch_bend_c, 5, 11284
9, 142520, Pitch_bend_c, 5, 11860
9, 142520, Control_c, 5, 1, 6
9, 142530, Pitch_bend_c, 5, 12435
9, 142545, Pitch_bend_c, 5, 13298
9, 142555, Pitch_bend_c, 5, 14162
9, 142560, Note_on_c, 5, 79, 119
9, 142570, Pitch_bend_c, 5, 15025
9, 142580, Pitch_bend_c, 5, 15744
9, 142585, Control_c, 5, 1, 16
9, 142590, Pitch_bend_c, 5, 16383
9, 142595, Control_c, 5, 1, 24
9, 142605, Control_c, 5, 1, 32
9, 142620, Control_c, 5, 1, 39
9, 142630, Control_c, 5, 1, 49
9, 142645, Control_c, 5, 1, 58
9, 142655, Control_c, 5, 1, 63
9, 142715, Control_c, 5, 1, 58
9, 142730, Control_c, 5, 1, 49
9, 142740, Pitch_bend_c, 5, 14881
9, 142740, Control_c, 5, 1, 37
9, 142750, Pitch_bend_c, 5, 12004
9, 142755, Control_c, 5, 1, 22
9, 142765, Pitch_bend_c, 5, 8911
9, 142765, Control_c, 5, 1, 7
9, 142775, Pitch_bend_c, 5, 8192
9, 142775, Control_c, 5, 1, 0
9, 142880, Note_off_c, 5, 79, 64
9, 142880, Note_on_c, 5, 76, 113
9, 143040, Note_off_c, 5, 76, 64
9, 143040, Note_on_c, 5, 79, 119
9, 143095, Pitch_bend_c, 5, 8335
9, 143105, Pitch_bend_c, 5, 8623
9, 143115, Pitch_bend_c, 5, 9055
9, 143130, Pitch_bend_c, 5, 9414
9, 143140, Pitch_bend_c, 5, 9918
9, 143155, Pitch_bend_c, 5, 10493
9, 143155, Control_c, 5, 1, 6
9, 143165, Pitch_bend_c, 5, 11069
9, 143170, Control_c, 5, 1, 16
9, 143180, Pitch_bend_c, 5, 11428
9, 143180, Control_c, 5, 1, 22
9, 143190, Pitch_bend_c, 5, 11932
9, 143190, Control_c, 5, 1, 31
9, 143205, Pitch_bend_c, 5, 12291
9, 143215, Pitch_bend_c, 5, 12723
9, 143225, Pitch_bend_c, 5, 13083
9, 143230, Control_c, 5, 1, 36
9, 143240, Pitch_bend_c, 5, 13442
9, 143250, Pitch_bend_c, 5, 13730
9, 143265, Pitch_bend_c, 5, 14018
9, 143265, Control_c, 5, 1, 41
9, 143275, Pitch_bend_c, 5, 14234
9, 143290, Pitch_bend_c, 5, 14449
9, 143290, Control_c, 5, 1, 51
9, 143300, Pitch_bend_c, 5, 14881
9, 143300, Control_c, 5, 1, 58
9, 143315, Pitch_bend_c, 5, 15241
9, 143315, Control_c, 5, 1, 63
9, 143325, Pitch_bend_c, 5, 15744
9, 143325, Control_c, 5, 1, 69
9, 143335, Pitch_bend_c, 5, 16320
9, 143340, Control_c, 5, 1, 74
9, 143350, Pitch_bend_c, 5, 16383
9, 143350, Control_c, 5, 1, 79
9, 143365, Control_c, 5, 1, 84
9, 143390, Control_c, 5, 1, 93
9, 143425, Control_c, 5, 1, 98
9, 143475, Control_c, 5, 1, 103
9, 143510, Control_c, 5, 1, 108
9, 143645, Control_c, 5, 1, 113
9, 143815, Control_c, 5, 1, 108
9, 143840, Note_off_c, 5, 79, 64
9, 143840, Control_c, 5, 1, 100
9, 143850, Control_c, 5, 1, 93
9, 143865, Control_c, 5, 1, 83
9, 143875, Control_c, 5, 1, 78
9, 143885, Control_c, 5, 1, 69
9, 143900, Pitch_bend_c, 5, 15960
9, 143900, Control_c, 5, 1, 59
9, 143910, Pitch_bend_c, 5, 14665
9, 143915, Control_c, 5, 1, 41
9, 143920, Pitch_bend_c, 5, 12795
9, 143925, Control_c, 5, 1, 27
9, 143935, Pitch_bend_c, 5, 10781
9, 143935, Control_c, 5, 1, 12
9, 143945, Pitch_bend_c, 5, 9342
9, 143950, Control_c, 5, 1, 0
9, 143960, Pitch_bend_c, 5, 8479
9, 143995, Pitch_bend_c, 5, 9702
9, 144000, Note_on_c, 5, 74, 127
9, 144010, Pitch_bend_c, 5, 10997
9, 144020, Pitch_bend_c, 5, 12004
9, 144035, Pitch_bend_c, 5, 12723
9, 144035, Control_c, 5, 1, 2
9, 144045, Pitch_bend_c, 5, 13874
9, 144045, Control_c, 5, 1, 12
9, 144055, Pitch_bend_c, 5, 15097
9, 144060, Control_c, 5, 1, 22
9, 144070, Pitch_bend_c, 5, 16176
9, 144070, Control_c, 5, 1, 34
9, 144080, Pitch_bend_c, 5, 16383
9, 144085, Control_c, 5, 1, 39
9, 144130, Control_c, 5, 1, 44
9, 144160, Note_off_c, 5, 74, 64
9, 144160, Note_on_c, 5, 74, 113
9, 144195, Control_c, 5, 1, 49
9, 144220, Control_c, 5, 1, 54
9, 144235, Note_off_c, 5, 74, 64
9, 144240, Control_c, 5, 1, 59
9, 144275, Control_c, 5, 1, 64
9, 144320, Note_on_c, 5, 74, 113
9, 144395, Note_off_c, 5, 74, 64
9, 144480, Note_on_c, 5, 74, 113
9, 144555, Note_off_c, 5, 74, 64
9, 144640, Note_on_c, 5, 74, 113
9, 144715, Note_off_c, 5, 74, 64
9, 144800, Note_on_c, 5, 74, 107
9, 144875, Note_off_c, 5, 74, 64
9, 144960, Note_on_c, 5, 74, 113
9, 144985, Control_c, 5, 1, 58
9, 145035, Note_off_c, 5, 74, 64
9, 145045, Control_c, 5, 1, 51
9, 145070, Control_c, 5, 1, 44
9, 145095, Control_c, 5, 1, 39
9, 145120, Note_on_c, 5, 74, 107
9, 145135, Control_c, 5, 1, 34
9, 145195, Note_off_c, 5, 74, 64
9, 145215, Control_c, 5, 1, 29
9, 145240, Control_c, 5, 1, 22
9, 145280, Note_on_c, 5, 74, 113
9, 145280, Control_c, 5, 1, 17
9, 145355, Note_off_c, 5, 74, 64
9, 145390, Control_c, 5, 1, 11
9, 145440, Note_on_c, 5, 74, 102
9, 145515, Note_off_c, 5, 74, 64
9, 145535, Control_c, 5, 1, 6
9, 145595, Control_c, 5, 1, 1
9, 145600, Note_on_c, 5, 74, 113
9, 145630, Pitch_bend_c, 5, 16248
9, 145670, Control_c, 5, 1, 0
9, 145675, Note_off_c, 5, 74, 64
9, 145680, Pitch_bend_c, 5, 16032
9, 145760, Note_on_c, 5, 74, 113
9, 145765, Pitch_bend_c, 5, 15816
9, 145825, Pitch_bend_c, 5, 15600
9, 145835, Note_off_c, 5, 74, 64
9, 145900, Pitch_bend_c, 5, 15384
9, 145920, Note_on_c, 5, 74, 113
9, 145950, Pitch_bend_c, 5, 15097
9, 145995, Note_off_c, 5, 74, 64
9, 146035, Pitch_bend_c, 5, 14881
9, 146070, Pitch_bend_c, 5, 14665
9, 146080, Note_on_c, 5, 74, 113
9, 146095, Pitch_bend_c, 5, 14449
9, 146120, Pitch_bend_c, 5, 14234
9, 146145, Pitch_bend_c, 5, 14018
9, 146155, Note_off_c, 5, 74, 64
9, 146195, Pitch_bend_c, 5, 13730
9, 146230, Pitch_bend_c, 5, 13514
9, 146240, Note_on_c, 5, 74, 107
9, 146280, Pitch_bend_c, 5, 13298
9, 146315, Note_off_c, 5, 74, 64
9, 146325, Pitch_bend_c, 5, 13083
9, 146365, Pitch_bend_c, 5, 12867
9, 146400, Note_on_c, 5, 74, 113
9, 146400, Pitch_bend_c, 5, 12579
9, 146435, Pitch_bend_c, 5, 12291
9, 146460, Pitch_bend_c, 5, 12076
9, 146475, Note_off_c, 5, 74, 64
9, 146485, Pitch_bend_c, 5, 11572
9, 146510, Pitch_bend_c, 5, 11356
9, 146545, Pitch_bend_c, 5, 11069
9, 146560, Note_on_c, 5, 74, 113
9, 146570, Pitch_bend_c, 5, 10781
9, 146595, Pitch_bend_c, 5, 10493
9, 146620, Pitch_bend_c, 5, 10206
9, 146635, Note_off_c, 5, 74, 64
9, 146645, Pitch_bend_c, 5, 9918
9, 146680, Pitch_bend_c, 5, 9702
9, 146720, Note_on_c, 5, 74, 113
9, 146795, Note_off_c, 5, 74, 64
9, 146800, Pitch_bend_c, 5, 10349
9, 146815, Pitch_bend_c, 5, 11428
9, 146825, Pitch_bend_c, 5, 12795
9, 146840, Pitch_bend_c, 5, 13658
9, 146850, Pitch_bend_c, 5, 14090
9, 146875, Pitch_bend_c, 5, 13802
9, 146880, Note_on_c, 5, 74, 119
9, 146890, Pitch_bend_c, 5, 13227
9, 146900, Pitch_bend_c, 5, 13011
9, 146925, Pitch_bend_c, 5, 12723
9, 146935, Pitch_bend_c, 5, 12507
9, 146950, Pitch_bend_c, 5, 11932
9, 146960, Pitch_bend_c, 5, 10853
9, 146975, Pitch_bend_c, 5, 9846
9, 146985, Pitch_bend_c, 5, 8983
9, 147000, Pitch_bend_c, 5, 8263
9, 147010, Pitch_bend_c, 5, 8192
9, 147200, Note_off_c, 5, 74, 64
9, 147200, Note_on_c, 5, 72, 113
9, 147360, Note_off_c, 5, 72, 64
9, 147360, Note_on_c, 5, 69, 113
9, 147560, Control_c, 5, 1, 1
9, 147575, Control_c, 5, 1, 7
9, 147600, Control_c, 5, 1, 12
9, 147660, Control_c, 5, 1, 17
9, 147680, Note_off_c, 5, 69, 64
9, 147680, Note_on_c, 5, 69, 102
9, 147685, Control_c, 5, 1, 22
9, 147705, Control_c, 5, 1, 29
9, 147745, Control_c, 5, 1, 34
9, 147780, Control_c, 5, 1, 41
9, 147805, Control_c, 5, 1, 48
9, 147880, Control_c, 5, 1, 53
9, 147900, Control_c, 5, 1, 58
9, 147950, Control_c, 5, 1, 63
9, 148180, Control_c, 5, 1, 68
9, 148355, Control_c, 5, 1, 74
9, 148450, Control_c, 5, 1, 69
9, 148465, Control_c, 5, 1, 64
9, 148475, Control_c, 5, 1, 54
9, 148480, Note_off_c, 5, 69, 64
9, 148480, Note_on_c, 5, 66, 107
9, 148490, Control_c, 5, 1, 36
9, 148500, Control_c, 5, 1, 19
9, 148510, Control_c, 5, 1, 0
9, 148640, Note_off_c, 5, 66, 64
9, 148640, Note_on_c, 5, 69, 93
9, 148800, Note_off_c, 5, 69, 64
9, 148800, Note_on_c, 5, 72, 113
9, 148935, Pitch_bend_c, 5, 8551
9, 148950, Pitch_bend_c, 5, 8839
9, 148960, Pitch_bend_c, 5, 9127
9, 148975, Pitch_bend_c, 5, 9342
9, 148985, Pitch_bend_c, 5, 9558
9, 149000, Pitch_bend_c, 5, 9774
9, 149010, Pitch_bend_c, 5, 9990
9, 149025, Pitch_bend_c, 5, 10206
9, 149035, Pitch_bend_c, 5, 10421
9, 149040, Note_off_c, 5, 72, 64
9, 149060, Pitch_bend_c, 5, 10925
9, 149070, Pitch_bend_c, 5, 11141
9, 149085, Pitch_bend_c, 5, 11428
9, 149095, Pitch_bend_c, 5, 11644
9, 149110, Pitch_bend_c, 5, 12004
9, 149120, Pitch_bend_c, 5, 12291
9, 149135, Pitch_bend_c, 5, 12507
9, 149195, Pitch_bend_c, 5, 12148
9, 149205, Pitch_bend_c, 5, 11356
9, 149220, Pitch_bend_c, 5, 10493
9, 149230, Pitch_bend_c, 5, 9486
9, 149245, Pitch_bend_c, 5, 8192
9, 149600, Note_on_c, 5, 64, 107
9, 149675, Note_off_c, 5, 64, 64
9, 149760, Note_on_c, 5, 74, 127
9, 149790, Pitch_bend_c, 5, 8695
9, 149805, Pitch_bend_c, 5, 9414
9, 149815, Pitch_bend_c, 5, 9774
9, 149830, Pitch_bend_c, 5, 10277
9, 149840, Pitch_bend_c, 5, 10709
9, 149855, Pitch_bend_c, 5, 11141
9, 149865, Pitch_bend_c, 5, 11428
9, 149875, Pitch_bend_c, 5, 12004
9, 149890, Pitch_bend_c, 5, 12363
9, 149900, Pitch_bend_c, 5, 12795
9, 149915, Pitch_bend_c, 5, 13083
9, 149925, Pitch_bend_c, 5, 13298
9, 149940, Pitch_bend_c, 5, 13730
9, 149950, Pitch_bend_c, 5, 13946
9, 149975, Pitch_bend_c, 5, 14305
9, 149985, Pitch_bend_c, 5, 14593
9, 150000, Pitch_bend_c, 5, 14881
9, 150010, Pitch_bend_c, 5, 15097
9, 150035, Pitch_bend_c, 5, 15384
9, 150050, Pitch_bend_c, 5, 15600
9, 150075, Pitch_bend_c, 5, 15816
9, 150100, Pitch_bend_c, 5, 16248
9, 150120, Pitch_bend_c, 5, 16383
9, 150160, Note_off_c, 5, 74, 64
9, 150205, Pitch_bend_c, 5, 15528
9, 150220, Pitch_bend_c, 5, 13874
9, 150230, Pitch_bend_c, 5, 12148
9, 150240, Note_on_c, 5, 74, 119
9, 150245, Pitch_bend_c, 5, 10637
9, 150255, Pitch_bend_c, 5, 9342
9, 150270, Pitch_bend_c, 5, 9127
9, 150305, Pitch_bend_c, 5, 9558
9, 150315, Pitch_bend_c, 5, 10349
9, 150330, Pitch_bend_c, 5, 11284
9, 150340, Pitch_bend_c, 5, 12148
9, 150355, Pitch_bend_c, 5, 12867
9, 150365, Pitch_bend_c, 5, 13298
9, 150380, Pitch_bend_c, 5, 13658
9, 150390, Pitch_bend_c, 5, 13946
9, 150415, Pitch_bend_c, 5, 14162
9, 150425, Pitch_bend_c, 5, 14377
9, 150440, Pitch_bend_c, 5, 14881
9, 150450, Pitch_bend_c, 5, 15097
9, 150465, Pitch_bend_c, 5, 15456
9, 150500, Pitch_bend_c, 5, 15816
9, 150510, Pitch_bend_c, 5, 16104
9, 150525, Pitch_bend_c, 5, 16383
9, 150695, Pitch_bend_c, 5, 16248
9, 150705, Pitch_bend_c, 5, 14449
9, 150720, Note_off_c, 5, 74, 64
9, 150720, Pitch_bend_c, 5, 12220
9, 150720, Note_on_c, 5, 72, 119
9, 150730, Pitch_bend_c, 5, 9774
9, 150745, Pitch_bend_c, 5, 8192
9, 150780, Pitch_bend_c, 5, 8335
9, 150795, Pitch_bend_c, 5, 8911
9, 150805, Pitch_bend_c, 5, 9270
9, 150855, Pitch_bend_c, 5, 9486
9, 150865, Pitch_bend_c, 5, 9774
9, 150890, Pitch_bend_c, 5, 10134
9, 150905, Pitch_bend_c, 5, 10349
9, 150925, Pitch_bend_c, 5, 10781
9, 150950, Pitch_bend_c, 5, 10997
9, 150975, Pitch_bend_c, 5, 11213
9, 151000, Pitch_bend_c, 5, 11500
9, 151010, Pitch_bend_c, 5, 11716
9, 151025, Pitch_bend_c, 5, 11932
9, 151050, Pitch_bend_c, 5, 12220
9, 151075, Pitch_bend_c, 5, 12435
9, 151085, Pitch_bend_c, 5, 12795
9, 151095, Pitch_bend_c, 5, 13155
9, 151110, Pitch_bend_c, 5, 13442
9, 151120, Note_off_c, 5, 72, 64
9, 151135, Pitch_bend_c, 5, 11428
9, 151145, Pitch_bend_c, 5, 8192
9, 151200, Note_on_c, 5, 69, 107
9, 151360, Note_off_c, 5, 69, 64
9, 151360, Note_on_c, 5, 66, 107
9, 151435, Note_off_c, 5, 66, 64
9, 151440, Note_on_c, 5, 64, 107
9, 151610, Control_c, 5, 1, 9
9, 151625, Control_c, 5, 1, 21
9, 151635, Control_c, 5, 1, 36
9, 151650, Control_c, 5, 1, 46
9, 151660, Control_c, 5, 1, 58
9, 151675, Control_c, 5, 1, 64
9, 151695, Control_c, 5, 1, 71
9, 151720, Control_c, 5, 1, 76
9, 151760, Control_c, 5, 1, 81
9, 151795, Control_c, 5, 1, 73
9, 151820, Control_c, 5, 1, 64
9, 151830, Control_c, 5, 1, 59
9, 151845, Control_c, 5, 1, 51
9, 151855, Control_c, 5, 1, 39
9, 151870, Control_c, 5, 1, 26
9, 151880, Control_c, 5, 1, 9
9, 151895, Control_c, 5, 1, 0
9, 151920, Note_off_c, 5, 64, 64
9, 152000, Note_on_c, 5, 64, 113
9, 152160, Note_off_c, 5, 64, 64
9, 152160, Note_on_c, 5, 67, 127
9, 152195, Pitch_bend_c, 5, 9270
9, 152210, Pitch_bend_c, 5, 10637
9, 152220, Pitch_bend_c, 5, 11788
9, 152235, Pitch_bend_c, 5, 12579
9, 152245, Pitch_bend_c, 5, 13298
9, 152255, Pitch_bend_c, 5, 13946
9, 152270, Pitch_bend_c, 5, 14809
9, 152270, Control_c, 5, 1, 7
9, 152280, Pitch_bend_c, 5, 15744
9, 152285, Control_c, 5, 1, 14
9, 152295, Pitch_bend_c, 5, 16383
9, 152305, Control_c, 5, 1, 21
9, 152330, Control_c, 5, 1, 26
9, 152390, Control_c, 5, 1, 21
9, 152400, Note_off_c, 5, 67, 64
9, 152405, Control_c, 5, 1, 12
9, 152415, Pitch_bend_c, 5, 15312
9, 152415, Control_c, 5, 1, 6
9, 152430, Pitch_bend_c, 5, 12939
9, 152430, Control_c, 5, 1, 0
9, 152440, Pitch_bend_c, 5, 10637
9, 152450, Pitch_bend_c, 5, 8623
9, 152465, Pitch_bend_c, 5, 8263
9, 152480, Note_on_c, 5, 67, 127
9, 152490, Pitch_bend_c, 5, 9127
9, 152500, Pitch_bend_c, 5, 10349
9, 152515, Pitch_bend_c, 5, 11644
9, 152525, Pitch_bend_c, 5, 13011
9, 152525, Control_c, 5, 1, 2
9, 152540, Pitch_bend_c, 5, 14521
9, 152540, Control_c, 5, 1, 11
9, 152550, Pitch_bend_c, 5, 16032
9, 152550, Control_c, 5, 1, 19
9, 152560, Pitch_bend_c, 5, 16383
9, 152565, Control_c, 5, 1, 27
9, 152575, Control_c, 5, 1, 34
9, 152685, Control_c, 5, 1, 29
9, 152710, Control_c, 5, 1, 24
9, 152735, Control_c, 5, 1, 17
9, 152760, Control_c, 5, 1, 12
9, 152785, Control_c, 5, 1, 6
9, 152795, Control_c, 5, 1, 1
9, 152855, Pitch_bend_c, 5, 16104
9, 152855, Control_c, 5, 1, 0
9, 152865, Pitch_bend_c, 5, 15312
9, 152880, Pitch_bend_c, 5, 13946
9, 152890, Pitch_bend_c, 5, 12148
9, 152905, Pitch_bend_c, 5, 10349
9, 152915, Pitch_bend_c, 5, 8695
9, 152930, Pitch_bend_c, 5, 8192
9, 153040, Note_off_c, 5, 67, 64
9, 153040, Note_on_c, 5, 64, 102
9, 153115, Note_off_c, 5, 64, 64
9, 153120, Note_on_c, 5, 69, 113
9, 153360, Note_off_c, 5, 69, 64
9, 153360, Note_on_c, 5, 69, 107
9, 153490, Control_c, 5, 1, 6
9, 153505, Control_c, 5, 1, 16
9, 153515, Control_c, 5, 1, 24
9, 153530, Control_c, 5, 1, 34
9, 153540, Control_c, 5, 1, 39
9, 153550, Control_c, 5, 1, 44
9, 153565, Control_c, 5, 1, 53
9, 153590, Control_c, 5, 1, 59
9, 153610, Control_c, 5, 1, 68
9, 153635, Control_c, 5, 1, 73
9, 153660, Control_c, 5, 1, 81
9, 153685, Control_c, 5, 1, 86
9, 153710, Control_c, 5, 1, 91
9, 153770, Control_c, 5, 1, 83
9, 153785, Control_c, 5, 1, 73
9, 153795, Control_c, 5, 1, 58
9, 153810, Control_c, 5, 1, 39
9, 153820, Control_c, 5, 1, 14
9, 153835, Control_c, 5, 1, 0
9, 153855, Control_c, 5, 1, 7
9, 153870, Control_c, 5, 1, 21
9, 153880, Pitch_bend_c, 5, 7509
9, 153890, Pitch_bend_c, 5, 4247
9, 153895, Control_c, 5, 1, 9
9, 153905, Pitch_bend_c, 5, 2123
9, 153905, Control_c, 5, 1, 0
9, 153915, Pitch_bend_c, 5, 606
9, 153920, Note_off_c, 5, 69, 64
9, 153920, Note_on_c, 5, 64, 113
9, 153930, Pitch_bend_c, 5, 0
9, 153950, Pitch_bend_c, 5, 303
9, 153965, Pitch_bend_c, 5, 1061
9, 153975, Pitch_bend_c, 5, 1668
9, 153990, Pitch_bend_c, 5, 2351
9, 154000, Pitch_bend_c, 5, 2958
9, 154015, Pitch_bend_c, 5, 3792
9, 154025, Pitch_bend_c, 5, 4854
9, 154040, Pitch_bend_c, 5, 6068
9, 154050, Pitch_bend_c, 5, 7054
9, 154060, Pitch_bend_c, 5, 7888
9, 154075, Pitch_bend_c, 5, 8192
9, 154080, Note_on_c, 5, 69, 107
9, 154160, Note_off_c, 5, 64, 64
9, 154240, Note_off_c, 5, 69, 64
9, 154240, Note_on_c, 5, 64, 107
9, 154400, Note_off_c, 5, 64, 64
9, 154400, Note_on_c, 5, 69, 107
9, 154500, Pitch_bend_c, 5, 8116
9, 154515, Pitch_bend_c, 5, 6902
9, 154525, Pitch_bend_c, 5, 5385
9, 154540, Pitch_bend_c, 5, 3261
9, 154550, Pitch_bend_c, 5, 1668
9, 154560, Note_off_c, 5, 69, 64
9, 154560, Note_on_c, 5, 64, 113
9, 154565, Pitch_bend_c, 5, 0
9, 154635, Pitch_bend_c, 5, 682
9, 154650, Pitch_bend_c, 5, 2123
9, 154660, Pitch_bend_c, 5, 3565
9, 154675, Pitch_bend_c, 5, 5082
9, 154685, Pitch_bend_c, 5, 6826
9, 154700, Pitch_bend_c, 5, 8192
9, 154720, Note_on_c, 5, 69, 107
9, 154800, Note_off_c, 5, 64, 64
9, 154880, Note_off_c, 5, 69, 64
9, 154880, Note_on_c, 5, 64, 107
9, 155040, Note_off_c, 5, 64, 64
9, 155040, Note_on_c, 5, 69, 107
9, 155200, Note_off_c, 5, 69, 64
9, 155200, Note_on_c, 5, 64, 107
9, 155360, Note_off_c, 5, 64, 64
9, 155360, Note_on_c, 5, 69, 107
9, 155430, Pitch_bend_c, 5, 7509
9, 155440, Pitch_bend_c, 5, 4096
9, 155455, Pitch_bend_c, 5, 1441
9, 155465, Pitch_bend_c, 5, 0
9, 155520, Note_off_c, 5, 69, 64
9, 155520, Note_on_c, 5, 64, 119
9, 155565, Pitch_bend_c, 5, 75
9, 155575, Pitch_bend_c, 5, 986
9, 155590, Pitch_bend_c, 5, 2199
9, 155600, Pitch_bend_c, 5, 3792
9, 155610, Pitch_bend_c, 5, 5764
9, 155625, Pitch_bend_c, 5, 8116
9, 155635, Pitch_bend_c, 5, 8192
9, 155680, Note_off_c, 5, 64, 64
9, 155680, Note_on_c, 5, 69, 107
9, 155840, Note_off_c, 5, 69, 64
9, 155840, Note_on_c, 5, 64, 113
9, 156000, Note_off_c, 5, 64, 64
9, 156000, Note_on_c, 5, 69, 107
9, 156160, Note_off_c, 5, 69, 64
9, 156160, Note_on_c, 5, 64, 107
9, 156240, Note_on_c, 5, 69, 107
9, 156320, Note_off_c, 5, 64, 64
9, 156395, Pitch_bend_c, 5, 5537
9, 156405, Pitch_bend_c, 5, 2123
9, 156415, Pitch_bend_c, 5, 0
9, 156480, Note_off_c, 5, 69, 64
9, 156480, Note_on_c, 5, 64, 119
9, 156515, Pitch_bend_c, 5, 151
9, 156525, Pitch_bend_c, 5, 1517
9, 156540, Pitch_bend_c, 5, 3185
9, 156550, Pitch_bend_c, 5, 5006
9, 156565, Pitch_bend_c, 5, 7205
9, 156575, Pitch_bend_c, 5, 8192
9, 156640, Note_on_c, 5, 69, 113
9, 156720, Note_off_c, 5, 64, 64
9, 156800, Note_off_c, 5, 69, 64
9, 156800, Note_on_c, 5, 64, 113
9, 156960, Note_off_c, 5, 64, 64
9, 156960, Note_on_c, 5, 69, 113
9, 157120, Note_off_c, 5, 69, 64
9, 157120, Note_on_c, 5, 64, 113
9, 157280, Note_off_c, 5, 64, 64
9, 157280, Note_on_c, 5, 69, 107
9, 157345, Pitch_bend_c, 5, 7205
9, 157355, Pitch_bend_c, 5, 4171
9, 157370, Pitch_bend_c, 5, 1441
9, 157380, Pitch_bend_c, 5, 0
9, 157385, Control_c, 5, 2, 17
9, 157395, Control_c, 5, 2, 26
9, 157440, Note_off_c, 5, 69, 64
9, 157440, Note_on_c, 5, 64, 107
9, 157455, Control_c, 5, 2, 17
9, 157465, Pitch_bend_c, 5, 303
9, 157470, Control_c, 5, 2, 9
9, 157480, Pitch_bend_c, 5, 1820
9, 157480, Control_c, 5, 2, 0
9, 157490, Pitch_bend_c, 5, 4171
9, 157505, Pitch_bend_c, 5, 7054
9, 157515, Pitch_bend_c, 5, 8192
9, 157600, Note_on_c, 5, 73, 113
9, 157680, Note_off_c, 5, 64, 64
9, 157760, Note_on_c, 5, 64, 107
9, 157840, Note_off_c, 5, 73, 64
9, 157920, Note_on_c, 5, 73, 113
9, 158000, Note_off_c, 5, 64, 64
9, 158005, Control_c, 5, 1, 6
9, 158020, Control_c, 5, 1, 11
9, 158030, Control_c, 5, 1, 17
9, 158040, Control_c, 5, 1, 24
9, 158055, Control_c, 5, 1, 31
9, 158080, Note_on_c, 5, 64, 107
9, 158080, Control_c, 5, 1, 36
9, 158115, Control_c, 5, 1, 41
9, 158160, Note_off_c, 5, 73, 64
9, 158235, Control_c, 5, 1, 48
9, 158240, Note_on_c, 5, 73, 113
9, 158320, Note_off_c, 5, 64, 64
9, 158345, Control_c, 5, 1, 42
9, 158370, Control_c, 5, 1, 31
9, 158385, Control_c, 5, 1, 21
9, 158395, Control_c, 5, 1, 9
9, 158400, Note_on_c, 5, 64, 102
9, 158410, Control_c, 5, 1, 0
9, 158480, Note_off_c, 5, 73, 64
9, 158560, Note_on_c, 5, 73, 119
9, 158640, Note_off_c, 5, 64, 64
9, 158665, Control_c, 5, 1, 2
9, 158675, Control_c, 5, 1, 9
9, 158690, Control_c, 5, 1, 14
9, 158715, Control_c, 5, 1, 19
9, 158720, Note_off_c, 5, 73, 64
9, 158720, Note_on_c, 5, 64, 119
9, 158810, Control_c, 5, 1, 12
9, 158835, Control_c, 5, 1, 6
9, 158860, Control_c, 5, 1, 0
9, 158880, Note_off_c, 5, 64, 64
9, 158880, Note_on_c, 5, 73, 113
9, 159040, Note_off_c, 5, 73, 64
9, 159040, Note_on_c, 5, 64, 107
9, 159200, Note_off_c, 5, 64, 64
9, 159200, Note_on_c, 5, 73, 107
9, 159275, Note_off_c, 5, 73, 64
9, 159360, Note_on_c, 5, 62, 113
9, 159520, Note_on_c, 5, 71, 102
9, 159600, Note_off_c, 5, 62, 64
9, 159680, Note_off_c, 5, 71, 64
9, 159680, Note_on_c, 5, 62, 107
9, 159840, Note_off_c, 5, 62, 64
9, 159840, Note_on_c, 5, 71, 98
9, 160000, Note_on_c, 5, 62, 107
9, 160080, Note_off_c, 5, 71, 64
9, 160160, Note_off_c, 5, 62, 64
9, 160160, Note_on_c, 5, 71, 98
9, 160320, Note_off_c, 5, 71, 64
9, 160320, Note_on_c, 5, 62, 107
9, 160480, Note_off_c, 5, 62, 64
9, 160480, Note_on_c, 5, 71, 102
9, 160640, Note_off_c, 5, 71, 64
9, 160640, Note_on_c, 5, 62, 113
9, 160800, Note_off_c, 5, 62, 64
9, 160800, Note_on_c, 5, 71, 107
9, 160880, Note_on_c, 5, 62, 102
9, 160960, Note_off_c, 5, 71, 64
9, 161040, Note_on_c, 5, 71, 107
9, 161120, Note_off_c, 5, 62, 64
9, 161200, Note_off_c, 5, 71, 64
9, 161200, Note_on_c, 5, 60, 107
9, 161440, Note_off_c, 5, 60, 64
9, 161440, Note_on_c, 5, 69, 98
9, 161600, Note_off_c, 5, 69, 64
9, 161600, Note_on_c, 5, 60, 113
9, 161760, Note_on_c, 5, 69, 98
9, 161840, Note_off_c, 5, 60, 64
9, 161920, Note_off_c, 5, 69, 64
9, 161920, Note_on_c, 5, 60, 107
9, 162080, Note_off_c, 5, 60, 64
9, 162080, Note_on_c, 5, 69, 98
9, 162240, Note_off_c, 5, 69, 64
9, 162240, Note_on_c, 5, 60, 113
9, 162400, Note_off_c, 5, 60, 64
9, 162400, Note_on_c, 5, 69, 98
9, 162480, Note_on_c, 5, 60, 98
9, 162560, Note_off_c, 5, 69, 64
9, 162720, Note_off_c, 5, 60, 64
9, 162720, Note_on_c, 5, 69, 98
9, 162800, Note_on_c, 5, 60, 89
9, 162880, Note_off_c, 5, 69, 64
9, 162960, Note_on_c, 5, 69, 107
9, 163040, Note_off_c, 5, 60, 64
9, 163120, Note_off_c, 5, 69, 64
9, 163200, Note_on_c, 5, 67, 127
9, 163225, Pitch_bend_c, 5, 9199
9, 163240, Pitch_bend_c, 5, 10997
9, 163250, Pitch_bend_c, 5, 12651
9, 163265, Pitch_bend_c, 5, 14090
9, 163275, Pitch_bend_c, 5, 15384
9, 163275, Control_c, 5, 1, 1
9, 163285, Pitch_bend_c, 5, 16320
9, 163290, Control_c, 5, 1, 9
9, 163300, Pitch_bend_c, 5, 16383
9, 163300, Control_c, 5, 1, 14
9, 163325, Control_c, 5, 1, 21
9, 163335, Control_c, 5, 1, 26
9, 163350, Control_c, 5, 1, 32
9, 163375, Control_c, 5, 1, 37
9, 163410, Control_c, 5, 1, 44
9, 163545, Control_c, 5, 1, 37
9, 163570, Control_c, 5, 1, 32
9, 163595, Control_c, 5, 1, 22
9, 163600, Note_off_c, 5, 67, 64
9, 163605, Pitch_bend_c, 5, 15888
9, 163605, Control_c, 5, 1, 17
9, 163620, Pitch_bend_c, 5, 14953
9, 163630, Pitch_bend_c, 5, 13946
9, 163630, Control_c, 5, 1, 9
9, 163640, Pitch_bend_c, 5, 12435
9, 163645, Control_c, 5, 1, 4
9, 163655, Pitch_bend_c, 5, 10925
9, 163655, Control_c, 5, 1, 0
9, 163665, Pitch_bend_c, 5, 9486
9, 163680, Note_on_c, 5, 67, 119
9, 163680, Pitch_bend_c, 5, 8263
9, 163690, Pitch_bend_c, 5, 8192
9, 163715, Pitch_bend_c, 5, 8695
9, 163725, Pitch_bend_c, 5, 10997
9, 163740, Pitch_bend_c, 5, 13442
9, 163750, Pitch_bend_c, 5, 15816
9, 163765, Pitch_bend_c, 5, 16383
9, 163765, Control_c, 5, 1, 7
9, 163775, Control_c, 5, 1, 14
9, 163825, Control_c, 5, 1, 6
9, 163840, Control_c, 5, 1, 0
9, 163850, Pitch_bend_c, 5, 14737
9, 163860, Pitch_bend_c, 5, 11213
9, 163875, Pitch_bend_c, 5, 8192
9, 164000, Note_off_c, 5, 67, 64
9, 164000, Note_on_c, 5, 64, 113
9, 164160, Note_off_c, 5, 64, 64
9, 164160, Note_on_c, 5, 67, 127
9, 164180, Pitch_bend_c, 5, 8911
9, 164190, Pitch_bend_c, 5, 9558
9, 164200, Pitch_bend_c, 5, 10062
9, 164215, Pitch_bend_c, 5, 10421
9, 164225, Pitch_bend_c, 5, 10853
9, 164240, Pitch_bend_c, 5, 11356
9, 164250, Pitch_bend_c, 5, 12004
9, 164265, Pitch_bend_c, 5, 12507
9, 164275, Pitch_bend_c, 5, 13083
9, 164290, Pitch_bend_c, 5, 13802
9, 164300, Pitch_bend_c, 5, 14377
9, 164315, Pitch_bend_c, 5, 15025
9, 164315, Control_c, 5, 1, 7
9, 164325, Pitch_bend_c, 5, 15528
9, 164335, Pitch_bend_c, 5, 16248
9, 164350, Pitch_bend_c, 5, 16383
9, 164350, Control_c, 5, 1, 12
9, 164385, Control_c, 5, 1, 17
9, 164410, Control_c, 5, 1, 24
9, 164425, Control_c, 5, 1, 29
9, 164460, Control_c, 5, 1, 34
9, 164520, Control_c, 5, 1, 29
9, 164535, Control_c, 5, 1, 22
9, 164555, Control_c, 5, 1, 16
9, 164580, Pitch_bend_c, 5, 15241
9, 164580, Control_c, 5, 1, 6
9, 164595, Pitch_bend_c, 5, 13586
9, 164595, Control_c, 5, 1, 0
9, 164605, Pitch_bend_c, 5, 11141
9, 164615, Pitch_bend_c, 5, 8839
9, 164630, Pitch_bend_c, 5, 8192
9, 164640, Note_off_c, 5, 67, 64
9, 164640, Note_on_c, 5, 67, 113
9, 164665, Pitch_bend_c, 5, 8983
9, 164680, Pitch_bend_c, 5, 11572
9, 164690, Pitch_bend_c, 5, 13802
9, 164705, Pitch_bend_c, 5, 15600
9, 164715, Pitch_bend_c, 5, 16383
9, 164730, Control_c, 5, 1, 2
9, 164740, Control_c, 5, 1, 7
9, 164790, Control_c, 5, 1, 2
9, 164800, Pitch_bend_c, 5, 15672
9, 164800, Control_c, 5, 1, 0
9, 164815, Pitch_bend_c, 5, 13370
9, 164825, Pitch_bend_c, 5, 10565
9, 164840, Pitch_bend_c, 5, 8192
9, 164960, Note_off_c, 5, 67, 64
9, 164960, Note_on_c, 5, 64, 107
9, 165120, Note_off_c, 5, 64, 64
9, 165120, Note_on_c, 5, 67, 113
9, 165205, Pitch_bend_c, 5, 9414
9, 165215, Pitch_bend_c, 5, 10709
9, 165230, Pitch_bend_c, 5, 11788
9, 165240, Pitch_bend_c, 5, 13227
9, 165250, Pitch_bend_c, 5, 15169
9, 165265, Pitch_bend_c, 5, 16383
9, 165315, Control_c, 5, 1, 1
9, 165350, Control_c, 5, 1, 6
9, 165435, Control_c, 5, 1, 0
9, 165440, Note_off_c, 5, 67, 64
9, 165460, Pitch_bend_c, 5, 15672
9, 165470, Pitch_bend_c, 5, 13730
9, 165485, Pitch_bend_c, 5, 11860
9, 165495, Pitch_bend_c, 5, 9630
9, 165510, Pitch_bend_c, 5, 8192
9, 165600, Note_on_c, 5, 67, 127
9, 165605, Pitch_bend_c, 5, 8335
9, 165620, Pitch_bend_c, 5, 8767
9, 165630, Pitch_bend_c, 5, 9558
9, 165645, Pitch_bend_c, 5, 10925
9, 165655, Pitch_bend_c, 5, 12795
9, 165665, Pitch_bend_c, 5, 14521
9, 165680, Pitch_bend_c, 5, 16032
9, 165690, Pitch_bend_c, 5, 16383
9, 165840, Note_off_c, 5, 67, 64
9, 165850, Pitch_bend_c, 5, 15672
9, 165860, Pitch_bend_c, 5, 13802
9, 165875, Pitch_bend_c, 5, 11141
9, 165885, Pitch_bend_c, 5, 9270
9, 165900, Pitch_bend_c, 5, 8263
9, 165920, Note_on_c, 5, 67, 127
9, 165925, Pitch_bend_c, 5, 8479
9, 165935, Pitch_bend_c, 5, 9630
9, 165950, Pitch_bend_c, 5, 10997
9, 165960, Pitch_bend_c, 5, 12651
9, 165970, Pitch_bend_c, 5, 14305
9, 165985, Pitch_bend_c, 5, 15888
9, 165995, Pitch_bend_c, 5, 16383
9, 166020, Control_c, 5, 1, 6
9, 166045, Control_c, 5, 1, 11
9, 166145, Control_c, 5, 1, 17
9, 166195, Control_c, 5, 1, 22
9, 166280, Control_c, 5, 1, 17
9, 166315, Control_c, 5, 1, 12
9, 166340, Control_c, 5, 1, 4
9, 166350, Control_c, 5, 1, 0
9, 166385, Pitch_bend_c, 5, 16248
9, 166400, Pitch_bend_c, 5, 15960
9, 166410, Pitch_bend_c, 5, 15672
9, 166425, Pitch_bend_c, 5, 15025
9, 166435, Pitch_bend_c, 5, 13946
9, 166450, Pitch_bend_c, 5, 13083
9, 166460, Pitch_bend_c, 5, 12220
9, 166475, Pitch_bend_c, 5, 11716
9, 166485, Pitch_bend_c, 5, 11213
9, 166495, Pitch_bend_c, 5, 10421
9, 166510, Pitch_bend_c, 5, 9558
9, 166520, Pitch_bend_c, 5, 8695
9, 166530, Pitch_bend_c, 5, 8192
9, 166560, Note_off_c, 5, 67, 64
9, 166560, Note_on_c, 5, 64, 102
9, 166800, Note_off_c, 5, 64, 64
9, 166880, Note_on_c, 5, 64, 119
9, 166900, Control_c, 5, 1, 7
9, 166915, Control_c, 5, 1, 14
9, 166925, Control_c, 5, 1, 21
9, 166940, Control_c, 5, 1, 29
9, 166950, Control_c, 5, 1, 36
9, 166960, Control_c, 5, 1, 42
9, 166975, Control_c, 5, 1, 51
9, 166985, Control_c, 5, 1, 58
9, 167000, Control_c, 5, 1, 63
9, 167020, Control_c, 5, 1, 69
9, 167070, Control_c, 5, 1, 76
9, 167085, Control_c, 5, 1, 81
9, 167110, Control_c, 5, 1, 88
9, 167130, Control_c, 5, 1, 93
9, 167180, Control_c, 5, 1, 83
9, 167195, Control_c, 5, 1, 78
9, 167205, Control_c, 5, 1, 68
9, 167220, Control_c, 5, 1, 59
9, 167230, Control_c, 5, 1, 48
9, 167240, Control_c, 5, 1, 37
9, 167255, Control_c, 5, 1, 29
9, 167265, Control_c, 5, 1, 19
9, 167280, Note_off_c, 5, 64, 64
9, 167280, Control_c, 5, 1, 14
9, 167290, Control_c, 5, 1, 7
9, 167305, Control_c, 5, 1, 1
9, 167315, Control_c, 5, 1, 0
9, 167360, Note_on_c, 5, 64, 113
9, 167435, Note_off_c, 5, 64, 64
9, 167520, Note_on_c, 5, 72, 119
9, 167520, Note_on_c, 5, 73, 107
9, 167595, Note_off_c, 5, 73, 64
9, 167630, Pitch_bend_c, 5, 8407
9, 167645, Pitch_bend_c, 5, 8767
9, 167655, Pitch_bend_c, 5, 9127
9, 167670, Pitch_bend_c, 5, 9486
9, 167680, Pitch_bend_c, 5, 9846
9, 167695, Pitch_bend_c, 5, 10206
9, 167705, Pitch_bend_c, 5, 10565
9, 167715, Pitch_bend_c, 5, 11213
9, 167730, Pitch_bend_c, 5, 11860
9, 167740, Pitch_bend_c, 5, 12507
9, 167755, Pitch_bend_c, 5, 13227
9, 167765, Pitch_bend_c, 5, 13586
9, 167800, Pitch_bend_c, 5, 13083
9, 167815, Pitch_bend_c, 5, 12148
9, 167825, Pitch_bend_c, 5, 10421
9, 167840, Note_off_c, 5, 72, 64
9, 167840, Pitch_bend_c, 5, 8263
9, 167840, Note_on_c, 5, 76, 113
9, 167850, Pitch_bend_c, 5, 8192
9, 168000, Note_off_c, 5, 76, 64
9, 168000, Note_on_c, 5, 72, 107
9, 168095, Pitch_bend_c, 5, 8407
9, 168105, Pitch_bend_c, 5, 8623
9, 168120, Pitch_bend_c, 5, 8839
9, 168130, Pitch_bend_c, 5, 9270
9, 168145, Pitch_bend_c, 5, 9630
9, 168155, Pitch_bend_c, 5, 9918
9, 168170, Pitch_bend_c, 5, 10277
9, 168180, Pitch_bend_c, 5, 10493
9, 168220, Pitch_bend_c, 5, 9270
9, 168230, Pitch_bend_c, 5, 8192
9, 168320, Note_off_c, 5, 72, 64
9, 168320, Note_on_c, 5, 69, 113
9, 168480, Note_off_c, 5, 69, 64
9, 168480, Note_on_c, 5, 66, 119
9, 168800, Note_off_c, 5, 66, 64
9, 168800, Note_on_c, 5, 64, 102
9, 168875, Note_off_c, 5, 64, 64
9, 168960, Note_on_c, 5, 69, 113
9, 168965, Control_c, 5, 1, 6
9, 168975, Control_c, 5, 1, 16
9, 168985, Control_c, 5, 1, 22
9, 169000, Control_c, 5, 1, 34
9, 169010, Control_c, 5, 1, 39
9, 169025, Control_c, 5, 1, 46
9, 169035, Control_c, 5, 1, 56
9, 169050, Control_c, 5, 1, 68
9, 169060, Control_c, 5, 1, 78
9, 169075, Control_c, 5, 1, 84
9, 169085, Control_c, 5, 1, 96
9, 169100, Control_c, 5, 1, 103
9, 169120, Control_c, 5, 1, 108
9, 169160, Control_c, 5, 1, 101
9, 169355, Control_c, 5, 1, 86
9, 169365, Control_c, 5, 1, 68
9, 169380, Control_c, 5, 1, 37
9, 169390, Control_c, 5, 1, 4
9, 169400, Control_c, 5, 1, 0
9, 169440, Note_off_c, 5, 69, 64
9, 169440, Note_on_c, 5, 67, 107
9, 169760, Note_off_c, 5, 67, 64
9, 169760, Note_on_c, 5, 69, 102
9, 169920, Note_off_c, 5, 69, 64
9, 169920, Note_on_c, 5, 66, 119
9, 170240, Note_off_c, 5, 66, 64
9, 170240, Note_on_c, 5, 69, 102
9, 170400, Note_off_c, 5, 69, 64
9, 170400, Note_on_c, 5, 65, 107
9, 170720, Note_off_c, 5, 65, 64
9, 170720, Note_on_c, 5, 69, 107
9, 170880, Note_on_c, 5, 64, 113
9, 170960, Note_off_c, 5, 69, 64
9, 171040, Note_off_c, 5, 64, 64
9, 171360, Note_on_c, 5, 72, 107
9, 171360, Note_on_c, 5, 75, 119
9, 171360, Note_on_c, 5, 66, 119
9, 171695, Pitch_bend_c, 5, 8479
9, 171705, Pitch_bend_c, 5, 8911
9, 171720, Pitch_bend_c, 5, 9486
9, 171730, Pitch_bend_c, 5, 10277
9, 171745, Pitch_bend_c, 5, 10781
9, 171755, Pitch_bend_c, 5, 11213
9, 171770, Pitch_bend_c, 5, 11428
9, 171790, Pitch_bend_c, 5, 11716
9, 171805, Pitch_bend_c, 5, 11932
9, 171830, Pitch_bend_c, 5, 12291
9, 171865, Pitch_bend_c, 5, 12507
9, 171915, Pitch_bend_c, 5, 12723
9, 172085, Pitch_bend_c, 5, 12939
9, 172125, Control_c, 5, 1, 1
9, 172235, Control_c, 5, 1, 6
9, 172320, Control_c, 5, 1, 11
9, 172405, Control_c, 5, 1, 16
9, 172560, Control_c, 5, 1, 21
9, 172695, Control_c, 5, 1, 26
9, 172795, Control_c, 5, 1, 31
9, 173065, Control_c, 5, 1, 36
9, 174025, Control_c, 5, 1, 41
9, 174770, Pitch_bend_c, 5, 12579
9, 174780, Pitch_bend_c, 5, 12076
9, 174785, Control_c, 5, 1, 31
9, 174795, Pitch_bend_c, 5, 10997
9, 174795, Control_c, 5, 1, 16
9, 174800, Note_off_c, 5, 66, 64
9, 174800, Note_off_c, 5, 75, 64
9, 174800, Note_off_c, 5, 72, 64
9, 174805, Pitch_bend_c, 5, 8407
9, 174810, Control_c, 5, 1, 0
9, 174820, Pitch_bend_c, 5, 8192
9, 174820, End_track
0, 0, End_of_file
