0, 0, Header, 1, 2, 960
1, 0, Start_track
1, 0, Control_c, 0, 101, 0
1, 0, Control_c, 0, 100, 0
1, 0, Control_c, 0, 6, 12
1, 0, Control_c, 0, 38, 0
1, 0, Control_c, 1, 101, 0
1, 0, Control_c, 1, 100, 0
1, 0, Control_c, 1, 6, 12
1, 0, Control_c, 1, 38, 0
1, 0, Control_c, 2, 101, 0
1, 0, Control_c, 2, 100, 0
1, 0, Control_c, 2, 6, 12
1, 0, Control_c, 2, 38, 0
1, 0, Control_c, 3, 101, 0
1, 0, Control_c, 3, 100, 0
1, 0, Control_c, 3, 6, 12
1, 0, Control_c, 3, 38, 0
1, 0, Control_c, 4, 101, 0
1, 0, Control_c, 4, 100, 0
1, 0, Control_c, 4, 6, 12
1, 0, Control_c, 4, 38, 0
1, 0, Control_c, 5, 101, 0
1, 0, Control_c, 5, 100, 0
1, 0, Control_c, 5, 6, 12
1, 0, Control_c, 5, 38, 0
1, 0, Control_c, 6, 101, 0
1, 0, Control_c, 6, 100, 0
1, 0, Control_c, 6, 6, 12
1, 0, Control_c, 6, 38, 0
1, 0, Control_c, 7, 101, 0
1, 0, Control_c, 7, 100, 0
1, 0, Control_c, 7, 6, 12
1, 0, Control_c, 7, 38, 0
1, 0, Control_c, 8, 101, 0
1, 0, Control_c, 8, 100, 0
1, 0, Control_c, 8, 6, 12
1, 0, Control_c, 8, 38, 0
1, 0, Control_c, 9, 101, 0
1, 0, Control_c, 9, 100, 0
1, 0, Control_c, 9, 6, 12
1, 0, Control_c, 9, 38, 0
1, 0, Control_c, 10, 101, 0
1, 0, Control_c, 10, 100, 0
1, 0, Control_c, 10, 6, 12
1, 0, Control_c, 10, 38, 0
1, 0, Control_c, 11, 101, 0
1, 0, Control_c, 11, 100, 0
1, 0, Control_c, 11, 6, 12
1, 0, Control_c, 11, 38, 0
1, 0, Control_c, 12, 101, 0
1, 0, Control_c, 12, 100, 0
1, 0, Control_c, 12, 6, 12
1, 0, Control_c, 12, 38, 0
1, 0, Control_c, 13, 101, 0
1, 0, Control_c, 13, 100, 0
1, 0, Control_c, 13, 6, 12
1, 0, Control_c, 13, 38, 0
1, 0, Control_c, 14, 101, 0
1, 0, Control_c, 14, 100, 0
1, 0, Control_c, 14, 6, 12
1, 0, Control_c, 14, 38, 0
1, 0, Control_c, 15, 101, 0
1, 0, Control_c, 15, 100, 0
1, 0, Control_c, 15, 6, 12
1, 0, Control_c, 15, 38, 0
1, 0, Time_signature, 12, 3, 12, 8
1, 0, Tempo, 461538
1, 0, End_track
2, 0, Start_track
2, 0, Pitch_bend_c, 0, 8192
2, 0, Control_c, 0, 7, 103
2, 0, Control_c, 0, 10, 63
2, 0, Control_c, 0, 93, 0
2, 0, Control_c, 0, 91, 0
2, 0, Control_c, 0, 95, 0
2, 0, Control_c, 0, 92, 0
2, 0, Control_c, 0, 11, 127
2, 0, Program_c, 0, 27
2, 0, Control_c, 1, 7, 103
2, 0, Control_c, 1, 10, 63
2, 0, Control_c, 1, 93, 0
2, 0, Control_c, 1, 91, 0
2, 0, Control_c, 1, 95, 0
2, 0, Control_c, 1, 92, 0
2, 0, Control_c, 1, 11, 127
2, 0, Program_c, 1, 27
2, 5280, Note_on_c, 0, 72, 95
2, 5520, Note_off_c, 0, 72, 95
2, 5520, Pitch_bend_c, 1, 8192
2, 5520, Note_on_c, 1, 72, 47
2, 5580, Pitch_bend_c, 1, 8320
2, 5640, Pitch_bend_c, 1, 8448
2, 5640, Pitch_bend_c, 1, 8448
2, 5760, Pitch_bend_c, 1, 8448
2, 5760, Pitch_bend_c, 1, 8192
2, 5760, Note_off_c, 1, 72, 47
2, 5760, Pitch_bend_c, 1, 8192
2, 5760, Note_on_c, 1, 76, 95
2, 5760, Pitch_bend_c, 1, 8192
2, 5760, Note_on_c, 1, 72, 95
2, 5856, Pitch_bend_c, 1, 8320
2, 5952, Pitch_bend_c, 1, 8448
2, 6000, Pitch_bend_c, 1, 8320
2, 6048, Pitch_bend_c, 1, 8576
2, 6144, Pitch_bend_c, 1, 8704
2, 6240, Pitch_bend_c, 1, 8448
2, 6240, Pitch_bend_c, 1, 8448
2, 6240, Pitch_bend_c, 1, 8832
2, 6240, Pitch_bend_c, 1, 8832
2, 6720, Pitch_bend_c, 1, 8448
2, 6720, Pitch_bend_c, 1, 8192
2, 6720, Note_off_c, 1, 76, 95
2, 6720, Pitch_bend_c, 1, 8832
2, 6720, Pitch_bend_c, 1, 8192
2, 6720, Note_off_c, 1, 72, 95
2, 6720, Note_on_c, 0, 76, 95
2, 6720, Note_on_c, 0, 72, 95
2, 6960, Note_off_c, 0, 76, 95
2, 6960, Note_off_c, 0, 72, 95
2, 6960, Pitch_bend_c, 1, 8192
2, 6960, Note_on_c, 1, 76, 47
2, 6960, Pitch_bend_c, 1, 8192
2, 6960, Note_on_c, 1, 72, 47
2, 7020, Pitch_bend_c, 1, 8320
2, 7020, Pitch_bend_c, 1, 8320
2, 7080, Pitch_bend_c, 1, 8448
2, 7080, Pitch_bend_c, 1, 8448
2, 7080, Pitch_bend_c, 1, 8448
2, 7080, Pitch_bend_c, 1, 8448
2, 7200, Pitch_bend_c, 1, 8448
2, 7200, Pitch_bend_c, 1, 8192
2, 7200, Note_off_c, 1, 76, 47
2, 7200, Pitch_bend_c, 1, 8448
2, 7200, Pitch_bend_c, 1, 8192
2, 7200, Note_off_c, 1, 72, 47
2, 7200, Note_on_c, 0, 76, 95
2, 7200, Note_on_c, 0, 72, 95
2, 7440, Note_off_c, 0, 76, 95
2, 7440, Note_off_c, 0, 72, 95
2, 7440, Pitch_bend_c, 1, 8192
2, 7440, Note_on_c, 1, 76, 47
2, 7440, Pitch_bend_c, 1, 8192
2, 7440, Note_on_c, 1, 72, 47
2, 7500, Pitch_bend_c, 1, 8320
2, 7500, Pitch_bend_c, 1, 8320
2, 7560, Pitch_bend_c, 1, 8448
2, 7560, Pitch_bend_c, 1, 8448
2, 7560, Pitch_bend_c, 1, 8448
2, 7560, Pitch_bend_c, 1, 8448
2, 7680, Pitch_bend_c, 1, 8448
2, 7680, Pitch_bend_c, 1, 8192
2, 7680, Note_off_c, 1, 76, 47
2, 7680, Pitch_bend_c, 1, 8448
2, 7680, Pitch_bend_c, 1, 8192
2, 7680, Note_off_c, 1, 72, 47
2, 7680, Note_on_c, 0, 50, 95
2, 8160, Note_off_c, 0, 50, 95
2, 8160, Note_on_c, 0, 40, 95
2, 8640, Note_off_c, 0, 40, 95
2, 8640, Note_on_c, 0, 55, 95
2, 9360, Note_off_c, 0, 55, 95
2, 9360, Note_on_c, 0, 56, 70
2, 9600, Note_off_c, 0, 56, 70
2, 9600, Note_on_c, 0, 64, 95
2, 10080, Note_off_c, 0, 64, 95
2, 10080, Note_on_c, 0, 40, 95
2, 10560, Note_off_c, 0, 40, 95
2, 10560, Note_on_c, 0, 56, 95
2, 11040, Note_off_c, 0, 56, 95
2, 11040, Note_on_c, 0, 40, 95
2, 11520, Note_off_c, 0, 40, 95
2, 11520, Note_on_c, 0, 45, 95
2, 12000, Note_off_c, 0, 45, 95
2, 12360, Note_on_c, 1, 62, 95
2, 12480, Note_off_c, 1, 62, 95
2, 12480, Note_on_c, 1, 64, 95
2, 12480, Note_on_c, 0, 45, 95
2, 12960, Note_off_c, 1, 64, 95
2, 12960, Note_off_c, 0, 45, 95
2, 12960, Note_on_c, 0, 67, 95
2, 12960, Note_on_c, 0, 45, 95
2, 13920, Note_off_c, 0, 67, 95
2, 13920, Note_off_c, 0, 45, 95
2, 13920, Note_on_c, 0, 67, 95
2, 13920, Note_on_c, 0, 45, 95
2, 14280, Note_on_c, 1, 64, 95
2, 14400, Note_off_c, 0, 67, 95
2, 14400, Note_off_c, 0, 45, 95
2, 14400, Note_off_c, 1, 64, 95
2, 14400, Note_on_c, 1, 62, 95
2, 14400, Note_on_c, 0, 45, 95
2, 14880, Note_off_c, 1, 62, 95
2, 14880, Note_off_c, 0, 45, 95
2, 15360, Note_on_c, 0, 62, 95
2, 15360, Note_on_c, 0, 45, 95
2, 15840, Note_off_c, 0, 62, 95
2, 15840, Note_off_c, 0, 45, 95
2, 15840, Note_on_c, 1, 60, 95
2, 15840, Note_on_c, 1, 56, 47
2, 15960, Pitch_bend_c, 1, 8320
2, 15960, Pitch_bend_c, 1, 8320
2, 16080, Pitch_bend_c, 1, 8448
2, 16080, Pitch_bend_c, 1, 8448
2, 16200, Pitch_bend_c, 1, 8704
2, 16200, Pitch_bend_c, 1, 8704
2, 16320, Pitch_bend_c, 1, 8832
2, 16320, Pitch_bend_c, 1, 8192
2, 16320, Note_off_c, 1, 60, 95
2, 16320, Pitch_bend_c, 1, 8832
2, 16320, Pitch_bend_c, 1, 8192
2, 16320, Note_off_c, 1, 56, 47
2, 16320, Note_on_c, 1, 61, 95
2, 16320, Note_on_c, 1, 57, 47
2, 16440, Pitch_bend_c, 1, 8064
2, 16440, Pitch_bend_c, 1, 8064
2, 16560, Pitch_bend_c, 1, 7936
2, 16560, Pitch_bend_c, 1, 7936
2, 16680, Pitch_bend_c, 1, 7680
2, 16680, Pitch_bend_c, 1, 7680
2, 16800, Pitch_bend_c, 1, 7552
2, 16800, Pitch_bend_c, 1, 8192
2, 16800, Note_off_c, 1, 61, 95
2, 16800, Pitch_bend_c, 1, 7552
2, 16800, Pitch_bend_c, 1, 8192
2, 16800, Note_off_c, 1, 57, 47
2, 16800, Note_on_c, 1, 60, 95
2, 16800, Note_on_c, 1, 56, 47
2, 16920, Pitch_bend_c, 1, 8448
2, 16920, Pitch_bend_c, 1, 8448
2, 17040, Pitch_bend_c, 1, 8832
2, 17040, Pitch_bend_c, 1, 8192
2, 17040, Note_off_c, 1, 60, 95
2, 17040, Pitch_bend_c, 1, 8832
2, 17040, Pitch_bend_c, 1, 8192
2, 17040, Note_off_c, 1, 56, 47
2, 17040, Note_on_c, 0, 61, 95
2, 17040, Note_on_c, 0, 57, 47
2, 17280, Note_off_c, 0, 61, 95
2, 17280, Note_off_c, 0, 57, 47
2, 17280, Note_on_c, 1, 57, 95
2, 17280, Note_on_c, 1, 52, 47
2, 17440, Pitch_bend_c, 1, 8192
2, 17440, Pitch_bend_c, 1, 8192
2, 17600, Pitch_bend_c, 1, 8320
2, 17600, Pitch_bend_c, 1, 8320
2, 17760, Pitch_bend_c, 1, 8192
2, 17760, Pitch_bend_c, 1, 8192
2, 17920, Pitch_bend_c, 1, 8320
2, 17920, Pitch_bend_c, 1, 8320
2, 18080, Pitch_bend_c, 1, 8192
2, 18080, Pitch_bend_c, 1, 8192
2, 18240, Pitch_bend_c, 1, 8320
2, 18240, Pitch_bend_c, 1, 8192
2, 18240, Note_off_c, 1, 57, 95
2, 18240, Pitch_bend_c, 1, 8320
2, 18240, Pitch_bend_c, 1, 8192
2, 18240, Note_off_c, 1, 52, 47
2, 18240, Note_on_c, 0, 45, 95
2, 18720, Note_off_c, 0, 45, 95
2, 18720, Note_on_c, 0, 55, 95
2, 19200, Note_off_c, 0, 55, 95
2, 19200, Note_on_c, 0, 52, 47
2, 19680, Note_off_c, 0, 52, 47
2, 19680, Note_on_c, 0, 59, 95
2, 20160, Note_off_c, 0, 59, 95
2, 20160, Note_on_c, 0, 50, 95
2, 20400, Note_off_c, 0, 50, 95
2, 20400, Note_on_c, 0, 51, 70
2, 20640, Note_off_c, 0, 51, 70
2, 20640, Note_on_c, 0, 50, 70
2, 20880, Note_off_c, 0, 50, 70
2, 20880, Pitch_bend_c, 1, 8192
2, 20880, Note_on_c, 1, 48, 95
2, 21060, Pitch_bend_c, 1, 8320
2, 21240, Pitch_bend_c, 1, 8448
2, 21240, Pitch_bend_c, 1, 8448
2, 21600, Pitch_bend_c, 1, 8448
2, 21600, Pitch_bend_c, 1, 8192
2, 21600, Note_off_c, 1, 48, 95
2, 21600, Note_on_c, 0, 50, 95
2, 22080, Note_off_c, 0, 50, 95
2, 22080, Note_on_c, 0, 48, 95
2, 22320, Note_off_c, 0, 48, 95
2, 22320, Pitch_bend_c, 1, 8192
2, 22320, Note_on_c, 1, 48, 22
2, 22380, Pitch_bend_c, 1, 8320
2, 22440, Pitch_bend_c, 1, 8448
2, 22440, Pitch_bend_c, 1, 8448
2, 22560, Pitch_bend_c, 1, 8448
2, 22560, Pitch_bend_c, 1, 8192
2, 22560, Note_off_c, 1, 48, 22
2, 22560, Note_on_c, 0, 45, 95
2, 23040, Note_off_c, 0, 45, 95
2, 23040, Note_on_c, 0, 69, 95
2, 23040, Note_on_c, 0, 52, 95
2, 24000, Note_off_c, 0, 69, 95
2, 24000, Note_off_c, 0, 52, 95
2, 24000, Note_on_c, 0, 40, 95
2, 24480, Note_off_c, 0, 40, 95
2, 24480, Note_on_c, 0, 55, 95
2, 25440, Note_off_c, 0, 55, 95
2, 25440, Note_on_c, 0, 56, 95
2, 25920, Note_off_c, 0, 56, 95
2, 25920, Note_on_c, 0, 64, 95
2, 27840, Note_off_c, 0, 64, 95
2, 27840, Note_on_c, 0, 62, 47
2, 27840, Note_on_c, 0, 56, 47
2, 28320, Note_off_c, 0, 62, 47
2, 28320, Note_off_c, 0, 56, 47
2, 28320, Note_on_c, 0, 59, 47
2, 28320, Note_on_c, 0, 55, 47
2, 28800, Note_off_c, 0, 59, 47
2, 28800, Note_off_c, 0, 55, 47
2, 28800, Note_on_c, 0, 73, 95
2, 28800, Note_on_c, 0, 67, 95
2, 28800, Note_on_c, 0, 64, 95
2, 29280, Note_off_c, 0, 73, 95
2, 29280, Note_off_c, 0, 67, 95
2, 29280, Note_off_c, 0, 64, 95
2, 29280, Note_on_c, 0, 73, 95
2, 29280, Note_on_c, 0, 67, 95
2, 29760, Note_off_c, 0, 73, 95
2, 29760, Note_off_c, 0, 67, 95
2, 29760, Note_on_c, 0, 73, 95
2, 29760, Note_on_c, 0, 67, 95
2, 29760, Note_on_c, 0, 64, 95
2, 30240, Note_off_c, 0, 73, 95
2, 30240, Note_off_c, 0, 67, 95
2, 30240, Note_off_c, 0, 64, 95
2, 30240, Note_on_c, 0, 73, 95
2, 30240, Note_on_c, 0, 67, 95
2, 30240, Note_on_c, 0, 64, 95
2, 30720, Note_off_c, 0, 73, 95
2, 30720, Note_off_c, 0, 67, 95
2, 30720, Note_off_c, 0, 64, 95
2, 30720, Note_on_c, 0, 73, 95
2, 30720, Note_on_c, 0, 67, 95
2, 30720, Note_on_c, 0, 64, 95
2, 31200, Note_off_c, 0, 73, 95
2, 31200, Note_off_c, 0, 67, 95
2, 31200, Note_off_c, 0, 64, 95
2, 31200, Note_on_c, 0, 73, 95
2, 31200, Note_on_c, 0, 67, 95
2, 31200, Note_on_c, 0, 64, 95
2, 31680, Note_off_c, 0, 73, 95
2, 31680, Note_off_c, 0, 67, 95
2, 31680, Note_off_c, 0, 64, 95
2, 31680, Note_on_c, 0, 73, 95
2, 31680, Note_on_c, 0, 67, 95
2, 31680, Note_on_c, 0, 64, 95
2, 32160, Note_off_c, 0, 73, 95
2, 32160, Note_off_c, 0, 67, 95
2, 32160, Note_off_c, 0, 64, 95
2, 32160, Note_on_c, 0, 73, 95
2, 32160, Note_on_c, 0, 67, 95
2, 32160, Note_on_c, 0, 64, 95
2, 32640, Note_off_c, 0, 73, 95
2, 32640, Note_off_c, 0, 67, 95
2, 32640, Note_off_c, 0, 64, 95
2, 32640, Note_on_c, 0, 73, 95
2, 32640, Note_on_c, 0, 67, 95
2, 32640, Note_on_c, 0, 64, 95
2, 33120, Note_off_c, 0, 73, 95
2, 33120, Note_off_c, 0, 67, 95
2, 33120, Note_off_c, 0, 64, 95
2, 33120, Note_on_c, 0, 72, 95
2, 33120, Note_on_c, 0, 66, 95
2, 33120, Note_on_c, 0, 63, 95
2, 33600, Note_off_c, 0, 72, 95
2, 33600, Note_off_c, 0, 66, 95
2, 33600, Note_off_c, 0, 63, 95
2, 33600, Note_on_c, 0, 73, 95
2, 33600, Note_on_c, 0, 67, 95
2, 33600, Note_on_c, 0, 64, 95
2, 34080, Note_off_c, 0, 73, 95
2, 34080, Note_off_c, 0, 67, 95
2, 34080, Note_off_c, 0, 64, 95
2, 34080, Note_on_c, 0, 73, 95
2, 34080, Note_on_c, 0, 67, 95
2, 34080, Note_on_c, 0, 64, 95
2, 34560, Note_off_c, 0, 73, 95
2, 34560, Note_off_c, 0, 67, 95
2, 34560, Note_off_c, 0, 64, 95
2, 34560, Note_on_c, 1, 72, 95
2, 34560, Note_on_c, 1, 66, 95
2, 34560, Note_on_c, 1, 63, 95
2, 34680, Pitch_bend_c, 1, 8448
2, 34680, Pitch_bend_c, 1, 8448
2, 34680, Pitch_bend_c, 1, 8448
2, 34800, Pitch_bend_c, 1, 8832
2, 34800, Pitch_bend_c, 1, 8192
2, 34800, Note_off_c, 1, 72, 95
2, 34800, Pitch_bend_c, 1, 8832
2, 34800, Pitch_bend_c, 1, 8192
2, 34800, Note_off_c, 1, 66, 95
2, 34800, Pitch_bend_c, 1, 8832
2, 34800, Pitch_bend_c, 1, 8192
2, 34800, Note_off_c, 1, 63, 95
2, 34800, Note_on_c, 0, 73, 95
2, 34800, Note_on_c, 0, 67, 95
2, 34800, Note_on_c, 0, 64, 95
2, 35040, Note_off_c, 0, 73, 95
2, 35040, Note_off_c, 0, 67, 95
2, 35040, Note_off_c, 0, 64, 95
2, 35040, Note_on_c, 0, 72, 95
2, 35040, Note_on_c, 0, 66, 95
2, 35040, Note_on_c, 0, 63, 95
2, 35520, Note_off_c, 0, 72, 95
2, 35520, Note_off_c, 0, 66, 95
2, 35520, Note_off_c, 0, 63, 95
2, 35520, Note_on_c, 0, 72, 95
2, 35520, Note_on_c, 0, 66, 95
2, 35520, Note_on_c, 0, 63, 95
2, 36000, Note_off_c, 0, 72, 95
2, 36000, Note_off_c, 0, 66, 95
2, 36000, Note_off_c, 0, 63, 95
2, 36000, Note_on_c, 0, 72, 95
2, 36000, Note_on_c, 0, 66, 95
2, 36000, Note_on_c, 0, 63, 95
2, 36480, Note_off_c, 0, 72, 95
2, 36480, Note_off_c, 0, 66, 95
2, 36480, Note_off_c, 0, 63, 95
2, 36480, Note_on_c, 0, 72, 95
2, 36480, Note_on_c, 0, 66, 95
2, 36480, Note_on_c, 0, 63, 95
2, 36960, Note_off_c, 0, 72, 95
2, 36960, Note_off_c, 0, 66, 95
2, 36960, Note_off_c, 0, 63, 95
2, 36960, Note_on_c, 0, 72, 95
2, 36960, Note_on_c, 0, 66, 95
2, 36960, Note_on_c, 0, 63, 95
2, 37440, Note_off_c, 0, 72, 95
2, 37440, Note_off_c, 0, 66, 95
2, 37440, Note_off_c, 0, 63, 95
2, 37440, Note_on_c, 0, 72, 95
2, 37440, Note_on_c, 0, 66, 95
2, 37440, Note_on_c, 0, 63, 95
2, 37920, Note_off_c, 0, 72, 95
2, 37920, Note_off_c, 0, 66, 95
2, 37920, Note_off_c, 0, 63, 95
2, 37920, Note_on_c, 0, 72, 95
2, 37920, Note_on_c, 0, 66, 95
2, 37920, Note_on_c, 0, 63, 95
2, 38400, Note_off_c, 0, 72, 95
2, 38400, Note_off_c, 0, 66, 95
2, 38400, Note_off_c, 0, 63, 95
2, 38400, Note_on_c, 0, 72, 95
2, 38400, Note_on_c, 0, 66, 95
2, 38400, Note_on_c, 0, 63, 95
2, 38880, Note_off_c, 0, 72, 95
2, 38880, Note_off_c, 0, 66, 95
2, 38880, Note_off_c, 0, 63, 95
2, 38880, Note_on_c, 0, 72, 95
2, 38880, Note_on_c, 0, 66, 95
2, 38880, Note_on_c, 0, 63, 95
2, 39360, Note_off_c, 0, 72, 95
2, 39360, Note_off_c, 0, 66, 95
2, 39360, Note_off_c, 0, 63, 95
2, 39360, Note_on_c, 0, 72, 95
2, 39360, Note_on_c, 0, 66, 95
2, 39360, Note_on_c, 0, 63, 95
2, 39840, Note_off_c, 0, 72, 95
2, 39840, Note_off_c, 0, 66, 95
2, 39840, Note_off_c, 0, 63, 95
2, 39840, Note_on_c, 0, 72, 95
2, 39840, Note_on_c, 0, 66, 95
2, 39840, Note_on_c, 0, 63, 95
2, 40200, Note_on_c, 1, 72, 95
2, 40200, Note_on_c, 1, 66, 95
2, 40200, Note_on_c, 1, 63, 95
2, 40320, Note_off_c, 0, 72, 95
2, 40320, Note_off_c, 0, 66, 95
2, 40320, Note_off_c, 0, 63, 95
2, 40320, Note_off_c, 1, 72, 95
2, 40320, Note_on_c, 1, 73, 95
2, 40320, Note_off_c, 1, 66, 95
2, 40320, Note_on_c, 1, 67, 95
2, 40320, Note_off_c, 1, 63, 95
2, 40320, Note_on_c, 1, 64, 95
2, 40800, Note_off_c, 1, 73, 95
2, 40800, Note_off_c, 1, 67, 95
2, 40800, Note_off_c, 1, 64, 95
2, 40800, Note_on_c, 0, 73, 95
2, 40800, Note_on_c, 0, 67, 95
2, 40800, Note_on_c, 0, 64, 95
2, 41280, Note_off_c, 0, 73, 95
2, 41280, Note_off_c, 0, 67, 95
2, 41280, Note_off_c, 0, 64, 95
2, 41280, Note_on_c, 0, 73, 95
2, 41280, Note_on_c, 0, 67, 95
2, 41280, Note_on_c, 0, 64, 95
2, 41760, Note_off_c, 0, 73, 95
2, 41760, Note_off_c, 0, 67, 95
2, 41760, Note_off_c, 0, 64, 95
2, 41760, Note_on_c, 0, 73, 95
2, 41760, Note_on_c, 0, 67, 95
2, 41760, Note_on_c, 0, 64, 95
2, 42240, Note_off_c, 0, 73, 95
2, 42240, Note_off_c, 0, 67, 95
2, 42240, Note_off_c, 0, 64, 95
2, 42240, Note_on_c, 0, 73, 95
2, 42240, Note_on_c, 0, 67, 95
2, 42240, Note_on_c, 0, 64, 95
2, 42720, Note_off_c, 0, 73, 95
2, 42720, Note_off_c, 0, 67, 95
2, 42720, Note_off_c, 0, 64, 95
2, 42720, Note_on_c, 0, 73, 95
2, 42720, Note_on_c, 0, 67, 95
2, 42720, Note_on_c, 0, 64, 95
2, 43200, Note_off_c, 0, 73, 95
2, 43200, Note_off_c, 0, 67, 95
2, 43200, Note_off_c, 0, 64, 95
2, 43200, Note_on_c, 0, 73, 95
2, 43200, Note_on_c, 0, 67, 95
2, 43200, Note_on_c, 0, 64, 95
2, 43680, Note_off_c, 0, 73, 95
2, 43680, Note_off_c, 0, 67, 95
2, 43680, Note_off_c, 0, 64, 95
2, 43680, Note_on_c, 0, 73, 95
2, 43680, Note_on_c, 0, 67, 95
2, 43680, Note_on_c, 0, 64, 95
2, 44160, Note_off_c, 0, 73, 95
2, 44160, Note_off_c, 0, 67, 95
2, 44160, Note_off_c, 0, 64, 95
2, 44160, Note_on_c, 0, 73, 95
2, 44160, Note_on_c, 0, 67, 95
2, 44160, Note_on_c, 0, 64, 95
2, 44640, Note_off_c, 0, 73, 95
2, 44640, Note_off_c, 0, 67, 95
2, 44640, Note_off_c, 0, 64, 95
2, 44640, Note_on_c, 0, 73, 95
2, 44640, Note_on_c, 0, 67, 95
2, 44640, Note_on_c, 0, 64, 95
2, 45480, Note_on_c, 1, 64, 95
2, 45600, Note_off_c, 0, 73, 95
2, 45600, Note_off_c, 0, 67, 95
2, 45600, Note_off_c, 0, 64, 95
2, 45600, Note_off_c, 1, 64, 95
2, 45600, Note_on_c, 1, 71, 95
2, 46080, Note_off_c, 1, 71, 95
2, 47040, Pitch_bend_c, 1, 8192
2, 47040, Note_on_c, 1, 76, 95
2, 47040, Pitch_bend_c, 1, 8192
2, 47040, Note_on_c, 1, 72, 95
2, 47160, Pitch_bend_c, 1, 8320
2, 47160, Pitch_bend_c, 1, 8320
2, 47280, Pitch_bend_c, 1, 8448
2, 47280, Pitch_bend_c, 1, 8448
2, 47280, Pitch_bend_c, 1, 8448
2, 47280, Pitch_bend_c, 1, 8448
2, 47520, Pitch_bend_c, 1, 8448
2, 47520, Pitch_bend_c, 1, 8192
2, 47520, Note_off_c, 1, 76, 95
2, 47520, Pitch_bend_c, 1, 8448
2, 47520, Pitch_bend_c, 1, 8192
2, 47520, Note_off_c, 1, 72, 95
2, 47520, Pitch_bend_c, 1, 8192
2, 47520, Note_on_c, 1, 76, 95
2, 47520, Pitch_bend_c, 1, 8192
2, 47520, Note_on_c, 1, 72, 95
2, 47616, Pitch_bend_c, 1, 8320
2, 47712, Pitch_bend_c, 1, 8448
2, 47760, Pitch_bend_c, 1, 8320
2, 47808, Pitch_bend_c, 1, 8576
2, 47904, Pitch_bend_c, 1, 8704
2, 48000, Pitch_bend_c, 1, 8448
2, 48000, Pitch_bend_c, 1, 8448
2, 48000, Pitch_bend_c, 1, 8832
2, 48000, Pitch_bend_c, 1, 8832
2, 48480, Pitch_bend_c, 1, 8448
2, 48480, Pitch_bend_c, 1, 8192
2, 48480, Note_off_c, 1, 76, 95
2, 48480, Pitch_bend_c, 1, 8832
2, 48480, Pitch_bend_c, 1, 8192
2, 48480, Note_off_c, 1, 72, 95
2, 48480, Pitch_bend_c, 1, 8192
2, 48480, Note_on_c, 1, 76, 95
2, 48480, Pitch_bend_c, 1, 8192
2, 48480, Note_on_c, 1, 72, 95
2, 48528, Pitch_bend_c, 1, 8320
2, 48576, Pitch_bend_c, 1, 8448
2, 48600, Pitch_bend_c, 1, 8320
2, 48624, Pitch_bend_c, 1, 8576
2, 48672, Pitch_bend_c, 1, 8704
2, 48720, Pitch_bend_c, 1, 8448
2, 48720, Pitch_bend_c, 1, 8448
2, 48720, Pitch_bend_c, 1, 8832
2, 48720, Pitch_bend_c, 1, 8832
2, 48960, Pitch_bend_c, 1, 8448
2, 48960, Pitch_bend_c, 1, 8192
2, 48960, Note_off_c, 1, 76, 95
2, 48960, Pitch_bend_c, 1, 8832
2, 48960, Pitch_bend_c, 1, 8192
2, 48960, Note_off_c, 1, 72, 95
2, 48960, Pitch_bend_c, 1, 8192
2, 48960, Note_on_c, 1, 76, 95
2, 48960, Pitch_bend_c, 1, 8192
2, 48960, Note_on_c, 1, 72, 95
2, 49056, Pitch_bend_c, 1, 8320
2, 49152, Pitch_bend_c, 1, 8448
2, 49200, Pitch_bend_c, 1, 8320
2, 49248, Pitch_bend_c, 1, 8576
2, 49344, Pitch_bend_c, 1, 8704
2, 49440, Pitch_bend_c, 1, 8448
2, 49440, Pitch_bend_c, 1, 8448
2, 49440, Pitch_bend_c, 1, 8832
2, 49440, Pitch_bend_c, 1, 8832
2, 49920, Pitch_bend_c, 1, 8448
2, 49920, Pitch_bend_c, 1, 8192
2, 49920, Note_off_c, 1, 76, 95
2, 49920, Pitch_bend_c, 1, 8832
2, 49920, Pitch_bend_c, 1, 8192
2, 49920, Note_off_c, 1, 72, 95
2, 49920, Pitch_bend_c, 1, 8192
2, 49920, Note_on_c, 1, 76, 95
2, 49920, Pitch_bend_c, 1, 8192
2, 49920, Note_on_c, 1, 72, 95
2, 49968, Pitch_bend_c, 1, 8320
2, 50016, Pitch_bend_c, 1, 8448
2, 50040, Pitch_bend_c, 1, 8320
2, 50064, Pitch_bend_c, 1, 8576
2, 50112, Pitch_bend_c, 1, 8704
2, 50160, Pitch_bend_c, 1, 8448
2, 50160, Pitch_bend_c, 1, 8448
2, 50160, Pitch_bend_c, 1, 8832
2, 50160, Pitch_bend_c, 1, 8832
2, 50400, Pitch_bend_c, 1, 8448
2, 50400, Pitch_bend_c, 1, 8192
2, 50400, Note_off_c, 1, 76, 95
2, 50400, Pitch_bend_c, 1, 8832
2, 50400, Pitch_bend_c, 1, 8192
2, 50400, Note_off_c, 1, 72, 95
2, 50640, Note_on_c, 1, 62, 95
2, 50760, Pitch_bend_c, 1, 9600
2, 50880, Pitch_bend_c, 1, 11008
2, 50880, Pitch_bend_c, 1, 8192
2, 50880, Note_off_c, 1, 62, 95
2, 50880, Note_on_c, 0, 66, 95
2, 51360, Note_off_c, 0, 66, 95
2, 51360, Note_on_c, 0, 69, 47
2, 51360, Note_on_c, 0, 50, 47
2, 51840, Note_off_c, 0, 69, 47
2, 51840, Note_off_c, 0, 50, 47
2, 51840, Note_on_c, 0, 66, 95
2, 51840, Note_on_c, 0, 50, 95
2, 52320, Note_off_c, 0, 66, 95
2, 52320, Note_off_c, 0, 50, 95
2, 52320, Note_on_c, 0, 72, 95
2, 52320, Note_on_c, 0, 50, 95
2, 52800, Note_off_c, 0, 72, 95
2, 52800, Note_off_c, 0, 50, 95
2, 52800, Note_on_c, 0, 66, 95
2, 52800, Note_on_c, 0, 50, 95
2, 53280, Note_off_c, 0, 66, 95
2, 53280, Note_off_c, 0, 50, 95
2, 53280, Note_on_c, 0, 69, 95
2, 53280, Note_on_c, 0, 50, 95
2, 53760, Note_off_c, 0, 69, 95
2, 53760, Note_off_c, 0, 50, 95
2, 53760, Note_on_c, 0, 66, 95
2, 54240, Note_off_c, 0, 66, 95
2, 54240, Note_on_c, 0, 71, 95
2, 54240, Note_on_c, 0, 50, 95
2, 54720, Note_off_c, 0, 71, 95
2, 54720, Note_off_c, 0, 50, 95
2, 54720, Note_on_c, 0, 50, 95
2, 55200, Note_off_c, 0, 50, 95
2, 55200, Note_on_c, 0, 66, 95
2, 55680, Note_off_c, 0, 66, 95
2, 55680, Note_on_c, 0, 69, 95
2, 56160, Note_off_c, 0, 69, 95
2, 56160, Note_on_c, 0, 50, 95
2, 56640, Note_off_c, 0, 50, 95
2, 56640, Note_on_c, 0, 66, 95
2, 57120, Note_off_c, 0, 66, 95
2, 57120, Note_on_c, 0, 69, 95
2, 57120, Note_on_c, 0, 50, 95
2, 57600, Note_off_c, 0, 69, 95
2, 57600, Note_off_c, 0, 50, 95
2, 57600, Note_on_c, 0, 66, 95
2, 57600, Note_on_c, 0, 50, 95
2, 58080, Note_off_c, 0, 66, 95
2, 58080, Note_off_c, 0, 50, 95
2, 58080, Note_on_c, 0, 72, 95
2, 58560, Note_off_c, 0, 72, 95
2, 58560, Note_on_c, 0, 63, 47
2, 58560, Note_on_c, 0, 50, 95
2, 59040, Note_off_c, 0, 63, 47
2, 59040, Note_off_c, 0, 50, 95
2, 59040, Note_on_c, 0, 69, 95
2, 59040, Note_on_c, 0, 50, 47
2, 59520, Note_off_c, 0, 69, 95
2, 59520, Note_off_c, 0, 50, 47
2, 59520, Note_on_c, 0, 66, 95
2, 60000, Note_off_c, 0, 66, 95
2, 60000, Note_on_c, 0, 71, 95
2, 60000, Note_on_c, 0, 50, 95
2, 60480, Note_off_c, 0, 71, 95
2, 60480, Note_off_c, 0, 50, 95
2, 60480, Note_on_c, 0, 69, 95
2, 60960, Note_off_c, 0, 69, 95
2, 60960, Note_on_c, 0, 50, 95
2, 61440, Note_off_c, 0, 50, 95
2, 61440, Note_on_c, 0, 66, 95
2, 61920, Note_off_c, 0, 66, 95
2, 61920, Note_on_c, 0, 72, 95
2, 62400, Note_off_c, 0, 72, 95
2, 62400, Note_on_c, 0, 66, 95
2, 62400, Note_on_c, 0, 50, 47
2, 62880, Note_off_c, 0, 66, 95
2, 62880, Note_off_c, 0, 50, 47
2, 62880, Note_on_c, 0, 69, 95
2, 63360, Note_off_c, 0, 69, 95
2, 64680, Note_on_c, 1, 60, 95
2, 64800, Note_off_c, 1, 60, 95
2, 64800, Note_on_c, 1, 61, 95
2, 65040, Note_off_c, 1, 61, 95
2, 65040, Note_on_c, 0, 69, 95
2, 65040, Note_on_c, 0, 64, 95
2, 65760, Note_off_c, 0, 69, 95
2, 65760, Note_off_c, 0, 64, 95
2, 65760, Note_on_c, 0, 62, 95
2, 66240, Note_off_c, 0, 62, 95
2, 66240, Note_on_c, 0, 60, 95
2, 66400, Note_off_c, 0, 60, 95
2, 66400, Note_on_c, 0, 61, 95
2, 66560, Note_off_c, 0, 61, 95
2, 66560, Note_on_c, 0, 60, 95
2, 66720, Note_off_c, 0, 60, 95
2, 66720, Note_on_c, 0, 57, 95
2, 67560, Note_on_c, 1, 52, 95
2, 67680, Note_off_c, 0, 57, 95
2, 67680, Note_off_c, 1, 52, 95
2, 67680, Note_on_c, 1, 50, 95
2, 68160, Note_off_c, 1, 50, 95
2, 68160, Note_on_c, 0, 48, 95
2, 68400, Note_off_c, 0, 48, 95
2, 68400, Pitch_bend_c, 1, 8192
2, 68400, Note_on_c, 1, 48, 47
2, 68460, Pitch_bend_c, 1, 8320
2, 68520, Pitch_bend_c, 1, 8448
2, 68520, Pitch_bend_c, 1, 8448
2, 68640, Pitch_bend_c, 1, 8448
2, 68640, Pitch_bend_c, 1, 8192
2, 68640, Note_off_c, 1, 48, 47
2, 68640, Note_on_c, 0, 45, 95
2, 69120, Note_off_c, 0, 45, 95
2, 69120, Note_on_c, 1, 48, 95
2, 69240, Pitch_bend_c, 1, 8192
2, 69240, Pitch_bend_c, 1, 8320
2, 69240, Pitch_bend_c, 1, 8192
2, 69240, Note_off_c, 1, 48, 95
2, 69240, Note_on_c, 1, 49, 70
2, 69360, Pitch_bend_c, 1, 8192
2, 69360, Pitch_bend_c, 1, 8320
2, 69360, Pitch_bend_c, 1, 8192
2, 69360, Note_off_c, 1, 49, 70
2, 69360, Note_on_c, 1, 48, 70
2, 69480, Pitch_bend_c, 1, 8192
2, 69480, Pitch_bend_c, 1, 8320
2, 69480, Pitch_bend_c, 1, 8192
2, 69480, Note_off_c, 1, 48, 70
2, 69480, Note_on_c, 1, 49, 70
2, 69600, Pitch_bend_c, 1, 8192
2, 69600, Pitch_bend_c, 1, 8320
2, 69600, Pitch_bend_c, 1, 8192
2, 69600, Note_off_c, 1, 49, 70
2, 69600, Note_on_c, 1, 48, 70
2, 69720, Pitch_bend_c, 1, 8192
2, 69720, Pitch_bend_c, 1, 8320
2, 69720, Pitch_bend_c, 1, 8192
2, 69720, Note_off_c, 1, 48, 70
2, 69720, Note_on_c, 1, 49, 70
2, 69840, Pitch_bend_c, 1, 8192
2, 69840, Pitch_bend_c, 1, 8320
2, 69840, Pitch_bend_c, 1, 8192
2, 69840, Note_off_c, 1, 49, 70
2, 69840, Note_on_c, 1, 48, 70
2, 69960, Pitch_bend_c, 1, 8192
2, 69960, Pitch_bend_c, 1, 8320
2, 69960, Pitch_bend_c, 1, 8192
2, 69960, Note_off_c, 1, 48, 70
2, 69960, Note_on_c, 1, 49, 70
2, 70080, Pitch_bend_c, 1, 8192
2, 70080, Pitch_bend_c, 1, 8320
2, 70080, Pitch_bend_c, 1, 8192
2, 70080, Note_off_c, 1, 49, 70
2, 70080, Note_on_c, 0, 45, 95
2, 70440, Note_on_c, 1, 60, 95
2, 70560, Note_off_c, 0, 45, 95
2, 70560, Note_off_c, 1, 60, 95
2, 70560, Note_on_c, 1, 61, 95
2, 71040, Note_off_c, 1, 61, 95
2, 71040, Note_on_c, 0, 64, 95
2, 71520, Note_off_c, 0, 64, 95
2, 71520, Note_on_c, 0, 66, 95
2, 71520, Note_on_c, 0, 62, 95
2, 72000, Note_off_c, 0, 66, 95
2, 72000, Note_off_c, 0, 62, 95
2, 72000, Note_on_c, 0, 60, 95
2, 72160, Note_off_c, 0, 60, 95
2, 72160, Note_on_c, 0, 61, 70
2, 72320, Note_off_c, 0, 61, 70
2, 72320, Note_on_c, 0, 60, 70
2, 72480, Note_off_c, 0, 60, 70
2, 72480, Note_on_c, 0, 57, 95
2, 72960, Note_off_c, 0, 57, 95
2, 72960, Note_on_c, 0, 52, 95
2, 73440, Note_off_c, 0, 52, 95
2, 73920, Note_on_c, 0, 50, 95
2, 74400, Note_off_c, 0, 50, 95
2, 74400, Note_on_c, 0, 51, 70
2, 74760, Note_on_c, 1, 51, 95
2, 74880, Note_off_c, 0, 51, 70
2, 74880, Note_off_c, 1, 51, 95
2, 74880, Note_on_c, 1, 52, 95
2, 75360, Note_off_c, 1, 52, 95
2, 75360, Note_on_c, 0, 62, 95
2, 75840, Note_off_c, 0, 62, 95
2, 75840, Note_on_c, 0, 52, 95
2, 76320, Note_off_c, 0, 52, 95
2, 76320, Note_on_c, 0, 64, 95
2, 76800, Note_off_c, 0, 64, 95
2, 76800, Note_on_c, 0, 62, 95
2, 77280, Note_off_c, 0, 62, 95
2, 77280, Note_on_c, 0, 71, 95
2, 78480, Note_off_c, 0, 71, 95
2, 78480, Note_on_c, 0, 59, 95
2, 78720, Note_off_c, 0, 59, 95
2, 78720, Note_on_c, 0, 64, 95
2, 79200, Note_off_c, 0, 64, 95
2, 79200, Note_on_c, 1, 52, 95
2, 79680, Note_off_c, 1, 52, 95
2, 79680, Note_on_c, 0, 40, 95
2, 80160, Note_off_c, 0, 40, 95
2, 80160, Note_on_c, 0, 41, 95
2, 80640, Note_off_c, 0, 41, 95
2, 80640, Note_on_c, 0, 42, 95
2, 81600, Note_off_c, 0, 42, 95
2, 81600, Note_on_c, 0, 60, 95
2, 81600, Note_on_c, 0, 42, 95
2, 82080, Note_off_c, 0, 60, 95
2, 82080, Note_off_c, 0, 42, 95
2, 82080, Note_on_c, 0, 59, 95
2, 82080, Note_on_c, 0, 42, 47
2, 82240, Note_off_c, 0, 59, 95
2, 82240, Note_off_c, 0, 42, 47
2, 82240, Note_on_c, 0, 60, 70
2, 82400, Note_off_c, 0, 60, 70
2, 82400, Note_on_c, 0, 59, 70
2, 82560, Note_off_c, 0, 59, 70
2, 82560, Note_on_c, 0, 57, 95
2, 83040, Note_off_c, 0, 57, 95
2, 83040, Note_on_c, 0, 57, 95
2, 83400, Note_on_c, 1, 59, 95
2, 83520, Note_off_c, 0, 57, 95
2, 83520, Note_off_c, 1, 59, 95
2, 83520, Note_on_c, 1, 60, 95
2, 83840, Note_off_c, 1, 60, 95
2, 83840, Note_on_c, 0, 59, 70
2, 84000, Note_off_c, 0, 59, 70
2, 84000, Note_on_c, 0, 60, 95
2, 84480, Note_off_c, 0, 60, 95
2, 84480, Note_on_c, 0, 59, 95
2, 84960, Note_off_c, 0, 59, 95
2, 84960, Note_on_c, 0, 60, 95
2, 85440, Note_off_c, 0, 60, 95
2, 85440, Note_on_c, 0, 59, 70
2, 85680, Note_off_c, 0, 59, 70
2, 85680, Note_on_c, 0, 60, 95
2, 86400, Note_off_c, 0, 60, 95
2, 87840, Note_on_c, 0, 55, 95
2, 88000, Note_off_c, 0, 55, 95
2, 88000, Note_on_c, 0, 57, 70
2, 88160, Note_off_c, 0, 57, 70
2, 88160, Note_on_c, 0, 55, 70
2, 88320, Note_off_c, 0, 55, 70
2, 88320, Note_on_c, 0, 57, 70
2, 88480, Note_off_c, 0, 57, 70
2, 88480, Note_on_c, 0, 55, 70
2, 88640, Note_off_c, 0, 55, 70
2, 88640, Note_on_c, 0, 57, 70
2, 88800, Note_off_c, 0, 57, 70
2, 88800, Note_on_c, 0, 55, 70
2, 88960, Note_off_c, 0, 55, 70
2, 88960, Note_on_c, 0, 57, 70
2, 89120, Note_off_c, 0, 57, 70
2, 89120, Note_on_c, 0, 55, 70
2, 89280, Note_off_c, 0, 55, 70
2, 89280, Note_on_c, 0, 57, 70
2, 89440, Note_off_c, 0, 57, 70
2, 89440, Note_on_c, 0, 55, 70
2, 89600, Note_off_c, 0, 55, 70
2, 89600, Note_on_c, 0, 57, 70
2, 89760, Note_off_c, 0, 57, 70
2, 89760, Note_on_c, 0, 55, 70
2, 89920, Note_off_c, 0, 55, 70
2, 89920, Note_on_c, 0, 57, 70
2, 90080, Note_off_c, 0, 57, 70
2, 90080, Note_on_c, 0, 55, 70
2, 90240, Note_off_c, 0, 55, 70
2, 90240, Note_on_c, 0, 57, 70
2, 90400, Note_off_c, 0, 57, 70
2, 90400, Note_on_c, 0, 55, 70
2, 90560, Note_off_c, 0, 55, 70
2, 90560, Note_on_c, 0, 57, 70
2, 90600, Note_on_c, 1, 50, 95
2, 90720, Note_off_c, 0, 57, 70
2, 90720, Note_off_c, 1, 50, 95
2, 90720, Note_on_c, 1, 51, 95
2, 90880, Note_off_c, 1, 51, 95
2, 90880, Note_on_c, 0, 50, 95
2, 91680, Note_off_c, 0, 50, 95
2, 91680, Note_on_c, 0, 48, 95
2, 91920, Note_off_c, 0, 48, 95
2, 91920, Pitch_bend_c, 1, 8192
2, 91920, Note_on_c, 1, 48, 47
2, 91980, Pitch_bend_c, 1, 8320
2, 92040, Pitch_bend_c, 1, 8448
2, 92040, Pitch_bend_c, 1, 8448
2, 92160, Pitch_bend_c, 1, 8448
2, 92160, Pitch_bend_c, 1, 8192
2, 92160, Note_off_c, 1, 48, 47
2, 92160, Note_on_c, 0, 52, 95
2, 92160, Note_on_c, 0, 45, 95
2, 93120, Note_off_c, 0, 52, 95
2, 93120, Note_off_c, 0, 45, 95
2, 93120, Note_on_c, 0, 69, 95
2, 93120, Note_on_c, 0, 64, 95
2, 93120, Note_on_c, 0, 52, 95
2, 93600, Note_off_c, 0, 69, 95
2, 93600, Note_off_c, 0, 64, 95
2, 93600, Note_off_c, 0, 52, 95
2, 93600, Note_on_c, 0, 69, 95
2, 93600, Note_on_c, 0, 64, 95
2, 93600, Note_on_c, 0, 52, 95
2, 94080, Note_off_c, 0, 69, 95
2, 94080, Note_off_c, 0, 64, 95
2, 94080, Note_off_c, 0, 52, 95
2, 94080, Note_on_c, 0, 64, 47
2, 94560, Note_off_c, 0, 64, 47
2, 94560, Note_on_c, 0, 40, 95
2, 95040, Note_off_c, 0, 40, 95
2, 95040, Note_on_c, 1, 55, 95
2, 95200, Pitch_bend_c, 1, 8192
2, 95360, Pitch_bend_c, 1, 8320
2, 95520, Pitch_bend_c, 1, 8192
2, 95680, Pitch_bend_c, 1, 8320
2, 95840, Pitch_bend_c, 1, 8192
2, 96000, Pitch_bend_c, 1, 8320
2, 96000, Pitch_bend_c, 1, 8192
2, 96000, Note_off_c, 1, 55, 95
2, 101760, Note_on_c, 0, 45, 95
2, 101825, Note_off_c, 0, 45, 95
2, 102120, Note_on_c, 1, 50, 95
2, 102240, Note_on_c, 1, 57, 95
2, 102240, Note_off_c, 1, 50, 95
2, 102240, Note_on_c, 1, 50, 95
2, 102400, Pitch_bend_c, 1, 8192
2, 102400, Pitch_bend_c, 1, 8192
2, 102560, Pitch_bend_c, 1, 8320
2, 102560, Pitch_bend_c, 1, 8320
2, 102720, Pitch_bend_c, 1, 8192
2, 102720, Pitch_bend_c, 1, 8192
2, 102880, Pitch_bend_c, 1, 8320
2, 102880, Pitch_bend_c, 1, 8320
2, 103040, Pitch_bend_c, 1, 8192
2, 103040, Pitch_bend_c, 1, 8192
2, 103200, Pitch_bend_c, 1, 8320
2, 103200, Pitch_bend_c, 1, 8320
2, 103360, Pitch_bend_c, 1, 8192
2, 103360, Pitch_bend_c, 1, 8192
2, 103520, Pitch_bend_c, 1, 8320
2, 103520, Pitch_bend_c, 1, 8320
2, 103680, Pitch_bend_c, 1, 8192
2, 103680, Pitch_bend_c, 1, 8192
2, 103680, Pitch_bend_c, 1, 8320
2, 103680, Pitch_bend_c, 1, 8192
2, 103680, Note_off_c, 1, 50, 95
2, 103840, Pitch_bend_c, 1, 8320
2, 104000, Pitch_bend_c, 1, 8192
2, 104160, Pitch_bend_c, 1, 8320
2, 104320, Pitch_bend_c, 1, 8192
2, 104480, Pitch_bend_c, 1, 8320
2, 104640, Pitch_bend_c, 1, 8192
2, 104800, Pitch_bend_c, 1, 8320
2, 104960, Pitch_bend_c, 1, 8192
2, 105120, Pitch_bend_c, 1, 8320
2, 105120, Pitch_bend_c, 1, 8192
2, 105120, Note_off_c, 1, 57, 95
2, 108480, Note_on_c, 0, 55, 95
2, 108720, Note_off_c, 0, 55, 95
2, 108720, Note_on_c, 0, 57, 70
2, 108960, Note_off_c, 0, 57, 70
2, 108960, Note_on_c, 0, 55, 70
2, 109200, Note_off_c, 0, 55, 70
2, 109200, Note_on_c, 0, 57, 70
2, 109440, Note_off_c, 0, 57, 70
2, 109440, Note_on_c, 1, 55, 95
2, 109600, Pitch_bend_c, 1, 8192
2, 109760, Pitch_bend_c, 1, 8320
2, 109920, Pitch_bend_c, 1, 8192
2, 110080, Pitch_bend_c, 1, 8320
2, 110240, Pitch_bend_c, 1, 8192
2, 110400, Pitch_bend_c, 1, 8320
2, 110560, Pitch_bend_c, 1, 8192
2, 110720, Pitch_bend_c, 1, 8320
2, 110880, Pitch_bend_c, 1, 8192
2, 111040, Pitch_bend_c, 1, 8320
2, 111200, Pitch_bend_c, 1, 8192
2, 111360, Pitch_bend_c, 1, 8320
2, 111520, Pitch_bend_c, 1, 8192
2, 111680, Pitch_bend_c, 1, 8320
2, 111840, Pitch_bend_c, 1, 8192
2, 112000, Pitch_bend_c, 1, 8320
2, 112160, Pitch_bend_c, 1, 8192
2, 112320, Pitch_bend_c, 1, 8320
2, 112320, Pitch_bend_c, 1, 8192
2, 112320, Note_off_c, 1, 55, 95
2, 112320, Note_on_c, 0, 55, 47
2, 113280, Note_off_c, 0, 55, 47
2, 113280, Note_on_c, 0, 57, 70
2, 113640, Note_on_c, 1, 50, 95
2, 113760, Note_off_c, 0, 57, 70
2, 113760, Note_off_c, 1, 50, 95
2, 113760, Note_on_c, 1, 51, 95
2, 114000, Note_off_c, 1, 51, 95
2, 114000, Note_on_c, 0, 50, 70
2, 114240, Note_off_c, 0, 50, 70
2, 114240, Note_on_c, 0, 48, 95
2, 114720, Note_off_c, 0, 48, 95
2, 114720, Note_on_c, 0, 45, 95
2, 115200, Note_off_c, 0, 45, 95
2, 115200, Note_on_c, 0, 57, 95
2, 115680, Note_off_c, 0, 57, 95
2, 115680, Note_on_c, 0, 55, 70
2, 116160, Note_off_c, 0, 55, 70
2, 116640, Note_on_c, 0, 69, 95
2, 116640, Note_on_c, 0, 62, 95
2, 116640, Note_on_c, 0, 52, 95
2, 117120, Note_off_c, 0, 69, 95
2, 117120, Note_off_c, 0, 62, 95
2, 117120, Note_off_c, 0, 52, 95
2, 117120, Note_on_c, 0, 61, 95
2, 117600, Note_off_c, 0, 61, 95
2, 117600, Note_on_c, 0, 69, 95
2, 117600, Note_on_c, 0, 64, 95
2, 118080, Note_off_c, 0, 69, 95
2, 118080, Note_off_c, 0, 64, 95
2, 118080, Note_on_c, 0, 69, 95
2, 118080, Note_on_c, 0, 64, 95
2, 118080, Note_on_c, 0, 52, 95
2, 119040, Note_off_c, 0, 69, 95
2, 119040, Note_off_c, 0, 64, 95
2, 119040, Note_off_c, 0, 52, 95
2, 123360, Note_on_c, 0, 57, 95
2, 123360, Note_on_c, 0, 50, 95
2, 123840, Note_off_c, 0, 57, 95
2, 123840, Note_off_c, 0, 50, 95
2, 123840, Note_on_c, 0, 64, 95
2, 123840, Note_on_c, 0, 60, 95
2, 123840, Note_on_c, 0, 50, 95
2, 124320, Note_off_c, 0, 64, 95
2, 124320, Note_off_c, 0, 60, 95
2, 124320, Note_off_c, 0, 50, 95
2, 124320, Note_on_c, 0, 64, 95
2, 124800, Note_off_c, 0, 64, 95
2, 124800, Note_on_c, 0, 66, 95
2, 125280, Note_off_c, 0, 66, 95
2, 125280, Note_on_c, 0, 66, 95
2, 125280, Note_on_c, 0, 60, 95
2, 125280, Note_on_c, 0, 50, 95
2, 126240, Note_off_c, 0, 66, 95
2, 126240, Note_off_c, 0, 60, 95
2, 126240, Note_off_c, 0, 50, 95
2, 126240, Note_on_c, 0, 66, 95
2, 126240, Note_on_c, 0, 60, 95
2, 126240, Note_on_c, 0, 50, 95
2, 126720, Note_off_c, 0, 66, 95
2, 126720, Note_off_c, 0, 60, 95
2, 126720, Note_off_c, 0, 50, 95
2, 126720, Note_on_c, 0, 66, 95
2, 126720, Note_on_c, 0, 60, 95
2, 126720, Note_on_c, 0, 50, 95
2, 127200, Note_off_c, 0, 66, 95
2, 127200, Note_off_c, 0, 60, 95
2, 127200, Note_off_c, 0, 50, 95
2, 127200, Note_on_c, 0, 64, 70
2, 131040, Note_off_c, 0, 64, 70
2, 131040, Note_on_c, 0, 57, 95
2, 131040, Note_on_c, 0, 50, 95
2, 131520, Note_off_c, 0, 57, 95
2, 131520, Note_off_c, 0, 50, 95
2, 131520, Note_on_c, 0, 54, 95
2, 132000, Note_off_c, 0, 54, 95
2, 132000, Note_on_c, 0, 57, 95
2, 132480, Note_off_c, 0, 57, 95
2, 132480, Note_on_c, 0, 57, 47
2, 132480, Note_on_c, 0, 52, 95
2, 132480, Note_on_c, 0, 45, 95
2, 133440, Note_off_c, 0, 57, 47
2, 133440, Note_off_c, 0, 52, 95
2, 133440, Note_off_c, 0, 45, 95
2, 133440, Note_on_c, 0, 69, 95
2, 133440, Note_on_c, 0, 64, 95
2, 133440, Note_on_c, 0, 50, 95
2, 133440, Note_on_c, 0, 45, 95
2, 133800, Note_on_c, 1, 53, 95
2, 133800, Note_on_c, 1, 45, 95
2, 133920, Note_off_c, 0, 69, 95
2, 133920, Note_off_c, 0, 64, 95
2, 133920, Note_off_c, 0, 50, 95
2, 133920, Note_off_c, 0, 45, 95
2, 133920, Note_off_c, 1, 53, 95
2, 133920, Note_on_c, 1, 54, 95
2, 133920, Note_off_c, 1, 45, 95
2, 133920, Note_on_c, 1, 45, 95
2, 134400, Note_off_c, 1, 54, 95
2, 134400, Note_off_c, 1, 45, 95
2, 134400, Note_on_c, 0, 57, 95
2, 134880, Note_off_c, 0, 57, 95
2, 134880, Note_on_c, 0, 54, 95
2, 135360, Note_off_c, 0, 54, 95
2, 135360, Note_on_c, 0, 55, 95
2, 135720, Note_on_c, 1, 55, 95
2, 135840, Note_off_c, 0, 55, 95
2, 135840, Note_off_c, 1, 55, 95
2, 135840, Note_on_c, 1, 56, 95
2, 136320, Note_off_c, 1, 56, 95
2, 136320, Note_on_c, 0, 64, 95
2, 136800, Note_off_c, 0, 64, 95
2, 136800, Note_on_c, 0, 62, 95
2, 137520, Note_off_c, 0, 62, 95
2, 137520, Note_on_c, 0, 64, 47
2, 137760, Note_off_c, 0, 64, 47
2, 137760, Note_on_c, 0, 62, 95
2, 138240, Note_off_c, 0, 62, 95
2, 138240, Note_on_c, 0, 60, 95
2, 138480, Note_off_c, 0, 60, 95
2, 138480, Note_on_c, 0, 61, 70
2, 138960, Note_off_c, 0, 61, 70
2, 139200, Note_on_c, 0, 57, 95
2, 139680, Note_off_c, 0, 57, 95
2, 139680, Note_on_c, 0, 69, 95
2, 140160, Note_off_c, 0, 69, 95
2, 140160, Note_on_c, 0, 61, 95
2, 140160, Note_on_c, 0, 57, 95
2, 140160, Note_on_c, 0, 52, 95
2, 140160, Note_on_c, 0, 45, 47
2, 140640, Note_off_c, 0, 61, 95
2, 140640, Note_off_c, 0, 57, 95
2, 140640, Note_off_c, 0, 52, 95
2, 140640, Note_off_c, 0, 45, 47
2, 140640, Note_on_c, 0, 69, 95
2, 141120, Note_off_c, 0, 69, 95
2, 141120, Note_on_c, 0, 67, 95
2, 141120, Note_on_c, 0, 61, 95
2, 141120, Note_on_c, 0, 57, 95
2, 141120, Note_on_c, 0, 52, 95
2, 141120, Note_on_c, 0, 45, 47
2, 142560, Note_off_c, 0, 67, 95
2, 142560, Note_off_c, 0, 61, 95
2, 142560, Note_off_c, 0, 57, 95
2, 142560, Note_off_c, 0, 52, 95
2, 142560, Note_off_c, 0, 45, 47
2, 143040, Note_on_c, 0, 45, 95
2, 143280, Note_off_c, 0, 45, 95
2, 143280, Note_on_c, 0, 46, 70
2, 143520, Note_off_c, 0, 46, 70
2, 143520, Note_on_c, 0, 47, 70
2, 144000, Note_off_c, 0, 47, 70
2, 144000, Note_on_c, 0, 40, 95
2, 144960, Note_off_c, 0, 40, 95
2, 144960, Note_on_c, 0, 55, 95
2, 145120, Note_off_c, 0, 55, 95
2, 145120, Note_on_c, 0, 56, 70
2, 145280, Note_off_c, 0, 56, 70
2, 145280, Note_on_c, 0, 55, 70
2, 145440, Note_off_c, 0, 55, 70
2, 145440, Note_on_c, 0, 64, 95
2, 145440, Note_on_c, 0, 56, 70
2, 146400, Note_off_c, 0, 64, 95
2, 146400, Note_off_c, 0, 56, 70
2, 146400, Note_on_c, 0, 62, 95
2, 146400, Note_on_c, 0, 56, 95
2, 146880, Note_on_c, 0, 40, 95
2, 147840, Note_off_c, 0, 62, 95
2, 147840, Note_off_c, 0, 56, 95
2, 147840, Note_off_c, 0, 40, 95
2, 147840, Note_on_c, 0, 40, 47
2, 148320, Note_off_c, 0, 40, 47
2, 148320, Note_on_c, 0, 40, 47
2, 148800, Note_off_c, 0, 40, 47
2, 149280, Note_on_c, 0, 41, 95
2, 149520, Note_off_c, 0, 41, 95
2, 149520, Note_on_c, 0, 42, 70
2, 149760, Note_off_c, 0, 42, 70
2, 149760, Note_on_c, 0, 50, 95
2, 149760, Note_on_c, 0, 42, 95
2, 150720, Note_off_c, 0, 50, 95
2, 150720, Note_off_c, 0, 42, 95
2, 150720, Note_on_c, 0, 57, 95
2, 150720, Note_on_c, 0, 50, 95
2, 151200, Note_off_c, 0, 57, 95
2, 151200, Note_off_c, 0, 50, 95
2, 151200, Note_on_c, 0, 67, 47
2, 151200, Note_on_c, 0, 60, 95
2, 151200, Note_on_c, 0, 57, 95
2, 151200, Note_on_c, 0, 50, 95
2, 155520, Note_off_c, 0, 67, 47
2, 155520, Note_off_c, 0, 60, 95
2, 155520, Note_off_c, 0, 57, 95
2, 155520, Note_off_c, 0, 50, 95
2, 156480, Note_on_c, 0, 45, 95
2, 156960, Note_off_c, 0, 45, 95
2, 156960, Note_on_c, 0, 50, 95
2, 157200, Note_off_c, 0, 50, 95
2, 157200, Note_on_c, 0, 51, 70
2, 157440, Note_off_c, 0, 51, 70
2, 157440, Note_on_c, 1, 52, 70
2, 157600, Pitch_bend_c, 1, 8192
2, 157760, Pitch_bend_c, 1, 8320
2, 157920, Pitch_bend_c, 1, 8192
2, 158080, Pitch_bend_c, 1, 8320
2, 158240, Pitch_bend_c, 1, 8192
2, 158400, Pitch_bend_c, 1, 8320
2, 158400, Pitch_bend_c, 1, 8192
2, 158400, Note_off_c, 1, 52, 70
2, 158400, Note_on_c, 0, 55, 95
2, 158880, Note_off_c, 0, 55, 95
2, 158880, Note_on_c, 0, 50, 95
2, 159040, Note_off_c, 0, 50, 95
2, 159040, Note_on_c, 0, 51, 70
2, 159200, Note_off_c, 0, 51, 70
2, 159200, Note_on_c, 0, 50, 70
2, 159360, Note_off_c, 0, 50, 70
2, 159360, Note_on_c, 0, 48, 95
2, 159840, Note_off_c, 0, 48, 95
2, 159840, Note_on_c, 0, 50, 95
2, 160320, Note_off_c, 0, 50, 95
2, 160320, Pitch_bend_c, 1, 8192
2, 160320, Note_on_c, 1, 48, 95
2, 160440, Pitch_bend_c, 1, 8320
2, 160560, Pitch_bend_c, 1, 8448
2, 160560, Pitch_bend_c, 1, 8448
2, 160800, Pitch_bend_c, 1, 8448
2, 160800, Pitch_bend_c, 1, 8192
2, 160800, Note_off_c, 1, 48, 95
2, 160800, Note_on_c, 0, 45, 95
2, 161280, Note_off_c, 0, 45, 95
2, 161280, Note_on_c, 0, 57, 95
2, 162240, Note_off_c, 0, 57, 95
2, 162240, Note_on_c, 0, 52, 95
2, 162240, Note_on_c, 0, 45, 95
2, 162720, Note_off_c, 0, 52, 95
2, 162720, Note_off_c, 0, 45, 95
2, 162720, Note_on_c, 0, 69, 95
2, 162720, Note_on_c, 0, 64, 95
2, 162720, Note_on_c, 0, 57, 95
2, 163200, Note_off_c, 0, 69, 95
2, 163200, Note_off_c, 0, 64, 95
2, 163200, Note_off_c, 0, 57, 95
2, 163200, Note_on_c, 0, 40, 95
2, 163680, Note_off_c, 0, 40, 95
2, 163680, Note_on_c, 0, 55, 95
2, 163840, Note_off_c, 0, 55, 95
2, 163840, Note_on_c, 0, 56, 70
2, 164000, Note_off_c, 0, 56, 70
2, 164000, Note_on_c, 0, 55, 70
2, 164160, Note_off_c, 0, 55, 70
2, 164160, Note_on_c, 0, 64, 95
2, 164160, Note_on_c, 0, 59, 47
2, 164160, Note_on_c, 0, 56, 70
2, 167040, Note_off_c, 0, 64, 95
2, 167040, Note_off_c, 0, 59, 47
2, 167040, Note_off_c, 0, 56, 70
2, 168960, Note_on_c, 0, 67, 95
2, 168960, Note_on_c, 0, 61, 95
2, 168960, Note_on_c, 0, 57, 95
2, 169440, Note_off_c, 0, 67, 95
2, 169440, Note_off_c, 0, 61, 95
2, 169440, Note_off_c, 0, 57, 95
2, 169440, Note_on_c, 0, 67, 95
2, 169440, Note_on_c, 0, 61, 95
2, 169440, Note_on_c, 0, 57, 95
2, 169920, Note_off_c, 0, 67, 95
2, 169920, Note_off_c, 0, 61, 95
2, 169920, Note_off_c, 0, 57, 95
2, 169920, Note_on_c, 0, 67, 95
2, 169920, Note_on_c, 0, 61, 95
2, 169920, Note_on_c, 0, 57, 95
2, 170400, Note_off_c, 0, 67, 95
2, 170400, Note_off_c, 0, 61, 95
2, 170400, Note_off_c, 0, 57, 95
2, 170400, Note_on_c, 0, 67, 95
2, 170400, Note_on_c, 0, 61, 95
2, 170400, Note_on_c, 0, 57, 95
2, 170880, Note_off_c, 0, 67, 95
2, 170880, Note_off_c, 0, 61, 95
2, 170880, Note_off_c, 0, 57, 95
2, 170880, Note_on_c, 0, 67, 95
2, 170880, Note_on_c, 0, 61, 95
2, 170880, Note_on_c, 0, 57, 95
2, 171360, Note_off_c, 0, 67, 95
2, 171360, Note_off_c, 0, 61, 95
2, 171360, Note_off_c, 0, 57, 95
2, 171360, Note_on_c, 0, 67, 95
2, 171360, Note_on_c, 0, 61, 95
2, 171360, Note_on_c, 0, 57, 95
2, 171840, Note_off_c, 0, 67, 95
2, 171840, Note_off_c, 0, 61, 95
2, 171840, Note_off_c, 0, 57, 95
2, 171840, Note_on_c, 1, 67, 95
2, 171840, Note_on_c, 1, 61, 95
2, 171840, Note_on_c, 1, 57, 95
2, 171960, Pitch_bend_c, 1, 7936
2, 171960, Pitch_bend_c, 1, 7936
2, 172080, Pitch_bend_c, 1, 7552
2, 172080, Pitch_bend_c, 1, 7552
2, 172200, Pitch_bend_c, 1, 7168
2, 172200, Pitch_bend_c, 1, 7168
2, 172320, Pitch_bend_c, 1, 6784
2, 172320, Pitch_bend_c, 1, 8192
2, 172320, Note_off_c, 1, 67, 95
2, 172320, Note_off_c, 1, 61, 95
2, 172320, Pitch_bend_c, 1, 6784
2, 172320, Pitch_bend_c, 1, 8192
2, 172320, Note_off_c, 1, 57, 95
2, 172320, Note_on_c, 0, 65, 47
2, 172320, Note_on_c, 0, 55, 95
2, 172800, Note_off_c, 0, 65, 47
2, 172800, Note_off_c, 0, 55, 95
2, 172800, Note_on_c, 0, 66, 95
2, 172800, Note_on_c, 0, 50, 95
2, 173160, Note_on_c, 1, 55, 95
2, 173225, Note_off_c, 1, 55, 95
2, 173280, Note_off_c, 0, 66, 95
2, 173280, Note_off_c, 0, 50, 95
2, 173280, Note_on_c, 0, 60, 95
2, 173280, Note_on_c, 1, 55, 95
2, 173760, Note_off_c, 0, 60, 95
2, 173760, Note_off_c, 1, 55, 95
2, 173760, Note_on_c, 0, 57, 95
2, 174240, Note_off_c, 0, 57, 95
2, 174240, Note_on_c, 0, 66, 95
2, 174720, Note_off_c, 0, 66, 95
2, 174720, Note_on_c, 0, 57, 95
2, 175200, Note_off_c, 0, 57, 95
2, 175200, Note_on_c, 0, 64, 95
2, 177120, Note_off_c, 0, 64, 95
2, 177480, Note_on_c, 1, 52, 95
2, 177600, Note_off_c, 1, 52, 95
2, 177600, Note_on_c, 1, 54, 95
2, 178080, Note_off_c, 1, 54, 95
2, 178080, Note_on_c, 0, 57, 95
2, 178560, Note_off_c, 0, 57, 95
2, 178560, Note_on_c, 0, 52, 95
2, 178560, Note_on_c, 0, 45, 95
2, 179520, Note_off_c, 0, 52, 95
2, 179520, Note_off_c, 0, 45, 95
2, 179520, Note_on_c, 0, 69, 95
2, 179520, Note_on_c, 0, 52, 95
2, 180000, Note_off_c, 0, 69, 95
2, 180000, Note_off_c, 0, 52, 95
2, 180000, Note_on_c, 0, 69, 95
2, 180480, Note_off_c, 0, 69, 95
2, 180480, Note_on_c, 0, 64, 95
2, 180960, Note_off_c, 0, 64, 95
2, 180960, Note_on_c, 0, 69, 95
2, 181440, Note_off_c, 0, 69, 95
2, 181440, Note_on_c, 0, 69, 95
2, 181440, Note_on_c, 0, 52, 95
2, 182400, Note_off_c, 0, 69, 95
2, 182400, Note_off_c, 0, 52, 95
2, 182400, Note_on_c, 0, 69, 95
2, 182400, Note_on_c, 0, 52, 95
2, 182880, Note_off_c, 0, 69, 95
2, 182880, Note_off_c, 0, 52, 95
2, 183720, Note_on_c, 1, 63, 95
2, 183840, Note_off_c, 1, 63, 95
2, 183840, Note_on_c, 1, 64, 95
2, 184320, Note_off_c, 1, 64, 95
2, 184320, Note_on_c, 0, 67, 95
2, 185280, Note_off_c, 0, 67, 95
2, 185280, Note_on_c, 0, 67, 95
2, 185760, Note_off_c, 0, 67, 95
2, 185760, Note_on_c, 0, 67, 95
2, 186240, Note_off_c, 0, 67, 95
2, 186240, Note_on_c, 0, 61, 95
2, 186720, Note_off_c, 0, 61, 95
2, 186720, Note_on_c, 0, 67, 95
2, 187200, Note_off_c, 0, 67, 95
2, 187200, Note_on_c, 0, 67, 95
2, 187200, Note_on_c, 0, 61, 95
2, 188160, Note_off_c, 0, 67, 95
2, 188160, Note_off_c, 0, 61, 95
2, 188160, Note_on_c, 0, 67, 95
2, 188160, Note_on_c, 0, 61, 95
2, 188640, Note_off_c, 0, 67, 95
2, 188640, Note_off_c, 0, 61, 95
2, 189600, Note_on_c, 0, 57, 95
2, 189600, Note_on_c, 0, 50, 95
2, 190080, Note_off_c, 0, 57, 95
2, 190080, Note_off_c, 0, 50, 95
2, 190080, Note_on_c, 0, 57, 95
2, 190080, Note_on_c, 0, 50, 95
2, 190560, Note_off_c, 0, 57, 95
2, 190560, Note_off_c, 0, 50, 95
2, 193920, Note_on_c, 0, 60, 95
2, 194400, Note_off_c, 0, 60, 95
2, 194400, Note_on_c, 0, 57, 95
2, 194880, Note_off_c, 0, 57, 95
2, 194880, Note_on_c, 0, 60, 95
2, 195360, Note_off_c, 0, 60, 95
2, 195360, Note_on_c, 0, 66, 95
2, 195360, Note_on_c, 0, 59, 95
2, 195840, Note_off_c, 0, 66, 95
2, 195840, Note_off_c, 0, 59, 95
2, 195840, Note_on_c, 0, 66, 95
2, 195840, Note_on_c, 0, 60, 95
2, 195840, Note_on_c, 0, 57, 95
2, 196800, Note_off_c, 0, 66, 95
2, 196800, Note_off_c, 0, 60, 95
2, 196800, Note_off_c, 0, 57, 95
2, 196800, Note_on_c, 0, 66, 95
2, 196800, Note_on_c, 0, 60, 95
2, 197280, Note_off_c, 0, 66, 95
2, 197280, Note_off_c, 0, 60, 95
2, 197280, Note_on_c, 0, 57, 95
2, 197760, Note_off_c, 0, 57, 95
2, 197760, Note_on_c, 0, 60, 95
2, 198240, Note_off_c, 0, 60, 95
2, 198240, Note_on_c, 0, 55, 95
2, 198720, Note_off_c, 0, 55, 95
2, 198720, Note_on_c, 0, 57, 95
2, 198720, Note_on_c, 0, 50, 95
2, 199200, Note_off_c, 0, 57, 95
2, 199200, Note_off_c, 0, 50, 95
2, 202080, Note_on_c, 0, 69, 95
2, 202560, Note_off_c, 0, 69, 95
2, 202560, Note_on_c, 0, 69, 95
2, 203040, Note_off_c, 0, 69, 95
2, 203040, Note_on_c, 0, 69, 95
2, 203040, Note_on_c, 0, 61, 95
2, 203520, Note_off_c, 0, 69, 95
2, 203520, Note_off_c, 0, 61, 95
2, 203520, Note_on_c, 0, 61, 95
2, 204000, Note_off_c, 0, 61, 95
2, 204000, Note_on_c, 0, 69, 47
2, 204000, Note_on_c, 0, 50, 95
2, 204480, Note_off_c, 0, 69, 47
2, 204480, Note_off_c, 0, 50, 95
2, 204960, Note_on_c, 0, 55, 95
2, 205200, Note_off_c, 0, 55, 95
2, 205200, Note_on_c, 0, 56, 70
2, 205440, Note_off_c, 0, 56, 70
2, 205440, Note_on_c, 0, 64, 95
2, 205680, Note_off_c, 0, 64, 95
2, 205680, Note_on_c, 0, 64, 47
2, 205920, Note_off_c, 0, 64, 47
2, 205920, Note_on_c, 0, 62, 95
2, 206400, Note_off_c, 0, 62, 95
2, 206400, Note_on_c, 0, 64, 95
2, 206880, Note_off_c, 0, 64, 95
2, 206880, Note_on_c, 0, 62, 95
2, 207240, Note_on_c, 1, 60, 95
2, 207360, Note_off_c, 0, 62, 95
2, 207360, Note_off_c, 1, 60, 95
2, 207360, Note_on_c, 1, 61, 95
2, 207840, Note_off_c, 1, 61, 95
2, 207840, Note_on_c, 0, 57, 95
2, 208320, Note_off_c, 0, 57, 95
2, 208320, Note_on_c, 0, 52, 95
2, 208320, Note_on_c, 0, 45, 95
2, 208800, Note_off_c, 0, 52, 95
2, 208800, Note_off_c, 0, 45, 95
2, 208800, Note_on_c, 0, 69, 95
2, 208800, Note_on_c, 0, 64, 95
2, 209280, Note_off_c, 0, 69, 95
2, 209280, Note_off_c, 0, 64, 95
2, 209760, Note_on_c, 0, 69, 95
2, 209760, Note_on_c, 0, 64, 95
2, 209760, Note_on_c, 0, 52, 95
2, 209760, Note_on_c, 0, 45, 95
2, 211200, Note_off_c, 0, 69, 95
2, 211200, Note_off_c, 0, 64, 95
2, 211200, Note_off_c, 0, 52, 95
2, 211200, Note_off_c, 0, 45, 95
2, 211200, Note_on_c, 0, 69, 95
2, 211200, Note_on_c, 0, 64, 95
2, 211200, Note_on_c, 0, 52, 95
2, 211200, Note_on_c, 0, 45, 95
2, 211680, Note_off_c, 0, 69, 95
2, 211680, Note_off_c, 0, 64, 95
2, 211680, Note_off_c, 0, 52, 95
2, 211680, Note_off_c, 0, 45, 95
2, 213120, Note_on_c, 0, 40, 95
2, 215040, Note_off_c, 0, 40, 95
2, 215040, Note_on_c, 0, 62, 95
2, 215520, Note_off_c, 0, 62, 95
2, 215520, Note_on_c, 0, 64, 95
2, 216000, Note_off_c, 0, 64, 95
2, 216000, Note_on_c, 0, 62, 95
2, 216480, Note_off_c, 0, 62, 95
2, 216480, Note_on_c, 0, 64, 95
2, 216960, Note_off_c, 0, 64, 95
2, 216960, Note_on_c, 0, 62, 95
2, 217440, Note_off_c, 0, 62, 95
2, 217440, Note_on_c, 0, 64, 95
2, 217920, Note_off_c, 0, 64, 95
2, 218400, Note_on_c, 0, 41, 95
2, 218880, Note_off_c, 0, 41, 95
2, 218880, Note_on_c, 0, 59, 95
2, 218880, Note_on_c, 0, 42, 95
2, 219360, Note_off_c, 0, 59, 95
2, 219360, Note_off_c, 0, 42, 95
2, 219360, Note_on_c, 0, 60, 95
2, 219840, Note_off_c, 0, 60, 95
2, 224160, Note_on_c, 0, 57, 95
2, 224640, Note_off_c, 0, 57, 95
2, 224640, Note_on_c, 0, 57, 47
2, 224640, Note_on_c, 0, 52, 95
2, 224640, Note_on_c, 0, 45, 95
2, 225480, Note_on_c, 1, 55, 95
2, 225600, Note_off_c, 0, 57, 47
2, 225600, Note_off_c, 0, 52, 95
2, 225600, Note_off_c, 0, 45, 95
2, 225600, Note_off_c, 1, 55, 95
2, 225600, Note_on_c, 1, 57, 95
2, 225960, Note_on_c, 1, 55, 95
2, 226080, Note_off_c, 1, 57, 95
2, 226080, Note_off_c, 1, 55, 95
2, 226080, Note_on_c, 1, 57, 95
2, 226800, Note_off_c, 1, 57, 95
2, 226800, Note_on_c, 0, 55, 70
2, 227040, Note_off_c, 0, 55, 70
2, 227040, Note_on_c, 0, 52, 95
2, 227520, Note_off_c, 0, 52, 95
2, 227520, Note_on_c, 0, 50, 95
2, 227680, Note_off_c, 0, 50, 95
2, 227680, Note_on_c, 0, 51, 70
2, 227840, Note_off_c, 0, 51, 70
2, 227840, Note_on_c, 0, 50, 70
2, 228000, Note_off_c, 0, 50, 70
2, 228000, Note_on_c, 0, 48, 95
2, 228240, Note_off_c, 0, 48, 95
2, 228240, Pitch_bend_c, 1, 8192
2, 228240, Note_on_c, 1, 48, 47
2, 228300, Pitch_bend_c, 1, 8320
2, 228360, Pitch_bend_c, 1, 8448
2, 228360, Pitch_bend_c, 1, 8448
2, 228480, Pitch_bend_c, 1, 8448
2, 228480, Pitch_bend_c, 1, 8192
2, 228480, Note_off_c, 1, 48, 47
2, 228480, Note_on_c, 0, 50, 95
2, 228960, Note_off_c, 0, 50, 95
2, 228960, Note_on_c, 0, 48, 95
2, 229200, Note_off_c, 0, 48, 95
2, 229200, Pitch_bend_c, 1, 8192
2, 229200, Note_on_c, 1, 48, 47
2, 229260, Pitch_bend_c, 1, 8320
2, 229320, Pitch_bend_c, 1, 8448
2, 229320, Pitch_bend_c, 1, 8448
2, 229440, Pitch_bend_c, 1, 8448
2, 229440, Pitch_bend_c, 1, 8192
2, 229440, Note_off_c, 1, 48, 47
2, 229440, Note_on_c, 0, 50, 95
2, 229920, Note_off_c, 0, 50, 95
2, 229920, Note_on_c, 0, 48, 95
2, 230160, Note_off_c, 0, 48, 95
2, 230160, Pitch_bend_c, 1, 8192
2, 230160, Note_on_c, 1, 48, 47
2, 230220, Pitch_bend_c, 1, 8320
2, 230280, Pitch_bend_c, 1, 8448
2, 230280, Pitch_bend_c, 1, 8448
2, 230400, Pitch_bend_c, 1, 8448
2, 230400, Pitch_bend_c, 1, 8192
2, 230400, Note_off_c, 1, 48, 47
2, 230400, Note_on_c, 0, 52, 95
2, 230400, Note_on_c, 0, 45, 95
2, 231360, Note_off_c, 0, 52, 95
2, 231360, Note_off_c, 0, 45, 95
2, 231360, Note_on_c, 0, 69, 95
2, 231360, Note_on_c, 0, 64, 95
2, 231360, Note_on_c, 0, 52, 95
2, 231840, Note_off_c, 0, 69, 95
2, 231840, Note_off_c, 0, 64, 95
2, 231840, Note_off_c, 0, 52, 95
2, 231840, Note_on_c, 0, 69, 95
2, 231840, Note_on_c, 0, 64, 95
2, 231840, Note_on_c, 0, 52, 95
2, 232320, Note_off_c, 0, 69, 95
2, 232320, Note_off_c, 0, 64, 95
2, 232320, Note_off_c, 0, 52, 95
2, 232320, Note_on_c, 0, 59, 95
2, 232320, Note_on_c, 0, 55, 95
2, 233280, Note_off_c, 0, 59, 95
2, 233280, Note_off_c, 0, 55, 95
2, 233280, Note_on_c, 1, 55, 95
2, 233440, Pitch_bend_c, 1, 8192
2, 233600, Pitch_bend_c, 1, 8320
2, 233760, Pitch_bend_c, 1, 8192
2, 233920, Pitch_bend_c, 1, 8320
2, 234080, Pitch_bend_c, 1, 8192
2, 234240, Pitch_bend_c, 1, 8320
2, 234240, Pitch_bend_c, 1, 8192
2, 234240, Note_off_c, 1, 55, 95
2, 234240, Note_on_c, 0, 64, 95
2, 234720, Note_off_c, 0, 64, 95
2, 240480, Note_on_c, 0, 57, 95
2, 240480, Note_on_c, 0, 52, 95
2, 240480, Note_on_c, 0, 45, 95
2, 240960, Note_off_c, 0, 57, 95
2, 240960, Note_off_c, 0, 52, 95
2, 240960, Note_off_c, 0, 45, 95
2, 241920, Note_on_c, 0, 52, 95
2, 241920, Note_on_c, 0, 45, 95
2, 242400, Note_off_c, 0, 52, 95
2, 242400, Note_off_c, 0, 45, 95
2, 246120, Note_on_c, 1, 62, 95
2, 246240, Note_off_c, 1, 62, 95
2, 246240, Note_on_c, 1, 64, 95
2, 246720, Note_off_c, 1, 64, 95
2, 246720, Note_on_c, 0, 67, 95
2, 247200, Note_off_c, 0, 67, 95
2, 247680, Note_on_c, 0, 57, 95
2, 247680, Note_on_c, 0, 45, 95
2, 248160, Note_off_c, 0, 57, 95
2, 248160, Note_off_c, 0, 45, 95
2, 261360, Note_on_c, 0, 60, 95
2, 262080, Note_off_c, 0, 60, 95
2, 262080, Note_on_c, 0, 57, 95
2, 262560, Note_off_c, 0, 57, 95
2, 262560, Note_on_c, 0, 66, 95
2, 263040, Note_off_c, 0, 66, 95
2, 263040, Note_on_c, 0, 57, 95
2, 263520, Note_off_c, 0, 57, 95
2, 263520, Note_on_c, 0, 66, 95
2, 264000, Note_off_c, 0, 66, 95
2, 264000, Note_on_c, 0, 60, 95
2, 264480, Note_off_c, 0, 60, 95
2, 264480, Note_on_c, 0, 57, 95
2, 264960, Note_off_c, 0, 57, 95
2, 264960, Note_on_c, 0, 66, 95
2, 265920, Note_off_c, 0, 66, 95
2, 265920, Note_on_c, 0, 57, 95
2, 266400, Note_off_c, 0, 57, 95
2, 266400, Note_on_c, 0, 66, 95
2, 267120, Note_off_c, 0, 66, 95
2, 267120, Note_on_c, 0, 66, 95
2, 267360, Note_off_c, 0, 66, 95
2, 267360, Note_on_c, 0, 57, 95
2, 269160, Note_on_c, 1, 50, 95
2, 269280, Note_off_c, 0, 57, 95
2, 269280, Note_on_c, 0, 57, 95
2, 269280, Note_off_c, 1, 50, 95
2, 269280, Note_on_c, 1, 50, 95
2, 270240, Note_off_c, 0, 57, 95
2, 270240, Note_off_c, 1, 50, 95
2, 270240, Note_on_c, 0, 45, 95
2, 270720, Note_off_c, 0, 45, 95
2, 270720, Note_on_c, 0, 57, 95
2, 271680, Note_off_c, 0, 57, 95
2, 271680, Note_on_c, 0, 69, 95
2, 271680, Note_on_c, 0, 45, 95
2, 272160, Note_off_c, 0, 69, 95
2, 272160, Note_off_c, 0, 45, 95
2, 272160, Note_on_c, 0, 69, 95
2, 272160, Note_on_c, 0, 45, 95
2, 272640, Note_off_c, 0, 69, 95
2, 272640, Note_off_c, 0, 45, 95
2, 272640, Note_on_c, 0, 61, 95
2, 273120, Note_off_c, 0, 61, 95
2, 273120, Note_on_c, 0, 45, 95
2, 273120, Note_on_c, 0, 40, 95
2, 273600, Note_off_c, 0, 45, 95
2, 273600, Note_off_c, 0, 40, 95
2, 274080, Note_on_c, 0, 55, 95
2, 274320, Note_off_c, 0, 55, 95
2, 274320, Note_on_c, 0, 56, 70
2, 274560, Note_off_c, 0, 56, 70
2, 274560, Note_on_c, 0, 64, 95
2, 275040, Note_off_c, 0, 64, 95
2, 275040, Note_on_c, 0, 62, 95
2, 275760, Note_off_c, 0, 62, 95
2, 275760, Note_on_c, 0, 64, 47
2, 276000, Note_off_c, 0, 64, 47
2, 276000, Note_on_c, 0, 62, 95
2, 276360, Note_on_c, 1, 60, 95
2, 276360, Note_on_c, 1, 45, 95
2, 276480, Note_off_c, 0, 62, 95
2, 276480, Note_off_c, 1, 60, 95
2, 276480, Note_on_c, 1, 61, 95
2, 276480, Note_off_c, 1, 45, 95
2, 276480, Note_on_c, 1, 45, 95
2, 276960, Note_off_c, 1, 61, 95
2, 276960, Note_off_c, 1, 45, 95
2, 276960, Note_on_c, 0, 45, 95
2, 277440, Note_off_c, 0, 45, 95
2, 277440, Note_on_c, 0, 45, 95
2, 277920, Note_off_c, 0, 45, 95
2, 277920, Note_on_c, 0, 69, 95
2, 277920, Note_on_c, 0, 64, 95
2, 277920, Note_on_c, 0, 45, 95
2, 278400, Note_off_c, 0, 69, 95
2, 278400, Note_off_c, 0, 64, 95
2, 278400, Note_off_c, 0, 45, 95
2, 278880, Note_on_c, 0, 69, 95
2, 278880, Note_on_c, 0, 64, 95
2, 278880, Note_on_c, 0, 45, 95
2, 282240, Note_off_c, 0, 69, 95
2, 282240, Note_off_c, 0, 64, 95
2, 282240, Note_off_c, 0, 45, 95
2, 282240, Note_on_c, 0, 55, 95
2, 282480, Note_off_c, 0, 55, 95
2, 282480, Note_on_c, 0, 56, 70
2, 283200, Note_off_c, 0, 56, 70
2, 283200, Note_on_c, 0, 40, 95
2, 283680, Note_off_c, 0, 40, 95
2, 283680, Note_on_c, 0, 62, 95
2, 284640, Note_off_c, 0, 62, 95
2, 284640, Note_on_c, 0, 64, 95
2, 284640, Note_on_c, 0, 62, 95
2, 286080, Note_off_c, 0, 64, 95
2, 286080, Note_off_c, 0, 62, 95
2, 286080, Note_on_c, 0, 62, 95
2, 286080, Note_on_c, 0, 56, 95
2, 286560, Note_off_c, 0, 62, 95
2, 286560, Note_off_c, 0, 56, 95
2, 286560, Note_on_c, 0, 56, 95
2, 286560, Note_on_c, 0, 50, 95
2, 287520, Note_off_c, 0, 56, 95
2, 287520, Note_off_c, 0, 50, 95
2, 288000, Note_on_c, 0, 57, 95
2, 288000, Note_on_c, 0, 50, 95
2, 288480, Note_off_c, 0, 57, 95
2, 288480, Note_off_c, 0, 50, 95
2, 288480, Note_on_c, 0, 60, 95
2, 288960, Note_off_c, 0, 60, 95
2, 289440, Note_on_c, 0, 57, 95
2, 290400, Note_off_c, 0, 57, 95
2, 290400, Note_on_c, 0, 60, 95
2, 290880, Note_off_c, 0, 60, 95
2, 290880, Note_on_c, 0, 60, 95
2, 290880, Note_on_c, 0, 57, 95
2, 291600, Note_off_c, 0, 60, 95
2, 291600, Note_off_c, 0, 57, 95
2, 291600, Note_on_c, 0, 64, 95
2, 291840, Note_off_c, 0, 64, 95
2, 291840, Note_on_c, 0, 60, 95
2, 292320, Note_off_c, 0, 60, 95
2, 292320, Note_on_c, 0, 57, 95
2, 292800, Note_off_c, 0, 57, 95
2, 293280, Note_on_c, 0, 57, 95
2, 293280, Note_on_c, 0, 52, 95
2, 293760, Note_off_c, 0, 57, 95
2, 293760, Note_off_c, 0, 52, 95
2, 293760, Note_on_c, 0, 52, 95
2, 293760, Note_on_c, 0, 45, 95
2, 294720, Note_off_c, 0, 52, 95
2, 294720, Note_off_c, 0, 45, 95
2, 294720, Note_on_c, 0, 69, 95
2, 294720, Note_on_c, 0, 64, 95
2, 295200, Note_off_c, 0, 69, 95
2, 295200, Note_off_c, 0, 64, 95
2, 295200, Note_on_c, 0, 67, 95
2, 295680, Note_off_c, 0, 67, 95
2, 295680, Note_on_c, 0, 64, 95
2, 295680, Note_on_c, 0, 59, 95
2, 296160, Note_off_c, 0, 64, 95
2, 296160, Note_off_c, 0, 59, 95
2, 296160, Note_on_c, 0, 67, 95
2, 296640, Note_off_c, 0, 67, 95
2, 296640, Note_on_c, 0, 66, 95
2, 297120, Note_off_c, 0, 66, 95
2, 297120, Note_on_c, 0, 64, 47
2, 297600, Note_off_c, 0, 64, 47
2, 297600, Note_on_c, 0, 66, 95
2, 298080, Note_off_c, 0, 66, 95
2, 298080, Note_on_c, 0, 62, 95
2, 299040, Note_off_c, 0, 62, 95
2, 299040, Note_on_c, 0, 62, 95
2, 299520, Note_off_c, 0, 62, 95
2, 299520, Pitch_bend_c, 1, 8192
2, 299520, Note_on_c, 1, 60, 95
2, 299568, Pitch_bend_c, 1, 8320
2, 299616, Pitch_bend_c, 1, 8448
2, 299664, Pitch_bend_c, 1, 8576
2, 299712, Pitch_bend_c, 1, 8704
2, 299760, Pitch_bend_c, 1, 8832
2, 299760, Pitch_bend_c, 1, 8832
2, 300000, Pitch_bend_c, 1, 8832
2, 300000, Pitch_bend_c, 1, 8192
2, 300000, Note_off_c, 1, 60, 95
2, 300000, Note_on_c, 0, 57, 95
2, 300480, Note_off_c, 0, 57, 95
2, 300480, Note_on_c, 0, 40, 95
2, 300960, Note_off_c, 0, 40, 95
2, 300960, Note_on_c, 0, 59, 47
2, 301320, Note_on_c, 1, 55, 95
2, 301440, Note_off_c, 0, 59, 47
2, 301440, Note_off_c, 1, 55, 95
2, 301440, Note_on_c, 1, 56, 95
2, 301920, Note_off_c, 1, 56, 95
2, 301920, Note_on_c, 0, 64, 95
2, 303360, Note_off_c, 0, 64, 95
2, 303360, Note_on_c, 0, 64, 95
2, 303840, Note_off_c, 0, 64, 95
2, 304320, Note_on_c, 1, 59, 95
2, 304440, Pitch_bend_c, 1, 9856
2, 304560, Pitch_bend_c, 1, 11648
2, 304560, Pitch_bend_c, 1, 8192
2, 304560, Note_off_c, 1, 59, 95
2, 304560, Note_on_c, 1, 64, 95
2, 304680, Pitch_bend_c, 1, 8192
2, 304800, Pitch_bend_c, 1, 8192
2, 304800, Pitch_bend_c, 1, 8192
2, 304800, Note_off_c, 1, 64, 95
2, 304800, Note_on_c, 0, 64, 95
2, 305280, Note_off_c, 0, 64, 95
2, 305280, Note_on_c, 1, 73, 95
2, 305280, Note_on_c, 1, 67, 95
2, 305280, Note_on_c, 1, 64, 95
2, 305440, Pitch_bend_c, 1, 8192
2, 305440, Pitch_bend_c, 1, 8192
2, 305440, Pitch_bend_c, 1, 8192
2, 305600, Pitch_bend_c, 1, 8320
2, 305600, Pitch_bend_c, 1, 8320
2, 305600, Pitch_bend_c, 1, 8320
2, 305760, Pitch_bend_c, 1, 8192
2, 305760, Pitch_bend_c, 1, 8320
2, 305760, Pitch_bend_c, 1, 8192
2, 305760, Note_off_c, 1, 73, 95
2, 305760, Pitch_bend_c, 1, 8192
2, 305760, Pitch_bend_c, 1, 8320
2, 305760, Pitch_bend_c, 1, 8192
2, 305760, Note_off_c, 1, 67, 95
2, 305760, Pitch_bend_c, 1, 8192
2, 305760, Pitch_bend_c, 1, 8320
2, 305760, Pitch_bend_c, 1, 8192
2, 305760, Note_off_c, 1, 64, 95
2, 305760, Note_on_c, 1, 73, 95
2, 305760, Note_on_c, 1, 67, 95
2, 305920, Pitch_bend_c, 1, 8192
2, 305920, Pitch_bend_c, 1, 8192
2, 306080, Pitch_bend_c, 1, 8320
2, 306080, Pitch_bend_c, 1, 8320
2, 306240, Pitch_bend_c, 1, 8192
2, 306240, Pitch_bend_c, 1, 8320
2, 306240, Pitch_bend_c, 1, 8192
2, 306240, Note_off_c, 1, 73, 95
2, 306240, Pitch_bend_c, 1, 8192
2, 306240, Pitch_bend_c, 1, 8320
2, 306240, Pitch_bend_c, 1, 8192
2, 306240, Note_off_c, 1, 67, 95
2, 306240, Note_on_c, 1, 73, 95
2, 306240, Note_on_c, 1, 67, 95
2, 306400, Pitch_bend_c, 1, 8192
2, 306400, Pitch_bend_c, 1, 8192
2, 306560, Pitch_bend_c, 1, 8320
2, 306560, Pitch_bend_c, 1, 8320
2, 306720, Pitch_bend_c, 1, 8192
2, 306720, Pitch_bend_c, 1, 8320
2, 306720, Pitch_bend_c, 1, 8192
2, 306720, Note_off_c, 1, 73, 95
2, 306720, Pitch_bend_c, 1, 8192
2, 306720, Pitch_bend_c, 1, 8320
2, 306720, Pitch_bend_c, 1, 8192
2, 306720, Note_off_c, 1, 67, 95
2, 306720, Note_on_c, 1, 73, 95
2, 306720, Note_on_c, 1, 67, 95
2, 306720, Note_on_c, 1, 64, 95
2, 306880, Pitch_bend_c, 1, 8192
2, 306880, Pitch_bend_c, 1, 8192
2, 306880, Pitch_bend_c, 1, 8192
2, 307040, Pitch_bend_c, 1, 8320
2, 307040, Pitch_bend_c, 1, 8320
2, 307040, Pitch_bend_c, 1, 8320
2, 307200, Pitch_bend_c, 1, 8192
2, 307200, Pitch_bend_c, 1, 8192
2, 307200, Pitch_bend_c, 1, 8192
2, 307360, Pitch_bend_c, 1, 8320
2, 307360, Pitch_bend_c, 1, 8320
2, 307360, Pitch_bend_c, 1, 8320
2, 307520, Pitch_bend_c, 1, 8192
2, 307520, Pitch_bend_c, 1, 8192
2, 307520, Pitch_bend_c, 1, 8192
2, 307680, Pitch_bend_c, 1, 8320
2, 307680, Pitch_bend_c, 1, 8192
2, 307680, Note_off_c, 1, 73, 95
2, 307680, Pitch_bend_c, 1, 8320
2, 307680, Pitch_bend_c, 1, 8192
2, 307680, Note_off_c, 1, 67, 95
2, 307680, Pitch_bend_c, 1, 8320
2, 307680, Pitch_bend_c, 1, 8192
2, 307680, Note_off_c, 1, 64, 95
2, 307680, Note_on_c, 1, 73, 95
2, 307680, Note_on_c, 1, 67, 95
2, 307680, Note_on_c, 1, 64, 95
2, 307840, Pitch_bend_c, 1, 8192
2, 307840, Pitch_bend_c, 1, 8192
2, 307840, Pitch_bend_c, 1, 8192
2, 308000, Pitch_bend_c, 1, 8320
2, 308000, Pitch_bend_c, 1, 8320
2, 308000, Pitch_bend_c, 1, 8320
2, 308160, Pitch_bend_c, 1, 8192
2, 308160, Pitch_bend_c, 1, 8320
2, 308160, Pitch_bend_c, 1, 8192
2, 308160, Note_off_c, 1, 73, 95
2, 308160, Pitch_bend_c, 1, 8192
2, 308160, Pitch_bend_c, 1, 8320
2, 308160, Pitch_bend_c, 1, 8192
2, 308160, Note_off_c, 1, 67, 95
2, 308160, Pitch_bend_c, 1, 8192
2, 308160, Pitch_bend_c, 1, 8320
2, 308160, Pitch_bend_c, 1, 8192
2, 308160, Note_off_c, 1, 64, 95
2, 308160, Note_on_c, 1, 73, 95
2, 308160, Note_on_c, 1, 67, 95
2, 308160, Note_on_c, 1, 64, 95
2, 308320, Pitch_bend_c, 1, 8192
2, 308320, Pitch_bend_c, 1, 8192
2, 308320, Pitch_bend_c, 1, 8192
2, 308480, Pitch_bend_c, 1, 8320
2, 308480, Pitch_bend_c, 1, 8320
2, 308480, Pitch_bend_c, 1, 8320
2, 308640, Pitch_bend_c, 1, 8192
2, 308640, Pitch_bend_c, 1, 8320
2, 308640, Pitch_bend_c, 1, 8192
2, 308640, Note_off_c, 1, 73, 95
2, 308640, Pitch_bend_c, 1, 8192
2, 308640, Pitch_bend_c, 1, 8320
2, 308640, Pitch_bend_c, 1, 8192
2, 308640, Note_off_c, 1, 67, 95
2, 308640, Pitch_bend_c, 1, 8192
2, 308640, Pitch_bend_c, 1, 8320
2, 308640, Pitch_bend_c, 1, 8192
2, 308640, Note_off_c, 1, 64, 95
2, 308640, Note_on_c, 1, 73, 95
2, 308640, Note_on_c, 1, 67, 95
2, 308640, Note_on_c, 1, 64, 95
2, 308800, Pitch_bend_c, 1, 8192
2, 308800, Pitch_bend_c, 1, 8192
2, 308800, Pitch_bend_c, 1, 8192
2, 308960, Pitch_bend_c, 1, 8320
2, 308960, Pitch_bend_c, 1, 8320
2, 308960, Pitch_bend_c, 1, 8320
2, 309120, Pitch_bend_c, 1, 8192
2, 309120, Pitch_bend_c, 1, 8320
2, 309120, Pitch_bend_c, 1, 8192
2, 309120, Note_off_c, 1, 73, 95
2, 309120, Pitch_bend_c, 1, 8192
2, 309120, Pitch_bend_c, 1, 8320
2, 309120, Pitch_bend_c, 1, 8192
2, 309120, Note_off_c, 1, 67, 95
2, 309120, Pitch_bend_c, 1, 8192
2, 309120, Pitch_bend_c, 1, 8320
2, 309120, Pitch_bend_c, 1, 8192
2, 309120, Note_off_c, 1, 64, 95
2, 309120, Note_on_c, 1, 73, 95
2, 309120, Note_on_c, 1, 67, 95
2, 309120, Note_on_c, 1, 64, 95
2, 309280, Pitch_bend_c, 1, 8192
2, 309280, Pitch_bend_c, 1, 8192
2, 309280, Pitch_bend_c, 1, 8192
2, 309440, Pitch_bend_c, 1, 8320
2, 309440, Pitch_bend_c, 1, 8320
2, 309440, Pitch_bend_c, 1, 8320
2, 309600, Pitch_bend_c, 1, 8192
2, 309600, Pitch_bend_c, 1, 8320
2, 309600, Pitch_bend_c, 1, 8192
2, 309600, Note_off_c, 1, 73, 95
2, 309600, Pitch_bend_c, 1, 8192
2, 309600, Pitch_bend_c, 1, 8320
2, 309600, Pitch_bend_c, 1, 8192
2, 309600, Note_off_c, 1, 67, 95
2, 309600, Pitch_bend_c, 1, 8192
2, 309600, Pitch_bend_c, 1, 8320
2, 309600, Pitch_bend_c, 1, 8192
2, 309600, Note_off_c, 1, 64, 95
2, 309600, Note_on_c, 1, 73, 95
2, 309600, Note_on_c, 1, 67, 95
2, 309600, Note_on_c, 1, 64, 95
2, 309760, Pitch_bend_c, 1, 8192
2, 309760, Pitch_bend_c, 1, 8192
2, 309760, Pitch_bend_c, 1, 8192
2, 309920, Pitch_bend_c, 1, 8320
2, 309920, Pitch_bend_c, 1, 8320
2, 309920, Pitch_bend_c, 1, 8320
2, 310080, Pitch_bend_c, 1, 8192
2, 310080, Pitch_bend_c, 1, 8320
2, 310080, Pitch_bend_c, 1, 8192
2, 310080, Note_off_c, 1, 73, 95
2, 310080, Pitch_bend_c, 1, 8192
2, 310080, Pitch_bend_c, 1, 8320
2, 310080, Pitch_bend_c, 1, 8192
2, 310080, Note_off_c, 1, 67, 95
2, 310080, Pitch_bend_c, 1, 8192
2, 310080, Pitch_bend_c, 1, 8320
2, 310080, Pitch_bend_c, 1, 8192
2, 310080, Note_off_c, 1, 64, 95
2, 310080, Note_on_c, 1, 73, 47
2, 310080, Note_on_c, 1, 67, 47
2, 310240, Pitch_bend_c, 1, 8192
2, 310240, Pitch_bend_c, 1, 8192
2, 310400, Pitch_bend_c, 1, 8320
2, 310400, Pitch_bend_c, 1, 8320
2, 310560, Pitch_bend_c, 1, 8192
2, 310560, Pitch_bend_c, 1, 8320
2, 310560, Pitch_bend_c, 1, 8192
2, 310560, Note_off_c, 1, 73, 47
2, 310560, Pitch_bend_c, 1, 8192
2, 310560, Pitch_bend_c, 1, 8320
2, 310560, Pitch_bend_c, 1, 8192
2, 310560, Note_off_c, 1, 67, 47
2, 310560, Note_on_c, 1, 73, 95
2, 310560, Note_on_c, 1, 67, 95
2, 310560, Note_on_c, 1, 64, 95
2, 310720, Pitch_bend_c, 1, 8192
2, 310720, Pitch_bend_c, 1, 8192
2, 310720, Pitch_bend_c, 1, 8192
2, 310880, Pitch_bend_c, 1, 8320
2, 310880, Pitch_bend_c, 1, 8320
2, 310880, Pitch_bend_c, 1, 8320
2, 311040, Pitch_bend_c, 1, 8192
2, 311040, Pitch_bend_c, 1, 8320
2, 311040, Pitch_bend_c, 1, 8192
2, 311040, Note_off_c, 1, 73, 95
2, 311040, Pitch_bend_c, 1, 8192
2, 311040, Pitch_bend_c, 1, 8320
2, 311040, Pitch_bend_c, 1, 8192
2, 311040, Note_off_c, 1, 67, 95
2, 311040, Pitch_bend_c, 1, 8192
2, 311040, Pitch_bend_c, 1, 8320
2, 311040, Pitch_bend_c, 1, 8192
2, 311040, Note_off_c, 1, 64, 95
2, 311040, Note_on_c, 0, 62, 95
2, 311520, Note_off_c, 0, 62, 95
2, 311520, Note_on_c, 0, 71, 95
2, 312000, Note_off_c, 0, 71, 95
2, 312000, Note_on_c, 0, 62, 95
2, 312480, Note_off_c, 0, 62, 95
2, 312480, Note_on_c, 0, 62, 95
2, 312960, Note_off_c, 0, 62, 95
2, 312960, Note_on_c, 0, 71, 95
2, 313440, Note_off_c, 0, 71, 95
2, 313440, Note_on_c, 0, 62, 95
2, 313920, Note_off_c, 0, 62, 95
2, 313920, Note_on_c, 0, 60, 95
2, 314400, Note_off_c, 0, 60, 95
2, 314400, Pitch_bend_c, 1, 8192
2, 314400, Note_on_c, 1, 60, 95
2, 314520, Pitch_bend_c, 1, 8320
2, 314640, Pitch_bend_c, 1, 8448
2, 314640, Pitch_bend_c, 1, 8448
2, 314880, Pitch_bend_c, 1, 8448
2, 314880, Pitch_bend_c, 1, 8192
2, 314880, Note_off_c, 1, 60, 95
2, 314880, Note_on_c, 0, 69, 95
2, 315360, Note_off_c, 0, 69, 95
2, 315360, Note_on_c, 0, 57, 95
2, 315840, Note_off_c, 0, 57, 95
2, 315840, Note_on_c, 1, 57, 95
2, 315960, Pitch_bend_c, 1, 10624
2, 316080, Pitch_bend_c, 1, 13056
2, 316080, Pitch_bend_c, 1, 8192
2, 316080, Note_off_c, 1, 57, 95
2, 316080, Note_on_c, 0, 64, 95
2, 316320, Note_off_c, 0, 64, 95
2, 316320, Note_on_c, 0, 64, 95
2, 316800, Note_off_c, 0, 64, 95
2, 316800, Note_on_c, 1, 73, 95
2, 316800, Note_on_c, 1, 67, 95
2, 316960, Pitch_bend_c, 1, 8192
2, 316960, Pitch_bend_c, 1, 8192
2, 317120, Pitch_bend_c, 1, 8320
2, 317120, Pitch_bend_c, 1, 8320
2, 317280, Pitch_bend_c, 1, 8192
2, 317280, Pitch_bend_c, 1, 8192
2, 317440, Pitch_bend_c, 1, 8320
2, 317440, Pitch_bend_c, 1, 8320
2, 317600, Pitch_bend_c, 1, 8192
2, 317600, Pitch_bend_c, 1, 8192
2, 317760, Pitch_bend_c, 1, 8320
2, 317760, Pitch_bend_c, 1, 8192
2, 317760, Note_off_c, 1, 73, 95
2, 317760, Pitch_bend_c, 1, 8320
2, 317760, Pitch_bend_c, 1, 8192
2, 317760, Note_off_c, 1, 67, 95
2, 317760, Note_on_c, 0, 73, 95
2, 317760, Note_on_c, 0, 67, 95
2, 317760, Note_on_c, 0, 64, 95
2, 318240, Note_off_c, 0, 73, 95
2, 318240, Note_off_c, 0, 67, 95
2, 318240, Note_off_c, 0, 64, 95
2, 318240, Note_on_c, 0, 73, 95
2, 318240, Note_on_c, 0, 67, 95
2, 318240, Note_on_c, 0, 64, 95
2, 319200, Note_off_c, 0, 73, 95
2, 319200, Note_off_c, 0, 67, 95
2, 319200, Note_off_c, 0, 64, 95
2, 319200, Note_on_c, 0, 73, 95
2, 319200, Note_on_c, 0, 67, 95
2, 319200, Note_on_c, 0, 64, 95
2, 319680, Note_off_c, 0, 73, 95
2, 319680, Note_off_c, 0, 67, 95
2, 319680, Note_off_c, 0, 64, 95
2, 319680, Note_on_c, 0, 73, 95
2, 319680, Note_on_c, 0, 67, 95
2, 319680, Note_on_c, 0, 64, 95
2, 320640, Note_off_c, 0, 73, 95
2, 320640, Note_off_c, 0, 67, 95
2, 320640, Note_off_c, 0, 64, 95
2, 320640, Note_on_c, 0, 73, 95
2, 320640, Note_on_c, 0, 67, 95
2, 320640, Note_on_c, 0, 64, 95
2, 321120, Note_off_c, 0, 73, 95
2, 321120, Note_off_c, 0, 67, 95
2, 321120, Note_off_c, 0, 64, 95
2, 321120, Note_on_c, 0, 73, 95
2, 321120, Note_on_c, 0, 67, 95
2, 321120, Note_on_c, 0, 64, 95
2, 322440, Note_on_c, 1, 66, 95
2, 322440, Note_on_c, 1, 63, 95
2, 322560, Note_off_c, 0, 73, 95
2, 322560, Note_off_c, 0, 67, 95
2, 322560, Note_off_c, 0, 64, 95
2, 322560, Note_off_c, 1, 66, 95
2, 322560, Note_on_c, 1, 67, 95
2, 322560, Note_off_c, 1, 63, 95
2, 322560, Note_on_c, 1, 64, 95
2, 323040, Note_off_c, 1, 67, 95
2, 323040, Note_off_c, 1, 64, 95
2, 323040, Note_on_c, 0, 73, 95
2, 324000, Note_off_c, 0, 73, 95
2, 324000, Note_on_c, 0, 62, 95
2, 324480, Note_off_c, 0, 62, 95
2, 324480, Note_on_c, 0, 71, 95
2, 324960, Note_off_c, 0, 71, 95
2, 324960, Note_on_c, 0, 62, 95
2, 325440, Note_off_c, 0, 62, 95
2, 325440, Pitch_bend_c, 1, 8192
2, 325440, Note_on_c, 1, 60, 95
2, 325536, Pitch_bend_c, 1, 8320
2, 325632, Pitch_bend_c, 1, 8448
2, 325728, Pitch_bend_c, 1, 8576
2, 325824, Pitch_bend_c, 1, 8704
2, 325920, Pitch_bend_c, 1, 8832
2, 325920, Pitch_bend_c, 1, 8832
2, 326400, Pitch_bend_c, 1, 8832
2, 326400, Pitch_bend_c, 1, 8192
2, 326400, Note_off_c, 1, 60, 95
2, 326400, Note_on_c, 0, 69, 95
2, 326880, Note_off_c, 0, 69, 95
2, 326880, Pitch_bend_c, 1, 8192
2, 326880, Note_on_c, 1, 60, 95
2, 326928, Pitch_bend_c, 1, 8320
2, 326976, Pitch_bend_c, 1, 8448
2, 327024, Pitch_bend_c, 1, 8576
2, 327072, Pitch_bend_c, 1, 8704
2, 327120, Pitch_bend_c, 1, 8832
2, 327120, Pitch_bend_c, 1, 8832
2, 327360, Pitch_bend_c, 1, 8832
2, 327360, Pitch_bend_c, 1, 8192
2, 327360, Note_off_c, 1, 60, 95
2, 327360, Note_on_c, 0, 69, 95
2, 327600, Note_off_c, 0, 69, 95
2, 327600, Pitch_bend_c, 1, 8832
2, 327600, Note_on_c, 1, 60, 95
2, 327760, Pitch_bend_c, 1, 8832
2, 327792, Pitch_bend_c, 1, 8704
2, 327824, Pitch_bend_c, 1, 8576
2, 327856, Pitch_bend_c, 1, 8448
2, 327888, Pitch_bend_c, 1, 8320
2, 327920, Pitch_bend_c, 1, 8192
2, 327920, Pitch_bend_c, 1, 8192
2, 328080, Pitch_bend_c, 1, 8192
2, 328080, Pitch_bend_c, 1, 8192
2, 328080, Note_off_c, 1, 60, 95
2, 328080, Note_on_c, 0, 60, 47
2, 328320, Note_off_c, 0, 60, 47
2, 328320, Note_on_c, 1, 57, 95
2, 328480, Pitch_bend_c, 1, 8192
2, 328640, Pitch_bend_c, 1, 8320
2, 328800, Pitch_bend_c, 1, 8192
2, 328960, Pitch_bend_c, 1, 8320
2, 329040, Pitch_bend_c, 1, 8192
2, 329040, Pitch_bend_c, 1, 8320
2, 329040, Pitch_bend_c, 1, 8192
2, 329040, Note_off_c, 1, 57, 95
2, 329040, Note_on_c, 0, 69, 95
2, 329040, Note_on_c, 0, 64, 95
2, 329040, Pitch_bend_c, 1, 8192
2, 329040, Note_on_c, 1, 62, 95
2, 329072, Pitch_bend_c, 1, 8320
2, 329104, Pitch_bend_c, 1, 8448
2, 329136, Pitch_bend_c, 1, 8576
2, 329168, Pitch_bend_c, 1, 8704
2, 329200, Pitch_bend_c, 1, 8832
2, 329232, Pitch_bend_c, 1, 8960
2, 329264, Pitch_bend_c, 1, 9088
2, 329296, Pitch_bend_c, 1, 9216
2, 329328, Pitch_bend_c, 1, 9344
2, 329360, Pitch_bend_c, 1, 9472
2, 329392, Pitch_bend_c, 1, 9600
2, 329400, Pitch_bend_c, 1, 9600
2, 329760, Note_off_c, 0, 69, 95
2, 329760, Note_off_c, 0, 64, 95
2, 329760, Pitch_bend_c, 1, 9600
2, 329760, Pitch_bend_c, 1, 8192
2, 329760, Note_off_c, 1, 62, 95
2, 329760, Note_on_c, 0, 69, 95
2, 329760, Note_on_c, 0, 64, 95
2, 329760, Note_on_c, 0, 62, 95
2, 330480, Note_off_c, 0, 69, 95
2, 330480, Note_off_c, 0, 64, 95
2, 330480, Note_off_c, 0, 62, 95
2, 330480, Note_on_c, 0, 60, 95
2, 330720, Note_off_c, 0, 60, 95
2, 330720, Note_on_c, 0, 57, 95
2, 331200, Note_off_c, 0, 57, 95
2, 331200, Note_on_c, 1, 57, 95
2, 331360, Pitch_bend_c, 1, 8192
2, 331520, Pitch_bend_c, 1, 8320
2, 331680, Pitch_bend_c, 1, 8192
2, 331840, Pitch_bend_c, 1, 8320
2, 332000, Pitch_bend_c, 1, 8192
2, 332160, Pitch_bend_c, 1, 8320
2, 332320, Pitch_bend_c, 1, 8192
2, 332480, Pitch_bend_c, 1, 8320
2, 332640, Pitch_bend_c, 1, 8192
2, 332800, Pitch_bend_c, 1, 8320
2, 332960, Pitch_bend_c, 1, 8192
2, 333120, Pitch_bend_c, 1, 8320
2, 333280, Pitch_bend_c, 1, 8192
2, 333440, Pitch_bend_c, 1, 8320
2, 333600, Pitch_bend_c, 1, 8192
2, 333760, Pitch_bend_c, 1, 8320
2, 333920, Pitch_bend_c, 1, 8192
2, 334080, Pitch_bend_c, 1, 8320
2, 334080, Pitch_bend_c, 1, 8192
2, 334080, Note_off_c, 1, 57, 95
2, 334560, Pitch_bend_c, 1, 8192
2, 334560, Note_on_c, 1, 62, 95
2, 334581, Pitch_bend_c, 1, 8320
2, 334602, Pitch_bend_c, 1, 8448
2, 334623, Pitch_bend_c, 1, 8576
2, 334644, Pitch_bend_c, 1, 8704
2, 334665, Pitch_bend_c, 1, 8832
2, 334686, Pitch_bend_c, 1, 8960
2, 334707, Pitch_bend_c, 1, 9088
2, 334728, Pitch_bend_c, 1, 9216
2, 334749, Pitch_bend_c, 1, 9344
2, 334770, Pitch_bend_c, 1, 9472
2, 334791, Pitch_bend_c, 1, 9600
2, 334800, Pitch_bend_c, 1, 9600
2, 335040, Pitch_bend_c, 1, 9600
2, 335040, Pitch_bend_c, 1, 8192
2, 335040, Note_off_c, 1, 62, 95
2, 335040, Pitch_bend_c, 1, 8192
2, 335040, Note_on_c, 1, 62, 95
2, 335061, Pitch_bend_c, 1, 8320
2, 335082, Pitch_bend_c, 1, 8448
2, 335103, Pitch_bend_c, 1, 8576
2, 335124, Pitch_bend_c, 1, 8704
2, 335145, Pitch_bend_c, 1, 8832
2, 335166, Pitch_bend_c, 1, 8960
2, 335187, Pitch_bend_c, 1, 9088
2, 335208, Pitch_bend_c, 1, 9216
2, 335229, Pitch_bend_c, 1, 9344
2, 335250, Pitch_bend_c, 1, 9472
2, 335271, Pitch_bend_c, 1, 9600
2, 335280, Pitch_bend_c, 1, 9600
2, 335520, Pitch_bend_c, 1, 9600
2, 335520, Pitch_bend_c, 1, 8192
2, 335520, Note_off_c, 1, 62, 95
2, 335520, Pitch_bend_c, 1, 8192
2, 335520, Note_on_c, 1, 62, 95
2, 335541, Pitch_bend_c, 1, 8320
2, 335562, Pitch_bend_c, 1, 8448
2, 335583, Pitch_bend_c, 1, 8576
2, 335604, Pitch_bend_c, 1, 8704
2, 335625, Pitch_bend_c, 1, 8832
2, 335646, Pitch_bend_c, 1, 8960
2, 335667, Pitch_bend_c, 1, 9088
2, 335688, Pitch_bend_c, 1, 9216
2, 335709, Pitch_bend_c, 1, 9344
2, 335730, Pitch_bend_c, 1, 9472
2, 335751, Pitch_bend_c, 1, 9600
2, 335760, Pitch_bend_c, 1, 9600
2, 336000, Pitch_bend_c, 1, 9600
2, 336000, Pitch_bend_c, 1, 8192
2, 336000, Note_off_c, 1, 62, 95
2, 336000, Pitch_bend_c, 1, 8192
2, 336000, Note_on_c, 1, 62, 95
2, 336012, Pitch_bend_c, 1, 8320
2, 336024, Pitch_bend_c, 1, 8448
2, 336036, Pitch_bend_c, 1, 8576
2, 336048, Pitch_bend_c, 1, 8704
2, 336060, Pitch_bend_c, 1, 8832
2, 336060, Pitch_bend_c, 1, 8832
2, 336120, Pitch_bend_c, 1, 8832
2, 336132, Pitch_bend_c, 1, 8704
2, 336144, Pitch_bend_c, 1, 8576
2, 336156, Pitch_bend_c, 1, 8448
2, 336168, Pitch_bend_c, 1, 8320
2, 336180, Pitch_bend_c, 1, 8192
2, 336180, Pitch_bend_c, 1, 8192
2, 336240, Pitch_bend_c, 1, 8192
2, 336240, Pitch_bend_c, 1, 8192
2, 336240, Note_off_c, 1, 62, 95
2, 336240, Note_on_c, 0, 62, 47
2, 336480, Note_off_c, 0, 62, 47
2, 336480, Pitch_bend_c, 1, 8448
2, 336480, Note_on_c, 1, 62, 95
2, 336560, Pitch_bend_c, 1, 8448
2, 336600, Pitch_bend_c, 1, 8320
2, 336640, Pitch_bend_c, 1, 8192
2, 336640, Pitch_bend_c, 1, 8192
2, 336720, Pitch_bend_c, 1, 8192
2, 336720, Pitch_bend_c, 1, 8192
2, 336720, Note_off_c, 1, 62, 95
2, 336720, Note_on_c, 0, 62, 47
2, 336960, Note_off_c, 0, 62, 47
2, 336960, Note_on_c, 0, 62, 95
2, 337680, Note_off_c, 0, 62, 95
2, 337680, Note_on_c, 0, 60, 70
2, 337920, Note_off_c, 0, 60, 70
2, 337920, Note_on_c, 0, 57, 95
2, 338400, Note_off_c, 0, 57, 95
2, 338400, Pitch_bend_c, 1, 8192
2, 338400, Note_on_c, 1, 60, 95
2, 338520, Pitch_bend_c, 1, 8320
2, 338640, Pitch_bend_c, 1, 8448
2, 338640, Pitch_bend_c, 1, 8448
2, 338760, Note_on_c, 1, 50, 95
2, 338880, Pitch_bend_c, 1, 8448
2, 338880, Pitch_bend_c, 1, 8192
2, 338880, Note_off_c, 1, 60, 95
2, 338880, Note_on_c, 1, 55, 47
2, 338880, Note_off_c, 1, 50, 95
2, 338880, Note_on_c, 1, 50, 95
2, 339040, Pitch_bend_c, 1, 8192
2, 339040, Pitch_bend_c, 1, 8192
2, 339200, Pitch_bend_c, 1, 8320
2, 339200, Pitch_bend_c, 1, 8320
2, 339360, Pitch_bend_c, 1, 8192
2, 339360, Pitch_bend_c, 1, 8320
2, 339360, Pitch_bend_c, 1, 8192
2, 339360, Note_off_c, 1, 55, 47
2, 339360, Pitch_bend_c, 1, 8192
2, 339360, Pitch_bend_c, 1, 8320
2, 339360, Pitch_bend_c, 1, 8192
2, 339360, Note_off_c, 1, 50, 95
2, 339360, Pitch_bend_c, 1, 8192
2, 339360, Note_on_c, 1, 60, 47
2, 339480, Pitch_bend_c, 1, 8320
2, 339600, Pitch_bend_c, 1, 8448
2, 339600, Pitch_bend_c, 1, 8448
2, 339840, Pitch_bend_c, 1, 8448
2, 339840, Pitch_bend_c, 1, 8192
2, 339840, Note_off_c, 1, 60, 47
2, 339840, Note_on_c, 0, 57, 47
2, 341160, Note_on_c, 1, 60, 95
2, 341280, Note_off_c, 0, 57, 47
2, 341280, Note_off_c, 1, 60, 95
2, 341280, Note_on_c, 1, 61, 95
2, 341760, Note_off_c, 1, 61, 95
2, 341760, Note_on_c, 0, 64, 95
2, 342240, Note_off_c, 0, 64, 95
2, 342240, Note_on_c, 0, 69, 95
2, 342240, Note_on_c, 0, 64, 95
2, 342720, Note_off_c, 0, 69, 95
2, 342720, Note_off_c, 0, 64, 95
2, 342720, Note_on_c, 0, 67, 95
2, 343200, Note_off_c, 0, 67, 95
2, 343200, Note_on_c, 0, 64, 95
2, 343680, Note_off_c, 0, 64, 95
2, 343680, Note_on_c, 0, 66, 95
2, 344160, Note_off_c, 0, 66, 95
2, 344160, Note_on_c, 0, 62, 95
2, 344640, Note_off_c, 0, 62, 95
2, 344640, Note_on_c, 0, 64, 95
2, 345000, Note_on_c, 1, 50, 95
2, 345120, Note_off_c, 0, 64, 95
2, 345120, Note_on_c, 0, 60, 95
2, 345120, Note_off_c, 1, 50, 95
2, 345120, Note_on_c, 1, 50, 95
2, 345600, Note_off_c, 0, 60, 95
2, 345600, Note_off_c, 1, 50, 95
2, 345600, Note_on_c, 0, 61, 95
2, 346080, Note_off_c, 0, 61, 95
2, 346080, Note_on_c, 0, 57, 95
2, 346560, Note_off_c, 0, 57, 95
2, 346560, Note_on_c, 0, 45, 95
2, 346920, Note_on_c, 1, 45, 95
2, 347040, Note_off_c, 0, 45, 95
2, 347040, Note_on_c, 0, 57, 95
2, 347040, Note_off_c, 1, 45, 95
2, 347040, Note_on_c, 1, 45, 95
2, 348000, Note_off_c, 0, 57, 95
2, 348000, Note_off_c, 1, 45, 95
2, 348000, Note_on_c, 0, 69, 95
2, 348000, Note_on_c, 0, 64, 95
2, 348000, Note_on_c, 0, 61, 95
2, 348480, Note_off_c, 0, 69, 95
2, 348480, Note_off_c, 0, 64, 95
2, 348480, Note_off_c, 0, 61, 95
2, 348480, Note_on_c, 0, 69, 95
2, 348480, Note_on_c, 0, 64, 95
2, 348480, Note_on_c, 0, 61, 95
2, 348480, Note_on_c, 0, 57, 95
2, 348480, Note_on_c, 0, 45, 95
2, 349920, Note_off_c, 0, 69, 95
2, 349920, Note_off_c, 0, 64, 95
2, 349920, Note_off_c, 0, 61, 95
2, 349920, Note_off_c, 0, 57, 95
2, 349920, Note_off_c, 0, 45, 95
2, 349920, Note_on_c, 0, 64, 95
2, 349920, Note_on_c, 0, 61, 95
2, 349920, Note_on_c, 0, 57, 95
2, 350400, Note_off_c, 0, 64, 95
2, 350400, Note_off_c, 0, 61, 95
2, 350400, Note_off_c, 0, 57, 95
2, 350400, Note_on_c, 0, 69, 95
2, 350400, Note_on_c, 0, 67, 95
2, 350880, Note_off_c, 0, 69, 95
2, 350880, Note_off_c, 0, 67, 95
2, 350880, Note_on_c, 0, 64, 95
2, 351240, Note_on_c, 1, 69, 95
2, 351240, Note_on_c, 1, 64, 95
2, 351360, Note_off_c, 0, 64, 95
2, 351360, Note_off_c, 1, 69, 95
2, 351360, Note_on_c, 1, 64, 95
2, 351360, Note_off_c, 1, 64, 95
2, 351360, Note_on_c, 1, 66, 95
2, 351840, Note_off_c, 1, 64, 95
2, 351840, Note_off_c, 1, 66, 95
2, 351840, Note_on_c, 0, 62, 95
2, 352320, Note_off_c, 0, 62, 95
2, 352320, Note_on_c, 0, 69, 95
2, 352320, Note_on_c, 0, 64, 95
2, 352800, Note_off_c, 0, 69, 95
2, 352800, Note_off_c, 0, 64, 95
2, 352800, Pitch_bend_c, 1, 8192
2, 352800, Note_on_c, 1, 60, 95
2, 352848, Pitch_bend_c, 1, 8320
2, 352896, Pitch_bend_c, 1, 8448
2, 352944, Pitch_bend_c, 1, 8576
2, 352992, Pitch_bend_c, 1, 8704
2, 353040, Pitch_bend_c, 1, 8832
2, 353040, Pitch_bend_c, 1, 8832
2, 353280, Pitch_bend_c, 1, 8832
2, 353280, Pitch_bend_c, 1, 8192
2, 353280, Note_off_c, 1, 60, 95
2, 353280, Note_on_c, 0, 57, 95
2, 353760, Note_off_c, 0, 57, 95
2, 353760, Note_on_c, 0, 52, 95
2, 354240, Note_off_c, 0, 52, 95
2, 354240, Note_on_c, 0, 64, 95
2, 354240, Note_on_c, 0, 62, 95
2, 354240, Note_on_c, 0, 56, 95
2, 355200, Note_off_c, 0, 64, 95
2, 355200, Note_off_c, 0, 62, 95
2, 355200, Note_off_c, 0, 56, 95
2, 355200, Note_on_c, 0, 64, 95
2, 355680, Note_off_c, 0, 64, 95
2, 355680, Note_on_c, 0, 64, 95
2, 355680, Note_on_c, 0, 62, 95
2, 355680, Note_on_c, 0, 56, 95
2, 356160, Note_off_c, 0, 64, 95
2, 356160, Note_off_c, 0, 62, 95
2, 356160, Note_off_c, 0, 56, 95
2, 356160, Note_on_c, 1, 64, 47
2, 356160, Note_on_c, 1, 62, 47
2, 356160, Note_on_c, 1, 56, 47
2, 356640, Note_off_c, 1, 64, 47
2, 356640, Note_off_c, 1, 62, 47
2, 356640, Note_off_c, 1, 56, 47
2, 357840, Note_on_c, 0, 55, 95
2, 357960, Note_on_c, 1, 59, 95
2, 358025, Note_off_c, 1, 59, 95
2, 358080, Note_off_c, 0, 55, 95
2, 358080, Note_on_c, 0, 72, 95
2, 358080, Note_on_c, 1, 59, 95
2, 358320, Note_off_c, 0, 72, 95
2, 358320, Note_off_c, 1, 59, 95
2, 358320, Pitch_bend_c, 1, 8192
2, 358320, Note_on_c, 1, 72, 47
2, 358380, Pitch_bend_c, 1, 8320
2, 358440, Pitch_bend_c, 1, 8448
2, 358440, Pitch_bend_c, 1, 8448
2, 358560, Pitch_bend_c, 1, 8448
2, 358560, Pitch_bend_c, 1, 8192
2, 358560, Note_off_c, 1, 72, 47
2, 358560, Note_on_c, 0, 69, 95
2, 359040, Note_off_c, 0, 69, 95
2, 359040, Note_on_c, 0, 71, 95
2, 359520, Note_off_c, 0, 71, 95
2, 359520, Note_on_c, 0, 69, 95
2, 359520, Note_on_c, 0, 59, 47
2, 359520, Note_on_c, 0, 55, 47
2, 360000, Note_off_c, 0, 69, 95
2, 360000, Note_off_c, 0, 59, 47
2, 360000, Note_off_c, 0, 55, 47
2, 360000, Note_on_c, 0, 67, 95
2, 360240, Note_off_c, 0, 67, 95
2, 360240, Pitch_bend_c, 1, 8192
2, 360240, Note_on_c, 1, 67, 47
2, 360300, Pitch_bend_c, 1, 8320
2, 360360, Pitch_bend_c, 1, 8448
2, 360360, Pitch_bend_c, 1, 8448
2, 360480, Pitch_bend_c, 1, 8448
2, 360480, Pitch_bend_c, 1, 8192
2, 360480, Note_off_c, 1, 67, 47
2, 360480, Note_on_c, 0, 64, 95
2, 360960, Note_off_c, 0, 64, 95
2, 360960, Note_on_c, 0, 66, 95
2, 361440, Note_off_c, 0, 66, 95
2, 361440, Note_on_c, 0, 62, 95
2, 361920, Note_off_c, 0, 62, 95
2, 361920, Note_on_c, 0, 64, 95
2, 362400, Note_off_c, 0, 64, 95
2, 362400, Note_on_c, 0, 60, 95
2, 362560, Note_off_c, 0, 60, 95
2, 362560, Note_on_c, 0, 61, 70
2, 362720, Note_off_c, 0, 61, 70
2, 362720, Note_on_c, 0, 60, 70
2, 362880, Note_off_c, 0, 60, 70
2, 362880, Note_on_c, 0, 57, 95
2, 363720, Note_on_c, 1, 52, 95
2, 363840, Note_off_c, 0, 57, 95
2, 363840, Note_on_c, 0, 57, 95
2, 363840, Note_off_c, 1, 52, 95
2, 363840, Note_on_c, 1, 45, 95
2, 364320, Note_off_c, 0, 57, 95
2, 364320, Note_off_c, 1, 45, 95
2, 364320, Note_on_c, 0, 50, 95
2, 364320, Note_on_c, 0, 45, 47
2, 364800, Note_off_c, 0, 50, 95
2, 364800, Note_off_c, 0, 45, 47
2, 364800, Note_on_c, 0, 51, 95
2, 365280, Note_off_c, 0, 51, 95
2, 365280, Note_on_c, 0, 52, 95
2, 365760, Note_off_c, 0, 52, 95
2, 365760, Note_on_c, 0, 55, 95
2, 366000, Note_off_c, 0, 55, 95
2, 366000, Pitch_bend_c, 1, 8192
2, 366000, Note_on_c, 1, 55, 47
2, 366060, Pitch_bend_c, 1, 8320
2, 366120, Pitch_bend_c, 1, 8448
2, 366120, Pitch_bend_c, 1, 8448
2, 366240, Pitch_bend_c, 1, 8448
2, 366240, Pitch_bend_c, 1, 8192
2, 366240, Note_off_c, 1, 55, 47
2, 366240, Note_on_c, 0, 52, 95
2, 366720, Note_off_c, 0, 52, 95
2, 366720, Note_on_c, 0, 51, 95
2, 367200, Note_off_c, 0, 51, 95
2, 367200, Note_on_c, 0, 50, 95
2, 367680, Note_off_c, 0, 50, 95
2, 367680, Note_on_c, 0, 48, 95
2, 367920, Note_off_c, 0, 48, 95
2, 367920, Pitch_bend_c, 1, 8192
2, 367920, Note_on_c, 1, 48, 47
2, 367980, Pitch_bend_c, 1, 8320
2, 368040, Pitch_bend_c, 1, 8448
2, 368040, Pitch_bend_c, 1, 8448
2, 368160, Pitch_bend_c, 1, 8448
2, 368160, Pitch_bend_c, 1, 8192
2, 368160, Note_off_c, 1, 48, 47
2, 368160, Note_on_c, 0, 44, 95
2, 368520, Note_on_c, 1, 55, 95
2, 368640, Note_off_c, 0, 44, 95
2, 368640, Note_off_c, 1, 55, 95
2, 368640, Note_on_c, 1, 57, 95
2, 368800, Pitch_bend_c, 1, 8192
2, 368960, Pitch_bend_c, 1, 8320
2, 369120, Pitch_bend_c, 1, 8192
2, 369280, Pitch_bend_c, 1, 8320
2, 369440, Pitch_bend_c, 1, 8192
2, 369600, Pitch_bend_c, 1, 8320
2, 369760, Pitch_bend_c, 1, 8192
2, 369920, Pitch_bend_c, 1, 8320
2, 370080, Pitch_bend_c, 1, 8192
2, 370080, Pitch_bend_c, 1, 8320
2, 370080, Pitch_bend_c, 1, 8192
2, 370080, Note_off_c, 1, 57, 95
2, 370080, Note_on_c, 0, 50, 95
2, 370560, Note_off_c, 0, 50, 95
2, 370560, Note_on_c, 0, 51, 95
2, 371040, Note_off_c, 0, 51, 95
2, 371040, Note_on_c, 0, 52, 95
2, 371520, Note_off_c, 0, 52, 95
2, 371520, Note_on_c, 0, 56, 95
2, 372960, Note_off_c, 0, 56, 95
2, 377520, Note_on_c, 1, 62, 95
2, 377640, Pitch_bend_c, 1, 8832
2, 377760, Pitch_bend_c, 1, 9600
2, 377760, Pitch_bend_c, 1, 8192
2, 377760, Note_off_c, 1, 62, 95
2, 377760, Note_on_c, 0, 64, 95
2, 379560, Note_on_c, 1, 64, 95
2, 379680, Note_off_c, 0, 64, 95
2, 379680, Note_off_c, 1, 64, 95
2, 379680, Note_on_c, 1, 62, 95
2, 380040, Note_on_c, 1, 60, 95
2, 380160, Note_off_c, 1, 62, 95
2, 380160, Note_off_c, 1, 60, 95
2, 380160, Note_on_c, 1, 62, 95
2, 381600, Note_off_c, 1, 62, 95
2, 385440, Pitch_bend_c, 1, 9600
2, 385440, Note_on_c, 1, 57, 95
2, 385493, Pitch_bend_c, 1, 9600
2, 385497, Pitch_bend_c, 1, 9472
2, 385501, Pitch_bend_c, 1, 9344
2, 385505, Pitch_bend_c, 1, 9216
2, 385509, Pitch_bend_c, 1, 9088
2, 385513, Pitch_bend_c, 1, 8960
2, 385517, Pitch_bend_c, 1, 8832
2, 385521, Pitch_bend_c, 1, 8704
2, 385525, Pitch_bend_c, 1, 8576
2, 385529, Pitch_bend_c, 1, 8448
2, 385533, Pitch_bend_c, 1, 8320
2, 385537, Pitch_bend_c, 1, 8192
2, 385546, Pitch_bend_c, 1, 8192
2, 385600, Pitch_bend_c, 1, 8192
2, 385600, Pitch_bend_c, 1, 8192
2, 385600, Note_off_c, 1, 57, 95
2, 385600, Note_on_c, 0, 57, 47
2, 385760, Note_off_c, 0, 57, 47
2, 385760, Note_on_c, 0, 55, 70
2, 385920, Note_off_c, 0, 55, 70
2, 385920, Pitch_bend_c, 1, 8192
2, 385920, Note_on_c, 1, 60, 47
2, 386016, Pitch_bend_c, 1, 8320
2, 386112, Pitch_bend_c, 1, 8448
2, 386208, Pitch_bend_c, 1, 8576
2, 386304, Pitch_bend_c, 1, 8704
2, 386400, Pitch_bend_c, 1, 8832
2, 386400, Pitch_bend_c, 1, 8832
2, 386880, Pitch_bend_c, 1, 8832
2, 386880, Pitch_bend_c, 1, 8192
2, 386880, Note_off_c, 1, 60, 47
2, 386880, Note_on_c, 0, 57, 95
2, 387120, Note_off_c, 0, 57, 95
2, 387120, Note_on_c, 0, 55, 95
2, 387240, Note_on_c, 1, 60, 95
2, 387360, Note_off_c, 0, 55, 95
2, 387360, Note_off_c, 1, 60, 95
2, 387360, Note_on_c, 1, 61, 95
2, 387840, Note_off_c, 1, 61, 95
2, 387840, Note_on_c, 0, 69, 95
2, 388320, Note_off_c, 0, 69, 95
2, 388320, Note_on_c, 0, 64, 95
2, 388800, Note_off_c, 0, 64, 95
2, 388800, Note_on_c, 0, 69, 95
2, 388800, Note_on_c, 0, 67, 95
2, 389280, Note_off_c, 0, 69, 95
2, 389280, Note_off_c, 0, 67, 95
2, 389280, Note_on_c, 0, 64, 70
2, 389760, Note_off_c, 0, 64, 70
2, 389760, Note_on_c, 0, 62, 95
2, 390240, Note_off_c, 0, 62, 95
2, 390240, Note_on_c, 0, 64, 95
2, 390720, Note_off_c, 0, 64, 95
2, 390720, Note_on_c, 0, 60, 95
2, 391200, Note_off_c, 0, 60, 95
2, 391200, Note_on_c, 0, 61, 95
2, 391680, Note_off_c, 0, 61, 95
2, 391680, Note_on_c, 0, 57, 95
2, 392640, Note_off_c, 0, 57, 95
2, 392640, Note_on_c, 0, 45, 95
2, 393000, Note_on_c, 1, 60, 95
2, 393120, Note_off_c, 0, 45, 95
2, 393120, Note_off_c, 1, 60, 95
2, 393120, Note_on_c, 1, 61, 95
2, 393600, Note_off_c, 1, 61, 95
2, 393600, Note_on_c, 0, 69, 95
2, 394080, Note_off_c, 0, 69, 95
2, 394080, Note_on_c, 0, 64, 95
2, 394560, Note_off_c, 0, 64, 95
2, 394560, Note_on_c, 0, 67, 95
2, 395520, Note_off_c, 0, 67, 95
2, 395520, Pitch_bend_c, 1, 8192
2, 395520, Note_on_c, 1, 67, 47
2, 395580, Pitch_bend_c, 1, 8320
2, 395640, Pitch_bend_c, 1, 8448
2, 395640, Pitch_bend_c, 1, 8448
2, 395760, Pitch_bend_c, 1, 8448
2, 395820, Pitch_bend_c, 1, 8320
2, 395880, Pitch_bend_c, 1, 8192
2, 395880, Pitch_bend_c, 1, 8192
2, 396000, Pitch_bend_c, 1, 8192
2, 396000, Pitch_bend_c, 1, 8192
2, 396000, Note_off_c, 1, 67, 47
2, 396000, Note_on_c, 0, 67, 47
2, 396480, Note_off_c, 0, 67, 47
2, 401280, Note_on_c, 0, 66, 95
2, 401280, Note_on_c, 0, 50, 95
2, 401760, Note_off_c, 0, 66, 95
2, 401760, Note_off_c, 0, 50, 95
2, 401760, Note_on_c, 0, 69, 95
2, 401760, Note_on_c, 0, 50, 95
2, 402240, Note_off_c, 0, 69, 95
2, 402240, Note_off_c, 0, 50, 95
2, 402240, Note_on_c, 0, 66, 95
2, 402720, Note_off_c, 0, 66, 95
2, 402720, Note_on_c, 0, 69, 95
2, 402720, Note_on_c, 0, 50, 95
2, 403200, Note_off_c, 0, 69, 95
2, 403200, Note_off_c, 0, 50, 95
2, 403200, Note_on_c, 0, 69, 95
2, 403200, Note_on_c, 0, 66, 95
2, 403200, Note_on_c, 0, 50, 95
2, 404640, Note_off_c, 0, 69, 95
2, 404640, Note_off_c, 0, 66, 95
2, 404640, Note_off_c, 0, 50, 95
2, 408960, Note_on_c, 0, 60, 95
2, 409200, Note_off_c, 0, 60, 95
2, 409200, Note_on_c, 0, 61, 95
2, 409440, Note_off_c, 0, 61, 95
2, 409440, Note_on_c, 0, 69, 95
2, 409920, Note_off_c, 0, 69, 95
2, 409920, Note_on_c, 0, 64, 95
2, 410400, Note_off_c, 0, 64, 95
2, 410400, Note_on_c, 0, 67, 95
2, 410400, Note_on_c, 0, 45, 95
2, 410880, Note_off_c, 0, 67, 95
2, 410880, Note_off_c, 0, 45, 95
2, 411360, Pitch_bend_c, 1, 8192
2, 411360, Note_on_c, 1, 67, 95
2, 411360, Note_on_c, 0, 45, 95
2, 411480, Pitch_bend_c, 1, 8320
2, 411600, Pitch_bend_c, 1, 8448
2, 411600, Pitch_bend_c, 1, 8448
2, 411840, Pitch_bend_c, 1, 8448
2, 411840, Pitch_bend_c, 1, 8192
2, 411840, Note_off_c, 1, 67, 95
2, 411840, Note_off_c, 0, 45, 95
2, 411840, Note_on_c, 0, 64, 95
2, 412320, Note_off_c, 0, 64, 95
2, 412320, Note_on_c, 0, 61, 47
2, 412560, Note_off_c, 0, 61, 47
2, 412560, Note_on_c, 0, 62, 22
2, 412800, Note_off_c, 0, 62, 22
2, 412800, Note_on_c, 0, 64, 95
2, 413280, Note_off_c, 0, 64, 95
2, 413280, Note_on_c, 0, 66, 47
2, 413280, Note_on_c, 0, 62, 95
2, 413760, Note_off_c, 0, 66, 47
2, 413760, Note_off_c, 0, 62, 95
2, 413760, Note_on_c, 0, 64, 70
2, 413760, Note_on_c, 0, 60, 47
2, 414240, Note_off_c, 0, 64, 70
2, 414240, Note_off_c, 0, 60, 47
2, 414240, Note_on_c, 0, 57, 95
2, 414720, Note_off_c, 0, 57, 95
2, 414720, Note_on_c, 1, 60, 95
2, 414880, Pitch_bend_c, 1, 8192
2, 415040, Pitch_bend_c, 1, 8320
2, 415200, Pitch_bend_c, 1, 8192
2, 415360, Pitch_bend_c, 1, 8320
2, 415520, Pitch_bend_c, 1, 8192
2, 415680, Pitch_bend_c, 1, 8320
2, 415680, Pitch_bend_c, 1, 8192
2, 415680, Note_off_c, 1, 60, 95
2, 415680, Note_on_c, 0, 69, 95
2, 416160, Note_off_c, 0, 69, 95
2, 416160, Note_on_c, 0, 69, 95
2, 416640, Note_off_c, 0, 69, 95
2, 416640, Pitch_bend_c, 1, 8192
2, 416640, Note_on_c, 1, 67, 95
2, 416760, Pitch_bend_c, 1, 8320
2, 416880, Pitch_bend_c, 1, 8448
2, 416880, Pitch_bend_c, 1, 8448
2, 417120, Pitch_bend_c, 1, 8448
2, 417120, Pitch_bend_c, 1, 8192
2, 417120, Note_off_c, 1, 67, 95
2, 417120, Note_on_c, 0, 69, 95
2, 417600, Note_off_c, 0, 69, 95
2, 417600, Note_on_c, 0, 69, 95
2, 418560, Note_off_c, 0, 69, 95
2, 418560, Note_on_c, 0, 69, 95
2, 419040, Note_off_c, 0, 69, 95
2, 419520, Note_on_c, 0, 50, 95
2, 420000, Note_off_c, 0, 50, 95
2, 420000, Note_on_c, 0, 51, 95
2, 420480, Note_off_c, 0, 51, 95
2, 420480, Note_on_c, 0, 52, 95
2, 421440, Note_off_c, 0, 52, 95
2, 421440, Note_on_c, 0, 52, 95
2, 421920, Note_off_c, 0, 52, 95
2, 421920, Note_on_c, 0, 62, 95
2, 422400, Note_off_c, 0, 62, 95
2, 422400, Note_on_c, 0, 71, 95
2, 423360, Note_off_c, 0, 71, 95
2, 423360, Note_on_c, 0, 64, 95
2, 424800, Note_off_c, 0, 64, 95
2, 424800, Note_on_c, 0, 62, 95
2, 425280, Note_off_c, 0, 62, 95
2, 425280, Note_on_c, 0, 71, 95
2, 425280, Note_on_c, 0, 64, 95
2, 425760, Note_off_c, 0, 71, 95
2, 425760, Note_off_c, 0, 64, 95
2, 425760, Note_on_c, 1, 52, 95
2, 425880, Pitch_bend_c, 1, 7552
2, 426000, Pitch_bend_c, 1, 6784
2, 426000, Pitch_bend_c, 1, 8192
2, 426000, Note_off_c, 1, 52, 95
2, 426000, Note_on_c, 0, 50, 95
2, 426240, Note_off_c, 0, 50, 95
2, 426240, Note_on_c, 0, 50, 95
2, 428640, Note_off_c, 0, 50, 95
2, 432960, Note_on_c, 0, 60, 95
2, 433440, Note_off_c, 0, 60, 95
2, 433440, Note_on_c, 0, 61, 95
2, 433920, Note_off_c, 0, 61, 95
2, 433920, Note_on_c, 0, 64, 95
2, 434400, Note_off_c, 0, 64, 95
2, 434400, Note_on_c, 0, 69, 95
2, 434880, Note_off_c, 0, 69, 95
2, 434880, Note_on_c, 0, 72, 95
2, 435120, Note_off_c, 0, 72, 95
2, 435120, Pitch_bend_c, 1, 8192
2, 435120, Note_on_c, 1, 72, 47
2, 435180, Pitch_bend_c, 1, 8320
2, 435240, Pitch_bend_c, 1, 8448
2, 435240, Pitch_bend_c, 1, 8448
2, 435360, Pitch_bend_c, 1, 8448
2, 435360, Pitch_bend_c, 1, 8192
2, 435360, Note_off_c, 1, 72, 47
2, 435360, Note_on_c, 0, 69, 95
2, 435840, Note_off_c, 0, 69, 95
2, 435840, Note_on_c, 0, 71, 95
2, 436320, Note_off_c, 0, 71, 95
2, 436320, Note_on_c, 0, 69, 95
2, 436800, Note_off_c, 0, 69, 95
2, 436800, Note_on_c, 0, 64, 95
2, 437280, Note_off_c, 0, 64, 95
2, 437280, Note_on_c, 0, 62, 95
2, 437640, Note_on_c, 1, 64, 95
2, 437640, Note_on_c, 1, 60, 95
2, 437760, Note_off_c, 0, 62, 95
2, 437760, Note_off_c, 1, 64, 95
2, 437760, Note_on_c, 1, 59, 95
2, 437760, Note_off_c, 1, 60, 95
2, 437760, Note_on_c, 1, 61, 95
2, 438240, Note_off_c, 1, 59, 95
2, 438240, Note_off_c, 1, 61, 95
2, 438240, Note_on_c, 0, 57, 95
2, 438720, Note_off_c, 0, 57, 95
2, 438720, Note_on_c, 1, 52, 95
2, 438840, Pitch_bend_c, 1, 10112
2, 438960, Pitch_bend_c, 1, 12032
2, 439080, Pitch_bend_c, 1, 13952
2, 439200, Pitch_bend_c, 1, 15872
2, 439200, Pitch_bend_c, 1, 8192
2, 439200, Note_off_c, 1, 52, 95
2, 439200, Note_on_c, 1, 63, 95
2, 439320, Pitch_bend_c, 1, 7040
2, 439440, Pitch_bend_c, 1, 5760
2, 439560, Pitch_bend_c, 1, 4608
2, 439680, Pitch_bend_c, 1, 3328
2, 439800, Pitch_bend_c, 1, 2048
2, 439920, Pitch_bend_c, 1, 896
2, 440040, Pitch_bend_c, 1, 0
2, 440160, Pitch_bend_c, 1, 0
2, 440160, Pitch_bend_c, 1, 8192
2, 440160, Note_off_c, 1, 63, 95
2, 440160, Note_on_c, 0, 61, 95
2, 440160, Note_on_c, 0, 55, 95
2, 440160, Note_on_c, 0, 49, 95
2, 440160, Note_on_c, 0, 45, 95
2, 449280, Note_off_c, 0, 61, 95
2, 449280, Note_off_c, 0, 55, 95
2, 449280, Note_off_c, 0, 49, 95
2, 449280, Note_off_c, 0, 45, 95
2, 449280, Note_on_c, 0, 76, 95
2, 449280, Note_on_c, 0, 71, 95
2, 449280, Note_on_c, 0, 67, 95
2, 449280, Note_on_c, 0, 61, 95
2, 449280, Note_on_c, 0, 57, 95
2, 449760, Note_off_c, 0, 76, 95
2, 449760, Note_off_c, 0, 71, 95
2, 449760, Note_off_c, 0, 67, 95
2, 449760, Note_off_c, 0, 61, 95
2, 449760, Note_off_c, 0, 57, 95
2, 449760, End_track
0, 0, End_of_file
