0, 0, Header, 1, 19, 480
1, 0, Start_track
1, 0, Tempo, 472440
1, 0, Time_signature, 4, 2, 24, 8
1, 0, Key_signature, 0, "major"
1, 59520, Time_signature, 6, 2, 24, 8
1, 62400, Time_signature, 4, 2, 24, 8
1, 66240, Time_signature, 6, 2, 24, 8
1, 69120, Time_signature, 4, 2, 24, 8
1, 76800, Time_signature, 3, 2, 24, 8
1, 78240, Time_signature, 4, 2, 24, 8
1, 80160, Time_signature, 7, 3, 12, 8
1, 81840, Time_signature, 4, 2, 24, 8
1, 83760, Time_signature, 7, 3, 12, 8
1, 85440, Time_signature, 4, 2, 24, 8
1, 87360, Time_signature, 7, 3, 12, 8
1, 89040, Time_signature, 4, 2, 24, 8
1, 90960, Time_signature, 7, 3, 12, 8
1, 92640, Time_signature, 4, 2, 24, 8
1, 113760, Time_signature, 3, 3, 12, 8
1, 114480, Time_signature, 4, 2, 24, 8
1, 129840, Time_signature, 3, 2, 24, 8
1, 131280, Tempo, 472440
1, 131280, Time_signature, 4, 2, 24, 8
1, 156240, Time_signature, 3, 2, 24, 8
1, 157680, Time_signature, 4, 2, 24, 8
1, 171120, Time_signature, 3, 2, 24, 8
1, 172560, Time_signature, 4, 2, 24, 8
1, 186000, Time_signature, 3, 2, 24, 8
1, 187440, Time_signature, 4, 2, 24, 8
1, 195120, Time_signature, 3, 2, 24, 8
1, 196560, Time_signature, 5, 2, 24, 8
1, 198960, Time_signature, 4, 2, 24, 8
1, 210480, Time_signature, 3, 2, 24, 8
1, 211920, Time_signature, 5, 2, 24, 8
1, 214320, Time_signature, 4, 2, 24, 8
1, 239280, Time_signature, 3, 2, 24, 8
1, 240720, Time_signature, 4, 2, 24, 8
1, 254160, Time_signature, 3, 2, 24, 8
1, 255600, Time_signature, 4, 2, 24, 8
1, 263280, Time_signature, 3, 2, 24, 8
1, 264720, Time_signature, 5, 2, 24, 8
1, 267120, Time_signature, 4, 2, 24, 8
1, 278640, Time_signature, 3, 2, 24, 8
1, 280080, Time_signature, 5, 2, 24, 8
1, 282480, Time_signature, 4, 2, 24, 8
1, 303600, Time_signature, 3, 3, 12, 8
1, 304320, Time_signature, 4, 2, 24, 8
1, 304320, End_track
2, 0, Start_track
2, 0, Title_t, "Guitar"
2, 0, MIDI_port, 0
2, 0, Channel_prefix, 0
2, 0, Control_c, 0, 7, 89
2, 0, Program_c, 0, 30
2, 0, Note_on_c, 0, 45, 100
2, 240, Note_off_c, 0, 45, 80
2, 240, Note_on_c, 0, 48, 100
2, 480, Note_off_c, 0, 48, 80
2, 480, Note_on_c, 0, 50, 100
2, 720, Note_off_c, 0, 50, 80
2, 720, Note_on_c, 0, 45, 100
2, 1200, Note_off_c, 0, 45, 80
2, 1200, Note_on_c, 0, 45, 100
2, 1440, Note_off_c, 0, 45, 80
2, 1440, Note_on_c, 0, 48, 100
2, 1680, Note_off_c, 0, 48, 80
2, 1680, Note_on_c, 0, 50, 100
2, 1920, Note_off_c, 0, 50, 80
2, 1920, Note_on_c, 0, 53, 100
2, 2160, Note_off_c, 0, 53, 80
2, 2160, Note_on_c, 0, 55, 100
2, 2400, Note_off_c, 0, 55, 80
2, 2400, Note_on_c, 0, 42, 100
2, 2880, Note_off_c, 0, 42, 80
2, 2880, Note_on_c, 0, 45, 100
2, 3120, Note_off_c, 0, 45, 80
2, 3120, Note_on_c, 0, 48, 100
2, 3360, Note_off_c, 0, 48, 80
2, 3360, Note_on_c, 0, 50, 100
2, 3600, Note_off_c, 0, 50, 80
2, 3600, Note_on_c, 0, 41, 100
2, 4080, Note_on_c, 0, 48, 85
2, 4320, Note_on_c, 0, 40, 100
2, 4327, Note_off_c, 0, 48, 80
2, 4327, Note_off_c, 0, 41, 80
2, 4800, Note_on_c, 0, 48, 85
2, 5033, Note_off_c, 0, 40, 80
2, 5033, Note_off_c, 0, 48, 80
2, 5040, Note_on_c, 0, 41, 100
2, 5520, Note_on_c, 0, 48, 85
2, 5760, Note_off_c, 0, 48, 64
2, 5760, Note_on_c, 0, 43, 85
2, 5760, Note_on_c, 0, 50, 85
2, 5760, Note_on_c, 0, 55, 85
2, 5760, Note_on_c, 0, 62, 60
2, 5760, Note_on_c, 0, 67, 60
2, 5767, Note_off_c, 0, 41, 80
2, 7680, Note_off_c, 0, 43, 80
2, 7680, Note_off_c, 0, 50, 80
2, 7680, Note_off_c, 0, 55, 80
2, 7680, Note_off_c, 0, 62, 64
2, 7680, Note_off_c, 0, 67, 64
2, 7680, Note_on_c, 0, 45, 100
2, 7920, Note_off_c, 0, 45, 80
2, 7920, Note_on_c, 0, 48, 100
2, 8160, Note_off_c, 0, 48, 80
2, 8160, Note_on_c, 0, 50, 100
2, 8400, Note_off_c, 0, 50, 80
2, 8400, Note_on_c, 0, 45, 100
2, 8880, Note_off_c, 0, 45, 80
2, 8880, Note_on_c, 0, 45, 100
2, 9120, Note_off_c, 0, 45, 80
2, 9120, Note_on_c, 0, 48, 100
2, 9360, Note_off_c, 0, 48, 80
2, 9360, Note_on_c, 0, 50, 100
2, 9600, Note_off_c, 0, 50, 80
2, 9600, Note_on_c, 0, 55, 100
2, 9840, Note_off_c, 0, 55, 80
2, 9840, Note_on_c, 0, 54, 100
2, 10080, Note_off_c, 0, 54, 80
2, 10080, Note_on_c, 0, 42, 100
2, 10560, Note_off_c, 0, 42, 80
2, 10560, Note_on_c, 0, 45, 100
2, 10800, Note_off_c, 0, 45, 80
2, 10800, Note_on_c, 0, 48, 100
2, 11040, Note_off_c, 0, 48, 80
2, 11040, Note_on_c, 0, 50, 100
2, 11280, Note_off_c, 0, 50, 80
2, 11280, Note_on_c, 0, 41, 100
2, 11760, Note_on_c, 0, 48, 70
2, 12000, Note_on_c, 0, 40, 100
2, 12007, Note_off_c, 0, 48, 80
2, 12007, Note_off_c, 0, 41, 80
2, 12480, Note_on_c, 0, 48, 70
2, 12713, Note_off_c, 0, 40, 80
2, 12720, Note_off_c, 0, 48, 80
2, 12720, Note_on_c, 0, 41, 100
2, 13440, Note_on_c, 0, 48, 100
2, 13447, Note_off_c, 0, 41, 80
2, 13680, Note_off_c, 0, 48, 80
2, 13680, Note_on_c, 0, 43, 100
2, 13680, Note_on_c, 0, 50, 100
2, 15360, Note_on_c, 0, 45, 100
2, 15367, Note_off_c, 0, 50, 64
2, 15367, Note_off_c, 0, 43, 80
2, 15600, Note_off_c, 0, 45, 80
2, 15600, Note_on_c, 0, 48, 100
2, 15840, Note_off_c, 0, 48, 80
2, 15840, Note_on_c, 0, 50, 100
2, 16080, Note_off_c, 0, 50, 80
2, 16080, Note_on_c, 0, 45, 100
2, 16560, Note_off_c, 0, 45, 80
2, 16560, Note_on_c, 0, 45, 100
2, 16800, Note_off_c, 0, 45, 80
2, 16800, Note_on_c, 0, 48, 100
2, 17040, Note_off_c, 0, 48, 80
2, 17040, Note_on_c, 0, 50, 100
2, 17280, Note_off_c, 0, 50, 80
2, 17280, Note_on_c, 0, 53, 100
2, 17520, Note_off_c, 0, 53, 80
2, 17520, Note_on_c, 0, 55, 100
2, 17760, Note_off_c, 0, 55, 80
2, 17760, Note_on_c, 0, 42, 100
2, 18240, Note_off_c, 0, 42, 80
2, 18240, Note_on_c, 0, 45, 100
2, 18480, Note_off_c, 0, 45, 80
2, 18480, Note_on_c, 0, 48, 100
2, 18720, Note_off_c, 0, 48, 80
2, 18720, Note_on_c, 0, 50, 100
2, 18960, Note_off_c, 0, 50, 80
2, 18960, Note_on_c, 0, 41, 100
2, 19440, Note_on_c, 0, 48, 70
2, 19680, Note_on_c, 0, 40, 100
2, 19687, Note_off_c, 0, 48, 80
2, 19687, Note_off_c, 0, 41, 80
2, 20160, Note_on_c, 0, 48, 70
2, 20393, Note_off_c, 0, 40, 80
2, 20400, Note_off_c, 0, 48, 80
2, 20400, Note_on_c, 0, 41, 100
2, 20880, Note_on_c, 0, 48, 70
2, 21120, Note_off_c, 0, 48, 80
2, 21120, Note_on_c, 0, 43, 85
2, 21120, Note_on_c, 0, 50, 85
2, 21127, Note_off_c, 0, 41, 80
2, 23040, Note_off_c, 0, 43, 80
2, 23040, Note_off_c, 0, 50, 80
2, 23040, Note_on_c, 0, 45, 100
2, 23280, Note_off_c, 0, 45, 80
2, 23280, Note_on_c, 0, 48, 100
2, 23520, Note_off_c, 0, 48, 80
2, 23520, Note_on_c, 0, 50, 100
2, 23760, Note_off_c, 0, 50, 80
2, 23760, Note_on_c, 0, 45, 100
2, 24240, Note_off_c, 0, 45, 80
2, 24240, Note_on_c, 0, 45, 100
2, 24480, Note_off_c, 0, 45, 80
2, 24480, Note_on_c, 0, 48, 100
2, 24720, Note_off_c, 0, 48, 80
2, 24720, Note_on_c, 0, 50, 100
2, 24960, Note_off_c, 0, 50, 80
2, 24960, Note_on_c, 0, 55, 100
2, 25200, Note_off_c, 0, 55, 80
2, 25200, Note_on_c, 0, 54, 100
2, 25440, Note_off_c, 0, 54, 80
2, 25440, Note_on_c, 0, 42, 100
2, 25920, Note_off_c, 0, 42, 80
2, 25920, Note_on_c, 0, 45, 100
2, 26160, Note_off_c, 0, 45, 80
2, 26160, Note_on_c, 0, 48, 100
2, 26400, Note_off_c, 0, 48, 80
2, 26400, Note_on_c, 0, 50, 100
2, 26640, Note_off_c, 0, 50, 80
2, 26640, Note_on_c, 0, 41, 100
2, 27120, Note_on_c, 0, 48, 70
2, 27360, Note_on_c, 0, 40, 100
2, 27367, Note_off_c, 0, 48, 80
2, 27367, Note_off_c, 0, 41, 80
2, 27840, Note_on_c, 0, 48, 70
2, 28073, Note_off_c, 0, 40, 80
2, 28080, Note_off_c, 0, 48, 80
2, 28080, Note_on_c, 0, 41, 100
2, 28800, Note_on_c, 0, 48, 70
2, 28807, Note_off_c, 0, 41, 80
2, 29040, Note_off_c, 0, 48, 80
2, 29040, Note_on_c, 0, 43, 100
2, 29040, Note_on_c, 0, 50, 100
2, 30720, Note_on_c, 0, 48, 100
2, 30720, Note_on_c, 0, 55, 100
2, 30727, Note_off_c, 0, 50, 64
2, 30727, Note_off_c, 0, 43, 80
2, 30960, Note_off_c, 0, 48, 80
2, 30960, Note_off_c, 0, 55, 64
2, 30960, Note_on_c, 0, 50, 100
2, 30960, Note_on_c, 0, 57, 100
2, 31200, Note_off_c, 0, 57, 64
2, 31200, Note_off_c, 0, 50, 80
2, 31440, Note_on_c, 0, 60, 100
2, 31440, Note_on_c, 0, 53, 100
2, 31680, Note_off_c, 0, 53, 80
2, 31680, Note_off_c, 0, 60, 64
2, 32160, Note_on_c, 0, 50, 100
2, 32160, Note_on_c, 0, 43, 100
2, 32160, Note_on_c, 0, 55, 100
2, 34560, Note_off_c, 0, 55, 64
2, 34560, Note_off_c, 0, 43, 64
2, 34560, Note_off_c, 0, 50, 80
2, 34560, Note_on_c, 0, 55, 100
2, 34560, Note_on_c, 0, 48, 100
2, 34800, Note_off_c, 0, 48, 80
2, 34800, Note_off_c, 0, 55, 64
2, 34800, Note_on_c, 0, 50, 100
2, 34800, Note_on_c, 0, 57, 100
2, 35040, Note_off_c, 0, 57, 64
2, 35040, Note_off_c, 0, 50, 80
2, 35280, Note_on_c, 0, 60, 100
2, 35280, Note_on_c, 0, 53, 100
2, 35520, Note_off_c, 0, 53, 80
2, 35520, Note_off_c, 0, 60, 64
2, 36000, Note_on_c, 0, 43, 100
2, 36000, Note_on_c, 0, 55, 100
2, 36000, Note_on_c, 0, 48, 100
2, 38400, Note_off_c, 0, 48, 80
2, 38400, Note_off_c, 0, 55, 64
2, 38400, Note_off_c, 0, 43, 64
2, 38400, Note_on_c, 0, 55, 100
2, 38400, Note_on_c, 0, 48, 100
2, 38640, Note_off_c, 0, 48, 80
2, 38640, Note_off_c, 0, 55, 64
2, 38640, Note_on_c, 0, 50, 100
2, 38640, Note_on_c, 0, 57, 100
2, 38880, Note_off_c, 0, 57, 64
2, 38880, Note_off_c, 0, 50, 80
2, 39120, Note_on_c, 0, 60, 100
2, 39120, Note_on_c, 0, 53, 100
2, 39360, Note_off_c, 0, 53, 80
2, 39360, Note_off_c, 0, 60, 64
2, 39840, Note_on_c, 0, 50, 100
2, 39840, Note_on_c, 0, 43, 100
2, 39840, Note_on_c, 0, 55, 100
2, 42240, Note_off_c, 0, 55, 64
2, 42240, Note_off_c, 0, 43, 64
2, 42240, Note_off_c, 0, 50, 80
2, 42240, Note_on_c, 0, 48, 100
2, 42240, Note_on_c, 0, 55, 100
2, 42480, Note_off_c, 0, 55, 64
2, 42480, Note_off_c, 0, 48, 80
2, 42480, Note_on_c, 0, 50, 100
2, 42480, Note_on_c, 0, 57, 100
2, 42720, Note_off_c, 0, 57, 64
2, 42720, Note_off_c, 0, 50, 80
2, 42960, Note_on_c, 0, 60, 100
2, 42960, Note_on_c, 0, 53, 100
2, 43200, Note_off_c, 0, 53, 80
2, 43200, Note_off_c, 0, 60, 64
2, 43680, Note_on_c, 0, 50, 100
2, 43680, Note_on_c, 0, 45, 100
2, 43680, Note_on_c, 0, 57, 100
2, 43680, Note_on_c, 0, 62, 100
2, 46080, Note_off_c, 0, 62, 64
2, 46080, Note_off_c, 0, 57, 64
2, 46080, Note_off_c, 0, 45, 64
2, 46080, Note_off_c, 0, 50, 80
2, 46080, Note_on_c, 0, 45, 100
2, 46320, Note_off_c, 0, 45, 80
2, 46320, Note_on_c, 0, 48, 100
2, 46560, Note_off_c, 0, 48, 80
2, 46560, Note_on_c, 0, 50, 100
2, 46800, Note_off_c, 0, 50, 80
2, 46800, Note_on_c, 0, 45, 100
2, 47280, Note_off_c, 0, 45, 80
2, 47280, Note_on_c, 0, 45, 100
2, 47520, Note_off_c, 0, 45, 80
2, 47520, Note_on_c, 0, 48, 100
2, 47760, Note_off_c, 0, 48, 80
2, 47760, Note_on_c, 0, 50, 100
2, 48000, Note_off_c, 0, 50, 80
2, 48000, Note_on_c, 0, 53, 100
2, 48240, Note_off_c, 0, 53, 80
2, 48240, Note_on_c, 0, 55, 100
2, 48480, Note_off_c, 0, 55, 80
2, 48480, Note_on_c, 0, 42, 100
2, 48960, Note_off_c, 0, 42, 80
2, 48960, Note_on_c, 0, 45, 100
2, 49200, Note_off_c, 0, 45, 80
2, 49200, Note_on_c, 0, 48, 100
2, 49440, Note_off_c, 0, 48, 80
2, 49440, Note_on_c, 0, 50, 100
2, 49680, Note_off_c, 0, 50, 80
2, 49680, Note_on_c, 0, 41, 100
2, 50160, Note_on_c, 0, 48, 70
2, 50400, Note_on_c, 0, 40, 100
2, 50407, Note_off_c, 0, 48, 80
2, 50407, Note_off_c, 0, 41, 80
2, 50880, Note_on_c, 0, 48, 70
2, 51113, Note_off_c, 0, 40, 80
2, 51120, Note_off_c, 0, 48, 80
2, 51120, Note_on_c, 0, 41, 100
2, 51600, Note_on_c, 0, 48, 70
2, 51840, Note_off_c, 0, 48, 80
2, 51840, Note_on_c, 0, 43, 85
2, 51840, Note_on_c, 0, 50, 85
2, 51847, Note_off_c, 0, 41, 80
2, 53760, Note_off_c, 0, 43, 80
2, 53760, Note_off_c, 0, 50, 80
2, 53760, Note_on_c, 0, 45, 100
2, 54000, Note_off_c, 0, 45, 80
2, 54000, Note_on_c, 0, 48, 100
2, 54240, Note_off_c, 0, 48, 80
2, 54240, Note_on_c, 0, 50, 100
2, 54480, Note_off_c, 0, 50, 80
2, 54480, Note_on_c, 0, 45, 100
2, 54960, Note_off_c, 0, 45, 80
2, 54960, Note_on_c, 0, 45, 100
2, 55200, Note_off_c, 0, 45, 80
2, 55200, Note_on_c, 0, 48, 100
2, 55440, Note_off_c, 0, 48, 80
2, 55440, Note_on_c, 0, 50, 100
2, 55680, Note_off_c, 0, 50, 80
2, 55680, Note_on_c, 0, 55, 100
2, 55920, Note_off_c, 0, 55, 80
2, 55920, Note_on_c, 0, 54, 100
2, 56160, Note_off_c, 0, 54, 80
2, 56160, Note_on_c, 0, 42, 100
2, 56640, Note_off_c, 0, 42, 80
2, 56640, Note_on_c, 0, 45, 100
2, 56880, Note_off_c, 0, 45, 80
2, 56880, Note_on_c, 0, 48, 100
2, 57120, Note_off_c, 0, 48, 80
2, 57120, Note_on_c, 0, 50, 100
2, 57360, Note_off_c, 0, 50, 80
2, 57360, Note_on_c, 0, 41, 100
2, 57840, Note_on_c, 0, 48, 70
2, 58080, Note_on_c, 0, 40, 100
2, 58087, Note_off_c, 0, 48, 80
2, 58087, Note_off_c, 0, 41, 80
2, 58560, Note_on_c, 0, 48, 70
2, 58793, Note_off_c, 0, 40, 80
2, 58800, Note_off_c, 0, 48, 80
2, 58800, Note_on_c, 0, 41, 100
2, 59520, Note_on_c, 0, 48, 70
2, 59527, Note_off_c, 0, 41, 80
2, 59760, Note_off_c, 0, 48, 80
2, 59760, Note_on_c, 0, 43, 100
2, 60007, Note_off_c, 0, 43, 80
2, 60487, Note_on_c, 0, 45, 100
2, 60727, Note_off_c, 0, 45, 64
2, 60727, Note_on_c, 0, 50, 100
2, 60967, Note_off_c, 0, 50, 64
2, 61200, Note_on_c, 0, 55, 100
2, 61440, Note_off_c, 0, 55, 64
2, 61680, Note_on_c, 0, 54, 100
2, 61800, Note_off_c, 0, 54, 64
2, 61800, Note_on_c, 0, 50, 100
2, 61920, Note_on_c, 0, 48, 100
2, 61930, Note_off_c, 0, 50, 64
2, 62400, Note_off_c, 0, 48, 64
2, 62400, Note_on_c, 0, 50, 100
2, 62640, Note_off_c, 0, 50, 64
2, 62640, Note_on_c, 0, 45, 100
2, 63120, Note_off_c, 0, 45, 64
2, 63120, Note_on_c, 0, 48, 100
2, 63360, Note_off_c, 0, 48, 64
2, 63360, Note_on_c, 0, 43, 100
2, 63840, Note_off_c, 0, 43, 64
2, 63840, Note_on_c, 0, 40, 100
2, 63960, Note_off_c, 0, 40, 64
2, 63960, Note_on_c, 0, 41, 100
2, 64080, Note_off_c, 0, 41, 64
2, 64080, Note_on_c, 0, 42, 100
2, 64560, Note_off_c, 0, 42, 64
2, 64560, Note_on_c, 0, 43, 100
2, 64800, Note_off_c, 0, 43, 64
2, 64800, Note_on_c, 0, 44, 100
2, 65040, Note_off_c, 0, 44, 64
2, 65040, Note_on_c, 0, 45, 100
2, 65280, Note_off_c, 0, 45, 64
2, 65280, Note_on_c, 0, 57, 100
2, 65513, Note_off_c, 0, 57, 64
2, 65520, Note_on_c, 0, 55, 100
2, 66240, Note_on_c, 0, 48, 100
2, 66247, Note_off_c, 0, 55, 64
2, 66480, Note_off_c, 0, 48, 64
2, 66480, Note_on_c, 0, 43, 100
2, 67207, Note_off_c, 0, 43, 64
2, 67207, Note_on_c, 0, 45, 100
2, 67447, Note_off_c, 0, 45, 64
2, 67447, Note_on_c, 0, 50, 100
2, 67687, Note_off_c, 0, 50, 64
2, 67920, Note_on_c, 0, 55, 100
2, 68160, Note_off_c, 0, 55, 64
2, 68400, Note_on_c, 0, 54, 100
2, 68520, Note_off_c, 0, 54, 64
2, 68520, Note_on_c, 0, 50, 100
2, 68640, Note_on_c, 0, 48, 100
2, 68650, Note_off_c, 0, 50, 64
2, 69120, Note_off_c, 0, 48, 64
2, 69120, Note_on_c, 0, 50, 100
2, 69360, Note_off_c, 0, 50, 64
2, 69360, Note_on_c, 0, 45, 100
2, 69840, Note_off_c, 0, 45, 64
2, 69840, Note_on_c, 0, 48, 100
2, 70080, Note_off_c, 0, 48, 64
2, 70080, Note_on_c, 0, 43, 100
2, 70560, Note_off_c, 0, 43, 64
2, 70560, Note_on_c, 0, 40, 100
2, 70680, Note_off_c, 0, 40, 64
2, 70680, Note_on_c, 0, 41, 100
2, 70800, Note_off_c, 0, 41, 64
2, 70800, Note_on_c, 0, 42, 100
2, 71280, Note_off_c, 0, 42, 64
2, 71280, Note_on_c, 0, 43, 100
2, 71520, Note_off_c, 0, 43, 64
2, 71520, Note_on_c, 0, 44, 100
2, 71760, Note_off_c, 0, 44, 64
2, 71760, Note_on_c, 0, 45, 100
2, 72000, Note_off_c, 0, 45, 64
2, 72000, Pitch_bend_c, 0, 9192
2, 72000, Note_on_c, 0, 60, 100
2, 72015, Pitch_bend_c, 0, 10192
2, 72030, Pitch_bend_c, 0, 11192
2, 72045, Pitch_bend_c, 0, 12192
2, 72060, Pitch_bend_c, 0, 13192
2, 72075, Pitch_bend_c, 0, 14192
2, 72090, Pitch_bend_c, 0, 15192
2, 72105, Pitch_bend_c, 0, 16192
2, 72233, Note_off_c, 0, 60, 64
2, 72240, Pitch_bend_c, 0, 8192
2, 72240, Note_on_c, 0, 60, 100
2, 72480, Control_c, 0, 1, 127
2, 72960, Control_c, 0, 1, 0
2, 72960, Note_on_c, 0, 48, 100
2, 72967, Note_off_c, 0, 60, 64
2, 73200, Note_off_c, 0, 48, 64
2, 73200, Note_on_c, 0, 50, 100
2, 73920, Note_on_c, 0, 43, 100
2, 73927, Note_off_c, 0, 50, 64
2, 74160, Note_off_c, 0, 43, 64
2, 74160, Note_on_c, 0, 44, 100
2, 74400, Note_off_c, 0, 44, 64
2, 74400, Note_on_c, 0, 45, 100
2, 74640, Note_off_c, 0, 45, 64
2, 74640, Note_on_c, 0, 53, 100
2, 75120, Note_off_c, 0, 53, 64
2, 75120, Note_on_c, 0, 50, 100
2, 75240, Note_off_c, 0, 50, 64
2, 75240, Note_on_c, 0, 48, 100
2, 75360, Note_off_c, 0, 48, 64
2, 75360, Note_on_c, 0, 45, 100
2, 75600, Note_off_c, 0, 45, 64
2, 75600, Note_on_c, 0, 52, 100
2, 75840, Note_off_c, 0, 52, 64
2, 75840, Note_on_c, 0, 50, 100
2, 75960, Note_off_c, 0, 50, 64
2, 75960, Note_on_c, 0, 48, 100
2, 76080, Note_off_c, 0, 48, 64
2, 76080, Note_on_c, 0, 45, 100
2, 76320, Note_on_c, 0, 48, 100
2, 76327, Note_off_c, 0, 45, 64
2, 76560, Note_off_c, 0, 48, 64
2, 76560, Note_on_c, 0, 50, 100
2, 76800, Note_off_c, 0, 50, 64
2, 76800, Note_on_c, 0, 44, 100
2, 77040, Note_off_c, 0, 44, 64
2, 77040, Note_on_c, 0, 43, 100
2, 77520, Note_off_c, 0, 43, 64
2, 77520, Note_on_c, 0, 41, 100
2, 77760, Note_off_c, 0, 41, 64
2, 77760, Note_on_c, 0, 38, 100
2, 78000, Note_off_c, 0, 38, 64
2, 78000, Note_on_c, 0, 39, 100
2, 78240, Note_off_c, 0, 39, 64
2, 78240, Note_on_c, 0, 40, 100
2, 78953, Note_off_c, 0, 40, 64
2, 78960, Note_on_c, 0, 44, 100
2, 79200, Note_off_c, 0, 44, 64
2, 79200, Note_on_c, 0, 45, 100
2, 79913, Note_off_c, 0, 45, 64
2, 79920, Note_on_c, 0, 45, 100
2, 80160, Note_off_c, 0, 45, 64
2, 80160, Note_on_c, 0, 45, 100
2, 80400, Note_off_c, 0, 45, 64
2, 80400, Note_on_c, 0, 47, 100
2, 80640, Note_off_c, 0, 47, 64
2, 80640, Note_on_c, 0, 50, 100
2, 80880, Note_off_c, 0, 50, 64
2, 80880, Note_on_c, 0, 52, 100
2, 81120, Note_off_c, 0, 52, 64
2, 81120, Note_on_c, 0, 50, 100
2, 81360, Note_off_c, 0, 50, 64
2, 81360, Note_on_c, 0, 42, 100
2, 81840, Note_off_c, 0, 42, 64
2, 81840, Note_on_c, 0, 43, 100
2, 82320, Note_off_c, 0, 43, 64
2, 82320, Note_on_c, 0, 50, 100
2, 82560, Note_off_c, 0, 50, 64
2, 82560, Note_on_c, 0, 55, 100
2, 82800, Note_off_c, 0, 55, 64
2, 82800, Note_on_c, 0, 54, 100
2, 83280, Note_off_c, 0, 54, 64
2, 83280, Note_on_c, 0, 50, 100
2, 83760, Note_off_c, 0, 50, 64
2, 83760, Note_on_c, 0, 45, 100
2, 84000, Note_off_c, 0, 45, 64
2, 84000, Note_on_c, 0, 47, 100
2, 84240, Note_off_c, 0, 47, 64
2, 84240, Note_on_c, 0, 50, 100
2, 84480, Note_on_c, 0, 52, 100
2, 84487, Note_off_c, 0, 50, 64
2, 84720, Note_off_c, 0, 52, 64
2, 84720, Note_on_c, 0, 45, 100
2, 84960, Control_c, 0, 1, 127
2, 85200, Note_off_c, 0, 45, 64
2, 85200, Note_on_c, 0, 43, 100
2, 85200, Control_c, 0, 1, 0
2, 85440, Note_off_c, 0, 43, 64
2, 85440, Note_on_c, 0, 40, 100
2, 86153, Note_off_c, 0, 40, 64
2, 86160, Note_on_c, 0, 44, 100
2, 86400, Note_off_c, 0, 44, 64
2, 86400, Note_on_c, 0, 45, 100
2, 87113, Note_off_c, 0, 45, 64
2, 87120, Note_on_c, 0, 45, 100
2, 87360, Note_off_c, 0, 45, 64
2, 87360, Note_on_c, 0, 45, 100
2, 87600, Note_off_c, 0, 45, 64
2, 87600, Note_on_c, 0, 47, 100
2, 87840, Note_off_c, 0, 47, 64
2, 87840, Note_on_c, 0, 50, 100
2, 88080, Note_off_c, 0, 50, 64
2, 88080, Note_on_c, 0, 52, 100
2, 88320, Note_off_c, 0, 52, 64
2, 88320, Note_on_c, 0, 50, 100
2, 88560, Note_off_c, 0, 50, 64
2, 88560, Note_on_c, 0, 42, 100
2, 89040, Note_off_c, 0, 42, 64
2, 89040, Note_on_c, 0, 43, 100
2, 89520, Note_off_c, 0, 43, 64
2, 89520, Note_on_c, 0, 50, 100
2, 89760, Note_off_c, 0, 50, 64
2, 89760, Note_on_c, 0, 55, 100
2, 90000, Note_off_c, 0, 55, 64
2, 90000, Note_on_c, 0, 54, 100
2, 90480, Note_off_c, 0, 54, 64
2, 90480, Note_on_c, 0, 50, 100
2, 90960, Note_off_c, 0, 50, 64
2, 90960, Note_on_c, 0, 45, 100
2, 91200, Note_off_c, 0, 45, 64
2, 91200, Note_on_c, 0, 47, 100
2, 91440, Note_off_c, 0, 47, 64
2, 91440, Note_on_c, 0, 50, 100
2, 91680, Note_on_c, 0, 52, 100
2, 91687, Note_off_c, 0, 50, 64
2, 91920, Note_off_c, 0, 52, 64
2, 91920, Note_on_c, 0, 45, 100
2, 92400, Note_off_c, 0, 45, 64
2, 92400, Note_on_c, 0, 43, 100
2, 92640, Note_off_c, 0, 43, 64
2, 92640, Note_on_c, 0, 47, 80
2, 92640, Note_on_c, 0, 52, 80
2, 92640, Note_on_c, 0, 40, 80
2, 100440, Note_off_c, 0, 52, 64
2, 100560, Note_off_c, 0, 47, 64
2, 100560, Note_off_c, 0, 40, 64
2, 107970, Note_on_c, 0, 62, 100
2, 108000, Note_off_c, 0, 62, 64
2, 108000, Note_on_c, 0, 64, 100
2, 109200, Note_off_c, 0, 64, 64
2, 109200, Note_on_c, 0, 66, 100
2, 109440, Note_off_c, 0, 66, 64
2, 109440, Note_on_c, 0, 68, 100
2, 109680, Note_off_c, 0, 68, 64
2, 109680, Note_on_c, 0, 69, 100
2, 110160, Note_off_c, 0, 69, 64
2, 110160, Note_on_c, 0, 71, 100
2, 110400, Note_off_c, 0, 71, 64
2, 110400, Note_on_c, 0, 73, 100
2, 110640, Note_off_c, 0, 73, 64
2, 110640, Pitch_bend_c, 0, 9192
2, 110640, Note_on_c, 0, 73, 100
2, 110680, Pitch_bend_c, 0, 10192
2, 110720, Pitch_bend_c, 0, 11192
2, 110760, Pitch_bend_c, 0, 12192
2, 111000, Pitch_bend_c, 0, 11192
2, 111040, Pitch_bend_c, 0, 10192
2, 111080, Pitch_bend_c, 0, 9192
2, 111120, Pitch_bend_c, 0, 8192
2, 111360, Note_on_c, 0, 69, 100
2, 111367, Note_off_c, 0, 73, 64
2, 111840, Note_off_c, 0, 69, 64
2, 111840, Note_on_c, 0, 71, 100
2, 112080, Note_off_c, 0, 71, 64
2, 112080, Note_on_c, 0, 76, 100
2, 112320, Note_off_c, 0, 76, 64
2, 112320, Note_on_c, 0, 74, 100
2, 112560, Note_off_c, 0, 74, 64
2, 112560, Note_on_c, 0, 73, 100
2, 113040, Note_off_c, 0, 73, 64
2, 113040, Note_on_c, 0, 71, 100
2, 113280, Note_off_c, 0, 71, 64
2, 113280, Note_on_c, 0, 69, 100
2, 113520, Note_off_c, 0, 69, 64
2, 113520, Note_on_c, 0, 64, 100
2, 113760, Note_off_c, 0, 64, 64
2, 113760, Note_on_c, 0, 66, 100
2, 114000, Note_off_c, 0, 66, 64
2, 114000, Note_on_c, 0, 71, 100
2, 114240, Note_off_c, 0, 71, 64
2, 114240, Note_on_c, 0, 69, 100
2, 114480, Note_off_c, 0, 69, 64
2, 114480, Note_on_c, 0, 68, 100
2, 114540, Note_off_c, 0, 68, 64
2, 114540, Note_on_c, 0, 69, 100
2, 114600, Note_off_c, 0, 69, 64
2, 114600, Note_on_c, 0, 68, 100
2, 115680, Note_off_c, 0, 68, 64
2, 115680, Note_on_c, 0, 69, 100
2, 115920, Note_off_c, 0, 69, 64
2, 115920, Note_on_c, 0, 71, 100
2, 116160, Note_off_c, 0, 71, 64
2, 116160, Note_on_c, 0, 73, 100
2, 116640, Note_off_c, 0, 73, 64
2, 116644, Note_on_c, 0, 74, 100
2, 116880, Note_on_c, 0, 76, 100
2, 116884, Note_off_c, 0, 74, 64
2, 117120, Note_off_c, 0, 76, 64
2, 117120, Pitch_bend_c, 0, 9192
2, 117120, Note_on_c, 0, 76, 100
2, 117135, Pitch_bend_c, 0, 10192
2, 117150, Pitch_bend_c, 0, 11192
2, 117165, Pitch_bend_c, 0, 12192
2, 117180, Pitch_bend_c, 0, 13192
2, 117195, Pitch_bend_c, 0, 14192
2, 117210, Pitch_bend_c, 0, 15192
2, 117225, Pitch_bend_c, 0, 16192
2, 117600, Note_off_c, 0, 76, 64
2, 117600, Note_on_c, 0, 76, 100
2, 117600, Pitch_bend_c, 0, 8192
2, 117840, Note_off_c, 0, 76, 64
2, 117840, Note_on_c, 0, 74, 100
2, 118080, Note_off_c, 0, 74, 64
2, 118080, Note_on_c, 0, 69, 100
2, 118320, Note_off_c, 0, 69, 64
2, 118320, Note_on_c, 0, 71, 100
2, 118560, Note_off_c, 0, 71, 64
2, 118560, Note_on_c, 0, 69, 100
2, 118800, Note_off_c, 0, 69, 64
2, 118800, Note_on_c, 0, 67, 100
2, 119040, Note_off_c, 0, 67, 64
2, 119040, Pitch_bend_c, 0, 9192
2, 119040, Note_on_c, 0, 74, 100
2, 119055, Pitch_bend_c, 0, 10192
2, 119070, Pitch_bend_c, 0, 11192
2, 119085, Pitch_bend_c, 0, 12192
2, 119100, Pitch_bend_c, 0, 13192
2, 119115, Pitch_bend_c, 0, 14192
2, 119130, Pitch_bend_c, 0, 15192
2, 119145, Pitch_bend_c, 0, 16192
2, 119520, Note_off_c, 0, 74, 64
2, 119520, Note_on_c, 0, 74, 100
2, 119520, Pitch_bend_c, 0, 8192
2, 119760, Note_off_c, 0, 74, 64
2, 119760, Note_on_c, 0, 72, 100
2, 120000, Note_off_c, 0, 72, 64
2, 120000, Note_on_c, 0, 71, 100
2, 120240, Note_off_c, 0, 71, 64
2, 120240, Note_on_c, 0, 69, 100
2, 120360, Note_off_c, 0, 69, 64
2, 120360, Note_on_c, 0, 72, 100
2, 120480, Note_off_c, 0, 72, 64
2, 120480, Note_on_c, 0, 67, 100
2, 120600, Note_off_c, 0, 67, 64
2, 120600, Note_on_c, 0, 72, 100
2, 120720, Note_off_c, 0, 72, 64
2, 120720, Note_on_c, 0, 65, 100
2, 120840, Note_off_c, 0, 65, 64
2, 120840, Note_on_c, 0, 72, 100
2, 120960, Note_off_c, 0, 72, 64
2, 120960, Note_on_c, 0, 64, 100
2, 121080, Note_off_c, 0, 64, 64
2, 121080, Note_on_c, 0, 72, 100
2, 121200, Note_off_c, 0, 72, 64
2, 121200, Note_on_c, 0, 63, 100
2, 121913, Note_off_c, 0, 63, 64
2, 121913, Note_on_c, 0, 62, 65
2, 121943, Note_off_c, 0, 62, 64
2, 121952, Note_on_c, 0, 61, 65
2, 121982, Note_off_c, 0, 61, 64
2, 121991, Note_on_c, 0, 60, 65
2, 122021, Note_off_c, 0, 60, 64
2, 122030, Note_on_c, 0, 59, 65
2, 122060, Note_off_c, 0, 59, 64
2, 122069, Note_on_c, 0, 58, 65
2, 122099, Note_off_c, 0, 58, 64
2, 122108, Note_on_c, 0, 57, 65
2, 122138, Note_off_c, 0, 57, 64
2, 124070, Program_c, 0, 28
2, 124080, Note_on_c, 0, 51, 100
2, 124200, Note_off_c, 0, 51, 64
2, 124320, Note_on_c, 0, 47, 100
2, 124440, Note_off_c, 0, 47, 64
2, 124560, Note_on_c, 0, 49, 100
2, 124680, Note_off_c, 0, 49, 64
2, 124800, Note_on_c, 0, 45, 100
2, 124920, Note_off_c, 0, 45, 64
2, 125040, Note_on_c, 0, 47, 100
2, 125160, Note_off_c, 0, 47, 64
2, 125280, Note_on_c, 0, 45, 100
2, 125400, Note_off_c, 0, 45, 64
2, 125520, Note_on_c, 0, 43, 100
2, 125640, Note_off_c, 0, 43, 64
2, 125990, Program_c, 0, 30
2, 126000, Note_on_c, 0, 83, 100
2, 126080, Note_off_c, 0, 83, 80
2, 126080, Note_on_c, 0, 84, 100
2, 126160, Note_off_c, 0, 84, 80
2, 126160, Note_on_c, 0, 83, 100
2, 126240, Note_off_c, 0, 83, 80
2, 126240, Note_on_c, 0, 81, 100
2, 126320, Note_off_c, 0, 81, 80
2, 126320, Note_on_c, 0, 83, 100
2, 126400, Note_off_c, 0, 83, 80
2, 126400, Note_on_c, 0, 81, 100
2, 126480, Note_off_c, 0, 81, 80
2, 126480, Note_on_c, 0, 79, 100
2, 126560, Note_off_c, 0, 79, 80
2, 126560, Note_on_c, 0, 81, 100
2, 126640, Note_off_c, 0, 81, 80
2, 126640, Note_on_c, 0, 79, 100
2, 126720, Note_off_c, 0, 79, 80
2, 126720, Note_on_c, 0, 77, 100
2, 126800, Note_off_c, 0, 77, 80
2, 126800, Note_on_c, 0, 79, 100
2, 126880, Note_off_c, 0, 79, 80
2, 126880, Note_on_c, 0, 77, 100
2, 126960, Note_off_c, 0, 77, 80
2, 126960, Note_on_c, 0, 71, 100
2, 127040, Note_off_c, 0, 71, 64
2, 127040, Note_on_c, 0, 75, 100
2, 127120, Note_off_c, 0, 75, 64
2, 127120, Note_on_c, 0, 79, 100
2, 127200, Note_off_c, 0, 79, 64
2, 127200, Note_on_c, 0, 83, 100
2, 127280, Note_off_c, 0, 83, 64
2, 127280, Note_on_c, 0, 87, 100
2, 127360, Note_off_c, 0, 87, 64
2, 127360, Note_on_c, 0, 91, 100
2, 127440, Note_off_c, 0, 91, 64
2, 127440, Note_on_c, 0, 95, 100
2, 127500, Note_off_c, 0, 95, 64
2, 127500, Note_on_c, 0, 91, 100
2, 127560, Note_on_c, 0, 87, 100
2, 127565, Note_off_c, 0, 91, 64
2, 127620, Note_off_c, 0, 87, 64
2, 127620, Note_on_c, 0, 83, 100
2, 127680, Note_off_c, 0, 83, 64
2, 127680, Note_on_c, 0, 78, 100
2, 127740, Note_off_c, 0, 78, 64
2, 127740, Note_on_c, 0, 75, 100
2, 127800, Note_off_c, 0, 75, 64
2, 127920, Note_on_c, 0, 75, 100
2, 128000, Note_off_c, 0, 75, 80
2, 128000, Note_on_c, 0, 71, 100
2, 128080, Note_off_c, 0, 71, 80
2, 128080, Note_on_c, 0, 75, 100
2, 128160, Note_off_c, 0, 75, 80
2, 128160, Note_on_c, 0, 79, 100
2, 128240, Note_off_c, 0, 79, 80
2, 128240, Note_on_c, 0, 75, 100
2, 128320, Note_off_c, 0, 75, 80
2, 128320, Note_on_c, 0, 79, 100
2, 128400, Note_off_c, 0, 79, 80
2, 128400, Note_on_c, 0, 83, 100
2, 128480, Note_off_c, 0, 83, 80
2, 128480, Note_on_c, 0, 79, 100
2, 128560, Note_off_c, 0, 79, 80
2, 128560, Note_on_c, 0, 83, 100
2, 128640, Note_off_c, 0, 83, 80
2, 128640, Note_on_c, 0, 85, 100
2, 128720, Note_off_c, 0, 85, 80
2, 128720, Note_on_c, 0, 81, 100
2, 128800, Note_off_c, 0, 81, 80
2, 128800, Note_on_c, 0, 85, 100
2, 128880, Note_off_c, 0, 85, 80
2, 128880, Note_on_c, 0, 87, 100
2, 128960, Note_off_c, 0, 87, 80
2, 128960, Note_on_c, 0, 88, 100
2, 129040, Note_off_c, 0, 88, 80
2, 129040, Note_on_c, 0, 87, 100
2, 129120, Note_off_c, 0, 87, 80
2, 129120, Note_on_c, 0, 85, 100
2, 129200, Note_off_c, 0, 85, 80
2, 129200, Note_on_c, 0, 87, 100
2, 129280, Note_off_c, 0, 87, 80
2, 129280, Note_on_c, 0, 85, 100
2, 129360, Note_off_c, 0, 85, 80
2, 129360, Note_on_c, 0, 83, 100
2, 129480, Note_off_c, 0, 83, 80
2, 129600, Note_on_c, 0, 81, 100
2, 130080, Note_off_c, 0, 81, 64
2, 130080, Note_on_c, 0, 79, 100
2, 130200, Note_off_c, 0, 79, 64
2, 130320, Note_on_c, 0, 77, 100
2, 130800, Note_off_c, 0, 77, 64
2, 130800, Note_on_c, 0, 74, 100
2, 131280, Note_off_c, 0, 74, 64
2, 131280, Note_on_c, 0, 52, 90
2, 131280, Note_on_c, 0, 45, 90
2, 132960, Note_off_c, 0, 45, 64
2, 132960, Note_off_c, 0, 52, 64
2, 132960, Note_on_c, 0, 53, 90
2, 132960, Note_on_c, 0, 48, 90
2, 133920, Note_off_c, 0, 48, 64
2, 133920, Note_off_c, 0, 53, 64
2, 133920, Note_on_c, 0, 60, 90
2, 133920, Note_on_c, 0, 55, 90
2, 133920, Note_on_c, 0, 48, 90
2, 134160, Note_off_c, 0, 48, 64
2, 134160, Note_off_c, 0, 55, 64
2, 134160, Note_off_c, 0, 60, 64
2, 134400, Note_on_c, 0, 55, 90
2, 134400, Note_on_c, 0, 50, 90
2, 134400, Note_on_c, 0, 43, 90
2, 135120, Note_off_c, 0, 43, 64
2, 135120, Note_off_c, 0, 50, 64
2, 135120, Note_off_c, 0, 55, 64
2, 135120, Note_on_c, 0, 58, 90
2, 135120, Note_on_c, 0, 53, 90
2, 135120, Note_on_c, 0, 46, 90
2, 137040, Note_off_c, 0, 46, 64
2, 137040, Note_off_c, 0, 53, 64
2, 137040, Note_off_c, 0, 58, 64
2, 137040, Note_on_c, 0, 53, 90
2, 137040, Note_on_c, 0, 48, 90
2, 137040, Note_on_c, 0, 60, 90
2, 137760, Note_off_c, 0, 60, 64
2, 137760, Note_off_c, 0, 48, 64
2, 137760, Note_off_c, 0, 53, 64
2, 137760, Note_on_c, 0, 60, 90
2, 137760, Note_on_c, 0, 48, 90
2, 137760, Note_on_c, 0, 55, 90
2, 138960, Note_off_c, 0, 55, 64
2, 138960, Note_off_c, 0, 48, 64
2, 138960, Note_off_c, 0, 60, 64
2, 138960, Pitch_bend_c, 0, 9192
2, 138960, Note_on_c, 0, 67, 100
2, 138975, Pitch_bend_c, 0, 10192
2, 138990, Pitch_bend_c, 0, 11192
2, 139005, Pitch_bend_c, 0, 12192
2, 139020, Pitch_bend_c, 0, 13192
2, 139035, Pitch_bend_c, 0, 14192
2, 139050, Pitch_bend_c, 0, 15192
2, 139065, Pitch_bend_c, 0, 16192
2, 140153, Note_off_c, 0, 67, 64
2, 140160, Note_on_c, 0, 69, 100
2, 140160, Pitch_bend_c, 0, 8192
2, 140280, Note_off_c, 0, 69, 64
2, 140280, Note_on_c, 0, 67, 100
2, 140400, Note_off_c, 0, 67, 64
2, 140400, Note_on_c, 0, 65, 100
2, 140520, Note_off_c, 0, 65, 64
2, 140520, Note_on_c, 0, 67, 100
2, 140640, Note_off_c, 0, 67, 64
2, 140640, Note_on_c, 0, 69, 100
2, 141120, Note_off_c, 0, 69, 64
2, 141120, Note_on_c, 0, 67, 100
2, 141360, Note_off_c, 0, 67, 64
2, 141360, Note_on_c, 0, 65, 100
2, 141600, Note_off_c, 0, 65, 64
2, 141600, Note_on_c, 0, 64, 100
2, 141840, Note_off_c, 0, 64, 64
2, 141840, Note_on_c, 0, 67, 100
2, 142080, Note_off_c, 0, 67, 64
2, 142080, Pitch_bend_c, 0, 9192
2, 142080, Note_on_c, 0, 69, 100
2, 142095, Pitch_bend_c, 0, 10192
2, 142110, Pitch_bend_c, 0, 11192
2, 142125, Pitch_bend_c, 0, 12192
2, 142140, Pitch_bend_c, 0, 13192
2, 142155, Pitch_bend_c, 0, 14192
2, 142170, Pitch_bend_c, 0, 15192
2, 142185, Pitch_bend_c, 0, 16192
2, 142800, Note_off_c, 0, 69, 64
2, 142800, Pitch_bend_c, 0, 8192
2, 142800, Pitch_bend_c, 0, 9192
2, 142800, Note_on_c, 0, 69, 100
2, 142815, Pitch_bend_c, 0, 10192
2, 142830, Pitch_bend_c, 0, 11192
2, 142845, Pitch_bend_c, 0, 12192
2, 143993, Note_off_c, 0, 69, 64
2, 144000, Note_on_c, 0, 69, 100
2, 144000, Pitch_bend_c, 0, 8192
2, 144240, Note_off_c, 0, 69, 64
2, 144240, Note_on_c, 0, 70, 100
2, 144360, Note_off_c, 0, 70, 64
2, 144360, Note_on_c, 0, 69, 100
2, 144480, Note_off_c, 0, 69, 64
2, 144480, Note_on_c, 0, 70, 100
2, 144600, Note_off_c, 0, 70, 64
2, 144600, Note_on_c, 0, 72, 100
2, 144720, Note_off_c, 0, 72, 64
2, 144720, Pitch_bend_c, 0, 9192
2, 144720, Note_on_c, 0, 67, 100
2, 144735, Pitch_bend_c, 0, 10192
2, 144750, Pitch_bend_c, 0, 11192
2, 144765, Pitch_bend_c, 0, 12192
2, 144780, Pitch_bend_c, 0, 13192
2, 144795, Pitch_bend_c, 0, 14192
2, 144810, Pitch_bend_c, 0, 15192
2, 144825, Pitch_bend_c, 0, 16192
2, 144953, Note_off_c, 0, 67, 64
2, 144960, Note_on_c, 0, 67, 100
2, 144960, Pitch_bend_c, 0, 8192
2, 145200, Note_off_c, 0, 67, 64
2, 145200, Note_on_c, 0, 65, 100
2, 145440, Note_off_c, 0, 65, 64
2, 145440, Pitch_bend_c, 0, 9192
2, 145440, Note_on_c, 0, 62, 100
2, 145455, Pitch_bend_c, 0, 10192
2, 145470, Pitch_bend_c, 0, 11192
2, 145485, Pitch_bend_c, 0, 12192
2, 145500, Pitch_bend_c, 0, 13192
2, 145515, Pitch_bend_c, 0, 14192
2, 145530, Pitch_bend_c, 0, 15192
2, 145545, Pitch_bend_c, 0, 16192
2, 145680, Control_c, 0, 1, 127
2, 146400, Note_off_c, 0, 62, 64
2, 146400, Note_on_c, 0, 62, 65
2, 146400, Control_c, 0, 1, 0
2, 146400, Pitch_bend_c, 0, 8192
2, 146430, Note_off_c, 0, 62, 64
2, 146430, Note_on_c, 0, 61, 65
2, 146460, Note_off_c, 0, 61, 64
2, 146460, Note_on_c, 0, 60, 65
2, 146490, Note_off_c, 0, 60, 64
2, 146494, Note_on_c, 0, 59, 65
2, 146524, Note_off_c, 0, 59, 64
2, 146524, Note_on_c, 0, 58, 65
2, 146554, Note_off_c, 0, 58, 64
2, 146554, Note_on_c, 0, 57, 65
2, 146584, Note_off_c, 0, 57, 64
2, 160320, Pitch_bend_c, 0, 9192
2, 160320, Note_on_c, 0, 52, 100
2, 160335, Pitch_bend_c, 0, 10192
2, 160350, Pitch_bend_c, 0, 11192
2, 160365, Pitch_bend_c, 0, 12192
2, 160380, Pitch_bend_c, 0, 13192
2, 160395, Pitch_bend_c, 0, 14192
2, 160410, Pitch_bend_c, 0, 15192
2, 160425, Pitch_bend_c, 0, 16192
2, 160560, Note_off_c, 0, 52, 64
2, 160560, Note_on_c, 0, 59, 100
2, 160560, Pitch_bend_c, 0, 8192
2, 160800, Note_off_c, 0, 59, 64
2, 160800, Note_on_c, 0, 61, 100
2, 161040, Note_off_c, 0, 61, 64
2, 161040, Note_on_c, 0, 63, 100
2, 161280, Note_off_c, 0, 63, 64
2, 161280, Note_on_c, 0, 64, 100
2, 162720, Note_off_c, 0, 64, 64
2, 162720, Note_on_c, 0, 66, 100
2, 163380, Note_on_c, 0, 65, 65
2, 163382, Note_off_c, 0, 66, 64
2, 163400, Note_off_c, 0, 65, 64
2, 163400, Note_on_c, 0, 66, 65
2, 163420, Note_off_c, 0, 66, 64
2, 163420, Note_on_c, 0, 67, 65
2, 163440, Note_off_c, 0, 67, 64
2, 163440, Note_on_c, 0, 68, 100
2, 164400, Note_off_c, 0, 68, 64
2, 164640, Note_on_c, 0, 67, 95
2, 164655, Pitch_bend_c, 0, 9192
2, 164670, Pitch_bend_c, 0, 10192
2, 164685, Pitch_bend_c, 0, 11192
2, 164700, Pitch_bend_c, 0, 12192
2, 164715, Pitch_bend_c, 0, 13192
2, 164730, Pitch_bend_c, 0, 14192
2, 164745, Pitch_bend_c, 0, 15192
2, 164760, Pitch_bend_c, 0, 16192
2, 165360, Pitch_bend_c, 0, 15192
2, 165410, Pitch_bend_c, 0, 14192
2, 165460, Pitch_bend_c, 0, 13192
2, 165510, Pitch_bend_c, 0, 12192
2, 165560, Pitch_bend_c, 0, 11192
2, 165610, Pitch_bend_c, 0, 10192
2, 165660, Pitch_bend_c, 0, 9192
2, 165710, Pitch_bend_c, 0, 8192
2, 165712, Note_on_c, 0, 66, 100
2, 165717, Note_off_c, 0, 67, 64
2, 165772, Note_off_c, 0, 66, 64
2, 165780, Note_on_c, 0, 68, 85
2, 165840, Note_off_c, 0, 68, 64
2, 165840, Note_on_c, 0, 66, 100
2, 166080, Control_c, 0, 1, 125
2, 167280, Note_off_c, 0, 66, 64
2, 167280, Note_on_c, 0, 64, 100
2, 167280, Control_c, 0, 1, 0
2, 167330, Note_off_c, 0, 64, 64
2, 167330, Note_on_c, 0, 63, 100
2, 168000, Note_on_c, 0, 64, 100
2, 168005, Note_off_c, 0, 63, 64
2, 168480, Note_off_c, 0, 64, 64
2, 168480, Note_on_c, 0, 59, 80
2, 168720, Note_off_c, 0, 59, 64
2, 168720, Note_on_c, 0, 66, 100
2, 169170, Note_off_c, 0, 66, 64
2, 169170, Note_on_c, 0, 65, 60
2, 169200, Note_off_c, 0, 65, 64
2, 169200, Note_on_c, 0, 66, 100
2, 169920, Note_off_c, 0, 66, 64
2, 169920, Pitch_bend_c, 0, 9192
2, 169920, Note_on_c, 0, 66, 100
2, 169935, Pitch_bend_c, 0, 10192
2, 169950, Pitch_bend_c, 0, 11192
2, 169965, Pitch_bend_c, 0, 12192
2, 169980, Pitch_bend_c, 0, 13192
2, 169995, Pitch_bend_c, 0, 14192
2, 170010, Pitch_bend_c, 0, 15192
2, 170025, Pitch_bend_c, 0, 16192
2, 170639, Pitch_bend_c, 0, 8192
2, 170640, Note_on_c, 0, 64, 100
2, 170647, Note_off_c, 0, 66, 64
2, 171600, Note_off_c, 0, 64, 64
2, 171840, Pitch_bend_c, 0, 9192
2, 171840, Note_on_c, 0, 63, 100
2, 171870, Pitch_bend_c, 0, 10192
2, 171900, Pitch_bend_c, 0, 11192
2, 171930, Pitch_bend_c, 0, 12192
2, 172320, Pitch_bend_c, 0, 11192
2, 172350, Pitch_bend_c, 0, 10192
2, 172380, Pitch_bend_c, 0, 9192
2, 172410, Pitch_bend_c, 0, 8192
2, 172437, Note_off_c, 0, 63, 64
2, 172440, Note_on_c, 0, 61, 100
2, 172560, Note_off_c, 0, 61, 64
2, 172560, Note_on_c, 0, 59, 100
2, 173753, Note_off_c, 0, 59, 64
2, 173760, Note_on_c, 0, 64, 100
2, 174480, Note_on_c, 0, 66, 100
2, 174487, Note_off_c, 0, 64, 64
2, 175193, Note_off_c, 0, 66, 64
2, 175200, Pitch_bend_c, 0, 9192
2, 175200, Note_on_c, 0, 64, 100
2, 175215, Pitch_bend_c, 0, 10192
2, 175230, Pitch_bend_c, 0, 11192
2, 175245, Pitch_bend_c, 0, 12192
2, 175260, Pitch_bend_c, 0, 13192
2, 175275, Pitch_bend_c, 0, 14192
2, 175290, Pitch_bend_c, 0, 15192
2, 175305, Pitch_bend_c, 0, 16192
2, 175440, Note_off_c, 0, 64, 64
2, 175440, Note_on_c, 0, 71, 100
2, 175440, Pitch_bend_c, 0, 8192
2, 175680, Note_off_c, 0, 71, 64
2, 175680, Note_on_c, 0, 73, 100
2, 175920, Note_off_c, 0, 73, 64
2, 175920, Note_on_c, 0, 75, 100
2, 176160, Note_off_c, 0, 75, 64
2, 176160, Note_on_c, 0, 78, 100
2, 176190, Note_off_c, 0, 78, 64
2, 176190, Note_on_c, 0, 76, 100
2, 177600, Note_on_c, 0, 78, 100
2, 177604, Note_off_c, 0, 76, 64
2, 178080, Note_off_c, 0, 78, 64
2, 178080, Note_on_c, 0, 71, 100
2, 178320, Note_off_c, 0, 71, 64
2, 178320, Note_on_c, 0, 78, 100
2, 178320, Pitch_bend_c, 0, 9192
2, 178335, Pitch_bend_c, 0, 10192
2, 178350, Pitch_bend_c, 0, 11192
2, 178365, Pitch_bend_c, 0, 12192
2, 178380, Pitch_bend_c, 0, 13192
2, 178395, Pitch_bend_c, 0, 14192
2, 178410, Pitch_bend_c, 0, 15192
2, 178425, Pitch_bend_c, 0, 16192
2, 179515, Pitch_bend_c, 0, 8192
2, 179520, Note_off_c, 0, 78, 64
2, 179520, Note_on_c, 0, 81, 100
2, 179760, Note_off_c, 0, 81, 64
2, 179760, Pitch_bend_c, 0, 9192
2, 179760, Note_on_c, 0, 78, 100
2, 179775, Pitch_bend_c, 0, 10192
2, 179790, Pitch_bend_c, 0, 11192
2, 179805, Pitch_bend_c, 0, 12192
2, 179820, Pitch_bend_c, 0, 13192
2, 179835, Pitch_bend_c, 0, 14192
2, 179850, Pitch_bend_c, 0, 15192
2, 179865, Pitch_bend_c, 0, 16192
2, 180290, Pitch_bend_c, 0, 15192
2, 180340, Pitch_bend_c, 0, 14192
2, 180390, Pitch_bend_c, 0, 13192
2, 180440, Pitch_bend_c, 0, 12192
2, 180490, Pitch_bend_c, 0, 11192
2, 180540, Pitch_bend_c, 0, 10192
2, 180590, Pitch_bend_c, 0, 9192
2, 180600, Note_off_c, 0, 78, 64
2, 180600, Pitch_bend_c, 0, 8192
2, 180600, Note_on_c, 0, 76, 100
2, 180720, Note_off_c, 0, 76, 64
2, 180720, Note_on_c, 0, 78, 100
2, 180960, Control_c, 0, 1, 127
2, 181680, Note_off_c, 0, 78, 64
2, 181920, Control_c, 0, 1, 0
2, 181920, Note_on_c, 0, 76, 100
2, 182160, Note_off_c, 0, 76, 64
2, 182160, Note_on_c, 0, 76, 100
2, 182210, Note_off_c, 0, 76, 64
2, 182210, Note_on_c, 0, 75, 100
2, 182880, Note_on_c, 0, 76, 100
2, 182885, Note_off_c, 0, 75, 64
2, 183360, Note_off_c, 0, 76, 64
2, 183360, Note_on_c, 0, 66, 100
2, 183600, Note_off_c, 0, 66, 64
2, 183600, Note_on_c, 0, 78, 100
2, 183840, Note_off_c, 0, 78, 64
2, 183840, Note_on_c, 0, 66, 100
2, 184080, Note_off_c, 0, 66, 64
2, 184080, Note_on_c, 0, 76, 100
2, 184120, Note_off_c, 0, 76, 64
2, 184120, Note_on_c, 0, 78, 100
2, 184800, Note_off_c, 0, 78, 64
2, 184800, Note_on_c, 0, 80, 100
2, 185520, Note_on_c, 0, 78, 70
2, 185527, Note_off_c, 0, 80, 64
2, 185560, Note_off_c, 0, 78, 64
2, 185560, Note_on_c, 0, 76, 100
2, 186598, Note_off_c, 0, 76, 64
2, 186720, Pitch_bend_c, 0, 9192
2, 186720, Note_on_c, 0, 75, 100
2, 186750, Pitch_bend_c, 0, 10192
2, 186780, Pitch_bend_c, 0, 11192
2, 186810, Pitch_bend_c, 0, 12192
2, 187200, Pitch_bend_c, 0, 11192
2, 187230, Pitch_bend_c, 0, 10192
2, 187260, Pitch_bend_c, 0, 9192
2, 187290, Pitch_bend_c, 0, 8192
2, 187317, Note_off_c, 0, 75, 64
2, 187320, Note_on_c, 0, 73, 100
2, 187440, Note_off_c, 0, 73, 64
2, 187440, Note_on_c, 0, 71, 100
2, 189113, Note_off_c, 0, 71, 64
2, 189120, Note_on_c, 0, 68, 100
2, 189120, Pitch_bend_c, 0, 9192
2, 189150, Pitch_bend_c, 0, 10192
2, 189180, Pitch_bend_c, 0, 11192
2, 189210, Pitch_bend_c, 0, 12192
2, 189360, Note_off_c, 0, 68, 64
2, 189360, Note_on_c, 0, 68, 100
2, 189360, Pitch_bend_c, 0, 8192
2, 189600, Note_off_c, 0, 68, 64
2, 189600, Note_on_c, 0, 66, 100
2, 189840, Note_off_c, 0, 66, 64
2, 189840, Note_on_c, 0, 64, 100
2, 190080, Note_off_c, 0, 64, 64
2, 190080, Note_on_c, 0, 66, 100
2, 190320, Note_off_c, 0, 66, 64
2, 190320, Pitch_bend_c, 0, 9192
2, 190320, Note_on_c, 0, 66, 100
2, 190335, Pitch_bend_c, 0, 10192
2, 190350, Pitch_bend_c, 0, 11192
2, 190365, Pitch_bend_c, 0, 12192
2, 190380, Pitch_bend_c, 0, 13192
2, 190395, Pitch_bend_c, 0, 14192
2, 190410, Pitch_bend_c, 0, 15192
2, 190425, Pitch_bend_c, 0, 16192
2, 190560, Note_off_c, 0, 66, 64
2, 190560, Note_on_c, 0, 66, 100
2, 190560, Pitch_bend_c, 0, 8192
2, 190800, Note_off_c, 0, 66, 64
2, 190800, Note_on_c, 0, 64, 100
2, 191040, Note_off_c, 0, 64, 64
2, 191040, Note_on_c, 0, 63, 100
2, 191280, Note_off_c, 0, 63, 64
2, 191280, Note_on_c, 0, 64, 100
2, 192240, Note_off_c, 0, 64, 64
2, 192240, Pitch_bend_c, 0, 9192
2, 192240, Note_on_c, 0, 64, 100
2, 192255, Pitch_bend_c, 0, 10192
2, 192270, Pitch_bend_c, 0, 11192
2, 192285, Pitch_bend_c, 0, 12192
2, 192300, Pitch_bend_c, 0, 13192
2, 192315, Pitch_bend_c, 0, 14192
2, 192330, Pitch_bend_c, 0, 15192
2, 192345, Pitch_bend_c, 0, 16192
2, 192480, Note_off_c, 0, 64, 64
2, 192480, Note_on_c, 0, 71, 100
2, 192480, Pitch_bend_c, 0, 8192
2, 192720, Note_off_c, 0, 71, 64
2, 192720, Note_on_c, 0, 73, 100
2, 192960, Note_off_c, 0, 73, 64
2, 192960, Note_on_c, 0, 75, 100
2, 193200, Note_off_c, 0, 75, 64
2, 193200, Note_on_c, 0, 76, 100
2, 193440, Note_off_c, 0, 76, 64
2, 193440, Note_on_c, 0, 75, 100
2, 193680, Note_on_c, 0, 73, 100
2, 193687, Note_off_c, 0, 75, 64
2, 193913, Note_off_c, 0, 73, 64
2, 193920, Note_on_c, 0, 71, 100
2, 193920, Pitch_bend_c, 0, 9192
2, 193935, Pitch_bend_c, 0, 10192
2, 193950, Pitch_bend_c, 0, 11192
2, 193965, Pitch_bend_c, 0, 12192
2, 193980, Pitch_bend_c, 0, 13192
2, 193995, Pitch_bend_c, 0, 14192
2, 194010, Pitch_bend_c, 0, 15192
2, 194025, Pitch_bend_c, 0, 16192
2, 194160, Note_off_c, 0, 71, 64
2, 194160, Note_on_c, 0, 71, 100
2, 194160, Pitch_bend_c, 0, 8192
2, 194873, Note_off_c, 0, 71, 64
2, 194880, Note_on_c, 0, 66, 86
2, 195120, Note_off_c, 0, 66, 64
2, 195120, Note_on_c, 0, 75, 100
2, 195833, Note_off_c, 0, 75, 64
2, 195840, Note_on_c, 0, 76, 100
2, 196320, Note_off_c, 0, 76, 64
2, 196320, Note_on_c, 0, 66, 100
2, 196560, Note_off_c, 0, 66, 64
2, 196560, Pitch_bend_c, 0, 9192
2, 196560, Note_on_c, 0, 71, 95
2, 196575, Pitch_bend_c, 0, 10192
2, 196590, Pitch_bend_c, 0, 11192
2, 196605, Pitch_bend_c, 0, 12192
2, 196620, Pitch_bend_c, 0, 13192
2, 196635, Pitch_bend_c, 0, 14192
2, 196650, Pitch_bend_c, 0, 15192
2, 196665, Pitch_bend_c, 0, 16192
2, 197040, Pitch_bend_c, 0, 15192
2, 197090, Pitch_bend_c, 0, 14192
2, 197140, Pitch_bend_c, 0, 13192
2, 197190, Pitch_bend_c, 0, 12192
2, 197240, Pitch_bend_c, 0, 11192
2, 197280, Pitch_bend_c, 0, 9192
2, 197295, Pitch_bend_c, 0, 10192
2, 197310, Pitch_bend_c, 0, 11192
2, 197325, Pitch_bend_c, 0, 12192
2, 197340, Pitch_bend_c, 0, 13192
2, 197355, Pitch_bend_c, 0, 14192
2, 197370, Pitch_bend_c, 0, 15192
2, 197385, Pitch_bend_c, 0, 16192
2, 197520, Pitch_bend_c, 0, 15192
2, 197550, Pitch_bend_c, 0, 14192
2, 197580, Pitch_bend_c, 0, 13192
2, 197610, Pitch_bend_c, 0, 12192
2, 197640, Pitch_bend_c, 0, 11192
2, 197670, Pitch_bend_c, 0, 10192
2, 197700, Pitch_bend_c, 0, 9192
2, 197760, Pitch_bend_c, 0, 9192
2, 197775, Pitch_bend_c, 0, 10192
2, 197790, Pitch_bend_c, 0, 11192
2, 197805, Pitch_bend_c, 0, 12192
2, 197820, Pitch_bend_c, 0, 13192
2, 197835, Pitch_bend_c, 0, 14192
2, 197850, Pitch_bend_c, 0, 15192
2, 197865, Pitch_bend_c, 0, 16192
2, 197920, Pitch_bend_c, 0, 15192
2, 197940, Pitch_bend_c, 0, 14192
2, 197960, Pitch_bend_c, 0, 13192
2, 197970, Pitch_bend_c, 0, 12192
2, 197980, Pitch_bend_c, 0, 11192
2, 197990, Pitch_bend_c, 0, 10192
2, 198000, Pitch_bend_c, 0, 9192
2, 198015, Pitch_bend_c, 0, 10192
2, 198030, Pitch_bend_c, 0, 11192
2, 198045, Pitch_bend_c, 0, 12192
2, 198060, Pitch_bend_c, 0, 13192
2, 198075, Pitch_bend_c, 0, 14192
2, 198090, Pitch_bend_c, 0, 15192
2, 198105, Pitch_bend_c, 0, 16192
2, 198150, Pitch_bend_c, 0, 15192
2, 198170, Pitch_bend_c, 0, 14192
2, 198190, Pitch_bend_c, 0, 13192
2, 198210, Pitch_bend_c, 0, 12192
2, 198230, Pitch_bend_c, 0, 11192
2, 198260, Pitch_bend_c, 0, 10192
2, 198290, Pitch_bend_c, 0, 9192
2, 198330, Pitch_bend_c, 0, 8192
2, 198480, Note_off_c, 0, 71, 64
2, 198480, Note_on_c, 0, 69, 100
2, 198720, Note_off_c, 0, 69, 64
2, 198720, Note_on_c, 0, 68, 100
2, 198960, Note_off_c, 0, 68, 64
2, 198960, Note_on_c, 0, 69, 100
2, 200153, Note_off_c, 0, 69, 64
2, 200160, Note_on_c, 0, 71, 100
2, 200400, Pitch_bend_c, 0, 9192
2, 200400, Note_on_c, 0, 66, 88
2, 200407, Note_off_c, 0, 71, 64
2, 200415, Pitch_bend_c, 0, 10192
2, 200430, Pitch_bend_c, 0, 11192
2, 200445, Pitch_bend_c, 0, 12192
2, 200460, Pitch_bend_c, 0, 13192
2, 200475, Pitch_bend_c, 0, 14192
2, 200490, Pitch_bend_c, 0, 15192
2, 200505, Pitch_bend_c, 0, 16192
2, 201120, Note_off_c, 0, 66, 64
2, 201120, Pitch_bend_c, 0, 9192
2, 201120, Note_on_c, 0, 66, 100
2, 201135, Pitch_bend_c, 0, 10192
2, 201150, Pitch_bend_c, 0, 11192
2, 201165, Pitch_bend_c, 0, 12192
2, 201180, Pitch_bend_c, 0, 13192
2, 201195, Pitch_bend_c, 0, 14192
2, 201198, Pitch_bend_c, 0, 15192
2, 201200, Pitch_bend_c, 0, 16192
2, 201240, Pitch_bend_c, 0, 15192
2, 201250, Pitch_bend_c, 0, 14192
2, 201260, Pitch_bend_c, 0, 13192
2, 201270, Pitch_bend_c, 0, 12192
2, 201280, Pitch_bend_c, 0, 11192
2, 201290, Pitch_bend_c, 0, 10192
2, 201300, Pitch_bend_c, 0, 9192
2, 201300, Pitch_bend_c, 0, 8192
2, 201360, Note_on_c, 0, 64, 100
2, 201367, Note_off_c, 0, 66, 64
2, 201600, Control_c, 0, 1, 127
2, 202553, Note_off_c, 0, 64, 64
2, 202560, Control_c, 0, 1, 0
2, 202560, Note_on_c, 0, 56, 100
2, 202800, Note_off_c, 0, 56, 64
2, 202800, Note_on_c, 0, 64, 80
2, 202800, Note_on_c, 0, 61, 80
2, 202800, Pitch_bend_c, 0, 8192
2, 203280, Note_off_c, 0, 61, 64
2, 203280, Note_off_c, 0, 64, 64
2, 203280, Note_on_c, 0, 59, 100
2, 203513, Note_off_c, 0, 59, 64
2, 203520, Note_on_c, 0, 56, 100
2, 203760, Note_off_c, 0, 56, 64
2, 203760, Note_on_c, 0, 52, 100
2, 204000, Note_off_c, 0, 52, 64
2, 204000, Note_on_c, 0, 54, 100
2, 204240, Note_off_c, 0, 54, 64
2, 204240, Note_on_c, 0, 56, 100
2, 204480, Note_off_c, 0, 56, 64
2, 204480, Note_on_c, 0, 54, 100
2, 204720, Control_c, 0, 1, 127
2, 205440, Note_off_c, 0, 54, 64
2, 205440, Note_on_c, 0, 54, 90
2, 205440, Control_c, 0, 1, 0
2, 205560, Note_off_c, 0, 54, 64
2, 205560, Note_on_c, 0, 52, 90
2, 205680, Note_off_c, 0, 52, 64
2, 205680, Note_on_c, 0, 56, 100
2, 205760, Note_off_c, 0, 56, 64
2, 205760, Note_on_c, 0, 57, 100
2, 205840, Note_off_c, 0, 57, 64
2, 205840, Note_on_c, 0, 59, 100
2, 205920, Note_off_c, 0, 59, 64
2, 205920, Note_on_c, 0, 61, 100
2, 206000, Note_off_c, 0, 61, 64
2, 206000, Note_on_c, 0, 63, 100
2, 206080, Note_off_c, 0, 63, 64
2, 206080, Note_on_c, 0, 64, 100
2, 206160, Note_off_c, 0, 64, 64
2, 206160, Note_on_c, 0, 61, 100
2, 206240, Note_off_c, 0, 61, 64
2, 206240, Note_on_c, 0, 63, 100
2, 206320, Note_off_c, 0, 63, 64
2, 206320, Note_on_c, 0, 64, 100
2, 206400, Note_off_c, 0, 64, 64
2, 206400, Note_on_c, 0, 66, 100
2, 206480, Note_off_c, 0, 66, 64
2, 206480, Note_on_c, 0, 68, 100
2, 206560, Note_off_c, 0, 68, 64
2, 206560, Note_on_c, 0, 71, 100
2, 206640, Note_off_c, 0, 71, 64
2, 206640, Pitch_bend_c, 0, 9192
2, 206640, Note_on_c, 0, 71, 100
2, 206655, Pitch_bend_c, 0, 10192
2, 206670, Pitch_bend_c, 0, 11192
2, 206685, Pitch_bend_c, 0, 12192
2, 206700, Pitch_bend_c, 0, 13192
2, 206715, Pitch_bend_c, 0, 14192
2, 206730, Pitch_bend_c, 0, 15192
2, 206745, Pitch_bend_c, 0, 16192
2, 207120, Pitch_bend_c, 0, 15192
2, 207170, Pitch_bend_c, 0, 14192
2, 207220, Pitch_bend_c, 0, 13192
2, 207270, Pitch_bend_c, 0, 12192
2, 207320, Pitch_bend_c, 0, 11192
2, 207353, Note_off_c, 0, 71, 64
2, 207360, Pitch_bend_c, 0, 9192
2, 207360, Pitch_bend_c, 0, 8192
2, 207360, Note_on_c, 0, 69, 100
2, 207593, Note_on_c, 0, 71, 100
2, 207600, Note_off_c, 0, 69, 64
2, 207833, Note_off_c, 0, 71, 64
2, 207833, Note_on_c, 0, 73, 100
2, 208073, Note_off_c, 0, 73, 64
2, 208080, Note_on_c, 0, 75, 100
2, 208320, Note_off_c, 0, 75, 64
2, 208320, Pitch_bend_c, 0, 9192
2, 208320, Note_on_c, 0, 75, 100
2, 208350, Pitch_bend_c, 0, 10192
2, 208380, Pitch_bend_c, 0, 11192
2, 208410, Pitch_bend_c, 0, 12192
2, 208680, Pitch_bend_c, 0, 11192
2, 208720, Pitch_bend_c, 0, 10192
2, 208760, Pitch_bend_c, 0, 9192
2, 208800, Pitch_bend_c, 0, 8192
2, 209040, Note_on_c, 0, 73, 100
2, 209047, Note_off_c, 0, 75, 64
2, 209280, Note_off_c, 0, 73, 64
2, 209280, Pitch_bend_c, 0, 9192
2, 209280, Note_on_c, 0, 76, 100
2, 209295, Pitch_bend_c, 0, 10192
2, 209310, Pitch_bend_c, 0, 11192
2, 209325, Pitch_bend_c, 0, 12192
2, 209340, Pitch_bend_c, 0, 13192
2, 209355, Pitch_bend_c, 0, 14192
2, 209358, Pitch_bend_c, 0, 15192
2, 209360, Pitch_bend_c, 0, 16192
2, 210240, Note_off_c, 0, 76, 64
2, 210240, Note_on_c, 0, 71, 100
2, 210240, Pitch_bend_c, 0, 8192
2, 210480, Note_off_c, 0, 71, 64
2, 210480, Note_on_c, 0, 83, 100
2, 210960, Note_off_c, 0, 83, 64
2, 210960, Note_on_c, 0, 81, 100
2, 211080, Note_off_c, 0, 81, 64
2, 211080, Note_on_c, 0, 80, 100
2, 211200, Note_off_c, 0, 80, 64
2, 211200, Note_on_c, 0, 78, 100
2, 211680, Note_off_c, 0, 78, 64
2, 211680, Note_on_c, 0, 80, 100
2, 211920, Note_on_c, 0, 76, 100
2, 211927, Note_off_c, 0, 80, 64
2, 212516, Note_off_c, 0, 76, 64
2, 212522, Note_on_c, 0, 75, 60
2, 212562, Note_off_c, 0, 75, 64
2, 212562, Note_on_c, 0, 74, 60
2, 212602, Note_off_c, 0, 74, 64
2, 212602, Note_on_c, 0, 73, 60
2, 212642, Note_off_c, 0, 73, 64
2, 212642, Note_on_c, 0, 72, 60
2, 212682, Note_off_c, 0, 72, 64
2, 212682, Note_on_c, 0, 71, 60
2, 212722, Note_off_c, 0, 71, 64
2, 212722, Note_on_c, 0, 70, 60
2, 212762, Note_off_c, 0, 70, 64
2, 212762, Note_on_c, 0, 69, 60
2, 212802, Note_off_c, 0, 69, 64
2, 212880, Note_on_c, 0, 76, 100
2, 213000, Note_off_c, 0, 76, 64
2, 213000, Note_on_c, 0, 75, 100
2, 213120, Note_off_c, 0, 75, 64
2, 213120, Note_on_c, 0, 73, 100
2, 213240, Note_off_c, 0, 73, 64
2, 213240, Note_on_c, 0, 71, 100
2, 213360, Note_off_c, 0, 71, 64
2, 213360, Note_on_c, 0, 69, 100
2, 213480, Note_off_c, 0, 69, 64
2, 213480, Note_on_c, 0, 68, 100
2, 213600, Note_off_c, 0, 68, 64
2, 213600, Note_on_c, 0, 66, 100
2, 213720, Note_off_c, 0, 66, 64
2, 213720, Note_on_c, 0, 68, 100
2, 213840, Note_off_c, 0, 68, 64
2, 213840, Note_on_c, 0, 69, 100
2, 213960, Note_off_c, 0, 69, 64
2, 213960, Note_on_c, 0, 71, 100
2, 214080, Note_off_c, 0, 71, 64
2, 214080, Note_on_c, 0, 73, 100
2, 214200, Note_off_c, 0, 73, 64
2, 214200, Note_on_c, 0, 76, 100
2, 214320, Note_off_c, 0, 76, 64
2, 214320, Note_on_c, 0, 78, 100
2, 214560, Control_c, 0, 1, 127
2, 215280, Note_off_c, 0, 78, 64
2, 215289, Note_on_c, 0, 77, 55
2, 215289, Control_c, 0, 1, 0
2, 215329, Note_off_c, 0, 77, 64
2, 215329, Note_on_c, 0, 76, 55
2, 215369, Note_off_c, 0, 76, 64
2, 215369, Note_on_c, 0, 75, 55
2, 215409, Note_off_c, 0, 75, 64
2, 215409, Note_on_c, 0, 74, 55
2, 215449, Note_off_c, 0, 74, 64
2, 215449, Note_on_c, 0, 73, 55
2, 215489, Note_off_c, 0, 73, 64
2, 215489, Note_on_c, 0, 72, 55
2, 215529, Note_off_c, 0, 72, 64
2, 215529, Note_on_c, 0, 71, 55
2, 215560, Note_on_c, 0, 70, 55
2, 215569, Note_off_c, 0, 71, 64
2, 215600, Note_off_c, 0, 70, 64
2, 215600, Note_on_c, 0, 69, 55
2, 215640, Note_off_c, 0, 69, 64
2, 215640, Note_on_c, 0, 68, 55
2, 215680, Note_off_c, 0, 68, 64
2, 216000, Note_on_c, 0, 71, 100
2, 216240, Note_off_c, 0, 71, 64
2, 216240, Note_on_c, 0, 78, 100
2, 216240, Pitch_bend_c, 0, 9192
2, 216255, Pitch_bend_c, 0, 10192
2, 216270, Pitch_bend_c, 0, 11192
2, 216285, Pitch_bend_c, 0, 12192
2, 216300, Pitch_bend_c, 0, 13192
2, 216315, Pitch_bend_c, 0, 14192
2, 216330, Pitch_bend_c, 0, 15192
2, 216345, Pitch_bend_c, 0, 16192
2, 216720, Pitch_bend_c, 0, 9192
2, 216735, Pitch_bend_c, 0, 10192
2, 216750, Pitch_bend_c, 0, 11192
2, 216765, Pitch_bend_c, 0, 12192
2, 216780, Pitch_bend_c, 0, 13192
2, 216795, Pitch_bend_c, 0, 14192
2, 216810, Pitch_bend_c, 0, 15192
2, 216825, Pitch_bend_c, 0, 16192
2, 217200, Pitch_bend_c, 0, 9192
2, 217215, Pitch_bend_c, 0, 10192
2, 217230, Pitch_bend_c, 0, 11192
2, 217245, Pitch_bend_c, 0, 12192
2, 217260, Pitch_bend_c, 0, 13192
2, 217275, Pitch_bend_c, 0, 14192
2, 217290, Pitch_bend_c, 0, 15192
2, 217305, Pitch_bend_c, 0, 16192
2, 217410, Note_on_c, 0, 77, 55
2, 217433, Note_off_c, 0, 78, 64
2, 217450, Note_off_c, 0, 77, 64
2, 217450, Note_on_c, 0, 76, 55
2, 217490, Note_off_c, 0, 76, 64
2, 217490, Note_on_c, 0, 75, 55
2, 217530, Note_off_c, 0, 75, 64
2, 217530, Note_on_c, 0, 74, 55
2, 217570, Note_off_c, 0, 74, 64
2, 217570, Note_on_c, 0, 73, 55
2, 217610, Note_off_c, 0, 73, 64
2, 217610, Note_on_c, 0, 72, 55
2, 217650, Note_off_c, 0, 72, 64
2, 217680, Note_on_c, 0, 64, 90
2, 217680, Pitch_bend_c, 0, 8192
2, 217920, Note_off_c, 0, 64, 64
2, 217920, Note_on_c, 0, 69, 90
2, 218160, Note_off_c, 0, 69, 64
2, 218160, Note_on_c, 0, 71, 84
2, 218873, Note_off_c, 0, 71, 64
2, 218880, Note_on_c, 0, 72, 84
2, 219120, Note_off_c, 0, 72, 64
2, 219120, Note_on_c, 0, 69, 84
2, 219600, Control_c, 0, 1, 127
2, 220793, Note_off_c, 0, 69, 64
2, 220815, Note_on_c, 0, 68, 45
2, 220855, Note_off_c, 0, 68, 64
2, 220855, Note_on_c, 0, 67, 45
2, 220895, Note_off_c, 0, 67, 64
2, 220895, Note_on_c, 0, 66, 45
2, 220935, Note_off_c, 0, 66, 64
2, 220935, Note_on_c, 0, 65, 45
2, 220975, Note_off_c, 0, 65, 64
2, 220975, Note_on_c, 0, 64, 45
2, 221015, Note_off_c, 0, 64, 64
2, 221015, Note_on_c, 0, 63, 45
2, 221055, Note_off_c, 0, 63, 64
2, 221055, Note_on_c, 0, 62, 45
2, 221095, Note_off_c, 0, 62, 64
2, 221510, Control_c, 0, 1, 0
2, 221520, Note_on_c, 0, 68, 75
2, 222000, Note_off_c, 0, 68, 64
2, 222000, Note_on_c, 0, 66, 75
2, 224218, Note_off_c, 0, 66, 64
2, 224235, Note_on_c, 0, 65, 45
2, 224275, Note_off_c, 0, 65, 64
2, 224275, Note_on_c, 0, 64, 45
2, 224315, Note_off_c, 0, 64, 64
2, 224315, Note_on_c, 0, 63, 45
2, 224355, Note_off_c, 0, 63, 64
2, 224355, Note_on_c, 0, 62, 45
2, 224395, Note_off_c, 0, 62, 64
2, 224395, Note_on_c, 0, 61, 45
2, 224435, Note_off_c, 0, 61, 64
2, 224435, Note_on_c, 0, 60, 45
2, 224475, Note_off_c, 0, 60, 64
2, 224475, Note_on_c, 0, 59, 45
2, 224515, Note_off_c, 0, 59, 64
2, 225360, Note_on_c, 0, 59, 77
2, 225600, Note_off_c, 0, 59, 64
2, 225600, Note_on_c, 0, 64, 77
2, 225840, Note_off_c, 0, 64, 64
2, 225840, Note_on_c, 0, 63, 82
2, 228953, Note_off_c, 0, 63, 64
2, 229680, Note_on_c, 0, 49, 90
2, 229680, Note_on_c, 0, 56, 90
2, 229680, Note_on_c, 0, 61, 90
2, 230880, Note_off_c, 0, 61, 64
2, 230880, Note_off_c, 0, 56, 64
2, 230880, Note_off_c, 0, 49, 64
2, 230880, Note_on_c, 0, 44, 90
2, 230880, Note_on_c, 0, 51, 90
2, 230880, Note_on_c, 0, 56, 90
2, 231600, Note_off_c, 0, 56, 64
2, 231600, Note_off_c, 0, 51, 64
2, 231600, Note_off_c, 0, 44, 64
2, 231600, Note_on_c, 0, 45, 90
2, 231600, Note_on_c, 0, 57, 90
2, 231600, Note_on_c, 0, 52, 90
2, 232800, Note_off_c, 0, 52, 64
2, 232800, Note_off_c, 0, 57, 64
2, 232800, Note_off_c, 0, 45, 64
2, 232800, Note_on_c, 0, 52, 90
2, 232800, Note_on_c, 0, 59, 90
2, 233520, Note_off_c, 0, 59, 64
2, 233520, Note_off_c, 0, 52, 64
2, 233520, Note_on_c, 0, 51, 90
2, 233520, Note_on_c, 0, 59, 90
2, 234720, Note_off_c, 0, 59, 64
2, 234720, Note_off_c, 0, 51, 64
2, 234720, Note_on_c, 0, 47, 90
2, 234720, Note_on_c, 0, 54, 90
2, 234720, Note_on_c, 0, 59, 90
2, 235680, Note_off_c, 0, 59, 64
2, 235680, Note_off_c, 0, 54, 64
2, 235680, Note_off_c, 0, 47, 64
2, 235680, Note_on_c, 0, 45, 90
2, 235680, Note_on_c, 0, 57, 90
2, 235680, Note_on_c, 0, 52, 90
2, 236400, Note_off_c, 0, 52, 64
2, 236400, Note_off_c, 0, 57, 64
2, 236400, Note_off_c, 0, 45, 64
2, 236400, Note_on_c, 0, 44, 90
2, 236640, Note_off_c, 0, 44, 64
2, 236640, Note_on_c, 0, 42, 90
2, 236880, Note_off_c, 0, 42, 64
2, 236880, Note_on_c, 0, 40, 90
2, 237360, Note_off_c, 0, 40, 64
2, 237360, Note_on_c, 0, 49, 90
2, 237360, Note_on_c, 0, 61, 90
2, 237360, Note_on_c, 0, 56, 90
2, 238560, Note_off_c, 0, 56, 64
2, 238560, Note_off_c, 0, 61, 64
2, 238560, Note_off_c, 0, 49, 64
2, 238560, Note_on_c, 0, 44, 90
2, 238560, Note_on_c, 0, 51, 90
2, 238560, Note_on_c, 0, 56, 90
2, 239280, Note_off_c, 0, 56, 64
2, 239280, Note_off_c, 0, 51, 64
2, 239280, Note_off_c, 0, 44, 64
2, 239280, Note_on_c, 0, 45, 90
2, 239280, Note_on_c, 0, 52, 90
2, 239280, Note_on_c, 0, 57, 90
2, 240000, Note_off_c, 0, 57, 64
2, 240000, Note_off_c, 0, 52, 64
2, 240000, Note_off_c, 0, 45, 64
2, 240000, Note_on_c, 0, 49, 90
2, 240000, Note_on_c, 0, 61, 90
2, 240000, Note_on_c, 0, 56, 90
2, 240720, Note_off_c, 0, 56, 64
2, 240720, Note_off_c, 0, 61, 64
2, 240720, Note_off_c, 0, 49, 64
2, 240720, Note_on_c, 0, 47, 90
2, 240720, Note_on_c, 0, 59, 90
2, 240720, Note_on_c, 0, 54, 90
2, 241920, Note_off_c, 0, 54, 64
2, 241920, Note_off_c, 0, 59, 64
2, 241920, Note_off_c, 0, 47, 64
2, 241920, Note_on_c, 0, 40, 90
2, 242640, Note_off_c, 0, 40, 64
2, 242640, Note_on_c, 0, 42, 90
2, 243360, Note_off_c, 0, 42, 64
2, 243360, Note_on_c, 0, 44, 90
2, 244080, Note_off_c, 0, 44, 64
2, 244080, Note_on_c, 0, 47, 90
2, 244320, Note_off_c, 0, 47, 64
2, 244320, Note_on_c, 0, 44, 90
2, 244560, Note_off_c, 0, 44, 64
2, 244560, Note_on_c, 0, 61, 90
2, 244560, Note_on_c, 0, 56, 90
2, 244560, Note_on_c, 0, 49, 90
2, 245760, Note_off_c, 0, 49, 64
2, 245760, Note_off_c, 0, 56, 64
2, 245760, Note_off_c, 0, 61, 64
2, 245760, Note_on_c, 0, 44, 90
2, 245760, Note_on_c, 0, 51, 90
2, 245760, Note_on_c, 0, 56, 90
2, 246480, Note_off_c, 0, 56, 64
2, 246480, Note_off_c, 0, 51, 64
2, 246480, Note_off_c, 0, 44, 64
2, 246480, Note_on_c, 0, 45, 90
2, 246480, Note_on_c, 0, 57, 90
2, 246480, Note_on_c, 0, 52, 90
2, 247680, Note_off_c, 0, 52, 64
2, 247680, Note_off_c, 0, 57, 64
2, 247680, Note_off_c, 0, 45, 64
2, 247680, Note_on_c, 0, 52, 90
2, 247680, Note_on_c, 0, 59, 90
2, 248400, Note_off_c, 0, 59, 64
2, 248400, Note_off_c, 0, 52, 64
2, 248400, Note_on_c, 0, 51, 90
2, 248400, Note_on_c, 0, 59, 90
2, 249600, Note_off_c, 0, 59, 64
2, 249600, Note_off_c, 0, 51, 64
2, 249600, Note_on_c, 0, 47, 90
2, 249600, Note_on_c, 0, 54, 90
2, 249600, Note_on_c, 0, 59, 90
2, 250560, Note_off_c, 0, 59, 64
2, 250560, Note_off_c, 0, 54, 64
2, 250560, Note_off_c, 0, 47, 64
2, 250560, Note_on_c, 0, 45, 90
2, 250560, Note_on_c, 0, 57, 90
2, 250560, Note_on_c, 0, 52, 90
2, 251280, Note_off_c, 0, 52, 64
2, 251280, Note_off_c, 0, 57, 64
2, 251280, Note_off_c, 0, 45, 64
2, 251280, Note_on_c, 0, 44, 90
2, 251520, Note_off_c, 0, 44, 64
2, 251520, Note_on_c, 0, 42, 90
2, 251760, Note_off_c, 0, 42, 64
2, 251760, Note_on_c, 0, 40, 90
2, 252240, Note_off_c, 0, 40, 64
2, 252240, Note_on_c, 0, 49, 90
2, 252240, Note_on_c, 0, 61, 90
2, 252240, Note_on_c, 0, 56, 90
2, 253440, Note_off_c, 0, 56, 64
2, 253440, Note_off_c, 0, 61, 64
2, 253440, Note_off_c, 0, 49, 64
2, 253440, Note_on_c, 0, 44, 90
2, 253440, Note_on_c, 0, 51, 90
2, 253440, Note_on_c, 0, 56, 90
2, 254160, Note_off_c, 0, 56, 64
2, 254160, Note_off_c, 0, 51, 64
2, 254160, Note_off_c, 0, 44, 64
2, 254160, Note_on_c, 0, 45, 90
2, 254160, Note_on_c, 0, 52, 90
2, 254160, Note_on_c, 0, 57, 90
2, 254880, Note_off_c, 0, 57, 64
2, 254880, Note_off_c, 0, 52, 64
2, 254880, Note_off_c, 0, 45, 64
2, 254880, Note_on_c, 0, 49, 90
2, 254880, Note_on_c, 0, 61, 90
2, 254880, Note_on_c, 0, 56, 90
2, 255600, Note_off_c, 0, 56, 64
2, 255600, Note_off_c, 0, 61, 64
2, 255600, Note_off_c, 0, 49, 64
2, 255600, Note_on_c, 0, 47, 90
2, 255600, Note_on_c, 0, 59, 90
2, 255600, Note_on_c, 0, 54, 90
2, 256800, Note_off_c, 0, 54, 64
2, 256800, Note_off_c, 0, 59, 64
2, 256800, Note_off_c, 0, 47, 64
2, 256800, Note_on_c, 0, 40, 90
2, 257520, Note_off_c, 0, 40, 64
2, 257520, Note_on_c, 0, 42, 90
2, 258240, Note_off_c, 0, 42, 64
2, 258240, Note_on_c, 0, 44, 90
2, 258960, Note_off_c, 0, 44, 64
2, 258960, Note_on_c, 0, 47, 90
2, 259200, Note_off_c, 0, 47, 64
2, 259200, Note_on_c, 0, 44, 90
2, 259440, Note_off_c, 0, 44, 64
2, 259440, Note_on_c, 0, 45, 90
2, 259440, Note_on_c, 0, 52, 90
2, 259440, Note_on_c, 0, 57, 90
2, 261360, Note_off_c, 0, 57, 64
2, 261360, Note_off_c, 0, 52, 64
2, 261360, Note_off_c, 0, 45, 64
2, 261360, Note_on_c, 0, 47, 90
2, 261360, Note_on_c, 0, 54, 90
2, 261360, Note_on_c, 0, 59, 90
2, 263280, Note_off_c, 0, 59, 64
2, 263280, Note_off_c, 0, 54, 64
2, 263280, Note_off_c, 0, 47, 64
2, 263280, Note_on_c, 0, 56, 90
2, 263280, Note_on_c, 0, 51, 90
2, 263280, Note_on_c, 0, 44, 90
2, 263993, Note_off_c, 0, 44, 64
2, 263993, Note_off_c, 0, 51, 64
2, 263993, Note_off_c, 0, 56, 64
2, 264000, Note_on_c, 0, 56, 90
2, 264000, Note_on_c, 0, 51, 90
2, 264000, Note_on_c, 0, 44, 90
2, 264720, Note_off_c, 0, 44, 64
2, 264720, Note_off_c, 0, 51, 64
2, 264720, Note_off_c, 0, 56, 64
2, 264720, Note_on_c, 0, 57, 90
2, 264720, Note_on_c, 0, 52, 90
2, 264720, Note_on_c, 0, 45, 90
2, 267120, Note_off_c, 0, 45, 64
2, 267120, Note_off_c, 0, 52, 64
2, 267120, Note_off_c, 0, 57, 64
2, 267120, Note_on_c, 0, 42, 90
2, 267120, Note_on_c, 0, 49, 90
2, 267120, Note_on_c, 0, 54, 90
2, 269040, Note_off_c, 0, 54, 64
2, 269040, Note_off_c, 0, 49, 64
2, 269040, Note_off_c, 0, 42, 64
2, 269040, Note_on_c, 0, 56, 90
2, 269040, Note_on_c, 0, 51, 90
2, 269040, Note_on_c, 0, 44, 90
2, 270960, Note_off_c, 0, 44, 64
2, 270960, Note_off_c, 0, 51, 64
2, 270960, Note_off_c, 0, 56, 64
2, 270960, Note_on_c, 0, 45, 90
2, 270960, Note_on_c, 0, 52, 90
2, 270960, Note_on_c, 0, 57, 90
2, 272400, Note_off_c, 0, 57, 64
2, 272400, Note_off_c, 0, 52, 64
2, 272400, Note_off_c, 0, 45, 64
2, 272400, Note_on_c, 0, 47, 90
2, 272400, Note_on_c, 0, 59, 90
2, 272400, Note_on_c, 0, 54, 90
2, 274800, Note_off_c, 0, 54, 64
2, 274800, Note_off_c, 0, 59, 64
2, 274800, Note_off_c, 0, 47, 64
2, 274800, Note_on_c, 0, 57, 90
2, 274800, Note_on_c, 0, 52, 90
2, 274800, Note_on_c, 0, 45, 90
2, 276720, Note_off_c, 0, 45, 64
2, 276720, Note_off_c, 0, 52, 64
2, 276720, Note_off_c, 0, 57, 64
2, 276720, Note_on_c, 0, 47, 90
2, 276720, Note_on_c, 0, 54, 90
2, 276720, Note_on_c, 0, 59, 90
2, 278640, Note_off_c, 0, 59, 64
2, 278640, Note_off_c, 0, 54, 64
2, 278640, Note_off_c, 0, 47, 64
2, 278640, Note_on_c, 0, 56, 90
2, 278640, Note_on_c, 0, 51, 90
2, 278640, Note_on_c, 0, 44, 90
2, 279353, Note_off_c, 0, 44, 64
2, 279353, Note_off_c, 0, 51, 64
2, 279353, Note_off_c, 0, 56, 64
2, 279360, Note_on_c, 0, 56, 90
2, 279360, Note_on_c, 0, 51, 90
2, 279360, Note_on_c, 0, 44, 90
2, 280080, Note_off_c, 0, 44, 64
2, 280080, Note_off_c, 0, 51, 64
2, 280080, Note_off_c, 0, 56, 64
2, 280080, Note_on_c, 0, 57, 90
2, 280080, Note_on_c, 0, 52, 90
2, 280080, Note_on_c, 0, 45, 90
2, 282233, Note_off_c, 0, 45, 64
2, 282233, Note_off_c, 0, 52, 64
2, 282233, Note_off_c, 0, 57, 64
2, 282240, Note_on_c, 0, 44, 100
2, 282480, Note_off_c, 0, 44, 64
2, 282480, Note_on_c, 0, 42, 90
2, 282480, Note_on_c, 0, 49, 90
2, 282480, Note_on_c, 0, 54, 90
2, 284400, Note_off_c, 0, 54, 64
2, 284400, Note_off_c, 0, 49, 64
2, 284400, Note_off_c, 0, 42, 64
2, 284400, Note_on_c, 0, 40, 90
2, 284400, Note_on_c, 0, 47, 90
2, 284400, Note_on_c, 0, 52, 90
2, 286320, Note_off_c, 0, 52, 64
2, 286320, Note_off_c, 0, 47, 64
2, 286320, Note_off_c, 0, 40, 64
2, 286320, Note_on_c, 0, 57, 75
2, 286320, Note_on_c, 0, 52, 75
2, 286320, Note_on_c, 0, 45, 75
2, 290160, Note_off_c, 0, 45, 64
2, 290160, Note_off_c, 0, 52, 64
2, 290160, Note_off_c, 0, 57, 64
2, 290160, Note_on_c, 0, 50, 75
2, 290160, Note_on_c, 0, 57, 75
2, 290160, Note_on_c, 0, 62, 75
2, 294000, Note_off_c, 0, 62, 64
2, 294000, Note_off_c, 0, 57, 64
2, 294000, Note_off_c, 0, 50, 64
2, 294000, Note_on_c, 0, 59, 75
2, 294000, Note_on_c, 0, 54, 75
2, 294000, Note_on_c, 0, 47, 75
2, 297830, Control_c, 0, 7, 100
2, 297840, Note_off_c, 0, 47, 64
2, 297840, Note_off_c, 0, 54, 64
2, 297840, Note_off_c, 0, 59, 64
2, 297840, Note_on_c, 0, 64, 100
2, 299040, Note_off_c, 0, 64, 64
2, 299040, Note_on_c, 0, 66, 100
2, 299280, Note_off_c, 0, 66, 64
2, 299280, Note_on_c, 0, 68, 100
2, 299520, Note_off_c, 0, 68, 64
2, 299520, Note_on_c, 0, 69, 100
2, 300000, Note_off_c, 0, 69, 64
2, 300000, Note_on_c, 0, 71, 100
2, 300240, Note_off_c, 0, 71, 64
2, 300240, Note_on_c, 0, 73, 100
2, 300480, Note_off_c, 0, 73, 64
2, 300480, Pitch_bend_c, 0, 9192
2, 300480, Note_on_c, 0, 73, 100
2, 300520, Pitch_bend_c, 0, 10192
2, 300560, Pitch_bend_c, 0, 11192
2, 300600, Pitch_bend_c, 0, 12192
2, 300840, Pitch_bend_c, 0, 11192
2, 300880, Pitch_bend_c, 0, 10192
2, 300920, Pitch_bend_c, 0, 9192
2, 300960, Pitch_bend_c, 0, 8192
2, 301200, Note_on_c, 0, 69, 100
2, 301207, Note_off_c, 0, 73, 64
2, 301680, Note_off_c, 0, 69, 64
2, 301680, Note_on_c, 0, 71, 100
2, 301920, Note_off_c, 0, 71, 64
2, 301920, Note_on_c, 0, 76, 100
2, 302160, Note_off_c, 0, 76, 64
2, 302160, Note_on_c, 0, 74, 100
2, 302400, Note_off_c, 0, 74, 64
2, 302400, Note_on_c, 0, 73, 100
2, 302880, Note_off_c, 0, 73, 64
2, 302880, Note_on_c, 0, 71, 100
2, 303120, Note_off_c, 0, 71, 64
2, 303120, Note_on_c, 0, 69, 100
2, 303360, Note_off_c, 0, 69, 64
2, 303360, Note_on_c, 0, 64, 100
2, 303600, Note_off_c, 0, 64, 64
2, 303600, Note_on_c, 0, 66, 100
2, 303840, Note_off_c, 0, 66, 64
2, 303840, Note_on_c, 0, 71, 100
2, 304080, Note_off_c, 0, 71, 64
2, 304080, Note_on_c, 0, 69, 100
2, 304320, Note_off_c, 0, 69, 64
2, 304320, Note_on_c, 0, 68, 100
2, 304380, Note_off_c, 0, 68, 64
2, 304380, Note_on_c, 0, 69, 100
2, 304440, Note_off_c, 0, 69, 64
2, 304440, Note_on_c, 0, 68, 100
2, 305520, Note_off_c, 0, 68, 64
2, 305520, Note_on_c, 0, 69, 100
2, 305760, Note_off_c, 0, 69, 64
2, 305760, Note_on_c, 0, 71, 100
2, 306000, Note_off_c, 0, 71, 64
2, 306000, Note_on_c, 0, 73, 100
2, 306480, Note_off_c, 0, 73, 64
2, 306484, Note_on_c, 0, 74, 100
2, 306720, Note_on_c, 0, 76, 100
2, 306724, Note_off_c, 0, 74, 64
2, 306960, Note_off_c, 0, 76, 64
2, 306960, Pitch_bend_c, 0, 9192
2, 306960, Note_on_c, 0, 76, 100
2, 306975, Pitch_bend_c, 0, 10192
2, 306990, Pitch_bend_c, 0, 11192
2, 307005, Pitch_bend_c, 0, 12192
2, 307020, Pitch_bend_c, 0, 13192
2, 307035, Pitch_bend_c, 0, 14192
2, 307050, Pitch_bend_c, 0, 15192
2, 307065, Pitch_bend_c, 0, 16192
2, 307440, Note_off_c, 0, 76, 64
2, 307440, Note_on_c, 0, 76, 100
2, 307440, Pitch_bend_c, 0, 8192
2, 307680, Note_off_c, 0, 76, 64
2, 307680, Note_on_c, 0, 74, 100
2, 307920, Note_off_c, 0, 74, 64
2, 307920, Note_on_c, 0, 69, 100
2, 308160, Note_off_c, 0, 69, 64
2, 308160, Note_on_c, 0, 71, 100
2, 308400, Note_off_c, 0, 71, 64
2, 308400, Note_on_c, 0, 69, 100
2, 308640, Note_off_c, 0, 69, 64
2, 308640, Note_on_c, 0, 67, 100
2, 308880, Note_off_c, 0, 67, 64
2, 308880, Pitch_bend_c, 0, 9192
2, 308880, Note_on_c, 0, 74, 100
2, 308895, Pitch_bend_c, 0, 10192
2, 308910, Pitch_bend_c, 0, 11192
2, 308925, Pitch_bend_c, 0, 12192
2, 308940, Pitch_bend_c, 0, 13192
2, 308955, Pitch_bend_c, 0, 14192
2, 308970, Pitch_bend_c, 0, 15192
2, 308985, Pitch_bend_c, 0, 16192
2, 309360, Note_off_c, 0, 74, 64
2, 309360, Note_on_c, 0, 74, 100
2, 309360, Pitch_bend_c, 0, 8192
2, 309600, Note_off_c, 0, 74, 64
2, 309600, Note_on_c, 0, 72, 100
2, 309840, Note_off_c, 0, 72, 64
2, 309840, Note_on_c, 0, 71, 100
2, 310080, Note_off_c, 0, 71, 64
2, 310080, Note_on_c, 0, 69, 100
2, 310320, Note_off_c, 0, 69, 64
2, 310320, Note_on_c, 0, 71, 100
2, 310560, Note_off_c, 0, 71, 64
2, 310560, Note_on_c, 0, 72, 100
2, 310800, Note_off_c, 0, 72, 64
2, 310800, Pitch_bend_c, 0, 9192
2, 310800, Note_on_c, 0, 75, 100
2, 310815, Pitch_bend_c, 0, 10192
2, 310830, Pitch_bend_c, 0, 11192
2, 310845, Pitch_bend_c, 0, 12192
2, 311040, Note_off_c, 0, 75, 64
2, 311040, Pitch_bend_c, 0, 8192
2, 311040, Note_on_c, 0, 75, 100
2, 311753, Note_off_c, 0, 75, 64
2, 311760, Note_on_c, 0, 71, 100
2, 311820, Note_off_c, 0, 71, 64
2, 311820, Note_on_c, 0, 72, 100
2, 311880, Note_off_c, 0, 72, 64
2, 311880, Note_on_c, 0, 73, 100
2, 311940, Note_off_c, 0, 73, 64
2, 311940, Note_on_c, 0, 74, 100
2, 312000, Note_off_c, 0, 74, 64
2, 312000, Note_on_c, 0, 76, 100
2, 312360, Note_off_c, 0, 76, 64
2, 312375, Note_on_c, 0, 75, 50
2, 312415, Note_off_c, 0, 75, 64
2, 312415, Note_on_c, 0, 74, 50
2, 312455, Note_off_c, 0, 74, 64
2, 312455, Note_on_c, 0, 73, 50
2, 312495, Note_off_c, 0, 73, 64
2, 312495, Note_on_c, 0, 72, 50
2, 312535, Note_off_c, 0, 72, 64
2, 312535, Note_on_c, 0, 71, 50
2, 312560, Note_on_c, 0, 70, 50
2, 312575, Note_off_c, 0, 71, 64
2, 312600, Note_off_c, 0, 70, 64
2, 312600, Note_on_c, 0, 69, 50
2, 312640, Note_off_c, 0, 69, 64
2, 312720, Pitch_bend_c, 0, 192
2, 312720, Note_on_c, 0, 71, 100
2, 312735, Pitch_bend_c, 0, 1192
2, 312750, Pitch_bend_c, 0, 2192
2, 312765, Pitch_bend_c, 0, 3192
2, 312780, Pitch_bend_c, 0, 4192
2, 312795, Pitch_bend_c, 0, 5192
2, 312810, Pitch_bend_c, 0, 6192
2, 312825, Pitch_bend_c, 0, 7192
2, 312840, Pitch_bend_c, 0, 8192
2, 312960, Note_off_c, 0, 71, 64
2, 312960, Note_on_c, 0, 76, 100
2, 313200, Note_off_c, 0, 76, 64
2, 313200, Note_on_c, 0, 78, 100
2, 313440, Note_off_c, 0, 78, 64
2, 313440, Note_on_c, 0, 80, 100
2, 313680, Note_off_c, 0, 80, 64
2, 313680, Note_on_c, 0, 81, 100
2, 314160, Note_off_c, 0, 81, 64
2, 314160, Note_on_c, 0, 83, 100
2, 314400, Note_off_c, 0, 83, 64
2, 314400, Note_on_c, 0, 76, 100
2, 314400, Pitch_bend_c, 0, 192
2, 314415, Pitch_bend_c, 0, 1192
2, 314430, Pitch_bend_c, 0, 2192
2, 314445, Pitch_bend_c, 0, 3192
2, 314460, Pitch_bend_c, 0, 4192
2, 314475, Pitch_bend_c, 0, 5192
2, 314490, Pitch_bend_c, 0, 6192
2, 314505, Pitch_bend_c, 0, 7192
2, 314520, Pitch_bend_c, 0, 8192
2, 314640, Note_off_c, 0, 76, 64
2, 314640, Note_on_c, 0, 74, 100
2, 315360, Note_off_c, 0, 74, 64
2, 315360, Note_on_c, 0, 74, 100
2, 315480, Note_off_c, 0, 74, 64
2, 315480, Note_on_c, 0, 73, 100
2, 315600, Note_off_c, 0, 73, 64
2, 315600, Note_on_c, 0, 71, 100
2, 315720, Note_off_c, 0, 71, 64
2, 315720, Note_on_c, 0, 69, 100
2, 315840, Note_off_c, 0, 69, 64
2, 315840, Note_on_c, 0, 80, 100
2, 315960, Note_off_c, 0, 80, 64
2, 315960, Note_on_c, 0, 76, 100
2, 316080, Note_off_c, 0, 76, 64
2, 316080, Note_on_c, 0, 71, 100
2, 316200, Note_off_c, 0, 71, 64
2, 316200, Note_on_c, 0, 68, 100
2, 316320, Note_off_c, 0, 68, 64
2, 316320, Note_on_c, 0, 64, 100
2, 316440, Note_off_c, 0, 64, 64
2, 316440, Note_on_c, 0, 68, 100
2, 316560, Note_off_c, 0, 68, 64
2, 316560, Pitch_bend_c, 0, 9192
2, 316560, Note_on_c, 0, 71, 100
2, 316575, Pitch_bend_c, 0, 10192
2, 316590, Pitch_bend_c, 0, 11192
2, 316605, Pitch_bend_c, 0, 12192
2, 316620, Pitch_bend_c, 0, 13192
2, 316635, Pitch_bend_c, 0, 14192
2, 316650, Pitch_bend_c, 0, 15192
2, 316665, Pitch_bend_c, 0, 16192
2, 316800, Control_c, 0, 1, 127
2, 317040, Note_off_c, 0, 71, 64
2, 317055, Note_on_c, 0, 70, 50
2, 317055, Control_c, 0, 1, 0
2, 317095, Note_off_c, 0, 70, 64
2, 317095, Note_on_c, 0, 69, 50
2, 317135, Note_off_c, 0, 69, 64
2, 317135, Note_on_c, 0, 68, 50
2, 317175, Note_off_c, 0, 68, 64
2, 317175, Note_on_c, 0, 67, 50
2, 317215, Note_off_c, 0, 67, 64
2, 317215, Note_on_c, 0, 66, 50
2, 317255, Note_off_c, 0, 66, 64
2, 317280, Pitch_bend_c, 0, 8192
2, 317280, Note_on_c, 0, 71, 100
2, 317400, Note_off_c, 0, 71, 64
2, 317400, Note_on_c, 0, 76, 100
2, 317520, Note_off_c, 0, 76, 64
2, 317520, Note_on_c, 0, 80, 100
2, 317640, Note_off_c, 0, 80, 64
2, 317640, Note_on_c, 0, 81, 100
2, 317760, Note_off_c, 0, 81, 64
2, 317760, Note_on_c, 0, 83, 100
2, 317880, Note_off_c, 0, 83, 64
2, 317880, Note_on_c, 0, 80, 100
2, 318000, Note_off_c, 0, 80, 64
2, 318000, Note_on_c, 0, 68, 100
2, 318120, Note_off_c, 0, 68, 64
2, 318120, Note_on_c, 0, 69, 100
2, 318240, Note_off_c, 0, 69, 64
2, 318240, Note_on_c, 0, 71, 100
2, 318360, Note_off_c, 0, 71, 64
2, 318360, Note_on_c, 0, 68, 100
2, 318480, Note_off_c, 0, 68, 64
2, 318480, Note_on_c, 0, 56, 100
2, 318600, Note_off_c, 0, 56, 64
2, 318600, Note_on_c, 0, 57, 100
2, 318720, Note_off_c, 0, 57, 64
2, 318720, Note_on_c, 0, 59, 100
2, 318840, Note_off_c, 0, 59, 64
2, 318840, Note_on_c, 0, 52, 100
2, 318960, Note_off_c, 0, 52, 64
2, 318960, Note_on_c, 0, 59, 100
2, 319200, Control_c, 0, 1, 127
2, 319440, Note_off_c, 0, 59, 64
2, 319455, Note_on_c, 0, 58, 50
2, 319495, Note_off_c, 0, 58, 64
2, 319495, Note_on_c, 0, 57, 50
2, 319535, Note_off_c, 0, 57, 64
2, 319535, Note_on_c, 0, 56, 50
2, 319575, Note_off_c, 0, 56, 64
2, 319575, Note_on_c, 0, 55, 50
2, 319615, Note_off_c, 0, 55, 64
2, 319615, Note_on_c, 0, 54, 50
2, 319655, Note_off_c, 0, 54, 64
2, 319680, Control_c, 0, 1, 0
2, 319680, Note_on_c, 0, 52, 100
2, 319800, Note_off_c, 0, 52, 64
2, 319800, Note_on_c, 0, 62, 100
2, 319920, Note_off_c, 0, 62, 64
2, 319920, Note_on_c, 0, 59, 100
2, 320040, Note_off_c, 0, 59, 64
2, 320040, Note_on_c, 0, 61, 100
2, 320160, Note_off_c, 0, 61, 64
2, 320160, Note_on_c, 0, 64, 100
2, 320280, Note_off_c, 0, 64, 64
2, 320280, Note_on_c, 0, 66, 100
2, 320400, Note_off_c, 0, 66, 64
2, 320400, Note_on_c, 0, 68, 100
2, 320480, Note_off_c, 0, 68, 64
2, 320480, Note_on_c, 0, 69, 100
2, 320560, Note_off_c, 0, 69, 64
2, 320560, Note_on_c, 0, 68, 100
2, 320640, Note_off_c, 0, 68, 64
2, 320640, Note_on_c, 0, 66, 100
2, 320760, Note_off_c, 0, 66, 64
2, 320760, Note_on_c, 0, 68, 100
2, 320880, Note_off_c, 0, 68, 64
2, 320880, Note_on_c, 0, 69, 100
2, 321000, Note_off_c, 0, 69, 64
2, 321000, Note_on_c, 0, 71, 100
2, 321120, Note_off_c, 0, 71, 64
2, 321120, Note_on_c, 0, 73, 100
2, 321240, Note_off_c, 0, 73, 64
2, 321240, Note_on_c, 0, 71, 100
2, 321360, Note_off_c, 0, 71, 64
2, 321360, Note_on_c, 0, 74, 100
2, 321480, Note_off_c, 0, 74, 64
2, 321480, Note_on_c, 0, 73, 100
2, 321600, Note_off_c, 0, 73, 64
2, 321600, Note_on_c, 0, 74, 100
2, 321720, Note_off_c, 0, 74, 64
2, 321720, Note_on_c, 0, 76, 100
2, 321840, Note_off_c, 0, 76, 64
2, 321840, Note_on_c, 0, 74, 100
2, 321920, Note_off_c, 0, 74, 64
2, 321920, Note_on_c, 0, 73, 100
2, 322000, Note_off_c, 0, 73, 64
2, 322000, Note_on_c, 0, 71, 100
2, 322080, Note_off_c, 0, 71, 64
2, 322080, Note_on_c, 0, 69, 100
2, 322200, Note_off_c, 0, 69, 64
2, 322200, Note_on_c, 0, 68, 100
2, 322320, Note_off_c, 0, 68, 64
2, 322320, Note_on_c, 0, 66, 100
2, 322440, Note_off_c, 0, 66, 64
2, 322440, Note_on_c, 0, 64, 100
2, 322560, Note_off_c, 0, 64, 64
2, 322560, Note_on_c, 0, 62, 100
2, 322680, Note_off_c, 0, 62, 64
2, 322680, Note_on_c, 0, 64, 100
2, 322800, Note_off_c, 0, 64, 64
2, 322800, Note_on_c, 0, 61, 100
2, 322920, Note_off_c, 0, 61, 64
2, 322920, Note_on_c, 0, 59, 100
2, 323040, Note_off_c, 0, 59, 64
2, 323040, Note_on_c, 0, 57, 100
2, 323160, Note_off_c, 0, 57, 64
2, 323160, Note_on_c, 0, 59, 100
2, 323280, Note_off_c, 0, 59, 64
2, 323280, Note_on_c, 0, 56, 100
2, 323360, Pitch_bend_c, 0, 9192
2, 323375, Pitch_bend_c, 0, 10192
2, 323390, Pitch_bend_c, 0, 11192
2, 323405, Pitch_bend_c, 0, 12192
2, 323440, Pitch_bend_c, 0, 8192
2, 323520, Note_off_c, 0, 56, 64
2, 323520, Note_on_c, 0, 54, 80
2, 323580, Note_off_c, 0, 54, 64
2, 323580, Note_on_c, 0, 52, 100
2, 323760, Note_on_c, 0, 56, 100
2, 323762, Note_off_c, 0, 52, 64
2, 323880, Note_off_c, 0, 56, 64
2, 323880, Note_on_c, 0, 57, 100
2, 324000, Note_off_c, 0, 57, 64
2, 324000, Note_on_c, 0, 61, 100
2, 324060, Note_off_c, 0, 61, 64
2, 324060, Note_on_c, 0, 64, 100
2, 324240, Note_off_c, 0, 64, 64
2, 324240, Note_on_c, 0, 68, 100
2, 324360, Note_off_c, 0, 68, 64
2, 324360, Note_on_c, 0, 69, 100
2, 324480, Note_off_c, 0, 69, 64
2, 324480, Note_on_c, 0, 71, 100
2, 324600, Note_off_c, 0, 71, 64
2, 324600, Note_on_c, 0, 73, 100
2, 324720, Note_off_c, 0, 73, 64
2, 324720, Note_on_c, 0, 74, 100
2, 324840, Note_off_c, 0, 74, 64
2, 324840, Note_on_c, 0, 76, 100
2, 324960, Note_off_c, 0, 76, 64
2, 324960, Pitch_bend_c, 0, 9192
2, 324960, Note_on_c, 0, 74, 100
2, 324975, Pitch_bend_c, 0, 10192
2, 324990, Pitch_bend_c, 0, 11192
2, 325005, Pitch_bend_c, 0, 12192
2, 325020, Pitch_bend_c, 0, 13192
2, 325035, Pitch_bend_c, 0, 14192
2, 325050, Pitch_bend_c, 0, 15192
2, 325065, Pitch_bend_c, 0, 16192
2, 325260, Pitch_bend_c, 0, 15192
2, 325310, Pitch_bend_c, 0, 14192
2, 325360, Pitch_bend_c, 0, 13192
2, 325410, Pitch_bend_c, 0, 12192
2, 325440, Pitch_bend_c, 0, 11192
2, 325490, Pitch_bend_c, 0, 10192
2, 325540, Pitch_bend_c, 0, 9192
2, 325590, Pitch_bend_c, 0, 8192
2, 325680, Note_off_c, 0, 74, 64
2, 325680, Note_on_c, 0, 74, 100
2, 325800, Note_off_c, 0, 74, 64
2, 325800, Note_on_c, 0, 73, 100
2, 325920, Note_off_c, 0, 73, 64
2, 325920, Note_on_c, 0, 74, 100
2, 325980, Note_off_c, 0, 74, 64
2, 325980, Note_on_c, 0, 73, 100
2, 326040, Note_off_c, 0, 73, 64
2, 326040, Note_on_c, 0, 74, 100
2, 326100, Note_off_c, 0, 74, 64
2, 326100, Note_on_c, 0, 73, 100
2, 326160, Note_off_c, 0, 73, 64
2, 326160, Note_on_c, 0, 71, 100
2, 326280, Note_off_c, 0, 71, 64
2, 326280, Note_on_c, 0, 68, 100
2, 326400, Note_off_c, 0, 68, 64
2, 326400, Note_on_c, 0, 74, 100
2, 326460, Note_off_c, 0, 74, 64
2, 326460, Note_on_c, 0, 73, 100
2, 326520, Note_off_c, 0, 73, 64
2, 326520, Note_on_c, 0, 74, 100
2, 326580, Note_off_c, 0, 74, 64
2, 326580, Note_on_c, 0, 73, 100
2, 326640, Note_off_c, 0, 73, 64
2, 326640, Note_on_c, 0, 71, 100
2, 326760, Note_off_c, 0, 71, 64
2, 326760, Note_on_c, 0, 68, 100
2, 326880, Note_off_c, 0, 68, 64
2, 326880, Note_on_c, 0, 76, 100
2, 326880, Pitch_bend_c, 0, 192
2, 326895, Pitch_bend_c, 0, 1192
2, 326910, Pitch_bend_c, 0, 2192
2, 326925, Pitch_bend_c, 0, 3192
2, 326940, Pitch_bend_c, 0, 4192
2, 326955, Pitch_bend_c, 0, 5192
2, 326970, Pitch_bend_c, 0, 6192
2, 326985, Pitch_bend_c, 0, 7192
2, 327000, Note_off_c, 0, 76, 64
2, 327000, Note_on_c, 0, 83, 100
2, 327000, Pitch_bend_c, 0, 8192
2, 327120, Note_off_c, 0, 83, 64
2, 327120, Note_on_c, 0, 80, 100
2, 327180, Note_off_c, 0, 80, 64
2, 327180, Note_on_c, 0, 81, 100
2, 327240, Note_off_c, 0, 81, 64
2, 327240, Note_on_c, 0, 83, 100
2, 327360, Note_off_c, 0, 83, 64
2, 327360, Note_on_c, 0, 81, 100
2, 327360, Pitch_bend_c, 0, 9192
2, 327375, Pitch_bend_c, 0, 10192
2, 327390, Pitch_bend_c, 0, 11192
2, 327405, Pitch_bend_c, 0, 12192
2, 327420, Pitch_bend_c, 0, 13192
2, 327435, Pitch_bend_c, 0, 14192
2, 327450, Pitch_bend_c, 0, 15192
2, 327465, Pitch_bend_c, 0, 16192
2, 327840, Note_off_c, 0, 81, 64
2, 327855, Note_on_c, 0, 82, 50
2, 327895, Note_off_c, 0, 82, 64
2, 327895, Note_on_c, 0, 81, 50
2, 327935, Note_off_c, 0, 81, 64
2, 327935, Note_on_c, 0, 80, 50
2, 327975, Note_off_c, 0, 80, 64
2, 327975, Note_on_c, 0, 79, 50
2, 328015, Note_off_c, 0, 79, 64
2, 328015, Note_on_c, 0, 78, 50
2, 328055, Note_off_c, 0, 78, 64
2, 328080, Note_on_c, 0, 59, 100
2, 328080, Pitch_bend_c, 0, 8192
2, 328200, Note_off_c, 0, 59, 64
2, 328200, Note_on_c, 0, 64, 100
2, 328320, Note_off_c, 0, 64, 64
2, 328320, Note_on_c, 0, 68, 100
2, 328440, Note_off_c, 0, 68, 64
2, 328440, Note_on_c, 0, 71, 100
2, 328560, Note_off_c, 0, 71, 64
2, 328560, Note_on_c, 0, 76, 100
2, 328680, Note_off_c, 0, 76, 64
2, 328680, Note_on_c, 0, 80, 100
2, 328800, Note_off_c, 0, 80, 64
2, 328800, Note_on_c, 0, 81, 100
2, 328920, Note_off_c, 0, 81, 64
2, 328920, Note_on_c, 0, 83, 100
2, 329040, Note_off_c, 0, 83, 64
2, 329040, Pitch_bend_c, 0, 9192
2, 329040, Note_on_c, 0, 83, 100
2, 329055, Pitch_bend_c, 0, 10192
2, 329070, Pitch_bend_c, 0, 11192
2, 329085, Pitch_bend_c, 0, 12192
2, 329100, Pitch_bend_c, 0, 13192
2, 329115, Pitch_bend_c, 0, 14192
2, 329130, Pitch_bend_c, 0, 15192
2, 329145, Pitch_bend_c, 0, 16192
2, 329520, Note_off_c, 0, 83, 64
2, 329520, Note_on_c, 0, 83, 100
2, 329520, Pitch_bend_c, 0, 8192
2, 329760, Note_off_c, 0, 83, 64
2, 329760, Note_on_c, 0, 81, 100
2, 330000, Note_off_c, 0, 81, 64
2, 330000, Note_on_c, 0, 78, 100
2, 330360, Note_on_c, 0, 76, 100
2, 330363, Note_off_c, 0, 78, 64
2, 330480, Note_off_c, 0, 76, 64
2, 330480, Note_on_c, 0, 74, 100
2, 330600, Note_off_c, 0, 74, 64
2, 330600, Note_on_c, 0, 69, 100
2, 330720, Note_off_c, 0, 69, 64
2, 330720, Note_on_c, 0, 66, 100
2, 330840, Note_off_c, 0, 66, 64
2, 330840, Note_on_c, 0, 64, 100
2, 330960, Note_off_c, 0, 64, 64
2, 330960, Note_on_c, 0, 62, 100
2, 331200, Note_on_c, 0, 68, 100
2, 331207, Note_off_c, 0, 62, 64
2, 331320, Note_off_c, 0, 68, 64
2, 331320, Note_on_c, 0, 64, 100
2, 331440, Note_off_c, 0, 64, 64
2, 331440, Note_on_c, 0, 69, 100
2, 331560, Note_off_c, 0, 69, 64
2, 331560, Note_on_c, 0, 64, 100
2, 331680, Note_off_c, 0, 64, 64
2, 331680, Note_on_c, 0, 71, 100
2, 331800, Note_off_c, 0, 71, 64
2, 331800, Note_on_c, 0, 64, 100
2, 331920, Note_off_c, 0, 64, 64
2, 331920, Pitch_bend_c, 0, 9192
2, 331920, Note_on_c, 0, 71, 100
2, 331935, Pitch_bend_c, 0, 10192
2, 331950, Pitch_bend_c, 0, 11192
2, 331965, Pitch_bend_c, 0, 12192
2, 331980, Pitch_bend_c, 0, 13192
2, 331995, Pitch_bend_c, 0, 14192
2, 332010, Pitch_bend_c, 0, 15192
2, 332025, Pitch_bend_c, 0, 16192
2, 332280, Note_off_c, 0, 71, 64
2, 332280, Note_on_c, 0, 71, 100
2, 332280, Pitch_bend_c, 0, 8192
2, 332400, Note_off_c, 0, 71, 64
2, 332400, Note_on_c, 0, 69, 100
2, 332640, Note_on_c, 0, 61, 100
2, 332647, Note_off_c, 0, 69, 64
2, 332760, Note_off_c, 0, 61, 64
2, 332760, Note_on_c, 0, 59, 100
2, 332880, Note_off_c, 0, 59, 64
2, 332880, Note_on_c, 0, 57, 100
2, 333120, Note_on_c, 0, 62, 100
2, 333127, Note_off_c, 0, 57, 64
2, 333240, Note_off_c, 0, 62, 64
2, 333240, Note_on_c, 0, 64, 100
2, 333360, Note_off_c, 0, 64, 64
2, 333360, Note_on_c, 0, 66, 100
2, 333480, Note_off_c, 0, 66, 64
2, 333480, Note_on_c, 0, 74, 100
2, 333600, Note_off_c, 0, 74, 64
2, 333600, Note_on_c, 0, 80, 100
2, 333720, Note_off_c, 0, 80, 64
2, 333720, Note_on_c, 0, 81, 100
2, 333840, Note_off_c, 0, 81, 64
2, 333840, Note_on_c, 0, 80, 100
2, 334200, Note_on_c, 0, 81, 100
2, 334203, Note_off_c, 0, 80, 64
2, 334320, Note_on_c, 0, 83, 100
2, 334330, Note_off_c, 0, 81, 64
2, 334440, Note_off_c, 0, 83, 64
2, 334440, Note_on_c, 0, 76, 100
2, 334920, Note_off_c, 0, 76, 64
2, 334920, Note_on_c, 0, 75, 50
2, 334960, Note_off_c, 0, 75, 64
2, 334960, Note_on_c, 0, 74, 50
2, 335000, Note_off_c, 0, 74, 64
2, 335000, Note_on_c, 0, 73, 50
2, 335000, Note_on_c, 0, 73, 50
2, 335040, Note_off_c, 0, 73, 64
2, 335040, Note_off_c, 0, 73, 64
2, 335040, Note_on_c, 0, 81, 100
2, 335160, Note_off_c, 0, 81, 64
2, 335160, Note_on_c, 0, 83, 100
2, 335220, Note_off_c, 0, 83, 64
2, 335220, Note_on_c, 0, 81, 100
2, 335280, Note_off_c, 0, 81, 64
2, 335280, Note_on_c, 0, 80, 100
2, 335400, Note_off_c, 0, 80, 64
2, 335400, Note_on_c, 0, 76, 100
2, 335520, Note_off_c, 0, 76, 64
2, 335520, Note_on_c, 0, 71, 100
2, 335640, Note_off_c, 0, 71, 64
2, 335640, Note_on_c, 0, 69, 100
2, 335760, Note_off_c, 0, 69, 64
2, 335760, Note_on_c, 0, 76, 100
2, 335880, Note_off_c, 0, 76, 64
2, 335880, Note_on_c, 0, 69, 100
2, 336000, Note_off_c, 0, 69, 64
2, 336000, Note_on_c, 0, 68, 100
2, 336120, Note_off_c, 0, 68, 64
2, 336120, Note_on_c, 0, 69, 100
2, 336180, Note_off_c, 0, 69, 64
2, 336180, Note_on_c, 0, 68, 100
2, 336240, Note_off_c, 0, 68, 64
2, 336240, Note_on_c, 0, 66, 100
2, 336360, Note_off_c, 0, 66, 64
2, 336360, Note_on_c, 0, 64, 100
2, 336480, Note_off_c, 0, 64, 64
2, 336480, Note_on_c, 0, 68, 100
2, 336600, Note_off_c, 0, 68, 64
2, 336600, Note_on_c, 0, 71, 100
2, 336720, Note_off_c, 0, 71, 64
2, 336720, Note_on_c, 0, 73, 100
2, 337080, Note_on_c, 0, 64, 100
2, 337083, Note_off_c, 0, 73, 64
2, 337200, Note_off_c, 0, 64, 64
2, 337200, Note_on_c, 0, 69, 100
2, 337320, Note_off_c, 0, 69, 64
2, 337320, Note_on_c, 0, 71, 100
2, 337380, Note_off_c, 0, 71, 64
2, 337380, Note_on_c, 0, 73, 100
2, 337440, Note_off_c, 0, 73, 64
2, 337440, Note_on_c, 0, 76, 100
2, 337560, Note_off_c, 0, 76, 64
2, 337560, Note_on_c, 0, 81, 100
2, 337620, Note_off_c, 0, 81, 64
2, 337620, Note_on_c, 0, 85, 100
2, 337680, Note_off_c, 0, 85, 64
2, 337680, Note_on_c, 0, 86, 100
2, 338040, Note_on_c, 0, 62, 100
2, 338043, Note_off_c, 0, 86, 64
2, 338160, Note_off_c, 0, 62, 64
2, 338160, Note_on_c, 0, 64, 100
2, 338280, Note_off_c, 0, 64, 64
2, 338280, Note_on_c, 0, 66, 100
2, 338400, Note_off_c, 0, 66, 64
2, 338400, Note_on_c, 0, 69, 100
2, 338520, Note_off_c, 0, 69, 64
2, 338520, Note_on_c, 0, 74, 100
2, 338640, Note_off_c, 0, 74, 64
2, 338640, Note_on_c, 0, 76, 100
2, 338760, Note_off_c, 0, 76, 64
2, 338760, Note_on_c, 0, 78, 100
2, 338880, Note_off_c, 0, 78, 64
2, 338880, Note_on_c, 0, 80, 100
2, 339000, Note_off_c, 0, 80, 64
2, 339000, Note_on_c, 0, 78, 100
2, 339120, Note_off_c, 0, 78, 64
2, 339120, Note_on_c, 0, 76, 100
2, 339200, Note_off_c, 0, 76, 64
2, 339200, Note_on_c, 0, 86, 100
2, 339280, Note_off_c, 0, 86, 64
2, 339280, Note_on_c, 0, 85, 100
2, 339360, Note_off_c, 0, 85, 64
2, 339360, Note_on_c, 0, 83, 100
2, 339480, Note_off_c, 0, 83, 64
2, 339480, Note_on_c, 0, 80, 100
2, 339600, Note_off_c, 0, 80, 64
2, 339600, Note_on_c, 0, 76, 100
2, 339720, Note_off_c, 0, 76, 64
2, 339720, Note_on_c, 0, 74, 100
2, 339840, Note_off_c, 0, 74, 64
2, 339840, Note_on_c, 0, 73, 100
2, 339960, Note_off_c, 0, 73, 64
2, 339960, Note_on_c, 0, 76, 100
2, 340080, Note_off_c, 0, 76, 64
2, 340080, Note_on_c, 0, 71, 100
2, 340200, Note_off_c, 0, 71, 64
2, 340200, Note_on_c, 0, 76, 100
2, 340260, Note_on_c, 0, 69, 100
2, 340265, Note_off_c, 0, 76, 64
2, 340320, Note_off_c, 0, 69, 64
2, 340320, Note_on_c, 0, 71, 100
2, 340380, Note_off_c, 0, 71, 64
2, 340380, Note_on_c, 0, 73, 100
2, 340500, Note_off_c, 0, 73, 64
2, 340500, Note_on_c, 0, 64, 100
2, 340800, Note_on_c, 0, 74, 100
2, 340812, Note_off_c, 0, 64, 64
2, 340920, Note_off_c, 0, 74, 64
2, 340920, Note_on_c, 0, 66, 100
2, 341040, Note_off_c, 0, 66, 64
2, 341040, Note_on_c, 0, 69, 100
2, 341160, Note_off_c, 0, 69, 64
2, 341160, Note_on_c, 0, 74, 100
2, 341280, Note_off_c, 0, 74, 64
2, 341280, Note_on_c, 0, 78, 100
2, 341400, Note_off_c, 0, 78, 64
2, 341400, Note_on_c, 0, 74, 100
2, 341520, Note_off_c, 0, 74, 64
2, 341520, Note_on_c, 0, 76, 100
2, 341640, Note_off_c, 0, 76, 64
2, 341640, Note_on_c, 0, 83, 100
2, 341760, Note_off_c, 0, 83, 64
2, 341760, Note_on_c, 0, 80, 100
2, 341820, Note_off_c, 0, 80, 64
2, 341820, Note_on_c, 0, 81, 100
2, 341880, Note_off_c, 0, 81, 64
2, 341880, Note_on_c, 0, 83, 100
2, 342000, Note_off_c, 0, 83, 64
2, 342000, Note_on_c, 0, 76, 100
2, 342120, Note_off_c, 0, 76, 64
2, 342120, Note_on_c, 0, 71, 100
2, 342240, Note_off_c, 0, 71, 64
2, 342240, Note_on_c, 0, 68, 100
2, 342300, Note_off_c, 0, 68, 64
2, 342300, Note_on_c, 0, 66, 100
2, 342360, Note_off_c, 0, 66, 64
2, 342360, Note_on_c, 0, 64, 100
2, 342480, Note_off_c, 0, 64, 64
2, 342480, Note_on_c, 0, 76, 100
2, 342540, Note_off_c, 0, 76, 64
2, 342540, Note_on_c, 0, 71, 100
2, 342600, Note_off_c, 0, 71, 64
2, 342600, Note_on_c, 0, 74, 100
2, 342660, Note_off_c, 0, 74, 64
2, 342660, Note_on_c, 0, 78, 100
2, 342720, Note_off_c, 0, 78, 64
2, 342720, Note_on_c, 0, 80, 100
2, 342960, Control_c, 0, 1, 127
2, 343680, Note_off_c, 0, 80, 64
2, 343680, Pitch_bend_c, 0, 9192
2, 343680, Note_on_c, 0, 78, 100
2, 343680, Control_c, 0, 1, 0
2, 343695, Pitch_bend_c, 0, 10192
2, 343710, Pitch_bend_c, 0, 11192
2, 343725, Pitch_bend_c, 0, 12192
2, 343740, Pitch_bend_c, 0, 13192
2, 343755, Pitch_bend_c, 0, 14192
2, 343770, Pitch_bend_c, 0, 15192
2, 343785, Pitch_bend_c, 0, 16192
2, 343920, Pitch_bend_c, 0, 15192
2, 343935, Pitch_bend_c, 0, 14192
2, 343950, Pitch_bend_c, 0, 13192
2, 343965, Pitch_bend_c, 0, 12192
2, 343980, Pitch_bend_c, 0, 11192
2, 343995, Pitch_bend_c, 0, 10192
2, 344010, Pitch_bend_c, 0, 9192
2, 344025, Pitch_bend_c, 0, 8192
2, 344160, Note_off_c, 0, 78, 64
2, 344160, Note_on_c, 0, 76, 100
2, 344400, Note_off_c, 0, 76, 64
2, 344400, Pitch_bend_c, 0, 9192
2, 344400, Note_on_c, 0, 83, 100
2, 344415, Pitch_bend_c, 0, 10192
2, 344430, Pitch_bend_c, 0, 11192
2, 344445, Pitch_bend_c, 0, 12192
2, 344460, Pitch_bend_c, 0, 13192
2, 344475, Pitch_bend_c, 0, 14192
2, 344478, Pitch_bend_c, 0, 15192
2, 344480, Pitch_bend_c, 0, 16192
2, 344880, Note_off_c, 0, 83, 64
2, 344880, Pitch_bend_c, 0, 9192
2, 344880, Note_on_c, 0, 83, 100
2, 344895, Pitch_bend_c, 0, 10192
2, 344910, Pitch_bend_c, 0, 11192
2, 344925, Pitch_bend_c, 0, 12192
2, 344940, Pitch_bend_c, 0, 13192
2, 344955, Pitch_bend_c, 0, 14192
2, 344958, Pitch_bend_c, 0, 15192
2, 344960, Pitch_bend_c, 0, 16192
2, 345000, Pitch_bend_c, 0, 15192
2, 345010, Pitch_bend_c, 0, 14192
2, 345020, Pitch_bend_c, 0, 13192
2, 345030, Pitch_bend_c, 0, 12192
2, 345040, Pitch_bend_c, 0, 11192
2, 345050, Pitch_bend_c, 0, 10192
2, 345060, Pitch_bend_c, 0, 9192
2, 345060, Pitch_bend_c, 0, 8192
2, 345120, Note_off_c, 0, 83, 64
2, 345120, Note_on_c, 0, 81, 100
2, 345360, Note_off_c, 0, 81, 64
2, 345360, Note_on_c, 0, 78, 100
2, 345840, Note_off_c, 0, 78, 64
2, 345840, Note_on_c, 0, 76, 100
2, 345840, Pitch_bend_c, 0, 9192
2, 345855, Pitch_bend_c, 0, 10192
2, 345870, Pitch_bend_c, 0, 11192
2, 345885, Pitch_bend_c, 0, 12192
2, 345900, Pitch_bend_c, 0, 13192
2, 345915, Pitch_bend_c, 0, 14192
2, 345918, Pitch_bend_c, 0, 15192
2, 345920, Pitch_bend_c, 0, 16192
2, 345960, Pitch_bend_c, 0, 15192
2, 345970, Pitch_bend_c, 0, 14192
2, 345980, Pitch_bend_c, 0, 13192
2, 345990, Pitch_bend_c, 0, 12192
2, 346000, Pitch_bend_c, 0, 11192
2, 346010, Pitch_bend_c, 0, 10192
2, 346020, Pitch_bend_c, 0, 9192
2, 346020, Pitch_bend_c, 0, 8192
2, 346080, Note_off_c, 0, 76, 64
2, 346080, Note_on_c, 0, 74, 100
2, 346560, Note_off_c, 0, 74, 64
2, 346560, Note_on_c, 0, 80, 100
2, 346800, Note_off_c, 0, 80, 64
2, 346800, Note_on_c, 0, 81, 100
2, 347040, Note_off_c, 0, 81, 64
2, 347040, Note_on_c, 0, 83, 100
2, 347280, Note_off_c, 0, 83, 64
2, 347280, Pitch_bend_c, 0, 9192
2, 347280, Control_c, 0, 1, 0
2, 347280, Note_on_c, 0, 83, 100
2, 347295, Pitch_bend_c, 0, 10192
2, 347310, Pitch_bend_c, 0, 11192
2, 347325, Pitch_bend_c, 0, 12192
2, 347340, Pitch_bend_c, 0, 13192
2, 347355, Pitch_bend_c, 0, 14192
2, 347370, Pitch_bend_c, 0, 15192
2, 347385, Pitch_bend_c, 0, 16192
2, 347760, Pitch_bend_c, 0, 15192
2, 347775, Pitch_bend_c, 0, 14192
2, 347790, Pitch_bend_c, 0, 13192
2, 347805, Pitch_bend_c, 0, 12192
2, 347820, Pitch_bend_c, 0, 11192
2, 347835, Pitch_bend_c, 0, 10192
2, 347850, Pitch_bend_c, 0, 9192
2, 347865, Pitch_bend_c, 0, 8192
2, 348000, Note_on_c, 0, 81, 100
2, 348007, Note_off_c, 0, 83, 64
2, 348240, Note_off_c, 0, 81, 64
2, 348240, Note_on_c, 0, 76, 100
2, 348480, Pitch_bend_c, 0, 9192
2, 348480, Control_c, 0, 1, 0
2, 348495, Pitch_bend_c, 0, 10192
2, 348510, Pitch_bend_c, 0, 11192
2, 348525, Pitch_bend_c, 0, 12192
2, 348540, Pitch_bend_c, 0, 13192
2, 348555, Pitch_bend_c, 0, 14192
2, 348570, Pitch_bend_c, 0, 15192
2, 348585, Pitch_bend_c, 0, 16192
2, 348720, Pitch_bend_c, 0, 15192
2, 348735, Pitch_bend_c, 0, 14192
2, 348750, Pitch_bend_c, 0, 13192
2, 348765, Pitch_bend_c, 0, 12192
2, 348780, Pitch_bend_c, 0, 11192
2, 348795, Pitch_bend_c, 0, 10192
2, 348810, Pitch_bend_c, 0, 9192
2, 348825, Pitch_bend_c, 0, 8192
2, 348960, Note_on_c, 0, 74, 100
2, 348967, Note_off_c, 0, 76, 64
2, 349200, Note_off_c, 0, 74, 64
2, 349200, Note_on_c, 0, 76, 100
2, 349920, Note_on_c, 0, 71, 100
2, 349927, Note_off_c, 0, 76, 64
2, 350040, Note_off_c, 0, 71, 64
2, 350040, Note_on_c, 0, 69, 100
2, 350160, Note_off_c, 0, 69, 64
2, 350160, Note_on_c, 0, 68, 100
2, 350280, Note_off_c, 0, 68, 64
2, 350280, Note_on_c, 0, 64, 100
2, 350400, Note_off_c, 0, 64, 64
2, 350400, Note_on_c, 0, 80, 100
2, 350640, Control_c, 0, 1, 127
2, 351360, Note_off_c, 0, 80, 64
2, 351360, Pitch_bend_c, 0, 9192
2, 351360, Note_on_c, 0, 78, 100
2, 351360, Control_c, 0, 1, 0
2, 351375, Pitch_bend_c, 0, 10192
2, 351390, Pitch_bend_c, 0, 11192
2, 351405, Pitch_bend_c, 0, 12192
2, 351420, Pitch_bend_c, 0, 13192
2, 351435, Pitch_bend_c, 0, 14192
2, 351450, Pitch_bend_c, 0, 15192
2, 351465, Pitch_bend_c, 0, 16192
2, 351600, Pitch_bend_c, 0, 15192
2, 351615, Pitch_bend_c, 0, 14192
2, 351630, Pitch_bend_c, 0, 13192
2, 351645, Pitch_bend_c, 0, 12192
2, 351660, Pitch_bend_c, 0, 11192
2, 351675, Pitch_bend_c, 0, 10192
2, 351690, Pitch_bend_c, 0, 9192
2, 351705, Pitch_bend_c, 0, 8192
2, 351840, Note_off_c, 0, 78, 64
2, 351840, Note_on_c, 0, 76, 100
2, 352080, Note_off_c, 0, 76, 64
2, 352080, Pitch_bend_c, 0, 9192
2, 352080, Note_on_c, 0, 83, 100
2, 352095, Pitch_bend_c, 0, 10192
2, 352110, Pitch_bend_c, 0, 11192
2, 352125, Pitch_bend_c, 0, 12192
2, 352140, Pitch_bend_c, 0, 13192
2, 352155, Pitch_bend_c, 0, 14192
2, 352158, Pitch_bend_c, 0, 15192
2, 352160, Pitch_bend_c, 0, 16192
2, 352560, Note_off_c, 0, 83, 64
2, 352560, Note_on_c, 0, 83, 100
2, 352560, Pitch_bend_c, 0, 8192
2, 352800, Note_off_c, 0, 83, 64
2, 352800, Note_on_c, 0, 81, 100
2, 353040, Note_off_c, 0, 81, 64
2, 353040, Note_on_c, 0, 78, 100
2, 353400, Note_on_c, 0, 76, 100
2, 353403, Note_off_c, 0, 78, 64
2, 353520, Pitch_bend_c, 0, 9192
2, 353520, Control_c, 0, 1, 0
2, 353535, Pitch_bend_c, 0, 10192
2, 353550, Pitch_bend_c, 0, 11192
2, 353565, Pitch_bend_c, 0, 12192
2, 353580, Pitch_bend_c, 0, 13192
2, 353595, Pitch_bend_c, 0, 14192
2, 353610, Pitch_bend_c, 0, 15192
2, 353625, Pitch_bend_c, 0, 16192
2, 353640, Pitch_bend_c, 0, 15192
2, 353655, Pitch_bend_c, 0, 14192
2, 353670, Pitch_bend_c, 0, 13192
2, 353685, Pitch_bend_c, 0, 12192
2, 353700, Pitch_bend_c, 0, 11192
2, 353715, Pitch_bend_c, 0, 10192
2, 353730, Pitch_bend_c, 0, 9192
2, 353745, Pitch_bend_c, 0, 8192
2, 353760, Note_on_c, 0, 74, 100
2, 353764, Note_off_c, 0, 76, 64
2, 354240, Note_off_c, 0, 74, 64
2, 354240, Note_on_c, 0, 80, 100
2, 354480, Note_off_c, 0, 80, 64
2, 354480, Note_on_c, 0, 81, 100
2, 354720, Note_off_c, 0, 81, 64
2, 354720, Note_on_c, 0, 83, 100
2, 354960, Note_off_c, 0, 83, 64
2, 354960, Pitch_bend_c, 0, 9192
2, 354960, Control_c, 0, 1, 0
2, 354960, Note_on_c, 0, 83, 100
2, 354975, Pitch_bend_c, 0, 10192
2, 354990, Pitch_bend_c, 0, 11192
2, 355005, Pitch_bend_c, 0, 12192
2, 355020, Pitch_bend_c, 0, 13192
2, 355035, Pitch_bend_c, 0, 14192
2, 355050, Pitch_bend_c, 0, 15192
2, 355065, Pitch_bend_c, 0, 16192
2, 355440, Pitch_bend_c, 0, 15192
2, 355455, Pitch_bend_c, 0, 14192
2, 355470, Pitch_bend_c, 0, 13192
2, 355485, Pitch_bend_c, 0, 12192
2, 355500, Pitch_bend_c, 0, 11192
2, 355515, Pitch_bend_c, 0, 10192
2, 355530, Pitch_bend_c, 0, 9192
2, 355545, Pitch_bend_c, 0, 8192
2, 355680, Note_on_c, 0, 81, 100
2, 355687, Note_off_c, 0, 83, 64
2, 355920, Note_off_c, 0, 81, 64
2, 355920, Note_on_c, 0, 76, 100
2, 356160, Pitch_bend_c, 0, 9192
2, 356160, Control_c, 0, 1, 0
2, 356175, Pitch_bend_c, 0, 10192
2, 356190, Pitch_bend_c, 0, 11192
2, 356205, Pitch_bend_c, 0, 12192
2, 356220, Pitch_bend_c, 0, 13192
2, 356235, Pitch_bend_c, 0, 14192
2, 356250, Pitch_bend_c, 0, 15192
2, 356265, Pitch_bend_c, 0, 16192
2, 356400, Pitch_bend_c, 0, 15192
2, 356415, Pitch_bend_c, 0, 14192
2, 356430, Pitch_bend_c, 0, 13192
2, 356445, Pitch_bend_c, 0, 12192
2, 356460, Pitch_bend_c, 0, 11192
2, 356475, Pitch_bend_c, 0, 10192
2, 356490, Pitch_bend_c, 0, 9192
2, 356505, Pitch_bend_c, 0, 8192
2, 356640, Note_on_c, 0, 74, 100
2, 356647, Note_off_c, 0, 76, 64
2, 356880, Note_off_c, 0, 74, 64
2, 356880, Note_on_c, 0, 76, 100
2, 357600, Note_on_c, 0, 71, 100
2, 357607, Note_off_c, 0, 76, 64
2, 357720, Note_off_c, 0, 71, 64
2, 357720, Note_on_c, 0, 69, 100
2, 357840, Note_off_c, 0, 69, 64
2, 357840, Note_on_c, 0, 68, 100
2, 357960, Note_off_c, 0, 68, 64
2, 357960, Note_on_c, 0, 64, 100
2, 358080, Note_off_c, 0, 64, 64
2, 358080, Note_on_c, 0, 80, 100
2, 358320, Control_c, 0, 1, 127
2, 359040, Note_off_c, 0, 80, 64
2, 359040, Pitch_bend_c, 0, 9192
2, 359040, Note_on_c, 0, 78, 100
2, 359040, Control_c, 0, 1, 0
2, 359055, Pitch_bend_c, 0, 10192
2, 359070, Pitch_bend_c, 0, 11192
2, 359085, Pitch_bend_c, 0, 12192
2, 359100, Pitch_bend_c, 0, 13192
2, 359115, Pitch_bend_c, 0, 14192
2, 359130, Pitch_bend_c, 0, 15192
2, 359145, Pitch_bend_c, 0, 16192
2, 359280, Pitch_bend_c, 0, 15192
2, 359295, Pitch_bend_c, 0, 14192
2, 359310, Pitch_bend_c, 0, 13192
2, 359325, Pitch_bend_c, 0, 12192
2, 359340, Pitch_bend_c, 0, 11192
2, 359355, Pitch_bend_c, 0, 10192
2, 359370, Pitch_bend_c, 0, 9192
2, 359385, Pitch_bend_c, 0, 8192
2, 359520, Note_off_c, 0, 78, 64
2, 359520, Note_on_c, 0, 76, 100
2, 359760, Note_off_c, 0, 76, 64
2, 359760, Pitch_bend_c, 0, 9192
2, 359760, Note_on_c, 0, 83, 100
2, 359775, Pitch_bend_c, 0, 10192
2, 359790, Pitch_bend_c, 0, 11192
2, 359805, Pitch_bend_c, 0, 12192
2, 359820, Pitch_bend_c, 0, 13192
2, 359835, Pitch_bend_c, 0, 14192
2, 359838, Pitch_bend_c, 0, 15192
2, 359840, Pitch_bend_c, 0, 16192
2, 360240, Note_off_c, 0, 83, 64
2, 360240, Note_on_c, 0, 83, 100
2, 360240, Pitch_bend_c, 0, 8192
2, 360480, Note_off_c, 0, 83, 64
2, 360480, Note_on_c, 0, 81, 100
2, 360720, Note_off_c, 0, 81, 64
2, 360720, Note_on_c, 0, 78, 100
2, 361080, Note_on_c, 0, 76, 100
2, 361083, Note_off_c, 0, 78, 64
2, 361200, Pitch_bend_c, 0, 9192
2, 361200, Control_c, 0, 1, 0
2, 361215, Pitch_bend_c, 0, 10192
2, 361230, Pitch_bend_c, 0, 11192
2, 361245, Pitch_bend_c, 0, 12192
2, 361260, Pitch_bend_c, 0, 13192
2, 361275, Pitch_bend_c, 0, 14192
2, 361290, Pitch_bend_c, 0, 15192
2, 361305, Pitch_bend_c, 0, 16192
2, 361320, Pitch_bend_c, 0, 15192
2, 361335, Pitch_bend_c, 0, 14192
2, 361350, Pitch_bend_c, 0, 13192
2, 361365, Pitch_bend_c, 0, 12192
2, 361380, Pitch_bend_c, 0, 11192
2, 361395, Pitch_bend_c, 0, 10192
2, 361410, Pitch_bend_c, 0, 9192
2, 361425, Pitch_bend_c, 0, 8192
2, 361440, Note_on_c, 0, 74, 100
2, 361444, Note_off_c, 0, 76, 64
2, 361920, Note_off_c, 0, 74, 64
2, 361920, Note_on_c, 0, 80, 100
2, 362160, Note_off_c, 0, 80, 64
2, 362160, Note_on_c, 0, 81, 100
2, 362400, Note_off_c, 0, 81, 64
2, 362400, Note_on_c, 0, 83, 100
2, 362640, Note_off_c, 0, 83, 64
2, 362640, Pitch_bend_c, 0, 9192
2, 362640, Control_c, 0, 1, 0
2, 362640, Note_on_c, 0, 83, 100
2, 362655, Pitch_bend_c, 0, 10192
2, 362670, Pitch_bend_c, 0, 11192
2, 362685, Pitch_bend_c, 0, 12192
2, 362700, Pitch_bend_c, 0, 13192
2, 362715, Pitch_bend_c, 0, 14192
2, 362730, Pitch_bend_c, 0, 15192
2, 362745, Pitch_bend_c, 0, 16192
2, 363120, Pitch_bend_c, 0, 15192
2, 363135, Pitch_bend_c, 0, 14192
2, 363150, Pitch_bend_c, 0, 13192
2, 363165, Pitch_bend_c, 0, 12192
2, 363180, Pitch_bend_c, 0, 11192
2, 363195, Pitch_bend_c, 0, 10192
2, 363210, Pitch_bend_c, 0, 9192
2, 363225, Pitch_bend_c, 0, 8192
2, 363360, Note_on_c, 0, 81, 100
2, 363367, Note_off_c, 0, 83, 64
2, 363600, Note_off_c, 0, 81, 64
2, 363600, Note_on_c, 0, 76, 100
2, 363840, Pitch_bend_c, 0, 9192
2, 363840, Control_c, 0, 1, 0
2, 363855, Pitch_bend_c, 0, 10192
2, 363870, Pitch_bend_c, 0, 11192
2, 363885, Pitch_bend_c, 0, 12192
2, 363900, Pitch_bend_c, 0, 13192
2, 363915, Pitch_bend_c, 0, 14192
2, 363930, Pitch_bend_c, 0, 15192
2, 363945, Pitch_bend_c, 0, 16192
2, 364080, Pitch_bend_c, 0, 15192
2, 364095, Pitch_bend_c, 0, 14192
2, 364110, Pitch_bend_c, 0, 13192
2, 364125, Pitch_bend_c, 0, 12192
2, 364140, Pitch_bend_c, 0, 11192
2, 364155, Pitch_bend_c, 0, 10192
2, 364170, Pitch_bend_c, 0, 9192
2, 364185, Pitch_bend_c, 0, 8192
2, 364320, Note_on_c, 0, 74, 100
2, 364327, Note_off_c, 0, 76, 64
2, 364560, Note_off_c, 0, 74, 64
2, 364560, Note_on_c, 0, 76, 100
2, 365280, Note_on_c, 0, 71, 100
2, 365287, Note_off_c, 0, 76, 64
2, 365400, Note_off_c, 0, 71, 64
2, 365400, Note_on_c, 0, 69, 100
2, 365520, Note_off_c, 0, 69, 64
2, 365520, Note_on_c, 0, 68, 100
2, 365640, Note_off_c, 0, 68, 64
2, 365640, Note_on_c, 0, 64, 100
2, 365760, Note_off_c, 0, 64, 64
2, 365760, Note_on_c, 0, 80, 100
2, 366000, Control_c, 0, 1, 127
2, 366720, Note_off_c, 0, 80, 64
2, 366720, Pitch_bend_c, 0, 9192
2, 366720, Note_on_c, 0, 78, 100
2, 366720, Control_c, 0, 1, 0
2, 366735, Pitch_bend_c, 0, 10192
2, 366750, Pitch_bend_c, 0, 11192
2, 366765, Pitch_bend_c, 0, 12192
2, 366780, Pitch_bend_c, 0, 13192
2, 366795, Pitch_bend_c, 0, 14192
2, 366810, Pitch_bend_c, 0, 15192
2, 366825, Pitch_bend_c, 0, 16192
2, 366960, Pitch_bend_c, 0, 15192
2, 366975, Pitch_bend_c, 0, 14192
2, 366990, Pitch_bend_c, 0, 13192
2, 367005, Pitch_bend_c, 0, 12192
2, 367020, Pitch_bend_c, 0, 11192
2, 367035, Pitch_bend_c, 0, 10192
2, 367050, Pitch_bend_c, 0, 9192
2, 367065, Pitch_bend_c, 0, 8192
2, 367200, Note_off_c, 0, 78, 64
2, 367200, Note_on_c, 0, 80, 100
2, 367440, Note_off_c, 0, 80, 64
2, 367440, Pitch_bend_c, 0, 9192
2, 367440, Note_on_c, 0, 83, 100
2, 367455, Pitch_bend_c, 0, 10192
2, 367470, Pitch_bend_c, 0, 11192
2, 367485, Pitch_bend_c, 0, 12192
2, 367500, Pitch_bend_c, 0, 13192
2, 367515, Pitch_bend_c, 0, 14192
2, 367518, Pitch_bend_c, 0, 15192
2, 367520, Pitch_bend_c, 0, 16192
2, 367914, Pitch_bend_c, 0, 8192
2, 367920, Note_off_c, 0, 83, 64
2, 367920, Note_on_c, 0, 83, 100
2, 368160, Note_off_c, 0, 83, 64
2, 368160, Note_on_c, 0, 81, 100
2, 368400, Note_off_c, 0, 81, 64
2, 368400, Pitch_bend_c, 0, 9192
2, 368400, Note_on_c, 0, 78, 100
2, 368415, Pitch_bend_c, 0, 10192
2, 368430, Pitch_bend_c, 0, 11192
2, 368445, Pitch_bend_c, 0, 12192
2, 368460, Pitch_bend_c, 0, 13192
2, 368475, Pitch_bend_c, 0, 14192
2, 368478, Pitch_bend_c, 0, 15192
2, 368480, Pitch_bend_c, 0, 16192
2, 368880, Note_off_c, 0, 78, 64
2, 368880, Note_on_c, 0, 78, 100
2, 368880, Pitch_bend_c, 0, 8192
2, 369120, Note_off_c, 0, 78, 64
2, 369120, Note_on_c, 0, 76, 100
2, 369360, Note_off_c, 0, 76, 64
2, 369360, Pitch_bend_c, 0, 9192
2, 369360, Note_on_c, 0, 76, 100
2, 369375, Pitch_bend_c, 0, 10192
2, 369390, Pitch_bend_c, 0, 11192
2, 369405, Pitch_bend_c, 0, 12192
2, 369420, Pitch_bend_c, 0, 13192
2, 369435, Pitch_bend_c, 0, 14192
2, 369438, Pitch_bend_c, 0, 15192
2, 369440, Pitch_bend_c, 0, 16192
2, 369840, Note_off_c, 0, 76, 64
2, 369840, Note_on_c, 0, 76, 100
2, 369840, Pitch_bend_c, 0, 8192
2, 370080, Note_off_c, 0, 76, 64
2, 370080, Note_on_c, 0, 76, 100
2, 370320, Control_c, 0, 1, 127
2, 371040, Note_off_c, 0, 76, 64
2, 371040, Note_on_c, 0, 73, 100
2, 371040, Control_c, 0, 1, 0
2, 371040, Pitch_bend_c, 0, 192
2, 371055, Pitch_bend_c, 0, 1192
2, 371070, Pitch_bend_c, 0, 2192
2, 371085, Pitch_bend_c, 0, 3192
2, 371100, Pitch_bend_c, 0, 4192
2, 371115, Pitch_bend_c, 0, 5192
2, 371130, Pitch_bend_c, 0, 6192
2, 371145, Pitch_bend_c, 0, 7192
2, 371160, Pitch_bend_c, 0, 8192
2, 371280, Note_off_c, 0, 73, 64
2, 371280, Note_on_c, 0, 74, 100
2, 371760, Note_off_c, 0, 74, 64
2, 371760, Note_on_c, 0, 73, 100
2, 372000, Note_off_c, 0, 73, 64
2, 372000, Note_on_c, 0, 71, 100
2, 372240, Note_off_c, 0, 71, 64
2, 372240, Note_on_c, 0, 69, 100
2, 372480, Note_off_c, 0, 69, 64
2, 372480, Note_on_c, 0, 68, 100
2, 372600, Pitch_bend_c, 0, 9192
2, 372615, Pitch_bend_c, 0, 10192
2, 372630, Pitch_bend_c, 0, 11192
2, 372645, Pitch_bend_c, 0, 12192
2, 372720, Pitch_bend_c, 0, 12192
2, 372735, Pitch_bend_c, 0, 11192
2, 372750, Pitch_bend_c, 0, 10192
2, 372765, Pitch_bend_c, 0, 9192
2, 372780, Pitch_bend_c, 0, 8192
2, 372840, Pitch_bend_c, 0, 9192
2, 372855, Pitch_bend_c, 0, 10192
2, 372870, Pitch_bend_c, 0, 11192
2, 372885, Pitch_bend_c, 0, 12192
2, 372960, Pitch_bend_c, 0, 12192
2, 372975, Pitch_bend_c, 0, 11192
2, 372990, Pitch_bend_c, 0, 10192
2, 373005, Pitch_bend_c, 0, 9192
2, 373020, Pitch_bend_c, 0, 8192
2, 373076, Note_off_c, 0, 68, 64
2, 373080, Note_on_c, 0, 64, 100
2, 373200, Note_off_c, 0, 64, 64
2, 373200, Note_on_c, 0, 68, 100
2, 373260, Note_off_c, 0, 68, 64
2, 373265, Note_on_c, 0, 69, 100
2, 373320, Note_on_c, 0, 71, 100
2, 373325, Note_off_c, 0, 69, 64
2, 373440, Note_off_c, 0, 71, 64
2, 373440, Note_on_c, 0, 76, 100
2, 373560, Note_off_c, 0, 76, 64
2, 373560, Note_on_c, 0, 71, 100
2, 373680, Note_off_c, 0, 71, 64
2, 373680, Note_on_c, 0, 78, 100
2, 373800, Note_off_c, 0, 78, 64
2, 373800, Note_on_c, 0, 71, 100
2, 373920, Note_off_c, 0, 71, 64
2, 373920, Note_on_c, 0, 80, 100
2, 374040, Note_off_c, 0, 80, 64
2, 374040, Note_on_c, 0, 71, 100
2, 374160, Note_off_c, 0, 71, 64
2, 374160, Note_on_c, 0, 81, 100
2, 374280, Note_off_c, 0, 81, 64
2, 374280, Note_on_c, 0, 71, 100
2, 374400, Note_off_c, 0, 71, 64
2, 374400, Note_on_c, 0, 80, 100
2, 374520, Note_off_c, 0, 80, 64
2, 374520, Note_on_c, 0, 71, 100
2, 374640, Note_off_c, 0, 71, 64
2, 374640, Note_on_c, 0, 78, 100
2, 374760, Note_off_c, 0, 78, 64
2, 374760, Note_on_c, 0, 71, 100
2, 374880, Note_off_c, 0, 71, 64
2, 374880, Note_on_c, 0, 76, 100
2, 375000, Note_off_c, 0, 76, 64
2, 375000, Note_on_c, 0, 71, 100
2, 375120, Note_off_c, 0, 71, 64
2, 375120, Note_on_c, 0, 78, 100
2, 375240, Note_off_c, 0, 78, 64
2, 375240, Note_on_c, 0, 71, 100
2, 375360, Note_off_c, 0, 71, 64
2, 375360, Note_on_c, 0, 76, 100
2, 375480, Note_off_c, 0, 76, 64
2, 375480, Note_on_c, 0, 71, 100
2, 375600, Note_off_c, 0, 71, 64
2, 375600, Note_on_c, 0, 78, 100
2, 375720, Note_off_c, 0, 78, 64
2, 375720, Note_on_c, 0, 71, 100
2, 375840, Note_off_c, 0, 71, 64
2, 375840, Note_on_c, 0, 80, 100
2, 375960, Note_off_c, 0, 80, 64
2, 375960, Note_on_c, 0, 71, 100
2, 376080, Note_off_c, 0, 71, 64
2, 376080, Note_on_c, 0, 81, 100
2, 376200, Note_off_c, 0, 81, 64
2, 376200, Note_on_c, 0, 71, 100
2, 376320, Note_off_c, 0, 71, 64
2, 376320, Note_on_c, 0, 80, 100
2, 376440, Note_off_c, 0, 80, 64
2, 376440, Note_on_c, 0, 71, 100
2, 376560, Note_off_c, 0, 71, 64
2, 376560, Note_on_c, 0, 78, 100
2, 376680, Note_off_c, 0, 78, 64
2, 376680, Note_on_c, 0, 71, 100
2, 376800, Note_off_c, 0, 71, 64
2, 376800, Note_on_c, 0, 76, 100
2, 376920, Note_off_c, 0, 76, 64
2, 376920, Note_on_c, 0, 71, 100
2, 377040, Note_off_c, 0, 71, 64
2, 377040, Note_on_c, 0, 78, 100
2, 377160, Note_off_c, 0, 78, 64
2, 377160, Note_on_c, 0, 71, 100
2, 377280, Note_off_c, 0, 71, 64
2, 377280, Note_on_c, 0, 76, 100
2, 377400, Note_off_c, 0, 76, 64
2, 377400, Note_on_c, 0, 71, 100
2, 377520, Note_off_c, 0, 71, 64
2, 377520, Note_on_c, 0, 78, 100
2, 377640, Note_off_c, 0, 78, 64
2, 377640, Note_on_c, 0, 71, 100
2, 377760, Note_off_c, 0, 71, 64
2, 377760, Note_on_c, 0, 80, 100
2, 377880, Note_off_c, 0, 80, 64
2, 377880, Note_on_c, 0, 71, 100
2, 378000, Note_off_c, 0, 71, 64
2, 378000, Note_on_c, 0, 81, 100
2, 378120, Note_off_c, 0, 81, 64
2, 378120, Note_on_c, 0, 71, 100
2, 378240, Note_off_c, 0, 71, 64
2, 378240, Note_on_c, 0, 80, 100
2, 378360, Note_off_c, 0, 80, 64
2, 378360, Note_on_c, 0, 71, 100
2, 378480, Note_off_c, 0, 71, 64
2, 378480, Note_on_c, 0, 78, 100
2, 378600, Note_off_c, 0, 78, 64
2, 378600, Note_on_c, 0, 71, 100
2, 378720, Note_off_c, 0, 71, 64
2, 378720, Note_on_c, 0, 76, 100
2, 378840, Note_off_c, 0, 76, 64
2, 378840, Note_on_c, 0, 71, 100
2, 378960, Note_off_c, 0, 71, 64
2, 378960, Note_on_c, 0, 78, 100
2, 379080, Note_off_c, 0, 78, 64
2, 379080, Note_on_c, 0, 71, 100
2, 379200, Note_off_c, 0, 71, 64
2, 379200, Note_on_c, 0, 76, 100
2, 379320, Note_off_c, 0, 76, 64
2, 379320, Note_on_c, 0, 71, 100
2, 379440, Note_off_c, 0, 71, 64
2, 379440, Note_on_c, 0, 78, 100
2, 379560, Note_off_c, 0, 78, 64
2, 379560, Note_on_c, 0, 71, 100
2, 379680, Note_off_c, 0, 71, 64
2, 379680, Note_on_c, 0, 80, 100
2, 379800, Note_off_c, 0, 80, 64
2, 379800, Note_on_c, 0, 71, 100
2, 379920, Note_off_c, 0, 71, 64
2, 379920, Note_on_c, 0, 81, 100
2, 380040, Note_off_c, 0, 81, 64
2, 380040, Note_on_c, 0, 71, 100
2, 380160, Note_off_c, 0, 71, 64
2, 380160, Note_on_c, 0, 80, 100
2, 380280, Note_off_c, 0, 80, 64
2, 380280, Note_on_c, 0, 71, 100
2, 380400, Note_off_c, 0, 71, 64
2, 380400, Note_on_c, 0, 78, 100
2, 380520, Note_off_c, 0, 78, 64
2, 380520, Note_on_c, 0, 71, 100
2, 380640, Note_off_c, 0, 71, 64
2, 380640, Note_on_c, 0, 76, 100
2, 380760, Note_off_c, 0, 76, 64
2, 380760, Note_on_c, 0, 71, 100
2, 380880, Note_off_c, 0, 71, 64
2, 380880, Note_on_c, 0, 78, 100
2, 381000, Note_off_c, 0, 78, 64
2, 381000, Note_on_c, 0, 71, 100
2, 381120, Note_off_c, 0, 71, 64
2, 381120, Note_on_c, 0, 76, 100
2, 381240, Note_off_c, 0, 76, 64
2, 381240, Note_on_c, 0, 71, 100
2, 381360, Note_off_c, 0, 71, 64
2, 381360, Note_on_c, 0, 78, 100
2, 381480, Note_off_c, 0, 78, 64
2, 381480, Note_on_c, 0, 71, 100
2, 381600, Note_off_c, 0, 71, 64
2, 381600, Note_on_c, 0, 80, 100
2, 381720, Note_off_c, 0, 80, 64
2, 381720, Note_on_c, 0, 71, 100
2, 381840, Note_off_c, 0, 71, 64
2, 381840, Note_on_c, 0, 81, 100
2, 381960, Note_off_c, 0, 81, 64
2, 381960, Note_on_c, 0, 71, 100
2, 382080, Note_off_c, 0, 71, 64
2, 382080, Note_on_c, 0, 80, 100
2, 382200, Note_off_c, 0, 80, 64
2, 382200, Note_on_c, 0, 71, 100
2, 382320, Note_off_c, 0, 71, 64
2, 382320, Note_on_c, 0, 78, 100
2, 382440, Note_off_c, 0, 78, 64
2, 382440, Note_on_c, 0, 71, 100
2, 382560, Note_off_c, 0, 71, 64
2, 382560, Note_on_c, 0, 76, 100
2, 382680, Note_off_c, 0, 76, 64
2, 382680, Note_on_c, 0, 71, 100
2, 382800, Note_off_c, 0, 71, 64
2, 382800, Note_on_c, 0, 78, 100
2, 382920, Note_off_c, 0, 78, 64
2, 382920, Note_on_c, 0, 71, 100
2, 383040, Note_off_c, 0, 71, 64
2, 383040, Note_on_c, 0, 76, 100
2, 383160, Note_off_c, 0, 76, 64
2, 383160, Note_on_c, 0, 71, 100
2, 383280, Note_off_c, 0, 71, 64
2, 383280, Note_on_c, 0, 78, 100
2, 383400, Note_off_c, 0, 78, 64
2, 383400, Note_on_c, 0, 71, 100
2, 383520, Note_off_c, 0, 71, 64
2, 383520, Note_on_c, 0, 80, 100
2, 383640, Note_off_c, 0, 80, 64
2, 383640, Note_on_c, 0, 71, 100
2, 383760, Note_off_c, 0, 71, 64
2, 383760, Note_on_c, 0, 81, 100
2, 383880, Note_off_c, 0, 81, 64
2, 383880, Note_on_c, 0, 71, 100
2, 384000, Note_off_c, 0, 71, 64
2, 384000, Note_on_c, 0, 80, 100
2, 384120, Note_off_c, 0, 80, 64
2, 384120, Note_on_c, 0, 71, 100
2, 384240, Note_off_c, 0, 71, 64
2, 384240, Note_on_c, 0, 78, 100
2, 384360, Note_off_c, 0, 78, 64
2, 384360, Note_on_c, 0, 71, 100
2, 384480, Note_off_c, 0, 71, 64
2, 384480, Note_on_c, 0, 76, 100
2, 384600, Note_off_c, 0, 76, 64
2, 384600, Note_on_c, 0, 71, 100
2, 384720, Note_off_c, 0, 71, 64
2, 384720, Note_on_c, 0, 78, 100
2, 384840, Note_off_c, 0, 78, 64
2, 384840, Note_on_c, 0, 71, 100
2, 384960, Note_off_c, 0, 71, 64
2, 384960, Note_on_c, 0, 76, 100
2, 385080, Note_off_c, 0, 76, 64
2, 385080, Note_on_c, 0, 71, 100
2, 385200, Note_off_c, 0, 71, 64
2, 385200, Note_on_c, 0, 78, 100
2, 385320, Note_off_c, 0, 78, 64
2, 385320, Note_on_c, 0, 71, 100
2, 385440, Note_off_c, 0, 71, 64
2, 385440, Note_on_c, 0, 80, 100
2, 385560, Note_off_c, 0, 80, 64
2, 385560, Note_on_c, 0, 71, 100
2, 385680, Note_off_c, 0, 71, 64
2, 385680, Note_on_c, 0, 81, 100
2, 385800, Note_off_c, 0, 81, 64
2, 385800, Note_on_c, 0, 71, 100
2, 385920, Note_off_c, 0, 71, 64
2, 385920, Note_on_c, 0, 80, 100
2, 386040, Note_off_c, 0, 80, 64
2, 386040, Note_on_c, 0, 71, 100
2, 386160, Note_off_c, 0, 71, 64
2, 386160, Note_on_c, 0, 78, 100
2, 386280, Note_off_c, 0, 78, 64
2, 386280, Note_on_c, 0, 71, 100
2, 386400, Note_off_c, 0, 71, 64
2, 386400, Note_on_c, 0, 76, 100
2, 386520, Note_off_c, 0, 76, 64
2, 386520, Note_on_c, 0, 71, 100
2, 386640, Note_off_c, 0, 71, 64
2, 386640, Note_on_c, 0, 78, 100
2, 386760, Note_off_c, 0, 78, 64
2, 386760, Note_on_c, 0, 71, 100
2, 386880, Note_off_c, 0, 71, 64
2, 386880, Pitch_bend_c, 0, 9192
2, 386880, Note_on_c, 0, 78, 100
2, 386895, Pitch_bend_c, 0, 10192
2, 386910, Pitch_bend_c, 0, 11192
2, 386925, Pitch_bend_c, 0, 12192
2, 386940, Pitch_bend_c, 0, 13192
2, 386955, Pitch_bend_c, 0, 14192
2, 386958, Pitch_bend_c, 0, 15192
2, 386960, Pitch_bend_c, 0, 16192
2, 387120, Note_off_c, 0, 78, 64
2, 387120, Note_on_c, 0, 78, 100
2, 387120, Pitch_bend_c, 0, 8192
2, 387360, Note_off_c, 0, 78, 64
2, 387360, Note_on_c, 0, 76, 100
2, 387600, Note_off_c, 0, 76, 64
2, 387600, Pitch_bend_c, 0, 9192
2, 387600, Note_on_c, 0, 76, 100
2, 387615, Pitch_bend_c, 0, 10192
2, 387630, Pitch_bend_c, 0, 11192
2, 387645, Pitch_bend_c, 0, 12192
2, 387660, Pitch_bend_c, 0, 13192
2, 387675, Pitch_bend_c, 0, 14192
2, 387678, Pitch_bend_c, 0, 15192
2, 387680, Pitch_bend_c, 0, 16192
2, 388080, Note_off_c, 0, 76, 64
2, 388080, Pitch_bend_c, 0, 8192
2, 388080, Note_on_c, 0, 76, 90
2, 390727, Note_off_c, 0, 76, 64
2, 390727, End_track
3, 0, Start_track
3, 0, Title_t, "Guitar2"
3, 0, MIDI_port, 0
3, 0, Channel_prefix, 1
3, 0, Control_c, 1, 7, 89
3, 0, Program_c, 1, 30
3, 114480, Note_on_c, 1, 64, 100
3, 114540, Note_off_c, 1, 64, 64
3, 114540, Note_on_c, 1, 65, 100
3, 114600, Note_off_c, 1, 65, 64
3, 114600, Note_on_c, 1, 64, 100
3, 115680, Note_off_c, 1, 64, 64
3, 115680, Note_on_c, 1, 66, 100
3, 115920, Note_off_c, 1, 66, 64
3, 115920, Note_on_c, 1, 68, 100
3, 116160, Note_off_c, 1, 68, 64
3, 116160, Note_on_c, 1, 69, 100
3, 116640, Note_off_c, 1, 69, 64
3, 116644, Note_on_c, 1, 71, 100
3, 116880, Note_on_c, 1, 73, 100
3, 116884, Note_off_c, 1, 71, 64
3, 117120, Note_off_c, 1, 73, 64
3, 117120, Pitch_bend_c, 1, 9192
3, 117120, Note_on_c, 1, 72, 100
3, 117135, Pitch_bend_c, 1, 10192
3, 117150, Pitch_bend_c, 1, 11192
3, 117165, Pitch_bend_c, 1, 12192
3, 117180, Pitch_bend_c, 1, 13192
3, 117195, Pitch_bend_c, 1, 14192
3, 117210, Pitch_bend_c, 1, 15192
3, 117225, Pitch_bend_c, 1, 16192
3, 117600, Note_off_c, 1, 72, 64
3, 117600, Pitch_bend_c, 1, 8192
3, 117600, Note_on_c, 1, 73, 100
3, 117840, Note_off_c, 1, 73, 64
3, 117840, Note_on_c, 1, 71, 100
3, 118080, Note_off_c, 1, 71, 64
3, 118080, Note_on_c, 1, 66, 100
3, 118320, Note_off_c, 1, 66, 64
3, 118320, Note_on_c, 1, 67, 100
3, 118560, Note_off_c, 1, 67, 64
3, 118560, Note_on_c, 1, 66, 100
3, 118800, Note_off_c, 1, 66, 64
3, 118800, Note_on_c, 1, 64, 100
3, 119040, Note_off_c, 1, 64, 64
3, 119040, Pitch_bend_c, 1, 9192
3, 119040, Note_on_c, 1, 70, 100
3, 119055, Pitch_bend_c, 1, 10192
3, 119070, Pitch_bend_c, 1, 11192
3, 119085, Pitch_bend_c, 1, 12192
3, 119100, Pitch_bend_c, 1, 13192
3, 119115, Pitch_bend_c, 1, 14192
3, 119130, Pitch_bend_c, 1, 15192
3, 119145, Pitch_bend_c, 1, 16192
3, 119520, Note_off_c, 1, 70, 64
3, 119520, Pitch_bend_c, 1, 8192
3, 119520, Note_on_c, 1, 71, 100
3, 119760, Note_off_c, 1, 71, 64
3, 119760, Note_on_c, 1, 69, 100
3, 120000, Note_off_c, 1, 69, 64
3, 120000, Note_on_c, 1, 67, 100
3, 120240, Note_off_c, 1, 67, 64
3, 129364, Note_on_c, 1, 59, 55
3, 129484, Note_off_c, 1, 59, 80
3, 129604, Note_on_c, 1, 57, 55
3, 130084, Note_off_c, 1, 57, 64
3, 130084, Note_on_c, 1, 55, 55
3, 130204, Note_off_c, 1, 55, 64
3, 130324, Note_on_c, 1, 53, 55
3, 130804, Note_off_c, 1, 53, 64
3, 130804, Note_on_c, 1, 50, 55
3, 131284, Note_off_c, 1, 50, 64
3, 137760, Pitch_bend_c, 1, 9192
3, 137760, Note_on_c, 1, 65, 100
3, 137775, Pitch_bend_c, 1, 10192
3, 137790, Pitch_bend_c, 1, 11192
3, 137805, Pitch_bend_c, 1, 12192
3, 137820, Pitch_bend_c, 1, 13192
3, 137835, Pitch_bend_c, 1, 14192
3, 137850, Pitch_bend_c, 1, 15192
3, 137865, Pitch_bend_c, 1, 16192
3, 138960, Note_on_c, 1, 45, 75
3, 138960, Note_on_c, 1, 52, 75
3, 138960, Pitch_bend_c, 1, 8192
3, 138967, Note_off_c, 1, 65, 64
3, 140640, Note_off_c, 1, 45, 64
3, 140640, Note_off_c, 1, 52, 64
3, 140640, Note_on_c, 1, 53, 75
3, 140640, Note_on_c, 1, 48, 75
3, 141600, Note_off_c, 1, 48, 64
3, 141600, Note_off_c, 1, 53, 64
3, 141600, Note_on_c, 1, 60, 75
3, 141600, Note_on_c, 1, 55, 75
3, 141600, Note_on_c, 1, 48, 75
3, 141840, Note_off_c, 1, 48, 64
3, 141840, Note_off_c, 1, 55, 64
3, 141840, Note_off_c, 1, 60, 64
3, 142080, Note_on_c, 1, 55, 75
3, 142080, Note_on_c, 1, 50, 75
3, 142080, Note_on_c, 1, 43, 75
3, 142800, Note_off_c, 1, 43, 64
3, 142800, Note_off_c, 1, 50, 64
3, 142800, Note_off_c, 1, 55, 64
3, 142800, Note_on_c, 1, 58, 75
3, 142800, Note_on_c, 1, 53, 75
3, 142800, Note_on_c, 1, 46, 75
3, 144720, Note_off_c, 1, 46, 64
3, 144720, Note_off_c, 1, 53, 64
3, 144720, Note_off_c, 1, 58, 64
3, 144720, Note_on_c, 1, 53, 75
3, 144720, Note_on_c, 1, 48, 75
3, 144720, Note_on_c, 1, 60, 75
3, 145440, Note_off_c, 1, 60, 64
3, 145440, Note_off_c, 1, 48, 64
3, 145440, Note_off_c, 1, 53, 64
3, 145440, Note_on_c, 1, 60, 75
3, 145440, Note_on_c, 1, 48, 75
3, 145440, Note_on_c, 1, 55, 75
3, 146640, Note_off_c, 1, 55, 64
3, 146640, Note_off_c, 1, 48, 64
3, 146640, Note_off_c, 1, 60, 64
3, 147360, Control_c, 1, 7, 20
3, 147360, Note_on_c, 1, 68, 60
3, 147390, Control_c, 1, 7, 30
3, 147420, Control_c, 1, 7, 40
3, 147450, Control_c, 1, 7, 50
3, 147480, Control_c, 1, 7, 60
3, 147510, Control_c, 1, 7, 70
3, 147540, Control_c, 1, 7, 80
3, 147540, Control_c, 1, 7, 90
3, 147600, Control_c, 1, 7, 100
3, 149047, Note_off_c, 1, 68, 64
3, 149750, Control_c, 1, 7, 20
3, 149760, Note_on_c, 1, 64, 70
3, 149790, Control_c, 1, 7, 30
3, 149820, Control_c, 1, 7, 40
3, 149850, Control_c, 1, 7, 50
3, 149880, Control_c, 1, 7, 60
3, 149910, Control_c, 1, 7, 70
3, 149940, Control_c, 1, 7, 80
3, 149940, Control_c, 1, 7, 90
3, 150000, Control_c, 1, 7, 100
3, 150240, Note_off_c, 1, 64, 64
3, 150720, Control_c, 1, 7, 20
3, 150720, Note_on_c, 1, 66, 60
3, 150750, Control_c, 1, 7, 30
3, 150780, Control_c, 1, 7, 40
3, 150810, Control_c, 1, 7, 50
3, 150840, Control_c, 1, 7, 60
3, 150870, Control_c, 1, 7, 70
3, 150900, Control_c, 1, 7, 80
3, 150900, Control_c, 1, 7, 90
3, 150960, Control_c, 1, 7, 100
3, 151190, Control_c, 1, 1, 0
3, 151200, Control_c, 1, 1, 127
3, 152407, Note_off_c, 1, 66, 64
3, 153590, Control_c, 1, 7, 20
3, 153590, Control_c, 1, 1, 0
3, 153600, Note_on_c, 1, 63, 75
3, 153630, Control_c, 1, 7, 30
3, 153660, Control_c, 1, 7, 40
3, 153690, Control_c, 1, 7, 50
3, 153720, Control_c, 1, 7, 60
3, 153750, Control_c, 1, 7, 70
3, 153780, Control_c, 1, 7, 80
3, 153780, Control_c, 1, 7, 90
3, 153840, Control_c, 1, 7, 100
3, 154080, Note_off_c, 1, 63, 64
3, 154320, Control_c, 1, 7, 20
3, 154320, Note_on_c, 1, 64, 60
3, 154350, Control_c, 1, 7, 30
3, 154380, Control_c, 1, 7, 40
3, 154410, Control_c, 1, 7, 50
3, 154440, Control_c, 1, 7, 60
3, 154470, Control_c, 1, 7, 70
3, 154500, Control_c, 1, 7, 80
3, 154500, Control_c, 1, 7, 90
3, 154560, Control_c, 1, 7, 100
3, 154800, Control_c, 1, 1, 127
3, 156007, Note_off_c, 1, 64, 64
3, 156240, Control_c, 1, 1, 0
3, 156470, Control_c, 1, 7, 20
3, 156480, Note_on_c, 1, 71, 60
3, 156510, Control_c, 1, 7, 30
3, 156540, Control_c, 1, 7, 40
3, 156570, Control_c, 1, 7, 50
3, 156600, Control_c, 1, 7, 60
3, 156630, Control_c, 1, 7, 70
3, 156660, Control_c, 1, 7, 80
3, 156660, Control_c, 1, 7, 90
3, 156720, Control_c, 1, 7, 100
3, 157207, Note_off_c, 1, 71, 64
3, 157670, Control_c, 1, 7, 20
3, 157680, Note_on_c, 1, 66, 65
3, 157710, Control_c, 1, 7, 30
3, 157740, Control_c, 1, 7, 40
3, 157770, Control_c, 1, 7, 50
3, 157800, Control_c, 1, 7, 60
3, 157830, Control_c, 1, 7, 70
3, 157860, Control_c, 1, 7, 80
3, 157860, Control_c, 1, 7, 90
3, 157920, Control_c, 1, 7, 100
3, 159120, Note_off_c, 1, 66, 64
3, 159590, Control_c, 1, 7, 20
3, 159600, Note_on_c, 1, 66, 50
3, 159630, Control_c, 1, 7, 30
3, 159660, Control_c, 1, 7, 40
3, 159690, Control_c, 1, 7, 50
3, 159720, Control_c, 1, 7, 60
3, 159750, Control_c, 1, 7, 70
3, 159780, Control_c, 1, 7, 80
3, 159780, Control_c, 1, 7, 90
3, 159833, Note_off_c, 1, 66, 64
3, 159840, Control_c, 1, 7, 100
3, 228960, Note_on_c, 1, 64, 82
3, 235510, Note_off_c, 1, 64, 64
3, 297830, Control_c, 1, 7, 70
3, 297840, Note_on_c, 1, 52, 100
3, 297840, Note_on_c, 1, 47, 100
3, 297840, Note_on_c, 1, 40, 100
3, 299513, Note_off_c, 1, 40, 64
3, 299513, Note_off_c, 1, 47, 64
3, 299513, Note_off_c, 1, 52, 64
3, 299520, Note_on_c, 1, 57, 100
3, 299520, Note_on_c, 1, 52, 100
3, 299520, Note_on_c, 1, 45, 100
3, 300480, Note_off_c, 1, 45, 64
3, 300480, Note_off_c, 1, 52, 64
3, 300480, Note_off_c, 1, 57, 64
3, 300480, Note_on_c, 1, 50, 100
3, 300480, Note_on_c, 1, 57, 100
3, 300480, Note_on_c, 1, 62, 100
3, 300960, Note_off_c, 1, 62, 64
3, 300960, Note_off_c, 1, 57, 64
3, 300960, Note_off_c, 1, 50, 64
3, 300960, Note_on_c, 1, 42, 100
3, 301200, Note_off_c, 1, 42, 64
3, 301200, Note_on_c, 1, 45, 100
3, 301440, Note_off_c, 1, 45, 64
3, 301440, Note_on_c, 1, 48, 100
3, 301440, Pitch_bend_c, 1, 9192
3, 301455, Pitch_bend_c, 1, 10192
3, 301470, Pitch_bend_c, 1, 11192
3, 301485, Pitch_bend_c, 1, 12192
3, 301500, Pitch_bend_c, 1, 13192
3, 301515, Pitch_bend_c, 1, 14192
3, 301530, Pitch_bend_c, 1, 15192
3, 301545, Pitch_bend_c, 1, 16192
3, 301680, Note_off_c, 1, 48, 64
3, 301680, Note_on_c, 1, 44, 100
3, 301680, Pitch_bend_c, 1, 8192
3, 302393, Note_off_c, 1, 44, 64
3, 302400, Note_on_c, 1, 45, 100
3, 302880, Note_off_c, 1, 45, 64
3, 302880, Note_on_c, 1, 47, 100
3, 303360, Note_off_c, 1, 47, 64
3, 303360, Note_on_c, 1, 49, 100
3, 303600, Note_on_c, 1, 50, 100
3, 303607, Note_off_c, 1, 49, 64
3, 304313, Note_off_c, 1, 50, 64
3, 304320, Note_on_c, 1, 40, 100
3, 304320, Note_on_c, 1, 47, 100
3, 304320, Note_on_c, 1, 52, 100
3, 305993, Note_off_c, 1, 52, 64
3, 305993, Note_off_c, 1, 47, 64
3, 305993, Note_off_c, 1, 40, 64
3, 306000, Note_on_c, 1, 57, 100
3, 306000, Note_on_c, 1, 52, 100
3, 306000, Note_on_c, 1, 45, 100
3, 306960, Note_off_c, 1, 45, 64
3, 306960, Note_off_c, 1, 52, 64
3, 306960, Note_off_c, 1, 57, 64
3, 306960, Pitch_bend_c, 1, 9192
3, 306960, Note_on_c, 1, 38, 100
3, 306975, Pitch_bend_c, 1, 10192
3, 306990, Pitch_bend_c, 1, 11192
3, 307005, Pitch_bend_c, 1, 12192
3, 307020, Pitch_bend_c, 1, 13192
3, 307035, Pitch_bend_c, 1, 14192
3, 307050, Pitch_bend_c, 1, 15192
3, 307065, Pitch_bend_c, 1, 16192
3, 307440, Note_off_c, 1, 38, 64
3, 307440, Pitch_bend_c, 1, 8192
3, 307440, Note_on_c, 1, 40, 100
3, 307920, Note_off_c, 1, 40, 64
3, 307920, Note_on_c, 1, 42, 100
3, 308160, Note_off_c, 1, 42, 64
3, 308160, Note_on_c, 1, 43, 100
3, 308400, Note_off_c, 1, 43, 64
3, 308400, Note_on_c, 1, 45, 100
3, 308640, Note_off_c, 1, 45, 64
3, 308640, Note_on_c, 1, 47, 100
3, 308880, Note_off_c, 1, 47, 64
3, 308880, Note_on_c, 1, 55, 100
3, 308880, Note_on_c, 1, 60, 100
3, 308880, Note_on_c, 1, 48, 100
3, 310080, Note_on_c, 1, 48, 100
3, 310080, Note_on_c, 1, 53, 100
3, 310080, Note_on_c, 1, 41, 100
3, 310087, Note_off_c, 1, 48, 64
3, 310087, Note_off_c, 1, 60, 64
3, 310087, Note_off_c, 1, 55, 64
3, 311040, Note_off_c, 1, 48, 64
3, 311040, Note_off_c, 1, 53, 64
3, 311040, Note_off_c, 1, 41, 64
3, 311040, Note_on_c, 1, 59, 100
3, 311040, Note_on_c, 1, 54, 100
3, 311040, Note_on_c, 1, 47, 100
3, 312000, Note_off_c, 1, 47, 64
3, 312000, Note_off_c, 1, 54, 64
3, 312000, Note_off_c, 1, 59, 64
3, 312000, Note_on_c, 1, 40, 90
3, 312000, Note_on_c, 1, 47, 90
3, 312000, Note_on_c, 1, 52, 90
3, 313680, Note_off_c, 1, 52, 64
3, 313680, Note_off_c, 1, 47, 64
3, 313680, Note_off_c, 1, 40, 64
3, 313680, Note_on_c, 1, 45, 90
3, 313680, Note_on_c, 1, 57, 90
3, 313680, Note_on_c, 1, 52, 90
3, 314640, Note_off_c, 1, 52, 64
3, 314640, Note_off_c, 1, 57, 64
3, 314640, Note_off_c, 1, 45, 64
3, 314640, Note_on_c, 1, 50, 90
3, 314640, Note_on_c, 1, 57, 90
3, 314640, Note_on_c, 1, 62, 90
3, 315840, Note_off_c, 1, 62, 64
3, 315840, Note_off_c, 1, 57, 64
3, 315840, Note_off_c, 1, 50, 64
3, 315840, Note_on_c, 1, 44, 90
3, 315840, Note_on_c, 1, 51, 90
3, 315840, Note_on_c, 1, 56, 90
3, 316560, Note_off_c, 1, 56, 64
3, 316560, Note_off_c, 1, 51, 64
3, 316560, Note_off_c, 1, 44, 64
3, 316560, Note_on_c, 1, 45, 90
3, 316560, Note_on_c, 1, 57, 90
3, 316560, Note_on_c, 1, 52, 90
3, 317760, Note_off_c, 1, 52, 64
3, 317760, Note_off_c, 1, 57, 64
3, 317760, Note_off_c, 1, 45, 64
3, 317760, Note_on_c, 1, 50, 90
3, 317760, Note_on_c, 1, 57, 90
3, 317760, Note_on_c, 1, 62, 90
3, 318480, Note_off_c, 1, 62, 64
3, 318480, Note_off_c, 1, 57, 64
3, 318480, Note_off_c, 1, 50, 64
3, 318480, Note_on_c, 1, 52, 90
3, 318480, Note_on_c, 1, 59, 90
3, 318480, Note_on_c, 1, 64, 90
3, 319680, Note_off_c, 1, 64, 64
3, 319680, Note_off_c, 1, 59, 64
3, 319680, Note_off_c, 1, 52, 64
3, 319680, Note_on_c, 1, 52, 90
3, 319680, Note_on_c, 1, 47, 90
3, 319680, Note_on_c, 1, 40, 90
3, 321360, Note_off_c, 1, 40, 64
3, 321360, Note_off_c, 1, 47, 64
3, 321360, Note_off_c, 1, 52, 64
3, 321360, Note_on_c, 1, 45, 90
3, 321360, Note_on_c, 1, 57, 90
3, 321360, Note_on_c, 1, 52, 90
3, 322320, Note_off_c, 1, 52, 64
3, 322320, Note_off_c, 1, 57, 64
3, 322320, Note_off_c, 1, 45, 64
3, 322320, Note_on_c, 1, 50, 90
3, 322320, Note_on_c, 1, 57, 90
3, 322320, Note_on_c, 1, 62, 90
3, 323520, Note_off_c, 1, 62, 64
3, 323520, Note_off_c, 1, 57, 64
3, 323520, Note_off_c, 1, 50, 64
3, 323520, Note_on_c, 1, 44, 90
3, 323520, Note_on_c, 1, 51, 90
3, 323520, Note_on_c, 1, 56, 90
3, 324240, Note_off_c, 1, 56, 64
3, 324240, Note_off_c, 1, 51, 64
3, 324240, Note_off_c, 1, 44, 64
3, 324240, Note_on_c, 1, 45, 90
3, 324240, Note_on_c, 1, 57, 90
3, 324240, Note_on_c, 1, 52, 90
3, 325440, Note_off_c, 1, 52, 64
3, 325440, Note_off_c, 1, 57, 64
3, 325440, Note_off_c, 1, 45, 64
3, 325440, Note_on_c, 1, 50, 90
3, 325440, Note_on_c, 1, 57, 90
3, 325440, Note_on_c, 1, 62, 90
3, 326160, Note_off_c, 1, 62, 64
3, 326160, Note_off_c, 1, 57, 64
3, 326160, Note_off_c, 1, 50, 64
3, 326160, Note_on_c, 1, 52, 90
3, 326160, Note_on_c, 1, 59, 90
3, 326160, Note_on_c, 1, 64, 90
3, 327360, Note_off_c, 1, 64, 64
3, 327360, Note_off_c, 1, 59, 64
3, 327360, Note_off_c, 1, 52, 64
3, 327360, Note_on_c, 1, 52, 90
3, 327360, Note_on_c, 1, 47, 90
3, 327360, Note_on_c, 1, 40, 90
3, 329040, Note_off_c, 1, 40, 64
3, 329040, Note_off_c, 1, 47, 64
3, 329040, Note_off_c, 1, 52, 64
3, 329040, Note_on_c, 1, 45, 90
3, 329040, Note_on_c, 1, 57, 90
3, 329040, Note_on_c, 1, 52, 90
3, 330000, Note_off_c, 1, 52, 64
3, 330000, Note_off_c, 1, 57, 64
3, 330000, Note_off_c, 1, 45, 64
3, 330000, Note_on_c, 1, 50, 90
3, 330000, Note_on_c, 1, 57, 90
3, 330000, Note_on_c, 1, 62, 90
3, 331200, Note_off_c, 1, 62, 64
3, 331200, Note_off_c, 1, 57, 64
3, 331200, Note_off_c, 1, 50, 64
3, 331200, Note_on_c, 1, 44, 90
3, 331200, Note_on_c, 1, 51, 90
3, 331200, Note_on_c, 1, 56, 90
3, 331920, Note_off_c, 1, 56, 64
3, 331920, Note_off_c, 1, 51, 64
3, 331920, Note_off_c, 1, 44, 64
3, 331920, Note_on_c, 1, 45, 90
3, 331920, Note_on_c, 1, 57, 90
3, 331920, Note_on_c, 1, 52, 90
3, 333120, Note_off_c, 1, 52, 64
3, 333120, Note_off_c, 1, 57, 64
3, 333120, Note_off_c, 1, 45, 64
3, 333120, Note_on_c, 1, 50, 90
3, 333120, Note_on_c, 1, 57, 90
3, 333120, Note_on_c, 1, 62, 90
3, 333840, Note_off_c, 1, 62, 64
3, 333840, Note_off_c, 1, 57, 64
3, 333840, Note_off_c, 1, 50, 64
3, 333840, Note_on_c, 1, 52, 90
3, 333840, Note_on_c, 1, 59, 90
3, 333840, Note_on_c, 1, 64, 90
3, 335040, Note_off_c, 1, 64, 64
3, 335040, Note_off_c, 1, 59, 64
3, 335040, Note_off_c, 1, 52, 64
3, 335040, Note_on_c, 1, 52, 90
3, 335040, Note_on_c, 1, 47, 90
3, 335040, Note_on_c, 1, 40, 90
3, 336720, Note_off_c, 1, 40, 64
3, 336720, Note_off_c, 1, 47, 64
3, 336720, Note_off_c, 1, 52, 64
3, 336720, Note_on_c, 1, 45, 90
3, 336720, Note_on_c, 1, 57, 90
3, 336720, Note_on_c, 1, 52, 90
3, 337680, Note_off_c, 1, 52, 64
3, 337680, Note_off_c, 1, 57, 64
3, 337680, Note_off_c, 1, 45, 64
3, 337680, Note_on_c, 1, 50, 90
3, 337680, Note_on_c, 1, 57, 90
3, 337680, Note_on_c, 1, 62, 90
3, 338880, Note_off_c, 1, 62, 64
3, 338880, Note_off_c, 1, 57, 64
3, 338880, Note_off_c, 1, 50, 64
3, 338880, Note_on_c, 1, 44, 90
3, 338880, Note_on_c, 1, 51, 90
3, 338880, Note_on_c, 1, 56, 90
3, 339600, Note_off_c, 1, 56, 64
3, 339600, Note_off_c, 1, 51, 64
3, 339600, Note_off_c, 1, 44, 64
3, 339600, Note_on_c, 1, 45, 90
3, 339600, Note_on_c, 1, 57, 90
3, 339600, Note_on_c, 1, 52, 90
3, 340800, Note_off_c, 1, 52, 64
3, 340800, Note_off_c, 1, 57, 64
3, 340800, Note_off_c, 1, 45, 64
3, 340800, Note_on_c, 1, 50, 90
3, 340800, Note_on_c, 1, 57, 90
3, 340800, Note_on_c, 1, 62, 90
3, 341520, Note_off_c, 1, 62, 64
3, 341520, Note_off_c, 1, 57, 64
3, 341520, Note_off_c, 1, 50, 64
3, 341520, Note_on_c, 1, 52, 90
3, 341520, Note_on_c, 1, 59, 90
3, 341520, Note_on_c, 1, 64, 90
3, 342720, Note_off_c, 1, 64, 64
3, 342720, Note_off_c, 1, 59, 64
3, 342720, Note_off_c, 1, 52, 64
3, 342720, Note_on_c, 1, 52, 90
3, 342720, Note_on_c, 1, 47, 90
3, 342720, Note_on_c, 1, 40, 90
3, 344400, Note_off_c, 1, 40, 64
3, 344400, Note_off_c, 1, 47, 64
3, 344400, Note_off_c, 1, 52, 64
3, 344400, Note_on_c, 1, 45, 90
3, 344400, Note_on_c, 1, 57, 90
3, 344400, Note_on_c, 1, 52, 90
3, 345360, Note_off_c, 1, 52, 64
3, 345360, Note_off_c, 1, 57, 64
3, 345360, Note_off_c, 1, 45, 64
3, 345360, Note_on_c, 1, 50, 90
3, 345360, Note_on_c, 1, 57, 90
3, 345360, Note_on_c, 1, 62, 90
3, 346560, Note_off_c, 1, 62, 64
3, 346560, Note_off_c, 1, 57, 64
3, 346560, Note_off_c, 1, 50, 64
3, 346560, Note_on_c, 1, 44, 90
3, 346560, Note_on_c, 1, 51, 90
3, 346560, Note_on_c, 1, 56, 90
3, 347280, Note_off_c, 1, 56, 64
3, 347280, Note_off_c, 1, 51, 64
3, 347280, Note_off_c, 1, 44, 64
3, 347280, Note_on_c, 1, 45, 90
3, 347280, Note_on_c, 1, 57, 90
3, 347280, Note_on_c, 1, 52, 90
3, 348480, Note_off_c, 1, 52, 64
3, 348480, Note_off_c, 1, 57, 64
3, 348480, Note_off_c, 1, 45, 64
3, 348480, Note_on_c, 1, 50, 90
3, 348480, Note_on_c, 1, 57, 90
3, 348480, Note_on_c, 1, 62, 90
3, 349200, Note_off_c, 1, 62, 64
3, 349200, Note_off_c, 1, 57, 64
3, 349200, Note_off_c, 1, 50, 64
3, 349200, Note_on_c, 1, 52, 90
3, 349200, Note_on_c, 1, 59, 90
3, 349200, Note_on_c, 1, 64, 90
3, 350400, Note_off_c, 1, 64, 64
3, 350400, Note_off_c, 1, 59, 64
3, 350400, Note_off_c, 1, 52, 64
3, 350400, Note_on_c, 1, 52, 90
3, 350400, Note_on_c, 1, 47, 90
3, 350400, Note_on_c, 1, 40, 90
3, 352080, Note_off_c, 1, 40, 64
3, 352080, Note_off_c, 1, 47, 64
3, 352080, Note_off_c, 1, 52, 64
3, 352080, Note_on_c, 1, 45, 90
3, 352080, Note_on_c, 1, 57, 90
3, 352080, Note_on_c, 1, 52, 90
3, 353040, Note_off_c, 1, 52, 64
3, 353040, Note_off_c, 1, 57, 64
3, 353040, Note_off_c, 1, 45, 64
3, 353040, Note_on_c, 1, 50, 90
3, 353040, Note_on_c, 1, 57, 90
3, 353040, Note_on_c, 1, 62, 90
3, 354240, Note_off_c, 1, 62, 64
3, 354240, Note_off_c, 1, 57, 64
3, 354240, Note_off_c, 1, 50, 64
3, 354240, Note_on_c, 1, 44, 90
3, 354240, Note_on_c, 1, 51, 90
3, 354240, Note_on_c, 1, 56, 90
3, 354960, Note_off_c, 1, 56, 64
3, 354960, Note_off_c, 1, 51, 64
3, 354960, Note_off_c, 1, 44, 64
3, 354960, Note_on_c, 1, 45, 90
3, 354960, Note_on_c, 1, 57, 90
3, 354960, Note_on_c, 1, 52, 90
3, 356160, Note_off_c, 1, 52, 64
3, 356160, Note_off_c, 1, 57, 64
3, 356160, Note_off_c, 1, 45, 64
3, 356160, End_track
4, 0, Start_track
4, 0, Title_t, "CleanGuitar"
4, 0, MIDI_port, 0
4, 0, Channel_prefix, 2
4, 0, Control_c, 2, 7, 92
4, 0, Program_c, 2, 27
4, 146640, Note_on_c, 2, 49, 80
4, 146640, Control_c, 2, 64, 127
4, 146880, Note_off_c, 2, 49, 64
4, 146880, Note_on_c, 2, 59, 80
4, 147120, Note_off_c, 2, 59, 64
4, 147120, Note_on_c, 2, 63, 80
4, 147360, Note_off_c, 2, 63, 64
4, 147360, Note_on_c, 2, 64, 100
4, 147600, Note_off_c, 2, 64, 64
4, 147840, Note_on_c, 2, 44, 80
4, 148080, Note_off_c, 2, 44, 64
4, 148080, Note_on_c, 2, 59, 80
4, 148320, Note_off_c, 2, 59, 64
4, 148320, Note_on_c, 2, 64, 100
4, 148560, Note_off_c, 2, 64, 64
4, 148560, Note_on_c, 2, 45, 80
4, 148800, Note_off_c, 2, 45, 64
4, 148800, Note_on_c, 2, 59, 80
4, 149040, Note_off_c, 2, 59, 64
4, 149040, Note_on_c, 2, 63, 80
4, 149280, Note_off_c, 2, 63, 64
4, 149280, Note_on_c, 2, 64, 100
4, 149520, Note_off_c, 2, 64, 64
4, 149760, Note_on_c, 2, 52, 80
4, 150000, Note_off_c, 2, 52, 64
4, 150000, Note_on_c, 2, 59, 80
4, 150240, Note_off_c, 2, 59, 64
4, 150240, Note_on_c, 2, 64, 100
4, 150480, Note_off_c, 2, 64, 64
4, 150480, Note_on_c, 2, 51, 80
4, 150720, Note_off_c, 2, 51, 64
4, 150720, Note_on_c, 2, 59, 80
4, 150960, Note_off_c, 2, 59, 64
4, 150960, Note_on_c, 2, 63, 80
4, 151200, Note_off_c, 2, 63, 64
4, 151200, Note_on_c, 2, 64, 100
4, 151440, Note_off_c, 2, 64, 64
4, 151680, Note_on_c, 2, 47, 80
4, 151920, Note_off_c, 2, 47, 64
4, 151920, Note_on_c, 2, 59, 80
4, 152160, Note_off_c, 2, 59, 64
4, 152160, Note_on_c, 2, 64, 100
4, 152400, Note_off_c, 2, 64, 64
4, 152400, Note_on_c, 2, 45, 70
4, 152640, Note_off_c, 2, 45, 64
4, 152640, Note_on_c, 2, 63, 80
4, 152880, Note_off_c, 2, 63, 64
4, 152880, Note_on_c, 2, 64, 100
4, 153120, Note_off_c, 2, 64, 64
4, 153120, Note_on_c, 2, 44, 70
4, 153360, Note_off_c, 2, 44, 64
4, 153360, Note_on_c, 2, 42, 70
4, 153600, Note_off_c, 2, 42, 64
4, 153600, Note_on_c, 2, 40, 70
4, 153840, Note_off_c, 2, 40, 64
4, 154080, Note_on_c, 2, 64, 100
4, 154320, Note_off_c, 2, 64, 64
4, 154320, Note_on_c, 2, 49, 80
4, 154560, Note_off_c, 2, 49, 64
4, 154560, Note_on_c, 2, 59, 80
4, 154800, Note_off_c, 2, 59, 64
4, 154800, Note_on_c, 2, 63, 80
4, 155040, Note_off_c, 2, 63, 64
4, 155040, Note_on_c, 2, 64, 100
4, 155280, Note_off_c, 2, 64, 64
4, 155520, Note_on_c, 2, 44, 80
4, 155760, Note_off_c, 2, 44, 64
4, 155760, Note_on_c, 2, 59, 80
4, 156000, Note_off_c, 2, 59, 64
4, 156000, Note_on_c, 2, 64, 100
4, 156240, Note_off_c, 2, 64, 64
4, 156240, Note_on_c, 2, 45, 80
4, 156480, Note_off_c, 2, 45, 64
4, 156480, Note_on_c, 2, 59, 80
4, 156720, Note_off_c, 2, 59, 64
4, 156720, Note_on_c, 2, 64, 100
4, 156960, Note_off_c, 2, 64, 64
4, 156960, Note_on_c, 2, 49, 80
4, 157200, Note_off_c, 2, 49, 64
4, 157200, Note_on_c, 2, 59, 80
4, 157440, Note_off_c, 2, 59, 64
4, 157440, Note_on_c, 2, 64, 100
4, 157680, Note_off_c, 2, 64, 64
4, 157680, Note_on_c, 2, 47, 100
4, 157920, Note_off_c, 2, 47, 64
4, 157920, Note_on_c, 2, 59, 70
4, 158160, Note_off_c, 2, 59, 64
4, 158160, Note_on_c, 2, 59, 70
4, 158400, Note_off_c, 2, 59, 64
4, 158400, Note_on_c, 2, 59, 70
4, 158640, Note_off_c, 2, 59, 64
4, 158640, Note_on_c, 2, 64, 100
4, 158880, Note_off_c, 2, 64, 64
4, 158880, Note_on_c, 2, 59, 70
4, 159120, Note_off_c, 2, 59, 64
4, 159120, Note_on_c, 2, 59, 70
4, 159360, Note_off_c, 2, 59, 64
4, 159600, Note_on_c, 2, 59, 70
4, 159840, Note_off_c, 2, 59, 64
4, 161520, Note_on_c, 2, 49, 80
4, 161760, Note_off_c, 2, 49, 64
4, 161760, Note_on_c, 2, 59, 80
4, 162000, Note_off_c, 2, 59, 64
4, 162000, Note_on_c, 2, 63, 80
4, 162240, Note_off_c, 2, 63, 64
4, 162240, Note_on_c, 2, 64, 100
4, 162480, Note_off_c, 2, 64, 64
4, 162720, Note_on_c, 2, 44, 80
4, 162960, Note_off_c, 2, 44, 64
4, 162960, Note_on_c, 2, 59, 80
4, 163200, Note_off_c, 2, 59, 64
4, 163200, Note_on_c, 2, 64, 100
4, 163440, Note_off_c, 2, 64, 64
4, 163440, Note_on_c, 2, 45, 80
4, 163680, Note_off_c, 2, 45, 64
4, 163680, Note_on_c, 2, 59, 80
4, 163920, Note_off_c, 2, 59, 64
4, 163920, Note_on_c, 2, 63, 80
4, 164160, Note_off_c, 2, 63, 64
4, 164160, Note_on_c, 2, 64, 100
4, 164400, Note_off_c, 2, 64, 64
4, 164640, Note_on_c, 2, 52, 80
4, 164880, Note_off_c, 2, 52, 64
4, 164880, Note_on_c, 2, 59, 80
4, 165120, Note_off_c, 2, 59, 64
4, 165120, Note_on_c, 2, 64, 100
4, 165360, Note_off_c, 2, 64, 64
4, 165360, Note_on_c, 2, 51, 80
4, 165600, Note_off_c, 2, 51, 64
4, 165600, Note_on_c, 2, 59, 80
4, 165840, Note_off_c, 2, 59, 64
4, 165840, Note_on_c, 2, 63, 80
4, 166080, Note_off_c, 2, 63, 64
4, 166080, Note_on_c, 2, 64, 100
4, 166320, Note_off_c, 2, 64, 64
4, 166560, Note_on_c, 2, 47, 80
4, 166800, Note_off_c, 2, 47, 64
4, 166800, Note_on_c, 2, 59, 80
4, 167040, Note_off_c, 2, 59, 64
4, 167040, Note_on_c, 2, 64, 100
4, 167280, Note_off_c, 2, 64, 64
4, 167280, Note_on_c, 2, 45, 70
4, 167520, Note_off_c, 2, 45, 64
4, 167520, Note_on_c, 2, 63, 80
4, 167760, Note_off_c, 2, 63, 64
4, 167760, Note_on_c, 2, 64, 100
4, 168000, Note_off_c, 2, 64, 64
4, 168000, Note_on_c, 2, 44, 70
4, 168240, Note_off_c, 2, 44, 64
4, 168240, Note_on_c, 2, 42, 70
4, 168480, Note_off_c, 2, 42, 64
4, 168480, Note_on_c, 2, 40, 70
4, 168720, Note_off_c, 2, 40, 64
4, 168960, Note_on_c, 2, 64, 100
4, 169200, Note_off_c, 2, 64, 64
4, 169200, Note_on_c, 2, 49, 80
4, 169440, Note_off_c, 2, 49, 64
4, 169440, Note_on_c, 2, 59, 80
4, 169680, Note_off_c, 2, 59, 64
4, 169680, Note_on_c, 2, 63, 80
4, 169920, Note_off_c, 2, 63, 64
4, 169920, Note_on_c, 2, 64, 100
4, 170160, Note_off_c, 2, 64, 64
4, 170400, Note_on_c, 2, 44, 80
4, 170640, Note_off_c, 2, 44, 64
4, 170640, Note_on_c, 2, 59, 80
4, 170880, Note_off_c, 2, 59, 64
4, 170880, Note_on_c, 2, 64, 100
4, 171120, Note_off_c, 2, 64, 64
4, 171120, Note_on_c, 2, 45, 80
4, 171360, Note_off_c, 2, 45, 64
4, 171360, Note_on_c, 2, 59, 80
4, 171600, Note_off_c, 2, 59, 64
4, 171600, Note_on_c, 2, 64, 100
4, 171840, Note_off_c, 2, 64, 64
4, 171840, Note_on_c, 2, 49, 80
4, 172080, Note_off_c, 2, 49, 64
4, 172080, Note_on_c, 2, 59, 80
4, 172320, Note_off_c, 2, 59, 64
4, 172320, Note_on_c, 2, 64, 100
4, 172560, Note_off_c, 2, 64, 64
4, 172560, Note_on_c, 2, 47, 100
4, 172800, Note_off_c, 2, 47, 64
4, 172800, Note_on_c, 2, 59, 70
4, 173040, Note_off_c, 2, 59, 64
4, 173040, Note_on_c, 2, 59, 70
4, 173280, Note_off_c, 2, 59, 64
4, 173280, Note_on_c, 2, 59, 70
4, 173520, Note_off_c, 2, 59, 64
4, 173520, Note_on_c, 2, 64, 100
4, 173760, Note_off_c, 2, 64, 64
4, 173760, Note_on_c, 2, 59, 70
4, 174000, Note_off_c, 2, 59, 64
4, 174000, Note_on_c, 2, 59, 70
4, 174240, Note_off_c, 2, 59, 64
4, 174480, Note_on_c, 2, 47, 100
4, 174720, Note_off_c, 2, 47, 64
4, 174720, Note_on_c, 2, 59, 70
4, 174960, Note_off_c, 2, 59, 64
4, 174960, Note_on_c, 2, 59, 70
4, 175200, Note_off_c, 2, 59, 64
4, 175200, Note_on_c, 2, 59, 70
4, 175440, Note_off_c, 2, 59, 64
4, 175440, Note_on_c, 2, 64, 100
4, 175680, Note_off_c, 2, 64, 64
4, 175680, Note_on_c, 2, 59, 70
4, 175920, Note_off_c, 2, 59, 64
4, 175920, Note_on_c, 2, 59, 70
4, 176160, Note_off_c, 2, 59, 64
4, 176400, Note_on_c, 2, 49, 80
4, 176640, Note_off_c, 2, 49, 64
4, 176640, Note_on_c, 2, 59, 80
4, 176880, Note_off_c, 2, 59, 64
4, 176880, Note_on_c, 2, 63, 80
4, 177120, Note_off_c, 2, 63, 64
4, 177120, Note_on_c, 2, 64, 100
4, 177360, Note_off_c, 2, 64, 64
4, 177600, Note_on_c, 2, 44, 80
4, 177840, Note_off_c, 2, 44, 64
4, 177840, Note_on_c, 2, 59, 80
4, 178080, Note_off_c, 2, 59, 64
4, 178080, Note_on_c, 2, 64, 100
4, 178320, Note_off_c, 2, 64, 64
4, 178320, Note_on_c, 2, 45, 80
4, 178560, Note_off_c, 2, 45, 64
4, 178560, Note_on_c, 2, 59, 80
4, 178800, Note_off_c, 2, 59, 64
4, 178800, Note_on_c, 2, 63, 80
4, 179040, Note_off_c, 2, 63, 64
4, 179040, Note_on_c, 2, 64, 100
4, 179280, Note_off_c, 2, 64, 64
4, 179520, Note_on_c, 2, 52, 80
4, 179760, Note_off_c, 2, 52, 64
4, 179760, Note_on_c, 2, 59, 80
4, 180000, Note_off_c, 2, 59, 64
4, 180000, Note_on_c, 2, 64, 100
4, 180240, Note_off_c, 2, 64, 64
4, 180240, Note_on_c, 2, 51, 80
4, 180480, Note_off_c, 2, 51, 64
4, 180480, Note_on_c, 2, 59, 80
4, 180720, Note_off_c, 2, 59, 64
4, 180720, Note_on_c, 2, 63, 80
4, 180960, Note_off_c, 2, 63, 64
4, 180960, Note_on_c, 2, 64, 100
4, 181200, Note_off_c, 2, 64, 64
4, 181440, Note_on_c, 2, 47, 80
4, 181680, Note_off_c, 2, 47, 64
4, 181680, Note_on_c, 2, 59, 80
4, 181920, Note_off_c, 2, 59, 64
4, 181920, Note_on_c, 2, 64, 100
4, 182160, Note_off_c, 2, 64, 64
4, 182160, Note_on_c, 2, 45, 70
4, 182400, Note_off_c, 2, 45, 64
4, 182400, Note_on_c, 2, 63, 80
4, 182640, Note_off_c, 2, 63, 64
4, 182640, Note_on_c, 2, 64, 100
4, 182880, Note_off_c, 2, 64, 64
4, 182880, Note_on_c, 2, 44, 70
4, 183120, Note_off_c, 2, 44, 64
4, 183120, Note_on_c, 2, 42, 70
4, 183360, Note_off_c, 2, 42, 64
4, 183360, Note_on_c, 2, 40, 70
4, 183600, Note_off_c, 2, 40, 64
4, 183840, Note_on_c, 2, 64, 100
4, 184080, Note_off_c, 2, 64, 64
4, 184080, Note_on_c, 2, 49, 80
4, 184320, Note_off_c, 2, 49, 64
4, 184320, Note_on_c, 2, 59, 80
4, 184560, Note_off_c, 2, 59, 64
4, 184560, Note_on_c, 2, 63, 80
4, 184800, Note_off_c, 2, 63, 64
4, 184800, Note_on_c, 2, 64, 100
4, 185040, Note_off_c, 2, 64, 64
4, 185280, Note_on_c, 2, 44, 80
4, 185520, Note_off_c, 2, 44, 64
4, 185520, Note_on_c, 2, 59, 80
4, 185760, Note_off_c, 2, 59, 64
4, 185760, Note_on_c, 2, 64, 100
4, 186000, Note_off_c, 2, 64, 64
4, 186000, Note_on_c, 2, 45, 80
4, 186240, Note_off_c, 2, 45, 64
4, 186240, Note_on_c, 2, 59, 80
4, 186480, Note_off_c, 2, 59, 64
4, 186480, Note_on_c, 2, 64, 100
4, 186720, Note_off_c, 2, 64, 64
4, 186720, Note_on_c, 2, 49, 80
4, 186960, Note_off_c, 2, 49, 64
4, 186960, Note_on_c, 2, 59, 80
4, 187200, Note_off_c, 2, 59, 64
4, 187200, Note_on_c, 2, 64, 100
4, 187440, Note_off_c, 2, 64, 64
4, 187440, Note_on_c, 2, 47, 100
4, 187680, Note_off_c, 2, 47, 64
4, 187680, Note_on_c, 2, 59, 70
4, 187920, Note_off_c, 2, 59, 64
4, 187920, Note_on_c, 2, 59, 70
4, 188160, Note_off_c, 2, 59, 64
4, 188160, Note_on_c, 2, 59, 70
4, 188400, Note_off_c, 2, 59, 64
4, 188400, Note_on_c, 2, 64, 100
4, 188640, Note_off_c, 2, 64, 64
4, 188640, Note_on_c, 2, 59, 70
4, 188880, Note_off_c, 2, 59, 64
4, 188880, Note_on_c, 2, 59, 70
4, 189120, Note_off_c, 2, 59, 64
4, 189360, Note_on_c, 2, 59, 70
4, 189600, Note_off_c, 2, 59, 64
4, 191280, Note_on_c, 2, 45, 80
4, 191520, Note_off_c, 2, 45, 64
4, 191520, Note_on_c, 2, 59, 80
4, 191760, Note_off_c, 2, 59, 64
4, 191760, Note_on_c, 2, 63, 80
4, 192000, Note_off_c, 2, 63, 64
4, 192000, Note_on_c, 2, 64, 100
4, 192240, Note_off_c, 2, 64, 64
4, 192240, Note_on_c, 2, 63, 100
4, 192480, Note_off_c, 2, 63, 64
4, 192480, Note_on_c, 2, 59, 86
4, 192720, Note_off_c, 2, 59, 64
4, 192720, Note_on_c, 2, 45, 80
4, 192960, Note_off_c, 2, 45, 64
4, 192960, Note_on_c, 2, 63, 82
4, 193200, Note_off_c, 2, 63, 64
4, 193200, Note_on_c, 2, 45, 80
4, 193440, Note_off_c, 2, 45, 64
4, 193440, Note_on_c, 2, 59, 80
4, 193680, Note_off_c, 2, 59, 64
4, 193680, Note_on_c, 2, 59, 80
4, 193920, Note_off_c, 2, 59, 64
4, 193920, Note_on_c, 2, 59, 100
4, 194160, Note_off_c, 2, 59, 64
4, 194160, Note_on_c, 2, 64, 100
4, 194400, Note_off_c, 2, 64, 64
4, 194400, Note_on_c, 2, 59, 70
4, 194640, Note_off_c, 2, 59, 64
4, 194640, Note_on_c, 2, 59, 70
4, 194880, Note_off_c, 2, 59, 64
4, 195120, Note_on_c, 2, 63, 84
4, 195120, Note_on_c, 2, 59, 96
4, 195120, Note_on_c, 2, 56, 85
4, 195120, Note_on_c, 2, 44, 90
4, 195755, Note_off_c, 2, 56, 64
4, 195755, Note_off_c, 2, 59, 64
4, 195833, Note_off_c, 2, 63, 64
4, 195833, Note_off_c, 2, 44, 64
4, 195840, Note_on_c, 2, 64, 96
4, 195960, Note_off_c, 2, 64, 64
4, 196560, Note_on_c, 2, 45, 85
4, 196575, Note_on_c, 2, 52, 93
4, 196590, Note_on_c, 2, 57, 80
4, 196605, Note_on_c, 2, 59, 85
4, 196620, Note_on_c, 2, 64, 84
4, 197520, Note_off_c, 2, 45, 64
4, 197527, Note_off_c, 2, 59, 64
4, 197535, Note_off_c, 2, 52, 64
4, 197550, Note_off_c, 2, 57, 64
4, 197580, Note_off_c, 2, 64, 64
4, 198960, Note_on_c, 2, 42, 80
4, 199200, Note_off_c, 2, 42, 64
4, 199200, Note_on_c, 2, 59, 80
4, 199440, Note_off_c, 2, 59, 64
4, 199440, Note_on_c, 2, 64, 80
4, 199680, Note_off_c, 2, 64, 64
4, 199680, Note_on_c, 2, 66, 100
4, 199920, Note_off_c, 2, 66, 64
4, 199920, Note_on_c, 2, 64, 100
4, 200160, Note_off_c, 2, 64, 64
4, 200160, Note_on_c, 2, 59, 86
4, 200400, Note_off_c, 2, 59, 64
4, 200400, Note_on_c, 2, 42, 80
4, 200640, Note_off_c, 2, 42, 64
4, 200640, Note_on_c, 2, 64, 82
4, 200880, Note_off_c, 2, 64, 64
4, 200880, Note_on_c, 2, 44, 80
4, 201120, Note_off_c, 2, 44, 64
4, 201120, Note_on_c, 2, 59, 80
4, 201360, Note_off_c, 2, 59, 64
4, 201360, Note_on_c, 2, 64, 80
4, 201600, Note_off_c, 2, 64, 64
4, 201600, Note_on_c, 2, 66, 100
4, 201840, Note_off_c, 2, 66, 64
4, 201840, Note_on_c, 2, 64, 100
4, 202080, Note_off_c, 2, 64, 64
4, 202080, Note_on_c, 2, 59, 86
4, 202320, Note_off_c, 2, 59, 64
4, 202320, Note_on_c, 2, 44, 80
4, 202560, Note_off_c, 2, 44, 64
4, 202560, Note_on_c, 2, 64, 82
4, 202800, Note_off_c, 2, 64, 64
4, 202800, Note_on_c, 2, 45, 80
4, 203040, Note_off_c, 2, 45, 64
4, 203040, Note_on_c, 2, 59, 80
4, 203280, Note_off_c, 2, 59, 64
4, 203280, Note_on_c, 2, 63, 80
4, 203520, Note_off_c, 2, 63, 64
4, 203520, Note_on_c, 2, 64, 100
4, 203760, Note_off_c, 2, 64, 64
4, 203760, Note_on_c, 2, 63, 100
4, 204000, Note_off_c, 2, 63, 64
4, 204000, Note_on_c, 2, 59, 86
4, 204240, Note_off_c, 2, 59, 64
4, 204240, Note_on_c, 2, 45, 80
4, 204480, Note_off_c, 2, 45, 64
4, 204480, Note_on_c, 2, 59, 82
4, 204720, Note_off_c, 2, 59, 64
4, 204720, Note_on_c, 2, 47, 80
4, 204960, Note_off_c, 2, 47, 64
4, 204960, Note_on_c, 2, 59, 80
4, 205200, Note_off_c, 2, 59, 64
4, 205200, Note_on_c, 2, 59, 80
4, 205440, Note_off_c, 2, 59, 64
4, 205440, Note_on_c, 2, 59, 100
4, 205680, Note_off_c, 2, 59, 64
4, 205680, Note_on_c, 2, 64, 100
4, 205920, Note_off_c, 2, 64, 64
4, 205920, Note_on_c, 2, 59, 70
4, 206160, Note_off_c, 2, 59, 64
4, 206160, Note_on_c, 2, 59, 70
4, 206400, Note_off_c, 2, 59, 64
4, 206640, Note_on_c, 2, 45, 80
4, 206880, Note_off_c, 2, 45, 64
4, 206880, Note_on_c, 2, 59, 80
4, 207120, Note_off_c, 2, 59, 64
4, 207120, Note_on_c, 2, 63, 80
4, 207360, Note_off_c, 2, 63, 64
4, 207360, Note_on_c, 2, 64, 100
4, 207600, Note_off_c, 2, 64, 64
4, 207600, Note_on_c, 2, 63, 100
4, 207840, Note_off_c, 2, 63, 64
4, 207840, Note_on_c, 2, 59, 86
4, 208080, Note_off_c, 2, 59, 64
4, 208080, Note_on_c, 2, 45, 80
4, 208320, Note_off_c, 2, 45, 64
4, 208320, Note_on_c, 2, 63, 82
4, 208560, Note_off_c, 2, 63, 64
4, 208560, Note_on_c, 2, 45, 80
4, 208800, Note_off_c, 2, 45, 64
4, 208800, Note_on_c, 2, 59, 80
4, 209040, Note_off_c, 2, 59, 64
4, 209040, Note_on_c, 2, 59, 80
4, 209280, Note_off_c, 2, 59, 64
4, 209280, Note_on_c, 2, 59, 100
4, 209520, Note_off_c, 2, 59, 64
4, 209520, Note_on_c, 2, 64, 100
4, 209760, Note_off_c, 2, 64, 64
4, 209760, Note_on_c, 2, 59, 70
4, 210000, Note_off_c, 2, 59, 64
4, 210000, Note_on_c, 2, 59, 70
4, 210240, Note_off_c, 2, 59, 64
4, 210480, Note_on_c, 2, 63, 84
4, 210480, Note_on_c, 2, 59, 96
4, 210480, Note_on_c, 2, 56, 85
4, 210480, Note_on_c, 2, 44, 90
4, 211115, Note_off_c, 2, 56, 64
4, 211115, Note_off_c, 2, 59, 64
4, 211193, Note_off_c, 2, 63, 64
4, 211193, Note_off_c, 2, 44, 64
4, 211200, Note_on_c, 2, 64, 96
4, 211320, Note_off_c, 2, 64, 64
4, 211920, Note_on_c, 2, 45, 100
4, 211935, Note_on_c, 2, 52, 95
4, 211950, Note_on_c, 2, 57, 97
4, 211965, Note_on_c, 2, 59, 89
4, 211980, Note_on_c, 2, 64, 97
4, 212880, Note_off_c, 2, 45, 64
4, 212887, Note_off_c, 2, 59, 64
4, 212895, Note_off_c, 2, 52, 64
4, 212910, Note_off_c, 2, 57, 64
4, 212940, Note_off_c, 2, 64, 64
4, 214320, Note_on_c, 2, 42, 80
4, 214560, Note_off_c, 2, 42, 64
4, 214560, Note_on_c, 2, 59, 80
4, 214800, Note_off_c, 2, 59, 64
4, 214800, Note_on_c, 2, 64, 80
4, 215040, Note_off_c, 2, 64, 64
4, 215040, Note_on_c, 2, 66, 100
4, 215280, Note_off_c, 2, 66, 64
4, 215280, Note_on_c, 2, 64, 100
4, 215520, Note_off_c, 2, 64, 64
4, 215520, Note_on_c, 2, 59, 86
4, 215760, Note_off_c, 2, 59, 64
4, 215760, Note_on_c, 2, 42, 80
4, 216000, Note_off_c, 2, 42, 64
4, 216000, Note_on_c, 2, 64, 82
4, 216240, Note_off_c, 2, 64, 64
4, 216240, Note_on_c, 2, 40, 80
4, 216480, Note_off_c, 2, 40, 64
4, 216480, Note_on_c, 2, 59, 80
4, 216720, Note_off_c, 2, 59, 64
4, 216720, Note_on_c, 2, 63, 80
4, 216960, Note_off_c, 2, 63, 64
4, 216960, Note_on_c, 2, 64, 100
4, 217200, Note_off_c, 2, 64, 64
4, 217200, Note_on_c, 2, 59, 100
4, 217440, Note_off_c, 2, 59, 64
4, 217440, Note_on_c, 2, 68, 80
4, 217680, Note_off_c, 2, 68, 64
4, 217680, End_track
5, 0, Start_track
5, 0, Title_t, "Bass"
5, 0, MIDI_port, 0
5, 0, Channel_prefix, 3
5, 0, Control_c, 3, 7, 127
5, 0, Program_c, 3, 33
5, 7680, Note_on_c, 3, 33, 100
5, 7920, Note_off_c, 3, 33, 80
5, 7920, Note_on_c, 3, 36, 100
5, 8160, Note_off_c, 3, 36, 80
5, 8160, Note_on_c, 3, 38, 100
5, 8400, Note_off_c, 3, 38, 80
5, 8400, Note_on_c, 3, 33, 100
5, 8880, Note_off_c, 3, 33, 80
5, 8880, Note_on_c, 3, 33, 100
5, 9120, Note_off_c, 3, 33, 80
5, 9120, Note_on_c, 3, 36, 100
5, 9360, Note_off_c, 3, 36, 80
5, 9360, Note_on_c, 3, 38, 100
5, 9600, Note_off_c, 3, 38, 80
5, 9600, Note_on_c, 3, 43, 100
5, 9840, Note_off_c, 3, 43, 80
5, 9840, Note_on_c, 3, 42, 100
5, 10080, Note_off_c, 3, 42, 80
5, 10080, Note_on_c, 3, 30, 100
5, 10560, Note_off_c, 3, 30, 80
5, 10560, Note_on_c, 3, 33, 100
5, 10800, Note_off_c, 3, 33, 80
5, 10800, Note_on_c, 3, 36, 100
5, 11040, Note_off_c, 3, 36, 80
5, 11040, Note_on_c, 3, 38, 100
5, 11280, Note_off_c, 3, 38, 80
5, 11280, Note_on_c, 3, 29, 100
5, 11760, Note_off_c, 3, 29, 80
5, 11760, Note_on_c, 3, 36, 100
5, 12000, Note_off_c, 3, 36, 80
5, 12000, Note_on_c, 3, 28, 100
5, 12480, Note_off_c, 3, 28, 80
5, 12480, Note_on_c, 3, 36, 100
5, 12720, Note_off_c, 3, 36, 80
5, 12720, Note_on_c, 3, 29, 100
5, 13440, Note_off_c, 3, 29, 80
5, 13440, Note_on_c, 3, 36, 100
5, 13680, Note_off_c, 3, 36, 80
5, 13680, Note_on_c, 3, 31, 100
5, 15360, Note_off_c, 3, 31, 80
5, 15360, Note_on_c, 3, 33, 100
5, 15600, Note_off_c, 3, 33, 80
5, 15600, Note_on_c, 3, 36, 100
5, 15840, Note_off_c, 3, 36, 80
5, 15840, Note_on_c, 3, 38, 100
5, 16080, Note_off_c, 3, 38, 80
5, 16080, Note_on_c, 3, 33, 100
5, 16560, Note_off_c, 3, 33, 80
5, 16560, Note_on_c, 3, 33, 100
5, 16800, Note_off_c, 3, 33, 80
5, 16800, Note_on_c, 3, 36, 100
5, 17040, Note_off_c, 3, 36, 80
5, 17040, Note_on_c, 3, 38, 100
5, 17280, Note_off_c, 3, 38, 80
5, 17280, Note_on_c, 3, 41, 100
5, 17520, Note_off_c, 3, 41, 80
5, 17520, Note_on_c, 3, 43, 100
5, 17760, Note_off_c, 3, 43, 80
5, 17760, Note_on_c, 3, 30, 100
5, 18240, Note_off_c, 3, 30, 80
5, 18240, Note_on_c, 3, 33, 100
5, 18480, Note_off_c, 3, 33, 80
5, 18480, Note_on_c, 3, 36, 100
5, 18720, Note_off_c, 3, 36, 80
5, 18720, Note_on_c, 3, 38, 100
5, 18960, Note_off_c, 3, 38, 80
5, 18960, Note_on_c, 3, 29, 100
5, 19440, Note_on_c, 3, 36, 70
5, 19680, Note_on_c, 3, 28, 100
5, 19687, Note_off_c, 3, 36, 80
5, 19687, Note_off_c, 3, 29, 80
5, 20160, Note_on_c, 3, 36, 70
5, 20393, Note_off_c, 3, 28, 80
5, 20400, Note_off_c, 3, 36, 80
5, 20400, Note_on_c, 3, 29, 100
5, 20880, Note_off_c, 3, 29, 80
5, 20880, Note_on_c, 3, 36, 70
5, 21120, Note_off_c, 3, 36, 80
5, 21120, Note_on_c, 3, 31, 100
5, 23040, Note_off_c, 3, 31, 80
5, 23040, Note_on_c, 3, 33, 100
5, 23280, Note_off_c, 3, 33, 80
5, 23280, Note_on_c, 3, 36, 100
5, 23520, Note_off_c, 3, 36, 80
5, 23520, Note_on_c, 3, 38, 100
5, 23760, Note_off_c, 3, 38, 80
5, 23760, Note_on_c, 3, 33, 100
5, 24240, Note_off_c, 3, 33, 80
5, 24240, Note_on_c, 3, 33, 100
5, 24480, Note_off_c, 3, 33, 80
5, 24480, Note_on_c, 3, 36, 100
5, 24720, Note_off_c, 3, 36, 80
5, 24720, Note_on_c, 3, 38, 100
5, 24960, Note_off_c, 3, 38, 80
5, 24960, Note_on_c, 3, 43, 100
5, 25200, Note_off_c, 3, 43, 80
5, 25200, Note_on_c, 3, 42, 100
5, 25440, Note_off_c, 3, 42, 80
5, 25440, Note_on_c, 3, 30, 100
5, 25920, Note_off_c, 3, 30, 80
5, 25920, Note_on_c, 3, 33, 100
5, 26160, Note_off_c, 3, 33, 80
5, 26160, Note_on_c, 3, 36, 100
5, 26400, Note_off_c, 3, 36, 80
5, 26400, Note_on_c, 3, 38, 100
5, 26640, Note_off_c, 3, 38, 80
5, 26640, Note_on_c, 3, 29, 100
5, 27120, Note_on_c, 3, 36, 70
5, 27360, Note_on_c, 3, 28, 100
5, 27367, Note_off_c, 3, 36, 80
5, 27367, Note_off_c, 3, 29, 80
5, 27840, Note_on_c, 3, 36, 70
5, 28073, Note_off_c, 3, 28, 80
5, 28080, Note_off_c, 3, 36, 80
5, 28080, Note_on_c, 3, 29, 100
5, 28800, Note_on_c, 3, 36, 70
5, 28807, Note_off_c, 3, 29, 80
5, 29040, Note_off_c, 3, 36, 80
5, 29040, Note_on_c, 3, 31, 100
5, 30720, Note_on_c, 3, 36, 100
5, 30727, Note_off_c, 3, 31, 80
5, 30960, Note_off_c, 3, 36, 80
5, 30960, Note_on_c, 3, 38, 100
5, 31200, Note_off_c, 3, 38, 80
5, 31440, Note_on_c, 3, 29, 100
5, 31680, Note_off_c, 3, 29, 80
5, 32160, Note_on_c, 3, 31, 100
5, 34560, Note_off_c, 3, 31, 80
5, 34560, Note_on_c, 3, 36, 100
5, 34800, Note_off_c, 3, 36, 80
5, 34800, Note_on_c, 3, 38, 100
5, 35040, Note_off_c, 3, 38, 80
5, 35280, Note_on_c, 3, 29, 100
5, 35520, Note_off_c, 3, 29, 80
5, 36000, Note_on_c, 3, 36, 100
5, 38400, Note_off_c, 3, 36, 80
5, 38400, Note_on_c, 3, 36, 100
5, 38640, Note_off_c, 3, 36, 80
5, 38640, Note_on_c, 3, 38, 100
5, 38880, Note_off_c, 3, 38, 80
5, 39120, Note_on_c, 3, 29, 100
5, 39360, Note_off_c, 3, 29, 80
5, 39840, Note_on_c, 3, 31, 100
5, 42240, Note_off_c, 3, 31, 80
5, 42240, Note_on_c, 3, 36, 100
5, 42480, Note_off_c, 3, 36, 80
5, 42480, Note_on_c, 3, 38, 100
5, 42720, Note_off_c, 3, 38, 80
5, 42960, Note_on_c, 3, 29, 100
5, 43200, Note_off_c, 3, 29, 80
5, 43680, Note_on_c, 3, 26, 100
5, 46080, Note_off_c, 3, 26, 80
5, 46080, Note_on_c, 3, 33, 100
5, 46320, Note_off_c, 3, 33, 80
5, 46320, Note_on_c, 3, 36, 100
5, 46560, Note_off_c, 3, 36, 80
5, 46560, Note_on_c, 3, 38, 100
5, 46800, Note_off_c, 3, 38, 80
5, 46800, Note_on_c, 3, 33, 100
5, 47280, Note_off_c, 3, 33, 80
5, 47280, Note_on_c, 3, 33, 100
5, 47520, Note_off_c, 3, 33, 80
5, 47520, Note_on_c, 3, 36, 100
5, 47760, Note_off_c, 3, 36, 80
5, 47760, Note_on_c, 3, 38, 100
5, 48000, Note_off_c, 3, 38, 80
5, 48000, Note_on_c, 3, 41, 100
5, 48240, Note_off_c, 3, 41, 80
5, 48240, Note_on_c, 3, 43, 100
5, 48480, Note_off_c, 3, 43, 80
5, 48480, Note_on_c, 3, 30, 100
5, 48960, Note_off_c, 3, 30, 80
5, 48960, Note_on_c, 3, 33, 100
5, 49200, Note_off_c, 3, 33, 80
5, 49200, Note_on_c, 3, 36, 100
5, 49440, Note_off_c, 3, 36, 80
5, 49440, Note_on_c, 3, 38, 100
5, 49680, Note_off_c, 3, 38, 80
5, 49680, Note_on_c, 3, 29, 100
5, 50160, Note_off_c, 3, 29, 80
5, 50160, Note_on_c, 3, 36, 100
5, 50400, Note_off_c, 3, 36, 80
5, 50400, Note_on_c, 3, 28, 100
5, 50880, Note_off_c, 3, 28, 80
5, 50880, Note_on_c, 3, 36, 100
5, 51120, Note_off_c, 3, 36, 80
5, 51120, Note_on_c, 3, 29, 100
5, 51600, Note_off_c, 3, 29, 80
5, 51600, Note_on_c, 3, 36, 100
5, 51840, Note_off_c, 3, 36, 80
5, 51840, Note_on_c, 3, 31, 100
5, 53760, Note_off_c, 3, 31, 80
5, 53760, Note_on_c, 3, 33, 100
5, 54000, Note_off_c, 3, 33, 80
5, 54000, Note_on_c, 3, 36, 100
5, 54240, Note_off_c, 3, 36, 80
5, 54240, Note_on_c, 3, 38, 100
5, 54480, Note_off_c, 3, 38, 80
5, 54480, Note_on_c, 3, 33, 100
5, 54960, Note_off_c, 3, 33, 80
5, 54960, Note_on_c, 3, 33, 100
5, 55200, Note_off_c, 3, 33, 80
5, 55200, Note_on_c, 3, 36, 100
5, 55440, Note_off_c, 3, 36, 80
5, 55440, Note_on_c, 3, 38, 100
5, 55680, Note_off_c, 3, 38, 80
5, 55680, Note_on_c, 3, 43, 100
5, 55920, Note_off_c, 3, 43, 80
5, 55920, Note_on_c, 3, 42, 100
5, 56160, Note_off_c, 3, 42, 80
5, 56160, Note_on_c, 3, 30, 100
5, 56640, Note_off_c, 3, 30, 80
5, 56640, Note_on_c, 3, 33, 100
5, 56880, Note_off_c, 3, 33, 80
5, 56880, Note_on_c, 3, 36, 100
5, 57120, Note_off_c, 3, 36, 80
5, 57120, Note_on_c, 3, 38, 100
5, 57360, Note_off_c, 3, 38, 80
5, 57360, Note_on_c, 3, 29, 100
5, 57840, Note_off_c, 3, 29, 80
5, 57840, Note_on_c, 3, 36, 100
5, 58080, Note_off_c, 3, 36, 80
5, 58080, Note_on_c, 3, 28, 100
5, 58560, Note_off_c, 3, 28, 80
5, 58560, Note_on_c, 3, 36, 100
5, 58800, Note_off_c, 3, 36, 80
5, 58800, Note_on_c, 3, 29, 100
5, 59520, Note_off_c, 3, 29, 80
5, 59520, Note_on_c, 3, 36, 70
5, 59760, Note_off_c, 3, 36, 80
5, 59760, Note_on_c, 3, 31, 100
5, 60007, Note_off_c, 3, 31, 80
5, 60487, Note_on_c, 3, 33, 100
5, 60727, Note_off_c, 3, 33, 64
5, 60727, Note_on_c, 3, 38, 100
5, 60967, Note_off_c, 3, 38, 64
5, 61200, Note_on_c, 3, 43, 100
5, 61680, Note_off_c, 3, 43, 64
5, 61680, Note_on_c, 3, 42, 100
5, 61800, Note_off_c, 3, 42, 64
5, 61800, Note_on_c, 3, 38, 100
5, 61920, Note_on_c, 3, 36, 100
5, 61930, Note_off_c, 3, 38, 64
5, 62400, Note_off_c, 3, 36, 64
5, 62400, Note_on_c, 3, 38, 100
5, 62640, Note_off_c, 3, 38, 64
5, 62640, Note_on_c, 3, 33, 100
5, 63120, Note_off_c, 3, 33, 64
5, 63120, Note_on_c, 3, 36, 100
5, 63360, Note_off_c, 3, 36, 64
5, 63360, Note_on_c, 3, 31, 100
5, 63840, Note_off_c, 3, 31, 64
5, 63840, Note_on_c, 3, 28, 100
5, 63960, Note_off_c, 3, 28, 64
5, 63960, Note_on_c, 3, 29, 100
5, 64080, Note_off_c, 3, 29, 64
5, 64080, Note_on_c, 3, 30, 100
5, 64560, Note_off_c, 3, 30, 64
5, 64560, Note_on_c, 3, 31, 100
5, 64800, Note_off_c, 3, 31, 64
5, 64800, Note_on_c, 3, 32, 100
5, 65040, Note_off_c, 3, 32, 64
5, 65040, Note_on_c, 3, 33, 100
5, 65280, Note_off_c, 3, 33, 64
5, 65280, Note_on_c, 3, 45, 100
5, 65513, Note_off_c, 3, 45, 64
5, 65520, Note_on_c, 3, 43, 100
5, 66000, Note_off_c, 3, 43, 64
5, 66000, Note_on_c, 3, 34, 100
5, 66120, Note_off_c, 3, 34, 64
5, 66120, Note_on_c, 3, 35, 100
5, 66240, Note_off_c, 3, 35, 64
5, 66240, Note_on_c, 3, 36, 100
5, 66480, Note_off_c, 3, 36, 64
5, 66480, Note_on_c, 3, 31, 100
5, 67207, Note_off_c, 3, 31, 64
5, 67207, Note_on_c, 3, 33, 100
5, 67447, Note_off_c, 3, 33, 64
5, 67447, Note_on_c, 3, 38, 100
5, 67687, Note_off_c, 3, 38, 64
5, 67920, Note_on_c, 3, 43, 100
5, 68160, Note_off_c, 3, 43, 64
5, 68400, Note_on_c, 3, 42, 100
5, 68520, Note_off_c, 3, 42, 64
5, 68520, Note_on_c, 3, 38, 100
5, 68640, Note_on_c, 3, 36, 100
5, 68650, Note_off_c, 3, 38, 64
5, 69120, Note_off_c, 3, 36, 64
5, 69120, Note_on_c, 3, 38, 100
5, 69360, Note_off_c, 3, 38, 64
5, 69360, Note_on_c, 3, 33, 100
5, 69840, Note_off_c, 3, 33, 64
5, 69840, Note_on_c, 3, 36, 100
5, 70080, Note_off_c, 3, 36, 64
5, 70080, Note_on_c, 3, 31, 100
5, 70560, Note_off_c, 3, 31, 64
5, 70560, Note_on_c, 3, 28, 100
5, 70680, Note_off_c, 3, 28, 64
5, 70680, Note_on_c, 3, 29, 100
5, 70800, Note_off_c, 3, 29, 64
5, 70800, Note_on_c, 3, 30, 100
5, 71280, Note_off_c, 3, 30, 64
5, 71280, Note_on_c, 3, 31, 100
5, 71520, Note_off_c, 3, 31, 64
5, 71520, Note_on_c, 3, 32, 100
5, 71760, Note_off_c, 3, 32, 64
5, 71760, Note_on_c, 3, 33, 100
5, 72000, Note_off_c, 3, 33, 64
5, 72000, Note_on_c, 3, 50, 100
5, 72233, Note_off_c, 3, 50, 64
5, 72240, Note_on_c, 3, 48, 100
5, 72960, Note_on_c, 3, 36, 100
5, 72967, Note_off_c, 3, 48, 64
5, 73200, Note_off_c, 3, 36, 64
5, 73200, Note_on_c, 3, 38, 100
5, 73920, Note_on_c, 3, 31, 100
5, 73927, Note_off_c, 3, 38, 64
5, 74160, Note_off_c, 3, 31, 64
5, 74160, Note_on_c, 3, 32, 100
5, 74400, Note_off_c, 3, 32, 64
5, 74400, Note_on_c, 3, 33, 100
5, 74640, Note_off_c, 3, 33, 64
5, 74640, Note_on_c, 3, 41, 100
5, 75120, Note_off_c, 3, 41, 64
5, 75120, Note_on_c, 3, 38, 100
5, 75240, Note_off_c, 3, 38, 64
5, 75240, Note_on_c, 3, 36, 100
5, 75360, Note_off_c, 3, 36, 64
5, 75360, Note_on_c, 3, 33, 100
5, 75600, Note_off_c, 3, 33, 64
5, 75600, Note_on_c, 3, 40, 100
5, 75840, Note_off_c, 3, 40, 64
5, 75840, Note_on_c, 3, 38, 100
5, 75960, Note_off_c, 3, 38, 64
5, 75960, Note_on_c, 3, 36, 100
5, 76080, Note_off_c, 3, 36, 64
5, 76080, Note_on_c, 3, 33, 100
5, 76320, Note_on_c, 3, 36, 100
5, 76327, Note_off_c, 3, 33, 64
5, 76560, Note_off_c, 3, 36, 64
5, 76560, Note_on_c, 3, 38, 100
5, 76800, Note_off_c, 3, 38, 64
5, 76800, Note_on_c, 3, 32, 100
5, 77040, Note_off_c, 3, 32, 64
5, 77040, Note_on_c, 3, 31, 100
5, 77520, Note_off_c, 3, 31, 64
5, 77520, Note_on_c, 3, 29, 100
5, 77760, Note_off_c, 3, 29, 64
5, 77760, Note_on_c, 3, 26, 100
5, 78000, Note_off_c, 3, 26, 64
5, 78000, Note_on_c, 3, 27, 100
5, 78240, Note_off_c, 3, 27, 64
5, 78240, Note_on_c, 3, 28, 100
5, 78953, Note_off_c, 3, 28, 64
5, 78960, Note_on_c, 3, 32, 100
5, 79200, Note_off_c, 3, 32, 64
5, 79200, Note_on_c, 3, 33, 100
5, 79913, Note_off_c, 3, 33, 64
5, 79920, Note_on_c, 3, 33, 100
5, 80160, Note_off_c, 3, 33, 64
5, 80160, Note_on_c, 3, 33, 100
5, 80400, Note_off_c, 3, 33, 64
5, 80400, Note_on_c, 3, 35, 100
5, 80640, Note_off_c, 3, 35, 64
5, 80640, Note_on_c, 3, 38, 100
5, 80880, Note_off_c, 3, 38, 64
5, 80880, Note_on_c, 3, 40, 100
5, 81120, Note_off_c, 3, 40, 64
5, 81120, Note_on_c, 3, 38, 100
5, 81360, Note_off_c, 3, 38, 64
5, 81360, Note_on_c, 3, 30, 100
5, 81840, Note_off_c, 3, 30, 64
5, 81840, Note_on_c, 3, 31, 100
5, 82320, Note_off_c, 3, 31, 64
5, 82320, Note_on_c, 3, 38, 100
5, 82560, Note_off_c, 3, 38, 64
5, 82560, Note_on_c, 3, 43, 100
5, 82800, Note_off_c, 3, 43, 64
5, 82800, Note_on_c, 3, 42, 100
5, 83280, Note_off_c, 3, 42, 64
5, 83280, Note_on_c, 3, 38, 100
5, 83760, Note_off_c, 3, 38, 64
5, 83760, Note_on_c, 3, 33, 100
5, 84000, Note_off_c, 3, 33, 64
5, 84000, Note_on_c, 3, 35, 100
5, 84240, Note_off_c, 3, 35, 64
5, 84240, Note_on_c, 3, 38, 100
5, 84480, Note_on_c, 3, 40, 100
5, 84487, Note_off_c, 3, 38, 64
5, 84720, Note_off_c, 3, 40, 64
5, 84720, Note_on_c, 3, 33, 100
5, 85200, Note_off_c, 3, 33, 64
5, 85200, Note_on_c, 3, 31, 100
5, 85440, Note_off_c, 3, 31, 64
5, 85440, Note_on_c, 3, 28, 100
5, 86153, Note_off_c, 3, 28, 64
5, 86160, Note_on_c, 3, 32, 100
5, 86400, Note_off_c, 3, 32, 64
5, 86400, Note_on_c, 3, 33, 100
5, 87113, Note_off_c, 3, 33, 64
5, 87120, Note_on_c, 3, 33, 100
5, 87360, Note_off_c, 3, 33, 64
5, 87360, Note_on_c, 3, 33, 100
5, 87600, Note_off_c, 3, 33, 64
5, 87600, Note_on_c, 3, 35, 100
5, 87840, Note_off_c, 3, 35, 64
5, 87840, Note_on_c, 3, 38, 100
5, 88080, Note_off_c, 3, 38, 64
5, 88080, Note_on_c, 3, 40, 100
5, 88320, Note_off_c, 3, 40, 64
5, 88320, Note_on_c, 3, 38, 100
5, 88560, Note_off_c, 3, 38, 64
5, 88560, Note_on_c, 3, 30, 100
5, 89040, Note_off_c, 3, 30, 64
5, 89040, Note_on_c, 3, 31, 100
5, 89520, Note_off_c, 3, 31, 64
5, 89520, Note_on_c, 3, 38, 100
5, 89760, Note_off_c, 3, 38, 64
5, 89760, Note_on_c, 3, 43, 100
5, 90000, Note_off_c, 3, 43, 64
5, 90000, Note_on_c, 3, 42, 100
5, 90480, Note_off_c, 3, 42, 64
5, 90480, Note_on_c, 3, 38, 100
5, 90960, Note_off_c, 3, 38, 64
5, 90960, Note_on_c, 3, 33, 100
5, 91200, Note_off_c, 3, 33, 64
5, 91200, Note_on_c, 3, 35, 100
5, 91440, Note_off_c, 3, 35, 64
5, 91440, Note_on_c, 3, 38, 100
5, 91680, Note_on_c, 3, 40, 100
5, 91687, Note_off_c, 3, 38, 64
5, 91920, Note_off_c, 3, 40, 64
5, 91920, Note_on_c, 3, 33, 100
5, 92400, Note_off_c, 3, 33, 64
5, 92400, Note_on_c, 3, 31, 100
5, 92640, Note_off_c, 3, 31, 64
5, 92640, Note_on_c, 3, 28, 100
5, 100560, Note_off_c, 3, 28, 64
5, 108000, Note_on_c, 3, 28, 100
5, 108713, Note_off_c, 3, 28, 64
5, 108720, Note_on_c, 3, 35, 100
5, 108960, Note_on_c, 3, 40, 100
5, 108967, Note_off_c, 3, 35, 64
5, 109673, Note_off_c, 3, 40, 64
5, 109680, Note_on_c, 3, 33, 100
5, 110160, Note_off_c, 3, 33, 64
5, 110160, Note_on_c, 3, 33, 80
5, 110400, Note_off_c, 3, 33, 64
5, 110400, Note_on_c, 3, 33, 80
5, 110640, Note_off_c, 3, 33, 64
5, 110640, Note_on_c, 3, 30, 100
5, 111120, Note_off_c, 3, 30, 64
5, 111120, Note_on_c, 3, 33, 100
5, 111600, Note_off_c, 3, 33, 64
5, 111600, Pitch_bend_c, 3, 9192
5, 111600, Note_on_c, 3, 36, 100
5, 111615, Pitch_bend_c, 3, 10192
5, 111630, Pitch_bend_c, 3, 11192
5, 111645, Pitch_bend_c, 3, 12192
5, 111660, Pitch_bend_c, 3, 13192
5, 111675, Pitch_bend_c, 3, 14192
5, 111690, Pitch_bend_c, 3, 15192
5, 111705, Pitch_bend_c, 3, 16192
5, 111840, Note_off_c, 3, 36, 64
5, 111840, Pitch_bend_c, 3, 8192
5, 111840, Note_on_c, 3, 32, 100
5, 112553, Note_off_c, 3, 32, 64
5, 112560, Note_on_c, 3, 33, 100
5, 113040, Note_off_c, 3, 33, 64
5, 113040, Note_on_c, 3, 35, 100
5, 113520, Note_off_c, 3, 35, 64
5, 113520, Note_on_c, 3, 37, 100
5, 113760, Note_on_c, 3, 38, 100
5, 113767, Note_off_c, 3, 37, 64
5, 114473, Note_off_c, 3, 38, 64
5, 114480, Note_on_c, 3, 28, 100
5, 115193, Note_off_c, 3, 28, 64
5, 115200, Note_on_c, 3, 35, 100
5, 115440, Note_on_c, 3, 40, 100
5, 115447, Note_off_c, 3, 35, 64
5, 116153, Note_off_c, 3, 40, 64
5, 116160, Note_on_c, 3, 33, 100
5, 116640, Note_off_c, 3, 33, 64
5, 116640, Note_on_c, 3, 33, 80
5, 116880, Note_off_c, 3, 33, 64
5, 116880, Note_on_c, 3, 33, 80
5, 117120, Note_off_c, 3, 33, 64
5, 117120, Note_on_c, 3, 26, 100
5, 117600, Note_off_c, 3, 26, 64
5, 117600, Note_on_c, 3, 28, 100
5, 118080, Note_off_c, 3, 28, 64
5, 118080, Note_on_c, 3, 30, 100
5, 118320, Note_off_c, 3, 30, 64
5, 118320, Note_on_c, 3, 31, 100
5, 118560, Note_on_c, 3, 33, 100
5, 118567, Note_off_c, 3, 31, 64
5, 118793, Note_off_c, 3, 33, 64
5, 118800, Note_on_c, 3, 35, 100
5, 119040, Note_off_c, 3, 35, 64
5, 119040, Note_on_c, 3, 36, 100
5, 120240, Note_on_c, 3, 29, 100
5, 120247, Note_off_c, 3, 36, 64
5, 120720, Note_off_c, 3, 29, 64
5, 120720, Note_on_c, 3, 31, 100
5, 120840, Note_off_c, 3, 31, 64
5, 120960, Note_on_c, 3, 33, 100
5, 121080, Note_off_c, 3, 33, 64
5, 121200, Note_on_c, 3, 35, 100
5, 122160, Note_off_c, 3, 35, 64
5, 131280, Note_on_c, 3, 33, 100
5, 132590, Note_off_c, 3, 33, 64
5, 132600, Note_on_c, 3, 33, 100
5, 132720, Note_off_c, 3, 33, 64
5, 132720, Note_on_c, 3, 31, 100
5, 132953, Note_off_c, 3, 31, 64
5, 132960, Note_on_c, 3, 29, 100
5, 133920, Note_off_c, 3, 29, 64
5, 133920, Note_on_c, 3, 36, 100
5, 134160, Note_off_c, 3, 36, 64
5, 134400, Note_on_c, 3, 31, 100
5, 135120, Note_on_c, 3, 34, 100
5, 135127, Note_off_c, 3, 31, 64
5, 135833, Note_off_c, 3, 34, 64
5, 135840, Note_on_c, 3, 36, 100
5, 136080, Note_off_c, 3, 36, 64
5, 136080, Note_on_c, 3, 38, 100
5, 136320, Note_off_c, 3, 38, 64
5, 136320, Note_on_c, 3, 29, 100
5, 136800, Note_off_c, 3, 29, 64
5, 136800, Note_on_c, 3, 28, 100
5, 137040, Note_off_c, 3, 28, 64
5, 137040, Note_on_c, 3, 29, 100
5, 137753, Note_off_c, 3, 29, 64
5, 137760, Note_on_c, 3, 36, 100
5, 138960, Note_on_c, 3, 33, 100
5, 138967, Note_off_c, 3, 36, 64
5, 140633, Note_off_c, 3, 33, 64
5, 140640, Note_on_c, 3, 29, 100
5, 141600, Note_off_c, 3, 29, 64
5, 141600, Note_on_c, 3, 36, 100
5, 141840, Note_off_c, 3, 36, 64
5, 142080, Note_on_c, 3, 31, 100
5, 142800, Note_on_c, 3, 34, 100
5, 142807, Note_off_c, 3, 31, 64
5, 143513, Note_off_c, 3, 34, 64
5, 143520, Note_on_c, 3, 36, 100
5, 143760, Note_off_c, 3, 36, 64
5, 143760, Note_on_c, 3, 38, 100
5, 144000, Note_off_c, 3, 38, 64
5, 144000, Note_on_c, 3, 29, 100
5, 144480, Note_off_c, 3, 29, 64
5, 144480, Note_on_c, 3, 28, 100
5, 144720, Note_off_c, 3, 28, 64
5, 144720, Note_on_c, 3, 29, 100
5, 145433, Note_off_c, 3, 29, 64
5, 145440, Note_on_c, 3, 36, 100
5, 146640, Note_on_c, 3, 37, 88
5, 146647, Note_off_c, 3, 36, 64
5, 147600, Note_off_c, 3, 37, 64
5, 147600, Pitch_bend_c, 3, 9192
5, 147600, Note_on_c, 3, 38, 85
5, 147615, Pitch_bend_c, 3, 10192
5, 147630, Pitch_bend_c, 3, 11192
5, 147645, Pitch_bend_c, 3, 12192
5, 147660, Pitch_bend_c, 3, 13192
5, 147675, Pitch_bend_c, 3, 14192
5, 147690, Pitch_bend_c, 3, 15192
5, 147705, Pitch_bend_c, 3, 16192
5, 147840, Note_off_c, 3, 38, 64
5, 147840, Note_on_c, 3, 44, 93
5, 147840, Pitch_bend_c, 3, 8192
5, 148560, Note_on_c, 3, 45, 100
5, 148567, Note_off_c, 3, 44, 64
5, 149753, Note_off_c, 3, 45, 64
5, 149760, Note_on_c, 3, 52, 82
5, 150480, Note_on_c, 3, 51, 93
5, 150487, Note_off_c, 3, 52, 64
5, 151673, Note_off_c, 3, 51, 64
5, 151680, Note_on_c, 3, 47, 90
5, 152640, Note_off_c, 3, 47, 64
5, 152640, Note_on_c, 3, 45, 93
5, 153360, Note_on_c, 3, 44, 100
5, 153367, Note_off_c, 3, 45, 64
5, 153593, Note_off_c, 3, 44, 64
5, 153600, Note_on_c, 3, 42, 100
5, 153840, Note_on_c, 3, 40, 100
5, 153847, Note_off_c, 3, 42, 64
5, 154320, Note_off_c, 3, 40, 64
5, 154320, Note_on_c, 3, 37, 100
5, 155513, Note_off_c, 3, 37, 64
5, 155520, Note_on_c, 3, 44, 100
5, 156240, Note_on_c, 3, 45, 100
5, 156247, Note_off_c, 3, 44, 64
5, 156953, Note_off_c, 3, 45, 64
5, 156960, Note_on_c, 3, 49, 100
5, 157680, Note_on_c, 3, 47, 100
5, 157687, Note_off_c, 3, 49, 64
5, 158873, Note_off_c, 3, 47, 64
5, 158880, Note_on_c, 3, 40, 100
5, 159600, Note_on_c, 3, 42, 100
5, 159607, Note_off_c, 3, 40, 64
5, 161520, Note_off_c, 3, 42, 64
5, 161520, Note_on_c, 3, 37, 100
5, 162713, Note_off_c, 3, 37, 64
5, 162720, Note_on_c, 3, 32, 100
5, 163440, Note_on_c, 3, 33, 100
5, 163447, Note_off_c, 3, 32, 64
5, 164633, Note_off_c, 3, 33, 64
5, 164640, Note_on_c, 3, 40, 92
5, 165360, Note_on_c, 3, 39, 93
5, 165367, Note_off_c, 3, 40, 64
5, 166553, Note_off_c, 3, 39, 64
5, 166560, Note_on_c, 3, 35, 100
5, 167520, Note_off_c, 3, 35, 64
5, 167520, Note_on_c, 3, 33, 93
5, 168240, Note_on_c, 3, 32, 100
5, 168247, Note_off_c, 3, 33, 64
5, 168473, Note_off_c, 3, 32, 64
5, 168480, Note_on_c, 3, 30, 100
5, 168720, Note_on_c, 3, 28, 100
5, 168727, Note_off_c, 3, 30, 64
5, 169200, Note_off_c, 3, 28, 64
5, 169200, Note_on_c, 3, 25, 100
5, 170393, Note_off_c, 3, 25, 64
5, 170400, Note_on_c, 3, 32, 100
5, 171120, Note_on_c, 3, 33, 100
5, 171127, Note_off_c, 3, 32, 64
5, 171833, Note_off_c, 3, 33, 64
5, 171840, Note_on_c, 3, 37, 100
5, 172560, Note_on_c, 3, 35, 100
5, 172567, Note_off_c, 3, 37, 64
5, 173753, Note_off_c, 3, 35, 64
5, 173760, Note_on_c, 3, 28, 100
5, 174480, Note_on_c, 3, 30, 100
5, 174487, Note_off_c, 3, 28, 64
5, 175193, Note_off_c, 3, 30, 64
5, 175200, Note_on_c, 3, 32, 100
5, 175920, Note_off_c, 3, 32, 64
5, 175920, Note_on_c, 3, 35, 100
5, 176160, Note_off_c, 3, 35, 64
5, 176160, Note_on_c, 3, 32, 100
5, 176400, Note_off_c, 3, 32, 64
5, 176400, Note_on_c, 3, 37, 100
5, 177593, Note_off_c, 3, 37, 64
5, 177600, Note_on_c, 3, 32, 100
5, 178320, Note_on_c, 3, 33, 100
5, 178327, Note_off_c, 3, 32, 64
5, 179513, Note_off_c, 3, 33, 64
5, 179520, Note_on_c, 3, 40, 92
5, 180240, Note_on_c, 3, 39, 93
5, 180247, Note_off_c, 3, 40, 64
5, 181433, Note_off_c, 3, 39, 64
5, 181440, Note_on_c, 3, 35, 100
5, 182400, Note_off_c, 3, 35, 64
5, 182400, Note_on_c, 3, 33, 93
5, 183120, Note_on_c, 3, 32, 100
5, 183127, Note_off_c, 3, 33, 64
5, 183353, Note_off_c, 3, 32, 64
5, 183360, Note_on_c, 3, 30, 100
5, 183600, Note_on_c, 3, 28, 100
5, 183607, Note_off_c, 3, 30, 64
5, 184080, Note_off_c, 3, 28, 64
5, 184080, Note_on_c, 3, 25, 100
5, 185273, Note_off_c, 3, 25, 64
5, 185280, Note_on_c, 3, 32, 100
5, 186000, Note_on_c, 3, 33, 100
5, 186007, Note_off_c, 3, 32, 64
5, 186713, Note_off_c, 3, 33, 64
5, 186720, Note_on_c, 3, 37, 100
5, 187440, Note_on_c, 3, 35, 100
5, 187447, Note_off_c, 3, 37, 64
5, 188633, Note_off_c, 3, 35, 64
5, 188640, Note_on_c, 3, 28, 100
5, 189360, Note_on_c, 3, 30, 100
5, 189367, Note_off_c, 3, 28, 64
5, 190073, Note_off_c, 3, 30, 64
5, 190080, Note_on_c, 3, 32, 100
5, 190800, Note_off_c, 3, 32, 64
5, 190800, Note_on_c, 3, 35, 100
5, 191280, Note_off_c, 3, 35, 64
5, 191280, Note_on_c, 3, 33, 100
5, 192720, Note_off_c, 3, 33, 64
5, 192720, Note_on_c, 3, 33, 100
5, 193200, Note_off_c, 3, 33, 64
5, 193200, Note_on_c, 3, 35, 100
5, 194160, Note_off_c, 3, 35, 64
5, 194160, Note_on_c, 3, 35, 83
5, 194400, Note_off_c, 3, 35, 64
5, 194400, Note_on_c, 3, 35, 88
5, 194640, Note_off_c, 3, 35, 64
5, 194640, Note_on_c, 3, 35, 83
5, 194880, Note_off_c, 3, 35, 64
5, 194880, Note_on_c, 3, 35, 82
5, 195120, Note_off_c, 3, 35, 64
5, 195120, Note_on_c, 3, 32, 100
5, 195840, Note_off_c, 3, 32, 64
5, 195840, Note_on_c, 3, 32, 100
5, 196560, Note_off_c, 3, 32, 64
5, 196560, Note_on_c, 3, 33, 100
5, 198960, Note_off_c, 3, 33, 64
5, 198960, Note_on_c, 3, 30, 100
5, 199680, Note_off_c, 3, 30, 64
5, 199680, Note_on_c, 3, 30, 80
5, 199920, Note_off_c, 3, 30, 64
5, 199920, Note_on_c, 3, 30, 80
5, 200400, Note_off_c, 3, 30, 64
5, 200400, Note_on_c, 3, 30, 90
5, 200880, Note_off_c, 3, 30, 64
5, 200880, Note_on_c, 3, 32, 100
5, 201600, Note_off_c, 3, 32, 64
5, 201600, Note_on_c, 3, 32, 85
5, 201840, Note_off_c, 3, 32, 64
5, 201840, Note_on_c, 3, 32, 90
5, 202800, Note_off_c, 3, 32, 64
5, 202800, Note_on_c, 3, 33, 100
5, 203760, Note_off_c, 3, 33, 64
5, 203760, Note_on_c, 3, 33, 83
5, 204000, Note_off_c, 3, 33, 64
5, 204000, Note_on_c, 3, 33, 88
5, 204240, Note_off_c, 3, 33, 64
5, 204240, Note_on_c, 3, 33, 83
5, 204480, Note_off_c, 3, 33, 64
5, 204480, Note_on_c, 3, 33, 82
5, 204720, Note_off_c, 3, 33, 64
5, 204720, Note_on_c, 3, 35, 100
5, 205440, Note_off_c, 3, 35, 64
5, 205440, Note_on_c, 3, 35, 90
5, 205680, Note_off_c, 3, 35, 64
5, 205680, Note_on_c, 3, 35, 90
5, 205920, Note_off_c, 3, 35, 64
5, 205920, Note_on_c, 3, 33, 90
5, 206160, Note_off_c, 3, 33, 64
5, 206160, Note_on_c, 3, 35, 90
5, 206400, Note_off_c, 3, 35, 64
5, 206400, Note_on_c, 3, 32, 90
5, 206640, Note_off_c, 3, 32, 64
5, 206640, Note_on_c, 3, 33, 100
5, 207360, Note_off_c, 3, 33, 64
5, 207360, Note_on_c, 3, 33, 80
5, 207600, Note_off_c, 3, 33, 64
5, 207600, Note_on_c, 3, 33, 80
5, 207833, Note_off_c, 3, 33, 64
5, 207840, Note_on_c, 3, 28, 100
5, 208080, Note_off_c, 3, 28, 64
5, 208080, Note_on_c, 3, 33, 100
5, 208560, Note_off_c, 3, 33, 64
5, 208560, Note_on_c, 3, 35, 100
5, 209280, Note_off_c, 3, 35, 64
5, 209280, Note_on_c, 3, 35, 80
5, 209520, Note_off_c, 3, 35, 64
5, 209520, Note_on_c, 3, 35, 80
5, 210480, Note_off_c, 3, 35, 64
5, 210480, Note_on_c, 3, 32, 100
5, 211200, Note_off_c, 3, 32, 64
5, 211200, Note_on_c, 3, 32, 100
5, 211447, Note_off_c, 3, 32, 64
5, 211680, Note_on_c, 3, 32, 100
5, 211800, Note_off_c, 3, 32, 64
5, 211920, Note_on_c, 3, 33, 100
5, 214320, Note_off_c, 3, 33, 64
5, 214320, Note_on_c, 3, 30, 100
5, 215040, Note_off_c, 3, 30, 64
5, 215040, Note_on_c, 3, 30, 80
5, 215280, Note_off_c, 3, 30, 64
5, 215280, Note_on_c, 3, 30, 80
5, 216240, Note_off_c, 3, 30, 64
5, 216240, Note_on_c, 3, 28, 100
5, 218160, Note_off_c, 3, 28, 64
5, 218160, Note_on_c, 3, 40, 84
5, 219833, Note_off_c, 3, 40, 64
5, 219840, Note_on_c, 3, 39, 69
5, 219880, Note_off_c, 3, 39, 64
5, 219880, Note_on_c, 3, 38, 69
5, 219920, Note_off_c, 3, 38, 64
5, 219920, Note_on_c, 3, 37, 69
5, 219960, Note_off_c, 3, 37, 64
5, 219960, Note_on_c, 3, 36, 69
5, 220000, Note_off_c, 3, 36, 64
5, 220000, Note_on_c, 3, 35, 69
5, 220040, Note_off_c, 3, 35, 64
5, 220040, Note_on_c, 3, 34, 69
5, 220080, Note_off_c, 3, 34, 64
5, 220080, Note_on_c, 3, 33, 89
5, 222000, Note_off_c, 3, 33, 64
5, 222000, Note_on_c, 3, 38, 85
5, 223478, Note_off_c, 3, 38, 64
5, 223478, Note_on_c, 3, 39, 60
5, 223518, Note_off_c, 3, 39, 64
5, 223518, Note_on_c, 3, 40, 60
5, 223558, Note_off_c, 3, 40, 64
5, 223558, Note_on_c, 3, 41, 60
5, 223598, Note_off_c, 3, 41, 64
5, 223598, Note_on_c, 3, 42, 60
5, 223638, Note_off_c, 3, 42, 64
5, 223638, Note_on_c, 3, 43, 60
5, 223678, Note_off_c, 3, 43, 64
5, 223678, Note_on_c, 3, 44, 60
5, 223718, Note_off_c, 3, 44, 64
5, 223718, Note_on_c, 3, 45, 60
5, 223758, Note_off_c, 3, 45, 64
5, 223758, Note_on_c, 3, 46, 60
5, 223798, Note_off_c, 3, 46, 64
5, 223798, Note_on_c, 3, 47, 60
5, 223838, Note_off_c, 3, 47, 64
5, 223838, Note_on_c, 3, 48, 60
5, 223878, Note_off_c, 3, 48, 64
5, 223878, Note_on_c, 3, 49, 60
5, 223918, Note_off_c, 3, 49, 64
5, 223920, Note_on_c, 3, 50, 93
5, 225840, Note_on_c, 3, 35, 86
5, 225878, Note_off_c, 3, 50, 64
5, 229680, Note_off_c, 3, 35, 64
5, 229680, Note_on_c, 3, 37, 100
5, 230873, Note_off_c, 3, 37, 64
5, 230880, Note_on_c, 3, 32, 100
5, 231600, Note_on_c, 3, 33, 100
5, 231607, Note_off_c, 3, 32, 64
5, 232793, Note_off_c, 3, 33, 64
5, 232800, Note_on_c, 3, 40, 92
5, 233520, Note_on_c, 3, 39, 93
5, 233527, Note_off_c, 3, 40, 64
5, 234713, Note_off_c, 3, 39, 64
5, 234720, Note_on_c, 3, 35, 100
5, 235680, Note_off_c, 3, 35, 64
5, 235680, Note_on_c, 3, 33, 93
5, 236400, Note_on_c, 3, 32, 100
5, 236407, Note_off_c, 3, 33, 64
5, 236633, Note_off_c, 3, 32, 64
5, 236640, Note_on_c, 3, 30, 100
5, 236880, Note_on_c, 3, 28, 100
5, 236887, Note_off_c, 3, 30, 64
5, 237360, Note_off_c, 3, 28, 64
5, 237360, Note_on_c, 3, 37, 100
5, 238553, Note_off_c, 3, 37, 64
5, 238560, Note_on_c, 3, 32, 100
5, 239280, Note_on_c, 3, 33, 100
5, 239287, Note_off_c, 3, 32, 64
5, 239993, Note_off_c, 3, 33, 64
5, 240000, Note_on_c, 3, 37, 100
5, 240720, Note_on_c, 3, 35, 100
5, 240727, Note_off_c, 3, 37, 64
5, 241913, Note_off_c, 3, 35, 64
5, 241920, Note_on_c, 3, 28, 100
5, 242640, Note_on_c, 3, 30, 100
5, 242647, Note_off_c, 3, 28, 64
5, 243353, Note_off_c, 3, 30, 64
5, 243360, Note_on_c, 3, 32, 100
5, 244080, Note_off_c, 3, 32, 64
5, 244080, Note_on_c, 3, 35, 100
5, 244320, Note_off_c, 3, 35, 64
5, 244320, Note_on_c, 3, 32, 100
5, 244560, Note_off_c, 3, 32, 64
5, 244560, Note_on_c, 3, 37, 100
5, 245753, Note_off_c, 3, 37, 64
5, 245760, Note_on_c, 3, 32, 100
5, 246480, Note_on_c, 3, 33, 100
5, 246487, Note_off_c, 3, 32, 64
5, 247673, Note_off_c, 3, 33, 64
5, 247680, Note_on_c, 3, 40, 92
5, 248400, Note_on_c, 3, 39, 93
5, 248407, Note_off_c, 3, 40, 64
5, 249593, Note_off_c, 3, 39, 64
5, 249600, Note_on_c, 3, 35, 100
5, 250560, Note_off_c, 3, 35, 64
5, 250560, Note_on_c, 3, 33, 93
5, 251280, Note_on_c, 3, 32, 100
5, 251287, Note_off_c, 3, 33, 64
5, 251513, Note_off_c, 3, 32, 64
5, 251520, Note_on_c, 3, 30, 100
5, 251760, Note_on_c, 3, 28, 100
5, 251767, Note_off_c, 3, 30, 64
5, 252240, Note_off_c, 3, 28, 64
5, 252240, Note_on_c, 3, 25, 100
5, 253433, Note_off_c, 3, 25, 64
5, 253440, Note_on_c, 3, 32, 100
5, 254160, Note_on_c, 3, 33, 100
5, 254167, Note_off_c, 3, 32, 64
5, 254873, Note_off_c, 3, 33, 64
5, 254880, Note_on_c, 3, 37, 100
5, 255600, Note_on_c, 3, 35, 100
5, 255607, Note_off_c, 3, 37, 64
5, 256793, Note_off_c, 3, 35, 64
5, 256800, Note_on_c, 3, 28, 100
5, 257520, Note_on_c, 3, 30, 100
5, 257527, Note_off_c, 3, 28, 64
5, 258233, Note_off_c, 3, 30, 64
5, 258240, Note_on_c, 3, 32, 100
5, 258960, Note_off_c, 3, 32, 64
5, 258960, Note_on_c, 3, 35, 100
5, 259440, Note_off_c, 3, 35, 64
5, 259440, Note_on_c, 3, 33, 100
5, 260880, Note_off_c, 3, 33, 64
5, 260880, Note_on_c, 3, 33, 100
5, 261360, Note_off_c, 3, 33, 64
5, 261360, Note_on_c, 3, 35, 100
5, 262320, Note_off_c, 3, 35, 64
5, 262320, Note_on_c, 3, 35, 83
5, 263280, Note_off_c, 3, 35, 64
5, 263280, Note_on_c, 3, 32, 100
5, 264000, Note_off_c, 3, 32, 64
5, 264000, Note_on_c, 3, 32, 100
5, 264720, Note_off_c, 3, 32, 64
5, 264720, Note_on_c, 3, 33, 100
5, 267120, Note_off_c, 3, 33, 64
5, 267120, Note_on_c, 3, 30, 100
5, 268320, Note_off_c, 3, 30, 64
5, 268320, Note_on_c, 3, 30, 100
5, 268560, Note_off_c, 3, 30, 64
5, 268560, Note_on_c, 3, 30, 90
5, 269040, Note_off_c, 3, 30, 64
5, 269040, Note_on_c, 3, 32, 100
5, 270000, Note_off_c, 3, 32, 64
5, 270000, Note_on_c, 3, 32, 90
5, 270960, Note_off_c, 3, 32, 64
5, 270960, Note_on_c, 3, 33, 100
5, 271200, Note_off_c, 3, 33, 64
5, 271200, Note_on_c, 3, 40, 100
5, 271440, Note_off_c, 3, 40, 64
5, 271440, Note_on_c, 3, 45, 100
5, 272160, Pitch_bend_c, 3, 9192
5, 272175, Pitch_bend_c, 3, 10192
5, 272190, Pitch_bend_c, 3, 11192
5, 272205, Pitch_bend_c, 3, 12192
5, 272220, Pitch_bend_c, 3, 13192
5, 272235, Pitch_bend_c, 3, 14192
5, 272250, Pitch_bend_c, 3, 15192
5, 272265, Pitch_bend_c, 3, 16192
5, 272400, Note_off_c, 3, 45, 64
5, 272400, Note_on_c, 3, 47, 100
5, 272400, Pitch_bend_c, 3, 8192
5, 272640, Note_on_c, 3, 35, 75
5, 272880, Note_off_c, 3, 47, 64
5, 272880, Note_on_c, 3, 47, 100
5, 273120, Note_off_c, 3, 35, 64
5, 273120, Note_on_c, 3, 35, 75
5, 273360, Note_off_c, 3, 47, 64
5, 273360, Pitch_bend_c, 3, 9192
5, 273360, Note_on_c, 3, 45, 100
5, 273367, Note_off_c, 3, 35, 64
5, 273375, Pitch_bend_c, 3, 10192
5, 273390, Pitch_bend_c, 3, 11192
5, 273405, Pitch_bend_c, 3, 12192
5, 273420, Pitch_bend_c, 3, 13192
5, 273435, Pitch_bend_c, 3, 14192
5, 273450, Pitch_bend_c, 3, 15192
5, 273465, Pitch_bend_c, 3, 16192
5, 273593, Note_off_c, 3, 45, 64
5, 273600, Note_on_c, 3, 47, 93
5, 273600, Pitch_bend_c, 3, 8192
5, 273840, Note_off_c, 3, 47, 64
5, 273840, Note_on_c, 3, 47, 96
5, 274080, Note_off_c, 3, 47, 64
5, 274080, Note_on_c, 3, 47, 92
5, 274320, Note_off_c, 3, 47, 64
5, 274320, Note_on_c, 3, 47, 97
5, 274560, Note_off_c, 3, 47, 64
5, 274560, Note_on_c, 3, 47, 92
5, 274800, Note_off_c, 3, 47, 64
5, 274800, Note_on_c, 3, 47, 100
5, 275040, Note_off_c, 3, 47, 64
5, 275040, Note_on_c, 3, 45, 100
5, 275280, Note_off_c, 3, 45, 64
5, 275280, Note_on_c, 3, 33, 100
5, 275520, Note_off_c, 3, 33, 64
5, 275520, Note_on_c, 3, 33, 100
5, 275760, Note_off_c, 3, 33, 64
5, 275760, Note_on_c, 3, 33, 90
5, 276480, Note_off_c, 3, 33, 64
5, 276480, Note_on_c, 3, 33, 90
5, 276720, Note_off_c, 3, 33, 64
5, 276720, Note_on_c, 3, 35, 100
5, 277440, Note_off_c, 3, 35, 64
5, 277440, Note_on_c, 3, 35, 80
5, 277680, Note_off_c, 3, 35, 64
5, 277680, Note_on_c, 3, 35, 80
5, 278393, Note_off_c, 3, 35, 64
5, 278400, Note_on_c, 3, 35, 90
5, 278640, Note_off_c, 3, 35, 64
5, 278640, Note_on_c, 3, 32, 100
5, 279360, Note_off_c, 3, 32, 64
5, 279360, Note_on_c, 3, 32, 100
5, 280080, Note_on_c, 3, 33, 100
5, 280087, Note_off_c, 3, 32, 64
5, 281520, Note_off_c, 3, 33, 64
5, 281520, Note_on_c, 3, 33, 100
5, 282233, Note_off_c, 3, 33, 64
5, 282240, Note_on_c, 3, 32, 80
5, 282480, Note_off_c, 3, 32, 64
5, 282480, Note_on_c, 3, 30, 100
5, 283680, Note_on_c, 3, 42, 60
5, 283920, Note_off_c, 3, 30, 64
5, 283920, Note_on_c, 3, 30, 70
5, 284400, Note_off_c, 3, 30, 64
5, 284400, Note_on_c, 3, 28, 100
5, 284407, Note_off_c, 3, 42, 64
5, 286320, Note_off_c, 3, 28, 64
5, 286320, Note_on_c, 3, 33, 90
5, 287280, Note_off_c, 3, 33, 64
5, 287280, Pitch_bend_c, 3, 192
5, 287280, Note_on_c, 3, 40, 84
5, 287295, Pitch_bend_c, 3, 1192
5, 287310, Pitch_bend_c, 3, 2192
5, 287325, Pitch_bend_c, 3, 3192
5, 287340, Pitch_bend_c, 3, 4192
5, 287355, Pitch_bend_c, 3, 5192
5, 287370, Pitch_bend_c, 3, 6192
5, 287385, Pitch_bend_c, 3, 7192
5, 287400, Pitch_bend_c, 3, 8192
5, 287520, Note_off_c, 3, 40, 64
5, 287520, Note_on_c, 3, 45, 84
5, 287760, Note_off_c, 3, 45, 64
5, 287760, Note_on_c, 3, 50, 84
5, 288000, Note_off_c, 3, 50, 64
5, 288000, Note_on_c, 3, 52, 84
5, 290160, Note_on_c, 3, 38, 94
5, 290167, Note_off_c, 3, 52, 64
5, 294000, Note_off_c, 3, 38, 64
5, 294000, Note_on_c, 3, 35, 100
5, 297840, Note_off_c, 3, 35, 64
5, 297840, Note_on_c, 3, 28, 100
5, 298553, Note_off_c, 3, 28, 64
5, 298560, Note_on_c, 3, 35, 100
5, 298800, Note_on_c, 3, 40, 100
5, 298807, Note_off_c, 3, 35, 64
5, 299513, Note_off_c, 3, 40, 64
5, 299520, Note_on_c, 3, 33, 100
5, 300000, Note_off_c, 3, 33, 64
5, 300000, Note_on_c, 3, 33, 80
5, 300240, Note_off_c, 3, 33, 64
5, 300240, Note_on_c, 3, 33, 80
5, 300473, Note_off_c, 3, 33, 64
5, 300480, Note_on_c, 3, 30, 100
5, 300960, Note_off_c, 3, 30, 64
5, 300960, Note_on_c, 3, 30, 100
5, 301200, Note_off_c, 3, 30, 64
5, 301200, Note_on_c, 3, 33, 100
5, 301433, Note_off_c, 3, 33, 64
5, 301440, Pitch_bend_c, 3, 9192
5, 301440, Note_on_c, 3, 36, 100
5, 301455, Pitch_bend_c, 3, 10192
5, 301470, Pitch_bend_c, 3, 11192
5, 301485, Pitch_bend_c, 3, 12192
5, 301500, Pitch_bend_c, 3, 13192
5, 301515, Pitch_bend_c, 3, 14192
5, 301530, Pitch_bend_c, 3, 15192
5, 301545, Pitch_bend_c, 3, 16192
5, 301680, Note_off_c, 3, 36, 64
5, 301680, Pitch_bend_c, 3, 8192
5, 301680, Note_on_c, 3, 32, 100
5, 302393, Note_off_c, 3, 32, 64
5, 302400, Note_on_c, 3, 33, 100
5, 302880, Note_off_c, 3, 33, 64
5, 302880, Note_on_c, 3, 35, 100
5, 303360, Note_off_c, 3, 35, 64
5, 303360, Note_on_c, 3, 37, 100
5, 303600, Note_on_c, 3, 38, 100
5, 303607, Note_off_c, 3, 37, 64
5, 304313, Note_off_c, 3, 38, 64
5, 304320, Note_on_c, 3, 28, 100
5, 305033, Note_off_c, 3, 28, 64
5, 305040, Note_on_c, 3, 35, 100
5, 305280, Note_on_c, 3, 40, 100
5, 305287, Note_off_c, 3, 35, 64
5, 305993, Note_off_c, 3, 40, 64
5, 306000, Note_on_c, 3, 33, 100
5, 306480, Note_off_c, 3, 33, 64
5, 306480, Note_on_c, 3, 33, 80
5, 306720, Note_off_c, 3, 33, 64
5, 306720, Note_on_c, 3, 33, 80
5, 306960, Note_off_c, 3, 33, 64
5, 306960, Note_on_c, 3, 26, 100
5, 307440, Note_off_c, 3, 26, 64
5, 307440, Note_on_c, 3, 28, 100
5, 307920, Note_off_c, 3, 28, 64
5, 307920, Note_on_c, 3, 30, 100
5, 308160, Note_off_c, 3, 30, 64
5, 308160, Note_on_c, 3, 31, 100
5, 308400, Note_on_c, 3, 33, 100
5, 308407, Note_off_c, 3, 31, 64
5, 308633, Note_off_c, 3, 33, 64
5, 308640, Note_on_c, 3, 35, 100
5, 308880, Note_off_c, 3, 35, 64
5, 308880, Note_on_c, 3, 36, 100
5, 309840, Note_off_c, 3, 36, 64
5, 309840, Note_on_c, 3, 28, 100
5, 310080, Note_off_c, 3, 28, 64
5, 310080, Note_on_c, 3, 29, 100
5, 310560, Note_off_c, 3, 29, 64
5, 310560, Note_on_c, 3, 31, 100
5, 310680, Note_off_c, 3, 31, 64
5, 310800, Note_on_c, 3, 33, 100
5, 310920, Note_off_c, 3, 33, 64
5, 311040, Note_on_c, 3, 35, 100
5, 312000, Note_off_c, 3, 35, 64
5, 312000, Note_on_c, 3, 28, 100
5, 313673, Note_off_c, 3, 28, 64
5, 313680, Note_on_c, 3, 33, 100
5, 314640, Note_off_c, 3, 33, 64
5, 314640, Note_on_c, 3, 30, 100
5, 315840, Note_on_c, 3, 32, 100
5, 315847, Note_off_c, 3, 30, 64
5, 316553, Note_off_c, 3, 32, 64
5, 316560, Note_on_c, 3, 33, 100
5, 317760, Note_on_c, 3, 26, 100
5, 317767, Note_off_c, 3, 33, 64
5, 318473, Note_off_c, 3, 26, 64
5, 318480, Note_on_c, 3, 28, 100
5, 319680, Note_off_c, 3, 28, 64
5, 319680, Note_on_c, 3, 28, 100
5, 321353, Note_off_c, 3, 28, 64
5, 321360, Note_on_c, 3, 33, 100
5, 322320, Note_off_c, 3, 33, 64
5, 322320, Note_on_c, 3, 30, 100
5, 323520, Note_on_c, 3, 32, 100
5, 323527, Note_off_c, 3, 30, 64
5, 324233, Note_off_c, 3, 32, 64
5, 324240, Note_on_c, 3, 33, 100
5, 325440, Note_on_c, 3, 38, 100
5, 325447, Note_off_c, 3, 33, 64
5, 326153, Note_off_c, 3, 38, 64
5, 326160, Note_on_c, 3, 40, 100
5, 327360, Note_on_c, 3, 28, 100
5, 327367, Note_off_c, 3, 40, 64
5, 329033, Note_off_c, 3, 28, 64
5, 329040, Note_on_c, 3, 33, 100
5, 330000, Note_off_c, 3, 33, 64
5, 330000, Note_on_c, 3, 30, 100
5, 331200, Note_on_c, 3, 32, 100
5, 331207, Note_off_c, 3, 30, 64
5, 331913, Note_off_c, 3, 32, 64
5, 331920, Note_on_c, 3, 33, 100
5, 333120, Note_on_c, 3, 38, 100
5, 333127, Note_off_c, 3, 33, 64
5, 333833, Note_off_c, 3, 38, 64
5, 333840, Note_on_c, 3, 40, 100
5, 335040, Note_on_c, 3, 28, 100
5, 335047, Note_off_c, 3, 40, 64
5, 336713, Note_off_c, 3, 28, 64
5, 336720, Note_on_c, 3, 33, 100
5, 337680, Note_off_c, 3, 33, 64
5, 337680, Note_on_c, 3, 30, 100
5, 338880, Note_on_c, 3, 32, 100
5, 338887, Note_off_c, 3, 30, 64
5, 339593, Note_off_c, 3, 32, 64
5, 339600, Note_on_c, 3, 33, 100
5, 340560, Note_off_c, 3, 33, 64
5, 340560, Note_on_c, 3, 38, 100
5, 340800, Note_off_c, 3, 38, 64
5, 340800, Note_on_c, 3, 38, 100
5, 341033, Note_off_c, 3, 38, 64
5, 341040, Note_on_c, 3, 54, 100
5, 341040, Pitch_bend_c, 3, 192
5, 341055, Pitch_bend_c, 3, 1192
5, 341070, Pitch_bend_c, 3, 2192
5, 341085, Pitch_bend_c, 3, 3192
5, 341100, Pitch_bend_c, 3, 4192
5, 341115, Pitch_bend_c, 3, 5192
5, 341130, Pitch_bend_c, 3, 6192
5, 341145, Pitch_bend_c, 3, 7192
5, 341160, Pitch_bend_c, 3, 8192
5, 341280, Note_off_c, 3, 54, 64
5, 341280, Note_on_c, 3, 50, 100
5, 341520, Note_off_c, 3, 50, 64
5, 341520, Note_on_c, 3, 52, 100
5, 341520, Pitch_bend_c, 3, 192
5, 341535, Pitch_bend_c, 3, 1192
5, 341550, Pitch_bend_c, 3, 2192
5, 341565, Pitch_bend_c, 3, 3192
5, 341580, Pitch_bend_c, 3, 4192
5, 341595, Pitch_bend_c, 3, 5192
5, 341610, Pitch_bend_c, 3, 6192
5, 341625, Pitch_bend_c, 3, 7192
5, 341640, Pitch_bend_c, 3, 8192
5, 341760, Note_off_c, 3, 52, 64
5, 341760, Note_on_c, 3, 52, 100
5, 342000, Note_off_c, 3, 52, 64
5, 342000, Note_on_c, 3, 52, 100
5, 342240, Note_off_c, 3, 52, 64
5, 342240, Note_on_c, 3, 52, 100
5, 342480, Note_off_c, 3, 52, 64
5, 342480, Note_on_c, 3, 52, 100
5, 342720, Note_off_c, 3, 52, 64
5, 342720, Note_on_c, 3, 52, 100
5, 342960, Note_off_c, 3, 52, 64
5, 342960, Note_on_c, 3, 52, 100
5, 343200, Note_off_c, 3, 52, 64
5, 343200, Note_on_c, 3, 52, 100
5, 343440, Note_off_c, 3, 52, 64
5, 343440, Note_on_c, 3, 52, 100
5, 343680, Note_off_c, 3, 52, 64
5, 343680, Note_on_c, 3, 52, 100
5, 343920, Note_off_c, 3, 52, 64
5, 343920, Note_on_c, 3, 47, 100
5, 344160, Note_off_c, 3, 47, 64
5, 344160, Note_on_c, 3, 28, 100
5, 344400, Note_off_c, 3, 28, 64
5, 344400, Note_on_c, 3, 33, 100
5, 345360, Note_off_c, 3, 33, 64
5, 345360, Note_on_c, 3, 30, 100
5, 346560, Note_on_c, 3, 32, 100
5, 346567, Note_off_c, 3, 30, 64
5, 347273, Note_off_c, 3, 32, 64
5, 347280, Note_on_c, 3, 33, 100
5, 348000, Note_off_c, 3, 33, 64
5, 348000, Note_on_c, 3, 33, 100
5, 348240, Note_off_c, 3, 33, 64
5, 348240, Note_on_c, 3, 38, 100
5, 348480, Note_off_c, 3, 38, 64
5, 348480, Note_on_c, 3, 38, 100
5, 348720, Note_off_c, 3, 38, 64
5, 348720, Note_on_c, 3, 38, 100
5, 348960, Note_off_c, 3, 38, 64
5, 348960, Note_on_c, 3, 38, 100
5, 349200, Note_off_c, 3, 38, 64
5, 349200, Note_on_c, 3, 40, 100
5, 349440, Note_off_c, 3, 40, 64
5, 349440, Note_on_c, 3, 40, 100
5, 349680, Note_off_c, 3, 40, 64
5, 349680, Note_on_c, 3, 40, 100
5, 349920, Note_off_c, 3, 40, 64
5, 349920, Note_on_c, 3, 40, 100
5, 350160, Note_off_c, 3, 40, 64
5, 350160, Note_on_c, 3, 40, 100
5, 350400, Note_off_c, 3, 40, 64
5, 350400, Note_on_c, 3, 28, 100
5, 350640, Note_off_c, 3, 28, 64
5, 350640, Note_on_c, 3, 35, 100
5, 350880, Note_off_c, 3, 35, 64
5, 350880, Note_on_c, 3, 40, 100
5, 351120, Note_off_c, 3, 40, 64
5, 351120, Note_on_c, 3, 40, 100
5, 351360, Note_off_c, 3, 40, 64
5, 351360, Note_on_c, 3, 40, 100
5, 351600, Note_off_c, 3, 40, 64
5, 351600, Note_on_c, 3, 28, 100
5, 351840, Note_off_c, 3, 28, 64
5, 351840, Note_on_c, 3, 28, 100
5, 352080, Note_off_c, 3, 28, 64
5, 352080, Note_on_c, 3, 33, 100
5, 353040, Note_off_c, 3, 33, 64
5, 353040, Note_on_c, 3, 30, 100
5, 353520, Note_off_c, 3, 30, 64
5, 353520, Note_on_c, 3, 30, 90
5, 353760, Note_off_c, 3, 30, 64
5, 353760, Note_on_c, 3, 30, 90
5, 354240, Note_off_c, 3, 30, 64
5, 354240, Note_on_c, 3, 32, 100
5, 354953, Note_off_c, 3, 32, 64
5, 354960, Note_on_c, 3, 33, 100
5, 355680, Note_off_c, 3, 33, 64
5, 355680, Note_on_c, 3, 33, 100
5, 355920, Note_off_c, 3, 33, 64
5, 355920, Note_on_c, 3, 23, 100
5, 356160, Note_off_c, 3, 23, 64
5, 356160, Note_on_c, 3, 26, 100
5, 356400, Note_off_c, 3, 26, 64
5, 356400, Note_on_c, 3, 26, 100
5, 356640, Note_off_c, 3, 26, 64
5, 356640, Note_on_c, 3, 26, 100
5, 356880, Note_off_c, 3, 26, 64
5, 356880, Note_on_c, 3, 28, 100
5, 357120, Note_off_c, 3, 28, 64
5, 357120, Note_on_c, 3, 28, 85
5, 357360, Note_off_c, 3, 28, 64
5, 357360, Note_on_c, 3, 28, 85
5, 357600, Note_off_c, 3, 28, 64
5, 357600, Note_on_c, 3, 28, 85
5, 357840, Note_off_c, 3, 28, 64
5, 357840, Note_on_c, 3, 28, 85
5, 358080, Note_off_c, 3, 28, 64
5, 358080, Note_on_c, 3, 28, 100
5, 358320, Note_off_c, 3, 28, 64
5, 358320, Note_on_c, 3, 28, 100
5, 358560, Note_off_c, 3, 28, 64
5, 358560, Note_on_c, 3, 28, 100
5, 358800, Note_off_c, 3, 28, 64
5, 358800, Note_on_c, 3, 28, 100
5, 359040, Note_off_c, 3, 28, 64
5, 359040, Note_on_c, 3, 28, 100
5, 359280, Note_off_c, 3, 28, 64
5, 359280, Note_on_c, 3, 28, 100
5, 359520, Note_off_c, 3, 28, 64
5, 359520, Note_on_c, 3, 28, 100
5, 359760, Note_off_c, 3, 28, 64
5, 359760, Note_on_c, 3, 33, 100
5, 360720, Note_off_c, 3, 33, 64
5, 360720, Note_on_c, 3, 30, 100
5, 361200, Note_off_c, 3, 30, 64
5, 361200, Note_on_c, 3, 30, 90
5, 361440, Note_off_c, 3, 30, 64
5, 361440, Note_on_c, 3, 30, 90
5, 361920, Note_off_c, 3, 30, 64
5, 361920, Note_on_c, 3, 32, 100
5, 362633, Note_off_c, 3, 32, 64
5, 362640, Note_on_c, 3, 33, 100
5, 363360, Note_off_c, 3, 33, 64
5, 363360, Note_on_c, 3, 33, 100
5, 363600, Note_off_c, 3, 33, 64
5, 363600, Note_on_c, 3, 38, 100
5, 363840, Note_off_c, 3, 38, 64
5, 363840, Note_on_c, 3, 38, 100
5, 364080, Note_off_c, 3, 38, 64
5, 364080, Note_on_c, 3, 38, 100
5, 364320, Note_off_c, 3, 38, 64
5, 364320, Note_on_c, 3, 38, 100
5, 364560, Note_off_c, 3, 38, 64
5, 364560, Note_on_c, 3, 40, 100
5, 364800, Note_off_c, 3, 40, 64
5, 364800, Note_on_c, 3, 40, 85
5, 365040, Note_off_c, 3, 40, 64
5, 365040, Note_on_c, 3, 40, 85
5, 365280, Note_off_c, 3, 40, 64
5, 365280, Note_on_c, 3, 40, 85
5, 365520, Note_off_c, 3, 40, 64
5, 365520, Note_on_c, 3, 40, 85
5, 365760, Note_off_c, 3, 40, 64
5, 365760, Note_on_c, 3, 28, 100
5, 366000, Note_off_c, 3, 28, 64
5, 366000, Note_on_c, 3, 28, 100
5, 366240, Note_off_c, 3, 28, 64
5, 366240, Note_on_c, 3, 28, 100
5, 366480, Note_off_c, 3, 28, 64
5, 366480, Note_on_c, 3, 28, 100
5, 366720, Note_off_c, 3, 28, 64
5, 366720, Note_on_c, 3, 28, 100
5, 366960, Note_off_c, 3, 28, 64
5, 366960, Note_on_c, 3, 28, 100
5, 367200, Note_off_c, 3, 28, 64
5, 367200, Note_on_c, 3, 28, 100
5, 367440, Note_off_c, 3, 28, 64
5, 367440, Note_on_c, 3, 33, 100
5, 367680, Note_off_c, 3, 33, 64
5, 367680, Note_on_c, 3, 33, 100
5, 367920, Note_off_c, 3, 33, 64
5, 367920, Note_on_c, 3, 33, 100
5, 368160, Note_off_c, 3, 33, 64
5, 368160, Note_on_c, 3, 33, 100
5, 368400, Note_off_c, 3, 33, 64
5, 368400, Note_on_c, 3, 30, 100
5, 368640, Note_off_c, 3, 30, 64
5, 368640, Note_on_c, 3, 30, 100
5, 368880, Note_off_c, 3, 30, 64
5, 368880, Note_on_c, 3, 30, 100
5, 369120, Note_off_c, 3, 30, 64
5, 369120, Note_on_c, 3, 30, 100
5, 369360, Note_off_c, 3, 30, 64
5, 369360, Note_on_c, 3, 30, 100
5, 369600, Note_off_c, 3, 30, 64
5, 369600, Note_on_c, 3, 32, 100
5, 369840, Note_off_c, 3, 32, 64
5, 369840, Note_on_c, 3, 32, 100
5, 370080, Note_off_c, 3, 32, 64
5, 370080, Note_on_c, 3, 32, 100
5, 370320, Note_off_c, 3, 32, 64
5, 370320, Note_on_c, 3, 33, 100
5, 370560, Note_off_c, 3, 33, 64
5, 370560, Note_on_c, 3, 33, 100
5, 370800, Note_off_c, 3, 33, 64
5, 370800, Note_on_c, 3, 33, 100
5, 371040, Note_off_c, 3, 33, 64
5, 371040, Note_on_c, 3, 33, 100
5, 371280, Note_off_c, 3, 33, 64
5, 371280, Note_on_c, 3, 38, 100
5, 371520, Note_off_c, 3, 38, 64
5, 371520, Note_on_c, 3, 38, 100
5, 371760, Note_off_c, 3, 38, 64
5, 371760, Note_on_c, 3, 38, 100
5, 372000, Note_off_c, 3, 38, 64
5, 372000, Note_on_c, 3, 38, 100
5, 372240, Note_off_c, 3, 38, 64
5, 372240, Note_on_c, 3, 40, 100
5, 372480, Note_off_c, 3, 40, 64
5, 372480, Note_on_c, 3, 40, 100
5, 372713, Note_off_c, 3, 40, 64
5, 372720, Note_on_c, 3, 40, 100
5, 372960, Note_off_c, 3, 40, 64
5, 372960, Note_on_c, 3, 40, 100
5, 373200, Note_off_c, 3, 40, 64
5, 373200, Note_on_c, 3, 40, 100
5, 373440, Note_off_c, 3, 40, 64
5, 373440, Note_on_c, 3, 28, 100
5, 373680, Note_off_c, 3, 28, 64
5, 373680, Note_on_c, 3, 28, 100
5, 373920, Note_off_c, 3, 28, 64
5, 373920, Note_on_c, 3, 28, 100
5, 374160, Note_off_c, 3, 28, 64
5, 374160, Note_on_c, 3, 28, 100
5, 374400, Note_off_c, 3, 28, 64
5, 374400, Note_on_c, 3, 28, 100
5, 374640, Note_off_c, 3, 28, 64
5, 374640, Note_on_c, 3, 28, 100
5, 374880, Note_off_c, 3, 28, 64
5, 374880, Note_on_c, 3, 28, 100
5, 375120, Note_off_c, 3, 28, 64
5, 375120, Note_on_c, 3, 33, 100
5, 375360, Note_off_c, 3, 33, 64
5, 375360, Note_on_c, 3, 33, 100
5, 375600, Note_off_c, 3, 33, 64
5, 375600, Note_on_c, 3, 33, 100
5, 375840, Note_off_c, 3, 33, 64
5, 375840, Note_on_c, 3, 33, 100
5, 376080, Note_off_c, 3, 33, 64
5, 376080, Note_on_c, 3, 30, 100
5, 376320, Note_off_c, 3, 30, 64
5, 376320, Note_on_c, 3, 30, 100
5, 376560, Note_off_c, 3, 30, 64
5, 376560, Note_on_c, 3, 30, 100
5, 376800, Note_off_c, 3, 30, 64
5, 376800, Note_on_c, 3, 30, 100
5, 377040, Note_off_c, 3, 30, 64
5, 377040, Note_on_c, 3, 30, 100
5, 377280, Note_off_c, 3, 30, 64
5, 377280, Note_on_c, 3, 32, 100
5, 377520, Note_off_c, 3, 32, 64
5, 377520, Note_on_c, 3, 32, 100
5, 377760, Note_off_c, 3, 32, 64
5, 377760, Note_on_c, 3, 32, 100
5, 378000, Note_off_c, 3, 32, 64
5, 378000, Note_on_c, 3, 33, 100
5, 378240, Note_off_c, 3, 33, 64
5, 378240, Note_on_c, 3, 33, 100
5, 378480, Note_off_c, 3, 33, 64
5, 378480, Note_on_c, 3, 33, 100
5, 378720, Note_off_c, 3, 33, 64
5, 378720, Note_on_c, 3, 33, 100
5, 378960, Note_off_c, 3, 33, 64
5, 378960, Note_on_c, 3, 38, 100
5, 379200, Note_off_c, 3, 38, 64
5, 379200, Note_on_c, 3, 38, 100
5, 379440, Note_off_c, 3, 38, 64
5, 379440, Note_on_c, 3, 38, 100
5, 379680, Note_off_c, 3, 38, 64
5, 379680, Note_on_c, 3, 38, 100
5, 379920, Note_off_c, 3, 38, 64
5, 379920, Note_on_c, 3, 40, 100
5, 380160, Note_off_c, 3, 40, 64
5, 380160, Note_on_c, 3, 40, 100
5, 380393, Note_off_c, 3, 40, 64
5, 380400, Note_on_c, 3, 40, 100
5, 380640, Note_off_c, 3, 40, 64
5, 380640, Note_on_c, 3, 40, 100
5, 380880, Note_off_c, 3, 40, 64
5, 380880, Note_on_c, 3, 40, 100
5, 381120, Note_off_c, 3, 40, 64
5, 381120, Note_on_c, 3, 28, 100
5, 381360, Note_off_c, 3, 28, 64
5, 381360, Note_on_c, 3, 28, 100
5, 381600, Note_off_c, 3, 28, 64
5, 381600, Note_on_c, 3, 28, 100
5, 381840, Note_off_c, 3, 28, 64
5, 381840, Note_on_c, 3, 28, 100
5, 382080, Note_off_c, 3, 28, 64
5, 382080, Note_on_c, 3, 28, 100
5, 382320, Note_off_c, 3, 28, 64
5, 382320, Note_on_c, 3, 28, 100
5, 382560, Note_off_c, 3, 28, 64
5, 382560, Note_on_c, 3, 28, 100
5, 382800, Note_off_c, 3, 28, 64
5, 382800, Note_on_c, 3, 33, 100
5, 383760, Note_off_c, 3, 33, 64
5, 383760, Note_on_c, 3, 30, 100
5, 384960, Note_on_c, 3, 32, 100
5, 384967, Note_off_c, 3, 30, 64
5, 385673, Note_off_c, 3, 32, 64
5, 385680, Note_on_c, 3, 33, 100
5, 386880, Note_on_c, 3, 38, 100
5, 386887, Note_off_c, 3, 33, 64
5, 387593, Note_off_c, 3, 38, 64
5, 387600, Note_on_c, 3, 40, 100
5, 390727, Note_off_c, 3, 40, 64
5, 390727, End_track
6, 0, Start_track
6, 0, Title_t, "Organ"
6, 0, MIDI_port, 0
6, 0, Channel_prefix, 4
6, 0, Control_c, 4, 7, 89
6, 0, Program_c, 4, 18
6, 28560, Note_on_c, 4, 53, 100
6, 28590, Note_off_c, 4, 53, 80
6, 28590, Note_on_c, 4, 55, 100
6, 28620, Note_off_c, 4, 55, 80
6, 28620, Note_on_c, 4, 57, 100
6, 28650, Note_off_c, 4, 57, 80
6, 28650, Note_on_c, 4, 59, 100
6, 28680, Note_off_c, 4, 59, 80
6, 28680, Note_on_c, 4, 60, 100
6, 28710, Note_off_c, 4, 60, 80
6, 28710, Note_on_c, 4, 62, 100
6, 28740, Note_off_c, 4, 62, 80
6, 28740, Note_on_c, 4, 64, 100
6, 28770, Note_off_c, 4, 64, 80
6, 28770, Note_on_c, 4, 65, 100
6, 28800, Note_off_c, 4, 65, 80
6, 28800, Note_on_c, 4, 86, 100
6, 28800, Note_on_c, 4, 79, 100
6, 28800, Note_on_c, 4, 74, 100
6, 28800, Note_on_c, 4, 67, 100
6, 29040, Note_off_c, 4, 67, 80
6, 29040, Note_off_c, 4, 74, 80
6, 29040, Note_off_c, 4, 79, 80
6, 29040, Note_off_c, 4, 86, 64
6, 29040, Note_on_c, 4, 79, 100
6, 29040, Note_on_c, 4, 74, 100
6, 29040, Note_on_c, 4, 67, 100
6, 29040, Note_on_c, 4, 86, 100
6, 30720, Note_on_c, 4, 84, 100
6, 30720, Note_on_c, 4, 77, 100
6, 30720, Note_on_c, 4, 72, 100
6, 30727, Note_off_c, 4, 86, 64
6, 30727, Note_off_c, 4, 67, 80
6, 30727, Note_off_c, 4, 74, 80
6, 30727, Note_off_c, 4, 79, 80
6, 30960, Note_off_c, 4, 84, 80
6, 30960, Note_off_c, 4, 77, 80
6, 30960, Note_off_c, 4, 72, 80
6, 30960, Note_on_c, 4, 86, 100
6, 30960, Note_on_c, 4, 74, 100
6, 30960, Note_on_c, 4, 81, 100
6, 31200, Note_off_c, 4, 81, 80
6, 31200, Note_off_c, 4, 74, 80
6, 31200, Note_off_c, 4, 86, 80
6, 31433, Note_on_c, 4, 72, 100
6, 31433, Note_on_c, 4, 84, 100
6, 31433, Note_on_c, 4, 77, 100
6, 31673, Note_off_c, 4, 77, 80
6, 31673, Note_off_c, 4, 84, 80
6, 31673, Note_off_c, 4, 72, 80
6, 32160, Note_on_c, 4, 91, 100
6, 32160, Note_on_c, 4, 86, 100
6, 32160, Note_on_c, 4, 79, 100
6, 32160, Note_on_c, 4, 67, 100
6, 32160, Note_on_c, 4, 55, 100
6, 34560, Note_off_c, 4, 55, 80
6, 34560, Note_off_c, 4, 67, 80
6, 34560, Note_off_c, 4, 79, 80
6, 34560, Note_off_c, 4, 86, 80
6, 34560, Note_off_c, 4, 91, 80
6, 34560, Note_on_c, 4, 72, 100
6, 34560, Note_on_c, 4, 84, 100
6, 34560, Note_on_c, 4, 79, 100
6, 34800, Note_off_c, 4, 79, 80
6, 34800, Note_off_c, 4, 84, 80
6, 34800, Note_off_c, 4, 72, 80
6, 34800, Note_on_c, 4, 86, 100
6, 34800, Note_on_c, 4, 74, 100
6, 34800, Note_on_c, 4, 81, 100
6, 35040, Note_off_c, 4, 81, 80
6, 35040, Note_off_c, 4, 74, 80
6, 35040, Note_off_c, 4, 86, 80
6, 35273, Note_on_c, 4, 79, 100
6, 35273, Note_on_c, 4, 72, 100
6, 35273, Note_on_c, 4, 84, 100
6, 35513, Note_off_c, 4, 84, 80
6, 35513, Note_off_c, 4, 72, 80
6, 35513, Note_off_c, 4, 79, 80
6, 36000, Note_on_c, 4, 79, 100
6, 36000, Note_on_c, 4, 84, 100
6, 36000, Note_on_c, 4, 72, 100
6, 36000, Note_on_c, 4, 60, 100
6, 36000, Note_on_c, 4, 48, 100
6, 38400, Note_off_c, 4, 48, 80
6, 38400, Note_off_c, 4, 60, 80
6, 38400, Note_off_c, 4, 72, 80
6, 38400, Note_off_c, 4, 84, 80
6, 38400, Note_off_c, 4, 79, 80
6, 38400, Note_on_c, 4, 72, 100
6, 38400, Note_on_c, 4, 84, 100
6, 38400, Note_on_c, 4, 79, 100
6, 38640, Note_off_c, 4, 79, 80
6, 38640, Note_off_c, 4, 84, 80
6, 38640, Note_off_c, 4, 72, 80
6, 38640, Note_on_c, 4, 86, 100
6, 38640, Note_on_c, 4, 74, 100
6, 38640, Note_on_c, 4, 81, 100
6, 38880, Note_off_c, 4, 81, 80
6, 38880, Note_off_c, 4, 74, 80
6, 38880, Note_off_c, 4, 86, 80
6, 39113, Note_on_c, 4, 72, 100
6, 39113, Note_on_c, 4, 84, 100
6, 39113, Note_on_c, 4, 77, 100
6, 39353, Note_off_c, 4, 77, 80
6, 39353, Note_off_c, 4, 84, 80
6, 39353, Note_off_c, 4, 72, 80
6, 39840, Note_on_c, 4, 91, 100
6, 39840, Note_on_c, 4, 86, 100
6, 39840, Note_on_c, 4, 79, 100
6, 39840, Note_on_c, 4, 67, 100
6, 39840, Note_on_c, 4, 55, 100
6, 42240, Note_off_c, 4, 55, 80
6, 42240, Note_off_c, 4, 67, 80
6, 42240, Note_off_c, 4, 79, 80
6, 42240, Note_off_c, 4, 86, 80
6, 42240, Note_off_c, 4, 91, 80
6, 42240, Note_on_c, 4, 72, 100
6, 42240, Note_on_c, 4, 84, 100
6, 42240, Note_on_c, 4, 79, 100
6, 42480, Note_off_c, 4, 79, 80
6, 42480, Note_off_c, 4, 84, 80
6, 42480, Note_off_c, 4, 72, 80
6, 42480, Note_on_c, 4, 86, 100
6, 42480, Note_on_c, 4, 74, 100
6, 42480, Note_on_c, 4, 81, 100
6, 42720, Note_off_c, 4, 81, 80
6, 42720, Note_off_c, 4, 74, 80
6, 42720, Note_off_c, 4, 86, 80
6, 42953, Note_on_c, 4, 72, 100
6, 42953, Note_on_c, 4, 77, 100
6, 42953, Note_on_c, 4, 84, 100
6, 43193, Note_off_c, 4, 84, 80
6, 43193, Note_off_c, 4, 77, 80
6, 43193, Note_off_c, 4, 72, 80
6, 43680, Note_on_c, 4, 86, 100
6, 43680, Note_on_c, 4, 81, 100
6, 43680, Note_on_c, 4, 74, 100
6, 43680, Note_on_c, 4, 62, 100
6, 43680, Note_on_c, 4, 50, 100
6, 46080, Note_off_c, 4, 50, 80
6, 46080, Note_off_c, 4, 62, 80
6, 46080, Note_off_c, 4, 74, 80
6, 46080, Note_off_c, 4, 81, 80
6, 46080, Note_off_c, 4, 86, 80
6, 46080, Note_on_c, 4, 81, 100
6, 46080, Note_on_c, 4, 76, 100
6, 46080, Note_on_c, 4, 69, 100
6, 46313, Note_off_c, 4, 69, 64
6, 46313, Note_off_c, 4, 76, 64
6, 46313, Note_off_c, 4, 81, 64
6, 46760, Note_on_c, 4, 75, 100
6, 46800, Note_off_c, 4, 75, 64
6, 46800, Note_on_c, 4, 81, 100
6, 46800, Note_on_c, 4, 76, 100
6, 46800, Note_on_c, 4, 69, 100
6, 47520, Note_off_c, 4, 81, 64
6, 47520, Note_on_c, 4, 81, 100
6, 47527, Note_off_c, 4, 76, 64
6, 47527, Note_off_c, 4, 69, 64
6, 47640, Note_off_c, 4, 81, 64
6, 47640, Note_on_c, 4, 79, 100
6, 47760, Note_off_c, 4, 79, 64
6, 47760, Note_on_c, 4, 75, 100
6, 47760, Note_on_c, 4, 80, 100
6, 47880, Note_off_c, 4, 80, 64
6, 47880, Note_off_c, 4, 75, 64
6, 47880, Note_on_c, 4, 79, 100
6, 48000, Note_off_c, 4, 79, 64
6, 48000, Note_on_c, 4, 72, 100
6, 48120, Note_off_c, 4, 72, 64
6, 48120, Note_on_c, 4, 74, 100
6, 48240, Note_off_c, 4, 74, 64
6, 48240, Note_on_c, 4, 69, 100
6, 48360, Note_off_c, 4, 69, 64
6, 48360, Note_on_c, 4, 72, 100
6, 48480, Note_off_c, 4, 72, 64
6, 48480, Note_on_c, 4, 86, 100
6, 48480, Note_on_c, 4, 81, 100
6, 48480, Note_on_c, 4, 74, 100
6, 49076, Note_off_c, 4, 74, 64
6, 49076, Note_off_c, 4, 81, 64
6, 49076, Note_off_c, 4, 86, 64
6, 49200, Note_on_c, 4, 86, 100
6, 49200, Note_on_c, 4, 81, 100
6, 49320, Note_off_c, 4, 81, 64
6, 49320, Note_off_c, 4, 86, 64
6, 49320, Note_on_c, 4, 84, 100
6, 49440, Note_off_c, 4, 84, 64
6, 49440, Note_on_c, 4, 81, 100
6, 49560, Note_off_c, 4, 81, 64
6, 49560, Note_on_c, 4, 79, 100
6, 49680, Note_off_c, 4, 79, 64
6, 49680, Note_on_c, 4, 84, 100
6, 49680, Note_on_c, 4, 77, 100
6, 49680, Note_on_c, 4, 72, 100
6, 50400, Note_off_c, 4, 72, 64
6, 50400, Note_off_c, 4, 77, 64
6, 50400, Note_off_c, 4, 84, 64
6, 50400, Note_on_c, 4, 84, 100
6, 50400, Note_on_c, 4, 76, 100
6, 50400, Note_on_c, 4, 72, 100
6, 51113, Note_off_c, 4, 72, 64
6, 51113, Note_off_c, 4, 76, 64
6, 51113, Note_off_c, 4, 84, 64
6, 51120, Note_on_c, 4, 77, 100
6, 51240, Note_off_c, 4, 77, 64
6, 51240, Note_on_c, 4, 84, 100
6, 51360, Note_off_c, 4, 84, 64
6, 51360, Note_on_c, 4, 91, 100
6, 51480, Note_off_c, 4, 91, 64
6, 51480, Note_on_c, 4, 89, 100
6, 51600, Note_off_c, 4, 89, 64
6, 51600, Note_on_c, 4, 84, 100
6, 51720, Note_off_c, 4, 84, 64
6, 51720, Note_on_c, 4, 86, 100
6, 51840, Note_off_c, 4, 86, 64
6, 51840, Note_on_c, 4, 91, 100
6, 51840, Note_on_c, 4, 86, 100
6, 51840, Note_on_c, 4, 79, 100
6, 52553, Note_off_c, 4, 79, 64
6, 52553, Note_off_c, 4, 86, 64
6, 52553, Note_off_c, 4, 91, 64
6, 52560, Note_on_c, 4, 91, 100
6, 52640, Note_off_c, 4, 91, 64
6, 52640, Note_on_c, 4, 86, 100
6, 52720, Note_off_c, 4, 86, 64
6, 52720, Note_on_c, 4, 84, 100
6, 52800, Note_off_c, 4, 84, 64
6, 52800, Note_on_c, 4, 77, 100
6, 52880, Note_off_c, 4, 77, 64
6, 52880, Note_on_c, 4, 74, 100
6, 52960, Note_off_c, 4, 74, 64
6, 52960, Note_on_c, 4, 84, 100
6, 53040, Note_off_c, 4, 84, 64
6, 53040, Note_on_c, 4, 79, 100
6, 53120, Note_off_c, 4, 79, 64
6, 53120, Note_on_c, 4, 77, 100
6, 53200, Note_off_c, 4, 77, 64
6, 53200, Note_on_c, 4, 72, 100
6, 53280, Note_off_c, 4, 72, 64
6, 53280, Note_on_c, 4, 69, 100
6, 53360, Note_off_c, 4, 69, 64
6, 53360, Note_on_c, 4, 72, 100
6, 53440, Note_off_c, 4, 72, 64
6, 53440, Note_on_c, 4, 67, 100
6, 53520, Note_off_c, 4, 67, 64
6, 53520, Note_on_c, 4, 79, 100
6, 53600, Note_off_c, 4, 79, 64
6, 53600, Note_on_c, 4, 77, 100
6, 53680, Note_off_c, 4, 77, 64
6, 53680, Note_on_c, 4, 72, 100
6, 53760, Note_off_c, 4, 72, 64
6, 53760, Note_on_c, 4, 69, 100
6, 53993, Note_off_c, 4, 69, 64
6, 54440, Note_on_c, 4, 75, 100
6, 54480, Note_off_c, 4, 75, 64
6, 54480, Note_on_c, 4, 81, 100
6, 54480, Note_on_c, 4, 76, 100
6, 54480, Note_on_c, 4, 69, 100
6, 55680, Note_on_c, 4, 79, 100
6, 55680, Note_on_c, 4, 74, 100
6, 55680, Note_on_c, 4, 67, 100
6, 55687, Note_off_c, 4, 69, 64
6, 55687, Note_off_c, 4, 76, 64
6, 55687, Note_off_c, 4, 81, 64
6, 55920, Note_off_c, 4, 79, 64
6, 55920, Note_off_c, 4, 74, 64
6, 55920, Note_off_c, 4, 67, 64
6, 55920, Note_on_c, 4, 78, 100
6, 55920, Note_on_c, 4, 74, 100
6, 55920, Note_on_c, 4, 66, 100
6, 56160, Note_off_c, 4, 66, 64
6, 56160, Note_off_c, 4, 74, 64
6, 56160, Note_off_c, 4, 78, 64
6, 56160, Note_on_c, 4, 81, 100
6, 56160, Note_on_c, 4, 74, 100
6, 56160, Note_on_c, 4, 69, 100
6, 57353, Note_off_c, 4, 69, 64
6, 57353, Note_off_c, 4, 74, 64
6, 57353, Note_off_c, 4, 81, 64
6, 57360, Note_on_c, 4, 84, 100
6, 57360, Note_on_c, 4, 77, 100
6, 57360, Note_on_c, 4, 72, 100
6, 58080, Note_off_c, 4, 72, 64
6, 58080, Note_off_c, 4, 77, 64
6, 58080, Note_off_c, 4, 84, 64
6, 58080, Note_on_c, 4, 84, 100
6, 58080, Note_on_c, 4, 76, 100
6, 58080, Note_on_c, 4, 72, 100
6, 58793, Note_off_c, 4, 72, 64
6, 58793, Note_off_c, 4, 76, 64
6, 58793, Note_off_c, 4, 84, 64
6, 58800, Note_on_c, 4, 84, 100
6, 58800, Note_on_c, 4, 77, 100
6, 58800, Note_on_c, 4, 72, 100
6, 59520, Note_on_c, 4, 84, 100
6, 59520, Note_on_c, 4, 79, 100
6, 59520, Note_on_c, 4, 72, 100
6, 59527, Note_off_c, 4, 72, 64
6, 59527, Note_off_c, 4, 77, 64
6, 59527, Note_off_c, 4, 84, 64
6, 59760, Note_off_c, 4, 84, 64
6, 59760, Note_off_c, 4, 79, 64
6, 59760, Note_off_c, 4, 72, 64
6, 59760, Note_on_c, 4, 79, 100
6, 59760, Note_on_c, 4, 74, 100
6, 59760, Note_on_c, 4, 67, 100
6, 59877, Note_off_c, 4, 67, 64
6, 59877, Note_off_c, 4, 74, 64
6, 59877, Note_off_c, 4, 79, 64
6, 59880, Note_on_c, 4, 72, 80
6, 59910, Note_off_c, 4, 72, 64
6, 59910, Note_on_c, 4, 71, 80
6, 59940, Note_off_c, 4, 71, 64
6, 59940, Note_on_c, 4, 69, 80
6, 59970, Note_off_c, 4, 69, 64
6, 59970, Note_on_c, 4, 67, 80
6, 60000, Note_off_c, 4, 67, 64
6, 60000, Note_on_c, 4, 65, 80
6, 60030, Note_off_c, 4, 65, 64
6, 60030, Note_on_c, 4, 64, 80
6, 60060, Note_off_c, 4, 64, 64
6, 60060, Note_on_c, 4, 62, 80
6, 60090, Note_off_c, 4, 62, 64
6, 60090, Note_on_c, 4, 60, 80
6, 60120, Note_off_c, 4, 60, 64
6, 60120, Note_on_c, 4, 59, 80
6, 60150, Note_off_c, 4, 59, 64
6, 60150, Note_on_c, 4, 57, 80
6, 60180, Note_off_c, 4, 57, 64
6, 60487, Note_on_c, 4, 69, 100
6, 60727, Note_off_c, 4, 69, 64
6, 60727, Note_on_c, 4, 74, 100
6, 60967, Note_off_c, 4, 74, 64
6, 61200, Note_on_c, 4, 79, 100
6, 61440, Note_off_c, 4, 79, 64
6, 61680, Note_on_c, 4, 78, 100
6, 61800, Note_off_c, 4, 78, 64
6, 61800, Note_on_c, 4, 74, 100
6, 61920, Note_on_c, 4, 72, 100
6, 61930, Note_off_c, 4, 74, 64
6, 62400, Note_off_c, 4, 72, 64
6, 62400, Note_on_c, 4, 74, 100
6, 62640, Note_off_c, 4, 74, 64
6, 62640, Note_on_c, 4, 69, 100
6, 63120, Note_off_c, 4, 69, 64
6, 63120, Note_on_c, 4, 72, 100
6, 63360, Note_off_c, 4, 72, 64
6, 63360, Note_on_c, 4, 67, 100
6, 63840, Note_off_c, 4, 67, 64
6, 63840, Note_on_c, 4, 64, 100
6, 63960, Note_off_c, 4, 64, 64
6, 63960, Note_on_c, 4, 65, 100
6, 64080, Note_off_c, 4, 65, 64
6, 64080, Note_on_c, 4, 66, 100
6, 64560, Note_off_c, 4, 66, 64
6, 64560, Note_on_c, 4, 67, 100
6, 64800, Note_off_c, 4, 67, 64
6, 64800, Note_on_c, 4, 68, 100
6, 65040, Note_off_c, 4, 68, 64
6, 65040, Note_on_c, 4, 69, 100
6, 65280, Note_off_c, 4, 69, 64
6, 65280, Note_on_c, 4, 81, 100
6, 65513, Note_off_c, 4, 81, 64
6, 65520, Note_on_c, 4, 79, 100
6, 66240, Note_on_c, 4, 72, 100
6, 66247, Note_off_c, 4, 79, 64
6, 66480, Note_off_c, 4, 72, 64
6, 66480, Note_on_c, 4, 67, 100
6, 67207, Note_off_c, 4, 67, 64
6, 67207, Note_on_c, 4, 69, 100
6, 67447, Note_off_c, 4, 69, 64
6, 67447, Note_on_c, 4, 74, 100
6, 67687, Note_off_c, 4, 74, 64
6, 67920, Note_on_c, 4, 79, 100
6, 68160, Note_off_c, 4, 79, 64
6, 68400, Note_on_c, 4, 78, 100
6, 68520, Note_off_c, 4, 78, 64
6, 68520, Note_on_c, 4, 74, 100
6, 68640, Note_on_c, 4, 72, 100
6, 68650, Note_off_c, 4, 74, 64
6, 69120, Note_off_c, 4, 72, 64
6, 69120, Note_on_c, 4, 74, 100
6, 69120, Note_on_c, 4, 81, 100
6, 69120, Note_on_c, 4, 69, 100
6, 69360, Note_off_c, 4, 69, 64
6, 69360, Note_off_c, 4, 81, 64
6, 69360, Note_off_c, 4, 74, 64
6, 69360, Note_on_c, 4, 74, 100
6, 69360, Note_on_c, 4, 81, 100
6, 69360, Note_on_c, 4, 69, 100
6, 69840, Note_off_c, 4, 69, 64
6, 69840, Note_off_c, 4, 81, 64
6, 69840, Note_off_c, 4, 74, 64
6, 69840, Note_on_c, 4, 72, 100
6, 69840, Note_on_c, 4, 79, 100
6, 70080, Note_off_c, 4, 79, 64
6, 70080, Note_off_c, 4, 72, 64
6, 70080, Note_on_c, 4, 67, 100
6, 70080, Note_on_c, 4, 74, 100
6, 70560, Note_off_c, 4, 74, 64
6, 70560, Note_off_c, 4, 67, 64
6, 70560, Note_on_c, 4, 64, 100
6, 70680, Note_off_c, 4, 64, 64
6, 70680, Note_on_c, 4, 65, 100
6, 70800, Note_off_c, 4, 65, 64
6, 70800, Note_on_c, 4, 66, 100
6, 71280, Note_off_c, 4, 66, 64
6, 71280, Note_on_c, 4, 67, 100
6, 71520, Note_off_c, 4, 67, 64
6, 71520, Note_on_c, 4, 68, 100
6, 71760, Note_off_c, 4, 68, 64
6, 71760, Note_on_c, 4, 69, 100
6, 72000, Note_off_c, 4, 69, 64
6, 72000, Note_on_c, 4, 86, 100
6, 72000, Note_on_c, 4, 81, 100
6, 72000, Note_on_c, 4, 74, 100
6, 72240, Note_off_c, 4, 74, 64
6, 72240, Note_off_c, 4, 81, 64
6, 72240, Note_off_c, 4, 86, 64
6, 72240, Note_on_c, 4, 84, 100
6, 72240, Note_on_c, 4, 79, 100
6, 72240, Note_on_c, 4, 72, 100
6, 72960, Note_off_c, 4, 72, 64
6, 72960, Note_off_c, 4, 79, 64
6, 72960, Note_off_c, 4, 84, 64
6, 72960, Note_on_c, 4, 84, 100
6, 72960, Note_on_c, 4, 79, 100
6, 72960, Note_on_c, 4, 72, 100
6, 73200, Note_off_c, 4, 72, 64
6, 73200, Note_off_c, 4, 79, 64
6, 73200, Note_off_c, 4, 84, 64
6, 73200, Note_on_c, 4, 74, 100
6, 73200, Note_on_c, 4, 81, 100
6, 73200, Note_on_c, 4, 86, 100
6, 73920, Note_off_c, 4, 86, 64
6, 73920, Note_off_c, 4, 81, 64
6, 73920, Note_off_c, 4, 74, 64
6, 73920, Note_on_c, 4, 67, 100
6, 74160, Note_off_c, 4, 67, 64
6, 74160, Note_on_c, 4, 68, 100
6, 74400, Note_off_c, 4, 68, 64
6, 74400, Note_on_c, 4, 69, 100
6, 74640, Note_off_c, 4, 69, 64
6, 74640, Note_on_c, 4, 77, 100
6, 74640, Note_on_c, 4, 72, 100
6, 75120, Note_off_c, 4, 72, 64
6, 75120, Note_off_c, 4, 77, 64
6, 75120, Note_on_c, 4, 74, 100
6, 75240, Note_off_c, 4, 74, 64
6, 75240, Note_on_c, 4, 72, 100
6, 75360, Note_off_c, 4, 72, 64
6, 75360, Note_on_c, 4, 69, 100
6, 75600, Note_off_c, 4, 69, 64
6, 75600, Note_on_c, 4, 76, 100
6, 75840, Note_off_c, 4, 76, 64
6, 75840, Note_on_c, 4, 74, 100
6, 75960, Note_off_c, 4, 74, 64
6, 75960, Note_on_c, 4, 72, 100
6, 76080, Note_off_c, 4, 72, 64
6, 76080, Note_on_c, 4, 69, 100
6, 76320, Note_on_c, 4, 72, 100
6, 76327, Note_off_c, 4, 69, 64
6, 76560, Note_off_c, 4, 72, 64
6, 76560, Note_on_c, 4, 74, 100
6, 76800, Note_off_c, 4, 74, 64
6, 76800, Note_on_c, 4, 68, 100
6, 76800, Note_on_c, 4, 74, 100
6, 77040, Note_off_c, 4, 74, 64
6, 77040, Note_off_c, 4, 68, 64
6, 77040, Note_on_c, 4, 67, 100
6, 77040, Note_on_c, 4, 74, 100
6, 77520, Note_off_c, 4, 74, 64
6, 77520, Note_off_c, 4, 67, 64
6, 77520, Note_on_c, 4, 65, 100
6, 77760, Note_off_c, 4, 65, 64
6, 77760, Note_on_c, 4, 62, 100
6, 78000, Note_off_c, 4, 62, 64
6, 78000, Note_on_c, 4, 63, 100
6, 78240, Note_off_c, 4, 63, 64
6, 130310, Program_c, 4, 17
6, 130800, Note_on_c, 4, 55, 100
6, 130840, Note_off_c, 4, 55, 64
6, 130840, Note_on_c, 4, 57, 100
6, 130880, Note_off_c, 4, 57, 64
6, 130880, Note_on_c, 4, 59, 100
6, 130920, Note_off_c, 4, 59, 64
6, 130920, Note_on_c, 4, 60, 100
6, 130960, Note_off_c, 4, 60, 64
6, 130960, Note_on_c, 4, 62, 100
6, 131000, Note_off_c, 4, 62, 64
6, 131000, Note_on_c, 4, 64, 100
6, 131040, Note_off_c, 4, 64, 64
6, 131040, Note_on_c, 4, 65, 100
6, 131080, Note_off_c, 4, 65, 64
6, 131080, Note_on_c, 4, 67, 100
6, 131120, Note_off_c, 4, 67, 64
6, 131120, Note_on_c, 4, 69, 100
6, 131160, Note_off_c, 4, 69, 64
6, 131160, Note_on_c, 4, 71, 100
6, 131200, Note_off_c, 4, 71, 64
6, 131200, Note_on_c, 4, 72, 100
6, 131240, Note_off_c, 4, 72, 64
6, 131240, Note_on_c, 4, 74, 100
6, 131280, Note_off_c, 4, 74, 64
6, 131280, Note_on_c, 4, 84, 100
6, 131280, Note_on_c, 4, 81, 100
6, 131280, Note_on_c, 4, 76, 100
6, 131280, Note_on_c, 4, 57, 100
6, 132240, Note_off_c, 4, 57, 64
6, 132240, Note_off_c, 4, 76, 64
6, 132240, Note_off_c, 4, 81, 64
6, 132240, Note_off_c, 4, 84, 64
6, 132480, Note_on_c, 4, 83, 100
6, 132600, Note_off_c, 4, 83, 64
6, 132600, Note_on_c, 4, 81, 100
6, 132720, Note_off_c, 4, 81, 64
6, 132720, Note_on_c, 4, 79, 100
6, 132840, Note_off_c, 4, 79, 64
6, 132840, Note_on_c, 4, 83, 100
6, 132960, Note_off_c, 4, 83, 64
6, 132960, Note_on_c, 4, 84, 100
6, 132960, Note_on_c, 4, 81, 100
6, 132960, Note_on_c, 4, 77, 100
6, 132960, Note_on_c, 4, 53, 100
6, 133440, Note_off_c, 4, 77, 64
6, 133440, Note_off_c, 4, 81, 64
6, 133440, Note_off_c, 4, 84, 64
6, 133440, Note_on_c, 4, 83, 100
6, 133440, Note_on_c, 4, 79, 100
6, 133680, Note_off_c, 4, 79, 64
6, 133680, Note_off_c, 4, 83, 64
6, 133680, Note_on_c, 4, 81, 100
6, 133680, Note_on_c, 4, 77, 100
6, 133803, Note_off_c, 4, 53, 64
6, 133920, Note_off_c, 4, 81, 64
6, 133920, Note_off_c, 4, 77, 64
6, 133920, Note_on_c, 4, 84, 100
6, 133920, Note_on_c, 4, 79, 100
6, 133920, Note_on_c, 4, 76, 100
6, 133920, Note_on_c, 4, 60, 100
6, 134160, Note_off_c, 4, 60, 64
6, 134160, Note_off_c, 4, 76, 64
6, 134160, Note_off_c, 4, 79, 64
6, 134160, Note_off_c, 4, 84, 64
6, 134400, Note_on_c, 4, 86, 100
6, 134400, Note_on_c, 4, 79, 100
6, 134400, Note_on_c, 4, 74, 100
6, 134400, Note_on_c, 4, 55, 100
6, 134997, Note_off_c, 4, 55, 64
6, 134997, Note_off_c, 4, 74, 64
6, 134997, Note_off_c, 4, 79, 64
6, 134997, Note_off_c, 4, 86, 64
6, 135120, Note_on_c, 4, 82, 100
6, 135120, Note_on_c, 4, 77, 100
6, 135120, Note_on_c, 4, 86, 100
6, 135120, Note_on_c, 4, 58, 100
6, 136313, Note_off_c, 4, 58, 64
6, 136313, Note_off_c, 4, 86, 64
6, 136313, Note_off_c, 4, 77, 64
6, 136313, Note_off_c, 4, 82, 64
6, 136320, Note_on_c, 4, 84, 100
6, 136320, Note_on_c, 4, 77, 100
6, 136560, Note_off_c, 4, 77, 64
6, 136560, Note_off_c, 4, 84, 64
6, 136560, Note_on_c, 4, 86, 100
6, 136680, Note_off_c, 4, 86, 64
6, 136680, Note_on_c, 4, 84, 100
6, 136800, Note_off_c, 4, 84, 64
6, 136800, Note_on_c, 4, 86, 100
6, 136920, Note_off_c, 4, 86, 64
6, 136920, Note_on_c, 4, 88, 100
6, 137040, Note_off_c, 4, 88, 64
6, 137040, Note_on_c, 4, 89, 100
6, 137040, Note_on_c, 4, 84, 100
6, 137280, Note_off_c, 4, 84, 64
6, 137280, Note_off_c, 4, 89, 64
6, 137280, Note_on_c, 4, 88, 100
6, 137280, Note_on_c, 4, 84, 100
6, 137400, Note_off_c, 4, 84, 64
6, 137400, Note_off_c, 4, 88, 64
6, 137520, Note_on_c, 4, 86, 100
6, 137520, Note_on_c, 4, 77, 100
6, 137640, Note_off_c, 4, 77, 64
6, 137640, Note_off_c, 4, 86, 64
6, 137760, Note_on_c, 4, 79, 100
6, 137760, Note_on_c, 4, 72, 100
6, 137760, Note_on_c, 4, 84, 100
6, 138960, Note_on_c, 4, 57, 100
6, 138960, Note_on_c, 4, 76, 100
6, 138960, Note_on_c, 4, 81, 100
6, 138960, Note_on_c, 4, 84, 100
6, 138967, Note_off_c, 4, 84, 64
6, 138967, Note_off_c, 4, 72, 64
6, 138967, Note_off_c, 4, 79, 64
6, 139920, Note_off_c, 4, 57, 64
6, 139920, Note_off_c, 4, 76, 64
6, 139920, Note_off_c, 4, 81, 64
6, 139920, Note_off_c, 4, 84, 64
6, 140160, Note_on_c, 4, 84, 100
6, 140280, Note_off_c, 4, 84, 64
6, 140280, Note_on_c, 4, 83, 100
6, 140400, Note_off_c, 4, 83, 64
6, 140400, Note_on_c, 4, 81, 100
6, 140520, Note_off_c, 4, 81, 64
6, 140520, Note_on_c, 4, 83, 100
6, 140640, Note_off_c, 4, 83, 64
6, 140640, Note_on_c, 4, 84, 100
6, 140640, Note_on_c, 4, 81, 100
6, 140640, Note_on_c, 4, 77, 100
6, 140640, Note_on_c, 4, 53, 100
6, 141120, Note_off_c, 4, 77, 64
6, 141120, Note_off_c, 4, 81, 64
6, 141120, Note_off_c, 4, 84, 64
6, 141120, Note_on_c, 4, 83, 100
6, 141120, Note_on_c, 4, 79, 100
6, 141360, Note_off_c, 4, 79, 64
6, 141360, Note_off_c, 4, 83, 64
6, 141360, Note_on_c, 4, 81, 100
6, 141360, Note_on_c, 4, 77, 100
6, 141483, Note_off_c, 4, 53, 64
6, 141600, Note_off_c, 4, 81, 64
6, 141600, Note_off_c, 4, 77, 64
6, 141600, Note_on_c, 4, 84, 100
6, 141600, Note_on_c, 4, 79, 100
6, 141600, Note_on_c, 4, 76, 100
6, 141600, Note_on_c, 4, 60, 100
6, 141840, Note_off_c, 4, 60, 64
6, 141840, Note_off_c, 4, 76, 64
6, 141840, Note_off_c, 4, 79, 64
6, 141840, Note_off_c, 4, 84, 64
6, 142080, Note_on_c, 4, 86, 100
6, 142080, Note_on_c, 4, 79, 100
6, 142080, Note_on_c, 4, 55, 100
6, 142080, Note_on_c, 4, 83, 100
6, 142677, Note_off_c, 4, 83, 64
6, 142677, Note_off_c, 4, 55, 64
6, 142677, Note_off_c, 4, 79, 64
6, 142677, Note_off_c, 4, 86, 64
6, 142800, Note_on_c, 4, 82, 100
6, 142800, Note_on_c, 4, 86, 100
6, 142800, Note_on_c, 4, 58, 100
6, 143993, Note_off_c, 4, 58, 64
6, 143993, Note_off_c, 4, 86, 64
6, 143993, Note_off_c, 4, 82, 64
6, 144000, Note_on_c, 4, 84, 100
6, 144000, Note_on_c, 4, 77, 100
6, 144240, Note_off_c, 4, 77, 64
6, 144240, Note_off_c, 4, 84, 64
6, 144240, Note_on_c, 4, 86, 100
6, 144360, Note_off_c, 4, 86, 64
6, 144360, Note_on_c, 4, 84, 100
6, 144480, Note_off_c, 4, 84, 64
6, 144480, Note_on_c, 4, 86, 100
6, 144600, Note_off_c, 4, 86, 64
6, 144600, Note_on_c, 4, 88, 100
6, 144720, Note_off_c, 4, 88, 64
6, 144720, Note_on_c, 4, 89, 100
6, 144720, Note_on_c, 4, 84, 100
6, 144960, Note_off_c, 4, 84, 64
6, 144960, Note_off_c, 4, 89, 64
6, 144960, Note_on_c, 4, 88, 100
6, 144960, Note_on_c, 4, 84, 100
6, 145080, Note_off_c, 4, 84, 64
6, 145080, Note_off_c, 4, 88, 64
6, 145200, Note_on_c, 4, 86, 100
6, 145200, Note_on_c, 4, 77, 100
6, 145320, Note_off_c, 4, 77, 64
6, 145320, Note_off_c, 4, 86, 64
6, 145440, Note_on_c, 4, 84, 100
6, 145440, Note_on_c, 4, 79, 100
6, 145440, Note_on_c, 4, 72, 100
6, 146517, Note_off_c, 4, 72, 64
6, 146517, Note_off_c, 4, 79, 64
6, 146517, Note_off_c, 4, 84, 64
6, 146520, Note_on_c, 4, 71, 75
6, 146550, Note_off_c, 4, 71, 64
6, 146550, Note_on_c, 4, 69, 75
6, 146580, Note_off_c, 4, 69, 64
6, 146580, Note_on_c, 4, 67, 75
6, 146610, Note_off_c, 4, 67, 64
6, 146610, Note_on_c, 4, 65, 75
6, 146640, Note_off_c, 4, 65, 64
6, 146640, End_track
7, 0, Start_track
7, 0, Title_t, "Piano"
7, 0, MIDI_port, 0
7, 0, Channel_prefix, 5
7, 0, Control_c, 5, 7, 104
7, 0, Program_c, 5, 0
7, 78240, Note_on_c, 5, 83, 100
7, 78240, Note_on_c, 5, 80, 100
7, 78240, Note_on_c, 5, 76, 100
7, 78240, Note_on_c, 5, 52, 100
7, 78240, Note_on_c, 5, 40, 100
7, 78240, Note_on_c, 5, 71, 100
7, 79200, Note_off_c, 5, 76, 64
7, 79200, Note_off_c, 5, 80, 64
7, 79200, Note_off_c, 5, 83, 64
7, 79200, Note_on_c, 5, 83, 80
7, 79200, Note_on_c, 5, 80, 80
7, 79200, Note_on_c, 5, 76, 80
7, 81353, Note_off_c, 5, 76, 64
7, 81353, Note_off_c, 5, 80, 64
7, 81353, Note_off_c, 5, 52, 64
7, 81353, Note_off_c, 5, 40, 64
7, 81353, Note_off_c, 5, 71, 64
7, 81353, Note_off_c, 5, 83, 64
7, 81360, Note_on_c, 5, 54, 100
7, 81360, Note_on_c, 5, 78, 100
7, 81360, Note_on_c, 5, 74, 100
7, 81360, Note_on_c, 5, 69, 100
7, 81360, Note_on_c, 5, 42, 100
7, 81840, Note_off_c, 5, 42, 64
7, 81840, Note_off_c, 5, 69, 64
7, 81840, Note_off_c, 5, 74, 64
7, 81840, Note_off_c, 5, 78, 64
7, 81840, Note_off_c, 5, 54, 64
7, 81840, Note_on_c, 5, 79, 100
7, 81840, Note_on_c, 5, 74, 100
7, 81840, Note_on_c, 5, 71, 100
7, 81840, Note_on_c, 5, 55, 100
7, 81840, Note_on_c, 5, 43, 100
7, 82800, Note_off_c, 5, 43, 64
7, 82800, Note_off_c, 5, 55, 64
7, 82800, Note_off_c, 5, 71, 64
7, 82800, Note_off_c, 5, 74, 64
7, 82800, Note_off_c, 5, 79, 64
7, 82800, Note_on_c, 5, 78, 100
7, 82800, Note_on_c, 5, 74, 100
7, 82800, Note_on_c, 5, 69, 100
7, 82800, Note_on_c, 5, 54, 100
7, 82800, Note_on_c, 5, 42, 100
7, 84720, Note_off_c, 5, 42, 64
7, 84720, Note_off_c, 5, 54, 64
7, 84720, Note_off_c, 5, 69, 64
7, 84720, Note_off_c, 5, 74, 64
7, 84720, Note_off_c, 5, 78, 64
7, 84720, Note_on_c, 5, 81, 100
7, 84720, Note_on_c, 5, 76, 100
7, 84720, Note_on_c, 5, 71, 100
7, 84720, Note_on_c, 5, 57, 100
7, 84720, Note_on_c, 5, 45, 100
7, 85440, Note_on_c, 5, 71, 100
7, 85440, Note_on_c, 5, 40, 100
7, 85440, Note_on_c, 5, 52, 100
7, 85440, Note_on_c, 5, 76, 100
7, 85440, Note_on_c, 5, 80, 100
7, 85440, Note_on_c, 5, 83, 100
7, 85447, Note_off_c, 5, 45, 64
7, 85447, Note_off_c, 5, 57, 64
7, 85447, Note_off_c, 5, 71, 64
7, 85447, Note_off_c, 5, 76, 64
7, 85447, Note_off_c, 5, 81, 64
7, 86400, Note_off_c, 5, 76, 64
7, 86400, Note_off_c, 5, 80, 64
7, 86400, Note_off_c, 5, 83, 64
7, 86400, Note_on_c, 5, 83, 80
7, 86400, Note_on_c, 5, 80, 80
7, 86400, Note_on_c, 5, 76, 80
7, 88553, Note_off_c, 5, 76, 64
7, 88553, Note_off_c, 5, 80, 64
7, 88553, Note_off_c, 5, 71, 64
7, 88553, Note_off_c, 5, 40, 64
7, 88553, Note_off_c, 5, 52, 64
7, 88553, Note_off_c, 5, 83, 64
7, 88560, Note_on_c, 5, 54, 100
7, 88560, Note_on_c, 5, 78, 100
7, 88560, Note_on_c, 5, 74, 100
7, 88560, Note_on_c, 5, 69, 100
7, 88560, Note_on_c, 5, 42, 100
7, 89040, Note_off_c, 5, 42, 64
7, 89040, Note_off_c, 5, 69, 64
7, 89040, Note_off_c, 5, 74, 64
7, 89040, Note_off_c, 5, 78, 64
7, 89040, Note_off_c, 5, 54, 64
7, 89040, Note_on_c, 5, 79, 100
7, 89040, Note_on_c, 5, 74, 100
7, 89040, Note_on_c, 5, 71, 100
7, 89040, Note_on_c, 5, 55, 100
7, 89040, Note_on_c, 5, 43, 100
7, 90247, Note_off_c, 5, 43, 64
7, 90247, Note_off_c, 5, 55, 64
7, 90247, Note_off_c, 5, 71, 64
7, 90247, Note_off_c, 5, 74, 64
7, 90247, Note_off_c, 5, 79, 64
7, 90247, Note_on_c, 5, 78, 100
7, 90247, Note_on_c, 5, 74, 100
7, 90247, Note_on_c, 5, 69, 100
7, 90247, Note_on_c, 5, 54, 100
7, 90247, Note_on_c, 5, 42, 100
7, 91920, Note_off_c, 5, 42, 64
7, 91920, Note_off_c, 5, 54, 64
7, 91920, Note_off_c, 5, 69, 64
7, 91920, Note_off_c, 5, 74, 64
7, 91920, Note_off_c, 5, 78, 64
7, 91920, Note_on_c, 5, 45, 100
7, 91920, Note_on_c, 5, 57, 100
7, 91920, Note_on_c, 5, 71, 100
7, 91920, Note_on_c, 5, 76, 100
7, 91920, Note_on_c, 5, 81, 100
7, 92640, Control_c, 5, 64, 127
7, 92640, Note_on_c, 5, 40, 100
7, 92640, Note_on_c, 5, 52, 100
7, 92640, Note_on_c, 5, 64, 100
7, 92647, Note_off_c, 5, 81, 64
7, 92647, Note_off_c, 5, 76, 64
7, 92647, Note_off_c, 5, 71, 64
7, 92647, Note_off_c, 5, 57, 64
7, 92647, Note_off_c, 5, 45, 64
7, 93600, Note_off_c, 5, 40, 64
7, 93600, Note_off_c, 5, 52, 64
7, 93600, Note_off_c, 5, 64, 64
7, 93840, Note_on_c, 5, 66, 90
7, 94080, Note_off_c, 5, 66, 64
7, 94080, Note_on_c, 5, 68, 90
7, 94310, Control_c, 5, 64, 0
7, 94320, Note_off_c, 5, 68, 64
7, 94320, Note_on_c, 5, 69, 100
7, 94320, Control_c, 5, 64, 127
7, 94320, Note_on_c, 5, 45, 85
7, 94320, Note_on_c, 5, 64, 85
7, 94320, Note_on_c, 5, 57, 85
7, 94800, Note_off_c, 5, 57, 64
7, 94800, Note_off_c, 5, 64, 64
7, 94800, Note_off_c, 5, 45, 64
7, 94800, Note_off_c, 5, 69, 64
7, 94800, Note_on_c, 5, 71, 100
7, 95040, Note_off_c, 5, 71, 64
7, 95040, Note_on_c, 5, 73, 100
7, 95270, Control_c, 5, 64, 0
7, 95280, Note_off_c, 5, 73, 64
7, 95280, Note_on_c, 5, 74, 100
7, 95280, Note_on_c, 5, 64, 92
7, 95280, Note_on_c, 5, 57, 80
7, 95280, Control_c, 5, 64, 127
7, 95760, Note_off_c, 5, 57, 64
7, 95760, Note_off_c, 5, 64, 64
7, 95760, Note_off_c, 5, 74, 64
7, 95760, Note_on_c, 5, 73, 100
7, 96000, Note_off_c, 5, 73, 64
7, 96000, Note_on_c, 5, 69, 100
7, 96480, Note_off_c, 5, 69, 64
7, 96480, Note_on_c, 5, 71, 100
7, 96480, Note_on_c, 5, 57, 100
7, 96720, Note_off_c, 5, 57, 64
7, 96720, Note_off_c, 5, 71, 64
7, 96720, Note_on_c, 5, 76, 100
7, 96960, Note_off_c, 5, 76, 64
7, 96960, Note_on_c, 5, 74, 100
7, 97190, Control_c, 5, 64, 0
7, 97200, Note_off_c, 5, 74, 64
7, 97200, Note_on_c, 5, 73, 90
7, 97200, Note_on_c, 5, 62, 90
7, 97200, Note_on_c, 5, 57, 90
7, 97200, Control_c, 5, 64, 127
7, 97680, Note_off_c, 5, 57, 64
7, 97680, Note_off_c, 5, 62, 64
7, 97680, Note_off_c, 5, 73, 64
7, 97680, Note_on_c, 5, 71, 100
7, 97680, Note_on_c, 5, 52, 80
7, 97920, Note_off_c, 5, 52, 64
7, 97920, Note_off_c, 5, 71, 64
7, 97920, Note_on_c, 5, 69, 100
7, 98160, Note_off_c, 5, 69, 64
7, 98160, Note_on_c, 5, 64, 100
7, 98400, Note_off_c, 5, 64, 64
7, 98400, Note_on_c, 5, 66, 80
7, 98400, Note_on_c, 5, 57, 80
7, 98400, Note_on_c, 5, 50, 80
7, 98640, Note_off_c, 5, 50, 64
7, 98640, Note_off_c, 5, 57, 64
7, 98640, Note_off_c, 5, 66, 64
7, 98640, Note_on_c, 5, 71, 80
7, 98880, Note_off_c, 5, 71, 64
7, 98880, Note_on_c, 5, 69, 80
7, 99110, Control_c, 5, 64, 0
7, 99120, Note_off_c, 5, 69, 64
7, 99120, Note_on_c, 5, 68, 85
7, 99120, Note_on_c, 5, 52, 85
7, 99120, Note_on_c, 5, 40, 85
7, 99120, Control_c, 5, 64, 127
7, 99360, Note_off_c, 5, 40, 64
7, 99360, Note_off_c, 5, 52, 64
7, 99360, Note_off_c, 5, 68, 64
7, 99420, Note_on_c, 5, 59, 80
7, 99480, Note_off_c, 5, 59, 64
7, 99480, Note_on_c, 5, 64, 80
7, 99540, Note_off_c, 5, 64, 64
7, 99540, Note_on_c, 5, 66, 80
7, 99600, Note_off_c, 5, 66, 64
7, 99600, Note_on_c, 5, 68, 80
7, 99660, Note_off_c, 5, 68, 64
7, 99660, Note_on_c, 5, 71, 80
7, 99720, Note_off_c, 5, 71, 64
7, 99720, Note_on_c, 5, 76, 80
7, 99780, Note_off_c, 5, 76, 64
7, 99780, Note_on_c, 5, 78, 80
7, 99840, Note_off_c, 5, 78, 64
7, 99840, Note_on_c, 5, 80, 80
7, 99895, Note_on_c, 5, 83, 80
7, 99900, Note_off_c, 5, 80, 64
7, 99955, Note_off_c, 5, 83, 64
7, 99960, Note_on_c, 5, 88, 80
7, 100020, Note_off_c, 5, 88, 64
7, 100020, Note_on_c, 5, 90, 80
7, 100080, Note_off_c, 5, 90, 64
7, 100080, Note_on_c, 5, 92, 80
7, 100140, Note_off_c, 5, 92, 64
7, 100140, Note_on_c, 5, 95, 80
7, 100200, Note_off_c, 5, 95, 64
7, 100200, Note_on_c, 5, 100, 80
7, 100260, Note_off_c, 5, 100, 64
7, 100260, Note_on_c, 5, 102, 80
7, 100320, Note_off_c, 5, 102, 64
7, 100320, Note_on_c, 5, 104, 100
7, 100320, Note_on_c, 5, 40, 100
7, 100320, Note_on_c, 5, 28, 100
7, 101033, Note_off_c, 5, 28, 64
7, 101033, Note_off_c, 5, 40, 64
7, 101040, Note_on_c, 5, 59, 100
7, 101160, Note_off_c, 5, 59, 64
7, 101280, Note_on_c, 5, 64, 100
7, 101400, Note_off_c, 5, 104, 64
7, 101400, Note_off_c, 5, 64, 64
7, 101520, Note_on_c, 5, 81, 100
7, 101520, Note_on_c, 5, 69, 100
7, 101520, Note_on_c, 5, 76, 100
7, 101760, Note_off_c, 5, 76, 64
7, 101760, Note_off_c, 5, 81, 64
7, 101760, Note_on_c, 5, 83, 100
7, 101760, Note_on_c, 5, 76, 100
7, 101760, Note_on_c, 5, 71, 100
7, 101767, Note_off_c, 5, 69, 64
7, 101990, Control_c, 5, 64, 0
7, 102000, Note_off_c, 5, 83, 64
7, 102000, Note_off_c, 5, 76, 64
7, 102000, Note_off_c, 5, 71, 64
7, 102000, Note_on_c, 5, 85, 100
7, 102000, Note_on_c, 5, 81, 100
7, 102000, Note_on_c, 5, 76, 100
7, 102000, Note_on_c, 5, 73, 100
7, 102000, Control_c, 5, 64, 127
7, 102000, Note_on_c, 5, 57, 100
7, 102000, Note_on_c, 5, 49, 100
7, 102480, Note_off_c, 5, 49, 64
7, 102480, Note_off_c, 5, 57, 64
7, 102480, Note_off_c, 5, 73, 64
7, 102480, Note_off_c, 5, 76, 64
7, 102480, Note_off_c, 5, 81, 64
7, 102480, Note_off_c, 5, 85, 64
7, 102480, Note_on_c, 5, 81, 100
7, 102480, Note_on_c, 5, 74, 100
7, 102484, Note_on_c, 5, 86, 100
7, 102720, Note_off_c, 5, 74, 64
7, 102720, Note_off_c, 5, 81, 64
7, 102720, Note_on_c, 5, 88, 100
7, 102720, Note_on_c, 5, 83, 100
7, 102720, Note_on_c, 5, 76, 100
7, 102724, Note_off_c, 5, 86, 64
7, 102950, Control_c, 5, 64, 0
7, 102960, Note_off_c, 5, 88, 64
7, 102960, Note_off_c, 5, 83, 64
7, 102960, Note_off_c, 5, 76, 64
7, 102960, Note_on_c, 5, 90, 100
7, 102960, Note_on_c, 5, 78, 100
7, 102960, Note_on_c, 5, 62, 100
7, 102960, Control_c, 5, 64, 127
7, 102960, Note_on_c, 5, 57, 100
7, 102960, Note_on_c, 5, 50, 100
7, 103440, Note_off_c, 5, 50, 64
7, 103440, Note_off_c, 5, 57, 64
7, 103440, Note_off_c, 5, 62, 64
7, 103440, Note_off_c, 5, 78, 64
7, 103440, Note_off_c, 5, 90, 64
7, 103440, Note_on_c, 5, 88, 100
7, 103440, Note_on_c, 5, 76, 100
7, 103440, Note_on_c, 5, 57, 100
7, 103680, Note_off_c, 5, 57, 64
7, 103680, Note_off_c, 5, 76, 64
7, 103680, Note_off_c, 5, 88, 64
7, 103680, Note_on_c, 5, 86, 100
7, 103680, Note_on_c, 5, 74, 100
7, 103680, Note_on_c, 5, 59, 100
7, 103920, Note_off_c, 5, 59, 64
7, 103920, Note_off_c, 5, 74, 64
7, 103920, Note_off_c, 5, 86, 64
7, 104160, Note_on_c, 5, 83, 100
7, 104160, Note_on_c, 5, 31, 100
7, 104160, Note_on_c, 5, 43, 100
7, 104400, Note_off_c, 5, 43, 64
7, 104400, Note_off_c, 5, 31, 64
7, 104400, Note_off_c, 5, 83, 64
7, 104400, Note_on_c, 5, 81, 100
7, 104400, Note_on_c, 5, 45, 100
7, 104400, Note_on_c, 5, 33, 100
7, 104640, Note_off_c, 5, 33, 64
7, 104640, Note_off_c, 5, 45, 64
7, 104640, Note_off_c, 5, 81, 64
7, 104640, Note_on_c, 5, 79, 100
7, 104640, Note_on_c, 5, 47, 100
7, 104640, Note_on_c, 5, 35, 100
7, 104870, Control_c, 5, 64, 0
7, 104880, Note_off_c, 5, 35, 64
7, 104880, Note_off_c, 5, 47, 64
7, 104880, Note_off_c, 5, 79, 64
7, 104880, Note_on_c, 5, 88, 100
7, 104880, Note_on_c, 5, 84, 100
7, 104880, Note_on_c, 5, 76, 100
7, 104880, Note_on_c, 5, 79, 100
7, 104880, Note_on_c, 5, 48, 100
7, 104880, Note_on_c, 5, 36, 100
7, 104880, Control_c, 5, 64, 127
7, 105360, Note_off_c, 5, 79, 64
7, 105360, Note_off_c, 5, 76, 64
7, 105360, Note_off_c, 5, 84, 64
7, 105360, Note_off_c, 5, 88, 64
7, 105360, Note_on_c, 5, 86, 100
7, 105360, Note_on_c, 5, 74, 100
7, 105600, Note_off_c, 5, 74, 64
7, 105600, Note_off_c, 5, 86, 64
7, 105600, Note_on_c, 5, 84, 100
7, 105600, Note_on_c, 5, 72, 100
7, 105840, Note_off_c, 5, 72, 64
7, 105840, Note_off_c, 5, 84, 64
7, 105840, Note_on_c, 5, 83, 100
7, 105840, Note_on_c, 5, 71, 100
7, 106080, Note_off_c, 5, 71, 64
7, 106080, Note_off_c, 5, 83, 64
7, 106080, Note_on_c, 5, 41, 100
7, 106080, Note_on_c, 5, 29, 100
7, 106080, Note_on_c, 5, 81, 85
7, 106080, Note_on_c, 5, 77, 85
7, 106080, Note_on_c, 5, 72, 85
7, 106080, Note_on_c, 5, 69, 85
7, 106087, Note_off_c, 5, 48, 64
7, 106087, Note_off_c, 5, 36, 64
7, 106320, Note_off_c, 5, 81, 64
7, 106320, Note_off_c, 5, 77, 64
7, 106320, Note_off_c, 5, 72, 64
7, 106320, Note_off_c, 5, 69, 64
7, 106320, Note_on_c, 5, 79, 100
7, 106320, Note_on_c, 5, 67, 100
7, 106560, Note_off_c, 5, 67, 64
7, 106560, Note_off_c, 5, 41, 64
7, 106560, Note_off_c, 5, 29, 64
7, 106560, Note_off_c, 5, 79, 64
7, 106560, Note_on_c, 5, 77, 100
7, 106560, Note_on_c, 5, 43, 100
7, 106560, Note_on_c, 5, 65, 100
7, 106560, Note_on_c, 5, 31, 100
7, 106800, Note_off_c, 5, 31, 64
7, 106800, Note_off_c, 5, 65, 64
7, 106800, Note_off_c, 5, 43, 64
7, 106800, Note_off_c, 5, 77, 64
7, 106800, Note_on_c, 5, 76, 100
7, 106800, Note_on_c, 5, 45, 100
7, 106800, Note_on_c, 5, 64, 100
7, 106800, Note_on_c, 5, 33, 100
7, 107030, Control_c, 5, 64, 0
7, 107040, Note_off_c, 5, 33, 64
7, 107040, Note_off_c, 5, 64, 64
7, 107040, Note_off_c, 5, 45, 64
7, 107040, Note_off_c, 5, 76, 64
7, 107040, Note_on_c, 5, 75, 100
7, 107040, Note_on_c, 5, 47, 100
7, 107040, Note_on_c, 5, 63, 100
7, 107040, Note_on_c, 5, 35, 100
7, 107040, Control_c, 5, 64, 127
7, 108000, Note_off_c, 5, 35, 64
7, 108000, Note_off_c, 5, 63, 64
7, 108000, Note_off_c, 5, 47, 64
7, 108000, Note_off_c, 5, 75, 64
7, 220080, Note_on_c, 5, 83, 83
7, 220080, Note_on_c, 5, 71, 75
7, 220200, Note_off_c, 5, 71, 64
7, 220200, Note_off_c, 5, 83, 64
7, 221040, Note_on_c, 5, 81, 83
7, 221040, Note_on_c, 5, 69, 83
7, 221160, Note_off_c, 5, 69, 64
7, 221160, Note_off_c, 5, 81, 64
7, 312000, Note_on_c, 5, 40, 80
7, 312000, Note_on_c, 5, 59, 80
7, 312000, Note_on_c, 5, 64, 80
7, 312000, Note_on_c, 5, 68, 80
7, 313673, Note_off_c, 5, 68, 64
7, 313673, Note_off_c, 5, 64, 64
7, 313673, Note_off_c, 5, 59, 64
7, 313673, Note_off_c, 5, 40, 64
7, 313680, Note_on_c, 5, 61, 80
7, 313680, Note_on_c, 5, 64, 80
7, 313680, Note_on_c, 5, 57, 80
7, 313680, Note_on_c, 5, 45, 80
7, 314640, Note_off_c, 5, 45, 64
7, 314640, Note_off_c, 5, 57, 64
7, 314640, Note_off_c, 5, 64, 64
7, 314640, Note_off_c, 5, 61, 64
7, 314640, Note_on_c, 5, 66, 80
7, 314640, Note_on_c, 5, 42, 80
7, 314640, Note_on_c, 5, 57, 80
7, 314640, Note_on_c, 5, 62, 80
7, 315840, Note_on_c, 5, 44, 80
7, 315840, Note_on_c, 5, 64, 80
7, 315840, Note_on_c, 5, 59, 80
7, 315840, Note_on_c, 5, 68, 80
7, 315847, Note_off_c, 5, 62, 64
7, 315847, Note_off_c, 5, 57, 64
7, 315847, Note_off_c, 5, 42, 64
7, 315847, Note_off_c, 5, 66, 64
7, 316553, Note_off_c, 5, 44, 64
7, 316553, Note_off_c, 5, 64, 64
7, 316553, Note_off_c, 5, 59, 64
7, 316553, Note_off_c, 5, 68, 64
7, 316560, Note_on_c, 5, 57, 80
7, 316560, Note_on_c, 5, 64, 80
7, 316560, Note_on_c, 5, 69, 80
7, 316560, Note_on_c, 5, 45, 80
7, 316560, Note_on_c, 5, 61, 80
7, 317760, Note_on_c, 5, 62, 80
7, 317760, Note_on_c, 5, 66, 80
7, 317760, Note_on_c, 5, 69, 80
7, 317760, Note_on_c, 5, 38, 80
7, 317767, Note_off_c, 5, 61, 64
7, 317767, Note_off_c, 5, 45, 64
7, 317767, Note_off_c, 5, 69, 64
7, 317767, Note_off_c, 5, 64, 64
7, 317767, Note_off_c, 5, 57, 64
7, 318480, Note_off_c, 5, 62, 64
7, 318480, Note_off_c, 5, 66, 64
7, 318480, Note_off_c, 5, 69, 64
7, 318480, Note_off_c, 5, 38, 64
7, 318480, Note_on_c, 5, 40, 80
7, 318480, Note_on_c, 5, 71, 80
7, 318480, Note_on_c, 5, 68, 80
7, 318480, Note_on_c, 5, 64, 80
7, 319680, Note_off_c, 5, 64, 64
7, 319680, Note_off_c, 5, 68, 64
7, 319680, Note_off_c, 5, 71, 64
7, 319680, Note_off_c, 5, 40, 64
7, 319680, Note_on_c, 5, 68, 80
7, 319680, Note_on_c, 5, 64, 80
7, 319680, Note_on_c, 5, 59, 80
7, 319680, Note_on_c, 5, 40, 80
7, 321353, Note_off_c, 5, 40, 64
7, 321353, Note_off_c, 5, 59, 64
7, 321353, Note_off_c, 5, 64, 64
7, 321353, Note_off_c, 5, 68, 64
7, 321360, Note_on_c, 5, 61, 80
7, 321360, Note_on_c, 5, 64, 80
7, 321360, Note_on_c, 5, 57, 80
7, 321360, Note_on_c, 5, 45, 80
7, 322320, Note_off_c, 5, 45, 64
7, 322320, Note_off_c, 5, 57, 64
7, 322320, Note_off_c, 5, 64, 64
7, 322320, Note_off_c, 5, 61, 64
7, 322320, Note_on_c, 5, 66, 80
7, 322320, Note_on_c, 5, 42, 80
7, 322320, Note_on_c, 5, 57, 80
7, 322320, Note_on_c, 5, 62, 80
7, 323520, Note_on_c, 5, 44, 80
7, 323520, Note_on_c, 5, 64, 80
7, 323520, Note_on_c, 5, 59, 80
7, 323520, Note_on_c, 5, 68, 80
7, 323527, Note_off_c, 5, 62, 64
7, 323527, Note_off_c, 5, 57, 64
7, 323527, Note_off_c, 5, 42, 64
7, 323527, Note_off_c, 5, 66, 64
7, 324233, Note_off_c, 5, 44, 64
7, 324233, Note_off_c, 5, 64, 64
7, 324233, Note_off_c, 5, 59, 64
7, 324233, Note_off_c, 5, 68, 64
7, 324240, Note_on_c, 5, 57, 80
7, 324240, Note_on_c, 5, 64, 80
7, 324240, Note_on_c, 5, 69, 80
7, 324240, Note_on_c, 5, 45, 80
7, 324240, Note_on_c, 5, 61, 80
7, 325440, Note_on_c, 5, 62, 80
7, 325440, Note_on_c, 5, 66, 80
7, 325440, Note_on_c, 5, 69, 80
7, 325440, Note_on_c, 5, 38, 80
7, 325447, Note_off_c, 5, 61, 64
7, 325447, Note_off_c, 5, 45, 64
7, 325447, Note_off_c, 5, 69, 64
7, 325447, Note_off_c, 5, 64, 64
7, 325447, Note_off_c, 5, 57, 64
7, 326160, Note_off_c, 5, 62, 64
7, 326160, Note_off_c, 5, 66, 64
7, 326160, Note_off_c, 5, 69, 64
7, 326160, Note_off_c, 5, 38, 64
7, 326160, Note_on_c, 5, 40, 80
7, 326160, Note_on_c, 5, 71, 80
7, 326160, Note_on_c, 5, 68, 80
7, 326160, Note_on_c, 5, 64, 80
7, 327360, Note_off_c, 5, 64, 64
7, 327360, Note_off_c, 5, 68, 64
7, 327360, Note_off_c, 5, 71, 64
7, 327360, Note_off_c, 5, 40, 64
7, 327360, Note_on_c, 5, 68, 80
7, 327360, Note_on_c, 5, 64, 80
7, 327360, Note_on_c, 5, 59, 80
7, 327360, Note_on_c, 5, 40, 80
7, 329033, Note_off_c, 5, 40, 64
7, 329033, Note_off_c, 5, 59, 64
7, 329033, Note_off_c, 5, 64, 64
7, 329033, Note_off_c, 5, 68, 64
7, 329040, Note_on_c, 5, 61, 80
7, 329040, Note_on_c, 5, 64, 80
7, 329040, Note_on_c, 5, 57, 80
7, 329040, Note_on_c, 5, 45, 80
7, 330000, Note_off_c, 5, 45, 64
7, 330000, Note_off_c, 5, 57, 64
7, 330000, Note_off_c, 5, 64, 64
7, 330000, Note_off_c, 5, 61, 64
7, 330000, Note_on_c, 5, 66, 80
7, 330000, Note_on_c, 5, 42, 80
7, 330000, Note_on_c, 5, 57, 80
7, 330000, Note_on_c, 5, 62, 80
7, 331200, Note_on_c, 5, 44, 80
7, 331200, Note_on_c, 5, 64, 80
7, 331200, Note_on_c, 5, 59, 80
7, 331200, Note_on_c, 5, 68, 80
7, 331207, Note_off_c, 5, 62, 64
7, 331207, Note_off_c, 5, 57, 64
7, 331207, Note_off_c, 5, 42, 64
7, 331207, Note_off_c, 5, 66, 64
7, 331913, Note_off_c, 5, 44, 64
7, 331913, Note_off_c, 5, 64, 64
7, 331913, Note_off_c, 5, 59, 64
7, 331913, Note_off_c, 5, 68, 64
7, 331920, Note_on_c, 5, 57, 80
7, 331920, Note_on_c, 5, 64, 80
7, 331920, Note_on_c, 5, 69, 80
7, 331920, Note_on_c, 5, 45, 80
7, 331920, Note_on_c, 5, 61, 80
7, 333120, Note_on_c, 5, 62, 80
7, 333120, Note_on_c, 5, 66, 80
7, 333120, Note_on_c, 5, 69, 80
7, 333120, Note_on_c, 5, 38, 80
7, 333127, Note_off_c, 5, 61, 64
7, 333127, Note_off_c, 5, 45, 64
7, 333127, Note_off_c, 5, 69, 64
7, 333127, Note_off_c, 5, 64, 64
7, 333127, Note_off_c, 5, 57, 64
7, 333840, Note_off_c, 5, 62, 64
7, 333840, Note_off_c, 5, 66, 64
7, 333840, Note_off_c, 5, 69, 64
7, 333840, Note_off_c, 5, 38, 64
7, 333840, Note_on_c, 5, 40, 80
7, 333840, Note_on_c, 5, 71, 80
7, 333840, Note_on_c, 5, 68, 80
7, 333840, Note_on_c, 5, 64, 80
7, 335040, Note_off_c, 5, 64, 64
7, 335040, Note_off_c, 5, 68, 64
7, 335040, Note_off_c, 5, 71, 64
7, 335040, Note_off_c, 5, 40, 64
7, 335040, Note_on_c, 5, 40, 80
7, 335040, Note_on_c, 5, 59, 80
7, 335040, Note_on_c, 5, 64, 80
7, 335040, Note_on_c, 5, 68, 80
7, 336713, Note_off_c, 5, 68, 64
7, 336713, Note_off_c, 5, 64, 64
7, 336713, Note_off_c, 5, 59, 64
7, 336713, Note_off_c, 5, 40, 64
7, 336720, Note_on_c, 5, 61, 80
7, 336720, Note_on_c, 5, 64, 80
7, 336720, Note_on_c, 5, 57, 80
7, 336720, Note_on_c, 5, 45, 80
7, 337680, Note_off_c, 5, 45, 64
7, 337680, Note_off_c, 5, 57, 64
7, 337680, Note_off_c, 5, 64, 64
7, 337680, Note_off_c, 5, 61, 64
7, 337680, Note_on_c, 5, 66, 80
7, 337680, Note_on_c, 5, 42, 80
7, 337680, Note_on_c, 5, 57, 80
7, 337680, Note_on_c, 5, 62, 80
7, 338880, Note_on_c, 5, 44, 80
7, 338880, Note_on_c, 5, 64, 80
7, 338880, Note_on_c, 5, 59, 80
7, 338880, Note_on_c, 5, 68, 80
7, 338887, Note_off_c, 5, 62, 64
7, 338887, Note_off_c, 5, 57, 64
7, 338887, Note_off_c, 5, 42, 64
7, 338887, Note_off_c, 5, 66, 64
7, 339593, Note_off_c, 5, 44, 64
7, 339593, Note_off_c, 5, 64, 64
7, 339593, Note_off_c, 5, 59, 64
7, 339593, Note_off_c, 5, 68, 64
7, 339600, Note_on_c, 5, 57, 80
7, 339600, Note_on_c, 5, 64, 80
7, 339600, Note_on_c, 5, 69, 80
7, 339600, Note_on_c, 5, 45, 80
7, 339600, Note_on_c, 5, 61, 80
7, 340800, Note_on_c, 5, 62, 80
7, 340800, Note_on_c, 5, 66, 80
7, 340800, Note_on_c, 5, 69, 80
7, 340800, Note_on_c, 5, 38, 80
7, 340807, Note_off_c, 5, 61, 64
7, 340807, Note_off_c, 5, 45, 64
7, 340807, Note_off_c, 5, 69, 64
7, 340807, Note_off_c, 5, 64, 64
7, 340807, Note_off_c, 5, 57, 64
7, 341520, Note_off_c, 5, 62, 64
7, 341520, Note_off_c, 5, 66, 64
7, 341520, Note_off_c, 5, 69, 64
7, 341520, Note_off_c, 5, 38, 64
7, 341520, Note_on_c, 5, 40, 80
7, 341520, Note_on_c, 5, 71, 80
7, 341520, Note_on_c, 5, 68, 80
7, 341520, Note_on_c, 5, 64, 80
7, 342720, Note_off_c, 5, 64, 64
7, 342720, Note_off_c, 5, 68, 64
7, 342720, Note_off_c, 5, 71, 64
7, 342720, Note_off_c, 5, 40, 64
7, 342720, End_track
8, 0, Start_track
8, 0, Title_t, "Strings"
8, 0, MIDI_port, 0
8, 0, Channel_prefix, 6
8, 0, Control_c, 6, 7, 69
8, 0, Program_c, 6, 48
8, 78240, Note_on_c, 6, 83, 100
8, 78240, Note_on_c, 6, 80, 100
8, 78240, Note_on_c, 6, 76, 100
8, 78240, Note_on_c, 6, 52, 100
8, 78240, Note_on_c, 6, 40, 100
8, 78240, Note_on_c, 6, 71, 100
8, 79200, Note_off_c, 6, 76, 64
8, 79200, Note_off_c, 6, 80, 64
8, 79200, Note_off_c, 6, 83, 64
8, 79200, Note_on_c, 6, 83, 80
8, 79200, Note_on_c, 6, 80, 80
8, 79200, Note_on_c, 6, 76, 80
8, 81353, Note_off_c, 6, 76, 64
8, 81353, Note_off_c, 6, 80, 64
8, 81353, Note_off_c, 6, 52, 64
8, 81353, Note_off_c, 6, 40, 64
8, 81353, Note_off_c, 6, 71, 64
8, 81353, Note_off_c, 6, 83, 64
8, 81360, Note_on_c, 6, 54, 100
8, 81360, Note_on_c, 6, 78, 100
8, 81360, Note_on_c, 6, 74, 100
8, 81360, Note_on_c, 6, 69, 100
8, 81360, Note_on_c, 6, 42, 100
8, 81840, Note_off_c, 6, 42, 64
8, 81840, Note_off_c, 6, 69, 64
8, 81840, Note_off_c, 6, 74, 64
8, 81840, Note_off_c, 6, 78, 64
8, 81840, Note_off_c, 6, 54, 64
8, 81840, Note_on_c, 6, 79, 100
8, 81840, Note_on_c, 6, 74, 100
8, 81840, Note_on_c, 6, 71, 100
8, 81840, Note_on_c, 6, 55, 100
8, 81840, Note_on_c, 6, 43, 100
8, 82800, Note_off_c, 6, 43, 64
8, 82800, Note_off_c, 6, 55, 64
8, 82800, Note_off_c, 6, 71, 64
8, 82800, Note_off_c, 6, 74, 64
8, 82800, Note_off_c, 6, 79, 64
8, 82800, Note_on_c, 6, 78, 100
8, 82800, Note_on_c, 6, 74, 100
8, 82800, Note_on_c, 6, 69, 100
8, 82800, Note_on_c, 6, 54, 100
8, 82800, Note_on_c, 6, 42, 100
8, 84720, Note_off_c, 6, 42, 64
8, 84720, Note_off_c, 6, 54, 64
8, 84720, Note_off_c, 6, 69, 64
8, 84720, Note_off_c, 6, 74, 64
8, 84720, Note_off_c, 6, 78, 64
8, 84720, Note_on_c, 6, 81, 100
8, 84720, Note_on_c, 6, 76, 100
8, 84720, Note_on_c, 6, 71, 100
8, 84720, Note_on_c, 6, 57, 100
8, 84720, Note_on_c, 6, 45, 100
8, 85440, Note_on_c, 6, 71, 100
8, 85440, Note_on_c, 6, 40, 100
8, 85440, Note_on_c, 6, 52, 100
8, 85440, Note_on_c, 6, 76, 100
8, 85440, Note_on_c, 6, 80, 100
8, 85440, Note_on_c, 6, 83, 100
8, 85447, Note_off_c, 6, 45, 64
8, 85447, Note_off_c, 6, 57, 64
8, 85447, Note_off_c, 6, 71, 64
8, 85447, Note_off_c, 6, 76, 64
8, 85447, Note_off_c, 6, 81, 64
8, 86400, Note_off_c, 6, 76, 64
8, 86400, Note_off_c, 6, 80, 64
8, 86400, Note_off_c, 6, 83, 64
8, 86400, Note_on_c, 6, 83, 80
8, 86400, Note_on_c, 6, 80, 80
8, 86400, Note_on_c, 6, 76, 80
8, 88553, Note_off_c, 6, 76, 64
8, 88553, Note_off_c, 6, 80, 64
8, 88553, Note_off_c, 6, 71, 64
8, 88553, Note_off_c, 6, 40, 64
8, 88553, Note_off_c, 6, 52, 64
8, 88553, Note_off_c, 6, 83, 64
8, 88560, Note_on_c, 6, 54, 100
8, 88560, Note_on_c, 6, 78, 100
8, 88560, Note_on_c, 6, 74, 100
8, 88560, Note_on_c, 6, 69, 100
8, 88560, Note_on_c, 6, 42, 100
8, 89040, Note_off_c, 6, 42, 64
8, 89040, Note_off_c, 6, 69, 64
8, 89040, Note_off_c, 6, 74, 64
8, 89040, Note_off_c, 6, 78, 64
8, 89040, Note_off_c, 6, 54, 64
8, 89040, Note_on_c, 6, 79, 100
8, 89040, Note_on_c, 6, 74, 100
8, 89040, Note_on_c, 6, 71, 100
8, 89040, Note_on_c, 6, 55, 100
8, 89040, Note_on_c, 6, 43, 100
8, 90247, Note_off_c, 6, 43, 64
8, 90247, Note_off_c, 6, 55, 64
8, 90247, Note_off_c, 6, 71, 64
8, 90247, Note_off_c, 6, 74, 64
8, 90247, Note_off_c, 6, 79, 64
8, 90247, Note_on_c, 6, 78, 100
8, 90247, Note_on_c, 6, 74, 100
8, 90247, Note_on_c, 6, 69, 100
8, 90247, Note_on_c, 6, 54, 100
8, 90247, Note_on_c, 6, 42, 100
8, 91920, Note_off_c, 6, 42, 64
8, 91920, Note_off_c, 6, 54, 64
8, 91920, Note_off_c, 6, 69, 64
8, 91920, Note_off_c, 6, 74, 64
8, 91920, Note_off_c, 6, 78, 64
8, 91920, Note_on_c, 6, 45, 100
8, 91920, Note_on_c, 6, 57, 100
8, 91920, Note_on_c, 6, 71, 100
8, 91920, Note_on_c, 6, 76, 100
8, 91920, Note_on_c, 6, 81, 100
8, 92647, Note_off_c, 6, 81, 64
8, 92647, Note_off_c, 6, 76, 64
8, 92647, Note_off_c, 6, 71, 64
8, 92647, Note_off_c, 6, 57, 64
8, 92647, Note_off_c, 6, 45, 64
8, 108000, Note_on_c, 6, 68, 100
8, 108000, Note_on_c, 6, 64, 100
8, 108000, Note_on_c, 6, 59, 100
8, 108000, Note_on_c, 6, 40, 100
8, 109673, Note_off_c, 6, 40, 64
8, 109673, Note_off_c, 6, 59, 64
8, 109673, Note_off_c, 6, 64, 64
8, 109673, Note_off_c, 6, 68, 64
8, 109680, Note_on_c, 6, 61, 100
8, 109680, Note_on_c, 6, 64, 100
8, 109680, Note_on_c, 6, 57, 100
8, 109680, Note_on_c, 6, 45, 100
8, 110640, Note_off_c, 6, 45, 64
8, 110640, Note_off_c, 6, 57, 64
8, 110640, Note_off_c, 6, 64, 64
8, 110640, Note_off_c, 6, 61, 64
8, 110640, Note_on_c, 6, 66, 100
8, 110640, Note_on_c, 6, 42, 100
8, 110640, Note_on_c, 6, 57, 100
8, 110640, Note_on_c, 6, 62, 100
8, 111840, Note_on_c, 6, 44, 100
8, 111840, Note_on_c, 6, 64, 100
8, 111840, Note_on_c, 6, 59, 100
8, 111840, Note_on_c, 6, 68, 100
8, 111847, Note_off_c, 6, 62, 64
8, 111847, Note_off_c, 6, 57, 64
8, 111847, Note_off_c, 6, 42, 64
8, 111847, Note_off_c, 6, 66, 64
8, 112553, Note_off_c, 6, 44, 64
8, 112553, Note_off_c, 6, 64, 64
8, 112553, Note_off_c, 6, 59, 64
8, 112553, Note_off_c, 6, 68, 64
8, 112560, Note_on_c, 6, 57, 100
8, 112560, Note_on_c, 6, 64, 100
8, 112560, Note_on_c, 6, 69, 100
8, 112560, Note_on_c, 6, 45, 100
8, 112560, Note_on_c, 6, 61, 100
8, 113760, Note_on_c, 6, 62, 100
8, 113760, Note_on_c, 6, 57, 100
8, 113760, Note_on_c, 6, 38, 100
8, 113760, Note_on_c, 6, 66, 100
8, 113767, Note_off_c, 6, 61, 64
8, 113767, Note_off_c, 6, 45, 64
8, 113767, Note_off_c, 6, 69, 64
8, 113767, Note_off_c, 6, 64, 64
8, 113767, Note_off_c, 6, 57, 64
8, 114473, Note_off_c, 6, 62, 64
8, 114473, Note_off_c, 6, 57, 64
8, 114473, Note_off_c, 6, 38, 64
8, 114473, Note_off_c, 6, 66, 64
8, 114480, Note_on_c, 6, 40, 100
8, 114480, Note_on_c, 6, 59, 100
8, 114480, Note_on_c, 6, 64, 100
8, 114480, Note_on_c, 6, 68, 100
8, 116153, Note_off_c, 6, 68, 64
8, 116153, Note_off_c, 6, 64, 64
8, 116153, Note_off_c, 6, 59, 64
8, 116153, Note_off_c, 6, 40, 64
8, 116160, Note_on_c, 6, 61, 100
8, 116160, Note_on_c, 6, 64, 100
8, 116160, Note_on_c, 6, 57, 100
8, 116160, Note_on_c, 6, 45, 100
8, 117120, Note_off_c, 6, 45, 64
8, 117120, Note_off_c, 6, 57, 64
8, 117120, Note_off_c, 6, 64, 64
8, 117120, Note_off_c, 6, 61, 64
8, 117120, Note_on_c, 6, 66, 100
8, 117120, Note_on_c, 6, 57, 100
8, 117120, Note_on_c, 6, 62, 100
8, 117120, Note_on_c, 6, 38, 100
8, 118320, Note_on_c, 6, 59, 100
8, 118320, Note_on_c, 6, 62, 100
8, 118320, Note_on_c, 6, 43, 100
8, 118320, Note_on_c, 6, 67, 100
8, 118327, Note_off_c, 6, 38, 64
8, 118327, Note_off_c, 6, 62, 64
8, 118327, Note_off_c, 6, 57, 64
8, 118327, Note_off_c, 6, 66, 64
8, 119040, Note_off_c, 6, 59, 64
8, 119040, Note_off_c, 6, 62, 64
8, 119040, Note_off_c, 6, 43, 64
8, 119040, Note_off_c, 6, 67, 64
8, 119040, Note_on_c, 6, 64, 100
8, 119040, Note_on_c, 6, 67, 100
8, 119040, Note_on_c, 6, 60, 100
8, 119040, Note_on_c, 6, 55, 100
8, 119040, Note_on_c, 6, 36, 100
8, 120240, Note_off_c, 6, 36, 64
8, 120240, Note_off_c, 6, 55, 64
8, 120240, Note_off_c, 6, 60, 64
8, 120240, Note_off_c, 6, 67, 64
8, 120240, Note_off_c, 6, 64, 64
8, 120240, Note_on_c, 6, 72, 120
8, 120240, Note_on_c, 6, 69, 120
8, 120360, Note_off_c, 6, 69, 64
8, 120360, Note_off_c, 6, 72, 64
8, 120480, Note_on_c, 6, 67, 120
8, 120480, Note_on_c, 6, 72, 120
8, 120600, Note_off_c, 6, 72, 64
8, 120600, Note_off_c, 6, 67, 64
8, 120720, Note_on_c, 6, 65, 120
8, 120720, Note_on_c, 6, 72, 120
8, 120840, Note_off_c, 6, 72, 64
8, 120840, Note_off_c, 6, 65, 64
8, 120960, Note_on_c, 6, 64, 120
8, 120960, Note_on_c, 6, 72, 120
8, 121080, Note_off_c, 6, 72, 64
8, 121080, Note_off_c, 6, 64, 64
8, 121200, Note_on_c, 6, 63, 120
8, 122160, Note_off_c, 6, 63, 64
8, 218160, Note_on_c, 6, 40, 40
8, 220080, Note_off_c, 6, 40, 64
8, 220080, Note_on_c, 6, 69, 40
8, 220080, Note_on_c, 6, 64, 40
8, 220080, Note_on_c, 6, 57, 40
8, 222000, Note_off_c, 6, 57, 64
8, 222000, Note_off_c, 6, 64, 64
8, 222000, Note_off_c, 6, 69, 64
8, 222000, Note_on_c, 6, 50, 40
8, 222000, Note_on_c, 6, 69, 40
8, 222000, Note_on_c, 6, 62, 40
8, 225840, Note_off_c, 6, 62, 64
8, 225840, Note_off_c, 6, 69, 64
8, 225840, Note_off_c, 6, 50, 64
8, 225840, Note_on_c, 6, 47, 40
8, 225840, Note_on_c, 6, 59, 40
8, 225840, Note_on_c, 6, 66, 40
8, 225840, Note_on_c, 6, 63, 40
8, 229680, Note_off_c, 6, 63, 64
8, 229680, Note_off_c, 6, 66, 64
8, 229680, Note_off_c, 6, 59, 64
8, 229680, Note_off_c, 6, 47, 64
8, 297840, Note_on_c, 6, 68, 100
8, 297840, Note_on_c, 6, 64, 100
8, 297840, Note_on_c, 6, 59, 100
8, 297840, Note_on_c, 6, 40, 100
8, 299513, Note_off_c, 6, 40, 64
8, 299513, Note_off_c, 6, 59, 64
8, 299513, Note_off_c, 6, 64, 64
8, 299513, Note_off_c, 6, 68, 64
8, 299520, Note_on_c, 6, 61, 100
8, 299520, Note_on_c, 6, 64, 100
8, 299520, Note_on_c, 6, 57, 100
8, 299520, Note_on_c, 6, 45, 100
8, 300480, Note_off_c, 6, 45, 64
8, 300480, Note_off_c, 6, 57, 64
8, 300480, Note_off_c, 6, 64, 64
8, 300480, Note_off_c, 6, 61, 64
8, 300480, Note_on_c, 6, 66, 100
8, 300480, Note_on_c, 6, 42, 100
8, 300480, Note_on_c, 6, 57, 100
8, 300480, Note_on_c, 6, 62, 100
8, 301680, Note_on_c, 6, 44, 100
8, 301680, Note_on_c, 6, 64, 100
8, 301680, Note_on_c, 6, 59, 100
8, 301680, Note_on_c, 6, 68, 100
8, 301687, Note_off_c, 6, 62, 64
8, 301687, Note_off_c, 6, 57, 64
8, 301687, Note_off_c, 6, 42, 64
8, 301687, Note_off_c, 6, 66, 64
8, 302393, Note_off_c, 6, 44, 64
8, 302393, Note_off_c, 6, 64, 64
8, 302393, Note_off_c, 6, 59, 64
8, 302393, Note_off_c, 6, 68, 64
8, 302400, Note_on_c, 6, 57, 100
8, 302400, Note_on_c, 6, 64, 100
8, 302400, Note_on_c, 6, 69, 100
8, 302400, Note_on_c, 6, 45, 100
8, 302400, Note_on_c, 6, 61, 100
8, 303600, Note_on_c, 6, 62, 100
8, 303600, Note_on_c, 6, 57, 100
8, 303600, Note_on_c, 6, 38, 100
8, 303600, Note_on_c, 6, 66, 100
8, 303607, Note_off_c, 6, 61, 64
8, 303607, Note_off_c, 6, 45, 64
8, 303607, Note_off_c, 6, 69, 64
8, 303607, Note_off_c, 6, 64, 64
8, 303607, Note_off_c, 6, 57, 64
8, 304313, Note_off_c, 6, 62, 64
8, 304313, Note_off_c, 6, 57, 64
8, 304313, Note_off_c, 6, 38, 64
8, 304313, Note_off_c, 6, 66, 64
8, 304320, Note_on_c, 6, 40, 100
8, 304320, Note_on_c, 6, 59, 100
8, 304320, Note_on_c, 6, 64, 100
8, 304320, Note_on_c, 6, 68, 100
8, 305993, Note_off_c, 6, 68, 64
8, 305993, Note_off_c, 6, 64, 64
8, 305993, Note_off_c, 6, 59, 64
8, 305993, Note_off_c, 6, 40, 64
8, 306000, Note_on_c, 6, 61, 100
8, 306000, Note_on_c, 6, 64, 100
8, 306000, Note_on_c, 6, 57, 100
8, 306000, Note_on_c, 6, 45, 100
8, 306960, Note_off_c, 6, 45, 64
8, 306960, Note_off_c, 6, 57, 64
8, 306960, Note_off_c, 6, 64, 64
8, 306960, Note_off_c, 6, 61, 64
8, 306960, Note_on_c, 6, 66, 100
8, 306960, Note_on_c, 6, 57, 100
8, 306960, Note_on_c, 6, 62, 100
8, 306960, Note_on_c, 6, 38, 100
8, 308160, Note_on_c, 6, 59, 100
8, 308160, Note_on_c, 6, 62, 100
8, 308160, Note_on_c, 6, 43, 100
8, 308160, Note_on_c, 6, 67, 100
8, 308167, Note_off_c, 6, 38, 64
8, 308167, Note_off_c, 6, 62, 64
8, 308167, Note_off_c, 6, 57, 64
8, 308167, Note_off_c, 6, 66, 64
8, 308880, Note_off_c, 6, 59, 64
8, 308880, Note_off_c, 6, 62, 64
8, 308880, Note_off_c, 6, 43, 64
8, 308880, Note_off_c, 6, 67, 64
8, 308880, Note_on_c, 6, 64, 100
8, 308880, Note_on_c, 6, 67, 100
8, 308880, Note_on_c, 6, 60, 100
8, 308880, Note_on_c, 6, 55, 100
8, 308880, Note_on_c, 6, 36, 100
8, 310080, Note_off_c, 6, 36, 64
8, 310080, Note_off_c, 6, 55, 64
8, 310080, Note_off_c, 6, 60, 64
8, 310080, Note_off_c, 6, 67, 64
8, 310080, Note_off_c, 6, 64, 64
8, 310080, Note_on_c, 6, 72, 120
8, 310080, Note_on_c, 6, 69, 120
8, 310200, Note_off_c, 6, 69, 64
8, 310200, Note_off_c, 6, 72, 64
8, 310320, Note_on_c, 6, 67, 120
8, 310320, Note_on_c, 6, 72, 120
8, 310440, Note_off_c, 6, 72, 64
8, 310440, Note_off_c, 6, 67, 64
8, 310560, Note_on_c, 6, 65, 120
8, 310560, Note_on_c, 6, 72, 120
8, 310680, Note_off_c, 6, 72, 64
8, 310680, Note_off_c, 6, 65, 64
8, 310800, Note_on_c, 6, 64, 120
8, 310800, Note_on_c, 6, 72, 120
8, 310920, Note_off_c, 6, 72, 64
8, 310920, Note_off_c, 6, 64, 64
8, 311040, Note_on_c, 6, 63, 120
8, 312000, Note_off_c, 6, 63, 64
8, 312000, Note_on_c, 6, 40, 80
8, 312000, Note_on_c, 6, 59, 80
8, 312000, Note_on_c, 6, 64, 80
8, 312000, Note_on_c, 6, 68, 80
8, 313673, Note_off_c, 6, 68, 64
8, 313673, Note_off_c, 6, 64, 64
8, 313673, Note_off_c, 6, 59, 64
8, 313673, Note_off_c, 6, 40, 64
8, 313680, Note_on_c, 6, 61, 80
8, 313680, Note_on_c, 6, 64, 80
8, 313680, Note_on_c, 6, 57, 80
8, 313680, Note_on_c, 6, 45, 80
8, 314640, Note_off_c, 6, 45, 64
8, 314640, Note_off_c, 6, 57, 64
8, 314640, Note_off_c, 6, 64, 64
8, 314640, Note_off_c, 6, 61, 64
8, 314640, Note_on_c, 6, 66, 80
8, 314640, Note_on_c, 6, 42, 80
8, 314640, Note_on_c, 6, 57, 80
8, 314640, Note_on_c, 6, 62, 80
8, 315840, Note_on_c, 6, 44, 80
8, 315840, Note_on_c, 6, 64, 80
8, 315840, Note_on_c, 6, 59, 80
8, 315840, Note_on_c, 6, 68, 80
8, 315847, Note_off_c, 6, 62, 64
8, 315847, Note_off_c, 6, 57, 64
8, 315847, Note_off_c, 6, 42, 64
8, 315847, Note_off_c, 6, 66, 64
8, 316553, Note_off_c, 6, 44, 64
8, 316553, Note_off_c, 6, 64, 64
8, 316553, Note_off_c, 6, 59, 64
8, 316553, Note_off_c, 6, 68, 64
8, 316560, Note_on_c, 6, 57, 80
8, 316560, Note_on_c, 6, 64, 80
8, 316560, Note_on_c, 6, 69, 80
8, 316560, Note_on_c, 6, 45, 80
8, 316560, Note_on_c, 6, 61, 80
8, 317760, Note_on_c, 6, 62, 80
8, 317760, Note_on_c, 6, 66, 80
8, 317760, Note_on_c, 6, 69, 80
8, 317760, Note_on_c, 6, 38, 80
8, 317767, Note_off_c, 6, 61, 64
8, 317767, Note_off_c, 6, 45, 64
8, 317767, Note_off_c, 6, 69, 64
8, 317767, Note_off_c, 6, 64, 64
8, 317767, Note_off_c, 6, 57, 64
8, 318480, Note_off_c, 6, 62, 64
8, 318480, Note_off_c, 6, 66, 64
8, 318480, Note_off_c, 6, 69, 64
8, 318480, Note_off_c, 6, 38, 64
8, 318480, Note_on_c, 6, 40, 80
8, 318480, Note_on_c, 6, 71, 80
8, 318480, Note_on_c, 6, 68, 80
8, 318480, Note_on_c, 6, 64, 80
8, 319680, Note_off_c, 6, 64, 64
8, 319680, Note_off_c, 6, 68, 64
8, 319680, Note_off_c, 6, 71, 64
8, 319680, Note_off_c, 6, 40, 64
8, 319680, Note_on_c, 6, 68, 80
8, 319680, Note_on_c, 6, 64, 80
8, 319680, Note_on_c, 6, 59, 80
8, 319680, Note_on_c, 6, 40, 80
8, 321353, Note_off_c, 6, 40, 64
8, 321353, Note_off_c, 6, 59, 64
8, 321353, Note_off_c, 6, 64, 64
8, 321353, Note_off_c, 6, 68, 64
8, 321360, Note_on_c, 6, 61, 80
8, 321360, Note_on_c, 6, 64, 80
8, 321360, Note_on_c, 6, 57, 80
8, 321360, Note_on_c, 6, 45, 80
8, 322320, Note_off_c, 6, 45, 64
8, 322320, Note_off_c, 6, 57, 64
8, 322320, Note_off_c, 6, 64, 64
8, 322320, Note_off_c, 6, 61, 64
8, 322320, Note_on_c, 6, 66, 80
8, 322320, Note_on_c, 6, 42, 80
8, 322320, Note_on_c, 6, 57, 80
8, 322320, Note_on_c, 6, 62, 80
8, 323520, Note_on_c, 6, 44, 80
8, 323520, Note_on_c, 6, 64, 80
8, 323520, Note_on_c, 6, 59, 80
8, 323520, Note_on_c, 6, 68, 80
8, 323527, Note_off_c, 6, 62, 64
8, 323527, Note_off_c, 6, 57, 64
8, 323527, Note_off_c, 6, 42, 64
8, 323527, Note_off_c, 6, 66, 64
8, 324233, Note_off_c, 6, 44, 64
8, 324233, Note_off_c, 6, 64, 64
8, 324233, Note_off_c, 6, 59, 64
8, 324233, Note_off_c, 6, 68, 64
8, 324240, Note_on_c, 6, 57, 80
8, 324240, Note_on_c, 6, 64, 80
8, 324240, Note_on_c, 6, 69, 80
8, 324240, Note_on_c, 6, 45, 80
8, 324240, Note_on_c, 6, 61, 80
8, 325440, Note_on_c, 6, 62, 80
8, 325440, Note_on_c, 6, 66, 80
8, 325440, Note_on_c, 6, 69, 80
8, 325440, Note_on_c, 6, 38, 80
8, 325447, Note_off_c, 6, 61, 64
8, 325447, Note_off_c, 6, 45, 64
8, 325447, Note_off_c, 6, 69, 64
8, 325447, Note_off_c, 6, 64, 64
8, 325447, Note_off_c, 6, 57, 64
8, 326160, Note_off_c, 6, 62, 64
8, 326160, Note_off_c, 6, 66, 64
8, 326160, Note_off_c, 6, 69, 64
8, 326160, Note_off_c, 6, 38, 64
8, 326160, Note_on_c, 6, 40, 80
8, 326160, Note_on_c, 6, 64, 80
8, 326160, Note_on_c, 6, 71, 80
8, 326160, Note_on_c, 6, 68, 80
8, 327360, Note_off_c, 6, 68, 64
8, 327360, Note_off_c, 6, 71, 64
8, 327360, Note_off_c, 6, 64, 64
8, 327360, Note_off_c, 6, 40, 64
8, 327360, Note_on_c, 6, 40, 80
8, 327360, Note_on_c, 6, 68, 80
8, 327360, Note_on_c, 6, 64, 80
8, 327360, Note_on_c, 6, 59, 80
8, 329033, Note_off_c, 6, 40, 64
8, 329040, Note_off_c, 6, 68, 64
8, 329040, Note_off_c, 6, 64, 64
8, 329040, Note_off_c, 6, 59, 64
8, 329040, Note_on_c, 6, 45, 80
8, 329040, Note_on_c, 6, 61, 80
8, 329040, Note_on_c, 6, 64, 80
8, 329040, Note_on_c, 6, 57, 80
8, 330000, Note_off_c, 6, 57, 64
8, 330000, Note_off_c, 6, 64, 64
8, 330000, Note_off_c, 6, 61, 64
8, 330000, Note_off_c, 6, 45, 64
8, 330000, Note_on_c, 6, 66, 80
8, 330000, Note_on_c, 6, 42, 80
8, 330000, Note_on_c, 6, 57, 80
8, 330000, Note_on_c, 6, 62, 80
8, 331200, Note_on_c, 6, 44, 80
8, 331200, Note_on_c, 6, 64, 80
8, 331200, Note_on_c, 6, 59, 80
8, 331200, Note_on_c, 6, 68, 80
8, 331207, Note_off_c, 6, 62, 64
8, 331207, Note_off_c, 6, 57, 64
8, 331207, Note_off_c, 6, 42, 64
8, 331207, Note_off_c, 6, 66, 64
8, 331913, Note_off_c, 6, 44, 64
8, 331913, Note_off_c, 6, 64, 64
8, 331913, Note_off_c, 6, 59, 64
8, 331913, Note_off_c, 6, 68, 64
8, 331920, Note_on_c, 6, 57, 80
8, 331920, Note_on_c, 6, 64, 80
8, 331920, Note_on_c, 6, 69, 80
8, 331920, Note_on_c, 6, 45, 80
8, 331920, Note_on_c, 6, 61, 80
8, 333120, Note_on_c, 6, 62, 80
8, 333120, Note_on_c, 6, 66, 80
8, 333120, Note_on_c, 6, 69, 80
8, 333120, Note_on_c, 6, 38, 80
8, 333127, Note_off_c, 6, 61, 64
8, 333127, Note_off_c, 6, 45, 64
8, 333127, Note_off_c, 6, 69, 64
8, 333127, Note_off_c, 6, 64, 64
8, 333127, Note_off_c, 6, 57, 64
8, 333840, Note_off_c, 6, 62, 64
8, 333840, Note_off_c, 6, 66, 64
8, 333840, Note_off_c, 6, 69, 64
8, 333840, Note_off_c, 6, 38, 64
8, 333840, Note_on_c, 6, 40, 80
8, 333840, Note_on_c, 6, 71, 80
8, 333840, Note_on_c, 6, 68, 80
8, 333840, Note_on_c, 6, 64, 80
8, 335040, Note_off_c, 6, 64, 64
8, 335040, Note_off_c, 6, 68, 64
8, 335040, Note_off_c, 6, 71, 64
8, 335040, Note_off_c, 6, 40, 64
8, 335040, Note_on_c, 6, 59, 80
8, 335040, Note_on_c, 6, 64, 80
8, 335040, Note_on_c, 6, 68, 80
8, 335040, Note_on_c, 6, 40, 80
8, 336713, Note_off_c, 6, 40, 64
8, 336720, Note_off_c, 6, 68, 64
8, 336720, Note_off_c, 6, 64, 64
8, 336720, Note_off_c, 6, 59, 64
8, 336720, Note_on_c, 6, 45, 80
8, 336720, Note_on_c, 6, 61, 80
8, 336720, Note_on_c, 6, 64, 80
8, 336720, Note_on_c, 6, 57, 80
8, 337680, Note_off_c, 6, 57, 64
8, 337680, Note_off_c, 6, 64, 64
8, 337680, Note_off_c, 6, 61, 64
8, 337680, Note_off_c, 6, 45, 64
8, 337680, Note_on_c, 6, 66, 80
8, 337680, Note_on_c, 6, 42, 80
8, 337680, Note_on_c, 6, 57, 80
8, 337680, Note_on_c, 6, 62, 80
8, 338880, Note_on_c, 6, 44, 80
8, 338880, Note_on_c, 6, 64, 80
8, 338880, Note_on_c, 6, 59, 80
8, 338880, Note_on_c, 6, 68, 80
8, 338887, Note_off_c, 6, 62, 64
8, 338887, Note_off_c, 6, 57, 64
8, 338887, Note_off_c, 6, 42, 64
8, 338887, Note_off_c, 6, 66, 64
8, 339593, Note_off_c, 6, 44, 64
8, 339593, Note_off_c, 6, 64, 64
8, 339593, Note_off_c, 6, 59, 64
8, 339593, Note_off_c, 6, 68, 64
8, 339600, Note_on_c, 6, 57, 80
8, 339600, Note_on_c, 6, 64, 80
8, 339600, Note_on_c, 6, 69, 80
8, 339600, Note_on_c, 6, 45, 80
8, 339600, Note_on_c, 6, 61, 80
8, 340800, Note_on_c, 6, 62, 80
8, 340800, Note_on_c, 6, 66, 80
8, 340800, Note_on_c, 6, 69, 80
8, 340800, Note_on_c, 6, 38, 80
8, 340807, Note_off_c, 6, 61, 64
8, 340807, Note_off_c, 6, 45, 64
8, 340807, Note_off_c, 6, 69, 64
8, 340807, Note_off_c, 6, 64, 64
8, 340807, Note_off_c, 6, 57, 64
8, 341520, Note_off_c, 6, 62, 64
8, 341520, Note_off_c, 6, 66, 64
8, 341520, Note_off_c, 6, 69, 64
8, 341520, Note_off_c, 6, 38, 64
8, 341520, Note_on_c, 6, 40, 80
8, 341520, Note_on_c, 6, 71, 80
8, 341520, Note_on_c, 6, 68, 80
8, 341520, Note_on_c, 6, 64, 80
8, 342720, Note_off_c, 6, 64, 64
8, 342720, Note_off_c, 6, 68, 64
8, 342720, Note_off_c, 6, 71, 64
8, 342720, Note_off_c, 6, 40, 64
8, 342720, Note_on_c, 6, 40, 80
8, 342720, Note_on_c, 6, 68, 80
8, 342720, Note_on_c, 6, 64, 80
8, 342720, Note_on_c, 6, 59, 80
8, 344393, Note_off_c, 6, 40, 64
8, 344400, Note_off_c, 6, 68, 64
8, 344400, Note_off_c, 6, 64, 64
8, 344400, Note_off_c, 6, 59, 64
8, 344400, Note_on_c, 6, 45, 80
8, 344400, Note_on_c, 6, 61, 80
8, 344400, Note_on_c, 6, 64, 80
8, 344400, Note_on_c, 6, 57, 80
8, 345360, Note_off_c, 6, 57, 64
8, 345360, Note_off_c, 6, 64, 64
8, 345360, Note_off_c, 6, 61, 64
8, 345360, Note_off_c, 6, 45, 64
8, 345360, Note_on_c, 6, 66, 80
8, 345360, Note_on_c, 6, 42, 80
8, 345360, Note_on_c, 6, 57, 80
8, 345360, Note_on_c, 6, 62, 80
8, 346560, Note_on_c, 6, 44, 80
8, 346560, Note_on_c, 6, 64, 80
8, 346560, Note_on_c, 6, 59, 80
8, 346560, Note_on_c, 6, 68, 80
8, 346567, Note_off_c, 6, 62, 64
8, 346567, Note_off_c, 6, 57, 64
8, 346567, Note_off_c, 6, 42, 64
8, 346567, Note_off_c, 6, 66, 64
8, 347273, Note_off_c, 6, 44, 64
8, 347273, Note_off_c, 6, 64, 64
8, 347273, Note_off_c, 6, 59, 64
8, 347273, Note_off_c, 6, 68, 64
8, 347280, Note_on_c, 6, 57, 80
8, 347280, Note_on_c, 6, 64, 80
8, 347280, Note_on_c, 6, 69, 80
8, 347280, Note_on_c, 6, 45, 80
8, 347280, Note_on_c, 6, 61, 80
8, 348480, Note_on_c, 6, 62, 80
8, 348480, Note_on_c, 6, 66, 80
8, 348480, Note_on_c, 6, 69, 80
8, 348480, Note_on_c, 6, 38, 80
8, 348487, Note_off_c, 6, 61, 64
8, 348487, Note_off_c, 6, 45, 64
8, 348487, Note_off_c, 6, 69, 64
8, 348487, Note_off_c, 6, 64, 64
8, 348487, Note_off_c, 6, 57, 64
8, 349200, Note_off_c, 6, 62, 64
8, 349200, Note_off_c, 6, 66, 64
8, 349200, Note_off_c, 6, 69, 64
8, 349200, Note_off_c, 6, 38, 64
8, 349200, Note_on_c, 6, 40, 80
8, 349200, Note_on_c, 6, 71, 80
8, 349200, Note_on_c, 6, 68, 80
8, 349200, Note_on_c, 6, 64, 80
8, 350400, Note_off_c, 6, 64, 64
8, 350400, Note_off_c, 6, 68, 64
8, 350400, Note_off_c, 6, 71, 64
8, 350400, Note_off_c, 6, 40, 64
8, 350400, Note_on_c, 6, 40, 80
8, 350400, Note_on_c, 6, 68, 80
8, 350400, Note_on_c, 6, 64, 80
8, 350400, Note_on_c, 6, 59, 80
8, 352073, Note_off_c, 6, 40, 64
8, 352080, Note_off_c, 6, 68, 64
8, 352080, Note_off_c, 6, 64, 64
8, 352080, Note_off_c, 6, 59, 64
8, 352080, Note_on_c, 6, 45, 80
8, 352080, Note_on_c, 6, 61, 80
8, 352080, Note_on_c, 6, 64, 80
8, 352080, Note_on_c, 6, 57, 80
8, 353040, Note_off_c, 6, 57, 64
8, 353040, Note_off_c, 6, 64, 64
8, 353040, Note_off_c, 6, 61, 64
8, 353040, Note_off_c, 6, 45, 64
8, 353040, Note_on_c, 6, 66, 80
8, 353040, Note_on_c, 6, 42, 80
8, 353040, Note_on_c, 6, 57, 80
8, 353040, Note_on_c, 6, 62, 80
8, 354240, Note_on_c, 6, 44, 80
8, 354240, Note_on_c, 6, 64, 80
8, 354240, Note_on_c, 6, 59, 80
8, 354240, Note_on_c, 6, 68, 80
8, 354247, Note_off_c, 6, 62, 64
8, 354247, Note_off_c, 6, 57, 64
8, 354247, Note_off_c, 6, 42, 64
8, 354247, Note_off_c, 6, 66, 64
8, 354953, Note_off_c, 6, 44, 64
8, 354953, Note_off_c, 6, 64, 64
8, 354953, Note_off_c, 6, 59, 64
8, 354953, Note_off_c, 6, 68, 64
8, 354960, Note_on_c, 6, 57, 80
8, 354960, Note_on_c, 6, 64, 80
8, 354960, Note_on_c, 6, 69, 80
8, 354960, Note_on_c, 6, 45, 80
8, 354960, Note_on_c, 6, 61, 80
8, 356160, Note_on_c, 6, 62, 80
8, 356160, Note_on_c, 6, 66, 80
8, 356160, Note_on_c, 6, 69, 80
8, 356160, Note_on_c, 6, 38, 80
8, 356167, Note_off_c, 6, 61, 64
8, 356167, Note_off_c, 6, 45, 64
8, 356167, Note_off_c, 6, 69, 64
8, 356167, Note_off_c, 6, 64, 64
8, 356167, Note_off_c, 6, 57, 64
8, 356880, Note_off_c, 6, 62, 64
8, 356880, Note_off_c, 6, 66, 64
8, 356880, Note_off_c, 6, 69, 64
8, 356880, Note_off_c, 6, 38, 64
8, 356880, Note_on_c, 6, 40, 80
8, 356880, Note_on_c, 6, 71, 80
8, 356880, Note_on_c, 6, 68, 80
8, 356880, Note_on_c, 6, 64, 80
8, 358080, Note_off_c, 6, 64, 64
8, 358080, Note_off_c, 6, 68, 64
8, 358080, Note_off_c, 6, 71, 64
8, 358080, Note_off_c, 6, 40, 64
8, 358080, Note_on_c, 6, 40, 80
8, 358080, Note_on_c, 6, 68, 80
8, 358080, Note_on_c, 6, 64, 80
8, 358080, Note_on_c, 6, 59, 80
8, 359753, Note_off_c, 6, 40, 64
8, 359760, Note_off_c, 6, 68, 64
8, 359760, Note_off_c, 6, 64, 64
8, 359760, Note_off_c, 6, 59, 64
8, 359760, Note_on_c, 6, 45, 80
8, 359760, Note_on_c, 6, 61, 80
8, 359760, Note_on_c, 6, 64, 80
8, 359760, Note_on_c, 6, 57, 80
8, 360720, Note_off_c, 6, 57, 64
8, 360720, Note_off_c, 6, 64, 64
8, 360720, Note_off_c, 6, 61, 64
8, 360720, Note_off_c, 6, 45, 64
8, 360720, Note_on_c, 6, 66, 80
8, 360720, Note_on_c, 6, 42, 80
8, 360720, Note_on_c, 6, 57, 80
8, 360720, Note_on_c, 6, 62, 80
8, 361920, Note_on_c, 6, 44, 80
8, 361920, Note_on_c, 6, 64, 80
8, 361920, Note_on_c, 6, 59, 80
8, 361920, Note_on_c, 6, 68, 80
8, 361927, Note_off_c, 6, 62, 64
8, 361927, Note_off_c, 6, 57, 64
8, 361927, Note_off_c, 6, 42, 64
8, 361927, Note_off_c, 6, 66, 64
8, 362633, Note_off_c, 6, 44, 64
8, 362633, Note_off_c, 6, 64, 64
8, 362633, Note_off_c, 6, 59, 64
8, 362633, Note_off_c, 6, 68, 64
8, 362640, Note_on_c, 6, 57, 80
8, 362640, Note_on_c, 6, 64, 80
8, 362640, Note_on_c, 6, 69, 80
8, 362640, Note_on_c, 6, 45, 80
8, 362640, Note_on_c, 6, 61, 80
8, 363840, Note_on_c, 6, 62, 80
8, 363840, Note_on_c, 6, 66, 80
8, 363840, Note_on_c, 6, 69, 80
8, 363840, Note_on_c, 6, 38, 80
8, 363847, Note_off_c, 6, 61, 64
8, 363847, Note_off_c, 6, 45, 64
8, 363847, Note_off_c, 6, 69, 64
8, 363847, Note_off_c, 6, 64, 64
8, 363847, Note_off_c, 6, 57, 64
8, 364560, Note_off_c, 6, 62, 64
8, 364560, Note_off_c, 6, 66, 64
8, 364560, Note_off_c, 6, 69, 64
8, 364560, Note_off_c, 6, 38, 64
8, 364560, Note_on_c, 6, 40, 80
8, 364560, Note_on_c, 6, 71, 80
8, 364560, Note_on_c, 6, 68, 80
8, 364560, Note_on_c, 6, 64, 80
8, 365760, Note_off_c, 6, 64, 64
8, 365760, Note_off_c, 6, 68, 64
8, 365760, Note_off_c, 6, 71, 64
8, 365760, Note_off_c, 6, 40, 64
8, 365760, Note_on_c, 6, 40, 80
8, 365760, Note_on_c, 6, 68, 80
8, 365760, Note_on_c, 6, 64, 80
8, 365760, Note_on_c, 6, 59, 80
8, 367433, Note_off_c, 6, 40, 64
8, 367440, Note_off_c, 6, 68, 64
8, 367440, Note_off_c, 6, 64, 64
8, 367440, Note_off_c, 6, 59, 64
8, 367440, Note_on_c, 6, 45, 80
8, 367440, Note_on_c, 6, 61, 80
8, 367440, Note_on_c, 6, 64, 80
8, 367440, Note_on_c, 6, 57, 80
8, 368400, Note_off_c, 6, 57, 64
8, 368400, Note_off_c, 6, 64, 64
8, 368400, Note_off_c, 6, 61, 64
8, 368400, Note_off_c, 6, 45, 64
8, 368400, Note_on_c, 6, 66, 80
8, 368400, Note_on_c, 6, 42, 80
8, 368400, Note_on_c, 6, 57, 80
8, 368400, Note_on_c, 6, 62, 80
8, 369600, Note_on_c, 6, 44, 80
8, 369600, Note_on_c, 6, 64, 80
8, 369600, Note_on_c, 6, 59, 80
8, 369600, Note_on_c, 6, 68, 80
8, 369607, Note_off_c, 6, 62, 64
8, 369607, Note_off_c, 6, 57, 64
8, 369607, Note_off_c, 6, 42, 64
8, 369607, Note_off_c, 6, 66, 64
8, 370313, Note_off_c, 6, 44, 64
8, 370313, Note_off_c, 6, 64, 64
8, 370313, Note_off_c, 6, 59, 64
8, 370313, Note_off_c, 6, 68, 64
8, 370320, Note_on_c, 6, 57, 80
8, 370320, Note_on_c, 6, 64, 80
8, 370320, Note_on_c, 6, 69, 80
8, 370320, Note_on_c, 6, 45, 80
8, 370320, Note_on_c, 6, 61, 80
8, 371520, Note_on_c, 6, 62, 80
8, 371520, Note_on_c, 6, 66, 80
8, 371520, Note_on_c, 6, 69, 80
8, 371520, Note_on_c, 6, 38, 80
8, 371527, Note_off_c, 6, 61, 64
8, 371527, Note_off_c, 6, 45, 64
8, 371527, Note_off_c, 6, 69, 64
8, 371527, Note_off_c, 6, 64, 64
8, 371527, Note_off_c, 6, 57, 64
8, 372240, Note_off_c, 6, 62, 64
8, 372240, Note_off_c, 6, 66, 64
8, 372240, Note_off_c, 6, 69, 64
8, 372240, Note_off_c, 6, 38, 64
8, 372240, Note_on_c, 6, 40, 80
8, 372240, Note_on_c, 6, 71, 80
8, 372240, Note_on_c, 6, 68, 80
8, 372240, Note_on_c, 6, 64, 80
8, 373440, Note_off_c, 6, 64, 64
8, 373440, Note_off_c, 6, 68, 64
8, 373440, Note_off_c, 6, 71, 64
8, 373440, Note_off_c, 6, 40, 64
8, 373440, Note_on_c, 6, 59, 80
8, 373440, Note_on_c, 6, 64, 80
8, 373440, Note_on_c, 6, 68, 80
8, 373440, Note_on_c, 6, 40, 80
8, 375113, Note_off_c, 6, 40, 64
8, 375120, Note_off_c, 6, 68, 64
8, 375120, Note_off_c, 6, 64, 64
8, 375120, Note_off_c, 6, 59, 64
8, 375120, Note_on_c, 6, 45, 80
8, 375120, Note_on_c, 6, 61, 80
8, 375120, Note_on_c, 6, 64, 80
8, 375120, Note_on_c, 6, 57, 80
8, 376080, Note_off_c, 6, 57, 64
8, 376080, Note_off_c, 6, 64, 64
8, 376080, Note_off_c, 6, 61, 64
8, 376080, Note_off_c, 6, 45, 64
8, 376080, Note_on_c, 6, 66, 80
8, 376080, Note_on_c, 6, 42, 80
8, 376080, Note_on_c, 6, 57, 80
8, 376080, Note_on_c, 6, 62, 80
8, 377280, Note_on_c, 6, 44, 80
8, 377280, Note_on_c, 6, 64, 80
8, 377280, Note_on_c, 6, 59, 80
8, 377280, Note_on_c, 6, 68, 80
8, 377287, Note_off_c, 6, 62, 64
8, 377287, Note_off_c, 6, 57, 64
8, 377287, Note_off_c, 6, 42, 64
8, 377287, Note_off_c, 6, 66, 64
8, 377993, Note_off_c, 6, 44, 64
8, 377993, Note_off_c, 6, 64, 64
8, 377993, Note_off_c, 6, 59, 64
8, 377993, Note_off_c, 6, 68, 64
8, 378000, Note_on_c, 6, 57, 80
8, 378000, Note_on_c, 6, 64, 80
8, 378000, Note_on_c, 6, 69, 80
8, 378000, Note_on_c, 6, 45, 80
8, 378000, Note_on_c, 6, 61, 80
8, 379200, Note_on_c, 6, 62, 80
8, 379200, Note_on_c, 6, 66, 80
8, 379200, Note_on_c, 6, 69, 80
8, 379200, Note_on_c, 6, 38, 80
8, 379207, Note_off_c, 6, 61, 64
8, 379207, Note_off_c, 6, 45, 64
8, 379207, Note_off_c, 6, 69, 64
8, 379207, Note_off_c, 6, 64, 64
8, 379207, Note_off_c, 6, 57, 64
8, 379920, Note_off_c, 6, 62, 64
8, 379920, Note_off_c, 6, 66, 64
8, 379920, Note_off_c, 6, 69, 64
8, 379920, Note_off_c, 6, 38, 64
8, 379920, Note_on_c, 6, 40, 80
8, 379920, Note_on_c, 6, 71, 80
8, 379920, Note_on_c, 6, 68, 80
8, 379920, Note_on_c, 6, 64, 80
8, 381120, Note_off_c, 6, 64, 64
8, 381120, Note_off_c, 6, 68, 64
8, 381120, Note_off_c, 6, 71, 64
8, 381120, Note_off_c, 6, 40, 64
8, 381120, Note_on_c, 6, 59, 80
8, 381120, Note_on_c, 6, 64, 80
8, 381120, Note_on_c, 6, 68, 80
8, 381120, Note_on_c, 6, 40, 80
8, 382793, Note_off_c, 6, 40, 64
8, 382800, Note_off_c, 6, 68, 64
8, 382800, Note_off_c, 6, 64, 64
8, 382800, Note_off_c, 6, 59, 64
8, 382800, Note_on_c, 6, 45, 80
8, 382800, Note_on_c, 6, 61, 80
8, 382800, Note_on_c, 6, 64, 80
8, 382800, Note_on_c, 6, 57, 80
8, 383760, Note_off_c, 6, 57, 64
8, 383760, Note_off_c, 6, 64, 64
8, 383760, Note_off_c, 6, 61, 64
8, 383760, Note_off_c, 6, 45, 64
8, 383760, Note_on_c, 6, 66, 80
8, 383760, Note_on_c, 6, 42, 80
8, 383760, Note_on_c, 6, 57, 80
8, 383760, Note_on_c, 6, 62, 80
8, 384960, Note_on_c, 6, 44, 80
8, 384960, Note_on_c, 6, 64, 80
8, 384960, Note_on_c, 6, 59, 80
8, 384960, Note_on_c, 6, 68, 80
8, 384967, Note_off_c, 6, 62, 64
8, 384967, Note_off_c, 6, 57, 64
8, 384967, Note_off_c, 6, 42, 64
8, 384967, Note_off_c, 6, 66, 64
8, 385673, Note_off_c, 6, 44, 64
8, 385673, Note_off_c, 6, 64, 64
8, 385673, Note_off_c, 6, 59, 64
8, 385673, Note_off_c, 6, 68, 64
8, 385680, Note_on_c, 6, 57, 80
8, 385680, Note_on_c, 6, 64, 80
8, 385680, Note_on_c, 6, 69, 80
8, 385680, Note_on_c, 6, 45, 80
8, 385680, Note_on_c, 6, 61, 80
8, 386880, Note_on_c, 6, 62, 80
8, 386880, Note_on_c, 6, 66, 80
8, 386880, Note_on_c, 6, 69, 80
8, 386880, Note_on_c, 6, 38, 80
8, 386887, Note_off_c, 6, 61, 64
8, 386887, Note_off_c, 6, 45, 64
8, 386887, Note_off_c, 6, 69, 64
8, 386887, Note_off_c, 6, 64, 64
8, 386887, Note_off_c, 6, 57, 64
8, 387600, Note_off_c, 6, 62, 64
8, 387600, Note_off_c, 6, 66, 64
8, 387600, Note_off_c, 6, 69, 64
8, 387600, Note_off_c, 6, 38, 64
8, 387600, Note_on_c, 6, 71, 80
8, 387600, Note_on_c, 6, 68, 80
8, 387600, Note_on_c, 6, 64, 80
8, 387600, Note_on_c, 6, 40, 80
8, 390727, Note_off_c, 6, 40, 64
8, 390727, Note_off_c, 6, 64, 64
8, 390727, Note_off_c, 6, 68, 64
8, 390727, Note_off_c, 6, 71, 64
8, 390727, End_track
9, 0, Start_track
9, 0, Title_t, "Synth "
9, 0, MIDI_port, 0
9, 0, Channel_prefix, 7
9, 0, Control_c, 7, 7, 69
9, 0, Program_c, 7, 13
9, 108000, Note_on_c, 7, 64, 100
9, 109200, Note_off_c, 7, 64, 64
9, 109200, Note_on_c, 7, 66, 100
9, 109440, Note_off_c, 7, 66, 64
9, 109440, Note_on_c, 7, 68, 100
9, 109680, Note_off_c, 7, 68, 64
9, 109680, Note_on_c, 7, 69, 100
9, 110160, Note_off_c, 7, 69, 64
9, 110160, Note_on_c, 7, 71, 100
9, 110400, Note_off_c, 7, 71, 64
9, 110400, Note_on_c, 7, 73, 100
9, 110640, Note_off_c, 7, 73, 64
9, 110640, Note_on_c, 7, 74, 100
9, 111120, Note_off_c, 7, 74, 64
9, 111120, Note_on_c, 7, 73, 100
9, 111360, Note_off_c, 7, 73, 64
9, 111360, Note_on_c, 7, 69, 100
9, 111840, Note_off_c, 7, 69, 64
9, 111840, Note_on_c, 7, 71, 100
9, 112080, Note_off_c, 7, 71, 64
9, 112080, Note_on_c, 7, 76, 100
9, 112320, Note_off_c, 7, 76, 64
9, 112320, Note_on_c, 7, 74, 100
9, 112560, Note_off_c, 7, 74, 64
9, 112560, Note_on_c, 7, 73, 100
9, 113040, Note_off_c, 7, 73, 64
9, 113040, Note_on_c, 7, 71, 100
9, 113280, Note_off_c, 7, 71, 64
9, 113280, Note_on_c, 7, 69, 100
9, 113520, Note_off_c, 7, 69, 64
9, 113520, Note_on_c, 7, 64, 100
9, 113760, Note_off_c, 7, 64, 64
9, 113760, Note_on_c, 7, 66, 100
9, 114000, Note_off_c, 7, 66, 64
9, 114000, Note_on_c, 7, 71, 100
9, 114240, Note_off_c, 7, 71, 64
9, 114240, Note_on_c, 7, 69, 100
9, 114480, Note_off_c, 7, 69, 64
9, 114480, Note_on_c, 7, 68, 100
9, 115560, Note_off_c, 7, 68, 64
9, 115680, Note_on_c, 7, 69, 100
9, 115920, Note_off_c, 7, 69, 64
9, 115920, Note_on_c, 7, 71, 100
9, 116160, Note_off_c, 7, 71, 64
9, 116160, Note_on_c, 7, 73, 100
9, 116640, Note_off_c, 7, 73, 64
9, 116644, Note_on_c, 7, 74, 100
9, 116880, Note_on_c, 7, 76, 100
9, 116884, Note_off_c, 7, 74, 64
9, 117120, Note_off_c, 7, 76, 64
9, 117120, Note_on_c, 7, 78, 100
9, 117600, Note_off_c, 7, 78, 64
9, 117600, Note_on_c, 7, 76, 100
9, 117840, Note_off_c, 7, 76, 64
9, 117840, Note_on_c, 7, 74, 100
9, 118080, Note_off_c, 7, 74, 64
9, 118080, Note_on_c, 7, 69, 100
9, 118320, Note_off_c, 7, 69, 64
9, 118320, Note_on_c, 7, 71, 100
9, 118560, Note_off_c, 7, 71, 64
9, 118560, Note_on_c, 7, 69, 100
9, 118800, Note_off_c, 7, 69, 64
9, 118800, Note_on_c, 7, 67, 100
9, 119040, Note_off_c, 7, 67, 64
9, 119040, Note_on_c, 7, 76, 100
9, 119520, Note_off_c, 7, 76, 64
9, 119520, Note_on_c, 7, 74, 100
9, 119760, Note_off_c, 7, 74, 64
9, 119760, Note_on_c, 7, 72, 100
9, 120000, Note_off_c, 7, 72, 64
9, 120000, Note_on_c, 7, 71, 100
9, 120240, Note_off_c, 7, 71, 64
9, 120240, Note_on_c, 7, 69, 100
9, 120360, Note_off_c, 7, 69, 64
9, 120360, Note_on_c, 7, 72, 100
9, 120480, Note_off_c, 7, 72, 64
9, 120480, Note_on_c, 7, 67, 100
9, 120600, Note_off_c, 7, 67, 64
9, 120600, Note_on_c, 7, 72, 100
9, 120720, Note_off_c, 7, 72, 64
9, 120720, Note_on_c, 7, 65, 100
9, 120840, Note_off_c, 7, 65, 64
9, 120840, Note_on_c, 7, 72, 100
9, 120960, Note_off_c, 7, 72, 64
9, 120960, Note_on_c, 7, 64, 100
9, 121080, Note_off_c, 7, 64, 64
9, 121080, Note_on_c, 7, 72, 100
9, 121200, Note_off_c, 7, 72, 64
9, 121200, Note_on_c, 7, 63, 100
9, 122160, Note_off_c, 7, 63, 64
9, 122160, Note_on_c, 7, 83, 100
9, 122240, Note_off_c, 7, 83, 80
9, 122240, Note_on_c, 7, 84, 100
9, 122320, Note_off_c, 7, 84, 80
9, 122320, Note_on_c, 7, 83, 100
9, 122400, Note_off_c, 7, 83, 80
9, 122400, Note_on_c, 7, 81, 100
9, 122480, Note_off_c, 7, 81, 80
9, 122480, Note_on_c, 7, 83, 100
9, 122560, Note_off_c, 7, 83, 80
9, 122560, Note_on_c, 7, 81, 100
9, 122640, Note_off_c, 7, 81, 80
9, 122640, Note_on_c, 7, 79, 100
9, 122720, Note_off_c, 7, 79, 80
9, 122720, Note_on_c, 7, 81, 100
9, 122800, Note_off_c, 7, 81, 80
9, 122800, Note_on_c, 7, 79, 100
9, 122880, Note_off_c, 7, 79, 80
9, 122880, Note_on_c, 7, 77, 100
9, 122960, Note_off_c, 7, 77, 80
9, 122960, Note_on_c, 7, 79, 100
9, 123040, Note_off_c, 7, 79, 80
9, 123040, Note_on_c, 7, 77, 100
9, 123120, Note_off_c, 7, 77, 80
9, 123120, Note_on_c, 7, 75, 100
9, 123200, Note_off_c, 7, 75, 64
9, 123200, Note_on_c, 7, 78, 100
9, 123280, Note_off_c, 7, 78, 64
9, 123280, Note_on_c, 7, 83, 100
9, 123360, Note_off_c, 7, 83, 64
9, 123360, Note_on_c, 7, 81, 100
9, 123440, Note_off_c, 7, 81, 64
9, 123440, Note_on_c, 7, 77, 100
9, 123520, Note_off_c, 7, 77, 64
9, 123520, Note_on_c, 7, 72, 100
9, 123600, Note_off_c, 7, 72, 64
9, 123600, Note_on_c, 7, 71, 100
9, 123680, Note_off_c, 7, 71, 64
9, 123680, Note_on_c, 7, 69, 100
9, 123760, Note_off_c, 7, 69, 64
9, 123760, Note_on_c, 7, 77, 100
9, 123840, Note_off_c, 7, 77, 64
9, 123840, Note_on_c, 7, 75, 100
9, 123920, Note_off_c, 7, 75, 64
9, 123920, Note_on_c, 7, 71, 100
9, 124000, Note_off_c, 7, 71, 64
9, 124000, Note_on_c, 7, 66, 100
9, 124080, Note_off_c, 7, 66, 64
9, 124080, Note_on_c, 7, 75, 100
9, 124160, Note_off_c, 7, 75, 80
9, 124160, Note_on_c, 7, 71, 100
9, 124240, Note_off_c, 7, 71, 80
9, 124240, Note_on_c, 7, 75, 100
9, 124320, Note_off_c, 7, 75, 80
9, 124320, Note_on_c, 7, 79, 100
9, 124400, Note_off_c, 7, 79, 80
9, 124400, Note_on_c, 7, 75, 100
9, 124480, Note_off_c, 7, 75, 80
9, 124480, Note_on_c, 7, 79, 100
9, 124560, Note_off_c, 7, 79, 80
9, 124560, Note_on_c, 7, 83, 100
9, 124640, Note_off_c, 7, 83, 80
9, 124640, Note_on_c, 7, 79, 100
9, 124720, Note_off_c, 7, 79, 80
9, 124720, Note_on_c, 7, 83, 100
9, 124800, Note_off_c, 7, 83, 80
9, 124800, Note_on_c, 7, 85, 100
9, 124880, Note_off_c, 7, 85, 80
9, 124880, Note_on_c, 7, 81, 100
9, 124960, Note_off_c, 7, 81, 80
9, 124960, Note_on_c, 7, 85, 100
9, 125040, Note_off_c, 7, 85, 80
9, 125040, Note_on_c, 7, 87, 100
9, 125120, Note_off_c, 7, 87, 80
9, 125120, Note_on_c, 7, 88, 100
9, 125200, Note_off_c, 7, 88, 80
9, 125200, Note_on_c, 7, 87, 100
9, 125280, Note_off_c, 7, 87, 80
9, 125280, Note_on_c, 7, 85, 100
9, 125360, Note_off_c, 7, 85, 80
9, 125360, Note_on_c, 7, 87, 100
9, 125440, Note_off_c, 7, 87, 80
9, 125440, Note_on_c, 7, 85, 100
9, 125520, Note_off_c, 7, 85, 80
9, 125520, Note_on_c, 7, 83, 100
9, 126000, Note_off_c, 7, 83, 80
9, 126000, Note_on_c, 7, 83, 100
9, 126080, Note_off_c, 7, 83, 80
9, 126080, Note_on_c, 7, 84, 100
9, 126160, Note_off_c, 7, 84, 80
9, 126160, Note_on_c, 7, 83, 100
9, 126240, Note_off_c, 7, 83, 80
9, 126240, Note_on_c, 7, 81, 100
9, 126320, Note_off_c, 7, 81, 80
9, 126320, Note_on_c, 7, 83, 100
9, 126400, Note_off_c, 7, 83, 80
9, 126400, Note_on_c, 7, 81, 100
9, 126480, Note_off_c, 7, 81, 80
9, 126480, Note_on_c, 7, 79, 100
9, 126560, Note_off_c, 7, 79, 80
9, 126560, Note_on_c, 7, 81, 100
9, 126640, Note_off_c, 7, 81, 80
9, 126640, Note_on_c, 7, 79, 100
9, 126720, Note_off_c, 7, 79, 80
9, 126720, Note_on_c, 7, 77, 100
9, 126800, Note_off_c, 7, 77, 80
9, 126800, Note_on_c, 7, 79, 100
9, 126880, Note_off_c, 7, 79, 80
9, 126880, Note_on_c, 7, 77, 100
9, 126960, Note_off_c, 7, 77, 80
9, 126960, Note_on_c, 7, 75, 100
9, 127040, Note_off_c, 7, 75, 64
9, 127040, Note_on_c, 7, 78, 100
9, 127120, Note_off_c, 7, 78, 64
9, 127680, Note_on_c, 7, 75, 100
9, 127760, Note_off_c, 7, 75, 64
9, 127760, Note_on_c, 7, 71, 100
9, 127840, Note_off_c, 7, 71, 64
9, 127840, Note_on_c, 7, 66, 100
9, 127920, Note_off_c, 7, 66, 64
9, 127920, Note_on_c, 7, 75, 100
9, 128000, Note_off_c, 7, 75, 80
9, 128000, Note_on_c, 7, 71, 100
9, 128080, Note_off_c, 7, 71, 80
9, 128080, Note_on_c, 7, 75, 100
9, 128160, Note_off_c, 7, 75, 80
9, 128160, Note_on_c, 7, 79, 100
9, 128240, Note_off_c, 7, 79, 80
9, 128240, Note_on_c, 7, 75, 100
9, 128320, Note_off_c, 7, 75, 80
9, 128320, Note_on_c, 7, 79, 100
9, 128400, Note_off_c, 7, 79, 80
9, 128400, Note_on_c, 7, 83, 100
9, 128480, Note_off_c, 7, 83, 80
9, 128480, Note_on_c, 7, 79, 100
9, 128560, Note_off_c, 7, 79, 80
9, 128560, Note_on_c, 7, 83, 100
9, 128640, Note_off_c, 7, 83, 80
9, 128640, Note_on_c, 7, 85, 100
9, 128720, Note_off_c, 7, 85, 80
9, 128720, Note_on_c, 7, 81, 100
9, 128800, Note_off_c, 7, 81, 80
9, 128800, Note_on_c, 7, 85, 100
9, 128880, Note_off_c, 7, 85, 80
9, 128880, Note_on_c, 7, 87, 100
9, 128960, Note_off_c, 7, 87, 80
9, 128960, Note_on_c, 7, 88, 100
9, 129040, Note_off_c, 7, 88, 80
9, 129040, Note_on_c, 7, 87, 100
9, 129120, Note_off_c, 7, 87, 80
9, 129120, Note_on_c, 7, 85, 100
9, 129200, Note_off_c, 7, 85, 80
9, 129200, Note_on_c, 7, 87, 100
9, 129280, Note_off_c, 7, 87, 80
9, 129280, Note_on_c, 7, 85, 100
9, 129360, Note_off_c, 7, 85, 80
9, 129360, Note_on_c, 7, 83, 100
9, 129593, Note_off_c, 7, 83, 80
9, 246480, Program_c, 7, 80
9, 247680, Pitch_bend_c, 7, 9192
9, 247680, Note_on_c, 7, 54, 120
9, 247695, Pitch_bend_c, 7, 10192
9, 247710, Pitch_bend_c, 7, 11192
9, 247725, Pitch_bend_c, 7, 12192
9, 247740, Pitch_bend_c, 7, 13192
9, 247755, Pitch_bend_c, 7, 14192
9, 247770, Pitch_bend_c, 7, 15192
9, 247785, Pitch_bend_c, 7, 16192
9, 248400, Note_off_c, 7, 54, 64
9, 248400, Pitch_bend_c, 7, 9192
9, 248400, Note_on_c, 7, 52, 120
9, 248415, Pitch_bend_c, 7, 10192
9, 248430, Pitch_bend_c, 7, 11192
9, 248445, Pitch_bend_c, 7, 12192
9, 248460, Pitch_bend_c, 7, 13192
9, 248475, Pitch_bend_c, 7, 14192
9, 248490, Pitch_bend_c, 7, 15192
9, 248505, Pitch_bend_c, 7, 16192
9, 249600, Note_off_c, 7, 52, 64
9, 249600, Note_on_c, 7, 51, 120
9, 249600, Pitch_bend_c, 7, 8192
9, 250560, Note_off_c, 7, 51, 64
9, 250560, Note_on_c, 7, 49, 120
9, 251280, Note_off_c, 7, 49, 64
9, 251280, Note_on_c, 7, 47, 120
9, 251520, Note_off_c, 7, 47, 64
9, 251520, Note_on_c, 7, 45, 120
9, 251760, Note_off_c, 7, 45, 64
9, 251760, Note_on_c, 7, 44, 120
9, 252240, Note_off_c, 7, 44, 64
9, 297840, Note_on_c, 7, 88, 100
9, 299760, Note_off_c, 7, 88, 64
9, 299760, End_track
10, 0, Start_track
10, 0, Title_t, "Lead"
10, 0, MIDI_port, 0
10, 0, Channel_prefix, 8
10, 0, Control_c, 8, 7, 97
10, 0, Program_c, 8, 80
10, 40560, Note_on_c, 8, 79, 80
10, 40800, Note_off_c, 8, 79, 64
10, 40800, Note_on_c, 8, 79, 80
10, 40920, Note_off_c, 8, 79, 64
10, 40920, Note_on_c, 8, 91, 80
10, 41040, Note_off_c, 8, 91, 64
10, 41040, Note_on_c, 8, 89, 80
10, 41160, Note_off_c, 8, 89, 64
10, 41160, Note_on_c, 8, 84, 80
10, 41220, Note_off_c, 8, 84, 64
10, 41220, Note_on_c, 8, 79, 80
10, 41280, Note_off_c, 8, 79, 64
10, 41280, Note_on_c, 8, 77, 80
10, 41400, Note_off_c, 8, 77, 64
10, 41400, Note_on_c, 8, 72, 80
10, 41520, Note_off_c, 8, 72, 64
10, 41520, Note_on_c, 8, 72, 80
10, 41580, Note_off_c, 8, 72, 64
10, 41580, Note_on_c, 8, 76, 80
10, 41640, Note_off_c, 8, 76, 64
10, 41640, Note_on_c, 8, 79, 80
10, 41760, Note_off_c, 8, 79, 64
10, 41760, Note_on_c, 8, 84, 80
10, 41880, Note_off_c, 8, 84, 64
10, 41880, Note_on_c, 8, 86, 80
10, 41940, Note_off_c, 8, 86, 64
10, 41940, Note_on_c, 8, 88, 80
10, 42000, Note_off_c, 8, 88, 64
10, 42000, Note_on_c, 8, 86, 80
10, 43738, Note_off_c, 8, 86, 64
10, 122160, Note_on_c, 8, 83, 75
10, 122240, Note_off_c, 8, 83, 80
10, 122240, Note_on_c, 8, 84, 75
10, 122320, Note_off_c, 8, 84, 80
10, 122320, Note_on_c, 8, 83, 75
10, 122400, Note_off_c, 8, 83, 80
10, 122400, Note_on_c, 8, 81, 75
10, 122480, Note_off_c, 8, 81, 80
10, 122480, Note_on_c, 8, 83, 75
10, 122560, Note_off_c, 8, 83, 80
10, 122560, Note_on_c, 8, 81, 75
10, 122640, Note_off_c, 8, 81, 80
10, 122640, Note_on_c, 8, 79, 75
10, 122720, Note_off_c, 8, 79, 80
10, 122720, Note_on_c, 8, 81, 75
10, 122800, Note_off_c, 8, 81, 80
10, 122800, Note_on_c, 8, 79, 75
10, 122880, Note_off_c, 8, 79, 80
10, 122880, Note_on_c, 8, 77, 75
10, 122960, Note_off_c, 8, 77, 80
10, 122960, Note_on_c, 8, 79, 75
10, 123040, Note_off_c, 8, 79, 80
10, 123040, Note_on_c, 8, 77, 75
10, 123120, Note_off_c, 8, 77, 80
10, 123120, Note_on_c, 8, 75, 75
10, 123200, Note_off_c, 8, 75, 64
10, 123200, Note_on_c, 8, 78, 75
10, 123280, Note_off_c, 8, 78, 64
10, 123280, Note_on_c, 8, 83, 75
10, 123360, Note_off_c, 8, 83, 64
10, 123360, Note_on_c, 8, 81, 75
10, 123440, Note_off_c, 8, 81, 64
10, 123440, Note_on_c, 8, 77, 75
10, 123520, Note_off_c, 8, 77, 64
10, 123520, Note_on_c, 8, 72, 75
10, 123600, Note_off_c, 8, 72, 64
10, 123600, Note_on_c, 8, 71, 75
10, 123680, Note_off_c, 8, 71, 64
10, 123680, Note_on_c, 8, 69, 75
10, 123760, Note_off_c, 8, 69, 64
10, 123760, Note_on_c, 8, 77, 75
10, 123840, Note_off_c, 8, 77, 64
10, 123840, Note_on_c, 8, 75, 75
10, 123920, Note_off_c, 8, 75, 64
10, 123920, Note_on_c, 8, 71, 75
10, 124000, Note_off_c, 8, 71, 64
10, 124000, Note_on_c, 8, 66, 75
10, 124080, Note_off_c, 8, 66, 64
10, 124080, Note_on_c, 8, 75, 75
10, 124160, Note_off_c, 8, 75, 80
10, 124160, Note_on_c, 8, 71, 75
10, 124240, Note_off_c, 8, 71, 80
10, 124240, Note_on_c, 8, 75, 75
10, 124320, Note_off_c, 8, 75, 80
10, 124320, Note_on_c, 8, 79, 75
10, 124400, Note_off_c, 8, 79, 80
10, 124400, Note_on_c, 8, 75, 75
10, 124480, Note_off_c, 8, 75, 80
10, 124480, Note_on_c, 8, 79, 75
10, 124560, Note_off_c, 8, 79, 80
10, 124560, Note_on_c, 8, 83, 75
10, 124640, Note_off_c, 8, 83, 80
10, 124640, Note_on_c, 8, 79, 75
10, 124720, Note_off_c, 8, 79, 80
10, 124720, Note_on_c, 8, 83, 75
10, 124800, Note_off_c, 8, 83, 80
10, 124800, Note_on_c, 8, 85, 75
10, 124880, Note_off_c, 8, 85, 80
10, 124880, Note_on_c, 8, 81, 75
10, 124960, Note_off_c, 8, 81, 80
10, 124960, Note_on_c, 8, 85, 75
10, 125040, Note_off_c, 8, 85, 80
10, 125040, Note_on_c, 8, 87, 75
10, 125120, Note_off_c, 8, 87, 80
10, 125120, Note_on_c, 8, 88, 75
10, 125200, Note_off_c, 8, 88, 80
10, 125200, Note_on_c, 8, 87, 75
10, 125280, Note_off_c, 8, 87, 80
10, 125280, Note_on_c, 8, 85, 75
10, 125360, Note_off_c, 8, 85, 80
10, 125360, Note_on_c, 8, 87, 75
10, 125440, Note_off_c, 8, 87, 80
10, 125440, Note_on_c, 8, 85, 75
10, 125520, Note_off_c, 8, 85, 80
10, 125520, Note_on_c, 8, 83, 75
10, 126000, Note_off_c, 8, 83, 80
10, 126000, Note_on_c, 8, 83, 75
10, 126080, Note_off_c, 8, 83, 80
10, 126080, Note_on_c, 8, 84, 75
10, 126160, Note_off_c, 8, 84, 80
10, 126160, Note_on_c, 8, 83, 75
10, 126240, Note_off_c, 8, 83, 80
10, 126240, Note_on_c, 8, 81, 75
10, 126320, Note_off_c, 8, 81, 80
10, 126320, Note_on_c, 8, 83, 75
10, 126400, Note_off_c, 8, 83, 80
10, 126400, Note_on_c, 8, 81, 75
10, 126480, Note_off_c, 8, 81, 80
10, 126480, Note_on_c, 8, 79, 75
10, 126560, Note_off_c, 8, 79, 80
10, 126560, Note_on_c, 8, 81, 75
10, 126640, Note_off_c, 8, 81, 80
10, 126640, Note_on_c, 8, 79, 75
10, 126720, Note_off_c, 8, 79, 80
10, 126720, Note_on_c, 8, 77, 75
10, 126800, Note_off_c, 8, 77, 80
10, 126800, Note_on_c, 8, 79, 75
10, 126880, Note_off_c, 8, 79, 80
10, 126880, Note_on_c, 8, 77, 75
10, 126960, Note_off_c, 8, 77, 80
10, 126960, Note_on_c, 8, 75, 75
10, 127040, Note_off_c, 8, 75, 64
10, 127040, Note_on_c, 8, 78, 75
10, 127120, Note_off_c, 8, 78, 64
10, 127680, Note_on_c, 8, 75, 75
10, 127760, Note_off_c, 8, 75, 64
10, 127760, Note_on_c, 8, 71, 75
10, 127840, Note_off_c, 8, 71, 64
10, 127840, Note_on_c, 8, 66, 75
10, 127920, Note_off_c, 8, 66, 64
10, 127920, Note_on_c, 8, 75, 75
10, 128000, Note_off_c, 8, 75, 80
10, 128000, Note_on_c, 8, 71, 75
10, 128080, Note_off_c, 8, 71, 80
10, 128080, Note_on_c, 8, 75, 75
10, 128160, Note_off_c, 8, 75, 80
10, 128160, Note_on_c, 8, 79, 75
10, 128240, Note_off_c, 8, 79, 80
10, 128240, Note_on_c, 8, 75, 75
10, 128320, Note_off_c, 8, 75, 80
10, 128320, Note_on_c, 8, 79, 75
10, 128400, Note_off_c, 8, 79, 80
10, 128400, Note_on_c, 8, 83, 75
10, 128480, Note_off_c, 8, 83, 80
10, 128480, Note_on_c, 8, 79, 75
10, 128560, Note_off_c, 8, 79, 80
10, 128560, Note_on_c, 8, 83, 75
10, 128640, Note_off_c, 8, 83, 80
10, 128640, Note_on_c, 8, 85, 75
10, 128720, Note_off_c, 8, 85, 80
10, 128720, Note_on_c, 8, 81, 75
10, 128800, Note_off_c, 8, 81, 80
10, 128800, Note_on_c, 8, 85, 75
10, 128880, Note_off_c, 8, 85, 80
10, 128880, Note_on_c, 8, 87, 75
10, 128960, Note_off_c, 8, 87, 80
10, 128960, Note_on_c, 8, 88, 75
10, 129040, Note_off_c, 8, 88, 80
10, 129040, Note_on_c, 8, 87, 75
10, 129120, Note_off_c, 8, 87, 80
10, 129120, Note_on_c, 8, 85, 75
10, 129200, Note_off_c, 8, 85, 80
10, 129200, Note_on_c, 8, 87, 75
10, 129280, Note_off_c, 8, 87, 80
10, 129280, Note_on_c, 8, 85, 75
10, 129360, Note_off_c, 8, 85, 80
10, 129360, Note_on_c, 8, 83, 100
10, 129480, Note_off_c, 8, 83, 64
10, 129600, Note_on_c, 8, 81, 100
10, 130080, Note_off_c, 8, 81, 64
10, 130080, Note_on_c, 8, 79, 100
10, 130200, Note_off_c, 8, 79, 64
10, 130320, Note_on_c, 8, 77, 100
10, 130800, Note_off_c, 8, 77, 64
10, 130800, Note_on_c, 8, 74, 100
10, 131280, Note_off_c, 8, 74, 64
10, 229680, Pitch_bend_c, 8, 192
10, 229680, Note_on_c, 8, 52, 100
10, 229695, Pitch_bend_c, 8, 1192
10, 229710, Pitch_bend_c, 8, 2192
10, 229725, Pitch_bend_c, 8, 3192
10, 229740, Pitch_bend_c, 8, 4192
10, 229755, Pitch_bend_c, 8, 5192
10, 229770, Pitch_bend_c, 8, 6192
10, 229785, Pitch_bend_c, 8, 7192
10, 229800, Pitch_bend_c, 8, 8192
10, 230873, Note_off_c, 8, 52, 64
10, 230880, Note_on_c, 8, 54, 100
10, 231120, Note_off_c, 8, 54, 64
10, 231120, Note_on_c, 8, 56, 100
10, 231360, Note_off_c, 8, 56, 64
10, 231360, Note_on_c, 8, 57, 100
10, 232320, Note_off_c, 8, 57, 64
10, 232320, Pitch_bend_c, 8, 192
10, 232320, Note_on_c, 8, 61, 100
10, 232335, Pitch_bend_c, 8, 1192
10, 232350, Pitch_bend_c, 8, 2192
10, 232365, Pitch_bend_c, 8, 3192
10, 232380, Pitch_bend_c, 8, 4192
10, 232395, Pitch_bend_c, 8, 5192
10, 232410, Pitch_bend_c, 8, 6192
10, 232425, Pitch_bend_c, 8, 7192
10, 232440, Pitch_bend_c, 8, 8192
10, 232800, Note_off_c, 8, 61, 64
10, 232800, Note_on_c, 8, 59, 100
10, 232920, Note_off_c, 8, 59, 64
10, 232920, Note_on_c, 8, 57, 100
10, 233040, Note_on_c, 8, 59, 100
10, 233050, Note_off_c, 8, 57, 64
10, 234000, Note_off_c, 8, 59, 64
10, 234000, Note_on_c, 8, 66, 100
10, 234240, Pitch_bend_c, 8, 9192
10, 234255, Pitch_bend_c, 8, 10192
10, 234270, Pitch_bend_c, 8, 11192
10, 234285, Pitch_bend_c, 8, 12192
10, 234300, Pitch_bend_c, 8, 13192
10, 234315, Pitch_bend_c, 8, 14192
10, 234330, Pitch_bend_c, 8, 15192
10, 234345, Pitch_bend_c, 8, 16192
10, 234480, Pitch_bend_c, 8, 15192
10, 234495, Pitch_bend_c, 8, 14192
10, 234510, Pitch_bend_c, 8, 13192
10, 234525, Pitch_bend_c, 8, 12192
10, 234540, Pitch_bend_c, 8, 11192
10, 234555, Pitch_bend_c, 8, 10192
10, 234560, Pitch_bend_c, 8, 9192
10, 234575, Pitch_bend_c, 8, 8192
10, 234960, Note_off_c, 8, 66, 64
10, 234960, Note_on_c, 8, 78, 100
10, 235200, Pitch_bend_c, 8, 9192
10, 235215, Pitch_bend_c, 8, 10192
10, 235230, Pitch_bend_c, 8, 11192
10, 235245, Pitch_bend_c, 8, 12192
10, 235260, Pitch_bend_c, 8, 13192
10, 235275, Pitch_bend_c, 8, 14192
10, 235290, Pitch_bend_c, 8, 15192
10, 235305, Pitch_bend_c, 8, 16192
10, 235440, Pitch_bend_c, 8, 15192
10, 235455, Pitch_bend_c, 8, 14192
10, 235470, Pitch_bend_c, 8, 13192
10, 235485, Pitch_bend_c, 8, 12192
10, 235500, Pitch_bend_c, 8, 11192
10, 235515, Pitch_bend_c, 8, 10192
10, 235520, Pitch_bend_c, 8, 9192
10, 235535, Pitch_bend_c, 8, 8192
10, 235751, Note_off_c, 8, 78, 64
10, 235760, Note_on_c, 8, 76, 100
10, 236080, Note_off_c, 8, 76, 64
10, 236080, Note_on_c, 8, 75, 100
10, 236400, Note_off_c, 8, 75, 64
10, 236400, Pitch_bend_c, 8, 192
10, 236400, Note_on_c, 8, 75, 100
10, 236415, Pitch_bend_c, 8, 1192
10, 236430, Pitch_bend_c, 8, 2192
10, 236445, Pitch_bend_c, 8, 3192
10, 236460, Pitch_bend_c, 8, 4192
10, 236475, Pitch_bend_c, 8, 5192
10, 236490, Pitch_bend_c, 8, 6192
10, 236505, Pitch_bend_c, 8, 7192
10, 236520, Pitch_bend_c, 8, 8192
10, 237113, Note_off_c, 8, 75, 64
10, 237120, Note_on_c, 8, 73, 100
10, 237240, Note_off_c, 8, 73, 64
10, 237240, Note_on_c, 8, 71, 100
10, 237360, Note_off_c, 8, 71, 64
10, 237360, Pitch_bend_c, 8, 192
10, 237360, Note_on_c, 8, 68, 100
10, 237375, Pitch_bend_c, 8, 1192
10, 237390, Pitch_bend_c, 8, 2192
10, 237405, Pitch_bend_c, 8, 3192
10, 237420, Pitch_bend_c, 8, 4192
10, 237435, Pitch_bend_c, 8, 5192
10, 237450, Pitch_bend_c, 8, 6192
10, 237465, Pitch_bend_c, 8, 7192
10, 237480, Pitch_bend_c, 8, 8192
10, 237600, Pitch_bend_c, 8, 192
10, 237615, Pitch_bend_c, 8, 1192
10, 237630, Pitch_bend_c, 8, 2192
10, 237645, Pitch_bend_c, 8, 3192
10, 237660, Pitch_bend_c, 8, 4192
10, 237675, Pitch_bend_c, 8, 5192
10, 237690, Pitch_bend_c, 8, 6192
10, 237705, Pitch_bend_c, 8, 7192
10, 237720, Pitch_bend_c, 8, 8192
10, 238320, Note_off_c, 8, 68, 64
10, 238320, Note_on_c, 8, 68, 100
10, 238320, Pitch_bend_c, 8, 192
10, 238335, Pitch_bend_c, 8, 1192
10, 238350, Pitch_bend_c, 8, 2192
10, 238365, Pitch_bend_c, 8, 3192
10, 238380, Pitch_bend_c, 8, 4192
10, 238395, Pitch_bend_c, 8, 5192
10, 238410, Pitch_bend_c, 8, 6192
10, 238425, Pitch_bend_c, 8, 7192
10, 238440, Pitch_bend_c, 8, 8192
10, 238560, Note_off_c, 8, 68, 64
10, 238560, Note_on_c, 8, 66, 100
10, 238800, Note_off_c, 8, 66, 64
10, 238800, Note_on_c, 8, 64, 100
10, 239040, Note_off_c, 8, 64, 64
10, 239040, Note_on_c, 8, 69, 100
10, 239760, Note_off_c, 8, 69, 64
10, 239760, Note_on_c, 8, 71, 100
10, 240000, Note_off_c, 8, 71, 64
10, 240000, Note_on_c, 8, 73, 100
10, 240240, Note_off_c, 8, 73, 64
10, 240240, Pitch_bend_c, 8, 192
10, 240240, Note_on_c, 8, 64, 100
10, 240255, Pitch_bend_c, 8, 1192
10, 240270, Pitch_bend_c, 8, 2192
10, 240285, Pitch_bend_c, 8, 3192
10, 240300, Pitch_bend_c, 8, 4192
10, 240315, Pitch_bend_c, 8, 5192
10, 240330, Pitch_bend_c, 8, 6192
10, 240345, Pitch_bend_c, 8, 7192
10, 240360, Pitch_bend_c, 8, 8192
10, 240480, Note_off_c, 8, 64, 64
10, 240480, Note_on_c, 8, 66, 100
10, 240600, Note_off_c, 8, 66, 64
10, 240600, Note_on_c, 8, 68, 100
10, 240720, Note_off_c, 8, 68, 64
10, 240720, Note_on_c, 8, 66, 100
10, 241913, Note_off_c, 8, 66, 64
10, 241920, Note_on_c, 8, 64, 100
10, 242160, Note_off_c, 8, 64, 64
10, 242160, Note_on_c, 8, 63, 100
10, 242280, Note_off_c, 8, 63, 64
10, 242280, Note_on_c, 8, 61, 100
10, 242400, Note_off_c, 8, 61, 64
10, 242400, Note_on_c, 8, 59, 100
10, 243360, Note_off_c, 8, 59, 64
10, 243360, Note_on_c, 8, 71, 100
10, 243360, Pitch_bend_c, 8, 192
10, 243375, Pitch_bend_c, 8, 1192
10, 243390, Pitch_bend_c, 8, 2192
10, 243405, Pitch_bend_c, 8, 3192
10, 243420, Pitch_bend_c, 8, 4192
10, 243435, Pitch_bend_c, 8, 5192
10, 243450, Pitch_bend_c, 8, 6192
10, 243465, Pitch_bend_c, 8, 7192
10, 243480, Pitch_bend_c, 8, 8192
10, 243600, Note_off_c, 8, 71, 64
10, 243600, Note_on_c, 8, 69, 100
10, 243680, Note_off_c, 8, 69, 64
10, 243680, Note_on_c, 8, 68, 100
10, 243760, Note_off_c, 8, 68, 64
10, 243760, Note_on_c, 8, 66, 100
10, 243840, Note_off_c, 8, 66, 64
10, 243840, Note_on_c, 8, 64, 100
10, 243920, Note_off_c, 8, 64, 64
10, 243920, Note_on_c, 8, 63, 100
10, 244000, Note_off_c, 8, 63, 64
10, 244000, Note_on_c, 8, 61, 100
10, 244080, Note_off_c, 8, 61, 64
10, 244080, Note_on_c, 8, 59, 100
10, 244140, Note_off_c, 8, 59, 64
10, 244140, Note_on_c, 8, 57, 100
10, 244200, Note_off_c, 8, 57, 64
10, 244200, Note_on_c, 8, 56, 100
10, 244260, Note_off_c, 8, 56, 64
10, 244260, Note_on_c, 8, 54, 100
10, 244320, Note_off_c, 8, 54, 64
10, 244320, Note_on_c, 8, 52, 100
10, 244380, Note_off_c, 8, 52, 64
10, 244380, Note_on_c, 8, 51, 100
10, 244440, Note_off_c, 8, 51, 64
10, 244440, Note_on_c, 8, 49, 100
10, 244500, Note_off_c, 8, 49, 64
10, 244500, Note_on_c, 8, 47, 100
10, 244560, Note_off_c, 8, 47, 64
10, 244560, Note_on_c, 8, 52, 100
10, 245117, Note_off_c, 8, 52, 64
10, 245120, Note_on_c, 8, 56, 100
10, 245200, Note_off_c, 8, 56, 64
10, 245200, Note_on_c, 8, 61, 100
10, 245280, Note_off_c, 8, 61, 64
10, 245280, Note_on_c, 8, 64, 100
10, 245360, Note_off_c, 8, 64, 64
10, 245360, Note_on_c, 8, 68, 100
10, 245440, Note_off_c, 8, 68, 64
10, 245440, Note_on_c, 8, 73, 100
10, 245520, Note_off_c, 8, 73, 64
10, 245520, Note_on_c, 8, 76, 100
10, 245580, Note_off_c, 8, 76, 64
10, 245580, Note_on_c, 8, 80, 100
10, 245640, Note_off_c, 8, 80, 64
10, 245640, Note_on_c, 8, 85, 100
10, 245700, Note_off_c, 8, 85, 64
10, 245700, Note_on_c, 8, 88, 100
10, 246360, Note_on_c, 8, 52, 100
10, 246362, Note_off_c, 8, 88, 64
10, 246640, Note_on_c, 8, 57, 100
10, 246645, Note_off_c, 8, 52, 64
10, 246720, Note_off_c, 8, 57, 64
10, 246720, Note_on_c, 8, 61, 100
10, 246800, Note_off_c, 8, 61, 64
10, 246800, Note_on_c, 8, 64, 100
10, 246880, Note_off_c, 8, 64, 64
10, 246880, Note_on_c, 8, 69, 100
10, 246960, Note_off_c, 8, 69, 64
10, 246960, Note_on_c, 8, 73, 100
10, 247040, Note_off_c, 8, 73, 64
10, 247040, Note_on_c, 8, 76, 100
10, 247120, Note_off_c, 8, 76, 64
10, 247120, Note_on_c, 8, 81, 100
10, 247200, Note_off_c, 8, 81, 64
10, 247200, Note_on_c, 8, 85, 100
10, 247440, Note_on_c, 8, 88, 100
10, 247447, Note_off_c, 8, 85, 64
10, 247760, Note_off_c, 8, 88, 64
10, 247760, Note_on_c, 8, 87, 100
10, 248080, Note_off_c, 8, 87, 64
10, 248080, Note_on_c, 8, 88, 100
10, 248400, Note_off_c, 8, 88, 64
10, 248400, Pitch_bend_c, 8, 9192
10, 248400, Note_on_c, 8, 90, 100
10, 248415, Pitch_bend_c, 8, 10192
10, 248430, Pitch_bend_c, 8, 11192
10, 248445, Pitch_bend_c, 8, 12192
10, 248460, Pitch_bend_c, 8, 13192
10, 248475, Pitch_bend_c, 8, 14192
10, 248490, Pitch_bend_c, 8, 15192
10, 248505, Pitch_bend_c, 8, 16192
10, 248640, Pitch_bend_c, 8, 15192
10, 248655, Pitch_bend_c, 8, 14192
10, 248670, Pitch_bend_c, 8, 13192
10, 248685, Pitch_bend_c, 8, 12192
10, 248700, Pitch_bend_c, 8, 11192
10, 248715, Pitch_bend_c, 8, 10192
10, 248720, Pitch_bend_c, 8, 9192
10, 248735, Pitch_bend_c, 8, 8192
10, 249995, Note_off_c, 8, 90, 64
10, 250000, Pitch_bend_c, 8, 9192
10, 250000, Note_on_c, 8, 90, 100
10, 250015, Pitch_bend_c, 8, 10192
10, 250030, Pitch_bend_c, 8, 11192
10, 250045, Pitch_bend_c, 8, 12192
10, 250060, Pitch_bend_c, 8, 13192
10, 250075, Pitch_bend_c, 8, 14192
10, 250090, Pitch_bend_c, 8, 15192
10, 250105, Pitch_bend_c, 8, 16192
10, 250320, Pitch_bend_c, 8, 192
10, 250320, Note_on_c, 8, 87, 100
10, 250325, Note_off_c, 8, 90, 64
10, 250335, Pitch_bend_c, 8, 1192
10, 250350, Pitch_bend_c, 8, 2192
10, 250365, Pitch_bend_c, 8, 3192
10, 250380, Pitch_bend_c, 8, 4192
10, 250395, Pitch_bend_c, 8, 5192
10, 250410, Pitch_bend_c, 8, 6192
10, 250425, Pitch_bend_c, 8, 7192
10, 250440, Pitch_bend_c, 8, 8192
10, 250560, Note_off_c, 8, 87, 64
10, 250560, Note_on_c, 8, 85, 100
10, 250800, Note_off_c, 8, 85, 64
10, 250800, Note_on_c, 8, 83, 100
10, 251040, Note_off_c, 8, 83, 64
10, 251040, Pitch_bend_c, 8, 192
10, 251040, Note_on_c, 8, 80, 100
10, 251055, Pitch_bend_c, 8, 1192
10, 251070, Pitch_bend_c, 8, 2192
10, 251085, Pitch_bend_c, 8, 3192
10, 251100, Pitch_bend_c, 8, 4192
10, 251115, Pitch_bend_c, 8, 5192
10, 251130, Pitch_bend_c, 8, 6192
10, 251145, Pitch_bend_c, 8, 7192
10, 251160, Pitch_bend_c, 8, 8192
10, 251280, Note_off_c, 8, 80, 64
10, 251280, Pitch_bend_c, 8, 9192
10, 251280, Note_on_c, 8, 73, 100
10, 251295, Pitch_bend_c, 8, 10192
10, 251310, Pitch_bend_c, 8, 11192
10, 251325, Pitch_bend_c, 8, 12192
10, 251340, Pitch_bend_c, 8, 13192
10, 251355, Pitch_bend_c, 8, 14192
10, 251370, Pitch_bend_c, 8, 15192
10, 251385, Pitch_bend_c, 8, 16192
10, 251630, Note_off_c, 8, 73, 64
10, 251640, Note_on_c, 8, 73, 100
10, 251640, Pitch_bend_c, 8, 8192
10, 251880, Note_off_c, 8, 73, 64
10, 251880, Note_on_c, 8, 71, 100
10, 252000, Note_off_c, 8, 71, 64
10, 252000, Note_on_c, 8, 76, 100
10, 252558, Note_off_c, 8, 76, 64
10, 252560, Note_on_c, 8, 73, 100
10, 252640, Note_off_c, 8, 73, 64
10, 252640, Note_on_c, 8, 68, 100
10, 252720, Note_off_c, 8, 68, 64
10, 252720, Note_on_c, 8, 73, 100
10, 252840, Note_off_c, 8, 73, 64
10, 252840, Note_on_c, 8, 76, 100
10, 252960, Note_off_c, 8, 76, 64
10, 252960, Note_on_c, 8, 73, 100
10, 253080, Note_off_c, 8, 73, 64
10, 253080, Note_on_c, 8, 68, 100
10, 253200, Note_off_c, 8, 68, 64
10, 253200, Note_on_c, 8, 64, 100
10, 253280, Note_off_c, 8, 64, 64
10, 253280, Note_on_c, 8, 75, 100
10, 253360, Note_off_c, 8, 75, 64
10, 253360, Note_on_c, 8, 78, 100
10, 253440, Note_off_c, 8, 78, 64
10, 253440, Note_on_c, 8, 75, 100
10, 253500, Note_off_c, 8, 75, 64
10, 253500, Note_on_c, 8, 68, 100
10, 253560, Note_off_c, 8, 68, 64
10, 253560, Note_on_c, 8, 64, 100
10, 253620, Note_off_c, 8, 64, 64
10, 253620, Note_on_c, 8, 73, 100
10, 253680, Note_off_c, 8, 73, 64
10, 253680, Note_on_c, 8, 76, 100
10, 253740, Note_off_c, 8, 76, 64
10, 253740, Note_on_c, 8, 73, 100
10, 253800, Note_off_c, 8, 73, 64
10, 253800, Note_on_c, 8, 68, 100
10, 253860, Note_off_c, 8, 68, 64
10, 253860, Note_on_c, 8, 64, 100
10, 253920, Note_off_c, 8, 64, 64
10, 253920, Note_on_c, 8, 75, 100
10, 253980, Note_off_c, 8, 75, 64
10, 253980, Note_on_c, 8, 78, 100
10, 254040, Note_off_c, 8, 78, 64
10, 254040, Note_on_c, 8, 75, 100
10, 254100, Note_off_c, 8, 75, 64
10, 254100, Note_on_c, 8, 68, 100
10, 254160, Note_off_c, 8, 68, 64
10, 254160, Note_on_c, 8, 64, 100
10, 254280, Note_off_c, 8, 64, 64
10, 254280, Note_on_c, 8, 80, 100
10, 254400, Note_off_c, 8, 80, 64
10, 254400, Note_on_c, 8, 73, 100
10, 254460, Note_on_c, 8, 68, 100
10, 254480, Note_off_c, 8, 73, 64
10, 254520, Note_off_c, 8, 68, 64
10, 254520, Note_on_c, 8, 75, 100
10, 254580, Note_off_c, 8, 75, 64
10, 254580, Note_on_c, 8, 78, 100
10, 254640, Note_off_c, 8, 78, 64
10, 254640, Note_on_c, 8, 75, 100
10, 254700, Note_off_c, 8, 75, 64
10, 254700, Note_on_c, 8, 73, 100
10, 254760, Note_off_c, 8, 73, 64
10, 254760, Note_on_c, 8, 68, 100
10, 254820, Note_off_c, 8, 68, 64
10, 254820, Note_on_c, 8, 76, 100
10, 254880, Note_off_c, 8, 76, 64
10, 254880, Note_on_c, 8, 80, 100
10, 254960, Note_off_c, 8, 80, 64
10, 254960, Note_on_c, 8, 76, 100
10, 255040, Note_off_c, 8, 76, 64
10, 255040, Note_on_c, 8, 73, 100
10, 255120, Note_off_c, 8, 73, 64
10, 255120, Note_on_c, 8, 68, 100
10, 255180, Note_off_c, 8, 68, 64
10, 255180, Note_on_c, 8, 78, 100
10, 255240, Note_off_c, 8, 78, 64
10, 255240, Note_on_c, 8, 81, 100
10, 255300, Note_off_c, 8, 81, 64
10, 255300, Note_on_c, 8, 78, 100
10, 255360, Note_off_c, 8, 78, 64
10, 255360, Note_on_c, 8, 75, 100
10, 255420, Note_on_c, 8, 68, 100
10, 255425, Note_off_c, 8, 75, 64
10, 255574, Note_off_c, 8, 68, 64
10, 255600, Pitch_bend_c, 8, 9192
10, 255600, Note_on_c, 8, 81, 100
10, 255635, Pitch_bend_c, 8, 10192
10, 255670, Pitch_bend_c, 8, 11192
10, 255705, Pitch_bend_c, 8, 12192
10, 255740, Pitch_bend_c, 8, 13192
10, 255775, Pitch_bend_c, 8, 14192
10, 255810, Pitch_bend_c, 8, 15192
10, 255845, Pitch_bend_c, 8, 16192
10, 256313, Note_off_c, 8, 81, 64
10, 256320, Note_on_c, 8, 81, 100
10, 256320, Pitch_bend_c, 8, 8192
10, 256440, Note_off_c, 8, 81, 64
10, 256440, Note_on_c, 8, 80, 100
10, 256560, Note_off_c, 8, 80, 64
10, 256560, Note_on_c, 8, 78, 100
10, 257040, Control_c, 8, 1, 127
10, 257520, Note_off_c, 8, 78, 64
10, 257520, Note_on_c, 8, 76, 100
10, 257520, Control_c, 8, 1, 0
10, 257640, Note_off_c, 8, 76, 64
10, 257640, Note_on_c, 8, 75, 100
10, 257760, Note_off_c, 8, 75, 64
10, 257760, Note_on_c, 8, 73, 100
10, 257840, Note_off_c, 8, 73, 64
10, 257840, Note_on_c, 8, 71, 100
10, 257920, Note_off_c, 8, 71, 64
10, 257920, Note_on_c, 8, 83, 100
10, 258000, Note_off_c, 8, 83, 64
10, 258000, Note_on_c, 8, 78, 100
10, 258080, Note_off_c, 8, 78, 64
10, 258080, Note_on_c, 8, 75, 100
10, 258160, Note_off_c, 8, 75, 64
10, 258160, Note_on_c, 8, 71, 100
10, 258240, Note_off_c, 8, 71, 64
10, 258240, Note_on_c, 8, 66, 100
10, 258300, Note_off_c, 8, 66, 64
10, 258300, Note_on_c, 8, 71, 100
10, 258360, Note_off_c, 8, 71, 64
10, 258360, Note_on_c, 8, 66, 100
10, 258420, Note_off_c, 8, 66, 64
10, 258420, Note_on_c, 8, 63, 100
10, 258480, Note_off_c, 8, 63, 64
10, 258480, Note_on_c, 8, 59, 100
10, 258540, Note_off_c, 8, 59, 64
10, 258540, Note_on_c, 8, 54, 100
10, 258600, Note_off_c, 8, 54, 64
10, 258600, Note_on_c, 8, 59, 100
10, 258660, Note_off_c, 8, 59, 64
10, 258660, Note_on_c, 8, 54, 100
10, 258720, Note_off_c, 8, 54, 64
10, 258720, Note_on_c, 8, 51, 100
10, 258840, Note_off_c, 8, 51, 64
10, 258840, Note_on_c, 8, 47, 100
10, 258960, Note_off_c, 8, 47, 64
10, 258960, Pitch_bend_c, 8, 192
10, 258960, Note_on_c, 8, 42, 100
10, 259000, Pitch_bend_c, 8, 2192
10, 259020, Pitch_bend_c, 8, 4192
10, 259040, Pitch_bend_c, 8, 6192
10, 259060, Pitch_bend_c, 8, 8192
10, 259200, Pitch_bend_c, 8, 7192
10, 259230, Pitch_bend_c, 8, 6192
10, 259260, Pitch_bend_c, 8, 5192
10, 259290, Pitch_bend_c, 8, 4192
10, 259320, Pitch_bend_c, 8, 3192
10, 259350, Pitch_bend_c, 8, 2192
10, 259380, Pitch_bend_c, 8, 1192
10, 259410, Pitch_bend_c, 8, 192
10, 259440, Note_off_c, 8, 42, 64
10, 259440, Pitch_bend_c, 8, 192
10, 259440, Pitch_bend_c, 8, 8192
10, 259440, Note_on_c, 8, 52, 100
10, 259455, Pitch_bend_c, 8, 1192
10, 259470, Pitch_bend_c, 8, 2192
10, 259485, Pitch_bend_c, 8, 3192
10, 259500, Pitch_bend_c, 8, 4192
10, 259515, Pitch_bend_c, 8, 5192
10, 259530, Pitch_bend_c, 8, 6192
10, 259545, Pitch_bend_c, 8, 7192
10, 259560, Pitch_bend_c, 8, 8192
10, 260153, Note_off_c, 8, 52, 64
10, 260160, Note_on_c, 8, 49, 100
10, 260400, Note_off_c, 8, 49, 64
10, 260400, Note_on_c, 8, 52, 100
10, 260640, Note_off_c, 8, 52, 64
10, 260640, Note_on_c, 8, 54, 100
10, 260880, Note_off_c, 8, 54, 64
10, 260880, Pitch_bend_c, 8, 192
10, 260880, Note_on_c, 8, 56, 100
10, 260895, Pitch_bend_c, 8, 1192
10, 260910, Pitch_bend_c, 8, 2192
10, 260925, Pitch_bend_c, 8, 3192
10, 260940, Pitch_bend_c, 8, 4192
10, 260955, Pitch_bend_c, 8, 5192
10, 260970, Pitch_bend_c, 8, 6192
10, 260985, Pitch_bend_c, 8, 7192
10, 261000, Pitch_bend_c, 8, 8192
10, 261120, Note_off_c, 8, 56, 64
10, 261120, Pitch_bend_c, 8, 9192
10, 261120, Note_on_c, 8, 54, 100
10, 261135, Pitch_bend_c, 8, 10192
10, 261150, Pitch_bend_c, 8, 11192
10, 261165, Pitch_bend_c, 8, 12192
10, 261180, Pitch_bend_c, 8, 13192
10, 261195, Pitch_bend_c, 8, 14192
10, 261210, Pitch_bend_c, 8, 15192
10, 261225, Pitch_bend_c, 8, 16192
10, 261360, Pitch_bend_c, 8, 15192
10, 261375, Pitch_bend_c, 8, 14192
10, 261390, Pitch_bend_c, 8, 13192
10, 261405, Pitch_bend_c, 8, 12192
10, 261420, Pitch_bend_c, 8, 11192
10, 261435, Pitch_bend_c, 8, 10192
10, 261440, Pitch_bend_c, 8, 9192
10, 261455, Pitch_bend_c, 8, 8192
10, 262080, Note_off_c, 8, 54, 64
10, 262080, Note_on_c, 8, 52, 100
10, 262320, Note_off_c, 8, 52, 64
10, 262320, Note_on_c, 8, 51, 100
10, 262440, Note_off_c, 8, 51, 64
10, 262440, Note_on_c, 8, 49, 100
10, 262560, Note_off_c, 8, 49, 64
10, 262560, Note_on_c, 8, 47, 100
10, 263280, Note_on_c, 8, 75, 100
10, 263280, Pitch_bend_c, 8, 192
10, 263287, Note_off_c, 8, 47, 64
10, 263295, Pitch_bend_c, 8, 1192
10, 263310, Pitch_bend_c, 8, 2192
10, 263325, Pitch_bend_c, 8, 3192
10, 263340, Pitch_bend_c, 8, 4192
10, 263355, Pitch_bend_c, 8, 5192
10, 263370, Pitch_bend_c, 8, 6192
10, 263385, Pitch_bend_c, 8, 7192
10, 263400, Pitch_bend_c, 8, 8192
10, 264000, Note_off_c, 8, 75, 64
10, 264000, Note_on_c, 8, 76, 100
10, 264720, Note_off_c, 8, 76, 64
10, 264720, Pitch_bend_c, 8, 9192
10, 264720, Note_on_c, 8, 71, 100
10, 264735, Pitch_bend_c, 8, 10192
10, 264750, Pitch_bend_c, 8, 11192
10, 264765, Pitch_bend_c, 8, 12192
10, 264780, Pitch_bend_c, 8, 13192
10, 264795, Pitch_bend_c, 8, 14192
10, 264810, Pitch_bend_c, 8, 15192
10, 264825, Pitch_bend_c, 8, 16192
10, 265680, Pitch_bend_c, 8, 15192
10, 265710, Pitch_bend_c, 8, 14192
10, 265740, Pitch_bend_c, 8, 13192
10, 265770, Pitch_bend_c, 8, 12192
10, 265800, Pitch_bend_c, 8, 11192
10, 265830, Pitch_bend_c, 8, 10192
10, 265860, Pitch_bend_c, 8, 9192
10, 265890, Pitch_bend_c, 8, 8192
10, 265920, Note_off_c, 8, 71, 64
10, 265920, Note_on_c, 8, 71, 100
10, 266040, Note_off_c, 8, 71, 64
10, 266040, Note_on_c, 8, 69, 100
10, 266160, Note_off_c, 8, 69, 64
10, 266160, Note_on_c, 8, 71, 100
10, 266280, Pitch_bend_c, 8, 9192
10, 266295, Pitch_bend_c, 8, 10192
10, 266310, Pitch_bend_c, 8, 11192
10, 266325, Pitch_bend_c, 8, 12192
10, 266340, Pitch_bend_c, 8, 13192
10, 266355, Pitch_bend_c, 8, 14192
10, 266370, Pitch_bend_c, 8, 15192
10, 266385, Pitch_bend_c, 8, 16192
10, 266400, Note_off_c, 8, 71, 64
10, 266400, Note_on_c, 8, 64, 100
10, 266400, Pitch_bend_c, 8, 8192
10, 266480, Note_off_c, 8, 64, 64
10, 266480, Note_on_c, 8, 69, 100
10, 266560, Note_off_c, 8, 69, 64
10, 266560, Note_on_c, 8, 61, 100
10, 266640, Note_off_c, 8, 61, 64
10, 266640, Note_on_c, 8, 64, 100
10, 266718, Note_on_c, 8, 57, 100
10, 266720, Note_off_c, 8, 64, 64
10, 266758, Note_off_c, 8, 57, 64
10, 266758, Note_on_c, 8, 58, 100
10, 266798, Note_off_c, 8, 58, 64
10, 266798, Note_on_c, 8, 59, 100
10, 266838, Note_off_c, 8, 59, 64
10, 266840, Note_on_c, 8, 61, 100
10, 266880, Note_off_c, 8, 61, 64
10, 266880, Note_on_c, 8, 52, 100
10, 267000, Note_off_c, 8, 52, 64
10, 267000, Note_on_c, 8, 61, 100
10, 267120, Note_off_c, 8, 61, 64
10, 267120, Note_on_c, 8, 59, 100
10, 267240, Pitch_bend_c, 8, 7192
10, 267260, Pitch_bend_c, 8, 6192
10, 267280, Pitch_bend_c, 8, 5192
10, 267300, Pitch_bend_c, 8, 4192
10, 267320, Pitch_bend_c, 8, 3192
10, 267340, Pitch_bend_c, 8, 2192
10, 267360, Pitch_bend_c, 8, 1192
10, 267380, Pitch_bend_c, 8, 192
10, 267833, Note_off_c, 8, 59, 64
10, 267840, Note_on_c, 8, 59, 100
10, 267840, Pitch_bend_c, 8, 8192
10, 267900, Note_off_c, 8, 59, 64
10, 267900, Note_on_c, 8, 61, 100
10, 267960, Note_off_c, 8, 61, 64
10, 267960, Note_on_c, 8, 57, 100
10, 268020, Note_off_c, 8, 57, 64
10, 268020, Note_on_c, 8, 69, 100
10, 268080, Note_off_c, 8, 69, 64
10, 268080, Note_on_c, 8, 71, 100
10, 268200, Note_on_c, 8, 76, 100
10, 268235, Note_off_c, 8, 71, 64
10, 268260, Note_off_c, 8, 76, 64
10, 268260, Note_on_c, 8, 81, 100
10, 268320, Note_off_c, 8, 81, 64
10, 268320, Note_on_c, 8, 85, 100
10, 268380, Note_off_c, 8, 85, 64
10, 268380, Note_on_c, 8, 88, 100
10, 268920, Pitch_bend_c, 8, 7192
10, 268940, Pitch_bend_c, 8, 6192
10, 268960, Pitch_bend_c, 8, 5192
10, 268980, Pitch_bend_c, 8, 4192
10, 269010, Pitch_bend_c, 8, 5192
10, 269025, Pitch_bend_c, 8, 6192
10, 269040, Pitch_bend_c, 8, 7192
10, 269040, Pitch_bend_c, 8, 7192
10, 269050, Pitch_bend_c, 8, 8192
10, 269060, Pitch_bend_c, 8, 6192
10, 269080, Pitch_bend_c, 8, 5192
10, 269100, Pitch_bend_c, 8, 4192
10, 269158, Note_off_c, 8, 88, 64
10, 269160, Pitch_bend_c, 8, 8192
10, 269160, Note_on_c, 8, 90, 100
10, 269760, Pitch_bend_c, 8, 9192
10, 269775, Pitch_bend_c, 8, 10192
10, 269790, Pitch_bend_c, 8, 11192
10, 269805, Pitch_bend_c, 8, 12192
10, 269820, Pitch_bend_c, 8, 13192
10, 269835, Pitch_bend_c, 8, 14192
10, 269850, Pitch_bend_c, 8, 15192
10, 269865, Pitch_bend_c, 8, 16192
10, 270000, Note_on_c, 8, 83, 100
10, 270000, Pitch_bend_c, 8, 8192
10, 270004, Note_off_c, 8, 90, 64
10, 270720, Pitch_bend_c, 8, 7192
10, 270740, Pitch_bend_c, 8, 6192
10, 270760, Pitch_bend_c, 8, 5192
10, 270780, Pitch_bend_c, 8, 4192
10, 270800, Pitch_bend_c, 8, 3192
10, 270820, Pitch_bend_c, 8, 2192
10, 270840, Pitch_bend_c, 8, 1192
10, 270860, Pitch_bend_c, 8, 192
10, 270960, Note_off_c, 8, 83, 64
10, 270960, Note_on_c, 8, 81, 100
10, 270960, Pitch_bend_c, 8, 8192
10, 271200, Note_off_c, 8, 81, 64
10, 271200, Note_on_c, 8, 83, 100
10, 271440, Note_off_c, 8, 83, 64
10, 271440, Note_on_c, 8, 85, 100
10, 271680, Note_off_c, 8, 85, 64
10, 271680, Note_on_c, 8, 73, 100
10, 271680, Pitch_bend_c, 8, 192
10, 271695, Pitch_bend_c, 8, 1192
10, 271710, Pitch_bend_c, 8, 2192
10, 271725, Pitch_bend_c, 8, 3192
10, 271740, Pitch_bend_c, 8, 4192
10, 271755, Pitch_bend_c, 8, 5192
10, 271770, Pitch_bend_c, 8, 6192
10, 271785, Pitch_bend_c, 8, 7192
10, 271800, Pitch_bend_c, 8, 8192
10, 272160, Note_off_c, 8, 73, 64
10, 272160, Note_on_c, 8, 75, 100
10, 272280, Note_off_c, 8, 75, 64
10, 272280, Note_on_c, 8, 76, 100
10, 272400, Note_off_c, 8, 76, 64
10, 272400, Pitch_bend_c, 8, 9192
10, 272400, Note_on_c, 8, 76, 100
10, 272415, Pitch_bend_c, 8, 10192
10, 272430, Pitch_bend_c, 8, 11192
10, 272445, Pitch_bend_c, 8, 12192
10, 272460, Pitch_bend_c, 8, 13192
10, 272475, Pitch_bend_c, 8, 14192
10, 272490, Pitch_bend_c, 8, 15192
10, 272505, Pitch_bend_c, 8, 16192
10, 272880, Note_off_c, 8, 76, 64
10, 272880, Pitch_bend_c, 8, 9192
10, 272880, Note_on_c, 8, 76, 100
10, 272895, Pitch_bend_c, 8, 10192
10, 272910, Pitch_bend_c, 8, 11192
10, 272925, Pitch_bend_c, 8, 12192
10, 272940, Pitch_bend_c, 8, 13192
10, 272955, Pitch_bend_c, 8, 14192
10, 272970, Pitch_bend_c, 8, 15192
10, 272985, Pitch_bend_c, 8, 16192
10, 273593, Note_off_c, 8, 76, 64
10, 273600, Note_on_c, 8, 76, 100
10, 273600, Pitch_bend_c, 8, 8192
10, 273840, Note_off_c, 8, 76, 64
10, 273840, Note_on_c, 8, 75, 100
10, 273960, Note_off_c, 8, 75, 64
10, 273960, Note_on_c, 8, 73, 100
10, 274080, Note_off_c, 8, 73, 64
10, 274080, Note_on_c, 8, 71, 100
10, 274800, Pitch_bend_c, 8, 192
10, 274800, Note_on_c, 8, 64, 100
10, 274807, Note_off_c, 8, 71, 64
10, 274815, Pitch_bend_c, 8, 1192
10, 274830, Pitch_bend_c, 8, 2192
10, 274845, Pitch_bend_c, 8, 3192
10, 274860, Pitch_bend_c, 8, 4192
10, 274875, Pitch_bend_c, 8, 5192
10, 274890, Pitch_bend_c, 8, 6192
10, 274905, Pitch_bend_c, 8, 7192
10, 274920, Pitch_bend_c, 8, 8192
10, 275513, Note_off_c, 8, 64, 64
10, 275520, Note_on_c, 8, 61, 100
10, 275760, Note_off_c, 8, 61, 64
10, 275760, Note_on_c, 8, 64, 100
10, 276000, Note_off_c, 8, 64, 64
10, 276000, Note_on_c, 8, 66, 100
10, 276240, Note_off_c, 8, 66, 64
10, 276240, Pitch_bend_c, 8, 9192
10, 276240, Note_on_c, 8, 66, 100
10, 276255, Pitch_bend_c, 8, 10192
10, 276270, Pitch_bend_c, 8, 11192
10, 276285, Pitch_bend_c, 8, 12192
10, 276300, Pitch_bend_c, 8, 13192
10, 276315, Pitch_bend_c, 8, 14192
10, 276330, Pitch_bend_c, 8, 15192
10, 276345, Pitch_bend_c, 8, 16192
10, 276480, Note_off_c, 8, 66, 64
10, 276480, Pitch_bend_c, 8, 9192
10, 276480, Note_on_c, 8, 66, 100
10, 276495, Pitch_bend_c, 8, 10192
10, 276510, Pitch_bend_c, 8, 11192
10, 276525, Pitch_bend_c, 8, 12192
10, 276540, Pitch_bend_c, 8, 13192
10, 276555, Pitch_bend_c, 8, 14192
10, 276570, Pitch_bend_c, 8, 15192
10, 276585, Pitch_bend_c, 8, 16192
10, 276720, Note_off_c, 8, 66, 64
10, 276720, Note_on_c, 8, 66, 100
10, 276720, Pitch_bend_c, 8, 8192
10, 277433, Note_off_c, 8, 66, 64
10, 277440, Note_on_c, 8, 64, 100
10, 277680, Note_on_c, 8, 63, 100
10, 277687, Note_off_c, 8, 64, 64
10, 277800, Note_off_c, 8, 63, 64
10, 277800, Note_on_c, 8, 61, 100
10, 277920, Note_off_c, 8, 61, 64
10, 277920, Note_on_c, 8, 59, 100
10, 278640, Note_on_c, 8, 63, 100
10, 278647, Note_off_c, 8, 59, 64
10, 278820, Note_off_c, 8, 63, 64
10, 278820, Note_on_c, 8, 71, 100
10, 278880, Note_off_c, 8, 71, 64
10, 278880, Note_on_c, 8, 51, 100
10, 279000, Note_off_c, 8, 51, 64
10, 279000, Note_on_c, 8, 56, 100
10, 279060, Note_off_c, 8, 56, 64
10, 279060, Note_on_c, 8, 59, 100
10, 279120, Note_off_c, 8, 59, 64
10, 279120, Note_on_c, 8, 63, 100
10, 279240, Note_off_c, 8, 63, 64
10, 279240, Note_on_c, 8, 71, 100
10, 279300, Note_off_c, 8, 71, 64
10, 279300, Note_on_c, 8, 68, 100
10, 279360, Note_off_c, 8, 68, 64
10, 279360, Note_on_c, 8, 63, 100
10, 279420, Note_off_c, 8, 63, 64
10, 279420, Note_on_c, 8, 59, 100
10, 279480, Note_off_c, 8, 59, 64
10, 279480, Note_on_c, 8, 63, 100
10, 279540, Note_off_c, 8, 63, 64
10, 279540, Note_on_c, 8, 68, 100
10, 279600, Note_off_c, 8, 68, 64
10, 279600, Note_on_c, 8, 75, 100
10, 279680, Note_off_c, 8, 75, 64
10, 279680, Note_on_c, 8, 71, 100
10, 279760, Note_off_c, 8, 71, 64
10, 279760, Note_on_c, 8, 68, 100
10, 279840, Note_off_c, 8, 68, 64
10, 279840, Note_on_c, 8, 71, 100
10, 279900, Note_off_c, 8, 71, 64
10, 279900, Note_on_c, 8, 75, 100
10, 279960, Note_off_c, 8, 75, 64
10, 279960, Note_on_c, 8, 80, 100
10, 280110, Pitch_bend_c, 8, 9192
10, 280140, Pitch_bend_c, 8, 10192
10, 280170, Pitch_bend_c, 8, 11192
10, 280200, Pitch_bend_c, 8, 12192
10, 280800, Pitch_bend_c, 8, 11192
10, 280850, Pitch_bend_c, 8, 10192
10, 280870, Pitch_bend_c, 8, 9192
10, 280900, Pitch_bend_c, 8, 8192
10, 280920, Note_off_c, 8, 80, 64
10, 280920, Note_on_c, 8, 78, 100
10, 281040, Note_off_c, 8, 78, 64
10, 281040, Note_on_c, 8, 76, 100
10, 281160, Note_off_c, 8, 76, 64
10, 281160, Note_on_c, 8, 64, 100
10, 281220, Note_off_c, 8, 64, 64
10, 281220, Note_on_c, 8, 68, 100
10, 281340, Note_on_c, 8, 66, 100
10, 281350, Note_off_c, 8, 68, 64
10, 281400, Note_off_c, 8, 66, 64
10, 281400, Note_on_c, 8, 64, 100
10, 281520, Note_off_c, 8, 64, 64
10, 281520, Note_on_c, 8, 64, 100
10, 281580, Note_off_c, 8, 64, 64
10, 281580, Note_on_c, 8, 66, 100
10, 281640, Note_off_c, 8, 66, 64
10, 281640, Note_on_c, 8, 68, 100
10, 281700, Note_off_c, 8, 68, 64
10, 281700, Note_on_c, 8, 69, 100
10, 281820, Note_off_c, 8, 69, 64
10, 281820, Note_on_c, 8, 76, 100
10, 281880, Note_off_c, 8, 76, 64
10, 281880, Note_on_c, 8, 78, 100
10, 281940, Note_off_c, 8, 78, 64
10, 281940, Note_on_c, 8, 80, 100
10, 282000, Note_off_c, 8, 80, 64
10, 282000, Note_on_c, 8, 81, 100
10, 282080, Note_off_c, 8, 81, 64
10, 282080, Note_on_c, 8, 83, 100
10, 282160, Note_off_c, 8, 83, 64
10, 282160, Note_on_c, 8, 85, 100
10, 282240, Note_off_c, 8, 85, 64
10, 282240, Note_on_c, 8, 87, 100
10, 282320, Note_off_c, 8, 87, 64
10, 282320, Note_on_c, 8, 88, 100
10, 282480, Note_off_c, 8, 88, 64
10, 282480, Pitch_bend_c, 8, 8192
10, 282480, Note_on_c, 8, 88, 100
10, 282600, Pitch_bend_c, 8, 9192
10, 282615, Pitch_bend_c, 8, 10192
10, 282630, Pitch_bend_c, 8, 11192
10, 282645, Pitch_bend_c, 8, 12192
10, 282660, Pitch_bend_c, 8, 13192
10, 282675, Pitch_bend_c, 8, 14192
10, 282690, Pitch_bend_c, 8, 15192
10, 282705, Pitch_bend_c, 8, 16192
10, 283140, Pitch_bend_c, 8, 15192
10, 283155, Pitch_bend_c, 8, 14192
10, 283170, Pitch_bend_c, 8, 13192
10, 283185, Pitch_bend_c, 8, 12192
10, 283200, Pitch_bend_c, 8, 11192
10, 283215, Pitch_bend_c, 8, 10192
10, 283220, Pitch_bend_c, 8, 9192
10, 283235, Pitch_bend_c, 8, 8192
10, 283440, Note_off_c, 8, 88, 64
10, 283440, Note_on_c, 8, 85, 100
10, 284153, Note_off_c, 8, 85, 64
10, 284160, Note_on_c, 8, 87, 100
10, 284280, Note_off_c, 8, 87, 64
10, 284280, Note_on_c, 8, 88, 100
10, 284400, Note_off_c, 8, 88, 64
10, 284400, Pitch_bend_c, 8, 9192
10, 284400, Note_on_c, 8, 90, 100
10, 284415, Pitch_bend_c, 8, 10192
10, 284430, Pitch_bend_c, 8, 11192
10, 284445, Pitch_bend_c, 8, 12192
10, 284460, Pitch_bend_c, 8, 13192
10, 284475, Pitch_bend_c, 8, 14192
10, 284490, Pitch_bend_c, 8, 15192
10, 284505, Pitch_bend_c, 8, 16192
10, 284760, Pitch_bend_c, 8, 15192
10, 284775, Pitch_bend_c, 8, 14192
10, 284790, Pitch_bend_c, 8, 13192
10, 284805, Pitch_bend_c, 8, 12192
10, 284820, Pitch_bend_c, 8, 11192
10, 284835, Pitch_bend_c, 8, 10192
10, 284840, Pitch_bend_c, 8, 9192
10, 284855, Pitch_bend_c, 8, 8192
10, 284880, Pitch_bend_c, 8, 9192
10, 284895, Pitch_bend_c, 8, 10192
10, 284910, Pitch_bend_c, 8, 11192
10, 284925, Pitch_bend_c, 8, 12192
10, 284940, Pitch_bend_c, 8, 13192
10, 284955, Pitch_bend_c, 8, 14192
10, 284970, Pitch_bend_c, 8, 15192
10, 284985, Pitch_bend_c, 8, 16192
10, 285560, Pitch_bend_c, 8, 15192
10, 285660, Pitch_bend_c, 8, 14192
10, 285760, Pitch_bend_c, 8, 13192
10, 285840, Pitch_bend_c, 8, 12192
10, 285940, Pitch_bend_c, 8, 11192
10, 286040, Pitch_bend_c, 8, 10192
10, 286140, Pitch_bend_c, 8, 9192
10, 286170, Pitch_bend_c, 8, 8192
10, 286190, Note_off_c, 8, 90, 64
10, 286200, Note_on_c, 8, 88, 100
10, 286320, Note_off_c, 8, 88, 64
10, 286320, Pitch_bend_c, 8, 9192
10, 286320, Note_on_c, 8, 91, 90
10, 286335, Pitch_bend_c, 8, 10192
10, 286350, Pitch_bend_c, 8, 11192
10, 286365, Pitch_bend_c, 8, 12192
10, 286380, Pitch_bend_c, 8, 13192
10, 286395, Pitch_bend_c, 8, 14192
10, 286410, Pitch_bend_c, 8, 15192
10, 286425, Pitch_bend_c, 8, 16192
10, 288600, Pitch_bend_c, 8, 15192
10, 288615, Pitch_bend_c, 8, 14192
10, 288630, Pitch_bend_c, 8, 13192
10, 288645, Pitch_bend_c, 8, 12192
10, 288660, Pitch_bend_c, 8, 11192
10, 288675, Pitch_bend_c, 8, 10192
10, 288680, Pitch_bend_c, 8, 9192
10, 288695, Pitch_bend_c, 8, 8192
10, 288720, Note_off_c, 8, 91, 64
10, 288720, Pitch_bend_c, 8, 192
10, 288720, Note_on_c, 8, 64, 100
10, 288735, Pitch_bend_c, 8, 1192
10, 288750, Pitch_bend_c, 8, 2192
10, 288765, Pitch_bend_c, 8, 3192
10, 288780, Pitch_bend_c, 8, 4192
10, 288795, Pitch_bend_c, 8, 5192
10, 288810, Pitch_bend_c, 8, 6192
10, 288825, Pitch_bend_c, 8, 7192
10, 288840, Pitch_bend_c, 8, 8192
10, 288960, Note_off_c, 8, 64, 64
10, 288960, Note_on_c, 8, 69, 100
10, 289200, Note_off_c, 8, 69, 64
10, 289200, Note_on_c, 8, 64, 100
10, 289200, Pitch_bend_c, 8, 192
10, 289215, Pitch_bend_c, 8, 1192
10, 289230, Pitch_bend_c, 8, 2192
10, 289245, Pitch_bend_c, 8, 3192
10, 289260, Pitch_bend_c, 8, 4192
10, 289275, Pitch_bend_c, 8, 5192
10, 289290, Pitch_bend_c, 8, 6192
10, 289305, Pitch_bend_c, 8, 7192
10, 289320, Pitch_bend_c, 8, 8192
10, 289440, Note_off_c, 8, 64, 64
10, 289440, Note_on_c, 8, 62, 100
10, 289680, Note_off_c, 8, 62, 64
10, 289680, Note_on_c, 8, 60, 100
10, 289920, Note_off_c, 8, 60, 64
10, 289920, Note_on_c, 8, 64, 94
10, 290160, Pitch_bend_c, 8, 9192
10, 290175, Pitch_bend_c, 8, 10192
10, 290190, Pitch_bend_c, 8, 11192
10, 290205, Pitch_bend_c, 8, 12192
10, 290220, Pitch_bend_c, 8, 13192
10, 290235, Pitch_bend_c, 8, 14192
10, 290250, Pitch_bend_c, 8, 15192
10, 290265, Pitch_bend_c, 8, 16192
10, 291840, Note_off_c, 8, 64, 64
10, 291840, Note_on_c, 8, 64, 80
10, 291840, Pitch_bend_c, 8, 8192
10, 291960, Note_off_c, 8, 64, 64
10, 291960, Note_on_c, 8, 62, 80
10, 292080, Note_off_c, 8, 62, 64
10, 292080, Note_on_c, 8, 57, 82
10, 293040, Note_off_c, 8, 57, 64
10, 293040, Note_on_c, 8, 54, 83
10, 293040, Pitch_bend_c, 8, 192
10, 293055, Pitch_bend_c, 8, 1192
10, 293070, Pitch_bend_c, 8, 2192
10, 293085, Pitch_bend_c, 8, 3192
10, 293100, Pitch_bend_c, 8, 4192
10, 293115, Pitch_bend_c, 8, 5192
10, 293130, Pitch_bend_c, 8, 6192
10, 293145, Pitch_bend_c, 8, 7192
10, 293160, Pitch_bend_c, 8, 8192
10, 293280, Note_off_c, 8, 54, 64
10, 293280, Note_on_c, 8, 52, 83
10, 293520, Note_off_c, 8, 52, 64
10, 293520, Note_on_c, 8, 50, 83
10, 293760, Note_off_c, 8, 50, 64
10, 293760, Pitch_bend_c, 8, 9192
10, 293760, Note_on_c, 8, 52, 83
10, 293775, Pitch_bend_c, 8, 10192
10, 293790, Pitch_bend_c, 8, 11192
10, 293805, Pitch_bend_c, 8, 12192
10, 293820, Pitch_bend_c, 8, 13192
10, 293835, Pitch_bend_c, 8, 14192
10, 293850, Pitch_bend_c, 8, 15192
10, 293865, Pitch_bend_c, 8, 16192
10, 294240, Control_c, 8, 1, 127
10, 295680, Pitch_bend_c, 8, 15192
10, 295710, Pitch_bend_c, 8, 14192
10, 295740, Pitch_bend_c, 8, 13192
10, 295770, Pitch_bend_c, 8, 12192
10, 295800, Pitch_bend_c, 8, 11192
10, 295830, Pitch_bend_c, 8, 10192
10, 295860, Pitch_bend_c, 8, 9192
10, 295890, Pitch_bend_c, 8, 8192
10, 295920, Note_on_c, 8, 35, 85
10, 295920, Control_c, 8, 1, 0
10, 295927, Note_off_c, 8, 52, 64
10, 296040, Note_off_c, 8, 35, 64
10, 296040, Note_on_c, 8, 37, 85
10, 296160, Note_off_c, 8, 37, 64
10, 296160, Note_on_c, 8, 47, 85
10, 296240, Note_off_c, 8, 47, 64
10, 296240, Note_on_c, 8, 49, 85
10, 296320, Note_off_c, 8, 49, 64
10, 296320, Note_on_c, 8, 51, 85
10, 296400, Note_off_c, 8, 51, 64
10, 296400, Note_on_c, 8, 52, 85
10, 296460, Note_off_c, 8, 52, 64
10, 296460, Note_on_c, 8, 54, 85
10, 296520, Note_off_c, 8, 54, 64
10, 296520, Note_on_c, 8, 56, 85
10, 296580, Note_off_c, 8, 56, 64
10, 296580, Note_on_c, 8, 57, 85
10, 296640, Note_off_c, 8, 57, 64
10, 296640, Note_on_c, 8, 59, 85
10, 296700, Note_off_c, 8, 59, 64
10, 296700, Note_on_c, 8, 61, 85
10, 296760, Note_off_c, 8, 61, 64
10, 296760, Note_on_c, 8, 63, 85
10, 296820, Note_off_c, 8, 63, 64
10, 296820, Note_on_c, 8, 64, 85
10, 296880, Note_off_c, 8, 64, 64
10, 296880, Note_on_c, 8, 66, 85
10, 296960, Note_off_c, 8, 66, 64
10, 296960, Note_on_c, 8, 68, 85
10, 297040, Note_off_c, 8, 68, 64
10, 297040, Note_on_c, 8, 69, 85
10, 297120, Note_off_c, 8, 69, 64
10, 297120, Note_on_c, 8, 71, 85
10, 297180, Note_off_c, 8, 71, 64
10, 297180, Note_on_c, 8, 73, 85
10, 297240, Note_off_c, 8, 73, 64
10, 297240, Note_on_c, 8, 75, 85
10, 297300, Note_off_c, 8, 75, 64
10, 297300, Note_on_c, 8, 76, 85
10, 297360, Note_off_c, 8, 76, 64
10, 297360, Note_on_c, 8, 78, 85
10, 297440, Note_off_c, 8, 78, 64
10, 297440, Note_on_c, 8, 80, 85
10, 297520, Note_off_c, 8, 80, 64
10, 297520, Note_on_c, 8, 81, 85
10, 297600, Note_off_c, 8, 81, 64
10, 297600, Note_on_c, 8, 83, 85
10, 297680, Note_off_c, 8, 83, 64
10, 297680, Note_on_c, 8, 85, 85
10, 297760, Note_off_c, 8, 85, 64
10, 297760, Note_on_c, 8, 87, 85
10, 297840, Note_off_c, 8, 87, 64
10, 297840, Control_c, 8, 7, 85
10, 299040, Note_on_c, 8, 66, 100
10, 299280, Note_off_c, 8, 66, 64
10, 299280, Note_on_c, 8, 68, 100
10, 299520, Note_off_c, 8, 68, 64
10, 299520, Note_on_c, 8, 69, 100
10, 300000, Note_off_c, 8, 69, 64
10, 300000, Note_on_c, 8, 71, 100
10, 300240, Note_off_c, 8, 71, 64
10, 300240, Note_on_c, 8, 73, 100
10, 300480, Note_off_c, 8, 73, 64
10, 300480, Note_on_c, 8, 74, 100
10, 300960, Note_off_c, 8, 74, 64
10, 300960, Note_on_c, 8, 73, 100
10, 301200, Note_off_c, 8, 73, 64
10, 301200, Note_on_c, 8, 69, 100
10, 301680, Note_off_c, 8, 69, 64
10, 301680, Note_on_c, 8, 71, 100
10, 301920, Note_off_c, 8, 71, 64
10, 301920, Note_on_c, 8, 76, 100
10, 302160, Note_off_c, 8, 76, 64
10, 302160, Note_on_c, 8, 74, 100
10, 302400, Note_off_c, 8, 74, 64
10, 302400, Note_on_c, 8, 73, 100
10, 302880, Note_off_c, 8, 73, 64
10, 302880, Note_on_c, 8, 71, 100
10, 303120, Note_off_c, 8, 71, 64
10, 303120, Note_on_c, 8, 69, 100
10, 303360, Note_off_c, 8, 69, 64
10, 303360, Note_on_c, 8, 64, 100
10, 303600, Note_off_c, 8, 64, 64
10, 303600, Note_on_c, 8, 66, 100
10, 303840, Note_off_c, 8, 66, 64
10, 303840, Note_on_c, 8, 71, 100
10, 304080, Note_off_c, 8, 71, 64
10, 304080, Note_on_c, 8, 69, 100
10, 304320, Note_off_c, 8, 69, 64
10, 304320, Note_on_c, 8, 64, 100
10, 305520, Note_off_c, 8, 64, 64
10, 305520, Note_on_c, 8, 66, 100
10, 305760, Note_off_c, 8, 66, 64
10, 305760, Note_on_c, 8, 68, 100
10, 306000, Note_off_c, 8, 68, 64
10, 306000, Note_on_c, 8, 69, 100
10, 306480, Note_off_c, 8, 69, 64
10, 306484, Note_on_c, 8, 71, 100
10, 306720, Note_on_c, 8, 73, 100
10, 306724, Note_off_c, 8, 71, 64
10, 306960, Note_off_c, 8, 73, 64
10, 306960, Note_on_c, 8, 74, 100
10, 307440, Note_off_c, 8, 74, 64
10, 307440, Note_on_c, 8, 73, 100
10, 307680, Note_off_c, 8, 73, 64
10, 307680, Note_on_c, 8, 71, 100
10, 307920, Note_off_c, 8, 71, 64
10, 307920, Note_on_c, 8, 66, 100
10, 308160, Note_off_c, 8, 66, 64
10, 308160, Note_on_c, 8, 67, 100
10, 308400, Note_off_c, 8, 67, 64
10, 308400, Note_on_c, 8, 66, 100
10, 308640, Note_off_c, 8, 66, 64
10, 308640, Note_on_c, 8, 64, 100
10, 308880, Note_off_c, 8, 64, 64
10, 308880, Note_on_c, 8, 72, 100
10, 309360, Note_off_c, 8, 72, 64
10, 309360, Note_on_c, 8, 71, 100
10, 309600, Note_off_c, 8, 71, 64
10, 309600, Note_on_c, 8, 69, 100
10, 309840, Note_off_c, 8, 69, 64
10, 309840, Note_on_c, 8, 67, 100
10, 310080, Note_off_c, 8, 67, 64
10, 310080, Note_on_c, 8, 69, 85
10, 310200, Note_off_c, 8, 69, 64
10, 310200, Note_on_c, 8, 72, 85
10, 310320, Note_off_c, 8, 72, 64
10, 310320, Note_on_c, 8, 67, 85
10, 310440, Note_off_c, 8, 67, 64
10, 310440, Note_on_c, 8, 72, 85
10, 310560, Note_off_c, 8, 72, 64
10, 310560, Note_on_c, 8, 65, 85
10, 310680, Note_off_c, 8, 65, 64
10, 310680, Note_on_c, 8, 72, 85
10, 310800, Note_off_c, 8, 72, 64
10, 310800, Note_on_c, 8, 64, 85
10, 310920, Note_off_c, 8, 64, 64
10, 310920, Note_on_c, 8, 72, 85
10, 311040, Note_off_c, 8, 72, 64
10, 311040, Note_on_c, 8, 63, 85
10, 312000, Note_off_c, 8, 63, 64
10, 327360, Pitch_bend_c, 8, 9192
10, 327360, Note_on_c, 8, 86, 100
10, 327375, Pitch_bend_c, 8, 10192
10, 327390, Pitch_bend_c, 8, 11192
10, 327405, Pitch_bend_c, 8, 12192
10, 327420, Pitch_bend_c, 8, 13192
10, 327435, Pitch_bend_c, 8, 14192
10, 327450, Pitch_bend_c, 8, 15192
10, 327465, Pitch_bend_c, 8, 16192
10, 327840, Note_off_c, 8, 86, 64
10, 327855, Note_on_c, 8, 85, 50
10, 327895, Note_off_c, 8, 85, 64
10, 327895, Note_on_c, 8, 84, 50
10, 327935, Note_off_c, 8, 84, 64
10, 327935, Note_on_c, 8, 83, 50
10, 327975, Note_off_c, 8, 83, 64
10, 327975, Note_on_c, 8, 82, 50
10, 328015, Note_off_c, 8, 82, 64
10, 328015, Note_on_c, 8, 81, 50
10, 328055, Note_off_c, 8, 81, 64
10, 328080, Pitch_bend_c, 8, 8192
10, 328080, Note_on_c, 8, 64, 100
10, 328200, Note_off_c, 8, 64, 64
10, 328200, Note_on_c, 8, 68, 100
10, 328320, Note_off_c, 8, 68, 64
10, 328320, Note_on_c, 8, 71, 100
10, 328440, Note_off_c, 8, 71, 64
10, 328440, Note_on_c, 8, 76, 100
10, 328560, Note_off_c, 8, 76, 64
10, 328560, Note_on_c, 8, 80, 100
10, 328680, Note_off_c, 8, 80, 64
10, 328680, Note_on_c, 8, 83, 100
10, 328800, Note_off_c, 8, 83, 64
10, 328800, Note_on_c, 8, 85, 100
10, 328920, Note_off_c, 8, 85, 64
10, 328920, Note_on_c, 8, 86, 100
10, 329040, Note_off_c, 8, 86, 64
10, 329040, Pitch_bend_c, 8, 9192
10, 329040, Note_on_c, 8, 86, 100
10, 329055, Pitch_bend_c, 8, 10192
10, 329070, Pitch_bend_c, 8, 11192
10, 329085, Pitch_bend_c, 8, 12192
10, 329100, Pitch_bend_c, 8, 13192
10, 329115, Pitch_bend_c, 8, 14192
10, 329130, Pitch_bend_c, 8, 15192
10, 329145, Pitch_bend_c, 8, 16192
10, 329520, Note_off_c, 8, 86, 64
10, 329520, Pitch_bend_c, 8, 8192
10, 329520, Note_on_c, 8, 86, 100
10, 329760, Note_off_c, 8, 86, 64
10, 329760, Note_on_c, 8, 85, 100
10, 330000, Note_off_c, 8, 85, 64
10, 330000, Note_on_c, 8, 81, 100
10, 330360, Note_off_c, 8, 81, 64
10, 330360, Note_on_c, 8, 80, 100
10, 330480, Note_off_c, 8, 80, 64
10, 330480, Note_on_c, 8, 78, 100
10, 330600, Note_off_c, 8, 78, 64
10, 330600, Note_on_c, 8, 74, 100
10, 330720, Note_off_c, 8, 74, 64
10, 330720, Note_on_c, 8, 69, 100
10, 330840, Note_off_c, 8, 69, 64
10, 330840, Note_on_c, 8, 68, 100
10, 330960, Note_off_c, 8, 68, 64
10, 330960, Note_on_c, 8, 66, 100
10, 331200, Note_on_c, 8, 71, 100
10, 331207, Note_off_c, 8, 66, 64
10, 331320, Note_off_c, 8, 71, 64
10, 331320, Note_on_c, 8, 68, 100
10, 331440, Note_off_c, 8, 68, 64
10, 331440, Note_on_c, 8, 73, 100
10, 331560, Note_off_c, 8, 73, 64
10, 331560, Note_on_c, 8, 68, 100
10, 331680, Note_off_c, 8, 68, 64
10, 331680, Note_on_c, 8, 74, 100
10, 331800, Note_off_c, 8, 74, 64
10, 331800, Note_on_c, 8, 68, 100
10, 331920, Note_off_c, 8, 68, 64
10, 331920, Pitch_bend_c, 8, 9192
10, 331920, Note_on_c, 8, 74, 100
10, 331935, Pitch_bend_c, 8, 10192
10, 331950, Pitch_bend_c, 8, 11192
10, 331965, Pitch_bend_c, 8, 12192
10, 331980, Pitch_bend_c, 8, 13192
10, 331995, Pitch_bend_c, 8, 14192
10, 332010, Pitch_bend_c, 8, 15192
10, 332025, Pitch_bend_c, 8, 16192
10, 332280, Note_off_c, 8, 74, 64
10, 332280, Pitch_bend_c, 8, 8192
10, 332280, Note_on_c, 8, 74, 100
10, 332400, Note_off_c, 8, 74, 64
10, 332400, Note_on_c, 8, 73, 100
10, 332640, Note_on_c, 8, 64, 100
10, 332647, Note_off_c, 8, 73, 64
10, 332760, Note_off_c, 8, 64, 64
10, 332760, Note_on_c, 8, 62, 100
10, 332880, Note_off_c, 8, 62, 64
10, 332880, Note_on_c, 8, 61, 100
10, 333120, Note_on_c, 8, 66, 100
10, 333127, Note_off_c, 8, 61, 64
10, 333240, Note_off_c, 8, 66, 64
10, 333240, Note_on_c, 8, 68, 100
10, 333360, Note_off_c, 8, 68, 64
10, 333360, Note_on_c, 8, 69, 100
10, 333480, Note_off_c, 8, 69, 64
10, 333480, Note_on_c, 8, 78, 100
10, 333600, Note_off_c, 8, 78, 64
10, 333600, Note_on_c, 8, 83, 100
10, 333720, Note_off_c, 8, 83, 64
10, 333720, Note_on_c, 8, 85, 100
10, 333840, Note_off_c, 8, 85, 64
10, 333840, Note_on_c, 8, 83, 100
10, 334200, Note_on_c, 8, 85, 100
10, 334203, Note_off_c, 8, 83, 64
10, 334320, Note_on_c, 8, 86, 100
10, 334330, Note_off_c, 8, 85, 64
10, 334440, Note_off_c, 8, 86, 64
10, 334440, Note_on_c, 8, 88, 100
10, 334920, Note_off_c, 8, 88, 64
10, 334920, Note_on_c, 8, 79, 50
10, 334960, Note_off_c, 8, 79, 64
10, 334960, Note_on_c, 8, 78, 50
10, 335000, Note_off_c, 8, 78, 64
10, 335000, Note_on_c, 8, 77, 50
10, 335000, Note_on_c, 8, 77, 50
10, 335040, Note_off_c, 8, 77, 64
10, 335040, Note_off_c, 8, 77, 64
10, 335040, Note_on_c, 8, 81, 100
10, 335160, Note_off_c, 8, 81, 64
10, 335160, Note_on_c, 8, 83, 100
10, 335220, Note_off_c, 8, 83, 64
10, 335220, Note_on_c, 8, 81, 100
10, 335280, Note_off_c, 8, 81, 64
10, 335280, Note_on_c, 8, 80, 100
10, 335400, Note_off_c, 8, 80, 64
10, 335400, Note_on_c, 8, 76, 100
10, 335520, Note_off_c, 8, 76, 64
10, 335520, Note_on_c, 8, 71, 100
10, 335640, Note_off_c, 8, 71, 64
10, 335640, Note_on_c, 8, 69, 100
10, 335760, Note_off_c, 8, 69, 64
10, 335760, Note_on_c, 8, 76, 100
10, 335880, Note_off_c, 8, 76, 64
10, 335880, Note_on_c, 8, 69, 100
10, 336000, Note_off_c, 8, 69, 64
10, 336000, Note_on_c, 8, 68, 100
10, 336120, Note_off_c, 8, 68, 64
10, 336120, Note_on_c, 8, 69, 100
10, 336180, Note_off_c, 8, 69, 64
10, 336180, Note_on_c, 8, 68, 100
10, 336240, Note_off_c, 8, 68, 64
10, 336240, Note_on_c, 8, 66, 100
10, 336360, Note_off_c, 8, 66, 64
10, 336360, Note_on_c, 8, 64, 100
10, 336480, Note_off_c, 8, 64, 64
10, 336480, Note_on_c, 8, 68, 100
10, 336600, Note_off_c, 8, 68, 64
10, 336600, Note_on_c, 8, 71, 100
10, 336720, Note_off_c, 8, 71, 64
10, 336720, Note_on_c, 8, 73, 100
10, 337080, Note_on_c, 8, 64, 100
10, 337083, Note_off_c, 8, 73, 64
10, 337200, Note_off_c, 8, 64, 64
10, 337200, Note_on_c, 8, 69, 100
10, 337320, Note_off_c, 8, 69, 64
10, 337320, Note_on_c, 8, 71, 100
10, 337380, Note_off_c, 8, 71, 64
10, 337380, Note_on_c, 8, 73, 100
10, 337440, Note_off_c, 8, 73, 64
10, 337440, Note_on_c, 8, 76, 100
10, 337560, Note_off_c, 8, 76, 64
10, 337560, Note_on_c, 8, 81, 100
10, 337620, Note_off_c, 8, 81, 64
10, 337620, Note_on_c, 8, 85, 100
10, 337680, Note_off_c, 8, 85, 64
10, 337680, Note_on_c, 8, 86, 100
10, 338040, Note_on_c, 8, 62, 100
10, 338043, Note_off_c, 8, 86, 64
10, 338160, Note_off_c, 8, 62, 64
10, 338160, Note_on_c, 8, 64, 100
10, 338280, Note_off_c, 8, 64, 64
10, 338280, Note_on_c, 8, 66, 100
10, 338400, Note_off_c, 8, 66, 64
10, 338400, Note_on_c, 8, 69, 100
10, 338520, Note_off_c, 8, 69, 64
10, 338520, Note_on_c, 8, 74, 100
10, 338640, Note_off_c, 8, 74, 64
10, 338640, Note_on_c, 8, 76, 100
10, 338760, Note_off_c, 8, 76, 64
10, 338760, Note_on_c, 8, 78, 100
10, 338880, Note_off_c, 8, 78, 64
10, 338880, Note_on_c, 8, 80, 100
10, 339000, Note_off_c, 8, 80, 64
10, 339000, Note_on_c, 8, 78, 100
10, 339120, Note_off_c, 8, 78, 64
10, 339120, Note_on_c, 8, 76, 100
10, 339200, Note_off_c, 8, 76, 64
10, 339200, Note_on_c, 8, 86, 100
10, 339280, Note_off_c, 8, 86, 64
10, 339280, Note_on_c, 8, 85, 100
10, 339360, Note_off_c, 8, 85, 64
10, 339360, Note_on_c, 8, 83, 100
10, 339480, Note_off_c, 8, 83, 64
10, 339480, Note_on_c, 8, 80, 100
10, 339600, Note_off_c, 8, 80, 64
10, 339600, Note_on_c, 8, 76, 100
10, 339720, Note_off_c, 8, 76, 64
10, 339720, Note_on_c, 8, 74, 100
10, 339840, Note_off_c, 8, 74, 64
10, 339840, Note_on_c, 8, 73, 100
10, 339960, Note_off_c, 8, 73, 64
10, 339960, Note_on_c, 8, 76, 100
10, 340080, Note_off_c, 8, 76, 64
10, 340080, Note_on_c, 8, 71, 100
10, 340200, Note_off_c, 8, 71, 64
10, 340200, Note_on_c, 8, 76, 100
10, 340260, Note_on_c, 8, 69, 100
10, 340265, Note_off_c, 8, 76, 64
10, 340320, Note_off_c, 8, 69, 64
10, 340320, Note_on_c, 8, 71, 100
10, 340380, Note_off_c, 8, 71, 64
10, 340380, Note_on_c, 8, 73, 100
10, 340500, Note_off_c, 8, 73, 64
10, 340500, Note_on_c, 8, 64, 100
10, 340800, Note_on_c, 8, 74, 100
10, 340812, Note_off_c, 8, 64, 64
10, 340920, Note_off_c, 8, 74, 64
10, 340920, Note_on_c, 8, 66, 100
10, 341040, Note_off_c, 8, 66, 64
10, 341040, Note_on_c, 8, 69, 100
10, 341160, Note_off_c, 8, 69, 64
10, 341160, Note_on_c, 8, 74, 100
10, 341280, Note_off_c, 8, 74, 64
10, 341280, Note_on_c, 8, 78, 100
10, 341400, Note_off_c, 8, 78, 64
10, 341400, Note_on_c, 8, 74, 100
10, 341520, Note_off_c, 8, 74, 64
10, 341520, Note_on_c, 8, 76, 100
10, 341640, Note_off_c, 8, 76, 64
10, 341640, Note_on_c, 8, 83, 100
10, 341760, Note_off_c, 8, 83, 64
10, 341760, Note_on_c, 8, 80, 100
10, 341820, Note_off_c, 8, 80, 64
10, 341820, Note_on_c, 8, 81, 100
10, 341880, Note_off_c, 8, 81, 64
10, 341880, Note_on_c, 8, 83, 100
10, 342000, Note_off_c, 8, 83, 64
10, 342000, Note_on_c, 8, 76, 100
10, 342120, Note_off_c, 8, 76, 64
10, 342120, Note_on_c, 8, 71, 100
10, 342240, Note_off_c, 8, 71, 64
10, 342240, Note_on_c, 8, 68, 100
10, 342300, Note_off_c, 8, 68, 64
10, 342300, Note_on_c, 8, 66, 100
10, 342360, Note_off_c, 8, 66, 64
10, 342360, Note_on_c, 8, 64, 100
10, 342480, Note_off_c, 8, 64, 64
10, 342480, Note_on_c, 8, 76, 100
10, 342540, Note_off_c, 8, 76, 64
10, 342540, Note_on_c, 8, 71, 100
10, 342600, Note_off_c, 8, 71, 64
10, 342600, Note_on_c, 8, 74, 100
10, 342660, Note_off_c, 8, 74, 64
10, 342660, Note_on_c, 8, 78, 100
10, 342720, Note_off_c, 8, 78, 64
10, 342720, Note_on_c, 8, 80, 100
10, 342960, Control_c, 8, 1, 127
10, 343680, Note_off_c, 8, 80, 64
10, 343680, Pitch_bend_c, 8, 9192
10, 343680, Note_on_c, 8, 78, 100
10, 343680, Control_c, 8, 1, 0
10, 343695, Pitch_bend_c, 8, 10192
10, 343710, Pitch_bend_c, 8, 11192
10, 343725, Pitch_bend_c, 8, 12192
10, 343740, Pitch_bend_c, 8, 13192
10, 343755, Pitch_bend_c, 8, 14192
10, 343770, Pitch_bend_c, 8, 15192
10, 343785, Pitch_bend_c, 8, 16192
10, 343920, Pitch_bend_c, 8, 15192
10, 343935, Pitch_bend_c, 8, 14192
10, 343950, Pitch_bend_c, 8, 13192
10, 343965, Pitch_bend_c, 8, 12192
10, 343980, Pitch_bend_c, 8, 11192
10, 343995, Pitch_bend_c, 8, 10192
10, 344010, Pitch_bend_c, 8, 9192
10, 344025, Pitch_bend_c, 8, 8192
10, 344160, Note_off_c, 8, 78, 64
10, 344160, Note_on_c, 8, 76, 100
10, 344400, Note_off_c, 8, 76, 64
10, 344400, Pitch_bend_c, 8, 9192
10, 344400, Note_on_c, 8, 83, 100
10, 344415, Pitch_bend_c, 8, 10192
10, 344430, Pitch_bend_c, 8, 11192
10, 344445, Pitch_bend_c, 8, 12192
10, 344460, Pitch_bend_c, 8, 13192
10, 344475, Pitch_bend_c, 8, 14192
10, 344478, Pitch_bend_c, 8, 15192
10, 344480, Pitch_bend_c, 8, 16192
10, 344880, Note_off_c, 8, 83, 64
10, 344880, Pitch_bend_c, 8, 9192
10, 344880, Note_on_c, 8, 83, 100
10, 344895, Pitch_bend_c, 8, 10192
10, 344910, Pitch_bend_c, 8, 11192
10, 344925, Pitch_bend_c, 8, 12192
10, 344940, Pitch_bend_c, 8, 13192
10, 344955, Pitch_bend_c, 8, 14192
10, 344958, Pitch_bend_c, 8, 15192
10, 344960, Pitch_bend_c, 8, 16192
10, 345000, Pitch_bend_c, 8, 15192
10, 345010, Pitch_bend_c, 8, 14192
10, 345020, Pitch_bend_c, 8, 13192
10, 345030, Pitch_bend_c, 8, 12192
10, 345040, Pitch_bend_c, 8, 11192
10, 345050, Pitch_bend_c, 8, 10192
10, 345060, Pitch_bend_c, 8, 9192
10, 345060, Pitch_bend_c, 8, 8192
10, 345120, Note_off_c, 8, 83, 64
10, 345120, Note_on_c, 8, 81, 100
10, 345360, Note_off_c, 8, 81, 64
10, 345360, Note_on_c, 8, 78, 100
10, 345840, Note_off_c, 8, 78, 64
10, 345840, Note_on_c, 8, 76, 100
10, 345840, Pitch_bend_c, 8, 9192
10, 345855, Pitch_bend_c, 8, 10192
10, 345870, Pitch_bend_c, 8, 11192
10, 345885, Pitch_bend_c, 8, 12192
10, 345900, Pitch_bend_c, 8, 13192
10, 345915, Pitch_bend_c, 8, 14192
10, 345918, Pitch_bend_c, 8, 15192
10, 345920, Pitch_bend_c, 8, 16192
10, 345960, Pitch_bend_c, 8, 15192
10, 345970, Pitch_bend_c, 8, 14192
10, 345980, Pitch_bend_c, 8, 13192
10, 345990, Pitch_bend_c, 8, 12192
10, 346000, Pitch_bend_c, 8, 11192
10, 346010, Pitch_bend_c, 8, 10192
10, 346020, Pitch_bend_c, 8, 9192
10, 346020, Pitch_bend_c, 8, 8192
10, 346080, Note_off_c, 8, 76, 64
10, 346080, Note_on_c, 8, 74, 100
10, 346560, Note_off_c, 8, 74, 64
10, 346560, Note_on_c, 8, 80, 100
10, 346800, Note_off_c, 8, 80, 64
10, 346800, Note_on_c, 8, 81, 100
10, 347040, Note_off_c, 8, 81, 64
10, 347040, Note_on_c, 8, 83, 100
10, 347280, Note_off_c, 8, 83, 64
10, 347280, Pitch_bend_c, 8, 9192
10, 347280, Control_c, 8, 1, 0
10, 347280, Note_on_c, 8, 83, 100
10, 347295, Pitch_bend_c, 8, 10192
10, 347310, Pitch_bend_c, 8, 11192
10, 347325, Pitch_bend_c, 8, 12192
10, 347340, Pitch_bend_c, 8, 13192
10, 347355, Pitch_bend_c, 8, 14192
10, 347370, Pitch_bend_c, 8, 15192
10, 347385, Pitch_bend_c, 8, 16192
10, 347760, Pitch_bend_c, 8, 15192
10, 347775, Pitch_bend_c, 8, 14192
10, 347790, Pitch_bend_c, 8, 13192
10, 347805, Pitch_bend_c, 8, 12192
10, 347820, Pitch_bend_c, 8, 11192
10, 347835, Pitch_bend_c, 8, 10192
10, 347850, Pitch_bend_c, 8, 9192
10, 347865, Pitch_bend_c, 8, 8192
10, 348000, Note_on_c, 8, 81, 100
10, 348007, Note_off_c, 8, 83, 64
10, 348240, Note_off_c, 8, 81, 64
10, 348240, Note_on_c, 8, 76, 100
10, 348480, Pitch_bend_c, 8, 9192
10, 348480, Control_c, 8, 1, 0
10, 348495, Pitch_bend_c, 8, 10192
10, 348510, Pitch_bend_c, 8, 11192
10, 348525, Pitch_bend_c, 8, 12192
10, 348540, Pitch_bend_c, 8, 13192
10, 348555, Pitch_bend_c, 8, 14192
10, 348570, Pitch_bend_c, 8, 15192
10, 348585, Pitch_bend_c, 8, 16192
10, 348720, Pitch_bend_c, 8, 15192
10, 348735, Pitch_bend_c, 8, 14192
10, 348750, Pitch_bend_c, 8, 13192
10, 348765, Pitch_bend_c, 8, 12192
10, 348780, Pitch_bend_c, 8, 11192
10, 348795, Pitch_bend_c, 8, 10192
10, 348810, Pitch_bend_c, 8, 9192
10, 348825, Pitch_bend_c, 8, 8192
10, 348960, Note_on_c, 8, 74, 100
10, 348967, Note_off_c, 8, 76, 64
10, 349200, Note_off_c, 8, 74, 64
10, 349200, Note_on_c, 8, 76, 100
10, 349920, Note_on_c, 8, 71, 100
10, 349927, Note_off_c, 8, 76, 64
10, 350040, Note_off_c, 8, 71, 64
10, 350040, Note_on_c, 8, 69, 100
10, 350160, Note_off_c, 8, 69, 64
10, 350160, Note_on_c, 8, 68, 100
10, 350280, Note_off_c, 8, 68, 64
10, 350280, Note_on_c, 8, 64, 100
10, 350400, Note_off_c, 8, 64, 64
10, 350400, Note_on_c, 8, 83, 100
10, 350640, Control_c, 8, 1, 127
10, 351360, Note_off_c, 8, 83, 64
10, 351360, Pitch_bend_c, 8, 9192
10, 351360, Control_c, 8, 1, 0
10, 351360, Note_on_c, 8, 81, 100
10, 351375, Pitch_bend_c, 8, 10192
10, 351390, Pitch_bend_c, 8, 11192
10, 351405, Pitch_bend_c, 8, 12192
10, 351420, Pitch_bend_c, 8, 13192
10, 351435, Pitch_bend_c, 8, 14192
10, 351450, Pitch_bend_c, 8, 15192
10, 351465, Pitch_bend_c, 8, 16192
10, 351600, Pitch_bend_c, 8, 15192
10, 351615, Pitch_bend_c, 8, 14192
10, 351630, Pitch_bend_c, 8, 13192
10, 351645, Pitch_bend_c, 8, 12192
10, 351660, Pitch_bend_c, 8, 11192
10, 351675, Pitch_bend_c, 8, 10192
10, 351690, Pitch_bend_c, 8, 9192
10, 351705, Pitch_bend_c, 8, 8192
10, 351840, Note_off_c, 8, 81, 64
10, 351840, Note_on_c, 8, 80, 100
10, 352080, Note_off_c, 8, 80, 64
10, 352080, Pitch_bend_c, 8, 9192
10, 352080, Note_on_c, 8, 86, 100
10, 352095, Pitch_bend_c, 8, 10192
10, 352110, Pitch_bend_c, 8, 11192
10, 352125, Pitch_bend_c, 8, 12192
10, 352140, Pitch_bend_c, 8, 13192
10, 352155, Pitch_bend_c, 8, 14192
10, 352158, Pitch_bend_c, 8, 15192
10, 352160, Pitch_bend_c, 8, 16192
10, 352560, Note_off_c, 8, 86, 64
10, 352560, Note_on_c, 8, 86, 100
10, 352560, Pitch_bend_c, 8, 8192
10, 352800, Note_off_c, 8, 86, 64
10, 352800, Note_on_c, 8, 85, 100
10, 353040, Note_off_c, 8, 85, 64
10, 353040, Note_on_c, 8, 81, 100
10, 353520, Note_off_c, 8, 81, 64
10, 353520, Note_on_c, 8, 80, 100
10, 353760, Note_off_c, 8, 80, 64
10, 353760, Note_on_c, 8, 78, 100
10, 354240, Note_off_c, 8, 78, 64
10, 354240, Note_on_c, 8, 83, 100
10, 354480, Note_off_c, 8, 83, 64
10, 354480, Note_on_c, 8, 85, 100
10, 354720, Note_off_c, 8, 85, 64
10, 354720, Note_on_c, 8, 86, 100
10, 354960, Note_off_c, 8, 86, 64
10, 354960, Pitch_bend_c, 8, 9192
10, 354960, Control_c, 8, 1, 0
10, 354960, Note_on_c, 8, 86, 100
10, 354975, Pitch_bend_c, 8, 10192
10, 354990, Pitch_bend_c, 8, 11192
10, 355005, Pitch_bend_c, 8, 12192
10, 355020, Pitch_bend_c, 8, 13192
10, 355035, Pitch_bend_c, 8, 14192
10, 355050, Pitch_bend_c, 8, 15192
10, 355065, Pitch_bend_c, 8, 16192
10, 355440, Pitch_bend_c, 8, 15192
10, 355455, Pitch_bend_c, 8, 14192
10, 355470, Pitch_bend_c, 8, 13192
10, 355485, Pitch_bend_c, 8, 12192
10, 355500, Pitch_bend_c, 8, 11192
10, 355515, Pitch_bend_c, 8, 10192
10, 355530, Pitch_bend_c, 8, 9192
10, 355545, Pitch_bend_c, 8, 8192
10, 355680, Note_on_c, 8, 85, 100
10, 355687, Note_off_c, 8, 86, 64
10, 355920, Note_off_c, 8, 85, 64
10, 355920, Note_on_c, 8, 81, 100
10, 356160, Note_on_c, 8, 78, 100
10, 356167, Note_off_c, 8, 81, 64
10, 356400, Note_off_c, 8, 78, 64
10, 356400, Note_on_c, 8, 81, 100
10, 356640, Note_off_c, 8, 81, 64
10, 356640, Note_on_c, 8, 78, 100
10, 356880, Note_off_c, 8, 78, 64
10, 356880, Note_on_c, 8, 83, 100
10, 357600, Note_on_c, 8, 76, 100
10, 357607, Note_off_c, 8, 83, 64
10, 357720, Note_off_c, 8, 76, 64
10, 357720, Note_on_c, 8, 73, 100
10, 357840, Note_off_c, 8, 73, 64
10, 357840, Note_on_c, 8, 71, 100
10, 357960, Note_off_c, 8, 71, 64
10, 357960, Note_on_c, 8, 68, 100
10, 358080, Note_off_c, 8, 68, 64
10, 358080, Note_on_c, 8, 83, 100
10, 358320, Control_c, 8, 1, 127
10, 359040, Note_off_c, 8, 83, 64
10, 359040, Pitch_bend_c, 8, 9192
10, 359040, Control_c, 8, 1, 0
10, 359040, Note_on_c, 8, 81, 100
10, 359055, Pitch_bend_c, 8, 10192
10, 359070, Pitch_bend_c, 8, 11192
10, 359085, Pitch_bend_c, 8, 12192
10, 359100, Pitch_bend_c, 8, 13192
10, 359115, Pitch_bend_c, 8, 14192
10, 359130, Pitch_bend_c, 8, 15192
10, 359145, Pitch_bend_c, 8, 16192
10, 359280, Pitch_bend_c, 8, 15192
10, 359295, Pitch_bend_c, 8, 14192
10, 359310, Pitch_bend_c, 8, 13192
10, 359325, Pitch_bend_c, 8, 12192
10, 359340, Pitch_bend_c, 8, 11192
10, 359355, Pitch_bend_c, 8, 10192
10, 359370, Pitch_bend_c, 8, 9192
10, 359385, Pitch_bend_c, 8, 8192
10, 359520, Note_off_c, 8, 81, 64
10, 359520, Note_on_c, 8, 80, 100
10, 359760, Note_off_c, 8, 80, 64
10, 359760, Pitch_bend_c, 8, 9192
10, 359760, Note_on_c, 8, 86, 100
10, 359775, Pitch_bend_c, 8, 10192
10, 359790, Pitch_bend_c, 8, 11192
10, 359805, Pitch_bend_c, 8, 12192
10, 359820, Pitch_bend_c, 8, 13192
10, 359835, Pitch_bend_c, 8, 14192
10, 359838, Pitch_bend_c, 8, 15192
10, 359840, Pitch_bend_c, 8, 16192
10, 360240, Note_off_c, 8, 86, 64
10, 360240, Note_on_c, 8, 86, 100
10, 360240, Pitch_bend_c, 8, 8192
10, 360480, Note_off_c, 8, 86, 64
10, 360480, Note_on_c, 8, 85, 100
10, 360720, Note_off_c, 8, 85, 64
10, 360720, Note_on_c, 8, 81, 100
10, 361200, Note_off_c, 8, 81, 64
10, 361200, Note_on_c, 8, 80, 100
10, 361440, Note_off_c, 8, 80, 64
10, 361440, Note_on_c, 8, 78, 100
10, 361920, Note_off_c, 8, 78, 64
10, 361920, Note_on_c, 8, 83, 100
10, 362160, Note_off_c, 8, 83, 64
10, 362160, Note_on_c, 8, 85, 100
10, 362400, Note_off_c, 8, 85, 64
10, 362400, Note_on_c, 8, 86, 100
10, 362640, Note_off_c, 8, 86, 64
10, 362640, Pitch_bend_c, 8, 9192
10, 362640, Control_c, 8, 1, 0
10, 362640, Note_on_c, 8, 86, 100
10, 362655, Pitch_bend_c, 8, 10192
10, 362670, Pitch_bend_c, 8, 11192
10, 362685, Pitch_bend_c, 8, 12192
10, 362700, Pitch_bend_c, 8, 13192
10, 362715, Pitch_bend_c, 8, 14192
10, 362730, Pitch_bend_c, 8, 15192
10, 362745, Pitch_bend_c, 8, 16192
10, 363120, Pitch_bend_c, 8, 15192
10, 363135, Pitch_bend_c, 8, 14192
10, 363150, Pitch_bend_c, 8, 13192
10, 363165, Pitch_bend_c, 8, 12192
10, 363180, Pitch_bend_c, 8, 11192
10, 363195, Pitch_bend_c, 8, 10192
10, 363210, Pitch_bend_c, 8, 9192
10, 363225, Pitch_bend_c, 8, 8192
10, 363360, Note_on_c, 8, 85, 100
10, 363367, Note_off_c, 8, 86, 64
10, 363600, Note_off_c, 8, 85, 64
10, 363600, Note_on_c, 8, 81, 100
10, 363840, Note_on_c, 8, 78, 100
10, 363847, Note_off_c, 8, 81, 64
10, 364080, Note_off_c, 8, 78, 64
10, 364080, Note_on_c, 8, 81, 100
10, 364320, Note_off_c, 8, 81, 64
10, 364320, Note_on_c, 8, 78, 100
10, 364560, Note_off_c, 8, 78, 64
10, 364560, Note_on_c, 8, 83, 100
10, 365280, Note_on_c, 8, 76, 100
10, 365287, Note_off_c, 8, 83, 64
10, 365400, Note_off_c, 8, 76, 64
10, 365400, Note_on_c, 8, 73, 100
10, 365520, Note_off_c, 8, 73, 64
10, 365520, Note_on_c, 8, 71, 100
10, 365640, Note_off_c, 8, 71, 64
10, 365640, Note_on_c, 8, 68, 100
10, 365760, Note_off_c, 8, 68, 64
10, 365760, Note_on_c, 8, 83, 100
10, 366000, Control_c, 8, 1, 127
10, 366720, Note_off_c, 8, 83, 64
10, 366720, Pitch_bend_c, 8, 9192
10, 366720, Control_c, 8, 1, 0
10, 366720, Note_on_c, 8, 81, 100
10, 366735, Pitch_bend_c, 8, 10192
10, 366750, Pitch_bend_c, 8, 11192
10, 366765, Pitch_bend_c, 8, 12192
10, 366780, Pitch_bend_c, 8, 13192
10, 366795, Pitch_bend_c, 8, 14192
10, 366810, Pitch_bend_c, 8, 15192
10, 366825, Pitch_bend_c, 8, 16192
10, 366960, Pitch_bend_c, 8, 15192
10, 366975, Pitch_bend_c, 8, 14192
10, 366990, Pitch_bend_c, 8, 13192
10, 367005, Pitch_bend_c, 8, 12192
10, 367020, Pitch_bend_c, 8, 11192
10, 367035, Pitch_bend_c, 8, 10192
10, 367050, Pitch_bend_c, 8, 9192
10, 367065, Pitch_bend_c, 8, 8192
10, 367200, Note_off_c, 8, 81, 64
10, 367200, Note_on_c, 8, 83, 100
10, 367440, Note_off_c, 8, 83, 64
10, 367440, Pitch_bend_c, 8, 9192
10, 367440, Note_on_c, 8, 86, 100
10, 367455, Pitch_bend_c, 8, 10192
10, 367470, Pitch_bend_c, 8, 11192
10, 367485, Pitch_bend_c, 8, 12192
10, 367500, Pitch_bend_c, 8, 13192
10, 367515, Pitch_bend_c, 8, 14192
10, 367518, Pitch_bend_c, 8, 15192
10, 367520, Pitch_bend_c, 8, 16192
10, 367914, Pitch_bend_c, 8, 8192
10, 367920, Note_off_c, 8, 86, 64
10, 367920, Note_on_c, 8, 86, 100
10, 368160, Note_off_c, 8, 86, 64
10, 368160, Note_on_c, 8, 85, 100
10, 368400, Note_off_c, 8, 85, 64
10, 368400, Pitch_bend_c, 8, 9192
10, 368400, Note_on_c, 8, 81, 100
10, 368415, Pitch_bend_c, 8, 10192
10, 368430, Pitch_bend_c, 8, 11192
10, 368445, Pitch_bend_c, 8, 12192
10, 368460, Pitch_bend_c, 8, 13192
10, 368475, Pitch_bend_c, 8, 14192
10, 368478, Pitch_bend_c, 8, 15192
10, 368480, Pitch_bend_c, 8, 16192
10, 368880, Note_off_c, 8, 81, 64
10, 368880, Pitch_bend_c, 8, 8192
10, 368880, Note_on_c, 8, 81, 100
10, 369120, Note_off_c, 8, 81, 64
10, 369120, Note_on_c, 8, 80, 100
10, 369360, Note_off_c, 8, 80, 64
10, 369360, Pitch_bend_c, 8, 9192
10, 369360, Note_on_c, 8, 79, 100
10, 369375, Pitch_bend_c, 8, 10192
10, 369390, Pitch_bend_c, 8, 11192
10, 369405, Pitch_bend_c, 8, 12192
10, 369420, Pitch_bend_c, 8, 13192
10, 369435, Pitch_bend_c, 8, 14192
10, 369438, Pitch_bend_c, 8, 15192
10, 369440, Pitch_bend_c, 8, 16192
10, 369840, Note_off_c, 8, 79, 64
10, 369840, Pitch_bend_c, 8, 8192
10, 369840, Note_on_c, 8, 80, 100
10, 370080, Note_off_c, 8, 80, 64
10, 370080, Note_on_c, 8, 80, 100
10, 370320, Control_c, 8, 1, 127
10, 371040, Note_off_c, 8, 80, 64
10, 371040, Control_c, 8, 1, 0
10, 371040, Pitch_bend_c, 8, 192
10, 371040, Note_on_c, 8, 76, 100
10, 371055, Pitch_bend_c, 8, 1192
10, 371070, Pitch_bend_c, 8, 2192
10, 371085, Pitch_bend_c, 8, 3192
10, 371100, Pitch_bend_c, 8, 4192
10, 371115, Pitch_bend_c, 8, 5192
10, 371130, Pitch_bend_c, 8, 6192
10, 371145, Pitch_bend_c, 8, 7192
10, 371160, Pitch_bend_c, 8, 8192
10, 371280, Note_off_c, 8, 76, 64
10, 371280, Note_on_c, 8, 78, 100
10, 371760, Note_off_c, 8, 78, 64
10, 371760, Note_on_c, 8, 76, 100
10, 372000, Note_off_c, 8, 76, 64
10, 372000, Note_on_c, 8, 74, 100
10, 372240, Note_off_c, 8, 74, 64
10, 372240, Note_on_c, 8, 73, 100
10, 372480, Note_off_c, 8, 73, 64
10, 372480, Note_on_c, 8, 71, 100
10, 372960, Note_off_c, 8, 71, 64
10, 372960, Note_on_c, 8, 69, 60
10, 373000, Note_off_c, 8, 69, 64
10, 373000, Note_on_c, 8, 67, 60
10, 373040, Note_off_c, 8, 67, 64
10, 373040, Note_on_c, 8, 65, 60
10, 373080, Note_off_c, 8, 65, 64
10, 373080, Note_on_c, 8, 64, 60
10, 373120, Note_off_c, 8, 64, 64
10, 373120, Note_on_c, 8, 62, 60
10, 373160, Note_off_c, 8, 62, 64
10, 373160, Note_on_c, 8, 60, 60
10, 373200, Note_off_c, 8, 60, 64
10, 373200, Note_on_c, 8, 59, 60
10, 373240, Note_off_c, 8, 59, 64
10, 373240, Note_on_c, 8, 57, 60
10, 373280, Note_off_c, 8, 57, 64
10, 373280, Note_on_c, 8, 55, 60
10, 373320, Note_off_c, 8, 55, 64
10, 373320, Note_on_c, 8, 53, 60
10, 373360, Note_off_c, 8, 53, 64
10, 373440, Note_on_c, 8, 76, 100
10, 373560, Note_off_c, 8, 76, 64
10, 373560, Note_on_c, 8, 71, 100
10, 373680, Note_off_c, 8, 71, 64
10, 373680, Note_on_c, 8, 78, 100
10, 373800, Note_off_c, 8, 78, 64
10, 373800, Note_on_c, 8, 71, 100
10, 373920, Note_off_c, 8, 71, 64
10, 373920, Note_on_c, 8, 80, 100
10, 374040, Note_off_c, 8, 80, 64
10, 374040, Note_on_c, 8, 71, 100
10, 374160, Note_off_c, 8, 71, 64
10, 374160, Note_on_c, 8, 81, 100
10, 374280, Note_off_c, 8, 81, 64
10, 374280, Note_on_c, 8, 71, 100
10, 374400, Note_off_c, 8, 71, 64
10, 374400, Note_on_c, 8, 80, 100
10, 374520, Note_off_c, 8, 80, 64
10, 374520, Note_on_c, 8, 71, 100
10, 374640, Note_off_c, 8, 71, 64
10, 374640, Note_on_c, 8, 78, 100
10, 374760, Note_off_c, 8, 78, 64
10, 374760, Note_on_c, 8, 71, 100
10, 374880, Note_off_c, 8, 71, 64
10, 374880, Note_on_c, 8, 76, 100
10, 375000, Note_off_c, 8, 76, 64
10, 375000, Note_on_c, 8, 71, 100
10, 375120, Note_off_c, 8, 71, 64
10, 375120, Note_on_c, 8, 78, 100
10, 375240, Note_off_c, 8, 78, 64
10, 375240, Note_on_c, 8, 71, 100
10, 375360, Note_off_c, 8, 71, 64
10, 375360, Note_on_c, 8, 76, 100
10, 375480, Note_off_c, 8, 76, 64
10, 375480, Note_on_c, 8, 71, 100
10, 375600, Note_off_c, 8, 71, 64
10, 375600, Note_on_c, 8, 78, 100
10, 375720, Note_off_c, 8, 78, 64
10, 375720, Note_on_c, 8, 71, 100
10, 375840, Note_off_c, 8, 71, 64
10, 375840, Note_on_c, 8, 80, 100
10, 375960, Note_off_c, 8, 80, 64
10, 375960, Note_on_c, 8, 71, 100
10, 376080, Note_off_c, 8, 71, 64
10, 376080, Note_on_c, 8, 81, 100
10, 376200, Note_off_c, 8, 81, 64
10, 376200, Note_on_c, 8, 71, 100
10, 376320, Note_off_c, 8, 71, 64
10, 376320, Note_on_c, 8, 80, 100
10, 376440, Note_off_c, 8, 80, 64
10, 376440, Note_on_c, 8, 71, 100
10, 376560, Note_off_c, 8, 71, 64
10, 376560, Note_on_c, 8, 78, 100
10, 376680, Note_off_c, 8, 78, 64
10, 376680, Note_on_c, 8, 71, 100
10, 376800, Note_off_c, 8, 71, 64
10, 376800, Note_on_c, 8, 76, 100
10, 376920, Note_off_c, 8, 76, 64
10, 376920, Note_on_c, 8, 71, 100
10, 377040, Note_off_c, 8, 71, 64
10, 377040, Note_on_c, 8, 78, 100
10, 377160, Note_off_c, 8, 78, 64
10, 377160, Note_on_c, 8, 71, 100
10, 377280, Note_off_c, 8, 71, 64
10, 377280, Note_on_c, 8, 80, 100
10, 377400, Note_off_c, 8, 80, 64
10, 377400, Note_on_c, 8, 76, 100
10, 377520, Note_off_c, 8, 76, 64
10, 377520, Note_on_c, 8, 81, 100
10, 377640, Note_off_c, 8, 81, 64
10, 377640, Note_on_c, 8, 76, 100
10, 377760, Note_off_c, 8, 76, 64
10, 377760, Note_on_c, 8, 88, 100
10, 377880, Note_off_c, 8, 88, 64
10, 377880, Note_on_c, 8, 76, 100
10, 378000, Note_off_c, 8, 76, 64
10, 378000, Note_on_c, 8, 85, 100
10, 378120, Note_off_c, 8, 85, 64
10, 378120, Note_on_c, 8, 76, 100
10, 378240, Note_off_c, 8, 76, 64
10, 378240, Note_on_c, 8, 83, 100
10, 378360, Note_off_c, 8, 83, 64
10, 378360, Note_on_c, 8, 76, 100
10, 378480, Note_off_c, 8, 76, 64
10, 378480, Note_on_c, 8, 81, 100
10, 378600, Note_off_c, 8, 81, 64
10, 378600, Note_on_c, 8, 76, 100
10, 378720, Note_off_c, 8, 76, 64
10, 378720, Note_on_c, 8, 80, 100
10, 378840, Note_off_c, 8, 80, 64
10, 378840, Note_on_c, 8, 76, 100
10, 378960, Note_off_c, 8, 76, 64
10, 378960, Note_on_c, 8, 81, 100
10, 379080, Note_off_c, 8, 81, 64
10, 379080, Note_on_c, 8, 76, 100
10, 379200, Note_off_c, 8, 76, 64
10, 379200, Note_on_c, 8, 80, 100
10, 379320, Note_off_c, 8, 80, 64
10, 379320, Note_on_c, 8, 76, 100
10, 379440, Note_off_c, 8, 76, 64
10, 379440, Note_on_c, 8, 81, 100
10, 379560, Note_off_c, 8, 81, 64
10, 379560, Note_on_c, 8, 76, 100
10, 379680, Note_off_c, 8, 76, 64
10, 379680, Note_on_c, 8, 88, 100
10, 379800, Note_off_c, 8, 88, 64
10, 379800, Note_on_c, 8, 76, 100
10, 379920, Note_off_c, 8, 76, 64
10, 379920, Note_on_c, 8, 85, 100
10, 380040, Note_off_c, 8, 85, 64
10, 380040, Note_on_c, 8, 76, 100
10, 380160, Note_off_c, 8, 76, 64
10, 380160, Note_on_c, 8, 83, 100
10, 380280, Note_off_c, 8, 83, 64
10, 380280, Note_on_c, 8, 76, 100
10, 380400, Note_off_c, 8, 76, 64
10, 380400, Note_on_c, 8, 81, 100
10, 380520, Note_off_c, 8, 81, 64
10, 380520, Note_on_c, 8, 76, 100
10, 380640, Note_off_c, 8, 76, 64
10, 380640, Note_on_c, 8, 80, 100
10, 380760, Note_off_c, 8, 80, 64
10, 380760, Note_on_c, 8, 76, 100
10, 380880, Note_off_c, 8, 76, 64
10, 380880, Note_on_c, 8, 81, 100
10, 381000, Note_off_c, 8, 81, 64
10, 381000, Note_on_c, 8, 76, 100
10, 381120, Note_off_c, 8, 76, 64
10, 381120, Note_on_c, 8, 80, 100
10, 381240, Note_off_c, 8, 80, 64
10, 381240, Note_on_c, 8, 76, 100
10, 381360, Note_off_c, 8, 76, 64
10, 381360, Note_on_c, 8, 81, 100
10, 381480, Note_off_c, 8, 81, 64
10, 381480, Note_on_c, 8, 76, 100
10, 381600, Note_off_c, 8, 76, 64
10, 381600, Note_on_c, 8, 88, 100
10, 381720, Note_off_c, 8, 88, 64
10, 381720, Note_on_c, 8, 76, 100
10, 381840, Note_off_c, 8, 76, 64
10, 381840, Note_on_c, 8, 85, 100
10, 381960, Note_off_c, 8, 85, 64
10, 381960, Note_on_c, 8, 76, 100
10, 382080, Note_off_c, 8, 76, 64
10, 382080, Note_on_c, 8, 83, 100
10, 382200, Note_off_c, 8, 83, 64
10, 382200, Note_on_c, 8, 76, 100
10, 382320, Note_off_c, 8, 76, 64
10, 382320, Note_on_c, 8, 81, 100
10, 382440, Note_off_c, 8, 81, 64
10, 382440, Note_on_c, 8, 76, 100
10, 382560, Note_off_c, 8, 76, 64
10, 382560, Note_on_c, 8, 80, 100
10, 382680, Note_off_c, 8, 80, 64
10, 382680, Note_on_c, 8, 76, 100
10, 382800, Note_off_c, 8, 76, 64
10, 382800, Note_on_c, 8, 81, 100
10, 382920, Note_off_c, 8, 81, 64
10, 382920, Note_on_c, 8, 76, 100
10, 383040, Note_off_c, 8, 76, 64
10, 383040, Note_on_c, 8, 80, 100
10, 383160, Note_off_c, 8, 80, 64
10, 383160, Note_on_c, 8, 76, 100
10, 383280, Note_off_c, 8, 76, 64
10, 383280, Note_on_c, 8, 81, 100
10, 383400, Note_off_c, 8, 81, 64
10, 383400, Note_on_c, 8, 76, 100
10, 383520, Note_off_c, 8, 76, 64
10, 383520, Note_on_c, 8, 88, 100
10, 383640, Note_off_c, 8, 88, 64
10, 383640, Note_on_c, 8, 76, 100
10, 383760, Note_off_c, 8, 76, 64
10, 383760, Note_on_c, 8, 85, 100
10, 383880, Note_off_c, 8, 85, 64
10, 383880, Note_on_c, 8, 76, 100
10, 384000, Note_off_c, 8, 76, 64
10, 384000, Note_on_c, 8, 83, 100
10, 384120, Note_off_c, 8, 83, 64
10, 384120, Note_on_c, 8, 76, 100
10, 384240, Note_off_c, 8, 76, 64
10, 384240, Note_on_c, 8, 81, 100
10, 384360, Note_off_c, 8, 81, 64
10, 384360, Note_on_c, 8, 76, 100
10, 384480, Note_off_c, 8, 76, 64
10, 384480, Note_on_c, 8, 80, 100
10, 384600, Note_off_c, 8, 80, 64
10, 384600, Note_on_c, 8, 76, 100
10, 384720, Note_off_c, 8, 76, 64
10, 384720, Note_on_c, 8, 81, 100
10, 384840, Note_off_c, 8, 81, 64
10, 384840, Note_on_c, 8, 76, 100
10, 384960, Note_off_c, 8, 76, 64
10, 384960, Note_on_c, 8, 80, 100
10, 385080, Note_off_c, 8, 80, 64
10, 385080, Note_on_c, 8, 76, 100
10, 385200, Note_off_c, 8, 76, 64
10, 385200, Note_on_c, 8, 81, 100
10, 385320, Note_off_c, 8, 81, 64
10, 385320, Note_on_c, 8, 76, 100
10, 385440, Note_off_c, 8, 76, 64
10, 385440, Note_on_c, 8, 88, 100
10, 385560, Note_off_c, 8, 88, 64
10, 385560, Note_on_c, 8, 76, 100
10, 385680, Note_off_c, 8, 76, 64
10, 385680, Note_on_c, 8, 85, 100
10, 385800, Note_off_c, 8, 85, 64
10, 385800, Note_on_c, 8, 76, 100
10, 385920, Note_off_c, 8, 76, 64
10, 385920, Note_on_c, 8, 83, 100
10, 386040, Note_off_c, 8, 83, 64
10, 386040, Note_on_c, 8, 76, 100
10, 386160, Note_off_c, 8, 76, 64
10, 386160, Note_on_c, 8, 81, 100
10, 386280, Note_off_c, 8, 81, 64
10, 386280, Note_on_c, 8, 76, 100
10, 386400, Note_off_c, 8, 76, 64
10, 386400, Note_on_c, 8, 80, 100
10, 386520, Note_off_c, 8, 80, 64
10, 386520, Note_on_c, 8, 76, 100
10, 386640, Note_off_c, 8, 76, 64
10, 386640, Note_on_c, 8, 81, 100
10, 386760, Note_off_c, 8, 81, 64
10, 386760, Note_on_c, 8, 76, 100
10, 386880, Note_off_c, 8, 76, 64
10, 386880, Note_on_c, 8, 80, 100
10, 387000, Note_off_c, 8, 80, 64
10, 387000, Note_on_c, 8, 76, 100
10, 387120, Note_off_c, 8, 76, 64
10, 387120, Note_on_c, 8, 81, 100
10, 387240, Note_off_c, 8, 81, 64
10, 387240, Note_on_c, 8, 76, 100
10, 387600, Note_off_c, 8, 76, 64
10, 387600, Note_on_c, 8, 76, 100
10, 390727, Note_off_c, 8, 76, 64
10, 390727, End_track
11, 0, Start_track
11, 0, Title_t, "Drums"
11, 0, MIDI_port, 0
11, 0, Channel_prefix, 9
11, 0, Control_c, 9, 7, 94
11, 0, Program_c, 9, 0
11, 13440, Note_on_c, 9, 40, 100
11, 13480, Note_off_c, 9, 40, 80
11, 13480, Note_on_c, 9, 40, 100
11, 13520, Note_off_c, 9, 40, 80
11, 13680, Note_on_c, 9, 49, 100
11, 13680, Note_on_c, 9, 36, 100
11, 13920, Note_off_c, 9, 36, 80
11, 13920, Note_off_c, 9, 49, 80
11, 14160, Note_on_c, 9, 36, 100
11, 14400, Note_off_c, 9, 36, 80
11, 14400, Note_on_c, 9, 40, 100
11, 14400, Note_on_c, 9, 55, 100
11, 14640, Note_off_c, 9, 55, 80
11, 14640, Note_off_c, 9, 40, 80
11, 14640, Note_on_c, 9, 40, 100
11, 14760, Note_off_c, 9, 40, 80
11, 14760, Note_on_c, 9, 40, 100
11, 14880, Note_off_c, 9, 40, 80
11, 14880, Note_on_c, 9, 40, 100
11, 15000, Note_off_c, 9, 40, 80
11, 15000, Note_on_c, 9, 40, 100
11, 15120, Note_off_c, 9, 40, 80
11, 15120, Note_on_c, 9, 40, 100
11, 15240, Note_off_c, 9, 40, 80
11, 15240, Note_on_c, 9, 40, 100
11, 15360, Note_off_c, 9, 40, 80
11, 15360, Note_on_c, 9, 36, 100
11, 15360, Note_on_c, 9, 49, 100
11, 15600, Note_off_c, 9, 36, 80
11, 15600, Note_on_c, 9, 36, 100
11, 15840, Note_off_c, 9, 49, 80
11, 15840, Note_off_c, 9, 36, 80
11, 15840, Note_on_c, 9, 40, 100
11, 15840, Note_on_c, 9, 46, 100
11, 16080, Note_off_c, 9, 40, 80
11, 16080, Note_on_c, 9, 36, 100
11, 16320, Note_off_c, 9, 46, 80
11, 16320, Note_on_c, 9, 46, 100
11, 16560, Note_off_c, 9, 36, 80
11, 16560, Note_on_c, 9, 36, 100
11, 16800, Note_off_c, 9, 46, 80
11, 16800, Note_off_c, 9, 36, 80
11, 16800, Note_on_c, 9, 40, 100
11, 16800, Note_on_c, 9, 46, 100
11, 17040, Note_off_c, 9, 40, 80
11, 17040, Note_on_c, 9, 36, 100
11, 17280, Note_off_c, 9, 46, 80
11, 17280, Note_off_c, 9, 36, 80
11, 17280, Note_on_c, 9, 36, 100
11, 17280, Note_on_c, 9, 46, 100
11, 17520, Note_off_c, 9, 36, 80
11, 17520, Note_on_c, 9, 36, 100
11, 17760, Note_off_c, 9, 46, 80
11, 17760, Note_off_c, 9, 36, 80
11, 17760, Note_on_c, 9, 46, 100
11, 17760, Note_on_c, 9, 40, 100
11, 18240, Note_off_c, 9, 40, 80
11, 18240, Note_off_c, 9, 46, 80
11, 18240, Note_on_c, 9, 36, 100
11, 18240, Note_on_c, 9, 46, 100
11, 18480, Note_off_c, 9, 36, 80
11, 18480, Note_on_c, 9, 36, 100
11, 18720, Note_off_c, 9, 46, 80
11, 18720, Note_off_c, 9, 36, 80
11, 18720, Note_on_c, 9, 40, 100
11, 18720, Note_on_c, 9, 46, 100
11, 18960, Note_off_c, 9, 40, 80
11, 18960, Note_on_c, 9, 36, 100
11, 19200, Note_off_c, 9, 46, 80
11, 19200, Note_on_c, 9, 46, 100
11, 19440, Note_off_c, 9, 36, 80
11, 19440, Note_on_c, 9, 36, 100
11, 19680, Note_off_c, 9, 46, 80
11, 19680, Note_off_c, 9, 36, 80
11, 19680, Note_on_c, 9, 46, 100
11, 19680, Note_on_c, 9, 40, 100
11, 20160, Note_off_c, 9, 46, 80
11, 20160, Note_on_c, 9, 46, 100
11, 20393, Note_off_c, 9, 40, 80
11, 20400, Note_on_c, 9, 36, 100
11, 20640, Note_off_c, 9, 46, 80
11, 20640, Note_off_c, 9, 36, 80
11, 20640, Note_on_c, 9, 46, 100
11, 20640, Note_on_c, 9, 40, 100
11, 21120, Note_off_c, 9, 40, 80
11, 21120, Note_off_c, 9, 46, 80
11, 21120, Note_on_c, 9, 36, 100
11, 21120, Note_on_c, 9, 46, 100
11, 21360, Note_off_c, 9, 36, 80
11, 21360, Note_on_c, 9, 36, 100
11, 21600, Note_off_c, 9, 46, 80
11, 21600, Note_off_c, 9, 36, 80
11, 21600, Note_on_c, 9, 40, 100
11, 21600, Note_on_c, 9, 46, 100
11, 21840, Note_off_c, 9, 40, 80
11, 21840, Note_on_c, 9, 36, 100
11, 22080, Note_off_c, 9, 46, 80
11, 22080, Note_on_c, 9, 46, 100
11, 22320, Note_off_c, 9, 36, 80
11, 22320, Note_on_c, 9, 36, 100
11, 22560, Note_off_c, 9, 46, 80
11, 22560, Note_off_c, 9, 36, 80
11, 22560, Note_on_c, 9, 40, 100
11, 22560, Note_on_c, 9, 46, 100
11, 22800, Note_off_c, 9, 40, 80
11, 22800, Note_on_c, 9, 40, 100
11, 22920, Note_off_c, 9, 40, 80
11, 22920, Note_on_c, 9, 40, 100
11, 23040, Note_off_c, 9, 46, 80
11, 23040, Note_off_c, 9, 40, 80
11, 23040, Note_on_c, 9, 49, 100
11, 23040, Note_on_c, 9, 36, 100
11, 23280, Note_off_c, 9, 36, 80
11, 23280, Note_on_c, 9, 36, 100
11, 23520, Note_off_c, 9, 49, 80
11, 23520, Note_off_c, 9, 36, 80
11, 23520, Note_on_c, 9, 40, 100
11, 23520, Note_on_c, 9, 46, 100
11, 23760, Note_off_c, 9, 40, 80
11, 23760, Note_on_c, 9, 36, 100
11, 24000, Note_off_c, 9, 46, 80
11, 24000, Note_on_c, 9, 46, 100
11, 24240, Note_off_c, 9, 36, 80
11, 24240, Note_on_c, 9, 36, 100
11, 24480, Note_off_c, 9, 46, 80
11, 24480, Note_off_c, 9, 36, 80
11, 24480, Note_on_c, 9, 40, 100
11, 24480, Note_on_c, 9, 46, 100
11, 24720, Note_off_c, 9, 40, 80
11, 24720, Note_on_c, 9, 36, 100
11, 24960, Note_off_c, 9, 46, 80
11, 24960, Note_off_c, 9, 36, 80
11, 24960, Note_on_c, 9, 40, 100
11, 24960, Note_on_c, 9, 46, 100
11, 25200, Note_off_c, 9, 40, 80
11, 25200, Note_on_c, 9, 40, 100
11, 25440, Note_off_c, 9, 46, 80
11, 25440, Note_off_c, 9, 40, 80
11, 25440, Note_on_c, 9, 49, 100
11, 25440, Note_on_c, 9, 36, 100
11, 25920, Note_off_c, 9, 36, 80
11, 25920, Note_off_c, 9, 49, 80
11, 25920, Note_on_c, 9, 40, 100
11, 25920, Note_on_c, 9, 46, 100
11, 26154, Note_off_c, 9, 40, 80
11, 26160, Note_on_c, 9, 36, 100
11, 26400, Note_off_c, 9, 46, 80
11, 26400, Note_off_c, 9, 36, 80
11, 26400, Note_on_c, 9, 40, 100
11, 26640, Note_off_c, 9, 40, 80
11, 26640, Note_on_c, 9, 49, 100
11, 26640, Note_on_c, 9, 36, 100
11, 26880, Note_off_c, 9, 49, 80
11, 26880, Note_on_c, 9, 46, 100
11, 27120, Note_off_c, 9, 36, 80
11, 27120, Note_on_c, 9, 36, 100
11, 27360, Note_off_c, 9, 46, 80
11, 27360, Note_off_c, 9, 36, 80
11, 27360, Note_on_c, 9, 46, 100
11, 27360, Note_on_c, 9, 40, 100
11, 27840, Note_off_c, 9, 46, 80
11, 27840, Note_on_c, 9, 46, 100
11, 28073, Note_off_c, 9, 40, 80
11, 28080, Note_on_c, 9, 36, 100
11, 28320, Note_off_c, 9, 46, 80
11, 28320, Note_off_c, 9, 36, 80
11, 28320, Note_on_c, 9, 40, 100
11, 28320, Note_on_c, 9, 46, 100
11, 28800, Note_off_c, 9, 46, 80
11, 28800, Note_off_c, 9, 40, 80
11, 28800, Note_on_c, 9, 49, 100
11, 28800, Note_on_c, 9, 36, 100
11, 29040, Note_off_c, 9, 36, 80
11, 29040, Note_off_c, 9, 49, 80
11, 29040, Note_on_c, 9, 57, 100
11, 29040, Note_on_c, 9, 36, 100
11, 29280, Note_off_c, 9, 36, 80
11, 29280, Note_off_c, 9, 57, 80
11, 29280, Note_on_c, 9, 40, 100
11, 29280, Note_on_c, 9, 46, 100
11, 29630, Note_off_c, 9, 46, 80
11, 29630, Note_off_c, 9, 40, 80
11, 29640, Note_on_c, 9, 40, 100
11, 29760, Note_off_c, 9, 40, 80
11, 29760, Note_on_c, 9, 40, 100
11, 29993, Note_off_c, 9, 40, 80
11, 30000, Note_on_c, 9, 40, 100
11, 30240, Note_on_c, 9, 40, 100
11, 30247, Note_off_c, 9, 40, 80
11, 30360, Note_off_c, 9, 40, 80
11, 30360, Note_on_c, 9, 40, 100
11, 30480, Note_off_c, 9, 40, 80
11, 30480, Note_on_c, 9, 40, 100
11, 30600, Note_off_c, 9, 40, 80
11, 30600, Note_on_c, 9, 40, 100
11, 30720, Note_off_c, 9, 40, 80
11, 30720, Note_on_c, 9, 36, 100
11, 30720, Note_on_c, 9, 40, 100
11, 30720, Note_on_c, 9, 43, 100
11, 30840, Note_off_c, 9, 36, 80
11, 30840, Note_on_c, 9, 36, 100
11, 30960, Note_off_c, 9, 36, 80
11, 30960, Note_on_c, 9, 36, 100
11, 31080, Note_off_c, 9, 36, 80
11, 31080, Note_on_c, 9, 36, 100
11, 31200, Note_off_c, 9, 40, 80
11, 31200, Note_off_c, 9, 43, 80
11, 31200, Note_off_c, 9, 36, 80
11, 31200, Note_on_c, 9, 36, 100
11, 31320, Note_off_c, 9, 36, 80
11, 31320, Note_on_c, 9, 36, 100
11, 31440, Note_off_c, 9, 36, 80
11, 31440, Note_on_c, 9, 36, 100
11, 31440, Note_on_c, 9, 40, 100
11, 31440, Note_on_c, 9, 43, 100
11, 31560, Note_off_c, 9, 36, 80
11, 31560, Note_on_c, 9, 36, 100
11, 31680, Note_off_c, 9, 36, 80
11, 31680, Note_on_c, 9, 36, 100
11, 31800, Note_off_c, 9, 36, 80
11, 31800, Note_on_c, 9, 36, 100
11, 31920, Note_off_c, 9, 40, 80
11, 31920, Note_off_c, 9, 43, 80
11, 31920, Note_off_c, 9, 36, 80
11, 31920, Note_on_c, 9, 36, 100
11, 32040, Note_off_c, 9, 36, 80
11, 32040, Note_on_c, 9, 36, 100
11, 32160, Note_off_c, 9, 36, 80
11, 32160, Note_on_c, 9, 36, 100
11, 32160, Note_on_c, 9, 40, 100
11, 32160, Note_on_c, 9, 49, 100
11, 32280, Note_off_c, 9, 36, 80
11, 32280, Note_on_c, 9, 36, 100
11, 32400, Note_off_c, 9, 36, 80
11, 32400, Note_on_c, 9, 36, 100
11, 32520, Note_off_c, 9, 36, 80
11, 32520, Note_on_c, 9, 36, 100
11, 32640, Note_off_c, 9, 40, 80
11, 32640, Note_off_c, 9, 49, 80
11, 32640, Note_off_c, 9, 36, 80
11, 32640, Note_on_c, 9, 36, 100
11, 32640, Note_on_c, 9, 40, 100
11, 32640, Note_on_c, 9, 53, 100
11, 32760, Note_off_c, 9, 36, 80
11, 32760, Note_on_c, 9, 36, 100
11, 32880, Note_off_c, 9, 36, 80
11, 32880, Note_on_c, 9, 36, 100
11, 33000, Note_off_c, 9, 36, 80
11, 33000, Note_on_c, 9, 36, 100
11, 33120, Note_off_c, 9, 40, 80
11, 33120, Note_off_c, 9, 53, 80
11, 33120, Note_off_c, 9, 36, 80
11, 33120, Note_on_c, 9, 36, 100
11, 33120, Note_on_c, 9, 40, 100
11, 33120, Note_on_c, 9, 53, 100
11, 33240, Note_off_c, 9, 36, 80
11, 33240, Note_on_c, 9, 36, 100
11, 33360, Note_off_c, 9, 36, 80
11, 33360, Note_on_c, 9, 36, 100
11, 33480, Note_off_c, 9, 36, 80
11, 33480, Note_on_c, 9, 36, 100
11, 33600, Note_off_c, 9, 40, 80
11, 33600, Note_off_c, 9, 53, 80
11, 33600, Note_off_c, 9, 36, 80
11, 33600, Note_on_c, 9, 36, 100
11, 33600, Note_on_c, 9, 40, 100
11, 33600, Note_on_c, 9, 53, 100
11, 33720, Note_off_c, 9, 36, 80
11, 33720, Note_on_c, 9, 36, 100
11, 33840, Note_off_c, 9, 36, 80
11, 33840, Note_on_c, 9, 36, 100
11, 33960, Note_off_c, 9, 36, 80
11, 33960, Note_on_c, 9, 36, 100
11, 34080, Note_off_c, 9, 40, 80
11, 34080, Note_off_c, 9, 53, 80
11, 34080, Note_off_c, 9, 36, 80
11, 34080, Note_on_c, 9, 36, 100
11, 34080, Note_on_c, 9, 40, 100
11, 34080, Note_on_c, 9, 53, 100
11, 34200, Note_off_c, 9, 36, 80
11, 34200, Note_on_c, 9, 36, 100
11, 34320, Note_off_c, 9, 36, 80
11, 34320, Note_on_c, 9, 36, 100
11, 34440, Note_off_c, 9, 36, 80
11, 34440, Note_on_c, 9, 36, 100
11, 34560, Note_off_c, 9, 40, 80
11, 34560, Note_off_c, 9, 53, 80
11, 34560, Note_off_c, 9, 36, 80
11, 34560, Note_on_c, 9, 43, 100
11, 34560, Note_on_c, 9, 40, 100
11, 34560, Note_on_c, 9, 36, 100
11, 34680, Note_off_c, 9, 36, 80
11, 34680, Note_on_c, 9, 36, 100
11, 34800, Note_off_c, 9, 36, 80
11, 34800, Note_on_c, 9, 36, 100
11, 34920, Note_off_c, 9, 36, 80
11, 34920, Note_on_c, 9, 36, 100
11, 35040, Note_off_c, 9, 40, 80
11, 35040, Note_off_c, 9, 43, 80
11, 35040, Note_off_c, 9, 36, 80
11, 35040, Note_on_c, 9, 36, 100
11, 35160, Note_off_c, 9, 36, 80
11, 35160, Note_on_c, 9, 36, 100
11, 35280, Note_off_c, 9, 36, 80
11, 35280, Note_on_c, 9, 36, 100
11, 35280, Note_on_c, 9, 40, 100
11, 35280, Note_on_c, 9, 43, 100
11, 35400, Note_off_c, 9, 36, 80
11, 35400, Note_on_c, 9, 36, 100
11, 35520, Note_off_c, 9, 36, 80
11, 35520, Note_on_c, 9, 36, 100
11, 35640, Note_off_c, 9, 36, 80
11, 35640, Note_on_c, 9, 36, 100
11, 35760, Note_off_c, 9, 40, 80
11, 35760, Note_off_c, 9, 43, 80
11, 35760, Note_off_c, 9, 36, 80
11, 35760, Note_on_c, 9, 36, 100
11, 35880, Note_off_c, 9, 36, 80
11, 35880, Note_on_c, 9, 36, 100
11, 36000, Note_off_c, 9, 36, 80
11, 36000, Note_on_c, 9, 36, 100
11, 36000, Note_on_c, 9, 40, 100
11, 36000, Note_on_c, 9, 49, 100
11, 36120, Note_off_c, 9, 36, 80
11, 36120, Note_on_c, 9, 36, 100
11, 36240, Note_off_c, 9, 36, 80
11, 36240, Note_on_c, 9, 36, 100
11, 36360, Note_off_c, 9, 36, 80
11, 36360, Note_on_c, 9, 36, 100
11, 36480, Note_off_c, 9, 40, 80
11, 36480, Note_off_c, 9, 49, 80
11, 36480, Note_off_c, 9, 36, 80
11, 36480, Note_on_c, 9, 36, 100
11, 36480, Note_on_c, 9, 40, 100
11, 36480, Note_on_c, 9, 53, 100
11, 36600, Note_off_c, 9, 36, 80
11, 36600, Note_on_c, 9, 36, 100
11, 36713, Note_off_c, 9, 53, 80
11, 36720, Note_off_c, 9, 36, 80
11, 36720, Note_on_c, 9, 36, 100
11, 36720, Note_on_c, 9, 53, 100
11, 36840, Note_off_c, 9, 53, 80
11, 36840, Note_off_c, 9, 36, 80
11, 36840, Note_on_c, 9, 36, 100
11, 36840, Note_on_c, 9, 53, 100
11, 36960, Note_off_c, 9, 53, 80
11, 36960, Note_off_c, 9, 40, 80
11, 36960, Note_off_c, 9, 36, 80
11, 36960, Note_on_c, 9, 36, 100
11, 36960, Note_on_c, 9, 40, 100
11, 36960, Note_on_c, 9, 53, 100
11, 37080, Note_off_c, 9, 36, 80
11, 37080, Note_on_c, 9, 36, 100
11, 37193, Note_off_c, 9, 53, 80
11, 37200, Note_off_c, 9, 36, 80
11, 37200, Note_on_c, 9, 36, 100
11, 37200, Note_on_c, 9, 53, 100
11, 37320, Note_off_c, 9, 53, 80
11, 37320, Note_off_c, 9, 36, 80
11, 37320, Note_on_c, 9, 36, 100
11, 37320, Note_on_c, 9, 53, 100
11, 37440, Note_off_c, 9, 53, 80
11, 37440, Note_off_c, 9, 40, 80
11, 37440, Note_off_c, 9, 36, 80
11, 37440, Note_on_c, 9, 36, 100
11, 37440, Note_on_c, 9, 40, 100
11, 37440, Note_on_c, 9, 53, 100
11, 37560, Note_off_c, 9, 36, 80
11, 37560, Note_on_c, 9, 36, 100
11, 37673, Note_off_c, 9, 53, 80
11, 37680, Note_off_c, 9, 36, 80
11, 37680, Note_on_c, 9, 36, 100
11, 37680, Note_on_c, 9, 53, 100
11, 37800, Note_off_c, 9, 53, 80
11, 37800, Note_off_c, 9, 36, 80
11, 37800, Note_on_c, 9, 36, 100
11, 37800, Note_on_c, 9, 53, 100
11, 37920, Note_off_c, 9, 53, 80
11, 37920, Note_off_c, 9, 40, 80
11, 37920, Note_off_c, 9, 36, 80
11, 37920, Note_on_c, 9, 36, 100
11, 37920, Note_on_c, 9, 40, 100
11, 37920, Note_on_c, 9, 53, 100
11, 38040, Note_off_c, 9, 36, 80
11, 38040, Note_on_c, 9, 36, 100
11, 38153, Note_off_c, 9, 53, 80
11, 38160, Note_off_c, 9, 36, 80
11, 38160, Note_on_c, 9, 36, 100
11, 38160, Note_on_c, 9, 53, 100
11, 38280, Note_off_c, 9, 36, 80
11, 38280, Note_on_c, 9, 36, 100
11, 38400, Note_off_c, 9, 40, 80
11, 38400, Note_off_c, 9, 36, 80
11, 38400, Note_on_c, 9, 43, 100
11, 38400, Note_on_c, 9, 40, 100
11, 38400, Note_on_c, 9, 36, 100
11, 38407, Note_off_c, 9, 53, 80
11, 38520, Note_off_c, 9, 36, 80
11, 38520, Note_on_c, 9, 36, 100
11, 38640, Note_off_c, 9, 36, 80
11, 38640, Note_on_c, 9, 36, 100
11, 38640, Note_on_c, 9, 53, 100
11, 38760, Note_off_c, 9, 36, 80
11, 38760, Note_on_c, 9, 36, 100
11, 38880, Note_off_c, 9, 43, 80
11, 38880, Note_off_c, 9, 40, 80
11, 38880, Note_off_c, 9, 36, 80
11, 38880, Note_on_c, 9, 36, 100
11, 38880, Note_on_c, 9, 53, 100
11, 38887, Note_off_c, 9, 53, 80
11, 39000, Note_off_c, 9, 36, 80
11, 39000, Note_on_c, 9, 36, 100
11, 39113, Note_off_c, 9, 53, 80
11, 39120, Note_off_c, 9, 36, 80
11, 39120, Note_on_c, 9, 36, 100
11, 39120, Note_on_c, 9, 40, 100
11, 39120, Note_on_c, 9, 43, 100
11, 39240, Note_off_c, 9, 36, 80
11, 39240, Note_on_c, 9, 36, 100
11, 39360, Note_off_c, 9, 36, 80
11, 39360, Note_on_c, 9, 36, 100
11, 39360, Note_on_c, 9, 53, 100
11, 39480, Note_off_c, 9, 36, 80
11, 39480, Note_on_c, 9, 36, 100
11, 39600, Note_off_c, 9, 40, 80
11, 39600, Note_off_c, 9, 43, 80
11, 39600, Note_off_c, 9, 53, 80
11, 39600, Note_off_c, 9, 36, 80
11, 39600, Note_on_c, 9, 36, 100
11, 39600, Note_on_c, 9, 53, 100
11, 39720, Note_off_c, 9, 36, 80
11, 39720, Note_on_c, 9, 36, 100
11, 39840, Note_off_c, 9, 53, 80
11, 39840, Note_off_c, 9, 36, 80
11, 39840, Note_on_c, 9, 36, 100
11, 39840, Note_on_c, 9, 40, 100
11, 39840, Note_on_c, 9, 49, 100
11, 39960, Note_off_c, 9, 36, 80
11, 39960, Note_on_c, 9, 36, 100
11, 40080, Note_off_c, 9, 36, 80
11, 40080, Note_on_c, 9, 36, 100
11, 40200, Note_off_c, 9, 36, 80
11, 40200, Note_on_c, 9, 36, 100
11, 40320, Note_off_c, 9, 40, 80
11, 40320, Note_off_c, 9, 49, 80
11, 40320, Note_off_c, 9, 36, 80
11, 40320, Note_on_c, 9, 36, 100
11, 40320, Note_on_c, 9, 40, 100
11, 40320, Note_on_c, 9, 53, 100
11, 40440, Note_off_c, 9, 36, 80
11, 40440, Note_on_c, 9, 36, 100
11, 40560, Note_off_c, 9, 53, 80
11, 40560, Note_off_c, 9, 36, 80
11, 40560, Note_on_c, 9, 36, 100
11, 40560, Note_on_c, 9, 53, 100
11, 40680, Note_off_c, 9, 36, 80
11, 40680, Note_on_c, 9, 36, 100
11, 40800, Note_off_c, 9, 40, 80
11, 40800, Note_off_c, 9, 53, 80
11, 40800, Note_off_c, 9, 36, 80
11, 40800, Note_on_c, 9, 36, 100
11, 40800, Note_on_c, 9, 40, 100
11, 40800, Note_on_c, 9, 53, 100
11, 40920, Note_off_c, 9, 36, 80
11, 40920, Note_on_c, 9, 36, 100
11, 41040, Note_off_c, 9, 53, 80
11, 41040, Note_off_c, 9, 36, 80
11, 41040, Note_on_c, 9, 36, 100
11, 41040, Note_on_c, 9, 53, 100
11, 41160, Note_off_c, 9, 36, 80
11, 41160, Note_on_c, 9, 36, 100
11, 41280, Note_off_c, 9, 40, 80
11, 41280, Note_off_c, 9, 53, 80
11, 41280, Note_off_c, 9, 36, 80
11, 41280, Note_on_c, 9, 36, 100
11, 41280, Note_on_c, 9, 40, 100
11, 41280, Note_on_c, 9, 53, 100
11, 41400, Note_off_c, 9, 36, 80
11, 41400, Note_on_c, 9, 36, 100
11, 41520, Note_off_c, 9, 53, 80
11, 41520, Note_off_c, 9, 36, 80
11, 41520, Note_on_c, 9, 36, 100
11, 41520, Note_on_c, 9, 53, 100
11, 41640, Note_off_c, 9, 36, 80
11, 41640, Note_on_c, 9, 36, 100
11, 41760, Note_off_c, 9, 40, 80
11, 41760, Note_off_c, 9, 53, 80
11, 41760, Note_off_c, 9, 36, 80
11, 41760, Note_on_c, 9, 36, 100
11, 41760, Note_on_c, 9, 40, 100
11, 41760, Note_on_c, 9, 53, 100
11, 41880, Note_off_c, 9, 36, 80
11, 41880, Note_on_c, 9, 36, 100
11, 42000, Note_off_c, 9, 53, 80
11, 42000, Note_off_c, 9, 36, 80
11, 42000, Note_on_c, 9, 36, 100
11, 42000, Note_on_c, 9, 53, 100
11, 42120, Note_off_c, 9, 36, 80
11, 42120, Note_on_c, 9, 36, 100
11, 42240, Note_off_c, 9, 40, 80
11, 42240, Note_off_c, 9, 53, 80
11, 42240, Note_off_c, 9, 36, 80
11, 42240, Note_on_c, 9, 36, 100
11, 42240, Note_on_c, 9, 40, 100
11, 42240, Note_on_c, 9, 43, 100
11, 42360, Note_off_c, 9, 36, 80
11, 42360, Note_on_c, 9, 36, 100
11, 42480, Note_off_c, 9, 36, 80
11, 42480, Note_on_c, 9, 36, 100
11, 42480, Note_on_c, 9, 53, 100
11, 42600, Note_off_c, 9, 36, 80
11, 42600, Note_on_c, 9, 36, 100
11, 42720, Note_off_c, 9, 40, 80
11, 42720, Note_off_c, 9, 43, 80
11, 42720, Note_off_c, 9, 36, 80
11, 42720, Note_on_c, 9, 36, 100
11, 42720, Note_on_c, 9, 53, 100
11, 42727, Note_off_c, 9, 53, 80
11, 42840, Note_off_c, 9, 36, 80
11, 42840, Note_on_c, 9, 36, 100
11, 42953, Note_off_c, 9, 53, 80
11, 42960, Note_off_c, 9, 36, 80
11, 42960, Note_on_c, 9, 36, 100
11, 42960, Note_on_c, 9, 40, 100
11, 42960, Note_on_c, 9, 43, 100
11, 43080, Note_off_c, 9, 36, 80
11, 43080, Note_on_c, 9, 36, 100
11, 43200, Note_off_c, 9, 36, 80
11, 43200, Note_on_c, 9, 36, 100
11, 43200, Note_on_c, 9, 53, 100
11, 43320, Note_off_c, 9, 36, 80
11, 43320, Note_on_c, 9, 36, 100
11, 43440, Note_off_c, 9, 40, 80
11, 43440, Note_off_c, 9, 43, 80
11, 43440, Note_off_c, 9, 53, 80
11, 43440, Note_off_c, 9, 36, 80
11, 43440, Note_on_c, 9, 36, 100
11, 43440, Note_on_c, 9, 53, 100
11, 43560, Note_off_c, 9, 36, 80
11, 43560, Note_on_c, 9, 36, 100
11, 43680, Note_off_c, 9, 53, 80
11, 43680, Note_off_c, 9, 36, 80
11, 43680, Note_on_c, 9, 36, 100
11, 43680, Note_on_c, 9, 40, 100
11, 43680, Note_on_c, 9, 49, 100
11, 43800, Note_off_c, 9, 36, 80
11, 44160, Note_off_c, 9, 40, 80
11, 44160, Note_off_c, 9, 49, 80
11, 44160, Note_on_c, 9, 40, 100
11, 44400, Note_off_c, 9, 40, 80
11, 44400, Note_on_c, 9, 40, 100
11, 44640, Note_off_c, 9, 40, 80
11, 44640, Note_on_c, 9, 46, 100
11, 44760, Note_off_c, 9, 46, 80
11, 44760, Note_on_c, 9, 42, 100
11, 44880, Note_off_c, 9, 42, 80
11, 44880, Note_on_c, 9, 40, 100
11, 45120, Note_off_c, 9, 40, 80
11, 45120, Note_on_c, 9, 40, 100
11, 45360, Note_off_c, 9, 40, 80
11, 45360, Note_on_c, 9, 40, 100
11, 45600, Note_off_c, 9, 40, 80
11, 45600, Note_on_c, 9, 40, 100
11, 45720, Note_off_c, 9, 40, 80
11, 45720, Note_on_c, 9, 40, 100
11, 45840, Note_off_c, 9, 40, 80
11, 45840, Note_on_c, 9, 40, 100
11, 45960, Note_off_c, 9, 40, 80
11, 45960, Note_on_c, 9, 36, 100
11, 45960, Note_on_c, 9, 49, 100
11, 46080, Note_off_c, 9, 49, 80
11, 46080, Note_off_c, 9, 36, 80
11, 46080, Note_on_c, 9, 49, 100
11, 46080, Note_on_c, 9, 36, 100
11, 46320, Note_off_c, 9, 36, 80
11, 46320, Note_on_c, 9, 36, 100
11, 46560, Note_off_c, 9, 49, 80
11, 46560, Note_off_c, 9, 36, 80
11, 46560, Note_on_c, 9, 40, 100
11, 46560, Note_on_c, 9, 46, 100
11, 46800, Note_off_c, 9, 40, 80
11, 46800, Note_on_c, 9, 36, 100
11, 47040, Note_off_c, 9, 46, 80
11, 47040, Note_on_c, 9, 46, 100
11, 47280, Note_off_c, 9, 36, 80
11, 47280, Note_on_c, 9, 36, 100
11, 47520, Note_off_c, 9, 46, 80
11, 47520, Note_off_c, 9, 36, 80
11, 47520, Note_on_c, 9, 40, 100
11, 47520, Note_on_c, 9, 46, 100
11, 47760, Note_off_c, 9, 40, 80
11, 47760, Note_on_c, 9, 36, 100
11, 48000, Note_off_c, 9, 46, 80
11, 48000, Note_off_c, 9, 36, 80
11, 48000, Note_on_c, 9, 36, 100
11, 48000, Note_on_c, 9, 46, 100
11, 48240, Note_off_c, 9, 36, 80
11, 48240, Note_on_c, 9, 36, 100
11, 48480, Note_off_c, 9, 46, 80
11, 48480, Note_off_c, 9, 36, 80
11, 48480, Note_on_c, 9, 40, 100
11, 48480, Note_on_c, 9, 49, 100
11, 48960, Note_off_c, 9, 49, 80
11, 48960, Note_off_c, 9, 40, 80
11, 48960, Note_on_c, 9, 36, 100
11, 48960, Note_on_c, 9, 46, 100
11, 49200, Note_off_c, 9, 36, 80
11, 49200, Note_on_c, 9, 36, 100
11, 49440, Note_off_c, 9, 46, 80
11, 49440, Note_off_c, 9, 36, 80
11, 49440, Note_on_c, 9, 40, 100
11, 49440, Note_on_c, 9, 46, 100
11, 49673, Note_off_c, 9, 46, 80
11, 49680, Note_off_c, 9, 40, 80
11, 49680, Note_on_c, 9, 36, 100
11, 49680, Note_on_c, 9, 49, 100
11, 49920, Note_on_c, 9, 46, 100
11, 49927, Note_off_c, 9, 49, 80
11, 49980, Note_off_c, 9, 46, 80
11, 49980, Note_on_c, 9, 42, 100
11, 50040, Note_off_c, 9, 42, 80
11, 50160, Note_off_c, 9, 36, 80
11, 50160, Note_on_c, 9, 36, 100
11, 50400, Note_off_c, 9, 36, 80
11, 50400, Note_on_c, 9, 46, 100
11, 50400, Note_on_c, 9, 40, 100
11, 50633, Note_off_c, 9, 40, 80
11, 50880, Note_off_c, 9, 46, 80
11, 50880, Note_on_c, 9, 46, 100
11, 50880, Note_on_c, 9, 36, 100
11, 51120, Note_off_c, 9, 36, 80
11, 51120, Note_on_c, 9, 36, 100
11, 51360, Note_off_c, 9, 46, 80
11, 51360, Note_off_c, 9, 36, 80
11, 51360, Note_on_c, 9, 46, 100
11, 51360, Note_on_c, 9, 40, 100
11, 51840, Note_off_c, 9, 40, 80
11, 51840, Note_off_c, 9, 46, 80
11, 51840, Note_on_c, 9, 40, 100
11, 52080, Note_off_c, 9, 40, 64
11, 52080, Note_on_c, 9, 36, 100
11, 52080, Note_on_c, 9, 46, 100
11, 52320, Note_off_c, 9, 46, 64
11, 52320, Note_off_c, 9, 36, 64
11, 52320, Note_on_c, 9, 40, 100
11, 52560, Note_off_c, 9, 40, 64
11, 52560, Note_on_c, 9, 36, 100
11, 52560, Note_on_c, 9, 46, 100
11, 52800, Note_off_c, 9, 46, 64
11, 52800, Note_off_c, 9, 36, 64
11, 52800, Note_on_c, 9, 40, 100
11, 52920, Note_off_c, 9, 40, 64
11, 52920, Note_on_c, 9, 40, 100
11, 53040, Note_off_c, 9, 40, 64
11, 53040, Note_on_c, 9, 40, 100
11, 53160, Note_off_c, 9, 40, 64
11, 53160, Note_on_c, 9, 40, 100
11, 53280, Note_off_c, 9, 40, 64
11, 53280, Note_on_c, 9, 36, 100
11, 53280, Note_on_c, 9, 46, 100
11, 53400, Note_off_c, 9, 46, 64
11, 53400, Note_off_c, 9, 36, 64
11, 53520, Note_on_c, 9, 49, 100
11, 53520, Note_on_c, 9, 36, 100
11, 53760, Note_off_c, 9, 49, 64
11, 53760, Note_on_c, 9, 36, 100
11, 53760, Note_on_c, 9, 49, 100
11, 53767, Note_off_c, 9, 36, 64
11, 54000, Note_off_c, 9, 36, 80
11, 54000, Note_on_c, 9, 36, 100
11, 54240, Note_off_c, 9, 49, 80
11, 54240, Note_off_c, 9, 36, 80
11, 54240, Note_on_c, 9, 40, 100
11, 54240, Note_on_c, 9, 46, 100
11, 54480, Note_off_c, 9, 40, 80
11, 54480, Note_on_c, 9, 36, 100
11, 54720, Note_off_c, 9, 46, 80
11, 54720, Note_on_c, 9, 46, 100
11, 54960, Note_off_c, 9, 36, 80
11, 54960, Note_on_c, 9, 36, 100
11, 55200, Note_off_c, 9, 46, 80
11, 55200, Note_off_c, 9, 36, 80
11, 55200, Note_on_c, 9, 40, 100
11, 55200, Note_on_c, 9, 46, 100
11, 55440, Note_off_c, 9, 40, 80
11, 55440, Note_on_c, 9, 36, 100
11, 55680, Note_off_c, 9, 46, 80
11, 55680, Note_off_c, 9, 36, 80
11, 55680, Note_on_c, 9, 40, 100
11, 55680, Note_on_c, 9, 46, 100
11, 55920, Note_off_c, 9, 40, 80
11, 55920, Note_on_c, 9, 40, 100
11, 56160, Note_off_c, 9, 46, 80
11, 56160, Note_off_c, 9, 40, 80
11, 56160, Note_on_c, 9, 49, 100
11, 56160, Note_on_c, 9, 36, 100
11, 56640, Note_off_c, 9, 36, 80
11, 56640, Note_off_c, 9, 49, 80
11, 56640, Note_on_c, 9, 40, 100
11, 56640, Note_on_c, 9, 46, 100
11, 56874, Note_off_c, 9, 40, 80
11, 56880, Note_on_c, 9, 36, 100
11, 57120, Note_off_c, 9, 46, 80
11, 57120, Note_off_c, 9, 36, 80
11, 57120, Note_on_c, 9, 40, 100
11, 57360, Note_off_c, 9, 40, 80
11, 57360, Note_on_c, 9, 49, 100
11, 57360, Note_on_c, 9, 36, 100
11, 57600, Note_off_c, 9, 49, 80
11, 57600, Note_on_c, 9, 46, 100
11, 57833, Note_off_c, 9, 46, 80
11, 57840, Note_off_c, 9, 36, 80
11, 57840, Note_on_c, 9, 36, 100
11, 57840, Note_on_c, 9, 42, 100
11, 58080, Note_off_c, 9, 42, 64
11, 58080, Note_off_c, 9, 36, 80
11, 58080, Note_on_c, 9, 40, 100
11, 58320, Note_on_c, 9, 46, 100
11, 58560, Note_on_c, 9, 36, 100
11, 58560, Note_on_c, 9, 42, 100
11, 58567, Note_off_c, 9, 46, 80
11, 58793, Note_off_c, 9, 40, 80
11, 58800, Note_off_c, 9, 36, 64
11, 58800, Note_off_c, 9, 42, 64
11, 58800, Note_on_c, 9, 36, 100
11, 59040, Note_off_c, 9, 36, 80
11, 59040, Note_on_c, 9, 46, 100
11, 59273, Note_off_c, 9, 46, 80
11, 59280, Note_on_c, 9, 36, 100
11, 59280, Note_on_c, 9, 42, 100
11, 59520, Note_off_c, 9, 42, 64
11, 59520, Note_on_c, 9, 36, 100
11, 59520, Note_on_c, 9, 55, 100
11, 59527, Note_off_c, 9, 36, 80
11, 59600, Note_off_c, 9, 36, 64
11, 59600, Note_on_c, 9, 36, 100
11, 59680, Note_off_c, 9, 36, 64
11, 59680, Note_on_c, 9, 36, 100
11, 59760, Note_off_c, 9, 36, 64
11, 59760, Note_on_c, 9, 36, 100
11, 59880, Note_off_c, 9, 36, 64
11, 59880, Note_on_c, 9, 36, 100
11, 60000, Note_off_c, 9, 55, 64
11, 60000, Note_off_c, 9, 36, 64
11, 60000, Note_on_c, 9, 36, 100
11, 60000, Note_on_c, 9, 55, 100
11, 60120, Note_off_c, 9, 36, 64
11, 60120, Note_on_c, 9, 36, 100
11, 60240, Note_off_c, 9, 36, 64
11, 60240, Note_on_c, 9, 36, 100
11, 60360, Note_off_c, 9, 36, 64
11, 60360, Note_on_c, 9, 36, 100
11, 60480, Note_off_c, 9, 55, 64
11, 60480, Note_off_c, 9, 36, 64
11, 60480, Note_on_c, 9, 40, 100
11, 60480, Note_on_c, 9, 55, 100
11, 60830, Note_off_c, 9, 40, 64
11, 60960, Note_off_c, 9, 55, 64
11, 60960, Note_on_c, 9, 55, 100
11, 61200, Note_on_c, 9, 36, 100
11, 61440, Note_off_c, 9, 36, 64
11, 61440, Note_off_c, 9, 55, 64
11, 61440, Note_on_c, 9, 55, 100
11, 61680, Note_on_c, 9, 36, 100
11, 61800, Note_off_c, 9, 36, 64
11, 61800, Note_on_c, 9, 36, 100
11, 61920, Note_off_c, 9, 55, 64
11, 61920, Note_off_c, 9, 36, 64
11, 61920, Note_on_c, 9, 55, 100
11, 61920, Note_on_c, 9, 36, 100
11, 62153, Note_off_c, 9, 36, 64
11, 62400, Note_off_c, 9, 55, 64
11, 62400, Note_on_c, 9, 55, 100
11, 62400, Note_on_c, 9, 36, 100
11, 62520, Note_off_c, 9, 36, 64
11, 62520, Note_on_c, 9, 36, 100
11, 62640, Note_off_c, 9, 36, 64
11, 62640, Note_on_c, 9, 36, 100
11, 62760, Note_off_c, 9, 36, 64
11, 62760, Note_on_c, 9, 36, 100
11, 62880, Note_off_c, 9, 55, 64
11, 62880, Note_off_c, 9, 36, 64
11, 62880, Note_on_c, 9, 55, 100
11, 62880, Note_on_c, 9, 36, 100
11, 63000, Note_off_c, 9, 36, 64
11, 63000, Note_on_c, 9, 36, 100
11, 63120, Note_off_c, 9, 36, 64
11, 63120, Note_on_c, 9, 36, 100
11, 63240, Note_off_c, 9, 36, 64
11, 63240, Note_on_c, 9, 36, 100
11, 63360, Note_off_c, 9, 55, 64
11, 63360, Note_off_c, 9, 36, 64
11, 63360, Note_on_c, 9, 55, 100
11, 63360, Note_on_c, 9, 40, 100
11, 63840, Note_off_c, 9, 40, 64
11, 63840, Note_off_c, 9, 55, 64
11, 63840, Note_on_c, 9, 55, 100
11, 64080, Note_on_c, 9, 36, 100
11, 64320, Note_off_c, 9, 36, 64
11, 64320, Note_off_c, 9, 55, 64
11, 64320, Note_on_c, 9, 55, 100
11, 64560, Note_on_c, 9, 36, 100
11, 64680, Note_off_c, 9, 36, 64
11, 64680, Note_on_c, 9, 36, 100
11, 64800, Note_off_c, 9, 55, 64
11, 64800, Note_off_c, 9, 36, 64
11, 64800, Note_on_c, 9, 55, 100
11, 64800, Note_on_c, 9, 36, 100
11, 65033, Note_off_c, 9, 36, 64
11, 65040, Note_on_c, 9, 36, 100
11, 65280, Note_off_c, 9, 55, 64
11, 65280, Note_on_c, 9, 55, 100
11, 65280, Note_on_c, 9, 40, 100
11, 65287, Note_off_c, 9, 36, 64
11, 65520, Note_off_c, 9, 40, 64
11, 65520, Note_on_c, 9, 40, 100
11, 65760, Note_off_c, 9, 55, 64
11, 65760, Note_off_c, 9, 40, 64
11, 65760, Note_on_c, 9, 55, 100
11, 66000, Note_on_c, 9, 36, 100
11, 66240, Note_off_c, 9, 36, 64
11, 66240, Note_off_c, 9, 55, 64
11, 66240, Note_on_c, 9, 55, 100
11, 66240, Note_on_c, 9, 36, 100
11, 66360, Note_off_c, 9, 36, 64
11, 66360, Note_on_c, 9, 36, 100
11, 66480, Note_off_c, 9, 36, 64
11, 66480, Note_on_c, 9, 36, 100
11, 66600, Note_off_c, 9, 36, 64
11, 66600, Note_on_c, 9, 36, 100
11, 66720, Note_off_c, 9, 55, 64
11, 66720, Note_off_c, 9, 36, 64
11, 66720, Note_on_c, 9, 36, 100
11, 66720, Note_on_c, 9, 55, 100
11, 66840, Note_off_c, 9, 36, 64
11, 66960, Note_on_c, 9, 36, 100
11, 67080, Note_off_c, 9, 36, 64
11, 67080, Note_on_c, 9, 36, 100
11, 67200, Note_off_c, 9, 55, 64
11, 67200, Note_off_c, 9, 36, 64
11, 67200, Note_on_c, 9, 40, 100
11, 67200, Note_on_c, 9, 55, 100
11, 67550, Note_off_c, 9, 40, 64
11, 67680, Note_off_c, 9, 55, 64
11, 67680, Note_on_c, 9, 55, 100
11, 67920, Note_on_c, 9, 36, 100
11, 68160, Note_off_c, 9, 36, 64
11, 68160, Note_off_c, 9, 55, 64
11, 68160, Note_on_c, 9, 55, 100
11, 68400, Note_on_c, 9, 36, 100
11, 68520, Note_off_c, 9, 36, 64
11, 68520, Note_on_c, 9, 36, 100
11, 68640, Note_off_c, 9, 55, 64
11, 68640, Note_off_c, 9, 36, 64
11, 68640, Note_on_c, 9, 55, 100
11, 68640, Note_on_c, 9, 36, 100
11, 68873, Note_off_c, 9, 36, 64
11, 69120, Note_off_c, 9, 55, 64
11, 69120, Note_on_c, 9, 55, 100
11, 69120, Note_on_c, 9, 36, 100
11, 69240, Note_off_c, 9, 36, 64
11, 69240, Note_on_c, 9, 36, 100
11, 69360, Note_off_c, 9, 36, 64
11, 69360, Note_on_c, 9, 36, 100
11, 69480, Note_off_c, 9, 36, 64
11, 69480, Note_on_c, 9, 36, 100
11, 69600, Note_off_c, 9, 55, 64
11, 69600, Note_off_c, 9, 36, 64
11, 69600, Note_on_c, 9, 55, 100
11, 69600, Note_on_c, 9, 36, 100
11, 69720, Note_off_c, 9, 36, 64
11, 69720, Note_on_c, 9, 36, 100
11, 69840, Note_off_c, 9, 36, 64
11, 69840, Note_on_c, 9, 36, 100
11, 69960, Note_off_c, 9, 36, 64
11, 69960, Note_on_c, 9, 36, 100
11, 70080, Note_off_c, 9, 55, 64
11, 70080, Note_off_c, 9, 36, 64
11, 70080, Note_on_c, 9, 55, 100
11, 70080, Note_on_c, 9, 40, 100
11, 70560, Note_off_c, 9, 40, 64
11, 70560, Note_off_c, 9, 55, 64
11, 70560, Note_on_c, 9, 55, 100
11, 70800, Note_on_c, 9, 36, 100
11, 71040, Note_off_c, 9, 36, 64
11, 71040, Note_off_c, 9, 55, 64
11, 71040, Note_on_c, 9, 55, 100
11, 71280, Note_on_c, 9, 40, 100
11, 71520, Note_off_c, 9, 55, 64
11, 71520, Note_on_c, 9, 55, 100
11, 71527, Note_off_c, 9, 40, 64
11, 71760, Note_on_c, 9, 36, 100
11, 72000, Note_off_c, 9, 55, 64
11, 72000, Note_on_c, 9, 40, 100
11, 72000, Note_on_c, 9, 55, 100
11, 72007, Note_off_c, 9, 36, 64
11, 72240, Note_off_c, 9, 40, 64
11, 72240, Note_on_c, 9, 36, 100
11, 72240, Note_on_c, 9, 52, 100
11, 72480, Note_off_c, 9, 52, 64
11, 72480, Note_off_c, 9, 55, 64
11, 72480, Note_off_c, 9, 36, 64
11, 72480, Note_on_c, 9, 55, 100
11, 72720, Note_on_c, 9, 40, 100
11, 72960, Note_off_c, 9, 40, 64
11, 72960, Note_off_c, 9, 55, 64
11, 72960, Note_on_c, 9, 49, 100
11, 72960, Note_on_c, 9, 36, 100
11, 73200, Note_off_c, 9, 36, 64
11, 73440, Note_off_c, 9, 49, 64
11, 73440, Note_on_c, 9, 55, 100
11, 73440, Note_on_c, 9, 36, 100
11, 73680, Note_off_c, 9, 36, 64
11, 73680, Note_on_c, 9, 36, 100
11, 73920, Note_off_c, 9, 55, 64
11, 73920, Note_off_c, 9, 36, 64
11, 73920, Note_on_c, 9, 55, 100
11, 73920, Note_on_c, 9, 40, 100
11, 74160, Note_off_c, 9, 40, 64
11, 74400, Note_off_c, 9, 55, 64
11, 74400, Note_on_c, 9, 55, 100
11, 74640, Note_on_c, 9, 36, 100
11, 74880, Note_off_c, 9, 36, 64
11, 74880, Note_off_c, 9, 55, 64
11, 74880, Note_on_c, 9, 55, 100
11, 75120, Note_on_c, 9, 40, 100
11, 75360, Note_off_c, 9, 40, 64
11, 75360, Note_off_c, 9, 55, 64
11, 75360, Note_on_c, 9, 55, 100
11, 75600, Note_on_c, 9, 36, 100
11, 75840, Note_off_c, 9, 36, 64
11, 75840, Note_off_c, 9, 55, 64
11, 75840, Note_on_c, 9, 55, 100
11, 75840, Note_on_c, 9, 40, 100
11, 76080, Note_off_c, 9, 40, 64
11, 76080, Note_on_c, 9, 36, 100
11, 76320, Note_off_c, 9, 55, 64
11, 76320, Note_off_c, 9, 36, 64
11, 76320, Note_on_c, 9, 55, 100
11, 76320, Note_on_c, 9, 40, 100
11, 76560, Note_off_c, 9, 40, 64
11, 76560, Note_on_c, 9, 36, 100
11, 76800, Note_off_c, 9, 55, 64
11, 76800, Note_off_c, 9, 36, 64
11, 76800, Note_on_c, 9, 36, 100
11, 76800, Note_on_c, 9, 57, 100
11, 77040, Note_off_c, 9, 36, 64
11, 77040, Note_on_c, 9, 36, 100
11, 77280, Note_off_c, 9, 57, 64
11, 77280, Note_off_c, 9, 36, 64
11, 77280, Note_on_c, 9, 40, 100
11, 77280, Note_on_c, 9, 55, 100
11, 77520, Note_off_c, 9, 40, 64
11, 77520, Note_on_c, 9, 36, 100
11, 77760, Note_off_c, 9, 55, 64
11, 77760, Note_off_c, 9, 36, 64
11, 77760, Note_on_c, 9, 40, 100
11, 77800, Note_off_c, 9, 40, 64
11, 77800, Note_on_c, 9, 40, 100
11, 77840, Note_off_c, 9, 40, 64
11, 78000, Note_on_c, 9, 36, 100
11, 78000, Note_on_c, 9, 49, 100
11, 78240, Note_off_c, 9, 49, 64
11, 78240, Note_off_c, 9, 36, 64
11, 78240, Note_on_c, 9, 36, 100
11, 78240, Note_on_c, 9, 49, 100
11, 78720, Note_off_c, 9, 49, 64
11, 78720, Note_off_c, 9, 36, 64
11, 78720, Note_on_c, 9, 52, 100
11, 78960, Note_on_c, 9, 36, 100
11, 79200, Note_off_c, 9, 36, 64
11, 79200, Note_off_c, 9, 52, 64
11, 79200, Note_on_c, 9, 40, 100
11, 79200, Note_on_c, 9, 52, 100
11, 79440, Note_off_c, 9, 40, 64
11, 79680, Note_off_c, 9, 52, 64
11, 79680, Note_on_c, 9, 52, 100
11, 79920, Note_on_c, 9, 36, 100
11, 80160, Note_off_c, 9, 36, 64
11, 80160, Note_off_c, 9, 52, 64
11, 80160, Note_on_c, 9, 36, 100
11, 80160, Note_on_c, 9, 52, 100
11, 80400, Note_off_c, 9, 36, 64
11, 80400, Note_on_c, 9, 40, 100
11, 80640, Note_off_c, 9, 52, 64
11, 80640, Note_on_c, 9, 52, 100
11, 80880, Note_off_c, 9, 40, 64
11, 80880, Note_on_c, 9, 36, 100
11, 81000, Note_off_c, 9, 36, 64
11, 81120, Note_off_c, 9, 52, 64
11, 81120, Note_on_c, 9, 40, 100
11, 81120, Note_on_c, 9, 52, 100
11, 81353, Note_off_c, 9, 52, 64
11, 81353, Note_off_c, 9, 40, 64
11, 81360, Note_on_c, 9, 36, 100
11, 81360, Note_on_c, 9, 49, 100
11, 81840, Note_off_c, 9, 49, 64
11, 81840, Note_off_c, 9, 36, 64
11, 81840, Note_on_c, 9, 49, 100
11, 81840, Note_on_c, 9, 36, 100
11, 82320, Note_off_c, 9, 36, 64
11, 82320, Note_off_c, 9, 49, 64
11, 82320, Note_on_c, 9, 40, 100
11, 82560, Note_on_c, 9, 52, 100
11, 82800, Note_off_c, 9, 40, 64
11, 82800, Note_on_c, 9, 36, 100
11, 83040, Note_off_c, 9, 52, 64
11, 83040, Note_on_c, 9, 52, 100
11, 83040, Note_on_c, 9, 40, 100
11, 83047, Note_off_c, 9, 36, 64
11, 83520, Note_off_c, 9, 52, 64
11, 83520, Note_off_c, 9, 40, 64
11, 83520, Note_on_c, 9, 52, 100
11, 83760, Note_on_c, 9, 36, 100
11, 84000, Note_off_c, 9, 36, 64
11, 84000, Note_off_c, 9, 52, 64
11, 84000, Note_on_c, 9, 52, 100
11, 84240, Note_on_c, 9, 40, 100
11, 84480, Note_off_c, 9, 52, 64
11, 84480, Note_on_c, 9, 52, 100
11, 84720, Note_off_c, 9, 40, 64
11, 84720, Note_on_c, 9, 36, 100
11, 84960, Note_off_c, 9, 52, 64
11, 84960, Note_off_c, 9, 36, 64
11, 84960, Note_on_c, 9, 40, 100
11, 85000, Note_off_c, 9, 40, 64
11, 85000, Note_on_c, 9, 40, 100
11, 85040, Note_off_c, 9, 40, 64
11, 85200, Note_on_c, 9, 36, 100
11, 85200, Note_on_c, 9, 49, 100
11, 85440, Note_off_c, 9, 49, 64
11, 85440, Note_off_c, 9, 36, 64
11, 85440, Note_on_c, 9, 49, 100
11, 85440, Note_on_c, 9, 36, 100
11, 85920, Note_off_c, 9, 36, 64
11, 85920, Note_off_c, 9, 49, 64
11, 85920, Note_on_c, 9, 52, 100
11, 86160, Note_on_c, 9, 36, 100
11, 86400, Note_off_c, 9, 36, 64
11, 86400, Note_off_c, 9, 52, 64
11, 86400, Note_on_c, 9, 40, 100
11, 86400, Note_on_c, 9, 52, 100
11, 86640, Note_off_c, 9, 40, 64
11, 86880, Note_off_c, 9, 52, 64
11, 86880, Note_on_c, 9, 52, 100
11, 87120, Note_on_c, 9, 36, 100
11, 87360, Note_off_c, 9, 36, 64
11, 87360, Note_off_c, 9, 52, 64
11, 87360, Note_on_c, 9, 36, 100
11, 87360, Note_on_c, 9, 52, 100
11, 87600, Note_off_c, 9, 36, 64
11, 87600, Note_on_c, 9, 40, 100
11, 87840, Note_off_c, 9, 52, 64
11, 87840, Note_on_c, 9, 52, 100
11, 88080, Note_off_c, 9, 40, 64
11, 88080, Note_on_c, 9, 36, 100
11, 88200, Note_off_c, 9, 36, 64
11, 88320, Note_off_c, 9, 52, 64
11, 88320, Note_on_c, 9, 40, 100
11, 88320, Note_on_c, 9, 52, 100
11, 88553, Note_off_c, 9, 52, 64
11, 88553, Note_off_c, 9, 40, 64
11, 88560, Note_on_c, 9, 36, 100
11, 88560, Note_on_c, 9, 49, 100
11, 89040, Note_off_c, 9, 49, 64
11, 89040, Note_off_c, 9, 36, 64
11, 89040, Note_on_c, 9, 49, 100
11, 89040, Note_on_c, 9, 36, 100
11, 89520, Note_off_c, 9, 36, 64
11, 89520, Note_off_c, 9, 49, 64
11, 89520, Note_on_c, 9, 40, 100
11, 89760, Note_on_c, 9, 52, 100
11, 90000, Note_off_c, 9, 40, 64
11, 90000, Note_on_c, 9, 36, 100
11, 90240, Note_off_c, 9, 52, 64
11, 90240, Note_on_c, 9, 52, 100
11, 90240, Note_on_c, 9, 40, 100
11, 90247, Note_off_c, 9, 36, 64
11, 90720, Note_off_c, 9, 52, 64
11, 90720, Note_off_c, 9, 40, 64
11, 90720, Note_on_c, 9, 52, 100
11, 90960, Note_on_c, 9, 36, 100
11, 91200, Note_off_c, 9, 36, 64
11, 91200, Note_off_c, 9, 52, 64
11, 91200, Note_on_c, 9, 52, 100
11, 91200, Note_on_c, 9, 36, 100
11, 91440, Note_off_c, 9, 36, 64
11, 91440, Note_on_c, 9, 40, 100
11, 91680, Note_off_c, 9, 52, 64
11, 91680, Note_on_c, 9, 52, 100
11, 91920, Note_off_c, 9, 40, 64
11, 91920, Note_on_c, 9, 36, 100
11, 92160, Note_off_c, 9, 52, 64
11, 92160, Note_off_c, 9, 36, 64
11, 92160, Note_on_c, 9, 40, 100
11, 92200, Note_off_c, 9, 40, 64
11, 92200, Note_on_c, 9, 40, 100
11, 92240, Note_off_c, 9, 40, 64
11, 92400, Note_on_c, 9, 36, 100
11, 92400, Note_on_c, 9, 49, 100
11, 92640, Note_off_c, 9, 49, 64
11, 92640, Note_off_c, 9, 36, 64
11, 92640, Note_on_c, 9, 49, 100
11, 92640, Note_on_c, 9, 36, 100
11, 93120, Note_off_c, 9, 36, 64
11, 93120, Note_off_c, 9, 49, 64
11, 93120, Note_on_c, 9, 37, 100
11, 93120, Note_on_c, 9, 42, 70
11, 93360, Note_off_c, 9, 42, 64
11, 93600, Note_off_c, 9, 37, 64
11, 93600, Note_on_c, 9, 37, 100
11, 93600, Note_on_c, 9, 42, 70
11, 93840, Note_off_c, 9, 42, 64
11, 93840, Note_on_c, 9, 42, 85
11, 94080, Note_off_c, 9, 37, 64
11, 94080, Note_off_c, 9, 42, 64
11, 94080, Note_on_c, 9, 37, 100
11, 94080, Note_on_c, 9, 42, 70
11, 94320, Note_off_c, 9, 42, 64
11, 94320, Note_on_c, 9, 42, 85
11, 94560, Note_off_c, 9, 37, 64
11, 94560, Note_off_c, 9, 42, 64
11, 94560, Note_on_c, 9, 42, 70
11, 94560, Note_on_c, 9, 37, 100
11, 94800, Note_off_c, 9, 42, 64
11, 94800, Note_on_c, 9, 42, 85
11, 95040, Note_off_c, 9, 37, 64
11, 95040, Note_off_c, 9, 42, 64
11, 95040, Note_on_c, 9, 37, 100
11, 95040, Note_on_c, 9, 42, 70
11, 95280, Note_off_c, 9, 42, 64
11, 95280, Note_on_c, 9, 42, 85
11, 95520, Note_off_c, 9, 37, 64
11, 95520, Note_off_c, 9, 42, 64
11, 95520, Note_on_c, 9, 42, 70
11, 95520, Note_on_c, 9, 37, 100
11, 95760, Note_off_c, 9, 42, 64
11, 95760, Note_on_c, 9, 42, 85
11, 96000, Note_off_c, 9, 37, 64
11, 96000, Note_off_c, 9, 42, 64
11, 96000, Note_on_c, 9, 37, 100
11, 96000, Note_on_c, 9, 42, 80
11, 96120, Note_off_c, 9, 42, 64
11, 96120, Note_on_c, 9, 42, 80
11, 96240, Note_off_c, 9, 42, 64
11, 96240, Note_on_c, 9, 46, 85
11, 96480, Note_off_c, 9, 37, 64
11, 96480, Note_off_c, 9, 46, 64
11, 96480, Note_on_c, 9, 37, 100
11, 96480, Note_on_c, 9, 42, 70
11, 96720, Note_off_c, 9, 42, 64
11, 96720, Note_on_c, 9, 42, 85
11, 96960, Note_off_c, 9, 37, 64
11, 96960, Note_off_c, 9, 42, 64
11, 96960, Note_on_c, 9, 37, 100
11, 96960, Note_on_c, 9, 42, 70
11, 97200, Note_off_c, 9, 42, 64
11, 97200, Note_on_c, 9, 42, 85
11, 97440, Note_off_c, 9, 37, 64
11, 97440, Note_off_c, 9, 42, 64
11, 97440, Note_on_c, 9, 37, 100
11, 97440, Note_on_c, 9, 42, 70
11, 97680, Note_off_c, 9, 42, 64
11, 97680, Note_on_c, 9, 42, 85
11, 97920, Note_off_c, 9, 37, 64
11, 97920, Note_off_c, 9, 42, 64
11, 97920, Note_on_c, 9, 37, 100
11, 97920, Note_on_c, 9, 42, 70
11, 98160, Note_off_c, 9, 42, 64
11, 98160, Note_on_c, 9, 42, 85
11, 98400, Note_off_c, 9, 37, 64
11, 98400, Note_off_c, 9, 42, 64
11, 98400, Note_on_c, 9, 42, 80
11, 98400, Note_on_c, 9, 37, 100
11, 98520, Note_off_c, 9, 42, 64
11, 98520, Note_on_c, 9, 42, 80
11, 98640, Note_off_c, 9, 42, 64
11, 98640, Note_on_c, 9, 46, 85
11, 98880, Note_off_c, 9, 37, 64
11, 98880, Note_off_c, 9, 46, 64
11, 98880, Note_on_c, 9, 42, 80
11, 98880, Note_on_c, 9, 37, 100
11, 99000, Note_off_c, 9, 42, 64
11, 99000, Note_on_c, 9, 42, 80
11, 99120, Note_off_c, 9, 42, 64
11, 99120, Note_on_c, 9, 46, 85
11, 99360, Note_off_c, 9, 37, 64
11, 99360, Note_off_c, 9, 46, 64
11, 99360, Note_on_c, 9, 42, 80
11, 99360, Note_on_c, 9, 37, 100
11, 99480, Note_off_c, 9, 42, 64
11, 99480, Note_on_c, 9, 42, 80
11, 99600, Note_off_c, 9, 42, 64
11, 99600, Note_on_c, 9, 46, 85
11, 99840, Note_off_c, 9, 37, 64
11, 99840, Note_off_c, 9, 46, 64
11, 99840, Note_on_c, 9, 42, 80
11, 99840, Note_on_c, 9, 37, 100
11, 99960, Note_off_c, 9, 42, 64
11, 99960, Note_on_c, 9, 42, 80
11, 100080, Note_off_c, 9, 42, 64
11, 100080, Note_on_c, 9, 46, 85
11, 100320, Note_off_c, 9, 37, 64
11, 100320, Note_off_c, 9, 46, 64
11, 100320, Note_on_c, 9, 54, 100
11, 100320, Note_on_c, 9, 55, 100
11, 100320, Note_on_c, 9, 36, 100
11, 100800, Note_off_c, 9, 36, 64
11, 100800, Note_off_c, 9, 55, 64
11, 100800, Note_off_c, 9, 54, 64
11, 100800, Note_on_c, 9, 37, 100
11, 100800, Note_on_c, 9, 42, 70
11, 101040, Note_off_c, 9, 42, 64
11, 101280, Note_off_c, 9, 37, 64
11, 101280, Note_on_c, 9, 37, 100
11, 101280, Note_on_c, 9, 42, 70
11, 101520, Note_off_c, 9, 42, 64
11, 101520, Note_on_c, 9, 42, 85
11, 101760, Note_off_c, 9, 37, 64
11, 101760, Note_off_c, 9, 42, 64
11, 101760, Note_on_c, 9, 37, 100
11, 101760, Note_on_c, 9, 42, 70
11, 102000, Note_off_c, 9, 42, 64
11, 102000, Note_on_c, 9, 42, 85
11, 102240, Note_off_c, 9, 37, 64
11, 102240, Note_off_c, 9, 42, 64
11, 102240, Note_on_c, 9, 42, 70
11, 102240, Note_on_c, 9, 37, 100
11, 102480, Note_off_c, 9, 42, 64
11, 102480, Note_on_c, 9, 42, 85
11, 102720, Note_off_c, 9, 37, 64
11, 102720, Note_off_c, 9, 42, 64
11, 102720, Note_on_c, 9, 37, 100
11, 102720, Note_on_c, 9, 42, 70
11, 102960, Note_off_c, 9, 42, 64
11, 102960, Note_on_c, 9, 42, 85
11, 103200, Note_off_c, 9, 37, 64
11, 103200, Note_off_c, 9, 42, 64
11, 103200, Note_on_c, 9, 42, 70
11, 103200, Note_on_c, 9, 37, 100
11, 103440, Note_off_c, 9, 42, 64
11, 103440, Note_on_c, 9, 42, 85
11, 103680, Note_off_c, 9, 37, 64
11, 103680, Note_off_c, 9, 42, 64
11, 103680, Note_on_c, 9, 37, 100
11, 103680, Note_on_c, 9, 42, 70
11, 103920, Note_off_c, 9, 42, 64
11, 103920, Note_on_c, 9, 42, 85
11, 104160, Note_off_c, 9, 37, 64
11, 104160, Note_off_c, 9, 42, 64
11, 104160, Note_on_c, 9, 37, 100
11, 104160, Note_on_c, 9, 42, 70
11, 104400, Note_off_c, 9, 42, 64
11, 104400, Note_on_c, 9, 42, 85
11, 104640, Note_off_c, 9, 37, 64
11, 104640, Note_off_c, 9, 42, 64
11, 104640, Note_on_c, 9, 37, 100
11, 104640, Note_on_c, 9, 42, 70
11, 104880, Note_off_c, 9, 42, 64
11, 104880, Note_on_c, 9, 42, 85
11, 105120, Note_off_c, 9, 37, 64
11, 105120, Note_off_c, 9, 42, 64
11, 105120, Note_on_c, 9, 37, 100
11, 105120, Note_on_c, 9, 42, 70
11, 105360, Note_off_c, 9, 42, 64
11, 105360, Note_on_c, 9, 42, 85
11, 105600, Note_off_c, 9, 37, 64
11, 105600, Note_off_c, 9, 42, 64
11, 105600, Note_on_c, 9, 37, 100
11, 105600, Note_on_c, 9, 42, 105
11, 105840, Note_off_c, 9, 42, 64
11, 105840, Note_on_c, 9, 42, 85
11, 106080, Note_off_c, 9, 37, 64
11, 106080, Note_off_c, 9, 42, 64
11, 106080, Note_on_c, 9, 36, 40
11, 106080, Note_on_c, 9, 43, 40
11, 106320, Note_off_c, 9, 43, 64
11, 106320, Note_off_c, 9, 36, 64
11, 106320, Note_on_c, 9, 43, 50
11, 106320, Note_on_c, 9, 36, 50
11, 106560, Note_off_c, 9, 36, 64
11, 106560, Note_off_c, 9, 43, 64
11, 106560, Note_on_c, 9, 40, 60
11, 106560, Note_on_c, 9, 36, 60
11, 106800, Note_off_c, 9, 36, 64
11, 106800, Note_off_c, 9, 40, 64
11, 106800, Note_on_c, 9, 40, 70
11, 106800, Note_on_c, 9, 36, 70
11, 107040, Note_off_c, 9, 36, 64
11, 107040, Note_off_c, 9, 40, 64
11, 107040, Note_on_c, 9, 40, 80
11, 107040, Note_on_c, 9, 36, 80
11, 107280, Note_off_c, 9, 36, 64
11, 107280, Note_off_c, 9, 40, 64
11, 107280, Note_on_c, 9, 40, 90
11, 107280, Note_on_c, 9, 36, 90
11, 107520, Note_off_c, 9, 36, 64
11, 107520, Note_off_c, 9, 40, 64
11, 107520, Note_on_c, 9, 40, 100
11, 107560, Note_off_c, 9, 40, 64
11, 107560, Note_on_c, 9, 40, 100
11, 107600, Note_off_c, 9, 40, 64
11, 107760, Note_on_c, 9, 49, 100
11, 107760, Note_on_c, 9, 36, 100
11, 108000, Note_off_c, 9, 36, 64
11, 108000, Note_off_c, 9, 49, 64
11, 108000, Note_on_c, 9, 36, 100
11, 108000, Note_on_c, 9, 49, 100
11, 108480, Note_off_c, 9, 49, 64
11, 108480, Note_off_c, 9, 36, 64
11, 108480, Note_on_c, 9, 53, 100
11, 108720, Note_on_c, 9, 36, 100
11, 108960, Note_off_c, 9, 36, 64
11, 108960, Note_off_c, 9, 53, 64
11, 108960, Note_on_c, 9, 53, 100
11, 108960, Note_on_c, 9, 40, 100
11, 109440, Note_off_c, 9, 40, 64
11, 109440, Note_off_c, 9, 53, 64
11, 109440, Note_on_c, 9, 53, 100
11, 109673, Note_off_c, 9, 53, 64
11, 109680, Note_on_c, 9, 36, 100
11, 109680, Note_on_c, 9, 49, 100
11, 109920, Note_off_c, 9, 49, 64
11, 109920, Note_off_c, 9, 36, 64
11, 110160, Note_on_c, 9, 36, 100
11, 110160, Note_on_c, 9, 53, 100
11, 110400, Note_off_c, 9, 36, 64
11, 110400, Note_on_c, 9, 40, 100
11, 110640, Note_off_c, 9, 53, 64
11, 110640, Note_off_c, 9, 40, 64
11, 110640, Note_on_c, 9, 36, 100
11, 110640, Note_on_c, 9, 57, 100
11, 110880, Note_off_c, 9, 57, 64
11, 110880, Note_off_c, 9, 36, 64
11, 111120, Note_on_c, 9, 36, 100
11, 111120, Note_on_c, 9, 53, 100
11, 111360, Note_off_c, 9, 36, 64
11, 111360, Note_on_c, 9, 40, 100
11, 111367, Note_off_c, 9, 53, 64
11, 111593, Note_off_c, 9, 40, 64
11, 111600, Note_on_c, 9, 36, 100
11, 111600, Note_on_c, 9, 49, 70
11, 111840, Note_off_c, 9, 49, 64
11, 111840, Note_off_c, 9, 36, 64
11, 111840, Note_on_c, 9, 49, 100
11, 111840, Note_on_c, 9, 36, 100
11, 112080, Note_on_c, 9, 53, 100
11, 112320, Note_off_c, 9, 36, 64
11, 112320, Note_off_c, 9, 49, 64
11, 112320, Note_on_c, 9, 36, 100
11, 112560, Note_off_c, 9, 53, 64
11, 112560, Note_off_c, 9, 36, 64
11, 112560, Note_on_c, 9, 36, 100
11, 112560, Note_on_c, 9, 53, 100
11, 112800, Note_off_c, 9, 36, 64
11, 112800, Note_on_c, 9, 40, 100
11, 113040, Note_off_c, 9, 53, 64
11, 113040, Note_on_c, 9, 53, 100
11, 113280, Note_off_c, 9, 40, 64
11, 113520, Note_off_c, 9, 53, 64
11, 113520, Note_on_c, 9, 53, 100
11, 113760, Note_off_c, 9, 53, 64
11, 113760, Note_on_c, 9, 49, 100
11, 113760, Note_on_c, 9, 36, 100
11, 114000, Note_off_c, 9, 36, 64
11, 114000, Note_off_c, 9, 49, 64
11, 114000, Note_on_c, 9, 40, 100
11, 114240, Note_off_c, 9, 40, 64
11, 114240, Note_on_c, 9, 40, 100
11, 114480, Note_off_c, 9, 40, 64
11, 114480, Note_on_c, 9, 49, 100
11, 114480, Note_on_c, 9, 36, 100
11, 114960, Note_off_c, 9, 36, 64
11, 114960, Note_off_c, 9, 49, 64
11, 114960, Note_on_c, 9, 53, 100
11, 115200, Note_on_c, 9, 36, 100
11, 115440, Note_off_c, 9, 36, 64
11, 115440, Note_off_c, 9, 53, 64
11, 115440, Note_on_c, 9, 53, 100
11, 115440, Note_on_c, 9, 40, 100
11, 115920, Note_off_c, 9, 40, 64
11, 115920, Note_off_c, 9, 53, 64
11, 115920, Note_on_c, 9, 53, 100
11, 116153, Note_off_c, 9, 53, 64
11, 116160, Note_on_c, 9, 36, 100
11, 116160, Note_on_c, 9, 49, 100
11, 116400, Note_off_c, 9, 49, 64
11, 116400, Note_off_c, 9, 36, 64
11, 116640, Note_on_c, 9, 36, 100
11, 116640, Note_on_c, 9, 53, 100
11, 116880, Note_off_c, 9, 36, 64
11, 116880, Note_on_c, 9, 40, 100
11, 117120, Note_off_c, 9, 53, 64
11, 117120, Note_off_c, 9, 40, 64
11, 117120, Note_on_c, 9, 36, 100
11, 117120, Note_on_c, 9, 57, 100
11, 117360, Note_off_c, 9, 36, 64
11, 117600, Note_off_c, 9, 57, 64
11, 117600, Note_on_c, 9, 36, 100
11, 117600, Note_on_c, 9, 53, 100
11, 117840, Note_off_c, 9, 36, 64
11, 117840, Note_on_c, 9, 40, 100
11, 118073, Note_off_c, 9, 40, 64
11, 118080, Note_off_c, 9, 53, 64
11, 118080, Note_on_c, 9, 36, 100
11, 118080, Note_on_c, 9, 49, 70
11, 118320, Note_off_c, 9, 49, 64
11, 118320, Note_off_c, 9, 36, 64
11, 118320, Note_on_c, 9, 36, 100
11, 118320, Note_on_c, 9, 49, 100
11, 118553, Note_off_c, 9, 49, 64
11, 118553, Note_off_c, 9, 36, 64
11, 118560, Note_on_c, 9, 36, 100
11, 118560, Note_on_c, 9, 53, 100
11, 118800, Note_off_c, 9, 36, 64
11, 118800, Note_on_c, 9, 40, 100
11, 119033, Note_off_c, 9, 40, 64
11, 119040, Note_off_c, 9, 53, 64
11, 119040, Note_on_c, 9, 36, 100
11, 119040, Note_on_c, 9, 55, 100
11, 119280, Note_off_c, 9, 55, 64
11, 119280, Note_off_c, 9, 36, 64
11, 119520, Note_on_c, 9, 36, 100
11, 119760, Note_off_c, 9, 36, 64
11, 119760, Note_on_c, 9, 40, 100
11, 119760, Note_on_c, 9, 53, 100
11, 120000, Note_off_c, 9, 40, 64
11, 120000, Note_on_c, 9, 36, 100
11, 120240, Note_off_c, 9, 53, 64
11, 120240, Note_off_c, 9, 36, 64
11, 120240, Note_on_c, 9, 40, 100
11, 120360, Note_off_c, 9, 40, 64
11, 120360, Note_on_c, 9, 36, 100
11, 120480, Note_off_c, 9, 36, 64
11, 120600, Note_on_c, 9, 36, 100
11, 120720, Note_off_c, 9, 36, 64
11, 120720, Note_on_c, 9, 45, 100
11, 120840, Note_off_c, 9, 45, 64
11, 120840, Note_on_c, 9, 36, 100
11, 120960, Note_off_c, 9, 36, 64
11, 121080, Note_on_c, 9, 36, 100
11, 121200, Note_off_c, 9, 36, 64
11, 121200, Note_on_c, 9, 40, 100
11, 121200, Note_on_c, 9, 57, 100
11, 121433, Note_off_c, 9, 57, 64
11, 121433, Note_off_c, 9, 40, 64
11, 121560, Note_on_c, 9, 40, 100
11, 121680, Note_off_c, 9, 40, 64
11, 121680, Note_on_c, 9, 40, 100
11, 121800, Note_off_c, 9, 40, 64
11, 121920, Note_on_c, 9, 36, 100
11, 122160, Note_off_c, 9, 36, 64
11, 122160, Note_on_c, 9, 40, 100
11, 122280, Note_off_c, 9, 40, 64
11, 122280, Note_on_c, 9, 36, 100
11, 122400, Note_off_c, 9, 36, 64
11, 122400, Note_on_c, 9, 47, 100
11, 122520, Note_off_c, 9, 47, 64
11, 122520, Note_on_c, 9, 36, 100
11, 122640, Note_off_c, 9, 36, 64
11, 122640, Note_on_c, 9, 42, 100
11, 122760, Note_off_c, 9, 42, 64
11, 122760, Note_on_c, 9, 36, 100
11, 122880, Note_off_c, 9, 36, 64
11, 123000, Note_on_c, 9, 36, 100
11, 123120, Note_off_c, 9, 36, 64
11, 123120, Note_on_c, 9, 49, 100
11, 123120, Note_on_c, 9, 40, 100
11, 123600, Note_off_c, 9, 40, 64
11, 123600, Note_off_c, 9, 49, 64
11, 124080, Note_on_c, 9, 46, 100
11, 124160, Note_off_c, 9, 46, 64
11, 124160, Note_on_c, 9, 42, 70
11, 124240, Note_off_c, 9, 42, 64
11, 124240, Note_on_c, 9, 42, 70
11, 124320, Note_off_c, 9, 42, 64
11, 124320, Note_on_c, 9, 42, 70
11, 124400, Note_off_c, 9, 42, 64
11, 124400, Note_on_c, 9, 42, 70
11, 124480, Note_off_c, 9, 42, 64
11, 124480, Note_on_c, 9, 42, 70
11, 124560, Note_off_c, 9, 42, 64
11, 124560, Note_on_c, 9, 46, 100
11, 124640, Note_off_c, 9, 46, 64
11, 124640, Note_on_c, 9, 42, 70
11, 124720, Note_off_c, 9, 42, 64
11, 124720, Note_on_c, 9, 42, 70
11, 124800, Note_off_c, 9, 42, 64
11, 124800, Note_on_c, 9, 42, 70
11, 124880, Note_off_c, 9, 42, 64
11, 124880, Note_on_c, 9, 42, 70
11, 124960, Note_off_c, 9, 42, 64
11, 124960, Note_on_c, 9, 42, 70
11, 125040, Note_off_c, 9, 42, 64
11, 125040, Note_on_c, 9, 42, 100
11, 125520, Note_off_c, 9, 42, 64
11, 125520, Note_on_c, 9, 53, 100
11, 126000, Note_off_c, 9, 53, 64
11, 126000, Note_on_c, 9, 40, 100
11, 126120, Note_off_c, 9, 40, 64
11, 126120, Note_on_c, 9, 36, 100
11, 126240, Note_off_c, 9, 36, 64
11, 126240, Note_on_c, 9, 47, 100
11, 126360, Note_off_c, 9, 47, 64
11, 126360, Note_on_c, 9, 36, 100
11, 126480, Note_off_c, 9, 36, 64
11, 126480, Note_on_c, 9, 42, 100
11, 126600, Note_off_c, 9, 42, 64
11, 126600, Note_on_c, 9, 36, 100
11, 126720, Note_off_c, 9, 36, 64
11, 126840, Note_on_c, 9, 36, 100
11, 126960, Note_off_c, 9, 36, 64
11, 126960, Note_on_c, 9, 49, 100
11, 126960, Note_on_c, 9, 40, 100
11, 127440, Note_off_c, 9, 40, 64
11, 127440, Note_off_c, 9, 49, 64
11, 127440, Note_on_c, 9, 44, 70
11, 127920, Note_off_c, 9, 44, 64
11, 127920, Note_on_c, 9, 36, 100
11, 127920, Note_on_c, 9, 43, 100
11, 128160, Note_off_c, 9, 43, 64
11, 128160, Note_off_c, 9, 36, 64
11, 128160, Note_on_c, 9, 43, 100
11, 128160, Note_on_c, 9, 36, 100
11, 128400, Note_off_c, 9, 36, 64
11, 128400, Note_off_c, 9, 43, 64
11, 128400, Note_on_c, 9, 44, 75
11, 128640, Note_off_c, 9, 44, 64
11, 128640, Note_on_c, 9, 43, 100
11, 128640, Note_on_c, 9, 36, 100
11, 128880, Note_off_c, 9, 36, 64
11, 128880, Note_off_c, 9, 43, 64
11, 128880, Note_on_c, 9, 43, 100
11, 128880, Note_on_c, 9, 36, 100
11, 129120, Note_off_c, 9, 36, 64
11, 129120, Note_off_c, 9, 43, 64
11, 129360, Note_on_c, 9, 43, 100
11, 129360, Note_on_c, 9, 36, 100
11, 129600, Note_off_c, 9, 36, 64
11, 129600, Note_off_c, 9, 43, 64
11, 129600, Note_on_c, 9, 36, 100
11, 129600, Note_on_c, 9, 41, 100
11, 129840, Note_off_c, 9, 41, 64
11, 129840, Note_off_c, 9, 36, 64
11, 129840, Note_on_c, 9, 44, 75
11, 130080, Note_off_c, 9, 44, 64
11, 130080, Note_on_c, 9, 43, 100
11, 130080, Note_on_c, 9, 36, 100
11, 130320, Note_off_c, 9, 36, 64
11, 130320, Note_off_c, 9, 43, 64
11, 130320, Note_on_c, 9, 41, 100
11, 130320, Note_on_c, 9, 36, 100
11, 130560, Note_off_c, 9, 36, 64
11, 130560, Note_off_c, 9, 41, 64
11, 130800, Note_on_c, 9, 40, 100
11, 130840, Note_off_c, 9, 40, 64
11, 130840, Note_on_c, 9, 40, 100
11, 130880, Note_off_c, 9, 40, 64
11, 131280, Note_on_c, 9, 49, 100
11, 131280, Note_on_c, 9, 36, 100
11, 131520, Note_off_c, 9, 36, 64
11, 131520, Note_off_c, 9, 49, 64
11, 131520, Note_on_c, 9, 46, 100
11, 131760, Note_off_c, 9, 46, 64
11, 131760, Note_on_c, 9, 42, 100
11, 132000, Note_off_c, 9, 42, 64
11, 132000, Note_on_c, 9, 46, 100
11, 132240, Note_off_c, 9, 46, 64
11, 132240, Note_on_c, 9, 42, 100
11, 132240, Note_on_c, 9, 40, 100
11, 132480, Note_off_c, 9, 40, 64
11, 132480, Note_off_c, 9, 42, 64
11, 132480, Note_on_c, 9, 46, 100
11, 132720, Note_off_c, 9, 46, 64
11, 132720, Note_on_c, 9, 42, 100
11, 132960, Note_off_c, 9, 42, 64
11, 132960, Note_on_c, 9, 46, 100
11, 133200, Note_off_c, 9, 46, 64
11, 133200, Note_on_c, 9, 42, 100
11, 133440, Note_off_c, 9, 42, 64
11, 133440, Note_on_c, 9, 46, 100
11, 133680, Note_off_c, 9, 46, 64
11, 133680, Note_on_c, 9, 42, 100
11, 133680, Note_on_c, 9, 40, 100
11, 133920, Note_off_c, 9, 40, 64
11, 133920, Note_off_c, 9, 42, 64
11, 133920, Note_on_c, 9, 49, 100
11, 133920, Note_on_c, 9, 36, 100
11, 134160, Note_off_c, 9, 36, 64
11, 134160, Note_off_c, 9, 49, 64
11, 134400, Note_on_c, 9, 46, 100
11, 134400, Note_on_c, 9, 36, 100
11, 134640, Note_off_c, 9, 36, 64
11, 134640, Note_off_c, 9, 46, 64
11, 134640, Note_on_c, 9, 40, 100
11, 134640, Note_on_c, 9, 42, 100
11, 134880, Note_off_c, 9, 42, 64
11, 134880, Note_off_c, 9, 40, 64
11, 134880, Note_on_c, 9, 46, 100
11, 135120, Note_off_c, 9, 46, 64
11, 135120, Note_on_c, 9, 36, 100
11, 135120, Note_on_c, 9, 49, 100
11, 135360, Note_off_c, 9, 49, 64
11, 135360, Note_off_c, 9, 36, 64
11, 135360, Note_on_c, 9, 46, 100
11, 135600, Note_off_c, 9, 46, 64
11, 135600, Note_on_c, 9, 42, 100
11, 135840, Note_off_c, 9, 42, 64
11, 135840, Note_on_c, 9, 46, 100
11, 136080, Note_off_c, 9, 46, 64
11, 136080, Note_on_c, 9, 42, 100
11, 136080, Note_on_c, 9, 40, 100
11, 136320, Note_off_c, 9, 40, 64
11, 136320, Note_off_c, 9, 42, 64
11, 136320, Note_on_c, 9, 46, 100
11, 136560, Note_off_c, 9, 46, 64
11, 136560, Note_on_c, 9, 42, 100
11, 136800, Note_off_c, 9, 42, 64
11, 136800, Note_on_c, 9, 46, 100
11, 137040, Note_off_c, 9, 46, 64
11, 137040, Note_on_c, 9, 36, 100
11, 137040, Note_on_c, 9, 57, 100
11, 137280, Note_off_c, 9, 57, 64
11, 137280, Note_off_c, 9, 36, 64
11, 137280, Note_on_c, 9, 40, 100
11, 137520, Note_off_c, 9, 40, 64
11, 137520, Note_on_c, 9, 40, 100
11, 137760, Note_off_c, 9, 40, 64
11, 137760, Note_on_c, 9, 36, 100
11, 137760, Note_on_c, 9, 49, 100
11, 138000, Note_off_c, 9, 49, 64
11, 138000, Note_off_c, 9, 36, 64
11, 138240, Note_on_c, 9, 36, 100
11, 138240, Note_on_c, 9, 46, 100
11, 138480, Note_off_c, 9, 46, 64
11, 138480, Note_off_c, 9, 36, 64
11, 138480, Note_on_c, 9, 40, 100
11, 138600, Note_off_c, 9, 40, 64
11, 138600, Note_on_c, 9, 40, 100
11, 138720, Note_off_c, 9, 40, 64
11, 138720, Note_on_c, 9, 40, 100
11, 138840, Note_off_c, 9, 40, 64
11, 138840, Note_on_c, 9, 40, 100
11, 138960, Note_off_c, 9, 40, 64
11, 138960, Note_on_c, 9, 49, 100
11, 138960, Note_on_c, 9, 36, 100
11, 139200, Note_off_c, 9, 36, 64
11, 139200, Note_off_c, 9, 49, 64
11, 139200, Note_on_c, 9, 46, 100
11, 139440, Note_off_c, 9, 46, 64
11, 139440, Note_on_c, 9, 42, 100
11, 139680, Note_off_c, 9, 42, 64
11, 139680, Note_on_c, 9, 46, 100
11, 139920, Note_off_c, 9, 46, 64
11, 139920, Note_on_c, 9, 42, 100
11, 139920, Note_on_c, 9, 40, 100
11, 140160, Note_off_c, 9, 40, 64
11, 140160, Note_off_c, 9, 42, 64
11, 140160, Note_on_c, 9, 46, 100
11, 140400, Note_off_c, 9, 46, 64
11, 140400, Note_on_c, 9, 42, 100
11, 140640, Note_off_c, 9, 42, 64
11, 140640, Note_on_c, 9, 49, 100
11, 140640, Note_on_c, 9, 36, 100
11, 140880, Note_off_c, 9, 36, 64
11, 140880, Note_off_c, 9, 49, 64
11, 141120, Note_on_c, 9, 46, 100
11, 141120, Note_on_c, 9, 36, 100
11, 141360, Note_off_c, 9, 36, 64
11, 141360, Note_off_c, 9, 46, 64
11, 141360, Note_on_c, 9, 40, 100
11, 141360, Note_on_c, 9, 42, 100
11, 141600, Note_off_c, 9, 42, 64
11, 141600, Note_off_c, 9, 40, 64
11, 141600, Note_on_c, 9, 57, 100
11, 141600, Note_on_c, 9, 36, 100
11, 141840, Note_off_c, 9, 36, 64
11, 141840, Note_off_c, 9, 57, 64
11, 142080, Note_on_c, 9, 36, 100
11, 142080, Note_on_c, 9, 46, 100
11, 142320, Note_off_c, 9, 46, 64
11, 142320, Note_off_c, 9, 36, 64
11, 142320, Note_on_c, 9, 40, 100
11, 142320, Note_on_c, 9, 42, 100
11, 142560, Note_off_c, 9, 42, 64
11, 142560, Note_off_c, 9, 40, 64
11, 142560, Note_on_c, 9, 40, 100
11, 142680, Note_off_c, 9, 40, 64
11, 142680, Note_on_c, 9, 40, 100
11, 142800, Note_off_c, 9, 40, 64
11, 142800, Note_on_c, 9, 36, 100
11, 142800, Note_on_c, 9, 49, 100
11, 143040, Note_off_c, 9, 49, 64
11, 143040, Note_off_c, 9, 36, 64
11, 143040, Note_on_c, 9, 46, 100
11, 143520, Note_off_c, 9, 46, 64
11, 143520, Note_on_c, 9, 46, 100
11, 143760, Note_on_c, 9, 40, 100
11, 144000, Note_off_c, 9, 46, 64
11, 144000, Note_on_c, 9, 46, 100
11, 144240, Note_off_c, 9, 40, 64
11, 144480, Note_off_c, 9, 46, 64
11, 144480, Note_on_c, 9, 46, 100
11, 144720, Note_on_c, 9, 36, 100
11, 144720, Note_on_c, 9, 49, 100
11, 144727, Note_off_c, 9, 46, 64
11, 144953, Note_off_c, 9, 36, 64
11, 144953, Note_off_c, 9, 49, 64
11, 144960, Note_on_c, 9, 40, 100
11, 145200, Note_off_c, 9, 40, 64
11, 145200, Note_on_c, 9, 40, 100
11, 145440, Note_off_c, 9, 40, 64
11, 145440, Note_on_c, 9, 36, 100
11, 145440, Note_on_c, 9, 57, 100
11, 145680, Note_off_c, 9, 57, 64
11, 145680, Note_off_c, 9, 36, 64
11, 145680, Note_on_c, 9, 46, 100
11, 145920, Note_off_c, 9, 46, 64
11, 145920, Note_on_c, 9, 40, 100
11, 146160, Note_off_c, 9, 40, 64
11, 146160, Note_on_c, 9, 40, 100
11, 146280, Note_off_c, 9, 40, 64
11, 146280, Note_on_c, 9, 40, 100
11, 146400, Note_off_c, 9, 40, 64
11, 146400, Note_on_c, 9, 40, 100
11, 146640, Note_off_c, 9, 40, 64
11, 146640, Note_on_c, 9, 36, 100
11, 146640, Note_on_c, 9, 49, 100
11, 147120, Note_off_c, 9, 49, 64
11, 147120, Note_off_c, 9, 36, 64
11, 147120, Note_on_c, 9, 51, 100
11, 147600, Note_off_c, 9, 51, 64
11, 147600, Note_on_c, 9, 51, 100
11, 148080, Note_off_c, 9, 51, 64
11, 148080, Note_on_c, 9, 51, 100
11, 148560, Note_off_c, 9, 51, 64
11, 148560, Note_on_c, 9, 51, 100
11, 149040, Note_off_c, 9, 51, 64
11, 149040, Note_on_c, 9, 51, 100
11, 149520, Note_off_c, 9, 51, 64
11, 149520, Note_on_c, 9, 51, 100
11, 150000, Note_off_c, 9, 51, 64
11, 150000, Note_on_c, 9, 51, 100
11, 150480, Note_off_c, 9, 51, 64
11, 150480, Note_on_c, 9, 51, 100
11, 150960, Note_off_c, 9, 51, 64
11, 150960, Note_on_c, 9, 51, 100
11, 151440, Note_off_c, 9, 51, 64
11, 151440, Note_on_c, 9, 51, 82
11, 151560, Note_off_c, 9, 51, 64
11, 151560, Note_on_c, 9, 51, 92
11, 151680, Note_off_c, 9, 51, 64
11, 151680, Note_on_c, 9, 51, 100
11, 151920, Note_on_c, 9, 51, 100
11, 151927, Note_off_c, 9, 51, 64
11, 152400, Note_off_c, 9, 51, 64
11, 152400, Note_on_c, 9, 51, 100
11, 152880, Note_off_c, 9, 51, 64
11, 152880, Note_on_c, 9, 51, 100
11, 153360, Note_off_c, 9, 51, 64
11, 153360, Note_on_c, 9, 51, 100
11, 153840, Note_off_c, 9, 51, 64
11, 153840, Note_on_c, 9, 51, 100
11, 154320, Note_off_c, 9, 51, 64
11, 154320, Note_on_c, 9, 51, 100
11, 154800, Note_off_c, 9, 51, 64
11, 154800, Note_on_c, 9, 51, 100
11, 155280, Note_off_c, 9, 51, 64
11, 155280, Note_on_c, 9, 51, 85
11, 155400, Note_off_c, 9, 51, 64
11, 155400, Note_on_c, 9, 51, 90
11, 155520, Note_off_c, 9, 51, 64
11, 155520, Note_on_c, 9, 51, 100
11, 155760, Note_on_c, 9, 51, 100
11, 155767, Note_off_c, 9, 51, 64
11, 156240, Note_off_c, 9, 51, 64
11, 156240, Note_on_c, 9, 51, 100
11, 156720, Note_off_c, 9, 51, 64
11, 156720, Note_on_c, 9, 51, 100
11, 157200, Note_off_c, 9, 51, 64
11, 157200, Note_on_c, 9, 51, 83
11, 157320, Note_off_c, 9, 51, 64
11, 157320, Note_on_c, 9, 51, 88
11, 157440, Note_off_c, 9, 51, 64
11, 157440, Note_on_c, 9, 51, 100
11, 157680, Note_on_c, 9, 51, 100
11, 157687, Note_off_c, 9, 51, 64
11, 158160, Note_off_c, 9, 51, 64
11, 158160, Note_on_c, 9, 51, 100
11, 158640, Note_off_c, 9, 51, 64
11, 158640, Note_on_c, 9, 51, 100
11, 159120, Note_off_c, 9, 51, 64
11, 159120, Note_on_c, 9, 40, 50
11, 159160, Note_off_c, 9, 40, 64
11, 159160, Note_on_c, 9, 40, 50
11, 159200, Note_off_c, 9, 40, 64
11, 159200, Note_on_c, 9, 40, 50
11, 159240, Note_off_c, 9, 40, 64
11, 159240, Note_on_c, 9, 40, 50
11, 159280, Note_off_c, 9, 40, 64
11, 159280, Note_on_c, 9, 40, 50
11, 159320, Note_off_c, 9, 40, 64
11, 159320, Note_on_c, 9, 40, 50
11, 159360, Note_off_c, 9, 40, 64
11, 159360, Note_on_c, 9, 40, 50
11, 159400, Note_off_c, 9, 40, 64
11, 159400, Note_on_c, 9, 40, 50
11, 159440, Note_off_c, 9, 40, 64
11, 159440, Note_on_c, 9, 40, 50
11, 159480, Note_off_c, 9, 40, 64
11, 159480, Note_on_c, 9, 40, 50
11, 159520, Note_off_c, 9, 40, 64
11, 159520, Note_on_c, 9, 40, 50
11, 159560, Note_off_c, 9, 40, 64
11, 159560, Note_on_c, 9, 40, 50
11, 159600, Note_off_c, 9, 40, 64
11, 159600, Note_on_c, 9, 40, 50
11, 159600, Note_on_c, 9, 44, 90
11, 159640, Note_off_c, 9, 40, 64
11, 159640, Note_on_c, 9, 40, 50
11, 159680, Note_off_c, 9, 40, 64
11, 159680, Note_on_c, 9, 40, 50
11, 159720, Note_off_c, 9, 40, 64
11, 159720, Note_on_c, 9, 40, 50
11, 159760, Note_off_c, 9, 40, 64
11, 159760, Note_on_c, 9, 40, 50
11, 159800, Note_off_c, 9, 40, 64
11, 159800, Note_on_c, 9, 40, 50
11, 159840, Note_off_c, 9, 40, 64
11, 159840, Note_on_c, 9, 40, 50
11, 159880, Note_off_c, 9, 40, 64
11, 159880, Note_on_c, 9, 40, 50
11, 159920, Note_off_c, 9, 40, 64
11, 159920, Note_on_c, 9, 40, 50
11, 159960, Note_off_c, 9, 40, 64
11, 159960, Note_on_c, 9, 40, 50
11, 160000, Note_off_c, 9, 40, 64
11, 160000, Note_on_c, 9, 40, 50
11, 160040, Note_off_c, 9, 40, 64
11, 160040, Note_on_c, 9, 40, 50
11, 160080, Note_off_c, 9, 44, 64
11, 160080, Note_off_c, 9, 40, 64
11, 160080, Note_on_c, 9, 40, 50
11, 160080, Note_on_c, 9, 44, 90
11, 160120, Note_off_c, 9, 40, 64
11, 160120, Note_on_c, 9, 40, 50
11, 160160, Note_off_c, 9, 40, 64
11, 160160, Note_on_c, 9, 40, 50
11, 160200, Note_off_c, 9, 40, 64
11, 160200, Note_on_c, 9, 40, 50
11, 160240, Note_off_c, 9, 40, 64
11, 160240, Note_on_c, 9, 40, 50
11, 160280, Note_off_c, 9, 40, 64
11, 160280, Note_on_c, 9, 40, 50
11, 160320, Note_off_c, 9, 40, 64
11, 160320, Note_on_c, 9, 40, 50
11, 160360, Note_off_c, 9, 40, 64
11, 160360, Note_on_c, 9, 40, 50
11, 160400, Note_off_c, 9, 40, 64
11, 160400, Note_on_c, 9, 40, 50
11, 160440, Note_off_c, 9, 40, 64
11, 160440, Note_on_c, 9, 40, 50
11, 160480, Note_off_c, 9, 40, 64
11, 160480, Note_on_c, 9, 40, 50
11, 160520, Note_off_c, 9, 40, 64
11, 160520, Note_on_c, 9, 40, 50
11, 160560, Note_off_c, 9, 44, 64
11, 160560, Note_off_c, 9, 40, 64
11, 160560, Note_on_c, 9, 40, 100
11, 160793, Note_off_c, 9, 40, 64
11, 160800, Note_on_c, 9, 47, 100
11, 161040, Note_on_c, 9, 45, 100
11, 161047, Note_off_c, 9, 47, 64
11, 161520, Note_off_c, 9, 45, 64
11, 161520, Note_on_c, 9, 49, 100
11, 161520, Note_on_c, 9, 36, 100
11, 161753, Note_off_c, 9, 49, 64
11, 161760, Note_on_c, 9, 51, 100
11, 162000, Note_off_c, 9, 36, 64
11, 162000, Note_on_c, 9, 44, 70
11, 162240, Note_off_c, 9, 51, 64
11, 162240, Note_on_c, 9, 51, 100
11, 162480, Note_on_c, 9, 40, 100
11, 162720, Note_off_c, 9, 51, 64
11, 162720, Note_on_c, 9, 51, 100
11, 162960, Note_off_c, 9, 44, 64
11, 162960, Note_off_c, 9, 40, 64
11, 162960, Note_on_c, 9, 44, 70
11, 163200, Note_off_c, 9, 51, 64
11, 163200, Note_on_c, 9, 51, 100
11, 163440, Note_on_c, 9, 36, 100
11, 163680, Note_off_c, 9, 51, 64
11, 163680, Note_on_c, 9, 51, 100
11, 163920, Note_off_c, 9, 44, 64
11, 163920, Note_off_c, 9, 36, 64
11, 163920, Note_on_c, 9, 44, 70
11, 164160, Note_off_c, 9, 51, 64
11, 164160, Note_on_c, 9, 51, 100
11, 164400, Note_on_c, 9, 40, 100
11, 164640, Note_off_c, 9, 51, 64
11, 164640, Note_on_c, 9, 51, 100
11, 164880, Note_off_c, 9, 44, 64
11, 164880, Note_off_c, 9, 40, 64
11, 164880, Note_on_c, 9, 44, 70
11, 165120, Note_off_c, 9, 51, 64
11, 165120, Note_on_c, 9, 51, 100
11, 165360, Note_on_c, 9, 36, 100
11, 165600, Note_off_c, 9, 51, 64
11, 165600, Note_on_c, 9, 51, 100
11, 165840, Note_off_c, 9, 44, 64
11, 165840, Note_off_c, 9, 36, 64
11, 165840, Note_on_c, 9, 44, 70
11, 166080, Note_off_c, 9, 51, 64
11, 166080, Note_on_c, 9, 51, 100
11, 166320, Note_on_c, 9, 40, 100
11, 166560, Note_off_c, 9, 51, 64
11, 166560, Note_on_c, 9, 51, 100
11, 166800, Note_off_c, 9, 44, 64
11, 166800, Note_off_c, 9, 40, 64
11, 166800, Note_on_c, 9, 44, 70
11, 167040, Note_off_c, 9, 51, 64
11, 167040, Note_on_c, 9, 51, 100
11, 167280, Note_on_c, 9, 36, 100
11, 167520, Note_off_c, 9, 51, 64
11, 167520, Note_on_c, 9, 51, 100
11, 167760, Note_off_c, 9, 44, 64
11, 167760, Note_off_c, 9, 36, 64
11, 167760, Note_on_c, 9, 44, 70
11, 168000, Note_off_c, 9, 51, 64
11, 168000, Note_on_c, 9, 51, 100
11, 168240, Note_on_c, 9, 40, 100
11, 168480, Note_off_c, 9, 51, 64
11, 168480, Note_on_c, 9, 51, 100
11, 168720, Note_off_c, 9, 44, 64
11, 168720, Note_off_c, 9, 40, 64
11, 168720, Note_on_c, 9, 44, 70
11, 168960, Note_off_c, 9, 51, 64
11, 168960, Note_on_c, 9, 51, 100
11, 169200, Note_off_c, 9, 44, 64
11, 169200, Note_on_c, 9, 36, 100
11, 169200, Note_on_c, 9, 49, 100
11, 169207, Note_off_c, 9, 51, 64
11, 169433, Note_off_c, 9, 49, 64
11, 169440, Note_on_c, 9, 51, 100
11, 169680, Note_off_c, 9, 36, 64
11, 169680, Note_on_c, 9, 44, 70
11, 169920, Note_off_c, 9, 51, 64
11, 169920, Note_on_c, 9, 51, 100
11, 170160, Note_on_c, 9, 40, 100
11, 170400, Note_off_c, 9, 51, 64
11, 170400, Note_on_c, 9, 51, 100
11, 170640, Note_off_c, 9, 44, 64
11, 170640, Note_off_c, 9, 40, 64
11, 170640, Note_on_c, 9, 44, 70
11, 170880, Note_off_c, 9, 51, 64
11, 170880, Note_on_c, 9, 51, 100
11, 171120, Note_on_c, 9, 36, 100
11, 171360, Note_off_c, 9, 51, 64
11, 171360, Note_on_c, 9, 51, 100
11, 171600, Note_off_c, 9, 44, 64
11, 171600, Note_off_c, 9, 36, 64
11, 171600, Note_on_c, 9, 44, 70
11, 171840, Note_off_c, 9, 51, 64
11, 171840, Note_on_c, 9, 51, 100
11, 172080, Note_on_c, 9, 40, 100
11, 172320, Note_off_c, 9, 51, 64
11, 172320, Note_on_c, 9, 51, 100
11, 172560, Note_off_c, 9, 44, 64
11, 172560, Note_off_c, 9, 40, 64
11, 172560, Note_on_c, 9, 49, 100
11, 172560, Note_on_c, 9, 36, 100
11, 172793, Note_off_c, 9, 49, 64
11, 172800, Note_off_c, 9, 51, 64
11, 172800, Note_on_c, 9, 51, 100
11, 173040, Note_off_c, 9, 36, 64
11, 173040, Note_on_c, 9, 44, 70
11, 173280, Note_off_c, 9, 51, 64
11, 173280, Note_on_c, 9, 51, 100
11, 173520, Note_on_c, 9, 40, 100
11, 173760, Note_off_c, 9, 51, 64
11, 173760, Note_on_c, 9, 51, 100
11, 174000, Note_off_c, 9, 44, 64
11, 174000, Note_off_c, 9, 40, 64
11, 174000, Note_on_c, 9, 44, 70
11, 174240, Note_off_c, 9, 51, 64
11, 174240, Note_on_c, 9, 51, 100
11, 174480, Note_on_c, 9, 36, 100
11, 174720, Note_off_c, 9, 51, 64
11, 174720, Note_on_c, 9, 51, 100
11, 174960, Note_off_c, 9, 44, 64
11, 174960, Note_off_c, 9, 36, 64
11, 174960, Note_on_c, 9, 44, 70
11, 175200, Note_off_c, 9, 51, 64
11, 175200, Note_on_c, 9, 51, 100
11, 175440, Note_on_c, 9, 40, 100
11, 175680, Note_off_c, 9, 51, 64
11, 175680, Note_on_c, 9, 51, 100
11, 175920, Note_off_c, 9, 44, 64
11, 175920, Note_off_c, 9, 40, 64
11, 175920, Note_on_c, 9, 44, 70
11, 176160, Note_off_c, 9, 51, 64
11, 176160, Note_on_c, 9, 51, 100
11, 176400, Note_off_c, 9, 44, 64
11, 176400, Note_on_c, 9, 36, 100
11, 176400, Note_on_c, 9, 49, 100
11, 176407, Note_off_c, 9, 51, 64
11, 176633, Note_off_c, 9, 49, 64
11, 176640, Note_on_c, 9, 51, 100
11, 176880, Note_off_c, 9, 36, 64
11, 176880, Note_on_c, 9, 44, 70
11, 177120, Note_off_c, 9, 51, 64
11, 177120, Note_on_c, 9, 51, 100
11, 177360, Note_on_c, 9, 40, 100
11, 177600, Note_off_c, 9, 51, 64
11, 177600, Note_on_c, 9, 51, 100
11, 177840, Note_off_c, 9, 44, 64
11, 177840, Note_off_c, 9, 40, 64
11, 177840, Note_on_c, 9, 44, 70
11, 178080, Note_off_c, 9, 51, 64
11, 178080, Note_on_c, 9, 51, 100
11, 178320, Note_on_c, 9, 36, 100
11, 178560, Note_off_c, 9, 51, 64
11, 178560, Note_on_c, 9, 51, 100
11, 178800, Note_off_c, 9, 44, 64
11, 178800, Note_off_c, 9, 36, 64
11, 178800, Note_on_c, 9, 44, 70
11, 179040, Note_off_c, 9, 51, 64
11, 179040, Note_on_c, 9, 51, 100
11, 179280, Note_on_c, 9, 40, 100
11, 179520, Note_off_c, 9, 51, 64
11, 179520, Note_on_c, 9, 51, 100
11, 179760, Note_off_c, 9, 44, 64
11, 179760, Note_off_c, 9, 40, 64
11, 179760, Note_on_c, 9, 44, 70
11, 180000, Note_off_c, 9, 51, 64
11, 180000, Note_on_c, 9, 51, 100
11, 180240, Note_on_c, 9, 36, 100
11, 180480, Note_off_c, 9, 51, 64
11, 180480, Note_on_c, 9, 51, 100
11, 180720, Note_off_c, 9, 44, 64
11, 180720, Note_off_c, 9, 36, 64
11, 180720, Note_on_c, 9, 44, 70
11, 180960, Note_off_c, 9, 51, 64
11, 180960, Note_on_c, 9, 51, 100
11, 181200, Note_on_c, 9, 40, 100
11, 181440, Note_off_c, 9, 51, 64
11, 181440, Note_on_c, 9, 51, 100
11, 181680, Note_off_c, 9, 44, 64
11, 181680, Note_off_c, 9, 40, 64
11, 181680, Note_on_c, 9, 44, 70
11, 181920, Note_off_c, 9, 51, 64
11, 181920, Note_on_c, 9, 51, 100
11, 182160, Note_on_c, 9, 36, 100
11, 182400, Note_off_c, 9, 51, 64
11, 182400, Note_on_c, 9, 51, 100
11, 182640, Note_off_c, 9, 44, 64
11, 182640, Note_off_c, 9, 36, 64
11, 182640, Note_on_c, 9, 44, 70
11, 182880, Note_off_c, 9, 51, 64
11, 182880, Note_on_c, 9, 51, 100
11, 183120, Note_on_c, 9, 40, 100
11, 183360, Note_off_c, 9, 51, 64
11, 183360, Note_on_c, 9, 51, 100
11, 183600, Note_off_c, 9, 44, 64
11, 183600, Note_off_c, 9, 40, 64
11, 183600, Note_on_c, 9, 40, 100
11, 183840, Note_off_c, 9, 51, 64
11, 183840, Note_on_c, 9, 51, 100
11, 184080, Note_off_c, 9, 40, 64
11, 184080, Note_on_c, 9, 49, 100
11, 184080, Note_on_c, 9, 36, 100
11, 184087, Note_off_c, 9, 51, 64
11, 184313, Note_off_c, 9, 49, 64
11, 184320, Note_on_c, 9, 51, 100
11, 184560, Note_off_c, 9, 36, 64
11, 184560, Note_on_c, 9, 44, 70
11, 184800, Note_off_c, 9, 51, 64
11, 184800, Note_on_c, 9, 51, 100
11, 185040, Note_on_c, 9, 40, 100
11, 185280, Note_off_c, 9, 51, 64
11, 185280, Note_on_c, 9, 51, 100
11, 185520, Note_off_c, 9, 44, 64
11, 185520, Note_off_c, 9, 40, 64
11, 185520, Note_on_c, 9, 44, 70
11, 185760, Note_off_c, 9, 51, 64
11, 185760, Note_on_c, 9, 51, 100
11, 186000, Note_on_c, 9, 36, 100
11, 186240, Note_off_c, 9, 51, 64
11, 186240, Note_on_c, 9, 51, 100
11, 186480, Note_off_c, 9, 44, 64
11, 186480, Note_off_c, 9, 36, 64
11, 186480, Note_on_c, 9, 44, 70
11, 186720, Note_off_c, 9, 51, 64
11, 186720, Note_on_c, 9, 51, 100
11, 186960, Note_on_c, 9, 40, 100
11, 187200, Note_off_c, 9, 51, 64
11, 187200, Note_on_c, 9, 51, 100
11, 187440, Note_off_c, 9, 44, 64
11, 187440, Note_off_c, 9, 40, 64
11, 187440, Note_on_c, 9, 49, 100
11, 187440, Note_on_c, 9, 36, 100
11, 187673, Note_off_c, 9, 49, 64
11, 187680, Note_off_c, 9, 51, 64
11, 187680, Note_on_c, 9, 51, 100
11, 187920, Note_off_c, 9, 36, 64
11, 187920, Note_on_c, 9, 44, 70
11, 188160, Note_off_c, 9, 51, 64
11, 188160, Note_on_c, 9, 51, 100
11, 188400, Note_on_c, 9, 40, 100
11, 188640, Note_off_c, 9, 51, 64
11, 188640, Note_on_c, 9, 51, 100
11, 188880, Note_off_c, 9, 44, 64
11, 188880, Note_off_c, 9, 40, 64
11, 188880, Note_on_c, 9, 44, 70
11, 189120, Note_off_c, 9, 51, 64
11, 189120, Note_on_c, 9, 51, 100
11, 189360, Note_off_c, 9, 44, 64
11, 189360, Note_on_c, 9, 36, 100
11, 189367, Note_off_c, 9, 51, 64
11, 189593, Note_off_c, 9, 36, 64
11, 189600, Note_on_c, 9, 40, 100
11, 189840, Note_on_c, 9, 51, 100
11, 190073, Note_on_c, 9, 36, 100
11, 190080, Note_off_c, 9, 40, 64
11, 190313, Note_off_c, 9, 36, 64
11, 190320, Note_off_c, 9, 51, 64
11, 190320, Note_on_c, 9, 40, 100
11, 190360, Note_off_c, 9, 40, 64
11, 190360, Note_on_c, 9, 40, 100
11, 190400, Note_off_c, 9, 40, 64
11, 190553, Note_on_c, 9, 36, 100
11, 190793, Note_off_c, 9, 36, 64
11, 190793, Note_on_c, 9, 40, 100
11, 190833, Note_off_c, 9, 40, 64
11, 190833, Note_on_c, 9, 40, 100
11, 190873, Note_off_c, 9, 40, 64
11, 191040, Note_on_c, 9, 36, 100
11, 191280, Note_off_c, 9, 36, 64
11, 191280, Note_on_c, 9, 49, 100
11, 191280, Note_on_c, 9, 36, 100
11, 191280, Note_on_c, 9, 57, 100
11, 191760, Note_off_c, 9, 57, 64
11, 191760, Note_off_c, 9, 36, 64
11, 191760, Note_off_c, 9, 49, 64
11, 191760, Note_on_c, 9, 53, 100
11, 192000, Note_on_c, 9, 36, 100
11, 192240, Note_off_c, 9, 36, 64
11, 192240, Note_off_c, 9, 53, 64
11, 192240, Note_on_c, 9, 53, 100
11, 192240, Note_on_c, 9, 40, 100
11, 192720, Note_off_c, 9, 40, 64
11, 192720, Note_off_c, 9, 53, 64
11, 192720, Note_on_c, 9, 53, 100
11, 192960, Note_on_c, 9, 40, 48
11, 193080, Note_off_c, 9, 40, 64
11, 193080, Note_on_c, 9, 40, 48
11, 193200, Note_off_c, 9, 53, 64
11, 193200, Note_off_c, 9, 40, 64
11, 193200, Note_on_c, 9, 53, 100
11, 193200, Note_on_c, 9, 36, 100
11, 193440, Note_off_c, 9, 36, 64
11, 193440, Note_on_c, 9, 40, 48
11, 193560, Note_off_c, 9, 40, 64
11, 193680, Note_off_c, 9, 53, 64
11, 193680, Note_on_c, 9, 53, 100
11, 193680, Note_on_c, 9, 40, 48
11, 193800, Note_off_c, 9, 40, 64
11, 193920, Note_on_c, 9, 36, 100
11, 194160, Note_off_c, 9, 53, 64
11, 194160, Note_off_c, 9, 36, 64
11, 194160, Note_on_c, 9, 53, 100
11, 194160, Note_on_c, 9, 40, 100
11, 194640, Note_off_c, 9, 40, 64
11, 194640, Note_off_c, 9, 53, 64
11, 194640, Note_on_c, 9, 53, 100
11, 194880, Note_on_c, 9, 36, 100
11, 195120, Note_off_c, 9, 36, 64
11, 195120, Note_off_c, 9, 53, 64
11, 195120, Note_on_c, 9, 49, 100
11, 195120, Note_on_c, 9, 36, 100
11, 195600, Note_off_c, 9, 36, 64
11, 195600, Note_off_c, 9, 49, 64
11, 195600, Note_on_c, 9, 40, 100
11, 195833, Note_off_c, 9, 40, 64
11, 195840, Note_on_c, 9, 36, 100
11, 195840, Note_on_c, 9, 57, 100
11, 196320, Note_off_c, 9, 57, 64
11, 196320, Note_off_c, 9, 36, 64
11, 196560, Note_on_c, 9, 49, 100
11, 196560, Note_on_c, 9, 36, 100
11, 197040, Note_off_c, 9, 36, 64
11, 197040, Note_off_c, 9, 49, 64
11, 197040, Note_on_c, 9, 44, 80
11, 197520, Note_off_c, 9, 44, 64
11, 197520, Note_on_c, 9, 44, 80
11, 198000, Note_off_c, 9, 44, 64
11, 198000, Note_on_c, 9, 54, 100
11, 198320, Note_off_c, 9, 54, 64
11, 198320, Note_on_c, 9, 54, 100
11, 198640, Note_off_c, 9, 54, 64
11, 198640, Note_on_c, 9, 54, 100
11, 198960, Note_off_c, 9, 54, 64
11, 198960, Note_on_c, 9, 36, 100
11, 198960, Note_on_c, 9, 49, 100
11, 199440, Note_off_c, 9, 49, 64
11, 199440, Note_off_c, 9, 36, 64
11, 199440, Note_on_c, 9, 53, 100
11, 199680, Note_on_c, 9, 36, 100
11, 199920, Note_off_c, 9, 36, 64
11, 199920, Note_off_c, 9, 53, 64
11, 199920, Note_on_c, 9, 53, 100
11, 199920, Note_on_c, 9, 40, 100
11, 200400, Note_off_c, 9, 40, 64
11, 200400, Note_off_c, 9, 53, 64
11, 200400, Note_on_c, 9, 53, 100
11, 200640, Note_on_c, 9, 40, 50
11, 200700, Note_off_c, 9, 40, 64
11, 200700, Note_on_c, 9, 40, 50
11, 200760, Note_off_c, 9, 40, 64
11, 200760, Note_on_c, 9, 40, 48
11, 200880, Note_off_c, 9, 53, 64
11, 200880, Note_off_c, 9, 40, 64
11, 200880, Note_on_c, 9, 53, 100
11, 200880, Note_on_c, 9, 36, 100
11, 201120, Note_off_c, 9, 36, 64
11, 201120, Note_on_c, 9, 40, 48
11, 201240, Note_off_c, 9, 40, 64
11, 201360, Note_off_c, 9, 53, 64
11, 201360, Note_on_c, 9, 53, 100
11, 201360, Note_on_c, 9, 40, 48
11, 201480, Note_off_c, 9, 40, 64
11, 201600, Note_on_c, 9, 36, 100
11, 201840, Note_off_c, 9, 53, 64
11, 201840, Note_off_c, 9, 36, 64
11, 201840, Note_on_c, 9, 53, 100
11, 201840, Note_on_c, 9, 40, 100
11, 202320, Note_off_c, 9, 40, 64
11, 202320, Note_off_c, 9, 53, 64
11, 202320, Note_on_c, 9, 53, 100
11, 202800, Note_off_c, 9, 53, 64
11, 202800, Note_on_c, 9, 36, 100
11, 202800, Note_on_c, 9, 53, 100
11, 203280, Note_off_c, 9, 53, 64
11, 203280, Note_off_c, 9, 36, 64
11, 203280, Note_on_c, 9, 53, 100
11, 203520, Note_on_c, 9, 36, 100
11, 203760, Note_off_c, 9, 36, 64
11, 203760, Note_off_c, 9, 53, 64
11, 203760, Note_on_c, 9, 53, 100
11, 203760, Note_on_c, 9, 40, 100
11, 204240, Note_off_c, 9, 40, 64
11, 204240, Note_off_c, 9, 53, 64
11, 204240, Note_on_c, 9, 53, 100
11, 204480, Note_on_c, 9, 40, 48
11, 204600, Note_off_c, 9, 40, 64
11, 204600, Note_on_c, 9, 40, 48
11, 204720, Note_off_c, 9, 53, 64
11, 204720, Note_off_c, 9, 40, 64
11, 204720, Note_on_c, 9, 36, 100
11, 204720, Note_on_c, 9, 53, 100
11, 205200, Note_off_c, 9, 53, 64
11, 205200, Note_off_c, 9, 36, 64
11, 205200, Note_on_c, 9, 53, 100
11, 205440, Note_on_c, 9, 36, 100
11, 205680, Note_off_c, 9, 36, 64
11, 205680, Note_off_c, 9, 53, 64
11, 205680, Note_on_c, 9, 40, 100
11, 205720, Note_off_c, 9, 40, 64
11, 205720, Note_on_c, 9, 40, 100
11, 205760, Note_off_c, 9, 40, 64
11, 205913, Note_on_c, 9, 36, 100
11, 206153, Note_off_c, 9, 36, 64
11, 206153, Note_on_c, 9, 40, 100
11, 206193, Note_off_c, 9, 40, 64
11, 206193, Note_on_c, 9, 40, 100
11, 206233, Note_off_c, 9, 40, 64
11, 206400, Note_on_c, 9, 36, 100
11, 206640, Note_off_c, 9, 36, 64
11, 206640, Note_on_c, 9, 36, 100
11, 206640, Note_on_c, 9, 49, 100
11, 207120, Note_off_c, 9, 49, 64
11, 207120, Note_off_c, 9, 36, 64
11, 207120, Note_on_c, 9, 53, 100
11, 207360, Note_on_c, 9, 36, 100
11, 207600, Note_off_c, 9, 36, 64
11, 207600, Note_off_c, 9, 53, 64
11, 207600, Note_on_c, 9, 53, 100
11, 207600, Note_on_c, 9, 40, 100
11, 208080, Note_off_c, 9, 40, 64
11, 208080, Note_off_c, 9, 53, 64
11, 208080, Note_on_c, 9, 53, 100
11, 208320, Note_on_c, 9, 40, 48
11, 208440, Note_off_c, 9, 40, 64
11, 208440, Note_on_c, 9, 40, 48
11, 208560, Note_off_c, 9, 53, 64
11, 208560, Note_off_c, 9, 40, 64
11, 208560, Note_on_c, 9, 53, 100
11, 208560, Note_on_c, 9, 36, 100
11, 208800, Note_off_c, 9, 36, 64
11, 208800, Note_on_c, 9, 40, 48
11, 208920, Note_off_c, 9, 40, 64
11, 209040, Note_off_c, 9, 53, 64
11, 209040, Note_on_c, 9, 53, 100
11, 209040, Note_on_c, 9, 40, 48
11, 209160, Note_off_c, 9, 40, 64
11, 209280, Note_on_c, 9, 36, 100
11, 209520, Note_off_c, 9, 53, 64
11, 209520, Note_off_c, 9, 36, 64
11, 209520, Note_on_c, 9, 53, 100
11, 209520, Note_on_c, 9, 40, 100
11, 210000, Note_off_c, 9, 40, 64
11, 210000, Note_off_c, 9, 53, 64
11, 210000, Note_on_c, 9, 53, 100
11, 210240, Note_on_c, 9, 36, 100
11, 210480, Note_off_c, 9, 36, 64
11, 210480, Note_off_c, 9, 53, 64
11, 210480, Note_on_c, 9, 49, 100
11, 210480, Note_on_c, 9, 36, 100
11, 210713, Note_off_c, 9, 36, 64
11, 210713, Note_off_c, 9, 49, 64
11, 210720, Note_on_c, 9, 36, 100
11, 210720, Note_on_c, 9, 46, 100
11, 210960, Note_off_c, 9, 46, 64
11, 210960, Note_off_c, 9, 36, 64
11, 210960, Note_on_c, 9, 40, 100
11, 210960, Note_on_c, 9, 42, 100
11, 211193, Note_off_c, 9, 40, 64
11, 211200, Note_off_c, 9, 42, 64
11, 211200, Note_on_c, 9, 57, 100
11, 211200, Note_on_c, 9, 36, 100
11, 211440, Note_on_c, 9, 46, 100
11, 211447, Note_off_c, 9, 36, 64
11, 211447, Note_off_c, 9, 57, 64
11, 211680, Note_off_c, 9, 46, 64
11, 211680, Note_on_c, 9, 36, 100
11, 211920, Note_off_c, 9, 36, 64
11, 211920, Note_on_c, 9, 49, 100
11, 211920, Note_on_c, 9, 36, 100
11, 212153, Note_off_c, 9, 36, 64
11, 212400, Note_off_c, 9, 49, 64
11, 212400, Note_on_c, 9, 44, 80
11, 212750, Note_off_c, 9, 44, 64
11, 212760, Note_on_c, 9, 40, 100
11, 212880, Note_off_c, 9, 40, 64
11, 212880, Note_on_c, 9, 40, 100
11, 213000, Note_off_c, 9, 40, 64
11, 213240, Note_on_c, 9, 50, 100
11, 213360, Note_off_c, 9, 50, 64
11, 213360, Note_on_c, 9, 50, 100
11, 213480, Note_off_c, 9, 50, 64
11, 213720, Note_on_c, 9, 47, 100
11, 213840, Note_off_c, 9, 47, 64
11, 213840, Note_on_c, 9, 47, 100
11, 213960, Note_off_c, 9, 47, 64
11, 214080, Note_on_c, 9, 36, 100
11, 214320, Note_on_c, 9, 49, 100
11, 214320, Note_on_c, 9, 36, 100
11, 214327, Note_off_c, 9, 36, 64
11, 214800, Note_off_c, 9, 49, 64
11, 214800, Note_off_c, 9, 36, 64
11, 214800, Note_on_c, 9, 53, 100
11, 215040, Note_on_c, 9, 36, 100
11, 215280, Note_off_c, 9, 36, 64
11, 215280, Note_off_c, 9, 53, 64
11, 215280, Note_on_c, 9, 53, 100
11, 215280, Note_on_c, 9, 40, 100
11, 215760, Note_off_c, 9, 40, 64
11, 215760, Note_off_c, 9, 53, 64
11, 215760, Note_on_c, 9, 53, 100
11, 216000, Note_on_c, 9, 40, 50
11, 216060, Note_off_c, 9, 40, 64
11, 216060, Note_on_c, 9, 40, 50
11, 216120, Note_off_c, 9, 40, 64
11, 216120, Note_on_c, 9, 40, 48
11, 216240, Note_off_c, 9, 53, 64
11, 216240, Note_off_c, 9, 40, 64
11, 216240, Note_on_c, 9, 53, 100
11, 216240, Note_on_c, 9, 36, 100
11, 216480, Note_off_c, 9, 36, 64
11, 216720, Note_off_c, 9, 53, 64
11, 216720, Note_on_c, 9, 53, 100
11, 216960, Note_on_c, 9, 36, 100
11, 217200, Note_off_c, 9, 36, 64
11, 217200, Note_off_c, 9, 53, 64
11, 217200, Note_on_c, 9, 40, 86
11, 217240, Note_off_c, 9, 40, 64
11, 217240, Note_on_c, 9, 40, 86
11, 217280, Note_off_c, 9, 40, 64
11, 217433, Note_on_c, 9, 36, 100
11, 217673, Note_off_c, 9, 36, 64
11, 217673, Note_on_c, 9, 45, 86
11, 217713, Note_off_c, 9, 45, 64
11, 217713, Note_on_c, 9, 45, 86
11, 217753, Note_off_c, 9, 45, 64
11, 217920, Note_on_c, 9, 36, 100
11, 218160, Note_off_c, 9, 36, 64
11, 218160, Note_on_c, 9, 36, 100
11, 218160, Note_on_c, 9, 49, 100
11, 219120, Note_off_c, 9, 49, 64
11, 219120, Note_off_c, 9, 36, 64
11, 219120, Note_on_c, 9, 46, 100
11, 220080, Note_off_c, 9, 46, 64
11, 221040, Note_on_c, 9, 46, 100
11, 222000, Note_off_c, 9, 46, 64
11, 222000, Note_on_c, 9, 49, 100
11, 222000, Note_on_c, 9, 36, 100
11, 222960, Note_off_c, 9, 36, 64
11, 222960, Note_off_c, 9, 49, 64
11, 222960, Note_on_c, 9, 46, 100
11, 223920, Note_off_c, 9, 46, 64
11, 224880, Note_on_c, 9, 46, 100
11, 225840, Note_off_c, 9, 46, 64
11, 225840, Note_on_c, 9, 49, 100
11, 225840, Note_on_c, 9, 36, 100
11, 226800, Note_off_c, 9, 36, 64
11, 226800, Note_off_c, 9, 49, 64
11, 226800, Note_on_c, 9, 46, 100
11, 227513, Note_off_c, 9, 46, 64
11, 227520, Note_on_c, 9, 40, 100
11, 227760, Note_off_c, 9, 40, 64
11, 227760, Note_on_c, 9, 40, 100
11, 228000, Note_off_c, 9, 40, 64
11, 228240, Note_on_c, 9, 48, 100
11, 228480, Note_off_c, 9, 48, 64
11, 228480, Note_on_c, 9, 48, 100
11, 228720, Note_off_c, 9, 48, 64
11, 228960, Note_on_c, 9, 47, 100
11, 229200, Note_off_c, 9, 47, 64
11, 229200, Note_on_c, 9, 45, 100
11, 229440, Note_off_c, 9, 45, 64
11, 229680, Note_on_c, 9, 36, 100
11, 229680, Note_on_c, 9, 49, 100
11, 230160, Note_off_c, 9, 49, 64
11, 230160, Note_off_c, 9, 36, 64
11, 230160, Note_on_c, 9, 46, 100
11, 230400, Note_on_c, 9, 36, 100
11, 230640, Note_off_c, 9, 36, 64
11, 230640, Note_off_c, 9, 46, 64
11, 230640, Note_on_c, 9, 40, 100
11, 230640, Note_on_c, 9, 46, 100
11, 230880, Note_off_c, 9, 40, 64
11, 231120, Note_off_c, 9, 46, 64
11, 231120, Note_on_c, 9, 46, 100
11, 231360, Note_on_c, 9, 36, 100
11, 231600, Note_off_c, 9, 46, 64
11, 231600, Note_on_c, 9, 46, 100
11, 231600, Note_on_c, 9, 36, 100
11, 231607, Note_off_c, 9, 36, 64
11, 232080, Note_off_c, 9, 46, 64
11, 232080, Note_off_c, 9, 36, 64
11, 232080, Note_on_c, 9, 46, 100
11, 232320, Note_on_c, 9, 36, 100
11, 232560, Note_off_c, 9, 36, 64
11, 232560, Note_off_c, 9, 46, 64
11, 232560, Note_on_c, 9, 46, 100
11, 232560, Note_on_c, 9, 40, 100
11, 232800, Note_off_c, 9, 40, 64
11, 233040, Note_off_c, 9, 46, 64
11, 233040, Note_on_c, 9, 46, 100
11, 233280, Note_on_c, 9, 36, 100
11, 233520, Note_off_c, 9, 36, 64
11, 233520, Note_off_c, 9, 46, 64
11, 233520, Note_on_c, 9, 36, 100
11, 233520, Note_on_c, 9, 46, 100
11, 234000, Note_off_c, 9, 46, 64
11, 234000, Note_off_c, 9, 36, 64
11, 234000, Note_on_c, 9, 46, 100
11, 234240, Note_on_c, 9, 36, 100
11, 234480, Note_off_c, 9, 36, 64
11, 234480, Note_off_c, 9, 46, 64
11, 234480, Note_on_c, 9, 46, 100
11, 234480, Note_on_c, 9, 40, 100
11, 234720, Note_off_c, 9, 40, 64
11, 234960, Note_off_c, 9, 46, 64
11, 234960, Note_on_c, 9, 46, 100
11, 235200, Note_on_c, 9, 36, 100
11, 235440, Note_off_c, 9, 36, 64
11, 235440, Note_off_c, 9, 46, 64
11, 235440, Note_on_c, 9, 46, 100
11, 235440, Note_on_c, 9, 36, 100
11, 235673, Note_off_c, 9, 36, 64
11, 235680, Note_on_c, 9, 40, 100
11, 235920, Note_off_c, 9, 46, 64
11, 235920, Note_off_c, 9, 40, 64
11, 235920, Note_on_c, 9, 46, 100
11, 236160, Note_on_c, 9, 36, 100
11, 236400, Note_off_c, 9, 36, 64
11, 236400, Note_off_c, 9, 46, 64
11, 236400, Note_on_c, 9, 40, 86
11, 236440, Note_off_c, 9, 40, 64
11, 236440, Note_on_c, 9, 40, 86
11, 236480, Note_off_c, 9, 40, 64
11, 236640, Note_on_c, 9, 36, 100
11, 236640, Note_on_c, 9, 57, 100
11, 236880, Note_off_c, 9, 57, 64
11, 236880, Note_off_c, 9, 36, 64
11, 236880, Note_on_c, 9, 49, 100
11, 236880, Note_on_c, 9, 36, 100
11, 237120, Note_off_c, 9, 36, 64
11, 237120, Note_off_c, 9, 49, 64
11, 237360, Note_on_c, 9, 36, 100
11, 237360, Note_on_c, 9, 57, 100
11, 237840, Note_off_c, 9, 57, 64
11, 237840, Note_off_c, 9, 36, 64
11, 237840, Note_on_c, 9, 46, 100
11, 238080, Note_on_c, 9, 36, 100
11, 238320, Note_off_c, 9, 36, 64
11, 238320, Note_off_c, 9, 46, 64
11, 238320, Note_on_c, 9, 40, 100
11, 238320, Note_on_c, 9, 46, 100
11, 238560, Note_off_c, 9, 40, 64
11, 238560, Note_on_c, 9, 36, 100
11, 238800, Note_off_c, 9, 46, 64
11, 238800, Note_off_c, 9, 36, 64
11, 238800, Note_on_c, 9, 46, 100
11, 239040, Note_on_c, 9, 36, 100
11, 239280, Note_off_c, 9, 46, 64
11, 239280, Note_on_c, 9, 36, 100
11, 239280, Note_on_c, 9, 55, 100
11, 239287, Note_off_c, 9, 36, 64
11, 239760, Note_off_c, 9, 36, 64
11, 239760, Note_off_c, 9, 55, 64
11, 239760, Note_on_c, 9, 46, 100
11, 240000, Note_on_c, 9, 36, 100
11, 240240, Note_off_c, 9, 36, 64
11, 240240, Note_off_c, 9, 46, 64
11, 240240, Note_on_c, 9, 40, 86
11, 240280, Note_off_c, 9, 40, 64
11, 240280, Note_on_c, 9, 40, 86
11, 240320, Note_off_c, 9, 40, 64
11, 240480, Note_on_c, 9, 36, 100
11, 240720, Note_off_c, 9, 36, 64
11, 240720, Note_on_c, 9, 36, 100
11, 240720, Note_on_c, 9, 49, 100
11, 241200, Note_off_c, 9, 49, 64
11, 241200, Note_off_c, 9, 36, 64
11, 241200, Note_on_c, 9, 46, 100
11, 241440, Note_on_c, 9, 36, 100
11, 241680, Note_off_c, 9, 36, 64
11, 241680, Note_off_c, 9, 46, 64
11, 241680, Note_on_c, 9, 46, 100
11, 241680, Note_on_c, 9, 36, 100
11, 241920, Note_off_c, 9, 36, 64
11, 242160, Note_off_c, 9, 46, 64
11, 242160, Note_on_c, 9, 46, 100
11, 242160, Note_on_c, 9, 40, 100
11, 242393, Note_off_c, 9, 40, 64
11, 242400, Note_on_c, 9, 36, 100
11, 242640, Note_off_c, 9, 46, 64
11, 242640, Note_off_c, 9, 36, 64
11, 242640, Note_on_c, 9, 46, 100
11, 242880, Note_on_c, 9, 36, 100
11, 243120, Note_off_c, 9, 36, 64
11, 243120, Note_off_c, 9, 46, 64
11, 243120, Note_on_c, 9, 46, 100
11, 243120, Note_on_c, 9, 36, 100
11, 243360, Note_off_c, 9, 36, 64
11, 243600, Note_off_c, 9, 46, 64
11, 243600, Note_on_c, 9, 46, 100
11, 243840, Note_on_c, 9, 36, 100
11, 244080, Note_off_c, 9, 36, 64
11, 244080, Note_off_c, 9, 46, 64
11, 244080, Note_on_c, 9, 46, 100
11, 244080, Note_on_c, 9, 40, 100
11, 244320, Note_off_c, 9, 40, 64
11, 244320, Note_on_c, 9, 36, 100
11, 244560, Note_off_c, 9, 46, 64
11, 244560, Note_off_c, 9, 36, 64
11, 244560, Note_on_c, 9, 49, 100
11, 244560, Note_on_c, 9, 36, 100
11, 245040, Note_off_c, 9, 36, 64
11, 245040, Note_off_c, 9, 49, 64
11, 245040, Note_on_c, 9, 46, 100
11, 245280, Note_on_c, 9, 36, 100
11, 245520, Note_off_c, 9, 36, 64
11, 245520, Note_off_c, 9, 46, 64
11, 245520, Note_on_c, 9, 40, 100
11, 245520, Note_on_c, 9, 46, 100
11, 245760, Note_off_c, 9, 40, 64
11, 246000, Note_off_c, 9, 46, 64
11, 246000, Note_on_c, 9, 46, 100
11, 246480, Note_off_c, 9, 46, 64
11, 246480, Note_on_c, 9, 46, 100
11, 246480, Note_on_c, 9, 36, 100
11, 246960, Note_off_c, 9, 36, 64
11, 246960, Note_off_c, 9, 46, 64
11, 246960, Note_on_c, 9, 46, 100
11, 247200, Note_on_c, 9, 36, 100
11, 247440, Note_off_c, 9, 36, 64
11, 247440, Note_off_c, 9, 46, 64
11, 247440, Note_on_c, 9, 46, 100
11, 247440, Note_on_c, 9, 40, 100
11, 247680, Note_off_c, 9, 40, 64
11, 247920, Note_off_c, 9, 46, 64
11, 247920, Note_on_c, 9, 46, 100
11, 248160, Note_on_c, 9, 36, 100
11, 248400, Note_off_c, 9, 36, 64
11, 248400, Note_off_c, 9, 46, 64
11, 248400, Note_on_c, 9, 36, 100
11, 248400, Note_on_c, 9, 57, 100
11, 248880, Note_off_c, 9, 57, 64
11, 248880, Note_off_c, 9, 36, 64
11, 248880, Note_on_c, 9, 46, 100
11, 249120, Note_on_c, 9, 36, 100
11, 249360, Note_off_c, 9, 36, 64
11, 249360, Note_off_c, 9, 46, 64
11, 249360, Note_on_c, 9, 46, 100
11, 249360, Note_on_c, 9, 40, 100
11, 249600, Note_off_c, 9, 40, 64
11, 249840, Note_off_c, 9, 46, 64
11, 249840, Note_on_c, 9, 46, 100
11, 250320, Note_off_c, 9, 46, 64
11, 250320, Note_on_c, 9, 46, 100
11, 250320, Note_on_c, 9, 36, 100
11, 250553, Note_off_c, 9, 36, 64
11, 250560, Note_on_c, 9, 40, 100
11, 250800, Note_off_c, 9, 46, 64
11, 250800, Note_off_c, 9, 40, 64
11, 250800, Note_on_c, 9, 46, 100
11, 251040, Note_on_c, 9, 36, 100
11, 251280, Note_off_c, 9, 36, 64
11, 251280, Note_off_c, 9, 46, 64
11, 251280, Note_on_c, 9, 40, 86
11, 251320, Note_off_c, 9, 40, 64
11, 251320, Note_on_c, 9, 40, 86
11, 251360, Note_off_c, 9, 40, 64
11, 251520, Note_on_c, 9, 36, 100
11, 251520, Note_on_c, 9, 57, 100
11, 251760, Note_off_c, 9, 57, 64
11, 251760, Note_off_c, 9, 36, 64
11, 251760, Note_on_c, 9, 49, 100
11, 251760, Note_on_c, 9, 36, 100
11, 252000, Note_off_c, 9, 36, 64
11, 252000, Note_off_c, 9, 49, 64
11, 252240, Note_on_c, 9, 57, 100
11, 252240, Note_on_c, 9, 36, 100
11, 252720, Note_off_c, 9, 36, 64
11, 252720, Note_off_c, 9, 57, 64
11, 252720, Note_on_c, 9, 46, 100
11, 252960, Note_on_c, 9, 36, 100
11, 253200, Note_off_c, 9, 36, 64
11, 253200, Note_off_c, 9, 46, 64
11, 253200, Note_on_c, 9, 40, 100
11, 253200, Note_on_c, 9, 46, 100
11, 253440, Note_off_c, 9, 40, 64
11, 253680, Note_off_c, 9, 46, 64
11, 253680, Note_on_c, 9, 46, 100
11, 253920, Note_on_c, 9, 36, 100
11, 254160, Note_off_c, 9, 46, 64
11, 254160, Note_on_c, 9, 36, 100
11, 254160, Note_on_c, 9, 55, 100
11, 254167, Note_off_c, 9, 36, 64
11, 254640, Note_off_c, 9, 36, 64
11, 254640, Note_off_c, 9, 55, 64
11, 254640, Note_on_c, 9, 46, 100
11, 254880, Note_on_c, 9, 36, 100
11, 255120, Note_off_c, 9, 36, 64
11, 255120, Note_off_c, 9, 46, 64
11, 255120, Note_on_c, 9, 40, 86
11, 255160, Note_off_c, 9, 40, 64
11, 255160, Note_on_c, 9, 40, 86
11, 255200, Note_off_c, 9, 40, 64
11, 255360, Note_on_c, 9, 36, 100
11, 255360, Note_on_c, 9, 49, 100
11, 255600, Note_off_c, 9, 49, 64
11, 255600, Note_off_c, 9, 36, 64
11, 255600, Note_on_c, 9, 36, 100
11, 255600, Note_on_c, 9, 49, 100
11, 256080, Note_off_c, 9, 49, 64
11, 256080, Note_off_c, 9, 36, 64
11, 256080, Note_on_c, 9, 46, 100
11, 256320, Note_on_c, 9, 36, 100
11, 256560, Note_off_c, 9, 36, 64
11, 256560, Note_off_c, 9, 46, 64
11, 256560, Note_on_c, 9, 46, 100
11, 256560, Note_on_c, 9, 36, 100
11, 256800, Note_off_c, 9, 36, 64
11, 257040, Note_off_c, 9, 46, 64
11, 257040, Note_on_c, 9, 46, 100
11, 257040, Note_on_c, 9, 40, 100
11, 257273, Note_off_c, 9, 40, 64
11, 257520, Note_off_c, 9, 46, 64
11, 257520, Note_on_c, 9, 46, 100
11, 257760, Note_on_c, 9, 36, 100
11, 258000, Note_off_c, 9, 36, 64
11, 258000, Note_off_c, 9, 46, 64
11, 258000, Note_on_c, 9, 46, 100
11, 258000, Note_on_c, 9, 36, 100
11, 258240, Note_off_c, 9, 36, 64
11, 258240, Note_on_c, 9, 40, 100
11, 258480, Note_off_c, 9, 46, 64
11, 258480, Note_on_c, 9, 46, 100
11, 258720, Note_off_c, 9, 40, 64
11, 258720, Note_on_c, 9, 36, 100
11, 258960, Note_off_c, 9, 46, 64
11, 258960, Note_off_c, 9, 36, 64
11, 258960, Note_on_c, 9, 40, 86
11, 259000, Note_off_c, 9, 40, 64
11, 259000, Note_on_c, 9, 40, 86
11, 259040, Note_off_c, 9, 40, 64
11, 259200, Note_on_c, 9, 36, 100
11, 259200, Note_on_c, 9, 57, 100
11, 259440, Note_off_c, 9, 57, 64
11, 259440, Note_off_c, 9, 36, 64
11, 259440, Note_on_c, 9, 36, 100
11, 259440, Note_on_c, 9, 49, 100
11, 259920, Note_off_c, 9, 49, 64
11, 259920, Note_off_c, 9, 36, 64
11, 259920, Note_on_c, 9, 52, 100
11, 260160, Note_on_c, 9, 36, 100
11, 260400, Note_off_c, 9, 36, 64
11, 260400, Note_off_c, 9, 52, 64
11, 260400, Note_on_c, 9, 52, 100
11, 260400, Note_on_c, 9, 40, 100
11, 260640, Note_off_c, 9, 40, 64
11, 260880, Note_off_c, 9, 52, 64
11, 260880, Note_on_c, 9, 52, 100
11, 261120, Note_on_c, 9, 36, 100
11, 261360, Note_off_c, 9, 36, 64
11, 261360, Note_off_c, 9, 52, 64
11, 261360, Note_on_c, 9, 36, 100
11, 261360, Note_on_c, 9, 57, 100
11, 261360, Note_on_c, 9, 52, 100
11, 261840, Note_off_c, 9, 52, 64
11, 261840, Note_off_c, 9, 57, 64
11, 261840, Note_off_c, 9, 36, 64
11, 261840, Note_on_c, 9, 52, 100
11, 262080, Note_on_c, 9, 36, 100
11, 262320, Note_off_c, 9, 36, 64
11, 262320, Note_off_c, 9, 52, 64
11, 262320, Note_on_c, 9, 52, 100
11, 262320, Note_on_c, 9, 40, 100
11, 262560, Note_off_c, 9, 40, 64
11, 262800, Note_off_c, 9, 52, 64
11, 262800, Note_on_c, 9, 52, 100
11, 263040, Note_on_c, 9, 36, 100
11, 263280, Note_off_c, 9, 36, 64
11, 263280, Note_off_c, 9, 52, 64
11, 263280, Note_on_c, 9, 40, 86
11, 263320, Note_off_c, 9, 40, 64
11, 263320, Note_on_c, 9, 40, 86
11, 263360, Note_off_c, 9, 40, 64
11, 263520, Note_on_c, 9, 36, 100
11, 263760, Note_off_c, 9, 36, 64
11, 263760, Note_on_c, 9, 36, 100
11, 264000, Note_off_c, 9, 36, 64
11, 264000, Note_on_c, 9, 40, 100
11, 264000, Note_on_c, 9, 57, 100
11, 264240, Note_off_c, 9, 57, 64
11, 264240, Note_off_c, 9, 40, 64
11, 264720, Note_on_c, 9, 49, 100
11, 264720, Note_on_c, 9, 36, 100
11, 265200, Note_off_c, 9, 36, 64
11, 265200, Note_off_c, 9, 49, 64
11, 265200, Note_on_c, 9, 52, 100
11, 265440, Note_on_c, 9, 36, 100
11, 265680, Note_off_c, 9, 36, 64
11, 265680, Note_off_c, 9, 52, 64
11, 265680, Note_on_c, 9, 52, 100
11, 265680, Note_on_c, 9, 36, 100
11, 265920, Note_off_c, 9, 36, 64
11, 266160, Note_off_c, 9, 52, 64
11, 266160, Note_on_c, 9, 52, 100
11, 266160, Note_on_c, 9, 40, 100
11, 266400, Note_off_c, 9, 40, 64
11, 266640, Note_off_c, 9, 52, 64
11, 266640, Note_on_c, 9, 52, 100
11, 266880, Note_on_c, 9, 36, 100
11, 267120, Note_off_c, 9, 36, 64
11, 267120, Note_off_c, 9, 52, 64
11, 267120, Note_on_c, 9, 49, 100
11, 267120, Note_on_c, 9, 36, 100
11, 267600, Note_off_c, 9, 36, 64
11, 267600, Note_off_c, 9, 49, 64
11, 267600, Note_on_c, 9, 52, 100
11, 267840, Note_on_c, 9, 36, 100
11, 268080, Note_off_c, 9, 36, 64
11, 268080, Note_off_c, 9, 52, 64
11, 268080, Note_on_c, 9, 52, 100
11, 268080, Note_on_c, 9, 40, 100
11, 268320, Note_off_c, 9, 40, 64
11, 268560, Note_off_c, 9, 52, 64
11, 268560, Note_on_c, 9, 52, 100
11, 268800, Note_on_c, 9, 36, 100
11, 269040, Note_off_c, 9, 36, 64
11, 269040, Note_off_c, 9, 52, 64
11, 269040, Note_on_c, 9, 36, 100
11, 269040, Note_on_c, 9, 57, 100
11, 269040, Note_on_c, 9, 52, 100
11, 269520, Note_off_c, 9, 52, 64
11, 269520, Note_off_c, 9, 57, 64
11, 269520, Note_off_c, 9, 36, 64
11, 269520, Note_on_c, 9, 52, 100
11, 269760, Note_on_c, 9, 36, 100
11, 270000, Note_off_c, 9, 36, 64
11, 270000, Note_off_c, 9, 52, 64
11, 270000, Note_on_c, 9, 52, 100
11, 270000, Note_on_c, 9, 40, 100
11, 270240, Note_off_c, 9, 40, 64
11, 270480, Note_off_c, 9, 52, 64
11, 270480, Note_on_c, 9, 52, 100
11, 270720, Note_on_c, 9, 36, 100
11, 270960, Note_off_c, 9, 36, 64
11, 270960, Note_off_c, 9, 52, 64
11, 270960, Note_on_c, 9, 36, 100
11, 270960, Note_on_c, 9, 49, 100
11, 271440, Note_off_c, 9, 49, 64
11, 271440, Note_off_c, 9, 36, 64
11, 271440, Note_on_c, 9, 52, 100
11, 271680, Note_on_c, 9, 40, 100
11, 271920, Note_off_c, 9, 40, 64
11, 271920, Note_off_c, 9, 52, 64
11, 271920, Note_on_c, 9, 52, 100
11, 272160, Note_on_c, 9, 36, 100
11, 272400, Note_off_c, 9, 36, 64
11, 272400, Note_off_c, 9, 52, 64
11, 272400, Note_on_c, 9, 52, 100
11, 272400, Note_on_c, 9, 36, 100
11, 272640, Note_off_c, 9, 36, 64
11, 272880, Note_off_c, 9, 52, 64
11, 272880, Note_on_c, 9, 36, 100
11, 272880, Note_on_c, 9, 52, 100
11, 273360, Note_off_c, 9, 52, 64
11, 273360, Note_off_c, 9, 36, 64
11, 273360, Note_on_c, 9, 52, 100
11, 273600, Note_on_c, 9, 36, 100
11, 273840, Note_off_c, 9, 36, 64
11, 273840, Note_off_c, 9, 52, 64
11, 273840, Note_on_c, 9, 52, 100
11, 273840, Note_on_c, 9, 40, 100
11, 274080, Note_off_c, 9, 40, 64
11, 274200, Note_on_c, 9, 40, 100
11, 274320, Note_off_c, 9, 52, 64
11, 274320, Note_off_c, 9, 40, 64
11, 274320, Note_on_c, 9, 40, 100
11, 274553, Note_off_c, 9, 40, 64
11, 274560, Note_on_c, 9, 36, 100
11, 274560, Note_on_c, 9, 49, 100
11, 274800, Note_off_c, 9, 49, 64
11, 274800, Note_off_c, 9, 36, 64
11, 274800, Note_on_c, 9, 36, 100
11, 274800, Note_on_c, 9, 49, 100
11, 275280, Note_off_c, 9, 49, 64
11, 275280, Note_off_c, 9, 36, 64
11, 275280, Note_on_c, 9, 52, 100
11, 275520, Note_on_c, 9, 36, 100
11, 275760, Note_off_c, 9, 36, 64
11, 275760, Note_off_c, 9, 52, 64
11, 275760, Note_on_c, 9, 52, 100
11, 275760, Note_on_c, 9, 40, 100
11, 276000, Note_off_c, 9, 40, 64
11, 276240, Note_off_c, 9, 52, 64
11, 276240, Note_on_c, 9, 52, 100
11, 276480, Note_on_c, 9, 36, 100
11, 276720, Note_off_c, 9, 36, 64
11, 276720, Note_off_c, 9, 52, 64
11, 276720, Note_on_c, 9, 36, 100
11, 276720, Note_on_c, 9, 57, 100
11, 276720, Note_on_c, 9, 52, 100
11, 277200, Note_off_c, 9, 52, 64
11, 277200, Note_off_c, 9, 57, 64
11, 277200, Note_off_c, 9, 36, 64
11, 277200, Note_on_c, 9, 52, 100
11, 277440, Note_on_c, 9, 36, 100
11, 277680, Note_off_c, 9, 36, 64
11, 277680, Note_off_c, 9, 52, 64
11, 277680, Note_on_c, 9, 52, 100
11, 277680, Note_on_c, 9, 40, 100
11, 277920, Note_off_c, 9, 40, 64
11, 278160, Note_off_c, 9, 52, 64
11, 278160, Note_on_c, 9, 52, 100
11, 278400, Note_on_c, 9, 36, 100
11, 278640, Note_off_c, 9, 36, 64
11, 278640, Note_off_c, 9, 52, 64
11, 278640, Note_on_c, 9, 40, 100
11, 278640, Note_on_c, 9, 55, 100
11, 278880, Note_off_c, 9, 55, 64
11, 278880, Note_off_c, 9, 40, 64
11, 278880, Note_on_c, 9, 36, 100
11, 279120, Note_off_c, 9, 36, 64
11, 279120, Note_on_c, 9, 36, 100
11, 279360, Note_off_c, 9, 36, 64
11, 279360, Note_on_c, 9, 40, 100
11, 279360, Note_on_c, 9, 57, 100
11, 279600, Note_off_c, 9, 57, 64
11, 279600, Note_off_c, 9, 40, 64
11, 279600, Note_on_c, 9, 36, 100
11, 279840, Note_off_c, 9, 36, 64
11, 279840, Note_on_c, 9, 36, 100
11, 280080, Note_off_c, 9, 36, 64
11, 280080, Note_on_c, 9, 40, 100
11, 280080, Note_on_c, 9, 55, 100
11, 280320, Note_off_c, 9, 55, 64
11, 280320, Note_off_c, 9, 40, 64
11, 280440, Note_on_c, 9, 40, 100
11, 280560, Note_off_c, 9, 40, 64
11, 280560, Note_on_c, 9, 40, 100
11, 280680, Note_off_c, 9, 40, 64
11, 280800, Note_on_c, 9, 46, 100
11, 280800, Note_on_c, 9, 36, 100
11, 281034, Note_off_c, 9, 36, 64
11, 281034, Note_off_c, 9, 46, 64
11, 281040, Note_on_c, 9, 42, 40
11, 281160, Note_off_c, 9, 42, 64
11, 281160, Note_on_c, 9, 40, 100
11, 281280, Note_off_c, 9, 40, 64
11, 281280, Note_on_c, 9, 40, 100
11, 281400, Note_off_c, 9, 40, 64
11, 281520, Note_on_c, 9, 36, 100
11, 281520, Note_on_c, 9, 57, 100
11, 281766, Note_off_c, 9, 57, 64
11, 281766, Note_off_c, 9, 36, 64
11, 281880, Note_on_c, 9, 40, 100
11, 282000, Note_off_c, 9, 40, 64
11, 282000, Note_on_c, 9, 40, 100
11, 282120, Note_off_c, 9, 40, 64
11, 282240, Note_on_c, 9, 36, 100
11, 282240, Note_on_c, 9, 49, 100
11, 282480, Note_off_c, 9, 49, 64
11, 282480, Note_off_c, 9, 36, 64
11, 282480, Note_on_c, 9, 49, 100
11, 282480, Note_on_c, 9, 36, 100
11, 282960, Note_off_c, 9, 36, 64
11, 282960, Note_off_c, 9, 49, 64
11, 282960, Note_on_c, 9, 52, 100
11, 283200, Note_on_c, 9, 36, 100
11, 283440, Note_off_c, 9, 36, 64
11, 283440, Note_off_c, 9, 52, 64
11, 283440, Note_on_c, 9, 52, 100
11, 283440, Note_on_c, 9, 40, 100
11, 283680, Note_off_c, 9, 40, 64
11, 283920, Note_off_c, 9, 52, 64
11, 283920, Note_on_c, 9, 52, 100
11, 284160, Note_on_c, 9, 36, 100
11, 284400, Note_off_c, 9, 36, 64
11, 284400, Note_off_c, 9, 52, 64
11, 284400, Note_on_c, 9, 36, 100
11, 284400, Note_on_c, 9, 57, 100
11, 284400, Note_on_c, 9, 52, 100
11, 284880, Note_off_c, 9, 52, 64
11, 284880, Note_off_c, 9, 57, 64
11, 284880, Note_off_c, 9, 36, 64
11, 284880, Note_on_c, 9, 52, 100
11, 285120, Note_on_c, 9, 36, 100
11, 285360, Note_off_c, 9, 36, 64
11, 285360, Note_off_c, 9, 52, 64
11, 285360, Note_on_c, 9, 40, 86
11, 285400, Note_off_c, 9, 40, 64
11, 285400, Note_on_c, 9, 40, 86
11, 285440, Note_off_c, 9, 40, 64
11, 285600, Note_on_c, 9, 48, 100
11, 285840, Note_off_c, 9, 48, 64
11, 285840, Note_on_c, 9, 47, 100
11, 286080, Note_off_c, 9, 47, 64
11, 286320, Note_on_c, 9, 36, 100
11, 286320, Note_on_c, 9, 49, 100
11, 286800, Note_off_c, 9, 49, 64
11, 286800, Note_off_c, 9, 36, 64
11, 287280, Note_on_c, 9, 46, 100
11, 287760, Note_off_c, 9, 46, 64
11, 289200, Note_on_c, 9, 46, 100
11, 289680, Note_off_c, 9, 46, 64
11, 290160, Note_on_c, 9, 49, 80
11, 290160, Note_on_c, 9, 36, 80
11, 290640, Note_off_c, 9, 36, 64
11, 290640, Note_off_c, 9, 49, 64
11, 291120, Note_on_c, 9, 46, 100
11, 291600, Note_off_c, 9, 46, 64
11, 292080, Note_on_c, 9, 44, 80
11, 292320, Note_off_c, 9, 44, 64
11, 292400, Note_on_c, 9, 50, 86
11, 292720, Note_off_c, 9, 50, 64
11, 292720, Note_on_c, 9, 50, 86
11, 292880, Note_off_c, 9, 50, 64
11, 292880, Note_on_c, 9, 50, 86
11, 293040, Note_off_c, 9, 50, 64
11, 293040, Note_on_c, 9, 48, 86
11, 293080, Note_off_c, 9, 48, 64
11, 293080, Note_on_c, 9, 48, 86
11, 293120, Note_off_c, 9, 48, 64
11, 293200, Note_on_c, 9, 44, 60
11, 293360, Note_off_c, 9, 44, 64
11, 293360, Note_on_c, 9, 47, 86
11, 293400, Note_off_c, 9, 47, 64
11, 293400, Note_on_c, 9, 47, 86
11, 293440, Note_off_c, 9, 47, 64
11, 293520, Note_on_c, 9, 44, 60
11, 293680, Note_off_c, 9, 44, 64
11, 293680, Note_on_c, 9, 43, 70
11, 293840, Note_off_c, 9, 43, 64
11, 293840, Note_on_c, 9, 43, 70
11, 294000, Note_off_c, 9, 43, 64
11, 294000, Note_on_c, 9, 36, 80
11, 294000, Note_on_c, 9, 49, 80
11, 294480, Note_off_c, 9, 49, 64
11, 294480, Note_off_c, 9, 36, 64
11, 294960, Note_on_c, 9, 46, 100
11, 295440, Note_off_c, 9, 46, 64
11, 295920, Note_on_c, 9, 40, 50
11, 295920, Note_on_c, 9, 43, 50
11, 296160, Note_off_c, 9, 43, 64
11, 296160, Note_off_c, 9, 40, 64
11, 296160, Note_on_c, 9, 40, 60
11, 296160, Note_on_c, 9, 43, 60
11, 296400, Note_off_c, 9, 43, 64
11, 296400, Note_off_c, 9, 40, 64
11, 296400, Note_on_c, 9, 40, 70
11, 296400, Note_on_c, 9, 43, 70
11, 296640, Note_off_c, 9, 43, 64
11, 296640, Note_off_c, 9, 40, 64
11, 296640, Note_on_c, 9, 40, 80
11, 296640, Note_on_c, 9, 43, 80
11, 296880, Note_off_c, 9, 43, 64
11, 296880, Note_off_c, 9, 40, 64
11, 296880, Note_on_c, 9, 40, 90
11, 296880, Note_on_c, 9, 43, 90
11, 297120, Note_off_c, 9, 43, 64
11, 297120, Note_off_c, 9, 40, 64
11, 297120, Note_on_c, 9, 40, 100
11, 297120, Note_on_c, 9, 43, 100
11, 297360, Note_off_c, 9, 43, 64
11, 297360, Note_off_c, 9, 40, 64
11, 297360, Note_on_c, 9, 40, 100
11, 297400, Note_off_c, 9, 40, 64
11, 297400, Note_on_c, 9, 40, 100
11, 297440, Note_off_c, 9, 40, 64
11, 297600, Note_on_c, 9, 36, 100
11, 297840, Note_off_c, 9, 36, 64
11, 297840, Note_on_c, 9, 36, 100
11, 297840, Note_on_c, 9, 49, 100
11, 298320, Note_off_c, 9, 49, 64
11, 298320, Note_off_c, 9, 36, 64
11, 298320, Note_on_c, 9, 53, 100
11, 298560, Note_on_c, 9, 36, 100
11, 298800, Note_off_c, 9, 36, 64
11, 298800, Note_off_c, 9, 53, 64
11, 298800, Note_on_c, 9, 53, 100
11, 298800, Note_on_c, 9, 40, 100
11, 299280, Note_off_c, 9, 40, 64
11, 299280, Note_off_c, 9, 53, 64
11, 299280, Note_on_c, 9, 53, 100
11, 299513, Note_off_c, 9, 53, 64
11, 299520, Note_on_c, 9, 36, 100
11, 299520, Note_on_c, 9, 49, 100
11, 299760, Note_off_c, 9, 49, 64
11, 299760, Note_off_c, 9, 36, 64
11, 299760, Note_on_c, 9, 53, 100
11, 300000, Note_on_c, 9, 40, 100
11, 300240, Note_off_c, 9, 40, 64
11, 300240, Note_off_c, 9, 53, 64
11, 300240, Note_on_c, 9, 40, 100
11, 300240, Note_on_c, 9, 53, 100
11, 300480, Note_off_c, 9, 53, 64
11, 300480, Note_off_c, 9, 40, 64
11, 300480, Note_on_c, 9, 36, 100
11, 300480, Note_on_c, 9, 57, 100
11, 300720, Note_off_c, 9, 57, 64
11, 300720, Note_off_c, 9, 36, 64
11, 300960, Note_on_c, 9, 36, 100
11, 300960, Note_on_c, 9, 53, 100
11, 301200, Note_off_c, 9, 36, 64
11, 301200, Note_on_c, 9, 40, 100
11, 301207, Note_off_c, 9, 53, 64
11, 301433, Note_off_c, 9, 40, 64
11, 301440, Note_on_c, 9, 36, 100
11, 301680, Note_off_c, 9, 36, 64
11, 301680, Note_on_c, 9, 49, 100
11, 301680, Note_on_c, 9, 36, 100
11, 301920, Note_on_c, 9, 53, 100
11, 302160, Note_off_c, 9, 36, 64
11, 302160, Note_off_c, 9, 49, 64
11, 302160, Note_on_c, 9, 36, 100
11, 302400, Note_off_c, 9, 53, 64
11, 302400, Note_off_c, 9, 36, 64
11, 302400, Note_on_c, 9, 40, 100
11, 302400, Note_on_c, 9, 53, 100
11, 302640, Note_off_c, 9, 40, 64
11, 302880, Note_off_c, 9, 53, 64
11, 302880, Note_on_c, 9, 36, 100
11, 303120, Note_on_c, 9, 36, 100
11, 303120, Note_on_c, 9, 53, 100
11, 303127, Note_off_c, 9, 36, 64
11, 303360, Note_off_c, 9, 36, 64
11, 303600, Note_off_c, 9, 53, 64
11, 303600, Note_on_c, 9, 49, 100
11, 303600, Note_on_c, 9, 36, 100
11, 303840, Note_off_c, 9, 36, 64
11, 303840, Note_off_c, 9, 49, 64
11, 303840, Note_on_c, 9, 40, 100
11, 304080, Note_off_c, 9, 40, 64
11, 304080, Note_on_c, 9, 40, 100
11, 304320, Note_off_c, 9, 40, 64
11, 304320, Note_on_c, 9, 49, 100
11, 304320, Note_on_c, 9, 36, 100
11, 304800, Note_off_c, 9, 36, 64
11, 304800, Note_off_c, 9, 49, 64
11, 304800, Note_on_c, 9, 53, 100
11, 305040, Note_on_c, 9, 36, 100
11, 305280, Note_off_c, 9, 36, 64
11, 305280, Note_off_c, 9, 53, 64
11, 305280, Note_on_c, 9, 53, 100
11, 305280, Note_on_c, 9, 40, 100
11, 305760, Note_off_c, 9, 40, 64
11, 305760, Note_off_c, 9, 53, 64
11, 305760, Note_on_c, 9, 53, 100
11, 305993, Note_off_c, 9, 53, 64
11, 306000, Note_on_c, 9, 36, 100
11, 306000, Note_on_c, 9, 49, 100
11, 306240, Note_off_c, 9, 49, 64
11, 306240, Note_off_c, 9, 36, 64
11, 306480, Note_on_c, 9, 36, 100
11, 306480, Note_on_c, 9, 53, 100
11, 306720, Note_off_c, 9, 36, 64
11, 306720, Note_on_c, 9, 40, 100
11, 306960, Note_off_c, 9, 53, 64
11, 306960, Note_off_c, 9, 40, 64
11, 307200, Note_on_c, 9, 36, 100
11, 307200, Note_on_c, 9, 55, 100
11, 307440, Note_off_c, 9, 36, 64
11, 307440, Note_on_c, 9, 36, 100
11, 307440, Note_on_c, 9, 53, 100
11, 307447, Note_off_c, 9, 55, 64
11, 307680, Note_off_c, 9, 36, 64
11, 307680, Note_off_c, 9, 53, 64
11, 307680, Note_on_c, 9, 40, 100
11, 307913, Note_off_c, 9, 40, 64
11, 307920, Note_on_c, 9, 36, 100
11, 307920, Note_on_c, 9, 49, 70
11, 308160, Note_off_c, 9, 49, 64
11, 308160, Note_off_c, 9, 36, 64
11, 308160, Note_on_c, 9, 36, 100
11, 308160, Note_on_c, 9, 49, 100
11, 308393, Note_off_c, 9, 49, 64
11, 308393, Note_off_c, 9, 36, 64
11, 308400, Note_on_c, 9, 36, 100
11, 308400, Note_on_c, 9, 53, 100
11, 308640, Note_off_c, 9, 36, 64
11, 308640, Note_on_c, 9, 40, 100
11, 308873, Note_off_c, 9, 40, 64
11, 308880, Note_off_c, 9, 53, 64
11, 308880, Note_on_c, 9, 36, 100
11, 308880, Note_on_c, 9, 55, 100
11, 309120, Note_off_c, 9, 55, 64
11, 309120, Note_off_c, 9, 36, 64
11, 309360, Note_on_c, 9, 36, 100
11, 309600, Note_off_c, 9, 36, 64
11, 309600, Note_on_c, 9, 40, 100
11, 309600, Note_on_c, 9, 53, 100
11, 309840, Note_off_c, 9, 40, 64
11, 309840, Note_on_c, 9, 36, 100
11, 310080, Note_off_c, 9, 53, 64
11, 310080, Note_off_c, 9, 36, 64
11, 310080, Note_on_c, 9, 40, 100
11, 310120, Note_off_c, 9, 40, 64
11, 310120, Note_on_c, 9, 40, 100
11, 310160, Note_off_c, 9, 40, 64
11, 310320, Note_on_c, 9, 36, 100
11, 310560, Note_off_c, 9, 36, 64
11, 310560, Note_on_c, 9, 40, 100
11, 310560, Note_on_c, 9, 46, 100
11, 310800, Note_off_c, 9, 46, 64
11, 310800, Note_off_c, 9, 40, 64
11, 310800, Note_on_c, 9, 36, 100
11, 310800, Note_on_c, 9, 42, 50
11, 311040, Note_off_c, 9, 42, 64
11, 311040, Note_off_c, 9, 36, 64
11, 311040, Note_on_c, 9, 36, 100
11, 311040, Note_on_c, 9, 49, 100
11, 311280, Note_off_c, 9, 49, 64
11, 311280, Note_off_c, 9, 36, 64
11, 311520, Note_on_c, 9, 49, 100
11, 311520, Note_on_c, 9, 36, 100
11, 311760, Note_off_c, 9, 36, 64
11, 311760, Note_off_c, 9, 49, 64
11, 312000, Note_on_c, 9, 49, 100
11, 312000, Note_on_c, 9, 36, 100
11, 312480, Note_off_c, 9, 36, 64
11, 312480, Note_off_c, 9, 49, 64
11, 312480, Note_on_c, 9, 46, 100
11, 312720, Note_on_c, 9, 36, 100
11, 312960, Note_off_c, 9, 36, 64
11, 312960, Note_off_c, 9, 46, 64
11, 312960, Note_on_c, 9, 40, 100
11, 312960, Note_on_c, 9, 46, 100
11, 313440, Note_off_c, 9, 46, 64
11, 313440, Note_off_c, 9, 40, 64
11, 313440, Note_on_c, 9, 46, 100
11, 313680, Note_on_c, 9, 36, 100
11, 313920, Note_off_c, 9, 36, 64
11, 313920, Note_off_c, 9, 46, 64
11, 313920, Note_on_c, 9, 46, 100
11, 314160, Note_on_c, 9, 40, 100
11, 314400, Note_off_c, 9, 40, 64
11, 314400, Note_off_c, 9, 46, 64
11, 314400, Note_on_c, 9, 40, 100
11, 314400, Note_on_c, 9, 46, 100
11, 314640, Note_off_c, 9, 40, 64
11, 314640, Note_on_c, 9, 36, 100
11, 314880, Note_off_c, 9, 46, 64
11, 314880, Note_off_c, 9, 36, 64
11, 314880, Note_on_c, 9, 46, 100
11, 315120, Note_on_c, 9, 36, 100
11, 315360, Note_off_c, 9, 36, 64
11, 315360, Note_off_c, 9, 46, 64
11, 315360, Note_on_c, 9, 40, 100
11, 315360, Note_on_c, 9, 46, 100
11, 315593, Note_off_c, 9, 40, 64
11, 315840, Note_off_c, 9, 46, 64
11, 315840, Note_on_c, 9, 36, 100
11, 315840, Note_on_c, 9, 46, 100
11, 316073, Note_off_c, 9, 36, 64
11, 316080, Note_on_c, 9, 40, 100
11, 316320, Note_off_c, 9, 46, 64
11, 316320, Note_off_c, 9, 40, 64
11, 316320, Note_on_c, 9, 46, 100
11, 316320, Note_on_c, 9, 40, 100
11, 316560, Note_off_c, 9, 40, 64
11, 316560, Note_on_c, 9, 36, 100
11, 316800, Note_off_c, 9, 46, 64
11, 316800, Note_off_c, 9, 36, 64
11, 316800, Note_on_c, 9, 46, 100
11, 317040, Note_on_c, 9, 40, 100
11, 317280, Note_off_c, 9, 46, 64
11, 317280, Note_on_c, 9, 46, 100
11, 317280, Note_on_c, 9, 40, 100
11, 317287, Note_off_c, 9, 40, 64
11, 317520, Note_off_c, 9, 40, 64
11, 317760, Note_off_c, 9, 46, 64
11, 317760, Note_on_c, 9, 46, 100
11, 317760, Note_on_c, 9, 36, 100
11, 317993, Note_off_c, 9, 36, 64
11, 318000, Note_on_c, 9, 40, 100
11, 318240, Note_off_c, 9, 46, 64
11, 318240, Note_off_c, 9, 40, 64
11, 318240, Note_on_c, 9, 46, 100
11, 318240, Note_on_c, 9, 40, 100
11, 318480, Note_off_c, 9, 40, 64
11, 318480, Note_on_c, 9, 36, 100
11, 318720, Note_off_c, 9, 46, 64
11, 318720, Note_off_c, 9, 36, 64
11, 318720, Note_on_c, 9, 46, 100
11, 318960, Note_on_c, 9, 36, 100
11, 319200, Note_off_c, 9, 46, 64
11, 319200, Note_on_c, 9, 46, 100
11, 319200, Note_on_c, 9, 40, 100
11, 319207, Note_off_c, 9, 36, 64
11, 319440, Note_off_c, 9, 40, 64
11, 319440, Note_on_c, 9, 40, 100
11, 319560, Note_off_c, 9, 40, 64
11, 319560, Note_on_c, 9, 40, 100
11, 319680, Note_off_c, 9, 46, 64
11, 319680, Note_off_c, 9, 40, 64
11, 319680, Note_on_c, 9, 36, 100
11, 319680, Note_on_c, 9, 49, 100
11, 320160, Note_off_c, 9, 49, 64
11, 320160, Note_off_c, 9, 36, 64
11, 320160, Note_on_c, 9, 46, 100
11, 320400, Note_on_c, 9, 36, 100
11, 320640, Note_off_c, 9, 36, 64
11, 320640, Note_off_c, 9, 46, 64
11, 320640, Note_on_c, 9, 40, 100
11, 320640, Note_on_c, 9, 46, 100
11, 321120, Note_off_c, 9, 46, 64
11, 321120, Note_off_c, 9, 40, 64
11, 321120, Note_on_c, 9, 46, 100
11, 321360, Note_on_c, 9, 36, 100
11, 321600, Note_off_c, 9, 36, 64
11, 321600, Note_off_c, 9, 46, 64
11, 321600, Note_on_c, 9, 46, 100
11, 321840, Note_on_c, 9, 40, 100
11, 322080, Note_off_c, 9, 40, 64
11, 322080, Note_off_c, 9, 46, 64
11, 322080, Note_on_c, 9, 40, 100
11, 322080, Note_on_c, 9, 46, 100
11, 322320, Note_off_c, 9, 40, 64
11, 322320, Note_on_c, 9, 36, 100
11, 322560, Note_off_c, 9, 46, 64
11, 322560, Note_off_c, 9, 36, 64
11, 322560, Note_on_c, 9, 46, 100
11, 322800, Note_on_c, 9, 40, 100
11, 323040, Note_off_c, 9, 40, 64
11, 323040, Note_off_c, 9, 46, 64
11, 323040, Note_on_c, 9, 40, 100
11, 323040, Note_on_c, 9, 46, 100
11, 323273, Note_off_c, 9, 40, 64
11, 323520, Note_off_c, 9, 46, 64
11, 323520, Note_on_c, 9, 46, 100
11, 323520, Note_on_c, 9, 36, 100
11, 323753, Note_off_c, 9, 36, 64
11, 323760, Note_on_c, 9, 40, 100
11, 324000, Note_off_c, 9, 46, 64
11, 324000, Note_off_c, 9, 40, 64
11, 324000, Note_on_c, 9, 46, 100
11, 324000, Note_on_c, 9, 40, 100
11, 324240, Note_off_c, 9, 40, 64
11, 324240, Note_on_c, 9, 36, 100
11, 324480, Note_off_c, 9, 46, 64
11, 324480, Note_off_c, 9, 36, 64
11, 324480, Note_on_c, 9, 46, 100
11, 324720, Note_on_c, 9, 40, 100
11, 324960, Note_off_c, 9, 46, 64
11, 324960, Note_on_c, 9, 46, 100
11, 324960, Note_on_c, 9, 40, 100
11, 324967, Note_off_c, 9, 40, 64
11, 325200, Note_off_c, 9, 40, 64
11, 325440, Note_off_c, 9, 46, 64
11, 325440, Note_on_c, 9, 49, 100
11, 325440, Note_on_c, 9, 36, 100
11, 325680, Note_off_c, 9, 36, 64
11, 325680, Note_off_c, 9, 49, 64
11, 325680, Note_on_c, 9, 40, 100
11, 325920, Note_off_c, 9, 40, 64
11, 325920, Note_on_c, 9, 40, 100
11, 326160, Note_off_c, 9, 40, 64
11, 326160, Note_on_c, 9, 49, 100
11, 326160, Note_on_c, 9, 36, 100
11, 326400, Note_off_c, 9, 36, 64
11, 326400, Note_off_c, 9, 49, 64
11, 326400, Note_on_c, 9, 40, 100
11, 326520, Note_off_c, 9, 40, 64
11, 326520, Note_on_c, 9, 40, 100
11, 326640, Note_off_c, 9, 40, 64
11, 326640, Note_on_c, 9, 40, 100
11, 326760, Note_off_c, 9, 40, 64
11, 326760, Note_on_c, 9, 40, 100
11, 326880, Note_off_c, 9, 40, 64
11, 326880, Note_on_c, 9, 40, 100
11, 327113, Note_off_c, 9, 40, 64
11, 327120, Note_on_c, 9, 40, 100
11, 327240, Note_off_c, 9, 40, 64
11, 327240, Note_on_c, 9, 40, 100
11, 327360, Note_on_c, 9, 49, 100
11, 327360, Note_on_c, 9, 36, 100
11, 327370, Note_off_c, 9, 40, 64
11, 327840, Note_off_c, 9, 49, 64
11, 327840, Note_off_c, 9, 36, 64
11, 327840, Note_on_c, 9, 46, 100
11, 327840, Note_on_c, 9, 40, 100
11, 328320, Note_off_c, 9, 40, 64
11, 328320, Note_off_c, 9, 46, 64
11, 328320, Note_on_c, 9, 46, 100
11, 328320, Note_on_c, 9, 36, 100
11, 328560, Note_off_c, 9, 36, 64
11, 328560, Note_on_c, 9, 36, 100
11, 328800, Note_off_c, 9, 46, 64
11, 328800, Note_off_c, 9, 36, 64
11, 328800, Note_on_c, 9, 40, 100
11, 328800, Note_on_c, 9, 46, 100
11, 329033, Note_off_c, 9, 46, 64
11, 329040, Note_off_c, 9, 40, 64
11, 329040, Note_on_c, 9, 36, 100
11, 329040, Note_on_c, 9, 49, 100
11, 329280, Note_off_c, 9, 49, 64
11, 329280, Note_off_c, 9, 36, 64
11, 329280, Note_on_c, 9, 46, 100
11, 329520, Note_on_c, 9, 36, 100
11, 329760, Note_off_c, 9, 36, 64
11, 329760, Note_off_c, 9, 46, 64
11, 329760, Note_on_c, 9, 46, 100
11, 329760, Note_on_c, 9, 40, 100
11, 329993, Note_off_c, 9, 40, 64
11, 330000, Note_on_c, 9, 36, 100
11, 330000, Note_on_c, 9, 57, 100
11, 330240, Note_off_c, 9, 57, 64
11, 330240, Note_off_c, 9, 46, 64
11, 330240, Note_off_c, 9, 36, 64
11, 330240, Note_on_c, 9, 46, 100
11, 330480, Note_on_c, 9, 36, 100
11, 330720, Note_off_c, 9, 36, 64
11, 330720, Note_off_c, 9, 46, 64
11, 330720, Note_on_c, 9, 46, 100
11, 330720, Note_on_c, 9, 40, 100
11, 330960, Note_off_c, 9, 40, 64
11, 331200, Note_off_c, 9, 46, 64
11, 331200, Note_on_c, 9, 36, 100
11, 331200, Note_on_c, 9, 49, 100
11, 331440, Note_off_c, 9, 49, 64
11, 331440, Note_off_c, 9, 36, 64
11, 331440, Note_on_c, 9, 36, 100
11, 331440, Note_on_c, 9, 46, 100
11, 331680, Note_off_c, 9, 46, 64
11, 331680, Note_off_c, 9, 36, 64
11, 331680, Note_on_c, 9, 40, 100
11, 331680, Note_on_c, 9, 42, 100
11, 331920, Note_off_c, 9, 42, 64
11, 331920, Note_off_c, 9, 40, 64
11, 331920, Note_on_c, 9, 36, 100
11, 331920, Note_on_c, 9, 57, 100
11, 332160, Note_off_c, 9, 57, 64
11, 332160, Note_off_c, 9, 36, 64
11, 332160, Note_on_c, 9, 46, 100
11, 332400, Note_on_c, 9, 36, 100
11, 332640, Note_off_c, 9, 36, 64
11, 332640, Note_off_c, 9, 46, 64
11, 332640, Note_on_c, 9, 40, 100
11, 332640, Note_on_c, 9, 46, 100
11, 332880, Note_off_c, 9, 40, 64
11, 333120, Note_off_c, 9, 46, 64
11, 333120, Note_on_c, 9, 36, 100
11, 333120, Note_on_c, 9, 49, 100
11, 333353, Note_off_c, 9, 49, 64
11, 333360, Note_off_c, 9, 36, 64
11, 333360, Note_on_c, 9, 36, 100
11, 333360, Note_on_c, 9, 46, 100
11, 333600, Note_off_c, 9, 36, 64
11, 333600, Note_on_c, 9, 40, 100
11, 333840, Note_off_c, 9, 46, 64
11, 333840, Note_off_c, 9, 40, 64
11, 333840, Note_on_c, 9, 36, 100
11, 333840, Note_on_c, 9, 57, 100
11, 334080, Note_off_c, 9, 57, 64
11, 334080, Note_off_c, 9, 36, 64
11, 334080, Note_on_c, 9, 46, 100
11, 334313, Note_off_c, 9, 46, 64
11, 334320, Note_on_c, 9, 36, 100
11, 334320, Note_on_c, 9, 46, 100
11, 334560, Note_off_c, 9, 36, 64
11, 334560, Note_on_c, 9, 40, 100
11, 334567, Note_off_c, 9, 46, 64
11, 334680, Note_off_c, 9, 40, 64
11, 334680, Note_on_c, 9, 40, 100
11, 334800, Note_off_c, 9, 40, 64
11, 334800, Note_on_c, 9, 40, 100
11, 334920, Note_off_c, 9, 40, 64
11, 334920, Note_on_c, 9, 40, 100
11, 335040, Note_off_c, 9, 40, 64
11, 335040, Note_on_c, 9, 49, 100
11, 335040, Note_on_c, 9, 36, 100
11, 335520, Note_off_c, 9, 36, 64
11, 335520, Note_off_c, 9, 49, 64
11, 335520, Note_on_c, 9, 46, 100
11, 335520, Note_on_c, 9, 40, 100
11, 336000, Note_off_c, 9, 40, 64
11, 336000, Note_off_c, 9, 46, 64
11, 336000, Note_on_c, 9, 36, 100
11, 336000, Note_on_c, 9, 46, 80
11, 336240, Note_off_c, 9, 46, 64
11, 336240, Note_off_c, 9, 36, 64
11, 336240, Note_on_c, 9, 36, 100
11, 336240, Note_on_c, 9, 46, 90
11, 336480, Note_off_c, 9, 46, 64
11, 336480, Note_off_c, 9, 36, 64
11, 336480, Note_on_c, 9, 40, 100
11, 336480, Note_on_c, 9, 46, 100
11, 336720, Note_off_c, 9, 46, 64
11, 336720, Note_off_c, 9, 40, 64
11, 336720, Note_on_c, 9, 36, 100
11, 336720, Note_on_c, 9, 57, 100
11, 336960, Note_off_c, 9, 57, 64
11, 336960, Note_off_c, 9, 36, 64
11, 337200, Note_on_c, 9, 36, 100
11, 337200, Note_on_c, 9, 46, 100
11, 337440, Note_off_c, 9, 46, 64
11, 337440, Note_off_c, 9, 36, 64
11, 337440, Note_on_c, 9, 40, 100
11, 337440, Note_on_c, 9, 42, 100
11, 337680, Note_off_c, 9, 42, 64
11, 337680, Note_off_c, 9, 40, 64
11, 337680, Note_on_c, 9, 36, 100
11, 337680, Note_on_c, 9, 49, 100
11, 337920, Note_off_c, 9, 49, 64
11, 337920, Note_off_c, 9, 36, 64
11, 338160, Note_on_c, 9, 36, 100
11, 338400, Note_off_c, 9, 36, 64
11, 338400, Note_on_c, 9, 40, 100
11, 338400, Note_on_c, 9, 46, 100
11, 338640, Note_off_c, 9, 40, 64
11, 338640, Note_on_c, 9, 40, 100
11, 338760, Note_off_c, 9, 40, 64
11, 338760, Note_on_c, 9, 40, 100
11, 338880, Note_off_c, 9, 46, 64
11, 338880, Note_off_c, 9, 40, 64
11, 338880, Note_on_c, 9, 49, 100
11, 338880, Note_on_c, 9, 36, 100
11, 339120, Note_off_c, 9, 36, 64
11, 339120, Note_off_c, 9, 49, 64
11, 339120, Note_on_c, 9, 36, 100
11, 339120, Note_on_c, 9, 46, 100
11, 339360, Note_off_c, 9, 46, 64
11, 339360, Note_off_c, 9, 36, 64
11, 339360, Note_on_c, 9, 40, 100
11, 339360, Note_on_c, 9, 42, 100
11, 339600, Note_off_c, 9, 42, 64
11, 339600, Note_off_c, 9, 40, 64
11, 339600, Note_on_c, 9, 36, 100
11, 339600, Note_on_c, 9, 57, 100
11, 339840, Note_off_c, 9, 57, 64
11, 339840, Note_off_c, 9, 36, 64
11, 339840, Note_on_c, 9, 46, 100
11, 340080, Note_on_c, 9, 36, 100
11, 340320, Note_off_c, 9, 36, 64
11, 340320, Note_off_c, 9, 46, 64
11, 340320, Note_on_c, 9, 40, 100
11, 340320, Note_on_c, 9, 46, 100
11, 340560, Note_off_c, 9, 40, 64
11, 340560, Note_on_c, 9, 36, 100
11, 340800, Note_off_c, 9, 46, 64
11, 340800, Note_off_c, 9, 36, 64
11, 340800, Note_on_c, 9, 49, 100
11, 340800, Note_on_c, 9, 36, 100
11, 341040, Note_off_c, 9, 36, 64
11, 341040, Note_off_c, 9, 49, 64
11, 341040, Note_on_c, 9, 40, 100
11, 341160, Note_off_c, 9, 40, 64
11, 341160, Note_on_c, 9, 40, 100
11, 341280, Note_off_c, 9, 40, 64
11, 341280, Note_on_c, 9, 49, 100
11, 341280, Note_on_c, 9, 36, 100
11, 341520, Note_off_c, 9, 36, 64
11, 341520, Note_off_c, 9, 49, 64
11, 341520, Note_on_c, 9, 49, 100
11, 341520, Note_on_c, 9, 36, 100
11, 341760, Note_off_c, 9, 36, 64
11, 341760, Note_off_c, 9, 49, 64
11, 341760, Note_on_c, 9, 40, 100
11, 341880, Note_off_c, 9, 40, 64
11, 341880, Note_on_c, 9, 40, 100
11, 342000, Note_off_c, 9, 40, 64
11, 342000, Note_on_c, 9, 49, 100
11, 342000, Note_on_c, 9, 36, 100
11, 342240, Note_off_c, 9, 36, 64
11, 342240, Note_off_c, 9, 49, 64
11, 342240, Note_on_c, 9, 40, 100
11, 342360, Note_off_c, 9, 40, 64
11, 342360, Note_on_c, 9, 40, 100
11, 342480, Note_off_c, 9, 40, 64
11, 342480, Note_on_c, 9, 40, 100
11, 342600, Note_off_c, 9, 40, 64
11, 342600, Note_on_c, 9, 40, 100
11, 342720, Note_off_c, 9, 40, 64
11, 342720, Note_on_c, 9, 49, 100
11, 342720, Note_on_c, 9, 36, 100
11, 343070, Note_off_c, 9, 36, 64
11, 343080, Note_on_c, 9, 36, 100
11, 343200, Note_off_c, 9, 49, 64
11, 343200, Note_off_c, 9, 36, 64
11, 343200, Note_on_c, 9, 40, 100
11, 343200, Note_on_c, 9, 53, 100
11, 343440, Note_off_c, 9, 53, 64
11, 343440, Note_off_c, 9, 40, 64
11, 343440, Note_on_c, 9, 36, 100
11, 343440, Note_on_c, 9, 53, 100
11, 343680, Note_off_c, 9, 53, 64
11, 343680, Note_off_c, 9, 36, 64
11, 343680, Note_on_c, 9, 40, 100
11, 343680, Note_on_c, 9, 53, 100
11, 343920, Note_off_c, 9, 53, 64
11, 343920, Note_off_c, 9, 40, 64
11, 343920, Note_on_c, 9, 53, 100
11, 344040, Note_on_c, 9, 36, 100
11, 344100, Note_off_c, 9, 36, 64
11, 344100, Note_on_c, 9, 36, 100
11, 344160, Note_off_c, 9, 53, 64
11, 344160, Note_off_c, 9, 36, 64
11, 344160, Note_on_c, 9, 40, 100
11, 344160, Note_on_c, 9, 53, 100
11, 344400, Note_off_c, 9, 53, 64
11, 344400, Note_off_c, 9, 40, 64
11, 344400, Note_on_c, 9, 36, 100
11, 344400, Note_on_c, 9, 57, 100
11, 344640, Note_off_c, 9, 57, 64
11, 344640, Note_off_c, 9, 36, 64
11, 344640, Note_on_c, 9, 53, 100
11, 344640, Note_on_c, 9, 40, 100
11, 344880, Note_off_c, 9, 40, 64
11, 344880, Note_off_c, 9, 53, 64
11, 344880, Note_on_c, 9, 53, 100
11, 345000, Note_on_c, 9, 36, 100
11, 345060, Note_off_c, 9, 36, 64
11, 345060, Note_on_c, 9, 36, 100
11, 345120, Note_off_c, 9, 53, 64
11, 345120, Note_off_c, 9, 36, 64
11, 345120, Note_on_c, 9, 40, 100
11, 345120, Note_on_c, 9, 53, 100
11, 345360, Note_off_c, 9, 53, 64
11, 345360, Note_off_c, 9, 40, 64
11, 345360, Note_on_c, 9, 36, 100
11, 345360, Note_on_c, 9, 49, 100
11, 345600, Note_off_c, 9, 49, 64
11, 345600, Note_off_c, 9, 36, 64
11, 345600, Note_on_c, 9, 53, 100
11, 345600, Note_on_c, 9, 40, 100
11, 345840, Note_off_c, 9, 40, 64
11, 345840, Note_off_c, 9, 53, 64
11, 345840, Note_on_c, 9, 53, 100
11, 346080, Note_off_c, 9, 53, 64
11, 346080, Note_on_c, 9, 53, 100
11, 346080, Note_on_c, 9, 40, 100
11, 346320, Note_off_c, 9, 40, 64
11, 346320, Note_off_c, 9, 53, 64
11, 346320, Note_on_c, 9, 53, 100
11, 346320, Note_on_c, 9, 36, 100
11, 346560, Note_off_c, 9, 36, 64
11, 346560, Note_off_c, 9, 53, 64
11, 346560, Note_on_c, 9, 40, 100
11, 346560, Note_on_c, 9, 52, 100
11, 346800, Note_off_c, 9, 52, 64
11, 346800, Note_off_c, 9, 40, 64
11, 346800, Note_on_c, 9, 53, 100
11, 346920, Note_on_c, 9, 36, 100
11, 346980, Note_off_c, 9, 36, 64
11, 346980, Note_on_c, 9, 36, 100
11, 347040, Note_off_c, 9, 53, 64
11, 347040, Note_off_c, 9, 36, 64
11, 347040, Note_on_c, 9, 40, 100
11, 347040, Note_on_c, 9, 53, 100
11, 347280, Note_off_c, 9, 53, 64
11, 347280, Note_off_c, 9, 40, 64
11, 347280, Note_on_c, 9, 36, 100
11, 347280, Note_on_c, 9, 57, 100
11, 347520, Note_off_c, 9, 57, 64
11, 347520, Note_off_c, 9, 36, 64
11, 347530, Note_on_c, 9, 40, 100
11, 347530, Note_on_c, 9, 53, 100
11, 347770, Note_off_c, 9, 53, 64
11, 347770, Note_off_c, 9, 40, 64
11, 347770, Note_on_c, 9, 53, 100
11, 347890, Note_on_c, 9, 36, 100
11, 347950, Note_off_c, 9, 36, 64
11, 347950, Note_on_c, 9, 36, 100
11, 348010, Note_off_c, 9, 53, 64
11, 348010, Note_off_c, 9, 36, 64
11, 348010, Note_on_c, 9, 40, 100
11, 348010, Note_on_c, 9, 53, 100
11, 348240, Note_on_c, 9, 53, 100
11, 348240, Note_on_c, 9, 36, 100
11, 348250, Note_off_c, 9, 53, 64
11, 348250, Note_off_c, 9, 40, 64
11, 348480, Note_off_c, 9, 53, 64
11, 348480, Note_off_c, 9, 36, 64
11, 348480, Note_on_c, 9, 40, 100
11, 348480, Note_on_c, 9, 53, 100
11, 348720, Note_off_c, 9, 53, 64
11, 348720, Note_off_c, 9, 40, 64
11, 348720, Note_on_c, 9, 53, 100
11, 348840, Note_on_c, 9, 36, 100
11, 348900, Note_off_c, 9, 36, 64
11, 348900, Note_on_c, 9, 36, 100
11, 348960, Note_off_c, 9, 53, 64
11, 348960, Note_off_c, 9, 36, 64
11, 348960, Note_on_c, 9, 40, 100
11, 348960, Note_on_c, 9, 53, 100
11, 349200, Note_off_c, 9, 53, 64
11, 349200, Note_off_c, 9, 40, 64
11, 349200, Note_on_c, 9, 36, 100
11, 349200, Note_on_c, 9, 57, 100
11, 349440, Note_off_c, 9, 57, 64
11, 349440, Note_off_c, 9, 36, 64
11, 349450, Note_on_c, 9, 40, 100
11, 349450, Note_on_c, 9, 53, 100
11, 349690, Note_off_c, 9, 53, 64
11, 349690, Note_off_c, 9, 40, 64
11, 349690, Note_on_c, 9, 53, 100
11, 349800, Note_on_c, 9, 36, 100
11, 349920, Note_off_c, 9, 36, 64
11, 349930, Note_off_c, 9, 53, 64
11, 349930, Note_on_c, 9, 40, 100
11, 349930, Note_on_c, 9, 53, 100
11, 350160, Note_on_c, 9, 53, 100
11, 350160, Note_on_c, 9, 36, 100
11, 350170, Note_off_c, 9, 53, 64
11, 350170, Note_off_c, 9, 40, 64
11, 350400, Note_off_c, 9, 53, 64
11, 350400, Note_off_c, 9, 36, 64
11, 350400, Note_on_c, 9, 49, 100
11, 350400, Note_on_c, 9, 40, 100
11, 350750, Note_off_c, 9, 40, 64
11, 350760, Note_on_c, 9, 36, 100
11, 350820, Note_off_c, 9, 36, 64
11, 350820, Note_on_c, 9, 36, 100
11, 350880, Note_off_c, 9, 49, 64
11, 350880, Note_off_c, 9, 36, 64
11, 350880, Note_on_c, 9, 40, 100
11, 350880, Note_on_c, 9, 53, 100
11, 351120, Note_off_c, 9, 53, 64
11, 351120, Note_off_c, 9, 40, 64
11, 351120, Note_on_c, 9, 36, 100
11, 351120, Note_on_c, 9, 53, 100
11, 351360, Note_off_c, 9, 53, 64
11, 351360, Note_off_c, 9, 36, 64
11, 351360, Note_on_c, 9, 40, 100
11, 351360, Note_on_c, 9, 53, 100
11, 351600, Note_off_c, 9, 53, 64
11, 351600, Note_off_c, 9, 40, 64
11, 351600, Note_on_c, 9, 53, 100
11, 351600, Note_on_c, 9, 36, 100
11, 351840, Note_off_c, 9, 36, 64
11, 351840, Note_off_c, 9, 53, 64
11, 351840, Note_on_c, 9, 40, 100
11, 351840, Note_on_c, 9, 53, 100
11, 352080, Note_off_c, 9, 53, 64
11, 352080, Note_off_c, 9, 40, 64
11, 352080, Note_on_c, 9, 36, 100
11, 352080, Note_on_c, 9, 57, 100
11, 352320, Note_off_c, 9, 57, 64
11, 352320, Note_off_c, 9, 36, 64
11, 352320, Note_on_c, 9, 40, 100
11, 352560, Note_off_c, 9, 40, 64
11, 352560, Note_on_c, 9, 53, 100
11, 352560, Note_on_c, 9, 36, 100
11, 352800, Note_off_c, 9, 36, 64
11, 352800, Note_off_c, 9, 53, 64
11, 352800, Note_on_c, 9, 40, 100
11, 353040, Note_off_c, 9, 40, 64
11, 353040, Note_on_c, 9, 36, 100
11, 353040, Note_on_c, 9, 55, 100
11, 353280, Note_off_c, 9, 55, 64
11, 353280, Note_off_c, 9, 36, 64
11, 353280, Note_on_c, 9, 40, 100
11, 353520, Note_off_c, 9, 40, 64
11, 353520, Note_on_c, 9, 36, 100
11, 353760, Note_off_c, 9, 36, 64
11, 353760, Note_on_c, 9, 53, 100
11, 353760, Note_on_c, 9, 40, 100
11, 354000, Note_off_c, 9, 40, 64
11, 354000, Note_off_c, 9, 53, 64
11, 354000, Note_on_c, 9, 53, 100
11, 354000, Note_on_c, 9, 36, 100
11, 354240, Note_off_c, 9, 36, 64
11, 354240, Note_off_c, 9, 53, 64
11, 354240, Note_on_c, 9, 40, 100
11, 354240, Note_on_c, 9, 52, 100
11, 354480, Note_off_c, 9, 52, 64
11, 354480, Note_off_c, 9, 40, 64
11, 354480, Note_on_c, 9, 53, 100
11, 354600, Note_on_c, 9, 36, 100
11, 354660, Note_off_c, 9, 36, 64
11, 354660, Note_on_c, 9, 36, 100
11, 354720, Note_off_c, 9, 53, 64
11, 354720, Note_off_c, 9, 36, 64
11, 354720, Note_on_c, 9, 40, 100
11, 354720, Note_on_c, 9, 53, 100
11, 354960, Note_off_c, 9, 53, 64
11, 354960, Note_off_c, 9, 40, 64
11, 354960, Note_on_c, 9, 36, 100
11, 354960, Note_on_c, 9, 57, 100
11, 355200, Note_off_c, 9, 57, 64
11, 355200, Note_off_c, 9, 36, 64
11, 355210, Note_on_c, 9, 40, 100
11, 355450, Note_off_c, 9, 40, 64
11, 355450, Note_on_c, 9, 53, 80
11, 355570, Note_on_c, 9, 36, 100
11, 355630, Note_off_c, 9, 36, 64
11, 355630, Note_on_c, 9, 36, 100
11, 355690, Note_off_c, 9, 53, 64
11, 355690, Note_off_c, 9, 36, 64
11, 355690, Note_on_c, 9, 40, 100
11, 355690, Note_on_c, 9, 53, 100
11, 355920, Note_on_c, 9, 53, 100
11, 355920, Note_on_c, 9, 36, 100
11, 355930, Note_off_c, 9, 53, 64
11, 355930, Note_off_c, 9, 40, 64
11, 356160, Note_off_c, 9, 53, 64
11, 356160, Note_off_c, 9, 36, 64
11, 356160, Note_on_c, 9, 40, 100
11, 356160, Note_on_c, 9, 55, 100
11, 356400, Note_off_c, 9, 55, 64
11, 356400, Note_off_c, 9, 40, 64
11, 356400, Note_on_c, 9, 40, 100
11, 356520, Note_off_c, 9, 40, 64
11, 356520, Note_on_c, 9, 40, 100
11, 356640, Note_off_c, 9, 40, 64
11, 356640, Note_on_c, 9, 40, 100
11, 356760, Note_off_c, 9, 40, 64
11, 356760, Note_on_c, 9, 40, 100
11, 356880, Note_off_c, 9, 40, 64
11, 356880, Note_on_c, 9, 40, 100
11, 357000, Note_off_c, 9, 40, 64
11, 357000, Note_on_c, 9, 40, 100
11, 357120, Note_off_c, 9, 40, 64
11, 357120, Note_on_c, 9, 40, 100
11, 357240, Note_off_c, 9, 40, 64
11, 357240, Note_on_c, 9, 40, 100
11, 357360, Note_off_c, 9, 40, 64
11, 357360, Note_on_c, 9, 50, 100
11, 357480, Note_off_c, 9, 50, 64
11, 357480, Note_on_c, 9, 50, 100
11, 357600, Note_off_c, 9, 50, 64
11, 357600, Note_on_c, 9, 48, 100
11, 357720, Note_off_c, 9, 48, 64
11, 357720, Note_on_c, 9, 48, 100
11, 357840, Note_off_c, 9, 48, 64
11, 357840, Note_on_c, 9, 45, 100
11, 357960, Note_off_c, 9, 45, 64
11, 357960, Note_on_c, 9, 45, 100
11, 358080, Note_off_c, 9, 45, 64
11, 358080, Note_on_c, 9, 36, 100
11, 358080, Note_on_c, 9, 49, 100
11, 358200, Note_off_c, 9, 36, 64
11, 358200, Note_on_c, 9, 36, 100
11, 358320, Note_off_c, 9, 36, 64
11, 358320, Note_on_c, 9, 36, 100
11, 358320, Note_on_c, 9, 53, 80
11, 358440, Note_off_c, 9, 36, 64
11, 358440, Note_on_c, 9, 36, 100
11, 358560, Note_off_c, 9, 49, 64
11, 358560, Note_off_c, 9, 53, 64
11, 358560, Note_off_c, 9, 36, 64
11, 358560, Note_on_c, 9, 36, 100
11, 358560, Note_on_c, 9, 40, 100
11, 358560, Note_on_c, 9, 53, 100
11, 358680, Note_off_c, 9, 36, 64
11, 358680, Note_on_c, 9, 36, 100
11, 358800, Note_off_c, 9, 53, 64
11, 358800, Note_off_c, 9, 36, 64
11, 358800, Note_on_c, 9, 36, 100
11, 358800, Note_on_c, 9, 53, 80
11, 358920, Note_off_c, 9, 36, 64
11, 358920, Note_on_c, 9, 36, 100
11, 359040, Note_off_c, 9, 40, 64
11, 359040, Note_off_c, 9, 53, 64
11, 359040, Note_off_c, 9, 36, 64
11, 359040, Note_on_c, 9, 36, 100
11, 359040, Note_on_c, 9, 40, 100
11, 359040, Note_on_c, 9, 53, 100
11, 359160, Note_off_c, 9, 36, 64
11, 359160, Note_on_c, 9, 36, 100
11, 359280, Note_off_c, 9, 53, 64
11, 359280, Note_off_c, 9, 36, 64
11, 359280, Note_on_c, 9, 36, 100
11, 359280, Note_on_c, 9, 53, 80
11, 359400, Note_off_c, 9, 36, 64
11, 359400, Note_on_c, 9, 36, 100
11, 359520, Note_off_c, 9, 40, 64
11, 359520, Note_off_c, 9, 53, 64
11, 359520, Note_off_c, 9, 36, 64
11, 359520, Note_on_c, 9, 36, 100
11, 359520, Note_on_c, 9, 40, 100
11, 359520, Note_on_c, 9, 53, 100
11, 359640, Note_off_c, 9, 36, 64
11, 359640, Note_on_c, 9, 36, 100
11, 359760, Note_off_c, 9, 53, 64
11, 359760, Note_off_c, 9, 36, 64
11, 359760, Note_on_c, 9, 36, 100
11, 359760, Note_on_c, 9, 53, 80
11, 359880, Note_off_c, 9, 36, 64
11, 359880, Note_on_c, 9, 36, 100
11, 360000, Note_off_c, 9, 40, 64
11, 360000, Note_off_c, 9, 53, 64
11, 360000, Note_off_c, 9, 36, 64
11, 360000, Note_on_c, 9, 36, 100
11, 360000, Note_on_c, 9, 40, 100
11, 360000, Note_on_c, 9, 57, 90
11, 360120, Note_off_c, 9, 36, 64
11, 360120, Note_on_c, 9, 36, 100
11, 360240, Note_off_c, 9, 57, 64
11, 360240, Note_off_c, 9, 36, 64
11, 360240, Note_on_c, 9, 36, 100
11, 360240, Note_on_c, 9, 53, 100
11, 360360, Note_off_c, 9, 36, 64
11, 360360, Note_on_c, 9, 36, 100
11, 360480, Note_off_c, 9, 40, 64
11, 360480, Note_off_c, 9, 53, 64
11, 360480, Note_off_c, 9, 36, 64
11, 360480, Note_on_c, 9, 36, 100
11, 360480, Note_on_c, 9, 40, 100
11, 360480, Note_on_c, 9, 57, 90
11, 360600, Note_off_c, 9, 36, 64
11, 360600, Note_on_c, 9, 36, 100
11, 360720, Note_off_c, 9, 57, 64
11, 360720, Note_off_c, 9, 36, 64
11, 360720, Note_on_c, 9, 36, 100
11, 360720, Note_on_c, 9, 53, 100
11, 360840, Note_off_c, 9, 36, 64
11, 360840, Note_on_c, 9, 36, 100
11, 360960, Note_off_c, 9, 40, 64
11, 360960, Note_off_c, 9, 53, 64
11, 360960, Note_off_c, 9, 36, 64
11, 360960, Note_on_c, 9, 36, 100
11, 360960, Note_on_c, 9, 40, 100
11, 360960, Note_on_c, 9, 57, 90
11, 361080, Note_off_c, 9, 36, 64
11, 361080, Note_on_c, 9, 36, 100
11, 361200, Note_off_c, 9, 57, 64
11, 361200, Note_off_c, 9, 36, 64
11, 361200, Note_on_c, 9, 36, 100
11, 361200, Note_on_c, 9, 53, 100
11, 361320, Note_off_c, 9, 36, 64
11, 361320, Note_on_c, 9, 36, 100
11, 361440, Note_off_c, 9, 40, 64
11, 361440, Note_off_c, 9, 53, 64
11, 361440, Note_off_c, 9, 36, 64
11, 361440, Note_on_c, 9, 36, 100
11, 361440, Note_on_c, 9, 40, 100
11, 361440, Note_on_c, 9, 57, 90
11, 361560, Note_off_c, 9, 36, 64
11, 361560, Note_on_c, 9, 36, 100
11, 361680, Note_off_c, 9, 57, 64
11, 361680, Note_off_c, 9, 36, 64
11, 361680, Note_on_c, 9, 36, 100
11, 361680, Note_on_c, 9, 53, 100
11, 361800, Note_off_c, 9, 36, 64
11, 361800, Note_on_c, 9, 36, 100
11, 361920, Note_off_c, 9, 40, 64
11, 361920, Note_off_c, 9, 53, 64
11, 361920, Note_off_c, 9, 36, 64
11, 361920, Note_on_c, 9, 49, 100
11, 361920, Note_on_c, 9, 36, 100
11, 362040, Note_off_c, 9, 36, 64
11, 362040, Note_on_c, 9, 36, 100
11, 362160, Note_off_c, 9, 36, 64
11, 362160, Note_on_c, 9, 36, 100
11, 362160, Note_on_c, 9, 53, 80
11, 362280, Note_off_c, 9, 36, 64
11, 362280, Note_on_c, 9, 36, 100
11, 362400, Note_off_c, 9, 49, 64
11, 362400, Note_off_c, 9, 53, 64
11, 362400, Note_off_c, 9, 36, 64
11, 362400, Note_on_c, 9, 36, 100
11, 362400, Note_on_c, 9, 40, 100
11, 362400, Note_on_c, 9, 53, 100
11, 362520, Note_off_c, 9, 36, 64
11, 362520, Note_on_c, 9, 36, 100
11, 362640, Note_off_c, 9, 53, 64
11, 362640, Note_off_c, 9, 36, 64
11, 362640, Note_on_c, 9, 36, 100
11, 362640, Note_on_c, 9, 53, 80
11, 362760, Note_off_c, 9, 36, 64
11, 362760, Note_on_c, 9, 36, 100
11, 362880, Note_off_c, 9, 40, 64
11, 362880, Note_off_c, 9, 53, 64
11, 362880, Note_off_c, 9, 36, 64
11, 362880, Note_on_c, 9, 36, 100
11, 362880, Note_on_c, 9, 40, 100
11, 362880, Note_on_c, 9, 53, 100
11, 363000, Note_off_c, 9, 36, 64
11, 363000, Note_on_c, 9, 36, 100
11, 363120, Note_off_c, 9, 53, 64
11, 363120, Note_off_c, 9, 36, 64
11, 363120, Note_on_c, 9, 36, 100
11, 363120, Note_on_c, 9, 53, 80
11, 363240, Note_off_c, 9, 36, 64
11, 363240, Note_on_c, 9, 36, 100
11, 363360, Note_off_c, 9, 40, 64
11, 363360, Note_off_c, 9, 53, 64
11, 363360, Note_off_c, 9, 36, 64
11, 363360, Note_on_c, 9, 36, 100
11, 363360, Note_on_c, 9, 40, 100
11, 363360, Note_on_c, 9, 53, 100
11, 363480, Note_off_c, 9, 36, 64
11, 363480, Note_on_c, 9, 36, 100
11, 363600, Note_off_c, 9, 53, 64
11, 363600, Note_off_c, 9, 36, 64
11, 363600, Note_on_c, 9, 36, 100
11, 363600, Note_on_c, 9, 53, 80
11, 363720, Note_off_c, 9, 36, 64
11, 363720, Note_on_c, 9, 36, 100
11, 363840, Note_off_c, 9, 40, 64
11, 363840, Note_off_c, 9, 53, 64
11, 363840, Note_off_c, 9, 36, 64
11, 363840, Note_on_c, 9, 36, 100
11, 363840, Note_on_c, 9, 40, 100
11, 363840, Note_on_c, 9, 57, 80
11, 363960, Note_off_c, 9, 36, 64
11, 363960, Note_on_c, 9, 36, 100
11, 364080, Note_off_c, 9, 57, 64
11, 364080, Note_off_c, 9, 36, 64
11, 364080, Note_on_c, 9, 36, 100
11, 364080, Note_on_c, 9, 53, 100
11, 364200, Note_off_c, 9, 36, 64
11, 364200, Note_on_c, 9, 36, 100
11, 364320, Note_off_c, 9, 40, 64
11, 364320, Note_off_c, 9, 53, 64
11, 364320, Note_off_c, 9, 36, 64
11, 364320, Note_on_c, 9, 36, 100
11, 364320, Note_on_c, 9, 40, 100
11, 364320, Note_on_c, 9, 57, 90
11, 364440, Note_off_c, 9, 36, 64
11, 364440, Note_on_c, 9, 36, 100
11, 364560, Note_off_c, 9, 57, 64
11, 364560, Note_off_c, 9, 36, 64
11, 364560, Note_on_c, 9, 36, 100
11, 364560, Note_on_c, 9, 53, 100
11, 364680, Note_off_c, 9, 36, 64
11, 364680, Note_on_c, 9, 36, 100
11, 364800, Note_off_c, 9, 40, 64
11, 364800, Note_off_c, 9, 53, 64
11, 364800, Note_off_c, 9, 36, 64
11, 364800, Note_on_c, 9, 36, 100
11, 364800, Note_on_c, 9, 40, 100
11, 364800, Note_on_c, 9, 57, 90
11, 364920, Note_off_c, 9, 36, 64
11, 364920, Note_on_c, 9, 36, 100
11, 365040, Note_off_c, 9, 57, 64
11, 365040, Note_off_c, 9, 36, 64
11, 365040, Note_on_c, 9, 36, 100
11, 365040, Note_on_c, 9, 53, 100
11, 365160, Note_off_c, 9, 36, 64
11, 365160, Note_on_c, 9, 36, 100
11, 365280, Note_off_c, 9, 40, 64
11, 365280, Note_off_c, 9, 53, 64
11, 365280, Note_off_c, 9, 36, 64
11, 365280, Note_on_c, 9, 36, 100
11, 365280, Note_on_c, 9, 40, 100
11, 365280, Note_on_c, 9, 57, 90
11, 365400, Note_off_c, 9, 36, 64
11, 365400, Note_on_c, 9, 36, 100
11, 365520, Note_off_c, 9, 57, 64
11, 365520, Note_off_c, 9, 36, 64
11, 365520, Note_on_c, 9, 36, 100
11, 365520, Note_on_c, 9, 53, 100
11, 365640, Note_off_c, 9, 36, 64
11, 365640, Note_on_c, 9, 36, 100
11, 365760, Note_off_c, 9, 40, 64
11, 365760, Note_off_c, 9, 53, 64
11, 365760, Note_off_c, 9, 36, 64
11, 365760, Note_on_c, 9, 36, 100
11, 365760, Note_on_c, 9, 49, 100
11, 365880, Note_off_c, 9, 36, 64
11, 365880, Note_on_c, 9, 36, 100
11, 366000, Note_off_c, 9, 36, 64
11, 366000, Note_on_c, 9, 36, 100
11, 366000, Note_on_c, 9, 53, 80
11, 366120, Note_off_c, 9, 36, 64
11, 366120, Note_on_c, 9, 36, 100
11, 366240, Note_off_c, 9, 49, 64
11, 366240, Note_off_c, 9, 53, 64
11, 366240, Note_off_c, 9, 36, 64
11, 366240, Note_on_c, 9, 36, 100
11, 366240, Note_on_c, 9, 40, 100
11, 366240, Note_on_c, 9, 53, 100
11, 366360, Note_off_c, 9, 36, 64
11, 366360, Note_on_c, 9, 36, 100
11, 366480, Note_off_c, 9, 53, 64
11, 366480, Note_off_c, 9, 36, 64
11, 366480, Note_on_c, 9, 36, 100
11, 366480, Note_on_c, 9, 53, 80
11, 366600, Note_off_c, 9, 36, 64
11, 366600, Note_on_c, 9, 36, 100
11, 366720, Note_off_c, 9, 40, 64
11, 366720, Note_off_c, 9, 53, 64
11, 366720, Note_off_c, 9, 36, 64
11, 366720, Note_on_c, 9, 36, 100
11, 366720, Note_on_c, 9, 40, 100
11, 366720, Note_on_c, 9, 53, 100
11, 366840, Note_off_c, 9, 36, 64
11, 366840, Note_on_c, 9, 36, 100
11, 366960, Note_off_c, 9, 53, 64
11, 366960, Note_off_c, 9, 36, 64
11, 366960, Note_on_c, 9, 36, 100
11, 366960, Note_on_c, 9, 53, 80
11, 367080, Note_off_c, 9, 36, 64
11, 367080, Note_on_c, 9, 36, 100
11, 367200, Note_off_c, 9, 40, 64
11, 367200, Note_off_c, 9, 53, 64
11, 367200, Note_off_c, 9, 36, 64
11, 367200, Note_on_c, 9, 36, 100
11, 367200, Note_on_c, 9, 40, 100
11, 367200, Note_on_c, 9, 53, 100
11, 367320, Note_off_c, 9, 36, 64
11, 367320, Note_on_c, 9, 36, 100
11, 367440, Note_off_c, 9, 53, 64
11, 367440, Note_off_c, 9, 36, 64
11, 367440, Note_on_c, 9, 36, 100
11, 367440, Note_on_c, 9, 53, 80
11, 367560, Note_off_c, 9, 36, 64
11, 367560, Note_on_c, 9, 36, 100
11, 367680, Note_off_c, 9, 40, 64
11, 367680, Note_off_c, 9, 53, 64
11, 367680, Note_off_c, 9, 36, 64
11, 367680, Note_on_c, 9, 36, 100
11, 367680, Note_on_c, 9, 40, 100
11, 367680, Note_on_c, 9, 57, 80
11, 367800, Note_off_c, 9, 36, 64
11, 367800, Note_on_c, 9, 36, 100
11, 367920, Note_off_c, 9, 57, 64
11, 367920, Note_off_c, 9, 36, 64
11, 367920, Note_on_c, 9, 36, 100
11, 367920, Note_on_c, 9, 53, 100
11, 368040, Note_off_c, 9, 36, 64
11, 368040, Note_on_c, 9, 36, 100
11, 368160, Note_off_c, 9, 40, 64
11, 368160, Note_off_c, 9, 53, 64
11, 368160, Note_off_c, 9, 36, 64
11, 368160, Note_on_c, 9, 36, 100
11, 368160, Note_on_c, 9, 40, 100
11, 368160, Note_on_c, 9, 57, 90
11, 368280, Note_off_c, 9, 36, 64
11, 368280, Note_on_c, 9, 36, 100
11, 368400, Note_off_c, 9, 57, 64
11, 368400, Note_off_c, 9, 36, 64
11, 368400, Note_on_c, 9, 36, 100
11, 368400, Note_on_c, 9, 53, 100
11, 368520, Note_off_c, 9, 36, 64
11, 368520, Note_on_c, 9, 36, 100
11, 368640, Note_off_c, 9, 40, 64
11, 368640, Note_off_c, 9, 53, 64
11, 368640, Note_off_c, 9, 36, 64
11, 368640, Note_on_c, 9, 36, 100
11, 368640, Note_on_c, 9, 40, 100
11, 368640, Note_on_c, 9, 57, 90
11, 368760, Note_off_c, 9, 36, 64
11, 368760, Note_on_c, 9, 36, 100
11, 368880, Note_off_c, 9, 57, 64
11, 368880, Note_off_c, 9, 36, 64
11, 368880, Note_on_c, 9, 36, 100
11, 368880, Note_on_c, 9, 53, 100
11, 369000, Note_off_c, 9, 36, 64
11, 369000, Note_on_c, 9, 36, 100
11, 369120, Note_off_c, 9, 40, 64
11, 369120, Note_off_c, 9, 53, 64
11, 369120, Note_off_c, 9, 36, 64
11, 369120, Note_on_c, 9, 36, 100
11, 369120, Note_on_c, 9, 40, 100
11, 369120, Note_on_c, 9, 57, 90
11, 369240, Note_off_c, 9, 36, 64
11, 369240, Note_on_c, 9, 36, 100
11, 369360, Note_off_c, 9, 57, 64
11, 369360, Note_off_c, 9, 36, 64
11, 369360, Note_on_c, 9, 36, 100
11, 369360, Note_on_c, 9, 53, 100
11, 369480, Note_off_c, 9, 36, 64
11, 369480, Note_on_c, 9, 36, 100
11, 369600, Note_off_c, 9, 40, 64
11, 369600, Note_off_c, 9, 53, 64
11, 369600, Note_off_c, 9, 36, 64
11, 369600, Note_on_c, 9, 57, 80
11, 369600, Note_on_c, 9, 40, 100
11, 369600, Note_on_c, 9, 36, 100
11, 369720, Note_off_c, 9, 36, 64
11, 369720, Note_on_c, 9, 36, 100
11, 369840, Note_off_c, 9, 57, 64
11, 369840, Note_off_c, 9, 36, 64
11, 369840, Note_on_c, 9, 36, 100
11, 369840, Note_on_c, 9, 53, 100
11, 369960, Note_off_c, 9, 36, 64
11, 369960, Note_on_c, 9, 36, 100
11, 370080, Note_off_c, 9, 40, 64
11, 370080, Note_off_c, 9, 53, 64
11, 370080, Note_off_c, 9, 36, 64
11, 370080, Note_on_c, 9, 36, 100
11, 370080, Note_on_c, 9, 40, 100
11, 370080, Note_on_c, 9, 57, 90
11, 370200, Note_off_c, 9, 36, 64
11, 370200, Note_on_c, 9, 36, 100
11, 370320, Note_off_c, 9, 57, 64
11, 370320, Note_off_c, 9, 36, 64
11, 370320, Note_on_c, 9, 36, 100
11, 370320, Note_on_c, 9, 53, 100
11, 370440, Note_off_c, 9, 36, 64
11, 370440, Note_on_c, 9, 36, 100
11, 370560, Note_off_c, 9, 40, 64
11, 370560, Note_off_c, 9, 53, 64
11, 370560, Note_off_c, 9, 36, 64
11, 370560, Note_on_c, 9, 36, 100
11, 370560, Note_on_c, 9, 40, 100
11, 370560, Note_on_c, 9, 57, 90
11, 370680, Note_off_c, 9, 36, 64
11, 370680, Note_on_c, 9, 36, 100
11, 370800, Note_off_c, 9, 57, 64
11, 370800, Note_off_c, 9, 36, 64
11, 370800, Note_on_c, 9, 36, 100
11, 370800, Note_on_c, 9, 53, 100
11, 370920, Note_off_c, 9, 36, 64
11, 370920, Note_on_c, 9, 36, 100
11, 371040, Note_off_c, 9, 40, 64
11, 371040, Note_off_c, 9, 53, 64
11, 371040, Note_off_c, 9, 36, 64
11, 371040, Note_on_c, 9, 36, 100
11, 371040, Note_on_c, 9, 40, 100
11, 371040, Note_on_c, 9, 57, 90
11, 371160, Note_off_c, 9, 36, 64
11, 371160, Note_on_c, 9, 36, 100
11, 371280, Note_off_c, 9, 57, 64
11, 371280, Note_off_c, 9, 36, 64
11, 371280, Note_on_c, 9, 36, 100
11, 371280, Note_on_c, 9, 53, 100
11, 371400, Note_off_c, 9, 36, 64
11, 371400, Note_on_c, 9, 36, 100
11, 371520, Note_off_c, 9, 40, 64
11, 371520, Note_off_c, 9, 53, 64
11, 371520, Note_off_c, 9, 36, 64
11, 371520, Note_on_c, 9, 57, 80
11, 371520, Note_on_c, 9, 40, 100
11, 371520, Note_on_c, 9, 36, 100
11, 371640, Note_off_c, 9, 36, 64
11, 371640, Note_on_c, 9, 36, 100
11, 371760, Note_off_c, 9, 57, 64
11, 371760, Note_off_c, 9, 36, 64
11, 371760, Note_on_c, 9, 36, 100
11, 371760, Note_on_c, 9, 53, 100
11, 371880, Note_off_c, 9, 36, 64
11, 371880, Note_on_c, 9, 36, 100
11, 372000, Note_off_c, 9, 40, 64
11, 372000, Note_off_c, 9, 53, 64
11, 372000, Note_off_c, 9, 36, 64
11, 372000, Note_on_c, 9, 36, 100
11, 372000, Note_on_c, 9, 40, 100
11, 372120, Note_off_c, 9, 40, 64
11, 372120, Note_off_c, 9, 36, 64
11, 372120, Note_on_c, 9, 36, 100
11, 372120, Note_on_c, 9, 40, 100
11, 372240, Note_off_c, 9, 40, 64
11, 372240, Note_off_c, 9, 36, 64
11, 372240, Note_on_c, 9, 36, 100
11, 372240, Note_on_c, 9, 40, 100
11, 372360, Note_off_c, 9, 40, 64
11, 372360, Note_off_c, 9, 36, 64
11, 372360, Note_on_c, 9, 36, 100
11, 372360, Note_on_c, 9, 40, 100
11, 372480, Note_off_c, 9, 40, 64
11, 372480, Note_off_c, 9, 36, 64
11, 372480, Note_on_c, 9, 36, 100
11, 372480, Note_on_c, 9, 49, 100
11, 372600, Note_off_c, 9, 36, 64
11, 372600, Note_on_c, 9, 36, 100
11, 372713, Note_off_c, 9, 49, 64
11, 372720, Note_off_c, 9, 36, 64
11, 372720, Note_on_c, 9, 36, 100
11, 372720, Note_on_c, 9, 40, 100
11, 372840, Note_off_c, 9, 40, 64
11, 372840, Note_off_c, 9, 36, 64
11, 372840, Note_on_c, 9, 36, 100
11, 372840, Note_on_c, 9, 40, 100
11, 372960, Note_off_c, 9, 40, 64
11, 372960, Note_off_c, 9, 36, 64
11, 372960, Note_on_c, 9, 36, 100
11, 372960, Note_on_c, 9, 40, 100
11, 373080, Note_off_c, 9, 40, 64
11, 373080, Note_off_c, 9, 36, 64
11, 373080, Note_on_c, 9, 36, 100
11, 373080, Note_on_c, 9, 40, 100
11, 373200, Note_off_c, 9, 40, 64
11, 373200, Note_off_c, 9, 36, 64
11, 373200, Note_on_c, 9, 36, 100
11, 373200, Note_on_c, 9, 49, 100
11, 373320, Note_off_c, 9, 36, 64
11, 373320, Note_on_c, 9, 36, 100
11, 373440, Note_off_c, 9, 49, 64
11, 373440, Note_off_c, 9, 36, 64
11, 373440, Note_on_c, 9, 49, 100
11, 373440, Note_on_c, 9, 36, 100
11, 373440, Note_on_c, 9, 40, 100
11, 373560, Note_off_c, 9, 36, 64
11, 373560, Note_on_c, 9, 36, 100
11, 373680, Note_off_c, 9, 36, 64
11, 373680, Note_on_c, 9, 36, 100
11, 373800, Note_off_c, 9, 36, 64
11, 373800, Note_on_c, 9, 36, 100
11, 373920, Note_off_c, 9, 49, 64
11, 373920, Note_off_c, 9, 40, 64
11, 373920, Note_off_c, 9, 36, 64
11, 373920, Note_on_c, 9, 36, 100
11, 373920, Note_on_c, 9, 40, 100
11, 373920, Note_on_c, 9, 46, 100
11, 374040, Note_off_c, 9, 36, 64
11, 374040, Note_on_c, 9, 36, 100
11, 374160, Note_off_c, 9, 36, 64
11, 374160, Note_on_c, 9, 36, 100
11, 374280, Note_off_c, 9, 36, 64
11, 374280, Note_on_c, 9, 36, 100
11, 374400, Note_off_c, 9, 40, 64
11, 374400, Note_off_c, 9, 46, 64
11, 374400, Note_off_c, 9, 36, 64
11, 374400, Note_on_c, 9, 36, 100
11, 374400, Note_on_c, 9, 40, 100
11, 374400, Note_on_c, 9, 46, 100
11, 374520, Note_off_c, 9, 36, 64
11, 374520, Note_on_c, 9, 36, 100
11, 374633, Note_off_c, 9, 46, 64
11, 374640, Note_off_c, 9, 36, 64
11, 374640, Note_on_c, 9, 36, 100
11, 374640, Note_on_c, 9, 46, 70
11, 374760, Note_off_c, 9, 36, 64
11, 374760, Note_on_c, 9, 36, 100
11, 374880, Note_off_c, 9, 40, 64
11, 374880, Note_off_c, 9, 46, 64
11, 374880, Note_off_c, 9, 36, 64
11, 374880, Note_on_c, 9, 36, 100
11, 374880, Note_on_c, 9, 40, 100
11, 374880, Note_on_c, 9, 46, 100
11, 375000, Note_off_c, 9, 36, 64
11, 375000, Note_on_c, 9, 36, 100
11, 375120, Note_off_c, 9, 36, 64
11, 375120, Note_on_c, 9, 36, 100
11, 375240, Note_off_c, 9, 36, 64
11, 375240, Note_on_c, 9, 36, 100
11, 375360, Note_off_c, 9, 40, 64
11, 375360, Note_off_c, 9, 46, 64
11, 375360, Note_off_c, 9, 36, 64
11, 375360, Note_on_c, 9, 36, 100
11, 375360, Note_on_c, 9, 40, 100
11, 375360, Note_on_c, 9, 57, 100
11, 375480, Note_off_c, 9, 36, 64
11, 375480, Note_on_c, 9, 36, 100
11, 375600, Note_off_c, 9, 36, 64
11, 375600, Note_on_c, 9, 36, 100
11, 375720, Note_off_c, 9, 36, 64
11, 375720, Note_on_c, 9, 36, 100
11, 375840, Note_off_c, 9, 40, 64
11, 375840, Note_off_c, 9, 57, 64
11, 375840, Note_off_c, 9, 36, 64
11, 375840, Note_on_c, 9, 36, 100
11, 375840, Note_on_c, 9, 40, 100
11, 375840, Note_on_c, 9, 46, 100
11, 375960, Note_off_c, 9, 36, 64
11, 375960, Note_on_c, 9, 36, 100
11, 376073, Note_off_c, 9, 46, 64
11, 376080, Note_off_c, 9, 36, 64
11, 376080, Note_on_c, 9, 36, 100
11, 376080, Note_on_c, 9, 46, 70
11, 376200, Note_off_c, 9, 36, 64
11, 376200, Note_on_c, 9, 36, 100
11, 376320, Note_off_c, 9, 40, 64
11, 376320, Note_off_c, 9, 46, 64
11, 376320, Note_off_c, 9, 36, 64
11, 376320, Note_on_c, 9, 36, 100
11, 376320, Note_on_c, 9, 40, 100
11, 376320, Note_on_c, 9, 46, 100
11, 376440, Note_off_c, 9, 36, 64
11, 376440, Note_on_c, 9, 36, 100
11, 376560, Note_off_c, 9, 46, 64
11, 376560, Note_off_c, 9, 36, 64
11, 376560, Note_on_c, 9, 36, 100
11, 376560, Note_on_c, 9, 46, 80
11, 376680, Note_off_c, 9, 36, 64
11, 376680, Note_on_c, 9, 36, 100
11, 376800, Note_off_c, 9, 40, 64
11, 376800, Note_off_c, 9, 46, 64
11, 376800, Note_off_c, 9, 36, 64
11, 376800, Note_on_c, 9, 36, 100
11, 376800, Note_on_c, 9, 40, 100
11, 376920, Note_off_c, 9, 40, 64
11, 376920, Note_off_c, 9, 36, 64
11, 376920, Note_on_c, 9, 36, 100
11, 376920, Note_on_c, 9, 40, 100
11, 377040, Note_off_c, 9, 40, 64
11, 377040, Note_off_c, 9, 36, 64
11, 377040, Note_on_c, 9, 36, 100
11, 377040, Note_on_c, 9, 46, 80
11, 377160, Note_off_c, 9, 36, 64
11, 377160, Note_on_c, 9, 36, 100
11, 377280, Note_off_c, 9, 46, 64
11, 377280, Note_off_c, 9, 36, 64
11, 377280, Note_on_c, 9, 57, 100
11, 377280, Note_on_c, 9, 40, 100
11, 377280, Note_on_c, 9, 36, 100
11, 377400, Note_off_c, 9, 36, 64
11, 377400, Note_on_c, 9, 36, 100
11, 377520, Note_off_c, 9, 36, 64
11, 377520, Note_on_c, 9, 36, 100
11, 377640, Note_off_c, 9, 36, 64
11, 377640, Note_on_c, 9, 36, 100
11, 377760, Note_off_c, 9, 40, 64
11, 377760, Note_off_c, 9, 57, 64
11, 377760, Note_off_c, 9, 36, 64
11, 377760, Note_on_c, 9, 36, 100
11, 377760, Note_on_c, 9, 40, 100
11, 377760, Note_on_c, 9, 46, 100
11, 377880, Note_off_c, 9, 36, 64
11, 377880, Note_on_c, 9, 36, 100
11, 377993, Note_off_c, 9, 46, 64
11, 378000, Note_off_c, 9, 36, 64
11, 378000, Note_on_c, 9, 36, 100
11, 378000, Note_on_c, 9, 46, 60
11, 378120, Note_off_c, 9, 36, 64
11, 378120, Note_on_c, 9, 36, 100
11, 378240, Note_off_c, 9, 40, 64
11, 378240, Note_off_c, 9, 46, 64
11, 378240, Note_off_c, 9, 36, 64
11, 378240, Note_on_c, 9, 36, 100
11, 378240, Note_on_c, 9, 40, 100
11, 378240, Note_on_c, 9, 46, 100
11, 378360, Note_off_c, 9, 36, 64
11, 378360, Note_on_c, 9, 36, 100
11, 378480, Note_off_c, 9, 46, 64
11, 378480, Note_off_c, 9, 36, 64
11, 378480, Note_on_c, 9, 36, 100
11, 378480, Note_on_c, 9, 46, 80
11, 378600, Note_off_c, 9, 36, 64
11, 378600, Note_on_c, 9, 36, 100
11, 378720, Note_off_c, 9, 40, 64
11, 378720, Note_off_c, 9, 46, 64
11, 378720, Note_off_c, 9, 36, 64
11, 378720, Note_on_c, 9, 36, 100
11, 378720, Note_on_c, 9, 40, 100
11, 378840, Note_off_c, 9, 40, 64
11, 378840, Note_off_c, 9, 36, 64
11, 378840, Note_on_c, 9, 36, 100
11, 378840, Note_on_c, 9, 40, 100
11, 378960, Note_off_c, 9, 40, 64
11, 378960, Note_off_c, 9, 36, 64
11, 378960, Note_on_c, 9, 36, 100
11, 378960, Note_on_c, 9, 46, 80
11, 379080, Note_off_c, 9, 36, 64
11, 379080, Note_on_c, 9, 36, 100
11, 379200, Note_off_c, 9, 46, 64
11, 379200, Note_off_c, 9, 36, 64
11, 379200, Note_on_c, 9, 40, 100
11, 379200, Note_on_c, 9, 36, 100
11, 379320, Note_off_c, 9, 36, 64
11, 379320, Note_off_c, 9, 40, 64
11, 379320, Note_on_c, 9, 36, 100
11, 379320, Note_on_c, 9, 40, 100
11, 379440, Note_off_c, 9, 40, 64
11, 379440, Note_off_c, 9, 36, 64
11, 379440, Note_on_c, 9, 36, 100
11, 379440, Note_on_c, 9, 46, 80
11, 379560, Note_off_c, 9, 36, 64
11, 379560, Note_on_c, 9, 36, 100
11, 379680, Note_off_c, 9, 46, 64
11, 379680, Note_off_c, 9, 36, 64
11, 379680, Note_on_c, 9, 36, 100
11, 379680, Note_on_c, 9, 40, 100
11, 379800, Note_off_c, 9, 40, 64
11, 379800, Note_off_c, 9, 36, 64
11, 379800, Note_on_c, 9, 36, 100
11, 379800, Note_on_c, 9, 40, 100
11, 379920, Note_off_c, 9, 40, 64
11, 379920, Note_off_c, 9, 36, 64
11, 379920, Note_on_c, 9, 36, 100
11, 379920, Note_on_c, 9, 40, 100
11, 380040, Note_off_c, 9, 40, 64
11, 380040, Note_off_c, 9, 36, 64
11, 380040, Note_on_c, 9, 36, 100
11, 380040, Note_on_c, 9, 40, 100
11, 380160, Note_off_c, 9, 40, 64
11, 380160, Note_off_c, 9, 36, 64
11, 380160, Note_on_c, 9, 36, 100
11, 380160, Note_on_c, 9, 48, 100
11, 380280, Note_off_c, 9, 36, 64
11, 380280, Note_on_c, 9, 36, 100
11, 380393, Note_off_c, 9, 48, 64
11, 380400, Note_off_c, 9, 36, 64
11, 380400, Note_on_c, 9, 36, 100
11, 380400, Note_on_c, 9, 40, 100
11, 380520, Note_off_c, 9, 40, 64
11, 380520, Note_off_c, 9, 36, 64
11, 380520, Note_on_c, 9, 36, 100
11, 380520, Note_on_c, 9, 40, 100
11, 380640, Note_off_c, 9, 40, 64
11, 380640, Note_off_c, 9, 36, 64
11, 380640, Note_on_c, 9, 36, 100
11, 380640, Note_on_c, 9, 46, 100
11, 380760, Note_off_c, 9, 36, 64
11, 380760, Note_on_c, 9, 36, 100
11, 380873, Note_off_c, 9, 46, 64
11, 380880, Note_off_c, 9, 36, 64
11, 380880, Note_on_c, 9, 36, 100
11, 380880, Note_on_c, 9, 40, 100
11, 381000, Note_off_c, 9, 40, 64
11, 381000, Note_off_c, 9, 36, 64
11, 381000, Note_on_c, 9, 36, 100
11, 381000, Note_on_c, 9, 40, 100
11, 381120, Note_off_c, 9, 36, 64
11, 381120, Note_on_c, 9, 36, 100
11, 381120, Note_on_c, 9, 40, 100
11, 381120, Note_on_c, 9, 57, 100
11, 381130, Note_off_c, 9, 40, 64
11, 381240, Note_off_c, 9, 36, 64
11, 381240, Note_on_c, 9, 36, 100
11, 381360, Note_off_c, 9, 36, 64
11, 381360, Note_on_c, 9, 36, 100
11, 381480, Note_off_c, 9, 36, 64
11, 381480, Note_on_c, 9, 36, 100
11, 381600, Note_off_c, 9, 40, 64
11, 381600, Note_off_c, 9, 57, 64
11, 381600, Note_off_c, 9, 36, 64
11, 381600, Note_on_c, 9, 36, 100
11, 381600, Note_on_c, 9, 40, 100
11, 381600, Note_on_c, 9, 46, 100
11, 381720, Note_off_c, 9, 36, 64
11, 381720, Note_on_c, 9, 36, 100
11, 381833, Note_off_c, 9, 46, 64
11, 381840, Note_off_c, 9, 36, 64
11, 381840, Note_on_c, 9, 36, 100
11, 381840, Note_on_c, 9, 46, 60
11, 381960, Note_off_c, 9, 36, 64
11, 381960, Note_on_c, 9, 36, 100
11, 382080, Note_off_c, 9, 40, 64
11, 382080, Note_off_c, 9, 46, 64
11, 382080, Note_off_c, 9, 36, 64
11, 382080, Note_on_c, 9, 36, 100
11, 382080, Note_on_c, 9, 40, 100
11, 382080, Note_on_c, 9, 46, 100
11, 382200, Note_off_c, 9, 36, 64
11, 382200, Note_on_c, 9, 36, 100
11, 382320, Note_off_c, 9, 46, 64
11, 382320, Note_off_c, 9, 36, 64
11, 382320, Note_on_c, 9, 36, 100
11, 382320, Note_on_c, 9, 46, 80
11, 382440, Note_off_c, 9, 36, 64
11, 382440, Note_on_c, 9, 36, 100
11, 382560, Note_off_c, 9, 40, 64
11, 382560, Note_off_c, 9, 46, 64
11, 382560, Note_off_c, 9, 36, 64
11, 382560, Note_on_c, 9, 36, 100
11, 382560, Note_on_c, 9, 40, 100
11, 382560, Note_on_c, 9, 46, 80
11, 382680, Note_off_c, 9, 40, 64
11, 382680, Note_off_c, 9, 36, 64
11, 382680, Note_on_c, 9, 36, 100
11, 382800, Note_off_c, 9, 46, 64
11, 382800, Note_off_c, 9, 36, 64
11, 382800, Note_on_c, 9, 36, 100
11, 382800, Note_on_c, 9, 49, 100
11, 383040, Note_off_c, 9, 49, 64
11, 383040, Note_off_c, 9, 36, 64
11, 383280, Note_on_c, 9, 40, 100
11, 383520, Note_off_c, 9, 40, 64
11, 383520, Note_on_c, 9, 40, 100
11, 383760, Note_off_c, 9, 40, 64
11, 383760, Note_on_c, 9, 36, 100
11, 383760, Note_on_c, 9, 57, 100
11, 384000, Note_off_c, 9, 57, 64
11, 384000, Note_off_c, 9, 36, 64
11, 384240, Note_on_c, 9, 40, 100
11, 384480, Note_off_c, 9, 40, 64
11, 384480, Note_on_c, 9, 40, 100
11, 384520, Note_off_c, 9, 40, 64
11, 384520, Note_on_c, 9, 40, 100
11, 384560, Note_off_c, 9, 40, 64
11, 384720, Note_on_c, 9, 36, 100
11, 384960, Note_off_c, 9, 36, 64
11, 384960, Note_on_c, 9, 49, 100
11, 384960, Note_on_c, 9, 36, 100
11, 385200, Note_off_c, 9, 36, 64
11, 385200, Note_off_c, 9, 49, 64
11, 385200, Note_on_c, 9, 40, 100
11, 385440, Note_off_c, 9, 40, 64
11, 385440, Note_on_c, 9, 40, 100
11, 385680, Note_off_c, 9, 40, 64
11, 385680, Note_on_c, 9, 36, 100
11, 385680, Note_on_c, 9, 57, 100
11, 385920, Note_off_c, 9, 57, 64
11, 385920, Note_off_c, 9, 36, 64
11, 386160, Note_on_c, 9, 36, 100
11, 386400, Note_off_c, 9, 36, 64
11, 386400, Note_on_c, 9, 40, 100
11, 386400, Note_on_c, 9, 46, 100
11, 386880, Note_off_c, 9, 46, 64
11, 386880, Note_off_c, 9, 40, 64
11, 386880, Note_on_c, 9, 40, 100
11, 386920, Note_off_c, 9, 40, 64
11, 386920, Note_on_c, 9, 40, 100
11, 386960, Note_off_c, 9, 40, 64
11, 387120, Note_on_c, 9, 36, 100
11, 387360, Note_off_c, 9, 36, 64
11, 387360, Note_on_c, 9, 36, 100
11, 387600, Note_off_c, 9, 36, 64
11, 387600, Note_on_c, 9, 36, 100
11, 387600, Note_on_c, 9, 49, 100
11, 387840, Note_off_c, 9, 49, 64
11, 387840, Note_off_c, 9, 36, 64
11, 388800, Note_on_c, 9, 46, 80
11, 389040, Note_off_c, 9, 46, 64
11, 389040, End_track
12, 0, Start_track
12, 0, Title_t, "Lead 2"
12, 0, MIDI_port, 0
12, 0, Channel_prefix, 10
12, 0, Control_c, 10, 7, 79
12, 0, Program_c, 10, 81
12, 288720, Note_on_c, 10, 64, 100
12, 288720, Pitch_bend_c, 10, 192
12, 288735, Pitch_bend_c, 10, 1192
12, 288750, Pitch_bend_c, 10, 2192
12, 288765, Pitch_bend_c, 10, 3192
12, 288780, Pitch_bend_c, 10, 4192
12, 288795, Pitch_bend_c, 10, 5192
12, 288810, Pitch_bend_c, 10, 6192
12, 288825, Pitch_bend_c, 10, 7192
12, 288840, Pitch_bend_c, 10, 8192
12, 288960, Note_off_c, 10, 64, 64
12, 288960, Note_on_c, 10, 69, 100
12, 289200, Note_off_c, 10, 69, 64
12, 289200, Note_on_c, 10, 64, 100
12, 289200, Pitch_bend_c, 10, 192
12, 289215, Pitch_bend_c, 10, 1192
12, 289230, Pitch_bend_c, 10, 2192
12, 289245, Pitch_bend_c, 10, 3192
12, 289260, Pitch_bend_c, 10, 4192
12, 289275, Pitch_bend_c, 10, 5192
12, 289290, Pitch_bend_c, 10, 6192
12, 289305, Pitch_bend_c, 10, 7192
12, 289320, Pitch_bend_c, 10, 8192
12, 289440, Note_off_c, 10, 64, 64
12, 289440, Note_on_c, 10, 62, 100
12, 289680, Note_off_c, 10, 62, 64
12, 289680, Note_on_c, 10, 60, 100
12, 289920, Note_off_c, 10, 60, 64
12, 289920, Note_on_c, 10, 64, 94
12, 290160, Pitch_bend_c, 10, 9192
12, 290175, Pitch_bend_c, 10, 10192
12, 290190, Pitch_bend_c, 10, 11192
12, 290205, Pitch_bend_c, 10, 12192
12, 290220, Pitch_bend_c, 10, 13192
12, 290235, Pitch_bend_c, 10, 14192
12, 290250, Pitch_bend_c, 10, 15192
12, 290265, Pitch_bend_c, 10, 16192
12, 291840, Note_off_c, 10, 64, 64
12, 291840, Note_on_c, 10, 64, 80
12, 291840, Pitch_bend_c, 10, 8192
12, 291960, Note_off_c, 10, 64, 64
12, 291960, Note_on_c, 10, 62, 80
12, 292080, Note_off_c, 10, 62, 64
12, 292080, Note_on_c, 10, 57, 82
12, 293040, Note_off_c, 10, 57, 64
12, 293040, Note_on_c, 10, 54, 83
12, 293040, Pitch_bend_c, 10, 192
12, 293055, Pitch_bend_c, 10, 1192
12, 293070, Pitch_bend_c, 10, 2192
12, 293085, Pitch_bend_c, 10, 3192
12, 293100, Pitch_bend_c, 10, 4192
12, 293115, Pitch_bend_c, 10, 5192
12, 293130, Pitch_bend_c, 10, 6192
12, 293145, Pitch_bend_c, 10, 7192
12, 293160, Pitch_bend_c, 10, 8192
12, 293280, Note_off_c, 10, 54, 64
12, 293280, Note_on_c, 10, 52, 83
12, 293520, Note_off_c, 10, 52, 64
12, 293520, Note_on_c, 10, 50, 83
12, 293760, Note_off_c, 10, 50, 64
12, 293760, Pitch_bend_c, 10, 9192
12, 293760, Note_on_c, 10, 52, 83
12, 293775, Pitch_bend_c, 10, 10192
12, 293790, Pitch_bend_c, 10, 11192
12, 293805, Pitch_bend_c, 10, 12192
12, 293820, Pitch_bend_c, 10, 13192
12, 293835, Pitch_bend_c, 10, 14192
12, 293850, Pitch_bend_c, 10, 15192
12, 293865, Pitch_bend_c, 10, 16192
12, 294240, Control_c, 10, 1, 127
12, 295680, Pitch_bend_c, 10, 15192
12, 295710, Pitch_bend_c, 10, 14192
12, 295740, Pitch_bend_c, 10, 13192
12, 295770, Pitch_bend_c, 10, 12192
12, 295800, Pitch_bend_c, 10, 11192
12, 295830, Pitch_bend_c, 10, 10192
12, 295860, Pitch_bend_c, 10, 9192
12, 295890, Pitch_bend_c, 10, 8192
12, 295920, Control_c, 10, 1, 0
12, 295927, Note_off_c, 10, 52, 64
12, 295927, End_track
13, 0, Start_track
13, 0, Title_t, "Aahs"
13, 0, MIDI_port, 0
13, 0, Channel_prefix, 11
13, 0, Control_c, 11, 7, 59
13, 0, Program_c, 11, 52
13, 282480, Note_on_c, 11, 54, 100
13, 282480, Note_on_c, 11, 66, 100
13, 282480, Note_on_c, 11, 61, 100
13, 283440, Note_on_c, 11, 69, 100
13, 284400, Note_off_c, 11, 69, 64
13, 284400, Note_off_c, 11, 61, 64
13, 284400, Note_off_c, 11, 66, 64
13, 284400, Note_off_c, 11, 54, 64
13, 284400, Note_on_c, 11, 68, 100
13, 284400, Note_on_c, 11, 64, 100
13, 284400, Note_on_c, 11, 59, 100
13, 284400, Note_on_c, 11, 76, 100
13, 286320, Note_off_c, 11, 76, 64
13, 286320, Note_off_c, 11, 59, 64
13, 286320, Note_off_c, 11, 64, 64
13, 286320, Note_off_c, 11, 68, 64
13, 286320, Note_on_c, 11, 64, 100
13, 286320, Note_on_c, 11, 69, 100
13, 286320, Note_on_c, 11, 76, 100
13, 290160, Note_off_c, 11, 76, 64
13, 290160, Note_off_c, 11, 69, 64
13, 290160, Note_off_c, 11, 64, 64
13, 290160, Note_on_c, 11, 62, 100
13, 290160, Note_on_c, 11, 57, 100
13, 290160, Note_on_c, 11, 69, 100
13, 291120, Note_off_c, 11, 69, 64
13, 291120, Note_on_c, 11, 66, 100
13, 292080, Note_off_c, 11, 66, 64
13, 292080, Note_on_c, 11, 64, 100
13, 293040, Note_off_c, 11, 64, 64
13, 293040, Note_on_c, 11, 69, 100
13, 294000, Note_off_c, 11, 57, 64
13, 294000, Note_off_c, 11, 62, 64
13, 294000, Note_off_c, 11, 69, 64
13, 294000, Note_on_c, 11, 66, 60
13, 294000, Note_on_c, 11, 59, 60
13, 294000, Note_on_c, 11, 54, 60
13, 297840, Note_off_c, 11, 54, 64
13, 297840, Note_off_c, 11, 59, 64
13, 297840, Note_off_c, 11, 66, 64
13, 297840, End_track
14, 0, Start_track
14, 0, Title_t, "Organ 2"
14, 0, MIDI_port, 0
14, 0, Channel_prefix, 12
14, 0, Control_c, 12, 7, 104
14, 0, Program_c, 12, 17
14, 32880, Note_on_c, 12, 91, 100
14, 32880, Note_on_c, 12, 88, 100
14, 33120, Note_off_c, 12, 88, 64
14, 33120, Note_off_c, 12, 91, 64
14, 33120, Note_on_c, 12, 74, 100
14, 33240, Note_off_c, 12, 74, 64
14, 33240, Note_on_c, 12, 79, 100
14, 33360, Note_off_c, 12, 79, 64
14, 33360, Note_on_c, 12, 77, 100
14, 33480, Note_off_c, 12, 77, 64
14, 33480, Note_on_c, 12, 81, 100
14, 33600, Note_off_c, 12, 81, 64
14, 33600, Note_on_c, 12, 72, 100
14, 33720, Note_off_c, 12, 72, 64
14, 33720, Note_on_c, 12, 77, 100
14, 33840, Note_off_c, 12, 77, 64
14, 33840, Note_on_c, 12, 74, 100
14, 33960, Note_off_c, 12, 74, 64
14, 33960, Note_on_c, 12, 79, 100
14, 34080, Note_off_c, 12, 79, 64
14, 34080, Note_on_c, 12, 72, 100
14, 34200, Note_off_c, 12, 72, 64
14, 34200, Note_on_c, 12, 74, 100
14, 34564, Note_off_c, 12, 74, 64
14, 36720, Note_on_c, 12, 91, 100
14, 36720, Note_on_c, 12, 86, 100
14, 36960, Note_off_c, 12, 86, 64
14, 36960, Note_off_c, 12, 91, 64
14, 36960, Note_on_c, 12, 89, 100
14, 36960, Note_on_c, 12, 86, 100
14, 37193, Note_off_c, 12, 86, 64
14, 37200, Note_off_c, 12, 89, 64
14, 37200, Note_on_c, 12, 88, 100
14, 37320, Note_off_c, 12, 88, 64
14, 37320, Note_on_c, 12, 89, 100
14, 37440, Note_off_c, 12, 89, 64
14, 37440, Note_on_c, 12, 86, 100
14, 37673, Note_off_c, 12, 86, 64
14, 37680, Note_on_c, 12, 88, 100
14, 37800, Note_off_c, 12, 88, 64
14, 37800, Note_on_c, 12, 89, 100
14, 37920, Note_off_c, 12, 89, 64
14, 37920, Note_on_c, 12, 91, 100
14, 38400, Note_off_c, 12, 91, 64
14, 40560, Note_on_c, 12, 79, 100
14, 40800, Note_off_c, 12, 79, 64
14, 40800, Note_on_c, 12, 79, 100
14, 40920, Note_off_c, 12, 79, 64
14, 40920, Note_on_c, 12, 91, 100
14, 41040, Note_off_c, 12, 91, 64
14, 41040, Note_on_c, 12, 89, 100
14, 41160, Note_off_c, 12, 89, 64
14, 41160, Note_on_c, 12, 84, 100
14, 41220, Note_off_c, 12, 84, 64
14, 41220, Note_on_c, 12, 79, 100
14, 41280, Note_off_c, 12, 79, 64
14, 41280, Note_on_c, 12, 77, 100
14, 41400, Note_off_c, 12, 77, 64
14, 41400, Note_on_c, 12, 72, 100
14, 41520, Note_off_c, 12, 72, 64
14, 41520, Note_on_c, 12, 72, 100
14, 41580, Note_off_c, 12, 72, 64
14, 41580, Note_on_c, 12, 76, 100
14, 41640, Note_off_c, 12, 76, 64
14, 41640, Note_on_c, 12, 79, 100
14, 41760, Note_off_c, 12, 79, 64
14, 41760, Note_on_c, 12, 84, 100
14, 41880, Note_off_c, 12, 84, 64
14, 41880, Note_on_c, 12, 86, 100
14, 41940, Note_off_c, 12, 86, 64
14, 41940, Note_on_c, 12, 88, 100
14, 42000, Note_off_c, 12, 88, 64
14, 42000, Note_on_c, 12, 86, 100
14, 43738, Note_off_c, 12, 86, 64
14, 43738, End_track
15, 0, Start_track
15, 0, Title_t, "Kindred Spirits"
15, 0, MIDI_port, 0
15, 0, End_track
16, 0, Start_track
16, 0, Title_t, "Liquid Tension Experiment"
16, 0, MIDI_port, 0
16, 0, End_track
17, 0, Start_track
17, 0, Title_t, "Midi by : Simon Novak"
17, 0, MIDI_port, 0
17, 0, End_track
18, 0, Start_track
18, 0, Title_t, "E:mail"
18, 0, MIDI_port, 0
18, 0, End_track
19, 0, Start_track
19, 0, Title_t, "ytse.jam@dreamtheater.zzn.com"
19, 0, MIDI_port, 0
19, 0, End_track
0, 0, End_of_file
