0, 0, Header, 1, 14, 192
1, 0, Start_track
1, 0, Tempo, 504201
1, 0, Time_signature, 4, 2, 24, 8
1, 0, Key_signature, 0, "major"
1, 0, End_track
2, 0, Start_track
2, 0, Title_t, "Bass    "
2, 0, Channel_prefix, 1
2, 0, Control_c, 1, 7, 127
2, 0, Control_c, 1, 10, 64
2, 0, Program_c, 1, 0
2, 193, Control_c, 1, 121, 0
2, 196, Control_c, 1, 7, 93
2, 197, Control_c, 1, 10, 64
2, 198, Control_c, 1, 11, 127
2, 199, Control_c, 1, 91, 12
2, 200, Control_c, 1, 93, 58
2, 240, Pitch_bend_c, 1, 8192
2, 247, Control_c, 1, 0, 0
2, 297, Program_c, 1, 35
2, 384, Control_c, 1, 99, 1
2, 392, Control_c, 1, 98, 32
2, 400, Control_c, 1, 6, 58
2, 624, Control_c, 1, 99, 1
2, 632, Control_c, 1, 98, 33
2, 640, Control_c, 1, 6, 82
2, 1536, Note_on_c, 1, 43, 102
2, 1624, Note_off_c, 1, 43, 64
2, 1632, Note_on_c, 1, 38, 86
2, 1728, Note_on_c, 1, 41, 98
2, 1729, Note_off_c, 1, 38, 64
2, 1820, Note_off_c, 1, 41, 64
2, 1824, Note_on_c, 1, 46, 102
2, 2004, Note_off_c, 1, 46, 64
2, 2016, Note_on_c, 1, 41, 102
2, 2112, Note_on_c, 1, 43, 98
2, 2113, Note_off_c, 1, 41, 64
2, 2203, Note_off_c, 1, 43, 64
2, 2208, Note_on_c, 1, 36, 106
2, 2291, Note_off_c, 1, 36, 64
2, 2880, Note_on_c, 1, 36, 106
2, 2957, Note_off_c, 1, 36, 64
2, 3072, Note_on_c, 1, 43, 106
2, 3145, Note_off_c, 1, 43, 64
2, 3168, Note_on_c, 1, 38, 90
2, 3262, Note_off_c, 1, 38, 64
2, 3264, Note_on_c, 1, 41, 98
2, 3350, Note_off_c, 1, 41, 64
2, 3360, Note_on_c, 1, 46, 102
2, 3545, Note_off_c, 1, 46, 64
2, 3552, Note_on_c, 1, 41, 102
2, 3648, Note_on_c, 1, 43, 94
2, 3650, Note_off_c, 1, 41, 64
2, 3742, Note_off_c, 1, 43, 64
2, 3744, Note_on_c, 1, 36, 102
2, 3835, Note_off_c, 1, 36, 64
2, 4416, Note_on_c, 1, 36, 110
2, 4503, Note_off_c, 1, 36, 64
2, 4608, Note_on_c, 1, 43, 102
2, 4696, Note_off_c, 1, 43, 64
2, 4704, Note_on_c, 1, 38, 86
2, 4800, Note_on_c, 1, 41, 98
2, 4801, Note_off_c, 1, 38, 64
2, 4892, Note_off_c, 1, 41, 64
2, 4896, Note_on_c, 1, 46, 102
2, 5076, Note_off_c, 1, 46, 64
2, 5088, Note_on_c, 1, 41, 102
2, 5184, Note_on_c, 1, 43, 98
2, 5185, Note_off_c, 1, 41, 64
2, 5275, Note_off_c, 1, 43, 64
2, 5280, Note_on_c, 1, 36, 106
2, 5363, Note_off_c, 1, 36, 64
2, 5952, Note_on_c, 1, 36, 106
2, 6029, Note_off_c, 1, 36, 64
2, 6144, Note_on_c, 1, 43, 106
2, 6217, Note_off_c, 1, 43, 64
2, 6240, Note_on_c, 1, 38, 90
2, 6334, Note_off_c, 1, 38, 64
2, 6336, Note_on_c, 1, 41, 98
2, 6422, Note_off_c, 1, 41, 64
2, 6432, Note_on_c, 1, 46, 102
2, 6617, Note_off_c, 1, 46, 64
2, 6624, Note_on_c, 1, 41, 102
2, 6720, Note_on_c, 1, 43, 94
2, 6722, Note_off_c, 1, 41, 64
2, 6814, Note_off_c, 1, 43, 64
2, 6816, Note_on_c, 1, 36, 102
2, 6907, Note_off_c, 1, 36, 64
2, 7680, Note_on_c, 1, 43, 102
2, 7768, Note_off_c, 1, 43, 64
2, 7776, Note_on_c, 1, 38, 86
2, 7872, Note_on_c, 1, 41, 98
2, 7873, Note_off_c, 1, 38, 64
2, 7964, Note_off_c, 1, 41, 64
2, 7968, Note_on_c, 1, 46, 102
2, 8148, Note_off_c, 1, 46, 64
2, 8160, Note_on_c, 1, 41, 102
2, 8256, Note_on_c, 1, 43, 98
2, 8257, Note_off_c, 1, 41, 64
2, 8347, Note_off_c, 1, 43, 64
2, 8352, Note_on_c, 1, 36, 106
2, 8435, Note_off_c, 1, 36, 64
2, 9024, Note_on_c, 1, 36, 106
2, 9101, Note_off_c, 1, 36, 64
2, 9216, Note_on_c, 1, 43, 106
2, 9289, Note_off_c, 1, 43, 64
2, 9312, Note_on_c, 1, 38, 90
2, 9406, Note_off_c, 1, 38, 64
2, 9408, Note_on_c, 1, 41, 98
2, 9494, Note_off_c, 1, 41, 64
2, 9504, Note_on_c, 1, 46, 102
2, 9689, Note_off_c, 1, 46, 64
2, 9696, Note_on_c, 1, 41, 102
2, 9792, Note_on_c, 1, 43, 94
2, 9794, Note_off_c, 1, 41, 64
2, 9886, Note_off_c, 1, 43, 64
2, 9888, Note_on_c, 1, 36, 102
2, 9979, Note_off_c, 1, 36, 64
2, 10560, Note_on_c, 1, 36, 110
2, 10647, Note_off_c, 1, 36, 64
2, 10752, Note_on_c, 1, 36, 102
2, 10823, Note_off_c, 1, 36, 64
2, 10848, Note_on_c, 1, 36, 106
2, 10898, Note_off_c, 1, 36, 64
2, 11040, Note_on_c, 1, 36, 98
2, 11095, Note_off_c, 1, 36, 64
2, 11136, Note_on_c, 1, 36, 102
2, 11198, Note_off_c, 1, 36, 64
2, 11232, Note_on_c, 1, 36, 102
2, 11290, Note_off_c, 1, 36, 64
2, 11424, Note_on_c, 1, 36, 98
2, 11520, Note_on_c, 1, 38, 106
2, 11537, Note_off_c, 1, 36, 64
2, 11584, Note_off_c, 1, 38, 64
2, 11616, Note_on_c, 1, 38, 110
2, 11661, Note_off_c, 1, 38, 64
2, 11808, Note_on_c, 1, 38, 110
2, 11870, Note_off_c, 1, 38, 64
2, 11904, Note_on_c, 1, 38, 106
2, 11960, Note_off_c, 1, 38, 64
2, 12000, Note_on_c, 1, 38, 106
2, 12057, Note_off_c, 1, 38, 64
2, 12288, Note_on_c, 1, 43, 102
2, 12376, Note_off_c, 1, 43, 64
2, 12384, Note_on_c, 1, 38, 86
2, 12480, Note_on_c, 1, 41, 98
2, 12481, Note_off_c, 1, 38, 64
2, 12572, Note_off_c, 1, 41, 64
2, 12576, Note_on_c, 1, 46, 102
2, 12756, Note_off_c, 1, 46, 64
2, 12768, Note_on_c, 1, 41, 102
2, 12864, Note_on_c, 1, 43, 98
2, 12865, Note_off_c, 1, 41, 64
2, 12955, Note_off_c, 1, 43, 64
2, 12960, Note_on_c, 1, 36, 106
2, 13043, Note_off_c, 1, 36, 64
2, 13632, Note_on_c, 1, 36, 106
2, 13709, Note_off_c, 1, 36, 64
2, 13824, Note_on_c, 1, 43, 106
2, 13897, Note_off_c, 1, 43, 64
2, 13920, Note_on_c, 1, 38, 90
2, 14014, Note_off_c, 1, 38, 64
2, 14016, Note_on_c, 1, 41, 98
2, 14102, Note_off_c, 1, 41, 64
2, 14112, Note_on_c, 1, 46, 102
2, 14297, Note_off_c, 1, 46, 64
2, 14304, Note_on_c, 1, 41, 102
2, 14400, Note_on_c, 1, 43, 94
2, 14402, Note_off_c, 1, 41, 64
2, 14494, Note_off_c, 1, 43, 64
2, 14496, Note_on_c, 1, 36, 102
2, 14587, Note_off_c, 1, 36, 64
2, 15168, Note_on_c, 1, 36, 110
2, 15255, Note_off_c, 1, 36, 64
2, 15360, Note_on_c, 1, 43, 106
2, 15433, Note_off_c, 1, 43, 64
2, 15456, Note_on_c, 1, 38, 90
2, 15550, Note_off_c, 1, 38, 64
2, 15552, Note_on_c, 1, 41, 98
2, 15638, Note_off_c, 1, 41, 64
2, 15648, Note_on_c, 1, 46, 102
2, 15833, Note_off_c, 1, 46, 64
2, 15840, Note_on_c, 1, 41, 102
2, 15936, Note_on_c, 1, 43, 94
2, 15938, Note_off_c, 1, 41, 64
2, 16030, Note_off_c, 1, 43, 64
2, 16032, Note_on_c, 1, 36, 102
2, 16123, Note_off_c, 1, 36, 64
2, 16704, Note_on_c, 1, 36, 110
2, 16791, Note_off_c, 1, 36, 64
2, 16896, Note_on_c, 1, 36, 114
2, 16971, Note_off_c, 1, 36, 64
2, 17568, Note_on_c, 1, 43, 114
2, 17950, Note_off_c, 1, 43, 64
2, 17952, Note_on_c, 1, 41, 106
2, 18048, Note_on_c, 1, 38, 106
2, 18056, Note_off_c, 1, 41, 64
2, 18328, Note_off_c, 1, 38, 64
2, 18336, Note_on_c, 1, 36, 106
2, 18431, Note_off_c, 1, 36, 64
2, 18432, Note_on_c, 1, 34, 106
2, 18720, Note_on_c, 1, 36, 106
2, 18723, Note_off_c, 1, 34, 64
2, 18812, Note_off_c, 1, 36, 64
2, 18816, Note_on_c, 1, 34, 98
2, 18927, Note_off_c, 1, 34, 64
2, 19008, Note_on_c, 1, 31, 102
2, 19093, Note_off_c, 1, 31, 64
2, 19200, Note_on_c, 1, 43, 102
2, 19288, Note_off_c, 1, 43, 64
2, 19296, Note_on_c, 1, 38, 86
2, 19392, Note_on_c, 1, 41, 98
2, 19393, Note_off_c, 1, 38, 64
2, 19484, Note_off_c, 1, 41, 64
2, 19488, Note_on_c, 1, 46, 102
2, 19668, Note_off_c, 1, 46, 64
2, 19680, Note_on_c, 1, 41, 102
2, 19776, Note_on_c, 1, 43, 98
2, 19777, Note_off_c, 1, 41, 64
2, 19867, Note_off_c, 1, 43, 64
2, 19872, Note_on_c, 1, 36, 106
2, 19955, Note_off_c, 1, 36, 64
2, 20544, Note_on_c, 1, 36, 106
2, 20621, Note_off_c, 1, 36, 64
2, 20736, Note_on_c, 1, 43, 106
2, 20809, Note_off_c, 1, 43, 64
2, 20832, Note_on_c, 1, 38, 90
2, 20926, Note_off_c, 1, 38, 64
2, 20928, Note_on_c, 1, 41, 98
2, 21014, Note_off_c, 1, 41, 64
2, 21024, Note_on_c, 1, 46, 102
2, 21209, Note_off_c, 1, 46, 64
2, 21216, Note_on_c, 1, 41, 102
2, 21312, Note_on_c, 1, 43, 94
2, 21314, Note_off_c, 1, 41, 64
2, 21406, Note_off_c, 1, 43, 64
2, 21408, Note_on_c, 1, 36, 102
2, 21499, Note_off_c, 1, 36, 64
2, 22080, Note_on_c, 1, 36, 110
2, 22167, Note_off_c, 1, 36, 64
2, 22272, Note_on_c, 1, 43, 102
2, 22360, Note_off_c, 1, 43, 64
2, 22368, Note_on_c, 1, 38, 86
2, 22464, Note_on_c, 1, 41, 98
2, 22465, Note_off_c, 1, 38, 64
2, 22556, Note_off_c, 1, 41, 64
2, 22560, Note_on_c, 1, 46, 102
2, 22740, Note_off_c, 1, 46, 64
2, 22752, Note_on_c, 1, 41, 102
2, 22848, Note_on_c, 1, 43, 98
2, 22849, Note_off_c, 1, 41, 64
2, 22939, Note_off_c, 1, 43, 64
2, 22944, Note_on_c, 1, 36, 106
2, 23027, Note_off_c, 1, 36, 64
2, 23616, Note_on_c, 1, 36, 106
2, 23693, Note_off_c, 1, 36, 64
2, 23808, Note_on_c, 1, 43, 106
2, 23881, Note_off_c, 1, 43, 64
2, 23904, Note_on_c, 1, 38, 90
2, 23998, Note_off_c, 1, 38, 64
2, 24000, Note_on_c, 1, 41, 98
2, 24086, Note_off_c, 1, 41, 64
2, 24096, Note_on_c, 1, 46, 102
2, 24281, Note_off_c, 1, 46, 64
2, 24288, Note_on_c, 1, 41, 102
2, 24384, Note_on_c, 1, 43, 94
2, 24386, Note_off_c, 1, 41, 64
2, 24478, Note_off_c, 1, 43, 64
2, 24480, Note_on_c, 1, 36, 102
2, 24571, Note_off_c, 1, 36, 64
2, 25152, Note_on_c, 1, 36, 110
2, 25239, Note_off_c, 1, 36, 64
2, 25344, Note_on_c, 1, 36, 102
2, 25415, Note_off_c, 1, 36, 64
2, 25440, Note_on_c, 1, 36, 106
2, 25490, Note_off_c, 1, 36, 64
2, 25632, Note_on_c, 1, 36, 98
2, 25687, Note_off_c, 1, 36, 64
2, 25728, Note_on_c, 1, 36, 102
2, 25790, Note_off_c, 1, 36, 64
2, 25824, Note_on_c, 1, 36, 102
2, 25882, Note_off_c, 1, 36, 64
2, 26016, Note_on_c, 1, 36, 98
2, 26112, Note_on_c, 1, 38, 106
2, 26129, Note_off_c, 1, 36, 64
2, 26176, Note_off_c, 1, 38, 64
2, 26208, Note_on_c, 1, 38, 110
2, 26253, Note_off_c, 1, 38, 64
2, 26400, Note_on_c, 1, 38, 110
2, 26462, Note_off_c, 1, 38, 64
2, 26496, Note_on_c, 1, 38, 106
2, 26552, Note_off_c, 1, 38, 64
2, 26592, Note_on_c, 1, 38, 106
2, 26649, Note_off_c, 1, 38, 64
2, 26880, Note_on_c, 1, 43, 102
2, 26968, Note_off_c, 1, 43, 64
2, 26976, Note_on_c, 1, 38, 86
2, 27072, Note_on_c, 1, 41, 98
2, 27073, Note_off_c, 1, 38, 64
2, 27164, Note_off_c, 1, 41, 64
2, 27168, Note_on_c, 1, 46, 102
2, 27348, Note_off_c, 1, 46, 64
2, 27360, Note_on_c, 1, 41, 102
2, 27456, Note_on_c, 1, 43, 98
2, 27457, Note_off_c, 1, 41, 64
2, 27547, Note_off_c, 1, 43, 64
2, 27552, Note_on_c, 1, 36, 106
2, 27635, Note_off_c, 1, 36, 64
2, 28224, Note_on_c, 1, 36, 106
2, 28301, Note_off_c, 1, 36, 64
2, 28416, Note_on_c, 1, 43, 106
2, 28489, Note_off_c, 1, 43, 64
2, 28512, Note_on_c, 1, 38, 90
2, 28606, Note_off_c, 1, 38, 64
2, 28608, Note_on_c, 1, 41, 98
2, 28694, Note_off_c, 1, 41, 64
2, 28704, Note_on_c, 1, 46, 102
2, 28889, Note_off_c, 1, 46, 64
2, 28896, Note_on_c, 1, 41, 102
2, 28992, Note_on_c, 1, 43, 94
2, 28994, Note_off_c, 1, 41, 64
2, 29086, Note_off_c, 1, 43, 64
2, 29088, Note_on_c, 1, 36, 102
2, 29179, Note_off_c, 1, 36, 64
2, 29760, Note_on_c, 1, 36, 110
2, 29847, Note_off_c, 1, 36, 64
2, 29952, Note_on_c, 1, 43, 106
2, 30025, Note_off_c, 1, 43, 64
2, 30048, Note_on_c, 1, 38, 90
2, 30142, Note_off_c, 1, 38, 64
2, 30144, Note_on_c, 1, 41, 98
2, 30230, Note_off_c, 1, 41, 64
2, 30240, Note_on_c, 1, 46, 102
2, 30425, Note_off_c, 1, 46, 64
2, 30432, Note_on_c, 1, 41, 102
2, 30528, Note_on_c, 1, 43, 94
2, 30530, Note_off_c, 1, 41, 64
2, 30622, Note_off_c, 1, 43, 64
2, 30624, Note_on_c, 1, 36, 102
2, 30715, Note_off_c, 1, 36, 64
2, 31296, Note_on_c, 1, 36, 110
2, 31383, Note_off_c, 1, 36, 64
2, 31488, Note_on_c, 1, 36, 114
2, 31563, Note_off_c, 1, 36, 64
2, 32160, Note_on_c, 1, 43, 114
2, 32542, Note_off_c, 1, 43, 64
2, 32544, Note_on_c, 1, 41, 106
2, 32640, Note_on_c, 1, 38, 106
2, 32648, Note_off_c, 1, 41, 64
2, 32920, Note_off_c, 1, 38, 64
2, 32928, Note_on_c, 1, 36, 106
2, 33023, Note_off_c, 1, 36, 64
2, 33024, Note_on_c, 1, 34, 106
2, 33312, Note_on_c, 1, 36, 106
2, 33315, Note_off_c, 1, 34, 64
2, 33404, Note_off_c, 1, 36, 64
2, 33408, Note_on_c, 1, 34, 98
2, 33519, Note_off_c, 1, 34, 64
2, 33600, Note_on_c, 1, 31, 102
2, 33685, Note_off_c, 1, 31, 64
2, 33792, Note_on_c, 1, 43, 102
2, 33880, Note_off_c, 1, 43, 64
2, 33888, Note_on_c, 1, 38, 86
2, 33984, Note_on_c, 1, 41, 98
2, 33985, Note_off_c, 1, 38, 64
2, 34076, Note_off_c, 1, 41, 64
2, 34080, Note_on_c, 1, 46, 102
2, 34260, Note_off_c, 1, 46, 64
2, 34272, Note_on_c, 1, 41, 102
2, 34368, Note_on_c, 1, 43, 98
2, 34369, Note_off_c, 1, 41, 64
2, 34459, Note_off_c, 1, 43, 64
2, 34464, Note_on_c, 1, 36, 106
2, 34547, Note_off_c, 1, 36, 64
2, 35136, Note_on_c, 1, 36, 106
2, 35213, Note_off_c, 1, 36, 64
2, 35328, Note_on_c, 1, 43, 106
2, 35401, Note_off_c, 1, 43, 64
2, 35424, Note_on_c, 1, 38, 90
2, 35518, Note_off_c, 1, 38, 64
2, 35520, Note_on_c, 1, 41, 98
2, 35606, Note_off_c, 1, 41, 64
2, 35616, Note_on_c, 1, 46, 102
2, 35801, Note_off_c, 1, 46, 64
2, 35808, Note_on_c, 1, 41, 102
2, 35904, Note_on_c, 1, 43, 94
2, 35906, Note_off_c, 1, 41, 64
2, 35998, Note_off_c, 1, 43, 64
2, 36000, Note_on_c, 1, 36, 102
2, 36091, Note_off_c, 1, 36, 64
2, 36672, Note_on_c, 1, 36, 110
2, 36759, Note_off_c, 1, 36, 64
2, 36864, Note_on_c, 1, 43, 114
2, 37106, Note_off_c, 1, 43, 64
2, 37152, Note_on_c, 1, 41, 106
2, 37206, Note_off_c, 1, 41, 64
2, 37248, Note_on_c, 1, 38, 106
2, 37490, Note_off_c, 1, 38, 64
2, 37536, Note_on_c, 1, 36, 106
2, 37590, Note_off_c, 1, 36, 64
2, 37632, Note_on_c, 1, 34, 106
2, 37882, Note_off_c, 1, 34, 64
2, 37920, Note_on_c, 1, 36, 106
2, 37974, Note_off_c, 1, 36, 64
2, 38016, Note_on_c, 1, 34, 98
2, 38162, Note_off_c, 1, 34, 64
2, 38208, Note_on_c, 1, 31, 102
2, 38293, Note_off_c, 1, 31, 64
2, 38400, Note_on_c, 1, 39, 102
2, 39033, Note_off_c, 1, 39, 64
2, 39072, Note_on_c, 1, 39, 82
2, 39119, Note_off_c, 1, 39, 64
2, 39168, Note_on_c, 1, 39, 90
2, 39405, Note_off_c, 1, 39, 64
2, 39456, Note_on_c, 1, 39, 90
2, 39492, Note_off_c, 1, 39, 64
2, 39552, Note_on_c, 1, 39, 82
2, 39933, Note_off_c, 1, 39, 64
2, 39936, Note_on_c, 1, 43, 94
2, 40571, Note_off_c, 1, 43, 64
2, 40608, Note_on_c, 1, 43, 78
2, 40641, Note_off_c, 1, 43, 64
2, 40704, Note_on_c, 1, 43, 86
2, 40953, Note_off_c, 1, 43, 64
2, 40992, Note_on_c, 1, 43, 94
2, 41019, Note_off_c, 1, 43, 64
2, 41088, Note_on_c, 1, 43, 86
2, 41450, Note_off_c, 1, 43, 64
2, 41472, Note_on_c, 1, 39, 102
2, 42105, Note_off_c, 1, 39, 64
2, 42144, Note_on_c, 1, 39, 82
2, 42191, Note_off_c, 1, 39, 64
2, 42240, Note_on_c, 1, 39, 90
2, 42477, Note_off_c, 1, 39, 64
2, 42528, Note_on_c, 1, 39, 90
2, 42564, Note_off_c, 1, 39, 64
2, 42624, Note_on_c, 1, 39, 82
2, 43005, Note_off_c, 1, 39, 64
2, 43008, Note_on_c, 1, 38, 98
2, 43619, Note_off_c, 1, 38, 64
2, 43680, Note_on_c, 1, 38, 82
2, 43763, Note_off_c, 1, 38, 64
2, 43776, Note_on_c, 1, 50, 78
2, 43829, Note_off_c, 1, 50, 64
2, 43872, Note_on_c, 1, 50, 82
2, 43959, Note_off_c, 1, 50, 64
2, 43968, Note_on_c, 1, 38, 74
2, 44054, Note_off_c, 1, 38, 64
2, 44064, Note_on_c, 1, 50, 78
2, 44120, Note_off_c, 1, 50, 64
2, 44352, Note_on_c, 1, 46, 62
2, 44404, Pitch_bend_c, 1, 7808
2, 44421, Pitch_bend_c, 1, 6656
2, 44437, Pitch_bend_c, 1, 5760
2, 44452, Pitch_bend_c, 1, 4736
2, 44469, Pitch_bend_c, 1, 3200
2, 44484, Pitch_bend_c, 1, 1920
2, 44492, Pitch_bend_c, 1, 1024
2, 44501, Pitch_bend_c, 1, 1536
2, 44508, Pitch_bend_c, 1, 3584
2, 44515, Pitch_bend_c, 1, 6656
2, 44516, Note_off_c, 1, 46, 64
2, 44523, Pitch_bend_c, 1, 8192
2, 44544, Note_on_c, 1, 43, 102
2, 44632, Note_off_c, 1, 43, 64
2, 44640, Note_on_c, 1, 38, 86
2, 44736, Note_on_c, 1, 41, 98
2, 44737, Note_off_c, 1, 38, 64
2, 44828, Note_off_c, 1, 41, 64
2, 44832, Note_on_c, 1, 46, 102
2, 45012, Note_off_c, 1, 46, 64
2, 45024, Note_on_c, 1, 41, 102
2, 45120, Note_on_c, 1, 43, 98
2, 45121, Note_off_c, 1, 41, 64
2, 45211, Note_off_c, 1, 43, 64
2, 45216, Note_on_c, 1, 36, 106
2, 45299, Note_off_c, 1, 36, 64
2, 45888, Note_on_c, 1, 36, 106
2, 45965, Note_off_c, 1, 36, 64
2, 46080, Note_on_c, 1, 43, 106
2, 46153, Note_off_c, 1, 43, 64
2, 46176, Note_on_c, 1, 38, 90
2, 46270, Note_off_c, 1, 38, 64
2, 46272, Note_on_c, 1, 41, 98
2, 46358, Note_off_c, 1, 41, 64
2, 46368, Note_on_c, 1, 46, 102
2, 46553, Note_off_c, 1, 46, 64
2, 46560, Note_on_c, 1, 41, 102
2, 46656, Note_on_c, 1, 43, 94
2, 46658, Note_off_c, 1, 41, 64
2, 46750, Note_off_c, 1, 43, 64
2, 46752, Note_on_c, 1, 36, 102
2, 46843, Note_off_c, 1, 36, 64
2, 47424, Note_on_c, 1, 36, 110
2, 47511, Note_off_c, 1, 36, 64
2, 47616, Note_on_c, 1, 36, 102
2, 47687, Note_off_c, 1, 36, 64
2, 47712, Note_on_c, 1, 36, 106
2, 47762, Note_off_c, 1, 36, 64
2, 47904, Note_on_c, 1, 36, 98
2, 47959, Note_off_c, 1, 36, 64
2, 48000, Note_on_c, 1, 36, 102
2, 48062, Note_off_c, 1, 36, 64
2, 48096, Note_on_c, 1, 36, 102
2, 48154, Note_off_c, 1, 36, 64
2, 48288, Note_on_c, 1, 36, 98
2, 48384, Note_on_c, 1, 38, 106
2, 48401, Note_off_c, 1, 36, 64
2, 48448, Note_off_c, 1, 38, 64
2, 48480, Note_on_c, 1, 38, 110
2, 48525, Note_off_c, 1, 38, 64
2, 48672, Note_on_c, 1, 38, 110
2, 48734, Note_off_c, 1, 38, 64
2, 48768, Note_on_c, 1, 38, 106
2, 48824, Note_off_c, 1, 38, 64
2, 48864, Note_on_c, 1, 38, 106
2, 48921, Note_off_c, 1, 38, 64
2, 49152, Note_on_c, 1, 38, 94
2, 49217, Note_off_c, 1, 38, 64
2, 49248, Note_on_c, 1, 38, 90
2, 49309, Note_off_c, 1, 38, 64
2, 49344, Note_on_c, 1, 38, 98
2, 49405, Note_off_c, 1, 38, 64
2, 49440, Note_on_c, 1, 38, 98
2, 49501, Note_off_c, 1, 38, 64
2, 49536, Note_on_c, 1, 38, 106
2, 49595, Note_off_c, 1, 38, 64
2, 49632, Note_on_c, 1, 38, 117
2, 49689, Note_off_c, 1, 38, 64
2, 49728, Note_on_c, 1, 38, 106
2, 49787, Note_off_c, 1, 38, 64
2, 49824, Note_on_c, 1, 38, 106
2, 49882, Note_off_c, 1, 38, 64
2, 49920, Note_on_c, 1, 38, 102
2, 49976, Note_off_c, 1, 38, 64
2, 50016, Note_on_c, 1, 38, 102
2, 50075, Note_off_c, 1, 38, 64
2, 50112, Note_on_c, 1, 38, 114
2, 50163, Note_off_c, 1, 38, 64
2, 50208, Note_on_c, 1, 38, 114
2, 50263, Note_off_c, 1, 38, 64
2, 50304, Note_on_c, 1, 38, 110
2, 50357, Note_off_c, 1, 38, 64
2, 50400, Note_on_c, 1, 38, 117
2, 50462, Note_off_c, 1, 38, 64
2, 50496, Note_on_c, 1, 38, 117
2, 50553, Note_off_c, 1, 38, 64
2, 50592, Note_on_c, 1, 38, 117
2, 50658, Note_off_c, 1, 38, 64
2, 50688, Note_on_c, 1, 43, 102
2, 50776, Note_off_c, 1, 43, 64
2, 50784, Note_on_c, 1, 38, 86
2, 50880, Note_on_c, 1, 41, 98
2, 50881, Note_off_c, 1, 38, 64
2, 50972, Note_off_c, 1, 41, 64
2, 50976, Note_on_c, 1, 46, 102
2, 51156, Note_off_c, 1, 46, 64
2, 51168, Note_on_c, 1, 41, 102
2, 51264, Note_on_c, 1, 43, 98
2, 51265, Note_off_c, 1, 41, 64
2, 51355, Note_off_c, 1, 43, 64
2, 51360, Note_on_c, 1, 36, 106
2, 51443, Note_off_c, 1, 36, 64
2, 52032, Note_on_c, 1, 36, 106
2, 52109, Note_off_c, 1, 36, 64
2, 52224, Note_on_c, 1, 43, 106
2, 52297, Note_off_c, 1, 43, 64
2, 52320, Note_on_c, 1, 38, 90
2, 52414, Note_off_c, 1, 38, 64
2, 52416, Note_on_c, 1, 41, 98
2, 52502, Note_off_c, 1, 41, 64
2, 52512, Note_on_c, 1, 46, 102
2, 52697, Note_off_c, 1, 46, 64
2, 52704, Note_on_c, 1, 41, 102
2, 52800, Note_on_c, 1, 43, 94
2, 52802, Note_off_c, 1, 41, 64
2, 52894, Note_off_c, 1, 43, 64
2, 52896, Note_on_c, 1, 36, 102
2, 52987, Note_off_c, 1, 36, 64
2, 53568, Note_on_c, 1, 36, 110
2, 53655, Note_off_c, 1, 36, 64
2, 53760, Note_on_c, 1, 36, 102
2, 53831, Note_off_c, 1, 36, 64
2, 53856, Note_on_c, 1, 36, 106
2, 53906, Note_off_c, 1, 36, 64
2, 54048, Note_on_c, 1, 36, 98
2, 54103, Note_off_c, 1, 36, 64
2, 54144, Note_on_c, 1, 36, 102
2, 54206, Note_off_c, 1, 36, 64
2, 54240, Note_on_c, 1, 36, 102
2, 54298, Note_off_c, 1, 36, 64
2, 54432, Note_on_c, 1, 36, 98
2, 54528, Note_on_c, 1, 38, 106
2, 54545, Note_off_c, 1, 36, 64
2, 54592, Note_off_c, 1, 38, 64
2, 54624, Note_on_c, 1, 38, 110
2, 54669, Note_off_c, 1, 38, 64
2, 54816, Note_on_c, 1, 38, 110
2, 54878, Note_off_c, 1, 38, 64
2, 54912, Note_on_c, 1, 38, 106
2, 54968, Note_off_c, 1, 38, 64
2, 55008, Note_on_c, 1, 38, 106
2, 55065, Note_off_c, 1, 38, 64
2, 55200, Note_on_c, 1, 38, 94
2, 55342, Note_off_c, 1, 38, 64
2, 55392, Note_on_c, 1, 38, 90
2, 55453, Note_off_c, 1, 38, 64
2, 55488, Note_on_c, 1, 38, 98
2, 55549, Note_off_c, 1, 38, 64
2, 55584, Note_on_c, 1, 38, 98
2, 55645, Note_off_c, 1, 38, 64
2, 55680, Note_on_c, 1, 38, 106
2, 55739, Note_off_c, 1, 38, 64
2, 55776, Note_on_c, 1, 38, 117
2, 55833, Note_off_c, 1, 38, 64
2, 55872, Note_on_c, 1, 38, 106
2, 55931, Note_off_c, 1, 38, 64
2, 55968, Note_on_c, 1, 38, 106
2, 56026, Note_off_c, 1, 38, 64
2, 56064, Note_on_c, 1, 38, 102
2, 56120, Note_off_c, 1, 38, 64
2, 56160, Note_on_c, 1, 38, 102
2, 56219, Note_off_c, 1, 38, 64
2, 56256, Note_on_c, 1, 38, 114
2, 56307, Note_off_c, 1, 38, 64
2, 56352, Note_on_c, 1, 38, 114
2, 56407, Note_off_c, 1, 38, 64
2, 56448, Note_on_c, 1, 38, 110
2, 56501, Note_off_c, 1, 38, 64
2, 56544, Note_on_c, 1, 38, 117
2, 56606, Note_off_c, 1, 38, 64
2, 56640, Note_on_c, 1, 38, 117
2, 56697, Note_off_c, 1, 38, 64
2, 56736, Note_on_c, 1, 38, 117
2, 56802, Note_off_c, 1, 38, 64
2, 56832, Note_on_c, 1, 43, 102
2, 56920, Note_off_c, 1, 43, 64
2, 56928, Note_on_c, 1, 38, 86
2, 57024, Note_on_c, 1, 41, 98
2, 57025, Note_off_c, 1, 38, 64
2, 57116, Note_off_c, 1, 41, 64
2, 57120, Note_on_c, 1, 46, 102
2, 57300, Note_off_c, 1, 46, 64
2, 57312, Note_on_c, 1, 41, 102
2, 57408, Note_on_c, 1, 43, 98
2, 57409, Note_off_c, 1, 41, 64
2, 57499, Note_off_c, 1, 43, 64
2, 57504, Note_on_c, 1, 36, 106
2, 57587, Note_off_c, 1, 36, 64
2, 58176, Note_on_c, 1, 36, 106
2, 58253, Note_off_c, 1, 36, 64
2, 58368, Note_on_c, 1, 43, 106
2, 58441, Note_off_c, 1, 43, 64
2, 58464, Note_on_c, 1, 38, 90
2, 58558, Note_off_c, 1, 38, 64
2, 58560, Note_on_c, 1, 41, 98
2, 58646, Note_off_c, 1, 41, 64
2, 58656, Note_on_c, 1, 46, 102
2, 58841, Note_off_c, 1, 46, 64
2, 58848, Note_on_c, 1, 41, 102
2, 58944, Note_on_c, 1, 43, 94
2, 58946, Note_off_c, 1, 41, 64
2, 59038, Note_off_c, 1, 43, 64
2, 59040, Note_on_c, 1, 36, 102
2, 59131, Note_off_c, 1, 36, 64
2, 59712, Note_on_c, 1, 36, 110
2, 59799, Note_off_c, 1, 36, 64
2, 59904, Note_on_c, 1, 43, 106
2, 59977, Note_off_c, 1, 43, 64
2, 60000, Note_on_c, 1, 38, 90
2, 60094, Note_off_c, 1, 38, 64
2, 60096, Note_on_c, 1, 41, 98
2, 60182, Note_off_c, 1, 41, 64
2, 60192, Note_on_c, 1, 46, 102
2, 60377, Note_off_c, 1, 46, 64
2, 60384, Note_on_c, 1, 41, 102
2, 60480, Note_on_c, 1, 43, 94
2, 60482, Note_off_c, 1, 41, 64
2, 60574, Note_off_c, 1, 43, 64
2, 60576, Note_on_c, 1, 36, 102
2, 60667, Note_off_c, 1, 36, 64
2, 61248, Note_on_c, 1, 36, 110
2, 61335, Note_off_c, 1, 36, 64
2, 61440, Note_on_c, 1, 36, 114
2, 61515, Note_off_c, 1, 36, 64
2, 63744, Note_on_c, 1, 31, 110
2, 63830, Note_off_c, 1, 31, 64
2, 64416, Note_on_c, 1, 36, 110
2, 64512, Note_off_c, 1, 36, 64
2, 65280, Note_on_c, 1, 31, 110
2, 65384, Note_off_c, 1, 31, 64
2, 65952, Note_on_c, 1, 36, 110
2, 66062, Note_off_c, 1, 36, 64
2, 66816, Note_on_c, 1, 31, 110
2, 66920, Note_off_c, 1, 31, 64
2, 67488, Note_on_c, 1, 36, 110
2, 67598, Note_off_c, 1, 36, 64
2, 68352, Note_on_c, 1, 31, 110
2, 68456, Note_off_c, 1, 31, 64
2, 69024, Note_on_c, 1, 36, 110
2, 69134, Note_off_c, 1, 36, 64
2, 69888, Note_on_c, 1, 43, 102
2, 69888, Control_c, 1, 7, 93
2, 69976, Note_off_c, 1, 43, 64
2, 69984, Note_on_c, 1, 38, 86
2, 70080, Note_on_c, 1, 41, 98
2, 70080, Control_c, 1, 7, 90
2, 70081, Note_off_c, 1, 38, 64
2, 70172, Note_off_c, 1, 41, 64
2, 70176, Note_on_c, 1, 46, 102
2, 70272, Control_c, 1, 7, 87
2, 70356, Note_off_c, 1, 46, 64
2, 70368, Note_on_c, 1, 41, 102
2, 70464, Note_on_c, 1, 43, 98
2, 70464, Control_c, 1, 7, 83
2, 70465, Note_off_c, 1, 41, 64
2, 70555, Note_off_c, 1, 43, 64
2, 70560, Note_on_c, 1, 36, 106
2, 70560, Control_c, 1, 7, 82
2, 70643, Note_off_c, 1, 36, 64
2, 71136, Control_c, 1, 7, 71
2, 71232, Note_on_c, 1, 36, 106
2, 71309, Note_off_c, 1, 36, 64
2, 71328, Control_c, 1, 7, 68
2, 71424, Note_on_c, 1, 43, 106
2, 71497, Note_off_c, 1, 43, 64
2, 71520, Note_on_c, 1, 38, 90
2, 71520, Control_c, 1, 7, 65
2, 71614, Note_off_c, 1, 38, 64
2, 71616, Note_on_c, 1, 41, 98
2, 71702, Note_off_c, 1, 41, 64
2, 71712, Note_on_c, 1, 46, 102
2, 71712, Control_c, 1, 7, 61
2, 71897, Note_off_c, 1, 46, 64
2, 71904, Note_on_c, 1, 41, 102
2, 71904, Control_c, 1, 7, 57
2, 72000, Note_on_c, 1, 43, 94
2, 72002, Note_off_c, 1, 41, 64
2, 72094, Note_off_c, 1, 43, 64
2, 72096, Note_on_c, 1, 36, 102
2, 72096, Control_c, 1, 7, 54
2, 72187, Note_off_c, 1, 36, 64
2, 72672, Control_c, 1, 7, 45
2, 72768, Note_on_c, 1, 36, 110
2, 72855, Note_off_c, 1, 36, 64
2, 72864, Control_c, 1, 7, 41
2, 72960, Note_on_c, 1, 43, 102
2, 73048, Note_off_c, 1, 43, 64
2, 73056, Note_on_c, 1, 38, 86
2, 73056, Control_c, 1, 7, 37
2, 73152, Note_on_c, 1, 41, 98
2, 73153, Note_off_c, 1, 38, 64
2, 73244, Note_off_c, 1, 41, 64
2, 73248, Note_on_c, 1, 46, 102
2, 73248, Control_c, 1, 7, 35
2, 73428, Note_off_c, 1, 46, 64
2, 73440, Note_on_c, 1, 41, 102
2, 73440, Control_c, 1, 7, 32
2, 73536, Note_on_c, 1, 43, 98
2, 73537, Note_off_c, 1, 41, 64
2, 73627, Note_off_c, 1, 43, 64
2, 73632, Note_on_c, 1, 36, 106
2, 73715, Note_off_c, 1, 36, 64
2, 73728, Control_c, 1, 7, 26
2, 74208, Control_c, 1, 7, 17
2, 74304, Note_on_c, 1, 36, 106
2, 74381, Note_off_c, 1, 36, 64
2, 74400, Control_c, 1, 7, 15
2, 74496, Note_on_c, 1, 43, 106
2, 74569, Note_off_c, 1, 43, 64
2, 74592, Note_on_c, 1, 38, 90
2, 74592, Control_c, 1, 7, 11
2, 74686, Note_off_c, 1, 38, 64
2, 74688, Note_on_c, 1, 41, 98
2, 74774, Note_off_c, 1, 41, 64
2, 74784, Control_c, 1, 7, 7
2, 75264, Control_c, 1, 7, 0
2, 76032, Control_c, 1, 120, 0
2, 76048, Control_c, 1, 123, 0
2, 76048, End_track
3, 0, Start_track
3, 0, Title_t, "Organ   "
3, 0, Channel_prefix, 2
3, 0, Control_c, 2, 7, 127
3, 0, Control_c, 2, 10, 64
3, 0, Program_c, 2, 0
3, 202, Control_c, 2, 121, 0
3, 205, Control_c, 2, 7, 65
3, 206, Control_c, 2, 10, 29
3, 207, Control_c, 2, 11, 127
3, 208, Control_c, 2, 91, 62
3, 208, Pitch_bend_c, 2, 8192
3, 209, Control_c, 2, 93, 40
3, 251, Control_c, 2, 0, 0
3, 270, Program_c, 2, 18
3, 332, Control_c, 2, 99, 1
3, 336, Control_c, 2, 98, 10
3, 340, Control_c, 2, 6, 118
3, 480, Control_c, 2, 99, 1
3, 484, Control_c, 2, 98, 9
3, 488, Control_c, 2, 6, 79
3, 672, Control_c, 2, 99, 1
3, 676, Control_c, 2, 98, 8
3, 680, Control_c, 2, 6, 60
3, 1536, Note_on_c, 2, 90, 124
3, 1536, Note_on_c, 2, 91, 120
3, 1542, Note_off_c, 2, 90, 64
3, 2688, Note_on_c, 2, 84, 104
3, 2736, Note_on_c, 2, 82, 108
3, 2739, Note_off_c, 2, 84, 64
3, 2772, Note_off_c, 2, 82, 64
3, 2784, Note_on_c, 2, 84, 100
3, 2849, Note_off_c, 2, 84, 64
3, 2880, Note_on_c, 2, 82, 100
3, 3072, Note_on_c, 2, 79, 112
3, 3488, Note_off_c, 2, 82, 64
3, 3552, Note_on_c, 2, 82, 104
3, 3614, Note_off_c, 2, 82, 64
3, 3648, Note_on_c, 2, 84, 104
3, 3678, Note_off_c, 2, 84, 64
3, 3744, Note_on_c, 2, 85, 124
3, 3744, Note_on_c, 2, 86, 124
3, 3761, Note_off_c, 2, 85, 64
3, 4027, Note_off_c, 2, 86, 64
3, 4032, Note_on_c, 2, 84, 112
3, 4075, Note_off_c, 2, 84, 64
3, 4080, Note_on_c, 2, 82, 92
3, 4112, Note_off_c, 2, 82, 64
3, 4127, Note_off_c, 2, 79, 64
3, 4128, Note_on_c, 2, 79, 104
3, 4574, Note_off_c, 2, 79, 64
3, 4594, Note_off_c, 2, 91, 64
3, 4608, Note_on_c, 2, 90, 92
3, 4616, Note_on_c, 2, 91, 92
3, 4617, Note_off_c, 2, 90, 64
3, 7546, Note_off_c, 2, 91, 64
3, 8919, Note_on_c, 2, 78, 124
3, 8935, Note_off_c, 2, 78, 64
3, 8935, Note_on_c, 2, 79, 120
3, 9017, Note_off_c, 2, 79, 64
3, 9028, Note_on_c, 2, 77, 112
3, 9116, Note_off_c, 2, 77, 64
3, 9124, Note_on_c, 2, 74, 88
3, 9153, Note_off_c, 2, 74, 64
3, 10452, Note_on_c, 2, 79, 116
3, 10459, Note_on_c, 2, 82, 120
3, 10481, Note_off_c, 2, 79, 64
3, 10484, Note_on_c, 2, 84, 120
3, 10500, Note_off_c, 2, 82, 64
3, 10566, Note_off_c, 2, 84, 64
3, 10567, Note_on_c, 2, 82, 120
3, 10651, Note_off_c, 2, 82, 64
3, 10653, Note_on_c, 2, 79, 124
3, 10679, Note_off_c, 2, 79, 64
3, 13536, Note_on_c, 2, 79, 116
3, 13536, Note_on_c, 2, 82, 104
3, 13536, Note_on_c, 2, 84, 120
3, 13560, Note_off_c, 2, 82, 64
3, 13613, Note_off_c, 2, 79, 64
3, 13632, Note_on_c, 2, 82, 120
3, 13644, Note_off_c, 2, 84, 64
3, 13718, Note_off_c, 2, 82, 64
3, 13728, Note_on_c, 2, 79, 116
3, 13762, Note_off_c, 2, 79, 64
3, 15072, Note_on_c, 2, 79, 124
3, 15072, Note_on_c, 2, 84, 124
3, 15140, Note_off_c, 2, 79, 64
3, 15168, Note_on_c, 2, 82, 124
3, 15179, Note_off_c, 2, 84, 64
3, 15258, Note_off_c, 2, 82, 64
3, 15264, Note_on_c, 2, 79, 112
3, 15296, Note_off_c, 2, 79, 64
3, 16608, Note_on_c, 2, 79, 124
3, 16608, Note_on_c, 2, 84, 124
3, 16676, Note_off_c, 2, 79, 64
3, 16704, Note_on_c, 2, 82, 124
3, 16715, Note_off_c, 2, 84, 64
3, 16794, Note_off_c, 2, 82, 64
3, 16800, Note_on_c, 2, 79, 112
3, 16832, Note_off_c, 2, 79, 64
3, 20450, Note_on_c, 2, 79, 100
3, 20456, Note_on_c, 2, 84, 108
3, 20548, Note_off_c, 2, 79, 64
3, 20556, Note_on_c, 2, 82, 84
3, 20557, Note_off_c, 2, 84, 64
3, 20646, Note_off_c, 2, 82, 64
3, 20647, Note_on_c, 2, 79, 104
3, 20666, Note_off_c, 2, 79, 64
3, 21984, Note_on_c, 2, 79, 104
3, 21984, Note_on_c, 2, 84, 104
3, 22052, Note_off_c, 2, 79, 64
3, 22080, Note_on_c, 2, 82, 104
3, 22091, Note_off_c, 2, 84, 64
3, 22170, Note_off_c, 2, 82, 64
3, 22176, Note_on_c, 2, 79, 92
3, 22208, Note_off_c, 2, 79, 64
3, 23522, Note_on_c, 2, 79, 100
3, 23528, Note_on_c, 2, 84, 108
3, 23620, Note_off_c, 2, 79, 64
3, 23628, Note_on_c, 2, 82, 84
3, 23629, Note_off_c, 2, 84, 64
3, 23718, Note_off_c, 2, 82, 64
3, 23719, Note_on_c, 2, 79, 104
3, 23738, Note_off_c, 2, 79, 64
3, 25056, Note_on_c, 2, 79, 104
3, 25056, Note_on_c, 2, 84, 104
3, 25124, Note_off_c, 2, 79, 64
3, 25152, Note_on_c, 2, 82, 104
3, 25163, Note_off_c, 2, 84, 64
3, 25242, Note_off_c, 2, 82, 64
3, 25248, Note_on_c, 2, 79, 92
3, 25280, Note_off_c, 2, 79, 64
3, 28130, Note_on_c, 2, 79, 100
3, 28136, Note_on_c, 2, 84, 108
3, 28228, Note_off_c, 2, 79, 64
3, 28236, Note_on_c, 2, 82, 84
3, 28237, Note_off_c, 2, 84, 64
3, 28326, Note_off_c, 2, 82, 64
3, 28327, Note_on_c, 2, 79, 104
3, 28346, Note_off_c, 2, 79, 64
3, 29664, Note_on_c, 2, 79, 104
3, 29664, Note_on_c, 2, 84, 104
3, 29732, Note_off_c, 2, 79, 64
3, 29760, Note_on_c, 2, 82, 104
3, 29771, Note_off_c, 2, 84, 64
3, 29850, Note_off_c, 2, 82, 64
3, 29856, Note_on_c, 2, 79, 92
3, 29888, Note_off_c, 2, 79, 64
3, 31200, Note_on_c, 2, 79, 124
3, 31200, Note_on_c, 2, 84, 124
3, 31268, Note_off_c, 2, 79, 64
3, 31296, Note_on_c, 2, 82, 124
3, 31307, Note_off_c, 2, 84, 64
3, 31386, Note_off_c, 2, 82, 64
3, 31392, Note_on_c, 2, 79, 112
3, 31424, Note_off_c, 2, 79, 64
3, 35042, Note_on_c, 2, 79, 100
3, 35048, Note_on_c, 2, 84, 108
3, 35140, Note_off_c, 2, 79, 64
3, 35148, Note_on_c, 2, 82, 84
3, 35149, Note_off_c, 2, 84, 64
3, 35238, Note_off_c, 2, 82, 64
3, 35239, Note_on_c, 2, 79, 104
3, 35258, Note_off_c, 2, 79, 64
3, 36576, Note_on_c, 2, 79, 104
3, 36576, Note_on_c, 2, 84, 104
3, 36644, Note_off_c, 2, 79, 64
3, 36672, Note_on_c, 2, 82, 104
3, 36683, Note_off_c, 2, 84, 64
3, 36762, Note_off_c, 2, 82, 64
3, 36768, Note_on_c, 2, 79, 92
3, 36800, Note_off_c, 2, 79, 64
3, 45783, Note_on_c, 2, 78, 124
3, 45799, Note_off_c, 2, 78, 64
3, 45799, Note_on_c, 2, 79, 120
3, 45881, Note_off_c, 2, 79, 64
3, 45892, Note_on_c, 2, 77, 112
3, 45980, Note_off_c, 2, 77, 64
3, 45988, Note_on_c, 2, 74, 88
3, 46017, Note_off_c, 2, 74, 64
3, 47316, Note_on_c, 2, 79, 116
3, 47323, Note_on_c, 2, 82, 120
3, 47345, Note_off_c, 2, 79, 64
3, 47348, Note_on_c, 2, 84, 120
3, 47364, Note_off_c, 2, 82, 64
3, 47430, Note_off_c, 2, 84, 64
3, 47431, Note_on_c, 2, 82, 120
3, 47515, Note_off_c, 2, 82, 64
3, 47517, Note_on_c, 2, 79, 124
3, 47543, Note_off_c, 2, 79, 64
3, 47616, Note_on_c, 2, 63, 56
3, 47616, Note_on_c, 2, 67, 84
3, 47616, Note_on_c, 2, 72, 56
3, 48275, Note_off_c, 2, 63, 64
3, 48291, Note_off_c, 2, 67, 64
3, 48328, Note_off_c, 2, 72, 64
3, 48384, Note_on_c, 2, 69, 80
3, 48384, Note_on_c, 2, 74, 52
3, 48794, Note_off_c, 2, 74, 64
3, 48864, Note_on_c, 2, 74, 100
3, 48865, Note_off_c, 2, 69, 64
3, 48926, Note_off_c, 2, 74, 64
3, 48960, Note_on_c, 2, 72, 88
3, 49048, Note_off_c, 2, 72, 64
3, 49056, Note_on_c, 2, 74, 104
3, 49071, Note_off_c, 2, 74, 64
3, 49152, Note_on_c, 2, 62, 76
3, 49152, Note_on_c, 2, 81, 60
3, 49812, Note_off_c, 2, 81, 64
3, 49824, Note_on_c, 2, 82, 72
3, 49871, Note_off_c, 2, 82, 64
3, 49872, Note_on_c, 2, 81, 96
3, 50309, Note_off_c, 2, 62, 64
3, 50414, Note_off_c, 2, 81, 64
3, 53760, Note_on_c, 2, 63, 56
3, 53760, Note_on_c, 2, 67, 84
3, 53760, Note_on_c, 2, 72, 56
3, 54419, Note_off_c, 2, 63, 64
3, 54435, Note_off_c, 2, 67, 64
3, 54472, Note_off_c, 2, 72, 64
3, 54528, Note_on_c, 2, 69, 80
3, 54528, Note_on_c, 2, 74, 52
3, 54938, Note_off_c, 2, 74, 64
3, 55008, Note_on_c, 2, 74, 100
3, 55009, Note_off_c, 2, 69, 64
3, 55070, Note_off_c, 2, 74, 64
3, 55104, Note_on_c, 2, 72, 88
3, 55192, Note_off_c, 2, 72, 64
3, 55200, Note_on_c, 2, 74, 104
3, 55215, Note_off_c, 2, 74, 64
3, 55296, Note_on_c, 2, 62, 76
3, 55296, Note_on_c, 2, 81, 60
3, 55956, Note_off_c, 2, 81, 64
3, 55968, Note_on_c, 2, 82, 72
3, 56015, Note_off_c, 2, 82, 64
3, 56016, Note_on_c, 2, 81, 96
3, 56453, Note_off_c, 2, 62, 64
3, 56558, Note_off_c, 2, 81, 64
3, 58082, Note_on_c, 2, 79, 100
3, 58088, Note_on_c, 2, 84, 108
3, 58180, Note_off_c, 2, 79, 64
3, 58188, Note_on_c, 2, 82, 84
3, 58189, Note_off_c, 2, 84, 64
3, 58278, Note_off_c, 2, 82, 64
3, 58279, Note_on_c, 2, 79, 104
3, 58298, Note_off_c, 2, 79, 64
3, 59616, Note_on_c, 2, 79, 104
3, 59616, Note_on_c, 2, 84, 104
3, 59684, Note_off_c, 2, 79, 64
3, 59712, Note_on_c, 2, 82, 104
3, 59723, Note_off_c, 2, 84, 64
3, 59802, Note_off_c, 2, 82, 64
3, 59808, Note_on_c, 2, 79, 92
3, 59840, Note_off_c, 2, 79, 64
3, 61152, Note_on_c, 2, 79, 124
3, 61152, Note_on_c, 2, 84, 124
3, 61220, Note_off_c, 2, 79, 64
3, 61248, Note_on_c, 2, 82, 124
3, 61259, Note_off_c, 2, 84, 64
3, 61338, Note_off_c, 2, 82, 64
3, 61344, Note_on_c, 2, 79, 112
3, 61376, Note_off_c, 2, 79, 64
3, 71136, Control_c, 2, 7, 50
3, 71138, Note_on_c, 2, 79, 100
3, 71144, Note_on_c, 2, 84, 108
3, 71236, Note_off_c, 2, 79, 64
3, 71244, Note_on_c, 2, 82, 84
3, 71245, Note_off_c, 2, 84, 64
3, 71334, Note_off_c, 2, 82, 64
3, 71335, Note_on_c, 2, 79, 104
3, 71354, Note_off_c, 2, 79, 64
3, 72480, Control_c, 2, 7, 34
3, 72672, Note_on_c, 2, 79, 104
3, 72672, Note_on_c, 2, 84, 104
3, 72740, Note_off_c, 2, 79, 64
3, 72768, Note_on_c, 2, 82, 104
3, 72779, Note_off_c, 2, 84, 64
3, 72858, Note_off_c, 2, 82, 64
3, 72864, Note_on_c, 2, 79, 92
3, 72896, Note_off_c, 2, 79, 64
3, 74208, Control_c, 2, 7, 12
3, 74210, Note_on_c, 2, 79, 100
3, 74216, Note_on_c, 2, 84, 108
3, 74308, Note_off_c, 2, 79, 64
3, 74316, Note_on_c, 2, 82, 84
3, 74317, Note_off_c, 2, 84, 64
3, 74406, Note_off_c, 2, 82, 64
3, 76032, Control_c, 2, 120, 0
3, 76048, Control_c, 2, 123, 0
3, 76048, End_track
4, 0, Start_track
4, 0, Title_t, "Melody  "
4, 0, Channel_prefix, 3
4, 0, Control_c, 3, 7, 127
4, 0, Control_c, 3, 10, 64
4, 0, Program_c, 3, 0
4, 197, Control_c, 3, 121, 0
4, 214, Control_c, 3, 7, 105
4, 215, Control_c, 3, 10, 64
4, 216, Control_c, 3, 11, 127
4, 244, Pitch_bend_c, 3, 8192
4, 248, Control_c, 3, 93, 15
4, 264, Control_c, 3, 91, 100
4, 308, Control_c, 3, 0, 0
4, 363, Program_c, 3, 65
4, 7579, Note_on_c, 3, 65, 124
4, 7677, Note_off_c, 3, 65, 64
4, 7678, Note_on_c, 3, 67, 124
4, 7715, Note_off_c, 3, 67, 64
4, 7776, Note_on_c, 3, 70, 124
4, 7803, Note_off_c, 3, 70, 64
4, 7876, Note_on_c, 3, 70, 124
4, 7904, Note_off_c, 3, 70, 64
4, 7967, Note_on_c, 3, 67, 120
4, 8141, Note_off_c, 3, 67, 64
4, 8162, Note_on_c, 3, 70, 124
4, 8191, Note_off_c, 3, 70, 64
4, 8250, Note_on_c, 3, 70, 124
4, 8272, Note_off_c, 3, 70, 64
4, 8348, Note_on_c, 3, 67, 124
4, 8513, Note_off_c, 3, 67, 64
4, 8539, Note_on_c, 3, 70, 120
4, 8555, Note_off_c, 3, 70, 64
4, 8631, Note_on_c, 3, 70, 124
4, 8655, Note_off_c, 3, 70, 64
4, 8723, Note_on_c, 3, 67, 112
4, 8805, Note_off_c, 3, 67, 64
4, 8814, Note_on_c, 3, 70, 108
4, 8891, Note_off_c, 3, 70, 64
4, 8897, Pitch_bend_c, 3, 9600
4, 8904, Pitch_bend_c, 3, 10368
4, 8912, Pitch_bend_c, 3, 11904
4, 8920, Pitch_bend_c, 3, 9856
4, 8944, Pitch_bend_c, 3, 8192
4, 9199, Pitch_bend_c, 3, 5888
4, 9207, Pitch_bend_c, 3, 4224
4, 9215, Pitch_bend_c, 3, 2304
4, 9216, Note_on_c, 3, 67, 120
4, 9224, Pitch_bend_c, 3, 1280
4, 9239, Pitch_bend_c, 3, 1920
4, 9246, Pitch_bend_c, 3, 3840
4, 9254, Pitch_bend_c, 3, 6656
4, 9280, Pitch_bend_c, 3, 8192
4, 9312, Note_on_c, 3, 70, 124
4, 9314, Note_off_c, 3, 67, 64
4, 9342, Note_off_c, 3, 70, 64
4, 9408, Note_on_c, 3, 70, 120
4, 9427, Note_off_c, 3, 70, 64
4, 9504, Note_on_c, 3, 67, 112
4, 9671, Note_off_c, 3, 67, 64
4, 9696, Note_on_c, 3, 70, 116
4, 9717, Note_off_c, 3, 70, 64
4, 9792, Note_on_c, 3, 70, 120
4, 9826, Note_off_c, 3, 70, 64
4, 9888, Note_on_c, 3, 67, 116
4, 9957, Note_off_c, 3, 67, 64
4, 9984, Note_on_c, 3, 70, 124
4, 10061, Pitch_bend_c, 3, 9728
4, 10068, Pitch_bend_c, 3, 10368
4, 10076, Pitch_bend_c, 3, 11264
4, 10085, Pitch_bend_c, 3, 12288
4, 10092, Pitch_bend_c, 3, 13056
4, 10100, Note_off_c, 3, 70, 64
4, 10108, Pitch_bend_c, 3, 12160
4, 10115, Pitch_bend_c, 3, 9728
4, 10140, Pitch_bend_c, 3, 8192
4, 10464, Note_on_c, 3, 62, 104
4, 10494, Note_off_c, 3, 62, 64
4, 10512, Note_on_c, 3, 62, 112
4, 10545, Note_off_c, 3, 62, 64
4, 10896, Note_on_c, 3, 67, 108
4, 10930, Note_off_c, 3, 67, 64
4, 10944, Note_on_c, 3, 62, 108
4, 10989, Note_off_c, 3, 62, 64
4, 11136, Note_on_c, 3, 67, 104
4, 11165, Note_off_c, 3, 67, 64
4, 11184, Note_on_c, 3, 67, 104
4, 11256, Note_off_c, 3, 67, 64
4, 11280, Note_on_c, 3, 62, 104
4, 11328, Note_off_c, 3, 62, 64
4, 11616, Note_on_c, 3, 67, 108
4, 11636, Note_off_c, 3, 67, 64
4, 11664, Note_on_c, 3, 67, 96
4, 11691, Note_off_c, 3, 67, 64
4, 11712, Note_on_c, 3, 67, 108
4, 11733, Note_off_c, 3, 67, 64
4, 11760, Note_on_c, 3, 67, 104
4, 11787, Note_off_c, 3, 67, 64
4, 11808, Note_on_c, 3, 67, 108
4, 11828, Note_off_c, 3, 67, 64
4, 11904, Note_on_c, 3, 70, 124
4, 12015, Note_off_c, 3, 70, 64
4, 12294, Note_on_c, 3, 70, 124
4, 12331, Note_off_c, 3, 70, 64
4, 12391, Note_on_c, 3, 70, 120
4, 12420, Note_off_c, 3, 70, 64
4, 12485, Note_on_c, 3, 70, 124
4, 12515, Note_off_c, 3, 70, 64
4, 12579, Note_on_c, 3, 70, 124
4, 12618, Note_off_c, 3, 70, 64
4, 12674, Note_on_c, 3, 67, 124
4, 12704, Note_off_c, 3, 67, 64
4, 12770, Note_on_c, 3, 67, 124
4, 12835, Note_off_c, 3, 67, 64
4, 12956, Note_on_c, 3, 68, 116
4, 12965, Note_on_c, 3, 69, 120
4, 12977, Note_off_c, 3, 68, 64
4, 13033, Note_off_c, 3, 69, 64
4, 13152, Note_on_c, 3, 67, 120
4, 13292, Note_off_c, 3, 67, 64
4, 13826, Note_on_c, 3, 70, 124
4, 13878, Note_off_c, 3, 70, 64
4, 13925, Note_on_c, 3, 70, 124
4, 13956, Note_off_c, 3, 70, 64
4, 14020, Note_on_c, 3, 70, 124
4, 14050, Note_off_c, 3, 70, 64
4, 14113, Note_on_c, 3, 70, 124
4, 14152, Note_off_c, 3, 70, 64
4, 14208, Note_on_c, 3, 67, 120
4, 14254, Note_off_c, 3, 67, 64
4, 14305, Note_on_c, 3, 67, 124
4, 14370, Note_off_c, 3, 67, 64
4, 14489, Note_on_c, 3, 69, 108
4, 14493, Pitch_bend_c, 3, 6528
4, 14503, Pitch_bend_c, 3, 5760
4, 14542, Pitch_bend_c, 3, 6528
4, 14563, Pitch_bend_c, 3, 8192
4, 14687, Note_off_c, 3, 69, 64
4, 14689, Note_on_c, 3, 67, 108
4, 14752, Note_off_c, 3, 67, 64
4, 15361, Note_on_c, 3, 70, 124
4, 15403, Note_off_c, 3, 70, 64
4, 15456, Note_on_c, 3, 70, 124
4, 15488, Note_off_c, 3, 70, 64
4, 15554, Note_on_c, 3, 70, 124
4, 15587, Note_off_c, 3, 70, 64
4, 15647, Note_on_c, 3, 70, 124
4, 15704, Note_off_c, 3, 70, 64
4, 15747, Note_on_c, 3, 67, 120
4, 15793, Note_off_c, 3, 67, 64
4, 15842, Note_on_c, 3, 67, 112
4, 15908, Note_off_c, 3, 67, 64
4, 16030, Note_on_c, 3, 68, 124
4, 16044, Note_on_c, 3, 69, 112
4, 16051, Note_off_c, 3, 68, 64
4, 16155, Note_off_c, 3, 69, 64
4, 16225, Note_on_c, 3, 67, 112
4, 16323, Note_off_c, 3, 67, 64
4, 16897, Note_on_c, 3, 61, 124
4, 16906, Note_on_c, 3, 62, 124
4, 16915, Note_off_c, 3, 61, 64
4, 16974, Note_off_c, 3, 62, 64
4, 16987, Note_on_c, 3, 60, 108
4, 17047, Note_off_c, 3, 60, 64
4, 17086, Note_on_c, 3, 60, 116
4, 17181, Note_off_c, 3, 60, 64
4, 17186, Note_on_c, 3, 62, 112
4, 17249, Note_off_c, 3, 62, 64
4, 17277, Note_on_c, 3, 60, 112
4, 17370, Note_off_c, 3, 60, 64
4, 17380, Note_on_c, 3, 58, 112
4, 17482, Note_off_c, 3, 58, 64
4, 17543, Pitch_bend_c, 3, 6016
4, 17558, Pitch_bend_c, 3, 3200
4, 17569, Note_on_c, 3, 55, 112
4, 17573, Pitch_bend_c, 3, 2304
4, 17589, Pitch_bend_c, 3, 3840
4, 17598, Pitch_bend_c, 3, 6656
4, 17620, Pitch_bend_c, 3, 8192
4, 17781, Control_c, 3, 1, 18
4, 17818, Control_c, 3, 1, 30
4, 17905, Control_c, 3, 1, 48
4, 18165, Control_c, 3, 1, 32
4, 18216, Control_c, 3, 1, 18
4, 18289, Control_c, 3, 1, 0
4, 18458, Note_off_c, 3, 55, 64
4, 19197, Note_on_c, 3, 69, 116
4, 19248, Note_off_c, 3, 69, 64
4, 19295, Note_on_c, 3, 69, 120
4, 19332, Note_off_c, 3, 69, 64
4, 19388, Note_on_c, 3, 69, 120
4, 19420, Note_off_c, 3, 69, 64
4, 19485, Note_on_c, 3, 69, 120
4, 19517, Note_off_c, 3, 69, 64
4, 19586, Note_on_c, 3, 69, 120
4, 19617, Note_off_c, 3, 69, 64
4, 19682, Note_on_c, 3, 69, 120
4, 19717, Note_off_c, 3, 69, 64
4, 19778, Note_on_c, 3, 69, 120
4, 19830, Note_off_c, 3, 69, 64
4, 19868, Pitch_bend_c, 3, 6016
4, 19876, Note_on_c, 3, 67, 120
4, 19881, Pitch_bend_c, 3, 3328
4, 19911, Pitch_bend_c, 3, 4224
4, 19918, Pitch_bend_c, 3, 6400
4, 19943, Pitch_bend_c, 3, 8192
4, 19966, Note_off_c, 3, 67, 64
4, 20161, Note_on_c, 3, 69, 120
4, 20232, Note_off_c, 3, 69, 64
4, 20258, Note_on_c, 3, 67, 124
4, 20319, Note_off_c, 3, 67, 64
4, 20719, Pitch_bend_c, 3, 5888
4, 20733, Pitch_bend_c, 3, 4224
4, 20735, Note_on_c, 3, 69, 120
4, 20764, Pitch_bend_c, 3, 6400
4, 20789, Pitch_bend_c, 3, 8192
4, 20800, Note_off_c, 3, 69, 64
4, 20833, Note_on_c, 3, 69, 112
4, 20879, Note_off_c, 3, 69, 64
4, 20927, Note_on_c, 3, 69, 120
4, 20968, Note_off_c, 3, 69, 64
4, 21025, Note_on_c, 3, 69, 120
4, 21069, Note_off_c, 3, 69, 64
4, 21123, Note_on_c, 3, 69, 116
4, 21169, Note_off_c, 3, 69, 64
4, 21215, Note_on_c, 3, 69, 112
4, 21270, Note_off_c, 3, 69, 64
4, 21311, Note_on_c, 3, 69, 112
4, 21390, Note_off_c, 3, 69, 64
4, 21409, Note_on_c, 3, 67, 120
4, 21480, Note_off_c, 3, 67, 64
4, 22247, Pitch_bend_c, 3, 6656
4, 22269, Pitch_bend_c, 3, 3840
4, 22273, Note_on_c, 3, 67, 124
4, 22305, Pitch_bend_c, 3, 6400
4, 22331, Pitch_bend_c, 3, 8192
4, 22350, Note_off_c, 3, 67, 64
4, 22365, Note_on_c, 3, 70, 124
4, 22388, Note_off_c, 3, 70, 64
4, 22465, Note_on_c, 3, 70, 124
4, 22482, Note_off_c, 3, 70, 64
4, 22562, Note_on_c, 3, 67, 124
4, 22724, Note_off_c, 3, 67, 64
4, 22748, Note_on_c, 3, 70, 124
4, 22775, Note_off_c, 3, 70, 64
4, 22851, Note_on_c, 3, 70, 116
4, 22864, Note_off_c, 3, 70, 64
4, 22944, Note_on_c, 3, 67, 124
4, 23099, Note_off_c, 3, 67, 64
4, 23136, Note_on_c, 3, 70, 124
4, 23159, Note_off_c, 3, 70, 64
4, 23235, Note_on_c, 3, 70, 124
4, 23253, Note_off_c, 3, 70, 64
4, 23316, Pitch_bend_c, 3, 5760
4, 23322, Note_on_c, 3, 67, 124
4, 23332, Pitch_bend_c, 3, 3584
4, 23340, Pitch_bend_c, 3, 3200
4, 23359, Pitch_bend_c, 3, 4224
4, 23370, Pitch_bend_c, 3, 6656
4, 23393, Pitch_bend_c, 3, 8192
4, 23401, Note_off_c, 3, 67, 64
4, 23410, Note_on_c, 3, 70, 124
4, 23431, Note_off_c, 3, 70, 64
4, 23909, Note_on_c, 3, 67, 112
4, 23927, Note_off_c, 3, 67, 64
4, 23960, Note_on_c, 3, 67, 104
4, 23988, Note_off_c, 3, 67, 64
4, 24054, Note_on_c, 3, 67, 116
4, 24074, Note_off_c, 3, 67, 64
4, 24098, Note_on_c, 3, 67, 116
4, 24130, Note_off_c, 3, 67, 64
4, 24190, Note_on_c, 3, 67, 112
4, 24211, Note_off_c, 3, 67, 64
4, 24237, Note_on_c, 3, 67, 108
4, 24269, Note_off_c, 3, 67, 64
4, 24334, Note_on_c, 3, 67, 108
4, 24353, Note_off_c, 3, 67, 64
4, 24383, Note_on_c, 3, 67, 108
4, 24416, Note_off_c, 3, 67, 64
4, 24476, Note_on_c, 3, 67, 108
4, 24502, Note_off_c, 3, 67, 64
4, 24528, Note_on_c, 3, 67, 112
4, 24561, Note_off_c, 3, 67, 64
4, 24627, Note_on_c, 3, 65, 120
4, 24728, Pitch_bend_c, 3, 6656
4, 24733, Note_off_c, 3, 65, 64
4, 24737, Pitch_bend_c, 3, 5888
4, 24753, Pitch_bend_c, 3, 3840
4, 24760, Pitch_bend_c, 3, 3200
4, 24767, Pitch_bend_c, 3, 3968
4, 24776, Pitch_bend_c, 3, 6400
4, 24799, Pitch_bend_c, 3, 8192
4, 25433, Pitch_bend_c, 3, 6144
4, 25441, Pitch_bend_c, 3, 4096
4, 25442, Note_on_c, 3, 67, 120
4, 25450, Pitch_bend_c, 3, 3200
4, 25493, Pitch_bend_c, 3, 6400
4, 25517, Pitch_bend_c, 3, 8192
4, 25571, Note_off_c, 3, 67, 64
4, 25600, Note_on_c, 3, 67, 104
4, 25608, Pitch_bend_c, 3, 6400
4, 25616, Pitch_bend_c, 3, 5760
4, 25645, Pitch_bend_c, 3, 6400
4, 25667, Pitch_bend_c, 3, 8192
4, 25708, Note_off_c, 3, 67, 64
4, 25734, Note_on_c, 3, 65, 108
4, 25896, Note_off_c, 3, 65, 64
4, 26017, Note_on_c, 3, 65, 112
4, 26075, Note_off_c, 3, 65, 64
4, 26079, Note_on_c, 3, 62, 92
4, 26117, Note_off_c, 3, 62, 64
4, 26155, Note_on_c, 3, 65, 120
4, 26195, Note_off_c, 3, 65, 64
4, 26239, Note_on_c, 3, 65, 112
4, 26288, Note_off_c, 3, 65, 64
4, 26328, Note_on_c, 3, 65, 112
4, 26386, Note_off_c, 3, 65, 64
4, 26426, Note_on_c, 3, 62, 112
4, 26547, Pitch_bend_c, 3, 6272
4, 26585, Note_off_c, 3, 62, 64
4, 26590, Pitch_bend_c, 3, 6656
4, 26614, Pitch_bend_c, 3, 8192
4, 26854, Pitch_bend_c, 3, 5760
4, 26865, Pitch_bend_c, 3, 3456
4, 26875, Pitch_bend_c, 3, 1408
4, 26879, Note_on_c, 3, 62, 120
4, 26900, Pitch_bend_c, 3, 4224
4, 26908, Pitch_bend_c, 3, 6528
4, 26937, Pitch_bend_c, 3, 8192
4, 26946, Note_off_c, 3, 62, 64
4, 26970, Note_on_c, 3, 62, 96
4, 27024, Note_off_c, 3, 62, 64
4, 27069, Note_on_c, 3, 62, 112
4, 27119, Note_off_c, 3, 62, 64
4, 27163, Note_on_c, 3, 62, 112
4, 27230, Note_off_c, 3, 62, 64
4, 27267, Note_on_c, 3, 60, 124
4, 27308, Note_off_c, 3, 60, 64
4, 27355, Note_on_c, 3, 60, 124
4, 27455, Note_off_c, 3, 60, 64
4, 27544, Pitch_bend_c, 3, 5760
4, 27545, Note_on_c, 3, 60, 124
4, 27568, Pitch_bend_c, 3, 3328
4, 27597, Pitch_bend_c, 3, 6656
4, 27620, Pitch_bend_c, 3, 8192
4, 27729, Note_off_c, 3, 60, 64
4, 27729, Note_on_c, 3, 58, 112
4, 27782, Note_off_c, 3, 58, 64
4, 27782, Note_on_c, 3, 55, 120
4, 27874, Note_off_c, 3, 55, 64
4, 28388, Pitch_bend_c, 3, 6016
4, 28400, Pitch_bend_c, 3, 3200
4, 28411, Pitch_bend_c, 3, 1920
4, 28412, Note_on_c, 3, 65, 124
4, 28429, Pitch_bend_c, 3, 4096
4, 28437, Pitch_bend_c, 3, 6528
4, 28461, Pitch_bend_c, 3, 8192
4, 28479, Note_off_c, 3, 65, 64
4, 28512, Note_on_c, 3, 65, 108
4, 28561, Note_off_c, 3, 65, 64
4, 28612, Note_on_c, 3, 65, 108
4, 28645, Note_off_c, 3, 65, 64
4, 28705, Note_on_c, 3, 65, 104
4, 28751, Note_off_c, 3, 65, 64
4, 28798, Note_on_c, 3, 62, 108
4, 28855, Note_off_c, 3, 62, 64
4, 28884, Note_on_c, 3, 65, 116
4, 29037, Note_off_c, 3, 65, 64
4, 29074, Pitch_bend_c, 3, 6272
4, 29075, Note_on_c, 3, 64, 120
4, 29090, Pitch_bend_c, 3, 6528
4, 29121, Pitch_bend_c, 3, 8192
4, 29244, Note_off_c, 3, 64, 64
4, 29257, Note_on_c, 3, 62, 92
4, 29291, Note_off_c, 3, 62, 64
4, 29296, Note_on_c, 3, 60, 116
4, 29336, Note_off_c, 3, 60, 64
4, 29935, Pitch_bend_c, 3, 5888
4, 29954, Note_on_c, 3, 70, 124
4, 29971, Pitch_bend_c, 3, 6400
4, 29998, Pitch_bend_c, 3, 8192
4, 30015, Note_off_c, 3, 70, 64
4, 30056, Note_on_c, 3, 70, 124
4, 30092, Note_off_c, 3, 70, 64
4, 30147, Note_on_c, 3, 70, 124
4, 30176, Note_off_c, 3, 70, 64
4, 30241, Note_on_c, 3, 70, 124
4, 30286, Note_off_c, 3, 70, 64
4, 30333, Note_on_c, 3, 67, 124
4, 30387, Note_off_c, 3, 67, 64
4, 30432, Note_on_c, 3, 67, 124
4, 30496, Note_off_c, 3, 67, 64
4, 30626, Note_on_c, 3, 67, 124
4, 30725, Note_off_c, 3, 67, 64
4, 30808, Note_on_c, 3, 67, 120
4, 30910, Note_off_c, 3, 67, 64
4, 31492, Pitch_bend_c, 3, 3968
4, 31498, Note_on_c, 3, 74, 124
4, 31501, Pitch_bend_c, 3, 1408
4, 31533, Pitch_bend_c, 3, 3840
4, 31541, Pitch_bend_c, 3, 6656
4, 31564, Pitch_bend_c, 3, 8192
4, 31590, Note_on_c, 3, 72, 120
4, 31596, Note_off_c, 3, 74, 64
4, 31638, Note_off_c, 3, 72, 64
4, 31686, Note_on_c, 3, 72, 124
4, 31783, Note_off_c, 3, 72, 64
4, 31787, Note_on_c, 3, 74, 116
4, 31833, Note_off_c, 3, 74, 64
4, 31883, Note_on_c, 3, 72, 124
4, 31984, Note_off_c, 3, 72, 64
4, 31986, Note_on_c, 3, 70, 124
4, 32084, Note_off_c, 3, 70, 64
4, 32122, Pitch_bend_c, 3, 5888
4, 32135, Pitch_bend_c, 3, 3200
4, 32143, Pitch_bend_c, 3, 1280
4, 32165, Pitch_bend_c, 3, 0
4, 32166, Note_on_c, 3, 67, 124
4, 32179, Pitch_bend_c, 3, 3200
4, 32186, Pitch_bend_c, 3, 6528
4, 32213, Pitch_bend_c, 3, 8192
4, 32429, Control_c, 3, 1, 28
4, 32501, Control_c, 3, 1, 49
4, 32978, Control_c, 3, 1, 0
4, 33174, Note_off_c, 3, 67, 64
4, 33887, Note_on_c, 3, 69, 120
4, 33924, Note_off_c, 3, 69, 64
4, 33980, Note_on_c, 3, 69, 120
4, 34012, Note_off_c, 3, 69, 64
4, 34077, Note_on_c, 3, 69, 120
4, 34109, Note_off_c, 3, 69, 64
4, 34178, Note_on_c, 3, 69, 120
4, 34209, Note_off_c, 3, 69, 64
4, 34274, Note_on_c, 3, 69, 120
4, 34309, Note_off_c, 3, 69, 64
4, 34370, Note_on_c, 3, 69, 120
4, 34422, Note_off_c, 3, 69, 64
4, 34460, Pitch_bend_c, 3, 6016
4, 34468, Note_on_c, 3, 67, 120
4, 34473, Pitch_bend_c, 3, 3328
4, 34503, Pitch_bend_c, 3, 4224
4, 34510, Pitch_bend_c, 3, 6400
4, 34535, Pitch_bend_c, 3, 8192
4, 34558, Note_off_c, 3, 67, 64
4, 34753, Note_on_c, 3, 69, 120
4, 34824, Note_off_c, 3, 69, 64
4, 34850, Note_on_c, 3, 67, 124
4, 34911, Note_off_c, 3, 67, 64
4, 35311, Pitch_bend_c, 3, 5888
4, 35327, Note_on_c, 3, 69, 120
4, 35334, Pitch_bend_c, 3, 3968
4, 35356, Pitch_bend_c, 3, 6400
4, 35381, Pitch_bend_c, 3, 8192
4, 35392, Note_off_c, 3, 69, 64
4, 35425, Note_on_c, 3, 69, 112
4, 35471, Note_off_c, 3, 69, 64
4, 35519, Note_on_c, 3, 69, 120
4, 35560, Note_off_c, 3, 69, 64
4, 35617, Note_on_c, 3, 69, 120
4, 35661, Note_off_c, 3, 69, 64
4, 35715, Note_on_c, 3, 69, 116
4, 35761, Note_off_c, 3, 69, 64
4, 35807, Note_on_c, 3, 69, 112
4, 35862, Note_off_c, 3, 69, 64
4, 35903, Note_on_c, 3, 69, 112
4, 35982, Note_off_c, 3, 69, 64
4, 36001, Note_on_c, 3, 67, 120
4, 36072, Note_off_c, 3, 67, 64
4, 36839, Pitch_bend_c, 3, 6656
4, 36861, Pitch_bend_c, 3, 3840
4, 42901, Pitch_bend_c, 3, 8064
4, 42906, Note_on_c, 3, 74, 120
4, 42915, Pitch_bend_c, 3, 6016
4, 42927, Pitch_bend_c, 3, 3584
4, 42954, Pitch_bend_c, 3, 6656
4, 42978, Pitch_bend_c, 3, 8192
4, 43155, Pitch_bend_c, 3, 6400
4, 43163, Pitch_bend_c, 3, 5888
4, 43173, Note_off_c, 3, 74, 64
4, 43185, Pitch_bend_c, 3, 3840
4, 43209, Pitch_bend_c, 3, 6656
4, 43232, Pitch_bend_c, 3, 8192
4, 43294, Note_on_c, 3, 78, 124
4, 43310, Pitch_bend_c, 3, 5760
4, 43319, Pitch_bend_c, 3, 3968
4, 43341, Pitch_bend_c, 3, 6528
4, 43365, Pitch_bend_c, 3, 8192
4, 43580, Note_off_c, 3, 78, 64
4, 43647, Pitch_bend_c, 3, 6016
4, 43656, Note_on_c, 3, 78, 124
4, 43669, Pitch_bend_c, 3, 3200
4, 43685, Pitch_bend_c, 3, 2304
4, 43697, Pitch_bend_c, 3, 4224
4, 43706, Pitch_bend_c, 3, 6656
4, 43728, Pitch_bend_c, 3, 8192
4, 43854, Note_off_c, 3, 78, 64
4, 43856, Note_on_c, 3, 74, 120
4, 43866, Pitch_bend_c, 3, 6528
4, 43873, Pitch_bend_c, 3, 5760
4, 43882, Pitch_bend_c, 3, 4224
4, 43904, Pitch_bend_c, 3, 6656
4, 43927, Pitch_bend_c, 3, 8192
4, 43958, Pitch_bend_c, 3, 6400
4, 43971, Pitch_bend_c, 3, 3328
4, 43989, Pitch_bend_c, 3, 4096
4, 43998, Pitch_bend_c, 3, 6656
4, 44023, Pitch_bend_c, 3, 8192
4, 44061, Pitch_bend_c, 3, 3328
4, 44076, Pitch_bend_c, 3, 1280
4, 44101, Pitch_bend_c, 3, 6272
4, 44131, Pitch_bend_c, 3, 8192
4, 44158, Pitch_bend_c, 3, 6528
4, 44166, Pitch_bend_c, 3, 3840
4, 44174, Pitch_bend_c, 3, 2048
4, 44189, Pitch_bend_c, 3, 1280
4, 44204, Pitch_bend_c, 3, 4096
4, 44213, Pitch_bend_c, 3, 6400
4, 44238, Pitch_bend_c, 3, 8192
4, 44332, Pitch_bend_c, 3, 5888
4, 44341, Pitch_bend_c, 3, 4224
4, 44348, Pitch_bend_c, 3, 3328
4, 44356, Pitch_bend_c, 3, 2304
4, 44363, Pitch_bend_c, 3, 3584
4, 44371, Note_off_c, 3, 74, 64
4, 44372, Pitch_bend_c, 3, 6656
4, 44396, Pitch_bend_c, 3, 8192
4, 44602, Pitch_bend_c, 3, 6656
4, 44611, Pitch_bend_c, 3, 5760
4, 44631, Pitch_bend_c, 3, 4096
4, 44632, Note_on_c, 3, 74, 112
4, 44648, Pitch_bend_c, 3, 3200
4, 44683, Pitch_bend_c, 3, 6400
4, 44706, Pitch_bend_c, 3, 8192
4, 44710, Note_off_c, 3, 74, 64
4, 44733, Pitch_bend_c, 3, 5888
4, 44734, Note_on_c, 3, 74, 112
4, 44754, Pitch_bend_c, 3, 3968
4, 44778, Pitch_bend_c, 3, 6272
4, 44799, Pitch_bend_c, 3, 8192
4, 44810, Note_off_c, 3, 74, 64
4, 44835, Note_on_c, 3, 74, 108
4, 44850, Pitch_bend_c, 3, 6400
4, 44894, Pitch_bend_c, 3, 8192
4, 44974, Note_off_c, 3, 74, 64
4, 44988, Pitch_bend_c, 3, 6272
4, 45014, Note_on_c, 3, 74, 112
4, 45030, Pitch_bend_c, 3, 6528
4, 45057, Pitch_bend_c, 3, 8192
4, 45083, Note_off_c, 3, 74, 64
4, 45110, Pitch_bend_c, 3, 6656
4, 45118, Note_on_c, 3, 74, 112
4, 45118, Pitch_bend_c, 3, 5888
4, 45150, Pitch_bend_c, 3, 6656
4, 45177, Pitch_bend_c, 3, 8192
4, 45186, Note_off_c, 3, 74, 64
4, 45225, Note_on_c, 3, 74, 116
4, 45314, Note_off_c, 3, 74, 64
4, 45350, Note_on_c, 3, 74, 112
4, 45472, Note_off_c, 3, 74, 64
4, 45472, Note_on_c, 3, 72, 76
4, 45532, Note_off_c, 3, 72, 64
4, 45555, Note_on_c, 3, 74, 108
4, 45660, Pitch_bend_c, 3, 6400
4, 45667, Pitch_bend_c, 3, 6144
4, 45702, Pitch_bend_c, 3, 6528
4, 45724, Pitch_bend_c, 3, 8192
4, 45739, Note_off_c, 3, 74, 64
4, 46071, Pitch_bend_c, 3, 5760
4, 46078, Note_on_c, 3, 67, 124
4, 46091, Pitch_bend_c, 3, 4096
4, 46118, Pitch_bend_c, 3, 6400
4, 46141, Pitch_bend_c, 3, 8192
4, 46173, Note_on_c, 3, 70, 124
4, 46177, Note_off_c, 3, 67, 64
4, 46200, Note_off_c, 3, 70, 64
4, 46277, Note_on_c, 3, 70, 120
4, 46290, Note_off_c, 3, 70, 64
4, 46365, Note_on_c, 3, 67, 124
4, 46370, Pitch_bend_c, 3, 6400
4, 46384, Pitch_bend_c, 3, 3200
4, 46422, Pitch_bend_c, 3, 6656
4, 46446, Pitch_bend_c, 3, 8192
4, 46555, Note_on_c, 3, 70, 124
4, 46558, Note_off_c, 3, 67, 64
4, 46579, Note_off_c, 3, 70, 64
4, 46650, Note_on_c, 3, 70, 124
4, 46675, Note_off_c, 3, 70, 64
4, 46739, Note_on_c, 3, 67, 124
4, 46792, Pitch_bend_c, 3, 5888
4, 46810, Pitch_bend_c, 3, 3584
4, 46838, Pitch_bend_c, 3, 4224
4, 46845, Pitch_bend_c, 3, 6528
4, 46854, Note_on_c, 3, 70, 124
4, 46858, Note_off_c, 3, 67, 64
4, 46871, Pitch_bend_c, 3, 8192
4, 46882, Note_off_c, 3, 70, 64
4, 47412, Note_on_c, 3, 65, 92
4, 47427, Note_on_c, 3, 67, 112
4, 47440, Note_off_c, 3, 65, 64
4, 47505, Note_off_c, 3, 67, 64
4, 47519, Note_on_c, 3, 65, 104
4, 47555, Note_off_c, 3, 65, 64
4, 47720, Note_on_c, 3, 67, 120
4, 47804, Note_off_c, 3, 67, 64
4, 47856, Note_on_c, 3, 67, 116
4, 47892, Note_off_c, 3, 67, 64
4, 47952, Note_on_c, 3, 67, 96
4, 48000, Note_on_c, 3, 65, 112
4, 48001, Note_off_c, 3, 67, 64
4, 48106, Note_off_c, 3, 65, 64
4, 48384, Note_on_c, 3, 65, 120
4, 48463, Note_off_c, 3, 65, 64
4, 48480, Note_on_c, 3, 65, 112
4, 48534, Note_off_c, 3, 65, 64
4, 48576, Note_on_c, 3, 65, 112
4, 48614, Note_off_c, 3, 65, 64
4, 48624, Note_on_c, 3, 65, 108
4, 48673, Note_off_c, 3, 65, 64
4, 48720, Note_on_c, 3, 62, 112
4, 48823, Pitch_bend_c, 3, 6656
4, 48839, Pitch_bend_c, 3, 5760
4, 48856, Note_off_c, 3, 62, 64
4, 48899, Pitch_bend_c, 3, 8192
4, 49056, Note_on_c, 3, 62, 124
4, 49350, Note_off_c, 3, 62, 64
4, 49440, Note_on_c, 3, 66, 124
4, 49467, Pitch_bend_c, 3, 6656
4, 49475, Pitch_bend_c, 3, 6016
4, 49511, Pitch_bend_c, 3, 6656
4, 49535, Pitch_bend_c, 3, 8192
4, 49755, Note_off_c, 3, 66, 64
4, 49796, Pitch_bend_c, 3, 6016
4, 49811, Pitch_bend_c, 3, 3456
4, 49824, Note_on_c, 3, 69, 120
4, 49829, Pitch_bend_c, 3, 2176
4, 49846, Pitch_bend_c, 3, 3840
4, 49856, Pitch_bend_c, 3, 6656
4, 49879, Pitch_bend_c, 3, 8192
4, 50156, Control_c, 3, 1, 28
4, 50497, Note_off_c, 3, 69, 64
4, 50517, Control_c, 3, 1, 0
4, 50776, Pitch_bend_c, 3, 5888
4, 50784, Note_on_c, 3, 70, 124
4, 50789, Pitch_bend_c, 3, 3328
4, 50808, Pitch_bend_c, 3, 1920
4, 50825, Pitch_bend_c, 3, 3840
4, 50854, Note_off_c, 3, 70, 64
4, 50857, Pitch_bend_c, 3, 8192
4, 50880, Note_on_c, 3, 70, 124
4, 50896, Pitch_bend_c, 3, 3712
4, 50919, Pitch_bend_c, 3, 6656
4, 50942, Note_off_c, 3, 70, 64
4, 50944, Pitch_bend_c, 3, 8192
4, 50976, Note_on_c, 3, 70, 124
4, 51109, Note_off_c, 3, 70, 64
4, 51162, Note_on_c, 3, 70, 124
4, 51215, Note_off_c, 3, 70, 64
4, 51254, Note_on_c, 3, 70, 120
4, 51312, Note_off_c, 3, 70, 64
4, 51355, Note_on_c, 3, 70, 124
4, 51436, Note_off_c, 3, 70, 64
4, 51443, Note_on_c, 3, 67, 112
4, 51497, Note_off_c, 3, 67, 64
4, 51542, Note_on_c, 3, 67, 120
4, 51652, Note_off_c, 3, 67, 64
4, 52231, Note_on_c, 3, 67, 124
4, 52320, Note_off_c, 3, 67, 64
4, 52327, Note_on_c, 3, 70, 124
4, 52355, Note_off_c, 3, 70, 64
4, 52429, Note_on_c, 3, 70, 120
4, 52446, Note_off_c, 3, 70, 64
4, 52510, Note_on_c, 3, 67, 124
4, 52688, Note_off_c, 3, 67, 64
4, 52704, Note_on_c, 3, 70, 124
4, 52729, Note_off_c, 3, 70, 64
4, 52800, Note_on_c, 3, 70, 120
4, 52832, Note_off_c, 3, 70, 64
4, 52888, Note_on_c, 3, 67, 116
4, 52957, Note_off_c, 3, 67, 64
4, 52966, Note_on_c, 3, 70, 100
4, 53118, Note_off_c, 3, 70, 64
4, 53482, Note_on_c, 3, 67, 112
4, 53562, Note_off_c, 3, 67, 64
4, 53630, Note_on_c, 3, 67, 120
4, 53676, Note_off_c, 3, 67, 64
4, 53698, Note_on_c, 3, 67, 108
4, 53746, Note_off_c, 3, 67, 64
4, 53781, Note_on_c, 3, 67, 112
4, 53912, Note_off_c, 3, 67, 64
4, 53946, Note_on_c, 3, 67, 112
4, 54000, Note_off_c, 3, 67, 64
4, 54024, Note_on_c, 3, 67, 112
4, 54079, Note_off_c, 3, 67, 64
4, 54095, Note_on_c, 3, 65, 116
4, 54228, Note_off_c, 3, 65, 64
4, 54356, Note_on_c, 3, 67, 116
4, 54437, Note_off_c, 3, 67, 64
4, 54551, Note_on_c, 3, 65, 108
4, 54627, Note_off_c, 3, 65, 64
4, 54666, Note_on_c, 3, 65, 116
4, 54715, Note_off_c, 3, 65, 64
4, 54752, Note_on_c, 3, 65, 116
4, 54805, Note_off_c, 3, 65, 64
4, 54821, Note_on_c, 3, 62, 116
4, 54944, Note_off_c, 3, 62, 64
4, 55248, Note_on_c, 3, 62, 124
4, 55534, Note_off_c, 3, 62, 64
4, 55584, Note_on_c, 3, 66, 124
4, 55899, Note_off_c, 3, 66, 64
4, 55968, Note_on_c, 3, 69, 120
4, 56641, Note_off_c, 3, 69, 64
4, 56828, Note_on_c, 3, 74, 120
4, 56925, Note_off_c, 3, 74, 64
4, 56939, Note_on_c, 3, 72, 120
4, 56983, Note_off_c, 3, 72, 64
4, 57033, Note_on_c, 3, 72, 124
4, 57113, Note_off_c, 3, 72, 64
4, 57123, Note_on_c, 3, 70, 124
4, 57152, Note_off_c, 3, 70, 64
4, 57214, Note_on_c, 3, 72, 124
4, 57273, Note_off_c, 3, 72, 64
4, 57316, Note_on_c, 3, 72, 124
4, 57419, Note_off_c, 3, 72, 64
4, 57492, Note_on_c, 3, 72, 124
4, 57663, Note_off_c, 3, 72, 64
4, 57665, Note_on_c, 3, 70, 124
4, 57701, Note_off_c, 3, 70, 64
4, 57710, Note_on_c, 3, 67, 120
4, 57760, Note_off_c, 3, 67, 64
4, 58372, Note_on_c, 3, 70, 124
4, 58440, Note_off_c, 3, 70, 64
4, 58462, Note_on_c, 3, 70, 104
4, 58512, Note_off_c, 3, 70, 64
4, 58565, Note_on_c, 3, 70, 124
4, 58604, Note_off_c, 3, 70, 64
4, 58650, Note_on_c, 3, 70, 124
4, 58694, Note_off_c, 3, 70, 64
4, 58752, Note_on_c, 3, 67, 120
4, 58795, Note_off_c, 3, 67, 64
4, 58842, Note_on_c, 3, 67, 112
4, 58972, Note_off_c, 3, 67, 64
4, 59025, Note_on_c, 3, 69, 120
4, 59209, Note_on_c, 3, 67, 112
4, 59213, Note_off_c, 3, 69, 64
4, 59247, Note_off_c, 3, 67, 64
4, 59248, Note_on_c, 3, 64, 124
4, 59305, Note_off_c, 3, 64, 64
4, 59905, Note_on_c, 3, 70, 124
4, 59976, Note_off_c, 3, 70, 64
4, 60004, Note_on_c, 3, 70, 120
4, 60051, Note_off_c, 3, 70, 64
4, 60097, Note_on_c, 3, 70, 124
4, 60137, Note_off_c, 3, 70, 64
4, 60190, Note_on_c, 3, 67, 116
4, 60236, Note_off_c, 3, 67, 64
4, 60294, Note_on_c, 3, 67, 120
4, 60332, Note_off_c, 3, 67, 64
4, 60390, Note_on_c, 3, 67, 124
4, 60481, Note_off_c, 3, 67, 64
4, 60559, Note_on_c, 3, 69, 116
4, 60734, Note_off_c, 3, 69, 64
4, 60735, Note_on_c, 3, 67, 112
4, 60767, Note_off_c, 3, 67, 64
4, 60775, Note_on_c, 3, 64, 116
4, 60816, Note_off_c, 3, 64, 64
4, 61441, Note_on_c, 3, 74, 116
4, 61524, Note_off_c, 3, 74, 64
4, 61535, Note_on_c, 3, 72, 112
4, 61581, Note_off_c, 3, 72, 64
4, 61628, Note_on_c, 3, 72, 120
4, 61717, Note_off_c, 3, 72, 64
4, 61726, Note_on_c, 3, 74, 112
4, 61795, Note_off_c, 3, 74, 64
4, 61818, Note_on_c, 3, 72, 116
4, 61911, Note_off_c, 3, 72, 64
4, 61922, Note_on_c, 3, 70, 100
4, 62054, Note_off_c, 3, 70, 64
4, 62104, Note_on_c, 3, 74, 124
4, 63725, Note_off_c, 3, 74, 64
4, 63744, Note_on_c, 3, 69, 124
4, 63806, Note_off_c, 3, 69, 64
4, 63841, Note_on_c, 3, 69, 120
4, 63875, Note_off_c, 3, 69, 64
4, 63924, Note_on_c, 3, 69, 124
4, 63963, Note_off_c, 3, 69, 64
4, 64024, Note_on_c, 3, 69, 120
4, 64063, Note_off_c, 3, 69, 64
4, 64120, Note_on_c, 3, 69, 116
4, 64184, Note_off_c, 3, 69, 64
4, 64222, Note_on_c, 3, 69, 124
4, 64264, Note_off_c, 3, 69, 64
4, 64316, Note_on_c, 3, 69, 112
4, 64364, Note_off_c, 3, 69, 64
4, 64418, Note_on_c, 3, 67, 124
4, 64460, Note_off_c, 3, 67, 64
4, 64709, Note_on_c, 3, 68, 124
4, 64726, Note_off_c, 3, 68, 64
4, 64727, Note_on_c, 3, 69, 124
4, 64806, Note_off_c, 3, 69, 64
4, 64808, Note_on_c, 3, 67, 124
4, 64849, Note_off_c, 3, 67, 64
4, 65278, Note_on_c, 3, 69, 124
4, 65349, Note_off_c, 3, 69, 64
4, 65380, Note_on_c, 3, 69, 120
4, 65414, Note_off_c, 3, 69, 64
4, 65470, Note_on_c, 3, 69, 120
4, 65510, Note_off_c, 3, 69, 64
4, 65563, Note_on_c, 3, 69, 120
4, 65601, Note_off_c, 3, 69, 64
4, 65659, Note_on_c, 3, 69, 124
4, 65726, Note_off_c, 3, 69, 64
4, 65761, Note_on_c, 3, 69, 124
4, 65801, Note_off_c, 3, 69, 64
4, 65854, Note_on_c, 3, 69, 120
4, 65921, Note_off_c, 3, 69, 64
4, 65952, Note_on_c, 3, 67, 124
4, 65985, Note_off_c, 3, 67, 64
4, 66820, Note_on_c, 3, 69, 124
4, 66884, Note_off_c, 3, 69, 64
4, 66916, Note_on_c, 3, 69, 120
4, 66956, Note_off_c, 3, 69, 64
4, 67005, Note_on_c, 3, 69, 120
4, 67044, Note_off_c, 3, 69, 64
4, 67098, Note_on_c, 3, 69, 120
4, 67137, Note_off_c, 3, 69, 64
4, 67196, Note_on_c, 3, 69, 120
4, 67238, Note_off_c, 3, 69, 64
4, 67292, Note_on_c, 3, 69, 120
4, 67342, Note_off_c, 3, 69, 64
4, 67383, Note_on_c, 3, 69, 112
4, 67473, Note_off_c, 3, 69, 64
4, 67484, Note_on_c, 3, 67, 124
4, 67542, Note_off_c, 3, 67, 64
4, 67769, Note_on_c, 3, 68, 124
4, 67781, Note_on_c, 3, 69, 120
4, 67786, Note_off_c, 3, 68, 64
4, 67868, Note_off_c, 3, 69, 64
4, 67870, Note_on_c, 3, 67, 120
4, 67917, Note_off_c, 3, 67, 64
4, 68351, Note_on_c, 3, 69, 124
4, 68416, Note_off_c, 3, 69, 64
4, 68451, Note_on_c, 3, 69, 112
4, 68483, Note_off_c, 3, 69, 64
4, 68543, Note_on_c, 3, 69, 124
4, 68582, Note_off_c, 3, 69, 64
4, 68637, Note_on_c, 3, 69, 124
4, 68676, Note_off_c, 3, 69, 64
4, 68734, Note_on_c, 3, 69, 124
4, 68786, Note_off_c, 3, 69, 64
4, 68834, Note_on_c, 3, 69, 124
4, 68884, Note_off_c, 3, 69, 64
4, 68926, Note_on_c, 3, 69, 120
4, 69005, Note_off_c, 3, 69, 64
4, 69026, Note_on_c, 3, 67, 124
4, 69069, Note_off_c, 3, 67, 64
4, 69898, Note_on_c, 3, 70, 124
4, 69947, Note_off_c, 3, 70, 64
4, 69984, Control_c, 3, 7, 103
4, 69990, Note_on_c, 3, 70, 124
4, 70028, Note_off_c, 3, 70, 64
4, 70083, Note_on_c, 3, 70, 124
4, 70119, Note_off_c, 3, 70, 64
4, 70182, Note_on_c, 3, 70, 124
4, 70242, Note_off_c, 3, 70, 64
4, 70272, Control_c, 3, 7, 97
4, 70273, Note_on_c, 3, 67, 124
4, 70324, Note_off_c, 3, 67, 64
4, 70372, Note_on_c, 3, 67, 124
4, 70522, Note_off_c, 3, 67, 64
4, 70560, Control_c, 3, 7, 92
4, 70562, Note_on_c, 3, 64, 120
4, 70701, Note_off_c, 3, 64, 64
4, 70747, Note_on_c, 3, 64, 120
4, 70752, Control_c, 3, 7, 88
4, 70836, Note_off_c, 3, 64, 64
4, 71328, Control_c, 3, 7, 76
4, 71429, Note_on_c, 3, 70, 124
4, 71479, Note_off_c, 3, 70, 64
4, 71520, Control_c, 3, 7, 72
4, 71522, Note_on_c, 3, 70, 124
4, 71563, Note_off_c, 3, 70, 64
4, 71624, Note_on_c, 3, 70, 124
4, 71659, Note_off_c, 3, 70, 64
4, 71714, Note_on_c, 3, 70, 124
4, 71765, Note_off_c, 3, 70, 64
4, 71814, Note_on_c, 3, 67, 124
4, 71861, Note_off_c, 3, 67, 64
4, 71904, Control_c, 3, 7, 65
4, 71906, Note_on_c, 3, 67, 124
4, 71998, Note_off_c, 3, 67, 64
4, 72087, Note_on_c, 3, 69, 120
4, 72250, Note_off_c, 3, 69, 64
4, 72255, Note_on_c, 3, 67, 104
4, 72286, Note_off_c, 3, 67, 64
4, 72288, Note_on_c, 3, 64, 112
4, 72348, Note_off_c, 3, 64, 64
4, 72384, Control_c, 3, 7, 55
4, 72955, Note_on_c, 3, 70, 124
4, 72960, Control_c, 3, 7, 44
4, 73004, Note_off_c, 3, 70, 64
4, 73052, Note_on_c, 3, 70, 124
4, 73094, Note_off_c, 3, 70, 64
4, 73152, Note_on_c, 3, 70, 124
4, 73188, Note_off_c, 3, 70, 64
4, 73246, Note_on_c, 3, 70, 124
4, 73248, Control_c, 3, 7, 38
4, 73305, Note_off_c, 3, 70, 64
4, 73344, Note_on_c, 3, 67, 124
4, 73380, Note_off_c, 3, 67, 64
4, 73440, Note_on_c, 3, 67, 124
4, 73548, Note_off_c, 3, 67, 64
4, 73628, Note_on_c, 3, 64, 112
4, 73786, Note_off_c, 3, 64, 64
4, 73823, Note_on_c, 3, 64, 116
4, 73863, Note_off_c, 3, 64, 64
4, 74496, Control_c, 3, 7, 14
4, 75264, Control_c, 3, 7, 0
4, 76032, Control_c, 3, 120, 0
4, 76048, Control_c, 3, 123, 0
4, 76048, End_track
5, 0, Start_track
5, 0, Title_t, "Piano   "
5, 0, Channel_prefix, 4
5, 0, Control_c, 4, 7, 127
5, 0, Control_c, 4, 10, 64
5, 0, Program_c, 4, 0
5, 196, Control_c, 4, 121, 0
5, 223, Control_c, 4, 7, 88
5, 224, Control_c, 4, 10, 102
5, 225, Control_c, 4, 11, 127
5, 226, Control_c, 4, 91, 36
5, 227, Control_c, 4, 93, 40
5, 247, Pitch_bend_c, 4, 8192
5, 269, Control_c, 4, 0, 0
5, 324, Program_c, 4, 2
5, 1434, Note_on_c, 4, 55, 112
5, 1435, Note_on_c, 4, 58, 124
5, 1436, Note_on_c, 4, 62, 116
5, 1534, Note_off_c, 4, 62, 64
5, 1534, Note_off_c, 4, 58, 64
5, 1534, Note_off_c, 4, 55, 64
5, 2208, Note_on_c, 4, 55, 112
5, 2208, Note_on_c, 4, 60, 116
5, 2208, Note_on_c, 4, 64, 112
5, 2290, Note_off_c, 4, 64, 64
5, 2295, Note_off_c, 4, 55, 64
5, 2296, Note_off_c, 4, 60, 64
5, 2976, Note_on_c, 4, 55, 120
5, 2976, Note_on_c, 4, 58, 124
5, 2976, Note_on_c, 4, 62, 120
5, 3071, Note_off_c, 4, 58, 64
5, 3074, Note_off_c, 4, 55, 64
5, 3077, Note_off_c, 4, 62, 64
5, 3744, Note_on_c, 4, 55, 112
5, 3744, Note_on_c, 4, 60, 120
5, 3744, Note_on_c, 4, 64, 120
5, 3830, Note_off_c, 4, 64, 64
5, 3836, Note_off_c, 4, 55, 64
5, 3839, Note_off_c, 4, 60, 64
5, 4512, Note_on_c, 4, 55, 120
5, 4512, Note_on_c, 4, 58, 116
5, 4512, Note_on_c, 4, 62, 116
5, 4591, Note_off_c, 4, 58, 64
5, 4593, Note_off_c, 4, 55, 64
5, 4598, Note_off_c, 4, 62, 64
5, 5280, Note_on_c, 4, 55, 112
5, 5280, Note_on_c, 4, 60, 116
5, 5280, Note_on_c, 4, 64, 112
5, 5362, Note_off_c, 4, 64, 64
5, 5367, Note_off_c, 4, 55, 64
5, 5368, Note_off_c, 4, 60, 64
5, 6048, Note_on_c, 4, 55, 120
5, 6048, Note_on_c, 4, 58, 124
5, 6048, Note_on_c, 4, 62, 120
5, 6143, Note_off_c, 4, 58, 64
5, 6146, Note_off_c, 4, 55, 64
5, 6149, Note_off_c, 4, 62, 64
5, 6816, Note_on_c, 4, 55, 112
5, 6816, Note_on_c, 4, 60, 120
5, 6816, Note_on_c, 4, 64, 120
5, 6902, Note_off_c, 4, 64, 64
5, 6908, Note_off_c, 4, 55, 64
5, 6911, Note_off_c, 4, 60, 64
5, 7584, Note_on_c, 4, 53, 116
5, 7584, Note_on_c, 4, 55, 120
5, 7584, Note_on_c, 4, 58, 116
5, 7663, Note_off_c, 4, 58, 64
5, 7665, Note_off_c, 4, 55, 64
5, 7670, Note_off_c, 4, 53, 64
5, 7680, Note_on_c, 4, 55, 84
5, 7680, Note_on_c, 4, 58, 88
5, 7680, Note_on_c, 4, 62, 84
5, 7739, Note_off_c, 4, 58, 64
5, 7745, Note_off_c, 4, 55, 64
5, 7745, Note_off_c, 4, 62, 64
5, 7872, Note_on_c, 4, 55, 88
5, 7872, Note_on_c, 4, 58, 84
5, 7872, Note_on_c, 4, 62, 88
5, 7947, Note_off_c, 4, 58, 64
5, 7954, Note_off_c, 4, 62, 64
5, 7961, Note_off_c, 4, 55, 64
5, 8064, Note_on_c, 4, 55, 88
5, 8064, Note_on_c, 4, 58, 80
5, 8064, Note_on_c, 4, 62, 88
5, 8141, Note_off_c, 4, 58, 64
5, 8152, Note_off_c, 4, 62, 64
5, 8155, Note_off_c, 4, 55, 64
5, 8256, Note_on_c, 4, 55, 88
5, 8256, Note_on_c, 4, 58, 84
5, 8256, Note_on_c, 4, 62, 88
5, 8326, Note_off_c, 4, 55, 64
5, 8328, Note_off_c, 4, 62, 64
5, 8329, Note_off_c, 4, 58, 64
5, 8448, Note_on_c, 4, 55, 84
5, 8448, Note_on_c, 4, 60, 84
5, 8448, Note_on_c, 4, 64, 80
5, 8508, Note_off_c, 4, 60, 64
5, 8516, Note_off_c, 4, 64, 64
5, 8521, Note_off_c, 4, 55, 64
5, 8640, Note_on_c, 4, 55, 84
5, 8640, Note_on_c, 4, 60, 88
5, 8640, Note_on_c, 4, 64, 88
5, 8705, Note_off_c, 4, 60, 64
5, 8709, Note_off_c, 4, 64, 64
5, 8716, Note_off_c, 4, 55, 64
5, 8832, Note_on_c, 4, 55, 84
5, 8832, Note_on_c, 4, 60, 88
5, 8832, Note_on_c, 4, 64, 88
5, 8899, Note_off_c, 4, 60, 64
5, 8907, Note_off_c, 4, 64, 64
5, 8915, Note_off_c, 4, 55, 64
5, 9024, Note_on_c, 4, 55, 80
5, 9024, Note_on_c, 4, 60, 80
5, 9024, Note_on_c, 4, 64, 88
5, 9081, Note_off_c, 4, 64, 64
5, 9090, Note_off_c, 4, 60, 64
5, 9093, Note_off_c, 4, 55, 64
5, 9120, Note_on_c, 4, 26, 88
5, 9208, Note_off_c, 4, 26, 64
5, 9216, Note_on_c, 4, 55, 84
5, 9216, Note_on_c, 4, 58, 80
5, 9216, Note_on_c, 4, 62, 80
5, 9291, Note_off_c, 4, 58, 64
5, 9293, Note_off_c, 4, 62, 64
5, 9302, Note_off_c, 4, 55, 64
5, 9408, Note_on_c, 4, 55, 84
5, 9408, Note_on_c, 4, 58, 80
5, 9408, Note_on_c, 4, 62, 76
5, 9469, Note_off_c, 4, 58, 64
5, 9479, Note_off_c, 4, 55, 64
5, 9484, Note_off_c, 4, 62, 64
5, 9600, Note_on_c, 4, 55, 84
5, 9600, Note_on_c, 4, 58, 84
5, 9600, Note_on_c, 4, 62, 84
5, 9665, Note_off_c, 4, 58, 64
5, 9666, Note_off_c, 4, 62, 64
5, 9668, Note_off_c, 4, 55, 64
5, 9792, Note_on_c, 4, 55, 92
5, 9792, Note_on_c, 4, 58, 80
5, 9792, Note_on_c, 4, 62, 84
5, 9854, Note_off_c, 4, 55, 64
5, 9859, Note_off_c, 4, 58, 64
5, 9868, Note_off_c, 4, 62, 64
5, 9984, Note_on_c, 4, 67, 84
5, 9984, Note_on_c, 4, 69, 44
5, 9984, Note_on_c, 4, 74, 100
5, 9984, Note_on_c, 4, 77, 104
5, 9993, Note_off_c, 4, 69, 64
5, 10040, Note_off_c, 4, 67, 64
5, 10040, Note_off_c, 4, 74, 64
5, 10040, Note_off_c, 4, 77, 64
5, 10080, Note_on_c, 4, 67, 56
5, 10080, Note_on_c, 4, 72, 88
5, 10080, Note_on_c, 4, 76, 84
5, 10125, Note_off_c, 4, 76, 64
5, 10125, Note_off_c, 4, 67, 64
5, 10136, Note_off_c, 4, 72, 64
5, 10176, Note_on_c, 4, 67, 84
5, 10176, Note_on_c, 4, 74, 92
5, 10176, Note_on_c, 4, 77, 100
5, 10219, Note_off_c, 4, 74, 64
5, 10225, Note_off_c, 4, 77, 64
5, 10226, Note_off_c, 4, 67, 64
5, 10272, Note_on_c, 4, 67, 84
5, 10272, Note_on_c, 4, 72, 92
5, 10272, Note_on_c, 4, 76, 92
5, 10311, Note_off_c, 4, 76, 64
5, 10314, Note_off_c, 4, 72, 64
5, 10322, Note_off_c, 4, 67, 64
5, 10368, Note_on_c, 4, 67, 68
5, 10368, Note_on_c, 4, 70, 104
5, 10368, Note_on_c, 4, 74, 92
5, 10407, Note_off_c, 4, 70, 64
5, 10408, Note_off_c, 4, 67, 64
5, 10410, Note_off_c, 4, 74, 64
5, 10464, Note_on_c, 4, 67, 88
5, 10464, Note_on_c, 4, 72, 88
5, 10464, Note_on_c, 4, 76, 100
5, 10502, Note_off_c, 4, 76, 64
5, 10511, Note_off_c, 4, 72, 64
5, 10518, Note_off_c, 4, 67, 64
5, 10560, Note_on_c, 4, 70, 104
5, 10560, Note_on_c, 4, 74, 92
5, 10633, Note_off_c, 4, 70, 64
5, 10639, Note_off_c, 4, 74, 64
5, 10656, Note_on_c, 4, 67, 80
5, 10706, Note_off_c, 4, 67, 64
5, 10752, Note_on_c, 4, 60, 74
5, 10752, Note_on_c, 4, 63, 82
5, 10752, Note_on_c, 4, 67, 78
5, 11445, Note_off_c, 4, 67, 64
5, 11453, Note_off_c, 4, 60, 64
5, 11477, Note_off_c, 4, 63, 64
5, 11520, Note_on_c, 4, 62, 90
5, 11520, Note_on_c, 4, 65, 98
5, 11520, Note_on_c, 4, 69, 94
5, 12154, Note_off_c, 4, 65, 64
5, 12158, Note_off_c, 4, 62, 64
5, 12160, Note_off_c, 4, 69, 64
5, 12288, Note_on_c, 4, 62, 88
5, 12288, Note_on_c, 4, 67, 104
5, 12288, Note_on_c, 4, 70, 100
5, 12343, Note_off_c, 4, 67, 64
5, 12347, Note_off_c, 4, 70, 64
5, 12364, Note_off_c, 4, 62, 64
5, 12480, Note_on_c, 4, 62, 84
5, 12480, Note_on_c, 4, 67, 84
5, 12480, Note_on_c, 4, 70, 88
5, 12542, Note_off_c, 4, 67, 64
5, 12546, Note_off_c, 4, 70, 64
5, 12559, Note_off_c, 4, 62, 64
5, 12672, Note_on_c, 4, 62, 84
5, 12672, Note_on_c, 4, 67, 68
5, 12672, Note_on_c, 4, 70, 80
5, 12727, Note_off_c, 4, 67, 64
5, 12731, Note_off_c, 4, 70, 64
5, 12740, Note_off_c, 4, 62, 64
5, 12864, Note_on_c, 4, 62, 88
5, 12864, Note_on_c, 4, 67, 84
5, 12864, Note_on_c, 4, 70, 96
5, 12923, Note_off_c, 4, 70, 64
5, 12923, Note_off_c, 4, 67, 64
5, 12938, Note_off_c, 4, 62, 64
5, 13056, Note_on_c, 4, 60, 72
5, 13056, Note_on_c, 4, 64, 88
5, 13056, Note_on_c, 4, 67, 92
5, 13119, Note_off_c, 4, 67, 64
5, 13122, Note_off_c, 4, 60, 64
5, 13124, Note_off_c, 4, 64, 64
5, 13248, Note_on_c, 4, 60, 80
5, 13248, Note_on_c, 4, 64, 88
5, 13248, Note_on_c, 4, 67, 92
5, 13303, Note_off_c, 4, 67, 64
5, 13312, Note_off_c, 4, 64, 64
5, 13313, Note_off_c, 4, 60, 64
5, 13440, Note_on_c, 4, 60, 80
5, 13440, Note_on_c, 4, 64, 84
5, 13440, Note_on_c, 4, 67, 88
5, 13505, Note_off_c, 4, 64, 64
5, 13505, Note_off_c, 4, 60, 64
5, 13559, Note_off_c, 4, 67, 64
5, 13632, Note_on_c, 4, 60, 72
5, 13632, Note_on_c, 4, 64, 76
5, 13632, Note_on_c, 4, 67, 88
5, 13690, Note_off_c, 4, 64, 64
5, 13701, Note_off_c, 4, 67, 64
5, 13702, Note_off_c, 4, 60, 64
5, 13824, Note_on_c, 4, 62, 84
5, 13824, Note_on_c, 4, 67, 76
5, 13824, Note_on_c, 4, 70, 68
5, 13878, Note_off_c, 4, 70, 64
5, 13878, Note_off_c, 4, 67, 64
5, 13885, Note_off_c, 4, 62, 64
5, 14016, Note_on_c, 4, 62, 84
5, 14016, Note_on_c, 4, 67, 88
5, 14016, Note_on_c, 4, 70, 76
5, 14066, Note_off_c, 4, 70, 64
5, 14071, Note_off_c, 4, 67, 64
5, 14080, Note_off_c, 4, 62, 64
5, 14208, Note_on_c, 4, 62, 84
5, 14208, Note_on_c, 4, 67, 76
5, 14208, Note_on_c, 4, 70, 28
5, 14257, Note_off_c, 4, 70, 64
5, 14266, Note_off_c, 4, 67, 64
5, 14275, Note_off_c, 4, 62, 64
5, 14400, Note_on_c, 4, 62, 92
5, 14400, Note_on_c, 4, 67, 92
5, 14400, Note_on_c, 4, 70, 100
5, 14454, Note_off_c, 4, 67, 64
5, 14455, Note_off_c, 4, 70, 64
5, 14467, Note_off_c, 4, 62, 64
5, 14592, Note_on_c, 4, 60, 72
5, 14592, Note_on_c, 4, 64, 72
5, 14592, Note_on_c, 4, 67, 80
5, 14653, Note_off_c, 4, 64, 64
5, 14654, Note_off_c, 4, 67, 64
5, 14657, Note_off_c, 4, 60, 64
5, 14784, Note_on_c, 4, 60, 80
5, 14784, Note_on_c, 4, 64, 88
5, 14784, Note_on_c, 4, 67, 88
5, 14842, Note_off_c, 4, 64, 64
5, 14846, Note_off_c, 4, 60, 64
5, 14855, Note_off_c, 4, 67, 64
5, 14976, Note_on_c, 4, 60, 76
5, 14976, Note_on_c, 4, 64, 76
5, 14976, Note_on_c, 4, 67, 52
5, 15026, Note_off_c, 4, 67, 64
5, 15030, Note_off_c, 4, 64, 64
5, 15041, Note_off_c, 4, 60, 64
5, 15168, Note_on_c, 4, 60, 76
5, 15168, Note_on_c, 4, 64, 76
5, 15168, Note_on_c, 4, 67, 60
5, 15222, Note_off_c, 4, 67, 64
5, 15223, Note_off_c, 4, 64, 64
5, 15231, Note_off_c, 4, 60, 64
5, 15360, Note_on_c, 4, 62, 84
5, 15360, Note_on_c, 4, 67, 76
5, 15360, Note_on_c, 4, 70, 68
5, 15414, Note_off_c, 4, 70, 64
5, 15414, Note_off_c, 4, 67, 64
5, 15421, Note_off_c, 4, 62, 64
5, 15552, Note_on_c, 4, 62, 84
5, 15552, Note_on_c, 4, 67, 88
5, 15552, Note_on_c, 4, 70, 76
5, 15602, Note_off_c, 4, 70, 64
5, 15607, Note_off_c, 4, 67, 64
5, 15616, Note_off_c, 4, 62, 64
5, 15744, Note_on_c, 4, 62, 84
5, 15744, Note_on_c, 4, 67, 76
5, 15744, Note_on_c, 4, 70, 28
5, 15793, Note_off_c, 4, 70, 64
5, 15802, Note_off_c, 4, 67, 64
5, 15811, Note_off_c, 4, 62, 64
5, 15936, Note_on_c, 4, 62, 92
5, 15936, Note_on_c, 4, 67, 92
5, 15936, Note_on_c, 4, 70, 100
5, 15990, Note_off_c, 4, 67, 64
5, 15991, Note_off_c, 4, 70, 64
5, 16003, Note_off_c, 4, 62, 64
5, 16128, Note_on_c, 4, 60, 72
5, 16128, Note_on_c, 4, 64, 72
5, 16128, Note_on_c, 4, 67, 80
5, 16189, Note_off_c, 4, 64, 64
5, 16190, Note_off_c, 4, 67, 64
5, 16193, Note_off_c, 4, 60, 64
5, 16320, Note_on_c, 4, 60, 80
5, 16320, Note_on_c, 4, 64, 88
5, 16320, Note_on_c, 4, 67, 88
5, 16378, Note_off_c, 4, 64, 64
5, 16382, Note_off_c, 4, 60, 64
5, 16391, Note_off_c, 4, 67, 64
5, 16512, Note_on_c, 4, 60, 76
5, 16512, Note_on_c, 4, 64, 76
5, 16512, Note_on_c, 4, 67, 52
5, 16562, Note_off_c, 4, 67, 64
5, 16566, Note_off_c, 4, 64, 64
5, 16577, Note_off_c, 4, 60, 64
5, 16704, Note_on_c, 4, 60, 76
5, 16704, Note_on_c, 4, 64, 76
5, 16704, Note_on_c, 4, 67, 60
5, 16758, Note_off_c, 4, 67, 64
5, 16759, Note_off_c, 4, 64, 64
5, 16767, Note_off_c, 4, 60, 64
5, 16896, Note_on_c, 4, 55, 92
5, 16896, Note_on_c, 4, 60, 116
5, 16896, Note_on_c, 4, 63, 112
5, 16926, Note_off_c, 4, 60, 64
5, 16927, Note_off_c, 4, 55, 64
5, 16927, Note_off_c, 4, 63, 64
5, 19200, Note_on_c, 4, 62, 88
5, 19200, Note_on_c, 4, 67, 104
5, 19200, Note_on_c, 4, 70, 100
5, 19255, Note_off_c, 4, 67, 64
5, 19259, Note_off_c, 4, 70, 64
5, 19276, Note_off_c, 4, 62, 64
5, 19392, Note_on_c, 4, 62, 84
5, 19392, Note_on_c, 4, 67, 84
5, 19392, Note_on_c, 4, 70, 88
5, 19454, Note_off_c, 4, 67, 64
5, 19458, Note_off_c, 4, 70, 64
5, 19471, Note_off_c, 4, 62, 64
5, 19584, Note_on_c, 4, 62, 84
5, 19584, Note_on_c, 4, 67, 68
5, 19584, Note_on_c, 4, 70, 80
5, 19639, Note_off_c, 4, 67, 64
5, 19643, Note_off_c, 4, 70, 64
5, 19652, Note_off_c, 4, 62, 64
5, 19776, Note_on_c, 4, 62, 88
5, 19776, Note_on_c, 4, 67, 84
5, 19776, Note_on_c, 4, 70, 96
5, 19835, Note_off_c, 4, 70, 64
5, 19835, Note_off_c, 4, 67, 64
5, 19850, Note_off_c, 4, 62, 64
5, 19968, Note_on_c, 4, 60, 72
5, 19968, Note_on_c, 4, 64, 88
5, 19968, Note_on_c, 4, 67, 92
5, 20031, Note_off_c, 4, 67, 64
5, 20034, Note_off_c, 4, 60, 64
5, 20036, Note_off_c, 4, 64, 64
5, 20160, Note_on_c, 4, 60, 80
5, 20160, Note_on_c, 4, 64, 88
5, 20160, Note_on_c, 4, 67, 92
5, 20215, Note_off_c, 4, 67, 64
5, 20224, Note_off_c, 4, 64, 64
5, 20225, Note_off_c, 4, 60, 64
5, 20352, Note_on_c, 4, 60, 80
5, 20352, Note_on_c, 4, 64, 84
5, 20352, Note_on_c, 4, 67, 88
5, 20417, Note_off_c, 4, 64, 64
5, 20417, Note_off_c, 4, 60, 64
5, 20471, Note_off_c, 4, 67, 64
5, 20544, Note_on_c, 4, 60, 72
5, 20544, Note_on_c, 4, 64, 76
5, 20544, Note_on_c, 4, 67, 88
5, 20602, Note_off_c, 4, 64, 64
5, 20613, Note_off_c, 4, 67, 64
5, 20614, Note_off_c, 4, 60, 64
5, 20736, Note_on_c, 4, 62, 84
5, 20736, Note_on_c, 4, 67, 76
5, 20736, Note_on_c, 4, 70, 68
5, 20790, Note_off_c, 4, 70, 64
5, 20790, Note_off_c, 4, 67, 64
5, 20797, Note_off_c, 4, 62, 64
5, 20928, Note_on_c, 4, 62, 84
5, 20928, Note_on_c, 4, 67, 88
5, 20928, Note_on_c, 4, 70, 76
5, 20978, Note_off_c, 4, 70, 64
5, 20983, Note_off_c, 4, 67, 64
5, 20992, Note_off_c, 4, 62, 64
5, 21120, Note_on_c, 4, 62, 84
5, 21120, Note_on_c, 4, 67, 76
5, 21120, Note_on_c, 4, 70, 28
5, 21169, Note_off_c, 4, 70, 64
5, 21178, Note_off_c, 4, 67, 64
5, 21187, Note_off_c, 4, 62, 64
5, 21312, Note_on_c, 4, 62, 92
5, 21312, Note_on_c, 4, 67, 92
5, 21312, Note_on_c, 4, 70, 100
5, 21366, Note_off_c, 4, 67, 64
5, 21367, Note_off_c, 4, 70, 64
5, 21379, Note_off_c, 4, 62, 64
5, 21504, Note_on_c, 4, 60, 72
5, 21504, Note_on_c, 4, 64, 72
5, 21504, Note_on_c, 4, 67, 80
5, 21565, Note_off_c, 4, 64, 64
5, 21566, Note_off_c, 4, 67, 64
5, 21569, Note_off_c, 4, 60, 64
5, 21696, Note_on_c, 4, 60, 80
5, 21696, Note_on_c, 4, 64, 88
5, 21696, Note_on_c, 4, 67, 88
5, 21754, Note_off_c, 4, 64, 64
5, 21758, Note_off_c, 4, 60, 64
5, 21767, Note_off_c, 4, 67, 64
5, 21888, Note_on_c, 4, 60, 76
5, 21888, Note_on_c, 4, 64, 76
5, 21888, Note_on_c, 4, 67, 52
5, 21938, Note_off_c, 4, 67, 64
5, 21942, Note_off_c, 4, 64, 64
5, 21953, Note_off_c, 4, 60, 64
5, 22080, Note_on_c, 4, 60, 76
5, 22080, Note_on_c, 4, 64, 76
5, 22080, Note_on_c, 4, 67, 60
5, 22134, Note_off_c, 4, 67, 64
5, 22135, Note_off_c, 4, 64, 64
5, 22143, Note_off_c, 4, 60, 64
5, 22272, Note_on_c, 4, 62, 88
5, 22272, Note_on_c, 4, 67, 104
5, 22272, Note_on_c, 4, 70, 100
5, 22327, Note_off_c, 4, 67, 64
5, 22331, Note_off_c, 4, 70, 64
5, 22348, Note_off_c, 4, 62, 64
5, 22464, Note_on_c, 4, 62, 84
5, 22464, Note_on_c, 4, 67, 84
5, 22464, Note_on_c, 4, 70, 88
5, 22526, Note_off_c, 4, 67, 64
5, 22530, Note_off_c, 4, 70, 64
5, 22543, Note_off_c, 4, 62, 64
5, 22656, Note_on_c, 4, 62, 84
5, 22656, Note_on_c, 4, 67, 68
5, 22656, Note_on_c, 4, 70, 80
5, 22711, Note_off_c, 4, 67, 64
5, 22715, Note_off_c, 4, 70, 64
5, 22724, Note_off_c, 4, 62, 64
5, 22848, Note_on_c, 4, 62, 88
5, 22848, Note_on_c, 4, 67, 84
5, 22848, Note_on_c, 4, 70, 96
5, 22907, Note_off_c, 4, 70, 64
5, 22907, Note_off_c, 4, 67, 64
5, 22922, Note_off_c, 4, 62, 64
5, 23040, Note_on_c, 4, 60, 72
5, 23040, Note_on_c, 4, 64, 88
5, 23040, Note_on_c, 4, 67, 92
5, 23103, Note_off_c, 4, 67, 64
5, 23106, Note_off_c, 4, 60, 64
5, 23108, Note_off_c, 4, 64, 64
5, 23232, Note_on_c, 4, 60, 80
5, 23232, Note_on_c, 4, 64, 88
5, 23232, Note_on_c, 4, 67, 92
5, 23287, Note_off_c, 4, 67, 64
5, 23296, Note_off_c, 4, 64, 64
5, 23297, Note_off_c, 4, 60, 64
5, 23424, Note_on_c, 4, 60, 80
5, 23424, Note_on_c, 4, 64, 84
5, 23424, Note_on_c, 4, 67, 88
5, 23489, Note_off_c, 4, 64, 64
5, 23489, Note_off_c, 4, 60, 64
5, 23543, Note_off_c, 4, 67, 64
5, 23616, Note_on_c, 4, 60, 72
5, 23616, Note_on_c, 4, 64, 76
5, 23616, Note_on_c, 4, 67, 88
5, 23674, Note_off_c, 4, 64, 64
5, 23685, Note_off_c, 4, 67, 64
5, 23686, Note_off_c, 4, 60, 64
5, 23808, Note_on_c, 4, 62, 84
5, 23808, Note_on_c, 4, 67, 76
5, 23808, Note_on_c, 4, 70, 68
5, 23862, Note_off_c, 4, 70, 64
5, 23862, Note_off_c, 4, 67, 64
5, 23869, Note_off_c, 4, 62, 64
5, 24000, Note_on_c, 4, 62, 84
5, 24000, Note_on_c, 4, 67, 88
5, 24000, Note_on_c, 4, 70, 76
5, 24050, Note_off_c, 4, 70, 64
5, 24055, Note_off_c, 4, 67, 64
5, 24064, Note_off_c, 4, 62, 64
5, 24192, Note_on_c, 4, 62, 84
5, 24192, Note_on_c, 4, 67, 76
5, 24192, Note_on_c, 4, 70, 28
5, 24241, Note_off_c, 4, 70, 64
5, 24250, Note_off_c, 4, 67, 64
5, 24259, Note_off_c, 4, 62, 64
5, 24384, Note_on_c, 4, 62, 92
5, 24384, Note_on_c, 4, 67, 92
5, 24384, Note_on_c, 4, 70, 100
5, 24438, Note_off_c, 4, 67, 64
5, 24439, Note_off_c, 4, 70, 64
5, 24451, Note_off_c, 4, 62, 64
5, 24576, Note_on_c, 4, 60, 72
5, 24576, Note_on_c, 4, 64, 72
5, 24576, Note_on_c, 4, 67, 80
5, 24637, Note_off_c, 4, 64, 64
5, 24638, Note_off_c, 4, 67, 64
5, 24641, Note_off_c, 4, 60, 64
5, 24768, Note_on_c, 4, 60, 80
5, 24768, Note_on_c, 4, 64, 88
5, 24768, Note_on_c, 4, 67, 88
5, 24826, Note_off_c, 4, 64, 64
5, 24830, Note_off_c, 4, 60, 64
5, 24839, Note_off_c, 4, 67, 64
5, 24960, Note_on_c, 4, 60, 76
5, 24960, Note_on_c, 4, 64, 76
5, 24960, Note_on_c, 4, 67, 52
5, 25010, Note_off_c, 4, 67, 64
5, 25014, Note_off_c, 4, 64, 64
5, 25025, Note_off_c, 4, 60, 64
5, 25152, Note_on_c, 4, 60, 76
5, 25152, Note_on_c, 4, 64, 76
5, 25152, Note_on_c, 4, 67, 60
5, 25206, Note_off_c, 4, 67, 64
5, 25207, Note_off_c, 4, 64, 64
5, 25215, Note_off_c, 4, 60, 64
5, 25344, Note_on_c, 4, 60, 74
5, 25344, Note_on_c, 4, 63, 82
5, 25344, Note_on_c, 4, 67, 78
5, 26037, Note_off_c, 4, 67, 64
5, 26045, Note_off_c, 4, 60, 64
5, 26069, Note_off_c, 4, 63, 64
5, 26112, Note_on_c, 4, 62, 90
5, 26112, Note_on_c, 4, 65, 98
5, 26112, Note_on_c, 4, 69, 94
5, 26746, Note_off_c, 4, 65, 64
5, 26750, Note_off_c, 4, 62, 64
5, 26752, Note_off_c, 4, 69, 64
5, 26880, Note_on_c, 4, 62, 88
5, 26880, Note_on_c, 4, 67, 104
5, 26880, Note_on_c, 4, 70, 100
5, 26935, Note_off_c, 4, 67, 64
5, 26939, Note_off_c, 4, 70, 64
5, 26956, Note_off_c, 4, 62, 64
5, 27072, Note_on_c, 4, 62, 84
5, 27072, Note_on_c, 4, 67, 84
5, 27072, Note_on_c, 4, 70, 88
5, 27134, Note_off_c, 4, 67, 64
5, 27138, Note_off_c, 4, 70, 64
5, 27151, Note_off_c, 4, 62, 64
5, 27264, Note_on_c, 4, 62, 84
5, 27264, Note_on_c, 4, 67, 68
5, 27264, Note_on_c, 4, 70, 80
5, 27319, Note_off_c, 4, 67, 64
5, 27323, Note_off_c, 4, 70, 64
5, 27332, Note_off_c, 4, 62, 64
5, 27456, Note_on_c, 4, 62, 88
5, 27456, Note_on_c, 4, 67, 84
5, 27456, Note_on_c, 4, 70, 96
5, 27515, Note_off_c, 4, 70, 64
5, 27515, Note_off_c, 4, 67, 64
5, 27530, Note_off_c, 4, 62, 64
5, 27648, Note_on_c, 4, 60, 72
5, 27648, Note_on_c, 4, 64, 88
5, 27648, Note_on_c, 4, 67, 92
5, 27711, Note_off_c, 4, 67, 64
5, 27714, Note_off_c, 4, 60, 64
5, 27716, Note_off_c, 4, 64, 64
5, 27840, Note_on_c, 4, 60, 80
5, 27840, Note_on_c, 4, 64, 88
5, 27840, Note_on_c, 4, 67, 92
5, 27895, Note_off_c, 4, 67, 64
5, 27904, Note_off_c, 4, 64, 64
5, 27905, Note_off_c, 4, 60, 64
5, 28032, Note_on_c, 4, 60, 80
5, 28032, Note_on_c, 4, 64, 84
5, 28032, Note_on_c, 4, 67, 88
5, 28097, Note_off_c, 4, 64, 64
5, 28097, Note_off_c, 4, 60, 64
5, 28151, Note_off_c, 4, 67, 64
5, 28224, Note_on_c, 4, 60, 72
5, 28224, Note_on_c, 4, 64, 76
5, 28224, Note_on_c, 4, 67, 88
5, 28282, Note_off_c, 4, 64, 64
5, 28293, Note_off_c, 4, 67, 64
5, 28294, Note_off_c, 4, 60, 64
5, 28416, Note_on_c, 4, 62, 84
5, 28416, Note_on_c, 4, 67, 76
5, 28416, Note_on_c, 4, 70, 68
5, 28470, Note_off_c, 4, 70, 64
5, 28470, Note_off_c, 4, 67, 64
5, 28477, Note_off_c, 4, 62, 64
5, 28608, Note_on_c, 4, 62, 84
5, 28608, Note_on_c, 4, 67, 88
5, 28608, Note_on_c, 4, 70, 76
5, 28658, Note_off_c, 4, 70, 64
5, 28663, Note_off_c, 4, 67, 64
5, 28672, Note_off_c, 4, 62, 64
5, 28800, Note_on_c, 4, 62, 84
5, 28800, Note_on_c, 4, 67, 76
5, 28800, Note_on_c, 4, 70, 28
5, 28849, Note_off_c, 4, 70, 64
5, 28858, Note_off_c, 4, 67, 64
5, 28867, Note_off_c, 4, 62, 64
5, 28992, Note_on_c, 4, 62, 92
5, 28992, Note_on_c, 4, 67, 92
5, 28992, Note_on_c, 4, 70, 100
5, 29046, Note_off_c, 4, 67, 64
5, 29047, Note_off_c, 4, 70, 64
5, 29059, Note_off_c, 4, 62, 64
5, 29184, Note_on_c, 4, 60, 72
5, 29184, Note_on_c, 4, 64, 72
5, 29184, Note_on_c, 4, 67, 80
5, 29245, Note_off_c, 4, 64, 64
5, 29246, Note_off_c, 4, 67, 64
5, 29249, Note_off_c, 4, 60, 64
5, 29376, Note_on_c, 4, 60, 80
5, 29376, Note_on_c, 4, 64, 88
5, 29376, Note_on_c, 4, 67, 88
5, 29434, Note_off_c, 4, 64, 64
5, 29438, Note_off_c, 4, 60, 64
5, 29447, Note_off_c, 4, 67, 64
5, 29568, Note_on_c, 4, 60, 76
5, 29568, Note_on_c, 4, 64, 76
5, 29568, Note_on_c, 4, 67, 52
5, 29618, Note_off_c, 4, 67, 64
5, 29622, Note_off_c, 4, 64, 64
5, 29633, Note_off_c, 4, 60, 64
5, 29760, Note_on_c, 4, 60, 76
5, 29760, Note_on_c, 4, 64, 76
5, 29760, Note_on_c, 4, 67, 60
5, 29814, Note_off_c, 4, 67, 64
5, 29815, Note_off_c, 4, 64, 64
5, 29823, Note_off_c, 4, 60, 64
5, 29952, Note_on_c, 4, 62, 84
5, 29952, Note_on_c, 4, 67, 76
5, 29952, Note_on_c, 4, 70, 68
5, 30006, Note_off_c, 4, 70, 64
5, 30006, Note_off_c, 4, 67, 64
5, 30013, Note_off_c, 4, 62, 64
5, 30144, Note_on_c, 4, 62, 84
5, 30144, Note_on_c, 4, 67, 88
5, 30144, Note_on_c, 4, 70, 76
5, 30194, Note_off_c, 4, 70, 64
5, 30199, Note_off_c, 4, 67, 64
5, 30208, Note_off_c, 4, 62, 64
5, 30336, Note_on_c, 4, 62, 84
5, 30336, Note_on_c, 4, 67, 76
5, 30336, Note_on_c, 4, 70, 28
5, 30385, Note_off_c, 4, 70, 64
5, 30394, Note_off_c, 4, 67, 64
5, 30403, Note_off_c, 4, 62, 64
5, 30528, Note_on_c, 4, 62, 92
5, 30528, Note_on_c, 4, 67, 92
5, 30528, Note_on_c, 4, 70, 100
5, 30582, Note_off_c, 4, 67, 64
5, 30583, Note_off_c, 4, 70, 64
5, 30595, Note_off_c, 4, 62, 64
5, 30720, Note_on_c, 4, 60, 72
5, 30720, Note_on_c, 4, 64, 72
5, 30720, Note_on_c, 4, 67, 80
5, 30781, Note_off_c, 4, 64, 64
5, 30782, Note_off_c, 4, 67, 64
5, 30785, Note_off_c, 4, 60, 64
5, 30912, Note_on_c, 4, 60, 80
5, 30912, Note_on_c, 4, 64, 88
5, 30912, Note_on_c, 4, 67, 88
5, 30970, Note_off_c, 4, 64, 64
5, 30974, Note_off_c, 4, 60, 64
5, 30983, Note_off_c, 4, 67, 64
5, 31104, Note_on_c, 4, 60, 76
5, 31104, Note_on_c, 4, 64, 76
5, 31104, Note_on_c, 4, 67, 52
5, 31154, Note_off_c, 4, 67, 64
5, 31158, Note_off_c, 4, 64, 64
5, 31169, Note_off_c, 4, 60, 64
5, 31296, Note_on_c, 4, 60, 76
5, 31296, Note_on_c, 4, 64, 76
5, 31296, Note_on_c, 4, 67, 60
5, 31350, Note_off_c, 4, 67, 64
5, 31351, Note_off_c, 4, 64, 64
5, 31359, Note_off_c, 4, 60, 64
5, 31488, Note_on_c, 4, 55, 92
5, 31488, Note_on_c, 4, 60, 116
5, 31488, Note_on_c, 4, 63, 112
5, 31518, Note_off_c, 4, 60, 64
5, 31519, Note_off_c, 4, 55, 64
5, 31519, Note_off_c, 4, 63, 64
5, 33792, Note_on_c, 4, 62, 88
5, 33792, Note_on_c, 4, 67, 104
5, 33792, Note_on_c, 4, 70, 100
5, 33847, Note_off_c, 4, 67, 64
5, 33851, Note_off_c, 4, 70, 64
5, 33868, Note_off_c, 4, 62, 64
5, 33984, Note_on_c, 4, 62, 84
5, 33984, Note_on_c, 4, 67, 84
5, 33984, Note_on_c, 4, 70, 88
5, 34046, Note_off_c, 4, 67, 64
5, 34050, Note_off_c, 4, 70, 64
5, 34063, Note_off_c, 4, 62, 64
5, 34176, Note_on_c, 4, 62, 84
5, 34176, Note_on_c, 4, 67, 68
5, 34176, Note_on_c, 4, 70, 80
5, 34231, Note_off_c, 4, 67, 64
5, 34235, Note_off_c, 4, 70, 64
5, 34244, Note_off_c, 4, 62, 64
5, 34368, Note_on_c, 4, 62, 88
5, 34368, Note_on_c, 4, 67, 84
5, 34368, Note_on_c, 4, 70, 96
5, 34427, Note_off_c, 4, 70, 64
5, 34427, Note_off_c, 4, 67, 64
5, 34442, Note_off_c, 4, 62, 64
5, 34560, Note_on_c, 4, 60, 72
5, 34560, Note_on_c, 4, 64, 88
5, 34560, Note_on_c, 4, 67, 92
5, 34623, Note_off_c, 4, 67, 64
5, 34626, Note_off_c, 4, 60, 64
5, 34628, Note_off_c, 4, 64, 64
5, 34752, Note_on_c, 4, 60, 80
5, 34752, Note_on_c, 4, 64, 88
5, 34752, Note_on_c, 4, 67, 92
5, 34807, Note_off_c, 4, 67, 64
5, 34816, Note_off_c, 4, 64, 64
5, 34817, Note_off_c, 4, 60, 64
5, 34944, Note_on_c, 4, 60, 80
5, 34944, Note_on_c, 4, 64, 84
5, 34944, Note_on_c, 4, 67, 88
5, 35009, Note_off_c, 4, 64, 64
5, 35009, Note_off_c, 4, 60, 64
5, 35063, Note_off_c, 4, 67, 64
5, 35136, Note_on_c, 4, 60, 72
5, 35136, Note_on_c, 4, 64, 76
5, 35136, Note_on_c, 4, 67, 88
5, 35194, Note_off_c, 4, 64, 64
5, 35205, Note_off_c, 4, 67, 64
5, 35206, Note_off_c, 4, 60, 64
5, 35328, Note_on_c, 4, 62, 84
5, 35328, Note_on_c, 4, 67, 76
5, 35328, Note_on_c, 4, 70, 68
5, 35382, Note_off_c, 4, 70, 64
5, 35382, Note_off_c, 4, 67, 64
5, 35389, Note_off_c, 4, 62, 64
5, 35520, Note_on_c, 4, 62, 84
5, 35520, Note_on_c, 4, 67, 88
5, 35520, Note_on_c, 4, 70, 76
5, 35570, Note_off_c, 4, 70, 64
5, 35575, Note_off_c, 4, 67, 64
5, 35584, Note_off_c, 4, 62, 64
5, 35712, Note_on_c, 4, 62, 84
5, 35712, Note_on_c, 4, 67, 76
5, 35712, Note_on_c, 4, 70, 28
5, 35761, Note_off_c, 4, 70, 64
5, 35770, Note_off_c, 4, 67, 64
5, 35779, Note_off_c, 4, 62, 64
5, 35904, Note_on_c, 4, 62, 92
5, 35904, Note_on_c, 4, 67, 92
5, 35904, Note_on_c, 4, 70, 100
5, 35958, Note_off_c, 4, 67, 64
5, 35959, Note_off_c, 4, 70, 64
5, 35971, Note_off_c, 4, 62, 64
5, 36096, Note_on_c, 4, 60, 72
5, 36096, Note_on_c, 4, 64, 72
5, 36096, Note_on_c, 4, 67, 80
5, 36157, Note_off_c, 4, 64, 64
5, 36158, Note_off_c, 4, 67, 64
5, 36161, Note_off_c, 4, 60, 64
5, 36288, Note_on_c, 4, 60, 80
5, 36288, Note_on_c, 4, 64, 88
5, 36288, Note_on_c, 4, 67, 88
5, 36346, Note_off_c, 4, 64, 64
5, 36350, Note_off_c, 4, 60, 64
5, 36359, Note_off_c, 4, 67, 64
5, 36480, Note_on_c, 4, 60, 76
5, 36480, Note_on_c, 4, 64, 76
5, 36480, Note_on_c, 4, 67, 52
5, 36530, Note_off_c, 4, 67, 64
5, 36534, Note_off_c, 4, 64, 64
5, 36545, Note_off_c, 4, 60, 64
5, 36672, Note_on_c, 4, 60, 76
5, 36672, Note_on_c, 4, 64, 76
5, 36672, Note_on_c, 4, 67, 60
5, 36726, Note_off_c, 4, 67, 64
5, 36727, Note_off_c, 4, 64, 64
5, 36735, Note_off_c, 4, 60, 64
5, 36864, Note_on_c, 4, 55, 120
5, 36910, Note_off_c, 4, 55, 64
5, 37152, Note_on_c, 4, 53, 108
5, 37198, Note_off_c, 4, 53, 64
5, 37248, Note_on_c, 4, 50, 108
5, 37294, Note_off_c, 4, 50, 64
5, 37536, Note_on_c, 4, 48, 104
5, 37582, Note_off_c, 4, 48, 64
5, 37632, Note_on_c, 4, 46, 100
5, 37678, Note_off_c, 4, 46, 64
5, 37920, Note_on_c, 4, 48, 104
5, 37966, Note_off_c, 4, 48, 64
5, 38016, Note_on_c, 4, 46, 100
5, 38062, Note_off_c, 4, 46, 64
5, 38208, Note_on_c, 4, 43, 108
5, 38254, Note_off_c, 4, 43, 64
5, 44544, Note_on_c, 4, 55, 84
5, 44544, Note_on_c, 4, 58, 88
5, 44544, Note_on_c, 4, 62, 84
5, 44603, Note_off_c, 4, 58, 64
5, 44609, Note_off_c, 4, 55, 64
5, 44609, Note_off_c, 4, 62, 64
5, 44736, Note_on_c, 4, 55, 88
5, 44736, Note_on_c, 4, 58, 84
5, 44736, Note_on_c, 4, 62, 88
5, 44811, Note_off_c, 4, 58, 64
5, 44818, Note_off_c, 4, 62, 64
5, 44825, Note_off_c, 4, 55, 64
5, 44928, Note_on_c, 4, 55, 88
5, 44928, Note_on_c, 4, 58, 80
5, 44928, Note_on_c, 4, 62, 88
5, 45005, Note_off_c, 4, 58, 64
5, 45016, Note_off_c, 4, 62, 64
5, 45019, Note_off_c, 4, 55, 64
5, 45120, Note_on_c, 4, 55, 88
5, 45120, Note_on_c, 4, 58, 84
5, 45120, Note_on_c, 4, 62, 88
5, 45190, Note_off_c, 4, 55, 64
5, 45192, Note_off_c, 4, 62, 64
5, 45193, Note_off_c, 4, 58, 64
5, 45312, Note_on_c, 4, 55, 84
5, 45312, Note_on_c, 4, 60, 84
5, 45312, Note_on_c, 4, 64, 80
5, 45372, Note_off_c, 4, 60, 64
5, 45380, Note_off_c, 4, 64, 64
5, 45385, Note_off_c, 4, 55, 64
5, 45504, Note_on_c, 4, 55, 84
5, 45504, Note_on_c, 4, 60, 88
5, 45504, Note_on_c, 4, 64, 88
5, 45569, Note_off_c, 4, 60, 64
5, 45573, Note_off_c, 4, 64, 64
5, 45580, Note_off_c, 4, 55, 64
5, 45696, Note_on_c, 4, 55, 84
5, 45696, Note_on_c, 4, 60, 88
5, 45696, Note_on_c, 4, 64, 88
5, 45763, Note_off_c, 4, 60, 64
5, 45771, Note_off_c, 4, 64, 64
5, 45779, Note_off_c, 4, 55, 64
5, 45888, Note_on_c, 4, 55, 80
5, 45888, Note_on_c, 4, 60, 80
5, 45888, Note_on_c, 4, 64, 88
5, 45945, Note_off_c, 4, 64, 64
5, 45954, Note_off_c, 4, 60, 64
5, 45957, Note_off_c, 4, 55, 64
5, 45984, Note_on_c, 4, 26, 88
5, 46072, Note_off_c, 4, 26, 64
5, 46080, Note_on_c, 4, 55, 84
5, 46080, Note_on_c, 4, 58, 88
5, 46080, Note_on_c, 4, 62, 84
5, 46139, Note_off_c, 4, 58, 64
5, 46145, Note_off_c, 4, 55, 64
5, 46145, Note_off_c, 4, 62, 64
5, 46272, Note_on_c, 4, 55, 88
5, 46272, Note_on_c, 4, 58, 84
5, 46272, Note_on_c, 4, 62, 88
5, 46347, Note_off_c, 4, 58, 64
5, 46354, Note_off_c, 4, 62, 64
5, 46361, Note_off_c, 4, 55, 64
5, 46464, Note_on_c, 4, 55, 88
5, 46464, Note_on_c, 4, 58, 80
5, 46464, Note_on_c, 4, 62, 88
5, 46541, Note_off_c, 4, 58, 64
5, 46552, Note_off_c, 4, 62, 64
5, 46555, Note_off_c, 4, 55, 64
5, 46656, Note_on_c, 4, 55, 88
5, 46656, Note_on_c, 4, 58, 84
5, 46656, Note_on_c, 4, 62, 88
5, 46726, Note_off_c, 4, 55, 64
5, 46728, Note_off_c, 4, 62, 64
5, 46729, Note_off_c, 4, 58, 64
5, 46848, Note_on_c, 4, 55, 84
5, 46848, Note_on_c, 4, 60, 84
5, 46848, Note_on_c, 4, 64, 80
5, 46908, Note_off_c, 4, 60, 64
5, 46916, Note_off_c, 4, 64, 64
5, 46921, Note_off_c, 4, 55, 64
5, 47040, Note_on_c, 4, 55, 84
5, 47040, Note_on_c, 4, 60, 88
5, 47040, Note_on_c, 4, 64, 88
5, 47105, Note_off_c, 4, 60, 64
5, 47109, Note_off_c, 4, 64, 64
5, 47116, Note_off_c, 4, 55, 64
5, 47232, Note_on_c, 4, 55, 84
5, 47232, Note_on_c, 4, 60, 88
5, 47232, Note_on_c, 4, 64, 88
5, 47299, Note_off_c, 4, 60, 64
5, 47307, Note_off_c, 4, 64, 64
5, 47315, Note_off_c, 4, 55, 64
5, 47424, Note_on_c, 4, 55, 80
5, 47424, Note_on_c, 4, 60, 80
5, 47424, Note_on_c, 4, 64, 88
5, 47481, Note_off_c, 4, 64, 64
5, 47490, Note_off_c, 4, 60, 64
5, 47493, Note_off_c, 4, 55, 64
5, 47520, Note_on_c, 4, 26, 88
5, 47608, Note_off_c, 4, 26, 64
5, 47616, Note_on_c, 4, 60, 74
5, 47616, Note_on_c, 4, 63, 82
5, 47616, Note_on_c, 4, 67, 78
5, 48309, Note_off_c, 4, 67, 64
5, 48317, Note_off_c, 4, 60, 64
5, 48341, Note_off_c, 4, 63, 64
5, 48384, Note_on_c, 4, 62, 90
5, 48384, Note_on_c, 4, 65, 98
5, 48384, Note_on_c, 4, 69, 94
5, 49018, Note_off_c, 4, 65, 64
5, 49022, Note_off_c, 4, 62, 64
5, 49024, Note_off_c, 4, 69, 64
5, 49152, Note_on_c, 4, 38, 116
5, 49152, Note_on_c, 4, 50, 120
5, 49152, Note_on_c, 4, 57, 112
5, 49152, Note_on_c, 4, 62, 112
5, 49275, Note_off_c, 4, 50, 64
5, 49344, Note_on_c, 4, 50, 100
5, 49386, Note_off_c, 4, 50, 64
5, 49420, Note_off_c, 4, 57, 64
5, 49440, Note_on_c, 4, 50, 124
5, 49440, Note_on_c, 4, 57, 116
5, 49440, Note_on_c, 4, 66, 120
5, 49498, Note_off_c, 4, 50, 64
5, 49536, Note_on_c, 4, 50, 100
5, 49574, Note_off_c, 4, 50, 64
5, 49632, Note_on_c, 4, 50, 96
5, 49669, Note_off_c, 4, 50, 64
5, 49728, Note_on_c, 4, 50, 100
5, 49781, Note_off_c, 4, 50, 64
5, 49798, Note_off_c, 4, 57, 64
5, 49824, Note_on_c, 4, 50, 124
5, 49824, Note_on_c, 4, 57, 120
5, 49824, Note_on_c, 4, 69, 108
5, 49875, Note_off_c, 4, 50, 64
5, 49920, Note_on_c, 4, 50, 96
5, 49961, Note_off_c, 4, 50, 64
5, 50071, Control_c, 4, 64, 127
5, 50322, Note_on_c, 4, 86, 50
5, 50331, Note_on_c, 4, 84, 52
5, 50336, Note_off_c, 4, 86, 64
5, 50343, Note_on_c, 4, 83, 54
5, 50357, Note_on_c, 4, 81, 56
5, 50358, Note_off_c, 4, 84, 64
5, 50372, Note_on_c, 4, 79, 59
5, 50375, Note_off_c, 4, 83, 64
5, 50387, Note_off_c, 4, 81, 64
5, 50387, Note_on_c, 4, 77, 62
5, 50397, Note_on_c, 4, 76, 64
5, 50399, Note_off_c, 4, 79, 64
5, 50412, Note_on_c, 4, 74, 66
5, 50416, Note_off_c, 4, 77, 64
5, 50420, Note_off_c, 4, 76, 64
5, 50426, Note_on_c, 4, 72, 69
5, 50431, Note_off_c, 4, 74, 64
5, 50439, Note_on_c, 4, 71, 71
5, 50440, Note_off_c, 4, 72, 64
5, 50443, Note_off_c, 4, 38, 64
5, 50450, Note_off_c, 4, 69, 64
5, 50451, Note_on_c, 4, 69, 73
5, 50453, Note_off_c, 4, 71, 64
5, 50454, Note_off_c, 4, 57, 64
5, 50459, Note_off_c, 4, 69, 64
5, 50461, Note_off_c, 4, 66, 64
5, 50463, Note_on_c, 4, 67, 75
5, 50464, Note_off_c, 4, 62, 64
5, 50475, Note_on_c, 4, 65, 77
5, 50477, Note_off_c, 4, 67, 64
5, 50488, Note_on_c, 4, 64, 80
5, 50493, Note_on_c, 4, 80, 81
5, 50497, Note_off_c, 4, 65, 64
5, 50503, Note_on_c, 4, 62, 82
5, 50515, Note_off_c, 4, 64, 64
5, 50515, Note_on_c, 4, 78, 85
5, 50517, Note_off_c, 4, 80, 64
5, 50517, Note_on_c, 4, 60, 85
5, 50531, Note_on_c, 4, 59, 87
5, 50537, Note_off_c, 4, 62, 64
5, 50537, Note_off_c, 4, 78, 64
5, 50542, Note_off_c, 4, 60, 64
5, 50556, Note_on_c, 4, 57, 92
5, 50576, Note_off_c, 4, 59, 64
5, 50585, Note_on_c, 4, 56, 97
5, 50593, Note_on_c, 4, 54, 98
5, 50593, Note_on_c, 4, 55, 98
5, 50599, Note_off_c, 4, 54, 64
5, 50608, Note_off_c, 4, 56, 64
5, 50611, Note_off_c, 4, 57, 64
5, 50616, Note_on_c, 4, 53, 103
5, 50619, Note_off_c, 4, 55, 64
5, 50635, Note_off_c, 4, 53, 64
5, 50648, Control_c, 4, 64, 0
5, 50688, Note_on_c, 4, 55, 84
5, 50688, Note_on_c, 4, 58, 88
5, 50688, Note_on_c, 4, 62, 84
5, 50747, Note_off_c, 4, 58, 64
5, 50753, Note_off_c, 4, 55, 64
5, 50753, Note_off_c, 4, 62, 64
5, 50880, Note_on_c, 4, 55, 88
5, 50880, Note_on_c, 4, 58, 84
5, 50880, Note_on_c, 4, 62, 88
5, 50955, Note_off_c, 4, 58, 64
5, 50962, Note_off_c, 4, 62, 64
5, 50969, Note_off_c, 4, 55, 64
5, 51072, Note_on_c, 4, 55, 88
5, 51072, Note_on_c, 4, 58, 80
5, 51072, Note_on_c, 4, 62, 88
5, 51149, Note_off_c, 4, 58, 64
5, 51160, Note_off_c, 4, 62, 64
5, 51163, Note_off_c, 4, 55, 64
5, 51264, Note_on_c, 4, 55, 88
5, 51264, Note_on_c, 4, 58, 84
5, 51264, Note_on_c, 4, 62, 88
5, 51334, Note_off_c, 4, 55, 64
5, 51336, Note_off_c, 4, 62, 64
5, 51337, Note_off_c, 4, 58, 64
5, 51456, Note_on_c, 4, 55, 84
5, 51456, Note_on_c, 4, 60, 84
5, 51456, Note_on_c, 4, 64, 80
5, 51516, Note_off_c, 4, 60, 64
5, 51524, Note_off_c, 4, 64, 64
5, 51529, Note_off_c, 4, 55, 64
5, 51648, Note_on_c, 4, 55, 84
5, 51648, Note_on_c, 4, 60, 88
5, 51648, Note_on_c, 4, 64, 88
5, 51713, Note_off_c, 4, 60, 64
5, 51717, Note_off_c, 4, 64, 64
5, 51724, Note_off_c, 4, 55, 64
5, 51840, Note_on_c, 4, 55, 84
5, 51840, Note_on_c, 4, 60, 88
5, 51840, Note_on_c, 4, 64, 88
5, 51907, Note_off_c, 4, 60, 64
5, 51915, Note_off_c, 4, 64, 64
5, 51923, Note_off_c, 4, 55, 64
5, 52032, Note_on_c, 4, 55, 80
5, 52032, Note_on_c, 4, 60, 80
5, 52032, Note_on_c, 4, 64, 88
5, 52089, Note_off_c, 4, 64, 64
5, 52098, Note_off_c, 4, 60, 64
5, 52101, Note_off_c, 4, 55, 64
5, 52128, Note_on_c, 4, 26, 88
5, 52216, Note_off_c, 4, 26, 64
5, 52224, Note_on_c, 4, 55, 84
5, 52224, Note_on_c, 4, 58, 88
5, 52224, Note_on_c, 4, 62, 84
5, 52283, Note_off_c, 4, 58, 64
5, 52289, Note_off_c, 4, 55, 64
5, 52289, Note_off_c, 4, 62, 64
5, 52416, Note_on_c, 4, 55, 88
5, 52416, Note_on_c, 4, 58, 84
5, 52416, Note_on_c, 4, 62, 88
5, 52491, Note_off_c, 4, 58, 64
5, 52498, Note_off_c, 4, 62, 64
5, 52505, Note_off_c, 4, 55, 64
5, 52608, Note_on_c, 4, 55, 88
5, 52608, Note_on_c, 4, 58, 80
5, 52608, Note_on_c, 4, 62, 88
5, 52685, Note_off_c, 4, 58, 64
5, 52696, Note_off_c, 4, 62, 64
5, 52699, Note_off_c, 4, 55, 64
5, 52800, Note_on_c, 4, 55, 88
5, 52800, Note_on_c, 4, 58, 84
5, 52800, Note_on_c, 4, 62, 88
5, 52870, Note_off_c, 4, 55, 64
5, 52872, Note_off_c, 4, 62, 64
5, 52873, Note_off_c, 4, 58, 64
5, 52992, Note_on_c, 4, 55, 84
5, 52992, Note_on_c, 4, 60, 84
5, 52992, Note_on_c, 4, 64, 80
5, 53052, Note_off_c, 4, 60, 64
5, 53060, Note_off_c, 4, 64, 64
5, 53065, Note_off_c, 4, 55, 64
5, 53184, Note_on_c, 4, 55, 84
5, 53184, Note_on_c, 4, 60, 88
5, 53184, Note_on_c, 4, 64, 88
5, 53249, Note_off_c, 4, 60, 64
5, 53253, Note_off_c, 4, 64, 64
5, 53260, Note_off_c, 4, 55, 64
5, 53376, Note_on_c, 4, 55, 84
5, 53376, Note_on_c, 4, 60, 88
5, 53376, Note_on_c, 4, 64, 88
5, 53443, Note_off_c, 4, 60, 64
5, 53451, Note_off_c, 4, 64, 64
5, 53459, Note_off_c, 4, 55, 64
5, 53568, Note_on_c, 4, 55, 80
5, 53568, Note_on_c, 4, 60, 80
5, 53568, Note_on_c, 4, 64, 88
5, 53625, Note_off_c, 4, 64, 64
5, 53634, Note_off_c, 4, 60, 64
5, 53637, Note_off_c, 4, 55, 64
5, 53664, Note_on_c, 4, 26, 88
5, 53752, Note_off_c, 4, 26, 64
5, 53760, Note_on_c, 4, 60, 74
5, 53760, Note_on_c, 4, 63, 82
5, 53760, Note_on_c, 4, 67, 78
5, 54453, Note_off_c, 4, 67, 64
5, 54461, Note_off_c, 4, 60, 64
5, 54485, Note_off_c, 4, 63, 64
5, 54528, Note_on_c, 4, 62, 90
5, 54528, Note_on_c, 4, 65, 98
5, 54528, Note_on_c, 4, 69, 94
5, 55162, Note_off_c, 4, 65, 64
5, 55166, Note_off_c, 4, 62, 64
5, 55168, Note_off_c, 4, 69, 64
5, 55200, Note_on_c, 4, 38, 116
5, 55200, Note_on_c, 4, 50, 120
5, 55200, Note_on_c, 4, 57, 112
5, 55200, Note_on_c, 4, 62, 112
5, 55323, Note_off_c, 4, 50, 64
5, 55468, Note_off_c, 4, 57, 64
5, 55488, Note_on_c, 4, 50, 100
5, 55530, Note_off_c, 4, 50, 64
5, 55584, Note_on_c, 4, 50, 124
5, 55584, Note_on_c, 4, 57, 116
5, 55584, Note_on_c, 4, 66, 120
5, 55642, Note_off_c, 4, 50, 64
5, 55680, Note_on_c, 4, 50, 100
5, 55718, Note_off_c, 4, 50, 64
5, 55776, Note_on_c, 4, 50, 96
5, 55813, Note_off_c, 4, 50, 64
5, 55872, Note_on_c, 4, 50, 100
5, 55925, Note_off_c, 4, 50, 64
5, 55942, Note_off_c, 4, 57, 64
5, 55968, Note_on_c, 4, 50, 124
5, 55968, Note_on_c, 4, 57, 120
5, 55968, Note_on_c, 4, 69, 108
5, 56019, Note_off_c, 4, 50, 64
5, 56064, Note_on_c, 4, 50, 96
5, 56105, Note_off_c, 4, 50, 64
5, 56215, Control_c, 4, 64, 127
5, 56466, Note_on_c, 4, 86, 50
5, 56475, Note_on_c, 4, 84, 52
5, 56480, Note_off_c, 4, 86, 64
5, 56487, Note_on_c, 4, 83, 54
5, 56491, Note_off_c, 4, 38, 64
5, 56501, Note_on_c, 4, 81, 56
5, 56502, Note_off_c, 4, 84, 64
5, 56512, Note_off_c, 4, 62, 64
5, 56516, Note_on_c, 4, 79, 59
5, 56519, Note_off_c, 4, 83, 64
5, 56531, Note_off_c, 4, 81, 64
5, 56531, Note_on_c, 4, 77, 62
5, 56541, Note_on_c, 4, 76, 64
5, 56543, Note_off_c, 4, 79, 64
5, 56556, Note_on_c, 4, 74, 66
5, 56560, Note_off_c, 4, 77, 64
5, 56564, Note_off_c, 4, 76, 64
5, 56570, Note_on_c, 4, 72, 69
5, 56575, Note_off_c, 4, 74, 64
5, 56583, Note_on_c, 4, 71, 71
5, 56584, Note_off_c, 4, 72, 64
5, 56594, Note_off_c, 4, 69, 64
5, 56595, Note_on_c, 4, 69, 73
5, 56597, Note_off_c, 4, 71, 64
5, 56598, Note_off_c, 4, 57, 64
5, 56603, Note_off_c, 4, 69, 64
5, 56605, Note_off_c, 4, 66, 64
5, 56607, Note_on_c, 4, 67, 75
5, 56619, Note_on_c, 4, 65, 77
5, 56621, Note_off_c, 4, 67, 64
5, 56632, Note_on_c, 4, 64, 80
5, 56637, Note_on_c, 4, 80, 81
5, 56641, Note_off_c, 4, 65, 64
5, 56647, Note_on_c, 4, 62, 82
5, 56659, Note_off_c, 4, 64, 64
5, 56659, Note_on_c, 4, 78, 85
5, 56661, Note_off_c, 4, 80, 64
5, 56661, Note_on_c, 4, 60, 85
5, 56675, Note_on_c, 4, 59, 87
5, 56681, Note_off_c, 4, 62, 64
5, 56681, Note_off_c, 4, 78, 64
5, 56686, Note_off_c, 4, 60, 64
5, 56700, Note_on_c, 4, 57, 92
5, 56720, Note_off_c, 4, 59, 64
5, 56729, Note_on_c, 4, 56, 97
5, 56737, Note_on_c, 4, 54, 98
5, 56737, Note_on_c, 4, 55, 98
5, 56743, Note_off_c, 4, 54, 64
5, 56752, Note_off_c, 4, 56, 64
5, 56755, Note_off_c, 4, 57, 64
5, 56760, Note_on_c, 4, 53, 103
5, 56763, Note_off_c, 4, 55, 64
5, 56779, Note_off_c, 4, 53, 64
5, 56792, Control_c, 4, 64, 0
5, 56832, Note_on_c, 4, 62, 88
5, 56832, Note_on_c, 4, 67, 104
5, 56832, Note_on_c, 4, 70, 100
5, 56887, Note_off_c, 4, 67, 64
5, 56891, Note_off_c, 4, 70, 64
5, 56908, Note_off_c, 4, 62, 64
5, 57024, Note_on_c, 4, 62, 84
5, 57024, Note_on_c, 4, 67, 84
5, 57024, Note_on_c, 4, 70, 88
5, 57086, Note_off_c, 4, 67, 64
5, 57090, Note_off_c, 4, 70, 64
5, 57103, Note_off_c, 4, 62, 64
5, 57216, Note_on_c, 4, 62, 84
5, 57216, Note_on_c, 4, 67, 68
5, 57216, Note_on_c, 4, 70, 80
5, 57271, Note_off_c, 4, 67, 64
5, 57275, Note_off_c, 4, 70, 64
5, 57284, Note_off_c, 4, 62, 64
5, 57408, Note_on_c, 4, 62, 88
5, 57408, Note_on_c, 4, 67, 84
5, 57408, Note_on_c, 4, 70, 96
5, 57467, Note_off_c, 4, 70, 64
5, 57467, Note_off_c, 4, 67, 64
5, 57482, Note_off_c, 4, 62, 64
5, 57600, Note_on_c, 4, 60, 72
5, 57600, Note_on_c, 4, 64, 88
5, 57600, Note_on_c, 4, 67, 92
5, 57663, Note_off_c, 4, 67, 64
5, 57666, Note_off_c, 4, 60, 64
5, 57668, Note_off_c, 4, 64, 64
5, 57792, Note_on_c, 4, 60, 80
5, 57792, Note_on_c, 4, 64, 88
5, 57792, Note_on_c, 4, 67, 92
5, 57847, Note_off_c, 4, 67, 64
5, 57856, Note_off_c, 4, 64, 64
5, 57857, Note_off_c, 4, 60, 64
5, 57984, Note_on_c, 4, 60, 80
5, 57984, Note_on_c, 4, 64, 84
5, 57984, Note_on_c, 4, 67, 88
5, 58049, Note_off_c, 4, 64, 64
5, 58049, Note_off_c, 4, 60, 64
5, 58103, Note_off_c, 4, 67, 64
5, 58176, Note_on_c, 4, 60, 72
5, 58176, Note_on_c, 4, 64, 76
5, 58176, Note_on_c, 4, 67, 88
5, 58234, Note_off_c, 4, 64, 64
5, 58245, Note_off_c, 4, 67, 64
5, 58246, Note_off_c, 4, 60, 64
5, 58368, Note_on_c, 4, 62, 84
5, 58368, Note_on_c, 4, 67, 76
5, 58368, Note_on_c, 4, 70, 68
5, 58422, Note_off_c, 4, 70, 64
5, 58422, Note_off_c, 4, 67, 64
5, 58429, Note_off_c, 4, 62, 64
5, 58560, Note_on_c, 4, 62, 84
5, 58560, Note_on_c, 4, 67, 88
5, 58560, Note_on_c, 4, 70, 76
5, 58610, Note_off_c, 4, 70, 64
5, 58615, Note_off_c, 4, 67, 64
5, 58624, Note_off_c, 4, 62, 64
5, 58752, Note_on_c, 4, 62, 84
5, 58752, Note_on_c, 4, 67, 76
5, 58752, Note_on_c, 4, 70, 28
5, 58801, Note_off_c, 4, 70, 64
5, 58810, Note_off_c, 4, 67, 64
5, 58819, Note_off_c, 4, 62, 64
5, 58944, Note_on_c, 4, 62, 92
5, 58944, Note_on_c, 4, 67, 92
5, 58944, Note_on_c, 4, 70, 100
5, 58998, Note_off_c, 4, 67, 64
5, 58999, Note_off_c, 4, 70, 64
5, 59011, Note_off_c, 4, 62, 64
5, 59136, Note_on_c, 4, 60, 72
5, 59136, Note_on_c, 4, 64, 72
5, 59136, Note_on_c, 4, 67, 80
5, 59197, Note_off_c, 4, 64, 64
5, 59198, Note_off_c, 4, 67, 64
5, 59201, Note_off_c, 4, 60, 64
5, 59328, Note_on_c, 4, 60, 80
5, 59328, Note_on_c, 4, 64, 88
5, 59328, Note_on_c, 4, 67, 88
5, 59386, Note_off_c, 4, 64, 64
5, 59390, Note_off_c, 4, 60, 64
5, 59399, Note_off_c, 4, 67, 64
5, 59520, Note_on_c, 4, 60, 76
5, 59520, Note_on_c, 4, 64, 76
5, 59520, Note_on_c, 4, 67, 52
5, 59570, Note_off_c, 4, 67, 64
5, 59574, Note_off_c, 4, 64, 64
5, 59585, Note_off_c, 4, 60, 64
5, 59712, Note_on_c, 4, 60, 76
5, 59712, Note_on_c, 4, 64, 76
5, 59712, Note_on_c, 4, 67, 60
5, 59766, Note_off_c, 4, 67, 64
5, 59767, Note_off_c, 4, 64, 64
5, 59775, Note_off_c, 4, 60, 64
5, 59904, Note_on_c, 4, 62, 84
5, 59904, Note_on_c, 4, 67, 76
5, 59904, Note_on_c, 4, 70, 68
5, 59958, Note_off_c, 4, 70, 64
5, 59958, Note_off_c, 4, 67, 64
5, 59965, Note_off_c, 4, 62, 64
5, 60096, Note_on_c, 4, 62, 84
5, 60096, Note_on_c, 4, 67, 88
5, 60096, Note_on_c, 4, 70, 76
5, 60146, Note_off_c, 4, 70, 64
5, 60151, Note_off_c, 4, 67, 64
5, 60160, Note_off_c, 4, 62, 64
5, 60288, Note_on_c, 4, 62, 84
5, 60288, Note_on_c, 4, 67, 76
5, 60288, Note_on_c, 4, 70, 28
5, 60337, Note_off_c, 4, 70, 64
5, 60346, Note_off_c, 4, 67, 64
5, 60355, Note_off_c, 4, 62, 64
5, 60480, Note_on_c, 4, 62, 92
5, 60480, Note_on_c, 4, 67, 92
5, 60480, Note_on_c, 4, 70, 100
5, 60534, Note_off_c, 4, 67, 64
5, 60535, Note_off_c, 4, 70, 64
5, 60547, Note_off_c, 4, 62, 64
5, 60672, Note_on_c, 4, 60, 72
5, 60672, Note_on_c, 4, 64, 72
5, 60672, Note_on_c, 4, 67, 80
5, 60733, Note_off_c, 4, 64, 64
5, 60734, Note_off_c, 4, 67, 64
5, 60737, Note_off_c, 4, 60, 64
5, 60864, Note_on_c, 4, 60, 80
5, 60864, Note_on_c, 4, 64, 88
5, 60864, Note_on_c, 4, 67, 88
5, 60922, Note_off_c, 4, 64, 64
5, 60926, Note_off_c, 4, 60, 64
5, 60935, Note_off_c, 4, 67, 64
5, 61056, Note_on_c, 4, 60, 76
5, 61056, Note_on_c, 4, 64, 76
5, 61056, Note_on_c, 4, 67, 52
5, 61106, Note_off_c, 4, 67, 64
5, 61110, Note_off_c, 4, 64, 64
5, 61121, Note_off_c, 4, 60, 64
5, 61248, Note_on_c, 4, 60, 76
5, 61248, Note_on_c, 4, 64, 76
5, 61248, Note_on_c, 4, 67, 60
5, 61302, Note_off_c, 4, 67, 64
5, 61303, Note_off_c, 4, 64, 64
5, 61311, Note_off_c, 4, 60, 64
5, 61440, Note_on_c, 4, 55, 92
5, 61440, Note_on_c, 4, 60, 116
5, 61440, Note_on_c, 4, 63, 112
5, 61470, Note_off_c, 4, 60, 64
5, 61471, Note_off_c, 4, 55, 64
5, 61471, Note_off_c, 4, 63, 64
5, 63744, Note_on_c, 4, 31, 108
5, 63744, Note_on_c, 4, 55, 112
5, 63744, Note_on_c, 4, 58, 108
5, 63744, Note_on_c, 4, 62, 120
5, 63815, Note_off_c, 4, 58, 64
5, 63824, Note_off_c, 4, 55, 64
5, 63826, Note_off_c, 4, 62, 64
5, 63840, Note_off_c, 4, 31, 64
5, 64416, Note_on_c, 4, 36, 120
5, 64416, Note_on_c, 4, 52, 104
5, 64416, Note_on_c, 4, 55, 120
5, 64416, Note_on_c, 4, 60, 104
5, 64503, Note_off_c, 4, 60, 64
5, 64503, Note_off_c, 4, 52, 64
5, 64505, Note_off_c, 4, 55, 64
5, 64521, Note_off_c, 4, 36, 64
5, 65280, Note_on_c, 4, 31, 96
5, 65280, Note_on_c, 4, 55, 108
5, 65280, Note_on_c, 4, 58, 112
5, 65280, Note_on_c, 4, 62, 104
5, 65356, Note_off_c, 4, 58, 64
5, 65361, Note_off_c, 4, 62, 64
5, 65362, Note_off_c, 4, 55, 64
5, 65375, Note_off_c, 4, 31, 64
5, 65952, Note_on_c, 4, 36, 120
5, 65952, Note_on_c, 4, 52, 108
5, 65952, Note_on_c, 4, 55, 112
5, 65952, Note_on_c, 4, 60, 112
5, 66037, Note_off_c, 4, 55, 64
5, 66039, Note_off_c, 4, 52, 64
5, 66040, Note_off_c, 4, 60, 64
5, 66050, Note_off_c, 4, 36, 64
5, 66816, Note_on_c, 4, 31, 96
5, 66816, Note_on_c, 4, 55, 108
5, 66816, Note_on_c, 4, 58, 112
5, 66816, Note_on_c, 4, 62, 104
5, 66892, Note_off_c, 4, 58, 64
5, 66897, Note_off_c, 4, 62, 64
5, 66898, Note_off_c, 4, 55, 64
5, 66911, Note_off_c, 4, 31, 64
5, 67488, Note_on_c, 4, 36, 120
5, 67488, Note_on_c, 4, 52, 108
5, 67488, Note_on_c, 4, 55, 112
5, 67488, Note_on_c, 4, 60, 112
5, 67573, Note_off_c, 4, 55, 64
5, 67575, Note_off_c, 4, 52, 64
5, 67576, Note_off_c, 4, 60, 64
5, 67586, Note_off_c, 4, 36, 64
5, 68352, Note_on_c, 4, 31, 96
5, 68352, Note_on_c, 4, 55, 108
5, 68352, Note_on_c, 4, 58, 112
5, 68352, Note_on_c, 4, 62, 104
5, 68428, Note_off_c, 4, 58, 64
5, 68433, Note_off_c, 4, 62, 64
5, 68434, Note_off_c, 4, 55, 64
5, 68447, Note_off_c, 4, 31, 64
5, 69024, Note_on_c, 4, 36, 120
5, 69024, Note_on_c, 4, 52, 108
5, 69024, Note_on_c, 4, 55, 112
5, 69024, Note_on_c, 4, 60, 112
5, 69109, Note_off_c, 4, 55, 64
5, 69111, Note_off_c, 4, 52, 64
5, 69112, Note_off_c, 4, 60, 64
5, 69122, Note_off_c, 4, 36, 64
5, 69888, Note_on_c, 4, 62, 88
5, 69888, Note_on_c, 4, 67, 104
5, 69888, Note_on_c, 4, 70, 100
5, 69943, Note_off_c, 4, 67, 64
5, 69947, Note_off_c, 4, 70, 64
5, 69964, Note_off_c, 4, 62, 64
5, 69984, Control_c, 4, 7, 86
5, 70080, Note_on_c, 4, 62, 84
5, 70080, Note_on_c, 4, 67, 84
5, 70080, Note_on_c, 4, 70, 88
5, 70142, Note_off_c, 4, 67, 64
5, 70146, Note_off_c, 4, 70, 64
5, 70159, Note_off_c, 4, 62, 64
5, 70176, Control_c, 4, 7, 83
5, 70272, Note_on_c, 4, 62, 84
5, 70272, Note_on_c, 4, 67, 68
5, 70272, Note_on_c, 4, 70, 80
5, 70327, Note_off_c, 4, 67, 64
5, 70331, Note_off_c, 4, 70, 64
5, 70340, Note_off_c, 4, 62, 64
5, 70368, Control_c, 4, 7, 79
5, 70464, Note_on_c, 4, 62, 88
5, 70464, Note_on_c, 4, 67, 84
5, 70464, Note_on_c, 4, 70, 96
5, 70523, Note_off_c, 4, 70, 64
5, 70523, Note_off_c, 4, 67, 64
5, 70538, Note_off_c, 4, 62, 64
5, 70560, Control_c, 4, 7, 76
5, 70656, Note_on_c, 4, 60, 72
5, 70656, Note_on_c, 4, 64, 88
5, 70656, Note_on_c, 4, 67, 92
5, 70719, Note_off_c, 4, 67, 64
5, 70722, Note_off_c, 4, 60, 64
5, 70724, Note_off_c, 4, 64, 64
5, 70752, Control_c, 4, 7, 73
5, 70848, Note_on_c, 4, 60, 80
5, 70848, Note_on_c, 4, 64, 88
5, 70848, Note_on_c, 4, 67, 92
5, 70903, Note_off_c, 4, 67, 64
5, 70912, Note_off_c, 4, 64, 64
5, 70913, Note_off_c, 4, 60, 64
5, 70944, Control_c, 4, 7, 70
5, 71040, Note_on_c, 4, 60, 80
5, 71040, Note_on_c, 4, 64, 84
5, 71040, Note_on_c, 4, 67, 88
5, 71105, Note_off_c, 4, 64, 64
5, 71105, Note_off_c, 4, 60, 64
5, 71136, Control_c, 4, 7, 67
5, 71159, Note_off_c, 4, 67, 64
5, 71232, Note_on_c, 4, 60, 72
5, 71232, Note_on_c, 4, 64, 76
5, 71232, Note_on_c, 4, 67, 88
5, 71290, Note_off_c, 4, 64, 64
5, 71301, Note_off_c, 4, 67, 64
5, 71302, Note_off_c, 4, 60, 64
5, 71328, Control_c, 4, 7, 63
5, 71424, Note_on_c, 4, 62, 84
5, 71424, Note_on_c, 4, 67, 76
5, 71424, Note_on_c, 4, 70, 68
5, 71478, Note_off_c, 4, 70, 64
5, 71478, Note_off_c, 4, 67, 64
5, 71485, Note_off_c, 4, 62, 64
5, 71520, Control_c, 4, 7, 60
5, 71616, Note_on_c, 4, 62, 84
5, 71616, Note_on_c, 4, 67, 88
5, 71616, Note_on_c, 4, 70, 76
5, 71666, Note_off_c, 4, 70, 64
5, 71671, Note_off_c, 4, 67, 64
5, 71680, Note_off_c, 4, 62, 64
5, 71712, Control_c, 4, 7, 56
5, 71808, Note_on_c, 4, 62, 84
5, 71808, Note_on_c, 4, 67, 76
5, 71808, Note_on_c, 4, 70, 28
5, 71857, Note_off_c, 4, 70, 64
5, 71866, Note_off_c, 4, 67, 64
5, 71875, Note_off_c, 4, 62, 64
5, 71904, Control_c, 4, 7, 54
5, 72000, Note_on_c, 4, 62, 92
5, 72000, Note_on_c, 4, 67, 92
5, 72000, Note_on_c, 4, 70, 100
5, 72054, Note_off_c, 4, 67, 64
5, 72055, Note_off_c, 4, 70, 64
5, 72067, Note_off_c, 4, 62, 64
5, 72096, Control_c, 4, 7, 51
5, 72192, Note_on_c, 4, 60, 72
5, 72192, Note_on_c, 4, 64, 72
5, 72192, Note_on_c, 4, 67, 80
5, 72253, Note_off_c, 4, 64, 64
5, 72254, Note_off_c, 4, 67, 64
5, 72257, Note_off_c, 4, 60, 64
5, 72288, Control_c, 4, 7, 49
5, 72384, Note_on_c, 4, 60, 80
5, 72384, Note_on_c, 4, 64, 88
5, 72384, Note_on_c, 4, 67, 88
5, 72442, Note_off_c, 4, 64, 64
5, 72446, Note_off_c, 4, 60, 64
5, 72455, Note_off_c, 4, 67, 64
5, 72480, Control_c, 4, 7, 45
5, 72576, Note_on_c, 4, 60, 76
5, 72576, Note_on_c, 4, 64, 76
5, 72576, Note_on_c, 4, 67, 52
5, 72626, Note_off_c, 4, 67, 64
5, 72630, Note_off_c, 4, 64, 64
5, 72641, Note_off_c, 4, 60, 64
5, 72672, Control_c, 4, 7, 41
5, 72768, Note_on_c, 4, 60, 76
5, 72768, Note_on_c, 4, 64, 76
5, 72768, Note_on_c, 4, 67, 60
5, 72822, Note_off_c, 4, 67, 64
5, 72823, Note_off_c, 4, 64, 64
5, 72831, Note_off_c, 4, 60, 64
5, 72864, Control_c, 4, 7, 38
5, 72960, Note_on_c, 4, 62, 88
5, 72960, Note_on_c, 4, 67, 104
5, 72960, Note_on_c, 4, 70, 100
5, 73015, Note_off_c, 4, 67, 64
5, 73019, Note_off_c, 4, 70, 64
5, 73036, Note_off_c, 4, 62, 64
5, 73056, Control_c, 4, 7, 35
5, 73152, Note_on_c, 4, 62, 84
5, 73152, Note_on_c, 4, 67, 84
5, 73152, Note_on_c, 4, 70, 88
5, 73214, Note_off_c, 4, 67, 64
5, 73218, Note_off_c, 4, 70, 64
5, 73231, Note_off_c, 4, 62, 64
5, 73248, Control_c, 4, 7, 33
5, 73344, Note_on_c, 4, 62, 84
5, 73344, Note_on_c, 4, 67, 68
5, 73344, Note_on_c, 4, 70, 80
5, 73399, Note_off_c, 4, 67, 64
5, 73403, Note_off_c, 4, 70, 64
5, 73412, Note_off_c, 4, 62, 64
5, 73440, Control_c, 4, 7, 29
5, 73536, Note_on_c, 4, 62, 88
5, 73536, Note_on_c, 4, 67, 84
5, 73536, Note_on_c, 4, 70, 96
5, 73595, Note_off_c, 4, 70, 64
5, 73595, Note_off_c, 4, 67, 64
5, 73610, Note_off_c, 4, 62, 64
5, 73632, Control_c, 4, 7, 26
5, 73728, Note_on_c, 4, 60, 72
5, 73728, Note_on_c, 4, 64, 88
5, 73728, Note_on_c, 4, 67, 92
5, 73791, Note_off_c, 4, 67, 64
5, 73794, Note_off_c, 4, 60, 64
5, 73796, Note_off_c, 4, 64, 64
5, 73824, Control_c, 4, 7, 22
5, 73920, Note_on_c, 4, 60, 80
5, 73920, Note_on_c, 4, 64, 88
5, 73920, Note_on_c, 4, 67, 92
5, 73975, Note_off_c, 4, 67, 64
5, 73984, Note_off_c, 4, 64, 64
5, 73985, Note_off_c, 4, 60, 64
5, 74016, Control_c, 4, 7, 19
5, 74112, Note_on_c, 4, 60, 80
5, 74112, Note_on_c, 4, 64, 84
5, 74112, Note_on_c, 4, 67, 88
5, 74177, Note_off_c, 4, 64, 64
5, 74177, Note_off_c, 4, 60, 64
5, 74208, Control_c, 4, 7, 17
5, 74231, Note_off_c, 4, 67, 64
5, 74304, Note_on_c, 4, 60, 72
5, 74304, Note_on_c, 4, 64, 76
5, 74304, Note_on_c, 4, 67, 88
5, 74362, Note_off_c, 4, 64, 64
5, 74373, Note_off_c, 4, 67, 64
5, 74374, Note_off_c, 4, 60, 64
5, 74400, Control_c, 4, 7, 13
5, 74496, Note_on_c, 4, 62, 84
5, 74496, Note_on_c, 4, 67, 76
5, 74496, Note_on_c, 4, 70, 68
5, 74550, Note_off_c, 4, 70, 64
5, 74550, Note_off_c, 4, 67, 64
5, 74557, Note_off_c, 4, 62, 64
5, 74592, Control_c, 4, 7, 10
5, 74688, Note_on_c, 4, 62, 84
5, 74688, Note_on_c, 4, 67, 88
5, 74688, Note_on_c, 4, 70, 76
5, 74738, Note_off_c, 4, 70, 64
5, 74743, Note_off_c, 4, 67, 64
5, 74752, Note_off_c, 4, 62, 64
5, 74784, Control_c, 4, 7, 6
5, 75264, Control_c, 4, 7, 0
5, 76032, Control_c, 4, 120, 0
5, 76048, Control_c, 4, 123, 0
5, 76048, End_track
6, 0, Start_track
6, 0, Title_t, "Clavinet"
6, 0, Channel_prefix, 5
6, 0, Control_c, 5, 7, 127
6, 0, Control_c, 5, 10, 64
6, 0, Program_c, 5, 0
6, 215, Control_c, 5, 121, 0
6, 232, Control_c, 5, 7, 77
6, 233, Control_c, 5, 10, 56
6, 234, Control_c, 5, 11, 127
6, 235, Control_c, 5, 91, 60
6, 236, Control_c, 5, 93, 40
6, 253, Pitch_bend_c, 5, 8192
6, 278, Control_c, 5, 0, 0
6, 333, Program_c, 5, 7
6, 4800, Note_on_c, 5, 74, 102
6, 4800, Note_on_c, 5, 77, 96
6, 4857, Note_off_c, 5, 77, 64
6, 4859, Note_off_c, 5, 74, 64
6, 4896, Note_on_c, 5, 74, 116
6, 4896, Note_on_c, 5, 77, 102
6, 4969, Note_off_c, 5, 74, 64
6, 4978, Note_off_c, 5, 77, 64
6, 5184, Note_on_c, 5, 74, 102
6, 5184, Note_on_c, 5, 77, 102
6, 5251, Note_off_c, 5, 74, 64
6, 5253, Note_off_c, 5, 77, 64
6, 5280, Note_on_c, 5, 74, 116
6, 5280, Note_on_c, 5, 77, 109
6, 5346, Note_off_c, 5, 74, 64
6, 5351, Note_off_c, 5, 77, 64
6, 5568, Note_on_c, 5, 72, 102
6, 5568, Note_on_c, 5, 76, 102
6, 5631, Note_off_c, 5, 76, 64
6, 5631, Note_off_c, 5, 72, 64
6, 5664, Note_on_c, 5, 72, 102
6, 5664, Note_on_c, 5, 76, 109
6, 5726, Note_off_c, 5, 76, 64
6, 5734, Note_off_c, 5, 72, 64
6, 5952, Note_on_c, 5, 72, 102
6, 5952, Note_on_c, 5, 76, 116
6, 6035, Note_off_c, 5, 72, 64
6, 6046, Note_off_c, 5, 76, 64
6, 6048, Note_on_c, 5, 70, 116
6, 6048, Note_on_c, 5, 74, 80
6, 6109, Note_off_c, 5, 70, 64
6, 6126, Note_off_c, 5, 74, 64
6, 6336, Note_on_c, 5, 74, 109
6, 6336, Note_on_c, 5, 77, 116
6, 6394, Note_off_c, 5, 77, 64
6, 6403, Note_off_c, 5, 74, 64
6, 6432, Note_on_c, 5, 74, 102
6, 6432, Note_on_c, 5, 77, 116
6, 6490, Note_off_c, 5, 77, 64
6, 6496, Note_off_c, 5, 74, 64
6, 6720, Note_on_c, 5, 74, 109
6, 6720, Note_on_c, 5, 77, 96
6, 6776, Note_off_c, 5, 77, 64
6, 6792, Note_off_c, 5, 74, 64
6, 6816, Note_on_c, 5, 74, 109
6, 6816, Note_on_c, 5, 77, 124
6, 6856, Note_off_c, 5, 77, 64
6, 6857, Note_off_c, 5, 74, 64
6, 6912, Note_on_c, 5, 55, 124
6, 6980, Note_off_c, 5, 55, 64
6, 7008, Note_on_c, 5, 55, 102
6, 7063, Note_off_c, 5, 55, 64
6, 7104, Note_on_c, 5, 55, 102
6, 7158, Note_off_c, 5, 55, 64
6, 7200, Note_on_c, 5, 55, 124
6, 7261, Note_off_c, 5, 55, 64
6, 7296, Note_on_c, 5, 55, 124
6, 7351, Note_off_c, 5, 55, 64
6, 7392, Note_on_c, 5, 55, 124
6, 7448, Note_off_c, 5, 55, 64
6, 7488, Note_on_c, 5, 55, 124
6, 7539, Note_off_c, 5, 55, 64
6, 7584, Note_on_c, 5, 55, 124
6, 7646, Note_off_c, 5, 55, 64
6, 7872, Note_on_c, 5, 70, 124
6, 7872, Note_on_c, 5, 74, 109
6, 7942, Note_off_c, 5, 70, 64
6, 7943, Note_off_c, 5, 74, 64
6, 7968, Note_on_c, 5, 70, 90
6, 7968, Note_on_c, 5, 74, 96
6, 8029, Note_off_c, 5, 74, 64
6, 8036, Note_off_c, 5, 70, 64
6, 8256, Note_on_c, 5, 70, 90
6, 8256, Note_on_c, 5, 74, 102
6, 8321, Note_off_c, 5, 74, 64
6, 8335, Note_off_c, 5, 70, 64
6, 8640, Note_on_c, 5, 72, 102
6, 8640, Note_on_c, 5, 76, 116
6, 8701, Note_off_c, 5, 76, 64
6, 8717, Note_off_c, 5, 72, 64
6, 8736, Note_on_c, 5, 72, 102
6, 8736, Note_on_c, 5, 76, 109
6, 8791, Note_off_c, 5, 76, 64
6, 8808, Note_off_c, 5, 72, 64
6, 9024, Note_on_c, 5, 72, 116
6, 9024, Note_on_c, 5, 76, 116
6, 9090, Note_off_c, 5, 76, 64
6, 9100, Note_off_c, 5, 72, 64
6, 9408, Note_on_c, 5, 70, 90
6, 9408, Note_on_c, 5, 74, 102
6, 9452, Note_off_c, 5, 70, 64
6, 9459, Note_off_c, 5, 74, 64
6, 9504, Note_on_c, 5, 70, 102
6, 9504, Note_on_c, 5, 74, 102
6, 9555, Note_off_c, 5, 70, 64
6, 9560, Note_off_c, 5, 74, 64
6, 9792, Note_on_c, 5, 70, 80
6, 9792, Note_on_c, 5, 74, 109
6, 9854, Note_off_c, 5, 74, 64
6, 9857, Note_off_c, 5, 70, 64
6, 10176, Note_on_c, 5, 72, 102
6, 10176, Note_on_c, 5, 76, 109
6, 10226, Note_off_c, 5, 76, 64
6, 10237, Note_off_c, 5, 72, 64
6, 10272, Note_on_c, 5, 72, 109
6, 10272, Note_on_c, 5, 76, 102
6, 10330, Note_off_c, 5, 76, 64
6, 10338, Note_off_c, 5, 72, 64
6, 10560, Note_on_c, 5, 72, 102
6, 10560, Note_on_c, 5, 76, 116
6, 10629, Note_off_c, 5, 76, 64
6, 10642, Note_off_c, 5, 72, 64
6, 10752, Note_on_c, 5, 48, 90
6, 10942, Note_off_c, 5, 48, 64
6, 10944, Note_on_c, 5, 48, 85
6, 11134, Note_off_c, 5, 48, 64
6, 11136, Note_on_c, 5, 51, 85
6, 11326, Note_off_c, 5, 51, 64
6, 11328, Note_on_c, 5, 55, 90
6, 11518, Note_off_c, 5, 55, 64
6, 11520, Note_on_c, 5, 53, 75
6, 11710, Note_off_c, 5, 53, 64
6, 11712, Note_on_c, 5, 53, 85
6, 11902, Note_off_c, 5, 53, 64
6, 11904, Note_on_c, 5, 57, 96
6, 12094, Note_off_c, 5, 57, 64
6, 12096, Note_on_c, 5, 57, 75
6, 12233, Note_off_c, 5, 57, 64
6, 12480, Note_on_c, 5, 70, 124
6, 12480, Note_on_c, 5, 74, 102
6, 12511, Note_off_c, 5, 70, 64
6, 12512, Note_off_c, 5, 74, 64
6, 12576, Note_on_c, 5, 70, 124
6, 12576, Note_on_c, 5, 74, 96
6, 12600, Note_off_c, 5, 74, 64
6, 12604, Note_off_c, 5, 70, 64
6, 12864, Note_on_c, 5, 70, 124
6, 12864, Note_on_c, 5, 74, 109
6, 12897, Note_off_c, 5, 70, 64
6, 12900, Note_off_c, 5, 74, 64
6, 13146, Pitch_bend_c, 5, 3072
6, 13152, Note_on_c, 5, 65, 116
6, 13153, Pitch_bend_c, 5, 2304
6, 13160, Pitch_bend_c, 5, 1536
6, 13169, Pitch_bend_c, 5, 1152
6, 13182, Pitch_bend_c, 5, 1280
6, 13190, Pitch_bend_c, 5, 1792
6, 13198, Pitch_bend_c, 5, 2944
6, 13207, Pitch_bend_c, 5, 4608
6, 13214, Pitch_bend_c, 5, 6784
6, 13221, Pitch_bend_c, 5, 7552
6, 13229, Pitch_bend_c, 5, 7936
6, 13236, Pitch_bend_c, 5, 8192
6, 13248, Note_on_c, 5, 74, 116
6, 13257, Note_off_c, 5, 65, 64
6, 13295, Note_off_c, 5, 74, 64
6, 13344, Note_on_c, 5, 72, 116
6, 13457, Note_off_c, 5, 72, 64
6, 13536, Note_on_c, 5, 84, 109
6, 13536, Note_on_c, 5, 89, 124
6, 13563, Note_off_c, 5, 89, 64
6, 13570, Note_off_c, 5, 84, 64
6, 13632, Note_on_c, 5, 86, 124
6, 13632, Note_on_c, 5, 91, 116
6, 13660, Note_off_c, 5, 91, 64
6, 13661, Note_off_c, 5, 86, 64
6, 13728, Note_on_c, 5, 84, 109
6, 13728, Note_on_c, 5, 89, 116
6, 13763, Note_off_c, 5, 89, 64
6, 13769, Note_off_c, 5, 84, 64
6, 13824, Note_on_c, 5, 86, 124
6, 13824, Note_on_c, 5, 91, 124
6, 13864, Note_off_c, 5, 91, 64
6, 13864, Note_off_c, 5, 86, 64
6, 14016, Note_on_c, 5, 70, 124
6, 14016, Note_on_c, 5, 74, 102
6, 14051, Note_off_c, 5, 70, 64
6, 14055, Note_off_c, 5, 74, 64
6, 14112, Note_on_c, 5, 70, 124
6, 14112, Note_on_c, 5, 74, 96
6, 14149, Note_off_c, 5, 74, 64
6, 14150, Note_off_c, 5, 70, 64
6, 14400, Note_on_c, 5, 70, 124
6, 14400, Note_on_c, 5, 74, 96
6, 14449, Note_off_c, 5, 74, 64
6, 14450, Note_off_c, 5, 70, 64
6, 14680, Pitch_bend_c, 5, 4992
6, 14688, Note_on_c, 5, 65, 116
6, 14688, Pitch_bend_c, 5, 3840
6, 14695, Pitch_bend_c, 5, 3072
6, 14702, Pitch_bend_c, 5, 2432
6, 14709, Pitch_bend_c, 5, 2304
6, 14717, Pitch_bend_c, 5, 2176
6, 14724, Pitch_bend_c, 5, 2560
6, 14731, Pitch_bend_c, 5, 3072
6, 14739, Pitch_bend_c, 5, 5760
6, 14748, Pitch_bend_c, 5, 7424
6, 14757, Pitch_bend_c, 5, 7936
6, 14764, Pitch_bend_c, 5, 8192
6, 14781, Note_off_c, 5, 65, 64
6, 14784, Note_on_c, 5, 74, 102
6, 14830, Note_off_c, 5, 74, 64
6, 14880, Note_on_c, 5, 72, 116
6, 15033, Note_off_c, 5, 72, 64
6, 15072, Note_on_c, 5, 84, 109
6, 15072, Note_on_c, 5, 89, 124
6, 15105, Note_off_c, 5, 89, 64
6, 15110, Note_off_c, 5, 84, 64
6, 15168, Note_on_c, 5, 86, 124
6, 15168, Note_on_c, 5, 91, 116
6, 15197, Note_off_c, 5, 91, 64
6, 15202, Note_off_c, 5, 86, 64
6, 15264, Note_on_c, 5, 84, 102
6, 15264, Note_on_c, 5, 89, 116
6, 15302, Note_off_c, 5, 89, 64
6, 15306, Note_off_c, 5, 84, 64
6, 15360, Note_on_c, 5, 86, 124
6, 15360, Note_on_c, 5, 91, 124
6, 15400, Note_off_c, 5, 91, 64
6, 15400, Note_off_c, 5, 86, 64
6, 15552, Note_on_c, 5, 70, 124
6, 15552, Note_on_c, 5, 74, 102
6, 15587, Note_off_c, 5, 70, 64
6, 15591, Note_off_c, 5, 74, 64
6, 15648, Note_on_c, 5, 70, 124
6, 15648, Note_on_c, 5, 74, 96
6, 15685, Note_off_c, 5, 74, 64
6, 15686, Note_off_c, 5, 70, 64
6, 15936, Note_on_c, 5, 70, 124
6, 15936, Note_on_c, 5, 74, 96
6, 15985, Note_off_c, 5, 74, 64
6, 15986, Note_off_c, 5, 70, 64
6, 16216, Pitch_bend_c, 5, 4992
6, 16224, Note_on_c, 5, 65, 116
6, 16224, Pitch_bend_c, 5, 3840
6, 16231, Pitch_bend_c, 5, 3072
6, 16238, Pitch_bend_c, 5, 2432
6, 16245, Pitch_bend_c, 5, 2304
6, 16253, Pitch_bend_c, 5, 2176
6, 16260, Pitch_bend_c, 5, 2560
6, 16267, Pitch_bend_c, 5, 3072
6, 16275, Pitch_bend_c, 5, 5760
6, 16284, Pitch_bend_c, 5, 7424
6, 16300, Pitch_bend_c, 5, 8192
6, 16317, Note_off_c, 5, 65, 64
6, 16320, Note_on_c, 5, 74, 102
6, 16366, Note_off_c, 5, 74, 64
6, 16416, Note_on_c, 5, 72, 116
6, 16569, Note_off_c, 5, 72, 64
6, 16608, Note_on_c, 5, 70, 109
6, 16608, Note_on_c, 5, 74, 102
6, 16639, Note_off_c, 5, 70, 64
6, 16642, Note_off_c, 5, 74, 64
6, 16800, Note_on_c, 5, 72, 102
6, 16800, Note_on_c, 5, 76, 116
6, 16843, Note_off_c, 5, 72, 64
6, 16844, Note_off_c, 5, 76, 64
6, 17568, Note_on_c, 5, 43, 124
6, 17922, Note_off_c, 5, 43, 64
6, 17952, Note_on_c, 5, 41, 124
6, 18048, Note_on_c, 5, 38, 124
6, 18060, Note_off_c, 5, 41, 64
6, 18336, Note_on_c, 5, 36, 124
6, 18380, Note_off_c, 5, 38, 64
6, 18406, Note_off_c, 5, 36, 64
6, 18432, Note_on_c, 5, 34, 124
6, 18697, Note_off_c, 5, 34, 64
6, 18720, Note_on_c, 5, 36, 124
6, 18804, Note_off_c, 5, 36, 64
6, 18816, Note_on_c, 5, 34, 124
6, 18920, Note_off_c, 5, 34, 64
6, 19008, Note_on_c, 5, 31, 124
6, 19088, Note_off_c, 5, 31, 64
6, 19392, Note_on_c, 5, 70, 124
6, 19392, Note_on_c, 5, 74, 116
6, 19445, Note_off_c, 5, 70, 64
6, 19448, Note_off_c, 5, 74, 64
6, 19488, Note_on_c, 5, 70, 124
6, 19488, Note_on_c, 5, 74, 102
6, 19544, Note_off_c, 5, 74, 64
6, 19544, Note_off_c, 5, 70, 64
6, 19776, Note_on_c, 5, 70, 124
6, 19776, Note_on_c, 5, 74, 116
6, 19824, Note_off_c, 5, 70, 64
6, 19831, Note_off_c, 5, 74, 64
6, 19872, Note_on_c, 5, 67, 116
6, 19872, Note_on_c, 5, 72, 102
6, 19921, Note_off_c, 5, 67, 64
6, 19936, Note_off_c, 5, 72, 64
6, 20160, Note_on_c, 5, 70, 116
6, 20160, Note_on_c, 5, 74, 102
6, 20206, Note_off_c, 5, 70, 64
6, 20213, Note_off_c, 5, 74, 64
6, 20256, Note_on_c, 5, 67, 116
6, 20256, Note_on_c, 5, 72, 102
6, 20307, Note_off_c, 5, 67, 64
6, 20313, Note_off_c, 5, 72, 64
6, 20448, Note_on_c, 5, 67, 124
6, 20448, Note_on_c, 5, 72, 109
6, 20500, Note_off_c, 5, 67, 64
6, 20510, Note_off_c, 5, 72, 64
6, 20640, Note_on_c, 5, 70, 124
6, 20640, Note_on_c, 5, 74, 116
6, 20699, Note_off_c, 5, 74, 64
6, 20702, Note_off_c, 5, 70, 64
6, 20928, Note_on_c, 5, 70, 124
6, 20928, Note_on_c, 5, 74, 116
6, 20981, Note_off_c, 5, 70, 64
6, 20984, Note_off_c, 5, 74, 64
6, 21024, Note_on_c, 5, 70, 124
6, 21024, Note_on_c, 5, 74, 102
6, 21080, Note_off_c, 5, 74, 64
6, 21080, Note_off_c, 5, 70, 64
6, 21312, Note_on_c, 5, 70, 124
6, 21312, Note_on_c, 5, 74, 116
6, 21360, Note_off_c, 5, 70, 64
6, 21367, Note_off_c, 5, 74, 64
6, 21408, Note_on_c, 5, 67, 116
6, 21408, Note_on_c, 5, 72, 102
6, 21457, Note_off_c, 5, 67, 64
6, 21472, Note_off_c, 5, 72, 64
6, 21696, Note_on_c, 5, 70, 116
6, 21696, Note_on_c, 5, 74, 102
6, 21742, Note_off_c, 5, 70, 64
6, 21749, Note_off_c, 5, 74, 64
6, 21792, Note_on_c, 5, 67, 116
6, 21792, Note_on_c, 5, 72, 102
6, 21843, Note_off_c, 5, 67, 64
6, 21849, Note_off_c, 5, 72, 64
6, 21984, Note_on_c, 5, 67, 124
6, 21984, Note_on_c, 5, 72, 109
6, 22036, Note_off_c, 5, 67, 64
6, 22046, Note_off_c, 5, 72, 64
6, 22176, Note_on_c, 5, 70, 124
6, 22176, Note_on_c, 5, 74, 116
6, 22235, Note_off_c, 5, 74, 64
6, 22238, Note_off_c, 5, 70, 64
6, 22464, Note_on_c, 5, 74, 102
6, 22464, Note_on_c, 5, 77, 96
6, 22521, Note_off_c, 5, 77, 64
6, 22523, Note_off_c, 5, 74, 64
6, 22560, Note_on_c, 5, 74, 116
6, 22560, Note_on_c, 5, 77, 102
6, 22633, Note_off_c, 5, 74, 64
6, 22642, Note_off_c, 5, 77, 64
6, 22848, Note_on_c, 5, 74, 102
6, 22848, Note_on_c, 5, 77, 102
6, 22915, Note_off_c, 5, 74, 64
6, 22917, Note_off_c, 5, 77, 64
6, 22944, Note_on_c, 5, 74, 116
6, 22944, Note_on_c, 5, 77, 109
6, 23010, Note_off_c, 5, 74, 64
6, 23015, Note_off_c, 5, 77, 64
6, 23232, Note_on_c, 5, 72, 102
6, 23232, Note_on_c, 5, 76, 102
6, 23295, Note_off_c, 5, 76, 64
6, 23295, Note_off_c, 5, 72, 64
6, 23328, Note_on_c, 5, 72, 102
6, 23328, Note_on_c, 5, 76, 109
6, 23390, Note_off_c, 5, 76, 64
6, 23398, Note_off_c, 5, 72, 64
6, 23616, Note_on_c, 5, 72, 102
6, 23616, Note_on_c, 5, 76, 116
6, 23699, Note_off_c, 5, 72, 64
6, 23710, Note_off_c, 5, 76, 64
6, 23712, Note_on_c, 5, 70, 116
6, 23712, Note_on_c, 5, 74, 80
6, 23773, Note_off_c, 5, 70, 64
6, 23790, Note_off_c, 5, 74, 64
6, 24000, Note_on_c, 5, 74, 102
6, 24000, Note_on_c, 5, 77, 96
6, 24057, Note_off_c, 5, 77, 64
6, 24059, Note_off_c, 5, 74, 64
6, 24096, Note_on_c, 5, 74, 116
6, 24096, Note_on_c, 5, 77, 102
6, 24169, Note_off_c, 5, 74, 64
6, 24178, Note_off_c, 5, 77, 64
6, 24384, Note_on_c, 5, 74, 102
6, 24384, Note_on_c, 5, 77, 102
6, 24451, Note_off_c, 5, 74, 64
6, 24453, Note_off_c, 5, 77, 64
6, 24480, Note_on_c, 5, 74, 116
6, 24480, Note_on_c, 5, 77, 109
6, 24546, Note_off_c, 5, 74, 64
6, 24551, Note_off_c, 5, 77, 64
6, 24768, Note_on_c, 5, 72, 102
6, 24768, Note_on_c, 5, 76, 102
6, 24831, Note_off_c, 5, 76, 64
6, 24831, Note_off_c, 5, 72, 64
6, 24864, Note_on_c, 5, 72, 102
6, 24864, Note_on_c, 5, 76, 109
6, 24926, Note_off_c, 5, 76, 64
6, 24934, Note_off_c, 5, 72, 64
6, 25152, Note_on_c, 5, 72, 102
6, 25152, Note_on_c, 5, 76, 116
6, 25235, Note_off_c, 5, 72, 64
6, 25246, Note_off_c, 5, 76, 64
6, 25248, Note_on_c, 5, 70, 116
6, 25248, Note_on_c, 5, 74, 80
6, 25309, Note_off_c, 5, 70, 64
6, 25326, Note_off_c, 5, 74, 64
6, 25344, Note_on_c, 5, 48, 90
6, 25534, Note_off_c, 5, 48, 64
6, 25536, Note_on_c, 5, 48, 85
6, 25726, Note_off_c, 5, 48, 64
6, 25728, Note_on_c, 5, 51, 85
6, 25918, Note_off_c, 5, 51, 64
6, 25920, Note_on_c, 5, 55, 90
6, 26110, Note_off_c, 5, 55, 64
6, 26112, Note_on_c, 5, 53, 75
6, 26302, Note_off_c, 5, 53, 64
6, 26304, Note_on_c, 5, 53, 85
6, 26494, Note_off_c, 5, 53, 64
6, 26496, Note_on_c, 5, 57, 96
6, 26686, Note_off_c, 5, 57, 64
6, 26688, Note_on_c, 5, 57, 75
6, 26825, Note_off_c, 5, 57, 64
6, 27072, Note_on_c, 5, 70, 124
6, 27072, Note_on_c, 5, 74, 116
6, 27125, Note_off_c, 5, 70, 64
6, 27128, Note_off_c, 5, 74, 64
6, 27168, Note_on_c, 5, 70, 124
6, 27168, Note_on_c, 5, 74, 102
6, 27224, Note_off_c, 5, 74, 64
6, 27224, Note_off_c, 5, 70, 64
6, 27456, Note_on_c, 5, 70, 124
6, 27456, Note_on_c, 5, 74, 116
6, 27504, Note_off_c, 5, 70, 64
6, 27511, Note_off_c, 5, 74, 64
6, 27552, Note_on_c, 5, 67, 116
6, 27552, Note_on_c, 5, 72, 102
6, 27601, Note_off_c, 5, 67, 64
6, 27616, Note_off_c, 5, 72, 64
6, 27840, Note_on_c, 5, 70, 116
6, 27840, Note_on_c, 5, 74, 102
6, 27886, Note_off_c, 5, 70, 64
6, 27893, Note_off_c, 5, 74, 64
6, 27936, Note_on_c, 5, 67, 116
6, 27936, Note_on_c, 5, 72, 102
6, 27987, Note_off_c, 5, 67, 64
6, 27993, Note_off_c, 5, 72, 64
6, 28128, Note_on_c, 5, 67, 124
6, 28128, Note_on_c, 5, 72, 109
6, 28128, Note_on_c, 5, 84, 109
6, 28128, Note_on_c, 5, 89, 124
6, 28155, Note_off_c, 5, 89, 64
6, 28162, Note_off_c, 5, 84, 64
6, 28180, Note_off_c, 5, 67, 64
6, 28190, Note_off_c, 5, 72, 64
6, 28224, Note_on_c, 5, 86, 124
6, 28224, Note_on_c, 5, 91, 116
6, 28252, Note_off_c, 5, 91, 64
6, 28253, Note_off_c, 5, 86, 64
6, 28320, Note_on_c, 5, 70, 124
6, 28320, Note_on_c, 5, 74, 116
6, 28320, Note_on_c, 5, 84, 109
6, 28320, Note_on_c, 5, 89, 116
6, 28355, Note_off_c, 5, 89, 64
6, 28361, Note_off_c, 5, 84, 64
6, 28379, Note_off_c, 5, 74, 64
6, 28382, Note_off_c, 5, 70, 64
6, 28608, Note_on_c, 5, 70, 124
6, 28608, Note_on_c, 5, 74, 116
6, 28661, Note_off_c, 5, 70, 64
6, 28664, Note_off_c, 5, 74, 64
6, 28704, Note_on_c, 5, 70, 124
6, 28704, Note_on_c, 5, 74, 102
6, 28760, Note_off_c, 5, 74, 64
6, 28760, Note_off_c, 5, 70, 64
6, 28992, Note_on_c, 5, 70, 124
6, 28992, Note_on_c, 5, 74, 116
6, 29040, Note_off_c, 5, 70, 64
6, 29047, Note_off_c, 5, 74, 64
6, 29088, Note_on_c, 5, 67, 116
6, 29088, Note_on_c, 5, 72, 102
6, 29137, Note_off_c, 5, 67, 64
6, 29152, Note_off_c, 5, 72, 64
6, 29376, Note_on_c, 5, 70, 116
6, 29376, Note_on_c, 5, 74, 102
6, 29422, Note_off_c, 5, 70, 64
6, 29429, Note_off_c, 5, 74, 64
6, 29472, Note_on_c, 5, 67, 116
6, 29472, Note_on_c, 5, 72, 102
6, 29523, Note_off_c, 5, 67, 64
6, 29529, Note_off_c, 5, 72, 64
6, 29664, Note_on_c, 5, 67, 124
6, 29664, Note_on_c, 5, 72, 109
6, 29664, Note_on_c, 5, 84, 109
6, 29664, Note_on_c, 5, 89, 124
6, 29691, Note_off_c, 5, 89, 64
6, 29698, Note_off_c, 5, 84, 64
6, 29716, Note_off_c, 5, 67, 64
6, 29726, Note_off_c, 5, 72, 64
6, 29760, Note_on_c, 5, 86, 124
6, 29760, Note_on_c, 5, 91, 116
6, 29788, Note_off_c, 5, 91, 64
6, 29789, Note_off_c, 5, 86, 64
6, 29856, Note_on_c, 5, 70, 124
6, 29856, Note_on_c, 5, 74, 116
6, 29856, Note_on_c, 5, 84, 109
6, 29856, Note_on_c, 5, 89, 116
6, 29891, Note_off_c, 5, 89, 64
6, 29897, Note_off_c, 5, 84, 64
6, 29915, Note_off_c, 5, 74, 64
6, 29918, Note_off_c, 5, 70, 64
6, 29952, Note_on_c, 5, 86, 124
6, 29952, Note_on_c, 5, 91, 124
6, 29992, Note_off_c, 5, 91, 64
6, 29992, Note_off_c, 5, 86, 64
6, 30144, Note_on_c, 5, 70, 124
6, 30144, Note_on_c, 5, 74, 102
6, 30179, Note_off_c, 5, 70, 64
6, 30183, Note_off_c, 5, 74, 64
6, 30240, Note_on_c, 5, 70, 124
6, 30240, Note_on_c, 5, 74, 96
6, 30277, Note_off_c, 5, 74, 64
6, 30278, Note_off_c, 5, 70, 64
6, 30528, Note_on_c, 5, 70, 124
6, 30528, Note_on_c, 5, 74, 96
6, 30577, Note_off_c, 5, 74, 64
6, 30578, Note_off_c, 5, 70, 64
6, 32160, Note_on_c, 5, 43, 124
6, 32514, Note_off_c, 5, 43, 64
6, 32544, Note_on_c, 5, 41, 124
6, 32640, Note_on_c, 5, 38, 124
6, 32652, Note_off_c, 5, 41, 64
6, 32928, Note_on_c, 5, 36, 124
6, 32972, Note_off_c, 5, 38, 64
6, 32998, Note_off_c, 5, 36, 64
6, 33024, Note_on_c, 5, 34, 124
6, 33024, Note_on_c, 5, 35, 80
6, 33024, Note_on_c, 5, 36, 96
6, 33048, Note_off_c, 5, 36, 64
6, 33049, Note_off_c, 5, 35, 64
6, 33289, Note_off_c, 5, 34, 64
6, 33312, Note_on_c, 5, 36, 124
6, 33396, Note_off_c, 5, 36, 64
6, 33408, Note_on_c, 5, 34, 124
6, 33512, Note_off_c, 5, 34, 64
6, 33600, Note_on_c, 5, 31, 124
6, 33680, Note_off_c, 5, 31, 64
6, 33984, Note_on_c, 5, 70, 124
6, 33984, Note_on_c, 5, 74, 116
6, 34037, Note_off_c, 5, 70, 64
6, 34040, Note_off_c, 5, 74, 64
6, 34080, Note_on_c, 5, 70, 124
6, 34080, Note_on_c, 5, 74, 102
6, 34136, Note_off_c, 5, 74, 64
6, 34136, Note_off_c, 5, 70, 64
6, 34368, Note_on_c, 5, 70, 124
6, 34368, Note_on_c, 5, 74, 116
6, 34416, Note_off_c, 5, 70, 64
6, 34423, Note_off_c, 5, 74, 64
6, 34464, Note_on_c, 5, 67, 116
6, 34464, Note_on_c, 5, 72, 102
6, 34513, Note_off_c, 5, 67, 64
6, 34528, Note_off_c, 5, 72, 64
6, 34752, Note_on_c, 5, 70, 116
6, 34752, Note_on_c, 5, 74, 102
6, 34798, Note_off_c, 5, 70, 64
6, 34805, Note_off_c, 5, 74, 64
6, 34848, Note_on_c, 5, 67, 116
6, 34848, Note_on_c, 5, 72, 102
6, 34899, Note_off_c, 5, 67, 64
6, 34905, Note_off_c, 5, 72, 64
6, 35040, Note_on_c, 5, 67, 124
6, 35040, Note_on_c, 5, 72, 109
6, 35092, Note_off_c, 5, 67, 64
6, 35102, Note_off_c, 5, 72, 64
6, 35232, Note_on_c, 5, 70, 124
6, 35232, Note_on_c, 5, 74, 116
6, 35291, Note_off_c, 5, 74, 64
6, 35294, Note_off_c, 5, 70, 64
6, 35520, Note_on_c, 5, 70, 124
6, 35520, Note_on_c, 5, 74, 116
6, 35573, Note_off_c, 5, 70, 64
6, 35576, Note_off_c, 5, 74, 64
6, 35616, Note_on_c, 5, 70, 124
6, 35616, Note_on_c, 5, 74, 102
6, 35672, Note_off_c, 5, 74, 64
6, 35672, Note_off_c, 5, 70, 64
6, 35904, Note_on_c, 5, 70, 124
6, 35904, Note_on_c, 5, 74, 116
6, 35952, Note_off_c, 5, 70, 64
6, 35959, Note_off_c, 5, 74, 64
6, 36000, Note_on_c, 5, 67, 116
6, 36000, Note_on_c, 5, 72, 102
6, 36049, Note_off_c, 5, 67, 64
6, 36064, Note_off_c, 5, 72, 64
6, 36288, Note_on_c, 5, 70, 116
6, 36288, Note_on_c, 5, 74, 102
6, 36334, Note_off_c, 5, 70, 64
6, 36341, Note_off_c, 5, 74, 64
6, 36384, Note_on_c, 5, 67, 116
6, 36384, Note_on_c, 5, 72, 102
6, 36435, Note_off_c, 5, 67, 64
6, 36441, Note_off_c, 5, 72, 64
6, 36576, Note_on_c, 5, 67, 124
6, 36576, Note_on_c, 5, 72, 109
6, 36628, Note_off_c, 5, 67, 64
6, 36638, Note_off_c, 5, 72, 64
6, 36768, Note_on_c, 5, 70, 124
6, 36768, Note_on_c, 5, 74, 116
6, 36827, Note_off_c, 5, 74, 64
6, 36830, Note_off_c, 5, 70, 64
6, 36864, Note_on_c, 5, 43, 124
6, 37110, Note_off_c, 5, 43, 64
6, 37152, Note_on_c, 5, 41, 124
6, 37210, Note_off_c, 5, 41, 64
6, 37248, Note_on_c, 5, 38, 124
6, 37510, Note_off_c, 5, 38, 64
6, 37536, Note_on_c, 5, 36, 124
6, 37590, Note_off_c, 5, 36, 64
6, 37632, Note_on_c, 5, 34, 124
6, 37878, Note_off_c, 5, 34, 64
6, 37920, Note_on_c, 5, 36, 124
6, 37974, Note_off_c, 5, 36, 64
6, 38016, Note_on_c, 5, 34, 124
6, 38170, Note_off_c, 5, 34, 64
6, 38208, Note_on_c, 5, 31, 124
6, 38262, Note_off_c, 5, 31, 64
6, 38400, Note_on_c, 5, 67, 124
6, 39552, Note_off_c, 5, 67, 64
6, 39552, Note_on_c, 5, 70, 109
6, 39643, Note_off_c, 5, 70, 64
6, 39648, Note_on_c, 5, 69, 90
6, 39744, Note_on_c, 5, 67, 96
6, 39761, Note_off_c, 5, 69, 64
6, 41146, Note_off_c, 5, 67, 64
6, 41184, Note_on_c, 5, 67, 116
6, 41280, Note_on_c, 5, 69, 90
6, 41281, Note_off_c, 5, 67, 64
6, 41446, Note_off_c, 5, 69, 64
6, 41472, Note_on_c, 5, 70, 109
6, 42550, Note_off_c, 5, 70, 64
6, 42624, Note_on_c, 5, 70, 124
6, 42715, Note_off_c, 5, 70, 64
6, 42720, Note_on_c, 5, 69, 80
6, 42816, Note_on_c, 5, 67, 96
6, 42821, Note_off_c, 5, 69, 64
6, 42957, Note_off_c, 5, 67, 64
6, 43018, Note_on_c, 5, 69, 124
6, 43758, Note_off_c, 5, 69, 64
6, 44736, Note_on_c, 5, 70, 109
6, 44736, Note_on_c, 5, 74, 96
6, 44803, Note_off_c, 5, 70, 64
6, 44806, Note_off_c, 5, 74, 64
6, 44832, Note_on_c, 5, 70, 116
6, 44832, Note_on_c, 5, 74, 75
6, 44906, Note_off_c, 5, 70, 64
6, 44910, Note_off_c, 5, 74, 64
6, 45120, Note_on_c, 5, 70, 96
6, 45120, Note_on_c, 5, 74, 96
6, 45190, Note_off_c, 5, 74, 64
6, 45196, Note_off_c, 5, 70, 64
6, 45504, Note_on_c, 5, 70, 85
6, 45504, Note_on_c, 5, 74, 90
6, 45553, Note_off_c, 5, 74, 64
6, 45561, Note_off_c, 5, 70, 64
6, 45600, Note_on_c, 5, 72, 102
6, 45600, Note_on_c, 5, 76, 116
6, 45644, Note_off_c, 5, 76, 64
6, 45659, Note_off_c, 5, 72, 64
6, 45792, Note_on_c, 5, 72, 102
6, 45792, Note_on_c, 5, 76, 109
6, 45858, Note_off_c, 5, 76, 64
6, 45872, Note_off_c, 5, 72, 64
6, 45984, Note_on_c, 5, 72, 96
6, 45984, Note_on_c, 5, 76, 102
6, 46061, Note_off_c, 5, 76, 64
6, 46068, Note_off_c, 5, 72, 64
6, 46272, Note_on_c, 5, 70, 116
6, 46272, Note_on_c, 5, 74, 109
6, 46344, Note_off_c, 5, 74, 64
6, 46344, Note_off_c, 5, 70, 64
6, 46368, Note_on_c, 5, 70, 109
6, 46368, Note_on_c, 5, 74, 75
6, 46419, Note_off_c, 5, 74, 64
6, 46423, Note_off_c, 5, 70, 64
6, 46656, Note_on_c, 5, 70, 109
6, 46656, Note_on_c, 5, 74, 102
6, 46716, Note_off_c, 5, 74, 64
6, 46718, Note_off_c, 5, 70, 64
6, 46752, Note_on_c, 5, 70, 109
6, 46752, Note_on_c, 5, 74, 85
6, 46801, Note_off_c, 5, 74, 64
6, 46804, Note_off_c, 5, 70, 64
6, 47040, Note_on_c, 5, 74, 90
6, 47040, Note_on_c, 5, 77, 109
6, 47126, Note_off_c, 5, 77, 64
6, 47132, Note_off_c, 5, 74, 64
6, 47136, Note_on_c, 5, 72, 75
6, 47136, Note_on_c, 5, 76, 71
6, 47200, Note_off_c, 5, 76, 64
6, 47215, Note_off_c, 5, 72, 64
6, 47328, Note_on_c, 5, 72, 90
6, 47328, Note_on_c, 5, 76, 90
6, 47389, Note_off_c, 5, 76, 64
6, 47406, Note_off_c, 5, 72, 64
6, 47520, Note_on_c, 5, 72, 90
6, 47520, Note_on_c, 5, 76, 102
6, 47588, Note_off_c, 5, 76, 64
6, 47591, Note_off_c, 5, 72, 64
6, 47616, Note_on_c, 5, 67, 96
6, 48192, Note_on_c, 5, 70, 90
6, 48217, Note_off_c, 5, 67, 64
6, 48384, Note_off_c, 5, 70, 64
6, 48384, Note_on_c, 5, 69, 90
6, 49024, Note_off_c, 5, 69, 64
6, 49248, Note_on_c, 5, 74, 83
6, 49315, Note_off_c, 5, 74, 64
6, 49344, Note_on_c, 5, 74, 91
6, 49426, Note_off_c, 5, 74, 64
6, 49632, Note_on_c, 5, 74, 87
6, 49698, Note_off_c, 5, 74, 64
6, 49728, Note_on_c, 5, 74, 87
6, 49793, Note_off_c, 5, 74, 64
6, 49872, Note_on_c, 5, 74, 21
6, 49902, Note_off_c, 5, 74, 64
6, 49920, Note_on_c, 5, 74, 65
6, 49962, Note_off_c, 5, 74, 64
6, 50016, Note_on_c, 5, 74, 72
6, 50085, Note_off_c, 5, 74, 64
6, 50112, Note_on_c, 5, 74, 91
6, 50166, Note_off_c, 5, 74, 64
6, 50208, Note_on_c, 5, 74, 95
6, 50266, Note_off_c, 5, 74, 64
6, 50304, Note_on_c, 5, 74, 83
6, 50362, Note_off_c, 5, 74, 64
6, 50400, Note_on_c, 5, 74, 76
6, 50465, Note_off_c, 5, 74, 64
6, 50496, Note_on_c, 5, 74, 83
6, 50510, Note_off_c, 5, 74, 64
6, 50880, Note_on_c, 5, 70, 109
6, 50880, Note_on_c, 5, 74, 96
6, 50947, Note_off_c, 5, 70, 64
6, 50950, Note_off_c, 5, 74, 64
6, 50976, Note_on_c, 5, 70, 116
6, 50976, Note_on_c, 5, 74, 75
6, 51050, Note_off_c, 5, 70, 64
6, 51054, Note_off_c, 5, 74, 64
6, 51264, Note_on_c, 5, 70, 96
6, 51264, Note_on_c, 5, 74, 96
6, 51334, Note_off_c, 5, 74, 64
6, 51340, Note_off_c, 5, 70, 64
6, 51648, Note_on_c, 5, 70, 85
6, 51648, Note_on_c, 5, 74, 90
6, 51697, Note_off_c, 5, 74, 64
6, 51705, Note_off_c, 5, 70, 64
6, 51744, Note_on_c, 5, 72, 102
6, 51744, Note_on_c, 5, 76, 116
6, 51788, Note_off_c, 5, 76, 64
6, 51803, Note_off_c, 5, 72, 64
6, 51936, Note_on_c, 5, 72, 102
6, 51936, Note_on_c, 5, 76, 109
6, 52002, Note_off_c, 5, 76, 64
6, 52016, Note_off_c, 5, 72, 64
6, 52128, Note_on_c, 5, 72, 96
6, 52128, Note_on_c, 5, 76, 102
6, 52205, Note_off_c, 5, 76, 64
6, 52212, Note_off_c, 5, 72, 64
6, 52416, Note_on_c, 5, 70, 116
6, 52416, Note_on_c, 5, 74, 109
6, 52488, Note_off_c, 5, 74, 64
6, 52488, Note_off_c, 5, 70, 64
6, 52512, Note_on_c, 5, 70, 109
6, 52512, Note_on_c, 5, 74, 75
6, 52563, Note_off_c, 5, 74, 64
6, 52567, Note_off_c, 5, 70, 64
6, 52800, Note_on_c, 5, 70, 109
6, 52800, Note_on_c, 5, 74, 102
6, 52860, Note_off_c, 5, 74, 64
6, 52862, Note_off_c, 5, 70, 64
6, 52896, Note_on_c, 5, 70, 109
6, 52896, Note_on_c, 5, 74, 85
6, 52945, Note_off_c, 5, 74, 64
6, 52948, Note_off_c, 5, 70, 64
6, 53184, Note_on_c, 5, 74, 90
6, 53184, Note_on_c, 5, 77, 109
6, 53270, Note_off_c, 5, 77, 64
6, 53276, Note_off_c, 5, 74, 64
6, 53280, Note_on_c, 5, 72, 75
6, 53280, Note_on_c, 5, 76, 71
6, 53344, Note_off_c, 5, 76, 64
6, 53359, Note_off_c, 5, 72, 64
6, 53472, Note_on_c, 5, 72, 90
6, 53472, Note_on_c, 5, 76, 90
6, 53533, Note_off_c, 5, 76, 64
6, 53550, Note_off_c, 5, 72, 64
6, 53664, Note_on_c, 5, 72, 90
6, 53664, Note_on_c, 5, 76, 102
6, 53732, Note_off_c, 5, 76, 64
6, 53735, Note_off_c, 5, 72, 64
6, 53760, Note_on_c, 5, 67, 96
6, 54336, Note_on_c, 5, 70, 90
6, 54361, Note_off_c, 5, 67, 64
6, 54528, Note_off_c, 5, 70, 64
6, 54528, Note_on_c, 5, 69, 90
6, 55168, Note_off_c, 5, 69, 64
6, 55392, Note_on_c, 5, 74, 83
6, 55459, Note_off_c, 5, 74, 64
6, 55488, Note_on_c, 5, 74, 91
6, 55570, Note_off_c, 5, 74, 64
6, 55776, Note_on_c, 5, 74, 87
6, 55842, Note_off_c, 5, 74, 64
6, 55872, Note_on_c, 5, 74, 87
6, 55937, Note_off_c, 5, 74, 64
6, 56016, Note_on_c, 5, 74, 21
6, 56046, Note_off_c, 5, 74, 64
6, 56064, Note_on_c, 5, 74, 65
6, 56106, Note_off_c, 5, 74, 64
6, 56160, Note_on_c, 5, 74, 72
6, 56229, Note_off_c, 5, 74, 64
6, 56256, Note_on_c, 5, 74, 91
6, 56310, Note_off_c, 5, 74, 64
6, 56352, Note_on_c, 5, 74, 95
6, 56410, Note_off_c, 5, 74, 64
6, 56448, Note_on_c, 5, 74, 83
6, 56506, Note_off_c, 5, 74, 64
6, 56544, Note_on_c, 5, 74, 76
6, 56609, Note_off_c, 5, 74, 64
6, 56640, Note_on_c, 5, 74, 83
6, 56654, Note_off_c, 5, 74, 64
6, 57024, Note_on_c, 5, 70, 124
6, 57024, Note_on_c, 5, 74, 116
6, 57077, Note_off_c, 5, 70, 64
6, 57080, Note_off_c, 5, 74, 64
6, 57120, Note_on_c, 5, 70, 124
6, 57120, Note_on_c, 5, 74, 102
6, 57176, Note_off_c, 5, 74, 64
6, 57176, Note_off_c, 5, 70, 64
6, 57408, Note_on_c, 5, 70, 124
6, 57408, Note_on_c, 5, 74, 116
6, 57456, Note_off_c, 5, 70, 64
6, 57463, Note_off_c, 5, 74, 64
6, 57504, Note_on_c, 5, 67, 116
6, 57504, Note_on_c, 5, 72, 102
6, 57553, Note_off_c, 5, 67, 64
6, 57568, Note_off_c, 5, 72, 64
6, 57792, Note_on_c, 5, 70, 116
6, 57792, Note_on_c, 5, 74, 102
6, 57838, Note_off_c, 5, 70, 64
6, 57845, Note_off_c, 5, 74, 64
6, 57888, Note_on_c, 5, 67, 116
6, 57888, Note_on_c, 5, 72, 102
6, 57939, Note_off_c, 5, 67, 64
6, 57945, Note_off_c, 5, 72, 64
6, 58080, Note_on_c, 5, 67, 124
6, 58080, Note_on_c, 5, 72, 109
6, 58080, Note_on_c, 5, 84, 109
6, 58080, Note_on_c, 5, 89, 124
6, 58107, Note_off_c, 5, 89, 64
6, 58114, Note_off_c, 5, 84, 64
6, 58132, Note_off_c, 5, 67, 64
6, 58142, Note_off_c, 5, 72, 64
6, 58176, Note_on_c, 5, 86, 124
6, 58176, Note_on_c, 5, 91, 116
6, 58204, Note_off_c, 5, 91, 64
6, 58205, Note_off_c, 5, 86, 64
6, 58272, Note_on_c, 5, 70, 124
6, 58272, Note_on_c, 5, 74, 116
6, 58272, Note_on_c, 5, 84, 109
6, 58272, Note_on_c, 5, 89, 116
6, 58307, Note_off_c, 5, 89, 64
6, 58313, Note_off_c, 5, 84, 64
6, 58331, Note_off_c, 5, 74, 64
6, 58334, Note_off_c, 5, 70, 64
6, 58560, Note_on_c, 5, 70, 124
6, 58560, Note_on_c, 5, 74, 116
6, 58613, Note_off_c, 5, 70, 64
6, 58616, Note_off_c, 5, 74, 64
6, 58656, Note_on_c, 5, 70, 124
6, 58656, Note_on_c, 5, 74, 102
6, 58712, Note_off_c, 5, 74, 64
6, 58712, Note_off_c, 5, 70, 64
6, 58944, Note_on_c, 5, 70, 124
6, 58944, Note_on_c, 5, 74, 116
6, 58992, Note_off_c, 5, 70, 64
6, 58999, Note_off_c, 5, 74, 64
6, 59040, Note_on_c, 5, 67, 116
6, 59040, Note_on_c, 5, 72, 102
6, 59089, Note_off_c, 5, 67, 64
6, 59104, Note_off_c, 5, 72, 64
6, 59328, Note_on_c, 5, 70, 116
6, 59328, Note_on_c, 5, 74, 102
6, 59374, Note_off_c, 5, 70, 64
6, 59381, Note_off_c, 5, 74, 64
6, 59424, Note_on_c, 5, 67, 116
6, 59424, Note_on_c, 5, 72, 102
6, 59475, Note_off_c, 5, 67, 64
6, 59481, Note_off_c, 5, 72, 64
6, 59616, Note_on_c, 5, 67, 124
6, 59616, Note_on_c, 5, 72, 109
6, 59616, Note_on_c, 5, 84, 109
6, 59616, Note_on_c, 5, 89, 124
6, 59643, Note_off_c, 5, 89, 64
6, 59650, Note_off_c, 5, 84, 64
6, 59668, Note_off_c, 5, 67, 64
6, 59678, Note_off_c, 5, 72, 64
6, 59712, Note_on_c, 5, 86, 124
6, 59712, Note_on_c, 5, 91, 116
6, 59740, Note_off_c, 5, 91, 64
6, 59741, Note_off_c, 5, 86, 64
6, 59808, Note_on_c, 5, 70, 124
6, 59808, Note_on_c, 5, 74, 116
6, 59808, Note_on_c, 5, 84, 109
6, 59808, Note_on_c, 5, 89, 116
6, 59843, Note_off_c, 5, 89, 64
6, 59849, Note_off_c, 5, 84, 64
6, 59867, Note_off_c, 5, 74, 64
6, 59870, Note_off_c, 5, 70, 64
6, 59904, Note_on_c, 5, 86, 124
6, 59904, Note_on_c, 5, 91, 124
6, 59944, Note_off_c, 5, 91, 64
6, 59944, Note_off_c, 5, 86, 64
6, 60096, Note_on_c, 5, 70, 124
6, 60096, Note_on_c, 5, 74, 102
6, 60131, Note_off_c, 5, 70, 64
6, 60135, Note_off_c, 5, 74, 64
6, 60192, Note_on_c, 5, 70, 124
6, 60192, Note_on_c, 5, 74, 96
6, 60229, Note_off_c, 5, 74, 64
6, 60230, Note_off_c, 5, 70, 64
6, 60480, Note_on_c, 5, 70, 124
6, 60480, Note_on_c, 5, 74, 96
6, 60529, Note_off_c, 5, 74, 64
6, 60530, Note_off_c, 5, 70, 64
6, 70080, Note_on_c, 5, 70, 124
6, 70080, Note_on_c, 5, 74, 116
6, 70080, Control_c, 5, 7, 74
6, 70133, Note_off_c, 5, 70, 64
6, 70136, Note_off_c, 5, 74, 64
6, 70176, Note_on_c, 5, 70, 124
6, 70176, Note_on_c, 5, 74, 102
6, 70232, Note_off_c, 5, 74, 64
6, 70232, Note_off_c, 5, 70, 64
6, 70368, Control_c, 5, 7, 70
6, 70464, Note_on_c, 5, 70, 124
6, 70464, Note_on_c, 5, 74, 116
6, 70512, Note_off_c, 5, 70, 64
6, 70519, Note_off_c, 5, 74, 64
6, 70560, Note_on_c, 5, 67, 116
6, 70560, Note_on_c, 5, 72, 102
6, 70609, Note_off_c, 5, 67, 64
6, 70624, Note_off_c, 5, 72, 64
6, 70752, Control_c, 5, 7, 64
6, 70848, Note_on_c, 5, 70, 116
6, 70848, Note_on_c, 5, 74, 102
6, 70894, Note_off_c, 5, 70, 64
6, 70901, Note_off_c, 5, 74, 64
6, 70944, Note_on_c, 5, 67, 116
6, 70944, Note_on_c, 5, 72, 102
6, 70995, Note_off_c, 5, 67, 64
6, 71001, Note_off_c, 5, 72, 64
6, 71040, Control_c, 5, 7, 60
6, 71136, Note_on_c, 5, 67, 124
6, 71136, Note_on_c, 5, 72, 109
6, 71136, Note_on_c, 5, 84, 109
6, 71136, Note_on_c, 5, 89, 124
6, 71163, Note_off_c, 5, 89, 64
6, 71170, Note_off_c, 5, 84, 64
6, 71188, Note_off_c, 5, 67, 64
6, 71198, Note_off_c, 5, 72, 64
6, 71232, Note_on_c, 5, 86, 124
6, 71232, Note_on_c, 5, 91, 116
6, 71232, Control_c, 5, 7, 57
6, 71260, Note_off_c, 5, 91, 64
6, 71261, Note_off_c, 5, 86, 64
6, 71328, Note_on_c, 5, 70, 124
6, 71328, Note_on_c, 5, 74, 116
6, 71328, Note_on_c, 5, 84, 109
6, 71328, Note_on_c, 5, 89, 116
6, 71363, Note_off_c, 5, 89, 64
6, 71369, Note_off_c, 5, 84, 64
6, 71387, Note_off_c, 5, 74, 64
6, 71390, Note_off_c, 5, 70, 64
6, 71616, Note_on_c, 5, 70, 124
6, 71616, Note_on_c, 5, 74, 116
6, 71616, Control_c, 5, 7, 52
6, 71669, Note_off_c, 5, 70, 64
6, 71672, Note_off_c, 5, 74, 64
6, 71712, Note_on_c, 5, 70, 124
6, 71712, Note_on_c, 5, 74, 102
6, 71768, Note_off_c, 5, 74, 64
6, 71768, Note_off_c, 5, 70, 64
6, 72000, Note_on_c, 5, 70, 124
6, 72000, Note_on_c, 5, 74, 116
6, 72000, Control_c, 5, 7, 47
6, 72048, Note_off_c, 5, 70, 64
6, 72055, Note_off_c, 5, 74, 64
6, 72096, Note_on_c, 5, 67, 116
6, 72096, Note_on_c, 5, 72, 102
6, 72145, Note_off_c, 5, 67, 64
6, 72160, Note_off_c, 5, 72, 64
6, 72384, Note_on_c, 5, 70, 116
6, 72384, Note_on_c, 5, 74, 102
6, 72384, Control_c, 5, 7, 40
6, 72430, Note_off_c, 5, 70, 64
6, 72437, Note_off_c, 5, 74, 64
6, 72480, Note_on_c, 5, 67, 116
6, 72480, Note_on_c, 5, 72, 102
6, 72531, Note_off_c, 5, 67, 64
6, 72537, Note_off_c, 5, 72, 64
6, 72672, Note_on_c, 5, 67, 124
6, 72672, Note_on_c, 5, 72, 109
6, 72672, Note_on_c, 5, 84, 109
6, 72672, Note_on_c, 5, 89, 124
6, 72699, Note_off_c, 5, 89, 64
6, 72706, Note_off_c, 5, 84, 64
6, 72724, Note_off_c, 5, 67, 64
6, 72734, Note_off_c, 5, 72, 64
6, 72768, Note_on_c, 5, 86, 124
6, 72768, Note_on_c, 5, 91, 116
6, 72768, Control_c, 5, 7, 35
6, 72796, Note_off_c, 5, 91, 64
6, 72797, Note_off_c, 5, 86, 64
6, 72864, Note_on_c, 5, 70, 124
6, 72864, Note_on_c, 5, 74, 116
6, 72864, Note_on_c, 5, 84, 109
6, 72864, Note_on_c, 5, 89, 116
6, 72899, Note_off_c, 5, 89, 64
6, 72905, Note_off_c, 5, 84, 64
6, 72923, Note_off_c, 5, 74, 64
6, 72926, Note_off_c, 5, 70, 64
6, 73056, Control_c, 5, 7, 31
6, 73152, Note_on_c, 5, 70, 124
6, 73152, Note_on_c, 5, 74, 116
6, 73205, Note_off_c, 5, 70, 64
6, 73208, Note_off_c, 5, 74, 64
6, 73248, Note_on_c, 5, 70, 124
6, 73248, Note_on_c, 5, 74, 102
6, 73304, Note_off_c, 5, 74, 64
6, 73304, Note_off_c, 5, 70, 64
6, 73440, Control_c, 5, 7, 25
6, 73536, Note_on_c, 5, 70, 124
6, 73536, Note_on_c, 5, 74, 116
6, 73584, Note_off_c, 5, 70, 64
6, 73591, Note_off_c, 5, 74, 64
6, 73632, Note_on_c, 5, 67, 116
6, 73632, Note_on_c, 5, 72, 102
6, 73681, Note_off_c, 5, 67, 64
6, 73696, Note_off_c, 5, 72, 64
6, 73824, Control_c, 5, 7, 18
6, 73920, Note_on_c, 5, 70, 116
6, 73920, Note_on_c, 5, 74, 102
6, 73966, Note_off_c, 5, 70, 64
6, 73973, Note_off_c, 5, 74, 64
6, 74016, Note_on_c, 5, 67, 116
6, 74016, Note_on_c, 5, 72, 102
6, 74067, Note_off_c, 5, 67, 64
6, 74073, Note_off_c, 5, 72, 64
6, 74208, Note_on_c, 5, 67, 124
6, 74208, Note_on_c, 5, 72, 109
6, 74208, Note_on_c, 5, 84, 109
6, 74208, Note_on_c, 5, 89, 124
6, 74208, Control_c, 5, 7, 14
6, 74235, Note_off_c, 5, 89, 64
6, 74242, Note_off_c, 5, 84, 64
6, 74260, Note_off_c, 5, 67, 64
6, 74270, Note_off_c, 5, 72, 64
6, 74304, Note_on_c, 5, 86, 124
6, 74304, Note_on_c, 5, 91, 116
6, 74332, Note_off_c, 5, 91, 64
6, 74333, Note_off_c, 5, 86, 64
6, 74400, Note_on_c, 5, 70, 124
6, 74400, Note_on_c, 5, 74, 116
6, 74400, Note_on_c, 5, 84, 109
6, 74400, Note_on_c, 5, 89, 116
6, 74435, Note_off_c, 5, 89, 64
6, 74441, Note_off_c, 5, 84, 64
6, 74459, Note_off_c, 5, 74, 64
6, 74462, Note_off_c, 5, 70, 64
6, 74688, Note_on_c, 5, 70, 124
6, 74688, Note_on_c, 5, 74, 116
6, 74688, Control_c, 5, 7, 6
6, 74741, Note_off_c, 5, 70, 64
6, 74744, Note_off_c, 5, 74, 64
6, 75264, Control_c, 5, 7, 0
6, 76032, Control_c, 5, 120, 0
6, 76048, Control_c, 5, 123, 0
6, 76048, End_track
7, 0, Start_track
7, 0, Title_t, "Jazz gt "
7, 0, Channel_prefix, 6
7, 0, Control_c, 6, 7, 127
7, 0, Control_c, 6, 10, 64
7, 0, Program_c, 6, 0
7, 213, Control_c, 6, 121, 0
7, 241, Control_c, 6, 7, 84
7, 242, Control_c, 6, 10, 83
7, 243, Control_c, 6, 11, 127
7, 244, Control_c, 6, 91, 44
7, 245, Control_c, 6, 93, 40
7, 259, Pitch_bend_c, 6, 8192
7, 287, Control_c, 6, 0, 0
7, 342, Program_c, 6, 26
7, 1536, Note_on_c, 6, 55, 96
7, 1608, Note_off_c, 6, 55, 64
7, 1632, Note_on_c, 6, 50, 96
7, 1719, Note_off_c, 6, 50, 64
7, 1728, Note_on_c, 6, 53, 90
7, 1824, Note_on_c, 6, 58, 96
7, 1826, Note_off_c, 6, 53, 64
7, 2004, Note_off_c, 6, 58, 64
7, 2016, Note_on_c, 6, 53, 90
7, 2112, Note_on_c, 6, 55, 102
7, 2116, Note_off_c, 6, 53, 64
7, 2201, Note_off_c, 6, 55, 64
7, 2208, Note_on_c, 6, 48, 102
7, 2285, Note_off_c, 6, 48, 64
7, 2880, Note_on_c, 6, 48, 90
7, 2944, Note_off_c, 6, 48, 64
7, 3072, Note_on_c, 6, 55, 96
7, 3144, Note_off_c, 6, 55, 64
7, 3168, Note_on_c, 6, 50, 96
7, 3255, Note_off_c, 6, 50, 64
7, 3264, Note_on_c, 6, 53, 90
7, 3360, Note_on_c, 6, 58, 96
7, 3362, Note_off_c, 6, 53, 64
7, 3540, Note_off_c, 6, 58, 64
7, 3552, Note_on_c, 6, 53, 90
7, 3648, Note_on_c, 6, 55, 102
7, 3652, Note_off_c, 6, 53, 64
7, 3737, Note_off_c, 6, 55, 64
7, 3744, Note_on_c, 6, 48, 102
7, 3821, Note_off_c, 6, 48, 64
7, 4416, Note_on_c, 6, 48, 90
7, 4480, Note_off_c, 6, 48, 64
7, 4608, Note_on_c, 6, 55, 96
7, 4680, Note_off_c, 6, 55, 64
7, 4704, Note_on_c, 6, 50, 96
7, 4791, Note_off_c, 6, 50, 64
7, 4800, Note_on_c, 6, 53, 90
7, 4896, Note_on_c, 6, 58, 96
7, 4898, Note_off_c, 6, 53, 64
7, 5076, Note_off_c, 6, 58, 64
7, 5088, Note_on_c, 6, 53, 90
7, 5184, Note_on_c, 6, 55, 102
7, 5188, Note_off_c, 6, 53, 64
7, 5273, Note_off_c, 6, 55, 64
7, 5280, Note_on_c, 6, 48, 102
7, 5357, Note_off_c, 6, 48, 64
7, 5952, Note_on_c, 6, 48, 90
7, 6016, Note_off_c, 6, 48, 64
7, 6144, Note_on_c, 6, 55, 96
7, 6216, Note_off_c, 6, 55, 64
7, 6240, Note_on_c, 6, 50, 96
7, 6327, Note_off_c, 6, 50, 64
7, 6336, Note_on_c, 6, 53, 90
7, 6432, Note_on_c, 6, 58, 96
7, 6434, Note_off_c, 6, 53, 64
7, 6612, Note_off_c, 6, 58, 64
7, 6624, Note_on_c, 6, 53, 90
7, 6720, Note_on_c, 6, 55, 102
7, 6724, Note_off_c, 6, 53, 64
7, 6809, Note_off_c, 6, 55, 64
7, 6816, Note_on_c, 6, 48, 102
7, 6893, Note_off_c, 6, 48, 64
7, 10752, Note_on_c, 6, 60, 90
7, 10942, Note_off_c, 6, 60, 64
7, 10944, Note_on_c, 6, 60, 85
7, 11134, Note_off_c, 6, 60, 64
7, 11136, Note_on_c, 6, 63, 85
7, 11326, Note_off_c, 6, 63, 64
7, 11328, Note_on_c, 6, 67, 90
7, 11518, Note_off_c, 6, 67, 64
7, 11520, Note_on_c, 6, 65, 75
7, 11710, Note_off_c, 6, 65, 64
7, 11712, Note_on_c, 6, 65, 85
7, 11902, Note_off_c, 6, 65, 64
7, 11904, Note_on_c, 6, 69, 96
7, 12094, Note_off_c, 6, 69, 64
7, 12096, Note_on_c, 6, 69, 75
7, 12233, Note_off_c, 6, 69, 64
7, 12288, Note_on_c, 6, 55, 96
7, 12360, Note_off_c, 6, 55, 64
7, 12384, Note_on_c, 6, 50, 96
7, 12471, Note_off_c, 6, 50, 64
7, 12480, Note_on_c, 6, 53, 90
7, 12576, Note_on_c, 6, 58, 96
7, 12578, Note_off_c, 6, 53, 64
7, 12756, Note_off_c, 6, 58, 64
7, 12768, Note_on_c, 6, 53, 90
7, 12864, Note_on_c, 6, 55, 102
7, 12868, Note_off_c, 6, 53, 64
7, 12953, Note_off_c, 6, 55, 64
7, 12960, Note_on_c, 6, 48, 102
7, 13037, Note_off_c, 6, 48, 64
7, 13117, Pitch_bend_c, 6, 7808
7, 13127, Pitch_bend_c, 6, 6528
7, 13135, Pitch_bend_c, 6, 4096
7, 13142, Pitch_bend_c, 6, 1664
7, 13150, Pitch_bend_c, 6, 640
7, 13152, Note_on_c, 6, 65, 80
7, 13164, Pitch_bend_c, 6, 0
7, 13178, Pitch_bend_c, 6, 768
7, 13187, Pitch_bend_c, 6, 4992
7, 13194, Pitch_bend_c, 6, 7040
7, 13201, Pitch_bend_c, 6, 7552
7, 13212, Note_off_c, 6, 65, 64
7, 13219, Pitch_bend_c, 6, 8192
7, 13248, Note_on_c, 6, 74, 63
7, 13301, Note_off_c, 6, 74, 64
7, 13315, Control_c, 6, 1, 28
7, 13344, Note_on_c, 6, 72, 67
7, 13347, Control_c, 6, 1, 60
7, 13618, Note_off_c, 6, 72, 64
7, 13632, Note_on_c, 6, 48, 90
7, 13657, Control_c, 6, 1, 0
7, 13696, Note_off_c, 6, 48, 64
7, 13824, Note_on_c, 6, 55, 96
7, 13896, Note_off_c, 6, 55, 64
7, 13920, Note_on_c, 6, 50, 96
7, 14007, Note_off_c, 6, 50, 64
7, 14016, Note_on_c, 6, 53, 90
7, 14112, Note_on_c, 6, 58, 96
7, 14114, Note_off_c, 6, 53, 64
7, 14292, Note_off_c, 6, 58, 64
7, 14304, Note_on_c, 6, 53, 90
7, 14400, Note_on_c, 6, 55, 102
7, 14404, Note_off_c, 6, 53, 64
7, 14489, Note_off_c, 6, 55, 64
7, 14496, Note_on_c, 6, 48, 102
7, 14573, Note_off_c, 6, 48, 64
7, 14652, Pitch_bend_c, 6, 7808
7, 14660, Pitch_bend_c, 6, 6656
7, 14668, Pitch_bend_c, 6, 3840
7, 14676, Pitch_bend_c, 6, 1280
7, 14683, Pitch_bend_c, 6, 512
7, 14688, Note_on_c, 6, 65, 75
7, 14701, Pitch_bend_c, 6, 0
7, 14711, Pitch_bend_c, 6, 640
7, 14719, Pitch_bend_c, 6, 4480
7, 14728, Pitch_bend_c, 6, 6784
7, 14735, Pitch_bend_c, 6, 7552
7, 14752, Pitch_bend_c, 6, 8192
7, 14779, Note_off_c, 6, 65, 64
7, 14784, Note_on_c, 6, 74, 71
7, 14840, Note_off_c, 6, 74, 64
7, 14880, Note_on_c, 6, 72, 71
7, 14880, Control_c, 6, 1, 18
7, 14914, Control_c, 6, 1, 59
7, 15168, Note_on_c, 6, 48, 90
7, 15184, Note_off_c, 6, 72, 64
7, 15232, Note_off_c, 6, 48, 64
7, 15319, Control_c, 6, 1, 11
7, 15360, Note_on_c, 6, 55, 96
7, 15432, Note_off_c, 6, 55, 64
7, 15456, Note_on_c, 6, 50, 96
7, 15543, Note_off_c, 6, 50, 64
7, 15552, Note_on_c, 6, 53, 90
7, 15648, Note_on_c, 6, 58, 96
7, 15650, Note_off_c, 6, 53, 64
7, 15828, Note_off_c, 6, 58, 64
7, 15840, Note_on_c, 6, 53, 90
7, 15936, Note_on_c, 6, 55, 102
7, 15940, Note_off_c, 6, 53, 64
7, 16025, Note_off_c, 6, 55, 64
7, 16032, Note_on_c, 6, 48, 102
7, 16109, Note_off_c, 6, 48, 64
7, 16188, Pitch_bend_c, 6, 7808
7, 16196, Pitch_bend_c, 6, 6656
7, 16204, Pitch_bend_c, 6, 3840
7, 16212, Pitch_bend_c, 6, 1280
7, 16219, Pitch_bend_c, 6, 512
7, 16224, Note_on_c, 6, 65, 75
7, 16237, Pitch_bend_c, 6, 0
7, 16247, Pitch_bend_c, 6, 640
7, 16255, Pitch_bend_c, 6, 4480
7, 16264, Pitch_bend_c, 6, 6784
7, 16271, Pitch_bend_c, 6, 7552
7, 16288, Pitch_bend_c, 6, 8192
7, 16315, Note_off_c, 6, 65, 64
7, 16320, Note_on_c, 6, 74, 71
7, 16376, Note_off_c, 6, 74, 64
7, 16416, Note_on_c, 6, 72, 71
7, 16416, Control_c, 6, 1, 18
7, 16432, Control_c, 6, 1, 40
7, 16450, Control_c, 6, 1, 59
7, 16465, Control_c, 6, 1, 64
7, 16540, Control_c, 6, 1, 64
7, 16568, Control_c, 6, 1, 64
7, 16704, Note_on_c, 6, 48, 90
7, 16720, Note_off_c, 6, 72, 64
7, 16768, Note_off_c, 6, 48, 64
7, 16825, Control_c, 6, 1, 54
7, 16840, Control_c, 6, 1, 17
7, 16855, Control_c, 6, 1, 11
7, 19104, Note_on_c, 6, 48, 116
7, 19104, Note_on_c, 6, 53, 116
7, 19194, Note_off_c, 6, 48, 64
7, 19196, Note_off_c, 6, 53, 64
7, 19200, Note_on_c, 6, 55, 96
7, 19243, Control_c, 6, 1, 6
7, 19258, Control_c, 6, 1, 0
7, 19272, Note_off_c, 6, 55, 64
7, 19296, Note_on_c, 6, 50, 96
7, 19383, Note_off_c, 6, 50, 64
7, 19392, Note_on_c, 6, 53, 90
7, 19488, Note_on_c, 6, 58, 96
7, 19490, Note_off_c, 6, 53, 64
7, 19668, Note_off_c, 6, 58, 64
7, 19680, Note_on_c, 6, 53, 90
7, 19776, Note_on_c, 6, 55, 102
7, 19780, Note_off_c, 6, 53, 64
7, 19865, Note_off_c, 6, 55, 64
7, 19872, Note_on_c, 6, 48, 102
7, 19949, Note_off_c, 6, 48, 64
7, 20029, Pitch_bend_c, 6, 7808
7, 20039, Pitch_bend_c, 6, 6528
7, 20047, Pitch_bend_c, 6, 4096
7, 20054, Pitch_bend_c, 6, 1664
7, 20062, Pitch_bend_c, 6, 640
7, 20064, Note_on_c, 6, 65, 80
7, 20076, Pitch_bend_c, 6, 0
7, 20090, Pitch_bend_c, 6, 768
7, 20099, Pitch_bend_c, 6, 4992
7, 20106, Pitch_bend_c, 6, 7040
7, 20113, Pitch_bend_c, 6, 7552
7, 20124, Note_off_c, 6, 65, 64
7, 20131, Pitch_bend_c, 6, 8192
7, 20160, Note_on_c, 6, 74, 63
7, 20211, Control_c, 6, 1, 11
7, 20213, Note_off_c, 6, 74, 64
7, 20227, Control_c, 6, 1, 28
7, 20242, Control_c, 6, 1, 48
7, 20256, Note_on_c, 6, 72, 67
7, 20259, Control_c, 6, 1, 60
7, 20530, Note_off_c, 6, 72, 64
7, 20544, Note_on_c, 6, 48, 90
7, 20569, Control_c, 6, 1, 0
7, 20608, Note_off_c, 6, 48, 64
7, 20736, Note_on_c, 6, 55, 96
7, 20808, Note_off_c, 6, 55, 64
7, 20832, Note_on_c, 6, 50, 96
7, 20919, Note_off_c, 6, 50, 64
7, 20928, Note_on_c, 6, 53, 90
7, 21024, Note_on_c, 6, 58, 96
7, 21026, Note_off_c, 6, 53, 64
7, 21204, Note_off_c, 6, 58, 64
7, 21216, Note_on_c, 6, 53, 90
7, 21312, Note_on_c, 6, 55, 102
7, 21316, Note_off_c, 6, 53, 64
7, 21401, Note_off_c, 6, 55, 64
7, 21408, Note_on_c, 6, 48, 102
7, 21485, Note_off_c, 6, 48, 64
7, 21564, Pitch_bend_c, 6, 7808
7, 21572, Pitch_bend_c, 6, 6656
7, 21580, Pitch_bend_c, 6, 3840
7, 21588, Pitch_bend_c, 6, 1280
7, 21595, Pitch_bend_c, 6, 512
7, 21600, Note_on_c, 6, 65, 75
7, 21613, Pitch_bend_c, 6, 0
7, 21623, Pitch_bend_c, 6, 640
7, 21631, Pitch_bend_c, 6, 4480
7, 21640, Pitch_bend_c, 6, 6784
7, 21647, Pitch_bend_c, 6, 7552
7, 21654, Pitch_bend_c, 6, 7936
7, 21664, Pitch_bend_c, 6, 8192
7, 21691, Note_off_c, 6, 65, 64
7, 21696, Note_on_c, 6, 74, 71
7, 21752, Note_off_c, 6, 74, 64
7, 21792, Note_on_c, 6, 72, 71
7, 21808, Control_c, 6, 1, 40
7, 21916, Control_c, 6, 1, 64
7, 22080, Note_on_c, 6, 48, 90
7, 22096, Note_off_c, 6, 72, 64
7, 22144, Note_off_c, 6, 48, 64
7, 26880, Note_on_c, 6, 55, 96
7, 26938, Control_c, 6, 1, 0
7, 26952, Note_off_c, 6, 55, 64
7, 26976, Note_on_c, 6, 50, 96
7, 27063, Note_off_c, 6, 50, 64
7, 27072, Note_on_c, 6, 53, 90
7, 27168, Note_on_c, 6, 58, 96
7, 27170, Note_off_c, 6, 53, 64
7, 27348, Note_off_c, 6, 58, 64
7, 27360, Note_on_c, 6, 53, 90
7, 27456, Note_on_c, 6, 55, 102
7, 27460, Note_off_c, 6, 53, 64
7, 27545, Note_off_c, 6, 55, 64
7, 27552, Note_on_c, 6, 48, 102
7, 27629, Note_off_c, 6, 48, 64
7, 27709, Pitch_bend_c, 6, 7808
7, 27719, Pitch_bend_c, 6, 6528
7, 27727, Pitch_bend_c, 6, 4096
7, 27734, Pitch_bend_c, 6, 1664
7, 27742, Pitch_bend_c, 6, 640
7, 27744, Note_on_c, 6, 65, 80
7, 27756, Pitch_bend_c, 6, 0
7, 27770, Pitch_bend_c, 6, 768
7, 27779, Pitch_bend_c, 6, 4992
7, 27786, Pitch_bend_c, 6, 7040
7, 27793, Pitch_bend_c, 6, 7552
7, 27804, Note_off_c, 6, 65, 64
7, 27811, Pitch_bend_c, 6, 8192
7, 27840, Note_on_c, 6, 74, 63
7, 27893, Note_off_c, 6, 74, 64
7, 27907, Control_c, 6, 1, 28
7, 27936, Note_on_c, 6, 72, 67
7, 27954, Control_c, 6, 1, 64
7, 28210, Note_off_c, 6, 72, 64
7, 28224, Note_on_c, 6, 48, 90
7, 28249, Control_c, 6, 1, 0
7, 28288, Note_off_c, 6, 48, 64
7, 28416, Note_on_c, 6, 55, 96
7, 28488, Note_off_c, 6, 55, 64
7, 28512, Note_on_c, 6, 50, 96
7, 28599, Note_off_c, 6, 50, 64
7, 28608, Note_on_c, 6, 53, 90
7, 28704, Note_on_c, 6, 58, 96
7, 28706, Note_off_c, 6, 53, 64
7, 28884, Note_off_c, 6, 58, 64
7, 28896, Note_on_c, 6, 53, 90
7, 28992, Note_on_c, 6, 55, 102
7, 28996, Note_off_c, 6, 53, 64
7, 29081, Note_off_c, 6, 55, 64
7, 29088, Note_on_c, 6, 48, 102
7, 29165, Note_off_c, 6, 48, 64
7, 29244, Pitch_bend_c, 6, 7808
7, 29252, Pitch_bend_c, 6, 6656
7, 29260, Pitch_bend_c, 6, 3840
7, 29268, Pitch_bend_c, 6, 1280
7, 29275, Pitch_bend_c, 6, 512
7, 29280, Note_on_c, 6, 65, 75
7, 29293, Pitch_bend_c, 6, 0
7, 29303, Pitch_bend_c, 6, 640
7, 29311, Pitch_bend_c, 6, 4480
7, 29320, Pitch_bend_c, 6, 6784
7, 29327, Pitch_bend_c, 6, 7552
7, 29344, Pitch_bend_c, 6, 8192
7, 29371, Note_off_c, 6, 65, 64
7, 29376, Note_on_c, 6, 74, 71
7, 29432, Note_off_c, 6, 74, 64
7, 29472, Note_on_c, 6, 72, 71
7, 29488, Control_c, 6, 1, 40
7, 29596, Control_c, 6, 1, 64
7, 29760, Note_on_c, 6, 48, 90
7, 29776, Note_off_c, 6, 72, 64
7, 29824, Note_off_c, 6, 48, 64
7, 29911, Control_c, 6, 1, 11
7, 29952, Note_on_c, 6, 55, 96
7, 30024, Note_off_c, 6, 55, 64
7, 30048, Note_on_c, 6, 50, 96
7, 30135, Note_off_c, 6, 50, 64
7, 30144, Note_on_c, 6, 53, 90
7, 30240, Note_on_c, 6, 58, 96
7, 30242, Note_off_c, 6, 53, 64
7, 30420, Note_off_c, 6, 58, 64
7, 30432, Note_on_c, 6, 53, 90
7, 30528, Note_on_c, 6, 55, 102
7, 30532, Note_off_c, 6, 53, 64
7, 30617, Note_off_c, 6, 55, 64
7, 30624, Note_on_c, 6, 48, 102
7, 30701, Note_off_c, 6, 48, 64
7, 30780, Pitch_bend_c, 6, 7808
7, 30788, Pitch_bend_c, 6, 6656
7, 30796, Pitch_bend_c, 6, 3840
7, 30804, Pitch_bend_c, 6, 1280
7, 30816, Note_on_c, 6, 65, 75
7, 30829, Pitch_bend_c, 6, 0
7, 30839, Pitch_bend_c, 6, 640
7, 30847, Pitch_bend_c, 6, 4480
7, 30856, Pitch_bend_c, 6, 6784
7, 30863, Pitch_bend_c, 6, 7552
7, 30880, Pitch_bend_c, 6, 8192
7, 30907, Note_off_c, 6, 65, 64
7, 30912, Note_on_c, 6, 74, 71
7, 30968, Note_off_c, 6, 74, 64
7, 31008, Note_on_c, 6, 72, 71
7, 31024, Control_c, 6, 1, 40
7, 31132, Control_c, 6, 1, 64
7, 31296, Note_on_c, 6, 48, 90
7, 31312, Note_off_c, 6, 72, 64
7, 31360, Note_off_c, 6, 48, 64
7, 31447, Control_c, 6, 1, 11
7, 32887, Pitch_bend_c, 6, 7040
7, 32894, Pitch_bend_c, 6, 6016
7, 32902, Pitch_bend_c, 6, 4992
7, 32909, Pitch_bend_c, 6, 3968
7, 32916, Pitch_bend_c, 6, 2688
7, 32925, Pitch_bend_c, 6, 1408
7, 32928, Note_on_c, 6, 53, 102
7, 32928, Note_on_c, 6, 58, 96
7, 32939, Pitch_bend_c, 6, 512
7, 32963, Pitch_bend_c, 6, 2304
7, 32971, Pitch_bend_c, 6, 3328
7, 32981, Pitch_bend_c, 6, 4480
7, 32988, Pitch_bend_c, 6, 5504
7, 32995, Pitch_bend_c, 6, 6784
7, 33003, Pitch_bend_c, 6, 7552
7, 33018, Pitch_bend_c, 6, 8192
7, 33022, Note_off_c, 6, 53, 64
7, 33024, Note_on_c, 6, 55, 96
7, 33024, Note_on_c, 6, 62, 90
7, 33055, Note_off_c, 6, 58, 64
7, 33568, Note_off_c, 6, 55, 64
7, 33580, Note_off_c, 6, 62, 64
7, 33696, Note_on_c, 6, 48, 116
7, 33696, Note_on_c, 6, 53, 116
7, 33786, Note_off_c, 6, 48, 64
7, 33788, Note_off_c, 6, 53, 64
7, 33792, Note_on_c, 6, 55, 96
7, 33850, Control_c, 6, 1, 0
7, 33864, Note_off_c, 6, 55, 64
7, 33888, Note_on_c, 6, 50, 96
7, 33975, Note_off_c, 6, 50, 64
7, 33984, Note_on_c, 6, 53, 90
7, 34080, Note_on_c, 6, 58, 96
7, 34082, Note_off_c, 6, 53, 64
7, 34260, Note_off_c, 6, 58, 64
7, 34272, Note_on_c, 6, 53, 90
7, 34368, Note_on_c, 6, 55, 102
7, 34372, Note_off_c, 6, 53, 64
7, 34457, Note_off_c, 6, 55, 64
7, 34464, Note_on_c, 6, 48, 102
7, 34541, Note_off_c, 6, 48, 64
7, 34621, Pitch_bend_c, 6, 7808
7, 34631, Pitch_bend_c, 6, 6528
7, 34639, Pitch_bend_c, 6, 4096
7, 34646, Pitch_bend_c, 6, 1664
7, 34656, Note_on_c, 6, 65, 80
7, 34668, Pitch_bend_c, 6, 0
7, 34682, Pitch_bend_c, 6, 768
7, 34691, Pitch_bend_c, 6, 4992
7, 34698, Pitch_bend_c, 6, 7040
7, 34705, Pitch_bend_c, 6, 7552
7, 34716, Note_off_c, 6, 65, 64
7, 34723, Pitch_bend_c, 6, 8192
7, 34752, Note_on_c, 6, 74, 63
7, 34803, Control_c, 6, 1, 11
7, 34805, Note_off_c, 6, 74, 64
7, 34834, Control_c, 6, 1, 48
7, 34848, Note_on_c, 6, 72, 67
7, 35122, Note_off_c, 6, 72, 64
7, 35136, Note_on_c, 6, 48, 90
7, 35161, Control_c, 6, 1, 0
7, 35200, Note_off_c, 6, 48, 64
7, 35328, Note_on_c, 6, 55, 96
7, 35400, Note_off_c, 6, 55, 64
7, 35424, Note_on_c, 6, 50, 96
7, 35511, Note_off_c, 6, 50, 64
7, 35520, Note_on_c, 6, 53, 90
7, 35616, Note_on_c, 6, 58, 96
7, 35618, Note_off_c, 6, 53, 64
7, 35796, Note_off_c, 6, 58, 64
7, 35808, Note_on_c, 6, 53, 90
7, 35904, Note_on_c, 6, 55, 102
7, 35908, Note_off_c, 6, 53, 64
7, 35993, Note_off_c, 6, 55, 64
7, 36000, Note_on_c, 6, 48, 102
7, 36077, Note_off_c, 6, 48, 64
7, 36156, Pitch_bend_c, 6, 7808
7, 36164, Pitch_bend_c, 6, 6656
7, 36172, Pitch_bend_c, 6, 3840
7, 36180, Pitch_bend_c, 6, 1280
7, 36187, Pitch_bend_c, 6, 512
7, 36192, Note_on_c, 6, 65, 75
7, 36205, Pitch_bend_c, 6, 0
7, 36215, Pitch_bend_c, 6, 640
7, 36223, Pitch_bend_c, 6, 4480
7, 36232, Pitch_bend_c, 6, 6784
7, 36239, Pitch_bend_c, 6, 7552
7, 36256, Pitch_bend_c, 6, 8192
7, 36283, Note_off_c, 6, 65, 64
7, 36288, Note_on_c, 6, 74, 71
7, 36344, Note_off_c, 6, 74, 64
7, 36384, Note_on_c, 6, 72, 71
7, 36400, Control_c, 6, 1, 40
7, 36433, Control_c, 6, 1, 64
7, 36672, Note_on_c, 6, 48, 90
7, 36688, Note_off_c, 6, 72, 64
7, 36736, Note_off_c, 6, 48, 64
7, 48336, Note_on_c, 6, 55, 72
7, 48336, Note_on_c, 6, 56, 51
7, 48372, Note_off_c, 6, 55, 64
7, 48384, Note_off_c, 6, 56, 64
7, 48384, Note_on_c, 6, 57, 75
7, 48474, Note_off_c, 6, 57, 64
7, 48480, Note_on_c, 6, 55, 79
7, 48535, Note_off_c, 6, 55, 64
7, 48576, Note_on_c, 6, 53, 101
7, 48665, Note_off_c, 6, 53, 64
7, 48672, Note_on_c, 6, 55, 95
7, 48685, Note_off_c, 6, 55, 64
7, 56832, Note_on_c, 6, 55, 96
7, 56890, Control_c, 6, 1, 0
7, 56904, Note_off_c, 6, 55, 64
7, 56928, Note_on_c, 6, 50, 96
7, 57015, Note_off_c, 6, 50, 64
7, 57024, Note_on_c, 6, 53, 90
7, 57120, Note_on_c, 6, 58, 96
7, 57122, Note_off_c, 6, 53, 64
7, 57300, Note_off_c, 6, 58, 64
7, 57312, Note_on_c, 6, 53, 90
7, 57408, Note_on_c, 6, 55, 102
7, 57412, Note_off_c, 6, 53, 64
7, 57497, Note_off_c, 6, 55, 64
7, 57504, Note_on_c, 6, 48, 102
7, 57581, Note_off_c, 6, 48, 64
7, 57661, Pitch_bend_c, 6, 7808
7, 57671, Pitch_bend_c, 6, 6528
7, 57679, Pitch_bend_c, 6, 4096
7, 57686, Pitch_bend_c, 6, 1664
7, 57694, Pitch_bend_c, 6, 640
7, 57696, Note_on_c, 6, 65, 80
7, 57708, Pitch_bend_c, 6, 0
7, 57722, Pitch_bend_c, 6, 768
7, 57731, Pitch_bend_c, 6, 4992
7, 57738, Pitch_bend_c, 6, 7040
7, 57745, Pitch_bend_c, 6, 7552
7, 57756, Note_off_c, 6, 65, 64
7, 57763, Pitch_bend_c, 6, 8192
7, 57792, Note_on_c, 6, 74, 63
7, 57845, Note_off_c, 6, 74, 64
7, 57859, Control_c, 6, 1, 28
7, 57888, Note_on_c, 6, 72, 67
7, 57891, Control_c, 6, 1, 60
7, 58162, Note_off_c, 6, 72, 64
7, 58176, Note_on_c, 6, 48, 90
7, 58201, Control_c, 6, 1, 0
7, 58240, Note_off_c, 6, 48, 64
7, 58368, Note_on_c, 6, 55, 96
7, 58440, Note_off_c, 6, 55, 64
7, 58464, Note_on_c, 6, 50, 96
7, 58551, Note_off_c, 6, 50, 64
7, 58560, Note_on_c, 6, 53, 90
7, 58656, Note_on_c, 6, 58, 96
7, 58658, Note_off_c, 6, 53, 64
7, 58836, Note_off_c, 6, 58, 64
7, 58848, Note_on_c, 6, 53, 90
7, 58944, Note_on_c, 6, 55, 102
7, 58948, Note_off_c, 6, 53, 64
7, 59033, Note_off_c, 6, 55, 64
7, 59040, Note_on_c, 6, 48, 102
7, 59117, Note_off_c, 6, 48, 64
7, 59196, Pitch_bend_c, 6, 7808
7, 59204, Pitch_bend_c, 6, 6656
7, 59212, Pitch_bend_c, 6, 3840
7, 59220, Pitch_bend_c, 6, 1280
7, 59227, Pitch_bend_c, 6, 512
7, 59232, Note_on_c, 6, 65, 75
7, 59245, Pitch_bend_c, 6, 0
7, 59255, Pitch_bend_c, 6, 640
7, 59263, Pitch_bend_c, 6, 4480
7, 59272, Pitch_bend_c, 6, 6784
7, 59279, Pitch_bend_c, 6, 7552
7, 59296, Pitch_bend_c, 6, 8192
7, 59323, Note_off_c, 6, 65, 64
7, 59328, Note_on_c, 6, 74, 71
7, 59384, Note_off_c, 6, 74, 64
7, 59424, Note_on_c, 6, 72, 71
7, 59440, Control_c, 6, 1, 40
7, 59473, Control_c, 6, 1, 64
7, 59712, Note_on_c, 6, 48, 90
7, 59728, Note_off_c, 6, 72, 64
7, 59776, Note_off_c, 6, 48, 64
7, 59863, Control_c, 6, 1, 11
7, 59904, Note_on_c, 6, 55, 96
7, 59976, Note_off_c, 6, 55, 64
7, 60000, Note_on_c, 6, 50, 96
7, 60087, Note_off_c, 6, 50, 64
7, 60096, Note_on_c, 6, 53, 90
7, 60192, Note_on_c, 6, 58, 96
7, 60194, Note_off_c, 6, 53, 64
7, 60372, Note_off_c, 6, 58, 64
7, 60384, Note_on_c, 6, 53, 90
7, 60480, Note_on_c, 6, 55, 102
7, 60484, Note_off_c, 6, 53, 64
7, 60569, Note_off_c, 6, 55, 64
7, 60576, Note_on_c, 6, 48, 102
7, 60653, Note_off_c, 6, 48, 64
7, 60732, Pitch_bend_c, 6, 7808
7, 60740, Pitch_bend_c, 6, 6656
7, 60748, Pitch_bend_c, 6, 3840
7, 60756, Pitch_bend_c, 6, 1280
7, 60763, Pitch_bend_c, 6, 512
7, 60768, Note_on_c, 6, 65, 75
7, 60781, Pitch_bend_c, 6, 0
7, 60791, Pitch_bend_c, 6, 640
7, 60799, Pitch_bend_c, 6, 4480
7, 60808, Pitch_bend_c, 6, 6784
7, 60832, Pitch_bend_c, 6, 8192
7, 60859, Note_off_c, 6, 65, 64
7, 60864, Note_on_c, 6, 74, 71
7, 60920, Note_off_c, 6, 74, 64
7, 60960, Note_on_c, 6, 72, 71
7, 60960, Control_c, 6, 1, 18
7, 61009, Control_c, 6, 1, 64
7, 61248, Note_on_c, 6, 48, 90
7, 61264, Note_off_c, 6, 72, 64
7, 61312, Note_off_c, 6, 48, 64
7, 61399, Control_c, 6, 1, 11
7, 62112, Note_on_c, 6, 54, 109
7, 62112, Note_on_c, 6, 55, 90
7, 62138, Note_off_c, 6, 54, 64
7, 62485, Note_off_c, 6, 55, 64
7, 62496, Note_on_c, 6, 53, 71
7, 62592, Note_on_c, 6, 50, 85
7, 62597, Note_off_c, 6, 53, 64
7, 62880, Note_on_c, 6, 48, 71
7, 62901, Note_off_c, 6, 50, 64
7, 62976, Note_on_c, 6, 46, 80
7, 62984, Note_off_c, 6, 48, 64
7, 63245, Pitch_bend_c, 6, 7424
7, 63248, Note_off_c, 6, 46, 64
7, 63252, Pitch_bend_c, 6, 6144
7, 63260, Pitch_bend_c, 6, 5504
7, 63264, Note_on_c, 6, 48, 80
7, 63267, Pitch_bend_c, 6, 5120
7, 63274, Pitch_bend_c, 6, 4736
7, 63285, Pitch_bend_c, 6, 5504
7, 63293, Pitch_bend_c, 6, 6528
7, 63316, Pitch_bend_c, 6, 8192
7, 63360, Note_on_c, 6, 46, 80
7, 63363, Note_off_c, 6, 48, 64
7, 63540, Note_off_c, 6, 46, 64
7, 63552, Note_on_c, 6, 43, 71
7, 63686, Note_off_c, 6, 43, 64
7, 69888, Note_on_c, 6, 55, 96
7, 69888, Control_c, 6, 7, 84
7, 69946, Control_c, 6, 1, 0
7, 69960, Note_off_c, 6, 55, 64
7, 69984, Note_on_c, 6, 50, 96
7, 70071, Note_off_c, 6, 50, 64
7, 70080, Note_on_c, 6, 53, 90
7, 70080, Control_c, 6, 7, 80
7, 70176, Note_on_c, 6, 58, 96
7, 70178, Note_off_c, 6, 53, 64
7, 70272, Control_c, 6, 7, 77
7, 70356, Note_off_c, 6, 58, 64
7, 70368, Note_on_c, 6, 53, 90
7, 70464, Note_on_c, 6, 55, 102
7, 70464, Control_c, 6, 7, 74
7, 70468, Note_off_c, 6, 53, 64
7, 70553, Note_off_c, 6, 55, 64
7, 70560, Note_on_c, 6, 48, 102
7, 70637, Note_off_c, 6, 48, 64
7, 70656, Control_c, 6, 7, 71
7, 70750, Pitch_bend_c, 6, 640
7, 70752, Note_on_c, 6, 65, 80
7, 70752, Control_c, 6, 7, 70
7, 70764, Pitch_bend_c, 6, 0
7, 70778, Pitch_bend_c, 6, 768
7, 70787, Pitch_bend_c, 6, 4992
7, 70794, Pitch_bend_c, 6, 7040
7, 70801, Pitch_bend_c, 6, 7552
7, 70810, Pitch_bend_c, 6, 7936
7, 70812, Note_off_c, 6, 65, 64
7, 70819, Pitch_bend_c, 6, 8192
7, 70848, Note_on_c, 6, 74, 63
7, 70901, Note_off_c, 6, 74, 64
7, 70930, Control_c, 6, 1, 48
7, 70944, Note_on_c, 6, 72, 67
7, 70944, Control_c, 6, 7, 67
7, 70947, Control_c, 6, 1, 60
7, 70962, Control_c, 6, 1, 64
7, 71040, Control_c, 6, 7, 65
7, 71136, Control_c, 6, 7, 63
7, 71218, Note_off_c, 6, 72, 64
7, 71225, Control_c, 6, 1, 39
7, 71232, Note_on_c, 6, 48, 90
7, 71232, Control_c, 6, 7, 62
7, 71257, Control_c, 6, 1, 0
7, 71296, Note_off_c, 6, 48, 64
7, 71328, Control_c, 6, 7, 60
7, 71424, Note_on_c, 6, 55, 96
7, 71424, Control_c, 6, 7, 58
7, 71496, Note_off_c, 6, 55, 64
7, 71520, Note_on_c, 6, 50, 96
7, 71607, Note_off_c, 6, 50, 64
7, 71616, Note_on_c, 6, 53, 90
7, 71616, Control_c, 6, 7, 55
7, 71712, Note_on_c, 6, 58, 96
7, 71714, Note_off_c, 6, 53, 64
7, 71808, Control_c, 6, 7, 52
7, 71892, Note_off_c, 6, 58, 64
7, 71904, Note_on_c, 6, 53, 90
7, 71904, Control_c, 6, 7, 52
7, 72000, Note_on_c, 6, 55, 102
7, 72004, Note_off_c, 6, 53, 64
7, 72089, Note_off_c, 6, 55, 64
7, 72096, Note_on_c, 6, 48, 102
7, 72096, Control_c, 6, 7, 49
7, 72173, Note_off_c, 6, 48, 64
7, 72192, Control_c, 6, 7, 47
7, 72283, Pitch_bend_c, 6, 512
7, 72288, Note_on_c, 6, 65, 75
7, 72288, Control_c, 6, 7, 46
7, 72293, Pitch_bend_c, 6, 256
7, 72301, Pitch_bend_c, 6, 0
7, 72311, Pitch_bend_c, 6, 640
7, 72319, Pitch_bend_c, 6, 4480
7, 72328, Pitch_bend_c, 6, 6784
7, 72335, Pitch_bend_c, 6, 7552
7, 72352, Pitch_bend_c, 6, 8192
7, 72379, Note_off_c, 6, 65, 64
7, 72384, Note_on_c, 6, 74, 71
7, 72384, Control_c, 6, 7, 44
7, 72440, Note_off_c, 6, 74, 64
7, 72462, Control_c, 6, 1, 1
7, 72480, Note_on_c, 6, 72, 71
7, 72480, Control_c, 6, 1, 18
7, 72480, Control_c, 6, 7, 42
7, 72496, Control_c, 6, 1, 40
7, 72514, Control_c, 6, 1, 59
7, 72529, Control_c, 6, 1, 64
7, 72576, Control_c, 6, 7, 41
7, 72604, Control_c, 6, 1, 64
7, 72632, Control_c, 6, 1, 64
7, 72672, Control_c, 6, 7, 39
7, 72768, Note_on_c, 6, 48, 90
7, 72768, Control_c, 6, 7, 37
7, 72784, Note_off_c, 6, 72, 64
7, 72832, Note_off_c, 6, 48, 64
7, 72864, Control_c, 6, 7, 36
7, 72889, Control_c, 6, 1, 54
7, 72904, Control_c, 6, 1, 17
7, 72919, Control_c, 6, 1, 11
7, 72960, Note_on_c, 6, 55, 96
7, 72960, Control_c, 6, 7, 35
7, 73003, Control_c, 6, 1, 6
7, 73018, Control_c, 6, 1, 0
7, 73032, Note_off_c, 6, 55, 64
7, 73056, Note_on_c, 6, 50, 96
7, 73056, Control_c, 6, 7, 34
7, 73143, Note_off_c, 6, 50, 64
7, 73152, Note_on_c, 6, 53, 90
7, 73152, Control_c, 6, 7, 32
7, 73248, Note_on_c, 6, 58, 96
7, 73248, Control_c, 6, 7, 31
7, 73250, Note_off_c, 6, 53, 64
7, 73344, Control_c, 6, 7, 29
7, 73428, Note_off_c, 6, 58, 64
7, 73440, Note_on_c, 6, 53, 90
7, 73440, Control_c, 6, 7, 27
7, 73536, Note_on_c, 6, 55, 102
7, 73536, Control_c, 6, 7, 25
7, 73540, Note_off_c, 6, 53, 64
7, 73625, Note_off_c, 6, 55, 64
7, 73632, Note_on_c, 6, 48, 102
7, 73632, Control_c, 6, 7, 24
7, 73709, Note_off_c, 6, 48, 64
7, 73728, Control_c, 6, 7, 22
7, 73822, Pitch_bend_c, 6, 640
7, 73824, Note_on_c, 6, 65, 80
7, 73824, Control_c, 6, 7, 20
7, 73829, Pitch_bend_c, 6, 384
7, 73836, Pitch_bend_c, 6, 0
7, 73850, Pitch_bend_c, 6, 768
7, 73859, Pitch_bend_c, 6, 4992
7, 73866, Pitch_bend_c, 6, 7040
7, 73873, Pitch_bend_c, 6, 7552
7, 73884, Note_off_c, 6, 65, 64
7, 73891, Pitch_bend_c, 6, 8192
7, 73920, Note_on_c, 6, 74, 63
7, 73920, Control_c, 6, 7, 19
7, 73973, Note_off_c, 6, 74, 64
7, 74016, Note_on_c, 6, 72, 67
7, 74208, Control_c, 6, 7, 15
7, 74290, Note_off_c, 6, 72, 64
7, 74304, Note_on_c, 6, 48, 90
7, 74368, Note_off_c, 6, 48, 64
7, 74400, Control_c, 6, 7, 12
7, 74496, Note_on_c, 6, 55, 96
7, 74568, Note_off_c, 6, 55, 64
7, 74592, Note_on_c, 6, 50, 96
7, 74679, Note_off_c, 6, 50, 64
7, 74688, Note_on_c, 6, 53, 90
7, 74784, Note_on_c, 6, 58, 96
7, 74784, Control_c, 6, 7, 5
7, 74786, Note_off_c, 6, 53, 64
7, 74964, Note_off_c, 6, 58, 64
7, 75264, Control_c, 6, 7, 0
7, 76032, Control_c, 6, 120, 0
7, 76048, Control_c, 6, 123, 0
7, 76048, End_track
8, 0, Start_track
8, 0, Title_t, "Trumpet "
8, 0, Channel_prefix, 7
8, 0, Control_c, 7, 7, 127
8, 0, Control_c, 7, 10, 64
8, 0, Program_c, 7, 0
8, 199, Control_c, 7, 121, 0
8, 250, Control_c, 7, 7, 88
8, 251, Control_c, 7, 10, 43
8, 252, Control_c, 7, 11, 127
8, 253, Control_c, 7, 91, 78
8, 254, Control_c, 7, 93, 40
8, 263, Pitch_bend_c, 7, 8192
8, 296, Control_c, 7, 0, 0
8, 351, Program_c, 7, 56
8, 16992, Control_c, 7, 99, 1
8, 17040, Control_c, 7, 98, 32
8, 17136, Control_c, 7, 6, 89
8, 17568, Note_on_c, 7, 55, 112
8, 17568, Note_on_c, 7, 67, 108
8, 17568, Control_c, 7, 7, 86
8, 17592, Control_c, 7, 7, 63
8, 17616, Control_c, 7, 7, 59
8, 17664, Control_c, 7, 7, 48
8, 17664, Control_c, 7, 6, 72
8, 17688, Control_c, 7, 7, 49
8, 17712, Control_c, 7, 7, 50
8, 17712, Control_c, 7, 6, 74
8, 17736, Control_c, 7, 7, 51
8, 17760, Control_c, 7, 7, 52
8, 17760, Control_c, 7, 6, 76
8, 17808, Control_c, 7, 6, 78
8, 17832, Control_c, 7, 7, 55
8, 17856, Control_c, 7, 7, 57
8, 17856, Control_c, 7, 6, 80
8, 17880, Control_c, 7, 7, 58
8, 17904, Control_c, 7, 7, 60
8, 17904, Control_c, 7, 6, 83
8, 17928, Control_c, 7, 7, 62
8, 17952, Control_c, 7, 7, 63
8, 17952, Control_c, 7, 6, 85
8, 18000, Control_c, 7, 6, 87
8, 18024, Control_c, 7, 7, 68
8, 18048, Control_c, 7, 7, 69
8, 18048, Control_c, 7, 6, 89
8, 18072, Control_c, 7, 7, 70
8, 18096, Control_c, 7, 7, 71
8, 18096, Control_c, 7, 6, 91
8, 18120, Control_c, 7, 7, 73
8, 18144, Control_c, 7, 7, 74
8, 18144, Control_c, 7, 6, 93
8, 18192, Control_c, 7, 6, 95
8, 18216, Control_c, 7, 7, 78
8, 18240, Control_c, 7, 7, 79
8, 18240, Control_c, 7, 6, 97
8, 18264, Control_c, 7, 7, 81
8, 18288, Control_c, 7, 7, 82
8, 18288, Control_c, 7, 6, 99
8, 18336, Control_c, 7, 6, 101
8, 18360, Control_c, 7, 7, 87
8, 18384, Control_c, 7, 7, 88
8, 18384, Control_c, 7, 6, 103
8, 18408, Control_c, 7, 7, 89
8, 18432, Control_c, 7, 7, 91
8, 18432, Control_c, 7, 6, 105
8, 18456, Control_c, 7, 7, 92
8, 18480, Control_c, 7, 7, 93
8, 18480, Control_c, 7, 6, 107
8, 18504, Control_c, 7, 7, 94
8, 18528, Control_c, 7, 7, 96
8, 18528, Control_c, 7, 6, 109
8, 18576, Control_c, 7, 6, 111
8, 18600, Control_c, 7, 7, 99
8, 18624, Control_c, 7, 7, 101
8, 18624, Control_c, 7, 6, 113
8, 18648, Control_c, 7, 7, 102
8, 18672, Control_c, 7, 7, 106
8, 18672, Control_c, 7, 6, 115
8, 18696, Control_c, 7, 7, 102
8, 18720, Control_c, 7, 7, 98
8, 18720, Control_c, 7, 6, 118
8, 18768, Control_c, 7, 6, 120
8, 18792, Control_c, 7, 7, 88
8, 18816, Control_c, 7, 7, 83
8, 18816, Control_c, 7, 6, 125
8, 18840, Control_c, 7, 7, 79
8, 18864, Control_c, 7, 7, 75
8, 18864, Control_c, 7, 6, 118
8, 18888, Control_c, 7, 7, 71
8, 18912, Control_c, 7, 6, 112
8, 18925, Note_off_c, 7, 55, 64
8, 18929, Note_off_c, 7, 67, 64
8, 18960, Control_c, 7, 6, 106
8, 19104, Control_c, 7, 7, 75
8, 19152, Control_c, 7, 6, 81
8, 21600, Note_on_c, 7, 74, 127
8, 21651, Note_off_c, 7, 74, 64
8, 21778, Note_on_c, 7, 73, 100
8, 21795, Note_off_c, 7, 73, 64
8, 21798, Note_on_c, 7, 74, 116
8, 22270, Note_off_c, 7, 74, 64
8, 25344, Note_on_c, 7, 60, 96
8, 25728, Note_on_c, 7, 63, 104
8, 25743, Note_off_c, 7, 60, 64
8, 26098, Note_off_c, 7, 63, 64
8, 26112, Note_on_c, 7, 65, 104
8, 26303, Note_off_c, 7, 65, 64
8, 26304, Note_on_c, 7, 67, 108
8, 26491, Note_off_c, 7, 67, 64
8, 26496, Note_on_c, 7, 69, 96
8, 26880, Note_on_c, 7, 70, 100
8, 26880, Note_on_c, 7, 74, 88
8, 26880, Note_on_c, 7, 79, 88
8, 26886, Note_off_c, 7, 69, 64
8, 26921, Note_off_c, 7, 70, 64
8, 26928, Note_on_c, 7, 69, 92
8, 26935, Note_off_c, 7, 74, 64
8, 26936, Note_off_c, 7, 79, 64
8, 26968, Note_off_c, 7, 69, 64
8, 26976, Note_on_c, 7, 67, 92
8, 27798, Note_off_c, 7, 67, 64
8, 28128, Note_on_c, 7, 72, 72
8, 28128, Note_on_c, 7, 77, 84
8, 28156, Note_off_c, 7, 77, 64
8, 28163, Note_off_c, 7, 72, 64
8, 28224, Note_on_c, 7, 74, 72
8, 28224, Note_on_c, 7, 79, 72
8, 28258, Note_off_c, 7, 79, 64
8, 28259, Note_off_c, 7, 74, 64
8, 28320, Note_on_c, 7, 72, 64
8, 28320, Note_on_c, 7, 77, 72
8, 28356, Note_off_c, 7, 77, 64
8, 28361, Note_off_c, 7, 72, 64
8, 28416, Note_on_c, 7, 74, 80
8, 28416, Note_on_c, 7, 79, 88
8, 28462, Note_off_c, 7, 74, 64
8, 28467, Note_off_c, 7, 79, 64
8, 29664, Note_on_c, 7, 72, 92
8, 29664, Note_on_c, 7, 77, 104
8, 29696, Note_off_c, 7, 77, 64
8, 29701, Note_off_c, 7, 72, 64
8, 29760, Note_on_c, 7, 74, 88
8, 29760, Note_on_c, 7, 79, 88
8, 29795, Note_off_c, 7, 79, 64
8, 29797, Note_off_c, 7, 74, 64
8, 29856, Note_on_c, 7, 72, 76
8, 29856, Note_on_c, 7, 77, 96
8, 29897, Note_off_c, 7, 72, 64
8, 29898, Note_off_c, 7, 77, 64
8, 29952, Note_on_c, 7, 74, 80
8, 29952, Note_on_c, 7, 79, 88
8, 29998, Note_off_c, 7, 74, 64
8, 30003, Note_off_c, 7, 79, 64
8, 31200, Note_on_c, 7, 72, 92
8, 31200, Note_on_c, 7, 77, 104
8, 31232, Note_off_c, 7, 77, 64
8, 31237, Note_off_c, 7, 72, 64
8, 31296, Note_on_c, 7, 74, 88
8, 31296, Note_on_c, 7, 79, 88
8, 31331, Note_off_c, 7, 79, 64
8, 31333, Note_off_c, 7, 74, 64
8, 31392, Note_on_c, 7, 72, 76
8, 31392, Note_on_c, 7, 77, 96
8, 31433, Note_off_c, 7, 72, 64
8, 31434, Note_off_c, 7, 77, 64
8, 31584, Control_c, 7, 99, 1
8, 31632, Control_c, 7, 98, 32
8, 31728, Control_c, 7, 6, 89
8, 32160, Note_on_c, 7, 55, 112
8, 32160, Note_on_c, 7, 67, 108
8, 32160, Control_c, 7, 7, 86
8, 32184, Control_c, 7, 7, 63
8, 32208, Control_c, 7, 7, 59
8, 32256, Control_c, 7, 7, 48
8, 32256, Control_c, 7, 6, 72
8, 32280, Control_c, 7, 7, 49
8, 32304, Control_c, 7, 7, 50
8, 32304, Control_c, 7, 6, 74
8, 32328, Control_c, 7, 7, 51
8, 32352, Control_c, 7, 7, 52
8, 32352, Control_c, 7, 6, 76
8, 32400, Control_c, 7, 6, 78
8, 32424, Control_c, 7, 7, 55
8, 32448, Control_c, 7, 7, 57
8, 32448, Control_c, 7, 6, 80
8, 32472, Control_c, 7, 7, 58
8, 32496, Control_c, 7, 7, 60
8, 32496, Control_c, 7, 6, 83
8, 32520, Control_c, 7, 7, 62
8, 32544, Control_c, 7, 7, 63
8, 32544, Control_c, 7, 6, 85
8, 32592, Control_c, 7, 6, 87
8, 32616, Control_c, 7, 7, 68
8, 32640, Control_c, 7, 7, 69
8, 32640, Control_c, 7, 6, 89
8, 32664, Control_c, 7, 7, 70
8, 32688, Control_c, 7, 7, 71
8, 32688, Control_c, 7, 6, 91
8, 32712, Control_c, 7, 7, 73
8, 32736, Control_c, 7, 7, 74
8, 32736, Control_c, 7, 6, 93
8, 32784, Control_c, 7, 6, 95
8, 32808, Control_c, 7, 7, 78
8, 32832, Control_c, 7, 7, 79
8, 32832, Control_c, 7, 6, 97
8, 32856, Control_c, 7, 7, 81
8, 32880, Control_c, 7, 7, 82
8, 32880, Control_c, 7, 6, 99
8, 32928, Control_c, 7, 6, 101
8, 32952, Control_c, 7, 7, 87
8, 32976, Control_c, 7, 7, 88
8, 32976, Control_c, 7, 6, 103
8, 33000, Control_c, 7, 7, 89
8, 33024, Control_c, 7, 7, 91
8, 33024, Control_c, 7, 6, 105
8, 33048, Control_c, 7, 7, 92
8, 33072, Control_c, 7, 7, 93
8, 33072, Control_c, 7, 6, 107
8, 33096, Control_c, 7, 7, 94
8, 33120, Control_c, 7, 7, 96
8, 33120, Control_c, 7, 6, 109
8, 33168, Control_c, 7, 6, 111
8, 33192, Control_c, 7, 7, 99
8, 33216, Control_c, 7, 7, 101
8, 33216, Control_c, 7, 6, 113
8, 33240, Control_c, 7, 7, 102
8, 33264, Control_c, 7, 7, 106
8, 33264, Control_c, 7, 6, 115
8, 33288, Control_c, 7, 7, 102
8, 33312, Control_c, 7, 7, 98
8, 33312, Control_c, 7, 6, 118
8, 33360, Control_c, 7, 6, 120
8, 33384, Control_c, 7, 7, 88
8, 33408, Control_c, 7, 7, 83
8, 33408, Control_c, 7, 6, 125
8, 33432, Control_c, 7, 7, 79
8, 33456, Control_c, 7, 7, 75
8, 33456, Control_c, 7, 6, 118
8, 33480, Control_c, 7, 7, 71
8, 33504, Control_c, 7, 7, 68
8, 33504, Control_c, 7, 6, 112
8, 33517, Note_off_c, 7, 55, 64
8, 33521, Note_off_c, 7, 67, 64
8, 33552, Control_c, 7, 6, 106
8, 33576, Control_c, 7, 7, 55
8, 33600, Control_c, 7, 7, 52
8, 33600, Control_c, 7, 6, 100
8, 33624, Control_c, 7, 7, 49
8, 33648, Control_c, 7, 7, 71
8, 33648, Control_c, 7, 6, 94
8, 33696, Control_c, 7, 6, 88
8, 33744, Control_c, 7, 6, 61
8, 36864, Control_c, 7, 7, 88
8, 36864, Note_on_c, 7, 74, 124
8, 37103, Note_off_c, 7, 74, 64
8, 37152, Note_on_c, 7, 77, 120
8, 37196, Note_off_c, 7, 77, 64
8, 37248, Note_on_c, 7, 79, 120
8, 37475, Note_off_c, 7, 79, 64
8, 37536, Note_on_c, 7, 81, 124
8, 37588, Note_off_c, 7, 81, 64
8, 37632, Note_on_c, 7, 82, 112
8, 38342, Note_off_c, 7, 82, 64
8, 38400, Note_on_c, 7, 74, 116
8, 38400, Pitch_bend_c, 7, 5376
8, 38404, Note_on_c, 7, 61, 96
8, 38409, Pitch_bend_c, 7, 4864
8, 38412, Note_off_c, 7, 61, 64
8, 38416, Pitch_bend_c, 7, 6528
8, 38418, Note_on_c, 7, 62, 100
8, 38424, Pitch_bend_c, 7, 7552
8, 38439, Pitch_bend_c, 7, 8192
8, 38483, Note_off_c, 7, 62, 64
8, 38491, Note_off_c, 7, 74, 64
8, 38492, Note_on_c, 7, 60, 92
8, 38496, Note_on_c, 7, 72, 112
8, 38524, Note_off_c, 7, 60, 64
8, 38562, Note_off_c, 7, 72, 64
8, 38587, Note_on_c, 7, 58, 104
8, 38592, Note_on_c, 7, 70, 127
8, 38615, Note_off_c, 7, 58, 64
8, 38621, Note_off_c, 7, 70, 64
8, 38679, Note_on_c, 7, 60, 112
8, 38688, Note_on_c, 7, 72, 127
8, 39673, Note_off_c, 7, 60, 64
8, 39699, Note_off_c, 7, 72, 64
8, 39736, Note_on_c, 7, 59, 108
8, 39744, Note_on_c, 7, 71, 127
8, 39785, Note_off_c, 7, 59, 64
8, 39811, Note_off_c, 7, 71, 64
8, 39837, Note_on_c, 7, 60, 104
8, 39840, Note_on_c, 7, 72, 108
8, 39868, Note_off_c, 7, 60, 64
8, 39883, Note_off_c, 7, 72, 64
8, 39915, Pitch_bend_c, 7, 6144
8, 39922, Pitch_bend_c, 7, 5248
8, 39927, Note_on_c, 7, 61, 100
8, 39930, Pitch_bend_c, 7, 3712
8, 39936, Note_on_c, 7, 74, 127
8, 39938, Note_off_c, 7, 61, 64
8, 39938, Pitch_bend_c, 7, 2944
8, 39941, Note_on_c, 7, 62, 108
8, 39945, Pitch_bend_c, 7, 2688
8, 39959, Pitch_bend_c, 7, 3584
8, 39966, Pitch_bend_c, 7, 4224
8, 39974, Pitch_bend_c, 7, 7168
8, 39981, Pitch_bend_c, 7, 7552
8, 39996, Pitch_bend_c, 7, 8192
8, 40020, Note_off_c, 7, 62, 64
8, 40029, Note_on_c, 7, 60, 88
8, 40032, Note_on_c, 7, 72, 120
8, 40042, Note_off_c, 7, 74, 64
8, 40091, Note_off_c, 7, 60, 64
8, 40101, Note_off_c, 7, 72, 64
8, 40114, Note_on_c, 7, 59, 100
8, 40128, Note_on_c, 7, 71, 104
8, 40145, Note_off_c, 7, 59, 64
8, 40176, Note_off_c, 7, 71, 64
8, 40208, Pitch_bend_c, 7, 7808
8, 40208, Note_on_c, 7, 61, 100
8, 40215, Pitch_bend_c, 7, 7296
8, 40217, Note_off_c, 7, 61, 64
8, 40220, Note_on_c, 7, 62, 108
8, 40222, Pitch_bend_c, 7, 5248
8, 40224, Note_on_c, 7, 74, 124
8, 40230, Pitch_bend_c, 7, 4096
8, 40239, Pitch_bend_c, 7, 3328
8, 40246, Pitch_bend_c, 7, 3200
8, 40256, Pitch_bend_c, 7, 4352
8, 40263, Pitch_bend_c, 7, 5632
8, 40271, Pitch_bend_c, 7, 7424
8, 40287, Pitch_bend_c, 7, 8192
8, 40457, Pitch_bend_c, 7, 7040
8, 40464, Pitch_bend_c, 7, 6144
8, 40471, Pitch_bend_c, 7, 4736
8, 40480, Pitch_bend_c, 7, 3456
8, 40487, Pitch_bend_c, 7, 2560
8, 40492, Note_off_c, 7, 74, 64
8, 40495, Pitch_bend_c, 7, 1408
8, 40499, Note_off_c, 7, 62, 64
8, 40501, Note_on_c, 7, 58, 80
8, 40502, Pitch_bend_c, 7, 640
8, 40512, Note_on_c, 7, 71, 124
8, 40514, Note_off_c, 7, 58, 64
8, 40516, Pitch_bend_c, 7, 128
8, 40516, Note_on_c, 7, 59, 92
8, 40527, Pitch_bend_c, 7, 768
8, 40534, Pitch_bend_c, 7, 2944
8, 40542, Pitch_bend_c, 7, 5888
8, 40550, Pitch_bend_c, 7, 7552
8, 40557, Pitch_bend_c, 7, 7808
8, 40565, Pitch_bend_c, 7, 8192
8, 40578, Note_off_c, 7, 59, 64
8, 40602, Note_on_c, 7, 55, 68
8, 40604, Note_off_c, 7, 71, 64
8, 40608, Note_on_c, 7, 67, 124
8, 41207, Note_off_c, 7, 55, 64
8, 41370, Note_off_c, 7, 67, 64
8, 41472, Note_on_c, 7, 73, 120
8, 41484, Note_on_c, 7, 74, 120
8, 41488, Note_off_c, 7, 73, 64
8, 41554, Note_off_c, 7, 74, 64
8, 41565, Note_on_c, 7, 72, 92
8, 41601, Note_off_c, 7, 72, 64
8, 41656, Note_on_c, 7, 70, 108
8, 41685, Note_off_c, 7, 70, 64
8, 41750, Note_on_c, 7, 72, 100
8, 42437, Note_off_c, 7, 72, 64
8, 42440, Note_on_c, 7, 70, 104
8, 42522, Note_off_c, 7, 70, 64
8, 42532, Note_on_c, 7, 67, 104
8, 42902, Note_off_c, 7, 67, 64
8, 43008, Note_on_c, 7, 57, 104
8, 43008, Note_on_c, 7, 69, 96
8, 43296, Note_on_c, 7, 60, 100
8, 43296, Note_on_c, 7, 72, 104
8, 43303, Note_off_c, 7, 69, 64
8, 43304, Note_off_c, 7, 57, 64
8, 43743, Note_off_c, 7, 60, 64
8, 43745, Note_off_c, 7, 72, 64
8, 43776, Note_on_c, 7, 62, 120
8, 43776, Note_on_c, 7, 74, 116
8, 43844, Note_off_c, 7, 74, 64
8, 43848, Note_off_c, 7, 62, 64
8, 43872, Note_on_c, 7, 62, 100
8, 43872, Note_on_c, 7, 74, 88
8, 43940, Note_off_c, 7, 74, 64
8, 43947, Note_off_c, 7, 62, 64
8, 44064, Note_on_c, 7, 62, 124
8, 44064, Note_on_c, 7, 74, 112
8, 44126, Note_off_c, 7, 62, 64
8, 44138, Note_off_c, 7, 74, 64
8, 44352, Note_on_c, 7, 70, 124
8, 44352, Note_on_c, 7, 82, 124
8, 44425, Note_off_c, 7, 82, 64
8, 44434, Note_off_c, 7, 70, 64
8, 50400, Note_on_c, 7, 62, 127
8, 50400, Note_on_c, 7, 74, 127
8, 50476, Note_off_c, 7, 74, 64
8, 50495, Note_off_c, 7, 62, 64
8, 50496, Note_on_c, 7, 65, 127
8, 50496, Note_on_c, 7, 77, 127
8, 50591, Note_off_c, 7, 65, 64
8, 50592, Note_on_c, 7, 66, 127
8, 50592, Note_on_c, 7, 78, 127
8, 50593, Note_off_c, 7, 77, 64
8, 50630, Note_off_c, 7, 78, 64
8, 50657, Note_off_c, 7, 66, 64
8, 50688, Note_on_c, 7, 67, 112
8, 50688, Note_on_c, 7, 79, 120
8, 50757, Note_off_c, 7, 79, 64
8, 50757, Note_off_c, 7, 67, 64
8, 51648, Note_on_c, 7, 74, 64
8, 51648, Note_on_c, 7, 77, 104
8, 51669, Note_off_c, 7, 74, 64
8, 51742, Note_off_c, 7, 77, 64
8, 51744, Note_on_c, 7, 76, 92
8, 51770, Note_off_c, 7, 76, 64
8, 51840, Note_on_c, 7, 76, 120
8, 51923, Note_off_c, 7, 76, 64
8, 51936, Note_on_c, 7, 74, 84
8, 51953, Note_off_c, 7, 74, 64
8, 52032, Note_on_c, 7, 74, 104
8, 52128, Note_on_c, 7, 75, 100
8, 52128, Note_on_c, 7, 76, 108
8, 52131, Note_off_c, 7, 74, 64
8, 52150, Note_off_c, 7, 75, 64
8, 52222, Note_off_c, 7, 76, 64
8, 52224, Note_on_c, 7, 74, 108
8, 52276, Note_off_c, 7, 74, 64
8, 56544, Note_on_c, 7, 62, 127
8, 56544, Note_on_c, 7, 74, 127
8, 56620, Note_off_c, 7, 74, 64
8, 56639, Note_off_c, 7, 62, 64
8, 56640, Note_on_c, 7, 65, 127
8, 56640, Note_on_c, 7, 77, 127
8, 56735, Note_off_c, 7, 65, 64
8, 56736, Note_on_c, 7, 66, 127
8, 56736, Note_on_c, 7, 78, 127
8, 56737, Note_off_c, 7, 77, 64
8, 56774, Note_off_c, 7, 78, 64
8, 56801, Note_off_c, 7, 66, 64
8, 56832, Note_on_c, 7, 74, 112
8, 56832, Note_on_c, 7, 79, 108
8, 56888, Note_off_c, 7, 74, 64
8, 56895, Note_off_c, 7, 79, 64
8, 58080, Note_on_c, 7, 72, 120
8, 58080, Note_on_c, 7, 77, 116
8, 58115, Note_off_c, 7, 77, 64
8, 58118, Note_off_c, 7, 72, 64
8, 58176, Note_on_c, 7, 74, 116
8, 58176, Note_on_c, 7, 79, 120
8, 58209, Note_off_c, 7, 74, 64
8, 58212, Note_off_c, 7, 79, 64
8, 58272, Note_on_c, 7, 72, 108
8, 58272, Note_on_c, 7, 77, 112
8, 58309, Note_off_c, 7, 77, 64
8, 58311, Note_off_c, 7, 72, 64
8, 58368, Note_on_c, 7, 74, 116
8, 58368, Note_on_c, 7, 79, 116
8, 58406, Note_off_c, 7, 74, 64
8, 58413, Note_off_c, 7, 79, 64
8, 59616, Note_on_c, 7, 72, 100
8, 59616, Note_on_c, 7, 77, 100
8, 59646, Note_off_c, 7, 77, 64
8, 59651, Note_off_c, 7, 72, 64
8, 59712, Note_on_c, 7, 74, 96
8, 59712, Note_on_c, 7, 79, 112
8, 59750, Note_off_c, 7, 74, 64
8, 59756, Note_off_c, 7, 79, 64
8, 59808, Note_on_c, 7, 72, 92
8, 59808, Note_on_c, 7, 77, 112
8, 59847, Note_off_c, 7, 77, 64
8, 59847, Note_off_c, 7, 72, 64
8, 61536, Control_c, 7, 99, 1
8, 61584, Control_c, 7, 98, 32
8, 62880, Control_c, 7, 6, 101
8, 62952, Control_c, 7, 7, 84
8, 62976, Note_on_c, 7, 43, 80
8, 62976, Note_on_c, 7, 55, 68
8, 62976, Note_on_c, 7, 58, 98
8, 62976, Note_on_c, 7, 67, 80
8, 62976, Note_on_c, 7, 79, 84
8, 62976, Control_c, 7, 7, 90
8, 62976, Control_c, 7, 6, 78
8, 63000, Control_c, 7, 7, 95
8, 63024, Control_c, 7, 7, 101
8, 63024, Control_c, 7, 6, 55
8, 63048, Control_c, 7, 7, 58
8, 63072, Control_c, 7, 7, 60
8, 63072, Control_c, 7, 6, 59
8, 63120, Control_c, 7, 6, 64
8, 63144, Control_c, 7, 7, 66
8, 63168, Control_c, 7, 7, 68
8, 63168, Control_c, 7, 6, 69
8, 63192, Control_c, 7, 7, 69
8, 63216, Control_c, 7, 7, 70
8, 63216, Control_c, 7, 6, 74
8, 63240, Control_c, 7, 7, 72
8, 63264, Control_c, 7, 7, 74
8, 63264, Control_c, 7, 6, 79
8, 63312, Control_c, 7, 6, 84
8, 63336, Control_c, 7, 7, 78
8, 63360, Control_c, 7, 7, 80
8, 63360, Control_c, 7, 6, 89
8, 63384, Control_c, 7, 7, 82
8, 63408, Control_c, 7, 7, 84
8, 63408, Control_c, 7, 6, 94
8, 63432, Control_c, 7, 7, 86
8, 63456, Control_c, 7, 7, 88
8, 63456, Control_c, 7, 6, 99
8, 63504, Control_c, 7, 6, 104
8, 63528, Control_c, 7, 7, 92
8, 63552, Control_c, 7, 7, 96
8, 63552, Control_c, 7, 6, 109
8, 63576, Control_c, 7, 7, 98
8, 63600, Control_c, 7, 7, 100
8, 63600, Control_c, 7, 6, 115
8, 63648, Control_c, 7, 6, 116
8, 63696, Control_c, 7, 6, 96
8, 63716, Note_off_c, 7, 79, 64
8, 63718, Note_off_c, 7, 67, 64
8, 63723, Note_off_c, 7, 43, 64
8, 63725, Note_off_c, 7, 58, 64
8, 63727, Note_off_c, 7, 55, 64
8, 64992, Note_on_c, 7, 72, 100
8, 64992, Note_on_c, 7, 77, 96
8, 65027, Note_off_c, 7, 77, 64
8, 65030, Note_off_c, 7, 72, 64
8, 65088, Note_on_c, 7, 74, 96
8, 65088, Note_on_c, 7, 79, 100
8, 65121, Note_off_c, 7, 74, 64
8, 65124, Note_off_c, 7, 79, 64
8, 65184, Note_on_c, 7, 72, 88
8, 65184, Note_on_c, 7, 77, 92
8, 65221, Note_off_c, 7, 77, 64
8, 65223, Note_off_c, 7, 72, 64
8, 65280, Note_on_c, 7, 74, 96
8, 65280, Note_on_c, 7, 79, 96
8, 65318, Note_off_c, 7, 74, 64
8, 65325, Note_off_c, 7, 79, 64
8, 66528, Note_on_c, 7, 72, 80
8, 66528, Note_on_c, 7, 77, 80
8, 66558, Note_off_c, 7, 77, 64
8, 66563, Note_off_c, 7, 72, 64
8, 66624, Note_on_c, 7, 74, 76
8, 66624, Note_on_c, 7, 79, 92
8, 66662, Note_off_c, 7, 74, 64
8, 66668, Note_off_c, 7, 79, 64
8, 66720, Note_on_c, 7, 72, 72
8, 66720, Note_on_c, 7, 77, 92
8, 66759, Note_off_c, 7, 77, 64
8, 66759, Note_off_c, 7, 72, 64
8, 66816, Note_on_c, 7, 74, 96
8, 66816, Note_on_c, 7, 79, 96
8, 66854, Note_off_c, 7, 74, 64
8, 66861, Note_off_c, 7, 79, 64
8, 68064, Note_on_c, 7, 72, 80
8, 68064, Note_on_c, 7, 77, 80
8, 68094, Note_off_c, 7, 77, 64
8, 68099, Note_off_c, 7, 72, 64
8, 68160, Note_on_c, 7, 74, 76
8, 68160, Note_on_c, 7, 79, 92
8, 68198, Note_off_c, 7, 74, 64
8, 68204, Note_off_c, 7, 79, 64
8, 68256, Note_on_c, 7, 72, 72
8, 68256, Note_on_c, 7, 77, 92
8, 68295, Note_off_c, 7, 77, 64
8, 68295, Note_off_c, 7, 72, 64
8, 68352, Note_on_c, 7, 74, 96
8, 68352, Note_on_c, 7, 79, 96
8, 68390, Note_off_c, 7, 74, 64
8, 68397, Note_off_c, 7, 79, 64
8, 69600, Note_on_c, 7, 72, 80
8, 69600, Note_on_c, 7, 77, 80
8, 69630, Note_off_c, 7, 77, 64
8, 69635, Note_off_c, 7, 72, 64
8, 69696, Note_on_c, 7, 74, 76
8, 69696, Note_on_c, 7, 79, 92
8, 69734, Note_off_c, 7, 74, 64
8, 69740, Note_off_c, 7, 79, 64
8, 69792, Note_on_c, 7, 72, 72
8, 69792, Note_on_c, 7, 77, 92
8, 69831, Note_off_c, 7, 77, 64
8, 69831, Note_off_c, 7, 72, 64
8, 69888, Note_on_c, 7, 74, 112
8, 69888, Note_on_c, 7, 79, 108
8, 69944, Note_off_c, 7, 74, 64
8, 69951, Note_off_c, 7, 79, 64
8, 71040, Control_c, 7, 7, 69
8, 71136, Note_on_c, 7, 72, 120
8, 71136, Note_on_c, 7, 77, 116
8, 71171, Note_off_c, 7, 77, 64
8, 71174, Note_off_c, 7, 72, 64
8, 71232, Note_on_c, 7, 74, 116
8, 71232, Note_on_c, 7, 79, 120
8, 71232, Control_c, 7, 7, 65
8, 71265, Note_off_c, 7, 74, 64
8, 71268, Note_off_c, 7, 79, 64
8, 71328, Note_on_c, 7, 72, 108
8, 71328, Note_on_c, 7, 77, 112
8, 71365, Note_off_c, 7, 77, 64
8, 71367, Note_off_c, 7, 72, 64
8, 71424, Note_on_c, 7, 74, 116
8, 71424, Note_on_c, 7, 79, 116
8, 71424, Control_c, 7, 7, 62
8, 71462, Note_off_c, 7, 74, 64
8, 71469, Note_off_c, 7, 79, 64
8, 72576, Control_c, 7, 7, 43
8, 72672, Note_on_c, 7, 72, 100
8, 72672, Note_on_c, 7, 77, 100
8, 72702, Note_off_c, 7, 77, 64
8, 72707, Note_off_c, 7, 72, 64
8, 72768, Note_on_c, 7, 74, 96
8, 72768, Note_on_c, 7, 79, 112
8, 72768, Control_c, 7, 7, 40
8, 72806, Note_off_c, 7, 74, 64
8, 72812, Note_off_c, 7, 79, 64
8, 72864, Note_on_c, 7, 72, 92
8, 72864, Note_on_c, 7, 77, 112
8, 72903, Note_off_c, 7, 77, 64
8, 72903, Note_off_c, 7, 72, 64
8, 72960, Note_on_c, 7, 74, 112
8, 72960, Note_on_c, 7, 79, 108
8, 72960, Control_c, 7, 7, 37
8, 73016, Note_off_c, 7, 74, 64
8, 73023, Note_off_c, 7, 79, 64
8, 74112, Control_c, 7, 7, 18
8, 74208, Note_on_c, 7, 72, 120
8, 74208, Note_on_c, 7, 77, 116
8, 74243, Note_off_c, 7, 77, 64
8, 74246, Note_off_c, 7, 72, 64
8, 74304, Note_on_c, 7, 74, 116
8, 74304, Note_on_c, 7, 79, 120
8, 74304, Control_c, 7, 7, 15
8, 74337, Note_off_c, 7, 74, 64
8, 74340, Note_off_c, 7, 79, 64
8, 74400, Note_on_c, 7, 72, 108
8, 74400, Note_on_c, 7, 77, 112
8, 74437, Note_off_c, 7, 77, 64
8, 74439, Note_off_c, 7, 72, 64
8, 74496, Note_on_c, 7, 74, 116
8, 74496, Note_on_c, 7, 79, 116
8, 74496, Control_c, 7, 7, 12
8, 74534, Note_off_c, 7, 74, 64
8, 74541, Note_off_c, 7, 79, 64
8, 75264, Control_c, 7, 7, 0
8, 76032, Control_c, 7, 120, 0
8, 76048, Control_c, 7, 123, 0
8, 76048, End_track
9, 0, Start_track
9, 0, Title_t, "Ten. sax"
9, 0, Channel_prefix, 8
9, 0, Control_c, 8, 7, 127
9, 0, Control_c, 8, 10, 64
9, 0, Program_c, 8, 0
9, 208, Control_c, 8, 121, 0
9, 259, Control_c, 8, 7, 88
9, 260, Control_c, 8, 10, 85
9, 261, Control_c, 8, 11, 127
9, 262, Control_c, 8, 91, 34
9, 263, Control_c, 8, 93, 40
9, 266, Pitch_bend_c, 8, 8192
9, 305, Control_c, 8, 0, 0
9, 360, Program_c, 8, 65
9, 17568, Note_on_c, 8, 43, 108
9, 17568, Note_on_c, 8, 55, 120
9, 17568, Control_c, 8, 7, 93
9, 17616, Control_c, 8, 7, 62
9, 17664, Control_c, 8, 7, 56
9, 17688, Control_c, 8, 7, 49
9, 17712, Control_c, 8, 7, 50
9, 17760, Control_c, 8, 7, 52
9, 17832, Control_c, 8, 7, 55
9, 17856, Control_c, 8, 7, 57
9, 17904, Control_c, 8, 7, 60
9, 17952, Control_c, 8, 7, 63
9, 18024, Control_c, 8, 7, 68
9, 18072, Control_c, 8, 7, 70
9, 18120, Control_c, 8, 7, 73
9, 18144, Control_c, 8, 7, 74
9, 18216, Control_c, 8, 7, 78
9, 18264, Control_c, 8, 7, 81
9, 18288, Control_c, 8, 7, 82
9, 18384, Control_c, 8, 7, 88
9, 18408, Control_c, 8, 7, 89
9, 18432, Control_c, 8, 7, 91
9, 18480, Control_c, 8, 7, 93
9, 18528, Control_c, 8, 7, 96
9, 18600, Control_c, 8, 7, 99
9, 18624, Control_c, 8, 7, 101
9, 18672, Control_c, 8, 7, 106
9, 18696, Control_c, 8, 7, 102
9, 18720, Control_c, 8, 7, 98
9, 18792, Control_c, 8, 7, 88
9, 18816, Control_c, 8, 7, 83
9, 18840, Control_c, 8, 7, 79
9, 18864, Control_c, 8, 7, 75
9, 18888, Control_c, 8, 7, 71
9, 18901, Note_off_c, 8, 43, 64
9, 18910, Note_off_c, 8, 55, 64
9, 18912, Control_c, 8, 7, 68
9, 18984, Control_c, 8, 7, 55
9, 19008, Control_c, 8, 7, 52
9, 19032, Control_c, 8, 7, 49
9, 19056, Control_c, 8, 7, 80
9, 21603, Note_on_c, 8, 74, 108
9, 21622, Note_off_c, 8, 74, 64
9, 21779, Note_on_c, 8, 62, 104
9, 21784, Note_on_c, 8, 74, 108
9, 22270, Note_off_c, 8, 74, 64
9, 22270, Note_off_c, 8, 62, 64
9, 25536, Note_on_c, 8, 60, 64
9, 25728, Note_on_c, 8, 63, 62
9, 25739, Note_off_c, 8, 60, 64
9, 26112, Note_on_c, 8, 65, 85
9, 26129, Note_off_c, 8, 63, 64
9, 26281, Note_off_c, 8, 65, 64
9, 26304, Note_on_c, 8, 67, 96
9, 26496, Note_on_c, 8, 69, 107
9, 26497, Note_off_c, 8, 67, 64
9, 26873, Note_off_c, 8, 69, 64
9, 26880, Note_on_c, 8, 70, 104
9, 26913, Note_off_c, 8, 70, 64
9, 26976, Note_on_c, 8, 67, 84
9, 27980, Note_off_c, 8, 67, 64
9, 30909, Pitch_bend_c, 8, 5120
9, 30912, Note_on_c, 8, 74, 116
9, 30917, Pitch_bend_c, 8, 3456
9, 30924, Pitch_bend_c, 8, 2176
9, 30931, Pitch_bend_c, 8, 1408
9, 30938, Pitch_bend_c, 8, 1152
9, 30946, Pitch_bend_c, 8, 1536
9, 30953, Pitch_bend_c, 8, 1792
9, 30961, Pitch_bend_c, 8, 3584
9, 30968, Pitch_bend_c, 8, 4864
9, 30976, Pitch_bend_c, 8, 6528
9, 30983, Pitch_bend_c, 8, 7296
9, 30999, Pitch_bend_c, 8, 8192
9, 31008, Note_on_c, 8, 72, 108
9, 31015, Note_off_c, 8, 74, 64
9, 31045, Note_off_c, 8, 72, 64
9, 31104, Note_on_c, 8, 72, 120
9, 31111, Pitch_bend_c, 8, 7424
9, 31118, Pitch_bend_c, 8, 6144
9, 31126, Pitch_bend_c, 8, 4096
9, 31134, Pitch_bend_c, 8, 2816
9, 31142, Pitch_bend_c, 8, 2688
9, 31149, Pitch_bend_c, 8, 3584
9, 31158, Pitch_bend_c, 8, 5504
9, 31168, Pitch_bend_c, 8, 7296
9, 31175, Pitch_bend_c, 8, 7680
9, 31190, Pitch_bend_c, 8, 8192
9, 31200, Note_on_c, 8, 70, 124
9, 31207, Note_off_c, 8, 72, 64
9, 31237, Note_off_c, 8, 70, 64
9, 32160, Note_on_c, 8, 43, 108
9, 32160, Note_on_c, 8, 55, 120
9, 32160, Note_on_c, 8, 79, 120
9, 32160, Control_c, 8, 7, 93
9, 32208, Control_c, 8, 7, 62
9, 32256, Control_c, 8, 7, 56
9, 32280, Control_c, 8, 7, 49
9, 32304, Control_c, 8, 7, 50
9, 32328, Control_c, 8, 7, 51
9, 32352, Control_c, 8, 7, 52
9, 32424, Control_c, 8, 7, 55
9, 32448, Control_c, 8, 7, 57
9, 32472, Control_c, 8, 7, 58
9, 32496, Control_c, 8, 7, 60
9, 32520, Control_c, 8, 7, 62
9, 32616, Control_c, 8, 7, 68
9, 32664, Control_c, 8, 7, 70
9, 32688, Control_c, 8, 7, 71
9, 32712, Control_c, 8, 7, 73
9, 32736, Control_c, 8, 7, 74
9, 32808, Control_c, 8, 7, 78
9, 32832, Control_c, 8, 7, 79
9, 32856, Control_c, 8, 7, 81
9, 32880, Control_c, 8, 7, 82
9, 32952, Control_c, 8, 7, 87
9, 32976, Control_c, 8, 7, 88
9, 33000, Control_c, 8, 7, 89
9, 33024, Control_c, 8, 7, 91
9, 33048, Control_c, 8, 7, 92
9, 33072, Control_c, 8, 7, 93
9, 33096, Control_c, 8, 7, 94
9, 33120, Control_c, 8, 7, 96
9, 33192, Control_c, 8, 7, 99
9, 33216, Control_c, 8, 7, 101
9, 33240, Control_c, 8, 7, 102
9, 33264, Control_c, 8, 7, 106
9, 33288, Control_c, 8, 7, 102
9, 33312, Control_c, 8, 7, 98
9, 33384, Control_c, 8, 7, 88
9, 33408, Control_c, 8, 7, 83
9, 33432, Control_c, 8, 7, 79
9, 33456, Control_c, 8, 7, 75
9, 33480, Control_c, 8, 7, 71
9, 33493, Note_off_c, 8, 43, 64
9, 33502, Note_off_c, 8, 55, 64
9, 33502, Note_off_c, 8, 79, 64
9, 33504, Control_c, 8, 7, 68
9, 36864, Control_c, 8, 7, 88
9, 36864, Note_on_c, 8, 55, 124
9, 37086, Note_off_c, 8, 55, 64
9, 37152, Note_on_c, 8, 57, 120
9, 37194, Note_off_c, 8, 57, 64
9, 37248, Note_on_c, 8, 58, 124
9, 37489, Note_off_c, 8, 58, 64
9, 37536, Note_on_c, 8, 60, 124
9, 37588, Note_off_c, 8, 60, 64
9, 37632, Note_on_c, 8, 62, 120
9, 38361, Note_off_c, 8, 62, 64
9, 38402, Note_on_c, 8, 61, 104
9, 38415, Note_off_c, 8, 61, 64
9, 38415, Note_on_c, 8, 62, 112
9, 38493, Note_off_c, 8, 62, 64
9, 38495, Note_on_c, 8, 60, 100
9, 38526, Note_off_c, 8, 60, 64
9, 38586, Note_on_c, 8, 58, 104
9, 38615, Note_off_c, 8, 58, 64
9, 38680, Note_on_c, 8, 60, 100
9, 39931, Note_off_c, 8, 60, 64
9, 39936, Note_on_c, 8, 61, 82
9, 39952, Note_off_c, 8, 61, 64
9, 39955, Note_on_c, 8, 62, 70
9, 40035, Note_off_c, 8, 62, 64
9, 40037, Note_on_c, 8, 60, 62
9, 40067, Note_off_c, 8, 60, 64
9, 40128, Note_on_c, 8, 62, 66
9, 40149, Note_off_c, 8, 62, 64
9, 40218, Note_on_c, 8, 67, 66
9, 40504, Note_off_c, 8, 67, 64
9, 40518, Note_on_c, 8, 58, 104
9, 40534, Note_off_c, 8, 58, 64
9, 40536, Note_on_c, 8, 59, 108
9, 40597, Note_off_c, 8, 59, 64
9, 40609, Note_on_c, 8, 55, 84
9, 41302, Note_off_c, 8, 55, 64
9, 41472, Note_on_c, 8, 61, 100
9, 41484, Note_off_c, 8, 61, 64
9, 41486, Note_on_c, 8, 62, 112
9, 41565, Note_on_c, 8, 60, 88
9, 41567, Note_off_c, 8, 62, 64
9, 41608, Note_off_c, 8, 60, 64
9, 41663, Note_on_c, 8, 58, 96
9, 41693, Note_off_c, 8, 58, 64
9, 41750, Note_on_c, 8, 60, 96
9, 42333, Note_on_c, 8, 50, 104
9, 42334, Note_off_c, 8, 60, 64
9, 42438, Note_on_c, 8, 58, 108
9, 42444, Note_off_c, 8, 50, 64
9, 42513, Note_off_c, 8, 58, 64
9, 42529, Note_on_c, 8, 55, 100
9, 42925, Note_off_c, 8, 55, 64
9, 43008, Note_on_c, 8, 57, 124
9, 43294, Note_on_c, 8, 60, 124
9, 43303, Note_off_c, 8, 57, 64
9, 43745, Note_off_c, 8, 60, 64
9, 43767, Note_on_c, 8, 62, 124
9, 43842, Note_off_c, 8, 62, 64
9, 43863, Note_on_c, 8, 62, 112
9, 43937, Note_off_c, 8, 62, 64
9, 44058, Note_on_c, 8, 62, 108
9, 44120, Note_off_c, 8, 62, 64
9, 44340, Note_on_c, 8, 82, 124
9, 44341, Note_on_c, 8, 70, 124
9, 44405, Note_off_c, 8, 82, 64
9, 44421, Note_off_c, 8, 70, 64
9, 50401, Note_on_c, 8, 62, 120
9, 50408, Note_on_c, 8, 74, 120
9, 50435, Note_off_c, 8, 62, 64
9, 50437, Note_off_c, 8, 74, 64
9, 50492, Note_on_c, 8, 65, 124
9, 50496, Note_on_c, 8, 77, 127
9, 50594, Note_off_c, 8, 65, 64
9, 50594, Note_on_c, 8, 66, 120
9, 50595, Note_off_c, 8, 77, 64
9, 50597, Note_on_c, 8, 78, 120
9, 50641, Note_off_c, 8, 78, 64
9, 50649, Note_off_c, 8, 66, 64
9, 50688, Note_on_c, 8, 67, 124
9, 50688, Note_on_c, 8, 79, 124
9, 50779, Note_off_c, 8, 67, 64
9, 50783, Note_off_c, 8, 79, 64
9, 51648, Note_on_c, 8, 65, 124
9, 51648, Note_on_c, 8, 77, 124
9, 51739, Note_off_c, 8, 77, 64
9, 51744, Note_on_c, 8, 64, 124
9, 51744, Note_on_c, 8, 76, 124
9, 51748, Note_off_c, 8, 65, 64
9, 51756, Note_off_c, 8, 64, 64
9, 51757, Note_off_c, 8, 76, 64
9, 51840, Note_on_c, 8, 64, 124
9, 51840, Note_on_c, 8, 76, 124
9, 51932, Note_off_c, 8, 76, 64
9, 51936, Note_on_c, 8, 62, 108
9, 51936, Note_on_c, 8, 74, 112
9, 51938, Note_off_c, 8, 64, 64
9, 51952, Note_off_c, 8, 74, 64
9, 51953, Note_off_c, 8, 62, 64
9, 52032, Note_on_c, 8, 62, 124
9, 52032, Note_on_c, 8, 74, 124
9, 52122, Note_off_c, 8, 74, 64
9, 52122, Note_off_c, 8, 62, 64
9, 52128, Note_on_c, 8, 64, 124
9, 52128, Note_on_c, 8, 75, 104
9, 52128, Note_on_c, 8, 76, 124
9, 52147, Note_off_c, 8, 75, 64
9, 52210, Note_off_c, 8, 76, 64
9, 52224, Note_on_c, 8, 62, 116
9, 52224, Note_on_c, 8, 74, 124
9, 52225, Note_off_c, 8, 64, 64
9, 52257, Note_off_c, 8, 74, 64
9, 52259, Note_off_c, 8, 62, 64
9, 56545, Note_on_c, 8, 62, 120
9, 56552, Note_on_c, 8, 74, 120
9, 56579, Note_off_c, 8, 62, 64
9, 56581, Note_off_c, 8, 74, 64
9, 56636, Note_on_c, 8, 65, 124
9, 56640, Note_on_c, 8, 77, 127
9, 56738, Note_off_c, 8, 65, 64
9, 56738, Note_on_c, 8, 66, 120
9, 56739, Note_off_c, 8, 77, 64
9, 56741, Note_on_c, 8, 78, 120
9, 56785, Note_off_c, 8, 78, 64
9, 56793, Note_off_c, 8, 66, 64
9, 56832, Note_on_c, 8, 74, 108
9, 56832, Note_on_c, 8, 79, 112
9, 56881, Note_off_c, 8, 74, 64
9, 56886, Note_off_c, 8, 79, 64
9, 58080, Note_on_c, 8, 72, 92
9, 58080, Note_on_c, 8, 77, 108
9, 58103, Note_off_c, 8, 77, 64
9, 58111, Note_off_c, 8, 72, 64
9, 58176, Note_on_c, 8, 74, 104
9, 58176, Note_on_c, 8, 79, 104
9, 58207, Note_off_c, 8, 79, 64
9, 58207, Note_off_c, 8, 74, 64
9, 58272, Note_on_c, 8, 72, 108
9, 58272, Note_on_c, 8, 77, 108
9, 58303, Note_off_c, 8, 72, 64
9, 58304, Note_off_c, 8, 77, 64
9, 58368, Note_on_c, 8, 74, 108
9, 58368, Note_on_c, 8, 79, 108
9, 58409, Note_off_c, 8, 74, 64
9, 58415, Note_off_c, 8, 79, 64
9, 59616, Note_on_c, 8, 72, 92
9, 59616, Note_on_c, 8, 77, 104
9, 59650, Note_off_c, 8, 72, 64
9, 59651, Note_off_c, 8, 77, 64
9, 59712, Note_on_c, 8, 74, 100
9, 59712, Note_on_c, 8, 79, 108
9, 59742, Note_off_c, 8, 74, 64
9, 59746, Note_off_c, 8, 79, 64
9, 59808, Note_on_c, 8, 72, 100
9, 59808, Note_on_c, 8, 77, 108
9, 59844, Note_off_c, 8, 72, 64
9, 59845, Note_off_c, 8, 77, 64
9, 62952, Control_c, 8, 7, 89
9, 62976, Note_on_c, 8, 43, 76
9, 62976, Note_on_c, 8, 62, 72
9, 62976, Note_on_c, 8, 67, 80
9, 62976, Control_c, 8, 7, 91
9, 63000, Control_c, 8, 7, 92
9, 63024, Control_c, 8, 7, 93
9, 63048, Control_c, 8, 7, 94
9, 63072, Control_c, 8, 7, 96
9, 63144, Control_c, 8, 7, 99
9, 63168, Control_c, 8, 7, 101
9, 63192, Control_c, 8, 7, 102
9, 63216, Control_c, 8, 7, 106
9, 63240, Control_c, 8, 7, 102
9, 63264, Control_c, 8, 7, 98
9, 63336, Control_c, 8, 7, 88
9, 63360, Control_c, 8, 7, 83
9, 63384, Control_c, 8, 7, 79
9, 63408, Control_c, 8, 7, 75
9, 63432, Control_c, 8, 7, 71
9, 63456, Control_c, 8, 7, 68
9, 63528, Control_c, 8, 7, 55
9, 63552, Control_c, 8, 7, 52
9, 63576, Control_c, 8, 7, 49
9, 63600, Control_c, 8, 7, 80
9, 63734, Note_off_c, 8, 67, 64
9, 63736, Note_off_c, 8, 62, 64
9, 63737, Note_off_c, 8, 43, 64
9, 64992, Note_on_c, 8, 72, 72
9, 64992, Note_on_c, 8, 77, 88
9, 65015, Note_off_c, 8, 77, 64
9, 65023, Note_off_c, 8, 72, 64
9, 65088, Note_on_c, 8, 74, 84
9, 65088, Note_on_c, 8, 79, 84
9, 65119, Note_off_c, 8, 79, 64
9, 65119, Note_off_c, 8, 74, 64
9, 65184, Note_on_c, 8, 72, 88
9, 65184, Note_on_c, 8, 77, 88
9, 65215, Note_off_c, 8, 72, 64
9, 65216, Note_off_c, 8, 77, 64
9, 65280, Note_on_c, 8, 74, 88
9, 65280, Note_on_c, 8, 79, 88
9, 65321, Note_off_c, 8, 74, 64
9, 65327, Note_off_c, 8, 79, 64
9, 66528, Note_on_c, 8, 72, 72
9, 66528, Note_on_c, 8, 77, 84
9, 66562, Note_off_c, 8, 72, 64
9, 66563, Note_off_c, 8, 77, 64
9, 66624, Note_on_c, 8, 74, 80
9, 66624, Note_on_c, 8, 79, 88
9, 66654, Note_off_c, 8, 74, 64
9, 66658, Note_off_c, 8, 79, 64
9, 66720, Note_on_c, 8, 72, 80
9, 66720, Note_on_c, 8, 77, 88
9, 66756, Note_off_c, 8, 72, 64
9, 66757, Note_off_c, 8, 77, 64
9, 66816, Note_on_c, 8, 74, 88
9, 66816, Note_on_c, 8, 79, 88
9, 66857, Note_off_c, 8, 74, 64
9, 66863, Note_off_c, 8, 79, 64
9, 68064, Note_on_c, 8, 72, 72
9, 68064, Note_on_c, 8, 77, 84
9, 68098, Note_off_c, 8, 72, 64
9, 68099, Note_off_c, 8, 77, 64
9, 68160, Note_on_c, 8, 74, 80
9, 68160, Note_on_c, 8, 79, 88
9, 68190, Note_off_c, 8, 74, 64
9, 68194, Note_off_c, 8, 79, 64
9, 68256, Note_on_c, 8, 72, 80
9, 68256, Note_on_c, 8, 77, 88
9, 68292, Note_off_c, 8, 72, 64
9, 68293, Note_off_c, 8, 77, 64
9, 68352, Note_on_c, 8, 74, 88
9, 68352, Note_on_c, 8, 79, 88
9, 68393, Note_off_c, 8, 74, 64
9, 68399, Note_off_c, 8, 79, 64
9, 69600, Note_on_c, 8, 72, 72
9, 69600, Note_on_c, 8, 77, 84
9, 69634, Note_off_c, 8, 72, 64
9, 69635, Note_off_c, 8, 77, 64
9, 69696, Note_on_c, 8, 74, 80
9, 69696, Note_on_c, 8, 79, 88
9, 69726, Note_off_c, 8, 74, 64
9, 69730, Note_off_c, 8, 79, 64
9, 69792, Note_on_c, 8, 72, 80
9, 69792, Note_on_c, 8, 77, 88
9, 69828, Note_off_c, 8, 72, 64
9, 69829, Note_off_c, 8, 77, 64
9, 69888, Note_on_c, 8, 74, 108
9, 69888, Note_on_c, 8, 79, 112
9, 69937, Note_off_c, 8, 74, 64
9, 69942, Note_off_c, 8, 79, 64
9, 71040, Control_c, 8, 7, 68
9, 71136, Note_on_c, 8, 72, 92
9, 71136, Note_on_c, 8, 77, 108
9, 71159, Note_off_c, 8, 77, 64
9, 71167, Note_off_c, 8, 72, 64
9, 71232, Note_on_c, 8, 74, 104
9, 71232, Note_on_c, 8, 79, 104
9, 71232, Control_c, 8, 7, 65
9, 71263, Note_off_c, 8, 79, 64
9, 71263, Note_off_c, 8, 74, 64
9, 71328, Note_on_c, 8, 72, 108
9, 71328, Note_on_c, 8, 77, 108
9, 71328, Control_c, 8, 7, 63
9, 71359, Note_off_c, 8, 72, 64
9, 71360, Note_off_c, 8, 77, 64
9, 71424, Note_on_c, 8, 74, 108
9, 71424, Note_on_c, 8, 79, 108
9, 71424, Control_c, 8, 7, 61
9, 71465, Note_off_c, 8, 74, 64
9, 71471, Note_off_c, 8, 79, 64
9, 72576, Control_c, 8, 7, 43
9, 72672, Note_on_c, 8, 72, 92
9, 72672, Note_on_c, 8, 77, 104
9, 72672, Control_c, 8, 7, 41
9, 72706, Note_off_c, 8, 72, 64
9, 72707, Note_off_c, 8, 77, 64
9, 72768, Note_on_c, 8, 74, 100
9, 72768, Note_on_c, 8, 79, 108
9, 72768, Control_c, 8, 7, 39
9, 72798, Note_off_c, 8, 74, 64
9, 72802, Note_off_c, 8, 79, 64
9, 72864, Note_on_c, 8, 72, 100
9, 72864, Note_on_c, 8, 77, 108
9, 72864, Control_c, 8, 7, 37
9, 72900, Note_off_c, 8, 72, 64
9, 72901, Note_off_c, 8, 77, 64
9, 72960, Note_on_c, 8, 74, 108
9, 72960, Note_on_c, 8, 79, 112
9, 72960, Control_c, 8, 7, 37
9, 73009, Note_off_c, 8, 74, 64
9, 73014, Note_off_c, 8, 79, 64
9, 74112, Control_c, 8, 7, 17
9, 74208, Note_on_c, 8, 72, 92
9, 74208, Note_on_c, 8, 77, 108
9, 74231, Note_off_c, 8, 77, 64
9, 74239, Note_off_c, 8, 72, 64
9, 74304, Note_on_c, 8, 74, 104
9, 74304, Note_on_c, 8, 79, 104
9, 74304, Control_c, 8, 7, 14
9, 74335, Note_off_c, 8, 79, 64
9, 74335, Note_off_c, 8, 74, 64
9, 74400, Note_on_c, 8, 72, 108
9, 74400, Note_on_c, 8, 77, 108
9, 74431, Note_off_c, 8, 72, 64
9, 74432, Note_off_c, 8, 77, 64
9, 74496, Note_on_c, 8, 74, 108
9, 74496, Note_on_c, 8, 79, 108
9, 74496, Control_c, 8, 7, 11
9, 74537, Note_off_c, 8, 74, 64
9, 74543, Note_off_c, 8, 79, 64
9, 75168, Control_c, 8, 7, 0
9, 76032, Control_c, 8, 120, 0
9, 76048, Control_c, 8, 123, 0
9, 76048, End_track
10, 0, Start_track
10, 0, Title_t, "Drums   "
10, 0, Channel_prefix, 9
10, 0, Control_c, 9, 7, 127
10, 0, Control_c, 9, 10, 64
10, 0, Program_c, 9, 0
10, 217, Control_c, 9, 121, 0
10, 268, Control_c, 9, 7, 101
10, 270, Control_c, 9, 11, 127
10, 271, Control_c, 9, 91, 70
10, 272, Control_c, 9, 93, 30
10, 321, Program_c, 9, 32
10, 386, Control_c, 9, 99, 24
10, 392, Control_c, 9, 98, 56
10, 394, Control_c, 9, 6, 63
10, 406, Control_c, 9, 98, 35
10, 408, Control_c, 9, 6, 63
10, 412, Control_c, 9, 98, 44
10, 414, Pitch_bend_c, 9, 8192
10, 415, Control_c, 9, 6, 59
10, 416, Control_c, 9, 98, 42
10, 423, Control_c, 9, 6, 63
10, 429, Control_c, 9, 98, 40
10, 435, Control_c, 9, 6, 61
10, 441, Control_c, 9, 98, 46
10, 447, Control_c, 9, 6, 61
10, 453, Control_c, 9, 99, 28
10, 454, Control_c, 9, 98, 56
10, 455, Control_c, 9, 6, 100
10, 461, Control_c, 9, 98, 42
10, 462, Control_c, 9, 6, 64
10, 466, Control_c, 9, 98, 44
10, 473, Control_c, 9, 6, 64
10, 480, Control_c, 9, 98, 46
10, 486, Control_c, 9, 6, 64
10, 492, Control_c, 9, 99, 29
10, 494, Control_c, 9, 98, 56
10, 496, Control_c, 9, 6, 20
10, 502, Control_c, 9, 98, 35
10, 504, Control_c, 9, 6, 0
10, 505, Control_c, 9, 98, 38
10, 511, Control_c, 9, 6, 19
10, 532, Control_c, 9, 98, 42
10, 536, Control_c, 9, 6, 0
10, 541, Control_c, 9, 98, 40
10, 547, Control_c, 9, 6, 14
10, 553, Control_c, 9, 98, 46
10, 554, Control_c, 9, 6, 18
10, 555, Control_c, 9, 98, 56
10, 556, Control_c, 9, 6, 28
10, 559, Control_c, 9, 99, 30
10, 563, Control_c, 9, 98, 36
10, 567, Control_c, 9, 6, 127
10, 1536, Note_on_c, 9, 35, 124
10, 1536, Note_on_c, 9, 44, 124
10, 1536, Note_on_c, 9, 56, 109
10, 1536, Note_on_c, 9, 57, 11
10, 1540, Note_off_c, 9, 57, 17
10, 1540, Note_off_c, 9, 56, 109
10, 1540, Note_off_c, 9, 44, 124
10, 1540, Note_off_c, 9, 35, 124
10, 1632, Note_on_c, 9, 44, 72
10, 1636, Note_off_c, 9, 44, 72
10, 1728, Note_on_c, 9, 40, 124
10, 1728, Note_on_c, 9, 44, 124
10, 1728, Note_on_c, 9, 56, 124
10, 1728, Note_on_c, 9, 57, 11
10, 1732, Note_off_c, 9, 57, 17
10, 1732, Note_off_c, 9, 56, 124
10, 1732, Note_off_c, 9, 44, 124
10, 1732, Note_off_c, 9, 40, 124
10, 1824, Note_on_c, 9, 35, 124
10, 1824, Note_on_c, 9, 44, 112
10, 1828, Note_off_c, 9, 44, 112
10, 1828, Note_off_c, 9, 35, 124
10, 1920, Note_on_c, 9, 35, 116
10, 1920, Note_on_c, 9, 44, 124
10, 1920, Note_on_c, 9, 56, 109
10, 1920, Note_on_c, 9, 57, 11
10, 1924, Note_off_c, 9, 57, 17
10, 1924, Note_off_c, 9, 56, 109
10, 1924, Note_off_c, 9, 44, 124
10, 1924, Note_off_c, 9, 35, 116
10, 2016, Note_on_c, 9, 44, 116
10, 2020, Note_off_c, 9, 44, 116
10, 2112, Note_on_c, 9, 40, 124
10, 2112, Note_on_c, 9, 44, 124
10, 2112, Note_on_c, 9, 56, 116
10, 2112, Note_on_c, 9, 57, 11
10, 2116, Note_off_c, 9, 57, 17
10, 2116, Note_off_c, 9, 56, 116
10, 2116, Note_off_c, 9, 44, 124
10, 2116, Note_off_c, 9, 40, 124
10, 2208, Note_on_c, 9, 35, 124
10, 2208, Note_on_c, 9, 44, 112
10, 2212, Note_off_c, 9, 44, 112
10, 2212, Note_off_c, 9, 35, 124
10, 2304, Note_on_c, 9, 44, 124
10, 2304, Note_on_c, 9, 56, 116
10, 2304, Note_on_c, 9, 57, 11
10, 2308, Note_off_c, 9, 57, 17
10, 2308, Note_off_c, 9, 56, 116
10, 2308, Note_off_c, 9, 44, 124
10, 2400, Note_on_c, 9, 44, 112
10, 2404, Note_off_c, 9, 44, 112
10, 2496, Note_on_c, 9, 40, 124
10, 2496, Note_on_c, 9, 44, 108
10, 2496, Note_on_c, 9, 56, 124
10, 2496, Note_on_c, 9, 57, 11
10, 2500, Note_off_c, 9, 57, 17
10, 2500, Note_off_c, 9, 56, 124
10, 2500, Note_off_c, 9, 44, 108
10, 2500, Note_off_c, 9, 40, 124
10, 2592, Note_on_c, 9, 44, 100
10, 2596, Note_off_c, 9, 44, 100
10, 2688, Note_on_c, 9, 40, 124
10, 2688, Note_on_c, 9, 44, 120
10, 2688, Note_on_c, 9, 56, 124
10, 2688, Note_on_c, 9, 57, 11
10, 2692, Note_off_c, 9, 57, 17
10, 2692, Note_off_c, 9, 56, 124
10, 2692, Note_off_c, 9, 44, 120
10, 2692, Note_off_c, 9, 40, 124
10, 2784, Note_on_c, 9, 46, 96
10, 2788, Note_off_c, 9, 46, 124
10, 2880, Note_on_c, 9, 35, 124
10, 2880, Note_on_c, 9, 44, 116
10, 2880, Note_on_c, 9, 56, 124
10, 2880, Note_on_c, 9, 57, 11
10, 2884, Note_off_c, 9, 57, 17
10, 2884, Note_off_c, 9, 56, 124
10, 2884, Note_off_c, 9, 44, 116
10, 2884, Note_off_c, 9, 35, 124
10, 2976, Note_on_c, 9, 44, 104
10, 2980, Note_off_c, 9, 44, 104
10, 3072, Note_on_c, 9, 35, 124
10, 3072, Note_on_c, 9, 44, 124
10, 3072, Note_on_c, 9, 56, 124
10, 3072, Note_on_c, 9, 57, 11
10, 3076, Note_off_c, 9, 57, 17
10, 3076, Note_off_c, 9, 56, 124
10, 3076, Note_off_c, 9, 44, 124
10, 3076, Note_off_c, 9, 35, 124
10, 3168, Note_on_c, 9, 44, 112
10, 3172, Note_off_c, 9, 44, 112
10, 3264, Note_on_c, 9, 40, 124
10, 3264, Note_on_c, 9, 44, 124
10, 3264, Note_on_c, 9, 56, 124
10, 3264, Note_on_c, 9, 57, 11
10, 3268, Note_off_c, 9, 57, 17
10, 3268, Note_off_c, 9, 56, 124
10, 3268, Note_off_c, 9, 44, 124
10, 3268, Note_off_c, 9, 40, 124
10, 3360, Note_on_c, 9, 35, 116
10, 3360, Note_on_c, 9, 44, 108
10, 3364, Note_off_c, 9, 44, 108
10, 3364, Note_off_c, 9, 35, 116
10, 3456, Note_on_c, 9, 35, 124
10, 3456, Note_on_c, 9, 44, 120
10, 3456, Note_on_c, 9, 56, 116
10, 3456, Note_on_c, 9, 57, 11
10, 3460, Note_off_c, 9, 57, 17
10, 3460, Note_off_c, 9, 56, 116
10, 3460, Note_off_c, 9, 44, 120
10, 3460, Note_off_c, 9, 35, 124
10, 3552, Note_on_c, 9, 44, 116
10, 3556, Note_off_c, 9, 44, 116
10, 3648, Note_on_c, 9, 40, 124
10, 3648, Note_on_c, 9, 44, 120
10, 3648, Note_on_c, 9, 56, 124
10, 3648, Note_on_c, 9, 57, 11
10, 3652, Note_off_c, 9, 57, 17
10, 3652, Note_off_c, 9, 56, 124
10, 3652, Note_off_c, 9, 44, 120
10, 3652, Note_off_c, 9, 40, 124
10, 3744, Note_on_c, 9, 35, 124
10, 3744, Note_on_c, 9, 44, 108
10, 3748, Note_off_c, 9, 44, 108
10, 3748, Note_off_c, 9, 35, 124
10, 3840, Note_on_c, 9, 44, 120
10, 3840, Note_on_c, 9, 56, 116
10, 3840, Note_on_c, 9, 57, 11
10, 3844, Note_off_c, 9, 57, 17
10, 3844, Note_off_c, 9, 56, 116
10, 3844, Note_off_c, 9, 44, 120
10, 3936, Note_on_c, 9, 44, 112
10, 3940, Note_off_c, 9, 44, 112
10, 4032, Note_on_c, 9, 40, 124
10, 4032, Note_on_c, 9, 44, 120
10, 4032, Note_on_c, 9, 56, 124
10, 4032, Note_on_c, 9, 57, 11
10, 4036, Note_off_c, 9, 57, 17
10, 4036, Note_off_c, 9, 56, 124
10, 4036, Note_off_c, 9, 44, 120
10, 4036, Note_off_c, 9, 40, 124
10, 4128, Note_on_c, 9, 44, 108
10, 4132, Note_off_c, 9, 44, 108
10, 4224, Note_on_c, 9, 40, 124
10, 4224, Note_on_c, 9, 44, 112
10, 4224, Note_on_c, 9, 56, 124
10, 4224, Note_on_c, 9, 57, 11
10, 4228, Note_off_c, 9, 57, 17
10, 4228, Note_off_c, 9, 56, 124
10, 4228, Note_off_c, 9, 44, 112
10, 4228, Note_off_c, 9, 40, 124
10, 4320, Note_on_c, 9, 35, 90
10, 4320, Note_on_c, 9, 46, 90
10, 4324, Note_off_c, 9, 46, 116
10, 4324, Note_off_c, 9, 35, 90
10, 4416, Note_on_c, 9, 35, 124
10, 4416, Note_on_c, 9, 44, 120
10, 4416, Note_on_c, 9, 56, 124
10, 4416, Note_on_c, 9, 57, 11
10, 4420, Note_off_c, 9, 57, 17
10, 4420, Note_off_c, 9, 56, 124
10, 4420, Note_off_c, 9, 44, 120
10, 4420, Note_off_c, 9, 35, 124
10, 4512, Note_on_c, 9, 44, 124
10, 4516, Note_off_c, 9, 44, 124
10, 4608, Note_on_c, 9, 35, 124
10, 4608, Note_on_c, 9, 44, 124
10, 4608, Note_on_c, 9, 49, 55
10, 4608, Note_on_c, 9, 56, 109
10, 4608, Note_on_c, 9, 57, 11
10, 4612, Note_off_c, 9, 57, 17
10, 4612, Note_off_c, 9, 56, 109
10, 4612, Note_off_c, 9, 49, 85
10, 4612, Note_off_c, 9, 44, 124
10, 4612, Note_off_c, 9, 35, 124
10, 4704, Note_on_c, 9, 44, 72
10, 4708, Note_off_c, 9, 44, 72
10, 4800, Note_on_c, 9, 40, 124
10, 4800, Note_on_c, 9, 44, 124
10, 4800, Note_on_c, 9, 56, 124
10, 4800, Note_on_c, 9, 57, 11
10, 4804, Note_off_c, 9, 57, 17
10, 4804, Note_off_c, 9, 56, 124
10, 4804, Note_off_c, 9, 44, 124
10, 4804, Note_off_c, 9, 40, 124
10, 4896, Note_on_c, 9, 35, 124
10, 4896, Note_on_c, 9, 44, 112
10, 4900, Note_off_c, 9, 44, 112
10, 4900, Note_off_c, 9, 35, 124
10, 4992, Note_on_c, 9, 35, 116
10, 4992, Note_on_c, 9, 44, 124
10, 4992, Note_on_c, 9, 56, 109
10, 4992, Note_on_c, 9, 57, 11
10, 4996, Note_off_c, 9, 57, 17
10, 4996, Note_off_c, 9, 56, 109
10, 4996, Note_off_c, 9, 44, 124
10, 4996, Note_off_c, 9, 35, 116
10, 5088, Note_on_c, 9, 44, 116
10, 5092, Note_off_c, 9, 44, 116
10, 5184, Note_on_c, 9, 40, 124
10, 5184, Note_on_c, 9, 44, 124
10, 5184, Note_on_c, 9, 56, 116
10, 5184, Note_on_c, 9, 57, 11
10, 5188, Note_off_c, 9, 57, 17
10, 5188, Note_off_c, 9, 56, 116
10, 5188, Note_off_c, 9, 44, 124
10, 5188, Note_off_c, 9, 40, 124
10, 5280, Note_on_c, 9, 35, 124
10, 5280, Note_on_c, 9, 44, 112
10, 5284, Note_off_c, 9, 44, 112
10, 5284, Note_off_c, 9, 35, 124
10, 5376, Note_on_c, 9, 44, 124
10, 5376, Note_on_c, 9, 56, 116
10, 5376, Note_on_c, 9, 57, 11
10, 5380, Note_off_c, 9, 57, 17
10, 5380, Note_off_c, 9, 56, 116
10, 5380, Note_off_c, 9, 44, 124
10, 5472, Note_on_c, 9, 44, 112
10, 5476, Note_off_c, 9, 44, 112
10, 5568, Note_on_c, 9, 40, 124
10, 5568, Note_on_c, 9, 44, 108
10, 5568, Note_on_c, 9, 56, 124
10, 5568, Note_on_c, 9, 57, 11
10, 5572, Note_off_c, 9, 57, 17
10, 5572, Note_off_c, 9, 56, 124
10, 5572, Note_off_c, 9, 44, 108
10, 5572, Note_off_c, 9, 40, 124
10, 5664, Note_on_c, 9, 44, 100
10, 5668, Note_off_c, 9, 44, 100
10, 5760, Note_on_c, 9, 40, 124
10, 5760, Note_on_c, 9, 44, 120
10, 5760, Note_on_c, 9, 56, 124
10, 5760, Note_on_c, 9, 57, 11
10, 5764, Note_off_c, 9, 57, 17
10, 5764, Note_off_c, 9, 56, 124
10, 5764, Note_off_c, 9, 44, 120
10, 5764, Note_off_c, 9, 40, 124
10, 5856, Note_on_c, 9, 46, 96
10, 5860, Note_off_c, 9, 46, 124
10, 5952, Note_on_c, 9, 35, 124
10, 5952, Note_on_c, 9, 44, 116
10, 5952, Note_on_c, 9, 56, 124
10, 5952, Note_on_c, 9, 57, 11
10, 5956, Note_off_c, 9, 57, 17
10, 5956, Note_off_c, 9, 56, 124
10, 5956, Note_off_c, 9, 44, 116
10, 5956, Note_off_c, 9, 35, 124
10, 6048, Note_on_c, 9, 44, 104
10, 6052, Note_off_c, 9, 44, 104
10, 6144, Note_on_c, 9, 35, 124
10, 6144, Note_on_c, 9, 44, 124
10, 6144, Note_on_c, 9, 56, 124
10, 6144, Note_on_c, 9, 57, 11
10, 6148, Note_off_c, 9, 57, 17
10, 6148, Note_off_c, 9, 56, 124
10, 6148, Note_off_c, 9, 44, 124
10, 6148, Note_off_c, 9, 35, 124
10, 6240, Note_on_c, 9, 44, 112
10, 6244, Note_off_c, 9, 44, 112
10, 6336, Note_on_c, 9, 40, 124
10, 6336, Note_on_c, 9, 44, 124
10, 6336, Note_on_c, 9, 56, 124
10, 6336, Note_on_c, 9, 57, 11
10, 6340, Note_off_c, 9, 57, 17
10, 6340, Note_off_c, 9, 56, 124
10, 6340, Note_off_c, 9, 44, 124
10, 6340, Note_off_c, 9, 40, 124
10, 6432, Note_on_c, 9, 35, 116
10, 6432, Note_on_c, 9, 44, 108
10, 6436, Note_off_c, 9, 44, 108
10, 6436, Note_off_c, 9, 35, 116
10, 6528, Note_on_c, 9, 35, 124
10, 6528, Note_on_c, 9, 44, 120
10, 6528, Note_on_c, 9, 56, 116
10, 6528, Note_on_c, 9, 57, 11
10, 6532, Note_off_c, 9, 57, 17
10, 6532, Note_off_c, 9, 56, 116
10, 6532, Note_off_c, 9, 44, 120
10, 6532, Note_off_c, 9, 35, 124
10, 6624, Note_on_c, 9, 44, 116
10, 6628, Note_off_c, 9, 44, 116
10, 6720, Note_on_c, 9, 40, 124
10, 6720, Note_on_c, 9, 44, 120
10, 6720, Note_on_c, 9, 56, 124
10, 6720, Note_on_c, 9, 57, 11
10, 6724, Note_off_c, 9, 57, 17
10, 6724, Note_off_c, 9, 56, 124
10, 6724, Note_off_c, 9, 44, 120
10, 6724, Note_off_c, 9, 40, 124
10, 6816, Note_on_c, 9, 35, 124
10, 6816, Note_on_c, 9, 44, 108
10, 6820, Note_off_c, 9, 44, 108
10, 6820, Note_off_c, 9, 35, 124
10, 6912, Note_on_c, 9, 44, 120
10, 6912, Note_on_c, 9, 57, 11
10, 6916, Note_off_c, 9, 57, 17
10, 6916, Note_off_c, 9, 44, 120
10, 7680, Note_on_c, 9, 35, 124
10, 7680, Note_on_c, 9, 44, 124
10, 7680, Note_on_c, 9, 49, 55
10, 7680, Note_on_c, 9, 56, 109
10, 7680, Note_on_c, 9, 57, 11
10, 7684, Note_off_c, 9, 57, 17
10, 7684, Note_off_c, 9, 56, 109
10, 7684, Note_off_c, 9, 49, 85
10, 7684, Note_off_c, 9, 44, 124
10, 7684, Note_off_c, 9, 35, 124
10, 7776, Note_on_c, 9, 44, 72
10, 7780, Note_off_c, 9, 44, 72
10, 7872, Note_on_c, 9, 40, 124
10, 7872, Note_on_c, 9, 44, 124
10, 7872, Note_on_c, 9, 56, 124
10, 7872, Note_on_c, 9, 57, 11
10, 7876, Note_off_c, 9, 57, 17
10, 7876, Note_off_c, 9, 56, 124
10, 7876, Note_off_c, 9, 44, 124
10, 7876, Note_off_c, 9, 40, 124
10, 7968, Note_on_c, 9, 35, 124
10, 7968, Note_on_c, 9, 44, 112
10, 7972, Note_off_c, 9, 44, 112
10, 7972, Note_off_c, 9, 35, 124
10, 8064, Note_on_c, 9, 35, 116
10, 8064, Note_on_c, 9, 44, 124
10, 8064, Note_on_c, 9, 56, 109
10, 8064, Note_on_c, 9, 57, 11
10, 8068, Note_off_c, 9, 57, 17
10, 8068, Note_off_c, 9, 56, 109
10, 8068, Note_off_c, 9, 44, 124
10, 8068, Note_off_c, 9, 35, 116
10, 8160, Note_on_c, 9, 44, 116
10, 8164, Note_off_c, 9, 44, 116
10, 8256, Note_on_c, 9, 40, 124
10, 8256, Note_on_c, 9, 44, 124
10, 8256, Note_on_c, 9, 56, 116
10, 8256, Note_on_c, 9, 57, 11
10, 8260, Note_off_c, 9, 57, 17
10, 8260, Note_off_c, 9, 56, 116
10, 8260, Note_off_c, 9, 44, 124
10, 8260, Note_off_c, 9, 40, 124
10, 8352, Note_on_c, 9, 35, 124
10, 8352, Note_on_c, 9, 44, 112
10, 8356, Note_off_c, 9, 44, 112
10, 8356, Note_off_c, 9, 35, 124
10, 8448, Note_on_c, 9, 44, 124
10, 8448, Note_on_c, 9, 56, 116
10, 8448, Note_on_c, 9, 57, 11
10, 8452, Note_off_c, 9, 57, 17
10, 8452, Note_off_c, 9, 56, 116
10, 8452, Note_off_c, 9, 44, 124
10, 8544, Note_on_c, 9, 44, 112
10, 8548, Note_off_c, 9, 44, 112
10, 8640, Note_on_c, 9, 40, 124
10, 8640, Note_on_c, 9, 44, 108
10, 8640, Note_on_c, 9, 56, 124
10, 8640, Note_on_c, 9, 57, 11
10, 8644, Note_off_c, 9, 57, 17
10, 8644, Note_off_c, 9, 56, 124
10, 8644, Note_off_c, 9, 44, 108
10, 8644, Note_off_c, 9, 40, 124
10, 8736, Note_on_c, 9, 44, 100
10, 8740, Note_off_c, 9, 44, 100
10, 8832, Note_on_c, 9, 40, 124
10, 8832, Note_on_c, 9, 44, 120
10, 8832, Note_on_c, 9, 56, 124
10, 8832, Note_on_c, 9, 57, 11
10, 8836, Note_off_c, 9, 57, 17
10, 8836, Note_off_c, 9, 56, 124
10, 8836, Note_off_c, 9, 44, 120
10, 8836, Note_off_c, 9, 40, 124
10, 8928, Note_on_c, 9, 46, 96
10, 8932, Note_off_c, 9, 46, 124
10, 9024, Note_on_c, 9, 35, 124
10, 9024, Note_on_c, 9, 44, 116
10, 9024, Note_on_c, 9, 56, 124
10, 9024, Note_on_c, 9, 57, 11
10, 9028, Note_off_c, 9, 57, 17
10, 9028, Note_off_c, 9, 56, 124
10, 9028, Note_off_c, 9, 44, 116
10, 9028, Note_off_c, 9, 35, 124
10, 9120, Note_on_c, 9, 44, 104
10, 9124, Note_off_c, 9, 44, 104
10, 9216, Note_on_c, 9, 35, 124
10, 9216, Note_on_c, 9, 44, 124
10, 9216, Note_on_c, 9, 56, 124
10, 9216, Note_on_c, 9, 57, 11
10, 9220, Note_off_c, 9, 57, 17
10, 9220, Note_off_c, 9, 56, 124
10, 9220, Note_off_c, 9, 44, 124
10, 9220, Note_off_c, 9, 35, 124
10, 9312, Note_on_c, 9, 44, 112
10, 9316, Note_off_c, 9, 44, 112
10, 9408, Note_on_c, 9, 40, 124
10, 9408, Note_on_c, 9, 44, 124
10, 9408, Note_on_c, 9, 56, 124
10, 9408, Note_on_c, 9, 57, 11
10, 9412, Note_off_c, 9, 57, 17
10, 9412, Note_off_c, 9, 56, 124
10, 9412, Note_off_c, 9, 44, 124
10, 9412, Note_off_c, 9, 40, 124
10, 9504, Note_on_c, 9, 35, 116
10, 9504, Note_on_c, 9, 44, 108
10, 9508, Note_off_c, 9, 44, 108
10, 9508, Note_off_c, 9, 35, 116
10, 9600, Note_on_c, 9, 35, 124
10, 9600, Note_on_c, 9, 44, 120
10, 9600, Note_on_c, 9, 56, 116
10, 9600, Note_on_c, 9, 57, 11
10, 9604, Note_off_c, 9, 57, 17
10, 9604, Note_off_c, 9, 56, 116
10, 9604, Note_off_c, 9, 44, 120
10, 9604, Note_off_c, 9, 35, 124
10, 9696, Note_on_c, 9, 44, 116
10, 9700, Note_off_c, 9, 44, 116
10, 9792, Note_on_c, 9, 40, 124
10, 9792, Note_on_c, 9, 44, 120
10, 9792, Note_on_c, 9, 56, 124
10, 9792, Note_on_c, 9, 57, 11
10, 9796, Note_off_c, 9, 57, 17
10, 9796, Note_off_c, 9, 56, 124
10, 9796, Note_off_c, 9, 44, 120
10, 9796, Note_off_c, 9, 40, 124
10, 9888, Note_on_c, 9, 35, 124
10, 9888, Note_on_c, 9, 44, 108
10, 9892, Note_off_c, 9, 44, 108
10, 9892, Note_off_c, 9, 35, 124
10, 9984, Note_on_c, 9, 44, 120
10, 9984, Note_on_c, 9, 56, 116
10, 9984, Note_on_c, 9, 57, 11
10, 9988, Note_off_c, 9, 57, 17
10, 9988, Note_off_c, 9, 56, 116
10, 9988, Note_off_c, 9, 44, 120
10, 10080, Note_on_c, 9, 44, 112
10, 10084, Note_off_c, 9, 44, 112
10, 10176, Note_on_c, 9, 40, 124
10, 10176, Note_on_c, 9, 44, 120
10, 10176, Note_on_c, 9, 56, 124
10, 10176, Note_on_c, 9, 57, 11
10, 10180, Note_off_c, 9, 57, 17
10, 10180, Note_off_c, 9, 56, 124
10, 10180, Note_off_c, 9, 44, 120
10, 10180, Note_off_c, 9, 40, 124
10, 10272, Note_on_c, 9, 44, 108
10, 10276, Note_off_c, 9, 44, 108
10, 10368, Note_on_c, 9, 40, 124
10, 10368, Note_on_c, 9, 44, 112
10, 10368, Note_on_c, 9, 56, 124
10, 10368, Note_on_c, 9, 57, 11
10, 10372, Note_off_c, 9, 57, 17
10, 10372, Note_off_c, 9, 56, 124
10, 10372, Note_off_c, 9, 44, 112
10, 10372, Note_off_c, 9, 40, 124
10, 10464, Note_on_c, 9, 35, 90
10, 10464, Note_on_c, 9, 46, 90
10, 10468, Note_off_c, 9, 46, 116
10, 10468, Note_off_c, 9, 35, 90
10, 10560, Note_on_c, 9, 35, 124
10, 10560, Note_on_c, 9, 44, 120
10, 10560, Note_on_c, 9, 56, 124
10, 10560, Note_on_c, 9, 57, 11
10, 10564, Note_off_c, 9, 57, 17
10, 10564, Note_off_c, 9, 56, 124
10, 10564, Note_off_c, 9, 44, 120
10, 10564, Note_off_c, 9, 35, 124
10, 10656, Note_on_c, 9, 44, 124
10, 10660, Note_off_c, 9, 44, 124
10, 10752, Note_on_c, 9, 35, 100
10, 10752, Note_on_c, 9, 44, 84
10, 10752, Note_on_c, 9, 49, 55
10, 10752, Note_on_c, 9, 56, 124
10, 10752, Note_on_c, 9, 57, 11
10, 10756, Note_off_c, 9, 57, 17
10, 10756, Note_off_c, 9, 56, 124
10, 10756, Note_off_c, 9, 49, 85
10, 10756, Note_off_c, 9, 44, 84
10, 10756, Note_off_c, 9, 35, 100
10, 10848, Note_on_c, 9, 44, 72
10, 10852, Note_off_c, 9, 44, 72
10, 10944, Note_on_c, 9, 40, 108
10, 10944, Note_on_c, 9, 46, 59
10, 10944, Note_on_c, 9, 56, 124
10, 10944, Note_on_c, 9, 57, 11
10, 10948, Note_off_c, 9, 57, 17
10, 10948, Note_off_c, 9, 56, 124
10, 10948, Note_off_c, 9, 46, 76
10, 10948, Note_off_c, 9, 40, 108
10, 11040, Note_on_c, 9, 44, 44
10, 11044, Note_off_c, 9, 44, 44
10, 11136, Note_on_c, 9, 35, 96
10, 11136, Note_on_c, 9, 44, 72
10, 11136, Note_on_c, 9, 56, 116
10, 11136, Note_on_c, 9, 57, 11
10, 11140, Note_off_c, 9, 57, 17
10, 11140, Note_off_c, 9, 56, 116
10, 11140, Note_off_c, 9, 44, 72
10, 11140, Note_off_c, 9, 35, 96
10, 11232, Note_on_c, 9, 35, 96
10, 11232, Note_on_c, 9, 44, 72
10, 11236, Note_off_c, 9, 44, 72
10, 11236, Note_off_c, 9, 35, 96
10, 11328, Note_on_c, 9, 40, 108
10, 11328, Note_on_c, 9, 46, 59
10, 11328, Note_on_c, 9, 56, 124
10, 11328, Note_on_c, 9, 57, 11
10, 11332, Note_off_c, 9, 57, 17
10, 11332, Note_off_c, 9, 56, 124
10, 11332, Note_off_c, 9, 46, 76
10, 11332, Note_off_c, 9, 40, 108
10, 11424, Note_on_c, 9, 44, 64
10, 11428, Note_off_c, 9, 44, 64
10, 11520, Note_on_c, 9, 35, 96
10, 11520, Note_on_c, 9, 44, 80
10, 11520, Note_on_c, 9, 56, 116
10, 11520, Note_on_c, 9, 57, 11
10, 11524, Note_off_c, 9, 57, 17
10, 11524, Note_off_c, 9, 56, 116
10, 11524, Note_off_c, 9, 44, 80
10, 11524, Note_off_c, 9, 35, 96
10, 11616, Note_on_c, 9, 35, 92
10, 11616, Note_on_c, 9, 44, 52
10, 11620, Note_off_c, 9, 44, 52
10, 11620, Note_off_c, 9, 35, 92
10, 11712, Note_on_c, 9, 40, 104
10, 11712, Note_on_c, 9, 46, 59
10, 11712, Note_on_c, 9, 56, 124
10, 11712, Note_on_c, 9, 57, 11
10, 11716, Note_off_c, 9, 57, 17
10, 11716, Note_off_c, 9, 56, 124
10, 11716, Note_off_c, 9, 46, 76
10, 11716, Note_off_c, 9, 40, 104
10, 11808, Note_on_c, 9, 44, 60
10, 11812, Note_off_c, 9, 44, 60
10, 11904, Note_on_c, 9, 35, 96
10, 11904, Note_on_c, 9, 44, 76
10, 11904, Note_on_c, 9, 56, 124
10, 11904, Note_on_c, 9, 57, 11
10, 11908, Note_off_c, 9, 57, 17
10, 11908, Note_off_c, 9, 56, 124
10, 11908, Note_off_c, 9, 44, 76
10, 11908, Note_off_c, 9, 35, 96
10, 12000, Note_on_c, 9, 35, 96
10, 12000, Note_on_c, 9, 44, 68
10, 12004, Note_off_c, 9, 44, 68
10, 12004, Note_off_c, 9, 35, 96
10, 12096, Note_on_c, 9, 40, 100
10, 12096, Note_on_c, 9, 46, 65
10, 12096, Note_on_c, 9, 56, 124
10, 12096, Note_on_c, 9, 57, 11
10, 12100, Note_off_c, 9, 57, 17
10, 12100, Note_off_c, 9, 56, 124
10, 12100, Note_off_c, 9, 46, 84
10, 12100, Note_off_c, 9, 40, 100
10, 12192, Note_on_c, 9, 40, 100
10, 12196, Note_off_c, 9, 40, 100
10, 12240, Note_on_c, 9, 40, 92
10, 12244, Note_off_c, 9, 40, 92
10, 12288, Note_on_c, 9, 35, 124
10, 12288, Note_on_c, 9, 44, 124
10, 12288, Note_on_c, 9, 49, 55
10, 12288, Note_on_c, 9, 52, 47
10, 12288, Note_on_c, 9, 56, 109
10, 12292, Note_off_c, 9, 56, 109
10, 12292, Note_off_c, 9, 52, 47
10, 12292, Note_off_c, 9, 49, 85
10, 12292, Note_off_c, 9, 44, 124
10, 12292, Note_off_c, 9, 35, 124
10, 12384, Note_on_c, 9, 44, 72
10, 12388, Note_off_c, 9, 44, 72
10, 12480, Note_on_c, 9, 40, 124
10, 12480, Note_on_c, 9, 44, 124
10, 12480, Note_on_c, 9, 52, 47
10, 12480, Note_on_c, 9, 56, 124
10, 12484, Note_off_c, 9, 56, 124
10, 12484, Note_off_c, 9, 52, 47
10, 12484, Note_off_c, 9, 44, 124
10, 12484, Note_off_c, 9, 40, 124
10, 12576, Note_on_c, 9, 35, 124
10, 12576, Note_on_c, 9, 44, 112
10, 12580, Note_off_c, 9, 44, 112
10, 12580, Note_off_c, 9, 35, 124
10, 12672, Note_on_c, 9, 35, 116
10, 12672, Note_on_c, 9, 44, 124
10, 12672, Note_on_c, 9, 52, 47
10, 12672, Note_on_c, 9, 56, 109
10, 12676, Note_off_c, 9, 56, 109
10, 12676, Note_off_c, 9, 52, 47
10, 12676, Note_off_c, 9, 44, 124
10, 12676, Note_off_c, 9, 35, 116
10, 12768, Note_on_c, 9, 44, 116
10, 12772, Note_off_c, 9, 44, 116
10, 12864, Note_on_c, 9, 40, 124
10, 12864, Note_on_c, 9, 44, 124
10, 12864, Note_on_c, 9, 52, 47
10, 12864, Note_on_c, 9, 56, 116
10, 12868, Note_off_c, 9, 56, 116
10, 12868, Note_off_c, 9, 52, 47
10, 12868, Note_off_c, 9, 44, 124
10, 12868, Note_off_c, 9, 40, 124
10, 12960, Note_on_c, 9, 35, 124
10, 12960, Note_on_c, 9, 44, 112
10, 12964, Note_off_c, 9, 44, 112
10, 12964, Note_off_c, 9, 35, 124
10, 13056, Note_on_c, 9, 44, 124
10, 13056, Note_on_c, 9, 52, 47
10, 13056, Note_on_c, 9, 56, 116
10, 13060, Note_off_c, 9, 56, 116
10, 13060, Note_off_c, 9, 52, 47
10, 13060, Note_off_c, 9, 44, 124
10, 13152, Note_on_c, 9, 44, 112
10, 13156, Note_off_c, 9, 44, 112
10, 13248, Note_on_c, 9, 40, 124
10, 13248, Note_on_c, 9, 44, 108
10, 13248, Note_on_c, 9, 52, 47
10, 13248, Note_on_c, 9, 56, 124
10, 13252, Note_off_c, 9, 56, 124
10, 13252, Note_off_c, 9, 52, 47
10, 13252, Note_off_c, 9, 44, 108
10, 13252, Note_off_c, 9, 40, 124
10, 13344, Note_on_c, 9, 44, 100
10, 13348, Note_off_c, 9, 44, 100
10, 13440, Note_on_c, 9, 40, 124
10, 13440, Note_on_c, 9, 44, 120
10, 13440, Note_on_c, 9, 52, 47
10, 13440, Note_on_c, 9, 56, 124
10, 13444, Note_off_c, 9, 56, 124
10, 13444, Note_off_c, 9, 52, 47
10, 13444, Note_off_c, 9, 44, 120
10, 13444, Note_off_c, 9, 40, 124
10, 13536, Note_on_c, 9, 46, 96
10, 13540, Note_off_c, 9, 46, 124
10, 13632, Note_on_c, 9, 35, 124
10, 13632, Note_on_c, 9, 44, 116
10, 13632, Note_on_c, 9, 52, 47
10, 13632, Note_on_c, 9, 56, 124
10, 13636, Note_off_c, 9, 56, 124
10, 13636, Note_off_c, 9, 52, 47
10, 13636, Note_off_c, 9, 44, 116
10, 13636, Note_off_c, 9, 35, 124
10, 13728, Note_on_c, 9, 44, 104
10, 13732, Note_off_c, 9, 44, 104
10, 13824, Note_on_c, 9, 35, 124
10, 13824, Note_on_c, 9, 44, 124
10, 13824, Note_on_c, 9, 52, 47
10, 13824, Note_on_c, 9, 56, 124
10, 13828, Note_off_c, 9, 56, 124
10, 13828, Note_off_c, 9, 52, 47
10, 13828, Note_off_c, 9, 44, 124
10, 13828, Note_off_c, 9, 35, 124
10, 13920, Note_on_c, 9, 44, 112
10, 13924, Note_off_c, 9, 44, 112
10, 14016, Note_on_c, 9, 40, 124
10, 14016, Note_on_c, 9, 44, 124
10, 14016, Note_on_c, 9, 52, 47
10, 14016, Note_on_c, 9, 56, 124
10, 14020, Note_off_c, 9, 56, 124
10, 14020, Note_off_c, 9, 52, 47
10, 14020, Note_off_c, 9, 44, 124
10, 14020, Note_off_c, 9, 40, 124
10, 14112, Note_on_c, 9, 35, 116
10, 14112, Note_on_c, 9, 44, 108
10, 14116, Note_off_c, 9, 44, 108
10, 14116, Note_off_c, 9, 35, 116
10, 14208, Note_on_c, 9, 35, 124
10, 14208, Note_on_c, 9, 44, 120
10, 14208, Note_on_c, 9, 52, 47
10, 14208, Note_on_c, 9, 56, 116
10, 14212, Note_off_c, 9, 56, 116
10, 14212, Note_off_c, 9, 52, 47
10, 14212, Note_off_c, 9, 44, 120
10, 14212, Note_off_c, 9, 35, 124
10, 14304, Note_on_c, 9, 44, 116
10, 14308, Note_off_c, 9, 44, 116
10, 14400, Note_on_c, 9, 40, 124
10, 14400, Note_on_c, 9, 44, 120
10, 14400, Note_on_c, 9, 52, 47
10, 14400, Note_on_c, 9, 56, 124
10, 14404, Note_off_c, 9, 56, 124
10, 14404, Note_off_c, 9, 52, 47
10, 14404, Note_off_c, 9, 44, 120
10, 14404, Note_off_c, 9, 40, 124
10, 14496, Note_on_c, 9, 35, 124
10, 14496, Note_on_c, 9, 44, 108
10, 14500, Note_off_c, 9, 44, 108
10, 14500, Note_off_c, 9, 35, 124
10, 14592, Note_on_c, 9, 44, 120
10, 14592, Note_on_c, 9, 52, 47
10, 14592, Note_on_c, 9, 56, 116
10, 14596, Note_off_c, 9, 56, 116
10, 14596, Note_off_c, 9, 52, 47
10, 14596, Note_off_c, 9, 44, 120
10, 14688, Note_on_c, 9, 44, 112
10, 14692, Note_off_c, 9, 44, 112
10, 14784, Note_on_c, 9, 40, 124
10, 14784, Note_on_c, 9, 44, 120
10, 14784, Note_on_c, 9, 52, 47
10, 14784, Note_on_c, 9, 56, 124
10, 14788, Note_off_c, 9, 56, 124
10, 14788, Note_off_c, 9, 52, 47
10, 14788, Note_off_c, 9, 44, 120
10, 14788, Note_off_c, 9, 40, 124
10, 14880, Note_on_c, 9, 44, 108
10, 14884, Note_off_c, 9, 44, 108
10, 14976, Note_on_c, 9, 40, 124
10, 14976, Note_on_c, 9, 44, 112
10, 14976, Note_on_c, 9, 52, 47
10, 14976, Note_on_c, 9, 56, 124
10, 14980, Note_off_c, 9, 56, 124
10, 14980, Note_off_c, 9, 52, 47
10, 14980, Note_off_c, 9, 44, 112
10, 14980, Note_off_c, 9, 40, 124
10, 15072, Note_on_c, 9, 35, 90
10, 15072, Note_on_c, 9, 46, 90
10, 15076, Note_off_c, 9, 46, 116
10, 15076, Note_off_c, 9, 35, 90
10, 15168, Note_on_c, 9, 35, 124
10, 15168, Note_on_c, 9, 44, 120
10, 15168, Note_on_c, 9, 52, 47
10, 15168, Note_on_c, 9, 56, 124
10, 15172, Note_off_c, 9, 56, 124
10, 15172, Note_off_c, 9, 52, 47
10, 15172, Note_off_c, 9, 44, 120
10, 15172, Note_off_c, 9, 35, 124
10, 15264, Note_on_c, 9, 44, 124
10, 15268, Note_off_c, 9, 44, 124
10, 15360, Note_on_c, 9, 35, 124
10, 15360, Note_on_c, 9, 44, 124
10, 15360, Note_on_c, 9, 52, 47
10, 15360, Note_on_c, 9, 56, 124
10, 15364, Note_off_c, 9, 56, 124
10, 15364, Note_off_c, 9, 52, 47
10, 15364, Note_off_c, 9, 44, 124
10, 15364, Note_off_c, 9, 35, 124
10, 15456, Note_on_c, 9, 44, 112
10, 15460, Note_off_c, 9, 44, 112
10, 15552, Note_on_c, 9, 40, 124
10, 15552, Note_on_c, 9, 44, 124
10, 15552, Note_on_c, 9, 52, 47
10, 15552, Note_on_c, 9, 56, 124
10, 15556, Note_off_c, 9, 56, 124
10, 15556, Note_off_c, 9, 52, 47
10, 15556, Note_off_c, 9, 44, 124
10, 15556, Note_off_c, 9, 40, 124
10, 15648, Note_on_c, 9, 35, 116
10, 15648, Note_on_c, 9, 44, 108
10, 15652, Note_off_c, 9, 44, 108
10, 15652, Note_off_c, 9, 35, 116
10, 15744, Note_on_c, 9, 35, 124
10, 15744, Note_on_c, 9, 44, 120
10, 15744, Note_on_c, 9, 52, 47
10, 15744, Note_on_c, 9, 56, 116
10, 15748, Note_off_c, 9, 56, 116
10, 15748, Note_off_c, 9, 52, 47
10, 15748, Note_off_c, 9, 44, 120
10, 15748, Note_off_c, 9, 35, 124
10, 15840, Note_on_c, 9, 44, 116
10, 15844, Note_off_c, 9, 44, 116
10, 15936, Note_on_c, 9, 40, 124
10, 15936, Note_on_c, 9, 44, 120
10, 15936, Note_on_c, 9, 52, 47
10, 15936, Note_on_c, 9, 56, 124
10, 15940, Note_off_c, 9, 56, 124
10, 15940, Note_off_c, 9, 52, 47
10, 15940, Note_off_c, 9, 44, 120
10, 15940, Note_off_c, 9, 40, 124
10, 16032, Note_on_c, 9, 35, 124
10, 16032, Note_on_c, 9, 44, 108
10, 16036, Note_off_c, 9, 44, 108
10, 16036, Note_off_c, 9, 35, 124
10, 16128, Note_on_c, 9, 44, 120
10, 16128, Note_on_c, 9, 52, 47
10, 16128, Note_on_c, 9, 56, 116
10, 16132, Note_off_c, 9, 56, 116
10, 16132, Note_off_c, 9, 52, 47
10, 16132, Note_off_c, 9, 44, 120
10, 16224, Note_on_c, 9, 44, 112
10, 16228, Note_off_c, 9, 44, 112
10, 16320, Note_on_c, 9, 40, 124
10, 16320, Note_on_c, 9, 44, 120
10, 16320, Note_on_c, 9, 52, 47
10, 16320, Note_on_c, 9, 56, 124
10, 16324, Note_off_c, 9, 56, 124
10, 16324, Note_off_c, 9, 52, 47
10, 16324, Note_off_c, 9, 44, 120
10, 16324, Note_off_c, 9, 40, 124
10, 16416, Note_on_c, 9, 44, 108
10, 16420, Note_off_c, 9, 44, 108
10, 16512, Note_on_c, 9, 40, 124
10, 16512, Note_on_c, 9, 44, 112
10, 16512, Note_on_c, 9, 52, 47
10, 16512, Note_on_c, 9, 56, 124
10, 16516, Note_off_c, 9, 56, 124
10, 16516, Note_off_c, 9, 52, 47
10, 16516, Note_off_c, 9, 44, 112
10, 16516, Note_off_c, 9, 40, 124
10, 16608, Note_on_c, 9, 35, 90
10, 16608, Note_on_c, 9, 46, 90
10, 16612, Note_off_c, 9, 46, 116
10, 16612, Note_off_c, 9, 35, 90
10, 16704, Note_on_c, 9, 35, 124
10, 16704, Note_on_c, 9, 44, 120
10, 16704, Note_on_c, 9, 52, 47
10, 16704, Note_on_c, 9, 56, 124
10, 16708, Note_off_c, 9, 56, 124
10, 16708, Note_off_c, 9, 52, 47
10, 16708, Note_off_c, 9, 44, 120
10, 16708, Note_off_c, 9, 35, 124
10, 16800, Note_on_c, 9, 44, 124
10, 16804, Note_off_c, 9, 44, 124
10, 16896, Note_on_c, 9, 35, 124
10, 16900, Note_off_c, 9, 35, 124
10, 17568, Note_on_c, 9, 49, 70
10, 17568, Note_on_c, 9, 52, 109
10, 17572, Note_off_c, 9, 52, 109
10, 17572, Note_off_c, 9, 49, 109
10, 18999, Note_on_c, 9, 40, 63
10, 19003, Note_off_c, 9, 40, 63
10, 19008, Note_on_c, 9, 40, 126
10, 19012, Note_off_c, 9, 40, 126
10, 19200, Note_on_c, 9, 35, 124
10, 19200, Note_on_c, 9, 44, 124
10, 19200, Note_on_c, 9, 49, 55
10, 19200, Note_on_c, 9, 52, 47
10, 19200, Note_on_c, 9, 56, 109
10, 19204, Note_off_c, 9, 56, 109
10, 19204, Note_off_c, 9, 52, 47
10, 19204, Note_off_c, 9, 49, 85
10, 19204, Note_off_c, 9, 44, 124
10, 19204, Note_off_c, 9, 35, 124
10, 19296, Note_on_c, 9, 44, 72
10, 19300, Note_off_c, 9, 44, 72
10, 19392, Note_on_c, 9, 40, 124
10, 19392, Note_on_c, 9, 44, 124
10, 19392, Note_on_c, 9, 52, 47
10, 19392, Note_on_c, 9, 56, 124
10, 19396, Note_off_c, 9, 56, 124
10, 19396, Note_off_c, 9, 52, 47
10, 19396, Note_off_c, 9, 44, 124
10, 19396, Note_off_c, 9, 40, 124
10, 19488, Note_on_c, 9, 35, 124
10, 19488, Note_on_c, 9, 44, 112
10, 19492, Note_off_c, 9, 44, 112
10, 19492, Note_off_c, 9, 35, 124
10, 19584, Note_on_c, 9, 35, 116
10, 19584, Note_on_c, 9, 44, 124
10, 19584, Note_on_c, 9, 52, 47
10, 19584, Note_on_c, 9, 56, 109
10, 19588, Note_off_c, 9, 56, 109
10, 19588, Note_off_c, 9, 52, 47
10, 19588, Note_off_c, 9, 44, 124
10, 19588, Note_off_c, 9, 35, 116
10, 19680, Note_on_c, 9, 44, 116
10, 19684, Note_off_c, 9, 44, 116
10, 19776, Note_on_c, 9, 40, 124
10, 19776, Note_on_c, 9, 44, 124
10, 19776, Note_on_c, 9, 52, 47
10, 19776, Note_on_c, 9, 56, 116
10, 19780, Note_off_c, 9, 56, 116
10, 19780, Note_off_c, 9, 52, 47
10, 19780, Note_off_c, 9, 44, 124
10, 19780, Note_off_c, 9, 40, 124
10, 19872, Note_on_c, 9, 35, 124
10, 19872, Note_on_c, 9, 44, 112
10, 19876, Note_off_c, 9, 44, 112
10, 19876, Note_off_c, 9, 35, 124
10, 19968, Note_on_c, 9, 44, 124
10, 19968, Note_on_c, 9, 52, 47
10, 19968, Note_on_c, 9, 56, 116
10, 19972, Note_off_c, 9, 56, 116
10, 19972, Note_off_c, 9, 52, 47
10, 19972, Note_off_c, 9, 44, 124
10, 20064, Note_on_c, 9, 44, 112
10, 20068, Note_off_c, 9, 44, 112
10, 20160, Note_on_c, 9, 40, 124
10, 20160, Note_on_c, 9, 44, 108
10, 20160, Note_on_c, 9, 52, 47
10, 20160, Note_on_c, 9, 56, 124
10, 20164, Note_off_c, 9, 56, 124
10, 20164, Note_off_c, 9, 52, 47
10, 20164, Note_off_c, 9, 44, 108
10, 20164, Note_off_c, 9, 40, 124
10, 20256, Note_on_c, 9, 44, 100
10, 20260, Note_off_c, 9, 44, 100
10, 20352, Note_on_c, 9, 40, 124
10, 20352, Note_on_c, 9, 44, 120
10, 20352, Note_on_c, 9, 52, 47
10, 20352, Note_on_c, 9, 56, 124
10, 20356, Note_off_c, 9, 56, 124
10, 20356, Note_off_c, 9, 52, 47
10, 20356, Note_off_c, 9, 44, 120
10, 20356, Note_off_c, 9, 40, 124
10, 20448, Note_on_c, 9, 46, 96
10, 20452, Note_off_c, 9, 46, 124
10, 20544, Note_on_c, 9, 35, 124
10, 20544, Note_on_c, 9, 44, 116
10, 20544, Note_on_c, 9, 52, 47
10, 20544, Note_on_c, 9, 56, 124
10, 20548, Note_off_c, 9, 56, 124
10, 20548, Note_off_c, 9, 52, 47
10, 20548, Note_off_c, 9, 44, 116
10, 20548, Note_off_c, 9, 35, 124
10, 20640, Note_on_c, 9, 44, 104
10, 20644, Note_off_c, 9, 44, 104
10, 20736, Note_on_c, 9, 35, 124
10, 20736, Note_on_c, 9, 44, 124
10, 20736, Note_on_c, 9, 52, 47
10, 20736, Note_on_c, 9, 56, 124
10, 20740, Note_off_c, 9, 56, 124
10, 20740, Note_off_c, 9, 52, 47
10, 20740, Note_off_c, 9, 44, 124
10, 20740, Note_off_c, 9, 35, 124
10, 20832, Note_on_c, 9, 44, 112
10, 20836, Note_off_c, 9, 44, 112
10, 20928, Note_on_c, 9, 40, 124
10, 20928, Note_on_c, 9, 44, 124
10, 20928, Note_on_c, 9, 52, 47
10, 20928, Note_on_c, 9, 56, 124
10, 20932, Note_off_c, 9, 56, 124
10, 20932, Note_off_c, 9, 52, 47
10, 20932, Note_off_c, 9, 44, 124
10, 20932, Note_off_c, 9, 40, 124
10, 21024, Note_on_c, 9, 35, 116
10, 21024, Note_on_c, 9, 44, 108
10, 21028, Note_off_c, 9, 44, 108
10, 21028, Note_off_c, 9, 35, 116
10, 21120, Note_on_c, 9, 35, 124
10, 21120, Note_on_c, 9, 44, 120
10, 21120, Note_on_c, 9, 52, 47
10, 21120, Note_on_c, 9, 56, 116
10, 21124, Note_off_c, 9, 56, 116
10, 21124, Note_off_c, 9, 52, 47
10, 21124, Note_off_c, 9, 44, 120
10, 21124, Note_off_c, 9, 35, 124
10, 21216, Note_on_c, 9, 44, 116
10, 21220, Note_off_c, 9, 44, 116
10, 21312, Note_on_c, 9, 40, 124
10, 21312, Note_on_c, 9, 44, 120
10, 21312, Note_on_c, 9, 52, 47
10, 21312, Note_on_c, 9, 56, 124
10, 21316, Note_off_c, 9, 56, 124
10, 21316, Note_off_c, 9, 52, 47
10, 21316, Note_off_c, 9, 44, 120
10, 21316, Note_off_c, 9, 40, 124
10, 21408, Note_on_c, 9, 35, 124
10, 21408, Note_on_c, 9, 44, 108
10, 21412, Note_off_c, 9, 44, 108
10, 21412, Note_off_c, 9, 35, 124
10, 21504, Note_on_c, 9, 44, 120
10, 21504, Note_on_c, 9, 52, 47
10, 21504, Note_on_c, 9, 56, 116
10, 21508, Note_off_c, 9, 56, 116
10, 21508, Note_off_c, 9, 52, 47
10, 21508, Note_off_c, 9, 44, 120
10, 21600, Note_on_c, 9, 44, 112
10, 21604, Note_off_c, 9, 44, 112
10, 21696, Note_on_c, 9, 40, 124
10, 21696, Note_on_c, 9, 44, 120
10, 21696, Note_on_c, 9, 52, 47
10, 21696, Note_on_c, 9, 56, 124
10, 21700, Note_off_c, 9, 56, 124
10, 21700, Note_off_c, 9, 52, 47
10, 21700, Note_off_c, 9, 44, 120
10, 21700, Note_off_c, 9, 40, 124
10, 21792, Note_on_c, 9, 44, 108
10, 21796, Note_off_c, 9, 44, 108
10, 21888, Note_on_c, 9, 40, 124
10, 21888, Note_on_c, 9, 44, 112
10, 21888, Note_on_c, 9, 52, 47
10, 21888, Note_on_c, 9, 56, 124
10, 21892, Note_off_c, 9, 56, 124
10, 21892, Note_off_c, 9, 52, 47
10, 21892, Note_off_c, 9, 44, 112
10, 21892, Note_off_c, 9, 40, 124
10, 21984, Note_on_c, 9, 35, 90
10, 21984, Note_on_c, 9, 46, 90
10, 21988, Note_off_c, 9, 46, 116
10, 21988, Note_off_c, 9, 35, 90
10, 22080, Note_on_c, 9, 35, 124
10, 22080, Note_on_c, 9, 44, 120
10, 22080, Note_on_c, 9, 52, 47
10, 22080, Note_on_c, 9, 56, 124
10, 22084, Note_off_c, 9, 56, 124
10, 22084, Note_off_c, 9, 52, 47
10, 22084, Note_off_c, 9, 44, 120
10, 22084, Note_off_c, 9, 35, 124
10, 22176, Note_on_c, 9, 44, 124
10, 22180, Note_off_c, 9, 44, 124
10, 22272, Note_on_c, 9, 35, 124
10, 22272, Note_on_c, 9, 44, 124
10, 22272, Note_on_c, 9, 49, 55
10, 22272, Note_on_c, 9, 52, 47
10, 22272, Note_on_c, 9, 56, 109
10, 22276, Note_off_c, 9, 56, 109
10, 22276, Note_off_c, 9, 52, 47
10, 22276, Note_off_c, 9, 49, 85
10, 22276, Note_off_c, 9, 44, 124
10, 22276, Note_off_c, 9, 35, 124
10, 22368, Note_on_c, 9, 44, 72
10, 22372, Note_off_c, 9, 44, 72
10, 22464, Note_on_c, 9, 40, 124
10, 22464, Note_on_c, 9, 44, 124
10, 22464, Note_on_c, 9, 52, 47
10, 22464, Note_on_c, 9, 56, 124
10, 22468, Note_off_c, 9, 56, 124
10, 22468, Note_off_c, 9, 52, 47
10, 22468, Note_off_c, 9, 44, 124
10, 22468, Note_off_c, 9, 40, 124
10, 22560, Note_on_c, 9, 35, 124
10, 22560, Note_on_c, 9, 44, 112
10, 22564, Note_off_c, 9, 44, 112
10, 22564, Note_off_c, 9, 35, 124
10, 22656, Note_on_c, 9, 35, 116
10, 22656, Note_on_c, 9, 44, 124
10, 22656, Note_on_c, 9, 52, 47
10, 22656, Note_on_c, 9, 56, 109
10, 22660, Note_off_c, 9, 56, 109
10, 22660, Note_off_c, 9, 52, 47
10, 22660, Note_off_c, 9, 44, 124
10, 22660, Note_off_c, 9, 35, 116
10, 22752, Note_on_c, 9, 44, 116
10, 22756, Note_off_c, 9, 44, 116
10, 22848, Note_on_c, 9, 40, 124
10, 22848, Note_on_c, 9, 44, 124
10, 22848, Note_on_c, 9, 52, 47
10, 22848, Note_on_c, 9, 56, 116
10, 22852, Note_off_c, 9, 56, 116
10, 22852, Note_off_c, 9, 52, 47
10, 22852, Note_off_c, 9, 44, 124
10, 22852, Note_off_c, 9, 40, 124
10, 22944, Note_on_c, 9, 35, 124
10, 22944, Note_on_c, 9, 44, 112
10, 22948, Note_off_c, 9, 44, 112
10, 22948, Note_off_c, 9, 35, 124
10, 23040, Note_on_c, 9, 44, 124
10, 23040, Note_on_c, 9, 52, 47
10, 23040, Note_on_c, 9, 56, 116
10, 23044, Note_off_c, 9, 56, 116
10, 23044, Note_off_c, 9, 52, 47
10, 23044, Note_off_c, 9, 44, 124
10, 23136, Note_on_c, 9, 44, 112
10, 23140, Note_off_c, 9, 44, 112
10, 23232, Note_on_c, 9, 40, 124
10, 23232, Note_on_c, 9, 44, 108
10, 23232, Note_on_c, 9, 52, 47
10, 23232, Note_on_c, 9, 56, 124
10, 23236, Note_off_c, 9, 56, 124
10, 23236, Note_off_c, 9, 52, 47
10, 23236, Note_off_c, 9, 44, 108
10, 23236, Note_off_c, 9, 40, 124
10, 23328, Note_on_c, 9, 44, 100
10, 23332, Note_off_c, 9, 44, 100
10, 23424, Note_on_c, 9, 40, 124
10, 23424, Note_on_c, 9, 44, 120
10, 23424, Note_on_c, 9, 52, 47
10, 23424, Note_on_c, 9, 56, 124
10, 23428, Note_off_c, 9, 56, 124
10, 23428, Note_off_c, 9, 52, 47
10, 23428, Note_off_c, 9, 44, 120
10, 23428, Note_off_c, 9, 40, 124
10, 23520, Note_on_c, 9, 46, 96
10, 23524, Note_off_c, 9, 46, 124
10, 23616, Note_on_c, 9, 35, 124
10, 23616, Note_on_c, 9, 44, 116
10, 23616, Note_on_c, 9, 52, 47
10, 23616, Note_on_c, 9, 56, 124
10, 23620, Note_off_c, 9, 56, 124
10, 23620, Note_off_c, 9, 52, 47
10, 23620, Note_off_c, 9, 44, 116
10, 23620, Note_off_c, 9, 35, 124
10, 23712, Note_on_c, 9, 44, 104
10, 23716, Note_off_c, 9, 44, 104
10, 23808, Note_on_c, 9, 35, 124
10, 23808, Note_on_c, 9, 44, 124
10, 23808, Note_on_c, 9, 52, 47
10, 23808, Note_on_c, 9, 56, 124
10, 23812, Note_off_c, 9, 56, 124
10, 23812, Note_off_c, 9, 52, 47
10, 23812, Note_off_c, 9, 44, 124
10, 23812, Note_off_c, 9, 35, 124
10, 23904, Note_on_c, 9, 44, 112
10, 23908, Note_off_c, 9, 44, 112
10, 24000, Note_on_c, 9, 40, 124
10, 24000, Note_on_c, 9, 44, 124
10, 24000, Note_on_c, 9, 52, 47
10, 24000, Note_on_c, 9, 56, 124
10, 24004, Note_off_c, 9, 56, 124
10, 24004, Note_off_c, 9, 52, 47
10, 24004, Note_off_c, 9, 44, 124
10, 24004, Note_off_c, 9, 40, 124
10, 24096, Note_on_c, 9, 35, 116
10, 24096, Note_on_c, 9, 44, 108
10, 24100, Note_off_c, 9, 44, 108
10, 24100, Note_off_c, 9, 35, 116
10, 24192, Note_on_c, 9, 35, 124
10, 24192, Note_on_c, 9, 44, 120
10, 24192, Note_on_c, 9, 52, 47
10, 24192, Note_on_c, 9, 56, 116
10, 24196, Note_off_c, 9, 56, 116
10, 24196, Note_off_c, 9, 52, 47
10, 24196, Note_off_c, 9, 44, 120
10, 24196, Note_off_c, 9, 35, 124
10, 24288, Note_on_c, 9, 44, 116
10, 24292, Note_off_c, 9, 44, 116
10, 24384, Note_on_c, 9, 40, 124
10, 24384, Note_on_c, 9, 44, 120
10, 24384, Note_on_c, 9, 52, 47
10, 24384, Note_on_c, 9, 56, 124
10, 24388, Note_off_c, 9, 56, 124
10, 24388, Note_off_c, 9, 52, 47
10, 24388, Note_off_c, 9, 44, 120
10, 24388, Note_off_c, 9, 40, 124
10, 24480, Note_on_c, 9, 35, 124
10, 24480, Note_on_c, 9, 44, 108
10, 24484, Note_off_c, 9, 44, 108
10, 24484, Note_off_c, 9, 35, 124
10, 24576, Note_on_c, 9, 44, 120
10, 24576, Note_on_c, 9, 52, 47
10, 24576, Note_on_c, 9, 56, 116
10, 24580, Note_off_c, 9, 56, 116
10, 24580, Note_off_c, 9, 52, 47
10, 24580, Note_off_c, 9, 44, 120
10, 24672, Note_on_c, 9, 44, 112
10, 24676, Note_off_c, 9, 44, 112
10, 24768, Note_on_c, 9, 40, 124
10, 24768, Note_on_c, 9, 44, 120
10, 24768, Note_on_c, 9, 52, 47
10, 24768, Note_on_c, 9, 56, 124
10, 24772, Note_off_c, 9, 56, 124
10, 24772, Note_off_c, 9, 52, 47
10, 24772, Note_off_c, 9, 44, 120
10, 24772, Note_off_c, 9, 40, 124
10, 24864, Note_on_c, 9, 44, 108
10, 24868, Note_off_c, 9, 44, 108
10, 24960, Note_on_c, 9, 40, 124
10, 24960, Note_on_c, 9, 44, 112
10, 24960, Note_on_c, 9, 52, 47
10, 24960, Note_on_c, 9, 56, 124
10, 24964, Note_off_c, 9, 56, 124
10, 24964, Note_off_c, 9, 52, 47
10, 24964, Note_off_c, 9, 44, 112
10, 24964, Note_off_c, 9, 40, 124
10, 25056, Note_on_c, 9, 46, 90
10, 25060, Note_off_c, 9, 46, 116
10, 25152, Note_on_c, 9, 52, 47
10, 25156, Note_off_c, 9, 52, 47
10, 25248, Note_on_c, 9, 35, 124
10, 25252, Note_off_c, 9, 35, 124
10, 25344, Note_on_c, 9, 35, 100
10, 25344, Note_on_c, 9, 44, 84
10, 25344, Note_on_c, 9, 49, 55
10, 25344, Note_on_c, 9, 56, 124
10, 25344, Note_on_c, 9, 57, 11
10, 25348, Note_off_c, 9, 57, 17
10, 25348, Note_off_c, 9, 56, 124
10, 25348, Note_off_c, 9, 49, 85
10, 25348, Note_off_c, 9, 44, 84
10, 25348, Note_off_c, 9, 35, 100
10, 25440, Note_on_c, 9, 44, 72
10, 25444, Note_off_c, 9, 44, 72
10, 25536, Note_on_c, 9, 40, 108
10, 25536, Note_on_c, 9, 46, 59
10, 25536, Note_on_c, 9, 56, 124
10, 25536, Note_on_c, 9, 57, 11
10, 25540, Note_off_c, 9, 57, 17
10, 25540, Note_off_c, 9, 56, 124
10, 25540, Note_off_c, 9, 46, 76
10, 25540, Note_off_c, 9, 40, 108
10, 25632, Note_on_c, 9, 44, 44
10, 25636, Note_off_c, 9, 44, 44
10, 25728, Note_on_c, 9, 35, 96
10, 25728, Note_on_c, 9, 44, 72
10, 25728, Note_on_c, 9, 56, 116
10, 25728, Note_on_c, 9, 57, 11
10, 25732, Note_off_c, 9, 57, 17
10, 25732, Note_off_c, 9, 56, 116
10, 25732, Note_off_c, 9, 44, 72
10, 25732, Note_off_c, 9, 35, 96
10, 25824, Note_on_c, 9, 35, 96
10, 25824, Note_on_c, 9, 44, 72
10, 25828, Note_off_c, 9, 44, 72
10, 25828, Note_off_c, 9, 35, 96
10, 25920, Note_on_c, 9, 40, 108
10, 25920, Note_on_c, 9, 46, 59
10, 25920, Note_on_c, 9, 56, 124
10, 25920, Note_on_c, 9, 57, 11
10, 25924, Note_off_c, 9, 57, 17
10, 25924, Note_off_c, 9, 56, 124
10, 25924, Note_off_c, 9, 46, 76
10, 25924, Note_off_c, 9, 40, 108
10, 26016, Note_on_c, 9, 44, 64
10, 26020, Note_off_c, 9, 44, 64
10, 26112, Note_on_c, 9, 35, 96
10, 26112, Note_on_c, 9, 44, 80
10, 26112, Note_on_c, 9, 56, 116
10, 26112, Note_on_c, 9, 57, 11
10, 26116, Note_off_c, 9, 57, 17
10, 26116, Note_off_c, 9, 56, 116
10, 26116, Note_off_c, 9, 44, 80
10, 26116, Note_off_c, 9, 35, 96
10, 26208, Note_on_c, 9, 35, 92
10, 26208, Note_on_c, 9, 44, 52
10, 26212, Note_off_c, 9, 44, 52
10, 26212, Note_off_c, 9, 35, 92
10, 26304, Note_on_c, 9, 40, 104
10, 26304, Note_on_c, 9, 46, 59
10, 26304, Note_on_c, 9, 56, 124
10, 26304, Note_on_c, 9, 57, 11
10, 26308, Note_off_c, 9, 57, 17
10, 26308, Note_off_c, 9, 56, 124
10, 26308, Note_off_c, 9, 46, 76
10, 26308, Note_off_c, 9, 40, 104
10, 26400, Note_on_c, 9, 44, 60
10, 26404, Note_off_c, 9, 44, 60
10, 26496, Note_on_c, 9, 35, 96
10, 26496, Note_on_c, 9, 44, 76
10, 26496, Note_on_c, 9, 56, 124
10, 26496, Note_on_c, 9, 57, 11
10, 26500, Note_off_c, 9, 57, 17
10, 26500, Note_off_c, 9, 56, 124
10, 26500, Note_off_c, 9, 44, 76
10, 26500, Note_off_c, 9, 35, 96
10, 26592, Note_on_c, 9, 35, 96
10, 26592, Note_on_c, 9, 44, 68
10, 26596, Note_off_c, 9, 44, 68
10, 26596, Note_off_c, 9, 35, 96
10, 26688, Note_on_c, 9, 40, 100
10, 26688, Note_on_c, 9, 46, 65
10, 26688, Note_on_c, 9, 56, 124
10, 26688, Note_on_c, 9, 57, 11
10, 26692, Note_off_c, 9, 57, 17
10, 26692, Note_off_c, 9, 56, 124
10, 26692, Note_off_c, 9, 46, 84
10, 26692, Note_off_c, 9, 40, 100
10, 26784, Note_on_c, 9, 40, 100
10, 26788, Note_off_c, 9, 40, 100
10, 26832, Note_on_c, 9, 40, 92
10, 26836, Note_off_c, 9, 40, 92
10, 26880, Note_on_c, 9, 35, 124
10, 26880, Note_on_c, 9, 44, 124
10, 26880, Note_on_c, 9, 49, 55
10, 26880, Note_on_c, 9, 52, 47
10, 26880, Note_on_c, 9, 56, 109
10, 26884, Note_off_c, 9, 56, 109
10, 26884, Note_off_c, 9, 52, 47
10, 26884, Note_off_c, 9, 49, 85
10, 26884, Note_off_c, 9, 44, 124
10, 26884, Note_off_c, 9, 35, 124
10, 26976, Note_on_c, 9, 44, 72
10, 26980, Note_off_c, 9, 44, 72
10, 27072, Note_on_c, 9, 40, 124
10, 27072, Note_on_c, 9, 44, 124
10, 27072, Note_on_c, 9, 52, 47
10, 27072, Note_on_c, 9, 56, 124
10, 27076, Note_off_c, 9, 56, 124
10, 27076, Note_off_c, 9, 52, 47
10, 27076, Note_off_c, 9, 44, 124
10, 27076, Note_off_c, 9, 40, 124
10, 27168, Note_on_c, 9, 35, 124
10, 27168, Note_on_c, 9, 44, 112
10, 27172, Note_off_c, 9, 44, 112
10, 27172, Note_off_c, 9, 35, 124
10, 27264, Note_on_c, 9, 35, 116
10, 27264, Note_on_c, 9, 44, 124
10, 27264, Note_on_c, 9, 52, 47
10, 27264, Note_on_c, 9, 56, 109
10, 27268, Note_off_c, 9, 56, 109
10, 27268, Note_off_c, 9, 52, 47
10, 27268, Note_off_c, 9, 44, 124
10, 27268, Note_off_c, 9, 35, 116
10, 27360, Note_on_c, 9, 44, 116
10, 27364, Note_off_c, 9, 44, 116
10, 27456, Note_on_c, 9, 40, 124
10, 27456, Note_on_c, 9, 44, 124
10, 27456, Note_on_c, 9, 52, 47
10, 27456, Note_on_c, 9, 56, 116
10, 27460, Note_off_c, 9, 56, 116
10, 27460, Note_off_c, 9, 52, 47
10, 27460, Note_off_c, 9, 44, 124
10, 27460, Note_off_c, 9, 40, 124
10, 27552, Note_on_c, 9, 35, 124
10, 27552, Note_on_c, 9, 44, 112
10, 27556, Note_off_c, 9, 44, 112
10, 27556, Note_off_c, 9, 35, 124
10, 27648, Note_on_c, 9, 44, 124
10, 27648, Note_on_c, 9, 52, 47
10, 27648, Note_on_c, 9, 56, 116
10, 27652, Note_off_c, 9, 56, 116
10, 27652, Note_off_c, 9, 52, 47
10, 27652, Note_off_c, 9, 44, 124
10, 27744, Note_on_c, 9, 44, 112
10, 27748, Note_off_c, 9, 44, 112
10, 27840, Note_on_c, 9, 40, 124
10, 27840, Note_on_c, 9, 44, 108
10, 27840, Note_on_c, 9, 52, 47
10, 27840, Note_on_c, 9, 56, 124
10, 27844, Note_off_c, 9, 56, 124
10, 27844, Note_off_c, 9, 52, 47
10, 27844, Note_off_c, 9, 44, 108
10, 27844, Note_off_c, 9, 40, 124
10, 27936, Note_on_c, 9, 44, 100
10, 27940, Note_off_c, 9, 44, 100
10, 28032, Note_on_c, 9, 40, 124
10, 28032, Note_on_c, 9, 44, 120
10, 28032, Note_on_c, 9, 52, 47
10, 28032, Note_on_c, 9, 56, 124
10, 28036, Note_off_c, 9, 56, 124
10, 28036, Note_off_c, 9, 52, 47
10, 28036, Note_off_c, 9, 44, 120
10, 28036, Note_off_c, 9, 40, 124
10, 28128, Note_on_c, 9, 46, 96
10, 28132, Note_off_c, 9, 46, 124
10, 28224, Note_on_c, 9, 35, 124
10, 28224, Note_on_c, 9, 44, 116
10, 28224, Note_on_c, 9, 52, 47
10, 28224, Note_on_c, 9, 56, 124
10, 28228, Note_off_c, 9, 56, 124
10, 28228, Note_off_c, 9, 52, 47
10, 28228, Note_off_c, 9, 44, 116
10, 28228, Note_off_c, 9, 35, 124
10, 28320, Note_on_c, 9, 44, 104
10, 28324, Note_off_c, 9, 44, 104
10, 28416, Note_on_c, 9, 35, 124
10, 28416, Note_on_c, 9, 44, 124
10, 28416, Note_on_c, 9, 49, 55
10, 28416, Note_on_c, 9, 52, 47
10, 28416, Note_on_c, 9, 56, 124
10, 28420, Note_off_c, 9, 56, 124
10, 28420, Note_off_c, 9, 52, 47
10, 28420, Note_off_c, 9, 49, 85
10, 28420, Note_off_c, 9, 44, 124
10, 28420, Note_off_c, 9, 35, 124
10, 28512, Note_on_c, 9, 44, 112
10, 28516, Note_off_c, 9, 44, 112
10, 28608, Note_on_c, 9, 40, 124
10, 28608, Note_on_c, 9, 44, 124
10, 28608, Note_on_c, 9, 52, 47
10, 28608, Note_on_c, 9, 56, 124
10, 28612, Note_off_c, 9, 56, 124
10, 28612, Note_off_c, 9, 52, 47
10, 28612, Note_off_c, 9, 44, 124
10, 28612, Note_off_c, 9, 40, 124
10, 28704, Note_on_c, 9, 35, 116
10, 28704, Note_on_c, 9, 44, 108
10, 28708, Note_off_c, 9, 44, 108
10, 28708, Note_off_c, 9, 35, 116
10, 28800, Note_on_c, 9, 35, 124
10, 28800, Note_on_c, 9, 44, 120
10, 28800, Note_on_c, 9, 52, 47
10, 28800, Note_on_c, 9, 56, 116
10, 28804, Note_off_c, 9, 56, 116
10, 28804, Note_off_c, 9, 52, 47
10, 28804, Note_off_c, 9, 44, 120
10, 28804, Note_off_c, 9, 35, 124
10, 28896, Note_on_c, 9, 44, 116
10, 28900, Note_off_c, 9, 44, 116
10, 28992, Note_on_c, 9, 40, 124
10, 28992, Note_on_c, 9, 44, 120
10, 28992, Note_on_c, 9, 52, 47
10, 28992, Note_on_c, 9, 56, 124
10, 28996, Note_off_c, 9, 56, 124
10, 28996, Note_off_c, 9, 52, 47
10, 28996, Note_off_c, 9, 44, 120
10, 28996, Note_off_c, 9, 40, 124
10, 29088, Note_on_c, 9, 35, 124
10, 29088, Note_on_c, 9, 44, 108
10, 29092, Note_off_c, 9, 44, 108
10, 29092, Note_off_c, 9, 35, 124
10, 29184, Note_on_c, 9, 44, 120
10, 29184, Note_on_c, 9, 52, 47
10, 29184, Note_on_c, 9, 56, 116
10, 29188, Note_off_c, 9, 56, 116
10, 29188, Note_off_c, 9, 52, 47
10, 29188, Note_off_c, 9, 44, 120
10, 29280, Note_on_c, 9, 44, 112
10, 29284, Note_off_c, 9, 44, 112
10, 29376, Note_on_c, 9, 40, 124
10, 29376, Note_on_c, 9, 44, 120
10, 29376, Note_on_c, 9, 52, 47
10, 29376, Note_on_c, 9, 56, 124
10, 29380, Note_off_c, 9, 56, 124
10, 29380, Note_off_c, 9, 52, 47
10, 29380, Note_off_c, 9, 44, 120
10, 29380, Note_off_c, 9, 40, 124
10, 29472, Note_on_c, 9, 44, 108
10, 29476, Note_off_c, 9, 44, 108
10, 29568, Note_on_c, 9, 40, 124
10, 29568, Note_on_c, 9, 44, 112
10, 29568, Note_on_c, 9, 52, 47
10, 29568, Note_on_c, 9, 56, 124
10, 29572, Note_off_c, 9, 56, 124
10, 29572, Note_off_c, 9, 52, 47
10, 29572, Note_off_c, 9, 44, 112
10, 29572, Note_off_c, 9, 40, 124
10, 29664, Note_on_c, 9, 35, 90
10, 29664, Note_on_c, 9, 46, 90
10, 29668, Note_off_c, 9, 46, 116
10, 29668, Note_off_c, 9, 35, 90
10, 29760, Note_on_c, 9, 35, 124
10, 29760, Note_on_c, 9, 44, 120
10, 29760, Note_on_c, 9, 52, 47
10, 29760, Note_on_c, 9, 56, 124
10, 29764, Note_off_c, 9, 56, 124
10, 29764, Note_off_c, 9, 52, 47
10, 29764, Note_off_c, 9, 44, 120
10, 29764, Note_off_c, 9, 35, 124
10, 29856, Note_on_c, 9, 44, 124
10, 29860, Note_off_c, 9, 44, 124
10, 29952, Note_on_c, 9, 35, 124
10, 29952, Note_on_c, 9, 44, 124
10, 29952, Note_on_c, 9, 49, 55
10, 29952, Note_on_c, 9, 52, 47
10, 29952, Note_on_c, 9, 56, 124
10, 29956, Note_off_c, 9, 56, 124
10, 29956, Note_off_c, 9, 52, 47
10, 29956, Note_off_c, 9, 49, 85
10, 29956, Note_off_c, 9, 44, 124
10, 29956, Note_off_c, 9, 35, 124
10, 30048, Note_on_c, 9, 44, 112
10, 30052, Note_off_c, 9, 44, 112
10, 30144, Note_on_c, 9, 40, 124
10, 30144, Note_on_c, 9, 44, 124
10, 30144, Note_on_c, 9, 52, 47
10, 30144, Note_on_c, 9, 56, 124
10, 30148, Note_off_c, 9, 56, 124
10, 30148, Note_off_c, 9, 52, 47
10, 30148, Note_off_c, 9, 44, 124
10, 30148, Note_off_c, 9, 40, 124
10, 30240, Note_on_c, 9, 35, 116
10, 30240, Note_on_c, 9, 44, 108
10, 30244, Note_off_c, 9, 44, 108
10, 30244, Note_off_c, 9, 35, 116
10, 30336, Note_on_c, 9, 35, 124
10, 30336, Note_on_c, 9, 44, 120
10, 30336, Note_on_c, 9, 52, 47
10, 30336, Note_on_c, 9, 56, 116
10, 30340, Note_off_c, 9, 56, 116
10, 30340, Note_off_c, 9, 52, 47
10, 30340, Note_off_c, 9, 44, 120
10, 30340, Note_off_c, 9, 35, 124
10, 30432, Note_on_c, 9, 44, 116
10, 30436, Note_off_c, 9, 44, 116
10, 30528, Note_on_c, 9, 40, 124
10, 30528, Note_on_c, 9, 44, 120
10, 30528, Note_on_c, 9, 52, 47
10, 30528, Note_on_c, 9, 56, 124
10, 30532, Note_off_c, 9, 56, 124
10, 30532, Note_off_c, 9, 52, 47
10, 30532, Note_off_c, 9, 44, 120
10, 30532, Note_off_c, 9, 40, 124
10, 30624, Note_on_c, 9, 35, 124
10, 30624, Note_on_c, 9, 44, 108
10, 30628, Note_off_c, 9, 44, 108
10, 30628, Note_off_c, 9, 35, 124
10, 30720, Note_on_c, 9, 44, 120
10, 30720, Note_on_c, 9, 52, 47
10, 30720, Note_on_c, 9, 56, 116
10, 30724, Note_off_c, 9, 56, 116
10, 30724, Note_off_c, 9, 52, 47
10, 30724, Note_off_c, 9, 44, 120
10, 30816, Note_on_c, 9, 44, 112
10, 30820, Note_off_c, 9, 44, 112
10, 30912, Note_on_c, 9, 40, 124
10, 30912, Note_on_c, 9, 44, 120
10, 30912, Note_on_c, 9, 52, 47
10, 30912, Note_on_c, 9, 56, 124
10, 30916, Note_off_c, 9, 56, 124
10, 30916, Note_off_c, 9, 52, 47
10, 30916, Note_off_c, 9, 44, 120
10, 30916, Note_off_c, 9, 40, 124
10, 31008, Note_on_c, 9, 44, 108
10, 31012, Note_off_c, 9, 44, 108
10, 31104, Note_on_c, 9, 40, 124
10, 31104, Note_on_c, 9, 44, 112
10, 31104, Note_on_c, 9, 52, 47
10, 31104, Note_on_c, 9, 56, 124
10, 31108, Note_off_c, 9, 56, 124
10, 31108, Note_off_c, 9, 52, 47
10, 31108, Note_off_c, 9, 44, 112
10, 31108, Note_off_c, 9, 40, 124
10, 31200, Note_on_c, 9, 35, 90
10, 31200, Note_on_c, 9, 46, 90
10, 31204, Note_off_c, 9, 46, 116
10, 31204, Note_off_c, 9, 35, 90
10, 31296, Note_on_c, 9, 35, 124
10, 31296, Note_on_c, 9, 44, 120
10, 31296, Note_on_c, 9, 52, 47
10, 31296, Note_on_c, 9, 56, 124
10, 31300, Note_off_c, 9, 56, 124
10, 31300, Note_off_c, 9, 52, 47
10, 31300, Note_off_c, 9, 44, 120
10, 31300, Note_off_c, 9, 35, 124
10, 31392, Note_on_c, 9, 44, 124
10, 31396, Note_off_c, 9, 44, 124
10, 31488, Note_on_c, 9, 35, 124
10, 31492, Note_off_c, 9, 35, 124
10, 32160, Note_on_c, 9, 49, 70
10, 32160, Note_on_c, 9, 52, 109
10, 32164, Note_off_c, 9, 52, 109
10, 32164, Note_off_c, 9, 49, 109
10, 33024, Note_on_c, 9, 40, 43
10, 33028, Note_off_c, 9, 40, 43
10, 33150, Note_on_c, 9, 40, 62
10, 33154, Note_off_c, 9, 40, 62
10, 33278, Note_on_c, 9, 40, 82
10, 33282, Note_off_c, 9, 40, 82
10, 33392, Note_on_c, 9, 40, 101
10, 33396, Note_off_c, 9, 40, 101
10, 33572, Note_on_c, 9, 40, 71
10, 33576, Note_off_c, 9, 40, 71
10, 33583, Note_on_c, 9, 40, 126
10, 33587, Note_off_c, 9, 40, 126
10, 33792, Note_on_c, 9, 35, 124
10, 33792, Note_on_c, 9, 44, 124
10, 33792, Note_on_c, 9, 49, 55
10, 33792, Note_on_c, 9, 52, 47
10, 33792, Note_on_c, 9, 56, 109
10, 33796, Note_off_c, 9, 56, 109
10, 33796, Note_off_c, 9, 52, 47
10, 33796, Note_off_c, 9, 49, 85
10, 33796, Note_off_c, 9, 44, 124
10, 33796, Note_off_c, 9, 35, 124
10, 33888, Note_on_c, 9, 44, 72
10, 33892, Note_off_c, 9, 44, 72
10, 33984, Note_on_c, 9, 40, 124
10, 33984, Note_on_c, 9, 44, 124
10, 33984, Note_on_c, 9, 52, 47
10, 33984, Note_on_c, 9, 56, 124
10, 33988, Note_off_c, 9, 56, 124
10, 33988, Note_off_c, 9, 52, 47
10, 33988, Note_off_c, 9, 44, 124
10, 33988, Note_off_c, 9, 40, 124
10, 34080, Note_on_c, 9, 35, 124
10, 34080, Note_on_c, 9, 44, 112
10, 34084, Note_off_c, 9, 44, 112
10, 34084, Note_off_c, 9, 35, 124
10, 34176, Note_on_c, 9, 35, 116
10, 34176, Note_on_c, 9, 44, 124
10, 34176, Note_on_c, 9, 52, 47
10, 34176, Note_on_c, 9, 56, 109
10, 34180, Note_off_c, 9, 56, 109
10, 34180, Note_off_c, 9, 52, 47
10, 34180, Note_off_c, 9, 44, 124
10, 34180, Note_off_c, 9, 35, 116
10, 34272, Note_on_c, 9, 44, 116
10, 34276, Note_off_c, 9, 44, 116
10, 34368, Note_on_c, 9, 40, 124
10, 34368, Note_on_c, 9, 44, 124
10, 34368, Note_on_c, 9, 52, 47
10, 34368, Note_on_c, 9, 56, 116
10, 34372, Note_off_c, 9, 56, 116
10, 34372, Note_off_c, 9, 52, 47
10, 34372, Note_off_c, 9, 44, 124
10, 34372, Note_off_c, 9, 40, 124
10, 34464, Note_on_c, 9, 35, 124
10, 34464, Note_on_c, 9, 44, 112
10, 34468, Note_off_c, 9, 44, 112
10, 34468, Note_off_c, 9, 35, 124
10, 34560, Note_on_c, 9, 44, 124
10, 34560, Note_on_c, 9, 52, 47
10, 34560, Note_on_c, 9, 56, 116
10, 34564, Note_off_c, 9, 56, 116
10, 34564, Note_off_c, 9, 52, 47
10, 34564, Note_off_c, 9, 44, 124
10, 34656, Note_on_c, 9, 44, 112
10, 34660, Note_off_c, 9, 44, 112
10, 34752, Note_on_c, 9, 40, 124
10, 34752, Note_on_c, 9, 44, 108
10, 34752, Note_on_c, 9, 52, 47
10, 34752, Note_on_c, 9, 56, 124
10, 34756, Note_off_c, 9, 56, 124
10, 34756, Note_off_c, 9, 52, 47
10, 34756, Note_off_c, 9, 44, 108
10, 34756, Note_off_c, 9, 40, 124
10, 34848, Note_on_c, 9, 44, 100
10, 34852, Note_off_c, 9, 44, 100
10, 34944, Note_on_c, 9, 40, 124
10, 34944, Note_on_c, 9, 44, 120
10, 34944, Note_on_c, 9, 52, 47
10, 34944, Note_on_c, 9, 56, 124
10, 34948, Note_off_c, 9, 56, 124
10, 34948, Note_off_c, 9, 52, 47
10, 34948, Note_off_c, 9, 44, 120
10, 34948, Note_off_c, 9, 40, 124
10, 35040, Note_on_c, 9, 46, 96
10, 35044, Note_off_c, 9, 46, 124
10, 35136, Note_on_c, 9, 35, 124
10, 35136, Note_on_c, 9, 44, 116
10, 35136, Note_on_c, 9, 52, 47
10, 35136, Note_on_c, 9, 56, 124
10, 35140, Note_off_c, 9, 56, 124
10, 35140, Note_off_c, 9, 52, 47
10, 35140, Note_off_c, 9, 44, 116
10, 35140, Note_off_c, 9, 35, 124
10, 35232, Note_on_c, 9, 44, 104
10, 35236, Note_off_c, 9, 44, 104
10, 35328, Note_on_c, 9, 35, 124
10, 35328, Note_on_c, 9, 44, 124
10, 35328, Note_on_c, 9, 49, 55
10, 35328, Note_on_c, 9, 52, 47
10, 35328, Note_on_c, 9, 56, 124
10, 35332, Note_off_c, 9, 56, 124
10, 35332, Note_off_c, 9, 52, 47
10, 35332, Note_off_c, 9, 49, 85
10, 35332, Note_off_c, 9, 44, 124
10, 35332, Note_off_c, 9, 35, 124
10, 35424, Note_on_c, 9, 44, 112
10, 35428, Note_off_c, 9, 44, 112
10, 35520, Note_on_c, 9, 40, 124
10, 35520, Note_on_c, 9, 44, 124
10, 35520, Note_on_c, 9, 52, 47
10, 35520, Note_on_c, 9, 56, 124
10, 35524, Note_off_c, 9, 56, 124
10, 35524, Note_off_c, 9, 52, 47
10, 35524, Note_off_c, 9, 44, 124
10, 35524, Note_off_c, 9, 40, 124
10, 35616, Note_on_c, 9, 35, 116
10, 35616, Note_on_c, 9, 44, 108
10, 35620, Note_off_c, 9, 44, 108
10, 35620, Note_off_c, 9, 35, 116
10, 35712, Note_on_c, 9, 35, 124
10, 35712, Note_on_c, 9, 44, 120
10, 35712, Note_on_c, 9, 52, 47
10, 35712, Note_on_c, 9, 56, 116
10, 35716, Note_off_c, 9, 56, 116
10, 35716, Note_off_c, 9, 52, 47
10, 35716, Note_off_c, 9, 44, 120
10, 35716, Note_off_c, 9, 35, 124
10, 35808, Note_on_c, 9, 44, 116
10, 35812, Note_off_c, 9, 44, 116
10, 35904, Note_on_c, 9, 40, 124
10, 35904, Note_on_c, 9, 44, 120
10, 35904, Note_on_c, 9, 52, 47
10, 35904, Note_on_c, 9, 56, 124
10, 35908, Note_off_c, 9, 56, 124
10, 35908, Note_off_c, 9, 52, 47
10, 35908, Note_off_c, 9, 44, 120
10, 35908, Note_off_c, 9, 40, 124
10, 36000, Note_on_c, 9, 35, 124
10, 36000, Note_on_c, 9, 44, 108
10, 36004, Note_off_c, 9, 44, 108
10, 36004, Note_off_c, 9, 35, 124
10, 36096, Note_on_c, 9, 44, 120
10, 36096, Note_on_c, 9, 52, 47
10, 36096, Note_on_c, 9, 56, 116
10, 36100, Note_off_c, 9, 56, 116
10, 36100, Note_off_c, 9, 52, 47
10, 36100, Note_off_c, 9, 44, 120
10, 36192, Note_on_c, 9, 44, 112
10, 36196, Note_off_c, 9, 44, 112
10, 36288, Note_on_c, 9, 40, 124
10, 36288, Note_on_c, 9, 44, 120
10, 36288, Note_on_c, 9, 52, 47
10, 36288, Note_on_c, 9, 56, 124
10, 36292, Note_off_c, 9, 56, 124
10, 36292, Note_off_c, 9, 52, 47
10, 36292, Note_off_c, 9, 44, 120
10, 36292, Note_off_c, 9, 40, 124
10, 36384, Note_on_c, 9, 44, 108
10, 36388, Note_off_c, 9, 44, 108
10, 36480, Note_on_c, 9, 40, 124
10, 36480, Note_on_c, 9, 44, 112
10, 36480, Note_on_c, 9, 52, 47
10, 36480, Note_on_c, 9, 56, 124
10, 36484, Note_off_c, 9, 56, 124
10, 36484, Note_off_c, 9, 52, 47
10, 36484, Note_off_c, 9, 44, 112
10, 36484, Note_off_c, 9, 40, 124
10, 36576, Note_on_c, 9, 46, 90
10, 36580, Note_off_c, 9, 46, 116
10, 36672, Note_on_c, 9, 52, 47
10, 36676, Note_off_c, 9, 52, 47
10, 36768, Note_on_c, 9, 35, 124
10, 36772, Note_off_c, 9, 35, 124
10, 36864, Note_on_c, 9, 35, 120
10, 36864, Note_on_c, 9, 44, 100
10, 36864, Note_on_c, 9, 49, 67
10, 36864, Note_on_c, 9, 52, 80
10, 36868, Note_off_c, 9, 52, 80
10, 36868, Note_off_c, 9, 49, 104
10, 36868, Note_off_c, 9, 44, 100
10, 36868, Note_off_c, 9, 35, 120
10, 36960, Note_on_c, 9, 44, 60
10, 36964, Note_off_c, 9, 44, 60
10, 37056, Note_on_c, 9, 40, 110
10, 37056, Note_on_c, 9, 44, 96
10, 37056, Note_on_c, 9, 52, 64
10, 37060, Note_off_c, 9, 52, 64
10, 37060, Note_off_c, 9, 44, 96
10, 37060, Note_off_c, 9, 40, 110
10, 37152, Note_on_c, 9, 35, 112
10, 37152, Note_on_c, 9, 44, 68
10, 37156, Note_off_c, 9, 44, 68
10, 37156, Note_off_c, 9, 35, 112
10, 37248, Note_on_c, 9, 35, 116
10, 37248, Note_on_c, 9, 44, 88
10, 37248, Note_on_c, 9, 52, 64
10, 37252, Note_off_c, 9, 52, 64
10, 37252, Note_off_c, 9, 44, 88
10, 37252, Note_off_c, 9, 35, 116
10, 37344, Note_on_c, 9, 44, 52
10, 37348, Note_off_c, 9, 44, 52
10, 37440, Note_on_c, 9, 40, 110
10, 37440, Note_on_c, 9, 44, 100
10, 37440, Note_on_c, 9, 52, 60
10, 37444, Note_off_c, 9, 52, 60
10, 37444, Note_off_c, 9, 44, 100
10, 37444, Note_off_c, 9, 40, 110
10, 37536, Note_on_c, 9, 35, 108
10, 37536, Note_on_c, 9, 44, 68
10, 37540, Note_off_c, 9, 44, 68
10, 37540, Note_off_c, 9, 35, 108
10, 37632, Note_on_c, 9, 35, 116
10, 37632, Note_on_c, 9, 44, 88
10, 37632, Note_on_c, 9, 52, 64
10, 37636, Note_off_c, 9, 52, 64
10, 37636, Note_off_c, 9, 44, 88
10, 37636, Note_off_c, 9, 35, 116
10, 37728, Note_on_c, 9, 44, 56
10, 37732, Note_off_c, 9, 44, 56
10, 37824, Note_on_c, 9, 40, 110
10, 37824, Note_on_c, 9, 44, 88
10, 37824, Note_on_c, 9, 52, 52
10, 37828, Note_off_c, 9, 52, 52
10, 37828, Note_off_c, 9, 44, 88
10, 37828, Note_off_c, 9, 40, 110
10, 37920, Note_on_c, 9, 35, 108
10, 37920, Note_on_c, 9, 44, 84
10, 37924, Note_off_c, 9, 44, 84
10, 37924, Note_off_c, 9, 35, 108
10, 38016, Note_on_c, 9, 40, 106
10, 38016, Note_on_c, 9, 44, 80
10, 38016, Note_on_c, 9, 52, 48
10, 38020, Note_off_c, 9, 52, 48
10, 38020, Note_off_c, 9, 44, 80
10, 38020, Note_off_c, 9, 40, 106
10, 38112, Note_on_c, 9, 44, 92
10, 38116, Note_off_c, 9, 44, 92
10, 38208, Note_on_c, 9, 40, 106
10, 38208, Note_on_c, 9, 46, 81
10, 38208, Note_on_c, 9, 49, 36
10, 38212, Note_off_c, 9, 49, 56
10, 38212, Note_off_c, 9, 46, 104
10, 38212, Note_off_c, 9, 40, 106
10, 38304, Note_on_c, 9, 44, 80
10, 38308, Note_off_c, 9, 44, 80
10, 38400, Note_on_c, 9, 35, 124
10, 38400, Note_on_c, 9, 44, 124
10, 38400, Note_on_c, 9, 49, 55
10, 38400, Note_on_c, 9, 52, 47
10, 38400, Note_on_c, 9, 56, 109
10, 38404, Note_off_c, 9, 56, 109
10, 38404, Note_off_c, 9, 52, 47
10, 38404, Note_off_c, 9, 49, 85
10, 38404, Note_off_c, 9, 44, 124
10, 38404, Note_off_c, 9, 35, 124
10, 38496, Note_on_c, 9, 44, 116
10, 38500, Note_off_c, 9, 44, 116
10, 38592, Note_on_c, 9, 40, 126
10, 38592, Note_on_c, 9, 44, 124
10, 38592, Note_on_c, 9, 52, 47
10, 38592, Note_on_c, 9, 56, 124
10, 38596, Note_off_c, 9, 56, 124
10, 38596, Note_off_c, 9, 52, 47
10, 38596, Note_off_c, 9, 44, 124
10, 38596, Note_off_c, 9, 40, 126
10, 38688, Note_on_c, 9, 44, 92
10, 38692, Note_off_c, 9, 44, 92
10, 38784, Note_on_c, 9, 35, 124
10, 38784, Note_on_c, 9, 44, 112
10, 38784, Note_on_c, 9, 52, 47
10, 38784, Note_on_c, 9, 56, 109
10, 38788, Note_off_c, 9, 56, 109
10, 38788, Note_off_c, 9, 52, 47
10, 38788, Note_off_c, 9, 44, 112
10, 38788, Note_off_c, 9, 35, 124
10, 38880, Note_on_c, 9, 35, 112
10, 38880, Note_on_c, 9, 44, 84
10, 38884, Note_off_c, 9, 44, 84
10, 38884, Note_off_c, 9, 35, 112
10, 38976, Note_on_c, 9, 40, 126
10, 38976, Note_on_c, 9, 44, 124
10, 38976, Note_on_c, 9, 52, 47
10, 38976, Note_on_c, 9, 56, 116
10, 38980, Note_off_c, 9, 56, 116
10, 38980, Note_off_c, 9, 52, 47
10, 38980, Note_off_c, 9, 44, 124
10, 38980, Note_off_c, 9, 40, 126
10, 39072, Note_on_c, 9, 35, 46
10, 39072, Note_on_c, 9, 44, 92
10, 39076, Note_off_c, 9, 44, 92
10, 39076, Note_off_c, 9, 35, 46
10, 39168, Note_on_c, 9, 35, 120
10, 39168, Note_on_c, 9, 44, 108
10, 39168, Note_on_c, 9, 52, 47
10, 39168, Note_on_c, 9, 56, 116
10, 39172, Note_off_c, 9, 56, 116
10, 39172, Note_off_c, 9, 52, 47
10, 39172, Note_off_c, 9, 44, 108
10, 39172, Note_off_c, 9, 35, 120
10, 39264, Note_on_c, 9, 44, 80
10, 39268, Note_off_c, 9, 44, 80
10, 39360, Note_on_c, 9, 40, 126
10, 39360, Note_on_c, 9, 44, 120
10, 39360, Note_on_c, 9, 52, 47
10, 39360, Note_on_c, 9, 56, 124
10, 39364, Note_off_c, 9, 56, 124
10, 39364, Note_off_c, 9, 52, 47
10, 39364, Note_off_c, 9, 44, 120
10, 39364, Note_off_c, 9, 40, 126
10, 39456, Note_on_c, 9, 44, 88
10, 39460, Note_off_c, 9, 44, 88
10, 39552, Note_on_c, 9, 35, 120
10, 39552, Note_on_c, 9, 44, 116
10, 39552, Note_on_c, 9, 52, 47
10, 39552, Note_on_c, 9, 56, 124
10, 39556, Note_off_c, 9, 56, 124
10, 39556, Note_off_c, 9, 52, 47
10, 39556, Note_off_c, 9, 44, 116
10, 39556, Note_off_c, 9, 35, 120
10, 39648, Note_on_c, 9, 35, 116
10, 39648, Note_on_c, 9, 44, 88
10, 39652, Note_off_c, 9, 44, 88
10, 39652, Note_off_c, 9, 35, 116
10, 39744, Note_on_c, 9, 40, 126
10, 39744, Note_on_c, 9, 44, 116
10, 39744, Note_on_c, 9, 52, 47
10, 39744, Note_on_c, 9, 56, 124
10, 39748, Note_off_c, 9, 56, 124
10, 39748, Note_off_c, 9, 52, 47
10, 39748, Note_off_c, 9, 44, 116
10, 39748, Note_off_c, 9, 40, 126
10, 39840, Note_on_c, 9, 44, 84
10, 39844, Note_off_c, 9, 44, 84
10, 39936, Note_on_c, 9, 35, 124
10, 39936, Note_on_c, 9, 44, 116
10, 39936, Note_on_c, 9, 49, 55
10, 39936, Note_on_c, 9, 52, 47
10, 39936, Note_on_c, 9, 56, 124
10, 39940, Note_off_c, 9, 56, 124
10, 39940, Note_off_c, 9, 52, 47
10, 39940, Note_off_c, 9, 49, 85
10, 39940, Note_off_c, 9, 44, 116
10, 39940, Note_off_c, 9, 35, 124
10, 40032, Note_on_c, 9, 44, 92
10, 40036, Note_off_c, 9, 44, 92
10, 40128, Note_on_c, 9, 40, 126
10, 40128, Note_on_c, 9, 44, 116
10, 40128, Note_on_c, 9, 52, 47
10, 40128, Note_on_c, 9, 56, 124
10, 40132, Note_off_c, 9, 56, 124
10, 40132, Note_off_c, 9, 52, 47
10, 40132, Note_off_c, 9, 44, 116
10, 40132, Note_off_c, 9, 40, 126
10, 40224, Note_on_c, 9, 44, 100
10, 40228, Note_off_c, 9, 44, 100
10, 40320, Note_on_c, 9, 35, 124
10, 40320, Note_on_c, 9, 44, 112
10, 40320, Note_on_c, 9, 52, 47
10, 40320, Note_on_c, 9, 56, 116
10, 40324, Note_off_c, 9, 56, 116
10, 40324, Note_off_c, 9, 52, 47
10, 40324, Note_off_c, 9, 44, 112
10, 40324, Note_off_c, 9, 35, 124
10, 40416, Note_on_c, 9, 35, 119
10, 40416, Note_on_c, 9, 44, 88
10, 40420, Note_off_c, 9, 44, 88
10, 40420, Note_off_c, 9, 35, 119
10, 40512, Note_on_c, 9, 40, 126
10, 40512, Note_on_c, 9, 44, 120
10, 40512, Note_on_c, 9, 52, 47
10, 40512, Note_on_c, 9, 56, 124
10, 40516, Note_off_c, 9, 56, 124
10, 40516, Note_off_c, 9, 52, 47
10, 40516, Note_off_c, 9, 44, 120
10, 40516, Note_off_c, 9, 40, 126
10, 40608, Note_on_c, 9, 35, 31
10, 40608, Note_on_c, 9, 44, 76
10, 40612, Note_off_c, 9, 44, 76
10, 40612, Note_off_c, 9, 35, 31
10, 40704, Note_on_c, 9, 35, 120
10, 40704, Note_on_c, 9, 44, 112
10, 40704, Note_on_c, 9, 52, 47
10, 40704, Note_on_c, 9, 56, 116
10, 40708, Note_off_c, 9, 56, 116
10, 40708, Note_off_c, 9, 52, 47
10, 40708, Note_off_c, 9, 44, 112
10, 40708, Note_off_c, 9, 35, 120
10, 40800, Note_on_c, 9, 44, 80
10, 40804, Note_off_c, 9, 44, 80
10, 40896, Note_on_c, 9, 40, 126
10, 40896, Note_on_c, 9, 44, 124
10, 40896, Note_on_c, 9, 52, 47
10, 40896, Note_on_c, 9, 56, 124
10, 40900, Note_off_c, 9, 56, 124
10, 40900, Note_off_c, 9, 52, 47
10, 40900, Note_off_c, 9, 44, 124
10, 40900, Note_off_c, 9, 40, 126
10, 40992, Note_on_c, 9, 44, 92
10, 40996, Note_off_c, 9, 44, 92
10, 41088, Note_on_c, 9, 35, 116
10, 41088, Note_on_c, 9, 44, 104
10, 41088, Note_on_c, 9, 52, 47
10, 41088, Note_on_c, 9, 56, 124
10, 41092, Note_off_c, 9, 56, 124
10, 41092, Note_off_c, 9, 52, 47
10, 41092, Note_off_c, 9, 44, 104
10, 41092, Note_off_c, 9, 35, 116
10, 41184, Note_on_c, 9, 35, 116
10, 41184, Note_on_c, 9, 44, 84
10, 41188, Note_off_c, 9, 44, 84
10, 41188, Note_off_c, 9, 35, 116
10, 41280, Note_on_c, 9, 40, 126
10, 41280, Note_on_c, 9, 44, 100
10, 41280, Note_on_c, 9, 52, 47
10, 41280, Note_on_c, 9, 56, 124
10, 41284, Note_off_c, 9, 56, 124
10, 41284, Note_off_c, 9, 52, 47
10, 41284, Note_off_c, 9, 44, 100
10, 41284, Note_off_c, 9, 40, 126
10, 41376, Note_on_c, 9, 46, 62
10, 41380, Note_off_c, 9, 46, 80
10, 41472, Note_on_c, 9, 35, 124
10, 41472, Note_on_c, 9, 44, 124
10, 41472, Note_on_c, 9, 49, 55
10, 41472, Note_on_c, 9, 52, 47
10, 41472, Note_on_c, 9, 56, 109
10, 41476, Note_off_c, 9, 56, 109
10, 41476, Note_off_c, 9, 52, 47
10, 41476, Note_off_c, 9, 49, 85
10, 41476, Note_off_c, 9, 44, 124
10, 41476, Note_off_c, 9, 35, 124
10, 41568, Note_on_c, 9, 44, 116
10, 41572, Note_off_c, 9, 44, 116
10, 41664, Note_on_c, 9, 40, 126
10, 41664, Note_on_c, 9, 44, 124
10, 41664, Note_on_c, 9, 52, 47
10, 41664, Note_on_c, 9, 56, 124
10, 41668, Note_off_c, 9, 56, 124
10, 41668, Note_off_c, 9, 52, 47
10, 41668, Note_off_c, 9, 44, 124
10, 41668, Note_off_c, 9, 40, 126
10, 41760, Note_on_c, 9, 44, 92
10, 41764, Note_off_c, 9, 44, 92
10, 41856, Note_on_c, 9, 35, 124
10, 41856, Note_on_c, 9, 44, 112
10, 41856, Note_on_c, 9, 52, 47
10, 41856, Note_on_c, 9, 56, 109
10, 41860, Note_off_c, 9, 56, 109
10, 41860, Note_off_c, 9, 52, 47
10, 41860, Note_off_c, 9, 44, 112
10, 41860, Note_off_c, 9, 35, 124
10, 41952, Note_on_c, 9, 35, 112
10, 41952, Note_on_c, 9, 44, 84
10, 41956, Note_off_c, 9, 44, 84
10, 41956, Note_off_c, 9, 35, 112
10, 42048, Note_on_c, 9, 40, 126
10, 42048, Note_on_c, 9, 44, 124
10, 42048, Note_on_c, 9, 52, 47
10, 42048, Note_on_c, 9, 56, 116
10, 42052, Note_off_c, 9, 56, 116
10, 42052, Note_off_c, 9, 52, 47
10, 42052, Note_off_c, 9, 44, 124
10, 42052, Note_off_c, 9, 40, 126
10, 42144, Note_on_c, 9, 35, 46
10, 42144, Note_on_c, 9, 44, 92
10, 42148, Note_off_c, 9, 44, 92
10, 42148, Note_off_c, 9, 35, 46
10, 42240, Note_on_c, 9, 35, 120
10, 42240, Note_on_c, 9, 44, 108
10, 42240, Note_on_c, 9, 52, 47
10, 42240, Note_on_c, 9, 56, 116
10, 42244, Note_off_c, 9, 56, 116
10, 42244, Note_off_c, 9, 52, 47
10, 42244, Note_off_c, 9, 44, 108
10, 42244, Note_off_c, 9, 35, 120
10, 42336, Note_on_c, 9, 44, 80
10, 42340, Note_off_c, 9, 44, 80
10, 42432, Note_on_c, 9, 40, 126
10, 42432, Note_on_c, 9, 44, 120
10, 42432, Note_on_c, 9, 52, 47
10, 42432, Note_on_c, 9, 56, 124
10, 42436, Note_off_c, 9, 56, 124
10, 42436, Note_off_c, 9, 52, 47
10, 42436, Note_off_c, 9, 44, 120
10, 42436, Note_off_c, 9, 40, 126
10, 42528, Note_on_c, 9, 44, 88
10, 42532, Note_off_c, 9, 44, 88
10, 42624, Note_on_c, 9, 35, 120
10, 42624, Note_on_c, 9, 44, 116
10, 42624, Note_on_c, 9, 52, 47
10, 42624, Note_on_c, 9, 56, 124
10, 42628, Note_off_c, 9, 56, 124
10, 42628, Note_off_c, 9, 52, 47
10, 42628, Note_off_c, 9, 44, 116
10, 42628, Note_off_c, 9, 35, 120
10, 42720, Note_on_c, 9, 35, 116
10, 42720, Note_on_c, 9, 44, 88
10, 42724, Note_off_c, 9, 44, 88
10, 42724, Note_off_c, 9, 35, 116
10, 42816, Note_on_c, 9, 40, 126
10, 42816, Note_on_c, 9, 44, 116
10, 42816, Note_on_c, 9, 52, 47
10, 42816, Note_on_c, 9, 56, 124
10, 42820, Note_off_c, 9, 56, 124
10, 42820, Note_off_c, 9, 52, 47
10, 42820, Note_off_c, 9, 44, 116
10, 42820, Note_off_c, 9, 40, 126
10, 42912, Note_on_c, 9, 44, 84
10, 42916, Note_off_c, 9, 44, 84
10, 43008, Note_on_c, 9, 35, 124
10, 43008, Note_on_c, 9, 44, 124
10, 43008, Note_on_c, 9, 49, 55
10, 43008, Note_on_c, 9, 56, 109
10, 43012, Note_off_c, 9, 56, 109
10, 43012, Note_off_c, 9, 49, 85
10, 43012, Note_off_c, 9, 44, 124
10, 43012, Note_off_c, 9, 35, 124
10, 43104, Note_on_c, 9, 44, 116
10, 43108, Note_off_c, 9, 44, 116
10, 43200, Note_on_c, 9, 40, 126
10, 43200, Note_on_c, 9, 44, 124
10, 43200, Note_on_c, 9, 56, 124
10, 43204, Note_off_c, 9, 56, 124
10, 43204, Note_off_c, 9, 44, 124
10, 43204, Note_off_c, 9, 40, 126
10, 43296, Note_on_c, 9, 44, 92
10, 43300, Note_off_c, 9, 44, 92
10, 43392, Note_on_c, 9, 35, 124
10, 43392, Note_on_c, 9, 44, 112
10, 43392, Note_on_c, 9, 56, 109
10, 43396, Note_off_c, 9, 56, 109
10, 43396, Note_off_c, 9, 44, 112
10, 43396, Note_off_c, 9, 35, 124
10, 43488, Note_on_c, 9, 35, 112
10, 43488, Note_on_c, 9, 44, 84
10, 43492, Note_off_c, 9, 44, 84
10, 43492, Note_off_c, 9, 35, 112
10, 43584, Note_on_c, 9, 40, 126
10, 43584, Note_on_c, 9, 44, 124
10, 43584, Note_on_c, 9, 56, 116
10, 43588, Note_off_c, 9, 56, 116
10, 43588, Note_off_c, 9, 44, 124
10, 43588, Note_off_c, 9, 40, 126
10, 43680, Note_on_c, 9, 35, 46
10, 43680, Note_on_c, 9, 44, 92
10, 43684, Note_off_c, 9, 44, 92
10, 43684, Note_off_c, 9, 35, 46
10, 43776, Note_on_c, 9, 35, 124
10, 43776, Note_on_c, 9, 40, 114
10, 43776, Note_on_c, 9, 46, 96
10, 43780, Note_off_c, 9, 46, 124
10, 43780, Note_off_c, 9, 40, 114
10, 43780, Note_off_c, 9, 35, 124
10, 43840, Note_on_c, 9, 44, 54
10, 43844, Note_off_c, 9, 44, 54
10, 43872, Note_on_c, 9, 35, 124
10, 43872, Note_on_c, 9, 40, 110
10, 43872, Note_on_c, 9, 46, 96
10, 43876, Note_off_c, 9, 46, 124
10, 43876, Note_off_c, 9, 40, 110
10, 43876, Note_off_c, 9, 35, 124
10, 43968, Note_on_c, 9, 44, 54
10, 43972, Note_off_c, 9, 44, 54
10, 44064, Note_on_c, 9, 35, 124
10, 44064, Note_on_c, 9, 40, 118
10, 44064, Note_on_c, 9, 46, 96
10, 44068, Note_off_c, 9, 46, 124
10, 44068, Note_off_c, 9, 40, 118
10, 44068, Note_off_c, 9, 35, 124
10, 44104, Note_on_c, 9, 44, 54
10, 44108, Note_off_c, 9, 44, 54
10, 44352, Note_on_c, 9, 35, 124
10, 44352, Note_on_c, 9, 40, 126
10, 44352, Note_on_c, 9, 46, 96
10, 44356, Note_off_c, 9, 46, 124
10, 44356, Note_off_c, 9, 40, 126
10, 44356, Note_off_c, 9, 35, 124
10, 44456, Note_on_c, 9, 44, 54
10, 44460, Note_off_c, 9, 44, 54
10, 44544, Note_on_c, 9, 35, 124
10, 44544, Note_on_c, 9, 44, 124
10, 44544, Note_on_c, 9, 49, 55
10, 44544, Note_on_c, 9, 56, 109
10, 44544, Note_on_c, 9, 57, 11
10, 44548, Note_off_c, 9, 57, 17
10, 44548, Note_off_c, 9, 56, 109
10, 44548, Note_off_c, 9, 49, 85
10, 44548, Note_off_c, 9, 44, 124
10, 44548, Note_off_c, 9, 35, 124
10, 44640, Note_on_c, 9, 44, 72
10, 44640, Note_on_c, 9, 64, 64
10, 44644, Note_off_c, 9, 64, 64
10, 44644, Note_off_c, 9, 44, 72
10, 44736, Note_on_c, 9, 40, 124
10, 44736, Note_on_c, 9, 44, 124
10, 44736, Note_on_c, 9, 56, 124
10, 44736, Note_on_c, 9, 57, 11
10, 44740, Note_off_c, 9, 57, 17
10, 44740, Note_off_c, 9, 56, 124
10, 44740, Note_off_c, 9, 44, 124
10, 44740, Note_off_c, 9, 40, 124
10, 44832, Note_on_c, 9, 35, 124
10, 44832, Note_on_c, 9, 44, 112
10, 44832, Note_on_c, 9, 64, 76
10, 44836, Note_off_c, 9, 64, 76
10, 44836, Note_off_c, 9, 44, 112
10, 44836, Note_off_c, 9, 35, 124
10, 44928, Note_on_c, 9, 35, 116
10, 44928, Note_on_c, 9, 44, 124
10, 44928, Note_on_c, 9, 56, 109
10, 44928, Note_on_c, 9, 57, 11
10, 44932, Note_off_c, 9, 57, 17
10, 44932, Note_off_c, 9, 56, 109
10, 44932, Note_off_c, 9, 44, 124
10, 44932, Note_off_c, 9, 35, 116
10, 45024, Note_on_c, 9, 44, 116
10, 45024, Note_on_c, 9, 64, 72
10, 45028, Note_off_c, 9, 64, 72
10, 45028, Note_off_c, 9, 44, 116
10, 45120, Note_on_c, 9, 40, 124
10, 45120, Note_on_c, 9, 44, 124
10, 45120, Note_on_c, 9, 56, 116
10, 45120, Note_on_c, 9, 57, 11
10, 45124, Note_off_c, 9, 57, 17
10, 45124, Note_off_c, 9, 56, 116
10, 45124, Note_off_c, 9, 44, 124
10, 45124, Note_off_c, 9, 40, 124
10, 45216, Note_on_c, 9, 35, 124
10, 45216, Note_on_c, 9, 46, 87
10, 45216, Note_on_c, 9, 64, 84
10, 45220, Note_off_c, 9, 64, 84
10, 45220, Note_off_c, 9, 46, 112
10, 45220, Note_off_c, 9, 35, 124
10, 45312, Note_on_c, 9, 44, 124
10, 45312, Note_on_c, 9, 56, 116
10, 45312, Note_on_c, 9, 57, 11
10, 45316, Note_off_c, 9, 57, 17
10, 45316, Note_off_c, 9, 56, 116
10, 45316, Note_off_c, 9, 44, 124
10, 45408, Note_on_c, 9, 44, 112
10, 45408, Note_on_c, 9, 52, 125
10, 45408, Note_on_c, 9, 64, 84
10, 45412, Note_off_c, 9, 64, 84
10, 45412, Note_off_c, 9, 52, 125
10, 45412, Note_off_c, 9, 44, 112
10, 45504, Note_on_c, 9, 40, 124
10, 45504, Note_on_c, 9, 44, 108
10, 45504, Note_on_c, 9, 56, 124
10, 45504, Note_on_c, 9, 57, 11
10, 45508, Note_off_c, 9, 57, 17
10, 45508, Note_off_c, 9, 56, 124
10, 45508, Note_off_c, 9, 44, 108
10, 45508, Note_off_c, 9, 40, 124
10, 45600, Note_on_c, 9, 44, 100
10, 45600, Note_on_c, 9, 64, 72
10, 45604, Note_off_c, 9, 64, 72
10, 45604, Note_off_c, 9, 44, 100
10, 45696, Note_on_c, 9, 40, 124
10, 45696, Note_on_c, 9, 44, 120
10, 45696, Note_on_c, 9, 56, 124
10, 45696, Note_on_c, 9, 57, 11
10, 45700, Note_off_c, 9, 57, 17
10, 45700, Note_off_c, 9, 56, 124
10, 45700, Note_off_c, 9, 44, 120
10, 45700, Note_off_c, 9, 40, 124
10, 45792, Note_on_c, 9, 46, 96
10, 45792, Note_on_c, 9, 64, 76
10, 45796, Note_off_c, 9, 64, 76
10, 45796, Note_off_c, 9, 46, 124
10, 45888, Note_on_c, 9, 35, 124
10, 45888, Note_on_c, 9, 44, 116
10, 45888, Note_on_c, 9, 56, 124
10, 45888, Note_on_c, 9, 57, 11
10, 45892, Note_off_c, 9, 57, 17
10, 45892, Note_off_c, 9, 56, 124
10, 45892, Note_off_c, 9, 44, 116
10, 45892, Note_off_c, 9, 35, 124
10, 45984, Note_on_c, 9, 44, 104
10, 45984, Note_on_c, 9, 64, 68
10, 45988, Note_off_c, 9, 64, 68
10, 45988, Note_off_c, 9, 44, 104
10, 46080, Note_on_c, 9, 35, 124
10, 46080, Note_on_c, 9, 44, 124
10, 46080, Note_on_c, 9, 56, 124
10, 46080, Note_on_c, 9, 57, 11
10, 46084, Note_off_c, 9, 57, 17
10, 46084, Note_off_c, 9, 56, 124
10, 46084, Note_off_c, 9, 44, 124
10, 46084, Note_off_c, 9, 35, 124
10, 46176, Note_on_c, 9, 44, 112
10, 46176, Note_on_c, 9, 64, 68
10, 46180, Note_off_c, 9, 64, 68
10, 46180, Note_off_c, 9, 44, 112
10, 46272, Note_on_c, 9, 40, 124
10, 46272, Note_on_c, 9, 44, 124
10, 46272, Note_on_c, 9, 56, 124
10, 46272, Note_on_c, 9, 57, 11
10, 46276, Note_off_c, 9, 57, 17
10, 46276, Note_off_c, 9, 56, 124
10, 46276, Note_off_c, 9, 44, 124
10, 46276, Note_off_c, 9, 40, 124
10, 46368, Note_on_c, 9, 35, 116
10, 46368, Note_on_c, 9, 44, 108
10, 46368, Note_on_c, 9, 64, 60
10, 46372, Note_off_c, 9, 64, 60
10, 46372, Note_off_c, 9, 44, 108
10, 46372, Note_off_c, 9, 35, 116
10, 46464, Note_on_c, 9, 35, 124
10, 46464, Note_on_c, 9, 44, 120
10, 46464, Note_on_c, 9, 56, 116
10, 46464, Note_on_c, 9, 57, 11
10, 46468, Note_off_c, 9, 57, 17
10, 46468, Note_off_c, 9, 56, 116
10, 46468, Note_off_c, 9, 44, 120
10, 46468, Note_off_c, 9, 35, 124
10, 46560, Note_on_c, 9, 44, 116
10, 46560, Note_on_c, 9, 64, 68
10, 46564, Note_off_c, 9, 64, 68
10, 46564, Note_off_c, 9, 44, 116
10, 46656, Note_on_c, 9, 40, 124
10, 46656, Note_on_c, 9, 44, 120
10, 46656, Note_on_c, 9, 56, 124
10, 46656, Note_on_c, 9, 57, 11
10, 46660, Note_off_c, 9, 57, 17
10, 46660, Note_off_c, 9, 56, 124
10, 46660, Note_off_c, 9, 44, 120
10, 46660, Note_off_c, 9, 40, 124
10, 46752, Note_on_c, 9, 35, 124
10, 46752, Note_on_c, 9, 44, 108
10, 46756, Note_off_c, 9, 44, 108
10, 46756, Note_off_c, 9, 35, 124
10, 46848, Note_on_c, 9, 44, 120
10, 46848, Note_on_c, 9, 56, 116
10, 46848, Note_on_c, 9, 57, 11
10, 46848, Note_on_c, 9, 62, 96
10, 46852, Note_off_c, 9, 62, 96
10, 46852, Note_off_c, 9, 57, 17
10, 46852, Note_off_c, 9, 56, 116
10, 46852, Note_off_c, 9, 44, 120
10, 46944, Note_on_c, 9, 44, 112
10, 46944, Note_on_c, 9, 63, 76
10, 46948, Note_off_c, 9, 63, 76
10, 46948, Note_off_c, 9, 44, 112
10, 46992, Note_on_c, 9, 63, 80
10, 46996, Note_off_c, 9, 63, 80
10, 47040, Note_on_c, 9, 40, 124
10, 47040, Note_on_c, 9, 44, 120
10, 47040, Note_on_c, 9, 56, 124
10, 47040, Note_on_c, 9, 57, 11
10, 47040, Note_on_c, 9, 62, 76
10, 47044, Note_off_c, 9, 62, 76
10, 47044, Note_off_c, 9, 57, 17
10, 47044, Note_off_c, 9, 56, 124
10, 47044, Note_off_c, 9, 44, 120
10, 47044, Note_off_c, 9, 40, 124
10, 47136, Note_on_c, 9, 44, 108
10, 47136, Note_on_c, 9, 63, 80
10, 47140, Note_off_c, 9, 63, 80
10, 47140, Note_off_c, 9, 44, 108
10, 47184, Note_on_c, 9, 62, 68
10, 47188, Note_off_c, 9, 62, 68
10, 47232, Note_on_c, 9, 40, 124
10, 47232, Note_on_c, 9, 44, 112
10, 47232, Note_on_c, 9, 56, 124
10, 47232, Note_on_c, 9, 57, 11
10, 47232, Note_on_c, 9, 62, 76
10, 47236, Note_off_c, 9, 62, 76
10, 47236, Note_off_c, 9, 57, 17
10, 47236, Note_off_c, 9, 56, 124
10, 47236, Note_off_c, 9, 44, 112
10, 47236, Note_off_c, 9, 40, 124
10, 47328, Note_on_c, 9, 46, 90
10, 47328, Note_on_c, 9, 63, 80
10, 47332, Note_off_c, 9, 63, 80
10, 47332, Note_off_c, 9, 46, 116
10, 47376, Note_on_c, 9, 62, 92
10, 47380, Note_off_c, 9, 62, 92
10, 47424, Note_on_c, 9, 35, 124
10, 47424, Note_on_c, 9, 44, 120
10, 47424, Note_on_c, 9, 56, 124
10, 47424, Note_on_c, 9, 57, 11
10, 47424, Note_on_c, 9, 62, 92
10, 47428, Note_off_c, 9, 62, 92
10, 47428, Note_off_c, 9, 57, 17
10, 47428, Note_off_c, 9, 56, 124
10, 47428, Note_off_c, 9, 44, 120
10, 47428, Note_off_c, 9, 35, 124
10, 47520, Note_on_c, 9, 44, 124
10, 47520, Note_on_c, 9, 63, 88
10, 47524, Note_off_c, 9, 63, 88
10, 47524, Note_off_c, 9, 44, 124
10, 47528, Note_on_c, 9, 35, 124
10, 47532, Note_off_c, 9, 35, 124
10, 47616, Note_on_c, 9, 35, 100
10, 47616, Note_on_c, 9, 44, 84
10, 47616, Note_on_c, 9, 49, 55
10, 47616, Note_on_c, 9, 56, 124
10, 47616, Note_on_c, 9, 57, 11
10, 47620, Note_off_c, 9, 57, 17
10, 47620, Note_off_c, 9, 56, 124
10, 47620, Note_off_c, 9, 49, 85
10, 47620, Note_off_c, 9, 44, 84
10, 47620, Note_off_c, 9, 35, 100
10, 47712, Note_on_c, 9, 44, 72
10, 47716, Note_off_c, 9, 44, 72
10, 47808, Note_on_c, 9, 40, 108
10, 47808, Note_on_c, 9, 46, 59
10, 47808, Note_on_c, 9, 56, 124
10, 47808, Note_on_c, 9, 57, 11
10, 47812, Note_off_c, 9, 57, 17
10, 47812, Note_off_c, 9, 56, 124
10, 47812, Note_off_c, 9, 46, 76
10, 47812, Note_off_c, 9, 40, 108
10, 47904, Note_on_c, 9, 44, 44
10, 47908, Note_off_c, 9, 44, 44
10, 48000, Note_on_c, 9, 35, 96
10, 48000, Note_on_c, 9, 44, 72
10, 48000, Note_on_c, 9, 56, 116
10, 48000, Note_on_c, 9, 57, 11
10, 48004, Note_off_c, 9, 57, 17
10, 48004, Note_off_c, 9, 56, 116
10, 48004, Note_off_c, 9, 44, 72
10, 48004, Note_off_c, 9, 35, 96
10, 48096, Note_on_c, 9, 35, 96
10, 48096, Note_on_c, 9, 44, 72
10, 48100, Note_off_c, 9, 44, 72
10, 48100, Note_off_c, 9, 35, 96
10, 48192, Note_on_c, 9, 40, 108
10, 48192, Note_on_c, 9, 46, 59
10, 48192, Note_on_c, 9, 56, 124
10, 48192, Note_on_c, 9, 57, 11
10, 48196, Note_off_c, 9, 57, 17
10, 48196, Note_off_c, 9, 56, 124
10, 48196, Note_off_c, 9, 46, 76
10, 48196, Note_off_c, 9, 40, 108
10, 48288, Note_on_c, 9, 44, 64
10, 48292, Note_off_c, 9, 44, 64
10, 48384, Note_on_c, 9, 35, 96
10, 48384, Note_on_c, 9, 44, 80
10, 48384, Note_on_c, 9, 56, 116
10, 48384, Note_on_c, 9, 57, 11
10, 48388, Note_off_c, 9, 57, 17
10, 48388, Note_off_c, 9, 56, 116
10, 48388, Note_off_c, 9, 44, 80
10, 48388, Note_off_c, 9, 35, 96
10, 48480, Note_on_c, 9, 35, 92
10, 48480, Note_on_c, 9, 44, 52
10, 48484, Note_off_c, 9, 44, 52
10, 48484, Note_off_c, 9, 35, 92
10, 48576, Note_on_c, 9, 40, 104
10, 48576, Note_on_c, 9, 46, 59
10, 48576, Note_on_c, 9, 56, 124
10, 48576, Note_on_c, 9, 57, 11
10, 48580, Note_off_c, 9, 57, 17
10, 48580, Note_off_c, 9, 56, 124
10, 48580, Note_off_c, 9, 46, 76
10, 48580, Note_off_c, 9, 40, 104
10, 48672, Note_on_c, 9, 44, 60
10, 48676, Note_off_c, 9, 44, 60
10, 48768, Note_on_c, 9, 35, 96
10, 48768, Note_on_c, 9, 44, 76
10, 48768, Note_on_c, 9, 56, 124
10, 48768, Note_on_c, 9, 57, 11
10, 48772, Note_off_c, 9, 57, 17
10, 48772, Note_off_c, 9, 56, 124
10, 48772, Note_off_c, 9, 44, 76
10, 48772, Note_off_c, 9, 35, 96
10, 48864, Note_on_c, 9, 35, 96
10, 48864, Note_on_c, 9, 44, 68
10, 48868, Note_off_c, 9, 44, 68
10, 48868, Note_off_c, 9, 35, 96
10, 48960, Note_on_c, 9, 40, 100
10, 48960, Note_on_c, 9, 44, 84
10, 48960, Note_on_c, 9, 56, 124
10, 48960, Note_on_c, 9, 57, 11
10, 48964, Note_off_c, 9, 57, 17
10, 48964, Note_off_c, 9, 56, 124
10, 48964, Note_off_c, 9, 44, 84
10, 48964, Note_off_c, 9, 40, 100
10, 49056, Note_on_c, 9, 40, 100
10, 49056, Note_on_c, 9, 46, 65
10, 49060, Note_off_c, 9, 46, 84
10, 49060, Note_off_c, 9, 40, 100
10, 49104, Note_on_c, 9, 44, 84
10, 49108, Note_off_c, 9, 44, 84
10, 49152, Note_on_c, 9, 35, 64
10, 49152, Note_on_c, 9, 40, 45
10, 49152, Note_on_c, 9, 42, 92
10, 49156, Note_off_c, 9, 42, 92
10, 49156, Note_off_c, 9, 40, 45
10, 49156, Note_off_c, 9, 35, 64
10, 49157, Note_on_c, 9, 49, 33
10, 49161, Note_off_c, 9, 49, 52
10, 49248, Note_on_c, 9, 35, 52
10, 49248, Note_on_c, 9, 40, 42
10, 49248, Note_on_c, 9, 46, 43
10, 49252, Note_off_c, 9, 46, 56
10, 49252, Note_off_c, 9, 40, 42
10, 49252, Note_off_c, 9, 35, 52
10, 49344, Note_on_c, 9, 35, 92
10, 49344, Note_on_c, 9, 40, 44
10, 49344, Note_on_c, 9, 46, 53
10, 49348, Note_off_c, 9, 46, 68
10, 49348, Note_off_c, 9, 40, 44
10, 49348, Note_off_c, 9, 35, 92
10, 49432, Note_on_c, 9, 49, 33
10, 49436, Note_off_c, 9, 49, 52
10, 49440, Note_on_c, 9, 35, 76
10, 49440, Note_on_c, 9, 40, 47
10, 49440, Note_on_c, 9, 42, 72
10, 49444, Note_off_c, 9, 42, 72
10, 49444, Note_off_c, 9, 40, 47
10, 49444, Note_off_c, 9, 35, 76
10, 49536, Note_on_c, 9, 35, 88
10, 49536, Note_on_c, 9, 40, 50
10, 49536, Note_on_c, 9, 42, 72
10, 49540, Note_off_c, 9, 42, 72
10, 49540, Note_off_c, 9, 40, 50
10, 49540, Note_off_c, 9, 35, 88
10, 49632, Note_on_c, 9, 35, 64
10, 49632, Note_on_c, 9, 40, 52
10, 49632, Note_on_c, 9, 46, 46
10, 49636, Note_off_c, 9, 46, 60
10, 49636, Note_off_c, 9, 40, 52
10, 49636, Note_off_c, 9, 35, 64
10, 49728, Note_on_c, 9, 35, 76
10, 49728, Note_on_c, 9, 40, 55
10, 49728, Note_on_c, 9, 46, 49
10, 49732, Note_off_c, 9, 46, 64
10, 49732, Note_off_c, 9, 40, 55
10, 49732, Note_off_c, 9, 35, 76
10, 49824, Note_on_c, 9, 35, 88
10, 49824, Note_on_c, 9, 40, 58
10, 49824, Note_on_c, 9, 42, 52
10, 49828, Note_off_c, 9, 42, 52
10, 49828, Note_off_c, 9, 40, 58
10, 49828, Note_off_c, 9, 35, 88
10, 49920, Note_on_c, 9, 35, 80
10, 49920, Note_on_c, 9, 40, 60
10, 49920, Note_on_c, 9, 42, 56
10, 49920, Note_on_c, 9, 52, 48
10, 49924, Note_off_c, 9, 52, 48
10, 49924, Note_off_c, 9, 42, 56
10, 49924, Note_off_c, 9, 40, 60
10, 49924, Note_off_c, 9, 35, 80
10, 50016, Note_on_c, 9, 35, 76
10, 50016, Note_on_c, 9, 40, 63
10, 50016, Note_on_c, 9, 42, 64
10, 50020, Note_off_c, 9, 42, 64
10, 50020, Note_off_c, 9, 40, 63
10, 50020, Note_off_c, 9, 35, 76
10, 50112, Note_on_c, 9, 35, 100
10, 50112, Note_on_c, 9, 40, 66
10, 50112, Note_on_c, 9, 42, 104
10, 50115, Note_on_c, 9, 52, 44
10, 50116, Note_off_c, 9, 42, 104
10, 50116, Note_off_c, 9, 40, 66
10, 50116, Note_off_c, 9, 35, 100
10, 50119, Note_off_c, 9, 52, 44
10, 50208, Note_on_c, 9, 35, 104
10, 50208, Note_on_c, 9, 40, 68
10, 50208, Note_on_c, 9, 42, 88
10, 50212, Note_off_c, 9, 42, 88
10, 50212, Note_off_c, 9, 40, 68
10, 50212, Note_off_c, 9, 35, 104
10, 50299, Note_on_c, 9, 52, 56
10, 50303, Note_off_c, 9, 52, 56
10, 50304, Note_on_c, 9, 35, 108
10, 50304, Note_on_c, 9, 40, 71
10, 50304, Note_on_c, 9, 42, 92
10, 50308, Note_off_c, 9, 42, 92
10, 50308, Note_off_c, 9, 40, 71
10, 50308, Note_off_c, 9, 35, 108
10, 50400, Note_on_c, 9, 35, 112
10, 50400, Note_on_c, 9, 40, 126
10, 50400, Note_on_c, 9, 42, 96
10, 50404, Note_off_c, 9, 42, 96
10, 50404, Note_off_c, 9, 40, 126
10, 50404, Note_off_c, 9, 35, 112
10, 50487, Note_on_c, 9, 52, 56
10, 50491, Note_off_c, 9, 52, 56
10, 50496, Note_on_c, 9, 35, 120
10, 50496, Note_on_c, 9, 40, 126
10, 50496, Note_on_c, 9, 42, 96
10, 50500, Note_off_c, 9, 42, 96
10, 50500, Note_off_c, 9, 40, 126
10, 50500, Note_off_c, 9, 35, 120
10, 50592, Note_on_c, 9, 35, 124
10, 50592, Note_on_c, 9, 40, 126
10, 50592, Note_on_c, 9, 46, 71
10, 50596, Note_off_c, 9, 46, 92
10, 50596, Note_off_c, 9, 40, 126
10, 50596, Note_off_c, 9, 35, 124
10, 50688, Note_on_c, 9, 35, 124
10, 50688, Note_on_c, 9, 44, 124
10, 50688, Note_on_c, 9, 49, 55
10, 50688, Note_on_c, 9, 56, 109
10, 50688, Note_on_c, 9, 57, 11
10, 50692, Note_off_c, 9, 57, 17
10, 50692, Note_off_c, 9, 56, 109
10, 50692, Note_off_c, 9, 49, 85
10, 50692, Note_off_c, 9, 44, 124
10, 50692, Note_off_c, 9, 35, 124
10, 50784, Note_on_c, 9, 44, 72
10, 50784, Note_on_c, 9, 64, 64
10, 50788, Note_off_c, 9, 64, 64
10, 50788, Note_off_c, 9, 44, 72
10, 50880, Note_on_c, 9, 40, 124
10, 50880, Note_on_c, 9, 44, 124
10, 50880, Note_on_c, 9, 56, 124
10, 50880, Note_on_c, 9, 57, 11
10, 50884, Note_off_c, 9, 57, 17
10, 50884, Note_off_c, 9, 56, 124
10, 50884, Note_off_c, 9, 44, 124
10, 50884, Note_off_c, 9, 40, 124
10, 50976, Note_on_c, 9, 35, 124
10, 50976, Note_on_c, 9, 44, 112
10, 50976, Note_on_c, 9, 64, 76
10, 50980, Note_off_c, 9, 64, 76
10, 50980, Note_off_c, 9, 44, 112
10, 50980, Note_off_c, 9, 35, 124
10, 51072, Note_on_c, 9, 35, 116
10, 51072, Note_on_c, 9, 44, 124
10, 51072, Note_on_c, 9, 56, 109
10, 51072, Note_on_c, 9, 57, 11
10, 51076, Note_off_c, 9, 57, 17
10, 51076, Note_off_c, 9, 56, 109
10, 51076, Note_off_c, 9, 44, 124
10, 51076, Note_off_c, 9, 35, 116
10, 51168, Note_on_c, 9, 44, 116
10, 51168, Note_on_c, 9, 64, 72
10, 51172, Note_off_c, 9, 64, 72
10, 51172, Note_off_c, 9, 44, 116
10, 51264, Note_on_c, 9, 40, 124
10, 51264, Note_on_c, 9, 44, 124
10, 51264, Note_on_c, 9, 56, 116
10, 51264, Note_on_c, 9, 57, 11
10, 51268, Note_off_c, 9, 57, 17
10, 51268, Note_off_c, 9, 56, 116
10, 51268, Note_off_c, 9, 44, 124
10, 51268, Note_off_c, 9, 40, 124
10, 51360, Note_on_c, 9, 35, 124
10, 51360, Note_on_c, 9, 44, 112
10, 51360, Note_on_c, 9, 64, 84
10, 51364, Note_off_c, 9, 64, 84
10, 51364, Note_off_c, 9, 44, 112
10, 51364, Note_off_c, 9, 35, 124
10, 51456, Note_on_c, 9, 44, 124
10, 51456, Note_on_c, 9, 56, 116
10, 51456, Note_on_c, 9, 57, 11
10, 51460, Note_off_c, 9, 57, 17
10, 51460, Note_off_c, 9, 56, 116
10, 51460, Note_off_c, 9, 44, 124
10, 51552, Note_on_c, 9, 44, 112
10, 51552, Note_on_c, 9, 64, 84
10, 51556, Note_off_c, 9, 64, 84
10, 51556, Note_off_c, 9, 44, 112
10, 51648, Note_on_c, 9, 40, 124
10, 51648, Note_on_c, 9, 44, 108
10, 51648, Note_on_c, 9, 56, 124
10, 51648, Note_on_c, 9, 57, 11
10, 51652, Note_off_c, 9, 57, 17
10, 51652, Note_off_c, 9, 56, 124
10, 51652, Note_off_c, 9, 44, 108
10, 51652, Note_off_c, 9, 40, 124
10, 51744, Note_on_c, 9, 44, 100
10, 51744, Note_on_c, 9, 64, 72
10, 51748, Note_off_c, 9, 64, 72
10, 51748, Note_off_c, 9, 44, 100
10, 51840, Note_on_c, 9, 40, 124
10, 51840, Note_on_c, 9, 44, 120
10, 51840, Note_on_c, 9, 56, 124
10, 51840, Note_on_c, 9, 57, 11
10, 51844, Note_off_c, 9, 57, 17
10, 51844, Note_off_c, 9, 56, 124
10, 51844, Note_off_c, 9, 44, 120
10, 51844, Note_off_c, 9, 40, 124
10, 51936, Note_on_c, 9, 46, 96
10, 51936, Note_on_c, 9, 64, 76
10, 51940, Note_off_c, 9, 64, 76
10, 51940, Note_off_c, 9, 46, 124
10, 52032, Note_on_c, 9, 35, 124
10, 52032, Note_on_c, 9, 44, 116
10, 52032, Note_on_c, 9, 56, 124
10, 52032, Note_on_c, 9, 57, 11
10, 52036, Note_off_c, 9, 57, 17
10, 52036, Note_off_c, 9, 56, 124
10, 52036, Note_off_c, 9, 44, 116
10, 52036, Note_off_c, 9, 35, 124
10, 52128, Note_on_c, 9, 44, 104
10, 52128, Note_on_c, 9, 64, 68
10, 52132, Note_off_c, 9, 64, 68
10, 52132, Note_off_c, 9, 44, 104
10, 52224, Note_on_c, 9, 35, 124
10, 52224, Note_on_c, 9, 44, 124
10, 52224, Note_on_c, 9, 56, 124
10, 52224, Note_on_c, 9, 57, 11
10, 52228, Note_off_c, 9, 57, 17
10, 52228, Note_off_c, 9, 56, 124
10, 52228, Note_off_c, 9, 44, 124
10, 52228, Note_off_c, 9, 35, 124
10, 52320, Note_on_c, 9, 44, 112
10, 52320, Note_on_c, 9, 64, 68
10, 52324, Note_off_c, 9, 64, 68
10, 52324, Note_off_c, 9, 44, 112
10, 52416, Note_on_c, 9, 40, 124
10, 52416, Note_on_c, 9, 44, 124
10, 52416, Note_on_c, 9, 56, 124
10, 52416, Note_on_c, 9, 57, 11
10, 52420, Note_off_c, 9, 57, 17
10, 52420, Note_off_c, 9, 56, 124
10, 52420, Note_off_c, 9, 44, 124
10, 52420, Note_off_c, 9, 40, 124
10, 52512, Note_on_c, 9, 35, 116
10, 52512, Note_on_c, 9, 44, 108
10, 52512, Note_on_c, 9, 64, 60
10, 52516, Note_off_c, 9, 64, 60
10, 52516, Note_off_c, 9, 44, 108
10, 52516, Note_off_c, 9, 35, 116
10, 52608, Note_on_c, 9, 35, 124
10, 52608, Note_on_c, 9, 44, 120
10, 52608, Note_on_c, 9, 56, 116
10, 52608, Note_on_c, 9, 57, 11
10, 52612, Note_off_c, 9, 57, 17
10, 52612, Note_off_c, 9, 56, 116
10, 52612, Note_off_c, 9, 44, 120
10, 52612, Note_off_c, 9, 35, 124
10, 52704, Note_on_c, 9, 44, 116
10, 52704, Note_on_c, 9, 64, 68
10, 52708, Note_off_c, 9, 64, 68
10, 52708, Note_off_c, 9, 44, 116
10, 52800, Note_on_c, 9, 40, 124
10, 52800, Note_on_c, 9, 44, 120
10, 52800, Note_on_c, 9, 56, 124
10, 52800, Note_on_c, 9, 57, 11
10, 52804, Note_off_c, 9, 57, 17
10, 52804, Note_off_c, 9, 56, 124
10, 52804, Note_off_c, 9, 44, 120
10, 52804, Note_off_c, 9, 40, 124
10, 52896, Note_on_c, 9, 35, 124
10, 52896, Note_on_c, 9, 44, 108
10, 52900, Note_off_c, 9, 44, 108
10, 52900, Note_off_c, 9, 35, 124
10, 52992, Note_on_c, 9, 44, 120
10, 52992, Note_on_c, 9, 56, 116
10, 52992, Note_on_c, 9, 57, 11
10, 52992, Note_on_c, 9, 62, 96
10, 52996, Note_off_c, 9, 62, 96
10, 52996, Note_off_c, 9, 57, 17
10, 52996, Note_off_c, 9, 56, 116
10, 52996, Note_off_c, 9, 44, 120
10, 53088, Note_on_c, 9, 44, 112
10, 53088, Note_on_c, 9, 63, 76
10, 53092, Note_off_c, 9, 63, 76
10, 53092, Note_off_c, 9, 44, 112
10, 53136, Note_on_c, 9, 63, 80
10, 53140, Note_off_c, 9, 63, 80
10, 53184, Note_on_c, 9, 40, 124
10, 53184, Note_on_c, 9, 44, 120
10, 53184, Note_on_c, 9, 56, 124
10, 53184, Note_on_c, 9, 57, 11
10, 53184, Note_on_c, 9, 62, 76
10, 53188, Note_off_c, 9, 62, 76
10, 53188, Note_off_c, 9, 57, 17
10, 53188, Note_off_c, 9, 56, 124
10, 53188, Note_off_c, 9, 44, 120
10, 53188, Note_off_c, 9, 40, 124
10, 53280, Note_on_c, 9, 44, 108
10, 53280, Note_on_c, 9, 63, 80
10, 53284, Note_off_c, 9, 63, 80
10, 53284, Note_off_c, 9, 44, 108
10, 53328, Note_on_c, 9, 62, 68
10, 53332, Note_off_c, 9, 62, 68
10, 53376, Note_on_c, 9, 40, 124
10, 53376, Note_on_c, 9, 44, 112
10, 53376, Note_on_c, 9, 56, 124
10, 53376, Note_on_c, 9, 57, 11
10, 53376, Note_on_c, 9, 62, 76
10, 53380, Note_off_c, 9, 62, 76
10, 53380, Note_off_c, 9, 57, 17
10, 53380, Note_off_c, 9, 56, 124
10, 53380, Note_off_c, 9, 44, 112
10, 53380, Note_off_c, 9, 40, 124
10, 53472, Note_on_c, 9, 46, 90
10, 53472, Note_on_c, 9, 63, 80
10, 53476, Note_off_c, 9, 63, 80
10, 53476, Note_off_c, 9, 46, 116
10, 53520, Note_on_c, 9, 62, 92
10, 53524, Note_off_c, 9, 62, 92
10, 53568, Note_on_c, 9, 35, 124
10, 53568, Note_on_c, 9, 44, 120
10, 53568, Note_on_c, 9, 56, 124
10, 53568, Note_on_c, 9, 57, 11
10, 53568, Note_on_c, 9, 62, 92
10, 53572, Note_off_c, 9, 62, 92
10, 53572, Note_off_c, 9, 57, 17
10, 53572, Note_off_c, 9, 56, 124
10, 53572, Note_off_c, 9, 44, 120
10, 53572, Note_off_c, 9, 35, 124
10, 53664, Note_on_c, 9, 44, 124
10, 53664, Note_on_c, 9, 63, 88
10, 53668, Note_off_c, 9, 63, 88
10, 53668, Note_off_c, 9, 44, 124
10, 53672, Note_on_c, 9, 35, 124
10, 53676, Note_off_c, 9, 35, 124
10, 53760, Note_on_c, 9, 35, 100
10, 53760, Note_on_c, 9, 44, 84
10, 53760, Note_on_c, 9, 49, 55
10, 53760, Note_on_c, 9, 56, 124
10, 53760, Note_on_c, 9, 57, 11
10, 53764, Note_off_c, 9, 57, 17
10, 53764, Note_off_c, 9, 56, 124
10, 53764, Note_off_c, 9, 49, 85
10, 53764, Note_off_c, 9, 44, 84
10, 53764, Note_off_c, 9, 35, 100
10, 53856, Note_on_c, 9, 44, 72
10, 53860, Note_off_c, 9, 44, 72
10, 53952, Note_on_c, 9, 40, 108
10, 53952, Note_on_c, 9, 46, 59
10, 53952, Note_on_c, 9, 56, 124
10, 53952, Note_on_c, 9, 57, 11
10, 53956, Note_off_c, 9, 57, 17
10, 53956, Note_off_c, 9, 56, 124
10, 53956, Note_off_c, 9, 46, 76
10, 53956, Note_off_c, 9, 40, 108
10, 54048, Note_on_c, 9, 44, 44
10, 54052, Note_off_c, 9, 44, 44
10, 54144, Note_on_c, 9, 35, 96
10, 54144, Note_on_c, 9, 44, 72
10, 54144, Note_on_c, 9, 56, 116
10, 54144, Note_on_c, 9, 57, 11
10, 54148, Note_off_c, 9, 57, 17
10, 54148, Note_off_c, 9, 56, 116
10, 54148, Note_off_c, 9, 44, 72
10, 54148, Note_off_c, 9, 35, 96
10, 54240, Note_on_c, 9, 35, 96
10, 54240, Note_on_c, 9, 44, 72
10, 54244, Note_off_c, 9, 44, 72
10, 54244, Note_off_c, 9, 35, 96
10, 54336, Note_on_c, 9, 40, 108
10, 54336, Note_on_c, 9, 46, 59
10, 54336, Note_on_c, 9, 56, 124
10, 54336, Note_on_c, 9, 57, 11
10, 54340, Note_off_c, 9, 57, 17
10, 54340, Note_off_c, 9, 56, 124
10, 54340, Note_off_c, 9, 46, 76
10, 54340, Note_off_c, 9, 40, 108
10, 54432, Note_on_c, 9, 44, 64
10, 54436, Note_off_c, 9, 44, 64
10, 54528, Note_on_c, 9, 35, 96
10, 54528, Note_on_c, 9, 44, 80
10, 54528, Note_on_c, 9, 56, 116
10, 54528, Note_on_c, 9, 57, 11
10, 54532, Note_off_c, 9, 57, 17
10, 54532, Note_off_c, 9, 56, 116
10, 54532, Note_off_c, 9, 44, 80
10, 54532, Note_off_c, 9, 35, 96
10, 54624, Note_on_c, 9, 35, 92
10, 54624, Note_on_c, 9, 44, 52
10, 54628, Note_off_c, 9, 44, 52
10, 54628, Note_off_c, 9, 35, 92
10, 54720, Note_on_c, 9, 40, 104
10, 54720, Note_on_c, 9, 46, 59
10, 54720, Note_on_c, 9, 56, 124
10, 54720, Note_on_c, 9, 57, 11
10, 54724, Note_off_c, 9, 57, 17
10, 54724, Note_off_c, 9, 56, 124
10, 54724, Note_off_c, 9, 46, 76
10, 54724, Note_off_c, 9, 40, 104
10, 54816, Note_on_c, 9, 44, 60
10, 54820, Note_off_c, 9, 44, 60
10, 54912, Note_on_c, 9, 35, 96
10, 54912, Note_on_c, 9, 44, 76
10, 54912, Note_on_c, 9, 56, 124
10, 54912, Note_on_c, 9, 57, 11
10, 54916, Note_off_c, 9, 57, 17
10, 54916, Note_off_c, 9, 56, 124
10, 54916, Note_off_c, 9, 44, 76
10, 54916, Note_off_c, 9, 35, 96
10, 55008, Note_on_c, 9, 35, 96
10, 55008, Note_on_c, 9, 44, 68
10, 55012, Note_off_c, 9, 44, 68
10, 55012, Note_off_c, 9, 35, 96
10, 55104, Note_on_c, 9, 40, 100
10, 55104, Note_on_c, 9, 44, 84
10, 55104, Note_on_c, 9, 56, 124
10, 55104, Note_on_c, 9, 57, 11
10, 55108, Note_off_c, 9, 57, 17
10, 55108, Note_off_c, 9, 56, 124
10, 55108, Note_off_c, 9, 44, 84
10, 55108, Note_off_c, 9, 40, 100
10, 55200, Note_on_c, 9, 40, 100
10, 55200, Note_on_c, 9, 46, 65
10, 55200, Note_on_c, 9, 49, 33
10, 55204, Note_off_c, 9, 49, 52
10, 55204, Note_off_c, 9, 46, 84
10, 55204, Note_off_c, 9, 40, 100
10, 55248, Note_on_c, 9, 44, 84
10, 55252, Note_off_c, 9, 44, 84
10, 55296, Note_on_c, 9, 42, 92
10, 55300, Note_off_c, 9, 42, 92
10, 55392, Note_on_c, 9, 46, 43
10, 55396, Note_off_c, 9, 46, 56
10, 55488, Note_on_c, 9, 46, 53
10, 55492, Note_off_c, 9, 46, 68
10, 55584, Note_on_c, 9, 40, 110
10, 55584, Note_on_c, 9, 42, 72
10, 55584, Note_on_c, 9, 52, 76
10, 55588, Note_off_c, 9, 52, 76
10, 55588, Note_off_c, 9, 42, 72
10, 55588, Note_off_c, 9, 40, 110
10, 55680, Note_on_c, 9, 42, 72
10, 55684, Note_off_c, 9, 42, 72
10, 55776, Note_on_c, 9, 46, 46
10, 55780, Note_off_c, 9, 46, 60
10, 55872, Note_on_c, 9, 46, 49
10, 55876, Note_off_c, 9, 46, 64
10, 55968, Note_on_c, 9, 40, 94
10, 55968, Note_on_c, 9, 42, 52
10, 55968, Note_on_c, 9, 52, 68
10, 55972, Note_off_c, 9, 52, 68
10, 55972, Note_off_c, 9, 42, 52
10, 55972, Note_off_c, 9, 40, 94
10, 56064, Note_on_c, 9, 40, 74
10, 56064, Note_on_c, 9, 42, 56
10, 56068, Note_off_c, 9, 42, 56
10, 56068, Note_off_c, 9, 40, 74
10, 56160, Note_on_c, 9, 40, 46
10, 56160, Note_on_c, 9, 42, 64
10, 56160, Note_on_c, 9, 52, 32
10, 56164, Note_off_c, 9, 52, 32
10, 56164, Note_off_c, 9, 42, 64
10, 56164, Note_off_c, 9, 40, 46
10, 56256, Note_on_c, 9, 40, 54
10, 56256, Note_on_c, 9, 42, 104
10, 56256, Note_on_c, 9, 52, 32
10, 56260, Note_off_c, 9, 52, 32
10, 56260, Note_off_c, 9, 42, 104
10, 56260, Note_off_c, 9, 40, 54
10, 56352, Note_on_c, 9, 40, 58
10, 56352, Note_on_c, 9, 42, 88
10, 56352, Note_on_c, 9, 52, 32
10, 56356, Note_off_c, 9, 52, 32
10, 56356, Note_off_c, 9, 42, 88
10, 56356, Note_off_c, 9, 40, 58
10, 56448, Note_on_c, 9, 40, 122
10, 56448, Note_on_c, 9, 42, 92
10, 56448, Note_on_c, 9, 52, 56
10, 56452, Note_off_c, 9, 52, 56
10, 56452, Note_off_c, 9, 42, 92
10, 56452, Note_off_c, 9, 40, 122
10, 56544, Note_on_c, 9, 35, 124
10, 56544, Note_on_c, 9, 42, 96
10, 56544, Note_on_c, 9, 52, 52
10, 56548, Note_off_c, 9, 52, 52
10, 56548, Note_off_c, 9, 42, 96
10, 56548, Note_off_c, 9, 35, 124
10, 56640, Note_on_c, 9, 40, 122
10, 56640, Note_on_c, 9, 42, 96
10, 56640, Note_on_c, 9, 52, 68
10, 56644, Note_off_c, 9, 52, 68
10, 56644, Note_off_c, 9, 42, 96
10, 56644, Note_off_c, 9, 40, 122
10, 56736, Note_on_c, 9, 35, 124
10, 56736, Note_on_c, 9, 46, 71
10, 56736, Note_on_c, 9, 52, 96
10, 56740, Note_off_c, 9, 52, 96
10, 56740, Note_off_c, 9, 46, 92
10, 56740, Note_off_c, 9, 35, 124
10, 56832, Note_on_c, 9, 35, 124
10, 56832, Note_on_c, 9, 44, 124
10, 56832, Note_on_c, 9, 49, 55
10, 56832, Note_on_c, 9, 52, 47
10, 56832, Note_on_c, 9, 56, 109
10, 56836, Note_off_c, 9, 56, 109
10, 56836, Note_off_c, 9, 52, 47
10, 56836, Note_off_c, 9, 49, 85
10, 56836, Note_off_c, 9, 44, 124
10, 56836, Note_off_c, 9, 35, 124
10, 56928, Note_on_c, 9, 44, 72
10, 56932, Note_off_c, 9, 44, 72
10, 57024, Note_on_c, 9, 40, 124
10, 57024, Note_on_c, 9, 44, 124
10, 57024, Note_on_c, 9, 52, 47
10, 57024, Note_on_c, 9, 56, 124
10, 57028, Note_off_c, 9, 56, 124
10, 57028, Note_off_c, 9, 52, 47
10, 57028, Note_off_c, 9, 44, 124
10, 57028, Note_off_c, 9, 40, 124
10, 57120, Note_on_c, 9, 35, 124
10, 57120, Note_on_c, 9, 44, 112
10, 57124, Note_off_c, 9, 44, 112
10, 57124, Note_off_c, 9, 35, 124
10, 57216, Note_on_c, 9, 35, 116
10, 57216, Note_on_c, 9, 44, 124
10, 57216, Note_on_c, 9, 52, 47
10, 57216, Note_on_c, 9, 56, 109
10, 57220, Note_off_c, 9, 56, 109
10, 57220, Note_off_c, 9, 52, 47
10, 57220, Note_off_c, 9, 44, 124
10, 57220, Note_off_c, 9, 35, 116
10, 57312, Note_on_c, 9, 44, 116
10, 57316, Note_off_c, 9, 44, 116
10, 57408, Note_on_c, 9, 40, 124
10, 57408, Note_on_c, 9, 44, 124
10, 57408, Note_on_c, 9, 52, 47
10, 57408, Note_on_c, 9, 56, 116
10, 57412, Note_off_c, 9, 56, 116
10, 57412, Note_off_c, 9, 52, 47
10, 57412, Note_off_c, 9, 44, 124
10, 57412, Note_off_c, 9, 40, 124
10, 57504, Note_on_c, 9, 35, 124
10, 57504, Note_on_c, 9, 44, 112
10, 57508, Note_off_c, 9, 44, 112
10, 57508, Note_off_c, 9, 35, 124
10, 57600, Note_on_c, 9, 44, 124
10, 57600, Note_on_c, 9, 51, 96
10, 57600, Note_on_c, 9, 52, 47
10, 57600, Note_on_c, 9, 56, 116
10, 57604, Note_off_c, 9, 56, 116
10, 57604, Note_off_c, 9, 52, 47
10, 57604, Note_off_c, 9, 51, 96
10, 57604, Note_off_c, 9, 44, 124
10, 57696, Note_on_c, 9, 44, 112
10, 57700, Note_off_c, 9, 44, 112
10, 57792, Note_on_c, 9, 40, 124
10, 57792, Note_on_c, 9, 44, 108
10, 57792, Note_on_c, 9, 51, 100
10, 57792, Note_on_c, 9, 52, 47
10, 57792, Note_on_c, 9, 56, 124
10, 57796, Note_off_c, 9, 56, 124
10, 57796, Note_off_c, 9, 52, 47
10, 57796, Note_off_c, 9, 51, 100
10, 57796, Note_off_c, 9, 44, 108
10, 57796, Note_off_c, 9, 40, 124
10, 57888, Note_on_c, 9, 44, 100
10, 57892, Note_off_c, 9, 44, 100
10, 57984, Note_on_c, 9, 40, 124
10, 57984, Note_on_c, 9, 44, 120
10, 57984, Note_on_c, 9, 51, 100
10, 57984, Note_on_c, 9, 52, 47
10, 57984, Note_on_c, 9, 56, 124
10, 57988, Note_off_c, 9, 56, 124
10, 57988, Note_off_c, 9, 52, 47
10, 57988, Note_off_c, 9, 51, 100
10, 57988, Note_off_c, 9, 44, 120
10, 57988, Note_off_c, 9, 40, 124
10, 58080, Note_on_c, 9, 46, 96
10, 58084, Note_off_c, 9, 46, 124
10, 58176, Note_on_c, 9, 35, 124
10, 58176, Note_on_c, 9, 44, 116
10, 58176, Note_on_c, 9, 51, 92
10, 58176, Note_on_c, 9, 52, 47
10, 58176, Note_on_c, 9, 56, 124
10, 58180, Note_off_c, 9, 56, 124
10, 58180, Note_off_c, 9, 52, 47
10, 58180, Note_off_c, 9, 51, 92
10, 58180, Note_off_c, 9, 44, 116
10, 58180, Note_off_c, 9, 35, 124
10, 58272, Note_on_c, 9, 44, 104
10, 58272, Note_on_c, 9, 57, 54
10, 58276, Note_off_c, 9, 57, 84
10, 58276, Note_off_c, 9, 44, 104
10, 58368, Note_on_c, 9, 35, 124
10, 58368, Note_on_c, 9, 44, 124
10, 58368, Note_on_c, 9, 49, 55
10, 58368, Note_on_c, 9, 52, 47
10, 58368, Note_on_c, 9, 56, 124
10, 58372, Note_off_c, 9, 56, 124
10, 58372, Note_off_c, 9, 52, 47
10, 58372, Note_off_c, 9, 49, 85
10, 58372, Note_off_c, 9, 44, 124
10, 58372, Note_off_c, 9, 35, 124
10, 58464, Note_on_c, 9, 44, 112
10, 58468, Note_off_c, 9, 44, 112
10, 58560, Note_on_c, 9, 40, 124
10, 58560, Note_on_c, 9, 44, 124
10, 58560, Note_on_c, 9, 52, 47
10, 58560, Note_on_c, 9, 56, 124
10, 58564, Note_off_c, 9, 56, 124
10, 58564, Note_off_c, 9, 52, 47
10, 58564, Note_off_c, 9, 44, 124
10, 58564, Note_off_c, 9, 40, 124
10, 58656, Note_on_c, 9, 35, 116
10, 58656, Note_on_c, 9, 44, 108
10, 58660, Note_off_c, 9, 44, 108
10, 58660, Note_off_c, 9, 35, 116
10, 58752, Note_on_c, 9, 35, 124
10, 58752, Note_on_c, 9, 44, 120
10, 58752, Note_on_c, 9, 52, 47
10, 58752, Note_on_c, 9, 56, 116
10, 58756, Note_off_c, 9, 56, 116
10, 58756, Note_off_c, 9, 52, 47
10, 58756, Note_off_c, 9, 44, 120
10, 58756, Note_off_c, 9, 35, 124
10, 58848, Note_on_c, 9, 44, 116
10, 58852, Note_off_c, 9, 44, 116
10, 58944, Note_on_c, 9, 40, 124
10, 58944, Note_on_c, 9, 44, 120
10, 58944, Note_on_c, 9, 52, 47
10, 58944, Note_on_c, 9, 56, 124
10, 58948, Note_off_c, 9, 56, 124
10, 58948, Note_off_c, 9, 52, 47
10, 58948, Note_off_c, 9, 44, 120
10, 58948, Note_off_c, 9, 40, 124
10, 59040, Note_on_c, 9, 35, 124
10, 59040, Note_on_c, 9, 44, 108
10, 59044, Note_off_c, 9, 44, 108
10, 59044, Note_off_c, 9, 35, 124
10, 59136, Note_on_c, 9, 44, 120
10, 59136, Note_on_c, 9, 52, 47
10, 59136, Note_on_c, 9, 56, 116
10, 59140, Note_off_c, 9, 56, 116
10, 59140, Note_off_c, 9, 52, 47
10, 59140, Note_off_c, 9, 44, 120
10, 59232, Note_on_c, 9, 44, 112
10, 59236, Note_off_c, 9, 44, 112
10, 59328, Note_on_c, 9, 40, 124
10, 59328, Note_on_c, 9, 44, 120
10, 59328, Note_on_c, 9, 52, 47
10, 59328, Note_on_c, 9, 56, 124
10, 59332, Note_off_c, 9, 56, 124
10, 59332, Note_off_c, 9, 52, 47
10, 59332, Note_off_c, 9, 44, 120
10, 59332, Note_off_c, 9, 40, 124
10, 59424, Note_on_c, 9, 44, 108
10, 59428, Note_off_c, 9, 44, 108
10, 59520, Note_on_c, 9, 40, 124
10, 59520, Note_on_c, 9, 44, 112
10, 59520, Note_on_c, 9, 52, 47
10, 59520, Note_on_c, 9, 56, 124
10, 59524, Note_off_c, 9, 56, 124
10, 59524, Note_off_c, 9, 52, 47
10, 59524, Note_off_c, 9, 44, 112
10, 59524, Note_off_c, 9, 40, 124
10, 59616, Note_on_c, 9, 35, 90
10, 59616, Note_on_c, 9, 46, 90
10, 59620, Note_off_c, 9, 46, 116
10, 59620, Note_off_c, 9, 35, 90
10, 59712, Note_on_c, 9, 35, 124
10, 59712, Note_on_c, 9, 44, 120
10, 59712, Note_on_c, 9, 52, 47
10, 59712, Note_on_c, 9, 56, 124
10, 59716, Note_off_c, 9, 56, 124
10, 59716, Note_off_c, 9, 52, 47
10, 59716, Note_off_c, 9, 44, 120
10, 59716, Note_off_c, 9, 35, 124
10, 59808, Note_on_c, 9, 44, 124
10, 59812, Note_off_c, 9, 44, 124
10, 59904, Note_on_c, 9, 35, 124
10, 59904, Note_on_c, 9, 44, 124
10, 59904, Note_on_c, 9, 49, 55
10, 59904, Note_on_c, 9, 52, 47
10, 59904, Note_on_c, 9, 56, 124
10, 59908, Note_off_c, 9, 56, 124
10, 59908, Note_off_c, 9, 52, 47
10, 59908, Note_off_c, 9, 49, 85
10, 59908, Note_off_c, 9, 44, 124
10, 59908, Note_off_c, 9, 35, 124
10, 60000, Note_on_c, 9, 44, 112
10, 60004, Note_off_c, 9, 44, 112
10, 60096, Note_on_c, 9, 40, 124
10, 60096, Note_on_c, 9, 44, 124
10, 60096, Note_on_c, 9, 52, 47
10, 60096, Note_on_c, 9, 56, 124
10, 60100, Note_off_c, 9, 56, 124
10, 60100, Note_off_c, 9, 52, 47
10, 60100, Note_off_c, 9, 44, 124
10, 60100, Note_off_c, 9, 40, 124
10, 60192, Note_on_c, 9, 35, 116
10, 60192, Note_on_c, 9, 44, 108
10, 60196, Note_off_c, 9, 44, 108
10, 60196, Note_off_c, 9, 35, 116
10, 60288, Note_on_c, 9, 35, 124
10, 60288, Note_on_c, 9, 44, 120
10, 60288, Note_on_c, 9, 52, 47
10, 60288, Note_on_c, 9, 56, 116
10, 60292, Note_off_c, 9, 56, 116
10, 60292, Note_off_c, 9, 52, 47
10, 60292, Note_off_c, 9, 44, 120
10, 60292, Note_off_c, 9, 35, 124
10, 60384, Note_on_c, 9, 44, 116
10, 60388, Note_off_c, 9, 44, 116
10, 60480, Note_on_c, 9, 40, 124
10, 60480, Note_on_c, 9, 44, 120
10, 60480, Note_on_c, 9, 52, 47
10, 60480, Note_on_c, 9, 56, 124
10, 60484, Note_off_c, 9, 56, 124
10, 60484, Note_off_c, 9, 52, 47
10, 60484, Note_off_c, 9, 44, 120
10, 60484, Note_off_c, 9, 40, 124
10, 60576, Note_on_c, 9, 35, 124
10, 60576, Note_on_c, 9, 44, 108
10, 60580, Note_off_c, 9, 44, 108
10, 60580, Note_off_c, 9, 35, 124
10, 60672, Note_on_c, 9, 44, 120
10, 60672, Note_on_c, 9, 52, 47
10, 60672, Note_on_c, 9, 56, 116
10, 60676, Note_off_c, 9, 56, 116
10, 60676, Note_off_c, 9, 52, 47
10, 60676, Note_off_c, 9, 44, 120
10, 60768, Note_on_c, 9, 44, 112
10, 60772, Note_off_c, 9, 44, 112
10, 60864, Note_on_c, 9, 40, 124
10, 60864, Note_on_c, 9, 44, 120
10, 60864, Note_on_c, 9, 52, 47
10, 60864, Note_on_c, 9, 56, 124
10, 60868, Note_off_c, 9, 56, 124
10, 60868, Note_off_c, 9, 52, 47
10, 60868, Note_off_c, 9, 44, 120
10, 60868, Note_off_c, 9, 40, 124
10, 60960, Note_on_c, 9, 44, 108
10, 60964, Note_off_c, 9, 44, 108
10, 61056, Note_on_c, 9, 40, 124
10, 61056, Note_on_c, 9, 44, 112
10, 61056, Note_on_c, 9, 52, 47
10, 61056, Note_on_c, 9, 56, 124
10, 61060, Note_off_c, 9, 56, 124
10, 61060, Note_off_c, 9, 52, 47
10, 61060, Note_off_c, 9, 44, 112
10, 61060, Note_off_c, 9, 40, 124
10, 61152, Note_on_c, 9, 35, 90
10, 61152, Note_on_c, 9, 46, 90
10, 61156, Note_off_c, 9, 46, 116
10, 61156, Note_off_c, 9, 35, 90
10, 61248, Note_on_c, 9, 35, 124
10, 61248, Note_on_c, 9, 44, 120
10, 61248, Note_on_c, 9, 52, 47
10, 61248, Note_on_c, 9, 56, 124
10, 61252, Note_off_c, 9, 56, 124
10, 61252, Note_off_c, 9, 52, 47
10, 61252, Note_off_c, 9, 44, 120
10, 61252, Note_off_c, 9, 35, 124
10, 61344, Note_on_c, 9, 44, 124
10, 61348, Note_off_c, 9, 44, 124
10, 61440, Note_on_c, 9, 35, 124
10, 61444, Note_off_c, 9, 35, 124
10, 63360, Note_on_c, 9, 63, 34
10, 63364, Note_off_c, 9, 63, 34
10, 63384, Note_on_c, 9, 63, 50
10, 63388, Note_off_c, 9, 63, 50
10, 63408, Note_on_c, 9, 63, 66
10, 63412, Note_off_c, 9, 63, 66
10, 63432, Note_on_c, 9, 63, 82
10, 63436, Note_off_c, 9, 63, 82
10, 63456, Note_on_c, 9, 63, 98
10, 63460, Note_off_c, 9, 63, 98
10, 63504, Note_on_c, 9, 63, 100
10, 63508, Note_off_c, 9, 63, 100
10, 63552, Note_on_c, 9, 40, 118
10, 63552, Note_on_c, 9, 41, 120
10, 63552, Note_on_c, 9, 63, 100
10, 63556, Note_off_c, 9, 63, 100
10, 63556, Note_off_c, 9, 41, 120
10, 63556, Note_off_c, 9, 40, 118
10, 63600, Note_on_c, 9, 63, 108
10, 63604, Note_off_c, 9, 63, 108
10, 63648, Note_on_c, 9, 64, 96
10, 63652, Note_off_c, 9, 64, 96
10, 63744, Note_on_c, 9, 49, 55
10, 63744, Note_on_c, 9, 51, 100
10, 63744, Note_on_c, 9, 56, 109
10, 63748, Note_off_c, 9, 56, 109
10, 63748, Note_off_c, 9, 51, 100
10, 63748, Note_off_c, 9, 49, 85
10, 63936, Note_on_c, 9, 53, 76
10, 63936, Note_on_c, 9, 56, 124
10, 63940, Note_off_c, 9, 56, 124
10, 63940, Note_off_c, 9, 53, 76
10, 64128, Note_on_c, 9, 51, 56
10, 64128, Note_on_c, 9, 56, 109
10, 64132, Note_off_c, 9, 56, 109
10, 64132, Note_off_c, 9, 51, 56
10, 64320, Note_on_c, 9, 51, 72
10, 64320, Note_on_c, 9, 56, 116
10, 64324, Note_off_c, 9, 56, 116
10, 64324, Note_off_c, 9, 51, 72
10, 64512, Note_on_c, 9, 51, 84
10, 64512, Note_on_c, 9, 56, 116
10, 64516, Note_off_c, 9, 56, 116
10, 64516, Note_off_c, 9, 51, 84
10, 64704, Note_on_c, 9, 51, 64
10, 64704, Note_on_c, 9, 56, 124
10, 64708, Note_off_c, 9, 56, 124
10, 64708, Note_off_c, 9, 51, 64
10, 64896, Note_on_c, 9, 40, 124
10, 64896, Note_on_c, 9, 51, 76
10, 64896, Note_on_c, 9, 56, 124
10, 64900, Note_off_c, 9, 56, 124
10, 64900, Note_off_c, 9, 51, 76
10, 64900, Note_off_c, 9, 40, 124
10, 65088, Note_on_c, 9, 40, 124
10, 65088, Note_on_c, 9, 51, 76
10, 65088, Note_on_c, 9, 56, 124
10, 65092, Note_off_c, 9, 56, 124
10, 65092, Note_off_c, 9, 51, 76
10, 65092, Note_off_c, 9, 40, 124
10, 65280, Note_on_c, 9, 49, 55
10, 65280, Note_on_c, 9, 51, 92
10, 65280, Note_on_c, 9, 56, 124
10, 65284, Note_off_c, 9, 56, 124
10, 65284, Note_off_c, 9, 51, 92
10, 65284, Note_off_c, 9, 49, 85
10, 65472, Note_on_c, 9, 40, 124
10, 65472, Note_on_c, 9, 53, 88
10, 65472, Note_on_c, 9, 56, 124
10, 65476, Note_off_c, 9, 56, 124
10, 65476, Note_off_c, 9, 53, 88
10, 65476, Note_off_c, 9, 40, 124
10, 65664, Note_on_c, 9, 51, 84
10, 65664, Note_on_c, 9, 56, 116
10, 65668, Note_off_c, 9, 56, 116
10, 65668, Note_off_c, 9, 51, 84
10, 65856, Note_on_c, 9, 40, 124
10, 65856, Note_on_c, 9, 53, 88
10, 65856, Note_on_c, 9, 56, 124
10, 65860, Note_off_c, 9, 56, 124
10, 65860, Note_off_c, 9, 53, 88
10, 65860, Note_off_c, 9, 40, 124
10, 65952, Note_on_c, 9, 35, 124
10, 65956, Note_off_c, 9, 35, 124
10, 66048, Note_on_c, 9, 51, 72
10, 66048, Note_on_c, 9, 56, 116
10, 66052, Note_off_c, 9, 56, 116
10, 66052, Note_off_c, 9, 51, 72
10, 66240, Note_on_c, 9, 40, 124
10, 66240, Note_on_c, 9, 53, 96
10, 66240, Note_on_c, 9, 56, 124
10, 66244, Note_off_c, 9, 56, 124
10, 66244, Note_off_c, 9, 53, 96
10, 66244, Note_off_c, 9, 40, 124
10, 66432, Note_on_c, 9, 51, 88
10, 66432, Note_on_c, 9, 56, 124
10, 66436, Note_off_c, 9, 56, 124
10, 66436, Note_off_c, 9, 51, 88
10, 66528, Note_on_c, 9, 35, 112
10, 66532, Note_off_c, 9, 35, 112
10, 66624, Note_on_c, 9, 40, 124
10, 66624, Note_on_c, 9, 53, 96
10, 66624, Note_on_c, 9, 56, 124
10, 66628, Note_off_c, 9, 56, 124
10, 66628, Note_off_c, 9, 53, 96
10, 66628, Note_off_c, 9, 40, 124
10, 66720, Note_on_c, 9, 35, 112
10, 66724, Note_off_c, 9, 35, 112
10, 66816, Note_on_c, 9, 35, 112
10, 66816, Note_on_c, 9, 49, 55
10, 66816, Note_on_c, 9, 51, 92
10, 66816, Note_on_c, 9, 52, 47
10, 66816, Note_on_c, 9, 56, 124
10, 66820, Note_off_c, 9, 56, 124
10, 66820, Note_off_c, 9, 52, 47
10, 66820, Note_off_c, 9, 51, 92
10, 66820, Note_off_c, 9, 49, 85
10, 66820, Note_off_c, 9, 35, 112
10, 67008, Note_on_c, 9, 40, 114
10, 67008, Note_on_c, 9, 52, 47
10, 67008, Note_on_c, 9, 53, 88
10, 67008, Note_on_c, 9, 56, 124
10, 67012, Note_off_c, 9, 56, 124
10, 67012, Note_off_c, 9, 53, 88
10, 67012, Note_off_c, 9, 52, 47
10, 67012, Note_off_c, 9, 40, 114
10, 67200, Note_on_c, 9, 51, 84
10, 67200, Note_on_c, 9, 52, 47
10, 67200, Note_on_c, 9, 56, 116
10, 67204, Note_off_c, 9, 56, 116
10, 67204, Note_off_c, 9, 52, 47
10, 67204, Note_off_c, 9, 51, 84
10, 67296, Note_on_c, 9, 35, 116
10, 67300, Note_off_c, 9, 35, 116
10, 67392, Note_on_c, 9, 40, 110
10, 67392, Note_on_c, 9, 52, 47
10, 67392, Note_on_c, 9, 53, 88
10, 67392, Note_on_c, 9, 56, 124
10, 67396, Note_off_c, 9, 56, 124
10, 67396, Note_off_c, 9, 53, 88
10, 67396, Note_off_c, 9, 52, 47
10, 67396, Note_off_c, 9, 40, 110
10, 67488, Note_on_c, 9, 35, 96
10, 67492, Note_off_c, 9, 35, 96
10, 67584, Note_on_c, 9, 51, 72
10, 67584, Note_on_c, 9, 52, 47
10, 67584, Note_on_c, 9, 56, 116
10, 67588, Note_off_c, 9, 56, 116
10, 67588, Note_off_c, 9, 52, 47
10, 67588, Note_off_c, 9, 51, 72
10, 67776, Note_on_c, 9, 40, 110
10, 67776, Note_on_c, 9, 52, 47
10, 67776, Note_on_c, 9, 53, 96
10, 67776, Note_on_c, 9, 56, 124
10, 67780, Note_off_c, 9, 56, 124
10, 67780, Note_off_c, 9, 53, 96
10, 67780, Note_off_c, 9, 52, 47
10, 67780, Note_off_c, 9, 40, 110
10, 67968, Note_on_c, 9, 51, 88
10, 67968, Note_on_c, 9, 52, 47
10, 67968, Note_on_c, 9, 56, 124
10, 67972, Note_off_c, 9, 56, 124
10, 67972, Note_off_c, 9, 52, 47
10, 67972, Note_off_c, 9, 51, 88
10, 68160, Note_on_c, 9, 40, 114
10, 68160, Note_on_c, 9, 52, 47
10, 68160, Note_on_c, 9, 53, 96
10, 68160, Note_on_c, 9, 56, 124
10, 68164, Note_off_c, 9, 56, 124
10, 68164, Note_off_c, 9, 53, 96
10, 68164, Note_off_c, 9, 52, 47
10, 68164, Note_off_c, 9, 40, 114
10, 68256, Note_on_c, 9, 35, 100
10, 68260, Note_off_c, 9, 35, 100
10, 68352, Note_on_c, 9, 35, 112
10, 68352, Note_on_c, 9, 49, 55
10, 68352, Note_on_c, 9, 51, 92
10, 68352, Note_on_c, 9, 52, 47
10, 68352, Note_on_c, 9, 56, 124
10, 68356, Note_off_c, 9, 56, 124
10, 68356, Note_off_c, 9, 52, 47
10, 68356, Note_off_c, 9, 51, 92
10, 68356, Note_off_c, 9, 49, 85
10, 68356, Note_off_c, 9, 35, 112
10, 68544, Note_on_c, 9, 40, 114
10, 68544, Note_on_c, 9, 52, 47
10, 68544, Note_on_c, 9, 53, 88
10, 68544, Note_on_c, 9, 56, 124
10, 68548, Note_off_c, 9, 56, 124
10, 68548, Note_off_c, 9, 53, 88
10, 68548, Note_off_c, 9, 52, 47
10, 68548, Note_off_c, 9, 40, 114
10, 68736, Note_on_c, 9, 51, 84
10, 68736, Note_on_c, 9, 52, 47
10, 68736, Note_on_c, 9, 56, 116
10, 68740, Note_off_c, 9, 56, 116
10, 68740, Note_off_c, 9, 52, 47
10, 68740, Note_off_c, 9, 51, 84
10, 68832, Note_on_c, 9, 35, 116
10, 68836, Note_off_c, 9, 35, 116
10, 68928, Note_on_c, 9, 40, 110
10, 68928, Note_on_c, 9, 52, 47
10, 68928, Note_on_c, 9, 53, 88
10, 68928, Note_on_c, 9, 56, 124
10, 68932, Note_off_c, 9, 56, 124
10, 68932, Note_off_c, 9, 53, 88
10, 68932, Note_off_c, 9, 52, 47
10, 68932, Note_off_c, 9, 40, 110
10, 69024, Note_on_c, 9, 35, 96
10, 69028, Note_off_c, 9, 35, 96
10, 69120, Note_on_c, 9, 52, 47
10, 69120, Note_on_c, 9, 63, 31
10, 69124, Note_off_c, 9, 63, 31
10, 69124, Note_off_c, 9, 52, 47
10, 69168, Note_on_c, 9, 51, 2
10, 69168, Note_on_c, 9, 63, 40
10, 69172, Note_off_c, 9, 63, 40
10, 69172, Note_off_c, 9, 51, 2
10, 69192, Note_on_c, 9, 51, 7
10, 69196, Note_off_c, 9, 51, 7
10, 69216, Note_on_c, 9, 51, 11
10, 69216, Note_on_c, 9, 63, 48
10, 69220, Note_off_c, 9, 63, 48
10, 69220, Note_off_c, 9, 51, 11
10, 69240, Note_on_c, 9, 51, 15
10, 69240, Note_on_c, 9, 63, 32
10, 69244, Note_off_c, 9, 63, 32
10, 69244, Note_off_c, 9, 51, 15
10, 69264, Note_on_c, 9, 51, 19
10, 69264, Note_on_c, 9, 63, 56
10, 69268, Note_off_c, 9, 63, 56
10, 69268, Note_off_c, 9, 51, 19
10, 69288, Note_on_c, 9, 51, 24
10, 69292, Note_off_c, 9, 51, 24
10, 69312, Note_on_c, 9, 40, 98
10, 69312, Note_on_c, 9, 51, 28
10, 69312, Note_on_c, 9, 52, 47
10, 69312, Note_on_c, 9, 63, 84
10, 69316, Note_off_c, 9, 63, 84
10, 69316, Note_off_c, 9, 52, 47
10, 69316, Note_off_c, 9, 51, 28
10, 69316, Note_off_c, 9, 40, 98
10, 69336, Note_on_c, 9, 51, 32
10, 69340, Note_off_c, 9, 51, 32
10, 69360, Note_on_c, 9, 51, 36
10, 69364, Note_off_c, 9, 51, 36
10, 69384, Note_on_c, 9, 51, 41
10, 69388, Note_off_c, 9, 51, 41
10, 69408, Note_on_c, 9, 51, 45
10, 69408, Note_on_c, 9, 61, 100
10, 69412, Note_off_c, 9, 61, 100
10, 69412, Note_off_c, 9, 51, 45
10, 69432, Note_on_c, 9, 51, 49
10, 69436, Note_off_c, 9, 51, 49
10, 69456, Note_on_c, 9, 51, 53
10, 69460, Note_off_c, 9, 51, 53
10, 69480, Note_on_c, 9, 51, 58
10, 69484, Note_off_c, 9, 51, 58
10, 69504, Note_on_c, 9, 40, 66
10, 69504, Note_on_c, 9, 40, 76
10, 69504, Note_on_c, 9, 52, 47
10, 69504, Note_on_c, 9, 63, 56
10, 69508, Note_off_c, 9, 63, 56
10, 69508, Note_off_c, 9, 52, 47
10, 69508, Note_off_c, 9, 40, 66
10, 69508, Note_off_c, 9, 40, 76
10, 69528, Note_on_c, 9, 51, 50
10, 69528, Note_on_c, 9, 63, 32
10, 69532, Note_off_c, 9, 63, 32
10, 69532, Note_off_c, 9, 51, 50
10, 69552, Note_on_c, 9, 51, 45
10, 69552, Note_on_c, 9, 63, 35
10, 69556, Note_off_c, 9, 63, 35
10, 69556, Note_off_c, 9, 51, 45
10, 69576, Note_on_c, 9, 51, 43
10, 69576, Note_on_c, 9, 63, 32
10, 69580, Note_off_c, 9, 63, 32
10, 69580, Note_off_c, 9, 51, 43
10, 69600, Note_on_c, 9, 51, 48
10, 69600, Note_on_c, 9, 63, 48
10, 69604, Note_off_c, 9, 63, 48
10, 69604, Note_off_c, 9, 51, 48
10, 69624, Note_on_c, 9, 51, 53
10, 69624, Note_on_c, 9, 63, 32
10, 69628, Note_off_c, 9, 63, 32
10, 69628, Note_off_c, 9, 51, 53
10, 69648, Note_on_c, 9, 40, 78
10, 69648, Note_on_c, 9, 51, 58
10, 69648, Note_on_c, 9, 63, 48
10, 69652, Note_off_c, 9, 63, 48
10, 69652, Note_off_c, 9, 51, 58
10, 69652, Note_off_c, 9, 40, 78
10, 69672, Note_on_c, 9, 51, 64
10, 69676, Note_off_c, 9, 51, 64
10, 69696, Note_on_c, 9, 40, 82
10, 69696, Note_on_c, 9, 51, 66
10, 69696, Note_on_c, 9, 52, 47
10, 69696, Note_on_c, 9, 63, 100
10, 69700, Note_off_c, 9, 63, 100
10, 69700, Note_off_c, 9, 52, 47
10, 69700, Note_off_c, 9, 51, 66
10, 69700, Note_off_c, 9, 40, 82
10, 69720, Note_on_c, 9, 51, 61
10, 69724, Note_off_c, 9, 51, 61
10, 69744, Note_on_c, 9, 51, 55
10, 69748, Note_off_c, 9, 51, 55
10, 69768, Note_on_c, 9, 51, 49
10, 69772, Note_off_c, 9, 51, 49
10, 69792, Note_on_c, 9, 35, 116
10, 69792, Note_on_c, 9, 51, 46
10, 69792, Note_on_c, 9, 61, 88
10, 69796, Note_off_c, 9, 61, 88
10, 69796, Note_off_c, 9, 51, 46
10, 69796, Note_off_c, 9, 35, 116
10, 69816, Note_on_c, 9, 51, 49
10, 69820, Note_off_c, 9, 51, 49
10, 69840, Note_on_c, 9, 51, 52
10, 69844, Note_off_c, 9, 51, 52
10, 69864, Note_on_c, 9, 51, 55
10, 69868, Note_off_c, 9, 51, 55
10, 69888, Note_on_c, 9, 35, 124
10, 69888, Note_on_c, 9, 44, 124
10, 69888, Note_on_c, 9, 49, 55
10, 69888, Note_on_c, 9, 52, 47
10, 69888, Note_on_c, 9, 56, 109
10, 69892, Note_off_c, 9, 56, 109
10, 69892, Note_off_c, 9, 52, 47
10, 69892, Note_off_c, 9, 49, 85
10, 69892, Note_off_c, 9, 44, 124
10, 69892, Note_off_c, 9, 35, 124
10, 69984, Note_on_c, 9, 44, 72
10, 69984, Control_c, 9, 7, 108
10, 69988, Note_off_c, 9, 44, 72
10, 70080, Note_on_c, 9, 40, 124
10, 70080, Note_on_c, 9, 44, 124
10, 70080, Note_on_c, 9, 52, 47
10, 70080, Note_on_c, 9, 56, 124
10, 70084, Note_off_c, 9, 56, 124
10, 70084, Note_off_c, 9, 52, 47
10, 70084, Note_off_c, 9, 44, 124
10, 70084, Note_off_c, 9, 40, 124
10, 70176, Note_on_c, 9, 35, 124
10, 70176, Note_on_c, 9, 44, 112
10, 70176, Control_c, 9, 7, 105
10, 70180, Note_off_c, 9, 44, 112
10, 70180, Note_off_c, 9, 35, 124
10, 70272, Note_on_c, 9, 35, 116
10, 70272, Note_on_c, 9, 44, 124
10, 70272, Note_on_c, 9, 52, 47
10, 70272, Note_on_c, 9, 56, 109
10, 70272, Control_c, 9, 7, 103
10, 70276, Note_off_c, 9, 56, 109
10, 70276, Note_off_c, 9, 52, 47
10, 70276, Note_off_c, 9, 44, 124
10, 70276, Note_off_c, 9, 35, 116
10, 70368, Note_on_c, 9, 44, 116
10, 70372, Note_off_c, 9, 44, 116
10, 70464, Note_on_c, 9, 40, 124
10, 70464, Note_on_c, 9, 44, 124
10, 70464, Note_on_c, 9, 52, 47
10, 70464, Note_on_c, 9, 56, 116
10, 70464, Control_c, 9, 7, 98
10, 70468, Note_off_c, 9, 56, 116
10, 70468, Note_off_c, 9, 52, 47
10, 70468, Note_off_c, 9, 44, 124
10, 70468, Note_off_c, 9, 40, 124
10, 70560, Note_on_c, 9, 35, 124
10, 70560, Note_on_c, 9, 44, 112
10, 70560, Control_c, 9, 7, 97
10, 70564, Note_off_c, 9, 44, 112
10, 70564, Note_off_c, 9, 35, 124
10, 70656, Note_on_c, 9, 44, 124
10, 70656, Note_on_c, 9, 51, 96
10, 70656, Note_on_c, 9, 52, 47
10, 70656, Note_on_c, 9, 56, 116
10, 70660, Note_off_c, 9, 56, 116
10, 70660, Note_off_c, 9, 52, 47
10, 70660, Note_off_c, 9, 51, 96
10, 70660, Note_off_c, 9, 44, 124
10, 70752, Note_on_c, 9, 44, 112
10, 70752, Control_c, 9, 7, 93
10, 70756, Note_off_c, 9, 44, 112
10, 70848, Note_on_c, 9, 40, 124
10, 70848, Note_on_c, 9, 44, 108
10, 70848, Note_on_c, 9, 51, 100
10, 70848, Note_on_c, 9, 52, 47
10, 70848, Note_on_c, 9, 56, 124
10, 70848, Control_c, 9, 7, 91
10, 70852, Note_off_c, 9, 56, 124
10, 70852, Note_off_c, 9, 52, 47
10, 70852, Note_off_c, 9, 51, 100
10, 70852, Note_off_c, 9, 44, 108
10, 70852, Note_off_c, 9, 40, 124
10, 70944, Note_on_c, 9, 44, 100
10, 70948, Note_off_c, 9, 44, 100
10, 71040, Note_on_c, 9, 40, 124
10, 71040, Note_on_c, 9, 44, 120
10, 71040, Note_on_c, 9, 51, 100
10, 71040, Note_on_c, 9, 52, 47
10, 71040, Note_on_c, 9, 56, 124
10, 71040, Control_c, 9, 7, 88
10, 71044, Note_off_c, 9, 56, 124
10, 71044, Note_off_c, 9, 52, 47
10, 71044, Note_off_c, 9, 51, 100
10, 71044, Note_off_c, 9, 44, 120
10, 71044, Note_off_c, 9, 40, 124
10, 71136, Note_on_c, 9, 46, 96
10, 71136, Control_c, 9, 7, 86
10, 71140, Note_off_c, 9, 46, 124
10, 71232, Note_on_c, 9, 35, 124
10, 71232, Note_on_c, 9, 44, 116
10, 71232, Note_on_c, 9, 51, 92
10, 71232, Note_on_c, 9, 52, 47
10, 71232, Note_on_c, 9, 56, 124
10, 71236, Note_off_c, 9, 56, 124
10, 71236, Note_off_c, 9, 52, 47
10, 71236, Note_off_c, 9, 51, 92
10, 71236, Note_off_c, 9, 44, 116
10, 71236, Note_off_c, 9, 35, 124
10, 71328, Note_on_c, 9, 44, 104
10, 71328, Note_on_c, 9, 57, 54
10, 71328, Control_c, 9, 7, 81
10, 71332, Note_off_c, 9, 57, 84
10, 71332, Note_off_c, 9, 44, 104
10, 71424, Note_on_c, 9, 35, 124
10, 71424, Note_on_c, 9, 44, 124
10, 71424, Note_on_c, 9, 49, 55
10, 71424, Note_on_c, 9, 52, 47
10, 71424, Note_on_c, 9, 56, 124
10, 71424, Control_c, 9, 7, 79
10, 71428, Note_off_c, 9, 56, 124
10, 71428, Note_off_c, 9, 52, 47
10, 71428, Note_off_c, 9, 49, 85
10, 71428, Note_off_c, 9, 44, 124
10, 71428, Note_off_c, 9, 35, 124
10, 71520, Note_on_c, 9, 44, 112
10, 71524, Note_off_c, 9, 44, 112
10, 71616, Note_on_c, 9, 40, 124
10, 71616, Note_on_c, 9, 44, 124
10, 71616, Note_on_c, 9, 52, 47
10, 71616, Note_on_c, 9, 56, 124
10, 71616, Control_c, 9, 7, 74
10, 71620, Note_off_c, 9, 56, 124
10, 71620, Note_off_c, 9, 52, 47
10, 71620, Note_off_c, 9, 44, 124
10, 71620, Note_off_c, 9, 40, 124
10, 71712, Note_on_c, 9, 35, 116
10, 71712, Note_on_c, 9, 44, 108
10, 71712, Control_c, 9, 7, 73
10, 71716, Note_off_c, 9, 44, 108
10, 71716, Note_off_c, 9, 35, 116
10, 71808, Note_on_c, 9, 35, 124
10, 71808, Note_on_c, 9, 44, 120
10, 71808, Note_on_c, 9, 52, 47
10, 71808, Note_on_c, 9, 56, 116
10, 71812, Note_off_c, 9, 56, 116
10, 71812, Note_off_c, 9, 52, 47
10, 71812, Note_off_c, 9, 44, 120
10, 71812, Note_off_c, 9, 35, 124
10, 71904, Note_on_c, 9, 44, 116
10, 71904, Control_c, 9, 7, 70
10, 71908, Note_off_c, 9, 44, 116
10, 72000, Note_on_c, 9, 40, 124
10, 72000, Note_on_c, 9, 44, 120
10, 72000, Note_on_c, 9, 52, 47
10, 72000, Note_on_c, 9, 56, 124
10, 72000, Control_c, 9, 7, 67
10, 72004, Note_off_c, 9, 56, 124
10, 72004, Note_off_c, 9, 52, 47
10, 72004, Note_off_c, 9, 44, 120
10, 72004, Note_off_c, 9, 40, 124
10, 72096, Note_on_c, 9, 35, 124
10, 72096, Note_on_c, 9, 44, 108
10, 72100, Note_off_c, 9, 44, 108
10, 72100, Note_off_c, 9, 35, 124
10, 72192, Note_on_c, 9, 44, 120
10, 72192, Note_on_c, 9, 52, 47
10, 72192, Note_on_c, 9, 56, 116
10, 72192, Control_c, 9, 7, 63
10, 72196, Note_off_c, 9, 56, 116
10, 72196, Note_off_c, 9, 52, 47
10, 72196, Note_off_c, 9, 44, 120
10, 72288, Note_on_c, 9, 44, 112
10, 72288, Control_c, 9, 7, 61
10, 72292, Note_off_c, 9, 44, 112
10, 72384, Note_on_c, 9, 40, 124
10, 72384, Note_on_c, 9, 44, 120
10, 72384, Note_on_c, 9, 52, 47
10, 72384, Note_on_c, 9, 56, 124
10, 72388, Note_off_c, 9, 56, 124
10, 72388, Note_off_c, 9, 52, 47
10, 72388, Note_off_c, 9, 44, 120
10, 72388, Note_off_c, 9, 40, 124
10, 72480, Note_on_c, 9, 44, 108
10, 72480, Control_c, 9, 7, 56
10, 72484, Note_off_c, 9, 44, 108
10, 72576, Note_on_c, 9, 40, 124
10, 72576, Note_on_c, 9, 44, 112
10, 72576, Note_on_c, 9, 52, 47
10, 72576, Note_on_c, 9, 56, 124
10, 72576, Control_c, 9, 7, 55
10, 72580, Note_off_c, 9, 56, 124
10, 72580, Note_off_c, 9, 52, 47
10, 72580, Note_off_c, 9, 44, 112
10, 72580, Note_off_c, 9, 40, 124
10, 72672, Note_on_c, 9, 35, 90
10, 72672, Note_on_c, 9, 46, 90
10, 72676, Note_off_c, 9, 46, 116
10, 72676, Note_off_c, 9, 35, 90
10, 72768, Note_on_c, 9, 35, 124
10, 72768, Note_on_c, 9, 44, 120
10, 72768, Note_on_c, 9, 52, 47
10, 72768, Note_on_c, 9, 56, 124
10, 72768, Control_c, 9, 7, 52
10, 72772, Note_off_c, 9, 56, 124
10, 72772, Note_off_c, 9, 52, 47
10, 72772, Note_off_c, 9, 44, 120
10, 72772, Note_off_c, 9, 35, 124
10, 72864, Note_on_c, 9, 44, 124
10, 72864, Control_c, 9, 7, 49
10, 72868, Note_off_c, 9, 44, 124
10, 72960, Note_on_c, 9, 35, 124
10, 72960, Note_on_c, 9, 44, 124
10, 72960, Note_on_c, 9, 49, 55
10, 72960, Note_on_c, 9, 52, 47
10, 72960, Note_on_c, 9, 56, 109
10, 72964, Note_off_c, 9, 56, 109
10, 72964, Note_off_c, 9, 52, 47
10, 72964, Note_off_c, 9, 49, 85
10, 72964, Note_off_c, 9, 44, 124
10, 72964, Note_off_c, 9, 35, 124
10, 73056, Note_on_c, 9, 44, 72
10, 73056, Control_c, 9, 7, 46
10, 73060, Note_off_c, 9, 44, 72
10, 73152, Note_on_c, 9, 40, 124
10, 73152, Note_on_c, 9, 44, 124
10, 73152, Note_on_c, 9, 52, 47
10, 73152, Note_on_c, 9, 56, 124
10, 73152, Control_c, 9, 7, 44
10, 73156, Note_off_c, 9, 56, 124
10, 73156, Note_off_c, 9, 52, 47
10, 73156, Note_off_c, 9, 44, 124
10, 73156, Note_off_c, 9, 40, 124
10, 73248, Note_on_c, 9, 35, 124
10, 73248, Note_on_c, 9, 44, 112
10, 73252, Note_off_c, 9, 44, 112
10, 73252, Note_off_c, 9, 35, 124
10, 73344, Note_on_c, 9, 35, 116
10, 73344, Note_on_c, 9, 44, 124
10, 73344, Note_on_c, 9, 52, 47
10, 73344, Note_on_c, 9, 56, 109
10, 73344, Control_c, 9, 7, 39
10, 73348, Note_off_c, 9, 56, 109
10, 73348, Note_off_c, 9, 52, 47
10, 73348, Note_off_c, 9, 44, 124
10, 73348, Note_off_c, 9, 35, 116
10, 73440, Note_on_c, 9, 44, 116
10, 73440, Control_c, 9, 7, 37
10, 73444, Note_off_c, 9, 44, 116
10, 73536, Note_on_c, 9, 40, 124
10, 73536, Note_on_c, 9, 44, 124
10, 73536, Note_on_c, 9, 52, 47
10, 73536, Note_on_c, 9, 56, 116
10, 73540, Note_off_c, 9, 56, 116
10, 73540, Note_off_c, 9, 52, 47
10, 73540, Note_off_c, 9, 44, 124
10, 73540, Note_off_c, 9, 40, 124
10, 73632, Note_on_c, 9, 35, 124
10, 73632, Note_on_c, 9, 44, 112
10, 73632, Control_c, 9, 7, 34
10, 73636, Note_off_c, 9, 44, 112
10, 73636, Note_off_c, 9, 35, 124
10, 73728, Note_on_c, 9, 44, 124
10, 73728, Note_on_c, 9, 51, 96
10, 73728, Note_on_c, 9, 52, 47
10, 73728, Note_on_c, 9, 56, 116
10, 73728, Control_c, 9, 7, 32
10, 73732, Note_off_c, 9, 56, 116
10, 73732, Note_off_c, 9, 52, 47
10, 73732, Note_off_c, 9, 51, 96
10, 73732, Note_off_c, 9, 44, 124
10, 73824, Note_on_c, 9, 44, 112
10, 73828, Note_off_c, 9, 44, 112
10, 73920, Note_on_c, 9, 40, 124
10, 73920, Note_on_c, 9, 44, 108
10, 73920, Note_on_c, 9, 51, 100
10, 73920, Note_on_c, 9, 52, 47
10, 73920, Note_on_c, 9, 56, 124
10, 73920, Control_c, 9, 7, 28
10, 73924, Note_off_c, 9, 56, 124
10, 73924, Note_off_c, 9, 52, 47
10, 73924, Note_off_c, 9, 51, 100
10, 73924, Note_off_c, 9, 44, 108
10, 73924, Note_off_c, 9, 40, 124
10, 74016, Note_on_c, 9, 44, 100
10, 74016, Control_c, 9, 7, 26
10, 74020, Note_off_c, 9, 44, 100
10, 74112, Note_on_c, 9, 40, 124
10, 74112, Note_on_c, 9, 44, 120
10, 74112, Note_on_c, 9, 51, 100
10, 74112, Note_on_c, 9, 52, 47
10, 74112, Note_on_c, 9, 56, 124
10, 74116, Note_off_c, 9, 56, 124
10, 74116, Note_off_c, 9, 52, 47
10, 74116, Note_off_c, 9, 51, 100
10, 74116, Note_off_c, 9, 44, 120
10, 74116, Note_off_c, 9, 40, 124
10, 74208, Note_on_c, 9, 46, 96
10, 74208, Control_c, 9, 7, 21
10, 74212, Note_off_c, 9, 46, 124
10, 74304, Note_on_c, 9, 35, 124
10, 74304, Note_on_c, 9, 44, 116
10, 74304, Note_on_c, 9, 51, 92
10, 74304, Note_on_c, 9, 52, 47
10, 74304, Note_on_c, 9, 56, 124
10, 74304, Control_c, 9, 7, 19
10, 74308, Note_off_c, 9, 56, 124
10, 74308, Note_off_c, 9, 52, 47
10, 74308, Note_off_c, 9, 51, 92
10, 74308, Note_off_c, 9, 44, 116
10, 74308, Note_off_c, 9, 35, 124
10, 74400, Note_on_c, 9, 44, 104
10, 74400, Note_on_c, 9, 57, 54
10, 74404, Note_off_c, 9, 57, 84
10, 74404, Note_off_c, 9, 44, 104
10, 74496, Note_on_c, 9, 35, 124
10, 74496, Note_on_c, 9, 44, 124
10, 74496, Note_on_c, 9, 49, 55
10, 74496, Note_on_c, 9, 52, 47
10, 74496, Note_on_c, 9, 56, 124
10, 74496, Control_c, 9, 7, 16
10, 74500, Note_off_c, 9, 56, 124
10, 74500, Note_off_c, 9, 52, 47
10, 74500, Note_off_c, 9, 49, 85
10, 74500, Note_off_c, 9, 44, 124
10, 74500, Note_off_c, 9, 35, 124
10, 74592, Note_on_c, 9, 44, 112
10, 74592, Control_c, 9, 7, 14
10, 74596, Note_off_c, 9, 44, 112
10, 74688, Note_on_c, 9, 40, 124
10, 74688, Note_on_c, 9, 44, 124
10, 74688, Note_on_c, 9, 52, 47
10, 74688, Note_on_c, 9, 56, 124
10, 74692, Note_off_c, 9, 56, 124
10, 74692, Note_off_c, 9, 52, 47
10, 74692, Note_off_c, 9, 44, 124
10, 74692, Note_off_c, 9, 40, 124
10, 74784, Note_on_c, 9, 35, 116
10, 74784, Note_on_c, 9, 44, 108
10, 74784, Control_c, 9, 7, 10
10, 74788, Note_off_c, 9, 44, 108
10, 74788, Note_off_c, 9, 35, 116
10, 74880, Note_on_c, 9, 35, 124
10, 74880, Note_on_c, 9, 44, 120
10, 74880, Note_on_c, 9, 52, 47
10, 74880, Note_on_c, 9, 56, 116
10, 74884, Note_off_c, 9, 56, 116
10, 74884, Note_off_c, 9, 52, 47
10, 74884, Note_off_c, 9, 44, 120
10, 74884, Note_off_c, 9, 35, 124
10, 74976, Note_on_c, 9, 44, 116
10, 74976, Control_c, 9, 7, 5
10, 74980, Note_off_c, 9, 44, 116
10, 75264, Control_c, 9, 7, 0
10, 76032, Control_c, 9, 120, 0
10, 76048, Control_c, 9, 123, 0
10, 76048, End_track
11, 0, Start_track
11, 0, Title_t, "Choir ah"
11, 0, Channel_prefix, 10
11, 0, Control_c, 10, 7, 127
11, 0, Control_c, 10, 10, 64
11, 0, Program_c, 10, 0
11, 226, Control_c, 10, 121, 0
11, 274, Pitch_bend_c, 10, 8192
11, 277, Control_c, 10, 7, 87
11, 278, Control_c, 10, 10, 64
11, 279, Control_c, 10, 11, 127
11, 280, Control_c, 10, 91, 60
11, 281, Control_c, 10, 93, 40
11, 323, Control_c, 10, 0, 0
11, 378, Program_c, 10, 52
11, 4608, Note_on_c, 10, 74, 108
11, 4744, Note_off_c, 10, 74, 64
11, 4800, Note_on_c, 10, 74, 84
11, 4826, Note_off_c, 10, 74, 64
11, 4896, Note_on_c, 10, 74, 84
11, 4931, Note_off_c, 10, 74, 64
11, 4992, Note_on_c, 10, 79, 96
11, 5113, Note_off_c, 10, 79, 64
11, 5184, Note_on_c, 10, 74, 96
11, 5217, Note_off_c, 10, 74, 64
11, 5280, Note_on_c, 10, 74, 84
11, 5312, Note_off_c, 10, 74, 64
11, 5376, Note_on_c, 10, 79, 112
11, 5497, Note_off_c, 10, 79, 64
11, 5568, Note_on_c, 10, 74, 92
11, 5602, Note_off_c, 10, 74, 64
11, 5664, Note_on_c, 10, 74, 80
11, 5692, Note_off_c, 10, 74, 64
11, 5760, Note_on_c, 10, 79, 84
11, 5912, Note_off_c, 10, 79, 64
11, 5952, Note_on_c, 10, 76, 100
11, 5967, Note_off_c, 10, 76, 64
11, 6048, Note_on_c, 10, 74, 88
11, 6069, Note_off_c, 10, 74, 64
11, 6144, Note_on_c, 10, 74, 92
11, 6288, Note_off_c, 10, 74, 64
11, 6336, Note_on_c, 10, 74, 92
11, 6357, Note_off_c, 10, 74, 64
11, 6432, Note_on_c, 10, 74, 76
11, 6458, Note_off_c, 10, 74, 64
11, 6528, Note_on_c, 10, 79, 84
11, 6662, Note_off_c, 10, 79, 64
11, 6720, Note_on_c, 10, 74, 88
11, 6745, Note_off_c, 10, 74, 64
11, 6816, Note_on_c, 10, 74, 92
11, 6841, Note_off_c, 10, 74, 64
11, 6912, Note_on_c, 10, 79, 92
11, 7037, Note_off_c, 10, 79, 64
11, 7104, Note_on_c, 10, 74, 88
11, 7137, Note_off_c, 10, 74, 64
11, 7200, Note_on_c, 10, 74, 76
11, 7223, Note_off_c, 10, 74, 64
11, 7296, Note_on_c, 10, 79, 76
11, 7454, Note_off_c, 10, 79, 64
11, 7488, Note_on_c, 10, 76, 88
11, 7510, Note_off_c, 10, 76, 64
11, 7584, Note_on_c, 10, 74, 52
11, 7607, Note_off_c, 10, 74, 64
11, 12288, Note_on_c, 10, 86, 120
11, 12335, Note_off_c, 10, 86, 64
11, 12384, Note_on_c, 10, 86, 120
11, 12425, Note_off_c, 10, 86, 64
11, 12480, Note_on_c, 10, 86, 116
11, 12520, Note_off_c, 10, 86, 64
11, 12576, Note_on_c, 10, 86, 120
11, 12644, Note_off_c, 10, 86, 64
11, 12672, Note_on_c, 10, 84, 120
11, 12715, Note_off_c, 10, 84, 64
11, 12768, Note_on_c, 10, 84, 124
11, 12874, Note_off_c, 10, 84, 64
11, 12960, Note_on_c, 10, 84, 124
11, 13104, Note_on_c, 10, 82, 100
11, 13131, Note_off_c, 10, 84, 64
11, 13145, Note_off_c, 10, 82, 64
11, 13152, Note_on_c, 10, 79, 112
11, 13208, Note_off_c, 10, 79, 64
11, 13824, Note_on_c, 10, 86, 124
11, 13873, Note_off_c, 10, 86, 64
11, 13920, Note_on_c, 10, 86, 124
11, 13968, Note_off_c, 10, 86, 64
11, 14016, Note_on_c, 10, 86, 112
11, 14056, Note_off_c, 10, 86, 64
11, 14112, Note_on_c, 10, 86, 112
11, 14176, Note_off_c, 10, 86, 64
11, 14208, Note_on_c, 10, 84, 120
11, 14254, Note_off_c, 10, 84, 64
11, 14304, Note_on_c, 10, 84, 120
11, 14439, Note_off_c, 10, 84, 64
11, 14496, Note_on_c, 10, 84, 124
11, 14640, Note_on_c, 10, 82, 104
11, 14670, Note_off_c, 10, 84, 64
11, 14715, Note_off_c, 10, 82, 64
11, 15360, Note_on_c, 10, 86, 120
11, 15406, Note_off_c, 10, 86, 64
11, 15456, Note_on_c, 10, 86, 124
11, 15500, Note_off_c, 10, 86, 64
11, 15552, Note_on_c, 10, 86, 108
11, 15591, Note_off_c, 10, 86, 64
11, 15648, Note_on_c, 10, 86, 116
11, 15732, Note_off_c, 10, 86, 64
11, 15744, Note_on_c, 10, 84, 120
11, 15782, Note_off_c, 10, 84, 64
11, 15840, Note_on_c, 10, 84, 120
11, 15971, Note_off_c, 10, 84, 64
11, 16032, Note_on_c, 10, 84, 120
11, 16203, Note_off_c, 10, 84, 64
11, 16224, Note_on_c, 10, 82, 100
11, 16266, Note_off_c, 10, 82, 64
11, 16272, Note_on_c, 10, 79, 120
11, 16316, Note_off_c, 10, 79, 64
11, 19200, Note_on_c, 10, 65, 124
11, 19200, Note_on_c, 10, 86, 120
11, 19261, Note_off_c, 10, 86, 64
11, 19266, Note_off_c, 10, 65, 64
11, 19296, Note_on_c, 10, 65, 116
11, 19296, Note_on_c, 10, 86, 120
11, 19339, Note_off_c, 10, 65, 64
11, 19343, Note_off_c, 10, 86, 64
11, 19392, Note_on_c, 10, 65, 120
11, 19392, Note_on_c, 10, 86, 120
11, 19440, Note_off_c, 10, 65, 64
11, 19443, Note_off_c, 10, 86, 64
11, 19488, Note_on_c, 10, 65, 116
11, 19488, Note_on_c, 10, 86, 120
11, 19527, Note_off_c, 10, 65, 64
11, 19538, Note_off_c, 10, 86, 64
11, 19584, Note_on_c, 10, 65, 120
11, 19584, Note_on_c, 10, 86, 112
11, 19625, Note_off_c, 10, 65, 64
11, 19633, Note_off_c, 10, 86, 64
11, 19680, Note_on_c, 10, 65, 120
11, 19680, Note_on_c, 10, 86, 108
11, 19721, Note_off_c, 10, 65, 64
11, 19726, Note_off_c, 10, 86, 64
11, 19776, Note_on_c, 10, 65, 120
11, 19776, Note_on_c, 10, 86, 96
11, 19833, Note_off_c, 10, 86, 64
11, 19833, Note_off_c, 10, 65, 64
11, 19872, Note_on_c, 10, 64, 120
11, 19872, Note_on_c, 10, 84, 116
11, 19933, Note_off_c, 10, 64, 64
11, 19938, Note_off_c, 10, 84, 64
11, 20160, Note_on_c, 10, 64, 88
11, 20160, Note_on_c, 10, 65, 116
11, 20160, Note_on_c, 10, 85, 120
11, 20160, Note_on_c, 10, 86, 120
11, 20177, Note_off_c, 10, 85, 64
11, 20206, Note_off_c, 10, 64, 64
11, 20236, Note_off_c, 10, 86, 64
11, 20256, Note_on_c, 10, 64, 112
11, 20256, Note_on_c, 10, 84, 116
11, 20263, Note_off_c, 10, 65, 64
11, 20307, Note_off_c, 10, 64, 64
11, 20312, Note_off_c, 10, 84, 64
11, 20736, Note_on_c, 10, 65, 116
11, 20736, Note_on_c, 10, 86, 112
11, 20789, Note_off_c, 10, 65, 64
11, 20795, Note_off_c, 10, 86, 64
11, 20832, Note_on_c, 10, 65, 116
11, 20832, Note_on_c, 10, 86, 112
11, 20872, Note_off_c, 10, 65, 64
11, 20881, Note_off_c, 10, 86, 64
11, 20928, Note_on_c, 10, 65, 112
11, 20928, Note_on_c, 10, 86, 116
11, 20966, Note_off_c, 10, 86, 64
11, 20968, Note_off_c, 10, 65, 64
11, 21024, Note_on_c, 10, 65, 108
11, 21024, Note_on_c, 10, 86, 116
11, 21069, Note_off_c, 10, 86, 64
11, 21073, Note_off_c, 10, 65, 64
11, 21120, Note_on_c, 10, 65, 112
11, 21120, Note_on_c, 10, 86, 116
11, 21166, Note_off_c, 10, 86, 64
11, 21169, Note_off_c, 10, 65, 64
11, 21216, Note_on_c, 10, 65, 112
11, 21216, Note_on_c, 10, 86, 112
11, 21260, Note_off_c, 10, 86, 64
11, 21262, Note_off_c, 10, 65, 64
11, 21312, Note_on_c, 10, 65, 108
11, 21312, Note_on_c, 10, 86, 96
11, 21376, Note_off_c, 10, 65, 64
11, 21379, Note_off_c, 10, 86, 64
11, 21408, Note_on_c, 10, 64, 116
11, 21408, Note_on_c, 10, 84, 120
11, 21466, Note_off_c, 10, 84, 64
11, 21481, Note_off_c, 10, 64, 64
11, 22272, Note_on_c, 10, 74, 108
11, 22408, Note_off_c, 10, 74, 64
11, 22464, Note_on_c, 10, 74, 84
11, 22490, Note_off_c, 10, 74, 64
11, 22560, Note_on_c, 10, 74, 84
11, 22595, Note_off_c, 10, 74, 64
11, 22656, Note_on_c, 10, 79, 96
11, 22777, Note_off_c, 10, 79, 64
11, 22848, Note_on_c, 10, 74, 96
11, 22881, Note_off_c, 10, 74, 64
11, 22944, Note_on_c, 10, 74, 84
11, 22976, Note_off_c, 10, 74, 64
11, 23040, Note_on_c, 10, 79, 112
11, 23161, Note_off_c, 10, 79, 64
11, 23232, Note_on_c, 10, 74, 92
11, 23266, Note_off_c, 10, 74, 64
11, 23328, Note_on_c, 10, 74, 80
11, 23356, Note_off_c, 10, 74, 64
11, 23424, Note_on_c, 10, 79, 84
11, 23576, Note_off_c, 10, 79, 64
11, 23616, Note_on_c, 10, 76, 100
11, 23631, Note_off_c, 10, 76, 64
11, 23712, Note_on_c, 10, 74, 88
11, 23733, Note_off_c, 10, 74, 64
11, 23808, Note_on_c, 10, 74, 92
11, 23952, Note_off_c, 10, 74, 64
11, 24000, Note_on_c, 10, 74, 92
11, 24021, Note_off_c, 10, 74, 64
11, 24096, Note_on_c, 10, 74, 76
11, 24122, Note_off_c, 10, 74, 64
11, 24192, Note_on_c, 10, 79, 84
11, 24326, Note_off_c, 10, 79, 64
11, 24384, Note_on_c, 10, 74, 88
11, 24409, Note_off_c, 10, 74, 64
11, 24480, Note_on_c, 10, 74, 92
11, 24505, Note_off_c, 10, 74, 64
11, 24576, Note_on_c, 10, 79, 92
11, 24701, Note_off_c, 10, 79, 64
11, 24768, Note_on_c, 10, 74, 88
11, 24801, Note_off_c, 10, 74, 64
11, 24864, Note_on_c, 10, 74, 76
11, 24887, Note_off_c, 10, 74, 64
11, 24960, Note_on_c, 10, 79, 76
11, 25118, Note_off_c, 10, 79, 64
11, 25152, Note_on_c, 10, 76, 88
11, 25174, Note_off_c, 10, 76, 64
11, 25248, Note_on_c, 10, 74, 52
11, 25271, Note_off_c, 10, 74, 64
11, 26880, Note_on_c, 10, 86, 120
11, 26927, Note_off_c, 10, 86, 64
11, 26976, Note_on_c, 10, 86, 120
11, 27017, Note_off_c, 10, 86, 64
11, 27072, Note_on_c, 10, 86, 116
11, 27112, Note_off_c, 10, 86, 64
11, 27168, Note_on_c, 10, 86, 120
11, 27236, Note_off_c, 10, 86, 64
11, 27264, Note_on_c, 10, 84, 120
11, 27307, Note_off_c, 10, 84, 64
11, 27360, Note_on_c, 10, 84, 124
11, 27466, Note_off_c, 10, 84, 64
11, 27552, Note_on_c, 10, 84, 124
11, 27696, Note_on_c, 10, 82, 100
11, 27723, Note_off_c, 10, 84, 64
11, 27737, Note_off_c, 10, 82, 64
11, 27744, Note_on_c, 10, 79, 112
11, 27800, Note_off_c, 10, 79, 64
11, 28416, Note_on_c, 10, 86, 124
11, 28465, Note_off_c, 10, 86, 64
11, 28512, Note_on_c, 10, 86, 124
11, 28560, Note_off_c, 10, 86, 64
11, 28608, Note_on_c, 10, 86, 112
11, 28648, Note_off_c, 10, 86, 64
11, 28704, Note_on_c, 10, 86, 112
11, 28768, Note_off_c, 10, 86, 64
11, 28800, Note_on_c, 10, 84, 120
11, 28846, Note_off_c, 10, 84, 64
11, 28896, Note_on_c, 10, 84, 120
11, 29031, Note_off_c, 10, 84, 64
11, 29088, Note_on_c, 10, 84, 124
11, 29232, Note_on_c, 10, 82, 104
11, 29262, Note_off_c, 10, 84, 64
11, 29307, Note_off_c, 10, 82, 64
11, 29952, Note_on_c, 10, 86, 120
11, 29998, Note_off_c, 10, 86, 64
11, 30048, Note_on_c, 10, 86, 124
11, 30092, Note_off_c, 10, 86, 64
11, 30144, Note_on_c, 10, 86, 108
11, 30183, Note_off_c, 10, 86, 64
11, 30240, Note_on_c, 10, 86, 116
11, 30324, Note_off_c, 10, 86, 64
11, 30336, Note_on_c, 10, 84, 120
11, 30374, Note_off_c, 10, 84, 64
11, 30432, Note_on_c, 10, 84, 120
11, 30563, Note_off_c, 10, 84, 64
11, 30624, Note_on_c, 10, 84, 120
11, 30795, Note_off_c, 10, 84, 64
11, 30816, Note_on_c, 10, 82, 100
11, 30858, Note_off_c, 10, 82, 64
11, 30864, Note_on_c, 10, 79, 120
11, 30908, Note_off_c, 10, 79, 64
11, 33792, Note_on_c, 10, 65, 124
11, 33792, Note_on_c, 10, 86, 120
11, 33853, Note_off_c, 10, 86, 64
11, 33858, Note_off_c, 10, 65, 64
11, 33888, Note_on_c, 10, 65, 116
11, 33888, Note_on_c, 10, 86, 120
11, 33931, Note_off_c, 10, 65, 64
11, 33935, Note_off_c, 10, 86, 64
11, 33984, Note_on_c, 10, 65, 120
11, 33984, Note_on_c, 10, 86, 120
11, 34032, Note_off_c, 10, 65, 64
11, 34035, Note_off_c, 10, 86, 64
11, 34080, Note_on_c, 10, 65, 116
11, 34080, Note_on_c, 10, 86, 120
11, 34119, Note_off_c, 10, 65, 64
11, 34130, Note_off_c, 10, 86, 64
11, 34176, Note_on_c, 10, 65, 120
11, 34176, Note_on_c, 10, 86, 112
11, 34217, Note_off_c, 10, 65, 64
11, 34225, Note_off_c, 10, 86, 64
11, 34272, Note_on_c, 10, 65, 120
11, 34272, Note_on_c, 10, 86, 108
11, 34313, Note_off_c, 10, 65, 64
11, 34318, Note_off_c, 10, 86, 64
11, 34368, Note_on_c, 10, 65, 120
11, 34368, Note_on_c, 10, 86, 96
11, 34425, Note_off_c, 10, 86, 64
11, 34425, Note_off_c, 10, 65, 64
11, 34464, Note_on_c, 10, 64, 120
11, 34464, Note_on_c, 10, 84, 116
11, 34525, Note_off_c, 10, 64, 64
11, 34530, Note_off_c, 10, 84, 64
11, 34752, Note_on_c, 10, 64, 88
11, 34752, Note_on_c, 10, 65, 116
11, 34752, Note_on_c, 10, 85, 120
11, 34752, Note_on_c, 10, 86, 120
11, 34769, Note_off_c, 10, 85, 64
11, 34798, Note_off_c, 10, 64, 64
11, 34828, Note_off_c, 10, 86, 64
11, 34848, Note_on_c, 10, 64, 112
11, 34848, Note_on_c, 10, 84, 116
11, 34855, Note_off_c, 10, 65, 64
11, 34899, Note_off_c, 10, 64, 64
11, 34904, Note_off_c, 10, 84, 64
11, 35328, Note_on_c, 10, 65, 116
11, 35328, Note_on_c, 10, 86, 112
11, 35381, Note_off_c, 10, 65, 64
11, 35387, Note_off_c, 10, 86, 64
11, 35424, Note_on_c, 10, 65, 116
11, 35424, Note_on_c, 10, 86, 112
11, 35464, Note_off_c, 10, 65, 64
11, 35473, Note_off_c, 10, 86, 64
11, 35520, Note_on_c, 10, 65, 112
11, 35520, Note_on_c, 10, 86, 116
11, 35558, Note_off_c, 10, 86, 64
11, 35560, Note_off_c, 10, 65, 64
11, 35616, Note_on_c, 10, 65, 108
11, 35616, Note_on_c, 10, 86, 116
11, 35661, Note_off_c, 10, 86, 64
11, 35665, Note_off_c, 10, 65, 64
11, 35712, Note_on_c, 10, 65, 112
11, 35712, Note_on_c, 10, 86, 116
11, 35758, Note_off_c, 10, 86, 64
11, 35761, Note_off_c, 10, 65, 64
11, 35808, Note_on_c, 10, 65, 112
11, 35808, Note_on_c, 10, 86, 112
11, 35852, Note_off_c, 10, 86, 64
11, 35854, Note_off_c, 10, 65, 64
11, 35904, Note_on_c, 10, 65, 108
11, 35904, Note_on_c, 10, 86, 96
11, 35968, Note_off_c, 10, 65, 64
11, 35971, Note_off_c, 10, 86, 64
11, 36000, Note_on_c, 10, 64, 116
11, 36000, Note_on_c, 10, 84, 120
11, 36058, Note_off_c, 10, 84, 64
11, 36073, Note_off_c, 10, 64, 64
11, 49102, Note_on_c, 10, 74, 96
11, 49348, Note_off_c, 10, 74, 64
11, 49440, Note_on_c, 10, 78, 96
11, 49777, Note_off_c, 10, 78, 64
11, 49824, Note_on_c, 10, 84, 112
11, 49824, Note_on_c, 10, 86, 120
11, 49841, Note_off_c, 10, 84, 64
11, 50556, Note_off_c, 10, 86, 64
11, 50784, Note_on_c, 10, 86, 120
11, 50846, Note_off_c, 10, 86, 64
11, 50880, Note_on_c, 10, 86, 120
11, 50934, Note_off_c, 10, 86, 64
11, 50976, Note_on_c, 10, 86, 120
11, 51076, Note_off_c, 10, 86, 64
11, 51168, Note_on_c, 10, 86, 116
11, 51255, Note_off_c, 10, 86, 64
11, 51264, Note_on_c, 10, 84, 112
11, 51311, Note_off_c, 10, 84, 64
11, 51360, Note_on_c, 10, 84, 112
11, 51436, Note_off_c, 10, 84, 64
11, 51456, Note_on_c, 10, 82, 88
11, 51530, Note_off_c, 10, 82, 64
11, 51552, Note_on_c, 10, 79, 108
11, 51624, Note_off_c, 10, 79, 64
11, 55246, Note_on_c, 10, 74, 96
11, 55492, Note_off_c, 10, 74, 64
11, 55584, Note_on_c, 10, 78, 96
11, 55921, Note_off_c, 10, 78, 64
11, 55968, Note_on_c, 10, 84, 112
11, 55968, Note_on_c, 10, 86, 120
11, 55985, Note_off_c, 10, 84, 64
11, 56700, Note_off_c, 10, 86, 64
11, 56832, Note_on_c, 10, 86, 120
11, 56879, Note_off_c, 10, 86, 64
11, 56928, Note_on_c, 10, 86, 120
11, 56969, Note_off_c, 10, 86, 64
11, 57024, Note_on_c, 10, 86, 116
11, 57064, Note_off_c, 10, 86, 64
11, 57120, Note_on_c, 10, 86, 120
11, 57188, Note_off_c, 10, 86, 64
11, 57216, Note_on_c, 10, 84, 120
11, 57259, Note_off_c, 10, 84, 64
11, 57312, Note_on_c, 10, 84, 124
11, 57418, Note_off_c, 10, 84, 64
11, 57504, Note_on_c, 10, 84, 124
11, 57648, Note_on_c, 10, 82, 100
11, 57675, Note_off_c, 10, 84, 64
11, 57689, Note_off_c, 10, 82, 64
11, 57696, Note_on_c, 10, 79, 112
11, 57752, Note_off_c, 10, 79, 64
11, 58368, Note_on_c, 10, 86, 124
11, 58417, Note_off_c, 10, 86, 64
11, 58464, Note_on_c, 10, 86, 124
11, 58512, Note_off_c, 10, 86, 64
11, 58560, Note_on_c, 10, 86, 112
11, 58600, Note_off_c, 10, 86, 64
11, 58656, Note_on_c, 10, 86, 112
11, 58720, Note_off_c, 10, 86, 64
11, 58752, Note_on_c, 10, 84, 120
11, 58798, Note_off_c, 10, 84, 64
11, 58848, Note_on_c, 10, 84, 120
11, 58983, Note_off_c, 10, 84, 64
11, 59040, Note_on_c, 10, 84, 124
11, 59184, Note_on_c, 10, 82, 104
11, 59214, Note_off_c, 10, 84, 64
11, 59259, Note_off_c, 10, 82, 64
11, 59904, Note_on_c, 10, 86, 120
11, 59950, Note_off_c, 10, 86, 64
11, 60000, Note_on_c, 10, 86, 124
11, 60044, Note_off_c, 10, 86, 64
11, 60096, Note_on_c, 10, 86, 108
11, 60135, Note_off_c, 10, 86, 64
11, 60192, Note_on_c, 10, 86, 116
11, 60276, Note_off_c, 10, 86, 64
11, 60288, Note_on_c, 10, 84, 120
11, 60326, Note_off_c, 10, 84, 64
11, 60384, Note_on_c, 10, 84, 120
11, 60515, Note_off_c, 10, 84, 64
11, 60576, Note_on_c, 10, 84, 120
11, 60747, Note_off_c, 10, 84, 64
11, 60768, Note_on_c, 10, 82, 100
11, 60810, Note_off_c, 10, 82, 64
11, 60816, Note_on_c, 10, 79, 120
11, 60860, Note_off_c, 10, 79, 64
11, 63744, Note_on_c, 10, 65, 124
11, 63744, Note_on_c, 10, 86, 120
11, 63805, Note_off_c, 10, 86, 64
11, 63810, Note_off_c, 10, 65, 64
11, 63840, Note_on_c, 10, 65, 116
11, 63840, Note_on_c, 10, 86, 120
11, 63883, Note_off_c, 10, 65, 64
11, 63887, Note_off_c, 10, 86, 64
11, 63936, Note_on_c, 10, 65, 120
11, 63936, Note_on_c, 10, 86, 120
11, 63984, Note_off_c, 10, 65, 64
11, 63987, Note_off_c, 10, 86, 64
11, 64032, Note_on_c, 10, 65, 116
11, 64032, Note_on_c, 10, 86, 120
11, 64071, Note_off_c, 10, 65, 64
11, 64082, Note_off_c, 10, 86, 64
11, 64128, Note_on_c, 10, 65, 120
11, 64128, Note_on_c, 10, 86, 112
11, 64169, Note_off_c, 10, 65, 64
11, 64177, Note_off_c, 10, 86, 64
11, 64224, Note_on_c, 10, 65, 120
11, 64224, Note_on_c, 10, 86, 108
11, 64265, Note_off_c, 10, 65, 64
11, 64270, Note_off_c, 10, 86, 64
11, 64320, Note_on_c, 10, 65, 120
11, 64320, Note_on_c, 10, 86, 96
11, 64377, Note_off_c, 10, 86, 64
11, 64377, Note_off_c, 10, 65, 64
11, 64416, Note_on_c, 10, 64, 120
11, 64416, Note_on_c, 10, 84, 116
11, 64477, Note_off_c, 10, 64, 64
11, 64482, Note_off_c, 10, 84, 64
11, 64704, Note_on_c, 10, 64, 88
11, 64704, Note_on_c, 10, 65, 116
11, 64704, Note_on_c, 10, 85, 120
11, 64704, Note_on_c, 10, 86, 120
11, 64721, Note_off_c, 10, 85, 64
11, 64750, Note_off_c, 10, 64, 64
11, 64780, Note_off_c, 10, 86, 64
11, 64800, Note_on_c, 10, 64, 112
11, 64800, Note_on_c, 10, 84, 116
11, 64807, Note_off_c, 10, 65, 64
11, 64851, Note_off_c, 10, 64, 64
11, 64856, Note_off_c, 10, 84, 64
11, 65280, Note_on_c, 10, 65, 116
11, 65280, Note_on_c, 10, 86, 112
11, 65333, Note_off_c, 10, 65, 64
11, 65339, Note_off_c, 10, 86, 64
11, 65376, Note_on_c, 10, 65, 116
11, 65376, Note_on_c, 10, 86, 112
11, 65416, Note_off_c, 10, 65, 64
11, 65425, Note_off_c, 10, 86, 64
11, 65472, Note_on_c, 10, 65, 112
11, 65472, Note_on_c, 10, 86, 116
11, 65510, Note_off_c, 10, 86, 64
11, 65512, Note_off_c, 10, 65, 64
11, 65568, Note_on_c, 10, 65, 108
11, 65568, Note_on_c, 10, 86, 116
11, 65613, Note_off_c, 10, 86, 64
11, 65617, Note_off_c, 10, 65, 64
11, 65664, Note_on_c, 10, 65, 112
11, 65664, Note_on_c, 10, 86, 116
11, 65710, Note_off_c, 10, 86, 64
11, 65713, Note_off_c, 10, 65, 64
11, 65760, Note_on_c, 10, 65, 112
11, 65760, Note_on_c, 10, 86, 112
11, 65804, Note_off_c, 10, 86, 64
11, 65806, Note_off_c, 10, 65, 64
11, 65856, Note_on_c, 10, 65, 108
11, 65856, Note_on_c, 10, 86, 96
11, 65920, Note_off_c, 10, 65, 64
11, 65923, Note_off_c, 10, 86, 64
11, 65952, Note_on_c, 10, 64, 116
11, 65952, Note_on_c, 10, 84, 120
11, 66010, Note_off_c, 10, 84, 64
11, 66025, Note_off_c, 10, 64, 64
11, 66816, Note_on_c, 10, 65, 124
11, 66816, Note_on_c, 10, 86, 120
11, 66877, Note_off_c, 10, 86, 64
11, 66882, Note_off_c, 10, 65, 64
11, 66912, Note_on_c, 10, 65, 116
11, 66912, Note_on_c, 10, 86, 120
11, 66955, Note_off_c, 10, 65, 64
11, 66959, Note_off_c, 10, 86, 64
11, 67008, Note_on_c, 10, 65, 120
11, 67008, Note_on_c, 10, 86, 120
11, 67056, Note_off_c, 10, 65, 64
11, 67059, Note_off_c, 10, 86, 64
11, 67104, Note_on_c, 10, 65, 116
11, 67104, Note_on_c, 10, 86, 120
11, 67143, Note_off_c, 10, 65, 64
11, 67154, Note_off_c, 10, 86, 64
11, 67200, Note_on_c, 10, 65, 120
11, 67200, Note_on_c, 10, 86, 112
11, 67241, Note_off_c, 10, 65, 64
11, 67249, Note_off_c, 10, 86, 64
11, 67296, Note_on_c, 10, 65, 120
11, 67296, Note_on_c, 10, 86, 108
11, 67337, Note_off_c, 10, 65, 64
11, 67342, Note_off_c, 10, 86, 64
11, 67392, Note_on_c, 10, 65, 120
11, 67392, Note_on_c, 10, 86, 96
11, 67449, Note_off_c, 10, 86, 64
11, 67449, Note_off_c, 10, 65, 64
11, 67488, Note_on_c, 10, 64, 120
11, 67488, Note_on_c, 10, 84, 116
11, 67549, Note_off_c, 10, 64, 64
11, 67554, Note_off_c, 10, 84, 64
11, 67776, Note_on_c, 10, 64, 88
11, 67776, Note_on_c, 10, 65, 116
11, 67776, Note_on_c, 10, 85, 120
11, 67776, Note_on_c, 10, 86, 120
11, 67793, Note_off_c, 10, 85, 64
11, 67822, Note_off_c, 10, 64, 64
11, 67852, Note_off_c, 10, 86, 64
11, 67872, Note_on_c, 10, 64, 112
11, 67872, Note_on_c, 10, 84, 116
11, 67879, Note_off_c, 10, 65, 64
11, 67923, Note_off_c, 10, 64, 64
11, 67928, Note_off_c, 10, 84, 64
11, 68352, Note_on_c, 10, 65, 116
11, 68352, Note_on_c, 10, 86, 112
11, 68405, Note_off_c, 10, 65, 64
11, 68411, Note_off_c, 10, 86, 64
11, 68448, Note_on_c, 10, 65, 116
11, 68448, Note_on_c, 10, 86, 112
11, 68488, Note_off_c, 10, 65, 64
11, 68497, Note_off_c, 10, 86, 64
11, 68544, Note_on_c, 10, 65, 112
11, 68544, Note_on_c, 10, 86, 116
11, 68582, Note_off_c, 10, 86, 64
11, 68584, Note_off_c, 10, 65, 64
11, 68640, Note_on_c, 10, 65, 108
11, 68640, Note_on_c, 10, 86, 116
11, 68685, Note_off_c, 10, 86, 64
11, 68689, Note_off_c, 10, 65, 64
11, 68736, Note_on_c, 10, 65, 112
11, 68736, Note_on_c, 10, 86, 116
11, 68782, Note_off_c, 10, 86, 64
11, 68785, Note_off_c, 10, 65, 64
11, 68832, Note_on_c, 10, 65, 112
11, 68832, Note_on_c, 10, 86, 112
11, 68876, Note_off_c, 10, 86, 64
11, 68878, Note_off_c, 10, 65, 64
11, 68928, Note_on_c, 10, 65, 108
11, 68928, Note_on_c, 10, 86, 96
11, 68992, Note_off_c, 10, 65, 64
11, 68995, Note_off_c, 10, 86, 64
11, 69024, Note_on_c, 10, 64, 116
11, 69024, Note_on_c, 10, 84, 120
11, 69082, Note_off_c, 10, 84, 64
11, 69097, Note_off_c, 10, 64, 64
11, 69888, Note_on_c, 10, 86, 120
11, 69888, Control_c, 10, 7, 88
11, 69935, Note_off_c, 10, 86, 64
11, 69984, Note_on_c, 10, 86, 120
11, 69984, Control_c, 10, 7, 86
11, 70025, Note_off_c, 10, 86, 64
11, 70080, Note_on_c, 10, 86, 116
11, 70120, Note_off_c, 10, 86, 64
11, 70176, Note_on_c, 10, 86, 120
11, 70176, Control_c, 10, 7, 83
11, 70244, Note_off_c, 10, 86, 64
11, 70272, Note_on_c, 10, 84, 120
11, 70272, Control_c, 10, 7, 81
11, 70315, Note_off_c, 10, 84, 64
11, 70368, Note_on_c, 10, 84, 124
11, 70464, Control_c, 10, 7, 77
11, 70474, Note_off_c, 10, 84, 64
11, 70560, Note_on_c, 10, 84, 124
11, 70560, Control_c, 10, 7, 76
11, 70704, Note_on_c, 10, 82, 100
11, 70731, Note_off_c, 10, 84, 64
11, 70745, Note_off_c, 10, 82, 64
11, 70752, Note_on_c, 10, 79, 112
11, 70752, Control_c, 10, 7, 73
11, 70808, Note_off_c, 10, 79, 64
11, 71328, Control_c, 10, 7, 63
11, 71424, Note_on_c, 10, 86, 124
11, 71424, Control_c, 10, 7, 62
11, 71473, Note_off_c, 10, 86, 64
11, 71520, Note_on_c, 10, 86, 124
11, 71568, Note_off_c, 10, 86, 64
11, 71616, Note_on_c, 10, 86, 112
11, 71616, Control_c, 10, 7, 58
11, 71656, Note_off_c, 10, 86, 64
11, 71712, Note_on_c, 10, 86, 112
11, 71712, Control_c, 10, 7, 56
11, 71776, Note_off_c, 10, 86, 64
11, 71808, Note_on_c, 10, 84, 120
11, 71854, Note_off_c, 10, 84, 64
11, 71904, Note_on_c, 10, 84, 120
11, 71904, Control_c, 10, 7, 54
11, 72039, Note_off_c, 10, 84, 64
11, 72096, Note_on_c, 10, 84, 124
11, 72192, Control_c, 10, 7, 49
11, 72240, Note_on_c, 10, 82, 104
11, 72270, Note_off_c, 10, 84, 64
11, 72315, Note_off_c, 10, 82, 64
11, 72864, Control_c, 10, 7, 38
11, 72960, Note_on_c, 10, 86, 120
11, 73007, Note_off_c, 10, 86, 64
11, 73056, Note_on_c, 10, 86, 120
11, 73056, Control_c, 10, 7, 35
11, 73097, Note_off_c, 10, 86, 64
11, 73152, Note_on_c, 10, 86, 116
11, 73152, Control_c, 10, 7, 35
11, 73192, Note_off_c, 10, 86, 64
11, 73248, Note_on_c, 10, 86, 120
11, 73316, Note_off_c, 10, 86, 64
11, 73344, Note_on_c, 10, 84, 120
11, 73344, Control_c, 10, 7, 31
11, 73387, Note_off_c, 10, 84, 64
11, 73440, Note_on_c, 10, 84, 124
11, 73440, Control_c, 10, 7, 29
11, 73546, Note_off_c, 10, 84, 64
11, 73632, Note_on_c, 10, 84, 124
11, 73632, Control_c, 10, 7, 26
11, 73776, Note_on_c, 10, 82, 100
11, 73803, Note_off_c, 10, 84, 64
11, 73817, Note_off_c, 10, 82, 64
11, 73824, Note_on_c, 10, 79, 112
11, 73880, Note_off_c, 10, 79, 64
11, 74304, Control_c, 10, 7, 15
11, 74496, Note_on_c, 10, 86, 124
11, 74496, Control_c, 10, 7, 12
11, 74545, Note_off_c, 10, 86, 64
11, 74592, Note_on_c, 10, 86, 124
11, 74592, Control_c, 10, 7, 10
11, 74640, Note_off_c, 10, 86, 64
11, 74688, Note_on_c, 10, 86, 112
11, 74728, Note_off_c, 10, 86, 64
11, 74784, Note_on_c, 10, 86, 112
11, 74784, Control_c, 10, 7, 6
11, 74848, Note_off_c, 10, 86, 64
11, 75264, Control_c, 10, 7, 0
11, 76032, Control_c, 10, 120, 0
11, 76048, Control_c, 10, 123, 0
11, 76048, End_track
12, 0, Start_track
12, 0, Title_t, "El.piano"
12, 0, Channel_prefix, 11
12, 0, Control_c, 11, 7, 127
12, 0, Control_c, 11, 10, 64
12, 0, Program_c, 11, 0
12, 235, Control_c, 11, 121, 0
12, 279, Pitch_bend_c, 11, 8192
12, 286, Control_c, 11, 7, 88
12, 287, Control_c, 11, 10, 64
12, 288, Control_c, 11, 11, 127
12, 289, Control_c, 11, 91, 58
12, 290, Control_c, 11, 93, 40
12, 322, Control_c, 11, 0, 0
12, 372, Program_c, 11, 4
12, 10752, Note_on_c, 11, 60, 98
12, 10752, Note_on_c, 11, 63, 110
12, 10752, Note_on_c, 11, 67, 86
12, 11281, Note_off_c, 11, 67, 64
12, 11293, Note_off_c, 11, 63, 64
12, 11305, Note_off_c, 11, 60, 64
12, 11328, Note_on_c, 11, 60, 106
12, 11328, Note_on_c, 11, 63, 122
12, 11328, Note_on_c, 11, 67, 106
12, 11460, Note_off_c, 11, 67, 64
12, 11477, Note_off_c, 11, 63, 64
12, 11478, Note_off_c, 11, 60, 64
12, 11520, Note_on_c, 11, 60, 110
12, 11520, Note_on_c, 11, 62, 106
12, 11520, Note_on_c, 11, 65, 114
12, 11520, Note_on_c, 11, 69, 118
12, 12065, Note_off_c, 11, 69, 64
12, 12074, Note_off_c, 11, 65, 64
12, 12074, Note_off_c, 11, 62, 64
12, 12074, Note_off_c, 11, 60, 64
12, 12096, Note_on_c, 11, 60, 102
12, 12096, Note_on_c, 11, 62, 90
12, 12096, Note_on_c, 11, 65, 86
12, 12096, Note_on_c, 11, 69, 106
12, 12231, Note_off_c, 11, 65, 64
12, 12233, Note_off_c, 11, 69, 64
12, 12237, Note_off_c, 11, 62, 64
12, 12237, Note_off_c, 11, 60, 64
12, 12288, Note_on_c, 11, 55, 89
12, 12288, Note_on_c, 11, 67, 113
12, 12807, Note_off_c, 11, 55, 64
12, 12853, Note_off_c, 11, 67, 64
12, 17568, Note_on_c, 11, 74, 124
12, 19027, Note_off_c, 11, 74, 64
12, 25344, Note_on_c, 11, 60, 98
12, 25344, Note_on_c, 11, 63, 110
12, 25344, Note_on_c, 11, 67, 86
12, 25873, Note_off_c, 11, 67, 64
12, 25885, Note_off_c, 11, 63, 64
12, 25897, Note_off_c, 11, 60, 64
12, 25920, Note_on_c, 11, 60, 106
12, 25920, Note_on_c, 11, 63, 122
12, 25920, Note_on_c, 11, 67, 106
12, 26052, Note_off_c, 11, 67, 64
12, 26069, Note_off_c, 11, 63, 64
12, 26070, Note_off_c, 11, 60, 64
12, 26112, Note_on_c, 11, 60, 110
12, 26112, Note_on_c, 11, 62, 106
12, 26112, Note_on_c, 11, 65, 114
12, 26112, Note_on_c, 11, 69, 118
12, 26657, Note_off_c, 11, 69, 64
12, 26666, Note_off_c, 11, 65, 64
12, 26666, Note_off_c, 11, 62, 64
12, 26666, Note_off_c, 11, 60, 64
12, 26688, Note_on_c, 11, 60, 102
12, 26688, Note_on_c, 11, 62, 90
12, 26688, Note_on_c, 11, 65, 86
12, 26688, Note_on_c, 11, 69, 106
12, 26823, Note_off_c, 11, 65, 64
12, 26825, Note_off_c, 11, 69, 64
12, 26829, Note_off_c, 11, 62, 64
12, 26829, Note_off_c, 11, 60, 64
12, 26880, Note_on_c, 11, 55, 89
12, 26880, Note_on_c, 11, 67, 113
12, 27399, Note_off_c, 11, 55, 64
12, 27445, Note_off_c, 11, 67, 64
12, 32160, Note_on_c, 11, 74, 124
12, 33619, Note_off_c, 11, 74, 64
12, 38400, Note_on_c, 11, 67, 112
12, 39552, Note_on_c, 11, 70, 100
12, 39556, Note_off_c, 11, 67, 64
12, 39645, Note_off_c, 11, 70, 64
12, 39648, Note_on_c, 11, 69, 92
12, 39744, Note_on_c, 11, 67, 96
12, 39756, Note_off_c, 11, 69, 64
12, 41152, Note_off_c, 11, 67, 64
12, 41184, Note_on_c, 11, 67, 92
12, 41279, Note_off_c, 11, 67, 64
12, 41280, Note_on_c, 11, 69, 92
12, 41438, Note_off_c, 11, 69, 64
12, 41472, Note_on_c, 11, 70, 92
12, 42558, Note_off_c, 11, 70, 64
12, 42624, Note_on_c, 11, 70, 96
12, 42720, Note_on_c, 11, 69, 92
12, 42725, Note_off_c, 11, 70, 64
12, 42816, Note_on_c, 11, 67, 100
12, 42821, Note_off_c, 11, 69, 64
12, 42965, Note_off_c, 11, 67, 64
12, 43008, Note_on_c, 11, 69, 76
12, 43008, Note_on_c, 11, 81, 104
12, 43758, Note_off_c, 11, 81, 64
12, 43769, Note_off_c, 11, 69, 64
12, 47616, Note_on_c, 11, 60, 98
12, 47616, Note_on_c, 11, 63, 110
12, 47616, Note_on_c, 11, 67, 86
12, 48145, Note_off_c, 11, 67, 64
12, 48157, Note_off_c, 11, 63, 64
12, 48169, Note_off_c, 11, 60, 64
12, 48192, Note_on_c, 11, 60, 106
12, 48192, Note_on_c, 11, 63, 122
12, 48192, Note_on_c, 11, 67, 106
12, 48324, Note_off_c, 11, 67, 64
12, 48341, Note_off_c, 11, 63, 64
12, 48342, Note_off_c, 11, 60, 64
12, 48384, Note_on_c, 11, 60, 110
12, 48384, Note_on_c, 11, 62, 106
12, 48384, Note_on_c, 11, 65, 114
12, 48384, Note_on_c, 11, 69, 118
12, 48929, Note_off_c, 11, 69, 64
12, 48938, Note_off_c, 11, 65, 64
12, 48938, Note_off_c, 11, 62, 64
12, 48938, Note_off_c, 11, 60, 64
12, 48960, Note_on_c, 11, 60, 102
12, 48960, Note_on_c, 11, 62, 90
12, 48960, Note_on_c, 11, 65, 86
12, 48960, Note_on_c, 11, 69, 106
12, 49095, Note_off_c, 11, 65, 64
12, 49097, Note_off_c, 11, 69, 64
12, 49101, Note_off_c, 11, 62, 64
12, 49101, Note_off_c, 11, 60, 64
12, 53760, Note_on_c, 11, 60, 98
12, 53760, Note_on_c, 11, 63, 110
12, 53760, Note_on_c, 11, 67, 86
12, 54289, Note_off_c, 11, 67, 64
12, 54301, Note_off_c, 11, 63, 64
12, 54313, Note_off_c, 11, 60, 64
12, 54336, Note_on_c, 11, 60, 106
12, 54336, Note_on_c, 11, 63, 122
12, 54336, Note_on_c, 11, 67, 106
12, 54468, Note_off_c, 11, 67, 64
12, 54485, Note_off_c, 11, 63, 64
12, 54486, Note_off_c, 11, 60, 64
12, 54528, Note_on_c, 11, 60, 110
12, 54528, Note_on_c, 11, 62, 106
12, 54528, Note_on_c, 11, 65, 114
12, 54528, Note_on_c, 11, 69, 118
12, 55073, Note_off_c, 11, 69, 64
12, 55082, Note_off_c, 11, 65, 64
12, 55082, Note_off_c, 11, 62, 64
12, 55082, Note_off_c, 11, 60, 64
12, 55104, Note_on_c, 11, 60, 102
12, 55104, Note_on_c, 11, 62, 90
12, 55104, Note_on_c, 11, 65, 86
12, 55104, Note_on_c, 11, 69, 106
12, 55239, Note_off_c, 11, 65, 64
12, 55241, Note_off_c, 11, 69, 64
12, 55245, Note_off_c, 11, 62, 64
12, 55245, Note_off_c, 11, 60, 64
12, 56832, Note_on_c, 11, 55, 89
12, 56832, Note_on_c, 11, 67, 113
12, 57351, Note_off_c, 11, 55, 64
12, 57397, Note_off_c, 11, 67, 64
12, 69888, Note_on_c, 11, 55, 89
12, 69888, Note_on_c, 11, 67, 113
12, 70407, Note_off_c, 11, 55, 64
12, 70453, Note_off_c, 11, 67, 64
12, 72864, Control_c, 11, 7, 38
12, 72960, Note_on_c, 11, 55, 89
12, 72960, Note_on_c, 11, 67, 113
12, 73152, Control_c, 11, 7, 35
12, 73344, Control_c, 11, 7, 31
12, 73479, Note_off_c, 11, 55, 64
12, 73525, Note_off_c, 11, 67, 64
12, 75264, Control_c, 11, 7, 0
12, 76032, Control_c, 11, 120, 0
12, 76048, Control_c, 11, 123, 0
12, 76048, End_track
13, 0, Start_track
13, 0, Title_t, "Reverse "
13, 0, Channel_prefix, 12
13, 0, Control_c, 12, 7, 127
13, 0, Control_c, 12, 10, 64
13, 0, Program_c, 12, 0
13, 244, Control_c, 12, 121, 0
13, 295, Control_c, 12, 7, 67
13, 296, Control_c, 12, 10, 64
13, 297, Control_c, 12, 11, 127
13, 298, Control_c, 12, 91, 80
13, 299, Control_c, 12, 93, 40
13, 330, Pitch_bend_c, 12, 8192
13, 341, Control_c, 12, 0, 0
13, 396, Program_c, 12, 119
13, 10176, Note_on_c, 12, 60, 120
13, 10748, Note_off_c, 12, 60, 64
13, 47040, Note_on_c, 12, 60, 120
13, 47612, Note_off_c, 12, 60, 64
13, 50112, Note_on_c, 12, 60, 120
13, 50684, Note_off_c, 12, 60, 64
13, 53184, Note_on_c, 12, 60, 120
13, 53756, Note_off_c, 12, 60, 64
13, 56256, Note_on_c, 12, 60, 120
13, 56828, Note_off_c, 12, 60, 64
13, 63168, Note_on_c, 12, 60, 120
13, 63740, Note_off_c, 12, 60, 64
13, 76032, Control_c, 12, 120, 0
13, 76048, Control_c, 12, 123, 0
13, 76048, End_track
14, 0, Start_track
14, 0, Title_t, "LADYMARM"
14, 1, System_exclusive, 5, 126, 127, 9, 1, 247
14, 24, System_exclusive, 10, 65, 16, 66, 18, 64, 0, 127, 0, 65, 247
14, 68, System_exclusive, 10, 65, 16, 66, 18, 64, 1, 51, 80, 60, 247
14, 117, System_exclusive, 10, 65, 16, 66, 18, 64, 1, 52, 80, 59, 247
14, 159, System_exclusive, 25, 65, 16, 66, 18, 64, 1, 0, 99, 95, 73, 78, 84, 46, 77, 73, 68, 73, 32, 72, 73, 84, 83, 32, 73, 247
14, 76704, System_exclusive, 10, 65, 16, 66, 18, 64, 0, 127, 0, 65, 247
14, 76704, End_track
0, 0, End_of_file
