0, 0, Header, 1, 9, 120
1, 0, Start_track
1, 0, MIDI_port, 0
1, 0, System_exclusive, 10, 65, 16, 66, 18, 64, 0, 127, 0, 65, 247
1, 0, MIDI_port, 0
1, 0, Time_signature, 4, 2, 24, 8
1, 0, Key_signature, 0, "major"
1, 0, Tempo, 857143
1, 0, Marker_t, "LAKAI by Casiopea Performed by Iman T"
1, 0, End_track
2, 0, Start_track
2, 0, MIDI_port, 0
2, 0, Title_t, "Comments :"
2, 0, Program_c, 1, 29
2, 0, Control_c, 1, 7, 100
2, 8970, Note_on_c, 1, 56, 123
2, 9029, Note_on_c, 1, 56, 0
2, 9030, Note_on_c, 1, 57, 96
2, 9059, Note_on_c, 1, 57, 0
2, 9060, Note_on_c, 1, 59, 114
2, 9109, Note_on_c, 1, 59, 0
2, 9120, Note_on_c, 1, 59, 114
2, 9149, Note_on_c, 1, 59, 0
2, 9150, Note_on_c, 1, 61, 80
2, 9179, Note_on_c, 1, 61, 0
2, 9180, Note_on_c, 1, 62, 97
2, 9209, Note_on_c, 1, 62, 0
2, 9210, Note_on_c, 1, 64, 120
2, 9259, Note_on_c, 1, 64, 0
2, 9270, Note_on_c, 1, 59, 111
2, 9313, Note_on_c, 1, 59, 0
2, 9330, Note_on_c, 1, 61, 112
2, 9389, Note_on_c, 1, 61, 0
2, 9420, Note_on_c, 1, 62, 89
2, 9420, Note_on_c, 1, 63, 117
2, 9439, Note_on_c, 1, 62, 0
2, 9499, Note_on_c, 1, 63, 0
2, 9510, Note_on_c, 1, 61, 107
2, 9539, Note_on_c, 1, 61, 0
2, 9540, Note_on_c, 1, 60, 89
2, 9569, Note_on_c, 1, 60, 0
2, 9570, Note_on_c, 1, 58, 112
2, 9599, Note_on_c, 1, 58, 0
2, 9600, Note_on_c, 1, 60, 96
2, 9632, Note_on_c, 1, 60, 0
2, 9690, Note_on_c, 1, 65, 120
2, 9690, Note_on_c, 1, 61, 93
2, 9719, Note_on_c, 1, 65, 0
2, 9724, Note_on_c, 1, 61, 0
2, 9780, Note_on_c, 1, 58, 93
2, 9780, Note_on_c, 1, 61, 112
2, 9809, Note_on_c, 1, 61, 0
2, 9815, Note_on_c, 1, 58, 0
2, 9870, Note_on_c, 1, 63, 123
2, 9875, Note_on_c, 1, 55, 96
2, 9909, Note_on_c, 1, 63, 0
2, 9914, Note_on_c, 1, 55, 0
2, 16350, Note_on_c, 1, 62, 114
2, 16379, Note_on_c, 1, 62, 0
2, 16380, Note_on_c, 1, 65, 124
2, 16409, Note_on_c, 1, 65, 0
2, 16410, Note_on_c, 1, 62, 106
2, 16439, Note_on_c, 1, 62, 0
2, 16440, Note_on_c, 1, 67, 127
2, 16469, Note_on_c, 1, 67, 0
2, 16470, Note_on_c, 1, 69, 120
2, 16499, Note_on_c, 1, 69, 0
2, 16500, Note_on_c, 1, 60, 102
2, 16529, Note_on_c, 1, 60, 0
2, 16530, Note_on_c, 1, 62, 117
2, 16559, Note_on_c, 1, 62, 0
2, 16560, Note_on_c, 1, 65, 120
2, 16579, Note_on_c, 1, 65, 0
2, 16590, Note_on_c, 1, 65, 124
2, 16649, Note_on_c, 1, 65, 0
2, 16650, Note_on_c, 1, 62, 124
2, 16709, Note_on_c, 1, 62, 0
2, 16710, Note_on_c, 1, 60, 90
2, 16739, Note_on_c, 1, 60, 0
2, 16740, Note_on_c, 1, 62, 117
2, 16769, Note_on_c, 1, 62, 0
2, 16770, Note_on_c, 1, 65, 120
2, 16823, Control_c, 1, 1, 2
2, 16825, Control_c, 1, 1, 17
2, 16828, Control_c, 1, 1, 70
2, 16830, Control_c, 1, 1, 92
2, 16834, Control_c, 1, 1, 101
2, 16837, Control_c, 1, 1, 107
2, 16843, Control_c, 1, 1, 101
2, 16854, Control_c, 1, 1, 82
2, 16857, Control_c, 1, 1, 10
2, 16859, Note_on_c, 1, 65, 0
2, 16859, Control_c, 1, 1, 0
2, 16860, Note_on_c, 1, 60, 104
2, 16889, Note_on_c, 1, 60, 0
2, 16890, Note_on_c, 1, 62, 120
2, 16949, Note_on_c, 1, 62, 0
2, 16950, Note_on_c, 1, 60, 94
2, 16979, Note_on_c, 1, 60, 0
2, 16980, Note_on_c, 1, 62, 117
2, 17009, Note_on_c, 1, 62, 0
2, 17010, Note_on_c, 1, 66, 117
2, 17010, Note_on_c, 1, 67, 127
2, 17029, Note_on_c, 1, 66, 0
2, 17060, Control_c, 1, 1, 17
2, 17063, Control_c, 1, 1, 77
2, 17066, Control_c, 1, 1, 95
2, 17069, Control_c, 1, 1, 107
2, 17072, Control_c, 1, 1, 111
2, 17077, Control_c, 1, 1, 118
2, 17089, Control_c, 1, 1, 111
2, 17092, Control_c, 1, 1, 64
2, 17095, Control_c, 1, 1, 0
2, 17099, Note_on_c, 1, 67, 0
2, 17100, Note_on_c, 1, 65, 124
2, 17159, Note_on_c, 1, 65, 0
2, 17160, Note_on_c, 1, 62, 117
2, 17224, Control_c, 1, 1, 4
2, 17227, Control_c, 1, 1, 8
2, 17230, Control_c, 1, 1, 20
2, 17233, Control_c, 1, 1, 30
2, 17236, Control_c, 1, 1, 52
2, 17239, Control_c, 1, 1, 82
2, 17242, Control_c, 1, 1, 90
2, 17244, Control_c, 1, 1, 95
2, 17249, Control_c, 1, 1, 98
2, 17262, Control_c, 1, 1, 104
2, 17279, Note_on_c, 1, 62, 0
2, 17279, Control_c, 1, 1, 111
2, 17288, Control_c, 1, 1, 98
2, 17291, Control_c, 1, 1, 22
2, 17293, Control_c, 1, 1, 0
2, 17310, Note_on_c, 1, 62, 109
2, 17339, Note_on_c, 1, 62, 0
2, 17340, Note_on_c, 1, 65, 117
2, 17369, Note_on_c, 1, 65, 0
2, 17370, Note_on_c, 1, 62, 102
2, 17399, Note_on_c, 1, 62, 0
2, 17400, Note_on_c, 1, 67, 120
2, 17429, Note_on_c, 1, 67, 0
2, 17430, Note_on_c, 1, 69, 114
2, 17459, Note_on_c, 1, 69, 0
2, 17460, Note_on_c, 1, 60, 97
2, 17489, Note_on_c, 1, 60, 0
2, 17490, Note_on_c, 1, 62, 96
2, 17519, Note_on_c, 1, 62, 0
2, 17520, Note_on_c, 1, 65, 124
2, 17539, Note_on_c, 1, 65, 0
2, 17550, Note_on_c, 1, 65, 114
2, 17609, Note_on_c, 1, 65, 0
2, 17610, Note_on_c, 1, 62, 111
2, 17669, Note_on_c, 1, 62, 0
2, 17670, Note_on_c, 1, 60, 102
2, 17699, Note_on_c, 1, 60, 0
2, 17700, Note_on_c, 1, 62, 120
2, 17729, Note_on_c, 1, 62, 0
2, 17730, Note_on_c, 1, 65, 127
2, 17730, Note_on_c, 1, 64, 96
2, 17749, Note_on_c, 1, 64, 0
2, 17786, Control_c, 1, 1, 15
2, 17789, Control_c, 1, 1, 77
2, 17792, Control_c, 1, 1, 104
2, 17795, Control_c, 1, 1, 111
2, 17800, Control_c, 1, 1, 114
2, 17812, Control_c, 1, 1, 121
2, 17818, Control_c, 1, 1, 111
2, 17819, Note_on_c, 1, 65, 0
2, 17820, Control_c, 1, 1, 21
2, 17820, Note_on_c, 1, 60, 102
2, 17823, Control_c, 1, 1, 0
2, 17849, Note_on_c, 1, 60, 0
2, 17850, Note_on_c, 1, 62, 117
2, 17909, Note_on_c, 1, 62, 0
2, 17910, Note_on_c, 1, 60, 92
2, 17939, Note_on_c, 1, 60, 0
2, 17940, Note_on_c, 1, 62, 120
2, 17969, Note_on_c, 1, 62, 0
2, 17970, Note_on_c, 1, 69, 127
2, 17970, Note_on_c, 1, 68, 123
2, 17989, Note_on_c, 1, 68, 0
2, 18018, Control_c, 1, 1, 19
2, 18021, Control_c, 1, 1, 82
2, 18024, Control_c, 1, 1, 101
2, 18026, Control_c, 1, 1, 111
2, 18035, Control_c, 1, 1, 118
2, 18049, Control_c, 1, 1, 107
2, 18052, Control_c, 1, 1, 10
2, 18055, Control_c, 1, 1, 0
2, 18059, Note_on_c, 1, 69, 0
2, 18060, Note_on_c, 1, 65, 127
2, 18119, Note_on_c, 1, 65, 0
2, 18120, Note_on_c, 1, 62, 109
2, 18191, Control_c, 1, 1, 8
2, 18193, Control_c, 1, 1, 22
2, 18196, Control_c, 1, 1, 23
2, 18199, Control_c, 1, 1, 57
2, 18202, Control_c, 1, 1, 92
2, 18208, Control_c, 1, 1, 101
2, 18214, Control_c, 1, 1, 111
2, 18219, Control_c, 1, 1, 114
2, 18239, Note_on_c, 1, 62, 0
2, 18242, Control_c, 1, 1, 111
2, 18245, Control_c, 1, 1, 39
2, 18248, Control_c, 1, 1, 0
2, 18270, Note_on_c, 1, 67, 117
2, 18299, Note_on_c, 1, 67, 0
2, 18300, Note_on_c, 1, 69, 120
2, 18329, Note_on_c, 1, 69, 0
2, 18330, Note_on_c, 1, 67, 89
2, 18359, Note_on_c, 1, 67, 0
2, 18360, Note_on_c, 1, 72, 120
2, 18389, Note_on_c, 1, 72, 0
2, 18390, Note_on_c, 1, 74, 114
2, 18419, Note_on_c, 1, 74, 0
2, 18420, Note_on_c, 1, 67, 97
2, 18449, Note_on_c, 1, 67, 0
2, 18450, Note_on_c, 1, 69, 109
2, 18479, Note_on_c, 1, 69, 0
2, 18480, Note_on_c, 1, 72, 120
2, 18509, Note_on_c, 1, 72, 0
2, 18510, Note_on_c, 1, 74, 109
2, 18539, Note_on_c, 1, 74, 0
2, 18540, Note_on_c, 1, 77, 114
2, 18569, Note_on_c, 1, 77, 0
2, 18570, Note_on_c, 1, 74, 124
2, 18629, Note_on_c, 1, 74, 0
2, 18630, Note_on_c, 1, 79, 111
2, 18659, Note_on_c, 1, 79, 0
2, 18660, Note_on_c, 1, 74, 111
2, 18689, Note_on_c, 1, 74, 0
2, 18690, Note_on_c, 1, 77, 120
2, 18779, Note_on_c, 1, 77, 0
2, 18780, Note_on_c, 1, 74, 120
2, 18809, Note_on_c, 1, 74, 0
2, 18810, Note_on_c, 1, 72, 117
2, 18869, Note_on_c, 1, 72, 0
2, 18870, Note_on_c, 1, 69, 106
2, 18899, Note_on_c, 1, 69, 0
2, 18900, Note_on_c, 1, 67, 109
2, 18929, Note_on_c, 1, 67, 0
2, 18930, Note_on_c, 1, 65, 124
2, 18959, Note_on_c, 1, 65, 0
2, 18960, Note_on_c, 1, 67, 111
2, 19019, Note_on_c, 1, 67, 0
2, 19020, Note_on_c, 1, 72, 124
2, 19020, Note_on_c, 1, 71, 111
2, 19039, Note_on_c, 1, 71, 0
2, 19079, Note_on_c, 1, 72, 0
2, 19080, Note_on_c, 1, 69, 127
2, 19199, Note_on_c, 1, 69, 0
2, 19230, Note_on_c, 1, 69, 120
2, 19259, Note_on_c, 1, 69, 0
2, 19260, Note_on_c, 1, 67, 104
2, 19289, Note_on_c, 1, 67, 0
2, 19290, Note_on_c, 1, 72, 117
2, 19319, Note_on_c, 1, 72, 0
2, 19320, Note_on_c, 1, 69, 114
2, 19349, Note_on_c, 1, 69, 0
2, 19350, Note_on_c, 1, 67, 92
2, 19379, Note_on_c, 1, 67, 0
2, 19380, Note_on_c, 1, 65, 120
2, 19409, Note_on_c, 1, 65, 0
2, 19410, Note_on_c, 1, 60, 102
2, 19439, Note_on_c, 1, 60, 0
2, 19440, Note_on_c, 1, 62, 117
2, 19469, Note_on_c, 1, 62, 0
2, 19470, Note_on_c, 1, 65, 96
2, 19499, Note_on_c, 1, 65, 0
2, 19500, Note_on_c, 1, 69, 117
2, 19529, Note_on_c, 1, 69, 0
2, 19530, Note_on_c, 1, 67, 120
2, 19619, Note_on_c, 1, 67, 0
2, 19620, Note_on_c, 1, 69, 117
2, 19649, Note_on_c, 1, 69, 0
2, 19650, Note_on_c, 1, 72, 111
2, 19699, Note_on_c, 1, 72, 0
2, 19710, Note_on_c, 1, 77, 124
2, 20036, Control_c, 1, 1, 2
2, 20053, Control_c, 1, 1, 3
2, 20059, Control_c, 1, 1, 2
2, 20067, Control_c, 1, 1, 4
2, 20073, Control_c, 1, 1, 3
2, 20076, Control_c, 1, 1, 4
2, 20085, Control_c, 1, 1, 5
2, 20088, Control_c, 1, 1, 7
2, 20090, Control_c, 1, 1, 8
2, 20093, Control_c, 1, 1, 10
2, 20099, Control_c, 1, 1, 15
2, 20102, Control_c, 1, 1, 24
2, 20105, Control_c, 1, 1, 29
2, 20108, Control_c, 1, 1, 32
2, 20116, Control_c, 1, 1, 50
2, 20119, Control_c, 1, 1, 66
2, 20125, Control_c, 1, 1, 60
2, 20128, Control_c, 1, 1, 43
2, 20131, Control_c, 1, 1, 68
2, 20136, Control_c, 1, 1, 72
2, 20154, Control_c, 1, 1, 75
2, 20165, Control_c, 1, 1, 84
2, 20171, Control_c, 1, 1, 87
2, 20183, Control_c, 1, 1, 92
2, 20211, Control_c, 1, 1, 98
2, 20252, Control_c, 1, 1, 104
2, 20298, Control_c, 1, 1, 107
2, 20344, Control_c, 1, 1, 114
2, 20412, Control_c, 1, 1, 118
2, 20509, Control_c, 1, 1, 107
2, 20512, Control_c, 1, 1, 101
2, 20515, Control_c, 1, 1, 68
2, 20518, Control_c, 1, 1, 4
2, 20519, Note_on_c, 1, 77, 0
2, 20522, Control_c, 1, 1, 0
2, 25770, Note_on_c, 1, 56, 123
2, 25829, Note_on_c, 1, 56, 0
2, 25830, Note_on_c, 1, 57, 96
2, 25859, Note_on_c, 1, 57, 0
2, 25860, Note_on_c, 1, 59, 114
2, 25909, Note_on_c, 1, 59, 0
2, 25920, Note_on_c, 1, 59, 114
2, 25949, Note_on_c, 1, 59, 0
2, 25950, Note_on_c, 1, 61, 80
2, 25979, Note_on_c, 1, 61, 0
2, 25980, Note_on_c, 1, 62, 97
2, 26009, Note_on_c, 1, 62, 0
2, 26010, Note_on_c, 1, 64, 120
2, 26059, Note_on_c, 1, 64, 0
2, 26070, Note_on_c, 1, 59, 111
2, 26113, Note_on_c, 1, 59, 0
2, 26130, Note_on_c, 1, 61, 112
2, 26189, Note_on_c, 1, 61, 0
2, 26220, Note_on_c, 1, 62, 89
2, 26220, Note_on_c, 1, 63, 117
2, 26239, Note_on_c, 1, 62, 0
2, 26309, Note_on_c, 1, 63, 0
2, 26310, Note_on_c, 1, 61, 107
2, 26339, Note_on_c, 1, 61, 0
2, 26340, Note_on_c, 1, 60, 89
2, 26369, Note_on_c, 1, 60, 0
2, 26370, Note_on_c, 1, 58, 112
2, 26399, Note_on_c, 1, 58, 0
2, 26400, Note_on_c, 1, 60, 96
2, 26432, Note_on_c, 1, 60, 0
2, 26490, Note_on_c, 1, 65, 120
2, 26490, Note_on_c, 1, 61, 93
2, 26519, Note_on_c, 1, 65, 0
2, 26524, Note_on_c, 1, 61, 0
2, 26580, Note_on_c, 1, 58, 93
2, 26580, Note_on_c, 1, 61, 112
2, 26619, Note_on_c, 1, 61, 0
2, 26619, Note_on_c, 1, 58, 0
2, 26670, Note_on_c, 1, 63, 123
2, 26675, Note_on_c, 1, 55, 96
2, 26718, Note_on_c, 1, 55, 0
2, 26729, Note_on_c, 1, 63, 0
2, 26729, End_track
3, 0, Start_track
3, 0, MIDI_port, 0
3, 0, Title_t, "Itjahjono@aol.com"
3, 0, Program_c, 2, 35
3, 0, Control_c, 2, 7, 98
3, 2250, Note_on_c, 2, 43, 110
3, 2309, Note_on_c, 2, 43, 0
3, 2310, Note_on_c, 2, 41, 110
3, 2339, Note_on_c, 2, 41, 0
3, 2340, Note_on_c, 2, 40, 110
3, 2369, Note_on_c, 2, 40, 0
3, 2370, Note_on_c, 2, 38, 110
3, 2399, Note_on_c, 2, 38, 0
3, 2400, Note_on_c, 2, 37, 110
3, 2509, Note_on_c, 2, 37, 0
3, 2520, Note_on_c, 2, 36, 110
3, 2629, Note_on_c, 2, 36, 0
3, 2640, Note_on_c, 2, 35, 110
3, 2719, Note_on_c, 2, 35, 0
3, 2730, Note_on_c, 2, 34, 110
3, 2839, Note_on_c, 2, 34, 0
3, 2850, Note_on_c, 2, 33, 110
3, 2889, Note_on_c, 2, 33, 0
3, 2910, Note_on_c, 2, 32, 110
3, 3189, Note_on_c, 2, 32, 0
3, 3210, Note_on_c, 2, 33, 110
3, 3239, Note_on_c, 2, 33, 0
3, 3270, Note_on_c, 2, 34, 110
3, 3299, Note_on_c, 2, 34, 0
3, 3330, Note_on_c, 2, 35, 110
3, 3359, Note_on_c, 2, 35, 0
3, 3360, Note_on_c, 2, 36, 110
3, 3719, Note_on_c, 2, 36, 0
3, 3840, Note_on_c, 2, 29, 110
3, 3899, Note_on_c, 2, 29, 0
3, 4050, Note_on_c, 2, 29, 110
3, 4079, Note_on_c, 2, 29, 0
3, 4080, Note_on_c, 2, 46, 110
3, 4109, Note_on_c, 2, 46, 0
3, 4110, Note_on_c, 2, 46, 110
3, 4139, Note_on_c, 2, 46, 0
3, 4140, Note_on_c, 2, 34, 110
3, 4169, Note_on_c, 2, 34, 0
3, 4170, Note_on_c, 2, 46, 110
3, 4209, Note_on_c, 2, 46, 0
3, 4290, Note_on_c, 2, 34, 110
3, 4319, Note_on_c, 2, 34, 0
3, 4320, Note_on_c, 2, 33, 110
3, 4379, Note_on_c, 2, 33, 0
3, 4530, Note_on_c, 2, 33, 110
3, 4559, Note_on_c, 2, 33, 0
3, 4560, Note_on_c, 2, 38, 110
3, 4589, Note_on_c, 2, 38, 0
3, 4590, Note_on_c, 2, 38, 110
3, 4619, Note_on_c, 2, 38, 0
3, 4620, Note_on_c, 2, 45, 110
3, 4649, Note_on_c, 2, 45, 0
3, 4650, Note_on_c, 2, 50, 110
3, 4689, Note_on_c, 2, 50, 0
3, 4770, Note_on_c, 2, 38, 110
3, 4799, Note_on_c, 2, 38, 0
3, 4800, Note_on_c, 2, 31, 110
3, 4929, Note_on_c, 2, 31, 0
3, 4950, Note_on_c, 2, 33, 110
3, 4979, Note_on_c, 2, 33, 0
3, 5010, Note_on_c, 2, 34, 110
3, 5159, Note_on_c, 2, 34, 0
3, 5160, Note_on_c, 2, 36, 110
3, 5279, Note_on_c, 2, 36, 0
3, 5280, Note_on_c, 2, 29, 110
3, 5339, Note_on_c, 2, 29, 0
3, 5490, Note_on_c, 2, 29, 110
3, 5519, Note_on_c, 2, 29, 0
3, 5520, Note_on_c, 2, 46, 110
3, 5549, Note_on_c, 2, 46, 0
3, 5550, Note_on_c, 2, 46, 110
3, 5579, Note_on_c, 2, 46, 0
3, 5580, Note_on_c, 2, 34, 110
3, 5609, Note_on_c, 2, 34, 0
3, 5610, Note_on_c, 2, 46, 110
3, 5649, Note_on_c, 2, 46, 0
3, 5730, Note_on_c, 2, 34, 110
3, 5759, Note_on_c, 2, 34, 0
3, 5760, Note_on_c, 2, 33, 110
3, 5819, Note_on_c, 2, 33, 0
3, 5970, Note_on_c, 2, 33, 110
3, 5999, Note_on_c, 2, 33, 0
3, 6000, Note_on_c, 2, 38, 110
3, 6029, Note_on_c, 2, 38, 0
3, 6030, Note_on_c, 2, 38, 110
3, 6059, Note_on_c, 2, 38, 0
3, 6060, Note_on_c, 2, 45, 110
3, 6089, Note_on_c, 2, 45, 0
3, 6090, Note_on_c, 2, 50, 110
3, 6129, Note_on_c, 2, 50, 0
3, 6210, Note_on_c, 2, 38, 110
3, 6239, Note_on_c, 2, 38, 0
3, 6240, Note_on_c, 2, 31, 110
3, 6369, Note_on_c, 2, 31, 0
3, 6390, Note_on_c, 2, 33, 110
3, 6419, Note_on_c, 2, 33, 0
3, 6450, Note_on_c, 2, 34, 110
3, 6599, Note_on_c, 2, 34, 0
3, 6600, Note_on_c, 2, 36, 110
3, 6719, Note_on_c, 2, 36, 0
3, 6720, Note_on_c, 2, 29, 110
3, 6929, Note_on_c, 2, 29, 0
3, 6930, Note_on_c, 2, 36, 110
3, 6959, Note_on_c, 2, 36, 0
3, 6960, Note_on_c, 2, 41, 110
3, 7079, Note_on_c, 2, 41, 0
3, 7080, Note_on_c, 2, 29, 110
3, 7109, Note_on_c, 2, 29, 0
3, 7110, Note_on_c, 2, 33, 110
3, 7139, Note_on_c, 2, 33, 0
3, 7140, Note_on_c, 2, 36, 110
3, 7199, Note_on_c, 2, 36, 0
3, 7200, Note_on_c, 2, 34, 110
3, 7339, Note_on_c, 2, 34, 0
3, 7350, Note_on_c, 2, 46, 110
3, 7379, Note_on_c, 2, 46, 0
3, 7410, Note_on_c, 2, 46, 110
3, 7439, Note_on_c, 2, 46, 0
3, 7440, Note_on_c, 2, 34, 110
3, 7579, Note_on_c, 2, 34, 0
3, 7590, Note_on_c, 2, 46, 110
3, 7629, Note_on_c, 2, 46, 0
3, 7650, Note_on_c, 2, 34, 110
3, 7679, Note_on_c, 2, 34, 0
3, 7680, Note_on_c, 2, 33, 110
3, 7859, Note_on_c, 2, 33, 0
3, 7890, Note_on_c, 2, 33, 110
3, 7919, Note_on_c, 2, 33, 0
3, 7920, Note_on_c, 2, 38, 110
3, 7949, Note_on_c, 2, 38, 0
3, 7950, Note_on_c, 2, 38, 110
3, 7979, Note_on_c, 2, 38, 0
3, 7980, Note_on_c, 2, 45, 110
3, 8009, Note_on_c, 2, 45, 0
3, 8010, Note_on_c, 2, 50, 110
3, 8069, Note_on_c, 2, 50, 0
3, 8130, Note_on_c, 2, 38, 110
3, 8159, Note_on_c, 2, 38, 0
3, 8160, Note_on_c, 2, 31, 110
3, 8399, Note_on_c, 2, 31, 0
3, 8400, Note_on_c, 2, 29, 110
3, 8639, Note_on_c, 2, 29, 0
3, 8640, Note_on_c, 2, 28, 110
3, 8829, Note_on_c, 2, 28, 0
3, 8850, Note_on_c, 2, 28, 110
3, 8969, Note_on_c, 2, 28, 0
3, 8970, Note_on_c, 2, 35, 110
3, 8999, Note_on_c, 2, 35, 0
3, 9000, Note_on_c, 2, 40, 110
3, 9059, Note_on_c, 2, 40, 0
3, 9060, Note_on_c, 2, 35, 110
3, 9089, Note_on_c, 2, 35, 0
3, 9090, Note_on_c, 2, 28, 110
3, 9119, Note_on_c, 2, 28, 0
3, 9120, Note_on_c, 2, 33, 110
3, 9199, Note_on_c, 2, 33, 0
3, 9210, Note_on_c, 2, 32, 110
3, 9319, Note_on_c, 2, 32, 0
3, 9330, Note_on_c, 2, 30, 110
3, 9399, Note_on_c, 2, 30, 0
3, 9420, Note_on_c, 2, 34, 110
3, 9589, Note_on_c, 2, 34, 0
3, 9600, Note_on_c, 2, 32, 110
3, 9629, Note_on_c, 2, 32, 0
3, 9690, Note_on_c, 2, 37, 110
3, 9719, Note_on_c, 2, 37, 0
3, 9780, Note_on_c, 2, 34, 110
3, 9809, Note_on_c, 2, 34, 0
3, 9870, Note_on_c, 2, 39, 110
3, 9909, Note_on_c, 2, 39, 0
3, 10080, Note_on_c, 2, 29, 110
3, 10139, Note_on_c, 2, 29, 0
3, 10290, Note_on_c, 2, 29, 110
3, 10319, Note_on_c, 2, 29, 0
3, 10320, Note_on_c, 2, 46, 110
3, 10349, Note_on_c, 2, 46, 0
3, 10350, Note_on_c, 2, 46, 110
3, 10379, Note_on_c, 2, 46, 0
3, 10380, Note_on_c, 2, 34, 110
3, 10409, Note_on_c, 2, 34, 0
3, 10410, Note_on_c, 2, 46, 110
3, 10449, Note_on_c, 2, 46, 0
3, 10530, Note_on_c, 2, 34, 110
3, 10559, Note_on_c, 2, 34, 0
3, 10560, Note_on_c, 2, 33, 110
3, 10619, Note_on_c, 2, 33, 0
3, 10770, Note_on_c, 2, 33, 110
3, 10799, Note_on_c, 2, 33, 0
3, 10800, Note_on_c, 2, 38, 110
3, 10829, Note_on_c, 2, 38, 0
3, 10830, Note_on_c, 2, 38, 110
3, 10859, Note_on_c, 2, 38, 0
3, 10860, Note_on_c, 2, 45, 110
3, 10889, Note_on_c, 2, 45, 0
3, 10890, Note_on_c, 2, 50, 110
3, 10929, Note_on_c, 2, 50, 0
3, 11010, Note_on_c, 2, 38, 110
3, 11039, Note_on_c, 2, 38, 0
3, 11040, Note_on_c, 2, 31, 110
3, 11239, Note_on_c, 2, 31, 0
3, 11250, Note_on_c, 2, 33, 110
3, 11279, Note_on_c, 2, 33, 0
3, 11280, Note_on_c, 2, 34, 110
3, 11399, Note_on_c, 2, 34, 0
3, 11400, Note_on_c, 2, 33, 110
3, 11519, Note_on_c, 2, 33, 0
3, 11520, Note_on_c, 2, 38, 110
3, 11719, Note_on_c, 2, 38, 0
3, 11730, Note_on_c, 2, 35, 110
3, 11919, Note_on_c, 2, 35, 0
3, 11940, Note_on_c, 2, 34, 110
3, 12339, Note_on_c, 2, 34, 0
3, 12360, Note_on_c, 2, 32, 110
3, 12479, Note_on_c, 2, 32, 0
3, 12480, Note_on_c, 2, 31, 110
3, 12539, Note_on_c, 2, 31, 0
3, 12690, Note_on_c, 2, 33, 110
3, 12719, Note_on_c, 2, 33, 0
3, 12720, Note_on_c, 2, 38, 110
3, 12749, Note_on_c, 2, 38, 0
3, 12750, Note_on_c, 2, 38, 110
3, 12779, Note_on_c, 2, 38, 0
3, 12780, Note_on_c, 2, 45, 110
3, 12809, Note_on_c, 2, 45, 0
3, 12810, Note_on_c, 2, 50, 110
3, 12849, Note_on_c, 2, 50, 0
3, 12930, Note_on_c, 2, 38, 110
3, 12959, Note_on_c, 2, 38, 0
3, 12960, Note_on_c, 2, 43, 110
3, 12989, Note_on_c, 2, 43, 0
3, 12990, Note_on_c, 2, 38, 110
3, 13019, Note_on_c, 2, 38, 0
3, 13020, Note_on_c, 2, 43, 110
3, 13059, Note_on_c, 2, 43, 0
3, 13170, Note_on_c, 2, 33, 110
3, 13199, Note_on_c, 2, 33, 0
3, 13200, Note_on_c, 2, 38, 110
3, 13229, Note_on_c, 2, 38, 0
3, 13230, Note_on_c, 2, 33, 110
3, 13259, Note_on_c, 2, 33, 0
3, 13260, Note_on_c, 2, 38, 110
3, 13299, Note_on_c, 2, 38, 0
3, 13350, Note_on_c, 2, 29, 110
3, 13409, Note_on_c, 2, 29, 0
3, 13410, Note_on_c, 2, 30, 110
3, 13439, Note_on_c, 2, 30, 0
3, 13440, Note_on_c, 2, 31, 110
3, 13499, Note_on_c, 2, 31, 0
3, 13650, Note_on_c, 2, 33, 110
3, 13679, Note_on_c, 2, 33, 0
3, 13680, Note_on_c, 2, 38, 110
3, 13709, Note_on_c, 2, 38, 0
3, 13710, Note_on_c, 2, 38, 110
3, 13739, Note_on_c, 2, 38, 0
3, 13740, Note_on_c, 2, 45, 110
3, 13769, Note_on_c, 2, 45, 0
3, 13770, Note_on_c, 2, 50, 110
3, 13809, Note_on_c, 2, 50, 0
3, 13890, Note_on_c, 2, 38, 110
3, 13919, Note_on_c, 2, 38, 0
3, 13920, Note_on_c, 2, 43, 110
3, 13949, Note_on_c, 2, 43, 0
3, 13950, Note_on_c, 2, 38, 110
3, 13979, Note_on_c, 2, 38, 0
3, 13980, Note_on_c, 2, 43, 110
3, 14019, Note_on_c, 2, 43, 0
3, 14130, Note_on_c, 2, 33, 110
3, 14159, Note_on_c, 2, 33, 0
3, 14160, Note_on_c, 2, 38, 110
3, 14189, Note_on_c, 2, 38, 0
3, 14190, Note_on_c, 2, 38, 110
3, 14219, Note_on_c, 2, 38, 0
3, 14220, Note_on_c, 2, 45, 110
3, 14249, Note_on_c, 2, 45, 0
3, 14250, Note_on_c, 2, 38, 110
3, 14309, Note_on_c, 2, 38, 0
3, 14310, Note_on_c, 2, 29, 110
3, 14369, Note_on_c, 2, 29, 0
3, 14370, Note_on_c, 2, 30, 110
3, 14399, Note_on_c, 2, 30, 0
3, 14400, Note_on_c, 2, 31, 110
3, 14459, Note_on_c, 2, 31, 0
3, 14610, Note_on_c, 2, 33, 110
3, 14639, Note_on_c, 2, 33, 0
3, 14640, Note_on_c, 2, 38, 110
3, 14669, Note_on_c, 2, 38, 0
3, 14670, Note_on_c, 2, 38, 110
3, 14699, Note_on_c, 2, 38, 0
3, 14700, Note_on_c, 2, 45, 110
3, 14729, Note_on_c, 2, 45, 0
3, 14730, Note_on_c, 2, 50, 110
3, 14769, Note_on_c, 2, 50, 0
3, 14850, Note_on_c, 2, 38, 110
3, 14879, Note_on_c, 2, 38, 0
3, 14880, Note_on_c, 2, 43, 110
3, 14909, Note_on_c, 2, 43, 0
3, 14910, Note_on_c, 2, 38, 110
3, 14939, Note_on_c, 2, 38, 0
3, 14940, Note_on_c, 2, 43, 110
3, 14979, Note_on_c, 2, 43, 0
3, 15090, Note_on_c, 2, 33, 110
3, 15119, Note_on_c, 2, 33, 0
3, 15120, Note_on_c, 2, 38, 110
3, 15149, Note_on_c, 2, 38, 0
3, 15150, Note_on_c, 2, 38, 110
3, 15179, Note_on_c, 2, 38, 0
3, 15180, Note_on_c, 2, 45, 110
3, 15209, Note_on_c, 2, 45, 0
3, 15210, Note_on_c, 2, 38, 110
3, 15269, Note_on_c, 2, 38, 0
3, 15270, Note_on_c, 2, 29, 110
3, 15329, Note_on_c, 2, 29, 0
3, 15330, Note_on_c, 2, 30, 110
3, 15359, Note_on_c, 2, 30, 0
3, 15360, Note_on_c, 2, 31, 110
3, 15419, Note_on_c, 2, 31, 0
3, 15570, Note_on_c, 2, 33, 110
3, 15599, Note_on_c, 2, 33, 0
3, 15600, Note_on_c, 2, 38, 110
3, 15629, Note_on_c, 2, 38, 0
3, 15630, Note_on_c, 2, 38, 110
3, 15659, Note_on_c, 2, 38, 0
3, 15660, Note_on_c, 2, 45, 110
3, 15689, Note_on_c, 2, 45, 0
3, 15690, Note_on_c, 2, 50, 110
3, 15729, Note_on_c, 2, 50, 0
3, 15810, Note_on_c, 2, 38, 110
3, 15839, Note_on_c, 2, 38, 0
3, 15840, Note_on_c, 2, 43, 110
3, 15869, Note_on_c, 2, 43, 0
3, 15870, Note_on_c, 2, 38, 110
3, 15899, Note_on_c, 2, 38, 0
3, 15900, Note_on_c, 2, 43, 110
3, 15939, Note_on_c, 2, 43, 0
3, 16050, Note_on_c, 2, 33, 110
3, 16079, Note_on_c, 2, 33, 0
3, 16080, Note_on_c, 2, 38, 110
3, 16109, Note_on_c, 2, 38, 0
3, 16110, Note_on_c, 2, 38, 110
3, 16139, Note_on_c, 2, 38, 0
3, 16140, Note_on_c, 2, 38, 110
3, 16309, Note_on_c, 2, 38, 0
3, 16320, Note_on_c, 2, 31, 110
3, 16439, Note_on_c, 2, 31, 0
3, 16440, Note_on_c, 2, 33, 110
3, 16559, Note_on_c, 2, 33, 0
3, 16560, Note_on_c, 2, 34, 110
3, 16679, Note_on_c, 2, 34, 0
3, 16680, Note_on_c, 2, 33, 110
3, 16799, Note_on_c, 2, 33, 0
3, 16800, Note_on_c, 2, 38, 110
3, 16829, Note_on_c, 2, 38, 0
3, 16830, Note_on_c, 2, 38, 110
3, 16859, Note_on_c, 2, 38, 0
3, 16860, Note_on_c, 2, 45, 110
3, 16889, Note_on_c, 2, 45, 0
3, 16890, Note_on_c, 2, 50, 110
3, 16939, Note_on_c, 2, 50, 0
3, 17010, Note_on_c, 2, 33, 110
3, 17039, Note_on_c, 2, 33, 0
3, 17040, Note_on_c, 2, 38, 110
3, 17069, Note_on_c, 2, 38, 0
3, 17070, Note_on_c, 2, 38, 110
3, 17099, Note_on_c, 2, 38, 0
3, 17100, Note_on_c, 2, 45, 110
3, 17159, Note_on_c, 2, 45, 0
3, 17160, Note_on_c, 2, 38, 110
3, 17219, Note_on_c, 2, 38, 0
3, 17220, Note_on_c, 2, 29, 110
3, 17249, Note_on_c, 2, 29, 0
3, 17250, Note_on_c, 2, 30, 110
3, 17279, Note_on_c, 2, 30, 0
3, 17280, Note_on_c, 2, 31, 110
3, 17399, Note_on_c, 2, 31, 0
3, 17400, Note_on_c, 2, 33, 110
3, 17519, Note_on_c, 2, 33, 0
3, 17520, Note_on_c, 2, 34, 110
3, 17639, Note_on_c, 2, 34, 0
3, 17640, Note_on_c, 2, 33, 110
3, 17759, Note_on_c, 2, 33, 0
3, 17760, Note_on_c, 2, 38, 110
3, 17789, Note_on_c, 2, 38, 0
3, 17790, Note_on_c, 2, 38, 110
3, 17819, Note_on_c, 2, 38, 0
3, 17820, Note_on_c, 2, 45, 110
3, 17849, Note_on_c, 2, 45, 0
3, 17850, Note_on_c, 2, 50, 110
3, 17899, Note_on_c, 2, 50, 0
3, 17970, Note_on_c, 2, 33, 110
3, 17999, Note_on_c, 2, 33, 0
3, 18000, Note_on_c, 2, 38, 110
3, 18029, Note_on_c, 2, 38, 0
3, 18030, Note_on_c, 2, 38, 110
3, 18059, Note_on_c, 2, 38, 0
3, 18060, Note_on_c, 2, 45, 110
3, 18119, Note_on_c, 2, 45, 0
3, 18120, Note_on_c, 2, 38, 110
3, 18179, Note_on_c, 2, 38, 0
3, 18180, Note_on_c, 2, 29, 110
3, 18209, Note_on_c, 2, 29, 0
3, 18210, Note_on_c, 2, 30, 110
3, 18239, Note_on_c, 2, 30, 0
3, 18240, Note_on_c, 2, 31, 110
3, 18359, Note_on_c, 2, 31, 0
3, 18360, Note_on_c, 2, 33, 110
3, 18479, Note_on_c, 2, 33, 0
3, 18480, Note_on_c, 2, 34, 110
3, 18599, Note_on_c, 2, 34, 0
3, 18600, Note_on_c, 2, 33, 110
3, 18719, Note_on_c, 2, 33, 0
3, 18720, Note_on_c, 2, 38, 110
3, 18749, Note_on_c, 2, 38, 0
3, 18750, Note_on_c, 2, 38, 110
3, 18779, Note_on_c, 2, 38, 0
3, 18780, Note_on_c, 2, 45, 110
3, 18809, Note_on_c, 2, 45, 0
3, 18810, Note_on_c, 2, 50, 110
3, 18859, Note_on_c, 2, 50, 0
3, 18930, Note_on_c, 2, 33, 110
3, 18959, Note_on_c, 2, 33, 0
3, 18960, Note_on_c, 2, 38, 110
3, 18989, Note_on_c, 2, 38, 0
3, 18990, Note_on_c, 2, 38, 110
3, 19019, Note_on_c, 2, 38, 0
3, 19020, Note_on_c, 2, 45, 110
3, 19079, Note_on_c, 2, 45, 0
3, 19080, Note_on_c, 2, 38, 110
3, 19189, Note_on_c, 2, 38, 0
3, 19200, Note_on_c, 2, 37, 110
3, 19319, Note_on_c, 2, 37, 0
3, 19320, Note_on_c, 2, 36, 110
3, 19439, Note_on_c, 2, 36, 0
3, 19440, Note_on_c, 2, 35, 110
3, 19529, Note_on_c, 2, 35, 0
3, 19530, Note_on_c, 2, 34, 110
3, 19639, Note_on_c, 2, 34, 0
3, 19650, Note_on_c, 2, 33, 110
3, 19689, Note_on_c, 2, 33, 0
3, 19710, Note_on_c, 2, 32, 110
3, 19989, Note_on_c, 2, 32, 0
3, 20010, Note_on_c, 2, 33, 110
3, 20039, Note_on_c, 2, 33, 0
3, 20070, Note_on_c, 2, 34, 110
3, 20099, Note_on_c, 2, 34, 0
3, 20130, Note_on_c, 2, 35, 110
3, 20159, Note_on_c, 2, 35, 0
3, 20160, Note_on_c, 2, 36, 110
3, 20519, Note_on_c, 2, 36, 0
3, 20640, Note_on_c, 2, 29, 110
3, 20709, Note_on_c, 2, 29, 0
3, 20850, Note_on_c, 2, 29, 110
3, 20879, Note_on_c, 2, 29, 0
3, 20880, Note_on_c, 2, 46, 110
3, 20909, Note_on_c, 2, 46, 0
3, 20910, Note_on_c, 2, 46, 110
3, 20939, Note_on_c, 2, 46, 0
3, 20940, Note_on_c, 2, 34, 110
3, 20969, Note_on_c, 2, 34, 0
3, 20970, Note_on_c, 2, 46, 110
3, 21009, Note_on_c, 2, 46, 0
3, 21090, Note_on_c, 2, 34, 110
3, 21119, Note_on_c, 2, 34, 0
3, 21120, Note_on_c, 2, 33, 110
3, 21179, Note_on_c, 2, 33, 0
3, 21330, Note_on_c, 2, 33, 110
3, 21359, Note_on_c, 2, 33, 0
3, 21360, Note_on_c, 2, 38, 110
3, 21389, Note_on_c, 2, 38, 0
3, 21390, Note_on_c, 2, 38, 110
3, 21419, Note_on_c, 2, 38, 0
3, 21420, Note_on_c, 2, 45, 110
3, 21449, Note_on_c, 2, 45, 0
3, 21450, Note_on_c, 2, 50, 110
3, 21489, Note_on_c, 2, 50, 0
3, 21570, Note_on_c, 2, 38, 110
3, 21599, Note_on_c, 2, 38, 0
3, 21600, Note_on_c, 2, 31, 110
3, 21729, Note_on_c, 2, 31, 0
3, 21750, Note_on_c, 2, 33, 110
3, 21779, Note_on_c, 2, 33, 0
3, 21810, Note_on_c, 2, 34, 110
3, 21959, Note_on_c, 2, 34, 0
3, 21960, Note_on_c, 2, 36, 110
3, 22079, Note_on_c, 2, 36, 0
3, 22080, Note_on_c, 2, 29, 110
3, 22139, Note_on_c, 2, 29, 0
3, 22290, Note_on_c, 2, 29, 110
3, 22319, Note_on_c, 2, 29, 0
3, 22320, Note_on_c, 2, 46, 110
3, 22349, Note_on_c, 2, 46, 0
3, 22350, Note_on_c, 2, 46, 110
3, 22379, Note_on_c, 2, 46, 0
3, 22380, Note_on_c, 2, 34, 110
3, 22409, Note_on_c, 2, 34, 0
3, 22410, Note_on_c, 2, 46, 110
3, 22449, Note_on_c, 2, 46, 0
3, 22530, Note_on_c, 2, 34, 110
3, 22559, Note_on_c, 2, 34, 0
3, 22560, Note_on_c, 2, 33, 110
3, 22619, Note_on_c, 2, 33, 0
3, 22770, Note_on_c, 2, 33, 110
3, 22799, Note_on_c, 2, 33, 0
3, 22800, Note_on_c, 2, 38, 110
3, 22829, Note_on_c, 2, 38, 0
3, 22830, Note_on_c, 2, 38, 110
3, 22859, Note_on_c, 2, 38, 0
3, 22860, Note_on_c, 2, 45, 110
3, 22889, Note_on_c, 2, 45, 0
3, 22890, Note_on_c, 2, 50, 110
3, 22929, Note_on_c, 2, 50, 0
3, 23010, Note_on_c, 2, 38, 110
3, 23039, Note_on_c, 2, 38, 0
3, 23040, Note_on_c, 2, 31, 110
3, 23169, Note_on_c, 2, 31, 0
3, 23190, Note_on_c, 2, 33, 110
3, 23219, Note_on_c, 2, 33, 0
3, 23250, Note_on_c, 2, 34, 110
3, 23399, Note_on_c, 2, 34, 0
3, 23400, Note_on_c, 2, 36, 110
3, 23519, Note_on_c, 2, 36, 0
3, 23520, Note_on_c, 2, 29, 110
3, 23729, Note_on_c, 2, 29, 0
3, 23730, Note_on_c, 2, 36, 110
3, 23759, Note_on_c, 2, 36, 0
3, 23760, Note_on_c, 2, 41, 110
3, 23879, Note_on_c, 2, 41, 0
3, 23880, Note_on_c, 2, 29, 110
3, 23909, Note_on_c, 2, 29, 0
3, 23910, Note_on_c, 2, 33, 110
3, 23939, Note_on_c, 2, 33, 0
3, 23940, Note_on_c, 2, 36, 110
3, 23999, Note_on_c, 2, 36, 0
3, 24000, Note_on_c, 2, 34, 110
3, 24139, Note_on_c, 2, 34, 0
3, 24150, Note_on_c, 2, 46, 110
3, 24179, Note_on_c, 2, 46, 0
3, 24210, Note_on_c, 2, 46, 110
3, 24239, Note_on_c, 2, 46, 0
3, 24240, Note_on_c, 2, 34, 110
3, 24379, Note_on_c, 2, 34, 0
3, 24390, Note_on_c, 2, 46, 110
3, 24429, Note_on_c, 2, 46, 0
3, 24450, Note_on_c, 2, 34, 110
3, 24479, Note_on_c, 2, 34, 0
3, 24480, Note_on_c, 2, 33, 110
3, 24659, Note_on_c, 2, 33, 0
3, 24690, Note_on_c, 2, 33, 110
3, 24719, Note_on_c, 2, 33, 0
3, 24720, Note_on_c, 2, 38, 110
3, 24749, Note_on_c, 2, 38, 0
3, 24750, Note_on_c, 2, 38, 110
3, 24779, Note_on_c, 2, 38, 0
3, 24780, Note_on_c, 2, 45, 110
3, 24809, Note_on_c, 2, 45, 0
3, 24810, Note_on_c, 2, 50, 110
3, 24869, Note_on_c, 2, 50, 0
3, 24930, Note_on_c, 2, 38, 110
3, 24959, Note_on_c, 2, 38, 0
3, 24960, Note_on_c, 2, 31, 110
3, 25199, Note_on_c, 2, 31, 0
3, 25200, Note_on_c, 2, 29, 110
3, 25439, Note_on_c, 2, 29, 0
3, 25440, Note_on_c, 2, 28, 110
3, 25629, Note_on_c, 2, 28, 0
3, 25650, Note_on_c, 2, 28, 110
3, 25769, Note_on_c, 2, 28, 0
3, 25770, Note_on_c, 2, 35, 110
3, 25799, Note_on_c, 2, 35, 0
3, 25800, Note_on_c, 2, 40, 110
3, 25859, Note_on_c, 2, 40, 0
3, 25860, Note_on_c, 2, 28, 110
3, 25919, Note_on_c, 2, 28, 0
3, 25920, Note_on_c, 2, 33, 110
3, 25999, Note_on_c, 2, 33, 0
3, 26010, Note_on_c, 2, 32, 110
3, 26119, Note_on_c, 2, 32, 0
3, 26130, Note_on_c, 2, 30, 110
3, 26199, Note_on_c, 2, 30, 0
3, 26220, Note_on_c, 2, 34, 110
3, 26369, Note_on_c, 2, 34, 0
3, 26400, Note_on_c, 2, 32, 110
3, 26429, Note_on_c, 2, 32, 0
3, 26490, Note_on_c, 2, 37, 110
3, 26519, Note_on_c, 2, 37, 0
3, 26580, Note_on_c, 2, 34, 110
3, 26609, Note_on_c, 2, 34, 0
3, 26670, Note_on_c, 2, 39, 110
3, 26719, Note_on_c, 2, 39, 0
3, 26880, Note_on_c, 2, 29, 110
3, 26939, Note_on_c, 2, 29, 0
3, 27090, Note_on_c, 2, 29, 110
3, 27119, Note_on_c, 2, 29, 0
3, 27120, Note_on_c, 2, 46, 110
3, 27149, Note_on_c, 2, 46, 0
3, 27150, Note_on_c, 2, 46, 110
3, 27179, Note_on_c, 2, 46, 0
3, 27180, Note_on_c, 2, 34, 110
3, 27209, Note_on_c, 2, 34, 0
3, 27210, Note_on_c, 2, 46, 110
3, 27249, Note_on_c, 2, 46, 0
3, 27330, Note_on_c, 2, 34, 110
3, 27359, Note_on_c, 2, 34, 0
3, 27360, Note_on_c, 2, 33, 110
3, 27419, Note_on_c, 2, 33, 0
3, 27570, Note_on_c, 2, 33, 110
3, 27599, Note_on_c, 2, 33, 0
3, 27600, Note_on_c, 2, 38, 110
3, 27629, Note_on_c, 2, 38, 0
3, 27630, Note_on_c, 2, 38, 110
3, 27659, Note_on_c, 2, 38, 0
3, 27660, Note_on_c, 2, 45, 110
3, 27689, Note_on_c, 2, 45, 0
3, 27690, Note_on_c, 2, 50, 110
3, 27729, Note_on_c, 2, 50, 0
3, 27810, Note_on_c, 2, 38, 110
3, 27839, Note_on_c, 2, 38, 0
3, 27840, Note_on_c, 2, 31, 110
3, 28029, Note_on_c, 2, 31, 0
3, 28050, Note_on_c, 2, 33, 110
3, 28079, Note_on_c, 2, 33, 0
3, 28080, Note_on_c, 2, 34, 110
3, 28199, Note_on_c, 2, 34, 0
3, 28200, Note_on_c, 2, 33, 110
3, 28319, Note_on_c, 2, 33, 0
3, 28320, Note_on_c, 2, 38, 110
3, 28509, Note_on_c, 2, 38, 0
3, 28530, Note_on_c, 2, 35, 110
3, 28719, Note_on_c, 2, 35, 0
3, 28740, Note_on_c, 2, 34, 110
3, 29159, Note_on_c, 2, 34, 0
3, 29280, Note_on_c, 2, 29, 110
3, 29339, Note_on_c, 2, 29, 0
3, 29490, Note_on_c, 2, 29, 110
3, 29519, Note_on_c, 2, 29, 0
3, 29520, Note_on_c, 2, 46, 110
3, 29549, Note_on_c, 2, 46, 0
3, 29550, Note_on_c, 2, 46, 110
3, 29579, Note_on_c, 2, 46, 0
3, 29580, Note_on_c, 2, 34, 110
3, 29609, Note_on_c, 2, 34, 0
3, 29610, Note_on_c, 2, 46, 110
3, 29649, Note_on_c, 2, 46, 0
3, 29730, Note_on_c, 2, 34, 110
3, 29759, Note_on_c, 2, 34, 0
3, 29760, Note_on_c, 2, 33, 110
3, 29819, Note_on_c, 2, 33, 0
3, 29970, Note_on_c, 2, 33, 110
3, 29999, Note_on_c, 2, 33, 0
3, 30000, Note_on_c, 2, 38, 110
3, 30029, Note_on_c, 2, 38, 0
3, 30030, Note_on_c, 2, 38, 110
3, 30059, Note_on_c, 2, 38, 0
3, 30060, Note_on_c, 2, 45, 110
3, 30089, Note_on_c, 2, 45, 0
3, 30090, Note_on_c, 2, 50, 110
3, 30129, Note_on_c, 2, 50, 0
3, 30210, Note_on_c, 2, 38, 110
3, 30239, Note_on_c, 2, 38, 0
3, 30240, Note_on_c, 2, 31, 110
3, 30369, Note_on_c, 2, 31, 0
3, 30390, Note_on_c, 2, 33, 110
3, 30419, Note_on_c, 2, 33, 0
3, 30450, Note_on_c, 2, 34, 110
3, 30599, Note_on_c, 2, 34, 0
3, 30600, Note_on_c, 2, 36, 110
3, 30719, Note_on_c, 2, 36, 0
3, 30720, Note_on_c, 2, 29, 110
3, 30779, Note_on_c, 2, 29, 0
3, 30930, Note_on_c, 2, 29, 110
3, 30959, Note_on_c, 2, 29, 0
3, 30960, Note_on_c, 2, 46, 110
3, 30989, Note_on_c, 2, 46, 0
3, 30990, Note_on_c, 2, 46, 110
3, 31019, Note_on_c, 2, 46, 0
3, 31020, Note_on_c, 2, 34, 110
3, 31049, Note_on_c, 2, 34, 0
3, 31050, Note_on_c, 2, 46, 110
3, 31089, Note_on_c, 2, 46, 0
3, 31170, Note_on_c, 2, 34, 110
3, 31199, Note_on_c, 2, 34, 0
3, 31200, Note_on_c, 2, 33, 110
3, 31259, Note_on_c, 2, 33, 0
3, 31410, Note_on_c, 2, 33, 110
3, 31439, Note_on_c, 2, 33, 0
3, 31440, Note_on_c, 2, 38, 110
3, 31469, Note_on_c, 2, 38, 0
3, 31470, Note_on_c, 2, 38, 110
3, 31499, Note_on_c, 2, 38, 0
3, 31500, Note_on_c, 2, 45, 110
3, 31529, Note_on_c, 2, 45, 0
3, 31530, Note_on_c, 2, 50, 110
3, 31569, Note_on_c, 2, 50, 0
3, 31650, Note_on_c, 2, 38, 110
3, 31679, Note_on_c, 2, 38, 0
3, 31680, Note_on_c, 2, 31, 110
3, 31799, Note_on_c, 2, 31, 0
3, 31830, Note_on_c, 2, 33, 110
3, 31859, Note_on_c, 2, 33, 0
3, 31890, Note_on_c, 2, 34, 110
3, 32039, Note_on_c, 2, 34, 0
3, 32040, Note_on_c, 2, 36, 110
3, 32159, Note_on_c, 2, 36, 0
3, 32160, Note_on_c, 2, 29, 110
3, 32219, Note_on_c, 2, 29, 0
3, 32370, Note_on_c, 2, 29, 110
3, 32399, Note_on_c, 2, 29, 0
3, 32400, Note_on_c, 2, 46, 110
3, 32429, Note_on_c, 2, 46, 0
3, 32430, Note_on_c, 2, 46, 110
3, 32459, Note_on_c, 2, 46, 0
3, 32460, Note_on_c, 2, 34, 110
3, 32489, Note_on_c, 2, 34, 0
3, 32490, Note_on_c, 2, 46, 110
3, 32529, Note_on_c, 2, 46, 0
3, 32610, Note_on_c, 2, 34, 110
3, 32639, Note_on_c, 2, 34, 0
3, 32640, Note_on_c, 2, 33, 110
3, 32699, Note_on_c, 2, 33, 0
3, 32850, Note_on_c, 2, 33, 110
3, 32879, Note_on_c, 2, 33, 0
3, 32880, Note_on_c, 2, 38, 110
3, 32909, Note_on_c, 2, 38, 0
3, 32910, Note_on_c, 2, 38, 110
3, 32939, Note_on_c, 2, 38, 0
3, 32940, Note_on_c, 2, 45, 110
3, 32969, Note_on_c, 2, 45, 0
3, 32970, Note_on_c, 2, 50, 110
3, 33009, Note_on_c, 2, 50, 0
3, 33090, Note_on_c, 2, 38, 110
3, 33119, Note_on_c, 2, 38, 0
3, 33120, Note_on_c, 2, 31, 110
3, 33239, Note_on_c, 2, 31, 0
3, 33270, Note_on_c, 2, 33, 110
3, 33299, Note_on_c, 2, 33, 0
3, 33330, Note_on_c, 2, 34, 110
3, 33479, Note_on_c, 2, 34, 0
3, 33480, Note_on_c, 2, 36, 110
3, 33599, Note_on_c, 2, 36, 0
3, 33600, Note_on_c, 2, 29, 110
3, 33659, Note_on_c, 2, 29, 0
3, 33725, Control_c, 2, 7, 106
3, 33800, Control_c, 2, 7, 105
3, 33810, Note_on_c, 2, 29, 110
3, 33815, Control_c, 2, 7, 104
3, 33820, Control_c, 2, 7, 103
3, 33839, Note_on_c, 2, 29, 0
3, 33840, Note_on_c, 2, 46, 110
3, 33869, Note_on_c, 2, 46, 0
3, 33870, Note_on_c, 2, 46, 110
3, 33875, Control_c, 2, 7, 102
3, 33875, Control_c, 2, 7, 100
3, 33875, Control_c, 2, 7, 99
3, 33890, Control_c, 2, 7, 98
3, 33895, Control_c, 2, 7, 97
3, 33899, Note_on_c, 2, 46, 0
3, 33900, Note_on_c, 2, 34, 110
3, 33900, Control_c, 2, 7, 96
3, 33915, Control_c, 2, 7, 95
3, 33929, Note_on_c, 2, 34, 0
3, 33930, Note_on_c, 2, 46, 110
3, 33930, Control_c, 2, 7, 94
3, 33940, Control_c, 2, 7, 92
3, 33945, Control_c, 2, 7, 91
3, 33965, Control_c, 2, 7, 90
3, 33969, Note_on_c, 2, 46, 0
3, 33970, Control_c, 2, 7, 89
3, 34030, Control_c, 2, 7, 88
3, 34030, Control_c, 2, 7, 87
3, 34035, Control_c, 2, 7, 86
3, 34050, Note_on_c, 2, 34, 110
3, 34055, Control_c, 2, 7, 85
3, 34060, Control_c, 2, 7, 84
3, 34060, Control_c, 2, 7, 83
3, 34065, Control_c, 2, 7, 82
3, 34070, Control_c, 2, 7, 80
3, 34079, Note_on_c, 2, 34, 0
3, 34080, Note_on_c, 2, 33, 110
3, 34115, Control_c, 2, 7, 71
3, 34115, Control_c, 2, 7, 70
3, 34139, Note_on_c, 2, 33, 0
3, 34160, Control_c, 2, 7, 69
3, 34165, Control_c, 2, 7, 68
3, 34165, Control_c, 2, 7, 67
3, 34190, Control_c, 2, 7, 66
3, 34195, Control_c, 2, 7, 64
3, 34195, Control_c, 2, 7, 63
3, 34200, Control_c, 2, 7, 62
3, 34205, Control_c, 2, 7, 61
3, 34210, Control_c, 2, 7, 62
3, 34220, Control_c, 2, 7, 61
3, 34235, Control_c, 2, 7, 60
3, 34235, Control_c, 2, 7, 58
3, 34240, Control_c, 2, 7, 55
3, 34265, Control_c, 2, 7, 54
3, 34290, Note_on_c, 2, 33, 110
3, 34290, Control_c, 2, 7, 53
3, 34295, Control_c, 2, 7, 52
3, 34300, Control_c, 2, 7, 51
3, 34305, Control_c, 2, 7, 49
3, 34305, Control_c, 2, 7, 48
3, 34319, Note_on_c, 2, 33, 0
3, 34320, Note_on_c, 2, 38, 110
3, 34335, Control_c, 2, 7, 47
3, 34340, Control_c, 2, 7, 46
3, 34349, Note_on_c, 2, 38, 0
3, 34350, Note_on_c, 2, 38, 110
3, 34370, Control_c, 2, 7, 45
3, 34375, Control_c, 2, 7, 44
3, 34379, Note_on_c, 2, 38, 0
3, 34380, Note_on_c, 2, 45, 110
3, 34380, Control_c, 2, 7, 42
3, 34385, Control_c, 2, 7, 39
3, 34385, Control_c, 2, 7, 38
3, 34405, Control_c, 2, 7, 36
3, 34409, Note_on_c, 2, 45, 0
3, 34410, Note_on_c, 2, 50, 110
3, 34425, Control_c, 2, 7, 35
3, 34425, Control_c, 2, 7, 34
3, 34430, Control_c, 2, 7, 33
3, 34449, Note_on_c, 2, 50, 0
3, 34470, Control_c, 2, 7, 31
3, 34485, Control_c, 2, 7, 30
3, 34485, Control_c, 2, 7, 29
3, 34500, Control_c, 2, 7, 28
3, 34510, Control_c, 2, 7, 27
3, 34515, Control_c, 2, 7, 26
3, 34515, Control_c, 2, 7, 24
3, 34530, Note_on_c, 2, 38, 110
3, 34535, Control_c, 2, 7, 22
3, 34545, Control_c, 2, 7, 21
3, 34550, Control_c, 2, 7, 20
3, 34555, Control_c, 2, 7, 19
3, 34559, Note_on_c, 2, 38, 0
3, 34560, Note_on_c, 2, 31, 110
3, 34560, Control_c, 2, 7, 18
3, 34565, Control_c, 2, 7, 17
3, 34570, Control_c, 2, 7, 16
3, 34570, Control_c, 2, 7, 15
3, 34575, Control_c, 2, 7, 13
3, 34595, Control_c, 2, 7, 12
3, 34600, Control_c, 2, 7, 11
3, 34615, Control_c, 2, 7, 10
3, 34625, Control_c, 2, 7, 9
3, 34635, Control_c, 2, 7, 8
3, 34640, Control_c, 2, 7, 7
3, 34650, Control_c, 2, 7, 4
3, 34650, Control_c, 2, 7, 3
3, 34650, Control_c, 2, 7, 2
3, 34655, Control_c, 2, 7, 1
3, 34665, Control_c, 2, 7, 0
3, 34679, Note_on_c, 2, 31, 0
3, 34679, End_track
4, 0, Start_track
4, 0, MIDI_port, 0
4, 0, Title_t, "or"
4, 0, Program_c, 3, 11
4, 0, Control_c, 3, 7, 105
4, 3780, Note_on_c, 3, 60, 117
4, 3809, Note_on_c, 3, 60, 0
4, 3810, Note_on_c, 3, 60, 117
4, 3839, Note_on_c, 3, 60, 0
4, 3840, Note_on_c, 3, 67, 127
4, 3869, Note_on_c, 3, 67, 0
4, 4020, Note_on_c, 3, 69, 120
4, 4049, Note_on_c, 3, 69, 0
4, 4050, Note_on_c, 3, 67, 111
4, 4079, Note_on_c, 3, 67, 0
4, 4140, Note_on_c, 3, 65, 99
4, 4169, Note_on_c, 3, 65, 0
4, 4170, Note_on_c, 3, 64, 117
4, 4199, Note_on_c, 3, 64, 0
4, 4230, Note_on_c, 3, 65, 99
4, 4259, Note_on_c, 3, 65, 0
4, 4260, Note_on_c, 3, 62, 106
4, 4289, Note_on_c, 3, 62, 0
4, 4290, Note_on_c, 3, 60, 92
4, 4319, Note_on_c, 3, 60, 0
4, 4500, Note_on_c, 3, 72, 96
4, 4529, Note_on_c, 3, 72, 0
4, 4530, Note_on_c, 3, 67, 114
4, 4559, Note_on_c, 3, 67, 0
4, 4620, Note_on_c, 3, 69, 96
4, 4649, Note_on_c, 3, 69, 0
4, 4650, Note_on_c, 3, 65, 114
4, 4679, Note_on_c, 3, 65, 0
4, 4710, Note_on_c, 3, 62, 94
4, 4739, Note_on_c, 3, 62, 0
4, 4740, Note_on_c, 3, 65, 99
4, 4769, Note_on_c, 3, 65, 0
4, 4770, Note_on_c, 3, 67, 102
4, 4799, Note_on_c, 3, 67, 0
4, 4800, Note_on_c, 3, 69, 111
4, 4829, Note_on_c, 3, 69, 0
4, 4830, Note_on_c, 3, 70, 96
4, 4859, Note_on_c, 3, 70, 0
4, 4860, Note_on_c, 3, 69, 109
4, 4889, Note_on_c, 3, 69, 0
4, 4890, Note_on_c, 3, 65, 114
4, 4919, Note_on_c, 3, 65, 0
4, 4950, Note_on_c, 3, 62, 104
4, 4979, Note_on_c, 3, 62, 0
4, 4980, Note_on_c, 3, 65, 106
4, 5009, Note_on_c, 3, 65, 0
4, 5010, Note_on_c, 3, 69, 127
4, 5039, Note_on_c, 3, 69, 0
4, 5070, Note_on_c, 3, 70, 107
4, 5099, Note_on_c, 3, 70, 0
4, 5100, Note_on_c, 3, 69, 120
4, 5129, Note_on_c, 3, 69, 0
4, 5130, Note_on_c, 3, 65, 120
4, 5159, Note_on_c, 3, 65, 0
4, 5220, Note_on_c, 3, 60, 111
4, 5249, Note_on_c, 3, 60, 0
4, 5250, Note_on_c, 3, 60, 99
4, 5279, Note_on_c, 3, 60, 0
4, 5280, Note_on_c, 3, 67, 124
4, 5309, Note_on_c, 3, 67, 0
4, 5460, Note_on_c, 3, 69, 127
4, 5489, Note_on_c, 3, 69, 0
4, 5490, Note_on_c, 3, 67, 124
4, 5519, Note_on_c, 3, 67, 0
4, 5580, Note_on_c, 3, 65, 111
4, 5609, Note_on_c, 3, 65, 0
4, 5610, Note_on_c, 3, 64, 120
4, 5639, Note_on_c, 3, 64, 0
4, 5670, Note_on_c, 3, 65, 106
4, 5699, Note_on_c, 3, 65, 0
4, 5700, Note_on_c, 3, 62, 106
4, 5729, Note_on_c, 3, 62, 0
4, 5730, Note_on_c, 3, 60, 114
4, 5759, Note_on_c, 3, 60, 0
4, 5940, Note_on_c, 3, 72, 109
4, 5969, Note_on_c, 3, 72, 0
4, 5970, Note_on_c, 3, 67, 127
4, 5999, Note_on_c, 3, 67, 0
4, 6060, Note_on_c, 3, 69, 114
4, 6089, Note_on_c, 3, 69, 0
4, 6090, Note_on_c, 3, 65, 120
4, 6119, Note_on_c, 3, 65, 0
4, 6150, Note_on_c, 3, 62, 106
4, 6179, Note_on_c, 3, 62, 0
4, 6180, Note_on_c, 3, 65, 124
4, 6209, Note_on_c, 3, 65, 0
4, 6210, Note_on_c, 3, 67, 120
4, 6239, Note_on_c, 3, 67, 0
4, 6240, Note_on_c, 3, 69, 120
4, 6269, Note_on_c, 3, 69, 0
4, 6270, Note_on_c, 3, 70, 103
4, 6299, Note_on_c, 3, 70, 0
4, 6300, Note_on_c, 3, 69, 117
4, 6329, Note_on_c, 3, 69, 0
4, 6330, Note_on_c, 3, 65, 117
4, 6359, Note_on_c, 3, 65, 0
4, 6390, Note_on_c, 3, 62, 99
4, 6419, Note_on_c, 3, 62, 0
4, 6420, Note_on_c, 3, 65, 124
4, 6449, Note_on_c, 3, 65, 0
4, 6450, Note_on_c, 3, 69, 127
4, 6479, Note_on_c, 3, 69, 0
4, 6510, Note_on_c, 3, 70, 112
4, 6539, Note_on_c, 3, 70, 0
4, 6540, Note_on_c, 3, 69, 117
4, 6569, Note_on_c, 3, 69, 0
4, 6570, Note_on_c, 3, 65, 117
4, 6599, Note_on_c, 3, 65, 0
4, 6630, Note_on_c, 3, 62, 96
4, 6659, Note_on_c, 3, 62, 0
4, 6660, Note_on_c, 3, 66, 96
4, 6660, Note_on_c, 3, 67, 120
4, 6679, Note_on_c, 3, 66, 0
4, 6689, Note_on_c, 3, 67, 0
4, 6690, Note_on_c, 3, 64, 124
4, 6719, Note_on_c, 3, 64, 0
4, 6870, Note_on_c, 3, 60, 109
4, 6899, Note_on_c, 3, 60, 0
4, 6900, Note_on_c, 3, 62, 99
4, 6929, Note_on_c, 3, 62, 0
4, 6930, Note_on_c, 3, 65, 127
4, 6959, Note_on_c, 3, 65, 0
4, 7050, Note_on_c, 3, 67, 117
4, 7079, Note_on_c, 3, 67, 0
4, 7140, Note_on_c, 3, 72, 117
4, 7169, Note_on_c, 3, 72, 0
4, 7200, Note_on_c, 3, 69, 106
4, 7229, Note_on_c, 3, 69, 0
4, 7230, Note_on_c, 3, 67, 97
4, 7259, Note_on_c, 3, 67, 0
4, 7260, Note_on_c, 3, 65, 106
4, 7289, Note_on_c, 3, 65, 0
4, 7290, Note_on_c, 3, 77, 111
4, 7319, Note_on_c, 3, 77, 0
4, 7440, Note_on_c, 3, 76, 120
4, 7469, Note_on_c, 3, 76, 0
4, 7470, Note_on_c, 3, 77, 114
4, 7499, Note_on_c, 3, 77, 0
4, 7500, Note_on_c, 3, 76, 111
4, 7529, Note_on_c, 3, 76, 0
4, 7530, Note_on_c, 3, 74, 117
4, 7559, Note_on_c, 3, 74, 0
4, 7590, Note_on_c, 3, 79, 114
4, 7619, Note_on_c, 3, 79, 0
4, 7620, Note_on_c, 3, 76, 114
4, 7649, Note_on_c, 3, 76, 0
4, 7650, Note_on_c, 3, 72, 117
4, 7679, Note_on_c, 3, 72, 0
4, 7860, Note_on_c, 3, 69, 97
4, 7889, Note_on_c, 3, 69, 0
4, 7890, Note_on_c, 3, 74, 114
4, 7919, Note_on_c, 3, 74, 0
4, 7980, Note_on_c, 3, 77, 89
4, 8009, Note_on_c, 3, 77, 0
4, 8010, Note_on_c, 3, 70, 103
4, 8039, Note_on_c, 3, 70, 0
4, 8070, Note_on_c, 3, 69, 94
4, 8099, Note_on_c, 3, 69, 0
4, 8130, Note_on_c, 3, 70, 107
4, 8159, Note_on_c, 3, 70, 0
4, 8280, Note_on_c, 3, 69, 66
4, 8283, Note_on_c, 3, 70, 96
4, 8299, Note_on_c, 3, 69, 0
4, 8309, Note_on_c, 3, 70, 0
4, 8327, Note_on_c, 3, 72, 109
4, 8345, Note_on_c, 3, 72, 0
4, 8368, Note_on_c, 3, 74, 109
4, 8381, Note_on_c, 3, 74, 0
4, 8400, Note_on_c, 3, 73, 78
4, 8400, Note_on_c, 3, 74, 124
4, 8419, Note_on_c, 3, 73, 0
4, 8504, Note_on_c, 3, 74, 0
4, 8792, Note_on_c, 3, 74, 97
4, 8819, Note_on_c, 3, 74, 0
4, 8820, Note_on_c, 3, 71, 99
4, 8845, Note_on_c, 3, 71, 0
4, 8849, Note_on_c, 3, 76, 124
4, 8950, Note_on_c, 3, 76, 0
4, 10020, Note_on_c, 3, 60, 117
4, 10049, Note_on_c, 3, 60, 0
4, 10050, Note_on_c, 3, 60, 117
4, 10079, Note_on_c, 3, 60, 0
4, 10080, Note_on_c, 3, 67, 127
4, 10109, Note_on_c, 3, 67, 0
4, 10260, Note_on_c, 3, 69, 120
4, 10289, Note_on_c, 3, 69, 0
4, 10290, Note_on_c, 3, 67, 111
4, 10319, Note_on_c, 3, 67, 0
4, 10380, Note_on_c, 3, 65, 99
4, 10409, Note_on_c, 3, 65, 0
4, 10410, Note_on_c, 3, 64, 117
4, 10439, Note_on_c, 3, 64, 0
4, 10470, Note_on_c, 3, 65, 99
4, 10499, Note_on_c, 3, 65, 0
4, 10500, Note_on_c, 3, 62, 106
4, 10529, Note_on_c, 3, 62, 0
4, 10530, Note_on_c, 3, 60, 92
4, 10559, Note_on_c, 3, 60, 0
4, 10740, Note_on_c, 3, 60, 109
4, 10769, Note_on_c, 3, 60, 0
4, 10770, Note_on_c, 3, 72, 117
4, 10859, Note_on_c, 3, 72, 0
4, 10860, Note_on_c, 3, 74, 114
4, 10889, Note_on_c, 3, 74, 0
4, 10890, Note_on_c, 3, 70, 112
4, 10919, Note_on_c, 3, 70, 0
4, 10950, Note_on_c, 3, 69, 124
4, 11009, Note_on_c, 3, 69, 0
4, 11010, Note_on_c, 3, 70, 117
4, 11249, Note_on_c, 3, 70, 0
4, 11250, Note_on_c, 3, 67, 94
4, 11279, Note_on_c, 3, 67, 0
4, 11280, Note_on_c, 3, 70, 99
4, 11309, Note_on_c, 3, 70, 0
4, 11310, Note_on_c, 3, 72, 102
4, 11339, Note_on_c, 3, 72, 0
4, 11340, Note_on_c, 3, 74, 117
4, 11369, Note_on_c, 3, 74, 0
4, 11400, Note_on_c, 3, 76, 106
4, 11429, Note_on_c, 3, 76, 0
4, 11460, Note_on_c, 3, 67, 111
4, 11460, Note_on_c, 3, 66, 117
4, 11479, Note_on_c, 3, 66, 0
4, 11489, Note_on_c, 3, 67, 0
4, 11490, Note_on_c, 3, 65, 104
4, 11669, Note_on_c, 3, 65, 0
4, 11700, Note_on_c, 3, 69, 104
4, 11729, Note_on_c, 3, 69, 0
4, 11730, Note_on_c, 3, 79, 120
4, 11939, Note_on_c, 3, 79, 0
4, 11940, Note_on_c, 3, 77, 114
4, 12179, Note_on_c, 3, 77, 0
4, 20580, Note_on_c, 3, 60, 117
4, 20609, Note_on_c, 3, 60, 0
4, 20610, Note_on_c, 3, 60, 117
4, 20639, Note_on_c, 3, 60, 0
4, 20640, Note_on_c, 3, 67, 127
4, 20669, Note_on_c, 3, 67, 0
4, 20820, Note_on_c, 3, 69, 120
4, 20849, Note_on_c, 3, 69, 0
4, 20850, Note_on_c, 3, 67, 111
4, 20879, Note_on_c, 3, 67, 0
4, 20940, Note_on_c, 3, 65, 99
4, 20969, Note_on_c, 3, 65, 0
4, 20970, Note_on_c, 3, 64, 117
4, 20999, Note_on_c, 3, 64, 0
4, 21030, Note_on_c, 3, 65, 99
4, 21059, Note_on_c, 3, 65, 0
4, 21060, Note_on_c, 3, 62, 106
4, 21089, Note_on_c, 3, 62, 0
4, 21090, Note_on_c, 3, 60, 92
4, 21119, Note_on_c, 3, 60, 0
4, 21300, Note_on_c, 3, 72, 96
4, 21329, Note_on_c, 3, 72, 0
4, 21330, Note_on_c, 3, 67, 114
4, 21359, Note_on_c, 3, 67, 0
4, 21420, Note_on_c, 3, 69, 96
4, 21449, Note_on_c, 3, 69, 0
4, 21450, Note_on_c, 3, 65, 114
4, 21479, Note_on_c, 3, 65, 0
4, 21510, Note_on_c, 3, 62, 94
4, 21539, Note_on_c, 3, 62, 0
4, 21540, Note_on_c, 3, 65, 99
4, 21569, Note_on_c, 3, 65, 0
4, 21570, Note_on_c, 3, 67, 102
4, 21599, Note_on_c, 3, 67, 0
4, 21600, Note_on_c, 3, 69, 111
4, 21629, Note_on_c, 3, 69, 0
4, 21630, Note_on_c, 3, 70, 96
4, 21659, Note_on_c, 3, 70, 0
4, 21660, Note_on_c, 3, 69, 109
4, 21689, Note_on_c, 3, 69, 0
4, 21690, Note_on_c, 3, 65, 114
4, 21719, Note_on_c, 3, 65, 0
4, 21750, Note_on_c, 3, 62, 104
4, 21779, Note_on_c, 3, 62, 0
4, 21780, Note_on_c, 3, 65, 106
4, 21809, Note_on_c, 3, 65, 0
4, 21810, Note_on_c, 3, 69, 127
4, 21839, Note_on_c, 3, 69, 0
4, 21870, Note_on_c, 3, 70, 107
4, 21899, Note_on_c, 3, 70, 0
4, 21900, Note_on_c, 3, 69, 120
4, 21929, Note_on_c, 3, 69, 0
4, 21930, Note_on_c, 3, 65, 120
4, 21959, Note_on_c, 3, 65, 0
4, 22020, Note_on_c, 3, 60, 111
4, 22049, Note_on_c, 3, 60, 0
4, 22050, Note_on_c, 3, 60, 99
4, 22079, Note_on_c, 3, 60, 0
4, 22080, Note_on_c, 3, 67, 124
4, 22109, Note_on_c, 3, 67, 0
4, 22260, Note_on_c, 3, 69, 127
4, 22289, Note_on_c, 3, 69, 0
4, 22290, Note_on_c, 3, 67, 124
4, 22319, Note_on_c, 3, 67, 0
4, 22380, Note_on_c, 3, 65, 111
4, 22409, Note_on_c, 3, 65, 0
4, 22410, Note_on_c, 3, 64, 120
4, 22439, Note_on_c, 3, 64, 0
4, 22470, Note_on_c, 3, 65, 106
4, 22499, Note_on_c, 3, 65, 0
4, 22500, Note_on_c, 3, 62, 106
4, 22529, Note_on_c, 3, 62, 0
4, 22530, Note_on_c, 3, 60, 114
4, 22559, Note_on_c, 3, 60, 0
4, 22740, Note_on_c, 3, 72, 109
4, 22769, Note_on_c, 3, 72, 0
4, 22770, Note_on_c, 3, 67, 127
4, 22799, Note_on_c, 3, 67, 0
4, 22860, Note_on_c, 3, 69, 114
4, 22889, Note_on_c, 3, 69, 0
4, 22890, Note_on_c, 3, 65, 120
4, 22919, Note_on_c, 3, 65, 0
4, 22950, Note_on_c, 3, 62, 106
4, 22979, Note_on_c, 3, 62, 0
4, 22980, Note_on_c, 3, 65, 124
4, 23009, Note_on_c, 3, 65, 0
4, 23010, Note_on_c, 3, 67, 120
4, 23039, Note_on_c, 3, 67, 0
4, 23040, Note_on_c, 3, 69, 120
4, 23069, Note_on_c, 3, 69, 0
4, 23070, Note_on_c, 3, 70, 103
4, 23099, Note_on_c, 3, 70, 0
4, 23100, Note_on_c, 3, 69, 117
4, 23129, Note_on_c, 3, 69, 0
4, 23130, Note_on_c, 3, 65, 117
4, 23159, Note_on_c, 3, 65, 0
4, 23190, Note_on_c, 3, 62, 99
4, 23219, Note_on_c, 3, 62, 0
4, 23220, Note_on_c, 3, 65, 124
4, 23249, Note_on_c, 3, 65, 0
4, 23250, Note_on_c, 3, 69, 127
4, 23279, Note_on_c, 3, 69, 0
4, 23310, Note_on_c, 3, 70, 112
4, 23339, Note_on_c, 3, 70, 0
4, 23340, Note_on_c, 3, 69, 117
4, 23369, Note_on_c, 3, 69, 0
4, 23370, Note_on_c, 3, 65, 117
4, 23399, Note_on_c, 3, 65, 0
4, 23430, Note_on_c, 3, 62, 96
4, 23459, Note_on_c, 3, 62, 0
4, 23460, Note_on_c, 3, 66, 96
4, 23460, Note_on_c, 3, 67, 120
4, 23479, Note_on_c, 3, 66, 0
4, 23489, Note_on_c, 3, 67, 0
4, 23490, Note_on_c, 3, 64, 124
4, 23519, Note_on_c, 3, 64, 0
4, 23670, Note_on_c, 3, 60, 109
4, 23699, Note_on_c, 3, 60, 0
4, 23700, Note_on_c, 3, 62, 99
4, 23729, Note_on_c, 3, 62, 0
4, 23730, Note_on_c, 3, 65, 127
4, 23759, Note_on_c, 3, 65, 0
4, 23850, Note_on_c, 3, 67, 117
4, 23879, Note_on_c, 3, 67, 0
4, 23940, Note_on_c, 3, 72, 117
4, 23969, Note_on_c, 3, 72, 0
4, 24000, Note_on_c, 3, 69, 106
4, 24029, Note_on_c, 3, 69, 0
4, 24030, Note_on_c, 3, 67, 97
4, 24059, Note_on_c, 3, 67, 0
4, 24060, Note_on_c, 3, 65, 106
4, 24089, Note_on_c, 3, 65, 0
4, 24090, Note_on_c, 3, 77, 111
4, 24119, Note_on_c, 3, 77, 0
4, 24240, Note_on_c, 3, 76, 120
4, 24269, Note_on_c, 3, 76, 0
4, 24270, Note_on_c, 3, 77, 114
4, 24299, Note_on_c, 3, 77, 0
4, 24300, Note_on_c, 3, 76, 111
4, 24329, Note_on_c, 3, 76, 0
4, 24330, Note_on_c, 3, 74, 117
4, 24359, Note_on_c, 3, 74, 0
4, 24390, Note_on_c, 3, 79, 114
4, 24419, Note_on_c, 3, 79, 0
4, 24420, Note_on_c, 3, 76, 114
4, 24449, Note_on_c, 3, 76, 0
4, 24450, Note_on_c, 3, 72, 117
4, 24479, Note_on_c, 3, 72, 0
4, 24660, Note_on_c, 3, 69, 97
4, 24689, Note_on_c, 3, 69, 0
4, 24690, Note_on_c, 3, 74, 114
4, 24719, Note_on_c, 3, 74, 0
4, 24780, Note_on_c, 3, 77, 89
4, 24809, Note_on_c, 3, 77, 0
4, 24810, Note_on_c, 3, 70, 103
4, 24839, Note_on_c, 3, 70, 0
4, 24870, Note_on_c, 3, 69, 94
4, 24899, Note_on_c, 3, 69, 0
4, 24930, Note_on_c, 3, 70, 107
4, 24959, Note_on_c, 3, 70, 0
4, 25080, Note_on_c, 3, 69, 66
4, 25083, Note_on_c, 3, 70, 96
4, 25092, Note_on_c, 3, 69, 0
4, 25109, Note_on_c, 3, 70, 0
4, 25127, Note_on_c, 3, 72, 109
4, 25145, Note_on_c, 3, 72, 0
4, 25168, Note_on_c, 3, 74, 109
4, 25181, Note_on_c, 3, 74, 0
4, 25200, Note_on_c, 3, 73, 78
4, 25204, Note_on_c, 3, 74, 124
4, 25219, Note_on_c, 3, 73, 0
4, 25308, Note_on_c, 3, 74, 0
4, 25592, Note_on_c, 3, 74, 97
4, 25619, Note_on_c, 3, 74, 0
4, 25620, Note_on_c, 3, 71, 99
4, 25645, Note_on_c, 3, 71, 0
4, 25649, Note_on_c, 3, 76, 124
4, 25750, Note_on_c, 3, 76, 0
4, 26820, Note_on_c, 3, 60, 117
4, 26849, Note_on_c, 3, 60, 0
4, 26850, Note_on_c, 3, 60, 117
4, 26879, Note_on_c, 3, 60, 0
4, 26880, Note_on_c, 3, 67, 127
4, 26909, Note_on_c, 3, 67, 0
4, 27060, Note_on_c, 3, 69, 120
4, 27089, Note_on_c, 3, 69, 0
4, 27090, Note_on_c, 3, 67, 111
4, 27119, Note_on_c, 3, 67, 0
4, 27180, Note_on_c, 3, 65, 99
4, 27209, Note_on_c, 3, 65, 0
4, 27210, Note_on_c, 3, 64, 117
4, 27239, Note_on_c, 3, 64, 0
4, 27270, Note_on_c, 3, 65, 99
4, 27299, Note_on_c, 3, 65, 0
4, 27300, Note_on_c, 3, 62, 106
4, 27329, Note_on_c, 3, 62, 0
4, 27330, Note_on_c, 3, 60, 92
4, 27359, Note_on_c, 3, 60, 0
4, 27540, Note_on_c, 3, 60, 109
4, 27569, Note_on_c, 3, 60, 0
4, 27570, Note_on_c, 3, 72, 117
4, 27659, Note_on_c, 3, 72, 0
4, 27660, Note_on_c, 3, 74, 114
4, 27689, Note_on_c, 3, 74, 0
4, 27690, Note_on_c, 3, 70, 112
4, 27719, Note_on_c, 3, 70, 0
4, 27750, Note_on_c, 3, 69, 124
4, 27809, Note_on_c, 3, 69, 0
4, 27810, Note_on_c, 3, 70, 117
4, 28049, Note_on_c, 3, 70, 0
4, 28050, Note_on_c, 3, 67, 94
4, 28079, Note_on_c, 3, 67, 0
4, 28080, Note_on_c, 3, 70, 99
4, 28109, Note_on_c, 3, 70, 0
4, 28110, Note_on_c, 3, 72, 102
4, 28139, Note_on_c, 3, 72, 0
4, 28140, Note_on_c, 3, 74, 117
4, 28169, Note_on_c, 3, 74, 0
4, 28200, Note_on_c, 3, 76, 106
4, 28229, Note_on_c, 3, 76, 0
4, 28260, Note_on_c, 3, 66, 117
4, 28260, Note_on_c, 3, 67, 111
4, 28279, Note_on_c, 3, 66, 0
4, 28289, Note_on_c, 3, 67, 0
4, 28290, Note_on_c, 3, 65, 104
4, 28469, Note_on_c, 3, 65, 0
4, 28500, Note_on_c, 3, 69, 104
4, 28529, Note_on_c, 3, 69, 0
4, 28530, Note_on_c, 3, 79, 120
4, 28739, Note_on_c, 3, 79, 0
4, 28740, Note_on_c, 3, 77, 114
4, 28979, Note_on_c, 3, 77, 0
4, 29220, Note_on_c, 3, 60, 117
4, 29249, Note_on_c, 3, 60, 0
4, 29250, Note_on_c, 3, 60, 117
4, 29279, Note_on_c, 3, 60, 0
4, 29280, Note_on_c, 3, 67, 127
4, 29309, Note_on_c, 3, 67, 0
4, 29460, Note_on_c, 3, 69, 120
4, 29489, Note_on_c, 3, 69, 0
4, 29490, Note_on_c, 3, 67, 111
4, 29519, Note_on_c, 3, 67, 0
4, 29580, Note_on_c, 3, 65, 99
4, 29609, Note_on_c, 3, 65, 0
4, 29610, Note_on_c, 3, 64, 117
4, 29639, Note_on_c, 3, 64, 0
4, 29670, Note_on_c, 3, 65, 99
4, 29699, Note_on_c, 3, 65, 0
4, 29700, Note_on_c, 3, 62, 106
4, 29729, Note_on_c, 3, 62, 0
4, 29730, Note_on_c, 3, 60, 92
4, 29759, Note_on_c, 3, 60, 0
4, 29940, Note_on_c, 3, 72, 96
4, 29969, Note_on_c, 3, 72, 0
4, 29970, Note_on_c, 3, 67, 114
4, 29999, Note_on_c, 3, 67, 0
4, 30060, Note_on_c, 3, 69, 96
4, 30089, Note_on_c, 3, 69, 0
4, 30090, Note_on_c, 3, 65, 114
4, 30119, Note_on_c, 3, 65, 0
4, 30150, Note_on_c, 3, 62, 94
4, 30179, Note_on_c, 3, 62, 0
4, 30180, Note_on_c, 3, 65, 99
4, 30209, Note_on_c, 3, 65, 0
4, 30210, Note_on_c, 3, 67, 102
4, 30239, Note_on_c, 3, 67, 0
4, 30240, Note_on_c, 3, 69, 111
4, 30269, Note_on_c, 3, 69, 0
4, 30270, Note_on_c, 3, 70, 96
4, 30299, Note_on_c, 3, 70, 0
4, 30300, Note_on_c, 3, 69, 109
4, 30329, Note_on_c, 3, 69, 0
4, 30330, Note_on_c, 3, 65, 114
4, 30359, Note_on_c, 3, 65, 0
4, 30390, Note_on_c, 3, 62, 104
4, 30419, Note_on_c, 3, 62, 0
4, 30420, Note_on_c, 3, 65, 106
4, 30449, Note_on_c, 3, 65, 0
4, 30450, Note_on_c, 3, 69, 127
4, 30479, Note_on_c, 3, 69, 0
4, 30510, Note_on_c, 3, 70, 107
4, 30539, Note_on_c, 3, 70, 0
4, 30540, Note_on_c, 3, 69, 120
4, 30569, Note_on_c, 3, 69, 0
4, 30570, Note_on_c, 3, 65, 120
4, 30599, Note_on_c, 3, 65, 0
4, 30660, Note_on_c, 3, 60, 111
4, 30689, Note_on_c, 3, 60, 0
4, 30690, Note_on_c, 3, 60, 99
4, 30719, Note_on_c, 3, 60, 0
4, 30720, Note_on_c, 3, 67, 124
4, 30749, Note_on_c, 3, 67, 0
4, 30900, Note_on_c, 3, 69, 127
4, 30929, Note_on_c, 3, 69, 0
4, 30930, Note_on_c, 3, 67, 124
4, 30959, Note_on_c, 3, 67, 0
4, 31020, Note_on_c, 3, 65, 111
4, 31049, Note_on_c, 3, 65, 0
4, 31050, Note_on_c, 3, 64, 120
4, 31079, Note_on_c, 3, 64, 0
4, 31110, Note_on_c, 3, 65, 106
4, 31139, Note_on_c, 3, 65, 0
4, 31140, Note_on_c, 3, 62, 106
4, 31169, Note_on_c, 3, 62, 0
4, 31170, Note_on_c, 3, 60, 114
4, 31199, Note_on_c, 3, 60, 0
4, 31380, Note_on_c, 3, 72, 109
4, 31409, Note_on_c, 3, 72, 0
4, 31410, Note_on_c, 3, 67, 127
4, 31439, Note_on_c, 3, 67, 0
4, 31500, Note_on_c, 3, 69, 114
4, 31529, Note_on_c, 3, 69, 0
4, 31530, Note_on_c, 3, 65, 120
4, 31559, Note_on_c, 3, 65, 0
4, 31590, Note_on_c, 3, 62, 106
4, 31619, Note_on_c, 3, 62, 0
4, 31620, Note_on_c, 3, 65, 124
4, 31649, Note_on_c, 3, 65, 0
4, 31650, Note_on_c, 3, 67, 120
4, 31679, Note_on_c, 3, 67, 0
4, 31680, Note_on_c, 3, 69, 120
4, 31709, Note_on_c, 3, 69, 0
4, 31710, Note_on_c, 3, 70, 103
4, 31739, Note_on_c, 3, 70, 0
4, 31740, Note_on_c, 3, 69, 117
4, 31769, Note_on_c, 3, 69, 0
4, 31770, Note_on_c, 3, 65, 117
4, 31799, Note_on_c, 3, 65, 0
4, 31830, Note_on_c, 3, 62, 99
4, 31859, Note_on_c, 3, 62, 0
4, 31860, Note_on_c, 3, 65, 124
4, 31889, Note_on_c, 3, 65, 0
4, 31890, Note_on_c, 3, 69, 127
4, 31919, Note_on_c, 3, 69, 0
4, 31950, Note_on_c, 3, 70, 112
4, 31979, Note_on_c, 3, 70, 0
4, 31980, Note_on_c, 3, 69, 117
4, 32009, Note_on_c, 3, 69, 0
4, 32010, Note_on_c, 3, 65, 117
4, 32039, Note_on_c, 3, 65, 0
4, 32100, Note_on_c, 3, 60, 117
4, 32129, Note_on_c, 3, 60, 0
4, 32130, Note_on_c, 3, 60, 117
4, 32159, Note_on_c, 3, 60, 0
4, 32160, Note_on_c, 3, 67, 127
4, 32189, Note_on_c, 3, 67, 0
4, 32340, Note_on_c, 3, 69, 120
4, 32369, Note_on_c, 3, 69, 0
4, 32370, Note_on_c, 3, 67, 111
4, 32399, Note_on_c, 3, 67, 0
4, 32460, Note_on_c, 3, 65, 99
4, 32489, Note_on_c, 3, 65, 0
4, 32490, Note_on_c, 3, 64, 117
4, 32519, Note_on_c, 3, 64, 0
4, 32550, Note_on_c, 3, 65, 99
4, 32579, Note_on_c, 3, 65, 0
4, 32580, Note_on_c, 3, 62, 106
4, 32609, Note_on_c, 3, 62, 0
4, 32610, Note_on_c, 3, 60, 92
4, 32639, Note_on_c, 3, 60, 0
4, 32820, Note_on_c, 3, 72, 96
4, 32849, Note_on_c, 3, 72, 0
4, 32850, Note_on_c, 3, 67, 114
4, 32879, Note_on_c, 3, 67, 0
4, 32940, Note_on_c, 3, 69, 96
4, 32969, Note_on_c, 3, 69, 0
4, 32970, Note_on_c, 3, 65, 114
4, 32999, Note_on_c, 3, 65, 0
4, 33030, Note_on_c, 3, 62, 94
4, 33059, Note_on_c, 3, 62, 0
4, 33060, Note_on_c, 3, 65, 99
4, 33089, Note_on_c, 3, 65, 0
4, 33090, Note_on_c, 3, 67, 102
4, 33119, Note_on_c, 3, 67, 0
4, 33120, Note_on_c, 3, 69, 111
4, 33149, Note_on_c, 3, 69, 0
4, 33150, Note_on_c, 3, 70, 96
4, 33179, Note_on_c, 3, 70, 0
4, 33180, Note_on_c, 3, 69, 109
4, 33209, Note_on_c, 3, 69, 0
4, 33210, Note_on_c, 3, 65, 114
4, 33239, Note_on_c, 3, 65, 0
4, 33270, Note_on_c, 3, 62, 104
4, 33299, Note_on_c, 3, 62, 0
4, 33300, Note_on_c, 3, 65, 106
4, 33329, Note_on_c, 3, 65, 0
4, 33330, Note_on_c, 3, 69, 127
4, 33359, Note_on_c, 3, 69, 0
4, 33390, Note_on_c, 3, 70, 107
4, 33419, Note_on_c, 3, 70, 0
4, 33420, Note_on_c, 3, 69, 120
4, 33449, Note_on_c, 3, 69, 0
4, 33450, Note_on_c, 3, 65, 120
4, 33479, Note_on_c, 3, 65, 0
4, 33540, Note_on_c, 3, 60, 111
4, 33569, Note_on_c, 3, 60, 0
4, 33570, Note_on_c, 3, 60, 99
4, 33599, Note_on_c, 3, 60, 0
4, 33600, Note_on_c, 3, 67, 124
4, 33629, Note_on_c, 3, 67, 0
4, 33690, Control_c, 3, 7, 110
4, 33765, Control_c, 3, 7, 109
4, 33765, Control_c, 3, 7, 108
4, 33780, Note_on_c, 3, 69, 127
4, 33809, Note_on_c, 3, 69, 0
4, 33810, Note_on_c, 3, 67, 124
4, 33815, Control_c, 3, 7, 107
4, 33835, Control_c, 3, 7, 106
4, 33839, Note_on_c, 3, 67, 0
4, 33870, Control_c, 3, 7, 105
4, 33875, Control_c, 3, 7, 104
4, 33880, Control_c, 3, 7, 103
4, 33900, Note_on_c, 3, 65, 111
4, 33910, Control_c, 3, 7, 102
4, 33915, Control_c, 3, 7, 101
4, 33920, Control_c, 3, 7, 100
4, 33920, Control_c, 3, 7, 99
4, 33925, Control_c, 3, 7, 98
4, 33929, Note_on_c, 3, 65, 0
4, 33930, Note_on_c, 3, 64, 120
4, 33930, Control_c, 3, 7, 97
4, 33959, Note_on_c, 3, 64, 0
4, 33960, Control_c, 3, 7, 96
4, 33980, Control_c, 3, 7, 95
4, 33980, Control_c, 3, 7, 94
4, 33990, Note_on_c, 3, 65, 106
4, 34000, Control_c, 3, 7, 93
4, 34019, Note_on_c, 3, 65, 0
4, 34020, Note_on_c, 3, 62, 106
4, 34020, Control_c, 3, 7, 92
4, 34025, Control_c, 3, 7, 91
4, 34049, Note_on_c, 3, 62, 0
4, 34050, Note_on_c, 3, 60, 114
4, 34060, Control_c, 3, 7, 90
4, 34060, Control_c, 3, 7, 89
4, 34079, Note_on_c, 3, 60, 0
4, 34080, Control_c, 3, 7, 88
4, 34090, Control_c, 3, 7, 87
4, 34090, Control_c, 3, 7, 86
4, 34115, Control_c, 3, 7, 85
4, 34120, Control_c, 3, 7, 84
4, 34120, Control_c, 3, 7, 83
4, 34150, Control_c, 3, 7, 82
4, 34155, Control_c, 3, 7, 81
4, 34155, Control_c, 3, 7, 80
4, 34170, Control_c, 3, 7, 78
4, 34175, Control_c, 3, 7, 77
4, 34185, Control_c, 3, 7, 76
4, 34210, Control_c, 3, 7, 75
4, 34220, Control_c, 3, 7, 74
4, 34225, Control_c, 3, 7, 73
4, 34235, Control_c, 3, 7, 72
4, 34235, Control_c, 3, 7, 71
4, 34240, Control_c, 3, 7, 70
4, 34250, Control_c, 3, 7, 69
4, 34255, Control_c, 3, 7, 68
4, 34260, Note_on_c, 3, 72, 109
4, 34260, Control_c, 3, 7, 67
4, 34270, Control_c, 3, 7, 66
4, 34275, Control_c, 3, 7, 65
4, 34280, Control_c, 3, 7, 64
4, 34289, Note_on_c, 3, 72, 0
4, 34290, Note_on_c, 3, 67, 127
4, 34290, Control_c, 3, 7, 63
4, 34310, Control_c, 3, 7, 62
4, 34315, Control_c, 3, 7, 61
4, 34319, Note_on_c, 3, 67, 0
4, 34320, Control_c, 3, 7, 60
4, 34325, Control_c, 3, 7, 58
4, 34330, Control_c, 3, 7, 57
4, 34335, Control_c, 3, 7, 56
4, 34335, Control_c, 3, 7, 55
4, 34345, Control_c, 3, 7, 54
4, 34355, Control_c, 3, 7, 53
4, 34355, Control_c, 3, 7, 52
4, 34360, Control_c, 3, 7, 51
4, 34365, Control_c, 3, 7, 48
4, 34365, Control_c, 3, 7, 47
4, 34370, Control_c, 3, 7, 46
4, 34375, Control_c, 3, 7, 45
4, 34380, Note_on_c, 3, 69, 114
4, 34380, Control_c, 3, 7, 44
4, 34380, Control_c, 3, 7, 43
4, 34385, Control_c, 3, 7, 42
4, 34409, Note_on_c, 3, 69, 0
4, 34410, Note_on_c, 3, 65, 120
4, 34410, Control_c, 3, 7, 40
4, 34415, Control_c, 3, 7, 39
4, 34420, Control_c, 3, 7, 38
4, 34425, Control_c, 3, 7, 37
4, 34430, Control_c, 3, 7, 36
4, 34435, Control_c, 3, 7, 35
4, 34435, Control_c, 3, 7, 34
4, 34439, Note_on_c, 3, 65, 0
4, 34440, Control_c, 3, 7, 31
4, 34445, Control_c, 3, 7, 32
4, 34455, Control_c, 3, 7, 31
4, 34470, Note_on_c, 3, 62, 106
4, 34470, Control_c, 3, 7, 30
4, 34470, Control_c, 3, 7, 29
4, 34475, Control_c, 3, 7, 28
4, 34480, Control_c, 3, 7, 27
4, 34485, Control_c, 3, 7, 26
4, 34485, Control_c, 3, 7, 24
4, 34490, Control_c, 3, 7, 22
4, 34499, Note_on_c, 3, 62, 0
4, 34500, Note_on_c, 3, 65, 124
4, 34500, Control_c, 3, 7, 21
4, 34500, Control_c, 3, 7, 20
4, 34505, Control_c, 3, 7, 19
4, 34515, Control_c, 3, 7, 18
4, 34515, Control_c, 3, 7, 17
4, 34525, Control_c, 3, 7, 16
4, 34529, Note_on_c, 3, 65, 0
4, 34530, Note_on_c, 3, 67, 120
4, 34530, Control_c, 3, 7, 15
4, 34530, Control_c, 3, 7, 13
4, 34535, Control_c, 3, 7, 12
4, 34545, Control_c, 3, 7, 11
4, 34550, Control_c, 3, 7, 10
4, 34555, Control_c, 3, 7, 9
4, 34559, Note_on_c, 3, 67, 0
4, 34560, Note_on_c, 3, 69, 120
4, 34565, Control_c, 3, 7, 8
4, 34565, Control_c, 3, 7, 7
4, 34570, Control_c, 3, 7, 6
4, 34580, Control_c, 3, 7, 4
4, 34580, Control_c, 3, 7, 3
4, 34589, Note_on_c, 3, 69, 0
4, 34590, Note_on_c, 3, 70, 103
4, 34590, Control_c, 3, 7, 2
4, 34595, Control_c, 3, 7, 1
4, 34595, Control_c, 3, 7, 0
4, 34619, Note_on_c, 3, 70, 0
4, 34619, End_track
5, 0, Start_track
5, 0, MIDI_port, 0
5, 0, Title_t, "Tjahjono@idcnet.com"
5, 0, Program_c, 4, 0
5, 0, Control_c, 4, 7, 110
5, 476, Note_on_c, 4, 60, 96
5, 478, Note_on_c, 4, 64, 94
5, 478, Note_on_c, 4, 57, 78
5, 478, Note_on_c, 4, 67, 94
5, 478, Note_on_c, 4, 41, 94
5, 480, Note_on_c, 4, 29, 99
5, 480, Note_on_c, 4, 65, 60
5, 482, Note_on_c, 4, 65, 0
5, 493, Note_on_c, 4, 67, 0
5, 495, Note_on_c, 4, 41, 0
5, 495, Note_on_c, 4, 57, 0
5, 495, Note_on_c, 4, 60, 0
5, 495, Note_on_c, 4, 64, 0
5, 498, Note_on_c, 4, 29, 0
5, 508, Note_on_c, 4, 64, 60
5, 509, Note_on_c, 4, 60, 59
5, 509, Note_on_c, 4, 57, 51
5, 518, Note_on_c, 4, 64, 0
5, 521, Note_on_c, 4, 60, 0
5, 522, Note_on_c, 4, 57, 0
5, 537, Note_on_c, 4, 60, 68
5, 537, Note_on_c, 4, 62, 64
5, 537, Note_on_c, 4, 57, 63
5, 537, Note_on_c, 4, 65, 66
5, 548, Note_on_c, 4, 62, 0
5, 550, Note_on_c, 4, 60, 0
5, 550, Note_on_c, 4, 57, 0
5, 550, Note_on_c, 4, 65, 0
5, 567, Note_on_c, 4, 57, 66
5, 567, Note_on_c, 4, 60, 76
5, 567, Note_on_c, 4, 64, 84
5, 567, Note_on_c, 4, 67, 83
5, 578, Note_on_c, 4, 64, 0
5, 580, Note_on_c, 4, 67, 0
5, 580, Note_on_c, 4, 57, 0
5, 581, Note_on_c, 4, 60, 0
5, 629, Note_on_c, 4, 62, 68
5, 629, Note_on_c, 4, 65, 74
5, 629, Note_on_c, 4, 60, 72
5, 629, Note_on_c, 4, 57, 70
5, 642, Note_on_c, 4, 57, 0
5, 649, Note_on_c, 4, 60, 0
5, 649, Note_on_c, 4, 65, 0
5, 650, Note_on_c, 4, 62, 0
5, 659, Note_on_c, 4, 57, 54
5, 660, Note_on_c, 4, 41, 75
5, 672, Note_on_c, 4, 57, 0
5, 690, Note_on_c, 4, 29, 57
5, 695, Note_on_c, 4, 41, 0
5, 701, Note_on_c, 4, 29, 0
5, 720, Note_on_c, 4, 34, 90
5, 721, Note_on_c, 4, 46, 96
5, 721, Note_on_c, 4, 64, 83
5, 721, Note_on_c, 4, 58, 78
5, 721, Note_on_c, 4, 60, 74
5, 721, Note_on_c, 4, 55, 79
5, 734, Note_on_c, 4, 34, 0
5, 737, Note_on_c, 4, 60, 0
5, 738, Note_on_c, 4, 58, 0
5, 738, Note_on_c, 4, 46, 0
5, 738, Note_on_c, 4, 55, 0
5, 740, Note_on_c, 4, 64, 0
5, 748, Note_on_c, 4, 58, 47
5, 750, Note_on_c, 4, 60, 66
5, 750, Note_on_c, 4, 55, 62
5, 750, Note_on_c, 4, 64, 53
5, 760, Note_on_c, 4, 64, 0
5, 763, Note_on_c, 4, 55, 0
5, 767, Note_on_c, 4, 58, 0
5, 768, Note_on_c, 4, 60, 0
5, 779, Note_on_c, 4, 62, 75
5, 779, Note_on_c, 4, 58, 44
5, 780, Note_on_c, 4, 53, 65
5, 794, Note_on_c, 4, 53, 0
5, 794, Note_on_c, 4, 58, 0
5, 797, Note_on_c, 4, 62, 0
5, 809, Note_on_c, 4, 58, 51
5, 810, Note_on_c, 4, 64, 76
5, 810, Note_on_c, 4, 60, 66
5, 810, Note_on_c, 4, 55, 66
5, 822, Note_on_c, 4, 60, 0
5, 822, Note_on_c, 4, 58, 0
5, 823, Note_on_c, 4, 64, 0
5, 826, Note_on_c, 4, 55, 0
5, 869, Note_on_c, 4, 58, 57
5, 871, Note_on_c, 4, 62, 76
5, 871, Note_on_c, 4, 53, 63
5, 884, Note_on_c, 4, 53, 0
5, 892, Note_on_c, 4, 62, 0
5, 898, Note_on_c, 4, 58, 0
5, 901, Note_on_c, 4, 53, 55
5, 912, Note_on_c, 4, 53, 0
5, 930, Note_on_c, 4, 30, 90
5, 930, Note_on_c, 4, 42, 82
5, 943, Note_on_c, 4, 42, 0
5, 946, Note_on_c, 4, 30, 0
5, 960, Note_on_c, 4, 64, 90
5, 961, Note_on_c, 4, 67, 84
5, 961, Note_on_c, 4, 57, 76
5, 961, Note_on_c, 4, 41, 102
5, 961, Note_on_c, 4, 60, 92
5, 961, Note_on_c, 4, 29, 104
5, 976, Note_on_c, 4, 60, 0
5, 976, Note_on_c, 4, 41, 0
5, 977, Note_on_c, 4, 57, 0
5, 977, Note_on_c, 4, 64, 0
5, 977, Note_on_c, 4, 29, 0
5, 982, Note_on_c, 4, 67, 0
5, 990, Note_on_c, 4, 67, 43
5, 992, Note_on_c, 4, 57, 57
5, 992, Note_on_c, 4, 64, 61
5, 993, Note_on_c, 4, 60, 57
5, 999, Note_on_c, 4, 64, 0
5, 1000, Note_on_c, 4, 67, 0
5, 1002, Note_on_c, 4, 60, 0
5, 1008, Note_on_c, 4, 57, 0
5, 1019, Note_on_c, 4, 62, 70
5, 1020, Note_on_c, 4, 65, 72
5, 1020, Note_on_c, 4, 57, 67
5, 1020, Note_on_c, 4, 60, 63
5, 1031, Note_on_c, 4, 60, 0
5, 1032, Note_on_c, 4, 62, 0
5, 1033, Note_on_c, 4, 57, 0
5, 1033, Note_on_c, 4, 65, 0
5, 1051, Note_on_c, 4, 64, 74
5, 1051, Note_on_c, 4, 57, 66
5, 1051, Note_on_c, 4, 60, 70
5, 1052, Note_on_c, 4, 67, 72
5, 1059, Note_on_c, 4, 60, 0
5, 1061, Note_on_c, 4, 64, 0
5, 1062, Note_on_c, 4, 67, 0
5, 1064, Note_on_c, 4, 57, 0
5, 1108, Note_on_c, 4, 65, 68
5, 1108, Note_on_c, 4, 62, 68
5, 1110, Note_on_c, 4, 57, 70
5, 1110, Note_on_c, 4, 60, 60
5, 1124, Note_on_c, 4, 57, 0
5, 1130, Note_on_c, 4, 60, 0
5, 1136, Note_on_c, 4, 60, 28
5, 1137, Note_on_c, 4, 65, 0
5, 1139, Note_on_c, 4, 62, 0
5, 1140, Note_on_c, 4, 57, 68
5, 1141, Note_on_c, 4, 41, 97
5, 1143, Note_on_c, 4, 60, 0
5, 1169, Note_on_c, 4, 29, 92
5, 1170, Note_on_c, 4, 57, 0
5, 1175, Note_on_c, 4, 41, 0
5, 1185, Note_on_c, 4, 29, 0
5, 1199, Note_on_c, 4, 58, 72
5, 1200, Note_on_c, 4, 55, 73
5, 1200, Note_on_c, 4, 64, 82
5, 1200, Note_on_c, 4, 60, 76
5, 1202, Note_on_c, 4, 34, 96
5, 1202, Note_on_c, 4, 46, 96
5, 1218, Note_on_c, 4, 60, 0
5, 1218, Note_on_c, 4, 58, 0
5, 1219, Note_on_c, 4, 34, 0
5, 1221, Note_on_c, 4, 55, 0
5, 1221, Note_on_c, 4, 46, 0
5, 1221, Note_on_c, 4, 64, 0
5, 1229, Note_on_c, 4, 64, 60
5, 1229, Note_on_c, 4, 58, 50
5, 1229, Note_on_c, 4, 55, 57
5, 1231, Note_on_c, 4, 60, 62
5, 1241, Note_on_c, 4, 64, 0
5, 1244, Note_on_c, 4, 55, 0
5, 1245, Note_on_c, 4, 60, 0
5, 1247, Note_on_c, 4, 58, 0
5, 1257, Note_on_c, 4, 62, 68
5, 1258, Note_on_c, 4, 58, 49
5, 1260, Note_on_c, 4, 53, 62
5, 1261, Note_on_c, 4, 60, 53
5, 1275, Note_on_c, 4, 60, 0
5, 1275, Note_on_c, 4, 62, 0
5, 1275, Note_on_c, 4, 58, 0
5, 1275, Note_on_c, 4, 53, 0
5, 1290, Note_on_c, 4, 64, 69
5, 1291, Note_on_c, 4, 60, 77
5, 1291, Note_on_c, 4, 58, 49
5, 1293, Note_on_c, 4, 55, 68
5, 1304, Note_on_c, 4, 58, 0
5, 1307, Note_on_c, 4, 55, 0
5, 1308, Note_on_c, 4, 60, 0
5, 1310, Note_on_c, 4, 64, 0
5, 1350, Note_on_c, 4, 58, 60
5, 1350, Note_on_c, 4, 62, 81
5, 1350, Note_on_c, 4, 53, 66
5, 1366, Note_on_c, 4, 53, 0
5, 1385, Note_on_c, 4, 58, 0
5, 1385, Note_on_c, 4, 53, 54
5, 1386, Note_on_c, 4, 62, 0
5, 1399, Note_on_c, 4, 53, 0
5, 1409, Note_on_c, 4, 30, 64
5, 1411, Note_on_c, 4, 42, 53
5, 1421, Note_on_c, 4, 30, 0
5, 1424, Note_on_c, 4, 42, 0
5, 1440, Note_on_c, 4, 67, 92
5, 1440, Note_on_c, 4, 57, 89
5, 1441, Note_on_c, 4, 64, 84
5, 1441, Note_on_c, 4, 60, 81
5, 1441, Note_on_c, 4, 62, 86
5, 1441, Note_on_c, 4, 41, 92
5, 1442, Note_on_c, 4, 29, 104
5, 1451, Note_on_c, 4, 62, 0
5, 1452, Note_on_c, 4, 64, 0
5, 1454, Note_on_c, 4, 60, 0
5, 1455, Note_on_c, 4, 57, 0
5, 1458, Note_on_c, 4, 41, 0
5, 1461, Note_on_c, 4, 29, 0
5, 1470, Note_on_c, 4, 57, 49
5, 1471, Note_on_c, 4, 64, 62
5, 1473, Note_on_c, 4, 60, 57
5, 1478, Note_on_c, 4, 64, 0
5, 1480, Note_on_c, 4, 60, 0
5, 1481, Note_on_c, 4, 67, 0
5, 1488, Note_on_c, 4, 57, 0
5, 1499, Note_on_c, 4, 57, 55
5, 1499, Note_on_c, 4, 60, 74
5, 1499, Note_on_c, 4, 62, 63
5, 1500, Note_on_c, 4, 65, 63
5, 1512, Note_on_c, 4, 62, 0
5, 1512, Note_on_c, 4, 60, 0
5, 1514, Note_on_c, 4, 65, 0
5, 1516, Note_on_c, 4, 57, 0
5, 1529, Note_on_c, 4, 60, 70
5, 1530, Note_on_c, 4, 57, 50
5, 1530, Note_on_c, 4, 64, 77
5, 1530, Note_on_c, 4, 67, 81
5, 1542, Note_on_c, 4, 64, 0
5, 1542, Note_on_c, 4, 60, 0
5, 1545, Note_on_c, 4, 57, 0
5, 1545, Note_on_c, 4, 67, 0
5, 1589, Note_on_c, 4, 65, 69
5, 1589, Note_on_c, 4, 62, 67
5, 1589, Note_on_c, 4, 57, 67
5, 1591, Note_on_c, 4, 60, 66
5, 1604, Note_on_c, 4, 57, 0
5, 1611, Note_on_c, 4, 65, 0
5, 1617, Note_on_c, 4, 62, 0
5, 1618, Note_on_c, 4, 60, 0
5, 1620, Note_on_c, 4, 41, 84
5, 1620, Note_on_c, 4, 57, 63
5, 1638, Note_on_c, 4, 57, 0
5, 1648, Note_on_c, 4, 29, 92
5, 1651, Note_on_c, 4, 41, 0
5, 1664, Note_on_c, 4, 29, 0
5, 1679, Note_on_c, 4, 60, 81
5, 1680, Note_on_c, 4, 34, 99
5, 1680, Note_on_c, 4, 55, 86
5, 1680, Note_on_c, 4, 58, 74
5, 1680, Note_on_c, 4, 64, 89
5, 1680, Note_on_c, 4, 46, 96
5, 1692, Note_on_c, 4, 34, 0
5, 1693, Note_on_c, 4, 46, 0
5, 1697, Note_on_c, 4, 60, 0
5, 1699, Note_on_c, 4, 58, 0
5, 1699, Note_on_c, 4, 64, 0
5, 1700, Note_on_c, 4, 55, 0
5, 1707, Note_on_c, 4, 60, 54
5, 1707, Note_on_c, 4, 55, 60
5, 1709, Note_on_c, 4, 64, 53
5, 1709, Note_on_c, 4, 58, 40
5, 1717, Note_on_c, 4, 58, 0
5, 1719, Note_on_c, 4, 64, 0
5, 1722, Note_on_c, 4, 60, 0
5, 1723, Note_on_c, 4, 55, 0
5, 1738, Note_on_c, 4, 62, 67
5, 1739, Note_on_c, 4, 58, 54
5, 1739, Note_on_c, 4, 53, 63
5, 1742, Note_on_c, 4, 60, 56
5, 1752, Note_on_c, 4, 53, 0
5, 1753, Note_on_c, 4, 60, 0
5, 1755, Note_on_c, 4, 62, 0
5, 1756, Note_on_c, 4, 58, 0
5, 1771, Note_on_c, 4, 58, 61
5, 1771, Note_on_c, 4, 60, 76
5, 1771, Note_on_c, 4, 64, 84
5, 1771, Note_on_c, 4, 55, 77
5, 1785, Note_on_c, 4, 64, 0
5, 1785, Note_on_c, 4, 58, 0
5, 1787, Note_on_c, 4, 60, 0
5, 1787, Note_on_c, 4, 55, 0
5, 1828, Note_on_c, 4, 58, 62
5, 1828, Note_on_c, 4, 62, 79
5, 1828, Note_on_c, 4, 53, 72
5, 1843, Note_on_c, 4, 53, 0
5, 1854, Note_on_c, 4, 58, 0
5, 1859, Note_on_c, 4, 53, 52
5, 1882, Note_on_c, 4, 34, 56
5, 1884, Note_on_c, 4, 46, 52
5, 1887, Note_on_c, 4, 58, 52
5, 1893, Note_on_c, 4, 62, 0
5, 1895, Note_on_c, 4, 34, 0
5, 1897, Note_on_c, 4, 53, 0
5, 1897, Note_on_c, 4, 46, 0
5, 1902, Note_on_c, 4, 58, 0
5, 1915, Note_on_c, 4, 64, 87
5, 1915, Note_on_c, 4, 50, 96
5, 1915, Note_on_c, 4, 57, 97
5, 1915, Note_on_c, 4, 38, 94
5, 1916, Note_on_c, 4, 60, 96
5, 1916, Note_on_c, 4, 55, 90
5, 1929, Note_on_c, 4, 50, 0
5, 1932, Note_on_c, 4, 60, 0
5, 1932, Note_on_c, 4, 38, 0
5, 1932, Note_on_c, 4, 57, 0
5, 1933, Note_on_c, 4, 64, 0
5, 1936, Note_on_c, 4, 55, 0
5, 1945, Note_on_c, 4, 55, 36
5, 1945, Note_on_c, 4, 60, 55
5, 1945, Note_on_c, 4, 64, 51
5, 1946, Note_on_c, 4, 57, 63
5, 1958, Note_on_c, 4, 57, 0
5, 1959, Note_on_c, 4, 60, 0
5, 1961, Note_on_c, 4, 64, 0
5, 1961, Note_on_c, 4, 55, 0
5, 1977, Note_on_c, 4, 60, 56
5, 1977, Note_on_c, 4, 55, 60
5, 1977, Note_on_c, 4, 64, 61
5, 1977, Note_on_c, 4, 57, 64
5, 1990, Note_on_c, 4, 60, 0
5, 1991, Note_on_c, 4, 57, 0
5, 1991, Note_on_c, 4, 64, 0
5, 1992, Note_on_c, 4, 55, 0
5, 2008, Note_on_c, 4, 57, 79
5, 2008, Note_on_c, 4, 64, 77
5, 2010, Note_on_c, 4, 60, 71
5, 2010, Note_on_c, 4, 55, 73
5, 2021, Note_on_c, 4, 55, 0
5, 2021, Note_on_c, 4, 57, 0
5, 2023, Note_on_c, 4, 60, 0
5, 2024, Note_on_c, 4, 64, 0
5, 2069, Note_on_c, 4, 64, 76
5, 2069, Note_on_c, 4, 60, 74
5, 2069, Note_on_c, 4, 55, 74
5, 2069, Note_on_c, 4, 57, 82
5, 2069, Note_on_c, 4, 45, 86
5, 2090, Note_on_c, 4, 60, 0
5, 2092, Note_on_c, 4, 57, 0
5, 2092, Note_on_c, 4, 64, 0
5, 2092, Note_on_c, 4, 55, 0
5, 2099, Note_on_c, 4, 50, 104
5, 2102, Note_on_c, 4, 45, 0
5, 2121, Note_on_c, 4, 50, 0
5, 2129, Note_on_c, 4, 65, 94
5, 2129, Note_on_c, 4, 57, 90
5, 2129, Note_on_c, 4, 62, 111
5, 2131, Note_on_c, 4, 60, 111
5, 2131, Note_on_c, 4, 38, 114
5, 2242, Note_on_c, 4, 62, 0
5, 2248, Note_on_c, 4, 57, 0
5, 2250, Note_on_c, 4, 65, 0
5, 2250, Note_on_c, 4, 60, 0
5, 2250, Note_on_c, 4, 43, 106
5, 2250, Note_on_c, 4, 62, 111
5, 2253, Note_on_c, 4, 38, 0
5, 2309, Note_on_c, 4, 43, 0
5, 2310, Note_on_c, 4, 41, 79
5, 2310, Note_on_c, 4, 64, 94
5, 2317, Note_on_c, 4, 62, 0
5, 2339, Note_on_c, 4, 64, 0
5, 2339, Note_on_c, 4, 41, 0
5, 2340, Note_on_c, 4, 65, 102
5, 2340, Note_on_c, 4, 40, 102
5, 2369, Note_on_c, 4, 40, 0
5, 2369, Note_on_c, 4, 65, 0
5, 2370, Note_on_c, 4, 67, 102
5, 2373, Note_on_c, 4, 38, 106
5, 2399, Note_on_c, 4, 67, 0
5, 2400, Note_on_c, 4, 49, 96
5, 2400, Note_on_c, 4, 57, 104
5, 2400, Note_on_c, 4, 61, 96
5, 2402, Note_on_c, 4, 38, 0
5, 2404, Note_on_c, 4, 64, 92
5, 2404, Note_on_c, 4, 69, 89
5, 2406, Note_on_c, 4, 37, 99
5, 2499, Note_on_c, 4, 61, 0
5, 2499, Note_on_c, 4, 57, 0
5, 2501, Note_on_c, 4, 49, 0
5, 2503, Note_on_c, 4, 64, 0
5, 2503, Note_on_c, 4, 69, 0
5, 2517, Note_on_c, 4, 37, 0
5, 2520, Note_on_c, 4, 65, 97
5, 2521, Note_on_c, 4, 63, 99
5, 2521, Note_on_c, 4, 48, 97
5, 2521, Note_on_c, 4, 69, 99
5, 2521, Note_on_c, 4, 60, 92
5, 2521, Note_on_c, 4, 36, 90
5, 2620, Note_on_c, 4, 69, 0
5, 2620, Note_on_c, 4, 48, 0
5, 2620, Note_on_c, 4, 65, 0
5, 2620, Note_on_c, 4, 63, 0
5, 2623, Note_on_c, 4, 36, 0
5, 2623, Note_on_c, 4, 60, 0
5, 2638, Note_on_c, 4, 69, 81
5, 2638, Note_on_c, 4, 62, 77
5, 2638, Note_on_c, 4, 65, 79
5, 2639, Note_on_c, 4, 47, 87
5, 2639, Note_on_c, 4, 59, 74
5, 2639, Note_on_c, 4, 35, 90
5, 2708, Note_on_c, 4, 69, 0
5, 2710, Note_on_c, 4, 47, 0
5, 2712, Note_on_c, 4, 59, 0
5, 2714, Note_on_c, 4, 65, 0
5, 2715, Note_on_c, 4, 62, 0
5, 2717, Note_on_c, 4, 35, 0
5, 2728, Note_on_c, 4, 62, 89
5, 2728, Note_on_c, 4, 67, 99
5, 2728, Note_on_c, 4, 65, 109
5, 2728, Note_on_c, 4, 34, 82
5, 2728, Note_on_c, 4, 58, 99
5, 2730, Note_on_c, 4, 46, 87
5, 2796, Note_on_c, 4, 58, 0
5, 2796, Note_on_c, 4, 62, 0
5, 2799, Note_on_c, 4, 65, 0
5, 2800, Note_on_c, 4, 67, 0
5, 2820, Note_on_c, 4, 69, 102
5, 2836, Note_on_c, 4, 46, 0
5, 2842, Note_on_c, 4, 34, 0
5, 2849, Note_on_c, 4, 69, 0
5, 2850, Note_on_c, 4, 33, 87
5, 2850, Note_on_c, 4, 45, 90
5, 2850, Note_on_c, 4, 69, 96
5, 2850, Note_on_c, 4, 64, 104
5, 2850, Note_on_c, 4, 67, 106
5, 2850, Note_on_c, 4, 72, 94
5, 2850, Note_on_c, 4, 71, 92
5, 2869, Note_on_c, 4, 71, 0
5, 2869, Note_on_c, 4, 67, 0
5, 2869, Note_on_c, 4, 45, 0
5, 2869, Note_on_c, 4, 69, 0
5, 2869, Note_on_c, 4, 33, 0
5, 2869, Note_on_c, 4, 72, 0
5, 2869, Note_on_c, 4, 64, 0
5, 2910, Note_on_c, 4, 32, 99
5, 2910, Note_on_c, 4, 44, 99
5, 2910, Note_on_c, 4, 66, 99
5, 2910, Note_on_c, 4, 70, 74
5, 2910, Note_on_c, 4, 72, 102
5, 2916, Note_on_c, 4, 77, 104
5, 3189, Note_on_c, 4, 72, 0
5, 3189, Note_on_c, 4, 70, 0
5, 3189, Note_on_c, 4, 66, 0
5, 3189, Note_on_c, 4, 32, 0
5, 3189, Note_on_c, 4, 44, 0
5, 3199, Note_on_c, 4, 77, 0
5, 3210, Note_on_c, 4, 33, 117
5, 3226, Note_on_c, 4, 33, 0
5, 3270, Note_on_c, 4, 34, 76
5, 3289, Note_on_c, 4, 34, 0
5, 3327, Note_on_c, 4, 35, 66
5, 3346, Note_on_c, 4, 35, 0
5, 3358, Note_on_c, 4, 58, 80
5, 3358, Note_on_c, 4, 69, 83
5, 3358, Note_on_c, 4, 65, 90
5, 3358, Note_on_c, 4, 62, 89
5, 3359, Note_on_c, 4, 36, 99
5, 3547, Note_on_c, 4, 62, 0
5, 3547, Note_on_c, 4, 65, 0
5, 3547, Note_on_c, 4, 58, 0
5, 3547, Note_on_c, 4, 69, 0
5, 3570, Note_on_c, 4, 77, 49
5, 3570, Note_on_c, 4, 74, 83
5, 3599, Note_on_c, 4, 74, 0
5, 3599, Note_on_c, 4, 77, 0
5, 3600, Note_on_c, 4, 70, 70
5, 3600, Note_on_c, 4, 67, 79
5, 3679, Note_on_c, 4, 67, 0
5, 3679, Note_on_c, 4, 70, 0
5, 3690, Note_on_c, 4, 79, 92
5, 3719, Note_on_c, 4, 79, 0
5, 3720, Note_on_c, 4, 91, 111
5, 3798, Note_on_c, 4, 36, 0
5, 3809, Note_on_c, 4, 91, 0
5, 3840, Note_on_c, 4, 60, 90
5, 3840, Note_on_c, 4, 67, 79
5, 3840, Note_on_c, 4, 64, 96
5, 3840, Note_on_c, 4, 57, 76
5, 3840, Note_on_c, 4, 65, 56
5, 3840, Note_on_c, 4, 29, 120
5, 3869, Note_on_c, 4, 65, 0
5, 3869, Note_on_c, 4, 57, 0
5, 3869, Note_on_c, 4, 64, 0
5, 3869, Note_on_c, 4, 60, 0
5, 3869, Note_on_c, 4, 67, 0
5, 3870, Note_on_c, 4, 67, 57
5, 3870, Note_on_c, 4, 60, 60
5, 3870, Note_on_c, 4, 64, 62
5, 3870, Note_on_c, 4, 57, 55
5, 3899, Note_on_c, 4, 57, 0
5, 3899, Note_on_c, 4, 60, 0
5, 3899, Note_on_c, 4, 29, 0
5, 3899, Note_on_c, 4, 67, 0
5, 3899, Note_on_c, 4, 64, 0
5, 3900, Note_on_c, 4, 65, 75
5, 3900, Note_on_c, 4, 62, 77
5, 3900, Note_on_c, 4, 60, 70
5, 3900, Note_on_c, 4, 57, 63
5, 3929, Note_on_c, 4, 57, 0
5, 3929, Note_on_c, 4, 65, 0
5, 3929, Note_on_c, 4, 62, 0
5, 3929, Note_on_c, 4, 60, 0
5, 3930, Note_on_c, 4, 60, 70
5, 3930, Note_on_c, 4, 57, 62
5, 3930, Note_on_c, 4, 67, 70
5, 3930, Note_on_c, 4, 64, 81
5, 3959, Note_on_c, 4, 64, 0
5, 3959, Note_on_c, 4, 60, 0
5, 3959, Note_on_c, 4, 57, 0
5, 3959, Note_on_c, 4, 67, 0
5, 3990, Note_on_c, 4, 60, 83
5, 3990, Note_on_c, 4, 62, 84
5, 3990, Note_on_c, 4, 57, 71
5, 3990, Note_on_c, 4, 65, 77
5, 4049, Note_on_c, 4, 65, 0
5, 4049, Note_on_c, 4, 60, 0
5, 4049, Note_on_c, 4, 62, 0
5, 4049, Note_on_c, 4, 57, 0
5, 4050, Note_on_c, 4, 29, 109
5, 4079, Note_on_c, 4, 29, 0
5, 4080, Note_on_c, 4, 58, 82
5, 4080, Note_on_c, 4, 60, 83
5, 4080, Note_on_c, 4, 64, 79
5, 4080, Note_on_c, 4, 55, 75
5, 4080, Note_on_c, 4, 34, 127
5, 4109, Note_on_c, 4, 55, 0
5, 4109, Note_on_c, 4, 64, 0
5, 4109, Note_on_c, 4, 58, 0
5, 4109, Note_on_c, 4, 60, 0
5, 4110, Note_on_c, 4, 58, 39
5, 4110, Note_on_c, 4, 55, 57
5, 4110, Note_on_c, 4, 60, 54
5, 4110, Note_on_c, 4, 64, 42
5, 4139, Note_on_c, 4, 64, 0
5, 4139, Note_on_c, 4, 55, 0
5, 4139, Note_on_c, 4, 34, 0
5, 4139, Note_on_c, 4, 58, 0
5, 4139, Note_on_c, 4, 60, 0
5, 4140, Note_on_c, 4, 62, 62
5, 4140, Note_on_c, 4, 58, 50
5, 4140, Note_on_c, 4, 53, 66
5, 4169, Note_on_c, 4, 53, 0
5, 4169, Note_on_c, 4, 58, 0
5, 4169, Note_on_c, 4, 62, 0
5, 4170, Note_on_c, 4, 60, 74
5, 4170, Note_on_c, 4, 58, 63
5, 4170, Note_on_c, 4, 55, 73
5, 4170, Note_on_c, 4, 64, 73
5, 4199, Note_on_c, 4, 64, 0
5, 4199, Note_on_c, 4, 60, 0
5, 4199, Note_on_c, 4, 58, 0
5, 4199, Note_on_c, 4, 55, 0
5, 4230, Note_on_c, 4, 62, 78
5, 4230, Note_on_c, 4, 58, 74
5, 4230, Note_on_c, 4, 53, 67
5, 4289, Note_on_c, 4, 53, 0
5, 4289, Note_on_c, 4, 58, 0
5, 4289, Note_on_c, 4, 62, 0
5, 4320, Note_on_c, 4, 33, 127
5, 4320, Note_on_c, 4, 64, 74
5, 4320, Note_on_c, 4, 60, 81
5, 4320, Note_on_c, 4, 55, 76
5, 4320, Note_on_c, 4, 57, 83
5, 4349, Note_on_c, 4, 57, 0
5, 4349, Note_on_c, 4, 60, 0
5, 4349, Note_on_c, 4, 55, 0
5, 4349, Note_on_c, 4, 64, 0
5, 4350, Note_on_c, 4, 64, 55
5, 4350, Note_on_c, 4, 60, 59
5, 4350, Note_on_c, 4, 57, 62
5, 4350, Note_on_c, 4, 55, 42
5, 4379, Note_on_c, 4, 55, 0
5, 4379, Note_on_c, 4, 60, 0
5, 4379, Note_on_c, 4, 33, 0
5, 4379, Note_on_c, 4, 64, 0
5, 4379, Note_on_c, 4, 57, 0
5, 4380, Note_on_c, 4, 62, 65
5, 4380, Note_on_c, 4, 55, 64
5, 4380, Note_on_c, 4, 57, 64
5, 4409, Note_on_c, 4, 57, 0
5, 4409, Note_on_c, 4, 55, 0
5, 4409, Note_on_c, 4, 62, 0
5, 4410, Note_on_c, 4, 64, 70
5, 4410, Note_on_c, 4, 55, 70
5, 4410, Note_on_c, 4, 57, 71
5, 4410, Note_on_c, 4, 60, 66
5, 4439, Note_on_c, 4, 60, 0
5, 4439, Note_on_c, 4, 64, 0
5, 4439, Note_on_c, 4, 55, 0
5, 4439, Note_on_c, 4, 57, 0
5, 4470, Note_on_c, 4, 62, 83
5, 4470, Note_on_c, 4, 57, 75
5, 4470, Note_on_c, 4, 60, 81
5, 4470, Note_on_c, 4, 55, 66
5, 4529, Note_on_c, 4, 55, 0
5, 4529, Note_on_c, 4, 62, 0
5, 4529, Note_on_c, 4, 57, 0
5, 4529, Note_on_c, 4, 60, 0
5, 4530, Note_on_c, 4, 33, 124
5, 4559, Note_on_c, 4, 33, 0
5, 4560, Note_on_c, 4, 64, 70
5, 4560, Note_on_c, 4, 57, 67
5, 4560, Note_on_c, 4, 55, 66
5, 4560, Note_on_c, 4, 60, 70
5, 4560, Note_on_c, 4, 38, 111
5, 4589, Note_on_c, 4, 60, 0
5, 4589, Note_on_c, 4, 55, 0
5, 4589, Note_on_c, 4, 64, 0
5, 4589, Note_on_c, 4, 57, 0
5, 4590, Note_on_c, 4, 55, 53
5, 4590, Note_on_c, 4, 60, 60
5, 4590, Note_on_c, 4, 57, 62
5, 4590, Note_on_c, 4, 64, 58
5, 4619, Note_on_c, 4, 64, 0
5, 4619, Note_on_c, 4, 60, 0
5, 4619, Note_on_c, 4, 38, 0
5, 4619, Note_on_c, 4, 55, 0
5, 4619, Note_on_c, 4, 57, 0
5, 4620, Note_on_c, 4, 55, 62
5, 4620, Note_on_c, 4, 64, 61
5, 4620, Note_on_c, 4, 57, 66
5, 4620, Note_on_c, 4, 60, 58
5, 4649, Note_on_c, 4, 60, 0
5, 4649, Note_on_c, 4, 55, 0
5, 4649, Note_on_c, 4, 64, 0
5, 4649, Note_on_c, 4, 57, 0
5, 4650, Note_on_c, 4, 62, 74
5, 4650, Note_on_c, 4, 65, 79
5, 4650, Note_on_c, 4, 60, 83
5, 4650, Note_on_c, 4, 57, 72
5, 4679, Note_on_c, 4, 57, 0
5, 4679, Note_on_c, 4, 62, 0
5, 4679, Note_on_c, 4, 65, 0
5, 4679, Note_on_c, 4, 60, 0
5, 4710, Note_on_c, 4, 62, 83
5, 4710, Note_on_c, 4, 65, 86
5, 4710, Note_on_c, 4, 60, 77
5, 4710, Note_on_c, 4, 57, 65
5, 4769, Note_on_c, 4, 57, 0
5, 4769, Note_on_c, 4, 62, 0
5, 4769, Note_on_c, 4, 65, 0
5, 4769, Note_on_c, 4, 60, 0
5, 4800, Note_on_c, 4, 31, 124
5, 4800, Note_on_c, 4, 62, 83
5, 4800, Note_on_c, 4, 65, 73
5, 4800, Note_on_c, 4, 58, 78
5, 4800, Note_on_c, 4, 55, 70
5, 4829, Note_on_c, 4, 55, 0
5, 4829, Note_on_c, 4, 65, 0
5, 4829, Note_on_c, 4, 58, 0
5, 4829, Note_on_c, 4, 62, 0
5, 4830, Note_on_c, 4, 65, 49
5, 4830, Note_on_c, 4, 55, 53
5, 4830, Note_on_c, 4, 62, 70
5, 4830, Note_on_c, 4, 58, 47
5, 4859, Note_on_c, 4, 58, 0
5, 4859, Note_on_c, 4, 55, 0
5, 4859, Note_on_c, 4, 62, 0
5, 4859, Note_on_c, 4, 65, 0
5, 4860, Note_on_c, 4, 58, 51
5, 4860, Note_on_c, 4, 55, 62
5, 4860, Note_on_c, 4, 62, 62
5, 4860, Note_on_c, 4, 65, 60
5, 4889, Note_on_c, 4, 65, 0
5, 4889, Note_on_c, 4, 55, 0
5, 4889, Note_on_c, 4, 62, 0
5, 4889, Note_on_c, 4, 58, 0
5, 4890, Note_on_c, 4, 58, 63
5, 4890, Note_on_c, 4, 62, 70
5, 4890, Note_on_c, 4, 65, 70
5, 4890, Note_on_c, 4, 55, 66
5, 4919, Note_on_c, 4, 55, 0
5, 4919, Note_on_c, 4, 62, 0
5, 4919, Note_on_c, 4, 65, 0
5, 4919, Note_on_c, 4, 58, 0
5, 4949, Note_on_c, 4, 31, 0
5, 4950, Note_on_c, 4, 65, 81
5, 4950, Note_on_c, 4, 58, 84
5, 4950, Note_on_c, 4, 62, 89
5, 4950, Note_on_c, 4, 57, 78
5, 4950, Note_on_c, 4, 33, 120
5, 4979, Note_on_c, 4, 57, 0
5, 4979, Note_on_c, 4, 62, 0
5, 4979, Note_on_c, 4, 65, 0
5, 4979, Note_on_c, 4, 58, 0
5, 5009, Note_on_c, 4, 33, 0
5, 5010, Note_on_c, 4, 62, 89
5, 5010, Note_on_c, 4, 65, 84
5, 5010, Note_on_c, 4, 58, 80
5, 5010, Note_on_c, 4, 69, 89
5, 5010, Note_on_c, 4, 34, 117
5, 5129, Note_on_c, 4, 69, 0
5, 5129, Note_on_c, 4, 58, 0
5, 5129, Note_on_c, 4, 62, 0
5, 5129, Note_on_c, 4, 65, 0
5, 5159, Note_on_c, 4, 34, 0
5, 5160, Note_on_c, 4, 36, 120
5, 5160, Note_on_c, 4, 64, 75
5, 5160, Note_on_c, 4, 67, 89
5, 5160, Note_on_c, 4, 62, 77
5, 5160, Note_on_c, 4, 58, 67
5, 5249, Note_on_c, 4, 58, 0
5, 5249, Note_on_c, 4, 67, 0
5, 5249, Note_on_c, 4, 62, 0
5, 5249, Note_on_c, 4, 64, 0
5, 5279, Note_on_c, 4, 36, 0
5, 5280, Note_on_c, 4, 60, 90
5, 5280, Note_on_c, 4, 64, 97
5, 5280, Note_on_c, 4, 57, 73
5, 5280, Note_on_c, 4, 67, 84
5, 5280, Note_on_c, 4, 29, 120
5, 5309, Note_on_c, 4, 67, 0
5, 5309, Note_on_c, 4, 57, 0
5, 5309, Note_on_c, 4, 60, 0
5, 5309, Note_on_c, 4, 64, 0
5, 5310, Note_on_c, 4, 67, 51
5, 5310, Note_on_c, 4, 64, 62
5, 5310, Note_on_c, 4, 60, 60
5, 5310, Note_on_c, 4, 57, 47
5, 5339, Note_on_c, 4, 57, 0
5, 5339, Note_on_c, 4, 64, 0
5, 5339, Note_on_c, 4, 29, 0
5, 5339, Note_on_c, 4, 67, 0
5, 5339, Note_on_c, 4, 60, 0
5, 5340, Note_on_c, 4, 62, 66
5, 5340, Note_on_c, 4, 65, 70
5, 5340, Note_on_c, 4, 57, 62
5, 5340, Note_on_c, 4, 60, 66
5, 5369, Note_on_c, 4, 60, 0
5, 5369, Note_on_c, 4, 62, 0
5, 5369, Note_on_c, 4, 65, 0
5, 5369, Note_on_c, 4, 57, 0
5, 5370, Note_on_c, 4, 60, 70
5, 5370, Note_on_c, 4, 67, 69
5, 5370, Note_on_c, 4, 64, 67
5, 5370, Note_on_c, 4, 57, 57
5, 5399, Note_on_c, 4, 57, 0
5, 5399, Note_on_c, 4, 60, 0
5, 5399, Note_on_c, 4, 67, 0
5, 5399, Note_on_c, 4, 64, 0
5, 5430, Note_on_c, 4, 62, 78
5, 5430, Note_on_c, 4, 65, 76
5, 5430, Note_on_c, 4, 60, 83
5, 5430, Note_on_c, 4, 57, 66
5, 5489, Note_on_c, 4, 57, 0
5, 5489, Note_on_c, 4, 62, 0
5, 5489, Note_on_c, 4, 65, 0
5, 5489, Note_on_c, 4, 60, 0
5, 5490, Note_on_c, 4, 29, 104
5, 5519, Note_on_c, 4, 29, 0
5, 5520, Note_on_c, 4, 60, 74
5, 5520, Note_on_c, 4, 64, 77
5, 5520, Note_on_c, 4, 58, 78
5, 5520, Note_on_c, 4, 55, 78
5, 5520, Note_on_c, 4, 34, 117
5, 5549, Note_on_c, 4, 55, 0
5, 5549, Note_on_c, 4, 58, 0
5, 5549, Note_on_c, 4, 60, 0
5, 5549, Note_on_c, 4, 64, 0
5, 5550, Note_on_c, 4, 64, 62
5, 5550, Note_on_c, 4, 55, 64
5, 5550, Note_on_c, 4, 58, 44
5, 5550, Note_on_c, 4, 60, 63
5, 5579, Note_on_c, 4, 60, 0
5, 5579, Note_on_c, 4, 55, 0
5, 5579, Note_on_c, 4, 34, 0
5, 5579, Note_on_c, 4, 64, 0
5, 5579, Note_on_c, 4, 58, 0
5, 5580, Note_on_c, 4, 62, 73
5, 5580, Note_on_c, 4, 58, 66
5, 5580, Note_on_c, 4, 53, 72
5, 5580, Note_on_c, 4, 60, 70
5, 5609, Note_on_c, 4, 60, 0
5, 5609, Note_on_c, 4, 62, 0
5, 5609, Note_on_c, 4, 58, 0
5, 5609, Note_on_c, 4, 53, 0
5, 5610, Note_on_c, 4, 64, 71
5, 5610, Note_on_c, 4, 58, 54
5, 5610, Note_on_c, 4, 60, 63
5, 5610, Note_on_c, 4, 55, 70
5, 5639, Note_on_c, 4, 55, 0
5, 5639, Note_on_c, 4, 64, 0
5, 5639, Note_on_c, 4, 58, 0
5, 5639, Note_on_c, 4, 60, 0
5, 5670, Note_on_c, 4, 58, 84
5, 5670, Note_on_c, 4, 62, 97
5, 5670, Note_on_c, 4, 53, 79
5, 5699, Note_on_c, 4, 53, 0
5, 5699, Note_on_c, 4, 58, 0
5, 5700, Note_on_c, 4, 53, 46
5, 5729, Note_on_c, 4, 53, 0
5, 5729, Note_on_c, 4, 62, 0
5, 5730, Note_on_c, 4, 58, 45
5, 5759, Note_on_c, 4, 58, 0
5, 5760, Note_on_c, 4, 57, 89
5, 5760, Note_on_c, 4, 64, 81
5, 5760, Note_on_c, 4, 60, 89
5, 5760, Note_on_c, 4, 55, 78
5, 5760, Note_on_c, 4, 33, 111
5, 5789, Note_on_c, 4, 55, 0
5, 5789, Note_on_c, 4, 60, 0
5, 5789, Note_on_c, 4, 57, 0
5, 5789, Note_on_c, 4, 64, 0
5, 5790, Note_on_c, 4, 64, 65
5, 5790, Note_on_c, 4, 57, 65
5, 5790, Note_on_c, 4, 60, 62
5, 5790, Note_on_c, 4, 55, 50
5, 5819, Note_on_c, 4, 55, 0
5, 5819, Note_on_c, 4, 57, 0
5, 5819, Note_on_c, 4, 33, 0
5, 5819, Note_on_c, 4, 64, 0
5, 5819, Note_on_c, 4, 60, 0
5, 5820, Note_on_c, 4, 62, 66
5, 5820, Note_on_c, 4, 57, 59
5, 5820, Note_on_c, 4, 55, 57
5, 5849, Note_on_c, 4, 55, 0
5, 5849, Note_on_c, 4, 57, 0
5, 5849, Note_on_c, 4, 62, 0
5, 5850, Note_on_c, 4, 57, 70
5, 5850, Note_on_c, 4, 64, 66
5, 5850, Note_on_c, 4, 55, 64
5, 5850, Note_on_c, 4, 60, 59
5, 5879, Note_on_c, 4, 60, 0
5, 5879, Note_on_c, 4, 57, 0
5, 5879, Note_on_c, 4, 64, 0
5, 5879, Note_on_c, 4, 55, 0
5, 5910, Note_on_c, 4, 62, 82
5, 5910, Note_on_c, 4, 57, 77
5, 5910, Note_on_c, 4, 60, 81
5, 5910, Note_on_c, 4, 55, 70
5, 5969, Note_on_c, 4, 55, 0
5, 5969, Note_on_c, 4, 62, 0
5, 5969, Note_on_c, 4, 57, 0
5, 5969, Note_on_c, 4, 60, 0
5, 5970, Note_on_c, 4, 33, 111
5, 5999, Note_on_c, 4, 33, 0
5, 6000, Note_on_c, 4, 57, 73
5, 6000, Note_on_c, 4, 64, 78
5, 6000, Note_on_c, 4, 60, 70
5, 6000, Note_on_c, 4, 55, 75
5, 6000, Note_on_c, 4, 38, 104
5, 6029, Note_on_c, 4, 55, 0
5, 6029, Note_on_c, 4, 60, 0
5, 6029, Note_on_c, 4, 57, 0
5, 6029, Note_on_c, 4, 64, 0
5, 6030, Note_on_c, 4, 64, 60
5, 6030, Note_on_c, 4, 60, 57
5, 6030, Note_on_c, 4, 57, 66
5, 6030, Note_on_c, 4, 55, 53
5, 6059, Note_on_c, 4, 55, 0
5, 6059, Note_on_c, 4, 60, 0
5, 6059, Note_on_c, 4, 57, 0
5, 6059, Note_on_c, 4, 64, 0
5, 6060, Note_on_c, 4, 55, 63
5, 6060, Note_on_c, 4, 64, 63
5, 6060, Note_on_c, 4, 60, 56
5, 6060, Note_on_c, 4, 57, 60
5, 6089, Note_on_c, 4, 57, 0
5, 6089, Note_on_c, 4, 64, 0
5, 6089, Note_on_c, 4, 38, 0
5, 6089, Note_on_c, 4, 55, 0
5, 6089, Note_on_c, 4, 60, 0
5, 6090, Note_on_c, 4, 62, 83
5, 6090, Note_on_c, 4, 65, 86
5, 6090, Note_on_c, 4, 60, 92
5, 6090, Note_on_c, 4, 57, 71
5, 6119, Note_on_c, 4, 57, 0
5, 6119, Note_on_c, 4, 62, 0
5, 6119, Note_on_c, 4, 65, 0
5, 6119, Note_on_c, 4, 60, 0
5, 6150, Note_on_c, 4, 60, 84
5, 6150, Note_on_c, 4, 65, 79
5, 6150, Note_on_c, 4, 62, 90
5, 6150, Note_on_c, 4, 57, 66
5, 6209, Note_on_c, 4, 57, 0
5, 6209, Note_on_c, 4, 60, 0
5, 6209, Note_on_c, 4, 65, 0
5, 6209, Note_on_c, 4, 62, 0
5, 6240, Note_on_c, 4, 31, 104
5, 6240, Note_on_c, 4, 62, 82
5, 6240, Note_on_c, 4, 58, 78
5, 6240, Note_on_c, 4, 65, 81
5, 6240, Note_on_c, 4, 55, 73
5, 6269, Note_on_c, 4, 55, 0
5, 6269, Note_on_c, 4, 58, 0
5, 6269, Note_on_c, 4, 65, 0
5, 6269, Note_on_c, 4, 62, 0
5, 6270, Note_on_c, 4, 58, 47
5, 6270, Note_on_c, 4, 55, 57
5, 6270, Note_on_c, 4, 65, 59
5, 6270, Note_on_c, 4, 62, 70
5, 6299, Note_on_c, 4, 62, 0
5, 6299, Note_on_c, 4, 55, 0
5, 6299, Note_on_c, 4, 65, 0
5, 6299, Note_on_c, 4, 58, 0
5, 6300, Note_on_c, 4, 58, 52
5, 6300, Note_on_c, 4, 55, 62
5, 6300, Note_on_c, 4, 65, 66
5, 6300, Note_on_c, 4, 62, 63
5, 6329, Note_on_c, 4, 62, 0
5, 6329, Note_on_c, 4, 55, 0
5, 6329, Note_on_c, 4, 65, 0
5, 6329, Note_on_c, 4, 58, 0
5, 6330, Note_on_c, 4, 58, 54
5, 6330, Note_on_c, 4, 55, 63
5, 6330, Note_on_c, 4, 62, 63
5, 6330, Note_on_c, 4, 65, 66
5, 6359, Note_on_c, 4, 65, 0
5, 6359, Note_on_c, 4, 55, 0
5, 6359, Note_on_c, 4, 62, 0
5, 6359, Note_on_c, 4, 58, 0
5, 6389, Note_on_c, 4, 31, 0
5, 6390, Note_on_c, 4, 33, 109
5, 6390, Note_on_c, 4, 58, 78
5, 6390, Note_on_c, 4, 65, 77
5, 6390, Note_on_c, 4, 62, 82
5, 6390, Note_on_c, 4, 57, 72
5, 6419, Note_on_c, 4, 57, 0
5, 6419, Note_on_c, 4, 65, 0
5, 6419, Note_on_c, 4, 62, 0
5, 6419, Note_on_c, 4, 58, 0
5, 6449, Note_on_c, 4, 33, 0
5, 6450, Note_on_c, 4, 65, 96
5, 6450, Note_on_c, 4, 69, 90
5, 6450, Note_on_c, 4, 62, 92
5, 6450, Note_on_c, 4, 58, 87
5, 6450, Note_on_c, 4, 34, 107
5, 6589, Note_on_c, 4, 58, 0
5, 6589, Note_on_c, 4, 62, 0
5, 6589, Note_on_c, 4, 65, 0
5, 6589, Note_on_c, 4, 69, 0
5, 6599, Note_on_c, 4, 34, 0
5, 6600, Note_on_c, 4, 36, 109
5, 6600, Note_on_c, 4, 62, 83
5, 6600, Note_on_c, 4, 67, 78
5, 6600, Note_on_c, 4, 64, 78
5, 6600, Note_on_c, 4, 58, 82
5, 6689, Note_on_c, 4, 58, 0
5, 6689, Note_on_c, 4, 67, 0
5, 6689, Note_on_c, 4, 64, 0
5, 6689, Note_on_c, 4, 62, 0
5, 6719, Note_on_c, 4, 36, 0
5, 6720, Note_on_c, 4, 64, 87
5, 6720, Note_on_c, 4, 67, 79
5, 6720, Note_on_c, 4, 60, 86
5, 6720, Note_on_c, 4, 57, 76
5, 6720, Note_on_c, 4, 29, 109
5, 6749, Note_on_c, 4, 57, 0
5, 6749, Note_on_c, 4, 60, 0
5, 6749, Note_on_c, 4, 64, 0
5, 6749, Note_on_c, 4, 67, 0
5, 6750, Note_on_c, 4, 57, 47
5, 6750, Note_on_c, 4, 60, 55
5, 6750, Note_on_c, 4, 64, 62
5, 6750, Note_on_c, 4, 67, 51
5, 6779, Note_on_c, 4, 67, 0
5, 6779, Note_on_c, 4, 60, 0
5, 6779, Note_on_c, 4, 64, 0
5, 6779, Note_on_c, 4, 57, 0
5, 6780, Note_on_c, 4, 67, 44
5, 6780, Note_on_c, 4, 60, 63
5, 6780, Note_on_c, 4, 64, 60
5, 6780, Note_on_c, 4, 57, 50
5, 6809, Note_on_c, 4, 57, 0
5, 6809, Note_on_c, 4, 60, 0
5, 6809, Note_on_c, 4, 64, 0
5, 6809, Note_on_c, 4, 67, 0
5, 6810, Note_on_c, 4, 67, 60
5, 6810, Note_on_c, 4, 60, 76
5, 6810, Note_on_c, 4, 64, 73
5, 6810, Note_on_c, 4, 57, 66
5, 6839, Note_on_c, 4, 57, 0
5, 6839, Note_on_c, 4, 60, 0
5, 6839, Note_on_c, 4, 64, 0
5, 6839, Note_on_c, 4, 67, 0
5, 6870, Note_on_c, 4, 67, 70
5, 6870, Note_on_c, 4, 60, 73
5, 6870, Note_on_c, 4, 64, 71
5, 6870, Note_on_c, 4, 57, 66
5, 6929, Note_on_c, 4, 29, 0
5, 6930, Note_on_c, 4, 36, 120
5, 6949, Note_on_c, 4, 64, 0
5, 6949, Note_on_c, 4, 57, 0
5, 6949, Note_on_c, 4, 67, 0
5, 6949, Note_on_c, 4, 60, 0
5, 6959, Note_on_c, 4, 36, 0
5, 6960, Note_on_c, 4, 67, 89
5, 6960, Note_on_c, 4, 60, 82
5, 6960, Note_on_c, 4, 63, 69
5, 6960, Note_on_c, 4, 58, 78
5, 6960, Note_on_c, 4, 41, 120
5, 7069, Note_on_c, 4, 58, 0
5, 7069, Note_on_c, 4, 63, 0
5, 7069, Note_on_c, 4, 67, 0
5, 7069, Note_on_c, 4, 60, 0
5, 7079, Note_on_c, 4, 41, 0
5, 7080, Note_on_c, 4, 63, 69
5, 7080, Note_on_c, 4, 60, 79
5, 7080, Note_on_c, 4, 67, 86
5, 7080, Note_on_c, 4, 57, 78
5, 7080, Note_on_c, 4, 29, 104
5, 7179, Note_on_c, 4, 57, 0
5, 7179, Note_on_c, 4, 67, 0
5, 7179, Note_on_c, 4, 63, 0
5, 7179, Note_on_c, 4, 60, 0
5, 7199, Note_on_c, 4, 29, 0
5, 7200, Note_on_c, 4, 65, 81
5, 7200, Note_on_c, 4, 58, 80
5, 7200, Note_on_c, 4, 62, 82
5, 7200, Note_on_c, 4, 57, 73
5, 7200, Note_on_c, 4, 34, 117
5, 7339, Note_on_c, 4, 57, 0
5, 7339, Note_on_c, 4, 62, 0
5, 7339, Note_on_c, 4, 65, 0
5, 7339, Note_on_c, 4, 58, 0
5, 7350, Note_on_c, 4, 65, 77
5, 7350, Note_on_c, 4, 58, 66
5, 7350, Note_on_c, 4, 57, 68
5, 7350, Note_on_c, 4, 62, 79
5, 7419, Note_on_c, 4, 62, 0
5, 7419, Note_on_c, 4, 58, 0
5, 7419, Note_on_c, 4, 34, 0
5, 7419, Note_on_c, 4, 65, 0
5, 7419, Note_on_c, 4, 57, 0
5, 7440, Note_on_c, 4, 34, 112
5, 7440, Note_on_c, 4, 67, 90
5, 7440, Note_on_c, 4, 62, 90
5, 7440, Note_on_c, 4, 58, 90
5, 7440, Note_on_c, 4, 64, 92
5, 7589, Note_on_c, 4, 64, 0
5, 7589, Note_on_c, 4, 62, 0
5, 7589, Note_on_c, 4, 58, 0
5, 7589, Note_on_c, 4, 67, 0
5, 7590, Note_on_c, 4, 67, 82
5, 7590, Note_on_c, 4, 62, 89
5, 7590, Note_on_c, 4, 64, 81
5, 7590, Note_on_c, 4, 58, 80
5, 7679, Note_on_c, 4, 58, 0
5, 7679, Note_on_c, 4, 62, 0
5, 7679, Note_on_c, 4, 34, 0
5, 7679, Note_on_c, 4, 67, 0
5, 7679, Note_on_c, 4, 64, 0
5, 7680, Note_on_c, 4, 60, 90
5, 7680, Note_on_c, 4, 67, 74
5, 7680, Note_on_c, 4, 64, 81
5, 7680, Note_on_c, 4, 57, 77
5, 7680, Note_on_c, 4, 33, 109
5, 7829, Note_on_c, 4, 57, 0
5, 7830, Note_on_c, 4, 57, 67
5, 7859, Note_on_c, 4, 60, 0
5, 7859, Note_on_c, 4, 33, 0
5, 7860, Note_on_c, 4, 60, 55
5, 7889, Note_on_c, 4, 60, 0
5, 7889, Note_on_c, 4, 57, 0
5, 7889, Note_on_c, 4, 64, 0
5, 7889, Note_on_c, 4, 67, 0
5, 7890, Note_on_c, 4, 64, 70
5, 7890, Note_on_c, 4, 33, 109
5, 7919, Note_on_c, 4, 33, 0
5, 7919, Note_on_c, 4, 64, 0
5, 7920, Note_on_c, 4, 62, 84
5, 7920, Note_on_c, 4, 60, 79
5, 7920, Note_on_c, 4, 65, 84
5, 7920, Note_on_c, 4, 57, 70
5, 7920, Note_on_c, 4, 38, 106
5, 8039, Note_on_c, 4, 57, 0
5, 8039, Note_on_c, 4, 65, 0
5, 8039, Note_on_c, 4, 62, 0
5, 8039, Note_on_c, 4, 60, 0
5, 8070, Note_on_c, 4, 65, 78
5, 8070, Note_on_c, 4, 62, 79
5, 8070, Note_on_c, 4, 60, 75
5, 8070, Note_on_c, 4, 57, 72
5, 8159, Note_on_c, 4, 57, 0
5, 8159, Note_on_c, 4, 62, 0
5, 8159, Note_on_c, 4, 38, 0
5, 8159, Note_on_c, 4, 65, 0
5, 8159, Note_on_c, 4, 60, 0
5, 8160, Note_on_c, 4, 58, 93
5, 8160, Note_on_c, 4, 62, 83
5, 8160, Note_on_c, 4, 55, 74
5, 8160, Note_on_c, 4, 65, 87
5, 8160, Note_on_c, 4, 31, 124
5, 8309, Note_on_c, 4, 55, 0
5, 8310, Note_on_c, 4, 55, 57
5, 8339, Note_on_c, 4, 58, 0
5, 8340, Note_on_c, 4, 58, 46
5, 8369, Note_on_c, 4, 58, 0
5, 8369, Note_on_c, 4, 55, 0
5, 8369, Note_on_c, 4, 62, 0
5, 8369, Note_on_c, 4, 65, 0
5, 8370, Note_on_c, 4, 62, 77
5, 8399, Note_on_c, 4, 62, 0
5, 8399, Note_on_c, 4, 31, 0
5, 8400, Note_on_c, 4, 58, 74
5, 8400, Note_on_c, 4, 62, 77
5, 8400, Note_on_c, 4, 65, 78
5, 8400, Note_on_c, 4, 53, 87
5, 8400, Note_on_c, 4, 29, 109
5, 8579, Note_on_c, 4, 29, 0
5, 8579, Note_on_c, 4, 65, 0
5, 8579, Note_on_c, 4, 58, 0
5, 8579, Note_on_c, 4, 62, 0
5, 8579, Note_on_c, 4, 53, 0
5, 8580, Note_on_c, 4, 41, 109
5, 8609, Note_on_c, 4, 41, 0
5, 8610, Note_on_c, 4, 36, 99
5, 8639, Note_on_c, 4, 36, 0
5, 8640, Note_on_c, 4, 62, 83
5, 8640, Note_on_c, 4, 66, 82
5, 8640, Note_on_c, 4, 57, 92
5, 8640, Note_on_c, 4, 64, 87
5, 8640, Note_on_c, 4, 28, 106
5, 8759, Note_on_c, 4, 62, 0
5, 8789, Note_on_c, 4, 64, 0
5, 8789, Note_on_c, 4, 66, 0
5, 8789, Note_on_c, 4, 57, 0
5, 8790, Note_on_c, 4, 62, 99
5, 8819, Note_on_c, 4, 62, 0
5, 8820, Note_on_c, 4, 59, 89
5, 8849, Note_on_c, 4, 59, 0
5, 8850, Note_on_c, 4, 40, 114
5, 8850, Note_on_c, 4, 59, 79
5, 8850, Note_on_c, 4, 62, 90
5, 8850, Note_on_c, 4, 64, 99
5, 8850, Note_on_c, 4, 68, 87
5, 8879, Note_on_c, 4, 28, 0
5, 8969, Note_on_c, 4, 40, 0
5, 8970, Note_on_c, 4, 56, 117
5, 9000, Note_on_c, 4, 52, 111
5, 9029, Note_on_c, 4, 56, 0
5, 9029, Note_on_c, 4, 64, 0
5, 9029, Note_on_c, 4, 59, 0
5, 9029, Note_on_c, 4, 62, 0
5, 9029, Note_on_c, 4, 68, 0
5, 9030, Note_on_c, 4, 57, 99
5, 9059, Note_on_c, 4, 57, 0
5, 9059, Note_on_c, 4, 52, 0
5, 9060, Note_on_c, 4, 59, 124
5, 9060, Note_on_c, 4, 47, 120
5, 9089, Note_on_c, 4, 47, 0
5, 9089, Note_on_c, 4, 59, 0
5, 9090, Note_on_c, 4, 40, 111
5, 9119, Note_on_c, 4, 40, 0
5, 9120, Note_on_c, 4, 56, 99
5, 9120, Note_on_c, 4, 57, 99
5, 9120, Note_on_c, 4, 64, 97
5, 9120, Note_on_c, 4, 61, 84
5, 9120, Note_on_c, 4, 45, 109
5, 9120, Note_on_c, 4, 33, 106
5, 9189, Note_on_c, 4, 61, 0
5, 9189, Note_on_c, 4, 64, 0
5, 9189, Note_on_c, 4, 56, 0
5, 9189, Note_on_c, 4, 57, 0
5, 9209, Note_on_c, 4, 33, 0
5, 9209, Note_on_c, 4, 45, 0
5, 9210, Note_on_c, 4, 59, 117
5, 9210, Note_on_c, 4, 64, 106
5, 9210, Note_on_c, 4, 56, 103
5, 9210, Note_on_c, 4, 32, 90
5, 9210, Note_on_c, 4, 44, 93
5, 9269, Note_on_c, 4, 56, 0
5, 9269, Note_on_c, 4, 59, 0
5, 9269, Note_on_c, 4, 64, 0
5, 9270, Note_on_c, 4, 59, 87
5, 9299, Note_on_c, 4, 59, 0
5, 9299, Note_on_c, 4, 32, 0
5, 9299, Note_on_c, 4, 44, 0
5, 9330, Note_on_c, 4, 57, 102
5, 9330, Note_on_c, 4, 64, 92
5, 9330, Note_on_c, 4, 42, 96
5, 9330, Note_on_c, 4, 61, 72
5, 9330, Note_on_c, 4, 54, 103
5, 9330, Note_on_c, 4, 30, 103
5, 9359, Note_on_c, 4, 30, 0
5, 9359, Note_on_c, 4, 64, 0
5, 9359, Note_on_c, 4, 42, 0
5, 9359, Note_on_c, 4, 57, 0
5, 9359, Note_on_c, 4, 54, 0
5, 9359, Note_on_c, 4, 61, 0
5, 9420, Note_on_c, 4, 63, 90
5, 9420, Note_on_c, 4, 56, 96
5, 9420, Note_on_c, 4, 58, 93
5, 9420, Note_on_c, 4, 46, 93
5, 9420, Note_on_c, 4, 53, 83
5, 9420, Note_on_c, 4, 34, 93
5, 9509, Note_on_c, 4, 34, 0
5, 9509, Note_on_c, 4, 56, 0
5, 9509, Note_on_c, 4, 58, 0
5, 9509, Note_on_c, 4, 63, 0
5, 9509, Note_on_c, 4, 53, 0
5, 9509, Note_on_c, 4, 46, 0
5, 9510, Note_on_c, 4, 61, 69
5, 9539, Note_on_c, 4, 61, 0
5, 9540, Note_on_c, 4, 60, 83
5, 9569, Note_on_c, 4, 60, 0
5, 9570, Note_on_c, 4, 58, 93
5, 9599, Note_on_c, 4, 58, 0
5, 9600, Note_on_c, 4, 44, 82
5, 9600, Note_on_c, 4, 60, 106
5, 9600, Note_on_c, 4, 32, 93
5, 9600, Note_on_c, 4, 56, 99
5, 9629, Note_on_c, 4, 56, 0
5, 9629, Note_on_c, 4, 44, 0
5, 9629, Note_on_c, 4, 60, 0
5, 9629, Note_on_c, 4, 32, 0
5, 9690, Note_on_c, 4, 61, 82
5, 9690, Note_on_c, 4, 65, 102
5, 9690, Note_on_c, 4, 60, 96
5, 9690, Note_on_c, 4, 56, 90
5, 9690, Note_on_c, 4, 49, 90
5, 9690, Note_on_c, 4, 37, 76
5, 9719, Note_on_c, 4, 37, 0
5, 9719, Note_on_c, 4, 65, 0
5, 9719, Note_on_c, 4, 60, 0
5, 9719, Note_on_c, 4, 61, 0
5, 9719, Note_on_c, 4, 49, 0
5, 9719, Note_on_c, 4, 56, 0
5, 9780, Note_on_c, 4, 61, 107
5, 9780, Note_on_c, 4, 58, 99
5, 9780, Note_on_c, 4, 46, 84
5, 9780, Note_on_c, 4, 34, 87
5, 9809, Note_on_c, 4, 34, 0
5, 9809, Note_on_c, 4, 61, 0
5, 9809, Note_on_c, 4, 58, 0
5, 9809, Note_on_c, 4, 46, 0
5, 9870, Note_on_c, 4, 61, 96
5, 9870, Note_on_c, 4, 39, 84
5, 9870, Note_on_c, 4, 51, 90
5, 9870, Note_on_c, 4, 58, 84
5, 9870, Note_on_c, 4, 63, 96
5, 9870, Note_on_c, 4, 55, 87
5, 9919, Note_on_c, 4, 55, 0
5, 9919, Note_on_c, 4, 39, 0
5, 9919, Note_on_c, 4, 51, 0
5, 9919, Note_on_c, 4, 61, 0
5, 9919, Note_on_c, 4, 63, 0
5, 9919, Note_on_c, 4, 58, 0
5, 10080, Note_on_c, 4, 41, 86
5, 10080, Note_on_c, 4, 67, 83
5, 10080, Note_on_c, 4, 29, 102
5, 10080, Note_on_c, 4, 60, 79
5, 10080, Note_on_c, 4, 57, 72
5, 10080, Note_on_c, 4, 64, 82
5, 10109, Note_on_c, 4, 64, 0
5, 10109, Note_on_c, 4, 67, 0
5, 10109, Note_on_c, 4, 29, 0
5, 10109, Note_on_c, 4, 41, 0
5, 10109, Note_on_c, 4, 57, 0
5, 10109, Note_on_c, 4, 60, 0
5, 10110, Note_on_c, 4, 67, 34
5, 10110, Note_on_c, 4, 64, 55
5, 10110, Note_on_c, 4, 57, 35
5, 10110, Note_on_c, 4, 60, 51
5, 10139, Note_on_c, 4, 60, 0
5, 10139, Note_on_c, 4, 67, 0
5, 10139, Note_on_c, 4, 64, 0
5, 10139, Note_on_c, 4, 57, 0
5, 10140, Note_on_c, 4, 65, 52
5, 10140, Note_on_c, 4, 62, 56
5, 10140, Note_on_c, 4, 57, 52
5, 10140, Note_on_c, 4, 60, 62
5, 10169, Note_on_c, 4, 60, 0
5, 10169, Note_on_c, 4, 65, 0
5, 10169, Note_on_c, 4, 62, 0
5, 10169, Note_on_c, 4, 57, 0
5, 10170, Note_on_c, 4, 60, 74
5, 10170, Note_on_c, 4, 67, 74
5, 10170, Note_on_c, 4, 64, 75
5, 10170, Note_on_c, 4, 57, 62
5, 10199, Note_on_c, 4, 57, 0
5, 10199, Note_on_c, 4, 60, 0
5, 10199, Note_on_c, 4, 67, 0
5, 10199, Note_on_c, 4, 64, 0
5, 10230, Note_on_c, 4, 57, 68
5, 10230, Note_on_c, 4, 62, 78
5, 10230, Note_on_c, 4, 65, 75
5, 10230, Note_on_c, 4, 60, 79
5, 10259, Note_on_c, 4, 60, 0
5, 10259, Note_on_c, 4, 57, 0
5, 10259, Note_on_c, 4, 62, 0
5, 10259, Note_on_c, 4, 65, 0
5, 10260, Note_on_c, 4, 57, 52
5, 10289, Note_on_c, 4, 57, 0
5, 10290, Note_on_c, 4, 33, 79
5, 10290, Note_on_c, 4, 45, 64
5, 10319, Note_on_c, 4, 45, 0
5, 10319, Note_on_c, 4, 33, 0
5, 10320, Note_on_c, 4, 46, 84
5, 10320, Note_on_c, 4, 34, 107
5, 10320, Note_on_c, 4, 58, 76
5, 10320, Note_on_c, 4, 55, 72
5, 10320, Note_on_c, 4, 60, 77
5, 10320, Note_on_c, 4, 64, 82
5, 10349, Note_on_c, 4, 64, 0
5, 10349, Note_on_c, 4, 34, 0
5, 10349, Note_on_c, 4, 58, 0
5, 10349, Note_on_c, 4, 46, 0
5, 10349, Note_on_c, 4, 60, 0
5, 10349, Note_on_c, 4, 55, 0
5, 10350, Note_on_c, 4, 58, 46
5, 10350, Note_on_c, 4, 55, 60
5, 10350, Note_on_c, 4, 64, 51
5, 10350, Note_on_c, 4, 60, 49
5, 10379, Note_on_c, 4, 60, 0
5, 10379, Note_on_c, 4, 58, 0
5, 10379, Note_on_c, 4, 55, 0
5, 10379, Note_on_c, 4, 64, 0
5, 10380, Note_on_c, 4, 62, 63
5, 10380, Note_on_c, 4, 58, 40
5, 10380, Note_on_c, 4, 53, 59
5, 10409, Note_on_c, 4, 53, 0
5, 10409, Note_on_c, 4, 58, 0
5, 10409, Note_on_c, 4, 62, 0
5, 10410, Note_on_c, 4, 58, 54
5, 10410, Note_on_c, 4, 55, 82
5, 10410, Note_on_c, 4, 64, 78
5, 10410, Note_on_c, 4, 60, 67
5, 10439, Note_on_c, 4, 60, 0
5, 10439, Note_on_c, 4, 58, 0
5, 10439, Note_on_c, 4, 55, 0
5, 10439, Note_on_c, 4, 64, 0
5, 10470, Note_on_c, 4, 58, 66
5, 10470, Note_on_c, 4, 53, 78
5, 10470, Note_on_c, 4, 62, 84
5, 10499, Note_on_c, 4, 53, 0
5, 10499, Note_on_c, 4, 58, 0
5, 10500, Note_on_c, 4, 53, 51
5, 10529, Note_on_c, 4, 53, 0
5, 10529, Note_on_c, 4, 62, 0
5, 10530, Note_on_c, 4, 58, 50
5, 10530, Note_on_c, 4, 34, 47
5, 10530, Note_on_c, 4, 46, 47
5, 10559, Note_on_c, 4, 46, 0
5, 10559, Note_on_c, 4, 34, 0
5, 10559, Note_on_c, 4, 58, 0
5, 10560, Note_on_c, 4, 57, 89
5, 10560, Note_on_c, 4, 45, 81
5, 10560, Note_on_c, 4, 64, 79
5, 10560, Note_on_c, 4, 60, 83
5, 10560, Note_on_c, 4, 33, 87
5, 10560, Note_on_c, 4, 55, 78
5, 10589, Note_on_c, 4, 55, 0
5, 10589, Note_on_c, 4, 45, 0
5, 10589, Note_on_c, 4, 64, 0
5, 10589, Note_on_c, 4, 57, 0
5, 10589, Note_on_c, 4, 33, 0
5, 10589, Note_on_c, 4, 60, 0
5, 10590, Note_on_c, 4, 64, 38
5, 10590, Note_on_c, 4, 60, 51
5, 10590, Note_on_c, 4, 57, 54
5, 10590, Note_on_c, 4, 55, 37
5, 10619, Note_on_c, 4, 55, 0
5, 10619, Note_on_c, 4, 64, 0
5, 10619, Note_on_c, 4, 60, 0
5, 10619, Note_on_c, 4, 57, 0
5, 10620, Note_on_c, 4, 62, 71
5, 10620, Note_on_c, 4, 55, 59
5, 10620, Note_on_c, 4, 57, 60
5, 10649, Note_on_c, 4, 57, 0
5, 10649, Note_on_c, 4, 55, 0
5, 10649, Note_on_c, 4, 62, 0
5, 10650, Note_on_c, 4, 64, 74
5, 10650, Note_on_c, 4, 57, 79
5, 10650, Note_on_c, 4, 60, 70
5, 10650, Note_on_c, 4, 55, 66
5, 10679, Note_on_c, 4, 55, 0
5, 10679, Note_on_c, 4, 64, 0
5, 10679, Note_on_c, 4, 57, 0
5, 10679, Note_on_c, 4, 60, 0
5, 10710, Note_on_c, 4, 57, 74
5, 10710, Note_on_c, 4, 55, 70
5, 10710, Note_on_c, 4, 62, 86
5, 10739, Note_on_c, 4, 55, 0
5, 10739, Note_on_c, 4, 57, 0
5, 10740, Note_on_c, 4, 55, 60
5, 10769, Note_on_c, 4, 55, 0
5, 10769, Note_on_c, 4, 62, 0
5, 10770, Note_on_c, 4, 33, 68
5, 10770, Note_on_c, 4, 57, 63
5, 10770, Note_on_c, 4, 45, 57
5, 10799, Note_on_c, 4, 45, 0
5, 10799, Note_on_c, 4, 57, 0
5, 10799, Note_on_c, 4, 33, 0
5, 10800, Note_on_c, 4, 57, 89
5, 10800, Note_on_c, 4, 64, 81
5, 10800, Note_on_c, 4, 60, 84
5, 10800, Note_on_c, 4, 55, 82
5, 10800, Note_on_c, 4, 38, 96
5, 10800, Note_on_c, 4, 50, 87
5, 10829, Note_on_c, 4, 50, 0
5, 10829, Note_on_c, 4, 64, 0
5, 10829, Note_on_c, 4, 60, 0
5, 10829, Note_on_c, 4, 57, 0
5, 10829, Note_on_c, 4, 38, 0
5, 10829, Note_on_c, 4, 55, 0
5, 10830, Note_on_c, 4, 64, 51
5, 10830, Note_on_c, 4, 57, 59
5, 10830, Note_on_c, 4, 60, 54
5, 10830, Note_on_c, 4, 55, 49
5, 10859, Note_on_c, 4, 55, 0
5, 10859, Note_on_c, 4, 64, 0
5, 10859, Note_on_c, 4, 57, 0
5, 10859, Note_on_c, 4, 60, 0
5, 10860, Note_on_c, 4, 55, 65
5, 10860, Note_on_c, 4, 57, 59
5, 10860, Note_on_c, 4, 64, 57
5, 10860, Note_on_c, 4, 60, 55
5, 10889, Note_on_c, 4, 60, 0
5, 10889, Note_on_c, 4, 55, 0
5, 10889, Note_on_c, 4, 57, 0
5, 10889, Note_on_c, 4, 64, 0
5, 10890, Note_on_c, 4, 62, 75
5, 10890, Note_on_c, 4, 65, 74
5, 10890, Note_on_c, 4, 60, 82
5, 10890, Note_on_c, 4, 57, 79
5, 10919, Note_on_c, 4, 57, 0
5, 10919, Note_on_c, 4, 62, 0
5, 10919, Note_on_c, 4, 65, 0
5, 10919, Note_on_c, 4, 60, 0
5, 10950, Note_on_c, 4, 65, 83
5, 10950, Note_on_c, 4, 57, 73
5, 10950, Note_on_c, 4, 60, 99
5, 10950, Note_on_c, 4, 62, 94
5, 10979, Note_on_c, 4, 60, 0
5, 10979, Note_on_c, 4, 57, 0
5, 10980, Note_on_c, 4, 57, 63
5, 11009, Note_on_c, 4, 57, 0
5, 11009, Note_on_c, 4, 65, 0
5, 11009, Note_on_c, 4, 62, 0
5, 11010, Note_on_c, 4, 38, 66
5, 11010, Note_on_c, 4, 50, 56
5, 11010, Note_on_c, 4, 60, 70
5, 11039, Note_on_c, 4, 60, 0
5, 11039, Note_on_c, 4, 50, 0
5, 11039, Note_on_c, 4, 38, 0
5, 11040, Note_on_c, 4, 65, 86
5, 11040, Note_on_c, 4, 58, 96
5, 11040, Note_on_c, 4, 62, 94
5, 11040, Note_on_c, 4, 55, 96
5, 11040, Note_on_c, 4, 43, 77
5, 11040, Note_on_c, 4, 31, 90
5, 11129, Note_on_c, 4, 43, 0
5, 11160, Note_on_c, 4, 43, 60
5, 11189, Note_on_c, 4, 55, 0
5, 11189, Note_on_c, 4, 31, 0
5, 11220, Note_on_c, 4, 55, 59
5, 11229, Note_on_c, 4, 62, 0
5, 11229, Note_on_c, 4, 58, 0
5, 11249, Note_on_c, 4, 65, 0
5, 11249, Note_on_c, 4, 43, 0
5, 11249, Note_on_c, 4, 55, 0
5, 11250, Note_on_c, 4, 31, 55
5, 11279, Note_on_c, 4, 31, 0
5, 11280, Note_on_c, 4, 62, 90
5, 11280, Note_on_c, 4, 65, 92
5, 11280, Note_on_c, 4, 69, 87
5, 11280, Note_on_c, 4, 58, 96
5, 11280, Note_on_c, 4, 34, 93
5, 11280, Note_on_c, 4, 46, 62
5, 11379, Note_on_c, 4, 46, 0
5, 11379, Note_on_c, 4, 65, 0
5, 11379, Note_on_c, 4, 69, 0
5, 11379, Note_on_c, 4, 62, 0
5, 11379, Note_on_c, 4, 58, 0
5, 11399, Note_on_c, 4, 34, 0
5, 11400, Note_on_c, 4, 67, 83
5, 11400, Note_on_c, 4, 64, 92
5, 11400, Note_on_c, 4, 57, 76
5, 11400, Note_on_c, 4, 60, 99
5, 11400, Note_on_c, 4, 33, 74
5, 11400, Note_on_c, 4, 45, 86
5, 11499, Note_on_c, 4, 45, 0
5, 11499, Note_on_c, 4, 64, 0
5, 11499, Note_on_c, 4, 57, 0
5, 11499, Note_on_c, 4, 67, 0
5, 11499, Note_on_c, 4, 60, 0
5, 11519, Note_on_c, 4, 33, 0
5, 11520, Note_on_c, 4, 65, 89
5, 11520, Note_on_c, 4, 60, 77
5, 11520, Note_on_c, 4, 57, 67
5, 11520, Note_on_c, 4, 62, 92
5, 11520, Note_on_c, 4, 50, 82
5, 11520, Note_on_c, 4, 38, 77
5, 11639, Note_on_c, 4, 50, 0
5, 11640, Note_on_c, 4, 50, 57
5, 11699, Note_on_c, 4, 50, 0
5, 11699, Note_on_c, 4, 60, 0
5, 11699, Note_on_c, 4, 62, 0
5, 11729, Note_on_c, 4, 65, 0
5, 11729, Note_on_c, 4, 57, 0
5, 11729, Note_on_c, 4, 38, 0
5, 11730, Note_on_c, 4, 59, 96
5, 11730, Note_on_c, 4, 62, 109
5, 11730, Note_on_c, 4, 65, 109
5, 11730, Note_on_c, 4, 69, 89
5, 11730, Note_on_c, 4, 71, 94
5, 11730, Note_on_c, 4, 47, 81
5, 11730, Note_on_c, 4, 35, 106
5, 11759, Note_on_c, 4, 71, 0
5, 11759, Note_on_c, 4, 69, 0
5, 11790, Note_on_c, 4, 69, 49
5, 11909, Note_on_c, 4, 69, 0
5, 11909, Note_on_c, 4, 35, 0
5, 11909, Note_on_c, 4, 65, 0
5, 11909, Note_on_c, 4, 59, 0
5, 11909, Note_on_c, 4, 62, 0
5, 11909, Note_on_c, 4, 47, 0
5, 11940, Note_on_c, 4, 61, 90
5, 11940, Note_on_c, 4, 68, 84
5, 11940, Note_on_c, 4, 65, 99
5, 11940, Note_on_c, 4, 58, 99
5, 11940, Note_on_c, 4, 34, 87
5, 11940, Note_on_c, 4, 46, 90
5, 12299, Note_on_c, 4, 46, 0
5, 12299, Note_on_c, 4, 68, 0
5, 12299, Note_on_c, 4, 65, 0
5, 12299, Note_on_c, 4, 61, 0
5, 12299, Note_on_c, 4, 34, 0
5, 12299, Note_on_c, 4, 58, 0
5, 12360, Note_on_c, 4, 70, 107
5, 12360, Note_on_c, 4, 66, 96
5, 12360, Note_on_c, 4, 60, 97
5, 12360, Note_on_c, 4, 63, 107
5, 12360, Note_on_c, 4, 32, 96
5, 12360, Note_on_c, 4, 44, 107
5, 12449, Note_on_c, 4, 63, 0
5, 12449, Note_on_c, 4, 60, 0
5, 12449, Note_on_c, 4, 70, 0
5, 12449, Note_on_c, 4, 66, 0
5, 12479, Note_on_c, 4, 44, 0
5, 12479, Note_on_c, 4, 32, 0
5, 12480, Note_on_c, 4, 31, 102
5, 12480, Note_on_c, 4, 65, 83
5, 12480, Note_on_c, 4, 58, 76
5, 12480, Note_on_c, 4, 69, 106
5, 12480, Note_on_c, 4, 43, 109
5, 12480, Note_on_c, 4, 62, 81
5, 12569, Note_on_c, 4, 69, 0
5, 12629, Note_on_c, 4, 65, 0
5, 12629, Note_on_c, 4, 58, 0
5, 12629, Note_on_c, 4, 31, 0
5, 12629, Note_on_c, 4, 62, 0
5, 12629, Note_on_c, 4, 43, 0
5, 12630, Note_on_c, 4, 76, 120
5, 12630, Note_on_c, 4, 69, 37
5, 12659, Note_on_c, 4, 69, 0
5, 12659, Note_on_c, 4, 76, 0
5, 12660, Note_on_c, 4, 77, 127
5, 12689, Note_on_c, 4, 77, 0
5, 12690, Note_on_c, 4, 78, 120
5, 12719, Note_on_c, 4, 78, 0
5, 12720, Note_on_c, 4, 67, 90
5, 12720, Note_on_c, 4, 79, 120
5, 12720, Note_on_c, 4, 60, 83
5, 12720, Note_on_c, 4, 64, 87
5, 12720, Note_on_c, 4, 57, 75
5, 12749, Note_on_c, 4, 79, 0
5, 12750, Note_on_c, 4, 77, 120
5, 12779, Note_on_c, 4, 77, 0
5, 12780, Note_on_c, 4, 72, 110
5, 12809, Note_on_c, 4, 72, 0
5, 12810, Note_on_c, 4, 73, 84
5, 12810, Note_on_c, 4, 74, 120
5, 12829, Note_on_c, 4, 73, 0
5, 12839, Note_on_c, 4, 64, 0
5, 12839, Note_on_c, 4, 57, 0
5, 12839, Note_on_c, 4, 67, 0
5, 12839, Note_on_c, 4, 60, 0
5, 12870, Note_on_c, 4, 67, 85
5, 12870, Note_on_c, 4, 64, 87
5, 12870, Note_on_c, 4, 60, 89
5, 12870, Note_on_c, 4, 57, 83
5, 12899, Note_on_c, 4, 57, 0
5, 12899, Note_on_c, 4, 64, 0
5, 12899, Note_on_c, 4, 60, 0
5, 12899, Note_on_c, 4, 67, 0
5, 12960, Note_on_c, 4, 62, 84
5, 12960, Note_on_c, 4, 55, 86
5, 12960, Note_on_c, 4, 58, 83
5, 12960, Note_on_c, 4, 65, 87
5, 13139, Note_on_c, 4, 65, 0
5, 13139, Note_on_c, 4, 55, 0
5, 13139, Note_on_c, 4, 74, 0
5, 13139, Note_on_c, 4, 62, 0
5, 13139, Note_on_c, 4, 58, 0
5, 13140, Note_on_c, 4, 79, 127
5, 13169, Note_on_c, 4, 79, 0
5, 13170, Note_on_c, 4, 81, 120
5, 13199, Note_on_c, 4, 81, 0
5, 13200, Note_on_c, 4, 64, 85
5, 13200, Note_on_c, 4, 67, 87
5, 13200, Note_on_c, 4, 60, 85
5, 13200, Note_on_c, 4, 57, 87
5, 13230, Note_on_c, 4, 72, 120
5, 13259, Note_on_c, 4, 72, 0
5, 13290, Note_on_c, 4, 84, 120
5, 13290, Note_on_c, 4, 83, 79
5, 13309, Note_on_c, 4, 83, 0
5, 13319, Note_on_c, 4, 67, 0
5, 13319, Note_on_c, 4, 57, 0
5, 13319, Note_on_c, 4, 64, 0
5, 13319, Note_on_c, 4, 60, 0
5, 13349, Note_on_c, 4, 84, 0
5, 13350, Note_on_c, 4, 57, 87
5, 13350, Note_on_c, 4, 60, 87
5, 13350, Note_on_c, 4, 64, 87
5, 13350, Note_on_c, 4, 67, 87
5, 13379, Note_on_c, 4, 67, 0
5, 13379, Note_on_c, 4, 57, 0
5, 13379, Note_on_c, 4, 60, 0
5, 13379, Note_on_c, 4, 64, 0
5, 13380, Note_on_c, 4, 72, 115
5, 13409, Note_on_c, 4, 72, 0
5, 13410, Note_on_c, 4, 74, 120
5, 13439, Note_on_c, 4, 74, 0
5, 13440, Note_on_c, 4, 65, 87
5, 13440, Note_on_c, 4, 62, 85
5, 13440, Note_on_c, 4, 58, 87
5, 13440, Note_on_c, 4, 55, 86
5, 13470, Note_on_c, 4, 77, 123
5, 13559, Note_on_c, 4, 55, 0
5, 13559, Note_on_c, 4, 58, 0
5, 13559, Note_on_c, 4, 65, 0
5, 13559, Note_on_c, 4, 62, 0
5, 13590, Note_on_c, 4, 58, 87
5, 13590, Note_on_c, 4, 62, 87
5, 13590, Note_on_c, 4, 55, 84
5, 13590, Note_on_c, 4, 65, 86
5, 13619, Note_on_c, 4, 65, 0
5, 13619, Note_on_c, 4, 62, 0
5, 13619, Note_on_c, 4, 55, 0
5, 13619, Note_on_c, 4, 58, 0
5, 13659, Note_on_c, 4, 77, 0
5, 13680, Note_on_c, 4, 67, 85
5, 13680, Note_on_c, 4, 57, 86
5, 13680, Note_on_c, 4, 64, 87
5, 13680, Note_on_c, 4, 60, 84
5, 13710, Note_on_c, 4, 81, 120
5, 13739, Note_on_c, 4, 81, 0
5, 13740, Note_on_c, 4, 88, 127
5, 13740, Note_on_c, 4, 87, 93
5, 13759, Note_on_c, 4, 87, 0
5, 13769, Note_on_c, 4, 88, 0
5, 13770, Note_on_c, 4, 86, 122
5, 13799, Note_on_c, 4, 86, 0
5, 13799, Note_on_c, 4, 64, 0
5, 13799, Note_on_c, 4, 67, 0
5, 13799, Note_on_c, 4, 57, 0
5, 13799, Note_on_c, 4, 60, 0
5, 13800, Note_on_c, 4, 84, 123
5, 13829, Note_on_c, 4, 84, 0
5, 13830, Note_on_c, 4, 57, 85
5, 13830, Note_on_c, 4, 60, 85
5, 13830, Note_on_c, 4, 64, 85
5, 13830, Note_on_c, 4, 67, 87
5, 13830, Note_on_c, 4, 79, 120
5, 13859, Note_on_c, 4, 79, 0
5, 13859, Note_on_c, 4, 64, 0
5, 13859, Note_on_c, 4, 57, 0
5, 13859, Note_on_c, 4, 60, 0
5, 13859, Note_on_c, 4, 67, 0
5, 13860, Note_on_c, 4, 80, 127
5, 13860, Note_on_c, 4, 81, 120
5, 13879, Note_on_c, 4, 80, 0
5, 13889, Note_on_c, 4, 81, 0
5, 13890, Note_on_c, 4, 84, 124
5, 13890, Note_on_c, 4, 81, 110
5, 13920, Note_on_c, 4, 58, 81
5, 13920, Note_on_c, 4, 65, 88
5, 13920, Note_on_c, 4, 55, 81
5, 13920, Note_on_c, 4, 62, 84
5, 14039, Note_on_c, 4, 81, 0
5, 14039, Note_on_c, 4, 84, 0
5, 14070, Note_on_c, 4, 76, 120
5, 14099, Note_on_c, 4, 76, 0
5, 14100, Note_on_c, 4, 77, 120
5, 14129, Note_on_c, 4, 77, 0
5, 14129, Note_on_c, 4, 55, 0
5, 14129, Note_on_c, 4, 65, 0
5, 14129, Note_on_c, 4, 62, 0
5, 14129, Note_on_c, 4, 58, 0
5, 14130, Note_on_c, 4, 78, 120
5, 14159, Note_on_c, 4, 78, 0
5, 14160, Note_on_c, 4, 64, 85
5, 14160, Note_on_c, 4, 57, 80
5, 14160, Note_on_c, 4, 67, 90
5, 14160, Note_on_c, 4, 60, 86
5, 14160, Note_on_c, 4, 79, 120
5, 14189, Note_on_c, 4, 79, 0
5, 14190, Note_on_c, 4, 81, 120
5, 14219, Note_on_c, 4, 81, 0
5, 14220, Note_on_c, 4, 72, 120
5, 14249, Note_on_c, 4, 72, 0
5, 14250, Note_on_c, 4, 74, 127
5, 14279, Note_on_c, 4, 67, 0
5, 14279, Note_on_c, 4, 60, 0
5, 14279, Note_on_c, 4, 64, 0
5, 14279, Note_on_c, 4, 57, 0
5, 14309, Note_on_c, 4, 74, 0
5, 14310, Note_on_c, 4, 67, 121
5, 14310, Note_on_c, 4, 64, 110
5, 14310, Note_on_c, 4, 60, 62
5, 14310, Note_on_c, 4, 57, 63
5, 14339, Note_on_c, 4, 57, 0
5, 14339, Note_on_c, 4, 67, 0
5, 14339, Note_on_c, 4, 64, 0
5, 14339, Note_on_c, 4, 60, 0
5, 14340, Note_on_c, 4, 72, 124
5, 14340, Note_on_c, 4, 69, 124
5, 14400, Note_on_c, 4, 55, 87
5, 14400, Note_on_c, 4, 58, 84
5, 14400, Note_on_c, 4, 62, 86
5, 14400, Note_on_c, 4, 65, 86
5, 14519, Note_on_c, 4, 69, 0
5, 14519, Note_on_c, 4, 72, 0
5, 14580, Note_on_c, 4, 74, 115
5, 14580, Note_on_c, 4, 86, 115
5, 14609, Note_on_c, 4, 86, 0
5, 14609, Note_on_c, 4, 65, 0
5, 14609, Note_on_c, 4, 55, 0
5, 14609, Note_on_c, 4, 58, 0
5, 14609, Note_on_c, 4, 74, 0
5, 14609, Note_on_c, 4, 62, 0
5, 14610, Note_on_c, 4, 77, 115
5, 14610, Note_on_c, 4, 89, 115
5, 14639, Note_on_c, 4, 89, 0
5, 14639, Note_on_c, 4, 77, 0
5, 14640, Note_on_c, 4, 64, 85
5, 14640, Note_on_c, 4, 67, 88
5, 14640, Note_on_c, 4, 60, 81
5, 14640, Note_on_c, 4, 57, 85
5, 14670, Note_on_c, 4, 86, 115
5, 14670, Note_on_c, 4, 74, 115
5, 14699, Note_on_c, 4, 67, 0
5, 14729, Note_on_c, 4, 86, 0
5, 14729, Note_on_c, 4, 74, 0
5, 14730, Note_on_c, 4, 67, 90
5, 14760, Note_on_c, 4, 72, 115
5, 14760, Note_on_c, 4, 84, 101
5, 14789, Note_on_c, 4, 84, 0
5, 14789, Note_on_c, 4, 57, 0
5, 14789, Note_on_c, 4, 64, 0
5, 14789, Note_on_c, 4, 60, 0
5, 14789, Note_on_c, 4, 72, 0
5, 14789, Note_on_c, 4, 67, 0
5, 14790, Note_on_c, 4, 74, 102
5, 14790, Note_on_c, 4, 86, 115
5, 14820, Note_on_c, 4, 67, 88
5, 14820, Note_on_c, 4, 64, 84
5, 14820, Note_on_c, 4, 60, 80
5, 14820, Note_on_c, 4, 57, 81
5, 14849, Note_on_c, 4, 57, 0
5, 14849, Note_on_c, 4, 64, 0
5, 14849, Note_on_c, 4, 67, 0
5, 14849, Note_on_c, 4, 60, 0
5, 14880, Note_on_c, 4, 62, 86
5, 14880, Note_on_c, 4, 65, 88
5, 14880, Note_on_c, 4, 58, 88
5, 14880, Note_on_c, 4, 55, 86
5, 15029, Note_on_c, 4, 74, 0
5, 15029, Note_on_c, 4, 86, 0
5, 15060, Note_on_c, 4, 74, 115
5, 15060, Note_on_c, 4, 86, 115
5, 15089, Note_on_c, 4, 86, 0
5, 15089, Note_on_c, 4, 55, 0
5, 15089, Note_on_c, 4, 62, 0
5, 15089, Note_on_c, 4, 65, 0
5, 15089, Note_on_c, 4, 74, 0
5, 15089, Note_on_c, 4, 58, 0
5, 15090, Note_on_c, 4, 79, 115
5, 15090, Note_on_c, 4, 91, 115
5, 15119, Note_on_c, 4, 91, 0
5, 15119, Note_on_c, 4, 79, 0
5, 15120, Note_on_c, 4, 64, 84
5, 15120, Note_on_c, 4, 60, 87
5, 15120, Note_on_c, 4, 67, 85
5, 15120, Note_on_c, 4, 57, 87
5, 15150, Note_on_c, 4, 89, 115
5, 15150, Note_on_c, 4, 77, 115
5, 15179, Note_on_c, 4, 77, 0
5, 15179, Note_on_c, 4, 89, 0
5, 15180, Note_on_c, 4, 84, 115
5, 15180, Note_on_c, 4, 72, 115
5, 15209, Note_on_c, 4, 72, 0
5, 15209, Note_on_c, 4, 84, 0
5, 15239, Note_on_c, 4, 57, 0
5, 15239, Note_on_c, 4, 64, 0
5, 15239, Note_on_c, 4, 60, 0
5, 15239, Note_on_c, 4, 67, 0
5, 15240, Note_on_c, 4, 84, 115
5, 15240, Note_on_c, 4, 72, 115
5, 15269, Note_on_c, 4, 72, 0
5, 15269, Note_on_c, 4, 84, 0
5, 15270, Note_on_c, 4, 57, 88
5, 15270, Note_on_c, 4, 60, 88
5, 15270, Note_on_c, 4, 64, 88
5, 15270, Note_on_c, 4, 67, 88
5, 15270, Note_on_c, 4, 86, 115
5, 15270, Note_on_c, 4, 74, 115
5, 15299, Note_on_c, 4, 74, 0
5, 15299, Note_on_c, 4, 60, 0
5, 15299, Note_on_c, 4, 64, 0
5, 15299, Note_on_c, 4, 57, 0
5, 15299, Note_on_c, 4, 86, 0
5, 15299, Note_on_c, 4, 67, 0
5, 15330, Note_on_c, 4, 74, 115
5, 15330, Note_on_c, 4, 80, 112
5, 15330, Note_on_c, 4, 81, 127
5, 15349, Note_on_c, 4, 80, 0
5, 15360, Note_on_c, 4, 62, 86
5, 15360, Note_on_c, 4, 58, 80
5, 15360, Note_on_c, 4, 65, 84
5, 15360, Note_on_c, 4, 55, 84
5, 15389, Note_on_c, 4, 81, 0
5, 15389, Note_on_c, 4, 74, 0
5, 15390, Note_on_c, 4, 79, 120
5, 15419, Note_on_c, 4, 79, 0
5, 15420, Note_on_c, 4, 77, 120
5, 15449, Note_on_c, 4, 77, 0
5, 15450, Note_on_c, 4, 74, 120
5, 15479, Note_on_c, 4, 74, 0
5, 15479, Note_on_c, 4, 62, 0
5, 15479, Note_on_c, 4, 58, 0
5, 15479, Note_on_c, 4, 55, 0
5, 15479, Note_on_c, 4, 65, 0
5, 15480, Note_on_c, 4, 76, 127
5, 15480, Note_on_c, 4, 75, 72
5, 15499, Note_on_c, 4, 75, 0
5, 15509, Note_on_c, 4, 76, 0
5, 15510, Note_on_c, 4, 55, 78
5, 15510, Note_on_c, 4, 58, 81
5, 15510, Note_on_c, 4, 62, 89
5, 15510, Note_on_c, 4, 65, 86
5, 15510, Note_on_c, 4, 74, 120
5, 15539, Note_on_c, 4, 74, 0
5, 15539, Note_on_c, 4, 62, 0
5, 15539, Note_on_c, 4, 55, 0
5, 15539, Note_on_c, 4, 58, 0
5, 15539, Note_on_c, 4, 65, 0
5, 15540, Note_on_c, 4, 72, 120
5, 15569, Note_on_c, 4, 72, 0
5, 15570, Note_on_c, 4, 67, 120
5, 15599, Note_on_c, 4, 67, 0
5, 15600, Note_on_c, 4, 69, 120
5, 15600, Note_on_c, 4, 64, 123
5, 15600, Note_on_c, 4, 60, 69
5, 15600, Note_on_c, 4, 57, 88
5, 15629, Note_on_c, 4, 60, 0
5, 15629, Note_on_c, 4, 69, 0
5, 15629, Note_on_c, 4, 64, 0
5, 15630, Note_on_c, 4, 60, 120
5, 15689, Note_on_c, 4, 60, 0
5, 15690, Note_on_c, 4, 62, 120
5, 15749, Note_on_c, 4, 62, 0
5, 15749, Note_on_c, 4, 57, 0
5, 15750, Note_on_c, 4, 57, 79
5, 15750, Note_on_c, 4, 64, 120
5, 15779, Note_on_c, 4, 57, 0
5, 15809, Note_on_c, 4, 64, 0
5, 15810, Note_on_c, 4, 65, 120
5, 15840, Note_on_c, 4, 58, 90
5, 15840, Note_on_c, 4, 55, 86
5, 15840, Note_on_c, 4, 62, 93
5, 15869, Note_on_c, 4, 65, 0
5, 15870, Note_on_c, 4, 67, 121
5, 15929, Note_on_c, 4, 67, 0
5, 15930, Note_on_c, 4, 69, 120
5, 15960, Note_on_c, 4, 65, 83
5, 15989, Note_on_c, 4, 69, 0
5, 15990, Note_on_c, 4, 72, 119
5, 16019, Note_on_c, 4, 72, 0
5, 16019, Note_on_c, 4, 55, 0
5, 16020, Note_on_c, 4, 74, 120
5, 16049, Note_on_c, 4, 74, 0
5, 16049, Note_on_c, 4, 65, 0
5, 16049, Note_on_c, 4, 58, 0
5, 16049, Note_on_c, 4, 62, 0
5, 16050, Note_on_c, 4, 76, 81
5, 16079, Note_on_c, 4, 76, 0
5, 16080, Note_on_c, 4, 72, 105
5, 16080, Note_on_c, 4, 76, 106
5, 16080, Note_on_c, 4, 79, 110
5, 16080, Note_on_c, 4, 69, 79
5, 16080, Note_on_c, 4, 67, 96
5, 16080, Note_on_c, 4, 64, 109
5, 16080, Note_on_c, 4, 57, 83
5, 16080, Note_on_c, 4, 60, 102
5, 16109, Note_on_c, 4, 60, 0
5, 16109, Note_on_c, 4, 72, 0
5, 16109, Note_on_c, 4, 67, 0
5, 16109, Note_on_c, 4, 76, 0
5, 16109, Note_on_c, 4, 79, 0
5, 16109, Note_on_c, 4, 69, 0
5, 16109, Note_on_c, 4, 64, 0
5, 16109, Note_on_c, 4, 57, 0
5, 16110, Note_on_c, 4, 64, 78
5, 16110, Note_on_c, 4, 57, 63
5, 16110, Note_on_c, 4, 67, 74
5, 16110, Note_on_c, 4, 72, 108
5, 16110, Note_on_c, 4, 60, 79
5, 16110, Note_on_c, 4, 79, 110
5, 16110, Note_on_c, 4, 76, 109
5, 16110, Note_on_c, 4, 69, 70
5, 16139, Note_on_c, 4, 69, 0
5, 16139, Note_on_c, 4, 64, 0
5, 16139, Note_on_c, 4, 60, 0
5, 16139, Note_on_c, 4, 57, 0
5, 16139, Note_on_c, 4, 67, 0
5, 16139, Note_on_c, 4, 72, 0
5, 16139, Note_on_c, 4, 79, 0
5, 16139, Note_on_c, 4, 76, 0
5, 16140, Note_on_c, 4, 57, 71
5, 16140, Note_on_c, 4, 74, 110
5, 16140, Note_on_c, 4, 72, 114
5, 16140, Note_on_c, 4, 69, 82
5, 16140, Note_on_c, 4, 77, 111
5, 16140, Note_on_c, 4, 65, 96
5, 16140, Note_on_c, 4, 62, 114
5, 16289, Note_on_c, 4, 62, 0
5, 16289, Note_on_c, 4, 77, 0
5, 16289, Note_on_c, 4, 74, 0
5, 16289, Note_on_c, 4, 72, 0
5, 16289, Note_on_c, 4, 57, 0
5, 16289, Note_on_c, 4, 65, 0
5, 16289, Note_on_c, 4, 69, 0
5, 16320, Note_on_c, 4, 65, 89
5, 16320, Note_on_c, 4, 58, 90
5, 16320, Note_on_c, 4, 62, 94
5, 16320, Note_on_c, 4, 55, 89
5, 16320, Note_on_c, 4, 43, 89
5, 16320, Note_on_c, 4, 31, 94
5, 16419, Note_on_c, 4, 31, 0
5, 16419, Note_on_c, 4, 58, 0
5, 16419, Note_on_c, 4, 62, 0
5, 16419, Note_on_c, 4, 65, 0
5, 16419, Note_on_c, 4, 43, 0
5, 16419, Note_on_c, 4, 55, 0
5, 16440, Note_on_c, 4, 33, 82
5, 16440, Note_on_c, 4, 45, 94
5, 16440, Note_on_c, 4, 60, 102
5, 16440, Note_on_c, 4, 64, 99
5, 16440, Note_on_c, 4, 57, 87
5, 16440, Note_on_c, 4, 67, 92
5, 16539, Note_on_c, 4, 67, 0
5, 16539, Note_on_c, 4, 45, 0
5, 16539, Note_on_c, 4, 60, 0
5, 16539, Note_on_c, 4, 33, 0
5, 16539, Note_on_c, 4, 57, 0
5, 16539, Note_on_c, 4, 64, 0
5, 16560, Note_on_c, 4, 62, 84
5, 16560, Note_on_c, 4, 65, 83
5, 16560, Note_on_c, 4, 58, 93
5, 16560, Note_on_c, 4, 46, 93
5, 16560, Note_on_c, 4, 34, 90
5, 16560, Note_on_c, 4, 69, 71
5, 16659, Note_on_c, 4, 69, 0
5, 16659, Note_on_c, 4, 65, 0
5, 16659, Note_on_c, 4, 58, 0
5, 16659, Note_on_c, 4, 62, 0
5, 16659, Note_on_c, 4, 34, 0
5, 16659, Note_on_c, 4, 46, 0
5, 16680, Note_on_c, 4, 57, 74
5, 16680, Note_on_c, 4, 60, 97
5, 16680, Note_on_c, 4, 64, 96
5, 16680, Note_on_c, 4, 67, 87
5, 16680, Note_on_c, 4, 45, 79
5, 16680, Note_on_c, 4, 33, 87
5, 16779, Note_on_c, 4, 33, 0
5, 16779, Note_on_c, 4, 60, 0
5, 16779, Note_on_c, 4, 64, 0
5, 16779, Note_on_c, 4, 57, 0
5, 16779, Note_on_c, 4, 45, 0
5, 16779, Note_on_c, 4, 67, 0
5, 16800, Note_on_c, 4, 64, 86
5, 16800, Note_on_c, 4, 60, 82
5, 16800, Note_on_c, 4, 38, 92
5, 16800, Note_on_c, 4, 50, 86
5, 16800, Note_on_c, 4, 67, 84
5, 16829, Note_on_c, 4, 67, 0
5, 16829, Note_on_c, 4, 64, 0
5, 16829, Note_on_c, 4, 60, 0
5, 16830, Note_on_c, 4, 64, 64
5, 16830, Note_on_c, 4, 67, 47
5, 16830, Note_on_c, 4, 60, 62
5, 16859, Note_on_c, 4, 60, 0
5, 16859, Note_on_c, 4, 64, 0
5, 16859, Note_on_c, 4, 67, 0
5, 16860, Note_on_c, 4, 64, 70
5, 16860, Note_on_c, 4, 60, 63
5, 16860, Note_on_c, 4, 67, 66
5, 16889, Note_on_c, 4, 67, 0
5, 16889, Note_on_c, 4, 64, 0
5, 16889, Note_on_c, 4, 60, 0
5, 16890, Note_on_c, 4, 65, 90
5, 16890, Note_on_c, 4, 69, 83
5, 16890, Note_on_c, 4, 62, 92
5, 16890, Note_on_c, 4, 60, 79
5, 16919, Note_on_c, 4, 60, 0
5, 16919, Note_on_c, 4, 69, 0
5, 16919, Note_on_c, 4, 65, 0
5, 16919, Note_on_c, 4, 62, 0
5, 16950, Note_on_c, 4, 62, 81
5, 16950, Note_on_c, 4, 65, 87
5, 16950, Note_on_c, 4, 60, 74
5, 16950, Note_on_c, 4, 69, 81
5, 16979, Note_on_c, 4, 69, 0
5, 16979, Note_on_c, 4, 65, 0
5, 16979, Note_on_c, 4, 62, 0
5, 16979, Note_on_c, 4, 60, 0
5, 16980, Note_on_c, 4, 60, 60
5, 17009, Note_on_c, 4, 60, 0
5, 17009, Note_on_c, 4, 38, 0
5, 17009, Note_on_c, 4, 50, 0
5, 17010, Note_on_c, 4, 62, 67
5, 17010, Note_on_c, 4, 45, 90
5, 17039, Note_on_c, 4, 45, 0
5, 17039, Note_on_c, 4, 62, 0
5, 17040, Note_on_c, 4, 38, 83
5, 17040, Note_on_c, 4, 64, 90
5, 17040, Note_on_c, 4, 60, 68
5, 17040, Note_on_c, 4, 67, 82
5, 17040, Note_on_c, 4, 50, 75
5, 17069, Note_on_c, 4, 67, 0
5, 17069, Note_on_c, 4, 60, 0
5, 17069, Note_on_c, 4, 64, 0
5, 17100, Note_on_c, 4, 64, 89
5, 17100, Note_on_c, 4, 67, 82
5, 17100, Note_on_c, 4, 60, 71
5, 17129, Note_on_c, 4, 60, 0
5, 17129, Note_on_c, 4, 64, 0
5, 17129, Note_on_c, 4, 67, 0
5, 17160, Note_on_c, 4, 65, 89
5, 17160, Note_on_c, 4, 69, 77
5, 17160, Note_on_c, 4, 62, 90
5, 17160, Note_on_c, 4, 60, 84
5, 17249, Note_on_c, 4, 60, 0
5, 17249, Note_on_c, 4, 38, 0
5, 17249, Note_on_c, 4, 65, 0
5, 17249, Note_on_c, 4, 50, 0
5, 17249, Note_on_c, 4, 62, 0
5, 17249, Note_on_c, 4, 69, 0
5, 17280, Note_on_c, 4, 65, 87
5, 17280, Note_on_c, 4, 58, 93
5, 17280, Note_on_c, 4, 62, 96
5, 17280, Note_on_c, 4, 55, 83
5, 17280, Note_on_c, 4, 43, 87
5, 17280, Note_on_c, 4, 31, 92
5, 17379, Note_on_c, 4, 31, 0
5, 17379, Note_on_c, 4, 58, 0
5, 17379, Note_on_c, 4, 62, 0
5, 17379, Note_on_c, 4, 65, 0
5, 17379, Note_on_c, 4, 43, 0
5, 17379, Note_on_c, 4, 55, 0
5, 17400, Note_on_c, 4, 64, 94
5, 17400, Note_on_c, 4, 33, 83
5, 17400, Note_on_c, 4, 60, 97
5, 17400, Note_on_c, 4, 57, 76
5, 17400, Note_on_c, 4, 67, 78
5, 17400, Note_on_c, 4, 45, 72
5, 17499, Note_on_c, 4, 45, 0
5, 17499, Note_on_c, 4, 33, 0
5, 17499, Note_on_c, 4, 60, 0
5, 17499, Note_on_c, 4, 64, 0
5, 17499, Note_on_c, 4, 67, 0
5, 17499, Note_on_c, 4, 57, 0
5, 17520, Note_on_c, 4, 62, 96
5, 17520, Note_on_c, 4, 46, 66
5, 17520, Note_on_c, 4, 34, 90
5, 17520, Note_on_c, 4, 65, 92
5, 17520, Note_on_c, 4, 69, 87
5, 17520, Note_on_c, 4, 58, 90
5, 17619, Note_on_c, 4, 58, 0
5, 17619, Note_on_c, 4, 46, 0
5, 17619, Note_on_c, 4, 34, 0
5, 17619, Note_on_c, 4, 62, 0
5, 17619, Note_on_c, 4, 69, 0
5, 17619, Note_on_c, 4, 65, 0
5, 17640, Note_on_c, 4, 45, 77
5, 17640, Note_on_c, 4, 67, 83
5, 17640, Note_on_c, 4, 33, 82
5, 17640, Note_on_c, 4, 57, 83
5, 17640, Note_on_c, 4, 64, 89
5, 17640, Note_on_c, 4, 60, 94
5, 17739, Note_on_c, 4, 60, 0
5, 17739, Note_on_c, 4, 67, 0
5, 17739, Note_on_c, 4, 33, 0
5, 17739, Note_on_c, 4, 45, 0
5, 17739, Note_on_c, 4, 64, 0
5, 17739, Note_on_c, 4, 57, 0
5, 17760, Note_on_c, 4, 50, 81
5, 17760, Note_on_c, 4, 38, 83
5, 17760, Note_on_c, 4, 64, 83
5, 17760, Note_on_c, 4, 67, 74
5, 17760, Note_on_c, 4, 60, 81
5, 17789, Note_on_c, 4, 60, 0
5, 17789, Note_on_c, 4, 64, 0
5, 17789, Note_on_c, 4, 67, 0
5, 17790, Note_on_c, 4, 60, 60
5, 17790, Note_on_c, 4, 67, 63
5, 17790, Note_on_c, 4, 64, 66
5, 17819, Note_on_c, 4, 64, 0
5, 17819, Note_on_c, 4, 60, 0
5, 17819, Note_on_c, 4, 67, 0
5, 17820, Note_on_c, 4, 64, 81
5, 17820, Note_on_c, 4, 67, 74
5, 17820, Note_on_c, 4, 60, 60
5, 17849, Note_on_c, 4, 60, 0
5, 17849, Note_on_c, 4, 64, 0
5, 17849, Note_on_c, 4, 67, 0
5, 17850, Note_on_c, 4, 60, 70
5, 17850, Note_on_c, 4, 62, 89
5, 17850, Note_on_c, 4, 65, 68
5, 17850, Note_on_c, 4, 69, 66
5, 17879, Note_on_c, 4, 69, 0
5, 17879, Note_on_c, 4, 62, 0
5, 17879, Note_on_c, 4, 60, 0
5, 17879, Note_on_c, 4, 65, 0
5, 17910, Note_on_c, 4, 62, 84
5, 17910, Note_on_c, 4, 65, 86
5, 17910, Note_on_c, 4, 69, 77
5, 17910, Note_on_c, 4, 60, 75
5, 17939, Note_on_c, 4, 60, 0
5, 17939, Note_on_c, 4, 65, 0
5, 17939, Note_on_c, 4, 62, 0
5, 17939, Note_on_c, 4, 69, 0
5, 17940, Note_on_c, 4, 60, 63
5, 17969, Note_on_c, 4, 60, 0
5, 17969, Note_on_c, 4, 50, 0
5, 17970, Note_on_c, 4, 62, 78
5, 17970, Note_on_c, 4, 60, 32
5, 17970, Note_on_c, 4, 45, 75
5, 17999, Note_on_c, 4, 45, 0
5, 17999, Note_on_c, 4, 38, 0
5, 17999, Note_on_c, 4, 62, 0
5, 17999, Note_on_c, 4, 60, 0
5, 18000, Note_on_c, 4, 50, 63
5, 18000, Note_on_c, 4, 38, 74
5, 18000, Note_on_c, 4, 60, 76
5, 18000, Note_on_c, 4, 64, 74
5, 18000, Note_on_c, 4, 69, 76
5, 18000, Note_on_c, 4, 67, 72
5, 18029, Note_on_c, 4, 67, 0
5, 18029, Note_on_c, 4, 64, 0
5, 18029, Note_on_c, 4, 60, 0
5, 18029, Note_on_c, 4, 69, 0
5, 18060, Note_on_c, 4, 64, 92
5, 18060, Note_on_c, 4, 67, 81
5, 18060, Note_on_c, 4, 60, 83
5, 18089, Note_on_c, 4, 60, 0
5, 18089, Note_on_c, 4, 64, 0
5, 18089, Note_on_c, 4, 67, 0
5, 18120, Note_on_c, 4, 69, 82
5, 18120, Note_on_c, 4, 65, 90
5, 18120, Note_on_c, 4, 62, 89
5, 18120, Note_on_c, 4, 60, 86
5, 18209, Note_on_c, 4, 60, 0
5, 18209, Note_on_c, 4, 50, 0
5, 18209, Note_on_c, 4, 69, 0
5, 18209, Note_on_c, 4, 38, 0
5, 18209, Note_on_c, 4, 62, 0
5, 18209, Note_on_c, 4, 65, 0
5, 18240, Note_on_c, 4, 58, 84
5, 18240, Note_on_c, 4, 65, 83
5, 18240, Note_on_c, 4, 62, 92
5, 18240, Note_on_c, 4, 55, 89
5, 18240, Note_on_c, 4, 31, 87
5, 18240, Note_on_c, 4, 43, 67
5, 18339, Note_on_c, 4, 43, 0
5, 18339, Note_on_c, 4, 65, 0
5, 18339, Note_on_c, 4, 62, 0
5, 18339, Note_on_c, 4, 58, 0
5, 18339, Note_on_c, 4, 31, 0
5, 18339, Note_on_c, 4, 55, 0
5, 18360, Note_on_c, 4, 60, 90
5, 18360, Note_on_c, 4, 33, 71
5, 18360, Note_on_c, 4, 64, 94
5, 18360, Note_on_c, 4, 57, 73
5, 18360, Note_on_c, 4, 67, 87
5, 18360, Note_on_c, 4, 45, 82
5, 18459, Note_on_c, 4, 45, 0
5, 18459, Note_on_c, 4, 33, 0
5, 18459, Note_on_c, 4, 64, 0
5, 18459, Note_on_c, 4, 60, 0
5, 18459, Note_on_c, 4, 67, 0
5, 18459, Note_on_c, 4, 57, 0
5, 18480, Note_on_c, 4, 34, 66
5, 18480, Note_on_c, 4, 46, 74
5, 18480, Note_on_c, 4, 62, 86
5, 18480, Note_on_c, 4, 65, 90
5, 18480, Note_on_c, 4, 58, 87
5, 18480, Note_on_c, 4, 69, 87
5, 18579, Note_on_c, 4, 69, 0
5, 18579, Note_on_c, 4, 46, 0
5, 18579, Note_on_c, 4, 62, 0
5, 18579, Note_on_c, 4, 34, 0
5, 18579, Note_on_c, 4, 58, 0
5, 18579, Note_on_c, 4, 65, 0
5, 18600, Note_on_c, 4, 60, 82
5, 18600, Note_on_c, 4, 64, 82
5, 18600, Note_on_c, 4, 57, 67
5, 18600, Note_on_c, 4, 67, 77
5, 18600, Note_on_c, 4, 45, 72
5, 18600, Note_on_c, 4, 33, 87
5, 18699, Note_on_c, 4, 33, 0
5, 18699, Note_on_c, 4, 64, 0
5, 18699, Note_on_c, 4, 57, 0
5, 18699, Note_on_c, 4, 60, 0
5, 18699, Note_on_c, 4, 45, 0
5, 18699, Note_on_c, 4, 67, 0
5, 18720, Note_on_c, 4, 50, 86
5, 18720, Note_on_c, 4, 67, 83
5, 18720, Note_on_c, 4, 64, 77
5, 18720, Note_on_c, 4, 38, 82
5, 18720, Note_on_c, 4, 60, 84
5, 18749, Note_on_c, 4, 60, 0
5, 18749, Note_on_c, 4, 64, 0
5, 18749, Note_on_c, 4, 67, 0
5, 18750, Note_on_c, 4, 64, 71
5, 18750, Note_on_c, 4, 67, 66
5, 18750, Note_on_c, 4, 60, 62
5, 18779, Note_on_c, 4, 60, 0
5, 18779, Note_on_c, 4, 64, 0
5, 18779, Note_on_c, 4, 67, 0
5, 18780, Note_on_c, 4, 64, 69
5, 18780, Note_on_c, 4, 67, 66
5, 18780, Note_on_c, 4, 60, 62
5, 18809, Note_on_c, 4, 60, 0
5, 18809, Note_on_c, 4, 64, 0
5, 18809, Note_on_c, 4, 67, 0
5, 18810, Note_on_c, 4, 62, 89
5, 18810, Note_on_c, 4, 65, 99
5, 18810, Note_on_c, 4, 69, 87
5, 18810, Note_on_c, 4, 60, 70
5, 18839, Note_on_c, 4, 60, 0
5, 18839, Note_on_c, 4, 65, 0
5, 18839, Note_on_c, 4, 62, 0
5, 18839, Note_on_c, 4, 69, 0
5, 18870, Note_on_c, 4, 62, 89
5, 18870, Note_on_c, 4, 65, 92
5, 18870, Note_on_c, 4, 69, 79
5, 18870, Note_on_c, 4, 60, 77
5, 18899, Note_on_c, 4, 60, 0
5, 18899, Note_on_c, 4, 65, 0
5, 18899, Note_on_c, 4, 62, 0
5, 18899, Note_on_c, 4, 69, 0
5, 18900, Note_on_c, 4, 60, 64
5, 18900, Note_on_c, 4, 65, 35
5, 18929, Note_on_c, 4, 65, 0
5, 18929, Note_on_c, 4, 38, 0
5, 18929, Note_on_c, 4, 50, 0
5, 18929, Note_on_c, 4, 60, 0
5, 18930, Note_on_c, 4, 62, 77
5, 18930, Note_on_c, 4, 45, 106
5, 18959, Note_on_c, 4, 45, 0
5, 18959, Note_on_c, 4, 62, 0
5, 18960, Note_on_c, 4, 50, 63
5, 18960, Note_on_c, 4, 38, 82
5, 18960, Note_on_c, 4, 64, 102
5, 18960, Note_on_c, 4, 67, 90
5, 18960, Note_on_c, 4, 60, 81
5, 18989, Note_on_c, 4, 60, 0
5, 18989, Note_on_c, 4, 64, 0
5, 18989, Note_on_c, 4, 67, 0
5, 19020, Note_on_c, 4, 64, 94
5, 19020, Note_on_c, 4, 60, 81
5, 19020, Note_on_c, 4, 67, 86
5, 19049, Note_on_c, 4, 67, 0
5, 19049, Note_on_c, 4, 64, 0
5, 19049, Note_on_c, 4, 60, 0
5, 19080, Note_on_c, 4, 60, 79
5, 19080, Note_on_c, 4, 62, 97
5, 19080, Note_on_c, 4, 65, 104
5, 19080, Note_on_c, 4, 69, 87
5, 19169, Note_on_c, 4, 69, 0
5, 19169, Note_on_c, 4, 38, 0
5, 19169, Note_on_c, 4, 60, 0
5, 19169, Note_on_c, 4, 50, 0
5, 19169, Note_on_c, 4, 65, 0
5, 19169, Note_on_c, 4, 62, 0
5, 19200, Note_on_c, 4, 69, 84
5, 19200, Note_on_c, 4, 61, 99
5, 19200, Note_on_c, 4, 64, 99
5, 19200, Note_on_c, 4, 57, 96
5, 19200, Note_on_c, 4, 49, 87
5, 19200, Note_on_c, 4, 37, 93
5, 19299, Note_on_c, 4, 37, 0
5, 19299, Note_on_c, 4, 61, 0
5, 19299, Note_on_c, 4, 64, 0
5, 19299, Note_on_c, 4, 69, 0
5, 19299, Note_on_c, 4, 49, 0
5, 19299, Note_on_c, 4, 57, 0
5, 19320, Note_on_c, 4, 69, 75
5, 19320, Note_on_c, 4, 63, 99
5, 19320, Note_on_c, 4, 65, 94
5, 19320, Note_on_c, 4, 60, 87
5, 19320, Note_on_c, 4, 36, 72
5, 19320, Note_on_c, 4, 48, 83
5, 19419, Note_on_c, 4, 48, 0
5, 19419, Note_on_c, 4, 63, 0
5, 19419, Note_on_c, 4, 65, 0
5, 19419, Note_on_c, 4, 69, 0
5, 19419, Note_on_c, 4, 36, 0
5, 19419, Note_on_c, 4, 60, 0
5, 19440, Note_on_c, 4, 62, 87
5, 19440, Note_on_c, 4, 69, 79
5, 19440, Note_on_c, 4, 65, 90
5, 19440, Note_on_c, 4, 59, 78
5, 19440, Note_on_c, 4, 47, 82
5, 19440, Note_on_c, 4, 35, 86
5, 19509, Note_on_c, 4, 35, 0
5, 19509, Note_on_c, 4, 69, 0
5, 19509, Note_on_c, 4, 65, 0
5, 19509, Note_on_c, 4, 62, 0
5, 19509, Note_on_c, 4, 47, 0
5, 19509, Note_on_c, 4, 59, 0
5, 19530, Note_on_c, 4, 34, 72
5, 19530, Note_on_c, 4, 62, 86
5, 19530, Note_on_c, 4, 67, 82
5, 19530, Note_on_c, 4, 65, 82
5, 19530, Note_on_c, 4, 46, 82
5, 19530, Note_on_c, 4, 58, 84
5, 19599, Note_on_c, 4, 58, 0
5, 19599, Note_on_c, 4, 62, 0
5, 19599, Note_on_c, 4, 67, 0
5, 19599, Note_on_c, 4, 65, 0
5, 19619, Note_on_c, 4, 34, 0
5, 19619, Note_on_c, 4, 46, 0
5, 19620, Note_on_c, 4, 69, 109
5, 19649, Note_on_c, 4, 69, 0
5, 19650, Note_on_c, 4, 67, 109
5, 19650, Note_on_c, 4, 69, 106
5, 19650, Note_on_c, 4, 64, 99
5, 19650, Note_on_c, 4, 72, 99
5, 19650, Note_on_c, 4, 33, 81
5, 19650, Note_on_c, 4, 45, 96
5, 19679, Note_on_c, 4, 45, 0
5, 19679, Note_on_c, 4, 69, 0
5, 19679, Note_on_c, 4, 64, 0
5, 19679, Note_on_c, 4, 67, 0
5, 19679, Note_on_c, 4, 33, 0
5, 19679, Note_on_c, 4, 72, 0
5, 19710, Note_on_c, 4, 72, 97
5, 19710, Note_on_c, 4, 70, 80
5, 19710, Note_on_c, 4, 77, 104
5, 19710, Note_on_c, 4, 66, 90
5, 19710, Note_on_c, 4, 44, 87
5, 19710, Note_on_c, 4, 32, 82
5, 19949, Note_on_c, 4, 32, 0
5, 19949, Note_on_c, 4, 44, 0
5, 19979, Note_on_c, 4, 77, 0
5, 19979, Note_on_c, 4, 66, 0
5, 20009, Note_on_c, 4, 70, 0
5, 20009, Note_on_c, 4, 72, 0
5, 20010, Note_on_c, 4, 33, 114
5, 20039, Note_on_c, 4, 33, 0
5, 20070, Note_on_c, 4, 34, 96
5, 20099, Note_on_c, 4, 34, 0
5, 20130, Note_on_c, 4, 35, 72
5, 20159, Note_on_c, 4, 35, 0
5, 20160, Note_on_c, 4, 69, 79
5, 20160, Note_on_c, 4, 36, 97
5, 20160, Note_on_c, 4, 65, 87
5, 20160, Note_on_c, 4, 58, 84
5, 20160, Note_on_c, 4, 62, 86
5, 20339, Note_on_c, 4, 62, 0
5, 20339, Note_on_c, 4, 65, 0
5, 20339, Note_on_c, 4, 58, 0
5, 20339, Note_on_c, 4, 69, 0
5, 20370, Note_on_c, 4, 79, 63
5, 20370, Note_on_c, 4, 77, 62
5, 20370, Note_on_c, 4, 74, 82
5, 20399, Note_on_c, 4, 74, 0
5, 20399, Note_on_c, 4, 77, 0
5, 20399, Note_on_c, 4, 79, 0
5, 20400, Note_on_c, 4, 70, 80
5, 20400, Note_on_c, 4, 67, 92
5, 20469, Note_on_c, 4, 67, 0
5, 20469, Note_on_c, 4, 70, 0
5, 20489, Note_on_c, 4, 36, 0
5, 20490, Note_on_c, 4, 67, 87
5, 20519, Note_on_c, 4, 67, 0
5, 20520, Note_on_c, 4, 79, 117
5, 20579, Note_on_c, 4, 79, 0
5, 20640, Note_on_c, 4, 60, 90
5, 20640, Note_on_c, 4, 67, 79
5, 20640, Note_on_c, 4, 64, 96
5, 20640, Note_on_c, 4, 57, 76
5, 20640, Note_on_c, 4, 29, 120
5, 20669, Note_on_c, 4, 57, 0
5, 20669, Note_on_c, 4, 64, 0
5, 20669, Note_on_c, 4, 60, 0
5, 20669, Note_on_c, 4, 67, 0
5, 20670, Note_on_c, 4, 67, 57
5, 20670, Note_on_c, 4, 60, 60
5, 20670, Note_on_c, 4, 64, 62
5, 20670, Note_on_c, 4, 57, 55
5, 20699, Note_on_c, 4, 57, 0
5, 20699, Note_on_c, 4, 60, 0
5, 20699, Note_on_c, 4, 29, 0
5, 20699, Note_on_c, 4, 67, 0
5, 20699, Note_on_c, 4, 64, 0
5, 20700, Note_on_c, 4, 65, 75
5, 20700, Note_on_c, 4, 62, 77
5, 20700, Note_on_c, 4, 60, 70
5, 20700, Note_on_c, 4, 57, 63
5, 20729, Note_on_c, 4, 57, 0
5, 20729, Note_on_c, 4, 65, 0
5, 20729, Note_on_c, 4, 62, 0
5, 20729, Note_on_c, 4, 60, 0
5, 20730, Note_on_c, 4, 60, 70
5, 20730, Note_on_c, 4, 57, 62
5, 20730, Note_on_c, 4, 67, 70
5, 20730, Note_on_c, 4, 64, 81
5, 20759, Note_on_c, 4, 64, 0
5, 20759, Note_on_c, 4, 60, 0
5, 20759, Note_on_c, 4, 57, 0
5, 20759, Note_on_c, 4, 67, 0
5, 20790, Note_on_c, 4, 60, 83
5, 20790, Note_on_c, 4, 62, 84
5, 20790, Note_on_c, 4, 57, 71
5, 20790, Note_on_c, 4, 65, 77
5, 20849, Note_on_c, 4, 65, 0
5, 20849, Note_on_c, 4, 60, 0
5, 20849, Note_on_c, 4, 62, 0
5, 20849, Note_on_c, 4, 57, 0
5, 20850, Note_on_c, 4, 29, 109
5, 20879, Note_on_c, 4, 29, 0
5, 20880, Note_on_c, 4, 58, 82
5, 20880, Note_on_c, 4, 60, 83
5, 20880, Note_on_c, 4, 64, 79
5, 20880, Note_on_c, 4, 55, 75
5, 20880, Note_on_c, 4, 34, 127
5, 20909, Note_on_c, 4, 55, 0
5, 20909, Note_on_c, 4, 64, 0
5, 20909, Note_on_c, 4, 58, 0
5, 20909, Note_on_c, 4, 60, 0
5, 20910, Note_on_c, 4, 58, 39
5, 20910, Note_on_c, 4, 55, 57
5, 20910, Note_on_c, 4, 60, 54
5, 20910, Note_on_c, 4, 64, 42
5, 20939, Note_on_c, 4, 64, 0
5, 20939, Note_on_c, 4, 55, 0
5, 20939, Note_on_c, 4, 34, 0
5, 20939, Note_on_c, 4, 58, 0
5, 20939, Note_on_c, 4, 60, 0
5, 20940, Note_on_c, 4, 62, 62
5, 20940, Note_on_c, 4, 58, 50
5, 20940, Note_on_c, 4, 53, 66
5, 20969, Note_on_c, 4, 53, 0
5, 20969, Note_on_c, 4, 58, 0
5, 20969, Note_on_c, 4, 62, 0
5, 20970, Note_on_c, 4, 60, 74
5, 20970, Note_on_c, 4, 58, 63
5, 20970, Note_on_c, 4, 55, 73
5, 20970, Note_on_c, 4, 64, 73
5, 20999, Note_on_c, 4, 64, 0
5, 20999, Note_on_c, 4, 60, 0
5, 20999, Note_on_c, 4, 58, 0
5, 20999, Note_on_c, 4, 55, 0
5, 21030, Note_on_c, 4, 62, 78
5, 21030, Note_on_c, 4, 58, 74
5, 21030, Note_on_c, 4, 53, 67
5, 21089, Note_on_c, 4, 53, 0
5, 21089, Note_on_c, 4, 58, 0
5, 21089, Note_on_c, 4, 62, 0
5, 21120, Note_on_c, 4, 33, 127
5, 21120, Note_on_c, 4, 64, 74
5, 21120, Note_on_c, 4, 60, 81
5, 21120, Note_on_c, 4, 55, 76
5, 21120, Note_on_c, 4, 57, 83
5, 21149, Note_on_c, 4, 57, 0
5, 21149, Note_on_c, 4, 60, 0
5, 21149, Note_on_c, 4, 55, 0
5, 21149, Note_on_c, 4, 64, 0
5, 21150, Note_on_c, 4, 64, 55
5, 21150, Note_on_c, 4, 60, 59
5, 21150, Note_on_c, 4, 57, 62
5, 21150, Note_on_c, 4, 55, 42
5, 21179, Note_on_c, 4, 55, 0
5, 21179, Note_on_c, 4, 60, 0
5, 21179, Note_on_c, 4, 33, 0
5, 21179, Note_on_c, 4, 64, 0
5, 21179, Note_on_c, 4, 57, 0
5, 21180, Note_on_c, 4, 62, 65
5, 21180, Note_on_c, 4, 55, 64
5, 21180, Note_on_c, 4, 57, 64
5, 21209, Note_on_c, 4, 57, 0
5, 21209, Note_on_c, 4, 55, 0
5, 21209, Note_on_c, 4, 62, 0
5, 21210, Note_on_c, 4, 64, 70
5, 21210, Note_on_c, 4, 55, 70
5, 21210, Note_on_c, 4, 57, 71
5, 21210, Note_on_c, 4, 60, 66
5, 21239, Note_on_c, 4, 60, 0
5, 21239, Note_on_c, 4, 64, 0
5, 21239, Note_on_c, 4, 55, 0
5, 21239, Note_on_c, 4, 57, 0
5, 21270, Note_on_c, 4, 62, 83
5, 21270, Note_on_c, 4, 57, 75
5, 21270, Note_on_c, 4, 60, 81
5, 21270, Note_on_c, 4, 55, 66
5, 21329, Note_on_c, 4, 55, 0
5, 21329, Note_on_c, 4, 62, 0
5, 21329, Note_on_c, 4, 57, 0
5, 21329, Note_on_c, 4, 60, 0
5, 21330, Note_on_c, 4, 33, 124
5, 21359, Note_on_c, 4, 33, 0
5, 21360, Note_on_c, 4, 64, 70
5, 21360, Note_on_c, 4, 57, 67
5, 21360, Note_on_c, 4, 55, 66
5, 21360, Note_on_c, 4, 60, 70
5, 21360, Note_on_c, 4, 38, 111
5, 21389, Note_on_c, 4, 60, 0
5, 21389, Note_on_c, 4, 55, 0
5, 21389, Note_on_c, 4, 64, 0
5, 21389, Note_on_c, 4, 57, 0
5, 21390, Note_on_c, 4, 55, 53
5, 21390, Note_on_c, 4, 60, 60
5, 21390, Note_on_c, 4, 57, 62
5, 21390, Note_on_c, 4, 64, 58
5, 21419, Note_on_c, 4, 64, 0
5, 21419, Note_on_c, 4, 60, 0
5, 21419, Note_on_c, 4, 38, 0
5, 21419, Note_on_c, 4, 55, 0
5, 21419, Note_on_c, 4, 57, 0
5, 21420, Note_on_c, 4, 55, 62
5, 21420, Note_on_c, 4, 64, 61
5, 21420, Note_on_c, 4, 57, 66
5, 21420, Note_on_c, 4, 60, 58
5, 21449, Note_on_c, 4, 60, 0
5, 21449, Note_on_c, 4, 55, 0
5, 21449, Note_on_c, 4, 64, 0
5, 21449, Note_on_c, 4, 57, 0
5, 21450, Note_on_c, 4, 62, 74
5, 21450, Note_on_c, 4, 65, 79
5, 21450, Note_on_c, 4, 60, 83
5, 21450, Note_on_c, 4, 57, 72
5, 21479, Note_on_c, 4, 57, 0
5, 21479, Note_on_c, 4, 62, 0
5, 21479, Note_on_c, 4, 65, 0
5, 21479, Note_on_c, 4, 60, 0
5, 21510, Note_on_c, 4, 62, 83
5, 21510, Note_on_c, 4, 65, 86
5, 21510, Note_on_c, 4, 60, 77
5, 21510, Note_on_c, 4, 57, 65
5, 21569, Note_on_c, 4, 57, 0
5, 21569, Note_on_c, 4, 62, 0
5, 21569, Note_on_c, 4, 65, 0
5, 21569, Note_on_c, 4, 60, 0
5, 21600, Note_on_c, 4, 31, 124
5, 21600, Note_on_c, 4, 62, 83
5, 21600, Note_on_c, 4, 65, 73
5, 21600, Note_on_c, 4, 58, 78
5, 21600, Note_on_c, 4, 55, 70
5, 21629, Note_on_c, 4, 55, 0
5, 21629, Note_on_c, 4, 65, 0
5, 21629, Note_on_c, 4, 58, 0
5, 21629, Note_on_c, 4, 62, 0
5, 21630, Note_on_c, 4, 65, 49
5, 21630, Note_on_c, 4, 55, 53
5, 21630, Note_on_c, 4, 62, 70
5, 21630, Note_on_c, 4, 58, 47
5, 21659, Note_on_c, 4, 58, 0
5, 21659, Note_on_c, 4, 55, 0
5, 21659, Note_on_c, 4, 62, 0
5, 21659, Note_on_c, 4, 65, 0
5, 21660, Note_on_c, 4, 58, 51
5, 21660, Note_on_c, 4, 55, 62
5, 21660, Note_on_c, 4, 62, 62
5, 21660, Note_on_c, 4, 65, 60
5, 21689, Note_on_c, 4, 65, 0
5, 21689, Note_on_c, 4, 55, 0
5, 21689, Note_on_c, 4, 62, 0
5, 21689, Note_on_c, 4, 58, 0
5, 21690, Note_on_c, 4, 58, 63
5, 21690, Note_on_c, 4, 62, 70
5, 21690, Note_on_c, 4, 65, 70
5, 21690, Note_on_c, 4, 55, 66
5, 21719, Note_on_c, 4, 55, 0
5, 21719, Note_on_c, 4, 62, 0
5, 21719, Note_on_c, 4, 65, 0
5, 21719, Note_on_c, 4, 58, 0
5, 21749, Note_on_c, 4, 31, 0
5, 21750, Note_on_c, 4, 65, 81
5, 21750, Note_on_c, 4, 58, 84
5, 21750, Note_on_c, 4, 62, 89
5, 21750, Note_on_c, 4, 57, 78
5, 21750, Note_on_c, 4, 33, 120
5, 21779, Note_on_c, 4, 57, 0
5, 21779, Note_on_c, 4, 62, 0
5, 21779, Note_on_c, 4, 65, 0
5, 21779, Note_on_c, 4, 58, 0
5, 21809, Note_on_c, 4, 33, 0
5, 21810, Note_on_c, 4, 62, 89
5, 21810, Note_on_c, 4, 65, 84
5, 21810, Note_on_c, 4, 58, 80
5, 21810, Note_on_c, 4, 69, 89
5, 21810, Note_on_c, 4, 34, 117
5, 21929, Note_on_c, 4, 69, 0
5, 21929, Note_on_c, 4, 58, 0
5, 21929, Note_on_c, 4, 62, 0
5, 21929, Note_on_c, 4, 65, 0
5, 21959, Note_on_c, 4, 34, 0
5, 21960, Note_on_c, 4, 36, 120
5, 21960, Note_on_c, 4, 64, 75
5, 21960, Note_on_c, 4, 67, 89
5, 21960, Note_on_c, 4, 62, 77
5, 21960, Note_on_c, 4, 58, 67
5, 22049, Note_on_c, 4, 58, 0
5, 22049, Note_on_c, 4, 67, 0
5, 22049, Note_on_c, 4, 62, 0
5, 22049, Note_on_c, 4, 64, 0
5, 22079, Note_on_c, 4, 36, 0
5, 22080, Note_on_c, 4, 60, 90
5, 22080, Note_on_c, 4, 64, 97
5, 22080, Note_on_c, 4, 57, 73
5, 22080, Note_on_c, 4, 67, 84
5, 22080, Note_on_c, 4, 29, 120
5, 22109, Note_on_c, 4, 67, 0
5, 22109, Note_on_c, 4, 57, 0
5, 22109, Note_on_c, 4, 60, 0
5, 22109, Note_on_c, 4, 64, 0
5, 22110, Note_on_c, 4, 67, 51
5, 22110, Note_on_c, 4, 64, 62
5, 22110, Note_on_c, 4, 60, 60
5, 22110, Note_on_c, 4, 57, 47
5, 22139, Note_on_c, 4, 57, 0
5, 22139, Note_on_c, 4, 64, 0
5, 22139, Note_on_c, 4, 29, 0
5, 22139, Note_on_c, 4, 67, 0
5, 22139, Note_on_c, 4, 60, 0
5, 22140, Note_on_c, 4, 62, 66
5, 22140, Note_on_c, 4, 65, 70
5, 22140, Note_on_c, 4, 57, 62
5, 22140, Note_on_c, 4, 60, 66
5, 22169, Note_on_c, 4, 60, 0
5, 22169, Note_on_c, 4, 62, 0
5, 22169, Note_on_c, 4, 65, 0
5, 22169, Note_on_c, 4, 57, 0
5, 22170, Note_on_c, 4, 60, 70
5, 22170, Note_on_c, 4, 67, 69
5, 22170, Note_on_c, 4, 64, 67
5, 22170, Note_on_c, 4, 57, 57
5, 22199, Note_on_c, 4, 57, 0
5, 22199, Note_on_c, 4, 60, 0
5, 22199, Note_on_c, 4, 67, 0
5, 22199, Note_on_c, 4, 64, 0
5, 22230, Note_on_c, 4, 62, 78
5, 22230, Note_on_c, 4, 65, 76
5, 22230, Note_on_c, 4, 60, 83
5, 22230, Note_on_c, 4, 57, 66
5, 22289, Note_on_c, 4, 57, 0
5, 22289, Note_on_c, 4, 62, 0
5, 22289, Note_on_c, 4, 65, 0
5, 22289, Note_on_c, 4, 60, 0
5, 22290, Note_on_c, 4, 29, 104
5, 22319, Note_on_c, 4, 29, 0
5, 22320, Note_on_c, 4, 60, 74
5, 22320, Note_on_c, 4, 64, 77
5, 22320, Note_on_c, 4, 58, 78
5, 22320, Note_on_c, 4, 55, 78
5, 22320, Note_on_c, 4, 34, 117
5, 22349, Note_on_c, 4, 55, 0
5, 22349, Note_on_c, 4, 58, 0
5, 22349, Note_on_c, 4, 60, 0
5, 22349, Note_on_c, 4, 64, 0
5, 22350, Note_on_c, 4, 64, 62
5, 22350, Note_on_c, 4, 55, 64
5, 22350, Note_on_c, 4, 58, 44
5, 22350, Note_on_c, 4, 60, 63
5, 22379, Note_on_c, 4, 60, 0
5, 22379, Note_on_c, 4, 55, 0
5, 22379, Note_on_c, 4, 34, 0
5, 22379, Note_on_c, 4, 64, 0
5, 22379, Note_on_c, 4, 58, 0
5, 22380, Note_on_c, 4, 62, 73
5, 22380, Note_on_c, 4, 58, 66
5, 22380, Note_on_c, 4, 53, 72
5, 22380, Note_on_c, 4, 60, 70
5, 22409, Note_on_c, 4, 60, 0
5, 22409, Note_on_c, 4, 62, 0
5, 22409, Note_on_c, 4, 58, 0
5, 22409, Note_on_c, 4, 53, 0
5, 22410, Note_on_c, 4, 64, 71
5, 22410, Note_on_c, 4, 58, 54
5, 22410, Note_on_c, 4, 60, 63
5, 22410, Note_on_c, 4, 55, 70
5, 22439, Note_on_c, 4, 55, 0
5, 22439, Note_on_c, 4, 64, 0
5, 22439, Note_on_c, 4, 58, 0
5, 22439, Note_on_c, 4, 60, 0
5, 22470, Note_on_c, 4, 58, 84
5, 22470, Note_on_c, 4, 62, 97
5, 22470, Note_on_c, 4, 53, 79
5, 22499, Note_on_c, 4, 53, 0
5, 22499, Note_on_c, 4, 58, 0
5, 22500, Note_on_c, 4, 53, 46
5, 22529, Note_on_c, 4, 53, 0
5, 22529, Note_on_c, 4, 62, 0
5, 22530, Note_on_c, 4, 58, 45
5, 22559, Note_on_c, 4, 58, 0
5, 22560, Note_on_c, 4, 57, 89
5, 22560, Note_on_c, 4, 64, 81
5, 22560, Note_on_c, 4, 60, 89
5, 22560, Note_on_c, 4, 55, 78
5, 22560, Note_on_c, 4, 33, 111
5, 22589, Note_on_c, 4, 55, 0
5, 22589, Note_on_c, 4, 60, 0
5, 22589, Note_on_c, 4, 57, 0
5, 22589, Note_on_c, 4, 64, 0
5, 22590, Note_on_c, 4, 64, 65
5, 22590, Note_on_c, 4, 57, 65
5, 22590, Note_on_c, 4, 60, 62
5, 22590, Note_on_c, 4, 55, 50
5, 22619, Note_on_c, 4, 55, 0
5, 22619, Note_on_c, 4, 57, 0
5, 22619, Note_on_c, 4, 33, 0
5, 22619, Note_on_c, 4, 64, 0
5, 22619, Note_on_c, 4, 60, 0
5, 22620, Note_on_c, 4, 62, 66
5, 22620, Note_on_c, 4, 57, 59
5, 22620, Note_on_c, 4, 55, 57
5, 22649, Note_on_c, 4, 55, 0
5, 22649, Note_on_c, 4, 57, 0
5, 22649, Note_on_c, 4, 62, 0
5, 22650, Note_on_c, 4, 57, 70
5, 22650, Note_on_c, 4, 64, 66
5, 22650, Note_on_c, 4, 55, 64
5, 22650, Note_on_c, 4, 60, 59
5, 22679, Note_on_c, 4, 60, 0
5, 22679, Note_on_c, 4, 57, 0
5, 22679, Note_on_c, 4, 64, 0
5, 22679, Note_on_c, 4, 55, 0
5, 22710, Note_on_c, 4, 62, 82
5, 22710, Note_on_c, 4, 57, 77
5, 22710, Note_on_c, 4, 60, 81
5, 22710, Note_on_c, 4, 55, 70
5, 22769, Note_on_c, 4, 55, 0
5, 22769, Note_on_c, 4, 62, 0
5, 22769, Note_on_c, 4, 57, 0
5, 22769, Note_on_c, 4, 60, 0
5, 22770, Note_on_c, 4, 33, 111
5, 22799, Note_on_c, 4, 33, 0
5, 22800, Note_on_c, 4, 57, 73
5, 22800, Note_on_c, 4, 64, 78
5, 22800, Note_on_c, 4, 60, 70
5, 22800, Note_on_c, 4, 55, 75
5, 22800, Note_on_c, 4, 38, 104
5, 22829, Note_on_c, 4, 55, 0
5, 22829, Note_on_c, 4, 60, 0
5, 22829, Note_on_c, 4, 57, 0
5, 22829, Note_on_c, 4, 64, 0
5, 22830, Note_on_c, 4, 64, 60
5, 22830, Note_on_c, 4, 60, 57
5, 22830, Note_on_c, 4, 57, 66
5, 22830, Note_on_c, 4, 55, 53
5, 22859, Note_on_c, 4, 55, 0
5, 22859, Note_on_c, 4, 60, 0
5, 22859, Note_on_c, 4, 57, 0
5, 22859, Note_on_c, 4, 64, 0
5, 22860, Note_on_c, 4, 55, 63
5, 22860, Note_on_c, 4, 64, 63
5, 22860, Note_on_c, 4, 60, 56
5, 22860, Note_on_c, 4, 57, 60
5, 22889, Note_on_c, 4, 57, 0
5, 22889, Note_on_c, 4, 64, 0
5, 22889, Note_on_c, 4, 38, 0
5, 22889, Note_on_c, 4, 55, 0
5, 22889, Note_on_c, 4, 60, 0
5, 22890, Note_on_c, 4, 62, 83
5, 22890, Note_on_c, 4, 65, 86
5, 22890, Note_on_c, 4, 60, 92
5, 22890, Note_on_c, 4, 57, 71
5, 22919, Note_on_c, 4, 57, 0
5, 22919, Note_on_c, 4, 62, 0
5, 22919, Note_on_c, 4, 65, 0
5, 22919, Note_on_c, 4, 60, 0
5, 22950, Note_on_c, 4, 60, 84
5, 22950, Note_on_c, 4, 65, 79
5, 22950, Note_on_c, 4, 62, 90
5, 22950, Note_on_c, 4, 57, 66
5, 23009, Note_on_c, 4, 57, 0
5, 23009, Note_on_c, 4, 60, 0
5, 23009, Note_on_c, 4, 65, 0
5, 23009, Note_on_c, 4, 62, 0
5, 23040, Note_on_c, 4, 31, 104
5, 23040, Note_on_c, 4, 62, 82
5, 23040, Note_on_c, 4, 58, 78
5, 23040, Note_on_c, 4, 65, 81
5, 23040, Note_on_c, 4, 55, 73
5, 23069, Note_on_c, 4, 55, 0
5, 23069, Note_on_c, 4, 58, 0
5, 23069, Note_on_c, 4, 65, 0
5, 23069, Note_on_c, 4, 62, 0
5, 23070, Note_on_c, 4, 58, 47
5, 23070, Note_on_c, 4, 55, 57
5, 23070, Note_on_c, 4, 65, 59
5, 23070, Note_on_c, 4, 62, 70
5, 23099, Note_on_c, 4, 62, 0
5, 23099, Note_on_c, 4, 55, 0
5, 23099, Note_on_c, 4, 65, 0
5, 23099, Note_on_c, 4, 58, 0
5, 23100, Note_on_c, 4, 58, 52
5, 23100, Note_on_c, 4, 55, 62
5, 23100, Note_on_c, 4, 65, 66
5, 23100, Note_on_c, 4, 62, 63
5, 23129, Note_on_c, 4, 62, 0
5, 23129, Note_on_c, 4, 55, 0
5, 23129, Note_on_c, 4, 65, 0
5, 23129, Note_on_c, 4, 58, 0
5, 23130, Note_on_c, 4, 58, 54
5, 23130, Note_on_c, 4, 55, 63
5, 23130, Note_on_c, 4, 62, 63
5, 23130, Note_on_c, 4, 65, 66
5, 23159, Note_on_c, 4, 65, 0
5, 23159, Note_on_c, 4, 55, 0
5, 23159, Note_on_c, 4, 62, 0
5, 23159, Note_on_c, 4, 58, 0
5, 23189, Note_on_c, 4, 31, 0
5, 23190, Note_on_c, 4, 33, 109
5, 23190, Note_on_c, 4, 58, 78
5, 23190, Note_on_c, 4, 65, 77
5, 23190, Note_on_c, 4, 62, 82
5, 23190, Note_on_c, 4, 57, 72
5, 23219, Note_on_c, 4, 57, 0
5, 23219, Note_on_c, 4, 65, 0
5, 23219, Note_on_c, 4, 62, 0
5, 23219, Note_on_c, 4, 58, 0
5, 23249, Note_on_c, 4, 33, 0
5, 23250, Note_on_c, 4, 65, 96
5, 23250, Note_on_c, 4, 69, 90
5, 23250, Note_on_c, 4, 62, 92
5, 23250, Note_on_c, 4, 58, 87
5, 23250, Note_on_c, 4, 34, 107
5, 23369, Note_on_c, 4, 62, 0
5, 23369, Note_on_c, 4, 65, 0
5, 23369, Note_on_c, 4, 69, 0
5, 23379, Note_on_c, 4, 58, 0
5, 23399, Note_on_c, 4, 34, 0
5, 23400, Note_on_c, 4, 36, 109
5, 23400, Note_on_c, 4, 62, 83
5, 23400, Note_on_c, 4, 67, 78
5, 23400, Note_on_c, 4, 64, 78
5, 23400, Note_on_c, 4, 58, 82
5, 23489, Note_on_c, 4, 58, 0
5, 23489, Note_on_c, 4, 67, 0
5, 23489, Note_on_c, 4, 64, 0
5, 23489, Note_on_c, 4, 62, 0
5, 23519, Note_on_c, 4, 36, 0
5, 23520, Note_on_c, 4, 64, 87
5, 23520, Note_on_c, 4, 67, 79
5, 23520, Note_on_c, 4, 60, 86
5, 23520, Note_on_c, 4, 57, 76
5, 23520, Note_on_c, 4, 29, 109
5, 23549, Note_on_c, 4, 57, 0
5, 23549, Note_on_c, 4, 60, 0
5, 23549, Note_on_c, 4, 64, 0
5, 23549, Note_on_c, 4, 67, 0
5, 23550, Note_on_c, 4, 57, 47
5, 23550, Note_on_c, 4, 60, 55
5, 23550, Note_on_c, 4, 64, 62
5, 23550, Note_on_c, 4, 67, 51
5, 23579, Note_on_c, 4, 67, 0
5, 23579, Note_on_c, 4, 60, 0
5, 23579, Note_on_c, 4, 64, 0
5, 23579, Note_on_c, 4, 57, 0
5, 23580, Note_on_c, 4, 67, 44
5, 23580, Note_on_c, 4, 60, 63
5, 23580, Note_on_c, 4, 64, 60
5, 23580, Note_on_c, 4, 57, 50
5, 23609, Note_on_c, 4, 57, 0
5, 23609, Note_on_c, 4, 60, 0
5, 23609, Note_on_c, 4, 64, 0
5, 23609, Note_on_c, 4, 67, 0
5, 23610, Note_on_c, 4, 67, 60
5, 23610, Note_on_c, 4, 60, 76
5, 23610, Note_on_c, 4, 64, 73
5, 23610, Note_on_c, 4, 57, 66
5, 23639, Note_on_c, 4, 57, 0
5, 23639, Note_on_c, 4, 60, 0
5, 23639, Note_on_c, 4, 64, 0
5, 23639, Note_on_c, 4, 67, 0
5, 23670, Note_on_c, 4, 67, 70
5, 23670, Note_on_c, 4, 60, 73
5, 23670, Note_on_c, 4, 64, 71
5, 23670, Note_on_c, 4, 57, 66
5, 23729, Note_on_c, 4, 57, 0
5, 23729, Note_on_c, 4, 60, 0
5, 23729, Note_on_c, 4, 29, 0
5, 23729, Note_on_c, 4, 67, 0
5, 23729, Note_on_c, 4, 64, 0
5, 23730, Note_on_c, 4, 36, 120
5, 23759, Note_on_c, 4, 36, 0
5, 23760, Note_on_c, 4, 67, 89
5, 23760, Note_on_c, 4, 60, 82
5, 23760, Note_on_c, 4, 63, 69
5, 23760, Note_on_c, 4, 58, 78
5, 23760, Note_on_c, 4, 41, 120
5, 23849, Note_on_c, 4, 58, 0
5, 23849, Note_on_c, 4, 63, 0
5, 23849, Note_on_c, 4, 67, 0
5, 23849, Note_on_c, 4, 60, 0
5, 23880, Note_on_c, 4, 63, 69
5, 23880, Note_on_c, 4, 60, 79
5, 23880, Note_on_c, 4, 67, 86
5, 23880, Note_on_c, 4, 57, 78
5, 23880, Note_on_c, 4, 29, 104
5, 23939, Note_on_c, 4, 41, 0
5, 23969, Note_on_c, 4, 57, 0
5, 23969, Note_on_c, 4, 67, 0
5, 23969, Note_on_c, 4, 63, 0
5, 23969, Note_on_c, 4, 60, 0
5, 23999, Note_on_c, 4, 29, 0
5, 24000, Note_on_c, 4, 65, 81
5, 24000, Note_on_c, 4, 58, 80
5, 24000, Note_on_c, 4, 62, 82
5, 24000, Note_on_c, 4, 57, 73
5, 24000, Note_on_c, 4, 34, 117
5, 24149, Note_on_c, 4, 57, 0
5, 24149, Note_on_c, 4, 62, 0
5, 24149, Note_on_c, 4, 65, 0
5, 24149, Note_on_c, 4, 58, 0
5, 24150, Note_on_c, 4, 65, 77
5, 24150, Note_on_c, 4, 58, 66
5, 24150, Note_on_c, 4, 57, 68
5, 24150, Note_on_c, 4, 62, 79
5, 24209, Note_on_c, 4, 62, 0
5, 24209, Note_on_c, 4, 58, 0
5, 24209, Note_on_c, 4, 34, 0
5, 24209, Note_on_c, 4, 65, 0
5, 24209, Note_on_c, 4, 57, 0
5, 24240, Note_on_c, 4, 34, 112
5, 24240, Note_on_c, 4, 67, 90
5, 24240, Note_on_c, 4, 62, 90
5, 24240, Note_on_c, 4, 58, 90
5, 24240, Note_on_c, 4, 64, 92
5, 24389, Note_on_c, 4, 64, 0
5, 24389, Note_on_c, 4, 62, 0
5, 24389, Note_on_c, 4, 58, 0
5, 24389, Note_on_c, 4, 67, 0
5, 24390, Note_on_c, 4, 67, 82
5, 24390, Note_on_c, 4, 62, 89
5, 24390, Note_on_c, 4, 64, 81
5, 24390, Note_on_c, 4, 58, 80
5, 24479, Note_on_c, 4, 58, 0
5, 24479, Note_on_c, 4, 62, 0
5, 24479, Note_on_c, 4, 34, 0
5, 24479, Note_on_c, 4, 67, 0
5, 24479, Note_on_c, 4, 64, 0
5, 24480, Note_on_c, 4, 60, 90
5, 24480, Note_on_c, 4, 67, 74
5, 24480, Note_on_c, 4, 64, 81
5, 24480, Note_on_c, 4, 57, 77
5, 24480, Note_on_c, 4, 33, 109
5, 24629, Note_on_c, 4, 57, 0
5, 24630, Note_on_c, 4, 57, 67
5, 24659, Note_on_c, 4, 60, 0
5, 24659, Note_on_c, 4, 33, 0
5, 24660, Note_on_c, 4, 60, 55
5, 24689, Note_on_c, 4, 60, 0
5, 24689, Note_on_c, 4, 57, 0
5, 24689, Note_on_c, 4, 64, 0
5, 24689, Note_on_c, 4, 67, 0
5, 24690, Note_on_c, 4, 64, 70
5, 24690, Note_on_c, 4, 33, 109
5, 24719, Note_on_c, 4, 33, 0
5, 24719, Note_on_c, 4, 64, 0
5, 24720, Note_on_c, 4, 62, 84
5, 24720, Note_on_c, 4, 60, 79
5, 24720, Note_on_c, 4, 65, 84
5, 24720, Note_on_c, 4, 57, 70
5, 24720, Note_on_c, 4, 38, 106
5, 24839, Note_on_c, 4, 57, 0
5, 24839, Note_on_c, 4, 65, 0
5, 24839, Note_on_c, 4, 62, 0
5, 24839, Note_on_c, 4, 60, 0
5, 24870, Note_on_c, 4, 65, 78
5, 24870, Note_on_c, 4, 62, 79
5, 24870, Note_on_c, 4, 60, 75
5, 24870, Note_on_c, 4, 57, 72
5, 24959, Note_on_c, 4, 57, 0
5, 24959, Note_on_c, 4, 62, 0
5, 24959, Note_on_c, 4, 38, 0
5, 24959, Note_on_c, 4, 65, 0
5, 24959, Note_on_c, 4, 60, 0
5, 24960, Note_on_c, 4, 58, 93
5, 24960, Note_on_c, 4, 62, 83
5, 24960, Note_on_c, 4, 55, 74
5, 24960, Note_on_c, 4, 65, 87
5, 24960, Note_on_c, 4, 31, 124
5, 25109, Note_on_c, 4, 55, 0
5, 25110, Note_on_c, 4, 55, 57
5, 25139, Note_on_c, 4, 58, 0
5, 25140, Note_on_c, 4, 58, 46
5, 25169, Note_on_c, 4, 58, 0
5, 25169, Note_on_c, 4, 55, 0
5, 25169, Note_on_c, 4, 62, 0
5, 25169, Note_on_c, 4, 65, 0
5, 25170, Note_on_c, 4, 62, 77
5, 25199, Note_on_c, 4, 62, 0
5, 25199, Note_on_c, 4, 31, 0
5, 25200, Note_on_c, 4, 58, 74
5, 25200, Note_on_c, 4, 62, 77
5, 25200, Note_on_c, 4, 65, 78
5, 25200, Note_on_c, 4, 53, 87
5, 25200, Note_on_c, 4, 29, 109
5, 25379, Note_on_c, 4, 29, 0
5, 25379, Note_on_c, 4, 65, 0
5, 25379, Note_on_c, 4, 58, 0
5, 25379, Note_on_c, 4, 62, 0
5, 25379, Note_on_c, 4, 53, 0
5, 25380, Note_on_c, 4, 41, 109
5, 25409, Note_on_c, 4, 41, 0
5, 25410, Note_on_c, 4, 36, 99
5, 25439, Note_on_c, 4, 36, 0
5, 25440, Note_on_c, 4, 62, 83
5, 25440, Note_on_c, 4, 66, 82
5, 25440, Note_on_c, 4, 57, 92
5, 25440, Note_on_c, 4, 64, 87
5, 25440, Note_on_c, 4, 28, 106
5, 25559, Note_on_c, 4, 62, 0
5, 25589, Note_on_c, 4, 64, 0
5, 25589, Note_on_c, 4, 66, 0
5, 25589, Note_on_c, 4, 57, 0
5, 25590, Note_on_c, 4, 62, 99
5, 25619, Note_on_c, 4, 62, 0
5, 25620, Note_on_c, 4, 59, 89
5, 25649, Note_on_c, 4, 59, 0
5, 25650, Note_on_c, 4, 59, 79
5, 25650, Note_on_c, 4, 62, 90
5, 25650, Note_on_c, 4, 64, 99
5, 25650, Note_on_c, 4, 68, 87
5, 25679, Note_on_c, 4, 28, 0
5, 25680, Note_on_c, 4, 40, 114
5, 25769, Note_on_c, 4, 40, 0
5, 25770, Note_on_c, 4, 56, 117
5, 25800, Note_on_c, 4, 52, 111
5, 25829, Note_on_c, 4, 56, 0
5, 25829, Note_on_c, 4, 68, 0
5, 25829, Note_on_c, 4, 64, 0
5, 25829, Note_on_c, 4, 59, 0
5, 25829, Note_on_c, 4, 62, 0
5, 25830, Note_on_c, 4, 57, 99
5, 25859, Note_on_c, 4, 57, 0
5, 25859, Note_on_c, 4, 52, 0
5, 25860, Note_on_c, 4, 59, 124
5, 25860, Note_on_c, 4, 47, 120
5, 25889, Note_on_c, 4, 47, 0
5, 25889, Note_on_c, 4, 59, 0
5, 25890, Note_on_c, 4, 40, 111
5, 25919, Note_on_c, 4, 40, 0
5, 25920, Note_on_c, 4, 64, 97
5, 25920, Note_on_c, 4, 57, 99
5, 25920, Note_on_c, 4, 61, 84
5, 25920, Note_on_c, 4, 56, 99
5, 25920, Note_on_c, 4, 45, 109
5, 25920, Note_on_c, 4, 33, 106
5, 25989, Note_on_c, 4, 57, 0
5, 26009, Note_on_c, 4, 61, 0
5, 26009, Note_on_c, 4, 56, 0
5, 26009, Note_on_c, 4, 64, 0
5, 26009, Note_on_c, 4, 33, 0
5, 26009, Note_on_c, 4, 45, 0
5, 26010, Note_on_c, 4, 59, 117
5, 26010, Note_on_c, 4, 64, 106
5, 26010, Note_on_c, 4, 56, 103
5, 26010, Note_on_c, 4, 32, 90
5, 26010, Note_on_c, 4, 44, 93
5, 26069, Note_on_c, 4, 56, 0
5, 26069, Note_on_c, 4, 59, 0
5, 26069, Note_on_c, 4, 64, 0
5, 26070, Note_on_c, 4, 59, 87
5, 26099, Note_on_c, 4, 59, 0
5, 26099, Note_on_c, 4, 32, 0
5, 26099, Note_on_c, 4, 44, 0
5, 26130, Note_on_c, 4, 57, 102
5, 26130, Note_on_c, 4, 64, 92
5, 26130, Note_on_c, 4, 42, 96
5, 26130, Note_on_c, 4, 61, 72
5, 26130, Note_on_c, 4, 54, 103
5, 26130, Note_on_c, 4, 30, 103
5, 26159, Note_on_c, 4, 30, 0
5, 26159, Note_on_c, 4, 64, 0
5, 26159, Note_on_c, 4, 42, 0
5, 26159, Note_on_c, 4, 57, 0
5, 26159, Note_on_c, 4, 54, 0
5, 26159, Note_on_c, 4, 61, 0
5, 26220, Note_on_c, 4, 63, 90
5, 26220, Note_on_c, 4, 56, 96
5, 26220, Note_on_c, 4, 58, 93
5, 26220, Note_on_c, 4, 46, 93
5, 26220, Note_on_c, 4, 53, 83
5, 26220, Note_on_c, 4, 34, 93
5, 26309, Note_on_c, 4, 34, 0
5, 26309, Note_on_c, 4, 56, 0
5, 26309, Note_on_c, 4, 58, 0
5, 26309, Note_on_c, 4, 46, 0
5, 26309, Note_on_c, 4, 53, 0
5, 26310, Note_on_c, 4, 61, 69
5, 26339, Note_on_c, 4, 61, 0
5, 26339, Note_on_c, 4, 63, 0
5, 26340, Note_on_c, 4, 60, 83
5, 26369, Note_on_c, 4, 60, 0
5, 26370, Note_on_c, 4, 58, 93
5, 26399, Note_on_c, 4, 58, 0
5, 26400, Note_on_c, 4, 44, 82
5, 26400, Note_on_c, 4, 60, 106
5, 26400, Note_on_c, 4, 32, 93
5, 26400, Note_on_c, 4, 56, 99
5, 26429, Note_on_c, 4, 56, 0
5, 26429, Note_on_c, 4, 44, 0
5, 26429, Note_on_c, 4, 60, 0
5, 26429, Note_on_c, 4, 32, 0
5, 26490, Note_on_c, 4, 61, 82
5, 26490, Note_on_c, 4, 65, 102
5, 26490, Note_on_c, 4, 60, 96
5, 26490, Note_on_c, 4, 56, 90
5, 26490, Note_on_c, 4, 49, 90
5, 26490, Note_on_c, 4, 37, 76
5, 26519, Note_on_c, 4, 37, 0
5, 26519, Note_on_c, 4, 65, 0
5, 26519, Note_on_c, 4, 60, 0
5, 26519, Note_on_c, 4, 61, 0
5, 26519, Note_on_c, 4, 49, 0
5, 26519, Note_on_c, 4, 56, 0
5, 26580, Note_on_c, 4, 61, 107
5, 26580, Note_on_c, 4, 58, 99
5, 26580, Note_on_c, 4, 46, 84
5, 26580, Note_on_c, 4, 34, 87
5, 26609, Note_on_c, 4, 34, 0
5, 26609, Note_on_c, 4, 61, 0
5, 26609, Note_on_c, 4, 58, 0
5, 26609, Note_on_c, 4, 46, 0
5, 26670, Note_on_c, 4, 39, 84
5, 26670, Note_on_c, 4, 51, 90
5, 26670, Note_on_c, 4, 58, 84
5, 26670, Note_on_c, 4, 61, 96
5, 26670, Note_on_c, 4, 63, 96
5, 26670, Note_on_c, 4, 55, 87
5, 26729, Note_on_c, 4, 55, 0
5, 26729, Note_on_c, 4, 51, 0
5, 26729, Note_on_c, 4, 58, 0
5, 26729, Note_on_c, 4, 39, 0
5, 26729, Note_on_c, 4, 63, 0
5, 26729, Note_on_c, 4, 61, 0
5, 26880, Note_on_c, 4, 41, 86
5, 26880, Note_on_c, 4, 67, 83
5, 26880, Note_on_c, 4, 29, 102
5, 26880, Note_on_c, 4, 60, 79
5, 26880, Note_on_c, 4, 57, 72
5, 26880, Note_on_c, 4, 64, 82
5, 26909, Note_on_c, 4, 64, 0
5, 26909, Note_on_c, 4, 67, 0
5, 26909, Note_on_c, 4, 29, 0
5, 26909, Note_on_c, 4, 41, 0
5, 26909, Note_on_c, 4, 57, 0
5, 26909, Note_on_c, 4, 60, 0
5, 26910, Note_on_c, 4, 67, 34
5, 26910, Note_on_c, 4, 64, 55
5, 26910, Note_on_c, 4, 57, 35
5, 26910, Note_on_c, 4, 60, 51
5, 26939, Note_on_c, 4, 60, 0
5, 26939, Note_on_c, 4, 67, 0
5, 26939, Note_on_c, 4, 64, 0
5, 26939, Note_on_c, 4, 57, 0
5, 26940, Note_on_c, 4, 65, 52
5, 26940, Note_on_c, 4, 62, 56
5, 26940, Note_on_c, 4, 57, 52
5, 26940, Note_on_c, 4, 60, 62
5, 26969, Note_on_c, 4, 60, 0
5, 26969, Note_on_c, 4, 65, 0
5, 26969, Note_on_c, 4, 62, 0
5, 26969, Note_on_c, 4, 57, 0
5, 26970, Note_on_c, 4, 60, 74
5, 26970, Note_on_c, 4, 67, 74
5, 26970, Note_on_c, 4, 64, 75
5, 26970, Note_on_c, 4, 57, 62
5, 26999, Note_on_c, 4, 57, 0
5, 26999, Note_on_c, 4, 60, 0
5, 26999, Note_on_c, 4, 67, 0
5, 26999, Note_on_c, 4, 64, 0
5, 27030, Note_on_c, 4, 57, 68
5, 27030, Note_on_c, 4, 62, 78
5, 27030, Note_on_c, 4, 65, 75
5, 27030, Note_on_c, 4, 60, 79
5, 27059, Note_on_c, 4, 60, 0
5, 27059, Note_on_c, 4, 57, 0
5, 27059, Note_on_c, 4, 62, 0
5, 27059, Note_on_c, 4, 65, 0
5, 27060, Note_on_c, 4, 57, 52
5, 27089, Note_on_c, 4, 57, 0
5, 27090, Note_on_c, 4, 33, 79
5, 27090, Note_on_c, 4, 45, 64
5, 27119, Note_on_c, 4, 45, 0
5, 27119, Note_on_c, 4, 33, 0
5, 27120, Note_on_c, 4, 46, 84
5, 27120, Note_on_c, 4, 34, 107
5, 27120, Note_on_c, 4, 58, 76
5, 27120, Note_on_c, 4, 55, 72
5, 27120, Note_on_c, 4, 60, 77
5, 27120, Note_on_c, 4, 64, 82
5, 27149, Note_on_c, 4, 64, 0
5, 27149, Note_on_c, 4, 34, 0
5, 27149, Note_on_c, 4, 58, 0
5, 27149, Note_on_c, 4, 46, 0
5, 27149, Note_on_c, 4, 60, 0
5, 27149, Note_on_c, 4, 55, 0
5, 27150, Note_on_c, 4, 58, 46
5, 27150, Note_on_c, 4, 55, 60
5, 27150, Note_on_c, 4, 64, 51
5, 27150, Note_on_c, 4, 60, 49
5, 27179, Note_on_c, 4, 60, 0
5, 27179, Note_on_c, 4, 58, 0
5, 27179, Note_on_c, 4, 55, 0
5, 27179, Note_on_c, 4, 64, 0
5, 27180, Note_on_c, 4, 62, 63
5, 27180, Note_on_c, 4, 58, 40
5, 27180, Note_on_c, 4, 53, 59
5, 27209, Note_on_c, 4, 53, 0
5, 27209, Note_on_c, 4, 58, 0
5, 27209, Note_on_c, 4, 62, 0
5, 27210, Note_on_c, 4, 58, 54
5, 27210, Note_on_c, 4, 55, 82
5, 27210, Note_on_c, 4, 64, 78
5, 27210, Note_on_c, 4, 60, 67
5, 27239, Note_on_c, 4, 60, 0
5, 27239, Note_on_c, 4, 58, 0
5, 27239, Note_on_c, 4, 55, 0
5, 27239, Note_on_c, 4, 64, 0
5, 27270, Note_on_c, 4, 58, 66
5, 27270, Note_on_c, 4, 53, 78
5, 27270, Note_on_c, 4, 62, 84
5, 27299, Note_on_c, 4, 53, 0
5, 27299, Note_on_c, 4, 58, 0
5, 27300, Note_on_c, 4, 53, 51
5, 27329, Note_on_c, 4, 53, 0
5, 27329, Note_on_c, 4, 62, 0
5, 27330, Note_on_c, 4, 58, 50
5, 27330, Note_on_c, 4, 34, 47
5, 27330, Note_on_c, 4, 46, 47
5, 27359, Note_on_c, 4, 46, 0
5, 27359, Note_on_c, 4, 34, 0
5, 27359, Note_on_c, 4, 58, 0
5, 27360, Note_on_c, 4, 57, 89
5, 27360, Note_on_c, 4, 45, 81
5, 27360, Note_on_c, 4, 64, 79
5, 27360, Note_on_c, 4, 60, 83
5, 27360, Note_on_c, 4, 33, 87
5, 27360, Note_on_c, 4, 55, 78
5, 27389, Note_on_c, 4, 55, 0
5, 27389, Note_on_c, 4, 45, 0
5, 27389, Note_on_c, 4, 64, 0
5, 27389, Note_on_c, 4, 57, 0
5, 27389, Note_on_c, 4, 33, 0
5, 27389, Note_on_c, 4, 60, 0
5, 27390, Note_on_c, 4, 64, 38
5, 27390, Note_on_c, 4, 60, 51
5, 27390, Note_on_c, 4, 57, 54
5, 27390, Note_on_c, 4, 55, 37
5, 27419, Note_on_c, 4, 55, 0
5, 27419, Note_on_c, 4, 64, 0
5, 27419, Note_on_c, 4, 60, 0
5, 27419, Note_on_c, 4, 57, 0
5, 27420, Note_on_c, 4, 62, 71
5, 27420, Note_on_c, 4, 55, 59
5, 27420, Note_on_c, 4, 57, 60
5, 27449, Note_on_c, 4, 57, 0
5, 27449, Note_on_c, 4, 55, 0
5, 27449, Note_on_c, 4, 62, 0
5, 27450, Note_on_c, 4, 64, 74
5, 27450, Note_on_c, 4, 57, 79
5, 27450, Note_on_c, 4, 60, 70
5, 27450, Note_on_c, 4, 55, 66
5, 27479, Note_on_c, 4, 55, 0
5, 27479, Note_on_c, 4, 64, 0
5, 27479, Note_on_c, 4, 57, 0
5, 27479, Note_on_c, 4, 60, 0
5, 27510, Note_on_c, 4, 57, 74
5, 27510, Note_on_c, 4, 55, 70
5, 27510, Note_on_c, 4, 62, 86
5, 27539, Note_on_c, 4, 55, 0
5, 27539, Note_on_c, 4, 57, 0
5, 27540, Note_on_c, 4, 55, 60
5, 27569, Note_on_c, 4, 55, 0
5, 27569, Note_on_c, 4, 62, 0
5, 27570, Note_on_c, 4, 33, 68
5, 27570, Note_on_c, 4, 57, 63
5, 27570, Note_on_c, 4, 45, 57
5, 27599, Note_on_c, 4, 45, 0
5, 27599, Note_on_c, 4, 57, 0
5, 27599, Note_on_c, 4, 33, 0
5, 27600, Note_on_c, 4, 57, 89
5, 27600, Note_on_c, 4, 64, 81
5, 27600, Note_on_c, 4, 60, 84
5, 27600, Note_on_c, 4, 55, 82
5, 27600, Note_on_c, 4, 38, 96
5, 27600, Note_on_c, 4, 50, 87
5, 27629, Note_on_c, 4, 50, 0
5, 27629, Note_on_c, 4, 64, 0
5, 27629, Note_on_c, 4, 60, 0
5, 27629, Note_on_c, 4, 57, 0
5, 27629, Note_on_c, 4, 38, 0
5, 27629, Note_on_c, 4, 55, 0
5, 27630, Note_on_c, 4, 64, 51
5, 27630, Note_on_c, 4, 57, 59
5, 27630, Note_on_c, 4, 60, 54
5, 27630, Note_on_c, 4, 55, 49
5, 27659, Note_on_c, 4, 55, 0
5, 27659, Note_on_c, 4, 64, 0
5, 27659, Note_on_c, 4, 57, 0
5, 27659, Note_on_c, 4, 60, 0
5, 27660, Note_on_c, 4, 55, 65
5, 27660, Note_on_c, 4, 57, 59
5, 27660, Note_on_c, 4, 64, 57
5, 27660, Note_on_c, 4, 60, 55
5, 27689, Note_on_c, 4, 60, 0
5, 27689, Note_on_c, 4, 55, 0
5, 27689, Note_on_c, 4, 57, 0
5, 27689, Note_on_c, 4, 64, 0
5, 27690, Note_on_c, 4, 62, 75
5, 27690, Note_on_c, 4, 65, 74
5, 27690, Note_on_c, 4, 60, 82
5, 27690, Note_on_c, 4, 57, 79
5, 27719, Note_on_c, 4, 57, 0
5, 27719, Note_on_c, 4, 62, 0
5, 27719, Note_on_c, 4, 65, 0
5, 27719, Note_on_c, 4, 60, 0
5, 27750, Note_on_c, 4, 65, 83
5, 27750, Note_on_c, 4, 57, 73
5, 27750, Note_on_c, 4, 60, 99
5, 27750, Note_on_c, 4, 62, 94
5, 27779, Note_on_c, 4, 60, 0
5, 27779, Note_on_c, 4, 57, 0
5, 27780, Note_on_c, 4, 57, 63
5, 27809, Note_on_c, 4, 57, 0
5, 27809, Note_on_c, 4, 65, 0
5, 27809, Note_on_c, 4, 62, 0
5, 27810, Note_on_c, 4, 38, 66
5, 27810, Note_on_c, 4, 50, 56
5, 27810, Note_on_c, 4, 60, 70
5, 27839, Note_on_c, 4, 60, 0
5, 27839, Note_on_c, 4, 50, 0
5, 27839, Note_on_c, 4, 38, 0
5, 27840, Note_on_c, 4, 65, 86
5, 27840, Note_on_c, 4, 58, 96
5, 27840, Note_on_c, 4, 62, 94
5, 27840, Note_on_c, 4, 55, 96
5, 27840, Note_on_c, 4, 43, 77
5, 27840, Note_on_c, 4, 31, 90
5, 27929, Note_on_c, 4, 43, 0
5, 27960, Note_on_c, 4, 43, 60
5, 27989, Note_on_c, 4, 55, 0
5, 27989, Note_on_c, 4, 31, 0
5, 28019, Note_on_c, 4, 62, 0
5, 28019, Note_on_c, 4, 58, 0
5, 28020, Note_on_c, 4, 55, 59
5, 28049, Note_on_c, 4, 55, 0
5, 28049, Note_on_c, 4, 43, 0
5, 28049, Note_on_c, 4, 65, 0
5, 28050, Note_on_c, 4, 31, 55
5, 28079, Note_on_c, 4, 31, 0
5, 28080, Note_on_c, 4, 62, 90
5, 28080, Note_on_c, 4, 65, 92
5, 28080, Note_on_c, 4, 69, 87
5, 28080, Note_on_c, 4, 58, 96
5, 28080, Note_on_c, 4, 34, 93
5, 28080, Note_on_c, 4, 46, 62
5, 28139, Note_on_c, 4, 69, 0
5, 28169, Note_on_c, 4, 65, 0
5, 28169, Note_on_c, 4, 58, 0
5, 28169, Note_on_c, 4, 62, 0
5, 28169, Note_on_c, 4, 46, 0
5, 28199, Note_on_c, 4, 34, 0
5, 28200, Note_on_c, 4, 67, 83
5, 28200, Note_on_c, 4, 64, 92
5, 28200, Note_on_c, 4, 57, 76
5, 28200, Note_on_c, 4, 60, 99
5, 28200, Note_on_c, 4, 33, 74
5, 28200, Note_on_c, 4, 45, 86
5, 28289, Note_on_c, 4, 45, 0
5, 28289, Note_on_c, 4, 67, 0
5, 28289, Note_on_c, 4, 33, 0
5, 28319, Note_on_c, 4, 64, 0
5, 28319, Note_on_c, 4, 60, 0
5, 28319, Note_on_c, 4, 57, 0
5, 28320, Note_on_c, 4, 65, 89
5, 28320, Note_on_c, 4, 60, 77
5, 28320, Note_on_c, 4, 57, 67
5, 28320, Note_on_c, 4, 62, 92
5, 28320, Note_on_c, 4, 50, 82
5, 28320, Note_on_c, 4, 38, 77
5, 28439, Note_on_c, 4, 50, 0
5, 28440, Note_on_c, 4, 50, 57
5, 28499, Note_on_c, 4, 50, 0
5, 28499, Note_on_c, 4, 60, 0
5, 28499, Note_on_c, 4, 62, 0
5, 28529, Note_on_c, 4, 65, 0
5, 28529, Note_on_c, 4, 57, 0
5, 28529, Note_on_c, 4, 38, 0
5, 28530, Note_on_c, 4, 59, 96
5, 28530, Note_on_c, 4, 62, 109
5, 28530, Note_on_c, 4, 65, 109
5, 28530, Note_on_c, 4, 69, 89
5, 28530, Note_on_c, 4, 71, 94
5, 28530, Note_on_c, 4, 47, 81
5, 28530, Note_on_c, 4, 35, 106
5, 28559, Note_on_c, 4, 71, 0
5, 28559, Note_on_c, 4, 69, 0
5, 28590, Note_on_c, 4, 69, 49
5, 28709, Note_on_c, 4, 69, 0
5, 28709, Note_on_c, 4, 35, 0
5, 28709, Note_on_c, 4, 65, 0
5, 28709, Note_on_c, 4, 59, 0
5, 28709, Note_on_c, 4, 62, 0
5, 28709, Note_on_c, 4, 47, 0
5, 28740, Note_on_c, 4, 61, 90
5, 28740, Note_on_c, 4, 68, 84
5, 28740, Note_on_c, 4, 65, 99
5, 28740, Note_on_c, 4, 58, 99
5, 28740, Note_on_c, 4, 34, 87
5, 28740, Note_on_c, 4, 46, 90
5, 29069, Note_on_c, 4, 46, 0
5, 29069, Note_on_c, 4, 68, 0
5, 29069, Note_on_c, 4, 65, 0
5, 29069, Note_on_c, 4, 61, 0
5, 29069, Note_on_c, 4, 34, 0
5, 29069, Note_on_c, 4, 58, 0
5, 29280, Note_on_c, 4, 60, 90
5, 29280, Note_on_c, 4, 67, 79
5, 29280, Note_on_c, 4, 64, 96
5, 29280, Note_on_c, 4, 57, 76
5, 29280, Note_on_c, 4, 29, 120
5, 29309, Note_on_c, 4, 57, 0
5, 29309, Note_on_c, 4, 64, 0
5, 29309, Note_on_c, 4, 60, 0
5, 29309, Note_on_c, 4, 67, 0
5, 29310, Note_on_c, 4, 67, 57
5, 29310, Note_on_c, 4, 60, 60
5, 29310, Note_on_c, 4, 64, 62
5, 29310, Note_on_c, 4, 57, 55
5, 29339, Note_on_c, 4, 57, 0
5, 29339, Note_on_c, 4, 60, 0
5, 29339, Note_on_c, 4, 29, 0
5, 29339, Note_on_c, 4, 67, 0
5, 29339, Note_on_c, 4, 64, 0
5, 29340, Note_on_c, 4, 65, 75
5, 29340, Note_on_c, 4, 62, 77
5, 29340, Note_on_c, 4, 60, 70
5, 29340, Note_on_c, 4, 57, 63
5, 29369, Note_on_c, 4, 57, 0
5, 29369, Note_on_c, 4, 65, 0
5, 29369, Note_on_c, 4, 62, 0
5, 29369, Note_on_c, 4, 60, 0
5, 29370, Note_on_c, 4, 60, 70
5, 29370, Note_on_c, 4, 57, 62
5, 29370, Note_on_c, 4, 67, 70
5, 29370, Note_on_c, 4, 64, 81
5, 29399, Note_on_c, 4, 64, 0
5, 29399, Note_on_c, 4, 60, 0
5, 29399, Note_on_c, 4, 57, 0
5, 29399, Note_on_c, 4, 67, 0
5, 29430, Note_on_c, 4, 60, 83
5, 29430, Note_on_c, 4, 62, 84
5, 29430, Note_on_c, 4, 57, 71
5, 29430, Note_on_c, 4, 65, 77
5, 29489, Note_on_c, 4, 65, 0
5, 29489, Note_on_c, 4, 60, 0
5, 29489, Note_on_c, 4, 62, 0
5, 29489, Note_on_c, 4, 57, 0
5, 29490, Note_on_c, 4, 29, 109
5, 29519, Note_on_c, 4, 29, 0
5, 29520, Note_on_c, 4, 58, 82
5, 29520, Note_on_c, 4, 60, 83
5, 29520, Note_on_c, 4, 64, 79
5, 29520, Note_on_c, 4, 55, 75
5, 29520, Note_on_c, 4, 34, 127
5, 29549, Note_on_c, 4, 55, 0
5, 29549, Note_on_c, 4, 64, 0
5, 29549, Note_on_c, 4, 58, 0
5, 29549, Note_on_c, 4, 60, 0
5, 29550, Note_on_c, 4, 58, 39
5, 29550, Note_on_c, 4, 55, 57
5, 29550, Note_on_c, 4, 60, 54
5, 29550, Note_on_c, 4, 64, 42
5, 29579, Note_on_c, 4, 64, 0
5, 29579, Note_on_c, 4, 55, 0
5, 29579, Note_on_c, 4, 34, 0
5, 29579, Note_on_c, 4, 58, 0
5, 29579, Note_on_c, 4, 60, 0
5, 29580, Note_on_c, 4, 62, 62
5, 29580, Note_on_c, 4, 58, 50
5, 29580, Note_on_c, 4, 53, 66
5, 29609, Note_on_c, 4, 53, 0
5, 29609, Note_on_c, 4, 58, 0
5, 29609, Note_on_c, 4, 62, 0
5, 29610, Note_on_c, 4, 60, 74
5, 29610, Note_on_c, 4, 58, 63
5, 29610, Note_on_c, 4, 55, 73
5, 29610, Note_on_c, 4, 64, 73
5, 29639, Note_on_c, 4, 64, 0
5, 29639, Note_on_c, 4, 60, 0
5, 29639, Note_on_c, 4, 58, 0
5, 29639, Note_on_c, 4, 55, 0
5, 29670, Note_on_c, 4, 62, 78
5, 29670, Note_on_c, 4, 58, 74
5, 29670, Note_on_c, 4, 53, 67
5, 29729, Note_on_c, 4, 53, 0
5, 29729, Note_on_c, 4, 58, 0
5, 29759, Note_on_c, 4, 62, 0
5, 29760, Note_on_c, 4, 33, 127
5, 29760, Note_on_c, 4, 64, 74
5, 29760, Note_on_c, 4, 60, 81
5, 29760, Note_on_c, 4, 55, 76
5, 29760, Note_on_c, 4, 57, 83
5, 29789, Note_on_c, 4, 57, 0
5, 29789, Note_on_c, 4, 60, 0
5, 29789, Note_on_c, 4, 55, 0
5, 29789, Note_on_c, 4, 64, 0
5, 29790, Note_on_c, 4, 64, 55
5, 29790, Note_on_c, 4, 60, 59
5, 29790, Note_on_c, 4, 57, 62
5, 29790, Note_on_c, 4, 55, 42
5, 29819, Note_on_c, 4, 55, 0
5, 29819, Note_on_c, 4, 60, 0
5, 29819, Note_on_c, 4, 33, 0
5, 29819, Note_on_c, 4, 64, 0
5, 29819, Note_on_c, 4, 57, 0
5, 29820, Note_on_c, 4, 62, 65
5, 29820, Note_on_c, 4, 55, 64
5, 29820, Note_on_c, 4, 57, 64
5, 29849, Note_on_c, 4, 57, 0
5, 29849, Note_on_c, 4, 55, 0
5, 29849, Note_on_c, 4, 62, 0
5, 29850, Note_on_c, 4, 64, 70
5, 29850, Note_on_c, 4, 55, 70
5, 29850, Note_on_c, 4, 57, 71
5, 29850, Note_on_c, 4, 60, 66
5, 29879, Note_on_c, 4, 60, 0
5, 29879, Note_on_c, 4, 64, 0
5, 29879, Note_on_c, 4, 55, 0
5, 29879, Note_on_c, 4, 57, 0
5, 29910, Note_on_c, 4, 62, 83
5, 29910, Note_on_c, 4, 57, 75
5, 29910, Note_on_c, 4, 60, 81
5, 29910, Note_on_c, 4, 55, 66
5, 29969, Note_on_c, 4, 55, 0
5, 29969, Note_on_c, 4, 62, 0
5, 29969, Note_on_c, 4, 57, 0
5, 29969, Note_on_c, 4, 60, 0
5, 29970, Note_on_c, 4, 33, 124
5, 29999, Note_on_c, 4, 33, 0
5, 30000, Note_on_c, 4, 64, 70
5, 30000, Note_on_c, 4, 57, 67
5, 30000, Note_on_c, 4, 55, 66
5, 30000, Note_on_c, 4, 60, 70
5, 30000, Note_on_c, 4, 38, 111
5, 30029, Note_on_c, 4, 60, 0
5, 30029, Note_on_c, 4, 55, 0
5, 30029, Note_on_c, 4, 64, 0
5, 30029, Note_on_c, 4, 57, 0
5, 30030, Note_on_c, 4, 55, 53
5, 30030, Note_on_c, 4, 60, 60
5, 30030, Note_on_c, 4, 57, 62
5, 30030, Note_on_c, 4, 64, 58
5, 30059, Note_on_c, 4, 64, 0
5, 30059, Note_on_c, 4, 60, 0
5, 30059, Note_on_c, 4, 38, 0
5, 30059, Note_on_c, 4, 55, 0
5, 30059, Note_on_c, 4, 57, 0
5, 30060, Note_on_c, 4, 55, 62
5, 30060, Note_on_c, 4, 64, 61
5, 30060, Note_on_c, 4, 57, 66
5, 30060, Note_on_c, 4, 60, 58
5, 30089, Note_on_c, 4, 60, 0
5, 30089, Note_on_c, 4, 55, 0
5, 30089, Note_on_c, 4, 64, 0
5, 30089, Note_on_c, 4, 57, 0
5, 30090, Note_on_c, 4, 62, 74
5, 30090, Note_on_c, 4, 65, 79
5, 30090, Note_on_c, 4, 60, 83
5, 30090, Note_on_c, 4, 57, 72
5, 30119, Note_on_c, 4, 57, 0
5, 30119, Note_on_c, 4, 62, 0
5, 30119, Note_on_c, 4, 65, 0
5, 30119, Note_on_c, 4, 60, 0
5, 30150, Note_on_c, 4, 62, 83
5, 30150, Note_on_c, 4, 65, 86
5, 30150, Note_on_c, 4, 60, 77
5, 30150, Note_on_c, 4, 57, 65
5, 30209, Note_on_c, 4, 60, 0
5, 30209, Note_on_c, 4, 62, 0
5, 30209, Note_on_c, 4, 65, 0
5, 30239, Note_on_c, 4, 57, 0
5, 30240, Note_on_c, 4, 31, 124
5, 30240, Note_on_c, 4, 62, 83
5, 30240, Note_on_c, 4, 65, 73
5, 30240, Note_on_c, 4, 58, 78
5, 30240, Note_on_c, 4, 55, 70
5, 30269, Note_on_c, 4, 55, 0
5, 30269, Note_on_c, 4, 65, 0
5, 30269, Note_on_c, 4, 58, 0
5, 30269, Note_on_c, 4, 62, 0
5, 30270, Note_on_c, 4, 65, 49
5, 30270, Note_on_c, 4, 55, 53
5, 30270, Note_on_c, 4, 62, 70
5, 30270, Note_on_c, 4, 58, 47
5, 30299, Note_on_c, 4, 58, 0
5, 30299, Note_on_c, 4, 55, 0
5, 30299, Note_on_c, 4, 62, 0
5, 30299, Note_on_c, 4, 65, 0
5, 30300, Note_on_c, 4, 58, 51
5, 30300, Note_on_c, 4, 55, 62
5, 30300, Note_on_c, 4, 62, 62
5, 30300, Note_on_c, 4, 65, 60
5, 30329, Note_on_c, 4, 65, 0
5, 30329, Note_on_c, 4, 55, 0
5, 30329, Note_on_c, 4, 62, 0
5, 30329, Note_on_c, 4, 58, 0
5, 30330, Note_on_c, 4, 58, 63
5, 30330, Note_on_c, 4, 62, 70
5, 30330, Note_on_c, 4, 65, 70
5, 30330, Note_on_c, 4, 55, 66
5, 30359, Note_on_c, 4, 55, 0
5, 30359, Note_on_c, 4, 62, 0
5, 30359, Note_on_c, 4, 65, 0
5, 30359, Note_on_c, 4, 58, 0
5, 30389, Note_on_c, 4, 31, 0
5, 30390, Note_on_c, 4, 65, 81
5, 30390, Note_on_c, 4, 58, 84
5, 30390, Note_on_c, 4, 62, 89
5, 30390, Note_on_c, 4, 57, 78
5, 30390, Note_on_c, 4, 33, 120
5, 30419, Note_on_c, 4, 57, 0
5, 30419, Note_on_c, 4, 62, 0
5, 30419, Note_on_c, 4, 65, 0
5, 30419, Note_on_c, 4, 58, 0
5, 30449, Note_on_c, 4, 33, 0
5, 30450, Note_on_c, 4, 62, 89
5, 30450, Note_on_c, 4, 65, 84
5, 30450, Note_on_c, 4, 58, 80
5, 30450, Note_on_c, 4, 69, 89
5, 30450, Note_on_c, 4, 34, 117
5, 30569, Note_on_c, 4, 69, 0
5, 30569, Note_on_c, 4, 58, 0
5, 30569, Note_on_c, 4, 62, 0
5, 30569, Note_on_c, 4, 65, 0
5, 30599, Note_on_c, 4, 34, 0
5, 30600, Note_on_c, 4, 36, 120
5, 30600, Note_on_c, 4, 64, 75
5, 30600, Note_on_c, 4, 67, 89
5, 30600, Note_on_c, 4, 62, 77
5, 30600, Note_on_c, 4, 58, 67
5, 30689, Note_on_c, 4, 58, 0
5, 30689, Note_on_c, 4, 67, 0
5, 30689, Note_on_c, 4, 62, 0
5, 30689, Note_on_c, 4, 64, 0
5, 30719, Note_on_c, 4, 36, 0
5, 30720, Note_on_c, 4, 60, 90
5, 30720, Note_on_c, 4, 64, 97
5, 30720, Note_on_c, 4, 57, 73
5, 30720, Note_on_c, 4, 67, 84
5, 30720, Note_on_c, 4, 29, 120
5, 30749, Note_on_c, 4, 67, 0
5, 30749, Note_on_c, 4, 57, 0
5, 30749, Note_on_c, 4, 60, 0
5, 30749, Note_on_c, 4, 64, 0
5, 30750, Note_on_c, 4, 67, 51
5, 30750, Note_on_c, 4, 64, 62
5, 30750, Note_on_c, 4, 60, 60
5, 30750, Note_on_c, 4, 57, 47
5, 30779, Note_on_c, 4, 57, 0
5, 30779, Note_on_c, 4, 64, 0
5, 30779, Note_on_c, 4, 29, 0
5, 30779, Note_on_c, 4, 67, 0
5, 30779, Note_on_c, 4, 60, 0
5, 30780, Note_on_c, 4, 62, 66
5, 30780, Note_on_c, 4, 65, 70
5, 30780, Note_on_c, 4, 57, 62
5, 30780, Note_on_c, 4, 60, 66
5, 30809, Note_on_c, 4, 60, 0
5, 30809, Note_on_c, 4, 62, 0
5, 30809, Note_on_c, 4, 65, 0
5, 30809, Note_on_c, 4, 57, 0
5, 30810, Note_on_c, 4, 60, 70
5, 30810, Note_on_c, 4, 67, 69
5, 30810, Note_on_c, 4, 64, 67
5, 30810, Note_on_c, 4, 57, 57
5, 30839, Note_on_c, 4, 57, 0
5, 30839, Note_on_c, 4, 60, 0
5, 30839, Note_on_c, 4, 67, 0
5, 30839, Note_on_c, 4, 64, 0
5, 30870, Note_on_c, 4, 62, 78
5, 30870, Note_on_c, 4, 65, 76
5, 30870, Note_on_c, 4, 60, 83
5, 30870, Note_on_c, 4, 57, 66
5, 30929, Note_on_c, 4, 57, 0
5, 30929, Note_on_c, 4, 62, 0
5, 30929, Note_on_c, 4, 65, 0
5, 30929, Note_on_c, 4, 60, 0
5, 30930, Note_on_c, 4, 29, 104
5, 30959, Note_on_c, 4, 29, 0
5, 30960, Note_on_c, 4, 60, 74
5, 30960, Note_on_c, 4, 64, 77
5, 30960, Note_on_c, 4, 58, 78
5, 30960, Note_on_c, 4, 55, 78
5, 30960, Note_on_c, 4, 34, 117
5, 30989, Note_on_c, 4, 55, 0
5, 30989, Note_on_c, 4, 58, 0
5, 30989, Note_on_c, 4, 60, 0
5, 30989, Note_on_c, 4, 64, 0
5, 30990, Note_on_c, 4, 64, 62
5, 30990, Note_on_c, 4, 55, 64
5, 30990, Note_on_c, 4, 58, 44
5, 30990, Note_on_c, 4, 60, 63
5, 31019, Note_on_c, 4, 60, 0
5, 31019, Note_on_c, 4, 55, 0
5, 31019, Note_on_c, 4, 34, 0
5, 31019, Note_on_c, 4, 64, 0
5, 31019, Note_on_c, 4, 58, 0
5, 31020, Note_on_c, 4, 62, 73
5, 31020, Note_on_c, 4, 58, 66
5, 31020, Note_on_c, 4, 53, 72
5, 31020, Note_on_c, 4, 60, 70
5, 31049, Note_on_c, 4, 60, 0
5, 31049, Note_on_c, 4, 62, 0
5, 31049, Note_on_c, 4, 58, 0
5, 31049, Note_on_c, 4, 53, 0
5, 31050, Note_on_c, 4, 64, 71
5, 31050, Note_on_c, 4, 58, 54
5, 31050, Note_on_c, 4, 60, 63
5, 31050, Note_on_c, 4, 55, 70
5, 31079, Note_on_c, 4, 55, 0
5, 31079, Note_on_c, 4, 64, 0
5, 31079, Note_on_c, 4, 58, 0
5, 31079, Note_on_c, 4, 60, 0
5, 31110, Note_on_c, 4, 58, 84
5, 31110, Note_on_c, 4, 62, 97
5, 31110, Note_on_c, 4, 53, 79
5, 31139, Note_on_c, 4, 53, 0
5, 31139, Note_on_c, 4, 58, 0
5, 31140, Note_on_c, 4, 53, 46
5, 31169, Note_on_c, 4, 53, 0
5, 31169, Note_on_c, 4, 62, 0
5, 31170, Note_on_c, 4, 58, 45
5, 31199, Note_on_c, 4, 58, 0
5, 31200, Note_on_c, 4, 57, 89
5, 31200, Note_on_c, 4, 64, 81
5, 31200, Note_on_c, 4, 60, 89
5, 31200, Note_on_c, 4, 55, 78
5, 31200, Note_on_c, 4, 33, 111
5, 31229, Note_on_c, 4, 55, 0
5, 31229, Note_on_c, 4, 60, 0
5, 31229, Note_on_c, 4, 57, 0
5, 31229, Note_on_c, 4, 64, 0
5, 31230, Note_on_c, 4, 64, 65
5, 31230, Note_on_c, 4, 57, 65
5, 31230, Note_on_c, 4, 60, 62
5, 31230, Note_on_c, 4, 55, 50
5, 31259, Note_on_c, 4, 55, 0
5, 31259, Note_on_c, 4, 57, 0
5, 31259, Note_on_c, 4, 33, 0
5, 31259, Note_on_c, 4, 64, 0
5, 31259, Note_on_c, 4, 60, 0
5, 31260, Note_on_c, 4, 62, 66
5, 31260, Note_on_c, 4, 57, 59
5, 31260, Note_on_c, 4, 55, 57
5, 31289, Note_on_c, 4, 55, 0
5, 31289, Note_on_c, 4, 57, 0
5, 31289, Note_on_c, 4, 62, 0
5, 31290, Note_on_c, 4, 57, 70
5, 31290, Note_on_c, 4, 64, 66
5, 31290, Note_on_c, 4, 55, 64
5, 31290, Note_on_c, 4, 60, 59
5, 31319, Note_on_c, 4, 60, 0
5, 31319, Note_on_c, 4, 57, 0
5, 31319, Note_on_c, 4, 64, 0
5, 31319, Note_on_c, 4, 55, 0
5, 31350, Note_on_c, 4, 62, 82
5, 31350, Note_on_c, 4, 57, 77
5, 31350, Note_on_c, 4, 60, 81
5, 31350, Note_on_c, 4, 55, 70
5, 31409, Note_on_c, 4, 55, 0
5, 31409, Note_on_c, 4, 62, 0
5, 31409, Note_on_c, 4, 57, 0
5, 31409, Note_on_c, 4, 60, 0
5, 31410, Note_on_c, 4, 33, 111
5, 31439, Note_on_c, 4, 33, 0
5, 31440, Note_on_c, 4, 57, 73
5, 31440, Note_on_c, 4, 64, 78
5, 31440, Note_on_c, 4, 60, 70
5, 31440, Note_on_c, 4, 55, 75
5, 31440, Note_on_c, 4, 38, 104
5, 31469, Note_on_c, 4, 55, 0
5, 31469, Note_on_c, 4, 60, 0
5, 31469, Note_on_c, 4, 57, 0
5, 31469, Note_on_c, 4, 64, 0
5, 31470, Note_on_c, 4, 64, 60
5, 31470, Note_on_c, 4, 60, 57
5, 31470, Note_on_c, 4, 57, 66
5, 31470, Note_on_c, 4, 55, 53
5, 31499, Note_on_c, 4, 55, 0
5, 31499, Note_on_c, 4, 60, 0
5, 31499, Note_on_c, 4, 57, 0
5, 31499, Note_on_c, 4, 64, 0
5, 31500, Note_on_c, 4, 55, 63
5, 31500, Note_on_c, 4, 64, 63
5, 31500, Note_on_c, 4, 60, 56
5, 31500, Note_on_c, 4, 57, 60
5, 31529, Note_on_c, 4, 57, 0
5, 31529, Note_on_c, 4, 64, 0
5, 31529, Note_on_c, 4, 38, 0
5, 31529, Note_on_c, 4, 55, 0
5, 31529, Note_on_c, 4, 60, 0
5, 31530, Note_on_c, 4, 62, 83
5, 31530, Note_on_c, 4, 65, 86
5, 31530, Note_on_c, 4, 60, 92
5, 31530, Note_on_c, 4, 57, 71
5, 31559, Note_on_c, 4, 57, 0
5, 31559, Note_on_c, 4, 62, 0
5, 31559, Note_on_c, 4, 65, 0
5, 31559, Note_on_c, 4, 60, 0
5, 31590, Note_on_c, 4, 60, 84
5, 31590, Note_on_c, 4, 65, 79
5, 31590, Note_on_c, 4, 62, 90
5, 31590, Note_on_c, 4, 57, 66
5, 31649, Note_on_c, 4, 57, 0
5, 31649, Note_on_c, 4, 60, 0
5, 31649, Note_on_c, 4, 65, 0
5, 31649, Note_on_c, 4, 62, 0
5, 31680, Note_on_c, 4, 31, 104
5, 31680, Note_on_c, 4, 62, 82
5, 31680, Note_on_c, 4, 58, 78
5, 31680, Note_on_c, 4, 65, 81
5, 31680, Note_on_c, 4, 55, 73
5, 31709, Note_on_c, 4, 55, 0
5, 31709, Note_on_c, 4, 58, 0
5, 31709, Note_on_c, 4, 65, 0
5, 31709, Note_on_c, 4, 62, 0
5, 31710, Note_on_c, 4, 58, 47
5, 31710, Note_on_c, 4, 55, 57
5, 31710, Note_on_c, 4, 65, 59
5, 31710, Note_on_c, 4, 62, 70
5, 31739, Note_on_c, 4, 62, 0
5, 31739, Note_on_c, 4, 55, 0
5, 31739, Note_on_c, 4, 65, 0
5, 31739, Note_on_c, 4, 58, 0
5, 31740, Note_on_c, 4, 58, 52
5, 31740, Note_on_c, 4, 55, 62
5, 31740, Note_on_c, 4, 65, 66
5, 31740, Note_on_c, 4, 62, 63
5, 31769, Note_on_c, 4, 62, 0
5, 31769, Note_on_c, 4, 55, 0
5, 31769, Note_on_c, 4, 65, 0
5, 31769, Note_on_c, 4, 58, 0
5, 31770, Note_on_c, 4, 58, 54
5, 31770, Note_on_c, 4, 55, 63
5, 31770, Note_on_c, 4, 62, 63
5, 31770, Note_on_c, 4, 65, 66
5, 31799, Note_on_c, 4, 65, 0
5, 31799, Note_on_c, 4, 55, 0
5, 31799, Note_on_c, 4, 62, 0
5, 31799, Note_on_c, 4, 58, 0
5, 31829, Note_on_c, 4, 31, 0
5, 31830, Note_on_c, 4, 33, 109
5, 31830, Note_on_c, 4, 58, 78
5, 31830, Note_on_c, 4, 65, 77
5, 31830, Note_on_c, 4, 62, 82
5, 31830, Note_on_c, 4, 57, 72
5, 31859, Note_on_c, 4, 57, 0
5, 31859, Note_on_c, 4, 65, 0
5, 31859, Note_on_c, 4, 62, 0
5, 31859, Note_on_c, 4, 58, 0
5, 31889, Note_on_c, 4, 33, 0
5, 31890, Note_on_c, 4, 69, 90
5, 31890, Note_on_c, 4, 65, 96
5, 31890, Note_on_c, 4, 62, 92
5, 31890, Note_on_c, 4, 58, 87
5, 31890, Note_on_c, 4, 34, 107
5, 31890, Note_on_c, 4, 77, 49
5, 31890, Note_on_c, 4, 74, 83
5, 31979, Note_on_c, 4, 74, 0
5, 31979, Note_on_c, 4, 77, 0
5, 32009, Note_on_c, 4, 65, 0
5, 32009, Note_on_c, 4, 69, 0
5, 32009, Note_on_c, 4, 62, 0
5, 32039, Note_on_c, 4, 58, 0
5, 32039, Note_on_c, 4, 34, 0
5, 32160, Note_on_c, 4, 60, 90
5, 32160, Note_on_c, 4, 67, 79
5, 32160, Note_on_c, 4, 64, 96
5, 32160, Note_on_c, 4, 57, 76
5, 32160, Note_on_c, 4, 29, 120
5, 32189, Note_on_c, 4, 57, 0
5, 32189, Note_on_c, 4, 64, 0
5, 32189, Note_on_c, 4, 60, 0
5, 32189, Note_on_c, 4, 67, 0
5, 32190, Note_on_c, 4, 67, 57
5, 32190, Note_on_c, 4, 60, 60
5, 32190, Note_on_c, 4, 64, 62
5, 32190, Note_on_c, 4, 57, 55
5, 32219, Note_on_c, 4, 57, 0
5, 32219, Note_on_c, 4, 60, 0
5, 32219, Note_on_c, 4, 29, 0
5, 32219, Note_on_c, 4, 67, 0
5, 32219, Note_on_c, 4, 64, 0
5, 32220, Note_on_c, 4, 65, 75
5, 32220, Note_on_c, 4, 62, 77
5, 32220, Note_on_c, 4, 60, 70
5, 32220, Note_on_c, 4, 57, 63
5, 32249, Note_on_c, 4, 57, 0
5, 32249, Note_on_c, 4, 65, 0
5, 32249, Note_on_c, 4, 62, 0
5, 32249, Note_on_c, 4, 60, 0
5, 32250, Note_on_c, 4, 60, 70
5, 32250, Note_on_c, 4, 57, 62
5, 32250, Note_on_c, 4, 67, 70
5, 32250, Note_on_c, 4, 64, 81
5, 32279, Note_on_c, 4, 64, 0
5, 32279, Note_on_c, 4, 60, 0
5, 32279, Note_on_c, 4, 57, 0
5, 32279, Note_on_c, 4, 67, 0
5, 32310, Note_on_c, 4, 60, 83
5, 32310, Note_on_c, 4, 62, 84
5, 32310, Note_on_c, 4, 57, 71
5, 32310, Note_on_c, 4, 65, 77
5, 32369, Note_on_c, 4, 65, 0
5, 32369, Note_on_c, 4, 60, 0
5, 32369, Note_on_c, 4, 62, 0
5, 32369, Note_on_c, 4, 57, 0
5, 32370, Note_on_c, 4, 29, 109
5, 32399, Note_on_c, 4, 29, 0
5, 32400, Note_on_c, 4, 58, 82
5, 32400, Note_on_c, 4, 60, 83
5, 32400, Note_on_c, 4, 64, 79
5, 32400, Note_on_c, 4, 55, 75
5, 32400, Note_on_c, 4, 34, 127
5, 32429, Note_on_c, 4, 55, 0
5, 32429, Note_on_c, 4, 64, 0
5, 32429, Note_on_c, 4, 58, 0
5, 32429, Note_on_c, 4, 60, 0
5, 32430, Note_on_c, 4, 58, 39
5, 32430, Note_on_c, 4, 55, 57
5, 32430, Note_on_c, 4, 60, 54
5, 32430, Note_on_c, 4, 64, 42
5, 32459, Note_on_c, 4, 64, 0
5, 32459, Note_on_c, 4, 55, 0
5, 32459, Note_on_c, 4, 34, 0
5, 32459, Note_on_c, 4, 58, 0
5, 32459, Note_on_c, 4, 60, 0
5, 32460, Note_on_c, 4, 62, 62
5, 32460, Note_on_c, 4, 58, 50
5, 32460, Note_on_c, 4, 53, 66
5, 32489, Note_on_c, 4, 53, 0
5, 32489, Note_on_c, 4, 58, 0
5, 32489, Note_on_c, 4, 62, 0
5, 32490, Note_on_c, 4, 60, 74
5, 32490, Note_on_c, 4, 58, 63
5, 32490, Note_on_c, 4, 55, 73
5, 32490, Note_on_c, 4, 64, 73
5, 32519, Note_on_c, 4, 64, 0
5, 32519, Note_on_c, 4, 60, 0
5, 32519, Note_on_c, 4, 58, 0
5, 32519, Note_on_c, 4, 55, 0
5, 32550, Note_on_c, 4, 62, 78
5, 32550, Note_on_c, 4, 58, 74
5, 32550, Note_on_c, 4, 53, 67
5, 32609, Note_on_c, 4, 53, 0
5, 32609, Note_on_c, 4, 58, 0
5, 32639, Note_on_c, 4, 62, 0
5, 32640, Note_on_c, 4, 33, 127
5, 32640, Note_on_c, 4, 64, 74
5, 32640, Note_on_c, 4, 60, 81
5, 32640, Note_on_c, 4, 55, 76
5, 32640, Note_on_c, 4, 57, 83
5, 32669, Note_on_c, 4, 57, 0
5, 32669, Note_on_c, 4, 60, 0
5, 32669, Note_on_c, 4, 55, 0
5, 32669, Note_on_c, 4, 64, 0
5, 32670, Note_on_c, 4, 64, 55
5, 32670, Note_on_c, 4, 60, 59
5, 32670, Note_on_c, 4, 57, 62
5, 32670, Note_on_c, 4, 55, 42
5, 32699, Note_on_c, 4, 55, 0
5, 32699, Note_on_c, 4, 60, 0
5, 32699, Note_on_c, 4, 33, 0
5, 32699, Note_on_c, 4, 64, 0
5, 32699, Note_on_c, 4, 57, 0
5, 32700, Note_on_c, 4, 62, 65
5, 32700, Note_on_c, 4, 55, 64
5, 32700, Note_on_c, 4, 57, 64
5, 32729, Note_on_c, 4, 57, 0
5, 32729, Note_on_c, 4, 55, 0
5, 32729, Note_on_c, 4, 62, 0
5, 32730, Note_on_c, 4, 64, 70
5, 32730, Note_on_c, 4, 55, 70
5, 32730, Note_on_c, 4, 57, 71
5, 32730, Note_on_c, 4, 60, 66
5, 32759, Note_on_c, 4, 60, 0
5, 32759, Note_on_c, 4, 64, 0
5, 32759, Note_on_c, 4, 55, 0
5, 32759, Note_on_c, 4, 57, 0
5, 32790, Note_on_c, 4, 62, 83
5, 32790, Note_on_c, 4, 57, 75
5, 32790, Note_on_c, 4, 60, 81
5, 32790, Note_on_c, 4, 55, 66
5, 32849, Note_on_c, 4, 55, 0
5, 32849, Note_on_c, 4, 62, 0
5, 32849, Note_on_c, 4, 57, 0
5, 32849, Note_on_c, 4, 60, 0
5, 32850, Note_on_c, 4, 33, 124
5, 32879, Note_on_c, 4, 33, 0
5, 32880, Note_on_c, 4, 64, 70
5, 32880, Note_on_c, 4, 57, 67
5, 32880, Note_on_c, 4, 55, 66
5, 32880, Note_on_c, 4, 60, 70
5, 32880, Note_on_c, 4, 38, 111
5, 32909, Note_on_c, 4, 60, 0
5, 32909, Note_on_c, 4, 55, 0
5, 32909, Note_on_c, 4, 64, 0
5, 32909, Note_on_c, 4, 57, 0
5, 32910, Note_on_c, 4, 55, 53
5, 32910, Note_on_c, 4, 60, 60
5, 32910, Note_on_c, 4, 57, 62
5, 32910, Note_on_c, 4, 64, 58
5, 32939, Note_on_c, 4, 64, 0
5, 32939, Note_on_c, 4, 60, 0
5, 32939, Note_on_c, 4, 38, 0
5, 32939, Note_on_c, 4, 55, 0
5, 32939, Note_on_c, 4, 57, 0
5, 32940, Note_on_c, 4, 55, 62
5, 32940, Note_on_c, 4, 64, 61
5, 32940, Note_on_c, 4, 57, 66
5, 32940, Note_on_c, 4, 60, 58
5, 32969, Note_on_c, 4, 60, 0
5, 32969, Note_on_c, 4, 55, 0
5, 32969, Note_on_c, 4, 64, 0
5, 32969, Note_on_c, 4, 57, 0
5, 32970, Note_on_c, 4, 62, 74
5, 32970, Note_on_c, 4, 65, 79
5, 32970, Note_on_c, 4, 60, 83
5, 32970, Note_on_c, 4, 57, 72
5, 32999, Note_on_c, 4, 57, 0
5, 32999, Note_on_c, 4, 62, 0
5, 32999, Note_on_c, 4, 65, 0
5, 32999, Note_on_c, 4, 60, 0
5, 33030, Note_on_c, 4, 62, 83
5, 33030, Note_on_c, 4, 65, 86
5, 33030, Note_on_c, 4, 60, 77
5, 33030, Note_on_c, 4, 57, 65
5, 33089, Note_on_c, 4, 60, 0
5, 33089, Note_on_c, 4, 62, 0
5, 33089, Note_on_c, 4, 65, 0
5, 33119, Note_on_c, 4, 57, 0
5, 33120, Note_on_c, 4, 31, 124
5, 33120, Note_on_c, 4, 62, 83
5, 33120, Note_on_c, 4, 65, 73
5, 33120, Note_on_c, 4, 58, 78
5, 33120, Note_on_c, 4, 55, 70
5, 33149, Note_on_c, 4, 55, 0
5, 33149, Note_on_c, 4, 65, 0
5, 33149, Note_on_c, 4, 58, 0
5, 33149, Note_on_c, 4, 62, 0
5, 33150, Note_on_c, 4, 65, 49
5, 33150, Note_on_c, 4, 55, 53
5, 33150, Note_on_c, 4, 62, 70
5, 33150, Note_on_c, 4, 58, 47
5, 33179, Note_on_c, 4, 58, 0
5, 33179, Note_on_c, 4, 55, 0
5, 33179, Note_on_c, 4, 62, 0
5, 33179, Note_on_c, 4, 65, 0
5, 33180, Note_on_c, 4, 58, 51
5, 33180, Note_on_c, 4, 55, 62
5, 33180, Note_on_c, 4, 62, 62
5, 33180, Note_on_c, 4, 65, 60
5, 33209, Note_on_c, 4, 65, 0
5, 33209, Note_on_c, 4, 55, 0
5, 33209, Note_on_c, 4, 62, 0
5, 33209, Note_on_c, 4, 58, 0
5, 33210, Note_on_c, 4, 58, 63
5, 33210, Note_on_c, 4, 62, 70
5, 33210, Note_on_c, 4, 65, 70
5, 33210, Note_on_c, 4, 55, 66
5, 33239, Note_on_c, 4, 55, 0
5, 33239, Note_on_c, 4, 62, 0
5, 33239, Note_on_c, 4, 65, 0
5, 33239, Note_on_c, 4, 58, 0
5, 33269, Note_on_c, 4, 31, 0
5, 33270, Note_on_c, 4, 65, 81
5, 33270, Note_on_c, 4, 58, 84
5, 33270, Note_on_c, 4, 62, 89
5, 33270, Note_on_c, 4, 57, 78
5, 33270, Note_on_c, 4, 33, 120
5, 33299, Note_on_c, 4, 57, 0
5, 33299, Note_on_c, 4, 62, 0
5, 33299, Note_on_c, 4, 65, 0
5, 33299, Note_on_c, 4, 58, 0
5, 33329, Note_on_c, 4, 33, 0
5, 33330, Note_on_c, 4, 62, 89
5, 33330, Note_on_c, 4, 65, 84
5, 33330, Note_on_c, 4, 58, 80
5, 33330, Note_on_c, 4, 69, 89
5, 33330, Note_on_c, 4, 34, 117
5, 33449, Note_on_c, 4, 69, 0
5, 33449, Note_on_c, 4, 58, 0
5, 33449, Note_on_c, 4, 62, 0
5, 33449, Note_on_c, 4, 65, 0
5, 33479, Note_on_c, 4, 34, 0
5, 33480, Note_on_c, 4, 36, 120
5, 33480, Note_on_c, 4, 64, 75
5, 33480, Note_on_c, 4, 67, 89
5, 33480, Note_on_c, 4, 62, 77
5, 33480, Note_on_c, 4, 58, 67
5, 33569, Note_on_c, 4, 58, 0
5, 33569, Note_on_c, 4, 67, 0
5, 33569, Note_on_c, 4, 62, 0
5, 33569, Note_on_c, 4, 64, 0
5, 33599, Note_on_c, 4, 36, 0
5, 33600, Note_on_c, 4, 60, 90
5, 33600, Note_on_c, 4, 64, 97
5, 33600, Note_on_c, 4, 57, 73
5, 33600, Note_on_c, 4, 67, 84
5, 33600, Note_on_c, 4, 29, 120
5, 33620, Control_c, 4, 7, 116
5, 33629, Note_on_c, 4, 67, 0
5, 33629, Note_on_c, 4, 57, 0
5, 33629, Note_on_c, 4, 60, 0
5, 33629, Note_on_c, 4, 64, 0
5, 33630, Note_on_c, 4, 67, 51
5, 33630, Note_on_c, 4, 64, 62
5, 33630, Note_on_c, 4, 60, 60
5, 33630, Note_on_c, 4, 57, 47
5, 33659, Note_on_c, 4, 57, 0
5, 33659, Note_on_c, 4, 64, 0
5, 33659, Note_on_c, 4, 29, 0
5, 33659, Note_on_c, 4, 67, 0
5, 33659, Note_on_c, 4, 60, 0
5, 33660, Note_on_c, 4, 62, 66
5, 33660, Note_on_c, 4, 65, 70
5, 33660, Note_on_c, 4, 57, 62
5, 33660, Note_on_c, 4, 60, 66
5, 33689, Note_on_c, 4, 60, 0
5, 33689, Note_on_c, 4, 62, 0
5, 33689, Note_on_c, 4, 65, 0
5, 33689, Note_on_c, 4, 57, 0
5, 33690, Note_on_c, 4, 60, 70
5, 33690, Note_on_c, 4, 67, 69
5, 33690, Note_on_c, 4, 64, 67
5, 33690, Note_on_c, 4, 57, 57
5, 33719, Note_on_c, 4, 57, 0
5, 33719, Note_on_c, 4, 60, 0
5, 33719, Note_on_c, 4, 67, 0
5, 33719, Note_on_c, 4, 64, 0
5, 33740, Control_c, 4, 7, 115
5, 33750, Note_on_c, 4, 62, 78
5, 33750, Note_on_c, 4, 65, 76
5, 33750, Note_on_c, 4, 60, 83
5, 33750, Note_on_c, 4, 57, 66
5, 33755, Control_c, 4, 7, 114
5, 33765, Control_c, 4, 7, 113
5, 33770, Control_c, 4, 7, 112
5, 33800, Control_c, 4, 7, 111
5, 33800, Control_c, 4, 7, 110
5, 33809, Note_on_c, 4, 57, 0
5, 33809, Note_on_c, 4, 62, 0
5, 33809, Note_on_c, 4, 65, 0
5, 33809, Note_on_c, 4, 60, 0
5, 33809, Control_c, 4, 7, 109
5, 33810, Note_on_c, 4, 29, 104
5, 33810, Control_c, 4, 7, 108
5, 33835, Control_c, 4, 7, 107
5, 33839, Note_on_c, 4, 29, 0
5, 33840, Note_on_c, 4, 60, 74
5, 33840, Note_on_c, 4, 64, 77
5, 33840, Note_on_c, 4, 58, 78
5, 33840, Note_on_c, 4, 55, 78
5, 33840, Note_on_c, 4, 34, 117
5, 33850, Control_c, 4, 7, 106
5, 33865, Control_c, 4, 7, 105
5, 33869, Note_on_c, 4, 55, 0
5, 33869, Note_on_c, 4, 58, 0
5, 33869, Note_on_c, 4, 60, 0
5, 33869, Note_on_c, 4, 64, 0
5, 33870, Note_on_c, 4, 64, 62
5, 33870, Note_on_c, 4, 55, 64
5, 33870, Note_on_c, 4, 58, 44
5, 33870, Note_on_c, 4, 60, 63
5, 33870, Control_c, 4, 7, 104
5, 33895, Control_c, 4, 7, 103
5, 33899, Note_on_c, 4, 60, 0
5, 33899, Note_on_c, 4, 55, 0
5, 33899, Note_on_c, 4, 34, 0
5, 33899, Note_on_c, 4, 64, 0
5, 33899, Note_on_c, 4, 58, 0
5, 33900, Note_on_c, 4, 62, 73
5, 33900, Note_on_c, 4, 58, 66
5, 33900, Note_on_c, 4, 53, 72
5, 33900, Note_on_c, 4, 60, 70
5, 33900, Control_c, 4, 7, 101
5, 33905, Control_c, 4, 7, 100
5, 33920, Control_c, 4, 7, 99
5, 33929, Note_on_c, 4, 60, 0
5, 33929, Note_on_c, 4, 62, 0
5, 33929, Note_on_c, 4, 58, 0
5, 33929, Note_on_c, 4, 53, 0
5, 33930, Note_on_c, 4, 64, 71
5, 33930, Note_on_c, 4, 58, 54
5, 33930, Note_on_c, 4, 60, 63
5, 33930, Note_on_c, 4, 55, 70
5, 33930, Control_c, 4, 7, 98
5, 33935, Control_c, 4, 7, 97
5, 33955, Control_c, 4, 7, 96
5, 33959, Note_on_c, 4, 55, 0
5, 33959, Note_on_c, 4, 64, 0
5, 33959, Note_on_c, 4, 58, 0
5, 33959, Note_on_c, 4, 60, 0
5, 33965, Control_c, 4, 7, 95
5, 33970, Control_c, 4, 7, 94
5, 33975, Control_c, 4, 7, 93
5, 33980, Control_c, 4, 7, 92
5, 33990, Note_on_c, 4, 58, 84
5, 33990, Note_on_c, 4, 62, 97
5, 33990, Note_on_c, 4, 53, 79
5, 33995, Control_c, 4, 7, 91
5, 34005, Control_c, 4, 7, 90
5, 34010, Control_c, 4, 7, 89
5, 34019, Note_on_c, 4, 53, 0
5, 34019, Note_on_c, 4, 58, 0
5, 34020, Note_on_c, 4, 53, 46
5, 34020, Control_c, 4, 7, 88
5, 34035, Control_c, 4, 7, 87
5, 34049, Note_on_c, 4, 53, 0
5, 34049, Note_on_c, 4, 62, 0
5, 34050, Note_on_c, 4, 58, 45
5, 34050, Control_c, 4, 7, 86
5, 34060, Control_c, 4, 7, 85
5, 34075, Control_c, 4, 7, 84
5, 34079, Note_on_c, 4, 58, 0
5, 34080, Note_on_c, 4, 57, 89
5, 34080, Note_on_c, 4, 64, 81
5, 34080, Note_on_c, 4, 60, 89
5, 34080, Note_on_c, 4, 55, 78
5, 34080, Note_on_c, 4, 33, 111
5, 34090, Control_c, 4, 7, 83
5, 34095, Control_c, 4, 7, 82
5, 34100, Control_c, 4, 7, 81
5, 34100, Control_c, 4, 7, 80
5, 34109, Note_on_c, 4, 55, 0
5, 34109, Note_on_c, 4, 60, 0
5, 34109, Note_on_c, 4, 57, 0
5, 34109, Note_on_c, 4, 64, 0
5, 34110, Note_on_c, 4, 64, 65
5, 34110, Note_on_c, 4, 57, 65
5, 34110, Note_on_c, 4, 60, 62
5, 34110, Note_on_c, 4, 55, 50
5, 34110, Control_c, 4, 7, 79
5, 34115, Control_c, 4, 7, 78
5, 34120, Control_c, 4, 7, 77
5, 34130, Control_c, 4, 7, 76
5, 34139, Note_on_c, 4, 55, 0
5, 34139, Note_on_c, 4, 57, 0
5, 34139, Note_on_c, 4, 33, 0
5, 34139, Note_on_c, 4, 64, 0
5, 34139, Note_on_c, 4, 60, 0
5, 34140, Note_on_c, 4, 62, 66
5, 34140, Note_on_c, 4, 57, 59
5, 34140, Note_on_c, 4, 55, 57
5, 34140, Control_c, 4, 7, 75
5, 34145, Control_c, 4, 7, 74
5, 34150, Control_c, 4, 7, 73
5, 34160, Control_c, 4, 7, 72
5, 34169, Note_on_c, 4, 55, 0
5, 34169, Note_on_c, 4, 57, 0
5, 34169, Note_on_c, 4, 62, 0
5, 34170, Note_on_c, 4, 57, 70
5, 34170, Note_on_c, 4, 64, 66
5, 34170, Note_on_c, 4, 55, 64
5, 34170, Note_on_c, 4, 60, 59
5, 34180, Control_c, 4, 7, 71
5, 34185, Control_c, 4, 7, 70
5, 34199, Note_on_c, 4, 60, 0
5, 34199, Note_on_c, 4, 57, 0
5, 34199, Note_on_c, 4, 64, 0
5, 34199, Note_on_c, 4, 55, 0
5, 34210, Control_c, 4, 7, 69
5, 34215, Control_c, 4, 7, 68
5, 34230, Note_on_c, 4, 62, 82
5, 34230, Note_on_c, 4, 57, 77
5, 34230, Note_on_c, 4, 60, 81
5, 34230, Note_on_c, 4, 55, 70
5, 34230, Control_c, 4, 7, 67
5, 34240, Control_c, 4, 7, 66
5, 34245, Control_c, 4, 7, 65
5, 34245, Control_c, 4, 7, 64
5, 34250, Control_c, 4, 7, 63
5, 34250, Control_c, 4, 7, 62
5, 34255, Control_c, 4, 7, 61
5, 34265, Control_c, 4, 7, 60
5, 34270, Control_c, 4, 7, 58
5, 34280, Control_c, 4, 7, 57
5, 34289, Note_on_c, 4, 55, 0
5, 34289, Note_on_c, 4, 62, 0
5, 34289, Note_on_c, 4, 57, 0
5, 34289, Note_on_c, 4, 60, 0
5, 34290, Note_on_c, 4, 33, 111
5, 34290, Control_c, 4, 7, 56
5, 34290, Control_c, 4, 7, 55
5, 34290, Control_c, 4, 7, 54
5, 34300, Control_c, 4, 7, 53
5, 34310, Control_c, 4, 7, 52
5, 34319, Note_on_c, 4, 33, 0
5, 34320, Note_on_c, 4, 57, 73
5, 34320, Note_on_c, 4, 64, 78
5, 34320, Note_on_c, 4, 60, 70
5, 34320, Note_on_c, 4, 55, 75
5, 34320, Note_on_c, 4, 38, 104
5, 34320, Control_c, 4, 7, 51
5, 34325, Control_c, 4, 7, 49
5, 34325, Control_c, 4, 7, 48
5, 34330, Control_c, 4, 7, 47
5, 34340, Control_c, 4, 7, 46
5, 34345, Control_c, 4, 7, 45
5, 34349, Note_on_c, 4, 55, 0
5, 34349, Note_on_c, 4, 60, 0
5, 34349, Note_on_c, 4, 57, 0
5, 34349, Note_on_c, 4, 64, 0
5, 34350, Note_on_c, 4, 64, 60
5, 34350, Note_on_c, 4, 60, 57
5, 34350, Note_on_c, 4, 57, 66
5, 34350, Note_on_c, 4, 55, 53
5, 34355, Control_c, 4, 7, 44
5, 34360, Control_c, 4, 7, 43
5, 34379, Note_on_c, 4, 55, 0
5, 34379, Note_on_c, 4, 60, 0
5, 34379, Note_on_c, 4, 57, 0
5, 34379, Note_on_c, 4, 64, 0
5, 34380, Note_on_c, 4, 55, 63
5, 34380, Note_on_c, 4, 64, 63
5, 34380, Note_on_c, 4, 60, 56
5, 34380, Note_on_c, 4, 57, 60
5, 34380, Control_c, 4, 7, 42
5, 34385, Control_c, 4, 7, 40
5, 34395, Control_c, 4, 7, 39
5, 34405, Control_c, 4, 7, 38
5, 34409, Note_on_c, 4, 57, 0
5, 34409, Note_on_c, 4, 64, 0
5, 34409, Note_on_c, 4, 38, 0
5, 34409, Note_on_c, 4, 55, 0
5, 34409, Note_on_c, 4, 60, 0
5, 34410, Note_on_c, 4, 62, 83
5, 34410, Note_on_c, 4, 65, 86
5, 34410, Note_on_c, 4, 60, 92
5, 34410, Note_on_c, 4, 57, 71
5, 34410, Control_c, 4, 7, 37
5, 34415, Control_c, 4, 7, 36
5, 34415, Control_c, 4, 7, 35
5, 34420, Control_c, 4, 7, 34
5, 34425, Control_c, 4, 7, 33
5, 34430, Control_c, 4, 7, 31
5, 34439, Note_on_c, 4, 57, 0
5, 34439, Note_on_c, 4, 62, 0
5, 34439, Note_on_c, 4, 65, 0
5, 34439, Note_on_c, 4, 60, 0
5, 34440, Control_c, 4, 7, 30
5, 34445, Control_c, 4, 7, 29
5, 34445, Control_c, 4, 7, 28
5, 34445, Control_c, 4, 7, 27
5, 34450, Control_c, 4, 7, 26
5, 34465, Control_c, 4, 7, 25
5, 34465, Control_c, 4, 7, 24
5, 34470, Note_on_c, 4, 60, 84
5, 34470, Note_on_c, 4, 65, 79
5, 34470, Note_on_c, 4, 62, 90
5, 34470, Note_on_c, 4, 57, 66
5, 34480, Control_c, 4, 7, 22
5, 34485, Control_c, 4, 7, 21
5, 34505, Control_c, 4, 7, 20
5, 34515, Control_c, 4, 7, 19
5, 34520, Control_c, 4, 7, 18
5, 34520, Control_c, 4, 7, 17
5, 34525, Control_c, 4, 7, 16
5, 34529, Note_on_c, 4, 57, 0
5, 34529, Note_on_c, 4, 60, 0
5, 34529, Note_on_c, 4, 65, 0
5, 34529, Note_on_c, 4, 62, 0
5, 34545, Control_c, 4, 7, 15
5, 34560, Note_on_c, 4, 31, 104
5, 34560, Note_on_c, 4, 62, 82
5, 34560, Note_on_c, 4, 58, 78
5, 34560, Note_on_c, 4, 65, 81
5, 34560, Note_on_c, 4, 55, 73
5, 34560, Control_c, 4, 7, 13
5, 34565, Control_c, 4, 7, 12
5, 34565, Control_c, 4, 7, 11
5, 34585, Control_c, 4, 7, 10
5, 34589, Note_on_c, 4, 55, 0
5, 34589, Note_on_c, 4, 58, 0
5, 34589, Note_on_c, 4, 65, 0
5, 34589, Note_on_c, 4, 62, 0
5, 34590, Note_on_c, 4, 58, 47
5, 34590, Note_on_c, 4, 55, 57
5, 34590, Note_on_c, 4, 65, 59
5, 34590, Note_on_c, 4, 62, 70
5, 34590, Control_c, 4, 7, 9
5, 34595, Control_c, 4, 7, 8
5, 34595, Control_c, 4, 7, 7
5, 34605, Control_c, 4, 7, 6
5, 34619, Note_on_c, 4, 62, 0
5, 34619, Note_on_c, 4, 55, 0
5, 34619, Note_on_c, 4, 65, 0
5, 34619, Note_on_c, 4, 58, 0
5, 34620, Note_on_c, 4, 58, 52
5, 34620, Note_on_c, 4, 55, 62
5, 34620, Note_on_c, 4, 65, 66
5, 34620, Note_on_c, 4, 62, 63
5, 34625, Control_c, 4, 7, 4
5, 34635, Control_c, 4, 7, 3
5, 34649, Note_on_c, 4, 62, 0
5, 34649, Note_on_c, 4, 55, 0
5, 34649, Note_on_c, 4, 65, 0
5, 34649, Note_on_c, 4, 58, 0
5, 34650, Control_c, 4, 7, 0
5, 34709, Note_on_c, 4, 31, 0
5, 34709, End_track
6, 0, Start_track
6, 0, MIDI_port, 0
6, 0, Program_c, 5, 28
6, 0, Control_c, 5, 7, 95
6, 1440, Note_on_c, 5, 57, 90
6, 1440, Note_on_c, 5, 60, 90
6, 1459, Note_on_c, 5, 60, 0
6, 1459, Note_on_c, 5, 57, 0
6, 1470, Note_on_c, 5, 60, 89
6, 1470, Note_on_c, 5, 57, 90
6, 1489, Note_on_c, 5, 57, 0
6, 1489, Note_on_c, 5, 60, 0
6, 1500, Note_on_c, 5, 60, 92
6, 1500, Note_on_c, 5, 57, 93
6, 1519, Note_on_c, 5, 57, 0
6, 1519, Note_on_c, 5, 60, 0
6, 1530, Note_on_c, 5, 60, 92
6, 1530, Note_on_c, 5, 57, 92
6, 1559, Note_on_c, 5, 57, 0
6, 1559, Note_on_c, 5, 60, 0
6, 1590, Note_on_c, 5, 60, 91
6, 1590, Note_on_c, 5, 57, 92
6, 1619, Note_on_c, 5, 57, 0
6, 1619, Note_on_c, 5, 60, 0
6, 1680, Note_on_c, 5, 58, 90
6, 1680, Note_on_c, 5, 55, 92
6, 1699, Note_on_c, 5, 55, 0
6, 1699, Note_on_c, 5, 58, 0
6, 1710, Note_on_c, 5, 58, 91
6, 1710, Note_on_c, 5, 55, 93
6, 1729, Note_on_c, 5, 55, 0
6, 1729, Note_on_c, 5, 58, 0
6, 1740, Note_on_c, 5, 58, 92
6, 1740, Note_on_c, 5, 55, 92
6, 1759, Note_on_c, 5, 55, 0
6, 1759, Note_on_c, 5, 58, 0
6, 1770, Note_on_c, 5, 58, 90
6, 1770, Note_on_c, 5, 55, 91
6, 1799, Note_on_c, 5, 55, 0
6, 1799, Note_on_c, 5, 58, 0
6, 1830, Note_on_c, 5, 58, 93
6, 1830, Note_on_c, 5, 55, 92
6, 1859, Note_on_c, 5, 55, 0
6, 1859, Note_on_c, 5, 58, 0
6, 1920, Note_on_c, 5, 60, 94
6, 1920, Note_on_c, 5, 57, 92
6, 1939, Note_on_c, 5, 57, 0
6, 1939, Note_on_c, 5, 60, 0
6, 1950, Note_on_c, 5, 60, 91
6, 1950, Note_on_c, 5, 57, 93
6, 1969, Note_on_c, 5, 57, 0
6, 1969, Note_on_c, 5, 60, 0
6, 1980, Note_on_c, 5, 57, 90
6, 1980, Note_on_c, 5, 60, 90
6, 1999, Note_on_c, 5, 60, 0
6, 1999, Note_on_c, 5, 57, 0
6, 2010, Note_on_c, 5, 60, 93
6, 2010, Note_on_c, 5, 57, 90
6, 2039, Note_on_c, 5, 57, 0
6, 2039, Note_on_c, 5, 60, 0
6, 2070, Note_on_c, 5, 60, 91
6, 2070, Note_on_c, 5, 57, 90
6, 2099, Note_on_c, 5, 57, 0
6, 2099, Note_on_c, 5, 60, 0
6, 2130, Note_on_c, 5, 62, 89
6, 2130, Note_on_c, 5, 57, 89
6, 2319, Note_on_c, 5, 57, 0
6, 2319, Note_on_c, 5, 62, 0
6, 2400, Note_on_c, 5, 64, 89
6, 2400, Note_on_c, 5, 61, 89
6, 2489, Note_on_c, 5, 61, 0
6, 2489, Note_on_c, 5, 64, 0
6, 2520, Note_on_c, 5, 64, 89
6, 2520, Note_on_c, 5, 60, 90
6, 2619, Note_on_c, 5, 60, 0
6, 2619, Note_on_c, 5, 64, 0
6, 2640, Note_on_c, 5, 62, 90
6, 2640, Note_on_c, 5, 59, 89
6, 2709, Note_on_c, 5, 59, 0
6, 2709, Note_on_c, 5, 62, 0
6, 2730, Note_on_c, 5, 62, 89
6, 2730, Note_on_c, 5, 58, 89
6, 2829, Note_on_c, 5, 58, 0
6, 2829, Note_on_c, 5, 62, 0
6, 2850, Note_on_c, 5, 60, 89
6, 2850, Note_on_c, 5, 57, 89
6, 2889, Note_on_c, 5, 57, 0
6, 2889, Note_on_c, 5, 60, 0
6, 2910, Note_on_c, 5, 65, 89
6, 2910, Note_on_c, 5, 60, 89
6, 3119, Note_on_c, 5, 60, 0
6, 3119, Note_on_c, 5, 65, 0
6, 3840, Note_on_c, 5, 60, 90
6, 3840, Note_on_c, 5, 57, 90
6, 3859, Note_on_c, 5, 57, 0
6, 3859, Note_on_c, 5, 60, 0
6, 3870, Note_on_c, 5, 60, 92
6, 3870, Note_on_c, 5, 57, 91
6, 3889, Note_on_c, 5, 57, 0
6, 3889, Note_on_c, 5, 60, 0
6, 3900, Note_on_c, 5, 57, 93
6, 3900, Note_on_c, 5, 60, 93
6, 3919, Note_on_c, 5, 60, 0
6, 3919, Note_on_c, 5, 57, 0
6, 3930, Note_on_c, 5, 60, 94
6, 3930, Note_on_c, 5, 57, 92
6, 3959, Note_on_c, 5, 57, 0
6, 3959, Note_on_c, 5, 60, 0
6, 3990, Note_on_c, 5, 60, 90
6, 3990, Note_on_c, 5, 57, 91
6, 4019, Note_on_c, 5, 57, 0
6, 4019, Note_on_c, 5, 60, 0
6, 4080, Note_on_c, 5, 58, 90
6, 4080, Note_on_c, 5, 55, 90
6, 4099, Note_on_c, 5, 55, 0
6, 4099, Note_on_c, 5, 58, 0
6, 4110, Note_on_c, 5, 58, 92
6, 4110, Note_on_c, 5, 55, 89
6, 4129, Note_on_c, 5, 55, 0
6, 4129, Note_on_c, 5, 58, 0
6, 4140, Note_on_c, 5, 58, 88
6, 4140, Note_on_c, 5, 55, 87
6, 4159, Note_on_c, 5, 55, 0
6, 4159, Note_on_c, 5, 58, 0
6, 4170, Note_on_c, 5, 58, 90
6, 4170, Note_on_c, 5, 55, 91
6, 4199, Note_on_c, 5, 55, 0
6, 4199, Note_on_c, 5, 58, 0
6, 4230, Note_on_c, 5, 58, 88
6, 4230, Note_on_c, 5, 55, 89
6, 4259, Note_on_c, 5, 55, 0
6, 4259, Note_on_c, 5, 58, 0
6, 4320, Note_on_c, 5, 60, 88
6, 4320, Note_on_c, 5, 57, 88
6, 4339, Note_on_c, 5, 57, 0
6, 4339, Note_on_c, 5, 60, 0
6, 4350, Note_on_c, 5, 60, 89
6, 4350, Note_on_c, 5, 57, 90
6, 4369, Note_on_c, 5, 57, 0
6, 4369, Note_on_c, 5, 60, 0
6, 4380, Note_on_c, 5, 60, 92
6, 4380, Note_on_c, 5, 57, 93
6, 4399, Note_on_c, 5, 57, 0
6, 4399, Note_on_c, 5, 60, 0
6, 4410, Note_on_c, 5, 60, 90
6, 4410, Note_on_c, 5, 57, 92
6, 4439, Note_on_c, 5, 57, 0
6, 4439, Note_on_c, 5, 60, 0
6, 4470, Note_on_c, 5, 60, 91
6, 4470, Note_on_c, 5, 57, 87
6, 4499, Note_on_c, 5, 57, 0
6, 4499, Note_on_c, 5, 60, 0
6, 4560, Note_on_c, 5, 60, 89
6, 4560, Note_on_c, 5, 57, 85
6, 4579, Note_on_c, 5, 57, 0
6, 4579, Note_on_c, 5, 60, 0
6, 4590, Note_on_c, 5, 60, 90
6, 4590, Note_on_c, 5, 57, 88
6, 4609, Note_on_c, 5, 57, 0
6, 4609, Note_on_c, 5, 60, 0
6, 4620, Note_on_c, 5, 60, 92
6, 4620, Note_on_c, 5, 57, 91
6, 4639, Note_on_c, 5, 57, 0
6, 4639, Note_on_c, 5, 60, 0
6, 4650, Note_on_c, 5, 60, 93
6, 4650, Note_on_c, 5, 57, 92
6, 4679, Note_on_c, 5, 57, 0
6, 4679, Note_on_c, 5, 60, 0
6, 4710, Note_on_c, 5, 60, 90
6, 4710, Note_on_c, 5, 57, 89
6, 4739, Note_on_c, 5, 57, 0
6, 4739, Note_on_c, 5, 60, 0
6, 4800, Note_on_c, 5, 53, 90
6, 4800, Note_on_c, 5, 50, 87
6, 4819, Note_on_c, 5, 50, 0
6, 4819, Note_on_c, 5, 53, 0
6, 4830, Note_on_c, 5, 53, 90
6, 4830, Note_on_c, 5, 50, 92
6, 4849, Note_on_c, 5, 50, 0
6, 4849, Note_on_c, 5, 53, 0
6, 4860, Note_on_c, 5, 50, 93
6, 4860, Note_on_c, 5, 53, 90
6, 4879, Note_on_c, 5, 53, 0
6, 4879, Note_on_c, 5, 50, 0
6, 4890, Note_on_c, 5, 53, 90
6, 4890, Note_on_c, 5, 50, 93
6, 4919, Note_on_c, 5, 50, 0
6, 4919, Note_on_c, 5, 53, 0
6, 4950, Note_on_c, 5, 52, 94
6, 4950, Note_on_c, 5, 55, 94
6, 4979, Note_on_c, 5, 55, 0
6, 4979, Note_on_c, 5, 52, 0
6, 5010, Note_on_c, 5, 53, 90
6, 5010, Note_on_c, 5, 57, 92
6, 5129, Note_on_c, 5, 57, 0
6, 5129, Note_on_c, 5, 53, 0
6, 5160, Note_on_c, 5, 58, 91
6, 5160, Note_on_c, 5, 55, 90
6, 5249, Note_on_c, 5, 55, 0
6, 5249, Note_on_c, 5, 58, 0
6, 5280, Note_on_c, 5, 57, 91
6, 5280, Note_on_c, 5, 60, 89
6, 5299, Note_on_c, 5, 60, 0
6, 5299, Note_on_c, 5, 57, 0
6, 5310, Note_on_c, 5, 60, 90
6, 5310, Note_on_c, 5, 57, 90
6, 5329, Note_on_c, 5, 57, 0
6, 5329, Note_on_c, 5, 60, 0
6, 5340, Note_on_c, 5, 57, 88
6, 5340, Note_on_c, 5, 60, 89
6, 5359, Note_on_c, 5, 60, 0
6, 5359, Note_on_c, 5, 57, 0
6, 5370, Note_on_c, 5, 60, 90
6, 5370, Note_on_c, 5, 57, 91
6, 5399, Note_on_c, 5, 57, 0
6, 5399, Note_on_c, 5, 60, 0
6, 5430, Note_on_c, 5, 60, 92
6, 5430, Note_on_c, 5, 57, 93
6, 5459, Note_on_c, 5, 57, 0
6, 5459, Note_on_c, 5, 60, 0
6, 5520, Note_on_c, 5, 58, 91
6, 5520, Note_on_c, 5, 55, 92
6, 5539, Note_on_c, 5, 55, 0
6, 5539, Note_on_c, 5, 58, 0
6, 5550, Note_on_c, 5, 58, 90
6, 5550, Note_on_c, 5, 55, 90
6, 5569, Note_on_c, 5, 55, 0
6, 5569, Note_on_c, 5, 58, 0
6, 5580, Note_on_c, 5, 58, 89
6, 5580, Note_on_c, 5, 55, 88
6, 5599, Note_on_c, 5, 55, 0
6, 5599, Note_on_c, 5, 58, 0
6, 5610, Note_on_c, 5, 58, 90
6, 5610, Note_on_c, 5, 55, 88
6, 5639, Note_on_c, 5, 55, 0
6, 5639, Note_on_c, 5, 58, 0
6, 5670, Note_on_c, 5, 58, 89
6, 5670, Note_on_c, 5, 55, 93
6, 5699, Note_on_c, 5, 55, 0
6, 5699, Note_on_c, 5, 58, 0
6, 5760, Note_on_c, 5, 60, 90
6, 5760, Note_on_c, 5, 57, 92
6, 5779, Note_on_c, 5, 57, 0
6, 5779, Note_on_c, 5, 60, 0
6, 5790, Note_on_c, 5, 60, 90
6, 5790, Note_on_c, 5, 57, 89
6, 5809, Note_on_c, 5, 57, 0
6, 5809, Note_on_c, 5, 60, 0
6, 5820, Note_on_c, 5, 60, 93
6, 5820, Note_on_c, 5, 57, 91
6, 5839, Note_on_c, 5, 57, 0
6, 5839, Note_on_c, 5, 60, 0
6, 5850, Note_on_c, 5, 60, 93
6, 5850, Note_on_c, 5, 57, 92
6, 5879, Note_on_c, 5, 57, 0
6, 5879, Note_on_c, 5, 60, 0
6, 5910, Note_on_c, 5, 60, 94
6, 5910, Note_on_c, 5, 57, 90
6, 5939, Note_on_c, 5, 57, 0
6, 5939, Note_on_c, 5, 60, 0
6, 6000, Note_on_c, 5, 60, 89
6, 6000, Note_on_c, 5, 57, 90
6, 6019, Note_on_c, 5, 57, 0
6, 6019, Note_on_c, 5, 60, 0
6, 6030, Note_on_c, 5, 60, 92
6, 6030, Note_on_c, 5, 57, 90
6, 6049, Note_on_c, 5, 57, 0
6, 6049, Note_on_c, 5, 60, 0
6, 6060, Note_on_c, 5, 60, 89
6, 6060, Note_on_c, 5, 57, 88
6, 6079, Note_on_c, 5, 57, 0
6, 6079, Note_on_c, 5, 60, 0
6, 6090, Note_on_c, 5, 60, 90
6, 6090, Note_on_c, 5, 57, 91
6, 6119, Note_on_c, 5, 57, 0
6, 6119, Note_on_c, 5, 60, 0
6, 6150, Note_on_c, 5, 60, 92
6, 6150, Note_on_c, 5, 57, 93
6, 6179, Note_on_c, 5, 57, 0
6, 6179, Note_on_c, 5, 60, 0
6, 6240, Note_on_c, 5, 53, 90
6, 6240, Note_on_c, 5, 50, 90
6, 6259, Note_on_c, 5, 50, 0
6, 6259, Note_on_c, 5, 53, 0
6, 6270, Note_on_c, 5, 53, 90
6, 6270, Note_on_c, 5, 50, 92
6, 6289, Note_on_c, 5, 50, 0
6, 6289, Note_on_c, 5, 53, 0
6, 6300, Note_on_c, 5, 53, 88
6, 6300, Note_on_c, 5, 50, 89
6, 6319, Note_on_c, 5, 50, 0
6, 6319, Note_on_c, 5, 53, 0
6, 6330, Note_on_c, 5, 53, 90
6, 6330, Note_on_c, 5, 50, 90
6, 6359, Note_on_c, 5, 50, 0
6, 6359, Note_on_c, 5, 53, 0
6, 6390, Note_on_c, 5, 52, 94
6, 6390, Note_on_c, 5, 55, 95
6, 6419, Note_on_c, 5, 55, 0
6, 6419, Note_on_c, 5, 52, 0
6, 6450, Note_on_c, 5, 57, 93
6, 6450, Note_on_c, 5, 53, 90
6, 6569, Note_on_c, 5, 53, 0
6, 6569, Note_on_c, 5, 57, 0
6, 6600, Note_on_c, 5, 55, 89
6, 6600, Note_on_c, 5, 58, 91
6, 6689, Note_on_c, 5, 58, 0
6, 6689, Note_on_c, 5, 55, 0
6, 6720, Note_on_c, 5, 57, 90
6, 6720, Note_on_c, 5, 53, 94
6, 6739, Note_on_c, 5, 53, 0
6, 6739, Note_on_c, 5, 57, 0
6, 6750, Note_on_c, 5, 57, 90
6, 6750, Note_on_c, 5, 53, 93
6, 6769, Note_on_c, 5, 53, 0
6, 6769, Note_on_c, 5, 57, 0
6, 6780, Note_on_c, 5, 53, 92
6, 6780, Note_on_c, 5, 57, 91
6, 6799, Note_on_c, 5, 57, 0
6, 6799, Note_on_c, 5, 53, 0
6, 6810, Note_on_c, 5, 53, 93
6, 6810, Note_on_c, 5, 57, 90
6, 6839, Note_on_c, 5, 57, 0
6, 6839, Note_on_c, 5, 53, 0
6, 6870, Note_on_c, 5, 57, 90
6, 6870, Note_on_c, 5, 53, 92
6, 6899, Note_on_c, 5, 53, 0
6, 6899, Note_on_c, 5, 57, 0
6, 6960, Note_on_c, 5, 58, 90
6, 6960, Note_on_c, 5, 55, 89
6, 7049, Note_on_c, 5, 55, 0
6, 7049, Note_on_c, 5, 58, 0
6, 7080, Note_on_c, 5, 57, 90
6, 7080, Note_on_c, 5, 53, 93
6, 7169, Note_on_c, 5, 53, 0
6, 7169, Note_on_c, 5, 57, 0
6, 7200, Note_on_c, 5, 58, 92
6, 7229, Note_on_c, 5, 58, 0
6, 7230, Note_on_c, 5, 62, 91
6, 7259, Note_on_c, 5, 62, 0
6, 7260, Note_on_c, 5, 65, 90
6, 7289, Note_on_c, 5, 65, 0
6, 7290, Note_on_c, 5, 69, 91
6, 7349, Note_on_c, 5, 69, 0
6, 7350, Note_on_c, 5, 65, 90
6, 7409, Note_on_c, 5, 65, 0
6, 7410, Note_on_c, 5, 62, 89
6, 7439, Note_on_c, 5, 62, 0
6, 7440, Note_on_c, 5, 58, 90
6, 7469, Note_on_c, 5, 58, 0
6, 7470, Note_on_c, 5, 62, 92
6, 7499, Note_on_c, 5, 62, 0
6, 7500, Note_on_c, 5, 64, 91
6, 7529, Note_on_c, 5, 64, 0
6, 7530, Note_on_c, 5, 67, 92
6, 7589, Note_on_c, 5, 67, 0
6, 7590, Note_on_c, 5, 64, 93
6, 7649, Note_on_c, 5, 64, 0
6, 7650, Note_on_c, 5, 62, 90
6, 7679, Note_on_c, 5, 62, 0
6, 7680, Note_on_c, 5, 57, 91
6, 7709, Note_on_c, 5, 57, 0
6, 7710, Note_on_c, 5, 60, 90
6, 7739, Note_on_c, 5, 60, 0
6, 7740, Note_on_c, 5, 64, 89
6, 7769, Note_on_c, 5, 64, 0
6, 7770, Note_on_c, 5, 67, 88
6, 7829, Note_on_c, 5, 67, 0
6, 7830, Note_on_c, 5, 64, 90
6, 7889, Note_on_c, 5, 64, 0
6, 7890, Note_on_c, 5, 60, 89
6, 7919, Note_on_c, 5, 60, 0
6, 7920, Note_on_c, 5, 57, 90
6, 7949, Note_on_c, 5, 57, 0
6, 7950, Note_on_c, 5, 60, 92
6, 7979, Note_on_c, 5, 60, 0
6, 7980, Note_on_c, 5, 62, 93
6, 8009, Note_on_c, 5, 62, 0
6, 8010, Note_on_c, 5, 65, 91
6, 8069, Note_on_c, 5, 65, 0
6, 8070, Note_on_c, 5, 62, 90
6, 8129, Note_on_c, 5, 62, 0
6, 8130, Note_on_c, 5, 60, 90
6, 8159, Note_on_c, 5, 60, 0
6, 8160, Note_on_c, 5, 55, 89
6, 8189, Note_on_c, 5, 55, 0
6, 8190, Note_on_c, 5, 58, 92
6, 8219, Note_on_c, 5, 58, 0
6, 8220, Note_on_c, 5, 62, 93
6, 8249, Note_on_c, 5, 62, 0
6, 8250, Note_on_c, 5, 65, 91
6, 8309, Note_on_c, 5, 65, 0
6, 8310, Note_on_c, 5, 62, 90
6, 8369, Note_on_c, 5, 62, 0
6, 8370, Note_on_c, 5, 58, 93
6, 8399, Note_on_c, 5, 58, 0
6, 8400, Note_on_c, 5, 53, 92
6, 8429, Note_on_c, 5, 53, 0
6, 8430, Note_on_c, 5, 58, 91
6, 8459, Note_on_c, 5, 58, 0
6, 8460, Note_on_c, 5, 62, 90
6, 8489, Note_on_c, 5, 62, 0
6, 8490, Note_on_c, 5, 65, 89
6, 8549, Note_on_c, 5, 65, 0
6, 8550, Note_on_c, 5, 62, 90
6, 8609, Note_on_c, 5, 62, 0
6, 8610, Note_on_c, 5, 58, 92
6, 8639, Note_on_c, 5, 58, 0
6, 8640, Note_on_c, 5, 57, 70
6, 8669, Note_on_c, 5, 57, 0
6, 8670, Note_on_c, 5, 62, 93
6, 8699, Note_on_c, 5, 62, 0
6, 8700, Note_on_c, 5, 64, 92
6, 8729, Note_on_c, 5, 64, 0
6, 8730, Note_on_c, 5, 66, 91
6, 8789, Note_on_c, 5, 66, 0
6, 8790, Note_on_c, 5, 64, 90
6, 8849, Note_on_c, 5, 64, 0
6, 8850, Note_on_c, 5, 62, 92
6, 8879, Note_on_c, 5, 62, 0
6, 8880, Note_on_c, 5, 59, 90
6, 8909, Note_on_c, 5, 59, 0
6, 8910, Note_on_c, 5, 62, 92
6, 8939, Note_on_c, 5, 62, 0
6, 8940, Note_on_c, 5, 64, 89
6, 8969, Note_on_c, 5, 64, 0
6, 8970, Note_on_c, 5, 68, 93
6, 8970, Note_on_c, 5, 59, 90
6, 9079, Note_on_c, 5, 59, 0
6, 9079, Note_on_c, 5, 68, 0
6, 9120, Note_on_c, 5, 61, 90
6, 9120, Note_on_c, 5, 57, 90
6, 9179, Note_on_c, 5, 57, 0
6, 9179, Note_on_c, 5, 61, 0
6, 9210, Note_on_c, 5, 59, 90
6, 9210, Note_on_c, 5, 56, 90
6, 9299, Note_on_c, 5, 56, 0
6, 9299, Note_on_c, 5, 59, 0
6, 9330, Note_on_c, 5, 61, 90
6, 9330, Note_on_c, 5, 57, 90
6, 9389, Note_on_c, 5, 57, 0
6, 9389, Note_on_c, 5, 61, 0
6, 9420, Note_on_c, 5, 63, 90
6, 9420, Note_on_c, 5, 58, 90
6, 9549, Note_on_c, 5, 58, 0
6, 9549, Note_on_c, 5, 63, 0
6, 9600, Note_on_c, 5, 60, 90
6, 9600, Note_on_c, 5, 56, 90
6, 9639, Note_on_c, 5, 56, 0
6, 9639, Note_on_c, 5, 60, 0
6, 9690, Note_on_c, 5, 61, 90
6, 9690, Note_on_c, 5, 65, 90
6, 9729, Note_on_c, 5, 65, 0
6, 9729, Note_on_c, 5, 61, 0
6, 9780, Note_on_c, 5, 61, 90
6, 9780, Note_on_c, 5, 58, 90
6, 9819, Note_on_c, 5, 58, 0
6, 9819, Note_on_c, 5, 61, 0
6, 9870, Note_on_c, 5, 55, 90
6, 9870, Note_on_c, 5, 63, 90
6, 9919, Note_on_c, 5, 63, 0
6, 9919, Note_on_c, 5, 55, 0
6, 10080, Note_on_c, 5, 60, 92
6, 10080, Note_on_c, 5, 57, 93
6, 10099, Note_on_c, 5, 57, 0
6, 10099, Note_on_c, 5, 60, 0
6, 10110, Note_on_c, 5, 60, 91
6, 10110, Note_on_c, 5, 57, 89
6, 10129, Note_on_c, 5, 57, 0
6, 10129, Note_on_c, 5, 60, 0
6, 10140, Note_on_c, 5, 60, 90
6, 10140, Note_on_c, 5, 57, 93
6, 10159, Note_on_c, 5, 57, 0
6, 10159, Note_on_c, 5, 60, 0
6, 10170, Note_on_c, 5, 60, 91
6, 10170, Note_on_c, 5, 57, 92
6, 10199, Note_on_c, 5, 57, 0
6, 10199, Note_on_c, 5, 60, 0
6, 10230, Note_on_c, 5, 60, 90
6, 10230, Note_on_c, 5, 57, 89
6, 10259, Note_on_c, 5, 57, 0
6, 10259, Note_on_c, 5, 60, 0
6, 10320, Note_on_c, 5, 58, 88
6, 10320, Note_on_c, 5, 55, 90
6, 10339, Note_on_c, 5, 55, 0
6, 10339, Note_on_c, 5, 58, 0
6, 10350, Note_on_c, 5, 58, 93
6, 10350, Note_on_c, 5, 55, 90
6, 10369, Note_on_c, 5, 55, 0
6, 10369, Note_on_c, 5, 58, 0
6, 10380, Note_on_c, 5, 58, 93
6, 10380, Note_on_c, 5, 55, 92
6, 10399, Note_on_c, 5, 55, 0
6, 10399, Note_on_c, 5, 58, 0
6, 10410, Note_on_c, 5, 58, 91
6, 10410, Note_on_c, 5, 55, 90
6, 10439, Note_on_c, 5, 55, 0
6, 10439, Note_on_c, 5, 58, 0
6, 10470, Note_on_c, 5, 58, 92
6, 10470, Note_on_c, 5, 55, 92
6, 10499, Note_on_c, 5, 55, 0
6, 10499, Note_on_c, 5, 58, 0
6, 10560, Note_on_c, 5, 60, 90
6, 10560, Note_on_c, 5, 57, 89
6, 10579, Note_on_c, 5, 57, 0
6, 10579, Note_on_c, 5, 60, 0
6, 10590, Note_on_c, 5, 60, 90
6, 10590, Note_on_c, 5, 57, 89
6, 10609, Note_on_c, 5, 57, 0
6, 10609, Note_on_c, 5, 60, 0
6, 10620, Note_on_c, 5, 60, 90
6, 10620, Note_on_c, 5, 57, 92
6, 10639, Note_on_c, 5, 57, 0
6, 10639, Note_on_c, 5, 60, 0
6, 10650, Note_on_c, 5, 60, 91
6, 10650, Note_on_c, 5, 57, 90
6, 10679, Note_on_c, 5, 57, 0
6, 10679, Note_on_c, 5, 60, 0
6, 10710, Note_on_c, 5, 60, 93
6, 10710, Note_on_c, 5, 57, 89
6, 10739, Note_on_c, 5, 57, 0
6, 10739, Note_on_c, 5, 60, 0
6, 10800, Note_on_c, 5, 60, 90
6, 10800, Note_on_c, 5, 57, 93
6, 10819, Note_on_c, 5, 57, 0
6, 10819, Note_on_c, 5, 60, 0
6, 10830, Note_on_c, 5, 60, 93
6, 10830, Note_on_c, 5, 57, 92
6, 10849, Note_on_c, 5, 57, 0
6, 10849, Note_on_c, 5, 60, 0
6, 10860, Note_on_c, 5, 60, 91
6, 10860, Note_on_c, 5, 57, 91
6, 10879, Note_on_c, 5, 57, 0
6, 10879, Note_on_c, 5, 60, 0
6, 10890, Note_on_c, 5, 60, 90
6, 10890, Note_on_c, 5, 57, 90
6, 10919, Note_on_c, 5, 57, 0
6, 10919, Note_on_c, 5, 60, 0
6, 10950, Note_on_c, 5, 60, 90
6, 10950, Note_on_c, 5, 57, 91
6, 10979, Note_on_c, 5, 57, 0
6, 10979, Note_on_c, 5, 60, 0
6, 11040, Note_on_c, 5, 55, 92
6, 11040, Note_on_c, 5, 58, 90
6, 11219, Note_on_c, 5, 58, 0
6, 11219, Note_on_c, 5, 55, 0
6, 11280, Note_on_c, 5, 62, 90
6, 11280, Note_on_c, 5, 58, 90
6, 11379, Note_on_c, 5, 58, 0
6, 11379, Note_on_c, 5, 62, 0
6, 11400, Note_on_c, 5, 60, 90
6, 11400, Note_on_c, 5, 57, 90
6, 11499, Note_on_c, 5, 57, 0
6, 11499, Note_on_c, 5, 60, 0
6, 11520, Note_on_c, 5, 62, 90
6, 11520, Note_on_c, 5, 57, 90
6, 11699, Note_on_c, 5, 57, 0
6, 11699, Note_on_c, 5, 62, 0
6, 11730, Note_on_c, 5, 62, 90
6, 11730, Note_on_c, 5, 59, 90
6, 11909, Note_on_c, 5, 59, 0
6, 11909, Note_on_c, 5, 62, 0
6, 11940, Note_on_c, 5, 58, 90
6, 11940, Note_on_c, 5, 61, 90
6, 12239, Note_on_c, 5, 61, 0
6, 12239, Note_on_c, 5, 58, 0
6, 12480, Note_on_c, 5, 62, 90
6, 12480, Note_on_c, 5, 58, 89
6, 12480, Note_on_c, 5, 53, 92
6, 12499, Note_on_c, 5, 53, 0
6, 12499, Note_on_c, 5, 58, 0
6, 12499, Note_on_c, 5, 62, 0
6, 12510, Note_on_c, 5, 53, 93
6, 12510, Note_on_c, 5, 58, 91
6, 12510, Note_on_c, 5, 62, 92
6, 12529, Note_on_c, 5, 62, 0
6, 12529, Note_on_c, 5, 58, 0
6, 12529, Note_on_c, 5, 53, 0
6, 12540, Note_on_c, 5, 58, 92
6, 12540, Note_on_c, 5, 60, 91
6, 12540, Note_on_c, 5, 53, 93
6, 12559, Note_on_c, 5, 53, 0
6, 12559, Note_on_c, 5, 60, 0
6, 12559, Note_on_c, 5, 58, 0
6, 12570, Note_on_c, 5, 62, 92
6, 12570, Note_on_c, 5, 58, 90
6, 12570, Note_on_c, 5, 53, 89
6, 12599, Note_on_c, 5, 53, 0
6, 12599, Note_on_c, 5, 58, 0
6, 12599, Note_on_c, 5, 62, 0
6, 12630, Note_on_c, 5, 60, 92
6, 12630, Note_on_c, 5, 58, 92
6, 12630, Note_on_c, 5, 53, 91
6, 12659, Note_on_c, 5, 53, 0
6, 12659, Note_on_c, 5, 58, 0
6, 12659, Note_on_c, 5, 60, 0
6, 12720, Note_on_c, 5, 65, 93
6, 12720, Note_on_c, 5, 53, 92
6, 12720, Note_on_c, 5, 60, 92
6, 12739, Note_on_c, 5, 60, 0
6, 12739, Note_on_c, 5, 53, 0
6, 12739, Note_on_c, 5, 65, 0
6, 12750, Note_on_c, 5, 65, 93
6, 12750, Note_on_c, 5, 60, 91
6, 12750, Note_on_c, 5, 53, 90
6, 12769, Note_on_c, 5, 53, 0
6, 12769, Note_on_c, 5, 60, 0
6, 12769, Note_on_c, 5, 65, 0
6, 12780, Note_on_c, 5, 62, 89
6, 12780, Note_on_c, 5, 60, 89
6, 12780, Note_on_c, 5, 53, 90
6, 12799, Note_on_c, 5, 53, 0
6, 12799, Note_on_c, 5, 60, 0
6, 12799, Note_on_c, 5, 62, 0
6, 12810, Note_on_c, 5, 65, 90
6, 12810, Note_on_c, 5, 60, 90
6, 12810, Note_on_c, 5, 53, 89
6, 12839, Note_on_c, 5, 53, 0
6, 12839, Note_on_c, 5, 60, 0
6, 12839, Note_on_c, 5, 65, 0
6, 12870, Note_on_c, 5, 62, 92
6, 12870, Note_on_c, 5, 60, 88
6, 12870, Note_on_c, 5, 53, 90
6, 12899, Note_on_c, 5, 53, 0
6, 12899, Note_on_c, 5, 60, 0
6, 12899, Note_on_c, 5, 62, 0
6, 12960, Note_on_c, 5, 58, 92
6, 12960, Note_on_c, 5, 62, 91
6, 12960, Note_on_c, 5, 53, 93
6, 12979, Note_on_c, 5, 53, 0
6, 12979, Note_on_c, 5, 62, 0
6, 12979, Note_on_c, 5, 58, 0
6, 12990, Note_on_c, 5, 53, 93
6, 12990, Note_on_c, 5, 62, 91
6, 12990, Note_on_c, 5, 58, 90
6, 13009, Note_on_c, 5, 58, 0
6, 13009, Note_on_c, 5, 62, 0
6, 13009, Note_on_c, 5, 53, 0
6, 13020, Note_on_c, 5, 60, 89
6, 13020, Note_on_c, 5, 58, 90
6, 13020, Note_on_c, 5, 53, 93
6, 13039, Note_on_c, 5, 53, 0
6, 13039, Note_on_c, 5, 58, 0
6, 13039, Note_on_c, 5, 60, 0
6, 13050, Note_on_c, 5, 62, 90
6, 13050, Note_on_c, 5, 58, 92
6, 13050, Note_on_c, 5, 53, 91
6, 13079, Note_on_c, 5, 53, 0
6, 13079, Note_on_c, 5, 58, 0
6, 13079, Note_on_c, 5, 62, 0
6, 13110, Note_on_c, 5, 60, 90
6, 13110, Note_on_c, 5, 58, 90
6, 13110, Note_on_c, 5, 53, 92
6, 13139, Note_on_c, 5, 53, 0
6, 13139, Note_on_c, 5, 58, 0
6, 13139, Note_on_c, 5, 60, 0
6, 13200, Note_on_c, 5, 65, 93
6, 13200, Note_on_c, 5, 60, 89
6, 13200, Note_on_c, 5, 53, 88
6, 13219, Note_on_c, 5, 53, 0
6, 13219, Note_on_c, 5, 60, 0
6, 13219, Note_on_c, 5, 65, 0
6, 13230, Note_on_c, 5, 65, 90
6, 13230, Note_on_c, 5, 60, 92
6, 13230, Note_on_c, 5, 53, 91
6, 13249, Note_on_c, 5, 53, 0
6, 13249, Note_on_c, 5, 60, 0
6, 13249, Note_on_c, 5, 65, 0
6, 13260, Note_on_c, 5, 62, 93
6, 13260, Note_on_c, 5, 60, 92
6, 13260, Note_on_c, 5, 53, 90
6, 13279, Note_on_c, 5, 53, 0
6, 13279, Note_on_c, 5, 60, 0
6, 13279, Note_on_c, 5, 62, 0
6, 13290, Note_on_c, 5, 65, 93
6, 13290, Note_on_c, 5, 60, 92
6, 13290, Note_on_c, 5, 53, 91
6, 13319, Note_on_c, 5, 53, 0
6, 13319, Note_on_c, 5, 60, 0
6, 13319, Note_on_c, 5, 65, 0
6, 13350, Note_on_c, 5, 53, 90
6, 13350, Note_on_c, 5, 60, 90
6, 13350, Note_on_c, 5, 62, 90
6, 13379, Note_on_c, 5, 62, 0
6, 13379, Note_on_c, 5, 60, 0
6, 13379, Note_on_c, 5, 53, 0
6, 13440, Note_on_c, 5, 58, 90
6, 13440, Note_on_c, 5, 62, 92
6, 13440, Note_on_c, 5, 53, 93
6, 13459, Note_on_c, 5, 53, 0
6, 13459, Note_on_c, 5, 62, 0
6, 13459, Note_on_c, 5, 58, 0
6, 13470, Note_on_c, 5, 62, 92
6, 13470, Note_on_c, 5, 58, 91
6, 13470, Note_on_c, 5, 53, 90
6, 13489, Note_on_c, 5, 53, 0
6, 13489, Note_on_c, 5, 58, 0
6, 13489, Note_on_c, 5, 62, 0
6, 13500, Note_on_c, 5, 60, 93
6, 13500, Note_on_c, 5, 58, 93
6, 13500, Note_on_c, 5, 53, 90
6, 13519, Note_on_c, 5, 53, 0
6, 13519, Note_on_c, 5, 58, 0
6, 13519, Note_on_c, 5, 60, 0
6, 13530, Note_on_c, 5, 62, 93
6, 13530, Note_on_c, 5, 58, 92
6, 13530, Note_on_c, 5, 53, 91
6, 13559, Note_on_c, 5, 53, 0
6, 13559, Note_on_c, 5, 58, 0
6, 13559, Note_on_c, 5, 62, 0
6, 13590, Note_on_c, 5, 60, 93
6, 13590, Note_on_c, 5, 58, 92
6, 13590, Note_on_c, 5, 53, 93
6, 13619, Note_on_c, 5, 53, 0
6, 13619, Note_on_c, 5, 58, 0
6, 13619, Note_on_c, 5, 60, 0
6, 13680, Note_on_c, 5, 65, 94
6, 13680, Note_on_c, 5, 53, 93
6, 13680, Note_on_c, 5, 60, 92
6, 13699, Note_on_c, 5, 60, 0
6, 13699, Note_on_c, 5, 53, 0
6, 13699, Note_on_c, 5, 65, 0
6, 13710, Note_on_c, 5, 65, 89
6, 13710, Note_on_c, 5, 60, 90
6, 13710, Note_on_c, 5, 53, 90
6, 13729, Note_on_c, 5, 53, 0
6, 13729, Note_on_c, 5, 60, 0
6, 13729, Note_on_c, 5, 65, 0
6, 13740, Note_on_c, 5, 62, 91
6, 13740, Note_on_c, 5, 60, 90
6, 13740, Note_on_c, 5, 53, 92
6, 13759, Note_on_c, 5, 53, 0
6, 13759, Note_on_c, 5, 60, 0
6, 13759, Note_on_c, 5, 62, 0
6, 13770, Note_on_c, 5, 53, 90
6, 13770, Note_on_c, 5, 60, 91
6, 13770, Note_on_c, 5, 65, 93
6, 13799, Note_on_c, 5, 65, 0
6, 13799, Note_on_c, 5, 60, 0
6, 13799, Note_on_c, 5, 53, 0
6, 13830, Note_on_c, 5, 60, 93
6, 13830, Note_on_c, 5, 53, 92
6, 13830, Note_on_c, 5, 62, 94
6, 13859, Note_on_c, 5, 62, 0
6, 13859, Note_on_c, 5, 53, 0
6, 13859, Note_on_c, 5, 60, 0
6, 13920, Note_on_c, 5, 62, 91
6, 13920, Note_on_c, 5, 58, 90
6, 13920, Note_on_c, 5, 53, 89
6, 13939, Note_on_c, 5, 53, 0
6, 13939, Note_on_c, 5, 58, 0
6, 13939, Note_on_c, 5, 62, 0
6, 13950, Note_on_c, 5, 62, 88
6, 13950, Note_on_c, 5, 58, 90
6, 13950, Note_on_c, 5, 53, 92
6, 13969, Note_on_c, 5, 53, 0
6, 13969, Note_on_c, 5, 58, 0
6, 13969, Note_on_c, 5, 62, 0
6, 13980, Note_on_c, 5, 60, 90
6, 13980, Note_on_c, 5, 58, 89
6, 13980, Note_on_c, 5, 53, 92
6, 13999, Note_on_c, 5, 53, 0
6, 13999, Note_on_c, 5, 58, 0
6, 13999, Note_on_c, 5, 60, 0
6, 14010, Note_on_c, 5, 62, 91
6, 14010, Note_on_c, 5, 58, 93
6, 14010, Note_on_c, 5, 53, 92
6, 14039, Note_on_c, 5, 53, 0
6, 14039, Note_on_c, 5, 58, 0
6, 14039, Note_on_c, 5, 62, 0
6, 14070, Note_on_c, 5, 60, 90
6, 14070, Note_on_c, 5, 58, 90
6, 14070, Note_on_c, 5, 53, 91
6, 14099, Note_on_c, 5, 53, 0
6, 14099, Note_on_c, 5, 58, 0
6, 14099, Note_on_c, 5, 60, 0
6, 14160, Note_on_c, 5, 65, 92
6, 14160, Note_on_c, 5, 60, 90
6, 14160, Note_on_c, 5, 53, 92
6, 14179, Note_on_c, 5, 53, 0
6, 14179, Note_on_c, 5, 60, 0
6, 14179, Note_on_c, 5, 65, 0
6, 14190, Note_on_c, 5, 53, 92
6, 14190, Note_on_c, 5, 60, 90
6, 14190, Note_on_c, 5, 65, 90
6, 14209, Note_on_c, 5, 65, 0
6, 14209, Note_on_c, 5, 60, 0
6, 14209, Note_on_c, 5, 53, 0
6, 14220, Note_on_c, 5, 62, 90
6, 14220, Note_on_c, 5, 60, 93
6, 14220, Note_on_c, 5, 53, 92
6, 14239, Note_on_c, 5, 53, 0
6, 14239, Note_on_c, 5, 60, 0
6, 14239, Note_on_c, 5, 62, 0
6, 14250, Note_on_c, 5, 60, 91
6, 14250, Note_on_c, 5, 65, 93
6, 14250, Note_on_c, 5, 53, 90
6, 14279, Note_on_c, 5, 53, 0
6, 14279, Note_on_c, 5, 65, 0
6, 14279, Note_on_c, 5, 60, 0
6, 14310, Note_on_c, 5, 60, 91
6, 14310, Note_on_c, 5, 62, 92
6, 14310, Note_on_c, 5, 53, 90
6, 14339, Note_on_c, 5, 53, 0
6, 14339, Note_on_c, 5, 62, 0
6, 14339, Note_on_c, 5, 60, 0
6, 14400, Note_on_c, 5, 62, 90
6, 14400, Note_on_c, 5, 58, 92
6, 14400, Note_on_c, 5, 53, 93
6, 14419, Note_on_c, 5, 53, 0
6, 14419, Note_on_c, 5, 58, 0
6, 14419, Note_on_c, 5, 62, 0
6, 14430, Note_on_c, 5, 62, 91
6, 14430, Note_on_c, 5, 58, 92
6, 14430, Note_on_c, 5, 53, 90
6, 14449, Note_on_c, 5, 53, 0
6, 14449, Note_on_c, 5, 58, 0
6, 14449, Note_on_c, 5, 62, 0
6, 14460, Note_on_c, 5, 58, 92
6, 14460, Note_on_c, 5, 60, 91
6, 14460, Note_on_c, 5, 53, 93
6, 14479, Note_on_c, 5, 53, 0
6, 14479, Note_on_c, 5, 60, 0
6, 14479, Note_on_c, 5, 58, 0
6, 14490, Note_on_c, 5, 62, 92
6, 14490, Note_on_c, 5, 58, 90
6, 14490, Note_on_c, 5, 53, 91
6, 14519, Note_on_c, 5, 53, 0
6, 14519, Note_on_c, 5, 58, 0
6, 14519, Note_on_c, 5, 62, 0
6, 14550, Note_on_c, 5, 60, 92
6, 14550, Note_on_c, 5, 58, 93
6, 14550, Note_on_c, 5, 53, 92
6, 14579, Note_on_c, 5, 53, 0
6, 14579, Note_on_c, 5, 58, 0
6, 14579, Note_on_c, 5, 60, 0
6, 14640, Note_on_c, 5, 65, 90
6, 14640, Note_on_c, 5, 60, 91
6, 14640, Note_on_c, 5, 53, 90
6, 14659, Note_on_c, 5, 53, 0
6, 14659, Note_on_c, 5, 60, 0
6, 14659, Note_on_c, 5, 65, 0
6, 14670, Note_on_c, 5, 65, 92
6, 14670, Note_on_c, 5, 60, 91
6, 14670, Note_on_c, 5, 53, 90
6, 14689, Note_on_c, 5, 53, 0
6, 14689, Note_on_c, 5, 60, 0
6, 14689, Note_on_c, 5, 65, 0
6, 14700, Note_on_c, 5, 60, 93
6, 14700, Note_on_c, 5, 62, 92
6, 14700, Note_on_c, 5, 53, 91
6, 14719, Note_on_c, 5, 53, 0
6, 14719, Note_on_c, 5, 62, 0
6, 14719, Note_on_c, 5, 60, 0
6, 14730, Note_on_c, 5, 60, 93
6, 14730, Note_on_c, 5, 53, 92
6, 14730, Note_on_c, 5, 65, 90
6, 14759, Note_on_c, 5, 65, 0
6, 14759, Note_on_c, 5, 53, 0
6, 14759, Note_on_c, 5, 60, 0
6, 14790, Note_on_c, 5, 60, 92
6, 14790, Note_on_c, 5, 53, 91
6, 14790, Note_on_c, 5, 62, 93
6, 14819, Note_on_c, 5, 62, 0
6, 14819, Note_on_c, 5, 53, 0
6, 14819, Note_on_c, 5, 60, 0
6, 14880, Note_on_c, 5, 62, 90
6, 14880, Note_on_c, 5, 58, 92
6, 14880, Note_on_c, 5, 53, 92
6, 14899, Note_on_c, 5, 53, 0
6, 14899, Note_on_c, 5, 58, 0
6, 14899, Note_on_c, 5, 62, 0
6, 14910, Note_on_c, 5, 58, 90
6, 14910, Note_on_c, 5, 62, 90
6, 14910, Note_on_c, 5, 53, 92
6, 14929, Note_on_c, 5, 53, 0
6, 14929, Note_on_c, 5, 62, 0
6, 14929, Note_on_c, 5, 58, 0
6, 14940, Note_on_c, 5, 58, 92
6, 14940, Note_on_c, 5, 60, 90
6, 14940, Note_on_c, 5, 53, 90
6, 14959, Note_on_c, 5, 53, 0
6, 14959, Note_on_c, 5, 60, 0
6, 14959, Note_on_c, 5, 58, 0
6, 14970, Note_on_c, 5, 62, 91
6, 14970, Note_on_c, 5, 58, 92
6, 14970, Note_on_c, 5, 53, 63
6, 14999, Note_on_c, 5, 53, 0
6, 14999, Note_on_c, 5, 58, 0
6, 14999, Note_on_c, 5, 62, 0
6, 15030, Note_on_c, 5, 60, 90
6, 15030, Note_on_c, 5, 58, 93
6, 15030, Note_on_c, 5, 53, 90
6, 15059, Note_on_c, 5, 53, 0
6, 15059, Note_on_c, 5, 58, 0
6, 15059, Note_on_c, 5, 60, 0
6, 15120, Note_on_c, 5, 65, 91
6, 15120, Note_on_c, 5, 60, 92
6, 15120, Note_on_c, 5, 53, 93
6, 15139, Note_on_c, 5, 53, 0
6, 15139, Note_on_c, 5, 60, 0
6, 15139, Note_on_c, 5, 65, 0
6, 15150, Note_on_c, 5, 65, 90
6, 15150, Note_on_c, 5, 60, 90
6, 15150, Note_on_c, 5, 53, 89
6, 15169, Note_on_c, 5, 53, 0
6, 15169, Note_on_c, 5, 60, 0
6, 15169, Note_on_c, 5, 65, 0
6, 15180, Note_on_c, 5, 53, 93
6, 15180, Note_on_c, 5, 60, 88
6, 15180, Note_on_c, 5, 62, 92
6, 15199, Note_on_c, 5, 62, 0
6, 15199, Note_on_c, 5, 60, 0
6, 15199, Note_on_c, 5, 53, 0
6, 15210, Note_on_c, 5, 65, 75
6, 15210, Note_on_c, 5, 60, 90
6, 15210, Note_on_c, 5, 53, 91
6, 15239, Note_on_c, 5, 53, 0
6, 15239, Note_on_c, 5, 60, 0
6, 15239, Note_on_c, 5, 65, 0
6, 15270, Note_on_c, 5, 53, 94
6, 15270, Note_on_c, 5, 62, 93
6, 15270, Note_on_c, 5, 60, 92
6, 15299, Note_on_c, 5, 60, 0
6, 15299, Note_on_c, 5, 62, 0
6, 15299, Note_on_c, 5, 53, 0
6, 15360, Note_on_c, 5, 58, 90
6, 15360, Note_on_c, 5, 62, 91
6, 15360, Note_on_c, 5, 53, 91
6, 15379, Note_on_c, 5, 53, 0
6, 15379, Note_on_c, 5, 62, 0
6, 15379, Note_on_c, 5, 58, 0
6, 15390, Note_on_c, 5, 62, 90
6, 15390, Note_on_c, 5, 58, 89
6, 15390, Note_on_c, 5, 53, 88
6, 15409, Note_on_c, 5, 53, 0
6, 15409, Note_on_c, 5, 58, 0
6, 15409, Note_on_c, 5, 62, 0
6, 15420, Note_on_c, 5, 58, 89
6, 15420, Note_on_c, 5, 60, 90
6, 15420, Note_on_c, 5, 53, 92
6, 15439, Note_on_c, 5, 53, 0
6, 15439, Note_on_c, 5, 60, 0
6, 15439, Note_on_c, 5, 58, 0
6, 15450, Note_on_c, 5, 62, 92
6, 15450, Note_on_c, 5, 53, 90
6, 15450, Note_on_c, 5, 58, 90
6, 15479, Note_on_c, 5, 58, 0
6, 15479, Note_on_c, 5, 53, 0
6, 15479, Note_on_c, 5, 62, 0
6, 15510, Note_on_c, 5, 60, 91
6, 15510, Note_on_c, 5, 58, 92
6, 15510, Note_on_c, 5, 53, 93
6, 15539, Note_on_c, 5, 53, 0
6, 15539, Note_on_c, 5, 58, 0
6, 15539, Note_on_c, 5, 60, 0
6, 15600, Note_on_c, 5, 60, 92
6, 15600, Note_on_c, 5, 53, 91
6, 15600, Note_on_c, 5, 65, 90
6, 15619, Note_on_c, 5, 65, 0
6, 15619, Note_on_c, 5, 53, 0
6, 15619, Note_on_c, 5, 60, 0
6, 15630, Note_on_c, 5, 65, 90
6, 15630, Note_on_c, 5, 60, 93
6, 15630, Note_on_c, 5, 53, 92
6, 15649, Note_on_c, 5, 53, 0
6, 15649, Note_on_c, 5, 60, 0
6, 15649, Note_on_c, 5, 65, 0
6, 15660, Note_on_c, 5, 62, 91
6, 15660, Note_on_c, 5, 60, 90
6, 15660, Note_on_c, 5, 53, 90
6, 15679, Note_on_c, 5, 53, 0
6, 15679, Note_on_c, 5, 60, 0
6, 15679, Note_on_c, 5, 62, 0
6, 15690, Note_on_c, 5, 53, 92
6, 15690, Note_on_c, 5, 65, 91
6, 15690, Note_on_c, 5, 60, 93
6, 15719, Note_on_c, 5, 60, 0
6, 15719, Note_on_c, 5, 65, 0
6, 15719, Note_on_c, 5, 53, 0
6, 15750, Note_on_c, 5, 62, 92
6, 15750, Note_on_c, 5, 60, 89
6, 15750, Note_on_c, 5, 53, 90
6, 15779, Note_on_c, 5, 53, 0
6, 15779, Note_on_c, 5, 60, 0
6, 15779, Note_on_c, 5, 62, 0
6, 15840, Note_on_c, 5, 62, 92
6, 15840, Note_on_c, 5, 58, 92
6, 15840, Note_on_c, 5, 53, 90
6, 15859, Note_on_c, 5, 53, 0
6, 15859, Note_on_c, 5, 58, 0
6, 15859, Note_on_c, 5, 62, 0
6, 15870, Note_on_c, 5, 58, 90
6, 15870, Note_on_c, 5, 53, 92
6, 15870, Note_on_c, 5, 62, 91
6, 15889, Note_on_c, 5, 62, 0
6, 15889, Note_on_c, 5, 53, 0
6, 15889, Note_on_c, 5, 58, 0
6, 15900, Note_on_c, 5, 60, 92
6, 15900, Note_on_c, 5, 58, 93
6, 15900, Note_on_c, 5, 53, 92
6, 15919, Note_on_c, 5, 53, 0
6, 15919, Note_on_c, 5, 58, 0
6, 15919, Note_on_c, 5, 60, 0
6, 15930, Note_on_c, 5, 62, 91
6, 15930, Note_on_c, 5, 58, 93
6, 15930, Note_on_c, 5, 53, 90
6, 15959, Note_on_c, 5, 53, 0
6, 15959, Note_on_c, 5, 58, 0
6, 15959, Note_on_c, 5, 62, 0
6, 15990, Note_on_c, 5, 60, 89
6, 15990, Note_on_c, 5, 58, 89
6, 15990, Note_on_c, 5, 53, 88
6, 16019, Note_on_c, 5, 53, 0
6, 16019, Note_on_c, 5, 58, 0
6, 16019, Note_on_c, 5, 60, 0
6, 16080, Note_on_c, 5, 60, 90
6, 16080, Note_on_c, 5, 65, 90
6, 16099, Note_on_c, 5, 65, 0
6, 16099, Note_on_c, 5, 60, 0
6, 16110, Note_on_c, 5, 65, 90
6, 16110, Note_on_c, 5, 60, 92
6, 16129, Note_on_c, 5, 60, 0
6, 16129, Note_on_c, 5, 65, 0
6, 16140, Note_on_c, 5, 57, 93
6, 16140, Note_on_c, 5, 62, 91
6, 16259, Note_on_c, 5, 62, 0
6, 16259, Note_on_c, 5, 57, 0
6, 20640, Note_on_c, 5, 60, 93
6, 20640, Note_on_c, 5, 57, 99
6, 20659, Note_on_c, 5, 57, 0
6, 20659, Note_on_c, 5, 60, 0
6, 20670, Note_on_c, 5, 60, 94
6, 20670, Note_on_c, 5, 57, 92
6, 20689, Note_on_c, 5, 57, 0
6, 20689, Note_on_c, 5, 60, 0
6, 20700, Note_on_c, 5, 60, 93
6, 20700, Note_on_c, 5, 57, 93
6, 20719, Note_on_c, 5, 57, 0
6, 20719, Note_on_c, 5, 60, 0
6, 20730, Note_on_c, 5, 60, 93
6, 20730, Note_on_c, 5, 57, 91
6, 20759, Note_on_c, 5, 57, 0
6, 20759, Note_on_c, 5, 60, 0
6, 20790, Note_on_c, 5, 60, 90
6, 20790, Note_on_c, 5, 57, 90
6, 20819, Note_on_c, 5, 57, 0
6, 20819, Note_on_c, 5, 60, 0
6, 20880, Note_on_c, 5, 58, 90
6, 20880, Note_on_c, 5, 55, 90
6, 20899, Note_on_c, 5, 55, 0
6, 20899, Note_on_c, 5, 58, 0
6, 20910, Note_on_c, 5, 58, 92
6, 20910, Note_on_c, 5, 55, 93
6, 20929, Note_on_c, 5, 55, 0
6, 20929, Note_on_c, 5, 58, 0
6, 20940, Note_on_c, 5, 55, 89
6, 20940, Note_on_c, 5, 58, 92
6, 20959, Note_on_c, 5, 58, 0
6, 20959, Note_on_c, 5, 55, 0
6, 20970, Note_on_c, 5, 58, 91
6, 20970, Note_on_c, 5, 55, 90
6, 20999, Note_on_c, 5, 55, 0
6, 20999, Note_on_c, 5, 58, 0
6, 21030, Note_on_c, 5, 58, 93
6, 21030, Note_on_c, 5, 55, 92
6, 21059, Note_on_c, 5, 55, 0
6, 21059, Note_on_c, 5, 58, 0
6, 21120, Note_on_c, 5, 60, 90
6, 21120, Note_on_c, 5, 57, 91
6, 21139, Note_on_c, 5, 57, 0
6, 21139, Note_on_c, 5, 60, 0
6, 21150, Note_on_c, 5, 60, 90
6, 21150, Note_on_c, 5, 57, 93
6, 21169, Note_on_c, 5, 57, 0
6, 21169, Note_on_c, 5, 60, 0
6, 21180, Note_on_c, 5, 60, 92
6, 21180, Note_on_c, 5, 57, 91
6, 21199, Note_on_c, 5, 57, 0
6, 21199, Note_on_c, 5, 60, 0
6, 21210, Note_on_c, 5, 60, 90
6, 21210, Note_on_c, 5, 57, 92
6, 21239, Note_on_c, 5, 57, 0
6, 21239, Note_on_c, 5, 60, 0
6, 21270, Note_on_c, 5, 60, 91
6, 21270, Note_on_c, 5, 57, 93
6, 21299, Note_on_c, 5, 57, 0
6, 21299, Note_on_c, 5, 60, 0
6, 21360, Note_on_c, 5, 57, 81
6, 21360, Note_on_c, 5, 60, 92
6, 21379, Note_on_c, 5, 60, 0
6, 21379, Note_on_c, 5, 57, 0
6, 21390, Note_on_c, 5, 60, 90
6, 21390, Note_on_c, 5, 57, 90
6, 21409, Note_on_c, 5, 57, 0
6, 21409, Note_on_c, 5, 60, 0
6, 21420, Note_on_c, 5, 60, 92
6, 21420, Note_on_c, 5, 57, 91
6, 21439, Note_on_c, 5, 57, 0
6, 21439, Note_on_c, 5, 60, 0
6, 21450, Note_on_c, 5, 60, 93
6, 21450, Note_on_c, 5, 57, 90
6, 21479, Note_on_c, 5, 57, 0
6, 21479, Note_on_c, 5, 60, 0
6, 21510, Note_on_c, 5, 60, 90
6, 21510, Note_on_c, 5, 57, 94
6, 21539, Note_on_c, 5, 57, 0
6, 21539, Note_on_c, 5, 60, 0
6, 21600, Note_on_c, 5, 53, 92
6, 21600, Note_on_c, 5, 50, 92
6, 21619, Note_on_c, 5, 50, 0
6, 21619, Note_on_c, 5, 53, 0
6, 21630, Note_on_c, 5, 53, 90
6, 21630, Note_on_c, 5, 50, 93
6, 21649, Note_on_c, 5, 50, 0
6, 21649, Note_on_c, 5, 53, 0
6, 21660, Note_on_c, 5, 50, 92
6, 21660, Note_on_c, 5, 53, 91
6, 21679, Note_on_c, 5, 53, 0
6, 21679, Note_on_c, 5, 50, 0
6, 21690, Note_on_c, 5, 50, 90
6, 21690, Note_on_c, 5, 53, 89
6, 21719, Note_on_c, 5, 53, 0
6, 21719, Note_on_c, 5, 50, 0
6, 21750, Note_on_c, 5, 52, 94
6, 21750, Note_on_c, 5, 55, 94
6, 21779, Note_on_c, 5, 55, 0
6, 21779, Note_on_c, 5, 52, 0
6, 21810, Note_on_c, 5, 57, 89
6, 21810, Note_on_c, 5, 53, 87
6, 21929, Note_on_c, 5, 53, 0
6, 21929, Note_on_c, 5, 57, 0
6, 21960, Note_on_c, 5, 55, 90
6, 21960, Note_on_c, 5, 58, 90
6, 22049, Note_on_c, 5, 58, 0
6, 22049, Note_on_c, 5, 55, 0
6, 22080, Note_on_c, 5, 57, 87
6, 22080, Note_on_c, 5, 60, 99
6, 22099, Note_on_c, 5, 60, 0
6, 22099, Note_on_c, 5, 57, 0
6, 22110, Note_on_c, 5, 57, 90
6, 22110, Note_on_c, 5, 60, 90
6, 22129, Note_on_c, 5, 60, 0
6, 22129, Note_on_c, 5, 57, 0
6, 22140, Note_on_c, 5, 57, 93
6, 22140, Note_on_c, 5, 60, 92
6, 22159, Note_on_c, 5, 60, 0
6, 22159, Note_on_c, 5, 57, 0
6, 22170, Note_on_c, 5, 60, 91
6, 22170, Note_on_c, 5, 57, 93
6, 22199, Note_on_c, 5, 57, 0
6, 22199, Note_on_c, 5, 60, 0
6, 22230, Note_on_c, 5, 57, 90
6, 22230, Note_on_c, 5, 60, 93
6, 22259, Note_on_c, 5, 60, 0
6, 22259, Note_on_c, 5, 57, 0
6, 22320, Note_on_c, 5, 58, 90
6, 22320, Note_on_c, 5, 55, 89
6, 22339, Note_on_c, 5, 55, 0
6, 22339, Note_on_c, 5, 58, 0
6, 22350, Note_on_c, 5, 58, 89
6, 22350, Note_on_c, 5, 55, 92
6, 22369, Note_on_c, 5, 55, 0
6, 22369, Note_on_c, 5, 58, 0
6, 22380, Note_on_c, 5, 58, 91
6, 22380, Note_on_c, 5, 55, 93
6, 22399, Note_on_c, 5, 55, 0
6, 22399, Note_on_c, 5, 58, 0
6, 22410, Note_on_c, 5, 58, 92
6, 22410, Note_on_c, 5, 55, 90
6, 22439, Note_on_c, 5, 55, 0
6, 22439, Note_on_c, 5, 58, 0
6, 22470, Note_on_c, 5, 58, 90
6, 22470, Note_on_c, 5, 55, 92
6, 22499, Note_on_c, 5, 55, 0
6, 22499, Note_on_c, 5, 58, 0
6, 22560, Note_on_c, 5, 60, 93
6, 22560, Note_on_c, 5, 57, 90
6, 22579, Note_on_c, 5, 57, 0
6, 22579, Note_on_c, 5, 60, 0
6, 22590, Note_on_c, 5, 60, 93
6, 22590, Note_on_c, 5, 57, 94
6, 22609, Note_on_c, 5, 57, 0
6, 22609, Note_on_c, 5, 60, 0
6, 22620, Note_on_c, 5, 60, 92
6, 22620, Note_on_c, 5, 57, 90
6, 22639, Note_on_c, 5, 57, 0
6, 22639, Note_on_c, 5, 60, 0
6, 22650, Note_on_c, 5, 60, 89
6, 22650, Note_on_c, 5, 57, 90
6, 22679, Note_on_c, 5, 57, 0
6, 22679, Note_on_c, 5, 60, 0
6, 22710, Note_on_c, 5, 60, 92
6, 22710, Note_on_c, 5, 57, 91
6, 22739, Note_on_c, 5, 57, 0
6, 22739, Note_on_c, 5, 60, 0
6, 22800, Note_on_c, 5, 60, 90
6, 22800, Note_on_c, 5, 57, 93
6, 22819, Note_on_c, 5, 57, 0
6, 22819, Note_on_c, 5, 60, 0
6, 22830, Note_on_c, 5, 60, 92
6, 22830, Note_on_c, 5, 57, 90
6, 22849, Note_on_c, 5, 57, 0
6, 22849, Note_on_c, 5, 60, 0
6, 22860, Note_on_c, 5, 60, 93
6, 22860, Note_on_c, 5, 57, 92
6, 22879, Note_on_c, 5, 57, 0
6, 22879, Note_on_c, 5, 60, 0
6, 22890, Note_on_c, 5, 60, 90
6, 22890, Note_on_c, 5, 57, 91
6, 22919, Note_on_c, 5, 57, 0
6, 22919, Note_on_c, 5, 60, 0
6, 22950, Note_on_c, 5, 60, 90
6, 22950, Note_on_c, 5, 57, 93
6, 22979, Note_on_c, 5, 57, 0
6, 22979, Note_on_c, 5, 60, 0
6, 23040, Note_on_c, 5, 53, 92
6, 23040, Note_on_c, 5, 50, 90
6, 23059, Note_on_c, 5, 50, 0
6, 23059, Note_on_c, 5, 53, 0
6, 23070, Note_on_c, 5, 53, 89
6, 23070, Note_on_c, 5, 50, 90
6, 23089, Note_on_c, 5, 50, 0
6, 23089, Note_on_c, 5, 53, 0
6, 23100, Note_on_c, 5, 50, 92
6, 23100, Note_on_c, 5, 53, 93
6, 23119, Note_on_c, 5, 53, 0
6, 23119, Note_on_c, 5, 50, 0
6, 23130, Note_on_c, 5, 50, 91
6, 23130, Note_on_c, 5, 53, 92
6, 23159, Note_on_c, 5, 53, 0
6, 23159, Note_on_c, 5, 50, 0
6, 23190, Note_on_c, 5, 52, 94
6, 23190, Note_on_c, 5, 55, 93
6, 23219, Note_on_c, 5, 55, 0
6, 23219, Note_on_c, 5, 52, 0
6, 23250, Note_on_c, 5, 57, 92
6, 23250, Note_on_c, 5, 53, 96
6, 23369, Note_on_c, 5, 53, 0
6, 23369, Note_on_c, 5, 57, 0
6, 23400, Note_on_c, 5, 58, 88
6, 23400, Note_on_c, 5, 55, 89
6, 23519, Note_on_c, 5, 55, 0
6, 23519, Note_on_c, 5, 58, 0
6, 23520, Note_on_c, 5, 57, 92
6, 23520, Note_on_c, 5, 60, 91
6, 23539, Note_on_c, 5, 60, 0
6, 23539, Note_on_c, 5, 57, 0
6, 23550, Note_on_c, 5, 60, 92
6, 23550, Note_on_c, 5, 57, 93
6, 23569, Note_on_c, 5, 57, 0
6, 23569, Note_on_c, 5, 60, 0
6, 23580, Note_on_c, 5, 60, 90
6, 23580, Note_on_c, 5, 57, 90
6, 23599, Note_on_c, 5, 57, 0
6, 23599, Note_on_c, 5, 60, 0
6, 23610, Note_on_c, 5, 57, 89
6, 23610, Note_on_c, 5, 60, 90
6, 23639, Note_on_c, 5, 60, 0
6, 23639, Note_on_c, 5, 57, 0
6, 23670, Note_on_c, 5, 60, 92
6, 23670, Note_on_c, 5, 57, 90
6, 23699, Note_on_c, 5, 57, 0
6, 23699, Note_on_c, 5, 60, 0
6, 23760, Note_on_c, 5, 55, 92
6, 23760, Note_on_c, 5, 58, 93
6, 23859, Note_on_c, 5, 58, 0
6, 23859, Note_on_c, 5, 55, 0
6, 23880, Note_on_c, 5, 57, 91
6, 23880, Note_on_c, 5, 60, 90
6, 23979, Note_on_c, 5, 60, 0
6, 23979, Note_on_c, 5, 57, 0
6, 24000, Note_on_c, 5, 58, 93
6, 24029, Note_on_c, 5, 58, 0
6, 24030, Note_on_c, 5, 62, 92
6, 24059, Note_on_c, 5, 62, 0
6, 24060, Note_on_c, 5, 65, 91
6, 24089, Note_on_c, 5, 65, 0
6, 24090, Note_on_c, 5, 69, 92
6, 24149, Note_on_c, 5, 69, 0
6, 24150, Note_on_c, 5, 65, 90
6, 24209, Note_on_c, 5, 65, 0
6, 24210, Note_on_c, 5, 62, 92
6, 24239, Note_on_c, 5, 62, 0
6, 24240, Note_on_c, 5, 58, 93
6, 24269, Note_on_c, 5, 58, 0
6, 24270, Note_on_c, 5, 62, 91
6, 24299, Note_on_c, 5, 62, 0
6, 24300, Note_on_c, 5, 64, 93
6, 24329, Note_on_c, 5, 64, 0
6, 24330, Note_on_c, 5, 67, 92
6, 24389, Note_on_c, 5, 67, 0
6, 24390, Note_on_c, 5, 64, 90
6, 24449, Note_on_c, 5, 64, 0
6, 24450, Note_on_c, 5, 62, 93
6, 24479, Note_on_c, 5, 62, 0
6, 24480, Note_on_c, 5, 57, 92
6, 24509, Note_on_c, 5, 57, 0
6, 24510, Note_on_c, 5, 60, 90
6, 24539, Note_on_c, 5, 60, 0
6, 24540, Note_on_c, 5, 64, 91
6, 24569, Note_on_c, 5, 64, 0
6, 24570, Note_on_c, 5, 67, 92
6, 24629, Note_on_c, 5, 67, 0
6, 24630, Note_on_c, 5, 64, 90
6, 24689, Note_on_c, 5, 64, 0
6, 24690, Note_on_c, 5, 60, 89
6, 24719, Note_on_c, 5, 60, 0
6, 24720, Note_on_c, 5, 57, 88
6, 24749, Note_on_c, 5, 57, 0
6, 24750, Note_on_c, 5, 60, 90
6, 24779, Note_on_c, 5, 60, 0
6, 24780, Note_on_c, 5, 62, 92
6, 24809, Note_on_c, 5, 62, 0
6, 24810, Note_on_c, 5, 65, 93
6, 24869, Note_on_c, 5, 65, 0
6, 24870, Note_on_c, 5, 62, 92
6, 24929, Note_on_c, 5, 62, 0
6, 24930, Note_on_c, 5, 60, 91
6, 24959, Note_on_c, 5, 60, 0
6, 24960, Note_on_c, 5, 55, 91
6, 24989, Note_on_c, 5, 55, 0
6, 24990, Note_on_c, 5, 58, 90
6, 25019, Note_on_c, 5, 58, 0
6, 25020, Note_on_c, 5, 62, 93
6, 25049, Note_on_c, 5, 62, 0
6, 25050, Note_on_c, 5, 65, 92
6, 25109, Note_on_c, 5, 65, 0
6, 25110, Note_on_c, 5, 62, 91
6, 25169, Note_on_c, 5, 62, 0
6, 25170, Note_on_c, 5, 58, 92
6, 25199, Note_on_c, 5, 58, 0
6, 25200, Note_on_c, 5, 53, 93
6, 25229, Note_on_c, 5, 53, 0
6, 25230, Note_on_c, 5, 58, 90
6, 25259, Note_on_c, 5, 58, 0
6, 25260, Note_on_c, 5, 62, 92
6, 25289, Note_on_c, 5, 62, 0
6, 25290, Note_on_c, 5, 65, 93
6, 25349, Note_on_c, 5, 65, 0
6, 25350, Note_on_c, 5, 62, 92
6, 25409, Note_on_c, 5, 62, 0
6, 25410, Note_on_c, 5, 58, 90
6, 25439, Note_on_c, 5, 58, 0
6, 25440, Note_on_c, 5, 57, 89
6, 25469, Note_on_c, 5, 57, 0
6, 25470, Note_on_c, 5, 62, 93
6, 25499, Note_on_c, 5, 62, 0
6, 25500, Note_on_c, 5, 64, 92
6, 25529, Note_on_c, 5, 64, 0
6, 25530, Note_on_c, 5, 66, 91
6, 25589, Note_on_c, 5, 66, 0
6, 25590, Note_on_c, 5, 64, 90
6, 25649, Note_on_c, 5, 64, 0
6, 25650, Note_on_c, 5, 62, 93
6, 25679, Note_on_c, 5, 62, 0
6, 25680, Note_on_c, 5, 59, 92
6, 25710, Note_on_c, 5, 62, 90
6, 25739, Note_on_c, 5, 62, 0
6, 25739, Note_on_c, 5, 59, 0
6, 25740, Note_on_c, 5, 64, 93
6, 25769, Note_on_c, 5, 64, 0
6, 25770, Note_on_c, 5, 68, 92
6, 25770, Note_on_c, 5, 59, 91
6, 25859, Note_on_c, 5, 59, 0
6, 25859, Note_on_c, 5, 68, 0
6, 26880, Note_on_c, 5, 60, 89
6, 26880, Note_on_c, 5, 57, 90
6, 26899, Note_on_c, 5, 57, 0
6, 26899, Note_on_c, 5, 60, 0
6, 26910, Note_on_c, 5, 57, 92
6, 26910, Note_on_c, 5, 60, 92
6, 26929, Note_on_c, 5, 60, 0
6, 26929, Note_on_c, 5, 57, 0
6, 26940, Note_on_c, 5, 60, 93
6, 26940, Note_on_c, 5, 57, 90
6, 26959, Note_on_c, 5, 57, 0
6, 26959, Note_on_c, 5, 60, 0
6, 26970, Note_on_c, 5, 57, 89
6, 26970, Note_on_c, 5, 60, 92
6, 26999, Note_on_c, 5, 60, 0
6, 26999, Note_on_c, 5, 57, 0
6, 27030, Note_on_c, 5, 60, 90
6, 27030, Note_on_c, 5, 57, 92
6, 27059, Note_on_c, 5, 57, 0
6, 27059, Note_on_c, 5, 60, 0
6, 27120, Note_on_c, 5, 58, 90
6, 27120, Note_on_c, 5, 55, 92
6, 27139, Note_on_c, 5, 55, 0
6, 27139, Note_on_c, 5, 58, 0
6, 27150, Note_on_c, 5, 58, 90
6, 27150, Note_on_c, 5, 55, 93
6, 27169, Note_on_c, 5, 55, 0
6, 27169, Note_on_c, 5, 58, 0
6, 27180, Note_on_c, 5, 58, 89
6, 27180, Note_on_c, 5, 55, 90
6, 27199, Note_on_c, 5, 55, 0
6, 27199, Note_on_c, 5, 58, 0
6, 27210, Note_on_c, 5, 55, 93
6, 27210, Note_on_c, 5, 58, 90
6, 27239, Note_on_c, 5, 58, 0
6, 27239, Note_on_c, 5, 55, 0
6, 27270, Note_on_c, 5, 58, 92
6, 27270, Note_on_c, 5, 55, 93
6, 27299, Note_on_c, 5, 55, 0
6, 27299, Note_on_c, 5, 58, 0
6, 27360, Note_on_c, 5, 60, 93
6, 27360, Note_on_c, 5, 57, 90
6, 27379, Note_on_c, 5, 57, 0
6, 27379, Note_on_c, 5, 60, 0
6, 27390, Note_on_c, 5, 60, 89
6, 27390, Note_on_c, 5, 57, 90
6, 27409, Note_on_c, 5, 57, 0
6, 27409, Note_on_c, 5, 60, 0
6, 27420, Note_on_c, 5, 60, 93
6, 27420, Note_on_c, 5, 57, 91
6, 27439, Note_on_c, 5, 57, 0
6, 27439, Note_on_c, 5, 60, 0
6, 27450, Note_on_c, 5, 60, 92
6, 27450, Note_on_c, 5, 57, 90
6, 27479, Note_on_c, 5, 57, 0
6, 27479, Note_on_c, 5, 60, 0
6, 27510, Note_on_c, 5, 60, 93
6, 27510, Note_on_c, 5, 57, 90
6, 27539, Note_on_c, 5, 57, 0
6, 27539, Note_on_c, 5, 60, 0
6, 27600, Note_on_c, 5, 60, 89
6, 27600, Note_on_c, 5, 57, 88
6, 27619, Note_on_c, 5, 57, 0
6, 27619, Note_on_c, 5, 60, 0
6, 27630, Note_on_c, 5, 60, 90
6, 27630, Note_on_c, 5, 57, 92
6, 27649, Note_on_c, 5, 57, 0
6, 27649, Note_on_c, 5, 60, 0
6, 27660, Note_on_c, 5, 57, 93
6, 27660, Note_on_c, 5, 60, 91
6, 27679, Note_on_c, 5, 60, 0
6, 27679, Note_on_c, 5, 57, 0
6, 27690, Note_on_c, 5, 57, 92
6, 27690, Note_on_c, 5, 60, 92
6, 27719, Note_on_c, 5, 60, 0
6, 27719, Note_on_c, 5, 57, 0
6, 27750, Note_on_c, 5, 60, 90
6, 27750, Note_on_c, 5, 57, 92
6, 27779, Note_on_c, 5, 57, 0
6, 27779, Note_on_c, 5, 60, 0
6, 27840, Note_on_c, 5, 58, 90
6, 27840, Note_on_c, 5, 55, 90
6, 28049, Note_on_c, 5, 55, 0
6, 28049, Note_on_c, 5, 58, 0
6, 28080, Note_on_c, 5, 58, 90
6, 28080, Note_on_c, 5, 55, 92
6, 28179, Note_on_c, 5, 55, 0
6, 28179, Note_on_c, 5, 58, 0
6, 28200, Note_on_c, 5, 57, 90
6, 28200, Note_on_c, 5, 60, 90
6, 28299, Note_on_c, 5, 60, 0
6, 28299, Note_on_c, 5, 57, 0
6, 28320, Note_on_c, 5, 53, 90
6, 28320, Note_on_c, 5, 57, 92
6, 28499, Note_on_c, 5, 57, 0
6, 28499, Note_on_c, 5, 53, 0
6, 28530, Note_on_c, 5, 59, 93
6, 28530, Note_on_c, 5, 62, 93
6, 28709, Note_on_c, 5, 62, 0
6, 28709, Note_on_c, 5, 59, 0
6, 28740, Note_on_c, 5, 58, 93
6, 28740, Note_on_c, 5, 61, 93
6, 28979, Note_on_c, 5, 61, 0
6, 28979, Note_on_c, 5, 58, 0
6, 29280, Note_on_c, 5, 60, 90
6, 29280, Note_on_c, 5, 57, 93
6, 29299, Note_on_c, 5, 57, 0
6, 29299, Note_on_c, 5, 60, 0
6, 29310, Note_on_c, 5, 60, 90
6, 29310, Note_on_c, 5, 57, 92
6, 29329, Note_on_c, 5, 57, 0
6, 29329, Note_on_c, 5, 60, 0
6, 29340, Note_on_c, 5, 60, 91
6, 29340, Note_on_c, 5, 57, 90
6, 29359, Note_on_c, 5, 57, 0
6, 29359, Note_on_c, 5, 60, 0
6, 29370, Note_on_c, 5, 60, 90
6, 29370, Note_on_c, 5, 57, 92
6, 29399, Note_on_c, 5, 57, 0
6, 29399, Note_on_c, 5, 60, 0
6, 29430, Note_on_c, 5, 60, 93
6, 29430, Note_on_c, 5, 57, 90
6, 29459, Note_on_c, 5, 57, 0
6, 29459, Note_on_c, 5, 60, 0
6, 29520, Note_on_c, 5, 58, 90
6, 29520, Note_on_c, 5, 55, 89
6, 29539, Note_on_c, 5, 55, 0
6, 29539, Note_on_c, 5, 58, 0
6, 29550, Note_on_c, 5, 58, 90
6, 29550, Note_on_c, 5, 55, 93
6, 29569, Note_on_c, 5, 55, 0
6, 29569, Note_on_c, 5, 58, 0
6, 29580, Note_on_c, 5, 58, 93
6, 29580, Note_on_c, 5, 55, 91
6, 29599, Note_on_c, 5, 55, 0
6, 29599, Note_on_c, 5, 58, 0
6, 29610, Note_on_c, 5, 58, 90
6, 29610, Note_on_c, 5, 55, 93
6, 29639, Note_on_c, 5, 55, 0
6, 29639, Note_on_c, 5, 58, 0
6, 29670, Note_on_c, 5, 58, 89
6, 29670, Note_on_c, 5, 55, 90
6, 29699, Note_on_c, 5, 55, 0
6, 29699, Note_on_c, 5, 58, 0
6, 29760, Note_on_c, 5, 60, 93
6, 29760, Note_on_c, 5, 57, 92
6, 29779, Note_on_c, 5, 57, 0
6, 29779, Note_on_c, 5, 60, 0
6, 29790, Note_on_c, 5, 57, 91
6, 29790, Note_on_c, 5, 60, 93
6, 29809, Note_on_c, 5, 60, 0
6, 29809, Note_on_c, 5, 57, 0
6, 29820, Note_on_c, 5, 60, 94
6, 29820, Note_on_c, 5, 57, 90
6, 29839, Note_on_c, 5, 57, 0
6, 29839, Note_on_c, 5, 60, 0
6, 29850, Note_on_c, 5, 60, 92
6, 29850, Note_on_c, 5, 57, 90
6, 29879, Note_on_c, 5, 57, 0
6, 29879, Note_on_c, 5, 60, 0
6, 29910, Note_on_c, 5, 60, 93
6, 29910, Note_on_c, 5, 57, 92
6, 29939, Note_on_c, 5, 57, 0
6, 29939, Note_on_c, 5, 60, 0
6, 30000, Note_on_c, 5, 60, 90
6, 30000, Note_on_c, 5, 57, 90
6, 30019, Note_on_c, 5, 57, 0
6, 30019, Note_on_c, 5, 60, 0
6, 30030, Note_on_c, 5, 60, 93
6, 30030, Note_on_c, 5, 57, 91
6, 30049, Note_on_c, 5, 57, 0
6, 30049, Note_on_c, 5, 60, 0
6, 30060, Note_on_c, 5, 60, 93
6, 30060, Note_on_c, 5, 57, 93
6, 30079, Note_on_c, 5, 57, 0
6, 30079, Note_on_c, 5, 60, 0
6, 30090, Note_on_c, 5, 60, 90
6, 30090, Note_on_c, 5, 57, 89
6, 30119, Note_on_c, 5, 57, 0
6, 30119, Note_on_c, 5, 60, 0
6, 30150, Note_on_c, 5, 60, 90
6, 30150, Note_on_c, 5, 57, 93
6, 30179, Note_on_c, 5, 57, 0
6, 30179, Note_on_c, 5, 60, 0
6, 30240, Note_on_c, 5, 53, 92
6, 30240, Note_on_c, 5, 50, 90
6, 30259, Note_on_c, 5, 50, 0
6, 30259, Note_on_c, 5, 53, 0
6, 30270, Note_on_c, 5, 53, 92
6, 30270, Note_on_c, 5, 50, 91
6, 30289, Note_on_c, 5, 50, 0
6, 30289, Note_on_c, 5, 53, 0
6, 30300, Note_on_c, 5, 50, 90
6, 30300, Note_on_c, 5, 53, 93
6, 30319, Note_on_c, 5, 53, 0
6, 30319, Note_on_c, 5, 50, 0
6, 30330, Note_on_c, 5, 53, 90
6, 30330, Note_on_c, 5, 50, 93
6, 30359, Note_on_c, 5, 50, 0
6, 30359, Note_on_c, 5, 53, 0
6, 30390, Note_on_c, 5, 55, 102
6, 30419, Note_on_c, 5, 55, 0
6, 30450, Note_on_c, 5, 57, 90
6, 30450, Note_on_c, 5, 53, 92
6, 30569, Note_on_c, 5, 53, 0
6, 30569, Note_on_c, 5, 57, 0
6, 30600, Note_on_c, 5, 55, 93
6, 30600, Note_on_c, 5, 58, 90
6, 30689, Note_on_c, 5, 58, 0
6, 30689, Note_on_c, 5, 55, 0
6, 30720, Note_on_c, 5, 57, 90
6, 30720, Note_on_c, 5, 60, 90
6, 30739, Note_on_c, 5, 60, 0
6, 30739, Note_on_c, 5, 57, 0
6, 30750, Note_on_c, 5, 60, 93
6, 30750, Note_on_c, 5, 57, 91
6, 30769, Note_on_c, 5, 57, 0
6, 30769, Note_on_c, 5, 60, 0
6, 30780, Note_on_c, 5, 60, 93
6, 30780, Note_on_c, 5, 57, 92
6, 30799, Note_on_c, 5, 57, 0
6, 30799, Note_on_c, 5, 60, 0
6, 30810, Note_on_c, 5, 57, 90
6, 30810, Note_on_c, 5, 60, 91
6, 30839, Note_on_c, 5, 60, 0
6, 30839, Note_on_c, 5, 57, 0
6, 30870, Note_on_c, 5, 57, 90
6, 30870, Note_on_c, 5, 60, 92
6, 30899, Note_on_c, 5, 60, 0
6, 30899, Note_on_c, 5, 57, 0
6, 30960, Note_on_c, 5, 55, 92
6, 30960, Note_on_c, 5, 58, 90
6, 30979, Note_on_c, 5, 58, 0
6, 30979, Note_on_c, 5, 55, 0
6, 30990, Note_on_c, 5, 58, 89
6, 30990, Note_on_c, 5, 55, 89
6, 31009, Note_on_c, 5, 55, 0
6, 31009, Note_on_c, 5, 58, 0
6, 31020, Note_on_c, 5, 58, 89
6, 31020, Note_on_c, 5, 55, 90
6, 31039, Note_on_c, 5, 55, 0
6, 31039, Note_on_c, 5, 58, 0
6, 31050, Note_on_c, 5, 58, 93
6, 31050, Note_on_c, 5, 55, 93
6, 31079, Note_on_c, 5, 55, 0
6, 31079, Note_on_c, 5, 58, 0
6, 31110, Note_on_c, 5, 58, 90
6, 31110, Note_on_c, 5, 55, 94
6, 31139, Note_on_c, 5, 55, 0
6, 31139, Note_on_c, 5, 58, 0
6, 31200, Note_on_c, 5, 60, 92
6, 31200, Note_on_c, 5, 57, 92
6, 31219, Note_on_c, 5, 57, 0
6, 31219, Note_on_c, 5, 60, 0
6, 31230, Note_on_c, 5, 60, 90
6, 31230, Note_on_c, 5, 57, 90
6, 31249, Note_on_c, 5, 57, 0
6, 31249, Note_on_c, 5, 60, 0
6, 31260, Note_on_c, 5, 60, 93
6, 31260, Note_on_c, 5, 57, 92
6, 31279, Note_on_c, 5, 57, 0
6, 31279, Note_on_c, 5, 60, 0
6, 31290, Note_on_c, 5, 60, 90
6, 31290, Note_on_c, 5, 57, 89
6, 31319, Note_on_c, 5, 57, 0
6, 31319, Note_on_c, 5, 60, 0
6, 31350, Note_on_c, 5, 60, 90
6, 31350, Note_on_c, 5, 57, 93
6, 31379, Note_on_c, 5, 57, 0
6, 31379, Note_on_c, 5, 60, 0
6, 31440, Note_on_c, 5, 60, 93
6, 31440, Note_on_c, 5, 57, 90
6, 31459, Note_on_c, 5, 57, 0
6, 31459, Note_on_c, 5, 60, 0
6, 31470, Note_on_c, 5, 60, 90
6, 31470, Note_on_c, 5, 57, 89
6, 31489, Note_on_c, 5, 57, 0
6, 31489, Note_on_c, 5, 60, 0
6, 31500, Note_on_c, 5, 60, 93
6, 31500, Note_on_c, 5, 57, 92
6, 31519, Note_on_c, 5, 57, 0
6, 31519, Note_on_c, 5, 60, 0
6, 31530, Note_on_c, 5, 60, 90
6, 31530, Note_on_c, 5, 57, 92
6, 31559, Note_on_c, 5, 57, 0
6, 31559, Note_on_c, 5, 60, 0
6, 31590, Note_on_c, 5, 60, 90
6, 31590, Note_on_c, 5, 57, 93
6, 31619, Note_on_c, 5, 57, 0
6, 31619, Note_on_c, 5, 60, 0
6, 31680, Note_on_c, 5, 53, 90
6, 31680, Note_on_c, 5, 50, 93
6, 31699, Note_on_c, 5, 50, 0
6, 31699, Note_on_c, 5, 53, 0
6, 31710, Note_on_c, 5, 53, 92
6, 31710, Note_on_c, 5, 50, 91
6, 31729, Note_on_c, 5, 50, 0
6, 31729, Note_on_c, 5, 53, 0
6, 31740, Note_on_c, 5, 50, 90
6, 31740, Note_on_c, 5, 53, 92
6, 31759, Note_on_c, 5, 53, 0
6, 31759, Note_on_c, 5, 50, 0
6, 31770, Note_on_c, 5, 50, 93
6, 31770, Note_on_c, 5, 53, 92
6, 31799, Note_on_c, 5, 53, 0
6, 31799, Note_on_c, 5, 50, 0
6, 31830, Note_on_c, 5, 55, 90
6, 31859, Note_on_c, 5, 55, 0
6, 31890, Note_on_c, 5, 57, 93
6, 31890, Note_on_c, 5, 53, 89
6, 32009, Note_on_c, 5, 53, 0
6, 32009, Note_on_c, 5, 57, 0
6, 32040, Note_on_c, 5, 55, 88
6, 32040, Note_on_c, 5, 58, 90
6, 32129, Note_on_c, 5, 58, 0
6, 32129, Note_on_c, 5, 55, 0
6, 32160, Note_on_c, 5, 57, 90
6, 32160, Note_on_c, 5, 60, 87
6, 32179, Note_on_c, 5, 60, 0
6, 32179, Note_on_c, 5, 57, 0
6, 32190, Note_on_c, 5, 57, 92
6, 32190, Note_on_c, 5, 60, 91
6, 32209, Note_on_c, 5, 60, 0
6, 32209, Note_on_c, 5, 57, 0
6, 32220, Note_on_c, 5, 57, 92
6, 32220, Note_on_c, 5, 60, 90
6, 32239, Note_on_c, 5, 60, 0
6, 32239, Note_on_c, 5, 57, 0
6, 32250, Note_on_c, 5, 57, 93
6, 32250, Note_on_c, 5, 60, 91
6, 32279, Note_on_c, 5, 60, 0
6, 32279, Note_on_c, 5, 57, 0
6, 32310, Note_on_c, 5, 57, 92
6, 32310, Note_on_c, 5, 60, 89
6, 32339, Note_on_c, 5, 60, 0
6, 32339, Note_on_c, 5, 57, 0
6, 32400, Note_on_c, 5, 58, 88
6, 32400, Note_on_c, 5, 55, 92
6, 32419, Note_on_c, 5, 55, 0
6, 32419, Note_on_c, 5, 58, 0
6, 32430, Note_on_c, 5, 58, 93
6, 32430, Note_on_c, 5, 55, 90
6, 32449, Note_on_c, 5, 55, 0
6, 32449, Note_on_c, 5, 58, 0
6, 32460, Note_on_c, 5, 58, 91
6, 32460, Note_on_c, 5, 55, 90
6, 32479, Note_on_c, 5, 55, 0
6, 32479, Note_on_c, 5, 58, 0
6, 32490, Note_on_c, 5, 58, 92
6, 32490, Note_on_c, 5, 55, 93
6, 32519, Note_on_c, 5, 55, 0
6, 32519, Note_on_c, 5, 58, 0
6, 32550, Note_on_c, 5, 58, 91
6, 32550, Note_on_c, 5, 55, 93
6, 32579, Note_on_c, 5, 55, 0
6, 32579, Note_on_c, 5, 58, 0
6, 32640, Note_on_c, 5, 60, 90
6, 32640, Note_on_c, 5, 57, 89
6, 32659, Note_on_c, 5, 57, 0
6, 32659, Note_on_c, 5, 60, 0
6, 32670, Note_on_c, 5, 57, 89
6, 32670, Note_on_c, 5, 60, 90
6, 32689, Note_on_c, 5, 60, 0
6, 32689, Note_on_c, 5, 57, 0
6, 32700, Note_on_c, 5, 60, 90
6, 32700, Note_on_c, 5, 57, 92
6, 32719, Note_on_c, 5, 57, 0
6, 32719, Note_on_c, 5, 60, 0
6, 32730, Note_on_c, 5, 60, 93
6, 32730, Note_on_c, 5, 57, 91
6, 32759, Note_on_c, 5, 57, 0
6, 32759, Note_on_c, 5, 60, 0
6, 32790, Note_on_c, 5, 60, 93
6, 32790, Note_on_c, 5, 57, 92
6, 32819, Note_on_c, 5, 57, 0
6, 32819, Note_on_c, 5, 60, 0
6, 32880, Note_on_c, 5, 60, 90
6, 32880, Note_on_c, 5, 57, 93
6, 32899, Note_on_c, 5, 57, 0
6, 32899, Note_on_c, 5, 60, 0
6, 32910, Note_on_c, 5, 60, 92
6, 32910, Note_on_c, 5, 57, 90
6, 32929, Note_on_c, 5, 57, 0
6, 32929, Note_on_c, 5, 60, 0
6, 32940, Note_on_c, 5, 60, 90
6, 32940, Note_on_c, 5, 57, 91
6, 32959, Note_on_c, 5, 57, 0
6, 32959, Note_on_c, 5, 60, 0
6, 32970, Note_on_c, 5, 60, 91
6, 32970, Note_on_c, 5, 57, 90
6, 32999, Note_on_c, 5, 57, 0
6, 32999, Note_on_c, 5, 60, 0
6, 33030, Note_on_c, 5, 60, 89
6, 33030, Note_on_c, 5, 57, 90
6, 33059, Note_on_c, 5, 57, 0
6, 33059, Note_on_c, 5, 60, 0
6, 33120, Note_on_c, 5, 53, 92
6, 33120, Note_on_c, 5, 50, 93
6, 33139, Note_on_c, 5, 50, 0
6, 33139, Note_on_c, 5, 53, 0
6, 33150, Note_on_c, 5, 53, 90
6, 33150, Note_on_c, 5, 50, 89
6, 33169, Note_on_c, 5, 50, 0
6, 33169, Note_on_c, 5, 53, 0
6, 33180, Note_on_c, 5, 50, 92
6, 33180, Note_on_c, 5, 53, 90
6, 33199, Note_on_c, 5, 53, 0
6, 33199, Note_on_c, 5, 50, 0
6, 33210, Note_on_c, 5, 50, 92
6, 33210, Note_on_c, 5, 53, 89
6, 33239, Note_on_c, 5, 53, 0
6, 33239, Note_on_c, 5, 50, 0
6, 33270, Note_on_c, 5, 52, 90
6, 33270, Note_on_c, 5, 55, 88
6, 33299, Note_on_c, 5, 55, 0
6, 33299, Note_on_c, 5, 52, 0
6, 33330, Note_on_c, 5, 57, 89
6, 33330, Note_on_c, 5, 53, 92
6, 33449, Note_on_c, 5, 53, 0
6, 33449, Note_on_c, 5, 57, 0
6, 33480, Note_on_c, 5, 58, 93
6, 33480, Note_on_c, 5, 55, 90
6, 33569, Note_on_c, 5, 55, 0
6, 33569, Note_on_c, 5, 58, 0
6, 33600, Note_on_c, 5, 57, 89
6, 33600, Note_on_c, 5, 60, 90
6, 33619, Note_on_c, 5, 60, 0
6, 33619, Note_on_c, 5, 57, 0
6, 33630, Note_on_c, 5, 57, 93
6, 33630, Note_on_c, 5, 60, 91
6, 33649, Note_on_c, 5, 60, 0
6, 33649, Note_on_c, 5, 57, 0
6, 33660, Note_on_c, 5, 60, 92
6, 33660, Note_on_c, 5, 57, 90
6, 33679, Note_on_c, 5, 57, 0
6, 33679, Note_on_c, 5, 60, 0
6, 33680, Control_c, 5, 7, 120
6, 33690, Note_on_c, 5, 57, 90
6, 33690, Note_on_c, 5, 60, 89
6, 33719, Note_on_c, 5, 60, 0
6, 33719, Note_on_c, 5, 57, 0
6, 33750, Note_on_c, 5, 57, 90
6, 33750, Note_on_c, 5, 60, 88
6, 33779, Note_on_c, 5, 60, 0
6, 33779, Note_on_c, 5, 57, 0
6, 33795, Control_c, 5, 7, 119
6, 33795, Control_c, 5, 7, 118
6, 33800, Control_c, 5, 7, 117
6, 33800, Control_c, 5, 7, 116
6, 33810, Control_c, 5, 7, 114
6, 33840, Note_on_c, 5, 58, 89
6, 33840, Note_on_c, 5, 55, 90
6, 33859, Note_on_c, 5, 55, 0
6, 33859, Note_on_c, 5, 58, 0
6, 33870, Note_on_c, 5, 55, 92
6, 33870, Note_on_c, 5, 58, 89
6, 33885, Control_c, 5, 7, 111
6, 33889, Note_on_c, 5, 58, 0
6, 33889, Note_on_c, 5, 55, 0
6, 33890, Control_c, 5, 7, 110
6, 33890, Control_c, 5, 7, 108
6, 33895, Control_c, 5, 7, 107
6, 33900, Note_on_c, 5, 58, 91
6, 33900, Note_on_c, 5, 55, 92
6, 33900, Control_c, 5, 7, 105
6, 33919, Note_on_c, 5, 55, 0
6, 33919, Note_on_c, 5, 58, 0
6, 33925, Control_c, 5, 7, 104
6, 33930, Note_on_c, 5, 58, 90
6, 33930, Note_on_c, 5, 55, 93
6, 33935, Control_c, 5, 7, 98
6, 33940, Control_c, 5, 7, 97
6, 33955, Control_c, 5, 7, 96
6, 33959, Note_on_c, 5, 55, 0
6, 33959, Note_on_c, 5, 58, 0
6, 33960, Control_c, 5, 7, 95
6, 33980, Control_c, 5, 7, 94
6, 33990, Note_on_c, 5, 58, 92
6, 33990, Note_on_c, 5, 55, 91
6, 33995, Control_c, 5, 7, 93
6, 33995, Control_c, 5, 7, 92
6, 34000, Control_c, 5, 7, 91
6, 34010, Control_c, 5, 7, 90
6, 34019, Note_on_c, 5, 55, 0
6, 34019, Note_on_c, 5, 58, 0
6, 34030, Control_c, 5, 7, 89
6, 34045, Control_c, 5, 7, 88
6, 34050, Control_c, 5, 7, 85
6, 34080, Note_on_c, 5, 60, 90
6, 34080, Note_on_c, 5, 57, 89
6, 34099, Note_on_c, 5, 57, 0
6, 34099, Note_on_c, 5, 60, 0
6, 34100, Control_c, 5, 7, 84
6, 34110, Note_on_c, 5, 60, 88
6, 34110, Note_on_c, 5, 57, 92
6, 34110, Control_c, 5, 7, 83
6, 34115, Control_c, 5, 7, 82
6, 34120, Control_c, 5, 7, 81
6, 34129, Note_on_c, 5, 57, 0
6, 34129, Note_on_c, 5, 60, 0
6, 34135, Control_c, 5, 7, 80
6, 34140, Note_on_c, 5, 60, 93
6, 34140, Note_on_c, 5, 57, 92
6, 34145, Control_c, 5, 7, 79
6, 34145, Control_c, 5, 7, 78
6, 34159, Note_on_c, 5, 57, 0
6, 34159, Note_on_c, 5, 60, 0
6, 34170, Note_on_c, 5, 60, 93
6, 34170, Note_on_c, 5, 57, 91
6, 34175, Control_c, 5, 7, 77
6, 34199, Note_on_c, 5, 57, 0
6, 34199, Note_on_c, 5, 60, 0
6, 34220, Control_c, 5, 7, 76
6, 34220, Control_c, 5, 7, 74
6, 34225, Control_c, 5, 7, 73
6, 34230, Note_on_c, 5, 60, 90
6, 34230, Note_on_c, 5, 57, 90
6, 34250, Control_c, 5, 7, 72
6, 34255, Control_c, 5, 7, 71
6, 34259, Note_on_c, 5, 57, 0
6, 34259, Note_on_c, 5, 60, 0
6, 34270, Control_c, 5, 7, 70
6, 34275, Control_c, 5, 7, 62
6, 34275, Control_c, 5, 7, 60
6, 34280, Control_c, 5, 7, 51
6, 34280, Control_c, 5, 7, 44
6, 34315, Control_c, 5, 7, 43
6, 34320, Note_on_c, 5, 60, 93
6, 34320, Note_on_c, 5, 57, 92
6, 34320, Control_c, 5, 7, 42
6, 34339, Note_on_c, 5, 57, 0
6, 34339, Note_on_c, 5, 60, 0
6, 34350, Note_on_c, 5, 60, 90
6, 34350, Note_on_c, 5, 57, 90
6, 34365, Control_c, 5, 7, 40
6, 34369, Note_on_c, 5, 57, 0
6, 34369, Note_on_c, 5, 60, 0
6, 34375, Control_c, 5, 7, 39
6, 34375, Control_c, 5, 7, 38
6, 34380, Note_on_c, 5, 60, 93
6, 34380, Note_on_c, 5, 57, 92
6, 34399, Note_on_c, 5, 57, 0
6, 34399, Note_on_c, 5, 60, 0
6, 34410, Note_on_c, 5, 60, 90
6, 34410, Note_on_c, 5, 57, 89
6, 34430, Control_c, 5, 7, 37
6, 34439, Note_on_c, 5, 57, 0
6, 34439, Note_on_c, 5, 60, 0
6, 34445, Control_c, 5, 7, 35
6, 34455, Control_c, 5, 7, 34
6, 34460, Control_c, 5, 7, 27
6, 34470, Note_on_c, 5, 60, 90
6, 34470, Note_on_c, 5, 57, 90
6, 34490, Control_c, 5, 7, 26
6, 34495, Control_c, 5, 7, 25
6, 34499, Note_on_c, 5, 57, 0
6, 34499, Note_on_c, 5, 60, 0
6, 34500, Control_c, 5, 7, 22
6, 34540, Control_c, 5, 7, 21
6, 34555, Control_c, 5, 7, 20
6, 34555, Control_c, 5, 7, 19
6, 34560, Note_on_c, 5, 53, 92
6, 34560, Note_on_c, 5, 50, 91
6, 34565, Control_c, 5, 7, 16
6, 34565, Control_c, 5, 7, 15
6, 34570, Control_c, 5, 7, 13
6, 34575, Control_c, 5, 7, 12
6, 34575, Control_c, 5, 7, 11
6, 34579, Note_on_c, 5, 50, 0
6, 34579, Note_on_c, 5, 53, 0
6, 34580, Control_c, 5, 7, 9
6, 34590, Note_on_c, 5, 53, 90
6, 34590, Note_on_c, 5, 50, 92
6, 34595, Control_c, 5, 7, 8
6, 34595, Control_c, 5, 7, 7
6, 34600, Control_c, 5, 7, 6
6, 34600, Control_c, 5, 7, 4
6, 34605, Control_c, 5, 7, 3
6, 34609, Note_on_c, 5, 50, 0
6, 34609, Note_on_c, 5, 53, 0
6, 34610, Control_c, 5, 7, 1
6, 34610, Control_c, 5, 7, 0
6, 34610, End_track
7, 0, Start_track
7, 0, MIDI_port, 0
7, 0, Program_c, 6, 12
7, 0, Control_c, 6, 7, 95
7, 3780, Note_on_c, 6, 72, 117
7, 3809, Note_on_c, 6, 72, 0
7, 3810, Note_on_c, 6, 72, 117
7, 3839, Note_on_c, 6, 72, 0
7, 3840, Note_on_c, 6, 79, 127
7, 3869, Note_on_c, 6, 79, 0
7, 4020, Note_on_c, 6, 81, 120
7, 4049, Note_on_c, 6, 81, 0
7, 4050, Note_on_c, 6, 79, 111
7, 4079, Note_on_c, 6, 79, 0
7, 4140, Note_on_c, 6, 77, 99
7, 4169, Note_on_c, 6, 77, 0
7, 4170, Note_on_c, 6, 76, 117
7, 4199, Note_on_c, 6, 76, 0
7, 4230, Note_on_c, 6, 77, 99
7, 4259, Note_on_c, 6, 77, 0
7, 4260, Note_on_c, 6, 74, 106
7, 4289, Note_on_c, 6, 74, 0
7, 4290, Note_on_c, 6, 72, 92
7, 4319, Note_on_c, 6, 72, 0
7, 4500, Note_on_c, 6, 84, 96
7, 4529, Note_on_c, 6, 84, 0
7, 4530, Note_on_c, 6, 79, 114
7, 4559, Note_on_c, 6, 79, 0
7, 4620, Note_on_c, 6, 81, 96
7, 4649, Note_on_c, 6, 81, 0
7, 4650, Note_on_c, 6, 77, 114
7, 4679, Note_on_c, 6, 77, 0
7, 4710, Note_on_c, 6, 74, 94
7, 4739, Note_on_c, 6, 74, 0
7, 4740, Note_on_c, 6, 77, 99
7, 4769, Note_on_c, 6, 77, 0
7, 4770, Note_on_c, 6, 79, 102
7, 4799, Note_on_c, 6, 79, 0
7, 4800, Note_on_c, 6, 81, 111
7, 4829, Note_on_c, 6, 81, 0
7, 4830, Note_on_c, 6, 82, 96
7, 4859, Note_on_c, 6, 82, 0
7, 4860, Note_on_c, 6, 81, 109
7, 4889, Note_on_c, 6, 81, 0
7, 4890, Note_on_c, 6, 77, 114
7, 4919, Note_on_c, 6, 77, 0
7, 4950, Note_on_c, 6, 74, 104
7, 4979, Note_on_c, 6, 74, 0
7, 4980, Note_on_c, 6, 77, 106
7, 5009, Note_on_c, 6, 77, 0
7, 5010, Note_on_c, 6, 81, 127
7, 5039, Note_on_c, 6, 81, 0
7, 5070, Note_on_c, 6, 82, 107
7, 5099, Note_on_c, 6, 82, 0
7, 5100, Note_on_c, 6, 81, 120
7, 5129, Note_on_c, 6, 81, 0
7, 5130, Note_on_c, 6, 77, 120
7, 5159, Note_on_c, 6, 77, 0
7, 5220, Note_on_c, 6, 72, 111
7, 5249, Note_on_c, 6, 72, 0
7, 5250, Note_on_c, 6, 72, 99
7, 5279, Note_on_c, 6, 72, 0
7, 5280, Note_on_c, 6, 79, 124
7, 5309, Note_on_c, 6, 79, 0
7, 5460, Note_on_c, 6, 81, 127
7, 5489, Note_on_c, 6, 81, 0
7, 5490, Note_on_c, 6, 79, 124
7, 5519, Note_on_c, 6, 79, 0
7, 5580, Note_on_c, 6, 77, 111
7, 5609, Note_on_c, 6, 77, 0
7, 5610, Note_on_c, 6, 76, 120
7, 5639, Note_on_c, 6, 76, 0
7, 5670, Note_on_c, 6, 77, 106
7, 5699, Note_on_c, 6, 77, 0
7, 5700, Note_on_c, 6, 74, 106
7, 5729, Note_on_c, 6, 74, 0
7, 5730, Note_on_c, 6, 72, 114
7, 5759, Note_on_c, 6, 72, 0
7, 5940, Note_on_c, 6, 84, 109
7, 5969, Note_on_c, 6, 84, 0
7, 5970, Note_on_c, 6, 79, 127
7, 5999, Note_on_c, 6, 79, 0
7, 6060, Note_on_c, 6, 81, 114
7, 6089, Note_on_c, 6, 81, 0
7, 6090, Note_on_c, 6, 77, 120
7, 6119, Note_on_c, 6, 77, 0
7, 6150, Note_on_c, 6, 74, 106
7, 6179, Note_on_c, 6, 74, 0
7, 6180, Note_on_c, 6, 77, 124
7, 6209, Note_on_c, 6, 77, 0
7, 6210, Note_on_c, 6, 79, 120
7, 6239, Note_on_c, 6, 79, 0
7, 6240, Note_on_c, 6, 81, 120
7, 6269, Note_on_c, 6, 81, 0
7, 6270, Note_on_c, 6, 82, 103
7, 6299, Note_on_c, 6, 82, 0
7, 6300, Note_on_c, 6, 81, 117
7, 6329, Note_on_c, 6, 81, 0
7, 6330, Note_on_c, 6, 77, 117
7, 6359, Note_on_c, 6, 77, 0
7, 6390, Note_on_c, 6, 74, 99
7, 6419, Note_on_c, 6, 74, 0
7, 6420, Note_on_c, 6, 77, 124
7, 6449, Note_on_c, 6, 77, 0
7, 6450, Note_on_c, 6, 81, 127
7, 6479, Note_on_c, 6, 81, 0
7, 6510, Note_on_c, 6, 82, 112
7, 6539, Note_on_c, 6, 82, 0
7, 6540, Note_on_c, 6, 81, 117
7, 6569, Note_on_c, 6, 81, 0
7, 6570, Note_on_c, 6, 77, 117
7, 6599, Note_on_c, 6, 77, 0
7, 6630, Note_on_c, 6, 74, 96
7, 6659, Note_on_c, 6, 74, 0
7, 6660, Note_on_c, 6, 78, 96
7, 6660, Note_on_c, 6, 79, 120
7, 6679, Note_on_c, 6, 78, 0
7, 6689, Note_on_c, 6, 79, 0
7, 6690, Note_on_c, 6, 76, 124
7, 6719, Note_on_c, 6, 76, 0
7, 6870, Note_on_c, 6, 72, 109
7, 6899, Note_on_c, 6, 72, 0
7, 6900, Note_on_c, 6, 74, 99
7, 6929, Note_on_c, 6, 74, 0
7, 6930, Note_on_c, 6, 77, 127
7, 6959, Note_on_c, 6, 77, 0
7, 7050, Note_on_c, 6, 79, 117
7, 7079, Note_on_c, 6, 79, 0
7, 7140, Note_on_c, 6, 84, 117
7, 7169, Note_on_c, 6, 84, 0
7, 7200, Note_on_c, 6, 81, 106
7, 7229, Note_on_c, 6, 81, 0
7, 7230, Note_on_c, 6, 79, 97
7, 7259, Note_on_c, 6, 79, 0
7, 7260, Note_on_c, 6, 77, 106
7, 7289, Note_on_c, 6, 77, 0
7, 7290, Note_on_c, 6, 89, 111
7, 7319, Note_on_c, 6, 89, 0
7, 7440, Note_on_c, 6, 88, 120
7, 7469, Note_on_c, 6, 88, 0
7, 7470, Note_on_c, 6, 89, 114
7, 7499, Note_on_c, 6, 89, 0
7, 7500, Note_on_c, 6, 88, 111
7, 7529, Note_on_c, 6, 88, 0
7, 7530, Note_on_c, 6, 86, 117
7, 7559, Note_on_c, 6, 86, 0
7, 7590, Note_on_c, 6, 91, 114
7, 7619, Note_on_c, 6, 91, 0
7, 7620, Note_on_c, 6, 88, 114
7, 7649, Note_on_c, 6, 88, 0
7, 7650, Note_on_c, 6, 84, 117
7, 7679, Note_on_c, 6, 84, 0
7, 7860, Note_on_c, 6, 81, 97
7, 7889, Note_on_c, 6, 81, 0
7, 7890, Note_on_c, 6, 86, 114
7, 7919, Note_on_c, 6, 86, 0
7, 7980, Note_on_c, 6, 89, 89
7, 8009, Note_on_c, 6, 89, 0
7, 8010, Note_on_c, 6, 82, 103
7, 8039, Note_on_c, 6, 82, 0
7, 8070, Note_on_c, 6, 81, 94
7, 8099, Note_on_c, 6, 81, 0
7, 8130, Note_on_c, 6, 82, 107
7, 8159, Note_on_c, 6, 82, 0
7, 8280, Note_on_c, 6, 81, 66
7, 8283, Note_on_c, 6, 82, 96
7, 8299, Note_on_c, 6, 81, 0
7, 8309, Note_on_c, 6, 82, 0
7, 8327, Note_on_c, 6, 84, 109
7, 8345, Note_on_c, 6, 84, 0
7, 8368, Note_on_c, 6, 86, 109
7, 8381, Note_on_c, 6, 86, 0
7, 8400, Note_on_c, 6, 85, 78
7, 8404, Note_on_c, 6, 86, 124
7, 8419, Note_on_c, 6, 85, 0
7, 8508, Note_on_c, 6, 86, 0
7, 8792, Note_on_c, 6, 86, 97
7, 8819, Note_on_c, 6, 86, 0
7, 8820, Note_on_c, 6, 83, 99
7, 8845, Note_on_c, 6, 83, 0
7, 8849, Note_on_c, 6, 88, 124
7, 8950, Note_on_c, 6, 88, 0
7, 10020, Note_on_c, 6, 72, 117
7, 10049, Note_on_c, 6, 72, 0
7, 10050, Note_on_c, 6, 72, 117
7, 10079, Note_on_c, 6, 72, 0
7, 10080, Note_on_c, 6, 79, 127
7, 10109, Note_on_c, 6, 79, 0
7, 10260, Note_on_c, 6, 81, 120
7, 10289, Note_on_c, 6, 81, 0
7, 10290, Note_on_c, 6, 79, 111
7, 10319, Note_on_c, 6, 79, 0
7, 10380, Note_on_c, 6, 77, 99
7, 10409, Note_on_c, 6, 77, 0
7, 10410, Note_on_c, 6, 76, 117
7, 10439, Note_on_c, 6, 76, 0
7, 10470, Note_on_c, 6, 77, 99
7, 10499, Note_on_c, 6, 77, 0
7, 10500, Note_on_c, 6, 74, 106
7, 10529, Note_on_c, 6, 74, 0
7, 10530, Note_on_c, 6, 72, 92
7, 10559, Note_on_c, 6, 72, 0
7, 10740, Note_on_c, 6, 72, 109
7, 10769, Note_on_c, 6, 72, 0
7, 10770, Note_on_c, 6, 84, 117
7, 10859, Note_on_c, 6, 84, 0
7, 10860, Note_on_c, 6, 86, 114
7, 10889, Note_on_c, 6, 86, 0
7, 10890, Note_on_c, 6, 82, 112
7, 10919, Note_on_c, 6, 82, 0
7, 10950, Note_on_c, 6, 81, 124
7, 11009, Note_on_c, 6, 81, 0
7, 11010, Note_on_c, 6, 82, 117
7, 11249, Note_on_c, 6, 82, 0
7, 11250, Note_on_c, 6, 79, 94
7, 11279, Note_on_c, 6, 79, 0
7, 11280, Note_on_c, 6, 82, 99
7, 11309, Note_on_c, 6, 82, 0
7, 11310, Note_on_c, 6, 84, 102
7, 11339, Note_on_c, 6, 84, 0
7, 11340, Note_on_c, 6, 86, 117
7, 11369, Note_on_c, 6, 86, 0
7, 11400, Note_on_c, 6, 88, 106
7, 11429, Note_on_c, 6, 88, 0
7, 11460, Note_on_c, 6, 78, 117
7, 11460, Note_on_c, 6, 79, 111
7, 11479, Note_on_c, 6, 78, 0
7, 11489, Note_on_c, 6, 79, 0
7, 11490, Note_on_c, 6, 77, 104
7, 11669, Note_on_c, 6, 77, 0
7, 11700, Note_on_c, 6, 81, 104
7, 11729, Note_on_c, 6, 81, 0
7, 11730, Note_on_c, 6, 91, 120
7, 11939, Note_on_c, 6, 91, 0
7, 11940, Note_on_c, 6, 89, 114
7, 12179, Note_on_c, 6, 89, 0
7, 20580, Note_on_c, 6, 72, 117
7, 20609, Note_on_c, 6, 72, 0
7, 20610, Note_on_c, 6, 72, 117
7, 20639, Note_on_c, 6, 72, 0
7, 20640, Note_on_c, 6, 79, 127
7, 20669, Note_on_c, 6, 79, 0
7, 20820, Note_on_c, 6, 81, 120
7, 20849, Note_on_c, 6, 81, 0
7, 20850, Note_on_c, 6, 79, 111
7, 20879, Note_on_c, 6, 79, 0
7, 20940, Note_on_c, 6, 77, 99
7, 20969, Note_on_c, 6, 77, 0
7, 20970, Note_on_c, 6, 76, 117
7, 20999, Note_on_c, 6, 76, 0
7, 21030, Note_on_c, 6, 77, 99
7, 21059, Note_on_c, 6, 77, 0
7, 21060, Note_on_c, 6, 74, 106
7, 21089, Note_on_c, 6, 74, 0
7, 21090, Note_on_c, 6, 72, 92
7, 21119, Note_on_c, 6, 72, 0
7, 21300, Note_on_c, 6, 84, 96
7, 21329, Note_on_c, 6, 84, 0
7, 21330, Note_on_c, 6, 79, 114
7, 21359, Note_on_c, 6, 79, 0
7, 21420, Note_on_c, 6, 81, 96
7, 21449, Note_on_c, 6, 81, 0
7, 21450, Note_on_c, 6, 77, 114
7, 21479, Note_on_c, 6, 77, 0
7, 21510, Note_on_c, 6, 74, 94
7, 21539, Note_on_c, 6, 74, 0
7, 21540, Note_on_c, 6, 77, 99
7, 21569, Note_on_c, 6, 77, 0
7, 21570, Note_on_c, 6, 79, 102
7, 21599, Note_on_c, 6, 79, 0
7, 21600, Note_on_c, 6, 81, 111
7, 21629, Note_on_c, 6, 81, 0
7, 21630, Note_on_c, 6, 82, 96
7, 21659, Note_on_c, 6, 82, 0
7, 21660, Note_on_c, 6, 81, 109
7, 21689, Note_on_c, 6, 81, 0
7, 21690, Note_on_c, 6, 77, 114
7, 21719, Note_on_c, 6, 77, 0
7, 21750, Note_on_c, 6, 74, 104
7, 21779, Note_on_c, 6, 74, 0
7, 21780, Note_on_c, 6, 77, 106
7, 21809, Note_on_c, 6, 77, 0
7, 21810, Note_on_c, 6, 81, 127
7, 21839, Note_on_c, 6, 81, 0
7, 21870, Note_on_c, 6, 82, 107
7, 21899, Note_on_c, 6, 82, 0
7, 21900, Note_on_c, 6, 81, 120
7, 21929, Note_on_c, 6, 81, 0
7, 21930, Note_on_c, 6, 77, 120
7, 21959, Note_on_c, 6, 77, 0
7, 22020, Note_on_c, 6, 72, 111
7, 22049, Note_on_c, 6, 72, 0
7, 22050, Note_on_c, 6, 72, 99
7, 22079, Note_on_c, 6, 72, 0
7, 22080, Note_on_c, 6, 79, 124
7, 22109, Note_on_c, 6, 79, 0
7, 22260, Note_on_c, 6, 81, 127
7, 22289, Note_on_c, 6, 81, 0
7, 22290, Note_on_c, 6, 79, 124
7, 22319, Note_on_c, 6, 79, 0
7, 22380, Note_on_c, 6, 77, 111
7, 22409, Note_on_c, 6, 77, 0
7, 22410, Note_on_c, 6, 76, 120
7, 22439, Note_on_c, 6, 76, 0
7, 22470, Note_on_c, 6, 77, 106
7, 22499, Note_on_c, 6, 77, 0
7, 22500, Note_on_c, 6, 74, 106
7, 22529, Note_on_c, 6, 74, 0
7, 22530, Note_on_c, 6, 72, 114
7, 22559, Note_on_c, 6, 72, 0
7, 22740, Note_on_c, 6, 84, 109
7, 22769, Note_on_c, 6, 84, 0
7, 22770, Note_on_c, 6, 79, 127
7, 22799, Note_on_c, 6, 79, 0
7, 22860, Note_on_c, 6, 81, 114
7, 22889, Note_on_c, 6, 81, 0
7, 22890, Note_on_c, 6, 77, 120
7, 22919, Note_on_c, 6, 77, 0
7, 22950, Note_on_c, 6, 74, 106
7, 22979, Note_on_c, 6, 74, 0
7, 22980, Note_on_c, 6, 77, 124
7, 23009, Note_on_c, 6, 77, 0
7, 23010, Note_on_c, 6, 79, 120
7, 23039, Note_on_c, 6, 79, 0
7, 23040, Note_on_c, 6, 81, 120
7, 23069, Note_on_c, 6, 81, 0
7, 23070, Note_on_c, 6, 82, 103
7, 23099, Note_on_c, 6, 82, 0
7, 23100, Note_on_c, 6, 81, 117
7, 23129, Note_on_c, 6, 81, 0
7, 23130, Note_on_c, 6, 77, 117
7, 23159, Note_on_c, 6, 77, 0
7, 23190, Note_on_c, 6, 74, 99
7, 23219, Note_on_c, 6, 74, 0
7, 23220, Note_on_c, 6, 77, 124
7, 23249, Note_on_c, 6, 77, 0
7, 23250, Note_on_c, 6, 81, 127
7, 23279, Note_on_c, 6, 81, 0
7, 23310, Note_on_c, 6, 82, 112
7, 23339, Note_on_c, 6, 82, 0
7, 23340, Note_on_c, 6, 81, 117
7, 23369, Note_on_c, 6, 81, 0
7, 23370, Note_on_c, 6, 77, 117
7, 23399, Note_on_c, 6, 77, 0
7, 23430, Note_on_c, 6, 74, 96
7, 23459, Note_on_c, 6, 74, 0
7, 23460, Note_on_c, 6, 78, 96
7, 23460, Note_on_c, 6, 79, 120
7, 23479, Note_on_c, 6, 78, 0
7, 23489, Note_on_c, 6, 79, 0
7, 23490, Note_on_c, 6, 76, 124
7, 23519, Note_on_c, 6, 76, 0
7, 23670, Note_on_c, 6, 72, 109
7, 23699, Note_on_c, 6, 72, 0
7, 23700, Note_on_c, 6, 74, 99
7, 23729, Note_on_c, 6, 74, 0
7, 23730, Note_on_c, 6, 77, 127
7, 23759, Note_on_c, 6, 77, 0
7, 23850, Note_on_c, 6, 79, 117
7, 23879, Note_on_c, 6, 79, 0
7, 23940, Note_on_c, 6, 84, 117
7, 23969, Note_on_c, 6, 84, 0
7, 24000, Note_on_c, 6, 81, 106
7, 24029, Note_on_c, 6, 81, 0
7, 24030, Note_on_c, 6, 79, 97
7, 24059, Note_on_c, 6, 79, 0
7, 24060, Note_on_c, 6, 77, 106
7, 24089, Note_on_c, 6, 77, 0
7, 24090, Note_on_c, 6, 89, 111
7, 24119, Note_on_c, 6, 89, 0
7, 24240, Note_on_c, 6, 88, 120
7, 24269, Note_on_c, 6, 88, 0
7, 24270, Note_on_c, 6, 89, 114
7, 24299, Note_on_c, 6, 89, 0
7, 24300, Note_on_c, 6, 88, 111
7, 24329, Note_on_c, 6, 88, 0
7, 24330, Note_on_c, 6, 86, 117
7, 24359, Note_on_c, 6, 86, 0
7, 24390, Note_on_c, 6, 91, 114
7, 24419, Note_on_c, 6, 91, 0
7, 24420, Note_on_c, 6, 88, 114
7, 24449, Note_on_c, 6, 88, 0
7, 24450, Note_on_c, 6, 84, 117
7, 24479, Note_on_c, 6, 84, 0
7, 24660, Note_on_c, 6, 81, 97
7, 24689, Note_on_c, 6, 81, 0
7, 24690, Note_on_c, 6, 86, 114
7, 24719, Note_on_c, 6, 86, 0
7, 24780, Note_on_c, 6, 89, 89
7, 24809, Note_on_c, 6, 89, 0
7, 24810, Note_on_c, 6, 82, 103
7, 24839, Note_on_c, 6, 82, 0
7, 24870, Note_on_c, 6, 81, 94
7, 24899, Note_on_c, 6, 81, 0
7, 24930, Note_on_c, 6, 82, 107
7, 24959, Note_on_c, 6, 82, 0
7, 25080, Note_on_c, 6, 81, 66
7, 25083, Note_on_c, 6, 82, 96
7, 25092, Note_on_c, 6, 81, 0
7, 25109, Note_on_c, 6, 82, 0
7, 25127, Note_on_c, 6, 84, 109
7, 25145, Note_on_c, 6, 84, 0
7, 25168, Note_on_c, 6, 86, 109
7, 25181, Note_on_c, 6, 86, 0
7, 25200, Note_on_c, 6, 85, 78
7, 25204, Note_on_c, 6, 85, 0
7, 25204, Note_on_c, 6, 86, 124
7, 25308, Note_on_c, 6, 86, 0
7, 25592, Note_on_c, 6, 86, 97
7, 25619, Note_on_c, 6, 86, 0
7, 25620, Note_on_c, 6, 83, 99
7, 25645, Note_on_c, 6, 83, 0
7, 25649, Note_on_c, 6, 88, 124
7, 25750, Note_on_c, 6, 88, 0
7, 26820, Note_on_c, 6, 72, 117
7, 26849, Note_on_c, 6, 72, 0
7, 26850, Note_on_c, 6, 72, 117
7, 26879, Note_on_c, 6, 72, 0
7, 26880, Note_on_c, 6, 79, 127
7, 26909, Note_on_c, 6, 79, 0
7, 27060, Note_on_c, 6, 81, 120
7, 27089, Note_on_c, 6, 81, 0
7, 27090, Note_on_c, 6, 79, 111
7, 27119, Note_on_c, 6, 79, 0
7, 27180, Note_on_c, 6, 77, 99
7, 27209, Note_on_c, 6, 77, 0
7, 27210, Note_on_c, 6, 76, 117
7, 27239, Note_on_c, 6, 76, 0
7, 27270, Note_on_c, 6, 77, 99
7, 27299, Note_on_c, 6, 77, 0
7, 27300, Note_on_c, 6, 74, 106
7, 27329, Note_on_c, 6, 74, 0
7, 27330, Note_on_c, 6, 72, 92
7, 27359, Note_on_c, 6, 72, 0
7, 27540, Note_on_c, 6, 72, 109
7, 27569, Note_on_c, 6, 72, 0
7, 27570, Note_on_c, 6, 84, 117
7, 27659, Note_on_c, 6, 84, 0
7, 27660, Note_on_c, 6, 86, 114
7, 27689, Note_on_c, 6, 86, 0
7, 27690, Note_on_c, 6, 82, 112
7, 27719, Note_on_c, 6, 82, 0
7, 27750, Note_on_c, 6, 81, 124
7, 27809, Note_on_c, 6, 81, 0
7, 27810, Note_on_c, 6, 82, 117
7, 28049, Note_on_c, 6, 82, 0
7, 28050, Note_on_c, 6, 79, 94
7, 28079, Note_on_c, 6, 79, 0
7, 28080, Note_on_c, 6, 82, 99
7, 28109, Note_on_c, 6, 82, 0
7, 28110, Note_on_c, 6, 84, 102
7, 28139, Note_on_c, 6, 84, 0
7, 28140, Note_on_c, 6, 86, 117
7, 28169, Note_on_c, 6, 86, 0
7, 28200, Note_on_c, 6, 88, 106
7, 28229, Note_on_c, 6, 88, 0
7, 28260, Note_on_c, 6, 78, 117
7, 28260, Note_on_c, 6, 79, 111
7, 28279, Note_on_c, 6, 78, 0
7, 28289, Note_on_c, 6, 79, 0
7, 28290, Note_on_c, 6, 77, 104
7, 28469, Note_on_c, 6, 77, 0
7, 28500, Note_on_c, 6, 81, 104
7, 28529, Note_on_c, 6, 81, 0
7, 28530, Note_on_c, 6, 91, 120
7, 28739, Note_on_c, 6, 91, 0
7, 28740, Note_on_c, 6, 89, 114
7, 28979, Note_on_c, 6, 89, 0
7, 29220, Note_on_c, 6, 72, 117
7, 29249, Note_on_c, 6, 72, 0
7, 29250, Note_on_c, 6, 72, 117
7, 29279, Note_on_c, 6, 72, 0
7, 29280, Note_on_c, 6, 79, 127
7, 29309, Note_on_c, 6, 79, 0
7, 29460, Note_on_c, 6, 81, 120
7, 29489, Note_on_c, 6, 81, 0
7, 29490, Note_on_c, 6, 79, 111
7, 29519, Note_on_c, 6, 79, 0
7, 29580, Note_on_c, 6, 77, 99
7, 29609, Note_on_c, 6, 77, 0
7, 29610, Note_on_c, 6, 76, 117
7, 29639, Note_on_c, 6, 76, 0
7, 29670, Note_on_c, 6, 77, 99
7, 29699, Note_on_c, 6, 77, 0
7, 29700, Note_on_c, 6, 74, 106
7, 29729, Note_on_c, 6, 74, 0
7, 29730, Note_on_c, 6, 72, 92
7, 29759, Note_on_c, 6, 72, 0
7, 29940, Note_on_c, 6, 84, 96
7, 29969, Note_on_c, 6, 84, 0
7, 29970, Note_on_c, 6, 79, 114
7, 29999, Note_on_c, 6, 79, 0
7, 30060, Note_on_c, 6, 81, 96
7, 30089, Note_on_c, 6, 81, 0
7, 30090, Note_on_c, 6, 77, 114
7, 30119, Note_on_c, 6, 77, 0
7, 30150, Note_on_c, 6, 74, 94
7, 30179, Note_on_c, 6, 74, 0
7, 30180, Note_on_c, 6, 77, 99
7, 30209, Note_on_c, 6, 77, 0
7, 30210, Note_on_c, 6, 79, 102
7, 30239, Note_on_c, 6, 79, 0
7, 30240, Note_on_c, 6, 81, 111
7, 30269, Note_on_c, 6, 81, 0
7, 30270, Note_on_c, 6, 82, 96
7, 30299, Note_on_c, 6, 82, 0
7, 30300, Note_on_c, 6, 81, 109
7, 30329, Note_on_c, 6, 81, 0
7, 30330, Note_on_c, 6, 77, 114
7, 30359, Note_on_c, 6, 77, 0
7, 30390, Note_on_c, 6, 74, 104
7, 30419, Note_on_c, 6, 74, 0
7, 30420, Note_on_c, 6, 77, 106
7, 30449, Note_on_c, 6, 77, 0
7, 30450, Note_on_c, 6, 81, 127
7, 30479, Note_on_c, 6, 81, 0
7, 30510, Note_on_c, 6, 82, 107
7, 30539, Note_on_c, 6, 82, 0
7, 30540, Note_on_c, 6, 81, 120
7, 30569, Note_on_c, 6, 81, 0
7, 30570, Note_on_c, 6, 77, 120
7, 30599, Note_on_c, 6, 77, 0
7, 30660, Note_on_c, 6, 72, 111
7, 30689, Note_on_c, 6, 72, 0
7, 30690, Note_on_c, 6, 72, 99
7, 30719, Note_on_c, 6, 72, 0
7, 30720, Note_on_c, 6, 79, 124
7, 30749, Note_on_c, 6, 79, 0
7, 30900, Note_on_c, 6, 81, 127
7, 30929, Note_on_c, 6, 81, 0
7, 30930, Note_on_c, 6, 79, 124
7, 30959, Note_on_c, 6, 79, 0
7, 31020, Note_on_c, 6, 77, 111
7, 31049, Note_on_c, 6, 77, 0
7, 31050, Note_on_c, 6, 76, 120
7, 31079, Note_on_c, 6, 76, 0
7, 31110, Note_on_c, 6, 77, 106
7, 31139, Note_on_c, 6, 77, 0
7, 31140, Note_on_c, 6, 74, 106
7, 31169, Note_on_c, 6, 74, 0
7, 31170, Note_on_c, 6, 72, 114
7, 31199, Note_on_c, 6, 72, 0
7, 31380, Note_on_c, 6, 84, 109
7, 31409, Note_on_c, 6, 84, 0
7, 31410, Note_on_c, 6, 79, 127
7, 31439, Note_on_c, 6, 79, 0
7, 31500, Note_on_c, 6, 81, 114
7, 31529, Note_on_c, 6, 81, 0
7, 31530, Note_on_c, 6, 77, 120
7, 31559, Note_on_c, 6, 77, 0
7, 31590, Note_on_c, 6, 74, 106
7, 31619, Note_on_c, 6, 74, 0
7, 31620, Note_on_c, 6, 77, 124
7, 31649, Note_on_c, 6, 77, 0
7, 31650, Note_on_c, 6, 79, 120
7, 31679, Note_on_c, 6, 79, 0
7, 31680, Note_on_c, 6, 81, 120
7, 31709, Note_on_c, 6, 81, 0
7, 31710, Note_on_c, 6, 82, 103
7, 31739, Note_on_c, 6, 82, 0
7, 31740, Note_on_c, 6, 81, 117
7, 31769, Note_on_c, 6, 81, 0
7, 31770, Note_on_c, 6, 77, 117
7, 31799, Note_on_c, 6, 77, 0
7, 31830, Note_on_c, 6, 74, 99
7, 31859, Note_on_c, 6, 74, 0
7, 31860, Note_on_c, 6, 77, 124
7, 31889, Note_on_c, 6, 77, 0
7, 31890, Note_on_c, 6, 81, 127
7, 31919, Note_on_c, 6, 81, 0
7, 31950, Note_on_c, 6, 82, 112
7, 31979, Note_on_c, 6, 82, 0
7, 31980, Note_on_c, 6, 81, 117
7, 32009, Note_on_c, 6, 81, 0
7, 32010, Note_on_c, 6, 77, 117
7, 32039, Note_on_c, 6, 77, 0
7, 32100, Note_on_c, 6, 72, 117
7, 32129, Note_on_c, 6, 72, 0
7, 32130, Note_on_c, 6, 72, 117
7, 32159, Note_on_c, 6, 72, 0
7, 32160, Note_on_c, 6, 79, 127
7, 32189, Note_on_c, 6, 79, 0
7, 32340, Note_on_c, 6, 81, 120
7, 32369, Note_on_c, 6, 81, 0
7, 32370, Note_on_c, 6, 79, 111
7, 32399, Note_on_c, 6, 79, 0
7, 32460, Note_on_c, 6, 77, 99
7, 32489, Note_on_c, 6, 77, 0
7, 32490, Note_on_c, 6, 76, 117
7, 32519, Note_on_c, 6, 76, 0
7, 32550, Note_on_c, 6, 77, 99
7, 32579, Note_on_c, 6, 77, 0
7, 32580, Note_on_c, 6, 74, 106
7, 32609, Note_on_c, 6, 74, 0
7, 32610, Note_on_c, 6, 72, 92
7, 32639, Note_on_c, 6, 72, 0
7, 32820, Note_on_c, 6, 84, 96
7, 32849, Note_on_c, 6, 84, 0
7, 32850, Note_on_c, 6, 79, 114
7, 32879, Note_on_c, 6, 79, 0
7, 32940, Note_on_c, 6, 81, 96
7, 32969, Note_on_c, 6, 81, 0
7, 32970, Note_on_c, 6, 77, 114
7, 32999, Note_on_c, 6, 77, 0
7, 33030, Note_on_c, 6, 74, 94
7, 33059, Note_on_c, 6, 74, 0
7, 33060, Note_on_c, 6, 77, 99
7, 33089, Note_on_c, 6, 77, 0
7, 33090, Note_on_c, 6, 79, 102
7, 33119, Note_on_c, 6, 79, 0
7, 33120, Note_on_c, 6, 81, 111
7, 33149, Note_on_c, 6, 81, 0
7, 33150, Note_on_c, 6, 82, 96
7, 33179, Note_on_c, 6, 82, 0
7, 33180, Note_on_c, 6, 81, 109
7, 33209, Note_on_c, 6, 81, 0
7, 33210, Note_on_c, 6, 77, 114
7, 33239, Note_on_c, 6, 77, 0
7, 33270, Note_on_c, 6, 74, 104
7, 33299, Note_on_c, 6, 74, 0
7, 33300, Note_on_c, 6, 77, 106
7, 33329, Note_on_c, 6, 77, 0
7, 33330, Note_on_c, 6, 81, 127
7, 33359, Note_on_c, 6, 81, 0
7, 33390, Note_on_c, 6, 82, 107
7, 33419, Note_on_c, 6, 82, 0
7, 33420, Note_on_c, 6, 81, 120
7, 33449, Note_on_c, 6, 81, 0
7, 33450, Note_on_c, 6, 77, 120
7, 33479, Note_on_c, 6, 77, 0
7, 33540, Note_on_c, 6, 72, 111
7, 33569, Note_on_c, 6, 72, 0
7, 33570, Note_on_c, 6, 72, 99
7, 33599, Note_on_c, 6, 72, 0
7, 33600, Note_on_c, 6, 79, 124
7, 33629, Note_on_c, 6, 79, 0
7, 33630, Control_c, 6, 7, 89
7, 33760, Control_c, 6, 7, 90
7, 33780, Note_on_c, 6, 81, 127
7, 33785, Control_c, 6, 7, 89
7, 33785, Control_c, 6, 7, 88
7, 33790, Control_c, 6, 7, 87
7, 33809, Note_on_c, 6, 81, 0
7, 33810, Note_on_c, 6, 79, 124
7, 33820, Control_c, 6, 7, 86
7, 33825, Control_c, 6, 7, 85
7, 33830, Control_c, 6, 7, 83
7, 33839, Note_on_c, 6, 79, 0
7, 33875, Control_c, 6, 7, 82
7, 33875, Control_c, 6, 7, 81
7, 33880, Control_c, 6, 7, 80
7, 33880, Control_c, 6, 7, 79
7, 33900, Note_on_c, 6, 77, 111
7, 33905, Control_c, 6, 7, 78
7, 33905, Control_c, 6, 7, 77
7, 33915, Control_c, 6, 7, 78
7, 33920, Control_c, 6, 7, 79
7, 33929, Note_on_c, 6, 77, 0
7, 33930, Note_on_c, 6, 76, 120
7, 33959, Note_on_c, 6, 76, 0
7, 33975, Control_c, 6, 7, 78
7, 33985, Control_c, 6, 7, 77
7, 33990, Note_on_c, 6, 77, 106
7, 33995, Control_c, 6, 7, 76
7, 34019, Note_on_c, 6, 77, 0
7, 34020, Note_on_c, 6, 74, 106
7, 34025, Control_c, 6, 7, 75
7, 34035, Control_c, 6, 7, 74
7, 34040, Control_c, 6, 7, 73
7, 34049, Note_on_c, 6, 74, 0
7, 34050, Note_on_c, 6, 72, 114
7, 34060, Control_c, 6, 7, 72
7, 34065, Control_c, 6, 7, 71
7, 34065, Control_c, 6, 7, 70
7, 34079, Note_on_c, 6, 72, 0
7, 34125, Control_c, 6, 7, 69
7, 34130, Control_c, 6, 7, 68
7, 34130, Control_c, 6, 7, 67
7, 34150, Control_c, 6, 7, 66
7, 34170, Control_c, 6, 7, 64
7, 34175, Control_c, 6, 7, 62
7, 34180, Control_c, 6, 7, 61
7, 34185, Control_c, 6, 7, 60
7, 34200, Control_c, 6, 7, 58
7, 34220, Control_c, 6, 7, 57
7, 34220, Control_c, 6, 7, 56
7, 34225, Control_c, 6, 7, 54
7, 34260, Note_on_c, 6, 84, 109
7, 34265, Control_c, 6, 7, 53
7, 34275, Control_c, 6, 7, 52
7, 34280, Control_c, 6, 7, 51
7, 34289, Note_on_c, 6, 84, 0
7, 34290, Note_on_c, 6, 79, 127
7, 34295, Control_c, 6, 7, 49
7, 34295, Control_c, 6, 7, 48
7, 34310, Control_c, 6, 7, 47
7, 34310, Control_c, 6, 7, 46
7, 34319, Note_on_c, 6, 79, 0
7, 34335, Control_c, 6, 7, 45
7, 34340, Control_c, 6, 7, 44
7, 34340, Control_c, 6, 7, 42
7, 34340, Control_c, 6, 7, 40
7, 34350, Control_c, 6, 7, 39
7, 34360, Control_c, 6, 7, 38
7, 34365, Control_c, 6, 7, 37
7, 34365, Control_c, 6, 7, 36
7, 34370, Control_c, 6, 7, 35
7, 34370, Control_c, 6, 7, 34
7, 34380, Note_on_c, 6, 81, 114
7, 34385, Control_c, 6, 7, 33
7, 34385, Control_c, 6, 7, 31
7, 34385, Control_c, 6, 7, 30
7, 34409, Note_on_c, 6, 81, 0
7, 34410, Note_on_c, 6, 77, 120
7, 34410, Control_c, 6, 7, 29
7, 34415, Control_c, 6, 7, 27
7, 34439, Note_on_c, 6, 77, 0
7, 34450, Control_c, 6, 7, 26
7, 34455, Control_c, 6, 7, 25
7, 34465, Control_c, 6, 7, 24
7, 34465, Control_c, 6, 7, 22
7, 34470, Note_on_c, 6, 74, 106
7, 34475, Control_c, 6, 7, 21
7, 34485, Control_c, 6, 7, 20
7, 34495, Control_c, 6, 7, 19
7, 34499, Note_on_c, 6, 74, 0
7, 34500, Note_on_c, 6, 77, 124
7, 34500, Control_c, 6, 7, 18
7, 34515, Control_c, 6, 7, 17
7, 34515, Control_c, 6, 7, 15
7, 34520, Control_c, 6, 7, 12
7, 34525, Control_c, 6, 7, 11
7, 34529, Note_on_c, 6, 77, 0
7, 34530, Note_on_c, 6, 79, 120
7, 34535, Control_c, 6, 7, 10
7, 34540, Control_c, 6, 7, 9
7, 34559, Note_on_c, 6, 79, 0
7, 34560, Note_on_c, 6, 81, 120
7, 34565, Control_c, 6, 7, 8
7, 34570, Control_c, 6, 7, 7
7, 34575, Control_c, 6, 7, 6
7, 34580, Control_c, 6, 7, 4
7, 34589, Note_on_c, 6, 81, 0
7, 34590, Note_on_c, 6, 82, 103
7, 34590, Control_c, 6, 7, 2
7, 34595, Control_c, 6, 7, 1
7, 34595, Control_c, 6, 7, 0
7, 34619, Note_on_c, 6, 82, 0
7, 34619, End_track
8, 0, Start_track
8, 0, MIDI_port, 0
8, 0, Program_c, 7, 49
8, 0, Control_c, 7, 7, 73
8, 1440, Note_on_c, 7, 84, 90
8, 1680, Note_on_c, 7, 84, 0
8, 1680, Note_on_c, 7, 79, 90
8, 1800, Note_on_c, 7, 79, 0
8, 1800, Note_on_c, 7, 86, 90
8, 1920, Note_on_c, 7, 86, 0
8, 1920, Note_on_c, 7, 84, 90
8, 2070, Note_on_c, 7, 84, 0
8, 2070, Note_on_c, 7, 91, 90
8, 2100, Note_on_c, 7, 91, 0
8, 2100, Note_on_c, 7, 88, 90
8, 2130, Note_on_c, 7, 88, 0
8, 2130, Note_on_c, 7, 89, 90
8, 2339, Note_on_c, 7, 89, 0
8, 2340, Note_on_c, 7, 81, 90
8, 2399, Note_on_c, 7, 81, 0
8, 2400, Note_on_c, 7, 93, 90
8, 2730, Note_on_c, 7, 93, 0
8, 2730, Note_on_c, 7, 91, 90
8, 2850, Note_on_c, 7, 91, 0
8, 2850, Note_on_c, 7, 89, 90
8, 2889, Note_on_c, 7, 89, 0
8, 2910, Note_on_c, 7, 96, 90
8, 3809, Note_on_c, 7, 96, 0
8, 5280, Note_on_c, 7, 84, 90
8, 6120, Note_on_c, 7, 84, 0
8, 6120, Note_on_c, 7, 81, 90
8, 6180, Note_on_c, 7, 81, 0
8, 6180, Note_on_c, 7, 84, 90
8, 6240, Note_on_c, 7, 84, 0
8, 6240, Note_on_c, 7, 86, 90
8, 6360, Note_on_c, 7, 86, 0
8, 6360, Note_on_c, 7, 88, 90
8, 6480, Note_on_c, 7, 88, 0
8, 6480, Note_on_c, 7, 89, 90
8, 6600, Note_on_c, 7, 89, 0
8, 6600, Note_on_c, 7, 91, 90
8, 6720, Note_on_c, 7, 91, 0
8, 6720, Note_on_c, 7, 93, 90
8, 6960, Note_on_c, 7, 93, 0
8, 6960, Note_on_c, 7, 94, 90
8, 7080, Note_on_c, 7, 94, 0
8, 7080, Note_on_c, 7, 96, 90
8, 7200, Note_on_c, 7, 96, 0
8, 7200, Note_on_c, 7, 89, 90
8, 7200, Note_on_c, 7, 86, 90
8, 7440, Note_on_c, 7, 86, 0
8, 7440, Note_on_c, 7, 89, 0
8, 7440, Note_on_c, 7, 91, 90
8, 7440, Note_on_c, 7, 88, 90
8, 7680, Note_on_c, 7, 88, 0
8, 7680, Note_on_c, 7, 91, 0
8, 7680, Note_on_c, 7, 81, 90
8, 7680, Note_on_c, 7, 84, 90
8, 8029, Note_on_c, 7, 81, 0
8, 8039, Note_on_c, 7, 84, 0
8, 8040, Note_on_c, 7, 81, 90
8, 8040, Note_on_c, 7, 77, 90
8, 8160, Note_on_c, 7, 77, 0
8, 8160, Note_on_c, 7, 81, 0
8, 8160, Note_on_c, 7, 82, 90
8, 8160, Note_on_c, 7, 79, 90
8, 8640, Note_on_c, 7, 79, 0
8, 8640, Note_on_c, 7, 82, 0
8, 8640, Note_on_c, 7, 86, 90
8, 8640, Note_on_c, 7, 81, 90
8, 8880, Note_on_c, 7, 81, 0
8, 8880, Note_on_c, 7, 86, 0
8, 8880, Note_on_c, 7, 88, 90
8, 8880, Note_on_c, 7, 80, 90
8, 9120, Note_on_c, 7, 80, 0
8, 9120, Note_on_c, 7, 88, 0
8, 10080, Note_on_c, 7, 84, 90
8, 10800, Note_on_c, 7, 84, 0
8, 10800, Note_on_c, 7, 86, 90
8, 11040, Note_on_c, 7, 82, 90
8, 11400, Note_on_c, 7, 82, 0
8, 11400, Note_on_c, 7, 86, 0
8, 11400, Note_on_c, 7, 81, 90
8, 11520, Note_on_c, 7, 81, 0
8, 11520, Note_on_c, 7, 86, 90
8, 11520, Note_on_c, 7, 89, 90
8, 11730, Note_on_c, 7, 89, 0
8, 11730, Note_on_c, 7, 86, 0
8, 11730, Note_on_c, 7, 88, 90
8, 11730, Note_on_c, 7, 91, 90
8, 11940, Note_on_c, 7, 91, 0
8, 11940, Note_on_c, 7, 88, 0
8, 11940, Note_on_c, 7, 89, 90
8, 11940, Note_on_c, 7, 85, 90
8, 12360, Note_on_c, 7, 85, 0
8, 12360, Note_on_c, 7, 89, 0
8, 16320, Note_on_c, 7, 86, 90
8, 16440, Note_on_c, 7, 86, 0
8, 16440, Note_on_c, 7, 88, 90
8, 16560, Note_on_c, 7, 88, 0
8, 16560, Note_on_c, 7, 89, 90
8, 16680, Note_on_c, 7, 89, 0
8, 16680, Note_on_c, 7, 88, 90
8, 16770, Note_on_c, 7, 88, 0
8, 16770, Note_on_c, 7, 81, 90
8, 16800, Note_on_c, 7, 81, 0
8, 16800, Note_on_c, 7, 84, 90
8, 16860, Note_on_c, 7, 84, 0
8, 16860, Note_on_c, 7, 81, 90
8, 16890, Note_on_c, 7, 81, 0
8, 16890, Note_on_c, 7, 86, 90
8, 17250, Note_on_c, 7, 86, 0
8, 17280, Note_on_c, 7, 86, 90
8, 17400, Note_on_c, 7, 86, 0
8, 17400, Note_on_c, 7, 88, 90
8, 17520, Note_on_c, 7, 88, 0
8, 17520, Note_on_c, 7, 89, 90
8, 17640, Note_on_c, 7, 89, 0
8, 17640, Note_on_c, 7, 88, 90
8, 17730, Note_on_c, 7, 88, 0
8, 17730, Note_on_c, 7, 81, 90
8, 17760, Note_on_c, 7, 81, 0
8, 17760, Note_on_c, 7, 84, 90
8, 17820, Note_on_c, 7, 84, 0
8, 17820, Note_on_c, 7, 81, 90
8, 17850, Note_on_c, 7, 81, 0
8, 17850, Note_on_c, 7, 86, 90
8, 18210, Note_on_c, 7, 86, 0
8, 18240, Note_on_c, 7, 86, 90
8, 18360, Note_on_c, 7, 86, 0
8, 18360, Note_on_c, 7, 88, 90
8, 18480, Note_on_c, 7, 88, 0
8, 18480, Note_on_c, 7, 89, 90
8, 18600, Note_on_c, 7, 89, 0
8, 18600, Note_on_c, 7, 88, 90
8, 18690, Note_on_c, 7, 88, 0
8, 18690, Note_on_c, 7, 81, 90
8, 18720, Note_on_c, 7, 81, 0
8, 18720, Note_on_c, 7, 84, 90
8, 18780, Note_on_c, 7, 84, 0
8, 18780, Note_on_c, 7, 81, 90
8, 18810, Note_on_c, 7, 81, 0
8, 18810, Note_on_c, 7, 86, 90
8, 19200, Note_on_c, 7, 86, 0
8, 19200, Note_on_c, 7, 81, 90
8, 19320, Note_on_c, 7, 81, 0
8, 19320, Note_on_c, 7, 84, 90
8, 19440, Note_on_c, 7, 84, 0
8, 19440, Note_on_c, 7, 86, 90
8, 19560, Note_on_c, 7, 86, 0
8, 19560, Note_on_c, 7, 89, 90
8, 19650, Note_on_c, 7, 89, 0
8, 19650, Note_on_c, 7, 93, 90
8, 19710, Note_on_c, 7, 93, 0
8, 19710, Note_on_c, 7, 96, 90
8, 20520, Note_on_c, 7, 96, 0
8, 22080, Note_on_c, 7, 84, 90
8, 22920, Note_on_c, 7, 84, 0
8, 22920, Note_on_c, 7, 81, 90
8, 22980, Note_on_c, 7, 81, 0
8, 22980, Note_on_c, 7, 84, 90
8, 23040, Note_on_c, 7, 84, 0
8, 23040, Note_on_c, 7, 86, 90
8, 23160, Note_on_c, 7, 86, 0
8, 23160, Note_on_c, 7, 88, 90
8, 23280, Note_on_c, 7, 88, 0
8, 23280, Note_on_c, 7, 89, 90
8, 23400, Note_on_c, 7, 89, 0
8, 23400, Note_on_c, 7, 91, 90
8, 23520, Note_on_c, 7, 91, 0
8, 23520, Note_on_c, 7, 93, 90
8, 23760, Note_on_c, 7, 93, 0
8, 23760, Note_on_c, 7, 94, 90
8, 23880, Note_on_c, 7, 94, 0
8, 23880, Note_on_c, 7, 96, 90
8, 24000, Note_on_c, 7, 96, 0
8, 24000, Note_on_c, 7, 89, 90
8, 24000, Note_on_c, 7, 86, 90
8, 24240, Note_on_c, 7, 86, 0
8, 24240, Note_on_c, 7, 89, 0
8, 24240, Note_on_c, 7, 91, 90
8, 24240, Note_on_c, 7, 88, 90
8, 24480, Note_on_c, 7, 88, 0
8, 24480, Note_on_c, 7, 91, 0
8, 24480, Note_on_c, 7, 81, 90
8, 24480, Note_on_c, 7, 84, 90
8, 24829, Note_on_c, 7, 81, 0
8, 24839, Note_on_c, 7, 84, 0
8, 24840, Note_on_c, 7, 81, 90
8, 24840, Note_on_c, 7, 77, 90
8, 24960, Note_on_c, 7, 77, 0
8, 24960, Note_on_c, 7, 81, 0
8, 24960, Note_on_c, 7, 82, 90
8, 24960, Note_on_c, 7, 79, 90
8, 25440, Note_on_c, 7, 79, 0
8, 25440, Note_on_c, 7, 82, 0
8, 25440, Note_on_c, 7, 86, 90
8, 25440, Note_on_c, 7, 81, 90
8, 25680, Note_on_c, 7, 81, 0
8, 25680, Note_on_c, 7, 86, 0
8, 25680, Note_on_c, 7, 88, 90
8, 25680, Note_on_c, 7, 80, 90
8, 25920, Note_on_c, 7, 80, 0
8, 25920, Note_on_c, 7, 88, 0
8, 26880, Note_on_c, 7, 84, 90
8, 27600, Note_on_c, 7, 84, 0
8, 27600, Note_on_c, 7, 86, 90
8, 27840, Note_on_c, 7, 82, 90
8, 28200, Note_on_c, 7, 82, 0
8, 28200, Note_on_c, 7, 86, 0
8, 28200, Note_on_c, 7, 81, 90
8, 28320, Note_on_c, 7, 81, 0
8, 28320, Note_on_c, 7, 86, 90
8, 28320, Note_on_c, 7, 89, 90
8, 28530, Note_on_c, 7, 89, 0
8, 28530, Note_on_c, 7, 86, 0
8, 28530, Note_on_c, 7, 88, 90
8, 28530, Note_on_c, 7, 91, 90
8, 28740, Note_on_c, 7, 91, 0
8, 28740, Note_on_c, 7, 88, 0
8, 28740, Note_on_c, 7, 89, 90
8, 28740, Note_on_c, 7, 85, 90
8, 29199, Note_on_c, 7, 85, 0
8, 29199, Note_on_c, 7, 89, 0
8, 30720, Note_on_c, 7, 84, 90
8, 31080, Note_on_c, 7, 84, 0
8, 31080, Note_on_c, 7, 79, 90
8, 31140, Note_on_c, 7, 79, 0
8, 31140, Note_on_c, 7, 86, 90
8, 31200, Note_on_c, 7, 86, 0
8, 31200, Note_on_c, 7, 84, 90
8, 31680, Note_on_c, 7, 84, 0
8, 31680, Note_on_c, 7, 86, 90
8, 32160, Note_on_c, 7, 86, 0
8, 32160, Note_on_c, 7, 84, 90
8, 32520, Note_on_c, 7, 84, 0
8, 32520, Note_on_c, 7, 79, 90
8, 32580, Note_on_c, 7, 79, 0
8, 32580, Note_on_c, 7, 86, 90
8, 32640, Note_on_c, 7, 86, 0
8, 32640, Note_on_c, 7, 84, 90
8, 33120, Note_on_c, 7, 84, 0
8, 33120, Note_on_c, 7, 86, 90
8, 33600, Note_on_c, 7, 86, 0
8, 33600, Note_on_c, 7, 84, 90
8, 33654, Control_c, 7, 7, 76
8, 33810, Control_c, 7, 7, 75
8, 33825, Control_c, 7, 7, 73
8, 33840, Control_c, 7, 7, 72
8, 33845, Control_c, 7, 7, 71
8, 33930, Control_c, 7, 7, 70
8, 33940, Control_c, 7, 7, 68
8, 33960, Note_on_c, 7, 84, 0
8, 33960, Control_c, 7, 7, 67
8, 33960, Note_on_c, 7, 79, 90
8, 34000, Control_c, 7, 7, 65
8, 34005, Control_c, 7, 7, 64
8, 34020, Note_on_c, 7, 79, 0
8, 34020, Note_on_c, 7, 86, 90
8, 34025, Control_c, 7, 7, 62
8, 34050, Control_c, 7, 7, 61
8, 34075, Control_c, 7, 7, 59
8, 34080, Note_on_c, 7, 86, 0
8, 34080, Note_on_c, 7, 84, 90
8, 34085, Control_c, 7, 7, 58
8, 34090, Control_c, 7, 7, 56
8, 34095, Control_c, 7, 7, 54
8, 34110, Control_c, 7, 7, 53
8, 34120, Control_c, 7, 7, 51
8, 34145, Control_c, 7, 7, 50
8, 34175, Control_c, 7, 7, 48
8, 34190, Control_c, 7, 7, 47
8, 34215, Control_c, 7, 7, 45
8, 34240, Control_c, 7, 7, 44
8, 34260, Control_c, 7, 7, 42
8, 34280, Control_c, 7, 7, 41
8, 34295, Control_c, 7, 7, 40
8, 34315, Control_c, 7, 7, 39
8, 34330, Control_c, 7, 7, 37
8, 34340, Control_c, 7, 7, 36
8, 34350, Control_c, 7, 7, 34
8, 34360, Control_c, 7, 7, 33
8, 34375, Control_c, 7, 7, 31
8, 34390, Control_c, 7, 7, 30
8, 34399, Control_c, 7, 7, 28
8, 34415, Control_c, 7, 7, 27
8, 34430, Control_c, 7, 7, 25
8, 34445, Control_c, 7, 7, 24
8, 34455, Control_c, 7, 7, 23
8, 34470, Control_c, 7, 7, 22
8, 34490, Control_c, 7, 7, 20
8, 34505, Control_c, 7, 7, 19
8, 34520, Control_c, 7, 7, 17
8, 34535, Control_c, 7, 7, 16
8, 34545, Control_c, 7, 7, 14
8, 34555, Control_c, 7, 7, 13
8, 34560, Note_on_c, 7, 84, 0
8, 34560, Control_c, 7, 7, 11
8, 34560, Note_on_c, 7, 86, 90
8, 34565, Control_c, 7, 7, 10
8, 34570, Control_c, 7, 7, 8
8, 34575, Control_c, 7, 7, 6
8, 34580, Control_c, 7, 7, 5
8, 34585, Control_c, 7, 7, 3
8, 34590, Control_c, 7, 7, 2
8, 34595, Control_c, 7, 7, 0
8, 35019, Note_on_c, 7, 86, 0
8, 35019, End_track
9, 0, Start_track
9, 0, MIDI_port, 0
9, 0, Program_c, 9, 0
9, 0, Control_c, 9, 7, 98
9, 510, Note_on_c, 9, 42, 99
9, 539, Note_on_c, 9, 42, 0
9, 540, Note_on_c, 9, 42, 96
9, 569, Note_on_c, 9, 42, 0
9, 570, Note_on_c, 9, 42, 99
9, 599, Note_on_c, 9, 42, 0
9, 600, Note_on_c, 9, 36, 115
9, 600, Note_on_c, 9, 53, 117
9, 629, Note_on_c, 9, 53, 0
9, 629, Note_on_c, 9, 36, 0
9, 750, Note_on_c, 9, 42, 84
9, 779, Note_on_c, 9, 42, 0
9, 780, Note_on_c, 9, 42, 80
9, 809, Note_on_c, 9, 42, 0
9, 810, Note_on_c, 9, 42, 90
9, 839, Note_on_c, 9, 42, 0
9, 840, Note_on_c, 9, 36, 115
9, 840, Note_on_c, 9, 53, 99
9, 869, Note_on_c, 9, 53, 0
9, 869, Note_on_c, 9, 36, 0
9, 990, Note_on_c, 9, 42, 99
9, 1019, Note_on_c, 9, 42, 0
9, 1020, Note_on_c, 9, 42, 93
9, 1049, Note_on_c, 9, 42, 0
9, 1050, Note_on_c, 9, 42, 107
9, 1079, Note_on_c, 9, 42, 0
9, 1080, Note_on_c, 9, 36, 115
9, 1080, Note_on_c, 9, 53, 111
9, 1109, Note_on_c, 9, 53, 0
9, 1109, Note_on_c, 9, 36, 0
9, 1230, Note_on_c, 9, 42, 107
9, 1259, Note_on_c, 9, 42, 0
9, 1260, Note_on_c, 9, 42, 96
9, 1289, Note_on_c, 9, 42, 0
9, 1290, Note_on_c, 9, 42, 99
9, 1319, Note_on_c, 9, 42, 0
9, 1320, Note_on_c, 9, 36, 115
9, 1320, Note_on_c, 9, 53, 117
9, 1349, Note_on_c, 9, 53, 0
9, 1349, Note_on_c, 9, 36, 0
9, 1470, Note_on_c, 9, 42, 107
9, 1499, Note_on_c, 9, 42, 0
9, 1500, Note_on_c, 9, 42, 99
9, 1529, Note_on_c, 9, 42, 0
9, 1530, Note_on_c, 9, 42, 103
9, 1559, Note_on_c, 9, 42, 0
9, 1560, Note_on_c, 9, 36, 115
9, 1560, Note_on_c, 9, 53, 111
9, 1589, Note_on_c, 9, 53, 0
9, 1589, Note_on_c, 9, 36, 0
9, 1710, Note_on_c, 9, 42, 99
9, 1739, Note_on_c, 9, 42, 0
9, 1740, Note_on_c, 9, 42, 96
9, 1769, Note_on_c, 9, 42, 0
9, 1770, Note_on_c, 9, 42, 96
9, 1799, Note_on_c, 9, 42, 0
9, 1800, Note_on_c, 9, 36, 115
9, 1800, Note_on_c, 9, 53, 114
9, 1829, Note_on_c, 9, 53, 0
9, 1829, Note_on_c, 9, 36, 0
9, 1950, Note_on_c, 9, 42, 93
9, 1979, Note_on_c, 9, 42, 0
9, 1980, Note_on_c, 9, 42, 103
9, 2009, Note_on_c, 9, 42, 0
9, 2010, Note_on_c, 9, 42, 96
9, 2039, Note_on_c, 9, 42, 0
9, 2040, Note_on_c, 9, 53, 120
9, 2040, Note_on_c, 9, 36, 115
9, 2069, Note_on_c, 9, 36, 0
9, 2069, Note_on_c, 9, 53, 0
9, 2250, Note_on_c, 9, 48, 127
9, 2250, Note_on_c, 9, 47, 96
9, 2279, Note_on_c, 9, 47, 0
9, 2279, Note_on_c, 9, 48, 0
9, 2310, Note_on_c, 9, 45, 127
9, 2339, Note_on_c, 9, 45, 0
9, 2340, Note_on_c, 9, 45, 127
9, 2369, Note_on_c, 9, 45, 0
9, 2400, Note_on_c, 9, 36, 115
9, 2400, Note_on_c, 9, 49, 127
9, 2429, Note_on_c, 9, 49, 0
9, 2459, Note_on_c, 9, 36, 0
9, 2520, Note_on_c, 9, 36, 114
9, 2520, Note_on_c, 9, 49, 127
9, 2549, Note_on_c, 9, 49, 0
9, 2579, Note_on_c, 9, 36, 0
9, 2640, Note_on_c, 9, 36, 117
9, 2640, Note_on_c, 9, 49, 127
9, 2669, Note_on_c, 9, 49, 0
9, 2699, Note_on_c, 9, 36, 0
9, 2730, Note_on_c, 9, 36, 120
9, 2730, Note_on_c, 9, 49, 127
9, 2759, Note_on_c, 9, 49, 0
9, 2789, Note_on_c, 9, 36, 0
9, 2850, Note_on_c, 9, 36, 124
9, 2850, Note_on_c, 9, 49, 127
9, 2879, Note_on_c, 9, 49, 0
9, 2879, Note_on_c, 9, 36, 0
9, 2910, Note_on_c, 9, 36, 127
9, 2910, Note_on_c, 9, 49, 127
9, 2939, Note_on_c, 9, 49, 0
9, 3059, Note_on_c, 9, 36, 0
9, 3120, Note_on_c, 9, 37, 127
9, 3149, Note_on_c, 9, 37, 0
9, 3210, Note_on_c, 9, 51, 117
9, 3239, Note_on_c, 9, 51, 0
9, 3270, Note_on_c, 9, 51, 123
9, 3299, Note_on_c, 9, 51, 0
9, 3330, Note_on_c, 9, 51, 107
9, 3359, Note_on_c, 9, 51, 0
9, 3360, Note_on_c, 9, 51, 117
9, 3389, Note_on_c, 9, 51, 0
9, 3690, Note_on_c, 9, 43, 117
9, 3719, Note_on_c, 9, 43, 0
9, 3720, Note_on_c, 9, 45, 127
9, 3720, Note_on_c, 9, 43, 127
9, 3749, Note_on_c, 9, 43, 0
9, 3749, Note_on_c, 9, 45, 0
9, 3840, Note_on_c, 9, 49, 100
9, 3840, Note_on_c, 9, 36, 124
9, 3840, Note_on_c, 9, 42, 112
9, 3854, Note_on_c, 9, 49, 0
9, 3869, Note_on_c, 9, 42, 0
9, 3869, Note_on_c, 9, 36, 0
9, 3870, Note_on_c, 9, 44, 49
9, 3899, Note_on_c, 9, 44, 0
9, 3900, Note_on_c, 9, 42, 87
9, 3929, Note_on_c, 9, 42, 0
9, 3930, Note_on_c, 9, 44, 54
9, 3959, Note_on_c, 9, 44, 0
9, 3960, Note_on_c, 9, 40, 127
9, 3960, Note_on_c, 9, 42, 103
9, 3989, Note_on_c, 9, 42, 0
9, 3989, Note_on_c, 9, 40, 0
9, 3990, Note_on_c, 9, 44, 61
9, 4019, Note_on_c, 9, 44, 0
9, 4020, Note_on_c, 9, 42, 93
9, 4049, Note_on_c, 9, 42, 0
9, 4050, Note_on_c, 9, 36, 124
9, 4050, Note_on_c, 9, 44, 53
9, 4079, Note_on_c, 9, 44, 0
9, 4079, Note_on_c, 9, 36, 0
9, 4080, Note_on_c, 9, 36, 124
9, 4080, Note_on_c, 9, 42, 112
9, 4109, Note_on_c, 9, 42, 0
9, 4109, Note_on_c, 9, 36, 0
9, 4110, Note_on_c, 9, 44, 61
9, 4139, Note_on_c, 9, 44, 0
9, 4140, Note_on_c, 9, 42, 96
9, 4169, Note_on_c, 9, 42, 0
9, 4170, Note_on_c, 9, 44, 62
9, 4199, Note_on_c, 9, 44, 0
9, 4200, Note_on_c, 9, 40, 127
9, 4200, Note_on_c, 9, 42, 93
9, 4229, Note_on_c, 9, 42, 0
9, 4229, Note_on_c, 9, 40, 0
9, 4230, Note_on_c, 9, 44, 56
9, 4259, Note_on_c, 9, 44, 0
9, 4260, Note_on_c, 9, 42, 90
9, 4289, Note_on_c, 9, 42, 0
9, 4290, Note_on_c, 9, 44, 61
9, 4319, Note_on_c, 9, 44, 0
9, 4320, Note_on_c, 9, 36, 124
9, 4320, Note_on_c, 9, 42, 96
9, 4349, Note_on_c, 9, 42, 0
9, 4349, Note_on_c, 9, 36, 0
9, 4350, Note_on_c, 9, 44, 64
9, 4379, Note_on_c, 9, 44, 0
9, 4380, Note_on_c, 9, 42, 84
9, 4409, Note_on_c, 9, 42, 0
9, 4410, Note_on_c, 9, 44, 54
9, 4439, Note_on_c, 9, 44, 0
9, 4440, Note_on_c, 9, 40, 127
9, 4440, Note_on_c, 9, 42, 99
9, 4469, Note_on_c, 9, 42, 0
9, 4469, Note_on_c, 9, 40, 0
9, 4470, Note_on_c, 9, 44, 57
9, 4499, Note_on_c, 9, 44, 0
9, 4500, Note_on_c, 9, 42, 90
9, 4529, Note_on_c, 9, 42, 0
9, 4530, Note_on_c, 9, 36, 127
9, 4530, Note_on_c, 9, 44, 62
9, 4559, Note_on_c, 9, 44, 0
9, 4559, Note_on_c, 9, 36, 0
9, 4560, Note_on_c, 9, 36, 124
9, 4560, Note_on_c, 9, 42, 93
9, 4589, Note_on_c, 9, 42, 0
9, 4589, Note_on_c, 9, 36, 0
9, 4590, Note_on_c, 9, 44, 47
9, 4619, Note_on_c, 9, 44, 0
9, 4620, Note_on_c, 9, 42, 90
9, 4649, Note_on_c, 9, 42, 0
9, 4650, Note_on_c, 9, 44, 54
9, 4679, Note_on_c, 9, 44, 0
9, 4680, Note_on_c, 9, 40, 127
9, 4680, Note_on_c, 9, 42, 90
9, 4709, Note_on_c, 9, 42, 0
9, 4709, Note_on_c, 9, 40, 0
9, 4710, Note_on_c, 9, 44, 49
9, 4739, Note_on_c, 9, 44, 0
9, 4740, Note_on_c, 9, 42, 78
9, 4769, Note_on_c, 9, 42, 0
9, 4770, Note_on_c, 9, 44, 52
9, 4799, Note_on_c, 9, 44, 0
9, 4800, Note_on_c, 9, 36, 117
9, 4800, Note_on_c, 9, 42, 82
9, 4829, Note_on_c, 9, 42, 0
9, 4829, Note_on_c, 9, 36, 0
9, 4830, Note_on_c, 9, 44, 54
9, 4859, Note_on_c, 9, 44, 0
9, 4860, Note_on_c, 9, 42, 51
9, 4889, Note_on_c, 9, 42, 0
9, 4890, Note_on_c, 9, 44, 58
9, 4919, Note_on_c, 9, 44, 0
9, 4920, Note_on_c, 9, 40, 127
9, 4920, Note_on_c, 9, 42, 90
9, 4949, Note_on_c, 9, 42, 0
9, 4949, Note_on_c, 9, 40, 0
9, 4950, Note_on_c, 9, 36, 124
9, 4950, Note_on_c, 9, 44, 61
9, 4979, Note_on_c, 9, 44, 0
9, 4979, Note_on_c, 9, 36, 0
9, 4980, Note_on_c, 9, 42, 76
9, 5009, Note_on_c, 9, 42, 0
9, 5010, Note_on_c, 9, 36, 114
9, 5010, Note_on_c, 9, 44, 58
9, 5039, Note_on_c, 9, 44, 0
9, 5039, Note_on_c, 9, 36, 0
9, 5040, Note_on_c, 9, 42, 90
9, 5069, Note_on_c, 9, 42, 0
9, 5070, Note_on_c, 9, 44, 54
9, 5099, Note_on_c, 9, 44, 0
9, 5100, Note_on_c, 9, 42, 80
9, 5129, Note_on_c, 9, 42, 0
9, 5130, Note_on_c, 9, 44, 63
9, 5159, Note_on_c, 9, 44, 0
9, 5160, Note_on_c, 9, 42, 93
9, 5160, Note_on_c, 9, 40, 127
9, 5189, Note_on_c, 9, 40, 0
9, 5189, Note_on_c, 9, 42, 0
9, 5190, Note_on_c, 9, 44, 54
9, 5219, Note_on_c, 9, 44, 0
9, 5220, Note_on_c, 9, 42, 90
9, 5249, Note_on_c, 9, 42, 0
9, 5250, Note_on_c, 9, 46, 93
9, 5279, Note_on_c, 9, 46, 0
9, 5280, Note_on_c, 9, 36, 117
9, 5280, Note_on_c, 9, 42, 103
9, 5309, Note_on_c, 9, 42, 0
9, 5309, Note_on_c, 9, 36, 0
9, 5310, Note_on_c, 9, 44, 62
9, 5339, Note_on_c, 9, 44, 0
9, 5340, Note_on_c, 9, 42, 82
9, 5369, Note_on_c, 9, 42, 0
9, 5370, Note_on_c, 9, 44, 60
9, 5399, Note_on_c, 9, 44, 0
9, 5400, Note_on_c, 9, 40, 127
9, 5400, Note_on_c, 9, 42, 93
9, 5429, Note_on_c, 9, 42, 0
9, 5429, Note_on_c, 9, 40, 0
9, 5430, Note_on_c, 9, 44, 63
9, 5459, Note_on_c, 9, 44, 0
9, 5460, Note_on_c, 9, 42, 82
9, 5489, Note_on_c, 9, 42, 0
9, 5490, Note_on_c, 9, 36, 109
9, 5490, Note_on_c, 9, 44, 62
9, 5519, Note_on_c, 9, 44, 0
9, 5519, Note_on_c, 9, 36, 0
9, 5520, Note_on_c, 9, 36, 96
9, 5520, Note_on_c, 9, 42, 96
9, 5549, Note_on_c, 9, 42, 0
9, 5549, Note_on_c, 9, 36, 0
9, 5550, Note_on_c, 9, 44, 57
9, 5579, Note_on_c, 9, 44, 0
9, 5580, Note_on_c, 9, 42, 78
9, 5609, Note_on_c, 9, 42, 0
9, 5610, Note_on_c, 9, 44, 66
9, 5639, Note_on_c, 9, 44, 0
9, 5640, Note_on_c, 9, 40, 127
9, 5640, Note_on_c, 9, 42, 90
9, 5669, Note_on_c, 9, 42, 0
9, 5669, Note_on_c, 9, 40, 0
9, 5670, Note_on_c, 9, 44, 58
9, 5699, Note_on_c, 9, 44, 0
9, 5700, Note_on_c, 9, 42, 72
9, 5729, Note_on_c, 9, 42, 0
9, 5730, Note_on_c, 9, 44, 55
9, 5759, Note_on_c, 9, 44, 0
9, 5760, Note_on_c, 9, 36, 109
9, 5760, Note_on_c, 9, 42, 93
9, 5789, Note_on_c, 9, 42, 0
9, 5789, Note_on_c, 9, 36, 0
9, 5790, Note_on_c, 9, 44, 56
9, 5819, Note_on_c, 9, 44, 0
9, 5820, Note_on_c, 9, 42, 66
9, 5849, Note_on_c, 9, 42, 0
9, 5850, Note_on_c, 9, 44, 54
9, 5879, Note_on_c, 9, 44, 0
9, 5880, Note_on_c, 9, 40, 127
9, 5880, Note_on_c, 9, 42, 93
9, 5909, Note_on_c, 9, 42, 0
9, 5909, Note_on_c, 9, 40, 0
9, 5910, Note_on_c, 9, 44, 49
9, 5939, Note_on_c, 9, 44, 0
9, 5940, Note_on_c, 9, 42, 84
9, 5969, Note_on_c, 9, 42, 0
9, 5970, Note_on_c, 9, 36, 104
9, 5970, Note_on_c, 9, 44, 54
9, 5999, Note_on_c, 9, 44, 0
9, 5999, Note_on_c, 9, 36, 0
9, 6000, Note_on_c, 9, 36, 117
9, 6000, Note_on_c, 9, 42, 82
9, 6029, Note_on_c, 9, 42, 0
9, 6029, Note_on_c, 9, 36, 0
9, 6030, Note_on_c, 9, 44, 35
9, 6059, Note_on_c, 9, 44, 0
9, 6060, Note_on_c, 9, 42, 80
9, 6089, Note_on_c, 9, 42, 0
9, 6090, Note_on_c, 9, 44, 47
9, 6119, Note_on_c, 9, 44, 0
9, 6120, Note_on_c, 9, 40, 127
9, 6120, Note_on_c, 9, 42, 93
9, 6149, Note_on_c, 9, 42, 0
9, 6149, Note_on_c, 9, 40, 0
9, 6150, Note_on_c, 9, 44, 64
9, 6179, Note_on_c, 9, 44, 0
9, 6180, Note_on_c, 9, 42, 80
9, 6209, Note_on_c, 9, 42, 0
9, 6210, Note_on_c, 9, 44, 56
9, 6239, Note_on_c, 9, 44, 0
9, 6240, Note_on_c, 9, 36, 117
9, 6240, Note_on_c, 9, 42, 93
9, 6269, Note_on_c, 9, 42, 0
9, 6269, Note_on_c, 9, 36, 0
9, 6270, Note_on_c, 9, 44, 49
9, 6299, Note_on_c, 9, 44, 0
9, 6300, Note_on_c, 9, 42, 82
9, 6329, Note_on_c, 9, 42, 0
9, 6330, Note_on_c, 9, 44, 55
9, 6359, Note_on_c, 9, 44, 0
9, 6360, Note_on_c, 9, 40, 120
9, 6360, Note_on_c, 9, 42, 96
9, 6389, Note_on_c, 9, 42, 0
9, 6389, Note_on_c, 9, 40, 0
9, 6390, Note_on_c, 9, 36, 120
9, 6390, Note_on_c, 9, 44, 57
9, 6419, Note_on_c, 9, 44, 0
9, 6419, Note_on_c, 9, 36, 0
9, 6420, Note_on_c, 9, 42, 93
9, 6449, Note_on_c, 9, 42, 0
9, 6450, Note_on_c, 9, 36, 120
9, 6450, Note_on_c, 9, 44, 54
9, 6479, Note_on_c, 9, 44, 0
9, 6479, Note_on_c, 9, 36, 0
9, 6480, Note_on_c, 9, 42, 82
9, 6509, Note_on_c, 9, 42, 0
9, 6510, Note_on_c, 9, 44, 58
9, 6539, Note_on_c, 9, 44, 0
9, 6540, Note_on_c, 9, 42, 84
9, 6569, Note_on_c, 9, 42, 0
9, 6570, Note_on_c, 9, 44, 64
9, 6599, Note_on_c, 9, 44, 0
9, 6600, Note_on_c, 9, 40, 127
9, 6600, Note_on_c, 9, 42, 93
9, 6629, Note_on_c, 9, 42, 0
9, 6629, Note_on_c, 9, 40, 0
9, 6630, Note_on_c, 9, 44, 54
9, 6659, Note_on_c, 9, 44, 0
9, 6660, Note_on_c, 9, 42, 84
9, 6689, Note_on_c, 9, 42, 0
9, 6690, Note_on_c, 9, 46, 84
9, 6719, Note_on_c, 9, 46, 0
9, 6720, Note_on_c, 9, 36, 120
9, 6720, Note_on_c, 9, 42, 90
9, 6749, Note_on_c, 9, 42, 0
9, 6749, Note_on_c, 9, 36, 0
9, 6750, Note_on_c, 9, 44, 48
9, 6779, Note_on_c, 9, 44, 0
9, 6780, Note_on_c, 9, 42, 74
9, 6809, Note_on_c, 9, 42, 0
9, 6810, Note_on_c, 9, 44, 47
9, 6839, Note_on_c, 9, 44, 0
9, 6840, Note_on_c, 9, 40, 124
9, 6840, Note_on_c, 9, 42, 90
9, 6869, Note_on_c, 9, 42, 0
9, 6869, Note_on_c, 9, 40, 0
9, 6870, Note_on_c, 9, 44, 62
9, 6899, Note_on_c, 9, 44, 0
9, 6900, Note_on_c, 9, 42, 76
9, 6929, Note_on_c, 9, 42, 0
9, 6930, Note_on_c, 9, 36, 109
9, 6930, Note_on_c, 9, 44, 55
9, 6959, Note_on_c, 9, 44, 0
9, 6959, Note_on_c, 9, 36, 0
9, 6960, Note_on_c, 9, 42, 87
9, 6960, Note_on_c, 9, 36, 111
9, 6989, Note_on_c, 9, 36, 0
9, 6989, Note_on_c, 9, 42, 0
9, 6990, Note_on_c, 9, 44, 54
9, 7019, Note_on_c, 9, 44, 0
9, 7020, Note_on_c, 9, 42, 80
9, 7049, Note_on_c, 9, 42, 0
9, 7050, Note_on_c, 9, 44, 62
9, 7079, Note_on_c, 9, 44, 0
9, 7080, Note_on_c, 9, 40, 127
9, 7080, Note_on_c, 9, 42, 99
9, 7109, Note_on_c, 9, 42, 0
9, 7109, Note_on_c, 9, 40, 0
9, 7110, Note_on_c, 9, 44, 74
9, 7139, Note_on_c, 9, 44, 0
9, 7140, Note_on_c, 9, 42, 90
9, 7169, Note_on_c, 9, 42, 0
9, 7170, Note_on_c, 9, 44, 74
9, 7199, Note_on_c, 9, 44, 0
9, 7200, Note_on_c, 9, 42, 74
9, 7200, Note_on_c, 9, 36, 111
9, 7200, Note_on_c, 9, 49, 112
9, 7229, Note_on_c, 9, 49, 0
9, 7229, Note_on_c, 9, 36, 0
9, 7229, Note_on_c, 9, 42, 0
9, 7230, Note_on_c, 9, 44, 70
9, 7259, Note_on_c, 9, 44, 0
9, 7260, Note_on_c, 9, 42, 56
9, 7289, Note_on_c, 9, 42, 0
9, 7290, Note_on_c, 9, 44, 66
9, 7319, Note_on_c, 9, 44, 0
9, 7320, Note_on_c, 9, 40, 127
9, 7320, Note_on_c, 9, 42, 96
9, 7349, Note_on_c, 9, 42, 0
9, 7349, Note_on_c, 9, 40, 0
9, 7350, Note_on_c, 9, 44, 61
9, 7379, Note_on_c, 9, 44, 0
9, 7380, Note_on_c, 9, 42, 93
9, 7409, Note_on_c, 9, 42, 0
9, 7410, Note_on_c, 9, 36, 102
9, 7410, Note_on_c, 9, 44, 64
9, 7439, Note_on_c, 9, 44, 0
9, 7439, Note_on_c, 9, 36, 0
9, 7440, Note_on_c, 9, 36, 104
9, 7440, Note_on_c, 9, 42, 99
9, 7469, Note_on_c, 9, 42, 0
9, 7469, Note_on_c, 9, 36, 0
9, 7470, Note_on_c, 9, 44, 61
9, 7499, Note_on_c, 9, 44, 0
9, 7500, Note_on_c, 9, 42, 76
9, 7529, Note_on_c, 9, 42, 0
9, 7530, Note_on_c, 9, 44, 69
9, 7559, Note_on_c, 9, 44, 0
9, 7560, Note_on_c, 9, 40, 120
9, 7560, Note_on_c, 9, 42, 93
9, 7589, Note_on_c, 9, 42, 0
9, 7589, Note_on_c, 9, 40, 0
9, 7590, Note_on_c, 9, 44, 67
9, 7619, Note_on_c, 9, 44, 0
9, 7620, Note_on_c, 9, 42, 90
9, 7649, Note_on_c, 9, 42, 0
9, 7650, Note_on_c, 9, 44, 67
9, 7679, Note_on_c, 9, 44, 0
9, 7680, Note_on_c, 9, 42, 93
9, 7680, Note_on_c, 9, 36, 109
9, 7709, Note_on_c, 9, 36, 0
9, 7709, Note_on_c, 9, 42, 0
9, 7710, Note_on_c, 9, 44, 53
9, 7739, Note_on_c, 9, 44, 0
9, 7740, Note_on_c, 9, 42, 90
9, 7769, Note_on_c, 9, 42, 0
9, 7770, Note_on_c, 9, 44, 56
9, 7799, Note_on_c, 9, 44, 0
9, 7800, Note_on_c, 9, 40, 127
9, 7800, Note_on_c, 9, 42, 90
9, 7829, Note_on_c, 9, 42, 0
9, 7829, Note_on_c, 9, 40, 0
9, 7830, Note_on_c, 9, 44, 54
9, 7859, Note_on_c, 9, 44, 0
9, 7860, Note_on_c, 9, 42, 96
9, 7889, Note_on_c, 9, 42, 0
9, 7890, Note_on_c, 9, 36, 106
9, 7890, Note_on_c, 9, 44, 66
9, 7919, Note_on_c, 9, 44, 0
9, 7919, Note_on_c, 9, 36, 0
9, 7920, Note_on_c, 9, 36, 104
9, 7920, Note_on_c, 9, 42, 90
9, 7949, Note_on_c, 9, 42, 0
9, 7949, Note_on_c, 9, 36, 0
9, 7950, Note_on_c, 9, 44, 66
9, 7979, Note_on_c, 9, 44, 0
9, 7980, Note_on_c, 9, 42, 82
9, 8009, Note_on_c, 9, 42, 0
9, 8010, Note_on_c, 9, 44, 70
9, 8039, Note_on_c, 9, 44, 0
9, 8040, Note_on_c, 9, 40, 127
9, 8040, Note_on_c, 9, 42, 93
9, 8069, Note_on_c, 9, 42, 0
9, 8069, Note_on_c, 9, 40, 0
9, 8070, Note_on_c, 9, 44, 57
9, 8099, Note_on_c, 9, 44, 0
9, 8100, Note_on_c, 9, 42, 93
9, 8129, Note_on_c, 9, 42, 0
9, 8130, Note_on_c, 9, 44, 67
9, 8159, Note_on_c, 9, 44, 0
9, 8160, Note_on_c, 9, 36, 117
9, 8160, Note_on_c, 9, 42, 90
9, 8189, Note_on_c, 9, 42, 0
9, 8189, Note_on_c, 9, 36, 0
9, 8190, Note_on_c, 9, 44, 69
9, 8219, Note_on_c, 9, 44, 0
9, 8220, Note_on_c, 9, 42, 93
9, 8249, Note_on_c, 9, 42, 0
9, 8250, Note_on_c, 9, 44, 64
9, 8279, Note_on_c, 9, 44, 0
9, 8280, Note_on_c, 9, 40, 127
9, 8280, Note_on_c, 9, 42, 96
9, 8309, Note_on_c, 9, 42, 0
9, 8309, Note_on_c, 9, 40, 0
9, 8310, Note_on_c, 9, 44, 54
9, 8339, Note_on_c, 9, 44, 0
9, 8340, Note_on_c, 9, 42, 82
9, 8369, Note_on_c, 9, 42, 0
9, 8370, Note_on_c, 9, 36, 96
9, 8370, Note_on_c, 9, 44, 69
9, 8399, Note_on_c, 9, 44, 0
9, 8399, Note_on_c, 9, 36, 0
9, 8400, Note_on_c, 9, 36, 111
9, 8400, Note_on_c, 9, 42, 90
9, 8429, Note_on_c, 9, 42, 0
9, 8429, Note_on_c, 9, 36, 0
9, 8430, Note_on_c, 9, 44, 63
9, 8459, Note_on_c, 9, 44, 0
9, 8460, Note_on_c, 9, 42, 80
9, 8489, Note_on_c, 9, 42, 0
9, 8490, Note_on_c, 9, 44, 55
9, 8519, Note_on_c, 9, 44, 0
9, 8520, Note_on_c, 9, 40, 120
9, 8520, Note_on_c, 9, 42, 87
9, 8549, Note_on_c, 9, 42, 0
9, 8549, Note_on_c, 9, 40, 0
9, 8550, Note_on_c, 9, 44, 57
9, 8579, Note_on_c, 9, 44, 0
9, 8580, Note_on_c, 9, 42, 82
9, 8609, Note_on_c, 9, 42, 0
9, 8610, Note_on_c, 9, 46, 90
9, 8639, Note_on_c, 9, 46, 0
9, 8640, Note_on_c, 9, 36, 124
9, 8640, Note_on_c, 9, 42, 103
9, 8669, Note_on_c, 9, 42, 0
9, 8669, Note_on_c, 9, 36, 0
9, 8670, Note_on_c, 9, 42, 66
9, 8699, Note_on_c, 9, 42, 0
9, 8700, Note_on_c, 9, 44, 84
9, 8729, Note_on_c, 9, 44, 0
9, 8730, Note_on_c, 9, 42, 64
9, 8759, Note_on_c, 9, 42, 0
9, 8760, Note_on_c, 9, 40, 124
9, 8760, Note_on_c, 9, 42, 90
9, 8789, Note_on_c, 9, 42, 0
9, 8789, Note_on_c, 9, 40, 0
9, 8790, Note_on_c, 9, 42, 67
9, 8819, Note_on_c, 9, 42, 0
9, 8820, Note_on_c, 9, 42, 84
9, 8849, Note_on_c, 9, 42, 0
9, 8850, Note_on_c, 9, 42, 54
9, 8850, Note_on_c, 9, 55, 124
9, 8850, Note_on_c, 9, 36, 111
9, 8879, Note_on_c, 9, 36, 0
9, 8879, Note_on_c, 9, 55, 0
9, 8879, Note_on_c, 9, 42, 0
9, 8880, Note_on_c, 9, 42, 99
9, 8909, Note_on_c, 9, 42, 0
9, 8910, Note_on_c, 9, 42, 74
9, 8939, Note_on_c, 9, 42, 0
9, 8940, Note_on_c, 9, 36, 111
9, 8940, Note_on_c, 9, 42, 90
9, 8969, Note_on_c, 9, 42, 0
9, 8969, Note_on_c, 9, 36, 0
9, 8970, Note_on_c, 9, 42, 78
9, 8999, Note_on_c, 9, 42, 0
9, 9000, Note_on_c, 9, 38, 109
9, 9000, Note_on_c, 9, 42, 99
9, 9029, Note_on_c, 9, 42, 0
9, 9029, Note_on_c, 9, 38, 0
9, 9030, Note_on_c, 9, 42, 87
9, 9059, Note_on_c, 9, 42, 0
9, 9060, Note_on_c, 9, 47, 99
9, 9060, Note_on_c, 9, 42, 103
9, 9089, Note_on_c, 9, 42, 0
9, 9089, Note_on_c, 9, 47, 0
9, 9090, Note_on_c, 9, 47, 127
9, 9119, Note_on_c, 9, 47, 0
9, 9120, Note_on_c, 9, 36, 120
9, 9120, Note_on_c, 9, 38, 117
9, 9123, Note_on_c, 9, 55, 127
9, 9138, Note_on_c, 9, 55, 0
9, 9149, Note_on_c, 9, 38, 0
9, 9149, Note_on_c, 9, 36, 0
9, 9210, Note_on_c, 9, 36, 124
9, 9210, Note_on_c, 9, 38, 117
9, 9239, Note_on_c, 9, 38, 0
9, 9239, Note_on_c, 9, 36, 0
9, 9330, Note_on_c, 9, 36, 124
9, 9330, Note_on_c, 9, 38, 127
9, 9359, Note_on_c, 9, 38, 0
9, 9359, Note_on_c, 9, 36, 0
9, 9420, Note_on_c, 9, 36, 127
9, 9420, Note_on_c, 9, 49, 123
9, 9420, Note_on_c, 9, 38, 120
9, 9449, Note_on_c, 9, 38, 0
9, 9449, Note_on_c, 9, 49, 0
9, 9449, Note_on_c, 9, 36, 0
9, 9510, Note_on_c, 9, 48, 86
9, 9539, Note_on_c, 9, 48, 0
9, 9540, Note_on_c, 9, 48, 106
9, 9540, Note_on_c, 9, 48, 111
9, 9569, Note_on_c, 9, 48, 0
9, 9569, Note_on_c, 9, 48, 0
9, 9599, Note_on_c, 9, 55, 127
9, 9600, Note_on_c, 9, 36, 117
9, 9600, Note_on_c, 9, 38, 124
9, 9611, Note_on_c, 9, 55, 0
9, 9629, Note_on_c, 9, 38, 0
9, 9629, Note_on_c, 9, 36, 0
9, 9690, Note_on_c, 9, 36, 114
9, 9690, Note_on_c, 9, 38, 114
9, 9719, Note_on_c, 9, 38, 0
9, 9719, Note_on_c, 9, 36, 0
9, 9780, Note_on_c, 9, 52, 111
9, 9780, Note_on_c, 9, 38, 111
9, 9780, Note_on_c, 9, 38, 111
9, 9809, Note_on_c, 9, 38, 0
9, 9809, Note_on_c, 9, 38, 0
9, 9809, Note_on_c, 9, 52, 0
9, 9870, Note_on_c, 9, 49, 117
9, 9870, Note_on_c, 9, 36, 120
9, 9870, Note_on_c, 9, 38, 127
9, 9899, Note_on_c, 9, 38, 0
9, 9899, Note_on_c, 9, 36, 0
9, 9899, Note_on_c, 9, 49, 0
9, 9990, Note_on_c, 9, 43, 124
9, 10019, Note_on_c, 9, 43, 0
9, 10020, Note_on_c, 9, 47, 117
9, 10049, Note_on_c, 9, 47, 0
9, 10050, Note_on_c, 9, 47, 127
9, 10079, Note_on_c, 9, 47, 0
9, 10080, Note_on_c, 9, 49, 117
9, 10080, Note_on_c, 9, 36, 109
9, 10080, Note_on_c, 9, 42, 103
9, 10109, Note_on_c, 9, 42, 0
9, 10109, Note_on_c, 9, 36, 0
9, 10109, Note_on_c, 9, 49, 0
9, 10110, Note_on_c, 9, 44, 41
9, 10139, Note_on_c, 9, 44, 0
9, 10140, Note_on_c, 9, 42, 84
9, 10169, Note_on_c, 9, 42, 0
9, 10170, Note_on_c, 9, 44, 47
9, 10199, Note_on_c, 9, 44, 0
9, 10200, Note_on_c, 9, 40, 117
9, 10200, Note_on_c, 9, 42, 93
9, 10229, Note_on_c, 9, 42, 0
9, 10229, Note_on_c, 9, 40, 0
9, 10230, Note_on_c, 9, 44, 49
9, 10259, Note_on_c, 9, 44, 0
9, 10260, Note_on_c, 9, 42, 78
9, 10289, Note_on_c, 9, 42, 0
9, 10290, Note_on_c, 9, 36, 92
9, 10290, Note_on_c, 9, 44, 53
9, 10319, Note_on_c, 9, 44, 0
9, 10319, Note_on_c, 9, 36, 0
9, 10320, Note_on_c, 9, 36, 111
9, 10320, Note_on_c, 9, 42, 87
9, 10349, Note_on_c, 9, 42, 0
9, 10349, Note_on_c, 9, 36, 0
9, 10350, Note_on_c, 9, 44, 53
9, 10379, Note_on_c, 9, 44, 0
9, 10380, Note_on_c, 9, 42, 78
9, 10409, Note_on_c, 9, 42, 0
9, 10410, Note_on_c, 9, 44, 52
9, 10439, Note_on_c, 9, 44, 0
9, 10440, Note_on_c, 9, 40, 127
9, 10440, Note_on_c, 9, 42, 84
9, 10469, Note_on_c, 9, 42, 0
9, 10469, Note_on_c, 9, 40, 0
9, 10470, Note_on_c, 9, 44, 48
9, 10499, Note_on_c, 9, 44, 0
9, 10500, Note_on_c, 9, 42, 67
9, 10529, Note_on_c, 9, 42, 0
9, 10530, Note_on_c, 9, 44, 56
9, 10559, Note_on_c, 9, 44, 0
9, 10560, Note_on_c, 9, 36, 124
9, 10560, Note_on_c, 9, 42, 74
9, 10589, Note_on_c, 9, 42, 0
9, 10589, Note_on_c, 9, 36, 0
9, 10590, Note_on_c, 9, 44, 45
9, 10619, Note_on_c, 9, 44, 0
9, 10620, Note_on_c, 9, 42, 87
9, 10649, Note_on_c, 9, 42, 0
9, 10650, Note_on_c, 9, 44, 40
9, 10679, Note_on_c, 9, 44, 0
9, 10680, Note_on_c, 9, 42, 87
9, 10680, Note_on_c, 9, 40, 127
9, 10709, Note_on_c, 9, 40, 0
9, 10709, Note_on_c, 9, 42, 0
9, 10710, Note_on_c, 9, 44, 53
9, 10739, Note_on_c, 9, 44, 0
9, 10740, Note_on_c, 9, 42, 87
9, 10769, Note_on_c, 9, 42, 0
9, 10770, Note_on_c, 9, 36, 111
9, 10770, Note_on_c, 9, 44, 61
9, 10799, Note_on_c, 9, 44, 0
9, 10799, Note_on_c, 9, 36, 0
9, 10800, Note_on_c, 9, 36, 117
9, 10800, Note_on_c, 9, 42, 93
9, 10829, Note_on_c, 9, 42, 0
9, 10829, Note_on_c, 9, 36, 0
9, 10830, Note_on_c, 9, 44, 62
9, 10859, Note_on_c, 9, 44, 0
9, 10860, Note_on_c, 9, 42, 84
9, 10889, Note_on_c, 9, 42, 0
9, 10890, Note_on_c, 9, 44, 54
9, 10919, Note_on_c, 9, 44, 0
9, 10920, Note_on_c, 9, 40, 124
9, 10920, Note_on_c, 9, 42, 84
9, 10949, Note_on_c, 9, 42, 0
9, 10949, Note_on_c, 9, 40, 0
9, 10950, Note_on_c, 9, 44, 57
9, 10979, Note_on_c, 9, 44, 0
9, 10980, Note_on_c, 9, 42, 70
9, 11009, Note_on_c, 9, 42, 0
9, 11010, Note_on_c, 9, 44, 55
9, 11039, Note_on_c, 9, 44, 0
9, 11040, Note_on_c, 9, 42, 80
9, 11040, Note_on_c, 9, 36, 127
9, 11069, Note_on_c, 9, 36, 0
9, 11069, Note_on_c, 9, 42, 0
9, 11070, Note_on_c, 9, 44, 63
9, 11099, Note_on_c, 9, 44, 0
9, 11100, Note_on_c, 9, 42, 78
9, 11129, Note_on_c, 9, 42, 0
9, 11130, Note_on_c, 9, 44, 26
9, 11159, Note_on_c, 9, 44, 0
9, 11160, Note_on_c, 9, 40, 127
9, 11160, Note_on_c, 9, 42, 82
9, 11189, Note_on_c, 9, 42, 0
9, 11189, Note_on_c, 9, 40, 0
9, 11190, Note_on_c, 9, 44, 56
9, 11219, Note_on_c, 9, 44, 0
9, 11220, Note_on_c, 9, 42, 69
9, 11249, Note_on_c, 9, 42, 0
9, 11250, Note_on_c, 9, 36, 102
9, 11250, Note_on_c, 9, 44, 48
9, 11279, Note_on_c, 9, 44, 0
9, 11279, Note_on_c, 9, 36, 0
9, 11280, Note_on_c, 9, 36, 114
9, 11280, Note_on_c, 9, 42, 90
9, 11309, Note_on_c, 9, 42, 0
9, 11309, Note_on_c, 9, 36, 0
9, 11310, Note_on_c, 9, 44, 64
9, 11339, Note_on_c, 9, 44, 0
9, 11340, Note_on_c, 9, 42, 69
9, 11369, Note_on_c, 9, 42, 0
9, 11370, Note_on_c, 9, 44, 42
9, 11399, Note_on_c, 9, 44, 0
9, 11400, Note_on_c, 9, 42, 87
9, 11400, Note_on_c, 9, 40, 127
9, 11429, Note_on_c, 9, 40, 0
9, 11429, Note_on_c, 9, 42, 0
9, 11430, Note_on_c, 9, 44, 52
9, 11459, Note_on_c, 9, 44, 0
9, 11460, Note_on_c, 9, 42, 82
9, 11489, Note_on_c, 9, 42, 0
9, 11490, Note_on_c, 9, 44, 44
9, 11519, Note_on_c, 9, 44, 0
9, 11520, Note_on_c, 9, 36, 111
9, 11520, Note_on_c, 9, 42, 84
9, 11549, Note_on_c, 9, 42, 0
9, 11549, Note_on_c, 9, 36, 0
9, 11550, Note_on_c, 9, 44, 49
9, 11579, Note_on_c, 9, 44, 0
9, 11580, Note_on_c, 9, 42, 63
9, 11609, Note_on_c, 9, 42, 0
9, 11610, Note_on_c, 9, 44, 49
9, 11639, Note_on_c, 9, 44, 0
9, 11640, Note_on_c, 9, 40, 127
9, 11640, Note_on_c, 9, 42, 87
9, 11669, Note_on_c, 9, 42, 0
9, 11669, Note_on_c, 9, 40, 0
9, 11670, Note_on_c, 9, 44, 45
9, 11699, Note_on_c, 9, 44, 0
9, 11700, Note_on_c, 9, 42, 69
9, 11729, Note_on_c, 9, 42, 0
9, 11730, Note_on_c, 9, 36, 124
9, 11730, Note_on_c, 9, 49, 127
9, 11730, Note_on_c, 9, 44, 58
9, 11759, Note_on_c, 9, 44, 0
9, 11759, Note_on_c, 9, 49, 0
9, 11760, Note_on_c, 9, 42, 84
9, 11789, Note_on_c, 9, 42, 0
9, 11790, Note_on_c, 9, 44, 47
9, 11819, Note_on_c, 9, 44, 0
9, 11820, Note_on_c, 9, 42, 84
9, 11849, Note_on_c, 9, 42, 0
9, 11849, Note_on_c, 9, 36, 0
9, 11850, Note_on_c, 9, 44, 44
9, 11879, Note_on_c, 9, 44, 0
9, 11880, Note_on_c, 9, 42, 84
9, 11909, Note_on_c, 9, 42, 0
9, 11910, Note_on_c, 9, 44, 47
9, 11939, Note_on_c, 9, 44, 0
9, 11940, Note_on_c, 9, 42, 96
9, 11940, Note_on_c, 9, 36, 117
9, 11940, Note_on_c, 9, 57, 127
9, 11969, Note_on_c, 9, 57, 0
9, 11969, Note_on_c, 9, 42, 0
9, 12029, Note_on_c, 9, 36, 0
9, 12120, Note_on_c, 9, 51, 93
9, 12149, Note_on_c, 9, 51, 0
9, 12210, Note_on_c, 9, 51, 54
9, 12239, Note_on_c, 9, 51, 0
9, 12240, Note_on_c, 9, 51, 90
9, 12269, Note_on_c, 9, 51, 0
9, 12330, Note_on_c, 9, 51, 70
9, 12359, Note_on_c, 9, 51, 0
9, 12360, Note_on_c, 9, 51, 103
9, 12360, Note_on_c, 9, 48, 104
9, 12360, Note_on_c, 9, 50, 127
9, 12389, Note_on_c, 9, 50, 0
9, 12389, Note_on_c, 9, 48, 0
9, 12389, Note_on_c, 9, 51, 0
9, 12420, Note_on_c, 9, 45, 127
9, 12449, Note_on_c, 9, 45, 0
9, 12450, Note_on_c, 9, 45, 127
9, 12450, Note_on_c, 9, 51, 67
9, 12479, Note_on_c, 9, 51, 0
9, 12479, Note_on_c, 9, 45, 0
9, 12480, Note_on_c, 9, 44, 93
9, 12480, Note_on_c, 9, 53, 111
9, 12480, Note_on_c, 9, 42, 99
9, 12480, Note_on_c, 9, 51, 90
9, 12480, Note_on_c, 9, 36, 120
9, 12509, Note_on_c, 9, 36, 0
9, 12509, Note_on_c, 9, 42, 0
9, 12509, Note_on_c, 9, 44, 0
9, 12509, Note_on_c, 9, 53, 0
9, 12509, Note_on_c, 9, 51, 0
9, 12510, Note_on_c, 9, 42, 72
9, 12539, Note_on_c, 9, 42, 0
9, 12540, Note_on_c, 9, 44, 99
9, 12540, Note_on_c, 9, 53, 104
9, 12569, Note_on_c, 9, 53, 0
9, 12569, Note_on_c, 9, 44, 0
9, 12570, Note_on_c, 9, 42, 70
9, 12599, Note_on_c, 9, 42, 0
9, 12600, Note_on_c, 9, 40, 127
9, 12600, Note_on_c, 9, 44, 96
9, 12600, Note_on_c, 9, 53, 117
9, 12629, Note_on_c, 9, 53, 0
9, 12629, Note_on_c, 9, 44, 0
9, 12629, Note_on_c, 9, 40, 0
9, 12630, Note_on_c, 9, 42, 80
9, 12659, Note_on_c, 9, 42, 0
9, 12660, Note_on_c, 9, 44, 103
9, 12660, Note_on_c, 9, 53, 111
9, 12689, Note_on_c, 9, 53, 0
9, 12689, Note_on_c, 9, 44, 0
9, 12690, Note_on_c, 9, 36, 120
9, 12690, Note_on_c, 9, 42, 74
9, 12719, Note_on_c, 9, 42, 0
9, 12719, Note_on_c, 9, 36, 0
9, 12720, Note_on_c, 9, 36, 124
9, 12720, Note_on_c, 9, 44, 93
9, 12720, Note_on_c, 9, 53, 111
9, 12749, Note_on_c, 9, 53, 0
9, 12749, Note_on_c, 9, 44, 0
9, 12749, Note_on_c, 9, 36, 0
9, 12750, Note_on_c, 9, 42, 78
9, 12779, Note_on_c, 9, 42, 0
9, 12780, Note_on_c, 9, 44, 90
9, 12780, Note_on_c, 9, 53, 99
9, 12809, Note_on_c, 9, 53, 0
9, 12809, Note_on_c, 9, 44, 0
9, 12810, Note_on_c, 9, 42, 84
9, 12839, Note_on_c, 9, 42, 0
9, 12840, Note_on_c, 9, 40, 127
9, 12840, Note_on_c, 9, 44, 96
9, 12840, Note_on_c, 9, 53, 104
9, 12869, Note_on_c, 9, 53, 0
9, 12869, Note_on_c, 9, 44, 0
9, 12869, Note_on_c, 9, 40, 0
9, 12870, Note_on_c, 9, 42, 82
9, 12899, Note_on_c, 9, 42, 0
9, 12900, Note_on_c, 9, 44, 93
9, 12900, Note_on_c, 9, 53, 104
9, 12929, Note_on_c, 9, 53, 0
9, 12929, Note_on_c, 9, 44, 0
9, 12930, Note_on_c, 9, 36, 114
9, 12930, Note_on_c, 9, 42, 90
9, 12959, Note_on_c, 9, 42, 0
9, 12959, Note_on_c, 9, 36, 0
9, 12960, Note_on_c, 9, 36, 124
9, 12960, Note_on_c, 9, 44, 90
9, 12960, Note_on_c, 9, 53, 97
9, 12989, Note_on_c, 9, 53, 0
9, 12989, Note_on_c, 9, 44, 0
9, 12989, Note_on_c, 9, 36, 0
9, 12990, Note_on_c, 9, 42, 80
9, 13019, Note_on_c, 9, 42, 0
9, 13020, Note_on_c, 9, 44, 87
9, 13020, Note_on_c, 9, 53, 97
9, 13049, Note_on_c, 9, 53, 0
9, 13049, Note_on_c, 9, 44, 0
9, 13050, Note_on_c, 9, 42, 72
9, 13079, Note_on_c, 9, 42, 0
9, 13080, Note_on_c, 9, 40, 127
9, 13080, Note_on_c, 9, 44, 84
9, 13080, Note_on_c, 9, 53, 106
9, 13109, Note_on_c, 9, 53, 0
9, 13109, Note_on_c, 9, 44, 0
9, 13109, Note_on_c, 9, 40, 0
9, 13110, Note_on_c, 9, 42, 72
9, 13139, Note_on_c, 9, 42, 0
9, 13140, Note_on_c, 9, 44, 84
9, 13140, Note_on_c, 9, 53, 114
9, 13169, Note_on_c, 9, 53, 0
9, 13169, Note_on_c, 9, 44, 0
9, 13170, Note_on_c, 9, 42, 66
9, 13170, Note_on_c, 9, 36, 106
9, 13199, Note_on_c, 9, 36, 0
9, 13199, Note_on_c, 9, 42, 0
9, 13200, Note_on_c, 9, 44, 90
9, 13200, Note_on_c, 9, 36, 117
9, 13200, Note_on_c, 9, 53, 109
9, 13229, Note_on_c, 9, 53, 0
9, 13229, Note_on_c, 9, 36, 0
9, 13229, Note_on_c, 9, 44, 0
9, 13230, Note_on_c, 9, 42, 76
9, 13259, Note_on_c, 9, 42, 0
9, 13260, Note_on_c, 9, 44, 90
9, 13260, Note_on_c, 9, 53, 102
9, 13289, Note_on_c, 9, 53, 0
9, 13289, Note_on_c, 9, 44, 0
9, 13290, Note_on_c, 9, 42, 76
9, 13319, Note_on_c, 9, 42, 0
9, 13320, Note_on_c, 9, 40, 117
9, 13320, Note_on_c, 9, 44, 87
9, 13320, Note_on_c, 9, 53, 106
9, 13349, Note_on_c, 9, 53, 0
9, 13349, Note_on_c, 9, 44, 0
9, 13349, Note_on_c, 9, 40, 0
9, 13350, Note_on_c, 9, 42, 80
9, 13379, Note_on_c, 9, 42, 0
9, 13380, Note_on_c, 9, 44, 87
9, 13380, Note_on_c, 9, 53, 102
9, 13409, Note_on_c, 9, 53, 0
9, 13409, Note_on_c, 9, 44, 0
9, 13410, Note_on_c, 9, 42, 87
9, 13410, Note_on_c, 9, 36, 104
9, 13439, Note_on_c, 9, 36, 0
9, 13439, Note_on_c, 9, 42, 0
9, 13440, Note_on_c, 9, 44, 93
9, 13440, Note_on_c, 9, 53, 111
9, 13440, Note_on_c, 9, 36, 106
9, 13469, Note_on_c, 9, 36, 0
9, 13469, Note_on_c, 9, 53, 0
9, 13469, Note_on_c, 9, 44, 0
9, 13470, Note_on_c, 9, 42, 96
9, 13499, Note_on_c, 9, 42, 0
9, 13500, Note_on_c, 9, 44, 96
9, 13500, Note_on_c, 9, 53, 102
9, 13529, Note_on_c, 9, 53, 0
9, 13529, Note_on_c, 9, 44, 0
9, 13530, Note_on_c, 9, 42, 84
9, 13559, Note_on_c, 9, 42, 0
9, 13560, Note_on_c, 9, 40, 124
9, 13560, Note_on_c, 9, 44, 96
9, 13560, Note_on_c, 9, 53, 104
9, 13589, Note_on_c, 9, 53, 0
9, 13589, Note_on_c, 9, 44, 0
9, 13589, Note_on_c, 9, 40, 0
9, 13590, Note_on_c, 9, 42, 84
9, 13619, Note_on_c, 9, 42, 0
9, 13620, Note_on_c, 9, 44, 99
9, 13620, Note_on_c, 9, 53, 109
9, 13649, Note_on_c, 9, 53, 0
9, 13649, Note_on_c, 9, 44, 0
9, 13650, Note_on_c, 9, 42, 93
9, 13650, Note_on_c, 9, 36, 106
9, 13679, Note_on_c, 9, 36, 0
9, 13679, Note_on_c, 9, 42, 0
9, 13680, Note_on_c, 9, 44, 93
9, 13680, Note_on_c, 9, 53, 104
9, 13680, Note_on_c, 9, 36, 111
9, 13709, Note_on_c, 9, 36, 0
9, 13709, Note_on_c, 9, 53, 0
9, 13709, Note_on_c, 9, 44, 0
9, 13710, Note_on_c, 9, 42, 80
9, 13739, Note_on_c, 9, 42, 0
9, 13740, Note_on_c, 9, 44, 84
9, 13740, Note_on_c, 9, 53, 99
9, 13769, Note_on_c, 9, 53, 0
9, 13769, Note_on_c, 9, 44, 0
9, 13770, Note_on_c, 9, 42, 82
9, 13799, Note_on_c, 9, 42, 0
9, 13800, Note_on_c, 9, 44, 84
9, 13800, Note_on_c, 9, 40, 120
9, 13800, Note_on_c, 9, 53, 78
9, 13829, Note_on_c, 9, 53, 0
9, 13829, Note_on_c, 9, 40, 0
9, 13829, Note_on_c, 9, 44, 0
9, 13830, Note_on_c, 9, 42, 87
9, 13859, Note_on_c, 9, 42, 0
9, 13860, Note_on_c, 9, 44, 93
9, 13860, Note_on_c, 9, 53, 109
9, 13889, Note_on_c, 9, 53, 0
9, 13889, Note_on_c, 9, 44, 0
9, 13890, Note_on_c, 9, 42, 84
9, 13890, Note_on_c, 9, 36, 114
9, 13919, Note_on_c, 9, 36, 0
9, 13919, Note_on_c, 9, 42, 0
9, 13920, Note_on_c, 9, 36, 120
9, 13920, Note_on_c, 9, 44, 96
9, 13920, Note_on_c, 9, 53, 109
9, 13949, Note_on_c, 9, 53, 0
9, 13949, Note_on_c, 9, 44, 0
9, 13949, Note_on_c, 9, 36, 0
9, 13950, Note_on_c, 9, 42, 82
9, 13979, Note_on_c, 9, 42, 0
9, 13980, Note_on_c, 9, 44, 87
9, 13980, Note_on_c, 9, 53, 106
9, 14009, Note_on_c, 9, 53, 0
9, 14009, Note_on_c, 9, 44, 0
9, 14010, Note_on_c, 9, 42, 84
9, 14039, Note_on_c, 9, 42, 0
9, 14040, Note_on_c, 9, 40, 117
9, 14040, Note_on_c, 9, 44, 87
9, 14040, Note_on_c, 9, 53, 96
9, 14069, Note_on_c, 9, 53, 0
9, 14069, Note_on_c, 9, 44, 0
9, 14069, Note_on_c, 9, 40, 0
9, 14070, Note_on_c, 9, 42, 87
9, 14099, Note_on_c, 9, 42, 0
9, 14100, Note_on_c, 9, 44, 93
9, 14100, Note_on_c, 9, 53, 92
9, 14129, Note_on_c, 9, 53, 0
9, 14129, Note_on_c, 9, 44, 0
9, 14130, Note_on_c, 9, 42, 90
9, 14130, Note_on_c, 9, 36, 99
9, 14159, Note_on_c, 9, 36, 0
9, 14159, Note_on_c, 9, 42, 0
9, 14160, Note_on_c, 9, 44, 99
9, 14160, Note_on_c, 9, 53, 87
9, 14160, Note_on_c, 9, 36, 106
9, 14189, Note_on_c, 9, 36, 0
9, 14189, Note_on_c, 9, 53, 0
9, 14189, Note_on_c, 9, 44, 0
9, 14190, Note_on_c, 9, 42, 93
9, 14219, Note_on_c, 9, 42, 0
9, 14220, Note_on_c, 9, 44, 93
9, 14220, Note_on_c, 9, 53, 69
9, 14249, Note_on_c, 9, 53, 0
9, 14249, Note_on_c, 9, 44, 0
9, 14250, Note_on_c, 9, 42, 87
9, 14279, Note_on_c, 9, 42, 0
9, 14280, Note_on_c, 9, 40, 120
9, 14280, Note_on_c, 9, 53, 94
9, 14280, Note_on_c, 9, 44, 107
9, 14309, Note_on_c, 9, 44, 0
9, 14309, Note_on_c, 9, 53, 0
9, 14309, Note_on_c, 9, 40, 0
9, 14310, Note_on_c, 9, 42, 93
9, 14339, Note_on_c, 9, 42, 0
9, 14340, Note_on_c, 9, 53, 83
9, 14340, Note_on_c, 9, 44, 99
9, 14369, Note_on_c, 9, 44, 0
9, 14369, Note_on_c, 9, 53, 0
9, 14370, Note_on_c, 9, 42, 87
9, 14370, Note_on_c, 9, 36, 96
9, 14399, Note_on_c, 9, 36, 0
9, 14399, Note_on_c, 9, 42, 0
9, 14400, Note_on_c, 9, 36, 109
9, 14400, Note_on_c, 9, 44, 103
9, 14400, Note_on_c, 9, 53, 96
9, 14429, Note_on_c, 9, 53, 0
9, 14429, Note_on_c, 9, 44, 0
9, 14429, Note_on_c, 9, 36, 0
9, 14430, Note_on_c, 9, 42, 80
9, 14459, Note_on_c, 9, 42, 0
9, 14460, Note_on_c, 9, 44, 99
9, 14460, Note_on_c, 9, 53, 90
9, 14489, Note_on_c, 9, 53, 0
9, 14489, Note_on_c, 9, 44, 0
9, 14490, Note_on_c, 9, 42, 82
9, 14519, Note_on_c, 9, 42, 0
9, 14520, Note_on_c, 9, 40, 120
9, 14520, Note_on_c, 9, 44, 99
9, 14520, Note_on_c, 9, 53, 94
9, 14549, Note_on_c, 9, 53, 0
9, 14549, Note_on_c, 9, 44, 0
9, 14549, Note_on_c, 9, 40, 0
9, 14550, Note_on_c, 9, 42, 84
9, 14579, Note_on_c, 9, 42, 0
9, 14580, Note_on_c, 9, 44, 99
9, 14580, Note_on_c, 9, 53, 99
9, 14609, Note_on_c, 9, 53, 0
9, 14609, Note_on_c, 9, 44, 0
9, 14610, Note_on_c, 9, 42, 87
9, 14610, Note_on_c, 9, 36, 106
9, 14639, Note_on_c, 9, 36, 0
9, 14639, Note_on_c, 9, 42, 0
9, 14640, Note_on_c, 9, 44, 99
9, 14640, Note_on_c, 9, 53, 104
9, 14640, Note_on_c, 9, 36, 111
9, 14669, Note_on_c, 9, 36, 0
9, 14669, Note_on_c, 9, 53, 0
9, 14669, Note_on_c, 9, 44, 0
9, 14670, Note_on_c, 9, 42, 84
9, 14699, Note_on_c, 9, 42, 0
9, 14700, Note_on_c, 9, 44, 99
9, 14700, Note_on_c, 9, 53, 99
9, 14729, Note_on_c, 9, 53, 0
9, 14729, Note_on_c, 9, 44, 0
9, 14730, Note_on_c, 9, 42, 87
9, 14759, Note_on_c, 9, 42, 0
9, 14760, Note_on_c, 9, 40, 109
9, 14760, Note_on_c, 9, 44, 93
9, 14760, Note_on_c, 9, 53, 96
9, 14789, Note_on_c, 9, 53, 0
9, 14789, Note_on_c, 9, 44, 0
9, 14789, Note_on_c, 9, 40, 0
9, 14790, Note_on_c, 9, 42, 84
9, 14819, Note_on_c, 9, 42, 0
9, 14820, Note_on_c, 9, 44, 103
9, 14820, Note_on_c, 9, 53, 90
9, 14849, Note_on_c, 9, 53, 0
9, 14849, Note_on_c, 9, 44, 0
9, 14850, Note_on_c, 9, 42, 87
9, 14850, Note_on_c, 9, 36, 109
9, 14879, Note_on_c, 9, 36, 0
9, 14879, Note_on_c, 9, 42, 0
9, 14880, Note_on_c, 9, 53, 106
9, 14880, Note_on_c, 9, 44, 107
9, 14880, Note_on_c, 9, 36, 111
9, 14909, Note_on_c, 9, 36, 0
9, 14909, Note_on_c, 9, 44, 0
9, 14909, Note_on_c, 9, 53, 0
9, 14910, Note_on_c, 9, 42, 87
9, 14939, Note_on_c, 9, 42, 0
9, 14940, Note_on_c, 9, 44, 96
9, 14940, Note_on_c, 9, 53, 92
9, 14969, Note_on_c, 9, 53, 0
9, 14969, Note_on_c, 9, 44, 0
9, 14970, Note_on_c, 9, 42, 82
9, 14999, Note_on_c, 9, 42, 0
9, 15000, Note_on_c, 9, 40, 117
9, 15000, Note_on_c, 9, 44, 103
9, 15000, Note_on_c, 9, 53, 102
9, 15029, Note_on_c, 9, 53, 0
9, 15029, Note_on_c, 9, 44, 0
9, 15029, Note_on_c, 9, 40, 0
9, 15030, Note_on_c, 9, 42, 82
9, 15059, Note_on_c, 9, 42, 0
9, 15060, Note_on_c, 9, 44, 96
9, 15060, Note_on_c, 9, 53, 106
9, 15089, Note_on_c, 9, 53, 0
9, 15089, Note_on_c, 9, 44, 0
9, 15090, Note_on_c, 9, 42, 93
9, 15090, Note_on_c, 9, 36, 109
9, 15119, Note_on_c, 9, 36, 0
9, 15119, Note_on_c, 9, 42, 0
9, 15120, Note_on_c, 9, 44, 103
9, 15120, Note_on_c, 9, 36, 117
9, 15120, Note_on_c, 9, 53, 102
9, 15149, Note_on_c, 9, 53, 0
9, 15149, Note_on_c, 9, 36, 0
9, 15149, Note_on_c, 9, 44, 0
9, 15150, Note_on_c, 9, 42, 84
9, 15179, Note_on_c, 9, 42, 0
9, 15180, Note_on_c, 9, 44, 96
9, 15180, Note_on_c, 9, 53, 87
9, 15209, Note_on_c, 9, 53, 0
9, 15209, Note_on_c, 9, 44, 0
9, 15210, Note_on_c, 9, 42, 93
9, 15239, Note_on_c, 9, 42, 0
9, 15240, Note_on_c, 9, 40, 120
9, 15240, Note_on_c, 9, 44, 99
9, 15240, Note_on_c, 9, 53, 92
9, 15269, Note_on_c, 9, 53, 0
9, 15269, Note_on_c, 9, 44, 0
9, 15269, Note_on_c, 9, 40, 0
9, 15270, Note_on_c, 9, 42, 93
9, 15299, Note_on_c, 9, 42, 0
9, 15300, Note_on_c, 9, 44, 99
9, 15300, Note_on_c, 9, 53, 92
9, 15329, Note_on_c, 9, 53, 0
9, 15329, Note_on_c, 9, 44, 0
9, 15330, Note_on_c, 9, 36, 102
9, 15330, Note_on_c, 9, 42, 84
9, 15359, Note_on_c, 9, 42, 0
9, 15359, Note_on_c, 9, 36, 0
9, 15360, Note_on_c, 9, 36, 104
9, 15360, Note_on_c, 9, 53, 90
9, 15360, Note_on_c, 9, 44, 84
9, 15389, Note_on_c, 9, 44, 0
9, 15389, Note_on_c, 9, 53, 0
9, 15389, Note_on_c, 9, 36, 0
9, 15390, Note_on_c, 9, 42, 72
9, 15419, Note_on_c, 9, 42, 0
9, 15420, Note_on_c, 9, 44, 93
9, 15420, Note_on_c, 9, 53, 90
9, 15449, Note_on_c, 9, 53, 0
9, 15449, Note_on_c, 9, 44, 0
9, 15450, Note_on_c, 9, 42, 76
9, 15479, Note_on_c, 9, 42, 0
9, 15480, Note_on_c, 9, 40, 111
9, 15480, Note_on_c, 9, 44, 107
9, 15480, Note_on_c, 9, 53, 99
9, 15509, Note_on_c, 9, 53, 0
9, 15509, Note_on_c, 9, 44, 0
9, 15509, Note_on_c, 9, 40, 0
9, 15510, Note_on_c, 9, 42, 67
9, 15539, Note_on_c, 9, 42, 0
9, 15540, Note_on_c, 9, 44, 93
9, 15540, Note_on_c, 9, 53, 83
9, 15569, Note_on_c, 9, 53, 0
9, 15569, Note_on_c, 9, 44, 0
9, 15570, Note_on_c, 9, 42, 82
9, 15570, Note_on_c, 9, 36, 106
9, 15599, Note_on_c, 9, 36, 0
9, 15599, Note_on_c, 9, 42, 0
9, 15600, Note_on_c, 9, 44, 96
9, 15600, Note_on_c, 9, 53, 99
9, 15600, Note_on_c, 9, 36, 104
9, 15629, Note_on_c, 9, 36, 0
9, 15629, Note_on_c, 9, 53, 0
9, 15629, Note_on_c, 9, 44, 0
9, 15630, Note_on_c, 9, 42, 84
9, 15659, Note_on_c, 9, 42, 0
9, 15660, Note_on_c, 9, 44, 93
9, 15660, Note_on_c, 9, 53, 90
9, 15689, Note_on_c, 9, 53, 0
9, 15689, Note_on_c, 9, 44, 0
9, 15690, Note_on_c, 9, 42, 84
9, 15719, Note_on_c, 9, 42, 0
9, 15720, Note_on_c, 9, 40, 124
9, 15720, Note_on_c, 9, 53, 87
9, 15720, Note_on_c, 9, 44, 96
9, 15749, Note_on_c, 9, 44, 0
9, 15749, Note_on_c, 9, 53, 0
9, 15749, Note_on_c, 9, 40, 0
9, 15750, Note_on_c, 9, 42, 84
9, 15779, Note_on_c, 9, 42, 0
9, 15780, Note_on_c, 9, 44, 90
9, 15780, Note_on_c, 9, 53, 87
9, 15809, Note_on_c, 9, 53, 0
9, 15809, Note_on_c, 9, 44, 0
9, 15810, Note_on_c, 9, 42, 82
9, 15810, Note_on_c, 9, 36, 104
9, 15839, Note_on_c, 9, 36, 0
9, 15839, Note_on_c, 9, 42, 0
9, 15840, Note_on_c, 9, 53, 86
9, 15840, Note_on_c, 9, 44, 93
9, 15840, Note_on_c, 9, 36, 104
9, 15869, Note_on_c, 9, 36, 0
9, 15869, Note_on_c, 9, 44, 0
9, 15869, Note_on_c, 9, 53, 0
9, 15870, Note_on_c, 9, 42, 78
9, 15899, Note_on_c, 9, 42, 0
9, 15900, Note_on_c, 9, 44, 90
9, 15900, Note_on_c, 9, 53, 89
9, 15929, Note_on_c, 9, 53, 0
9, 15929, Note_on_c, 9, 44, 0
9, 15930, Note_on_c, 9, 42, 74
9, 15959, Note_on_c, 9, 42, 0
9, 15960, Note_on_c, 9, 40, 124
9, 15960, Note_on_c, 9, 44, 87
9, 15960, Note_on_c, 9, 53, 97
9, 15989, Note_on_c, 9, 53, 0
9, 15989, Note_on_c, 9, 44, 0
9, 15989, Note_on_c, 9, 40, 0
9, 15990, Note_on_c, 9, 42, 78
9, 16019, Note_on_c, 9, 42, 0
9, 16020, Note_on_c, 9, 44, 87
9, 16020, Note_on_c, 9, 53, 81
9, 16049, Note_on_c, 9, 53, 0
9, 16049, Note_on_c, 9, 44, 0
9, 16050, Note_on_c, 9, 36, 99
9, 16050, Note_on_c, 9, 42, 84
9, 16079, Note_on_c, 9, 42, 0
9, 16079, Note_on_c, 9, 36, 0
9, 16080, Note_on_c, 9, 44, 103
9, 16080, Note_on_c, 9, 53, 94
9, 16080, Note_on_c, 9, 36, 111
9, 16109, Note_on_c, 9, 36, 0
9, 16109, Note_on_c, 9, 53, 0
9, 16109, Note_on_c, 9, 44, 0
9, 16110, Note_on_c, 9, 42, 80
9, 16139, Note_on_c, 9, 42, 0
9, 16140, Note_on_c, 9, 44, 103
9, 16140, Note_on_c, 9, 53, 97
9, 16169, Note_on_c, 9, 53, 0
9, 16169, Note_on_c, 9, 44, 0
9, 16170, Note_on_c, 9, 42, 80
9, 16199, Note_on_c, 9, 42, 0
9, 16200, Note_on_c, 9, 40, 114
9, 16200, Note_on_c, 9, 53, 94
9, 16200, Note_on_c, 9, 44, 103
9, 16229, Note_on_c, 9, 44, 0
9, 16229, Note_on_c, 9, 53, 0
9, 16229, Note_on_c, 9, 40, 0
9, 16230, Note_on_c, 9, 42, 63
9, 16259, Note_on_c, 9, 42, 0
9, 16260, Note_on_c, 9, 43, 57
9, 16260, Note_on_c, 9, 44, 112
9, 16260, Note_on_c, 9, 53, 104
9, 16260, Note_on_c, 9, 43, 127
9, 16289, Note_on_c, 9, 43, 0
9, 16289, Note_on_c, 9, 43, 0
9, 16289, Note_on_c, 9, 44, 0
9, 16289, Note_on_c, 9, 53, 0
9, 16290, Note_on_c, 9, 45, 104
9, 16290, Note_on_c, 9, 42, 84
9, 16290, Note_on_c, 9, 36, 104
9, 16319, Note_on_c, 9, 36, 0
9, 16319, Note_on_c, 9, 42, 0
9, 16319, Note_on_c, 9, 45, 0
9, 16320, Note_on_c, 9, 36, 111
9, 16320, Note_on_c, 9, 55, 97
9, 16349, Note_on_c, 9, 55, 0
9, 16349, Note_on_c, 9, 36, 0
9, 16350, Note_on_c, 9, 42, 96
9, 16379, Note_on_c, 9, 42, 0
9, 16380, Note_on_c, 9, 55, 73
9, 16409, Note_on_c, 9, 55, 0
9, 16410, Note_on_c, 9, 42, 84
9, 16439, Note_on_c, 9, 42, 0
9, 16440, Note_on_c, 9, 40, 127
9, 16440, Note_on_c, 9, 55, 87
9, 16469, Note_on_c, 9, 55, 0
9, 16469, Note_on_c, 9, 40, 0
9, 16470, Note_on_c, 9, 42, 82
9, 16499, Note_on_c, 9, 42, 0
9, 16500, Note_on_c, 9, 55, 87
9, 16529, Note_on_c, 9, 55, 0
9, 16530, Note_on_c, 9, 36, 106
9, 16530, Note_on_c, 9, 42, 82
9, 16559, Note_on_c, 9, 42, 0
9, 16559, Note_on_c, 9, 36, 0
9, 16560, Note_on_c, 9, 36, 124
9, 16560, Note_on_c, 9, 55, 87
9, 16589, Note_on_c, 9, 55, 0
9, 16589, Note_on_c, 9, 36, 0
9, 16590, Note_on_c, 9, 42, 90
9, 16619, Note_on_c, 9, 42, 0
9, 16620, Note_on_c, 9, 55, 89
9, 16649, Note_on_c, 9, 55, 0
9, 16650, Note_on_c, 9, 42, 78
9, 16679, Note_on_c, 9, 42, 0
9, 16680, Note_on_c, 9, 40, 127
9, 16680, Note_on_c, 9, 55, 86
9, 16709, Note_on_c, 9, 55, 0
9, 16709, Note_on_c, 9, 40, 0
9, 16710, Note_on_c, 9, 42, 78
9, 16739, Note_on_c, 9, 42, 0
9, 16740, Note_on_c, 9, 55, 87
9, 16769, Note_on_c, 9, 55, 0
9, 16770, Note_on_c, 9, 36, 97
9, 16770, Note_on_c, 9, 42, 80
9, 16799, Note_on_c, 9, 42, 0
9, 16799, Note_on_c, 9, 36, 0
9, 16800, Note_on_c, 9, 36, 124
9, 16800, Note_on_c, 9, 55, 111
9, 16829, Note_on_c, 9, 55, 0
9, 16829, Note_on_c, 9, 36, 0
9, 16830, Note_on_c, 9, 42, 84
9, 16859, Note_on_c, 9, 42, 0
9, 16860, Note_on_c, 9, 55, 84
9, 16889, Note_on_c, 9, 55, 0
9, 16890, Note_on_c, 9, 42, 80
9, 16919, Note_on_c, 9, 42, 0
9, 16920, Note_on_c, 9, 40, 127
9, 16920, Note_on_c, 9, 55, 84
9, 16949, Note_on_c, 9, 55, 0
9, 16949, Note_on_c, 9, 40, 0
9, 16950, Note_on_c, 9, 42, 78
9, 16979, Note_on_c, 9, 42, 0
9, 16980, Note_on_c, 9, 55, 81
9, 17009, Note_on_c, 9, 55, 0
9, 17010, Note_on_c, 9, 42, 82
9, 17010, Note_on_c, 9, 36, 104
9, 17039, Note_on_c, 9, 36, 0
9, 17039, Note_on_c, 9, 42, 0
9, 17040, Note_on_c, 9, 36, 124
9, 17040, Note_on_c, 9, 55, 76
9, 17069, Note_on_c, 9, 55, 0
9, 17069, Note_on_c, 9, 36, 0
9, 17070, Note_on_c, 9, 42, 82
9, 17099, Note_on_c, 9, 42, 0
9, 17100, Note_on_c, 9, 55, 78
9, 17129, Note_on_c, 9, 55, 0
9, 17130, Note_on_c, 9, 42, 80
9, 17159, Note_on_c, 9, 42, 0
9, 17160, Note_on_c, 9, 40, 124
9, 17160, Note_on_c, 9, 55, 90
9, 17189, Note_on_c, 9, 55, 0
9, 17189, Note_on_c, 9, 40, 0
9, 17190, Note_on_c, 9, 42, 84
9, 17219, Note_on_c, 9, 42, 0
9, 17220, Note_on_c, 9, 55, 104
9, 17249, Note_on_c, 9, 55, 0
9, 17250, Note_on_c, 9, 42, 78
9, 17250, Note_on_c, 9, 43, 127
9, 17279, Note_on_c, 9, 43, 0
9, 17279, Note_on_c, 9, 42, 0
9, 17280, Note_on_c, 9, 36, 120
9, 17280, Note_on_c, 9, 55, 109
9, 17280, Note_on_c, 9, 49, 123
9, 17309, Note_on_c, 9, 49, 0
9, 17309, Note_on_c, 9, 55, 0
9, 17309, Note_on_c, 9, 36, 0
9, 17310, Note_on_c, 9, 42, 84
9, 17339, Note_on_c, 9, 42, 0
9, 17340, Note_on_c, 9, 55, 92
9, 17369, Note_on_c, 9, 55, 0
9, 17370, Note_on_c, 9, 42, 84
9, 17399, Note_on_c, 9, 42, 0
9, 17400, Note_on_c, 9, 40, 120
9, 17400, Note_on_c, 9, 55, 109
9, 17429, Note_on_c, 9, 55, 0
9, 17429, Note_on_c, 9, 40, 0
9, 17430, Note_on_c, 9, 42, 93
9, 17459, Note_on_c, 9, 42, 0
9, 17460, Note_on_c, 9, 55, 79
9, 17489, Note_on_c, 9, 55, 0
9, 17490, Note_on_c, 9, 42, 96
9, 17490, Note_on_c, 9, 36, 92
9, 17519, Note_on_c, 9, 36, 0
9, 17519, Note_on_c, 9, 42, 0
9, 17520, Note_on_c, 9, 36, 114
9, 17520, Note_on_c, 9, 55, 70
9, 17549, Note_on_c, 9, 55, 0
9, 17549, Note_on_c, 9, 36, 0
9, 17550, Note_on_c, 9, 42, 90
9, 17579, Note_on_c, 9, 42, 0
9, 17580, Note_on_c, 9, 55, 96
9, 17609, Note_on_c, 9, 55, 0
9, 17610, Note_on_c, 9, 42, 90
9, 17639, Note_on_c, 9, 42, 0
9, 17640, Note_on_c, 9, 40, 127
9, 17640, Note_on_c, 9, 55, 97
9, 17669, Note_on_c, 9, 55, 0
9, 17669, Note_on_c, 9, 40, 0
9, 17670, Note_on_c, 9, 42, 87
9, 17699, Note_on_c, 9, 42, 0
9, 17700, Note_on_c, 9, 55, 76
9, 17729, Note_on_c, 9, 55, 0
9, 17730, Note_on_c, 9, 36, 90
9, 17730, Note_on_c, 9, 42, 82
9, 17759, Note_on_c, 9, 42, 0
9, 17759, Note_on_c, 9, 36, 0
9, 17760, Note_on_c, 9, 36, 109
9, 17760, Note_on_c, 9, 55, 89
9, 17789, Note_on_c, 9, 55, 0
9, 17789, Note_on_c, 9, 36, 0
9, 17790, Note_on_c, 9, 42, 82
9, 17819, Note_on_c, 9, 42, 0
9, 17820, Note_on_c, 9, 55, 75
9, 17849, Note_on_c, 9, 55, 0
9, 17850, Note_on_c, 9, 42, 84
9, 17879, Note_on_c, 9, 42, 0
9, 17880, Note_on_c, 9, 40, 127
9, 17880, Note_on_c, 9, 55, 70
9, 17909, Note_on_c, 9, 55, 0
9, 17909, Note_on_c, 9, 40, 0
9, 17910, Note_on_c, 9, 42, 84
9, 17939, Note_on_c, 9, 42, 0
9, 17940, Note_on_c, 9, 55, 70
9, 17969, Note_on_c, 9, 55, 0
9, 17970, Note_on_c, 9, 42, 84
9, 17970, Note_on_c, 9, 36, 99
9, 17999, Note_on_c, 9, 36, 0
9, 17999, Note_on_c, 9, 42, 0
9, 18000, Note_on_c, 9, 36, 114
9, 18000, Note_on_c, 9, 55, 75
9, 18029, Note_on_c, 9, 55, 0
9, 18029, Note_on_c, 9, 36, 0
9, 18030, Note_on_c, 9, 42, 87
9, 18059, Note_on_c, 9, 42, 0
9, 18060, Note_on_c, 9, 55, 69
9, 18089, Note_on_c, 9, 55, 0
9, 18090, Note_on_c, 9, 42, 87
9, 18119, Note_on_c, 9, 42, 0
9, 18120, Note_on_c, 9, 40, 127
9, 18120, Note_on_c, 9, 55, 92
9, 18149, Note_on_c, 9, 55, 0
9, 18149, Note_on_c, 9, 40, 0
9, 18150, Note_on_c, 9, 42, 93
9, 18179, Note_on_c, 9, 42, 0
9, 18180, Note_on_c, 9, 55, 77
9, 18180, Note_on_c, 9, 48, 127
9, 18209, Note_on_c, 9, 48, 0
9, 18209, Note_on_c, 9, 55, 0
9, 18210, Note_on_c, 9, 42, 87
9, 18210, Note_on_c, 9, 48, 127
9, 18239, Note_on_c, 9, 48, 0
9, 18239, Note_on_c, 9, 42, 0
9, 18240, Note_on_c, 9, 57, 114
9, 18240, Note_on_c, 9, 36, 127
9, 18240, Note_on_c, 9, 55, 69
9, 18269, Note_on_c, 9, 55, 0
9, 18269, Note_on_c, 9, 36, 0
9, 18269, Note_on_c, 9, 57, 0
9, 18270, Note_on_c, 9, 42, 80
9, 18299, Note_on_c, 9, 42, 0
9, 18300, Note_on_c, 9, 55, 77
9, 18329, Note_on_c, 9, 55, 0
9, 18330, Note_on_c, 9, 42, 87
9, 18359, Note_on_c, 9, 42, 0
9, 18360, Note_on_c, 9, 40, 127
9, 18360, Note_on_c, 9, 55, 104
9, 18360, Note_on_c, 9, 49, 107
9, 18389, Note_on_c, 9, 49, 0
9, 18389, Note_on_c, 9, 55, 0
9, 18389, Note_on_c, 9, 40, 0
9, 18390, Note_on_c, 9, 42, 90
9, 18419, Note_on_c, 9, 42, 0
9, 18420, Note_on_c, 9, 55, 83
9, 18449, Note_on_c, 9, 55, 0
9, 18450, Note_on_c, 9, 42, 82
9, 18450, Note_on_c, 9, 36, 97
9, 18450, Note_on_c, 9, 55, 54
9, 18479, Note_on_c, 9, 55, 0
9, 18479, Note_on_c, 9, 36, 0
9, 18479, Note_on_c, 9, 42, 0
9, 18480, Note_on_c, 9, 36, 120
9, 18480, Note_on_c, 9, 55, 102
9, 18480, Note_on_c, 9, 57, 102
9, 18509, Note_on_c, 9, 57, 0
9, 18509, Note_on_c, 9, 55, 0
9, 18509, Note_on_c, 9, 36, 0
9, 18510, Note_on_c, 9, 42, 80
9, 18539, Note_on_c, 9, 42, 0
9, 18540, Note_on_c, 9, 55, 83
9, 18569, Note_on_c, 9, 55, 0
9, 18570, Note_on_c, 9, 42, 74
9, 18599, Note_on_c, 9, 42, 0
9, 18600, Note_on_c, 9, 55, 94
9, 18600, Note_on_c, 9, 40, 120
9, 18629, Note_on_c, 9, 40, 0
9, 18629, Note_on_c, 9, 55, 0
9, 18630, Note_on_c, 9, 42, 82
9, 18659, Note_on_c, 9, 42, 0
9, 18660, Note_on_c, 9, 55, 81
9, 18689, Note_on_c, 9, 55, 0
9, 18690, Note_on_c, 9, 42, 74
9, 18719, Note_on_c, 9, 42, 0
9, 18720, Note_on_c, 9, 36, 111
9, 18720, Note_on_c, 9, 55, 89
9, 18749, Note_on_c, 9, 55, 0
9, 18749, Note_on_c, 9, 36, 0
9, 18750, Note_on_c, 9, 42, 76
9, 18779, Note_on_c, 9, 42, 0
9, 18780, Note_on_c, 9, 55, 79
9, 18809, Note_on_c, 9, 55, 0
9, 18810, Note_on_c, 9, 42, 78
9, 18839, Note_on_c, 9, 42, 0
9, 18840, Note_on_c, 9, 40, 120
9, 18840, Note_on_c, 9, 55, 82
9, 18869, Note_on_c, 9, 55, 0
9, 18869, Note_on_c, 9, 40, 0
9, 18870, Note_on_c, 9, 42, 76
9, 18899, Note_on_c, 9, 42, 0
9, 18900, Note_on_c, 9, 55, 81
9, 18929, Note_on_c, 9, 55, 0
9, 18930, Note_on_c, 9, 42, 76
9, 18930, Note_on_c, 9, 36, 109
9, 18959, Note_on_c, 9, 36, 0
9, 18959, Note_on_c, 9, 42, 0
9, 18960, Note_on_c, 9, 55, 82
9, 18960, Note_on_c, 9, 36, 109
9, 18989, Note_on_c, 9, 36, 0
9, 18989, Note_on_c, 9, 55, 0
9, 18990, Note_on_c, 9, 42, 76
9, 19019, Note_on_c, 9, 42, 0
9, 19020, Note_on_c, 9, 55, 73
9, 19049, Note_on_c, 9, 55, 0
9, 19050, Note_on_c, 9, 42, 78
9, 19050, Note_on_c, 9, 48, 99
9, 19079, Note_on_c, 9, 48, 0
9, 19079, Note_on_c, 9, 42, 0
9, 19080, Note_on_c, 9, 48, 109
9, 19080, Note_on_c, 9, 40, 127
9, 19080, Note_on_c, 9, 55, 79
9, 19109, Note_on_c, 9, 55, 0
9, 19109, Note_on_c, 9, 40, 0
9, 19109, Note_on_c, 9, 48, 0
9, 19110, Note_on_c, 9, 42, 90
9, 19139, Note_on_c, 9, 42, 0
9, 19140, Note_on_c, 9, 45, 120
9, 19140, Note_on_c, 9, 55, 73
9, 19169, Note_on_c, 9, 55, 0
9, 19169, Note_on_c, 9, 45, 0
9, 19170, Note_on_c, 9, 45, 97
9, 19170, Note_on_c, 9, 42, 90
9, 19199, Note_on_c, 9, 42, 0
9, 19199, Note_on_c, 9, 45, 0
9, 19200, Note_on_c, 9, 36, 120
9, 19200, Note_on_c, 9, 55, 99
9, 19200, Note_on_c, 9, 49, 117
9, 19229, Note_on_c, 9, 49, 0
9, 19229, Note_on_c, 9, 55, 0
9, 19229, Note_on_c, 9, 36, 0
9, 19230, Note_on_c, 9, 42, 78
9, 19230, Note_on_c, 9, 55, 49
9, 19259, Note_on_c, 9, 55, 0
9, 19259, Note_on_c, 9, 42, 0
9, 19260, Note_on_c, 9, 55, 73
9, 19289, Note_on_c, 9, 55, 0
9, 19290, Note_on_c, 9, 42, 66
9, 19290, Note_on_c, 9, 55, 71
9, 19319, Note_on_c, 9, 55, 0
9, 19319, Note_on_c, 9, 42, 0
9, 19320, Note_on_c, 9, 40, 120
9, 19320, Note_on_c, 9, 55, 89
9, 19320, Note_on_c, 9, 57, 109
9, 19349, Note_on_c, 9, 57, 0
9, 19349, Note_on_c, 9, 55, 0
9, 19349, Note_on_c, 9, 40, 0
9, 19350, Note_on_c, 9, 42, 63
9, 19379, Note_on_c, 9, 42, 0
9, 19380, Note_on_c, 9, 55, 70
9, 19409, Note_on_c, 9, 55, 0
9, 19410, Note_on_c, 9, 36, 99
9, 19410, Note_on_c, 9, 42, 74
9, 19439, Note_on_c, 9, 42, 0
9, 19439, Note_on_c, 9, 36, 0
9, 19440, Note_on_c, 9, 49, 112
9, 19440, Note_on_c, 9, 55, 92
9, 19440, Note_on_c, 9, 36, 127
9, 19469, Note_on_c, 9, 36, 0
9, 19469, Note_on_c, 9, 55, 0
9, 19469, Note_on_c, 9, 49, 0
9, 19470, Note_on_c, 9, 42, 70
9, 19499, Note_on_c, 9, 42, 0
9, 19500, Note_on_c, 9, 55, 75
9, 19529, Note_on_c, 9, 55, 0
9, 19530, Note_on_c, 9, 42, 67
9, 19530, Note_on_c, 9, 55, 96
9, 19530, Note_on_c, 9, 57, 117
9, 19559, Note_on_c, 9, 57, 0
9, 19559, Note_on_c, 9, 55, 0
9, 19559, Note_on_c, 9, 42, 0
9, 19560, Note_on_c, 9, 40, 124
9, 19589, Note_on_c, 9, 40, 0
9, 19590, Note_on_c, 9, 42, 80
9, 19619, Note_on_c, 9, 42, 0
9, 19620, Note_on_c, 9, 55, 66
9, 19649, Note_on_c, 9, 55, 0
9, 19650, Note_on_c, 9, 49, 117
9, 19650, Note_on_c, 9, 42, 74
9, 19650, Note_on_c, 9, 36, 124
9, 19650, Note_on_c, 9, 55, 109
9, 19679, Note_on_c, 9, 55, 0
9, 19679, Note_on_c, 9, 49, 0
9, 19679, Note_on_c, 9, 42, 0
9, 19679, Note_on_c, 9, 36, 0
9, 19710, Note_on_c, 9, 36, 127
9, 19710, Note_on_c, 9, 42, 82
9, 19710, Note_on_c, 9, 55, 102
9, 19710, Note_on_c, 9, 57, 117
9, 19739, Note_on_c, 9, 57, 0
9, 19739, Note_on_c, 9, 55, 0
9, 19739, Note_on_c, 9, 42, 0
9, 19799, Note_on_c, 9, 36, 0
9, 19920, Note_on_c, 9, 40, 100
9, 20010, Note_on_c, 9, 51, 107
9, 20039, Note_on_c, 9, 51, 0
9, 20039, Note_on_c, 9, 40, 0
9, 20070, Note_on_c, 9, 51, 99
9, 20099, Note_on_c, 9, 51, 0
9, 20130, Note_on_c, 9, 51, 82
9, 20159, Note_on_c, 9, 51, 0
9, 20163, Note_on_c, 9, 51, 96
9, 20175, Note_on_c, 9, 51, 0
9, 20374, Note_on_c, 9, 51, 90
9, 20385, Note_on_c, 9, 51, 0
9, 20406, Note_on_c, 9, 51, 96
9, 20418, Note_on_c, 9, 51, 0
9, 20490, Note_on_c, 9, 48, 127
9, 20519, Note_on_c, 9, 48, 0
9, 20519, Note_on_c, 9, 51, 107
9, 20520, Note_on_c, 9, 48, 127
9, 20530, Note_on_c, 9, 51, 0
9, 20549, Note_on_c, 9, 48, 0
9, 20580, Note_on_c, 9, 45, 127
9, 20609, Note_on_c, 9, 45, 0
9, 20610, Note_on_c, 9, 45, 127
9, 20639, Note_on_c, 9, 45, 0
9, 20640, Note_on_c, 9, 36, 124
9, 20640, Note_on_c, 9, 42, 112
9, 20669, Note_on_c, 9, 42, 0
9, 20669, Note_on_c, 9, 36, 0
9, 20670, Note_on_c, 9, 44, 49
9, 20699, Note_on_c, 9, 44, 0
9, 20700, Note_on_c, 9, 42, 87
9, 20729, Note_on_c, 9, 42, 0
9, 20730, Note_on_c, 9, 44, 54
9, 20759, Note_on_c, 9, 44, 0
9, 20760, Note_on_c, 9, 40, 127
9, 20760, Note_on_c, 9, 42, 103
9, 20789, Note_on_c, 9, 42, 0
9, 20789, Note_on_c, 9, 40, 0
9, 20790, Note_on_c, 9, 44, 61
9, 20819, Note_on_c, 9, 44, 0
9, 20820, Note_on_c, 9, 42, 93
9, 20849, Note_on_c, 9, 42, 0
9, 20850, Note_on_c, 9, 36, 124
9, 20850, Note_on_c, 9, 44, 53
9, 20879, Note_on_c, 9, 44, 0
9, 20879, Note_on_c, 9, 36, 0
9, 20880, Note_on_c, 9, 36, 124
9, 20880, Note_on_c, 9, 42, 112
9, 20909, Note_on_c, 9, 42, 0
9, 20909, Note_on_c, 9, 36, 0
9, 20910, Note_on_c, 9, 44, 61
9, 20939, Note_on_c, 9, 44, 0
9, 20940, Note_on_c, 9, 42, 96
9, 20969, Note_on_c, 9, 42, 0
9, 20970, Note_on_c, 9, 44, 62
9, 20999, Note_on_c, 9, 44, 0
9, 21000, Note_on_c, 9, 40, 127
9, 21000, Note_on_c, 9, 42, 93
9, 21029, Note_on_c, 9, 42, 0
9, 21029, Note_on_c, 9, 40, 0
9, 21030, Note_on_c, 9, 44, 56
9, 21059, Note_on_c, 9, 44, 0
9, 21060, Note_on_c, 9, 42, 90
9, 21089, Note_on_c, 9, 42, 0
9, 21090, Note_on_c, 9, 44, 61
9, 21119, Note_on_c, 9, 44, 0
9, 21120, Note_on_c, 9, 36, 124
9, 21120, Note_on_c, 9, 42, 96
9, 21149, Note_on_c, 9, 42, 0
9, 21149, Note_on_c, 9, 36, 0
9, 21150, Note_on_c, 9, 44, 64
9, 21179, Note_on_c, 9, 44, 0
9, 21180, Note_on_c, 9, 42, 84
9, 21209, Note_on_c, 9, 42, 0
9, 21210, Note_on_c, 9, 44, 54
9, 21239, Note_on_c, 9, 44, 0
9, 21240, Note_on_c, 9, 40, 127
9, 21240, Note_on_c, 9, 42, 99
9, 21269, Note_on_c, 9, 42, 0
9, 21269, Note_on_c, 9, 40, 0
9, 21270, Note_on_c, 9, 44, 57
9, 21299, Note_on_c, 9, 44, 0
9, 21300, Note_on_c, 9, 42, 90
9, 21329, Note_on_c, 9, 42, 0
9, 21330, Note_on_c, 9, 36, 127
9, 21330, Note_on_c, 9, 44, 62
9, 21359, Note_on_c, 9, 44, 0
9, 21359, Note_on_c, 9, 36, 0
9, 21360, Note_on_c, 9, 36, 124
9, 21360, Note_on_c, 9, 42, 93
9, 21389, Note_on_c, 9, 42, 0
9, 21389, Note_on_c, 9, 36, 0
9, 21390, Note_on_c, 9, 44, 47
9, 21419, Note_on_c, 9, 44, 0
9, 21420, Note_on_c, 9, 42, 90
9, 21449, Note_on_c, 9, 42, 0
9, 21450, Note_on_c, 9, 44, 54
9, 21479, Note_on_c, 9, 44, 0
9, 21480, Note_on_c, 9, 40, 127
9, 21480, Note_on_c, 9, 42, 90
9, 21509, Note_on_c, 9, 42, 0
9, 21509, Note_on_c, 9, 40, 0
9, 21510, Note_on_c, 9, 44, 49
9, 21539, Note_on_c, 9, 44, 0
9, 21540, Note_on_c, 9, 42, 78
9, 21569, Note_on_c, 9, 42, 0
9, 21570, Note_on_c, 9, 44, 52
9, 21599, Note_on_c, 9, 44, 0
9, 21600, Note_on_c, 9, 36, 117
9, 21600, Note_on_c, 9, 42, 82
9, 21629, Note_on_c, 9, 42, 0
9, 21629, Note_on_c, 9, 36, 0
9, 21630, Note_on_c, 9, 44, 54
9, 21659, Note_on_c, 9, 44, 0
9, 21660, Note_on_c, 9, 42, 51
9, 21689, Note_on_c, 9, 42, 0
9, 21690, Note_on_c, 9, 44, 58
9, 21719, Note_on_c, 9, 44, 0
9, 21720, Note_on_c, 9, 40, 127
9, 21720, Note_on_c, 9, 42, 90
9, 21749, Note_on_c, 9, 42, 0
9, 21749, Note_on_c, 9, 40, 0
9, 21750, Note_on_c, 9, 36, 124
9, 21750, Note_on_c, 9, 44, 61
9, 21779, Note_on_c, 9, 44, 0
9, 21779, Note_on_c, 9, 36, 0
9, 21780, Note_on_c, 9, 42, 76
9, 21809, Note_on_c, 9, 42, 0
9, 21810, Note_on_c, 9, 36, 114
9, 21810, Note_on_c, 9, 44, 58
9, 21839, Note_on_c, 9, 44, 0
9, 21839, Note_on_c, 9, 36, 0
9, 21840, Note_on_c, 9, 42, 90
9, 21869, Note_on_c, 9, 42, 0
9, 21870, Note_on_c, 9, 44, 54
9, 21899, Note_on_c, 9, 44, 0
9, 21900, Note_on_c, 9, 42, 80
9, 21929, Note_on_c, 9, 42, 0
9, 21930, Note_on_c, 9, 44, 63
9, 21959, Note_on_c, 9, 44, 0
9, 21960, Note_on_c, 9, 42, 93
9, 21960, Note_on_c, 9, 40, 127
9, 21989, Note_on_c, 9, 40, 0
9, 21989, Note_on_c, 9, 42, 0
9, 21990, Note_on_c, 9, 44, 54
9, 22019, Note_on_c, 9, 44, 0
9, 22020, Note_on_c, 9, 42, 90
9, 22049, Note_on_c, 9, 42, 0
9, 22050, Note_on_c, 9, 46, 93
9, 22079, Note_on_c, 9, 46, 0
9, 22080, Note_on_c, 9, 36, 117
9, 22080, Note_on_c, 9, 42, 103
9, 22109, Note_on_c, 9, 42, 0
9, 22109, Note_on_c, 9, 36, 0
9, 22110, Note_on_c, 9, 44, 62
9, 22139, Note_on_c, 9, 44, 0
9, 22140, Note_on_c, 9, 42, 82
9, 22169, Note_on_c, 9, 42, 0
9, 22170, Note_on_c, 9, 44, 60
9, 22199, Note_on_c, 9, 44, 0
9, 22200, Note_on_c, 9, 40, 127
9, 22200, Note_on_c, 9, 42, 93
9, 22229, Note_on_c, 9, 42, 0
9, 22229, Note_on_c, 9, 40, 0
9, 22230, Note_on_c, 9, 44, 63
9, 22259, Note_on_c, 9, 44, 0
9, 22260, Note_on_c, 9, 42, 82
9, 22289, Note_on_c, 9, 42, 0
9, 22290, Note_on_c, 9, 36, 109
9, 22290, Note_on_c, 9, 44, 62
9, 22319, Note_on_c, 9, 44, 0
9, 22319, Note_on_c, 9, 36, 0
9, 22320, Note_on_c, 9, 36, 96
9, 22320, Note_on_c, 9, 42, 96
9, 22349, Note_on_c, 9, 42, 0
9, 22349, Note_on_c, 9, 36, 0
9, 22350, Note_on_c, 9, 44, 57
9, 22379, Note_on_c, 9, 44, 0
9, 22380, Note_on_c, 9, 42, 78
9, 22409, Note_on_c, 9, 42, 0
9, 22410, Note_on_c, 9, 44, 66
9, 22439, Note_on_c, 9, 44, 0
9, 22440, Note_on_c, 9, 40, 127
9, 22440, Note_on_c, 9, 42, 90
9, 22469, Note_on_c, 9, 42, 0
9, 22469, Note_on_c, 9, 40, 0
9, 22470, Note_on_c, 9, 44, 58
9, 22499, Note_on_c, 9, 44, 0
9, 22500, Note_on_c, 9, 42, 72
9, 22529, Note_on_c, 9, 42, 0
9, 22530, Note_on_c, 9, 44, 55
9, 22559, Note_on_c, 9, 44, 0
9, 22560, Note_on_c, 9, 36, 109
9, 22560, Note_on_c, 9, 42, 93
9, 22589, Note_on_c, 9, 42, 0
9, 22589, Note_on_c, 9, 36, 0
9, 22590, Note_on_c, 9, 44, 56
9, 22619, Note_on_c, 9, 44, 0
9, 22620, Note_on_c, 9, 42, 66
9, 22649, Note_on_c, 9, 42, 0
9, 22650, Note_on_c, 9, 44, 54
9, 22679, Note_on_c, 9, 44, 0
9, 22680, Note_on_c, 9, 40, 127
9, 22680, Note_on_c, 9, 42, 93
9, 22709, Note_on_c, 9, 42, 0
9, 22709, Note_on_c, 9, 40, 0
9, 22710, Note_on_c, 9, 44, 49
9, 22739, Note_on_c, 9, 44, 0
9, 22740, Note_on_c, 9, 42, 84
9, 22769, Note_on_c, 9, 42, 0
9, 22770, Note_on_c, 9, 36, 104
9, 22770, Note_on_c, 9, 44, 54
9, 22799, Note_on_c, 9, 44, 0
9, 22799, Note_on_c, 9, 36, 0
9, 22800, Note_on_c, 9, 36, 117
9, 22800, Note_on_c, 9, 42, 82
9, 22829, Note_on_c, 9, 42, 0
9, 22829, Note_on_c, 9, 36, 0
9, 22830, Note_on_c, 9, 44, 35
9, 22859, Note_on_c, 9, 44, 0
9, 22860, Note_on_c, 9, 42, 80
9, 22889, Note_on_c, 9, 42, 0
9, 22890, Note_on_c, 9, 44, 47
9, 22919, Note_on_c, 9, 44, 0
9, 22920, Note_on_c, 9, 40, 127
9, 22920, Note_on_c, 9, 42, 93
9, 22949, Note_on_c, 9, 42, 0
9, 22949, Note_on_c, 9, 40, 0
9, 22950, Note_on_c, 9, 44, 64
9, 22979, Note_on_c, 9, 44, 0
9, 22980, Note_on_c, 9, 42, 80
9, 23009, Note_on_c, 9, 42, 0
9, 23010, Note_on_c, 9, 44, 56
9, 23039, Note_on_c, 9, 44, 0
9, 23040, Note_on_c, 9, 36, 117
9, 23040, Note_on_c, 9, 42, 93
9, 23069, Note_on_c, 9, 42, 0
9, 23069, Note_on_c, 9, 36, 0
9, 23070, Note_on_c, 9, 44, 49
9, 23099, Note_on_c, 9, 44, 0
9, 23100, Note_on_c, 9, 42, 82
9, 23129, Note_on_c, 9, 42, 0
9, 23130, Note_on_c, 9, 44, 55
9, 23159, Note_on_c, 9, 44, 0
9, 23160, Note_on_c, 9, 40, 120
9, 23160, Note_on_c, 9, 42, 96
9, 23189, Note_on_c, 9, 42, 0
9, 23189, Note_on_c, 9, 40, 0
9, 23190, Note_on_c, 9, 36, 120
9, 23190, Note_on_c, 9, 44, 57
9, 23219, Note_on_c, 9, 44, 0
9, 23219, Note_on_c, 9, 36, 0
9, 23220, Note_on_c, 9, 42, 93
9, 23249, Note_on_c, 9, 42, 0
9, 23250, Note_on_c, 9, 36, 120
9, 23250, Note_on_c, 9, 44, 54
9, 23279, Note_on_c, 9, 44, 0
9, 23279, Note_on_c, 9, 36, 0
9, 23280, Note_on_c, 9, 42, 82
9, 23309, Note_on_c, 9, 42, 0
9, 23310, Note_on_c, 9, 44, 58
9, 23339, Note_on_c, 9, 44, 0
9, 23340, Note_on_c, 9, 42, 84
9, 23369, Note_on_c, 9, 42, 0
9, 23370, Note_on_c, 9, 44, 64
9, 23399, Note_on_c, 9, 44, 0
9, 23400, Note_on_c, 9, 40, 127
9, 23400, Note_on_c, 9, 42, 93
9, 23429, Note_on_c, 9, 42, 0
9, 23429, Note_on_c, 9, 40, 0
9, 23430, Note_on_c, 9, 44, 54
9, 23459, Note_on_c, 9, 44, 0
9, 23460, Note_on_c, 9, 42, 84
9, 23489, Note_on_c, 9, 42, 0
9, 23490, Note_on_c, 9, 46, 84
9, 23519, Note_on_c, 9, 46, 0
9, 23520, Note_on_c, 9, 36, 120
9, 23520, Note_on_c, 9, 42, 90
9, 23549, Note_on_c, 9, 42, 0
9, 23549, Note_on_c, 9, 36, 0
9, 23550, Note_on_c, 9, 44, 48
9, 23579, Note_on_c, 9, 44, 0
9, 23580, Note_on_c, 9, 42, 74
9, 23609, Note_on_c, 9, 42, 0
9, 23610, Note_on_c, 9, 44, 47
9, 23639, Note_on_c, 9, 44, 0
9, 23640, Note_on_c, 9, 40, 124
9, 23640, Note_on_c, 9, 42, 90
9, 23669, Note_on_c, 9, 42, 0
9, 23669, Note_on_c, 9, 40, 0
9, 23670, Note_on_c, 9, 44, 62
9, 23699, Note_on_c, 9, 44, 0
9, 23700, Note_on_c, 9, 42, 76
9, 23729, Note_on_c, 9, 42, 0
9, 23730, Note_on_c, 9, 36, 109
9, 23730, Note_on_c, 9, 44, 55
9, 23759, Note_on_c, 9, 44, 0
9, 23759, Note_on_c, 9, 36, 0
9, 23760, Note_on_c, 9, 42, 87
9, 23760, Note_on_c, 9, 36, 111
9, 23789, Note_on_c, 9, 36, 0
9, 23789, Note_on_c, 9, 42, 0
9, 23790, Note_on_c, 9, 44, 54
9, 23819, Note_on_c, 9, 44, 0
9, 23820, Note_on_c, 9, 42, 80
9, 23849, Note_on_c, 9, 42, 0
9, 23850, Note_on_c, 9, 44, 62
9, 23879, Note_on_c, 9, 44, 0
9, 23880, Note_on_c, 9, 40, 127
9, 23880, Note_on_c, 9, 42, 99
9, 23909, Note_on_c, 9, 42, 0
9, 23909, Note_on_c, 9, 40, 0
9, 23910, Note_on_c, 9, 44, 74
9, 23939, Note_on_c, 9, 44, 0
9, 23940, Note_on_c, 9, 42, 90
9, 23969, Note_on_c, 9, 42, 0
9, 23970, Note_on_c, 9, 44, 74
9, 23999, Note_on_c, 9, 44, 0
9, 24000, Note_on_c, 9, 36, 111
9, 24000, Note_on_c, 9, 42, 103
9, 24000, Note_on_c, 9, 49, 112
9, 24029, Note_on_c, 9, 49, 0
9, 24029, Note_on_c, 9, 42, 0
9, 24029, Note_on_c, 9, 36, 0
9, 24030, Note_on_c, 9, 44, 70
9, 24059, Note_on_c, 9, 44, 0
9, 24060, Note_on_c, 9, 42, 56
9, 24089, Note_on_c, 9, 42, 0
9, 24090, Note_on_c, 9, 44, 66
9, 24119, Note_on_c, 9, 44, 0
9, 24120, Note_on_c, 9, 40, 127
9, 24120, Note_on_c, 9, 42, 96
9, 24149, Note_on_c, 9, 42, 0
9, 24149, Note_on_c, 9, 40, 0
9, 24150, Note_on_c, 9, 44, 61
9, 24179, Note_on_c, 9, 44, 0
9, 24180, Note_on_c, 9, 42, 93
9, 24209, Note_on_c, 9, 42, 0
9, 24210, Note_on_c, 9, 36, 102
9, 24210, Note_on_c, 9, 44, 64
9, 24239, Note_on_c, 9, 44, 0
9, 24239, Note_on_c, 9, 36, 0
9, 24240, Note_on_c, 9, 36, 104
9, 24240, Note_on_c, 9, 42, 99
9, 24269, Note_on_c, 9, 42, 0
9, 24269, Note_on_c, 9, 36, 0
9, 24270, Note_on_c, 9, 44, 61
9, 24299, Note_on_c, 9, 44, 0
9, 24300, Note_on_c, 9, 42, 76
9, 24329, Note_on_c, 9, 42, 0
9, 24330, Note_on_c, 9, 44, 69
9, 24359, Note_on_c, 9, 44, 0
9, 24360, Note_on_c, 9, 40, 120
9, 24360, Note_on_c, 9, 42, 93
9, 24389, Note_on_c, 9, 42, 0
9, 24389, Note_on_c, 9, 40, 0
9, 24390, Note_on_c, 9, 44, 67
9, 24419, Note_on_c, 9, 44, 0
9, 24420, Note_on_c, 9, 42, 90
9, 24449, Note_on_c, 9, 42, 0
9, 24450, Note_on_c, 9, 44, 67
9, 24479, Note_on_c, 9, 44, 0
9, 24480, Note_on_c, 9, 42, 93
9, 24480, Note_on_c, 9, 36, 109
9, 24509, Note_on_c, 9, 36, 0
9, 24509, Note_on_c, 9, 42, 0
9, 24510, Note_on_c, 9, 44, 53
9, 24539, Note_on_c, 9, 44, 0
9, 24540, Note_on_c, 9, 42, 90
9, 24569, Note_on_c, 9, 42, 0
9, 24570, Note_on_c, 9, 44, 56
9, 24599, Note_on_c, 9, 44, 0
9, 24600, Note_on_c, 9, 40, 127
9, 24600, Note_on_c, 9, 42, 90
9, 24629, Note_on_c, 9, 42, 0
9, 24629, Note_on_c, 9, 40, 0
9, 24630, Note_on_c, 9, 44, 54
9, 24659, Note_on_c, 9, 44, 0
9, 24660, Note_on_c, 9, 42, 96
9, 24689, Note_on_c, 9, 42, 0
9, 24690, Note_on_c, 9, 36, 106
9, 24690, Note_on_c, 9, 44, 66
9, 24719, Note_on_c, 9, 44, 0
9, 24719, Note_on_c, 9, 36, 0
9, 24720, Note_on_c, 9, 36, 104
9, 24720, Note_on_c, 9, 42, 90
9, 24749, Note_on_c, 9, 42, 0
9, 24749, Note_on_c, 9, 36, 0
9, 24750, Note_on_c, 9, 44, 66
9, 24779, Note_on_c, 9, 44, 0
9, 24780, Note_on_c, 9, 42, 82
9, 24809, Note_on_c, 9, 42, 0
9, 24810, Note_on_c, 9, 44, 70
9, 24839, Note_on_c, 9, 44, 0
9, 24840, Note_on_c, 9, 40, 127
9, 24840, Note_on_c, 9, 42, 93
9, 24869, Note_on_c, 9, 42, 0
9, 24869, Note_on_c, 9, 40, 0
9, 24870, Note_on_c, 9, 44, 57
9, 24899, Note_on_c, 9, 44, 0
9, 24900, Note_on_c, 9, 42, 93
9, 24929, Note_on_c, 9, 42, 0
9, 24930, Note_on_c, 9, 44, 67
9, 24959, Note_on_c, 9, 44, 0
9, 24960, Note_on_c, 9, 36, 117
9, 24960, Note_on_c, 9, 42, 90
9, 24989, Note_on_c, 9, 42, 0
9, 24989, Note_on_c, 9, 36, 0
9, 24990, Note_on_c, 9, 44, 69
9, 25019, Note_on_c, 9, 44, 0
9, 25020, Note_on_c, 9, 42, 93
9, 25049, Note_on_c, 9, 42, 0
9, 25050, Note_on_c, 9, 44, 64
9, 25079, Note_on_c, 9, 44, 0
9, 25080, Note_on_c, 9, 40, 127
9, 25080, Note_on_c, 9, 42, 96
9, 25109, Note_on_c, 9, 42, 0
9, 25109, Note_on_c, 9, 40, 0
9, 25110, Note_on_c, 9, 44, 54
9, 25139, Note_on_c, 9, 44, 0
9, 25140, Note_on_c, 9, 42, 82
9, 25169, Note_on_c, 9, 42, 0
9, 25170, Note_on_c, 9, 36, 96
9, 25170, Note_on_c, 9, 44, 69
9, 25199, Note_on_c, 9, 44, 0
9, 25199, Note_on_c, 9, 36, 0
9, 25200, Note_on_c, 9, 36, 111
9, 25200, Note_on_c, 9, 42, 90
9, 25229, Note_on_c, 9, 42, 0
9, 25229, Note_on_c, 9, 36, 0
9, 25230, Note_on_c, 9, 44, 63
9, 25259, Note_on_c, 9, 44, 0
9, 25260, Note_on_c, 9, 42, 80
9, 25289, Note_on_c, 9, 42, 0
9, 25290, Note_on_c, 9, 44, 55
9, 25319, Note_on_c, 9, 44, 0
9, 25320, Note_on_c, 9, 40, 120
9, 25320, Note_on_c, 9, 42, 87
9, 25349, Note_on_c, 9, 42, 0
9, 25349, Note_on_c, 9, 40, 0
9, 25350, Note_on_c, 9, 44, 57
9, 25379, Note_on_c, 9, 44, 0
9, 25380, Note_on_c, 9, 42, 82
9, 25409, Note_on_c, 9, 42, 0
9, 25410, Note_on_c, 9, 46, 90
9, 25439, Note_on_c, 9, 46, 0
9, 25440, Note_on_c, 9, 36, 124
9, 25440, Note_on_c, 9, 42, 103
9, 25469, Note_on_c, 9, 42, 0
9, 25469, Note_on_c, 9, 36, 0
9, 25470, Note_on_c, 9, 42, 66
9, 25499, Note_on_c, 9, 42, 0
9, 25500, Note_on_c, 9, 44, 84
9, 25529, Note_on_c, 9, 44, 0
9, 25530, Note_on_c, 9, 42, 64
9, 25559, Note_on_c, 9, 42, 0
9, 25560, Note_on_c, 9, 40, 124
9, 25560, Note_on_c, 9, 42, 90
9, 25589, Note_on_c, 9, 42, 0
9, 25589, Note_on_c, 9, 40, 0
9, 25590, Note_on_c, 9, 42, 67
9, 25619, Note_on_c, 9, 42, 0
9, 25620, Note_on_c, 9, 42, 84
9, 25649, Note_on_c, 9, 42, 0
9, 25650, Note_on_c, 9, 42, 54
9, 25650, Note_on_c, 9, 55, 124
9, 25650, Note_on_c, 9, 36, 111
9, 25679, Note_on_c, 9, 36, 0
9, 25679, Note_on_c, 9, 55, 0
9, 25679, Note_on_c, 9, 42, 0
9, 25680, Note_on_c, 9, 42, 99
9, 25709, Note_on_c, 9, 42, 0
9, 25710, Note_on_c, 9, 42, 74
9, 25739, Note_on_c, 9, 42, 0
9, 25740, Note_on_c, 9, 36, 111
9, 25740, Note_on_c, 9, 42, 90
9, 25769, Note_on_c, 9, 42, 0
9, 25769, Note_on_c, 9, 36, 0
9, 25770, Note_on_c, 9, 42, 78
9, 25799, Note_on_c, 9, 42, 0
9, 25800, Note_on_c, 9, 38, 109
9, 25800, Note_on_c, 9, 42, 99
9, 25829, Note_on_c, 9, 42, 0
9, 25829, Note_on_c, 9, 38, 0
9, 25830, Note_on_c, 9, 42, 87
9, 25859, Note_on_c, 9, 42, 0
9, 25860, Note_on_c, 9, 47, 99
9, 25860, Note_on_c, 9, 42, 103
9, 25889, Note_on_c, 9, 42, 0
9, 25889, Note_on_c, 9, 47, 0
9, 25890, Note_on_c, 9, 47, 127
9, 25919, Note_on_c, 9, 47, 0
9, 25920, Note_on_c, 9, 52, 123
9, 25920, Note_on_c, 9, 36, 120
9, 25920, Note_on_c, 9, 38, 117
9, 25949, Note_on_c, 9, 38, 0
9, 25949, Note_on_c, 9, 36, 0
9, 25949, Note_on_c, 9, 52, 0
9, 26010, Note_on_c, 9, 55, 123
9, 26010, Note_on_c, 9, 36, 124
9, 26010, Note_on_c, 9, 38, 117
9, 26039, Note_on_c, 9, 38, 0
9, 26039, Note_on_c, 9, 36, 0
9, 26039, Note_on_c, 9, 55, 0
9, 26130, Note_on_c, 9, 57, 123
9, 26130, Note_on_c, 9, 36, 124
9, 26130, Note_on_c, 9, 38, 127
9, 26159, Note_on_c, 9, 38, 0
9, 26159, Note_on_c, 9, 36, 0
9, 26159, Note_on_c, 9, 57, 0
9, 26220, Note_on_c, 9, 49, 123
9, 26220, Note_on_c, 9, 36, 127
9, 26220, Note_on_c, 9, 38, 120
9, 26249, Note_on_c, 9, 38, 0
9, 26249, Note_on_c, 9, 36, 0
9, 26249, Note_on_c, 9, 49, 0
9, 26310, Note_on_c, 9, 48, 86
9, 26339, Note_on_c, 9, 48, 0
9, 26340, Note_on_c, 9, 48, 106
9, 26340, Note_on_c, 9, 48, 111
9, 26369, Note_on_c, 9, 48, 0
9, 26369, Note_on_c, 9, 48, 0
9, 26400, Note_on_c, 9, 55, 123
9, 26400, Note_on_c, 9, 36, 117
9, 26400, Note_on_c, 9, 38, 124
9, 26429, Note_on_c, 9, 38, 0
9, 26429, Note_on_c, 9, 36, 0
9, 26429, Note_on_c, 9, 55, 0
9, 26490, Note_on_c, 9, 49, 123
9, 26490, Note_on_c, 9, 36, 114
9, 26490, Note_on_c, 9, 38, 114
9, 26519, Note_on_c, 9, 38, 0
9, 26519, Note_on_c, 9, 36, 0
9, 26519, Note_on_c, 9, 49, 0
9, 26580, Note_on_c, 9, 57, 123
9, 26580, Note_on_c, 9, 36, 111
9, 26580, Note_on_c, 9, 38, 111
9, 26609, Note_on_c, 9, 38, 0
9, 26609, Note_on_c, 9, 36, 0
9, 26609, Note_on_c, 9, 57, 0
9, 26670, Note_on_c, 9, 36, 120
9, 26670, Note_on_c, 9, 49, 117
9, 26670, Note_on_c, 9, 38, 127
9, 26699, Note_on_c, 9, 38, 0
9, 26699, Note_on_c, 9, 49, 0
9, 26699, Note_on_c, 9, 36, 0
9, 26790, Note_on_c, 9, 43, 124
9, 26819, Note_on_c, 9, 43, 0
9, 26820, Note_on_c, 9, 47, 117
9, 26849, Note_on_c, 9, 47, 0
9, 26850, Note_on_c, 9, 47, 127
9, 26879, Note_on_c, 9, 47, 0
9, 26880, Note_on_c, 9, 57, 100
9, 26880, Note_on_c, 9, 36, 109
9, 26880, Note_on_c, 9, 42, 103
9, 26894, Note_on_c, 9, 57, 0
9, 26909, Note_on_c, 9, 42, 0
9, 26909, Note_on_c, 9, 36, 0
9, 26910, Note_on_c, 9, 44, 41
9, 26939, Note_on_c, 9, 44, 0
9, 26940, Note_on_c, 9, 42, 84
9, 26969, Note_on_c, 9, 42, 0
9, 26970, Note_on_c, 9, 44, 47
9, 26999, Note_on_c, 9, 44, 0
9, 27000, Note_on_c, 9, 40, 117
9, 27000, Note_on_c, 9, 42, 93
9, 27029, Note_on_c, 9, 42, 0
9, 27029, Note_on_c, 9, 40, 0
9, 27030, Note_on_c, 9, 44, 49
9, 27059, Note_on_c, 9, 44, 0
9, 27060, Note_on_c, 9, 42, 78
9, 27089, Note_on_c, 9, 42, 0
9, 27090, Note_on_c, 9, 36, 92
9, 27090, Note_on_c, 9, 44, 53
9, 27119, Note_on_c, 9, 44, 0
9, 27119, Note_on_c, 9, 36, 0
9, 27120, Note_on_c, 9, 36, 111
9, 27120, Note_on_c, 9, 42, 87
9, 27149, Note_on_c, 9, 42, 0
9, 27149, Note_on_c, 9, 36, 0
9, 27150, Note_on_c, 9, 44, 53
9, 27179, Note_on_c, 9, 44, 0
9, 27180, Note_on_c, 9, 42, 78
9, 27209, Note_on_c, 9, 42, 0
9, 27210, Note_on_c, 9, 44, 52
9, 27239, Note_on_c, 9, 44, 0
9, 27240, Note_on_c, 9, 40, 127
9, 27240, Note_on_c, 9, 42, 84
9, 27269, Note_on_c, 9, 42, 0
9, 27269, Note_on_c, 9, 40, 0
9, 27270, Note_on_c, 9, 44, 48
9, 27299, Note_on_c, 9, 44, 0
9, 27300, Note_on_c, 9, 42, 67
9, 27329, Note_on_c, 9, 42, 0
9, 27330, Note_on_c, 9, 44, 56
9, 27359, Note_on_c, 9, 44, 0
9, 27360, Note_on_c, 9, 36, 124
9, 27360, Note_on_c, 9, 42, 74
9, 27389, Note_on_c, 9, 42, 0
9, 27389, Note_on_c, 9, 36, 0
9, 27390, Note_on_c, 9, 44, 45
9, 27419, Note_on_c, 9, 44, 0
9, 27420, Note_on_c, 9, 42, 87
9, 27449, Note_on_c, 9, 42, 0
9, 27450, Note_on_c, 9, 44, 40
9, 27479, Note_on_c, 9, 44, 0
9, 27480, Note_on_c, 9, 42, 87
9, 27480, Note_on_c, 9, 40, 127
9, 27509, Note_on_c, 9, 40, 0
9, 27509, Note_on_c, 9, 42, 0
9, 27510, Note_on_c, 9, 44, 53
9, 27539, Note_on_c, 9, 44, 0
9, 27540, Note_on_c, 9, 42, 87
9, 27569, Note_on_c, 9, 42, 0
9, 27570, Note_on_c, 9, 36, 111
9, 27570, Note_on_c, 9, 44, 61
9, 27599, Note_on_c, 9, 44, 0
9, 27599, Note_on_c, 9, 36, 0
9, 27600, Note_on_c, 9, 36, 117
9, 27600, Note_on_c, 9, 42, 93
9, 27629, Note_on_c, 9, 42, 0
9, 27629, Note_on_c, 9, 36, 0
9, 27630, Note_on_c, 9, 44, 62
9, 27659, Note_on_c, 9, 44, 0
9, 27660, Note_on_c, 9, 42, 84
9, 27689, Note_on_c, 9, 42, 0
9, 27690, Note_on_c, 9, 44, 54
9, 27719, Note_on_c, 9, 44, 0
9, 27720, Note_on_c, 9, 40, 124
9, 27720, Note_on_c, 9, 42, 84
9, 27749, Note_on_c, 9, 42, 0
9, 27749, Note_on_c, 9, 40, 0
9, 27750, Note_on_c, 9, 44, 57
9, 27779, Note_on_c, 9, 44, 0
9, 27780, Note_on_c, 9, 42, 70
9, 27809, Note_on_c, 9, 42, 0
9, 27810, Note_on_c, 9, 44, 55
9, 27839, Note_on_c, 9, 44, 0
9, 27840, Note_on_c, 9, 42, 80
9, 27840, Note_on_c, 9, 36, 127
9, 27869, Note_on_c, 9, 36, 0
9, 27869, Note_on_c, 9, 42, 0
9, 27870, Note_on_c, 9, 44, 63
9, 27899, Note_on_c, 9, 44, 0
9, 27900, Note_on_c, 9, 42, 78
9, 27929, Note_on_c, 9, 42, 0
9, 27930, Note_on_c, 9, 44, 26
9, 27959, Note_on_c, 9, 44, 0
9, 27960, Note_on_c, 9, 40, 127
9, 27960, Note_on_c, 9, 42, 82
9, 27989, Note_on_c, 9, 42, 0
9, 27989, Note_on_c, 9, 40, 0
9, 27990, Note_on_c, 9, 44, 56
9, 28019, Note_on_c, 9, 44, 0
9, 28020, Note_on_c, 9, 42, 69
9, 28049, Note_on_c, 9, 42, 0
9, 28050, Note_on_c, 9, 36, 102
9, 28050, Note_on_c, 9, 44, 48
9, 28079, Note_on_c, 9, 44, 0
9, 28079, Note_on_c, 9, 36, 0
9, 28080, Note_on_c, 9, 36, 114
9, 28080, Note_on_c, 9, 42, 90
9, 28109, Note_on_c, 9, 42, 0
9, 28109, Note_on_c, 9, 36, 0
9, 28110, Note_on_c, 9, 44, 64
9, 28139, Note_on_c, 9, 44, 0
9, 28140, Note_on_c, 9, 42, 69
9, 28169, Note_on_c, 9, 42, 0
9, 28170, Note_on_c, 9, 44, 42
9, 28199, Note_on_c, 9, 44, 0
9, 28200, Note_on_c, 9, 42, 87
9, 28200, Note_on_c, 9, 40, 127
9, 28229, Note_on_c, 9, 40, 0
9, 28229, Note_on_c, 9, 42, 0
9, 28230, Note_on_c, 9, 44, 52
9, 28259, Note_on_c, 9, 44, 0
9, 28260, Note_on_c, 9, 42, 82
9, 28289, Note_on_c, 9, 42, 0
9, 28290, Note_on_c, 9, 44, 44
9, 28319, Note_on_c, 9, 44, 0
9, 28320, Note_on_c, 9, 36, 111
9, 28320, Note_on_c, 9, 42, 84
9, 28349, Note_on_c, 9, 42, 0
9, 28349, Note_on_c, 9, 36, 0
9, 28350, Note_on_c, 9, 44, 49
9, 28379, Note_on_c, 9, 44, 0
9, 28380, Note_on_c, 9, 42, 63
9, 28409, Note_on_c, 9, 42, 0
9, 28410, Note_on_c, 9, 44, 49
9, 28439, Note_on_c, 9, 44, 0
9, 28440, Note_on_c, 9, 40, 127
9, 28440, Note_on_c, 9, 42, 87
9, 28469, Note_on_c, 9, 42, 0
9, 28469, Note_on_c, 9, 40, 0
9, 28470, Note_on_c, 9, 44, 45
9, 28499, Note_on_c, 9, 44, 0
9, 28500, Note_on_c, 9, 42, 69
9, 28529, Note_on_c, 9, 42, 0
9, 28530, Note_on_c, 9, 36, 124
9, 28530, Note_on_c, 9, 49, 127
9, 28530, Note_on_c, 9, 44, 58
9, 28559, Note_on_c, 9, 44, 0
9, 28559, Note_on_c, 9, 49, 0
9, 28560, Note_on_c, 9, 42, 84
9, 28589, Note_on_c, 9, 42, 0
9, 28590, Note_on_c, 9, 44, 47
9, 28619, Note_on_c, 9, 44, 0
9, 28620, Note_on_c, 9, 42, 84
9, 28649, Note_on_c, 9, 42, 0
9, 28649, Note_on_c, 9, 36, 0
9, 28650, Note_on_c, 9, 44, 44
9, 28679, Note_on_c, 9, 44, 0
9, 28680, Note_on_c, 9, 42, 84
9, 28709, Note_on_c, 9, 42, 0
9, 28710, Note_on_c, 9, 44, 47
9, 28739, Note_on_c, 9, 44, 0
9, 28740, Note_on_c, 9, 42, 96
9, 28740, Note_on_c, 9, 36, 117
9, 28740, Note_on_c, 9, 57, 127
9, 28769, Note_on_c, 9, 57, 0
9, 28769, Note_on_c, 9, 42, 0
9, 28800, Note_on_c, 9, 51, 117
9, 28829, Note_on_c, 9, 51, 0
9, 28829, Note_on_c, 9, 36, 0
9, 28920, Note_on_c, 9, 51, 93
9, 28949, Note_on_c, 9, 51, 0
9, 29010, Note_on_c, 9, 51, 54
9, 29039, Note_on_c, 9, 51, 0
9, 29040, Note_on_c, 9, 51, 90
9, 29069, Note_on_c, 9, 51, 0
9, 29070, Note_on_c, 9, 45, 104
9, 29099, Note_on_c, 9, 45, 0
9, 29130, Note_on_c, 9, 51, 70
9, 29159, Note_on_c, 9, 51, 0
9, 29160, Note_on_c, 9, 48, 104
9, 29160, Note_on_c, 9, 51, 103
9, 29189, Note_on_c, 9, 51, 0
9, 29189, Note_on_c, 9, 48, 0
9, 29190, Note_on_c, 9, 48, 104
9, 29219, Note_on_c, 9, 48, 0
9, 29220, Note_on_c, 9, 45, 127
9, 29249, Note_on_c, 9, 45, 0
9, 29250, Note_on_c, 9, 45, 127
9, 29250, Note_on_c, 9, 51, 67
9, 29279, Note_on_c, 9, 51, 0
9, 29279, Note_on_c, 9, 45, 0
9, 29280, Note_on_c, 9, 57, 123
9, 29280, Note_on_c, 9, 36, 124
9, 29280, Note_on_c, 9, 42, 112
9, 29309, Note_on_c, 9, 42, 0
9, 29309, Note_on_c, 9, 36, 0
9, 29309, Note_on_c, 9, 57, 0
9, 29310, Note_on_c, 9, 44, 49
9, 29339, Note_on_c, 9, 44, 0
9, 29340, Note_on_c, 9, 42, 87
9, 29369, Note_on_c, 9, 42, 0
9, 29370, Note_on_c, 9, 44, 54
9, 29399, Note_on_c, 9, 44, 0
9, 29400, Note_on_c, 9, 40, 127
9, 29400, Note_on_c, 9, 42, 103
9, 29429, Note_on_c, 9, 42, 0
9, 29429, Note_on_c, 9, 40, 0
9, 29430, Note_on_c, 9, 44, 61
9, 29459, Note_on_c, 9, 44, 0
9, 29460, Note_on_c, 9, 42, 93
9, 29489, Note_on_c, 9, 42, 0
9, 29490, Note_on_c, 9, 36, 124
9, 29490, Note_on_c, 9, 44, 53
9, 29519, Note_on_c, 9, 44, 0
9, 29519, Note_on_c, 9, 36, 0
9, 29520, Note_on_c, 9, 36, 124
9, 29520, Note_on_c, 9, 42, 112
9, 29549, Note_on_c, 9, 42, 0
9, 29549, Note_on_c, 9, 36, 0
9, 29550, Note_on_c, 9, 44, 61
9, 29579, Note_on_c, 9, 44, 0
9, 29580, Note_on_c, 9, 42, 96
9, 29609, Note_on_c, 9, 42, 0
9, 29610, Note_on_c, 9, 44, 62
9, 29639, Note_on_c, 9, 44, 0
9, 29640, Note_on_c, 9, 40, 127
9, 29640, Note_on_c, 9, 42, 93
9, 29669, Note_on_c, 9, 42, 0
9, 29669, Note_on_c, 9, 40, 0
9, 29670, Note_on_c, 9, 44, 56
9, 29699, Note_on_c, 9, 44, 0
9, 29700, Note_on_c, 9, 42, 90
9, 29729, Note_on_c, 9, 42, 0
9, 29730, Note_on_c, 9, 44, 61
9, 29759, Note_on_c, 9, 44, 0
9, 29760, Note_on_c, 9, 36, 124
9, 29760, Note_on_c, 9, 42, 96
9, 29789, Note_on_c, 9, 42, 0
9, 29789, Note_on_c, 9, 36, 0
9, 29790, Note_on_c, 9, 44, 64
9, 29819, Note_on_c, 9, 44, 0
9, 29820, Note_on_c, 9, 42, 84
9, 29849, Note_on_c, 9, 42, 0
9, 29850, Note_on_c, 9, 44, 54
9, 29879, Note_on_c, 9, 44, 0
9, 29880, Note_on_c, 9, 40, 127
9, 29880, Note_on_c, 9, 42, 99
9, 29909, Note_on_c, 9, 42, 0
9, 29909, Note_on_c, 9, 40, 0
9, 29910, Note_on_c, 9, 44, 57
9, 29939, Note_on_c, 9, 44, 0
9, 29940, Note_on_c, 9, 42, 90
9, 29969, Note_on_c, 9, 42, 0
9, 29970, Note_on_c, 9, 36, 127
9, 29970, Note_on_c, 9, 44, 62
9, 29999, Note_on_c, 9, 44, 0
9, 29999, Note_on_c, 9, 36, 0
9, 30000, Note_on_c, 9, 36, 124
9, 30000, Note_on_c, 9, 42, 93
9, 30029, Note_on_c, 9, 42, 0
9, 30029, Note_on_c, 9, 36, 0
9, 30030, Note_on_c, 9, 44, 47
9, 30059, Note_on_c, 9, 44, 0
9, 30060, Note_on_c, 9, 42, 90
9, 30089, Note_on_c, 9, 42, 0
9, 30090, Note_on_c, 9, 44, 54
9, 30119, Note_on_c, 9, 44, 0
9, 30120, Note_on_c, 9, 40, 127
9, 30120, Note_on_c, 9, 42, 90
9, 30149, Note_on_c, 9, 42, 0
9, 30149, Note_on_c, 9, 40, 0
9, 30150, Note_on_c, 9, 44, 49
9, 30179, Note_on_c, 9, 44, 0
9, 30180, Note_on_c, 9, 42, 78
9, 30209, Note_on_c, 9, 42, 0
9, 30210, Note_on_c, 9, 44, 52
9, 30239, Note_on_c, 9, 44, 0
9, 30240, Note_on_c, 9, 36, 117
9, 30240, Note_on_c, 9, 42, 82
9, 30269, Note_on_c, 9, 42, 0
9, 30269, Note_on_c, 9, 36, 0
9, 30270, Note_on_c, 9, 44, 54
9, 30299, Note_on_c, 9, 44, 0
9, 30300, Note_on_c, 9, 42, 51
9, 30329, Note_on_c, 9, 42, 0
9, 30330, Note_on_c, 9, 44, 58
9, 30359, Note_on_c, 9, 44, 0
9, 30360, Note_on_c, 9, 40, 127
9, 30360, Note_on_c, 9, 42, 90
9, 30389, Note_on_c, 9, 42, 0
9, 30389, Note_on_c, 9, 40, 0
9, 30390, Note_on_c, 9, 36, 124
9, 30390, Note_on_c, 9, 44, 61
9, 30419, Note_on_c, 9, 44, 0
9, 30419, Note_on_c, 9, 36, 0
9, 30420, Note_on_c, 9, 42, 76
9, 30449, Note_on_c, 9, 42, 0
9, 30450, Note_on_c, 9, 36, 114
9, 30450, Note_on_c, 9, 44, 58
9, 30479, Note_on_c, 9, 44, 0
9, 30479, Note_on_c, 9, 36, 0
9, 30480, Note_on_c, 9, 42, 90
9, 30509, Note_on_c, 9, 42, 0
9, 30510, Note_on_c, 9, 44, 54
9, 30539, Note_on_c, 9, 44, 0
9, 30540, Note_on_c, 9, 42, 80
9, 30569, Note_on_c, 9, 42, 0
9, 30570, Note_on_c, 9, 44, 63
9, 30599, Note_on_c, 9, 44, 0
9, 30600, Note_on_c, 9, 42, 93
9, 30600, Note_on_c, 9, 40, 127
9, 30629, Note_on_c, 9, 40, 0
9, 30629, Note_on_c, 9, 42, 0
9, 30630, Note_on_c, 9, 44, 54
9, 30659, Note_on_c, 9, 44, 0
9, 30660, Note_on_c, 9, 42, 90
9, 30689, Note_on_c, 9, 42, 0
9, 30690, Note_on_c, 9, 46, 93
9, 30719, Note_on_c, 9, 46, 0
9, 30720, Note_on_c, 9, 36, 117
9, 30720, Note_on_c, 9, 42, 103
9, 30749, Note_on_c, 9, 42, 0
9, 30749, Note_on_c, 9, 36, 0
9, 30750, Note_on_c, 9, 44, 62
9, 30779, Note_on_c, 9, 44, 0
9, 30780, Note_on_c, 9, 42, 82
9, 30809, Note_on_c, 9, 42, 0
9, 30810, Note_on_c, 9, 44, 60
9, 30839, Note_on_c, 9, 44, 0
9, 30840, Note_on_c, 9, 40, 127
9, 30840, Note_on_c, 9, 42, 93
9, 30869, Note_on_c, 9, 42, 0
9, 30869, Note_on_c, 9, 40, 0
9, 30870, Note_on_c, 9, 44, 63
9, 30899, Note_on_c, 9, 44, 0
9, 30900, Note_on_c, 9, 42, 82
9, 30929, Note_on_c, 9, 42, 0
9, 30930, Note_on_c, 9, 36, 109
9, 30930, Note_on_c, 9, 44, 62
9, 30959, Note_on_c, 9, 44, 0
9, 30959, Note_on_c, 9, 36, 0
9, 30960, Note_on_c, 9, 36, 96
9, 30960, Note_on_c, 9, 42, 96
9, 30989, Note_on_c, 9, 42, 0
9, 30989, Note_on_c, 9, 36, 0
9, 30990, Note_on_c, 9, 44, 57
9, 31019, Note_on_c, 9, 44, 0
9, 31020, Note_on_c, 9, 42, 78
9, 31049, Note_on_c, 9, 42, 0
9, 31050, Note_on_c, 9, 44, 66
9, 31079, Note_on_c, 9, 44, 0
9, 31080, Note_on_c, 9, 40, 127
9, 31080, Note_on_c, 9, 42, 90
9, 31109, Note_on_c, 9, 42, 0
9, 31109, Note_on_c, 9, 40, 0
9, 31110, Note_on_c, 9, 44, 58
9, 31139, Note_on_c, 9, 44, 0
9, 31140, Note_on_c, 9, 42, 72
9, 31169, Note_on_c, 9, 42, 0
9, 31170, Note_on_c, 9, 44, 55
9, 31199, Note_on_c, 9, 44, 0
9, 31200, Note_on_c, 9, 36, 109
9, 31200, Note_on_c, 9, 42, 93
9, 31229, Note_on_c, 9, 42, 0
9, 31229, Note_on_c, 9, 36, 0
9, 31230, Note_on_c, 9, 44, 56
9, 31259, Note_on_c, 9, 44, 0
9, 31260, Note_on_c, 9, 42, 66
9, 31289, Note_on_c, 9, 42, 0
9, 31290, Note_on_c, 9, 44, 54
9, 31319, Note_on_c, 9, 44, 0
9, 31320, Note_on_c, 9, 40, 127
9, 31320, Note_on_c, 9, 42, 93
9, 31349, Note_on_c, 9, 42, 0
9, 31349, Note_on_c, 9, 40, 0
9, 31350, Note_on_c, 9, 44, 49
9, 31379, Note_on_c, 9, 44, 0
9, 31380, Note_on_c, 9, 42, 84
9, 31409, Note_on_c, 9, 42, 0
9, 31410, Note_on_c, 9, 36, 104
9, 31410, Note_on_c, 9, 44, 54
9, 31439, Note_on_c, 9, 44, 0
9, 31439, Note_on_c, 9, 36, 0
9, 31440, Note_on_c, 9, 36, 117
9, 31440, Note_on_c, 9, 42, 82
9, 31469, Note_on_c, 9, 42, 0
9, 31469, Note_on_c, 9, 36, 0
9, 31470, Note_on_c, 9, 44, 35
9, 31499, Note_on_c, 9, 44, 0
9, 31500, Note_on_c, 9, 42, 80
9, 31529, Note_on_c, 9, 42, 0
9, 31530, Note_on_c, 9, 44, 47
9, 31559, Note_on_c, 9, 44, 0
9, 31560, Note_on_c, 9, 40, 127
9, 31560, Note_on_c, 9, 42, 93
9, 31589, Note_on_c, 9, 42, 0
9, 31589, Note_on_c, 9, 40, 0
9, 31590, Note_on_c, 9, 44, 64
9, 31619, Note_on_c, 9, 44, 0
9, 31620, Note_on_c, 9, 42, 80
9, 31649, Note_on_c, 9, 42, 0
9, 31650, Note_on_c, 9, 44, 56
9, 31679, Note_on_c, 9, 44, 0
9, 31680, Note_on_c, 9, 36, 117
9, 31680, Note_on_c, 9, 42, 93
9, 31709, Note_on_c, 9, 42, 0
9, 31709, Note_on_c, 9, 36, 0
9, 31710, Note_on_c, 9, 44, 49
9, 31739, Note_on_c, 9, 44, 0
9, 31740, Note_on_c, 9, 42, 82
9, 31769, Note_on_c, 9, 42, 0
9, 31770, Note_on_c, 9, 44, 55
9, 31799, Note_on_c, 9, 44, 0
9, 31800, Note_on_c, 9, 40, 120
9, 31800, Note_on_c, 9, 42, 96
9, 31829, Note_on_c, 9, 42, 0
9, 31829, Note_on_c, 9, 40, 0
9, 31830, Note_on_c, 9, 36, 120
9, 31830, Note_on_c, 9, 44, 57
9, 31859, Note_on_c, 9, 44, 0
9, 31859, Note_on_c, 9, 36, 0
9, 31860, Note_on_c, 9, 42, 93
9, 31889, Note_on_c, 9, 42, 0
9, 31890, Note_on_c, 9, 36, 120
9, 31890, Note_on_c, 9, 44, 54
9, 31919, Note_on_c, 9, 44, 0
9, 31919, Note_on_c, 9, 36, 0
9, 31920, Note_on_c, 9, 42, 82
9, 31949, Note_on_c, 9, 42, 0
9, 31950, Note_on_c, 9, 44, 58
9, 31979, Note_on_c, 9, 44, 0
9, 31980, Note_on_c, 9, 42, 84
9, 32009, Note_on_c, 9, 42, 0
9, 32010, Note_on_c, 9, 43, 117
9, 32010, Note_on_c, 9, 44, 64
9, 32039, Note_on_c, 9, 44, 0
9, 32039, Note_on_c, 9, 43, 0
9, 32040, Note_on_c, 9, 45, 127
9, 32040, Note_on_c, 9, 40, 127
9, 32040, Note_on_c, 9, 42, 93
9, 32069, Note_on_c, 9, 42, 0
9, 32069, Note_on_c, 9, 40, 0
9, 32069, Note_on_c, 9, 45, 0
9, 32070, Note_on_c, 9, 44, 54
9, 32099, Note_on_c, 9, 44, 0
9, 32100, Note_on_c, 9, 42, 84
9, 32129, Note_on_c, 9, 42, 0
9, 32130, Note_on_c, 9, 46, 84
9, 32159, Note_on_c, 9, 46, 0
9, 32160, Note_on_c, 9, 36, 124
9, 32160, Note_on_c, 9, 42, 112
9, 32189, Note_on_c, 9, 42, 0
9, 32189, Note_on_c, 9, 36, 0
9, 32190, Note_on_c, 9, 44, 49
9, 32219, Note_on_c, 9, 44, 0
9, 32220, Note_on_c, 9, 42, 87
9, 32249, Note_on_c, 9, 42, 0
9, 32250, Note_on_c, 9, 44, 54
9, 32279, Note_on_c, 9, 44, 0
9, 32280, Note_on_c, 9, 40, 127
9, 32280, Note_on_c, 9, 42, 103
9, 32309, Note_on_c, 9, 42, 0
9, 32309, Note_on_c, 9, 40, 0
9, 32310, Note_on_c, 9, 44, 61
9, 32339, Note_on_c, 9, 44, 0
9, 32340, Note_on_c, 9, 42, 93
9, 32369, Note_on_c, 9, 42, 0
9, 32370, Note_on_c, 9, 36, 124
9, 32370, Note_on_c, 9, 44, 53
9, 32399, Note_on_c, 9, 44, 0
9, 32399, Note_on_c, 9, 36, 0
9, 32400, Note_on_c, 9, 36, 124
9, 32400, Note_on_c, 9, 42, 112
9, 32429, Note_on_c, 9, 42, 0
9, 32429, Note_on_c, 9, 36, 0
9, 32430, Note_on_c, 9, 44, 61
9, 32459, Note_on_c, 9, 44, 0
9, 32460, Note_on_c, 9, 42, 96
9, 32489, Note_on_c, 9, 42, 0
9, 32490, Note_on_c, 9, 44, 62
9, 32519, Note_on_c, 9, 44, 0
9, 32520, Note_on_c, 9, 40, 127
9, 32520, Note_on_c, 9, 42, 93
9, 32549, Note_on_c, 9, 42, 0
9, 32549, Note_on_c, 9, 40, 0
9, 32550, Note_on_c, 9, 44, 56
9, 32579, Note_on_c, 9, 44, 0
9, 32580, Note_on_c, 9, 42, 90
9, 32609, Note_on_c, 9, 42, 0
9, 32610, Note_on_c, 9, 44, 61
9, 32639, Note_on_c, 9, 44, 0
9, 32640, Note_on_c, 9, 36, 124
9, 32640, Note_on_c, 9, 42, 96
9, 32669, Note_on_c, 9, 42, 0
9, 32669, Note_on_c, 9, 36, 0
9, 32670, Note_on_c, 9, 44, 64
9, 32699, Note_on_c, 9, 44, 0
9, 32700, Note_on_c, 9, 42, 84
9, 32729, Note_on_c, 9, 42, 0
9, 32730, Note_on_c, 9, 44, 54
9, 32759, Note_on_c, 9, 44, 0
9, 32760, Note_on_c, 9, 40, 127
9, 32760, Note_on_c, 9, 42, 99
9, 32789, Note_on_c, 9, 42, 0
9, 32789, Note_on_c, 9, 40, 0
9, 32790, Note_on_c, 9, 44, 57
9, 32819, Note_on_c, 9, 44, 0
9, 32820, Note_on_c, 9, 42, 90
9, 32849, Note_on_c, 9, 42, 0
9, 32850, Note_on_c, 9, 36, 127
9, 32850, Note_on_c, 9, 44, 62
9, 32879, Note_on_c, 9, 44, 0
9, 32879, Note_on_c, 9, 36, 0
9, 32880, Note_on_c, 9, 36, 124
9, 32880, Note_on_c, 9, 42, 93
9, 32909, Note_on_c, 9, 42, 0
9, 32909, Note_on_c, 9, 36, 0
9, 32910, Note_on_c, 9, 44, 47
9, 32939, Note_on_c, 9, 44, 0
9, 32940, Note_on_c, 9, 42, 90
9, 32969, Note_on_c, 9, 42, 0
9, 32970, Note_on_c, 9, 44, 54
9, 32999, Note_on_c, 9, 44, 0
9, 33000, Note_on_c, 9, 40, 127
9, 33000, Note_on_c, 9, 42, 90
9, 33029, Note_on_c, 9, 42, 0
9, 33029, Note_on_c, 9, 40, 0
9, 33030, Note_on_c, 9, 44, 49
9, 33059, Note_on_c, 9, 44, 0
9, 33060, Note_on_c, 9, 42, 78
9, 33089, Note_on_c, 9, 42, 0
9, 33090, Note_on_c, 9, 44, 52
9, 33119, Note_on_c, 9, 44, 0
9, 33120, Note_on_c, 9, 36, 117
9, 33120, Note_on_c, 9, 42, 82
9, 33149, Note_on_c, 9, 42, 0
9, 33149, Note_on_c, 9, 36, 0
9, 33150, Note_on_c, 9, 44, 54
9, 33179, Note_on_c, 9, 44, 0
9, 33180, Note_on_c, 9, 42, 51
9, 33209, Note_on_c, 9, 42, 0
9, 33210, Note_on_c, 9, 44, 58
9, 33239, Note_on_c, 9, 44, 0
9, 33240, Note_on_c, 9, 40, 127
9, 33240, Note_on_c, 9, 42, 90
9, 33269, Note_on_c, 9, 42, 0
9, 33269, Note_on_c, 9, 40, 0
9, 33270, Note_on_c, 9, 36, 124
9, 33270, Note_on_c, 9, 44, 61
9, 33299, Note_on_c, 9, 44, 0
9, 33299, Note_on_c, 9, 36, 0
9, 33300, Note_on_c, 9, 42, 76
9, 33329, Note_on_c, 9, 42, 0
9, 33330, Note_on_c, 9, 36, 114
9, 33330, Note_on_c, 9, 44, 58
9, 33359, Note_on_c, 9, 44, 0
9, 33359, Note_on_c, 9, 36, 0
9, 33360, Note_on_c, 9, 42, 90
9, 33389, Note_on_c, 9, 42, 0
9, 33390, Note_on_c, 9, 44, 54
9, 33419, Note_on_c, 9, 44, 0
9, 33420, Note_on_c, 9, 42, 80
9, 33449, Note_on_c, 9, 42, 0
9, 33450, Note_on_c, 9, 44, 63
9, 33479, Note_on_c, 9, 44, 0
9, 33480, Note_on_c, 9, 42, 93
9, 33480, Note_on_c, 9, 40, 127
9, 33509, Note_on_c, 9, 40, 0
9, 33509, Note_on_c, 9, 42, 0
9, 33510, Note_on_c, 9, 44, 54
9, 33539, Note_on_c, 9, 44, 0
9, 33540, Note_on_c, 9, 42, 90
9, 33569, Note_on_c, 9, 42, 0
9, 33570, Note_on_c, 9, 46, 93
9, 33599, Note_on_c, 9, 46, 0
9, 33600, Note_on_c, 9, 36, 117
9, 33600, Note_on_c, 9, 42, 103
9, 33629, Note_on_c, 9, 42, 0
9, 33629, Note_on_c, 9, 36, 0
9, 33630, Note_on_c, 9, 44, 62
9, 33645, Control_c, 9, 7, 90
9, 33659, Note_on_c, 9, 44, 0
9, 33660, Note_on_c, 9, 42, 82
9, 33689, Note_on_c, 9, 42, 0
9, 33690, Note_on_c, 9, 44, 60
9, 33719, Note_on_c, 9, 44, 0
9, 33720, Note_on_c, 9, 40, 127
9, 33720, Note_on_c, 9, 42, 93
9, 33720, Control_c, 9, 7, 91
9, 33735, Control_c, 9, 7, 90
9, 33745, Control_c, 9, 7, 89
9, 33749, Note_on_c, 9, 42, 0
9, 33749, Note_on_c, 9, 40, 0
9, 33750, Note_on_c, 9, 44, 63
9, 33755, Control_c, 9, 7, 88
9, 33760, Control_c, 9, 7, 87
9, 33770, Control_c, 9, 7, 86
9, 33779, Note_on_c, 9, 44, 0
9, 33780, Note_on_c, 9, 42, 82
9, 33780, Control_c, 9, 7, 85
9, 33780, Control_c, 9, 7, 84
9, 33809, Note_on_c, 9, 42, 0
9, 33810, Note_on_c, 9, 36, 109
9, 33810, Note_on_c, 9, 44, 62
9, 33810, Control_c, 9, 7, 83
9, 33825, Control_c, 9, 7, 82
9, 33825, Control_c, 9, 7, 81
9, 33839, Note_on_c, 9, 44, 0
9, 33839, Note_on_c, 9, 36, 0
9, 33840, Note_on_c, 9, 36, 96
9, 33840, Note_on_c, 9, 42, 96
9, 33840, Control_c, 9, 7, 80
9, 33840, Control_c, 9, 7, 79
9, 33860, Control_c, 9, 7, 78
9, 33869, Note_on_c, 9, 42, 0
9, 33869, Note_on_c, 9, 36, 0
9, 33870, Note_on_c, 9, 44, 57
9, 33875, Control_c, 9, 7, 77
9, 33899, Note_on_c, 9, 44, 0
9, 33900, Note_on_c, 9, 42, 78
9, 33915, Control_c, 9, 7, 76
9, 33920, Control_c, 9, 7, 75
9, 33920, Control_c, 9, 7, 74
9, 33929, Note_on_c, 9, 42, 0
9, 33930, Note_on_c, 9, 44, 66
9, 33945, Control_c, 9, 7, 73
9, 33945, Control_c, 9, 7, 72
9, 33950, Control_c, 9, 7, 71
9, 33955, Control_c, 9, 7, 70
9, 33959, Note_on_c, 9, 44, 0
9, 33960, Note_on_c, 9, 40, 127
9, 33960, Note_on_c, 9, 42, 90
9, 33960, Control_c, 9, 7, 69
9, 33960, Control_c, 9, 7, 68
9, 33970, Control_c, 9, 7, 67
9, 33985, Control_c, 9, 7, 66
9, 33989, Note_on_c, 9, 42, 0
9, 33989, Note_on_c, 9, 40, 0
9, 33990, Note_on_c, 9, 44, 58
9, 33990, Control_c, 9, 7, 65
9, 33995, Control_c, 9, 7, 64
9, 34019, Note_on_c, 9, 44, 0
9, 34020, Note_on_c, 9, 42, 72
9, 34025, Control_c, 9, 7, 63
9, 34049, Note_on_c, 9, 42, 0
9, 34050, Note_on_c, 9, 44, 55
9, 34050, Control_c, 9, 7, 62
9, 34050, Control_c, 9, 7, 61
9, 34079, Note_on_c, 9, 44, 0
9, 34080, Note_on_c, 9, 36, 109
9, 34080, Note_on_c, 9, 42, 93
9, 34100, Control_c, 9, 7, 60
9, 34109, Note_on_c, 9, 42, 0
9, 34109, Note_on_c, 9, 36, 0
9, 34110, Note_on_c, 9, 44, 56
9, 34120, Control_c, 9, 7, 58
9, 34125, Control_c, 9, 7, 57
9, 34139, Note_on_c, 9, 44, 0
9, 34140, Note_on_c, 9, 42, 66
9, 34160, Control_c, 9, 7, 56
9, 34165, Control_c, 9, 7, 54
9, 34169, Note_on_c, 9, 42, 0
9, 34170, Note_on_c, 9, 44, 54
9, 34199, Note_on_c, 9, 44, 0
9, 34200, Note_on_c, 9, 40, 127
9, 34200, Note_on_c, 9, 42, 93
9, 34229, Note_on_c, 9, 42, 0
9, 34229, Note_on_c, 9, 40, 0
9, 34230, Note_on_c, 9, 44, 49
9, 34235, Control_c, 9, 7, 53
9, 34255, Control_c, 9, 7, 52
9, 34259, Note_on_c, 9, 44, 0
9, 34260, Note_on_c, 9, 42, 84
9, 34270, Control_c, 9, 7, 51
9, 34275, Control_c, 9, 7, 49
9, 34289, Note_on_c, 9, 42, 0
9, 34290, Note_on_c, 9, 36, 104
9, 34290, Note_on_c, 9, 44, 54
9, 34295, Control_c, 9, 7, 48
9, 34319, Note_on_c, 9, 44, 0
9, 34319, Note_on_c, 9, 36, 0
9, 34320, Note_on_c, 9, 36, 117
9, 34320, Note_on_c, 9, 42, 82
9, 34345, Control_c, 9, 7, 47
9, 34349, Note_on_c, 9, 42, 0
9, 34349, Note_on_c, 9, 36, 0
9, 34350, Note_on_c, 9, 44, 35
9, 34350, Control_c, 9, 7, 45
9, 34365, Control_c, 9, 7, 44
9, 34375, Control_c, 9, 7, 43
9, 34379, Note_on_c, 9, 44, 0
9, 34380, Note_on_c, 9, 42, 80
9, 34409, Note_on_c, 9, 42, 0
9, 34410, Note_on_c, 9, 44, 47
9, 34415, Control_c, 9, 7, 42
9, 34420, Control_c, 9, 7, 40
9, 34425, Control_c, 9, 7, 39
9, 34430, Control_c, 9, 7, 38
9, 34435, Control_c, 9, 7, 36
9, 34435, Control_c, 9, 7, 35
9, 34439, Note_on_c, 9, 44, 0
9, 34440, Note_on_c, 9, 40, 127
9, 34440, Note_on_c, 9, 42, 93
9, 34455, Control_c, 9, 7, 34
9, 34460, Control_c, 9, 7, 33
9, 34465, Control_c, 9, 7, 31
9, 34469, Note_on_c, 9, 42, 0
9, 34469, Note_on_c, 9, 40, 0
9, 34470, Note_on_c, 9, 44, 64
9, 34470, Control_c, 9, 7, 30
9, 34470, Control_c, 9, 7, 29
9, 34475, Control_c, 9, 7, 27
9, 34480, Control_c, 9, 7, 25
9, 34480, Control_c, 9, 7, 24
9, 34499, Note_on_c, 9, 44, 0
9, 34500, Note_on_c, 9, 42, 80
9, 34505, Control_c, 9, 7, 22
9, 34520, Control_c, 9, 7, 21
9, 34520, Control_c, 9, 7, 20
9, 34525, Control_c, 9, 7, 19
9, 34529, Note_on_c, 9, 42, 0
9, 34530, Note_on_c, 9, 44, 56
9, 34530, Control_c, 9, 7, 18
9, 34535, Control_c, 9, 7, 17
9, 34540, Control_c, 9, 7, 16
9, 34555, Control_c, 9, 7, 15
9, 34559, Note_on_c, 9, 44, 0
9, 34560, Note_on_c, 9, 36, 117
9, 34560, Note_on_c, 9, 42, 93
9, 34560, Control_c, 9, 7, 13
9, 34560, Control_c, 9, 7, 12
9, 34570, Control_c, 9, 7, 11
9, 34570, Control_c, 9, 7, 10
9, 34570, Control_c, 9, 7, 9
9, 34585, Control_c, 9, 7, 8
9, 34589, Note_on_c, 9, 42, 0
9, 34589, Note_on_c, 9, 36, 0
9, 34590, Note_on_c, 9, 44, 49
9, 34595, Control_c, 9, 7, 7
9, 34600, Control_c, 9, 7, 6
9, 34605, Control_c, 9, 7, 4
9, 34605, Control_c, 9, 7, 3
9, 34610, Control_c, 9, 7, 2
9, 34615, Control_c, 9, 7, 1
9, 34619, Note_on_c, 9, 44, 0
9, 34620, Note_on_c, 9, 42, 82
9, 34620, Control_c, 9, 7, 0
9, 34649, Note_on_c, 9, 42, 0
9, 34649, End_track
0, 0, End_of_file
