0, 0, Header, 1, 24, 120
1, 0, Start_track
1, 0, MIDI_port, 0
1, 0, System_exclusive, 5, 126, 127, 9, 1, 247
1, 0, MIDI_port, 0
1, 0, Time_signature, 4, 2, 24, 8
1, 0, Key_signature, 0, "major"
1, 0, Tempo, 582524
1, 6720, Marker_t, "2"
1, 12480, Marker_t, "BR"
1, 16800, Marker_t, "3"
1, 21600, Time_signature, 3, 2, 24, 8
1, 21960, Time_signature, 4, 2, 24, 8
1, 23400, Marker_t, "s"
1, 27720, Marker_t, "last"
1, 33000, Time_signature, 3, 2, 24, 8
1, 33360, Time_signature, 4, 2, 24, 8
1, 33360, Marker_t, "fin"
1, 33360, End_track
2, 0, Start_track
2, 0, MIDI_port, 0
2, 0, Program_c, 0, 34
2, 0, Control_c, 0, 7, 125
2, 0, Control_c, 0, 10, 64
2, 0, Control_c, 0, 1, 0
2, 20, Control_c, 0, 11, 64
2, 120, Control_c, 0, 65, 0
2, 120, Control_c, 0, 67, 0
2, 120, Control_c, 0, 93, 0
2, 120, Control_c, 0, 91, 64
2, 120, Control_c, 0, 64, 0
2, 120, Pitch_bend_c, 0, 8192
2, 120, Control_c, 0, 68, 0
2, 480, Note_on_c, 0, 32, 125
2, 960, Note_on_c, 0, 32, 0
2, 960, Note_on_c, 0, 29, 125
2, 1380, Note_on_c, 0, 29, 0
2, 1380, Pitch_bend_c, 0, 8192
2, 1380, Note_on_c, 0, 34, 125
2, 1381, Pitch_bend_c, 0, 8329
2, 1382, Pitch_bend_c, 0, 8466
2, 1383, Pitch_bend_c, 0, 8602
2, 1384, Pitch_bend_c, 0, 8739
2, 1385, Pitch_bend_c, 0, 8875
2, 1386, Pitch_bend_c, 0, 9012
2, 1387, Pitch_bend_c, 0, 9148
2, 1388, Pitch_bend_c, 0, 9285
2, 1389, Pitch_bend_c, 0, 9421
2, 1390, Pitch_bend_c, 0, 9558
2, 1391, Pitch_bend_c, 0, 9694
2, 1392, Pitch_bend_c, 0, 9831
2, 1393, Pitch_bend_c, 0, 9967
2, 1394, Pitch_bend_c, 0, 10104
2, 1395, Pitch_bend_c, 0, 10240
2, 1396, Pitch_bend_c, 0, 10377
2, 1397, Pitch_bend_c, 0, 10513
2, 1398, Pitch_bend_c, 0, 10650
2, 1399, Pitch_bend_c, 0, 10786
2, 1400, Pitch_bend_c, 0, 10923
2, 1401, Pitch_bend_c, 0, 11059
2, 1402, Pitch_bend_c, 0, 11196
2, 1403, Pitch_bend_c, 0, 11332
2, 1404, Pitch_bend_c, 0, 11469
2, 1405, Pitch_bend_c, 0, 11605
2, 1406, Pitch_bend_c, 0, 11742
2, 1407, Pitch_bend_c, 0, 11878
2, 1408, Pitch_bend_c, 0, 12015
2, 1409, Pitch_bend_c, 0, 12151
2, 1410, Pitch_bend_c, 0, 12288
2, 1411, Pitch_bend_c, 0, 12425
2, 1412, Pitch_bend_c, 0, 12561
2, 1413, Pitch_bend_c, 0, 12698
2, 1414, Pitch_bend_c, 0, 12834
2, 1415, Pitch_bend_c, 0, 12971
2, 1416, Pitch_bend_c, 0, 13107
2, 1417, Pitch_bend_c, 0, 13244
2, 1418, Pitch_bend_c, 0, 13380
2, 1419, Pitch_bend_c, 0, 13517
2, 1420, Pitch_bend_c, 0, 13653
2, 1421, Pitch_bend_c, 0, 13790
2, 1422, Pitch_bend_c, 0, 13926
2, 1423, Pitch_bend_c, 0, 14063
2, 1424, Pitch_bend_c, 0, 14199
2, 1425, Pitch_bend_c, 0, 14336
2, 1426, Pitch_bend_c, 0, 14472
2, 1427, Pitch_bend_c, 0, 14609
2, 1428, Pitch_bend_c, 0, 14745
2, 1429, Pitch_bend_c, 0, 14882
2, 1430, Pitch_bend_c, 0, 15018
2, 1431, Pitch_bend_c, 0, 15155
2, 1432, Pitch_bend_c, 0, 15291
2, 1433, Pitch_bend_c, 0, 15428
2, 1434, Pitch_bend_c, 0, 15564
2, 1435, Pitch_bend_c, 0, 15701
2, 1436, Pitch_bend_c, 0, 15837
2, 1437, Pitch_bend_c, 0, 15974
2, 1438, Pitch_bend_c, 0, 16110
2, 1439, Pitch_bend_c, 0, 16247
2, 1440, Pitch_bend_c, 0, 16383
2, 1740, Note_on_c, 0, 34, 0
2, 1740, Pitch_bend_c, 0, 8192
2, 1740, Note_on_c, 0, 41, 125
2, 1741, Pitch_bend_c, 0, 8466
2, 1742, Pitch_bend_c, 0, 8739
2, 1743, Pitch_bend_c, 0, 9012
2, 1744, Pitch_bend_c, 0, 9285
2, 1745, Pitch_bend_c, 0, 9558
2, 1746, Pitch_bend_c, 0, 9831
2, 1747, Pitch_bend_c, 0, 10104
2, 1748, Pitch_bend_c, 0, 10377
2, 1749, Pitch_bend_c, 0, 10650
2, 1750, Pitch_bend_c, 0, 10923
2, 1751, Pitch_bend_c, 0, 11196
2, 1752, Pitch_bend_c, 0, 11469
2, 1753, Pitch_bend_c, 0, 11742
2, 1754, Pitch_bend_c, 0, 12015
2, 1755, Pitch_bend_c, 0, 12288
2, 1756, Pitch_bend_c, 0, 12561
2, 1757, Pitch_bend_c, 0, 12834
2, 1758, Pitch_bend_c, 0, 13107
2, 1759, Pitch_bend_c, 0, 13380
2, 1760, Pitch_bend_c, 0, 13653
2, 1761, Pitch_bend_c, 0, 13926
2, 1762, Pitch_bend_c, 0, 14199
2, 1763, Pitch_bend_c, 0, 14472
2, 1764, Pitch_bend_c, 0, 14745
2, 1765, Pitch_bend_c, 0, 15018
2, 1766, Pitch_bend_c, 0, 15291
2, 1767, Pitch_bend_c, 0, 15564
2, 1768, Pitch_bend_c, 0, 15837
2, 1769, Pitch_bend_c, 0, 16110
2, 1770, Pitch_bend_c, 0, 16383
2, 1920, Note_on_c, 0, 41, 0
2, 1920, Pitch_bend_c, 0, 8192
2, 1920, Note_on_c, 0, 42, 125
2, 2100, Note_on_c, 0, 42, 0
2, 2100, Pitch_bend_c, 0, 8192
2, 2100, Note_on_c, 0, 37, 125
2, 2101, Pitch_bend_c, 0, 8520
2, 2102, Pitch_bend_c, 0, 8848
2, 2103, Pitch_bend_c, 0, 9175
2, 2104, Pitch_bend_c, 0, 9503
2, 2105, Pitch_bend_c, 0, 9831
2, 2106, Pitch_bend_c, 0, 10158
2, 2107, Pitch_bend_c, 0, 10486
2, 2108, Pitch_bend_c, 0, 10814
2, 2109, Pitch_bend_c, 0, 11141
2, 2110, Pitch_bend_c, 0, 11469
2, 2111, Pitch_bend_c, 0, 11797
2, 2112, Pitch_bend_c, 0, 12124
2, 2113, Pitch_bend_c, 0, 12452
2, 2114, Pitch_bend_c, 0, 12779
2, 2115, Pitch_bend_c, 0, 13107
2, 2116, Pitch_bend_c, 0, 13435
2, 2117, Pitch_bend_c, 0, 13762
2, 2118, Pitch_bend_c, 0, 14090
2, 2119, Pitch_bend_c, 0, 14418
2, 2120, Pitch_bend_c, 0, 14745
2, 2121, Pitch_bend_c, 0, 15073
2, 2122, Pitch_bend_c, 0, 15401
2, 2123, Pitch_bend_c, 0, 15728
2, 2124, Pitch_bend_c, 0, 16056
2, 2125, Pitch_bend_c, 0, 16383
2, 2400, Note_on_c, 0, 37, 0
2, 2400, Pitch_bend_c, 0, 8192
2, 2400, Note_on_c, 0, 32, 125
2, 2570, Note_on_c, 0, 32, 0
2, 2580, Note_on_c, 0, 32, 125
2, 2635, Note_on_c, 0, 32, 0
2, 2640, Note_on_c, 0, 32, 125
2, 2880, Note_on_c, 0, 32, 0
2, 2880, Note_on_c, 0, 29, 125
2, 3050, Note_on_c, 0, 29, 0
2, 3060, Note_on_c, 0, 29, 125
2, 3115, Note_on_c, 0, 29, 0
2, 3120, Note_on_c, 0, 29, 125
2, 3360, Note_on_c, 0, 29, 0
2, 3360, Note_on_c, 0, 36, 125
2, 3530, Note_on_c, 0, 36, 0
2, 3540, Note_on_c, 0, 31, 125
2, 3595, Note_on_c, 0, 31, 0
2, 3600, Note_on_c, 0, 36, 125
2, 3770, Note_on_c, 0, 36, 0
2, 3780, Note_on_c, 0, 43, 125
2, 3835, Note_on_c, 0, 43, 0
2, 3840, Note_on_c, 0, 48, 125
2, 4010, Note_on_c, 0, 48, 0
2, 4020, Note_on_c, 0, 43, 125
2, 4075, Note_on_c, 0, 43, 0
2, 4080, Note_on_c, 0, 36, 125
2, 4260, Note_on_c, 0, 36, 0
2, 4260, Note_on_c, 0, 43, 125
2, 4320, Note_on_c, 0, 43, 0
2, 4320, Note_on_c, 0, 41, 125
2, 4490, Note_on_c, 0, 41, 0
2, 4500, Note_on_c, 0, 41, 125
2, 4555, Note_on_c, 0, 41, 0
2, 4560, Note_on_c, 0, 41, 125
2, 4800, Note_on_c, 0, 41, 0
2, 4800, Note_on_c, 0, 36, 125
2, 4970, Note_on_c, 0, 36, 0
2, 4980, Note_on_c, 0, 36, 125
2, 5035, Note_on_c, 0, 36, 0
2, 5040, Note_on_c, 0, 36, 125
2, 5280, Note_on_c, 0, 36, 0
2, 5280, Note_on_c, 0, 37, 125
2, 5450, Note_on_c, 0, 37, 0
2, 5460, Note_on_c, 0, 37, 125
2, 5515, Note_on_c, 0, 37, 0
2, 5520, Note_on_c, 0, 37, 125
2, 5760, Note_on_c, 0, 37, 0
2, 5760, Note_on_c, 0, 39, 125
2, 5930, Note_on_c, 0, 39, 0
2, 5940, Note_on_c, 0, 39, 125
2, 5995, Note_on_c, 0, 39, 0
2, 6000, Note_on_c, 0, 39, 125
2, 6240, Note_on_c, 0, 39, 0
2, 6240, Note_on_c, 0, 39, 125
2, 6410, Note_on_c, 0, 39, 0
2, 6420, Note_on_c, 0, 39, 125
2, 6540, Note_on_c, 0, 39, 0
2, 6540, Note_on_c, 0, 39, 125
2, 6600, Note_on_c, 0, 39, 0
2, 6600, Note_on_c, 0, 34, 125
2, 6660, Note_on_c, 0, 34, 0
2, 6660, Note_on_c, 0, 39, 125
2, 6720, Note_on_c, 0, 39, 0
2, 6720, Note_on_c, 0, 32, 125
2, 6890, Note_on_c, 0, 32, 0
2, 6900, Note_on_c, 0, 32, 125
2, 6955, Note_on_c, 0, 32, 0
2, 6960, Note_on_c, 0, 32, 125
2, 7200, Note_on_c, 0, 32, 0
2, 7200, Note_on_c, 0, 29, 125
2, 7370, Note_on_c, 0, 29, 0
2, 7380, Note_on_c, 0, 29, 125
2, 7435, Note_on_c, 0, 29, 0
2, 7440, Note_on_c, 0, 29, 125
2, 7680, Note_on_c, 0, 29, 0
2, 7680, Note_on_c, 0, 36, 125
2, 7850, Note_on_c, 0, 36, 0
2, 7860, Note_on_c, 0, 31, 125
2, 7915, Note_on_c, 0, 31, 0
2, 7920, Note_on_c, 0, 36, 125
2, 8090, Note_on_c, 0, 36, 0
2, 8100, Note_on_c, 0, 43, 125
2, 8155, Note_on_c, 0, 43, 0
2, 8160, Note_on_c, 0, 48, 125
2, 8330, Note_on_c, 0, 48, 0
2, 8340, Note_on_c, 0, 43, 125
2, 8395, Note_on_c, 0, 43, 0
2, 8400, Note_on_c, 0, 36, 125
2, 8580, Note_on_c, 0, 36, 0
2, 8580, Note_on_c, 0, 43, 125
2, 8640, Note_on_c, 0, 43, 0
2, 8640, Note_on_c, 0, 41, 125
2, 8810, Note_on_c, 0, 41, 0
2, 8820, Note_on_c, 0, 41, 125
2, 8875, Note_on_c, 0, 41, 0
2, 8880, Note_on_c, 0, 41, 125
2, 9120, Note_on_c, 0, 41, 0
2, 9120, Note_on_c, 0, 24, 125
2, 9290, Note_on_c, 0, 24, 0
2, 9300, Note_on_c, 0, 24, 125
2, 9355, Note_on_c, 0, 24, 0
2, 9360, Note_on_c, 0, 24, 125
2, 9600, Note_on_c, 0, 24, 0
2, 9600, Note_on_c, 0, 25, 125
2, 9770, Note_on_c, 0, 25, 0
2, 9780, Note_on_c, 0, 25, 125
2, 9835, Note_on_c, 0, 25, 0
2, 9840, Note_on_c, 0, 25, 125
2, 10080, Note_on_c, 0, 25, 0
2, 10080, Note_on_c, 0, 27, 125
2, 10250, Note_on_c, 0, 27, 0
2, 10260, Note_on_c, 0, 27, 125
2, 10315, Note_on_c, 0, 27, 0
2, 10320, Note_on_c, 0, 27, 125
2, 10560, Note_on_c, 0, 27, 0
2, 10560, Note_on_c, 0, 29, 125
2, 10730, Note_on_c, 0, 29, 0
2, 10740, Note_on_c, 0, 29, 125
2, 10795, Note_on_c, 0, 29, 0
2, 10800, Note_on_c, 0, 27, 125
2, 10970, Note_on_c, 0, 27, 0
2, 10980, Note_on_c, 0, 27, 125
2, 11035, Note_on_c, 0, 27, 0
2, 11040, Note_on_c, 0, 25, 125
2, 11210, Note_on_c, 0, 25, 0
2, 11220, Note_on_c, 0, 25, 125
2, 11275, Note_on_c, 0, 25, 0
2, 11280, Note_on_c, 0, 27, 125
2, 11450, Note_on_c, 0, 27, 0
2, 11460, Note_on_c, 0, 27, 125
2, 11515, Note_on_c, 0, 27, 0
2, 11520, Note_on_c, 0, 32, 125
2, 11690, Note_on_c, 0, 32, 0
2, 11700, Note_on_c, 0, 32, 125
2, 11755, Note_on_c, 0, 32, 0
2, 11760, Note_on_c, 0, 32, 125
2, 11930, Note_on_c, 0, 32, 0
2, 11940, Note_on_c, 0, 32, 125
2, 12180, Note_on_c, 0, 32, 0
2, 12480, Note_on_c, 0, 24, 125
2, 12650, Note_on_c, 0, 24, 0
2, 12660, Note_on_c, 0, 24, 125
2, 12715, Note_on_c, 0, 24, 0
2, 12720, Note_on_c, 0, 24, 125
2, 12780, Note_on_c, 0, 24, 0
2, 12780, Note_on_c, 0, 41, 125
2, 12810, Pitch_bend_c, 0, 16373
2, 12840, Note_on_c, 0, 41, 0
2, 12840, Pitch_bend_c, 0, 8192
2, 12840, Note_on_c, 0, 48, 125
2, 12900, Note_on_c, 0, 48, 0
2, 12900, Note_on_c, 0, 43, 125
2, 12960, Note_on_c, 0, 43, 0
2, 12960, Note_on_c, 0, 41, 125
2, 13130, Note_on_c, 0, 41, 0
2, 13140, Note_on_c, 0, 41, 125
2, 13195, Note_on_c, 0, 41, 0
2, 13200, Note_on_c, 0, 36, 125
2, 13255, Note_on_c, 0, 36, 0
2, 13260, Note_on_c, 0, 41, 125
2, 13380, Note_on_c, 0, 41, 0
2, 13380, Note_on_c, 0, 36, 125
2, 13435, Note_on_c, 0, 36, 0
2, 13440, Note_on_c, 0, 37, 125
2, 13610, Note_on_c, 0, 37, 0
2, 13620, Note_on_c, 0, 37, 125
2, 13675, Note_on_c, 0, 37, 0
2, 13680, Note_on_c, 0, 39, 125
2, 13850, Note_on_c, 0, 39, 0
2, 13860, Note_on_c, 0, 39, 125
2, 13915, Note_on_c, 0, 39, 0
2, 13920, Note_on_c, 0, 44, 125
2, 14090, Note_on_c, 0, 44, 0
2, 14100, Note_on_c, 0, 44, 125
2, 14200, Note_on_c, 0, 44, 0
2, 14220, Note_on_c, 0, 34, 125
2, 14340, Note_on_c, 0, 34, 0
2, 14340, Note_on_c, 0, 35, 125
2, 14400, Note_on_c, 0, 35, 0
2, 14400, Note_on_c, 0, 36, 125
2, 14570, Note_on_c, 0, 36, 0
2, 14580, Note_on_c, 0, 36, 125
2, 14635, Note_on_c, 0, 36, 0
2, 14640, Note_on_c, 0, 36, 125
2, 14760, Note_on_c, 0, 36, 0
2, 14760, Note_on_c, 0, 48, 125
2, 14820, Note_on_c, 0, 48, 0
2, 14820, Note_on_c, 0, 43, 125
2, 14880, Note_on_c, 0, 43, 0
2, 14880, Note_on_c, 0, 41, 125
2, 15050, Note_on_c, 0, 41, 0
2, 15060, Note_on_c, 0, 41, 125
2, 15115, Note_on_c, 0, 41, 0
2, 15120, Note_on_c, 0, 41, 125
2, 15240, Note_on_c, 0, 41, 0
2, 15240, Note_on_c, 0, 41, 125
2, 15300, Note_on_c, 0, 41, 0
2, 15300, Note_on_c, 0, 41, 125
2, 15360, Note_on_c, 0, 41, 0
2, 15360, Note_on_c, 0, 42, 125
2, 15530, Note_on_c, 0, 42, 0
2, 15540, Note_on_c, 0, 42, 125
2, 15595, Note_on_c, 0, 42, 0
2, 15600, Note_on_c, 0, 42, 125
2, 15660, Note_on_c, 0, 42, 0
2, 15660, Pitch_bend_c, 0, 8192
2, 15660, Note_on_c, 0, 52, 125
2, 15661, Pitch_bend_c, 0, 8602
2, 15662, Pitch_bend_c, 0, 9012
2, 15663, Pitch_bend_c, 0, 9421
2, 15664, Pitch_bend_c, 0, 9831
2, 15665, Pitch_bend_c, 0, 10240
2, 15666, Pitch_bend_c, 0, 10650
2, 15667, Pitch_bend_c, 0, 11059
2, 15668, Pitch_bend_c, 0, 11469
2, 15669, Pitch_bend_c, 0, 11878
2, 15670, Pitch_bend_c, 0, 12288
2, 15671, Pitch_bend_c, 0, 12698
2, 15672, Pitch_bend_c, 0, 13107
2, 15673, Pitch_bend_c, 0, 13517
2, 15674, Pitch_bend_c, 0, 13926
2, 15675, Pitch_bend_c, 0, 14336
2, 15676, Pitch_bend_c, 0, 14745
2, 15677, Pitch_bend_c, 0, 15155
2, 15678, Pitch_bend_c, 0, 15564
2, 15679, Pitch_bend_c, 0, 15974
2, 15680, Pitch_bend_c, 0, 16383
2, 15720, Note_on_c, 0, 52, 0
2, 15720, Pitch_bend_c, 0, 8192
2, 15720, Note_on_c, 0, 51, 125
2, 15780, Note_on_c, 0, 51, 0
2, 15780, Note_on_c, 0, 49, 125
2, 15840, Note_on_c, 0, 49, 0
2, 15840, Note_on_c, 0, 39, 125
2, 15895, Note_on_c, 0, 39, 0
2, 15900, Note_on_c, 0, 39, 125
2, 15955, Note_on_c, 0, 39, 0
2, 15960, Note_on_c, 0, 34, 125
2, 16015, Note_on_c, 0, 34, 0
2, 16020, Note_on_c, 0, 34, 125
2, 16075, Note_on_c, 0, 34, 0
2, 16080, Note_on_c, 0, 39, 125
2, 16135, Note_on_c, 0, 39, 0
2, 16140, Note_on_c, 0, 39, 125
2, 16195, Note_on_c, 0, 39, 0
2, 16200, Note_on_c, 0, 34, 125
2, 16255, Note_on_c, 0, 34, 0
2, 16260, Note_on_c, 0, 34, 125
2, 16315, Note_on_c, 0, 34, 0
2, 16320, Note_on_c, 0, 39, 125
2, 16375, Note_on_c, 0, 39, 0
2, 16380, Note_on_c, 0, 39, 125
2, 16435, Note_on_c, 0, 39, 0
2, 16440, Note_on_c, 0, 34, 125
2, 16495, Note_on_c, 0, 34, 0
2, 16500, Note_on_c, 0, 34, 125
2, 16555, Note_on_c, 0, 34, 0
2, 16560, Note_on_c, 0, 39, 125
2, 16650, Note_on_c, 0, 39, 0
2, 16650, Note_on_c, 0, 39, 125
2, 16675, Note_on_c, 0, 39, 0
2, 16680, Note_on_c, 0, 39, 125
2, 16735, Note_on_c, 0, 39, 0
2, 16740, Note_on_c, 0, 39, 125
2, 16795, Note_on_c, 0, 39, 0
2, 16800, Note_on_c, 0, 32, 125
2, 16970, Note_on_c, 0, 32, 0
2, 16980, Note_on_c, 0, 32, 125
2, 17035, Note_on_c, 0, 32, 0
2, 17040, Note_on_c, 0, 32, 125
2, 17280, Note_on_c, 0, 32, 0
2, 17280, Note_on_c, 0, 29, 125
2, 17450, Note_on_c, 0, 29, 0
2, 17460, Note_on_c, 0, 29, 125
2, 17515, Note_on_c, 0, 29, 0
2, 17520, Note_on_c, 0, 29, 125
2, 17760, Note_on_c, 0, 29, 0
2, 17760, Note_on_c, 0, 36, 125
2, 17930, Note_on_c, 0, 36, 0
2, 17940, Note_on_c, 0, 31, 125
2, 17995, Note_on_c, 0, 31, 0
2, 18000, Note_on_c, 0, 36, 125
2, 18170, Note_on_c, 0, 36, 0
2, 18180, Note_on_c, 0, 43, 125
2, 18235, Note_on_c, 0, 43, 0
2, 18240, Note_on_c, 0, 48, 125
2, 18410, Note_on_c, 0, 48, 0
2, 18420, Note_on_c, 0, 43, 125
2, 18475, Note_on_c, 0, 43, 0
2, 18480, Note_on_c, 0, 36, 125
2, 18660, Note_on_c, 0, 36, 0
2, 18660, Note_on_c, 0, 43, 125
2, 18720, Note_on_c, 0, 43, 0
2, 18720, Note_on_c, 0, 41, 125
2, 18890, Note_on_c, 0, 41, 0
2, 18900, Note_on_c, 0, 41, 125
2, 18955, Note_on_c, 0, 41, 0
2, 18960, Note_on_c, 0, 41, 125
2, 19200, Note_on_c, 0, 41, 0
2, 19200, Note_on_c, 0, 24, 125
2, 19370, Note_on_c, 0, 24, 0
2, 19380, Note_on_c, 0, 24, 125
2, 19435, Note_on_c, 0, 24, 0
2, 19440, Note_on_c, 0, 24, 125
2, 19680, Note_on_c, 0, 24, 0
2, 19680, Note_on_c, 0, 25, 125
2, 19850, Note_on_c, 0, 25, 0
2, 19860, Note_on_c, 0, 25, 125
2, 19915, Note_on_c, 0, 25, 0
2, 19920, Note_on_c, 0, 25, 125
2, 20160, Note_on_c, 0, 25, 0
2, 20160, Note_on_c, 0, 27, 125
2, 20330, Note_on_c, 0, 27, 0
2, 20340, Note_on_c, 0, 27, 125
2, 20395, Note_on_c, 0, 27, 0
2, 20400, Note_on_c, 0, 27, 125
2, 20640, Note_on_c, 0, 27, 0
2, 20640, Note_on_c, 0, 29, 125
2, 20810, Note_on_c, 0, 29, 0
2, 20820, Note_on_c, 0, 29, 125
2, 20875, Note_on_c, 0, 29, 0
2, 20880, Note_on_c, 0, 27, 125
2, 21050, Note_on_c, 0, 27, 0
2, 21060, Note_on_c, 0, 27, 125
2, 21115, Note_on_c, 0, 27, 0
2, 21120, Note_on_c, 0, 25, 125
2, 21290, Note_on_c, 0, 25, 0
2, 21300, Note_on_c, 0, 25, 125
2, 21355, Note_on_c, 0, 25, 0
2, 21360, Note_on_c, 0, 25, 125
2, 21600, Note_on_c, 0, 25, 0
2, 21600, Note_on_c, 0, 25, 125
2, 21770, Note_on_c, 0, 25, 0
2, 21780, Note_on_c, 0, 25, 125
2, 21835, Note_on_c, 0, 25, 0
2, 21840, Note_on_c, 0, 25, 125
2, 21960, Note_on_c, 0, 25, 0
2, 21960, Note_on_c, 0, 34, 125
2, 22130, Note_on_c, 0, 34, 0
2, 22140, Note_on_c, 0, 34, 125
2, 22195, Note_on_c, 0, 34, 0
2, 22200, Note_on_c, 0, 39, 125
2, 22255, Note_on_c, 0, 39, 0
2, 22260, Note_on_c, 0, 39, 125
2, 22380, Note_on_c, 0, 39, 0
2, 22380, Note_on_c, 0, 32, 125
2, 22500, Note_on_c, 0, 32, 0
2, 22500, Note_on_c, 0, 44, 125
2, 22620, Note_on_c, 0, 44, 0
2, 22620, Note_on_c, 0, 36, 125
2, 22740, Note_on_c, 0, 36, 0
2, 22740, Note_on_c, 0, 37, 125
2, 22860, Note_on_c, 0, 37, 0
2, 22860, Note_on_c, 0, 39, 125
2, 22920, Note_on_c, 0, 39, 0
2, 22920, Note_on_c, 0, 32, 125
2, 23000, Note_on_c, 0, 32, 0
2, 23400, Note_on_c, 0, 24, 125
2, 23570, Note_on_c, 0, 24, 0
2, 23580, Note_on_c, 0, 24, 125
2, 23635, Note_on_c, 0, 24, 0
2, 23640, Note_on_c, 0, 24, 125
2, 23700, Note_on_c, 0, 24, 0
2, 23700, Note_on_c, 0, 41, 125
2, 23730, Pitch_bend_c, 0, 16373
2, 23760, Note_on_c, 0, 41, 0
2, 23760, Pitch_bend_c, 0, 8192
2, 23760, Note_on_c, 0, 48, 125
2, 23820, Note_on_c, 0, 48, 0
2, 23820, Note_on_c, 0, 43, 125
2, 23880, Note_on_c, 0, 43, 0
2, 23880, Note_on_c, 0, 41, 125
2, 24050, Note_on_c, 0, 41, 0
2, 24060, Note_on_c, 0, 41, 125
2, 24115, Note_on_c, 0, 41, 0
2, 24120, Note_on_c, 0, 36, 125
2, 24175, Note_on_c, 0, 36, 0
2, 24180, Note_on_c, 0, 41, 125
2, 24300, Note_on_c, 0, 41, 0
2, 24300, Note_on_c, 0, 36, 125
2, 24355, Note_on_c, 0, 36, 0
2, 24360, Note_on_c, 0, 37, 125
2, 24530, Note_on_c, 0, 37, 0
2, 24540, Note_on_c, 0, 37, 125
2, 24595, Note_on_c, 0, 37, 0
2, 24600, Note_on_c, 0, 39, 125
2, 24770, Note_on_c, 0, 39, 0
2, 24780, Note_on_c, 0, 39, 125
2, 24835, Note_on_c, 0, 39, 0
2, 24840, Note_on_c, 0, 32, 125
2, 25010, Note_on_c, 0, 32, 0
2, 25020, Note_on_c, 0, 32, 125
2, 25120, Note_on_c, 0, 32, 0
2, 25140, Note_on_c, 0, 34, 125
2, 25260, Note_on_c, 0, 34, 0
2, 25260, Note_on_c, 0, 35, 125
2, 25320, Note_on_c, 0, 35, 0
2, 25320, Note_on_c, 0, 36, 125
2, 25490, Note_on_c, 0, 36, 0
2, 25500, Note_on_c, 0, 36, 125
2, 25555, Note_on_c, 0, 36, 0
2, 25560, Note_on_c, 0, 36, 125
2, 25680, Note_on_c, 0, 36, 0
2, 25680, Note_on_c, 0, 48, 125
2, 25740, Note_on_c, 0, 48, 0
2, 25740, Note_on_c, 0, 43, 125
2, 25800, Note_on_c, 0, 43, 0
2, 25800, Note_on_c, 0, 41, 125
2, 25970, Note_on_c, 0, 41, 0
2, 25980, Note_on_c, 0, 41, 125
2, 26035, Note_on_c, 0, 41, 0
2, 26040, Note_on_c, 0, 41, 125
2, 26160, Note_on_c, 0, 41, 0
2, 26160, Note_on_c, 0, 41, 125
2, 26220, Note_on_c, 0, 41, 0
2, 26220, Note_on_c, 0, 41, 125
2, 26280, Note_on_c, 0, 41, 0
2, 26280, Note_on_c, 0, 42, 125
2, 26450, Note_on_c, 0, 42, 0
2, 26460, Note_on_c, 0, 42, 125
2, 26515, Note_on_c, 0, 42, 0
2, 26520, Note_on_c, 0, 42, 125
2, 26580, Note_on_c, 0, 42, 0
2, 26580, Pitch_bend_c, 0, 8192
2, 26580, Note_on_c, 0, 52, 125
2, 26581, Pitch_bend_c, 0, 8602
2, 26582, Pitch_bend_c, 0, 9012
2, 26583, Pitch_bend_c, 0, 9421
2, 26584, Pitch_bend_c, 0, 9831
2, 26585, Pitch_bend_c, 0, 10240
2, 26586, Pitch_bend_c, 0, 10650
2, 26587, Pitch_bend_c, 0, 11059
2, 26588, Pitch_bend_c, 0, 11469
2, 26589, Pitch_bend_c, 0, 11878
2, 26590, Pitch_bend_c, 0, 12288
2, 26591, Pitch_bend_c, 0, 12698
2, 26592, Pitch_bend_c, 0, 13107
2, 26593, Pitch_bend_c, 0, 13517
2, 26594, Pitch_bend_c, 0, 13926
2, 26595, Pitch_bend_c, 0, 14336
2, 26596, Pitch_bend_c, 0, 14745
2, 26597, Pitch_bend_c, 0, 15155
2, 26598, Pitch_bend_c, 0, 15564
2, 26599, Pitch_bend_c, 0, 15974
2, 26600, Pitch_bend_c, 0, 16383
2, 26640, Note_on_c, 0, 52, 0
2, 26640, Pitch_bend_c, 0, 8192
2, 26640, Note_on_c, 0, 51, 125
2, 26700, Note_on_c, 0, 51, 0
2, 26700, Note_on_c, 0, 49, 125
2, 26760, Note_on_c, 0, 49, 0
2, 26760, Note_on_c, 0, 39, 125
2, 26815, Note_on_c, 0, 39, 0
2, 26820, Note_on_c, 0, 39, 125
2, 26875, Note_on_c, 0, 39, 0
2, 26880, Note_on_c, 0, 34, 125
2, 26935, Note_on_c, 0, 34, 0
2, 26940, Note_on_c, 0, 34, 125
2, 26995, Note_on_c, 0, 34, 0
2, 27000, Note_on_c, 0, 39, 125
2, 27055, Note_on_c, 0, 39, 0
2, 27060, Note_on_c, 0, 39, 125
2, 27115, Note_on_c, 0, 39, 0
2, 27120, Note_on_c, 0, 34, 125
2, 27175, Note_on_c, 0, 34, 0
2, 27180, Note_on_c, 0, 34, 125
2, 27235, Note_on_c, 0, 34, 0
2, 27240, Note_on_c, 0, 39, 125
2, 27295, Note_on_c, 0, 39, 0
2, 27300, Note_on_c, 0, 39, 125
2, 27355, Note_on_c, 0, 39, 0
2, 27360, Note_on_c, 0, 34, 125
2, 27415, Note_on_c, 0, 34, 0
2, 27420, Note_on_c, 0, 34, 125
2, 27475, Note_on_c, 0, 34, 0
2, 27480, Note_on_c, 0, 39, 125
2, 27570, Note_on_c, 0, 39, 0
2, 27570, Note_on_c, 0, 39, 125
2, 27595, Note_on_c, 0, 39, 0
2, 27600, Note_on_c, 0, 39, 125
2, 27655, Note_on_c, 0, 39, 0
2, 27660, Note_on_c, 0, 39, 125
2, 27715, Note_on_c, 0, 39, 0
2, 27720, Note_on_c, 0, 32, 125
2, 27890, Note_on_c, 0, 32, 0
2, 27900, Note_on_c, 0, 32, 125
2, 27955, Note_on_c, 0, 32, 0
2, 27960, Note_on_c, 0, 32, 125
2, 28200, Note_on_c, 0, 32, 0
2, 28200, Note_on_c, 0, 29, 125
2, 28370, Note_on_c, 0, 29, 0
2, 28380, Note_on_c, 0, 29, 125
2, 28435, Note_on_c, 0, 29, 0
2, 28440, Note_on_c, 0, 29, 125
2, 28680, Note_on_c, 0, 29, 0
2, 28680, Note_on_c, 0, 36, 125
2, 28850, Note_on_c, 0, 36, 0
2, 28860, Note_on_c, 0, 31, 125
2, 28915, Note_on_c, 0, 31, 0
2, 28920, Note_on_c, 0, 36, 125
2, 29090, Note_on_c, 0, 36, 0
2, 29100, Note_on_c, 0, 43, 125
2, 29155, Note_on_c, 0, 43, 0
2, 29160, Note_on_c, 0, 48, 125
2, 29330, Note_on_c, 0, 48, 0
2, 29340, Note_on_c, 0, 43, 125
2, 29395, Note_on_c, 0, 43, 0
2, 29400, Note_on_c, 0, 36, 125
2, 29580, Note_on_c, 0, 36, 0
2, 29580, Note_on_c, 0, 43, 125
2, 29640, Note_on_c, 0, 43, 0
2, 29640, Note_on_c, 0, 41, 125
2, 29810, Note_on_c, 0, 41, 0
2, 29820, Note_on_c, 0, 41, 125
2, 29875, Note_on_c, 0, 41, 0
2, 29880, Note_on_c, 0, 41, 125
2, 30120, Note_on_c, 0, 41, 0
2, 30120, Note_on_c, 0, 24, 125
2, 30290, Note_on_c, 0, 24, 0
2, 30300, Note_on_c, 0, 24, 125
2, 30355, Note_on_c, 0, 24, 0
2, 30360, Note_on_c, 0, 24, 125
2, 30600, Note_on_c, 0, 24, 0
2, 30600, Note_on_c, 0, 25, 125
2, 30770, Note_on_c, 0, 25, 0
2, 30780, Note_on_c, 0, 25, 125
2, 30835, Note_on_c, 0, 25, 0
2, 30840, Note_on_c, 0, 25, 125
2, 31080, Note_on_c, 0, 25, 0
2, 31080, Note_on_c, 0, 27, 125
2, 31250, Note_on_c, 0, 27, 0
2, 31260, Note_on_c, 0, 27, 125
2, 31315, Note_on_c, 0, 27, 0
2, 31320, Note_on_c, 0, 27, 125
2, 31560, Note_on_c, 0, 27, 0
2, 31560, Note_on_c, 0, 29, 125
2, 31730, Note_on_c, 0, 29, 0
2, 31740, Note_on_c, 0, 29, 125
2, 31795, Note_on_c, 0, 29, 0
2, 31800, Note_on_c, 0, 27, 125
2, 31970, Note_on_c, 0, 27, 0
2, 31980, Note_on_c, 0, 27, 125
2, 32035, Note_on_c, 0, 27, 0
2, 32040, Note_on_c, 0, 25, 125
2, 32210, Note_on_c, 0, 25, 0
2, 32220, Note_on_c, 0, 25, 125
2, 32275, Note_on_c, 0, 25, 0
2, 32280, Note_on_c, 0, 25, 125
2, 32520, Note_on_c, 0, 25, 0
2, 32520, Note_on_c, 0, 25, 125
2, 32690, Note_on_c, 0, 25, 0
2, 32700, Note_on_c, 0, 25, 125
2, 32755, Note_on_c, 0, 25, 0
2, 32760, Note_on_c, 0, 25, 125
2, 32880, Note_on_c, 0, 25, 0
2, 32880, Note_on_c, 0, 34, 125
2, 33050, Note_on_c, 0, 34, 0
2, 33060, Note_on_c, 0, 34, 125
2, 33115, Note_on_c, 0, 34, 0
2, 33120, Note_on_c, 0, 39, 125
2, 33175, Note_on_c, 0, 39, 0
2, 33180, Note_on_c, 0, 39, 125
2, 33300, Note_on_c, 0, 39, 0
2, 33300, Note_on_c, 0, 32, 125
2, 33470, Note_on_c, 0, 32, 0
2, 33540, Note_on_c, 0, 32, 125
2, 33595, Note_on_c, 0, 32, 0
2, 33600, Note_on_c, 0, 32, 125
2, 33770, Note_on_c, 0, 32, 0
2, 33780, Note_on_c, 0, 31, 125
2, 33840, Note_on_c, 0, 31, 0
2, 33840, Note_on_c, 0, 29, 125
2, 34010, Note_on_c, 0, 29, 0
2, 34020, Note_on_c, 0, 29, 125
2, 34075, Note_on_c, 0, 29, 0
2, 34080, Note_on_c, 0, 29, 125
2, 34250, Note_on_c, 0, 29, 0
2, 34260, Note_on_c, 0, 24, 125
2, 34430, Note_on_c, 0, 24, 0
2, 34500, Note_on_c, 0, 24, 125
2, 34740, Note_on_c, 0, 24, 0
2, 34740, Note_on_c, 0, 27, 125
2, 34980, Note_on_c, 0, 27, 0
2, 34980, Note_on_c, 0, 27, 125
2, 35150, Note_on_c, 0, 27, 0
2, 35160, Note_on_c, 0, 27, 125
2, 35215, Note_on_c, 0, 27, 0
2, 35220, Note_on_c, 0, 27, 125
2, 35275, Note_on_c, 0, 27, 0
2, 35280, Note_on_c, 0, 32, 125
2, 35450, Note_on_c, 0, 32, 0
2, 35460, Note_on_c, 0, 32, 125
2, 35515, Note_on_c, 0, 32, 0
2, 35520, Note_on_c, 0, 32, 125
2, 35690, Note_on_c, 0, 32, 0
2, 35700, Note_on_c, 0, 31, 125
2, 35760, Note_on_c, 0, 31, 0
2, 35760, Note_on_c, 0, 29, 125
2, 35930, Note_on_c, 0, 29, 0
2, 35940, Note_on_c, 0, 29, 125
2, 35995, Note_on_c, 0, 29, 0
2, 36000, Note_on_c, 0, 29, 125
2, 36170, Note_on_c, 0, 29, 0
2, 36180, Note_on_c, 0, 24, 125
2, 36350, Note_on_c, 0, 24, 0
2, 36420, Note_on_c, 0, 24, 125
2, 36660, Note_on_c, 0, 24, 0
2, 36660, Note_on_c, 0, 27, 125
2, 36900, Note_on_c, 0, 27, 0
2, 36900, Note_on_c, 0, 27, 125
2, 37070, Note_on_c, 0, 27, 0
2, 37080, Note_on_c, 0, 27, 125
2, 37135, Note_on_c, 0, 27, 0
2, 37140, Note_on_c, 0, 27, 125
2, 37195, Note_on_c, 0, 27, 0
2, 37200, Note_on_c, 0, 32, 125
2, 37370, Note_on_c, 0, 32, 0
2, 37380, Note_on_c, 0, 32, 117
2, 37435, Note_on_c, 0, 32, 0
2, 37440, Note_on_c, 0, 32, 115
2, 37610, Note_on_c, 0, 32, 0
2, 37620, Note_on_c, 0, 31, 107
2, 37680, Note_on_c, 0, 31, 0
2, 37680, Note_on_c, 0, 29, 105
2, 37850, Note_on_c, 0, 29, 0
2, 37860, Note_on_c, 0, 29, 97
2, 37915, Note_on_c, 0, 29, 0
2, 37920, Note_on_c, 0, 29, 93
2, 38090, Note_on_c, 0, 29, 0
2, 38100, Note_on_c, 0, 24, 86
2, 38270, Note_on_c, 0, 24, 0
2, 38340, Note_on_c, 0, 24, 76
2, 38580, Note_on_c, 0, 24, 0
2, 38580, Note_on_c, 0, 27, 66
2, 38820, Note_on_c, 0, 27, 0
2, 38820, Note_on_c, 0, 27, 55
2, 38990, Note_on_c, 0, 27, 0
2, 39000, Note_on_c, 0, 27, 47
2, 39055, Note_on_c, 0, 27, 0
2, 39060, Note_on_c, 0, 27, 45
2, 39115, Note_on_c, 0, 27, 0
2, 39120, Note_on_c, 0, 32, 42
2, 39290, Note_on_c, 0, 32, 0
2, 39300, Note_on_c, 0, 32, 35
2, 39355, Note_on_c, 0, 32, 0
2, 39360, Note_on_c, 0, 32, 31
2, 39530, Note_on_c, 0, 32, 0
2, 39540, Note_on_c, 0, 31, 23
2, 39600, Note_on_c, 0, 31, 0
2, 39600, Note_on_c, 0, 29, 21
2, 39770, Note_on_c, 0, 29, 0
2, 39780, Note_on_c, 0, 29, 13
2, 39835, Note_on_c, 0, 29, 0
2, 39840, Note_on_c, 0, 29, 11
2, 40010, Note_on_c, 0, 29, 0
2, 40020, Note_on_c, 0, 24, 3
2, 40190, Note_on_c, 0, 24, 0
2, 40190, End_track
3, 0, Start_track
3, 0, MIDI_port, 0
3, 0, Program_c, 1, 0
3, 0, Control_c, 1, 7, 110
3, 0, Control_c, 1, 10, 0
3, 0, Control_c, 1, 1, 0
3, 20, Control_c, 1, 11, 64
3, 120, Control_c, 1, 65, 0
3, 120, Control_c, 1, 67, 0
3, 120, Control_c, 1, 93, 0
3, 120, Control_c, 1, 91, 64
3, 120, Control_c, 1, 64, 0
3, 120, Pitch_bend_c, 1, 8192
3, 120, Control_c, 1, 68, 0
3, 480, Note_on_c, 1, 63, 100
3, 540, Note_on_c, 1, 63, 0
3, 540, Note_on_c, 1, 60, 100
3, 600, Note_on_c, 1, 60, 0
3, 600, Note_on_c, 1, 58, 100
3, 660, Note_on_c, 1, 58, 0
3, 660, Note_on_c, 1, 60, 100
3, 840, Note_on_c, 1, 60, 0
3, 840, Note_on_c, 1, 60, 100
3, 900, Note_on_c, 1, 60, 0
3, 900, Note_on_c, 1, 61, 100
3, 960, Note_on_c, 1, 61, 0
3, 960, Note_on_c, 1, 63, 100
3, 1020, Note_on_c, 1, 63, 0
3, 1020, Note_on_c, 1, 63, 100
3, 1080, Note_on_c, 1, 63, 0
3, 1080, Note_on_c, 1, 65, 100
3, 1140, Note_on_c, 1, 65, 0
3, 1140, Note_on_c, 1, 65, 100
3, 1200, Note_on_c, 1, 65, 0
3, 1200, Note_on_c, 1, 67, 100
3, 1260, Note_on_c, 1, 67, 0
3, 1260, Note_on_c, 1, 68, 100
3, 1320, Note_on_c, 1, 68, 0
3, 1380, Note_on_c, 1, 58, 100
3, 1500, Note_on_c, 1, 58, 0
3, 1500, Note_on_c, 1, 55, 100
3, 1560, Note_on_c, 1, 55, 0
3, 1560, Note_on_c, 1, 51, 100
3, 1620, Note_on_c, 1, 51, 0
3, 1620, Note_on_c, 1, 55, 100
3, 1740, Note_on_c, 1, 55, 0
3, 1800, Note_on_c, 1, 60, 100
3, 1860, Note_on_c, 1, 60, 0
3, 1860, Note_on_c, 1, 63, 100
3, 1920, Note_on_c, 1, 63, 0
3, 1920, Note_on_c, 1, 65, 100
3, 1980, Note_on_c, 1, 65, 0
3, 1980, Note_on_c, 1, 61, 100
3, 2040, Note_on_c, 1, 61, 0
3, 2040, Note_on_c, 1, 58, 100
3, 2100, Note_on_c, 1, 58, 0
3, 2100, Note_on_c, 1, 68, 100
3, 2100, Note_on_c, 1, 65, 100
3, 2220, Note_on_c, 1, 65, 0
3, 2220, Note_on_c, 1, 68, 0
3, 2220, Note_on_c, 1, 65, 100
3, 2220, Note_on_c, 1, 61, 100
3, 2280, Note_on_c, 1, 61, 0
3, 2280, Note_on_c, 1, 65, 0
3, 2280, Note_on_c, 1, 61, 100
3, 2280, Note_on_c, 1, 58, 100
3, 2340, Note_on_c, 1, 65, 100
3, 2400, Note_on_c, 1, 65, 0
3, 2400, Note_on_c, 1, 58, 0
3, 2400, Note_on_c, 1, 61, 0
3, 2400, Note_on_c, 1, 72, 100
3, 2405, Note_on_c, 1, 75, 100
3, 2880, Note_on_c, 1, 72, 0
3, 2885, Note_on_c, 1, 75, 0
3, 6720, Note_on_c, 1, 32, 100
3, 6890, Note_on_c, 1, 32, 0
3, 6900, Note_on_c, 1, 32, 100
3, 6955, Note_on_c, 1, 32, 0
3, 6960, Note_on_c, 1, 32, 100
3, 7200, Note_on_c, 1, 32, 0
3, 7200, Note_on_c, 1, 29, 100
3, 7370, Note_on_c, 1, 29, 0
3, 7380, Note_on_c, 1, 29, 100
3, 7435, Note_on_c, 1, 29, 0
3, 7440, Note_on_c, 1, 29, 100
3, 7680, Note_on_c, 1, 29, 0
3, 7680, Note_on_c, 1, 36, 100
3, 7850, Note_on_c, 1, 36, 0
3, 7860, Note_on_c, 1, 31, 100
3, 7915, Note_on_c, 1, 31, 0
3, 7920, Note_on_c, 1, 36, 100
3, 8090, Note_on_c, 1, 36, 0
3, 8100, Note_on_c, 1, 43, 100
3, 8155, Note_on_c, 1, 43, 0
3, 8160, Note_on_c, 1, 48, 100
3, 8330, Note_on_c, 1, 48, 0
3, 8340, Note_on_c, 1, 43, 100
3, 8395, Note_on_c, 1, 43, 0
3, 8400, Note_on_c, 1, 36, 100
3, 8580, Note_on_c, 1, 36, 0
3, 8580, Note_on_c, 1, 43, 100
3, 8640, Note_on_c, 1, 43, 0
3, 8640, Note_on_c, 1, 41, 100
3, 8810, Note_on_c, 1, 41, 0
3, 8820, Note_on_c, 1, 41, 100
3, 8875, Note_on_c, 1, 41, 0
3, 8880, Note_on_c, 1, 41, 100
3, 9120, Note_on_c, 1, 41, 0
3, 9120, Note_on_c, 1, 36, 100
3, 9290, Note_on_c, 1, 36, 0
3, 9300, Note_on_c, 1, 36, 100
3, 9355, Note_on_c, 1, 36, 0
3, 9360, Note_on_c, 1, 36, 100
3, 9600, Note_on_c, 1, 36, 0
3, 9600, Note_on_c, 1, 37, 100
3, 9770, Note_on_c, 1, 37, 0
3, 9780, Note_on_c, 1, 37, 100
3, 9835, Note_on_c, 1, 37, 0
3, 9840, Note_on_c, 1, 37, 100
3, 10080, Note_on_c, 1, 37, 0
3, 10080, Note_on_c, 1, 39, 100
3, 10250, Note_on_c, 1, 39, 0
3, 10260, Note_on_c, 1, 39, 100
3, 10315, Note_on_c, 1, 39, 0
3, 10320, Note_on_c, 1, 39, 100
3, 10560, Note_on_c, 1, 39, 0
3, 10560, Note_on_c, 1, 41, 100
3, 10730, Note_on_c, 1, 41, 0
3, 10740, Note_on_c, 1, 41, 100
3, 10795, Note_on_c, 1, 41, 0
3, 10800, Note_on_c, 1, 39, 100
3, 10970, Note_on_c, 1, 39, 0
3, 10980, Note_on_c, 1, 39, 100
3, 11035, Note_on_c, 1, 39, 0
3, 11040, Note_on_c, 1, 37, 100
3, 11210, Note_on_c, 1, 37, 0
3, 11220, Note_on_c, 1, 37, 100
3, 11275, Note_on_c, 1, 37, 0
3, 11280, Note_on_c, 1, 39, 100
3, 11450, Note_on_c, 1, 39, 0
3, 11460, Note_on_c, 1, 39, 100
3, 11515, Note_on_c, 1, 39, 0
3, 11520, Note_on_c, 1, 44, 100
3, 11690, Note_on_c, 1, 44, 0
3, 11700, Note_on_c, 1, 44, 100
3, 11755, Note_on_c, 1, 44, 0
3, 11760, Note_on_c, 1, 44, 100
3, 11930, Note_on_c, 1, 44, 0
3, 11940, Note_on_c, 1, 44, 100
3, 12180, Note_on_c, 1, 44, 0
3, 12480, Note_on_c, 1, 36, 100
3, 12650, Note_on_c, 1, 36, 0
3, 12660, Note_on_c, 1, 36, 100
3, 12715, Note_on_c, 1, 36, 0
3, 12720, Note_on_c, 1, 36, 100
3, 12900, Note_on_c, 1, 36, 0
3, 12900, Note_on_c, 1, 36, 100
3, 12960, Note_on_c, 1, 36, 0
3, 12960, Note_on_c, 1, 29, 100
3, 13130, Note_on_c, 1, 29, 0
3, 13140, Note_on_c, 1, 29, 100
3, 13195, Note_on_c, 1, 29, 0
3, 13200, Note_on_c, 1, 24, 100
3, 13255, Note_on_c, 1, 24, 0
3, 13260, Note_on_c, 1, 29, 100
3, 13380, Note_on_c, 1, 29, 0
3, 13380, Note_on_c, 1, 36, 100
3, 13435, Note_on_c, 1, 36, 0
3, 13440, Note_on_c, 1, 37, 100
3, 13610, Note_on_c, 1, 37, 0
3, 13620, Note_on_c, 1, 37, 100
3, 13675, Note_on_c, 1, 37, 0
3, 13680, Note_on_c, 1, 39, 100
3, 13850, Note_on_c, 1, 39, 0
3, 13860, Note_on_c, 1, 39, 100
3, 13915, Note_on_c, 1, 39, 0
3, 13920, Note_on_c, 1, 44, 100
3, 14090, Note_on_c, 1, 44, 0
3, 14100, Note_on_c, 1, 32, 100
3, 14200, Note_on_c, 1, 32, 0
3, 14220, Note_on_c, 1, 22, 100
3, 14340, Note_on_c, 1, 22, 0
3, 14340, Note_on_c, 1, 23, 100
3, 14400, Note_on_c, 1, 23, 0
3, 14400, Note_on_c, 1, 24, 100
3, 14570, Note_on_c, 1, 24, 0
3, 14580, Note_on_c, 1, 24, 100
3, 14635, Note_on_c, 1, 24, 0
3, 14640, Note_on_c, 1, 24, 100
3, 14760, Note_on_c, 1, 24, 0
3, 14760, Note_on_c, 1, 36, 100
3, 14820, Note_on_c, 1, 36, 0
3, 14820, Note_on_c, 1, 43, 100
3, 14880, Note_on_c, 1, 43, 0
3, 14880, Note_on_c, 1, 29, 100
3, 15050, Note_on_c, 1, 29, 0
3, 15060, Note_on_c, 1, 29, 100
3, 15115, Note_on_c, 1, 29, 0
3, 15120, Note_on_c, 1, 29, 100
3, 15240, Note_on_c, 1, 29, 0
3, 15240, Note_on_c, 1, 29, 100
3, 15300, Note_on_c, 1, 29, 0
3, 15300, Note_on_c, 1, 29, 100
3, 15360, Note_on_c, 1, 29, 0
3, 15360, Note_on_c, 1, 30, 100
3, 15530, Note_on_c, 1, 30, 0
3, 15540, Note_on_c, 1, 30, 100
3, 15595, Note_on_c, 1, 30, 0
3, 15600, Note_on_c, 1, 30, 100
3, 15840, Note_on_c, 1, 30, 0
3, 15840, Note_on_c, 1, 27, 100
3, 15895, Note_on_c, 1, 27, 0
3, 15900, Note_on_c, 1, 27, 100
3, 15955, Note_on_c, 1, 27, 0
3, 15960, Note_on_c, 1, 34, 100
3, 16015, Note_on_c, 1, 34, 0
3, 16020, Note_on_c, 1, 34, 100
3, 16075, Note_on_c, 1, 34, 0
3, 16080, Note_on_c, 1, 39, 100
3, 16135, Note_on_c, 1, 39, 0
3, 16140, Note_on_c, 1, 39, 100
3, 16195, Note_on_c, 1, 39, 0
3, 16200, Note_on_c, 1, 34, 100
3, 16255, Note_on_c, 1, 34, 0
3, 16260, Note_on_c, 1, 34, 100
3, 16315, Note_on_c, 1, 34, 0
3, 16320, Note_on_c, 1, 39, 100
3, 16375, Note_on_c, 1, 39, 0
3, 16380, Note_on_c, 1, 39, 100
3, 16435, Note_on_c, 1, 39, 0
3, 16440, Note_on_c, 1, 34, 100
3, 16495, Note_on_c, 1, 34, 0
3, 16500, Note_on_c, 1, 34, 100
3, 16555, Note_on_c, 1, 34, 0
3, 16560, Note_on_c, 1, 39, 100
3, 16650, Note_on_c, 1, 39, 0
3, 16650, Note_on_c, 1, 39, 100
3, 16675, Note_on_c, 1, 39, 0
3, 16680, Note_on_c, 1, 39, 100
3, 16735, Note_on_c, 1, 39, 0
3, 16740, Note_on_c, 1, 39, 100
3, 16795, Note_on_c, 1, 39, 0
3, 16800, Note_on_c, 1, 32, 100
3, 16970, Note_on_c, 1, 32, 0
3, 16980, Note_on_c, 1, 32, 100
3, 17035, Note_on_c, 1, 32, 0
3, 17040, Note_on_c, 1, 32, 100
3, 17280, Note_on_c, 1, 32, 0
3, 17280, Note_on_c, 1, 29, 100
3, 17450, Note_on_c, 1, 29, 0
3, 17460, Note_on_c, 1, 29, 100
3, 17515, Note_on_c, 1, 29, 0
3, 17520, Note_on_c, 1, 29, 100
3, 17760, Note_on_c, 1, 29, 0
3, 17760, Note_on_c, 1, 36, 100
3, 17930, Note_on_c, 1, 36, 0
3, 17940, Note_on_c, 1, 31, 100
3, 17995, Note_on_c, 1, 31, 0
3, 18000, Note_on_c, 1, 36, 100
3, 18170, Note_on_c, 1, 36, 0
3, 18180, Note_on_c, 1, 43, 100
3, 18235, Note_on_c, 1, 43, 0
3, 18240, Note_on_c, 1, 48, 100
3, 18410, Note_on_c, 1, 48, 0
3, 18420, Note_on_c, 1, 43, 100
3, 18475, Note_on_c, 1, 43, 0
3, 18480, Note_on_c, 1, 36, 100
3, 18660, Note_on_c, 1, 36, 0
3, 18660, Note_on_c, 1, 43, 100
3, 18720, Note_on_c, 1, 43, 0
3, 18720, Note_on_c, 1, 41, 100
3, 18890, Note_on_c, 1, 41, 0
3, 18900, Note_on_c, 1, 41, 100
3, 18955, Note_on_c, 1, 41, 0
3, 18960, Note_on_c, 1, 41, 100
3, 19200, Note_on_c, 1, 41, 0
3, 19200, Note_on_c, 1, 36, 100
3, 19370, Note_on_c, 1, 36, 0
3, 19380, Note_on_c, 1, 36, 100
3, 19435, Note_on_c, 1, 36, 0
3, 19440, Note_on_c, 1, 36, 100
3, 19680, Note_on_c, 1, 36, 0
3, 19680, Note_on_c, 1, 37, 100
3, 19850, Note_on_c, 1, 37, 0
3, 19860, Note_on_c, 1, 37, 100
3, 19915, Note_on_c, 1, 37, 0
3, 19920, Note_on_c, 1, 37, 100
3, 20160, Note_on_c, 1, 37, 0
3, 20160, Note_on_c, 1, 39, 100
3, 20330, Note_on_c, 1, 39, 0
3, 20340, Note_on_c, 1, 39, 100
3, 20395, Note_on_c, 1, 39, 0
3, 20400, Note_on_c, 1, 39, 100
3, 20640, Note_on_c, 1, 39, 0
3, 20640, Note_on_c, 1, 41, 100
3, 20810, Note_on_c, 1, 41, 0
3, 20820, Note_on_c, 1, 41, 100
3, 20875, Note_on_c, 1, 41, 0
3, 20880, Note_on_c, 1, 39, 100
3, 21050, Note_on_c, 1, 39, 0
3, 21060, Note_on_c, 1, 39, 100
3, 21115, Note_on_c, 1, 39, 0
3, 21120, Note_on_c, 1, 37, 100
3, 21290, Note_on_c, 1, 37, 0
3, 21300, Note_on_c, 1, 37, 100
3, 21355, Note_on_c, 1, 37, 0
3, 21360, Note_on_c, 1, 37, 100
3, 21600, Note_on_c, 1, 37, 0
3, 21600, Note_on_c, 1, 37, 125
3, 21770, Note_on_c, 1, 37, 0
3, 21780, Note_on_c, 1, 37, 125
3, 21835, Note_on_c, 1, 37, 0
3, 21840, Note_on_c, 1, 37, 125
3, 21960, Note_on_c, 1, 37, 0
3, 21960, Note_on_c, 1, 34, 125
3, 22130, Note_on_c, 1, 34, 0
3, 22140, Note_on_c, 1, 34, 125
3, 22195, Note_on_c, 1, 34, 0
3, 22200, Note_on_c, 1, 39, 125
3, 22255, Note_on_c, 1, 39, 0
3, 22260, Note_on_c, 1, 39, 125
3, 22380, Note_on_c, 1, 39, 0
3, 22380, Note_on_c, 1, 32, 125
3, 22500, Note_on_c, 1, 32, 0
3, 22500, Note_on_c, 1, 44, 125
3, 22620, Note_on_c, 1, 44, 0
3, 22620, Note_on_c, 1, 36, 125
3, 22740, Note_on_c, 1, 36, 0
3, 22740, Note_on_c, 1, 37, 125
3, 22860, Note_on_c, 1, 37, 0
3, 22860, Note_on_c, 1, 39, 125
3, 22920, Note_on_c, 1, 39, 0
3, 22920, Note_on_c, 1, 32, 100
3, 23000, Note_on_c, 1, 32, 0
3, 23400, Note_on_c, 1, 36, 100
3, 23570, Note_on_c, 1, 36, 0
3, 23580, Note_on_c, 1, 36, 100
3, 23635, Note_on_c, 1, 36, 0
3, 23640, Note_on_c, 1, 36, 100
3, 23820, Note_on_c, 1, 36, 0
3, 23820, Note_on_c, 1, 36, 100
3, 23880, Note_on_c, 1, 36, 0
3, 23880, Note_on_c, 1, 29, 100
3, 24050, Note_on_c, 1, 29, 0
3, 24060, Note_on_c, 1, 29, 100
3, 24115, Note_on_c, 1, 29, 0
3, 24120, Note_on_c, 1, 24, 100
3, 24175, Note_on_c, 1, 24, 0
3, 24180, Note_on_c, 1, 29, 100
3, 24300, Note_on_c, 1, 29, 0
3, 24300, Note_on_c, 1, 36, 100
3, 24355, Note_on_c, 1, 36, 0
3, 24360, Note_on_c, 1, 37, 100
3, 24530, Note_on_c, 1, 37, 0
3, 24540, Note_on_c, 1, 37, 100
3, 24595, Note_on_c, 1, 37, 0
3, 24600, Note_on_c, 1, 39, 100
3, 24770, Note_on_c, 1, 39, 0
3, 24780, Note_on_c, 1, 39, 100
3, 24835, Note_on_c, 1, 39, 0
3, 24840, Note_on_c, 1, 44, 100
3, 25010, Note_on_c, 1, 44, 0
3, 25020, Note_on_c, 1, 44, 100
3, 25120, Note_on_c, 1, 44, 0
3, 25140, Note_on_c, 1, 34, 100
3, 25260, Note_on_c, 1, 34, 0
3, 25260, Note_on_c, 1, 35, 100
3, 25320, Note_on_c, 1, 35, 0
3, 25320, Note_on_c, 1, 24, 100
3, 25490, Note_on_c, 1, 24, 0
3, 25500, Note_on_c, 1, 24, 100
3, 25555, Note_on_c, 1, 24, 0
3, 25560, Note_on_c, 1, 24, 100
3, 25680, Note_on_c, 1, 24, 0
3, 25680, Note_on_c, 1, 36, 100
3, 25740, Note_on_c, 1, 36, 0
3, 25740, Note_on_c, 1, 43, 100
3, 25800, Note_on_c, 1, 43, 0
3, 25800, Note_on_c, 1, 29, 100
3, 25970, Note_on_c, 1, 29, 0
3, 25980, Note_on_c, 1, 29, 100
3, 26035, Note_on_c, 1, 29, 0
3, 26040, Note_on_c, 1, 29, 100
3, 26160, Note_on_c, 1, 29, 0
3, 26160, Note_on_c, 1, 29, 100
3, 26220, Note_on_c, 1, 29, 0
3, 26220, Note_on_c, 1, 29, 100
3, 26280, Note_on_c, 1, 29, 0
3, 26280, Note_on_c, 1, 30, 100
3, 26450, Note_on_c, 1, 30, 0
3, 26460, Note_on_c, 1, 30, 100
3, 26515, Note_on_c, 1, 30, 0
3, 26520, Note_on_c, 1, 30, 100
3, 26760, Note_on_c, 1, 30, 0
3, 26760, Note_on_c, 1, 27, 100
3, 26815, Note_on_c, 1, 27, 0
3, 26820, Note_on_c, 1, 27, 100
3, 26875, Note_on_c, 1, 27, 0
3, 26880, Note_on_c, 1, 34, 100
3, 26935, Note_on_c, 1, 34, 0
3, 26940, Note_on_c, 1, 34, 100
3, 26995, Note_on_c, 1, 34, 0
3, 27000, Note_on_c, 1, 39, 100
3, 27055, Note_on_c, 1, 39, 0
3, 27060, Note_on_c, 1, 39, 100
3, 27115, Note_on_c, 1, 39, 0
3, 27120, Note_on_c, 1, 34, 100
3, 27175, Note_on_c, 1, 34, 0
3, 27180, Note_on_c, 1, 34, 100
3, 27235, Note_on_c, 1, 34, 0
3, 27240, Note_on_c, 1, 39, 100
3, 27295, Note_on_c, 1, 39, 0
3, 27300, Note_on_c, 1, 39, 100
3, 27355, Note_on_c, 1, 39, 0
3, 27360, Note_on_c, 1, 34, 100
3, 27415, Note_on_c, 1, 34, 0
3, 27420, Note_on_c, 1, 34, 100
3, 27475, Note_on_c, 1, 34, 0
3, 27480, Note_on_c, 1, 39, 100
3, 27570, Note_on_c, 1, 39, 0
3, 27570, Note_on_c, 1, 39, 100
3, 27595, Note_on_c, 1, 39, 0
3, 27600, Note_on_c, 1, 39, 100
3, 27655, Note_on_c, 1, 39, 0
3, 27660, Note_on_c, 1, 39, 100
3, 27715, Note_on_c, 1, 39, 0
3, 27720, Note_on_c, 1, 32, 100
3, 27890, Note_on_c, 1, 32, 0
3, 27900, Note_on_c, 1, 32, 100
3, 27955, Note_on_c, 1, 32, 0
3, 27960, Note_on_c, 1, 32, 100
3, 28200, Note_on_c, 1, 32, 0
3, 28200, Note_on_c, 1, 29, 100
3, 28370, Note_on_c, 1, 29, 0
3, 28380, Note_on_c, 1, 29, 100
3, 28435, Note_on_c, 1, 29, 0
3, 28440, Note_on_c, 1, 29, 100
3, 28680, Note_on_c, 1, 29, 0
3, 28680, Note_on_c, 1, 36, 100
3, 28850, Note_on_c, 1, 36, 0
3, 28860, Note_on_c, 1, 31, 100
3, 28915, Note_on_c, 1, 31, 0
3, 28920, Note_on_c, 1, 36, 100
3, 29090, Note_on_c, 1, 36, 0
3, 29100, Note_on_c, 1, 43, 100
3, 29155, Note_on_c, 1, 43, 0
3, 29160, Note_on_c, 1, 48, 100
3, 29330, Note_on_c, 1, 48, 0
3, 29340, Note_on_c, 1, 43, 100
3, 29395, Note_on_c, 1, 43, 0
3, 29400, Note_on_c, 1, 36, 100
3, 29580, Note_on_c, 1, 36, 0
3, 29580, Note_on_c, 1, 43, 100
3, 29640, Note_on_c, 1, 43, 0
3, 29640, Note_on_c, 1, 41, 100
3, 29810, Note_on_c, 1, 41, 0
3, 29820, Note_on_c, 1, 41, 100
3, 29875, Note_on_c, 1, 41, 0
3, 29880, Note_on_c, 1, 41, 100
3, 30120, Note_on_c, 1, 41, 0
3, 30120, Note_on_c, 1, 36, 100
3, 30290, Note_on_c, 1, 36, 0
3, 30300, Note_on_c, 1, 36, 100
3, 30355, Note_on_c, 1, 36, 0
3, 30360, Note_on_c, 1, 36, 100
3, 30600, Note_on_c, 1, 36, 0
3, 30600, Note_on_c, 1, 37, 100
3, 30770, Note_on_c, 1, 37, 0
3, 30780, Note_on_c, 1, 37, 100
3, 30835, Note_on_c, 1, 37, 0
3, 30840, Note_on_c, 1, 37, 100
3, 31080, Note_on_c, 1, 37, 0
3, 31080, Note_on_c, 1, 39, 100
3, 31250, Note_on_c, 1, 39, 0
3, 31260, Note_on_c, 1, 39, 100
3, 31315, Note_on_c, 1, 39, 0
3, 31320, Note_on_c, 1, 39, 100
3, 31560, Note_on_c, 1, 39, 0
3, 31560, Note_on_c, 1, 41, 100
3, 31730, Note_on_c, 1, 41, 0
3, 31740, Note_on_c, 1, 41, 100
3, 31795, Note_on_c, 1, 41, 0
3, 31800, Note_on_c, 1, 39, 100
3, 31970, Note_on_c, 1, 39, 0
3, 31980, Note_on_c, 1, 39, 100
3, 32035, Note_on_c, 1, 39, 0
3, 32040, Note_on_c, 1, 37, 100
3, 32210, Note_on_c, 1, 37, 0
3, 32220, Note_on_c, 1, 37, 100
3, 32275, Note_on_c, 1, 37, 0
3, 32280, Note_on_c, 1, 37, 100
3, 32520, Note_on_c, 1, 37, 0
3, 32520, Note_on_c, 1, 37, 100
3, 32690, Note_on_c, 1, 37, 0
3, 32700, Note_on_c, 1, 37, 100
3, 32755, Note_on_c, 1, 37, 0
3, 32760, Note_on_c, 1, 37, 100
3, 32880, Note_on_c, 1, 37, 0
3, 32880, Note_on_c, 1, 37, 100
3, 33050, Note_on_c, 1, 37, 0
3, 33060, Note_on_c, 1, 46, 100
3, 33115, Note_on_c, 1, 46, 0
3, 33120, Note_on_c, 1, 51, 100
3, 33175, Note_on_c, 1, 51, 0
3, 33180, Note_on_c, 1, 51, 100
3, 33300, Note_on_c, 1, 51, 0
3, 33300, Note_on_c, 1, 44, 100
3, 33470, Note_on_c, 1, 44, 0
3, 33540, Note_on_c, 1, 44, 100
3, 33595, Note_on_c, 1, 44, 0
3, 33600, Note_on_c, 1, 44, 100
3, 33770, Note_on_c, 1, 44, 0
3, 33780, Note_on_c, 1, 43, 100
3, 33840, Note_on_c, 1, 43, 0
3, 33840, Note_on_c, 1, 41, 100
3, 34010, Note_on_c, 1, 41, 0
3, 34020, Note_on_c, 1, 41, 100
3, 34075, Note_on_c, 1, 41, 0
3, 34080, Note_on_c, 1, 41, 100
3, 34250, Note_on_c, 1, 41, 0
3, 34260, Note_on_c, 1, 36, 100
3, 34430, Note_on_c, 1, 36, 0
3, 34500, Note_on_c, 1, 24, 100
3, 34740, Note_on_c, 1, 24, 0
3, 34740, Note_on_c, 1, 27, 100
3, 34980, Note_on_c, 1, 27, 0
3, 34980, Note_on_c, 1, 27, 100
3, 35150, Note_on_c, 1, 27, 0
3, 35160, Note_on_c, 1, 27, 100
3, 35215, Note_on_c, 1, 27, 0
3, 35220, Note_on_c, 1, 27, 100
3, 35275, Note_on_c, 1, 27, 0
3, 35280, Note_on_c, 1, 32, 100
3, 35450, Note_on_c, 1, 32, 0
3, 35460, Note_on_c, 1, 32, 100
3, 35515, Note_on_c, 1, 32, 0
3, 35520, Note_on_c, 1, 32, 100
3, 35690, Note_on_c, 1, 32, 0
3, 35700, Note_on_c, 1, 31, 100
3, 35760, Note_on_c, 1, 31, 0
3, 35760, Note_on_c, 1, 29, 100
3, 35930, Note_on_c, 1, 29, 0
3, 35940, Note_on_c, 1, 29, 100
3, 35995, Note_on_c, 1, 29, 0
3, 36000, Note_on_c, 1, 29, 100
3, 36170, Note_on_c, 1, 29, 0
3, 36180, Note_on_c, 1, 24, 100
3, 36350, Note_on_c, 1, 24, 0
3, 36420, Note_on_c, 1, 24, 100
3, 36660, Note_on_c, 1, 24, 0
3, 36660, Note_on_c, 1, 27, 100
3, 36900, Note_on_c, 1, 27, 0
3, 36900, Note_on_c, 1, 27, 100
3, 37070, Note_on_c, 1, 27, 0
3, 37080, Note_on_c, 1, 27, 100
3, 37135, Note_on_c, 1, 27, 0
3, 37140, Note_on_c, 1, 27, 100
3, 37195, Note_on_c, 1, 27, 0
3, 37200, Note_on_c, 1, 32, 100
3, 37370, Note_on_c, 1, 32, 0
3, 37380, Note_on_c, 1, 32, 94
3, 37435, Note_on_c, 1, 32, 0
3, 37440, Note_on_c, 1, 32, 92
3, 37610, Note_on_c, 1, 32, 0
3, 37620, Note_on_c, 1, 31, 86
3, 37680, Note_on_c, 1, 31, 0
3, 37680, Note_on_c, 1, 29, 84
3, 37850, Note_on_c, 1, 29, 0
3, 37860, Note_on_c, 1, 29, 78
3, 37915, Note_on_c, 1, 29, 0
3, 37920, Note_on_c, 1, 29, 75
3, 38090, Note_on_c, 1, 29, 0
3, 38100, Note_on_c, 1, 24, 69
3, 38270, Note_on_c, 1, 24, 0
3, 38340, Note_on_c, 1, 24, 61
3, 38580, Note_on_c, 1, 24, 0
3, 38580, Note_on_c, 1, 27, 53
3, 38820, Note_on_c, 1, 27, 0
3, 38820, Note_on_c, 1, 27, 44
3, 38990, Note_on_c, 1, 27, 0
3, 39000, Note_on_c, 1, 27, 38
3, 39055, Note_on_c, 1, 27, 0
3, 39060, Note_on_c, 1, 27, 36
3, 39115, Note_on_c, 1, 27, 0
3, 39120, Note_on_c, 1, 32, 34
3, 39290, Note_on_c, 1, 32, 0
3, 39300, Note_on_c, 1, 32, 28
3, 39355, Note_on_c, 1, 32, 0
3, 39360, Note_on_c, 1, 32, 25
3, 39530, Note_on_c, 1, 32, 0
3, 39540, Note_on_c, 1, 31, 19
3, 39600, Note_on_c, 1, 31, 0
3, 39600, Note_on_c, 1, 29, 17
3, 39770, Note_on_c, 1, 29, 0
3, 39780, Note_on_c, 1, 29, 11
3, 39835, Note_on_c, 1, 29, 0
3, 39840, Note_on_c, 1, 29, 9
3, 40010, Note_on_c, 1, 29, 0
3, 40020, Note_on_c, 1, 24, 3
3, 40190, Note_on_c, 1, 24, 0
3, 40190, End_track
4, 0, Start_track
4, 0, MIDI_port, 0
4, 0, Program_c, 2, 11
4, 0, Control_c, 2, 7, 75
4, 0, Control_c, 2, 10, 127
4, 0, Control_c, 2, 1, 0
4, 20, Control_c, 2, 11, 64
4, 120, Control_c, 2, 65, 0
4, 120, Control_c, 2, 67, 0
4, 120, Control_c, 2, 93, 0
4, 120, Control_c, 2, 91, 64
4, 120, Control_c, 2, 64, 0
4, 120, Pitch_bend_c, 2, 8192
4, 120, Control_c, 2, 68, 0
4, 480, Note_on_c, 2, 75, 100
4, 540, Note_on_c, 2, 75, 0
4, 540, Note_on_c, 2, 72, 100
4, 600, Note_on_c, 2, 72, 0
4, 600, Note_on_c, 2, 70, 100
4, 660, Note_on_c, 2, 70, 0
4, 660, Note_on_c, 2, 72, 100
4, 840, Note_on_c, 2, 72, 0
4, 840, Note_on_c, 2, 72, 100
4, 900, Note_on_c, 2, 72, 0
4, 900, Note_on_c, 2, 73, 100
4, 960, Note_on_c, 2, 73, 0
4, 960, Note_on_c, 2, 75, 100
4, 1020, Note_on_c, 2, 75, 0
4, 1020, Note_on_c, 2, 75, 100
4, 1080, Note_on_c, 2, 75, 0
4, 1080, Note_on_c, 2, 77, 100
4, 1140, Note_on_c, 2, 77, 0
4, 1140, Note_on_c, 2, 77, 100
4, 1200, Note_on_c, 2, 77, 0
4, 1200, Note_on_c, 2, 79, 100
4, 1260, Note_on_c, 2, 79, 0
4, 1260, Note_on_c, 2, 80, 100
4, 1320, Note_on_c, 2, 80, 0
4, 1380, Note_on_c, 2, 70, 100
4, 1500, Note_on_c, 2, 70, 0
4, 1500, Note_on_c, 2, 67, 100
4, 1560, Note_on_c, 2, 67, 0
4, 1560, Note_on_c, 2, 63, 100
4, 1620, Note_on_c, 2, 63, 0
4, 1620, Note_on_c, 2, 67, 100
4, 1740, Note_on_c, 2, 67, 0
4, 1800, Note_on_c, 2, 72, 100
4, 1860, Note_on_c, 2, 72, 0
4, 1860, Note_on_c, 2, 75, 100
4, 1920, Note_on_c, 2, 75, 0
4, 1920, Note_on_c, 2, 77, 100
4, 1980, Note_on_c, 2, 77, 0
4, 1980, Note_on_c, 2, 73, 100
4, 2040, Note_on_c, 2, 73, 0
4, 2040, Note_on_c, 2, 70, 100
4, 2100, Note_on_c, 2, 70, 0
4, 2100, Note_on_c, 2, 80, 100
4, 2100, Note_on_c, 2, 77, 100
4, 2220, Note_on_c, 2, 77, 0
4, 2220, Note_on_c, 2, 80, 0
4, 2220, Note_on_c, 2, 77, 100
4, 2220, Note_on_c, 2, 73, 100
4, 2280, Note_on_c, 2, 73, 0
4, 2280, Note_on_c, 2, 77, 0
4, 2280, Note_on_c, 2, 73, 100
4, 2280, Note_on_c, 2, 70, 100
4, 2340, Note_on_c, 2, 77, 100
4, 2400, Note_on_c, 2, 77, 0
4, 2400, Note_on_c, 2, 70, 0
4, 2400, Note_on_c, 2, 73, 0
4, 23040, Note_on_c, 2, 80, 100
4, 23160, Note_on_c, 2, 80, 0
4, 23160, Note_on_c, 2, 79, 100
4, 23215, Note_on_c, 2, 79, 0
4, 23220, Note_on_c, 2, 77, 100
4, 23275, Note_on_c, 2, 77, 0
4, 23280, Note_on_c, 2, 75, 100
4, 23335, Note_on_c, 2, 75, 0
4, 23340, Note_on_c, 2, 73, 100
4, 23395, Note_on_c, 2, 73, 0
4, 23400, Note_on_c, 2, 75, 100
4, 23580, Note_on_c, 2, 75, 0
4, 23580, Note_on_c, 2, 72, 100
4, 23640, Note_on_c, 2, 72, 0
4, 23640, Note_on_c, 2, 73, 100
4, 23700, Note_on_c, 2, 73, 0
4, 23700, Note_on_c, 2, 75, 100
4, 23820, Note_on_c, 2, 75, 0
4, 23820, Note_on_c, 2, 68, 100
4, 23940, Note_on_c, 2, 68, 0
4, 24000, Note_on_c, 2, 80, 100
4, 24120, Note_on_c, 2, 80, 0
4, 24120, Note_on_c, 2, 79, 100
4, 24175, Note_on_c, 2, 79, 0
4, 24180, Note_on_c, 2, 77, 100
4, 24235, Note_on_c, 2, 77, 0
4, 24240, Note_on_c, 2, 75, 100
4, 24295, Note_on_c, 2, 75, 0
4, 24300, Note_on_c, 2, 73, 100
4, 24355, Note_on_c, 2, 73, 0
4, 24360, Note_on_c, 2, 75, 100
4, 24540, Note_on_c, 2, 75, 0
4, 24540, Note_on_c, 2, 68, 100
4, 24600, Note_on_c, 2, 68, 0
4, 24600, Note_on_c, 2, 68, 100
4, 24660, Note_on_c, 2, 68, 0
4, 24660, Note_on_c, 2, 70, 100
4, 24780, Note_on_c, 2, 70, 0
4, 24780, Note_on_c, 2, 72, 100
4, 24900, Note_on_c, 2, 72, 0
4, 35700, Control_c, 2, 10, 0
4, 35700, Note_on_c, 2, 85, 80
4, 35760, Note_on_c, 2, 85, 0
4, 35760, Note_on_c, 2, 87, 80
4, 35820, Note_on_c, 2, 87, 0
4, 35820, Note_on_c, 2, 87, 80
4, 35880, Note_on_c, 2, 87, 0
4, 35880, Note_on_c, 2, 89, 80
4, 35940, Note_on_c, 2, 89, 0
4, 35940, Note_on_c, 2, 89, 80
4, 36000, Note_on_c, 2, 89, 0
4, 36000, Note_on_c, 2, 91, 80
4, 36060, Note_on_c, 2, 91, 0
4, 36060, Note_on_c, 2, 92, 80
4, 36160, Note_on_c, 2, 92, 0
4, 36180, Note_on_c, 2, 82, 80
4, 36270, Note_on_c, 2, 82, 0
4, 36300, Note_on_c, 2, 79, 80
4, 36360, Note_on_c, 2, 79, 0
4, 36360, Note_on_c, 2, 82, 80
4, 36420, Note_on_c, 2, 82, 0
4, 36420, Note_on_c, 2, 87, 80
4, 36510, Note_on_c, 2, 87, 0
4, 36540, Note_on_c, 2, 82, 80
4, 36600, Note_on_c, 2, 82, 0
4, 36600, Note_on_c, 2, 87, 80
4, 36660, Note_on_c, 2, 87, 0
4, 36660, Note_on_c, 2, 91, 80
4, 36750, Note_on_c, 2, 91, 0
4, 36780, Note_on_c, 2, 87, 80
4, 36840, Note_on_c, 2, 87, 0
4, 36840, Note_on_c, 2, 82, 80
4, 36900, Note_on_c, 2, 82, 0
4, 36900, Note_on_c, 2, 92, 80
4, 36990, Note_on_c, 2, 92, 0
4, 37020, Note_on_c, 2, 89, 80
4, 37080, Note_on_c, 2, 89, 0
4, 37080, Note_on_c, 2, 85, 80
4, 37170, Note_on_c, 2, 85, 0
4, 37620, Note_on_c, 2, 85, 68
4, 37680, Note_on_c, 2, 85, 0
4, 37680, Note_on_c, 2, 87, 67
4, 37740, Note_on_c, 2, 87, 0
4, 37740, Note_on_c, 2, 87, 65
4, 37800, Note_on_c, 2, 87, 0
4, 37800, Note_on_c, 2, 89, 64
4, 37860, Note_on_c, 2, 89, 0
4, 37860, Note_on_c, 2, 89, 62
4, 37920, Note_on_c, 2, 89, 0
4, 37920, Note_on_c, 2, 91, 60
4, 37980, Note_on_c, 2, 91, 0
4, 37980, Note_on_c, 2, 92, 58
4, 38080, Note_on_c, 2, 92, 0
4, 38100, Note_on_c, 2, 82, 55
4, 38190, Note_on_c, 2, 82, 0
4, 38220, Note_on_c, 2, 79, 52
4, 38280, Note_on_c, 2, 79, 0
4, 38280, Note_on_c, 2, 82, 50
4, 38340, Note_on_c, 2, 82, 0
4, 38340, Note_on_c, 2, 87, 48
4, 38430, Note_on_c, 2, 87, 0
4, 38460, Note_on_c, 2, 82, 45
4, 38520, Note_on_c, 2, 82, 0
4, 38520, Note_on_c, 2, 87, 44
4, 38580, Note_on_c, 2, 87, 0
4, 38580, Note_on_c, 2, 91, 42
4, 38670, Note_on_c, 2, 91, 0
4, 38700, Note_on_c, 2, 87, 38
4, 38760, Note_on_c, 2, 87, 0
4, 38760, Note_on_c, 2, 82, 36
4, 38820, Note_on_c, 2, 82, 0
4, 38820, Note_on_c, 2, 92, 35
4, 38910, Note_on_c, 2, 92, 0
4, 38940, Note_on_c, 2, 89, 32
4, 39000, Note_on_c, 2, 89, 0
4, 39000, Note_on_c, 2, 85, 30
4, 39090, Note_on_c, 2, 85, 0
4, 39540, Note_on_c, 2, 85, 15
4, 39600, Note_on_c, 2, 85, 0
4, 39600, Note_on_c, 2, 87, 13
4, 39660, Note_on_c, 2, 87, 0
4, 39660, Note_on_c, 2, 87, 12
4, 39720, Note_on_c, 2, 87, 0
4, 39720, Note_on_c, 2, 89, 10
4, 39780, Note_on_c, 2, 89, 0
4, 39780, Note_on_c, 2, 89, 8
4, 39840, Note_on_c, 2, 89, 0
4, 39840, Note_on_c, 2, 91, 7
4, 39900, Note_on_c, 2, 91, 0
4, 39900, Note_on_c, 2, 92, 5
4, 40000, Note_on_c, 2, 92, 0
4, 40020, Note_on_c, 2, 82, 2
4, 40110, Note_on_c, 2, 82, 0
4, 40110, End_track
5, 0, Start_track
5, 0, MIDI_port, 0
5, 0, Program_c, 3, 25
5, 0, Control_c, 3, 7, 45
5, 0, Control_c, 3, 10, 0
5, 0, Control_c, 3, 1, 0
5, 20, Control_c, 3, 11, 64
5, 120, Control_c, 3, 65, 0
5, 120, Control_c, 3, 67, 0
5, 120, Control_c, 3, 93, 0
5, 120, Control_c, 3, 91, 64
5, 120, Control_c, 3, 64, 0
5, 120, Pitch_bend_c, 3, 8192
5, 120, Control_c, 3, 68, 0
5, 480, Note_on_c, 3, 60, 90
5, 481, Note_on_c, 3, 63, 90
5, 482, Note_on_c, 3, 68, 90
5, 540, Note_on_c, 3, 68, 0
5, 540, Note_on_c, 3, 63, 0
5, 540, Note_on_c, 3, 60, 0
5, 540, Note_on_c, 3, 68, 90
5, 541, Note_on_c, 3, 63, 90
5, 542, Note_on_c, 3, 60, 90
5, 600, Note_on_c, 3, 60, 0
5, 600, Note_on_c, 3, 63, 0
5, 600, Note_on_c, 3, 68, 0
5, 600, Note_on_c, 3, 60, 90
5, 601, Note_on_c, 3, 63, 90
5, 602, Note_on_c, 3, 68, 90
5, 608, Note_on_c, 3, 68, 0
5, 608, Note_on_c, 3, 63, 0
5, 608, Note_on_c, 3, 60, 0
5, 660, Note_on_c, 3, 68, 90
5, 661, Note_on_c, 3, 63, 90
5, 662, Note_on_c, 3, 60, 90
5, 780, Note_on_c, 3, 60, 0
5, 780, Note_on_c, 3, 63, 0
5, 780, Note_on_c, 3, 68, 0
5, 780, Note_on_c, 3, 60, 90
5, 781, Note_on_c, 3, 63, 90
5, 782, Note_on_c, 3, 68, 90
5, 840, Note_on_c, 3, 68, 0
5, 840, Note_on_c, 3, 63, 0
5, 840, Note_on_c, 3, 60, 0
5, 840, Note_on_c, 3, 68, 90
5, 841, Note_on_c, 3, 63, 90
5, 842, Note_on_c, 3, 60, 90
5, 848, Note_on_c, 3, 60, 0
5, 848, Note_on_c, 3, 63, 0
5, 848, Note_on_c, 3, 68, 0
5, 900, Note_on_c, 3, 60, 90
5, 901, Note_on_c, 3, 63, 90
5, 902, Note_on_c, 3, 68, 90
5, 960, Note_on_c, 3, 68, 0
5, 960, Note_on_c, 3, 63, 0
5, 960, Note_on_c, 3, 60, 0
5, 960, Note_on_c, 3, 65, 90
5, 961, Note_on_c, 3, 60, 90
5, 962, Note_on_c, 3, 56, 90
5, 1020, Note_on_c, 3, 56, 0
5, 1020, Note_on_c, 3, 60, 0
5, 1020, Note_on_c, 3, 65, 0
5, 1020, Note_on_c, 3, 56, 90
5, 1021, Note_on_c, 3, 60, 90
5, 1022, Note_on_c, 3, 65, 90
5, 1080, Note_on_c, 3, 65, 0
5, 1080, Note_on_c, 3, 60, 0
5, 1080, Note_on_c, 3, 56, 0
5, 1080, Note_on_c, 3, 65, 90
5, 1081, Note_on_c, 3, 60, 90
5, 1082, Note_on_c, 3, 56, 90
5, 1088, Note_on_c, 3, 56, 0
5, 1088, Note_on_c, 3, 60, 0
5, 1088, Note_on_c, 3, 65, 0
5, 1140, Note_on_c, 3, 56, 90
5, 1141, Note_on_c, 3, 60, 90
5, 1142, Note_on_c, 3, 65, 90
5, 1260, Note_on_c, 3, 65, 0
5, 1260, Note_on_c, 3, 60, 0
5, 1260, Note_on_c, 3, 56, 0
5, 1260, Note_on_c, 3, 65, 90
5, 1261, Note_on_c, 3, 60, 90
5, 1262, Note_on_c, 3, 56, 90
5, 1320, Note_on_c, 3, 56, 0
5, 1320, Note_on_c, 3, 60, 0
5, 1320, Note_on_c, 3, 65, 0
5, 1320, Note_on_c, 3, 56, 90
5, 1321, Note_on_c, 3, 60, 90
5, 1322, Note_on_c, 3, 65, 90
5, 1328, Note_on_c, 3, 65, 0
5, 1328, Note_on_c, 3, 60, 0
5, 1328, Note_on_c, 3, 56, 0
5, 1380, Note_on_c, 3, 70, 90
5, 1381, Note_on_c, 3, 63, 90
5, 1382, Note_on_c, 3, 60, 90
5, 1383, Note_on_c, 3, 55, 90
5, 1500, Note_on_c, 3, 55, 0
5, 1500, Note_on_c, 3, 70, 0
5, 1500, Note_on_c, 3, 63, 0
5, 1500, Note_on_c, 3, 60, 0
5, 1500, Note_on_c, 3, 55, 90
5, 1501, Note_on_c, 3, 60, 90
5, 1502, Note_on_c, 3, 63, 90
5, 1503, Note_on_c, 3, 67, 90
5, 1560, Note_on_c, 3, 67, 0
5, 1560, Note_on_c, 3, 55, 0
5, 1560, Note_on_c, 3, 60, 0
5, 1560, Note_on_c, 3, 63, 0
5, 1560, Note_on_c, 3, 67, 90
5, 1561, Note_on_c, 3, 63, 90
5, 1562, Note_on_c, 3, 60, 90
5, 1563, Note_on_c, 3, 55, 90
5, 1568, Note_on_c, 3, 55, 0
5, 1568, Note_on_c, 3, 67, 0
5, 1568, Note_on_c, 3, 63, 0
5, 1568, Note_on_c, 3, 60, 0
5, 1620, Note_on_c, 3, 55, 90
5, 1621, Note_on_c, 3, 60, 90
5, 1622, Note_on_c, 3, 63, 90
5, 1623, Note_on_c, 3, 67, 90
5, 1740, Note_on_c, 3, 67, 0
5, 1740, Note_on_c, 3, 55, 0
5, 1740, Note_on_c, 3, 60, 0
5, 1740, Note_on_c, 3, 63, 0
5, 1740, Note_on_c, 3, 67, 90
5, 1741, Note_on_c, 3, 63, 90
5, 1742, Note_on_c, 3, 60, 90
5, 1743, Note_on_c, 3, 55, 90
5, 1800, Note_on_c, 3, 55, 0
5, 1800, Note_on_c, 3, 67, 0
5, 1800, Note_on_c, 3, 63, 0
5, 1800, Note_on_c, 3, 60, 0
5, 1800, Note_on_c, 3, 55, 90
5, 1801, Note_on_c, 3, 60, 90
5, 1802, Note_on_c, 3, 63, 90
5, 1803, Note_on_c, 3, 67, 90
5, 1808, Note_on_c, 3, 67, 0
5, 1808, Note_on_c, 3, 55, 0
5, 1808, Note_on_c, 3, 60, 0
5, 1808, Note_on_c, 3, 63, 0
5, 1860, Note_on_c, 3, 67, 90
5, 1861, Note_on_c, 3, 63, 90
5, 1862, Note_on_c, 3, 60, 90
5, 1863, Note_on_c, 3, 55, 90
5, 1920, Note_on_c, 3, 55, 0
5, 1920, Note_on_c, 3, 67, 0
5, 1920, Note_on_c, 3, 63, 0
5, 1920, Note_on_c, 3, 60, 0
5, 1920, Note_on_c, 3, 58, 90
5, 1921, Note_on_c, 3, 61, 90
5, 1922, Note_on_c, 3, 65, 90
5, 1980, Note_on_c, 3, 65, 0
5, 1980, Note_on_c, 3, 61, 0
5, 1980, Note_on_c, 3, 58, 0
5, 1980, Note_on_c, 3, 65, 90
5, 1981, Note_on_c, 3, 61, 90
5, 1982, Note_on_c, 3, 58, 90
5, 2040, Note_on_c, 3, 58, 0
5, 2040, Note_on_c, 3, 61, 0
5, 2040, Note_on_c, 3, 65, 0
5, 2040, Note_on_c, 3, 58, 90
5, 2041, Note_on_c, 3, 61, 90
5, 2042, Note_on_c, 3, 65, 90
5, 2048, Note_on_c, 3, 65, 0
5, 2048, Note_on_c, 3, 61, 0
5, 2048, Note_on_c, 3, 58, 0
5, 2100, Note_on_c, 3, 65, 90
5, 2101, Note_on_c, 3, 61, 90
5, 2102, Note_on_c, 3, 58, 90
5, 2220, Note_on_c, 3, 58, 0
5, 2220, Note_on_c, 3, 61, 0
5, 2220, Note_on_c, 3, 65, 0
5, 2220, Note_on_c, 3, 58, 90
5, 2221, Note_on_c, 3, 61, 90
5, 2222, Note_on_c, 3, 65, 90
5, 2280, Note_on_c, 3, 65, 0
5, 2280, Note_on_c, 3, 61, 0
5, 2280, Note_on_c, 3, 58, 0
5, 2280, Note_on_c, 3, 65, 90
5, 2281, Note_on_c, 3, 61, 90
5, 2282, Note_on_c, 3, 58, 90
5, 2288, Note_on_c, 3, 58, 0
5, 2288, Note_on_c, 3, 61, 0
5, 2288, Note_on_c, 3, 65, 0
5, 2340, Note_on_c, 3, 58, 90
5, 2341, Note_on_c, 3, 61, 90
5, 2342, Note_on_c, 3, 65, 90
5, 2400, Note_on_c, 3, 65, 0
5, 2400, Note_on_c, 3, 61, 0
5, 2400, Note_on_c, 3, 58, 0
5, 2400, Note_on_c, 3, 68, 90
5, 2401, Note_on_c, 3, 63, 90
5, 2402, Note_on_c, 3, 60, 90
5, 2460, Note_on_c, 3, 60, 0
5, 2460, Note_on_c, 3, 63, 0
5, 2460, Note_on_c, 3, 68, 0
5, 2460, Note_on_c, 3, 60, 90
5, 2461, Note_on_c, 3, 63, 90
5, 2462, Note_on_c, 3, 68, 90
5, 2520, Note_on_c, 3, 68, 0
5, 2520, Note_on_c, 3, 63, 0
5, 2520, Note_on_c, 3, 60, 0
5, 2520, Note_on_c, 3, 68, 90
5, 2521, Note_on_c, 3, 63, 90
5, 2522, Note_on_c, 3, 60, 90
5, 2528, Note_on_c, 3, 60, 0
5, 2528, Note_on_c, 3, 63, 0
5, 2528, Note_on_c, 3, 68, 0
5, 2580, Note_on_c, 3, 60, 90
5, 2581, Note_on_c, 3, 63, 90
5, 2582, Note_on_c, 3, 68, 90
5, 2700, Note_on_c, 3, 68, 0
5, 2700, Note_on_c, 3, 63, 0
5, 2700, Note_on_c, 3, 60, 0
5, 2700, Note_on_c, 3, 68, 90
5, 2701, Note_on_c, 3, 63, 90
5, 2702, Note_on_c, 3, 60, 90
5, 2760, Note_on_c, 3, 60, 0
5, 2760, Note_on_c, 3, 63, 0
5, 2760, Note_on_c, 3, 68, 0
5, 2760, Note_on_c, 3, 60, 90
5, 2761, Note_on_c, 3, 63, 90
5, 2762, Note_on_c, 3, 68, 90
5, 2768, Note_on_c, 3, 68, 0
5, 2768, Note_on_c, 3, 63, 0
5, 2768, Note_on_c, 3, 60, 0
5, 2820, Note_on_c, 3, 68, 90
5, 2821, Note_on_c, 3, 63, 90
5, 2822, Note_on_c, 3, 60, 90
5, 2880, Note_on_c, 3, 60, 0
5, 2880, Note_on_c, 3, 63, 0
5, 2880, Note_on_c, 3, 68, 0
5, 2880, Note_on_c, 3, 56, 90
5, 2881, Note_on_c, 3, 60, 90
5, 2882, Note_on_c, 3, 65, 90
5, 2940, Note_on_c, 3, 65, 0
5, 2940, Note_on_c, 3, 60, 0
5, 2940, Note_on_c, 3, 56, 0
5, 2940, Note_on_c, 3, 65, 90
5, 2941, Note_on_c, 3, 60, 90
5, 2942, Note_on_c, 3, 56, 90
5, 3000, Note_on_c, 3, 56, 0
5, 3000, Note_on_c, 3, 60, 0
5, 3000, Note_on_c, 3, 65, 0
5, 3000, Note_on_c, 3, 56, 90
5, 3001, Note_on_c, 3, 60, 90
5, 3002, Note_on_c, 3, 65, 90
5, 3008, Note_on_c, 3, 65, 0
5, 3008, Note_on_c, 3, 60, 0
5, 3008, Note_on_c, 3, 56, 0
5, 3060, Note_on_c, 3, 65, 90
5, 3061, Note_on_c, 3, 60, 90
5, 3062, Note_on_c, 3, 56, 90
5, 3180, Note_on_c, 3, 56, 0
5, 3180, Note_on_c, 3, 60, 0
5, 3180, Note_on_c, 3, 65, 0
5, 3180, Note_on_c, 3, 56, 90
5, 3181, Note_on_c, 3, 60, 90
5, 3182, Note_on_c, 3, 65, 90
5, 3240, Note_on_c, 3, 65, 0
5, 3240, Note_on_c, 3, 60, 0
5, 3240, Note_on_c, 3, 56, 0
5, 3240, Note_on_c, 3, 65, 90
5, 3241, Note_on_c, 3, 60, 90
5, 3242, Note_on_c, 3, 56, 90
5, 3248, Note_on_c, 3, 56, 0
5, 3248, Note_on_c, 3, 60, 0
5, 3248, Note_on_c, 3, 65, 0
5, 3300, Note_on_c, 3, 56, 90
5, 3301, Note_on_c, 3, 60, 90
5, 3302, Note_on_c, 3, 65, 90
5, 3360, Note_on_c, 3, 65, 0
5, 3360, Note_on_c, 3, 60, 0
5, 3360, Note_on_c, 3, 56, 0
5, 3360, Note_on_c, 3, 67, 90
5, 3361, Note_on_c, 3, 63, 90
5, 3362, Note_on_c, 3, 60, 90
5, 3420, Note_on_c, 3, 60, 0
5, 3420, Note_on_c, 3, 63, 0
5, 3420, Note_on_c, 3, 67, 0
5, 3420, Note_on_c, 3, 55, 90
5, 3421, Note_on_c, 3, 60, 90
5, 3422, Note_on_c, 3, 63, 90
5, 3423, Note_on_c, 3, 67, 90
5, 3480, Note_on_c, 3, 67, 0
5, 3480, Note_on_c, 3, 55, 0
5, 3480, Note_on_c, 3, 60, 0
5, 3480, Note_on_c, 3, 63, 0
5, 3480, Note_on_c, 3, 67, 90
5, 3481, Note_on_c, 3, 63, 90
5, 3482, Note_on_c, 3, 60, 90
5, 3483, Note_on_c, 3, 55, 90
5, 3488, Note_on_c, 3, 55, 0
5, 3488, Note_on_c, 3, 67, 0
5, 3488, Note_on_c, 3, 63, 0
5, 3488, Note_on_c, 3, 60, 0
5, 3540, Note_on_c, 3, 55, 90
5, 3541, Note_on_c, 3, 60, 90
5, 3542, Note_on_c, 3, 63, 90
5, 3543, Note_on_c, 3, 67, 90
5, 3660, Note_on_c, 3, 67, 0
5, 3660, Note_on_c, 3, 55, 0
5, 3660, Note_on_c, 3, 60, 0
5, 3660, Note_on_c, 3, 63, 0
5, 3660, Note_on_c, 3, 67, 90
5, 3661, Note_on_c, 3, 63, 90
5, 3662, Note_on_c, 3, 60, 90
5, 3663, Note_on_c, 3, 55, 90
5, 3720, Note_on_c, 3, 55, 0
5, 3720, Note_on_c, 3, 67, 0
5, 3720, Note_on_c, 3, 63, 0
5, 3720, Note_on_c, 3, 60, 0
5, 3720, Note_on_c, 3, 55, 90
5, 3721, Note_on_c, 3, 60, 90
5, 3722, Note_on_c, 3, 63, 90
5, 3723, Note_on_c, 3, 67, 90
5, 3728, Note_on_c, 3, 67, 0
5, 3728, Note_on_c, 3, 55, 0
5, 3728, Note_on_c, 3, 60, 0
5, 3728, Note_on_c, 3, 63, 0
5, 3780, Note_on_c, 3, 67, 90
5, 3781, Note_on_c, 3, 63, 90
5, 3782, Note_on_c, 3, 60, 90
5, 3783, Note_on_c, 3, 55, 90
5, 3840, Note_on_c, 3, 55, 0
5, 3840, Note_on_c, 3, 67, 0
5, 3840, Note_on_c, 3, 63, 0
5, 3840, Note_on_c, 3, 60, 0
5, 3840, Note_on_c, 3, 60, 90
5, 3841, Note_on_c, 3, 63, 90
5, 3842, Note_on_c, 3, 67, 90
5, 3900, Note_on_c, 3, 67, 0
5, 3900, Note_on_c, 3, 63, 0
5, 3900, Note_on_c, 3, 60, 0
5, 3900, Note_on_c, 3, 67, 90
5, 3901, Note_on_c, 3, 63, 90
5, 3902, Note_on_c, 3, 60, 90
5, 3903, Note_on_c, 3, 55, 90
5, 3960, Note_on_c, 3, 55, 0
5, 3960, Note_on_c, 3, 67, 0
5, 3960, Note_on_c, 3, 63, 0
5, 3960, Note_on_c, 3, 60, 0
5, 3960, Note_on_c, 3, 55, 90
5, 3961, Note_on_c, 3, 60, 90
5, 3962, Note_on_c, 3, 63, 90
5, 3963, Note_on_c, 3, 67, 90
5, 3968, Note_on_c, 3, 67, 0
5, 3968, Note_on_c, 3, 55, 0
5, 3968, Note_on_c, 3, 60, 0
5, 3968, Note_on_c, 3, 63, 0
5, 4020, Note_on_c, 3, 67, 90
5, 4021, Note_on_c, 3, 63, 90
5, 4022, Note_on_c, 3, 60, 90
5, 4023, Note_on_c, 3, 55, 90
5, 4140, Note_on_c, 3, 55, 0
5, 4140, Note_on_c, 3, 67, 0
5, 4140, Note_on_c, 3, 63, 0
5, 4140, Note_on_c, 3, 60, 0
5, 4140, Note_on_c, 3, 55, 90
5, 4141, Note_on_c, 3, 60, 90
5, 4142, Note_on_c, 3, 63, 90
5, 4143, Note_on_c, 3, 67, 90
5, 4200, Note_on_c, 3, 67, 0
5, 4200, Note_on_c, 3, 55, 0
5, 4200, Note_on_c, 3, 60, 0
5, 4200, Note_on_c, 3, 63, 0
5, 4200, Note_on_c, 3, 67, 90
5, 4201, Note_on_c, 3, 63, 90
5, 4202, Note_on_c, 3, 60, 90
5, 4203, Note_on_c, 3, 55, 90
5, 4208, Note_on_c, 3, 55, 0
5, 4208, Note_on_c, 3, 67, 0
5, 4208, Note_on_c, 3, 63, 0
5, 4208, Note_on_c, 3, 60, 0
5, 4260, Note_on_c, 3, 55, 90
5, 4261, Note_on_c, 3, 60, 90
5, 4262, Note_on_c, 3, 63, 90
5, 4263, Note_on_c, 3, 67, 90
5, 4320, Note_on_c, 3, 67, 0
5, 4320, Note_on_c, 3, 55, 0
5, 4320, Note_on_c, 3, 60, 0
5, 4320, Note_on_c, 3, 63, 0
5, 4320, Note_on_c, 3, 65, 90
5, 4321, Note_on_c, 3, 60, 90
5, 4322, Note_on_c, 3, 56, 90
5, 4380, Note_on_c, 3, 56, 0
5, 4380, Note_on_c, 3, 60, 0
5, 4380, Note_on_c, 3, 65, 0
5, 4380, Note_on_c, 3, 56, 90
5, 4381, Note_on_c, 3, 60, 90
5, 4382, Note_on_c, 3, 65, 90
5, 4440, Note_on_c, 3, 65, 0
5, 4440, Note_on_c, 3, 60, 0
5, 4440, Note_on_c, 3, 56, 0
5, 4440, Note_on_c, 3, 65, 90
5, 4441, Note_on_c, 3, 60, 90
5, 4442, Note_on_c, 3, 56, 90
5, 4448, Note_on_c, 3, 56, 0
5, 4448, Note_on_c, 3, 60, 0
5, 4448, Note_on_c, 3, 65, 0
5, 4500, Note_on_c, 3, 56, 90
5, 4501, Note_on_c, 3, 60, 90
5, 4502, Note_on_c, 3, 65, 90
5, 4620, Note_on_c, 3, 65, 0
5, 4620, Note_on_c, 3, 60, 0
5, 4620, Note_on_c, 3, 56, 0
5, 4620, Note_on_c, 3, 65, 90
5, 4621, Note_on_c, 3, 60, 90
5, 4622, Note_on_c, 3, 56, 90
5, 4680, Note_on_c, 3, 56, 0
5, 4680, Note_on_c, 3, 60, 0
5, 4680, Note_on_c, 3, 65, 0
5, 4680, Note_on_c, 3, 56, 90
5, 4681, Note_on_c, 3, 60, 90
5, 4682, Note_on_c, 3, 65, 90
5, 4688, Note_on_c, 3, 65, 0
5, 4688, Note_on_c, 3, 60, 0
5, 4688, Note_on_c, 3, 56, 0
5, 4740, Note_on_c, 3, 65, 90
5, 4741, Note_on_c, 3, 60, 90
5, 4742, Note_on_c, 3, 56, 90
5, 4800, Note_on_c, 3, 56, 0
5, 4800, Note_on_c, 3, 60, 0
5, 4800, Note_on_c, 3, 65, 0
5, 4800, Note_on_c, 3, 60, 90
5, 4801, Note_on_c, 3, 63, 90
5, 4802, Note_on_c, 3, 67, 90
5, 4860, Note_on_c, 3, 67, 0
5, 4860, Note_on_c, 3, 63, 0
5, 4860, Note_on_c, 3, 60, 0
5, 4860, Note_on_c, 3, 67, 90
5, 4861, Note_on_c, 3, 63, 90
5, 4862, Note_on_c, 3, 60, 90
5, 4863, Note_on_c, 3, 55, 90
5, 4920, Note_on_c, 3, 55, 0
5, 4920, Note_on_c, 3, 67, 0
5, 4920, Note_on_c, 3, 63, 0
5, 4920, Note_on_c, 3, 60, 0
5, 4920, Note_on_c, 3, 55, 90
5, 4921, Note_on_c, 3, 60, 90
5, 4922, Note_on_c, 3, 63, 90
5, 4923, Note_on_c, 3, 67, 90
5, 4928, Note_on_c, 3, 67, 0
5, 4928, Note_on_c, 3, 55, 0
5, 4928, Note_on_c, 3, 60, 0
5, 4928, Note_on_c, 3, 63, 0
5, 4980, Note_on_c, 3, 67, 90
5, 4981, Note_on_c, 3, 63, 90
5, 4982, Note_on_c, 3, 60, 90
5, 4983, Note_on_c, 3, 55, 90
5, 5100, Note_on_c, 3, 55, 0
5, 5100, Note_on_c, 3, 67, 0
5, 5100, Note_on_c, 3, 63, 0
5, 5100, Note_on_c, 3, 60, 0
5, 5100, Note_on_c, 3, 55, 90
5, 5101, Note_on_c, 3, 60, 90
5, 5102, Note_on_c, 3, 63, 90
5, 5103, Note_on_c, 3, 67, 90
5, 5160, Note_on_c, 3, 67, 0
5, 5160, Note_on_c, 3, 55, 0
5, 5160, Note_on_c, 3, 60, 0
5, 5160, Note_on_c, 3, 63, 0
5, 5160, Note_on_c, 3, 67, 90
5, 5161, Note_on_c, 3, 63, 90
5, 5162, Note_on_c, 3, 60, 90
5, 5163, Note_on_c, 3, 55, 90
5, 5168, Note_on_c, 3, 55, 0
5, 5168, Note_on_c, 3, 67, 0
5, 5168, Note_on_c, 3, 63, 0
5, 5168, Note_on_c, 3, 60, 0
5, 5220, Note_on_c, 3, 55, 90
5, 5221, Note_on_c, 3, 60, 90
5, 5222, Note_on_c, 3, 63, 90
5, 5223, Note_on_c, 3, 67, 90
5, 5280, Note_on_c, 3, 67, 0
5, 5280, Note_on_c, 3, 55, 0
5, 5280, Note_on_c, 3, 60, 0
5, 5280, Note_on_c, 3, 63, 0
5, 5280, Note_on_c, 3, 68, 90
5, 5281, Note_on_c, 3, 65, 90
5, 5282, Note_on_c, 3, 60, 90
5, 5340, Note_on_c, 3, 60, 0
5, 5340, Note_on_c, 3, 65, 0
5, 5340, Note_on_c, 3, 68, 0
5, 5340, Note_on_c, 3, 56, 90
5, 5341, Note_on_c, 3, 60, 90
5, 5342, Note_on_c, 3, 65, 90
5, 5343, Note_on_c, 3, 68, 90
5, 5400, Note_on_c, 3, 68, 0
5, 5400, Note_on_c, 3, 56, 0
5, 5400, Note_on_c, 3, 60, 0
5, 5400, Note_on_c, 3, 65, 0
5, 5400, Note_on_c, 3, 68, 90
5, 5401, Note_on_c, 3, 65, 90
5, 5402, Note_on_c, 3, 60, 90
5, 5403, Note_on_c, 3, 56, 90
5, 5408, Note_on_c, 3, 56, 0
5, 5408, Note_on_c, 3, 68, 0
5, 5408, Note_on_c, 3, 65, 0
5, 5408, Note_on_c, 3, 60, 0
5, 5460, Note_on_c, 3, 56, 90
5, 5461, Note_on_c, 3, 60, 90
5, 5462, Note_on_c, 3, 65, 90
5, 5463, Note_on_c, 3, 68, 90
5, 5580, Note_on_c, 3, 68, 0
5, 5580, Note_on_c, 3, 56, 0
5, 5580, Note_on_c, 3, 60, 0
5, 5580, Note_on_c, 3, 65, 0
5, 5580, Note_on_c, 3, 68, 90
5, 5581, Note_on_c, 3, 65, 90
5, 5582, Note_on_c, 3, 60, 90
5, 5583, Note_on_c, 3, 56, 90
5, 5640, Note_on_c, 3, 56, 0
5, 5640, Note_on_c, 3, 68, 0
5, 5640, Note_on_c, 3, 65, 0
5, 5640, Note_on_c, 3, 60, 0
5, 5640, Note_on_c, 3, 56, 90
5, 5641, Note_on_c, 3, 60, 90
5, 5642, Note_on_c, 3, 65, 90
5, 5643, Note_on_c, 3, 68, 90
5, 5648, Note_on_c, 3, 68, 0
5, 5648, Note_on_c, 3, 56, 0
5, 5648, Note_on_c, 3, 60, 0
5, 5648, Note_on_c, 3, 65, 0
5, 5700, Note_on_c, 3, 68, 90
5, 5701, Note_on_c, 3, 65, 90
5, 5702, Note_on_c, 3, 60, 90
5, 5703, Note_on_c, 3, 56, 90
5, 5760, Note_on_c, 3, 56, 0
5, 5760, Note_on_c, 3, 68, 0
5, 5760, Note_on_c, 3, 65, 0
5, 5760, Note_on_c, 3, 60, 0
5, 5760, Note_on_c, 3, 55, 90
5, 5761, Note_on_c, 3, 58, 90
5, 5762, Note_on_c, 3, 63, 90
5, 5820, Note_on_c, 3, 63, 0
5, 5820, Note_on_c, 3, 58, 0
5, 5820, Note_on_c, 3, 55, 0
5, 5820, Note_on_c, 3, 63, 90
5, 5821, Note_on_c, 3, 58, 90
5, 5822, Note_on_c, 3, 58, 90
5, 5823, Note_on_c, 3, 55, 90
5, 5880, Note_on_c, 3, 55, 0
5, 5880, Note_on_c, 3, 63, 0
5, 5880, Note_on_c, 3, 58, 0
5, 5880, Note_on_c, 3, 58, 0
5, 5880, Note_on_c, 3, 55, 90
5, 5881, Note_on_c, 3, 58, 90
5, 5882, Note_on_c, 3, 58, 90
5, 5883, Note_on_c, 3, 63, 90
5, 5888, Note_on_c, 3, 63, 0
5, 5888, Note_on_c, 3, 55, 0
5, 5888, Note_on_c, 3, 58, 0
5, 5888, Note_on_c, 3, 58, 0
5, 5940, Note_on_c, 3, 63, 90
5, 5941, Note_on_c, 3, 58, 90
5, 5942, Note_on_c, 3, 58, 90
5, 5943, Note_on_c, 3, 55, 90
5, 6060, Note_on_c, 3, 55, 0
5, 6060, Note_on_c, 3, 63, 0
5, 6060, Note_on_c, 3, 58, 0
5, 6060, Note_on_c, 3, 58, 0
5, 6060, Note_on_c, 3, 55, 90
5, 6061, Note_on_c, 3, 58, 90
5, 6062, Note_on_c, 3, 58, 90
5, 6063, Note_on_c, 3, 63, 90
5, 6120, Note_on_c, 3, 63, 0
5, 6120, Note_on_c, 3, 55, 0
5, 6120, Note_on_c, 3, 58, 0
5, 6120, Note_on_c, 3, 58, 0
5, 6120, Note_on_c, 3, 63, 90
5, 6121, Note_on_c, 3, 58, 90
5, 6122, Note_on_c, 3, 58, 90
5, 6123, Note_on_c, 3, 55, 90
5, 6128, Note_on_c, 3, 55, 0
5, 6128, Note_on_c, 3, 63, 0
5, 6128, Note_on_c, 3, 58, 0
5, 6128, Note_on_c, 3, 58, 0
5, 6180, Note_on_c, 3, 55, 90
5, 6181, Note_on_c, 3, 58, 90
5, 6182, Note_on_c, 3, 58, 90
5, 6183, Note_on_c, 3, 63, 90
5, 6240, Note_on_c, 3, 63, 0
5, 6240, Note_on_c, 3, 55, 0
5, 6240, Note_on_c, 3, 58, 0
5, 6240, Note_on_c, 3, 58, 0
5, 6240, Note_on_c, 3, 61, 90
5, 6241, Note_on_c, 3, 56, 90
5, 6242, Note_on_c, 3, 53, 90
5, 6300, Note_on_c, 3, 53, 0
5, 6300, Note_on_c, 3, 56, 0
5, 6300, Note_on_c, 3, 61, 0
5, 6300, Note_on_c, 3, 53, 90
5, 6301, Note_on_c, 3, 56, 90
5, 6302, Note_on_c, 3, 56, 90
5, 6303, Note_on_c, 3, 61, 90
5, 6360, Note_on_c, 3, 61, 0
5, 6360, Note_on_c, 3, 53, 0
5, 6360, Note_on_c, 3, 56, 0
5, 6360, Note_on_c, 3, 56, 0
5, 6360, Note_on_c, 3, 61, 90
5, 6361, Note_on_c, 3, 56, 90
5, 6362, Note_on_c, 3, 56, 90
5, 6363, Note_on_c, 3, 53, 90
5, 6368, Note_on_c, 3, 53, 0
5, 6368, Note_on_c, 3, 61, 0
5, 6368, Note_on_c, 3, 56, 0
5, 6368, Note_on_c, 3, 56, 0
5, 6420, Note_on_c, 3, 55, 90
5, 6421, Note_on_c, 3, 58, 90
5, 6422, Note_on_c, 3, 58, 90
5, 6423, Note_on_c, 3, 63, 90
5, 6540, Note_on_c, 3, 63, 0
5, 6540, Note_on_c, 3, 55, 0
5, 6540, Note_on_c, 3, 58, 0
5, 6540, Note_on_c, 3, 58, 0
5, 6540, Note_on_c, 3, 63, 90
5, 6541, Note_on_c, 3, 58, 90
5, 6542, Note_on_c, 3, 58, 90
5, 6543, Note_on_c, 3, 55, 90
5, 6600, Note_on_c, 3, 55, 0
5, 6600, Note_on_c, 3, 63, 0
5, 6600, Note_on_c, 3, 58, 0
5, 6600, Note_on_c, 3, 58, 0
5, 6600, Note_on_c, 3, 55, 90
5, 6601, Note_on_c, 3, 58, 90
5, 6602, Note_on_c, 3, 58, 90
5, 6603, Note_on_c, 3, 63, 90
5, 6608, Note_on_c, 3, 63, 0
5, 6608, Note_on_c, 3, 55, 0
5, 6608, Note_on_c, 3, 58, 0
5, 6608, Note_on_c, 3, 58, 0
5, 6660, Note_on_c, 3, 63, 90
5, 6661, Note_on_c, 3, 58, 90
5, 6662, Note_on_c, 3, 58, 90
5, 6663, Note_on_c, 3, 55, 90
5, 6720, Note_on_c, 3, 55, 0
5, 6720, Note_on_c, 3, 63, 0
5, 6720, Note_on_c, 3, 58, 0
5, 6720, Note_on_c, 3, 58, 0
5, 6720, Note_on_c, 3, 60, 90
5, 6721, Note_on_c, 3, 63, 90
5, 6722, Note_on_c, 3, 68, 90
5, 6780, Note_on_c, 3, 68, 0
5, 6780, Note_on_c, 3, 63, 0
5, 6780, Note_on_c, 3, 60, 0
5, 6780, Note_on_c, 3, 68, 90
5, 6781, Note_on_c, 3, 63, 90
5, 6782, Note_on_c, 3, 60, 90
5, 6840, Note_on_c, 3, 60, 0
5, 6840, Note_on_c, 3, 63, 0
5, 6840, Note_on_c, 3, 68, 0
5, 6840, Note_on_c, 3, 60, 90
5, 6841, Note_on_c, 3, 63, 90
5, 6842, Note_on_c, 3, 68, 90
5, 6848, Note_on_c, 3, 68, 0
5, 6848, Note_on_c, 3, 63, 0
5, 6848, Note_on_c, 3, 60, 0
5, 6900, Note_on_c, 3, 68, 90
5, 6901, Note_on_c, 3, 63, 90
5, 6902, Note_on_c, 3, 60, 90
5, 7020, Note_on_c, 3, 60, 0
5, 7020, Note_on_c, 3, 63, 0
5, 7020, Note_on_c, 3, 68, 0
5, 7020, Note_on_c, 3, 60, 90
5, 7021, Note_on_c, 3, 63, 90
5, 7022, Note_on_c, 3, 68, 90
5, 7080, Note_on_c, 3, 68, 0
5, 7080, Note_on_c, 3, 63, 0
5, 7080, Note_on_c, 3, 60, 0
5, 7080, Note_on_c, 3, 68, 90
5, 7081, Note_on_c, 3, 63, 90
5, 7082, Note_on_c, 3, 60, 90
5, 7088, Note_on_c, 3, 60, 0
5, 7088, Note_on_c, 3, 63, 0
5, 7088, Note_on_c, 3, 68, 0
5, 7140, Note_on_c, 3, 60, 90
5, 7141, Note_on_c, 3, 63, 90
5, 7142, Note_on_c, 3, 68, 90
5, 7200, Note_on_c, 3, 68, 0
5, 7200, Note_on_c, 3, 63, 0
5, 7200, Note_on_c, 3, 60, 0
5, 7200, Note_on_c, 3, 65, 90
5, 7201, Note_on_c, 3, 60, 90
5, 7202, Note_on_c, 3, 56, 90
5, 7260, Note_on_c, 3, 56, 0
5, 7260, Note_on_c, 3, 60, 0
5, 7260, Note_on_c, 3, 65, 0
5, 7260, Note_on_c, 3, 56, 90
5, 7261, Note_on_c, 3, 60, 90
5, 7262, Note_on_c, 3, 65, 90
5, 7320, Note_on_c, 3, 65, 0
5, 7320, Note_on_c, 3, 60, 0
5, 7320, Note_on_c, 3, 56, 0
5, 7320, Note_on_c, 3, 65, 90
5, 7321, Note_on_c, 3, 60, 90
5, 7322, Note_on_c, 3, 56, 90
5, 7328, Note_on_c, 3, 56, 0
5, 7328, Note_on_c, 3, 60, 0
5, 7328, Note_on_c, 3, 65, 0
5, 7380, Note_on_c, 3, 56, 90
5, 7381, Note_on_c, 3, 60, 90
5, 7382, Note_on_c, 3, 65, 90
5, 7500, Note_on_c, 3, 65, 0
5, 7500, Note_on_c, 3, 60, 0
5, 7500, Note_on_c, 3, 56, 0
5, 7500, Note_on_c, 3, 65, 90
5, 7501, Note_on_c, 3, 60, 90
5, 7502, Note_on_c, 3, 56, 90
5, 7560, Note_on_c, 3, 56, 0
5, 7560, Note_on_c, 3, 60, 0
5, 7560, Note_on_c, 3, 65, 0
5, 7560, Note_on_c, 3, 56, 90
5, 7561, Note_on_c, 3, 60, 90
5, 7562, Note_on_c, 3, 65, 90
5, 7568, Note_on_c, 3, 65, 0
5, 7568, Note_on_c, 3, 60, 0
5, 7568, Note_on_c, 3, 56, 0
5, 7620, Note_on_c, 3, 65, 90
5, 7621, Note_on_c, 3, 60, 90
5, 7622, Note_on_c, 3, 56, 90
5, 7680, Note_on_c, 3, 56, 0
5, 7680, Note_on_c, 3, 60, 0
5, 7680, Note_on_c, 3, 65, 0
5, 7680, Note_on_c, 3, 60, 90
5, 7681, Note_on_c, 3, 63, 90
5, 7682, Note_on_c, 3, 67, 90
5, 7740, Note_on_c, 3, 67, 0
5, 7740, Note_on_c, 3, 63, 0
5, 7740, Note_on_c, 3, 60, 0
5, 7740, Note_on_c, 3, 67, 90
5, 7741, Note_on_c, 3, 63, 90
5, 7742, Note_on_c, 3, 60, 90
5, 7743, Note_on_c, 3, 55, 90
5, 7800, Note_on_c, 3, 55, 0
5, 7800, Note_on_c, 3, 67, 0
5, 7800, Note_on_c, 3, 63, 0
5, 7800, Note_on_c, 3, 60, 0
5, 7800, Note_on_c, 3, 55, 90
5, 7801, Note_on_c, 3, 60, 90
5, 7802, Note_on_c, 3, 63, 90
5, 7803, Note_on_c, 3, 67, 90
5, 7808, Note_on_c, 3, 67, 0
5, 7808, Note_on_c, 3, 55, 0
5, 7808, Note_on_c, 3, 60, 0
5, 7808, Note_on_c, 3, 63, 0
5, 7860, Note_on_c, 3, 67, 90
5, 7861, Note_on_c, 3, 63, 90
5, 7862, Note_on_c, 3, 60, 90
5, 7863, Note_on_c, 3, 55, 90
5, 7980, Note_on_c, 3, 55, 0
5, 7980, Note_on_c, 3, 67, 0
5, 7980, Note_on_c, 3, 63, 0
5, 7980, Note_on_c, 3, 60, 0
5, 7980, Note_on_c, 3, 55, 90
5, 7981, Note_on_c, 3, 60, 90
5, 7982, Note_on_c, 3, 63, 90
5, 7983, Note_on_c, 3, 67, 90
5, 8040, Note_on_c, 3, 67, 0
5, 8040, Note_on_c, 3, 55, 0
5, 8040, Note_on_c, 3, 60, 0
5, 8040, Note_on_c, 3, 63, 0
5, 8040, Note_on_c, 3, 67, 90
5, 8041, Note_on_c, 3, 63, 90
5, 8042, Note_on_c, 3, 60, 90
5, 8043, Note_on_c, 3, 55, 90
5, 8048, Note_on_c, 3, 55, 0
5, 8048, Note_on_c, 3, 67, 0
5, 8048, Note_on_c, 3, 63, 0
5, 8048, Note_on_c, 3, 60, 0
5, 8100, Note_on_c, 3, 55, 90
5, 8101, Note_on_c, 3, 60, 90
5, 8102, Note_on_c, 3, 63, 90
5, 8103, Note_on_c, 3, 67, 90
5, 8160, Note_on_c, 3, 67, 0
5, 8160, Note_on_c, 3, 55, 0
5, 8160, Note_on_c, 3, 60, 0
5, 8160, Note_on_c, 3, 63, 0
5, 8160, Note_on_c, 3, 67, 90
5, 8161, Note_on_c, 3, 63, 90
5, 8162, Note_on_c, 3, 60, 90
5, 8220, Note_on_c, 3, 60, 0
5, 8220, Note_on_c, 3, 63, 0
5, 8220, Note_on_c, 3, 67, 0
5, 8220, Note_on_c, 3, 55, 90
5, 8221, Note_on_c, 3, 60, 90
5, 8222, Note_on_c, 3, 63, 90
5, 8223, Note_on_c, 3, 67, 90
5, 8280, Note_on_c, 3, 67, 0
5, 8280, Note_on_c, 3, 55, 0
5, 8280, Note_on_c, 3, 60, 0
5, 8280, Note_on_c, 3, 63, 0
5, 8280, Note_on_c, 3, 67, 90
5, 8281, Note_on_c, 3, 63, 90
5, 8282, Note_on_c, 3, 60, 90
5, 8283, Note_on_c, 3, 55, 90
5, 8288, Note_on_c, 3, 55, 0
5, 8288, Note_on_c, 3, 67, 0
5, 8288, Note_on_c, 3, 63, 0
5, 8288, Note_on_c, 3, 60, 0
5, 8340, Note_on_c, 3, 55, 90
5, 8341, Note_on_c, 3, 60, 90
5, 8342, Note_on_c, 3, 63, 90
5, 8343, Note_on_c, 3, 67, 90
5, 8460, Note_on_c, 3, 67, 0
5, 8460, Note_on_c, 3, 55, 0
5, 8460, Note_on_c, 3, 60, 0
5, 8460, Note_on_c, 3, 63, 0
5, 8460, Note_on_c, 3, 67, 90
5, 8461, Note_on_c, 3, 63, 90
5, 8462, Note_on_c, 3, 60, 90
5, 8463, Note_on_c, 3, 55, 90
5, 8520, Note_on_c, 3, 55, 0
5, 8520, Note_on_c, 3, 67, 0
5, 8520, Note_on_c, 3, 63, 0
5, 8520, Note_on_c, 3, 60, 0
5, 8520, Note_on_c, 3, 55, 90
5, 8521, Note_on_c, 3, 60, 90
5, 8522, Note_on_c, 3, 63, 90
5, 8523, Note_on_c, 3, 67, 90
5, 8528, Note_on_c, 3, 67, 0
5, 8528, Note_on_c, 3, 55, 0
5, 8528, Note_on_c, 3, 60, 0
5, 8528, Note_on_c, 3, 63, 0
5, 8580, Note_on_c, 3, 67, 90
5, 8581, Note_on_c, 3, 63, 90
5, 8582, Note_on_c, 3, 60, 90
5, 8583, Note_on_c, 3, 55, 90
5, 8640, Note_on_c, 3, 55, 0
5, 8640, Note_on_c, 3, 67, 0
5, 8640, Note_on_c, 3, 63, 0
5, 8640, Note_on_c, 3, 60, 0
5, 8640, Note_on_c, 3, 56, 90
5, 8641, Note_on_c, 3, 60, 90
5, 8642, Note_on_c, 3, 65, 90
5, 8700, Note_on_c, 3, 65, 0
5, 8700, Note_on_c, 3, 60, 0
5, 8700, Note_on_c, 3, 56, 0
5, 8700, Note_on_c, 3, 65, 90
5, 8701, Note_on_c, 3, 60, 90
5, 8702, Note_on_c, 3, 56, 90
5, 8760, Note_on_c, 3, 56, 0
5, 8760, Note_on_c, 3, 60, 0
5, 8760, Note_on_c, 3, 65, 0
5, 8760, Note_on_c, 3, 56, 90
5, 8761, Note_on_c, 3, 60, 90
5, 8762, Note_on_c, 3, 65, 90
5, 8768, Note_on_c, 3, 65, 0
5, 8768, Note_on_c, 3, 60, 0
5, 8768, Note_on_c, 3, 56, 0
5, 8820, Note_on_c, 3, 65, 90
5, 8821, Note_on_c, 3, 60, 90
5, 8822, Note_on_c, 3, 56, 90
5, 8940, Note_on_c, 3, 56, 0
5, 8940, Note_on_c, 3, 60, 0
5, 8940, Note_on_c, 3, 65, 0
5, 8940, Note_on_c, 3, 56, 90
5, 8941, Note_on_c, 3, 60, 90
5, 8942, Note_on_c, 3, 65, 90
5, 9000, Note_on_c, 3, 65, 0
5, 9000, Note_on_c, 3, 60, 0
5, 9000, Note_on_c, 3, 56, 0
5, 9000, Note_on_c, 3, 65, 90
5, 9001, Note_on_c, 3, 60, 90
5, 9002, Note_on_c, 3, 56, 90
5, 9008, Note_on_c, 3, 56, 0
5, 9008, Note_on_c, 3, 60, 0
5, 9008, Note_on_c, 3, 65, 0
5, 9060, Note_on_c, 3, 56, 90
5, 9061, Note_on_c, 3, 60, 90
5, 9062, Note_on_c, 3, 65, 90
5, 9120, Note_on_c, 3, 65, 0
5, 9120, Note_on_c, 3, 60, 0
5, 9120, Note_on_c, 3, 56, 0
5, 9120, Note_on_c, 3, 67, 90
5, 9121, Note_on_c, 3, 63, 90
5, 9122, Note_on_c, 3, 60, 90
5, 9180, Note_on_c, 3, 60, 0
5, 9180, Note_on_c, 3, 63, 0
5, 9180, Note_on_c, 3, 67, 0
5, 9180, Note_on_c, 3, 55, 90
5, 9181, Note_on_c, 3, 60, 90
5, 9182, Note_on_c, 3, 63, 90
5, 9183, Note_on_c, 3, 67, 90
5, 9240, Note_on_c, 3, 67, 0
5, 9240, Note_on_c, 3, 55, 0
5, 9240, Note_on_c, 3, 60, 0
5, 9240, Note_on_c, 3, 63, 0
5, 9240, Note_on_c, 3, 67, 90
5, 9241, Note_on_c, 3, 63, 90
5, 9242, Note_on_c, 3, 60, 90
5, 9243, Note_on_c, 3, 55, 90
5, 9248, Note_on_c, 3, 55, 0
5, 9248, Note_on_c, 3, 67, 0
5, 9248, Note_on_c, 3, 63, 0
5, 9248, Note_on_c, 3, 60, 0
5, 9300, Note_on_c, 3, 55, 90
5, 9301, Note_on_c, 3, 60, 90
5, 9302, Note_on_c, 3, 63, 90
5, 9303, Note_on_c, 3, 67, 90
5, 9420, Note_on_c, 3, 67, 0
5, 9420, Note_on_c, 3, 55, 0
5, 9420, Note_on_c, 3, 60, 0
5, 9420, Note_on_c, 3, 63, 0
5, 9420, Note_on_c, 3, 67, 90
5, 9421, Note_on_c, 3, 63, 90
5, 9422, Note_on_c, 3, 60, 90
5, 9423, Note_on_c, 3, 55, 90
5, 9480, Note_on_c, 3, 55, 0
5, 9480, Note_on_c, 3, 67, 0
5, 9480, Note_on_c, 3, 63, 0
5, 9480, Note_on_c, 3, 60, 0
5, 9480, Note_on_c, 3, 55, 90
5, 9481, Note_on_c, 3, 60, 90
5, 9482, Note_on_c, 3, 63, 90
5, 9483, Note_on_c, 3, 67, 90
5, 9488, Note_on_c, 3, 67, 0
5, 9488, Note_on_c, 3, 55, 0
5, 9488, Note_on_c, 3, 60, 0
5, 9488, Note_on_c, 3, 63, 0
5, 9540, Note_on_c, 3, 67, 90
5, 9541, Note_on_c, 3, 63, 90
5, 9542, Note_on_c, 3, 60, 90
5, 9543, Note_on_c, 3, 55, 90
5, 9600, Note_on_c, 3, 55, 0
5, 9600, Note_on_c, 3, 67, 0
5, 9600, Note_on_c, 3, 63, 0
5, 9600, Note_on_c, 3, 60, 0
5, 9600, Note_on_c, 3, 60, 90
5, 9601, Note_on_c, 3, 65, 90
5, 9602, Note_on_c, 3, 68, 90
5, 9660, Note_on_c, 3, 68, 0
5, 9660, Note_on_c, 3, 65, 0
5, 9660, Note_on_c, 3, 60, 0
5, 9660, Note_on_c, 3, 68, 90
5, 9661, Note_on_c, 3, 65, 90
5, 9662, Note_on_c, 3, 60, 90
5, 9663, Note_on_c, 3, 56, 90
5, 9720, Note_on_c, 3, 56, 0
5, 9720, Note_on_c, 3, 68, 0
5, 9720, Note_on_c, 3, 65, 0
5, 9720, Note_on_c, 3, 60, 0
5, 9720, Note_on_c, 3, 56, 90
5, 9721, Note_on_c, 3, 60, 90
5, 9722, Note_on_c, 3, 65, 90
5, 9723, Note_on_c, 3, 68, 90
5, 9728, Note_on_c, 3, 68, 0
5, 9728, Note_on_c, 3, 56, 0
5, 9728, Note_on_c, 3, 60, 0
5, 9728, Note_on_c, 3, 65, 0
5, 9780, Note_on_c, 3, 68, 90
5, 9781, Note_on_c, 3, 65, 90
5, 9782, Note_on_c, 3, 60, 90
5, 9783, Note_on_c, 3, 56, 90
5, 9900, Note_on_c, 3, 56, 0
5, 9900, Note_on_c, 3, 68, 0
5, 9900, Note_on_c, 3, 65, 0
5, 9900, Note_on_c, 3, 60, 0
5, 9900, Note_on_c, 3, 56, 90
5, 9901, Note_on_c, 3, 60, 90
5, 9902, Note_on_c, 3, 65, 90
5, 9903, Note_on_c, 3, 68, 90
5, 9960, Note_on_c, 3, 68, 0
5, 9960, Note_on_c, 3, 56, 0
5, 9960, Note_on_c, 3, 60, 0
5, 9960, Note_on_c, 3, 65, 0
5, 9960, Note_on_c, 3, 68, 90
5, 9961, Note_on_c, 3, 65, 90
5, 9962, Note_on_c, 3, 60, 90
5, 9963, Note_on_c, 3, 56, 90
5, 9968, Note_on_c, 3, 56, 0
5, 9968, Note_on_c, 3, 68, 0
5, 9968, Note_on_c, 3, 65, 0
5, 9968, Note_on_c, 3, 60, 0
5, 10020, Note_on_c, 3, 56, 90
5, 10021, Note_on_c, 3, 60, 90
5, 10022, Note_on_c, 3, 65, 90
5, 10023, Note_on_c, 3, 68, 90
5, 10080, Note_on_c, 3, 68, 0
5, 10080, Note_on_c, 3, 56, 0
5, 10080, Note_on_c, 3, 60, 0
5, 10080, Note_on_c, 3, 65, 0
5, 10080, Note_on_c, 3, 63, 90
5, 10081, Note_on_c, 3, 58, 90
5, 10082, Note_on_c, 3, 55, 90
5, 10140, Note_on_c, 3, 55, 0
5, 10140, Note_on_c, 3, 58, 0
5, 10140, Note_on_c, 3, 63, 0
5, 10140, Note_on_c, 3, 55, 90
5, 10141, Note_on_c, 3, 58, 90
5, 10142, Note_on_c, 3, 58, 90
5, 10143, Note_on_c, 3, 63, 90
5, 10200, Note_on_c, 3, 63, 0
5, 10200, Note_on_c, 3, 55, 0
5, 10200, Note_on_c, 3, 58, 0
5, 10200, Note_on_c, 3, 58, 0
5, 10200, Note_on_c, 3, 63, 90
5, 10201, Note_on_c, 3, 58, 90
5, 10202, Note_on_c, 3, 58, 90
5, 10203, Note_on_c, 3, 55, 90
5, 10208, Note_on_c, 3, 55, 0
5, 10208, Note_on_c, 3, 63, 0
5, 10208, Note_on_c, 3, 58, 0
5, 10208, Note_on_c, 3, 58, 0
5, 10260, Note_on_c, 3, 55, 90
5, 10261, Note_on_c, 3, 58, 90
5, 10262, Note_on_c, 3, 58, 90
5, 10263, Note_on_c, 3, 63, 90
5, 10380, Note_on_c, 3, 63, 0
5, 10380, Note_on_c, 3, 55, 0
5, 10380, Note_on_c, 3, 58, 0
5, 10380, Note_on_c, 3, 58, 0
5, 10380, Note_on_c, 3, 63, 90
5, 10381, Note_on_c, 3, 58, 90
5, 10382, Note_on_c, 3, 58, 90
5, 10383, Note_on_c, 3, 55, 90
5, 10440, Note_on_c, 3, 55, 0
5, 10440, Note_on_c, 3, 63, 0
5, 10440, Note_on_c, 3, 58, 0
5, 10440, Note_on_c, 3, 58, 0
5, 10440, Note_on_c, 3, 55, 90
5, 10441, Note_on_c, 3, 58, 90
5, 10442, Note_on_c, 3, 58, 90
5, 10443, Note_on_c, 3, 63, 90
5, 10448, Note_on_c, 3, 63, 0
5, 10448, Note_on_c, 3, 55, 0
5, 10448, Note_on_c, 3, 58, 0
5, 10448, Note_on_c, 3, 58, 0
5, 10500, Note_on_c, 3, 63, 90
5, 10501, Note_on_c, 3, 58, 90
5, 10502, Note_on_c, 3, 58, 90
5, 10503, Note_on_c, 3, 55, 90
5, 10560, Note_on_c, 3, 55, 0
5, 10560, Note_on_c, 3, 63, 0
5, 10560, Note_on_c, 3, 58, 0
5, 10560, Note_on_c, 3, 58, 0
5, 10560, Note_on_c, 3, 56, 90
5, 10561, Note_on_c, 3, 60, 90
5, 10562, Note_on_c, 3, 65, 90
5, 10620, Note_on_c, 3, 65, 0
5, 10620, Note_on_c, 3, 60, 0
5, 10620, Note_on_c, 3, 56, 0
5, 10620, Note_on_c, 3, 65, 90
5, 10621, Note_on_c, 3, 60, 90
5, 10622, Note_on_c, 3, 56, 90
5, 10680, Note_on_c, 3, 56, 0
5, 10680, Note_on_c, 3, 60, 0
5, 10680, Note_on_c, 3, 65, 0
5, 10680, Note_on_c, 3, 56, 90
5, 10681, Note_on_c, 3, 60, 90
5, 10682, Note_on_c, 3, 65, 90
5, 10688, Note_on_c, 3, 65, 0
5, 10688, Note_on_c, 3, 60, 0
5, 10688, Note_on_c, 3, 56, 0
5, 10740, Note_on_c, 3, 65, 90
5, 10741, Note_on_c, 3, 60, 90
5, 10742, Note_on_c, 3, 56, 90
5, 10860, Note_on_c, 3, 56, 0
5, 10860, Note_on_c, 3, 60, 0
5, 10860, Note_on_c, 3, 65, 0
5, 10860, Note_on_c, 3, 56, 90
5, 10861, Note_on_c, 3, 60, 90
5, 10862, Note_on_c, 3, 65, 90
5, 10920, Note_on_c, 3, 65, 0
5, 10920, Note_on_c, 3, 60, 0
5, 10920, Note_on_c, 3, 56, 0
5, 10920, Note_on_c, 3, 65, 90
5, 10921, Note_on_c, 3, 60, 90
5, 10922, Note_on_c, 3, 56, 90
5, 10928, Note_on_c, 3, 56, 0
5, 10928, Note_on_c, 3, 60, 0
5, 10928, Note_on_c, 3, 65, 0
5, 10980, Note_on_c, 3, 56, 90
5, 10981, Note_on_c, 3, 60, 90
5, 10982, Note_on_c, 3, 65, 90
5, 11040, Note_on_c, 3, 65, 0
5, 11040, Note_on_c, 3, 60, 0
5, 11040, Note_on_c, 3, 56, 0
5, 11040, Note_on_c, 3, 68, 90
5, 11041, Note_on_c, 3, 65, 90
5, 11042, Note_on_c, 3, 60, 90
5, 11100, Note_on_c, 3, 60, 0
5, 11100, Note_on_c, 3, 65, 0
5, 11100, Note_on_c, 3, 68, 0
5, 11100, Note_on_c, 3, 56, 90
5, 11101, Note_on_c, 3, 60, 90
5, 11102, Note_on_c, 3, 65, 90
5, 11103, Note_on_c, 3, 68, 90
5, 11160, Note_on_c, 3, 68, 0
5, 11160, Note_on_c, 3, 56, 0
5, 11160, Note_on_c, 3, 60, 0
5, 11160, Note_on_c, 3, 65, 0
5, 11160, Note_on_c, 3, 68, 90
5, 11161, Note_on_c, 3, 65, 90
5, 11162, Note_on_c, 3, 60, 90
5, 11163, Note_on_c, 3, 56, 90
5, 11168, Note_on_c, 3, 56, 0
5, 11168, Note_on_c, 3, 68, 0
5, 11168, Note_on_c, 3, 65, 0
5, 11168, Note_on_c, 3, 60, 0
5, 11220, Note_on_c, 3, 56, 90
5, 11221, Note_on_c, 3, 60, 90
5, 11222, Note_on_c, 3, 65, 90
5, 11223, Note_on_c, 3, 68, 90
5, 11280, Note_on_c, 3, 68, 0
5, 11280, Note_on_c, 3, 56, 0
5, 11280, Note_on_c, 3, 60, 0
5, 11280, Note_on_c, 3, 65, 0
5, 11280, Note_on_c, 3, 67, 90
5, 11281, Note_on_c, 3, 63, 90
5, 11282, Note_on_c, 3, 58, 90
5, 11320, Note_on_c, 3, 58, 0
5, 11320, Note_on_c, 3, 63, 0
5, 11320, Note_on_c, 3, 67, 0
5, 11340, Note_on_c, 3, 58, 90
5, 11341, Note_on_c, 3, 63, 90
5, 11342, Note_on_c, 3, 67, 90
5, 11380, Note_on_c, 3, 67, 0
5, 11380, Note_on_c, 3, 63, 0
5, 11380, Note_on_c, 3, 58, 0
5, 11460, Note_on_c, 3, 67, 90
5, 11461, Note_on_c, 3, 63, 90
5, 11462, Note_on_c, 3, 58, 90
5, 11520, Note_on_c, 3, 58, 0
5, 11520, Note_on_c, 3, 63, 0
5, 11520, Note_on_c, 3, 67, 0
5, 11520, Note_on_c, 3, 60, 90
5, 11521, Note_on_c, 3, 63, 90
5, 11522, Note_on_c, 3, 68, 90
5, 11580, Note_on_c, 3, 68, 0
5, 11580, Note_on_c, 3, 63, 0
5, 11580, Note_on_c, 3, 60, 0
5, 11580, Note_on_c, 3, 68, 90
5, 11581, Note_on_c, 3, 63, 90
5, 11582, Note_on_c, 3, 60, 90
5, 11640, Note_on_c, 3, 60, 0
5, 11640, Note_on_c, 3, 63, 0
5, 11640, Note_on_c, 3, 68, 0
5, 11640, Note_on_c, 3, 60, 90
5, 11641, Note_on_c, 3, 63, 90
5, 11642, Note_on_c, 3, 68, 90
5, 11648, Note_on_c, 3, 68, 0
5, 11648, Note_on_c, 3, 63, 0
5, 11648, Note_on_c, 3, 60, 0
5, 11700, Note_on_c, 3, 68, 90
5, 11701, Note_on_c, 3, 63, 90
5, 11702, Note_on_c, 3, 60, 90
5, 11760, Note_on_c, 3, 60, 0
5, 11760, Note_on_c, 3, 63, 0
5, 11760, Note_on_c, 3, 68, 0
5, 11760, Note_on_c, 3, 61, 90
5, 11761, Note_on_c, 3, 65, 90
5, 11762, Note_on_c, 3, 68, 90
5, 11820, Note_on_c, 3, 68, 0
5, 11820, Note_on_c, 3, 65, 0
5, 11820, Note_on_c, 3, 61, 0
5, 11820, Note_on_c, 3, 68, 90
5, 11821, Note_on_c, 3, 65, 90
5, 11822, Note_on_c, 3, 61, 90
5, 11940, Note_on_c, 3, 61, 0
5, 11940, Note_on_c, 3, 65, 0
5, 11940, Note_on_c, 3, 68, 0
5, 11940, Note_on_c, 3, 60, 90
5, 11941, Note_on_c, 3, 63, 90
5, 11942, Note_on_c, 3, 67, 90
5, 12300, Note_on_c, 3, 67, 0
5, 12300, Note_on_c, 3, 63, 0
5, 12300, Note_on_c, 3, 60, 0
5, 12480, Note_on_c, 3, 60, 90
5, 12481, Note_on_c, 3, 63, 90
5, 12482, Note_on_c, 3, 67, 90
5, 12540, Note_on_c, 3, 67, 0
5, 12540, Note_on_c, 3, 63, 0
5, 12540, Note_on_c, 3, 60, 0
5, 12540, Note_on_c, 3, 67, 90
5, 12541, Note_on_c, 3, 63, 90
5, 12542, Note_on_c, 3, 60, 90
5, 12543, Note_on_c, 3, 55, 90
5, 12600, Note_on_c, 3, 55, 0
5, 12600, Note_on_c, 3, 67, 0
5, 12600, Note_on_c, 3, 63, 0
5, 12600, Note_on_c, 3, 60, 0
5, 12600, Note_on_c, 3, 55, 90
5, 12601, Note_on_c, 3, 60, 90
5, 12602, Note_on_c, 3, 63, 90
5, 12603, Note_on_c, 3, 67, 90
5, 12608, Note_on_c, 3, 67, 0
5, 12608, Note_on_c, 3, 55, 0
5, 12608, Note_on_c, 3, 60, 0
5, 12608, Note_on_c, 3, 63, 0
5, 12660, Note_on_c, 3, 67, 90
5, 12661, Note_on_c, 3, 63, 90
5, 12662, Note_on_c, 3, 60, 90
5, 12663, Note_on_c, 3, 55, 90
5, 12780, Note_on_c, 3, 55, 0
5, 12780, Note_on_c, 3, 67, 0
5, 12780, Note_on_c, 3, 63, 0
5, 12780, Note_on_c, 3, 60, 0
5, 12780, Note_on_c, 3, 55, 90
5, 12781, Note_on_c, 3, 60, 90
5, 12782, Note_on_c, 3, 63, 90
5, 12783, Note_on_c, 3, 67, 90
5, 12840, Note_on_c, 3, 67, 0
5, 12840, Note_on_c, 3, 55, 0
5, 12840, Note_on_c, 3, 60, 0
5, 12840, Note_on_c, 3, 63, 0
5, 12840, Note_on_c, 3, 67, 90
5, 12841, Note_on_c, 3, 63, 90
5, 12842, Note_on_c, 3, 60, 90
5, 12843, Note_on_c, 3, 55, 90
5, 12848, Note_on_c, 3, 55, 0
5, 12848, Note_on_c, 3, 67, 0
5, 12848, Note_on_c, 3, 63, 0
5, 12848, Note_on_c, 3, 60, 0
5, 12900, Note_on_c, 3, 55, 90
5, 12901, Note_on_c, 3, 60, 90
5, 12902, Note_on_c, 3, 63, 90
5, 12903, Note_on_c, 3, 67, 90
5, 12960, Note_on_c, 3, 67, 0
5, 12960, Note_on_c, 3, 55, 0
5, 12960, Note_on_c, 3, 60, 0
5, 12960, Note_on_c, 3, 63, 0
5, 12960, Note_on_c, 3, 65, 90
5, 12961, Note_on_c, 3, 60, 90
5, 12962, Note_on_c, 3, 56, 90
5, 13020, Note_on_c, 3, 56, 0
5, 13020, Note_on_c, 3, 60, 0
5, 13020, Note_on_c, 3, 65, 0
5, 13020, Note_on_c, 3, 56, 90
5, 13021, Note_on_c, 3, 60, 90
5, 13022, Note_on_c, 3, 65, 90
5, 13080, Note_on_c, 3, 65, 0
5, 13080, Note_on_c, 3, 60, 0
5, 13080, Note_on_c, 3, 56, 0
5, 13080, Note_on_c, 3, 65, 90
5, 13081, Note_on_c, 3, 60, 90
5, 13082, Note_on_c, 3, 56, 90
5, 13088, Note_on_c, 3, 56, 0
5, 13088, Note_on_c, 3, 60, 0
5, 13088, Note_on_c, 3, 65, 0
5, 13140, Note_on_c, 3, 56, 90
5, 13141, Note_on_c, 3, 60, 90
5, 13142, Note_on_c, 3, 65, 90
5, 13260, Note_on_c, 3, 65, 0
5, 13260, Note_on_c, 3, 60, 0
5, 13260, Note_on_c, 3, 56, 0
5, 13260, Note_on_c, 3, 65, 90
5, 13261, Note_on_c, 3, 60, 90
5, 13262, Note_on_c, 3, 56, 90
5, 13320, Note_on_c, 3, 56, 0
5, 13320, Note_on_c, 3, 60, 0
5, 13320, Note_on_c, 3, 65, 0
5, 13320, Note_on_c, 3, 56, 90
5, 13321, Note_on_c, 3, 60, 90
5, 13322, Note_on_c, 3, 65, 90
5, 13328, Note_on_c, 3, 65, 0
5, 13328, Note_on_c, 3, 60, 0
5, 13328, Note_on_c, 3, 56, 0
5, 13380, Note_on_c, 3, 65, 90
5, 13381, Note_on_c, 3, 60, 90
5, 13382, Note_on_c, 3, 56, 90
5, 13440, Note_on_c, 3, 56, 0
5, 13440, Note_on_c, 3, 60, 0
5, 13440, Note_on_c, 3, 65, 0
5, 13440, Note_on_c, 3, 68, 90
5, 13441, Note_on_c, 3, 65, 90
5, 13442, Note_on_c, 3, 60, 90
5, 13500, Note_on_c, 3, 60, 0
5, 13500, Note_on_c, 3, 65, 0
5, 13500, Note_on_c, 3, 68, 0
5, 13500, Note_on_c, 3, 56, 90
5, 13501, Note_on_c, 3, 60, 90
5, 13502, Note_on_c, 3, 65, 90
5, 13503, Note_on_c, 3, 68, 90
5, 13560, Note_on_c, 3, 68, 0
5, 13560, Note_on_c, 3, 56, 0
5, 13560, Note_on_c, 3, 60, 0
5, 13560, Note_on_c, 3, 65, 0
5, 13560, Note_on_c, 3, 68, 90
5, 13561, Note_on_c, 3, 65, 90
5, 13562, Note_on_c, 3, 60, 90
5, 13563, Note_on_c, 3, 56, 90
5, 13568, Note_on_c, 3, 56, 0
5, 13568, Note_on_c, 3, 68, 0
5, 13568, Note_on_c, 3, 65, 0
5, 13568, Note_on_c, 3, 60, 0
5, 13620, Note_on_c, 3, 56, 90
5, 13621, Note_on_c, 3, 60, 90
5, 13622, Note_on_c, 3, 65, 90
5, 13623, Note_on_c, 3, 68, 90
5, 13680, Note_on_c, 3, 68, 0
5, 13680, Note_on_c, 3, 56, 0
5, 13680, Note_on_c, 3, 60, 0
5, 13680, Note_on_c, 3, 65, 0
5, 13680, Note_on_c, 3, 67, 90
5, 13681, Note_on_c, 3, 63, 90
5, 13682, Note_on_c, 3, 58, 90
5, 13720, Note_on_c, 3, 58, 0
5, 13720, Note_on_c, 3, 63, 0
5, 13720, Note_on_c, 3, 67, 0
5, 13740, Note_on_c, 3, 58, 90
5, 13741, Note_on_c, 3, 63, 90
5, 13742, Note_on_c, 3, 67, 90
5, 13780, Note_on_c, 3, 67, 0
5, 13780, Note_on_c, 3, 63, 0
5, 13780, Note_on_c, 3, 58, 0
5, 13860, Note_on_c, 3, 67, 90
5, 13861, Note_on_c, 3, 63, 90
5, 13862, Note_on_c, 3, 58, 90
5, 13920, Note_on_c, 3, 58, 0
5, 13920, Note_on_c, 3, 63, 0
5, 13920, Note_on_c, 3, 67, 0
5, 13920, Note_on_c, 3, 60, 90
5, 13921, Note_on_c, 3, 63, 90
5, 13922, Note_on_c, 3, 68, 90
5, 13923, Note_on_c, 3, 72, 90
5, 13980, Note_on_c, 3, 72, 0
5, 13980, Note_on_c, 3, 60, 0
5, 13980, Note_on_c, 3, 63, 0
5, 13980, Note_on_c, 3, 68, 0
5, 13980, Note_on_c, 3, 72, 90
5, 13981, Note_on_c, 3, 72, 90
5, 13982, Note_on_c, 3, 68, 90
5, 13983, Note_on_c, 3, 63, 90
5, 13984, Note_on_c, 3, 60, 90
5, 14040, Note_on_c, 3, 60, 0
5, 14040, Note_on_c, 3, 68, 0
5, 14040, Note_on_c, 3, 72, 0
5, 14040, Note_on_c, 3, 72, 0
5, 14040, Note_on_c, 3, 63, 0
5, 14040, Note_on_c, 3, 60, 90
5, 14041, Note_on_c, 3, 63, 90
5, 14042, Note_on_c, 3, 68, 90
5, 14043, Note_on_c, 3, 72, 90
5, 14069, Note_on_c, 3, 72, 0
5, 14069, Note_on_c, 3, 60, 0
5, 14069, Note_on_c, 3, 63, 0
5, 14069, Note_on_c, 3, 68, 0
5, 14100, Note_on_c, 3, 72, 90
5, 14101, Note_on_c, 3, 68, 90
5, 14102, Note_on_c, 3, 63, 90
5, 14103, Note_on_c, 3, 60, 90
5, 14220, Note_on_c, 3, 60, 0
5, 14220, Note_on_c, 3, 72, 0
5, 14220, Note_on_c, 3, 68, 0
5, 14220, Note_on_c, 3, 63, 0
5, 14220, Note_on_c, 3, 60, 90
5, 14221, Note_on_c, 3, 63, 90
5, 14222, Note_on_c, 3, 68, 90
5, 14223, Note_on_c, 3, 72, 90
5, 14280, Note_on_c, 3, 72, 0
5, 14280, Note_on_c, 3, 60, 0
5, 14280, Note_on_c, 3, 63, 0
5, 14280, Note_on_c, 3, 68, 0
5, 14280, Note_on_c, 3, 72, 90
5, 14281, Note_on_c, 3, 68, 90
5, 14282, Note_on_c, 3, 63, 90
5, 14283, Note_on_c, 3, 60, 90
5, 14309, Note_on_c, 3, 60, 0
5, 14309, Note_on_c, 3, 72, 0
5, 14309, Note_on_c, 3, 68, 0
5, 14309, Note_on_c, 3, 63, 0
5, 14340, Note_on_c, 3, 60, 90
5, 14341, Note_on_c, 3, 63, 90
5, 14342, Note_on_c, 3, 68, 90
5, 14343, Note_on_c, 3, 72, 90
5, 14400, Note_on_c, 3, 72, 0
5, 14400, Note_on_c, 3, 60, 0
5, 14400, Note_on_c, 3, 63, 0
5, 14400, Note_on_c, 3, 68, 0
5, 14400, Note_on_c, 3, 60, 90
5, 14401, Note_on_c, 3, 63, 90
5, 14402, Note_on_c, 3, 67, 90
5, 14460, Note_on_c, 3, 67, 0
5, 14460, Note_on_c, 3, 63, 0
5, 14460, Note_on_c, 3, 60, 0
5, 14460, Note_on_c, 3, 67, 90
5, 14461, Note_on_c, 3, 63, 90
5, 14462, Note_on_c, 3, 60, 90
5, 14463, Note_on_c, 3, 55, 90
5, 14520, Note_on_c, 3, 55, 0
5, 14520, Note_on_c, 3, 67, 0
5, 14520, Note_on_c, 3, 63, 0
5, 14520, Note_on_c, 3, 60, 0
5, 14520, Note_on_c, 3, 55, 90
5, 14521, Note_on_c, 3, 60, 90
5, 14522, Note_on_c, 3, 63, 90
5, 14523, Note_on_c, 3, 67, 90
5, 14528, Note_on_c, 3, 67, 0
5, 14528, Note_on_c, 3, 55, 0
5, 14528, Note_on_c, 3, 60, 0
5, 14528, Note_on_c, 3, 63, 0
5, 14580, Note_on_c, 3, 67, 90
5, 14581, Note_on_c, 3, 63, 90
5, 14582, Note_on_c, 3, 60, 90
5, 14583, Note_on_c, 3, 55, 90
5, 14700, Note_on_c, 3, 55, 0
5, 14700, Note_on_c, 3, 67, 0
5, 14700, Note_on_c, 3, 63, 0
5, 14700, Note_on_c, 3, 60, 0
5, 14700, Note_on_c, 3, 55, 90
5, 14701, Note_on_c, 3, 60, 90
5, 14702, Note_on_c, 3, 63, 90
5, 14703, Note_on_c, 3, 67, 90
5, 14760, Note_on_c, 3, 67, 0
5, 14760, Note_on_c, 3, 55, 0
5, 14760, Note_on_c, 3, 60, 0
5, 14760, Note_on_c, 3, 63, 0
5, 14760, Note_on_c, 3, 67, 90
5, 14761, Note_on_c, 3, 63, 90
5, 14762, Note_on_c, 3, 60, 90
5, 14763, Note_on_c, 3, 55, 90
5, 14768, Note_on_c, 3, 55, 0
5, 14768, Note_on_c, 3, 67, 0
5, 14768, Note_on_c, 3, 63, 0
5, 14768, Note_on_c, 3, 60, 0
5, 14820, Note_on_c, 3, 55, 90
5, 14821, Note_on_c, 3, 60, 90
5, 14822, Note_on_c, 3, 63, 90
5, 14823, Note_on_c, 3, 67, 90
5, 14880, Note_on_c, 3, 67, 0
5, 14880, Note_on_c, 3, 55, 0
5, 14880, Note_on_c, 3, 60, 0
5, 14880, Note_on_c, 3, 63, 0
5, 14880, Note_on_c, 3, 65, 90
5, 14881, Note_on_c, 3, 60, 90
5, 14882, Note_on_c, 3, 56, 90
5, 14940, Note_on_c, 3, 56, 0
5, 14940, Note_on_c, 3, 60, 0
5, 14940, Note_on_c, 3, 65, 0
5, 14940, Note_on_c, 3, 56, 90
5, 14941, Note_on_c, 3, 60, 90
5, 14942, Note_on_c, 3, 65, 90
5, 15000, Note_on_c, 3, 65, 0
5, 15000, Note_on_c, 3, 60, 0
5, 15000, Note_on_c, 3, 56, 0
5, 15000, Note_on_c, 3, 65, 90
5, 15001, Note_on_c, 3, 60, 90
5, 15002, Note_on_c, 3, 56, 90
5, 15008, Note_on_c, 3, 56, 0
5, 15008, Note_on_c, 3, 60, 0
5, 15008, Note_on_c, 3, 65, 0
5, 15060, Note_on_c, 3, 56, 90
5, 15061, Note_on_c, 3, 60, 90
5, 15062, Note_on_c, 3, 65, 90
5, 15180, Note_on_c, 3, 65, 0
5, 15180, Note_on_c, 3, 60, 0
5, 15180, Note_on_c, 3, 56, 0
5, 15180, Note_on_c, 3, 65, 90
5, 15181, Note_on_c, 3, 60, 90
5, 15182, Note_on_c, 3, 56, 90
5, 15240, Note_on_c, 3, 56, 0
5, 15240, Note_on_c, 3, 60, 0
5, 15240, Note_on_c, 3, 65, 0
5, 15240, Note_on_c, 3, 56, 90
5, 15241, Note_on_c, 3, 60, 90
5, 15242, Note_on_c, 3, 65, 90
5, 15248, Note_on_c, 3, 65, 0
5, 15248, Note_on_c, 3, 60, 0
5, 15248, Note_on_c, 3, 56, 0
5, 15300, Note_on_c, 3, 65, 90
5, 15301, Note_on_c, 3, 60, 90
5, 15302, Note_on_c, 3, 56, 90
5, 15360, Note_on_c, 3, 56, 0
5, 15360, Note_on_c, 3, 60, 0
5, 15360, Note_on_c, 3, 65, 0
5, 15360, Note_on_c, 3, 58, 90
5, 15361, Note_on_c, 3, 61, 90
5, 15362, Note_on_c, 3, 65, 90
5, 15420, Note_on_c, 3, 65, 0
5, 15420, Note_on_c, 3, 61, 0
5, 15420, Note_on_c, 3, 58, 0
5, 15420, Note_on_c, 3, 65, 90
5, 15421, Note_on_c, 3, 61, 90
5, 15422, Note_on_c, 3, 58, 90
5, 15480, Note_on_c, 3, 58, 0
5, 15480, Note_on_c, 3, 61, 0
5, 15480, Note_on_c, 3, 65, 0
5, 15480, Note_on_c, 3, 58, 90
5, 15481, Note_on_c, 3, 61, 90
5, 15482, Note_on_c, 3, 65, 90
5, 15509, Note_on_c, 3, 65, 0
5, 15509, Note_on_c, 3, 61, 0
5, 15509, Note_on_c, 3, 58, 0
5, 15540, Note_on_c, 3, 65, 90
5, 15541, Note_on_c, 3, 61, 90
5, 15542, Note_on_c, 3, 58, 90
5, 15660, Note_on_c, 3, 58, 0
5, 15660, Note_on_c, 3, 61, 0
5, 15660, Note_on_c, 3, 65, 0
5, 15660, Note_on_c, 3, 58, 90
5, 15661, Note_on_c, 3, 61, 90
5, 15662, Note_on_c, 3, 65, 90
5, 15720, Note_on_c, 3, 65, 0
5, 15720, Note_on_c, 3, 61, 0
5, 15720, Note_on_c, 3, 58, 0
5, 15720, Note_on_c, 3, 65, 90
5, 15721, Note_on_c, 3, 61, 90
5, 15722, Note_on_c, 3, 58, 90
5, 15749, Note_on_c, 3, 58, 0
5, 15749, Note_on_c, 3, 61, 0
5, 15749, Note_on_c, 3, 65, 0
5, 15780, Note_on_c, 3, 58, 90
5, 15781, Note_on_c, 3, 61, 90
5, 15782, Note_on_c, 3, 65, 90
5, 15840, Note_on_c, 3, 65, 0
5, 15840, Note_on_c, 3, 61, 0
5, 15840, Note_on_c, 3, 58, 0
5, 15840, Note_on_c, 3, 56, 90
5, 15841, Note_on_c, 3, 61, 90
5, 15842, Note_on_c, 3, 68, 90
5, 15900, Note_on_c, 3, 68, 0
5, 15900, Note_on_c, 3, 61, 0
5, 15900, Note_on_c, 3, 56, 0
5, 15900, Note_on_c, 3, 68, 90
5, 15901, Note_on_c, 3, 61, 90
5, 15902, Note_on_c, 3, 61, 90
5, 15903, Note_on_c, 3, 56, 90
5, 15960, Note_on_c, 3, 56, 0
5, 15960, Note_on_c, 3, 68, 0
5, 15960, Note_on_c, 3, 61, 0
5, 15960, Note_on_c, 3, 61, 0
5, 15960, Note_on_c, 3, 56, 90
5, 15961, Note_on_c, 3, 61, 90
5, 15962, Note_on_c, 3, 68, 90
5, 15968, Note_on_c, 3, 68, 0
5, 15968, Note_on_c, 3, 61, 0
5, 15968, Note_on_c, 3, 56, 0
5, 16020, Note_on_c, 3, 68, 90
5, 16021, Note_on_c, 3, 61, 90
5, 16022, Note_on_c, 3, 56, 90
5, 16080, Note_on_c, 3, 56, 0
5, 16080, Note_on_c, 3, 61, 0
5, 16080, Note_on_c, 3, 68, 0
5, 16080, Note_on_c, 3, 56, 90
5, 16081, Note_on_c, 3, 61, 90
5, 16082, Note_on_c, 3, 68, 90
5, 16140, Note_on_c, 3, 68, 0
5, 16140, Note_on_c, 3, 61, 0
5, 16140, Note_on_c, 3, 56, 0
5, 16140, Note_on_c, 3, 68, 90
5, 16141, Note_on_c, 3, 61, 90
5, 16142, Note_on_c, 3, 61, 90
5, 16143, Note_on_c, 3, 56, 90
5, 16200, Note_on_c, 3, 56, 0
5, 16200, Note_on_c, 3, 68, 0
5, 16200, Note_on_c, 3, 61, 0
5, 16200, Note_on_c, 3, 61, 0
5, 16200, Note_on_c, 3, 56, 90
5, 16201, Note_on_c, 3, 61, 90
5, 16202, Note_on_c, 3, 68, 90
5, 16208, Note_on_c, 3, 68, 0
5, 16208, Note_on_c, 3, 61, 0
5, 16208, Note_on_c, 3, 56, 0
5, 16260, Note_on_c, 3, 68, 90
5, 16261, Note_on_c, 3, 61, 90
5, 16262, Note_on_c, 3, 56, 90
5, 16320, Note_on_c, 3, 56, 0
5, 16320, Note_on_c, 3, 61, 0
5, 16320, Note_on_c, 3, 68, 0
5, 16320, Note_on_c, 3, 55, 90
5, 16321, Note_on_c, 3, 58, 90
5, 16322, Note_on_c, 3, 61, 90
5, 16323, Note_on_c, 3, 67, 90
5, 16380, Note_on_c, 3, 67, 0
5, 16380, Note_on_c, 3, 55, 0
5, 16380, Note_on_c, 3, 58, 0
5, 16380, Note_on_c, 3, 61, 0
5, 16380, Note_on_c, 3, 67, 90
5, 16381, Note_on_c, 3, 61, 90
5, 16382, Note_on_c, 3, 58, 90
5, 16383, Note_on_c, 3, 55, 90
5, 16440, Note_on_c, 3, 55, 0
5, 16440, Note_on_c, 3, 67, 0
5, 16440, Note_on_c, 3, 61, 0
5, 16440, Note_on_c, 3, 58, 0
5, 16440, Note_on_c, 3, 55, 90
5, 16441, Note_on_c, 3, 61, 90
5, 16442, Note_on_c, 3, 67, 90
5, 16448, Note_on_c, 3, 67, 0
5, 16448, Note_on_c, 3, 61, 0
5, 16448, Note_on_c, 3, 55, 0
5, 16500, Note_on_c, 3, 67, 90
5, 16501, Note_on_c, 3, 61, 90
5, 16502, Note_on_c, 3, 58, 90
5, 16503, Note_on_c, 3, 55, 90
5, 16560, Note_on_c, 3, 55, 0
5, 16560, Note_on_c, 3, 67, 0
5, 16560, Note_on_c, 3, 61, 0
5, 16560, Note_on_c, 3, 58, 0
5, 16560, Note_on_c, 3, 55, 90
5, 16561, Note_on_c, 3, 58, 90
5, 16562, Note_on_c, 3, 61, 90
5, 16563, Note_on_c, 3, 67, 90
5, 16620, Note_on_c, 3, 67, 0
5, 16620, Note_on_c, 3, 55, 0
5, 16620, Note_on_c, 3, 58, 0
5, 16620, Note_on_c, 3, 61, 0
5, 16620, Note_on_c, 3, 67, 90
5, 16621, Note_on_c, 3, 61, 90
5, 16622, Note_on_c, 3, 58, 90
5, 16623, Note_on_c, 3, 55, 90
5, 16680, Note_on_c, 3, 55, 0
5, 16680, Note_on_c, 3, 67, 0
5, 16680, Note_on_c, 3, 61, 0
5, 16680, Note_on_c, 3, 58, 0
5, 16680, Note_on_c, 3, 55, 90
5, 16681, Note_on_c, 3, 61, 90
5, 16682, Note_on_c, 3, 67, 90
5, 16688, Note_on_c, 3, 67, 0
5, 16688, Note_on_c, 3, 61, 0
5, 16688, Note_on_c, 3, 55, 0
5, 16740, Note_on_c, 3, 67, 90
5, 16741, Note_on_c, 3, 61, 90
5, 16742, Note_on_c, 3, 58, 90
5, 16743, Note_on_c, 3, 55, 90
5, 16800, Note_on_c, 3, 55, 0
5, 16800, Note_on_c, 3, 67, 0
5, 16800, Note_on_c, 3, 61, 0
5, 16800, Note_on_c, 3, 58, 0
5, 16800, Note_on_c, 3, 60, 90
5, 16801, Note_on_c, 3, 63, 90
5, 16802, Note_on_c, 3, 68, 90
5, 16860, Note_on_c, 3, 68, 0
5, 16860, Note_on_c, 3, 63, 0
5, 16860, Note_on_c, 3, 60, 0
5, 16860, Note_on_c, 3, 68, 90
5, 16861, Note_on_c, 3, 63, 90
5, 16862, Note_on_c, 3, 60, 90
5, 16920, Note_on_c, 3, 60, 0
5, 16920, Note_on_c, 3, 63, 0
5, 16920, Note_on_c, 3, 68, 0
5, 16920, Note_on_c, 3, 60, 90
5, 16921, Note_on_c, 3, 63, 90
5, 16922, Note_on_c, 3, 68, 90
5, 16928, Note_on_c, 3, 68, 0
5, 16928, Note_on_c, 3, 63, 0
5, 16928, Note_on_c, 3, 60, 0
5, 16980, Note_on_c, 3, 68, 90
5, 16981, Note_on_c, 3, 63, 90
5, 16982, Note_on_c, 3, 60, 90
5, 17100, Note_on_c, 3, 60, 0
5, 17100, Note_on_c, 3, 63, 0
5, 17100, Note_on_c, 3, 68, 0
5, 17100, Note_on_c, 3, 60, 90
5, 17101, Note_on_c, 3, 63, 90
5, 17102, Note_on_c, 3, 68, 90
5, 17160, Note_on_c, 3, 68, 0
5, 17160, Note_on_c, 3, 63, 0
5, 17160, Note_on_c, 3, 60, 0
5, 17160, Note_on_c, 3, 68, 90
5, 17161, Note_on_c, 3, 63, 90
5, 17162, Note_on_c, 3, 60, 90
5, 17168, Note_on_c, 3, 60, 0
5, 17168, Note_on_c, 3, 63, 0
5, 17168, Note_on_c, 3, 68, 0
5, 17220, Note_on_c, 3, 60, 90
5, 17221, Note_on_c, 3, 63, 90
5, 17222, Note_on_c, 3, 68, 90
5, 17280, Note_on_c, 3, 68, 0
5, 17280, Note_on_c, 3, 63, 0
5, 17280, Note_on_c, 3, 60, 0
5, 17280, Note_on_c, 3, 65, 90
5, 17281, Note_on_c, 3, 60, 90
5, 17282, Note_on_c, 3, 56, 90
5, 17340, Note_on_c, 3, 56, 0
5, 17340, Note_on_c, 3, 60, 0
5, 17340, Note_on_c, 3, 65, 0
5, 17340, Note_on_c, 3, 56, 90
5, 17341, Note_on_c, 3, 60, 90
5, 17342, Note_on_c, 3, 65, 90
5, 17400, Note_on_c, 3, 65, 0
5, 17400, Note_on_c, 3, 60, 0
5, 17400, Note_on_c, 3, 56, 0
5, 17400, Note_on_c, 3, 65, 90
5, 17401, Note_on_c, 3, 60, 90
5, 17402, Note_on_c, 3, 56, 90
5, 17408, Note_on_c, 3, 56, 0
5, 17408, Note_on_c, 3, 60, 0
5, 17408, Note_on_c, 3, 65, 0
5, 17460, Note_on_c, 3, 56, 90
5, 17461, Note_on_c, 3, 60, 90
5, 17462, Note_on_c, 3, 65, 90
5, 17580, Note_on_c, 3, 65, 0
5, 17580, Note_on_c, 3, 60, 0
5, 17580, Note_on_c, 3, 56, 0
5, 17580, Note_on_c, 3, 65, 90
5, 17581, Note_on_c, 3, 60, 90
5, 17582, Note_on_c, 3, 56, 90
5, 17640, Note_on_c, 3, 56, 0
5, 17640, Note_on_c, 3, 60, 0
5, 17640, Note_on_c, 3, 65, 0
5, 17640, Note_on_c, 3, 56, 90
5, 17641, Note_on_c, 3, 60, 90
5, 17642, Note_on_c, 3, 65, 90
5, 17648, Note_on_c, 3, 65, 0
5, 17648, Note_on_c, 3, 60, 0
5, 17648, Note_on_c, 3, 56, 0
5, 17700, Note_on_c, 3, 65, 90
5, 17701, Note_on_c, 3, 60, 90
5, 17702, Note_on_c, 3, 56, 90
5, 17760, Note_on_c, 3, 56, 0
5, 17760, Note_on_c, 3, 60, 0
5, 17760, Note_on_c, 3, 65, 0
5, 17760, Note_on_c, 3, 60, 90
5, 17761, Note_on_c, 3, 63, 90
5, 17762, Note_on_c, 3, 67, 90
5, 17820, Note_on_c, 3, 67, 0
5, 17820, Note_on_c, 3, 63, 0
5, 17820, Note_on_c, 3, 60, 0
5, 17820, Note_on_c, 3, 67, 90
5, 17821, Note_on_c, 3, 63, 90
5, 17822, Note_on_c, 3, 60, 90
5, 17823, Note_on_c, 3, 55, 90
5, 17880, Note_on_c, 3, 55, 0
5, 17880, Note_on_c, 3, 67, 0
5, 17880, Note_on_c, 3, 63, 0
5, 17880, Note_on_c, 3, 60, 0
5, 17880, Note_on_c, 3, 55, 90
5, 17881, Note_on_c, 3, 60, 90
5, 17882, Note_on_c, 3, 63, 90
5, 17883, Note_on_c, 3, 67, 90
5, 17888, Note_on_c, 3, 67, 0
5, 17888, Note_on_c, 3, 55, 0
5, 17888, Note_on_c, 3, 60, 0
5, 17888, Note_on_c, 3, 63, 0
5, 17940, Note_on_c, 3, 67, 90
5, 17941, Note_on_c, 3, 63, 90
5, 17942, Note_on_c, 3, 60, 90
5, 17943, Note_on_c, 3, 55, 90
5, 18060, Note_on_c, 3, 55, 0
5, 18060, Note_on_c, 3, 67, 0
5, 18060, Note_on_c, 3, 63, 0
5, 18060, Note_on_c, 3, 60, 0
5, 18060, Note_on_c, 3, 55, 90
5, 18061, Note_on_c, 3, 60, 90
5, 18062, Note_on_c, 3, 63, 90
5, 18063, Note_on_c, 3, 67, 90
5, 18120, Note_on_c, 3, 67, 0
5, 18120, Note_on_c, 3, 55, 0
5, 18120, Note_on_c, 3, 60, 0
5, 18120, Note_on_c, 3, 63, 0
5, 18120, Note_on_c, 3, 67, 90
5, 18121, Note_on_c, 3, 63, 90
5, 18122, Note_on_c, 3, 60, 90
5, 18123, Note_on_c, 3, 55, 90
5, 18128, Note_on_c, 3, 55, 0
5, 18128, Note_on_c, 3, 67, 0
5, 18128, Note_on_c, 3, 63, 0
5, 18128, Note_on_c, 3, 60, 0
5, 18180, Note_on_c, 3, 55, 90
5, 18181, Note_on_c, 3, 60, 90
5, 18182, Note_on_c, 3, 63, 90
5, 18183, Note_on_c, 3, 67, 90
5, 18240, Note_on_c, 3, 67, 0
5, 18240, Note_on_c, 3, 55, 0
5, 18240, Note_on_c, 3, 60, 0
5, 18240, Note_on_c, 3, 63, 0
5, 18240, Note_on_c, 3, 67, 90
5, 18241, Note_on_c, 3, 63, 90
5, 18242, Note_on_c, 3, 60, 90
5, 18300, Note_on_c, 3, 60, 0
5, 18300, Note_on_c, 3, 63, 0
5, 18300, Note_on_c, 3, 67, 0
5, 18300, Note_on_c, 3, 55, 90
5, 18301, Note_on_c, 3, 60, 90
5, 18302, Note_on_c, 3, 63, 90
5, 18303, Note_on_c, 3, 67, 90
5, 18360, Note_on_c, 3, 67, 0
5, 18360, Note_on_c, 3, 55, 0
5, 18360, Note_on_c, 3, 60, 0
5, 18360, Note_on_c, 3, 63, 0
5, 18360, Note_on_c, 3, 67, 90
5, 18361, Note_on_c, 3, 63, 90
5, 18362, Note_on_c, 3, 60, 90
5, 18363, Note_on_c, 3, 55, 90
5, 18368, Note_on_c, 3, 55, 0
5, 18368, Note_on_c, 3, 67, 0
5, 18368, Note_on_c, 3, 63, 0
5, 18368, Note_on_c, 3, 60, 0
5, 18420, Note_on_c, 3, 55, 90
5, 18421, Note_on_c, 3, 60, 90
5, 18422, Note_on_c, 3, 63, 90
5, 18423, Note_on_c, 3, 67, 90
5, 18540, Note_on_c, 3, 67, 0
5, 18540, Note_on_c, 3, 55, 0
5, 18540, Note_on_c, 3, 60, 0
5, 18540, Note_on_c, 3, 63, 0
5, 18540, Note_on_c, 3, 67, 90
5, 18541, Note_on_c, 3, 63, 90
5, 18542, Note_on_c, 3, 60, 90
5, 18543, Note_on_c, 3, 55, 90
5, 18600, Note_on_c, 3, 55, 0
5, 18600, Note_on_c, 3, 67, 0
5, 18600, Note_on_c, 3, 63, 0
5, 18600, Note_on_c, 3, 60, 0
5, 18600, Note_on_c, 3, 55, 90
5, 18601, Note_on_c, 3, 60, 90
5, 18602, Note_on_c, 3, 63, 90
5, 18603, Note_on_c, 3, 67, 90
5, 18608, Note_on_c, 3, 67, 0
5, 18608, Note_on_c, 3, 55, 0
5, 18608, Note_on_c, 3, 60, 0
5, 18608, Note_on_c, 3, 63, 0
5, 18660, Note_on_c, 3, 67, 90
5, 18661, Note_on_c, 3, 63, 90
5, 18662, Note_on_c, 3, 60, 90
5, 18663, Note_on_c, 3, 55, 90
5, 18720, Note_on_c, 3, 55, 0
5, 18720, Note_on_c, 3, 67, 0
5, 18720, Note_on_c, 3, 63, 0
5, 18720, Note_on_c, 3, 60, 0
5, 18720, Note_on_c, 3, 56, 90
5, 18721, Note_on_c, 3, 60, 90
5, 18722, Note_on_c, 3, 65, 90
5, 18780, Note_on_c, 3, 65, 0
5, 18780, Note_on_c, 3, 60, 0
5, 18780, Note_on_c, 3, 56, 0
5, 18780, Note_on_c, 3, 65, 90
5, 18781, Note_on_c, 3, 60, 90
5, 18782, Note_on_c, 3, 56, 90
5, 18840, Note_on_c, 3, 56, 0
5, 18840, Note_on_c, 3, 60, 0
5, 18840, Note_on_c, 3, 65, 0
5, 18840, Note_on_c, 3, 56, 90
5, 18841, Note_on_c, 3, 60, 90
5, 18842, Note_on_c, 3, 65, 90
5, 18848, Note_on_c, 3, 65, 0
5, 18848, Note_on_c, 3, 60, 0
5, 18848, Note_on_c, 3, 56, 0
5, 18900, Note_on_c, 3, 65, 90
5, 18901, Note_on_c, 3, 60, 90
5, 18902, Note_on_c, 3, 56, 90
5, 19020, Note_on_c, 3, 56, 0
5, 19020, Note_on_c, 3, 60, 0
5, 19020, Note_on_c, 3, 65, 0
5, 19020, Note_on_c, 3, 56, 90
5, 19021, Note_on_c, 3, 60, 90
5, 19022, Note_on_c, 3, 65, 90
5, 19080, Note_on_c, 3, 65, 0
5, 19080, Note_on_c, 3, 60, 0
5, 19080, Note_on_c, 3, 56, 0
5, 19080, Note_on_c, 3, 65, 90
5, 19081, Note_on_c, 3, 60, 90
5, 19082, Note_on_c, 3, 56, 90
5, 19088, Note_on_c, 3, 56, 0
5, 19088, Note_on_c, 3, 60, 0
5, 19088, Note_on_c, 3, 65, 0
5, 19140, Note_on_c, 3, 56, 90
5, 19141, Note_on_c, 3, 60, 90
5, 19142, Note_on_c, 3, 65, 90
5, 19200, Note_on_c, 3, 65, 0
5, 19200, Note_on_c, 3, 60, 0
5, 19200, Note_on_c, 3, 56, 0
5, 19200, Note_on_c, 3, 67, 90
5, 19201, Note_on_c, 3, 63, 90
5, 19202, Note_on_c, 3, 60, 90
5, 19260, Note_on_c, 3, 60, 0
5, 19260, Note_on_c, 3, 63, 0
5, 19260, Note_on_c, 3, 67, 0
5, 19260, Note_on_c, 3, 55, 90
5, 19261, Note_on_c, 3, 60, 90
5, 19262, Note_on_c, 3, 63, 90
5, 19263, Note_on_c, 3, 67, 90
5, 19320, Note_on_c, 3, 67, 0
5, 19320, Note_on_c, 3, 55, 0
5, 19320, Note_on_c, 3, 60, 0
5, 19320, Note_on_c, 3, 63, 0
5, 19320, Note_on_c, 3, 67, 90
5, 19321, Note_on_c, 3, 63, 90
5, 19322, Note_on_c, 3, 60, 90
5, 19323, Note_on_c, 3, 55, 90
5, 19328, Note_on_c, 3, 55, 0
5, 19328, Note_on_c, 3, 67, 0
5, 19328, Note_on_c, 3, 63, 0
5, 19328, Note_on_c, 3, 60, 0
5, 19380, Note_on_c, 3, 55, 90
5, 19381, Note_on_c, 3, 60, 90
5, 19382, Note_on_c, 3, 63, 90
5, 19383, Note_on_c, 3, 67, 90
5, 19500, Note_on_c, 3, 67, 0
5, 19500, Note_on_c, 3, 55, 0
5, 19500, Note_on_c, 3, 60, 0
5, 19500, Note_on_c, 3, 63, 0
5, 19500, Note_on_c, 3, 67, 90
5, 19501, Note_on_c, 3, 63, 90
5, 19502, Note_on_c, 3, 60, 90
5, 19503, Note_on_c, 3, 55, 90
5, 19560, Note_on_c, 3, 55, 0
5, 19560, Note_on_c, 3, 67, 0
5, 19560, Note_on_c, 3, 63, 0
5, 19560, Note_on_c, 3, 60, 0
5, 19560, Note_on_c, 3, 55, 90
5, 19561, Note_on_c, 3, 60, 90
5, 19562, Note_on_c, 3, 63, 90
5, 19563, Note_on_c, 3, 67, 90
5, 19568, Note_on_c, 3, 67, 0
5, 19568, Note_on_c, 3, 55, 0
5, 19568, Note_on_c, 3, 60, 0
5, 19568, Note_on_c, 3, 63, 0
5, 19620, Note_on_c, 3, 67, 90
5, 19621, Note_on_c, 3, 63, 90
5, 19622, Note_on_c, 3, 60, 90
5, 19623, Note_on_c, 3, 55, 90
5, 19680, Note_on_c, 3, 55, 0
5, 19680, Note_on_c, 3, 67, 0
5, 19680, Note_on_c, 3, 63, 0
5, 19680, Note_on_c, 3, 60, 0
5, 19680, Note_on_c, 3, 60, 90
5, 19681, Note_on_c, 3, 65, 90
5, 19682, Note_on_c, 3, 68, 90
5, 19740, Note_on_c, 3, 68, 0
5, 19740, Note_on_c, 3, 65, 0
5, 19740, Note_on_c, 3, 60, 0
5, 19740, Note_on_c, 3, 68, 90
5, 19741, Note_on_c, 3, 65, 90
5, 19742, Note_on_c, 3, 60, 90
5, 19743, Note_on_c, 3, 56, 90
5, 19800, Note_on_c, 3, 56, 0
5, 19800, Note_on_c, 3, 68, 0
5, 19800, Note_on_c, 3, 65, 0
5, 19800, Note_on_c, 3, 60, 0
5, 19800, Note_on_c, 3, 56, 90
5, 19801, Note_on_c, 3, 60, 90
5, 19802, Note_on_c, 3, 65, 90
5, 19803, Note_on_c, 3, 68, 90
5, 19808, Note_on_c, 3, 68, 0
5, 19808, Note_on_c, 3, 56, 0
5, 19808, Note_on_c, 3, 60, 0
5, 19808, Note_on_c, 3, 65, 0
5, 19860, Note_on_c, 3, 68, 90
5, 19861, Note_on_c, 3, 65, 90
5, 19862, Note_on_c, 3, 60, 90
5, 19863, Note_on_c, 3, 56, 90
5, 19980, Note_on_c, 3, 56, 0
5, 19980, Note_on_c, 3, 68, 0
5, 19980, Note_on_c, 3, 65, 0
5, 19980, Note_on_c, 3, 60, 0
5, 19980, Note_on_c, 3, 56, 90
5, 19981, Note_on_c, 3, 60, 90
5, 19982, Note_on_c, 3, 65, 90
5, 19983, Note_on_c, 3, 68, 90
5, 20040, Note_on_c, 3, 68, 0
5, 20040, Note_on_c, 3, 56, 0
5, 20040, Note_on_c, 3, 60, 0
5, 20040, Note_on_c, 3, 65, 0
5, 20040, Note_on_c, 3, 68, 90
5, 20041, Note_on_c, 3, 65, 90
5, 20042, Note_on_c, 3, 60, 90
5, 20043, Note_on_c, 3, 56, 90
5, 20048, Note_on_c, 3, 56, 0
5, 20048, Note_on_c, 3, 68, 0
5, 20048, Note_on_c, 3, 65, 0
5, 20048, Note_on_c, 3, 60, 0
5, 20100, Note_on_c, 3, 56, 90
5, 20101, Note_on_c, 3, 60, 90
5, 20102, Note_on_c, 3, 65, 90
5, 20103, Note_on_c, 3, 68, 90
5, 20160, Note_on_c, 3, 68, 0
5, 20160, Note_on_c, 3, 56, 0
5, 20160, Note_on_c, 3, 60, 0
5, 20160, Note_on_c, 3, 65, 0
5, 20160, Note_on_c, 3, 63, 90
5, 20161, Note_on_c, 3, 58, 90
5, 20162, Note_on_c, 3, 55, 90
5, 20220, Note_on_c, 3, 55, 0
5, 20220, Note_on_c, 3, 58, 0
5, 20220, Note_on_c, 3, 63, 0
5, 20220, Note_on_c, 3, 55, 90
5, 20221, Note_on_c, 3, 58, 90
5, 20222, Note_on_c, 3, 58, 90
5, 20223, Note_on_c, 3, 63, 90
5, 20280, Note_on_c, 3, 63, 0
5, 20280, Note_on_c, 3, 55, 0
5, 20280, Note_on_c, 3, 58, 0
5, 20280, Note_on_c, 3, 58, 0
5, 20280, Note_on_c, 3, 63, 90
5, 20281, Note_on_c, 3, 58, 90
5, 20282, Note_on_c, 3, 58, 90
5, 20283, Note_on_c, 3, 55, 90
5, 20288, Note_on_c, 3, 55, 0
5, 20288, Note_on_c, 3, 63, 0
5, 20288, Note_on_c, 3, 58, 0
5, 20288, Note_on_c, 3, 58, 0
5, 20340, Note_on_c, 3, 55, 90
5, 20341, Note_on_c, 3, 58, 90
5, 20342, Note_on_c, 3, 58, 90
5, 20343, Note_on_c, 3, 63, 90
5, 20460, Note_on_c, 3, 63, 0
5, 20460, Note_on_c, 3, 55, 0
5, 20460, Note_on_c, 3, 58, 0
5, 20460, Note_on_c, 3, 58, 0
5, 20460, Note_on_c, 3, 63, 90
5, 20461, Note_on_c, 3, 58, 90
5, 20462, Note_on_c, 3, 58, 90
5, 20463, Note_on_c, 3, 55, 90
5, 20520, Note_on_c, 3, 55, 0
5, 20520, Note_on_c, 3, 63, 0
5, 20520, Note_on_c, 3, 58, 0
5, 20520, Note_on_c, 3, 58, 0
5, 20520, Note_on_c, 3, 55, 90
5, 20521, Note_on_c, 3, 58, 90
5, 20522, Note_on_c, 3, 58, 90
5, 20523, Note_on_c, 3, 63, 90
5, 20528, Note_on_c, 3, 63, 0
5, 20528, Note_on_c, 3, 55, 0
5, 20528, Note_on_c, 3, 58, 0
5, 20528, Note_on_c, 3, 58, 0
5, 20580, Note_on_c, 3, 63, 90
5, 20581, Note_on_c, 3, 58, 90
5, 20582, Note_on_c, 3, 58, 90
5, 20583, Note_on_c, 3, 55, 90
5, 20640, Note_on_c, 3, 55, 0
5, 20640, Note_on_c, 3, 63, 0
5, 20640, Note_on_c, 3, 58, 0
5, 20640, Note_on_c, 3, 58, 0
5, 20640, Note_on_c, 3, 56, 90
5, 20641, Note_on_c, 3, 60, 90
5, 20642, Note_on_c, 3, 65, 90
5, 20700, Note_on_c, 3, 65, 0
5, 20700, Note_on_c, 3, 60, 0
5, 20700, Note_on_c, 3, 56, 0
5, 20700, Note_on_c, 3, 65, 90
5, 20701, Note_on_c, 3, 60, 90
5, 20702, Note_on_c, 3, 56, 90
5, 20760, Note_on_c, 3, 56, 0
5, 20760, Note_on_c, 3, 60, 0
5, 20760, Note_on_c, 3, 65, 0
5, 20760, Note_on_c, 3, 56, 90
5, 20761, Note_on_c, 3, 60, 90
5, 20762, Note_on_c, 3, 65, 90
5, 20768, Note_on_c, 3, 65, 0
5, 20768, Note_on_c, 3, 60, 0
5, 20768, Note_on_c, 3, 56, 0
5, 20820, Note_on_c, 3, 65, 90
5, 20821, Note_on_c, 3, 60, 90
5, 20822, Note_on_c, 3, 56, 90
5, 20940, Note_on_c, 3, 56, 0
5, 20940, Note_on_c, 3, 60, 0
5, 20940, Note_on_c, 3, 65, 0
5, 20940, Note_on_c, 3, 56, 90
5, 20941, Note_on_c, 3, 60, 90
5, 20942, Note_on_c, 3, 65, 90
5, 21000, Note_on_c, 3, 65, 0
5, 21000, Note_on_c, 3, 60, 0
5, 21000, Note_on_c, 3, 56, 0
5, 21000, Note_on_c, 3, 65, 90
5, 21001, Note_on_c, 3, 60, 90
5, 21002, Note_on_c, 3, 56, 90
5, 21008, Note_on_c, 3, 56, 0
5, 21008, Note_on_c, 3, 60, 0
5, 21008, Note_on_c, 3, 65, 0
5, 21060, Note_on_c, 3, 56, 90
5, 21061, Note_on_c, 3, 60, 90
5, 21062, Note_on_c, 3, 65, 90
5, 21120, Note_on_c, 3, 65, 0
5, 21120, Note_on_c, 3, 60, 0
5, 21120, Note_on_c, 3, 56, 0
5, 21120, Note_on_c, 3, 68, 90
5, 21120, Note_on_c, 3, 65, 90
5, 21120, Note_on_c, 3, 60, 90
5, 21180, Note_on_c, 3, 60, 0
5, 21180, Note_on_c, 3, 65, 0
5, 21180, Note_on_c, 3, 68, 0
5, 21180, Note_on_c, 3, 56, 90
5, 21180, Note_on_c, 3, 60, 90
5, 21180, Note_on_c, 3, 65, 90
5, 21180, Note_on_c, 3, 68, 90
5, 21240, Note_on_c, 3, 68, 0
5, 21240, Note_on_c, 3, 56, 0
5, 21240, Note_on_c, 3, 60, 0
5, 21240, Note_on_c, 3, 65, 0
5, 21240, Note_on_c, 3, 68, 90
5, 21240, Note_on_c, 3, 65, 90
5, 21240, Note_on_c, 3, 60, 90
5, 21240, Note_on_c, 3, 56, 90
5, 21269, Note_on_c, 3, 56, 0
5, 21269, Note_on_c, 3, 68, 0
5, 21269, Note_on_c, 3, 65, 0
5, 21269, Note_on_c, 3, 60, 0
5, 21300, Note_on_c, 3, 56, 90
5, 21300, Note_on_c, 3, 60, 90
5, 21300, Note_on_c, 3, 65, 90
5, 21300, Note_on_c, 3, 68, 90
5, 21360, Note_on_c, 3, 68, 0
5, 21360, Note_on_c, 3, 56, 0
5, 21360, Note_on_c, 3, 60, 0
5, 21360, Note_on_c, 3, 65, 0
5, 21360, Note_on_c, 3, 68, 90
5, 21360, Note_on_c, 3, 65, 90
5, 21360, Note_on_c, 3, 60, 90
5, 21420, Note_on_c, 3, 60, 0
5, 21420, Note_on_c, 3, 65, 0
5, 21420, Note_on_c, 3, 68, 0
5, 21420, Note_on_c, 3, 56, 90
5, 21420, Note_on_c, 3, 60, 90
5, 21420, Note_on_c, 3, 65, 90
5, 21420, Note_on_c, 3, 68, 90
5, 21480, Note_on_c, 3, 68, 0
5, 21480, Note_on_c, 3, 56, 0
5, 21480, Note_on_c, 3, 60, 0
5, 21480, Note_on_c, 3, 65, 0
5, 21480, Note_on_c, 3, 68, 90
5, 21480, Note_on_c, 3, 65, 90
5, 21480, Note_on_c, 3, 60, 90
5, 21480, Note_on_c, 3, 56, 90
5, 21509, Note_on_c, 3, 56, 0
5, 21509, Note_on_c, 3, 68, 0
5, 21509, Note_on_c, 3, 65, 0
5, 21509, Note_on_c, 3, 60, 0
5, 21540, Note_on_c, 3, 56, 90
5, 21540, Note_on_c, 3, 60, 90
5, 21540, Note_on_c, 3, 65, 90
5, 21540, Note_on_c, 3, 68, 90
5, 21600, Note_on_c, 3, 68, 0
5, 21600, Note_on_c, 3, 56, 0
5, 21600, Note_on_c, 3, 60, 0
5, 21600, Note_on_c, 3, 65, 0
5, 21600, Note_on_c, 3, 68, 90
5, 21600, Note_on_c, 3, 65, 90
5, 21600, Note_on_c, 3, 60, 90
5, 21660, Note_on_c, 3, 60, 0
5, 21660, Note_on_c, 3, 65, 0
5, 21660, Note_on_c, 3, 68, 0
5, 21660, Note_on_c, 3, 56, 90
5, 21660, Note_on_c, 3, 60, 90
5, 21660, Note_on_c, 3, 65, 90
5, 21660, Note_on_c, 3, 68, 90
5, 21720, Note_on_c, 3, 68, 0
5, 21720, Note_on_c, 3, 56, 0
5, 21720, Note_on_c, 3, 60, 0
5, 21720, Note_on_c, 3, 65, 0
5, 21720, Note_on_c, 3, 68, 90
5, 21720, Note_on_c, 3, 65, 90
5, 21720, Note_on_c, 3, 60, 90
5, 21720, Note_on_c, 3, 56, 90
5, 21749, Note_on_c, 3, 56, 0
5, 21749, Note_on_c, 3, 68, 0
5, 21749, Note_on_c, 3, 65, 0
5, 21749, Note_on_c, 3, 60, 0
5, 21780, Note_on_c, 3, 56, 90
5, 21780, Note_on_c, 3, 60, 90
5, 21780, Note_on_c, 3, 65, 90
5, 21780, Note_on_c, 3, 68, 90
5, 21840, Note_on_c, 3, 68, 0
5, 21840, Note_on_c, 3, 56, 0
5, 21840, Note_on_c, 3, 60, 0
5, 21840, Note_on_c, 3, 65, 0
5, 21840, Note_on_c, 3, 68, 90
5, 21840, Note_on_c, 3, 65, 90
5, 21840, Note_on_c, 3, 60, 90
5, 21900, Note_on_c, 3, 60, 0
5, 21900, Note_on_c, 3, 65, 0
5, 21900, Note_on_c, 3, 68, 0
5, 21900, Note_on_c, 3, 56, 90
5, 21900, Note_on_c, 3, 60, 90
5, 21900, Note_on_c, 3, 65, 90
5, 21900, Note_on_c, 3, 68, 90
5, 21960, Note_on_c, 3, 68, 0
5, 21960, Note_on_c, 3, 56, 0
5, 21960, Note_on_c, 3, 60, 0
5, 21960, Note_on_c, 3, 65, 0
5, 21960, Note_on_c, 3, 68, 90
5, 21961, Note_on_c, 3, 65, 90
5, 21962, Note_on_c, 3, 60, 90
5, 22020, Note_on_c, 3, 60, 0
5, 22020, Note_on_c, 3, 65, 0
5, 22020, Note_on_c, 3, 68, 0
5, 22020, Note_on_c, 3, 56, 90
5, 22021, Note_on_c, 3, 60, 90
5, 22022, Note_on_c, 3, 65, 90
5, 22023, Note_on_c, 3, 68, 90
5, 22080, Note_on_c, 3, 68, 0
5, 22080, Note_on_c, 3, 56, 0
5, 22080, Note_on_c, 3, 60, 0
5, 22080, Note_on_c, 3, 65, 0
5, 22080, Note_on_c, 3, 68, 90
5, 22081, Note_on_c, 3, 65, 90
5, 22082, Note_on_c, 3, 60, 90
5, 22083, Note_on_c, 3, 56, 90
5, 22088, Note_on_c, 3, 56, 0
5, 22088, Note_on_c, 3, 68, 0
5, 22088, Note_on_c, 3, 65, 0
5, 22088, Note_on_c, 3, 60, 0
5, 22140, Note_on_c, 3, 56, 90
5, 22141, Note_on_c, 3, 60, 90
5, 22142, Note_on_c, 3, 65, 90
5, 22143, Note_on_c, 3, 68, 90
5, 22200, Note_on_c, 3, 68, 0
5, 22200, Note_on_c, 3, 56, 0
5, 22200, Note_on_c, 3, 60, 0
5, 22200, Note_on_c, 3, 65, 0
5, 22200, Note_on_c, 3, 67, 90
5, 22201, Note_on_c, 3, 63, 90
5, 22202, Note_on_c, 3, 58, 90
5, 22240, Note_on_c, 3, 58, 0
5, 22240, Note_on_c, 3, 63, 0
5, 22240, Note_on_c, 3, 67, 0
5, 22260, Note_on_c, 3, 58, 90
5, 22261, Note_on_c, 3, 63, 90
5, 22262, Note_on_c, 3, 67, 90
5, 22300, Note_on_c, 3, 67, 0
5, 22300, Note_on_c, 3, 63, 0
5, 22300, Note_on_c, 3, 58, 0
5, 22380, Note_on_c, 3, 67, 90
5, 22381, Note_on_c, 3, 63, 90
5, 22382, Note_on_c, 3, 58, 90
5, 22440, Note_on_c, 3, 58, 0
5, 22440, Note_on_c, 3, 63, 0
5, 22440, Note_on_c, 3, 67, 0
5, 22440, Note_on_c, 3, 60, 90
5, 22441, Note_on_c, 3, 63, 90
5, 22442, Note_on_c, 3, 68, 90
5, 22500, Note_on_c, 3, 68, 0
5, 22500, Note_on_c, 3, 63, 0
5, 22500, Note_on_c, 3, 60, 0
5, 22500, Note_on_c, 3, 68, 90
5, 22501, Note_on_c, 3, 63, 90
5, 22502, Note_on_c, 3, 60, 90
5, 22560, Note_on_c, 3, 60, 0
5, 22560, Note_on_c, 3, 63, 0
5, 22560, Note_on_c, 3, 68, 0
5, 22560, Note_on_c, 3, 60, 90
5, 22561, Note_on_c, 3, 63, 90
5, 22562, Note_on_c, 3, 68, 90
5, 22568, Note_on_c, 3, 68, 0
5, 22568, Note_on_c, 3, 63, 0
5, 22568, Note_on_c, 3, 60, 0
5, 22620, Note_on_c, 3, 68, 90
5, 22621, Note_on_c, 3, 63, 90
5, 22622, Note_on_c, 3, 60, 90
5, 22680, Note_on_c, 3, 60, 0
5, 22680, Note_on_c, 3, 63, 0
5, 22680, Note_on_c, 3, 68, 0
5, 22680, Note_on_c, 3, 61, 90
5, 22681, Note_on_c, 3, 65, 90
5, 22682, Note_on_c, 3, 68, 90
5, 22740, Note_on_c, 3, 68, 0
5, 22740, Note_on_c, 3, 65, 0
5, 22740, Note_on_c, 3, 61, 0
5, 22740, Note_on_c, 3, 68, 90
5, 22741, Note_on_c, 3, 65, 90
5, 22742, Note_on_c, 3, 61, 90
5, 22860, Note_on_c, 3, 61, 0
5, 22860, Note_on_c, 3, 65, 0
5, 22860, Note_on_c, 3, 68, 0
5, 22860, Note_on_c, 3, 61, 90
5, 22861, Note_on_c, 3, 65, 90
5, 22862, Note_on_c, 3, 68, 90
5, 22920, Note_on_c, 3, 61, 0
5, 22920, Note_on_c, 3, 68, 90
5, 22920, Note_on_c, 3, 63, 90
5, 22920, Note_on_c, 3, 60, 90
5, 22921, Note_on_c, 3, 65, 0
5, 22922, Note_on_c, 3, 68, 0
5, 22980, Note_on_c, 3, 63, 0
5, 22980, Note_on_c, 3, 68, 0
5, 22980, Note_on_c, 3, 60, 0
5, 23400, Note_on_c, 3, 60, 90
5, 23401, Note_on_c, 3, 63, 90
5, 23402, Note_on_c, 3, 67, 90
5, 23460, Note_on_c, 3, 67, 0
5, 23460, Note_on_c, 3, 63, 0
5, 23460, Note_on_c, 3, 60, 0
5, 23460, Note_on_c, 3, 67, 90
5, 23461, Note_on_c, 3, 63, 90
5, 23462, Note_on_c, 3, 60, 90
5, 23463, Note_on_c, 3, 55, 90
5, 23520, Note_on_c, 3, 55, 0
5, 23520, Note_on_c, 3, 67, 0
5, 23520, Note_on_c, 3, 63, 0
5, 23520, Note_on_c, 3, 60, 0
5, 23520, Note_on_c, 3, 55, 90
5, 23521, Note_on_c, 3, 60, 90
5, 23522, Note_on_c, 3, 63, 90
5, 23523, Note_on_c, 3, 67, 90
5, 23528, Note_on_c, 3, 67, 0
5, 23528, Note_on_c, 3, 55, 0
5, 23528, Note_on_c, 3, 60, 0
5, 23528, Note_on_c, 3, 63, 0
5, 23580, Note_on_c, 3, 67, 90
5, 23581, Note_on_c, 3, 63, 90
5, 23582, Note_on_c, 3, 60, 90
5, 23583, Note_on_c, 3, 55, 90
5, 23700, Note_on_c, 3, 55, 0
5, 23700, Note_on_c, 3, 67, 0
5, 23700, Note_on_c, 3, 63, 0
5, 23700, Note_on_c, 3, 60, 0
5, 23700, Note_on_c, 3, 55, 90
5, 23701, Note_on_c, 3, 60, 90
5, 23702, Note_on_c, 3, 63, 90
5, 23703, Note_on_c, 3, 67, 90
5, 23760, Note_on_c, 3, 67, 0
5, 23760, Note_on_c, 3, 55, 0
5, 23760, Note_on_c, 3, 60, 0
5, 23760, Note_on_c, 3, 63, 0
5, 23760, Note_on_c, 3, 67, 90
5, 23761, Note_on_c, 3, 63, 90
5, 23762, Note_on_c, 3, 60, 90
5, 23763, Note_on_c, 3, 55, 90
5, 23768, Note_on_c, 3, 55, 0
5, 23768, Note_on_c, 3, 67, 0
5, 23768, Note_on_c, 3, 63, 0
5, 23768, Note_on_c, 3, 60, 0
5, 23820, Note_on_c, 3, 55, 90
5, 23821, Note_on_c, 3, 60, 90
5, 23822, Note_on_c, 3, 63, 90
5, 23823, Note_on_c, 3, 67, 90
5, 23880, Note_on_c, 3, 67, 0
5, 23880, Note_on_c, 3, 55, 0
5, 23880, Note_on_c, 3, 60, 0
5, 23880, Note_on_c, 3, 63, 0
5, 23880, Note_on_c, 3, 65, 90
5, 23881, Note_on_c, 3, 60, 90
5, 23882, Note_on_c, 3, 56, 90
5, 23940, Note_on_c, 3, 56, 0
5, 23940, Note_on_c, 3, 60, 0
5, 23940, Note_on_c, 3, 65, 0
5, 23940, Note_on_c, 3, 56, 90
5, 23941, Note_on_c, 3, 60, 90
5, 23942, Note_on_c, 3, 65, 90
5, 24000, Note_on_c, 3, 65, 0
5, 24000, Note_on_c, 3, 60, 0
5, 24000, Note_on_c, 3, 56, 0
5, 24000, Note_on_c, 3, 65, 90
5, 24001, Note_on_c, 3, 60, 90
5, 24002, Note_on_c, 3, 56, 90
5, 24008, Note_on_c, 3, 56, 0
5, 24008, Note_on_c, 3, 60, 0
5, 24008, Note_on_c, 3, 65, 0
5, 24060, Note_on_c, 3, 56, 90
5, 24061, Note_on_c, 3, 60, 90
5, 24062, Note_on_c, 3, 65, 90
5, 24180, Note_on_c, 3, 65, 0
5, 24180, Note_on_c, 3, 60, 0
5, 24180, Note_on_c, 3, 56, 0
5, 24180, Note_on_c, 3, 65, 90
5, 24181, Note_on_c, 3, 60, 90
5, 24182, Note_on_c, 3, 56, 90
5, 24240, Note_on_c, 3, 56, 0
5, 24240, Note_on_c, 3, 60, 0
5, 24240, Note_on_c, 3, 65, 0
5, 24240, Note_on_c, 3, 56, 90
5, 24241, Note_on_c, 3, 60, 90
5, 24242, Note_on_c, 3, 65, 90
5, 24248, Note_on_c, 3, 65, 0
5, 24248, Note_on_c, 3, 60, 0
5, 24248, Note_on_c, 3, 56, 0
5, 24300, Note_on_c, 3, 65, 90
5, 24301, Note_on_c, 3, 60, 90
5, 24302, Note_on_c, 3, 56, 90
5, 24360, Note_on_c, 3, 56, 0
5, 24360, Note_on_c, 3, 60, 0
5, 24360, Note_on_c, 3, 65, 0
5, 24360, Note_on_c, 3, 68, 90
5, 24361, Note_on_c, 3, 65, 90
5, 24362, Note_on_c, 3, 60, 90
5, 24420, Note_on_c, 3, 60, 0
5, 24420, Note_on_c, 3, 65, 0
5, 24420, Note_on_c, 3, 68, 0
5, 24420, Note_on_c, 3, 56, 90
5, 24421, Note_on_c, 3, 60, 90
5, 24422, Note_on_c, 3, 65, 90
5, 24423, Note_on_c, 3, 68, 90
5, 24480, Note_on_c, 3, 68, 0
5, 24480, Note_on_c, 3, 56, 0
5, 24480, Note_on_c, 3, 60, 0
5, 24480, Note_on_c, 3, 65, 0
5, 24480, Note_on_c, 3, 68, 90
5, 24481, Note_on_c, 3, 65, 90
5, 24482, Note_on_c, 3, 60, 90
5, 24483, Note_on_c, 3, 56, 90
5, 24488, Note_on_c, 3, 56, 0
5, 24488, Note_on_c, 3, 68, 0
5, 24488, Note_on_c, 3, 65, 0
5, 24488, Note_on_c, 3, 60, 0
5, 24540, Note_on_c, 3, 56, 90
5, 24541, Note_on_c, 3, 60, 90
5, 24542, Note_on_c, 3, 65, 90
5, 24543, Note_on_c, 3, 68, 90
5, 24600, Note_on_c, 3, 68, 0
5, 24600, Note_on_c, 3, 56, 0
5, 24600, Note_on_c, 3, 60, 0
5, 24600, Note_on_c, 3, 65, 0
5, 24600, Note_on_c, 3, 67, 90
5, 24601, Note_on_c, 3, 63, 90
5, 24602, Note_on_c, 3, 58, 90
5, 24640, Note_on_c, 3, 58, 0
5, 24640, Note_on_c, 3, 63, 0
5, 24640, Note_on_c, 3, 67, 0
5, 24660, Note_on_c, 3, 58, 90
5, 24661, Note_on_c, 3, 63, 90
5, 24662, Note_on_c, 3, 67, 90
5, 24700, Note_on_c, 3, 67, 0
5, 24700, Note_on_c, 3, 63, 0
5, 24700, Note_on_c, 3, 58, 0
5, 24780, Note_on_c, 3, 67, 90
5, 24781, Note_on_c, 3, 63, 90
5, 24782, Note_on_c, 3, 58, 90
5, 24840, Note_on_c, 3, 58, 0
5, 24840, Note_on_c, 3, 63, 0
5, 24840, Note_on_c, 3, 67, 0
5, 24840, Note_on_c, 3, 60, 90
5, 24841, Note_on_c, 3, 63, 90
5, 24842, Note_on_c, 3, 68, 90
5, 24843, Note_on_c, 3, 72, 90
5, 24900, Note_on_c, 3, 72, 0
5, 24900, Note_on_c, 3, 60, 0
5, 24900, Note_on_c, 3, 63, 0
5, 24900, Note_on_c, 3, 68, 0
5, 24900, Note_on_c, 3, 72, 90
5, 24901, Note_on_c, 3, 72, 90
5, 24902, Note_on_c, 3, 68, 90
5, 24903, Note_on_c, 3, 63, 90
5, 24904, Note_on_c, 3, 60, 90
5, 24960, Note_on_c, 3, 60, 0
5, 24960, Note_on_c, 3, 68, 0
5, 24960, Note_on_c, 3, 72, 0
5, 24960, Note_on_c, 3, 72, 0
5, 24960, Note_on_c, 3, 63, 0
5, 24960, Note_on_c, 3, 60, 90
5, 24961, Note_on_c, 3, 63, 90
5, 24962, Note_on_c, 3, 68, 90
5, 24963, Note_on_c, 3, 72, 90
5, 24989, Note_on_c, 3, 72, 0
5, 24989, Note_on_c, 3, 60, 0
5, 24989, Note_on_c, 3, 63, 0
5, 24989, Note_on_c, 3, 68, 0
5, 25020, Note_on_c, 3, 72, 90
5, 25021, Note_on_c, 3, 68, 90
5, 25022, Note_on_c, 3, 63, 90
5, 25023, Note_on_c, 3, 60, 90
5, 25140, Note_on_c, 3, 60, 0
5, 25140, Note_on_c, 3, 72, 0
5, 25140, Note_on_c, 3, 68, 0
5, 25140, Note_on_c, 3, 63, 0
5, 25140, Note_on_c, 3, 60, 90
5, 25141, Note_on_c, 3, 63, 90
5, 25142, Note_on_c, 3, 68, 90
5, 25143, Note_on_c, 3, 72, 90
5, 25200, Note_on_c, 3, 72, 0
5, 25200, Note_on_c, 3, 60, 0
5, 25200, Note_on_c, 3, 63, 0
5, 25200, Note_on_c, 3, 68, 0
5, 25200, Note_on_c, 3, 72, 90
5, 25201, Note_on_c, 3, 68, 90
5, 25202, Note_on_c, 3, 63, 90
5, 25203, Note_on_c, 3, 60, 90
5, 25229, Note_on_c, 3, 60, 0
5, 25229, Note_on_c, 3, 72, 0
5, 25229, Note_on_c, 3, 68, 0
5, 25229, Note_on_c, 3, 63, 0
5, 25260, Note_on_c, 3, 60, 90
5, 25261, Note_on_c, 3, 63, 90
5, 25262, Note_on_c, 3, 68, 90
5, 25263, Note_on_c, 3, 72, 90
5, 25320, Note_on_c, 3, 72, 0
5, 25320, Note_on_c, 3, 60, 0
5, 25320, Note_on_c, 3, 63, 0
5, 25320, Note_on_c, 3, 68, 0
5, 25320, Note_on_c, 3, 60, 90
5, 25321, Note_on_c, 3, 63, 90
5, 25322, Note_on_c, 3, 67, 90
5, 25380, Note_on_c, 3, 67, 0
5, 25380, Note_on_c, 3, 63, 0
5, 25380, Note_on_c, 3, 60, 0
5, 25380, Note_on_c, 3, 67, 90
5, 25381, Note_on_c, 3, 63, 90
5, 25382, Note_on_c, 3, 60, 90
5, 25383, Note_on_c, 3, 55, 90
5, 25440, Note_on_c, 3, 55, 0
5, 25440, Note_on_c, 3, 67, 0
5, 25440, Note_on_c, 3, 63, 0
5, 25440, Note_on_c, 3, 60, 0
5, 25440, Note_on_c, 3, 55, 90
5, 25441, Note_on_c, 3, 60, 90
5, 25442, Note_on_c, 3, 63, 90
5, 25443, Note_on_c, 3, 67, 90
5, 25448, Note_on_c, 3, 67, 0
5, 25448, Note_on_c, 3, 55, 0
5, 25448, Note_on_c, 3, 60, 0
5, 25448, Note_on_c, 3, 63, 0
5, 25500, Note_on_c, 3, 67, 90
5, 25501, Note_on_c, 3, 63, 90
5, 25502, Note_on_c, 3, 60, 90
5, 25503, Note_on_c, 3, 55, 90
5, 25620, Note_on_c, 3, 55, 0
5, 25620, Note_on_c, 3, 67, 0
5, 25620, Note_on_c, 3, 63, 0
5, 25620, Note_on_c, 3, 60, 0
5, 25620, Note_on_c, 3, 55, 90
5, 25621, Note_on_c, 3, 60, 90
5, 25622, Note_on_c, 3, 63, 90
5, 25623, Note_on_c, 3, 67, 90
5, 25680, Note_on_c, 3, 67, 0
5, 25680, Note_on_c, 3, 55, 0
5, 25680, Note_on_c, 3, 60, 0
5, 25680, Note_on_c, 3, 63, 0
5, 25680, Note_on_c, 3, 67, 90
5, 25681, Note_on_c, 3, 63, 90
5, 25682, Note_on_c, 3, 60, 90
5, 25683, Note_on_c, 3, 55, 90
5, 25688, Note_on_c, 3, 55, 0
5, 25688, Note_on_c, 3, 67, 0
5, 25688, Note_on_c, 3, 63, 0
5, 25688, Note_on_c, 3, 60, 0
5, 25740, Note_on_c, 3, 55, 90
5, 25741, Note_on_c, 3, 60, 90
5, 25742, Note_on_c, 3, 63, 90
5, 25743, Note_on_c, 3, 67, 90
5, 25800, Note_on_c, 3, 67, 0
5, 25800, Note_on_c, 3, 55, 0
5, 25800, Note_on_c, 3, 60, 0
5, 25800, Note_on_c, 3, 63, 0
5, 25800, Note_on_c, 3, 65, 90
5, 25801, Note_on_c, 3, 60, 90
5, 25802, Note_on_c, 3, 56, 90
5, 25860, Note_on_c, 3, 56, 0
5, 25860, Note_on_c, 3, 60, 0
5, 25860, Note_on_c, 3, 65, 0
5, 25860, Note_on_c, 3, 56, 90
5, 25861, Note_on_c, 3, 60, 90
5, 25862, Note_on_c, 3, 65, 90
5, 25920, Note_on_c, 3, 65, 0
5, 25920, Note_on_c, 3, 60, 0
5, 25920, Note_on_c, 3, 56, 0
5, 25920, Note_on_c, 3, 65, 90
5, 25921, Note_on_c, 3, 60, 90
5, 25922, Note_on_c, 3, 56, 90
5, 25928, Note_on_c, 3, 56, 0
5, 25928, Note_on_c, 3, 60, 0
5, 25928, Note_on_c, 3, 65, 0
5, 25980, Note_on_c, 3, 56, 90
5, 25981, Note_on_c, 3, 60, 90
5, 25982, Note_on_c, 3, 65, 90
5, 26100, Note_on_c, 3, 65, 0
5, 26100, Note_on_c, 3, 60, 0
5, 26100, Note_on_c, 3, 56, 0
5, 26100, Note_on_c, 3, 65, 90
5, 26101, Note_on_c, 3, 60, 90
5, 26102, Note_on_c, 3, 56, 90
5, 26160, Note_on_c, 3, 56, 0
5, 26160, Note_on_c, 3, 60, 0
5, 26160, Note_on_c, 3, 65, 0
5, 26160, Note_on_c, 3, 56, 90
5, 26161, Note_on_c, 3, 60, 90
5, 26162, Note_on_c, 3, 65, 90
5, 26168, Note_on_c, 3, 65, 0
5, 26168, Note_on_c, 3, 60, 0
5, 26168, Note_on_c, 3, 56, 0
5, 26220, Note_on_c, 3, 65, 90
5, 26221, Note_on_c, 3, 60, 90
5, 26222, Note_on_c, 3, 56, 90
5, 26280, Note_on_c, 3, 56, 0
5, 26280, Note_on_c, 3, 60, 0
5, 26280, Note_on_c, 3, 65, 0
5, 26280, Note_on_c, 3, 58, 90
5, 26281, Note_on_c, 3, 61, 90
5, 26282, Note_on_c, 3, 65, 90
5, 26340, Note_on_c, 3, 65, 0
5, 26340, Note_on_c, 3, 61, 0
5, 26340, Note_on_c, 3, 58, 0
5, 26340, Note_on_c, 3, 65, 90
5, 26341, Note_on_c, 3, 61, 90
5, 26342, Note_on_c, 3, 58, 90
5, 26400, Note_on_c, 3, 58, 0
5, 26400, Note_on_c, 3, 61, 0
5, 26400, Note_on_c, 3, 65, 0
5, 26400, Note_on_c, 3, 58, 90
5, 26401, Note_on_c, 3, 61, 90
5, 26402, Note_on_c, 3, 65, 90
5, 26429, Note_on_c, 3, 65, 0
5, 26429, Note_on_c, 3, 61, 0
5, 26429, Note_on_c, 3, 58, 0
5, 26460, Note_on_c, 3, 65, 90
5, 26461, Note_on_c, 3, 61, 90
5, 26462, Note_on_c, 3, 58, 90
5, 26580, Note_on_c, 3, 58, 0
5, 26580, Note_on_c, 3, 61, 0
5, 26580, Note_on_c, 3, 65, 0
5, 26580, Note_on_c, 3, 58, 90
5, 26581, Note_on_c, 3, 61, 90
5, 26582, Note_on_c, 3, 65, 90
5, 26640, Note_on_c, 3, 65, 0
5, 26640, Note_on_c, 3, 61, 0
5, 26640, Note_on_c, 3, 58, 0
5, 26640, Note_on_c, 3, 65, 90
5, 26641, Note_on_c, 3, 61, 90
5, 26642, Note_on_c, 3, 58, 90
5, 26669, Note_on_c, 3, 58, 0
5, 26669, Note_on_c, 3, 61, 0
5, 26669, Note_on_c, 3, 65, 0
5, 26700, Note_on_c, 3, 58, 90
5, 26701, Note_on_c, 3, 61, 90
5, 26702, Note_on_c, 3, 65, 90
5, 26760, Note_on_c, 3, 65, 0
5, 26760, Note_on_c, 3, 61, 0
5, 26760, Note_on_c, 3, 58, 0
5, 26760, Note_on_c, 3, 56, 90
5, 26761, Note_on_c, 3, 61, 90
5, 26762, Note_on_c, 3, 68, 90
5, 26820, Note_on_c, 3, 68, 0
5, 26820, Note_on_c, 3, 61, 0
5, 26820, Note_on_c, 3, 56, 0
5, 26820, Note_on_c, 3, 68, 90
5, 26821, Note_on_c, 3, 61, 90
5, 26822, Note_on_c, 3, 61, 90
5, 26823, Note_on_c, 3, 56, 90
5, 26880, Note_on_c, 3, 56, 0
5, 26880, Note_on_c, 3, 68, 0
5, 26880, Note_on_c, 3, 61, 0
5, 26880, Note_on_c, 3, 61, 0
5, 26880, Note_on_c, 3, 56, 90
5, 26881, Note_on_c, 3, 61, 90
5, 26882, Note_on_c, 3, 68, 90
5, 26888, Note_on_c, 3, 68, 0
5, 26888, Note_on_c, 3, 61, 0
5, 26888, Note_on_c, 3, 56, 0
5, 26940, Note_on_c, 3, 68, 90
5, 26941, Note_on_c, 3, 61, 90
5, 26942, Note_on_c, 3, 56, 90
5, 27000, Note_on_c, 3, 56, 0
5, 27000, Note_on_c, 3, 61, 0
5, 27000, Note_on_c, 3, 68, 0
5, 27000, Note_on_c, 3, 56, 90
5, 27001, Note_on_c, 3, 61, 90
5, 27002, Note_on_c, 3, 68, 90
5, 27060, Note_on_c, 3, 68, 0
5, 27060, Note_on_c, 3, 61, 0
5, 27060, Note_on_c, 3, 56, 0
5, 27060, Note_on_c, 3, 68, 90
5, 27061, Note_on_c, 3, 61, 90
5, 27062, Note_on_c, 3, 61, 90
5, 27063, Note_on_c, 3, 56, 90
5, 27120, Note_on_c, 3, 56, 0
5, 27120, Note_on_c, 3, 68, 0
5, 27120, Note_on_c, 3, 61, 0
5, 27120, Note_on_c, 3, 61, 0
5, 27120, Note_on_c, 3, 56, 90
5, 27121, Note_on_c, 3, 61, 90
5, 27122, Note_on_c, 3, 68, 90
5, 27128, Note_on_c, 3, 68, 0
5, 27128, Note_on_c, 3, 61, 0
5, 27128, Note_on_c, 3, 56, 0
5, 27180, Note_on_c, 3, 68, 90
5, 27181, Note_on_c, 3, 61, 90
5, 27182, Note_on_c, 3, 56, 90
5, 27240, Note_on_c, 3, 56, 0
5, 27240, Note_on_c, 3, 61, 0
5, 27240, Note_on_c, 3, 68, 0
5, 27240, Note_on_c, 3, 55, 90
5, 27241, Note_on_c, 3, 58, 90
5, 27242, Note_on_c, 3, 61, 90
5, 27243, Note_on_c, 3, 67, 90
5, 27300, Note_on_c, 3, 67, 0
5, 27300, Note_on_c, 3, 55, 0
5, 27300, Note_on_c, 3, 58, 0
5, 27300, Note_on_c, 3, 61, 0
5, 27300, Note_on_c, 3, 67, 90
5, 27301, Note_on_c, 3, 61, 90
5, 27302, Note_on_c, 3, 58, 90
5, 27303, Note_on_c, 3, 55, 90
5, 27360, Note_on_c, 3, 55, 0
5, 27360, Note_on_c, 3, 67, 0
5, 27360, Note_on_c, 3, 61, 0
5, 27360, Note_on_c, 3, 58, 0
5, 27360, Note_on_c, 3, 55, 90
5, 27361, Note_on_c, 3, 61, 90
5, 27362, Note_on_c, 3, 67, 90
5, 27368, Note_on_c, 3, 67, 0
5, 27368, Note_on_c, 3, 61, 0
5, 27368, Note_on_c, 3, 55, 0
5, 27420, Note_on_c, 3, 67, 90
5, 27421, Note_on_c, 3, 61, 90
5, 27422, Note_on_c, 3, 58, 90
5, 27423, Note_on_c, 3, 55, 90
5, 27480, Note_on_c, 3, 55, 0
5, 27480, Note_on_c, 3, 67, 0
5, 27480, Note_on_c, 3, 61, 0
5, 27480, Note_on_c, 3, 58, 0
5, 27480, Note_on_c, 3, 55, 90
5, 27481, Note_on_c, 3, 58, 90
5, 27482, Note_on_c, 3, 61, 90
5, 27483, Note_on_c, 3, 67, 90
5, 27540, Note_on_c, 3, 67, 0
5, 27540, Note_on_c, 3, 55, 0
5, 27540, Note_on_c, 3, 58, 0
5, 27540, Note_on_c, 3, 61, 0
5, 27540, Note_on_c, 3, 67, 90
5, 27541, Note_on_c, 3, 61, 90
5, 27542, Note_on_c, 3, 58, 90
5, 27543, Note_on_c, 3, 55, 90
5, 27600, Note_on_c, 3, 55, 0
5, 27600, Note_on_c, 3, 67, 0
5, 27600, Note_on_c, 3, 61, 0
5, 27600, Note_on_c, 3, 58, 0
5, 27600, Note_on_c, 3, 55, 90
5, 27601, Note_on_c, 3, 61, 90
5, 27602, Note_on_c, 3, 67, 90
5, 27608, Note_on_c, 3, 67, 0
5, 27608, Note_on_c, 3, 61, 0
5, 27608, Note_on_c, 3, 55, 0
5, 27660, Note_on_c, 3, 67, 90
5, 27661, Note_on_c, 3, 61, 90
5, 27662, Note_on_c, 3, 58, 90
5, 27663, Note_on_c, 3, 55, 90
5, 27720, Note_on_c, 3, 55, 0
5, 27720, Note_on_c, 3, 67, 0
5, 27720, Note_on_c, 3, 61, 0
5, 27720, Note_on_c, 3, 58, 0
5, 27720, Note_on_c, 3, 60, 90
5, 27721, Note_on_c, 3, 63, 90
5, 27722, Note_on_c, 3, 68, 90
5, 27780, Note_on_c, 3, 68, 0
5, 27780, Note_on_c, 3, 63, 0
5, 27780, Note_on_c, 3, 60, 0
5, 27780, Note_on_c, 3, 68, 90
5, 27781, Note_on_c, 3, 63, 90
5, 27782, Note_on_c, 3, 60, 90
5, 27840, Note_on_c, 3, 60, 0
5, 27840, Note_on_c, 3, 63, 0
5, 27840, Note_on_c, 3, 68, 0
5, 27840, Note_on_c, 3, 60, 90
5, 27841, Note_on_c, 3, 63, 90
5, 27842, Note_on_c, 3, 68, 90
5, 27848, Note_on_c, 3, 68, 0
5, 27848, Note_on_c, 3, 63, 0
5, 27848, Note_on_c, 3, 60, 0
5, 27900, Note_on_c, 3, 68, 90
5, 27901, Note_on_c, 3, 63, 90
5, 27902, Note_on_c, 3, 60, 90
5, 28020, Note_on_c, 3, 60, 0
5, 28020, Note_on_c, 3, 63, 0
5, 28020, Note_on_c, 3, 68, 0
5, 28020, Note_on_c, 3, 60, 90
5, 28021, Note_on_c, 3, 63, 90
5, 28022, Note_on_c, 3, 68, 90
5, 28080, Note_on_c, 3, 68, 0
5, 28080, Note_on_c, 3, 63, 0
5, 28080, Note_on_c, 3, 60, 0
5, 28080, Note_on_c, 3, 68, 90
5, 28081, Note_on_c, 3, 63, 90
5, 28082, Note_on_c, 3, 60, 90
5, 28088, Note_on_c, 3, 60, 0
5, 28088, Note_on_c, 3, 63, 0
5, 28088, Note_on_c, 3, 68, 0
5, 28140, Note_on_c, 3, 60, 90
5, 28141, Note_on_c, 3, 63, 90
5, 28142, Note_on_c, 3, 68, 90
5, 28200, Note_on_c, 3, 68, 0
5, 28200, Note_on_c, 3, 63, 0
5, 28200, Note_on_c, 3, 60, 0
5, 28200, Note_on_c, 3, 65, 90
5, 28201, Note_on_c, 3, 60, 90
5, 28202, Note_on_c, 3, 56, 90
5, 28260, Note_on_c, 3, 56, 0
5, 28260, Note_on_c, 3, 60, 0
5, 28260, Note_on_c, 3, 65, 0
5, 28260, Note_on_c, 3, 56, 90
5, 28261, Note_on_c, 3, 60, 90
5, 28262, Note_on_c, 3, 65, 90
5, 28320, Note_on_c, 3, 65, 0
5, 28320, Note_on_c, 3, 60, 0
5, 28320, Note_on_c, 3, 56, 0
5, 28320, Note_on_c, 3, 65, 90
5, 28321, Note_on_c, 3, 60, 90
5, 28322, Note_on_c, 3, 56, 90
5, 28328, Note_on_c, 3, 56, 0
5, 28328, Note_on_c, 3, 60, 0
5, 28328, Note_on_c, 3, 65, 0
5, 28380, Note_on_c, 3, 56, 90
5, 28381, Note_on_c, 3, 60, 90
5, 28382, Note_on_c, 3, 65, 90
5, 28500, Note_on_c, 3, 65, 0
5, 28500, Note_on_c, 3, 60, 0
5, 28500, Note_on_c, 3, 56, 0
5, 28500, Note_on_c, 3, 65, 90
5, 28501, Note_on_c, 3, 60, 90
5, 28502, Note_on_c, 3, 56, 90
5, 28560, Note_on_c, 3, 56, 0
5, 28560, Note_on_c, 3, 60, 0
5, 28560, Note_on_c, 3, 65, 0
5, 28560, Note_on_c, 3, 56, 90
5, 28561, Note_on_c, 3, 60, 90
5, 28562, Note_on_c, 3, 65, 90
5, 28568, Note_on_c, 3, 65, 0
5, 28568, Note_on_c, 3, 60, 0
5, 28568, Note_on_c, 3, 56, 0
5, 28620, Note_on_c, 3, 65, 90
5, 28621, Note_on_c, 3, 60, 90
5, 28622, Note_on_c, 3, 56, 90
5, 28680, Note_on_c, 3, 56, 0
5, 28680, Note_on_c, 3, 60, 0
5, 28680, Note_on_c, 3, 65, 0
5, 28680, Note_on_c, 3, 60, 90
5, 28681, Note_on_c, 3, 63, 90
5, 28682, Note_on_c, 3, 67, 90
5, 28740, Note_on_c, 3, 67, 0
5, 28740, Note_on_c, 3, 63, 0
5, 28740, Note_on_c, 3, 60, 0
5, 28740, Note_on_c, 3, 67, 90
5, 28741, Note_on_c, 3, 63, 90
5, 28742, Note_on_c, 3, 60, 90
5, 28743, Note_on_c, 3, 55, 90
5, 28800, Note_on_c, 3, 55, 0
5, 28800, Note_on_c, 3, 67, 0
5, 28800, Note_on_c, 3, 63, 0
5, 28800, Note_on_c, 3, 60, 0
5, 28800, Note_on_c, 3, 55, 90
5, 28801, Note_on_c, 3, 60, 90
5, 28802, Note_on_c, 3, 63, 90
5, 28803, Note_on_c, 3, 67, 90
5, 28808, Note_on_c, 3, 67, 0
5, 28808, Note_on_c, 3, 55, 0
5, 28808, Note_on_c, 3, 60, 0
5, 28808, Note_on_c, 3, 63, 0
5, 28860, Note_on_c, 3, 67, 90
5, 28861, Note_on_c, 3, 63, 90
5, 28862, Note_on_c, 3, 60, 90
5, 28863, Note_on_c, 3, 55, 90
5, 28980, Note_on_c, 3, 55, 0
5, 28980, Note_on_c, 3, 67, 0
5, 28980, Note_on_c, 3, 63, 0
5, 28980, Note_on_c, 3, 60, 0
5, 28980, Note_on_c, 3, 55, 90
5, 28981, Note_on_c, 3, 60, 90
5, 28982, Note_on_c, 3, 63, 90
5, 28983, Note_on_c, 3, 67, 90
5, 29040, Note_on_c, 3, 67, 0
5, 29040, Note_on_c, 3, 55, 0
5, 29040, Note_on_c, 3, 60, 0
5, 29040, Note_on_c, 3, 63, 0
5, 29040, Note_on_c, 3, 67, 90
5, 29041, Note_on_c, 3, 63, 90
5, 29042, Note_on_c, 3, 60, 90
5, 29043, Note_on_c, 3, 55, 90
5, 29048, Note_on_c, 3, 55, 0
5, 29048, Note_on_c, 3, 67, 0
5, 29048, Note_on_c, 3, 63, 0
5, 29048, Note_on_c, 3, 60, 0
5, 29100, Note_on_c, 3, 55, 90
5, 29101, Note_on_c, 3, 60, 90
5, 29102, Note_on_c, 3, 63, 90
5, 29103, Note_on_c, 3, 67, 90
5, 29160, Note_on_c, 3, 67, 0
5, 29160, Note_on_c, 3, 55, 0
5, 29160, Note_on_c, 3, 60, 0
5, 29160, Note_on_c, 3, 63, 0
5, 29160, Note_on_c, 3, 67, 90
5, 29161, Note_on_c, 3, 63, 90
5, 29162, Note_on_c, 3, 60, 90
5, 29220, Note_on_c, 3, 60, 0
5, 29220, Note_on_c, 3, 63, 0
5, 29220, Note_on_c, 3, 67, 0
5, 29220, Note_on_c, 3, 55, 90
5, 29221, Note_on_c, 3, 60, 90
5, 29222, Note_on_c, 3, 63, 90
5, 29223, Note_on_c, 3, 67, 90
5, 29280, Note_on_c, 3, 67, 0
5, 29280, Note_on_c, 3, 55, 0
5, 29280, Note_on_c, 3, 60, 0
5, 29280, Note_on_c, 3, 63, 0
5, 29280, Note_on_c, 3, 67, 90
5, 29281, Note_on_c, 3, 63, 90
5, 29282, Note_on_c, 3, 60, 90
5, 29283, Note_on_c, 3, 55, 90
5, 29288, Note_on_c, 3, 55, 0
5, 29288, Note_on_c, 3, 67, 0
5, 29288, Note_on_c, 3, 63, 0
5, 29288, Note_on_c, 3, 60, 0
5, 29340, Note_on_c, 3, 55, 90
5, 29341, Note_on_c, 3, 60, 90
5, 29342, Note_on_c, 3, 63, 90
5, 29343, Note_on_c, 3, 67, 90
5, 29460, Note_on_c, 3, 67, 0
5, 29460, Note_on_c, 3, 55, 0
5, 29460, Note_on_c, 3, 60, 0
5, 29460, Note_on_c, 3, 63, 0
5, 29460, Note_on_c, 3, 67, 90
5, 29461, Note_on_c, 3, 63, 90
5, 29462, Note_on_c, 3, 60, 90
5, 29463, Note_on_c, 3, 55, 90
5, 29520, Note_on_c, 3, 55, 0
5, 29520, Note_on_c, 3, 67, 0
5, 29520, Note_on_c, 3, 63, 0
5, 29520, Note_on_c, 3, 60, 0
5, 29520, Note_on_c, 3, 55, 90
5, 29521, Note_on_c, 3, 60, 90
5, 29522, Note_on_c, 3, 63, 90
5, 29523, Note_on_c, 3, 67, 90
5, 29528, Note_on_c, 3, 67, 0
5, 29528, Note_on_c, 3, 55, 0
5, 29528, Note_on_c, 3, 60, 0
5, 29528, Note_on_c, 3, 63, 0
5, 29580, Note_on_c, 3, 67, 90
5, 29581, Note_on_c, 3, 63, 90
5, 29582, Note_on_c, 3, 60, 90
5, 29583, Note_on_c, 3, 55, 90
5, 29640, Note_on_c, 3, 55, 0
5, 29640, Note_on_c, 3, 67, 0
5, 29640, Note_on_c, 3, 63, 0
5, 29640, Note_on_c, 3, 60, 0
5, 29640, Note_on_c, 3, 56, 90
5, 29641, Note_on_c, 3, 60, 90
5, 29642, Note_on_c, 3, 65, 90
5, 29700, Note_on_c, 3, 65, 0
5, 29700, Note_on_c, 3, 60, 0
5, 29700, Note_on_c, 3, 56, 0
5, 29700, Note_on_c, 3, 65, 90
5, 29701, Note_on_c, 3, 60, 90
5, 29702, Note_on_c, 3, 56, 90
5, 29760, Note_on_c, 3, 56, 0
5, 29760, Note_on_c, 3, 60, 0
5, 29760, Note_on_c, 3, 65, 0
5, 29760, Note_on_c, 3, 56, 90
5, 29761, Note_on_c, 3, 60, 90
5, 29762, Note_on_c, 3, 65, 90
5, 29768, Note_on_c, 3, 65, 0
5, 29768, Note_on_c, 3, 60, 0
5, 29768, Note_on_c, 3, 56, 0
5, 29820, Note_on_c, 3, 65, 90
5, 29821, Note_on_c, 3, 60, 90
5, 29822, Note_on_c, 3, 56, 90
5, 29940, Note_on_c, 3, 56, 0
5, 29940, Note_on_c, 3, 60, 0
5, 29940, Note_on_c, 3, 65, 0
5, 29940, Note_on_c, 3, 56, 90
5, 29941, Note_on_c, 3, 60, 90
5, 29942, Note_on_c, 3, 65, 90
5, 30000, Note_on_c, 3, 65, 0
5, 30000, Note_on_c, 3, 60, 0
5, 30000, Note_on_c, 3, 56, 0
5, 30000, Note_on_c, 3, 65, 90
5, 30001, Note_on_c, 3, 60, 90
5, 30002, Note_on_c, 3, 56, 90
5, 30008, Note_on_c, 3, 56, 0
5, 30008, Note_on_c, 3, 60, 0
5, 30008, Note_on_c, 3, 65, 0
5, 30060, Note_on_c, 3, 56, 90
5, 30061, Note_on_c, 3, 60, 90
5, 30062, Note_on_c, 3, 65, 90
5, 30120, Note_on_c, 3, 65, 0
5, 30120, Note_on_c, 3, 60, 0
5, 30120, Note_on_c, 3, 56, 0
5, 30120, Note_on_c, 3, 67, 90
5, 30121, Note_on_c, 3, 63, 90
5, 30122, Note_on_c, 3, 60, 90
5, 30180, Note_on_c, 3, 60, 0
5, 30180, Note_on_c, 3, 63, 0
5, 30180, Note_on_c, 3, 67, 0
5, 30180, Note_on_c, 3, 55, 90
5, 30181, Note_on_c, 3, 60, 90
5, 30182, Note_on_c, 3, 63, 90
5, 30183, Note_on_c, 3, 67, 90
5, 30240, Note_on_c, 3, 67, 0
5, 30240, Note_on_c, 3, 55, 0
5, 30240, Note_on_c, 3, 60, 0
5, 30240, Note_on_c, 3, 63, 0
5, 30240, Note_on_c, 3, 67, 90
5, 30241, Note_on_c, 3, 63, 90
5, 30242, Note_on_c, 3, 60, 90
5, 30243, Note_on_c, 3, 55, 90
5, 30248, Note_on_c, 3, 55, 0
5, 30248, Note_on_c, 3, 67, 0
5, 30248, Note_on_c, 3, 63, 0
5, 30248, Note_on_c, 3, 60, 0
5, 30300, Note_on_c, 3, 55, 90
5, 30301, Note_on_c, 3, 60, 90
5, 30302, Note_on_c, 3, 63, 90
5, 30303, Note_on_c, 3, 67, 90
5, 30420, Note_on_c, 3, 67, 0
5, 30420, Note_on_c, 3, 55, 0
5, 30420, Note_on_c, 3, 60, 0
5, 30420, Note_on_c, 3, 63, 0
5, 30420, Note_on_c, 3, 67, 90
5, 30421, Note_on_c, 3, 63, 90
5, 30422, Note_on_c, 3, 60, 90
5, 30423, Note_on_c, 3, 55, 90
5, 30480, Note_on_c, 3, 55, 0
5, 30480, Note_on_c, 3, 67, 0
5, 30480, Note_on_c, 3, 63, 0
5, 30480, Note_on_c, 3, 60, 0
5, 30480, Note_on_c, 3, 55, 90
5, 30481, Note_on_c, 3, 60, 90
5, 30482, Note_on_c, 3, 63, 90
5, 30483, Note_on_c, 3, 67, 90
5, 30488, Note_on_c, 3, 67, 0
5, 30488, Note_on_c, 3, 55, 0
5, 30488, Note_on_c, 3, 60, 0
5, 30488, Note_on_c, 3, 63, 0
5, 30540, Note_on_c, 3, 67, 90
5, 30541, Note_on_c, 3, 63, 90
5, 30542, Note_on_c, 3, 60, 90
5, 30543, Note_on_c, 3, 55, 90
5, 30600, Note_on_c, 3, 55, 0
5, 30600, Note_on_c, 3, 67, 0
5, 30600, Note_on_c, 3, 63, 0
5, 30600, Note_on_c, 3, 60, 0
5, 30600, Note_on_c, 3, 60, 90
5, 30601, Note_on_c, 3, 65, 90
5, 30602, Note_on_c, 3, 68, 90
5, 30660, Note_on_c, 3, 68, 0
5, 30660, Note_on_c, 3, 65, 0
5, 30660, Note_on_c, 3, 60, 0
5, 30660, Note_on_c, 3, 68, 90
5, 30661, Note_on_c, 3, 65, 90
5, 30662, Note_on_c, 3, 60, 90
5, 30663, Note_on_c, 3, 56, 90
5, 30720, Note_on_c, 3, 56, 0
5, 30720, Note_on_c, 3, 68, 0
5, 30720, Note_on_c, 3, 65, 0
5, 30720, Note_on_c, 3, 60, 0
5, 30720, Note_on_c, 3, 56, 90
5, 30721, Note_on_c, 3, 60, 90
5, 30722, Note_on_c, 3, 65, 90
5, 30723, Note_on_c, 3, 68, 90
5, 30728, Note_on_c, 3, 68, 0
5, 30728, Note_on_c, 3, 56, 0
5, 30728, Note_on_c, 3, 60, 0
5, 30728, Note_on_c, 3, 65, 0
5, 30780, Note_on_c, 3, 68, 90
5, 30781, Note_on_c, 3, 65, 90
5, 30782, Note_on_c, 3, 60, 90
5, 30783, Note_on_c, 3, 56, 90
5, 30900, Note_on_c, 3, 56, 0
5, 30900, Note_on_c, 3, 68, 0
5, 30900, Note_on_c, 3, 65, 0
5, 30900, Note_on_c, 3, 60, 0
5, 30900, Note_on_c, 3, 56, 90
5, 30901, Note_on_c, 3, 60, 90
5, 30902, Note_on_c, 3, 65, 90
5, 30903, Note_on_c, 3, 68, 90
5, 30960, Note_on_c, 3, 68, 0
5, 30960, Note_on_c, 3, 56, 0
5, 30960, Note_on_c, 3, 60, 0
5, 30960, Note_on_c, 3, 65, 0
5, 30960, Note_on_c, 3, 68, 90
5, 30961, Note_on_c, 3, 65, 90
5, 30962, Note_on_c, 3, 60, 90
5, 30963, Note_on_c, 3, 56, 90
5, 30968, Note_on_c, 3, 56, 0
5, 30968, Note_on_c, 3, 68, 0
5, 30968, Note_on_c, 3, 65, 0
5, 30968, Note_on_c, 3, 60, 0
5, 31020, Note_on_c, 3, 56, 90
5, 31021, Note_on_c, 3, 60, 90
5, 31022, Note_on_c, 3, 65, 90
5, 31023, Note_on_c, 3, 68, 90
5, 31080, Note_on_c, 3, 68, 0
5, 31080, Note_on_c, 3, 56, 0
5, 31080, Note_on_c, 3, 60, 0
5, 31080, Note_on_c, 3, 65, 0
5, 31080, Note_on_c, 3, 63, 90
5, 31081, Note_on_c, 3, 58, 90
5, 31082, Note_on_c, 3, 55, 90
5, 31140, Note_on_c, 3, 55, 0
5, 31140, Note_on_c, 3, 58, 0
5, 31140, Note_on_c, 3, 63, 0
5, 31140, Note_on_c, 3, 55, 90
5, 31141, Note_on_c, 3, 58, 90
5, 31142, Note_on_c, 3, 58, 90
5, 31143, Note_on_c, 3, 63, 90
5, 31200, Note_on_c, 3, 63, 0
5, 31200, Note_on_c, 3, 55, 0
5, 31200, Note_on_c, 3, 58, 0
5, 31200, Note_on_c, 3, 58, 0
5, 31200, Note_on_c, 3, 63, 90
5, 31201, Note_on_c, 3, 58, 90
5, 31202, Note_on_c, 3, 58, 90
5, 31203, Note_on_c, 3, 55, 90
5, 31208, Note_on_c, 3, 55, 0
5, 31208, Note_on_c, 3, 63, 0
5, 31208, Note_on_c, 3, 58, 0
5, 31208, Note_on_c, 3, 58, 0
5, 31260, Note_on_c, 3, 55, 90
5, 31261, Note_on_c, 3, 58, 90
5, 31262, Note_on_c, 3, 58, 90
5, 31263, Note_on_c, 3, 63, 90
5, 31380, Note_on_c, 3, 63, 0
5, 31380, Note_on_c, 3, 55, 0
5, 31380, Note_on_c, 3, 58, 0
5, 31380, Note_on_c, 3, 58, 0
5, 31380, Note_on_c, 3, 63, 90
5, 31381, Note_on_c, 3, 58, 90
5, 31382, Note_on_c, 3, 58, 90
5, 31383, Note_on_c, 3, 55, 90
5, 31440, Note_on_c, 3, 55, 0
5, 31440, Note_on_c, 3, 63, 0
5, 31440, Note_on_c, 3, 58, 0
5, 31440, Note_on_c, 3, 58, 0
5, 31440, Note_on_c, 3, 55, 90
5, 31441, Note_on_c, 3, 58, 90
5, 31442, Note_on_c, 3, 58, 90
5, 31443, Note_on_c, 3, 63, 90
5, 31448, Note_on_c, 3, 63, 0
5, 31448, Note_on_c, 3, 55, 0
5, 31448, Note_on_c, 3, 58, 0
5, 31448, Note_on_c, 3, 58, 0
5, 31500, Note_on_c, 3, 63, 90
5, 31501, Note_on_c, 3, 58, 90
5, 31502, Note_on_c, 3, 58, 90
5, 31503, Note_on_c, 3, 55, 90
5, 31560, Note_on_c, 3, 55, 0
5, 31560, Note_on_c, 3, 63, 0
5, 31560, Note_on_c, 3, 58, 0
5, 31560, Note_on_c, 3, 58, 0
5, 31560, Note_on_c, 3, 56, 90
5, 31561, Note_on_c, 3, 60, 90
5, 31562, Note_on_c, 3, 65, 90
5, 31620, Note_on_c, 3, 65, 0
5, 31620, Note_on_c, 3, 60, 0
5, 31620, Note_on_c, 3, 56, 0
5, 31620, Note_on_c, 3, 65, 90
5, 31621, Note_on_c, 3, 60, 90
5, 31622, Note_on_c, 3, 56, 90
5, 31680, Note_on_c, 3, 56, 0
5, 31680, Note_on_c, 3, 60, 0
5, 31680, Note_on_c, 3, 65, 0
5, 31680, Note_on_c, 3, 56, 90
5, 31681, Note_on_c, 3, 60, 90
5, 31682, Note_on_c, 3, 65, 90
5, 31688, Note_on_c, 3, 65, 0
5, 31688, Note_on_c, 3, 60, 0
5, 31688, Note_on_c, 3, 56, 0
5, 31740, Note_on_c, 3, 65, 90
5, 31741, Note_on_c, 3, 60, 90
5, 31742, Note_on_c, 3, 56, 90
5, 31860, Note_on_c, 3, 56, 0
5, 31860, Note_on_c, 3, 60, 0
5, 31860, Note_on_c, 3, 65, 0
5, 31860, Note_on_c, 3, 56, 90
5, 31861, Note_on_c, 3, 60, 90
5, 31862, Note_on_c, 3, 65, 90
5, 31920, Note_on_c, 3, 65, 0
5, 31920, Note_on_c, 3, 60, 0
5, 31920, Note_on_c, 3, 56, 0
5, 31920, Note_on_c, 3, 65, 90
5, 31921, Note_on_c, 3, 60, 90
5, 31922, Note_on_c, 3, 56, 90
5, 31928, Note_on_c, 3, 56, 0
5, 31928, Note_on_c, 3, 60, 0
5, 31928, Note_on_c, 3, 65, 0
5, 31980, Note_on_c, 3, 56, 90
5, 31981, Note_on_c, 3, 60, 90
5, 31982, Note_on_c, 3, 65, 90
5, 32040, Note_on_c, 3, 65, 0
5, 32040, Note_on_c, 3, 60, 0
5, 32040, Note_on_c, 3, 56, 0
5, 32040, Note_on_c, 3, 60, 90
5, 32041, Note_on_c, 3, 65, 90
5, 32042, Note_on_c, 3, 68, 90
5, 32100, Note_on_c, 3, 68, 0
5, 32100, Note_on_c, 3, 65, 0
5, 32100, Note_on_c, 3, 60, 0
5, 32100, Note_on_c, 3, 68, 90
5, 32101, Note_on_c, 3, 65, 90
5, 32102, Note_on_c, 3, 60, 90
5, 32103, Note_on_c, 3, 56, 90
5, 32160, Note_on_c, 3, 56, 0
5, 32160, Note_on_c, 3, 68, 0
5, 32160, Note_on_c, 3, 65, 0
5, 32160, Note_on_c, 3, 60, 0
5, 32160, Note_on_c, 3, 56, 90
5, 32161, Note_on_c, 3, 60, 90
5, 32162, Note_on_c, 3, 65, 90
5, 32163, Note_on_c, 3, 68, 90
5, 32189, Note_on_c, 3, 68, 0
5, 32189, Note_on_c, 3, 56, 0
5, 32189, Note_on_c, 3, 60, 0
5, 32189, Note_on_c, 3, 65, 0
5, 32220, Note_on_c, 3, 68, 90
5, 32221, Note_on_c, 3, 65, 90
5, 32222, Note_on_c, 3, 60, 90
5, 32223, Note_on_c, 3, 56, 90
5, 32280, Note_on_c, 3, 56, 0
5, 32280, Note_on_c, 3, 68, 0
5, 32280, Note_on_c, 3, 65, 0
5, 32280, Note_on_c, 3, 60, 0
5, 32280, Note_on_c, 3, 60, 90
5, 32281, Note_on_c, 3, 65, 90
5, 32282, Note_on_c, 3, 68, 90
5, 32340, Note_on_c, 3, 68, 0
5, 32340, Note_on_c, 3, 65, 0
5, 32340, Note_on_c, 3, 60, 0
5, 32340, Note_on_c, 3, 68, 90
5, 32341, Note_on_c, 3, 65, 90
5, 32342, Note_on_c, 3, 60, 90
5, 32343, Note_on_c, 3, 56, 90
5, 32400, Note_on_c, 3, 56, 0
5, 32400, Note_on_c, 3, 68, 0
5, 32400, Note_on_c, 3, 65, 0
5, 32400, Note_on_c, 3, 60, 0
5, 32400, Note_on_c, 3, 56, 90
5, 32401, Note_on_c, 3, 60, 90
5, 32402, Note_on_c, 3, 65, 90
5, 32403, Note_on_c, 3, 68, 90
5, 32429, Note_on_c, 3, 68, 0
5, 32429, Note_on_c, 3, 56, 0
5, 32429, Note_on_c, 3, 60, 0
5, 32429, Note_on_c, 3, 65, 0
5, 32460, Note_on_c, 3, 68, 90
5, 32461, Note_on_c, 3, 65, 90
5, 32462, Note_on_c, 3, 60, 90
5, 32463, Note_on_c, 3, 56, 90
5, 32520, Note_on_c, 3, 56, 0
5, 32520, Note_on_c, 3, 68, 0
5, 32520, Note_on_c, 3, 65, 0
5, 32520, Note_on_c, 3, 60, 0
5, 32520, Note_on_c, 3, 60, 90
5, 32521, Note_on_c, 3, 65, 90
5, 32522, Note_on_c, 3, 68, 90
5, 32580, Note_on_c, 3, 68, 0
5, 32580, Note_on_c, 3, 65, 0
5, 32580, Note_on_c, 3, 60, 0
5, 32580, Note_on_c, 3, 68, 90
5, 32581, Note_on_c, 3, 65, 90
5, 32582, Note_on_c, 3, 60, 90
5, 32583, Note_on_c, 3, 56, 90
5, 32640, Note_on_c, 3, 56, 0
5, 32640, Note_on_c, 3, 68, 0
5, 32640, Note_on_c, 3, 65, 0
5, 32640, Note_on_c, 3, 60, 0
5, 32640, Note_on_c, 3, 56, 90
5, 32641, Note_on_c, 3, 60, 90
5, 32642, Note_on_c, 3, 65, 90
5, 32643, Note_on_c, 3, 68, 90
5, 32669, Note_on_c, 3, 68, 0
5, 32669, Note_on_c, 3, 56, 0
5, 32669, Note_on_c, 3, 60, 0
5, 32669, Note_on_c, 3, 65, 0
5, 32700, Note_on_c, 3, 68, 90
5, 32701, Note_on_c, 3, 65, 90
5, 32702, Note_on_c, 3, 60, 90
5, 32703, Note_on_c, 3, 56, 90
5, 32760, Note_on_c, 3, 56, 0
5, 32760, Note_on_c, 3, 68, 0
5, 32760, Note_on_c, 3, 65, 0
5, 32760, Note_on_c, 3, 60, 0
5, 32760, Note_on_c, 3, 60, 90
5, 32761, Note_on_c, 3, 65, 90
5, 32762, Note_on_c, 3, 68, 90
5, 32820, Note_on_c, 3, 68, 0
5, 32820, Note_on_c, 3, 65, 0
5, 32820, Note_on_c, 3, 60, 0
5, 32820, Note_on_c, 3, 68, 90
5, 32821, Note_on_c, 3, 65, 90
5, 32822, Note_on_c, 3, 60, 90
5, 32823, Note_on_c, 3, 56, 90
5, 32880, Note_on_c, 3, 56, 0
5, 32880, Note_on_c, 3, 68, 0
5, 32880, Note_on_c, 3, 65, 0
5, 32880, Note_on_c, 3, 60, 0
5, 32880, Note_on_c, 3, 68, 90
5, 32881, Note_on_c, 3, 65, 90
5, 32882, Note_on_c, 3, 60, 90
5, 32940, Note_on_c, 3, 60, 0
5, 32940, Note_on_c, 3, 65, 0
5, 32940, Note_on_c, 3, 68, 0
5, 32940, Note_on_c, 3, 56, 90
5, 32941, Note_on_c, 3, 60, 90
5, 32942, Note_on_c, 3, 65, 90
5, 32943, Note_on_c, 3, 68, 90
5, 33000, Note_on_c, 3, 68, 0
5, 33000, Note_on_c, 3, 56, 0
5, 33000, Note_on_c, 3, 60, 0
5, 33000, Note_on_c, 3, 65, 0
5, 33000, Note_on_c, 3, 56, 90
5, 33001, Note_on_c, 3, 60, 90
5, 33002, Note_on_c, 3, 65, 90
5, 33003, Note_on_c, 3, 68, 90
5, 33029, Note_on_c, 3, 68, 0
5, 33029, Note_on_c, 3, 56, 0
5, 33029, Note_on_c, 3, 60, 0
5, 33029, Note_on_c, 3, 65, 0
5, 33060, Note_on_c, 3, 68, 90
5, 33061, Note_on_c, 3, 65, 90
5, 33062, Note_on_c, 3, 60, 90
5, 33063, Note_on_c, 3, 56, 90
5, 33120, Note_on_c, 3, 56, 0
5, 33120, Note_on_c, 3, 68, 0
5, 33120, Note_on_c, 3, 65, 0
5, 33120, Note_on_c, 3, 60, 0
5, 33120, Note_on_c, 3, 58, 90
5, 33121, Note_on_c, 3, 63, 90
5, 33122, Note_on_c, 3, 67, 90
5, 33149, Note_on_c, 3, 67, 0
5, 33149, Note_on_c, 3, 63, 0
5, 33149, Note_on_c, 3, 58, 0
5, 33180, Note_on_c, 3, 67, 90
5, 33181, Note_on_c, 3, 63, 90
5, 33182, Note_on_c, 3, 58, 90
5, 33209, Note_on_c, 3, 58, 0
5, 33209, Note_on_c, 3, 63, 0
5, 33209, Note_on_c, 3, 67, 0
5, 33300, Note_on_c, 3, 60, 90
5, 33301, Note_on_c, 3, 63, 90
5, 33302, Note_on_c, 3, 68, 90
5, 33420, Note_on_c, 3, 68, 0
5, 33420, Note_on_c, 3, 63, 0
5, 33420, Note_on_c, 3, 60, 0
5, 33420, Note_on_c, 3, 68, 90
5, 33421, Note_on_c, 3, 63, 90
5, 33422, Note_on_c, 3, 60, 90
5, 33480, Note_on_c, 3, 60, 0
5, 33480, Note_on_c, 3, 63, 0
5, 33480, Note_on_c, 3, 68, 0
5, 33480, Note_on_c, 3, 60, 90
5, 33481, Note_on_c, 3, 63, 90
5, 33482, Note_on_c, 3, 68, 90
5, 33509, Note_on_c, 3, 68, 0
5, 33509, Note_on_c, 3, 63, 0
5, 33509, Note_on_c, 3, 60, 0
5, 33540, Note_on_c, 3, 68, 90
5, 33541, Note_on_c, 3, 63, 90
5, 33542, Note_on_c, 3, 60, 90
5, 33660, Note_on_c, 3, 60, 0
5, 33660, Note_on_c, 3, 63, 0
5, 33660, Note_on_c, 3, 68, 0
5, 33660, Note_on_c, 3, 60, 90
5, 33661, Note_on_c, 3, 63, 90
5, 33662, Note_on_c, 3, 68, 90
5, 33720, Note_on_c, 3, 68, 0
5, 33720, Note_on_c, 3, 63, 0
5, 33720, Note_on_c, 3, 60, 0
5, 33720, Note_on_c, 3, 68, 90
5, 33721, Note_on_c, 3, 63, 90
5, 33722, Note_on_c, 3, 60, 90
5, 33749, Note_on_c, 3, 60, 0
5, 33749, Note_on_c, 3, 63, 0
5, 33749, Note_on_c, 3, 68, 0
5, 33780, Note_on_c, 3, 60, 90
5, 33781, Note_on_c, 3, 63, 90
5, 33782, Note_on_c, 3, 68, 90
5, 33840, Note_on_c, 3, 68, 0
5, 33840, Note_on_c, 3, 63, 0
5, 33840, Note_on_c, 3, 60, 0
5, 33840, Note_on_c, 3, 65, 90
5, 33841, Note_on_c, 3, 60, 90
5, 33842, Note_on_c, 3, 56, 90
5, 33900, Note_on_c, 3, 56, 0
5, 33900, Note_on_c, 3, 60, 0
5, 33900, Note_on_c, 3, 65, 0
5, 33900, Note_on_c, 3, 56, 90
5, 33901, Note_on_c, 3, 60, 90
5, 33902, Note_on_c, 3, 65, 90
5, 33960, Note_on_c, 3, 65, 0
5, 33960, Note_on_c, 3, 60, 0
5, 33960, Note_on_c, 3, 56, 0
5, 33960, Note_on_c, 3, 65, 90
5, 33961, Note_on_c, 3, 60, 90
5, 33962, Note_on_c, 3, 56, 90
5, 33989, Note_on_c, 3, 56, 0
5, 33989, Note_on_c, 3, 60, 0
5, 33989, Note_on_c, 3, 65, 0
5, 34020, Note_on_c, 3, 56, 90
5, 34021, Note_on_c, 3, 60, 90
5, 34022, Note_on_c, 3, 65, 90
5, 34140, Note_on_c, 3, 65, 0
5, 34140, Note_on_c, 3, 60, 0
5, 34140, Note_on_c, 3, 56, 0
5, 34140, Note_on_c, 3, 65, 90
5, 34141, Note_on_c, 3, 60, 90
5, 34142, Note_on_c, 3, 56, 90
5, 34200, Note_on_c, 3, 56, 0
5, 34200, Note_on_c, 3, 60, 0
5, 34200, Note_on_c, 3, 65, 0
5, 34200, Note_on_c, 3, 56, 90
5, 34201, Note_on_c, 3, 60, 90
5, 34202, Note_on_c, 3, 65, 90
5, 34229, Note_on_c, 3, 65, 0
5, 34229, Note_on_c, 3, 60, 0
5, 34229, Note_on_c, 3, 56, 0
5, 34260, Note_on_c, 3, 67, 90
5, 34261, Note_on_c, 3, 63, 90
5, 34262, Note_on_c, 3, 60, 90
5, 34380, Note_on_c, 3, 60, 0
5, 34380, Note_on_c, 3, 63, 0
5, 34380, Note_on_c, 3, 67, 0
5, 34380, Note_on_c, 3, 55, 90
5, 34381, Note_on_c, 3, 60, 90
5, 34382, Note_on_c, 3, 63, 90
5, 34383, Note_on_c, 3, 67, 90
5, 34440, Note_on_c, 3, 67, 0
5, 34440, Note_on_c, 3, 55, 0
5, 34440, Note_on_c, 3, 60, 0
5, 34440, Note_on_c, 3, 63, 0
5, 34440, Note_on_c, 3, 67, 90
5, 34441, Note_on_c, 3, 63, 90
5, 34442, Note_on_c, 3, 60, 90
5, 34443, Note_on_c, 3, 55, 90
5, 34469, Note_on_c, 3, 55, 0
5, 34469, Note_on_c, 3, 67, 0
5, 34469, Note_on_c, 3, 63, 0
5, 34469, Note_on_c, 3, 60, 0
5, 34500, Note_on_c, 3, 55, 90
5, 34501, Note_on_c, 3, 60, 90
5, 34502, Note_on_c, 3, 63, 90
5, 34503, Note_on_c, 3, 67, 90
5, 34620, Note_on_c, 3, 67, 0
5, 34620, Note_on_c, 3, 55, 0
5, 34620, Note_on_c, 3, 60, 0
5, 34620, Note_on_c, 3, 63, 0
5, 34620, Note_on_c, 3, 67, 90
5, 34621, Note_on_c, 3, 63, 90
5, 34622, Note_on_c, 3, 60, 90
5, 34623, Note_on_c, 3, 55, 90
5, 34680, Note_on_c, 3, 55, 0
5, 34680, Note_on_c, 3, 67, 0
5, 34680, Note_on_c, 3, 63, 0
5, 34680, Note_on_c, 3, 60, 0
5, 34680, Note_on_c, 3, 55, 90
5, 34681, Note_on_c, 3, 60, 90
5, 34682, Note_on_c, 3, 63, 90
5, 34683, Note_on_c, 3, 67, 90
5, 34709, Note_on_c, 3, 67, 0
5, 34709, Note_on_c, 3, 55, 0
5, 34709, Note_on_c, 3, 60, 0
5, 34709, Note_on_c, 3, 63, 0
5, 34740, Note_on_c, 3, 67, 90
5, 34741, Note_on_c, 3, 63, 90
5, 34742, Note_on_c, 3, 58, 90
5, 34860, Note_on_c, 3, 58, 0
5, 34860, Note_on_c, 3, 63, 0
5, 34860, Note_on_c, 3, 67, 0
5, 34860, Note_on_c, 3, 55, 90
5, 34861, Note_on_c, 3, 58, 90
5, 34862, Note_on_c, 3, 63, 90
5, 34863, Note_on_c, 3, 67, 90
5, 34920, Note_on_c, 3, 67, 0
5, 34920, Note_on_c, 3, 55, 0
5, 34920, Note_on_c, 3, 58, 0
5, 34920, Note_on_c, 3, 63, 0
5, 34920, Note_on_c, 3, 67, 90
5, 34921, Note_on_c, 3, 63, 90
5, 34922, Note_on_c, 3, 58, 90
5, 34923, Note_on_c, 3, 55, 90
5, 34949, Note_on_c, 3, 55, 0
5, 34949, Note_on_c, 3, 67, 0
5, 34949, Note_on_c, 3, 63, 0
5, 34949, Note_on_c, 3, 58, 0
5, 34980, Note_on_c, 3, 53, 90
5, 34981, Note_on_c, 3, 56, 90
5, 34982, Note_on_c, 3, 61, 90
5, 34983, Note_on_c, 3, 65, 90
5, 35100, Note_on_c, 3, 65, 0
5, 35100, Note_on_c, 3, 53, 0
5, 35100, Note_on_c, 3, 56, 0
5, 35100, Note_on_c, 3, 61, 0
5, 35100, Note_on_c, 3, 65, 90
5, 35101, Note_on_c, 3, 61, 90
5, 35102, Note_on_c, 3, 56, 90
5, 35103, Note_on_c, 3, 53, 90
5, 35160, Note_on_c, 3, 53, 0
5, 35160, Note_on_c, 3, 65, 0
5, 35160, Note_on_c, 3, 61, 0
5, 35160, Note_on_c, 3, 56, 0
5, 35160, Note_on_c, 3, 53, 90
5, 35161, Note_on_c, 3, 56, 90
5, 35162, Note_on_c, 3, 61, 90
5, 35163, Note_on_c, 3, 65, 90
5, 35189, Note_on_c, 3, 65, 0
5, 35189, Note_on_c, 3, 53, 0
5, 35189, Note_on_c, 3, 56, 0
5, 35189, Note_on_c, 3, 61, 0
5, 35220, Note_on_c, 3, 65, 90
5, 35221, Note_on_c, 3, 61, 90
5, 35222, Note_on_c, 3, 56, 90
5, 35223, Note_on_c, 3, 53, 90
5, 35280, Note_on_c, 3, 53, 0
5, 35280, Note_on_c, 3, 65, 0
5, 35280, Note_on_c, 3, 61, 0
5, 35280, Note_on_c, 3, 56, 0
5, 35280, Note_on_c, 3, 60, 90
5, 35281, Note_on_c, 3, 63, 90
5, 35282, Note_on_c, 3, 68, 90
5, 35340, Note_on_c, 3, 68, 0
5, 35340, Note_on_c, 3, 63, 0
5, 35340, Note_on_c, 3, 60, 0
5, 35340, Note_on_c, 3, 68, 90
5, 35341, Note_on_c, 3, 63, 90
5, 35342, Note_on_c, 3, 60, 90
5, 35400, Note_on_c, 3, 60, 0
5, 35400, Note_on_c, 3, 63, 0
5, 35400, Note_on_c, 3, 68, 0
5, 35400, Note_on_c, 3, 60, 90
5, 35401, Note_on_c, 3, 63, 90
5, 35402, Note_on_c, 3, 68, 90
5, 35429, Note_on_c, 3, 68, 0
5, 35429, Note_on_c, 3, 63, 0
5, 35429, Note_on_c, 3, 60, 0
5, 35460, Note_on_c, 3, 68, 90
5, 35461, Note_on_c, 3, 63, 90
5, 35462, Note_on_c, 3, 60, 90
5, 35580, Note_on_c, 3, 60, 0
5, 35580, Note_on_c, 3, 63, 0
5, 35580, Note_on_c, 3, 68, 0
5, 35580, Note_on_c, 3, 60, 90
5, 35581, Note_on_c, 3, 63, 90
5, 35582, Note_on_c, 3, 68, 90
5, 35640, Note_on_c, 3, 68, 0
5, 35640, Note_on_c, 3, 63, 0
5, 35640, Note_on_c, 3, 60, 0
5, 35640, Note_on_c, 3, 68, 90
5, 35641, Note_on_c, 3, 63, 90
5, 35642, Note_on_c, 3, 60, 90
5, 35669, Note_on_c, 3, 60, 0
5, 35669, Note_on_c, 3, 63, 0
5, 35669, Note_on_c, 3, 68, 0
5, 35700, Note_on_c, 3, 60, 90
5, 35701, Note_on_c, 3, 63, 90
5, 35702, Note_on_c, 3, 68, 90
5, 35760, Note_on_c, 3, 68, 0
5, 35760, Note_on_c, 3, 63, 0
5, 35760, Note_on_c, 3, 60, 0
5, 35760, Note_on_c, 3, 65, 90
5, 35761, Note_on_c, 3, 60, 90
5, 35762, Note_on_c, 3, 56, 90
5, 35820, Note_on_c, 3, 56, 0
5, 35820, Note_on_c, 3, 60, 0
5, 35820, Note_on_c, 3, 65, 0
5, 35820, Note_on_c, 3, 56, 90
5, 35821, Note_on_c, 3, 60, 90
5, 35822, Note_on_c, 3, 65, 90
5, 35880, Note_on_c, 3, 65, 0
5, 35880, Note_on_c, 3, 60, 0
5, 35880, Note_on_c, 3, 56, 0
5, 35880, Note_on_c, 3, 65, 90
5, 35881, Note_on_c, 3, 60, 90
5, 35882, Note_on_c, 3, 56, 90
5, 35909, Note_on_c, 3, 56, 0
5, 35909, Note_on_c, 3, 60, 0
5, 35909, Note_on_c, 3, 65, 0
5, 35940, Note_on_c, 3, 56, 90
5, 35941, Note_on_c, 3, 60, 90
5, 35942, Note_on_c, 3, 65, 90
5, 36060, Note_on_c, 3, 65, 0
5, 36060, Note_on_c, 3, 60, 0
5, 36060, Note_on_c, 3, 56, 0
5, 36060, Note_on_c, 3, 65, 90
5, 36061, Note_on_c, 3, 60, 90
5, 36062, Note_on_c, 3, 56, 90
5, 36120, Note_on_c, 3, 56, 0
5, 36120, Note_on_c, 3, 60, 0
5, 36120, Note_on_c, 3, 65, 0
5, 36120, Note_on_c, 3, 56, 90
5, 36121, Note_on_c, 3, 60, 90
5, 36122, Note_on_c, 3, 65, 90
5, 36149, Note_on_c, 3, 65, 0
5, 36149, Note_on_c, 3, 60, 0
5, 36149, Note_on_c, 3, 56, 0
5, 36180, Note_on_c, 3, 67, 90
5, 36181, Note_on_c, 3, 63, 90
5, 36182, Note_on_c, 3, 60, 90
5, 36300, Note_on_c, 3, 60, 0
5, 36300, Note_on_c, 3, 63, 0
5, 36300, Note_on_c, 3, 67, 0
5, 36300, Note_on_c, 3, 55, 90
5, 36301, Note_on_c, 3, 60, 90
5, 36302, Note_on_c, 3, 63, 90
5, 36303, Note_on_c, 3, 67, 90
5, 36360, Note_on_c, 3, 67, 0
5, 36360, Note_on_c, 3, 55, 0
5, 36360, Note_on_c, 3, 60, 0
5, 36360, Note_on_c, 3, 63, 0
5, 36360, Note_on_c, 3, 67, 90
5, 36361, Note_on_c, 3, 63, 90
5, 36362, Note_on_c, 3, 60, 90
5, 36363, Note_on_c, 3, 55, 90
5, 36389, Note_on_c, 3, 55, 0
5, 36389, Note_on_c, 3, 67, 0
5, 36389, Note_on_c, 3, 63, 0
5, 36389, Note_on_c, 3, 60, 0
5, 36420, Note_on_c, 3, 55, 90
5, 36421, Note_on_c, 3, 60, 90
5, 36422, Note_on_c, 3, 63, 90
5, 36423, Note_on_c, 3, 67, 90
5, 36540, Note_on_c, 3, 67, 0
5, 36540, Note_on_c, 3, 55, 0
5, 36540, Note_on_c, 3, 60, 0
5, 36540, Note_on_c, 3, 63, 0
5, 36540, Note_on_c, 3, 67, 90
5, 36541, Note_on_c, 3, 63, 90
5, 36542, Note_on_c, 3, 60, 90
5, 36543, Note_on_c, 3, 55, 90
5, 36600, Note_on_c, 3, 55, 0
5, 36600, Note_on_c, 3, 67, 0
5, 36600, Note_on_c, 3, 63, 0
5, 36600, Note_on_c, 3, 60, 0
5, 36600, Note_on_c, 3, 55, 90
5, 36601, Note_on_c, 3, 60, 90
5, 36602, Note_on_c, 3, 63, 90
5, 36603, Note_on_c, 3, 67, 90
5, 36629, Note_on_c, 3, 67, 0
5, 36629, Note_on_c, 3, 55, 0
5, 36629, Note_on_c, 3, 60, 0
5, 36629, Note_on_c, 3, 63, 0
5, 36660, Note_on_c, 3, 67, 90
5, 36661, Note_on_c, 3, 63, 90
5, 36662, Note_on_c, 3, 58, 90
5, 36780, Note_on_c, 3, 58, 0
5, 36780, Note_on_c, 3, 63, 0
5, 36780, Note_on_c, 3, 67, 0
5, 36780, Note_on_c, 3, 55, 90
5, 36781, Note_on_c, 3, 58, 90
5, 36782, Note_on_c, 3, 63, 90
5, 36783, Note_on_c, 3, 67, 90
5, 36840, Note_on_c, 3, 67, 0
5, 36840, Note_on_c, 3, 55, 0
5, 36840, Note_on_c, 3, 58, 0
5, 36840, Note_on_c, 3, 63, 0
5, 36840, Note_on_c, 3, 67, 90
5, 36841, Note_on_c, 3, 63, 90
5, 36842, Note_on_c, 3, 58, 90
5, 36843, Note_on_c, 3, 55, 90
5, 36869, Note_on_c, 3, 55, 0
5, 36869, Note_on_c, 3, 67, 0
5, 36869, Note_on_c, 3, 63, 0
5, 36869, Note_on_c, 3, 58, 0
5, 36900, Note_on_c, 3, 53, 90
5, 36901, Note_on_c, 3, 56, 90
5, 36902, Note_on_c, 3, 61, 90
5, 36903, Note_on_c, 3, 65, 90
5, 37020, Note_on_c, 3, 65, 0
5, 37020, Note_on_c, 3, 53, 0
5, 37020, Note_on_c, 3, 56, 0
5, 37020, Note_on_c, 3, 61, 0
5, 37020, Note_on_c, 3, 65, 90
5, 37021, Note_on_c, 3, 61, 90
5, 37022, Note_on_c, 3, 56, 90
5, 37023, Note_on_c, 3, 53, 90
5, 37080, Note_on_c, 3, 53, 0
5, 37080, Note_on_c, 3, 65, 0
5, 37080, Note_on_c, 3, 61, 0
5, 37080, Note_on_c, 3, 56, 0
5, 37080, Note_on_c, 3, 53, 90
5, 37081, Note_on_c, 3, 56, 90
5, 37082, Note_on_c, 3, 61, 90
5, 37083, Note_on_c, 3, 65, 90
5, 37109, Note_on_c, 3, 65, 0
5, 37109, Note_on_c, 3, 53, 0
5, 37109, Note_on_c, 3, 56, 0
5, 37109, Note_on_c, 3, 61, 0
5, 37140, Note_on_c, 3, 65, 90
5, 37141, Note_on_c, 3, 61, 90
5, 37142, Note_on_c, 3, 56, 90
5, 37143, Note_on_c, 3, 53, 90
5, 37200, Note_on_c, 3, 53, 0
5, 37200, Note_on_c, 3, 65, 0
5, 37200, Note_on_c, 3, 61, 0
5, 37200, Note_on_c, 3, 56, 0
5, 37200, Note_on_c, 3, 60, 90
5, 37201, Note_on_c, 3, 63, 90
5, 37202, Note_on_c, 3, 68, 90
5, 37260, Note_on_c, 3, 68, 0
5, 37260, Note_on_c, 3, 63, 0
5, 37260, Note_on_c, 3, 60, 0
5, 37260, Note_on_c, 3, 68, 88
5, 37261, Note_on_c, 3, 63, 88
5, 37262, Note_on_c, 3, 60, 88
5, 37320, Note_on_c, 3, 60, 0
5, 37320, Note_on_c, 3, 63, 0
5, 37320, Note_on_c, 3, 68, 0
5, 37320, Note_on_c, 3, 60, 86
5, 37321, Note_on_c, 3, 63, 86
5, 37322, Note_on_c, 3, 68, 86
5, 37349, Note_on_c, 3, 68, 0
5, 37349, Note_on_c, 3, 63, 0
5, 37349, Note_on_c, 3, 60, 0
5, 37380, Note_on_c, 3, 68, 84
5, 37381, Note_on_c, 3, 63, 84
5, 37382, Note_on_c, 3, 60, 84
5, 37500, Note_on_c, 3, 60, 0
5, 37500, Note_on_c, 3, 63, 0
5, 37500, Note_on_c, 3, 68, 0
5, 37500, Note_on_c, 3, 60, 81
5, 37501, Note_on_c, 3, 63, 81
5, 37502, Note_on_c, 3, 68, 81
5, 37560, Note_on_c, 3, 68, 0
5, 37560, Note_on_c, 3, 63, 0
5, 37560, Note_on_c, 3, 60, 0
5, 37560, Note_on_c, 3, 68, 79
5, 37561, Note_on_c, 3, 63, 79
5, 37562, Note_on_c, 3, 60, 79
5, 37589, Note_on_c, 3, 60, 0
5, 37589, Note_on_c, 3, 63, 0
5, 37589, Note_on_c, 3, 68, 0
5, 37620, Note_on_c, 3, 60, 77
5, 37621, Note_on_c, 3, 63, 77
5, 37622, Note_on_c, 3, 68, 77
5, 37680, Note_on_c, 3, 68, 0
5, 37680, Note_on_c, 3, 63, 0
5, 37680, Note_on_c, 3, 60, 0
5, 37680, Note_on_c, 3, 65, 75
5, 37681, Note_on_c, 3, 60, 75
5, 37682, Note_on_c, 3, 56, 75
5, 37740, Note_on_c, 3, 56, 0
5, 37740, Note_on_c, 3, 60, 0
5, 37740, Note_on_c, 3, 65, 0
5, 37740, Note_on_c, 3, 56, 73
5, 37741, Note_on_c, 3, 60, 73
5, 37742, Note_on_c, 3, 65, 73
5, 37800, Note_on_c, 3, 65, 0
5, 37800, Note_on_c, 3, 60, 0
5, 37800, Note_on_c, 3, 56, 0
5, 37800, Note_on_c, 3, 65, 72
5, 37801, Note_on_c, 3, 60, 72
5, 37802, Note_on_c, 3, 56, 72
5, 37829, Note_on_c, 3, 56, 0
5, 37829, Note_on_c, 3, 60, 0
5, 37829, Note_on_c, 3, 65, 0
5, 37860, Note_on_c, 3, 56, 70
5, 37861, Note_on_c, 3, 60, 70
5, 37862, Note_on_c, 3, 65, 70
5, 37980, Note_on_c, 3, 65, 0
5, 37980, Note_on_c, 3, 60, 0
5, 37980, Note_on_c, 3, 56, 0
5, 37980, Note_on_c, 3, 65, 65
5, 37981, Note_on_c, 3, 60, 65
5, 37982, Note_on_c, 3, 56, 65
5, 38040, Note_on_c, 3, 56, 0
5, 38040, Note_on_c, 3, 60, 0
5, 38040, Note_on_c, 3, 65, 0
5, 38040, Note_on_c, 3, 56, 63
5, 38041, Note_on_c, 3, 60, 63
5, 38042, Note_on_c, 3, 65, 63
5, 38069, Note_on_c, 3, 65, 0
5, 38069, Note_on_c, 3, 60, 0
5, 38069, Note_on_c, 3, 56, 0
5, 38100, Note_on_c, 3, 67, 62
5, 38101, Note_on_c, 3, 63, 62
5, 38102, Note_on_c, 3, 60, 62
5, 38220, Note_on_c, 3, 60, 0
5, 38220, Note_on_c, 3, 63, 0
5, 38220, Note_on_c, 3, 67, 0
5, 38220, Note_on_c, 3, 55, 58
5, 38221, Note_on_c, 3, 60, 58
5, 38222, Note_on_c, 3, 63, 58
5, 38223, Note_on_c, 3, 67, 58
5, 38280, Note_on_c, 3, 67, 0
5, 38280, Note_on_c, 3, 55, 0
5, 38280, Note_on_c, 3, 60, 0
5, 38280, Note_on_c, 3, 63, 0
5, 38280, Note_on_c, 3, 67, 56
5, 38281, Note_on_c, 3, 63, 56
5, 38282, Note_on_c, 3, 60, 56
5, 38283, Note_on_c, 3, 55, 56
5, 38309, Note_on_c, 3, 55, 0
5, 38309, Note_on_c, 3, 67, 0
5, 38309, Note_on_c, 3, 63, 0
5, 38309, Note_on_c, 3, 60, 0
5, 38340, Note_on_c, 3, 55, 54
5, 38341, Note_on_c, 3, 60, 54
5, 38342, Note_on_c, 3, 63, 54
5, 38343, Note_on_c, 3, 67, 54
5, 38460, Note_on_c, 3, 67, 0
5, 38460, Note_on_c, 3, 55, 0
5, 38460, Note_on_c, 3, 60, 0
5, 38460, Note_on_c, 3, 63, 0
5, 38460, Note_on_c, 3, 67, 51
5, 38461, Note_on_c, 3, 63, 51
5, 38462, Note_on_c, 3, 60, 51
5, 38463, Note_on_c, 3, 55, 51
5, 38520, Note_on_c, 3, 55, 0
5, 38520, Note_on_c, 3, 67, 0
5, 38520, Note_on_c, 3, 63, 0
5, 38520, Note_on_c, 3, 60, 0
5, 38520, Note_on_c, 3, 55, 49
5, 38521, Note_on_c, 3, 60, 49
5, 38522, Note_on_c, 3, 63, 49
5, 38523, Note_on_c, 3, 67, 49
5, 38549, Note_on_c, 3, 67, 0
5, 38549, Note_on_c, 3, 55, 0
5, 38549, Note_on_c, 3, 60, 0
5, 38549, Note_on_c, 3, 63, 0
5, 38580, Note_on_c, 3, 67, 47
5, 38581, Note_on_c, 3, 63, 47
5, 38582, Note_on_c, 3, 58, 46
5, 38700, Note_on_c, 3, 58, 0
5, 38700, Note_on_c, 3, 63, 0
5, 38700, Note_on_c, 3, 67, 0
5, 38700, Note_on_c, 3, 55, 43
5, 38701, Note_on_c, 3, 58, 43
5, 38702, Note_on_c, 3, 63, 43
5, 38703, Note_on_c, 3, 67, 43
5, 38760, Note_on_c, 3, 67, 0
5, 38760, Note_on_c, 3, 55, 0
5, 38760, Note_on_c, 3, 58, 0
5, 38760, Note_on_c, 3, 63, 0
5, 38760, Note_on_c, 3, 67, 41
5, 38761, Note_on_c, 3, 63, 41
5, 38762, Note_on_c, 3, 58, 41
5, 38763, Note_on_c, 3, 55, 41
5, 38789, Note_on_c, 3, 55, 0
5, 38789, Note_on_c, 3, 67, 0
5, 38789, Note_on_c, 3, 63, 0
5, 38789, Note_on_c, 3, 58, 0
5, 38820, Note_on_c, 3, 53, 39
5, 38821, Note_on_c, 3, 56, 39
5, 38822, Note_on_c, 3, 61, 39
5, 38823, Note_on_c, 3, 65, 39
5, 38940, Note_on_c, 3, 65, 0
5, 38940, Note_on_c, 3, 53, 0
5, 38940, Note_on_c, 3, 56, 0
5, 38940, Note_on_c, 3, 61, 0
5, 38940, Note_on_c, 3, 65, 36
5, 38941, Note_on_c, 3, 61, 36
5, 38942, Note_on_c, 3, 56, 36
5, 38943, Note_on_c, 3, 53, 36
5, 39000, Note_on_c, 3, 53, 0
5, 39000, Note_on_c, 3, 65, 0
5, 39000, Note_on_c, 3, 61, 0
5, 39000, Note_on_c, 3, 56, 0
5, 39000, Note_on_c, 3, 53, 34
5, 39001, Note_on_c, 3, 56, 34
5, 39002, Note_on_c, 3, 61, 34
5, 39003, Note_on_c, 3, 65, 34
5, 39029, Note_on_c, 3, 65, 0
5, 39029, Note_on_c, 3, 53, 0
5, 39029, Note_on_c, 3, 56, 0
5, 39029, Note_on_c, 3, 61, 0
5, 39060, Note_on_c, 3, 65, 32
5, 39061, Note_on_c, 3, 61, 32
5, 39062, Note_on_c, 3, 56, 32
5, 39063, Note_on_c, 3, 53, 32
5, 39120, Note_on_c, 3, 53, 0
5, 39120, Note_on_c, 3, 65, 0
5, 39120, Note_on_c, 3, 61, 0
5, 39120, Note_on_c, 3, 56, 0
5, 39120, Note_on_c, 3, 60, 30
5, 39121, Note_on_c, 3, 63, 30
5, 39122, Note_on_c, 3, 68, 30
5, 39180, Note_on_c, 3, 68, 0
5, 39180, Note_on_c, 3, 63, 0
5, 39180, Note_on_c, 3, 60, 0
5, 39180, Note_on_c, 3, 68, 28
5, 39181, Note_on_c, 3, 63, 28
5, 39182, Note_on_c, 3, 60, 28
5, 39240, Note_on_c, 3, 60, 0
5, 39240, Note_on_c, 3, 63, 0
5, 39240, Note_on_c, 3, 68, 0
5, 39240, Note_on_c, 3, 60, 27
5, 39241, Note_on_c, 3, 63, 27
5, 39242, Note_on_c, 3, 68, 27
5, 39269, Note_on_c, 3, 68, 0
5, 39269, Note_on_c, 3, 63, 0
5, 39269, Note_on_c, 3, 60, 0
5, 39300, Note_on_c, 3, 68, 25
5, 39301, Note_on_c, 3, 63, 25
5, 39302, Note_on_c, 3, 60, 24
5, 39420, Note_on_c, 3, 60, 0
5, 39420, Note_on_c, 3, 63, 0
5, 39420, Note_on_c, 3, 68, 0
5, 39420, Note_on_c, 3, 60, 20
5, 39421, Note_on_c, 3, 63, 20
5, 39422, Note_on_c, 3, 68, 20
5, 39480, Note_on_c, 3, 68, 0
5, 39480, Note_on_c, 3, 63, 0
5, 39480, Note_on_c, 3, 60, 0
5, 39480, Note_on_c, 3, 68, 18
5, 39481, Note_on_c, 3, 63, 18
5, 39482, Note_on_c, 3, 60, 18
5, 39509, Note_on_c, 3, 60, 0
5, 39509, Note_on_c, 3, 63, 0
5, 39509, Note_on_c, 3, 68, 0
5, 39540, Note_on_c, 3, 60, 17
5, 39541, Note_on_c, 3, 63, 17
5, 39542, Note_on_c, 3, 68, 17
5, 39600, Note_on_c, 3, 68, 0
5, 39600, Note_on_c, 3, 63, 0
5, 39600, Note_on_c, 3, 60, 0
5, 39600, Note_on_c, 3, 65, 15
5, 39601, Note_on_c, 3, 60, 15
5, 39602, Note_on_c, 3, 56, 15
5, 39660, Note_on_c, 3, 56, 0
5, 39660, Note_on_c, 3, 60, 0
5, 39660, Note_on_c, 3, 65, 0
5, 39660, Note_on_c, 3, 56, 13
5, 39661, Note_on_c, 3, 60, 13
5, 39662, Note_on_c, 3, 65, 13
5, 39720, Note_on_c, 3, 65, 0
5, 39720, Note_on_c, 3, 60, 0
5, 39720, Note_on_c, 3, 56, 0
5, 39720, Note_on_c, 3, 65, 11
5, 39721, Note_on_c, 3, 60, 11
5, 39722, Note_on_c, 3, 56, 11
5, 39749, Note_on_c, 3, 56, 0
5, 39749, Note_on_c, 3, 60, 0
5, 39749, Note_on_c, 3, 65, 0
5, 39780, Note_on_c, 3, 56, 9
5, 39781, Note_on_c, 3, 60, 9
5, 39782, Note_on_c, 3, 65, 9
5, 39900, Note_on_c, 3, 65, 0
5, 39900, Note_on_c, 3, 60, 0
5, 39900, Note_on_c, 3, 56, 0
5, 39900, Note_on_c, 3, 65, 6
5, 39901, Note_on_c, 3, 60, 6
5, 39902, Note_on_c, 3, 56, 6
5, 39960, Note_on_c, 3, 56, 0
5, 39960, Note_on_c, 3, 60, 0
5, 39960, Note_on_c, 3, 65, 0
5, 39960, Note_on_c, 3, 56, 4
5, 39961, Note_on_c, 3, 60, 4
5, 39962, Note_on_c, 3, 65, 4
5, 39989, Note_on_c, 3, 65, 0
5, 39989, Note_on_c, 3, 60, 0
5, 39989, Note_on_c, 3, 56, 0
5, 40020, Note_on_c, 3, 67, 2
5, 40021, Note_on_c, 3, 63, 2
5, 40022, Note_on_c, 3, 60, 1
5, 40140, Note_on_c, 3, 60, 0
5, 40140, Note_on_c, 3, 63, 0
5, 40140, Note_on_c, 3, 67, 0
5, 40140, End_track
6, 0, Start_track
6, 0, MIDI_port, 0
6, 0, Program_c, 4, 48
6, 0, Control_c, 4, 7, 100
6, 0, Control_c, 4, 10, 0
6, 0, Control_c, 4, 1, 0
6, 20, Control_c, 4, 11, 64
6, 120, Control_c, 4, 65, 0
6, 120, Control_c, 4, 67, 0
6, 120, Control_c, 4, 93, 0
6, 120, Control_c, 4, 91, 64
6, 120, Control_c, 4, 64, 0
6, 120, Pitch_bend_c, 4, 8192
6, 120, Control_c, 4, 68, 0
6, 480, Note_on_c, 4, 68, 80
6, 960, Note_on_c, 4, 68, 0
6, 960, Note_on_c, 4, 68, 80
6, 1440, Note_on_c, 4, 68, 0
6, 1440, Note_on_c, 4, 67, 80
6, 1920, Note_on_c, 4, 67, 0
6, 1920, Note_on_c, 4, 65, 80
6, 2100, Note_on_c, 4, 65, 0
6, 2100, Note_on_c, 4, 65, 80
6, 2400, Note_on_c, 4, 65, 0
6, 2400, Note_on_c, 4, 60, 80
6, 2820, Note_on_c, 4, 60, 0
6, 15360, Note_on_c, 4, 66, 80
6, 15360, Note_on_c, 4, 73, 80
6, 15840, Note_on_c, 4, 73, 0
6, 15840, Note_on_c, 4, 66, 0
6, 15840, Note_on_c, 4, 73, 80
6, 15840, Note_on_c, 4, 68, 80
6, 16320, Note_on_c, 4, 68, 0
6, 16320, Note_on_c, 4, 73, 0
6, 16320, Note_on_c, 4, 75, 80
6, 16320, Note_on_c, 4, 67, 80
6, 16800, Note_on_c, 4, 67, 0
6, 16800, Note_on_c, 4, 75, 0
6, 23040, Note_on_c, 4, 72, 80
6, 23160, Note_on_c, 4, 72, 0
6, 23160, Note_on_c, 4, 70, 80
6, 23215, Note_on_c, 4, 70, 0
6, 23220, Note_on_c, 4, 68, 80
6, 23275, Note_on_c, 4, 68, 0
6, 23280, Note_on_c, 4, 67, 80
6, 23335, Note_on_c, 4, 67, 0
6, 23340, Note_on_c, 4, 65, 80
6, 23395, Note_on_c, 4, 65, 0
6, 23400, Note_on_c, 4, 67, 80
6, 23580, Note_on_c, 4, 67, 0
6, 23580, Note_on_c, 4, 63, 80
6, 23640, Note_on_c, 4, 63, 0
6, 23640, Note_on_c, 4, 65, 80
6, 23700, Note_on_c, 4, 65, 0
6, 23700, Note_on_c, 4, 67, 80
6, 23820, Note_on_c, 4, 67, 0
6, 23820, Note_on_c, 4, 65, 80
6, 23940, Note_on_c, 4, 65, 0
6, 24000, Note_on_c, 4, 72, 80
6, 24120, Note_on_c, 4, 72, 0
6, 24120, Note_on_c, 4, 70, 80
6, 24175, Note_on_c, 4, 70, 0
6, 24180, Note_on_c, 4, 68, 80
6, 24235, Note_on_c, 4, 68, 0
6, 24240, Note_on_c, 4, 67, 80
6, 24295, Note_on_c, 4, 67, 0
6, 24300, Note_on_c, 4, 65, 80
6, 24355, Note_on_c, 4, 65, 0
6, 24360, Note_on_c, 4, 68, 80
6, 24540, Note_on_c, 4, 68, 0
6, 24540, Note_on_c, 4, 65, 80
6, 24600, Note_on_c, 4, 65, 0
6, 24600, Note_on_c, 4, 65, 80
6, 24660, Note_on_c, 4, 65, 0
6, 24660, Note_on_c, 4, 67, 80
6, 24780, Note_on_c, 4, 67, 0
6, 24780, Note_on_c, 4, 63, 80
6, 25140, Note_on_c, 4, 63, 0
6, 26280, Note_on_c, 4, 66, 80
6, 26280, Note_on_c, 4, 73, 80
6, 26760, Note_on_c, 4, 73, 0
6, 26760, Note_on_c, 4, 66, 0
6, 26760, Note_on_c, 4, 73, 80
6, 26760, Note_on_c, 4, 68, 80
6, 27240, Note_on_c, 4, 68, 0
6, 27240, Note_on_c, 4, 73, 0
6, 27240, Note_on_c, 4, 75, 80
6, 27240, Note_on_c, 4, 67, 80
6, 27720, Note_on_c, 4, 67, 0
6, 27720, Note_on_c, 4, 75, 0
6, 27720, Note_on_c, 4, 63, 80
6, 28200, Note_on_c, 4, 63, 0
6, 28200, Note_on_c, 4, 63, 80
6, 28680, Note_on_c, 4, 63, 0
6, 28680, Note_on_c, 4, 60, 80
6, 29160, Note_on_c, 4, 60, 0
6, 29160, Note_on_c, 4, 60, 80
6, 29640, Note_on_c, 4, 60, 0
6, 29640, Note_on_c, 4, 53, 80
6, 30120, Note_on_c, 4, 53, 0
6, 30120, Note_on_c, 4, 55, 80
6, 30600, Note_on_c, 4, 55, 0
6, 30600, Note_on_c, 4, 56, 80
6, 31080, Note_on_c, 4, 56, 0
6, 31080, Note_on_c, 4, 58, 80
6, 31560, Note_on_c, 4, 58, 0
6, 31560, Note_on_c, 4, 60, 80
6, 32040, Note_on_c, 4, 60, 0
6, 33300, Note_on_c, 4, 63, 80
6, 33300, Note_on_c, 4, 68, 80
6, 33840, Note_on_c, 4, 68, 0
6, 33840, Note_on_c, 4, 63, 0
6, 33840, Note_on_c, 4, 65, 80
6, 34260, Note_on_c, 4, 65, 0
6, 34260, Note_on_c, 4, 67, 80
6, 34740, Note_on_c, 4, 67, 0
6, 34740, Note_on_c, 4, 67, 80
6, 34980, Note_on_c, 4, 67, 0
6, 34980, Note_on_c, 4, 65, 80
6, 35280, Note_on_c, 4, 65, 0
6, 35280, Note_on_c, 4, 68, 80
6, 35280, Note_on_c, 4, 63, 80
6, 35760, Note_on_c, 4, 63, 0
6, 35760, Note_on_c, 4, 68, 0
6, 35760, Note_on_c, 4, 65, 80
6, 36180, Note_on_c, 4, 65, 0
6, 36180, Note_on_c, 4, 67, 80
6, 36660, Note_on_c, 4, 67, 0
6, 36660, Note_on_c, 4, 67, 80
6, 36900, Note_on_c, 4, 67, 0
6, 36900, Note_on_c, 4, 65, 80
6, 37200, Note_on_c, 4, 65, 0
6, 37200, Note_on_c, 4, 68, 80
6, 37200, Note_on_c, 4, 63, 80
6, 37680, Note_on_c, 4, 63, 0
6, 37680, Note_on_c, 4, 68, 0
6, 37680, Note_on_c, 4, 65, 67
6, 38100, Note_on_c, 4, 65, 0
6, 38100, Note_on_c, 4, 67, 55
6, 38580, Note_on_c, 4, 67, 0
6, 38580, Note_on_c, 4, 67, 42
6, 38820, Note_on_c, 4, 67, 0
6, 38820, Note_on_c, 4, 65, 35
6, 39120, Note_on_c, 4, 65, 0
6, 39120, Note_on_c, 4, 68, 27
6, 39120, Note_on_c, 4, 63, 27
6, 39600, Note_on_c, 4, 63, 0
6, 39600, Note_on_c, 4, 68, 0
6, 39600, Note_on_c, 4, 65, 13
6, 40020, Note_on_c, 4, 65, 0
6, 40020, Note_on_c, 4, 67, 2
6, 40080, Note_on_c, 4, 67, 0
6, 40080, End_track
7, 0, Start_track
7, 0, MIDI_port, 0
7, 0, Program_c, 5, 48
7, 0, Control_c, 5, 7, 100
7, 0, Control_c, 5, 10, 127
7, 0, Control_c, 5, 1, 0
7, 20, Control_c, 5, 11, 64
7, 120, Control_c, 5, 65, 0
7, 120, Control_c, 5, 67, 0
7, 120, Control_c, 5, 93, 0
7, 120, Control_c, 5, 91, 64
7, 120, Control_c, 5, 64, 0
7, 120, Pitch_bend_c, 5, 8192
7, 120, Control_c, 5, 68, 0
7, 480, Note_on_c, 5, 63, 80
7, 960, Note_on_c, 5, 63, 0
7, 960, Note_on_c, 5, 63, 80
7, 1440, Note_on_c, 5, 63, 0
7, 1440, Note_on_c, 5, 60, 80
7, 1920, Note_on_c, 5, 60, 0
7, 1920, Note_on_c, 5, 61, 80
7, 2100, Note_on_c, 5, 61, 0
7, 2100, Note_on_c, 5, 63, 80
7, 2400, Note_on_c, 5, 63, 0
7, 2400, Note_on_c, 5, 63, 80
7, 2820, Note_on_c, 5, 63, 0
7, 15360, Note_on_c, 5, 77, 80
7, 15840, Note_on_c, 5, 77, 0
7, 15840, Note_on_c, 5, 77, 80
7, 16800, Note_on_c, 5, 77, 0
7, 23040, Note_on_c, 5, 80, 80
7, 23160, Note_on_c, 5, 80, 0
7, 23160, Note_on_c, 5, 79, 80
7, 23215, Note_on_c, 5, 79, 0
7, 23220, Note_on_c, 5, 77, 80
7, 23275, Note_on_c, 5, 77, 0
7, 23280, Note_on_c, 5, 75, 80
7, 23335, Note_on_c, 5, 75, 0
7, 23340, Note_on_c, 5, 73, 80
7, 23395, Note_on_c, 5, 73, 0
7, 23400, Note_on_c, 5, 75, 80
7, 23580, Note_on_c, 5, 75, 0
7, 23580, Note_on_c, 5, 72, 80
7, 23640, Note_on_c, 5, 72, 0
7, 23640, Note_on_c, 5, 73, 80
7, 23700, Note_on_c, 5, 73, 0
7, 23700, Note_on_c, 5, 75, 80
7, 23820, Note_on_c, 5, 75, 0
7, 23820, Note_on_c, 5, 68, 80
7, 23940, Note_on_c, 5, 68, 0
7, 24000, Note_on_c, 5, 80, 80
7, 24120, Note_on_c, 5, 80, 0
7, 24120, Note_on_c, 5, 79, 80
7, 24175, Note_on_c, 5, 79, 0
7, 24180, Note_on_c, 5, 77, 80
7, 24235, Note_on_c, 5, 77, 0
7, 24240, Note_on_c, 5, 75, 80
7, 24295, Note_on_c, 5, 75, 0
7, 24300, Note_on_c, 5, 73, 80
7, 24355, Note_on_c, 5, 73, 0
7, 24360, Note_on_c, 5, 75, 80
7, 24540, Note_on_c, 5, 75, 0
7, 24540, Note_on_c, 5, 68, 80
7, 24600, Note_on_c, 5, 68, 0
7, 24600, Note_on_c, 5, 68, 80
7, 24660, Note_on_c, 5, 68, 0
7, 24660, Note_on_c, 5, 70, 80
7, 24780, Note_on_c, 5, 70, 0
7, 24780, Note_on_c, 5, 72, 80
7, 25140, Note_on_c, 5, 72, 0
7, 27720, Note_on_c, 5, 68, 80
7, 28200, Note_on_c, 5, 68, 0
7, 28200, Note_on_c, 5, 72, 80
7, 28680, Note_on_c, 5, 72, 0
7, 28680, Note_on_c, 5, 75, 80
7, 29160, Note_on_c, 5, 75, 0
7, 29160, Note_on_c, 5, 75, 80
7, 29640, Note_on_c, 5, 75, 0
7, 29640, Note_on_c, 5, 77, 80
7, 30120, Note_on_c, 5, 77, 0
7, 30120, Note_on_c, 5, 75, 80
7, 30600, Note_on_c, 5, 75, 0
7, 30600, Note_on_c, 5, 77, 80
7, 31080, Note_on_c, 5, 77, 0
7, 31080, Note_on_c, 5, 79, 80
7, 31560, Note_on_c, 5, 79, 0
7, 31560, Note_on_c, 5, 80, 80
7, 32040, Note_on_c, 5, 80, 0
7, 33300, Note_on_c, 5, 75, 80
7, 33840, Note_on_c, 5, 75, 0
7, 33840, Note_on_c, 5, 75, 80
7, 34260, Note_on_c, 5, 75, 0
7, 34260, Note_on_c, 5, 70, 80
7, 34740, Note_on_c, 5, 70, 0
7, 34740, Note_on_c, 5, 70, 80
7, 34980, Note_on_c, 5, 70, 0
7, 34980, Note_on_c, 5, 68, 80
7, 35280, Note_on_c, 5, 68, 0
7, 35280, Note_on_c, 5, 75, 80
7, 35760, Note_on_c, 5, 75, 0
7, 35760, Note_on_c, 5, 75, 80
7, 36180, Note_on_c, 5, 75, 0
7, 36180, Note_on_c, 5, 70, 80
7, 36660, Note_on_c, 5, 70, 0
7, 36660, Note_on_c, 5, 70, 80
7, 36900, Note_on_c, 5, 70, 0
7, 36900, Note_on_c, 5, 68, 80
7, 37200, Note_on_c, 5, 68, 0
7, 37200, Note_on_c, 5, 75, 80
7, 37680, Note_on_c, 5, 75, 0
7, 37680, Note_on_c, 5, 75, 67
7, 38100, Note_on_c, 5, 75, 0
7, 38100, Note_on_c, 5, 70, 55
7, 38580, Note_on_c, 5, 70, 0
7, 38580, Note_on_c, 5, 70, 42
7, 38820, Note_on_c, 5, 70, 0
7, 38820, Note_on_c, 5, 68, 35
7, 39120, Note_on_c, 5, 68, 0
7, 39120, Note_on_c, 5, 75, 27
7, 39600, Note_on_c, 5, 75, 0
7, 39600, Note_on_c, 5, 75, 13
7, 40020, Note_on_c, 5, 75, 0
7, 40020, Note_on_c, 5, 70, 2
7, 40080, Note_on_c, 5, 70, 0
7, 40080, End_track
8, 0, Start_track
8, 0, MIDI_port, 0
8, 0, Program_c, 6, 6
8, 0, Control_c, 6, 7, 45
8, 0, Control_c, 6, 10, 127
8, 0, Control_c, 6, 1, 0
8, 20, Control_c, 6, 11, 64
8, 120, Control_c, 6, 65, 0
8, 120, Control_c, 6, 67, 0
8, 120, Control_c, 6, 93, 0
8, 120, Control_c, 6, 91, 64
8, 120, Control_c, 6, 64, 0
8, 120, Pitch_bend_c, 6, 8192
8, 120, Control_c, 6, 68, 0
8, 2880, Note_on_c, 6, 60, 100
8, 2884, Note_on_c, 6, 65, 100
8, 2888, Note_on_c, 6, 68, 100
8, 3360, Note_on_c, 6, 68, 0
8, 3360, Note_on_c, 6, 65, 0
8, 3360, Note_on_c, 6, 60, 0
8, 3360, Note_on_c, 6, 63, 100
8, 3364, Note_on_c, 6, 67, 100
8, 3368, Note_on_c, 6, 70, 100
8, 3840, Note_on_c, 6, 70, 0
8, 3840, Note_on_c, 6, 67, 0
8, 3840, Note_on_c, 6, 63, 0
8, 4320, Note_on_c, 6, 60, 100
8, 4324, Note_on_c, 6, 65, 100
8, 4328, Note_on_c, 6, 68, 100
8, 4800, Note_on_c, 6, 68, 0
8, 4800, Note_on_c, 6, 65, 0
8, 4800, Note_on_c, 6, 60, 0
8, 4800, Note_on_c, 6, 63, 100
8, 4804, Note_on_c, 6, 67, 100
8, 4808, Note_on_c, 6, 70, 100
8, 5280, Note_on_c, 6, 70, 0
8, 5280, Note_on_c, 6, 67, 0
8, 5280, Note_on_c, 6, 63, 0
8, 5280, Note_on_c, 6, 61, 100
8, 5284, Note_on_c, 6, 65, 100
8, 5288, Note_on_c, 6, 68, 100
8, 5760, Note_on_c, 6, 68, 0
8, 5760, Note_on_c, 6, 65, 0
8, 5760, Note_on_c, 6, 61, 0
8, 5760, Note_on_c, 6, 63, 100
8, 5764, Note_on_c, 6, 67, 100
8, 5768, Note_on_c, 6, 70, 100
8, 6240, Note_on_c, 6, 70, 0
8, 6240, Note_on_c, 6, 67, 0
8, 6240, Note_on_c, 6, 63, 0
8, 6240, Note_on_c, 6, 61, 100
8, 6244, Note_on_c, 6, 65, 100
8, 6248, Note_on_c, 6, 68, 100
8, 6420, Note_on_c, 6, 68, 0
8, 6420, Note_on_c, 6, 65, 0
8, 6420, Note_on_c, 6, 61, 0
8, 6420, Note_on_c, 6, 58, 100
8, 6424, Note_on_c, 6, 63, 100
8, 6428, Note_on_c, 6, 67, 100
8, 6432, Note_on_c, 6, 70, 100
8, 6720, Note_on_c, 6, 70, 0
8, 6720, Note_on_c, 6, 58, 0
8, 6720, Note_on_c, 6, 63, 0
8, 6720, Note_on_c, 6, 67, 0
8, 7200, Note_on_c, 6, 60, 100
8, 7204, Note_on_c, 6, 65, 100
8, 7208, Note_on_c, 6, 68, 100
8, 7680, Note_on_c, 6, 68, 0
8, 7680, Note_on_c, 6, 65, 0
8, 7680, Note_on_c, 6, 60, 0
8, 7680, Note_on_c, 6, 63, 100
8, 7684, Note_on_c, 6, 67, 100
8, 7688, Note_on_c, 6, 70, 100
8, 8160, Note_on_c, 6, 70, 0
8, 8160, Note_on_c, 6, 67, 0
8, 8160, Note_on_c, 6, 63, 0
8, 8640, Note_on_c, 6, 60, 100
8, 8644, Note_on_c, 6, 65, 100
8, 8648, Note_on_c, 6, 68, 100
8, 9120, Note_on_c, 6, 68, 0
8, 9120, Note_on_c, 6, 65, 0
8, 9120, Note_on_c, 6, 60, 0
8, 9120, Note_on_c, 6, 63, 100
8, 9124, Note_on_c, 6, 67, 100
8, 9128, Note_on_c, 6, 70, 100
8, 9600, Note_on_c, 6, 70, 0
8, 9600, Note_on_c, 6, 67, 0
8, 9600, Note_on_c, 6, 63, 0
8, 9600, Note_on_c, 6, 61, 100
8, 9604, Note_on_c, 6, 65, 100
8, 9608, Note_on_c, 6, 68, 100
8, 10080, Note_on_c, 6, 68, 0
8, 10080, Note_on_c, 6, 65, 0
8, 10080, Note_on_c, 6, 61, 0
8, 10080, Note_on_c, 6, 63, 100
8, 10084, Note_on_c, 6, 67, 100
8, 10088, Note_on_c, 6, 70, 100
8, 10560, Note_on_c, 6, 70, 0
8, 10560, Note_on_c, 6, 67, 0
8, 10560, Note_on_c, 6, 63, 0
8, 17280, Note_on_c, 6, 60, 100
8, 17284, Note_on_c, 6, 65, 100
8, 17288, Note_on_c, 6, 68, 100
8, 17760, Note_on_c, 6, 68, 0
8, 17760, Note_on_c, 6, 65, 0
8, 17760, Note_on_c, 6, 60, 0
8, 17760, Note_on_c, 6, 63, 100
8, 17764, Note_on_c, 6, 67, 100
8, 17768, Note_on_c, 6, 70, 100
8, 18240, Note_on_c, 6, 70, 0
8, 18240, Note_on_c, 6, 67, 0
8, 18240, Note_on_c, 6, 63, 0
8, 18720, Note_on_c, 6, 60, 100
8, 18724, Note_on_c, 6, 65, 100
8, 18728, Note_on_c, 6, 68, 100
8, 19200, Note_on_c, 6, 68, 0
8, 19200, Note_on_c, 6, 65, 0
8, 19200, Note_on_c, 6, 60, 0
8, 19200, Note_on_c, 6, 63, 100
8, 19204, Note_on_c, 6, 67, 100
8, 19208, Note_on_c, 6, 70, 100
8, 19680, Note_on_c, 6, 70, 0
8, 19680, Note_on_c, 6, 67, 0
8, 19680, Note_on_c, 6, 63, 0
8, 19680, Note_on_c, 6, 61, 100
8, 19684, Note_on_c, 6, 65, 100
8, 19688, Note_on_c, 6, 68, 100
8, 20160, Note_on_c, 6, 68, 0
8, 20160, Note_on_c, 6, 65, 0
8, 20160, Note_on_c, 6, 61, 0
8, 20160, Note_on_c, 6, 63, 100
8, 20164, Note_on_c, 6, 67, 100
8, 20168, Note_on_c, 6, 70, 100
8, 20640, Note_on_c, 6, 70, 0
8, 20640, Note_on_c, 6, 67, 0
8, 20640, Note_on_c, 6, 63, 0
8, 28200, Note_on_c, 6, 60, 100
8, 28204, Note_on_c, 6, 65, 100
8, 28208, Note_on_c, 6, 68, 100
8, 28680, Note_on_c, 6, 68, 0
8, 28680, Note_on_c, 6, 65, 0
8, 28680, Note_on_c, 6, 60, 0
8, 28680, Note_on_c, 6, 63, 100
8, 28684, Note_on_c, 6, 67, 100
8, 28688, Note_on_c, 6, 70, 100
8, 29160, Note_on_c, 6, 70, 0
8, 29160, Note_on_c, 6, 67, 0
8, 29160, Note_on_c, 6, 63, 0
8, 29640, Note_on_c, 6, 60, 100
8, 29644, Note_on_c, 6, 65, 100
8, 29648, Note_on_c, 6, 68, 100
8, 30120, Note_on_c, 6, 68, 0
8, 30120, Note_on_c, 6, 65, 0
8, 30120, Note_on_c, 6, 60, 0
8, 30120, Note_on_c, 6, 63, 100
8, 30124, Note_on_c, 6, 67, 100
8, 30128, Note_on_c, 6, 70, 100
8, 30600, Note_on_c, 6, 70, 0
8, 30600, Note_on_c, 6, 67, 0
8, 30600, Note_on_c, 6, 63, 0
8, 30600, Note_on_c, 6, 61, 100
8, 30604, Note_on_c, 6, 65, 100
8, 30608, Note_on_c, 6, 68, 100
8, 31080, Note_on_c, 6, 68, 0
8, 31080, Note_on_c, 6, 65, 0
8, 31080, Note_on_c, 6, 61, 0
8, 31080, Note_on_c, 6, 63, 100
8, 31084, Note_on_c, 6, 67, 100
8, 31088, Note_on_c, 6, 70, 100
8, 31560, Note_on_c, 6, 70, 0
8, 31560, Note_on_c, 6, 67, 0
8, 31560, Note_on_c, 6, 63, 0
8, 31560, End_track
9, 0, Start_track
9, 0, MIDI_port, 0
9, 0, Program_c, 7, 72
9, 0, Control_c, 7, 7, 60
9, 0, Control_c, 7, 10, 127
9, 0, Control_c, 7, 1, 0
9, 20, Control_c, 7, 11, 64
9, 120, Control_c, 7, 65, 0
9, 120, Control_c, 7, 67, 0
9, 120, Control_c, 7, 93, 0
9, 120, Control_c, 7, 91, 64
9, 120, Control_c, 7, 64, 0
9, 120, Pitch_bend_c, 7, 8192
9, 120, Control_c, 7, 68, 0
9, 15480, Note_on_c, 7, 82, 100
9, 15510, Note_on_c, 7, 82, 0
9, 15510, Note_on_c, 7, 84, 100
9, 15540, Note_on_c, 7, 84, 0
9, 15540, Note_on_c, 7, 85, 100
9, 16320, Note_on_c, 7, 85, 0
9, 26400, Note_on_c, 7, 77, 100
9, 26400, Note_on_c, 7, 82, 100
9, 26430, Note_on_c, 7, 82, 0
9, 26430, Note_on_c, 7, 77, 0
9, 26430, Note_on_c, 7, 80, 100
9, 26430, Note_on_c, 7, 84, 100
9, 26460, Note_on_c, 7, 84, 0
9, 26460, Note_on_c, 7, 80, 0
9, 26460, Note_on_c, 7, 82, 100
9, 26460, Note_on_c, 7, 85, 100
9, 26490, Note_on_c, 7, 85, 0
9, 26490, Note_on_c, 7, 82, 0
9, 26490, Note_on_c, 7, 84, 100
9, 26490, Note_on_c, 7, 87, 100
9, 26520, Note_on_c, 7, 87, 0
9, 26520, Note_on_c, 7, 84, 0
9, 26520, Note_on_c, 7, 85, 100
9, 26520, Note_on_c, 7, 89, 100
9, 27240, Note_on_c, 7, 89, 0
9, 27240, Note_on_c, 7, 85, 0
9, 27840, Note_on_c, 7, 87, 100
9, 27920, Note_on_c, 7, 87, 0
9, 29520, Note_on_c, 7, 82, 100
9, 29640, Note_on_c, 7, 82, 0
9, 29640, Note_on_c, 7, 84, 100
9, 29880, Note_on_c, 7, 84, 0
9, 29880, Note_on_c, 7, 80, 100
9, 30120, Note_on_c, 7, 80, 0
9, 30120, Note_on_c, 7, 87, 100
9, 30360, Note_on_c, 7, 87, 0
9, 30360, Note_on_c, 7, 84, 100
9, 30600, Note_on_c, 7, 84, 0
9, 30600, Note_on_c, 7, 84, 100
9, 30840, Note_on_c, 7, 84, 0
9, 30840, Note_on_c, 7, 80, 100
9, 31080, Note_on_c, 7, 80, 0
9, 31080, Note_on_c, 7, 79, 100
9, 31320, Note_on_c, 7, 79, 0
9, 31320, Note_on_c, 7, 75, 100
9, 31560, Note_on_c, 7, 75, 0
9, 35700, Note_on_c, 7, 73, 100
9, 35760, Note_on_c, 7, 73, 0
9, 35760, Note_on_c, 7, 75, 100
9, 35820, Note_on_c, 7, 75, 0
9, 35820, Note_on_c, 7, 75, 100
9, 35880, Note_on_c, 7, 75, 0
9, 35880, Note_on_c, 7, 77, 100
9, 35940, Note_on_c, 7, 77, 0
9, 35940, Note_on_c, 7, 77, 100
9, 36000, Note_on_c, 7, 77, 0
9, 36000, Note_on_c, 7, 79, 100
9, 36060, Note_on_c, 7, 79, 0
9, 36060, Note_on_c, 7, 80, 100
9, 36160, Note_on_c, 7, 80, 0
9, 36180, Note_on_c, 7, 70, 100
9, 36270, Note_on_c, 7, 70, 0
9, 36300, Note_on_c, 7, 67, 100
9, 36360, Note_on_c, 7, 67, 0
9, 36360, Note_on_c, 7, 70, 100
9, 36420, Note_on_c, 7, 70, 0
9, 36420, Note_on_c, 7, 75, 100
9, 36510, Note_on_c, 7, 75, 0
9, 36540, Note_on_c, 7, 70, 100
9, 36600, Note_on_c, 7, 70, 0
9, 36600, Note_on_c, 7, 75, 100
9, 36660, Note_on_c, 7, 75, 0
9, 36660, Note_on_c, 7, 79, 100
9, 36750, Note_on_c, 7, 79, 0
9, 36780, Note_on_c, 7, 75, 100
9, 36840, Note_on_c, 7, 75, 0
9, 36840, Note_on_c, 7, 70, 100
9, 36900, Note_on_c, 7, 70, 0
9, 36900, Note_on_c, 7, 80, 100
9, 36990, Note_on_c, 7, 80, 0
9, 37020, Note_on_c, 7, 77, 100
9, 37080, Note_on_c, 7, 77, 0
9, 37080, Note_on_c, 7, 73, 100
9, 37170, Note_on_c, 7, 73, 0
9, 37620, Note_on_c, 7, 73, 86
9, 37680, Note_on_c, 7, 73, 0
9, 37680, Note_on_c, 7, 75, 84
9, 37740, Note_on_c, 7, 75, 0
9, 37740, Note_on_c, 7, 75, 82
9, 37800, Note_on_c, 7, 75, 0
9, 37800, Note_on_c, 7, 77, 80
9, 37860, Note_on_c, 7, 77, 0
9, 37860, Note_on_c, 7, 77, 78
9, 37920, Note_on_c, 7, 77, 0
9, 37920, Note_on_c, 7, 79, 75
9, 37980, Note_on_c, 7, 79, 0
9, 37980, Note_on_c, 7, 80, 73
9, 38080, Note_on_c, 7, 80, 0
9, 38100, Note_on_c, 7, 70, 69
9, 38190, Note_on_c, 7, 70, 0
9, 38220, Note_on_c, 7, 67, 65
9, 38280, Note_on_c, 7, 67, 0
9, 38280, Note_on_c, 7, 70, 63
9, 38340, Note_on_c, 7, 70, 0
9, 38340, Note_on_c, 7, 75, 61
9, 38430, Note_on_c, 7, 75, 0
9, 38460, Note_on_c, 7, 70, 57
9, 38520, Note_on_c, 7, 70, 0
9, 38520, Note_on_c, 7, 75, 55
9, 38580, Note_on_c, 7, 75, 0
9, 38580, Note_on_c, 7, 79, 53
9, 38670, Note_on_c, 7, 79, 0
9, 38700, Note_on_c, 7, 75, 48
9, 38760, Note_on_c, 7, 75, 0
9, 38760, Note_on_c, 7, 70, 46
9, 38820, Note_on_c, 7, 70, 0
9, 38820, Note_on_c, 7, 80, 44
9, 38910, Note_on_c, 7, 80, 0
9, 38940, Note_on_c, 7, 77, 40
9, 39000, Note_on_c, 7, 77, 0
9, 39000, Note_on_c, 7, 73, 38
9, 39090, Note_on_c, 7, 73, 0
9, 39540, Note_on_c, 7, 73, 19
9, 39600, Note_on_c, 7, 73, 0
9, 39600, Note_on_c, 7, 75, 17
9, 39660, Note_on_c, 7, 75, 0
9, 39660, Note_on_c, 7, 75, 15
9, 39720, Note_on_c, 7, 75, 0
9, 39720, Note_on_c, 7, 77, 13
9, 39780, Note_on_c, 7, 77, 0
9, 39780, Note_on_c, 7, 77, 11
9, 39840, Note_on_c, 7, 77, 0
9, 39840, Note_on_c, 7, 79, 9
9, 39900, Note_on_c, 7, 79, 0
9, 39900, Note_on_c, 7, 80, 7
9, 40000, Note_on_c, 7, 80, 0
9, 40020, Note_on_c, 7, 70, 3
9, 40110, Note_on_c, 7, 70, 0
9, 40110, End_track
10, 0, Start_track
10, 0, MIDI_port, 0
10, 0, Program_c, 8, 66
10, 0, Control_c, 8, 7, 125
10, 0, Control_c, 8, 10, 64
10, 0, Control_c, 8, 1, 0
10, 20, Control_c, 8, 11, 64
10, 120, Control_c, 8, 65, 0
10, 120, Control_c, 8, 67, 0
10, 120, Control_c, 8, 93, 0
10, 120, Control_c, 8, 91, 64
10, 120, Control_c, 8, 64, 0
10, 120, Pitch_bend_c, 8, 8192
10, 120, Control_c, 8, 68, 0
10, 2400, Note_on_c, 8, 63, 125
10, 2570, Note_on_c, 8, 63, 0
10, 2580, Note_on_c, 8, 60, 125
10, 2700, Note_on_c, 8, 60, 0
10, 2820, Note_on_c, 8, 61, 125
10, 2880, Note_on_c, 8, 61, 0
10, 2880, Note_on_c, 8, 63, 125
10, 2940, Note_on_c, 8, 63, 0
10, 2940, Note_on_c, 8, 63, 125
10, 3000, Note_on_c, 8, 63, 0
10, 3000, Note_on_c, 8, 65, 125
10, 3060, Note_on_c, 8, 65, 0
10, 3060, Note_on_c, 8, 65, 125
10, 3120, Note_on_c, 8, 65, 0
10, 3120, Note_on_c, 8, 67, 125
10, 3180, Note_on_c, 8, 67, 0
10, 3180, Note_on_c, 8, 68, 125
10, 3280, Note_on_c, 8, 68, 0
10, 3300, Note_on_c, 8, 58, 125
10, 3390, Note_on_c, 8, 58, 0
10, 3540, Note_on_c, 8, 63, 125
10, 3630, Note_on_c, 8, 63, 0
10, 3780, Note_on_c, 8, 67, 125
10, 3840, Pitch_bend_c, 8, 4192
10, 3860, Pitch_bend_c, 8, 8192
10, 4140, Note_on_c, 8, 67, 0
10, 4200, Note_on_c, 8, 67, 125
10, 4255, Note_on_c, 8, 67, 0
10, 4260, Note_on_c, 8, 68, 125
10, 4380, Note_on_c, 8, 68, 0
10, 4380, Note_on_c, 8, 68, 125
10, 4435, Note_on_c, 8, 68, 0
10, 4440, Note_on_c, 8, 67, 125
10, 4495, Note_on_c, 8, 67, 0
10, 4500, Note_on_c, 8, 67, 125
10, 4555, Note_on_c, 8, 67, 0
10, 4560, Note_on_c, 8, 65, 125
10, 4650, Note_on_c, 8, 65, 0
10, 4680, Note_on_c, 8, 65, 125
10, 4730, Note_on_c, 8, 65, 0
10, 4730, Note_on_c, 8, 63, 125
10, 4780, Note_on_c, 8, 63, 0
10, 4780, Note_on_c, 8, 63, 125
10, 4830, Note_on_c, 8, 63, 0
10, 4860, Note_on_c, 8, 65, 125
10, 4980, Note_on_c, 8, 65, 0
10, 4980, Note_on_c, 8, 67, 125
10, 5040, Note_on_c, 8, 67, 0
10, 5040, Note_on_c, 8, 65, 125
10, 5100, Note_on_c, 8, 65, 0
10, 5100, Note_on_c, 8, 63, 125
10, 5190, Note_on_c, 8, 63, 0
10, 5220, Note_on_c, 8, 65, 125
10, 5340, Note_on_c, 8, 65, 0
10, 5340, Note_on_c, 8, 65, 125
10, 5400, Note_on_c, 8, 65, 0
10, 5400, Note_on_c, 8, 63, 125
10, 5460, Note_on_c, 8, 63, 0
10, 5460, Note_on_c, 8, 63, 125
10, 5520, Note_on_c, 8, 63, 0
10, 5520, Note_on_c, 8, 61, 125
10, 5580, Note_on_c, 8, 61, 0
10, 5580, Note_on_c, 8, 61, 125
10, 5640, Note_on_c, 8, 61, 0
10, 5640, Note_on_c, 8, 60, 125
10, 5700, Note_on_c, 8, 60, 0
10, 5700, Note_on_c, 8, 60, 125
10, 5800, Note_on_c, 8, 60, 0
10, 5820, Note_on_c, 8, 61, 125
10, 5920, Note_on_c, 8, 61, 0
10, 5940, Note_on_c, 8, 60, 125
10, 6060, Note_on_c, 8, 60, 0
10, 6060, Note_on_c, 8, 60, 125
10, 6120, Note_on_c, 8, 60, 0
10, 6120, Note_on_c, 8, 58, 125
10, 6240, Note_on_c, 8, 58, 0
10, 6720, Note_on_c, 8, 63, 125
10, 6890, Note_on_c, 8, 63, 0
10, 6900, Note_on_c, 8, 60, 125
10, 7020, Note_on_c, 8, 60, 0
10, 7140, Note_on_c, 8, 61, 125
10, 7200, Note_on_c, 8, 61, 0
10, 7200, Note_on_c, 8, 63, 125
10, 7260, Note_on_c, 8, 63, 0
10, 7260, Note_on_c, 8, 63, 125
10, 7320, Note_on_c, 8, 63, 0
10, 7320, Note_on_c, 8, 65, 125
10, 7380, Note_on_c, 8, 65, 0
10, 7380, Note_on_c, 8, 65, 125
10, 7440, Note_on_c, 8, 65, 0
10, 7440, Note_on_c, 8, 67, 125
10, 7500, Note_on_c, 8, 67, 0
10, 7500, Note_on_c, 8, 68, 125
10, 7600, Note_on_c, 8, 68, 0
10, 7620, Note_on_c, 8, 58, 125
10, 7710, Note_on_c, 8, 58, 0
10, 7860, Note_on_c, 8, 63, 125
10, 7950, Note_on_c, 8, 63, 0
10, 8100, Note_on_c, 8, 67, 125
10, 8160, Pitch_bend_c, 8, 4192
10, 8180, Pitch_bend_c, 8, 8192
10, 8460, Note_on_c, 8, 67, 0
10, 8520, Note_on_c, 8, 67, 125
10, 8575, Note_on_c, 8, 67, 0
10, 8580, Note_on_c, 8, 68, 125
10, 8700, Note_on_c, 8, 68, 0
10, 8700, Note_on_c, 8, 68, 125
10, 8755, Note_on_c, 8, 68, 0
10, 8760, Note_on_c, 8, 67, 125
10, 8815, Note_on_c, 8, 67, 0
10, 8820, Note_on_c, 8, 67, 125
10, 8875, Note_on_c, 8, 67, 0
10, 8880, Note_on_c, 8, 65, 125
10, 8970, Note_on_c, 8, 65, 0
10, 9000, Note_on_c, 8, 65, 125
10, 9050, Note_on_c, 8, 65, 0
10, 9050, Note_on_c, 8, 63, 125
10, 9100, Note_on_c, 8, 63, 0
10, 9100, Note_on_c, 8, 63, 125
10, 9150, Note_on_c, 8, 63, 0
10, 9180, Note_on_c, 8, 65, 125
10, 9300, Note_on_c, 8, 65, 0
10, 9300, Note_on_c, 8, 67, 125
10, 9360, Note_on_c, 8, 67, 0
10, 9360, Note_on_c, 8, 65, 125
10, 9420, Note_on_c, 8, 65, 0
10, 9420, Note_on_c, 8, 63, 125
10, 9510, Note_on_c, 8, 63, 0
10, 9540, Note_on_c, 8, 65, 125
10, 9660, Note_on_c, 8, 65, 0
10, 9660, Note_on_c, 8, 65, 125
10, 9720, Note_on_c, 8, 65, 0
10, 9720, Note_on_c, 8, 63, 125
10, 9780, Note_on_c, 8, 63, 0
10, 9780, Note_on_c, 8, 63, 125
10, 9840, Note_on_c, 8, 63, 0
10, 9840, Note_on_c, 8, 61, 125
10, 9900, Note_on_c, 8, 61, 0
10, 9900, Note_on_c, 8, 61, 125
10, 9960, Note_on_c, 8, 61, 0
10, 9960, Note_on_c, 8, 60, 125
10, 10020, Note_on_c, 8, 60, 0
10, 10020, Note_on_c, 8, 60, 125
10, 10120, Note_on_c, 8, 60, 0
10, 10140, Note_on_c, 8, 63, 125
10, 10240, Note_on_c, 8, 63, 0
10, 10260, Note_on_c, 8, 60, 125
10, 10290, Pitch_bend_c, 8, 1
10, 10320, Pitch_bend_c, 8, 8192
10, 10320, Note_on_c, 8, 60, 125
10, 10380, Note_on_c, 8, 60, 0
10, 10380, Note_on_c, 8, 60, 0
10, 10380, Note_on_c, 8, 58, 125
10, 10500, Note_on_c, 8, 58, 0
10, 10500, Note_on_c, 8, 60, 125
10, 10560, Note_on_c, 8, 60, 0
10, 10560, Note_on_c, 8, 56, 125
10, 10735, Note_on_c, 8, 56, 0
10, 10740, Note_on_c, 8, 68, 125
10, 10915, Note_on_c, 8, 68, 0
10, 10980, Note_on_c, 8, 68, 125
10, 11035, Note_on_c, 8, 68, 0
10, 11040, Note_on_c, 8, 67, 125
10, 11095, Note_on_c, 8, 67, 0
10, 11100, Note_on_c, 8, 68, 125
10, 11155, Note_on_c, 8, 68, 0
10, 11160, Note_on_c, 8, 68, 125
10, 11215, Note_on_c, 8, 68, 0
10, 11220, Note_on_c, 8, 68, 125
10, 11275, Note_on_c, 8, 68, 0
10, 11280, Note_on_c, 8, 65, 125
10, 11340, Pitch_bend_c, 8, 16383
10, 11400, Pitch_bend_c, 8, 1
10, 11460, Note_on_c, 8, 65, 0
10, 11460, Pitch_bend_c, 8, 8192
10, 11460, Note_on_c, 8, 68, 125
10, 11820, Note_on_c, 8, 68, 0
10, 12120, Note_on_c, 8, 68, 125
10, 12240, Note_on_c, 8, 68, 0
10, 12240, Note_on_c, 8, 67, 125
10, 12295, Note_on_c, 8, 67, 0
10, 12300, Note_on_c, 8, 65, 125
10, 12355, Note_on_c, 8, 65, 0
10, 12360, Note_on_c, 8, 63, 125
10, 12415, Note_on_c, 8, 63, 0
10, 12420, Note_on_c, 8, 61, 125
10, 12475, Note_on_c, 8, 61, 0
10, 12480, Note_on_c, 8, 63, 125
10, 12630, Note_on_c, 8, 63, 0
10, 12780, Note_on_c, 8, 60, 125
10, 12840, Note_on_c, 8, 60, 0
10, 12840, Note_on_c, 8, 61, 125
10, 12900, Note_on_c, 8, 61, 0
10, 12900, Note_on_c, 8, 63, 125
10, 12960, Note_on_c, 8, 63, 0
10, 12960, Note_on_c, 8, 56, 125
10, 13050, Note_on_c, 8, 56, 0
10, 13140, Note_on_c, 8, 68, 125
10, 13230, Note_on_c, 8, 68, 0
10, 13260, Note_on_c, 8, 67, 125
10, 13350, Note_on_c, 8, 67, 0
10, 13350, Note_on_c, 8, 65, 125
10, 13440, Note_on_c, 8, 65, 0
10, 13440, Note_on_c, 8, 63, 125
10, 13470, Note_on_c, 8, 63, 0
10, 13470, Note_on_c, 8, 61, 125
10, 13500, Note_on_c, 8, 61, 0
10, 13500, Note_on_c, 8, 63, 125
10, 13620, Note_on_c, 8, 63, 0
10, 13620, Note_on_c, 8, 56, 125
10, 13675, Note_on_c, 8, 56, 0
10, 13680, Note_on_c, 8, 56, 125
10, 13740, Note_on_c, 8, 56, 0
10, 13740, Note_on_c, 8, 58, 125
10, 13800, Note_on_c, 8, 58, 0
10, 13800, Note_on_c, 8, 56, 125
10, 13860, Note_on_c, 8, 56, 0
10, 13860, Note_on_c, 8, 60, 125
10, 13890, Pitch_bend_c, 8, 1
10, 13920, Pitch_bend_c, 8, 8192
10, 14040, Note_on_c, 8, 60, 0
10, 14100, Note_on_c, 8, 68, 125
10, 14190, Note_on_c, 8, 68, 0
10, 14220, Note_on_c, 8, 67, 125
10, 14310, Note_on_c, 8, 67, 0
10, 14310, Note_on_c, 8, 65, 125
10, 14370, Note_on_c, 8, 65, 0
10, 14370, Note_on_c, 8, 63, 125
10, 14400, Note_on_c, 8, 63, 0
10, 14400, Note_on_c, 8, 61, 125
10, 14430, Note_on_c, 8, 61, 0
10, 14430, Note_on_c, 8, 63, 125
10, 14530, Note_on_c, 8, 63, 0
10, 14580, Note_on_c, 8, 67, 125
10, 14635, Note_on_c, 8, 67, 0
10, 14640, Note_on_c, 8, 67, 125
10, 14815, Note_on_c, 8, 67, 0
10, 14820, Note_on_c, 8, 63, 125
10, 14875, Note_on_c, 8, 63, 0
10, 14880, Note_on_c, 8, 63, 125
10, 14935, Note_on_c, 8, 63, 0
10, 14940, Note_on_c, 8, 65, 125
10, 14995, Note_on_c, 8, 65, 0
10, 15000, Note_on_c, 8, 65, 125
10, 15120, Note_on_c, 8, 65, 0
10, 15180, Note_on_c, 8, 65, 125
10, 15240, Note_on_c, 8, 65, 0
10, 15240, Note_on_c, 8, 67, 125
10, 15300, Note_on_c, 8, 67, 0
10, 15300, Note_on_c, 8, 68, 125
10, 15360, Note_on_c, 8, 68, 0
10, 15360, Note_on_c, 8, 70, 125
10, 15460, Note_on_c, 8, 70, 0
10, 15480, Note_on_c, 8, 70, 125
10, 15600, Note_on_c, 8, 70, 0
10, 15660, Note_on_c, 8, 68, 125
10, 15720, Note_on_c, 8, 68, 0
10, 15720, Note_on_c, 8, 72, 125
10, 15780, Note_on_c, 8, 72, 0
10, 15780, Note_on_c, 8, 70, 125
10, 16260, Note_on_c, 8, 70, 0
10, 16620, Note_on_c, 8, 65, 125
10, 16740, Note_on_c, 8, 65, 0
10, 16740, Note_on_c, 8, 60, 125
10, 16800, Note_on_c, 8, 60, 0
10, 16800, Note_on_c, 8, 63, 125
10, 16970, Note_on_c, 8, 63, 0
10, 16980, Note_on_c, 8, 60, 125
10, 17100, Note_on_c, 8, 60, 0
10, 17220, Note_on_c, 8, 61, 125
10, 17280, Note_on_c, 8, 61, 0
10, 17280, Note_on_c, 8, 63, 125
10, 17340, Note_on_c, 8, 63, 0
10, 17340, Note_on_c, 8, 63, 125
10, 17400, Note_on_c, 8, 63, 0
10, 17400, Note_on_c, 8, 65, 125
10, 17460, Note_on_c, 8, 65, 0
10, 17460, Note_on_c, 8, 65, 125
10, 17520, Note_on_c, 8, 65, 0
10, 17520, Note_on_c, 8, 67, 125
10, 17580, Note_on_c, 8, 67, 0
10, 17580, Note_on_c, 8, 68, 125
10, 17680, Note_on_c, 8, 68, 0
10, 17700, Note_on_c, 8, 58, 125
10, 17790, Note_on_c, 8, 58, 0
10, 17940, Note_on_c, 8, 63, 125
10, 18030, Note_on_c, 8, 63, 0
10, 18180, Note_on_c, 8, 67, 125
10, 18240, Pitch_bend_c, 8, 4192
10, 18260, Pitch_bend_c, 8, 8192
10, 18540, Note_on_c, 8, 67, 0
10, 18600, Note_on_c, 8, 67, 125
10, 18655, Note_on_c, 8, 67, 0
10, 18660, Note_on_c, 8, 68, 125
10, 18780, Note_on_c, 8, 68, 0
10, 18780, Note_on_c, 8, 68, 125
10, 18835, Note_on_c, 8, 68, 0
10, 18840, Note_on_c, 8, 67, 125
10, 18895, Note_on_c, 8, 67, 0
10, 18900, Note_on_c, 8, 67, 125
10, 18955, Note_on_c, 8, 67, 0
10, 18960, Note_on_c, 8, 65, 125
10, 19050, Note_on_c, 8, 65, 0
10, 19080, Note_on_c, 8, 65, 125
10, 19130, Note_on_c, 8, 65, 0
10, 19130, Note_on_c, 8, 63, 125
10, 19180, Note_on_c, 8, 63, 0
10, 19180, Note_on_c, 8, 63, 125
10, 19230, Note_on_c, 8, 63, 0
10, 19260, Note_on_c, 8, 65, 125
10, 19380, Note_on_c, 8, 65, 0
10, 19380, Note_on_c, 8, 67, 125
10, 19440, Note_on_c, 8, 67, 0
10, 19440, Note_on_c, 8, 65, 125
10, 19500, Note_on_c, 8, 65, 0
10, 19500, Note_on_c, 8, 63, 125
10, 19590, Note_on_c, 8, 63, 0
10, 19620, Note_on_c, 8, 65, 125
10, 19740, Note_on_c, 8, 65, 0
10, 19740, Note_on_c, 8, 65, 125
10, 19800, Note_on_c, 8, 65, 0
10, 19800, Note_on_c, 8, 63, 125
10, 19860, Note_on_c, 8, 63, 0
10, 19860, Note_on_c, 8, 63, 125
10, 19920, Note_on_c, 8, 63, 0
10, 19920, Note_on_c, 8, 61, 125
10, 19980, Note_on_c, 8, 61, 0
10, 19980, Note_on_c, 8, 61, 125
10, 20040, Note_on_c, 8, 61, 0
10, 20040, Note_on_c, 8, 60, 125
10, 20100, Note_on_c, 8, 60, 0
10, 20100, Note_on_c, 8, 60, 125
10, 20200, Note_on_c, 8, 60, 0
10, 20220, Note_on_c, 8, 63, 125
10, 20320, Note_on_c, 8, 63, 0
10, 20340, Note_on_c, 8, 60, 125
10, 20370, Pitch_bend_c, 8, 1
10, 20400, Pitch_bend_c, 8, 8192
10, 20400, Note_on_c, 8, 60, 125
10, 20460, Note_on_c, 8, 60, 0
10, 20460, Note_on_c, 8, 60, 0
10, 20460, Note_on_c, 8, 58, 125
10, 20580, Note_on_c, 8, 58, 0
10, 20580, Note_on_c, 8, 60, 125
10, 20640, Note_on_c, 8, 60, 0
10, 20640, Note_on_c, 8, 56, 125
10, 20815, Note_on_c, 8, 56, 0
10, 20820, Note_on_c, 8, 68, 125
10, 20995, Note_on_c, 8, 68, 0
10, 21060, Note_on_c, 8, 68, 125
10, 21115, Note_on_c, 8, 68, 0
10, 21120, Note_on_c, 8, 67, 125
10, 21175, Note_on_c, 8, 67, 0
10, 21180, Note_on_c, 8, 68, 125
10, 21235, Note_on_c, 8, 68, 0
10, 21240, Note_on_c, 8, 68, 125
10, 21295, Note_on_c, 8, 68, 0
10, 21300, Note_on_c, 8, 68, 125
10, 21355, Note_on_c, 8, 68, 0
10, 21360, Note_on_c, 8, 68, 125
10, 21460, Note_on_c, 8, 68, 0
10, 21480, Note_on_c, 8, 67, 125
10, 21535, Note_on_c, 8, 67, 0
10, 21540, Note_on_c, 8, 68, 125
10, 21595, Note_on_c, 8, 68, 0
10, 21600, Note_on_c, 8, 68, 125
10, 21655, Note_on_c, 8, 68, 0
10, 21660, Note_on_c, 8, 68, 125
10, 21715, Note_on_c, 8, 68, 0
10, 21720, Note_on_c, 8, 68, 125
10, 21840, Note_on_c, 8, 68, 0
10, 21840, Note_on_c, 8, 67, 125
10, 21895, Note_on_c, 8, 67, 0
10, 21900, Note_on_c, 8, 68, 125
10, 21955, Note_on_c, 8, 68, 0
10, 21960, Note_on_c, 8, 67, 125
10, 22015, Note_on_c, 8, 67, 0
10, 22020, Note_on_c, 8, 68, 125
10, 22075, Note_on_c, 8, 68, 0
10, 22080, Note_on_c, 8, 68, 125
10, 22135, Note_on_c, 8, 68, 0
10, 22140, Note_on_c, 8, 68, 125
10, 22195, Note_on_c, 8, 68, 0
10, 22200, Note_on_c, 8, 65, 125
10, 22260, Pitch_bend_c, 8, 16383
10, 22320, Pitch_bend_c, 8, 1
10, 22380, Note_on_c, 8, 65, 0
10, 22380, Pitch_bend_c, 8, 8192
10, 22380, Note_on_c, 8, 68, 125
10, 22740, Note_on_c, 8, 68, 0
10, 25020, Note_on_c, 8, 68, 125
10, 25110, Note_on_c, 8, 68, 0
10, 25140, Note_on_c, 8, 67, 125
10, 25230, Note_on_c, 8, 67, 0
10, 25230, Note_on_c, 8, 65, 125
10, 25290, Note_on_c, 8, 65, 0
10, 25290, Note_on_c, 8, 63, 125
10, 25320, Note_on_c, 8, 63, 0
10, 25320, Note_on_c, 8, 61, 125
10, 25350, Note_on_c, 8, 61, 0
10, 25350, Note_on_c, 8, 63, 125
10, 25450, Note_on_c, 8, 63, 0
10, 25500, Note_on_c, 8, 67, 125
10, 25555, Note_on_c, 8, 67, 0
10, 25560, Note_on_c, 8, 67, 125
10, 25735, Note_on_c, 8, 67, 0
10, 25740, Note_on_c, 8, 63, 125
10, 25795, Note_on_c, 8, 63, 0
10, 25800, Note_on_c, 8, 63, 125
10, 25855, Note_on_c, 8, 63, 0
10, 25860, Note_on_c, 8, 65, 125
10, 25915, Note_on_c, 8, 65, 0
10, 25920, Note_on_c, 8, 65, 125
10, 26040, Note_on_c, 8, 65, 0
10, 26100, Note_on_c, 8, 65, 125
10, 26160, Note_on_c, 8, 65, 0
10, 26160, Note_on_c, 8, 67, 125
10, 26220, Note_on_c, 8, 67, 0
10, 26220, Note_on_c, 8, 68, 125
10, 26280, Note_on_c, 8, 68, 0
10, 26280, Note_on_c, 8, 70, 125
10, 26380, Note_on_c, 8, 70, 0
10, 26400, Note_on_c, 8, 70, 125
10, 26520, Note_on_c, 8, 70, 0
10, 26580, Note_on_c, 8, 68, 125
10, 26640, Note_on_c, 8, 68, 0
10, 26640, Note_on_c, 8, 72, 125
10, 26700, Note_on_c, 8, 72, 0
10, 26700, Note_on_c, 8, 70, 125
10, 27180, Note_on_c, 8, 70, 0
10, 27540, Note_on_c, 8, 65, 125
10, 27660, Note_on_c, 8, 65, 0
10, 27660, Note_on_c, 8, 60, 125
10, 27720, Note_on_c, 8, 60, 0
10, 27720, Note_on_c, 8, 63, 125
10, 27890, Note_on_c, 8, 63, 0
10, 27900, Note_on_c, 8, 60, 125
10, 28020, Note_on_c, 8, 60, 0
10, 28140, Note_on_c, 8, 61, 125
10, 28200, Note_on_c, 8, 61, 0
10, 28200, Note_on_c, 8, 63, 125
10, 28260, Note_on_c, 8, 63, 0
10, 28260, Note_on_c, 8, 63, 125
10, 28320, Note_on_c, 8, 63, 0
10, 28320, Note_on_c, 8, 65, 125
10, 28380, Note_on_c, 8, 65, 0
10, 28380, Note_on_c, 8, 65, 125
10, 28440, Note_on_c, 8, 65, 0
10, 28440, Note_on_c, 8, 67, 125
10, 28500, Note_on_c, 8, 67, 0
10, 28500, Note_on_c, 8, 68, 125
10, 28600, Note_on_c, 8, 68, 0
10, 28620, Note_on_c, 8, 58, 125
10, 28710, Note_on_c, 8, 58, 0
10, 28860, Note_on_c, 8, 63, 125
10, 28950, Note_on_c, 8, 63, 0
10, 29100, Note_on_c, 8, 67, 125
10, 29160, Pitch_bend_c, 8, 4192
10, 29180, Pitch_bend_c, 8, 8192
10, 29460, Note_on_c, 8, 67, 0
10, 29520, Note_on_c, 8, 67, 125
10, 29575, Note_on_c, 8, 67, 0
10, 29580, Note_on_c, 8, 68, 125
10, 29700, Note_on_c, 8, 68, 0
10, 29700, Note_on_c, 8, 68, 125
10, 29755, Note_on_c, 8, 68, 0
10, 29760, Note_on_c, 8, 67, 125
10, 29815, Note_on_c, 8, 67, 0
10, 29820, Note_on_c, 8, 67, 125
10, 29875, Note_on_c, 8, 67, 0
10, 29880, Note_on_c, 8, 65, 125
10, 29970, Note_on_c, 8, 65, 0
10, 30000, Note_on_c, 8, 65, 125
10, 30050, Note_on_c, 8, 65, 0
10, 30050, Note_on_c, 8, 63, 125
10, 30100, Note_on_c, 8, 63, 0
10, 30100, Note_on_c, 8, 63, 125
10, 30150, Note_on_c, 8, 63, 0
10, 30180, Note_on_c, 8, 65, 125
10, 30300, Note_on_c, 8, 65, 0
10, 30300, Note_on_c, 8, 67, 125
10, 30360, Note_on_c, 8, 67, 0
10, 30360, Note_on_c, 8, 65, 125
10, 30420, Note_on_c, 8, 65, 0
10, 30420, Note_on_c, 8, 63, 125
10, 30510, Note_on_c, 8, 63, 0
10, 30540, Note_on_c, 8, 65, 125
10, 30660, Note_on_c, 8, 65, 0
10, 30660, Note_on_c, 8, 65, 125
10, 30720, Note_on_c, 8, 65, 0
10, 30720, Note_on_c, 8, 63, 125
10, 30780, Note_on_c, 8, 63, 0
10, 30780, Note_on_c, 8, 63, 125
10, 30840, Note_on_c, 8, 63, 0
10, 30840, Note_on_c, 8, 61, 125
10, 30900, Note_on_c, 8, 61, 0
10, 30900, Note_on_c, 8, 61, 125
10, 30960, Note_on_c, 8, 61, 0
10, 30960, Note_on_c, 8, 60, 125
10, 31020, Note_on_c, 8, 60, 0
10, 31020, Note_on_c, 8, 60, 125
10, 31120, Note_on_c, 8, 60, 0
10, 31140, Note_on_c, 8, 63, 125
10, 31240, Note_on_c, 8, 63, 0
10, 31260, Note_on_c, 8, 60, 125
10, 31290, Pitch_bend_c, 8, 1
10, 31320, Pitch_bend_c, 8, 8192
10, 31320, Note_on_c, 8, 60, 125
10, 31380, Note_on_c, 8, 60, 0
10, 31380, Note_on_c, 8, 60, 0
10, 31380, Note_on_c, 8, 58, 125
10, 31500, Note_on_c, 8, 58, 0
10, 31500, Note_on_c, 8, 60, 125
10, 31560, Note_on_c, 8, 60, 0
10, 31560, Note_on_c, 8, 56, 125
10, 31735, Note_on_c, 8, 56, 0
10, 31740, Note_on_c, 8, 68, 125
10, 31915, Note_on_c, 8, 68, 0
10, 31980, Note_on_c, 8, 68, 125
10, 32035, Note_on_c, 8, 68, 0
10, 32040, Note_on_c, 8, 67, 125
10, 32095, Note_on_c, 8, 67, 0
10, 32100, Note_on_c, 8, 68, 125
10, 32155, Note_on_c, 8, 68, 0
10, 32160, Note_on_c, 8, 68, 125
10, 32215, Note_on_c, 8, 68, 0
10, 32220, Note_on_c, 8, 68, 125
10, 32275, Note_on_c, 8, 68, 0
10, 32280, Note_on_c, 8, 68, 125
10, 32380, Note_on_c, 8, 68, 0
10, 32400, Note_on_c, 8, 67, 125
10, 32455, Note_on_c, 8, 67, 0
10, 32460, Note_on_c, 8, 68, 125
10, 32515, Note_on_c, 8, 68, 0
10, 32520, Note_on_c, 8, 68, 125
10, 32575, Note_on_c, 8, 68, 0
10, 32580, Note_on_c, 8, 68, 125
10, 32635, Note_on_c, 8, 68, 0
10, 32640, Note_on_c, 8, 68, 125
10, 32760, Note_on_c, 8, 68, 0
10, 32760, Note_on_c, 8, 67, 125
10, 32815, Note_on_c, 8, 67, 0
10, 32820, Note_on_c, 8, 68, 125
10, 32875, Note_on_c, 8, 68, 0
10, 32880, Note_on_c, 8, 67, 125
10, 32935, Note_on_c, 8, 67, 0
10, 32940, Note_on_c, 8, 68, 125
10, 32995, Note_on_c, 8, 68, 0
10, 33000, Note_on_c, 8, 68, 125
10, 33055, Note_on_c, 8, 68, 0
10, 33060, Note_on_c, 8, 68, 125
10, 33115, Note_on_c, 8, 68, 0
10, 33120, Note_on_c, 8, 65, 125
10, 33180, Pitch_bend_c, 8, 16383
10, 33240, Pitch_bend_c, 8, 1
10, 33300, Note_on_c, 8, 65, 0
10, 33300, Pitch_bend_c, 8, 8192
10, 33300, Note_on_c, 8, 68, 125
10, 33540, Note_on_c, 8, 68, 0
10, 33660, Note_on_c, 8, 68, 125
10, 33780, Note_on_c, 8, 68, 0
10, 33780, Note_on_c, 8, 68, 125
10, 33840, Note_on_c, 8, 68, 0
10, 33840, Note_on_c, 8, 67, 125
10, 33900, Note_on_c, 8, 67, 0
10, 33900, Note_on_c, 8, 65, 125
10, 34140, Note_on_c, 8, 65, 0
10, 34260, Note_on_c, 8, 58, 125
10, 34350, Note_on_c, 8, 58, 0
10, 34500, Note_on_c, 8, 63, 125
10, 34590, Note_on_c, 8, 63, 0
10, 34740, Note_on_c, 8, 67, 125
10, 34800, Pitch_bend_c, 8, 4192
10, 34820, Pitch_bend_c, 8, 8192
10, 35100, Note_on_c, 8, 67, 0
10, 35280, Note_on_c, 8, 63, 125
10, 35450, Note_on_c, 8, 63, 0
10, 35460, Note_on_c, 8, 60, 125
10, 35580, Note_on_c, 8, 60, 0
10, 35700, Note_on_c, 8, 61, 125
10, 35760, Note_on_c, 8, 61, 0
10, 35760, Note_on_c, 8, 63, 125
10, 35820, Note_on_c, 8, 63, 0
10, 35820, Note_on_c, 8, 63, 125
10, 35880, Note_on_c, 8, 63, 0
10, 35880, Note_on_c, 8, 65, 125
10, 35940, Note_on_c, 8, 65, 0
10, 35940, Note_on_c, 8, 65, 125
10, 36000, Note_on_c, 8, 65, 0
10, 36000, Note_on_c, 8, 67, 125
10, 36060, Note_on_c, 8, 67, 0
10, 36060, Note_on_c, 8, 68, 125
10, 36160, Note_on_c, 8, 68, 0
10, 36180, Note_on_c, 8, 58, 125
10, 36270, Note_on_c, 8, 58, 0
10, 36420, Note_on_c, 8, 63, 125
10, 36510, Note_on_c, 8, 63, 0
10, 36660, Note_on_c, 8, 67, 125
10, 36720, Pitch_bend_c, 8, 4192
10, 36740, Pitch_bend_c, 8, 8192
10, 37020, Note_on_c, 8, 67, 0
10, 37080, Note_on_c, 8, 65, 125
10, 37135, Note_on_c, 8, 65, 0
10, 37140, Note_on_c, 8, 60, 125
10, 37200, Note_on_c, 8, 63, 125
10, 37260, Note_on_c, 8, 60, 0
10, 37370, Note_on_c, 8, 63, 0
10, 37380, Note_on_c, 8, 60, 117
10, 37500, Note_on_c, 8, 60, 0
10, 37620, Note_on_c, 8, 61, 107
10, 37680, Note_on_c, 8, 61, 0
10, 37680, Note_on_c, 8, 63, 105
10, 37740, Note_on_c, 8, 63, 0
10, 37740, Note_on_c, 8, 63, 102
10, 37800, Note_on_c, 8, 63, 0
10, 37800, Note_on_c, 8, 65, 100
10, 37860, Note_on_c, 8, 65, 0
10, 37860, Note_on_c, 8, 65, 97
10, 37920, Note_on_c, 8, 65, 0
10, 37920, Note_on_c, 8, 67, 93
10, 37980, Note_on_c, 8, 67, 0
10, 37980, Note_on_c, 8, 68, 91
10, 38080, Note_on_c, 8, 68, 0
10, 38100, Note_on_c, 8, 58, 86
10, 38190, Note_on_c, 8, 58, 0
10, 38340, Note_on_c, 8, 63, 76
10, 38430, Note_on_c, 8, 63, 0
10, 38580, Note_on_c, 8, 67, 66
10, 38640, Pitch_bend_c, 8, 4192
10, 38660, Pitch_bend_c, 8, 8192
10, 38940, Note_on_c, 8, 67, 0
10, 39000, Note_on_c, 8, 65, 47
10, 39055, Note_on_c, 8, 65, 0
10, 39060, Note_on_c, 8, 60, 45
10, 39120, Note_on_c, 8, 63, 42
10, 39180, Note_on_c, 8, 60, 0
10, 39290, Note_on_c, 8, 63, 0
10, 39300, Note_on_c, 8, 60, 35
10, 39420, Note_on_c, 8, 60, 0
10, 39540, Note_on_c, 8, 61, 23
10, 39600, Note_on_c, 8, 61, 0
10, 39600, Note_on_c, 8, 63, 21
10, 39660, Note_on_c, 8, 63, 0
10, 39660, Note_on_c, 8, 63, 18
10, 39720, Note_on_c, 8, 63, 0
10, 39720, Note_on_c, 8, 65, 16
10, 39780, Note_on_c, 8, 65, 0
10, 39780, Note_on_c, 8, 65, 13
10, 39840, Note_on_c, 8, 65, 0
10, 39840, Note_on_c, 8, 67, 11
10, 39900, Note_on_c, 8, 67, 0
10, 39900, Note_on_c, 8, 68, 8
10, 40000, Note_on_c, 8, 68, 0
10, 40020, Note_on_c, 8, 58, 3
10, 40110, Note_on_c, 8, 58, 0
10, 40110, End_track
11, 0, Start_track
11, 0, MIDI_port, 0
11, 0, Control_c, 9, 7, 125
11, 0, Control_c, 9, 10, 64
11, 0, Control_c, 9, 1, 0
11, 20, Control_c, 9, 11, 64
11, 120, Control_c, 9, 65, 0
11, 120, Control_c, 9, 67, 0
11, 120, Control_c, 9, 93, 0
11, 120, Control_c, 9, 91, 64
11, 120, Control_c, 9, 64, 0
11, 120, Pitch_bend_c, 9, 8192
11, 120, Control_c, 9, 68, 0
11, 2400, Note_on_c, 9, 36, 125
11, 2520, Note_on_c, 9, 36, 0
11, 2580, Note_on_c, 9, 36, 125
11, 2640, Note_on_c, 9, 36, 125
11, 2700, Note_on_c, 9, 36, 0
11, 2760, Note_on_c, 9, 36, 0
11, 2880, Note_on_c, 9, 36, 125
11, 3000, Note_on_c, 9, 36, 0
11, 3060, Note_on_c, 9, 36, 125
11, 3120, Note_on_c, 9, 36, 125
11, 3180, Note_on_c, 9, 36, 0
11, 3240, Note_on_c, 9, 36, 0
11, 3360, Note_on_c, 9, 36, 125
11, 3480, Note_on_c, 9, 36, 0
11, 3540, Note_on_c, 9, 36, 125
11, 3600, Note_on_c, 9, 36, 125
11, 3660, Note_on_c, 9, 36, 0
11, 3720, Note_on_c, 9, 36, 0
11, 3840, Note_on_c, 9, 36, 125
11, 3960, Note_on_c, 9, 36, 0
11, 4020, Note_on_c, 9, 36, 125
11, 4080, Note_on_c, 9, 36, 125
11, 4140, Note_on_c, 9, 36, 0
11, 4200, Note_on_c, 9, 36, 0
11, 4320, Note_on_c, 9, 36, 125
11, 4440, Note_on_c, 9, 36, 0
11, 4500, Note_on_c, 9, 36, 125
11, 4560, Note_on_c, 9, 36, 125
11, 4620, Note_on_c, 9, 36, 0
11, 4680, Note_on_c, 9, 36, 0
11, 4800, Note_on_c, 9, 36, 125
11, 4920, Note_on_c, 9, 36, 0
11, 4980, Note_on_c, 9, 36, 125
11, 5040, Note_on_c, 9, 36, 125
11, 5100, Note_on_c, 9, 36, 0
11, 5160, Note_on_c, 9, 36, 0
11, 5280, Note_on_c, 9, 36, 125
11, 5400, Note_on_c, 9, 36, 0
11, 5460, Note_on_c, 9, 36, 125
11, 5520, Note_on_c, 9, 36, 125
11, 5580, Note_on_c, 9, 36, 0
11, 5640, Note_on_c, 9, 36, 0
11, 5760, Note_on_c, 9, 36, 125
11, 5880, Note_on_c, 9, 36, 0
11, 5940, Note_on_c, 9, 36, 125
11, 6000, Note_on_c, 9, 36, 125
11, 6060, Note_on_c, 9, 36, 0
11, 6120, Note_on_c, 9, 36, 0
11, 6240, Note_on_c, 9, 36, 125
11, 6360, Note_on_c, 9, 36, 0
11, 6420, Note_on_c, 9, 36, 125
11, 6480, Note_on_c, 9, 36, 125
11, 6540, Note_on_c, 9, 36, 0
11, 6540, Note_on_c, 9, 40, 125
11, 6600, Note_on_c, 9, 36, 0
11, 6600, Note_on_c, 9, 40, 125
11, 6630, Note_on_c, 9, 40, 125
11, 6660, Note_on_c, 9, 40, 0
11, 6660, Note_on_c, 9, 40, 125
11, 6720, Note_on_c, 9, 40, 0
11, 6720, Note_on_c, 9, 36, 125
11, 6750, Note_on_c, 9, 40, 0
11, 6780, Note_on_c, 9, 40, 0
11, 6840, Note_on_c, 9, 36, 0
11, 6900, Note_on_c, 9, 36, 125
11, 6960, Note_on_c, 9, 36, 125
11, 7020, Note_on_c, 9, 36, 0
11, 7080, Note_on_c, 9, 36, 0
11, 7080, Note_on_c, 9, 40, 125
11, 7200, Note_on_c, 9, 40, 0
11, 7200, Note_on_c, 9, 36, 125
11, 7320, Note_on_c, 9, 36, 0
11, 7380, Note_on_c, 9, 36, 125
11, 7440, Note_on_c, 9, 36, 125
11, 7500, Note_on_c, 9, 36, 0
11, 7560, Note_on_c, 9, 36, 0
11, 7560, Note_on_c, 9, 40, 125
11, 7680, Note_on_c, 9, 40, 0
11, 7680, Note_on_c, 9, 36, 125
11, 7800, Note_on_c, 9, 36, 0
11, 7860, Note_on_c, 9, 36, 125
11, 7920, Note_on_c, 9, 36, 125
11, 7980, Note_on_c, 9, 36, 0
11, 8040, Note_on_c, 9, 36, 0
11, 8040, Note_on_c, 9, 40, 125
11, 8160, Note_on_c, 9, 40, 0
11, 8160, Note_on_c, 9, 36, 125
11, 8280, Note_on_c, 9, 36, 0
11, 8340, Note_on_c, 9, 36, 125
11, 8400, Note_on_c, 9, 36, 125
11, 8460, Note_on_c, 9, 36, 0
11, 8520, Note_on_c, 9, 36, 0
11, 8520, Note_on_c, 9, 40, 125
11, 8640, Note_on_c, 9, 40, 0
11, 8640, Note_on_c, 9, 36, 125
11, 8760, Note_on_c, 9, 36, 0
11, 8820, Note_on_c, 9, 36, 125
11, 8880, Note_on_c, 9, 36, 125
11, 8940, Note_on_c, 9, 36, 0
11, 9000, Note_on_c, 9, 36, 0
11, 9000, Note_on_c, 9, 40, 125
11, 9120, Note_on_c, 9, 40, 0
11, 9120, Note_on_c, 9, 36, 125
11, 9240, Note_on_c, 9, 36, 0
11, 9300, Note_on_c, 9, 36, 125
11, 9360, Note_on_c, 9, 36, 125
11, 9420, Note_on_c, 9, 36, 0
11, 9480, Note_on_c, 9, 36, 0
11, 9480, Note_on_c, 9, 40, 125
11, 9600, Note_on_c, 9, 40, 0
11, 9600, Note_on_c, 9, 36, 125
11, 9720, Note_on_c, 9, 36, 0
11, 9780, Note_on_c, 9, 36, 125
11, 9840, Note_on_c, 9, 36, 125
11, 9900, Note_on_c, 9, 36, 0
11, 9960, Note_on_c, 9, 36, 0
11, 9960, Note_on_c, 9, 40, 125
11, 10080, Note_on_c, 9, 40, 0
11, 10080, Note_on_c, 9, 36, 125
11, 10200, Note_on_c, 9, 36, 0
11, 10260, Note_on_c, 9, 36, 125
11, 10320, Note_on_c, 9, 36, 125
11, 10380, Note_on_c, 9, 36, 0
11, 10440, Note_on_c, 9, 36, 0
11, 10440, Note_on_c, 9, 40, 125
11, 10560, Note_on_c, 9, 40, 0
11, 10560, Note_on_c, 9, 36, 125
11, 10680, Note_on_c, 9, 36, 0
11, 10740, Note_on_c, 9, 36, 125
11, 10800, Note_on_c, 9, 36, 125
11, 10860, Note_on_c, 9, 36, 0
11, 10920, Note_on_c, 9, 36, 0
11, 10920, Note_on_c, 9, 40, 125
11, 11040, Note_on_c, 9, 40, 0
11, 11040, Note_on_c, 9, 36, 125
11, 11160, Note_on_c, 9, 36, 0
11, 11220, Note_on_c, 9, 36, 125
11, 11280, Note_on_c, 9, 36, 125
11, 11340, Note_on_c, 9, 36, 0
11, 11400, Note_on_c, 9, 36, 0
11, 11400, Note_on_c, 9, 40, 125
11, 11520, Note_on_c, 9, 40, 0
11, 11520, Note_on_c, 9, 36, 125
11, 11640, Note_on_c, 9, 36, 0
11, 11700, Note_on_c, 9, 36, 125
11, 11760, Note_on_c, 9, 40, 125
11, 11820, Note_on_c, 9, 36, 0
11, 11820, Note_on_c, 9, 40, 125
11, 11880, Note_on_c, 9, 40, 0
11, 11940, Note_on_c, 9, 40, 0
11, 11940, Note_on_c, 9, 55, 125
11, 11940, Note_on_c, 9, 40, 125
11, 12060, Note_on_c, 9, 40, 0
11, 12060, Note_on_c, 9, 55, 0
11, 12240, Note_on_c, 9, 40, 125
11, 12330, Note_on_c, 9, 40, 125
11, 12360, Note_on_c, 9, 40, 0
11, 12360, Note_on_c, 9, 40, 125
11, 12420, Note_on_c, 9, 40, 125
11, 12450, Note_on_c, 9, 40, 0
11, 12480, Note_on_c, 9, 40, 0
11, 12480, Note_on_c, 9, 36, 125
11, 12540, Note_on_c, 9, 40, 0
11, 12600, Note_on_c, 9, 36, 0
11, 12720, Note_on_c, 9, 36, 125
11, 12840, Note_on_c, 9, 36, 0
11, 12840, Note_on_c, 9, 40, 125
11, 12960, Note_on_c, 9, 40, 0
11, 12960, Note_on_c, 9, 36, 125
11, 13080, Note_on_c, 9, 36, 0
11, 13200, Note_on_c, 9, 36, 125
11, 13320, Note_on_c, 9, 36, 0
11, 13320, Note_on_c, 9, 36, 125
11, 13320, Note_on_c, 9, 40, 125
11, 13440, Note_on_c, 9, 40, 0
11, 13440, Note_on_c, 9, 36, 0
11, 13440, Note_on_c, 9, 36, 125
11, 13560, Note_on_c, 9, 36, 0
11, 13680, Note_on_c, 9, 36, 125
11, 13800, Note_on_c, 9, 36, 0
11, 13800, Note_on_c, 9, 40, 125
11, 13920, Note_on_c, 9, 40, 0
11, 13920, Note_on_c, 9, 36, 125
11, 14040, Note_on_c, 9, 36, 0
11, 14160, Note_on_c, 9, 36, 125
11, 14280, Note_on_c, 9, 36, 0
11, 14280, Note_on_c, 9, 40, 125
11, 14400, Note_on_c, 9, 40, 0
11, 14400, Note_on_c, 9, 36, 125
11, 14520, Note_on_c, 9, 36, 0
11, 14640, Note_on_c, 9, 36, 125
11, 14760, Note_on_c, 9, 36, 0
11, 14760, Note_on_c, 9, 40, 125
11, 14880, Note_on_c, 9, 40, 0
11, 14880, Note_on_c, 9, 36, 125
11, 15000, Note_on_c, 9, 36, 0
11, 15120, Note_on_c, 9, 36, 125
11, 15240, Note_on_c, 9, 36, 0
11, 15240, Note_on_c, 9, 40, 125
11, 15360, Note_on_c, 9, 40, 0
11, 15360, Note_on_c, 9, 36, 125
11, 15480, Note_on_c, 9, 36, 0
11, 15600, Note_on_c, 9, 36, 125
11, 15720, Note_on_c, 9, 36, 0
11, 15720, Note_on_c, 9, 40, 125
11, 15840, Note_on_c, 9, 40, 0
11, 15840, Note_on_c, 9, 36, 125
11, 15960, Note_on_c, 9, 36, 0
11, 16080, Note_on_c, 9, 36, 125
11, 16200, Note_on_c, 9, 36, 0
11, 16200, Note_on_c, 9, 40, 125
11, 16320, Note_on_c, 9, 40, 0
11, 16320, Note_on_c, 9, 36, 125
11, 16440, Note_on_c, 9, 36, 0
11, 16560, Note_on_c, 9, 55, 80
11, 16560, Note_on_c, 9, 36, 125
11, 16680, Note_on_c, 9, 36, 0
11, 16680, Note_on_c, 9, 55, 0
11, 16680, Note_on_c, 9, 40, 125
11, 16740, Note_on_c, 9, 40, 125
11, 16800, Note_on_c, 9, 40, 0
11, 16800, Note_on_c, 9, 36, 125
11, 16860, Note_on_c, 9, 40, 0
11, 16920, Note_on_c, 9, 36, 0
11, 16980, Note_on_c, 9, 36, 125
11, 17040, Note_on_c, 9, 36, 125
11, 17100, Note_on_c, 9, 36, 0
11, 17160, Note_on_c, 9, 36, 0
11, 17160, Note_on_c, 9, 40, 125
11, 17280, Note_on_c, 9, 40, 0
11, 17280, Note_on_c, 9, 36, 125
11, 17400, Note_on_c, 9, 36, 0
11, 17460, Note_on_c, 9, 36, 125
11, 17520, Note_on_c, 9, 36, 125
11, 17580, Note_on_c, 9, 36, 0
11, 17640, Note_on_c, 9, 36, 0
11, 17640, Note_on_c, 9, 40, 125
11, 17760, Note_on_c, 9, 40, 0
11, 17760, Note_on_c, 9, 36, 125
11, 17880, Note_on_c, 9, 36, 0
11, 17940, Note_on_c, 9, 36, 125
11, 18000, Note_on_c, 9, 36, 125
11, 18060, Note_on_c, 9, 36, 0
11, 18120, Note_on_c, 9, 36, 0
11, 18120, Note_on_c, 9, 40, 125
11, 18240, Note_on_c, 9, 40, 0
11, 18240, Note_on_c, 9, 36, 125
11, 18360, Note_on_c, 9, 36, 0
11, 18420, Note_on_c, 9, 36, 125
11, 18480, Note_on_c, 9, 36, 125
11, 18540, Note_on_c, 9, 36, 0
11, 18600, Note_on_c, 9, 36, 0
11, 18600, Note_on_c, 9, 40, 125
11, 18720, Note_on_c, 9, 40, 0
11, 18720, Note_on_c, 9, 36, 125
11, 18840, Note_on_c, 9, 36, 0
11, 18900, Note_on_c, 9, 36, 125
11, 18960, Note_on_c, 9, 36, 125
11, 19020, Note_on_c, 9, 36, 0
11, 19080, Note_on_c, 9, 36, 0
11, 19080, Note_on_c, 9, 40, 125
11, 19200, Note_on_c, 9, 40, 0
11, 19200, Note_on_c, 9, 36, 125
11, 19320, Note_on_c, 9, 36, 0
11, 19380, Note_on_c, 9, 36, 125
11, 19440, Note_on_c, 9, 36, 125
11, 19500, Note_on_c, 9, 36, 0
11, 19560, Note_on_c, 9, 36, 0
11, 19560, Note_on_c, 9, 40, 125
11, 19680, Note_on_c, 9, 40, 0
11, 19680, Note_on_c, 9, 36, 125
11, 19800, Note_on_c, 9, 36, 0
11, 19860, Note_on_c, 9, 36, 125
11, 19920, Note_on_c, 9, 36, 125
11, 19980, Note_on_c, 9, 36, 0
11, 20040, Note_on_c, 9, 36, 0
11, 20040, Note_on_c, 9, 40, 125
11, 20160, Note_on_c, 9, 40, 0
11, 20160, Note_on_c, 9, 36, 125
11, 20280, Note_on_c, 9, 36, 0
11, 20340, Note_on_c, 9, 36, 125
11, 20400, Note_on_c, 9, 36, 125
11, 20460, Note_on_c, 9, 36, 0
11, 20520, Note_on_c, 9, 36, 0
11, 20520, Note_on_c, 9, 40, 125
11, 20640, Note_on_c, 9, 40, 0
11, 20640, Note_on_c, 9, 36, 125
11, 20760, Note_on_c, 9, 36, 0
11, 20820, Note_on_c, 9, 36, 125
11, 20880, Note_on_c, 9, 36, 125
11, 20940, Note_on_c, 9, 36, 0
11, 21000, Note_on_c, 9, 36, 0
11, 21000, Note_on_c, 9, 40, 125
11, 21120, Note_on_c, 9, 40, 0
11, 21120, Note_on_c, 9, 36, 125
11, 21240, Note_on_c, 9, 36, 0
11, 21300, Note_on_c, 9, 36, 125
11, 21360, Note_on_c, 9, 36, 125
11, 21420, Note_on_c, 9, 36, 0
11, 21480, Note_on_c, 9, 36, 0
11, 21480, Note_on_c, 9, 40, 125
11, 21600, Note_on_c, 9, 40, 0
11, 21600, Note_on_c, 9, 36, 125
11, 21720, Note_on_c, 9, 36, 0
11, 21780, Note_on_c, 9, 36, 125
11, 21840, Note_on_c, 9, 36, 125
11, 21900, Note_on_c, 9, 36, 0
11, 21960, Note_on_c, 9, 36, 0
11, 21960, Note_on_c, 9, 36, 125
11, 22080, Note_on_c, 9, 36, 0
11, 22140, Note_on_c, 9, 36, 125
11, 22200, Note_on_c, 9, 40, 125
11, 22260, Note_on_c, 9, 36, 0
11, 22260, Note_on_c, 9, 40, 125
11, 22320, Note_on_c, 9, 40, 0
11, 22380, Note_on_c, 9, 40, 0
11, 22380, Note_on_c, 9, 49, 125
11, 22380, Note_on_c, 9, 36, 125
11, 22500, Note_on_c, 9, 36, 0
11, 22500, Note_on_c, 9, 49, 0
11, 22500, Note_on_c, 9, 40, 125
11, 22620, Note_on_c, 9, 40, 0
11, 22620, Note_on_c, 9, 40, 125
11, 22740, Note_on_c, 9, 40, 0
11, 22740, Note_on_c, 9, 40, 125
11, 22860, Note_on_c, 9, 40, 0
11, 22860, Note_on_c, 9, 40, 125
11, 22920, Note_on_c, 9, 42, 125
11, 22920, Note_on_c, 9, 40, 125
11, 22980, Note_on_c, 9, 40, 0
11, 23040, Note_on_c, 9, 40, 0
11, 23040, Note_on_c, 9, 42, 0
11, 23280, Note_on_c, 9, 40, 125
11, 23370, Note_on_c, 9, 40, 125
11, 23400, Note_on_c, 9, 40, 0
11, 23400, Note_on_c, 9, 36, 125
11, 23490, Note_on_c, 9, 40, 0
11, 23520, Note_on_c, 9, 36, 0
11, 23640, Note_on_c, 9, 36, 125
11, 23760, Note_on_c, 9, 36, 0
11, 23760, Note_on_c, 9, 40, 125
11, 23880, Note_on_c, 9, 40, 0
11, 23880, Note_on_c, 9, 36, 125
11, 24000, Note_on_c, 9, 36, 0
11, 24120, Note_on_c, 9, 36, 125
11, 24240, Note_on_c, 9, 36, 0
11, 24240, Note_on_c, 9, 36, 125
11, 24240, Note_on_c, 9, 40, 125
11, 24360, Note_on_c, 9, 40, 0
11, 24360, Note_on_c, 9, 36, 0
11, 24360, Note_on_c, 9, 36, 125
11, 24480, Note_on_c, 9, 36, 0
11, 24600, Note_on_c, 9, 36, 125
11, 24720, Note_on_c, 9, 36, 0
11, 24720, Note_on_c, 9, 40, 125
11, 24840, Note_on_c, 9, 40, 0
11, 24840, Note_on_c, 9, 36, 125
11, 24960, Note_on_c, 9, 36, 0
11, 25080, Note_on_c, 9, 36, 125
11, 25200, Note_on_c, 9, 36, 0
11, 25200, Note_on_c, 9, 40, 125
11, 25320, Note_on_c, 9, 40, 0
11, 25320, Note_on_c, 9, 36, 125
11, 25440, Note_on_c, 9, 36, 0
11, 25560, Note_on_c, 9, 36, 125
11, 25680, Note_on_c, 9, 36, 0
11, 25680, Note_on_c, 9, 40, 125
11, 25800, Note_on_c, 9, 40, 0
11, 25800, Note_on_c, 9, 36, 125
11, 25920, Note_on_c, 9, 36, 0
11, 26040, Note_on_c, 9, 45, 125
11, 26100, Note_on_c, 9, 45, 125
11, 26160, Note_on_c, 9, 45, 0
11, 26160, Note_on_c, 9, 45, 125
11, 26160, Note_on_c, 9, 40, 125
11, 26220, Note_on_c, 9, 45, 0
11, 26220, Note_on_c, 9, 45, 125
11, 26280, Note_on_c, 9, 40, 0
11, 26280, Note_on_c, 9, 45, 0
11, 26280, Note_on_c, 9, 36, 125
11, 26340, Note_on_c, 9, 45, 0
11, 26400, Note_on_c, 9, 36, 0
11, 26520, Note_on_c, 9, 36, 125
11, 26640, Note_on_c, 9, 36, 0
11, 26640, Note_on_c, 9, 40, 125
11, 26760, Note_on_c, 9, 40, 0
11, 26760, Note_on_c, 9, 36, 125
11, 26880, Note_on_c, 9, 36, 0
11, 27000, Note_on_c, 9, 36, 125
11, 27120, Note_on_c, 9, 36, 0
11, 27120, Note_on_c, 9, 40, 125
11, 27240, Note_on_c, 9, 40, 0
11, 27240, Note_on_c, 9, 36, 125
11, 27360, Note_on_c, 9, 36, 0
11, 27480, Note_on_c, 9, 55, 80
11, 27480, Note_on_c, 9, 36, 125
11, 27600, Note_on_c, 9, 36, 0
11, 27600, Note_on_c, 9, 55, 0
11, 27600, Note_on_c, 9, 40, 125
11, 27660, Note_on_c, 9, 40, 125
11, 27720, Note_on_c, 9, 40, 0
11, 27720, Note_on_c, 9, 36, 125
11, 27780, Note_on_c, 9, 40, 0
11, 27840, Note_on_c, 9, 36, 0
11, 27900, Note_on_c, 9, 36, 125
11, 27960, Note_on_c, 9, 36, 125
11, 28020, Note_on_c, 9, 36, 0
11, 28080, Note_on_c, 9, 36, 0
11, 28080, Note_on_c, 9, 40, 125
11, 28200, Note_on_c, 9, 40, 0
11, 28200, Note_on_c, 9, 36, 125
11, 28320, Note_on_c, 9, 36, 0
11, 28380, Note_on_c, 9, 36, 125
11, 28440, Note_on_c, 9, 36, 125
11, 28500, Note_on_c, 9, 36, 0
11, 28560, Note_on_c, 9, 36, 0
11, 28560, Note_on_c, 9, 40, 125
11, 28680, Note_on_c, 9, 40, 0
11, 28680, Note_on_c, 9, 36, 125
11, 28800, Note_on_c, 9, 36, 0
11, 28860, Note_on_c, 9, 36, 125
11, 28920, Note_on_c, 9, 36, 125
11, 28980, Note_on_c, 9, 36, 0
11, 29040, Note_on_c, 9, 36, 0
11, 29040, Note_on_c, 9, 40, 125
11, 29160, Note_on_c, 9, 40, 0
11, 29160, Note_on_c, 9, 36, 125
11, 29280, Note_on_c, 9, 36, 0
11, 29340, Note_on_c, 9, 36, 125
11, 29400, Note_on_c, 9, 36, 125
11, 29460, Note_on_c, 9, 36, 0
11, 29520, Note_on_c, 9, 36, 0
11, 29520, Note_on_c, 9, 40, 125
11, 29640, Note_on_c, 9, 40, 0
11, 29640, Note_on_c, 9, 36, 125
11, 29760, Note_on_c, 9, 36, 0
11, 29820, Note_on_c, 9, 36, 125
11, 29880, Note_on_c, 9, 36, 125
11, 29940, Note_on_c, 9, 36, 0
11, 30000, Note_on_c, 9, 36, 0
11, 30000, Note_on_c, 9, 40, 125
11, 30120, Note_on_c, 9, 40, 0
11, 30120, Note_on_c, 9, 36, 125
11, 30240, Note_on_c, 9, 36, 0
11, 30300, Note_on_c, 9, 36, 125
11, 30360, Note_on_c, 9, 36, 125
11, 30420, Note_on_c, 9, 36, 0
11, 30480, Note_on_c, 9, 36, 0
11, 30480, Note_on_c, 9, 40, 125
11, 30600, Note_on_c, 9, 40, 0
11, 30600, Note_on_c, 9, 36, 125
11, 30720, Note_on_c, 9, 36, 0
11, 30780, Note_on_c, 9, 36, 125
11, 30840, Note_on_c, 9, 36, 125
11, 30900, Note_on_c, 9, 36, 0
11, 30960, Note_on_c, 9, 36, 0
11, 30960, Note_on_c, 9, 40, 125
11, 31080, Note_on_c, 9, 40, 0
11, 31080, Note_on_c, 9, 36, 125
11, 31200, Note_on_c, 9, 36, 0
11, 31260, Note_on_c, 9, 36, 125
11, 31320, Note_on_c, 9, 36, 125
11, 31380, Note_on_c, 9, 36, 0
11, 31440, Note_on_c, 9, 36, 0
11, 31440, Note_on_c, 9, 40, 125
11, 31560, Note_on_c, 9, 40, 0
11, 31560, Note_on_c, 9, 36, 125
11, 31680, Note_on_c, 9, 36, 0
11, 31740, Note_on_c, 9, 36, 125
11, 31800, Note_on_c, 9, 36, 125
11, 31860, Note_on_c, 9, 36, 0
11, 31920, Note_on_c, 9, 36, 0
11, 31920, Note_on_c, 9, 40, 125
11, 32040, Note_on_c, 9, 40, 0
11, 32040, Note_on_c, 9, 36, 125
11, 32160, Note_on_c, 9, 36, 0
11, 32220, Note_on_c, 9, 36, 125
11, 32280, Note_on_c, 9, 36, 125
11, 32340, Note_on_c, 9, 36, 0
11, 32400, Note_on_c, 9, 36, 0
11, 32400, Note_on_c, 9, 40, 125
11, 32520, Note_on_c, 9, 40, 0
11, 32520, Note_on_c, 9, 36, 125
11, 32640, Note_on_c, 9, 36, 0
11, 32700, Note_on_c, 9, 36, 125
11, 32760, Note_on_c, 9, 36, 125
11, 32820, Note_on_c, 9, 36, 0
11, 32880, Note_on_c, 9, 36, 0
11, 32880, Note_on_c, 9, 36, 125
11, 33000, Note_on_c, 9, 36, 0
11, 33060, Note_on_c, 9, 36, 125
11, 33120, Note_on_c, 9, 40, 125
11, 33180, Note_on_c, 9, 36, 0
11, 33180, Note_on_c, 9, 40, 125
11, 33240, Note_on_c, 9, 40, 0
11, 33300, Note_on_c, 9, 40, 0
11, 33300, Note_on_c, 9, 49, 125
11, 33300, Note_on_c, 9, 40, 125
11, 33420, Note_on_c, 9, 40, 0
11, 33420, Note_on_c, 9, 49, 0
11, 33480, Note_on_c, 9, 40, 125
11, 33540, Note_on_c, 9, 36, 125
11, 33600, Note_on_c, 9, 40, 0
11, 33600, Note_on_c, 9, 36, 125
11, 33660, Note_on_c, 9, 36, 0
11, 33720, Note_on_c, 9, 36, 0
11, 33720, Note_on_c, 9, 40, 125
11, 33780, Note_on_c, 9, 36, 125
11, 33840, Note_on_c, 9, 40, 0
11, 33840, Note_on_c, 9, 36, 125
11, 33900, Note_on_c, 9, 36, 0
11, 33960, Note_on_c, 9, 36, 0
11, 34020, Note_on_c, 9, 36, 125
11, 34080, Note_on_c, 9, 36, 125
11, 34140, Note_on_c, 9, 36, 0
11, 34200, Note_on_c, 9, 36, 0
11, 34200, Note_on_c, 9, 40, 125
11, 34320, Note_on_c, 9, 40, 0
11, 34500, Note_on_c, 9, 36, 125
11, 34620, Note_on_c, 9, 36, 0
11, 34680, Note_on_c, 9, 40, 125
11, 34800, Note_on_c, 9, 40, 0
11, 34980, Note_on_c, 9, 36, 125
11, 35100, Note_on_c, 9, 36, 0
11, 35160, Note_on_c, 9, 40, 125
11, 35190, Note_on_c, 9, 40, 125
11, 35280, Note_on_c, 9, 40, 0
11, 35280, Note_on_c, 9, 36, 125
11, 35310, Note_on_c, 9, 40, 0
11, 35400, Note_on_c, 9, 36, 0
11, 35520, Note_on_c, 9, 36, 125
11, 35640, Note_on_c, 9, 36, 0
11, 35640, Note_on_c, 9, 40, 125
11, 35760, Note_on_c, 9, 40, 0
11, 35760, Note_on_c, 9, 36, 125
11, 35880, Note_on_c, 9, 36, 0
11, 35940, Note_on_c, 9, 36, 125
11, 36000, Note_on_c, 9, 36, 125
11, 36060, Note_on_c, 9, 36, 0
11, 36120, Note_on_c, 9, 36, 0
11, 36120, Note_on_c, 9, 40, 125
11, 36240, Note_on_c, 9, 40, 0
11, 36420, Note_on_c, 9, 36, 125
11, 36540, Note_on_c, 9, 36, 0
11, 36600, Note_on_c, 9, 40, 125
11, 36720, Note_on_c, 9, 40, 0
11, 36900, Note_on_c, 9, 36, 125
11, 37020, Note_on_c, 9, 36, 0
11, 37080, Note_on_c, 9, 40, 125
11, 37110, Note_on_c, 9, 40, 125
11, 37200, Note_on_c, 9, 40, 0
11, 37200, Note_on_c, 9, 36, 125
11, 37230, Note_on_c, 9, 40, 0
11, 37320, Note_on_c, 9, 36, 0
11, 37440, Note_on_c, 9, 36, 115
11, 37560, Note_on_c, 9, 36, 0
11, 37560, Note_on_c, 9, 40, 110
11, 37680, Note_on_c, 9, 40, 0
11, 37680, Note_on_c, 9, 36, 105
11, 37800, Note_on_c, 9, 36, 0
11, 37860, Note_on_c, 9, 36, 97
11, 37920, Note_on_c, 9, 36, 93
11, 37980, Note_on_c, 9, 36, 0
11, 38040, Note_on_c, 9, 36, 0
11, 38040, Note_on_c, 9, 40, 88
11, 38160, Note_on_c, 9, 40, 0
11, 38340, Note_on_c, 9, 36, 76
11, 38460, Note_on_c, 9, 36, 0
11, 38520, Note_on_c, 9, 40, 68
11, 38640, Note_on_c, 9, 40, 0
11, 38820, Note_on_c, 9, 36, 55
11, 38940, Note_on_c, 9, 36, 0
11, 39000, Note_on_c, 9, 40, 47
11, 39030, Note_on_c, 9, 40, 46
11, 39120, Note_on_c, 9, 40, 0
11, 39120, Note_on_c, 9, 36, 42
11, 39150, Note_on_c, 9, 40, 0
11, 39240, Note_on_c, 9, 36, 0
11, 39360, Note_on_c, 9, 36, 31
11, 39480, Note_on_c, 9, 36, 0
11, 39480, Note_on_c, 9, 40, 26
11, 39600, Note_on_c, 9, 40, 0
11, 39600, Note_on_c, 9, 36, 21
11, 39720, Note_on_c, 9, 36, 0
11, 39840, Note_on_c, 9, 36, 11
11, 39960, Note_on_c, 9, 36, 0
11, 39960, Note_on_c, 9, 40, 6
11, 40080, Note_on_c, 9, 40, 0
11, 40080, End_track
12, 0, Start_track
12, 0, MIDI_port, 0
12, 0, Control_c, 9, 7, 125
12, 0, Control_c, 9, 10, 64
12, 6720, Note_on_c, 9, 42, 80
12, 6780, Note_on_c, 9, 42, 80
12, 6840, Note_on_c, 9, 42, 0
12, 6840, Note_on_c, 9, 42, 80
12, 6900, Note_on_c, 9, 42, 0
12, 6900, Note_on_c, 9, 42, 80
12, 6960, Note_on_c, 9, 42, 0
12, 6960, Note_on_c, 9, 42, 80
12, 7020, Note_on_c, 9, 42, 0
12, 7020, Note_on_c, 9, 42, 80
12, 7080, Note_on_c, 9, 42, 0
12, 7080, Note_on_c, 9, 42, 80
12, 7140, Note_on_c, 9, 42, 0
12, 7140, Note_on_c, 9, 42, 80
12, 7200, Note_on_c, 9, 42, 0
12, 7200, Note_on_c, 9, 42, 80
12, 7260, Note_on_c, 9, 42, 0
12, 7260, Note_on_c, 9, 42, 80
12, 7320, Note_on_c, 9, 42, 0
12, 7320, Note_on_c, 9, 42, 80
12, 7380, Note_on_c, 9, 42, 0
12, 7380, Note_on_c, 9, 42, 80
12, 7440, Note_on_c, 9, 42, 0
12, 7440, Note_on_c, 9, 42, 80
12, 7500, Note_on_c, 9, 42, 0
12, 7500, Note_on_c, 9, 42, 80
12, 7560, Note_on_c, 9, 42, 0
12, 7560, Note_on_c, 9, 42, 80
12, 7620, Note_on_c, 9, 42, 0
12, 7620, Note_on_c, 9, 42, 80
12, 7680, Note_on_c, 9, 42, 0
12, 7680, Note_on_c, 9, 42, 80
12, 7740, Note_on_c, 9, 42, 0
12, 7740, Note_on_c, 9, 42, 80
12, 7800, Note_on_c, 9, 42, 0
12, 7800, Note_on_c, 9, 42, 80
12, 7860, Note_on_c, 9, 42, 0
12, 7860, Note_on_c, 9, 42, 80
12, 7920, Note_on_c, 9, 42, 0
12, 7920, Note_on_c, 9, 42, 80
12, 7980, Note_on_c, 9, 42, 0
12, 7980, Note_on_c, 9, 42, 80
12, 8040, Note_on_c, 9, 42, 0
12, 8040, Note_on_c, 9, 42, 80
12, 8100, Note_on_c, 9, 42, 0
12, 8100, Note_on_c, 9, 42, 80
12, 8160, Note_on_c, 9, 42, 0
12, 8160, Note_on_c, 9, 42, 80
12, 8220, Note_on_c, 9, 42, 0
12, 8220, Note_on_c, 9, 42, 80
12, 8280, Note_on_c, 9, 42, 0
12, 8280, Note_on_c, 9, 42, 80
12, 8340, Note_on_c, 9, 42, 0
12, 8340, Note_on_c, 9, 42, 80
12, 8400, Note_on_c, 9, 42, 0
12, 8400, Note_on_c, 9, 42, 80
12, 8460, Note_on_c, 9, 42, 0
12, 8460, Note_on_c, 9, 42, 80
12, 8520, Note_on_c, 9, 42, 0
12, 8520, Note_on_c, 9, 42, 80
12, 8580, Note_on_c, 9, 42, 0
12, 8580, Note_on_c, 9, 42, 80
12, 8640, Note_on_c, 9, 42, 0
12, 8640, Note_on_c, 9, 42, 80
12, 8700, Note_on_c, 9, 42, 0
12, 8700, Note_on_c, 9, 42, 80
12, 8760, Note_on_c, 9, 42, 0
12, 8760, Note_on_c, 9, 42, 80
12, 8820, Note_on_c, 9, 42, 0
12, 8820, Note_on_c, 9, 42, 80
12, 8880, Note_on_c, 9, 42, 0
12, 8880, Note_on_c, 9, 42, 80
12, 8940, Note_on_c, 9, 42, 0
12, 8940, Note_on_c, 9, 42, 80
12, 9000, Note_on_c, 9, 42, 0
12, 9000, Note_on_c, 9, 42, 80
12, 9060, Note_on_c, 9, 42, 0
12, 9060, Note_on_c, 9, 42, 80
12, 9120, Note_on_c, 9, 42, 0
12, 9120, Note_on_c, 9, 42, 80
12, 9180, Note_on_c, 9, 42, 0
12, 9180, Note_on_c, 9, 42, 80
12, 9240, Note_on_c, 9, 42, 0
12, 9240, Note_on_c, 9, 42, 80
12, 9300, Note_on_c, 9, 42, 0
12, 9300, Note_on_c, 9, 42, 80
12, 9360, Note_on_c, 9, 42, 0
12, 9360, Note_on_c, 9, 42, 80
12, 9420, Note_on_c, 9, 42, 0
12, 9420, Note_on_c, 9, 42, 80
12, 9480, Note_on_c, 9, 42, 0
12, 9480, Note_on_c, 9, 42, 80
12, 9540, Note_on_c, 9, 42, 0
12, 9540, Note_on_c, 9, 42, 80
12, 9600, Note_on_c, 9, 42, 0
12, 9600, Note_on_c, 9, 42, 80
12, 9660, Note_on_c, 9, 42, 0
12, 9660, Note_on_c, 9, 42, 80
12, 9720, Note_on_c, 9, 42, 0
12, 9720, Note_on_c, 9, 42, 80
12, 9780, Note_on_c, 9, 42, 0
12, 9780, Note_on_c, 9, 42, 80
12, 9840, Note_on_c, 9, 42, 0
12, 9840, Note_on_c, 9, 42, 80
12, 9900, Note_on_c, 9, 42, 0
12, 9900, Note_on_c, 9, 42, 80
12, 9960, Note_on_c, 9, 42, 0
12, 9960, Note_on_c, 9, 42, 80
12, 10020, Note_on_c, 9, 42, 0
12, 10020, Note_on_c, 9, 42, 80
12, 10080, Note_on_c, 9, 42, 0
12, 10080, Note_on_c, 9, 42, 80
12, 10140, Note_on_c, 9, 42, 0
12, 10140, Note_on_c, 9, 42, 80
12, 10200, Note_on_c, 9, 42, 0
12, 10200, Note_on_c, 9, 42, 80
12, 10260, Note_on_c, 9, 42, 0
12, 10260, Note_on_c, 9, 42, 80
12, 10320, Note_on_c, 9, 42, 0
12, 10320, Note_on_c, 9, 42, 80
12, 10380, Note_on_c, 9, 42, 0
12, 10380, Note_on_c, 9, 42, 80
12, 10440, Note_on_c, 9, 42, 0
12, 10440, Note_on_c, 9, 42, 80
12, 10500, Note_on_c, 9, 42, 0
12, 10500, Note_on_c, 9, 42, 80
12, 10560, Note_on_c, 9, 42, 0
12, 10560, Note_on_c, 9, 42, 80
12, 10620, Note_on_c, 9, 42, 0
12, 10620, Note_on_c, 9, 42, 80
12, 10680, Note_on_c, 9, 42, 0
12, 10680, Note_on_c, 9, 42, 80
12, 10740, Note_on_c, 9, 42, 0
12, 10740, Note_on_c, 9, 42, 80
12, 10800, Note_on_c, 9, 42, 0
12, 10800, Note_on_c, 9, 42, 80
12, 10860, Note_on_c, 9, 42, 0
12, 10860, Note_on_c, 9, 42, 80
12, 10920, Note_on_c, 9, 42, 0
12, 10920, Note_on_c, 9, 42, 80
12, 10980, Note_on_c, 9, 42, 0
12, 10980, Note_on_c, 9, 42, 80
12, 11040, Note_on_c, 9, 42, 0
12, 11040, Note_on_c, 9, 42, 80
12, 11100, Note_on_c, 9, 42, 0
12, 11100, Note_on_c, 9, 42, 80
12, 11160, Note_on_c, 9, 42, 0
12, 11160, Note_on_c, 9, 42, 80
12, 11220, Note_on_c, 9, 42, 0
12, 11220, Note_on_c, 9, 42, 80
12, 11280, Note_on_c, 9, 42, 0
12, 11280, Note_on_c, 9, 42, 80
12, 11340, Note_on_c, 9, 42, 0
12, 11340, Note_on_c, 9, 42, 80
12, 11400, Note_on_c, 9, 42, 0
12, 11400, Note_on_c, 9, 42, 80
12, 11460, Note_on_c, 9, 42, 0
12, 11460, Note_on_c, 9, 42, 80
12, 11520, Note_on_c, 9, 42, 0
12, 11580, Note_on_c, 9, 42, 0
12, 11580, Note_on_c, 9, 42, 80
12, 11640, Note_on_c, 9, 42, 80
12, 11700, Note_on_c, 9, 42, 0
12, 11700, Note_on_c, 9, 42, 80
12, 11760, Note_on_c, 9, 42, 0
12, 11760, Note_on_c, 9, 42, 80
12, 11820, Note_on_c, 9, 42, 0
12, 11820, Note_on_c, 9, 42, 80
12, 11880, Note_on_c, 9, 42, 0
12, 11880, Note_on_c, 9, 42, 80
12, 11940, Note_on_c, 9, 42, 0
12, 12000, Note_on_c, 9, 42, 0
12, 12480, Note_on_c, 9, 42, 80
12, 12540, Note_on_c, 9, 42, 80
12, 12600, Note_on_c, 9, 42, 0
12, 12600, Note_on_c, 9, 40, 125
12, 12600, Note_on_c, 9, 42, 80
12, 12660, Note_on_c, 9, 42, 0
12, 12660, Note_on_c, 9, 36, 125
12, 12660, Note_on_c, 9, 42, 80
12, 12720, Note_on_c, 9, 42, 0
12, 12720, Note_on_c, 9, 40, 0
12, 12720, Note_on_c, 9, 42, 80
12, 12780, Note_on_c, 9, 36, 0
12, 12780, Note_on_c, 9, 42, 0
12, 12780, Note_on_c, 9, 42, 80
12, 12840, Note_on_c, 9, 42, 0
12, 12840, Note_on_c, 9, 42, 80
12, 12900, Note_on_c, 9, 42, 0
12, 12900, Note_on_c, 9, 36, 125
12, 12900, Note_on_c, 9, 42, 80
12, 12960, Note_on_c, 9, 42, 0
12, 12960, Note_on_c, 9, 42, 80
12, 13020, Note_on_c, 9, 42, 0
12, 13020, Note_on_c, 9, 36, 0
12, 13020, Note_on_c, 9, 42, 80
12, 13080, Note_on_c, 9, 42, 0
12, 13080, Note_on_c, 9, 40, 125
12, 13080, Note_on_c, 9, 42, 80
12, 13140, Note_on_c, 9, 42, 0
12, 13140, Note_on_c, 9, 36, 125
12, 13140, Note_on_c, 9, 42, 80
12, 13200, Note_on_c, 9, 42, 0
12, 13200, Note_on_c, 9, 40, 0
12, 13200, Note_on_c, 9, 42, 80
12, 13260, Note_on_c, 9, 36, 0
12, 13260, Note_on_c, 9, 42, 0
12, 13260, Note_on_c, 9, 36, 125
12, 13260, Note_on_c, 9, 42, 80
12, 13320, Note_on_c, 9, 42, 0
12, 13320, Note_on_c, 9, 42, 80
12, 13380, Note_on_c, 9, 42, 0
12, 13380, Note_on_c, 9, 36, 0
12, 13380, Note_on_c, 9, 36, 125
12, 13380, Note_on_c, 9, 42, 80
12, 13440, Note_on_c, 9, 42, 0
12, 13440, Note_on_c, 9, 42, 80
12, 13500, Note_on_c, 9, 42, 0
12, 13500, Note_on_c, 9, 36, 0
12, 13500, Note_on_c, 9, 42, 80
12, 13560, Note_on_c, 9, 42, 0
12, 13560, Note_on_c, 9, 40, 125
12, 13560, Note_on_c, 9, 42, 80
12, 13620, Note_on_c, 9, 42, 0
12, 13620, Note_on_c, 9, 36, 125
12, 13620, Note_on_c, 9, 42, 80
12, 13680, Note_on_c, 9, 42, 0
12, 13680, Note_on_c, 9, 40, 0
12, 13680, Note_on_c, 9, 42, 80
12, 13740, Note_on_c, 9, 36, 0
12, 13740, Note_on_c, 9, 42, 0
12, 13740, Note_on_c, 9, 42, 80
12, 13800, Note_on_c, 9, 42, 0
12, 13800, Note_on_c, 9, 42, 80
12, 13860, Note_on_c, 9, 42, 0
12, 13860, Note_on_c, 9, 36, 125
12, 13860, Note_on_c, 9, 42, 80
12, 13920, Note_on_c, 9, 42, 0
12, 13920, Note_on_c, 9, 42, 80
12, 13980, Note_on_c, 9, 42, 0
12, 13980, Note_on_c, 9, 36, 0
12, 13980, Note_on_c, 9, 42, 80
12, 14040, Note_on_c, 9, 42, 0
12, 14040, Note_on_c, 9, 40, 125
12, 14040, Note_on_c, 9, 42, 80
12, 14100, Note_on_c, 9, 42, 0
12, 14100, Note_on_c, 9, 36, 125
12, 14100, Note_on_c, 9, 42, 80
12, 14160, Note_on_c, 9, 42, 0
12, 14160, Note_on_c, 9, 40, 0
12, 14160, Note_on_c, 9, 42, 80
12, 14220, Note_on_c, 9, 36, 0
12, 14220, Note_on_c, 9, 42, 0
12, 14220, Note_on_c, 9, 42, 80
12, 14280, Note_on_c, 9, 42, 0
12, 14280, Note_on_c, 9, 42, 80
12, 14340, Note_on_c, 9, 42, 0
12, 14340, Note_on_c, 9, 36, 125
12, 14340, Note_on_c, 9, 42, 80
12, 14400, Note_on_c, 9, 42, 0
12, 14400, Note_on_c, 9, 42, 80
12, 14460, Note_on_c, 9, 42, 0
12, 14460, Note_on_c, 9, 36, 0
12, 14460, Note_on_c, 9, 42, 80
12, 14520, Note_on_c, 9, 42, 0
12, 14520, Note_on_c, 9, 40, 125
12, 14520, Note_on_c, 9, 42, 80
12, 14580, Note_on_c, 9, 42, 0
12, 14580, Note_on_c, 9, 36, 125
12, 14580, Note_on_c, 9, 42, 80
12, 14640, Note_on_c, 9, 42, 0
12, 14640, Note_on_c, 9, 40, 0
12, 14640, Note_on_c, 9, 42, 80
12, 14700, Note_on_c, 9, 36, 0
12, 14700, Note_on_c, 9, 42, 0
12, 14700, Note_on_c, 9, 42, 80
12, 14760, Note_on_c, 9, 42, 0
12, 14760, Note_on_c, 9, 42, 80
12, 14820, Note_on_c, 9, 42, 0
12, 14820, Note_on_c, 9, 42, 80
12, 14880, Note_on_c, 9, 42, 0
12, 14880, Note_on_c, 9, 42, 80
12, 14940, Note_on_c, 9, 42, 0
12, 14940, Note_on_c, 9, 42, 80
12, 15000, Note_on_c, 9, 42, 0
12, 15000, Note_on_c, 9, 40, 125
12, 15000, Note_on_c, 9, 42, 80
12, 15060, Note_on_c, 9, 42, 0
12, 15060, Note_on_c, 9, 36, 125
12, 15060, Note_on_c, 9, 42, 80
12, 15120, Note_on_c, 9, 42, 0
12, 15120, Note_on_c, 9, 40, 0
12, 15120, Note_on_c, 9, 42, 80
12, 15180, Note_on_c, 9, 36, 0
12, 15180, Note_on_c, 9, 42, 0
12, 15180, Note_on_c, 9, 42, 80
12, 15240, Note_on_c, 9, 42, 0
12, 15240, Note_on_c, 9, 42, 80
12, 15300, Note_on_c, 9, 42, 0
12, 15300, Note_on_c, 9, 42, 80
12, 15360, Note_on_c, 9, 42, 0
12, 15360, Note_on_c, 9, 42, 80
12, 15420, Note_on_c, 9, 42, 0
12, 15420, Note_on_c, 9, 42, 80
12, 15480, Note_on_c, 9, 42, 0
12, 15480, Note_on_c, 9, 40, 125
12, 15480, Note_on_c, 9, 42, 80
12, 15540, Note_on_c, 9, 42, 0
12, 15540, Note_on_c, 9, 36, 125
12, 15540, Note_on_c, 9, 42, 80
12, 15600, Note_on_c, 9, 42, 0
12, 15600, Note_on_c, 9, 40, 0
12, 15600, Note_on_c, 9, 42, 80
12, 15660, Note_on_c, 9, 36, 0
12, 15660, Note_on_c, 9, 42, 0
12, 15660, Note_on_c, 9, 42, 80
12, 15720, Note_on_c, 9, 42, 0
12, 15720, Note_on_c, 9, 42, 80
12, 15780, Note_on_c, 9, 42, 0
12, 15780, Note_on_c, 9, 42, 80
12, 15840, Note_on_c, 9, 42, 0
12, 15840, Note_on_c, 9, 42, 80
12, 15900, Note_on_c, 9, 42, 0
12, 15900, Note_on_c, 9, 42, 80
12, 15960, Note_on_c, 9, 42, 0
12, 15960, Note_on_c, 9, 40, 125
12, 15960, Note_on_c, 9, 42, 80
12, 16020, Note_on_c, 9, 42, 0
12, 16020, Note_on_c, 9, 36, 125
12, 16020, Note_on_c, 9, 42, 80
12, 16080, Note_on_c, 9, 42, 0
12, 16080, Note_on_c, 9, 40, 0
12, 16080, Note_on_c, 9, 42, 80
12, 16140, Note_on_c, 9, 36, 0
12, 16140, Note_on_c, 9, 42, 0
12, 16140, Note_on_c, 9, 42, 80
12, 16200, Note_on_c, 9, 42, 0
12, 16200, Note_on_c, 9, 42, 80
12, 16260, Note_on_c, 9, 42, 0
12, 16260, Note_on_c, 9, 42, 80
12, 16320, Note_on_c, 9, 42, 0
12, 16320, Note_on_c, 9, 42, 80
12, 16380, Note_on_c, 9, 42, 0
12, 16380, Note_on_c, 9, 42, 80
12, 16440, Note_on_c, 9, 42, 0
12, 16440, Note_on_c, 9, 40, 125
12, 16440, Note_on_c, 9, 42, 80
12, 16500, Note_on_c, 9, 42, 0
12, 16500, Note_on_c, 9, 36, 125
12, 16500, Note_on_c, 9, 42, 80
12, 16560, Note_on_c, 9, 42, 0
12, 16560, Note_on_c, 9, 40, 0
12, 16620, Note_on_c, 9, 36, 0
12, 16620, Note_on_c, 9, 42, 0
12, 16650, Note_on_c, 9, 40, 125
12, 16680, Note_on_c, 9, 42, 80
12, 16740, Note_on_c, 9, 42, 80
12, 16770, Note_on_c, 9, 40, 0
12, 16800, Note_on_c, 9, 42, 0
12, 16800, Note_on_c, 9, 42, 80
12, 16860, Note_on_c, 9, 42, 0
12, 16860, Note_on_c, 9, 42, 80
12, 16920, Note_on_c, 9, 42, 0
12, 16920, Note_on_c, 9, 42, 80
12, 16980, Note_on_c, 9, 42, 0
12, 16980, Note_on_c, 9, 42, 80
12, 17040, Note_on_c, 9, 42, 0
12, 17040, Note_on_c, 9, 42, 80
12, 17100, Note_on_c, 9, 42, 0
12, 17100, Note_on_c, 9, 42, 80
12, 17160, Note_on_c, 9, 42, 0
12, 17160, Note_on_c, 9, 42, 80
12, 17220, Note_on_c, 9, 42, 0
12, 17220, Note_on_c, 9, 42, 80
12, 17280, Note_on_c, 9, 42, 0
12, 17280, Note_on_c, 9, 42, 80
12, 17340, Note_on_c, 9, 42, 0
12, 17340, Note_on_c, 9, 42, 80
12, 17400, Note_on_c, 9, 42, 0
12, 17400, Note_on_c, 9, 42, 80
12, 17460, Note_on_c, 9, 42, 0
12, 17460, Note_on_c, 9, 42, 80
12, 17520, Note_on_c, 9, 42, 0
12, 17520, Note_on_c, 9, 42, 80
12, 17580, Note_on_c, 9, 42, 0
12, 17580, Note_on_c, 9, 42, 80
12, 17640, Note_on_c, 9, 42, 0
12, 17640, Note_on_c, 9, 42, 80
12, 17700, Note_on_c, 9, 42, 0
12, 17700, Note_on_c, 9, 42, 80
12, 17760, Note_on_c, 9, 42, 0
12, 17760, Note_on_c, 9, 42, 80
12, 17820, Note_on_c, 9, 42, 0
12, 17820, Note_on_c, 9, 42, 80
12, 17880, Note_on_c, 9, 42, 0
12, 17880, Note_on_c, 9, 42, 80
12, 17940, Note_on_c, 9, 42, 0
12, 17940, Note_on_c, 9, 42, 80
12, 18000, Note_on_c, 9, 42, 0
12, 18000, Note_on_c, 9, 42, 80
12, 18060, Note_on_c, 9, 42, 0
12, 18060, Note_on_c, 9, 42, 80
12, 18120, Note_on_c, 9, 42, 0
12, 18120, Note_on_c, 9, 42, 80
12, 18180, Note_on_c, 9, 42, 0
12, 18180, Note_on_c, 9, 42, 80
12, 18240, Note_on_c, 9, 42, 0
12, 18240, Note_on_c, 9, 42, 80
12, 18300, Note_on_c, 9, 42, 0
12, 18300, Note_on_c, 9, 42, 80
12, 18360, Note_on_c, 9, 42, 0
12, 18360, Note_on_c, 9, 42, 80
12, 18420, Note_on_c, 9, 42, 0
12, 18420, Note_on_c, 9, 42, 80
12, 18480, Note_on_c, 9, 42, 0
12, 18480, Note_on_c, 9, 42, 80
12, 18540, Note_on_c, 9, 42, 0
12, 18540, Note_on_c, 9, 42, 80
12, 18600, Note_on_c, 9, 42, 0
12, 18600, Note_on_c, 9, 42, 80
12, 18660, Note_on_c, 9, 42, 0
12, 18660, Note_on_c, 9, 42, 80
12, 18720, Note_on_c, 9, 42, 0
12, 18720, Note_on_c, 9, 42, 80
12, 18780, Note_on_c, 9, 42, 0
12, 18780, Note_on_c, 9, 42, 80
12, 18840, Note_on_c, 9, 42, 0
12, 18840, Note_on_c, 9, 42, 80
12, 18900, Note_on_c, 9, 42, 0
12, 18900, Note_on_c, 9, 42, 80
12, 18960, Note_on_c, 9, 42, 0
12, 18960, Note_on_c, 9, 42, 80
12, 19020, Note_on_c, 9, 42, 0
12, 19020, Note_on_c, 9, 42, 80
12, 19080, Note_on_c, 9, 42, 0
12, 19080, Note_on_c, 9, 42, 80
12, 19140, Note_on_c, 9, 42, 0
12, 19140, Note_on_c, 9, 42, 80
12, 19200, Note_on_c, 9, 42, 0
12, 19200, Note_on_c, 9, 42, 80
12, 19260, Note_on_c, 9, 42, 0
12, 19260, Note_on_c, 9, 42, 80
12, 19320, Note_on_c, 9, 42, 0
12, 19320, Note_on_c, 9, 42, 80
12, 19380, Note_on_c, 9, 42, 0
12, 19380, Note_on_c, 9, 42, 80
12, 19440, Note_on_c, 9, 42, 0
12, 19440, Note_on_c, 9, 42, 80
12, 19500, Note_on_c, 9, 42, 0
12, 19500, Note_on_c, 9, 42, 80
12, 19560, Note_on_c, 9, 42, 0
12, 19560, Note_on_c, 9, 42, 80
12, 19620, Note_on_c, 9, 42, 0
12, 19620, Note_on_c, 9, 42, 80
12, 19680, Note_on_c, 9, 42, 0
12, 19680, Note_on_c, 9, 42, 80
12, 19740, Note_on_c, 9, 42, 0
12, 19740, Note_on_c, 9, 42, 80
12, 19800, Note_on_c, 9, 42, 0
12, 19800, Note_on_c, 9, 42, 80
12, 19860, Note_on_c, 9, 42, 0
12, 19860, Note_on_c, 9, 42, 80
12, 19920, Note_on_c, 9, 42, 0
12, 19920, Note_on_c, 9, 42, 80
12, 19980, Note_on_c, 9, 42, 0
12, 19980, Note_on_c, 9, 42, 80
12, 20040, Note_on_c, 9, 42, 0
12, 20040, Note_on_c, 9, 42, 80
12, 20100, Note_on_c, 9, 42, 0
12, 20100, Note_on_c, 9, 42, 80
12, 20160, Note_on_c, 9, 42, 0
12, 20160, Note_on_c, 9, 42, 80
12, 20220, Note_on_c, 9, 42, 0
12, 20220, Note_on_c, 9, 42, 80
12, 20280, Note_on_c, 9, 42, 0
12, 20280, Note_on_c, 9, 42, 80
12, 20340, Note_on_c, 9, 42, 0
12, 20340, Note_on_c, 9, 42, 80
12, 20400, Note_on_c, 9, 42, 0
12, 20400, Note_on_c, 9, 42, 80
12, 20460, Note_on_c, 9, 42, 0
12, 20460, Note_on_c, 9, 42, 80
12, 20520, Note_on_c, 9, 42, 0
12, 20520, Note_on_c, 9, 42, 80
12, 20580, Note_on_c, 9, 42, 0
12, 20580, Note_on_c, 9, 42, 80
12, 20640, Note_on_c, 9, 42, 0
12, 20640, Note_on_c, 9, 42, 80
12, 20700, Note_on_c, 9, 42, 0
12, 20700, Note_on_c, 9, 42, 80
12, 20760, Note_on_c, 9, 42, 0
12, 20760, Note_on_c, 9, 42, 80
12, 20820, Note_on_c, 9, 42, 0
12, 20820, Note_on_c, 9, 42, 80
12, 20880, Note_on_c, 9, 42, 0
12, 20880, Note_on_c, 9, 42, 80
12, 20940, Note_on_c, 9, 42, 0
12, 20940, Note_on_c, 9, 42, 80
12, 21000, Note_on_c, 9, 42, 0
12, 21000, Note_on_c, 9, 42, 80
12, 21060, Note_on_c, 9, 42, 0
12, 21060, Note_on_c, 9, 42, 80
12, 21120, Note_on_c, 9, 42, 0
12, 21120, Note_on_c, 9, 42, 80
12, 21180, Note_on_c, 9, 42, 0
12, 21180, Note_on_c, 9, 42, 80
12, 21240, Note_on_c, 9, 42, 0
12, 21240, Note_on_c, 9, 42, 80
12, 21300, Note_on_c, 9, 42, 0
12, 21300, Note_on_c, 9, 42, 80
12, 21360, Note_on_c, 9, 42, 0
12, 21360, Note_on_c, 9, 42, 80
12, 21420, Note_on_c, 9, 42, 0
12, 21420, Note_on_c, 9, 42, 80
12, 21480, Note_on_c, 9, 42, 0
12, 21480, Note_on_c, 9, 42, 80
12, 21540, Note_on_c, 9, 42, 0
12, 21540, Note_on_c, 9, 42, 80
12, 21600, Note_on_c, 9, 42, 0
12, 21600, Note_on_c, 9, 42, 80
12, 21660, Note_on_c, 9, 42, 0
12, 21660, Note_on_c, 9, 42, 80
12, 21720, Note_on_c, 9, 42, 0
12, 21720, Note_on_c, 9, 42, 80
12, 21780, Note_on_c, 9, 42, 0
12, 21780, Note_on_c, 9, 42, 80
12, 21840, Note_on_c, 9, 42, 0
12, 21840, Note_on_c, 9, 42, 80
12, 21900, Note_on_c, 9, 42, 0
12, 21900, Note_on_c, 9, 42, 80
12, 21960, Note_on_c, 9, 42, 0
12, 21960, Note_on_c, 9, 42, 80
12, 22020, Note_on_c, 9, 42, 0
12, 22020, Note_on_c, 9, 42, 80
12, 22080, Note_on_c, 9, 42, 0
12, 22080, Note_on_c, 9, 42, 80
12, 22140, Note_on_c, 9, 42, 0
12, 22140, Note_on_c, 9, 42, 80
12, 22200, Note_on_c, 9, 42, 0
12, 22200, Note_on_c, 9, 42, 80
12, 22260, Note_on_c, 9, 42, 0
12, 22260, Note_on_c, 9, 42, 80
12, 22320, Note_on_c, 9, 42, 0
12, 22380, Note_on_c, 9, 42, 0
12, 22380, Note_on_c, 9, 42, 80
12, 22500, Note_on_c, 9, 42, 0
12, 23400, Note_on_c, 9, 42, 80
12, 23460, Note_on_c, 9, 42, 80
12, 23520, Note_on_c, 9, 42, 0
12, 23520, Note_on_c, 9, 40, 125
12, 23520, Note_on_c, 9, 42, 80
12, 23580, Note_on_c, 9, 42, 0
12, 23580, Note_on_c, 9, 36, 125
12, 23580, Note_on_c, 9, 42, 80
12, 23640, Note_on_c, 9, 42, 0
12, 23640, Note_on_c, 9, 40, 0
12, 23640, Note_on_c, 9, 42, 80
12, 23700, Note_on_c, 9, 36, 0
12, 23700, Note_on_c, 9, 42, 0
12, 23700, Note_on_c, 9, 42, 80
12, 23760, Note_on_c, 9, 42, 0
12, 23760, Note_on_c, 9, 42, 80
12, 23820, Note_on_c, 9, 42, 0
12, 23820, Note_on_c, 9, 36, 125
12, 23820, Note_on_c, 9, 42, 80
12, 23880, Note_on_c, 9, 42, 0
12, 23880, Note_on_c, 9, 42, 80
12, 23940, Note_on_c, 9, 42, 0
12, 23940, Note_on_c, 9, 36, 0
12, 23940, Note_on_c, 9, 42, 80
12, 24000, Note_on_c, 9, 42, 0
12, 24000, Note_on_c, 9, 40, 125
12, 24000, Note_on_c, 9, 42, 80
12, 24060, Note_on_c, 9, 42, 0
12, 24060, Note_on_c, 9, 36, 125
12, 24060, Note_on_c, 9, 42, 80
12, 24120, Note_on_c, 9, 42, 0
12, 24120, Note_on_c, 9, 40, 0
12, 24120, Note_on_c, 9, 42, 80
12, 24180, Note_on_c, 9, 36, 0
12, 24180, Note_on_c, 9, 42, 0
12, 24180, Note_on_c, 9, 36, 125
12, 24180, Note_on_c, 9, 42, 80
12, 24240, Note_on_c, 9, 42, 0
12, 24240, Note_on_c, 9, 42, 80
12, 24300, Note_on_c, 9, 42, 0
12, 24300, Note_on_c, 9, 36, 0
12, 24300, Note_on_c, 9, 36, 125
12, 24300, Note_on_c, 9, 42, 80
12, 24360, Note_on_c, 9, 42, 0
12, 24360, Note_on_c, 9, 42, 80
12, 24420, Note_on_c, 9, 42, 0
12, 24420, Note_on_c, 9, 36, 0
12, 24420, Note_on_c, 9, 42, 80
12, 24480, Note_on_c, 9, 42, 0
12, 24480, Note_on_c, 9, 40, 125
12, 24480, Note_on_c, 9, 42, 80
12, 24540, Note_on_c, 9, 42, 0
12, 24540, Note_on_c, 9, 36, 125
12, 24540, Note_on_c, 9, 42, 80
12, 24600, Note_on_c, 9, 42, 0
12, 24600, Note_on_c, 9, 40, 0
12, 24600, Note_on_c, 9, 42, 80
12, 24660, Note_on_c, 9, 36, 0
12, 24660, Note_on_c, 9, 42, 0
12, 24660, Note_on_c, 9, 42, 80
12, 24720, Note_on_c, 9, 42, 0
12, 24720, Note_on_c, 9, 42, 80
12, 24780, Note_on_c, 9, 42, 0
12, 24780, Note_on_c, 9, 36, 125
12, 24780, Note_on_c, 9, 42, 80
12, 24840, Note_on_c, 9, 42, 0
12, 24840, Note_on_c, 9, 42, 80
12, 24900, Note_on_c, 9, 42, 0
12, 24900, Note_on_c, 9, 36, 0
12, 24900, Note_on_c, 9, 42, 80
12, 24960, Note_on_c, 9, 42, 0
12, 24960, Note_on_c, 9, 40, 125
12, 24960, Note_on_c, 9, 42, 80
12, 25020, Note_on_c, 9, 42, 0
12, 25020, Note_on_c, 9, 36, 125
12, 25020, Note_on_c, 9, 42, 80
12, 25080, Note_on_c, 9, 42, 0
12, 25080, Note_on_c, 9, 40, 0
12, 25080, Note_on_c, 9, 42, 80
12, 25140, Note_on_c, 9, 36, 0
12, 25140, Note_on_c, 9, 42, 0
12, 25140, Note_on_c, 9, 42, 80
12, 25200, Note_on_c, 9, 42, 0
12, 25200, Note_on_c, 9, 42, 80
12, 25260, Note_on_c, 9, 42, 0
12, 25260, Note_on_c, 9, 36, 125
12, 25260, Note_on_c, 9, 42, 80
12, 25320, Note_on_c, 9, 42, 0
12, 25320, Note_on_c, 9, 42, 80
12, 25380, Note_on_c, 9, 42, 0
12, 25380, Note_on_c, 9, 36, 0
12, 25380, Note_on_c, 9, 42, 80
12, 25440, Note_on_c, 9, 42, 0
12, 25440, Note_on_c, 9, 40, 125
12, 25440, Note_on_c, 9, 42, 80
12, 25500, Note_on_c, 9, 42, 0
12, 25500, Note_on_c, 9, 36, 125
12, 25500, Note_on_c, 9, 42, 80
12, 25560, Note_on_c, 9, 42, 0
12, 25560, Note_on_c, 9, 40, 0
12, 25560, Note_on_c, 9, 42, 80
12, 25620, Note_on_c, 9, 36, 0
12, 25620, Note_on_c, 9, 42, 0
12, 25620, Note_on_c, 9, 42, 80
12, 25680, Note_on_c, 9, 42, 0
12, 25680, Note_on_c, 9, 42, 80
12, 25740, Note_on_c, 9, 42, 0
12, 25740, Note_on_c, 9, 42, 80
12, 25800, Note_on_c, 9, 42, 0
12, 25800, Note_on_c, 9, 42, 80
12, 25860, Note_on_c, 9, 42, 0
12, 25860, Note_on_c, 9, 42, 80
12, 25920, Note_on_c, 9, 42, 0
12, 25920, Note_on_c, 9, 40, 125
12, 25920, Note_on_c, 9, 42, 80
12, 25980, Note_on_c, 9, 42, 0
12, 25980, Note_on_c, 9, 36, 125
12, 25980, Note_on_c, 9, 42, 80
12, 26040, Note_on_c, 9, 42, 0
12, 26040, Note_on_c, 9, 40, 0
12, 26040, Note_on_c, 9, 42, 80
12, 26100, Note_on_c, 9, 36, 0
12, 26100, Note_on_c, 9, 42, 0
12, 26100, Note_on_c, 9, 42, 80
12, 26160, Note_on_c, 9, 42, 0
12, 26160, Note_on_c, 9, 42, 80
12, 26220, Note_on_c, 9, 42, 0
12, 26220, Note_on_c, 9, 42, 80
12, 26280, Note_on_c, 9, 42, 0
12, 26280, Note_on_c, 9, 42, 80
12, 26340, Note_on_c, 9, 42, 0
12, 26340, Note_on_c, 9, 42, 80
12, 26400, Note_on_c, 9, 42, 0
12, 26400, Note_on_c, 9, 40, 125
12, 26400, Note_on_c, 9, 42, 80
12, 26460, Note_on_c, 9, 42, 0
12, 26460, Note_on_c, 9, 36, 125
12, 26460, Note_on_c, 9, 42, 80
12, 26520, Note_on_c, 9, 42, 0
12, 26520, Note_on_c, 9, 40, 0
12, 26520, Note_on_c, 9, 42, 80
12, 26580, Note_on_c, 9, 36, 0
12, 26580, Note_on_c, 9, 42, 0
12, 26580, Note_on_c, 9, 42, 80
12, 26640, Note_on_c, 9, 42, 0
12, 26640, Note_on_c, 9, 42, 80
12, 26700, Note_on_c, 9, 42, 0
12, 26700, Note_on_c, 9, 42, 80
12, 26760, Note_on_c, 9, 42, 0
12, 26760, Note_on_c, 9, 42, 80
12, 26820, Note_on_c, 9, 42, 0
12, 26820, Note_on_c, 9, 42, 80
12, 26880, Note_on_c, 9, 42, 0
12, 26880, Note_on_c, 9, 40, 125
12, 26880, Note_on_c, 9, 42, 80
12, 26940, Note_on_c, 9, 42, 0
12, 26940, Note_on_c, 9, 36, 125
12, 26940, Note_on_c, 9, 42, 80
12, 27000, Note_on_c, 9, 42, 0
12, 27000, Note_on_c, 9, 40, 0
12, 27000, Note_on_c, 9, 42, 80
12, 27060, Note_on_c, 9, 36, 0
12, 27060, Note_on_c, 9, 42, 0
12, 27060, Note_on_c, 9, 42, 80
12, 27120, Note_on_c, 9, 42, 0
12, 27120, Note_on_c, 9, 42, 80
12, 27180, Note_on_c, 9, 42, 0
12, 27180, Note_on_c, 9, 42, 80
12, 27240, Note_on_c, 9, 42, 0
12, 27240, Note_on_c, 9, 42, 80
12, 27300, Note_on_c, 9, 42, 0
12, 27300, Note_on_c, 9, 42, 80
12, 27360, Note_on_c, 9, 42, 0
12, 27360, Note_on_c, 9, 40, 125
12, 27360, Note_on_c, 9, 42, 80
12, 27420, Note_on_c, 9, 42, 0
12, 27420, Note_on_c, 9, 36, 125
12, 27420, Note_on_c, 9, 42, 80
12, 27480, Note_on_c, 9, 42, 0
12, 27480, Note_on_c, 9, 40, 0
12, 27540, Note_on_c, 9, 36, 0
12, 27540, Note_on_c, 9, 42, 0
12, 27570, Note_on_c, 9, 40, 125
12, 27600, Note_on_c, 9, 42, 80
12, 27660, Note_on_c, 9, 42, 80
12, 27690, Note_on_c, 9, 40, 0
12, 27720, Note_on_c, 9, 42, 0
12, 27720, Note_on_c, 9, 42, 80
12, 27780, Note_on_c, 9, 42, 0
12, 27780, Note_on_c, 9, 42, 80
12, 27840, Note_on_c, 9, 42, 0
12, 27840, Note_on_c, 9, 42, 80
12, 27900, Note_on_c, 9, 42, 0
12, 27900, Note_on_c, 9, 42, 80
12, 27960, Note_on_c, 9, 42, 0
12, 27960, Note_on_c, 9, 42, 80
12, 28020, Note_on_c, 9, 42, 0
12, 28020, Note_on_c, 9, 42, 80
12, 28080, Note_on_c, 9, 42, 0
12, 28080, Note_on_c, 9, 42, 80
12, 28140, Note_on_c, 9, 42, 0
12, 28140, Note_on_c, 9, 42, 80
12, 28200, Note_on_c, 9, 42, 0
12, 28200, Note_on_c, 9, 42, 80
12, 28260, Note_on_c, 9, 42, 0
12, 28260, Note_on_c, 9, 42, 80
12, 28320, Note_on_c, 9, 42, 0
12, 28320, Note_on_c, 9, 42, 80
12, 28380, Note_on_c, 9, 42, 0
12, 28380, Note_on_c, 9, 42, 80
12, 28440, Note_on_c, 9, 42, 0
12, 28440, Note_on_c, 9, 42, 80
12, 28500, Note_on_c, 9, 42, 0
12, 28500, Note_on_c, 9, 42, 80
12, 28560, Note_on_c, 9, 42, 0
12, 28560, Note_on_c, 9, 42, 80
12, 28620, Note_on_c, 9, 42, 0
12, 28620, Note_on_c, 9, 42, 80
12, 28680, Note_on_c, 9, 42, 0
12, 28680, Note_on_c, 9, 42, 80
12, 28740, Note_on_c, 9, 42, 0
12, 28740, Note_on_c, 9, 42, 80
12, 28800, Note_on_c, 9, 42, 0
12, 28800, Note_on_c, 9, 42, 80
12, 28860, Note_on_c, 9, 42, 0
12, 28860, Note_on_c, 9, 42, 80
12, 28920, Note_on_c, 9, 42, 0
12, 28920, Note_on_c, 9, 42, 80
12, 28980, Note_on_c, 9, 42, 0
12, 28980, Note_on_c, 9, 42, 80
12, 29040, Note_on_c, 9, 42, 0
12, 29040, Note_on_c, 9, 42, 80
12, 29100, Note_on_c, 9, 42, 0
12, 29100, Note_on_c, 9, 42, 80
12, 29160, Note_on_c, 9, 42, 0
12, 29160, Note_on_c, 9, 42, 80
12, 29220, Note_on_c, 9, 42, 0
12, 29220, Note_on_c, 9, 42, 80
12, 29280, Note_on_c, 9, 42, 0
12, 29280, Note_on_c, 9, 42, 80
12, 29340, Note_on_c, 9, 42, 0
12, 29340, Note_on_c, 9, 42, 80
12, 29400, Note_on_c, 9, 42, 0
12, 29400, Note_on_c, 9, 42, 80
12, 29460, Note_on_c, 9, 42, 0
12, 29460, Note_on_c, 9, 42, 80
12, 29520, Note_on_c, 9, 42, 0
12, 29520, Note_on_c, 9, 42, 80
12, 29580, Note_on_c, 9, 42, 0
12, 29580, Note_on_c, 9, 42, 80
12, 29640, Note_on_c, 9, 42, 0
12, 29640, Note_on_c, 9, 42, 80
12, 29700, Note_on_c, 9, 42, 0
12, 29700, Note_on_c, 9, 42, 80
12, 29760, Note_on_c, 9, 42, 0
12, 29760, Note_on_c, 9, 42, 80
12, 29820, Note_on_c, 9, 42, 0
12, 29820, Note_on_c, 9, 42, 80
12, 29880, Note_on_c, 9, 42, 0
12, 29880, Note_on_c, 9, 42, 80
12, 29940, Note_on_c, 9, 42, 0
12, 29940, Note_on_c, 9, 42, 80
12, 30000, Note_on_c, 9, 42, 0
12, 30000, Note_on_c, 9, 42, 80
12, 30060, Note_on_c, 9, 42, 0
12, 30060, Note_on_c, 9, 42, 80
12, 30120, Note_on_c, 9, 42, 0
12, 30120, Note_on_c, 9, 42, 80
12, 30180, Note_on_c, 9, 42, 0
12, 30180, Note_on_c, 9, 42, 80
12, 30240, Note_on_c, 9, 42, 0
12, 30240, Note_on_c, 9, 42, 80
12, 30300, Note_on_c, 9, 42, 0
12, 30300, Note_on_c, 9, 42, 80
12, 30360, Note_on_c, 9, 42, 0
12, 30360, Note_on_c, 9, 42, 80
12, 30420, Note_on_c, 9, 42, 0
12, 30420, Note_on_c, 9, 42, 80
12, 30480, Note_on_c, 9, 42, 0
12, 30480, Note_on_c, 9, 42, 80
12, 30540, Note_on_c, 9, 42, 0
12, 30540, Note_on_c, 9, 42, 80
12, 30600, Note_on_c, 9, 42, 0
12, 30600, Note_on_c, 9, 42, 80
12, 30660, Note_on_c, 9, 42, 0
12, 30660, Note_on_c, 9, 42, 80
12, 30720, Note_on_c, 9, 42, 0
12, 30720, Note_on_c, 9, 42, 80
12, 30780, Note_on_c, 9, 42, 0
12, 30780, Note_on_c, 9, 42, 80
12, 30840, Note_on_c, 9, 42, 0
12, 30840, Note_on_c, 9, 42, 80
12, 30900, Note_on_c, 9, 42, 0
12, 30900, Note_on_c, 9, 42, 80
12, 30960, Note_on_c, 9, 42, 0
12, 30960, Note_on_c, 9, 42, 80
12, 31020, Note_on_c, 9, 42, 0
12, 31020, Note_on_c, 9, 42, 80
12, 31080, Note_on_c, 9, 42, 0
12, 31080, Note_on_c, 9, 42, 80
12, 31140, Note_on_c, 9, 42, 0
12, 31140, Note_on_c, 9, 42, 80
12, 31200, Note_on_c, 9, 42, 0
12, 31200, Note_on_c, 9, 42, 80
12, 31260, Note_on_c, 9, 42, 0
12, 31260, Note_on_c, 9, 42, 80
12, 31320, Note_on_c, 9, 42, 0
12, 31320, Note_on_c, 9, 42, 80
12, 31380, Note_on_c, 9, 42, 0
12, 31380, Note_on_c, 9, 42, 80
12, 31440, Note_on_c, 9, 42, 0
12, 31440, Note_on_c, 9, 42, 80
12, 31500, Note_on_c, 9, 42, 0
12, 31500, Note_on_c, 9, 42, 80
12, 31560, Note_on_c, 9, 42, 0
12, 31560, Note_on_c, 9, 42, 80
12, 31620, Note_on_c, 9, 42, 0
12, 31620, Note_on_c, 9, 42, 80
12, 31680, Note_on_c, 9, 42, 0
12, 31680, Note_on_c, 9, 42, 80
12, 31740, Note_on_c, 9, 42, 0
12, 31740, Note_on_c, 9, 42, 80
12, 31800, Note_on_c, 9, 42, 0
12, 31800, Note_on_c, 9, 42, 80
12, 31860, Note_on_c, 9, 42, 0
12, 31860, Note_on_c, 9, 42, 80
12, 31920, Note_on_c, 9, 42, 0
12, 31920, Note_on_c, 9, 42, 80
12, 31980, Note_on_c, 9, 42, 0
12, 31980, Note_on_c, 9, 42, 80
12, 32040, Note_on_c, 9, 42, 0
12, 32040, Note_on_c, 9, 42, 80
12, 32100, Note_on_c, 9, 42, 0
12, 32100, Note_on_c, 9, 42, 80
12, 32160, Note_on_c, 9, 42, 0
12, 32160, Note_on_c, 9, 42, 80
12, 32220, Note_on_c, 9, 42, 0
12, 32220, Note_on_c, 9, 42, 80
12, 32280, Note_on_c, 9, 42, 0
12, 32280, Note_on_c, 9, 42, 80
12, 32340, Note_on_c, 9, 42, 0
12, 32340, Note_on_c, 9, 42, 80
12, 32400, Note_on_c, 9, 42, 0
12, 32400, Note_on_c, 9, 42, 80
12, 32460, Note_on_c, 9, 42, 0
12, 32460, Note_on_c, 9, 42, 80
12, 32520, Note_on_c, 9, 42, 0
12, 32520, Note_on_c, 9, 42, 80
12, 32580, Note_on_c, 9, 42, 0
12, 32580, Note_on_c, 9, 42, 80
12, 32640, Note_on_c, 9, 42, 0
12, 32640, Note_on_c, 9, 42, 80
12, 32700, Note_on_c, 9, 42, 0
12, 32700, Note_on_c, 9, 42, 80
12, 32760, Note_on_c, 9, 42, 0
12, 32760, Note_on_c, 9, 42, 80
12, 32820, Note_on_c, 9, 42, 0
12, 32820, Note_on_c, 9, 42, 80
12, 32880, Note_on_c, 9, 42, 0
12, 32880, Note_on_c, 9, 42, 80
12, 32940, Note_on_c, 9, 42, 0
12, 32940, Note_on_c, 9, 42, 80
12, 33000, Note_on_c, 9, 42, 0
12, 33000, Note_on_c, 9, 42, 80
12, 33060, Note_on_c, 9, 42, 0
12, 33060, Note_on_c, 9, 42, 80
12, 33120, Note_on_c, 9, 42, 0
12, 33120, Note_on_c, 9, 42, 80
12, 33180, Note_on_c, 9, 42, 0
12, 33180, Note_on_c, 9, 42, 80
12, 33240, Note_on_c, 9, 42, 0
12, 33300, Note_on_c, 9, 42, 0
12, 33300, Note_on_c, 9, 42, 80
12, 33420, Note_on_c, 9, 42, 0
12, 33420, Note_on_c, 9, 42, 80
12, 33480, Note_on_c, 9, 42, 80
12, 33540, Note_on_c, 9, 42, 0
12, 33540, Note_on_c, 9, 42, 80
12, 33600, Note_on_c, 9, 42, 0
12, 33600, Note_on_c, 9, 42, 80
12, 33660, Note_on_c, 9, 42, 0
12, 33660, Note_on_c, 9, 42, 80
12, 33720, Note_on_c, 9, 42, 0
12, 33720, Note_on_c, 9, 42, 80
12, 33780, Note_on_c, 9, 42, 0
12, 33780, Note_on_c, 9, 42, 80
12, 33840, Note_on_c, 9, 42, 0
12, 33840, Note_on_c, 9, 42, 80
12, 33900, Note_on_c, 9, 42, 0
12, 33900, Note_on_c, 9, 42, 80
12, 33960, Note_on_c, 9, 42, 0
12, 33960, Note_on_c, 9, 40, 125
12, 33960, Note_on_c, 9, 42, 80
12, 34020, Note_on_c, 9, 42, 0
12, 34020, Note_on_c, 9, 42, 80
12, 34080, Note_on_c, 9, 42, 0
12, 34080, Note_on_c, 9, 40, 0
12, 34080, Note_on_c, 9, 42, 80
12, 34140, Note_on_c, 9, 42, 0
12, 34140, Note_on_c, 9, 42, 80
12, 34200, Note_on_c, 9, 42, 0
12, 34200, Note_on_c, 9, 42, 80
12, 34260, Note_on_c, 9, 42, 0
12, 34260, Note_on_c, 9, 36, 125
12, 34260, Note_on_c, 9, 42, 80
12, 34320, Note_on_c, 9, 42, 0
12, 34380, Note_on_c, 9, 42, 0
12, 34380, Note_on_c, 9, 36, 0
12, 34380, Note_on_c, 9, 36, 125
12, 34380, Note_on_c, 9, 42, 80
12, 34440, Note_on_c, 9, 40, 124
12, 34440, Note_on_c, 9, 42, 80
12, 34500, Note_on_c, 9, 42, 0
12, 34500, Note_on_c, 9, 36, 0
12, 34500, Note_on_c, 9, 42, 80
12, 34560, Note_on_c, 9, 40, 0
12, 34560, Note_on_c, 9, 42, 0
12, 34620, Note_on_c, 9, 42, 0
12, 34620, Note_on_c, 9, 42, 80
12, 34680, Note_on_c, 9, 42, 80
12, 34740, Note_on_c, 9, 42, 0
12, 34740, Note_on_c, 9, 36, 125
12, 34740, Note_on_c, 9, 42, 80
12, 34800, Note_on_c, 9, 42, 0
12, 34860, Note_on_c, 9, 42, 0
12, 34860, Note_on_c, 9, 36, 0
12, 34860, Note_on_c, 9, 42, 80
12, 34920, Note_on_c, 9, 40, 125
12, 34920, Note_on_c, 9, 42, 80
12, 34980, Note_on_c, 9, 42, 0
12, 34980, Note_on_c, 9, 42, 80
12, 35040, Note_on_c, 9, 42, 0
12, 35040, Note_on_c, 9, 40, 0
12, 35040, Note_on_c, 9, 42, 80
12, 35100, Note_on_c, 9, 42, 0
12, 35100, Note_on_c, 9, 40, 125
12, 35100, Note_on_c, 9, 42, 80
12, 35160, Note_on_c, 9, 42, 0
12, 35220, Note_on_c, 9, 42, 0
12, 35220, Note_on_c, 9, 40, 0
12, 35220, Note_on_c, 9, 40, 125
12, 35280, Note_on_c, 9, 42, 80
12, 35340, Note_on_c, 9, 40, 0
12, 35340, Note_on_c, 9, 42, 80
12, 35400, Note_on_c, 9, 42, 0
12, 35400, Note_on_c, 9, 40, 125
12, 35400, Note_on_c, 9, 42, 80
12, 35460, Note_on_c, 9, 42, 0
12, 35460, Note_on_c, 9, 36, 125
12, 35460, Note_on_c, 9, 42, 80
12, 35520, Note_on_c, 9, 42, 0
12, 35520, Note_on_c, 9, 40, 0
12, 35520, Note_on_c, 9, 42, 80
12, 35580, Note_on_c, 9, 36, 0
12, 35580, Note_on_c, 9, 42, 0
12, 35580, Note_on_c, 9, 42, 80
12, 35640, Note_on_c, 9, 42, 0
12, 35640, Note_on_c, 9, 42, 80
12, 35700, Note_on_c, 9, 42, 0
12, 35700, Note_on_c, 9, 36, 125
12, 35700, Note_on_c, 9, 42, 80
12, 35760, Note_on_c, 9, 42, 0
12, 35760, Note_on_c, 9, 42, 80
12, 35820, Note_on_c, 9, 42, 0
12, 35820, Note_on_c, 9, 36, 0
12, 35820, Note_on_c, 9, 42, 80
12, 35880, Note_on_c, 9, 42, 0
12, 35880, Note_on_c, 9, 40, 125
12, 35880, Note_on_c, 9, 42, 80
12, 35940, Note_on_c, 9, 42, 0
12, 35940, Note_on_c, 9, 42, 80
12, 36000, Note_on_c, 9, 42, 0
12, 36000, Note_on_c, 9, 40, 0
12, 36000, Note_on_c, 9, 42, 80
12, 36060, Note_on_c, 9, 42, 0
12, 36060, Note_on_c, 9, 42, 80
12, 36120, Note_on_c, 9, 42, 0
12, 36120, Note_on_c, 9, 42, 80
12, 36180, Note_on_c, 9, 42, 0
12, 36180, Note_on_c, 9, 36, 125
12, 36180, Note_on_c, 9, 42, 80
12, 36240, Note_on_c, 9, 42, 0
12, 36300, Note_on_c, 9, 42, 0
12, 36300, Note_on_c, 9, 36, 0
12, 36300, Note_on_c, 9, 36, 125
12, 36300, Note_on_c, 9, 42, 80
12, 36360, Note_on_c, 9, 40, 124
12, 36360, Note_on_c, 9, 42, 80
12, 36420, Note_on_c, 9, 42, 0
12, 36420, Note_on_c, 9, 36, 0
12, 36420, Note_on_c, 9, 42, 80
12, 36480, Note_on_c, 9, 40, 0
12, 36480, Note_on_c, 9, 42, 0
12, 36540, Note_on_c, 9, 42, 0
12, 36540, Note_on_c, 9, 42, 80
12, 36600, Note_on_c, 9, 42, 80
12, 36660, Note_on_c, 9, 42, 0
12, 36660, Note_on_c, 9, 36, 125
12, 36660, Note_on_c, 9, 42, 80
12, 36720, Note_on_c, 9, 42, 0
12, 36780, Note_on_c, 9, 42, 0
12, 36780, Note_on_c, 9, 36, 0
12, 36780, Note_on_c, 9, 42, 80
12, 36840, Note_on_c, 9, 40, 125
12, 36840, Note_on_c, 9, 42, 80
12, 36900, Note_on_c, 9, 42, 0
12, 36900, Note_on_c, 9, 42, 80
12, 36960, Note_on_c, 9, 42, 0
12, 36960, Note_on_c, 9, 40, 0
12, 36960, Note_on_c, 9, 42, 80
12, 37020, Note_on_c, 9, 42, 0
12, 37020, Note_on_c, 9, 40, 125
12, 37020, Note_on_c, 9, 42, 80
12, 37080, Note_on_c, 9, 42, 0
12, 37140, Note_on_c, 9, 42, 0
12, 37140, Note_on_c, 9, 40, 0
12, 37140, Note_on_c, 9, 40, 125
12, 37200, Note_on_c, 9, 42, 80
12, 37260, Note_on_c, 9, 40, 0
12, 37260, Note_on_c, 9, 42, 78
12, 37320, Note_on_c, 9, 42, 0
12, 37320, Note_on_c, 9, 40, 120
12, 37320, Note_on_c, 9, 42, 76
12, 37380, Note_on_c, 9, 42, 0
12, 37380, Note_on_c, 9, 36, 117
12, 37380, Note_on_c, 9, 42, 75
12, 37440, Note_on_c, 9, 42, 0
12, 37440, Note_on_c, 9, 40, 0
12, 37440, Note_on_c, 9, 42, 73
12, 37500, Note_on_c, 9, 36, 0
12, 37500, Note_on_c, 9, 42, 0
12, 37500, Note_on_c, 9, 42, 72
12, 37560, Note_on_c, 9, 42, 0
12, 37560, Note_on_c, 9, 42, 70
12, 37620, Note_on_c, 9, 42, 0
12, 37620, Note_on_c, 9, 36, 107
12, 37620, Note_on_c, 9, 42, 68
12, 37680, Note_on_c, 9, 42, 0
12, 37680, Note_on_c, 9, 42, 67
12, 37740, Note_on_c, 9, 42, 0
12, 37740, Note_on_c, 9, 36, 0
12, 37740, Note_on_c, 9, 42, 65
12, 37800, Note_on_c, 9, 42, 0
12, 37800, Note_on_c, 9, 40, 100
12, 37800, Note_on_c, 9, 42, 64
12, 37860, Note_on_c, 9, 42, 0
12, 37860, Note_on_c, 9, 42, 62
12, 37920, Note_on_c, 9, 42, 0
12, 37920, Note_on_c, 9, 40, 0
12, 37920, Note_on_c, 9, 42, 60
12, 37980, Note_on_c, 9, 42, 0
12, 37980, Note_on_c, 9, 42, 58
12, 38040, Note_on_c, 9, 42, 0
12, 38040, Note_on_c, 9, 42, 56
12, 38100, Note_on_c, 9, 42, 0
12, 38100, Note_on_c, 9, 36, 86
12, 38100, Note_on_c, 9, 42, 55
12, 38160, Note_on_c, 9, 42, 0
12, 38220, Note_on_c, 9, 42, 0
12, 38220, Note_on_c, 9, 36, 0
12, 38220, Note_on_c, 9, 36, 81
12, 38220, Note_on_c, 9, 42, 52
12, 38280, Note_on_c, 9, 40, 78
12, 38280, Note_on_c, 9, 42, 50
12, 38340, Note_on_c, 9, 42, 0
12, 38340, Note_on_c, 9, 36, 0
12, 38340, Note_on_c, 9, 42, 48
12, 38400, Note_on_c, 9, 40, 0
12, 38400, Note_on_c, 9, 42, 0
12, 38460, Note_on_c, 9, 42, 0
12, 38460, Note_on_c, 9, 42, 45
12, 38520, Note_on_c, 9, 42, 44
12, 38580, Note_on_c, 9, 42, 0
12, 38580, Note_on_c, 9, 36, 66
12, 38580, Note_on_c, 9, 42, 42
12, 38640, Note_on_c, 9, 42, 0
12, 38700, Note_on_c, 9, 42, 0
12, 38700, Note_on_c, 9, 36, 0
12, 38700, Note_on_c, 9, 42, 38
12, 38760, Note_on_c, 9, 40, 57
12, 38760, Note_on_c, 9, 42, 36
12, 38820, Note_on_c, 9, 42, 0
12, 38820, Note_on_c, 9, 42, 35
12, 38880, Note_on_c, 9, 42, 0
12, 38880, Note_on_c, 9, 40, 0
12, 38880, Note_on_c, 9, 42, 33
12, 38940, Note_on_c, 9, 42, 0
12, 38940, Note_on_c, 9, 40, 50
12, 38940, Note_on_c, 9, 42, 32
12, 39000, Note_on_c, 9, 42, 0
12, 39060, Note_on_c, 9, 42, 0
12, 39060, Note_on_c, 9, 40, 0
12, 39060, Note_on_c, 9, 40, 45
12, 39120, Note_on_c, 9, 42, 27
12, 39180, Note_on_c, 9, 40, 0
12, 39180, Note_on_c, 9, 42, 25
12, 39240, Note_on_c, 9, 42, 0
12, 39240, Note_on_c, 9, 40, 37
12, 39240, Note_on_c, 9, 42, 24
12, 39300, Note_on_c, 9, 42, 0
12, 39300, Note_on_c, 9, 36, 35
12, 39300, Note_on_c, 9, 42, 22
12, 39360, Note_on_c, 9, 42, 0
12, 39360, Note_on_c, 9, 40, 0
12, 39360, Note_on_c, 9, 42, 20
12, 39420, Note_on_c, 9, 36, 0
12, 39420, Note_on_c, 9, 42, 0
12, 39420, Note_on_c, 9, 42, 18
12, 39480, Note_on_c, 9, 42, 0
12, 39480, Note_on_c, 9, 42, 16
12, 39540, Note_on_c, 9, 42, 0
12, 39540, Note_on_c, 9, 36, 23
12, 39540, Note_on_c, 9, 42, 15
12, 39600, Note_on_c, 9, 42, 0
12, 39600, Note_on_c, 9, 42, 13
12, 39660, Note_on_c, 9, 42, 0
12, 39660, Note_on_c, 9, 36, 0
12, 39660, Note_on_c, 9, 42, 12
12, 39720, Note_on_c, 9, 42, 0
12, 39720, Note_on_c, 9, 40, 16
12, 39720, Note_on_c, 9, 42, 10
12, 39780, Note_on_c, 9, 42, 0
12, 39780, Note_on_c, 9, 36, 13
12, 39780, Note_on_c, 9, 42, 8
12, 39840, Note_on_c, 9, 42, 0
12, 39840, Note_on_c, 9, 40, 0
12, 39840, Note_on_c, 9, 42, 7
12, 39900, Note_on_c, 9, 36, 0
12, 39900, Note_on_c, 9, 42, 0
12, 39900, Note_on_c, 9, 42, 5
12, 39960, Note_on_c, 9, 42, 0
12, 39960, Note_on_c, 9, 42, 4
12, 40020, Note_on_c, 9, 42, 0
12, 40020, Note_on_c, 9, 36, 3
12, 40020, Note_on_c, 9, 42, 2
12, 40080, Note_on_c, 9, 42, 0
12, 40140, Note_on_c, 9, 42, 0
12, 40140, Note_on_c, 9, 36, 0
12, 40140, End_track
13, 0, Start_track
13, 0, MIDI_port, 0
13, 0, Program_c, 10, 85
13, 0, Control_c, 10, 7, 95
13, 0, Control_c, 10, 10, 127
13, 0, Control_c, 10, 1, 0
13, 20, Control_c, 10, 11, 64
13, 120, Control_c, 10, 65, 0
13, 120, Control_c, 10, 67, 0
13, 120, Control_c, 10, 93, 0
13, 120, Control_c, 10, 91, 64
13, 120, Control_c, 10, 64, 0
13, 120, Pitch_bend_c, 10, 8192
13, 120, Control_c, 10, 68, 0
13, 3540, Note_on_c, 10, 67, 100
13, 3620, Note_on_c, 10, 67, 0
13, 3780, Note_on_c, 10, 70, 100
13, 4140, Note_on_c, 10, 70, 0
13, 4320, Program_c, 10, 53
13, 4320, Note_on_c, 10, 68, 100
13, 4800, Note_on_c, 10, 68, 0
13, 4800, Note_on_c, 10, 67, 100
13, 5280, Note_on_c, 10, 67, 0
13, 5280, Note_on_c, 10, 68, 100
13, 5760, Note_on_c, 10, 68, 0
13, 5760, Note_on_c, 10, 67, 100
13, 6240, Note_on_c, 10, 67, 0
13, 6240, Program_c, 10, 85
13, 6240, Note_on_c, 10, 68, 100
13, 6295, Note_on_c, 10, 68, 0
13, 6300, Note_on_c, 10, 68, 100
13, 6400, Note_on_c, 10, 68, 0
13, 6420, Note_on_c, 10, 70, 100
13, 6660, Note_on_c, 10, 70, 0
13, 7860, Note_on_c, 10, 67, 100
13, 7940, Note_on_c, 10, 67, 0
13, 8100, Note_on_c, 10, 70, 100
13, 8460, Note_on_c, 10, 70, 0
13, 8640, Note_on_c, 10, 68, 100
13, 9120, Note_on_c, 10, 68, 0
13, 9120, Note_on_c, 10, 67, 100
13, 9600, Note_on_c, 10, 67, 0
13, 9600, Note_on_c, 10, 68, 100
13, 10080, Note_on_c, 10, 68, 0
13, 10080, Note_on_c, 10, 67, 100
13, 10560, Note_on_c, 10, 67, 0
13, 10560, Note_on_c, 10, 60, 100
13, 10560, Note_on_c, 10, 65, 100
13, 10920, Note_on_c, 10, 65, 0
13, 10920, Note_on_c, 10, 60, 0
13, 11040, Note_on_c, 10, 72, 100
13, 11095, Note_on_c, 10, 72, 0
13, 11100, Note_on_c, 10, 72, 100
13, 11155, Note_on_c, 10, 72, 0
13, 11160, Note_on_c, 10, 72, 100
13, 11215, Note_on_c, 10, 72, 0
13, 11220, Note_on_c, 10, 72, 100
13, 11275, Note_on_c, 10, 72, 0
13, 11280, Note_on_c, 10, 70, 100
13, 11460, Note_on_c, 10, 70, 0
13, 11460, Note_on_c, 10, 68, 100
13, 11460, Note_on_c, 10, 72, 100
13, 11940, Note_on_c, 10, 68, 0
13, 11940, Note_on_c, 10, 67, 100
13, 12180, Note_on_c, 10, 67, 0
13, 12180, Note_on_c, 10, 72, 0
13, 14760, Note_on_c, 10, 70, 100
13, 14820, Note_on_c, 10, 70, 0
13, 14820, Note_on_c, 10, 72, 100
13, 15300, Note_on_c, 10, 72, 0
13, 15360, Note_on_c, 10, 73, 100
13, 15840, Note_on_c, 10, 73, 0
13, 15840, Note_on_c, 10, 73, 100
13, 16200, Note_on_c, 10, 73, 0
13, 16200, Note_on_c, 10, 60, 100
13, 16260, Note_on_c, 10, 60, 0
13, 16260, Note_on_c, 10, 61, 100
13, 16670, Note_on_c, 10, 61, 0
13, 17940, Note_on_c, 10, 67, 100
13, 18020, Note_on_c, 10, 67, 0
13, 18180, Note_on_c, 10, 70, 100
13, 18540, Note_on_c, 10, 70, 0
13, 18720, Note_on_c, 10, 68, 100
13, 19200, Note_on_c, 10, 68, 0
13, 19200, Note_on_c, 10, 67, 100
13, 19680, Note_on_c, 10, 67, 0
13, 19680, Note_on_c, 10, 68, 100
13, 20160, Note_on_c, 10, 68, 0
13, 20160, Note_on_c, 10, 67, 100
13, 20640, Note_on_c, 10, 67, 0
13, 20640, Note_on_c, 10, 60, 100
13, 20640, Note_on_c, 10, 65, 100
13, 21000, Note_on_c, 10, 65, 0
13, 21000, Note_on_c, 10, 60, 0
13, 21480, Note_on_c, 10, 72, 100
13, 21535, Note_on_c, 10, 72, 0
13, 21540, Note_on_c, 10, 72, 100
13, 21595, Note_on_c, 10, 72, 0
13, 21600, Note_on_c, 10, 72, 100
13, 21655, Note_on_c, 10, 72, 0
13, 21660, Note_on_c, 10, 72, 100
13, 21715, Note_on_c, 10, 72, 0
13, 21720, Note_on_c, 10, 72, 100
13, 21840, Note_on_c, 10, 72, 0
13, 21840, Note_on_c, 10, 70, 100
13, 21895, Note_on_c, 10, 70, 0
13, 21900, Note_on_c, 10, 72, 100
13, 21955, Note_on_c, 10, 72, 0
13, 21960, Note_on_c, 10, 72, 100
13, 22015, Note_on_c, 10, 72, 0
13, 22020, Note_on_c, 10, 72, 100
13, 22075, Note_on_c, 10, 72, 0
13, 22080, Note_on_c, 10, 72, 100
13, 22135, Note_on_c, 10, 72, 0
13, 22140, Note_on_c, 10, 72, 100
13, 22195, Note_on_c, 10, 72, 0
13, 22200, Note_on_c, 10, 70, 100
13, 22380, Note_on_c, 10, 70, 0
13, 22380, Note_on_c, 10, 68, 100
13, 22380, Note_on_c, 10, 72, 100
13, 22860, Note_on_c, 10, 72, 0
13, 22860, Note_on_c, 10, 68, 0
13, 25680, Note_on_c, 10, 70, 100
13, 25740, Note_on_c, 10, 70, 0
13, 25740, Note_on_c, 10, 72, 100
13, 26220, Note_on_c, 10, 72, 0
13, 26280, Note_on_c, 10, 73, 100
13, 26760, Note_on_c, 10, 73, 0
13, 26760, Note_on_c, 10, 73, 100
13, 27120, Note_on_c, 10, 73, 0
13, 27120, Note_on_c, 10, 60, 100
13, 27180, Note_on_c, 10, 60, 0
13, 27180, Note_on_c, 10, 61, 100
13, 27590, Note_on_c, 10, 61, 0
13, 27720, Note_on_c, 10, 63, 100
13, 28200, Note_on_c, 10, 63, 0
13, 28860, Note_on_c, 10, 67, 100
13, 28940, Note_on_c, 10, 67, 0
13, 29100, Note_on_c, 10, 70, 100
13, 29460, Note_on_c, 10, 70, 0
13, 29640, Note_on_c, 10, 68, 100
13, 30120, Note_on_c, 10, 68, 0
13, 30120, Note_on_c, 10, 67, 100
13, 30600, Note_on_c, 10, 67, 0
13, 30600, Note_on_c, 10, 68, 100
13, 31080, Note_on_c, 10, 68, 0
13, 31080, Note_on_c, 10, 67, 100
13, 31560, Note_on_c, 10, 67, 0
13, 31560, Note_on_c, 10, 60, 100
13, 31560, Note_on_c, 10, 65, 100
13, 31920, Note_on_c, 10, 65, 0
13, 31920, Note_on_c, 10, 60, 0
13, 32400, Note_on_c, 10, 72, 100
13, 32455, Note_on_c, 10, 72, 0
13, 32460, Note_on_c, 10, 72, 100
13, 32515, Note_on_c, 10, 72, 0
13, 32520, Note_on_c, 10, 72, 100
13, 32575, Note_on_c, 10, 72, 0
13, 32580, Note_on_c, 10, 72, 100
13, 32635, Note_on_c, 10, 72, 0
13, 32640, Note_on_c, 10, 72, 100
13, 32760, Note_on_c, 10, 72, 0
13, 32760, Note_on_c, 10, 70, 100
13, 32815, Note_on_c, 10, 70, 0
13, 32820, Note_on_c, 10, 72, 100
13, 32875, Note_on_c, 10, 72, 0
13, 32880, Note_on_c, 10, 70, 100
13, 32935, Note_on_c, 10, 70, 0
13, 32940, Note_on_c, 10, 70, 100
13, 32995, Note_on_c, 10, 70, 0
13, 33000, Note_on_c, 10, 72, 100
13, 33055, Note_on_c, 10, 72, 0
13, 33060, Note_on_c, 10, 73, 100
13, 33115, Note_on_c, 10, 73, 0
13, 33120, Note_on_c, 10, 75, 100
13, 33300, Note_on_c, 10, 75, 0
13, 33300, Note_on_c, 10, 72, 100
13, 33300, Note_on_c, 10, 75, 100
13, 33840, Note_on_c, 10, 75, 0
13, 33840, Note_on_c, 10, 72, 0
13, 33840, Note_on_c, 10, 72, 100
13, 33840, Note_on_c, 10, 68, 100
13, 34130, Note_on_c, 10, 68, 0
13, 34130, Note_on_c, 10, 72, 0
13, 34140, Note_on_c, 10, 72, 100
13, 34140, Note_on_c, 10, 75, 100
13, 34190, Note_on_c, 10, 75, 0
13, 34190, Note_on_c, 10, 72, 0
13, 34200, Note_on_c, 10, 75, 100
13, 34200, Note_on_c, 10, 72, 100
13, 34250, Note_on_c, 10, 72, 0
13, 34250, Note_on_c, 10, 75, 0
13, 34260, Note_on_c, 10, 70, 100
13, 34330, Note_on_c, 10, 70, 0
13, 34500, Note_on_c, 10, 70, 100
13, 34570, Note_on_c, 10, 70, 0
13, 34740, Note_on_c, 10, 70, 100
13, 34740, Note_on_c, 10, 75, 100
13, 34980, Note_on_c, 10, 75, 0
13, 34980, Note_on_c, 10, 70, 0
13, 34980, Note_on_c, 10, 73, 100
13, 34980, Note_on_c, 10, 68, 100
13, 35270, Note_on_c, 10, 68, 0
13, 35270, Note_on_c, 10, 73, 0
13, 35400, Note_on_c, 10, 72, 100
13, 35400, Note_on_c, 10, 68, 100
13, 35760, Note_on_c, 10, 68, 0
13, 35760, Note_on_c, 10, 72, 0
13, 35760, Note_on_c, 10, 72, 100
13, 35760, Note_on_c, 10, 68, 100
13, 36050, Note_on_c, 10, 68, 0
13, 36050, Note_on_c, 10, 72, 0
13, 36060, Note_on_c, 10, 72, 100
13, 36060, Note_on_c, 10, 75, 100
13, 36110, Note_on_c, 10, 75, 0
13, 36110, Note_on_c, 10, 72, 0
13, 36120, Note_on_c, 10, 75, 100
13, 36120, Note_on_c, 10, 72, 100
13, 36170, Note_on_c, 10, 72, 0
13, 36170, Note_on_c, 10, 75, 0
13, 36180, Note_on_c, 10, 70, 100
13, 36250, Note_on_c, 10, 70, 0
13, 36420, Note_on_c, 10, 70, 100
13, 36490, Note_on_c, 10, 70, 0
13, 36660, Note_on_c, 10, 70, 100
13, 36660, Note_on_c, 10, 75, 100
13, 36900, Note_on_c, 10, 75, 0
13, 36900, Note_on_c, 10, 70, 0
13, 36900, Note_on_c, 10, 73, 100
13, 36900, Note_on_c, 10, 68, 100
13, 37190, Note_on_c, 10, 68, 0
13, 37190, Note_on_c, 10, 73, 0
13, 37320, Note_on_c, 10, 72, 96
13, 37320, Note_on_c, 10, 68, 96
13, 37680, Note_on_c, 10, 68, 0
13, 37680, Note_on_c, 10, 72, 0
13, 37680, Note_on_c, 10, 72, 84
13, 37680, Note_on_c, 10, 68, 84
13, 37970, Note_on_c, 10, 68, 0
13, 37970, Note_on_c, 10, 72, 0
13, 37980, Note_on_c, 10, 72, 73
13, 37980, Note_on_c, 10, 75, 73
13, 38030, Note_on_c, 10, 75, 0
13, 38030, Note_on_c, 10, 72, 0
13, 38040, Note_on_c, 10, 75, 71
13, 38040, Note_on_c, 10, 72, 71
13, 38090, Note_on_c, 10, 72, 0
13, 38090, Note_on_c, 10, 75, 0
13, 38100, Note_on_c, 10, 70, 69
13, 38170, Note_on_c, 10, 70, 0
13, 38340, Note_on_c, 10, 70, 61
13, 38410, Note_on_c, 10, 70, 0
13, 38580, Note_on_c, 10, 70, 53
13, 38580, Note_on_c, 10, 75, 53
13, 38820, Note_on_c, 10, 75, 0
13, 38820, Note_on_c, 10, 70, 0
13, 38820, Note_on_c, 10, 73, 44
13, 38820, Note_on_c, 10, 68, 44
13, 39110, Note_on_c, 10, 68, 0
13, 39110, Note_on_c, 10, 73, 0
13, 39240, Note_on_c, 10, 72, 30
13, 39240, Note_on_c, 10, 68, 30
13, 39600, Note_on_c, 10, 68, 0
13, 39600, Note_on_c, 10, 72, 0
13, 39600, Note_on_c, 10, 72, 17
13, 39600, Note_on_c, 10, 68, 17
13, 39890, Note_on_c, 10, 68, 0
13, 39890, Note_on_c, 10, 72, 0
13, 39900, Note_on_c, 10, 72, 7
13, 39900, Note_on_c, 10, 75, 7
13, 39950, Note_on_c, 10, 75, 0
13, 39950, Note_on_c, 10, 72, 0
13, 39960, Note_on_c, 10, 75, 5
13, 39960, Note_on_c, 10, 72, 5
13, 40010, Note_on_c, 10, 72, 0
13, 40010, Note_on_c, 10, 75, 0
13, 40020, Note_on_c, 10, 70, 3
13, 40090, Note_on_c, 10, 70, 0
13, 40090, End_track
14, 0, Start_track
14, 0, MIDI_port, 0
14, 0, Program_c, 11, 85
14, 0, Control_c, 11, 7, 95
14, 0, Control_c, 11, 10, 0
14, 0, Control_c, 11, 1, 0
14, 20, Control_c, 11, 11, 64
14, 120, Control_c, 11, 65, 0
14, 120, Control_c, 11, 67, 0
14, 120, Control_c, 11, 93, 0
14, 120, Control_c, 11, 91, 64
14, 120, Control_c, 11, 64, 0
14, 120, Pitch_bend_c, 11, 8192
14, 120, Control_c, 11, 68, 0
14, 3540, Note_on_c, 11, 60, 100
14, 3620, Note_on_c, 11, 60, 0
14, 3780, Note_on_c, 11, 63, 100
14, 4140, Note_on_c, 11, 63, 0
14, 4320, Program_c, 11, 53
14, 4320, Note_on_c, 11, 60, 100
14, 4320, Note_on_c, 11, 65, 100
14, 4800, Note_on_c, 11, 65, 0
14, 4800, Note_on_c, 11, 60, 0
14, 4800, Note_on_c, 11, 60, 100
14, 4800, Note_on_c, 11, 63, 100
14, 5280, Note_on_c, 11, 63, 0
14, 5280, Note_on_c, 11, 60, 0
14, 5280, Note_on_c, 11, 61, 100
14, 5280, Note_on_c, 11, 65, 100
14, 5760, Note_on_c, 11, 65, 0
14, 5760, Note_on_c, 11, 61, 0
14, 5760, Note_on_c, 11, 58, 100
14, 5760, Note_on_c, 11, 63, 100
14, 6240, Note_on_c, 11, 63, 0
14, 6240, Note_on_c, 11, 58, 0
14, 6240, Program_c, 11, 85
14, 6240, Note_on_c, 11, 56, 100
14, 6240, Note_on_c, 11, 61, 100
14, 6295, Note_on_c, 11, 61, 0
14, 6295, Note_on_c, 11, 56, 0
14, 6300, Note_on_c, 11, 56, 100
14, 6300, Note_on_c, 11, 61, 100
14, 6400, Note_on_c, 11, 61, 0
14, 6400, Note_on_c, 11, 56, 0
14, 6420, Note_on_c, 11, 55, 100
14, 6420, Note_on_c, 11, 61, 100
14, 6660, Note_on_c, 11, 61, 0
14, 6660, Note_on_c, 11, 55, 0
14, 7860, Note_on_c, 11, 60, 100
14, 7940, Note_on_c, 11, 60, 0
14, 8100, Note_on_c, 11, 63, 100
14, 8460, Note_on_c, 11, 63, 0
14, 8640, Note_on_c, 11, 60, 100
14, 8640, Note_on_c, 11, 65, 100
14, 9120, Note_on_c, 11, 65, 0
14, 9120, Note_on_c, 11, 60, 0
14, 9120, Note_on_c, 11, 60, 100
14, 9120, Note_on_c, 11, 63, 100
14, 9600, Note_on_c, 11, 63, 0
14, 9600, Note_on_c, 11, 60, 0
14, 9600, Note_on_c, 11, 61, 100
14, 9600, Note_on_c, 11, 65, 100
14, 10080, Note_on_c, 11, 65, 0
14, 10080, Note_on_c, 11, 61, 0
14, 10080, Note_on_c, 11, 58, 100
14, 10080, Note_on_c, 11, 63, 100
14, 10560, Note_on_c, 11, 63, 0
14, 10560, Note_on_c, 11, 58, 0
14, 10560, Note_on_c, 11, 56, 100
14, 10560, Note_on_c, 11, 53, 100
14, 10920, Note_on_c, 11, 53, 0
14, 10920, Note_on_c, 11, 56, 0
14, 11040, Note_on_c, 11, 61, 100
14, 11095, Note_on_c, 11, 61, 0
14, 11100, Note_on_c, 11, 61, 100
14, 11155, Note_on_c, 11, 61, 0
14, 11160, Note_on_c, 11, 61, 100
14, 11215, Note_on_c, 11, 61, 0
14, 11220, Note_on_c, 11, 61, 100
14, 11275, Note_on_c, 11, 61, 0
14, 11280, Note_on_c, 11, 63, 100
14, 11280, Note_on_c, 11, 58, 100
14, 11460, Note_on_c, 11, 58, 0
14, 11460, Note_on_c, 11, 63, 0
14, 11460, Note_on_c, 11, 63, 100
14, 11460, Note_on_c, 11, 60, 100
14, 12180, Note_on_c, 11, 60, 0
14, 12180, Note_on_c, 11, 63, 0
14, 14760, Note_on_c, 11, 63, 100
14, 14820, Note_on_c, 11, 63, 0
14, 14820, Note_on_c, 11, 65, 100
14, 15300, Note_on_c, 11, 65, 0
14, 15360, Note_on_c, 11, 65, 100
14, 15840, Note_on_c, 11, 65, 0
14, 15840, Note_on_c, 11, 65, 100
14, 16140, Note_on_c, 11, 65, 0
14, 16200, Note_on_c, 11, 68, 100
14, 16260, Note_on_c, 11, 68, 0
14, 16260, Note_on_c, 11, 67, 100
14, 16680, Note_on_c, 11, 67, 0
14, 17940, Note_on_c, 11, 60, 100
14, 18020, Note_on_c, 11, 60, 0
14, 18180, Note_on_c, 11, 63, 100
14, 18540, Note_on_c, 11, 63, 0
14, 18720, Note_on_c, 11, 60, 100
14, 18720, Note_on_c, 11, 65, 100
14, 19200, Note_on_c, 11, 65, 0
14, 19200, Note_on_c, 11, 60, 0
14, 19200, Note_on_c, 11, 60, 100
14, 19200, Note_on_c, 11, 63, 100
14, 19680, Note_on_c, 11, 63, 0
14, 19680, Note_on_c, 11, 60, 0
14, 19680, Note_on_c, 11, 61, 100
14, 19680, Note_on_c, 11, 65, 100
14, 20160, Note_on_c, 11, 65, 0
14, 20160, Note_on_c, 11, 61, 0
14, 20160, Note_on_c, 11, 58, 100
14, 20160, Note_on_c, 11, 63, 100
14, 20640, Note_on_c, 11, 63, 0
14, 20640, Note_on_c, 11, 58, 0
14, 20640, Note_on_c, 11, 56, 100
14, 20640, Note_on_c, 11, 53, 100
14, 21000, Note_on_c, 11, 53, 0
14, 21000, Note_on_c, 11, 56, 0
14, 21480, Note_on_c, 11, 56, 100
14, 21535, Note_on_c, 11, 56, 0
14, 21540, Note_on_c, 11, 56, 100
14, 21595, Note_on_c, 11, 56, 0
14, 21600, Note_on_c, 11, 56, 100
14, 21655, Note_on_c, 11, 56, 0
14, 21660, Note_on_c, 11, 56, 100
14, 21715, Note_on_c, 11, 56, 0
14, 21720, Note_on_c, 11, 56, 100
14, 21840, Note_on_c, 11, 56, 0
14, 21840, Note_on_c, 11, 55, 100
14, 21895, Note_on_c, 11, 55, 0
14, 21900, Note_on_c, 11, 56, 100
14, 21955, Note_on_c, 11, 56, 0
14, 21960, Note_on_c, 11, 61, 100
14, 22015, Note_on_c, 11, 61, 0
14, 22020, Note_on_c, 11, 61, 100
14, 22075, Note_on_c, 11, 61, 0
14, 22080, Note_on_c, 11, 61, 100
14, 22135, Note_on_c, 11, 61, 0
14, 22140, Note_on_c, 11, 61, 100
14, 22195, Note_on_c, 11, 61, 0
14, 22200, Note_on_c, 11, 63, 100
14, 22200, Note_on_c, 11, 58, 100
14, 22380, Note_on_c, 11, 58, 0
14, 22380, Note_on_c, 11, 63, 0
14, 22380, Note_on_c, 11, 63, 100
14, 22380, Note_on_c, 11, 60, 100
14, 22860, Note_on_c, 11, 60, 0
14, 22860, Note_on_c, 11, 63, 0
14, 25680, Note_on_c, 11, 63, 100
14, 25740, Note_on_c, 11, 63, 0
14, 25740, Note_on_c, 11, 65, 100
14, 26220, Note_on_c, 11, 65, 0
14, 26280, Note_on_c, 11, 65, 100
14, 26760, Note_on_c, 11, 65, 0
14, 26760, Note_on_c, 11, 65, 100
14, 27060, Note_on_c, 11, 65, 0
14, 27120, Note_on_c, 11, 68, 100
14, 27180, Note_on_c, 11, 68, 0
14, 27180, Note_on_c, 11, 67, 100
14, 27600, Note_on_c, 11, 67, 0
14, 27720, Note_on_c, 11, 56, 100
14, 28200, Note_on_c, 11, 56, 0
14, 28860, Note_on_c, 11, 60, 100
14, 28940, Note_on_c, 11, 60, 0
14, 29100, Note_on_c, 11, 63, 100
14, 29460, Note_on_c, 11, 63, 0
14, 29640, Note_on_c, 11, 60, 100
14, 29640, Note_on_c, 11, 65, 100
14, 30120, Note_on_c, 11, 65, 0
14, 30120, Note_on_c, 11, 60, 0
14, 30120, Note_on_c, 11, 60, 100
14, 30120, Note_on_c, 11, 63, 100
14, 30600, Note_on_c, 11, 63, 0
14, 30600, Note_on_c, 11, 60, 0
14, 30600, Note_on_c, 11, 61, 100
14, 30600, Note_on_c, 11, 65, 100
14, 31080, Note_on_c, 11, 65, 0
14, 31080, Note_on_c, 11, 61, 0
14, 31080, Note_on_c, 11, 58, 100
14, 31080, Note_on_c, 11, 63, 100
14, 31560, Note_on_c, 11, 63, 0
14, 31560, Note_on_c, 11, 58, 0
14, 31560, Note_on_c, 11, 56, 100
14, 31560, Note_on_c, 11, 53, 100
14, 31920, Note_on_c, 11, 53, 0
14, 31920, Note_on_c, 11, 56, 0
14, 32400, Note_on_c, 11, 56, 100
14, 32455, Note_on_c, 11, 56, 0
14, 32460, Note_on_c, 11, 56, 100
14, 32515, Note_on_c, 11, 56, 0
14, 32520, Note_on_c, 11, 56, 100
14, 32575, Note_on_c, 11, 56, 0
14, 32580, Note_on_c, 11, 56, 100
14, 32635, Note_on_c, 11, 56, 0
14, 32640, Note_on_c, 11, 56, 100
14, 32760, Note_on_c, 11, 56, 0
14, 32760, Note_on_c, 11, 55, 100
14, 32815, Note_on_c, 11, 55, 0
14, 32820, Note_on_c, 11, 56, 100
14, 32875, Note_on_c, 11, 56, 0
14, 32880, Note_on_c, 11, 61, 100
14, 32935, Note_on_c, 11, 61, 0
14, 32940, Note_on_c, 11, 61, 100
14, 32995, Note_on_c, 11, 61, 0
14, 33000, Note_on_c, 11, 61, 100
14, 33055, Note_on_c, 11, 61, 0
14, 33060, Note_on_c, 11, 61, 100
14, 33115, Note_on_c, 11, 61, 0
14, 33120, Note_on_c, 11, 63, 100
14, 33120, Note_on_c, 11, 58, 100
14, 33300, Note_on_c, 11, 58, 0
14, 33300, Note_on_c, 11, 63, 0
14, 33300, Note_on_c, 11, 63, 100
14, 33300, Note_on_c, 11, 60, 100
14, 33840, Note_on_c, 11, 60, 100
14, 33840, Note_on_c, 11, 56, 100
14, 33900, Note_on_c, 11, 60, 0
14, 34020, Note_on_c, 11, 63, 0
14, 34130, Note_on_c, 11, 60, 0
14, 34130, Note_on_c, 11, 56, 0
14, 34140, Note_on_c, 11, 60, 100
14, 34140, Note_on_c, 11, 56, 100
14, 34190, Note_on_c, 11, 56, 0
14, 34190, Note_on_c, 11, 60, 0
14, 34200, Note_on_c, 11, 60, 100
14, 34200, Note_on_c, 11, 56, 100
14, 34250, Note_on_c, 11, 56, 0
14, 34250, Note_on_c, 11, 60, 0
14, 34260, Note_on_c, 11, 55, 100
14, 34260, Note_on_c, 11, 58, 100
14, 34330, Note_on_c, 11, 58, 0
14, 34330, Note_on_c, 11, 55, 0
14, 34500, Note_on_c, 11, 55, 100
14, 34500, Note_on_c, 11, 58, 100
14, 34570, Note_on_c, 11, 58, 0
14, 34570, Note_on_c, 11, 55, 0
14, 34740, Note_on_c, 11, 55, 100
14, 34740, Note_on_c, 11, 58, 100
14, 34980, Note_on_c, 11, 58, 0
14, 34980, Note_on_c, 11, 55, 0
14, 34980, Note_on_c, 11, 56, 100
14, 34980, Note_on_c, 11, 53, 100
14, 35270, Note_on_c, 11, 53, 0
14, 35270, Note_on_c, 11, 56, 0
14, 35400, Note_on_c, 11, 63, 100
14, 35400, Note_on_c, 11, 60, 100
14, 35760, Note_on_c, 11, 60, 0
14, 35760, Note_on_c, 11, 63, 0
14, 35760, Note_on_c, 11, 60, 100
14, 35760, Note_on_c, 11, 56, 100
14, 36050, Note_on_c, 11, 56, 0
14, 36050, Note_on_c, 11, 60, 0
14, 36060, Note_on_c, 11, 60, 100
14, 36060, Note_on_c, 11, 56, 100
14, 36110, Note_on_c, 11, 56, 0
14, 36110, Note_on_c, 11, 60, 0
14, 36120, Note_on_c, 11, 60, 100
14, 36120, Note_on_c, 11, 56, 100
14, 36170, Note_on_c, 11, 56, 0
14, 36170, Note_on_c, 11, 60, 0
14, 36180, Note_on_c, 11, 55, 100
14, 36180, Note_on_c, 11, 58, 100
14, 36250, Note_on_c, 11, 58, 0
14, 36250, Note_on_c, 11, 55, 0
14, 36420, Note_on_c, 11, 55, 100
14, 36420, Note_on_c, 11, 58, 100
14, 36490, Note_on_c, 11, 58, 0
14, 36490, Note_on_c, 11, 55, 0
14, 36660, Note_on_c, 11, 55, 100
14, 36660, Note_on_c, 11, 58, 100
14, 36900, Note_on_c, 11, 58, 0
14, 36900, Note_on_c, 11, 55, 0
14, 36900, Note_on_c, 11, 56, 100
14, 36900, Note_on_c, 11, 53, 100
14, 37190, Note_on_c, 11, 53, 0
14, 37190, Note_on_c, 11, 56, 0
14, 37320, Note_on_c, 11, 63, 96
14, 37320, Note_on_c, 11, 60, 96
14, 37680, Note_on_c, 11, 60, 0
14, 37680, Note_on_c, 11, 63, 0
14, 37680, Note_on_c, 11, 60, 84
14, 37680, Note_on_c, 11, 56, 84
14, 37970, Note_on_c, 11, 56, 0
14, 37970, Note_on_c, 11, 60, 0
14, 37980, Note_on_c, 11, 60, 73
14, 37980, Note_on_c, 11, 56, 73
14, 38030, Note_on_c, 11, 56, 0
14, 38030, Note_on_c, 11, 60, 0
14, 38040, Note_on_c, 11, 60, 71
14, 38040, Note_on_c, 11, 56, 71
14, 38090, Note_on_c, 11, 56, 0
14, 38090, Note_on_c, 11, 60, 0
14, 38100, Note_on_c, 11, 55, 69
14, 38100, Note_on_c, 11, 58, 69
14, 38170, Note_on_c, 11, 58, 0
14, 38170, Note_on_c, 11, 55, 0
14, 38340, Note_on_c, 11, 55, 61
14, 38340, Note_on_c, 11, 58, 61
14, 38410, Note_on_c, 11, 58, 0
14, 38410, Note_on_c, 11, 55, 0
14, 38580, Note_on_c, 11, 55, 53
14, 38580, Note_on_c, 11, 58, 53
14, 38820, Note_on_c, 11, 58, 0
14, 38820, Note_on_c, 11, 55, 0
14, 38820, Note_on_c, 11, 56, 44
14, 38820, Note_on_c, 11, 53, 44
14, 39110, Note_on_c, 11, 53, 0
14, 39110, Note_on_c, 11, 56, 0
14, 39240, Note_on_c, 11, 63, 30
14, 39240, Note_on_c, 11, 60, 30
14, 39600, Note_on_c, 11, 60, 0
14, 39600, Note_on_c, 11, 63, 0
14, 39600, Note_on_c, 11, 60, 17
14, 39600, Note_on_c, 11, 56, 17
14, 39890, Note_on_c, 11, 56, 0
14, 39890, Note_on_c, 11, 60, 0
14, 39900, Note_on_c, 11, 60, 7
14, 39900, Note_on_c, 11, 56, 7
14, 39950, Note_on_c, 11, 56, 0
14, 39950, Note_on_c, 11, 60, 0
14, 39960, Note_on_c, 11, 60, 5
14, 39960, Note_on_c, 11, 56, 5
14, 40010, Note_on_c, 11, 56, 0
14, 40010, Note_on_c, 11, 60, 0
14, 40020, Note_on_c, 11, 55, 3
14, 40020, Note_on_c, 11, 58, 3
14, 40090, Note_on_c, 11, 58, 0
14, 40090, Note_on_c, 11, 55, 0
14, 40090, End_track
15, 0, Start_track
15, 0, MIDI_port, 0
15, 0, Program_c, 12, 5
15, 0, Control_c, 12, 7, 75
15, 0, Control_c, 12, 10, 127
15, 0, Control_c, 12, 1, 0
15, 20, Control_c, 12, 11, 64
15, 120, Control_c, 12, 65, 0
15, 120, Control_c, 12, 67, 0
15, 120, Control_c, 12, 93, 0
15, 120, Control_c, 12, 91, 64
15, 120, Control_c, 12, 64, 0
15, 120, Pitch_bend_c, 12, 8192
15, 120, Control_c, 12, 68, 0
15, 6840, Note_on_c, 12, 63, 100
15, 6840, Note_on_c, 12, 68, 100
15, 7080, Note_on_c, 12, 68, 0
15, 7080, Note_on_c, 12, 63, 0
15, 7080, Note_on_c, 12, 63, 100
15, 7080, Note_on_c, 12, 68, 100
15, 7200, Note_on_c, 12, 68, 0
15, 7200, Note_on_c, 12, 63, 0
15, 7320, Note_on_c, 12, 63, 100
15, 7320, Note_on_c, 12, 68, 100
15, 7560, Note_on_c, 12, 68, 0
15, 7560, Note_on_c, 12, 63, 0
15, 7560, Note_on_c, 12, 63, 100
15, 7560, Note_on_c, 12, 68, 100
15, 7680, Note_on_c, 12, 68, 0
15, 7680, Note_on_c, 12, 63, 0
15, 7800, Note_on_c, 12, 63, 100
15, 7800, Note_on_c, 12, 67, 100
15, 7800, Note_on_c, 12, 70, 100
15, 8040, Note_on_c, 12, 70, 0
15, 8040, Note_on_c, 12, 67, 0
15, 8040, Note_on_c, 12, 63, 0
15, 8040, Note_on_c, 12, 63, 100
15, 8040, Note_on_c, 12, 67, 100
15, 8040, Note_on_c, 12, 70, 100
15, 8160, Note_on_c, 12, 67, 0
15, 8160, Note_on_c, 12, 63, 0
15, 8280, Note_on_c, 12, 70, 0
15, 8280, Note_on_c, 12, 63, 100
15, 8280, Note_on_c, 12, 67, 100
15, 8280, Note_on_c, 12, 70, 100
15, 8520, Note_on_c, 12, 70, 0
15, 8520, Note_on_c, 12, 67, 0
15, 8520, Note_on_c, 12, 63, 0
15, 8520, Note_on_c, 12, 63, 100
15, 8520, Note_on_c, 12, 67, 100
15, 8520, Note_on_c, 12, 70, 100
15, 8640, Note_on_c, 12, 67, 0
15, 8640, Note_on_c, 12, 63, 0
15, 8760, Note_on_c, 12, 70, 0
15, 8760, Note_on_c, 12, 65, 100
15, 8760, Note_on_c, 12, 68, 100
15, 9000, Note_on_c, 12, 68, 0
15, 9000, Note_on_c, 12, 65, 0
15, 9000, Note_on_c, 12, 65, 100
15, 9000, Note_on_c, 12, 68, 100
15, 9120, Note_on_c, 12, 68, 0
15, 9120, Note_on_c, 12, 65, 0
15, 9240, Note_on_c, 12, 63, 100
15, 9240, Note_on_c, 12, 67, 100
15, 9240, Note_on_c, 12, 70, 100
15, 9480, Note_on_c, 12, 70, 0
15, 9480, Note_on_c, 12, 67, 0
15, 9480, Note_on_c, 12, 63, 0
15, 9480, Note_on_c, 12, 63, 100
15, 9480, Note_on_c, 12, 67, 100
15, 9480, Note_on_c, 12, 70, 100
15, 9600, Note_on_c, 12, 70, 0
15, 9600, Note_on_c, 12, 67, 0
15, 9600, Note_on_c, 12, 63, 0
15, 9720, Note_on_c, 12, 63, 100
15, 9720, Note_on_c, 12, 68, 100
15, 9960, Note_on_c, 12, 68, 0
15, 9960, Note_on_c, 12, 63, 0
15, 9960, Note_on_c, 12, 63, 100
15, 9960, Note_on_c, 12, 68, 100
15, 10080, Note_on_c, 12, 68, 0
15, 10080, Note_on_c, 12, 63, 0
15, 10200, Note_on_c, 12, 63, 100
15, 10200, Note_on_c, 12, 67, 100
15, 10200, Note_on_c, 12, 70, 100
15, 10440, Note_on_c, 12, 70, 0
15, 10440, Note_on_c, 12, 67, 0
15, 10440, Note_on_c, 12, 63, 0
15, 10440, Note_on_c, 12, 63, 100
15, 10440, Note_on_c, 12, 67, 100
15, 10440, Note_on_c, 12, 70, 100
15, 10560, Note_on_c, 12, 70, 0
15, 10560, Note_on_c, 12, 67, 0
15, 10560, Note_on_c, 12, 63, 0
15, 10560, Note_on_c, 12, 65, 100
15, 10560, Note_on_c, 12, 68, 100
15, 10800, Note_on_c, 12, 68, 0
15, 10800, Note_on_c, 12, 65, 0
15, 10800, Note_on_c, 12, 63, 100
15, 10800, Note_on_c, 12, 68, 100
15, 11040, Note_on_c, 12, 68, 0
15, 11040, Note_on_c, 12, 63, 0
15, 11040, Note_on_c, 12, 65, 100
15, 11040, Note_on_c, 12, 68, 100
15, 11280, Note_on_c, 12, 68, 0
15, 11280, Note_on_c, 12, 65, 0
15, 11280, Note_on_c, 12, 63, 100
15, 11280, Note_on_c, 12, 70, 100
15, 11280, Note_on_c, 12, 73, 100
15, 11520, Note_on_c, 12, 73, 0
15, 11520, Note_on_c, 12, 70, 0
15, 11520, Note_on_c, 12, 63, 0
15, 11520, Note_on_c, 12, 72, 100
15, 11520, Note_on_c, 12, 68, 100
15, 11760, Note_on_c, 12, 68, 0
15, 11760, Note_on_c, 12, 72, 0
15, 11760, Note_on_c, 12, 68, 100
15, 11760, Note_on_c, 12, 73, 100
15, 11940, Note_on_c, 12, 67, 100
15, 11940, Note_on_c, 12, 72, 100
15, 12000, Note_on_c, 12, 73, 0
15, 12000, Note_on_c, 12, 68, 0
15, 12300, Note_on_c, 12, 67, 0
15, 12300, Note_on_c, 12, 72, 0
15, 12600, Note_on_c, 12, 60, 100
15, 12600, Note_on_c, 12, 63, 100
15, 12840, Note_on_c, 12, 63, 0
15, 12840, Note_on_c, 12, 60, 0
15, 12840, Note_on_c, 12, 60, 100
15, 12840, Note_on_c, 12, 63, 100
15, 12960, Note_on_c, 12, 63, 0
15, 12960, Note_on_c, 12, 60, 0
15, 13080, Note_on_c, 12, 68, 100
15, 13080, Note_on_c, 12, 63, 100
15, 13320, Note_on_c, 12, 63, 0
15, 13320, Note_on_c, 12, 68, 0
15, 13320, Note_on_c, 12, 68, 100
15, 13320, Note_on_c, 12, 63, 100
15, 13440, Note_on_c, 12, 63, 0
15, 13440, Note_on_c, 12, 68, 0
15, 13560, Note_on_c, 12, 60, 100
15, 13560, Note_on_c, 12, 65, 100
15, 13800, Note_on_c, 12, 65, 0
15, 13800, Note_on_c, 12, 60, 0
15, 13800, Note_on_c, 12, 61, 100
15, 13800, Note_on_c, 12, 65, 100
15, 13920, Note_on_c, 12, 65, 0
15, 13920, Note_on_c, 12, 61, 0
15, 14040, Note_on_c, 12, 68, 100
15, 14040, Note_on_c, 12, 63, 100
15, 14280, Note_on_c, 12, 63, 0
15, 14280, Note_on_c, 12, 68, 0
15, 14280, Note_on_c, 12, 68, 100
15, 14280, Note_on_c, 12, 63, 100
15, 14400, Note_on_c, 12, 63, 0
15, 14400, Note_on_c, 12, 68, 0
15, 14520, Note_on_c, 12, 60, 100
15, 14520, Note_on_c, 12, 63, 100
15, 14760, Note_on_c, 12, 63, 0
15, 14760, Note_on_c, 12, 60, 0
15, 14760, Note_on_c, 12, 60, 100
15, 14760, Note_on_c, 12, 63, 100
15, 14880, Note_on_c, 12, 63, 0
15, 14880, Note_on_c, 12, 60, 0
15, 15000, Note_on_c, 12, 68, 100
15, 15000, Note_on_c, 12, 63, 100
15, 15240, Note_on_c, 12, 63, 0
15, 15240, Note_on_c, 12, 68, 0
15, 15240, Note_on_c, 12, 68, 100
15, 15240, Note_on_c, 12, 63, 100
15, 15360, Note_on_c, 12, 63, 0
15, 15360, Note_on_c, 12, 68, 0
15, 16920, Note_on_c, 12, 63, 100
15, 16920, Note_on_c, 12, 68, 100
15, 17160, Note_on_c, 12, 68, 0
15, 17160, Note_on_c, 12, 63, 0
15, 17160, Note_on_c, 12, 63, 100
15, 17160, Note_on_c, 12, 68, 100
15, 17280, Note_on_c, 12, 68, 0
15, 17280, Note_on_c, 12, 63, 0
15, 17400, Note_on_c, 12, 63, 100
15, 17400, Note_on_c, 12, 68, 100
15, 17640, Note_on_c, 12, 68, 0
15, 17640, Note_on_c, 12, 63, 0
15, 17640, Note_on_c, 12, 63, 100
15, 17640, Note_on_c, 12, 68, 100
15, 17760, Note_on_c, 12, 68, 0
15, 17760, Note_on_c, 12, 63, 0
15, 17880, Note_on_c, 12, 63, 100
15, 17880, Note_on_c, 12, 67, 100
15, 17880, Note_on_c, 12, 70, 100
15, 18120, Note_on_c, 12, 70, 0
15, 18120, Note_on_c, 12, 67, 0
15, 18120, Note_on_c, 12, 63, 0
15, 18120, Note_on_c, 12, 63, 100
15, 18120, Note_on_c, 12, 67, 100
15, 18120, Note_on_c, 12, 70, 100
15, 18240, Note_on_c, 12, 67, 0
15, 18240, Note_on_c, 12, 63, 0
15, 18360, Note_on_c, 12, 70, 0
15, 18360, Note_on_c, 12, 63, 100
15, 18360, Note_on_c, 12, 67, 100
15, 18360, Note_on_c, 12, 70, 100
15, 18600, Note_on_c, 12, 70, 0
15, 18600, Note_on_c, 12, 67, 0
15, 18600, Note_on_c, 12, 63, 0
15, 18600, Note_on_c, 12, 63, 100
15, 18600, Note_on_c, 12, 67, 100
15, 18600, Note_on_c, 12, 70, 100
15, 18720, Note_on_c, 12, 67, 0
15, 18720, Note_on_c, 12, 63, 0
15, 18840, Note_on_c, 12, 70, 0
15, 18840, Note_on_c, 12, 65, 100
15, 18840, Note_on_c, 12, 68, 100
15, 19080, Note_on_c, 12, 68, 0
15, 19080, Note_on_c, 12, 65, 0
15, 19080, Note_on_c, 12, 65, 100
15, 19080, Note_on_c, 12, 68, 100
15, 19200, Note_on_c, 12, 68, 0
15, 19200, Note_on_c, 12, 65, 0
15, 19320, Note_on_c, 12, 63, 100
15, 19320, Note_on_c, 12, 67, 100
15, 19320, Note_on_c, 12, 70, 100
15, 19560, Note_on_c, 12, 70, 0
15, 19560, Note_on_c, 12, 67, 0
15, 19560, Note_on_c, 12, 63, 0
15, 19560, Note_on_c, 12, 63, 100
15, 19560, Note_on_c, 12, 67, 100
15, 19560, Note_on_c, 12, 70, 100
15, 19680, Note_on_c, 12, 70, 0
15, 19680, Note_on_c, 12, 67, 0
15, 19680, Note_on_c, 12, 63, 0
15, 19800, Note_on_c, 12, 63, 100
15, 19800, Note_on_c, 12, 68, 100
15, 20040, Note_on_c, 12, 68, 0
15, 20040, Note_on_c, 12, 63, 0
15, 20040, Note_on_c, 12, 63, 100
15, 20040, Note_on_c, 12, 68, 100
15, 20160, Note_on_c, 12, 68, 0
15, 20160, Note_on_c, 12, 63, 0
15, 20280, Note_on_c, 12, 63, 100
15, 20280, Note_on_c, 12, 67, 100
15, 20280, Note_on_c, 12, 70, 100
15, 20520, Note_on_c, 12, 70, 0
15, 20520, Note_on_c, 12, 67, 0
15, 20520, Note_on_c, 12, 63, 0
15, 20520, Note_on_c, 12, 63, 100
15, 20520, Note_on_c, 12, 67, 100
15, 20520, Note_on_c, 12, 70, 100
15, 20640, Note_on_c, 12, 70, 0
15, 20640, Note_on_c, 12, 67, 0
15, 20640, Note_on_c, 12, 63, 0
15, 20640, Note_on_c, 12, 65, 100
15, 20640, Note_on_c, 12, 68, 100
15, 20880, Note_on_c, 12, 68, 0
15, 20880, Note_on_c, 12, 65, 0
15, 20880, Note_on_c, 12, 63, 100
15, 20880, Note_on_c, 12, 68, 100
15, 21120, Note_on_c, 12, 68, 0
15, 21120, Note_on_c, 12, 63, 0
15, 21120, Note_on_c, 12, 65, 100
15, 21120, Note_on_c, 12, 68, 100
15, 21600, Note_on_c, 12, 68, 0
15, 21600, Note_on_c, 12, 65, 0
15, 21960, Note_on_c, 12, 65, 100
15, 21960, Note_on_c, 12, 68, 100
15, 22200, Note_on_c, 12, 68, 0
15, 22200, Note_on_c, 12, 65, 0
15, 22200, Note_on_c, 12, 63, 100
15, 22200, Note_on_c, 12, 70, 100
15, 22200, Note_on_c, 12, 73, 100
15, 22375, Note_on_c, 12, 73, 0
15, 22375, Note_on_c, 12, 70, 0
15, 22375, Note_on_c, 12, 63, 0
15, 22380, Note_on_c, 12, 72, 100
15, 22380, Note_on_c, 12, 68, 100
15, 22620, Note_on_c, 12, 68, 0
15, 22620, Note_on_c, 12, 72, 0
15, 22920, Note_on_c, 12, 72, 100
15, 22920, Note_on_c, 12, 67, 100
15, 22970, Note_on_c, 12, 67, 0
15, 22970, Note_on_c, 12, 72, 0
15, 23520, Note_on_c, 12, 60, 100
15, 23520, Note_on_c, 12, 63, 100
15, 23760, Note_on_c, 12, 63, 0
15, 23760, Note_on_c, 12, 60, 0
15, 23760, Note_on_c, 12, 60, 100
15, 23760, Note_on_c, 12, 63, 100
15, 23880, Note_on_c, 12, 63, 0
15, 23880, Note_on_c, 12, 60, 0
15, 24000, Note_on_c, 12, 68, 100
15, 24000, Note_on_c, 12, 63, 100
15, 24240, Note_on_c, 12, 63, 0
15, 24240, Note_on_c, 12, 68, 0
15, 24240, Note_on_c, 12, 68, 100
15, 24240, Note_on_c, 12, 63, 100
15, 24360, Note_on_c, 12, 63, 0
15, 24360, Note_on_c, 12, 68, 0
15, 24480, Note_on_c, 12, 60, 100
15, 24480, Note_on_c, 12, 65, 100
15, 24720, Note_on_c, 12, 65, 0
15, 24720, Note_on_c, 12, 60, 0
15, 24720, Note_on_c, 12, 61, 100
15, 24720, Note_on_c, 12, 65, 100
15, 24840, Note_on_c, 12, 65, 0
15, 24840, Note_on_c, 12, 61, 0
15, 24960, Note_on_c, 12, 68, 100
15, 24960, Note_on_c, 12, 63, 100
15, 25200, Note_on_c, 12, 63, 0
15, 25200, Note_on_c, 12, 68, 0
15, 25200, Note_on_c, 12, 68, 100
15, 25200, Note_on_c, 12, 63, 100
15, 25320, Note_on_c, 12, 63, 0
15, 25320, Note_on_c, 12, 68, 0
15, 25440, Note_on_c, 12, 60, 100
15, 25440, Note_on_c, 12, 63, 100
15, 25680, Note_on_c, 12, 63, 0
15, 25680, Note_on_c, 12, 60, 0
15, 25680, Note_on_c, 12, 60, 100
15, 25680, Note_on_c, 12, 63, 100
15, 25800, Note_on_c, 12, 63, 0
15, 25800, Note_on_c, 12, 60, 0
15, 25920, Note_on_c, 12, 68, 100
15, 25920, Note_on_c, 12, 63, 100
15, 26160, Note_on_c, 12, 63, 0
15, 26160, Note_on_c, 12, 68, 0
15, 26160, Note_on_c, 12, 68, 100
15, 26160, Note_on_c, 12, 63, 100
15, 26280, Note_on_c, 12, 63, 0
15, 26280, Note_on_c, 12, 68, 0
15, 27840, Note_on_c, 12, 75, 100
15, 27840, Note_on_c, 12, 80, 100
15, 27960, Note_on_c, 12, 80, 0
15, 27960, Note_on_c, 12, 75, 0
15, 27960, Note_on_c, 12, 82, 100
15, 27960, Note_on_c, 12, 67, 100
15, 28020, Note_on_c, 12, 67, 0
15, 28020, Note_on_c, 12, 82, 0
15, 28020, Note_on_c, 12, 72, 100
15, 28020, Note_on_c, 12, 68, 100
15, 28200, Note_on_c, 12, 68, 0
15, 28200, Note_on_c, 12, 72, 0
15, 28320, Note_on_c, 12, 75, 100
15, 28320, Note_on_c, 12, 80, 100
15, 28440, Note_on_c, 12, 80, 0
15, 28440, Note_on_c, 12, 75, 0
15, 28440, Note_on_c, 12, 82, 100
15, 28440, Note_on_c, 12, 67, 100
15, 28500, Note_on_c, 12, 67, 0
15, 28500, Note_on_c, 12, 82, 0
15, 28500, Note_on_c, 12, 72, 100
15, 28500, Note_on_c, 12, 68, 100
15, 28680, Note_on_c, 12, 68, 0
15, 28680, Note_on_c, 12, 72, 0
15, 28800, Note_on_c, 12, 63, 100
15, 28800, Note_on_c, 12, 67, 100
15, 28800, Note_on_c, 12, 70, 100
15, 29040, Note_on_c, 12, 70, 0
15, 29040, Note_on_c, 12, 67, 0
15, 29040, Note_on_c, 12, 63, 0
15, 29040, Note_on_c, 12, 63, 100
15, 29040, Note_on_c, 12, 67, 100
15, 29040, Note_on_c, 12, 70, 100
15, 29160, Note_on_c, 12, 67, 0
15, 29160, Note_on_c, 12, 63, 0
15, 29280, Note_on_c, 12, 70, 0
15, 29280, Note_on_c, 12, 63, 100
15, 29280, Note_on_c, 12, 67, 100
15, 29280, Note_on_c, 12, 70, 100
15, 29520, Note_on_c, 12, 70, 0
15, 29520, Note_on_c, 12, 67, 0
15, 29520, Note_on_c, 12, 63, 0
15, 29520, Note_on_c, 12, 63, 100
15, 29520, Note_on_c, 12, 67, 100
15, 29520, Note_on_c, 12, 70, 100
15, 29640, Note_on_c, 12, 67, 0
15, 29640, Note_on_c, 12, 63, 0
15, 29760, Note_on_c, 12, 70, 0
15, 29760, Note_on_c, 12, 65, 100
15, 29760, Note_on_c, 12, 68, 100
15, 30000, Note_on_c, 12, 68, 0
15, 30000, Note_on_c, 12, 65, 0
15, 30000, Note_on_c, 12, 65, 100
15, 30000, Note_on_c, 12, 68, 100
15, 30120, Note_on_c, 12, 68, 0
15, 30120, Note_on_c, 12, 65, 0
15, 30240, Note_on_c, 12, 63, 100
15, 30240, Note_on_c, 12, 67, 100
15, 30240, Note_on_c, 12, 70, 100
15, 30480, Note_on_c, 12, 70, 0
15, 30480, Note_on_c, 12, 67, 0
15, 30480, Note_on_c, 12, 63, 0
15, 30480, Note_on_c, 12, 63, 100
15, 30480, Note_on_c, 12, 67, 100
15, 30480, Note_on_c, 12, 70, 100
15, 30600, Note_on_c, 12, 70, 0
15, 30600, Note_on_c, 12, 67, 0
15, 30600, Note_on_c, 12, 63, 0
15, 30720, Note_on_c, 12, 63, 100
15, 30720, Note_on_c, 12, 68, 100
15, 30960, Note_on_c, 12, 68, 0
15, 30960, Note_on_c, 12, 63, 0
15, 30960, Note_on_c, 12, 63, 100
15, 30960, Note_on_c, 12, 68, 100
15, 31080, Note_on_c, 12, 68, 0
15, 31080, Note_on_c, 12, 63, 0
15, 31200, Note_on_c, 12, 63, 100
15, 31200, Note_on_c, 12, 67, 100
15, 31200, Note_on_c, 12, 70, 100
15, 31440, Note_on_c, 12, 70, 0
15, 31440, Note_on_c, 12, 67, 0
15, 31440, Note_on_c, 12, 63, 0
15, 31440, Note_on_c, 12, 63, 100
15, 31440, Note_on_c, 12, 67, 100
15, 31440, Note_on_c, 12, 70, 100
15, 31560, Note_on_c, 12, 70, 0
15, 31560, Note_on_c, 12, 67, 0
15, 31560, Note_on_c, 12, 63, 0
15, 31560, Note_on_c, 12, 65, 100
15, 31560, Note_on_c, 12, 68, 100
15, 31800, Note_on_c, 12, 68, 0
15, 31800, Note_on_c, 12, 65, 0
15, 31800, Note_on_c, 12, 63, 100
15, 31800, Note_on_c, 12, 68, 100
15, 32040, Note_on_c, 12, 68, 0
15, 32040, Note_on_c, 12, 63, 0
15, 32040, Note_on_c, 12, 65, 100
15, 32040, Note_on_c, 12, 68, 100
15, 32520, Note_on_c, 12, 68, 0
15, 32520, Note_on_c, 12, 65, 0
15, 32880, Note_on_c, 12, 65, 100
15, 32880, Note_on_c, 12, 68, 100
15, 33120, Note_on_c, 12, 68, 0
15, 33120, Note_on_c, 12, 65, 0
15, 33120, Note_on_c, 12, 63, 100
15, 33120, Note_on_c, 12, 70, 100
15, 33120, Note_on_c, 12, 73, 100
15, 33240, Note_on_c, 12, 73, 0
15, 33240, Note_on_c, 12, 70, 0
15, 33240, Note_on_c, 12, 63, 0
15, 33300, Note_on_c, 12, 68, 100
15, 33300, Note_on_c, 12, 63, 100
15, 33420, Note_on_c, 12, 63, 0
15, 33420, Note_on_c, 12, 68, 0
15, 33480, Note_on_c, 12, 68, 100
15, 33480, Note_on_c, 12, 72, 100
15, 33720, Note_on_c, 12, 72, 0
15, 33720, Note_on_c, 12, 68, 0
15, 33720, Note_on_c, 12, 72, 100
15, 33720, Note_on_c, 12, 68, 100
15, 33840, Note_on_c, 12, 68, 0
15, 33840, Note_on_c, 12, 72, 0
15, 33960, Note_on_c, 12, 68, 100
15, 33960, Note_on_c, 12, 72, 100
15, 34200, Note_on_c, 12, 72, 0
15, 34200, Note_on_c, 12, 68, 0
15, 34200, Note_on_c, 12, 72, 100
15, 34200, Note_on_c, 12, 68, 100
15, 34320, Note_on_c, 12, 68, 0
15, 34320, Note_on_c, 12, 72, 0
15, 34440, Note_on_c, 12, 63, 100
15, 34440, Note_on_c, 12, 72, 100
15, 34680, Note_on_c, 12, 72, 0
15, 34680, Note_on_c, 12, 63, 0
15, 34680, Note_on_c, 12, 63, 100
15, 34680, Note_on_c, 12, 72, 100
15, 34800, Note_on_c, 12, 72, 0
15, 34800, Note_on_c, 12, 63, 0
15, 34920, Note_on_c, 12, 70, 100
15, 34920, Note_on_c, 12, 67, 100
15, 34920, Note_on_c, 12, 63, 100
15, 34980, Note_on_c, 12, 63, 0
15, 34980, Note_on_c, 12, 67, 0
15, 34980, Note_on_c, 12, 70, 0
15, 34980, Note_on_c, 12, 68, 100
15, 34980, Note_on_c, 12, 65, 100
15, 34980, Note_on_c, 12, 61, 100
15, 35100, Note_on_c, 12, 61, 0
15, 35100, Note_on_c, 12, 65, 0
15, 35100, Note_on_c, 12, 68, 0
15, 35100, Note_on_c, 12, 68, 100
15, 35100, Note_on_c, 12, 65, 100
15, 35100, Note_on_c, 12, 61, 100
15, 35160, Note_on_c, 12, 61, 0
15, 35160, Note_on_c, 12, 65, 0
15, 35160, Note_on_c, 12, 68, 0
15, 35160, Note_on_c, 12, 68, 100
15, 35160, Note_on_c, 12, 65, 100
15, 35160, Note_on_c, 12, 73, 100
15, 35280, Note_on_c, 12, 73, 0
15, 35280, Note_on_c, 12, 65, 0
15, 35280, Note_on_c, 12, 68, 0
15, 35400, Note_on_c, 12, 68, 100
15, 35400, Note_on_c, 12, 72, 100
15, 35640, Note_on_c, 12, 72, 0
15, 35640, Note_on_c, 12, 68, 0
15, 35640, Note_on_c, 12, 72, 100
15, 35640, Note_on_c, 12, 68, 100
15, 35760, Note_on_c, 12, 68, 0
15, 35760, Note_on_c, 12, 72, 0
15, 35880, Note_on_c, 12, 68, 100
15, 35880, Note_on_c, 12, 72, 100
15, 36120, Note_on_c, 12, 72, 0
15, 36120, Note_on_c, 12, 68, 0
15, 36120, Note_on_c, 12, 72, 100
15, 36120, Note_on_c, 12, 68, 100
15, 36240, Note_on_c, 12, 68, 0
15, 36240, Note_on_c, 12, 72, 0
15, 36360, Note_on_c, 12, 63, 100
15, 36360, Note_on_c, 12, 72, 100
15, 36600, Note_on_c, 12, 72, 0
15, 36600, Note_on_c, 12, 63, 0
15, 36600, Note_on_c, 12, 63, 100
15, 36600, Note_on_c, 12, 72, 100
15, 36720, Note_on_c, 12, 72, 0
15, 36720, Note_on_c, 12, 63, 0
15, 36840, Note_on_c, 12, 70, 100
15, 36840, Note_on_c, 12, 67, 100
15, 36840, Note_on_c, 12, 63, 100
15, 36900, Note_on_c, 12, 63, 0
15, 36900, Note_on_c, 12, 67, 0
15, 36900, Note_on_c, 12, 70, 0
15, 36900, Note_on_c, 12, 68, 100
15, 36900, Note_on_c, 12, 65, 100
15, 36900, Note_on_c, 12, 61, 100
15, 37020, Note_on_c, 12, 61, 0
15, 37020, Note_on_c, 12, 65, 0
15, 37020, Note_on_c, 12, 68, 0
15, 37020, Note_on_c, 12, 68, 100
15, 37020, Note_on_c, 12, 65, 100
15, 37020, Note_on_c, 12, 61, 100
15, 37080, Note_on_c, 12, 61, 0
15, 37080, Note_on_c, 12, 65, 0
15, 37080, Note_on_c, 12, 68, 0
15, 37080, Note_on_c, 12, 68, 100
15, 37080, Note_on_c, 12, 65, 100
15, 37080, Note_on_c, 12, 73, 100
15, 37200, Note_on_c, 12, 73, 0
15, 37200, Note_on_c, 12, 65, 0
15, 37200, Note_on_c, 12, 68, 0
15, 37320, Note_on_c, 12, 68, 96
15, 37320, Note_on_c, 12, 72, 96
15, 37560, Note_on_c, 12, 72, 0
15, 37560, Note_on_c, 12, 68, 0
15, 37560, Note_on_c, 12, 72, 88
15, 37560, Note_on_c, 12, 68, 88
15, 37680, Note_on_c, 12, 68, 0
15, 37680, Note_on_c, 12, 72, 0
15, 37800, Note_on_c, 12, 68, 80
15, 37800, Note_on_c, 12, 72, 80
15, 38040, Note_on_c, 12, 72, 0
15, 38040, Note_on_c, 12, 68, 0
15, 38040, Note_on_c, 12, 72, 71
15, 38040, Note_on_c, 12, 68, 71
15, 38160, Note_on_c, 12, 68, 0
15, 38160, Note_on_c, 12, 72, 0
15, 38280, Note_on_c, 12, 63, 63
15, 38280, Note_on_c, 12, 72, 63
15, 38520, Note_on_c, 12, 72, 0
15, 38520, Note_on_c, 12, 63, 0
15, 38520, Note_on_c, 12, 63, 55
15, 38520, Note_on_c, 12, 72, 55
15, 38640, Note_on_c, 12, 72, 0
15, 38640, Note_on_c, 12, 63, 0
15, 38760, Note_on_c, 12, 70, 46
15, 38760, Note_on_c, 12, 67, 46
15, 38760, Note_on_c, 12, 63, 46
15, 38820, Note_on_c, 12, 63, 0
15, 38820, Note_on_c, 12, 67, 0
15, 38820, Note_on_c, 12, 70, 0
15, 38820, Note_on_c, 12, 68, 44
15, 38820, Note_on_c, 12, 65, 44
15, 38820, Note_on_c, 12, 61, 44
15, 38940, Note_on_c, 12, 61, 0
15, 38940, Note_on_c, 12, 65, 0
15, 38940, Note_on_c, 12, 68, 0
15, 38940, Note_on_c, 12, 68, 40
15, 38940, Note_on_c, 12, 65, 40
15, 38940, Note_on_c, 12, 61, 40
15, 39000, Note_on_c, 12, 61, 0
15, 39000, Note_on_c, 12, 65, 0
15, 39000, Note_on_c, 12, 68, 0
15, 39000, Note_on_c, 12, 68, 38
15, 39000, Note_on_c, 12, 65, 38
15, 39000, Note_on_c, 12, 73, 38
15, 39120, Note_on_c, 12, 73, 0
15, 39120, Note_on_c, 12, 65, 0
15, 39120, Note_on_c, 12, 68, 0
15, 39240, Note_on_c, 12, 68, 30
15, 39240, Note_on_c, 12, 72, 30
15, 39480, Note_on_c, 12, 72, 0
15, 39480, Note_on_c, 12, 68, 0
15, 39480, Note_on_c, 12, 72, 21
15, 39480, Note_on_c, 12, 68, 21
15, 39600, Note_on_c, 12, 68, 0
15, 39600, Note_on_c, 12, 72, 0
15, 39720, Note_on_c, 12, 68, 13
15, 39720, Note_on_c, 12, 72, 13
15, 39960, Note_on_c, 12, 72, 0
15, 39960, Note_on_c, 12, 68, 0
15, 39960, Note_on_c, 12, 72, 5
15, 39960, Note_on_c, 12, 68, 5
15, 40080, Note_on_c, 12, 68, 0
15, 40080, Note_on_c, 12, 72, 0
15, 40080, End_track
16, 0, Start_track
16, 0, MIDI_port, 0
16, 0, Title_t, "Last Night I Didn't Get To Sleep"
16, 0, End_track
17, 0, Start_track
17, 0, MIDI_port, 0
17, 0, Title_t, "The Fifth Dimension"
17, 0, End_track
18, 0, Start_track
18, 0, MIDI_port, 0
18, 0, Title_t, "Copyright   2000 VJ Miele"
18, 0, Control_c, 15, 1, 0
18, 20, Control_c, 15, 11, 64
18, 120, Control_c, 15, 65, 0
18, 120, Control_c, 15, 67, 0
18, 120, Control_c, 15, 93, 0
18, 120, Control_c, 15, 91, 64
18, 120, Control_c, 15, 64, 0
18, 120, Pitch_bend_c, 15, 8192
18, 120, Control_c, 15, 68, 0
18, 120, End_track
19, 0, Start_track
19, 0, MIDI_port, 0
19, 0, Title_t, "the MidiStation"
19, 0, End_track
20, 0, Start_track
20, 0, MIDI_port, 0
20, 0, Title_t, "home of the best & worst of midi"
20, 0, End_track
21, 0, Start_track
21, 0, MIDI_port, 0
21, 0, Title_t, "http://members.xoom.com/flash100/index.htm"
21, 0, End_track
22, 0, Start_track
22, 0, MIDI_port, 0
22, 0, Title_t, "flash100@prodigy.net"
22, 0, End_track
23, 0, Start_track
23, 0, MIDI_port, 0
23, 0, Title_t, "Distributed freely provided"
23, 0, End_track
24, 0, Start_track
24, 0, MIDI_port, 0
24, 0, Title_t, "no alterations are made."
24, 0, End_track
0, 0, End_of_file
