0, 0, Header, 1, 21, 240
1, 0, Start_track
1, 0, Time_signature, 4, 2, 24, 8
1, 0, Tempo, 638298
1, 1920, Marker_t, "LAURA........................................................"
1, 83520, Marker_t, "thanks for listening......................"
1, 83520, End_track
2, 0, Start_track
2, 0, Title_t, "                 ""LAURA""    "
2, 0, End_track
3, 0, Start_track
3, 0, Title_t, " "
3, 0, End_track
4, 0, Start_track
4, 0, Title_t, " Orchestration & Midi prep. by"
4, 0, End_track
5, 0, Start_track
5, 0, Title_t, "                MEL WEBB"
5, 0, End_track
6, 0, Start_track
6, 0, Title_t, " "
6, 0, End_track
7, 0, Start_track
7, 0, Title_t, "Bass /  Acoustic "
7, 0, Program_c, 1, 32
7, 0, Control_c, 1, 7, 90
7, 0, Control_c, 1, 121, 0
7, 0, Control_c, 1, 10, 64
7, 0, Control_c, 1, 123, 0
7, 0, Control_c, 1, 91, 40
7, 0, Control_c, 1, 93, 0
7, 0, Control_c, 1, 64, 0
7, 2880, Note_on_c, 1, 42, 74
7, 3360, Note_off_c, 1, 42, 64
7, 3360, Note_on_c, 1, 35, 74
7, 3840, Note_off_c, 1, 35, 64
7, 3840, Note_on_c, 1, 40, 74
7, 4320, Note_off_c, 1, 40, 64
7, 4320, Note_on_c, 1, 33, 74
7, 4800, Note_off_c, 1, 33, 64
7, 4800, Note_on_c, 1, 40, 74
7, 5280, Note_on_c, 1, 47, 73
7, 5300, Note_off_c, 1, 40, 64
7, 5760, Note_off_c, 1, 47, 64
7, 5760, Note_on_c, 1, 40, 74
7, 6240, Note_on_c, 1, 47, 73
7, 6260, Note_off_c, 1, 40, 64
7, 6720, Note_off_c, 1, 47, 64
7, 6720, Note_on_c, 1, 40, 74
7, 7200, Note_off_c, 1, 40, 64
7, 7200, Note_on_c, 1, 33, 74
7, 7680, Note_off_c, 1, 33, 64
7, 7680, Note_on_c, 1, 38, 74
7, 8160, Note_on_c, 1, 45, 73
7, 8180, Note_off_c, 1, 38, 64
7, 8640, Note_on_c, 1, 38, 79
7, 8670, Note_off_c, 1, 45, 64
7, 9120, Note_on_c, 1, 45, 66
7, 9162, Note_off_c, 1, 38, 64
7, 9562, Note_off_c, 1, 45, 64
7, 9600, Note_on_c, 1, 38, 74
7, 10080, Note_on_c, 1, 45, 73
7, 10100, Note_off_c, 1, 38, 64
7, 10560, Note_off_c, 1, 45, 64
7, 10560, Note_on_c, 1, 43, 74
7, 11040, Note_on_c, 1, 50, 73
7, 11060, Note_off_c, 1, 43, 64
7, 11520, Note_off_c, 1, 50, 64
7, 11520, Note_on_c, 1, 36, 74
7, 12000, Note_on_c, 1, 43, 73
7, 12020, Note_off_c, 1, 36, 64
7, 12480, Note_off_c, 1, 43, 64
7, 12480, Note_on_c, 1, 33, 74
7, 12960, Note_off_c, 1, 33, 64
7, 12960, Note_on_c, 1, 43, 74
7, 13440, Note_off_c, 1, 43, 64
7, 13440, Note_on_c, 1, 42, 74
7, 13920, Note_off_c, 1, 42, 64
7, 13920, Note_on_c, 1, 35, 74
7, 14400, Note_off_c, 1, 35, 64
7, 14400, Note_on_c, 1, 35, 74
7, 14880, Note_off_c, 1, 35, 64
7, 14880, Note_on_c, 1, 35, 74
7, 15360, Note_off_c, 1, 35, 64
7, 15360, Note_on_c, 1, 44, 74
7, 15840, Note_off_c, 1, 44, 64
7, 15840, Note_on_c, 1, 33, 74
7, 16320, Note_off_c, 1, 33, 64
7, 16320, Note_on_c, 1, 44, 74
7, 16800, Note_off_c, 1, 44, 64
7, 16800, Note_on_c, 1, 37, 74
7, 17280, Note_off_c, 1, 37, 64
7, 17280, Note_on_c, 1, 42, 80
7, 17760, Note_on_c, 1, 49, 74
7, 17770, Note_off_c, 1, 42, 64
7, 18104, Note_off_c, 1, 49, 64
7, 18160, Note_on_c, 1, 49, 74
7, 18240, Note_off_c, 1, 49, 64
7, 18246, Note_on_c, 1, 42, 72
7, 18712, Note_off_c, 1, 42, 64
7, 18726, Note_on_c, 1, 35, 72
7, 19192, Note_off_c, 1, 35, 64
7, 19206, Note_on_c, 1, 40, 72
7, 19672, Note_off_c, 1, 40, 64
7, 19686, Note_on_c, 1, 33, 72
7, 20152, Note_off_c, 1, 33, 64
7, 20160, Note_on_c, 1, 40, 80
7, 20640, Note_on_c, 1, 47, 74
7, 20650, Note_off_c, 1, 40, 64
7, 20984, Note_off_c, 1, 47, 64
7, 21040, Note_on_c, 1, 47, 74
7, 21120, Note_off_c, 1, 47, 64
7, 21120, Note_on_c, 1, 40, 80
7, 21600, Note_on_c, 1, 47, 74
7, 21610, Note_off_c, 1, 40, 64
7, 21944, Note_off_c, 1, 47, 64
7, 22000, Note_on_c, 1, 47, 74
7, 22080, Note_off_c, 1, 47, 64
7, 22086, Note_on_c, 1, 40, 72
7, 22552, Note_off_c, 1, 40, 64
7, 22566, Note_on_c, 1, 33, 72
7, 23032, Note_off_c, 1, 33, 64
7, 23040, Note_on_c, 1, 38, 75
7, 23390, Note_off_c, 1, 38, 64
7, 23440, Note_on_c, 1, 38, 80
7, 23520, Note_on_c, 1, 45, 73
7, 23530, Note_off_c, 1, 38, 64
7, 23820, Note_off_c, 1, 45, 64
7, 23920, Note_on_c, 1, 45, 72
7, 24000, Note_on_c, 1, 38, 71
7, 24028, Note_off_c, 1, 45, 64
7, 24334, Note_off_c, 1, 38, 64
7, 24400, Note_on_c, 1, 38, 84
7, 24478, Note_off_c, 1, 38, 64
7, 24480, Note_on_c, 1, 45, 68
7, 24816, Note_off_c, 1, 45, 64
7, 24880, Note_on_c, 1, 45, 72
7, 24944, Note_off_c, 1, 45, 64
7, 24960, Note_on_c, 1, 38, 74
7, 25440, Note_off_c, 1, 38, 64
7, 25440, Note_on_c, 1, 36, 74
7, 25920, Note_off_c, 1, 36, 64
7, 25920, Note_on_c, 1, 35, 74
7, 26400, Note_off_c, 1, 35, 64
7, 26400, Note_on_c, 1, 44, 74
7, 26640, Note_off_c, 1, 44, 64
7, 26640, Note_on_c, 1, 37, 74
7, 26880, Note_off_c, 1, 37, 64
7, 26880, Note_on_c, 1, 42, 74
7, 27360, Note_on_c, 1, 49, 73
7, 27380, Note_off_c, 1, 42, 64
7, 27840, Note_off_c, 1, 49, 64
7, 27840, Note_on_c, 1, 35, 74
7, 28320, Note_on_c, 1, 42, 73
7, 28340, Note_off_c, 1, 35, 64
7, 28800, Note_off_c, 1, 42, 64
7, 28800, Note_on_c, 1, 36, 74
7, 29280, Note_off_c, 1, 36, 64
7, 29280, Note_on_c, 1, 41, 74
7, 29760, Note_off_c, 1, 41, 64
7, 29760, Note_on_c, 1, 35, 74
7, 30240, Note_off_c, 1, 35, 64
7, 30240, Note_on_c, 1, 40, 74
7, 30720, Note_off_c, 1, 40, 64
7, 30720, Note_on_c, 1, 33, 74
7, 31200, Note_off_c, 1, 33, 64
7, 31200, Note_on_c, 1, 38, 74
7, 31680, Note_off_c, 1, 38, 64
7, 31680, Note_on_c, 1, 44, 74
7, 32160, Note_off_c, 1, 44, 64
7, 32160, Note_on_c, 1, 37, 74
7, 32640, Note_off_c, 1, 37, 64
7, 32640, Note_on_c, 1, 42, 66
7, 33120, Note_off_c, 1, 42, 64
7, 33120, Note_on_c, 1, 37, 80
7, 33502, Note_off_c, 1, 37, 64
7, 33520, Note_on_c, 1, 42, 76
7, 33566, Note_off_c, 1, 42, 64
7, 33600, Note_on_c, 1, 42, 71
7, 33884, Note_off_c, 1, 42, 64
7, 33920, Note_on_c, 1, 42, 66
7, 33996, Note_off_c, 1, 42, 64
7, 34000, Note_on_c, 1, 42, 80
7, 34080, Note_off_c, 1, 42, 64
7, 34080, Note_on_c, 1, 47, 77
7, 34400, Note_on_c, 1, 43, 67
7, 34408, Note_off_c, 1, 47, 64
7, 34476, Note_off_c, 1, 43, 64
7, 34480, Note_on_c, 1, 35, 70
7, 34560, Note_off_c, 1, 35, 64
7, 34560, Note_on_c, 1, 40, 76
7, 34896, Note_off_c, 1, 40, 64
7, 34960, Note_on_c, 1, 40, 73
7, 35014, Note_off_c, 1, 40, 64
7, 35040, Note_on_c, 1, 33, 71
7, 35324, Note_off_c, 1, 33, 64
7, 35360, Note_on_c, 1, 33, 66
7, 35436, Note_off_c, 1, 33, 64
7, 35440, Note_on_c, 1, 33, 80
7, 35520, Note_off_c, 1, 33, 64
7, 35520, Note_on_c, 1, 40, 80
7, 36000, Note_on_c, 1, 47, 74
7, 36010, Note_off_c, 1, 40, 64
7, 36344, Note_off_c, 1, 47, 64
7, 36400, Note_on_c, 1, 47, 74
7, 36480, Note_off_c, 1, 47, 64
7, 36480, Note_on_c, 1, 40, 80
7, 36960, Note_on_c, 1, 47, 74
7, 36970, Note_off_c, 1, 40, 64
7, 37304, Note_off_c, 1, 47, 64
7, 37360, Note_on_c, 1, 47, 74
7, 37440, Note_off_c, 1, 47, 64
7, 37440, Note_on_c, 1, 40, 80
7, 37820, Note_off_c, 1, 40, 64
7, 37840, Note_on_c, 1, 47, 77
7, 37920, Note_off_c, 1, 47, 64
7, 37920, Note_on_c, 1, 33, 80
7, 38300, Note_off_c, 1, 33, 64
7, 38320, Note_on_c, 1, 41, 77
7, 38400, Note_off_c, 1, 41, 64
7, 38400, Note_on_c, 1, 38, 75
7, 38750, Note_off_c, 1, 38, 64
7, 38800, Note_on_c, 1, 38, 80
7, 38880, Note_on_c, 1, 45, 73
7, 38890, Note_off_c, 1, 38, 64
7, 39180, Note_off_c, 1, 45, 64
7, 39280, Note_on_c, 1, 45, 72
7, 39360, Note_on_c, 1, 38, 71
7, 39388, Note_off_c, 1, 45, 64
7, 39694, Note_off_c, 1, 38, 64
7, 39760, Note_on_c, 1, 38, 84
7, 39838, Note_off_c, 1, 38, 64
7, 39840, Note_on_c, 1, 45, 68
7, 40176, Note_off_c, 1, 45, 64
7, 40240, Note_on_c, 1, 45, 72
7, 40304, Note_off_c, 1, 45, 64
7, 40320, Note_on_c, 1, 38, 80
7, 40800, Note_on_c, 1, 45, 74
7, 40810, Note_off_c, 1, 38, 64
7, 41144, Note_off_c, 1, 45, 64
7, 41200, Note_on_c, 1, 45, 74
7, 41280, Note_off_c, 1, 45, 64
7, 41280, Note_on_c, 1, 43, 80
7, 41760, Note_on_c, 1, 50, 74
7, 41770, Note_off_c, 1, 43, 64
7, 42104, Note_off_c, 1, 50, 64
7, 42160, Note_on_c, 1, 50, 74
7, 42240, Note_off_c, 1, 50, 64
7, 42240, Note_on_c, 1, 36, 66
7, 42720, Note_off_c, 1, 36, 64
7, 42720, Note_on_c, 1, 31, 80
7, 43102, Note_off_c, 1, 31, 64
7, 43120, Note_on_c, 1, 36, 76
7, 43166, Note_off_c, 1, 36, 64
7, 43200, Note_on_c, 1, 33, 76
7, 43536, Note_off_c, 1, 33, 64
7, 43600, Note_on_c, 1, 33, 73
7, 43654, Note_off_c, 1, 33, 64
7, 43680, Note_on_c, 1, 43, 71
7, 43964, Note_off_c, 1, 43, 64
7, 44000, Note_on_c, 1, 43, 66
7, 44076, Note_off_c, 1, 43, 64
7, 44080, Note_on_c, 1, 43, 80
7, 44160, Note_off_c, 1, 43, 64
7, 44160, Note_on_c, 1, 42, 71
7, 44444, Note_off_c, 1, 42, 64
7, 44480, Note_on_c, 1, 42, 66
7, 44556, Note_off_c, 1, 42, 64
7, 44560, Note_on_c, 1, 33, 80
7, 44640, Note_off_c, 1, 33, 64
7, 44640, Note_on_c, 1, 35, 71
7, 44924, Note_off_c, 1, 35, 64
7, 44960, Note_on_c, 1, 35, 66
7, 45036, Note_off_c, 1, 35, 64
7, 45040, Note_on_c, 1, 33, 80
7, 45120, Note_off_c, 1, 33, 64
7, 45120, Note_on_c, 1, 47, 77
7, 45440, Note_on_c, 1, 41, 67
7, 45448, Note_off_c, 1, 47, 64
7, 45516, Note_off_c, 1, 41, 64
7, 45520, Note_on_c, 1, 35, 70
7, 45600, Note_off_c, 1, 35, 64
7, 45600, Note_on_c, 1, 47, 77
7, 45920, Note_on_c, 1, 42, 67
7, 45928, Note_off_c, 1, 47, 64
7, 45996, Note_off_c, 1, 42, 64
7, 46000, Note_on_c, 1, 35, 70
7, 46080, Note_off_c, 1, 35, 64
7, 46080, Note_on_c, 1, 44, 71
7, 46364, Note_off_c, 1, 44, 64
7, 46400, Note_on_c, 1, 44, 66
7, 46476, Note_off_c, 1, 44, 64
7, 46480, Note_on_c, 1, 44, 80
7, 46560, Note_off_c, 1, 44, 64
7, 46560, Note_on_c, 1, 33, 71
7, 46844, Note_off_c, 1, 33, 64
7, 46880, Note_on_c, 1, 33, 66
7, 46956, Note_off_c, 1, 33, 64
7, 46960, Note_on_c, 1, 45, 80
7, 47040, Note_off_c, 1, 45, 64
7, 47040, Note_on_c, 1, 44, 71
7, 47324, Note_off_c, 1, 44, 64
7, 47360, Note_on_c, 1, 44, 66
7, 47436, Note_off_c, 1, 44, 64
7, 47440, Note_on_c, 1, 35, 80
7, 47520, Note_off_c, 1, 35, 64
7, 47520, Note_on_c, 1, 37, 76
7, 47856, Note_off_c, 1, 37, 64
7, 47920, Note_on_c, 1, 37, 73
7, 47974, Note_off_c, 1, 37, 64
7, 48000, Note_on_c, 1, 42, 80
7, 48480, Note_on_c, 1, 49, 74
7, 48490, Note_off_c, 1, 42, 64
7, 48824, Note_off_c, 1, 49, 64
7, 48880, Note_on_c, 1, 49, 74
7, 48960, Note_off_c, 1, 49, 64
7, 48966, Note_on_c, 1, 42, 72
7, 49432, Note_off_c, 1, 42, 64
7, 49446, Note_on_c, 1, 35, 72
7, 49912, Note_off_c, 1, 35, 64
7, 49926, Note_on_c, 1, 40, 72
7, 50392, Note_off_c, 1, 40, 64
7, 50400, Note_on_c, 1, 45, 77
7, 50720, Note_on_c, 1, 40, 67
7, 50728, Note_off_c, 1, 45, 64
7, 50796, Note_off_c, 1, 40, 64
7, 50800, Note_on_c, 1, 33, 70
7, 50880, Note_off_c, 1, 33, 64
7, 50880, Note_on_c, 1, 40, 80
7, 51360, Note_on_c, 1, 47, 74
7, 51370, Note_off_c, 1, 40, 64
7, 51704, Note_off_c, 1, 47, 64
7, 51760, Note_on_c, 1, 47, 74
7, 51840, Note_off_c, 1, 47, 64
7, 51840, Note_on_c, 1, 40, 80
7, 52320, Note_on_c, 1, 47, 74
7, 52330, Note_off_c, 1, 40, 64
7, 52664, Note_off_c, 1, 47, 64
7, 52720, Note_on_c, 1, 47, 74
7, 52800, Note_off_c, 1, 47, 64
7, 52806, Note_on_c, 1, 40, 72
7, 53272, Note_off_c, 1, 40, 64
7, 53280, Note_on_c, 1, 45, 77
7, 53600, Note_on_c, 1, 41, 67
7, 53608, Note_off_c, 1, 45, 64
7, 53676, Note_off_c, 1, 41, 64
7, 53680, Note_on_c, 1, 33, 70
7, 53760, Note_off_c, 1, 33, 64
7, 53760, Note_on_c, 1, 38, 75
7, 54110, Note_off_c, 1, 38, 64
7, 54160, Note_on_c, 1, 38, 80
7, 54240, Note_on_c, 1, 45, 73
7, 54250, Note_off_c, 1, 38, 64
7, 54540, Note_off_c, 1, 45, 64
7, 54640, Note_on_c, 1, 45, 72
7, 54720, Note_on_c, 1, 38, 71
7, 54748, Note_off_c, 1, 45, 64
7, 55054, Note_off_c, 1, 38, 64
7, 55120, Note_on_c, 1, 38, 84
7, 55198, Note_off_c, 1, 38, 64
7, 55200, Note_on_c, 1, 45, 68
7, 55536, Note_off_c, 1, 45, 64
7, 55600, Note_on_c, 1, 45, 72
7, 55664, Note_off_c, 1, 45, 64
7, 55680, Note_on_c, 1, 50, 77
7, 56000, Note_on_c, 1, 45, 67
7, 56008, Note_off_c, 1, 50, 64
7, 56076, Note_off_c, 1, 45, 64
7, 56080, Note_on_c, 1, 38, 70
7, 56160, Note_off_c, 1, 38, 64
7, 56160, Note_on_c, 1, 36, 76
7, 56496, Note_off_c, 1, 36, 64
7, 56560, Note_on_c, 1, 36, 73
7, 56614, Note_off_c, 1, 36, 64
7, 56640, Note_on_c, 1, 35, 71
7, 56924, Note_off_c, 1, 35, 64
7, 56960, Note_on_c, 1, 35, 66
7, 57036, Note_off_c, 1, 35, 64
7, 57040, Note_on_c, 1, 35, 80
7, 57120, Note_off_c, 1, 35, 64
7, 57120, Note_on_c, 1, 44, 68
7, 57360, Note_off_c, 1, 44, 64
7, 57360, Note_on_c, 1, 37, 75
7, 57482, Note_off_c, 1, 37, 64
7, 57520, Note_on_c, 1, 37, 82
7, 57582, Note_off_c, 1, 37, 64
7, 57600, Note_on_c, 1, 42, 80
7, 58080, Note_on_c, 1, 49, 74
7, 58090, Note_off_c, 1, 42, 64
7, 58424, Note_off_c, 1, 49, 64
7, 58480, Note_on_c, 1, 49, 74
7, 58560, Note_off_c, 1, 49, 64
7, 58560, Note_on_c, 1, 35, 80
7, 59040, Note_on_c, 1, 42, 74
7, 59050, Note_off_c, 1, 35, 64
7, 59384, Note_off_c, 1, 42, 64
7, 59440, Note_on_c, 1, 42, 74
7, 59520, Note_off_c, 1, 42, 64
7, 59520, Note_on_c, 1, 48, 77
7, 59840, Note_on_c, 1, 43, 67
7, 59848, Note_off_c, 1, 48, 64
7, 59916, Note_off_c, 1, 43, 64
7, 59920, Note_on_c, 1, 36, 70
7, 60000, Note_off_c, 1, 36, 64
7, 60000, Note_on_c, 1, 41, 76
7, 60336, Note_off_c, 1, 41, 64
7, 60400, Note_on_c, 1, 41, 73
7, 60454, Note_off_c, 1, 41, 64
7, 60486, Note_on_c, 1, 35, 72
7, 60952, Note_off_c, 1, 35, 64
7, 60960, Note_on_c, 1, 40, 80
7, 61340, Note_off_c, 1, 40, 64
7, 61360, Note_on_c, 1, 47, 77
7, 61440, Note_off_c, 1, 47, 64
7, 61440, Note_on_c, 1, 45, 77
7, 61760, Note_on_c, 1, 40, 67
7, 61768, Note_off_c, 1, 45, 64
7, 61836, Note_off_c, 1, 40, 64
7, 61840, Note_on_c, 1, 33, 70
7, 61920, Note_off_c, 1, 33, 64
7, 61920, Note_on_c, 1, 38, 80
7, 62300, Note_off_c, 1, 38, 64
7, 62320, Note_on_c, 1, 45, 77
7, 62400, Note_off_c, 1, 45, 64
7, 62400, Note_on_c, 1, 44, 80
7, 62780, Note_off_c, 1, 44, 64
7, 62800, Note_on_c, 1, 50, 77
7, 62880, Note_off_c, 1, 50, 64
7, 62886, Note_on_c, 1, 37, 72
7, 63352, Note_off_c, 1, 37, 64
7, 63360, Note_on_c, 1, 42, 74
7, 63840, Note_on_c, 1, 49, 73
7, 63860, Note_off_c, 1, 42, 64
7, 64320, Note_off_c, 1, 49, 64
7, 64320, Note_on_c, 1, 42, 74
7, 64800, Note_off_c, 1, 42, 64
7, 64800, Note_on_c, 1, 35, 74
7, 65280, Note_off_c, 1, 35, 64
7, 65280, Note_on_c, 1, 40, 74
7, 65760, Note_off_c, 1, 40, 64
7, 65760, Note_on_c, 1, 33, 74
7, 66240, Note_off_c, 1, 33, 64
7, 66240, Note_on_c, 1, 40, 74
7, 66720, Note_on_c, 1, 47, 73
7, 66740, Note_off_c, 1, 40, 64
7, 67200, Note_off_c, 1, 47, 64
7, 67200, Note_on_c, 1, 40, 74
7, 67680, Note_on_c, 1, 47, 73
7, 67700, Note_off_c, 1, 40, 64
7, 68160, Note_off_c, 1, 47, 64
7, 68160, Note_on_c, 1, 40, 74
7, 68640, Note_off_c, 1, 40, 64
7, 68640, Note_on_c, 1, 33, 74
7, 69120, Note_off_c, 1, 33, 64
7, 69120, Note_on_c, 1, 38, 74
7, 69600, Note_on_c, 1, 45, 73
7, 69620, Note_off_c, 1, 38, 64
7, 70080, Note_on_c, 1, 38, 79
7, 70110, Note_off_c, 1, 45, 64
7, 70560, Note_on_c, 1, 45, 66
7, 70602, Note_off_c, 1, 38, 64
7, 71002, Note_off_c, 1, 45, 64
7, 71040, Note_on_c, 1, 38, 74
7, 71520, Note_on_c, 1, 45, 73
7, 71540, Note_off_c, 1, 38, 64
7, 72000, Note_off_c, 1, 45, 64
7, 72000, Note_on_c, 1, 43, 74
7, 72480, Note_on_c, 1, 50, 73
7, 72500, Note_off_c, 1, 43, 64
7, 72960, Note_off_c, 1, 50, 64
7, 72960, Note_on_c, 1, 36, 74
7, 73440, Note_on_c, 1, 43, 73
7, 73460, Note_off_c, 1, 36, 64
7, 73920, Note_off_c, 1, 43, 64
7, 73920, Note_on_c, 1, 33, 74
7, 74400, Note_off_c, 1, 33, 64
7, 74400, Note_on_c, 1, 43, 74
7, 74880, Note_off_c, 1, 43, 64
7, 74880, Note_on_c, 1, 42, 74
7, 75360, Note_off_c, 1, 42, 64
7, 75360, Note_on_c, 1, 35, 74
7, 75840, Note_off_c, 1, 35, 64
7, 75840, Note_on_c, 1, 35, 74
7, 76320, Note_off_c, 1, 35, 64
7, 76320, Note_on_c, 1, 35, 74
7, 76800, Note_off_c, 1, 35, 64
7, 76800, Note_on_c, 1, 44, 74
7, 77280, Note_off_c, 1, 44, 64
7, 77280, Note_on_c, 1, 33, 74
7, 77760, Note_off_c, 1, 33, 64
7, 77760, Note_on_c, 1, 44, 74
7, 78240, Note_off_c, 1, 44, 64
7, 78240, Note_on_c, 1, 37, 74
7, 78720, Note_off_c, 1, 37, 64
7, 78720, Note_on_c, 1, 42, 66
7, 79200, Note_off_c, 1, 42, 64
7, 79200, Note_on_c, 1, 37, 80
7, 79582, Note_off_c, 1, 37, 64
7, 79600, Note_on_c, 1, 42, 76
7, 79646, Note_off_c, 1, 42, 64
7, 79686, Note_on_c, 1, 42, 72
7, 80152, Note_off_c, 1, 42, 64
7, 80160, Note_on_c, 1, 47, 77
7, 80480, Note_on_c, 1, 43, 67
7, 80488, Note_off_c, 1, 47, 64
7, 80556, Note_off_c, 1, 43, 64
7, 80560, Note_on_c, 1, 35, 70
7, 80640, Note_off_c, 1, 35, 64
7, 80640, Note_on_c, 1, 40, 71
7, 80924, Note_off_c, 1, 40, 64
7, 80960, Note_on_c, 1, 40, 66
7, 81036, Note_off_c, 1, 40, 64
7, 81040, Note_on_c, 1, 40, 80
7, 81120, Note_off_c, 1, 40, 64
7, 81120, Note_on_c, 1, 33, 80
7, 81500, Note_off_c, 1, 33, 64
7, 81520, Note_on_c, 1, 40, 77
7, 81600, Note_off_c, 1, 40, 64
7, 81600, Note_on_c, 1, 40, 66
7, 82080, Note_off_c, 1, 40, 64
7, 82080, Note_on_c, 1, 35, 80
7, 82462, Note_off_c, 1, 35, 64
7, 82480, Note_on_c, 1, 40, 76
7, 82526, Note_off_c, 1, 40, 64
7, 82560, Note_on_c, 1, 40, 80
7, 83040, Note_on_c, 1, 47, 74
7, 83050, Note_off_c, 1, 40, 64
7, 83384, Note_off_c, 1, 47, 64
7, 83440, Note_on_c, 1, 47, 74
7, 83520, Note_off_c, 1, 47, 64
7, 83520, Note_on_c, 1, 40, 76
7, 83856, Note_off_c, 1, 40, 64
7, 83920, Note_on_c, 1, 40, 73
7, 83974, Note_off_c, 1, 40, 64
7, 84000, Note_on_c, 1, 33, 76
7, 84336, Note_off_c, 1, 33, 64
7, 84400, Note_on_c, 1, 33, 73
7, 84454, Note_off_c, 1, 33, 64
7, 84480, Note_on_c, 1, 38, 75
7, 84830, Note_off_c, 1, 38, 64
7, 84880, Note_on_c, 1, 38, 80
7, 84960, Note_on_c, 1, 45, 73
7, 84970, Note_off_c, 1, 38, 64
7, 85260, Note_off_c, 1, 45, 64
7, 85360, Note_on_c, 1, 45, 72
7, 85440, Note_on_c, 1, 38, 71
7, 85468, Note_off_c, 1, 45, 64
7, 85774, Note_off_c, 1, 38, 64
7, 85840, Note_on_c, 1, 38, 84
7, 85918, Note_off_c, 1, 38, 64
7, 85920, Note_on_c, 1, 45, 68
7, 86256, Note_off_c, 1, 45, 64
7, 86320, Note_on_c, 1, 45, 72
7, 86384, Note_off_c, 1, 45, 64
7, 86400, Note_on_c, 1, 38, 74
7, 86880, Note_off_c, 1, 38, 64
7, 86880, Note_on_c, 1, 36, 74
7, 87360, Note_off_c, 1, 36, 64
7, 87360, Note_on_c, 1, 35, 74
7, 87840, Note_off_c, 1, 35, 64
7, 87840, Note_on_c, 1, 44, 74
7, 88080, Note_off_c, 1, 44, 64
7, 88080, Note_on_c, 1, 37, 74
7, 88320, Note_off_c, 1, 37, 64
7, 88320, Note_on_c, 1, 42, 74
7, 88800, Note_on_c, 1, 49, 73
7, 88820, Note_off_c, 1, 42, 64
7, 89280, Note_off_c, 1, 49, 64
7, 89280, Note_on_c, 1, 35, 74
7, 89760, Note_on_c, 1, 42, 73
7, 89780, Note_off_c, 1, 35, 64
7, 90240, Note_off_c, 1, 42, 64
7, 90240, Note_on_c, 1, 36, 74
7, 90720, Note_off_c, 1, 36, 64
7, 90720, Note_on_c, 1, 41, 74
7, 91200, Note_off_c, 1, 41, 64
7, 91200, Note_on_c, 1, 35, 74
7, 91680, Note_off_c, 1, 35, 64
7, 91680, Note_on_c, 1, 40, 74
7, 92160, Note_off_c, 1, 40, 64
7, 92160, Note_on_c, 1, 33, 74
7, 92640, Note_off_c, 1, 33, 64
7, 92640, Note_on_c, 1, 38, 74
7, 93120, Note_off_c, 1, 38, 64
7, 93120, Note_on_c, 1, 44, 74
7, 93600, Note_off_c, 1, 44, 64
7, 93600, Note_on_c, 1, 37, 74
7, 94080, Note_off_c, 1, 37, 64
7, 94080, Note_on_c, 1, 33, 74
7, 94560, Note_on_c, 1, 40, 84
7, 94570, Note_off_c, 1, 33, 64
7, 94922, Note_off_c, 1, 40, 64
7, 94960, Note_on_c, 1, 40, 77
7, 95040, Note_on_c, 1, 45, 84
7, 95046, Note_off_c, 1, 40, 64
7, 95280, Note_on_c, 1, 40, 80
7, 95284, Note_off_c, 1, 45, 64
7, 95520, Note_on_c, 1, 33, 77
7, 95532, Note_off_c, 1, 40, 64
7, 95820, Note_off_c, 1, 33, 64
7, 95820, End_track
8, 0, Start_track
8, 0, Title_t, "Strings /  Pizzicato Str.   "
8, 0, Program_c, 2, 45
8, 0, Control_c, 2, 7, 65
8, 0, Control_c, 2, 121, 0
8, 0, Control_c, 2, 10, 64
8, 0, Control_c, 2, 123, 0
8, 0, Control_c, 2, 91, 40
8, 0, Control_c, 2, 93, 10
8, 0, Control_c, 2, 64, 0
8, 2880, Note_on_c, 2, 42, 76
8, 3040, Note_on_c, 2, 54, 57
8, 3112, Note_off_c, 2, 54, 64
8, 3120, Note_on_c, 2, 52, 74
8, 3120, Note_on_c, 2, 61, 83
8, 3200, Note_off_c, 2, 61, 64
8, 3200, Note_on_c, 2, 57, 71
8, 3280, Note_off_c, 2, 57, 64
8, 3280, Note_on_c, 2, 54, 61
8, 3360, Note_off_c, 2, 54, 64
8, 3360, Note_off_c, 2, 52, 64
8, 3360, Note_off_c, 2, 42, 64
8, 3360, Note_on_c, 2, 47, 63
8, 3360, Note_on_c, 2, 75, 81
8, 3360, Note_on_c, 2, 79, 69
8, 3420, Note_off_c, 2, 47, 64
8, 3600, Note_on_c, 2, 63, 39
8, 3600, Note_on_c, 2, 60, 36
8, 3600, Note_on_c, 2, 55, 35
8, 3600, Note_on_c, 2, 57, 44
8, 3738, Note_off_c, 2, 57, 64
8, 3746, Note_off_c, 2, 60, 64
8, 3746, Note_off_c, 2, 63, 64
8, 3748, Note_off_c, 2, 55, 64
8, 3748, Note_off_c, 2, 79, 64
8, 3748, Note_off_c, 2, 75, 64
8, 3840, Note_on_c, 2, 52, 76
8, 4000, Note_on_c, 2, 64, 57
8, 4072, Note_off_c, 2, 64, 64
8, 4080, Note_on_c, 2, 63, 74
8, 4080, Note_on_c, 2, 71, 83
8, 4160, Note_off_c, 2, 71, 64
8, 4160, Note_on_c, 2, 68, 71
8, 4240, Note_off_c, 2, 68, 64
8, 4240, Note_on_c, 2, 64, 61
8, 4320, Note_off_c, 2, 64, 64
8, 4320, Note_off_c, 2, 63, 64
8, 4320, Note_off_c, 2, 52, 64
8, 4320, Note_on_c, 2, 59, 66
8, 4320, Note_on_c, 2, 64, 71
8, 4320, Note_on_c, 2, 45, 67
8, 4400, Note_on_c, 2, 52, 69
8, 4480, Note_on_c, 2, 55, 72
8, 4480, Note_on_c, 2, 61, 78
8, 4800, Note_off_c, 2, 61, 64
8, 4800, Note_off_c, 2, 55, 64
8, 4800, Note_off_c, 2, 52, 64
8, 4800, Note_off_c, 2, 45, 64
8, 4800, Note_off_c, 2, 64, 64
8, 4800, Note_off_c, 2, 59, 64
8, 4800, Note_on_c, 2, 52, 70
8, 5022, Note_off_c, 2, 52, 64
8, 5040, Note_on_c, 2, 83, 70
8, 5040, Note_on_c, 2, 59, 54
8, 5040, Note_on_c, 2, 68, 46
8, 5040, Note_on_c, 2, 63, 70
8, 5040, Note_on_c, 2, 64, 29
8, 5120, Note_on_c, 2, 80, 50
8, 5190, Note_off_c, 2, 64, 64
8, 5190, Note_off_c, 2, 68, 64
8, 5200, Note_off_c, 2, 63, 64
8, 5200, Note_off_c, 2, 59, 64
8, 5200, Note_off_c, 2, 83, 64
8, 5200, Note_on_c, 2, 78, 71
8, 5272, Note_off_c, 2, 80, 64
8, 5280, Note_off_c, 2, 78, 64
8, 5280, Note_on_c, 2, 83, 72
8, 5280, Note_on_c, 2, 47, 64
8, 5360, Note_on_c, 2, 80, 60
8, 5420, Note_off_c, 2, 47, 64
8, 5430, Note_off_c, 2, 83, 64
8, 5440, Note_on_c, 2, 78, 73
8, 5506, Note_off_c, 2, 80, 64
8, 5520, Note_off_c, 2, 78, 64
8, 5520, Note_on_c, 2, 59, 39
8, 5520, Note_on_c, 2, 63, 61
8, 5520, Note_on_c, 2, 68, 51
8, 5520, Note_on_c, 2, 64, 51
8, 5520, Note_on_c, 2, 83, 80
8, 5600, Note_on_c, 2, 80, 61
8, 5666, Note_off_c, 2, 83, 64
8, 5680, Note_on_c, 2, 78, 73
8, 5740, Note_off_c, 2, 80, 64
8, 5760, Note_off_c, 2, 78, 64
8, 5760, Note_off_c, 2, 64, 64
8, 5760, Note_off_c, 2, 68, 64
8, 5760, Note_off_c, 2, 63, 64
8, 5760, Note_off_c, 2, 59, 64
8, 5760, Note_on_c, 2, 52, 58
8, 5920, Note_off_c, 2, 52, 64
8, 5920, Note_on_c, 2, 71, 65
8, 6000, Note_on_c, 2, 67, 69
8, 6000, Note_on_c, 2, 62, 67
8, 6000, Note_on_c, 2, 64, 40
8, 6020, Note_off_c, 2, 71, 64
8, 6020, Note_on_c, 2, 59, 41
8, 6020, Note_on_c, 2, 55, 17
8, 6160, Note_off_c, 2, 55, 64
8, 6160, Note_off_c, 2, 59, 64
8, 6160, Note_off_c, 2, 64, 64
8, 6160, Note_off_c, 2, 62, 64
8, 6160, Note_off_c, 2, 67, 64
8, 6160, Note_on_c, 2, 76, 79
8, 6240, Note_on_c, 2, 71, 55
8, 6244, Note_off_c, 2, 76, 64
8, 6244, Note_on_c, 2, 47, 68
8, 6400, Note_off_c, 2, 47, 64
8, 6400, Note_off_c, 2, 71, 64
8, 6400, Note_on_c, 2, 79, 64
8, 6480, Note_on_c, 2, 76, 74
8, 6480, Note_on_c, 2, 62, 67
8, 6480, Note_on_c, 2, 59, 47
8, 6480, Note_on_c, 2, 55, 45
8, 6480, Note_on_c, 2, 64, 40
8, 6618, Note_off_c, 2, 79, 64
8, 6720, Note_off_c, 2, 64, 64
8, 6720, Note_off_c, 2, 55, 64
8, 6720, Note_off_c, 2, 59, 64
8, 6720, Note_off_c, 2, 62, 64
8, 6720, Note_off_c, 2, 76, 64
8, 6720, Note_on_c, 2, 52, 68
8, 6880, Note_on_c, 2, 67, 65
8, 6952, Note_off_c, 2, 67, 64
8, 6960, Note_on_c, 2, 76, 75
8, 6960, Note_on_c, 2, 62, 74
8, 6960, Note_on_c, 2, 59, 63
8, 6960, Note_on_c, 2, 55, 67
8, 7040, Note_on_c, 2, 71, 60
8, 7098, Note_off_c, 2, 76, 64
8, 7120, Note_on_c, 2, 67, 90
8, 7140, Note_off_c, 2, 71, 64
8, 7200, Note_off_c, 2, 67, 64
8, 7200, Note_off_c, 2, 55, 64
8, 7200, Note_off_c, 2, 59, 64
8, 7200, Note_off_c, 2, 62, 64
8, 7200, Note_off_c, 2, 52, 64
8, 7200, Note_on_c, 2, 58, 66
8, 7200, Note_on_c, 2, 65, 71
8, 7200, Note_on_c, 2, 45, 67
8, 7280, Note_on_c, 2, 53, 69
8, 7360, Note_on_c, 2, 55, 72
8, 7360, Note_on_c, 2, 61, 78
8, 7680, Note_off_c, 2, 61, 64
8, 7680, Note_off_c, 2, 55, 64
8, 7680, Note_off_c, 2, 53, 64
8, 7680, Note_off_c, 2, 45, 64
8, 7680, Note_off_c, 2, 65, 64
8, 7680, Note_off_c, 2, 58, 64
8, 7680, Note_on_c, 2, 50, 82
8, 7784, Note_off_c, 2, 50, 64
8, 7840, Note_on_c, 2, 78, 49
8, 7914, Note_off_c, 2, 78, 64
8, 7920, Note_on_c, 2, 57, 52
8, 7920, Note_on_c, 2, 66, 55
8, 7920, Note_on_c, 2, 81, 74
8, 7920, Note_on_c, 2, 60, 68
8, 7920, Note_on_c, 2, 62, 47
8, 7980, Note_off_c, 2, 62, 64
8, 7986, Note_off_c, 2, 66, 64
8, 7988, Note_off_c, 2, 60, 64
8, 7988, Note_off_c, 2, 57, 64
8, 8000, Note_off_c, 2, 81, 64
8, 8000, Note_on_c, 2, 83, 44
8, 8068, Note_off_c, 2, 83, 64
8, 8080, Note_on_c, 2, 86, 68
8, 8160, Note_on_c, 2, 45, 70
8, 8160, Note_on_c, 2, 83, 54
8, 8204, Note_off_c, 2, 86, 64
8, 8232, Note_off_c, 2, 45, 64
8, 8314, Note_off_c, 2, 83, 64
8, 8320, Note_on_c, 2, 81, 63
8, 8400, Note_on_c, 2, 57, 48
8, 8400, Note_on_c, 2, 60, 60
8, 8400, Note_on_c, 2, 62, 46
8, 8400, Note_on_c, 2, 66, 49
8, 8478, Note_off_c, 2, 60, 64
8, 8482, Note_off_c, 2, 66, 64
8, 8482, Note_off_c, 2, 62, 64
8, 8482, Note_off_c, 2, 57, 64
8, 8640, Note_on_c, 2, 50, 78
8, 8714, Note_off_c, 2, 50, 64
8, 8784, Note_off_c, 2, 81, 64
8, 8800, Note_on_c, 2, 78, 69
8, 8864, Note_off_c, 2, 78, 64
8, 8880, Note_on_c, 2, 81, 79
8, 8880, Note_on_c, 2, 57, 53
8, 8880, Note_on_c, 2, 66, 61
8, 8880, Note_on_c, 2, 60, 63
8, 8880, Note_on_c, 2, 62, 50
8, 8880, Note_on_c, 2, 86, 84
8, 8960, Note_on_c, 2, 83, 49
8, 8980, Note_off_c, 2, 86, 64
8, 8980, Note_off_c, 2, 62, 64
8, 8980, Note_off_c, 2, 60, 64
8, 8980, Note_off_c, 2, 66, 64
8, 8980, Note_off_c, 2, 57, 64
8, 8980, Note_off_c, 2, 81, 64
8, 9020, Note_off_c, 2, 83, 64
8, 9040, Note_on_c, 2, 83, 80
8, 9040, Note_on_c, 2, 86, 76
8, 9124, Note_off_c, 2, 83, 64
8, 9124, Note_on_c, 2, 45, 64
8, 9124, Note_on_c, 2, 81, 70
8, 9188, Note_off_c, 2, 45, 64
8, 9280, Note_off_c, 2, 81, 64
8, 9280, Note_on_c, 2, 78, 61
8, 9360, Note_on_c, 2, 66, 54
8, 9360, Note_on_c, 2, 57, 36
8, 9360, Note_on_c, 2, 62, 48
8, 9360, Note_on_c, 2, 60, 59
8, 9512, Note_off_c, 2, 60, 64
8, 9514, Note_off_c, 2, 62, 64
8, 9514, Note_off_c, 2, 57, 64
8, 9520, Note_off_c, 2, 66, 64
8, 9522, Note_off_c, 2, 86, 64
8, 9524, Note_off_c, 2, 78, 64
8, 9600, Note_on_c, 2, 50, 61
8, 9830, Note_off_c, 2, 50, 64
8, 9840, Note_on_c, 2, 62, 47
8, 9840, Note_on_c, 2, 74, 52
8, 9840, Note_on_c, 2, 53, 60
8, 9840, Note_on_c, 2, 57, 47
8, 9920, Note_off_c, 2, 57, 64
8, 9920, Note_off_c, 2, 53, 64
8, 9920, Note_off_c, 2, 62, 64
8, 9920, Note_on_c, 2, 69, 52
8, 10000, Note_off_c, 2, 74, 64
8, 10000, Note_on_c, 2, 77, 69
8, 10078, Note_off_c, 2, 69, 64
8, 10080, Note_on_c, 2, 45, 65
8, 10080, Note_on_c, 2, 74, 74
8, 10144, Note_off_c, 2, 77, 64
8, 10178, Note_off_c, 2, 45, 64
8, 10240, Note_off_c, 2, 74, 64
8, 10240, Note_on_c, 2, 81, 69
8, 10320, Note_on_c, 2, 77, 78
8, 10320, Note_on_c, 2, 57, 52
8, 10320, Note_on_c, 2, 53, 55
8, 10320, Note_on_c, 2, 62, 47
8, 10402, Note_off_c, 2, 81, 64
8, 10560, Note_off_c, 2, 62, 64
8, 10560, Note_off_c, 2, 53, 64
8, 10560, Note_off_c, 2, 57, 64
8, 10560, Note_off_c, 2, 77, 64
8, 10560, Note_on_c, 2, 43, 71
8, 10768, Note_off_c, 2, 43, 64
8, 10800, Note_on_c, 2, 50, 59
8, 10800, Note_on_c, 2, 53, 83
8, 10800, Note_on_c, 2, 59, 69
8, 10800, Note_on_c, 2, 56, 59
8, 10960, Note_off_c, 2, 56, 64
8, 10960, Note_off_c, 2, 59, 64
8, 10960, Note_off_c, 2, 53, 64
8, 10960, Note_off_c, 2, 50, 64
8, 10960, Note_on_c, 2, 68, 71
8, 10960, Note_on_c, 2, 74, 73
8, 11000, Note_on_c, 2, 71, 75
8, 11040, Note_off_c, 2, 68, 64
8, 11040, Note_on_c, 2, 38, 49
8, 11156, Note_off_c, 2, 74, 64
8, 11192, Note_off_c, 2, 71, 64
8, 11196, Note_off_c, 2, 38, 64
8, 11200, Note_on_c, 2, 71, 71
8, 11200, Note_on_c, 2, 74, 64
8, 11280, Note_on_c, 2, 50, 46
8, 11280, Note_on_c, 2, 53, 71
8, 11280, Note_on_c, 2, 59, 47
8, 11280, Note_on_c, 2, 56, 61
8, 11520, Note_off_c, 2, 56, 64
8, 11520, Note_off_c, 2, 59, 64
8, 11520, Note_off_c, 2, 53, 64
8, 11520, Note_off_c, 2, 50, 64
8, 11520, Note_off_c, 2, 74, 64
8, 11520, Note_off_c, 2, 71, 64
8, 11520, Note_on_c, 2, 48, 70
8, 11742, Note_off_c, 2, 48, 64
8, 11760, Note_on_c, 2, 79, 70
8, 11760, Note_on_c, 2, 55, 54
8, 11760, Note_on_c, 2, 64, 46
8, 11760, Note_on_c, 2, 59, 70
8, 11760, Note_on_c, 2, 60, 29
8, 11840, Note_on_c, 2, 76, 50
8, 11910, Note_off_c, 2, 60, 64
8, 11910, Note_off_c, 2, 64, 64
8, 11920, Note_off_c, 2, 59, 64
8, 11920, Note_off_c, 2, 55, 64
8, 11920, Note_off_c, 2, 79, 64
8, 11920, Note_on_c, 2, 74, 71
8, 11992, Note_off_c, 2, 76, 64
8, 12000, Note_off_c, 2, 74, 64
8, 12000, Note_on_c, 2, 79, 72
8, 12000, Note_on_c, 2, 43, 64
8, 12080, Note_on_c, 2, 76, 60
8, 12140, Note_off_c, 2, 43, 64
8, 12150, Note_off_c, 2, 79, 64
8, 12160, Note_on_c, 2, 74, 73
8, 12226, Note_off_c, 2, 76, 64
8, 12240, Note_off_c, 2, 74, 64
8, 12240, Note_on_c, 2, 55, 39
8, 12240, Note_on_c, 2, 59, 61
8, 12240, Note_on_c, 2, 64, 51
8, 12240, Note_on_c, 2, 60, 51
8, 12240, Note_on_c, 2, 79, 80
8, 12320, Note_on_c, 2, 76, 61
8, 12386, Note_off_c, 2, 79, 64
8, 12400, Note_on_c, 2, 74, 73
8, 12460, Note_off_c, 2, 76, 64
8, 12480, Note_off_c, 2, 74, 64
8, 12480, Note_off_c, 2, 60, 64
8, 12480, Note_off_c, 2, 64, 64
8, 12480, Note_off_c, 2, 59, 64
8, 12480, Note_off_c, 2, 55, 64
8, 12480, Note_on_c, 2, 45, 60
8, 12480, Note_on_c, 2, 64, 80
8, 12530, Note_off_c, 2, 45, 64
8, 12640, Note_on_c, 2, 60, 71
8, 12642, Note_off_c, 2, 64, 64
8, 12720, Note_on_c, 2, 55, 66
8, 12720, Note_on_c, 2, 57, 45
8, 12720, Note_on_c, 2, 52, 42
8, 12950, Note_off_c, 2, 52, 64
8, 12950, Note_off_c, 2, 57, 64
8, 12950, Note_off_c, 2, 55, 64
8, 12956, Note_off_c, 2, 60, 64
8, 12960, Note_on_c, 2, 43, 60
8, 12960, Note_on_c, 2, 64, 80
8, 13010, Note_off_c, 2, 43, 64
8, 13120, Note_on_c, 2, 60, 71
8, 13122, Note_off_c, 2, 64, 64
8, 13200, Note_on_c, 2, 55, 66
8, 13200, Note_on_c, 2, 57, 45
8, 13200, Note_on_c, 2, 52, 42
8, 13430, Note_off_c, 2, 52, 64
8, 13430, Note_off_c, 2, 57, 64
8, 13430, Note_off_c, 2, 55, 64
8, 13436, Note_off_c, 2, 60, 64
8, 13440, Note_on_c, 2, 42, 76
8, 13600, Note_on_c, 2, 54, 57
8, 13672, Note_off_c, 2, 54, 64
8, 13680, Note_on_c, 2, 52, 74
8, 13680, Note_on_c, 2, 60, 83
8, 13760, Note_off_c, 2, 60, 64
8, 13760, Note_on_c, 2, 57, 71
8, 13840, Note_off_c, 2, 57, 64
8, 13840, Note_on_c, 2, 54, 61
8, 13920, Note_off_c, 2, 54, 64
8, 13920, Note_off_c, 2, 52, 64
8, 13920, Note_off_c, 2, 42, 64
8, 13920, Note_on_c, 2, 47, 60
8, 13920, Note_on_c, 2, 65, 80
8, 13970, Note_off_c, 2, 47, 64
8, 14080, Note_on_c, 2, 63, 71
8, 14082, Note_off_c, 2, 65, 64
8, 14160, Note_on_c, 2, 57, 66
8, 14160, Note_on_c, 2, 59, 45
8, 14160, Note_on_c, 2, 53, 42
8, 14390, Note_off_c, 2, 53, 64
8, 14390, Note_off_c, 2, 59, 64
8, 14390, Note_off_c, 2, 57, 64
8, 14396, Note_off_c, 2, 63, 64
8, 14400, Note_on_c, 2, 59, 66
8, 14400, Note_on_c, 2, 65, 71
8, 14400, Note_on_c, 2, 47, 67
8, 14480, Note_on_c, 2, 53, 69
8, 14560, Note_on_c, 2, 57, 72
8, 14560, Note_on_c, 2, 63, 78
8, 14880, Note_off_c, 2, 63, 64
8, 14880, Note_off_c, 2, 57, 64
8, 14880, Note_off_c, 2, 53, 64
8, 14880, Note_off_c, 2, 47, 64
8, 14880, Note_off_c, 2, 65, 64
8, 14880, Note_off_c, 2, 59, 64
8, 14880, Note_on_c, 2, 47, 57
8, 14990, Note_off_c, 2, 47, 64
8, 15040, Note_on_c, 2, 73, 74
8, 15130, Note_off_c, 2, 73, 64
8, 15130, Note_on_c, 2, 66, 65
8, 15130, Note_on_c, 2, 63, 48
8, 15130, Note_on_c, 2, 57, 58
8, 15130, Note_on_c, 2, 61, 43
8, 15130, Note_on_c, 2, 54, 44
8, 15322, Note_off_c, 2, 57, 64
8, 15326, Note_off_c, 2, 54, 64
8, 15326, Note_off_c, 2, 61, 64
8, 15326, Note_off_c, 2, 66, 64
8, 15330, Note_off_c, 2, 63, 64
8, 15360, Note_on_c, 2, 44, 60
8, 15360, Note_on_c, 2, 63, 80
8, 15410, Note_off_c, 2, 44, 64
8, 15520, Note_on_c, 2, 59, 71
8, 15522, Note_off_c, 2, 63, 64
8, 15600, Note_on_c, 2, 54, 66
8, 15600, Note_on_c, 2, 56, 45
8, 15600, Note_on_c, 2, 51, 42
8, 15830, Note_off_c, 2, 51, 64
8, 15830, Note_off_c, 2, 56, 64
8, 15830, Note_off_c, 2, 54, 64
8, 15836, Note_off_c, 2, 59, 64
8, 15840, Note_on_c, 2, 45, 60
8, 15840, Note_on_c, 2, 64, 80
8, 15890, Note_off_c, 2, 45, 64
8, 16000, Note_on_c, 2, 61, 71
8, 16002, Note_off_c, 2, 64, 64
8, 16080, Note_on_c, 2, 56, 66
8, 16080, Note_on_c, 2, 57, 45
8, 16080, Note_on_c, 2, 52, 42
8, 16310, Note_off_c, 2, 52, 64
8, 16310, Note_off_c, 2, 57, 64
8, 16310, Note_off_c, 2, 56, 64
8, 16316, Note_off_c, 2, 61, 64
8, 16320, Note_on_c, 2, 44, 60
8, 16320, Note_on_c, 2, 62, 80
8, 16370, Note_off_c, 2, 44, 64
8, 16480, Note_on_c, 2, 59, 71
8, 16482, Note_off_c, 2, 62, 64
8, 16560, Note_on_c, 2, 54, 66
8, 16560, Note_on_c, 2, 56, 45
8, 16560, Note_on_c, 2, 50, 42
8, 16790, Note_off_c, 2, 50, 64
8, 16790, Note_off_c, 2, 56, 64
8, 16790, Note_off_c, 2, 54, 64
8, 16796, Note_off_c, 2, 59, 64
8, 16800, Note_on_c, 2, 49, 70
8, 16950, Note_off_c, 2, 49, 64
8, 16960, Note_on_c, 2, 73, 68
8, 17040, Note_on_c, 2, 56, 50
8, 17040, Note_on_c, 2, 59, 67
8, 17040, Note_on_c, 2, 65, 55
8, 17040, Note_on_c, 2, 61, 51
8, 17200, Note_off_c, 2, 61, 64
8, 17200, Note_off_c, 2, 65, 64
8, 17200, Note_off_c, 2, 59, 64
8, 17200, Note_off_c, 2, 56, 64
8, 17200, Note_on_c, 2, 68, 65
8, 17240, Note_off_c, 2, 73, 64
8, 17280, Note_off_c, 2, 68, 64
8, 17280, Note_on_c, 2, 42, 74
8, 17280, Note_on_c, 2, 78, 85
8, 17280, Note_on_c, 2, 75, 69
8, 17360, Note_off_c, 2, 42, 64
8, 17360, Note_on_c, 2, 73, 65
8, 17418, Note_off_c, 2, 75, 64
8, 17520, Note_on_c, 2, 49, 53
8, 17524, Note_off_c, 2, 73, 64
8, 17524, Note_on_c, 2, 54, 51
8, 17526, Note_off_c, 2, 78, 64
8, 17526, Note_on_c, 2, 57, 55
8, 17612, Note_off_c, 2, 57, 64
8, 17612, Note_off_c, 2, 54, 64
8, 17612, Note_off_c, 2, 49, 64
8, 17612, Note_on_c, 2, 73, 61
8, 17612, Note_on_c, 2, 69, 68
8, 17680, Note_on_c, 2, 68, 66
8, 17724, Note_off_c, 2, 69, 64
8, 17760, Note_off_c, 2, 68, 64
8, 17760, Note_on_c, 2, 66, 69
8, 17760, Note_on_c, 2, 37, 66
8, 17840, Note_off_c, 2, 37, 64
8, 17840, Note_off_c, 2, 66, 64
8, 17840, Note_on_c, 2, 68, 61
8, 17920, Note_off_c, 2, 68, 64
8, 17920, Note_on_c, 2, 69, 67
8, 18000, Note_on_c, 2, 49, 58
8, 18000, Note_on_c, 2, 57, 63
8, 18000, Note_on_c, 2, 54, 54
8, 18124, Note_off_c, 2, 54, 64
8, 18132, Note_off_c, 2, 57, 64
8, 18136, Note_off_c, 2, 49, 64
8, 18240, Note_off_c, 2, 69, 64
8, 18240, Note_off_c, 2, 73, 64
8, 18240, Note_on_c, 2, 73, 72
8, 18240, Note_on_c, 2, 42, 76
8, 18304, Note_off_c, 2, 42, 64
8, 18320, Note_on_c, 2, 69, 48
8, 18400, Note_on_c, 2, 66, 67
8, 18412, Note_off_c, 2, 69, 64
8, 18480, Note_on_c, 2, 52, 69
8, 18480, Note_on_c, 2, 57, 53
8, 18480, Note_on_c, 2, 49, 51
8, 18480, Note_on_c, 2, 54, 49
8, 18588, Note_off_c, 2, 54, 64
8, 18588, Note_off_c, 2, 49, 64
8, 18588, Note_off_c, 2, 57, 64
8, 18588, Note_off_c, 2, 52, 64
8, 18596, Note_off_c, 2, 73, 64
8, 18608, Note_off_c, 2, 66, 64
8, 18720, Note_on_c, 2, 47, 76
8, 18960, Note_off_c, 2, 47, 64
8, 18960, Note_on_c, 2, 55, 32
8, 18960, Note_on_c, 2, 63, 54
8, 18960, Note_on_c, 2, 60, 48
8, 18960, Note_on_c, 2, 57, 54
8, 19196, Note_off_c, 2, 57, 64
8, 19200, Note_off_c, 2, 60, 64
8, 19200, Note_off_c, 2, 63, 64
8, 19200, Note_off_c, 2, 55, 64
8, 19200, Note_on_c, 2, 78, 90
8, 19200, Note_on_c, 2, 83, 76
8, 19200, Note_on_c, 2, 52, 68
8, 19260, Note_off_c, 2, 52, 64
8, 19280, Note_on_c, 2, 80, 65
8, 19284, Note_off_c, 2, 78, 64
8, 19440, Note_on_c, 2, 68, 58
8, 19440, Note_on_c, 2, 59, 49
8, 19440, Note_on_c, 2, 63, 61
8, 19440, Note_on_c, 2, 64, 44
8, 19558, Note_off_c, 2, 63, 64
8, 19564, Note_off_c, 2, 64, 64
8, 19564, Note_off_c, 2, 68, 64
8, 19570, Note_off_c, 2, 59, 64
8, 19680, Note_off_c, 2, 80, 64
8, 19680, Note_off_c, 2, 83, 64
8, 19680, Note_on_c, 2, 59, 66
8, 19680, Note_on_c, 2, 64, 71
8, 19680, Note_on_c, 2, 45, 67
8, 19760, Note_on_c, 2, 52, 69
8, 19840, Note_on_c, 2, 55, 72
8, 19840, Note_on_c, 2, 61, 78
8, 20160, Note_off_c, 2, 61, 64
8, 20160, Note_off_c, 2, 55, 64
8, 20160, Note_off_c, 2, 52, 64
8, 20160, Note_off_c, 2, 45, 64
8, 20160, Note_off_c, 2, 64, 64
8, 20160, Note_off_c, 2, 59, 64
8, 20160, Note_on_c, 2, 52, 83
8, 20400, Note_on_c, 2, 63, 70
8, 20400, Note_on_c, 2, 71, 90
8, 20400, Note_on_c, 2, 76, 84
8, 20400, Note_on_c, 2, 56, 61
8, 20480, Note_off_c, 2, 52, 64
8, 20480, Note_on_c, 2, 73, 57
8, 20540, Note_off_c, 2, 56, 64
8, 20540, Note_off_c, 2, 71, 64
8, 20540, Note_off_c, 2, 63, 64
8, 20640, Note_on_c, 2, 47, 69
8, 20640, Note_on_c, 2, 71, 68
8, 20764, Note_off_c, 2, 71, 64
8, 20764, Note_off_c, 2, 73, 64
8, 20764, Note_off_c, 2, 76, 64
8, 20800, Note_off_c, 2, 47, 64
8, 20800, Note_on_c, 2, 71, 75
8, 20800, Note_on_c, 2, 68, 95
8, 20880, Note_on_c, 2, 63, 82
8, 20880, Note_on_c, 2, 56, 72
8, 20880, Note_on_c, 2, 66, 71
8, 20952, Note_off_c, 2, 68, 64
8, 21040, Note_on_c, 2, 64, 70
8, 21100, Note_off_c, 2, 66, 64
8, 21120, Note_off_c, 2, 64, 64
8, 21120, Note_off_c, 2, 56, 64
8, 21120, Note_off_c, 2, 63, 64
8, 21120, Note_off_c, 2, 71, 64
8, 21120, Note_on_c, 2, 52, 73
8, 21280, Note_on_c, 2, 83, 82
8, 21360, Note_off_c, 2, 52, 64
8, 21360, Note_on_c, 2, 79, 87
8, 21360, Note_on_c, 2, 67, 72
8, 21360, Note_on_c, 2, 62, 73
8, 21360, Note_on_c, 2, 59, 61
8, 21360, Note_on_c, 2, 64, 58
8, 21440, Note_off_c, 2, 64, 64
8, 21440, Note_off_c, 2, 59, 64
8, 21440, Note_off_c, 2, 83, 64
8, 21500, Note_off_c, 2, 62, 64
8, 21500, Note_off_c, 2, 67, 64
8, 21500, Note_off_c, 2, 79, 64
8, 21520, Note_on_c, 2, 83, 85
8, 21600, Note_on_c, 2, 79, 82
8, 21600, Note_on_c, 2, 47, 71
8, 21660, Note_off_c, 2, 83, 64
8, 21740, Note_off_c, 2, 47, 64
8, 21744, Note_off_c, 2, 79, 64
8, 21760, Note_on_c, 2, 83, 86
8, 21840, Note_on_c, 2, 62, 64
8, 21840, Note_on_c, 2, 59, 42
8, 21840, Note_on_c, 2, 76, 80
8, 21840, Note_on_c, 2, 67, 44
8, 21840, Note_on_c, 2, 64, 49
8, 21936, Note_off_c, 2, 83, 64
8, 22044, Note_off_c, 2, 67, 64
8, 22050, Note_off_c, 2, 64, 64
8, 22050, Note_off_c, 2, 62, 64
8, 22054, Note_off_c, 2, 59, 64
8, 22056, Note_off_c, 2, 76, 64
8, 22080, Note_on_c, 2, 52, 76
8, 22320, Note_off_c, 2, 52, 64
8, 22320, Note_on_c, 2, 59, 32
8, 22320, Note_on_c, 2, 67, 54
8, 22320, Note_on_c, 2, 64, 48
8, 22320, Note_on_c, 2, 62, 54
8, 22556, Note_off_c, 2, 62, 64
8, 22560, Note_off_c, 2, 64, 64
8, 22560, Note_off_c, 2, 67, 64
8, 22560, Note_off_c, 2, 59, 64
8, 22560, Note_on_c, 2, 58, 66
8, 22560, Note_on_c, 2, 65, 71
8, 22560, Note_on_c, 2, 45, 67
8, 22640, Note_on_c, 2, 53, 69
8, 22720, Note_on_c, 2, 55, 72
8, 22720, Note_on_c, 2, 61, 78
8, 23040, Note_off_c, 2, 61, 64
8, 23040, Note_off_c, 2, 55, 64
8, 23040, Note_off_c, 2, 53, 64
8, 23040, Note_off_c, 2, 45, 64
8, 23040, Note_off_c, 2, 65, 64
8, 23040, Note_off_c, 2, 58, 64
8, 23040, Note_on_c, 2, 81, 86
8, 23040, Note_on_c, 2, 50, 72
8, 23040, Note_on_c, 2, 76, 90
8, 23120, Note_on_c, 2, 78, 68
8, 23146, Note_off_c, 2, 76, 64
8, 23190, Note_off_c, 2, 50, 64
8, 23280, Note_on_c, 2, 61, 75
8, 23280, Note_on_c, 2, 57, 59
8, 23280, Note_on_c, 2, 66, 54
8, 23280, Note_on_c, 2, 62, 54
8, 23352, Note_off_c, 2, 62, 64
8, 23362, Note_off_c, 2, 66, 64
8, 23366, Note_off_c, 2, 57, 64
8, 23370, Note_off_c, 2, 61, 64
8, 23520, Note_on_c, 2, 45, 81
8, 23636, Note_off_c, 2, 45, 64
8, 23760, Note_on_c, 2, 66, 69
8, 23760, Note_on_c, 2, 57, 54
8, 23760, Note_on_c, 2, 61, 77
8, 23760, Note_on_c, 2, 62, 53
8, 23830, Note_off_c, 2, 62, 64
8, 23844, Note_off_c, 2, 66, 64
8, 23852, Note_off_c, 2, 61, 64
8, 23852, Note_off_c, 2, 57, 64
8, 24000, Note_on_c, 2, 50, 85
8, 24110, Note_off_c, 2, 50, 64
8, 24240, Note_on_c, 2, 57, 54
8, 24240, Note_on_c, 2, 61, 73
8, 24240, Note_on_c, 2, 66, 63
8, 24240, Note_on_c, 2, 62, 58
8, 24346, Note_off_c, 2, 62, 64
8, 24346, Note_off_c, 2, 66, 64
8, 24350, Note_off_c, 2, 61, 64
8, 24360, Note_off_c, 2, 57, 64
8, 24384, Note_off_c, 2, 81, 64
8, 24396, Note_off_c, 2, 78, 64
8, 24480, Note_on_c, 2, 81, 91
8, 24480, Note_on_c, 2, 45, 49
8, 24554, Note_off_c, 2, 45, 64
8, 24560, Note_on_c, 2, 78, 61
8, 24616, Note_off_c, 2, 81, 64
8, 24640, Note_on_c, 2, 74, 74
8, 24670, Note_off_c, 2, 78, 64
8, 24720, Note_on_c, 2, 81, 82
8, 24720, Note_on_c, 2, 57, 51
8, 24720, Note_on_c, 2, 61, 71
8, 24720, Note_on_c, 2, 66, 56
8, 24720, Note_on_c, 2, 62, 56
8, 24748, Note_off_c, 2, 74, 64
8, 24800, Note_on_c, 2, 78, 67
8, 24842, Note_off_c, 2, 81, 64
8, 24880, Note_on_c, 2, 74, 86
8, 24894, Note_off_c, 2, 78, 64
8, 24906, Note_off_c, 2, 62, 64
8, 24912, Note_off_c, 2, 66, 64
8, 24912, Note_off_c, 2, 61, 64
8, 24912, Note_off_c, 2, 57, 64
8, 24960, Note_off_c, 2, 74, 64
8, 24960, Note_on_c, 2, 50, 70
8, 25110, Note_off_c, 2, 50, 64
8, 25120, Note_on_c, 2, 74, 68
8, 25200, Note_on_c, 2, 57, 50
8, 25200, Note_on_c, 2, 60, 67
8, 25200, Note_on_c, 2, 65, 55
8, 25200, Note_on_c, 2, 62, 51
8, 25360, Note_off_c, 2, 62, 64
8, 25360, Note_off_c, 2, 65, 64
8, 25360, Note_off_c, 2, 60, 64
8, 25360, Note_off_c, 2, 57, 64
8, 25360, Note_on_c, 2, 69, 65
8, 25400, Note_off_c, 2, 74, 64
8, 25440, Note_off_c, 2, 69, 64
8, 25440, Note_on_c, 2, 62, 45
8, 25440, Note_on_c, 2, 60, 66
8, 25440, Note_on_c, 2, 53, 53
8, 25440, Note_on_c, 2, 69, 68
8, 25440, Note_on_c, 2, 74, 63
8, 25520, Note_off_c, 2, 69, 64
8, 25520, Note_on_c, 2, 65, 55
8, 25586, Note_off_c, 2, 65, 64
8, 25600, Note_on_c, 2, 69, 64
8, 25888, Note_off_c, 2, 69, 64
8, 25888, Note_off_c, 2, 74, 64
8, 25890, Note_off_c, 2, 60, 64
8, 25894, Note_off_c, 2, 53, 64
8, 25896, Note_off_c, 2, 62, 64
8, 25920, Note_on_c, 2, 47, 63
8, 25920, Note_on_c, 2, 74, 81
8, 25920, Note_on_c, 2, 77, 69
8, 25980, Note_off_c, 2, 47, 64
8, 26160, Note_on_c, 2, 62, 39
8, 26160, Note_on_c, 2, 59, 36
8, 26160, Note_on_c, 2, 53, 35
8, 26160, Note_on_c, 2, 57, 44
8, 26298, Note_off_c, 2, 57, 64
8, 26306, Note_off_c, 2, 59, 64
8, 26306, Note_off_c, 2, 62, 64
8, 26308, Note_off_c, 2, 53, 64
8, 26308, Note_off_c, 2, 77, 64
8, 26308, Note_off_c, 2, 74, 64
8, 26400, Note_on_c, 2, 56, 51
8, 26400, Note_on_c, 2, 54, 57
8, 26400, Note_on_c, 2, 59, 53
8, 26400, Note_on_c, 2, 50, 48
8, 26584, Note_off_c, 2, 54, 64
8, 26594, Note_off_c, 2, 50, 64
8, 26594, Note_off_c, 2, 59, 64
8, 26594, Note_off_c, 2, 56, 64
8, 26640, Note_on_c, 2, 61, 51
8, 26640, Note_on_c, 2, 59, 57
8, 26640, Note_on_c, 2, 65, 53
8, 26640, Note_on_c, 2, 56, 48
8, 26824, Note_off_c, 2, 59, 64
8, 26834, Note_off_c, 2, 56, 64
8, 26834, Note_off_c, 2, 65, 64
8, 26834, Note_off_c, 2, 61, 64
8, 26880, Note_on_c, 2, 42, 73
8, 27040, Note_off_c, 2, 42, 64
8, 27040, Note_on_c, 2, 66, 69
8, 27120, Note_on_c, 2, 61, 64
8, 27120, Note_on_c, 2, 49, 45
8, 27120, Note_on_c, 2, 57, 47
8, 27120, Note_on_c, 2, 54, 52
8, 27120, Note_on_c, 2, 52, 62
8, 27196, Note_off_c, 2, 66, 64
8, 27244, Note_off_c, 2, 57, 64
8, 27246, Note_off_c, 2, 52, 64
8, 27246, Note_off_c, 2, 54, 64
8, 27260, Note_off_c, 2, 49, 64
8, 27280, Note_off_c, 2, 61, 64
8, 27280, Note_on_c, 2, 73, 81
8, 27360, Note_on_c, 2, 37, 44
8, 27474, Note_off_c, 2, 37, 64
8, 27600, Note_on_c, 2, 49, 51
8, 27600, Note_on_c, 2, 52, 68
8, 27600, Note_on_c, 2, 54, 52
8, 27600, Note_on_c, 2, 57, 37
8, 27798, Note_off_c, 2, 57, 64
8, 27798, Note_off_c, 2, 52, 64
8, 27804, Note_off_c, 2, 54, 64
8, 27804, Note_off_c, 2, 49, 64
8, 27832, Note_off_c, 2, 73, 64
8, 27840, Note_on_c, 2, 47, 71
8, 28048, Note_off_c, 2, 47, 64
8, 28080, Note_on_c, 2, 54, 59
8, 28080, Note_on_c, 2, 57, 83
8, 28080, Note_on_c, 2, 63, 69
8, 28080, Note_on_c, 2, 61, 59
8, 28240, Note_off_c, 2, 61, 64
8, 28240, Note_off_c, 2, 63, 64
8, 28240, Note_off_c, 2, 57, 64
8, 28240, Note_off_c, 2, 54, 64
8, 28240, Note_on_c, 2, 73, 71
8, 28240, Note_on_c, 2, 78, 73
8, 28280, Note_on_c, 2, 75, 75
8, 28320, Note_off_c, 2, 73, 64
8, 28320, Note_on_c, 2, 42, 49
8, 28436, Note_off_c, 2, 78, 64
8, 28472, Note_off_c, 2, 75, 64
8, 28476, Note_off_c, 2, 42, 64
8, 28480, Note_on_c, 2, 75, 71
8, 28480, Note_on_c, 2, 78, 64
8, 28560, Note_on_c, 2, 54, 46
8, 28560, Note_on_c, 2, 57, 71
8, 28560, Note_on_c, 2, 63, 47
8, 28560, Note_on_c, 2, 61, 61
8, 28800, Note_off_c, 2, 61, 64
8, 28800, Note_off_c, 2, 63, 64
8, 28800, Note_off_c, 2, 57, 64
8, 28800, Note_off_c, 2, 54, 64
8, 28800, Note_off_c, 2, 78, 64
8, 28800, Note_off_c, 2, 75, 64
8, 28800, Note_on_c, 2, 48, 60
8, 28800, Note_on_c, 2, 67, 80
8, 28850, Note_off_c, 2, 48, 64
8, 28960, Note_on_c, 2, 63, 71
8, 28962, Note_off_c, 2, 67, 64
8, 29040, Note_on_c, 2, 58, 66
8, 29040, Note_on_c, 2, 60, 45
8, 29040, Note_on_c, 2, 55, 42
8, 29270, Note_off_c, 2, 55, 64
8, 29270, Note_off_c, 2, 60, 64
8, 29270, Note_off_c, 2, 58, 64
8, 29276, Note_off_c, 2, 63, 64
8, 29280, Note_on_c, 2, 53, 63
8, 29280, Note_on_c, 2, 81, 81
8, 29280, Note_on_c, 2, 84, 69
8, 29340, Note_off_c, 2, 53, 64
8, 29520, Note_on_c, 2, 69, 39
8, 29520, Note_on_c, 2, 67, 36
8, 29520, Note_on_c, 2, 60, 35
8, 29520, Note_on_c, 2, 63, 44
8, 29658, Note_off_c, 2, 63, 64
8, 29666, Note_off_c, 2, 67, 64
8, 29666, Note_off_c, 2, 69, 64
8, 29668, Note_off_c, 2, 60, 64
8, 29668, Note_off_c, 2, 84, 64
8, 29668, Note_off_c, 2, 81, 64
8, 29760, Note_on_c, 2, 47, 57
8, 29870, Note_off_c, 2, 47, 64
8, 29920, Note_on_c, 2, 71, 74
8, 30010, Note_off_c, 2, 71, 64
8, 30010, Note_on_c, 2, 66, 65
8, 30010, Note_on_c, 2, 62, 48
8, 30010, Note_on_c, 2, 57, 58
8, 30010, Note_on_c, 2, 59, 43
8, 30010, Note_on_c, 2, 54, 44
8, 30202, Note_off_c, 2, 57, 64
8, 30206, Note_off_c, 2, 54, 64
8, 30206, Note_off_c, 2, 59, 64
8, 30206, Note_off_c, 2, 66, 64
8, 30210, Note_off_c, 2, 62, 64
8, 30240, Note_on_c, 2, 52, 63
8, 30240, Note_on_c, 2, 80, 81
8, 30240, Note_on_c, 2, 83, 69
8, 30300, Note_off_c, 2, 52, 64
8, 30480, Note_on_c, 2, 68, 39
8, 30480, Note_on_c, 2, 66, 36
8, 30480, Note_on_c, 2, 59, 35
8, 30480, Note_on_c, 2, 62, 44
8, 30618, Note_off_c, 2, 62, 64
8, 30626, Note_off_c, 2, 66, 64
8, 30626, Note_off_c, 2, 68, 64
8, 30628, Note_off_c, 2, 59, 64
8, 30628, Note_off_c, 2, 83, 64
8, 30628, Note_off_c, 2, 80, 64
8, 30720, Note_on_c, 2, 45, 60
8, 30720, Note_on_c, 2, 64, 80
8, 30770, Note_off_c, 2, 45, 64
8, 30880, Note_on_c, 2, 61, 71
8, 30882, Note_off_c, 2, 64, 64
8, 30960, Note_on_c, 2, 54, 66
8, 30960, Note_on_c, 2, 57, 45
8, 30960, Note_on_c, 2, 52, 42
8, 31190, Note_off_c, 2, 52, 64
8, 31190, Note_off_c, 2, 57, 64
8, 31190, Note_off_c, 2, 54, 64
8, 31196, Note_off_c, 2, 61, 64
8, 31200, Note_on_c, 2, 50, 70
8, 31350, Note_off_c, 2, 50, 64
8, 31360, Note_on_c, 2, 76, 68
8, 31440, Note_on_c, 2, 57, 50
8, 31440, Note_on_c, 2, 60, 67
8, 31440, Note_on_c, 2, 66, 55
8, 31440, Note_on_c, 2, 64, 51
8, 31600, Note_off_c, 2, 64, 64
8, 31600, Note_off_c, 2, 66, 64
8, 31600, Note_off_c, 2, 60, 64
8, 31600, Note_off_c, 2, 57, 64
8, 31600, Note_on_c, 2, 69, 65
8, 31640, Note_off_c, 2, 76, 64
8, 31680, Note_off_c, 2, 69, 64
8, 31680, Note_on_c, 2, 44, 60
8, 31680, Note_on_c, 2, 62, 80
8, 31730, Note_off_c, 2, 44, 64
8, 31840, Note_on_c, 2, 59, 71
8, 31842, Note_off_c, 2, 62, 64
8, 31920, Note_on_c, 2, 54, 66
8, 31920, Note_on_c, 2, 56, 45
8, 31920, Note_on_c, 2, 50, 42
8, 32150, Note_off_c, 2, 50, 64
8, 32150, Note_off_c, 2, 56, 64
8, 32150, Note_off_c, 2, 54, 64
8, 32156, Note_off_c, 2, 59, 64
8, 32160, Note_on_c, 2, 49, 76
8, 32320, Note_on_c, 2, 61, 57
8, 32392, Note_off_c, 2, 61, 64
8, 32400, Note_on_c, 2, 59, 74
8, 32400, Note_on_c, 2, 68, 83
8, 32480, Note_off_c, 2, 68, 64
8, 32480, Note_on_c, 2, 65, 71
8, 32560, Note_off_c, 2, 65, 64
8, 32560, Note_on_c, 2, 61, 61
8, 32640, Note_off_c, 2, 61, 64
8, 32640, Note_off_c, 2, 59, 64
8, 32640, Note_off_c, 2, 49, 64
8, 32640, Note_on_c, 2, 42, 69
8, 32800, Note_off_c, 2, 42, 64
8, 32800, Note_on_c, 2, 61, 56
8, 32880, Note_off_c, 2, 61, 64
8, 32880, Note_on_c, 2, 52, 72
8, 32880, Note_on_c, 2, 49, 45
8, 32880, Note_on_c, 2, 57, 58
8, 32880, Note_on_c, 2, 73, 79
8, 32880, Note_on_c, 2, 54, 49
8, 32962, Note_off_c, 2, 54, 64
8, 32962, Note_off_c, 2, 57, 64
8, 32962, Note_off_c, 2, 49, 64
8, 32962, Note_on_c, 2, 68, 67
8, 33026, Note_off_c, 2, 52, 64
8, 33040, Note_on_c, 2, 69, 82
8, 33102, Note_off_c, 2, 68, 64
8, 33120, Note_on_c, 2, 37, 52
8, 33268, Note_off_c, 2, 37, 64
8, 33360, Note_on_c, 2, 57, 58
8, 33360, Note_on_c, 2, 52, 75
8, 33360, Note_on_c, 2, 49, 42
8, 33360, Note_on_c, 2, 54, 59
8, 33578, Note_off_c, 2, 54, 64
8, 33578, Note_off_c, 2, 49, 64
8, 33578, Note_off_c, 2, 52, 64
8, 33586, Note_off_c, 2, 57, 64
8, 33590, Note_off_c, 2, 69, 64
8, 33590, Note_off_c, 2, 73, 64
8, 33600, Note_on_c, 2, 42, 76
8, 33760, Note_on_c, 2, 54, 57
8, 33832, Note_off_c, 2, 54, 64
8, 33840, Note_on_c, 2, 52, 74
8, 33840, Note_on_c, 2, 61, 83
8, 33920, Note_off_c, 2, 61, 64
8, 33920, Note_on_c, 2, 57, 71
8, 34000, Note_off_c, 2, 57, 64
8, 34000, Note_on_c, 2, 54, 61
8, 34080, Note_off_c, 2, 54, 64
8, 34080, Note_off_c, 2, 52, 64
8, 34080, Note_off_c, 2, 42, 64
8, 34080, Note_on_c, 2, 47, 76
8, 34240, Note_on_c, 2, 60, 57
8, 34312, Note_off_c, 2, 60, 64
8, 34320, Note_on_c, 2, 57, 74
8, 34320, Note_on_c, 2, 67, 83
8, 34400, Note_off_c, 2, 67, 64
8, 34400, Note_on_c, 2, 63, 71
8, 34480, Note_off_c, 2, 63, 64
8, 34480, Note_on_c, 2, 60, 61
8, 34560, Note_off_c, 2, 60, 64
8, 34560, Note_off_c, 2, 57, 64
8, 34560, Note_off_c, 2, 47, 64
8, 34560, Note_on_c, 2, 52, 72
8, 34686, Note_off_c, 2, 52, 64
8, 34720, Note_on_c, 2, 83, 83
8, 34800, Note_on_c, 2, 63, 77
8, 34800, Note_on_c, 2, 59, 52
8, 34800, Note_on_c, 2, 68, 55
8, 34800, Note_on_c, 2, 64, 52
8, 34880, Note_on_c, 2, 80, 66
8, 34906, Note_off_c, 2, 83, 64
8, 34960, Note_on_c, 2, 78, 69
8, 34976, Note_off_c, 2, 80, 64
8, 35002, Note_off_c, 2, 59, 64
8, 35008, Note_off_c, 2, 68, 64
8, 35016, Note_off_c, 2, 64, 64
8, 35024, Note_off_c, 2, 78, 64
8, 35024, Note_off_c, 2, 63, 64
8, 35040, Note_on_c, 2, 45, 76
8, 35280, Note_off_c, 2, 45, 64
8, 35280, Note_on_c, 2, 52, 32
8, 35280, Note_on_c, 2, 61, 54
8, 35280, Note_on_c, 2, 59, 48
8, 35280, Note_on_c, 2, 55, 54
8, 35516, Note_off_c, 2, 55, 64
8, 35520, Note_off_c, 2, 59, 64
8, 35520, Note_off_c, 2, 61, 64
8, 35520, Note_off_c, 2, 52, 64
8, 35520, Note_on_c, 2, 52, 74
8, 35520, Note_on_c, 2, 90, 85
8, 35520, Note_on_c, 2, 85, 69
8, 35600, Note_off_c, 2, 52, 64
8, 35600, Note_on_c, 2, 83, 65
8, 35658, Note_off_c, 2, 85, 64
8, 35760, Note_on_c, 2, 59, 53
8, 35764, Note_off_c, 2, 83, 64
8, 35764, Note_on_c, 2, 64, 51
8, 35766, Note_off_c, 2, 90, 64
8, 35766, Note_on_c, 2, 68, 55
8, 35852, Note_off_c, 2, 68, 64
8, 35852, Note_off_c, 2, 64, 64
8, 35852, Note_off_c, 2, 59, 64
8, 35852, Note_on_c, 2, 83, 61
8, 35852, Note_on_c, 2, 80, 68
8, 35920, Note_on_c, 2, 78, 66
8, 35964, Note_off_c, 2, 80, 64
8, 36000, Note_off_c, 2, 78, 64
8, 36000, Note_on_c, 2, 78, 69
8, 36000, Note_on_c, 2, 47, 66
8, 36080, Note_off_c, 2, 47, 64
8, 36080, Note_off_c, 2, 78, 64
8, 36080, Note_on_c, 2, 78, 61
8, 36160, Note_off_c, 2, 78, 64
8, 36160, Note_on_c, 2, 80, 67
8, 36240, Note_on_c, 2, 59, 58
8, 36240, Note_on_c, 2, 68, 63
8, 36240, Note_on_c, 2, 64, 54
8, 36364, Note_off_c, 2, 64, 64
8, 36372, Note_off_c, 2, 68, 64
8, 36376, Note_off_c, 2, 59, 64
8, 36480, Note_off_c, 2, 80, 64
8, 36480, Note_off_c, 2, 83, 64
8, 36480, Note_on_c, 2, 52, 73
8, 36640, Note_on_c, 2, 83, 82
8, 36720, Note_off_c, 2, 52, 64
8, 36720, Note_on_c, 2, 79, 87
8, 36720, Note_on_c, 2, 67, 72
8, 36720, Note_on_c, 2, 62, 73
8, 36720, Note_on_c, 2, 59, 61
8, 36720, Note_on_c, 2, 64, 58
8, 36800, Note_off_c, 2, 64, 64
8, 36800, Note_off_c, 2, 59, 64
8, 36800, Note_off_c, 2, 83, 64
8, 36860, Note_off_c, 2, 62, 64
8, 36860, Note_off_c, 2, 67, 64
8, 36860, Note_off_c, 2, 79, 64
8, 36880, Note_on_c, 2, 83, 85
8, 36960, Note_on_c, 2, 79, 82
8, 36960, Note_on_c, 2, 47, 71
8, 37020, Note_off_c, 2, 83, 64
8, 37100, Note_off_c, 2, 47, 64
8, 37104, Note_off_c, 2, 79, 64
8, 37120, Note_on_c, 2, 83, 86
8, 37200, Note_on_c, 2, 62, 64
8, 37200, Note_on_c, 2, 59, 42
8, 37200, Note_on_c, 2, 76, 80
8, 37200, Note_on_c, 2, 67, 44
8, 37200, Note_on_c, 2, 64, 49
8, 37296, Note_off_c, 2, 83, 64
8, 37404, Note_off_c, 2, 67, 64
8, 37410, Note_off_c, 2, 64, 64
8, 37410, Note_off_c, 2, 62, 64
8, 37414, Note_off_c, 2, 59, 64
8, 37416, Note_off_c, 2, 76, 64
8, 37440, Note_on_c, 2, 59, 66
8, 37440, Note_on_c, 2, 64, 71
8, 37440, Note_on_c, 2, 40, 67
8, 37520, Note_on_c, 2, 52, 69
8, 37600, Note_on_c, 2, 55, 72
8, 37600, Note_on_c, 2, 62, 78
8, 37920, Note_off_c, 2, 62, 64
8, 37920, Note_off_c, 2, 55, 64
8, 37920, Note_off_c, 2, 52, 64
8, 37920, Note_off_c, 2, 40, 64
8, 37920, Note_off_c, 2, 64, 64
8, 37920, Note_off_c, 2, 59, 64
8, 37920, Note_on_c, 2, 45, 76
8, 38160, Note_off_c, 2, 45, 64
8, 38160, Note_on_c, 2, 53, 32
8, 38160, Note_on_c, 2, 61, 54
8, 38160, Note_on_c, 2, 58, 48
8, 38160, Note_on_c, 2, 55, 54
8, 38396, Note_off_c, 2, 55, 64
8, 38400, Note_off_c, 2, 58, 64
8, 38400, Note_off_c, 2, 61, 64
8, 38400, Note_off_c, 2, 53, 64
8, 38400, Note_on_c, 2, 81, 86
8, 38400, Note_on_c, 2, 50, 72
8, 38400, Note_on_c, 2, 76, 90
8, 38480, Note_on_c, 2, 78, 68
8, 38506, Note_off_c, 2, 76, 64
8, 38550, Note_off_c, 2, 50, 64
8, 38640, Note_on_c, 2, 61, 75
8, 38640, Note_on_c, 2, 57, 59
8, 38640, Note_on_c, 2, 66, 54
8, 38640, Note_on_c, 2, 62, 54
8, 38712, Note_off_c, 2, 62, 64
8, 38722, Note_off_c, 2, 66, 64
8, 38726, Note_off_c, 2, 57, 64
8, 38730, Note_off_c, 2, 61, 64
8, 38880, Note_on_c, 2, 45, 81
8, 38996, Note_off_c, 2, 45, 64
8, 39120, Note_on_c, 2, 66, 69
8, 39120, Note_on_c, 2, 57, 54
8, 39120, Note_on_c, 2, 61, 77
8, 39120, Note_on_c, 2, 62, 53
8, 39190, Note_off_c, 2, 62, 64
8, 39204, Note_off_c, 2, 66, 64
8, 39212, Note_off_c, 2, 61, 64
8, 39212, Note_off_c, 2, 57, 64
8, 39360, Note_on_c, 2, 50, 85
8, 39470, Note_off_c, 2, 50, 64
8, 39600, Note_on_c, 2, 57, 54
8, 39600, Note_on_c, 2, 61, 73
8, 39600, Note_on_c, 2, 66, 63
8, 39600, Note_on_c, 2, 62, 58
8, 39706, Note_off_c, 2, 62, 64
8, 39706, Note_off_c, 2, 66, 64
8, 39710, Note_off_c, 2, 61, 64
8, 39720, Note_off_c, 2, 57, 64
8, 39744, Note_off_c, 2, 81, 64
8, 39756, Note_off_c, 2, 78, 64
8, 39840, Note_on_c, 2, 81, 91
8, 39840, Note_on_c, 2, 45, 49
8, 39914, Note_off_c, 2, 45, 64
8, 39920, Note_on_c, 2, 78, 61
8, 39976, Note_off_c, 2, 81, 64
8, 40000, Note_on_c, 2, 74, 74
8, 40030, Note_off_c, 2, 78, 64
8, 40080, Note_on_c, 2, 81, 82
8, 40080, Note_on_c, 2, 57, 51
8, 40080, Note_on_c, 2, 61, 71
8, 40080, Note_on_c, 2, 66, 56
8, 40080, Note_on_c, 2, 62, 56
8, 40108, Note_off_c, 2, 74, 64
8, 40160, Note_on_c, 2, 78, 67
8, 40202, Note_off_c, 2, 81, 64
8, 40240, Note_on_c, 2, 74, 86
8, 40254, Note_off_c, 2, 78, 64
8, 40266, Note_off_c, 2, 62, 64
8, 40272, Note_off_c, 2, 66, 64
8, 40272, Note_off_c, 2, 61, 64
8, 40272, Note_off_c, 2, 57, 64
8, 40320, Note_off_c, 2, 74, 64
8, 40320, Note_on_c, 2, 50, 74
8, 40320, Note_on_c, 2, 86, 85
8, 40320, Note_on_c, 2, 83, 69
8, 40400, Note_off_c, 2, 50, 64
8, 40400, Note_on_c, 2, 81, 65
8, 40458, Note_off_c, 2, 83, 64
8, 40560, Note_on_c, 2, 57, 53
8, 40564, Note_off_c, 2, 81, 64
8, 40564, Note_on_c, 2, 62, 51
8, 40566, Note_off_c, 2, 86, 64
8, 40566, Note_on_c, 2, 65, 55
8, 40652, Note_off_c, 2, 65, 64
8, 40652, Note_off_c, 2, 62, 64
8, 40652, Note_off_c, 2, 57, 64
8, 40652, Note_on_c, 2, 81, 61
8, 40652, Note_on_c, 2, 77, 68
8, 40720, Note_on_c, 2, 76, 66
8, 40764, Note_off_c, 2, 77, 64
8, 40800, Note_off_c, 2, 76, 64
8, 40800, Note_on_c, 2, 74, 69
8, 40800, Note_on_c, 2, 45, 66
8, 40880, Note_off_c, 2, 45, 64
8, 40880, Note_off_c, 2, 74, 64
8, 40880, Note_on_c, 2, 76, 61
8, 40960, Note_off_c, 2, 76, 64
8, 40960, Note_on_c, 2, 77, 67
8, 41040, Note_on_c, 2, 57, 58
8, 41040, Note_on_c, 2, 65, 63
8, 41040, Note_on_c, 2, 62, 54
8, 41164, Note_off_c, 2, 62, 64
8, 41172, Note_off_c, 2, 65, 64
8, 41176, Note_off_c, 2, 57, 64
8, 41280, Note_off_c, 2, 77, 64
8, 41280, Note_off_c, 2, 81, 64
8, 41280, Note_on_c, 2, 43, 69
8, 41440, Note_off_c, 2, 43, 64
8, 41440, Note_on_c, 2, 62, 56
8, 41520, Note_off_c, 2, 62, 64
8, 41520, Note_on_c, 2, 53, 72
8, 41520, Note_on_c, 2, 50, 45
8, 41520, Note_on_c, 2, 59, 58
8, 41520, Note_on_c, 2, 74, 79
8, 41520, Note_on_c, 2, 56, 49
8, 41602, Note_off_c, 2, 56, 64
8, 41602, Note_off_c, 2, 59, 64
8, 41602, Note_off_c, 2, 50, 64
8, 41602, Note_on_c, 2, 68, 67
8, 41666, Note_off_c, 2, 53, 64
8, 41680, Note_on_c, 2, 71, 82
8, 41742, Note_off_c, 2, 68, 64
8, 41760, Note_on_c, 2, 38, 52
8, 41908, Note_off_c, 2, 38, 64
8, 42000, Note_on_c, 2, 59, 58
8, 42000, Note_on_c, 2, 53, 75
8, 42000, Note_on_c, 2, 50, 42
8, 42000, Note_on_c, 2, 56, 59
8, 42218, Note_off_c, 2, 56, 64
8, 42218, Note_off_c, 2, 50, 64
8, 42218, Note_off_c, 2, 53, 64
8, 42226, Note_off_c, 2, 59, 64
8, 42230, Note_off_c, 2, 71, 64
8, 42230, Note_off_c, 2, 74, 64
8, 42240, Note_on_c, 2, 48, 73
8, 42400, Note_on_c, 2, 79, 82
8, 42480, Note_off_c, 2, 48, 64
8, 42480, Note_on_c, 2, 75, 87
8, 42480, Note_on_c, 2, 64, 72
8, 42480, Note_on_c, 2, 59, 73
8, 42480, Note_on_c, 2, 55, 61
8, 42480, Note_on_c, 2, 60, 58
8, 42560, Note_off_c, 2, 60, 64
8, 42560, Note_off_c, 2, 55, 64
8, 42560, Note_off_c, 2, 79, 64
8, 42560, Note_on_c, 2, 76, 62
8, 42620, Note_off_c, 2, 59, 64
8, 42620, Note_off_c, 2, 64, 64
8, 42620, Note_off_c, 2, 75, 64
8, 42640, Note_off_c, 2, 76, 64
8, 42640, Note_on_c, 2, 79, 85
8, 42720, Note_on_c, 2, 75, 82
8, 42720, Note_on_c, 2, 43, 71
8, 42780, Note_off_c, 2, 79, 64
8, 42800, Note_on_c, 2, 76, 51
8, 42860, Note_off_c, 2, 43, 64
8, 42864, Note_off_c, 2, 75, 64
8, 42880, Note_off_c, 2, 76, 64
8, 42880, Note_on_c, 2, 79, 86
8, 42960, Note_on_c, 2, 59, 64
8, 42960, Note_on_c, 2, 55, 42
8, 42960, Note_on_c, 2, 74, 80
8, 42960, Note_on_c, 2, 64, 44
8, 42960, Note_on_c, 2, 60, 49
8, 43056, Note_off_c, 2, 79, 64
8, 43164, Note_off_c, 2, 64, 64
8, 43170, Note_off_c, 2, 60, 64
8, 43170, Note_off_c, 2, 59, 64
8, 43174, Note_off_c, 2, 55, 64
8, 43176, Note_off_c, 2, 74, 64
8, 43200, Note_on_c, 2, 45, 72
8, 43326, Note_off_c, 2, 45, 64
8, 43360, Note_on_c, 2, 76, 83
8, 43440, Note_on_c, 2, 55, 77
8, 43440, Note_on_c, 2, 52, 52
8, 43440, Note_on_c, 2, 60, 55
8, 43440, Note_on_c, 2, 57, 52
8, 43520, Note_on_c, 2, 72, 66
8, 43546, Note_off_c, 2, 76, 64
8, 43600, Note_on_c, 2, 69, 69
8, 43616, Note_off_c, 2, 72, 64
8, 43642, Note_off_c, 2, 52, 64
8, 43648, Note_off_c, 2, 60, 64
8, 43656, Note_off_c, 2, 57, 64
8, 43664, Note_off_c, 2, 69, 64
8, 43664, Note_off_c, 2, 55, 64
8, 43680, Note_on_c, 2, 45, 68
8, 43840, Note_on_c, 2, 60, 65
8, 43912, Note_off_c, 2, 60, 64
8, 43920, Note_on_c, 2, 55, 74
8, 43920, Note_on_c, 2, 52, 63
8, 43920, Note_on_c, 2, 48, 67
8, 43920, Note_on_c, 2, 69, 75
8, 44000, Note_on_c, 2, 64, 60
8, 44058, Note_off_c, 2, 69, 64
8, 44080, Note_on_c, 2, 60, 90
8, 44100, Note_off_c, 2, 64, 64
8, 44160, Note_off_c, 2, 60, 64
8, 44160, Note_off_c, 2, 48, 64
8, 44160, Note_off_c, 2, 52, 64
8, 44160, Note_off_c, 2, 55, 64
8, 44160, Note_off_c, 2, 45, 64
8, 44160, Note_on_c, 2, 42, 76
8, 44400, Note_off_c, 2, 42, 64
8, 44400, Note_on_c, 2, 48, 32
8, 44400, Note_on_c, 2, 57, 54
8, 44400, Note_on_c, 2, 54, 48
8, 44400, Note_on_c, 2, 52, 54
8, 44636, Note_off_c, 2, 52, 64
8, 44640, Note_off_c, 2, 54, 64
8, 44640, Note_off_c, 2, 57, 64
8, 44640, Note_off_c, 2, 48, 64
8, 44640, Note_on_c, 2, 77, 72
8, 44640, Note_on_c, 2, 47, 76
8, 44704, Note_off_c, 2, 47, 64
8, 44720, Note_on_c, 2, 75, 48
8, 44800, Note_on_c, 2, 71, 67
8, 44812, Note_off_c, 2, 75, 64
8, 44880, Note_on_c, 2, 57, 69
8, 44880, Note_on_c, 2, 63, 53
8, 44880, Note_on_c, 2, 53, 51
8, 44880, Note_on_c, 2, 59, 49
8, 44988, Note_off_c, 2, 59, 64
8, 44988, Note_off_c, 2, 53, 64
8, 44988, Note_off_c, 2, 63, 64
8, 44988, Note_off_c, 2, 57, 64
8, 44996, Note_off_c, 2, 77, 64
8, 45008, Note_off_c, 2, 71, 64
8, 45120, Note_on_c, 2, 59, 66
8, 45120, Note_on_c, 2, 65, 71
8, 45120, Note_on_c, 2, 47, 67
8, 45200, Note_on_c, 2, 53, 69
8, 45280, Note_on_c, 2, 57, 72
8, 45280, Note_on_c, 2, 63, 78
8, 45600, Note_off_c, 2, 63, 64
8, 45600, Note_off_c, 2, 57, 64
8, 45600, Note_off_c, 2, 53, 64
8, 45600, Note_off_c, 2, 47, 64
8, 45600, Note_off_c, 2, 65, 64
8, 45600, Note_off_c, 2, 59, 64
8, 45600, Note_on_c, 2, 61, 66
8, 45600, Note_on_c, 2, 66, 71
8, 45600, Note_on_c, 2, 47, 67
8, 45680, Note_on_c, 2, 54, 69
8, 45760, Note_on_c, 2, 57, 72
8, 45760, Note_on_c, 2, 63, 78
8, 46080, Note_off_c, 2, 63, 64
8, 46080, Note_off_c, 2, 57, 64
8, 46080, Note_off_c, 2, 54, 64
8, 46080, Note_off_c, 2, 47, 64
8, 46080, Note_off_c, 2, 66, 64
8, 46080, Note_off_c, 2, 61, 64
8, 46080, Note_on_c, 2, 63, 66
8, 46080, Note_on_c, 2, 68, 71
8, 46080, Note_on_c, 2, 44, 67
8, 46160, Note_on_c, 2, 56, 69
8, 46240, Note_on_c, 2, 59, 72
8, 46240, Note_on_c, 2, 66, 78
8, 46560, Note_off_c, 2, 66, 64
8, 46560, Note_off_c, 2, 59, 64
8, 46560, Note_off_c, 2, 56, 64
8, 46560, Note_off_c, 2, 44, 64
8, 46560, Note_off_c, 2, 68, 64
8, 46560, Note_off_c, 2, 63, 64
8, 46560, Note_on_c, 2, 45, 76
8, 46800, Note_off_c, 2, 45, 64
8, 46800, Note_on_c, 2, 52, 32
8, 46800, Note_on_c, 2, 61, 54
8, 46800, Note_on_c, 2, 57, 48
8, 46800, Note_on_c, 2, 56, 54
8, 47036, Note_off_c, 2, 56, 64
8, 47040, Note_off_c, 2, 57, 64
8, 47040, Note_off_c, 2, 61, 64
8, 47040, Note_off_c, 2, 52, 64
8, 47040, Note_on_c, 2, 69, 90
8, 47040, Note_on_c, 2, 74, 76
8, 47040, Note_on_c, 2, 44, 68
8, 47100, Note_off_c, 2, 44, 64
8, 47120, Note_on_c, 2, 71, 65
8, 47124, Note_off_c, 2, 69, 64
8, 47280, Note_on_c, 2, 59, 58
8, 47280, Note_on_c, 2, 50, 49
8, 47280, Note_on_c, 2, 54, 61
8, 47280, Note_on_c, 2, 56, 44
8, 47398, Note_off_c, 2, 54, 64
8, 47404, Note_off_c, 2, 56, 64
8, 47404, Note_off_c, 2, 59, 64
8, 47410, Note_off_c, 2, 50, 64
8, 47520, Note_off_c, 2, 71, 64
8, 47520, Note_off_c, 2, 74, 64
8, 47520, Note_on_c, 2, 49, 76
8, 47680, Note_on_c, 2, 61, 57
8, 47752, Note_off_c, 2, 61, 64
8, 47760, Note_on_c, 2, 59, 74
8, 47760, Note_on_c, 2, 68, 83
8, 47840, Note_off_c, 2, 68, 64
8, 47840, Note_on_c, 2, 65, 71
8, 47920, Note_off_c, 2, 65, 64
8, 47920, Note_on_c, 2, 61, 61
8, 48000, Note_off_c, 2, 61, 64
8, 48000, Note_off_c, 2, 59, 64
8, 48000, Note_off_c, 2, 49, 64
8, 48000, Note_on_c, 2, 42, 83
8, 48240, Note_on_c, 2, 52, 70
8, 48240, Note_on_c, 2, 61, 90
8, 48240, Note_on_c, 2, 66, 84
8, 48240, Note_on_c, 2, 45, 61
8, 48320, Note_off_c, 2, 42, 64
8, 48320, Note_on_c, 2, 63, 57
8, 48380, Note_off_c, 2, 45, 64
8, 48380, Note_off_c, 2, 61, 64
8, 48380, Note_off_c, 2, 52, 64
8, 48480, Note_on_c, 2, 37, 69
8, 48480, Note_on_c, 2, 61, 68
8, 48604, Note_off_c, 2, 61, 64
8, 48604, Note_off_c, 2, 63, 64
8, 48604, Note_off_c, 2, 66, 64
8, 48640, Note_off_c, 2, 37, 64
8, 48640, Note_on_c, 2, 61, 75
8, 48640, Note_on_c, 2, 57, 95
8, 48720, Note_on_c, 2, 52, 82
8, 48720, Note_on_c, 2, 45, 72
8, 48720, Note_on_c, 2, 56, 71
8, 48792, Note_off_c, 2, 57, 64
8, 48880, Note_on_c, 2, 54, 70
8, 48940, Note_off_c, 2, 56, 64
8, 48960, Note_off_c, 2, 54, 64
8, 48960, Note_off_c, 2, 45, 64
8, 48960, Note_off_c, 2, 52, 64
8, 48960, Note_off_c, 2, 61, 64
8, 48960, Note_on_c, 2, 42, 68
8, 49120, Note_on_c, 2, 57, 65
8, 49192, Note_off_c, 2, 57, 64
8, 49200, Note_on_c, 2, 66, 75
8, 49200, Note_on_c, 2, 52, 74
8, 49200, Note_on_c, 2, 49, 63
8, 49200, Note_on_c, 2, 45, 67
8, 49280, Note_on_c, 2, 61, 60
8, 49338, Note_off_c, 2, 66, 64
8, 49360, Note_on_c, 2, 57, 90
8, 49380, Note_off_c, 2, 61, 64
8, 49440, Note_off_c, 2, 57, 64
8, 49440, Note_off_c, 2, 45, 64
8, 49440, Note_off_c, 2, 49, 64
8, 49440, Note_off_c, 2, 52, 64
8, 49440, Note_off_c, 2, 42, 64
8, 49440, Note_on_c, 2, 79, 76
8, 49440, Note_on_c, 2, 72, 90
8, 49440, Note_on_c, 2, 47, 68
8, 49500, Note_off_c, 2, 47, 64
8, 49520, Note_on_c, 2, 75, 65
8, 49524, Note_off_c, 2, 72, 64
8, 49680, Note_on_c, 2, 63, 58
8, 49680, Note_on_c, 2, 55, 49
8, 49680, Note_on_c, 2, 57, 61
8, 49680, Note_on_c, 2, 60, 44
8, 49798, Note_off_c, 2, 57, 64
8, 49804, Note_off_c, 2, 60, 64
8, 49804, Note_off_c, 2, 63, 64
8, 49810, Note_off_c, 2, 55, 64
8, 49920, Note_off_c, 2, 75, 64
8, 49920, Note_off_c, 2, 79, 64
8, 49920, Note_on_c, 2, 52, 76
8, 50160, Note_off_c, 2, 52, 64
8, 50160, Note_on_c, 2, 59, 32
8, 50160, Note_on_c, 2, 68, 54
8, 50160, Note_on_c, 2, 64, 48
8, 50160, Note_on_c, 2, 63, 54
8, 50396, Note_off_c, 2, 63, 64
8, 50400, Note_off_c, 2, 64, 64
8, 50400, Note_off_c, 2, 68, 64
8, 50400, Note_off_c, 2, 59, 64
8, 50400, Note_on_c, 2, 76, 72
8, 50400, Note_on_c, 2, 45, 76
8, 50464, Note_off_c, 2, 45, 64
8, 50480, Note_on_c, 2, 73, 48
8, 50560, Note_on_c, 2, 71, 67
8, 50572, Note_off_c, 2, 73, 64
8, 50640, Note_on_c, 2, 55, 69
8, 50640, Note_on_c, 2, 61, 53
8, 50640, Note_on_c, 2, 52, 51
8, 50640, Note_on_c, 2, 59, 49
8, 50748, Note_off_c, 2, 59, 64
8, 50748, Note_off_c, 2, 52, 64
8, 50748, Note_off_c, 2, 61, 64
8, 50748, Note_off_c, 2, 55, 64
8, 50756, Note_off_c, 2, 76, 64
8, 50768, Note_off_c, 2, 71, 64
8, 50880, Note_on_c, 2, 52, 89
8, 51120, Note_off_c, 2, 52, 64
8, 51120, Note_on_c, 2, 71, 77
8, 51120, Note_on_c, 2, 64, 46
8, 51120, Note_on_c, 2, 56, 68
8, 51120, Note_on_c, 2, 59, 58
8, 51200, Note_off_c, 2, 59, 64
8, 51200, Note_off_c, 2, 56, 64
8, 51200, Note_off_c, 2, 64, 64
8, 51200, Note_off_c, 2, 71, 64
8, 51200, Note_on_c, 2, 68, 53
8, 51280, Note_off_c, 2, 68, 64
8, 51280, Note_on_c, 2, 71, 74
8, 51360, Note_off_c, 2, 71, 64
8, 51360, Note_on_c, 2, 78, 87
8, 51360, Note_on_c, 2, 47, 76
8, 51440, Note_off_c, 2, 47, 64
8, 51440, Note_on_c, 2, 71, 79
8, 51520, Note_off_c, 2, 71, 64
8, 51520, Note_off_c, 2, 78, 64
8, 51520, Note_on_c, 2, 80, 85
8, 51600, Note_on_c, 2, 59, 67
8, 51600, Note_on_c, 2, 64, 66
8, 51600, Note_on_c, 2, 56, 59
8, 51840, Note_off_c, 2, 56, 64
8, 51840, Note_off_c, 2, 64, 64
8, 51840, Note_off_c, 2, 59, 64
8, 51840, Note_off_c, 2, 80, 64
8, 51840, Note_on_c, 2, 52, 73
8, 52000, Note_on_c, 2, 83, 82
8, 52080, Note_off_c, 2, 52, 64
8, 52080, Note_on_c, 2, 79, 87
8, 52080, Note_on_c, 2, 67, 72
8, 52080, Note_on_c, 2, 62, 73
8, 52080, Note_on_c, 2, 59, 61
8, 52080, Note_on_c, 2, 64, 58
8, 52160, Note_off_c, 2, 64, 64
8, 52160, Note_off_c, 2, 59, 64
8, 52160, Note_off_c, 2, 83, 64
8, 52220, Note_off_c, 2, 62, 64
8, 52220, Note_off_c, 2, 67, 64
8, 52220, Note_off_c, 2, 79, 64
8, 52240, Note_on_c, 2, 83, 85
8, 52320, Note_on_c, 2, 79, 82
8, 52320, Note_on_c, 2, 47, 71
8, 52380, Note_off_c, 2, 83, 64
8, 52460, Note_off_c, 2, 47, 64
8, 52464, Note_off_c, 2, 79, 64
8, 52480, Note_on_c, 2, 83, 86
8, 52560, Note_on_c, 2, 62, 64
8, 52560, Note_on_c, 2, 59, 42
8, 52560, Note_on_c, 2, 76, 80
8, 52560, Note_on_c, 2, 67, 44
8, 52560, Note_on_c, 2, 64, 49
8, 52656, Note_off_c, 2, 83, 64
8, 52764, Note_off_c, 2, 67, 64
8, 52770, Note_off_c, 2, 64, 64
8, 52770, Note_off_c, 2, 62, 64
8, 52774, Note_off_c, 2, 59, 64
8, 52776, Note_off_c, 2, 76, 64
8, 52800, Note_on_c, 2, 52, 76
8, 52960, Note_on_c, 2, 64, 57
8, 53032, Note_off_c, 2, 64, 64
8, 53040, Note_on_c, 2, 62, 74
8, 53040, Note_on_c, 2, 71, 83
8, 53120, Note_off_c, 2, 71, 64
8, 53120, Note_on_c, 2, 67, 71
8, 53200, Note_off_c, 2, 67, 64
8, 53200, Note_on_c, 2, 64, 61
8, 53280, Note_off_c, 2, 64, 64
8, 53280, Note_off_c, 2, 62, 64
8, 53280, Note_off_c, 2, 52, 64
8, 53280, Note_on_c, 2, 45, 76
8, 53440, Note_on_c, 2, 58, 57
8, 53512, Note_off_c, 2, 58, 64
8, 53520, Note_on_c, 2, 55, 74
8, 53520, Note_on_c, 2, 65, 83
8, 53600, Note_off_c, 2, 65, 64
8, 53600, Note_on_c, 2, 61, 71
8, 53680, Note_off_c, 2, 61, 64
8, 53680, Note_on_c, 2, 58, 61
8, 53760, Note_off_c, 2, 58, 64
8, 53760, Note_off_c, 2, 55, 64
8, 53760, Note_off_c, 2, 45, 64
8, 53760, Note_on_c, 2, 81, 86
8, 53760, Note_on_c, 2, 50, 72
8, 53760, Note_on_c, 2, 76, 90
8, 53840, Note_on_c, 2, 78, 68
8, 53866, Note_off_c, 2, 76, 64
8, 53910, Note_off_c, 2, 50, 64
8, 54000, Note_on_c, 2, 61, 75
8, 54000, Note_on_c, 2, 57, 59
8, 54000, Note_on_c, 2, 66, 54
8, 54000, Note_on_c, 2, 62, 54
8, 54072, Note_off_c, 2, 62, 64
8, 54082, Note_off_c, 2, 66, 64
8, 54086, Note_off_c, 2, 57, 64
8, 54090, Note_off_c, 2, 61, 64
8, 54240, Note_on_c, 2, 45, 81
8, 54356, Note_off_c, 2, 45, 64
8, 54480, Note_on_c, 2, 66, 69
8, 54480, Note_on_c, 2, 57, 54
8, 54480, Note_on_c, 2, 61, 77
8, 54480, Note_on_c, 2, 62, 53
8, 54550, Note_off_c, 2, 62, 64
8, 54564, Note_off_c, 2, 66, 64
8, 54572, Note_off_c, 2, 61, 64
8, 54572, Note_off_c, 2, 57, 64
8, 54720, Note_on_c, 2, 50, 85
8, 54830, Note_off_c, 2, 50, 64
8, 54960, Note_on_c, 2, 57, 54
8, 54960, Note_on_c, 2, 61, 73
8, 54960, Note_on_c, 2, 66, 63
8, 54960, Note_on_c, 2, 62, 58
8, 55066, Note_off_c, 2, 62, 64
8, 55066, Note_off_c, 2, 66, 64
8, 55070, Note_off_c, 2, 61, 64
8, 55080, Note_off_c, 2, 57, 64
8, 55104, Note_off_c, 2, 81, 64
8, 55116, Note_off_c, 2, 78, 64
8, 55200, Note_on_c, 2, 81, 91
8, 55200, Note_on_c, 2, 45, 49
8, 55274, Note_off_c, 2, 45, 64
8, 55280, Note_on_c, 2, 78, 61
8, 55336, Note_off_c, 2, 81, 64
8, 55360, Note_on_c, 2, 74, 74
8, 55390, Note_off_c, 2, 78, 64
8, 55440, Note_on_c, 2, 81, 82
8, 55440, Note_on_c, 2, 57, 51
8, 55440, Note_on_c, 2, 61, 71
8, 55440, Note_on_c, 2, 66, 56
8, 55440, Note_on_c, 2, 62, 56
8, 55468, Note_off_c, 2, 74, 64
8, 55520, Note_on_c, 2, 78, 67
8, 55562, Note_off_c, 2, 81, 64
8, 55600, Note_on_c, 2, 74, 86
8, 55614, Note_off_c, 2, 78, 64
8, 55626, Note_off_c, 2, 62, 64
8, 55632, Note_off_c, 2, 66, 64
8, 55632, Note_off_c, 2, 61, 64
8, 55632, Note_off_c, 2, 57, 64
8, 55680, Note_off_c, 2, 74, 64
8, 55680, Note_on_c, 2, 50, 68
8, 55840, Note_on_c, 2, 65, 65
8, 55912, Note_off_c, 2, 65, 64
8, 55920, Note_on_c, 2, 74, 75
8, 55920, Note_on_c, 2, 60, 74
8, 55920, Note_on_c, 2, 57, 63
8, 55920, Note_on_c, 2, 53, 67
8, 56000, Note_on_c, 2, 69, 60
8, 56058, Note_off_c, 2, 74, 64
8, 56080, Note_on_c, 2, 65, 90
8, 56100, Note_off_c, 2, 69, 64
8, 56160, Note_off_c, 2, 65, 64
8, 56160, Note_off_c, 2, 53, 64
8, 56160, Note_off_c, 2, 57, 64
8, 56160, Note_off_c, 2, 60, 64
8, 56160, Note_off_c, 2, 50, 64
8, 56160, Note_on_c, 2, 48, 76
8, 56400, Note_off_c, 2, 48, 64
8, 56400, Note_on_c, 2, 57, 32
8, 56400, Note_on_c, 2, 65, 54
8, 56400, Note_on_c, 2, 62, 48
8, 56400, Note_on_c, 2, 60, 54
8, 56636, Note_off_c, 2, 60, 64
8, 56640, Note_off_c, 2, 62, 64
8, 56640, Note_off_c, 2, 65, 64
8, 56640, Note_off_c, 2, 57, 64
8, 56640, Note_on_c, 2, 47, 72
8, 56766, Note_off_c, 2, 47, 64
8, 56800, Note_on_c, 2, 77, 83
8, 56880, Note_on_c, 2, 57, 77
8, 56880, Note_on_c, 2, 53, 52
8, 56880, Note_on_c, 2, 62, 55
8, 56880, Note_on_c, 2, 59, 52
8, 56960, Note_on_c, 2, 74, 66
8, 56986, Note_off_c, 2, 77, 64
8, 57040, Note_on_c, 2, 71, 69
8, 57056, Note_off_c, 2, 74, 64
8, 57082, Note_off_c, 2, 53, 64
8, 57088, Note_off_c, 2, 62, 64
8, 57096, Note_off_c, 2, 59, 64
8, 57104, Note_off_c, 2, 71, 64
8, 57104, Note_off_c, 2, 57, 64
8, 57120, Note_on_c, 2, 44, 67
8, 57328, Note_off_c, 2, 44, 64
8, 57360, Note_on_c, 2, 61, 52
8, 57360, Note_on_c, 2, 59, 66
8, 57360, Note_on_c, 2, 65, 50
8, 57360, Note_on_c, 2, 56, 53
8, 57488, Note_off_c, 2, 59, 64
8, 57490, Note_off_c, 2, 56, 64
8, 57490, Note_off_c, 2, 61, 64
8, 57496, Note_off_c, 2, 65, 64
8, 57600, Note_on_c, 2, 42, 89
8, 57840, Note_off_c, 2, 42, 64
8, 57840, Note_on_c, 2, 61, 77
8, 57840, Note_on_c, 2, 54, 46
8, 57840, Note_on_c, 2, 45, 68
8, 57840, Note_on_c, 2, 49, 58
8, 57920, Note_off_c, 2, 49, 64
8, 57920, Note_off_c, 2, 45, 64
8, 57920, Note_off_c, 2, 54, 64
8, 57920, Note_off_c, 2, 61, 64
8, 57920, Note_on_c, 2, 57, 53
8, 58000, Note_off_c, 2, 57, 64
8, 58000, Note_on_c, 2, 61, 74
8, 58080, Note_off_c, 2, 61, 64
8, 58080, Note_on_c, 2, 66, 87
8, 58080, Note_on_c, 2, 37, 76
8, 58160, Note_off_c, 2, 37, 64
8, 58160, Note_on_c, 2, 61, 79
8, 58240, Note_off_c, 2, 61, 64
8, 58240, Note_off_c, 2, 66, 64
8, 58240, Note_on_c, 2, 69, 85
8, 58320, Note_on_c, 2, 49, 67
8, 58320, Note_on_c, 2, 54, 66
8, 58320, Note_on_c, 2, 45, 59
8, 58560, Note_off_c, 2, 45, 64
8, 58560, Note_off_c, 2, 54, 64
8, 58560, Note_off_c, 2, 49, 64
8, 58560, Note_off_c, 2, 69, 64
8, 58560, Note_on_c, 2, 47, 76
8, 58698, Note_off_c, 2, 47, 64
8, 58800, Note_on_c, 2, 57, 76
8, 58800, Note_on_c, 2, 54, 63
8, 58800, Note_on_c, 2, 63, 55
8, 58800, Note_on_c, 2, 59, 57
8, 58862, Note_off_c, 2, 59, 64
8, 58864, Note_off_c, 2, 63, 64
8, 58872, Note_off_c, 2, 54, 64
8, 58874, Note_off_c, 2, 57, 64
8, 58960, Note_on_c, 2, 71, 31
8, 59022, Note_off_c, 2, 71, 64
8, 59040, Note_on_c, 2, 42, 71
8, 59040, Note_on_c, 2, 78, 76
8, 59040, Note_on_c, 2, 74, 90
8, 59116, Note_off_c, 2, 42, 64
8, 59120, Note_off_c, 2, 74, 64
8, 59120, Note_on_c, 2, 75, 63
8, 59200, Note_on_c, 2, 71, 80
8, 59214, Note_off_c, 2, 75, 64
8, 59230, Note_off_c, 2, 78, 64
8, 59260, Note_off_c, 2, 71, 64
8, 59280, Note_on_c, 2, 54, 54
8, 59280, Note_on_c, 2, 69, 101
8, 59280, Note_on_c, 2, 57, 72
8, 59280, Note_on_c, 2, 63, 63
8, 59280, Note_on_c, 2, 59, 62
8, 59360, Note_on_c, 2, 68, 62
8, 59380, Note_off_c, 2, 69, 64
8, 59440, Note_off_c, 2, 68, 64
8, 59440, Note_on_c, 2, 66, 73
8, 59508, Note_off_c, 2, 63, 64
8, 59518, Note_off_c, 2, 66, 64
8, 59518, Note_off_c, 2, 59, 64
8, 59518, Note_off_c, 2, 57, 64
8, 59520, Note_off_c, 2, 54, 64
8, 59520, Note_on_c, 2, 79, 72
8, 59520, Note_on_c, 2, 48, 76
8, 59584, Note_off_c, 2, 48, 64
8, 59600, Note_on_c, 2, 75, 48
8, 59680, Note_on_c, 2, 72, 67
8, 59692, Note_off_c, 2, 75, 64
8, 59760, Note_on_c, 2, 58, 69
8, 59760, Note_on_c, 2, 63, 53
8, 59760, Note_on_c, 2, 55, 51
8, 59760, Note_on_c, 2, 60, 49
8, 59868, Note_off_c, 2, 60, 64
8, 59868, Note_off_c, 2, 55, 64
8, 59868, Note_off_c, 2, 63, 64
8, 59868, Note_off_c, 2, 58, 64
8, 59876, Note_off_c, 2, 79, 64
8, 59888, Note_off_c, 2, 72, 64
8, 60000, Note_on_c, 2, 60, 66
8, 60000, Note_on_c, 2, 67, 71
8, 60000, Note_on_c, 2, 41, 67
8, 60080, Note_on_c, 2, 53, 69
8, 60160, Note_on_c, 2, 57, 72
8, 60160, Note_on_c, 2, 63, 78
8, 60480, Note_off_c, 2, 63, 64
8, 60480, Note_off_c, 2, 57, 64
8, 60480, Note_off_c, 2, 53, 64
8, 60480, Note_off_c, 2, 41, 64
8, 60480, Note_off_c, 2, 67, 64
8, 60480, Note_off_c, 2, 60, 64
8, 60480, Note_on_c, 2, 73, 90
8, 60480, Note_on_c, 2, 78, 76
8, 60480, Note_on_c, 2, 47, 68
8, 60540, Note_off_c, 2, 47, 64
8, 60560, Note_on_c, 2, 74, 65
8, 60564, Note_off_c, 2, 73, 64
8, 60720, Note_on_c, 2, 62, 58
8, 60720, Note_on_c, 2, 54, 49
8, 60720, Note_on_c, 2, 57, 61
8, 60720, Note_on_c, 2, 59, 44
8, 60838, Note_off_c, 2, 57, 64
8, 60844, Note_off_c, 2, 59, 64
8, 60844, Note_off_c, 2, 62, 64
8, 60850, Note_off_c, 2, 54, 64
8, 60960, Note_off_c, 2, 74, 64
8, 60960, Note_off_c, 2, 78, 64
8, 60960, Note_on_c, 2, 52, 75
8, 60960, Note_on_c, 2, 74, 96
8, 61040, Note_on_c, 2, 73, 50
8, 61046, Note_off_c, 2, 74, 64
8, 61072, Note_off_c, 2, 52, 64
8, 61120, Note_on_c, 2, 71, 65
8, 61126, Note_off_c, 2, 73, 64
8, 61184, Note_off_c, 2, 71, 64
8, 61200, Note_on_c, 2, 68, 93
8, 61200, Note_on_c, 2, 62, 68
8, 61200, Note_on_c, 2, 56, 58
8, 61280, Note_on_c, 2, 66, 55
8, 61302, Note_off_c, 2, 68, 64
8, 61360, Note_on_c, 2, 64, 80
8, 61364, Note_off_c, 2, 66, 64
8, 61414, Note_off_c, 2, 62, 64
8, 61418, Note_off_c, 2, 64, 64
8, 61424, Note_off_c, 2, 56, 64
8, 61440, Note_on_c, 2, 45, 72
8, 61566, Note_off_c, 2, 45, 64
8, 61600, Note_on_c, 2, 76, 83
8, 61680, Note_on_c, 2, 54, 77
8, 61680, Note_on_c, 2, 52, 52
8, 61680, Note_on_c, 2, 61, 55
8, 61680, Note_on_c, 2, 57, 52
8, 61760, Note_on_c, 2, 73, 66
8, 61786, Note_off_c, 2, 76, 64
8, 61840, Note_on_c, 2, 69, 69
8, 61856, Note_off_c, 2, 73, 64
8, 61882, Note_off_c, 2, 52, 64
8, 61888, Note_off_c, 2, 61, 64
8, 61896, Note_off_c, 2, 57, 64
8, 61904, Note_off_c, 2, 69, 64
8, 61904, Note_off_c, 2, 54, 64
8, 61920, Note_on_c, 2, 64, 66
8, 61920, Note_on_c, 2, 69, 71
8, 61920, Note_on_c, 2, 50, 67
8, 62000, Note_on_c, 2, 57, 69
8, 62080, Note_on_c, 2, 60, 72
8, 62080, Note_on_c, 2, 66, 78
8, 62400, Note_off_c, 2, 66, 64
8, 62400, Note_off_c, 2, 60, 64
8, 62400, Note_off_c, 2, 57, 64
8, 62400, Note_off_c, 2, 50, 64
8, 62400, Note_off_c, 2, 69, 64
8, 62400, Note_off_c, 2, 64, 64
8, 62400, Note_on_c, 2, 69, 90
8, 62400, Note_on_c, 2, 74, 76
8, 62400, Note_on_c, 2, 44, 68
8, 62460, Note_off_c, 2, 44, 64
8, 62480, Note_on_c, 2, 71, 65
8, 62484, Note_off_c, 2, 69, 64
8, 62640, Note_on_c, 2, 59, 58
8, 62640, Note_on_c, 2, 50, 49
8, 62640, Note_on_c, 2, 54, 61
8, 62640, Note_on_c, 2, 56, 44
8, 62758, Note_off_c, 2, 54, 64
8, 62764, Note_off_c, 2, 56, 64
8, 62764, Note_off_c, 2, 59, 64
8, 62770, Note_off_c, 2, 50, 64
8, 62880, Note_off_c, 2, 71, 64
8, 62880, Note_off_c, 2, 74, 64
8, 62880, Note_on_c, 2, 49, 76
8, 63040, Note_on_c, 2, 61, 57
8, 63112, Note_off_c, 2, 61, 64
8, 63120, Note_on_c, 2, 59, 74
8, 63120, Note_on_c, 2, 68, 83
8, 63200, Note_off_c, 2, 68, 64
8, 63200, Note_on_c, 2, 65, 71
8, 63280, Note_off_c, 2, 65, 64
8, 63280, Note_on_c, 2, 61, 61
8, 63360, Note_off_c, 2, 61, 64
8, 63360, Note_off_c, 2, 59, 64
8, 63360, Note_off_c, 2, 49, 64
8, 63360, Note_on_c, 2, 42, 89
8, 63600, Note_off_c, 2, 42, 64
8, 63600, Note_on_c, 2, 61, 77
8, 63600, Note_on_c, 2, 54, 46
8, 63600, Note_on_c, 2, 45, 68
8, 63600, Note_on_c, 2, 49, 58
8, 63680, Note_off_c, 2, 49, 64
8, 63680, Note_off_c, 2, 45, 64
8, 63680, Note_off_c, 2, 54, 64
8, 63680, Note_off_c, 2, 61, 64
8, 63680, Note_on_c, 2, 57, 53
8, 63760, Note_off_c, 2, 57, 64
8, 63760, Note_on_c, 2, 61, 74
8, 63840, Note_off_c, 2, 61, 64
8, 63840, Note_on_c, 2, 66, 87
8, 63840, Note_on_c, 2, 37, 76
8, 63920, Note_off_c, 2, 37, 64
8, 63920, Note_on_c, 2, 61, 79
8, 64000, Note_off_c, 2, 61, 64
8, 64000, Note_off_c, 2, 66, 64
8, 64000, Note_on_c, 2, 69, 85
8, 64080, Note_on_c, 2, 49, 67
8, 64080, Note_on_c, 2, 54, 66
8, 64080, Note_on_c, 2, 45, 59
8, 64320, Note_off_c, 2, 45, 64
8, 64320, Note_off_c, 2, 54, 64
8, 64320, Note_off_c, 2, 49, 64
8, 64320, Note_off_c, 2, 69, 64
8, 64320, Note_on_c, 2, 42, 60
8, 64320, Note_on_c, 2, 61, 80
8, 64370, Note_off_c, 2, 42, 64
8, 64480, Note_on_c, 2, 57, 71
8, 64482, Note_off_c, 2, 61, 64
8, 64560, Note_on_c, 2, 52, 66
8, 64560, Note_on_c, 2, 54, 45
8, 64560, Note_on_c, 2, 49, 42
8, 64790, Note_off_c, 2, 49, 64
8, 64790, Note_off_c, 2, 54, 64
8, 64790, Note_off_c, 2, 52, 64
8, 64796, Note_off_c, 2, 57, 64
8, 64800, Note_on_c, 2, 60, 66
8, 64800, Note_on_c, 2, 67, 71
8, 64800, Note_on_c, 2, 47, 67
8, 64880, Note_on_c, 2, 55, 69
8, 64960, Note_on_c, 2, 57, 72
8, 64960, Note_on_c, 2, 63, 78
8, 65280, Note_off_c, 2, 63, 64
8, 65280, Note_off_c, 2, 57, 64
8, 65280, Note_off_c, 2, 55, 64
8, 65280, Note_off_c, 2, 47, 64
8, 65280, Note_off_c, 2, 67, 64
8, 65280, Note_off_c, 2, 60, 64
8, 65280, Note_on_c, 2, 52, 57
8, 65390, Note_off_c, 2, 52, 64
8, 65440, Note_on_c, 2, 78, 74
8, 65530, Note_off_c, 2, 78, 64
8, 65530, Note_on_c, 2, 71, 65
8, 65530, Note_on_c, 2, 68, 48
8, 65530, Note_on_c, 2, 63, 58
8, 65530, Note_on_c, 2, 64, 43
8, 65530, Note_on_c, 2, 59, 44
8, 65722, Note_off_c, 2, 63, 64
8, 65726, Note_off_c, 2, 59, 64
8, 65726, Note_off_c, 2, 64, 64
8, 65726, Note_off_c, 2, 71, 64
8, 65730, Note_off_c, 2, 68, 64
8, 65760, Note_on_c, 2, 59, 45
8, 65760, Note_on_c, 2, 55, 66
8, 65760, Note_on_c, 2, 49, 53
8, 65760, Note_on_c, 2, 64, 68
8, 65760, Note_on_c, 2, 71, 63
8, 65840, Note_off_c, 2, 64, 64
8, 65840, Note_on_c, 2, 61, 55
8, 65906, Note_off_c, 2, 61, 64
8, 65920, Note_on_c, 2, 64, 64
8, 66208, Note_off_c, 2, 64, 64
8, 66208, Note_off_c, 2, 71, 64
8, 66210, Note_off_c, 2, 55, 64
8, 66214, Note_off_c, 2, 49, 64
8, 66216, Note_off_c, 2, 59, 64
8, 66240, Note_on_c, 2, 52, 74
8, 66400, Note_off_c, 2, 52, 64
8, 66400, Note_on_c, 2, 80, 34
8, 66480, Note_off_c, 2, 80, 64
8, 66480, Note_on_c, 2, 63, 62
8, 66480, Note_on_c, 2, 64, 42
8, 66480, Note_on_c, 2, 83, 70
8, 66480, Note_on_c, 2, 59, 18
8, 66480, Note_on_c, 2, 68, 7
8, 66560, Note_off_c, 2, 68, 64
8, 66560, Note_off_c, 2, 59, 64
8, 66560, Note_off_c, 2, 64, 64
8, 66560, Note_off_c, 2, 63, 64
8, 66560, Note_on_c, 2, 85, 52
8, 66640, Note_off_c, 2, 85, 64
8, 66640, Note_off_c, 2, 83, 64
8, 66640, Note_on_c, 2, 90, 76
8, 66720, Note_on_c, 2, 47, 64
8, 66720, Note_on_c, 2, 85, 59
8, 66842, Note_off_c, 2, 90, 64
8, 66880, Note_off_c, 2, 85, 64
8, 66880, Note_off_c, 2, 47, 64
8, 66880, Note_on_c, 2, 83, 66
8, 66960, Note_on_c, 2, 63, 66
8, 66960, Note_on_c, 2, 59, 38
8, 66960, Note_on_c, 2, 64, 49
8, 66960, Note_on_c, 2, 68, 41
8, 67156, Note_off_c, 2, 63, 64
8, 67160, Note_off_c, 2, 68, 64
8, 67160, Note_off_c, 2, 64, 64
8, 67160, Note_off_c, 2, 59, 64
8, 67180, Note_off_c, 2, 83, 64
8, 67200, Note_on_c, 2, 52, 70
8, 67422, Note_off_c, 2, 52, 64
8, 67440, Note_on_c, 2, 83, 70
8, 67440, Note_on_c, 2, 59, 54
8, 67440, Note_on_c, 2, 67, 46
8, 67440, Note_on_c, 2, 62, 70
8, 67440, Note_on_c, 2, 64, 29
8, 67520, Note_on_c, 2, 79, 50
8, 67590, Note_off_c, 2, 64, 64
8, 67590, Note_off_c, 2, 67, 64
8, 67600, Note_off_c, 2, 62, 64
8, 67600, Note_off_c, 2, 59, 64
8, 67600, Note_off_c, 2, 83, 64
8, 67600, Note_on_c, 2, 76, 71
8, 67672, Note_off_c, 2, 79, 64
8, 67680, Note_off_c, 2, 76, 64
8, 67680, Note_on_c, 2, 83, 72
8, 67680, Note_on_c, 2, 47, 64
8, 67760, Note_on_c, 2, 79, 60
8, 67820, Note_off_c, 2, 47, 64
8, 67830, Note_off_c, 2, 83, 64
8, 67840, Note_on_c, 2, 76, 73
8, 67906, Note_off_c, 2, 79, 64
8, 67920, Note_off_c, 2, 76, 64
8, 67920, Note_on_c, 2, 59, 39
8, 67920, Note_on_c, 2, 62, 61
8, 67920, Note_on_c, 2, 67, 51
8, 67920, Note_on_c, 2, 64, 51
8, 67920, Note_on_c, 2, 83, 80
8, 68000, Note_on_c, 2, 79, 61
8, 68066, Note_off_c, 2, 83, 64
8, 68080, Note_on_c, 2, 76, 73
8, 68140, Note_off_c, 2, 79, 64
8, 68160, Note_off_c, 2, 76, 64
8, 68160, Note_off_c, 2, 64, 64
8, 68160, Note_off_c, 2, 67, 64
8, 68160, Note_off_c, 2, 62, 64
8, 68160, Note_off_c, 2, 59, 64
8, 68160, Note_on_c, 2, 52, 65
8, 68374, Note_off_c, 2, 52, 64
8, 68400, Note_on_c, 2, 76, 59
8, 68400, Note_on_c, 2, 67, 61
8, 68400, Note_on_c, 2, 59, 29
8, 68400, Note_on_c, 2, 62, 57
8, 68400, Note_on_c, 2, 64, 34
8, 68480, Note_on_c, 2, 78, 69
8, 68522, Note_off_c, 2, 76, 64
8, 68560, Note_on_c, 2, 79, 80
8, 68608, Note_off_c, 2, 78, 64
8, 68640, Note_off_c, 2, 79, 64
8, 68640, Note_off_c, 2, 64, 64
8, 68640, Note_off_c, 2, 62, 64
8, 68640, Note_off_c, 2, 59, 64
8, 68640, Note_off_c, 2, 67, 64
8, 68640, Note_on_c, 2, 45, 57
8, 68750, Note_off_c, 2, 45, 64
8, 68800, Note_on_c, 2, 70, 74
8, 68890, Note_off_c, 2, 70, 64
8, 68890, Note_on_c, 2, 65, 65
8, 68890, Note_on_c, 2, 61, 48
8, 68890, Note_on_c, 2, 55, 58
8, 68890, Note_on_c, 2, 58, 43
8, 68890, Note_on_c, 2, 53, 44
8, 69082, Note_off_c, 2, 55, 64
8, 69086, Note_off_c, 2, 53, 64
8, 69086, Note_off_c, 2, 58, 64
8, 69086, Note_off_c, 2, 65, 64
8, 69090, Note_off_c, 2, 61, 64
8, 69120, Note_on_c, 2, 50, 68
8, 69230, Note_off_c, 2, 50, 64
8, 69360, Note_on_c, 2, 81, 82
8, 69360, Note_on_c, 2, 66, 61
8, 69360, Note_on_c, 2, 57, 56
8, 69360, Note_on_c, 2, 61, 69
8, 69360, Note_on_c, 2, 62, 50
8, 69440, Note_off_c, 2, 62, 64
8, 69440, Note_off_c, 2, 61, 64
8, 69440, Note_off_c, 2, 57, 64
8, 69440, Note_off_c, 2, 66, 64
8, 69440, Note_on_c, 2, 78, 43
8, 69504, Note_off_c, 2, 81, 64
8, 69520, Note_off_c, 2, 78, 64
8, 69520, Note_on_c, 2, 76, 31
8, 69600, Note_off_c, 2, 76, 64
8, 69600, Note_on_c, 2, 45, 53
8, 69600, Note_on_c, 2, 81, 71
8, 69680, Note_off_c, 2, 45, 64
8, 69680, Note_on_c, 2, 78, 57
8, 69724, Note_off_c, 2, 81, 64
8, 69760, Note_off_c, 2, 78, 64
8, 69760, Note_on_c, 2, 81, 60
8, 69840, Note_on_c, 2, 61, 65
8, 69840, Note_on_c, 2, 66, 46
8, 69840, Note_on_c, 2, 57, 39
8, 69840, Note_on_c, 2, 62, 40
8, 69942, Note_off_c, 2, 62, 64
8, 69942, Note_off_c, 2, 66, 64
8, 69942, Note_off_c, 2, 61, 64
8, 69944, Note_off_c, 2, 57, 64
8, 70080, Note_on_c, 2, 50, 67
8, 70168, Note_off_c, 2, 50, 64
8, 70240, Note_on_c, 2, 76, 44
8, 70310, Note_off_c, 2, 81, 64
8, 70320, Note_off_c, 2, 76, 64
8, 70320, Note_on_c, 2, 81, 79
8, 70320, Note_on_c, 2, 66, 58
8, 70320, Note_on_c, 2, 62, 49
8, 70320, Note_on_c, 2, 61, 62
8, 70320, Note_on_c, 2, 57, 29
8, 70398, Note_off_c, 2, 57, 64
8, 70400, Note_off_c, 2, 61, 64
8, 70400, Note_off_c, 2, 62, 64
8, 70400, Note_off_c, 2, 66, 64
8, 70400, Note_on_c, 2, 78, 63
8, 70462, Note_off_c, 2, 81, 64
8, 70480, Note_on_c, 2, 76, 30
8, 70530, Note_off_c, 2, 78, 64
8, 70560, Note_off_c, 2, 76, 64
8, 70560, Note_on_c, 2, 88, 80
8, 70560, Note_on_c, 2, 50, 71
8, 70640, Note_off_c, 2, 50, 64
8, 70640, Note_on_c, 2, 78, 77
8, 70690, Note_off_c, 2, 88, 64
8, 70720, Note_off_c, 2, 78, 64
8, 70720, Note_on_c, 2, 81, 77
8, 70800, Note_on_c, 2, 61, 60
8, 70800, Note_on_c, 2, 66, 58
8, 70800, Note_on_c, 2, 57, 35
8, 70800, Note_on_c, 2, 62, 50
8, 71040, Note_off_c, 2, 62, 64
8, 71040, Note_off_c, 2, 57, 64
8, 71040, Note_off_c, 2, 66, 64
8, 71040, Note_off_c, 2, 61, 64
8, 71040, Note_off_c, 2, 81, 64
8, 71040, Note_on_c, 2, 50, 70
8, 71262, Note_off_c, 2, 50, 64
8, 71280, Note_on_c, 2, 81, 70
8, 71280, Note_on_c, 2, 57, 54
8, 71280, Note_on_c, 2, 65, 46
8, 71280, Note_on_c, 2, 60, 70
8, 71280, Note_on_c, 2, 62, 29
8, 71360, Note_on_c, 2, 77, 50
8, 71430, Note_off_c, 2, 62, 64
8, 71430, Note_off_c, 2, 65, 64
8, 71440, Note_off_c, 2, 60, 64
8, 71440, Note_off_c, 2, 57, 64
8, 71440, Note_off_c, 2, 81, 64
8, 71440, Note_on_c, 2, 74, 71
8, 71512, Note_off_c, 2, 77, 64
8, 71520, Note_off_c, 2, 74, 64
8, 71520, Note_on_c, 2, 81, 72
8, 71520, Note_on_c, 2, 45, 64
8, 71600, Note_on_c, 2, 77, 60
8, 71660, Note_off_c, 2, 45, 64
8, 71670, Note_off_c, 2, 81, 64
8, 71680, Note_on_c, 2, 74, 73
8, 71746, Note_off_c, 2, 77, 64
8, 71760, Note_off_c, 2, 74, 64
8, 71760, Note_on_c, 2, 57, 39
8, 71760, Note_on_c, 2, 60, 61
8, 71760, Note_on_c, 2, 65, 51
8, 71760, Note_on_c, 2, 62, 51
8, 71760, Note_on_c, 2, 81, 80
8, 71840, Note_on_c, 2, 77, 61
8, 71906, Note_off_c, 2, 81, 64
8, 71920, Note_on_c, 2, 74, 73
8, 71980, Note_off_c, 2, 77, 64
8, 72000, Note_off_c, 2, 74, 64
8, 72000, Note_off_c, 2, 62, 64
8, 72000, Note_off_c, 2, 65, 64
8, 72000, Note_off_c, 2, 60, 64
8, 72000, Note_off_c, 2, 57, 64
8, 72000, Note_on_c, 2, 43, 71
8, 72208, Note_off_c, 2, 43, 64
8, 72240, Note_on_c, 2, 50, 59
8, 72240, Note_on_c, 2, 53, 83
8, 72240, Note_on_c, 2, 59, 69
8, 72240, Note_on_c, 2, 56, 59
8, 72400, Note_off_c, 2, 56, 64
8, 72400, Note_off_c, 2, 59, 64
8, 72400, Note_off_c, 2, 53, 64
8, 72400, Note_off_c, 2, 50, 64
8, 72400, Note_on_c, 2, 68, 71
8, 72400, Note_on_c, 2, 74, 73
8, 72440, Note_on_c, 2, 71, 75
8, 72480, Note_off_c, 2, 68, 64
8, 72480, Note_on_c, 2, 38, 49
8, 72596, Note_off_c, 2, 74, 64
8, 72632, Note_off_c, 2, 71, 64
8, 72636, Note_off_c, 2, 38, 64
8, 72640, Note_on_c, 2, 71, 71
8, 72640, Note_on_c, 2, 74, 64
8, 72720, Note_on_c, 2, 50, 46
8, 72720, Note_on_c, 2, 53, 71
8, 72720, Note_on_c, 2, 59, 47
8, 72720, Note_on_c, 2, 56, 61
8, 72960, Note_off_c, 2, 56, 64
8, 72960, Note_off_c, 2, 59, 64
8, 72960, Note_off_c, 2, 53, 64
8, 72960, Note_off_c, 2, 50, 64
8, 72960, Note_off_c, 2, 74, 64
8, 72960, Note_off_c, 2, 71, 64
8, 72960, Note_on_c, 2, 48, 71
8, 73168, Note_off_c, 2, 48, 64
8, 73200, Note_on_c, 2, 55, 59
8, 73200, Note_on_c, 2, 59, 83
8, 73200, Note_on_c, 2, 64, 69
8, 73200, Note_on_c, 2, 60, 59
8, 73360, Note_off_c, 2, 60, 64
8, 73360, Note_off_c, 2, 64, 64
8, 73360, Note_off_c, 2, 59, 64
8, 73360, Note_off_c, 2, 55, 64
8, 73360, Note_on_c, 2, 74, 71
8, 73360, Note_on_c, 2, 79, 73
8, 73400, Note_on_c, 2, 76, 75
8, 73440, Note_off_c, 2, 74, 64
8, 73440, Note_on_c, 2, 43, 49
8, 73556, Note_off_c, 2, 79, 64
8, 73592, Note_off_c, 2, 76, 64
8, 73596, Note_off_c, 2, 43, 64
8, 73600, Note_on_c, 2, 76, 71
8, 73600, Note_on_c, 2, 79, 64
8, 73680, Note_on_c, 2, 55, 46
8, 73680, Note_on_c, 2, 59, 71
8, 73680, Note_on_c, 2, 64, 47
8, 73680, Note_on_c, 2, 60, 61
8, 73920, Note_off_c, 2, 60, 64
8, 73920, Note_off_c, 2, 64, 64
8, 73920, Note_off_c, 2, 59, 64
8, 73920, Note_off_c, 2, 55, 64
8, 73920, Note_off_c, 2, 79, 64
8, 73920, Note_off_c, 2, 76, 64
8, 73920, Note_on_c, 2, 45, 76
8, 74080, Note_on_c, 2, 57, 57
8, 74152, Note_off_c, 2, 57, 64
8, 74160, Note_on_c, 2, 55, 74
8, 74160, Note_on_c, 2, 64, 83
8, 74240, Note_off_c, 2, 64, 64
8, 74240, Note_on_c, 2, 60, 71
8, 74320, Note_off_c, 2, 60, 64
8, 74320, Note_on_c, 2, 57, 61
8, 74400, Note_off_c, 2, 57, 64
8, 74400, Note_off_c, 2, 55, 64
8, 74400, Note_off_c, 2, 45, 64
8, 74400, Note_on_c, 2, 57, 66
8, 74400, Note_on_c, 2, 64, 71
8, 74400, Note_on_c, 2, 43, 67
8, 74480, Note_on_c, 2, 52, 69
8, 74560, Note_on_c, 2, 55, 72
8, 74560, Note_on_c, 2, 60, 78
8, 74880, Note_off_c, 2, 60, 64
8, 74880, Note_off_c, 2, 55, 64
8, 74880, Note_off_c, 2, 52, 64
8, 74880, Note_off_c, 2, 43, 64
8, 74880, Note_off_c, 2, 64, 64
8, 74880, Note_off_c, 2, 57, 64
8, 74880, Note_on_c, 2, 42, 57
8, 74990, Note_off_c, 2, 42, 64
8, 75040, Note_on_c, 2, 66, 74
8, 75130, Note_off_c, 2, 66, 64
8, 75130, Note_on_c, 2, 60, 65
8, 75130, Note_on_c, 2, 57, 48
8, 75130, Note_on_c, 2, 52, 58
8, 75130, Note_on_c, 2, 54, 43
8, 75130, Note_on_c, 2, 48, 44
8, 75322, Note_off_c, 2, 52, 64
8, 75326, Note_off_c, 2, 48, 64
8, 75326, Note_off_c, 2, 54, 64
8, 75326, Note_off_c, 2, 60, 64
8, 75330, Note_off_c, 2, 57, 64
8, 75360, Note_on_c, 2, 59, 66
8, 75360, Note_on_c, 2, 65, 71
8, 75360, Note_on_c, 2, 47, 67
8, 75440, Note_on_c, 2, 53, 69
8, 75520, Note_on_c, 2, 57, 72
8, 75520, Note_on_c, 2, 63, 78
8, 75840, Note_off_c, 2, 63, 64
8, 75840, Note_off_c, 2, 57, 64
8, 75840, Note_off_c, 2, 53, 64
8, 75840, Note_off_c, 2, 47, 64
8, 75840, Note_off_c, 2, 65, 64
8, 75840, Note_off_c, 2, 59, 64
8, 75840, Note_on_c, 2, 47, 60
8, 75840, Note_on_c, 2, 65, 80
8, 75890, Note_off_c, 2, 47, 64
8, 76000, Note_on_c, 2, 63, 71
8, 76002, Note_off_c, 2, 65, 64
8, 76080, Note_on_c, 2, 57, 66
8, 76080, Note_on_c, 2, 59, 45
8, 76080, Note_on_c, 2, 53, 42
8, 76310, Note_off_c, 2, 53, 64
8, 76310, Note_off_c, 2, 59, 64
8, 76310, Note_off_c, 2, 57, 64
8, 76316, Note_off_c, 2, 63, 64
8, 76320, Note_on_c, 2, 47, 63
8, 76320, Note_on_c, 2, 75, 81
8, 76320, Note_on_c, 2, 78, 69
8, 76380, Note_off_c, 2, 47, 64
8, 76560, Note_on_c, 2, 63, 39
8, 76560, Note_on_c, 2, 61, 36
8, 76560, Note_on_c, 2, 54, 35
8, 76560, Note_on_c, 2, 57, 44
8, 76698, Note_off_c, 2, 57, 64
8, 76706, Note_off_c, 2, 61, 64
8, 76706, Note_off_c, 2, 63, 64
8, 76708, Note_off_c, 2, 54, 64
8, 76708, Note_off_c, 2, 78, 64
8, 76708, Note_off_c, 2, 75, 64
8, 76800, Note_on_c, 2, 44, 70
8, 76950, Note_off_c, 2, 44, 64
8, 76960, Note_on_c, 2, 75, 68
8, 77040, Note_on_c, 2, 56, 50
8, 77040, Note_on_c, 2, 59, 67
8, 77040, Note_on_c, 2, 66, 55
8, 77040, Note_on_c, 2, 63, 51
8, 77200, Note_off_c, 2, 63, 64
8, 77200, Note_off_c, 2, 66, 64
8, 77200, Note_off_c, 2, 59, 64
8, 77200, Note_off_c, 2, 56, 64
8, 77200, Note_on_c, 2, 68, 65
8, 77240, Note_off_c, 2, 75, 64
8, 77280, Note_off_c, 2, 68, 64
8, 77280, Note_on_c, 2, 57, 66
8, 77280, Note_on_c, 2, 64, 71
8, 77280, Note_on_c, 2, 45, 67
8, 77360, Note_on_c, 2, 52, 69
8, 77440, Note_on_c, 2, 56, 72
8, 77440, Note_on_c, 2, 61, 78
8, 77760, Note_off_c, 2, 61, 64
8, 77760, Note_off_c, 2, 56, 64
8, 77760, Note_off_c, 2, 52, 64
8, 77760, Note_off_c, 2, 45, 64
8, 77760, Note_off_c, 2, 64, 64
8, 77760, Note_off_c, 2, 57, 64
8, 77760, Note_on_c, 2, 44, 65
8, 77974, Note_off_c, 2, 44, 64
8, 78000, Note_on_c, 2, 68, 59
8, 78000, Note_on_c, 2, 59, 61
8, 78000, Note_on_c, 2, 50, 29
8, 78000, Note_on_c, 2, 54, 57
8, 78000, Note_on_c, 2, 56, 34
8, 78080, Note_on_c, 2, 69, 69
8, 78122, Note_off_c, 2, 68, 64
8, 78160, Note_on_c, 2, 71, 80
8, 78208, Note_off_c, 2, 69, 64
8, 78240, Note_off_c, 2, 71, 64
8, 78240, Note_off_c, 2, 56, 64
8, 78240, Note_off_c, 2, 54, 64
8, 78240, Note_off_c, 2, 50, 64
8, 78240, Note_off_c, 2, 59, 64
8, 78240, Note_on_c, 2, 49, 76
8, 78400, Note_on_c, 2, 61, 57
8, 78472, Note_off_c, 2, 61, 64
8, 78480, Note_on_c, 2, 59, 74
8, 78480, Note_on_c, 2, 68, 83
8, 78560, Note_off_c, 2, 68, 64
8, 78560, Note_on_c, 2, 65, 71
8, 78640, Note_off_c, 2, 65, 64
8, 78640, Note_on_c, 2, 61, 61
8, 78720, Note_off_c, 2, 61, 64
8, 78720, Note_off_c, 2, 59, 64
8, 78720, Note_off_c, 2, 49, 64
8, 78720, Note_on_c, 2, 42, 61
8, 78950, Note_off_c, 2, 42, 64
8, 78960, Note_on_c, 2, 54, 47
8, 78960, Note_on_c, 2, 66, 52
8, 78960, Note_on_c, 2, 45, 60
8, 78960, Note_on_c, 2, 49, 47
8, 79040, Note_off_c, 2, 49, 64
8, 79040, Note_off_c, 2, 45, 64
8, 79040, Note_off_c, 2, 54, 64
8, 79040, Note_on_c, 2, 61, 52
8, 79120, Note_off_c, 2, 66, 64
8, 79120, Note_on_c, 2, 69, 69
8, 79198, Note_off_c, 2, 61, 64
8, 79200, Note_on_c, 2, 37, 65
8, 79200, Note_on_c, 2, 66, 74
8, 79264, Note_off_c, 2, 69, 64
8, 79298, Note_off_c, 2, 37, 64
8, 79360, Note_off_c, 2, 66, 64
8, 79360, Note_on_c, 2, 73, 69
8, 79440, Note_on_c, 2, 69, 78
8, 79440, Note_on_c, 2, 49, 52
8, 79440, Note_on_c, 2, 45, 55
8, 79440, Note_on_c, 2, 54, 47
8, 79522, Note_off_c, 2, 73, 64
8, 79680, Note_off_c, 2, 54, 64
8, 79680, Note_off_c, 2, 45, 64
8, 79680, Note_off_c, 2, 49, 64
8, 79680, Note_off_c, 2, 69, 64
8, 79680, Note_on_c, 2, 61, 66
8, 79680, Note_on_c, 2, 66, 71
8, 79680, Note_on_c, 2, 42, 67
8, 79760, Note_on_c, 2, 54, 69
8, 79840, Note_on_c, 2, 57, 72
8, 79840, Note_on_c, 2, 64, 78
8, 80160, Note_off_c, 2, 64, 64
8, 80160, Note_off_c, 2, 57, 64
8, 80160, Note_off_c, 2, 54, 64
8, 80160, Note_off_c, 2, 42, 64
8, 80160, Note_off_c, 2, 66, 64
8, 80160, Note_off_c, 2, 61, 64
8, 80160, Note_on_c, 2, 79, 76
8, 80160, Note_on_c, 2, 72, 90
8, 80160, Note_on_c, 2, 47, 68
8, 80220, Note_off_c, 2, 47, 64
8, 80240, Note_on_c, 2, 75, 65
8, 80244, Note_off_c, 2, 72, 64
8, 80400, Note_on_c, 2, 63, 58
8, 80400, Note_on_c, 2, 55, 49
8, 80400, Note_on_c, 2, 57, 61
8, 80400, Note_on_c, 2, 60, 44
8, 80518, Note_off_c, 2, 57, 64
8, 80524, Note_off_c, 2, 60, 64
8, 80524, Note_off_c, 2, 63, 64
8, 80530, Note_off_c, 2, 55, 64
8, 80640, Note_off_c, 2, 75, 64
8, 80640, Note_off_c, 2, 79, 64
8, 80640, Note_on_c, 2, 59, 66
8, 80640, Note_on_c, 2, 66, 71
8, 80640, Note_on_c, 2, 40, 67
8, 80720, Note_on_c, 2, 52, 69
8, 80800, Note_on_c, 2, 56, 72
8, 80800, Note_on_c, 2, 63, 78
8, 81120, Note_off_c, 2, 63, 64
8, 81120, Note_off_c, 2, 56, 64
8, 81120, Note_off_c, 2, 52, 64
8, 81120, Note_off_c, 2, 40, 64
8, 81120, Note_off_c, 2, 66, 64
8, 81120, Note_off_c, 2, 59, 64
8, 81120, Note_on_c, 2, 76, 76
8, 81120, Note_on_c, 2, 71, 90
8, 81120, Note_on_c, 2, 45, 68
8, 81180, Note_off_c, 2, 45, 64
8, 81200, Note_on_c, 2, 73, 65
8, 81204, Note_off_c, 2, 71, 64
8, 81360, Note_on_c, 2, 61, 58
8, 81360, Note_on_c, 2, 52, 49
8, 81360, Note_on_c, 2, 55, 61
8, 81360, Note_on_c, 2, 59, 44
8, 81478, Note_off_c, 2, 55, 64
8, 81484, Note_off_c, 2, 59, 64
8, 81484, Note_off_c, 2, 61, 64
8, 81490, Note_off_c, 2, 52, 64
8, 81600, Note_off_c, 2, 73, 64
8, 81600, Note_off_c, 2, 76, 64
8, 81600, Note_on_c, 2, 52, 61
8, 81830, Note_off_c, 2, 52, 64
8, 81840, Note_on_c, 2, 64, 47
8, 81840, Note_on_c, 2, 78, 52
8, 81840, Note_on_c, 2, 56, 60
8, 81840, Note_on_c, 2, 59, 47
8, 81920, Note_off_c, 2, 59, 64
8, 81920, Note_off_c, 2, 56, 64
8, 81920, Note_off_c, 2, 64, 64
8, 81920, Note_on_c, 2, 71, 52
8, 82000, Note_off_c, 2, 78, 64
8, 82000, Note_on_c, 2, 80, 69
8, 82078, Note_off_c, 2, 71, 64
8, 82080, Note_on_c, 2, 47, 65
8, 82080, Note_on_c, 2, 78, 74
8, 82144, Note_off_c, 2, 80, 64
8, 82178, Note_off_c, 2, 47, 64
8, 82240, Note_off_c, 2, 78, 64
8, 82240, Note_on_c, 2, 83, 69
8, 82320, Note_on_c, 2, 80, 78
8, 82320, Note_on_c, 2, 59, 52
8, 82320, Note_on_c, 2, 56, 55
8, 82320, Note_on_c, 2, 64, 47
8, 82402, Note_off_c, 2, 83, 64
8, 82560, Note_off_c, 2, 64, 64
8, 82560, Note_off_c, 2, 56, 64
8, 82560, Note_off_c, 2, 59, 64
8, 82560, Note_off_c, 2, 80, 64
8, 82560, Note_on_c, 2, 52, 73
8, 82720, Note_on_c, 2, 83, 82
8, 82800, Note_off_c, 2, 52, 64
8, 82800, Note_on_c, 2, 79, 87
8, 82800, Note_on_c, 2, 67, 72
8, 82800, Note_on_c, 2, 62, 73
8, 82800, Note_on_c, 2, 59, 61
8, 82800, Note_on_c, 2, 64, 58
8, 82880, Note_off_c, 2, 64, 64
8, 82880, Note_off_c, 2, 59, 64
8, 82880, Note_off_c, 2, 83, 64
8, 82940, Note_off_c, 2, 62, 64
8, 82940, Note_off_c, 2, 67, 64
8, 82940, Note_off_c, 2, 79, 64
8, 82960, Note_on_c, 2, 83, 85
8, 83040, Note_on_c, 2, 79, 82
8, 83040, Note_on_c, 2, 47, 71
8, 83100, Note_off_c, 2, 83, 64
8, 83180, Note_off_c, 2, 47, 64
8, 83184, Note_off_c, 2, 79, 64
8, 83200, Note_on_c, 2, 83, 86
8, 83280, Note_on_c, 2, 62, 64
8, 83280, Note_on_c, 2, 59, 42
8, 83280, Note_on_c, 2, 76, 80
8, 83280, Note_on_c, 2, 67, 44
8, 83280, Note_on_c, 2, 64, 49
8, 83376, Note_off_c, 2, 83, 64
8, 83484, Note_off_c, 2, 67, 64
8, 83490, Note_off_c, 2, 64, 64
8, 83490, Note_off_c, 2, 62, 64
8, 83494, Note_off_c, 2, 59, 64
8, 83496, Note_off_c, 2, 76, 64
8, 83520, Note_on_c, 2, 83, 72
8, 83520, Note_on_c, 2, 52, 76
8, 83584, Note_off_c, 2, 52, 64
8, 83600, Note_on_c, 2, 79, 48
8, 83680, Note_on_c, 2, 76, 67
8, 83692, Note_off_c, 2, 79, 64
8, 83760, Note_on_c, 2, 62, 69
8, 83760, Note_on_c, 2, 67, 53
8, 83760, Note_on_c, 2, 59, 51
8, 83760, Note_on_c, 2, 64, 49
8, 83868, Note_off_c, 2, 64, 64
8, 83868, Note_off_c, 2, 59, 64
8, 83868, Note_off_c, 2, 67, 64
8, 83868, Note_off_c, 2, 62, 64
8, 83876, Note_off_c, 2, 83, 64
8, 83888, Note_off_c, 2, 76, 64
8, 84000, Note_on_c, 2, 45, 72
8, 84126, Note_off_c, 2, 45, 64
8, 84160, Note_on_c, 2, 77, 83
8, 84240, Note_on_c, 2, 55, 77
8, 84240, Note_on_c, 2, 53, 52
8, 84240, Note_on_c, 2, 61, 55
8, 84240, Note_on_c, 2, 58, 52
8, 84320, Note_on_c, 2, 73, 66
8, 84346, Note_off_c, 2, 77, 64
8, 84400, Note_on_c, 2, 70, 69
8, 84416, Note_off_c, 2, 73, 64
8, 84442, Note_off_c, 2, 53, 64
8, 84448, Note_off_c, 2, 61, 64
8, 84456, Note_off_c, 2, 58, 64
8, 84464, Note_off_c, 2, 70, 64
8, 84464, Note_off_c, 2, 55, 64
8, 84480, Note_on_c, 2, 81, 86
8, 84480, Note_on_c, 2, 50, 72
8, 84480, Note_on_c, 2, 76, 90
8, 84560, Note_on_c, 2, 78, 68
8, 84586, Note_off_c, 2, 76, 64
8, 84630, Note_off_c, 2, 50, 64
8, 84720, Note_on_c, 2, 61, 75
8, 84720, Note_on_c, 2, 57, 59
8, 84720, Note_on_c, 2, 66, 54
8, 84720, Note_on_c, 2, 62, 54
8, 84792, Note_off_c, 2, 62, 64
8, 84802, Note_off_c, 2, 66, 64
8, 84806, Note_off_c, 2, 57, 64
8, 84810, Note_off_c, 2, 61, 64
8, 84960, Note_on_c, 2, 45, 81
8, 85076, Note_off_c, 2, 45, 64
8, 85200, Note_on_c, 2, 66, 69
8, 85200, Note_on_c, 2, 57, 54
8, 85200, Note_on_c, 2, 61, 77
8, 85200, Note_on_c, 2, 62, 53
8, 85270, Note_off_c, 2, 62, 64
8, 85284, Note_off_c, 2, 66, 64
8, 85292, Note_off_c, 2, 61, 64
8, 85292, Note_off_c, 2, 57, 64
8, 85440, Note_on_c, 2, 50, 85
8, 85550, Note_off_c, 2, 50, 64
8, 85680, Note_on_c, 2, 57, 54
8, 85680, Note_on_c, 2, 61, 73
8, 85680, Note_on_c, 2, 66, 63
8, 85680, Note_on_c, 2, 62, 58
8, 85786, Note_off_c, 2, 62, 64
8, 85786, Note_off_c, 2, 66, 64
8, 85790, Note_off_c, 2, 61, 64
8, 85800, Note_off_c, 2, 57, 64
8, 85824, Note_off_c, 2, 81, 64
8, 85836, Note_off_c, 2, 78, 64
8, 85920, Note_on_c, 2, 81, 91
8, 85920, Note_on_c, 2, 45, 49
8, 85994, Note_off_c, 2, 45, 64
8, 86000, Note_on_c, 2, 78, 61
8, 86056, Note_off_c, 2, 81, 64
8, 86080, Note_on_c, 2, 74, 74
8, 86110, Note_off_c, 2, 78, 64
8, 86160, Note_on_c, 2, 81, 82
8, 86160, Note_on_c, 2, 57, 51
8, 86160, Note_on_c, 2, 61, 71
8, 86160, Note_on_c, 2, 66, 56
8, 86160, Note_on_c, 2, 62, 56
8, 86188, Note_off_c, 2, 74, 64
8, 86240, Note_on_c, 2, 78, 67
8, 86282, Note_off_c, 2, 81, 64
8, 86320, Note_on_c, 2, 74, 86
8, 86334, Note_off_c, 2, 78, 64
8, 86346, Note_off_c, 2, 62, 64
8, 86352, Note_off_c, 2, 66, 64
8, 86352, Note_off_c, 2, 61, 64
8, 86352, Note_off_c, 2, 57, 64
8, 86400, Note_off_c, 2, 74, 64
8, 86400, Note_on_c, 2, 50, 63
8, 86400, Note_on_c, 2, 77, 81
8, 86400, Note_on_c, 2, 81, 69
8, 86460, Note_off_c, 2, 50, 64
8, 86640, Note_on_c, 2, 65, 39
8, 86640, Note_on_c, 2, 62, 36
8, 86640, Note_on_c, 2, 57, 35
8, 86640, Note_on_c, 2, 60, 44
8, 86778, Note_off_c, 2, 60, 64
8, 86786, Note_off_c, 2, 62, 64
8, 86786, Note_off_c, 2, 65, 64
8, 86788, Note_off_c, 2, 57, 64
8, 86788, Note_off_c, 2, 81, 64
8, 86788, Note_off_c, 2, 77, 64
8, 86880, Note_on_c, 2, 48, 60
8, 86880, Note_on_c, 2, 69, 80
8, 86930, Note_off_c, 2, 48, 64
8, 87040, Note_on_c, 2, 65, 71
8, 87042, Note_off_c, 2, 69, 64
8, 87120, Note_on_c, 2, 60, 66
8, 87120, Note_on_c, 2, 62, 45
8, 87120, Note_on_c, 2, 57, 42
8, 87350, Note_off_c, 2, 57, 64
8, 87350, Note_off_c, 2, 62, 64
8, 87350, Note_off_c, 2, 60, 64
8, 87356, Note_off_c, 2, 65, 64
8, 87360, Note_on_c, 2, 47, 70
8, 87510, Note_off_c, 2, 47, 64
8, 87520, Note_on_c, 2, 71, 68
8, 87600, Note_on_c, 2, 53, 50
8, 87600, Note_on_c, 2, 57, 67
8, 87600, Note_on_c, 2, 62, 55
8, 87600, Note_on_c, 2, 59, 51
8, 87760, Note_off_c, 2, 59, 64
8, 87760, Note_off_c, 2, 62, 64
8, 87760, Note_off_c, 2, 57, 64
8, 87760, Note_off_c, 2, 53, 64
8, 87760, Note_on_c, 2, 65, 65
8, 87800, Note_off_c, 2, 71, 64
8, 87840, Note_off_c, 2, 65, 64
8, 87840, Note_on_c, 2, 56, 51
8, 87840, Note_on_c, 2, 54, 57
8, 87840, Note_on_c, 2, 59, 53
8, 87840, Note_on_c, 2, 50, 48
8, 88024, Note_off_c, 2, 54, 64
8, 88034, Note_off_c, 2, 50, 64
8, 88034, Note_off_c, 2, 59, 64
8, 88034, Note_off_c, 2, 56, 64
8, 88080, Note_on_c, 2, 61, 51
8, 88080, Note_on_c, 2, 59, 57
8, 88080, Note_on_c, 2, 65, 53
8, 88080, Note_on_c, 2, 56, 48
8, 88264, Note_off_c, 2, 59, 64
8, 88274, Note_off_c, 2, 56, 64
8, 88274, Note_off_c, 2, 65, 64
8, 88274, Note_off_c, 2, 61, 64
8, 88320, Note_on_c, 2, 42, 61
8, 88550, Note_off_c, 2, 42, 64
8, 88560, Note_on_c, 2, 54, 47
8, 88560, Note_on_c, 2, 66, 52
8, 88560, Note_on_c, 2, 45, 60
8, 88560, Note_on_c, 2, 49, 47
8, 88640, Note_off_c, 2, 49, 64
8, 88640, Note_off_c, 2, 45, 64
8, 88640, Note_off_c, 2, 54, 64
8, 88640, Note_on_c, 2, 61, 52
8, 88720, Note_off_c, 2, 66, 64
8, 88720, Note_on_c, 2, 69, 69
8, 88798, Note_off_c, 2, 61, 64
8, 88800, Note_on_c, 2, 37, 65
8, 88800, Note_on_c, 2, 66, 74
8, 88864, Note_off_c, 2, 69, 64
8, 88898, Note_off_c, 2, 37, 64
8, 88960, Note_off_c, 2, 66, 64
8, 88960, Note_on_c, 2, 73, 69
8, 89040, Note_on_c, 2, 69, 78
8, 89040, Note_on_c, 2, 49, 52
8, 89040, Note_on_c, 2, 45, 55
8, 89040, Note_on_c, 2, 54, 47
8, 89122, Note_off_c, 2, 73, 64
8, 89280, Note_off_c, 2, 54, 64
8, 89280, Note_off_c, 2, 45, 64
8, 89280, Note_off_c, 2, 49, 64
8, 89280, Note_off_c, 2, 69, 64
8, 89280, Note_on_c, 2, 47, 58
8, 89440, Note_off_c, 2, 47, 64
8, 89440, Note_on_c, 2, 66, 65
8, 89520, Note_on_c, 2, 63, 69
8, 89520, Note_on_c, 2, 57, 67
8, 89520, Note_on_c, 2, 61, 40
8, 89540, Note_off_c, 2, 66, 64
8, 89540, Note_on_c, 2, 54, 41
8, 89540, Note_on_c, 2, 51, 17
8, 89680, Note_off_c, 2, 51, 64
8, 89680, Note_off_c, 2, 54, 64
8, 89680, Note_off_c, 2, 61, 64
8, 89680, Note_off_c, 2, 57, 64
8, 89680, Note_off_c, 2, 63, 64
8, 89680, Note_on_c, 2, 73, 79
8, 89760, Note_on_c, 2, 66, 55
8, 89764, Note_off_c, 2, 73, 64
8, 89764, Note_on_c, 2, 42, 68
8, 89920, Note_off_c, 2, 42, 64
8, 89920, Note_off_c, 2, 66, 64
8, 89920, Note_on_c, 2, 75, 64
8, 90000, Note_on_c, 2, 73, 74
8, 90000, Note_on_c, 2, 57, 67
8, 90000, Note_on_c, 2, 54, 47
8, 90000, Note_on_c, 2, 51, 45
8, 90000, Note_on_c, 2, 61, 40
8, 90138, Note_off_c, 2, 75, 64
8, 90240, Note_off_c, 2, 61, 64
8, 90240, Note_off_c, 2, 51, 64
8, 90240, Note_off_c, 2, 54, 64
8, 90240, Note_off_c, 2, 57, 64
8, 90240, Note_off_c, 2, 73, 64
8, 90240, Note_on_c, 2, 48, 65
8, 90454, Note_off_c, 2, 48, 64
8, 90480, Note_on_c, 2, 72, 59
8, 90480, Note_on_c, 2, 63, 61
8, 90480, Note_on_c, 2, 55, 29
8, 90480, Note_on_c, 2, 58, 57
8, 90480, Note_on_c, 2, 60, 34
8, 90560, Note_on_c, 2, 74, 69
8, 90602, Note_off_c, 2, 72, 64
8, 90640, Note_on_c, 2, 75, 80
8, 90688, Note_off_c, 2, 74, 64
8, 90720, Note_off_c, 2, 75, 64
8, 90720, Note_off_c, 2, 60, 64
8, 90720, Note_off_c, 2, 58, 64
8, 90720, Note_off_c, 2, 55, 64
8, 90720, Note_off_c, 2, 63, 64
8, 90720, Note_on_c, 2, 67, 45
8, 90720, Note_on_c, 2, 63, 66
8, 90720, Note_on_c, 2, 57, 53
8, 90720, Note_on_c, 2, 72, 68
8, 90720, Note_on_c, 2, 79, 63
8, 90800, Note_off_c, 2, 72, 64
8, 90800, Note_on_c, 2, 69, 55
8, 90866, Note_off_c, 2, 69, 64
8, 90880, Note_on_c, 2, 72, 64
8, 91168, Note_off_c, 2, 72, 64
8, 91168, Note_off_c, 2, 79, 64
8, 91170, Note_off_c, 2, 63, 64
8, 91174, Note_off_c, 2, 57, 64
8, 91176, Note_off_c, 2, 67, 64
8, 91200, Note_on_c, 2, 47, 60
8, 91200, Note_on_c, 2, 66, 80
8, 91250, Note_off_c, 2, 47, 64
8, 91360, Note_on_c, 2, 62, 71
8, 91362, Note_off_c, 2, 66, 64
8, 91440, Note_on_c, 2, 57, 66
8, 91440, Note_on_c, 2, 59, 45
8, 91440, Note_on_c, 2, 54, 42
8, 91670, Note_off_c, 2, 54, 64
8, 91670, Note_off_c, 2, 59, 64
8, 91670, Note_off_c, 2, 57, 64
8, 91676, Note_off_c, 2, 62, 64
8, 91680, Note_on_c, 2, 66, 45
8, 91680, Note_on_c, 2, 62, 66
8, 91680, Note_on_c, 2, 56, 53
8, 91680, Note_on_c, 2, 71, 68
8, 91680, Note_on_c, 2, 78, 63
8, 91760, Note_off_c, 2, 71, 64
8, 91760, Note_on_c, 2, 68, 55
8, 91826, Note_off_c, 2, 68, 64
8, 91840, Note_on_c, 2, 71, 64
8, 92128, Note_off_c, 2, 71, 64
8, 92128, Note_off_c, 2, 78, 64
8, 92130, Note_off_c, 2, 62, 64
8, 92134, Note_off_c, 2, 56, 64
8, 92136, Note_off_c, 2, 66, 64
8, 92160, Note_on_c, 2, 57, 45
8, 92160, Note_on_c, 2, 54, 66
8, 92160, Note_on_c, 2, 49, 53
8, 92160, Note_on_c, 2, 64, 68
8, 92160, Note_on_c, 2, 69, 63
8, 92240, Note_off_c, 2, 64, 64
8, 92240, Note_on_c, 2, 61, 55
8, 92306, Note_off_c, 2, 61, 64
8, 92320, Note_on_c, 2, 64, 64
8, 92608, Note_off_c, 2, 64, 64
8, 92608, Note_off_c, 2, 69, 64
8, 92610, Note_off_c, 2, 54, 64
8, 92614, Note_off_c, 2, 49, 64
8, 92616, Note_off_c, 2, 57, 64
8, 92640, Note_on_c, 2, 50, 76
8, 92800, Note_on_c, 2, 64, 57
8, 92872, Note_off_c, 2, 64, 64
8, 92880, Note_on_c, 2, 60, 74
8, 92880, Note_on_c, 2, 69, 83
8, 92960, Note_off_c, 2, 69, 64
8, 92960, Note_on_c, 2, 66, 71
8, 93040, Note_off_c, 2, 66, 64
8, 93040, Note_on_c, 2, 64, 61
8, 93120, Note_off_c, 2, 64, 64
8, 93120, Note_off_c, 2, 60, 64
8, 93120, Note_off_c, 2, 50, 64
8, 93120, Note_on_c, 2, 62, 66
8, 93120, Note_on_c, 2, 68, 71
8, 93120, Note_on_c, 2, 44, 67
8, 93200, Note_on_c, 2, 56, 69
8, 93280, Note_on_c, 2, 59, 72
8, 93280, Note_on_c, 2, 66, 78
8, 93600, Note_off_c, 2, 66, 64
8, 93600, Note_off_c, 2, 59, 64
8, 93600, Note_off_c, 2, 56, 64
8, 93600, Note_off_c, 2, 44, 64
8, 93600, Note_off_c, 2, 68, 64
8, 93600, Note_off_c, 2, 62, 64
8, 93600, Note_on_c, 2, 49, 60
8, 93600, Note_on_c, 2, 68, 80
8, 93650, Note_off_c, 2, 49, 64
8, 93760, Note_on_c, 2, 65, 71
8, 93762, Note_off_c, 2, 68, 64
8, 93840, Note_on_c, 2, 59, 66
8, 93840, Note_on_c, 2, 61, 45
8, 93840, Note_on_c, 2, 56, 42
8, 94070, Note_off_c, 2, 56, 64
8, 94070, Note_off_c, 2, 61, 64
8, 94070, Note_off_c, 2, 59, 64
8, 94076, Note_off_c, 2, 65, 64
8, 94080, Note_on_c, 2, 45, 62
8, 94238, Note_off_c, 2, 45, 64
8, 94240, Note_on_c, 2, 71, 65
8, 94320, Note_off_c, 2, 71, 64
8, 94320, Note_on_c, 2, 76, 85
8, 94320, Note_on_c, 2, 61, 67
8, 94320, Note_on_c, 2, 52, 55
8, 94320, Note_on_c, 2, 59, 56
8, 94400, Note_off_c, 2, 59, 64
8, 94400, Note_off_c, 2, 52, 64
8, 94400, Note_off_c, 2, 61, 64
8, 94400, Note_off_c, 2, 76, 64
8, 94400, Note_on_c, 2, 73, 50
8, 94480, Note_on_c, 2, 71, 54
8, 94546, Note_off_c, 2, 73, 64
8, 94560, Note_off_c, 2, 71, 64
8, 94560, Note_on_c, 2, 76, 74
8, 94560, Note_on_c, 2, 40, 85
8, 94640, Note_off_c, 2, 40, 64
8, 94640, Note_off_c, 2, 76, 64
8, 94640, Note_on_c, 2, 73, 48
8, 94720, Note_on_c, 2, 71, 57
8, 94780, Note_off_c, 2, 73, 64
8, 94800, Note_off_c, 2, 71, 64
8, 94800, Note_on_c, 2, 76, 65
8, 94800, Note_on_c, 2, 52, 54
8, 94800, Note_on_c, 2, 61, 59
8, 94800, Note_on_c, 2, 59, 50
8, 94880, Note_off_c, 2, 59, 64
8, 94880, Note_off_c, 2, 61, 64
8, 94880, Note_off_c, 2, 52, 64
8, 94880, Note_off_c, 2, 76, 64
8, 94880, Note_on_c, 2, 73, 56
8, 94960, Note_on_c, 2, 71, 75
8, 95026, Note_off_c, 2, 73, 64
8, 95040, Note_off_c, 2, 71, 64
8, 95040, Note_on_c, 2, 76, 84
8, 95040, Note_on_c, 2, 45, 72
8, 95176, Note_off_c, 2, 45, 64
8, 95280, Note_on_c, 2, 40, 74
8, 95442, Note_off_c, 2, 76, 64
8, 95520, Note_on_c, 2, 45, 68
8, 95520, Note_on_c, 2, 83, 82
8, 95520, Note_on_c, 2, 76, 73
8, 95520, Note_on_c, 2, 73, 65
8, 95584, Note_off_c, 2, 40, 64
8, 95844, Note_off_c, 2, 73, 64
8, 95844, Note_off_c, 2, 76, 64
8, 95844, Note_off_c, 2, 83, 64
8, 95844, Note_off_c, 2, 45, 64
8, 96000, Control_c, 2, 64, 0
8, 96000, End_track
9, 0, Start_track
9, 0, Title_t, "Melody / Leya's Doo, doo's"
9, 0, Program_c, 3, 53
9, 0, Control_c, 3, 7, 90
9, 0, Control_c, 3, 121, 0
9, 0, Control_c, 3, 10, 64
9, 0, Control_c, 3, 123, 0
9, 0, Control_c, 3, 91, 40
9, 0, Control_c, 3, 93, 0
9, 1928, Note_on_c, 3, 67, 100
9, 1952, Note_on_c, 3, 68, 105
9, 1956, Note_off_c, 3, 67, 64
9, 2298, Note_off_c, 3, 68, 64
9, 2332, Note_on_c, 3, 68, 105
9, 3066, Note_on_c, 3, 67, 110
9, 3082, Note_off_c, 3, 68, 64
9, 3210, Note_off_c, 3, 67, 64
9, 3218, Note_on_c, 3, 68, 110
9, 3368, Note_on_c, 3, 67, 116
9, 3380, Note_off_c, 3, 68, 64
9, 3692, Note_on_c, 3, 63, 117
9, 3708, Note_off_c, 3, 67, 64
9, 3778, Note_on_c, 3, 64, 105
9, 3798, Note_off_c, 3, 63, 64
9, 3870, Note_off_c, 3, 64, 64
9, 3882, Note_on_c, 3, 66, 109
9, 4134, Note_off_c, 3, 66, 64
9, 4168, Note_on_c, 3, 66, 120
9, 4314, Note_off_c, 3, 66, 64
9, 4324, Note_on_c, 3, 61, 110
9, 5706, Note_off_c, 3, 61, 64
9, 5762, Note_on_c, 3, 65, 123
9, 5808, Note_on_c, 3, 66, 109
9, 5816, Note_off_c, 3, 65, 64
9, 6122, Note_off_c, 3, 66, 64
9, 6164, Note_on_c, 3, 66, 116
9, 6896, Note_on_c, 3, 65, 126
9, 6898, Note_off_c, 3, 66, 64
9, 7046, Note_off_c, 3, 65, 64
9, 7050, Note_on_c, 3, 66, 111
9, 7204, Note_on_c, 3, 65, 121
9, 7234, Note_off_c, 3, 66, 64
9, 7376, Note_on_c, 3, 61, 119
9, 7380, Note_off_c, 3, 65, 64
9, 7526, Note_on_c, 3, 62, 125
9, 7540, Note_off_c, 3, 61, 64
9, 7696, Note_on_c, 3, 64, 113
9, 7708, Note_off_c, 3, 62, 64
9, 9472, Note_off_c, 3, 64, 64
9, 9608, Note_on_c, 3, 60, 126
9, 10002, Note_off_c, 3, 60, 64
9, 10006, Note_on_c, 3, 62, 115
9, 10896, Note_on_c, 3, 60, 117
9, 10904, Note_off_c, 3, 62, 64
9, 11046, Note_on_c, 3, 62, 118
9, 11050, Note_off_c, 3, 60, 64
9, 11216, Note_on_c, 3, 60, 112
9, 11234, Note_off_c, 3, 62, 64
9, 11366, Note_on_c, 3, 62, 110
9, 11378, Note_off_c, 3, 60, 64
9, 11526, Note_on_c, 3, 64, 114
9, 11532, Note_off_c, 3, 62, 64
9, 11806, Note_off_c, 3, 64, 64
9, 11844, Note_on_c, 3, 64, 118
9, 11996, Note_on_c, 3, 59, 107
9, 12004, Note_off_c, 3, 64, 64
9, 12956, Note_off_c, 3, 59, 64
9, 12978, Note_on_c, 3, 60, 120
9, 13150, Note_on_c, 3, 64, 110
9, 13164, Note_off_c, 3, 60, 64
9, 13294, Note_on_c, 3, 67, 126
9, 13322, Note_off_c, 3, 64, 64
9, 13428, Note_off_c, 3, 67, 64
9, 13450, Note_on_c, 3, 72, 127
9, 13716, Note_off_c, 3, 72, 64
9, 13748, Note_on_c, 3, 72, 124
9, 13922, Note_off_c, 3, 72, 64
9, 13926, Note_on_c, 3, 65, 124
9, 14892, Note_on_c, 3, 66, 116
9, 14898, Note_off_c, 3, 65, 64
9, 15320, Note_off_c, 3, 66, 64
9, 15324, Note_on_c, 3, 69, 99
9, 15338, Note_on_c, 3, 70, 101
9, 15370, Note_on_c, 3, 71, 117
9, 15380, Note_off_c, 3, 69, 64
9, 15384, Note_off_c, 3, 70, 64
9, 16558, Note_off_c, 3, 71, 64
9, 16574, Note_on_c, 3, 73, 116
9, 16816, Note_off_c, 3, 73, 64
9, 16816, Note_on_c, 3, 69, 116
9, 17096, Note_off_c, 3, 69, 64
9, 17114, Note_on_c, 3, 71, 117
9, 17300, Note_on_c, 3, 68, 114
9, 17320, Note_off_c, 3, 71, 64
9, 17642, Note_off_c, 3, 68, 64
9, 17672, Note_on_c, 3, 68, 105
9, 18424, Note_on_c, 3, 67, 127
9, 18442, Note_off_c, 3, 68, 64
9, 18582, Note_on_c, 3, 68, 114
9, 18584, Note_off_c, 3, 67, 64
9, 18742, Note_on_c, 3, 67, 120
9, 18762, Note_off_c, 3, 68, 64
9, 18914, Note_on_c, 3, 63, 117
9, 18924, Note_off_c, 3, 67, 64
9, 19060, Note_on_c, 3, 64, 107
9, 19080, Note_off_c, 3, 63, 64
9, 19206, Note_on_c, 3, 66, 105
9, 19212, Note_off_c, 3, 64, 64
9, 19496, Note_off_c, 3, 66, 64
9, 19530, Note_on_c, 3, 66, 108
9, 19682, Note_off_c, 3, 66, 64
9, 19682, Note_on_c, 3, 61, 116
9, 21080, Note_off_c, 3, 61, 64
9, 21124, Note_on_c, 3, 65, 116
9, 21158, Note_on_c, 3, 66, 106
9, 21176, Note_off_c, 3, 65, 64
9, 21514, Note_off_c, 3, 66, 64
9, 21536, Note_on_c, 3, 66, 92
9, 22250, Note_on_c, 3, 65, 127
9, 22264, Note_off_c, 3, 66, 64
9, 22382, Note_off_c, 3, 65, 64
9, 22398, Note_on_c, 3, 66, 110
9, 22564, Note_on_c, 3, 65, 117
9, 22584, Note_off_c, 3, 66, 64
9, 22744, Note_on_c, 3, 61, 117
9, 22748, Note_off_c, 3, 65, 64
9, 22906, Note_on_c, 3, 62, 123
9, 22924, Note_off_c, 3, 61, 64
9, 23066, Note_on_c, 3, 64, 112
9, 23072, Note_off_c, 3, 62, 64
9, 24782, Note_off_c, 3, 64, 64
9, 24966, Note_on_c, 3, 62, 121
9, 25358, Note_off_c, 3, 62, 64
9, 25364, Note_on_c, 3, 64, 111
9, 26164, Note_off_c, 3, 64, 64
9, 26246, Note_on_c, 3, 61, 127
9, 26388, Note_off_c, 3, 61, 64
9, 26396, Note_on_c, 3, 62, 117
9, 26576, Note_on_c, 3, 65, 121
9, 26598, Note_off_c, 3, 62, 64
9, 26728, Note_on_c, 3, 68, 123
9, 26738, Note_off_c, 3, 65, 64
9, 26884, Note_on_c, 3, 71, 127
9, 26890, Note_off_c, 3, 68, 64
9, 27200, Note_on_c, 3, 69, 112
9, 27210, Note_off_c, 3, 71, 64
9, 27374, Note_on_c, 3, 71, 120
9, 27390, Note_off_c, 3, 69, 64
9, 28482, Note_on_c, 3, 68, 120
9, 28484, Note_off_c, 3, 71, 64
9, 28634, Note_on_c, 3, 69, 117
9, 28660, Note_off_c, 3, 68, 64
9, 28788, Note_off_c, 3, 69, 64
9, 28798, Note_on_c, 3, 72, 127
9, 29170, Note_off_c, 3, 72, 64
9, 29202, Note_on_c, 3, 72, 127
9, 29834, Note_off_c, 3, 72, 64
9, 29916, Note_on_c, 3, 72, 94
9, 29930, Note_on_c, 3, 73, 119
9, 29942, Note_off_c, 3, 72, 64
9, 30088, Note_on_c, 3, 72, 126
9, 30108, Note_off_c, 3, 73, 64
9, 30258, Note_on_c, 3, 71, 115
9, 30260, Note_off_c, 3, 72, 64
9, 30420, Note_off_c, 3, 71, 64
9, 30420, Note_on_c, 3, 66, 98
9, 30566, Note_on_c, 3, 68, 120
9, 30570, Note_off_c, 3, 66, 64
9, 30716, Note_off_c, 3, 68, 64
9, 30728, Note_on_c, 3, 69, 118
9, 31680, Note_off_c, 3, 69, 64
9, 63368, Note_on_c, 3, 67, 127
9, 63392, Note_on_c, 3, 68, 127
9, 63396, Note_off_c, 3, 67, 64
9, 63738, Note_off_c, 3, 68, 64
9, 63772, Note_on_c, 3, 68, 125
9, 64506, Note_on_c, 3, 67, 127
9, 64522, Note_off_c, 3, 68, 64
9, 64650, Note_off_c, 3, 67, 64
9, 64658, Note_on_c, 3, 68, 115
9, 64808, Note_on_c, 3, 67, 124
9, 64820, Note_off_c, 3, 68, 64
9, 65132, Note_on_c, 3, 63, 117
9, 65148, Note_off_c, 3, 67, 64
9, 65218, Note_on_c, 3, 64, 105
9, 65238, Note_off_c, 3, 63, 64
9, 65310, Note_off_c, 3, 64, 64
9, 65322, Note_on_c, 3, 66, 109
9, 65574, Note_off_c, 3, 66, 64
9, 65608, Note_on_c, 3, 66, 120
9, 65754, Note_off_c, 3, 66, 64
9, 65764, Note_on_c, 3, 61, 110
9, 67146, Note_off_c, 3, 61, 64
9, 67202, Note_on_c, 3, 65, 123
9, 67248, Note_on_c, 3, 66, 109
9, 67256, Note_off_c, 3, 65, 64
9, 67562, Note_off_c, 3, 66, 64
9, 67604, Note_on_c, 3, 66, 116
9, 68336, Note_on_c, 3, 65, 126
9, 68338, Note_off_c, 3, 66, 64
9, 68486, Note_off_c, 3, 65, 64
9, 68490, Note_on_c, 3, 66, 111
9, 68644, Note_on_c, 3, 65, 121
9, 68674, Note_off_c, 3, 66, 64
9, 68816, Note_on_c, 3, 61, 119
9, 68820, Note_off_c, 3, 65, 64
9, 68966, Note_on_c, 3, 62, 125
9, 68980, Note_off_c, 3, 61, 64
9, 69136, Note_on_c, 3, 64, 113
9, 69148, Note_off_c, 3, 62, 64
9, 70912, Note_off_c, 3, 64, 64
9, 71048, Note_on_c, 3, 60, 126
9, 71442, Note_off_c, 3, 60, 64
9, 71446, Note_on_c, 3, 62, 115
9, 72336, Note_on_c, 3, 60, 117
9, 72344, Note_off_c, 3, 62, 64
9, 72486, Note_on_c, 3, 62, 118
9, 72490, Note_off_c, 3, 60, 64
9, 72656, Note_on_c, 3, 60, 112
9, 72674, Note_off_c, 3, 62, 64
9, 72806, Note_on_c, 3, 62, 110
9, 72818, Note_off_c, 3, 60, 64
9, 72966, Note_on_c, 3, 64, 114
9, 72972, Note_off_c, 3, 62, 64
9, 73246, Note_off_c, 3, 64, 64
9, 73284, Note_on_c, 3, 64, 118
9, 73436, Note_on_c, 3, 59, 107
9, 73444, Note_off_c, 3, 64, 64
9, 74396, Note_off_c, 3, 59, 64
9, 74418, Note_on_c, 3, 60, 120
9, 74590, Note_on_c, 3, 64, 110
9, 74604, Note_off_c, 3, 60, 64
9, 74734, Note_on_c, 3, 67, 126
9, 74762, Note_off_c, 3, 64, 64
9, 74868, Note_off_c, 3, 67, 64
9, 74890, Note_on_c, 3, 72, 127
9, 75156, Note_off_c, 3, 72, 64
9, 75188, Note_on_c, 3, 72, 124
9, 75362, Note_off_c, 3, 72, 64
9, 75366, Note_on_c, 3, 65, 124
9, 76332, Note_on_c, 3, 66, 116
9, 76338, Note_off_c, 3, 65, 64
9, 76760, Note_off_c, 3, 66, 64
9, 76764, Note_on_c, 3, 69, 99
9, 76778, Note_on_c, 3, 70, 101
9, 76810, Note_on_c, 3, 71, 117
9, 76820, Note_off_c, 3, 69, 64
9, 76824, Note_off_c, 3, 70, 64
9, 77998, Note_off_c, 3, 71, 64
9, 78014, Note_on_c, 3, 73, 116
9, 78256, Note_off_c, 3, 73, 64
9, 78256, Note_on_c, 3, 69, 116
9, 78536, Note_off_c, 3, 69, 64
9, 78554, Note_on_c, 3, 71, 117
9, 78740, Note_on_c, 3, 68, 114
9, 78760, Note_off_c, 3, 71, 64
9, 79082, Note_off_c, 3, 68, 64
9, 79112, Note_on_c, 3, 68, 105
9, 79864, Note_on_c, 3, 67, 127
9, 79882, Note_off_c, 3, 68, 64
9, 80022, Note_on_c, 3, 68, 114
9, 80024, Note_off_c, 3, 67, 64
9, 80182, Note_on_c, 3, 67, 120
9, 80202, Note_off_c, 3, 68, 64
9, 80354, Note_on_c, 3, 63, 117
9, 80364, Note_off_c, 3, 67, 64
9, 80500, Note_on_c, 3, 64, 107
9, 80520, Note_off_c, 3, 63, 64
9, 80646, Note_on_c, 3, 66, 105
9, 80652, Note_off_c, 3, 64, 64
9, 80936, Note_off_c, 3, 66, 64
9, 80970, Note_on_c, 3, 66, 108
9, 81122, Note_off_c, 3, 66, 64
9, 81122, Note_on_c, 3, 61, 116
9, 82520, Note_off_c, 3, 61, 64
9, 82564, Note_on_c, 3, 65, 116
9, 82598, Note_on_c, 3, 66, 106
9, 82616, Note_off_c, 3, 65, 64
9, 82954, Note_off_c, 3, 66, 64
9, 82976, Note_on_c, 3, 66, 92
9, 83690, Note_on_c, 3, 65, 127
9, 83704, Note_off_c, 3, 66, 64
9, 83822, Note_off_c, 3, 65, 64
9, 83838, Note_on_c, 3, 66, 110
9, 84004, Note_on_c, 3, 65, 117
9, 84024, Note_off_c, 3, 66, 64
9, 84184, Note_on_c, 3, 61, 117
9, 84188, Note_off_c, 3, 65, 64
9, 84346, Note_on_c, 3, 62, 123
9, 84364, Note_off_c, 3, 61, 64
9, 84506, Note_on_c, 3, 64, 112
9, 84512, Note_off_c, 3, 62, 64
9, 86222, Note_off_c, 3, 64, 64
9, 86406, Note_on_c, 3, 62, 121
9, 86798, Note_off_c, 3, 62, 64
9, 86804, Note_on_c, 3, 64, 111
9, 87604, Note_off_c, 3, 64, 64
9, 87686, Note_on_c, 3, 61, 127
9, 87828, Note_off_c, 3, 61, 64
9, 87836, Note_on_c, 3, 62, 117
9, 88016, Note_on_c, 3, 65, 121
9, 88038, Note_off_c, 3, 62, 64
9, 88168, Note_on_c, 3, 68, 123
9, 88178, Note_off_c, 3, 65, 64
9, 88324, Note_on_c, 3, 71, 127
9, 88330, Note_off_c, 3, 68, 64
9, 88640, Note_on_c, 3, 69, 112
9, 88650, Note_off_c, 3, 71, 64
9, 88814, Note_on_c, 3, 71, 120
9, 88830, Note_off_c, 3, 69, 64
9, 89922, Note_on_c, 3, 68, 120
9, 89924, Note_off_c, 3, 71, 64
9, 90074, Note_on_c, 3, 69, 117
9, 90100, Note_off_c, 3, 68, 64
9, 90228, Note_off_c, 3, 69, 64
9, 90238, Note_on_c, 3, 72, 127
9, 90610, Note_off_c, 3, 72, 64
9, 90642, Note_on_c, 3, 72, 127
9, 91274, Note_off_c, 3, 72, 64
9, 91356, Note_on_c, 3, 72, 94
9, 91370, Note_on_c, 3, 73, 119
9, 91382, Note_off_c, 3, 72, 64
9, 91528, Note_on_c, 3, 72, 126
9, 91548, Note_off_c, 3, 73, 64
9, 91698, Note_on_c, 3, 71, 115
9, 91700, Note_off_c, 3, 72, 64
9, 91860, Note_off_c, 3, 71, 64
9, 91860, Note_on_c, 3, 66, 98
9, 92006, Note_on_c, 3, 68, 120
9, 92010, Note_off_c, 3, 66, 64
9, 92156, Note_off_c, 3, 68, 64
9, 92168, Note_on_c, 3, 69, 118
9, 93294, Note_off_c, 3, 69, 64
9, 93440, Note_on_c, 3, 73, 117
9, 93568, Note_off_c, 3, 73, 64
9, 93606, Note_on_c, 3, 69, 118
9, 93894, Note_off_c, 3, 69, 64
9, 93910, Note_on_c, 3, 71, 123
9, 94072, Note_off_c, 3, 71, 64
9, 94094, Note_on_c, 3, 68, 112
9, 94218, Note_off_c, 3, 68, 64
9, 94254, Note_on_c, 3, 68, 114
9, 94728, Note_on_c, 3, 66, 97
9, 94768, Note_off_c, 3, 68, 64
9, 94868, Note_on_c, 3, 64, 91
9, 94888, Note_off_c, 3, 66, 64
9, 94960, Note_on_c, 3, 61, 101
9, 94980, Note_off_c, 3, 64, 64
9, 95058, Note_on_c, 3, 56, 98
9, 95080, Note_off_c, 3, 61, 64
9, 95410, Note_on_c, 3, 68, 30
9, 95411, Note_off_c, 3, 68, 64
9, 96002, Note_off_c, 3, 56, 64
9, 96002, End_track
10, 0, Start_track
10, 0, Title_t, "Melody /  Mute Trumpet "
10, 0, Program_c, 4, 59
10, 0, Control_c, 4, 7, 95
10, 0, Control_c, 4, 121, 0
10, 0, Control_c, 4, 10, 64
10, 0, Control_c, 4, 123, 0
10, 0, Control_c, 4, 91, 40
10, 0, Control_c, 4, 93, 0
10, 31680, Note_on_c, 4, 69, 118
10, 31854, Note_off_c, 4, 69, 64
10, 32000, Note_on_c, 4, 73, 117
10, 32128, Note_off_c, 4, 73, 64
10, 32166, Note_on_c, 4, 69, 118
10, 32454, Note_off_c, 4, 69, 64
10, 32470, Note_on_c, 4, 71, 123
10, 32632, Note_off_c, 4, 71, 64
10, 32648, Note_on_c, 4, 67, 127
10, 32672, Note_on_c, 4, 68, 127
10, 32676, Note_off_c, 4, 67, 64
10, 33018, Note_off_c, 4, 68, 64
10, 33052, Note_on_c, 4, 68, 125
10, 33786, Note_on_c, 4, 67, 127
10, 33802, Note_off_c, 4, 68, 64
10, 33930, Note_off_c, 4, 67, 64
10, 33938, Note_on_c, 4, 68, 115
10, 34088, Note_on_c, 4, 67, 124
10, 34100, Note_off_c, 4, 68, 64
10, 34412, Note_on_c, 4, 63, 117
10, 34428, Note_off_c, 4, 67, 64
10, 34498, Note_on_c, 4, 64, 105
10, 34518, Note_off_c, 4, 63, 64
10, 34590, Note_off_c, 4, 64, 64
10, 34602, Note_on_c, 4, 66, 109
10, 34854, Note_off_c, 4, 66, 64
10, 34888, Note_on_c, 4, 66, 120
10, 35034, Note_off_c, 4, 66, 64
10, 35044, Note_on_c, 4, 61, 110
10, 36426, Note_off_c, 4, 61, 64
10, 36482, Note_on_c, 4, 65, 123
10, 36528, Note_on_c, 4, 66, 109
10, 36536, Note_off_c, 4, 65, 64
10, 36842, Note_off_c, 4, 66, 64
10, 36884, Note_on_c, 4, 66, 116
10, 37616, Note_on_c, 4, 65, 126
10, 37618, Note_off_c, 4, 66, 64
10, 37766, Note_off_c, 4, 65, 64
10, 37770, Note_on_c, 4, 66, 111
10, 37924, Note_on_c, 4, 65, 121
10, 37954, Note_off_c, 4, 66, 64
10, 38096, Note_on_c, 4, 61, 119
10, 38100, Note_off_c, 4, 65, 64
10, 38246, Note_on_c, 4, 62, 125
10, 38260, Note_off_c, 4, 61, 64
10, 38416, Note_on_c, 4, 64, 113
10, 38428, Note_off_c, 4, 62, 64
10, 40192, Note_off_c, 4, 64, 64
10, 40328, Note_on_c, 4, 60, 126
10, 40722, Note_off_c, 4, 60, 64
10, 40726, Note_on_c, 4, 62, 115
10, 41616, Note_on_c, 4, 60, 117
10, 41624, Note_off_c, 4, 62, 64
10, 41766, Note_on_c, 4, 62, 118
10, 41770, Note_off_c, 4, 60, 64
10, 41936, Note_on_c, 4, 60, 112
10, 41954, Note_off_c, 4, 62, 64
10, 42086, Note_on_c, 4, 62, 110
10, 42098, Note_off_c, 4, 60, 64
10, 42246, Note_on_c, 4, 64, 114
10, 42252, Note_off_c, 4, 62, 64
10, 42526, Note_off_c, 4, 64, 64
10, 42564, Note_on_c, 4, 64, 118
10, 42716, Note_on_c, 4, 59, 107
10, 42724, Note_off_c, 4, 64, 64
10, 43676, Note_off_c, 4, 59, 64
10, 43698, Note_on_c, 4, 60, 120
10, 43870, Note_on_c, 4, 64, 110
10, 43884, Note_off_c, 4, 60, 64
10, 44014, Note_on_c, 4, 67, 126
10, 44042, Note_off_c, 4, 64, 64
10, 44148, Note_off_c, 4, 67, 64
10, 44170, Note_on_c, 4, 72, 127
10, 44436, Note_off_c, 4, 72, 64
10, 44468, Note_on_c, 4, 72, 124
10, 44642, Note_off_c, 4, 72, 64
10, 44646, Note_on_c, 4, 65, 124
10, 45612, Note_on_c, 4, 66, 116
10, 45618, Note_off_c, 4, 65, 64
10, 46040, Note_off_c, 4, 66, 64
10, 46044, Note_on_c, 4, 69, 99
10, 46058, Note_on_c, 4, 70, 101
10, 46090, Note_on_c, 4, 71, 117
10, 46100, Note_off_c, 4, 69, 64
10, 46104, Note_off_c, 4, 70, 64
10, 47278, Note_off_c, 4, 71, 64
10, 47294, Note_on_c, 4, 73, 116
10, 47536, Note_off_c, 4, 73, 64
10, 47536, Note_on_c, 4, 69, 116
10, 47816, Note_off_c, 4, 69, 64
10, 47834, Note_on_c, 4, 71, 117
10, 48020, Note_on_c, 4, 68, 114
10, 48040, Note_off_c, 4, 71, 64
10, 48362, Note_off_c, 4, 68, 64
10, 48392, Note_on_c, 4, 68, 105
10, 49144, Note_on_c, 4, 67, 127
10, 49162, Note_off_c, 4, 68, 64
10, 49302, Note_on_c, 4, 68, 114
10, 49304, Note_off_c, 4, 67, 64
10, 49462, Note_on_c, 4, 67, 120
10, 49482, Note_off_c, 4, 68, 64
10, 49634, Note_on_c, 4, 63, 117
10, 49644, Note_off_c, 4, 67, 64
10, 49780, Note_on_c, 4, 64, 107
10, 49800, Note_off_c, 4, 63, 64
10, 49926, Note_on_c, 4, 66, 105
10, 49932, Note_off_c, 4, 64, 64
10, 50216, Note_off_c, 4, 66, 64
10, 50250, Note_on_c, 4, 66, 108
10, 50402, Note_off_c, 4, 66, 64
10, 50402, Note_on_c, 4, 61, 116
10, 51800, Note_off_c, 4, 61, 64
10, 51844, Note_on_c, 4, 65, 116
10, 51878, Note_on_c, 4, 66, 106
10, 51896, Note_off_c, 4, 65, 64
10, 52234, Note_off_c, 4, 66, 64
10, 52256, Note_on_c, 4, 66, 92
10, 52970, Note_on_c, 4, 65, 127
10, 52984, Note_off_c, 4, 66, 64
10, 53102, Note_off_c, 4, 65, 64
10, 53118, Note_on_c, 4, 66, 110
10, 53284, Note_on_c, 4, 65, 117
10, 53304, Note_off_c, 4, 66, 64
10, 53464, Note_on_c, 4, 61, 117
10, 53468, Note_off_c, 4, 65, 64
10, 53626, Note_on_c, 4, 62, 123
10, 53644, Note_off_c, 4, 61, 64
10, 53786, Note_on_c, 4, 64, 112
10, 53792, Note_off_c, 4, 62, 64
10, 55502, Note_off_c, 4, 64, 64
10, 55686, Note_on_c, 4, 62, 121
10, 56078, Note_off_c, 4, 62, 64
10, 56084, Note_on_c, 4, 64, 111
10, 56884, Note_off_c, 4, 64, 64
10, 56966, Note_on_c, 4, 61, 127
10, 57108, Note_off_c, 4, 61, 64
10, 57116, Note_on_c, 4, 62, 117
10, 57296, Note_on_c, 4, 65, 121
10, 57318, Note_off_c, 4, 62, 64
10, 57448, Note_on_c, 4, 68, 123
10, 57458, Note_off_c, 4, 65, 64
10, 57604, Note_on_c, 4, 71, 127
10, 57610, Note_off_c, 4, 68, 64
10, 57920, Note_on_c, 4, 69, 112
10, 57930, Note_off_c, 4, 71, 64
10, 58094, Note_on_c, 4, 71, 120
10, 58110, Note_off_c, 4, 69, 64
10, 59202, Note_on_c, 4, 68, 120
10, 59204, Note_off_c, 4, 71, 64
10, 59354, Note_on_c, 4, 69, 117
10, 59380, Note_off_c, 4, 68, 64
10, 59508, Note_off_c, 4, 69, 64
10, 59518, Note_on_c, 4, 72, 127
10, 59890, Note_off_c, 4, 72, 64
10, 59922, Note_on_c, 4, 72, 127
10, 60554, Note_off_c, 4, 72, 64
10, 60636, Note_on_c, 4, 72, 94
10, 60650, Note_on_c, 4, 73, 119
10, 60662, Note_off_c, 4, 72, 64
10, 60808, Note_on_c, 4, 72, 126
10, 60828, Note_off_c, 4, 73, 64
10, 60978, Note_on_c, 4, 71, 115
10, 60980, Note_off_c, 4, 72, 64
10, 61140, Note_off_c, 4, 71, 64
10, 61140, Note_on_c, 4, 66, 98
10, 61286, Note_on_c, 4, 68, 120
10, 61290, Note_off_c, 4, 66, 64
10, 61436, Note_off_c, 4, 68, 64
10, 61448, Note_on_c, 4, 69, 118
10, 62400, Note_off_c, 4, 69, 64
10, 62400, End_track
11, 0, Start_track
11, 0, Title_t, "Strings / Slow Strings "
11, 0, Program_c, 5, 49
11, 0, Control_c, 5, 7, 90
11, 0, Control_c, 5, 93, 50
11, 0, Control_c, 5, 91, 120
11, 0, Control_c, 5, 121, 0
11, 0, Control_c, 5, 10, 64
11, 0, Control_c, 5, 123, 0
11, 0, Control_c, 5, 64, 0
11, 17280, Note_on_c, 5, 69, 48
11, 17280, Note_on_c, 5, 64, 36
11, 17280, Note_on_c, 5, 73, 37
11, 18240, Note_off_c, 5, 73, 64
11, 18240, Note_off_c, 5, 64, 64
11, 18240, Note_off_c, 5, 69, 64
11, 18240, Note_on_c, 5, 69, 48
11, 18240, Note_on_c, 5, 64, 36
11, 18240, Note_on_c, 5, 73, 37
11, 18720, Note_off_c, 5, 73, 64
11, 18720, Note_off_c, 5, 64, 64
11, 18720, Note_off_c, 5, 69, 64
11, 18720, Note_on_c, 5, 69, 48
11, 18720, Note_on_c, 5, 63, 36
11, 18720, Note_on_c, 5, 72, 37
11, 19200, Note_off_c, 5, 72, 64
11, 19200, Note_off_c, 5, 63, 64
11, 19200, Note_off_c, 5, 69, 64
11, 19200, Note_on_c, 5, 68, 48
11, 19200, Note_on_c, 5, 63, 36
11, 19200, Note_on_c, 5, 71, 37
11, 19680, Note_off_c, 5, 71, 64
11, 19680, Note_off_c, 5, 63, 64
11, 19680, Note_off_c, 5, 68, 64
11, 19680, Note_on_c, 5, 67, 48
11, 19680, Note_on_c, 5, 61, 36
11, 19680, Note_on_c, 5, 71, 37
11, 20160, Note_off_c, 5, 71, 64
11, 20160, Note_off_c, 5, 61, 64
11, 20160, Note_off_c, 5, 67, 64
11, 20160, Note_on_c, 5, 68, 48
11, 20160, Note_on_c, 5, 63, 36
11, 20160, Note_on_c, 5, 71, 37
11, 21120, Note_off_c, 5, 71, 64
11, 21120, Note_off_c, 5, 63, 64
11, 21120, Note_off_c, 5, 68, 64
11, 21120, Note_on_c, 5, 67, 48
11, 21120, Note_on_c, 5, 62, 36
11, 21120, Note_on_c, 5, 71, 37
11, 22080, Note_off_c, 5, 71, 64
11, 22080, Note_off_c, 5, 62, 64
11, 22080, Note_off_c, 5, 67, 64
11, 22080, Note_on_c, 5, 67, 48
11, 22080, Note_on_c, 5, 62, 36
11, 22080, Note_on_c, 5, 71, 37
11, 22560, Note_off_c, 5, 71, 64
11, 22560, Note_off_c, 5, 62, 64
11, 22560, Note_off_c, 5, 67, 64
11, 22560, Note_on_c, 5, 67, 48
11, 22560, Note_on_c, 5, 61, 36
11, 22560, Note_on_c, 5, 70, 37
11, 23040, Note_off_c, 5, 70, 64
11, 23040, Note_off_c, 5, 61, 64
11, 23040, Note_off_c, 5, 67, 64
11, 23040, Note_on_c, 5, 66, 36
11, 23040, Note_on_c, 5, 76, 37
11, 23040, Note_on_c, 5, 73, 48
11, 24956, Note_off_c, 5, 73, 64
11, 24960, Note_off_c, 5, 76, 64
11, 24960, Note_off_c, 5, 66, 64
11, 32640, Note_on_c, 5, 69, 48
11, 32640, Note_on_c, 5, 64, 36
11, 32640, Note_on_c, 5, 73, 37
11, 33600, Note_off_c, 5, 73, 64
11, 33600, Note_off_c, 5, 64, 64
11, 33600, Note_off_c, 5, 69, 64
11, 33600, Note_on_c, 5, 69, 48
11, 33600, Note_on_c, 5, 64, 36
11, 33600, Note_on_c, 5, 73, 37
11, 34080, Note_off_c, 5, 73, 64
11, 34080, Note_off_c, 5, 64, 64
11, 34080, Note_off_c, 5, 69, 64
11, 34080, Note_on_c, 5, 69, 48
11, 34080, Note_on_c, 5, 63, 36
11, 34080, Note_on_c, 5, 72, 37
11, 34560, Note_off_c, 5, 72, 64
11, 34560, Note_off_c, 5, 63, 64
11, 34560, Note_off_c, 5, 69, 64
11, 34560, Note_on_c, 5, 68, 48
11, 34560, Note_on_c, 5, 63, 36
11, 34560, Note_on_c, 5, 71, 37
11, 35040, Note_off_c, 5, 71, 64
11, 35040, Note_off_c, 5, 63, 64
11, 35040, Note_off_c, 5, 68, 64
11, 35040, Note_on_c, 5, 67, 48
11, 35040, Note_on_c, 5, 61, 36
11, 35040, Note_on_c, 5, 71, 37
11, 35520, Note_off_c, 5, 71, 64
11, 35520, Note_off_c, 5, 61, 64
11, 35520, Note_off_c, 5, 67, 64
11, 35520, Note_on_c, 5, 68, 48
11, 35520, Note_on_c, 5, 63, 36
11, 35520, Note_on_c, 5, 71, 37
11, 36480, Note_off_c, 5, 71, 64
11, 36480, Note_off_c, 5, 63, 64
11, 36480, Note_off_c, 5, 68, 64
11, 36480, Note_on_c, 5, 67, 48
11, 36480, Note_on_c, 5, 62, 36
11, 36480, Note_on_c, 5, 71, 37
11, 37440, Note_off_c, 5, 71, 64
11, 37440, Note_off_c, 5, 62, 64
11, 37440, Note_off_c, 5, 67, 64
11, 37440, Note_on_c, 5, 67, 48
11, 37440, Note_on_c, 5, 62, 36
11, 37440, Note_on_c, 5, 71, 37
11, 37920, Note_off_c, 5, 71, 64
11, 37920, Note_off_c, 5, 62, 64
11, 37920, Note_off_c, 5, 67, 64
11, 37920, Note_on_c, 5, 67, 48
11, 37920, Note_on_c, 5, 61, 36
11, 37920, Note_on_c, 5, 70, 37
11, 38400, Note_off_c, 5, 70, 64
11, 38400, Note_off_c, 5, 61, 64
11, 38400, Note_off_c, 5, 67, 64
11, 38400, Note_on_c, 5, 66, 36
11, 38400, Note_on_c, 5, 76, 37
11, 38400, Note_on_c, 5, 73, 48
11, 40316, Note_off_c, 5, 73, 64
11, 40320, Note_off_c, 5, 76, 64
11, 40320, Note_off_c, 5, 66, 64
11, 40320, Note_on_c, 5, 72, 48
11, 40320, Note_on_c, 5, 65, 36
11, 40320, Note_on_c, 5, 74, 37
11, 41280, Note_off_c, 5, 74, 64
11, 41280, Note_off_c, 5, 65, 64
11, 41280, Note_off_c, 5, 72, 64
11, 41280, Note_on_c, 5, 71, 48
11, 41280, Note_on_c, 5, 65, 36
11, 41280, Note_on_c, 5, 74, 37
11, 42240, Note_off_c, 5, 74, 64
11, 42240, Note_off_c, 5, 65, 64
11, 42240, Note_off_c, 5, 71, 64
11, 42240, Note_on_c, 5, 71, 48
11, 42240, Note_on_c, 5, 64, 36
11, 42240, Note_on_c, 5, 74, 37
11, 43200, Note_off_c, 5, 74, 64
11, 43200, Note_off_c, 5, 64, 64
11, 43200, Note_off_c, 5, 71, 64
11, 43200, Note_on_c, 5, 67, 48
11, 43200, Note_on_c, 5, 60, 36
11, 43200, Note_on_c, 5, 69, 37
11, 43680, Note_off_c, 5, 69, 64
11, 43680, Note_off_c, 5, 60, 64
11, 43680, Note_off_c, 5, 67, 64
11, 43680, Note_on_c, 5, 67, 48
11, 43680, Note_on_c, 5, 60, 36
11, 43680, Note_on_c, 5, 69, 37
11, 44160, Note_off_c, 5, 69, 64
11, 44160, Note_off_c, 5, 60, 64
11, 44160, Note_off_c, 5, 67, 64
11, 44160, Note_on_c, 5, 69, 48
11, 44160, Note_on_c, 5, 64, 36
11, 44160, Note_on_c, 5, 72, 37
11, 44640, Note_off_c, 5, 72, 64
11, 44640, Note_off_c, 5, 64, 64
11, 44640, Note_off_c, 5, 69, 64
11, 44640, Note_on_c, 5, 69, 48
11, 44640, Note_on_c, 5, 63, 36
11, 44640, Note_on_c, 5, 71, 37
11, 45120, Note_off_c, 5, 71, 64
11, 45120, Note_off_c, 5, 63, 64
11, 45120, Note_off_c, 5, 69, 64
11, 45120, Note_on_c, 5, 69, 48
11, 45120, Note_on_c, 5, 63, 36
11, 45120, Note_on_c, 5, 71, 37
11, 45600, Note_off_c, 5, 71, 64
11, 45600, Note_off_c, 5, 63, 64
11, 45600, Note_off_c, 5, 69, 64
11, 45600, Note_on_c, 5, 69, 48
11, 45600, Note_on_c, 5, 63, 36
11, 45600, Note_on_c, 5, 73, 37
11, 46080, Note_off_c, 5, 73, 64
11, 46080, Note_off_c, 5, 63, 64
11, 46080, Note_off_c, 5, 69, 64
11, 46080, Note_on_c, 5, 71, 48
11, 46080, Note_on_c, 5, 66, 36
11, 46080, Note_on_c, 5, 75, 37
11, 46560, Note_off_c, 5, 75, 64
11, 46560, Note_off_c, 5, 66, 64
11, 46560, Note_off_c, 5, 71, 64
11, 46560, Note_on_c, 5, 68, 48
11, 46560, Note_on_c, 5, 61, 36
11, 46560, Note_on_c, 5, 71, 37
11, 47040, Note_off_c, 5, 71, 64
11, 47040, Note_off_c, 5, 61, 64
11, 47040, Note_off_c, 5, 68, 64
11, 47040, Note_on_c, 5, 71, 48
11, 47040, Note_on_c, 5, 66, 36
11, 47040, Note_on_c, 5, 74, 37
11, 47520, Note_off_c, 5, 74, 64
11, 47520, Note_off_c, 5, 66, 64
11, 47520, Note_off_c, 5, 71, 64
11, 47520, Note_on_c, 5, 71, 48
11, 47520, Note_on_c, 5, 65, 36
11, 47520, Note_on_c, 5, 73, 37
11, 48000, Note_off_c, 5, 73, 64
11, 48000, Note_off_c, 5, 65, 64
11, 48000, Note_off_c, 5, 71, 64
11, 48000, Note_on_c, 5, 69, 48
11, 48000, Note_on_c, 5, 64, 36
11, 48000, Note_on_c, 5, 73, 37
11, 48960, Note_off_c, 5, 73, 64
11, 48960, Note_off_c, 5, 64, 64
11, 48960, Note_off_c, 5, 69, 64
11, 48960, Note_on_c, 5, 69, 48
11, 48960, Note_on_c, 5, 64, 36
11, 48960, Note_on_c, 5, 73, 37
11, 49440, Note_off_c, 5, 73, 64
11, 49440, Note_off_c, 5, 64, 64
11, 49440, Note_off_c, 5, 69, 64
11, 49440, Note_on_c, 5, 69, 48
11, 49440, Note_on_c, 5, 63, 36
11, 49440, Note_on_c, 5, 72, 37
11, 49920, Note_off_c, 5, 72, 64
11, 49920, Note_off_c, 5, 63, 64
11, 49920, Note_off_c, 5, 69, 64
11, 49920, Note_on_c, 5, 68, 48
11, 49920, Note_on_c, 5, 63, 36
11, 49920, Note_on_c, 5, 71, 37
11, 50400, Note_off_c, 5, 71, 64
11, 50400, Note_off_c, 5, 63, 64
11, 50400, Note_off_c, 5, 68, 64
11, 50400, Note_on_c, 5, 67, 48
11, 50400, Note_on_c, 5, 61, 36
11, 50400, Note_on_c, 5, 71, 37
11, 50880, Note_off_c, 5, 71, 64
11, 50880, Note_off_c, 5, 61, 64
11, 50880, Note_off_c, 5, 67, 64
11, 50880, Note_on_c, 5, 68, 48
11, 50880, Note_on_c, 5, 63, 36
11, 50880, Note_on_c, 5, 71, 37
11, 51840, Note_off_c, 5, 71, 64
11, 51840, Note_off_c, 5, 63, 64
11, 51840, Note_off_c, 5, 68, 64
11, 51840, Note_on_c, 5, 67, 48
11, 51840, Note_on_c, 5, 62, 36
11, 51840, Note_on_c, 5, 71, 37
11, 52800, Note_off_c, 5, 71, 64
11, 52800, Note_off_c, 5, 62, 64
11, 52800, Note_off_c, 5, 67, 64
11, 52800, Note_on_c, 5, 67, 48
11, 52800, Note_on_c, 5, 62, 36
11, 52800, Note_on_c, 5, 71, 37
11, 53280, Note_off_c, 5, 71, 64
11, 53280, Note_off_c, 5, 62, 64
11, 53280, Note_off_c, 5, 67, 64
11, 53280, Note_on_c, 5, 67, 48
11, 53280, Note_on_c, 5, 61, 36
11, 53280, Note_on_c, 5, 70, 37
11, 53760, Note_off_c, 5, 70, 64
11, 53760, Note_off_c, 5, 61, 64
11, 53760, Note_off_c, 5, 67, 64
11, 53760, Note_on_c, 5, 66, 36
11, 53760, Note_on_c, 5, 76, 37
11, 53760, Note_on_c, 5, 73, 48
11, 55676, Note_off_c, 5, 73, 64
11, 55680, Note_off_c, 5, 76, 64
11, 55680, Note_off_c, 5, 66, 64
11, 55680, Note_on_c, 5, 72, 48
11, 55680, Note_on_c, 5, 65, 36
11, 55680, Note_on_c, 5, 74, 37
11, 56160, Note_off_c, 5, 74, 64
11, 56160, Note_off_c, 5, 65, 64
11, 56160, Note_off_c, 5, 72, 64
11, 56160, Note_on_c, 5, 72, 48
11, 56160, Note_on_c, 5, 65, 36
11, 56160, Note_on_c, 5, 74, 37
11, 56640, Note_off_c, 5, 74, 64
11, 56640, Note_off_c, 5, 65, 64
11, 56640, Note_off_c, 5, 72, 64
11, 56640, Note_on_c, 5, 69, 48
11, 56640, Note_on_c, 5, 62, 36
11, 56640, Note_on_c, 5, 71, 37
11, 57120, Note_off_c, 5, 71, 64
11, 57120, Note_off_c, 5, 62, 64
11, 57120, Note_off_c, 5, 69, 64
11, 57120, Note_on_c, 5, 71, 48
11, 57120, Note_on_c, 5, 66, 36
11, 57120, Note_on_c, 5, 74, 37
11, 57360, Note_off_c, 5, 74, 64
11, 57360, Note_off_c, 5, 66, 64
11, 57360, Note_off_c, 5, 71, 64
11, 57360, Note_on_c, 5, 71, 48
11, 57360, Note_on_c, 5, 65, 36
11, 57360, Note_on_c, 5, 73, 37
11, 57600, Note_off_c, 5, 73, 64
11, 57600, Note_off_c, 5, 65, 64
11, 57600, Note_off_c, 5, 71, 64
11, 57600, Note_on_c, 5, 69, 48
11, 57600, Note_on_c, 5, 64, 36
11, 57600, Note_on_c, 5, 73, 37
11, 58560, Note_off_c, 5, 73, 64
11, 58560, Note_off_c, 5, 64, 64
11, 58560, Note_off_c, 5, 69, 64
11, 58560, Note_on_c, 5, 69, 48
11, 58560, Note_on_c, 5, 63, 36
11, 58560, Note_on_c, 5, 73, 37
11, 59520, Note_off_c, 5, 73, 64
11, 59520, Note_off_c, 5, 63, 64
11, 59520, Note_off_c, 5, 69, 64
11, 59520, Note_on_c, 5, 70, 48
11, 59520, Note_on_c, 5, 63, 36
11, 59520, Note_on_c, 5, 72, 37
11, 60000, Note_off_c, 5, 72, 64
11, 60000, Note_off_c, 5, 63, 64
11, 60000, Note_off_c, 5, 70, 64
11, 60000, Note_on_c, 5, 69, 48
11, 60000, Note_on_c, 5, 63, 36
11, 60000, Note_on_c, 5, 72, 37
11, 60480, Note_off_c, 5, 72, 64
11, 60480, Note_off_c, 5, 63, 64
11, 60480, Note_off_c, 5, 69, 64
11, 60480, Note_on_c, 5, 69, 48
11, 60480, Note_on_c, 5, 62, 36
11, 60480, Note_on_c, 5, 71, 37
11, 60960, Note_off_c, 5, 71, 64
11, 60960, Note_off_c, 5, 62, 64
11, 60960, Note_off_c, 5, 69, 64
11, 60960, Note_on_c, 5, 68, 48
11, 60960, Note_on_c, 5, 62, 36
11, 60960, Note_on_c, 5, 71, 37
11, 61440, Note_off_c, 5, 71, 64
11, 61440, Note_off_c, 5, 62, 64
11, 61440, Note_off_c, 5, 68, 64
11, 61440, Note_on_c, 5, 66, 48
11, 61440, Note_on_c, 5, 61, 36
11, 61440, Note_on_c, 5, 69, 37
11, 61920, Note_off_c, 5, 69, 64
11, 61920, Note_off_c, 5, 61, 64
11, 61920, Note_off_c, 5, 66, 64
11, 61920, Note_on_c, 5, 72, 48
11, 61920, Note_on_c, 5, 66, 36
11, 61920, Note_on_c, 5, 76, 37
11, 62400, Note_off_c, 5, 76, 64
11, 62400, Note_off_c, 5, 66, 64
11, 62400, Note_off_c, 5, 72, 64
11, 62400, Note_on_c, 5, 71, 48
11, 62400, Note_on_c, 5, 66, 36
11, 62400, Note_on_c, 5, 74, 37
11, 62880, Note_off_c, 5, 74, 64
11, 62880, Note_off_c, 5, 66, 64
11, 62880, Note_off_c, 5, 71, 64
11, 62880, Note_on_c, 5, 71, 48
11, 62880, Note_on_c, 5, 65, 36
11, 62880, Note_on_c, 5, 73, 37
11, 63360, Note_off_c, 5, 73, 64
11, 63360, Note_off_c, 5, 65, 64
11, 63360, Note_off_c, 5, 71, 64
11, 78720, Note_on_c, 5, 69, 48
11, 78720, Note_on_c, 5, 64, 36
11, 78720, Note_on_c, 5, 73, 37
11, 79680, Note_off_c, 5, 73, 64
11, 79680, Note_off_c, 5, 64, 64
11, 79680, Note_off_c, 5, 69, 64
11, 79680, Note_on_c, 5, 69, 48
11, 79680, Note_on_c, 5, 64, 36
11, 79680, Note_on_c, 5, 73, 37
11, 80160, Note_off_c, 5, 73, 64
11, 80160, Note_off_c, 5, 64, 64
11, 80160, Note_off_c, 5, 69, 64
11, 80160, Note_on_c, 5, 69, 48
11, 80160, Note_on_c, 5, 63, 36
11, 80160, Note_on_c, 5, 72, 37
11, 80640, Note_off_c, 5, 72, 64
11, 80640, Note_off_c, 5, 63, 64
11, 80640, Note_off_c, 5, 69, 64
11, 80640, Note_on_c, 5, 68, 48
11, 80640, Note_on_c, 5, 63, 36
11, 80640, Note_on_c, 5, 71, 37
11, 81120, Note_off_c, 5, 71, 64
11, 81120, Note_off_c, 5, 63, 64
11, 81120, Note_off_c, 5, 68, 64
11, 81120, Note_on_c, 5, 67, 48
11, 81120, Note_on_c, 5, 61, 36
11, 81120, Note_on_c, 5, 71, 37
11, 81600, Note_off_c, 5, 71, 64
11, 81600, Note_off_c, 5, 61, 64
11, 81600, Note_off_c, 5, 67, 64
11, 81600, Note_on_c, 5, 68, 48
11, 81600, Note_on_c, 5, 63, 36
11, 81600, Note_on_c, 5, 71, 37
11, 82560, Note_off_c, 5, 71, 64
11, 82560, Note_off_c, 5, 63, 64
11, 82560, Note_off_c, 5, 68, 64
11, 82560, Note_on_c, 5, 67, 48
11, 82560, Note_on_c, 5, 62, 36
11, 82560, Note_on_c, 5, 71, 37
11, 83520, Note_off_c, 5, 71, 64
11, 83520, Note_off_c, 5, 62, 64
11, 83520, Note_off_c, 5, 67, 64
11, 83520, Note_on_c, 5, 67, 48
11, 83520, Note_on_c, 5, 62, 36
11, 83520, Note_on_c, 5, 71, 37
11, 84000, Note_off_c, 5, 71, 64
11, 84000, Note_off_c, 5, 62, 64
11, 84000, Note_off_c, 5, 67, 64
11, 84000, Note_on_c, 5, 67, 48
11, 84000, Note_on_c, 5, 61, 36
11, 84000, Note_on_c, 5, 70, 37
11, 84480, Note_off_c, 5, 70, 64
11, 84480, Note_off_c, 5, 61, 64
11, 84480, Note_off_c, 5, 67, 64
11, 84480, Note_on_c, 5, 66, 36
11, 84480, Note_on_c, 5, 76, 37
11, 84480, Note_on_c, 5, 73, 48
11, 86396, Note_off_c, 5, 73, 64
11, 86400, Note_off_c, 5, 76, 64
11, 86400, Note_off_c, 5, 66, 64
11, 94080, Note_on_c, 5, 83, 40
11, 94080, Note_on_c, 5, 73, 31
11, 95780, Note_off_c, 5, 73, 64
11, 95784, Note_off_c, 5, 83, 64
11, 96000, Control_c, 5, 64, 0
11, 96000, End_track
12, 0, Start_track
12, 0, Title_t, "Strings / Harp         "
12, 0, Program_c, 6, 46
12, 0, Control_c, 6, 7, 80
12, 0, Control_c, 6, 121, 0
12, 0, Control_c, 6, 10, 64
12, 0, Control_c, 6, 123, 0
12, 0, Control_c, 6, 91, 40
12, 0, Control_c, 6, 93, 0
12, 0, Control_c, 6, 64, 0
12, 3120, Note_on_c, 6, 57, 66
12, 3120, Note_on_c, 6, 64, 66
12, 3150, Note_off_c, 6, 57, 64
12, 3156, Note_off_c, 6, 64, 64
12, 3600, Note_on_c, 6, 63, 66
12, 3600, Note_on_c, 6, 69, 66
12, 3630, Note_off_c, 6, 63, 64
12, 3636, Note_off_c, 6, 69, 64
12, 4080, Note_on_c, 6, 63, 66
12, 4080, Note_on_c, 6, 68, 66
12, 4110, Note_off_c, 6, 63, 64
12, 4116, Note_off_c, 6, 68, 64
12, 4560, Note_on_c, 6, 61, 66
12, 4560, Note_on_c, 6, 67, 66
12, 4590, Note_off_c, 6, 61, 64
12, 4596, Note_off_c, 6, 67, 64
12, 5040, Note_on_c, 6, 68, 75
12, 5040, Note_on_c, 6, 59, 61
12, 5072, Note_off_c, 6, 59, 64
12, 5072, Note_off_c, 6, 68, 64
12, 5520, Note_on_c, 6, 59, 60
12, 5520, Note_on_c, 6, 68, 66
12, 5558, Note_off_c, 6, 68, 64
12, 5558, Note_off_c, 6, 59, 64
12, 6000, Note_on_c, 6, 59, 60
12, 6000, Note_on_c, 6, 67, 81
12, 6028, Note_off_c, 6, 67, 64
12, 6032, Note_off_c, 6, 59, 64
12, 6480, Note_on_c, 6, 67, 76
12, 6480, Note_on_c, 6, 59, 52
12, 6504, Note_off_c, 6, 59, 64
12, 6508, Note_off_c, 6, 67, 64
12, 6960, Note_on_c, 6, 62, 66
12, 6960, Note_on_c, 6, 67, 66
12, 6990, Note_off_c, 6, 62, 64
12, 6996, Note_off_c, 6, 67, 64
12, 7440, Note_on_c, 6, 61, 66
12, 7440, Note_on_c, 6, 67, 66
12, 7470, Note_off_c, 6, 61, 64
12, 7476, Note_off_c, 6, 67, 64
12, 7920, Note_on_c, 6, 61, 66
12, 7920, Note_on_c, 6, 66, 66
12, 7950, Note_off_c, 6, 61, 64
12, 7956, Note_off_c, 6, 66, 64
12, 8400, Note_on_c, 6, 61, 66
12, 8400, Note_on_c, 6, 66, 66
12, 8430, Note_off_c, 6, 61, 64
12, 8432, Note_off_c, 6, 66, 64
12, 8880, Note_on_c, 6, 61, 66
12, 8880, Note_on_c, 6, 66, 65
12, 8910, Note_off_c, 6, 66, 64
12, 8910, Note_off_c, 6, 61, 64
12, 9360, Note_on_c, 6, 66, 65
12, 9360, Note_on_c, 6, 61, 66
12, 9388, Note_off_c, 6, 61, 64
12, 9394, Note_off_c, 6, 66, 64
12, 9840, Note_on_c, 6, 60, 66
12, 9840, Note_on_c, 6, 65, 66
12, 9870, Note_off_c, 6, 60, 64
12, 9876, Note_off_c, 6, 65, 64
12, 10320, Note_on_c, 6, 60, 66
12, 10320, Note_on_c, 6, 65, 66
12, 10350, Note_off_c, 6, 60, 64
12, 10352, Note_off_c, 6, 65, 64
12, 10800, Note_on_c, 6, 59, 66
12, 10800, Note_on_c, 6, 65, 66
12, 10830, Note_off_c, 6, 59, 64
12, 10836, Note_off_c, 6, 65, 64
12, 11280, Note_on_c, 6, 59, 66
12, 11280, Note_on_c, 6, 65, 66
12, 11310, Note_off_c, 6, 59, 64
12, 11312, Note_off_c, 6, 65, 64
12, 11760, Note_on_c, 6, 64, 75
12, 11760, Note_on_c, 6, 55, 61
12, 11792, Note_off_c, 6, 55, 64
12, 11792, Note_off_c, 6, 64, 64
12, 12240, Note_on_c, 6, 55, 60
12, 12240, Note_on_c, 6, 64, 66
12, 12278, Note_off_c, 6, 64, 64
12, 12278, Note_off_c, 6, 55, 64
12, 12720, Note_on_c, 6, 60, 66
12, 12720, Note_on_c, 6, 67, 66
12, 12750, Note_off_c, 6, 60, 64
12, 12756, Note_off_c, 6, 67, 64
12, 13200, Note_on_c, 6, 64, 60
12, 13200, Note_on_c, 6, 72, 81
12, 13228, Note_off_c, 6, 72, 64
12, 13232, Note_off_c, 6, 64, 64
12, 13680, Note_on_c, 6, 57, 66
12, 13680, Note_on_c, 6, 64, 66
12, 13710, Note_off_c, 6, 57, 64
12, 13716, Note_off_c, 6, 64, 64
12, 14160, Note_on_c, 6, 63, 66
12, 14160, Note_on_c, 6, 69, 66
12, 14190, Note_off_c, 6, 63, 64
12, 14196, Note_off_c, 6, 69, 64
12, 14640, Note_on_c, 6, 63, 66
12, 14640, Note_on_c, 6, 69, 66
12, 14670, Note_off_c, 6, 63, 64
12, 14676, Note_off_c, 6, 69, 64
12, 15120, Note_on_c, 6, 63, 66
12, 15120, Note_on_c, 6, 69, 66
12, 15150, Note_off_c, 6, 63, 64
12, 15156, Note_off_c, 6, 69, 64
12, 15600, Note_on_c, 6, 63, 60
12, 15600, Note_on_c, 6, 71, 81
12, 15628, Note_off_c, 6, 71, 64
12, 15632, Note_off_c, 6, 63, 64
12, 16080, Note_on_c, 6, 61, 66
12, 16080, Note_on_c, 6, 68, 66
12, 16110, Note_off_c, 6, 61, 64
12, 16116, Note_off_c, 6, 68, 64
12, 16560, Note_on_c, 6, 59, 66
12, 16560, Note_on_c, 6, 66, 66
12, 16590, Note_off_c, 6, 59, 64
12, 16596, Note_off_c, 6, 66, 64
12, 17040, Note_on_c, 6, 59, 66
12, 17040, Note_on_c, 6, 65, 66
12, 17070, Note_off_c, 6, 59, 64
12, 17076, Note_off_c, 6, 65, 64
12, 17520, Note_on_c, 6, 69, 86
12, 17520, Note_on_c, 6, 61, 47
12, 17554, Note_off_c, 6, 61, 64
12, 17554, Note_off_c, 6, 69, 64
12, 17680, Note_on_c, 6, 69, 80
12, 17680, Note_on_c, 6, 61, 60
12, 17712, Note_off_c, 6, 69, 64
12, 17718, Note_off_c, 6, 61, 64
12, 18000, Note_on_c, 6, 69, 85
12, 18000, Note_on_c, 6, 61, 65
12, 18036, Note_off_c, 6, 61, 64
12, 18036, Note_off_c, 6, 69, 64
12, 18480, Note_on_c, 6, 64, 63
12, 18480, Note_on_c, 6, 57, 76
12, 18546, Note_off_c, 6, 57, 64
12, 18552, Note_off_c, 6, 64, 64
12, 18640, Note_on_c, 6, 57, 81
12, 18640, Note_on_c, 6, 64, 61
12, 18682, Note_off_c, 6, 57, 64
12, 18684, Note_off_c, 6, 64, 64
12, 18960, Note_on_c, 6, 63, 64
12, 18960, Note_on_c, 6, 57, 76
12, 19016, Note_off_c, 6, 57, 64
12, 19032, Note_off_c, 6, 63, 64
12, 19440, Note_on_c, 6, 63, 63
12, 19440, Note_on_c, 6, 56, 76
12, 19506, Note_off_c, 6, 56, 64
12, 19512, Note_off_c, 6, 63, 64
12, 19600, Note_on_c, 6, 56, 81
12, 19600, Note_on_c, 6, 63, 61
12, 19642, Note_off_c, 6, 56, 64
12, 19644, Note_off_c, 6, 63, 64
12, 19920, Note_on_c, 6, 61, 64
12, 19920, Note_on_c, 6, 55, 76
12, 19976, Note_off_c, 6, 55, 64
12, 19992, Note_off_c, 6, 61, 64
12, 20400, Note_on_c, 6, 68, 85
12, 20400, Note_on_c, 6, 59, 65
12, 20432, Note_off_c, 6, 59, 64
12, 20436, Note_off_c, 6, 68, 64
12, 20560, Note_on_c, 6, 68, 83
12, 20560, Note_on_c, 6, 59, 60
12, 20592, Note_off_c, 6, 59, 64
12, 20592, Note_off_c, 6, 68, 64
12, 20880, Note_on_c, 6, 59, 66
12, 20880, Note_on_c, 6, 68, 84
12, 20910, Note_off_c, 6, 59, 64
12, 20912, Note_off_c, 6, 68, 64
12, 21360, Note_on_c, 6, 67, 86
12, 21360, Note_on_c, 6, 59, 47
12, 21394, Note_off_c, 6, 59, 64
12, 21394, Note_off_c, 6, 67, 64
12, 21520, Note_on_c, 6, 67, 80
12, 21520, Note_on_c, 6, 59, 60
12, 21552, Note_off_c, 6, 67, 64
12, 21558, Note_off_c, 6, 59, 64
12, 21840, Note_on_c, 6, 67, 85
12, 21840, Note_on_c, 6, 59, 65
12, 21876, Note_off_c, 6, 59, 64
12, 21876, Note_off_c, 6, 67, 64
12, 22320, Note_on_c, 6, 62, 63
12, 22320, Note_on_c, 6, 55, 76
12, 22386, Note_off_c, 6, 55, 64
12, 22392, Note_off_c, 6, 62, 64
12, 22480, Note_on_c, 6, 55, 81
12, 22480, Note_on_c, 6, 62, 61
12, 22522, Note_off_c, 6, 55, 64
12, 22524, Note_off_c, 6, 62, 64
12, 22800, Note_on_c, 6, 61, 64
12, 22800, Note_on_c, 6, 55, 76
12, 22856, Note_off_c, 6, 55, 64
12, 22872, Note_off_c, 6, 61, 64
12, 23280, Note_on_c, 6, 61, 71
12, 23280, Note_on_c, 6, 66, 71
12, 23312, Note_off_c, 6, 61, 64
12, 23314, Note_off_c, 6, 66, 64
12, 23440, Note_on_c, 6, 61, 71
12, 23440, Note_on_c, 6, 66, 71
12, 23474, Note_off_c, 6, 61, 64
12, 23480, Note_off_c, 6, 66, 64
12, 23760, Note_on_c, 6, 61, 71
12, 23760, Note_on_c, 6, 66, 70
12, 23792, Note_off_c, 6, 66, 64
12, 23792, Note_off_c, 6, 61, 64
12, 24240, Note_on_c, 6, 61, 71
12, 24240, Note_on_c, 6, 66, 71
12, 24270, Note_off_c, 6, 61, 64
12, 24280, Note_off_c, 6, 66, 64
12, 24400, Note_on_c, 6, 61, 71
12, 24400, Note_on_c, 6, 66, 70
12, 24430, Note_off_c, 6, 61, 64
12, 24432, Note_off_c, 6, 66, 64
12, 24720, Note_on_c, 6, 61, 71
12, 24720, Note_on_c, 6, 66, 71
12, 24752, Note_off_c, 6, 61, 64
12, 24760, Note_off_c, 6, 66, 64
12, 25200, Note_on_c, 6, 60, 66
12, 25200, Note_on_c, 6, 65, 66
12, 25230, Note_off_c, 6, 60, 64
12, 25236, Note_off_c, 6, 65, 64
12, 25680, Note_on_c, 6, 60, 66
12, 25680, Note_on_c, 6, 65, 66
12, 25710, Note_off_c, 6, 60, 64
12, 25716, Note_off_c, 6, 65, 64
12, 26160, Note_on_c, 6, 62, 66
12, 26160, Note_on_c, 6, 69, 66
12, 26190, Note_off_c, 6, 62, 64
12, 26196, Note_off_c, 6, 69, 64
12, 27120, Note_on_c, 6, 57, 66
12, 27120, Note_on_c, 6, 64, 66
12, 27150, Note_off_c, 6, 57, 64
12, 27156, Note_off_c, 6, 64, 64
12, 27600, Note_on_c, 6, 57, 66
12, 27600, Note_on_c, 6, 64, 66
12, 27630, Note_off_c, 6, 57, 64
12, 27632, Note_off_c, 6, 64, 64
12, 28080, Note_on_c, 6, 63, 66
12, 28080, Note_on_c, 6, 69, 66
12, 28110, Note_off_c, 6, 63, 64
12, 28116, Note_off_c, 6, 69, 64
12, 28560, Note_on_c, 6, 63, 66
12, 28560, Note_on_c, 6, 69, 66
12, 28590, Note_off_c, 6, 63, 64
12, 28592, Note_off_c, 6, 69, 64
12, 29040, Note_on_c, 6, 58, 66
12, 29040, Note_on_c, 6, 63, 66
12, 29070, Note_off_c, 6, 58, 64
12, 29076, Note_off_c, 6, 63, 64
12, 29520, Note_on_c, 6, 63, 66
12, 29520, Note_on_c, 6, 69, 66
12, 29550, Note_off_c, 6, 63, 64
12, 29556, Note_off_c, 6, 69, 64
12, 30000, Note_on_c, 6, 62, 66
12, 30000, Note_on_c, 6, 69, 66
12, 30030, Note_off_c, 6, 62, 64
12, 30036, Note_off_c, 6, 69, 64
12, 30480, Note_on_c, 6, 62, 66
12, 30480, Note_on_c, 6, 68, 66
12, 30510, Note_off_c, 6, 62, 64
12, 30516, Note_off_c, 6, 68, 64
12, 30960, Note_on_c, 6, 61, 66
12, 30960, Note_on_c, 6, 66, 66
12, 30990, Note_off_c, 6, 61, 64
12, 30996, Note_off_c, 6, 66, 64
12, 31440, Note_on_c, 6, 60, 66
12, 31440, Note_on_c, 6, 66, 66
12, 31470, Note_off_c, 6, 60, 64
12, 31476, Note_off_c, 6, 66, 64
12, 31920, Note_on_c, 6, 59, 66
12, 31920, Note_on_c, 6, 66, 66
12, 31950, Note_off_c, 6, 59, 64
12, 31956, Note_off_c, 6, 66, 64
12, 32400, Note_on_c, 6, 59, 66
12, 32400, Note_on_c, 6, 65, 66
12, 32430, Note_off_c, 6, 59, 64
12, 32436, Note_off_c, 6, 65, 64
12, 32880, Note_on_c, 6, 57, 71
12, 32880, Note_on_c, 6, 64, 71
12, 32912, Note_off_c, 6, 57, 64
12, 32914, Note_off_c, 6, 64, 64
12, 33040, Note_on_c, 6, 57, 71
12, 33040, Note_on_c, 6, 64, 71
12, 33074, Note_off_c, 6, 57, 64
12, 33080, Note_off_c, 6, 64, 64
12, 33360, Note_on_c, 6, 57, 71
12, 33360, Note_on_c, 6, 64, 70
12, 33392, Note_off_c, 6, 64, 64
12, 33392, Note_off_c, 6, 57, 64
12, 33840, Note_on_c, 6, 64, 63
12, 33840, Note_on_c, 6, 57, 76
12, 33906, Note_off_c, 6, 57, 64
12, 33912, Note_off_c, 6, 64, 64
12, 34000, Note_on_c, 6, 57, 81
12, 34000, Note_on_c, 6, 64, 61
12, 34042, Note_off_c, 6, 57, 64
12, 34044, Note_off_c, 6, 64, 64
12, 34320, Note_on_c, 6, 63, 64
12, 34320, Note_on_c, 6, 57, 76
12, 34376, Note_off_c, 6, 57, 64
12, 34392, Note_off_c, 6, 63, 64
12, 34800, Note_on_c, 6, 63, 63
12, 34800, Note_on_c, 6, 56, 76
12, 34866, Note_off_c, 6, 56, 64
12, 34872, Note_off_c, 6, 63, 64
12, 34960, Note_on_c, 6, 56, 81
12, 34960, Note_on_c, 6, 63, 61
12, 35002, Note_off_c, 6, 56, 64
12, 35004, Note_off_c, 6, 63, 64
12, 35280, Note_on_c, 6, 61, 64
12, 35280, Note_on_c, 6, 55, 76
12, 35336, Note_off_c, 6, 55, 64
12, 35352, Note_off_c, 6, 61, 64
12, 35760, Note_on_c, 6, 63, 71
12, 35760, Note_on_c, 6, 68, 71
12, 35792, Note_off_c, 6, 63, 64
12, 35794, Note_off_c, 6, 68, 64
12, 35920, Note_on_c, 6, 63, 71
12, 35920, Note_on_c, 6, 68, 71
12, 35954, Note_off_c, 6, 63, 64
12, 35960, Note_off_c, 6, 68, 64
12, 36240, Note_on_c, 6, 63, 71
12, 36240, Note_on_c, 6, 68, 70
12, 36272, Note_off_c, 6, 68, 64
12, 36272, Note_off_c, 6, 63, 64
12, 36720, Note_on_c, 6, 67, 86
12, 36720, Note_on_c, 6, 59, 47
12, 36754, Note_off_c, 6, 59, 64
12, 36754, Note_off_c, 6, 67, 64
12, 36880, Note_on_c, 6, 67, 80
12, 36880, Note_on_c, 6, 59, 60
12, 36912, Note_off_c, 6, 67, 64
12, 36918, Note_off_c, 6, 59, 64
12, 37200, Note_on_c, 6, 67, 85
12, 37200, Note_on_c, 6, 59, 65
12, 37236, Note_off_c, 6, 59, 64
12, 37236, Note_off_c, 6, 67, 64
12, 37680, Note_on_c, 6, 62, 63
12, 37680, Note_on_c, 6, 55, 76
12, 37746, Note_off_c, 6, 55, 64
12, 37752, Note_off_c, 6, 62, 64
12, 37840, Note_on_c, 6, 55, 81
12, 37840, Note_on_c, 6, 62, 61
12, 37882, Note_off_c, 6, 55, 64
12, 37884, Note_off_c, 6, 62, 64
12, 38160, Note_on_c, 6, 61, 64
12, 38160, Note_on_c, 6, 55, 76
12, 38216, Note_off_c, 6, 55, 64
12, 38232, Note_off_c, 6, 61, 64
12, 38640, Note_on_c, 6, 61, 71
12, 38640, Note_on_c, 6, 66, 71
12, 38672, Note_off_c, 6, 61, 64
12, 38674, Note_off_c, 6, 66, 64
12, 38800, Note_on_c, 6, 61, 71
12, 38800, Note_on_c, 6, 66, 71
12, 38834, Note_off_c, 6, 61, 64
12, 38840, Note_off_c, 6, 66, 64
12, 39120, Note_on_c, 6, 61, 71
12, 39120, Note_on_c, 6, 66, 70
12, 39152, Note_off_c, 6, 66, 64
12, 39152, Note_off_c, 6, 61, 64
12, 39600, Note_on_c, 6, 61, 71
12, 39600, Note_on_c, 6, 66, 71
12, 39630, Note_off_c, 6, 61, 64
12, 39640, Note_off_c, 6, 66, 64
12, 39760, Note_on_c, 6, 61, 71
12, 39760, Note_on_c, 6, 66, 70
12, 39790, Note_off_c, 6, 61, 64
12, 39792, Note_off_c, 6, 66, 64
12, 40080, Note_on_c, 6, 61, 71
12, 40080, Note_on_c, 6, 66, 71
12, 40112, Note_off_c, 6, 61, 64
12, 40120, Note_off_c, 6, 66, 64
12, 40560, Note_on_c, 6, 60, 71
12, 40560, Note_on_c, 6, 65, 71
12, 40592, Note_off_c, 6, 60, 64
12, 40594, Note_off_c, 6, 65, 64
12, 40720, Note_on_c, 6, 60, 71
12, 40720, Note_on_c, 6, 65, 71
12, 40754, Note_off_c, 6, 60, 64
12, 40760, Note_off_c, 6, 65, 64
12, 41040, Note_on_c, 6, 60, 71
12, 41040, Note_on_c, 6, 65, 70
12, 41072, Note_off_c, 6, 65, 64
12, 41072, Note_off_c, 6, 60, 64
12, 41520, Note_on_c, 6, 59, 71
12, 41520, Note_on_c, 6, 65, 71
12, 41552, Note_off_c, 6, 59, 64
12, 41554, Note_off_c, 6, 65, 64
12, 41680, Note_on_c, 6, 59, 71
12, 41680, Note_on_c, 6, 65, 71
12, 41714, Note_off_c, 6, 59, 64
12, 41720, Note_off_c, 6, 65, 64
12, 42000, Note_on_c, 6, 59, 71
12, 42000, Note_on_c, 6, 65, 70
12, 42032, Note_off_c, 6, 65, 64
12, 42032, Note_off_c, 6, 59, 64
12, 42480, Note_on_c, 6, 59, 71
12, 42480, Note_on_c, 6, 64, 71
12, 42512, Note_off_c, 6, 59, 64
12, 42514, Note_off_c, 6, 64, 64
12, 42640, Note_on_c, 6, 59, 71
12, 42640, Note_on_c, 6, 64, 71
12, 42674, Note_off_c, 6, 59, 64
12, 42680, Note_off_c, 6, 64, 64
12, 42960, Note_on_c, 6, 59, 71
12, 42960, Note_on_c, 6, 64, 70
12, 42992, Note_off_c, 6, 64, 64
12, 42992, Note_off_c, 6, 59, 64
12, 43440, Note_on_c, 6, 60, 63
12, 43440, Note_on_c, 6, 55, 76
12, 43506, Note_off_c, 6, 55, 64
12, 43512, Note_off_c, 6, 60, 64
12, 43600, Note_on_c, 6, 55, 81
12, 43600, Note_on_c, 6, 60, 61
12, 43642, Note_off_c, 6, 55, 64
12, 43644, Note_off_c, 6, 60, 64
12, 43920, Note_on_c, 6, 60, 64
12, 43920, Note_on_c, 6, 55, 76
12, 43976, Note_off_c, 6, 55, 64
12, 43992, Note_off_c, 6, 60, 64
12, 44400, Note_on_c, 6, 64, 63
12, 44400, Note_on_c, 6, 57, 76
12, 44466, Note_off_c, 6, 57, 64
12, 44472, Note_off_c, 6, 64, 64
12, 44560, Note_on_c, 6, 57, 81
12, 44560, Note_on_c, 6, 64, 61
12, 44602, Note_off_c, 6, 57, 64
12, 44604, Note_off_c, 6, 64, 64
12, 44880, Note_on_c, 6, 63, 64
12, 44880, Note_on_c, 6, 57, 76
12, 44936, Note_off_c, 6, 57, 64
12, 44952, Note_off_c, 6, 63, 64
12, 45360, Note_on_c, 6, 63, 63
12, 45360, Note_on_c, 6, 57, 76
12, 45426, Note_off_c, 6, 57, 64
12, 45432, Note_off_c, 6, 63, 64
12, 45520, Note_on_c, 6, 57, 81
12, 45520, Note_on_c, 6, 63, 61
12, 45562, Note_off_c, 6, 57, 64
12, 45564, Note_off_c, 6, 63, 64
12, 45840, Note_on_c, 6, 63, 64
12, 45840, Note_on_c, 6, 57, 76
12, 45896, Note_off_c, 6, 57, 64
12, 45912, Note_off_c, 6, 63, 64
12, 46320, Note_on_c, 6, 66, 63
12, 46320, Note_on_c, 6, 59, 76
12, 46386, Note_off_c, 6, 59, 64
12, 46392, Note_off_c, 6, 66, 64
12, 46480, Note_on_c, 6, 59, 81
12, 46480, Note_on_c, 6, 66, 61
12, 46522, Note_off_c, 6, 59, 64
12, 46524, Note_off_c, 6, 66, 64
12, 46800, Note_on_c, 6, 61, 64
12, 46800, Note_on_c, 6, 56, 76
12, 46856, Note_off_c, 6, 56, 64
12, 46872, Note_off_c, 6, 61, 64
12, 47280, Note_on_c, 6, 66, 63
12, 47280, Note_on_c, 6, 59, 76
12, 47346, Note_off_c, 6, 59, 64
12, 47352, Note_off_c, 6, 66, 64
12, 47440, Note_on_c, 6, 59, 81
12, 47440, Note_on_c, 6, 66, 61
12, 47482, Note_off_c, 6, 59, 64
12, 47484, Note_off_c, 6, 66, 64
12, 47760, Note_on_c, 6, 65, 64
12, 47760, Note_on_c, 6, 59, 76
12, 47816, Note_off_c, 6, 59, 64
12, 47832, Note_off_c, 6, 65, 64
12, 48240, Note_on_c, 6, 57, 71
12, 48240, Note_on_c, 6, 64, 71
12, 48272, Note_off_c, 6, 57, 64
12, 48274, Note_off_c, 6, 64, 64
12, 48400, Note_on_c, 6, 57, 71
12, 48400, Note_on_c, 6, 64, 71
12, 48434, Note_off_c, 6, 57, 64
12, 48440, Note_off_c, 6, 64, 64
12, 48720, Note_on_c, 6, 57, 71
12, 48720, Note_on_c, 6, 64, 70
12, 48752, Note_off_c, 6, 64, 64
12, 48752, Note_off_c, 6, 57, 64
12, 49200, Note_on_c, 6, 64, 63
12, 49200, Note_on_c, 6, 57, 76
12, 49266, Note_off_c, 6, 57, 64
12, 49272, Note_off_c, 6, 64, 64
12, 49360, Note_on_c, 6, 57, 81
12, 49360, Note_on_c, 6, 64, 61
12, 49402, Note_off_c, 6, 57, 64
12, 49404, Note_off_c, 6, 64, 64
12, 49680, Note_on_c, 6, 63, 64
12, 49680, Note_on_c, 6, 57, 76
12, 49736, Note_off_c, 6, 57, 64
12, 49752, Note_off_c, 6, 63, 64
12, 50160, Note_on_c, 6, 63, 63
12, 50160, Note_on_c, 6, 56, 76
12, 50226, Note_off_c, 6, 56, 64
12, 50232, Note_off_c, 6, 63, 64
12, 50320, Note_on_c, 6, 56, 81
12, 50320, Note_on_c, 6, 63, 61
12, 50362, Note_off_c, 6, 56, 64
12, 50364, Note_off_c, 6, 63, 64
12, 50640, Note_on_c, 6, 61, 64
12, 50640, Note_on_c, 6, 55, 76
12, 50696, Note_off_c, 6, 55, 64
12, 50712, Note_off_c, 6, 61, 64
12, 51120, Note_on_c, 6, 68, 85
12, 51120, Note_on_c, 6, 59, 65
12, 51152, Note_off_c, 6, 59, 64
12, 51156, Note_off_c, 6, 68, 64
12, 51280, Note_on_c, 6, 68, 83
12, 51280, Note_on_c, 6, 59, 60
12, 51312, Note_off_c, 6, 59, 64
12, 51312, Note_off_c, 6, 68, 64
12, 51600, Note_on_c, 6, 59, 66
12, 51600, Note_on_c, 6, 68, 84
12, 51630, Note_off_c, 6, 59, 64
12, 51632, Note_off_c, 6, 68, 64
12, 52080, Note_on_c, 6, 67, 86
12, 52080, Note_on_c, 6, 59, 47
12, 52114, Note_off_c, 6, 59, 64
12, 52114, Note_off_c, 6, 67, 64
12, 52240, Note_on_c, 6, 67, 80
12, 52240, Note_on_c, 6, 59, 60
12, 52272, Note_off_c, 6, 67, 64
12, 52278, Note_off_c, 6, 59, 64
12, 52560, Note_on_c, 6, 67, 85
12, 52560, Note_on_c, 6, 59, 65
12, 52596, Note_off_c, 6, 59, 64
12, 52596, Note_off_c, 6, 67, 64
12, 53040, Note_on_c, 6, 62, 63
12, 53040, Note_on_c, 6, 55, 76
12, 53106, Note_off_c, 6, 55, 64
12, 53112, Note_off_c, 6, 62, 64
12, 53200, Note_on_c, 6, 55, 81
12, 53200, Note_on_c, 6, 62, 61
12, 53242, Note_off_c, 6, 55, 64
12, 53244, Note_off_c, 6, 62, 64
12, 53520, Note_on_c, 6, 61, 64
12, 53520, Note_on_c, 6, 55, 76
12, 53576, Note_off_c, 6, 55, 64
12, 53592, Note_off_c, 6, 61, 64
12, 54000, Note_on_c, 6, 66, 85
12, 54000, Note_on_c, 6, 57, 65
12, 54032, Note_off_c, 6, 57, 64
12, 54036, Note_off_c, 6, 66, 64
12, 54160, Note_on_c, 6, 66, 83
12, 54160, Note_on_c, 6, 57, 60
12, 54192, Note_off_c, 6, 57, 64
12, 54192, Note_off_c, 6, 66, 64
12, 54480, Note_on_c, 6, 57, 66
12, 54480, Note_on_c, 6, 66, 84
12, 54510, Note_off_c, 6, 57, 64
12, 54512, Note_off_c, 6, 66, 64
12, 54960, Note_on_c, 6, 66, 83
12, 54960, Note_on_c, 6, 57, 53
12, 54986, Note_off_c, 6, 57, 64
12, 54994, Note_off_c, 6, 66, 64
12, 55120, Note_on_c, 6, 66, 81
12, 55120, Note_on_c, 6, 57, 59
12, 55152, Note_off_c, 6, 57, 64
12, 55156, Note_off_c, 6, 66, 64
12, 55440, Note_on_c, 6, 66, 84
12, 55440, Note_on_c, 6, 57, 69
12, 55468, Note_off_c, 6, 66, 64
12, 55472, Note_off_c, 6, 57, 64
12, 55920, Note_on_c, 6, 65, 63
12, 55920, Note_on_c, 6, 60, 76
12, 55986, Note_off_c, 6, 60, 64
12, 55992, Note_off_c, 6, 65, 64
12, 56080, Note_on_c, 6, 60, 81
12, 56080, Note_on_c, 6, 65, 61
12, 56122, Note_off_c, 6, 60, 64
12, 56124, Note_off_c, 6, 65, 64
12, 56400, Note_on_c, 6, 65, 64
12, 56400, Note_on_c, 6, 60, 76
12, 56456, Note_off_c, 6, 60, 64
12, 56472, Note_off_c, 6, 65, 64
12, 56880, Note_on_c, 6, 62, 63
12, 56880, Note_on_c, 6, 57, 76
12, 56946, Note_off_c, 6, 57, 64
12, 56952, Note_off_c, 6, 62, 64
12, 57040, Note_on_c, 6, 57, 81
12, 57040, Note_on_c, 6, 62, 61
12, 57082, Note_off_c, 6, 57, 64
12, 57084, Note_off_c, 6, 62, 64
12, 57360, Note_on_c, 6, 65, 62
12, 57360, Note_on_c, 6, 59, 73
12, 57460, Note_off_c, 6, 59, 64
12, 57468, Note_off_c, 6, 65, 64
12, 57520, Note_on_c, 6, 65, 68
12, 57520, Note_on_c, 6, 59, 78
12, 57548, Note_off_c, 6, 59, 64
12, 57558, Note_off_c, 6, 65, 64
12, 57840, Note_on_c, 6, 57, 71
12, 57840, Note_on_c, 6, 64, 71
12, 57872, Note_off_c, 6, 57, 64
12, 57874, Note_off_c, 6, 64, 64
12, 58000, Note_on_c, 6, 57, 71
12, 58000, Note_on_c, 6, 64, 71
12, 58034, Note_off_c, 6, 57, 64
12, 58040, Note_off_c, 6, 64, 64
12, 58320, Note_on_c, 6, 57, 71
12, 58320, Note_on_c, 6, 64, 70
12, 58352, Note_off_c, 6, 64, 64
12, 58352, Note_off_c, 6, 57, 64
12, 58800, Note_on_c, 6, 63, 71
12, 58800, Note_on_c, 6, 69, 71
12, 58832, Note_off_c, 6, 63, 64
12, 58834, Note_off_c, 6, 69, 64
12, 58960, Note_on_c, 6, 63, 71
12, 58960, Note_on_c, 6, 69, 71
12, 58994, Note_off_c, 6, 63, 64
12, 59000, Note_off_c, 6, 69, 64
12, 59280, Note_on_c, 6, 63, 71
12, 59280, Note_on_c, 6, 69, 70
12, 59312, Note_off_c, 6, 69, 64
12, 59312, Note_off_c, 6, 63, 64
12, 59760, Note_on_c, 6, 63, 63
12, 59760, Note_on_c, 6, 58, 76
12, 59826, Note_off_c, 6, 58, 64
12, 59832, Note_off_c, 6, 63, 64
12, 59920, Note_on_c, 6, 58, 81
12, 59920, Note_on_c, 6, 63, 61
12, 59962, Note_off_c, 6, 58, 64
12, 59964, Note_off_c, 6, 63, 64
12, 60240, Note_on_c, 6, 63, 64
12, 60240, Note_on_c, 6, 57, 76
12, 60296, Note_off_c, 6, 57, 64
12, 60312, Note_off_c, 6, 63, 64
12, 60720, Note_on_c, 6, 62, 63
12, 60720, Note_on_c, 6, 57, 76
12, 60786, Note_off_c, 6, 57, 64
12, 60792, Note_off_c, 6, 62, 64
12, 60880, Note_on_c, 6, 57, 81
12, 60880, Note_on_c, 6, 62, 61
12, 60922, Note_off_c, 6, 57, 64
12, 60924, Note_off_c, 6, 62, 64
12, 61200, Note_on_c, 6, 62, 64
12, 61200, Note_on_c, 6, 56, 76
12, 61256, Note_off_c, 6, 56, 64
12, 61272, Note_off_c, 6, 62, 64
12, 61680, Note_on_c, 6, 61, 63
12, 61680, Note_on_c, 6, 54, 76
12, 61746, Note_off_c, 6, 54, 64
12, 61752, Note_off_c, 6, 61, 64
12, 61840, Note_on_c, 6, 54, 81
12, 61840, Note_on_c, 6, 61, 61
12, 61882, Note_off_c, 6, 54, 64
12, 61884, Note_off_c, 6, 61, 64
12, 62160, Note_on_c, 6, 66, 64
12, 62160, Note_on_c, 6, 60, 76
12, 62216, Note_off_c, 6, 60, 64
12, 62232, Note_off_c, 6, 66, 64
12, 62640, Note_on_c, 6, 66, 63
12, 62640, Note_on_c, 6, 59, 76
12, 62706, Note_off_c, 6, 59, 64
12, 62712, Note_off_c, 6, 66, 64
12, 62800, Note_on_c, 6, 59, 81
12, 62800, Note_on_c, 6, 66, 61
12, 62842, Note_off_c, 6, 59, 64
12, 62844, Note_off_c, 6, 66, 64
12, 63120, Note_on_c, 6, 65, 64
12, 63120, Note_on_c, 6, 59, 76
12, 63176, Note_off_c, 6, 59, 64
12, 63192, Note_off_c, 6, 65, 64
12, 63600, Note_on_c, 6, 61, 60
12, 63600, Note_on_c, 6, 69, 81
12, 63628, Note_off_c, 6, 69, 64
12, 63632, Note_off_c, 6, 61, 64
12, 64080, Note_on_c, 6, 69, 76
12, 64080, Note_on_c, 6, 61, 52
12, 64104, Note_off_c, 6, 61, 64
12, 64108, Note_off_c, 6, 69, 64
12, 64560, Note_on_c, 6, 57, 66
12, 64560, Note_on_c, 6, 64, 66
12, 64590, Note_off_c, 6, 57, 64
12, 64596, Note_off_c, 6, 64, 64
12, 65040, Note_on_c, 6, 63, 66
12, 65040, Note_on_c, 6, 69, 66
12, 65070, Note_off_c, 6, 63, 64
12, 65076, Note_off_c, 6, 69, 64
12, 65520, Note_on_c, 6, 63, 66
12, 65520, Note_on_c, 6, 68, 66
12, 65550, Note_off_c, 6, 63, 64
12, 65556, Note_off_c, 6, 68, 64
12, 66000, Note_on_c, 6, 61, 66
12, 66000, Note_on_c, 6, 67, 66
12, 66030, Note_off_c, 6, 61, 64
12, 66036, Note_off_c, 6, 67, 64
12, 66480, Note_on_c, 6, 68, 75
12, 66480, Note_on_c, 6, 59, 61
12, 66512, Note_off_c, 6, 59, 64
12, 66512, Note_off_c, 6, 68, 64
12, 66960, Note_on_c, 6, 59, 60
12, 66960, Note_on_c, 6, 68, 66
12, 66998, Note_off_c, 6, 68, 64
12, 66998, Note_off_c, 6, 59, 64
12, 67440, Note_on_c, 6, 62, 66
12, 67440, Note_on_c, 6, 67, 66
12, 67470, Note_off_c, 6, 62, 64
12, 67476, Note_off_c, 6, 67, 64
12, 67920, Note_on_c, 6, 62, 66
12, 67920, Note_on_c, 6, 67, 66
12, 67950, Note_off_c, 6, 62, 64
12, 67952, Note_off_c, 6, 67, 64
12, 68400, Note_on_c, 6, 62, 66
12, 68400, Note_on_c, 6, 67, 66
12, 68430, Note_off_c, 6, 62, 64
12, 68436, Note_off_c, 6, 67, 64
12, 68880, Note_on_c, 6, 61, 66
12, 68880, Note_on_c, 6, 67, 66
12, 68910, Note_off_c, 6, 61, 64
12, 68916, Note_off_c, 6, 67, 64
12, 69360, Note_on_c, 6, 66, 75
12, 69360, Note_on_c, 6, 57, 61
12, 69392, Note_off_c, 6, 57, 64
12, 69392, Note_off_c, 6, 66, 64
12, 69840, Note_on_c, 6, 57, 60
12, 69840, Note_on_c, 6, 66, 66
12, 69878, Note_off_c, 6, 66, 64
12, 69878, Note_off_c, 6, 57, 64
12, 70320, Note_on_c, 6, 66, 72
12, 70320, Note_on_c, 6, 57, 59
12, 70344, Note_off_c, 6, 57, 64
12, 70348, Note_off_c, 6, 66, 64
12, 70800, Note_on_c, 6, 57, 60
12, 70800, Note_on_c, 6, 66, 69
12, 70836, Note_off_c, 6, 66, 64
12, 70840, Note_off_c, 6, 57, 64
12, 71280, Note_on_c, 6, 60, 66
12, 71280, Note_on_c, 6, 65, 66
12, 71310, Note_off_c, 6, 60, 64
12, 71316, Note_off_c, 6, 65, 64
12, 71760, Note_on_c, 6, 60, 66
12, 71760, Note_on_c, 6, 65, 66
12, 71790, Note_off_c, 6, 60, 64
12, 71792, Note_off_c, 6, 65, 64
12, 72240, Note_on_c, 6, 59, 66
12, 72240, Note_on_c, 6, 65, 66
12, 72270, Note_off_c, 6, 59, 64
12, 72276, Note_off_c, 6, 65, 64
12, 72720, Note_on_c, 6, 59, 66
12, 72720, Note_on_c, 6, 65, 66
12, 72750, Note_off_c, 6, 59, 64
12, 72752, Note_off_c, 6, 65, 64
12, 73200, Note_on_c, 6, 64, 75
12, 73200, Note_on_c, 6, 55, 61
12, 73232, Note_off_c, 6, 55, 64
12, 73232, Note_off_c, 6, 64, 64
12, 73680, Note_on_c, 6, 55, 60
12, 73680, Note_on_c, 6, 64, 66
12, 73718, Note_off_c, 6, 64, 64
12, 73718, Note_off_c, 6, 55, 64
12, 74160, Note_on_c, 6, 64, 60
12, 74160, Note_on_c, 6, 72, 81
12, 74188, Note_off_c, 6, 72, 64
12, 74192, Note_off_c, 6, 64, 64
12, 74640, Note_on_c, 6, 60, 66
12, 74640, Note_on_c, 6, 67, 66
12, 74670, Note_off_c, 6, 60, 64
12, 74676, Note_off_c, 6, 67, 64
12, 75120, Note_on_c, 6, 57, 66
12, 75120, Note_on_c, 6, 64, 66
12, 75150, Note_off_c, 6, 57, 64
12, 75156, Note_off_c, 6, 64, 64
12, 75600, Note_on_c, 6, 63, 66
12, 75600, Note_on_c, 6, 69, 66
12, 75630, Note_off_c, 6, 63, 64
12, 75636, Note_off_c, 6, 69, 64
12, 76080, Note_on_c, 6, 63, 66
12, 76080, Note_on_c, 6, 69, 66
12, 76110, Note_off_c, 6, 63, 64
12, 76116, Note_off_c, 6, 69, 64
12, 76560, Note_on_c, 6, 63, 66
12, 76560, Note_on_c, 6, 69, 66
12, 76590, Note_off_c, 6, 63, 64
12, 76596, Note_off_c, 6, 69, 64
12, 77040, Note_on_c, 6, 63, 60
12, 77040, Note_on_c, 6, 71, 81
12, 77068, Note_off_c, 6, 71, 64
12, 77072, Note_off_c, 6, 63, 64
12, 77520, Note_on_c, 6, 61, 66
12, 77520, Note_on_c, 6, 68, 66
12, 77550, Note_off_c, 6, 61, 64
12, 77556, Note_off_c, 6, 68, 64
12, 78000, Note_on_c, 6, 59, 66
12, 78000, Note_on_c, 6, 66, 66
12, 78030, Note_off_c, 6, 59, 64
12, 78036, Note_off_c, 6, 66, 64
12, 78480, Note_on_c, 6, 59, 66
12, 78480, Note_on_c, 6, 65, 66
12, 78510, Note_off_c, 6, 59, 64
12, 78516, Note_off_c, 6, 65, 64
12, 78960, Note_on_c, 6, 69, 86
12, 78960, Note_on_c, 6, 61, 47
12, 78994, Note_off_c, 6, 61, 64
12, 78994, Note_off_c, 6, 69, 64
12, 79120, Note_on_c, 6, 69, 80
12, 79120, Note_on_c, 6, 61, 60
12, 79152, Note_off_c, 6, 69, 64
12, 79158, Note_off_c, 6, 61, 64
12, 79440, Note_on_c, 6, 69, 85
12, 79440, Note_on_c, 6, 61, 65
12, 79476, Note_off_c, 6, 61, 64
12, 79476, Note_off_c, 6, 69, 64
12, 79920, Note_on_c, 6, 64, 63
12, 79920, Note_on_c, 6, 57, 76
12, 79986, Note_off_c, 6, 57, 64
12, 79992, Note_off_c, 6, 64, 64
12, 80080, Note_on_c, 6, 57, 81
12, 80080, Note_on_c, 6, 64, 61
12, 80122, Note_off_c, 6, 57, 64
12, 80124, Note_off_c, 6, 64, 64
12, 80400, Note_on_c, 6, 63, 64
12, 80400, Note_on_c, 6, 57, 76
12, 80456, Note_off_c, 6, 57, 64
12, 80472, Note_off_c, 6, 63, 64
12, 80880, Note_on_c, 6, 63, 63
12, 80880, Note_on_c, 6, 56, 76
12, 80946, Note_off_c, 6, 56, 64
12, 80952, Note_off_c, 6, 63, 64
12, 81040, Note_on_c, 6, 56, 81
12, 81040, Note_on_c, 6, 63, 61
12, 81082, Note_off_c, 6, 56, 64
12, 81084, Note_off_c, 6, 63, 64
12, 81360, Note_on_c, 6, 61, 64
12, 81360, Note_on_c, 6, 55, 76
12, 81416, Note_off_c, 6, 55, 64
12, 81432, Note_off_c, 6, 61, 64
12, 81840, Note_on_c, 6, 68, 85
12, 81840, Note_on_c, 6, 59, 65
12, 81872, Note_off_c, 6, 59, 64
12, 81876, Note_off_c, 6, 68, 64
12, 82000, Note_on_c, 6, 68, 83
12, 82000, Note_on_c, 6, 59, 60
12, 82032, Note_off_c, 6, 59, 64
12, 82032, Note_off_c, 6, 68, 64
12, 82320, Note_on_c, 6, 59, 66
12, 82320, Note_on_c, 6, 68, 84
12, 82350, Note_off_c, 6, 59, 64
12, 82352, Note_off_c, 6, 68, 64
12, 82800, Note_on_c, 6, 67, 86
12, 82800, Note_on_c, 6, 59, 47
12, 82834, Note_off_c, 6, 59, 64
12, 82834, Note_off_c, 6, 67, 64
12, 82960, Note_on_c, 6, 67, 80
12, 82960, Note_on_c, 6, 59, 60
12, 82992, Note_off_c, 6, 67, 64
12, 82998, Note_off_c, 6, 59, 64
12, 83280, Note_on_c, 6, 67, 85
12, 83280, Note_on_c, 6, 59, 65
12, 83316, Note_off_c, 6, 59, 64
12, 83316, Note_off_c, 6, 67, 64
12, 83760, Note_on_c, 6, 62, 63
12, 83760, Note_on_c, 6, 55, 76
12, 83826, Note_off_c, 6, 55, 64
12, 83832, Note_off_c, 6, 62, 64
12, 83920, Note_on_c, 6, 55, 81
12, 83920, Note_on_c, 6, 62, 61
12, 83962, Note_off_c, 6, 55, 64
12, 83964, Note_off_c, 6, 62, 64
12, 84240, Note_on_c, 6, 61, 64
12, 84240, Note_on_c, 6, 55, 76
12, 84296, Note_off_c, 6, 55, 64
12, 84312, Note_off_c, 6, 61, 64
12, 84720, Note_on_c, 6, 66, 85
12, 84720, Note_on_c, 6, 57, 65
12, 84752, Note_off_c, 6, 57, 64
12, 84756, Note_off_c, 6, 66, 64
12, 84880, Note_on_c, 6, 66, 83
12, 84880, Note_on_c, 6, 57, 60
12, 84912, Note_off_c, 6, 57, 64
12, 84912, Note_off_c, 6, 66, 64
12, 85200, Note_on_c, 6, 57, 66
12, 85200, Note_on_c, 6, 66, 84
12, 85230, Note_off_c, 6, 57, 64
12, 85232, Note_off_c, 6, 66, 64
12, 85680, Note_on_c, 6, 66, 83
12, 85680, Note_on_c, 6, 57, 53
12, 85706, Note_off_c, 6, 57, 64
12, 85714, Note_off_c, 6, 66, 64
12, 85840, Note_on_c, 6, 66, 81
12, 85840, Note_on_c, 6, 57, 59
12, 85872, Note_off_c, 6, 57, 64
12, 85876, Note_off_c, 6, 66, 64
12, 86160, Note_on_c, 6, 66, 84
12, 86160, Note_on_c, 6, 57, 69
12, 86188, Note_off_c, 6, 66, 64
12, 86192, Note_off_c, 6, 57, 64
12, 86640, Note_on_c, 6, 57, 60
12, 86640, Note_on_c, 6, 65, 81
12, 86668, Note_off_c, 6, 65, 64
12, 86672, Note_off_c, 6, 57, 64
12, 87120, Note_on_c, 6, 57, 60
12, 87120, Note_on_c, 6, 65, 81
12, 87148, Note_off_c, 6, 65, 64
12, 87152, Note_off_c, 6, 57, 64
12, 87600, Note_on_c, 6, 62, 66
12, 87600, Note_on_c, 6, 69, 66
12, 87630, Note_off_c, 6, 62, 64
12, 87636, Note_off_c, 6, 69, 64
12, 88560, Note_on_c, 6, 61, 60
12, 88560, Note_on_c, 6, 69, 81
12, 88588, Note_off_c, 6, 69, 64
12, 88592, Note_off_c, 6, 61, 64
12, 89040, Note_on_c, 6, 69, 76
12, 89040, Note_on_c, 6, 61, 52
12, 89064, Note_off_c, 6, 61, 64
12, 89068, Note_off_c, 6, 69, 64
12, 89520, Note_on_c, 6, 63, 66
12, 89520, Note_on_c, 6, 69, 66
12, 89550, Note_off_c, 6, 63, 64
12, 89556, Note_off_c, 6, 69, 64
12, 90000, Note_on_c, 6, 63, 66
12, 90000, Note_on_c, 6, 69, 66
12, 90030, Note_off_c, 6, 63, 64
12, 90032, Note_off_c, 6, 69, 64
12, 90480, Note_on_c, 6, 55, 60
12, 90480, Note_on_c, 6, 63, 81
12, 90508, Note_off_c, 6, 63, 64
12, 90512, Note_off_c, 6, 55, 64
12, 90960, Note_on_c, 6, 63, 66
12, 90960, Note_on_c, 6, 69, 66
12, 90990, Note_off_c, 6, 63, 64
12, 90996, Note_off_c, 6, 69, 64
12, 91440, Note_on_c, 6, 62, 66
12, 91440, Note_on_c, 6, 69, 66
12, 91470, Note_off_c, 6, 62, 64
12, 91476, Note_off_c, 6, 69, 64
12, 91920, Note_on_c, 6, 62, 66
12, 91920, Note_on_c, 6, 68, 66
12, 91950, Note_off_c, 6, 62, 64
12, 91956, Note_off_c, 6, 68, 64
12, 92400, Note_on_c, 6, 73, 75
12, 92400, Note_on_c, 6, 64, 61
12, 92432, Note_off_c, 6, 64, 64
12, 92432, Note_off_c, 6, 73, 64
12, 92880, Note_on_c, 6, 60, 66
12, 92880, Note_on_c, 6, 66, 66
12, 92910, Note_off_c, 6, 60, 64
12, 92916, Note_off_c, 6, 66, 64
12, 93360, Note_on_c, 6, 59, 66
12, 93360, Note_on_c, 6, 66, 66
12, 93390, Note_off_c, 6, 59, 64
12, 93396, Note_off_c, 6, 66, 64
12, 93840, Note_on_c, 6, 59, 66
12, 93840, Note_on_c, 6, 65, 66
12, 93870, Note_off_c, 6, 59, 64
12, 93876, Note_off_c, 6, 65, 64
12, 94320, Note_on_c, 6, 61, 75
12, 94320, Note_on_c, 6, 52, 61
12, 94364, Note_off_c, 6, 52, 64
12, 94364, Note_off_c, 6, 61, 64
12, 94800, Note_on_c, 6, 61, 74
12, 94800, Note_on_c, 6, 52, 62
12, 94828, Note_off_c, 6, 52, 64
12, 94840, Note_off_c, 6, 61, 64
12, 95280, Note_on_c, 6, 61, 77
12, 95280, Note_on_c, 6, 52, 63
12, 95328, Note_off_c, 6, 52, 64
12, 95328, Note_off_c, 6, 61, 64
12, 95520, Note_on_c, 6, 61, 75
12, 95520, Note_on_c, 6, 71, 78
12, 95862, Note_off_c, 6, 61, 64
12, 95866, Note_off_c, 6, 71, 64
12, 96000, Control_c, 6, 64, 0
12, 96000, End_track
13, 0, Start_track
13, 0, Title_t, "Drums / Wire Brush        "
13, 0, Program_c, 9, 40
13, 0, Control_c, 9, 7, 85
13, 0, Control_c, 9, 121, 0
13, 0, Control_c, 9, 10, 64
13, 0, Control_c, 9, 123, 0
13, 0, Control_c, 9, 91, 40
13, 0, Control_c, 9, 93, 0
13, 2880, Note_on_c, 9, 35, 70
13, 2880, Note_on_c, 9, 42, 70
13, 2930, Note_off_c, 9, 42, 64
13, 2930, Note_off_c, 9, 35, 64
13, 3040, Note_on_c, 9, 42, 50
13, 3090, Note_off_c, 9, 42, 64
13, 3120, Note_on_c, 9, 42, 70
13, 3120, Note_on_c, 9, 37, 70
13, 3170, Note_off_c, 9, 37, 64
13, 3170, Note_off_c, 9, 42, 64
13, 3280, Note_on_c, 9, 35, 50
13, 3280, Note_on_c, 9, 42, 50
13, 3330, Note_off_c, 9, 42, 64
13, 3330, Note_off_c, 9, 35, 64
13, 3360, Note_on_c, 9, 35, 70
13, 3360, Note_on_c, 9, 42, 70
13, 3410, Note_off_c, 9, 42, 64
13, 3410, Note_off_c, 9, 35, 64
13, 3520, Note_on_c, 9, 42, 50
13, 3570, Note_off_c, 9, 42, 64
13, 3600, Note_on_c, 9, 42, 70
13, 3600, Note_on_c, 9, 37, 70
13, 3650, Note_off_c, 9, 37, 64
13, 3650, Note_off_c, 9, 42, 64
13, 3760, Note_on_c, 9, 35, 50
13, 3760, Note_on_c, 9, 42, 50
13, 3810, Note_off_c, 9, 42, 64
13, 3810, Note_off_c, 9, 35, 64
13, 3840, Note_on_c, 9, 35, 70
13, 3840, Note_on_c, 9, 42, 70
13, 3890, Note_off_c, 9, 42, 64
13, 3890, Note_off_c, 9, 35, 64
13, 4000, Note_on_c, 9, 42, 50
13, 4050, Note_off_c, 9, 42, 64
13, 4080, Note_on_c, 9, 42, 70
13, 4080, Note_on_c, 9, 37, 70
13, 4130, Note_off_c, 9, 37, 64
13, 4130, Note_off_c, 9, 42, 64
13, 4240, Note_on_c, 9, 35, 50
13, 4240, Note_on_c, 9, 42, 50
13, 4290, Note_off_c, 9, 42, 64
13, 4290, Note_off_c, 9, 35, 64
13, 4320, Note_on_c, 9, 35, 70
13, 4320, Note_on_c, 9, 42, 70
13, 4370, Note_off_c, 9, 42, 64
13, 4370, Note_off_c, 9, 35, 64
13, 4480, Note_on_c, 9, 42, 50
13, 4530, Note_off_c, 9, 42, 64
13, 4560, Note_on_c, 9, 42, 70
13, 4560, Note_on_c, 9, 37, 70
13, 4610, Note_off_c, 9, 37, 64
13, 4610, Note_off_c, 9, 42, 64
13, 4720, Note_on_c, 9, 35, 50
13, 4720, Note_on_c, 9, 42, 50
13, 4770, Note_off_c, 9, 42, 64
13, 4770, Note_off_c, 9, 35, 64
13, 4800, Note_on_c, 9, 35, 70
13, 4800, Note_on_c, 9, 42, 70
13, 4850, Note_off_c, 9, 42, 64
13, 4850, Note_off_c, 9, 35, 64
13, 4960, Note_on_c, 9, 42, 50
13, 5010, Note_off_c, 9, 42, 64
13, 5040, Note_on_c, 9, 42, 70
13, 5040, Note_on_c, 9, 37, 70
13, 5090, Note_off_c, 9, 37, 64
13, 5090, Note_off_c, 9, 42, 64
13, 5200, Note_on_c, 9, 35, 50
13, 5200, Note_on_c, 9, 42, 50
13, 5250, Note_off_c, 9, 42, 64
13, 5250, Note_off_c, 9, 35, 64
13, 5280, Note_on_c, 9, 35, 70
13, 5280, Note_on_c, 9, 42, 70
13, 5330, Note_off_c, 9, 42, 64
13, 5330, Note_off_c, 9, 35, 64
13, 5440, Note_on_c, 9, 38, 40
13, 5440, Note_on_c, 9, 42, 50
13, 5490, Note_off_c, 9, 42, 64
13, 5490, Note_off_c, 9, 38, 64
13, 5520, Note_on_c, 9, 38, 70
13, 5520, Note_on_c, 9, 42, 70
13, 5520, Note_on_c, 9, 37, 80
13, 5570, Note_off_c, 9, 37, 64
13, 5570, Note_off_c, 9, 42, 64
13, 5570, Note_off_c, 9, 38, 64
13, 5680, Note_on_c, 9, 35, 50
13, 5680, Note_on_c, 9, 42, 50
13, 5730, Note_off_c, 9, 42, 64
13, 5730, Note_off_c, 9, 35, 64
13, 5760, Note_on_c, 9, 35, 70
13, 5760, Note_on_c, 9, 42, 70
13, 5810, Note_off_c, 9, 42, 64
13, 5810, Note_off_c, 9, 35, 64
13, 5920, Note_on_c, 9, 42, 50
13, 5970, Note_off_c, 9, 42, 64
13, 6000, Note_on_c, 9, 42, 70
13, 6000, Note_on_c, 9, 37, 70
13, 6050, Note_off_c, 9, 37, 64
13, 6050, Note_off_c, 9, 42, 64
13, 6160, Note_on_c, 9, 35, 50
13, 6160, Note_on_c, 9, 42, 50
13, 6210, Note_off_c, 9, 42, 64
13, 6210, Note_off_c, 9, 35, 64
13, 6240, Note_on_c, 9, 35, 70
13, 6240, Note_on_c, 9, 42, 70
13, 6290, Note_off_c, 9, 42, 64
13, 6290, Note_off_c, 9, 35, 64
13, 6400, Note_on_c, 9, 42, 50
13, 6450, Note_off_c, 9, 42, 64
13, 6480, Note_on_c, 9, 42, 70
13, 6480, Note_on_c, 9, 37, 70
13, 6530, Note_off_c, 9, 37, 64
13, 6530, Note_off_c, 9, 42, 64
13, 6640, Note_on_c, 9, 35, 50
13, 6640, Note_on_c, 9, 42, 50
13, 6690, Note_off_c, 9, 42, 64
13, 6690, Note_off_c, 9, 35, 64
13, 6720, Note_on_c, 9, 35, 70
13, 6720, Note_on_c, 9, 42, 70
13, 6770, Note_off_c, 9, 42, 64
13, 6770, Note_off_c, 9, 35, 64
13, 6880, Note_on_c, 9, 42, 50
13, 6930, Note_off_c, 9, 42, 64
13, 6960, Note_on_c, 9, 42, 70
13, 6960, Note_on_c, 9, 37, 70
13, 7010, Note_off_c, 9, 37, 64
13, 7010, Note_off_c, 9, 42, 64
13, 7120, Note_on_c, 9, 35, 50
13, 7120, Note_on_c, 9, 42, 50
13, 7170, Note_off_c, 9, 42, 64
13, 7170, Note_off_c, 9, 35, 64
13, 7200, Note_on_c, 9, 35, 70
13, 7200, Note_on_c, 9, 42, 70
13, 7250, Note_off_c, 9, 42, 64
13, 7250, Note_off_c, 9, 35, 64
13, 7360, Note_on_c, 9, 42, 50
13, 7410, Note_off_c, 9, 42, 64
13, 7440, Note_on_c, 9, 42, 70
13, 7440, Note_on_c, 9, 37, 70
13, 7490, Note_off_c, 9, 37, 64
13, 7490, Note_off_c, 9, 42, 64
13, 7600, Note_on_c, 9, 35, 50
13, 7600, Note_on_c, 9, 42, 50
13, 7650, Note_off_c, 9, 42, 64
13, 7650, Note_off_c, 9, 35, 64
13, 7680, Note_on_c, 9, 35, 70
13, 7680, Note_on_c, 9, 42, 70
13, 7730, Note_off_c, 9, 42, 64
13, 7730, Note_off_c, 9, 35, 64
13, 7840, Note_on_c, 9, 42, 50
13, 7890, Note_off_c, 9, 42, 64
13, 7920, Note_on_c, 9, 42, 70
13, 7920, Note_on_c, 9, 37, 70
13, 7970, Note_off_c, 9, 37, 64
13, 7970, Note_off_c, 9, 42, 64
13, 8080, Note_on_c, 9, 35, 50
13, 8080, Note_on_c, 9, 42, 50
13, 8130, Note_off_c, 9, 42, 64
13, 8130, Note_off_c, 9, 35, 64
13, 8160, Note_on_c, 9, 35, 70
13, 8160, Note_on_c, 9, 42, 70
13, 8210, Note_off_c, 9, 42, 64
13, 8210, Note_off_c, 9, 35, 64
13, 8320, Note_on_c, 9, 42, 50
13, 8370, Note_off_c, 9, 42, 64
13, 8400, Note_on_c, 9, 42, 70
13, 8400, Note_on_c, 9, 37, 70
13, 8450, Note_off_c, 9, 37, 64
13, 8450, Note_off_c, 9, 42, 64
13, 8560, Note_on_c, 9, 35, 50
13, 8560, Note_on_c, 9, 42, 50
13, 8610, Note_off_c, 9, 42, 64
13, 8610, Note_off_c, 9, 35, 64
13, 8640, Note_on_c, 9, 35, 70
13, 8640, Note_on_c, 9, 42, 70
13, 8690, Note_off_c, 9, 42, 64
13, 8690, Note_off_c, 9, 35, 64
13, 8800, Note_on_c, 9, 42, 50
13, 8850, Note_off_c, 9, 42, 64
13, 8880, Note_on_c, 9, 38, 80
13, 8880, Note_on_c, 9, 42, 70
13, 8880, Note_on_c, 9, 37, 70
13, 8930, Note_off_c, 9, 37, 64
13, 8930, Note_off_c, 9, 42, 64
13, 8930, Note_off_c, 9, 38, 64
13, 9040, Note_on_c, 9, 35, 50
13, 9040, Note_on_c, 9, 38, 50
13, 9040, Note_on_c, 9, 42, 50
13, 9090, Note_off_c, 9, 42, 64
13, 9090, Note_off_c, 9, 38, 64
13, 9090, Note_off_c, 9, 35, 64
13, 9120, Note_on_c, 9, 35, 70
13, 9120, Note_on_c, 9, 38, 80
13, 9120, Note_on_c, 9, 42, 70
13, 9170, Note_off_c, 9, 42, 64
13, 9170, Note_off_c, 9, 38, 64
13, 9170, Note_off_c, 9, 35, 64
13, 9200, Note_on_c, 9, 38, 40
13, 9250, Note_off_c, 9, 38, 64
13, 9280, Note_on_c, 9, 38, 50
13, 9280, Note_on_c, 9, 42, 50
13, 9330, Note_off_c, 9, 42, 64
13, 9330, Note_off_c, 9, 38, 64
13, 9360, Note_on_c, 9, 38, 90
13, 9360, Note_on_c, 9, 42, 70
13, 9360, Note_on_c, 9, 37, 80
13, 9410, Note_off_c, 9, 37, 64
13, 9410, Note_off_c, 9, 42, 64
13, 9410, Note_off_c, 9, 38, 64
13, 9440, Note_on_c, 9, 38, 40
13, 9490, Note_off_c, 9, 38, 64
13, 9520, Note_on_c, 9, 35, 50
13, 9520, Note_on_c, 9, 38, 60
13, 9520, Note_on_c, 9, 42, 50
13, 9570, Note_off_c, 9, 42, 64
13, 9570, Note_off_c, 9, 38, 64
13, 9570, Note_off_c, 9, 35, 64
13, 9600, Note_on_c, 9, 35, 70
13, 9600, Note_on_c, 9, 42, 70
13, 9650, Note_off_c, 9, 42, 64
13, 9650, Note_off_c, 9, 35, 64
13, 9760, Note_on_c, 9, 42, 50
13, 9810, Note_off_c, 9, 42, 64
13, 9840, Note_on_c, 9, 42, 70
13, 9840, Note_on_c, 9, 37, 70
13, 9890, Note_off_c, 9, 37, 64
13, 9890, Note_off_c, 9, 42, 64
13, 10000, Note_on_c, 9, 35, 50
13, 10000, Note_on_c, 9, 42, 50
13, 10050, Note_off_c, 9, 42, 64
13, 10050, Note_off_c, 9, 35, 64
13, 10080, Note_on_c, 9, 35, 70
13, 10080, Note_on_c, 9, 42, 70
13, 10130, Note_off_c, 9, 42, 64
13, 10130, Note_off_c, 9, 35, 64
13, 10240, Note_on_c, 9, 42, 50
13, 10290, Note_off_c, 9, 42, 64
13, 10320, Note_on_c, 9, 42, 70
13, 10320, Note_on_c, 9, 37, 70
13, 10370, Note_off_c, 9, 37, 64
13, 10370, Note_off_c, 9, 42, 64
13, 10480, Note_on_c, 9, 35, 50
13, 10480, Note_on_c, 9, 42, 50
13, 10530, Note_off_c, 9, 42, 64
13, 10530, Note_off_c, 9, 35, 64
13, 10560, Note_on_c, 9, 35, 70
13, 10560, Note_on_c, 9, 42, 70
13, 10610, Note_off_c, 9, 42, 64
13, 10610, Note_off_c, 9, 35, 64
13, 10720, Note_on_c, 9, 42, 50
13, 10770, Note_off_c, 9, 42, 64
13, 10800, Note_on_c, 9, 42, 70
13, 10800, Note_on_c, 9, 37, 70
13, 10850, Note_off_c, 9, 37, 64
13, 10850, Note_off_c, 9, 42, 64
13, 10960, Note_on_c, 9, 35, 50
13, 10960, Note_on_c, 9, 42, 50
13, 11010, Note_off_c, 9, 42, 64
13, 11010, Note_off_c, 9, 35, 64
13, 11040, Note_on_c, 9, 35, 70
13, 11040, Note_on_c, 9, 42, 70
13, 11090, Note_off_c, 9, 42, 64
13, 11090, Note_off_c, 9, 35, 64
13, 11200, Note_on_c, 9, 42, 50
13, 11250, Note_off_c, 9, 42, 64
13, 11280, Note_on_c, 9, 42, 70
13, 11280, Note_on_c, 9, 37, 70
13, 11330, Note_off_c, 9, 37, 64
13, 11330, Note_off_c, 9, 42, 64
13, 11440, Note_on_c, 9, 35, 50
13, 11440, Note_on_c, 9, 42, 50
13, 11490, Note_off_c, 9, 42, 64
13, 11490, Note_off_c, 9, 35, 64
13, 11520, Note_on_c, 9, 35, 70
13, 11520, Note_on_c, 9, 42, 70
13, 11570, Note_off_c, 9, 42, 64
13, 11570, Note_off_c, 9, 35, 64
13, 11680, Note_on_c, 9, 42, 50
13, 11730, Note_off_c, 9, 42, 64
13, 11760, Note_on_c, 9, 42, 70
13, 11760, Note_on_c, 9, 37, 70
13, 11810, Note_off_c, 9, 37, 64
13, 11810, Note_off_c, 9, 42, 64
13, 11920, Note_on_c, 9, 35, 50
13, 11920, Note_on_c, 9, 42, 50
13, 11970, Note_off_c, 9, 42, 64
13, 11970, Note_off_c, 9, 35, 64
13, 12000, Note_on_c, 9, 35, 70
13, 12000, Note_on_c, 9, 42, 70
13, 12050, Note_off_c, 9, 42, 64
13, 12050, Note_off_c, 9, 35, 64
13, 12160, Note_on_c, 9, 42, 50
13, 12210, Note_off_c, 9, 42, 64
13, 12240, Note_on_c, 9, 42, 70
13, 12240, Note_on_c, 9, 37, 70
13, 12290, Note_off_c, 9, 37, 64
13, 12290, Note_off_c, 9, 42, 64
13, 12400, Note_on_c, 9, 35, 50
13, 12400, Note_on_c, 9, 42, 50
13, 12450, Note_off_c, 9, 42, 64
13, 12450, Note_off_c, 9, 35, 64
13, 12480, Note_on_c, 9, 35, 70
13, 12480, Note_on_c, 9, 42, 70
13, 12530, Note_off_c, 9, 42, 64
13, 12530, Note_off_c, 9, 35, 64
13, 12640, Note_on_c, 9, 42, 50
13, 12690, Note_off_c, 9, 42, 64
13, 12720, Note_on_c, 9, 42, 70
13, 12720, Note_on_c, 9, 37, 70
13, 12770, Note_off_c, 9, 37, 64
13, 12770, Note_off_c, 9, 42, 64
13, 12880, Note_on_c, 9, 35, 50
13, 12880, Note_on_c, 9, 42, 50
13, 12930, Note_off_c, 9, 42, 64
13, 12930, Note_off_c, 9, 35, 64
13, 12960, Note_on_c, 9, 35, 70
13, 12960, Note_on_c, 9, 42, 70
13, 13010, Note_off_c, 9, 42, 64
13, 13010, Note_off_c, 9, 35, 64
13, 13120, Note_on_c, 9, 42, 50
13, 13170, Note_off_c, 9, 42, 64
13, 13200, Note_on_c, 9, 42, 70
13, 13200, Note_on_c, 9, 37, 70
13, 13250, Note_off_c, 9, 37, 64
13, 13250, Note_off_c, 9, 42, 64
13, 13360, Note_on_c, 9, 35, 50
13, 13360, Note_on_c, 9, 42, 50
13, 13410, Note_off_c, 9, 42, 64
13, 13410, Note_off_c, 9, 35, 64
13, 13440, Note_on_c, 9, 35, 70
13, 13440, Note_on_c, 9, 42, 70
13, 13490, Note_off_c, 9, 42, 64
13, 13490, Note_off_c, 9, 35, 64
13, 13600, Note_on_c, 9, 42, 50
13, 13650, Note_off_c, 9, 42, 64
13, 13680, Note_on_c, 9, 42, 70
13, 13680, Note_on_c, 9, 37, 70
13, 13730, Note_off_c, 9, 37, 64
13, 13730, Note_off_c, 9, 42, 64
13, 13840, Note_on_c, 9, 35, 50
13, 13840, Note_on_c, 9, 42, 50
13, 13890, Note_off_c, 9, 42, 64
13, 13890, Note_off_c, 9, 35, 64
13, 13920, Note_on_c, 9, 35, 70
13, 13920, Note_on_c, 9, 42, 70
13, 13970, Note_off_c, 9, 42, 64
13, 13970, Note_off_c, 9, 35, 64
13, 14080, Note_on_c, 9, 42, 50
13, 14130, Note_off_c, 9, 42, 64
13, 14160, Note_on_c, 9, 42, 70
13, 14160, Note_on_c, 9, 37, 70
13, 14210, Note_off_c, 9, 37, 64
13, 14210, Note_off_c, 9, 42, 64
13, 14320, Note_on_c, 9, 35, 50
13, 14320, Note_on_c, 9, 42, 50
13, 14370, Note_off_c, 9, 42, 64
13, 14370, Note_off_c, 9, 35, 64
13, 14400, Note_on_c, 9, 35, 70
13, 14400, Note_on_c, 9, 42, 70
13, 14450, Note_off_c, 9, 42, 64
13, 14450, Note_off_c, 9, 35, 64
13, 14560, Note_on_c, 9, 42, 50
13, 14610, Note_off_c, 9, 42, 64
13, 14640, Note_on_c, 9, 42, 70
13, 14640, Note_on_c, 9, 37, 70
13, 14690, Note_off_c, 9, 37, 64
13, 14690, Note_off_c, 9, 42, 64
13, 14800, Note_on_c, 9, 35, 50
13, 14800, Note_on_c, 9, 42, 50
13, 14850, Note_off_c, 9, 42, 64
13, 14850, Note_off_c, 9, 35, 64
13, 14880, Note_on_c, 9, 35, 70
13, 14880, Note_on_c, 9, 42, 70
13, 14930, Note_off_c, 9, 42, 64
13, 14930, Note_off_c, 9, 35, 64
13, 15040, Note_on_c, 9, 42, 50
13, 15090, Note_off_c, 9, 42, 64
13, 15120, Note_on_c, 9, 42, 70
13, 15120, Note_on_c, 9, 37, 70
13, 15170, Note_off_c, 9, 37, 64
13, 15170, Note_off_c, 9, 42, 64
13, 15280, Note_on_c, 9, 35, 50
13, 15280, Note_on_c, 9, 42, 50
13, 15330, Note_off_c, 9, 42, 64
13, 15330, Note_off_c, 9, 35, 64
13, 15360, Note_on_c, 9, 35, 70
13, 15360, Note_on_c, 9, 42, 70
13, 15410, Note_off_c, 9, 42, 64
13, 15410, Note_off_c, 9, 35, 64
13, 15520, Note_on_c, 9, 42, 50
13, 15570, Note_off_c, 9, 42, 64
13, 15600, Note_on_c, 9, 42, 70
13, 15600, Note_on_c, 9, 37, 70
13, 15650, Note_off_c, 9, 37, 64
13, 15650, Note_off_c, 9, 42, 64
13, 15760, Note_on_c, 9, 35, 50
13, 15760, Note_on_c, 9, 42, 50
13, 15810, Note_off_c, 9, 42, 64
13, 15810, Note_off_c, 9, 35, 64
13, 15840, Note_on_c, 9, 35, 70
13, 15840, Note_on_c, 9, 42, 70
13, 15890, Note_off_c, 9, 42, 64
13, 15890, Note_off_c, 9, 35, 64
13, 16000, Note_on_c, 9, 42, 50
13, 16050, Note_off_c, 9, 42, 64
13, 16080, Note_on_c, 9, 42, 70
13, 16080, Note_on_c, 9, 37, 70
13, 16130, Note_off_c, 9, 37, 64
13, 16130, Note_off_c, 9, 42, 64
13, 16240, Note_on_c, 9, 35, 50
13, 16240, Note_on_c, 9, 42, 50
13, 16290, Note_off_c, 9, 42, 64
13, 16290, Note_off_c, 9, 35, 64
13, 16320, Note_on_c, 9, 35, 70
13, 16320, Note_on_c, 9, 42, 70
13, 16370, Note_off_c, 9, 42, 64
13, 16370, Note_off_c, 9, 35, 64
13, 16480, Note_on_c, 9, 42, 50
13, 16530, Note_off_c, 9, 42, 64
13, 16560, Note_on_c, 9, 38, 80
13, 16560, Note_on_c, 9, 42, 70
13, 16560, Note_on_c, 9, 37, 70
13, 16610, Note_off_c, 9, 37, 64
13, 16610, Note_off_c, 9, 42, 64
13, 16610, Note_off_c, 9, 38, 64
13, 16720, Note_on_c, 9, 35, 50
13, 16720, Note_on_c, 9, 38, 50
13, 16720, Note_on_c, 9, 42, 50
13, 16770, Note_off_c, 9, 42, 64
13, 16770, Note_off_c, 9, 38, 64
13, 16770, Note_off_c, 9, 35, 64
13, 16800, Note_on_c, 9, 35, 70
13, 16800, Note_on_c, 9, 38, 80
13, 16800, Note_on_c, 9, 42, 70
13, 16850, Note_off_c, 9, 42, 64
13, 16850, Note_off_c, 9, 38, 64
13, 16850, Note_off_c, 9, 35, 64
13, 16880, Note_on_c, 9, 38, 40
13, 16930, Note_off_c, 9, 38, 64
13, 16960, Note_on_c, 9, 38, 50
13, 16960, Note_on_c, 9, 42, 50
13, 17010, Note_off_c, 9, 42, 64
13, 17010, Note_off_c, 9, 38, 64
13, 17040, Note_on_c, 9, 38, 90
13, 17040, Note_on_c, 9, 42, 70
13, 17040, Note_on_c, 9, 37, 80
13, 17090, Note_off_c, 9, 37, 64
13, 17090, Note_off_c, 9, 42, 64
13, 17090, Note_off_c, 9, 38, 64
13, 17120, Note_on_c, 9, 38, 40
13, 17170, Note_off_c, 9, 38, 64
13, 17200, Note_on_c, 9, 35, 50
13, 17200, Note_on_c, 9, 38, 60
13, 17200, Note_on_c, 9, 42, 50
13, 17250, Note_off_c, 9, 42, 64
13, 17250, Note_off_c, 9, 38, 64
13, 17250, Note_off_c, 9, 35, 64
13, 17280, Note_on_c, 9, 35, 80
13, 17280, Note_on_c, 9, 42, 90
13, 17330, Note_off_c, 9, 42, 64
13, 17330, Note_off_c, 9, 35, 64
13, 17360, Note_on_c, 9, 42, 60
13, 17410, Note_off_c, 9, 42, 64
13, 17440, Note_on_c, 9, 42, 70
13, 17490, Note_off_c, 9, 42, 64
13, 17520, Note_on_c, 9, 38, 80
13, 17520, Note_on_c, 9, 42, 90
13, 17520, Note_on_c, 9, 37, 80
13, 17570, Note_off_c, 9, 37, 64
13, 17570, Note_off_c, 9, 42, 64
13, 17570, Note_off_c, 9, 38, 64
13, 17600, Note_on_c, 9, 42, 60
13, 17650, Note_off_c, 9, 42, 64
13, 17680, Note_on_c, 9, 35, 60
13, 17680, Note_on_c, 9, 38, 70
13, 17680, Note_on_c, 9, 42, 70
13, 17730, Note_off_c, 9, 42, 64
13, 17730, Note_off_c, 9, 38, 64
13, 17730, Note_off_c, 9, 35, 64
13, 17760, Note_on_c, 9, 35, 80
13, 17760, Note_on_c, 9, 42, 90
13, 17810, Note_off_c, 9, 42, 64
13, 17810, Note_off_c, 9, 35, 64
13, 17840, Note_on_c, 9, 42, 60
13, 17890, Note_off_c, 9, 42, 64
13, 17920, Note_on_c, 9, 42, 70
13, 17970, Note_off_c, 9, 42, 64
13, 18000, Note_on_c, 9, 38, 80
13, 18000, Note_on_c, 9, 42, 90
13, 18000, Note_on_c, 9, 37, 90
13, 18050, Note_off_c, 9, 37, 64
13, 18050, Note_off_c, 9, 42, 64
13, 18050, Note_off_c, 9, 38, 64
13, 18080, Note_on_c, 9, 42, 60
13, 18130, Note_off_c, 9, 42, 64
13, 18160, Note_on_c, 9, 35, 60
13, 18160, Note_on_c, 9, 42, 70
13, 18210, Note_off_c, 9, 42, 64
13, 18210, Note_off_c, 9, 35, 64
13, 18240, Note_on_c, 9, 35, 80
13, 18240, Note_on_c, 9, 42, 90
13, 18290, Note_off_c, 9, 42, 64
13, 18290, Note_off_c, 9, 35, 64
13, 18320, Note_on_c, 9, 42, 60
13, 18370, Note_off_c, 9, 42, 64
13, 18400, Note_on_c, 9, 42, 70
13, 18450, Note_off_c, 9, 42, 64
13, 18480, Note_on_c, 9, 38, 80
13, 18480, Note_on_c, 9, 42, 90
13, 18480, Note_on_c, 9, 37, 80
13, 18530, Note_off_c, 9, 37, 64
13, 18530, Note_off_c, 9, 42, 64
13, 18530, Note_off_c, 9, 38, 64
13, 18560, Note_on_c, 9, 42, 60
13, 18610, Note_off_c, 9, 42, 64
13, 18640, Note_on_c, 9, 35, 60
13, 18640, Note_on_c, 9, 38, 80
13, 18640, Note_on_c, 9, 42, 70
13, 18690, Note_off_c, 9, 42, 64
13, 18690, Note_off_c, 9, 38, 64
13, 18690, Note_off_c, 9, 35, 64
13, 18720, Note_on_c, 9, 35, 80
13, 18720, Note_on_c, 9, 42, 90
13, 18770, Note_off_c, 9, 42, 64
13, 18770, Note_off_c, 9, 35, 64
13, 18800, Note_on_c, 9, 42, 60
13, 18850, Note_off_c, 9, 42, 64
13, 18880, Note_on_c, 9, 42, 70
13, 18930, Note_off_c, 9, 42, 64
13, 18960, Note_on_c, 9, 38, 80
13, 18960, Note_on_c, 9, 42, 90
13, 18960, Note_on_c, 9, 37, 90
13, 19010, Note_off_c, 9, 37, 64
13, 19010, Note_off_c, 9, 42, 64
13, 19010, Note_off_c, 9, 38, 64
13, 19040, Note_on_c, 9, 42, 60
13, 19090, Note_off_c, 9, 42, 64
13, 19120, Note_on_c, 9, 35, 60
13, 19120, Note_on_c, 9, 42, 70
13, 19170, Note_off_c, 9, 42, 64
13, 19170, Note_off_c, 9, 35, 64
13, 19200, Note_on_c, 9, 35, 80
13, 19200, Note_on_c, 9, 42, 90
13, 19250, Note_off_c, 9, 42, 64
13, 19250, Note_off_c, 9, 35, 64
13, 19280, Note_on_c, 9, 42, 60
13, 19330, Note_off_c, 9, 42, 64
13, 19360, Note_on_c, 9, 42, 70
13, 19410, Note_off_c, 9, 42, 64
13, 19440, Note_on_c, 9, 38, 80
13, 19440, Note_on_c, 9, 42, 90
13, 19440, Note_on_c, 9, 37, 80
13, 19490, Note_off_c, 9, 37, 64
13, 19490, Note_off_c, 9, 42, 64
13, 19490, Note_off_c, 9, 38, 64
13, 19520, Note_on_c, 9, 42, 60
13, 19570, Note_off_c, 9, 42, 64
13, 19600, Note_on_c, 9, 35, 60
13, 19600, Note_on_c, 9, 38, 80
13, 19600, Note_on_c, 9, 42, 70
13, 19650, Note_off_c, 9, 42, 64
13, 19650, Note_off_c, 9, 38, 64
13, 19650, Note_off_c, 9, 35, 64
13, 19680, Note_on_c, 9, 35, 80
13, 19680, Note_on_c, 9, 42, 90
13, 19730, Note_off_c, 9, 42, 64
13, 19730, Note_off_c, 9, 35, 64
13, 19760, Note_on_c, 9, 42, 60
13, 19810, Note_off_c, 9, 42, 64
13, 19840, Note_on_c, 9, 42, 70
13, 19890, Note_off_c, 9, 42, 64
13, 19920, Note_on_c, 9, 38, 80
13, 19920, Note_on_c, 9, 42, 90
13, 19920, Note_on_c, 9, 37, 90
13, 19970, Note_off_c, 9, 37, 64
13, 19970, Note_off_c, 9, 42, 64
13, 19970, Note_off_c, 9, 38, 64
13, 20000, Note_on_c, 9, 42, 60
13, 20050, Note_off_c, 9, 42, 64
13, 20080, Note_on_c, 9, 35, 60
13, 20080, Note_on_c, 9, 42, 70
13, 20130, Note_off_c, 9, 42, 64
13, 20130, Note_off_c, 9, 35, 64
13, 20160, Note_on_c, 9, 35, 80
13, 20160, Note_on_c, 9, 42, 90
13, 20210, Note_off_c, 9, 42, 64
13, 20210, Note_off_c, 9, 35, 64
13, 20240, Note_on_c, 9, 42, 60
13, 20290, Note_off_c, 9, 42, 64
13, 20320, Note_on_c, 9, 42, 70
13, 20370, Note_off_c, 9, 42, 64
13, 20400, Note_on_c, 9, 38, 80
13, 20400, Note_on_c, 9, 42, 90
13, 20400, Note_on_c, 9, 37, 80
13, 20450, Note_off_c, 9, 37, 64
13, 20450, Note_off_c, 9, 42, 64
13, 20450, Note_off_c, 9, 38, 64
13, 20480, Note_on_c, 9, 42, 60
13, 20530, Note_off_c, 9, 42, 64
13, 20560, Note_on_c, 9, 35, 60
13, 20560, Note_on_c, 9, 38, 70
13, 20560, Note_on_c, 9, 42, 70
13, 20610, Note_off_c, 9, 42, 64
13, 20610, Note_off_c, 9, 38, 64
13, 20610, Note_off_c, 9, 35, 64
13, 20640, Note_on_c, 9, 35, 80
13, 20640, Note_on_c, 9, 42, 90
13, 20690, Note_off_c, 9, 42, 64
13, 20690, Note_off_c, 9, 35, 64
13, 20720, Note_on_c, 9, 42, 60
13, 20770, Note_off_c, 9, 42, 64
13, 20800, Note_on_c, 9, 42, 70
13, 20850, Note_off_c, 9, 42, 64
13, 20880, Note_on_c, 9, 38, 80
13, 20880, Note_on_c, 9, 42, 90
13, 20880, Note_on_c, 9, 37, 90
13, 20930, Note_off_c, 9, 37, 64
13, 20930, Note_off_c, 9, 42, 64
13, 20930, Note_off_c, 9, 38, 64
13, 20960, Note_on_c, 9, 42, 60
13, 21010, Note_off_c, 9, 42, 64
13, 21040, Note_on_c, 9, 35, 60
13, 21040, Note_on_c, 9, 42, 70
13, 21090, Note_off_c, 9, 42, 64
13, 21090, Note_off_c, 9, 35, 64
13, 21120, Note_on_c, 9, 35, 80
13, 21120, Note_on_c, 9, 42, 90
13, 21170, Note_off_c, 9, 42, 64
13, 21170, Note_off_c, 9, 35, 64
13, 21200, Note_on_c, 9, 42, 60
13, 21250, Note_off_c, 9, 42, 64
13, 21280, Note_on_c, 9, 42, 70
13, 21330, Note_off_c, 9, 42, 64
13, 21360, Note_on_c, 9, 38, 80
13, 21360, Note_on_c, 9, 42, 90
13, 21360, Note_on_c, 9, 37, 80
13, 21410, Note_off_c, 9, 37, 64
13, 21410, Note_off_c, 9, 42, 64
13, 21410, Note_off_c, 9, 38, 64
13, 21440, Note_on_c, 9, 42, 60
13, 21490, Note_off_c, 9, 42, 64
13, 21520, Note_on_c, 9, 35, 60
13, 21520, Note_on_c, 9, 38, 70
13, 21520, Note_on_c, 9, 42, 70
13, 21570, Note_off_c, 9, 42, 64
13, 21570, Note_off_c, 9, 38, 64
13, 21570, Note_off_c, 9, 35, 64
13, 21600, Note_on_c, 9, 35, 80
13, 21600, Note_on_c, 9, 42, 90
13, 21650, Note_off_c, 9, 42, 64
13, 21650, Note_off_c, 9, 35, 64
13, 21680, Note_on_c, 9, 42, 60
13, 21730, Note_off_c, 9, 42, 64
13, 21760, Note_on_c, 9, 42, 70
13, 21810, Note_off_c, 9, 42, 64
13, 21840, Note_on_c, 9, 38, 80
13, 21840, Note_on_c, 9, 42, 90
13, 21840, Note_on_c, 9, 37, 90
13, 21890, Note_off_c, 9, 37, 64
13, 21890, Note_off_c, 9, 42, 64
13, 21890, Note_off_c, 9, 38, 64
13, 21920, Note_on_c, 9, 42, 60
13, 21970, Note_off_c, 9, 42, 64
13, 22000, Note_on_c, 9, 35, 60
13, 22000, Note_on_c, 9, 42, 70
13, 22050, Note_off_c, 9, 42, 64
13, 22050, Note_off_c, 9, 35, 64
13, 22080, Note_on_c, 9, 35, 80
13, 22080, Note_on_c, 9, 42, 90
13, 22130, Note_off_c, 9, 42, 64
13, 22130, Note_off_c, 9, 35, 64
13, 22160, Note_on_c, 9, 42, 60
13, 22210, Note_off_c, 9, 42, 64
13, 22240, Note_on_c, 9, 42, 70
13, 22290, Note_off_c, 9, 42, 64
13, 22320, Note_on_c, 9, 38, 80
13, 22320, Note_on_c, 9, 42, 90
13, 22320, Note_on_c, 9, 37, 80
13, 22370, Note_off_c, 9, 37, 64
13, 22370, Note_off_c, 9, 42, 64
13, 22370, Note_off_c, 9, 38, 64
13, 22400, Note_on_c, 9, 42, 60
13, 22450, Note_off_c, 9, 42, 64
13, 22480, Note_on_c, 9, 35, 60
13, 22480, Note_on_c, 9, 38, 70
13, 22480, Note_on_c, 9, 42, 70
13, 22530, Note_off_c, 9, 42, 64
13, 22530, Note_off_c, 9, 38, 64
13, 22530, Note_off_c, 9, 35, 64
13, 22560, Note_on_c, 9, 35, 80
13, 22560, Note_on_c, 9, 42, 90
13, 22610, Note_off_c, 9, 42, 64
13, 22610, Note_off_c, 9, 35, 64
13, 22640, Note_on_c, 9, 42, 60
13, 22690, Note_off_c, 9, 42, 64
13, 22720, Note_on_c, 9, 42, 70
13, 22770, Note_off_c, 9, 42, 64
13, 22800, Note_on_c, 9, 38, 80
13, 22800, Note_on_c, 9, 42, 90
13, 22800, Note_on_c, 9, 37, 90
13, 22850, Note_off_c, 9, 37, 64
13, 22850, Note_off_c, 9, 42, 64
13, 22850, Note_off_c, 9, 38, 64
13, 22880, Note_on_c, 9, 42, 60
13, 22930, Note_off_c, 9, 42, 64
13, 22960, Note_on_c, 9, 35, 60
13, 22960, Note_on_c, 9, 42, 70
13, 23010, Note_off_c, 9, 42, 64
13, 23010, Note_off_c, 9, 35, 64
13, 23040, Note_on_c, 9, 35, 80
13, 23040, Note_on_c, 9, 42, 90
13, 23090, Note_off_c, 9, 42, 64
13, 23090, Note_off_c, 9, 35, 64
13, 23120, Note_on_c, 9, 42, 60
13, 23170, Note_off_c, 9, 42, 64
13, 23200, Note_on_c, 9, 42, 70
13, 23250, Note_off_c, 9, 42, 64
13, 23280, Note_on_c, 9, 38, 80
13, 23280, Note_on_c, 9, 42, 90
13, 23280, Note_on_c, 9, 37, 80
13, 23330, Note_off_c, 9, 37, 64
13, 23330, Note_off_c, 9, 42, 64
13, 23330, Note_off_c, 9, 38, 64
13, 23360, Note_on_c, 9, 42, 60
13, 23410, Note_off_c, 9, 42, 64
13, 23440, Note_on_c, 9, 35, 60
13, 23440, Note_on_c, 9, 38, 70
13, 23440, Note_on_c, 9, 42, 70
13, 23490, Note_off_c, 9, 42, 64
13, 23490, Note_off_c, 9, 38, 64
13, 23490, Note_off_c, 9, 35, 64
13, 23520, Note_on_c, 9, 35, 80
13, 23520, Note_on_c, 9, 42, 90
13, 23570, Note_off_c, 9, 42, 64
13, 23570, Note_off_c, 9, 35, 64
13, 23600, Note_on_c, 9, 42, 60
13, 23650, Note_off_c, 9, 42, 64
13, 23680, Note_on_c, 9, 42, 70
13, 23730, Note_off_c, 9, 42, 64
13, 23760, Note_on_c, 9, 38, 80
13, 23760, Note_on_c, 9, 42, 90
13, 23760, Note_on_c, 9, 37, 90
13, 23810, Note_off_c, 9, 37, 64
13, 23810, Note_off_c, 9, 42, 64
13, 23810, Note_off_c, 9, 38, 64
13, 23840, Note_on_c, 9, 42, 60
13, 23890, Note_off_c, 9, 42, 64
13, 23920, Note_on_c, 9, 35, 60
13, 23920, Note_on_c, 9, 42, 70
13, 23970, Note_off_c, 9, 42, 64
13, 23970, Note_off_c, 9, 35, 64
13, 24000, Note_on_c, 9, 35, 80
13, 24000, Note_on_c, 9, 42, 90
13, 24050, Note_off_c, 9, 42, 64
13, 24050, Note_off_c, 9, 35, 64
13, 24080, Note_on_c, 9, 42, 60
13, 24130, Note_off_c, 9, 42, 64
13, 24160, Note_on_c, 9, 42, 70
13, 24210, Note_off_c, 9, 42, 64
13, 24240, Note_on_c, 9, 38, 80
13, 24240, Note_on_c, 9, 42, 90
13, 24240, Note_on_c, 9, 37, 80
13, 24290, Note_off_c, 9, 37, 64
13, 24290, Note_off_c, 9, 42, 64
13, 24290, Note_off_c, 9, 38, 64
13, 24320, Note_on_c, 9, 42, 60
13, 24370, Note_off_c, 9, 42, 64
13, 24400, Note_on_c, 9, 35, 60
13, 24400, Note_on_c, 9, 38, 50
13, 24400, Note_on_c, 9, 42, 70
13, 24450, Note_off_c, 9, 42, 64
13, 24450, Note_off_c, 9, 38, 64
13, 24450, Note_off_c, 9, 35, 64
13, 24480, Note_on_c, 9, 35, 80
13, 24480, Note_on_c, 9, 38, 90
13, 24480, Note_on_c, 9, 42, 90
13, 24530, Note_off_c, 9, 42, 64
13, 24530, Note_off_c, 9, 38, 64
13, 24530, Note_off_c, 9, 35, 64
13, 24560, Note_on_c, 9, 38, 50
13, 24560, Note_on_c, 9, 42, 60
13, 24610, Note_off_c, 9, 42, 64
13, 24610, Note_off_c, 9, 38, 64
13, 24640, Note_on_c, 9, 38, 70
13, 24640, Note_on_c, 9, 42, 70
13, 24690, Note_off_c, 9, 42, 64
13, 24690, Note_off_c, 9, 38, 64
13, 24720, Note_on_c, 9, 35, 80
13, 24720, Note_on_c, 9, 38, 80
13, 24720, Note_on_c, 9, 42, 90
13, 24720, Note_on_c, 9, 37, 90
13, 24770, Note_off_c, 9, 37, 64
13, 24770, Note_off_c, 9, 42, 64
13, 24770, Note_off_c, 9, 38, 64
13, 24770, Note_off_c, 9, 35, 64
13, 24800, Note_on_c, 9, 38, 50
13, 24800, Note_on_c, 9, 42, 60
13, 24850, Note_off_c, 9, 42, 64
13, 24850, Note_off_c, 9, 38, 64
13, 24880, Note_on_c, 9, 35, 60
13, 24880, Note_on_c, 9, 38, 70
13, 24880, Note_on_c, 9, 46, 72
13, 24930, Note_off_c, 9, 46, 64
13, 24930, Note_off_c, 9, 38, 64
13, 24930, Note_off_c, 9, 35, 64
13, 24960, Note_on_c, 9, 35, 70
13, 24960, Note_on_c, 9, 42, 70
13, 24960, Note_on_c, 9, 49, 70
13, 25010, Note_off_c, 9, 49, 64
13, 25010, Note_off_c, 9, 42, 64
13, 25010, Note_off_c, 9, 35, 64
13, 25120, Note_on_c, 9, 42, 50
13, 25170, Note_off_c, 9, 42, 64
13, 25200, Note_on_c, 9, 42, 70
13, 25200, Note_on_c, 9, 37, 70
13, 25250, Note_off_c, 9, 37, 64
13, 25250, Note_off_c, 9, 42, 64
13, 25360, Note_on_c, 9, 35, 50
13, 25360, Note_on_c, 9, 42, 50
13, 25410, Note_off_c, 9, 42, 64
13, 25410, Note_off_c, 9, 35, 64
13, 25440, Note_on_c, 9, 35, 70
13, 25440, Note_on_c, 9, 42, 70
13, 25490, Note_off_c, 9, 42, 64
13, 25490, Note_off_c, 9, 35, 64
13, 25600, Note_on_c, 9, 42, 50
13, 25650, Note_off_c, 9, 42, 64
13, 25680, Note_on_c, 9, 42, 70
13, 25680, Note_on_c, 9, 37, 70
13, 25730, Note_off_c, 9, 37, 64
13, 25730, Note_off_c, 9, 42, 64
13, 25840, Note_on_c, 9, 35, 50
13, 25840, Note_on_c, 9, 42, 50
13, 25890, Note_off_c, 9, 42, 64
13, 25890, Note_off_c, 9, 35, 64
13, 25920, Note_on_c, 9, 35, 70
13, 25920, Note_on_c, 9, 42, 70
13, 25970, Note_off_c, 9, 42, 64
13, 25970, Note_off_c, 9, 35, 64
13, 26080, Note_on_c, 9, 42, 50
13, 26130, Note_off_c, 9, 42, 64
13, 26160, Note_on_c, 9, 42, 70
13, 26160, Note_on_c, 9, 37, 70
13, 26210, Note_off_c, 9, 37, 64
13, 26210, Note_off_c, 9, 42, 64
13, 26320, Note_on_c, 9, 35, 50
13, 26320, Note_on_c, 9, 42, 50
13, 26370, Note_off_c, 9, 42, 64
13, 26370, Note_off_c, 9, 35, 64
13, 26400, Note_on_c, 9, 35, 70
13, 26400, Note_on_c, 9, 42, 70
13, 26450, Note_off_c, 9, 42, 64
13, 26450, Note_off_c, 9, 35, 64
13, 26560, Note_on_c, 9, 42, 50
13, 26610, Note_off_c, 9, 42, 64
13, 26640, Note_on_c, 9, 42, 70
13, 26640, Note_on_c, 9, 37, 70
13, 26690, Note_off_c, 9, 37, 64
13, 26690, Note_off_c, 9, 42, 64
13, 26800, Note_on_c, 9, 35, 50
13, 26800, Note_on_c, 9, 42, 50
13, 26850, Note_off_c, 9, 42, 64
13, 26850, Note_off_c, 9, 35, 64
13, 26880, Note_on_c, 9, 35, 70
13, 26880, Note_on_c, 9, 42, 70
13, 26930, Note_off_c, 9, 42, 64
13, 26930, Note_off_c, 9, 35, 64
13, 27040, Note_on_c, 9, 42, 50
13, 27090, Note_off_c, 9, 42, 64
13, 27120, Note_on_c, 9, 42, 70
13, 27120, Note_on_c, 9, 37, 70
13, 27170, Note_off_c, 9, 37, 64
13, 27170, Note_off_c, 9, 42, 64
13, 27280, Note_on_c, 9, 35, 50
13, 27280, Note_on_c, 9, 42, 50
13, 27330, Note_off_c, 9, 42, 64
13, 27330, Note_off_c, 9, 35, 64
13, 27360, Note_on_c, 9, 35, 70
13, 27360, Note_on_c, 9, 42, 70
13, 27410, Note_off_c, 9, 42, 64
13, 27410, Note_off_c, 9, 35, 64
13, 27520, Note_on_c, 9, 42, 50
13, 27570, Note_off_c, 9, 42, 64
13, 27600, Note_on_c, 9, 42, 70
13, 27600, Note_on_c, 9, 37, 70
13, 27650, Note_off_c, 9, 37, 64
13, 27650, Note_off_c, 9, 42, 64
13, 27760, Note_on_c, 9, 35, 50
13, 27760, Note_on_c, 9, 42, 50
13, 27810, Note_off_c, 9, 42, 64
13, 27810, Note_off_c, 9, 35, 64
13, 27840, Note_on_c, 9, 35, 70
13, 27840, Note_on_c, 9, 42, 70
13, 27890, Note_off_c, 9, 42, 64
13, 27890, Note_off_c, 9, 35, 64
13, 28000, Note_on_c, 9, 42, 50
13, 28050, Note_off_c, 9, 42, 64
13, 28080, Note_on_c, 9, 42, 70
13, 28080, Note_on_c, 9, 37, 70
13, 28130, Note_off_c, 9, 37, 64
13, 28130, Note_off_c, 9, 42, 64
13, 28240, Note_on_c, 9, 35, 50
13, 28240, Note_on_c, 9, 42, 50
13, 28290, Note_off_c, 9, 42, 64
13, 28290, Note_off_c, 9, 35, 64
13, 28320, Note_on_c, 9, 35, 70
13, 28320, Note_on_c, 9, 42, 70
13, 28370, Note_off_c, 9, 42, 64
13, 28370, Note_off_c, 9, 35, 64
13, 28480, Note_on_c, 9, 42, 50
13, 28530, Note_off_c, 9, 42, 64
13, 28560, Note_on_c, 9, 42, 70
13, 28560, Note_on_c, 9, 37, 70
13, 28610, Note_off_c, 9, 37, 64
13, 28610, Note_off_c, 9, 42, 64
13, 28720, Note_on_c, 9, 35, 50
13, 28720, Note_on_c, 9, 42, 50
13, 28770, Note_off_c, 9, 42, 64
13, 28770, Note_off_c, 9, 35, 64
13, 28800, Note_on_c, 9, 35, 70
13, 28800, Note_on_c, 9, 42, 70
13, 28850, Note_off_c, 9, 42, 64
13, 28850, Note_off_c, 9, 35, 64
13, 28960, Note_on_c, 9, 42, 50
13, 29010, Note_off_c, 9, 42, 64
13, 29040, Note_on_c, 9, 42, 70
13, 29040, Note_on_c, 9, 37, 70
13, 29090, Note_off_c, 9, 37, 64
13, 29090, Note_off_c, 9, 42, 64
13, 29200, Note_on_c, 9, 35, 50
13, 29200, Note_on_c, 9, 42, 50
13, 29250, Note_off_c, 9, 42, 64
13, 29250, Note_off_c, 9, 35, 64
13, 29280, Note_on_c, 9, 35, 70
13, 29280, Note_on_c, 9, 42, 70
13, 29330, Note_off_c, 9, 42, 64
13, 29330, Note_off_c, 9, 35, 64
13, 29440, Note_on_c, 9, 42, 50
13, 29490, Note_off_c, 9, 42, 64
13, 29520, Note_on_c, 9, 42, 70
13, 29520, Note_on_c, 9, 37, 70
13, 29570, Note_off_c, 9, 37, 64
13, 29570, Note_off_c, 9, 42, 64
13, 29680, Note_on_c, 9, 35, 50
13, 29680, Note_on_c, 9, 42, 50
13, 29730, Note_off_c, 9, 42, 64
13, 29730, Note_off_c, 9, 35, 64
13, 29760, Note_on_c, 9, 35, 70
13, 29760, Note_on_c, 9, 42, 70
13, 29810, Note_off_c, 9, 42, 64
13, 29810, Note_off_c, 9, 35, 64
13, 29920, Note_on_c, 9, 42, 50
13, 29970, Note_off_c, 9, 42, 64
13, 30000, Note_on_c, 9, 42, 70
13, 30000, Note_on_c, 9, 37, 70
13, 30050, Note_off_c, 9, 37, 64
13, 30050, Note_off_c, 9, 42, 64
13, 30160, Note_on_c, 9, 35, 50
13, 30160, Note_on_c, 9, 42, 50
13, 30210, Note_off_c, 9, 42, 64
13, 30210, Note_off_c, 9, 35, 64
13, 30240, Note_on_c, 9, 35, 70
13, 30240, Note_on_c, 9, 42, 70
13, 30290, Note_off_c, 9, 42, 64
13, 30290, Note_off_c, 9, 35, 64
13, 30400, Note_on_c, 9, 42, 50
13, 30450, Note_off_c, 9, 42, 64
13, 30480, Note_on_c, 9, 42, 70
13, 30480, Note_on_c, 9, 37, 70
13, 30530, Note_off_c, 9, 37, 64
13, 30530, Note_off_c, 9, 42, 64
13, 30640, Note_on_c, 9, 35, 50
13, 30640, Note_on_c, 9, 42, 50
13, 30690, Note_off_c, 9, 42, 64
13, 30690, Note_off_c, 9, 35, 64
13, 30720, Note_on_c, 9, 35, 70
13, 30720, Note_on_c, 9, 42, 70
13, 30770, Note_off_c, 9, 42, 64
13, 30770, Note_off_c, 9, 35, 64
13, 30880, Note_on_c, 9, 42, 50
13, 30930, Note_off_c, 9, 42, 64
13, 30960, Note_on_c, 9, 42, 70
13, 30960, Note_on_c, 9, 37, 70
13, 31010, Note_off_c, 9, 37, 64
13, 31010, Note_off_c, 9, 42, 64
13, 31120, Note_on_c, 9, 35, 50
13, 31120, Note_on_c, 9, 42, 50
13, 31170, Note_off_c, 9, 42, 64
13, 31170, Note_off_c, 9, 35, 64
13, 31200, Note_on_c, 9, 35, 70
13, 31200, Note_on_c, 9, 42, 70
13, 31250, Note_off_c, 9, 42, 64
13, 31250, Note_off_c, 9, 35, 64
13, 31360, Note_on_c, 9, 42, 50
13, 31410, Note_off_c, 9, 42, 64
13, 31440, Note_on_c, 9, 42, 70
13, 31440, Note_on_c, 9, 37, 70
13, 31490, Note_off_c, 9, 37, 64
13, 31490, Note_off_c, 9, 42, 64
13, 31600, Note_on_c, 9, 35, 50
13, 31600, Note_on_c, 9, 42, 50
13, 31650, Note_off_c, 9, 42, 64
13, 31650, Note_off_c, 9, 35, 64
13, 31680, Note_on_c, 9, 35, 70
13, 31680, Note_on_c, 9, 42, 70
13, 31730, Note_off_c, 9, 42, 64
13, 31730, Note_off_c, 9, 35, 64
13, 31840, Note_on_c, 9, 42, 50
13, 31890, Note_off_c, 9, 42, 64
13, 31920, Note_on_c, 9, 38, 80
13, 31920, Note_on_c, 9, 42, 70
13, 31920, Note_on_c, 9, 37, 70
13, 31970, Note_off_c, 9, 37, 64
13, 31970, Note_off_c, 9, 42, 64
13, 31970, Note_off_c, 9, 38, 64
13, 32080, Note_on_c, 9, 35, 50
13, 32080, Note_on_c, 9, 38, 50
13, 32080, Note_on_c, 9, 42, 50
13, 32130, Note_off_c, 9, 42, 64
13, 32130, Note_off_c, 9, 38, 64
13, 32130, Note_off_c, 9, 35, 64
13, 32160, Note_on_c, 9, 35, 70
13, 32160, Note_on_c, 9, 38, 80
13, 32160, Note_on_c, 9, 42, 70
13, 32210, Note_off_c, 9, 42, 64
13, 32210, Note_off_c, 9, 38, 64
13, 32210, Note_off_c, 9, 35, 64
13, 32240, Note_on_c, 9, 38, 40
13, 32290, Note_off_c, 9, 38, 64
13, 32320, Note_on_c, 9, 38, 50
13, 32320, Note_on_c, 9, 42, 50
13, 32370, Note_off_c, 9, 42, 64
13, 32370, Note_off_c, 9, 38, 64
13, 32400, Note_on_c, 9, 38, 90
13, 32400, Note_on_c, 9, 42, 70
13, 32400, Note_on_c, 9, 37, 80
13, 32450, Note_off_c, 9, 37, 64
13, 32450, Note_off_c, 9, 42, 64
13, 32450, Note_off_c, 9, 38, 64
13, 32480, Note_on_c, 9, 38, 40
13, 32530, Note_off_c, 9, 38, 64
13, 32560, Note_on_c, 9, 35, 50
13, 32560, Note_on_c, 9, 38, 60
13, 32560, Note_on_c, 9, 42, 50
13, 32610, Note_off_c, 9, 42, 64
13, 32610, Note_off_c, 9, 38, 64
13, 32610, Note_off_c, 9, 35, 64
13, 32640, Note_on_c, 9, 35, 80
13, 32640, Note_on_c, 9, 42, 90
13, 32640, Note_on_c, 9, 49, 80
13, 32690, Note_off_c, 9, 49, 64
13, 32690, Note_off_c, 9, 42, 64
13, 32690, Note_off_c, 9, 35, 64
13, 32720, Note_on_c, 9, 42, 60
13, 32770, Note_off_c, 9, 42, 64
13, 32800, Note_on_c, 9, 42, 70
13, 32850, Note_off_c, 9, 42, 64
13, 32880, Note_on_c, 9, 38, 60
13, 32880, Note_on_c, 9, 42, 90
13, 32880, Note_on_c, 9, 37, 80
13, 32930, Note_off_c, 9, 37, 64
13, 32930, Note_off_c, 9, 42, 64
13, 32930, Note_off_c, 9, 38, 64
13, 32960, Note_on_c, 9, 42, 60
13, 33010, Note_off_c, 9, 42, 64
13, 33040, Note_on_c, 9, 35, 60
13, 33040, Note_on_c, 9, 38, 80
13, 33040, Note_on_c, 9, 42, 70
13, 33090, Note_off_c, 9, 42, 64
13, 33090, Note_off_c, 9, 38, 64
13, 33090, Note_off_c, 9, 35, 64
13, 33120, Note_on_c, 9, 35, 80
13, 33120, Note_on_c, 9, 42, 90
13, 33170, Note_off_c, 9, 42, 64
13, 33170, Note_off_c, 9, 35, 64
13, 33200, Note_on_c, 9, 42, 60
13, 33250, Note_off_c, 9, 42, 64
13, 33280, Note_on_c, 9, 42, 70
13, 33330, Note_off_c, 9, 42, 64
13, 33360, Note_on_c, 9, 38, 80
13, 33360, Note_on_c, 9, 42, 90
13, 33360, Note_on_c, 9, 37, 90
13, 33410, Note_off_c, 9, 37, 64
13, 33410, Note_off_c, 9, 42, 64
13, 33410, Note_off_c, 9, 38, 64
13, 33440, Note_on_c, 9, 42, 60
13, 33490, Note_off_c, 9, 42, 64
13, 33520, Note_on_c, 9, 35, 60
13, 33520, Note_on_c, 9, 42, 70
13, 33570, Note_off_c, 9, 42, 64
13, 33570, Note_off_c, 9, 35, 64
13, 33600, Note_on_c, 9, 35, 80
13, 33600, Note_on_c, 9, 42, 90
13, 33650, Note_off_c, 9, 42, 64
13, 33650, Note_off_c, 9, 35, 64
13, 33680, Note_on_c, 9, 42, 60
13, 33730, Note_off_c, 9, 42, 64
13, 33760, Note_on_c, 9, 42, 70
13, 33810, Note_off_c, 9, 42, 64
13, 33840, Note_on_c, 9, 38, 80
13, 33840, Note_on_c, 9, 42, 90
13, 33840, Note_on_c, 9, 37, 80
13, 33890, Note_off_c, 9, 37, 64
13, 33890, Note_off_c, 9, 42, 64
13, 33890, Note_off_c, 9, 38, 64
13, 33920, Note_on_c, 9, 42, 60
13, 33970, Note_off_c, 9, 42, 64
13, 34000, Note_on_c, 9, 35, 60
13, 34000, Note_on_c, 9, 38, 70
13, 34000, Note_on_c, 9, 42, 70
13, 34050, Note_off_c, 9, 42, 64
13, 34050, Note_off_c, 9, 38, 64
13, 34050, Note_off_c, 9, 35, 64
13, 34080, Note_on_c, 9, 35, 80
13, 34080, Note_on_c, 9, 42, 90
13, 34130, Note_off_c, 9, 42, 64
13, 34130, Note_off_c, 9, 35, 64
13, 34160, Note_on_c, 9, 42, 60
13, 34210, Note_off_c, 9, 42, 64
13, 34240, Note_on_c, 9, 42, 70
13, 34290, Note_off_c, 9, 42, 64
13, 34320, Note_on_c, 9, 38, 80
13, 34320, Note_on_c, 9, 42, 90
13, 34320, Note_on_c, 9, 37, 90
13, 34370, Note_off_c, 9, 37, 64
13, 34370, Note_off_c, 9, 42, 64
13, 34370, Note_off_c, 9, 38, 64
13, 34400, Note_on_c, 9, 42, 60
13, 34450, Note_off_c, 9, 42, 64
13, 34480, Note_on_c, 9, 35, 60
13, 34480, Note_on_c, 9, 42, 70
13, 34530, Note_off_c, 9, 42, 64
13, 34530, Note_off_c, 9, 35, 64
13, 34560, Note_on_c, 9, 35, 80
13, 34560, Note_on_c, 9, 42, 90
13, 34610, Note_off_c, 9, 42, 64
13, 34610, Note_off_c, 9, 35, 64
13, 34640, Note_on_c, 9, 42, 60
13, 34690, Note_off_c, 9, 42, 64
13, 34720, Note_on_c, 9, 42, 70
13, 34770, Note_off_c, 9, 42, 64
13, 34800, Note_on_c, 9, 38, 80
13, 34800, Note_on_c, 9, 42, 90
13, 34800, Note_on_c, 9, 37, 80
13, 34850, Note_off_c, 9, 37, 64
13, 34850, Note_off_c, 9, 42, 64
13, 34850, Note_off_c, 9, 38, 64
13, 34880, Note_on_c, 9, 42, 60
13, 34930, Note_off_c, 9, 42, 64
13, 34960, Note_on_c, 9, 35, 60
13, 34960, Note_on_c, 9, 38, 70
13, 34960, Note_on_c, 9, 42, 70
13, 35010, Note_off_c, 9, 42, 64
13, 35010, Note_off_c, 9, 38, 64
13, 35010, Note_off_c, 9, 35, 64
13, 35040, Note_on_c, 9, 35, 80
13, 35040, Note_on_c, 9, 42, 90
13, 35090, Note_off_c, 9, 42, 64
13, 35090, Note_off_c, 9, 35, 64
13, 35120, Note_on_c, 9, 42, 60
13, 35170, Note_off_c, 9, 42, 64
13, 35200, Note_on_c, 9, 42, 70
13, 35250, Note_off_c, 9, 42, 64
13, 35280, Note_on_c, 9, 38, 80
13, 35280, Note_on_c, 9, 42, 90
13, 35280, Note_on_c, 9, 37, 90
13, 35330, Note_off_c, 9, 37, 64
13, 35330, Note_off_c, 9, 42, 64
13, 35330, Note_off_c, 9, 38, 64
13, 35360, Note_on_c, 9, 42, 60
13, 35410, Note_off_c, 9, 42, 64
13, 35440, Note_on_c, 9, 35, 60
13, 35440, Note_on_c, 9, 46, 72
13, 35490, Note_off_c, 9, 46, 64
13, 35490, Note_off_c, 9, 35, 64
13, 35520, Note_on_c, 9, 35, 80
13, 35520, Note_on_c, 9, 42, 90
13, 35570, Note_off_c, 9, 42, 64
13, 35570, Note_off_c, 9, 35, 64
13, 35600, Note_on_c, 9, 42, 60
13, 35650, Note_off_c, 9, 42, 64
13, 35680, Note_on_c, 9, 42, 70
13, 35730, Note_off_c, 9, 42, 64
13, 35760, Note_on_c, 9, 38, 80
13, 35760, Note_on_c, 9, 42, 90
13, 35760, Note_on_c, 9, 37, 80
13, 35810, Note_off_c, 9, 37, 64
13, 35810, Note_off_c, 9, 42, 64
13, 35810, Note_off_c, 9, 38, 64
13, 35840, Note_on_c, 9, 42, 60
13, 35890, Note_off_c, 9, 42, 64
13, 35920, Note_on_c, 9, 35, 60
13, 35920, Note_on_c, 9, 38, 80
13, 35920, Note_on_c, 9, 42, 70
13, 35970, Note_off_c, 9, 42, 64
13, 35970, Note_off_c, 9, 38, 64
13, 35970, Note_off_c, 9, 35, 64
13, 36000, Note_on_c, 9, 35, 80
13, 36000, Note_on_c, 9, 42, 90
13, 36050, Note_off_c, 9, 42, 64
13, 36050, Note_off_c, 9, 35, 64
13, 36080, Note_on_c, 9, 42, 60
13, 36130, Note_off_c, 9, 42, 64
13, 36160, Note_on_c, 9, 42, 70
13, 36210, Note_off_c, 9, 42, 64
13, 36240, Note_on_c, 9, 38, 80
13, 36240, Note_on_c, 9, 42, 90
13, 36240, Note_on_c, 9, 37, 90
13, 36290, Note_off_c, 9, 37, 64
13, 36290, Note_off_c, 9, 42, 64
13, 36290, Note_off_c, 9, 38, 64
13, 36320, Note_on_c, 9, 42, 60
13, 36370, Note_off_c, 9, 42, 64
13, 36400, Note_on_c, 9, 35, 60
13, 36400, Note_on_c, 9, 42, 70
13, 36450, Note_off_c, 9, 42, 64
13, 36450, Note_off_c, 9, 35, 64
13, 36480, Note_on_c, 9, 35, 80
13, 36480, Note_on_c, 9, 42, 90
13, 36530, Note_off_c, 9, 42, 64
13, 36530, Note_off_c, 9, 35, 64
13, 36560, Note_on_c, 9, 42, 60
13, 36610, Note_off_c, 9, 42, 64
13, 36640, Note_on_c, 9, 42, 70
13, 36690, Note_off_c, 9, 42, 64
13, 36720, Note_on_c, 9, 38, 80
13, 36720, Note_on_c, 9, 42, 90
13, 36720, Note_on_c, 9, 37, 80
13, 36770, Note_off_c, 9, 37, 64
13, 36770, Note_off_c, 9, 42, 64
13, 36770, Note_off_c, 9, 38, 64
13, 36800, Note_on_c, 9, 42, 60
13, 36850, Note_off_c, 9, 42, 64
13, 36880, Note_on_c, 9, 35, 60
13, 36880, Note_on_c, 9, 38, 70
13, 36880, Note_on_c, 9, 42, 70
13, 36930, Note_off_c, 9, 42, 64
13, 36930, Note_off_c, 9, 38, 64
13, 36930, Note_off_c, 9, 35, 64
13, 36960, Note_on_c, 9, 35, 80
13, 36960, Note_on_c, 9, 42, 90
13, 37010, Note_off_c, 9, 42, 64
13, 37010, Note_off_c, 9, 35, 64
13, 37040, Note_on_c, 9, 42, 60
13, 37090, Note_off_c, 9, 42, 64
13, 37120, Note_on_c, 9, 42, 70
13, 37170, Note_off_c, 9, 42, 64
13, 37200, Note_on_c, 9, 38, 80
13, 37200, Note_on_c, 9, 42, 90
13, 37200, Note_on_c, 9, 37, 90
13, 37250, Note_off_c, 9, 37, 64
13, 37250, Note_off_c, 9, 42, 64
13, 37250, Note_off_c, 9, 38, 64
13, 37280, Note_on_c, 9, 42, 60
13, 37330, Note_off_c, 9, 42, 64
13, 37360, Note_on_c, 9, 35, 60
13, 37360, Note_on_c, 9, 46, 72
13, 37410, Note_off_c, 9, 46, 64
13, 37410, Note_off_c, 9, 35, 64
13, 37440, Note_on_c, 9, 35, 80
13, 37440, Note_on_c, 9, 42, 90
13, 37490, Note_off_c, 9, 42, 64
13, 37490, Note_off_c, 9, 35, 64
13, 37520, Note_on_c, 9, 42, 60
13, 37570, Note_off_c, 9, 42, 64
13, 37600, Note_on_c, 9, 42, 70
13, 37650, Note_off_c, 9, 42, 64
13, 37680, Note_on_c, 9, 38, 80
13, 37680, Note_on_c, 9, 42, 90
13, 37680, Note_on_c, 9, 37, 80
13, 37730, Note_off_c, 9, 37, 64
13, 37730, Note_off_c, 9, 42, 64
13, 37730, Note_off_c, 9, 38, 64
13, 37760, Note_on_c, 9, 42, 60
13, 37810, Note_off_c, 9, 42, 64
13, 37840, Note_on_c, 9, 35, 60
13, 37840, Note_on_c, 9, 38, 80
13, 37840, Note_on_c, 9, 42, 70
13, 37890, Note_off_c, 9, 42, 64
13, 37890, Note_off_c, 9, 38, 64
13, 37890, Note_off_c, 9, 35, 64
13, 37920, Note_on_c, 9, 35, 80
13, 37920, Note_on_c, 9, 42, 90
13, 37970, Note_off_c, 9, 42, 64
13, 37970, Note_off_c, 9, 35, 64
13, 38000, Note_on_c, 9, 42, 60
13, 38050, Note_off_c, 9, 42, 64
13, 38080, Note_on_c, 9, 42, 70
13, 38130, Note_off_c, 9, 42, 64
13, 38160, Note_on_c, 9, 38, 80
13, 38160, Note_on_c, 9, 42, 90
13, 38160, Note_on_c, 9, 37, 90
13, 38210, Note_off_c, 9, 37, 64
13, 38210, Note_off_c, 9, 42, 64
13, 38210, Note_off_c, 9, 38, 64
13, 38240, Note_on_c, 9, 42, 60
13, 38290, Note_off_c, 9, 42, 64
13, 38320, Note_on_c, 9, 35, 60
13, 38320, Note_on_c, 9, 46, 72
13, 38370, Note_off_c, 9, 46, 64
13, 38370, Note_off_c, 9, 35, 64
13, 38400, Note_on_c, 9, 35, 80
13, 38400, Note_on_c, 9, 42, 90
13, 38450, Note_off_c, 9, 42, 64
13, 38450, Note_off_c, 9, 35, 64
13, 38480, Note_on_c, 9, 42, 60
13, 38530, Note_off_c, 9, 42, 64
13, 38560, Note_on_c, 9, 42, 70
13, 38610, Note_off_c, 9, 42, 64
13, 38640, Note_on_c, 9, 38, 80
13, 38640, Note_on_c, 9, 42, 90
13, 38640, Note_on_c, 9, 37, 80
13, 38690, Note_off_c, 9, 37, 64
13, 38690, Note_off_c, 9, 42, 64
13, 38690, Note_off_c, 9, 38, 64
13, 38720, Note_on_c, 9, 42, 60
13, 38770, Note_off_c, 9, 42, 64
13, 38800, Note_on_c, 9, 35, 60
13, 38800, Note_on_c, 9, 38, 70
13, 38800, Note_on_c, 9, 42, 70
13, 38850, Note_off_c, 9, 42, 64
13, 38850, Note_off_c, 9, 38, 64
13, 38850, Note_off_c, 9, 35, 64
13, 38880, Note_on_c, 9, 35, 80
13, 38880, Note_on_c, 9, 42, 90
13, 38930, Note_off_c, 9, 42, 64
13, 38930, Note_off_c, 9, 35, 64
13, 38960, Note_on_c, 9, 42, 60
13, 39010, Note_off_c, 9, 42, 64
13, 39040, Note_on_c, 9, 42, 70
13, 39090, Note_off_c, 9, 42, 64
13, 39120, Note_on_c, 9, 38, 80
13, 39120, Note_on_c, 9, 42, 90
13, 39120, Note_on_c, 9, 37, 90
13, 39170, Note_off_c, 9, 37, 64
13, 39170, Note_off_c, 9, 42, 64
13, 39170, Note_off_c, 9, 38, 64
13, 39200, Note_on_c, 9, 42, 60
13, 39250, Note_off_c, 9, 42, 64
13, 39280, Note_on_c, 9, 35, 60
13, 39280, Note_on_c, 9, 42, 70
13, 39330, Note_off_c, 9, 42, 64
13, 39330, Note_off_c, 9, 35, 64
13, 39360, Note_on_c, 9, 35, 80
13, 39360, Note_on_c, 9, 42, 90
13, 39410, Note_off_c, 9, 42, 64
13, 39410, Note_off_c, 9, 35, 64
13, 39440, Note_on_c, 9, 42, 60
13, 39490, Note_off_c, 9, 42, 64
13, 39520, Note_on_c, 9, 42, 70
13, 39570, Note_off_c, 9, 42, 64
13, 39600, Note_on_c, 9, 38, 80
13, 39600, Note_on_c, 9, 42, 90
13, 39600, Note_on_c, 9, 37, 80
13, 39650, Note_off_c, 9, 37, 64
13, 39650, Note_off_c, 9, 42, 64
13, 39650, Note_off_c, 9, 38, 64
13, 39680, Note_on_c, 9, 42, 60
13, 39730, Note_off_c, 9, 42, 64
13, 39760, Note_on_c, 9, 35, 60
13, 39760, Note_on_c, 9, 38, 50
13, 39760, Note_on_c, 9, 42, 70
13, 39810, Note_off_c, 9, 42, 64
13, 39810, Note_off_c, 9, 38, 64
13, 39810, Note_off_c, 9, 35, 64
13, 39840, Note_on_c, 9, 35, 80
13, 39840, Note_on_c, 9, 38, 90
13, 39840, Note_on_c, 9, 42, 90
13, 39890, Note_off_c, 9, 42, 64
13, 39890, Note_off_c, 9, 38, 64
13, 39890, Note_off_c, 9, 35, 64
13, 39920, Note_on_c, 9, 38, 50
13, 39920, Note_on_c, 9, 42, 60
13, 39970, Note_off_c, 9, 42, 64
13, 39970, Note_off_c, 9, 38, 64
13, 40000, Note_on_c, 9, 38, 70
13, 40000, Note_on_c, 9, 42, 70
13, 40050, Note_off_c, 9, 42, 64
13, 40050, Note_off_c, 9, 38, 64
13, 40080, Note_on_c, 9, 35, 80
13, 40080, Note_on_c, 9, 38, 80
13, 40080, Note_on_c, 9, 42, 90
13, 40080, Note_on_c, 9, 37, 90
13, 40130, Note_off_c, 9, 37, 64
13, 40130, Note_off_c, 9, 42, 64
13, 40130, Note_off_c, 9, 38, 64
13, 40130, Note_off_c, 9, 35, 64
13, 40160, Note_on_c, 9, 38, 50
13, 40160, Note_on_c, 9, 42, 60
13, 40210, Note_off_c, 9, 42, 64
13, 40210, Note_off_c, 9, 38, 64
13, 40240, Note_on_c, 9, 35, 60
13, 40240, Note_on_c, 9, 38, 70
13, 40240, Note_on_c, 9, 42, 70
13, 40290, Note_off_c, 9, 42, 64
13, 40290, Note_off_c, 9, 38, 64
13, 40290, Note_off_c, 9, 35, 64
13, 40320, Note_on_c, 9, 35, 80
13, 40320, Note_on_c, 9, 42, 90
13, 40320, Note_on_c, 9, 49, 80
13, 40370, Note_off_c, 9, 49, 64
13, 40370, Note_off_c, 9, 42, 64
13, 40370, Note_off_c, 9, 35, 64
13, 40400, Note_on_c, 9, 42, 60
13, 40450, Note_off_c, 9, 42, 64
13, 40480, Note_on_c, 9, 42, 70
13, 40530, Note_off_c, 9, 42, 64
13, 40560, Note_on_c, 9, 38, 60
13, 40560, Note_on_c, 9, 42, 90
13, 40560, Note_on_c, 9, 37, 80
13, 40610, Note_off_c, 9, 37, 64
13, 40610, Note_off_c, 9, 42, 64
13, 40610, Note_off_c, 9, 38, 64
13, 40640, Note_on_c, 9, 42, 60
13, 40690, Note_off_c, 9, 42, 64
13, 40720, Note_on_c, 9, 35, 60
13, 40720, Note_on_c, 9, 38, 80
13, 40720, Note_on_c, 9, 42, 70
13, 40770, Note_off_c, 9, 42, 64
13, 40770, Note_off_c, 9, 38, 64
13, 40770, Note_off_c, 9, 35, 64
13, 40800, Note_on_c, 9, 35, 80
13, 40800, Note_on_c, 9, 42, 90
13, 40850, Note_off_c, 9, 42, 64
13, 40850, Note_off_c, 9, 35, 64
13, 40880, Note_on_c, 9, 42, 60
13, 40930, Note_off_c, 9, 42, 64
13, 40960, Note_on_c, 9, 42, 70
13, 41010, Note_off_c, 9, 42, 64
13, 41040, Note_on_c, 9, 38, 80
13, 41040, Note_on_c, 9, 42, 90
13, 41040, Note_on_c, 9, 37, 90
13, 41090, Note_off_c, 9, 37, 64
13, 41090, Note_off_c, 9, 42, 64
13, 41090, Note_off_c, 9, 38, 64
13, 41120, Note_on_c, 9, 42, 60
13, 41170, Note_off_c, 9, 42, 64
13, 41200, Note_on_c, 9, 35, 60
13, 41200, Note_on_c, 9, 46, 72
13, 41250, Note_off_c, 9, 46, 64
13, 41250, Note_off_c, 9, 35, 64
13, 41280, Note_on_c, 9, 35, 80
13, 41280, Note_on_c, 9, 42, 90
13, 41330, Note_off_c, 9, 42, 64
13, 41330, Note_off_c, 9, 35, 64
13, 41360, Note_on_c, 9, 42, 60
13, 41410, Note_off_c, 9, 42, 64
13, 41440, Note_on_c, 9, 42, 70
13, 41490, Note_off_c, 9, 42, 64
13, 41520, Note_on_c, 9, 38, 80
13, 41520, Note_on_c, 9, 42, 90
13, 41520, Note_on_c, 9, 37, 80
13, 41570, Note_off_c, 9, 37, 64
13, 41570, Note_off_c, 9, 42, 64
13, 41570, Note_off_c, 9, 38, 64
13, 41600, Note_on_c, 9, 42, 60
13, 41650, Note_off_c, 9, 42, 64
13, 41680, Note_on_c, 9, 35, 60
13, 41680, Note_on_c, 9, 38, 70
13, 41680, Note_on_c, 9, 42, 70
13, 41730, Note_off_c, 9, 42, 64
13, 41730, Note_off_c, 9, 38, 64
13, 41730, Note_off_c, 9, 35, 64
13, 41760, Note_on_c, 9, 35, 80
13, 41760, Note_on_c, 9, 42, 90
13, 41810, Note_off_c, 9, 42, 64
13, 41810, Note_off_c, 9, 35, 64
13, 41840, Note_on_c, 9, 42, 60
13, 41890, Note_off_c, 9, 42, 64
13, 41920, Note_on_c, 9, 42, 70
13, 41970, Note_off_c, 9, 42, 64
13, 42000, Note_on_c, 9, 38, 80
13, 42000, Note_on_c, 9, 42, 90
13, 42000, Note_on_c, 9, 37, 90
13, 42050, Note_off_c, 9, 37, 64
13, 42050, Note_off_c, 9, 42, 64
13, 42050, Note_off_c, 9, 38, 64
13, 42080, Note_on_c, 9, 42, 60
13, 42130, Note_off_c, 9, 42, 64
13, 42160, Note_on_c, 9, 35, 60
13, 42160, Note_on_c, 9, 42, 70
13, 42210, Note_off_c, 9, 42, 64
13, 42210, Note_off_c, 9, 35, 64
13, 42240, Note_on_c, 9, 35, 80
13, 42240, Note_on_c, 9, 42, 90
13, 42290, Note_off_c, 9, 42, 64
13, 42290, Note_off_c, 9, 35, 64
13, 42320, Note_on_c, 9, 42, 60
13, 42370, Note_off_c, 9, 42, 64
13, 42400, Note_on_c, 9, 42, 70
13, 42450, Note_off_c, 9, 42, 64
13, 42480, Note_on_c, 9, 38, 80
13, 42480, Note_on_c, 9, 42, 90
13, 42480, Note_on_c, 9, 37, 80
13, 42530, Note_off_c, 9, 37, 64
13, 42530, Note_off_c, 9, 42, 64
13, 42530, Note_off_c, 9, 38, 64
13, 42560, Note_on_c, 9, 42, 60
13, 42610, Note_off_c, 9, 42, 64
13, 42640, Note_on_c, 9, 35, 60
13, 42640, Note_on_c, 9, 38, 80
13, 42640, Note_on_c, 9, 42, 70
13, 42690, Note_off_c, 9, 42, 64
13, 42690, Note_off_c, 9, 38, 64
13, 42690, Note_off_c, 9, 35, 64
13, 42720, Note_on_c, 9, 35, 80
13, 42720, Note_on_c, 9, 42, 90
13, 42770, Note_off_c, 9, 42, 64
13, 42770, Note_off_c, 9, 35, 64
13, 42800, Note_on_c, 9, 42, 60
13, 42850, Note_off_c, 9, 42, 64
13, 42880, Note_on_c, 9, 42, 70
13, 42930, Note_off_c, 9, 42, 64
13, 42960, Note_on_c, 9, 38, 80
13, 42960, Note_on_c, 9, 42, 90
13, 42960, Note_on_c, 9, 37, 90
13, 43010, Note_off_c, 9, 37, 64
13, 43010, Note_off_c, 9, 42, 64
13, 43010, Note_off_c, 9, 38, 64
13, 43040, Note_on_c, 9, 42, 60
13, 43090, Note_off_c, 9, 42, 64
13, 43120, Note_on_c, 9, 35, 60
13, 43120, Note_on_c, 9, 42, 70
13, 43170, Note_off_c, 9, 42, 64
13, 43170, Note_off_c, 9, 35, 64
13, 43200, Note_on_c, 9, 35, 80
13, 43200, Note_on_c, 9, 42, 90
13, 43250, Note_off_c, 9, 42, 64
13, 43250, Note_off_c, 9, 35, 64
13, 43280, Note_on_c, 9, 42, 60
13, 43330, Note_off_c, 9, 42, 64
13, 43360, Note_on_c, 9, 42, 70
13, 43410, Note_off_c, 9, 42, 64
13, 43440, Note_on_c, 9, 38, 80
13, 43440, Note_on_c, 9, 42, 90
13, 43440, Note_on_c, 9, 37, 80
13, 43490, Note_off_c, 9, 37, 64
13, 43490, Note_off_c, 9, 42, 64
13, 43490, Note_off_c, 9, 38, 64
13, 43520, Note_on_c, 9, 42, 60
13, 43570, Note_off_c, 9, 42, 64
13, 43600, Note_on_c, 9, 35, 60
13, 43600, Note_on_c, 9, 38, 70
13, 43600, Note_on_c, 9, 42, 70
13, 43650, Note_off_c, 9, 42, 64
13, 43650, Note_off_c, 9, 38, 64
13, 43650, Note_off_c, 9, 35, 64
13, 43680, Note_on_c, 9, 35, 80
13, 43680, Note_on_c, 9, 42, 90
13, 43730, Note_off_c, 9, 42, 64
13, 43730, Note_off_c, 9, 35, 64
13, 43760, Note_on_c, 9, 42, 60
13, 43810, Note_off_c, 9, 42, 64
13, 43840, Note_on_c, 9, 42, 70
13, 43890, Note_off_c, 9, 42, 64
13, 43920, Note_on_c, 9, 38, 80
13, 43920, Note_on_c, 9, 42, 90
13, 43920, Note_on_c, 9, 37, 90
13, 43970, Note_off_c, 9, 37, 64
13, 43970, Note_off_c, 9, 42, 64
13, 43970, Note_off_c, 9, 38, 64
13, 44000, Note_on_c, 9, 42, 60
13, 44050, Note_off_c, 9, 42, 64
13, 44080, Note_on_c, 9, 35, 60
13, 44080, Note_on_c, 9, 46, 72
13, 44130, Note_off_c, 9, 46, 64
13, 44130, Note_off_c, 9, 35, 64
13, 44160, Note_on_c, 9, 35, 80
13, 44160, Note_on_c, 9, 42, 90
13, 44210, Note_off_c, 9, 42, 64
13, 44210, Note_off_c, 9, 35, 64
13, 44240, Note_on_c, 9, 42, 60
13, 44290, Note_off_c, 9, 42, 64
13, 44320, Note_on_c, 9, 42, 70
13, 44370, Note_off_c, 9, 42, 64
13, 44400, Note_on_c, 9, 38, 80
13, 44400, Note_on_c, 9, 42, 90
13, 44400, Note_on_c, 9, 37, 80
13, 44450, Note_off_c, 9, 37, 64
13, 44450, Note_off_c, 9, 42, 64
13, 44450, Note_off_c, 9, 38, 64
13, 44480, Note_on_c, 9, 42, 60
13, 44530, Note_off_c, 9, 42, 64
13, 44560, Note_on_c, 9, 35, 60
13, 44560, Note_on_c, 9, 38, 80
13, 44560, Note_on_c, 9, 42, 70
13, 44610, Note_off_c, 9, 42, 64
13, 44610, Note_off_c, 9, 38, 64
13, 44610, Note_off_c, 9, 35, 64
13, 44640, Note_on_c, 9, 35, 80
13, 44640, Note_on_c, 9, 42, 90
13, 44690, Note_off_c, 9, 42, 64
13, 44690, Note_off_c, 9, 35, 64
13, 44720, Note_on_c, 9, 42, 60
13, 44770, Note_off_c, 9, 42, 64
13, 44800, Note_on_c, 9, 42, 70
13, 44850, Note_off_c, 9, 42, 64
13, 44880, Note_on_c, 9, 38, 80
13, 44880, Note_on_c, 9, 42, 90
13, 44880, Note_on_c, 9, 37, 90
13, 44930, Note_off_c, 9, 37, 64
13, 44930, Note_off_c, 9, 42, 64
13, 44930, Note_off_c, 9, 38, 64
13, 44960, Note_on_c, 9, 42, 60
13, 45010, Note_off_c, 9, 42, 64
13, 45040, Note_on_c, 9, 35, 60
13, 45040, Note_on_c, 9, 46, 72
13, 45090, Note_off_c, 9, 46, 64
13, 45090, Note_off_c, 9, 35, 64
13, 45120, Note_on_c, 9, 35, 80
13, 45120, Note_on_c, 9, 42, 90
13, 45170, Note_off_c, 9, 42, 64
13, 45170, Note_off_c, 9, 35, 64
13, 45200, Note_on_c, 9, 42, 60
13, 45250, Note_off_c, 9, 42, 64
13, 45280, Note_on_c, 9, 42, 70
13, 45330, Note_off_c, 9, 42, 64
13, 45360, Note_on_c, 9, 38, 80
13, 45360, Note_on_c, 9, 42, 90
13, 45360, Note_on_c, 9, 37, 80
13, 45410, Note_off_c, 9, 37, 64
13, 45410, Note_off_c, 9, 42, 64
13, 45410, Note_off_c, 9, 38, 64
13, 45440, Note_on_c, 9, 42, 60
13, 45490, Note_off_c, 9, 42, 64
13, 45520, Note_on_c, 9, 35, 60
13, 45520, Note_on_c, 9, 38, 70
13, 45520, Note_on_c, 9, 42, 70
13, 45570, Note_off_c, 9, 42, 64
13, 45570, Note_off_c, 9, 38, 64
13, 45570, Note_off_c, 9, 35, 64
13, 45600, Note_on_c, 9, 35, 80
13, 45600, Note_on_c, 9, 42, 90
13, 45650, Note_off_c, 9, 42, 64
13, 45650, Note_off_c, 9, 35, 64
13, 45680, Note_on_c, 9, 42, 60
13, 45730, Note_off_c, 9, 42, 64
13, 45760, Note_on_c, 9, 42, 70
13, 45810, Note_off_c, 9, 42, 64
13, 45840, Note_on_c, 9, 38, 80
13, 45840, Note_on_c, 9, 42, 90
13, 45840, Note_on_c, 9, 37, 90
13, 45890, Note_off_c, 9, 37, 64
13, 45890, Note_off_c, 9, 42, 64
13, 45890, Note_off_c, 9, 38, 64
13, 45920, Note_on_c, 9, 42, 60
13, 45970, Note_off_c, 9, 42, 64
13, 46000, Note_on_c, 9, 35, 60
13, 46000, Note_on_c, 9, 46, 72
13, 46050, Note_off_c, 9, 46, 64
13, 46050, Note_off_c, 9, 35, 64
13, 46080, Note_on_c, 9, 35, 80
13, 46080, Note_on_c, 9, 42, 90
13, 46130, Note_off_c, 9, 42, 64
13, 46130, Note_off_c, 9, 35, 64
13, 46160, Note_on_c, 9, 42, 60
13, 46210, Note_off_c, 9, 42, 64
13, 46240, Note_on_c, 9, 42, 70
13, 46290, Note_off_c, 9, 42, 64
13, 46320, Note_on_c, 9, 38, 80
13, 46320, Note_on_c, 9, 42, 90
13, 46320, Note_on_c, 9, 37, 80
13, 46370, Note_off_c, 9, 37, 64
13, 46370, Note_off_c, 9, 42, 64
13, 46370, Note_off_c, 9, 38, 64
13, 46400, Note_on_c, 9, 42, 60
13, 46450, Note_off_c, 9, 42, 64
13, 46480, Note_on_c, 9, 35, 60
13, 46480, Note_on_c, 9, 38, 70
13, 46480, Note_on_c, 9, 42, 70
13, 46530, Note_off_c, 9, 42, 64
13, 46530, Note_off_c, 9, 38, 64
13, 46530, Note_off_c, 9, 35, 64
13, 46560, Note_on_c, 9, 35, 80
13, 46560, Note_on_c, 9, 42, 90
13, 46610, Note_off_c, 9, 42, 64
13, 46610, Note_off_c, 9, 35, 64
13, 46640, Note_on_c, 9, 42, 60
13, 46690, Note_off_c, 9, 42, 64
13, 46720, Note_on_c, 9, 42, 70
13, 46770, Note_off_c, 9, 42, 64
13, 46800, Note_on_c, 9, 38, 80
13, 46800, Note_on_c, 9, 42, 90
13, 46800, Note_on_c, 9, 37, 90
13, 46850, Note_off_c, 9, 37, 64
13, 46850, Note_off_c, 9, 42, 64
13, 46850, Note_off_c, 9, 38, 64
13, 46880, Note_on_c, 9, 42, 60
13, 46930, Note_off_c, 9, 42, 64
13, 46960, Note_on_c, 9, 35, 60
13, 46960, Note_on_c, 9, 46, 72
13, 47010, Note_off_c, 9, 46, 64
13, 47010, Note_off_c, 9, 35, 64
13, 47040, Note_on_c, 9, 35, 80
13, 47040, Note_on_c, 9, 42, 90
13, 47090, Note_off_c, 9, 42, 64
13, 47090, Note_off_c, 9, 35, 64
13, 47120, Note_on_c, 9, 42, 60
13, 47170, Note_off_c, 9, 42, 64
13, 47200, Note_on_c, 9, 42, 70
13, 47250, Note_off_c, 9, 42, 64
13, 47280, Note_on_c, 9, 38, 80
13, 47280, Note_on_c, 9, 42, 90
13, 47280, Note_on_c, 9, 37, 80
13, 47330, Note_off_c, 9, 37, 64
13, 47330, Note_off_c, 9, 42, 64
13, 47330, Note_off_c, 9, 38, 64
13, 47360, Note_on_c, 9, 42, 60
13, 47410, Note_off_c, 9, 42, 64
13, 47440, Note_on_c, 9, 35, 60
13, 47440, Note_on_c, 9, 38, 50
13, 47440, Note_on_c, 9, 42, 70
13, 47490, Note_off_c, 9, 42, 64
13, 47490, Note_off_c, 9, 38, 64
13, 47490, Note_off_c, 9, 35, 64
13, 47520, Note_on_c, 9, 35, 80
13, 47520, Note_on_c, 9, 38, 90
13, 47520, Note_on_c, 9, 42, 90
13, 47570, Note_off_c, 9, 42, 64
13, 47570, Note_off_c, 9, 38, 64
13, 47570, Note_off_c, 9, 35, 64
13, 47600, Note_on_c, 9, 38, 50
13, 47600, Note_on_c, 9, 42, 60
13, 47650, Note_off_c, 9, 42, 64
13, 47650, Note_off_c, 9, 38, 64
13, 47680, Note_on_c, 9, 38, 70
13, 47680, Note_on_c, 9, 42, 70
13, 47730, Note_off_c, 9, 42, 64
13, 47730, Note_off_c, 9, 38, 64
13, 47760, Note_on_c, 9, 35, 80
13, 47760, Note_on_c, 9, 38, 80
13, 47760, Note_on_c, 9, 42, 90
13, 47760, Note_on_c, 9, 37, 90
13, 47810, Note_off_c, 9, 37, 64
13, 47810, Note_off_c, 9, 42, 64
13, 47810, Note_off_c, 9, 38, 64
13, 47810, Note_off_c, 9, 35, 64
13, 47840, Note_on_c, 9, 38, 50
13, 47840, Note_on_c, 9, 42, 60
13, 47890, Note_off_c, 9, 42, 64
13, 47890, Note_off_c, 9, 38, 64
13, 47920, Note_on_c, 9, 35, 60
13, 47920, Note_on_c, 9, 38, 70
13, 47920, Note_on_c, 9, 42, 70
13, 47970, Note_off_c, 9, 42, 64
13, 47970, Note_off_c, 9, 38, 64
13, 47970, Note_off_c, 9, 35, 64
13, 48000, Note_on_c, 9, 35, 80
13, 48000, Note_on_c, 9, 42, 90
13, 48000, Note_on_c, 9, 49, 80
13, 48050, Note_off_c, 9, 49, 64
13, 48050, Note_off_c, 9, 42, 64
13, 48050, Note_off_c, 9, 35, 64
13, 48080, Note_on_c, 9, 42, 60
13, 48130, Note_off_c, 9, 42, 64
13, 48160, Note_on_c, 9, 42, 70
13, 48210, Note_off_c, 9, 42, 64
13, 48240, Note_on_c, 9, 38, 60
13, 48240, Note_on_c, 9, 42, 90
13, 48240, Note_on_c, 9, 37, 80
13, 48290, Note_off_c, 9, 37, 64
13, 48290, Note_off_c, 9, 42, 64
13, 48290, Note_off_c, 9, 38, 64
13, 48320, Note_on_c, 9, 42, 60
13, 48370, Note_off_c, 9, 42, 64
13, 48400, Note_on_c, 9, 35, 60
13, 48400, Note_on_c, 9, 38, 80
13, 48400, Note_on_c, 9, 42, 70
13, 48450, Note_off_c, 9, 42, 64
13, 48450, Note_off_c, 9, 38, 64
13, 48450, Note_off_c, 9, 35, 64
13, 48480, Note_on_c, 9, 35, 80
13, 48480, Note_on_c, 9, 42, 90
13, 48530, Note_off_c, 9, 42, 64
13, 48530, Note_off_c, 9, 35, 64
13, 48560, Note_on_c, 9, 42, 60
13, 48610, Note_off_c, 9, 42, 64
13, 48640, Note_on_c, 9, 42, 70
13, 48690, Note_off_c, 9, 42, 64
13, 48720, Note_on_c, 9, 38, 80
13, 48720, Note_on_c, 9, 42, 90
13, 48720, Note_on_c, 9, 37, 90
13, 48770, Note_off_c, 9, 37, 64
13, 48770, Note_off_c, 9, 42, 64
13, 48770, Note_off_c, 9, 38, 64
13, 48800, Note_on_c, 9, 42, 60
13, 48850, Note_off_c, 9, 42, 64
13, 48880, Note_on_c, 9, 35, 60
13, 48880, Note_on_c, 9, 42, 70
13, 48930, Note_off_c, 9, 42, 64
13, 48930, Note_off_c, 9, 35, 64
13, 48960, Note_on_c, 9, 35, 80
13, 48960, Note_on_c, 9, 42, 90
13, 49010, Note_off_c, 9, 42, 64
13, 49010, Note_off_c, 9, 35, 64
13, 49040, Note_on_c, 9, 42, 60
13, 49090, Note_off_c, 9, 42, 64
13, 49120, Note_on_c, 9, 42, 70
13, 49170, Note_off_c, 9, 42, 64
13, 49200, Note_on_c, 9, 38, 80
13, 49200, Note_on_c, 9, 42, 90
13, 49200, Note_on_c, 9, 37, 80
13, 49250, Note_off_c, 9, 37, 64
13, 49250, Note_off_c, 9, 42, 64
13, 49250, Note_off_c, 9, 38, 64
13, 49280, Note_on_c, 9, 42, 60
13, 49330, Note_off_c, 9, 42, 64
13, 49360, Note_on_c, 9, 35, 60
13, 49360, Note_on_c, 9, 38, 70
13, 49360, Note_on_c, 9, 42, 70
13, 49410, Note_off_c, 9, 42, 64
13, 49410, Note_off_c, 9, 38, 64
13, 49410, Note_off_c, 9, 35, 64
13, 49440, Note_on_c, 9, 35, 80
13, 49440, Note_on_c, 9, 42, 90
13, 49490, Note_off_c, 9, 42, 64
13, 49490, Note_off_c, 9, 35, 64
13, 49520, Note_on_c, 9, 42, 60
13, 49570, Note_off_c, 9, 42, 64
13, 49600, Note_on_c, 9, 42, 70
13, 49650, Note_off_c, 9, 42, 64
13, 49680, Note_on_c, 9, 38, 80
13, 49680, Note_on_c, 9, 42, 90
13, 49680, Note_on_c, 9, 37, 90
13, 49730, Note_off_c, 9, 37, 64
13, 49730, Note_off_c, 9, 42, 64
13, 49730, Note_off_c, 9, 38, 64
13, 49760, Note_on_c, 9, 42, 60
13, 49810, Note_off_c, 9, 42, 64
13, 49840, Note_on_c, 9, 35, 60
13, 49840, Note_on_c, 9, 42, 70
13, 49890, Note_off_c, 9, 42, 64
13, 49890, Note_off_c, 9, 35, 64
13, 49920, Note_on_c, 9, 35, 80
13, 49920, Note_on_c, 9, 42, 90
13, 49970, Note_off_c, 9, 42, 64
13, 49970, Note_off_c, 9, 35, 64
13, 50000, Note_on_c, 9, 42, 60
13, 50050, Note_off_c, 9, 42, 64
13, 50080, Note_on_c, 9, 42, 70
13, 50130, Note_off_c, 9, 42, 64
13, 50160, Note_on_c, 9, 38, 80
13, 50160, Note_on_c, 9, 42, 90
13, 50160, Note_on_c, 9, 37, 80
13, 50210, Note_off_c, 9, 37, 64
13, 50210, Note_off_c, 9, 42, 64
13, 50210, Note_off_c, 9, 38, 64
13, 50240, Note_on_c, 9, 42, 60
13, 50290, Note_off_c, 9, 42, 64
13, 50320, Note_on_c, 9, 35, 60
13, 50320, Note_on_c, 9, 38, 70
13, 50320, Note_on_c, 9, 42, 70
13, 50370, Note_off_c, 9, 42, 64
13, 50370, Note_off_c, 9, 38, 64
13, 50370, Note_off_c, 9, 35, 64
13, 50400, Note_on_c, 9, 35, 80
13, 50400, Note_on_c, 9, 42, 90
13, 50450, Note_off_c, 9, 42, 64
13, 50450, Note_off_c, 9, 35, 64
13, 50480, Note_on_c, 9, 42, 60
13, 50530, Note_off_c, 9, 42, 64
13, 50560, Note_on_c, 9, 42, 70
13, 50610, Note_off_c, 9, 42, 64
13, 50640, Note_on_c, 9, 38, 80
13, 50640, Note_on_c, 9, 42, 90
13, 50640, Note_on_c, 9, 37, 90
13, 50690, Note_off_c, 9, 37, 64
13, 50690, Note_off_c, 9, 42, 64
13, 50690, Note_off_c, 9, 38, 64
13, 50720, Note_on_c, 9, 42, 60
13, 50770, Note_off_c, 9, 42, 64
13, 50800, Note_on_c, 9, 35, 60
13, 50800, Note_on_c, 9, 42, 70
13, 50850, Note_off_c, 9, 42, 64
13, 50850, Note_off_c, 9, 35, 64
13, 50880, Note_on_c, 9, 35, 80
13, 50880, Note_on_c, 9, 42, 90
13, 50930, Note_off_c, 9, 42, 64
13, 50930, Note_off_c, 9, 35, 64
13, 50960, Note_on_c, 9, 42, 60
13, 51010, Note_off_c, 9, 42, 64
13, 51040, Note_on_c, 9, 42, 70
13, 51090, Note_off_c, 9, 42, 64
13, 51120, Note_on_c, 9, 38, 80
13, 51120, Note_on_c, 9, 42, 90
13, 51120, Note_on_c, 9, 37, 80
13, 51170, Note_off_c, 9, 37, 64
13, 51170, Note_off_c, 9, 42, 64
13, 51170, Note_off_c, 9, 38, 64
13, 51200, Note_on_c, 9, 42, 60
13, 51250, Note_off_c, 9, 42, 64
13, 51280, Note_on_c, 9, 35, 60
13, 51280, Note_on_c, 9, 38, 80
13, 51280, Note_on_c, 9, 42, 70
13, 51330, Note_off_c, 9, 42, 64
13, 51330, Note_off_c, 9, 38, 64
13, 51330, Note_off_c, 9, 35, 64
13, 51360, Note_on_c, 9, 35, 80
13, 51360, Note_on_c, 9, 42, 90
13, 51410, Note_off_c, 9, 42, 64
13, 51410, Note_off_c, 9, 35, 64
13, 51440, Note_on_c, 9, 42, 60
13, 51490, Note_off_c, 9, 42, 64
13, 51520, Note_on_c, 9, 42, 70
13, 51570, Note_off_c, 9, 42, 64
13, 51600, Note_on_c, 9, 38, 80
13, 51600, Note_on_c, 9, 42, 90
13, 51600, Note_on_c, 9, 37, 90
13, 51650, Note_off_c, 9, 37, 64
13, 51650, Note_off_c, 9, 42, 64
13, 51650, Note_off_c, 9, 38, 64
13, 51680, Note_on_c, 9, 42, 60
13, 51730, Note_off_c, 9, 42, 64
13, 51760, Note_on_c, 9, 35, 60
13, 51760, Note_on_c, 9, 42, 70
13, 51810, Note_off_c, 9, 42, 64
13, 51810, Note_off_c, 9, 35, 64
13, 51840, Note_on_c, 9, 35, 80
13, 51840, Note_on_c, 9, 42, 90
13, 51890, Note_off_c, 9, 42, 64
13, 51890, Note_off_c, 9, 35, 64
13, 51920, Note_on_c, 9, 42, 60
13, 51970, Note_off_c, 9, 42, 64
13, 52000, Note_on_c, 9, 42, 70
13, 52050, Note_off_c, 9, 42, 64
13, 52080, Note_on_c, 9, 38, 80
13, 52080, Note_on_c, 9, 42, 90
13, 52080, Note_on_c, 9, 37, 80
13, 52130, Note_off_c, 9, 37, 64
13, 52130, Note_off_c, 9, 42, 64
13, 52130, Note_off_c, 9, 38, 64
13, 52160, Note_on_c, 9, 42, 60
13, 52210, Note_off_c, 9, 42, 64
13, 52240, Note_on_c, 9, 35, 60
13, 52240, Note_on_c, 9, 38, 70
13, 52240, Note_on_c, 9, 42, 70
13, 52290, Note_off_c, 9, 42, 64
13, 52290, Note_off_c, 9, 38, 64
13, 52290, Note_off_c, 9, 35, 64
13, 52320, Note_on_c, 9, 35, 80
13, 52320, Note_on_c, 9, 42, 90
13, 52370, Note_off_c, 9, 42, 64
13, 52370, Note_off_c, 9, 35, 64
13, 52400, Note_on_c, 9, 42, 60
13, 52450, Note_off_c, 9, 42, 64
13, 52480, Note_on_c, 9, 42, 70
13, 52530, Note_off_c, 9, 42, 64
13, 52560, Note_on_c, 9, 38, 80
13, 52560, Note_on_c, 9, 42, 90
13, 52560, Note_on_c, 9, 37, 90
13, 52610, Note_off_c, 9, 37, 64
13, 52610, Note_off_c, 9, 42, 64
13, 52610, Note_off_c, 9, 38, 64
13, 52640, Note_on_c, 9, 42, 60
13, 52690, Note_off_c, 9, 42, 64
13, 52720, Note_on_c, 9, 35, 60
13, 52720, Note_on_c, 9, 46, 72
13, 52770, Note_off_c, 9, 46, 64
13, 52770, Note_off_c, 9, 35, 64
13, 52800, Note_on_c, 9, 35, 80
13, 52800, Note_on_c, 9, 42, 90
13, 52850, Note_off_c, 9, 42, 64
13, 52850, Note_off_c, 9, 35, 64
13, 52880, Note_on_c, 9, 42, 60
13, 52930, Note_off_c, 9, 42, 64
13, 52960, Note_on_c, 9, 42, 70
13, 53010, Note_off_c, 9, 42, 64
13, 53040, Note_on_c, 9, 38, 80
13, 53040, Note_on_c, 9, 42, 90
13, 53040, Note_on_c, 9, 37, 80
13, 53090, Note_off_c, 9, 37, 64
13, 53090, Note_off_c, 9, 42, 64
13, 53090, Note_off_c, 9, 38, 64
13, 53120, Note_on_c, 9, 42, 60
13, 53170, Note_off_c, 9, 42, 64
13, 53200, Note_on_c, 9, 35, 60
13, 53200, Note_on_c, 9, 38, 70
13, 53200, Note_on_c, 9, 42, 70
13, 53250, Note_off_c, 9, 42, 64
13, 53250, Note_off_c, 9, 38, 64
13, 53250, Note_off_c, 9, 35, 64
13, 53280, Note_on_c, 9, 35, 80
13, 53280, Note_on_c, 9, 42, 90
13, 53330, Note_off_c, 9, 42, 64
13, 53330, Note_off_c, 9, 35, 64
13, 53360, Note_on_c, 9, 42, 60
13, 53410, Note_off_c, 9, 42, 64
13, 53440, Note_on_c, 9, 42, 70
13, 53490, Note_off_c, 9, 42, 64
13, 53520, Note_on_c, 9, 38, 80
13, 53520, Note_on_c, 9, 42, 90
13, 53520, Note_on_c, 9, 37, 90
13, 53570, Note_off_c, 9, 37, 64
13, 53570, Note_off_c, 9, 42, 64
13, 53570, Note_off_c, 9, 38, 64
13, 53600, Note_on_c, 9, 42, 60
13, 53650, Note_off_c, 9, 42, 64
13, 53680, Note_on_c, 9, 35, 60
13, 53680, Note_on_c, 9, 42, 70
13, 53730, Note_off_c, 9, 42, 64
13, 53730, Note_off_c, 9, 35, 64
13, 53760, Note_on_c, 9, 35, 80
13, 53760, Note_on_c, 9, 42, 90
13, 53810, Note_off_c, 9, 42, 64
13, 53810, Note_off_c, 9, 35, 64
13, 53840, Note_on_c, 9, 42, 60
13, 53890, Note_off_c, 9, 42, 64
13, 53920, Note_on_c, 9, 42, 70
13, 53970, Note_off_c, 9, 42, 64
13, 54000, Note_on_c, 9, 38, 80
13, 54000, Note_on_c, 9, 42, 90
13, 54000, Note_on_c, 9, 37, 80
13, 54050, Note_off_c, 9, 37, 64
13, 54050, Note_off_c, 9, 42, 64
13, 54050, Note_off_c, 9, 38, 64
13, 54080, Note_on_c, 9, 42, 60
13, 54130, Note_off_c, 9, 42, 64
13, 54160, Note_on_c, 9, 35, 60
13, 54160, Note_on_c, 9, 38, 80
13, 54160, Note_on_c, 9, 42, 70
13, 54210, Note_off_c, 9, 42, 64
13, 54210, Note_off_c, 9, 38, 64
13, 54210, Note_off_c, 9, 35, 64
13, 54240, Note_on_c, 9, 35, 80
13, 54240, Note_on_c, 9, 42, 90
13, 54290, Note_off_c, 9, 42, 64
13, 54290, Note_off_c, 9, 35, 64
13, 54320, Note_on_c, 9, 42, 60
13, 54370, Note_off_c, 9, 42, 64
13, 54400, Note_on_c, 9, 42, 70
13, 54450, Note_off_c, 9, 42, 64
13, 54480, Note_on_c, 9, 38, 80
13, 54480, Note_on_c, 9, 42, 90
13, 54480, Note_on_c, 9, 37, 90
13, 54530, Note_off_c, 9, 37, 64
13, 54530, Note_off_c, 9, 42, 64
13, 54530, Note_off_c, 9, 38, 64
13, 54560, Note_on_c, 9, 42, 60
13, 54610, Note_off_c, 9, 42, 64
13, 54640, Note_on_c, 9, 35, 60
13, 54640, Note_on_c, 9, 42, 70
13, 54690, Note_off_c, 9, 42, 64
13, 54690, Note_off_c, 9, 35, 64
13, 54720, Note_on_c, 9, 35, 80
13, 54720, Note_on_c, 9, 42, 90
13, 54770, Note_off_c, 9, 42, 64
13, 54770, Note_off_c, 9, 35, 64
13, 54800, Note_on_c, 9, 42, 60
13, 54850, Note_off_c, 9, 42, 64
13, 54880, Note_on_c, 9, 42, 70
13, 54930, Note_off_c, 9, 42, 64
13, 54960, Note_on_c, 9, 38, 80
13, 54960, Note_on_c, 9, 42, 90
13, 54960, Note_on_c, 9, 37, 80
13, 55010, Note_off_c, 9, 37, 64
13, 55010, Note_off_c, 9, 42, 64
13, 55010, Note_off_c, 9, 38, 64
13, 55040, Note_on_c, 9, 42, 60
13, 55090, Note_off_c, 9, 42, 64
13, 55120, Note_on_c, 9, 35, 60
13, 55120, Note_on_c, 9, 38, 50
13, 55120, Note_on_c, 9, 42, 70
13, 55170, Note_off_c, 9, 42, 64
13, 55170, Note_off_c, 9, 38, 64
13, 55170, Note_off_c, 9, 35, 64
13, 55200, Note_on_c, 9, 35, 80
13, 55200, Note_on_c, 9, 38, 90
13, 55200, Note_on_c, 9, 42, 90
13, 55250, Note_off_c, 9, 42, 64
13, 55250, Note_off_c, 9, 38, 64
13, 55250, Note_off_c, 9, 35, 64
13, 55280, Note_on_c, 9, 38, 50
13, 55280, Note_on_c, 9, 42, 60
13, 55330, Note_off_c, 9, 42, 64
13, 55330, Note_off_c, 9, 38, 64
13, 55360, Note_on_c, 9, 38, 70
13, 55360, Note_on_c, 9, 42, 70
13, 55410, Note_off_c, 9, 42, 64
13, 55410, Note_off_c, 9, 38, 64
13, 55440, Note_on_c, 9, 35, 80
13, 55440, Note_on_c, 9, 38, 80
13, 55440, Note_on_c, 9, 42, 90
13, 55440, Note_on_c, 9, 37, 90
13, 55490, Note_off_c, 9, 37, 64
13, 55490, Note_off_c, 9, 42, 64
13, 55490, Note_off_c, 9, 38, 64
13, 55490, Note_off_c, 9, 35, 64
13, 55520, Note_on_c, 9, 38, 50
13, 55520, Note_on_c, 9, 42, 60
13, 55570, Note_off_c, 9, 42, 64
13, 55570, Note_off_c, 9, 38, 64
13, 55600, Note_on_c, 9, 35, 60
13, 55600, Note_on_c, 9, 38, 70
13, 55600, Note_on_c, 9, 46, 72
13, 55650, Note_off_c, 9, 46, 64
13, 55650, Note_off_c, 9, 38, 64
13, 55650, Note_off_c, 9, 35, 64
13, 55680, Note_on_c, 9, 35, 80
13, 55680, Note_on_c, 9, 42, 90
13, 55730, Note_off_c, 9, 42, 64
13, 55730, Note_off_c, 9, 35, 64
13, 55760, Note_on_c, 9, 42, 60
13, 55810, Note_off_c, 9, 42, 64
13, 55840, Note_on_c, 9, 42, 70
13, 55890, Note_off_c, 9, 42, 64
13, 55920, Note_on_c, 9, 38, 80
13, 55920, Note_on_c, 9, 42, 90
13, 55920, Note_on_c, 9, 37, 80
13, 55970, Note_off_c, 9, 37, 64
13, 55970, Note_off_c, 9, 42, 64
13, 55970, Note_off_c, 9, 38, 64
13, 56000, Note_on_c, 9, 42, 60
13, 56050, Note_off_c, 9, 42, 64
13, 56080, Note_on_c, 9, 35, 60
13, 56080, Note_on_c, 9, 38, 70
13, 56080, Note_on_c, 9, 42, 70
13, 56130, Note_off_c, 9, 42, 64
13, 56130, Note_off_c, 9, 38, 64
13, 56130, Note_off_c, 9, 35, 64
13, 56160, Note_on_c, 9, 35, 80
13, 56160, Note_on_c, 9, 42, 90
13, 56210, Note_off_c, 9, 42, 64
13, 56210, Note_off_c, 9, 35, 64
13, 56240, Note_on_c, 9, 42, 60
13, 56290, Note_off_c, 9, 42, 64
13, 56320, Note_on_c, 9, 42, 70
13, 56370, Note_off_c, 9, 42, 64
13, 56400, Note_on_c, 9, 38, 80
13, 56400, Note_on_c, 9, 42, 90
13, 56400, Note_on_c, 9, 37, 90
13, 56450, Note_off_c, 9, 37, 64
13, 56450, Note_off_c, 9, 42, 64
13, 56450, Note_off_c, 9, 38, 64
13, 56480, Note_on_c, 9, 42, 60
13, 56530, Note_off_c, 9, 42, 64
13, 56560, Note_on_c, 9, 35, 60
13, 56560, Note_on_c, 9, 42, 70
13, 56610, Note_off_c, 9, 42, 64
13, 56610, Note_off_c, 9, 35, 64
13, 56640, Note_on_c, 9, 35, 80
13, 56640, Note_on_c, 9, 42, 90
13, 56690, Note_off_c, 9, 42, 64
13, 56690, Note_off_c, 9, 35, 64
13, 56720, Note_on_c, 9, 42, 60
13, 56770, Note_off_c, 9, 42, 64
13, 56800, Note_on_c, 9, 42, 70
13, 56850, Note_off_c, 9, 42, 64
13, 56880, Note_on_c, 9, 38, 80
13, 56880, Note_on_c, 9, 42, 90
13, 56880, Note_on_c, 9, 37, 80
13, 56930, Note_off_c, 9, 37, 64
13, 56930, Note_off_c, 9, 42, 64
13, 56930, Note_off_c, 9, 38, 64
13, 56960, Note_on_c, 9, 42, 60
13, 57010, Note_off_c, 9, 42, 64
13, 57040, Note_on_c, 9, 35, 60
13, 57040, Note_on_c, 9, 38, 70
13, 57040, Note_on_c, 9, 42, 70
13, 57090, Note_off_c, 9, 42, 64
13, 57090, Note_off_c, 9, 38, 64
13, 57090, Note_off_c, 9, 35, 64
13, 57120, Note_on_c, 9, 35, 80
13, 57120, Note_on_c, 9, 42, 90
13, 57170, Note_off_c, 9, 42, 64
13, 57170, Note_off_c, 9, 35, 64
13, 57200, Note_on_c, 9, 42, 60
13, 57250, Note_off_c, 9, 42, 64
13, 57280, Note_on_c, 9, 42, 70
13, 57330, Note_off_c, 9, 42, 64
13, 57360, Note_on_c, 9, 38, 80
13, 57360, Note_on_c, 9, 42, 90
13, 57360, Note_on_c, 9, 37, 90
13, 57410, Note_off_c, 9, 37, 64
13, 57410, Note_off_c, 9, 42, 64
13, 57410, Note_off_c, 9, 38, 64
13, 57440, Note_on_c, 9, 42, 60
13, 57490, Note_off_c, 9, 42, 64
13, 57520, Note_on_c, 9, 35, 60
13, 57520, Note_on_c, 9, 42, 70
13, 57570, Note_off_c, 9, 42, 64
13, 57570, Note_off_c, 9, 35, 64
13, 57600, Note_on_c, 9, 35, 80
13, 57600, Note_on_c, 9, 42, 90
13, 57650, Note_off_c, 9, 42, 64
13, 57650, Note_off_c, 9, 35, 64
13, 57680, Note_on_c, 9, 42, 60
13, 57730, Note_off_c, 9, 42, 64
13, 57760, Note_on_c, 9, 42, 70
13, 57810, Note_off_c, 9, 42, 64
13, 57840, Note_on_c, 9, 38, 80
13, 57840, Note_on_c, 9, 42, 90
13, 57840, Note_on_c, 9, 37, 80
13, 57890, Note_off_c, 9, 37, 64
13, 57890, Note_off_c, 9, 42, 64
13, 57890, Note_off_c, 9, 38, 64
13, 57920, Note_on_c, 9, 42, 60
13, 57970, Note_off_c, 9, 42, 64
13, 58000, Note_on_c, 9, 35, 60
13, 58000, Note_on_c, 9, 38, 70
13, 58000, Note_on_c, 9, 42, 70
13, 58050, Note_off_c, 9, 42, 64
13, 58050, Note_off_c, 9, 38, 64
13, 58050, Note_off_c, 9, 35, 64
13, 58080, Note_on_c, 9, 35, 80
13, 58080, Note_on_c, 9, 42, 90
13, 58130, Note_off_c, 9, 42, 64
13, 58130, Note_off_c, 9, 35, 64
13, 58160, Note_on_c, 9, 42, 60
13, 58210, Note_off_c, 9, 42, 64
13, 58240, Note_on_c, 9, 42, 70
13, 58290, Note_off_c, 9, 42, 64
13, 58320, Note_on_c, 9, 38, 80
13, 58320, Note_on_c, 9, 42, 90
13, 58320, Note_on_c, 9, 37, 90
13, 58370, Note_off_c, 9, 37, 64
13, 58370, Note_off_c, 9, 42, 64
13, 58370, Note_off_c, 9, 38, 64
13, 58400, Note_on_c, 9, 42, 60
13, 58450, Note_off_c, 9, 42, 64
13, 58480, Note_on_c, 9, 35, 60
13, 58480, Note_on_c, 9, 46, 72
13, 58530, Note_off_c, 9, 46, 64
13, 58530, Note_off_c, 9, 35, 64
13, 58560, Note_on_c, 9, 35, 80
13, 58560, Note_on_c, 9, 42, 90
13, 58610, Note_off_c, 9, 42, 64
13, 58610, Note_off_c, 9, 35, 64
13, 58640, Note_on_c, 9, 42, 60
13, 58690, Note_off_c, 9, 42, 64
13, 58720, Note_on_c, 9, 42, 70
13, 58770, Note_off_c, 9, 42, 64
13, 58800, Note_on_c, 9, 38, 80
13, 58800, Note_on_c, 9, 42, 90
13, 58800, Note_on_c, 9, 37, 80
13, 58850, Note_off_c, 9, 37, 64
13, 58850, Note_off_c, 9, 42, 64
13, 58850, Note_off_c, 9, 38, 64
13, 58880, Note_on_c, 9, 42, 60
13, 58930, Note_off_c, 9, 42, 64
13, 58960, Note_on_c, 9, 35, 60
13, 58960, Note_on_c, 9, 38, 80
13, 58960, Note_on_c, 9, 42, 70
13, 59010, Note_off_c, 9, 42, 64
13, 59010, Note_off_c, 9, 38, 64
13, 59010, Note_off_c, 9, 35, 64
13, 59040, Note_on_c, 9, 35, 80
13, 59040, Note_on_c, 9, 42, 90
13, 59090, Note_off_c, 9, 42, 64
13, 59090, Note_off_c, 9, 35, 64
13, 59120, Note_on_c, 9, 42, 60
13, 59170, Note_off_c, 9, 42, 64
13, 59200, Note_on_c, 9, 42, 70
13, 59250, Note_off_c, 9, 42, 64
13, 59280, Note_on_c, 9, 38, 80
13, 59280, Note_on_c, 9, 42, 90
13, 59280, Note_on_c, 9, 37, 90
13, 59330, Note_off_c, 9, 37, 64
13, 59330, Note_off_c, 9, 42, 64
13, 59330, Note_off_c, 9, 38, 64
13, 59360, Note_on_c, 9, 42, 60
13, 59410, Note_off_c, 9, 42, 64
13, 59440, Note_on_c, 9, 35, 60
13, 59440, Note_on_c, 9, 42, 70
13, 59490, Note_off_c, 9, 42, 64
13, 59490, Note_off_c, 9, 35, 64
13, 59520, Note_on_c, 9, 35, 80
13, 59520, Note_on_c, 9, 42, 90
13, 59570, Note_off_c, 9, 42, 64
13, 59570, Note_off_c, 9, 35, 64
13, 59600, Note_on_c, 9, 42, 60
13, 59650, Note_off_c, 9, 42, 64
13, 59680, Note_on_c, 9, 42, 70
13, 59730, Note_off_c, 9, 42, 64
13, 59760, Note_on_c, 9, 38, 80
13, 59760, Note_on_c, 9, 42, 90
13, 59760, Note_on_c, 9, 37, 80
13, 59810, Note_off_c, 9, 37, 64
13, 59810, Note_off_c, 9, 42, 64
13, 59810, Note_off_c, 9, 38, 64
13, 59840, Note_on_c, 9, 42, 60
13, 59890, Note_off_c, 9, 42, 64
13, 59920, Note_on_c, 9, 35, 60
13, 59920, Note_on_c, 9, 38, 70
13, 59920, Note_on_c, 9, 42, 70
13, 59970, Note_off_c, 9, 42, 64
13, 59970, Note_off_c, 9, 38, 64
13, 59970, Note_off_c, 9, 35, 64
13, 60000, Note_on_c, 9, 35, 80
13, 60000, Note_on_c, 9, 42, 90
13, 60050, Note_off_c, 9, 42, 64
13, 60050, Note_off_c, 9, 35, 64
13, 60080, Note_on_c, 9, 42, 60
13, 60130, Note_off_c, 9, 42, 64
13, 60160, Note_on_c, 9, 42, 70
13, 60210, Note_off_c, 9, 42, 64
13, 60240, Note_on_c, 9, 38, 80
13, 60240, Note_on_c, 9, 42, 90
13, 60240, Note_on_c, 9, 37, 90
13, 60290, Note_off_c, 9, 37, 64
13, 60290, Note_off_c, 9, 42, 64
13, 60290, Note_off_c, 9, 38, 64
13, 60320, Note_on_c, 9, 42, 60
13, 60370, Note_off_c, 9, 42, 64
13, 60400, Note_on_c, 9, 35, 60
13, 60400, Note_on_c, 9, 42, 70
13, 60450, Note_off_c, 9, 42, 64
13, 60450, Note_off_c, 9, 35, 64
13, 60480, Note_on_c, 9, 35, 80
13, 60480, Note_on_c, 9, 42, 90
13, 60530, Note_off_c, 9, 42, 64
13, 60530, Note_off_c, 9, 35, 64
13, 60560, Note_on_c, 9, 42, 60
13, 60610, Note_off_c, 9, 42, 64
13, 60640, Note_on_c, 9, 42, 70
13, 60690, Note_off_c, 9, 42, 64
13, 60720, Note_on_c, 9, 38, 80
13, 60720, Note_on_c, 9, 42, 90
13, 60720, Note_on_c, 9, 37, 80
13, 60770, Note_off_c, 9, 37, 64
13, 60770, Note_off_c, 9, 42, 64
13, 60770, Note_off_c, 9, 38, 64
13, 60800, Note_on_c, 9, 42, 60
13, 60850, Note_off_c, 9, 42, 64
13, 60880, Note_on_c, 9, 35, 60
13, 60880, Note_on_c, 9, 38, 80
13, 60880, Note_on_c, 9, 42, 70
13, 60930, Note_off_c, 9, 42, 64
13, 60930, Note_off_c, 9, 38, 64
13, 60930, Note_off_c, 9, 35, 64
13, 60960, Note_on_c, 9, 35, 80
13, 60960, Note_on_c, 9, 42, 90
13, 61010, Note_off_c, 9, 42, 64
13, 61010, Note_off_c, 9, 35, 64
13, 61040, Note_on_c, 9, 42, 60
13, 61090, Note_off_c, 9, 42, 64
13, 61120, Note_on_c, 9, 42, 70
13, 61170, Note_off_c, 9, 42, 64
13, 61200, Note_on_c, 9, 38, 80
13, 61200, Note_on_c, 9, 42, 90
13, 61200, Note_on_c, 9, 37, 90
13, 61250, Note_off_c, 9, 37, 64
13, 61250, Note_off_c, 9, 42, 64
13, 61250, Note_off_c, 9, 38, 64
13, 61280, Note_on_c, 9, 42, 60
13, 61330, Note_off_c, 9, 42, 64
13, 61360, Note_on_c, 9, 35, 60
13, 61360, Note_on_c, 9, 42, 70
13, 61410, Note_off_c, 9, 42, 64
13, 61410, Note_off_c, 9, 35, 64
13, 61440, Note_on_c, 9, 35, 80
13, 61440, Note_on_c, 9, 42, 90
13, 61490, Note_off_c, 9, 42, 64
13, 61490, Note_off_c, 9, 35, 64
13, 61520, Note_on_c, 9, 42, 60
13, 61570, Note_off_c, 9, 42, 64
13, 61600, Note_on_c, 9, 42, 70
13, 61650, Note_off_c, 9, 42, 64
13, 61680, Note_on_c, 9, 38, 80
13, 61680, Note_on_c, 9, 42, 90
13, 61680, Note_on_c, 9, 37, 80
13, 61730, Note_off_c, 9, 37, 64
13, 61730, Note_off_c, 9, 42, 64
13, 61730, Note_off_c, 9, 38, 64
13, 61760, Note_on_c, 9, 42, 60
13, 61810, Note_off_c, 9, 42, 64
13, 61840, Note_on_c, 9, 35, 60
13, 61840, Note_on_c, 9, 38, 70
13, 61840, Note_on_c, 9, 42, 70
13, 61890, Note_off_c, 9, 42, 64
13, 61890, Note_off_c, 9, 38, 64
13, 61890, Note_off_c, 9, 35, 64
13, 61920, Note_on_c, 9, 35, 80
13, 61920, Note_on_c, 9, 42, 90
13, 61970, Note_off_c, 9, 42, 64
13, 61970, Note_off_c, 9, 35, 64
13, 62000, Note_on_c, 9, 42, 60
13, 62050, Note_off_c, 9, 42, 64
13, 62080, Note_on_c, 9, 42, 70
13, 62130, Note_off_c, 9, 42, 64
13, 62160, Note_on_c, 9, 38, 80
13, 62160, Note_on_c, 9, 42, 90
13, 62160, Note_on_c, 9, 37, 90
13, 62210, Note_off_c, 9, 37, 64
13, 62210, Note_off_c, 9, 42, 64
13, 62210, Note_off_c, 9, 38, 64
13, 62240, Note_on_c, 9, 42, 60
13, 62290, Note_off_c, 9, 42, 64
13, 62320, Note_on_c, 9, 35, 60
13, 62320, Note_on_c, 9, 42, 70
13, 62370, Note_off_c, 9, 42, 64
13, 62370, Note_off_c, 9, 35, 64
13, 62400, Note_on_c, 9, 35, 80
13, 62400, Note_on_c, 9, 42, 90
13, 62450, Note_off_c, 9, 42, 64
13, 62450, Note_off_c, 9, 35, 64
13, 62480, Note_on_c, 9, 42, 60
13, 62530, Note_off_c, 9, 42, 64
13, 62560, Note_on_c, 9, 42, 70
13, 62610, Note_off_c, 9, 42, 64
13, 62640, Note_on_c, 9, 38, 80
13, 62640, Note_on_c, 9, 42, 90
13, 62640, Note_on_c, 9, 37, 80
13, 62690, Note_off_c, 9, 37, 64
13, 62690, Note_off_c, 9, 42, 64
13, 62690, Note_off_c, 9, 38, 64
13, 62720, Note_on_c, 9, 42, 60
13, 62770, Note_off_c, 9, 42, 64
13, 62800, Note_on_c, 9, 35, 60
13, 62800, Note_on_c, 9, 38, 50
13, 62800, Note_on_c, 9, 42, 70
13, 62850, Note_off_c, 9, 42, 64
13, 62850, Note_off_c, 9, 38, 64
13, 62850, Note_off_c, 9, 35, 64
13, 62880, Note_on_c, 9, 35, 80
13, 62880, Note_on_c, 9, 38, 90
13, 62880, Note_on_c, 9, 42, 90
13, 62930, Note_off_c, 9, 42, 64
13, 62930, Note_off_c, 9, 38, 64
13, 62930, Note_off_c, 9, 35, 64
13, 62960, Note_on_c, 9, 38, 50
13, 62960, Note_on_c, 9, 42, 60
13, 63010, Note_off_c, 9, 42, 64
13, 63010, Note_off_c, 9, 38, 64
13, 63040, Note_on_c, 9, 38, 70
13, 63040, Note_on_c, 9, 42, 70
13, 63090, Note_off_c, 9, 42, 64
13, 63090, Note_off_c, 9, 38, 64
13, 63120, Note_on_c, 9, 35, 80
13, 63120, Note_on_c, 9, 38, 80
13, 63120, Note_on_c, 9, 42, 90
13, 63120, Note_on_c, 9, 37, 90
13, 63170, Note_off_c, 9, 37, 64
13, 63170, Note_off_c, 9, 42, 64
13, 63170, Note_off_c, 9, 38, 64
13, 63170, Note_off_c, 9, 35, 64
13, 63200, Note_on_c, 9, 38, 50
13, 63200, Note_on_c, 9, 42, 60
13, 63250, Note_off_c, 9, 42, 64
13, 63250, Note_off_c, 9, 38, 64
13, 63280, Note_on_c, 9, 35, 60
13, 63280, Note_on_c, 9, 38, 70
13, 63280, Note_on_c, 9, 46, 72
13, 63330, Note_off_c, 9, 46, 64
13, 63330, Note_off_c, 9, 38, 64
13, 63330, Note_off_c, 9, 35, 64
13, 63360, Note_on_c, 9, 35, 70
13, 63360, Note_on_c, 9, 42, 70
13, 63360, Note_on_c, 9, 49, 70
13, 63410, Note_off_c, 9, 49, 64
13, 63410, Note_off_c, 9, 42, 64
13, 63410, Note_off_c, 9, 35, 64
13, 63520, Note_on_c, 9, 42, 50
13, 63570, Note_off_c, 9, 42, 64
13, 63600, Note_on_c, 9, 42, 70
13, 63600, Note_on_c, 9, 37, 70
13, 63650, Note_off_c, 9, 37, 64
13, 63650, Note_off_c, 9, 42, 64
13, 63760, Note_on_c, 9, 35, 50
13, 63760, Note_on_c, 9, 42, 50
13, 63810, Note_off_c, 9, 42, 64
13, 63810, Note_off_c, 9, 35, 64
13, 63840, Note_on_c, 9, 35, 70
13, 63840, Note_on_c, 9, 42, 70
13, 63890, Note_off_c, 9, 42, 64
13, 63890, Note_off_c, 9, 35, 64
13, 64000, Note_on_c, 9, 42, 50
13, 64050, Note_off_c, 9, 42, 64
13, 64080, Note_on_c, 9, 42, 70
13, 64080, Note_on_c, 9, 37, 70
13, 64130, Note_off_c, 9, 37, 64
13, 64130, Note_off_c, 9, 42, 64
13, 64240, Note_on_c, 9, 35, 50
13, 64240, Note_on_c, 9, 42, 50
13, 64290, Note_off_c, 9, 42, 64
13, 64290, Note_off_c, 9, 35, 64
13, 64320, Note_on_c, 9, 35, 70
13, 64320, Note_on_c, 9, 42, 70
13, 64370, Note_off_c, 9, 42, 64
13, 64370, Note_off_c, 9, 35, 64
13, 64480, Note_on_c, 9, 42, 50
13, 64530, Note_off_c, 9, 42, 64
13, 64560, Note_on_c, 9, 42, 70
13, 64560, Note_on_c, 9, 37, 70
13, 64610, Note_off_c, 9, 37, 64
13, 64610, Note_off_c, 9, 42, 64
13, 64720, Note_on_c, 9, 35, 50
13, 64720, Note_on_c, 9, 42, 50
13, 64770, Note_off_c, 9, 42, 64
13, 64770, Note_off_c, 9, 35, 64
13, 64800, Note_on_c, 9, 35, 70
13, 64800, Note_on_c, 9, 42, 70
13, 64850, Note_off_c, 9, 42, 64
13, 64850, Note_off_c, 9, 35, 64
13, 64960, Note_on_c, 9, 42, 50
13, 65010, Note_off_c, 9, 42, 64
13, 65040, Note_on_c, 9, 42, 70
13, 65040, Note_on_c, 9, 37, 70
13, 65090, Note_off_c, 9, 37, 64
13, 65090, Note_off_c, 9, 42, 64
13, 65200, Note_on_c, 9, 35, 50
13, 65200, Note_on_c, 9, 42, 50
13, 65250, Note_off_c, 9, 42, 64
13, 65250, Note_off_c, 9, 35, 64
13, 65280, Note_on_c, 9, 35, 70
13, 65280, Note_on_c, 9, 42, 70
13, 65330, Note_off_c, 9, 42, 64
13, 65330, Note_off_c, 9, 35, 64
13, 65440, Note_on_c, 9, 42, 50
13, 65490, Note_off_c, 9, 42, 64
13, 65520, Note_on_c, 9, 42, 70
13, 65520, Note_on_c, 9, 37, 70
13, 65570, Note_off_c, 9, 37, 64
13, 65570, Note_off_c, 9, 42, 64
13, 65680, Note_on_c, 9, 35, 50
13, 65680, Note_on_c, 9, 42, 50
13, 65730, Note_off_c, 9, 42, 64
13, 65730, Note_off_c, 9, 35, 64
13, 65760, Note_on_c, 9, 35, 70
13, 65760, Note_on_c, 9, 42, 70
13, 65810, Note_off_c, 9, 42, 64
13, 65810, Note_off_c, 9, 35, 64
13, 65920, Note_on_c, 9, 42, 50
13, 65970, Note_off_c, 9, 42, 64
13, 66000, Note_on_c, 9, 42, 70
13, 66000, Note_on_c, 9, 37, 70
13, 66050, Note_off_c, 9, 37, 64
13, 66050, Note_off_c, 9, 42, 64
13, 66160, Note_on_c, 9, 35, 50
13, 66160, Note_on_c, 9, 42, 50
13, 66210, Note_off_c, 9, 42, 64
13, 66210, Note_off_c, 9, 35, 64
13, 66240, Note_on_c, 9, 35, 70
13, 66240, Note_on_c, 9, 42, 70
13, 66290, Note_off_c, 9, 42, 64
13, 66290, Note_off_c, 9, 35, 64
13, 66400, Note_on_c, 9, 42, 50
13, 66450, Note_off_c, 9, 42, 64
13, 66480, Note_on_c, 9, 42, 70
13, 66480, Note_on_c, 9, 37, 70
13, 66530, Note_off_c, 9, 37, 64
13, 66530, Note_off_c, 9, 42, 64
13, 66640, Note_on_c, 9, 35, 50
13, 66640, Note_on_c, 9, 42, 50
13, 66690, Note_off_c, 9, 42, 64
13, 66690, Note_off_c, 9, 35, 64
13, 66720, Note_on_c, 9, 35, 70
13, 66720, Note_on_c, 9, 42, 70
13, 66770, Note_off_c, 9, 42, 64
13, 66770, Note_off_c, 9, 35, 64
13, 66880, Note_on_c, 9, 38, 40
13, 66880, Note_on_c, 9, 42, 50
13, 66930, Note_off_c, 9, 42, 64
13, 66930, Note_off_c, 9, 38, 64
13, 66960, Note_on_c, 9, 38, 70
13, 66960, Note_on_c, 9, 42, 70
13, 66960, Note_on_c, 9, 37, 80
13, 67010, Note_off_c, 9, 37, 64
13, 67010, Note_off_c, 9, 42, 64
13, 67010, Note_off_c, 9, 38, 64
13, 67120, Note_on_c, 9, 35, 50
13, 67120, Note_on_c, 9, 42, 50
13, 67170, Note_off_c, 9, 42, 64
13, 67170, Note_off_c, 9, 35, 64
13, 67200, Note_on_c, 9, 35, 70
13, 67200, Note_on_c, 9, 42, 70
13, 67250, Note_off_c, 9, 42, 64
13, 67250, Note_off_c, 9, 35, 64
13, 67360, Note_on_c, 9, 42, 50
13, 67410, Note_off_c, 9, 42, 64
13, 67440, Note_on_c, 9, 42, 70
13, 67440, Note_on_c, 9, 37, 70
13, 67490, Note_off_c, 9, 37, 64
13, 67490, Note_off_c, 9, 42, 64
13, 67600, Note_on_c, 9, 35, 50
13, 67600, Note_on_c, 9, 42, 50
13, 67650, Note_off_c, 9, 42, 64
13, 67650, Note_off_c, 9, 35, 64
13, 67680, Note_on_c, 9, 35, 70
13, 67680, Note_on_c, 9, 42, 70
13, 67730, Note_off_c, 9, 42, 64
13, 67730, Note_off_c, 9, 35, 64
13, 67840, Note_on_c, 9, 42, 50
13, 67890, Note_off_c, 9, 42, 64
13, 67920, Note_on_c, 9, 42, 70
13, 67920, Note_on_c, 9, 37, 70
13, 67970, Note_off_c, 9, 37, 64
13, 67970, Note_off_c, 9, 42, 64
13, 68080, Note_on_c, 9, 35, 50
13, 68080, Note_on_c, 9, 42, 50
13, 68130, Note_off_c, 9, 42, 64
13, 68130, Note_off_c, 9, 35, 64
13, 68160, Note_on_c, 9, 35, 70
13, 68160, Note_on_c, 9, 42, 70
13, 68210, Note_off_c, 9, 42, 64
13, 68210, Note_off_c, 9, 35, 64
13, 68320, Note_on_c, 9, 42, 50
13, 68370, Note_off_c, 9, 42, 64
13, 68400, Note_on_c, 9, 42, 70
13, 68400, Note_on_c, 9, 37, 70
13, 68450, Note_off_c, 9, 37, 64
13, 68450, Note_off_c, 9, 42, 64
13, 68560, Note_on_c, 9, 35, 50
13, 68560, Note_on_c, 9, 42, 50
13, 68610, Note_off_c, 9, 42, 64
13, 68610, Note_off_c, 9, 35, 64
13, 68640, Note_on_c, 9, 35, 70
13, 68640, Note_on_c, 9, 42, 70
13, 68690, Note_off_c, 9, 42, 64
13, 68690, Note_off_c, 9, 35, 64
13, 68800, Note_on_c, 9, 42, 50
13, 68850, Note_off_c, 9, 42, 64
13, 68880, Note_on_c, 9, 42, 70
13, 68880, Note_on_c, 9, 37, 70
13, 68930, Note_off_c, 9, 37, 64
13, 68930, Note_off_c, 9, 42, 64
13, 69040, Note_on_c, 9, 35, 50
13, 69040, Note_on_c, 9, 42, 50
13, 69090, Note_off_c, 9, 42, 64
13, 69090, Note_off_c, 9, 35, 64
13, 69120, Note_on_c, 9, 35, 70
13, 69120, Note_on_c, 9, 42, 70
13, 69170, Note_off_c, 9, 42, 64
13, 69170, Note_off_c, 9, 35, 64
13, 69280, Note_on_c, 9, 42, 50
13, 69330, Note_off_c, 9, 42, 64
13, 69360, Note_on_c, 9, 42, 70
13, 69360, Note_on_c, 9, 37, 70
13, 69410, Note_off_c, 9, 37, 64
13, 69410, Note_off_c, 9, 42, 64
13, 69520, Note_on_c, 9, 35, 50
13, 69520, Note_on_c, 9, 42, 50
13, 69570, Note_off_c, 9, 42, 64
13, 69570, Note_off_c, 9, 35, 64
13, 69600, Note_on_c, 9, 35, 70
13, 69600, Note_on_c, 9, 42, 70
13, 69650, Note_off_c, 9, 42, 64
13, 69650, Note_off_c, 9, 35, 64
13, 69760, Note_on_c, 9, 42, 50
13, 69810, Note_off_c, 9, 42, 64
13, 69840, Note_on_c, 9, 42, 70
13, 69840, Note_on_c, 9, 37, 70
13, 69890, Note_off_c, 9, 37, 64
13, 69890, Note_off_c, 9, 42, 64
13, 70000, Note_on_c, 9, 35, 50
13, 70000, Note_on_c, 9, 42, 50
13, 70050, Note_off_c, 9, 42, 64
13, 70050, Note_off_c, 9, 35, 64
13, 70080, Note_on_c, 9, 35, 70
13, 70080, Note_on_c, 9, 42, 70
13, 70130, Note_off_c, 9, 42, 64
13, 70130, Note_off_c, 9, 35, 64
13, 70240, Note_on_c, 9, 42, 50
13, 70290, Note_off_c, 9, 42, 64
13, 70320, Note_on_c, 9, 38, 80
13, 70320, Note_on_c, 9, 42, 70
13, 70320, Note_on_c, 9, 37, 70
13, 70370, Note_off_c, 9, 37, 64
13, 70370, Note_off_c, 9, 42, 64
13, 70370, Note_off_c, 9, 38, 64
13, 70480, Note_on_c, 9, 35, 50
13, 70480, Note_on_c, 9, 38, 50
13, 70480, Note_on_c, 9, 42, 50
13, 70530, Note_off_c, 9, 42, 64
13, 70530, Note_off_c, 9, 38, 64
13, 70530, Note_off_c, 9, 35, 64
13, 70560, Note_on_c, 9, 35, 70
13, 70560, Note_on_c, 9, 38, 80
13, 70560, Note_on_c, 9, 42, 70
13, 70610, Note_off_c, 9, 42, 64
13, 70610, Note_off_c, 9, 38, 64
13, 70610, Note_off_c, 9, 35, 64
13, 70640, Note_on_c, 9, 38, 40
13, 70690, Note_off_c, 9, 38, 64
13, 70720, Note_on_c, 9, 38, 50
13, 70720, Note_on_c, 9, 42, 50
13, 70770, Note_off_c, 9, 42, 64
13, 70770, Note_off_c, 9, 38, 64
13, 70800, Note_on_c, 9, 38, 90
13, 70800, Note_on_c, 9, 42, 70
13, 70800, Note_on_c, 9, 37, 80
13, 70850, Note_off_c, 9, 37, 64
13, 70850, Note_off_c, 9, 42, 64
13, 70850, Note_off_c, 9, 38, 64
13, 70880, Note_on_c, 9, 38, 40
13, 70930, Note_off_c, 9, 38, 64
13, 70960, Note_on_c, 9, 35, 50
13, 70960, Note_on_c, 9, 38, 60
13, 70960, Note_on_c, 9, 42, 50
13, 71010, Note_off_c, 9, 42, 64
13, 71010, Note_off_c, 9, 38, 64
13, 71010, Note_off_c, 9, 35, 64
13, 71040, Note_on_c, 9, 35, 70
13, 71040, Note_on_c, 9, 42, 70
13, 71040, Note_on_c, 9, 49, 70
13, 71090, Note_off_c, 9, 49, 64
13, 71090, Note_off_c, 9, 42, 64
13, 71090, Note_off_c, 9, 35, 64
13, 71200, Note_on_c, 9, 42, 50
13, 71250, Note_off_c, 9, 42, 64
13, 71280, Note_on_c, 9, 42, 70
13, 71280, Note_on_c, 9, 37, 70
13, 71330, Note_off_c, 9, 37, 64
13, 71330, Note_off_c, 9, 42, 64
13, 71440, Note_on_c, 9, 35, 50
13, 71440, Note_on_c, 9, 42, 50
13, 71490, Note_off_c, 9, 42, 64
13, 71490, Note_off_c, 9, 35, 64
13, 71520, Note_on_c, 9, 35, 70
13, 71520, Note_on_c, 9, 42, 70
13, 71570, Note_off_c, 9, 42, 64
13, 71570, Note_off_c, 9, 35, 64
13, 71680, Note_on_c, 9, 42, 50
13, 71730, Note_off_c, 9, 42, 64
13, 71760, Note_on_c, 9, 42, 70
13, 71760, Note_on_c, 9, 37, 70
13, 71810, Note_off_c, 9, 37, 64
13, 71810, Note_off_c, 9, 42, 64
13, 71920, Note_on_c, 9, 35, 50
13, 71920, Note_on_c, 9, 42, 50
13, 71970, Note_off_c, 9, 42, 64
13, 71970, Note_off_c, 9, 35, 64
13, 72000, Note_on_c, 9, 35, 70
13, 72000, Note_on_c, 9, 42, 70
13, 72050, Note_off_c, 9, 42, 64
13, 72050, Note_off_c, 9, 35, 64
13, 72160, Note_on_c, 9, 42, 50
13, 72210, Note_off_c, 9, 42, 64
13, 72240, Note_on_c, 9, 42, 70
13, 72240, Note_on_c, 9, 37, 70
13, 72290, Note_off_c, 9, 37, 64
13, 72290, Note_off_c, 9, 42, 64
13, 72400, Note_on_c, 9, 35, 50
13, 72400, Note_on_c, 9, 42, 50
13, 72450, Note_off_c, 9, 42, 64
13, 72450, Note_off_c, 9, 35, 64
13, 72480, Note_on_c, 9, 35, 70
13, 72480, Note_on_c, 9, 42, 70
13, 72530, Note_off_c, 9, 42, 64
13, 72530, Note_off_c, 9, 35, 64
13, 72640, Note_on_c, 9, 42, 50
13, 72690, Note_off_c, 9, 42, 64
13, 72720, Note_on_c, 9, 42, 70
13, 72720, Note_on_c, 9, 37, 70
13, 72770, Note_off_c, 9, 37, 64
13, 72770, Note_off_c, 9, 42, 64
13, 72880, Note_on_c, 9, 35, 50
13, 72880, Note_on_c, 9, 42, 50
13, 72930, Note_off_c, 9, 42, 64
13, 72930, Note_off_c, 9, 35, 64
13, 72960, Note_on_c, 9, 35, 70
13, 72960, Note_on_c, 9, 42, 70
13, 73010, Note_off_c, 9, 42, 64
13, 73010, Note_off_c, 9, 35, 64
13, 73120, Note_on_c, 9, 42, 50
13, 73170, Note_off_c, 9, 42, 64
13, 73200, Note_on_c, 9, 42, 70
13, 73200, Note_on_c, 9, 37, 70
13, 73250, Note_off_c, 9, 37, 64
13, 73250, Note_off_c, 9, 42, 64
13, 73360, Note_on_c, 9, 35, 50
13, 73360, Note_on_c, 9, 42, 50
13, 73410, Note_off_c, 9, 42, 64
13, 73410, Note_off_c, 9, 35, 64
13, 73440, Note_on_c, 9, 35, 70
13, 73440, Note_on_c, 9, 42, 70
13, 73490, Note_off_c, 9, 42, 64
13, 73490, Note_off_c, 9, 35, 64
13, 73600, Note_on_c, 9, 42, 50
13, 73650, Note_off_c, 9, 42, 64
13, 73680, Note_on_c, 9, 42, 70
13, 73680, Note_on_c, 9, 37, 70
13, 73730, Note_off_c, 9, 37, 64
13, 73730, Note_off_c, 9, 42, 64
13, 73840, Note_on_c, 9, 35, 50
13, 73840, Note_on_c, 9, 42, 50
13, 73890, Note_off_c, 9, 42, 64
13, 73890, Note_off_c, 9, 35, 64
13, 73920, Note_on_c, 9, 35, 70
13, 73920, Note_on_c, 9, 42, 70
13, 73970, Note_off_c, 9, 42, 64
13, 73970, Note_off_c, 9, 35, 64
13, 74080, Note_on_c, 9, 42, 50
13, 74130, Note_off_c, 9, 42, 64
13, 74160, Note_on_c, 9, 42, 70
13, 74160, Note_on_c, 9, 37, 70
13, 74210, Note_off_c, 9, 37, 64
13, 74210, Note_off_c, 9, 42, 64
13, 74320, Note_on_c, 9, 35, 50
13, 74320, Note_on_c, 9, 42, 50
13, 74370, Note_off_c, 9, 42, 64
13, 74370, Note_off_c, 9, 35, 64
13, 74400, Note_on_c, 9, 35, 70
13, 74400, Note_on_c, 9, 42, 70
13, 74450, Note_off_c, 9, 42, 64
13, 74450, Note_off_c, 9, 35, 64
13, 74560, Note_on_c, 9, 38, 40
13, 74560, Note_on_c, 9, 42, 50
13, 74610, Note_off_c, 9, 42, 64
13, 74610, Note_off_c, 9, 38, 64
13, 74640, Note_on_c, 9, 38, 70
13, 74640, Note_on_c, 9, 42, 70
13, 74640, Note_on_c, 9, 37, 80
13, 74690, Note_off_c, 9, 37, 64
13, 74690, Note_off_c, 9, 42, 64
13, 74690, Note_off_c, 9, 38, 64
13, 74800, Note_on_c, 9, 35, 50
13, 74800, Note_on_c, 9, 42, 50
13, 74850, Note_off_c, 9, 42, 64
13, 74850, Note_off_c, 9, 35, 64
13, 74880, Note_on_c, 9, 35, 70
13, 74880, Note_on_c, 9, 42, 70
13, 74930, Note_off_c, 9, 42, 64
13, 74930, Note_off_c, 9, 35, 64
13, 75040, Note_on_c, 9, 42, 50
13, 75090, Note_off_c, 9, 42, 64
13, 75120, Note_on_c, 9, 42, 70
13, 75120, Note_on_c, 9, 37, 70
13, 75170, Note_off_c, 9, 37, 64
13, 75170, Note_off_c, 9, 42, 64
13, 75280, Note_on_c, 9, 35, 50
13, 75280, Note_on_c, 9, 42, 50
13, 75330, Note_off_c, 9, 42, 64
13, 75330, Note_off_c, 9, 35, 64
13, 75360, Note_on_c, 9, 35, 70
13, 75360, Note_on_c, 9, 42, 70
13, 75410, Note_off_c, 9, 42, 64
13, 75410, Note_off_c, 9, 35, 64
13, 75520, Note_on_c, 9, 42, 50
13, 75570, Note_off_c, 9, 42, 64
13, 75600, Note_on_c, 9, 42, 70
13, 75600, Note_on_c, 9, 37, 70
13, 75650, Note_off_c, 9, 37, 64
13, 75650, Note_off_c, 9, 42, 64
13, 75760, Note_on_c, 9, 35, 50
13, 75760, Note_on_c, 9, 42, 50
13, 75810, Note_off_c, 9, 42, 64
13, 75810, Note_off_c, 9, 35, 64
13, 75840, Note_on_c, 9, 35, 70
13, 75840, Note_on_c, 9, 42, 70
13, 75890, Note_off_c, 9, 42, 64
13, 75890, Note_off_c, 9, 35, 64
13, 76000, Note_on_c, 9, 42, 50
13, 76050, Note_off_c, 9, 42, 64
13, 76080, Note_on_c, 9, 42, 70
13, 76080, Note_on_c, 9, 37, 70
13, 76130, Note_off_c, 9, 37, 64
13, 76130, Note_off_c, 9, 42, 64
13, 76240, Note_on_c, 9, 35, 50
13, 76240, Note_on_c, 9, 42, 50
13, 76290, Note_off_c, 9, 42, 64
13, 76290, Note_off_c, 9, 35, 64
13, 76320, Note_on_c, 9, 35, 70
13, 76320, Note_on_c, 9, 42, 70
13, 76370, Note_off_c, 9, 42, 64
13, 76370, Note_off_c, 9, 35, 64
13, 76480, Note_on_c, 9, 42, 50
13, 76530, Note_off_c, 9, 42, 64
13, 76560, Note_on_c, 9, 42, 70
13, 76560, Note_on_c, 9, 37, 70
13, 76610, Note_off_c, 9, 37, 64
13, 76610, Note_off_c, 9, 42, 64
13, 76720, Note_on_c, 9, 35, 50
13, 76720, Note_on_c, 9, 42, 50
13, 76770, Note_off_c, 9, 42, 64
13, 76770, Note_off_c, 9, 35, 64
13, 76800, Note_on_c, 9, 35, 70
13, 76800, Note_on_c, 9, 42, 70
13, 76850, Note_off_c, 9, 42, 64
13, 76850, Note_off_c, 9, 35, 64
13, 76960, Note_on_c, 9, 42, 50
13, 77010, Note_off_c, 9, 42, 64
13, 77040, Note_on_c, 9, 42, 70
13, 77040, Note_on_c, 9, 37, 70
13, 77090, Note_off_c, 9, 37, 64
13, 77090, Note_off_c, 9, 42, 64
13, 77200, Note_on_c, 9, 35, 50
13, 77200, Note_on_c, 9, 42, 50
13, 77250, Note_off_c, 9, 42, 64
13, 77250, Note_off_c, 9, 35, 64
13, 77280, Note_on_c, 9, 35, 70
13, 77280, Note_on_c, 9, 42, 70
13, 77330, Note_off_c, 9, 42, 64
13, 77330, Note_off_c, 9, 35, 64
13, 77440, Note_on_c, 9, 42, 50
13, 77490, Note_off_c, 9, 42, 64
13, 77520, Note_on_c, 9, 42, 70
13, 77520, Note_on_c, 9, 37, 70
13, 77570, Note_off_c, 9, 37, 64
13, 77570, Note_off_c, 9, 42, 64
13, 77680, Note_on_c, 9, 35, 50
13, 77680, Note_on_c, 9, 42, 50
13, 77730, Note_off_c, 9, 42, 64
13, 77730, Note_off_c, 9, 35, 64
13, 77760, Note_on_c, 9, 35, 70
13, 77760, Note_on_c, 9, 42, 70
13, 77810, Note_off_c, 9, 42, 64
13, 77810, Note_off_c, 9, 35, 64
13, 77920, Note_on_c, 9, 42, 50
13, 77970, Note_off_c, 9, 42, 64
13, 78000, Note_on_c, 9, 38, 80
13, 78000, Note_on_c, 9, 42, 70
13, 78000, Note_on_c, 9, 37, 70
13, 78050, Note_off_c, 9, 37, 64
13, 78050, Note_off_c, 9, 42, 64
13, 78050, Note_off_c, 9, 38, 64
13, 78160, Note_on_c, 9, 35, 50
13, 78160, Note_on_c, 9, 38, 50
13, 78160, Note_on_c, 9, 42, 50
13, 78210, Note_off_c, 9, 42, 64
13, 78210, Note_off_c, 9, 38, 64
13, 78210, Note_off_c, 9, 35, 64
13, 78240, Note_on_c, 9, 35, 70
13, 78240, Note_on_c, 9, 38, 80
13, 78240, Note_on_c, 9, 42, 70
13, 78290, Note_off_c, 9, 42, 64
13, 78290, Note_off_c, 9, 38, 64
13, 78290, Note_off_c, 9, 35, 64
13, 78320, Note_on_c, 9, 38, 40
13, 78370, Note_off_c, 9, 38, 64
13, 78400, Note_on_c, 9, 38, 50
13, 78400, Note_on_c, 9, 42, 50
13, 78450, Note_off_c, 9, 42, 64
13, 78450, Note_off_c, 9, 38, 64
13, 78480, Note_on_c, 9, 38, 90
13, 78480, Note_on_c, 9, 42, 70
13, 78480, Note_on_c, 9, 37, 80
13, 78530, Note_off_c, 9, 37, 64
13, 78530, Note_off_c, 9, 42, 64
13, 78530, Note_off_c, 9, 38, 64
13, 78560, Note_on_c, 9, 38, 40
13, 78610, Note_off_c, 9, 38, 64
13, 78640, Note_on_c, 9, 35, 50
13, 78640, Note_on_c, 9, 38, 60
13, 78640, Note_on_c, 9, 42, 50
13, 78690, Note_off_c, 9, 42, 64
13, 78690, Note_off_c, 9, 38, 64
13, 78690, Note_off_c, 9, 35, 64
13, 78720, Note_on_c, 9, 35, 80
13, 78720, Note_on_c, 9, 42, 90
13, 78720, Note_on_c, 9, 49, 80
13, 78770, Note_off_c, 9, 49, 64
13, 78770, Note_off_c, 9, 42, 64
13, 78770, Note_off_c, 9, 35, 64
13, 78800, Note_on_c, 9, 42, 60
13, 78850, Note_off_c, 9, 42, 64
13, 78880, Note_on_c, 9, 42, 70
13, 78930, Note_off_c, 9, 42, 64
13, 78960, Note_on_c, 9, 38, 60
13, 78960, Note_on_c, 9, 42, 90
13, 78960, Note_on_c, 9, 37, 80
13, 79010, Note_off_c, 9, 37, 64
13, 79010, Note_off_c, 9, 42, 64
13, 79010, Note_off_c, 9, 38, 64
13, 79040, Note_on_c, 9, 42, 60
13, 79090, Note_off_c, 9, 42, 64
13, 79120, Note_on_c, 9, 35, 60
13, 79120, Note_on_c, 9, 38, 80
13, 79120, Note_on_c, 9, 42, 70
13, 79170, Note_off_c, 9, 42, 64
13, 79170, Note_off_c, 9, 38, 64
13, 79170, Note_off_c, 9, 35, 64
13, 79200, Note_on_c, 9, 35, 80
13, 79200, Note_on_c, 9, 42, 90
13, 79250, Note_off_c, 9, 42, 64
13, 79250, Note_off_c, 9, 35, 64
13, 79280, Note_on_c, 9, 42, 60
13, 79330, Note_off_c, 9, 42, 64
13, 79360, Note_on_c, 9, 42, 70
13, 79410, Note_off_c, 9, 42, 64
13, 79440, Note_on_c, 9, 38, 80
13, 79440, Note_on_c, 9, 42, 90
13, 79440, Note_on_c, 9, 37, 90
13, 79490, Note_off_c, 9, 37, 64
13, 79490, Note_off_c, 9, 42, 64
13, 79490, Note_off_c, 9, 38, 64
13, 79520, Note_on_c, 9, 42, 60
13, 79570, Note_off_c, 9, 42, 64
13, 79600, Note_on_c, 9, 35, 60
13, 79600, Note_on_c, 9, 42, 70
13, 79650, Note_off_c, 9, 42, 64
13, 79650, Note_off_c, 9, 35, 64
13, 79680, Note_on_c, 9, 35, 80
13, 79680, Note_on_c, 9, 42, 90
13, 79730, Note_off_c, 9, 42, 64
13, 79730, Note_off_c, 9, 35, 64
13, 79760, Note_on_c, 9, 42, 60
13, 79810, Note_off_c, 9, 42, 64
13, 79840, Note_on_c, 9, 42, 70
13, 79890, Note_off_c, 9, 42, 64
13, 79920, Note_on_c, 9, 38, 80
13, 79920, Note_on_c, 9, 42, 90
13, 79920, Note_on_c, 9, 37, 80
13, 79970, Note_off_c, 9, 37, 64
13, 79970, Note_off_c, 9, 42, 64
13, 79970, Note_off_c, 9, 38, 64
13, 80000, Note_on_c, 9, 42, 60
13, 80050, Note_off_c, 9, 42, 64
13, 80080, Note_on_c, 9, 35, 60
13, 80080, Note_on_c, 9, 38, 80
13, 80080, Note_on_c, 9, 42, 70
13, 80130, Note_off_c, 9, 42, 64
13, 80130, Note_off_c, 9, 38, 64
13, 80130, Note_off_c, 9, 35, 64
13, 80160, Note_on_c, 9, 35, 80
13, 80160, Note_on_c, 9, 42, 90
13, 80210, Note_off_c, 9, 42, 64
13, 80210, Note_off_c, 9, 35, 64
13, 80240, Note_on_c, 9, 42, 60
13, 80290, Note_off_c, 9, 42, 64
13, 80320, Note_on_c, 9, 42, 70
13, 80370, Note_off_c, 9, 42, 64
13, 80400, Note_on_c, 9, 38, 80
13, 80400, Note_on_c, 9, 42, 90
13, 80400, Note_on_c, 9, 37, 90
13, 80450, Note_off_c, 9, 37, 64
13, 80450, Note_off_c, 9, 42, 64
13, 80450, Note_off_c, 9, 38, 64
13, 80480, Note_on_c, 9, 42, 60
13, 80530, Note_off_c, 9, 42, 64
13, 80560, Note_on_c, 9, 35, 60
13, 80560, Note_on_c, 9, 42, 70
13, 80610, Note_off_c, 9, 42, 64
13, 80610, Note_off_c, 9, 35, 64
13, 80640, Note_on_c, 9, 35, 80
13, 80640, Note_on_c, 9, 42, 90
13, 80690, Note_off_c, 9, 42, 64
13, 80690, Note_off_c, 9, 35, 64
13, 80720, Note_on_c, 9, 42, 60
13, 80770, Note_off_c, 9, 42, 64
13, 80800, Note_on_c, 9, 42, 70
13, 80850, Note_off_c, 9, 42, 64
13, 80880, Note_on_c, 9, 38, 80
13, 80880, Note_on_c, 9, 42, 90
13, 80880, Note_on_c, 9, 37, 80
13, 80930, Note_off_c, 9, 37, 64
13, 80930, Note_off_c, 9, 42, 64
13, 80930, Note_off_c, 9, 38, 64
13, 80960, Note_on_c, 9, 42, 60
13, 81010, Note_off_c, 9, 42, 64
13, 81040, Note_on_c, 9, 35, 60
13, 81040, Note_on_c, 9, 38, 70
13, 81040, Note_on_c, 9, 42, 70
13, 81090, Note_off_c, 9, 42, 64
13, 81090, Note_off_c, 9, 38, 64
13, 81090, Note_off_c, 9, 35, 64
13, 81120, Note_on_c, 9, 35, 80
13, 81120, Note_on_c, 9, 42, 90
13, 81170, Note_off_c, 9, 42, 64
13, 81170, Note_off_c, 9, 35, 64
13, 81200, Note_on_c, 9, 42, 60
13, 81250, Note_off_c, 9, 42, 64
13, 81280, Note_on_c, 9, 42, 70
13, 81330, Note_off_c, 9, 42, 64
13, 81360, Note_on_c, 9, 38, 80
13, 81360, Note_on_c, 9, 42, 90
13, 81360, Note_on_c, 9, 37, 90
13, 81410, Note_off_c, 9, 37, 64
13, 81410, Note_off_c, 9, 42, 64
13, 81410, Note_off_c, 9, 38, 64
13, 81440, Note_on_c, 9, 42, 60
13, 81490, Note_off_c, 9, 42, 64
13, 81520, Note_on_c, 9, 35, 60
13, 81520, Note_on_c, 9, 46, 72
13, 81570, Note_off_c, 9, 46, 64
13, 81570, Note_off_c, 9, 35, 64
13, 81600, Note_on_c, 9, 35, 80
13, 81600, Note_on_c, 9, 42, 90
13, 81650, Note_off_c, 9, 42, 64
13, 81650, Note_off_c, 9, 35, 64
13, 81680, Note_on_c, 9, 42, 60
13, 81730, Note_off_c, 9, 42, 64
13, 81760, Note_on_c, 9, 42, 70
13, 81810, Note_off_c, 9, 42, 64
13, 81840, Note_on_c, 9, 38, 80
13, 81840, Note_on_c, 9, 42, 90
13, 81840, Note_on_c, 9, 37, 80
13, 81890, Note_off_c, 9, 37, 64
13, 81890, Note_off_c, 9, 42, 64
13, 81890, Note_off_c, 9, 38, 64
13, 81920, Note_on_c, 9, 42, 60
13, 81970, Note_off_c, 9, 42, 64
13, 82000, Note_on_c, 9, 35, 60
13, 82000, Note_on_c, 9, 38, 80
13, 82000, Note_on_c, 9, 42, 70
13, 82050, Note_off_c, 9, 42, 64
13, 82050, Note_off_c, 9, 38, 64
13, 82050, Note_off_c, 9, 35, 64
13, 82080, Note_on_c, 9, 35, 80
13, 82080, Note_on_c, 9, 42, 90
13, 82130, Note_off_c, 9, 42, 64
13, 82130, Note_off_c, 9, 35, 64
13, 82160, Note_on_c, 9, 42, 60
13, 82210, Note_off_c, 9, 42, 64
13, 82240, Note_on_c, 9, 42, 70
13, 82290, Note_off_c, 9, 42, 64
13, 82320, Note_on_c, 9, 38, 80
13, 82320, Note_on_c, 9, 42, 90
13, 82320, Note_on_c, 9, 37, 90
13, 82370, Note_off_c, 9, 37, 64
13, 82370, Note_off_c, 9, 42, 64
13, 82370, Note_off_c, 9, 38, 64
13, 82400, Note_on_c, 9, 42, 60
13, 82450, Note_off_c, 9, 42, 64
13, 82480, Note_on_c, 9, 35, 60
13, 82480, Note_on_c, 9, 46, 72
13, 82530, Note_off_c, 9, 46, 64
13, 82530, Note_off_c, 9, 35, 64
13, 82560, Note_on_c, 9, 35, 80
13, 82560, Note_on_c, 9, 42, 90
13, 82610, Note_off_c, 9, 42, 64
13, 82610, Note_off_c, 9, 35, 64
13, 82640, Note_on_c, 9, 42, 60
13, 82690, Note_off_c, 9, 42, 64
13, 82720, Note_on_c, 9, 42, 70
13, 82770, Note_off_c, 9, 42, 64
13, 82800, Note_on_c, 9, 38, 80
13, 82800, Note_on_c, 9, 42, 90
13, 82800, Note_on_c, 9, 37, 80
13, 82850, Note_off_c, 9, 37, 64
13, 82850, Note_off_c, 9, 42, 64
13, 82850, Note_off_c, 9, 38, 64
13, 82880, Note_on_c, 9, 42, 60
13, 82930, Note_off_c, 9, 42, 64
13, 82960, Note_on_c, 9, 35, 60
13, 82960, Note_on_c, 9, 38, 80
13, 82960, Note_on_c, 9, 42, 70
13, 83010, Note_off_c, 9, 42, 64
13, 83010, Note_off_c, 9, 38, 64
13, 83010, Note_off_c, 9, 35, 64
13, 83040, Note_on_c, 9, 35, 80
13, 83040, Note_on_c, 9, 42, 90
13, 83090, Note_off_c, 9, 42, 64
13, 83090, Note_off_c, 9, 35, 64
13, 83120, Note_on_c, 9, 42, 60
13, 83170, Note_off_c, 9, 42, 64
13, 83200, Note_on_c, 9, 42, 70
13, 83250, Note_off_c, 9, 42, 64
13, 83280, Note_on_c, 9, 38, 80
13, 83280, Note_on_c, 9, 42, 90
13, 83280, Note_on_c, 9, 37, 90
13, 83330, Note_off_c, 9, 37, 64
13, 83330, Note_off_c, 9, 42, 64
13, 83330, Note_off_c, 9, 38, 64
13, 83360, Note_on_c, 9, 42, 60
13, 83410, Note_off_c, 9, 42, 64
13, 83440, Note_on_c, 9, 35, 60
13, 83440, Note_on_c, 9, 42, 70
13, 83490, Note_off_c, 9, 42, 64
13, 83490, Note_off_c, 9, 35, 64
13, 83520, Note_on_c, 9, 35, 80
13, 83520, Note_on_c, 9, 42, 90
13, 83570, Note_off_c, 9, 42, 64
13, 83570, Note_off_c, 9, 35, 64
13, 83600, Note_on_c, 9, 42, 60
13, 83650, Note_off_c, 9, 42, 64
13, 83680, Note_on_c, 9, 42, 70
13, 83730, Note_off_c, 9, 42, 64
13, 83760, Note_on_c, 9, 38, 80
13, 83760, Note_on_c, 9, 42, 90
13, 83760, Note_on_c, 9, 37, 80
13, 83810, Note_off_c, 9, 37, 64
13, 83810, Note_off_c, 9, 42, 64
13, 83810, Note_off_c, 9, 38, 64
13, 83840, Note_on_c, 9, 42, 60
13, 83890, Note_off_c, 9, 42, 64
13, 83920, Note_on_c, 9, 35, 60
13, 83920, Note_on_c, 9, 38, 70
13, 83920, Note_on_c, 9, 42, 70
13, 83970, Note_off_c, 9, 42, 64
13, 83970, Note_off_c, 9, 38, 64
13, 83970, Note_off_c, 9, 35, 64
13, 84000, Note_on_c, 9, 35, 80
13, 84000, Note_on_c, 9, 42, 90
13, 84050, Note_off_c, 9, 42, 64
13, 84050, Note_off_c, 9, 35, 64
13, 84080, Note_on_c, 9, 42, 60
13, 84130, Note_off_c, 9, 42, 64
13, 84160, Note_on_c, 9, 42, 70
13, 84210, Note_off_c, 9, 42, 64
13, 84240, Note_on_c, 9, 38, 80
13, 84240, Note_on_c, 9, 42, 90
13, 84240, Note_on_c, 9, 37, 90
13, 84290, Note_off_c, 9, 37, 64
13, 84290, Note_off_c, 9, 42, 64
13, 84290, Note_off_c, 9, 38, 64
13, 84320, Note_on_c, 9, 42, 60
13, 84370, Note_off_c, 9, 42, 64
13, 84400, Note_on_c, 9, 35, 60
13, 84400, Note_on_c, 9, 42, 70
13, 84450, Note_off_c, 9, 42, 64
13, 84450, Note_off_c, 9, 35, 64
13, 84480, Note_on_c, 9, 35, 80
13, 84480, Note_on_c, 9, 42, 90
13, 84530, Note_off_c, 9, 42, 64
13, 84530, Note_off_c, 9, 35, 64
13, 84560, Note_on_c, 9, 42, 60
13, 84610, Note_off_c, 9, 42, 64
13, 84640, Note_on_c, 9, 42, 70
13, 84690, Note_off_c, 9, 42, 64
13, 84720, Note_on_c, 9, 38, 80
13, 84720, Note_on_c, 9, 42, 90
13, 84720, Note_on_c, 9, 37, 80
13, 84770, Note_off_c, 9, 37, 64
13, 84770, Note_off_c, 9, 42, 64
13, 84770, Note_off_c, 9, 38, 64
13, 84800, Note_on_c, 9, 42, 60
13, 84850, Note_off_c, 9, 42, 64
13, 84880, Note_on_c, 9, 35, 60
13, 84880, Note_on_c, 9, 38, 80
13, 84880, Note_on_c, 9, 42, 70
13, 84930, Note_off_c, 9, 42, 64
13, 84930, Note_off_c, 9, 38, 64
13, 84930, Note_off_c, 9, 35, 64
13, 84960, Note_on_c, 9, 35, 80
13, 84960, Note_on_c, 9, 42, 90
13, 85010, Note_off_c, 9, 42, 64
13, 85010, Note_off_c, 9, 35, 64
13, 85040, Note_on_c, 9, 42, 60
13, 85090, Note_off_c, 9, 42, 64
13, 85120, Note_on_c, 9, 42, 70
13, 85170, Note_off_c, 9, 42, 64
13, 85200, Note_on_c, 9, 38, 80
13, 85200, Note_on_c, 9, 42, 90
13, 85200, Note_on_c, 9, 37, 90
13, 85250, Note_off_c, 9, 37, 64
13, 85250, Note_off_c, 9, 42, 64
13, 85250, Note_off_c, 9, 38, 64
13, 85280, Note_on_c, 9, 42, 60
13, 85330, Note_off_c, 9, 42, 64
13, 85360, Note_on_c, 9, 35, 60
13, 85360, Note_on_c, 9, 46, 72
13, 85410, Note_off_c, 9, 46, 64
13, 85410, Note_off_c, 9, 35, 64
13, 85440, Note_on_c, 9, 35, 80
13, 85440, Note_on_c, 9, 42, 90
13, 85490, Note_off_c, 9, 42, 64
13, 85490, Note_off_c, 9, 35, 64
13, 85520, Note_on_c, 9, 42, 60
13, 85570, Note_off_c, 9, 42, 64
13, 85600, Note_on_c, 9, 42, 70
13, 85650, Note_off_c, 9, 42, 64
13, 85680, Note_on_c, 9, 38, 80
13, 85680, Note_on_c, 9, 42, 90
13, 85680, Note_on_c, 9, 37, 80
13, 85730, Note_off_c, 9, 37, 64
13, 85730, Note_off_c, 9, 42, 64
13, 85730, Note_off_c, 9, 38, 64
13, 85760, Note_on_c, 9, 42, 60
13, 85810, Note_off_c, 9, 42, 64
13, 85840, Note_on_c, 9, 35, 60
13, 85840, Note_on_c, 9, 38, 50
13, 85840, Note_on_c, 9, 42, 70
13, 85890, Note_off_c, 9, 42, 64
13, 85890, Note_off_c, 9, 38, 64
13, 85890, Note_off_c, 9, 35, 64
13, 85920, Note_on_c, 9, 35, 80
13, 85920, Note_on_c, 9, 38, 90
13, 85920, Note_on_c, 9, 42, 90
13, 85970, Note_off_c, 9, 42, 64
13, 85970, Note_off_c, 9, 38, 64
13, 85970, Note_off_c, 9, 35, 64
13, 86000, Note_on_c, 9, 38, 50
13, 86000, Note_on_c, 9, 42, 60
13, 86050, Note_off_c, 9, 42, 64
13, 86050, Note_off_c, 9, 38, 64
13, 86080, Note_on_c, 9, 38, 70
13, 86080, Note_on_c, 9, 42, 70
13, 86130, Note_off_c, 9, 42, 64
13, 86130, Note_off_c, 9, 38, 64
13, 86160, Note_on_c, 9, 35, 80
13, 86160, Note_on_c, 9, 38, 80
13, 86160, Note_on_c, 9, 42, 90
13, 86160, Note_on_c, 9, 37, 90
13, 86210, Note_off_c, 9, 37, 64
13, 86210, Note_off_c, 9, 42, 64
13, 86210, Note_off_c, 9, 38, 64
13, 86210, Note_off_c, 9, 35, 64
13, 86240, Note_on_c, 9, 38, 50
13, 86240, Note_on_c, 9, 42, 60
13, 86290, Note_off_c, 9, 42, 64
13, 86290, Note_off_c, 9, 38, 64
13, 86320, Note_on_c, 9, 35, 60
13, 86320, Note_on_c, 9, 38, 70
13, 86320, Note_on_c, 9, 42, 70
13, 86370, Note_off_c, 9, 42, 64
13, 86370, Note_off_c, 9, 38, 64
13, 86370, Note_off_c, 9, 35, 64
13, 86400, Note_on_c, 9, 35, 70
13, 86400, Note_on_c, 9, 42, 70
13, 86450, Note_off_c, 9, 42, 64
13, 86450, Note_off_c, 9, 35, 64
13, 86560, Note_on_c, 9, 42, 50
13, 86610, Note_off_c, 9, 42, 64
13, 86640, Note_on_c, 9, 42, 70
13, 86640, Note_on_c, 9, 37, 70
13, 86690, Note_off_c, 9, 37, 64
13, 86690, Note_off_c, 9, 42, 64
13, 86800, Note_on_c, 9, 35, 50
13, 86800, Note_on_c, 9, 42, 50
13, 86850, Note_off_c, 9, 42, 64
13, 86850, Note_off_c, 9, 35, 64
13, 86880, Note_on_c, 9, 35, 70
13, 86880, Note_on_c, 9, 42, 70
13, 86930, Note_off_c, 9, 42, 64
13, 86930, Note_off_c, 9, 35, 64
13, 87040, Note_on_c, 9, 42, 50
13, 87090, Note_off_c, 9, 42, 64
13, 87120, Note_on_c, 9, 42, 70
13, 87120, Note_on_c, 9, 37, 70
13, 87170, Note_off_c, 9, 37, 64
13, 87170, Note_off_c, 9, 42, 64
13, 87280, Note_on_c, 9, 35, 50
13, 87280, Note_on_c, 9, 42, 50
13, 87330, Note_off_c, 9, 42, 64
13, 87330, Note_off_c, 9, 35, 64
13, 87360, Note_on_c, 9, 35, 70
13, 87360, Note_on_c, 9, 42, 70
13, 87410, Note_off_c, 9, 42, 64
13, 87410, Note_off_c, 9, 35, 64
13, 87520, Note_on_c, 9, 42, 50
13, 87570, Note_off_c, 9, 42, 64
13, 87600, Note_on_c, 9, 42, 70
13, 87600, Note_on_c, 9, 37, 70
13, 87650, Note_off_c, 9, 37, 64
13, 87650, Note_off_c, 9, 42, 64
13, 87760, Note_on_c, 9, 35, 50
13, 87760, Note_on_c, 9, 42, 50
13, 87810, Note_off_c, 9, 42, 64
13, 87810, Note_off_c, 9, 35, 64
13, 87840, Note_on_c, 9, 35, 70
13, 87840, Note_on_c, 9, 42, 70
13, 87890, Note_off_c, 9, 42, 64
13, 87890, Note_off_c, 9, 35, 64
13, 88000, Note_on_c, 9, 42, 50
13, 88050, Note_off_c, 9, 42, 64
13, 88080, Note_on_c, 9, 42, 70
13, 88080, Note_on_c, 9, 37, 70
13, 88130, Note_off_c, 9, 37, 64
13, 88130, Note_off_c, 9, 42, 64
13, 88240, Note_on_c, 9, 35, 50
13, 88240, Note_on_c, 9, 42, 50
13, 88290, Note_off_c, 9, 42, 64
13, 88290, Note_off_c, 9, 35, 64
13, 88320, Note_on_c, 9, 35, 70
13, 88320, Note_on_c, 9, 42, 70
13, 88370, Note_off_c, 9, 42, 64
13, 88370, Note_off_c, 9, 35, 64
13, 88480, Note_on_c, 9, 42, 50
13, 88530, Note_off_c, 9, 42, 64
13, 88560, Note_on_c, 9, 42, 70
13, 88560, Note_on_c, 9, 37, 70
13, 88610, Note_off_c, 9, 37, 64
13, 88610, Note_off_c, 9, 42, 64
13, 88720, Note_on_c, 9, 35, 50
13, 88720, Note_on_c, 9, 42, 50
13, 88770, Note_off_c, 9, 42, 64
13, 88770, Note_off_c, 9, 35, 64
13, 88800, Note_on_c, 9, 35, 70
13, 88800, Note_on_c, 9, 42, 70
13, 88850, Note_off_c, 9, 42, 64
13, 88850, Note_off_c, 9, 35, 64
13, 88960, Note_on_c, 9, 42, 50
13, 89010, Note_off_c, 9, 42, 64
13, 89040, Note_on_c, 9, 42, 70
13, 89040, Note_on_c, 9, 37, 70
13, 89090, Note_off_c, 9, 37, 64
13, 89090, Note_off_c, 9, 42, 64
13, 89200, Note_on_c, 9, 35, 50
13, 89200, Note_on_c, 9, 42, 50
13, 89250, Note_off_c, 9, 42, 64
13, 89250, Note_off_c, 9, 35, 64
13, 89280, Note_on_c, 9, 35, 70
13, 89280, Note_on_c, 9, 42, 70
13, 89330, Note_off_c, 9, 42, 64
13, 89330, Note_off_c, 9, 35, 64
13, 89440, Note_on_c, 9, 42, 50
13, 89490, Note_off_c, 9, 42, 64
13, 89520, Note_on_c, 9, 42, 70
13, 89520, Note_on_c, 9, 37, 70
13, 89570, Note_off_c, 9, 37, 64
13, 89570, Note_off_c, 9, 42, 64
13, 89680, Note_on_c, 9, 35, 50
13, 89680, Note_on_c, 9, 42, 50
13, 89730, Note_off_c, 9, 42, 64
13, 89730, Note_off_c, 9, 35, 64
13, 89760, Note_on_c, 9, 35, 70
13, 89760, Note_on_c, 9, 42, 70
13, 89810, Note_off_c, 9, 42, 64
13, 89810, Note_off_c, 9, 35, 64
13, 89920, Note_on_c, 9, 42, 50
13, 89970, Note_off_c, 9, 42, 64
13, 90000, Note_on_c, 9, 42, 70
13, 90000, Note_on_c, 9, 37, 70
13, 90050, Note_off_c, 9, 37, 64
13, 90050, Note_off_c, 9, 42, 64
13, 90160, Note_on_c, 9, 35, 50
13, 90160, Note_on_c, 9, 42, 50
13, 90210, Note_off_c, 9, 42, 64
13, 90210, Note_off_c, 9, 35, 64
13, 90240, Note_on_c, 9, 35, 70
13, 90240, Note_on_c, 9, 42, 70
13, 90290, Note_off_c, 9, 42, 64
13, 90290, Note_off_c, 9, 35, 64
13, 90400, Note_on_c, 9, 42, 50
13, 90450, Note_off_c, 9, 42, 64
13, 90480, Note_on_c, 9, 42, 70
13, 90480, Note_on_c, 9, 37, 70
13, 90530, Note_off_c, 9, 37, 64
13, 90530, Note_off_c, 9, 42, 64
13, 90640, Note_on_c, 9, 35, 50
13, 90640, Note_on_c, 9, 42, 50
13, 90690, Note_off_c, 9, 42, 64
13, 90690, Note_off_c, 9, 35, 64
13, 90720, Note_on_c, 9, 35, 70
13, 90720, Note_on_c, 9, 42, 70
13, 90770, Note_off_c, 9, 42, 64
13, 90770, Note_off_c, 9, 35, 64
13, 90880, Note_on_c, 9, 42, 50
13, 90930, Note_off_c, 9, 42, 64
13, 90960, Note_on_c, 9, 42, 70
13, 90960, Note_on_c, 9, 37, 70
13, 91010, Note_off_c, 9, 37, 64
13, 91010, Note_off_c, 9, 42, 64
13, 91120, Note_on_c, 9, 35, 50
13, 91120, Note_on_c, 9, 42, 50
13, 91170, Note_off_c, 9, 42, 64
13, 91170, Note_off_c, 9, 35, 64
13, 91200, Note_on_c, 9, 35, 70
13, 91200, Note_on_c, 9, 42, 70
13, 91250, Note_off_c, 9, 42, 64
13, 91250, Note_off_c, 9, 35, 64
13, 91360, Note_on_c, 9, 42, 50
13, 91410, Note_off_c, 9, 42, 64
13, 91440, Note_on_c, 9, 42, 70
13, 91440, Note_on_c, 9, 37, 70
13, 91490, Note_off_c, 9, 37, 64
13, 91490, Note_off_c, 9, 42, 64
13, 91600, Note_on_c, 9, 35, 50
13, 91600, Note_on_c, 9, 42, 50
13, 91650, Note_off_c, 9, 42, 64
13, 91650, Note_off_c, 9, 35, 64
13, 91680, Note_on_c, 9, 35, 70
13, 91680, Note_on_c, 9, 42, 70
13, 91730, Note_off_c, 9, 42, 64
13, 91730, Note_off_c, 9, 35, 64
13, 91840, Note_on_c, 9, 42, 50
13, 91890, Note_off_c, 9, 42, 64
13, 91920, Note_on_c, 9, 42, 70
13, 91920, Note_on_c, 9, 37, 70
13, 91970, Note_off_c, 9, 37, 64
13, 91970, Note_off_c, 9, 42, 64
13, 92080, Note_on_c, 9, 35, 50
13, 92080, Note_on_c, 9, 42, 50
13, 92130, Note_off_c, 9, 42, 64
13, 92130, Note_off_c, 9, 35, 64
13, 92160, Note_on_c, 9, 35, 70
13, 92160, Note_on_c, 9, 42, 70
13, 92210, Note_off_c, 9, 42, 64
13, 92210, Note_off_c, 9, 35, 64
13, 92320, Note_on_c, 9, 42, 50
13, 92370, Note_off_c, 9, 42, 64
13, 92400, Note_on_c, 9, 42, 70
13, 92400, Note_on_c, 9, 37, 70
13, 92450, Note_off_c, 9, 37, 64
13, 92450, Note_off_c, 9, 42, 64
13, 92560, Note_on_c, 9, 35, 50
13, 92560, Note_on_c, 9, 42, 50
13, 92610, Note_off_c, 9, 42, 64
13, 92610, Note_off_c, 9, 35, 64
13, 92640, Note_on_c, 9, 35, 70
13, 92640, Note_on_c, 9, 42, 70
13, 92690, Note_off_c, 9, 42, 64
13, 92690, Note_off_c, 9, 35, 64
13, 92800, Note_on_c, 9, 42, 50
13, 92850, Note_off_c, 9, 42, 64
13, 92880, Note_on_c, 9, 42, 70
13, 92880, Note_on_c, 9, 37, 70
13, 92930, Note_off_c, 9, 37, 64
13, 92930, Note_off_c, 9, 42, 64
13, 93040, Note_on_c, 9, 35, 50
13, 93040, Note_on_c, 9, 42, 50
13, 93090, Note_off_c, 9, 42, 64
13, 93090, Note_off_c, 9, 35, 64
13, 93120, Note_on_c, 9, 35, 70
13, 93120, Note_on_c, 9, 42, 70
13, 93170, Note_off_c, 9, 42, 64
13, 93170, Note_off_c, 9, 35, 64
13, 93280, Note_on_c, 9, 42, 50
13, 93330, Note_off_c, 9, 42, 64
13, 93360, Note_on_c, 9, 38, 80
13, 93360, Note_on_c, 9, 42, 70
13, 93360, Note_on_c, 9, 37, 70
13, 93410, Note_off_c, 9, 37, 64
13, 93410, Note_off_c, 9, 42, 64
13, 93410, Note_off_c, 9, 38, 64
13, 93520, Note_on_c, 9, 35, 50
13, 93520, Note_on_c, 9, 38, 50
13, 93520, Note_on_c, 9, 42, 50
13, 93570, Note_off_c, 9, 42, 64
13, 93570, Note_off_c, 9, 38, 64
13, 93570, Note_off_c, 9, 35, 64
13, 93600, Note_on_c, 9, 35, 70
13, 93600, Note_on_c, 9, 38, 80
13, 93600, Note_on_c, 9, 42, 70
13, 93650, Note_off_c, 9, 42, 64
13, 93650, Note_off_c, 9, 38, 64
13, 93650, Note_off_c, 9, 35, 64
13, 93680, Note_on_c, 9, 38, 40
13, 93730, Note_off_c, 9, 38, 64
13, 93760, Note_on_c, 9, 38, 50
13, 93760, Note_on_c, 9, 42, 50
13, 93810, Note_off_c, 9, 42, 64
13, 93810, Note_off_c, 9, 38, 64
13, 93840, Note_on_c, 9, 38, 90
13, 93840, Note_on_c, 9, 42, 70
13, 93840, Note_on_c, 9, 37, 80
13, 93890, Note_off_c, 9, 37, 64
13, 93890, Note_off_c, 9, 42, 64
13, 93890, Note_off_c, 9, 38, 64
13, 93920, Note_on_c, 9, 38, 40
13, 93970, Note_off_c, 9, 38, 64
13, 94000, Note_on_c, 9, 35, 50
13, 94000, Note_on_c, 9, 38, 60
13, 94000, Note_on_c, 9, 42, 50
13, 94050, Note_off_c, 9, 42, 64
13, 94050, Note_off_c, 9, 38, 64
13, 94050, Note_off_c, 9, 35, 64
13, 94080, Note_on_c, 9, 35, 80
13, 94080, Note_on_c, 9, 42, 90
13, 94130, Note_off_c, 9, 42, 64
13, 94130, Note_off_c, 9, 35, 64
13, 94160, Note_on_c, 9, 42, 60
13, 94210, Note_off_c, 9, 42, 64
13, 94240, Note_on_c, 9, 42, 70
13, 94290, Note_off_c, 9, 42, 64
13, 94320, Note_on_c, 9, 38, 80
13, 94320, Note_on_c, 9, 42, 90
13, 94320, Note_on_c, 9, 37, 80
13, 94370, Note_off_c, 9, 37, 64
13, 94370, Note_off_c, 9, 42, 64
13, 94370, Note_off_c, 9, 38, 64
13, 94400, Note_on_c, 9, 42, 60
13, 94450, Note_off_c, 9, 42, 64
13, 94480, Note_on_c, 9, 35, 60
13, 94480, Note_on_c, 9, 38, 50
13, 94480, Note_on_c, 9, 42, 70
13, 94530, Note_off_c, 9, 42, 64
13, 94530, Note_off_c, 9, 38, 64
13, 94530, Note_off_c, 9, 35, 64
13, 94560, Note_on_c, 9, 35, 80
13, 94560, Note_on_c, 9, 38, 90
13, 94560, Note_on_c, 9, 42, 90
13, 94610, Note_off_c, 9, 42, 64
13, 94610, Note_off_c, 9, 38, 64
13, 94610, Note_off_c, 9, 35, 64
13, 94640, Note_on_c, 9, 38, 50
13, 94640, Note_on_c, 9, 42, 60
13, 94690, Note_off_c, 9, 42, 64
13, 94690, Note_off_c, 9, 38, 64
13, 94720, Note_on_c, 9, 38, 70
13, 94720, Note_on_c, 9, 42, 70
13, 94770, Note_off_c, 9, 42, 64
13, 94770, Note_off_c, 9, 38, 64
13, 94800, Note_on_c, 9, 35, 80
13, 94800, Note_on_c, 9, 38, 80
13, 94800, Note_on_c, 9, 42, 90
13, 94800, Note_on_c, 9, 37, 90
13, 94850, Note_off_c, 9, 37, 64
13, 94850, Note_off_c, 9, 42, 64
13, 94850, Note_off_c, 9, 38, 64
13, 94850, Note_off_c, 9, 35, 64
13, 94880, Note_on_c, 9, 38, 50
13, 94880, Note_on_c, 9, 42, 60
13, 94930, Note_off_c, 9, 42, 64
13, 94930, Note_off_c, 9, 38, 64
13, 94960, Note_on_c, 9, 35, 60
13, 94960, Note_on_c, 9, 38, 70
13, 94960, Note_on_c, 9, 46, 72
13, 95010, Note_off_c, 9, 46, 64
13, 95010, Note_off_c, 9, 38, 64
13, 95010, Note_off_c, 9, 35, 64
13, 95040, Note_on_c, 9, 35, 80
13, 95040, Note_on_c, 9, 38, 60
13, 95040, Note_on_c, 9, 42, 90
13, 95040, Note_on_c, 9, 37, 80
13, 95040, Note_on_c, 9, 49, 60
13, 95090, Note_off_c, 9, 49, 64
13, 95090, Note_off_c, 9, 37, 64
13, 95090, Note_off_c, 9, 42, 64
13, 95090, Note_off_c, 9, 38, 64
13, 95090, Note_off_c, 9, 35, 64
13, 95120, Note_on_c, 9, 42, 60
13, 95170, Note_off_c, 9, 42, 64
13, 95200, Note_on_c, 9, 38, 50
13, 95200, Note_on_c, 9, 42, 70
13, 95250, Note_off_c, 9, 42, 64
13, 95250, Note_off_c, 9, 38, 64
13, 95280, Note_on_c, 9, 35, 70
13, 95280, Note_on_c, 9, 38, 80
13, 95280, Note_on_c, 9, 42, 90
13, 95280, Note_on_c, 9, 37, 80
13, 95330, Note_off_c, 9, 37, 64
13, 95330, Note_off_c, 9, 42, 64
13, 95330, Note_off_c, 9, 38, 64
13, 95330, Note_off_c, 9, 35, 64
13, 95360, Note_on_c, 9, 42, 60
13, 95410, Note_off_c, 9, 42, 64
13, 95440, Note_on_c, 9, 42, 70
13, 95490, Note_off_c, 9, 42, 64
13, 95520, Note_on_c, 9, 35, 80
13, 95520, Note_on_c, 9, 38, 90
13, 95520, Note_on_c, 9, 42, 90
13, 95520, Note_on_c, 9, 37, 80
13, 95520, Note_on_c, 9, 49, 80
13, 95570, Note_off_c, 9, 49, 64
13, 95570, Note_off_c, 9, 37, 64
13, 95570, Note_off_c, 9, 42, 64
13, 95570, Note_off_c, 9, 38, 64
13, 95570, Note_off_c, 9, 35, 64
13, 95570, End_track
14, 0, Start_track
14, 0, End_track
15, 0, Start_track
15, 0, Title_t, "All instr./Roland Sound Canvas"
15, 0, End_track
16, 0, Start_track
16, 0, Title_t, "Freely distr.  /  GMidi type 1"
16, 0, End_track
17, 0, Start_track
17, 0, Title_t, "DO NOT attempt to sell this"
17, 0, End_track
18, 0, Start_track
18, 0, Title_t, "copyright tune"
18, 0, End_track
19, 0, Start_track
19, 0, Title_t, "Contact kmel@powernet.net"
19, 0, End_track
20, 0, Start_track
20, 0, Title_t, "Run time 4:17  /  EZ Listening"
20, 0, End_track
21, 0, Start_track
21, 0, Title_t, "Feb  2  / 98"
21, 0, End_track
0, 0, End_of_file
