0, 0, Header, 0, 1, 96
1, 0, Start_track
1, 0, SMPTE_offset, 96, 0, 3, 0, 0
1, 0, MIDI_port, 0
1, 0, System_exclusive, 10, 65, 16, 66, 18, 64, 0, 127, 0, 65, 247
1, 0, MIDI_port, 0
1, 0, System_exclusive, 10, 65, 16, 66, 18, 64, 1, 49, 2, 12, 247
1, 0, MIDI_port, 0
1, 0, System_exclusive, 10, 65, 16, 66, 18, 64, 1, 51, 113, 27, 247
1, 0, MIDI_port, 0
1, 0, System_exclusive, 10, 65, 16, 66, 18, 64, 1, 52, 35, 104, 247
1, 0, MIDI_port, 0
1, 0, System_exclusive, 10, 65, 16, 66, 18, 64, 1, 50, 7, 6, 247
1, 0, MIDI_port, 0
1, 0, Time_signature, 4, 2, 24, 8
1, 0, Key_signature, 0, "major"
1, 0, Tempo, 322563
1, 96, Control_c, 0, 0, 0
1, 97, Control_c, 0, 32, 0
1, 98, Program_c, 0, 7
1, 99, Control_c, 0, 7, 56
1, 99, Control_c, 0, 10, 60
1, 99, Control_c, 0, 11, 127
1, 100, Control_c, 0, 91, 48
1, 100, Control_c, 0, 93, 0
1, 101, Control_c, 1, 0, 0
1, 102, Control_c, 1, 32, 0
1, 103, Program_c, 1, 35
1, 104, Control_c, 1, 7, 87
1, 104, Control_c, 1, 10, 66
1, 104, Control_c, 1, 11, 127
1, 105, Control_c, 1, 91, 6
1, 105, Control_c, 1, 93, 0
1, 106, Control_c, 2, 0, 8
1, 107, Control_c, 2, 32, 0
1, 108, Program_c, 2, 28
1, 109, Control_c, 2, 7, 81
1, 109, Control_c, 2, 10, 40
1, 109, Control_c, 2, 11, 127
1, 110, Control_c, 2, 91, 46
1, 110, Control_c, 2, 93, 0
1, 111, Control_c, 3, 0, 0
1, 112, Control_c, 3, 32, 0
1, 113, Program_c, 3, 64
1, 114, Control_c, 3, 7, 89
1, 114, Control_c, 3, 10, 63
1, 114, Control_c, 3, 11, 127
1, 115, Control_c, 3, 91, 92
1, 115, Control_c, 3, 93, 0
1, 116, Control_c, 4, 0, 0
1, 117, Control_c, 4, 32, 0
1, 118, Program_c, 4, 34
1, 119, Control_c, 4, 7, 69
1, 119, Control_c, 4, 10, 109
1, 119, Control_c, 4, 11, 127
1, 120, Control_c, 4, 91, 28
1, 120, Control_c, 4, 93, 0
1, 126, Control_c, 6, 0, 0
1, 127, Control_c, 6, 32, 0
1, 128, Program_c, 6, 34
1, 129, Control_c, 6, 7, 77
1, 129, Control_c, 6, 10, 11
1, 129, Control_c, 6, 11, 90
1, 130, Control_c, 6, 91, 37
1, 130, Control_c, 6, 93, 0
1, 131, Control_c, 7, 0, 0
1, 132, Control_c, 7, 32, 0
1, 133, Program_c, 7, 53
1, 134, Control_c, 7, 7, 57
1, 134, Control_c, 7, 10, 60
1, 134, Control_c, 7, 11, 127
1, 135, Control_c, 7, 91, 93
1, 135, Control_c, 7, 93, 88
1, 136, Control_c, 8, 0, 0
1, 137, Control_c, 8, 32, 0
1, 138, Program_c, 8, 34
1, 139, Control_c, 8, 7, 83
1, 139, Control_c, 8, 10, 60
1, 139, Control_c, 8, 11, 127
1, 140, Control_c, 8, 91, 10
1, 140, Control_c, 8, 93, 0
1, 141, Control_c, 9, 0, 0
1, 142, Control_c, 9, 32, 0
1, 143, Program_c, 9, 48
1, 144, Control_c, 9, 7, 100
1, 144, Control_c, 9, 10, 66
1, 144, Control_c, 9, 11, 127
1, 145, Control_c, 9, 91, 22
1, 145, Control_c, 9, 93, 0
1, 192, Control_c, 0, 99, 1
1, 193, Control_c, 0, 98, 32
1, 194, Control_c, 0, 6, 50
1, 195, Control_c, 0, 101, 127
1, 196, Control_c, 0, 100, 127
1, 197, Control_c, 1, 99, 1
1, 198, Control_c, 1, 98, 99
1, 199, Control_c, 1, 6, 51
1, 200, Control_c, 1, 99, 1
1, 201, Control_c, 1, 98, 33
1, 202, Control_c, 1, 6, 59
1, 203, Control_c, 1, 99, 1
1, 204, Control_c, 1, 98, 32
1, 205, Control_c, 1, 6, 35
1, 206, Control_c, 1, 101, 127
1, 207, Control_c, 1, 100, 127
1, 208, Control_c, 2, 99, 1
1, 209, Control_c, 2, 98, 99
1, 210, Control_c, 2, 6, 53
1, 211, Control_c, 2, 99, 1
1, 212, Control_c, 2, 98, 100
1, 213, Control_c, 2, 6, 59
1, 214, Control_c, 2, 99, 1
1, 215, Control_c, 2, 98, 32
1, 216, Control_c, 2, 6, 56
1, 217, Control_c, 2, 101, 127
1, 218, Control_c, 2, 100, 127
1, 219, Control_c, 4, 99, 1
1, 220, Control_c, 4, 98, 32
1, 221, Control_c, 4, 6, 52
1, 222, Control_c, 4, 99, 1
1, 223, Control_c, 4, 98, 99
1, 224, Control_c, 4, 6, 14
1, 225, Control_c, 4, 99, 1
1, 226, Control_c, 4, 98, 100
1, 227, Control_c, 4, 6, 44
1, 228, Control_c, 4, 101, 127
1, 229, Control_c, 4, 100, 127
1, 230, Control_c, 6, 99, 1
1, 231, Control_c, 6, 98, 100
1, 232, Control_c, 6, 6, 54
1, 233, Control_c, 6, 99, 1
1, 234, Control_c, 6, 98, 99
1, 235, Control_c, 6, 6, 50
1, 236, Control_c, 6, 99, 1
1, 237, Control_c, 6, 98, 33
1, 238, Control_c, 6, 6, 64
1, 239, Control_c, 6, 99, 1
1, 240, Control_c, 6, 98, 32
1, 241, Control_c, 6, 6, 58
1, 242, Control_c, 6, 101, 127
1, 243, Control_c, 6, 100, 127
1, 244, Control_c, 7, 99, 1
1, 245, Control_c, 7, 98, 99
1, 246, Control_c, 7, 6, 65
1, 247, Control_c, 7, 101, 127
1, 248, Control_c, 7, 100, 127
1, 249, Control_c, 8, 99, 1
1, 250, Control_c, 8, 98, 99
1, 251, Control_c, 8, 6, 50
1, 252, Control_c, 8, 99, 1
1, 253, Control_c, 8, 98, 100
1, 254, Control_c, 8, 6, 48
1, 255, Control_c, 8, 99, 1
1, 256, Control_c, 8, 98, 32
1, 257, Control_c, 8, 6, 39
1, 258, Control_c, 8, 99, 1
1, 259, Control_c, 8, 98, 33
1, 260, Control_c, 8, 6, 67
1, 261, Control_c, 8, 101, 127
1, 262, Control_c, 8, 100, 127
1, 263, Control_c, 9, 99, 28
1, 264, Control_c, 9, 98, 44
1, 265, Control_c, 9, 6, 74
1, 266, Control_c, 9, 99, 28
1, 267, Control_c, 9, 98, 35
1, 268, Control_c, 9, 6, 62
1, 269, Control_c, 9, 99, 29
1, 270, Control_c, 9, 98, 35
1, 271, Control_c, 9, 6, 0
1, 272, Control_c, 9, 99, 24
1, 273, Control_c, 9, 98, 35
1, 274, Control_c, 9, 6, 69
1, 275, Control_c, 9, 99, 24
1, 276, Control_c, 9, 98, 38
1, 277, Control_c, 9, 6, 62
1, 278, Control_c, 9, 99, 24
1, 279, Control_c, 9, 98, 40
1, 280, Control_c, 9, 6, 63
1, 281, Control_c, 9, 99, 28
1, 282, Control_c, 9, 98, 38
1, 283, Control_c, 9, 6, 60
1, 284, Control_c, 9, 99, 28
1, 285, Control_c, 9, 98, 40
1, 286, Control_c, 9, 6, 61
1, 287, Control_c, 9, 101, 127
1, 288, Control_c, 9, 100, 127
1, 385, Note_on_c, 6, 45, 87
1, 388, Note_on_c, 4, 45, 127
1, 432, Note_on_c, 4, 45, 0
1, 463, Note_on_c, 6, 45, 0
1, 478, Note_on_c, 2, 57, 106
1, 479, Note_on_c, 6, 57, 127
1, 480, Note_on_c, 6, 52, 127
1, 484, Note_on_c, 4, 42, 127
1, 488, Note_on_c, 4, 49, 127
1, 492, Note_on_c, 6, 52, 0
1, 492, Note_on_c, 2, 57, 0
1, 492, Note_on_c, 6, 57, 0
1, 529, Note_on_c, 6, 52, 75
1, 531, Note_on_c, 6, 52, 0
1, 531, Note_on_c, 6, 57, 83
1, 533, Note_on_c, 6, 57, 0
1, 534, Note_on_c, 4, 49, 0
1, 535, Note_on_c, 4, 42, 0
1, 574, Note_on_c, 6, 52, 75
1, 575, Note_on_c, 6, 57, 70
1, 577, Note_on_c, 6, 57, 0
1, 578, Note_on_c, 6, 52, 0
1, 580, Note_on_c, 4, 40, 127
1, 623, Note_on_c, 2, 57, 107
1, 625, Note_on_c, 6, 52, 127
1, 626, Note_on_c, 6, 57, 127
1, 637, Note_on_c, 4, 40, 0
1, 641, Note_on_c, 2, 57, 0
1, 643, Note_on_c, 6, 57, 0
1, 646, Note_on_c, 6, 52, 0
1, 676, Note_on_c, 4, 42, 127
1, 680, Note_on_c, 4, 49, 127
1, 711, Note_on_c, 4, 42, 0
1, 712, Note_on_c, 4, 49, 0
1, 720, Note_on_c, 2, 57, 107
1, 721, Note_on_c, 6, 52, 127
1, 721, Note_on_c, 6, 57, 127
1, 729, Note_on_c, 4, 45, 127
1, 730, Note_on_c, 4, 57, 127
1, 737, Note_on_c, 2, 57, 0
1, 739, Note_on_c, 6, 57, 0
1, 742, Note_on_c, 6, 52, 0
1, 765, Note_on_c, 4, 57, 0
1, 766, Note_on_c, 4, 45, 0
1, 774, Note_on_c, 4, 45, 127
1, 812, Note_on_c, 4, 45, 0
1, 817, Note_on_c, 6, 55, 75
1, 822, Note_on_c, 4, 42, 127
1, 825, Note_on_c, 4, 57, 127
1, 856, Note_on_c, 4, 42, 0
1, 860, Note_on_c, 4, 57, 0
1, 863, Note_on_c, 6, 55, 0
1, 863, Note_on_c, 6, 55, 83
1, 867, Note_on_c, 4, 42, 127
1, 871, Note_on_c, 4, 49, 127
1, 908, Note_on_c, 6, 55, 0
1, 913, Note_on_c, 6, 55, 100
1, 914, Note_on_c, 4, 42, 0
1, 917, Note_on_c, 4, 49, 0
1, 959, Note_on_c, 6, 55, 0
1, 959, Note_on_c, 6, 54, 95
1, 963, Note_on_c, 4, 43, 127
1, 1005, Note_on_c, 6, 54, 0
1, 1009, Note_on_c, 4, 43, 0
1, 1009, Note_on_c, 6, 55, 127
1, 1054, Note_on_c, 6, 54, 127
1, 1055, Note_on_c, 6, 55, 0
1, 1060, Note_on_c, 4, 42, 127
1, 1062, Note_on_c, 4, 49, 127
1, 1101, Note_on_c, 6, 54, 0
1, 1104, Note_on_c, 6, 55, 119
1, 1109, Note_on_c, 4, 42, 0
1, 1111, Note_on_c, 4, 49, 0
1, 1150, Note_on_c, 6, 45, 117
1, 1153, Note_on_c, 6, 55, 0
1, 1156, Note_on_c, 4, 45, 127
1, 1200, Note_on_c, 4, 45, 0
1, 1230, Note_on_c, 6, 45, 0
1, 1247, Note_on_c, 2, 57, 107
1, 1247, Note_on_c, 6, 57, 127
1, 1248, Note_on_c, 6, 52, 127
1, 1252, Note_on_c, 4, 42, 127
1, 1256, Note_on_c, 6, 52, 0
1, 1256, Note_on_c, 4, 49, 127
1, 1257, Note_on_c, 6, 57, 0
1, 1258, Note_on_c, 2, 57, 0
1, 1297, Note_on_c, 6, 52, 75
1, 1299, Note_on_c, 6, 52, 0
1, 1299, Note_on_c, 6, 57, 83
1, 1301, Note_on_c, 6, 57, 0
1, 1301, Note_on_c, 4, 49, 0
1, 1302, Note_on_c, 4, 42, 0
1, 1343, Note_on_c, 6, 52, 75
1, 1344, Note_on_c, 6, 57, 70
1, 1345, Note_on_c, 6, 57, 0
1, 1346, Note_on_c, 6, 52, 0
1, 1348, Note_on_c, 4, 40, 127
1, 1372, Pitch_bend_c, 6, 3360
1, 1374, Pitch_bend_c, 6, 4200
1, 1390, Note_on_c, 2, 52, 106
1, 1392, Note_on_c, 6, 52, 127
1, 1405, Note_on_c, 4, 40, 0
1, 1409, Note_on_c, 2, 52, 0
1, 1433, Pitch_bend_c, 6, 3680
1, 1439, Pitch_bend_c, 6, 3936
1, 1440, Pitch_bend_c, 6, 4672
1, 1444, Note_on_c, 4, 42, 127
1, 1446, Pitch_bend_c, 6, 5184
1, 1447, Note_on_c, 4, 49, 127
1, 1448, Pitch_bend_c, 6, 5792
1, 1450, Pitch_bend_c, 6, 7200
1, 1455, Pitch_bend_c, 6, 7712
1, 1458, Pitch_bend_c, 6, 8064
1, 1460, Pitch_bend_c, 6, 8192
1, 1478, Note_on_c, 4, 42, 0
1, 1480, Note_on_c, 4, 49, 0
1, 1489, Note_on_c, 2, 57, 84
1, 1489, Note_on_c, 8, 45, 127
1, 1490, Note_on_c, 2, 45, 127
1, 1491, Pitch_bend_c, 8, 0
1, 1492, Note_on_c, 6, 52, 0
1, 1492, Note_on_c, 6, 57, 116
1, 1493, Pitch_bend_c, 2, 0
1, 1497, Note_on_c, 4, 45, 127
1, 1499, Note_on_c, 4, 57, 127
1, 1508, Note_on_c, 2, 57, 0
1, 1533, Note_on_c, 4, 57, 0
1, 1534, Note_on_c, 4, 45, 0
1, 1534, Pitch_bend_c, 8, 320
1, 1535, Pitch_bend_c, 2, 320
1, 1537, Pitch_bend_c, 8, 640
1, 1538, Pitch_bend_c, 2, 640
1, 1539, Pitch_bend_c, 8, 1024
1, 1540, Pitch_bend_c, 2, 1024
1, 1542, Note_on_c, 4, 45, 127
1, 1542, Pitch_bend_c, 8, 1472
1, 1543, Pitch_bend_c, 2, 2048
1, 1544, Pitch_bend_c, 8, 2048
1, 1545, Pitch_bend_c, 8, 2720
1, 1547, Pitch_bend_c, 2, 2720
1, 1549, Pitch_bend_c, 8, 3424
1, 1550, Pitch_bend_c, 2, 4224
1, 1550, Pitch_bend_c, 8, 4224
1, 1553, Pitch_bend_c, 8, 5184
1, 1554, Pitch_bend_c, 2, 5184
1, 1556, Pitch_bend_c, 8, 6112
1, 1557, Pitch_bend_c, 2, 7008
1, 1557, Pitch_bend_c, 8, 7008
1, 1560, Pitch_bend_c, 8, 7680
1, 1562, Pitch_bend_c, 2, 7680
1, 1564, Pitch_bend_c, 2, 8064
1, 1564, Pitch_bend_c, 8, 8064
1, 1566, Pitch_bend_c, 8, 8192
1, 1567, Pitch_bend_c, 2, 8192
1, 1580, Note_on_c, 4, 45, 0
1, 1591, Note_on_c, 4, 42, 127
1, 1594, Note_on_c, 4, 57, 127
1, 1619, Note_on_c, 6, 57, 0
1, 1624, Note_on_c, 4, 42, 0
1, 1628, Note_on_c, 4, 57, 0
1, 1633, Note_on_c, 6, 52, 75
1, 1634, Note_on_c, 6, 57, 70
1, 1635, Note_on_c, 4, 42, 127
1, 1636, Note_on_c, 6, 57, 0
1, 1637, Note_on_c, 6, 52, 0
1, 1640, Note_on_c, 4, 49, 127
1, 1661, Control_c, 8, 1, 2
1, 1662, Control_c, 2, 1, 2
1, 1663, Control_c, 8, 1, 7
1, 1664, Control_c, 2, 1, 16
1, 1666, Control_c, 8, 1, 16
1, 1667, Control_c, 8, 1, 25
1, 1668, Control_c, 2, 1, 25
1, 1671, Control_c, 8, 1, 33
1, 1672, Control_c, 2, 1, 43
1, 1673, Control_c, 8, 1, 43
1, 1678, Control_c, 8, 1, 50
1, 1679, Control_c, 2, 1, 50
1, 1682, Note_on_c, 4, 42, 0
1, 1682, Control_c, 8, 1, 53
1, 1683, Note_on_c, 6, 52, 75
1, 1684, Control_c, 2, 1, 56
1, 1685, Note_on_c, 6, 57, 83
1, 1686, Note_on_c, 6, 52, 0
1, 1686, Control_c, 8, 1, 56
1, 1687, Note_on_c, 4, 49, 0
1, 1688, Note_on_c, 6, 57, 0
1, 1688, Control_c, 8, 1, 60
1, 1689, Control_c, 8, 1, 62
1, 1690, Control_c, 2, 1, 65
1, 1691, Control_c, 8, 1, 65
1, 1694, Control_c, 8, 1, 68
1, 1695, Control_c, 2, 1, 70
1, 1696, Control_c, 8, 1, 70
1, 1699, Control_c, 8, 1, 71
1, 1700, Control_c, 2, 1, 73
1, 1701, Control_c, 8, 1, 73
1, 1704, Control_c, 8, 1, 74
1, 1705, Control_c, 2, 1, 76
1, 1706, Control_c, 8, 1, 76
1, 1709, Control_c, 8, 1, 77
1, 1711, Control_c, 2, 1, 78
1, 1712, Control_c, 8, 1, 78
1, 1715, Control_c, 8, 1, 80
1, 1716, Control_c, 2, 1, 82
1, 1716, Control_c, 8, 1, 82
1, 1719, Control_c, 8, 1, 81
1, 1721, Control_c, 2, 1, 81
1, 1722, Control_c, 8, 1, 77
1, 1724, Control_c, 2, 1, 77
1, 1725, Control_c, 2, 1, 61
1, 1725, Control_c, 8, 1, 70
1, 1726, Note_on_c, 6, 52, 127
1, 1727, Control_c, 8, 1, 61
1, 1729, Note_on_c, 2, 57, 107
1, 1730, Note_on_c, 6, 57, 127
1, 1730, Control_c, 8, 1, 51
1, 1731, Control_c, 2, 1, 40
1, 1732, Note_on_c, 4, 43, 127
1, 1732, Control_c, 8, 1, 40
1, 1735, Control_c, 8, 1, 32
1, 1736, Control_c, 2, 1, 24
1, 1737, Control_c, 8, 1, 24
1, 1740, Control_c, 8, 1, 17
1, 1741, Note_on_c, 8, 45, 0
1, 1741, Control_c, 2, 1, 11
1, 1742, Control_c, 8, 1, 11
1, 1743, Note_on_c, 6, 52, 0
1, 1744, Note_on_c, 2, 45, 0
1, 1744, Note_on_c, 6, 57, 0
1, 1745, Note_on_c, 2, 57, 0
1, 1746, Control_c, 2, 1, 2
1, 1746, Control_c, 8, 1, 5
1, 1747, Control_c, 8, 1, 2
1, 1749, Control_c, 2, 1, 0
1, 1749, Control_c, 8, 1, 0
1, 1777, Note_on_c, 4, 43, 0
1, 1777, Note_on_c, 6, 52, 78
1, 1779, Note_on_c, 6, 57, 83
1, 1780, Note_on_c, 6, 57, 0
1, 1823, Note_on_c, 2, 54, 97
1, 1823, Note_on_c, 6, 54, 127
1, 1824, Note_on_c, 6, 52, 0
1, 1828, Note_on_c, 4, 42, 127
1, 1829, Note_on_c, 4, 49, 127
1, 1842, Note_on_c, 2, 54, 0
1, 1871, Note_on_c, 6, 54, 0
1, 1872, Note_on_c, 6, 52, 99
1, 1877, Note_on_c, 4, 42, 0
1, 1879, Note_on_c, 4, 49, 0
1, 1918, Note_on_c, 6, 52, 0
1, 1921, Note_on_c, 6, 45, 87
1, 1924, Note_on_c, 4, 45, 127
1, 1968, Note_on_c, 4, 45, 0
1, 2000, Note_on_c, 6, 45, 0
1, 2015, Note_on_c, 2, 57, 106
1, 2015, Note_on_c, 6, 57, 127
1, 2016, Note_on_c, 6, 52, 127
1, 2020, Note_on_c, 4, 42, 127
1, 2024, Note_on_c, 4, 49, 127
1, 2028, Note_on_c, 6, 52, 0
1, 2028, Note_on_c, 2, 57, 0
1, 2028, Note_on_c, 6, 57, 0
1, 2065, Note_on_c, 6, 52, 75
1, 2067, Note_on_c, 6, 52, 0
1, 2067, Note_on_c, 6, 57, 83
1, 2069, Note_on_c, 6, 57, 0
1, 2069, Note_on_c, 4, 49, 0
1, 2070, Note_on_c, 4, 42, 0
1, 2110, Note_on_c, 6, 52, 75
1, 2111, Note_on_c, 6, 57, 70
1, 2113, Note_on_c, 6, 57, 0
1, 2114, Note_on_c, 6, 52, 0
1, 2116, Note_on_c, 4, 40, 127
1, 2159, Note_on_c, 2, 57, 107
1, 2161, Note_on_c, 6, 52, 127
1, 2162, Note_on_c, 6, 57, 127
1, 2173, Note_on_c, 4, 40, 0
1, 2177, Note_on_c, 2, 57, 0
1, 2179, Note_on_c, 6, 57, 0
1, 2183, Note_on_c, 6, 52, 0
1, 2212, Note_on_c, 4, 42, 127
1, 2214, Note_on_c, 4, 49, 127
1, 2246, Note_on_c, 4, 42, 0
1, 2248, Note_on_c, 4, 49, 0
1, 2255, Note_on_c, 2, 57, 107
1, 2257, Note_on_c, 6, 52, 127
1, 2257, Note_on_c, 6, 57, 127
1, 2265, Note_on_c, 4, 45, 127
1, 2266, Note_on_c, 4, 57, 127
1, 2273, Note_on_c, 2, 57, 0
1, 2274, Note_on_c, 6, 57, 0
1, 2279, Note_on_c, 6, 52, 0
1, 2300, Note_on_c, 4, 57, 0
1, 2302, Note_on_c, 4, 45, 0
1, 2310, Note_on_c, 4, 45, 127
1, 2348, Note_on_c, 4, 45, 0
1, 2352, Note_on_c, 6, 55, 75
1, 2359, Note_on_c, 4, 42, 127
1, 2361, Note_on_c, 4, 57, 127
1, 2392, Note_on_c, 4, 42, 0
1, 2395, Note_on_c, 4, 57, 0
1, 2399, Note_on_c, 6, 55, 0
1, 2399, Note_on_c, 6, 55, 83
1, 2404, Note_on_c, 4, 42, 127
1, 2408, Note_on_c, 4, 49, 127
1, 2443, Note_on_c, 6, 55, 0
1, 2449, Note_on_c, 6, 55, 100
1, 2450, Note_on_c, 4, 42, 0
1, 2453, Note_on_c, 4, 49, 0
1, 2494, Note_on_c, 6, 54, 95
1, 2495, Note_on_c, 6, 55, 0
1, 2500, Note_on_c, 4, 43, 127
1, 2541, Note_on_c, 6, 54, 0
1, 2545, Note_on_c, 6, 55, 127
1, 2546, Note_on_c, 4, 43, 0
1, 2590, Note_on_c, 6, 54, 127
1, 2591, Note_on_c, 6, 55, 0
1, 2596, Note_on_c, 4, 42, 127
1, 2598, Note_on_c, 4, 49, 127
1, 2637, Note_on_c, 6, 54, 0
1, 2641, Note_on_c, 6, 55, 119
1, 2645, Note_on_c, 4, 42, 0
1, 2647, Note_on_c, 4, 49, 0
1, 2687, Note_on_c, 6, 45, 117
1, 2689, Note_on_c, 6, 55, 0
1, 2692, Note_on_c, 4, 45, 127
1, 2736, Note_on_c, 4, 45, 0
1, 2766, Note_on_c, 6, 45, 0
1, 2783, Note_on_c, 2, 57, 107
1, 2784, Note_on_c, 6, 57, 127
1, 2784, Note_on_c, 6, 52, 127
1, 2788, Note_on_c, 4, 42, 127
1, 2792, Note_on_c, 6, 52, 0
1, 2792, Note_on_c, 4, 49, 127
1, 2793, Note_on_c, 6, 57, 0
1, 2794, Note_on_c, 2, 57, 0
1, 2833, Note_on_c, 6, 52, 75
1, 2836, Note_on_c, 6, 52, 0
1, 2836, Note_on_c, 6, 57, 83
1, 2837, Note_on_c, 6, 57, 0
1, 2837, Note_on_c, 4, 49, 0
1, 2838, Note_on_c, 4, 42, 0
1, 2878, Note_on_c, 6, 52, 75
1, 2879, Note_on_c, 6, 57, 70
1, 2881, Note_on_c, 6, 57, 0
1, 2881, Note_on_c, 6, 52, 0
1, 2884, Note_on_c, 4, 40, 127
1, 2908, Pitch_bend_c, 6, 3360
1, 2909, Pitch_bend_c, 6, 4200
1, 2926, Note_on_c, 2, 52, 106
1, 2928, Note_on_c, 6, 52, 127
1, 2941, Note_on_c, 4, 40, 0
1, 2946, Note_on_c, 2, 52, 0
1, 2968, Pitch_bend_c, 6, 3552
1, 2972, Pitch_bend_c, 6, 3680
1, 2974, Pitch_bend_c, 6, 3936
1, 2976, Pitch_bend_c, 6, 4672
1, 2979, Note_on_c, 4, 42, 127
1, 2981, Pitch_bend_c, 6, 5184
1, 2982, Note_on_c, 4, 49, 127
1, 2983, Pitch_bend_c, 6, 6496
1, 2988, Pitch_bend_c, 6, 7200
1, 2990, Pitch_bend_c, 6, 7712
1, 2993, Pitch_bend_c, 6, 8064
1, 2997, Pitch_bend_c, 6, 8192
1, 3015, Note_on_c, 4, 42, 0
1, 3016, Note_on_c, 4, 49, 0
1, 3025, Note_on_c, 2, 57, 84
1, 3025, Note_on_c, 8, 45, 127
1, 3026, Note_on_c, 2, 45, 127
1, 3027, Pitch_bend_c, 8, 0
1, 3028, Note_on_c, 6, 52, 0
1, 3028, Note_on_c, 6, 57, 116
1, 3029, Pitch_bend_c, 2, 0
1, 3033, Note_on_c, 4, 45, 127
1, 3036, Note_on_c, 4, 57, 127
1, 3044, Note_on_c, 2, 57, 0
1, 3069, Note_on_c, 4, 57, 0
1, 3070, Note_on_c, 4, 45, 0
1, 3070, Pitch_bend_c, 8, 320
1, 3071, Pitch_bend_c, 2, 320
1, 3073, Pitch_bend_c, 8, 640
1, 3073, Note_on_c, 9, 38, 3
1, 3074, Note_on_c, 9, 38, 0
1, 3074, Pitch_bend_c, 2, 640
1, 3074, Note_on_c, 9, 38, 3
1, 3075, Pitch_bend_c, 8, 1024
1, 3076, Note_on_c, 9, 38, 0
1, 3076, Pitch_bend_c, 2, 1024
1, 3077, Note_on_c, 4, 45, 127
1, 3078, Pitch_bend_c, 8, 1472
1, 3079, Pitch_bend_c, 2, 2048
1, 3080, Pitch_bend_c, 8, 2048
1, 3081, Pitch_bend_c, 8, 2720
1, 3082, Pitch_bend_c, 2, 2720
1, 3085, Pitch_bend_c, 8, 3424
1, 3086, Pitch_bend_c, 2, 4224
1, 3087, Pitch_bend_c, 8, 4224
1, 3089, Pitch_bend_c, 8, 5184
1, 3090, Pitch_bend_c, 2, 5184
1, 3092, Pitch_bend_c, 8, 6112
1, 3093, Pitch_bend_c, 2, 7008
1, 3094, Pitch_bend_c, 8, 7008
1, 3097, Pitch_bend_c, 2, 7680
1, 3097, Pitch_bend_c, 8, 7680
1, 3099, Pitch_bend_c, 8, 8064
1, 3100, Pitch_bend_c, 2, 8064
1, 3102, Pitch_bend_c, 8, 8192
1, 3103, Pitch_bend_c, 2, 8192
1, 3115, Note_on_c, 4, 45, 0
1, 3125, Note_on_c, 9, 38, 1
1, 3125, Note_on_c, 9, 38, 0
1, 3125, Note_on_c, 9, 38, 1
1, 3126, Note_on_c, 4, 42, 127
1, 3127, Note_on_c, 9, 38, 0
1, 3130, Note_on_c, 4, 57, 127
1, 3155, Note_on_c, 6, 57, 0
1, 3159, Note_on_c, 4, 42, 0
1, 3163, Note_on_c, 4, 57, 0
1, 3169, Note_on_c, 6, 52, 75
1, 3169, Note_on_c, 9, 40, 39
1, 3169, Note_on_c, 9, 28, 64
1, 3170, Note_on_c, 9, 40, 0
1, 3170, Note_on_c, 6, 57, 70
1, 3171, Note_on_c, 9, 28, 0
1, 3172, Note_on_c, 4, 42, 127
1, 3173, Note_on_c, 6, 52, 0
1, 3173, Note_on_c, 6, 57, 0
1, 3175, Note_on_c, 4, 49, 127
1, 3197, Control_c, 8, 1, 2
1, 3198, Control_c, 2, 1, 7
1, 3199, Control_c, 8, 1, 7
1, 3201, Control_c, 8, 1, 16
1, 3202, Control_c, 8, 1, 25
1, 3203, Control_c, 2, 1, 25
1, 3207, Control_c, 2, 1, 39
1, 3207, Control_c, 8, 1, 33
1, 3209, Control_c, 8, 1, 39
1, 3210, Control_c, 2, 1, 47
1, 3210, Control_c, 8, 1, 43
1, 3214, Control_c, 8, 1, 47
1, 3215, Note_on_c, 0, 61, 117
1, 3216, Note_on_c, 0, 67, 86
1, 3216, Note_on_c, 0, 64, 117
1, 3217, Note_on_c, 0, 57, 111
1, 3218, Control_c, 8, 1, 50
1, 3219, Control_c, 2, 1, 53
1, 3219, Control_c, 8, 1, 53
1, 3220, Note_on_c, 4, 42, 0
1, 3221, Note_on_c, 6, 52, 75
1, 3221, Note_on_c, 9, 38, 1
1, 3221, Note_on_c, 9, 38, 0
1, 3221, Note_on_c, 9, 38, 1
1, 3222, Note_on_c, 6, 57, 83
1, 3223, Note_on_c, 9, 38, 0
1, 3223, Control_c, 8, 1, 56
1, 3224, Note_on_c, 6, 52, 0
1, 3225, Note_on_c, 4, 49, 0
1, 3226, Control_c, 2, 1, 56
1, 3227, Note_on_c, 6, 57, 0
1, 3228, Control_c, 8, 1, 62
1, 3229, Control_c, 2, 1, 65
1, 3229, Control_c, 8, 1, 65
1, 3230, Control_c, 8, 1, 68
1, 3231, Control_c, 2, 1, 70
1, 3232, Control_c, 8, 1, 70
1, 3235, Control_c, 8, 1, 71
1, 3236, Control_c, 2, 1, 73
1, 3237, Control_c, 8, 1, 73
1, 3240, Control_c, 8, 1, 74
1, 3241, Control_c, 2, 1, 74
1, 3242, Control_c, 8, 1, 76
1, 3243, Control_c, 2, 1, 77
1, 3245, Note_on_c, 8, 45, 0
1, 3245, Control_c, 8, 1, 77
1, 3246, Control_c, 8, 1, 78
1, 3247, Note_on_c, 2, 45, 0
1, 3248, Control_c, 2, 1, 80
1, 3250, Control_c, 8, 1, 82
1, 3252, Note_on_c, 0, 67, 0
1, 3252, Control_c, 2, 1, 82
1, 3255, Note_on_c, 0, 61, 0
1, 3256, Note_on_c, 0, 64, 0
1, 3256, Control_c, 8, 1, 81
1, 3257, Note_on_c, 0, 57, 0
1, 3257, Control_c, 2, 1, 81
1, 3259, Control_c, 8, 1, 77
1, 3260, Control_c, 2, 1, 70
1, 3261, Control_c, 8, 1, 70
1, 3263, Note_on_c, 6, 52, 127
1, 3264, Control_c, 8, 1, 61
1, 3264, Note_on_c, 9, 38, 24
1, 3265, Note_on_c, 9, 38, 0
1, 3265, Note_on_c, 2, 57, 107
1, 3265, Note_on_c, 9, 38, 24
1, 3266, Note_on_c, 6, 57, 127
1, 3267, Note_on_c, 9, 38, 0
1, 3267, Control_c, 2, 1, 40
1, 3268, Control_c, 8, 1, 51
1, 3269, Note_on_c, 4, 43, 127
1, 3270, Control_c, 8, 1, 40
1, 3271, Control_c, 8, 1, 32
1, 3272, Control_c, 2, 1, 32
1, 3273, Control_c, 8, 1, 24
1, 3274, Control_c, 2, 1, 17
1, 3276, Control_c, 8, 1, 17
1, 3278, Note_on_c, 6, 52, 0
1, 3278, Control_c, 8, 1, 11
1, 3279, Note_on_c, 6, 57, 0
1, 3280, Note_on_c, 2, 57, 0
1, 3280, Control_c, 2, 1, 5
1, 3281, Control_c, 8, 1, 5
1, 3284, Control_c, 2, 1, 0
1, 3284, Control_c, 8, 1, 0
1, 3313, Note_on_c, 6, 52, 78
1, 3314, Note_on_c, 4, 43, 0
1, 3316, Note_on_c, 6, 57, 83
1, 3317, Note_on_c, 6, 57, 0
1, 3317, Note_on_c, 9, 38, 19
1, 3317, Note_on_c, 9, 38, 0
1, 3317, Note_on_c, 9, 38, 19
1, 3319, Note_on_c, 9, 38, 0
1, 3359, Note_on_c, 0, 64, 117
1, 3360, Note_on_c, 0, 61, 117
1, 3360, Note_on_c, 0, 67, 110
1, 3361, Note_on_c, 0, 57, 117
1, 3361, Note_on_c, 9, 40, 67
1, 3362, Note_on_c, 9, 40, 0
1, 3362, Note_on_c, 2, 54, 97
1, 3362, Note_on_c, 9, 28, 90
1, 3363, Note_on_c, 9, 28, 0
1, 3363, Note_on_c, 6, 54, 127
1, 3364, Note_on_c, 6, 52, 0
1, 3365, Note_on_c, 4, 42, 127
1, 3366, Note_on_c, 4, 49, 127
1, 3378, Note_on_c, 2, 54, 0
1, 3391, Note_on_c, 0, 67, 0
1, 3395, Note_on_c, 0, 61, 0
1, 3396, Note_on_c, 0, 57, 0
1, 3398, Note_on_c, 0, 64, 0
1, 3408, Note_on_c, 6, 54, 0
1, 3408, Note_on_c, 1, 40, 121
1, 3408, Note_on_c, 6, 52, 99
1, 3409, Note_on_c, 9, 35, 50
1, 3411, Note_on_c, 9, 35, 0
1, 3413, Note_on_c, 4, 42, 0
1, 3413, Note_on_c, 9, 38, 35
1, 3413, Note_on_c, 9, 38, 0
1, 3413, Note_on_c, 9, 38, 35
1, 3414, Note_on_c, 4, 49, 0
1, 3415, Note_on_c, 9, 38, 0
1, 3421, Note_on_c, 1, 40, 0
1, 3454, Note_on_c, 6, 52, 0
1, 3456, Note_on_c, 1, 45, 119
1, 3457, Note_on_c, 6, 45, 87
1, 3457, Note_on_c, 9, 38, 43
1, 3458, Note_on_c, 9, 35, 111
1, 3459, Note_on_c, 4, 45, 127
1, 3460, Note_on_c, 9, 35, 0
1, 3460, Note_on_c, 9, 38, 0
1, 3504, Note_on_c, 4, 45, 0
1, 3509, Note_on_c, 9, 38, 45
1, 3511, Note_on_c, 9, 38, 0
1, 3536, Note_on_c, 6, 45, 0
1, 3551, Note_on_c, 0, 61, 117
1, 3551, Note_on_c, 0, 57, 117
1, 3552, Note_on_c, 0, 64, 117
1, 3553, Note_on_c, 0, 67, 105
1, 3553, Note_on_c, 9, 40, 98
1, 3554, Note_on_c, 9, 40, 0
1, 3554, Note_on_c, 2, 57, 106
1, 3554, Note_on_c, 9, 28, 94
1, 3555, Note_on_c, 9, 28, 0
1, 3555, Note_on_c, 6, 57, 127
1, 3556, Note_on_c, 6, 52, 127
1, 3557, Note_on_c, 4, 42, 127
1, 3559, Note_on_c, 4, 49, 127
1, 3562, Note_on_c, 6, 52, 0
1, 3562, Note_on_c, 1, 45, 0
1, 3563, Note_on_c, 6, 57, 0
1, 3564, Note_on_c, 2, 57, 0
1, 3580, Note_on_c, 0, 67, 0
1, 3580, Note_on_c, 0, 57, 0
1, 3581, Note_on_c, 0, 61, 0
1, 3583, Note_on_c, 0, 64, 0
1, 3601, Note_on_c, 6, 52, 75
1, 3603, Note_on_c, 6, 52, 0
1, 3603, Note_on_c, 6, 57, 83
1, 3605, Note_on_c, 6, 57, 0
1, 3605, Note_on_c, 4, 49, 0
1, 3605, Note_on_c, 9, 38, 25
1, 3606, Note_on_c, 9, 38, 0
1, 3606, Note_on_c, 4, 42, 0
1, 3647, Note_on_c, 6, 52, 75
1, 3648, Note_on_c, 1, 40, 126
1, 3648, Note_on_c, 6, 57, 70
1, 3649, Note_on_c, 6, 57, 0
1, 3649, Note_on_c, 9, 38, 54
1, 3649, Note_on_c, 9, 35, 110
1, 3650, Note_on_c, 6, 52, 0
1, 3651, Note_on_c, 9, 35, 0
1, 3651, Note_on_c, 9, 38, 0
1, 3651, Note_on_c, 4, 40, 127
1, 3695, Note_on_c, 0, 67, 110
1, 3695, Note_on_c, 0, 61, 117
1, 3696, Note_on_c, 0, 57, 117
1, 3696, Note_on_c, 0, 64, 117
1, 3697, Note_on_c, 2, 57, 107
1, 3698, Note_on_c, 6, 52, 127
1, 3698, Note_on_c, 6, 57, 127
1, 3701, Note_on_c, 9, 38, 45
1, 3702, Note_on_c, 9, 38, 0
1, 3702, Note_on_c, 1, 40, 0
1, 3709, Note_on_c, 4, 40, 0
1, 3713, Note_on_c, 2, 57, 0
1, 3716, Note_on_c, 6, 57, 0
1, 3719, Note_on_c, 6, 52, 0
1, 3727, Note_on_c, 0, 57, 0
1, 3728, Note_on_c, 0, 61, 0
1, 3731, Note_on_c, 0, 64, 0
1, 3732, Note_on_c, 0, 67, 0
1, 3743, Note_on_c, 1, 42, 123
1, 3745, Note_on_c, 9, 40, 97
1, 3746, Note_on_c, 9, 40, 0
1, 3746, Note_on_c, 9, 28, 90
1, 3747, Note_on_c, 9, 28, 0
1, 3747, Note_on_c, 4, 42, 127
1, 3750, Note_on_c, 4, 49, 127
1, 3782, Note_on_c, 4, 42, 0
1, 3784, Note_on_c, 4, 49, 0
1, 3791, Note_on_c, 2, 57, 107
1, 3793, Note_on_c, 6, 52, 127
1, 3794, Note_on_c, 6, 57, 127
1, 3797, Note_on_c, 9, 38, 25
1, 3798, Note_on_c, 9, 38, 0
1, 3799, Note_on_c, 1, 42, 0
1, 3801, Note_on_c, 4, 45, 127
1, 3802, Note_on_c, 4, 57, 127
1, 3809, Note_on_c, 2, 57, 0
1, 3811, Note_on_c, 6, 57, 0
1, 3815, Note_on_c, 6, 52, 0
1, 3837, Note_on_c, 4, 45, 0
1, 3837, Note_on_c, 4, 57, 0
1, 3839, Note_on_c, 0, 64, 117
1, 3839, Note_on_c, 0, 67, 107
1, 3839, Note_on_c, 1, 45, 117
1, 3840, Note_on_c, 0, 61, 117
1, 3841, Note_on_c, 0, 57, 117
1, 3841, Note_on_c, 9, 38, 53
1, 3842, Note_on_c, 9, 35, 111
1, 3844, Note_on_c, 9, 35, 0
1, 3844, Note_on_c, 9, 38, 0
1, 3845, Note_on_c, 4, 45, 127
1, 3873, Note_on_c, 0, 61, 0
1, 3873, Note_on_c, 0, 57, 0
1, 3875, Note_on_c, 0, 64, 0
1, 3876, Note_on_c, 0, 67, 0
1, 3884, Note_on_c, 4, 45, 0
1, 3889, Note_on_c, 6, 55, 75
1, 3893, Note_on_c, 9, 38, 42
1, 3894, Note_on_c, 9, 38, 0
1, 3895, Note_on_c, 4, 42, 127
1, 3898, Note_on_c, 4, 57, 127
1, 3927, Note_on_c, 4, 42, 0
1, 3932, Note_on_c, 4, 57, 0
1, 3935, Note_on_c, 6, 55, 0
1, 3935, Note_on_c, 6, 55, 83
1, 3936, Note_on_c, 9, 40, 97
1, 3938, Note_on_c, 9, 40, 0
1, 3938, Note_on_c, 9, 28, 91
1, 3939, Note_on_c, 9, 28, 0
1, 3940, Note_on_c, 4, 42, 127
1, 3944, Note_on_c, 4, 49, 127
1, 3946, Note_on_c, 1, 45, 0
1, 3980, Note_on_c, 6, 55, 0
1, 3982, Note_on_c, 0, 61, 117
1, 3983, Note_on_c, 0, 67, 107
1, 3984, Note_on_c, 0, 64, 117
1, 3985, Note_on_c, 0, 57, 117
1, 3985, Note_on_c, 6, 55, 100
1, 3985, Note_on_c, 9, 35, 68
1, 3986, Note_on_c, 4, 42, 0
1, 3987, Note_on_c, 9, 35, 0
1, 3988, Note_on_c, 9, 38, 27
1, 3989, Note_on_c, 4, 49, 0
1, 3990, Note_on_c, 9, 38, 0
1, 4014, Note_on_c, 0, 57, 0
1, 4017, Note_on_c, 0, 64, 0
1, 4018, Note_on_c, 0, 67, 0
1, 4021, Note_on_c, 0, 61, 0
1, 4031, Note_on_c, 6, 55, 0
1, 4031, Note_on_c, 6, 54, 95
1, 4032, Note_on_c, 1, 43, 117
1, 4033, Note_on_c, 9, 38, 52
1, 4033, Note_on_c, 9, 35, 110
1, 4035, Note_on_c, 9, 35, 0
1, 4035, Note_on_c, 9, 38, 0
1, 4036, Note_on_c, 4, 43, 127
1, 4075, Note_on_c, 1, 43, 0
1, 4077, Note_on_c, 6, 54, 0
1, 4081, Note_on_c, 4, 43, 0
1, 4081, Note_on_c, 6, 55, 127
1, 4085, Note_on_c, 9, 38, 47
1, 4086, Note_on_c, 9, 38, 0
1, 4127, Note_on_c, 0, 61, 117
1, 4128, Note_on_c, 0, 67, 105
1, 4128, Note_on_c, 0, 64, 117
1, 4128, Note_on_c, 1, 42, 127
1, 4129, Note_on_c, 0, 57, 117
1, 4129, Note_on_c, 9, 40, 96
1, 4129, Note_on_c, 9, 28, 92
1, 4130, Note_on_c, 9, 40, 0
1, 4130, Note_on_c, 6, 54, 127
1, 4131, Note_on_c, 9, 28, 0
1, 4131, Note_on_c, 6, 55, 0
1, 4132, Note_on_c, 4, 42, 127
1, 4133, Note_on_c, 4, 49, 127
1, 4158, Note_on_c, 0, 57, 0
1, 4162, Note_on_c, 0, 61, 0
1, 4163, Note_on_c, 0, 64, 0
1, 4164, Note_on_c, 0, 67, 0
1, 4173, Note_on_c, 6, 54, 0
1, 4176, Note_on_c, 1, 42, 0
1, 4177, Note_on_c, 6, 55, 119
1, 4180, Note_on_c, 9, 38, 23
1, 4181, Note_on_c, 4, 42, 0
1, 4182, Note_on_c, 9, 38, 0
1, 4183, Note_on_c, 4, 49, 0
1, 4224, Note_on_c, 6, 55, 0
1, 4224, Note_on_c, 1, 45, 124
1, 4224, Note_on_c, 6, 45, 117
1, 4225, Note_on_c, 9, 38, 43
1, 4226, Note_on_c, 9, 35, 111
1, 4227, Note_on_c, 4, 45, 127
1, 4228, Note_on_c, 9, 35, 0
1, 4228, Note_on_c, 9, 38, 0
1, 4272, Note_on_c, 4, 45, 0
1, 4276, Note_on_c, 9, 38, 45
1, 4278, Note_on_c, 9, 38, 0
1, 4302, Note_on_c, 6, 45, 0
1, 4320, Note_on_c, 0, 61, 117
1, 4320, Note_on_c, 0, 57, 117
1, 4320, Note_on_c, 0, 64, 117
1, 4320, Note_on_c, 9, 40, 98
1, 4321, Note_on_c, 0, 67, 107
1, 4322, Note_on_c, 9, 40, 0
1, 4322, Note_on_c, 2, 57, 107
1, 4322, Note_on_c, 9, 28, 94
1, 4323, Note_on_c, 9, 28, 0
1, 4323, Note_on_c, 6, 57, 127
1, 4324, Note_on_c, 6, 52, 127
1, 4325, Note_on_c, 4, 42, 127
1, 4327, Note_on_c, 1, 45, 0
1, 4327, Note_on_c, 4, 49, 127
1, 4328, Note_on_c, 6, 52, 0
1, 4329, Note_on_c, 6, 57, 0
1, 4330, Note_on_c, 2, 57, 0
1, 4350, Note_on_c, 0, 67, 0
1, 4352, Note_on_c, 0, 57, 0
1, 4355, Note_on_c, 0, 64, 0
1, 4356, Note_on_c, 0, 61, 0
1, 4368, Note_on_c, 6, 52, 75
1, 4370, Note_on_c, 6, 57, 83
1, 4371, Note_on_c, 6, 52, 0
1, 4373, Note_on_c, 6, 57, 0
1, 4373, Note_on_c, 4, 49, 0
1, 4373, Note_on_c, 9, 38, 25
1, 4374, Note_on_c, 9, 38, 0
1, 4374, Note_on_c, 4, 42, 0
1, 4414, Note_on_c, 6, 52, 75
1, 4415, Note_on_c, 6, 57, 70
1, 4416, Note_on_c, 1, 40, 124
1, 4417, Note_on_c, 6, 57, 0
1, 4417, Note_on_c, 9, 38, 54
1, 4418, Note_on_c, 6, 52, 0
1, 4418, Note_on_c, 9, 35, 110
1, 4419, Note_on_c, 9, 35, 0
1, 4419, Note_on_c, 9, 38, 0
1, 4419, Note_on_c, 4, 40, 127
1, 4444, Pitch_bend_c, 6, 3360
1, 4446, Pitch_bend_c, 6, 4200
1, 4461, Note_on_c, 2, 52, 106
1, 4462, Note_on_c, 0, 67, 113
1, 4463, Note_on_c, 1, 40, 0
1, 4463, Note_on_c, 0, 61, 117
1, 4464, Note_on_c, 0, 64, 117
1, 4465, Note_on_c, 0, 57, 117
1, 4466, Note_on_c, 6, 52, 127
1, 4469, Note_on_c, 9, 38, 45
1, 4470, Note_on_c, 9, 38, 0
1, 4477, Note_on_c, 4, 40, 0
1, 4482, Note_on_c, 2, 52, 0
1, 4501, Note_on_c, 0, 57, 0
1, 4502, Note_on_c, 0, 64, 0
1, 4503, Note_on_c, 0, 61, 0
1, 4505, Note_on_c, 0, 67, 0
1, 4505, Pitch_bend_c, 6, 3552
1, 4507, Pitch_bend_c, 6, 3680
1, 4510, Pitch_bend_c, 6, 4224
1, 4511, Note_on_c, 1, 42, 115
1, 4513, Note_on_c, 9, 40, 97
1, 4513, Note_on_c, 9, 28, 90
1, 4514, Note_on_c, 9, 40, 0
1, 4514, Pitch_bend_c, 6, 4672
1, 4515, Note_on_c, 9, 28, 0
1, 4515, Note_on_c, 4, 42, 127
1, 4518, Pitch_bend_c, 6, 5184
1, 4519, Note_on_c, 4, 49, 127
1, 4520, Pitch_bend_c, 6, 6496
1, 4525, Pitch_bend_c, 6, 7200
1, 4527, Pitch_bend_c, 6, 8064
1, 4533, Pitch_bend_c, 6, 8192
1, 4550, Note_on_c, 4, 42, 0
1, 4551, Note_on_c, 4, 49, 0
1, 4560, Note_on_c, 2, 57, 84
1, 4562, Note_on_c, 6, 52, 0
1, 4562, Note_on_c, 6, 57, 116
1, 4564, Note_on_c, 1, 42, 0
1, 4565, Note_on_c, 9, 38, 25
1, 4566, Note_on_c, 9, 38, 0
1, 4569, Note_on_c, 4, 45, 127
1, 4571, Note_on_c, 4, 57, 127
1, 4580, Note_on_c, 2, 57, 0
1, 4605, Note_on_c, 4, 57, 0
1, 4605, Note_on_c, 4, 45, 0
1, 4606, Note_on_c, 0, 61, 117
1, 4607, Note_on_c, 0, 64, 117
1, 4608, Note_on_c, 0, 67, 107
1, 4608, Note_on_c, 0, 57, 117
1, 4608, Note_on_c, 1, 45, 120
1, 4609, Note_on_c, 9, 38, 53
1, 4610, Note_on_c, 9, 35, 111
1, 4612, Note_on_c, 9, 35, 0
1, 4613, Note_on_c, 9, 38, 0
1, 4613, Note_on_c, 4, 45, 127
1, 4642, Note_on_c, 0, 57, 0
1, 4646, Note_on_c, 0, 61, 0
1, 4647, Note_on_c, 0, 67, 0
1, 4648, Note_on_c, 0, 64, 0
1, 4652, Note_on_c, 4, 45, 0
1, 4661, Note_on_c, 9, 38, 42
1, 4662, Note_on_c, 9, 38, 0
1, 4663, Note_on_c, 4, 42, 127
1, 4666, Note_on_c, 4, 57, 127
1, 4690, Note_on_c, 6, 57, 0
1, 4696, Note_on_c, 4, 42, 0
1, 4700, Note_on_c, 4, 57, 0
1, 4705, Note_on_c, 6, 52, 75
1, 4705, Note_on_c, 9, 40, 97
1, 4706, Note_on_c, 9, 40, 0
1, 4706, Pitch_bend_c, 8, 0
1, 4706, Note_on_c, 9, 28, 91
1, 4707, Note_on_c, 9, 28, 0
1, 4707, Note_on_c, 6, 57, 70
1, 4708, Pitch_bend_c, 2, 0
1, 4709, Note_on_c, 4, 42, 127
1, 4710, Note_on_c, 8, 42, 127
1, 4711, Note_on_c, 6, 57, 0
1, 4711, Note_on_c, 6, 52, 0
1, 4712, Note_on_c, 2, 42, 127
1, 4713, Note_on_c, 1, 45, 0
1, 4713, Note_on_c, 4, 49, 127
1, 4740, Pitch_bend_c, 8, 192
1, 4741, Pitch_bend_c, 2, 192
1, 4744, Pitch_bend_c, 8, 320
1, 4745, Pitch_bend_c, 2, 512
1, 4746, Pitch_bend_c, 8, 512
1, 4749, Pitch_bend_c, 8, 992
1, 4750, Pitch_bend_c, 2, 992
1, 4752, Note_on_c, 0, 61, 117
1, 4752, Note_on_c, 0, 67, 107
1, 4752, Note_on_c, 0, 64, 117
1, 4752, Note_on_c, 1, 45, 111
1, 4753, Note_on_c, 0, 57, 117
1, 4753, Note_on_c, 9, 35, 68
1, 4754, Note_on_c, 9, 35, 0
1, 4754, Pitch_bend_c, 8, 1760
1, 4755, Pitch_bend_c, 2, 2656
1, 4756, Pitch_bend_c, 8, 2656
1, 4757, Note_on_c, 4, 42, 0
1, 4757, Note_on_c, 9, 38, 27
1, 4758, Note_on_c, 9, 38, 0
1, 4758, Note_on_c, 6, 52, 75
1, 4759, Note_on_c, 6, 57, 83
1, 4760, Pitch_bend_c, 8, 3808
1, 4761, Note_on_c, 6, 52, 0
1, 4762, Note_on_c, 4, 49, 0
1, 4762, Note_on_c, 1, 45, 0
1, 4763, Pitch_bend_c, 2, 3808
1, 4764, Pitch_bend_c, 8, 5120
1, 4765, Note_on_c, 6, 57, 0
1, 4766, Pitch_bend_c, 2, 5120
1, 4766, Pitch_bend_c, 8, 6368
1, 4767, Pitch_bend_c, 2, 7392
1, 4767, Pitch_bend_c, 8, 7392
1, 4782, Note_on_c, 0, 64, 0
1, 4783, Note_on_c, 0, 57, 0
1, 4785, Note_on_c, 0, 61, 0
1, 4786, Note_on_c, 0, 67, 0
1, 4797, Note_on_c, 8, 42, 0
1, 4798, Note_on_c, 2, 42, 0
1, 4798, Note_on_c, 8, 45, 127
1, 4799, Note_on_c, 2, 45, 127
1, 4800, Note_on_c, 1, 43, 123
1, 4800, Note_on_c, 6, 52, 127
1, 4801, Note_on_c, 2, 57, 107
1, 4801, Note_on_c, 9, 38, 52
1, 4801, Note_on_c, 9, 35, 110
1, 4802, Note_on_c, 6, 57, 127
1, 4803, Note_on_c, 9, 35, 0
1, 4803, Note_on_c, 9, 38, 0
1, 4803, Note_on_c, 4, 43, 127
1, 4815, Note_on_c, 6, 52, 0
1, 4816, Note_on_c, 6, 57, 0
1, 4816, Note_on_c, 2, 57, 0
1, 4821, Note_on_c, 8, 45, 0
1, 4822, Note_on_c, 2, 45, 0
1, 4825, Pitch_bend_c, 8, 7904
1, 4826, Pitch_bend_c, 2, 7200
1, 4827, Pitch_bend_c, 8, 7200
1, 4830, Pitch_bend_c, 8, 6112
1, 4832, Pitch_bend_c, 2, 6112
1, 4833, Pitch_bend_c, 8, 4672
1, 4834, Pitch_bend_c, 2, 4672
1, 4835, Pitch_bend_c, 8, 2048
1, 4836, Pitch_bend_c, 2, 2048
1, 4840, Pitch_bend_c, 8, 1088
1, 4841, Pitch_bend_c, 2, 1088
1, 4842, Pitch_bend_c, 8, 480
1, 4843, Pitch_bend_c, 2, 128
1, 4844, Pitch_bend_c, 8, 128
1, 4848, Pitch_bend_c, 8, 0
1, 4849, Note_on_c, 6, 52, 78
1, 4850, Note_on_c, 4, 43, 0
1, 4850, Pitch_bend_c, 2, 0
1, 4851, Note_on_c, 6, 57, 83
1, 4852, Note_on_c, 1, 43, 0
1, 4852, Note_on_c, 2, 42, 127
1, 4852, Note_on_c, 8, 42, 127
1, 4853, Pitch_bend_c, 8, 224
1, 4853, Note_on_c, 9, 38, 47
1, 4854, Note_on_c, 6, 57, 0
1, 4855, Note_on_c, 9, 38, 0
1, 4855, Pitch_bend_c, 2, 224
1, 4856, Pitch_bend_c, 8, 672
1, 4857, Pitch_bend_c, 2, 1280
1, 4858, Pitch_bend_c, 8, 1280
1, 4862, Pitch_bend_c, 8, 2048
1, 4863, Pitch_bend_c, 2, 2048
1, 4864, Pitch_bend_c, 8, 3104
1, 4865, Pitch_bend_c, 2, 4448
1, 4865, Pitch_bend_c, 8, 4448
1, 4867, Pitch_bend_c, 8, 5888
1, 4869, Pitch_bend_c, 2, 5888
1, 4874, Pitch_bend_c, 8, 8192
1, 4875, Pitch_bend_c, 2, 7904
1, 4876, Pitch_bend_c, 2, 8192
1, 4895, Note_on_c, 0, 61, 117
1, 4896, Note_on_c, 0, 67, 117
1, 4896, Note_on_c, 0, 64, 117
1, 4896, Note_on_c, 1, 42, 127
1, 4897, Note_on_c, 0, 57, 117
1, 4897, Note_on_c, 9, 40, 96
1, 4898, Note_on_c, 9, 40, 0
1, 4898, Note_on_c, 2, 54, 97
1, 4898, Note_on_c, 9, 28, 92
1, 4899, Note_on_c, 9, 28, 0
1, 4899, Note_on_c, 6, 54, 127
1, 4900, Note_on_c, 6, 52, 0
1, 4901, Note_on_c, 4, 42, 127
1, 4902, Note_on_c, 4, 49, 127
1, 4914, Note_on_c, 2, 54, 0
1, 4929, Note_on_c, 0, 57, 0
1, 4935, Note_on_c, 0, 67, 0
1, 4935, Note_on_c, 0, 61, 0
1, 4936, Note_on_c, 0, 64, 0
1, 4942, Note_on_c, 8, 42, 0
1, 4943, Note_on_c, 6, 54, 0
1, 4943, Note_on_c, 2, 42, 0
1, 4945, Note_on_c, 6, 52, 99
1, 4946, Note_on_c, 8, 45, 127
1, 4947, Note_on_c, 2, 45, 127
1, 4948, Note_on_c, 1, 42, 0
1, 4949, Note_on_c, 4, 42, 0
1, 4949, Note_on_c, 9, 38, 23
1, 4950, Note_on_c, 9, 38, 0
1, 4951, Note_on_c, 4, 49, 0
1, 4959, Control_c, 8, 1, 8
1, 4961, Control_c, 2, 1, 8
1, 4962, Control_c, 8, 1, 20
1, 4963, Control_c, 2, 1, 37
1, 4964, Control_c, 8, 1, 37
1, 4966, Control_c, 8, 1, 57
1, 4967, Control_c, 2, 1, 57
1, 4970, Control_c, 8, 1, 96
1, 4971, Control_c, 2, 1, 112
1, 4974, Control_c, 8, 1, 126
1, 4976, Control_c, 2, 1, 127
1, 4977, Control_c, 8, 1, 127
1, 4990, Note_on_c, 6, 52, 0
1, 4992, Note_on_c, 1, 45, 124
1, 4993, Note_on_c, 6, 45, 87
1, 4993, Note_on_c, 9, 38, 43
1, 4994, Note_on_c, 9, 35, 111
1, 4995, Note_on_c, 4, 45, 127
1, 4996, Note_on_c, 9, 35, 0
1, 4996, Note_on_c, 9, 38, 0
1, 5040, Note_on_c, 4, 45, 0
1, 5045, Note_on_c, 9, 38, 45
1, 5046, Note_on_c, 9, 38, 0
1, 5046, Control_c, 8, 1, 120
1, 5047, Control_c, 2, 1, 98
1, 5049, Control_c, 8, 1, 98
1, 5051, Control_c, 2, 1, 43
1, 5051, Control_c, 8, 1, 70
1, 5053, Control_c, 8, 1, 43
1, 5057, Control_c, 2, 1, 8
1, 5057, Control_c, 8, 1, 22
1, 5059, Control_c, 8, 1, 8
1, 5061, Control_c, 8, 1, 0
1, 5062, Control_c, 2, 1, 0
1, 5072, Note_on_c, 6, 45, 0
1, 5087, Note_on_c, 0, 61, 117
1, 5088, Note_on_c, 0, 67, 107
1, 5088, Note_on_c, 0, 57, 117
1, 5089, Note_on_c, 0, 64, 116
1, 5089, Note_on_c, 2, 57, 106
1, 5089, Note_on_c, 9, 40, 98
1, 5090, Note_on_c, 9, 40, 0
1, 5090, Note_on_c, 6, 57, 127
1, 5090, Note_on_c, 9, 28, 94
1, 5091, Note_on_c, 9, 28, 0
1, 5091, Note_on_c, 6, 52, 127
1, 5092, Note_on_c, 4, 42, 127
1, 5095, Note_on_c, 4, 49, 127
1, 5099, Note_on_c, 6, 52, 0
1, 5099, Note_on_c, 6, 57, 0
1, 5100, Note_on_c, 1, 45, 0
1, 5100, Note_on_c, 2, 57, 0
1, 5114, Note_on_c, 8, 45, 0
1, 5115, Note_on_c, 2, 45, 0
1, 5116, Note_on_c, 0, 64, 0
1, 5120, Note_on_c, 0, 57, 0
1, 5122, Note_on_c, 0, 61, 0
1, 5123, Note_on_c, 0, 67, 0
1, 5137, Note_on_c, 6, 52, 75
1, 5138, Note_on_c, 6, 57, 83
1, 5139, Note_on_c, 6, 52, 0
1, 5141, Note_on_c, 6, 57, 0
1, 5141, Note_on_c, 9, 38, 25
1, 5142, Note_on_c, 9, 38, 0
1, 5142, Note_on_c, 4, 49, 0
1, 5143, Note_on_c, 4, 42, 0
1, 5181, Note_on_c, 6, 52, 75
1, 5182, Note_on_c, 6, 57, 70
1, 5183, Note_on_c, 1, 40, 126
1, 5184, Note_on_c, 6, 57, 0
1, 5185, Note_on_c, 6, 52, 0
1, 5185, Note_on_c, 9, 38, 54
1, 5186, Note_on_c, 9, 35, 110
1, 5187, Note_on_c, 9, 35, 0
1, 5187, Note_on_c, 9, 38, 0
1, 5187, Note_on_c, 4, 40, 127
1, 5230, Note_on_c, 0, 61, 117
1, 5231, Note_on_c, 0, 67, 108
1, 5232, Note_on_c, 0, 64, 117
1, 5233, Note_on_c, 0, 57, 117
1, 5234, Note_on_c, 2, 57, 107
1, 5234, Note_on_c, 6, 52, 127
1, 5235, Note_on_c, 6, 57, 127
1, 5236, Note_on_c, 1, 40, 0
1, 5237, Note_on_c, 9, 38, 45
1, 5238, Note_on_c, 9, 38, 0
1, 5245, Note_on_c, 4, 40, 0
1, 5249, Note_on_c, 2, 57, 0
1, 5251, Note_on_c, 6, 57, 0
1, 5255, Note_on_c, 6, 52, 0
1, 5265, Note_on_c, 0, 57, 0
1, 5267, Note_on_c, 0, 64, 0
1, 5269, Note_on_c, 0, 61, 0
1, 5269, Note_on_c, 0, 67, 0
1, 5280, Note_on_c, 1, 42, 119
1, 5281, Note_on_c, 9, 40, 97
1, 5282, Note_on_c, 9, 40, 0
1, 5282, Note_on_c, 9, 28, 90
1, 5283, Note_on_c, 9, 28, 0
1, 5284, Note_on_c, 4, 42, 127
1, 5286, Note_on_c, 4, 49, 127
1, 5318, Note_on_c, 4, 42, 0
1, 5319, Note_on_c, 4, 49, 0
1, 5327, Note_on_c, 2, 57, 107
1, 5329, Note_on_c, 6, 52, 127
1, 5330, Note_on_c, 6, 57, 127
1, 5332, Note_on_c, 1, 42, 0
1, 5333, Note_on_c, 9, 38, 25
1, 5334, Note_on_c, 9, 38, 0
1, 5337, Note_on_c, 4, 45, 127
1, 5339, Note_on_c, 4, 57, 127
1, 5345, Note_on_c, 2, 57, 0
1, 5347, Note_on_c, 6, 57, 0
1, 5351, Note_on_c, 6, 52, 0
1, 5373, Note_on_c, 4, 45, 0
1, 5373, Note_on_c, 4, 57, 0
1, 5375, Note_on_c, 0, 67, 107
1, 5375, Note_on_c, 0, 61, 117
1, 5376, Note_on_c, 0, 64, 117
1, 5376, Note_on_c, 1, 45, 117
1, 5377, Note_on_c, 0, 57, 117
1, 5377, Note_on_c, 9, 38, 53
1, 5378, Note_on_c, 9, 35, 111
1, 5380, Note_on_c, 9, 35, 0
1, 5380, Note_on_c, 9, 38, 0
1, 5381, Note_on_c, 4, 45, 127
1, 5412, Note_on_c, 0, 57, 0
1, 5413, Note_on_c, 0, 64, 0
1, 5413, Note_on_c, 0, 61, 0
1, 5416, Note_on_c, 0, 67, 0
1, 5420, Note_on_c, 4, 45, 0
1, 5424, Note_on_c, 6, 55, 75
1, 5429, Note_on_c, 9, 38, 42
1, 5430, Note_on_c, 9, 38, 0
1, 5431, Note_on_c, 4, 42, 127
1, 5434, Note_on_c, 4, 57, 127
1, 5464, Note_on_c, 4, 42, 0
1, 5468, Note_on_c, 4, 57, 0
1, 5471, Note_on_c, 6, 55, 0
1, 5471, Note_on_c, 6, 55, 83
1, 5473, Note_on_c, 9, 40, 97
1, 5474, Note_on_c, 9, 28, 91
1, 5475, Note_on_c, 9, 40, 0
1, 5476, Note_on_c, 9, 28, 0
1, 5476, Note_on_c, 4, 42, 127
1, 5478, Note_on_c, 1, 45, 0
1, 5480, Note_on_c, 4, 49, 127
1, 5516, Note_on_c, 6, 55, 0
1, 5520, Note_on_c, 0, 61, 117
1, 5520, Note_on_c, 0, 67, 107
1, 5520, Note_on_c, 0, 64, 117
1, 5520, Note_on_c, 1, 45, 99
1, 5521, Note_on_c, 0, 57, 117
1, 5521, Note_on_c, 9, 35, 68
1, 5522, Note_on_c, 9, 35, 0
1, 5522, Note_on_c, 6, 55, 100
1, 5523, Note_on_c, 4, 42, 0
1, 5524, Note_on_c, 4, 49, 0
1, 5525, Note_on_c, 9, 38, 27
1, 5527, Note_on_c, 9, 38, 0
1, 5534, Note_on_c, 1, 45, 0
1, 5553, Note_on_c, 0, 67, 0
1, 5553, Note_on_c, 0, 64, 0
1, 5557, Note_on_c, 0, 57, 0
1, 5560, Note_on_c, 0, 61, 0
1, 5567, Note_on_c, 6, 55, 0
1, 5567, Note_on_c, 6, 54, 95
1, 5568, Note_on_c, 1, 43, 126
1, 5568, Note_on_c, 9, 38, 52
1, 5569, Note_on_c, 9, 35, 110
1, 5571, Note_on_c, 9, 35, 0
1, 5572, Note_on_c, 9, 38, 0
1, 5572, Note_on_c, 4, 43, 127
1, 5613, Note_on_c, 6, 54, 0
1, 5616, Note_on_c, 1, 43, 0
1, 5617, Note_on_c, 6, 55, 127
1, 5618, Note_on_c, 4, 43, 0
1, 5621, Note_on_c, 9, 38, 47
1, 5622, Note_on_c, 9, 38, 0
1, 5663, Note_on_c, 0, 64, 117
1, 5663, Note_on_c, 0, 57, 117
1, 5664, Note_on_c, 0, 61, 117
1, 5664, Note_on_c, 1, 42, 127
1, 5665, Note_on_c, 0, 67, 117
1, 5665, Note_on_c, 9, 40, 96
1, 5666, Note_on_c, 6, 54, 127
1, 5667, Note_on_c, 6, 55, 0
1, 5667, Note_on_c, 9, 28, 92
1, 5668, Note_on_c, 9, 28, 0
1, 5668, Note_on_c, 9, 40, 0
1, 5668, Note_on_c, 4, 42, 127
1, 5669, Note_on_c, 4, 49, 127
1, 5700, Note_on_c, 0, 64, 0
1, 5701, Note_on_c, 0, 57, 0
1, 5703, Note_on_c, 0, 61, 0
1, 5708, Note_on_c, 0, 67, 0
1, 5709, Note_on_c, 6, 54, 0
1, 5713, Note_on_c, 6, 55, 119
1, 5717, Note_on_c, 4, 42, 0
1, 5717, Note_on_c, 1, 42, 0
1, 5717, Note_on_c, 9, 38, 23
1, 5718, Note_on_c, 9, 38, 0
1, 5718, Note_on_c, 4, 49, 0
1, 5759, Note_on_c, 6, 45, 117
1, 5760, Note_on_c, 1, 45, 116
1, 5761, Note_on_c, 6, 55, 0
1, 5761, Note_on_c, 9, 38, 43
1, 5762, Note_on_c, 9, 35, 111
1, 5763, Note_on_c, 4, 45, 127
1, 5764, Note_on_c, 9, 35, 0
1, 5764, Note_on_c, 9, 38, 0
1, 5808, Note_on_c, 4, 45, 0
1, 5812, Note_on_c, 9, 38, 45
1, 5813, Note_on_c, 9, 38, 0
1, 5838, Note_on_c, 6, 45, 0
1, 5854, Note_on_c, 0, 61, 117
1, 5855, Note_on_c, 0, 64, 117
1, 5856, Note_on_c, 0, 67, 113
1, 5857, Note_on_c, 0, 57, 117
1, 5857, Note_on_c, 9, 40, 98
1, 5858, Note_on_c, 9, 40, 0
1, 5858, Note_on_c, 2, 57, 107
1, 5858, Note_on_c, 9, 28, 94
1, 5859, Note_on_c, 9, 28, 0
1, 5859, Note_on_c, 6, 57, 127
1, 5860, Note_on_c, 6, 52, 127
1, 5861, Note_on_c, 4, 42, 127
1, 5864, Note_on_c, 6, 52, 0
1, 5864, Note_on_c, 4, 49, 127
1, 5865, Note_on_c, 6, 57, 0
1, 5866, Note_on_c, 2, 57, 0
1, 5867, Note_on_c, 1, 45, 0
1, 5892, Note_on_c, 0, 57, 0
1, 5894, Note_on_c, 0, 64, 0
1, 5895, Note_on_c, 0, 67, 0
1, 5895, Note_on_c, 0, 61, 0
1, 5905, Note_on_c, 6, 52, 75
1, 5906, Note_on_c, 6, 57, 83
1, 5907, Note_on_c, 6, 52, 0
1, 5909, Note_on_c, 6, 57, 0
1, 5909, Note_on_c, 4, 49, 0
1, 5909, Note_on_c, 9, 38, 25
1, 5910, Note_on_c, 9, 38, 0
1, 5910, Note_on_c, 4, 42, 0
1, 5950, Note_on_c, 6, 52, 75
1, 5951, Note_on_c, 6, 57, 70
1, 5952, Note_on_c, 1, 40, 127
1, 5953, Note_on_c, 6, 57, 0
1, 5953, Note_on_c, 9, 38, 54
1, 5954, Note_on_c, 6, 52, 0
1, 5954, Note_on_c, 9, 35, 110
1, 5955, Note_on_c, 9, 35, 0
1, 5955, Note_on_c, 9, 38, 0
1, 5955, Note_on_c, 4, 40, 127
1, 5980, Pitch_bend_c, 6, 4200
1, 5998, Note_on_c, 0, 61, 117
1, 5998, Note_on_c, 2, 52, 106
1, 5999, Note_on_c, 0, 67, 108
1, 6000, Note_on_c, 0, 64, 117
1, 6001, Note_on_c, 1, 40, 0
1, 6001, Note_on_c, 0, 57, 117
1, 6001, Note_on_c, 6, 52, 127
1, 6005, Note_on_c, 9, 38, 45
1, 6006, Note_on_c, 9, 38, 0
1, 6013, Note_on_c, 4, 40, 0
1, 6018, Note_on_c, 2, 52, 0
1, 6033, Note_on_c, 0, 64, 0
1, 6033, Note_on_c, 0, 57, 0
1, 6037, Note_on_c, 0, 61, 0
1, 6037, Note_on_c, 0, 67, 0
1, 6041, Pitch_bend_c, 6, 3552
1, 6044, Pitch_bend_c, 6, 3680
1, 6046, Pitch_bend_c, 6, 4224
1, 6048, Note_on_c, 1, 42, 121
1, 6049, Note_on_c, 9, 40, 97
1, 6050, Note_on_c, 9, 40, 0
1, 6050, Pitch_bend_c, 6, 4672
1, 6050, Note_on_c, 9, 28, 90
1, 6051, Note_on_c, 9, 28, 0
1, 6051, Note_on_c, 4, 42, 127
1, 6054, Pitch_bend_c, 6, 5792
1, 6055, Note_on_c, 4, 49, 127
1, 6059, Pitch_bend_c, 6, 6496
1, 6060, Pitch_bend_c, 6, 7200
1, 6063, Pitch_bend_c, 6, 8064
1, 6069, Pitch_bend_c, 6, 8192
1, 6086, Note_on_c, 4, 42, 0
1, 6088, Note_on_c, 4, 49, 0
1, 6096, Note_on_c, 1, 42, 0
1, 6097, Note_on_c, 2, 57, 84
1, 6098, Note_on_c, 6, 52, 0
1, 6099, Note_on_c, 6, 57, 116
1, 6101, Note_on_c, 9, 38, 25
1, 6102, Note_on_c, 9, 38, 0
1, 6105, Note_on_c, 4, 45, 127
1, 6107, Note_on_c, 4, 57, 127
1, 6116, Note_on_c, 2, 57, 0
1, 6141, Note_on_c, 4, 57, 0
1, 6142, Note_on_c, 4, 45, 0
1, 6144, Note_on_c, 0, 61, 117
1, 6144, Note_on_c, 0, 64, 117
1, 6144, Note_on_c, 0, 67, 107
1, 6144, Note_on_c, 0, 57, 117
1, 6144, Note_on_c, 1, 45, 119
1, 6145, Note_on_c, 9, 38, 53
1, 6146, Note_on_c, 9, 35, 111
1, 6148, Note_on_c, 9, 35, 0
1, 6148, Note_on_c, 9, 38, 0
1, 6149, Note_on_c, 4, 45, 127
1, 6177, Note_on_c, 0, 57, 0
1, 6178, Note_on_c, 0, 67, 0
1, 6181, Note_on_c, 0, 64, 0
1, 6182, Note_on_c, 0, 61, 0
1, 6188, Note_on_c, 4, 45, 0
1, 6197, Note_on_c, 9, 38, 42
1, 6198, Note_on_c, 9, 38, 0
1, 6200, Note_on_c, 4, 42, 127
1, 6202, Note_on_c, 4, 57, 127
1, 6227, Note_on_c, 6, 57, 0
1, 6232, Note_on_c, 4, 42, 0
1, 6236, Note_on_c, 4, 57, 0
1, 6240, Note_on_c, 6, 52, 75
1, 6241, Pitch_bend_c, 8, 0
1, 6241, Note_on_c, 9, 40, 97
1, 6242, Note_on_c, 9, 40, 0
1, 6242, Note_on_c, 6, 57, 70
1, 6242, Note_on_c, 9, 28, 91
1, 6243, Note_on_c, 9, 28, 0
1, 6243, Pitch_bend_c, 2, 0
1, 6244, Note_on_c, 4, 42, 127
1, 6245, Note_on_c, 8, 42, 127
1, 6246, Note_on_c, 6, 57, 0
1, 6247, Note_on_c, 1, 45, 0
1, 6247, Note_on_c, 6, 52, 0
1, 6248, Note_on_c, 2, 42, 127
1, 6249, Note_on_c, 4, 49, 127
1, 6276, Pitch_bend_c, 8, 192
1, 6277, Pitch_bend_c, 2, 192
1, 6280, Pitch_bend_c, 8, 320
1, 6281, Pitch_bend_c, 2, 512
1, 6282, Pitch_bend_c, 8, 512
1, 6285, Pitch_bend_c, 8, 992
1, 6286, Pitch_bend_c, 2, 1760
1, 6287, Note_on_c, 0, 61, 117
1, 6287, Note_on_c, 0, 67, 107
1, 6288, Note_on_c, 0, 64, 117
1, 6288, Note_on_c, 1, 45, 108
1, 6289, Note_on_c, 0, 57, 117
1, 6289, Note_on_c, 9, 35, 68
1, 6290, Note_on_c, 9, 35, 0
1, 6290, Pitch_bend_c, 8, 1760
1, 6291, Pitch_bend_c, 8, 2656
1, 6292, Note_on_c, 4, 42, 0
1, 6292, Note_on_c, 9, 38, 27
1, 6293, Pitch_bend_c, 2, 2656
1, 6294, Note_on_c, 6, 52, 75
1, 6295, Note_on_c, 9, 38, 0
1, 6295, Note_on_c, 6, 57, 83
1, 6296, Pitch_bend_c, 8, 3808
1, 6297, Note_on_c, 6, 52, 0
1, 6298, Note_on_c, 4, 49, 0
1, 6299, Pitch_bend_c, 2, 5120
1, 6300, Note_on_c, 6, 57, 0
1, 6300, Pitch_bend_c, 8, 5120
1, 6301, Pitch_bend_c, 8, 6368
1, 6302, Pitch_bend_c, 2, 6368
1, 6302, Pitch_bend_c, 8, 8192
1, 6303, Pitch_bend_c, 2, 8192
1, 6307, Note_on_c, 1, 45, 0
1, 6319, Note_on_c, 0, 64, 0
1, 6321, Note_on_c, 0, 67, 0
1, 6322, Note_on_c, 0, 57, 0
1, 6325, Note_on_c, 0, 61, 0
1, 6333, Note_on_c, 8, 42, 0
1, 6334, Note_on_c, 2, 42, 0
1, 6334, Note_on_c, 8, 45, 127
1, 6335, Note_on_c, 2, 45, 127
1, 6336, Note_on_c, 1, 43, 117
1, 6336, Note_on_c, 6, 52, 127
1, 6337, Note_on_c, 2, 57, 107
1, 6337, Note_on_c, 9, 38, 52
1, 6338, Note_on_c, 6, 57, 127
1, 6338, Note_on_c, 9, 35, 110
1, 6339, Note_on_c, 9, 35, 0
1, 6339, Note_on_c, 4, 43, 127
1, 6340, Note_on_c, 9, 38, 0
1, 6350, Note_on_c, 6, 57, 0
1, 6350, Note_on_c, 6, 52, 0
1, 6351, Note_on_c, 2, 57, 0
1, 6374, Note_on_c, 1, 43, 0
1, 6385, Note_on_c, 6, 52, 78
1, 6386, Note_on_c, 4, 43, 0
1, 6388, Note_on_c, 6, 57, 83
1, 6389, Note_on_c, 6, 57, 0
1, 6389, Note_on_c, 9, 38, 47
1, 6390, Note_on_c, 9, 38, 0
1, 6432, Note_on_c, 0, 61, 117
1, 6432, Note_on_c, 0, 67, 113
1, 6432, Note_on_c, 0, 57, 117
1, 6432, Note_on_c, 1, 42, 124
1, 6433, Note_on_c, 0, 64, 117
1, 6433, Note_on_c, 9, 40, 96
1, 6434, Note_on_c, 9, 40, 0
1, 6434, Note_on_c, 2, 54, 97
1, 6434, Note_on_c, 9, 28, 92
1, 6435, Note_on_c, 9, 28, 0
1, 6435, Note_on_c, 6, 54, 127
1, 6436, Note_on_c, 6, 52, 0
1, 6437, Note_on_c, 4, 42, 127
1, 6438, Note_on_c, 4, 49, 127
1, 6450, Note_on_c, 2, 54, 0
1, 6464, Note_on_c, 0, 64, 0
1, 6465, Note_on_c, 0, 57, 0
1, 6466, Note_on_c, 0, 67, 0
1, 6468, Note_on_c, 0, 61, 0
1, 6479, Note_on_c, 6, 54, 0
1, 6480, Note_on_c, 6, 52, 99
1, 6482, Note_on_c, 1, 42, 0
1, 6485, Note_on_c, 4, 42, 0
1, 6485, Note_on_c, 9, 38, 23
1, 6486, Note_on_c, 9, 38, 0
1, 6486, Note_on_c, 4, 49, 0
1, 6496, Control_c, 8, 1, 8
1, 6497, Control_c, 2, 1, 20
1, 6498, Control_c, 8, 1, 20
1, 6500, Control_c, 8, 1, 37
1, 6501, Control_c, 2, 1, 57
1, 6502, Control_c, 8, 1, 57
1, 6505, Control_c, 8, 1, 77
1, 6507, Control_c, 2, 1, 96
1, 6507, Control_c, 8, 1, 96
1, 6509, Note_on_c, 8, 45, 0
1, 6510, Note_on_c, 2, 45, 0
1, 6510, Control_c, 8, 1, 112
1, 6511, Control_c, 8, 1, 126
1, 6512, Control_c, 2, 1, 126
1, 6513, Control_c, 2, 1, 127
1, 6513, Control_c, 8, 1, 127
1, 6526, Note_on_c, 6, 52, 0
1, 6528, Note_on_c, 1, 33, 117
1, 6528, Note_on_c, 6, 52, 90
1, 6528, Note_on_c, 6, 57, 98
1, 6529, Note_on_c, 3, 67, 127
1, 6529, Note_on_c, 9, 38, 43
1, 6530, Pitch_bend_c, 3, 4096
1, 6530, Note_on_c, 9, 35, 111
1, 6531, Note_on_c, 9, 35, 0
1, 6531, Note_on_c, 4, 45, 127
1, 6532, Note_on_c, 9, 38, 0
1, 6532, Pitch_bend_c, 3, 4032
1, 6534, Pitch_bend_c, 3, 4384
1, 6541, Pitch_bend_c, 3, 4736
1, 6544, Pitch_bend_c, 3, 5984
1, 6549, Pitch_bend_c, 3, 7968
1, 6556, Pitch_bend_c, 3, 8192
1, 6573, Note_on_c, 6, 57, 0
1, 6574, Note_on_c, 3, 67, 0
1, 6574, Note_on_c, 6, 52, 0
1, 6575, Note_on_c, 6, 57, 60
1, 6576, Note_on_c, 6, 52, 65
1, 6577, Note_on_c, 4, 45, 0
1, 6578, Note_on_c, 3, 67, 113
1, 6580, Note_on_c, 9, 38, 45
1, 6581, Note_on_c, 9, 38, 0
1, 6583, Control_c, 8, 1, 120
1, 6584, Control_c, 2, 1, 120
1, 6585, Control_c, 8, 1, 98
1, 6586, Control_c, 2, 1, 43
1, 6587, Control_c, 8, 1, 70
1, 6589, Control_c, 8, 1, 43
1, 6593, Control_c, 8, 1, 22
1, 6594, Control_c, 2, 1, 22
1, 6596, Control_c, 2, 1, 0
1, 6596, Control_c, 8, 1, 8
1, 6597, Control_c, 8, 1, 0
1, 6622, Note_on_c, 6, 49, 127
1, 6623, Note_on_c, 6, 52, 0
1, 6623, Note_on_c, 6, 57, 0
1, 6623, Note_on_c, 6, 52, 115
1, 6623, Note_on_c, 6, 57, 127
1, 6624, Note_on_c, 9, 40, 98
1, 6625, Note_on_c, 9, 28, 94
1, 6626, Note_on_c, 9, 40, 0
1, 6626, Note_on_c, 0, 61, 117
1, 6627, Note_on_c, 9, 28, 0
1, 6627, Note_on_c, 0, 67, 111
1, 6628, Note_on_c, 0, 57, 117
1, 6629, Note_on_c, 0, 64, 117
1, 6632, Note_on_c, 4, 42, 127
1, 6632, Note_on_c, 4, 49, 127
1, 6633, Note_on_c, 6, 49, 0
1, 6633, Note_on_c, 1, 33, 0
1, 6634, Note_on_c, 6, 52, 0
1, 6636, Note_on_c, 6, 57, 0
1, 6637, Note_on_c, 3, 67, 0
1, 6656, Note_on_c, 0, 64, 0
1, 6659, Note_on_c, 0, 57, 0
1, 6659, Note_on_c, 0, 67, 0
1, 6660, Note_on_c, 0, 61, 0
1, 6672, Note_on_c, 1, 33, 120
1, 6672, Note_on_c, 6, 57, 73
1, 6673, Note_on_c, 6, 52, 65
1, 6677, Note_on_c, 4, 42, 0
1, 6677, Note_on_c, 4, 49, 0
1, 6677, Note_on_c, 9, 38, 25
1, 6678, Note_on_c, 9, 38, 0
1, 6685, Note_on_c, 1, 33, 0
1, 6717, Note_on_c, 6, 57, 0
1, 6717, Note_on_c, 6, 52, 0
1, 6717, Note_on_c, 6, 52, 103
1, 6718, Note_on_c, 6, 57, 98
1, 6720, Note_on_c, 1, 40, 105
1, 6720, Note_on_c, 3, 67, 127
1, 6721, Note_on_c, 9, 38, 54
1, 6722, Note_on_c, 9, 35, 110
1, 6723, Note_on_c, 9, 35, 0
1, 6723, Note_on_c, 9, 38, 0
1, 6724, Note_on_c, 4, 40, 127
1, 6764, Note_on_c, 6, 52, 0
1, 6764, Note_on_c, 6, 57, 0
1, 6765, Note_on_c, 3, 67, 0
1, 6767, Note_on_c, 0, 61, 117
1, 6767, Note_on_c, 0, 67, 108
1, 6768, Note_on_c, 0, 57, 117
1, 6769, Note_on_c, 0, 64, 117
1, 6769, Note_on_c, 6, 57, 73
1, 6770, Note_on_c, 6, 52, 65
1, 6771, Note_on_c, 3, 69, 115
1, 6773, Note_on_c, 9, 38, 45
1, 6774, Note_on_c, 9, 38, 0
1, 6781, Note_on_c, 4, 40, 0
1, 6801, Note_on_c, 0, 67, 0
1, 6801, Note_on_c, 0, 64, 0
1, 6802, Note_on_c, 0, 57, 0
1, 6803, Note_on_c, 0, 61, 0
1, 6814, Note_on_c, 6, 52, 0
1, 6814, Note_on_c, 6, 49, 127
1, 6814, Note_on_c, 6, 52, 127
1, 6815, Note_on_c, 6, 57, 0
1, 6815, Note_on_c, 6, 57, 127
1, 6817, Note_on_c, 9, 40, 97
1, 6818, Note_on_c, 9, 40, 0
1, 6818, Note_on_c, 9, 28, 90
1, 6819, Note_on_c, 9, 28, 0
1, 6820, Note_on_c, 4, 42, 127
1, 6823, Note_on_c, 4, 49, 127
1, 6824, Note_on_c, 6, 49, 0
1, 6824, Note_on_c, 6, 52, 0
1, 6825, Note_on_c, 6, 57, 0
1, 6842, Note_on_c, 3, 69, 0
1, 6855, Note_on_c, 4, 42, 0
1, 6856, Note_on_c, 4, 49, 0
1, 6864, Note_on_c, 6, 57, 73
1, 6864, Note_on_c, 6, 52, 65
1, 6869, Note_on_c, 9, 38, 25
1, 6870, Note_on_c, 9, 38, 0
1, 6873, Note_on_c, 4, 45, 127
1, 6876, Note_on_c, 4, 57, 127
1, 6890, Pitch_bend_c, 3, 8160
1, 6893, Pitch_bend_c, 3, 7584
1, 6898, Note_on_c, 1, 40, 0
1, 6899, Pitch_bend_c, 3, 7168
1, 6901, Pitch_bend_c, 3, 6688
1, 6903, Pitch_bend_c, 3, 3360
1, 6909, Note_on_c, 4, 57, 0
1, 6910, Note_on_c, 6, 52, 0
1, 6910, Note_on_c, 6, 52, 90
1, 6911, Note_on_c, 6, 57, 0
1, 6911, Note_on_c, 6, 57, 98
1, 6912, Note_on_c, 4, 45, 0
1, 6912, Note_on_c, 1, 45, 121
1, 6913, Note_on_c, 0, 61, 117
1, 6913, Note_on_c, 9, 38, 53
1, 6914, Note_on_c, 0, 67, 113
1, 6914, Note_on_c, 9, 35, 111
1, 6915, Note_on_c, 0, 57, 117
1, 6916, Note_on_c, 9, 35, 0
1, 6916, Note_on_c, 9, 38, 0
1, 6916, Note_on_c, 0, 64, 117
1, 6918, Note_on_c, 3, 71, 122
1, 6919, Note_on_c, 4, 45, 127
1, 6933, Pitch_bend_c, 3, 3392
1, 6934, Pitch_bend_c, 3, 3808
1, 6938, Pitch_bend_c, 3, 4576
1, 6943, Note_on_c, 0, 64, 0
1, 6945, Pitch_bend_c, 3, 5184
1, 6946, Note_on_c, 0, 57, 0
1, 6947, Note_on_c, 0, 67, 0
1, 6948, Note_on_c, 0, 61, 0
1, 6948, Pitch_bend_c, 3, 5888
1, 6949, Pitch_bend_c, 3, 7392
1, 6953, Pitch_bend_c, 3, 7872
1, 6955, Note_on_c, 6, 57, 0
1, 6956, Note_on_c, 4, 45, 0
1, 6956, Note_on_c, 6, 52, 0
1, 6957, Pitch_bend_c, 3, 8160
1, 6959, Pitch_bend_c, 3, 8192
1, 6960, Note_on_c, 6, 57, 60
1, 6960, Note_on_c, 6, 52, 65
1, 6964, Note_on_c, 9, 38, 42
1, 6966, Note_on_c, 9, 38, 0
1, 6967, Note_on_c, 4, 42, 127
1, 6971, Note_on_c, 4, 57, 127
1, 6997, Note_on_c, 3, 71, 0
1, 7000, Note_on_c, 4, 42, 0
1, 7004, Note_on_c, 4, 57, 0
1, 7006, Note_on_c, 6, 49, 127
1, 7007, Note_on_c, 6, 57, 0
1, 7007, Note_on_c, 6, 52, 0
1, 7007, Note_on_c, 6, 52, 115
1, 7007, Note_on_c, 6, 57, 127
1, 7008, Note_on_c, 9, 40, 97
1, 7009, Note_on_c, 3, 71, 103
1, 7010, Note_on_c, 9, 40, 0
1, 7010, Note_on_c, 9, 28, 91
1, 7011, Note_on_c, 9, 28, 0
1, 7012, Note_on_c, 4, 42, 127
1, 7014, Note_on_c, 1, 45, 0
1, 7015, Note_on_c, 4, 49, 127
1, 7016, Note_on_c, 6, 49, 0
1, 7018, Note_on_c, 6, 52, 0
1, 7021, Note_on_c, 6, 57, 0
1, 7040, Note_on_c, 3, 71, 0
1, 7055, Note_on_c, 0, 61, 117
1, 7055, Note_on_c, 0, 67, 114
1, 7056, Note_on_c, 0, 57, 113
1, 7056, Note_on_c, 1, 45, 107
1, 7057, Note_on_c, 0, 64, 117
1, 7057, Note_on_c, 9, 35, 68
1, 7058, Note_on_c, 6, 57, 73
1, 7059, Note_on_c, 9, 35, 0
1, 7059, Note_on_c, 6, 52, 65
1, 7060, Note_on_c, 4, 42, 0
1, 7060, Note_on_c, 9, 38, 27
1, 7061, Note_on_c, 3, 69, 127
1, 7062, Note_on_c, 9, 38, 0
1, 7062, Note_on_c, 4, 49, 0
1, 7071, Note_on_c, 1, 45, 0
1, 7084, Note_on_c, 0, 64, 0
1, 7085, Note_on_c, 0, 57, 0
1, 7086, Note_on_c, 0, 67, 0
1, 7091, Note_on_c, 0, 61, 0
1, 7101, Note_on_c, 6, 57, 0
1, 7102, Note_on_c, 6, 52, 0
1, 7102, Note_on_c, 6, 52, 103
1, 7102, Note_on_c, 6, 57, 98
1, 7104, Note_on_c, 1, 40, 121
1, 7105, Note_on_c, 9, 38, 52
1, 7105, Note_on_c, 9, 35, 110
1, 7107, Note_on_c, 9, 35, 0
1, 7107, Note_on_c, 9, 38, 0
1, 7108, Note_on_c, 4, 43, 127
1, 7120, Pitch_bend_c, 3, 8160
1, 7124, Pitch_bend_c, 3, 8128
1, 7126, Pitch_bend_c, 3, 8064
1, 7128, Pitch_bend_c, 3, 7872
1, 7134, Pitch_bend_c, 3, 7776
1, 7136, Pitch_bend_c, 3, 7392
1, 7143, Pitch_bend_c, 3, 6976
1, 7145, Pitch_bend_c, 3, 6560
1, 7148, Note_on_c, 6, 57, 0
1, 7148, Note_on_c, 6, 52, 0
1, 7151, Pitch_bend_c, 3, 6368
1, 7152, Note_on_c, 6, 57, 73
1, 7153, Note_on_c, 4, 43, 0
1, 7153, Note_on_c, 6, 52, 65
1, 7154, Pitch_bend_c, 3, 5952
1, 7156, Note_on_c, 9, 38, 47
1, 7157, Note_on_c, 9, 38, 0
1, 7157, Pitch_bend_c, 3, 5760
1, 7162, Pitch_bend_c, 3, 5184
1, 7166, Pitch_bend_c, 3, 4992
1, 7173, Pitch_bend_c, 3, 4896
1, 7174, Pitch_bend_c, 3, 4800
1, 7176, Pitch_bend_c, 3, 4704
1, 7180, Note_on_c, 3, 69, 0
1, 7185, Pitch_bend_c, 3, 4416
1, 7189, Pitch_bend_c, 3, 4320
1, 7192, Pitch_bend_c, 3, 4160
1, 7197, Pitch_bend_c, 3, 4096
1, 7198, Note_on_c, 6, 52, 0
1, 7198, Note_on_c, 6, 49, 127
1, 7198, Note_on_c, 6, 52, 127
1, 7199, Note_on_c, 6, 57, 0
1, 7199, Note_on_c, 6, 57, 127
1, 7201, Note_on_c, 0, 64, 117
1, 7201, Note_on_c, 0, 57, 117
1, 7201, Note_on_c, 9, 40, 96
1, 7201, Note_on_c, 9, 28, 92
1, 7202, Note_on_c, 9, 40, 0
1, 7202, Note_on_c, 0, 67, 117
1, 7203, Note_on_c, 9, 28, 0
1, 7203, Note_on_c, 0, 61, 117
1, 7204, Pitch_bend_c, 3, 4192
1, 7206, Pitch_bend_c, 3, 4352
1, 7207, Note_on_c, 4, 42, 127
1, 7208, Pitch_bend_c, 3, 4640
1, 7209, Note_on_c, 4, 49, 127
1, 7210, Note_on_c, 6, 52, 0
1, 7210, Note_on_c, 1, 40, 0
1, 7210, Note_on_c, 6, 49, 0
1, 7211, Note_on_c, 6, 57, 0
1, 7212, Pitch_bend_c, 3, 5792
1, 7213, Pitch_bend_c, 3, 7456
1, 7217, Pitch_bend_c, 3, 8064
1, 7220, Pitch_bend_c, 3, 8192
1, 7231, Note_on_c, 0, 64, 0
1, 7231, Note_on_c, 0, 57, 0
1, 7232, Note_on_c, 0, 61, 0
1, 7233, Note_on_c, 0, 67, 0
1, 7247, Note_on_c, 1, 40, 107
1, 7247, Note_on_c, 6, 57, 73
1, 7248, Note_on_c, 6, 52, 65
1, 7253, Note_on_c, 4, 42, 0
1, 7253, Note_on_c, 9, 38, 23
1, 7254, Note_on_c, 9, 38, 0
1, 7255, Note_on_c, 4, 49, 0
1, 7264, Note_on_c, 1, 40, 0
1, 7293, Note_on_c, 6, 52, 0
1, 7293, Note_on_c, 6, 52, 90
1, 7294, Note_on_c, 6, 57, 0
1, 7294, Note_on_c, 6, 57, 98
1, 7295, Note_on_c, 1, 33, 121
1, 7297, Note_on_c, 3, 67, 124
1, 7297, Note_on_c, 9, 38, 43
1, 7298, Note_on_c, 9, 35, 111
1, 7299, Note_on_c, 4, 45, 127
1, 7300, Note_on_c, 9, 35, 0
1, 7300, Note_on_c, 9, 38, 0
1, 7339, Note_on_c, 6, 57, 0
1, 7339, Note_on_c, 6, 52, 0
1, 7340, Note_on_c, 3, 67, 0
1, 7343, Note_on_c, 6, 57, 60
1, 7344, Note_on_c, 6, 52, 65
1, 7345, Note_on_c, 4, 45, 0
1, 7346, Note_on_c, 3, 67, 124
1, 7348, Note_on_c, 9, 38, 45
1, 7350, Note_on_c, 9, 38, 0
1, 7390, Note_on_c, 6, 49, 127
1, 7391, Note_on_c, 6, 52, 0
1, 7391, Note_on_c, 6, 57, 0
1, 7391, Note_on_c, 6, 52, 115
1, 7391, Note_on_c, 6, 57, 127
1, 7393, Note_on_c, 0, 67, 117
1, 7393, Note_on_c, 9, 40, 98
1, 7393, Note_on_c, 9, 28, 94
1, 7394, Note_on_c, 9, 40, 0
1, 7394, Note_on_c, 0, 61, 117
1, 7395, Note_on_c, 9, 28, 0
1, 7395, Note_on_c, 0, 57, 117
1, 7396, Note_on_c, 0, 64, 113
1, 7397, Note_on_c, 4, 42, 127
1, 7400, Note_on_c, 4, 49, 127
1, 7401, Note_on_c, 6, 49, 0
1, 7402, Note_on_c, 6, 52, 0
1, 7402, Note_on_c, 1, 33, 0
1, 7405, Note_on_c, 6, 57, 0
1, 7416, Note_on_c, 0, 64, 0
1, 7426, Note_on_c, 0, 61, 0
1, 7426, Note_on_c, 0, 57, 0
1, 7427, Note_on_c, 0, 67, 0
1, 7440, Note_on_c, 6, 57, 73
1, 7440, Note_on_c, 6, 52, 65
1, 7442, Note_on_c, 3, 67, 0
1, 7445, Note_on_c, 4, 42, 0
1, 7445, Note_on_c, 4, 49, 0
1, 7445, Note_on_c, 9, 38, 25
1, 7446, Note_on_c, 9, 38, 0
1, 7485, Note_on_c, 6, 57, 0
1, 7486, Note_on_c, 6, 52, 0
1, 7486, Note_on_c, 6, 52, 103
1, 7487, Note_on_c, 6, 57, 98
1, 7488, Note_on_c, 1, 40, 124
1, 7488, Note_on_c, 3, 67, 122
1, 7489, Note_on_c, 9, 38, 54
1, 7490, Note_on_c, 9, 35, 110
1, 7492, Note_on_c, 9, 35, 0
1, 7492, Note_on_c, 9, 38, 0
1, 7492, Note_on_c, 4, 40, 127
1, 7532, Note_on_c, 6, 52, 0
1, 7532, Note_on_c, 6, 57, 0
1, 7534, Note_on_c, 0, 67, 117
1, 7535, Note_on_c, 0, 61, 117
1, 7536, Note_on_c, 0, 57, 117
1, 7537, Note_on_c, 0, 64, 117
1, 7537, Note_on_c, 6, 57, 73
1, 7538, Note_on_c, 6, 52, 65
1, 7540, Note_on_c, 1, 40, 0
1, 7541, Note_on_c, 9, 38, 45
1, 7542, Note_on_c, 9, 38, 0
1, 7549, Note_on_c, 4, 40, 0
1, 7562, Note_on_c, 3, 67, 0
1, 7565, Note_on_c, 0, 64, 0
1, 7566, Note_on_c, 0, 57, 0
1, 7567, Note_on_c, 0, 61, 0
1, 7569, Note_on_c, 0, 67, 0
1, 7582, Note_on_c, 6, 49, 127
1, 7583, Note_on_c, 6, 57, 0
1, 7583, Note_on_c, 6, 52, 0
1, 7583, Note_on_c, 6, 52, 127
1, 7583, Note_on_c, 6, 57, 127
1, 7584, Note_on_c, 1, 42, 123
1, 7585, Note_on_c, 9, 40, 97
1, 7585, Note_on_c, 9, 28, 90
1, 7586, Note_on_c, 9, 40, 0
1, 7587, Note_on_c, 9, 28, 0
1, 7588, Note_on_c, 4, 42, 127
1, 7590, Note_on_c, 3, 69, 111
1, 7591, Note_on_c, 4, 49, 127
1, 7592, Note_on_c, 6, 49, 0
1, 7592, Note_on_c, 6, 52, 0
1, 7593, Note_on_c, 6, 57, 0
1, 7611, Note_on_c, 3, 69, 0
1, 7622, Note_on_c, 4, 42, 0
1, 7624, Note_on_c, 4, 49, 0
1, 7628, Pitch_bend_c, 3, 3963
1, 7630, Note_on_c, 1, 42, 0
1, 7632, Note_on_c, 6, 57, 73
1, 7632, Note_on_c, 6, 52, 65
1, 7636, Note_on_c, 3, 71, 127
1, 7637, Note_on_c, 9, 38, 25
1, 7639, Note_on_c, 9, 38, 0
1, 7641, Note_on_c, 4, 45, 127
1, 7644, Note_on_c, 4, 57, 127
1, 7662, Pitch_bend_c, 3, 4096
1, 7664, Pitch_bend_c, 3, 4160
1, 7668, Pitch_bend_c, 3, 4192
1, 7670, Pitch_bend_c, 3, 4512
1, 7676, Pitch_bend_c, 3, 4800
1, 7677, Note_on_c, 4, 57, 0
1, 7678, Note_on_c, 6, 57, 0
1, 7679, Note_on_c, 4, 45, 0
1, 7680, Note_on_c, 0, 67, 117
1, 7680, Note_on_c, 0, 61, 117
1, 7680, Note_on_c, 1, 45, 119
1, 7680, Pitch_bend_c, 3, 5664
1, 7681, Note_on_c, 0, 57, 117
1, 7681, Note_on_c, 9, 38, 53
1, 7682, Note_on_c, 0, 64, 117
1, 7682, Note_on_c, 9, 35, 111
1, 7683, Note_on_c, 6, 52, 0
1, 7683, Note_on_c, 6, 52, 90
1, 7684, Note_on_c, 9, 35, 0
1, 7684, Note_on_c, 9, 38, 0
1, 7684, Note_on_c, 6, 57, 98
1, 7686, Pitch_bend_c, 3, 6240
1, 7687, Note_on_c, 4, 45, 127
1, 7688, Pitch_bend_c, 3, 7808
1, 7689, Pitch_bend_c, 3, 8064
1, 7694, Pitch_bend_c, 3, 8192
1, 7710, Note_on_c, 0, 64, 0
1, 7714, Note_on_c, 0, 67, 0
1, 7714, Note_on_c, 0, 57, 0
1, 7716, Note_on_c, 0, 61, 0
1, 7724, Note_on_c, 4, 45, 0
1, 7725, Note_on_c, 6, 57, 0
1, 7726, Note_on_c, 6, 52, 0
1, 7728, Note_on_c, 6, 57, 60
1, 7729, Note_on_c, 6, 52, 65
1, 7732, Note_on_c, 9, 38, 42
1, 7734, Note_on_c, 9, 38, 0
1, 7736, Note_on_c, 4, 42, 127
1, 7738, Note_on_c, 4, 57, 127
1, 7768, Note_on_c, 4, 42, 0
1, 7772, Note_on_c, 4, 57, 0
1, 7774, Note_on_c, 6, 52, 0
1, 7774, Note_on_c, 6, 49, 127
1, 7774, Note_on_c, 6, 52, 115
1, 7775, Note_on_c, 6, 57, 0
1, 7775, Note_on_c, 6, 57, 127
1, 7777, Note_on_c, 9, 40, 97
1, 7778, Note_on_c, 9, 40, 0
1, 7778, Note_on_c, 9, 28, 91
1, 7779, Note_on_c, 9, 28, 0
1, 7779, Note_on_c, 4, 42, 127
1, 7784, Note_on_c, 6, 49, 0
1, 7784, Note_on_c, 4, 49, 127
1, 7785, Note_on_c, 6, 52, 0
1, 7785, Note_on_c, 1, 45, 0
1, 7789, Note_on_c, 6, 57, 0
1, 7789, Note_on_c, 3, 71, 0
1, 7823, Note_on_c, 1, 45, 113
1, 7824, Note_on_c, 0, 67, 113
1, 7824, Note_on_c, 0, 61, 117
1, 7825, Note_on_c, 0, 57, 117
1, 7825, Note_on_c, 0, 64, 117
1, 7825, Note_on_c, 9, 35, 68
1, 7826, Note_on_c, 9, 35, 0
1, 7826, Note_on_c, 6, 57, 73
1, 7827, Note_on_c, 6, 52, 65
1, 7828, Note_on_c, 4, 42, 0
1, 7828, Note_on_c, 9, 38, 27
1, 7829, Note_on_c, 9, 38, 0
1, 7829, Note_on_c, 4, 49, 0
1, 7838, Note_on_c, 1, 45, 0
1, 7852, Note_on_c, 0, 64, 0
1, 7853, Note_on_c, 0, 57, 0
1, 7854, Note_on_c, 0, 61, 0
1, 7856, Note_on_c, 0, 67, 0
1, 7869, Note_on_c, 6, 57, 0
1, 7870, Note_on_c, 3, 69, 127
1, 7871, Note_on_c, 6, 52, 0
1, 7871, Note_on_c, 6, 52, 103
1, 7871, Note_on_c, 6, 57, 98
1, 7872, Note_on_c, 1, 42, 111
1, 7873, Note_on_c, 9, 38, 52
1, 7873, Note_on_c, 9, 35, 110
1, 7875, Note_on_c, 9, 35, 0
1, 7875, Note_on_c, 9, 38, 0
1, 7876, Note_on_c, 4, 43, 127
1, 7908, Pitch_bend_c, 3, 8160
1, 7912, Pitch_bend_c, 3, 7872
1, 7916, Note_on_c, 6, 57, 0
1, 7916, Note_on_c, 6, 52, 0
1, 7917, Pitch_bend_c, 3, 7648
1, 7919, Pitch_bend_c, 3, 7040
1, 7920, Note_on_c, 1, 42, 0
1, 7920, Note_on_c, 6, 57, 73
1, 7920, Note_on_c, 6, 52, 65
1, 7921, Note_on_c, 4, 43, 0
1, 7923, Pitch_bend_c, 3, 6432
1, 7925, Note_on_c, 9, 38, 47
1, 7926, Note_on_c, 9, 38, 0
1, 7929, Pitch_bend_c, 3, 5856
1, 7932, Pitch_bend_c, 3, 5280
1, 7937, Pitch_bend_c, 3, 5024
1, 7943, Pitch_bend_c, 3, 4640
1, 7948, Pitch_bend_c, 3, 4832
1, 7954, Pitch_bend_c, 3, 5504
1, 7957, Pitch_bend_c, 3, 6272
1, 7960, Note_on_c, 3, 69, 0
1, 7961, Pitch_bend_c, 3, 7072
1, 7965, Note_on_c, 6, 49, 127
1, 7966, Note_on_c, 6, 52, 0
1, 7966, Note_on_c, 6, 52, 127
1, 7967, Note_on_c, 6, 57, 0
1, 7967, Note_on_c, 1, 40, 121
1, 7967, Note_on_c, 6, 57, 127
1, 7969, Note_on_c, 0, 67, 117
1, 7969, Note_on_c, 9, 40, 96
1, 7969, Note_on_c, 9, 28, 92
1, 7970, Note_on_c, 9, 40, 0
1, 7970, Note_on_c, 0, 61, 117
1, 7971, Note_on_c, 9, 28, 0
1, 7971, Note_on_c, 0, 57, 117
1, 7972, Note_on_c, 0, 64, 117
1, 7973, Pitch_bend_c, 3, 7712
1, 7975, Note_on_c, 3, 67, 124
1, 7976, Note_on_c, 4, 42, 127
1, 7977, Note_on_c, 4, 49, 127
1, 7978, Note_on_c, 6, 49, 0
1, 7978, Pitch_bend_c, 3, 8128
1, 7979, Note_on_c, 6, 57, 0
1, 7979, Note_on_c, 6, 52, 0
1, 8000, Note_on_c, 0, 64, 0
1, 8007, Note_on_c, 0, 57, 0
1, 8009, Note_on_c, 0, 67, 0
1, 8011, Note_on_c, 0, 61, 0
1, 8014, Note_on_c, 3, 67, 0
1, 8015, Note_on_c, 1, 40, 0
1, 8015, Note_on_c, 6, 57, 73
1, 8016, Note_on_c, 6, 52, 65
1, 8021, Note_on_c, 4, 42, 0
1, 8021, Note_on_c, 9, 38, 23
1, 8022, Note_on_c, 9, 38, 0
1, 8023, Note_on_c, 4, 49, 0
1, 8062, Note_on_c, 6, 57, 0
1, 8063, Note_on_c, 1, 38, 126
1, 8064, Note_on_c, 6, 52, 0
1, 8065, Note_on_c, 3, 66, 127
1, 8065, Note_on_c, 9, 38, 43
1, 8066, Note_on_c, 9, 35, 111
1, 8067, Note_on_c, 4, 50, 127
1, 8068, Note_on_c, 9, 35, 0
1, 8068, Note_on_c, 9, 38, 0
1, 8112, Note_on_c, 4, 50, 0
1, 8117, Note_on_c, 9, 38, 45
1, 8118, Note_on_c, 9, 38, 0
1, 8144, Control_c, 3, 1, 7
1, 8147, Control_c, 3, 1, 21
1, 8152, Control_c, 3, 1, 31
1, 8156, Control_c, 3, 1, 64
1, 8158, Note_on_c, 6, 62, 127
1, 8158, Note_on_c, 6, 57, 127
1, 8159, Note_on_c, 0, 66, 117
1, 8160, Note_on_c, 0, 57, 117
1, 8161, Note_on_c, 0, 62, 117
1, 8161, Note_on_c, 9, 40, 98
1, 8162, Note_on_c, 9, 40, 0
1, 8162, Note_on_c, 2, 62, 107
1, 8162, Note_on_c, 9, 28, 94
1, 8163, Note_on_c, 9, 28, 0
1, 8163, Control_c, 3, 1, 74
1, 8164, Note_on_c, 4, 47, 127
1, 8165, Control_c, 3, 1, 92
1, 8167, Note_on_c, 1, 38, 0
1, 8168, Note_on_c, 4, 54, 127
1, 8169, Control_c, 3, 1, 104
1, 8176, Control_c, 3, 1, 112
1, 8177, Note_on_c, 2, 62, 0
1, 8178, Note_on_c, 6, 57, 0
1, 8179, Control_c, 3, 1, 116
1, 8184, Control_c, 3, 1, 117
1, 8185, Note_on_c, 0, 57, 0
1, 8186, Note_on_c, 0, 62, 0
1, 8187, Note_on_c, 6, 62, 0
1, 8187, Control_c, 3, 1, 112
1, 8190, Note_on_c, 0, 66, 0
1, 8193, Control_c, 3, 1, 118
1, 8195, Control_c, 3, 1, 118
1, 8201, Control_c, 3, 1, 118
1, 8208, Control_c, 3, 1, 118
1, 8210, Control_c, 3, 1, 118
1, 8213, Note_on_c, 4, 54, 0
1, 8213, Note_on_c, 9, 38, 25
1, 8214, Note_on_c, 9, 38, 0
1, 8214, Note_on_c, 4, 47, 0
1, 8216, Control_c, 3, 1, 117
1, 8223, Control_c, 3, 1, 116
1, 8227, Control_c, 3, 1, 115
1, 8230, Control_c, 3, 1, 114
1, 8234, Control_c, 3, 1, 114
1, 8236, Control_c, 3, 1, 113
1, 8241, Control_c, 3, 1, 112
1, 8247, Control_c, 3, 1, 112
1, 8250, Control_c, 3, 1, 110
1, 8256, Note_on_c, 1, 33, 127
1, 8256, Control_c, 3, 1, 110
1, 8257, Note_on_c, 9, 38, 54
1, 8258, Note_on_c, 9, 35, 110
1, 8260, Note_on_c, 9, 35, 0
1, 8260, Note_on_c, 9, 38, 0
1, 8260, Note_on_c, 4, 45, 127
1, 8261, Control_c, 3, 1, 109
1, 8265, Control_c, 3, 1, 108
1, 8270, Control_c, 3, 1, 108
1, 8271, Note_on_c, 3, 66, 0
1, 8272, Control_c, 3, 1, 107
1, 8277, Control_c, 3, 1, 106
1, 8281, Control_c, 3, 1, 106
1, 8286, Control_c, 3, 1, 105
1, 8292, Control_c, 3, 1, 105
1, 8296, Control_c, 3, 1, 105
1, 8300, Control_c, 3, 1, 105
1, 8303, Note_on_c, 0, 57, 117
1, 8304, Note_on_c, 0, 66, 117
1, 8304, Note_on_c, 0, 62, 117
1, 8305, Note_on_c, 2, 62, 107
1, 8306, Note_on_c, 6, 62, 127
1, 8306, Note_on_c, 6, 57, 127
1, 8307, Control_c, 3, 1, 101
1, 8309, Control_c, 3, 1, 101
1, 8309, Note_on_c, 9, 38, 45
1, 8310, Note_on_c, 9, 38, 0
1, 8315, Control_c, 3, 1, 98
1, 8316, Note_on_c, 2, 62, 0
1, 8317, Note_on_c, 4, 45, 0
1, 8318, Control_c, 3, 1, 96
1, 8325, Control_c, 3, 1, 92
1, 8326, Control_c, 3, 1, 65
1, 8327, Note_on_c, 0, 57, 0
1, 8331, Note_on_c, 0, 62, 0
1, 8331, Control_c, 3, 1, 22
1, 8332, Note_on_c, 0, 66, 0
1, 8336, Control_c, 3, 1, 0
1, 8353, Note_on_c, 9, 40, 97
1, 8354, Note_on_c, 9, 40, 0
1, 8354, Note_on_c, 9, 28, 90
1, 8355, Note_on_c, 9, 28, 0
1, 8356, Note_on_c, 4, 47, 127
1, 8359, Note_on_c, 1, 33, 0
1, 8359, Note_on_c, 4, 54, 127
1, 8390, Note_on_c, 4, 47, 0
1, 8392, Note_on_c, 4, 54, 0
1, 8405, Note_on_c, 9, 38, 25
1, 8406, Note_on_c, 9, 38, 0
1, 8408, Note_on_c, 4, 50, 127
1, 8411, Note_on_c, 4, 62, 127
1, 8442, Note_on_c, 6, 62, 0
1, 8443, Note_on_c, 6, 57, 0
1, 8445, Note_on_c, 4, 62, 0
1, 8446, Note_on_c, 6, 62, 127
1, 8446, Note_on_c, 6, 57, 127
1, 8447, Note_on_c, 4, 50, 0
1, 8448, Note_on_c, 0, 66, 117
1, 8448, Note_on_c, 1, 38, 127
1, 8449, Note_on_c, 0, 62, 117
1, 8449, Note_on_c, 9, 38, 53
1, 8450, Note_on_c, 0, 57, 117
1, 8450, Note_on_c, 9, 35, 111
1, 8451, Note_on_c, 2, 62, 107
1, 8452, Note_on_c, 9, 35, 0
1, 8452, Note_on_c, 9, 38, 0
1, 8453, Note_on_c, 4, 50, 127
1, 8465, Note_on_c, 6, 57, 0
1, 8466, Note_on_c, 2, 62, 0
1, 8467, Note_on_c, 0, 57, 0
1, 8473, Note_on_c, 0, 62, 0
1, 8476, Note_on_c, 6, 62, 0
1, 8476, Note_on_c, 0, 66, 0
1, 8492, Note_on_c, 4, 50, 0
1, 8500, Note_on_c, 9, 38, 42
1, 8502, Note_on_c, 9, 38, 0
1, 8503, Note_on_c, 4, 47, 127
1, 8505, Note_on_c, 4, 62, 127
1, 8536, Note_on_c, 4, 47, 0
1, 8540, Note_on_c, 4, 62, 0
1, 8545, Note_on_c, 9, 40, 97
1, 8546, Note_on_c, 9, 40, 0
1, 8546, Note_on_c, 9, 28, 91
1, 8547, Note_on_c, 9, 28, 0
1, 8548, Note_on_c, 4, 47, 127
1, 8551, Note_on_c, 1, 38, 0
1, 8551, Note_on_c, 4, 54, 127
1, 8591, Note_on_c, 0, 66, 117
1, 8592, Note_on_c, 0, 62, 117
1, 8592, Note_on_c, 0, 57, 117
1, 8592, Note_on_c, 1, 38, 116
1, 8592, Note_on_c, 9, 35, 68
1, 8593, Note_on_c, 2, 62, 107
1, 8594, Note_on_c, 9, 35, 0
1, 8594, Note_on_c, 6, 57, 127
1, 8595, Note_on_c, 6, 62, 127
1, 8596, Note_on_c, 4, 47, 0
1, 8597, Note_on_c, 4, 54, 0
1, 8597, Note_on_c, 9, 38, 27
1, 8598, Note_on_c, 9, 38, 0
1, 8605, Note_on_c, 1, 38, 0
1, 8610, Note_on_c, 0, 57, 0
1, 8612, Note_on_c, 6, 57, 0
1, 8617, Note_on_c, 0, 62, 0
1, 8618, Note_on_c, 2, 62, 0
1, 8619, Note_on_c, 6, 62, 0
1, 8619, Note_on_c, 0, 66, 0
1, 8640, Note_on_c, 1, 33, 127
1, 8641, Note_on_c, 9, 38, 52
1, 8641, Note_on_c, 9, 35, 110
1, 8643, Note_on_c, 9, 35, 0
1, 8643, Note_on_c, 9, 38, 0
1, 8643, Note_on_c, 4, 45, 127
1, 8686, Note_on_c, 2, 62, 107
1, 8687, Note_on_c, 6, 57, 127
1, 8688, Note_on_c, 6, 62, 127
1, 8689, Note_on_c, 4, 45, 0
1, 8689, Note_on_c, 1, 33, 0
1, 8693, Note_on_c, 9, 38, 47
1, 8694, Note_on_c, 9, 38, 0
1, 8708, Note_on_c, 2, 62, 0
1, 8735, Note_on_c, 0, 66, 117
1, 8735, Note_on_c, 0, 62, 117
1, 8735, Note_on_c, 1, 38, 127
1, 8736, Note_on_c, 0, 57, 117
1, 8737, Note_on_c, 9, 40, 96
1, 8738, Note_on_c, 9, 40, 0
1, 8738, Note_on_c, 9, 28, 92
1, 8739, Note_on_c, 9, 28, 0
1, 8740, Note_on_c, 4, 42, 127
1, 8758, Note_on_c, 0, 57, 0
1, 8760, Note_on_c, 9, 38, 49
1, 8762, Note_on_c, 9, 38, 0
1, 8763, Note_on_c, 0, 62, 0
1, 8771, Note_on_c, 0, 66, 0
1, 8781, Note_on_c, 1, 38, 0
1, 8786, Note_on_c, 3, 69, 122
1, 8789, Note_on_c, 4, 42, 0
1, 8789, Note_on_c, 9, 38, 53
1, 8790, Note_on_c, 9, 38, 0
1, 8809, Note_on_c, 9, 38, 63
1, 8810, Note_on_c, 9, 38, 0
1, 8819, Note_on_c, 3, 69, 0
1, 8826, Note_on_c, 6, 62, 0
1, 8829, Note_on_c, 6, 57, 0
1, 8832, Note_on_c, 1, 45, 123
1, 8832, Note_on_c, 6, 52, 90
1, 8832, Note_on_c, 6, 57, 98
1, 8833, Note_on_c, 3, 67, 122
1, 8833, Note_on_c, 9, 38, 43
1, 8834, Note_on_c, 4, 45, 127
1, 8834, Note_on_c, 9, 35, 111
1, 8836, Note_on_c, 9, 35, 0
1, 8836, Note_on_c, 9, 38, 0
1, 8876, Note_on_c, 3, 67, 0
1, 8877, Note_on_c, 6, 57, 0
1, 8878, Note_on_c, 6, 52, 0
1, 8880, Note_on_c, 3, 67, 113
1, 8880, Note_on_c, 6, 57, 60
1, 8881, Note_on_c, 6, 52, 65
1, 8882, Note_on_c, 4, 45, 0
1, 8884, Note_on_c, 9, 38, 45
1, 8885, Note_on_c, 9, 38, 0
1, 8926, Note_on_c, 6, 49, 127
1, 8927, Note_on_c, 6, 52, 0
1, 8927, Note_on_c, 6, 52, 115
1, 8928, Note_on_c, 6, 57, 0
1, 8928, Note_on_c, 6, 57, 127
1, 8928, Note_on_c, 9, 40, 98
1, 8929, Note_on_c, 9, 28, 94
1, 8930, Note_on_c, 9, 40, 0
1, 8930, Note_on_c, 0, 61, 117
1, 8931, Note_on_c, 9, 28, 0
1, 8931, Note_on_c, 0, 64, 117
1, 8932, Note_on_c, 0, 67, 107
1, 8933, Note_on_c, 0, 57, 117
1, 8934, Note_on_c, 4, 42, 127
1, 8936, Note_on_c, 4, 49, 127
1, 8937, Note_on_c, 6, 52, 0
1, 8937, Note_on_c, 6, 49, 0
1, 8938, Note_on_c, 1, 45, 0
1, 8941, Note_on_c, 6, 57, 0
1, 8952, Note_on_c, 0, 57, 0
1, 8957, Note_on_c, 0, 67, 0
1, 8963, Note_on_c, 0, 64, 0
1, 8965, Note_on_c, 0, 61, 0
1, 8965, Note_on_c, 3, 67, 0
1, 8976, Note_on_c, 6, 57, 73
1, 8977, Note_on_c, 6, 52, 65
1, 8981, Note_on_c, 4, 49, 0
1, 8981, Note_on_c, 4, 42, 0
1, 8981, Note_on_c, 9, 38, 25
1, 8982, Note_on_c, 9, 38, 0
1, 9021, Note_on_c, 6, 57, 0
1, 9022, Note_on_c, 6, 52, 0
1, 9022, Note_on_c, 6, 52, 103
1, 9023, Note_on_c, 6, 57, 98
1, 9024, Note_on_c, 1, 42, 111
1, 9024, Note_on_c, 3, 67, 120
1, 9025, Note_on_c, 9, 38, 54
1, 9026, Note_on_c, 9, 35, 110
1, 9028, Note_on_c, 9, 35, 0
1, 9028, Note_on_c, 9, 38, 0
1, 9028, Note_on_c, 4, 40, 127
1, 9068, Note_on_c, 6, 57, 0
1, 9069, Note_on_c, 6, 52, 0
1, 9070, Note_on_c, 3, 67, 0
1, 9072, Note_on_c, 0, 61, 117
1, 9072, Note_on_c, 0, 67, 96
1, 9072, Note_on_c, 0, 64, 116
1, 9073, Note_on_c, 0, 57, 117
1, 9073, Note_on_c, 6, 57, 73
1, 9074, Note_on_c, 6, 52, 65
1, 9076, Note_on_c, 1, 42, 0
1, 9077, Note_on_c, 9, 38, 45
1, 9078, Note_on_c, 9, 38, 0
1, 9085, Note_on_c, 4, 40, 0
1, 9095, Note_on_c, 0, 57, 0
1, 9097, Note_on_c, 0, 64, 0
1, 9099, Note_on_c, 0, 67, 0
1, 9104, Note_on_c, 0, 61, 0
1, 9118, Note_on_c, 3, 69, 119
1, 9119, Note_on_c, 6, 52, 0
1, 9119, Note_on_c, 6, 49, 127
1, 9119, Note_on_c, 6, 52, 127
1, 9120, Note_on_c, 6, 57, 0
1, 9120, Note_on_c, 1, 40, 123
1, 9120, Note_on_c, 6, 57, 127
1, 9121, Note_on_c, 9, 40, 97
1, 9122, Note_on_c, 9, 40, 0
1, 9122, Note_on_c, 9, 28, 90
1, 9123, Note_on_c, 9, 28, 0
1, 9123, Note_on_c, 4, 42, 127
1, 9128, Note_on_c, 6, 57, 0
1, 9128, Note_on_c, 6, 52, 0
1, 9128, Note_on_c, 6, 49, 0
1, 9128, Note_on_c, 4, 49, 127
1, 9158, Note_on_c, 4, 42, 0
1, 9160, Note_on_c, 4, 49, 0
1, 9161, Pitch_bend_c, 3, 8160
1, 9163, Note_on_c, 3, 69, 0
1, 9163, Pitch_bend_c, 3, 8000
1, 9165, Pitch_bend_c, 3, 5020
1, 9168, Note_on_c, 6, 57, 73
1, 9169, Note_on_c, 6, 52, 65
1, 9170, Note_on_c, 3, 71, 126
1, 9172, Note_on_c, 1, 40, 0
1, 9172, Note_on_c, 9, 38, 25
1, 9173, Pitch_bend_c, 3, 5135
1, 9174, Note_on_c, 9, 38, 0
1, 9176, Pitch_bend_c, 3, 5285
1, 9177, Note_on_c, 4, 45, 127
1, 9179, Note_on_c, 4, 57, 127
1, 9204, Pitch_bend_c, 3, 5549
1, 9210, Pitch_bend_c, 3, 5813
1, 9213, Note_on_c, 4, 57, 0
1, 9214, Note_on_c, 6, 52, 0
1, 9214, Note_on_c, 6, 52, 90
1, 9215, Note_on_c, 6, 57, 0
1, 9215, Note_on_c, 6, 57, 98
1, 9216, Note_on_c, 4, 45, 0
1, 9216, Note_on_c, 1, 33, 119
1, 9217, Pitch_bend_c, 3, 6077
1, 9217, Note_on_c, 9, 38, 53
1, 9218, Note_on_c, 0, 61, 117
1, 9218, Note_on_c, 9, 35, 111
1, 9219, Note_on_c, 0, 64, 113
1, 9220, Note_on_c, 9, 35, 0
1, 9220, Note_on_c, 9, 38, 0
1, 9220, Note_on_c, 0, 57, 117
1, 9221, Note_on_c, 0, 67, 107
1, 9223, Pitch_bend_c, 3, 6342
1, 9224, Note_on_c, 4, 45, 127
1, 9225, Pitch_bend_c, 3, 6720
1, 9227, Pitch_bend_c, 3, 7104
1, 9230, Pitch_bend_c, 3, 7872
1, 9234, Pitch_bend_c, 3, 8064
1, 9245, Note_on_c, 0, 64, 0
1, 9248, Note_on_c, 0, 67, 0
1, 9250, Note_on_c, 0, 57, 0
1, 9254, Note_on_c, 0, 61, 0
1, 9259, Note_on_c, 6, 57, 0
1, 9260, Note_on_c, 6, 52, 0
1, 9260, Note_on_c, 4, 45, 0
1, 9263, Pitch_bend_c, 3, 8192
1, 9264, Note_on_c, 6, 57, 60
1, 9265, Note_on_c, 6, 52, 65
1, 9269, Note_on_c, 9, 38, 42
1, 9270, Note_on_c, 9, 38, 0
1, 9270, Note_on_c, 4, 42, 127
1, 9273, Note_on_c, 4, 57, 127
1, 9289, Note_on_c, 3, 71, 0
1, 9304, Note_on_c, 4, 42, 0
1, 9307, Note_on_c, 4, 57, 0
1, 9310, Note_on_c, 6, 49, 127
1, 9311, Note_on_c, 6, 57, 0
1, 9311, Note_on_c, 6, 52, 0
1, 9311, Note_on_c, 6, 52, 115
1, 9311, Note_on_c, 6, 57, 127
1, 9313, Note_on_c, 3, 71, 108
1, 9313, Note_on_c, 9, 40, 97
1, 9313, Note_on_c, 9, 28, 91
1, 9314, Note_on_c, 9, 40, 0
1, 9315, Note_on_c, 9, 28, 0
1, 9315, Note_on_c, 4, 42, 127
1, 9319, Note_on_c, 4, 49, 127
1, 9320, Note_on_c, 6, 49, 0
1, 9321, Note_on_c, 1, 33, 0
1, 9321, Note_on_c, 6, 52, 0
1, 9325, Note_on_c, 6, 57, 0
1, 9344, Note_on_c, 3, 71, 0
1, 9358, Note_on_c, 0, 61, 117
1, 9359, Note_on_c, 0, 67, 104
1, 9359, Note_on_c, 1, 33, 109
1, 9360, Note_on_c, 0, 57, 117
1, 9361, Note_on_c, 0, 64, 117
1, 9361, Note_on_c, 9, 35, 68
1, 9362, Note_on_c, 9, 35, 0
1, 9362, Note_on_c, 6, 57, 73
1, 9363, Note_on_c, 6, 52, 65
1, 9364, Note_on_c, 4, 42, 0
1, 9365, Note_on_c, 3, 69, 127
1, 9365, Note_on_c, 9, 38, 27
1, 9366, Note_on_c, 9, 38, 0
1, 9366, Note_on_c, 4, 49, 0
1, 9375, Note_on_c, 1, 33, 0
1, 9385, Note_on_c, 0, 57, 0
1, 9386, Note_on_c, 0, 64, 0
1, 9392, Note_on_c, 0, 67, 0
1, 9392, Note_on_c, 0, 61, 0
1, 9405, Note_on_c, 6, 57, 0
1, 9406, Note_on_c, 6, 52, 0
1, 9406, Note_on_c, 6, 52, 103
1, 9406, Note_on_c, 6, 57, 98
1, 9407, Note_on_c, 1, 40, 124
1, 9409, Note_on_c, 9, 38, 52
1, 9409, Note_on_c, 9, 35, 110
1, 9411, Note_on_c, 9, 35, 0
1, 9411, Note_on_c, 9, 38, 0
1, 9411, Note_on_c, 4, 43, 127
1, 9425, Pitch_bend_c, 3, 8128
1, 9429, Pitch_bend_c, 3, 8064
1, 9431, Pitch_bend_c, 3, 7808
1, 9435, Pitch_bend_c, 3, 7680
1, 9441, Pitch_bend_c, 3, 7168
1, 9444, Pitch_bend_c, 3, 6848
1, 9450, Pitch_bend_c, 3, 6752
1, 9451, Note_on_c, 6, 57, 0
1, 9452, Note_on_c, 6, 52, 0
1, 9453, Pitch_bend_c, 3, 6496
1, 9455, Note_on_c, 6, 57, 73
1, 9456, Note_on_c, 6, 52, 65
1, 9457, Note_on_c, 4, 43, 0
1, 9458, Pitch_bend_c, 3, 6112
1, 9461, Note_on_c, 9, 38, 47
1, 9462, Note_on_c, 9, 38, 0
1, 9465, Pitch_bend_c, 3, 5536
1, 9466, Pitch_bend_c, 3, 5248
1, 9476, Pitch_bend_c, 3, 3936
1, 9480, Pitch_bend_c, 3, 3680
1, 9486, Pitch_bend_c, 3, 3616
1, 9488, Pitch_bend_c, 3, 3680
1, 9490, Pitch_bend_c, 3, 3808
1, 9495, Pitch_bend_c, 3, 3840
1, 9498, Note_on_c, 3, 69, 0
1, 9498, Pitch_bend_c, 3, 4032
1, 9503, Note_on_c, 6, 49, 127
1, 9504, Note_on_c, 6, 52, 0
1, 9504, Note_on_c, 6, 57, 0
1, 9504, Pitch_bend_c, 3, 4064
1, 9504, Note_on_c, 6, 52, 127
1, 9504, Note_on_c, 6, 57, 127
1, 9504, Note_on_c, 9, 40, 96
1, 9505, Note_on_c, 0, 61, 117
1, 9506, Note_on_c, 9, 40, 0
1, 9506, Note_on_c, 0, 67, 113
1, 9506, Note_on_c, 9, 28, 92
1, 9507, Note_on_c, 9, 28, 0
1, 9507, Note_on_c, 0, 64, 117
1, 9508, Note_on_c, 0, 57, 117
1, 9510, Note_on_c, 4, 42, 127
1, 9511, Pitch_bend_c, 3, 4704
1, 9512, Note_on_c, 4, 49, 127
1, 9513, Note_on_c, 1, 40, 0
1, 9513, Note_on_c, 6, 49, 0
1, 9513, Note_on_c, 6, 52, 0
1, 9514, Note_on_c, 6, 57, 0
1, 9515, Pitch_bend_c, 3, 6720
1, 9518, Pitch_bend_c, 3, 7584
1, 9520, Pitch_bend_c, 3, 8192
1, 9532, Note_on_c, 0, 57, 0
1, 9533, Note_on_c, 0, 64, 0
1, 9534, Note_on_c, 0, 67, 0
1, 9537, Note_on_c, 0, 61, 0
1, 9552, Note_on_c, 6, 57, 73
1, 9552, Note_on_c, 6, 52, 65
1, 9553, Note_on_c, 3, 69, 102
1, 9557, Note_on_c, 4, 42, 0
1, 9557, Note_on_c, 9, 38, 23
1, 9558, Note_on_c, 9, 38, 0
1, 9559, Note_on_c, 4, 49, 0
1, 9579, Note_on_c, 3, 69, 0
1, 9598, Note_on_c, 6, 57, 0
1, 9598, Note_on_c, 6, 52, 0
1, 9598, Note_on_c, 6, 52, 90
1, 9598, Note_on_c, 6, 57, 98
1, 9600, Note_on_c, 1, 33, 121
1, 9601, Note_on_c, 3, 67, 127
1, 9601, Note_on_c, 9, 38, 43
1, 9602, Note_on_c, 9, 35, 111
1, 9603, Note_on_c, 4, 45, 127
1, 9604, Note_on_c, 9, 35, 0
1, 9604, Note_on_c, 9, 38, 0
1, 9641, Note_on_c, 3, 67, 0
1, 9644, Note_on_c, 6, 57, 0
1, 9644, Note_on_c, 6, 52, 0
1, 9648, Note_on_c, 6, 57, 60
1, 9649, Note_on_c, 4, 45, 0
1, 9649, Note_on_c, 6, 52, 65
1, 9650, Note_on_c, 3, 67, 122
1, 9652, Note_on_c, 9, 38, 45
1, 9654, Note_on_c, 9, 38, 0
1, 9694, Note_on_c, 6, 49, 127
1, 9695, Note_on_c, 6, 52, 0
1, 9695, Note_on_c, 6, 52, 115
1, 9696, Note_on_c, 6, 57, 0
1, 9696, Note_on_c, 6, 57, 127
1, 9696, Note_on_c, 9, 40, 98
1, 9697, Note_on_c, 9, 28, 94
1, 9698, Note_on_c, 9, 40, 0
1, 9698, Note_on_c, 0, 61, 117
1, 9699, Note_on_c, 9, 28, 0
1, 9699, Note_on_c, 0, 57, 117
1, 9700, Note_on_c, 0, 64, 117
1, 9701, Note_on_c, 0, 67, 110
1, 9702, Note_on_c, 4, 42, 127
1, 9704, Note_on_c, 6, 49, 0
1, 9704, Note_on_c, 4, 49, 127
1, 9706, Note_on_c, 6, 52, 0
1, 9706, Note_on_c, 1, 33, 0
1, 9709, Note_on_c, 6, 57, 0
1, 9726, Note_on_c, 0, 64, 0
1, 9729, Note_on_c, 0, 67, 0
1, 9730, Note_on_c, 0, 57, 0
1, 9732, Note_on_c, 0, 61, 0
1, 9744, Note_on_c, 6, 57, 73
1, 9744, Note_on_c, 6, 52, 65
1, 9749, Note_on_c, 4, 49, 0
1, 9749, Note_on_c, 9, 38, 25
1, 9750, Note_on_c, 9, 38, 0
1, 9750, Note_on_c, 4, 42, 0
1, 9754, Note_on_c, 3, 67, 0
1, 9789, Note_on_c, 6, 57, 0
1, 9790, Note_on_c, 6, 52, 0
1, 9790, Note_on_c, 6, 52, 103
1, 9791, Note_on_c, 6, 57, 98
1, 9792, Note_on_c, 1, 40, 110
1, 9793, Note_on_c, 3, 67, 122
1, 9793, Note_on_c, 9, 38, 54
1, 9793, Note_on_c, 9, 35, 110
1, 9795, Note_on_c, 9, 35, 0
1, 9795, Note_on_c, 9, 38, 0
1, 9795, Note_on_c, 4, 40, 127
1, 9836, Note_on_c, 6, 52, 0
1, 9836, Note_on_c, 6, 57, 0
1, 9840, Note_on_c, 0, 61, 117
1, 9840, Note_on_c, 0, 67, 107
1, 9840, Note_on_c, 0, 64, 117
1, 9841, Note_on_c, 0, 57, 117
1, 9841, Note_on_c, 6, 57, 73
1, 9842, Note_on_c, 6, 52, 65
1, 9844, Note_on_c, 9, 38, 45
1, 9847, Note_on_c, 9, 38, 0
1, 9853, Note_on_c, 4, 40, 0
1, 9858, Note_on_c, 3, 67, 0
1, 9868, Note_on_c, 0, 57, 0
1, 9869, Note_on_c, 0, 64, 0
1, 9873, Note_on_c, 0, 61, 0
1, 9873, Note_on_c, 0, 67, 0
1, 9887, Note_on_c, 6, 52, 0
1, 9887, Note_on_c, 6, 49, 127
1, 9887, Note_on_c, 6, 52, 127
1, 9888, Note_on_c, 6, 57, 0
1, 9888, Note_on_c, 6, 57, 127
1, 9888, Note_on_c, 9, 40, 97
1, 9890, Note_on_c, 9, 40, 0
1, 9890, Note_on_c, 9, 28, 90
1, 9891, Note_on_c, 9, 28, 0
1, 9891, Note_on_c, 3, 69, 114
1, 9892, Note_on_c, 4, 42, 127
1, 9895, Note_on_c, 4, 49, 127
1, 9896, Note_on_c, 6, 57, 0
1, 9896, Note_on_c, 6, 52, 0
1, 9896, Note_on_c, 6, 49, 0
1, 9899, Note_on_c, 1, 40, 0
1, 9916, Note_on_c, 3, 69, 0
1, 9926, Note_on_c, 4, 42, 0
1, 9928, Note_on_c, 4, 49, 0
1, 9935, Pitch_bend_c, 3, 4492
1, 9936, Note_on_c, 6, 57, 73
1, 9936, Note_on_c, 6, 52, 65
1, 9937, Note_on_c, 3, 71, 127
1, 9941, Note_on_c, 9, 38, 25
1, 9942, Note_on_c, 9, 38, 0
1, 9944, Note_on_c, 4, 45, 127
1, 9946, Note_on_c, 4, 57, 127
1, 9961, Pitch_bend_c, 3, 4756
1, 9969, Pitch_bend_c, 3, 5285
1, 9975, Pitch_bend_c, 3, 5549
1, 9976, Pitch_bend_c, 3, 6077
1, 9981, Note_on_c, 4, 57, 0
1, 9982, Pitch_bend_c, 3, 7296
1, 9983, Note_on_c, 6, 52, 0
1, 9983, Note_on_c, 6, 52, 90
1, 9984, Note_on_c, 6, 57, 0
1, 9984, Note_on_c, 1, 45, 124
1, 9984, Note_on_c, 6, 57, 98
1, 9985, Note_on_c, 4, 45, 0
1, 9985, Note_on_c, 9, 38, 53
1, 9986, Note_on_c, 0, 61, 117
1, 9986, Note_on_c, 9, 35, 111
1, 9987, Note_on_c, 0, 57, 117
1, 9988, Note_on_c, 9, 35, 0
1, 9988, Note_on_c, 9, 38, 0
1, 9988, Note_on_c, 0, 64, 117
1, 9989, Note_on_c, 0, 67, 110
1, 9991, Pitch_bend_c, 3, 7808
1, 9992, Pitch_bend_c, 3, 8128
1, 9993, Pitch_bend_c, 3, 8192
1, 9994, Note_on_c, 4, 45, 127
1, 10016, Note_on_c, 0, 67, 0
1, 10016, Note_on_c, 0, 64, 0
1, 10018, Note_on_c, 0, 57, 0
1, 10020, Note_on_c, 0, 61, 0
1, 10028, Note_on_c, 6, 52, 0
1, 10028, Note_on_c, 6, 57, 0
1, 10028, Note_on_c, 4, 45, 0
1, 10032, Note_on_c, 6, 57, 60
1, 10032, Note_on_c, 6, 52, 65
1, 10033, Note_on_c, 3, 71, 0
1, 10036, Note_on_c, 9, 38, 42
1, 10037, Note_on_c, 9, 38, 0
1, 10038, Note_on_c, 4, 42, 127
1, 10042, Note_on_c, 4, 57, 127
1, 10072, Note_on_c, 4, 42, 0
1, 10076, Note_on_c, 4, 57, 0
1, 10078, Note_on_c, 6, 52, 0
1, 10078, Note_on_c, 6, 49, 127
1, 10078, Note_on_c, 6, 52, 115
1, 10079, Note_on_c, 6, 57, 0
1, 10079, Note_on_c, 6, 57, 127
1, 10081, Note_on_c, 3, 71, 124
1, 10081, Note_on_c, 9, 40, 97
1, 10081, Note_on_c, 9, 28, 91
1, 10082, Note_on_c, 9, 40, 0
1, 10083, Note_on_c, 9, 28, 0
1, 10083, Note_on_c, 4, 42, 127
1, 10088, Note_on_c, 6, 49, 0
1, 10088, Note_on_c, 4, 49, 127
1, 10089, Note_on_c, 1, 45, 0
1, 10090, Note_on_c, 6, 52, 0
1, 10093, Note_on_c, 6, 57, 0
1, 10126, Note_on_c, 0, 61, 117
1, 10127, Note_on_c, 0, 67, 113
1, 10127, Note_on_c, 1, 45, 112
1, 10128, Note_on_c, 0, 57, 117
1, 10129, Note_on_c, 0, 64, 113
1, 10129, Note_on_c, 9, 35, 68
1, 10130, Note_on_c, 9, 35, 0
1, 10130, Note_on_c, 6, 57, 73
1, 10131, Note_on_c, 6, 52, 65
1, 10132, Note_on_c, 4, 42, 0
1, 10133, Note_on_c, 4, 49, 0
1, 10133, Note_on_c, 9, 38, 27
1, 10134, Note_on_c, 9, 38, 0
1, 10134, Note_on_c, 3, 71, 0
1, 10144, Note_on_c, 1, 45, 0
1, 10152, Note_on_c, 0, 64, 0
1, 10156, Note_on_c, 0, 67, 0
1, 10162, Note_on_c, 0, 61, 0
1, 10162, Note_on_c, 0, 57, 0
1, 10173, Note_on_c, 6, 52, 0
1, 10173, Note_on_c, 6, 57, 0
1, 10173, Note_on_c, 6, 52, 103
1, 10174, Note_on_c, 6, 57, 98
1, 10175, Note_on_c, 1, 40, 112
1, 10175, Note_on_c, 3, 69, 119
1, 10177, Note_on_c, 9, 38, 52
1, 10178, Note_on_c, 9, 35, 110
1, 10179, Note_on_c, 9, 35, 0
1, 10179, Note_on_c, 4, 43, 127
1, 10180, Note_on_c, 9, 38, 0
1, 10219, Note_on_c, 6, 57, 0
1, 10219, Pitch_bend_c, 3, 8000
1, 10220, Note_on_c, 6, 52, 0
1, 10223, Pitch_bend_c, 3, 7392
1, 10224, Note_on_c, 6, 57, 73
1, 10224, Note_on_c, 6, 52, 65
1, 10225, Note_on_c, 4, 43, 0
1, 10226, Pitch_bend_c, 3, 6976
1, 10229, Pitch_bend_c, 3, 6592
1, 10229, Note_on_c, 9, 38, 47
1, 10230, Note_on_c, 9, 38, 0
1, 10232, Pitch_bend_c, 3, 5728
1, 10237, Pitch_bend_c, 3, 5280
1, 10240, Note_on_c, 1, 40, 0
1, 10240, Pitch_bend_c, 3, 4544
1, 10244, Pitch_bend_c, 3, 4288
1, 10248, Pitch_bend_c, 3, 4096
1, 10252, Note_on_c, 3, 69, 0
1, 10252, Pitch_bend_c, 3, 4192
1, 10254, Pitch_bend_c, 3, 4448
1, 10256, Pitch_bend_c, 3, 5792
1, 10261, Pitch_bend_c, 3, 6752
1, 10263, Pitch_bend_c, 3, 8064
1, 10268, Pitch_bend_c, 3, 8192
1, 10270, Note_on_c, 6, 49, 127
1, 10271, Note_on_c, 6, 57, 0
1, 10271, Note_on_c, 6, 52, 0
1, 10271, Note_on_c, 6, 52, 127
1, 10271, Note_on_c, 6, 57, 127
1, 10272, Note_on_c, 1, 39, 112
1, 10273, Note_on_c, 0, 67, 114
1, 10273, Note_on_c, 9, 40, 96
1, 10274, Note_on_c, 9, 40, 0
1, 10274, Note_on_c, 0, 61, 117
1, 10274, Note_on_c, 9, 28, 92
1, 10275, Note_on_c, 9, 28, 0
1, 10275, Note_on_c, 0, 64, 117
1, 10276, Note_on_c, 0, 57, 117
1, 10278, Note_on_c, 3, 67, 127
1, 10279, Note_on_c, 4, 42, 127
1, 10280, Note_on_c, 4, 49, 127
1, 10281, Note_on_c, 6, 49, 0
1, 10282, Note_on_c, 6, 52, 0
1, 10283, Note_on_c, 6, 57, 0
1, 10310, Note_on_c, 0, 57, 0
1, 10310, Note_on_c, 0, 64, 0
1, 10313, Note_on_c, 0, 61, 0
1, 10314, Note_on_c, 0, 67, 0
1, 10320, Note_on_c, 6, 57, 73
1, 10320, Note_on_c, 6, 52, 65
1, 10322, Note_on_c, 3, 67, 0
1, 10325, Note_on_c, 4, 42, 0
1, 10325, Note_on_c, 9, 38, 23
1, 10326, Note_on_c, 9, 38, 0
1, 10327, Note_on_c, 4, 49, 0
1, 10336, Note_on_c, 1, 39, 0
1, 10366, Note_on_c, 6, 57, 0
1, 10368, Note_on_c, 6, 52, 0
1, 10368, Note_on_c, 1, 38, 127
1, 10368, Note_on_c, 9, 38, 43
1, 10369, Note_on_c, 3, 66, 127
1, 10369, Note_on_c, 9, 35, 111
1, 10370, Note_on_c, 4, 50, 127
1, 10371, Note_on_c, 9, 35, 0
1, 10372, Note_on_c, 9, 38, 0
1, 10416, Note_on_c, 4, 50, 0
1, 10421, Note_on_c, 9, 38, 45
1, 10422, Note_on_c, 9, 38, 0
1, 10452, Note_on_c, 3, 66, 0
1, 10462, Note_on_c, 6, 59, 127
1, 10463, Note_on_c, 0, 62, 117
1, 10463, Note_on_c, 6, 62, 127
1, 10464, Note_on_c, 0, 57, 117
1, 10465, Note_on_c, 0, 66, 117
1, 10465, Note_on_c, 3, 69, 117
1, 10465, Note_on_c, 9, 40, 98
1, 10466, Note_on_c, 9, 40, 0
1, 10466, Note_on_c, 9, 28, 94
1, 10467, Note_on_c, 9, 28, 0
1, 10467, Note_on_c, 4, 47, 127
1, 10471, Note_on_c, 1, 38, 0
1, 10471, Note_on_c, 4, 54, 127
1, 10486, Note_on_c, 3, 69, 0
1, 10487, Note_on_c, 0, 66, 0
1, 10489, Note_on_c, 0, 57, 0
1, 10490, Note_on_c, 0, 62, 0
1, 10495, Note_on_c, 6, 62, 0
1, 10495, Note_on_c, 6, 59, 0
1, 10514, Note_on_c, 3, 69, 127
1, 10517, Note_on_c, 4, 54, 0
1, 10517, Note_on_c, 9, 38, 25
1, 10518, Note_on_c, 4, 47, 0
1, 10519, Note_on_c, 9, 38, 0
1, 10560, Note_on_c, 1, 33, 127
1, 10561, Note_on_c, 9, 38, 54
1, 10562, Note_on_c, 9, 35, 110
1, 10563, Note_on_c, 9, 35, 0
1, 10563, Note_on_c, 4, 45, 127
1, 10564, Note_on_c, 9, 38, 0
1, 10586, Control_c, 3, 1, 7
1, 10593, Control_c, 3, 1, 10
1, 10595, Control_c, 3, 1, 12
1, 10605, Control_c, 3, 1, 14
1, 10606, Note_on_c, 0, 62, 117
1, 10607, Note_on_c, 0, 57, 117
1, 10608, Note_on_c, 0, 66, 117
1, 10609, Note_on_c, 6, 62, 127
1, 10610, Note_on_c, 6, 57, 127
1, 10611, Control_c, 3, 1, 17
1, 10612, Note_on_c, 9, 38, 45
1, 10614, Note_on_c, 9, 38, 0
1, 10615, Control_c, 3, 1, 24
1, 10618, Control_c, 3, 1, 34
1, 10621, Note_on_c, 4, 45, 0
1, 10625, Control_c, 3, 1, 39
1, 10626, Control_c, 3, 1, 52
1, 10630, Control_c, 3, 1, 71
1, 10635, Note_on_c, 0, 57, 0
1, 10637, Control_c, 3, 1, 96
1, 10640, Note_on_c, 0, 66, 0
1, 10641, Control_c, 3, 1, 119
1, 10643, Note_on_c, 0, 62, 0
1, 10646, Control_c, 3, 1, 127
1, 10655, Note_on_c, 6, 57, 0
1, 10655, Note_on_c, 6, 57, 127
1, 10656, Note_on_c, 6, 62, 0
1, 10656, Note_on_c, 6, 62, 127
1, 10657, Note_on_c, 9, 40, 97
1, 10658, Note_on_c, 9, 40, 0
1, 10658, Note_on_c, 9, 28, 90
1, 10659, Note_on_c, 9, 28, 0
1, 10660, Note_on_c, 4, 47, 127
1, 10662, Note_on_c, 4, 54, 127
1, 10665, Note_on_c, 1, 33, 0
1, 10672, Note_on_c, 6, 62, 0
1, 10672, Note_on_c, 6, 57, 0
1, 10683, Note_on_c, 3, 69, 0
1, 10689, Control_c, 3, 1, 90
1, 10693, Control_c, 3, 1, 34
1, 10694, Note_on_c, 4, 47, 0
1, 10695, Note_on_c, 4, 54, 0
1, 10699, Control_c, 3, 1, 2
1, 10703, Control_c, 3, 1, 0
1, 10704, Note_on_c, 6, 57, 110
1, 10705, Note_on_c, 6, 62, 103
1, 10709, Note_on_c, 9, 38, 25
1, 10710, Note_on_c, 9, 38, 0
1, 10713, Note_on_c, 4, 50, 127
1, 10714, Note_on_c, 4, 62, 127
1, 10749, Note_on_c, 4, 62, 0
1, 10750, Note_on_c, 6, 57, 0
1, 10750, Note_on_c, 6, 57, 127
1, 10751, Note_on_c, 6, 62, 0
1, 10751, Note_on_c, 6, 62, 127
1, 10752, Note_on_c, 4, 50, 0
1, 10752, Note_on_c, 1, 38, 127
1, 10753, Note_on_c, 0, 66, 117
1, 10753, Note_on_c, 9, 38, 53
1, 10754, Note_on_c, 0, 57, 117
1, 10754, Note_on_c, 9, 35, 111
1, 10755, Note_on_c, 9, 35, 0
1, 10755, Note_on_c, 0, 62, 117
1, 10756, Note_on_c, 9, 38, 0
1, 10756, Note_on_c, 4, 50, 127
1, 10775, Note_on_c, 0, 57, 0
1, 10781, Note_on_c, 0, 62, 0
1, 10783, Note_on_c, 0, 66, 0
1, 10796, Note_on_c, 4, 50, 0
1, 10805, Note_on_c, 9, 38, 42
1, 10806, Note_on_c, 9, 38, 0
1, 10806, Note_on_c, 4, 47, 127
1, 10809, Note_on_c, 4, 62, 127
1, 10839, Note_on_c, 4, 47, 0
1, 10843, Note_on_c, 4, 62, 0
1, 10849, Note_on_c, 9, 40, 97
1, 10849, Note_on_c, 9, 28, 91
1, 10850, Note_on_c, 9, 40, 0
1, 10851, Note_on_c, 9, 28, 0
1, 10852, Note_on_c, 4, 47, 127
1, 10853, Note_on_c, 6, 62, 0
1, 10854, Note_on_c, 6, 57, 0
1, 10856, Note_on_c, 4, 54, 127
1, 10857, Note_on_c, 1, 38, 0
1, 10894, Note_on_c, 0, 66, 117
1, 10895, Note_on_c, 0, 57, 117
1, 10895, Note_on_c, 1, 38, 110
1, 10896, Note_on_c, 0, 62, 117
1, 10897, Note_on_c, 6, 57, 127
1, 10897, Note_on_c, 9, 35, 68
1, 10898, Note_on_c, 9, 35, 0
1, 10898, Note_on_c, 6, 62, 123
1, 10899, Note_on_c, 4, 47, 0
1, 10900, Note_on_c, 4, 54, 0
1, 10901, Note_on_c, 9, 38, 27
1, 10902, Note_on_c, 9, 38, 0
1, 10911, Note_on_c, 1, 38, 0
1, 10918, Note_on_c, 0, 57, 0
1, 10922, Note_on_c, 0, 66, 0
1, 10923, Note_on_c, 0, 62, 0
1, 10944, Note_on_c, 1, 33, 127
1, 10945, Note_on_c, 9, 38, 52
1, 10946, Note_on_c, 9, 35, 110
1, 10947, Note_on_c, 9, 35, 0
1, 10947, Note_on_c, 9, 38, 0
1, 10948, Note_on_c, 4, 45, 127
1, 10989, Note_on_c, 6, 57, 0
1, 10989, Note_on_c, 6, 62, 0
1, 10992, Note_on_c, 6, 57, 90
1, 10992, Note_on_c, 6, 62, 98
1, 10993, Note_on_c, 7, 62, 127
1, 10994, Note_on_c, 7, 66, 127
1, 10995, Note_on_c, 4, 45, 0
1, 10995, Note_on_c, 3, 69, 117
1, 10997, Note_on_c, 9, 38, 47
1, 10998, Note_on_c, 9, 38, 0
1, 10999, Note_on_c, 1, 33, 0
1, 11016, Note_on_c, 7, 62, 0
1, 11016, Note_on_c, 7, 66, 0
1, 11018, Note_on_c, 3, 69, 0
1, 11038, Note_on_c, 6, 62, 0
1, 11038, Note_on_c, 6, 62, 127
1, 11039, Note_on_c, 6, 57, 0
1, 11039, Note_on_c, 6, 57, 127
1, 11039, Note_on_c, 6, 54, 127
1, 11040, Note_on_c, 1, 38, 127
1, 11041, Note_on_c, 0, 57, 117
1, 11041, Note_on_c, 9, 40, 96
1, 11042, Note_on_c, 9, 40, 0
1, 11042, Note_on_c, 0, 66, 117
1, 11042, Note_on_c, 9, 28, 92
1, 11043, Note_on_c, 9, 28, 0
1, 11043, Note_on_c, 0, 62, 117
1, 11044, Note_on_c, 7, 62, 127
1, 11045, Note_on_c, 7, 66, 122
1, 11047, Note_on_c, 3, 69, 114
1, 11048, Note_on_c, 4, 47, 127
1, 11049, Note_on_c, 4, 54, 127
1, 11050, Note_on_c, 6, 57, 0
1, 11050, Note_on_c, 6, 62, 0
1, 11051, Note_on_c, 6, 54, 0
1, 11065, Note_on_c, 0, 57, 0
1, 11066, Note_on_c, 7, 62, 0
1, 11067, Note_on_c, 7, 66, 0
1, 11069, Note_on_c, 0, 62, 0
1, 11072, Note_on_c, 0, 66, 0
1, 11083, Note_on_c, 3, 69, 0
1, 11086, Note_on_c, 7, 62, 125
1, 11088, Note_on_c, 6, 62, 73
1, 11089, Note_on_c, 6, 54, 65
1, 11090, Note_on_c, 7, 66, 122
1, 11091, Note_on_c, 3, 69, 117
1, 11093, Note_on_c, 4, 47, 0
1, 11093, Note_on_c, 9, 38, 23
1, 11094, Note_on_c, 9, 38, 0
1, 11094, Note_on_c, 1, 38, 0
1, 11095, Note_on_c, 4, 54, 0
1, 11118, Note_on_c, 3, 69, 0
1, 11118, Note_on_c, 7, 66, 0
1, 11119, Note_on_c, 7, 62, 0
1, 11120, Pitch_bend_c, 7, 8160
1, 11121, Pitch_bend_c, 7, 7904
1, 11123, Pitch_bend_c, 7, 7520
1, 11125, Pitch_bend_c, 7, 6944
1, 11128, Pitch_bend_c, 7, 6368
1, 11131, Pitch_bend_c, 7, 5792
1, 11134, Note_on_c, 6, 62, 0
1, 11134, Pitch_bend_c, 7, 5376
1, 11135, Note_on_c, 7, 64, 127
1, 11136, Note_on_c, 1, 40, 126
1, 11136, Note_on_c, 6, 52, 90
1, 11136, Note_on_c, 6, 59, 98
1, 11137, Note_on_c, 7, 68, 127
1, 11137, Note_on_c, 9, 38, 43
1, 11138, Pitch_bend_c, 7, 5024
1, 11138, Note_on_c, 9, 35, 111
1, 11139, Note_on_c, 6, 54, 0
1, 11140, Note_on_c, 9, 35, 0
1, 11140, Note_on_c, 9, 38, 0
1, 11140, Pitch_bend_c, 3, 4228
1, 11141, Note_on_c, 3, 71, 126
1, 11142, Pitch_bend_c, 7, 4896
1, 11143, Note_on_c, 4, 52, 127
1, 11144, Pitch_bend_c, 7, 5024
1, 11145, Pitch_bend_c, 7, 5280
1, 11146, Pitch_bend_c, 7, 5600
1, 11151, Pitch_bend_c, 7, 6080
1, 11153, Pitch_bend_c, 7, 6592
1, 11155, Pitch_bend_c, 7, 7232
1, 11157, Pitch_bend_c, 7, 7712
1, 11158, Pitch_bend_c, 7, 8096
1, 11159, Pitch_bend_c, 3, 4576
1, 11162, Pitch_bend_c, 7, 8192
1, 11163, Pitch_bend_c, 3, 5632
1, 11169, Pitch_bend_c, 3, 7200
1, 11174, Pitch_bend_c, 3, 8128
1, 11181, Note_on_c, 6, 59, 0
1, 11181, Note_on_c, 6, 52, 0
1, 11184, Note_on_c, 6, 59, 60
1, 11185, Note_on_c, 4, 52, 0
1, 11185, Note_on_c, 6, 52, 65
1, 11189, Note_on_c, 9, 38, 45
1, 11190, Note_on_c, 9, 38, 0
1, 11191, Pitch_bend_c, 3, 8192
1, 11200, Note_on_c, 7, 68, 0
1, 11201, Note_on_c, 7, 64, 0
1, 11209, Note_on_c, 3, 71, 0
1, 11229, Note_on_c, 6, 52, 0
1, 11229, Note_on_c, 6, 52, 127
1, 11230, Note_on_c, 6, 59, 0
1, 11230, Note_on_c, 6, 59, 127
1, 11231, Note_on_c, 6, 56, 127
1, 11232, Note_on_c, 9, 40, 98
1, 11233, Note_on_c, 9, 40, 0
1, 11233, Note_on_c, 9, 28, 94
1, 11234, Note_on_c, 9, 28, 0
1, 11234, Note_on_c, 1, 40, 0
1, 11234, Note_on_c, 0, 68, 117
1, 11235, Note_on_c, 0, 64, 117
1, 11236, Note_on_c, 0, 59, 117
1, 11237, Note_on_c, 7, 64, 127
1, 11238, Note_on_c, 7, 68, 127
1, 11239, Note_on_c, 4, 49, 127
1, 11240, Note_on_c, 3, 71, 117
1, 11241, Note_on_c, 6, 52, 0
1, 11241, Note_on_c, 6, 56, 0
1, 11242, Note_on_c, 6, 59, 0
1, 11243, Note_on_c, 4, 56, 127
1, 11254, Note_on_c, 0, 59, 0
1, 11255, Note_on_c, 7, 64, 0
1, 11257, Note_on_c, 7, 68, 0
1, 11258, Note_on_c, 3, 71, 0
1, 11265, Note_on_c, 0, 64, 0
1, 11267, Note_on_c, 0, 68, 0
1, 11277, Note_on_c, 3, 71, 127
1, 11280, Note_on_c, 6, 59, 73
1, 11281, Note_on_c, 6, 52, 65
1, 11282, Note_on_c, 7, 64, 127
1, 11283, Note_on_c, 7, 68, 127
1, 11284, Note_on_c, 9, 38, 25
1, 11285, Note_on_c, 4, 56, 0
1, 11286, Note_on_c, 9, 38, 0
1, 11286, Note_on_c, 4, 49, 0
1, 11325, Note_on_c, 6, 52, 0
1, 11326, Note_on_c, 6, 59, 0
1, 11326, Note_on_c, 6, 52, 103
1, 11326, Note_on_c, 6, 59, 98
1, 11328, Note_on_c, 1, 35, 127
1, 11329, Note_on_c, 9, 38, 54
1, 11330, Note_on_c, 9, 35, 110
1, 11332, Note_on_c, 9, 35, 0
1, 11332, Note_on_c, 9, 38, 0
1, 11332, Note_on_c, 4, 47, 127
1, 11355, Control_c, 3, 1, 2
1, 11358, Control_c, 3, 1, 10
1, 11361, Control_c, 3, 1, 35
1, 11364, Control_c, 3, 1, 49
1, 11368, Control_c, 3, 1, 88
1, 11371, Note_on_c, 6, 52, 0
1, 11371, Note_on_c, 6, 59, 0
1, 11373, Pitch_bend_c, 3, 8160
1, 11374, Control_c, 3, 1, 108
1, 11375, Note_on_c, 0, 68, 117
1, 11375, Note_on_c, 0, 64, 117
1, 11376, Note_on_c, 0, 59, 117
1, 11377, Pitch_bend_c, 3, 8064
1, 11378, Note_on_c, 6, 59, 73
1, 11378, Note_on_c, 6, 52, 65
1, 11379, Pitch_bend_c, 3, 8000
1, 11380, Control_c, 3, 1, 122
1, 11381, Note_on_c, 9, 38, 45
1, 11382, Note_on_c, 9, 38, 0
1, 11382, Pitch_bend_c, 3, 7680
1, 11383, Control_c, 3, 1, 127
1, 11385, Pitch_bend_c, 3, 7424
1, 11386, Pitch_bend_c, 3, 6944
1, 11389, Note_on_c, 4, 47, 0
1, 11392, Pitch_bend_c, 3, 6560
1, 11396, Pitch_bend_c, 3, 6336
1, 11398, Pitch_bend_c, 3, 6144
1, 11399, Note_on_c, 0, 59, 0
1, 11402, Pitch_bend_c, 3, 5856
1, 11407, Pitch_bend_c, 3, 5664
1, 11409, Pitch_bend_c, 3, 5504
1, 11410, Note_on_c, 0, 64, 0
1, 11411, Pitch_bend_c, 3, 5120
1, 11411, Control_c, 3, 1, 114
1, 11412, Note_on_c, 0, 68, 0
1, 11416, Pitch_bend_c, 3, 4768
1, 11416, Control_c, 3, 1, 85
1, 11420, Control_c, 3, 1, 66
1, 11421, Note_on_c, 6, 52, 0
1, 11422, Pitch_bend_c, 3, 4672
1, 11422, Note_on_c, 6, 52, 127
1, 11423, Note_on_c, 6, 59, 0
1, 11423, Note_on_c, 6, 59, 127
1, 11424, Note_on_c, 6, 56, 127
1, 11425, Control_c, 3, 1, 24
1, 11425, Pitch_bend_c, 3, 4704
1, 11425, Note_on_c, 9, 40, 97
1, 11425, Note_on_c, 9, 28, 90
1, 11426, Note_on_c, 9, 40, 0
1, 11426, Control_c, 3, 1, 0
1, 11427, Note_on_c, 9, 28, 0
1, 11427, Note_on_c, 4, 49, 127
1, 11428, Pitch_bend_c, 3, 4896
1, 11429, Pitch_bend_c, 3, 5248
1, 11430, Note_on_c, 4, 56, 127
1, 11431, Note_on_c, 6, 52, 0
1, 11432, Note_on_c, 6, 56, 0
1, 11433, Note_on_c, 1, 35, 0
1, 11433, Note_on_c, 6, 59, 0
1, 11434, Pitch_bend_c, 3, 6496
1, 11435, Note_on_c, 3, 71, 0
1, 11439, Pitch_bend_c, 3, 7232
1, 11440, Pitch_bend_c, 3, 8160
1, 11441, Note_on_c, 7, 68, 0
1, 11442, Note_on_c, 7, 64, 0
1, 11445, Pitch_bend_c, 3, 8192
1, 11463, Note_on_c, 4, 49, 0
1, 11464, Note_on_c, 4, 56, 0
1, 11472, Note_on_c, 6, 59, 73
1, 11472, Note_on_c, 6, 52, 65
1, 11477, Note_on_c, 9, 38, 25
1, 11478, Note_on_c, 9, 38, 0
1, 11481, Note_on_c, 4, 52, 127
1, 11482, Note_on_c, 4, 64, 127
1, 11517, Note_on_c, 6, 52, 0
1, 11518, Note_on_c, 4, 64, 0
1, 11518, Note_on_c, 6, 52, 90
1, 11519, Note_on_c, 6, 59, 0
1, 11519, Note_on_c, 1, 40, 127
1, 11519, Note_on_c, 6, 59, 98
1, 11521, Note_on_c, 4, 52, 0
1, 11521, Note_on_c, 9, 38, 53
1, 11522, Note_on_c, 0, 68, 117
1, 11522, Note_on_c, 9, 35, 111
1, 11523, Note_on_c, 0, 59, 117
1, 11524, Note_on_c, 9, 35, 0
1, 11524, Note_on_c, 9, 38, 0
1, 11524, Note_on_c, 0, 64, 117
1, 11525, Note_on_c, 4, 52, 127
1, 11548, Note_on_c, 0, 59, 0
1, 11550, Note_on_c, 0, 64, 0
1, 11557, Note_on_c, 0, 68, 0
1, 11561, Pitch_bend_c, 8, 0
1, 11562, Pitch_bend_c, 2, 0
1, 11563, Note_on_c, 6, 52, 0
1, 11564, Note_on_c, 6, 59, 0
1, 11565, Note_on_c, 4, 52, 0
1, 11567, Note_on_c, 6, 59, 60
1, 11568, Note_on_c, 6, 52, 65
1, 11569, Note_on_c, 8, 40, 127
1, 11570, Note_on_c, 2, 40, 127
1, 11573, Note_on_c, 9, 38, 42
1, 11574, Note_on_c, 9, 38, 0
1, 11575, Note_on_c, 4, 49, 127
1, 11577, Note_on_c, 4, 64, 127
1, 11607, Note_on_c, 4, 49, 0
1, 11611, Note_on_c, 4, 64, 0
1, 11615, Note_on_c, 6, 52, 0
1, 11615, Note_on_c, 6, 52, 127
1, 11616, Note_on_c, 6, 59, 0
1, 11616, Note_on_c, 6, 59, 127
1, 11616, Note_on_c, 6, 56, 127
1, 11617, Note_on_c, 9, 40, 97
1, 11617, Note_on_c, 9, 28, 91
1, 11618, Note_on_c, 9, 40, 0
1, 11619, Note_on_c, 9, 28, 0
1, 11620, Note_on_c, 4, 40, 127
1, 11623, Note_on_c, 6, 52, 0
1, 11623, Note_on_c, 6, 56, 0
1, 11624, Note_on_c, 6, 59, 0
1, 11625, Note_on_c, 1, 40, 0
1, 11630, Pitch_bend_c, 8, 224
1, 11631, Pitch_bend_c, 2, 224
1, 11632, Pitch_bend_c, 8, 1952
1, 11633, Pitch_bend_c, 2, 4352
1, 11635, Pitch_bend_c, 8, 4352
1, 11637, Pitch_bend_c, 8, 6336
1, 11638, Pitch_bend_c, 2, 7808
1, 11639, Pitch_bend_c, 8, 7808
1, 11643, Pitch_bend_c, 8, 8320
1, 11644, Pitch_bend_c, 2, 8320
1, 11644, Pitch_bend_c, 8, 8160
1, 11645, Pitch_bend_c, 2, 8160
1, 11648, Pitch_bend_c, 8, 8192
1, 11649, Pitch_bend_c, 2, 8192
1, 11662, Note_on_c, 0, 68, 117
1, 11663, Note_on_c, 0, 64, 117
1, 11664, Note_on_c, 0, 59, 117
1, 11664, Note_on_c, 1, 40, 127
1, 11665, Note_on_c, 6, 59, 73
1, 11665, Note_on_c, 9, 35, 68
1, 11666, Note_on_c, 9, 35, 0
1, 11666, Note_on_c, 6, 52, 65
1, 11667, Note_on_c, 4, 40, 0
1, 11668, Note_on_c, 9, 38, 27
1, 11670, Note_on_c, 9, 38, 0
1, 11683, Note_on_c, 1, 40, 0
1, 11687, Note_on_c, 8, 40, 0
1, 11688, Note_on_c, 2, 40, 0
1, 11689, Note_on_c, 9, 38, 37
1, 11691, Note_on_c, 9, 38, 0
1, 11697, Note_on_c, 0, 59, 0
1, 11702, Note_on_c, 0, 64, 0
1, 11705, Note_on_c, 0, 68, 0
1, 11709, Note_on_c, 6, 52, 0
1, 11709, Note_on_c, 6, 52, 103
1, 11710, Note_on_c, 6, 59, 0
1, 11710, Note_on_c, 6, 59, 98
1, 11712, Note_on_c, 1, 42, 121
1, 11713, Note_on_c, 8, 42, 127
1, 11713, Note_on_c, 9, 38, 52
1, 11714, Note_on_c, 2, 42, 127
1, 11714, Note_on_c, 9, 35, 110
1, 11715, Note_on_c, 9, 35, 0
1, 11715, Note_on_c, 4, 42, 127
1, 11716, Note_on_c, 9, 38, 0
1, 11746, Note_on_c, 8, 42, 0
1, 11746, Note_on_c, 2, 42, 0
1, 11756, Note_on_c, 6, 59, 0
1, 11756, Note_on_c, 6, 52, 0
1, 11760, Note_on_c, 6, 59, 73
1, 11761, Note_on_c, 4, 42, 0
1, 11761, Note_on_c, 6, 52, 65
1, 11764, Note_on_c, 9, 40, 77
1, 11766, Note_on_c, 9, 40, 0
1, 11775, Note_on_c, 1, 42, 0
1, 11805, Note_on_c, 6, 52, 0
1, 11805, Note_on_c, 6, 52, 127
1, 11806, Note_on_c, 6, 59, 0
1, 11806, Note_on_c, 6, 59, 127
1, 11807, Note_on_c, 6, 56, 127
1, 11808, Note_on_c, 0, 68, 117
1, 11808, Note_on_c, 1, 44, 127
1, 11809, Note_on_c, 0, 59, 117
1, 11809, Note_on_c, 9, 40, 96
1, 11809, Note_on_c, 9, 28, 92
1, 11810, Note_on_c, 9, 40, 0
1, 11810, Note_on_c, 0, 64, 117
1, 11811, Note_on_c, 9, 28, 0
1, 11811, Note_on_c, 8, 44, 127
1, 11812, Note_on_c, 2, 44, 127
1, 11813, Note_on_c, 4, 44, 127
1, 11814, Note_on_c, 6, 52, 0
1, 11815, Note_on_c, 6, 56, 0
1, 11816, Note_on_c, 6, 59, 0
1, 11844, Note_on_c, 0, 59, 0
1, 11846, Note_on_c, 0, 64, 0
1, 11849, Note_on_c, 0, 68, 0
1, 11856, Note_on_c, 6, 59, 73
1, 11857, Note_on_c, 6, 52, 65
1, 11861, Note_on_c, 4, 44, 0
1, 11861, Note_on_c, 8, 44, 0
1, 11861, Note_on_c, 9, 38, 23
1, 11862, Note_on_c, 9, 38, 0
1, 11862, Note_on_c, 2, 44, 0
1, 11865, Pitch_bend_c, 3, 8128
1, 11868, Pitch_bend_c, 3, 8000
1, 11872, Pitch_bend_c, 3, 7424
1, 11875, Pitch_bend_c, 3, 6976
1, 11877, Pitch_bend_c, 3, 6496
1, 11879, Pitch_bend_c, 7, 8160
1, 11881, Note_on_c, 1, 44, 0
1, 11881, Pitch_bend_c, 3, 5472
1, 11883, Pitch_bend_c, 7, 7904
1, 11885, Pitch_bend_c, 3, 4992
1, 11885, Pitch_bend_c, 7, 7456
1, 11887, Pitch_bend_c, 7, 6848
1, 11889, Pitch_bend_c, 7, 6080
1, 11890, Pitch_bend_c, 3, 4032
1, 11892, Pitch_bend_c, 3, 3360
1, 11892, Pitch_bend_c, 7, 5280
1, 11895, Pitch_bend_c, 7, 4576
1, 11898, Pitch_bend_c, 3, 3072
1, 11898, Pitch_bend_c, 7, 4000
1, 11899, Pitch_bend_c, 7, 3584
1, 11901, Pitch_bend_c, 7, 3296
1, 11902, Note_on_c, 6, 52, 0
1, 11902, Note_on_c, 6, 59, 0
1, 11903, Pitch_bend_c, 3, 2880
1, 11904, Note_on_c, 1, 45, 123
1, 11904, Note_on_c, 6, 52, 90
1, 11905, Note_on_c, 6, 57, 98
1, 11905, Note_on_c, 9, 38, 43
1, 11906, Pitch_bend_c, 7, 3232
1, 11906, Note_on_c, 9, 35, 111
1, 11907, Note_on_c, 3, 76, 127
1, 11908, Note_on_c, 9, 35, 0
1, 11908, Note_on_c, 9, 38, 0
1, 11908, Note_on_c, 7, 73, 127
1, 11909, Note_on_c, 8, 45, 127
1, 11910, Note_on_c, 2, 45, 127
1, 11911, Pitch_bend_c, 7, 3296
1, 11912, Pitch_bend_c, 3, 2848
1, 11913, Note_on_c, 7, 69, 127
1, 11914, Note_on_c, 4, 45, 127
1, 11915, Pitch_bend_c, 7, 3584
1, 11916, Pitch_bend_c, 7, 4032
1, 11917, Pitch_bend_c, 3, 2880
1, 11918, Pitch_bend_c, 7, 4736
1, 11919, Pitch_bend_c, 3, 2976
1, 11920, Pitch_bend_c, 7, 5696
1, 11921, Pitch_bend_c, 3, 3392
1, 11921, Pitch_bend_c, 7, 6720
1, 11922, Pitch_bend_c, 7, 7520
1, 11923, Pitch_bend_c, 3, 3808
1, 11923, Pitch_bend_c, 7, 8032
1, 11924, Pitch_bend_c, 3, 4288
1, 11925, Pitch_bend_c, 7, 8192
1, 11926, Pitch_bend_c, 3, 5728
1, 11934, Pitch_bend_c, 3, 7904
1, 11938, Pitch_bend_c, 3, 8160
1, 11940, Pitch_bend_c, 3, 8192
1, 11949, Note_on_c, 6, 57, 0
1, 11950, Note_on_c, 6, 52, 0
1, 11952, Note_on_c, 6, 57, 60
1, 11952, Note_on_c, 6, 52, 65
1, 11953, Note_on_c, 4, 45, 0
1, 11957, Note_on_c, 9, 38, 45
1, 11959, Note_on_c, 9, 38, 0
1, 11998, Note_on_c, 6, 49, 127
1, 11999, Note_on_c, 6, 52, 0
1, 11999, Note_on_c, 6, 52, 115
1, 12000, Note_on_c, 6, 57, 0
1, 12000, Note_on_c, 6, 57, 127
1, 12000, Note_on_c, 9, 40, 98
1, 12002, Note_on_c, 9, 40, 0
1, 12002, Note_on_c, 0, 61, 117
1, 12002, Note_on_c, 9, 28, 94
1, 12003, Note_on_c, 9, 28, 0
1, 12003, Note_on_c, 0, 64, 117
1, 12004, Note_on_c, 0, 57, 117
1, 12005, Note_on_c, 4, 42, 127
1, 12008, Note_on_c, 8, 45, 0
1, 12008, Note_on_c, 4, 49, 127
1, 12009, Note_on_c, 6, 49, 0
1, 12009, Note_on_c, 2, 45, 0
1, 12010, Note_on_c, 6, 52, 0
1, 12010, Note_on_c, 1, 45, 0
1, 12013, Note_on_c, 6, 57, 0
1, 12030, Note_on_c, 0, 57, 0
1, 12034, Note_on_c, 7, 73, 0
1, 12036, Note_on_c, 0, 61, 0
1, 12042, Note_on_c, 0, 64, 0
1, 12048, Note_on_c, 6, 57, 73
1, 12048, Note_on_c, 6, 52, 65
1, 12050, Note_on_c, 7, 69, 0
1, 12053, Note_on_c, 4, 49, 0
1, 12053, Note_on_c, 9, 38, 25
1, 12054, Note_on_c, 9, 38, 0
1, 12054, Note_on_c, 4, 42, 0
1, 12057, Note_on_c, 3, 76, 0
1, 12093, Note_on_c, 6, 57, 0
1, 12094, Note_on_c, 6, 52, 0
1, 12094, Note_on_c, 6, 52, 103
1, 12095, Note_on_c, 6, 57, 98
1, 12096, Note_on_c, 1, 40, 127
1, 12096, Note_on_c, 3, 73, 127
1, 12097, Note_on_c, 9, 38, 54
1, 12098, Note_on_c, 7, 69, 127
1, 12098, Note_on_c, 9, 35, 110
1, 12099, Note_on_c, 9, 35, 0
1, 12099, Note_on_c, 9, 38, 0
1, 12099, Note_on_c, 4, 40, 127
1, 12100, Note_on_c, 7, 76, 127
1, 12140, Note_on_c, 6, 57, 0
1, 12141, Note_on_c, 6, 52, 0
1, 12143, Note_on_c, 0, 64, 117
1, 12144, Note_on_c, 0, 57, 117
1, 12144, Note_on_c, 0, 61, 117
1, 12145, Note_on_c, 6, 57, 73
1, 12145, Note_on_c, 6, 52, 65
1, 12149, Note_on_c, 9, 38, 45
1, 12150, Note_on_c, 9, 38, 0
1, 12157, Note_on_c, 4, 40, 0
1, 12168, Pitch_bend_c, 3, 8064
1, 12172, Pitch_bend_c, 3, 8000
1, 12175, Note_on_c, 0, 57, 0
1, 12175, Pitch_bend_c, 3, 7808
1, 12180, Note_on_c, 0, 61, 0
1, 12180, Pitch_bend_c, 3, 7680
1, 12182, Pitch_bend_c, 3, 7584
1, 12184, Note_on_c, 0, 64, 0
1, 12185, Pitch_bend_c, 3, 7392
1, 12189, Pitch_bend_c, 3, 7168
1, 12189, Note_on_c, 6, 49, 127
1, 12190, Note_on_c, 6, 52, 0
1, 12190, Note_on_c, 6, 52, 127
1, 12191, Note_on_c, 6, 57, 0
1, 12191, Note_on_c, 6, 57, 127
1, 12193, Pitch_bend_c, 3, 6976
1, 12193, Note_on_c, 9, 40, 97
1, 12194, Note_on_c, 9, 40, 0
1, 12194, Note_on_c, 9, 28, 90
1, 12195, Note_on_c, 9, 28, 0
1, 12195, Note_on_c, 4, 42, 127
1, 12196, Pitch_bend_c, 3, 6720
1, 12198, Note_on_c, 4, 49, 127
1, 12199, Note_on_c, 6, 49, 0
1, 12200, Note_on_c, 6, 52, 0
1, 12201, Note_on_c, 6, 57, 0
1, 12201, Pitch_bend_c, 3, 6592
1, 12203, Note_on_c, 1, 40, 0
1, 12204, Pitch_bend_c, 3, 6464
1, 12205, Pitch_bend_c, 3, 6144
1, 12210, Pitch_bend_c, 3, 5888
1, 12215, Pitch_bend_c, 3, 5760
1, 12216, Note_on_c, 7, 76, 0
1, 12218, Pitch_bend_c, 3, 5632
1, 12220, Pitch_bend_c, 3, 5408
1, 12224, Note_on_c, 7, 69, 0
1, 12225, Pitch_bend_c, 3, 5280
1, 12228, Pitch_bend_c, 3, 5184
1, 12230, Note_on_c, 4, 42, 0
1, 12232, Note_on_c, 4, 49, 0
1, 12232, Pitch_bend_c, 3, 5152
1, 12235, Pitch_bend_c, 3, 5120
1, 12237, Pitch_bend_c, 3, 5056
1, 12239, Note_on_c, 6, 57, 73
1, 12240, Note_on_c, 6, 52, 65
1, 12243, Pitch_bend_c, 3, 5120
1, 12245, Note_on_c, 9, 38, 25
1, 12246, Note_on_c, 9, 38, 0
1, 12247, Pitch_bend_c, 3, 5248
1, 12249, Note_on_c, 4, 45, 127
1, 12250, Note_on_c, 3, 73, 0
1, 12250, Pitch_bend_c, 3, 5408
1, 12251, Note_on_c, 4, 57, 127
1, 12252, Pitch_bend_c, 3, 6208
1, 12256, Pitch_bend_c, 3, 6816
1, 12260, Pitch_bend_c, 3, 7904
1, 12264, Pitch_bend_c, 3, 8160
1, 12265, Pitch_bend_c, 3, 8192
1, 12272, Pitch_bend_c, 7, 8160
1, 12276, Pitch_bend_c, 7, 7904
1, 12277, Pitch_bend_c, 7, 7456
1, 12279, Pitch_bend_c, 7, 6848
1, 12282, Pitch_bend_c, 7, 6144
1, 12284, Pitch_bend_c, 7, 4736
1, 12285, Pitch_bend_c, 7, 5472
1, 12286, Note_on_c, 4, 57, 0
1, 12287, Note_on_c, 6, 52, 0
1, 12287, Note_on_c, 1, 45, 124
1, 12287, Note_on_c, 6, 52, 90
1, 12288, Note_on_c, 6, 57, 0
1, 12288, Note_on_c, 6, 57, 98
1, 12289, Note_on_c, 7, 73, 127
1, 12289, Note_on_c, 9, 38, 53
1, 12290, Note_on_c, 9, 35, 111
1, 12291, Note_on_c, 4, 45, 0
1, 12292, Note_on_c, 9, 38, 0
1, 12292, Note_on_c, 9, 35, 0
1, 12292, Note_on_c, 0, 64, 117
1, 12293, Note_on_c, 0, 57, 117
1, 12294, Note_on_c, 0, 61, 117
1, 12295, Note_on_c, 3, 69, 127
1, 12297, Note_on_c, 7, 69, 127
1, 12298, Note_on_c, 4, 45, 127
1, 12299, Pitch_bend_c, 7, 4864
1, 12300, Pitch_bend_c, 7, 5248
1, 12301, Pitch_bend_c, 7, 5888
1, 12302, Pitch_bend_c, 7, 6752
1, 12303, Pitch_bend_c, 7, 7456
1, 12307, Pitch_bend_c, 7, 8000
1, 12308, Pitch_bend_c, 7, 8192
1, 12327, Note_on_c, 0, 61, 0
1, 12329, Note_on_c, 0, 57, 0
1, 12330, Note_on_c, 6, 57, 0
1, 12332, Note_on_c, 4, 45, 0
1, 12332, Note_on_c, 6, 52, 0
1, 12336, Note_on_c, 6, 57, 60
1, 12337, Note_on_c, 0, 64, 0
1, 12337, Note_on_c, 6, 52, 65
1, 12341, Note_on_c, 9, 38, 42
1, 12342, Note_on_c, 9, 38, 0
1, 12342, Note_on_c, 1, 45, 0
1, 12343, Note_on_c, 4, 42, 127
1, 12345, Note_on_c, 7, 69, 0
1, 12346, Note_on_c, 4, 57, 127
1, 12361, Note_on_c, 3, 69, 0
1, 12367, Note_on_c, 7, 73, 0
1, 12375, Note_on_c, 4, 42, 0
1, 12379, Note_on_c, 3, 69, 127
1, 12380, Note_on_c, 4, 57, 0
1, 12382, Note_on_c, 6, 49, 127
1, 12383, Note_on_c, 6, 57, 0
1, 12383, Note_on_c, 6, 52, 0
1, 12383, Note_on_c, 6, 52, 115
1, 12383, Note_on_c, 6, 57, 127
1, 12384, Note_on_c, 1, 33, 127
1, 12385, Note_on_c, 9, 40, 97
1, 12386, Note_on_c, 9, 40, 0
1, 12386, Note_on_c, 7, 69, 127
1, 12386, Note_on_c, 9, 28, 91
1, 12387, Note_on_c, 9, 28, 0
1, 12387, Note_on_c, 8, 45, 127
1, 12388, Note_on_c, 2, 45, 127
1, 12389, Note_on_c, 7, 73, 127
1, 12390, Note_on_c, 4, 42, 127
1, 12392, Note_on_c, 6, 49, 0
1, 12392, Note_on_c, 4, 49, 127
1, 12394, Note_on_c, 6, 52, 0
1, 12397, Note_on_c, 6, 57, 0
1, 12432, Note_on_c, 0, 57, 117
1, 12432, Note_on_c, 0, 61, 117
1, 12432, Note_on_c, 0, 64, 117
1, 12432, Note_on_c, 9, 35, 68
1, 12433, Note_on_c, 6, 57, 73
1, 12434, Note_on_c, 4, 42, 0
1, 12434, Note_on_c, 6, 52, 65
1, 12435, Note_on_c, 9, 35, 0
1, 12436, Note_on_c, 3, 69, 0
1, 12437, Note_on_c, 4, 49, 0
1, 12437, Note_on_c, 9, 38, 27
1, 12438, Note_on_c, 9, 38, 0
1, 12443, Control_c, 3, 1, 17
1, 12447, Control_c, 3, 1, 31
1, 12449, Control_c, 3, 1, 63
1, 12451, Note_on_c, 7, 73, 0
1, 12452, Note_on_c, 7, 69, 0
1, 12453, Note_on_c, 1, 33, 0
1, 12453, Control_c, 3, 1, 92
1, 12459, Control_c, 3, 1, 114
1, 12461, Note_on_c, 0, 57, 0
1, 12462, Control_c, 3, 1, 127
1, 12465, Note_on_c, 0, 61, 0
1, 12467, Note_on_c, 0, 64, 0
1, 12467, Note_on_c, 8, 45, 0
1, 12469, Note_on_c, 2, 45, 0
1, 12474, Control_c, 3, 1, 123
1, 12476, Control_c, 3, 1, 110
1, 12477, Note_on_c, 6, 52, 0
1, 12477, Note_on_c, 6, 57, 0
1, 12477, Note_on_c, 6, 52, 103
1, 12478, Note_on_c, 6, 57, 98
1, 12480, Note_on_c, 1, 35, 127
1, 12480, Control_c, 3, 1, 69
1, 12481, Note_on_c, 8, 47, 127
1, 12481, Note_on_c, 9, 38, 52
1, 12481, Note_on_c, 9, 35, 110
1, 12482, Note_on_c, 2, 47, 127
1, 12483, Note_on_c, 9, 35, 0
1, 12483, Note_on_c, 9, 38, 0
1, 12483, Note_on_c, 4, 43, 127
1, 12484, Control_c, 3, 1, 16
1, 12492, Control_c, 3, 1, 6
1, 12494, Control_c, 3, 1, 0
1, 12524, Note_on_c, 6, 57, 0
1, 12524, Note_on_c, 6, 52, 0
1, 12528, Note_on_c, 6, 57, 73
1, 12528, Note_on_c, 6, 52, 65
1, 12529, Note_on_c, 4, 43, 0
1, 12533, Note_on_c, 9, 38, 47
1, 12534, Note_on_c, 9, 38, 0
1, 12540, Note_on_c, 8, 47, 0
1, 12541, Note_on_c, 2, 47, 0
1, 12545, Note_on_c, 1, 35, 0
1, 12574, Note_on_c, 6, 52, 0
1, 12574, Note_on_c, 6, 49, 127
1, 12574, Note_on_c, 6, 52, 127
1, 12575, Note_on_c, 6, 57, 0
1, 12575, Note_on_c, 6, 57, 127
1, 12576, Note_on_c, 1, 37, 124
1, 12577, Note_on_c, 0, 64, 117
1, 12577, Note_on_c, 9, 40, 96
1, 12578, Note_on_c, 9, 40, 0
1, 12578, Note_on_c, 0, 61, 117
1, 12578, Note_on_c, 9, 28, 92
1, 12579, Note_on_c, 9, 28, 0
1, 12579, Note_on_c, 0, 57, 117
1, 12581, Note_on_c, 8, 49, 127
1, 12582, Note_on_c, 2, 49, 127
1, 12583, Note_on_c, 4, 42, 127
1, 12584, Note_on_c, 4, 49, 127
1, 12585, Note_on_c, 6, 49, 0
1, 12586, Note_on_c, 6, 52, 0
1, 12587, Note_on_c, 6, 57, 0
1, 12615, Note_on_c, 0, 57, 0
1, 12624, Note_on_c, 6, 57, 73
1, 12624, Note_on_c, 6, 52, 65
1, 12625, Note_on_c, 7, 69, 116
1, 12626, Note_on_c, 0, 61, 0
1, 12626, Note_on_c, 7, 73, 127
1, 12627, Note_on_c, 3, 69, 127
1, 12628, Note_on_c, 0, 64, 0
1, 12629, Note_on_c, 4, 42, 0
1, 12629, Note_on_c, 9, 38, 23
1, 12630, Note_on_c, 9, 38, 0
1, 12631, Note_on_c, 4, 49, 0
1, 12641, Note_on_c, 8, 49, 0
1, 12642, Note_on_c, 7, 73, 0
1, 12642, Note_on_c, 2, 49, 0
1, 12643, Note_on_c, 7, 69, 0
1, 12645, Pitch_bend_c, 7, 8128
1, 12646, Note_on_c, 1, 37, 0
1, 12649, Pitch_bend_c, 7, 8000
1, 12650, Note_on_c, 3, 69, 0
1, 12651, Pitch_bend_c, 7, 7808
1, 12653, Pitch_bend_c, 7, 7584
1, 12655, Pitch_bend_c, 7, 7296
1, 12657, Pitch_bend_c, 7, 6944
1, 12660, Pitch_bend_c, 7, 6656
1, 12661, Pitch_bend_c, 7, 6304
1, 12665, Pitch_bend_c, 3, 2100
1, 12665, Pitch_bend_c, 7, 6016
1, 12667, Pitch_bend_c, 7, 5792
1, 12670, Note_on_c, 7, 74, 127
1, 12670, Pitch_bend_c, 7, 5568
1, 12671, Note_on_c, 6, 57, 0
1, 12672, Note_on_c, 1, 38, 126
1, 12672, Pitch_bend_c, 3, 2112
1, 12672, Note_on_c, 7, 66, 127
1, 12673, Note_on_c, 6, 59, 120
1, 12673, Note_on_c, 9, 38, 43
1, 12674, Note_on_c, 6, 54, 117
1, 12674, Note_on_c, 9, 35, 111
1, 12675, Note_on_c, 6, 62, 112
1, 12676, Note_on_c, 9, 35, 0
1, 12676, Note_on_c, 9, 38, 0
1, 12676, Pitch_bend_c, 7, 5376
1, 12677, Note_on_c, 6, 52, 0
1, 12678, Note_on_c, 3, 69, 127
1, 12679, Note_on_c, 8, 50, 127
1, 12680, Note_on_c, 2, 50, 127
1, 12681, Pitch_bend_c, 7, 5184
1, 12682, Pitch_bend_c, 3, 2048
1, 12683, Note_on_c, 4, 50, 127
1, 12684, Pitch_bend_c, 3, 2304
1, 12685, Pitch_bend_c, 7, 5088
1, 12686, Pitch_bend_c, 7, 5024
1, 12687, Pitch_bend_c, 3, 2656
1, 12688, Pitch_bend_c, 7, 4992
1, 12689, Pitch_bend_c, 3, 3232
1, 12690, Pitch_bend_c, 7, 5024
1, 12691, Pitch_bend_c, 3, 4928
1, 12691, Pitch_bend_c, 7, 5152
1, 12692, Pitch_bend_c, 7, 5376
1, 12693, Pitch_bend_c, 3, 7168
1, 12694, Note_on_c, 6, 54, 0
1, 12694, Pitch_bend_c, 7, 5600
1, 12695, Pitch_bend_c, 7, 5952
1, 12696, Note_on_c, 6, 59, 0
1, 12696, Pitch_bend_c, 3, 7904
1, 12697, Pitch_bend_c, 7, 6368
1, 12698, Pitch_bend_c, 3, 8192
1, 12699, Note_on_c, 6, 62, 0
1, 12699, Pitch_bend_c, 7, 6816
1, 12701, Pitch_bend_c, 7, 7328
1, 12702, Pitch_bend_c, 7, 7744
1, 12705, Pitch_bend_c, 7, 8096
1, 12707, Pitch_bend_c, 7, 8192
1, 12720, Note_on_c, 4, 50, 0
1, 12725, Note_on_c, 9, 38, 45
1, 12727, Note_on_c, 9, 38, 0
1, 12731, Note_on_c, 3, 69, 0
1, 12744, Note_on_c, 7, 66, 0
1, 12744, Note_on_c, 7, 74, 0
1, 12767, Note_on_c, 6, 62, 112
1, 12768, Note_on_c, 0, 57, 117
1, 12768, Note_on_c, 0, 62, 117
1, 12768, Note_on_c, 6, 54, 117
1, 12768, Note_on_c, 6, 59, 120
1, 12769, Note_on_c, 0, 66, 117
1, 12769, Note_on_c, 9, 40, 98
1, 12770, Note_on_c, 9, 40, 0
1, 12770, Note_on_c, 7, 74, 127
1, 12770, Note_on_c, 9, 28, 94
1, 12771, Note_on_c, 9, 28, 0
1, 12771, Note_on_c, 7, 66, 127
1, 12772, Note_on_c, 3, 69, 121
1, 12773, Note_on_c, 4, 47, 127
1, 12775, Note_on_c, 4, 54, 127
1, 12777, Note_on_c, 1, 38, 0
1, 12779, Note_on_c, 8, 50, 0
1, 12779, Note_on_c, 2, 50, 0
1, 12785, Note_on_c, 6, 54, 0
1, 12788, Note_on_c, 6, 59, 0
1, 12793, Note_on_c, 6, 62, 0
1, 12794, Note_on_c, 0, 57, 0
1, 12799, Note_on_c, 0, 66, 0
1, 12800, Note_on_c, 0, 62, 0
1, 12815, Note_on_c, 7, 74, 0
1, 12816, Note_on_c, 1, 38, 107
1, 12817, Note_on_c, 7, 66, 0
1, 12821, Note_on_c, 4, 54, 0
1, 12821, Note_on_c, 4, 47, 0
1, 12821, Note_on_c, 9, 38, 25
1, 12822, Note_on_c, 9, 38, 0
1, 12827, Note_on_c, 1, 38, 0
1, 12857, Note_on_c, 3, 69, 0
1, 12862, Note_on_c, 6, 57, 117
1, 12862, Note_on_c, 6, 62, 113
1, 12863, Note_on_c, 1, 33, 127
1, 12863, Note_on_c, 6, 54, 114
1, 12864, Note_on_c, 7, 74, 127
1, 12864, Note_on_c, 9, 38, 54
1, 12865, Note_on_c, 3, 69, 127
1, 12865, Note_on_c, 9, 35, 110
1, 12866, Note_on_c, 7, 66, 127
1, 12867, Note_on_c, 9, 35, 0
1, 12867, Note_on_c, 9, 38, 0
1, 12867, Note_on_c, 4, 45, 127
1, 12905, Note_on_c, 6, 62, 0
1, 12907, Note_on_c, 6, 54, 0
1, 12908, Note_on_c, 6, 57, 0
1, 12911, Note_on_c, 0, 66, 117
1, 12912, Note_on_c, 0, 62, 117
1, 12912, Note_on_c, 0, 57, 117
1, 12913, Note_on_c, 6, 57, 92
1, 12914, Note_on_c, 6, 54, 88
1, 12915, Note_on_c, 3, 69, 0
1, 12915, Note_on_c, 6, 62, 87
1, 12916, Note_on_c, 7, 66, 0
1, 12916, Note_on_c, 9, 38, 45
1, 12917, Note_on_c, 9, 38, 0
1, 12921, Note_on_c, 7, 74, 0
1, 12921, Note_on_c, 1, 33, 0
1, 12925, Note_on_c, 4, 45, 0
1, 12938, Note_on_c, 0, 57, 0
1, 12946, Note_on_c, 0, 66, 0
1, 12948, Note_on_c, 0, 62, 0
1, 12957, Note_on_c, 6, 57, 0
1, 12958, Note_on_c, 6, 62, 0
1, 12959, Note_on_c, 6, 54, 0
1, 12959, Note_on_c, 1, 35, 124
1, 12959, Note_on_c, 6, 62, 110
1, 12960, Note_on_c, 6, 54, 115
1, 12961, Note_on_c, 6, 57, 118
1, 12961, Note_on_c, 9, 40, 97
1, 12961, Note_on_c, 9, 28, 90
1, 12962, Note_on_c, 9, 40, 0
1, 12962, Note_on_c, 7, 69, 125
1, 12963, Note_on_c, 9, 28, 0
1, 12963, Note_on_c, 7, 66, 125
1, 12964, Note_on_c, 3, 69, 108
1, 12965, Note_on_c, 4, 47, 127
1, 12967, Note_on_c, 4, 54, 127
1, 12976, Note_on_c, 6, 54, 0
1, 12977, Note_on_c, 6, 57, 0
1, 12981, Note_on_c, 6, 62, 0
1, 12990, Note_on_c, 7, 69, 0
1, 12995, Note_on_c, 7, 66, 0
1, 12998, Note_on_c, 4, 47, 0
1, 12999, Note_on_c, 4, 54, 0
1, 13005, Note_on_c, 3, 69, 0
1, 13006, Note_on_c, 7, 74, 127
1, 13007, Note_on_c, 3, 62, 127
1, 13008, Note_on_c, 6, 57, 104
1, 13009, Note_on_c, 6, 62, 110
1, 13010, Note_on_c, 6, 54, 110
1, 13010, Note_on_c, 7, 66, 110
1, 13013, Note_on_c, 9, 38, 25
1, 13014, Note_on_c, 9, 38, 0
1, 13015, Note_on_c, 1, 35, 0
1, 13017, Note_on_c, 4, 50, 127
1, 13019, Note_on_c, 4, 62, 127
1, 13053, Note_on_c, 4, 62, 0
1, 13053, Note_on_c, 4, 50, 0
1, 13054, Note_on_c, 0, 66, 117
1, 13055, Note_on_c, 0, 62, 117
1, 13056, Note_on_c, 0, 57, 117
1, 13056, Note_on_c, 1, 38, 127
1, 13056, Note_on_c, 9, 38, 53
1, 13057, Note_on_c, 9, 35, 111
1, 13059, Note_on_c, 9, 35, 0
1, 13060, Note_on_c, 9, 38, 0
1, 13061, Note_on_c, 4, 50, 127
1, 13077, Note_on_c, 0, 57, 0
1, 13087, Note_on_c, 0, 62, 0
1, 13088, Note_on_c, 0, 66, 0
1, 13099, Note_on_c, 6, 57, 0
1, 13099, Note_on_c, 6, 62, 0
1, 13100, Note_on_c, 6, 54, 0
1, 13100, Note_on_c, 4, 50, 0
1, 13100, Control_c, 3, 1, 2
1, 13104, Control_c, 3, 1, 10
1, 13104, Note_on_c, 6, 54, 86
1, 13104, Note_on_c, 6, 57, 89
1, 13105, Note_on_c, 6, 62, 86
1, 13106, Control_c, 3, 1, 47
1, 13108, Note_on_c, 9, 38, 42
1, 13109, Note_on_c, 9, 38, 0
1, 13111, Note_on_c, 4, 47, 127
1, 13113, Control_c, 3, 1, 57
1, 13113, Note_on_c, 4, 62, 127
1, 13114, Control_c, 3, 1, 70
1, 13119, Control_c, 3, 1, 75
1, 13123, Control_c, 3, 1, 86
1, 13129, Note_on_c, 1, 38, 0
1, 13129, Control_c, 3, 1, 95
1, 13134, Control_c, 3, 1, 101
1, 13137, Control_c, 3, 1, 121
1, 13140, Pitch_bend_c, 3, 8032
1, 13143, Control_c, 3, 1, 126
1, 13144, Note_on_c, 4, 47, 0
1, 13145, Pitch_bend_c, 3, 7808
1, 13147, Control_c, 3, 1, 127
1, 13148, Note_on_c, 4, 62, 0
1, 13148, Pitch_bend_c, 3, 7232
1, 13149, Note_on_c, 6, 62, 0
1, 13150, Note_on_c, 6, 62, 112
1, 13151, Note_on_c, 6, 54, 0
1, 13151, Note_on_c, 6, 54, 117
1, 13151, Note_on_c, 6, 59, 120
1, 13152, Note_on_c, 1, 37, 119
1, 13153, Note_on_c, 6, 57, 0
1, 13153, Note_on_c, 9, 40, 97
1, 13153, Note_on_c, 9, 28, 91
1, 13154, Note_on_c, 9, 40, 0
1, 13154, Pitch_bend_c, 3, 6976
1, 13155, Note_on_c, 9, 28, 0
1, 13155, Pitch_bend_c, 3, 6432
1, 13156, Note_on_c, 4, 47, 127
1, 13159, Pitch_bend_c, 3, 6208
1, 13160, Note_on_c, 4, 54, 127
1, 13163, Pitch_bend_c, 3, 5728
1, 13166, Pitch_bend_c, 3, 5504
1, 13169, Note_on_c, 6, 54, 0
1, 13172, Note_on_c, 6, 59, 0
1, 13172, Pitch_bend_c, 3, 4928
1, 13173, Control_c, 3, 1, 103
1, 13174, Pitch_bend_c, 3, 4672
1, 13176, Pitch_bend_c, 3, 4160
1, 13177, Note_on_c, 6, 62, 0
1, 13180, Control_c, 3, 1, 91
1, 13181, Pitch_bend_c, 3, 3936
1, 13182, Control_c, 3, 1, 68
1, 13183, Pitch_bend_c, 3, 3712
1, 13186, Control_c, 3, 1, 45
1, 13186, Pitch_bend_c, 3, 3456
1, 13192, Control_c, 3, 1, 21
1, 13193, Pitch_bend_c, 3, 3680
1, 13196, Control_c, 3, 1, 4
1, 13199, Note_on_c, 0, 66, 117
1, 13199, Pitch_bend_c, 3, 4032
1, 13200, Note_on_c, 0, 57, 117
1, 13200, Note_on_c, 0, 62, 117
1, 13200, Note_on_c, 6, 57, 98
1, 13201, Note_on_c, 6, 62, 84
1, 13201, Note_on_c, 9, 35, 68
1, 13202, Note_on_c, 9, 35, 0
1, 13202, Note_on_c, 6, 54, 72
1, 13203, Note_on_c, 7, 74, 0
1, 13204, Pitch_bend_c, 3, 5152
1, 13204, Note_on_c, 9, 38, 27
1, 13205, Note_on_c, 4, 47, 0
1, 13206, Note_on_c, 9, 38, 0
1, 13206, Control_c, 3, 1, 0
1, 13207, Note_on_c, 4, 54, 0
1, 13208, Pitch_bend_c, 3, 6016
1, 13209, Note_on_c, 7, 66, 0
1, 13210, Pitch_bend_c, 3, 7584
1, 13211, Note_on_c, 3, 62, 0
1, 13212, Pitch_bend_c, 3, 8064
1, 13215, Pitch_bend_c, 3, 8192
1, 13221, Note_on_c, 1, 37, 0
1, 13226, Note_on_c, 0, 57, 0
1, 13231, Note_on_c, 0, 62, 0
1, 13234, Note_on_c, 0, 66, 0
1, 13245, Note_on_c, 6, 57, 0
1, 13245, Note_on_c, 6, 62, 0
1, 13246, Note_on_c, 6, 57, 117
1, 13247, Note_on_c, 6, 62, 113
1, 13248, Note_on_c, 6, 54, 0
1, 13248, Note_on_c, 1, 38, 121
1, 13248, Note_on_c, 6, 54, 114
1, 13249, Note_on_c, 9, 38, 52
1, 13250, Note_on_c, 9, 35, 110
1, 13251, Note_on_c, 9, 35, 0
1, 13251, Note_on_c, 9, 38, 0
1, 13251, Note_on_c, 4, 45, 127
1, 13289, Note_on_c, 6, 62, 0
1, 13291, Note_on_c, 6, 54, 0
1, 13292, Note_on_c, 6, 57, 0
1, 13296, Note_on_c, 6, 57, 92
1, 13296, Note_on_c, 6, 54, 88
1, 13297, Note_on_c, 6, 62, 87
1, 13298, Note_on_c, 4, 45, 0
1, 13301, Note_on_c, 9, 38, 47
1, 13302, Note_on_c, 9, 38, 0
1, 13325, Note_on_c, 1, 38, 0
1, 13341, Note_on_c, 6, 57, 0
1, 13342, Note_on_c, 6, 54, 0
1, 13342, Note_on_c, 6, 62, 0
1, 13343, Note_on_c, 6, 62, 110
1, 13344, Note_on_c, 1, 39, 125
1, 13344, Note_on_c, 6, 54, 115
1, 13344, Note_on_c, 6, 59, 118
1, 13345, Note_on_c, 0, 66, 117
1, 13345, Note_on_c, 9, 40, 96
1, 13346, Note_on_c, 9, 40, 0
1, 13346, Note_on_c, 0, 57, 117
1, 13346, Note_on_c, 9, 28, 92
1, 13347, Note_on_c, 9, 28, 0
1, 13347, Note_on_c, 0, 62, 117
1, 13348, Note_on_c, 4, 47, 127
1, 13351, Note_on_c, 4, 54, 127
1, 13358, Note_on_c, 6, 54, 0
1, 13361, Note_on_c, 6, 59, 0
1, 13366, Note_on_c, 6, 62, 0
1, 13383, Pitch_bend_c, 7, 8128
1, 13384, Pitch_bend_c, 3, 8160
1, 13385, Pitch_bend_c, 7, 8096
1, 13386, Pitch_bend_c, 3, 7808
1, 13387, Pitch_bend_c, 7, 7968
1, 13388, Pitch_bend_c, 7, 7872
1, 13392, Pitch_bend_c, 3, 7584
1, 13392, Note_on_c, 6, 57, 84
1, 13392, Note_on_c, 6, 62, 90
1, 13393, Note_on_c, 6, 54, 90
1, 13393, Pitch_bend_c, 7, 7744
1, 13394, Pitch_bend_c, 7, 7584
1, 13395, Note_on_c, 0, 57, 0
1, 13395, Pitch_bend_c, 3, 6944
1, 13396, Note_on_c, 0, 66, 0
1, 13397, Pitch_bend_c, 7, 7392
1, 13397, Note_on_c, 9, 38, 23
1, 13398, Note_on_c, 9, 38, 0
1, 13398, Note_on_c, 4, 47, 0
1, 13399, Pitch_bend_c, 3, 6592
1, 13400, Pitch_bend_c, 7, 7168
1, 13401, Note_on_c, 4, 54, 0
1, 13402, Pitch_bend_c, 3, 6208
1, 13403, Note_on_c, 0, 62, 0
1, 13403, Pitch_bend_c, 7, 6976
1, 13404, Pitch_bend_c, 3, 5504
1, 13404, Pitch_bend_c, 7, 6752
1, 13406, Pitch_bend_c, 7, 6528
1, 13407, Pitch_bend_c, 3, 4832
1, 13409, Pitch_bend_c, 7, 6304
1, 13411, Pitch_bend_c, 7, 6112
1, 13413, Pitch_bend_c, 3, 4640
1, 13413, Pitch_bend_c, 7, 5888
1, 13414, Pitch_bend_c, 3, 4512
1, 13416, Pitch_bend_c, 7, 5696
1, 13417, Pitch_bend_c, 3, 4288
1, 13418, Pitch_bend_c, 7, 5536
1, 13421, Pitch_bend_c, 3, 4096
1, 13421, Pitch_bend_c, 7, 5280
1, 13422, Pitch_bend_c, 7, 5184
1, 13425, Pitch_bend_c, 7, 5152
1, 13426, Pitch_bend_c, 3, 4064
1, 13430, Pitch_bend_c, 7, 5120
1, 13433, Pitch_bend_c, 3, 4096
1, 13433, Pitch_bend_c, 7, 5088
1, 13435, Note_on_c, 1, 39, 0
1, 13435, Pitch_bend_c, 3, 4288
1, 13437, Note_on_c, 6, 54, 0
1, 13437, Note_on_c, 6, 62, 0
1, 13438, Note_on_c, 6, 56, 111
1, 13439, Note_on_c, 6, 52, 114
1, 13440, Note_on_c, 1, 40, 127
1, 13440, Note_on_c, 6, 59, 109
1, 13440, Note_on_c, 7, 76, 127
1, 13441, Note_on_c, 6, 57, 0
1, 13441, Note_on_c, 9, 38, 43
1, 13442, Note_on_c, 3, 71, 127
1, 13442, Note_on_c, 9, 35, 111
1, 13443, Note_on_c, 7, 68, 127
1, 13444, Note_on_c, 9, 35, 0
1, 13444, Note_on_c, 9, 38, 0
1, 13444, Pitch_bend_c, 3, 4448
1, 13445, Pitch_bend_c, 7, 5120
1, 13446, Note_on_c, 4, 52, 127
1, 13447, Pitch_bend_c, 7, 5152
1, 13448, Pitch_bend_c, 3, 5376
1, 13449, Pitch_bend_c, 3, 6112
1, 13450, Pitch_bend_c, 7, 5248
1, 13451, Pitch_bend_c, 7, 5312
1, 13452, Pitch_bend_c, 3, 6944
1, 13453, Pitch_bend_c, 7, 5408
1, 13454, Note_on_c, 6, 59, 0
1, 13455, Pitch_bend_c, 3, 8064
1, 13456, Pitch_bend_c, 7, 5472
1, 13457, Pitch_bend_c, 3, 8192
1, 13457, Pitch_bend_c, 7, 5600
1, 13458, Note_on_c, 6, 52, 0
1, 13459, Pitch_bend_c, 7, 5696
1, 13460, Note_on_c, 6, 56, 0
1, 13461, Pitch_bend_c, 7, 5824
1, 13464, Pitch_bend_c, 7, 5952
1, 13465, Pitch_bend_c, 7, 6112
1, 13468, Pitch_bend_c, 7, 6368
1, 13471, Pitch_bend_c, 7, 6592
1, 13473, Pitch_bend_c, 7, 6976
1, 13476, Pitch_bend_c, 7, 7328
1, 13478, Pitch_bend_c, 7, 7712
1, 13481, Pitch_bend_c, 7, 8000
1, 13483, Pitch_bend_c, 7, 8160
1, 13486, Pitch_bend_c, 7, 8192
1, 13488, Note_on_c, 4, 52, 0
1, 13493, Note_on_c, 9, 38, 45
1, 13494, Note_on_c, 9, 38, 0
1, 13504, Note_on_c, 7, 68, 0
1, 13508, Note_on_c, 7, 76, 0
1, 13512, Note_on_c, 3, 71, 0
1, 13534, Note_on_c, 6, 59, 120
1, 13534, Note_on_c, 6, 56, 127
1, 13535, Note_on_c, 6, 52, 127
1, 13536, Note_on_c, 0, 68, 117
1, 13536, Note_on_c, 0, 59, 117
1, 13537, Note_on_c, 0, 64, 117
1, 13537, Note_on_c, 9, 40, 98
1, 13537, Note_on_c, 9, 28, 94
1, 13538, Note_on_c, 9, 28, 0
1, 13538, Note_on_c, 9, 40, 0
1, 13538, Note_on_c, 7, 76, 127
1, 13539, Note_on_c, 3, 71, 127
1, 13540, Note_on_c, 7, 68, 127
1, 13541, Note_on_c, 4, 49, 127
1, 13543, Note_on_c, 4, 56, 127
1, 13545, Note_on_c, 1, 40, 0
1, 13559, Note_on_c, 0, 59, 0
1, 13563, Note_on_c, 0, 64, 0
1, 13565, Note_on_c, 0, 68, 0
1, 13568, Note_on_c, 7, 76, 0
1, 13569, Note_on_c, 3, 71, 0
1, 13573, Note_on_c, 7, 68, 0
1, 13582, Note_on_c, 7, 68, 127
1, 13582, Note_on_c, 7, 76, 127
1, 13584, Note_on_c, 1, 40, 121
1, 13586, Note_on_c, 3, 71, 127
1, 13589, Note_on_c, 4, 56, 0
1, 13589, Note_on_c, 9, 38, 25
1, 13590, Note_on_c, 9, 38, 0
1, 13590, Note_on_c, 4, 49, 0
1, 13603, Note_on_c, 1, 40, 0
1, 13631, Note_on_c, 1, 35, 127
1, 13633, Note_on_c, 9, 38, 54
1, 13633, Note_on_c, 9, 35, 110
1, 13635, Note_on_c, 9, 35, 0
1, 13635, Note_on_c, 9, 38, 0
1, 13635, Note_on_c, 4, 47, 127
1, 13636, Note_on_c, 3, 71, 0
1, 13641, Note_on_c, 6, 52, 0
1, 13644, Note_on_c, 6, 56, 0
1, 13645, Note_on_c, 6, 59, 0
1, 13649, Note_on_c, 7, 68, 0
1, 13652, Note_on_c, 7, 76, 0
1, 13679, Note_on_c, 0, 68, 117
1, 13680, Note_on_c, 0, 59, 117
1, 13680, Note_on_c, 0, 64, 117
1, 13681, Note_on_c, 7, 68, 127
1, 13682, Note_on_c, 7, 76, 127
1, 13683, Note_on_c, 3, 71, 127
1, 13684, Note_on_c, 6, 56, 71
1, 13684, Note_on_c, 6, 52, 74
1, 13684, Note_on_c, 6, 59, 69
1, 13685, Note_on_c, 9, 38, 45
1, 13686, Note_on_c, 9, 38, 0
1, 13693, Note_on_c, 4, 47, 0
1, 13711, Note_on_c, 0, 59, 0
1, 13714, Note_on_c, 0, 64, 0
1, 13717, Note_on_c, 0, 68, 0
1, 13721, Pitch_bend_c, 3, 8317
1, 13722, Pitch_bend_c, 3, 8192
1, 13725, Note_on_c, 6, 59, 0
1, 13726, Note_on_c, 6, 56, 0
1, 13726, Note_on_c, 6, 52, 0
1, 13728, Note_on_c, 6, 56, 111
1, 13728, Note_on_c, 6, 52, 114
1, 13729, Note_on_c, 6, 59, 109
1, 13729, Note_on_c, 9, 40, 97
1, 13730, Note_on_c, 9, 40, 0
1, 13730, Note_on_c, 9, 28, 90
1, 13731, Note_on_c, 9, 28, 0
1, 13732, Note_on_c, 4, 49, 127
1, 13734, Note_on_c, 4, 56, 127
1, 13737, Note_on_c, 1, 35, 0
1, 13741, Note_on_c, 6, 59, 0
1, 13748, Note_on_c, 6, 52, 0
1, 13749, Note_on_c, 6, 56, 0
1, 13759, Note_on_c, 7, 76, 0
1, 13761, Note_on_c, 7, 68, 0
1, 13766, Note_on_c, 4, 49, 0
1, 13767, Note_on_c, 4, 56, 0
1, 13781, Note_on_c, 9, 38, 25
1, 13782, Note_on_c, 9, 38, 0
1, 13782, Note_on_c, 3, 71, 0
1, 13785, Note_on_c, 4, 52, 127
1, 13787, Note_on_c, 4, 64, 127
1, 13804, Pitch_bend_c, 7, 8160
1, 13807, Pitch_bend_c, 7, 8000
1, 13809, Pitch_bend_c, 7, 7680
1, 13810, Pitch_bend_c, 7, 7232
1, 13814, Pitch_bend_c, 7, 6816
1, 13815, Pitch_bend_c, 3, 2976
1, 13816, Pitch_bend_c, 7, 6368
1, 13817, Pitch_bend_c, 3, 2720
1, 13817, Pitch_bend_c, 7, 5984
1, 13820, Pitch_bend_c, 7, 5696
1, 13821, Note_on_c, 4, 64, 0
1, 13822, Pitch_bend_c, 3, 2656
1, 13823, Note_on_c, 6, 52, 73
1, 13824, Note_on_c, 4, 52, 0
1, 13824, Note_on_c, 1, 40, 127
1, 13824, Note_on_c, 6, 59, 79
1, 13825, Note_on_c, 0, 68, 117
1, 13825, Note_on_c, 9, 38, 53
1, 13826, Note_on_c, 0, 59, 117
1, 13826, Note_on_c, 9, 35, 111
1, 13827, Note_on_c, 0, 64, 117
1, 13828, Note_on_c, 9, 35, 0
1, 13828, Note_on_c, 9, 38, 0
1, 13828, Note_on_c, 7, 68, 127
1, 13829, Pitch_bend_c, 7, 5440
1, 13830, Pitch_bend_c, 3, 2720
1, 13831, Note_on_c, 7, 76, 127
1, 13832, Pitch_bend_c, 7, 5280
1, 13833, Note_on_c, 3, 73, 124
1, 13834, Pitch_bend_c, 7, 5120
1, 13835, Pitch_bend_c, 3, 3008
1, 13836, Note_on_c, 4, 52, 127
1, 13837, Pitch_bend_c, 7, 5024
1, 13838, Pitch_bend_c, 3, 3360
1, 13839, Pitch_bend_c, 7, 4992
1, 13840, Pitch_bend_c, 3, 4416
1, 13841, Pitch_bend_c, 3, 5856
1, 13841, Pitch_bend_c, 7, 5088
1, 13842, Pitch_bend_c, 7, 5184
1, 13843, Pitch_bend_c, 7, 5408
1, 13844, Pitch_bend_c, 7, 5664
1, 13845, Pitch_bend_c, 3, 7392
1, 13848, Pitch_bend_c, 3, 8160
1, 13848, Pitch_bend_c, 7, 5984
1, 13849, Pitch_bend_c, 7, 6400
1, 13850, Note_on_c, 0, 59, 0
1, 13851, Pitch_bend_c, 3, 8192
1, 13851, Pitch_bend_c, 7, 6880
1, 13853, Pitch_bend_c, 7, 7424
1, 13854, Note_on_c, 0, 64, 0
1, 13855, Pitch_bend_c, 7, 7840
1, 13859, Note_on_c, 0, 68, 0
1, 13859, Pitch_bend_c, 7, 8128
1, 13861, Pitch_bend_c, 7, 8192
1, 13867, Note_on_c, 6, 59, 0
1, 13867, Note_on_c, 6, 52, 0
1, 13868, Note_on_c, 4, 52, 0
1, 13871, Note_on_c, 7, 76, 0
1, 13872, Note_on_c, 6, 59, 49
1, 13872, Note_on_c, 6, 52, 53
1, 13873, Note_on_c, 7, 68, 0
1, 13877, Note_on_c, 9, 38, 42
1, 13878, Note_on_c, 9, 38, 0
1, 13879, Note_on_c, 4, 49, 127
1, 13882, Note_on_c, 4, 64, 127
1, 13899, Note_on_c, 3, 73, 0
1, 13912, Note_on_c, 4, 49, 0
1, 13915, Note_on_c, 6, 59, 0
1, 13916, Note_on_c, 4, 64, 0
1, 13917, Note_on_c, 6, 52, 0
1, 13917, Note_on_c, 6, 52, 103
1, 13918, Note_on_c, 6, 59, 109
1, 13919, Note_on_c, 6, 56, 103
1, 13920, Note_on_c, 7, 68, 114
1, 13921, Note_on_c, 7, 76, 127
1, 13921, Note_on_c, 9, 40, 97
1, 13922, Note_on_c, 9, 28, 91
1, 13923, Note_on_c, 9, 40, 0
1, 13924, Note_on_c, 9, 28, 0
1, 13924, Note_on_c, 4, 40, 127
1, 13926, Note_on_c, 1, 40, 0
1, 13927, Note_on_c, 6, 52, 0
1, 13928, Note_on_c, 6, 56, 0
1, 13929, Note_on_c, 6, 59, 0
1, 13929, Note_on_c, 3, 73, 122
1, 13945, Note_on_c, 7, 76, 0
1, 13945, Note_on_c, 7, 68, 0
1, 13947, Note_on_c, 3, 73, 0
1, 13967, Note_on_c, 0, 68, 117
1, 13967, Note_on_c, 0, 64, 117
1, 13968, Note_on_c, 0, 59, 117
1, 13968, Note_on_c, 1, 40, 117
1, 13969, Note_on_c, 6, 59, 59
1, 13969, Note_on_c, 9, 35, 68
1, 13970, Note_on_c, 9, 35, 0
1, 13970, Note_on_c, 6, 52, 53
1, 13971, Note_on_c, 7, 68, 127
1, 13972, Note_on_c, 7, 76, 127
1, 13973, Note_on_c, 4, 40, 0
1, 13973, Note_on_c, 9, 38, 27
1, 13974, Note_on_c, 9, 38, 0
1, 13974, Note_on_c, 3, 73, 124
1, 13990, Note_on_c, 1, 40, 0
1, 13990, Note_on_c, 0, 59, 0
1, 13997, Note_on_c, 0, 64, 0
1, 14002, Note_on_c, 0, 68, 0
1, 14013, Note_on_c, 6, 52, 0
1, 14014, Note_on_c, 6, 59, 0
1, 14014, Note_on_c, 6, 52, 73
1, 14015, Note_on_c, 6, 59, 79
1, 14016, Note_on_c, 1, 42, 119
1, 14017, Note_on_c, 9, 38, 52
1, 14018, Note_on_c, 9, 35, 110
1, 14019, Note_on_c, 9, 35, 0
1, 14020, Note_on_c, 9, 38, 0
1, 14020, Note_on_c, 4, 42, 127
1, 14031, Note_on_c, 7, 76, 0
1, 14037, Note_on_c, 7, 68, 0
1, 14041, Note_on_c, 3, 73, 0
1, 14059, Note_on_c, 6, 52, 0
1, 14060, Note_on_c, 6, 59, 0
1, 14064, Note_on_c, 6, 59, 59
1, 14064, Note_on_c, 6, 52, 53
1, 14065, Note_on_c, 7, 68, 120
1, 14066, Note_on_c, 7, 73, 127
1, 14067, Note_on_c, 4, 42, 0
1, 14067, Note_on_c, 3, 69, 127
1, 14069, Note_on_c, 9, 38, 47
1, 14071, Note_on_c, 9, 38, 0
1, 14081, Note_on_c, 1, 42, 0
1, 14109, Note_on_c, 6, 52, 0
1, 14109, Note_on_c, 6, 59, 0
1, 14110, Note_on_c, 6, 52, 103
1, 14111, Note_on_c, 6, 59, 109
1, 14112, Note_on_c, 0, 68, 117
1, 14112, Note_on_c, 1, 44, 116
1, 14112, Note_on_c, 6, 56, 103
1, 14113, Note_on_c, 0, 64, 117
1, 14113, Note_on_c, 9, 40, 96
1, 14114, Note_on_c, 9, 40, 0
1, 14114, Note_on_c, 0, 59, 117
1, 14114, Note_on_c, 9, 28, 92
1, 14115, Note_on_c, 9, 28, 0
1, 14115, Note_on_c, 3, 69, 0
1, 14116, Note_on_c, 4, 44, 127
1, 14119, Note_on_c, 6, 56, 0
1, 14119, Note_on_c, 6, 52, 0
1, 14120, Note_on_c, 6, 59, 0
1, 14121, Note_on_c, 7, 68, 0
1, 14122, Note_on_c, 7, 73, 0
1, 14140, Note_on_c, 0, 59, 0
1, 14141, Pitch_bend_c, 7, 8128
1, 14144, Pitch_bend_c, 7, 8000
1, 14145, Note_on_c, 0, 64, 0
1, 14146, Pitch_bend_c, 7, 5461
1, 14147, Note_on_c, 0, 68, 0
1, 14153, Pitch_bend_c, 7, 5041
1, 14157, Note_on_c, 7, 64, 122
1, 14158, Note_on_c, 7, 69, 127
1, 14160, Note_on_c, 6, 59, 59
1, 14160, Note_on_c, 6, 52, 53
1, 14163, Note_on_c, 3, 69, 127
1, 14165, Note_on_c, 4, 44, 0
1, 14165, Note_on_c, 9, 38, 23
1, 14166, Note_on_c, 9, 38, 0
1, 14169, Note_on_c, 1, 44, 0
1, 14177, Pitch_bend_c, 7, 4960
1, 14181, Pitch_bend_c, 7, 5088
1, 14184, Pitch_bend_c, 7, 5248
1, 14186, Pitch_bend_c, 7, 5536
1, 14189, Pitch_bend_c, 7, 5984
1, 14192, Pitch_bend_c, 7, 6528
1, 14194, Pitch_bend_c, 7, 7136
1, 14197, Pitch_bend_c, 7, 7680
1, 14199, Pitch_bend_c, 7, 8032
1, 14202, Pitch_bend_c, 7, 8192
1, 14205, Note_on_c, 6, 52, 0
1, 14206, Note_on_c, 6, 59, 0
1, 14208, Note_on_c, 1, 45, 124
1, 14208, Note_on_c, 6, 45, 127
1, 14209, Note_on_c, 9, 38, 43
1, 14210, Note_on_c, 9, 35, 111
1, 14211, Note_on_c, 4, 45, 127
1, 14212, Note_on_c, 9, 35, 0
1, 14212, Note_on_c, 9, 38, 0
1, 14249, Note_on_c, 7, 69, 0
1, 14249, Note_on_c, 7, 64, 0
1, 14256, Note_on_c, 4, 45, 0
1, 14261, Note_on_c, 9, 38, 45
1, 14262, Note_on_c, 9, 38, 0
1, 14274, Note_on_c, 3, 69, 0
1, 14287, Note_on_c, 6, 45, 0
1, 14301, Note_on_c, 6, 52, 104
1, 14301, Note_on_c, 6, 49, 103
1, 14302, Note_on_c, 6, 57, 123
1, 14303, Note_on_c, 7, 64, 122
1, 14304, Note_on_c, 0, 57, 117
1, 14305, Note_on_c, 0, 61, 117
1, 14305, Note_on_c, 0, 64, 117
1, 14305, Note_on_c, 9, 40, 98
1, 14306, Note_on_c, 9, 40, 0
1, 14306, Note_on_c, 2, 57, 111
1, 14306, Note_on_c, 9, 28, 94
1, 14307, Note_on_c, 9, 28, 0
1, 14307, Note_on_c, 7, 69, 127
1, 14308, Note_on_c, 3, 69, 115
1, 14309, Note_on_c, 4, 42, 127
1, 14310, Note_on_c, 1, 45, 0
1, 14311, Note_on_c, 4, 49, 127
1, 14321, Note_on_c, 2, 57, 0
1, 14340, Note_on_c, 0, 57, 0
1, 14357, Note_on_c, 7, 64, 0
1, 14357, Note_on_c, 9, 38, 25
1, 14358, Note_on_c, 9, 38, 0
1, 14358, Note_on_c, 4, 49, 0
1, 14359, Note_on_c, 3, 69, 0
1, 14360, Note_on_c, 7, 69, 0
1, 14361, Note_on_c, 4, 42, 0
1, 14364, Note_on_c, 0, 64, 0
1, 14376, Note_on_c, 0, 61, 0
1, 14399, Note_on_c, 1, 40, 127
1, 14401, Note_on_c, 9, 38, 54
1, 14401, Note_on_c, 9, 35, 110
1, 14402, Note_on_c, 6, 49, 0
1, 14403, Note_on_c, 9, 38, 0
1, 14403, Note_on_c, 9, 35, 0
1, 14403, Note_on_c, 4, 40, 127
1, 14404, Note_on_c, 6, 52, 0
1, 14410, Note_on_c, 6, 57, 0
1, 14411, Control_c, 3, 1, 13
1, 14415, Control_c, 3, 1, 34
1, 14421, Control_c, 3, 1, 54
1, 14425, Control_c, 3, 1, 66
1, 14429, Control_c, 3, 1, 94
1, 14434, Control_c, 3, 1, 102
1, 14438, Control_c, 3, 1, 116
1, 14442, Control_c, 3, 1, 123
1, 14447, Note_on_c, 0, 66, 117
1, 14448, Note_on_c, 0, 57, 117
1, 14448, Note_on_c, 0, 62, 117
1, 14449, Note_on_c, 2, 55, 117
1, 14450, Note_on_c, 6, 52, 127
1, 14451, Note_on_c, 6, 49, 127
1, 14452, Control_c, 3, 1, 127
1, 14452, Note_on_c, 6, 55, 127
1, 14452, Note_on_c, 9, 38, 45
1, 14453, Note_on_c, 9, 38, 0
1, 14461, Note_on_c, 4, 40, 0
1, 14461, Control_c, 3, 1, 124
1, 14465, Note_on_c, 2, 55, 0
1, 14466, Note_on_c, 6, 55, 0
1, 14466, Control_c, 3, 1, 119
1, 14467, Note_on_c, 0, 57, 0
1, 14468, Note_on_c, 6, 52, 0
1, 14470, Note_on_c, 6, 49, 0
1, 14472, Control_c, 3, 1, 116
1, 14474, Control_c, 3, 1, 99
1, 14478, Control_c, 3, 1, 77
1, 14482, Control_c, 3, 1, 5
1, 14486, Note_on_c, 0, 62, 0
1, 14488, Note_on_c, 0, 66, 0
1, 14488, Control_c, 3, 1, 0
1, 14497, Note_on_c, 9, 40, 97
1, 14498, Note_on_c, 9, 40, 0
1, 14498, Note_on_c, 9, 28, 90
1, 14499, Note_on_c, 9, 28, 0
1, 14500, Note_on_c, 4, 42, 127
1, 14501, Note_on_c, 1, 40, 0
1, 14503, Note_on_c, 4, 49, 127
1, 14533, Note_on_c, 4, 42, 0
1, 14536, Note_on_c, 4, 49, 0
1, 14543, Note_on_c, 2, 57, 117
1, 14543, Note_on_c, 6, 49, 127
1, 14544, Note_on_c, 6, 52, 127
1, 14545, Note_on_c, 6, 57, 127
1, 14549, Note_on_c, 9, 38, 25
1, 14550, Note_on_c, 9, 38, 0
1, 14553, Note_on_c, 4, 45, 127
1, 14556, Note_on_c, 4, 57, 127
1, 14557, Note_on_c, 6, 52, 0
1, 14561, Note_on_c, 2, 57, 0
1, 14563, Note_on_c, 6, 49, 0
1, 14564, Note_on_c, 6, 57, 0
1, 14589, Note_on_c, 4, 57, 0
1, 14589, Note_on_c, 4, 45, 0
1, 14591, Note_on_c, 0, 57, 117
1, 14591, Note_on_c, 0, 64, 117
1, 14592, Note_on_c, 0, 61, 117
1, 14592, Note_on_c, 1, 33, 127
1, 14593, Note_on_c, 9, 38, 53
1, 14594, Note_on_c, 9, 35, 111
1, 14596, Note_on_c, 9, 35, 0
1, 14596, Note_on_c, 9, 38, 0
1, 14597, Note_on_c, 4, 45, 127
1, 14631, Note_on_c, 0, 57, 0
1, 14636, Note_on_c, 4, 45, 0
1, 14640, Note_on_c, 6, 52, 53
1, 14640, Note_on_c, 6, 55, 98
1, 14645, Note_on_c, 9, 38, 42
1, 14646, Note_on_c, 9, 38, 0
1, 14647, Note_on_c, 4, 42, 127
1, 14651, Note_on_c, 4, 57, 127
1, 14656, Note_on_c, 0, 64, 0
1, 14671, Note_on_c, 0, 61, 0
1, 14680, Note_on_c, 4, 42, 0
1, 14684, Note_on_c, 4, 57, 0
1, 14687, Note_on_c, 6, 55, 0
1, 14687, Note_on_c, 6, 55, 85
1, 14688, Note_on_c, 0, 57, 117
1, 14688, Note_on_c, 9, 40, 97
1, 14690, Note_on_c, 9, 40, 0
1, 14690, Note_on_c, 9, 28, 91
1, 14691, Note_on_c, 9, 28, 0
1, 14692, Note_on_c, 4, 42, 127
1, 14696, Note_on_c, 4, 49, 127
1, 14697, Note_on_c, 1, 33, 0
1, 14713, Note_on_c, 0, 57, 0
1, 14731, Note_on_c, 6, 55, 0
1, 14735, Note_on_c, 0, 57, 117
1, 14735, Note_on_c, 0, 66, 117
1, 14736, Note_on_c, 0, 62, 117
1, 14736, Note_on_c, 1, 33, 91
1, 14737, Note_on_c, 6, 55, 123
1, 14737, Note_on_c, 9, 35, 68
1, 14738, Note_on_c, 9, 35, 0
1, 14738, Note_on_c, 4, 42, 0
1, 14740, Note_on_c, 4, 49, 0
1, 14741, Note_on_c, 9, 38, 27
1, 14742, Note_on_c, 9, 38, 0
1, 14751, Note_on_c, 1, 33, 0
1, 14771, Note_on_c, 0, 62, 0
1, 14773, Note_on_c, 0, 66, 0
1, 14775, Note_on_c, 0, 57, 0
1, 14782, Note_on_c, 6, 54, 98
1, 14783, Note_on_c, 6, 55, 0
1, 14784, Note_on_c, 1, 40, 126
1, 14785, Note_on_c, 9, 38, 52
1, 14786, Note_on_c, 9, 35, 110
1, 14787, Note_on_c, 9, 35, 0
1, 14787, Note_on_c, 9, 38, 0
1, 14788, Note_on_c, 4, 43, 127
1, 14809, Note_on_c, 9, 38, 52
1, 14810, Note_on_c, 9, 38, 0
1, 14828, Note_on_c, 6, 54, 0
1, 14831, Note_on_c, 0, 64, 117
1, 14832, Note_on_c, 0, 57, 117
1, 14832, Note_on_c, 0, 61, 117
1, 14833, Note_on_c, 6, 55, 127
1, 14834, Note_on_c, 4, 43, 0
1, 14837, Note_on_c, 9, 38, 47
1, 14838, Note_on_c, 9, 38, 0
1, 14879, Note_on_c, 6, 54, 127
1, 14880, Note_on_c, 6, 55, 0
1, 14881, Note_on_c, 9, 40, 96
1, 14882, Note_on_c, 9, 40, 0
1, 14882, Note_on_c, 9, 28, 92
1, 14883, Note_on_c, 9, 28, 0
1, 14884, Note_on_c, 4, 42, 127
1, 14885, Note_on_c, 4, 49, 127
1, 14886, Note_on_c, 1, 40, 0
1, 14893, Note_on_c, 0, 57, 0
1, 14908, Note_on_c, 0, 64, 0
1, 14918, Note_on_c, 0, 61, 0
1, 14924, Note_on_c, 6, 54, 0
1, 14928, Note_on_c, 6, 55, 127
1, 14933, Note_on_c, 4, 42, 0
1, 14933, Pitch_bend_c, 7, 8160
1, 14933, Note_on_c, 9, 38, 73
1, 14934, Note_on_c, 9, 38, 0
1, 14934, Pitch_bend_c, 7, 8128
1, 14935, Note_on_c, 4, 49, 0
1, 14937, Pitch_bend_c, 7, 8032
1, 14939, Pitch_bend_c, 7, 8000
1, 14943, Pitch_bend_c, 3, 8064
1, 14943, Pitch_bend_c, 7, 7872
1, 14944, Pitch_bend_c, 3, 7520
1, 14945, Pitch_bend_c, 7, 7808
1, 14946, Pitch_bend_c, 7, 7680
1, 14947, Pitch_bend_c, 3, 7104
1, 14950, Pitch_bend_c, 7, 7520
1, 14951, Pitch_bend_c, 3, 6688
1, 14952, Pitch_bend_c, 7, 7296
1, 14953, Pitch_bend_c, 3, 5792
1, 14953, Pitch_bend_c, 7, 7040
1, 14956, Pitch_bend_c, 7, 6816
1, 14957, Pitch_bend_c, 3, 5312
1, 14959, Pitch_bend_c, 7, 6560
1, 14961, Pitch_bend_c, 7, 6368
1, 14962, Pitch_bend_c, 3, 4352
1, 14963, Pitch_bend_c, 7, 6144
1, 14966, Pitch_bend_c, 7, 5984
1, 14967, Pitch_bend_c, 3, 3584
1, 14969, Pitch_bend_c, 7, 5792
1, 14971, Pitch_bend_c, 7, 5600
1, 14973, Pitch_bend_c, 3, 2848
1, 14974, Pitch_bend_c, 7, 5440
1, 14975, Note_on_c, 6, 52, 0
1, 14975, Pitch_bend_c, 3, 2304
1, 14976, Note_on_c, 1, 33, 121
1, 14976, Note_on_c, 7, 69, 127
1, 14977, Note_on_c, 7, 73, 127
1, 14977, Note_on_c, 9, 38, 43
1, 14978, Pitch_bend_c, 7, 5312
1, 14978, Note_on_c, 9, 35, 111
1, 14979, Note_on_c, 6, 52, 90
1, 14980, Note_on_c, 9, 35, 0
1, 14980, Note_on_c, 9, 38, 0
1, 14980, Note_on_c, 6, 57, 98
1, 14981, Note_on_c, 6, 55, 0
1, 14982, Note_on_c, 3, 76, 127
1, 14983, Pitch_bend_c, 7, 5248
1, 14984, Pitch_bend_c, 3, 2848
1, 14985, Note_on_c, 4, 45, 127
1, 14986, Pitch_bend_c, 7, 5184
1, 14987, Pitch_bend_c, 3, 2880
1, 14988, Pitch_bend_c, 3, 2976
1, 14990, Pitch_bend_c, 3, 3392
1, 14990, Pitch_bend_c, 7, 5248
1, 14992, Pitch_bend_c, 7, 5280
1, 14994, Pitch_bend_c, 3, 3808
1, 14995, Pitch_bend_c, 7, 5312
1, 14996, Pitch_bend_c, 3, 4928
1, 14997, Pitch_bend_c, 7, 5408
1, 15000, Pitch_bend_c, 3, 5728
1, 15002, Pitch_bend_c, 7, 5440
1, 15005, Pitch_bend_c, 7, 5536
1, 15006, Pitch_bend_c, 3, 7904
1, 15007, Pitch_bend_c, 7, 5664
1, 15009, Pitch_bend_c, 7, 5792
1, 15011, Pitch_bend_c, 3, 8160
1, 15012, Pitch_bend_c, 3, 8192
1, 15012, Pitch_bend_c, 7, 6016
1, 15013, Pitch_bend_c, 7, 6304
1, 15016, Pitch_bend_c, 7, 6688
1, 15018, Pitch_bend_c, 7, 7104
1, 15020, Pitch_bend_c, 7, 7552
1, 15021, Note_on_c, 6, 57, 0
1, 15022, Note_on_c, 6, 52, 0
1, 15022, Pitch_bend_c, 7, 7904
1, 15023, Note_on_c, 6, 57, 60
1, 15024, Note_on_c, 6, 52, 65
1, 15025, Note_on_c, 4, 45, 0
1, 15026, Pitch_bend_c, 7, 8128
1, 15027, Pitch_bend_c, 7, 8192
1, 15029, Note_on_c, 9, 38, 45
1, 15030, Note_on_c, 9, 38, 0
1, 15070, Note_on_c, 6, 49, 127
1, 15071, Note_on_c, 6, 52, 0
1, 15071, Note_on_c, 6, 57, 0
1, 15071, Note_on_c, 6, 52, 115
1, 15071, Note_on_c, 6, 57, 127
1, 15073, Note_on_c, 0, 61, 117
1, 15073, Note_on_c, 9, 40, 98
1, 15074, Note_on_c, 9, 40, 0
1, 15074, Note_on_c, 0, 57, 117
1, 15074, Note_on_c, 9, 28, 94
1, 15075, Note_on_c, 9, 28, 0
1, 15075, Note_on_c, 0, 64, 117
1, 15076, Note_on_c, 4, 42, 127
1, 15079, Note_on_c, 1, 33, 0
1, 15080, Note_on_c, 4, 49, 127
1, 15081, Note_on_c, 6, 52, 0
1, 15081, Note_on_c, 6, 49, 0
1, 15085, Note_on_c, 6, 57, 0
1, 15095, Note_on_c, 0, 57, 0
1, 15099, Note_on_c, 0, 64, 0
1, 15103, Note_on_c, 0, 61, 0
1, 15120, Note_on_c, 1, 33, 91
1, 15120, Note_on_c, 6, 57, 73
1, 15120, Note_on_c, 6, 52, 65
1, 15122, Note_on_c, 7, 73, 0
1, 15124, Note_on_c, 7, 69, 0
1, 15125, Note_on_c, 4, 49, 0
1, 15125, Note_on_c, 9, 38, 25
1, 15126, Note_on_c, 9, 38, 0
1, 15126, Note_on_c, 4, 42, 0
1, 15129, Note_on_c, 3, 76, 0
1, 15135, Note_on_c, 1, 33, 0
1, 15165, Note_on_c, 6, 57, 0
1, 15166, Note_on_c, 6, 52, 0
1, 15166, Note_on_c, 6, 52, 103
1, 15166, Note_on_c, 6, 57, 98
1, 15167, Note_on_c, 1, 40, 127
1, 15168, Note_on_c, 7, 73, 127
1, 15168, Note_on_c, 9, 38, 54
1, 15169, Note_on_c, 3, 73, 127
1, 15169, Note_on_c, 9, 35, 110
1, 15170, Note_on_c, 7, 69, 127
1, 15171, Note_on_c, 9, 35, 0
1, 15171, Note_on_c, 4, 40, 127
1, 15172, Note_on_c, 9, 38, 0
1, 15212, Note_on_c, 6, 57, 0
1, 15212, Note_on_c, 6, 52, 0
1, 15215, Note_on_c, 0, 64, 117
1, 15216, Note_on_c, 0, 57, 117
1, 15216, Note_on_c, 0, 61, 117
1, 15216, Note_on_c, 6, 57, 73
1, 15217, Note_on_c, 6, 52, 65
1, 15221, Note_on_c, 9, 38, 45
1, 15222, Note_on_c, 9, 38, 0
1, 15229, Note_on_c, 4, 40, 0
1, 15240, Note_on_c, 0, 57, 0
1, 15240, Pitch_bend_c, 3, 8160
1, 15242, Pitch_bend_c, 3, 8064
1, 15245, Note_on_c, 0, 61, 0
1, 15245, Pitch_bend_c, 3, 7904
1, 15247, Note_on_c, 0, 64, 0
1, 15249, Pitch_bend_c, 3, 7808
1, 15251, Pitch_bend_c, 3, 7680
1, 15254, Pitch_bend_c, 3, 7520
1, 15258, Pitch_bend_c, 3, 7296
1, 15262, Note_on_c, 6, 49, 127
1, 15263, Note_on_c, 6, 57, 0
1, 15263, Note_on_c, 6, 52, 0
1, 15263, Note_on_c, 6, 52, 127
1, 15263, Note_on_c, 6, 57, 127
1, 15264, Pitch_bend_c, 3, 7168
1, 15264, Note_on_c, 9, 40, 97
1, 15265, Note_on_c, 9, 28, 90
1, 15266, Note_on_c, 9, 40, 0
1, 15266, Pitch_bend_c, 3, 6976
1, 15267, Note_on_c, 9, 28, 0
1, 15267, Note_on_c, 4, 42, 127
1, 15268, Pitch_bend_c, 3, 6720
1, 15271, Note_on_c, 4, 49, 127
1, 15272, Note_on_c, 6, 52, 0
1, 15272, Note_on_c, 6, 49, 0
1, 15273, Note_on_c, 6, 57, 0
1, 15274, Note_on_c, 1, 40, 0
1, 15274, Pitch_bend_c, 3, 6592
1, 15276, Pitch_bend_c, 3, 6272
1, 15281, Pitch_bend_c, 3, 6016
1, 15284, Pitch_bend_c, 3, 5888
1, 15287, Pitch_bend_c, 3, 5760
1, 15290, Pitch_bend_c, 3, 5504
1, 15294, Pitch_bend_c, 3, 5408
1, 15297, Pitch_bend_c, 3, 5248
1, 15302, Note_on_c, 4, 42, 0
1, 15302, Pitch_bend_c, 3, 5184
1, 15304, Note_on_c, 4, 49, 0
1, 15304, Pitch_bend_c, 3, 5152
1, 15307, Pitch_bend_c, 3, 5056
1, 15312, Note_on_c, 1, 40, 91
1, 15312, Note_on_c, 6, 57, 73
1, 15312, Note_on_c, 6, 52, 65
1, 15314, Note_on_c, 7, 73, 0
1, 15315, Note_on_c, 7, 69, 0
1, 15316, Pitch_bend_c, 3, 5120
1, 15316, Note_on_c, 9, 38, 25
1, 15318, Note_on_c, 9, 38, 0
1, 15319, Pitch_bend_c, 3, 5248
1, 15321, Note_on_c, 4, 45, 127
1, 15322, Note_on_c, 3, 73, 0
1, 15322, Pitch_bend_c, 3, 5760
1, 15323, Note_on_c, 4, 57, 127
1, 15326, Pitch_bend_c, 3, 6208
1, 15327, Note_on_c, 1, 40, 0
1, 15328, Pitch_bend_c, 3, 7424
1, 15333, Pitch_bend_c, 3, 7904
1, 15336, Pitch_bend_c, 3, 8160
1, 15337, Pitch_bend_c, 3, 8192
1, 15357, Note_on_c, 4, 57, 0
1, 15358, Note_on_c, 6, 52, 0
1, 15358, Note_on_c, 6, 52, 90
1, 15359, Note_on_c, 6, 57, 0
1, 15359, Note_on_c, 6, 57, 98
1, 15359, Note_on_c, 7, 69, 127
1, 15360, Note_on_c, 1, 45, 123
1, 15361, Note_on_c, 4, 45, 0
1, 15361, Note_on_c, 9, 38, 53
1, 15362, Note_on_c, 0, 57, 117
1, 15362, Note_on_c, 9, 35, 111
1, 15363, Note_on_c, 0, 64, 117
1, 15364, Note_on_c, 9, 35, 0
1, 15364, Note_on_c, 9, 38, 0
1, 15364, Note_on_c, 0, 61, 117
1, 15365, Note_on_c, 3, 69, 127
1, 15366, Note_on_c, 7, 73, 127
1, 15368, Note_on_c, 4, 45, 127
1, 15389, Note_on_c, 0, 57, 0
1, 15390, Note_on_c, 0, 61, 0
1, 15396, Note_on_c, 0, 64, 0
1, 15403, Note_on_c, 6, 57, 0
1, 15404, Note_on_c, 4, 45, 0
1, 15404, Note_on_c, 6, 52, 0
1, 15408, Note_on_c, 6, 57, 60
1, 15409, Note_on_c, 6, 52, 65
1, 15413, Note_on_c, 9, 38, 42
1, 15414, Note_on_c, 9, 38, 0
1, 15415, Note_on_c, 4, 42, 127
1, 15416, Note_on_c, 1, 45, 0
1, 15418, Note_on_c, 4, 57, 127
1, 15425, Note_on_c, 7, 69, 0
1, 15426, Note_on_c, 7, 73, 0
1, 15433, Note_on_c, 3, 69, 0
1, 15448, Note_on_c, 4, 42, 0
1, 15452, Note_on_c, 4, 57, 0
1, 15452, Note_on_c, 3, 69, 127
1, 15454, Note_on_c, 6, 49, 127
1, 15455, Note_on_c, 6, 57, 0
1, 15455, Note_on_c, 6, 52, 0
1, 15455, Note_on_c, 6, 52, 115
1, 15455, Note_on_c, 6, 57, 127
1, 15456, Note_on_c, 1, 33, 127
1, 15457, Note_on_c, 9, 40, 97
1, 15458, Note_on_c, 9, 40, 0
1, 15458, Note_on_c, 7, 69, 127
1, 15458, Note_on_c, 9, 28, 91
1, 15459, Note_on_c, 9, 28, 0
1, 15459, Note_on_c, 7, 73, 127
1, 15460, Note_on_c, 8, 45, 127
1, 15461, Note_on_c, 2, 45, 127
1, 15462, Note_on_c, 4, 42, 127
1, 15464, Note_on_c, 6, 49, 0
1, 15464, Note_on_c, 4, 49, 127
1, 15466, Note_on_c, 6, 52, 0
1, 15469, Note_on_c, 6, 57, 0
1, 15500, Note_on_c, 7, 73, 0
1, 15501, Note_on_c, 7, 69, 0
1, 15503, Note_on_c, 0, 64, 117
1, 15503, Note_on_c, 0, 61, 117
1, 15504, Note_on_c, 0, 57, 117
1, 15505, Note_on_c, 6, 57, 73
1, 15505, Note_on_c, 9, 35, 68
1, 15506, Note_on_c, 9, 35, 0
1, 15506, Note_on_c, 6, 52, 65
1, 15507, Note_on_c, 4, 42, 0
1, 15508, Note_on_c, 3, 69, 0
1, 15509, Note_on_c, 4, 49, 0
1, 15509, Note_on_c, 9, 38, 27
1, 15511, Note_on_c, 9, 38, 0
1, 15514, Control_c, 3, 1, 17
1, 15518, Control_c, 3, 1, 47
1, 15522, Note_on_c, 1, 33, 0
1, 15523, Control_c, 3, 1, 78
1, 15526, Control_c, 3, 1, 92
1, 15529, Note_on_c, 0, 57, 0
1, 15531, Control_c, 3, 1, 121
1, 15532, Note_on_c, 0, 61, 0
1, 15537, Control_c, 3, 1, 127
1, 15540, Note_on_c, 8, 45, 0
1, 15541, Note_on_c, 0, 64, 0
1, 15541, Note_on_c, 2, 45, 0
1, 15546, Control_c, 3, 1, 110
1, 15549, Note_on_c, 6, 57, 0
1, 15550, Note_on_c, 6, 52, 0
1, 15550, Note_on_c, 6, 52, 103
1, 15550, Note_on_c, 6, 57, 98
1, 15552, Note_on_c, 1, 35, 127
1, 15552, Control_c, 3, 1, 91
1, 15553, Note_on_c, 8, 47, 127
1, 15553, Note_on_c, 9, 38, 52
1, 15554, Note_on_c, 2, 47, 127
1, 15554, Note_on_c, 9, 35, 110
1, 15555, Note_on_c, 9, 35, 0
1, 15555, Note_on_c, 9, 38, 0
1, 15555, Control_c, 3, 1, 48
1, 15556, Note_on_c, 4, 43, 127
1, 15557, Control_c, 3, 1, 16
1, 15563, Control_c, 3, 1, 0
1, 15596, Note_on_c, 6, 57, 0
1, 15596, Note_on_c, 6, 52, 0
1, 15600, Note_on_c, 6, 57, 73
1, 15600, Note_on_c, 6, 52, 65
1, 15601, Note_on_c, 4, 43, 0
1, 15604, Note_on_c, 9, 38, 47
1, 15606, Note_on_c, 9, 38, 0
1, 15612, Note_on_c, 8, 47, 0
1, 15613, Note_on_c, 2, 47, 0
1, 15617, Note_on_c, 1, 35, 0
1, 15646, Note_on_c, 6, 49, 127
1, 15647, Note_on_c, 6, 52, 0
1, 15647, Note_on_c, 6, 57, 0
1, 15647, Note_on_c, 1, 37, 124
1, 15647, Note_on_c, 6, 52, 127
1, 15647, Note_on_c, 6, 57, 127
1, 15649, Note_on_c, 0, 64, 117
1, 15649, Note_on_c, 9, 40, 96
1, 15649, Note_on_c, 9, 28, 92
1, 15650, Note_on_c, 9, 40, 0
1, 15650, Note_on_c, 0, 57, 117
1, 15651, Note_on_c, 9, 28, 0
1, 15651, Note_on_c, 0, 61, 117
1, 15653, Note_on_c, 8, 49, 127
1, 15654, Note_on_c, 2, 49, 127
1, 15655, Note_on_c, 4, 42, 127
1, 15656, Note_on_c, 4, 49, 127
1, 15657, Note_on_c, 6, 52, 0
1, 15657, Note_on_c, 6, 49, 0
1, 15658, Note_on_c, 6, 57, 0
1, 15679, Note_on_c, 0, 57, 0
1, 15688, Note_on_c, 0, 64, 0
1, 15688, Note_on_c, 0, 61, 0
1, 15696, Note_on_c, 6, 57, 73
1, 15696, Note_on_c, 6, 52, 65
1, 15697, Note_on_c, 3, 69, 127
1, 15701, Note_on_c, 4, 42, 0
1, 15701, Note_on_c, 9, 38, 23
1, 15702, Note_on_c, 9, 38, 0
1, 15703, Note_on_c, 4, 49, 0
1, 15711, Pitch_bend_c, 7, 8160
1, 15713, Note_on_c, 8, 49, 0
1, 15713, Pitch_bend_c, 7, 8000
1, 15714, Note_on_c, 2, 49, 0
1, 15715, Pitch_bend_c, 7, 7680
1, 15718, Note_on_c, 1, 37, 0
1, 15718, Pitch_bend_c, 7, 7168
1, 15720, Pitch_bend_c, 7, 6688
1, 15723, Note_on_c, 3, 69, 0
1, 15723, Pitch_bend_c, 7, 6112
1, 15724, Pitch_bend_c, 7, 5664
1, 15727, Pitch_bend_c, 7, 5184
1, 15729, Pitch_bend_c, 7, 4832
1, 15732, Pitch_bend_c, 7, 4512
1, 15733, Pitch_bend_c, 7, 4224
1, 15734, Pitch_bend_c, 7, 4032
1, 15736, Pitch_bend_c, 3, 2304
1, 15739, Pitch_bend_c, 7, 3936
1, 15741, Pitch_bend_c, 7, 3872
1, 15742, Note_on_c, 6, 57, 0
1, 15742, Note_on_c, 7, 74, 127
1, 15743, Note_on_c, 1, 38, 127
1, 15743, Pitch_bend_c, 3, 2112
1, 15744, Note_on_c, 6, 59, 120
1, 15744, Note_on_c, 9, 38, 43
1, 15745, Note_on_c, 6, 54, 117
1, 15745, Note_on_c, 9, 35, 111
1, 15746, Note_on_c, 6, 62, 112
1, 15747, Note_on_c, 9, 35, 0
1, 15747, Note_on_c, 7, 66, 127
1, 15748, Note_on_c, 6, 52, 0
1, 15748, Note_on_c, 9, 38, 0
1, 15749, Note_on_c, 3, 69, 127
1, 15750, Note_on_c, 8, 50, 127
1, 15751, Note_on_c, 2, 50, 127
1, 15752, Pitch_bend_c, 7, 3968
1, 15753, Pitch_bend_c, 3, 2048
1, 15754, Note_on_c, 4, 50, 127
1, 15755, Pitch_bend_c, 7, 4128
1, 15756, Pitch_bend_c, 3, 2304
1, 15757, Pitch_bend_c, 7, 4384
1, 15758, Pitch_bend_c, 3, 3232
1, 15759, Pitch_bend_c, 7, 4672
1, 15760, Pitch_bend_c, 7, 5024
1, 15761, Pitch_bend_c, 7, 5440
1, 15762, Pitch_bend_c, 3, 3968
1, 15763, Pitch_bend_c, 3, 6208
1, 15764, Pitch_bend_c, 7, 6368
1, 15765, Note_on_c, 6, 54, 0
1, 15766, Pitch_bend_c, 3, 7168
1, 15766, Pitch_bend_c, 7, 6816
1, 15767, Note_on_c, 6, 59, 0
1, 15768, Pitch_bend_c, 3, 7904
1, 15768, Pitch_bend_c, 7, 7264
1, 15769, Pitch_bend_c, 3, 8192
1, 15770, Pitch_bend_c, 7, 7712
1, 15771, Note_on_c, 6, 62, 0
1, 15772, Pitch_bend_c, 7, 8000
1, 15775, Pitch_bend_c, 7, 8160
1, 15777, Pitch_bend_c, 7, 8192
1, 15792, Note_on_c, 4, 50, 0
1, 15797, Note_on_c, 9, 38, 45
1, 15798, Note_on_c, 9, 38, 0
1, 15804, Note_on_c, 3, 69, 0
1, 15809, Note_on_c, 7, 66, 0
1, 15817, Note_on_c, 8, 50, 0
1, 15818, Note_on_c, 7, 74, 0
1, 15818, Note_on_c, 2, 50, 0
1, 15839, Note_on_c, 6, 62, 112
1, 15840, Note_on_c, 0, 66, 117
1, 15840, Note_on_c, 0, 62, 117
1, 15840, Note_on_c, 6, 54, 117
1, 15840, Note_on_c, 6, 59, 120
1, 15840, Note_on_c, 9, 40, 98
1, 15841, Note_on_c, 0, 57, 117
1, 15842, Note_on_c, 7, 74, 127
1, 15842, Note_on_c, 9, 28, 94
1, 15843, Note_on_c, 9, 40, 0
1, 15843, Note_on_c, 7, 66, 127
1, 15844, Note_on_c, 9, 28, 0
1, 15844, Note_on_c, 3, 69, 121
1, 15845, Note_on_c, 4, 47, 127
1, 15846, Note_on_c, 1, 38, 0
1, 15848, Note_on_c, 4, 54, 127
1, 15857, Note_on_c, 6, 54, 0
1, 15860, Note_on_c, 6, 59, 0
1, 15865, Note_on_c, 6, 62, 0
1, 15867, Note_on_c, 0, 57, 0
1, 15870, Note_on_c, 0, 62, 0
1, 15871, Note_on_c, 0, 66, 0
1, 15885, Note_on_c, 7, 74, 0
1, 15888, Note_on_c, 1, 38, 120
1, 15893, Note_on_c, 7, 66, 0
1, 15893, Note_on_c, 9, 38, 25
1, 15894, Note_on_c, 9, 38, 0
1, 15894, Note_on_c, 4, 54, 0
1, 15895, Note_on_c, 4, 47, 0
1, 15905, Note_on_c, 3, 69, 0
1, 15908, Note_on_c, 1, 38, 0
1, 15933, Note_on_c, 6, 57, 117
1, 15934, Note_on_c, 6, 62, 113
1, 15935, Note_on_c, 6, 54, 114
1, 15936, Note_on_c, 1, 33, 127
1, 15936, Note_on_c, 3, 69, 127
1, 15936, Note_on_c, 7, 66, 127
1, 15937, Note_on_c, 7, 74, 127
1, 15937, Note_on_c, 9, 38, 54
1, 15938, Note_on_c, 9, 35, 110
1, 15939, Note_on_c, 9, 35, 0
1, 15939, Note_on_c, 9, 38, 0
1, 15939, Note_on_c, 4, 45, 127
1, 15977, Note_on_c, 6, 62, 0
1, 15979, Note_on_c, 6, 54, 0
1, 15980, Note_on_c, 6, 57, 0
1, 15980, Note_on_c, 7, 66, 0
1, 15981, Note_on_c, 3, 69, 0
1, 15982, Note_on_c, 0, 57, 117
1, 15983, Note_on_c, 0, 66, 117
1, 15984, Note_on_c, 0, 62, 117
1, 15985, Note_on_c, 6, 57, 92
1, 15986, Note_on_c, 6, 54, 88
1, 15986, Note_on_c, 6, 62, 87
1, 15989, Note_on_c, 9, 38, 45
1, 15990, Note_on_c, 9, 38, 0
1, 15990, Note_on_c, 7, 74, 0
1, 15997, Note_on_c, 4, 45, 0
1, 15997, Note_on_c, 1, 33, 0
1, 16011, Note_on_c, 0, 62, 0
1, 16015, Note_on_c, 0, 66, 0
1, 16017, Note_on_c, 0, 57, 0
1, 16029, Note_on_c, 6, 57, 0
1, 16030, Note_on_c, 6, 54, 0
1, 16030, Note_on_c, 6, 62, 0
1, 16031, Note_on_c, 6, 62, 110
1, 16032, Note_on_c, 1, 35, 127
1, 16032, Note_on_c, 6, 54, 115
1, 16032, Note_on_c, 6, 59, 118
1, 16033, Note_on_c, 3, 69, 108
1, 16033, Note_on_c, 9, 40, 97
1, 16033, Note_on_c, 9, 28, 90
1, 16034, Note_on_c, 9, 40, 0
1, 16034, Note_on_c, 7, 69, 125
1, 16035, Note_on_c, 9, 28, 0
1, 16035, Note_on_c, 7, 66, 127
1, 16036, Note_on_c, 4, 47, 127
1, 16039, Note_on_c, 4, 54, 127
1, 16048, Note_on_c, 6, 54, 0
1, 16049, Note_on_c, 6, 59, 0
1, 16055, Note_on_c, 6, 62, 0
1, 16058, Note_on_c, 7, 66, 0
1, 16061, Note_on_c, 7, 69, 0
1, 16070, Note_on_c, 4, 47, 0
1, 16072, Note_on_c, 4, 54, 0
1, 16077, Note_on_c, 3, 69, 0
1, 16079, Note_on_c, 7, 74, 127
1, 16080, Note_on_c, 3, 62, 127
1, 16080, Note_on_c, 6, 57, 84
1, 16081, Note_on_c, 6, 62, 90
1, 16082, Note_on_c, 6, 54, 90
1, 16082, Note_on_c, 7, 66, 127
1, 16085, Note_on_c, 9, 38, 25
1, 16086, Note_on_c, 9, 38, 0
1, 16087, Note_on_c, 1, 35, 0
1, 16089, Note_on_c, 4, 50, 127
1, 16091, Note_on_c, 4, 62, 127
1, 16125, Note_on_c, 6, 54, 0
1, 16126, Note_on_c, 6, 62, 0
1, 16127, Note_on_c, 4, 62, 0
1, 16128, Note_on_c, 6, 57, 0
1, 16128, Note_on_c, 1, 38, 127
1, 16128, Note_on_c, 6, 57, 103
1, 16128, Note_on_c, 6, 54, 103
1, 16129, Note_on_c, 6, 62, 102
1, 16129, Note_on_c, 9, 38, 53
1, 16130, Note_on_c, 9, 35, 111
1, 16131, Note_on_c, 4, 50, 0
1, 16132, Note_on_c, 9, 35, 0
1, 16132, Note_on_c, 9, 38, 0
1, 16132, Note_on_c, 0, 66, 117
1, 16133, Note_on_c, 0, 62, 117
1, 16134, Note_on_c, 0, 57, 117
1, 16135, Note_on_c, 4, 50, 127
1, 16154, Note_on_c, 0, 57, 0
1, 16156, Note_on_c, 0, 62, 0
1, 16161, Note_on_c, 0, 66, 0
1, 16172, Note_on_c, 6, 62, 0
1, 16172, Note_on_c, 6, 57, 0
1, 16173, Note_on_c, 4, 50, 0
1, 16173, Control_c, 3, 1, 2
1, 16174, Note_on_c, 6, 54, 0
1, 16175, Control_c, 3, 1, 34
1, 16175, Note_on_c, 6, 54, 86
1, 16176, Note_on_c, 6, 57, 89
1, 16177, Note_on_c, 6, 62, 86
1, 16180, Note_on_c, 9, 38, 42
1, 16181, Control_c, 3, 1, 47
1, 16182, Note_on_c, 9, 38, 0
1, 16183, Note_on_c, 4, 47, 127
1, 16185, Control_c, 3, 1, 65
1, 16186, Note_on_c, 4, 62, 127
1, 16189, Control_c, 3, 1, 75
1, 16194, Control_c, 3, 1, 79
1, 16197, Control_c, 3, 1, 86
1, 16201, Control_c, 3, 1, 95
1, 16204, Note_on_c, 1, 38, 0
1, 16206, Control_c, 3, 1, 108
1, 16212, Control_c, 3, 1, 121
1, 16212, Pitch_bend_c, 3, 8128
1, 16216, Control_c, 3, 1, 127
1, 16216, Pitch_bend_c, 3, 8032
1, 16217, Note_on_c, 4, 47, 0
1, 16218, Pitch_bend_c, 3, 7552
1, 16219, Note_on_c, 4, 62, 0
1, 16220, Note_on_c, 6, 62, 0
1, 16222, Note_on_c, 6, 62, 112
1, 16223, Note_on_c, 6, 54, 0
1, 16223, Note_on_c, 6, 54, 117
1, 16223, Note_on_c, 6, 59, 120
1, 16225, Note_on_c, 6, 57, 0
1, 16225, Pitch_bend_c, 3, 7232
1, 16225, Note_on_c, 9, 40, 97
1, 16226, Note_on_c, 1, 37, 119
1, 16226, Pitch_bend_c, 3, 6688
1, 16227, Note_on_c, 4, 47, 127
1, 16227, Note_on_c, 9, 28, 91
1, 16228, Note_on_c, 9, 28, 0
1, 16228, Note_on_c, 9, 40, 0
1, 16229, Pitch_bend_c, 3, 6432
1, 16230, Pitch_bend_c, 3, 5984
1, 16232, Note_on_c, 4, 54, 127
1, 16235, Pitch_bend_c, 3, 5728
1, 16239, Pitch_bend_c, 3, 5504
1, 16241, Note_on_c, 6, 54, 0
1, 16243, Note_on_c, 6, 59, 0
1, 16243, Pitch_bend_c, 3, 4928
1, 16245, Control_c, 3, 1, 121
1, 16246, Pitch_bend_c, 3, 4672
1, 16247, Control_c, 3, 1, 103
1, 16248, Pitch_bend_c, 3, 4160
1, 16249, Note_on_c, 6, 62, 0
1, 16252, Control_c, 3, 1, 80
1, 16253, Pitch_bend_c, 3, 3936
1, 16256, Control_c, 3, 1, 57
1, 16257, Pitch_bend_c, 3, 3552
1, 16260, Control_c, 3, 1, 45
1, 16261, Pitch_bend_c, 3, 3456
1, 16264, Control_c, 3, 1, 11
1, 16265, Pitch_bend_c, 3, 3488
1, 16268, Pitch_bend_c, 3, 3680
1, 16270, Pitch_bend_c, 3, 4032
1, 16270, Control_c, 3, 1, 4
1, 16271, Note_on_c, 0, 62, 117
1, 16272, Note_on_c, 0, 57, 117
1, 16272, Note_on_c, 9, 35, 68
1, 16273, Note_on_c, 0, 66, 117
1, 16274, Note_on_c, 9, 35, 0
1, 16274, Note_on_c, 6, 57, 98
1, 16275, Note_on_c, 6, 62, 84
1, 16276, Note_on_c, 6, 54, 72
1, 16277, Pitch_bend_c, 3, 5152
1, 16277, Note_on_c, 9, 38, 27
1, 16278, Note_on_c, 9, 38, 0
1, 16278, Note_on_c, 4, 47, 0
1, 16279, Control_c, 3, 1, 0
1, 16280, Note_on_c, 7, 66, 0
1, 16281, Note_on_c, 7, 74, 0
1, 16281, Note_on_c, 4, 54, 0
1, 16282, Pitch_bend_c, 3, 7584
1, 16283, Note_on_c, 3, 62, 0
1, 16284, Pitch_bend_c, 3, 8064
1, 16286, Pitch_bend_c, 3, 8192
1, 16302, Note_on_c, 1, 37, 0
1, 16305, Note_on_c, 0, 57, 0
1, 16306, Note_on_c, 0, 62, 0
1, 16307, Note_on_c, 0, 66, 0
1, 16317, Note_on_c, 6, 57, 0
1, 16318, Note_on_c, 6, 62, 0
1, 16319, Note_on_c, 6, 57, 117
1, 16320, Note_on_c, 6, 54, 0
1, 16320, Note_on_c, 1, 38, 127
1, 16320, Note_on_c, 6, 62, 113
1, 16320, Note_on_c, 6, 54, 114
1, 16321, Note_on_c, 9, 38, 52
1, 16322, Note_on_c, 9, 35, 110
1, 16323, Note_on_c, 9, 35, 0
1, 16323, Note_on_c, 9, 38, 0
1, 16324, Note_on_c, 4, 45, 127
1, 16361, Note_on_c, 6, 62, 0
1, 16363, Note_on_c, 6, 54, 0
1, 16364, Note_on_c, 6, 57, 0
1, 16368, Note_on_c, 6, 57, 92
1, 16368, Note_on_c, 6, 54, 88
1, 16369, Note_on_c, 6, 62, 87
1, 16370, Note_on_c, 4, 45, 0
1, 16373, Note_on_c, 9, 38, 47
1, 16374, Note_on_c, 9, 38, 0
1, 16399, Note_on_c, 1, 38, 0
1, 16413, Note_on_c, 6, 62, 0
1, 16413, Note_on_c, 6, 57, 0
1, 16414, Note_on_c, 6, 54, 0
1, 16415, Note_on_c, 1, 39, 127
1, 16415, Note_on_c, 6, 62, 110
1, 16415, Note_on_c, 6, 54, 115
1, 16416, Note_on_c, 6, 59, 118
1, 16417, Note_on_c, 0, 57, 117
1, 16417, Note_on_c, 9, 40, 96
1, 16417, Note_on_c, 9, 28, 92
1, 16418, Note_on_c, 9, 40, 0
1, 16418, Note_on_c, 0, 66, 117
1, 16419, Note_on_c, 9, 28, 0
1, 16419, Note_on_c, 0, 62, 117
1, 16420, Note_on_c, 4, 47, 127
1, 16422, Note_on_c, 4, 54, 127
1, 16431, Note_on_c, 6, 54, 0
1, 16433, Note_on_c, 6, 59, 0
1, 16438, Note_on_c, 6, 62, 0
1, 16451, Note_on_c, 0, 57, 0
1, 16451, Note_on_c, 0, 62, 0
1, 16455, Pitch_bend_c, 3, 8032
1, 16458, Note_on_c, 0, 66, 0
1, 16460, Pitch_bend_c, 3, 7808
1, 16462, Pitch_bend_c, 3, 7584
1, 16463, Note_on_c, 6, 57, 84
1, 16464, Note_on_c, 6, 62, 90
1, 16465, Note_on_c, 6, 54, 90
1, 16466, Pitch_bend_c, 3, 6944
1, 16469, Note_on_c, 4, 47, 0
1, 16469, Pitch_bend_c, 3, 6592
1, 16469, Note_on_c, 9, 38, 23
1, 16470, Note_on_c, 9, 38, 0
1, 16472, Note_on_c, 4, 54, 0
1, 16473, Pitch_bend_c, 3, 5856
1, 16476, Pitch_bend_c, 3, 5152
1, 16480, Pitch_bend_c, 7, 8160
1, 16481, Pitch_bend_c, 3, 4832
1, 16483, Pitch_bend_c, 7, 8032
1, 16485, Pitch_bend_c, 3, 4640
1, 16485, Pitch_bend_c, 7, 7840
1, 16487, Pitch_bend_c, 3, 4416
1, 16487, Pitch_bend_c, 7, 7456
1, 16490, Pitch_bend_c, 7, 7136
1, 16491, Pitch_bend_c, 3, 4288
1, 16492, Pitch_bend_c, 7, 6720
1, 16494, Pitch_bend_c, 7, 6400
1, 16495, Pitch_bend_c, 3, 4192
1, 16497, Pitch_bend_c, 7, 6112
1, 16498, Pitch_bend_c, 3, 4096
1, 16500, Pitch_bend_c, 7, 5824
1, 16501, Pitch_bend_c, 3, 4064
1, 16502, Pitch_bend_c, 7, 5536
1, 16504, Pitch_bend_c, 7, 5280
1, 16505, Pitch_bend_c, 3, 4096
1, 16506, Pitch_bend_c, 7, 4992
1, 16507, Pitch_bend_c, 3, 4288
1, 16509, Note_on_c, 1, 39, 0
1, 16509, Pitch_bend_c, 7, 4832
1, 16510, Note_on_c, 6, 54, 0
1, 16511, Note_on_c, 6, 62, 0
1, 16511, Note_on_c, 1, 40, 127
1, 16512, Note_on_c, 6, 56, 111
1, 16513, Note_on_c, 6, 52, 114
1, 16513, Note_on_c, 9, 38, 43
1, 16514, Note_on_c, 6, 59, 109
1, 16514, Note_on_c, 9, 35, 111
1, 16515, Note_on_c, 6, 57, 0
1, 16516, Note_on_c, 9, 38, 0
1, 16516, Note_on_c, 9, 35, 0
1, 16516, Note_on_c, 3, 71, 127
1, 16517, Note_on_c, 7, 76, 127
1, 16518, Note_on_c, 7, 68, 127
1, 16519, Pitch_bend_c, 7, 4704
1, 16520, Pitch_bend_c, 7, 4576
1, 16521, Pitch_bend_c, 3, 4448
1, 16522, Note_on_c, 4, 52, 127
1, 16523, Pitch_bend_c, 7, 4544
1, 16524, Pitch_bend_c, 3, 5376
1, 16525, Pitch_bend_c, 7, 4512
1, 16526, Pitch_bend_c, 3, 6112
1, 16527, Pitch_bend_c, 3, 7584
1, 16527, Pitch_bend_c, 7, 4544
1, 16528, Note_on_c, 6, 59, 0
1, 16529, Pitch_bend_c, 7, 4576
1, 16530, Pitch_bend_c, 3, 8064
1, 16530, Pitch_bend_c, 7, 4608
1, 16531, Pitch_bend_c, 3, 8192
1, 16532, Note_on_c, 6, 52, 0
1, 16532, Note_on_c, 6, 56, 0
1, 16533, Pitch_bend_c, 7, 4704
1, 16535, Pitch_bend_c, 7, 4800
1, 16537, Pitch_bend_c, 7, 4960
1, 16540, Pitch_bend_c, 7, 5184
1, 16542, Pitch_bend_c, 7, 5472
1, 16545, Pitch_bend_c, 7, 5856
1, 16548, Pitch_bend_c, 7, 6304
1, 16549, Pitch_bend_c, 7, 6816
1, 16551, Note_on_c, 7, 68, 0
1, 16551, Pitch_bend_c, 7, 7264
1, 16553, Note_on_c, 7, 76, 0
1, 16553, Pitch_bend_c, 7, 7712
1, 16555, Note_on_c, 3, 71, 0
1, 16556, Pitch_bend_c, 7, 8000
1, 16559, Note_on_c, 7, 68, 127
1, 16559, Note_on_c, 7, 76, 127
1, 16560, Pitch_bend_c, 7, 8160
1, 16561, Note_on_c, 4, 52, 0
1, 16562, Note_on_c, 3, 71, 127
1, 16562, Pitch_bend_c, 7, 8192
1, 16565, Note_on_c, 9, 38, 45
1, 16566, Note_on_c, 9, 38, 0
1, 16605, Note_on_c, 6, 59, 120
1, 16606, Note_on_c, 6, 56, 127
1, 16607, Note_on_c, 6, 52, 127
1, 16608, Note_on_c, 0, 64, 117
1, 16608, Note_on_c, 0, 59, 117
1, 16609, Note_on_c, 0, 68, 117
1, 16609, Note_on_c, 9, 40, 98
1, 16610, Note_on_c, 9, 40, 0
1, 16610, Note_on_c, 9, 28, 94
1, 16611, Note_on_c, 9, 28, 0
1, 16612, Note_on_c, 4, 49, 127
1, 16616, Note_on_c, 4, 56, 127
1, 16619, Note_on_c, 1, 40, 0
1, 16621, Note_on_c, 3, 71, 0
1, 16623, Note_on_c, 7, 76, 0
1, 16626, Note_on_c, 7, 68, 0
1, 16640, Note_on_c, 0, 59, 0
1, 16642, Note_on_c, 0, 64, 0
1, 16645, Note_on_c, 0, 68, 0
1, 16655, Note_on_c, 7, 68, 127
1, 16656, Note_on_c, 1, 40, 127
1, 16656, Note_on_c, 7, 76, 127
1, 16659, Note_on_c, 3, 71, 127
1, 16661, Note_on_c, 4, 56, 0
1, 16661, Note_on_c, 9, 38, 25
1, 16662, Note_on_c, 9, 38, 0
1, 16662, Note_on_c, 4, 49, 0
1, 16669, Note_on_c, 1, 40, 0
1, 16704, Note_on_c, 1, 35, 127
1, 16705, Note_on_c, 9, 38, 54
1, 16706, Note_on_c, 9, 35, 110
1, 16707, Note_on_c, 9, 35, 0
1, 16707, Note_on_c, 4, 47, 127
1, 16708, Note_on_c, 9, 38, 0
1, 16713, Note_on_c, 6, 52, 0
1, 16716, Note_on_c, 6, 56, 0
1, 16717, Note_on_c, 6, 59, 0
1, 16740, Note_on_c, 7, 76, 0
1, 16744, Note_on_c, 7, 68, 0
1, 16746, Note_on_c, 3, 71, 0
1, 16752, Note_on_c, 0, 68, 117
1, 16752, Note_on_c, 0, 64, 117
1, 16752, Note_on_c, 0, 59, 117
1, 16753, Note_on_c, 3, 71, 127
1, 16753, Note_on_c, 7, 68, 127
1, 16754, Note_on_c, 7, 76, 127
1, 16755, Note_on_c, 6, 56, 71
1, 16756, Note_on_c, 6, 52, 74
1, 16756, Note_on_c, 6, 59, 69
1, 16756, Note_on_c, 9, 38, 45
1, 16757, Note_on_c, 6, 56, 0
1, 16758, Note_on_c, 6, 59, 0
1, 16758, Note_on_c, 9, 38, 0
1, 16759, Note_on_c, 6, 52, 0
1, 16765, Note_on_c, 4, 47, 0
1, 16777, Note_on_c, 0, 59, 0
1, 16782, Note_on_c, 0, 64, 0
1, 16787, Note_on_c, 0, 68, 0
1, 16793, Pitch_bend_c, 3, 8317
1, 16796, Pitch_bend_c, 3, 8192
1, 16800, Note_on_c, 6, 56, 111
1, 16801, Note_on_c, 6, 52, 114
1, 16801, Note_on_c, 6, 59, 109
1, 16801, Note_on_c, 9, 40, 97
1, 16801, Note_on_c, 9, 28, 90
1, 16802, Note_on_c, 9, 40, 0
1, 16802, Note_on_c, 7, 76, 0
1, 16803, Note_on_c, 7, 68, 0
1, 16803, Note_on_c, 9, 28, 0
1, 16804, Note_on_c, 4, 49, 127
1, 16805, Note_on_c, 3, 71, 0
1, 16807, Note_on_c, 4, 56, 127
1, 16811, Note_on_c, 1, 35, 0
1, 16813, Note_on_c, 6, 59, 0
1, 16819, Note_on_c, 6, 52, 0
1, 16821, Note_on_c, 6, 56, 0
1, 16837, Note_on_c, 4, 49, 0
1, 16840, Note_on_c, 4, 56, 0
1, 16844, Pitch_bend_c, 3, 4620
1, 16844, Pitch_bend_c, 7, 4200
1, 16847, Note_on_c, 7, 68, 127
1, 16848, Note_on_c, 1, 39, 127
1, 16848, Note_on_c, 7, 76, 127
1, 16850, Note_on_c, 3, 73, 124
1, 16853, Note_on_c, 9, 38, 25
1, 16854, Note_on_c, 9, 38, 0
1, 16856, Note_on_c, 4, 52, 127
1, 16860, Note_on_c, 4, 64, 127
1, 16870, Pitch_bend_c, 7, 3936
1, 16872, Pitch_bend_c, 7, 3840
1, 16874, Pitch_bend_c, 7, 3808
1, 16875, Pitch_bend_c, 3, 4960
1, 16879, Pitch_bend_c, 7, 3872
1, 16880, Pitch_bend_c, 3, 5152
1, 16883, Pitch_bend_c, 7, 4000
1, 16884, Pitch_bend_c, 3, 5472
1, 16885, Pitch_bend_c, 7, 4160
1, 16887, Note_on_c, 1, 39, 0
1, 16887, Pitch_bend_c, 3, 6016
1, 16887, Pitch_bend_c, 7, 4384
1, 16889, Pitch_bend_c, 7, 4576
1, 16890, Pitch_bend_c, 3, 7456
1, 16892, Pitch_bend_c, 7, 4832
1, 16893, Note_on_c, 4, 64, 0
1, 16894, Note_on_c, 6, 52, 73
1, 16894, Note_on_c, 6, 59, 79
1, 16895, Pitch_bend_c, 7, 5152
1, 16896, Note_on_c, 4, 52, 0
1, 16896, Note_on_c, 1, 40, 127
1, 16897, Pitch_bend_c, 3, 7968
1, 16897, Note_on_c, 9, 38, 53
1, 16898, Note_on_c, 0, 68, 117
1, 16898, Note_on_c, 9, 35, 111
1, 16899, Note_on_c, 0, 59, 117
1, 16900, Note_on_c, 9, 35, 0
1, 16900, Note_on_c, 9, 38, 0
1, 16900, Note_on_c, 0, 64, 117
1, 16901, Pitch_bend_c, 3, 8401
1, 16902, Pitch_bend_c, 7, 5536
1, 16903, Pitch_bend_c, 7, 5952
1, 16904, Note_on_c, 4, 52, 127
1, 16905, Pitch_bend_c, 7, 6400
1, 16906, Pitch_bend_c, 7, 6880
1, 16907, Pitch_bend_c, 7, 7392
1, 16908, Pitch_bend_c, 7, 7808
1, 16910, Pitch_bend_c, 7, 8096
1, 16913, Pitch_bend_c, 7, 8192
1, 16921, Note_on_c, 0, 59, 0
1, 16922, Note_on_c, 0, 64, 0
1, 16932, Note_on_c, 0, 68, 0
1, 16939, Note_on_c, 7, 76, 0
1, 16939, Note_on_c, 6, 59, 0
1, 16940, Note_on_c, 6, 52, 0
1, 16941, Note_on_c, 4, 52, 0
1, 16941, Note_on_c, 7, 68, 0
1, 16944, Note_on_c, 6, 59, 49
1, 16944, Note_on_c, 6, 52, 53
1, 16948, Note_on_c, 9, 38, 42
1, 16950, Note_on_c, 9, 38, 0
1, 16951, Note_on_c, 4, 49, 127
1, 16953, Note_on_c, 3, 73, 0
1, 16953, Note_on_c, 4, 64, 127
1, 16984, Note_on_c, 4, 49, 0
1, 16988, Note_on_c, 4, 64, 0
1, 16988, Note_on_c, 6, 59, 0
1, 16991, Note_on_c, 6, 52, 0
1, 16991, Note_on_c, 6, 52, 103
1, 16991, Note_on_c, 6, 59, 109
1, 16992, Note_on_c, 6, 56, 103
1, 16992, Note_on_c, 7, 76, 127
1, 16993, Note_on_c, 7, 68, 124
1, 16993, Note_on_c, 9, 40, 97
1, 16994, Note_on_c, 9, 40, 0
1, 16994, Note_on_c, 3, 73, 122
1, 16994, Note_on_c, 9, 28, 91
1, 16995, Note_on_c, 9, 28, 0
1, 16995, Note_on_c, 4, 40, 127
1, 16998, Note_on_c, 6, 52, 0
1, 16999, Note_on_c, 6, 56, 0
1, 17000, Note_on_c, 6, 59, 0
1, 17002, Note_on_c, 1, 40, 0
1, 17039, Note_on_c, 0, 68, 117
1, 17039, Note_on_c, 0, 64, 117
1, 17040, Note_on_c, 0, 59, 117
1, 17040, Note_on_c, 1, 40, 119
1, 17041, Note_on_c, 6, 59, 59
1, 17041, Note_on_c, 9, 35, 68
1, 17042, Note_on_c, 9, 35, 0
1, 17042, Note_on_c, 6, 52, 53
1, 17043, Note_on_c, 4, 40, 0
1, 17044, Note_on_c, 7, 76, 0
1, 17044, Note_on_c, 9, 38, 27
1, 17045, Note_on_c, 9, 38, 0
1, 17045, Note_on_c, 7, 68, 0
1, 17049, Note_on_c, 3, 73, 0
1, 17054, Note_on_c, 1, 40, 0
1, 17063, Note_on_c, 0, 59, 0
1, 17064, Note_on_c, 0, 64, 0
1, 17069, Note_on_c, 0, 68, 0
1, 17085, Note_on_c, 6, 52, 0
1, 17086, Note_on_c, 6, 59, 0
1, 17086, Note_on_c, 6, 52, 73
1, 17087, Note_on_c, 6, 59, 79
1, 17088, Note_on_c, 1, 42, 126
1, 17089, Note_on_c, 3, 73, 124
1, 17089, Note_on_c, 9, 38, 52
1, 17089, Note_on_c, 9, 35, 110
1, 17090, Note_on_c, 7, 76, 127
1, 17091, Note_on_c, 9, 35, 0
1, 17091, Note_on_c, 9, 38, 0
1, 17091, Note_on_c, 7, 68, 127
1, 17092, Note_on_c, 4, 42, 127
1, 17131, Note_on_c, 6, 52, 0
1, 17132, Note_on_c, 6, 59, 0
1, 17132, Note_on_c, 7, 76, 0
1, 17134, Note_on_c, 3, 73, 0
1, 17135, Note_on_c, 6, 59, 59
1, 17136, Note_on_c, 6, 52, 53
1, 17137, Note_on_c, 7, 68, 0
1, 17138, Note_on_c, 4, 42, 0
1, 17141, Note_on_c, 9, 38, 47
1, 17142, Note_on_c, 9, 38, 0
1, 17152, Note_on_c, 1, 42, 0
1, 17181, Note_on_c, 7, 64, 124
1, 17182, Note_on_c, 6, 59, 0
1, 17182, Note_on_c, 6, 52, 0
1, 17183, Note_on_c, 1, 44, 127
1, 17183, Note_on_c, 6, 52, 103
1, 17184, Note_on_c, 6, 59, 109
1, 17185, Note_on_c, 6, 56, 103
1, 17185, Note_on_c, 9, 40, 96
1, 17186, Note_on_c, 9, 40, 0
1, 17186, Note_on_c, 0, 68, 117
1, 17186, Note_on_c, 9, 28, 92
1, 17187, Note_on_c, 9, 28, 0
1, 17187, Note_on_c, 0, 59, 117
1, 17188, Note_on_c, 0, 64, 117
1, 17189, Note_on_c, 7, 73, 127
1, 17190, Note_on_c, 3, 69, 127
1, 17191, Note_on_c, 4, 44, 127
1, 17192, Note_on_c, 6, 56, 0
1, 17192, Note_on_c, 6, 52, 0
1, 17193, Note_on_c, 6, 59, 0
1, 17214, Note_on_c, 0, 64, 0
1, 17220, Note_on_c, 0, 59, 0
1, 17221, Note_on_c, 7, 64, 0
1, 17222, Note_on_c, 0, 68, 0
1, 17223, Note_on_c, 7, 73, 0
1, 17227, Note_on_c, 3, 69, 0
1, 17231, Note_on_c, 6, 59, 59
1, 17231, Note_on_c, 7, 73, 83
1, 17232, Note_on_c, 6, 52, 53
1, 17233, Note_on_c, 7, 64, 73
1, 17234, Note_on_c, 3, 69, 122
1, 17236, Note_on_c, 9, 38, 23
1, 17237, Note_on_c, 9, 38, 0
1, 17237, Note_on_c, 4, 44, 0
1, 17248, Note_on_c, 7, 73, 0
1, 17248, Pitch_bend_c, 7, 8096
1, 17250, Pitch_bend_c, 7, 7840
1, 17251, Note_on_c, 7, 64, 0
1, 17253, Note_on_c, 3, 69, 0
1, 17253, Note_on_c, 1, 44, 0
1, 17253, Pitch_bend_c, 7, 7520
1, 17255, Pitch_bend_c, 7, 7136
1, 17258, Pitch_bend_c, 7, 6752
1, 17260, Pitch_bend_c, 7, 6432
1, 17263, Pitch_bend_c, 7, 6144
1, 17265, Pitch_bend_c, 7, 5984
1, 17267, Pitch_bend_c, 7, 5824
1, 17269, Pitch_bend_c, 7, 5696
1, 17271, Pitch_bend_c, 7, 5600
1, 17274, Pitch_bend_c, 7, 5536
1, 17277, Note_on_c, 7, 64, 127
1, 17278, Note_on_c, 6, 59, 0
1, 17278, Note_on_c, 6, 52, 0
1, 17279, Pitch_bend_c, 7, 5472
1, 17280, Note_on_c, 1, 45, 121
1, 17280, Note_on_c, 6, 45, 127
1, 17281, Pitch_bend_c, 7, 5408
1, 17281, Note_on_c, 9, 38, 53
1, 17282, Pitch_bend_c, 7, 5440
1, 17282, Note_on_c, 9, 35, 111
1, 17283, Note_on_c, 3, 69, 127
1, 17284, Note_on_c, 9, 35, 0
1, 17284, Note_on_c, 9, 38, 0
1, 17284, Note_on_c, 7, 73, 127
1, 17285, Note_on_c, 4, 45, 127
1, 17286, Pitch_bend_c, 7, 5376
1, 17292, Pitch_bend_c, 7, 5440
1, 17294, Pitch_bend_c, 7, 5536
1, 17297, Pitch_bend_c, 7, 5728
1, 17299, Pitch_bend_c, 7, 5984
1, 17301, Pitch_bend_c, 7, 6304
1, 17303, Pitch_bend_c, 7, 6720
1, 17305, Pitch_bend_c, 7, 7232
1, 17307, Pitch_bend_c, 7, 7616
1, 17310, Pitch_bend_c, 7, 7968
1, 17312, Pitch_bend_c, 7, 8160
1, 17314, Pitch_bend_c, 7, 8192
1, 17328, Note_on_c, 4, 45, 0
1, 17333, Note_on_c, 9, 38, 42
1, 17334, Note_on_c, 9, 38, 0
1, 17344, Note_on_c, 7, 64, 0
1, 17345, Note_on_c, 7, 73, 0
1, 17345, Note_on_c, 3, 69, 0
1, 17359, Note_on_c, 6, 45, 0
1, 17373, Note_on_c, 6, 52, 127
1, 17373, Note_on_c, 6, 57, 127
1, 17375, Note_on_c, 0, 64, 117
1, 17376, Note_on_c, 0, 61, 117
1, 17376, Note_on_c, 0, 57, 117
1, 17377, Note_on_c, 2, 57, 107
1, 17377, Note_on_c, 9, 40, 97
1, 17377, Note_on_c, 9, 28, 91
1, 17378, Note_on_c, 9, 40, 0
1, 17378, Note_on_c, 7, 64, 95
1, 17379, Note_on_c, 9, 28, 0
1, 17379, Note_on_c, 3, 69, 115
1, 17380, Note_on_c, 4, 42, 127
1, 17381, Note_on_c, 1, 45, 0
1, 17381, Note_on_c, 7, 73, 107
1, 17382, Note_on_c, 6, 52, 0
1, 17383, Note_on_c, 6, 57, 0
1, 17384, Note_on_c, 4, 49, 127
1, 17385, Note_on_c, 2, 57, 0
1, 17397, Note_on_c, 7, 73, 0
1, 17400, Note_on_c, 3, 69, 0
1, 17401, Note_on_c, 0, 57, 0
1, 17405, Note_on_c, 7, 64, 0
1, 17411, Note_on_c, 0, 61, 0
1, 17416, Note_on_c, 0, 64, 0
1, 17423, Note_on_c, 7, 73, 127
1, 17424, Note_on_c, 1, 45, 104
1, 17424, Note_on_c, 6, 52, 65
1, 17425, Note_on_c, 7, 64, 127
1, 17425, Note_on_c, 9, 35, 68
1, 17426, Note_on_c, 9, 35, 0
1, 17426, Note_on_c, 3, 69, 115
1, 17427, Note_on_c, 6, 57, 73
1, 17428, Note_on_c, 6, 52, 0
1, 17429, Note_on_c, 6, 57, 0
1, 17429, Note_on_c, 9, 38, 27
1, 17430, Note_on_c, 9, 38, 0
1, 17430, Note_on_c, 4, 49, 0
1, 17431, Note_on_c, 4, 42, 0
1, 17444, Note_on_c, 1, 45, 0
1, 17469, Note_on_c, 6, 52, 65
1, 17470, Note_on_c, 6, 57, 60
1, 17472, Note_on_c, 6, 57, 0
1, 17472, Note_on_c, 6, 52, 0
1, 17472, Note_on_c, 1, 43, 126
1, 17473, Note_on_c, 9, 38, 52
1, 17474, Note_on_c, 9, 35, 110
1, 17475, Note_on_c, 9, 35, 0
1, 17475, Note_on_c, 9, 38, 0
1, 17476, Note_on_c, 4, 40, 127
1, 17483, Control_c, 3, 1, 6
1, 17485, Control_c, 3, 1, 23
1, 17491, Control_c, 3, 1, 44
1, 17493, Control_c, 3, 1, 66
1, 17501, Control_c, 3, 1, 76
1, 17502, Control_c, 3, 1, 94
1, 17505, Control_c, 3, 1, 110
1, 17513, Control_c, 3, 1, 120
1, 17516, Control_c, 3, 1, 123
1, 17519, Note_on_c, 0, 57, 117
1, 17519, Note_on_c, 0, 62, 117
1, 17520, Note_on_c, 1, 43, 0
1, 17520, Note_on_c, 0, 66, 117
1, 17521, Note_on_c, 2, 57, 107
1, 17522, Note_on_c, 6, 52, 127
1, 17523, Control_c, 3, 1, 127
1, 17523, Note_on_c, 6, 57, 127
1, 17525, Note_on_c, 9, 38, 47
1, 17526, Note_on_c, 9, 38, 0
1, 17533, Note_on_c, 4, 40, 0
1, 17534, Control_c, 3, 1, 124
1, 17537, Note_on_c, 2, 57, 0
1, 17538, Note_on_c, 6, 57, 0
1, 17538, Control_c, 3, 1, 119
1, 17539, Note_on_c, 6, 52, 0
1, 17543, Control_c, 3, 1, 110
1, 17548, Control_c, 3, 1, 77
1, 17549, Note_on_c, 0, 57, 0
1, 17555, Control_c, 3, 1, 24
1, 17557, Control_c, 3, 1, 0
1, 17563, Note_on_c, 7, 64, 0
1, 17567, Note_on_c, 0, 66, 0
1, 17568, Note_on_c, 7, 73, 0
1, 17568, Note_on_c, 1, 42, 127
1, 17569, Note_on_c, 9, 40, 96
1, 17570, Note_on_c, 9, 40, 0
1, 17570, Note_on_c, 9, 28, 92
1, 17571, Note_on_c, 9, 28, 0
1, 17571, Note_on_c, 0, 62, 0
1, 17572, Note_on_c, 4, 42, 127
1, 17576, Note_on_c, 4, 49, 127
1, 17586, Note_on_c, 3, 69, 0
1, 17607, Note_on_c, 4, 42, 0
1, 17608, Note_on_c, 4, 49, 0
1, 17615, Note_on_c, 2, 57, 107
1, 17615, Note_on_c, 6, 52, 127
1, 17616, Note_on_c, 6, 57, 127
1, 17621, Note_on_c, 9, 38, 23
1, 17623, Note_on_c, 9, 38, 0
1, 17625, Note_on_c, 4, 45, 127
1, 17627, Note_on_c, 4, 57, 127
1, 17633, Note_on_c, 2, 57, 0
1, 17633, Note_on_c, 6, 57, 0
1, 17635, Note_on_c, 6, 52, 0
1, 17661, Note_on_c, 4, 57, 0
1, 17662, Note_on_c, 4, 45, 0
1, 17662, Note_on_c, 1, 42, 0
1, 17663, Note_on_c, 0, 64, 117
1, 17664, Note_on_c, 0, 57, 117
1, 17664, Note_on_c, 0, 61, 117
1, 17664, Note_on_c, 1, 45, 126
1, 17665, Note_on_c, 9, 38, 43
1, 17666, Note_on_c, 9, 35, 111
1, 17668, Note_on_c, 9, 35, 0
1, 17668, Note_on_c, 9, 38, 0
1, 17669, Note_on_c, 4, 45, 127
1, 17689, Note_on_c, 0, 57, 0
1, 17694, Note_on_c, 0, 61, 0
1, 17697, Note_on_c, 0, 64, 0
1, 17708, Note_on_c, 4, 45, 0
1, 17712, Note_on_c, 6, 55, 85
1, 17717, Note_on_c, 9, 38, 45
1, 17718, Note_on_c, 9, 38, 0
1, 17718, Note_on_c, 4, 42, 127
1, 17721, Note_on_c, 4, 57, 127
1, 17752, Note_on_c, 4, 42, 0
1, 17756, Note_on_c, 4, 57, 0
1, 17758, Note_on_c, 6, 55, 0
1, 17758, Note_on_c, 6, 55, 73
1, 17761, Note_on_c, 9, 40, 98
1, 17762, Note_on_c, 9, 40, 0
1, 17762, Note_on_c, 9, 28, 94
1, 17763, Note_on_c, 9, 28, 0
1, 17763, Note_on_c, 4, 42, 127
1, 17767, Note_on_c, 4, 49, 127
1, 17769, Note_on_c, 1, 45, 0
1, 17804, Note_on_c, 6, 55, 0
1, 17807, Note_on_c, 0, 66, 117
1, 17807, Note_on_c, 0, 62, 117
1, 17808, Note_on_c, 0, 57, 117
1, 17809, Note_on_c, 4, 42, 0
1, 17809, Note_on_c, 6, 55, 110
1, 17813, Note_on_c, 4, 49, 0
1, 17813, Note_on_c, 9, 38, 25
1, 17814, Note_on_c, 9, 38, 0
1, 17830, Note_on_c, 0, 57, 0
1, 17837, Note_on_c, 0, 62, 0
1, 17838, Note_on_c, 0, 66, 0
1, 17840, Pitch_bend_c, 2, 7808
1, 17840, Pitch_bend_c, 8, 8128
1, 17841, Pitch_bend_c, 8, 7808
1, 17845, Pitch_bend_c, 8, 7232
1, 17846, Pitch_bend_c, 2, 6368
1, 17846, Pitch_bend_c, 8, 6368
1, 17849, Pitch_bend_c, 8, 5376
1, 17850, Pitch_bend_c, 2, 5376
1, 17852, Pitch_bend_c, 8, 4160
1, 17853, Pitch_bend_c, 2, 2976
1, 17854, Note_on_c, 6, 54, 85
1, 17854, Pitch_bend_c, 8, 2976
1, 17855, Note_on_c, 6, 55, 0
1, 17855, Note_on_c, 1, 40, 123
1, 17856, Pitch_bend_c, 8, 1760
1, 17857, Pitch_bend_c, 2, 672
1, 17857, Note_on_c, 9, 38, 54
1, 17858, Pitch_bend_c, 8, 672
1, 17858, Note_on_c, 9, 35, 110
1, 17859, Note_on_c, 9, 35, 0
1, 17859, Note_on_c, 9, 38, 0
1, 17859, Note_on_c, 4, 43, 127
1, 17860, Pitch_bend_c, 8, 0
1, 17861, Pitch_bend_c, 2, 0
1, 17899, Note_on_c, 6, 54, 0
1, 17903, Note_on_c, 6, 55, 123
1, 17905, Note_on_c, 8, 42, 127
1, 17906, Note_on_c, 4, 43, 0
1, 17906, Note_on_c, 2, 42, 127
1, 17909, Note_on_c, 9, 38, 45
1, 17910, Note_on_c, 9, 38, 0
1, 17910, Note_on_c, 1, 40, 0
1, 17936, Pitch_bend_c, 8, 576
1, 17937, Pitch_bend_c, 2, 1312
1, 17938, Pitch_bend_c, 8, 1312
1, 17939, Pitch_bend_c, 8, 2176
1, 17940, Pitch_bend_c, 2, 3104
1, 17941, Pitch_bend_c, 8, 3104
1, 17942, Pitch_bend_c, 8, 3872
1, 17943, Pitch_bend_c, 2, 3872
1, 17946, Pitch_bend_c, 8, 4512
1, 17948, Pitch_bend_c, 2, 4512
1, 17949, Pitch_bend_c, 8, 4928
1, 17950, Note_on_c, 6, 54, 123
1, 17951, Note_on_c, 6, 55, 0
1, 17951, Pitch_bend_c, 2, 5312
1, 17952, Note_on_c, 0, 64, 117
1, 17952, Note_on_c, 1, 42, 124
1, 17953, Note_on_c, 0, 61, 117
1, 17953, Note_on_c, 9, 40, 97
1, 17953, Note_on_c, 9, 28, 90
1, 17954, Note_on_c, 9, 40, 0
1, 17954, Note_on_c, 0, 57, 117
1, 17955, Note_on_c, 9, 28, 0
1, 17955, Pitch_bend_c, 8, 5312
1, 17956, Pitch_bend_c, 8, 5664
1, 17957, Pitch_bend_c, 2, 6080
1, 17958, Note_on_c, 4, 42, 127
1, 17959, Pitch_bend_c, 8, 6080
1, 17960, Note_on_c, 4, 49, 127
1, 17961, Pitch_bend_c, 8, 6496
1, 17962, Pitch_bend_c, 2, 6496
1, 17962, Control_c, 8, 1, 1
1, 17963, Control_c, 2, 1, 1
1, 17964, Control_c, 8, 1, 4
1, 17965, Control_c, 2, 1, 6
1, 17965, Control_c, 8, 1, 6
1, 17966, Pitch_bend_c, 8, 7296
1, 17967, Pitch_bend_c, 2, 7584
1, 17967, Control_c, 8, 1, 8
1, 17968, Pitch_bend_c, 8, 7584
1, 17969, Control_c, 2, 1, 8
1, 17970, Pitch_bend_c, 8, 7904
1, 17971, Pitch_bend_c, 2, 7904
1, 17972, Control_c, 8, 1, 6
1, 17972, Pitch_bend_c, 8, 8064
1, 17973, Control_c, 8, 1, 4
1, 17974, Pitch_bend_c, 8, 8160
1, 17975, Control_c, 2, 1, 4
1, 17976, Pitch_bend_c, 2, 8160
1, 17976, Pitch_bend_c, 8, 8192
1, 17977, Pitch_bend_c, 2, 8192
1, 17977, Note_on_c, 9, 38, 31
1, 17978, Note_on_c, 9, 38, 0
1, 17979, Control_c, 8, 1, 5
1, 17980, Control_c, 2, 1, 8
1, 17981, Control_c, 8, 1, 7
1, 17983, Control_c, 8, 1, 8
1, 17985, Control_c, 8, 1, 9
1, 17986, Note_on_c, 0, 57, 0
1, 17986, Control_c, 2, 1, 9
1, 17989, Control_c, 8, 1, 10
1, 17990, Control_c, 2, 1, 10
1, 17993, Control_c, 8, 1, 11
1, 17994, Control_c, 2, 1, 13
1, 17994, Control_c, 8, 1, 13
1, 17995, Note_on_c, 1, 42, 0
1, 17996, Note_on_c, 6, 54, 0
1, 17999, Note_on_c, 0, 64, 0
1, 17999, Control_c, 8, 1, 15
1, 18000, Note_on_c, 0, 61, 0
1, 18000, Control_c, 2, 1, 18
1, 18000, Note_on_c, 6, 55, 127
1, 18001, Control_c, 8, 1, 18
1, 18002, Control_c, 8, 1, 20
1, 18003, Control_c, 2, 1, 23
1, 18004, Control_c, 8, 1, 23
1, 18005, Note_on_c, 4, 42, 0
1, 18005, Note_on_c, 9, 38, 35
1, 18006, Note_on_c, 9, 38, 0
1, 18007, Note_on_c, 4, 49, 0
1, 18008, Control_c, 8, 1, 25
1, 18009, Control_c, 2, 1, 28
1, 18009, Control_c, 8, 1, 28
1, 18011, Control_c, 8, 1, 32
1, 18012, Control_c, 2, 1, 32
1, 18014, Pitch_bend_c, 3, 8192
1, 18015, Control_c, 8, 1, 35
1, 18016, Control_c, 2, 1, 38
1, 18017, Control_c, 8, 1, 38
1, 18022, Control_c, 2, 1, 42
1, 18022, Control_c, 8, 1, 42
1, 18025, Control_c, 8, 1, 44
1, 18025, Note_on_c, 9, 38, 45
1, 18026, Note_on_c, 9, 38, 0
1, 18026, Control_c, 2, 1, 46
1, 18027, Control_c, 8, 1, 46
1, 18029, Control_c, 8, 1, 49
1, 18030, Control_c, 2, 1, 51
1, 18031, Control_c, 8, 1, 51
1, 18033, Control_c, 2, 1, 56
1, 18033, Control_c, 8, 1, 53
1, 18037, Control_c, 8, 1, 56
1, 18038, Note_on_c, 8, 42, 0
1, 18039, Control_c, 8, 1, 58
1, 18040, Note_on_c, 2, 42, 0
1, 18041, Control_c, 2, 1, 60
1, 18041, Control_c, 8, 1, 60
1, 18042, Control_c, 8, 1, 62
1, 18043, Control_c, 2, 1, 62
1, 18046, Control_c, 2, 1, 66
1, 18046, Control_c, 8, 1, 63
1, 18048, Note_on_c, 6, 55, 0
1, 18048, Note_on_c, 1, 45, 123
1, 18049, Note_on_c, 8, 45, 114
1, 18049, Note_on_c, 9, 38, 53
1, 18050, Control_c, 8, 1, 65
1, 18050, Note_on_c, 9, 35, 111
1, 18051, Note_on_c, 2, 45, 114
1, 18052, Note_on_c, 9, 35, 0
1, 18052, Note_on_c, 9, 38, 0
1, 18052, Control_c, 8, 1, 66
1, 18053, Note_on_c, 4, 45, 127
1, 18054, Control_c, 8, 1, 67
1, 18055, Control_c, 2, 1, 67
1, 18056, Control_c, 8, 1, 68
1, 18057, Control_c, 2, 1, 69
1, 18058, Control_c, 8, 1, 69
1, 18059, Control_c, 8, 1, 70
1, 18060, Control_c, 2, 1, 72
1, 18061, Control_c, 8, 1, 71
1, 18064, Control_c, 8, 1, 72
1, 18072, Control_c, 8, 1, 73
1, 18073, Control_c, 2, 1, 73
1, 18076, Control_c, 8, 1, 75
1, 18077, Control_c, 2, 1, 75
1, 18078, Control_c, 2, 1, 78
1, 18078, Control_c, 8, 1, 76
1, 18079, Control_c, 8, 1, 77
1, 18082, Control_c, 8, 1, 78
1, 18086, Control_c, 8, 1, 79
1, 18088, Control_c, 2, 1, 78
1, 18091, Control_c, 8, 1, 78
1, 18092, Control_c, 2, 1, 76
1, 18092, Control_c, 8, 1, 77
1, 18093, Control_c, 8, 1, 76
1, 18096, Note_on_c, 4, 45, 0
1, 18097, Control_c, 8, 1, 73
1, 18098, Control_c, 2, 1, 71
1, 18099, Control_c, 8, 1, 71
1, 18101, Control_c, 8, 1, 68
1, 18101, Note_on_c, 9, 38, 42
1, 18102, Note_on_c, 9, 38, 0
1, 18102, Control_c, 2, 1, 65
1, 18103, Control_c, 8, 1, 65
1, 18105, Control_c, 8, 1, 60
1, 18106, Control_c, 2, 1, 55
1, 18109, Control_c, 8, 1, 55
1, 18111, Control_c, 8, 1, 47
1, 18112, Control_c, 2, 1, 39
1, 18113, Control_c, 8, 1, 39
1, 18115, Control_c, 8, 1, 30
1, 18116, Control_c, 2, 1, 21
1, 18117, Control_c, 8, 1, 21
1, 18120, Control_c, 8, 1, 14
1, 18122, Control_c, 2, 1, 14
1, 18122, Control_c, 8, 1, 9
1, 18123, Control_c, 2, 1, 2
1, 18125, Control_c, 8, 1, 5
1, 18126, Control_c, 8, 1, 2
1, 18129, Control_c, 2, 1, 0
1, 18129, Control_c, 8, 1, 0
1, 18142, Note_on_c, 6, 57, 127
1, 18142, Note_on_c, 6, 52, 127
1, 18143, Note_on_c, 0, 64, 117
1, 18144, Note_on_c, 0, 61, 117
1, 18144, Note_on_c, 0, 67, 117
1, 18144, Note_on_c, 9, 40, 97
1, 18145, Note_on_c, 0, 57, 113
1, 18146, Note_on_c, 9, 40, 0
1, 18146, Note_on_c, 8, 52, 87
1, 18146, Note_on_c, 9, 28, 91
1, 18147, Note_on_c, 9, 28, 0
1, 18147, Note_on_c, 8, 57, 88
1, 18148, Note_on_c, 2, 52, 87
1, 18149, Note_on_c, 1, 45, 0
1, 18149, Note_on_c, 2, 57, 88
1, 18150, Note_on_c, 4, 42, 127
1, 18151, Note_on_c, 6, 52, 0
1, 18152, Note_on_c, 6, 57, 0
1, 18153, Note_on_c, 4, 49, 127
1, 18158, Note_on_c, 8, 45, 0
1, 18159, Note_on_c, 2, 45, 0
1, 18161, Note_on_c, 0, 57, 0
1, 18164, Note_on_c, 8, 57, 0
1, 18164, Note_on_c, 8, 52, 0
1, 18164, Note_on_c, 2, 57, 0
1, 18165, Note_on_c, 2, 52, 0
1, 18176, Note_on_c, 0, 64, 0
1, 18177, Note_on_c, 0, 67, 0
1, 18189, Note_on_c, 0, 61, 0
1, 18192, Note_on_c, 1, 45, 108
1, 18192, Note_on_c, 6, 52, 65
1, 18193, Note_on_c, 6, 57, 73
1, 18193, Note_on_c, 9, 35, 68
1, 18194, Note_on_c, 9, 35, 0
1, 18194, Note_on_c, 6, 52, 0
1, 18195, Note_on_c, 6, 57, 0
1, 18196, Note_on_c, 4, 49, 0
1, 18197, Note_on_c, 4, 42, 0
1, 18197, Note_on_c, 9, 38, 27
1, 18198, Note_on_c, 9, 38, 0
1, 18208, Note_on_c, 1, 45, 0
1, 18237, Note_on_c, 6, 52, 65
1, 18237, Note_on_c, 6, 57, 60
1, 18240, Note_on_c, 6, 57, 0
1, 18240, Note_on_c, 6, 52, 0
1, 18240, Note_on_c, 1, 43, 121
1, 18241, Note_on_c, 9, 38, 52
1, 18242, Note_on_c, 9, 35, 110
1, 18243, Note_on_c, 9, 35, 0
1, 18244, Note_on_c, 9, 38, 0
1, 18244, Note_on_c, 4, 40, 127
1, 18268, Pitch_bend_c, 2, 3360
1, 18268, Pitch_bend_c, 6, 4200
1, 18270, Pitch_bend_c, 2, 4200
1, 18287, Note_on_c, 0, 61, 117
1, 18288, Note_on_c, 0, 64, 117
1, 18288, Note_on_c, 0, 67, 99
1, 18289, Note_on_c, 1, 43, 0
1, 18289, Note_on_c, 0, 57, 114
1, 18290, Note_on_c, 6, 52, 127
1, 18293, Note_on_c, 9, 38, 47
1, 18294, Note_on_c, 9, 38, 0
1, 18301, Note_on_c, 4, 40, 0
1, 18319, Note_on_c, 0, 67, 0
1, 18320, Note_on_c, 0, 64, 0
1, 18322, Note_on_c, 0, 57, 0
1, 18322, Note_on_c, 0, 61, 0
1, 18328, Pitch_bend_c, 6, 3552
1, 18329, Pitch_bend_c, 2, 3552
1, 18332, Pitch_bend_c, 2, 3680
1, 18332, Pitch_bend_c, 6, 3680
1, 18333, Pitch_bend_c, 6, 4224
1, 18334, Pitch_bend_c, 2, 3936
1, 18336, Note_on_c, 1, 42, 127
1, 18336, Pitch_bend_c, 2, 4224
1, 18337, Note_on_c, 9, 40, 96
1, 18338, Note_on_c, 9, 40, 0
1, 18338, Pitch_bend_c, 6, 4672
1, 18338, Note_on_c, 9, 28, 92
1, 18339, Note_on_c, 9, 28, 0
1, 18339, Pitch_bend_c, 2, 4672
1, 18340, Note_on_c, 4, 42, 127
1, 18341, Pitch_bend_c, 6, 5792
1, 18342, Pitch_bend_c, 2, 5184
1, 18343, Note_on_c, 4, 49, 127
1, 18344, Pitch_bend_c, 2, 5792
1, 18346, Pitch_bend_c, 6, 6496
1, 18347, Pitch_bend_c, 2, 6496
1, 18348, Pitch_bend_c, 6, 7712
1, 18349, Pitch_bend_c, 2, 7200
1, 18350, Pitch_bend_c, 2, 7712
1, 18353, Pitch_bend_c, 6, 8064
1, 18354, Pitch_bend_c, 2, 8064
1, 18355, Pitch_bend_c, 6, 8192
1, 18357, Pitch_bend_c, 2, 8192
1, 18375, Note_on_c, 4, 42, 0
1, 18376, Note_on_c, 4, 49, 0
1, 18385, Note_on_c, 2, 57, 106
1, 18386, Note_on_c, 6, 52, 0
1, 18387, Note_on_c, 6, 57, 127
1, 18388, Note_on_c, 9, 38, 23
1, 18390, Note_on_c, 9, 38, 0
1, 18393, Note_on_c, 4, 45, 127
1, 18394, Note_on_c, 4, 57, 127
1, 18402, Note_on_c, 2, 57, 0
1, 18427, Note_on_c, 1, 42, 0
1, 18429, Note_on_c, 4, 57, 0
1, 18430, Note_on_c, 4, 45, 0
1, 18431, Note_on_c, 0, 57, 117
1, 18431, Note_on_c, 0, 61, 117
1, 18432, Note_on_c, 0, 64, 117
1, 18432, Note_on_c, 1, 45, 124
1, 18433, Note_on_c, 0, 67, 102
1, 18433, Note_on_c, 9, 38, 43
1, 18434, Note_on_c, 9, 35, 111
1, 18436, Note_on_c, 9, 35, 0
1, 18436, Note_on_c, 9, 38, 0
1, 18437, Note_on_c, 4, 45, 127
1, 18462, Note_on_c, 0, 67, 0
1, 18463, Note_on_c, 0, 64, 0
1, 18465, Note_on_c, 0, 61, 0
1, 18467, Note_on_c, 0, 57, 0
1, 18476, Note_on_c, 4, 45, 0
1, 18480, Note_on_c, 6, 57, 0
1, 18482, Note_on_c, 6, 52, 65
1, 18482, Note_on_c, 6, 57, 73
1, 18483, Note_on_c, 6, 52, 0
1, 18484, Note_on_c, 9, 38, 45
1, 18485, Note_on_c, 9, 38, 0
1, 18485, Note_on_c, 6, 57, 0
1, 18487, Note_on_c, 4, 42, 127
1, 18489, Note_on_c, 4, 57, 127
1, 18520, Note_on_c, 4, 42, 0
1, 18524, Note_on_c, 4, 57, 0
1, 18527, Note_on_c, 6, 52, 65
1, 18529, Note_on_c, 6, 57, 60
1, 18529, Note_on_c, 9, 40, 98
1, 18530, Note_on_c, 9, 40, 0
1, 18530, Note_on_c, 6, 57, 0
1, 18530, Note_on_c, 9, 28, 94
1, 18531, Note_on_c, 9, 28, 0
1, 18531, Note_on_c, 6, 52, 0
1, 18532, Note_on_c, 4, 42, 127
1, 18535, Note_on_c, 4, 49, 127
1, 18541, Note_on_c, 1, 45, 0
1, 18574, Note_on_c, 0, 61, 117
1, 18575, Note_on_c, 0, 57, 117
1, 18576, Note_on_c, 0, 64, 117
1, 18577, Note_on_c, 0, 67, 99
1, 18578, Note_on_c, 4, 42, 0
1, 18578, Note_on_c, 6, 52, 65
1, 18579, Note_on_c, 6, 57, 73
1, 18580, Note_on_c, 6, 52, 0
1, 18581, Note_on_c, 4, 49, 0
1, 18581, Note_on_c, 6, 57, 0
1, 18581, Note_on_c, 9, 38, 25
1, 18582, Note_on_c, 9, 38, 0
1, 18604, Note_on_c, 0, 67, 0
1, 18605, Note_on_c, 0, 64, 0
1, 18607, Pitch_bend_c, 8, 8128
1, 18608, Note_on_c, 0, 57, 0
1, 18608, Pitch_bend_c, 2, 8128
1, 18609, Pitch_bend_c, 8, 7808
1, 18610, Pitch_bend_c, 2, 7808
1, 18611, Note_on_c, 0, 61, 0
1, 18613, Pitch_bend_c, 8, 7232
1, 18614, Pitch_bend_c, 2, 7232
1, 18614, Pitch_bend_c, 8, 6368
1, 18615, Pitch_bend_c, 2, 5376
1, 18617, Pitch_bend_c, 8, 5376
1, 18619, Pitch_bend_c, 8, 4160
1, 18621, Pitch_bend_c, 2, 4160
1, 18622, Note_on_c, 6, 52, 127
1, 18622, Pitch_bend_c, 8, 2976
1, 18623, Note_on_c, 1, 40, 117
1, 18623, Pitch_bend_c, 2, 1760
1, 18624, Note_on_c, 6, 57, 127
1, 18624, Note_on_c, 9, 38, 54
1, 18625, Pitch_bend_c, 8, 1760
1, 18625, Note_on_c, 9, 35, 110
1, 18626, Note_on_c, 2, 57, 107
1, 18627, Note_on_c, 9, 35, 0
1, 18627, Note_on_c, 9, 38, 0
1, 18627, Pitch_bend_c, 8, 672
1, 18628, Pitch_bend_c, 2, 672
1, 18629, Note_on_c, 4, 43, 127
1, 18630, Pitch_bend_c, 8, 0
1, 18631, Pitch_bend_c, 2, 0
1, 18637, Note_on_c, 6, 52, 0
1, 18638, Note_on_c, 6, 57, 0
1, 18640, Note_on_c, 2, 57, 0
1, 18672, Note_on_c, 1, 40, 0
1, 18672, Note_on_c, 6, 52, 78
1, 18673, Note_on_c, 8, 42, 127
1, 18674, Note_on_c, 4, 43, 0
1, 18675, Note_on_c, 2, 42, 127
1, 18676, Note_on_c, 6, 57, 73
1, 18677, Note_on_c, 6, 57, 0
1, 18677, Note_on_c, 9, 40, 65
1, 18678, Note_on_c, 9, 40, 0
1, 18704, Pitch_bend_c, 8, 576
1, 18705, Pitch_bend_c, 2, 576
1, 18706, Pitch_bend_c, 8, 2176
1, 18707, Pitch_bend_c, 2, 2176
1, 18710, Pitch_bend_c, 8, 3872
1, 18711, Pitch_bend_c, 2, 3872
1, 18715, Pitch_bend_c, 8, 4512
1, 18716, Pitch_bend_c, 2, 4512
1, 18717, Pitch_bend_c, 8, 4928
1, 18718, Pitch_bend_c, 2, 4928
1, 18718, Note_on_c, 6, 54, 127
1, 18719, Note_on_c, 0, 61, 117
1, 18720, Note_on_c, 0, 67, 98
1, 18720, Note_on_c, 1, 42, 124
1, 18721, Note_on_c, 0, 64, 117
1, 18721, Note_on_c, 9, 40, 97
1, 18721, Note_on_c, 9, 28, 90
1, 18722, Note_on_c, 9, 40, 0
1, 18722, Note_on_c, 0, 57, 117
1, 18723, Note_on_c, 9, 28, 0
1, 18723, Note_on_c, 2, 54, 107
1, 18724, Pitch_bend_c, 8, 5312
1, 18725, Note_on_c, 6, 52, 0
1, 18726, Pitch_bend_c, 2, 5664
1, 18727, Pitch_bend_c, 8, 5664
1, 18728, Note_on_c, 4, 42, 127
1, 18729, Pitch_bend_c, 8, 6080
1, 18730, Pitch_bend_c, 2, 6496
1, 18731, Note_on_c, 4, 49, 127
1, 18732, Pitch_bend_c, 8, 6496
1, 18732, Control_c, 8, 1, 1
1, 18733, Control_c, 2, 1, 4
1, 18734, Control_c, 8, 1, 6
1, 18735, Pitch_bend_c, 8, 7296
1, 18736, Control_c, 2, 1, 8
1, 18736, Pitch_bend_c, 2, 7296
1, 18737, Control_c, 8, 1, 8
1, 18738, Pitch_bend_c, 2, 7904
1, 18738, Pitch_bend_c, 8, 7584
1, 18739, Note_on_c, 2, 54, 0
1, 18739, Pitch_bend_c, 8, 7904
1, 18740, Control_c, 8, 1, 6
1, 18741, Pitch_bend_c, 8, 8064
1, 18742, Control_c, 8, 1, 4
1, 18743, Control_c, 2, 1, 4
1, 18743, Pitch_bend_c, 8, 8160
1, 18744, Pitch_bend_c, 2, 8064
1, 18745, Pitch_bend_c, 2, 8160
1, 18746, Pitch_bend_c, 8, 8192
1, 18747, Pitch_bend_c, 2, 8192
1, 18748, Control_c, 2, 1, 5
1, 18748, Control_c, 8, 1, 5
1, 18749, Control_c, 8, 1, 7
1, 18750, Control_c, 2, 1, 9
1, 18751, Control_c, 8, 1, 8
1, 18753, Control_c, 8, 1, 9
1, 18754, Note_on_c, 0, 67, 0
1, 18757, Control_c, 8, 1, 10
1, 18758, Note_on_c, 0, 61, 0
1, 18758, Note_on_c, 0, 64, 0
1, 18759, Note_on_c, 0, 57, 0
1, 18760, Control_c, 2, 1, 10
1, 18761, Control_c, 8, 1, 11
1, 18762, Control_c, 2, 1, 11
1, 18763, Control_c, 8, 1, 13
1, 18764, Control_c, 2, 1, 13
1, 18766, Control_c, 8, 1, 15
1, 18767, Control_c, 2, 1, 20
1, 18768, Note_on_c, 6, 52, 127
1, 18769, Note_on_c, 6, 54, 0
1, 18769, Control_c, 8, 1, 18
1, 18771, Control_c, 8, 1, 20
1, 18772, Note_on_c, 1, 42, 0
1, 18772, Control_c, 8, 1, 23
1, 18773, Note_on_c, 4, 42, 0
1, 18773, Note_on_c, 9, 38, 25
1, 18774, Note_on_c, 9, 38, 0
1, 18774, Control_c, 2, 1, 23
1, 18775, Note_on_c, 4, 49, 0
1, 18776, Control_c, 8, 1, 25
1, 18777, Control_c, 8, 1, 28
1, 18778, Control_c, 2, 1, 32
1, 18780, Control_c, 8, 1, 32
1, 18783, Control_c, 8, 1, 35
1, 18784, Control_c, 2, 1, 35
1, 18785, Control_c, 8, 1, 38
1, 18786, Control_c, 2, 1, 38
1, 18791, Control_c, 8, 1, 42
1, 18792, Control_c, 2, 1, 42
1, 18793, Control_c, 2, 1, 49
1, 18793, Control_c, 8, 1, 44
1, 18794, Control_c, 8, 1, 46
1, 18796, Control_c, 8, 1, 49
1, 18799, Control_c, 8, 1, 51
1, 18800, Control_c, 2, 1, 53
1, 18801, Control_c, 8, 1, 53
1, 18805, Control_c, 8, 1, 56
1, 18806, Note_on_c, 8, 42, 0
1, 18806, Control_c, 2, 1, 56
1, 18807, Control_c, 8, 1, 58
1, 18808, Note_on_c, 2, 42, 0
1, 18809, Control_c, 2, 1, 62
1, 18809, Control_c, 8, 1, 60
1, 18810, Control_c, 8, 1, 62
1, 18813, Control_c, 8, 1, 63
1, 18814, Control_c, 2, 1, 63
1, 18816, Note_on_c, 1, 45, 124
1, 18816, Note_on_c, 6, 45, 127
1, 18817, Note_on_c, 8, 45, 114
1, 18817, Note_on_c, 9, 38, 53
1, 18818, Control_c, 8, 1, 65
1, 18818, Note_on_c, 9, 35, 111
1, 18819, Note_on_c, 2, 45, 114
1, 18820, Note_on_c, 9, 35, 0
1, 18820, Note_on_c, 9, 38, 0
1, 18820, Control_c, 8, 1, 66
1, 18821, Control_c, 2, 1, 66
1, 18822, Note_on_c, 6, 52, 0
1, 18823, Note_on_c, 4, 45, 127
1, 18824, Control_c, 8, 1, 67
1, 18825, Control_c, 2, 1, 68
1, 18826, Control_c, 8, 1, 68
1, 18827, Control_c, 8, 1, 69
1, 18828, Control_c, 2, 1, 70
1, 18829, Control_c, 8, 1, 70
1, 18830, Control_c, 8, 1, 71
1, 18831, Control_c, 2, 1, 72
1, 18832, Control_c, 8, 1, 72
1, 18840, Control_c, 8, 1, 73
1, 18841, Control_c, 2, 1, 73
1, 18843, Control_c, 8, 1, 75
1, 18845, Control_c, 2, 1, 76
1, 18846, Control_c, 8, 1, 76
1, 18848, Control_c, 8, 1, 77
1, 18849, Control_c, 2, 1, 78
1, 18850, Control_c, 8, 1, 78
1, 18855, Control_c, 8, 1, 79
1, 18856, Control_c, 2, 1, 79
1, 18858, Control_c, 8, 1, 77
1, 18859, Control_c, 2, 1, 77
1, 18861, Control_c, 8, 1, 76
1, 18862, Control_c, 2, 1, 73
1, 18864, Note_on_c, 4, 45, 0
1, 18865, Control_c, 8, 1, 73
1, 18867, Control_c, 8, 1, 71
1, 18868, Control_c, 2, 1, 68
1, 18869, Control_c, 8, 1, 68
1, 18869, Note_on_c, 9, 38, 42
1, 18870, Note_on_c, 9, 38, 0
1, 18871, Control_c, 8, 1, 65
1, 18872, Control_c, 2, 1, 60
1, 18873, Control_c, 8, 1, 60
1, 18877, Control_c, 8, 1, 55
1, 18878, Control_c, 2, 1, 55
1, 18879, Control_c, 8, 1, 47
1, 18880, Control_c, 2, 1, 30
1, 18881, Control_c, 8, 1, 39
1, 18883, Control_c, 8, 1, 30
1, 18885, Control_c, 8, 1, 21
1, 18886, Control_c, 2, 1, 21
1, 18889, Control_c, 2, 1, 9
1, 18889, Control_c, 8, 1, 14
1, 18890, Control_c, 8, 1, 9
1, 18893, Control_c, 2, 1, 2
1, 18893, Control_c, 8, 1, 5
1, 18894, Control_c, 8, 1, 2
1, 18895, Note_on_c, 6, 45, 0
1, 18898, Control_c, 8, 1, 0
1, 18899, Control_c, 2, 1, 0
1, 18909, Note_on_c, 6, 52, 127
1, 18910, Note_on_c, 6, 57, 127
1, 18912, Note_on_c, 0, 61, 117
1, 18912, Note_on_c, 0, 57, 117
1, 18912, Note_on_c, 0, 64, 117
1, 18912, Note_on_c, 9, 40, 97
1, 18913, Note_on_c, 0, 67, 110
1, 18914, Note_on_c, 9, 40, 0
1, 18914, Note_on_c, 8, 52, 87
1, 18914, Note_on_c, 9, 28, 91
1, 18915, Note_on_c, 9, 28, 0
1, 18915, Note_on_c, 8, 57, 88
1, 18916, Note_on_c, 2, 52, 87
1, 18917, Note_on_c, 2, 57, 88
1, 18918, Note_on_c, 1, 45, 0
1, 18918, Note_on_c, 4, 42, 127
1, 18919, Note_on_c, 6, 52, 0
1, 18920, Note_on_c, 6, 57, 0
1, 18921, Note_on_c, 4, 49, 127
1, 18926, Note_on_c, 8, 45, 0
1, 18927, Note_on_c, 2, 45, 0
1, 18931, Note_on_c, 8, 57, 0
1, 18932, Note_on_c, 8, 52, 0
1, 18932, Note_on_c, 2, 57, 0
1, 18933, Note_on_c, 2, 52, 0
1, 18940, Note_on_c, 0, 67, 0
1, 18944, Note_on_c, 0, 64, 0
1, 18945, Note_on_c, 0, 57, 0
1, 18946, Note_on_c, 0, 61, 0
1, 18960, Note_on_c, 1, 45, 107
1, 18960, Note_on_c, 6, 52, 65
1, 18961, Note_on_c, 6, 57, 73
1, 18961, Note_on_c, 9, 35, 68
1, 18962, Note_on_c, 9, 35, 0
1, 18962, Note_on_c, 6, 52, 0
1, 18963, Note_on_c, 6, 57, 0
1, 18964, Note_on_c, 4, 49, 0
1, 18965, Note_on_c, 4, 42, 0
1, 18965, Note_on_c, 9, 38, 27
1, 18966, Note_on_c, 9, 38, 0
1, 18982, Note_on_c, 1, 45, 0
1, 19005, Note_on_c, 6, 52, 65
1, 19006, Note_on_c, 6, 57, 60
1, 19008, Note_on_c, 6, 57, 0
1, 19008, Note_on_c, 6, 52, 0
1, 19008, Note_on_c, 1, 43, 119
1, 19009, Note_on_c, 9, 38, 52
1, 19010, Note_on_c, 9, 35, 110
1, 19011, Note_on_c, 9, 35, 0
1, 19012, Note_on_c, 9, 38, 0
1, 19012, Note_on_c, 4, 40, 127
1, 19056, Note_on_c, 1, 43, 0
1, 19056, Note_on_c, 0, 61, 117
1, 19056, Note_on_c, 0, 57, 117
1, 19056, Note_on_c, 0, 64, 117
1, 19057, Note_on_c, 0, 67, 105
1, 19058, Note_on_c, 2, 57, 107
1, 19059, Note_on_c, 6, 52, 127
1, 19060, Note_on_c, 6, 57, 127
1, 19061, Note_on_c, 9, 38, 47
1, 19062, Note_on_c, 9, 38, 0
1, 19069, Note_on_c, 4, 40, 0
1, 19073, Note_on_c, 2, 57, 0
1, 19074, Note_on_c, 6, 57, 0
1, 19076, Note_on_c, 6, 52, 0
1, 19084, Note_on_c, 0, 67, 0
1, 19085, Note_on_c, 0, 64, 0
1, 19087, Note_on_c, 0, 57, 0
1, 19088, Note_on_c, 0, 61, 0
1, 19104, Note_on_c, 1, 42, 120
1, 19105, Note_on_c, 9, 40, 96
1, 19106, Note_on_c, 9, 40, 0
1, 19106, Note_on_c, 9, 28, 92
1, 19107, Note_on_c, 9, 28, 0
1, 19108, Note_on_c, 4, 42, 127
1, 19111, Note_on_c, 4, 49, 127
1, 19142, Note_on_c, 4, 42, 0
1, 19144, Note_on_c, 4, 49, 0
1, 19151, Note_on_c, 2, 57, 107
1, 19151, Note_on_c, 6, 52, 127
1, 19152, Note_on_c, 6, 57, 127
1, 19157, Note_on_c, 9, 38, 23
1, 19158, Note_on_c, 9, 38, 0
1, 19161, Note_on_c, 4, 45, 127
1, 19162, Note_on_c, 4, 57, 127
1, 19169, Note_on_c, 2, 57, 0
1, 19170, Note_on_c, 6, 57, 0
1, 19172, Note_on_c, 6, 52, 0
1, 19197, Note_on_c, 1, 42, 0
1, 19197, Note_on_c, 4, 57, 0
1, 19198, Note_on_c, 4, 45, 0
1, 19199, Note_on_c, 0, 61, 117
1, 19199, Note_on_c, 1, 45, 124
1, 19200, Note_on_c, 0, 57, 117
1, 19200, Note_on_c, 0, 67, 111
1, 19201, Note_on_c, 0, 64, 117
1, 19201, Note_on_c, 9, 38, 43
1, 19202, Note_on_c, 9, 35, 111
1, 19204, Note_on_c, 9, 35, 0
1, 19204, Note_on_c, 9, 38, 0
1, 19205, Note_on_c, 4, 45, 127
1, 19232, Note_on_c, 0, 64, 0
1, 19233, Note_on_c, 0, 67, 0
1, 19234, Note_on_c, 0, 57, 0
1, 19239, Note_on_c, 0, 61, 0
1, 19244, Note_on_c, 4, 45, 0
1, 19247, Note_on_c, 6, 55, 85
1, 19253, Note_on_c, 9, 38, 45
1, 19254, Note_on_c, 9, 38, 0
1, 19254, Note_on_c, 4, 42, 127
1, 19258, Note_on_c, 4, 57, 127
1, 19288, Note_on_c, 4, 42, 0
1, 19291, Note_on_c, 4, 57, 0
1, 19294, Note_on_c, 6, 55, 0
1, 19294, Note_on_c, 6, 55, 73
1, 19297, Note_on_c, 9, 40, 98
1, 19298, Note_on_c, 9, 28, 94
1, 19299, Note_on_c, 9, 40, 0
1, 19299, Note_on_c, 4, 42, 127
1, 19300, Note_on_c, 9, 28, 0
1, 19303, Note_on_c, 1, 45, 0
1, 19304, Note_on_c, 4, 49, 127
1, 19338, Note_on_c, 6, 55, 0
1, 19342, Note_on_c, 0, 61, 117
1, 19343, Note_on_c, 0, 67, 111
1, 19344, Note_on_c, 0, 57, 117
1, 19345, Note_on_c, 0, 64, 117
1, 19345, Note_on_c, 6, 55, 110
1, 19346, Note_on_c, 4, 42, 0
1, 19349, Note_on_c, 4, 49, 0
1, 19349, Note_on_c, 9, 38, 25
1, 19350, Note_on_c, 9, 38, 0
1, 19372, Note_on_c, 0, 64, 0
1, 19373, Note_on_c, 0, 57, 0
1, 19375, Note_on_c, 0, 67, 0
1, 19375, Pitch_bend_c, 8, 8128
1, 19376, Pitch_bend_c, 2, 7808
1, 19377, Note_on_c, 0, 61, 0
1, 19378, Pitch_bend_c, 8, 7808
1, 19381, Pitch_bend_c, 8, 6368
1, 19382, Pitch_bend_c, 2, 7232
1, 19383, Pitch_bend_c, 2, 6368
1, 19385, Pitch_bend_c, 8, 5376
1, 19386, Pitch_bend_c, 2, 5376
1, 19387, Pitch_bend_c, 8, 4160
1, 19389, Pitch_bend_c, 2, 2976
1, 19390, Note_on_c, 6, 54, 85
1, 19390, Pitch_bend_c, 8, 2976
1, 19391, Note_on_c, 6, 55, 0
1, 19392, Note_on_c, 1, 40, 124
1, 19392, Pitch_bend_c, 8, 1760
1, 19393, Pitch_bend_c, 2, 672
1, 19393, Note_on_c, 9, 38, 54
1, 19394, Pitch_bend_c, 8, 672
1, 19394, Note_on_c, 9, 35, 110
1, 19395, Note_on_c, 4, 43, 127
1, 19396, Note_on_c, 9, 35, 0
1, 19396, Note_on_c, 9, 38, 0
1, 19397, Pitch_bend_c, 8, 0
1, 19398, Pitch_bend_c, 2, 0
1, 19417, Note_on_c, 9, 38, 35
1, 19419, Note_on_c, 9, 38, 0
1, 19436, Note_on_c, 6, 54, 0
1, 19438, Note_on_c, 1, 40, 0
1, 19440, Note_on_c, 6, 55, 123
1, 19441, Note_on_c, 8, 42, 127
1, 19442, Note_on_c, 4, 43, 0
1, 19442, Note_on_c, 2, 42, 127
1, 19445, Note_on_c, 9, 38, 45
1, 19446, Note_on_c, 9, 38, 0
1, 19465, Note_on_c, 9, 38, 35
1, 19466, Note_on_c, 9, 38, 0
1, 19472, Pitch_bend_c, 8, 576
1, 19473, Pitch_bend_c, 2, 1312
1, 19474, Pitch_bend_c, 8, 2176
1, 19476, Pitch_bend_c, 2, 3104
1, 19478, Pitch_bend_c, 8, 3104
1, 19479, Pitch_bend_c, 8, 3872
1, 19480, Pitch_bend_c, 2, 3872
1, 19482, Pitch_bend_c, 8, 4512
1, 19484, Pitch_bend_c, 2, 4928
1, 19485, Pitch_bend_c, 8, 4928
1, 19486, Note_on_c, 6, 55, 0
1, 19486, Note_on_c, 6, 54, 123
1, 19487, Note_on_c, 0, 61, 117
1, 19488, Note_on_c, 0, 67, 117
1, 19488, Note_on_c, 1, 42, 123
1, 19489, Note_on_c, 0, 57, 117
1, 19489, Note_on_c, 9, 40, 97
1, 19490, Note_on_c, 9, 40, 0
1, 19490, Note_on_c, 0, 64, 117
1, 19490, Note_on_c, 9, 28, 90
1, 19491, Note_on_c, 9, 28, 0
1, 19491, Pitch_bend_c, 8, 5312
1, 19492, Pitch_bend_c, 2, 5664
1, 19493, Pitch_bend_c, 8, 5664
1, 19494, Note_on_c, 4, 42, 127
1, 19495, Pitch_bend_c, 8, 6080
1, 19496, Pitch_bend_c, 2, 6080
1, 19497, Note_on_c, 4, 49, 127
1, 19498, Pitch_bend_c, 2, 6496
1, 19498, Pitch_bend_c, 8, 6496
1, 19499, Control_c, 8, 1, 1
1, 19500, Control_c, 2, 1, 4
1, 19500, Control_c, 8, 1, 4
1, 19501, Control_c, 8, 1, 6
1, 19502, Pitch_bend_c, 8, 7296
1, 19503, Control_c, 2, 1, 8
1, 19504, Pitch_bend_c, 2, 7296
1, 19505, Control_c, 8, 1, 8
1, 19506, Pitch_bend_c, 8, 7584
1, 19507, Pitch_bend_c, 2, 7584
1, 19508, Pitch_bend_c, 2, 7904
1, 19508, Control_c, 8, 1, 6
1, 19508, Pitch_bend_c, 8, 8064
1, 19509, Control_c, 8, 1, 4
1, 19510, Pitch_bend_c, 8, 8160
1, 19511, Control_c, 2, 1, 6
1, 19512, Pitch_bend_c, 2, 8160
1, 19512, Control_c, 2, 1, 4
1, 19513, Pitch_bend_c, 2, 8192
1, 19513, Pitch_bend_c, 8, 8192
1, 19515, Control_c, 8, 1, 5
1, 19516, Control_c, 2, 1, 7
1, 19517, Control_c, 8, 1, 7
1, 19518, Note_on_c, 0, 64, 0
1, 19519, Control_c, 8, 1, 8
1, 19520, Note_on_c, 0, 57, 0
1, 19520, Control_c, 2, 1, 9
1, 19521, Control_c, 8, 1, 9
1, 19522, Note_on_c, 0, 67, 0
1, 19523, Note_on_c, 0, 61, 0
1, 19525, Control_c, 2, 1, 10
1, 19525, Control_c, 8, 1, 10
1, 19529, Control_c, 8, 1, 11
1, 19530, Control_c, 2, 1, 13
1, 19531, Control_c, 8, 1, 13
1, 19532, Note_on_c, 6, 54, 0
1, 19534, Control_c, 8, 1, 15
1, 19535, Note_on_c, 1, 42, 0
1, 19535, Control_c, 2, 1, 15
1, 19536, Note_on_c, 6, 55, 127
1, 19537, Control_c, 8, 1, 18
1, 19538, Control_c, 2, 1, 23
1, 19538, Control_c, 8, 1, 20
1, 19540, Control_c, 8, 1, 23
1, 19541, Note_on_c, 4, 42, 0
1, 19541, Note_on_c, 9, 38, 25
1, 19542, Note_on_c, 9, 38, 0
1, 19542, Note_on_c, 4, 49, 0
1, 19543, Control_c, 8, 1, 25
1, 19544, Control_c, 8, 1, 28
1, 19545, Control_c, 2, 1, 25
1, 19546, Control_c, 2, 1, 32
1, 19548, Control_c, 8, 1, 32
1, 19551, Control_c, 8, 1, 35
1, 19552, Control_c, 2, 1, 38
1, 19553, Control_c, 8, 1, 38
1, 19558, Control_c, 8, 1, 42
1, 19559, Control_c, 2, 1, 42
1, 19561, Control_c, 8, 1, 44
1, 19562, Control_c, 2, 1, 44
1, 19563, Control_c, 8, 1, 46
1, 19564, Control_c, 2, 1, 51
1, 19565, Control_c, 8, 1, 49
1, 19567, Control_c, 8, 1, 51
1, 19569, Control_c, 8, 1, 53
1, 19570, Control_c, 2, 1, 53
1, 19573, Control_c, 2, 1, 58
1, 19573, Control_c, 8, 1, 56
1, 19574, Note_on_c, 8, 42, 0
1, 19575, Control_c, 8, 1, 58
1, 19576, Note_on_c, 2, 42, 0
1, 19577, Control_c, 8, 1, 60
1, 19578, Control_c, 2, 1, 62
1, 19578, Control_c, 8, 1, 62
1, 19582, Note_on_c, 6, 45, 127
1, 19582, Control_c, 8, 1, 63
1, 19583, Control_c, 2, 1, 65
1, 19584, Note_on_c, 6, 55, 0
1, 19584, Note_on_c, 1, 45, 119
1, 19585, Note_on_c, 8, 45, 114
1, 19585, Note_on_c, 9, 38, 53
1, 19586, Control_c, 8, 1, 65
1, 19586, Note_on_c, 9, 35, 111
1, 19587, Note_on_c, 2, 45, 114
1, 19588, Note_on_c, 9, 35, 0
1, 19588, Note_on_c, 9, 38, 0
1, 19588, Control_c, 8, 1, 66
1, 19589, Control_c, 2, 1, 67
1, 19590, Note_on_c, 4, 45, 127
1, 19591, Control_c, 8, 1, 67
1, 19592, Control_c, 8, 1, 68
1, 19593, Control_c, 2, 1, 68
1, 19594, Control_c, 8, 1, 69
1, 19595, Control_c, 2, 1, 71
1, 19596, Control_c, 8, 1, 70
1, 19597, Control_c, 8, 1, 71
1, 19600, Control_c, 8, 1, 72
1, 19601, Control_c, 2, 1, 72
1, 19607, Control_c, 8, 1, 73
1, 19609, Control_c, 2, 1, 75
1, 19611, Control_c, 8, 1, 75
1, 19614, Control_c, 2, 1, 77
1, 19614, Control_c, 8, 1, 76
1, 19616, Control_c, 8, 1, 77
1, 19618, Control_c, 8, 1, 78
1, 19619, Control_c, 2, 1, 78
1, 19623, Control_c, 8, 1, 79
1, 19624, Control_c, 2, 1, 78
1, 19625, Control_c, 8, 1, 78
1, 19627, Control_c, 8, 1, 77
1, 19628, Control_c, 2, 1, 76
1, 19629, Control_c, 8, 1, 76
1, 19632, Note_on_c, 4, 45, 0
1, 19633, Control_c, 8, 1, 73
1, 19634, Control_c, 2, 1, 73
1, 19635, Control_c, 8, 1, 71
1, 19636, Control_c, 2, 1, 65
1, 19636, Note_on_c, 9, 38, 42
1, 19637, Control_c, 8, 1, 68
1, 19638, Note_on_c, 9, 38, 0
1, 19639, Control_c, 8, 1, 65
1, 19640, Control_c, 8, 1, 60
1, 19643, Control_c, 2, 1, 60
1, 19645, Control_c, 8, 1, 55
1, 19646, Control_c, 2, 1, 47
1, 19647, Control_c, 8, 1, 47
1, 19649, Control_c, 8, 1, 39
1, 19650, Control_c, 2, 1, 21
1, 19651, Control_c, 8, 1, 30
1, 19653, Control_c, 8, 1, 21
1, 19657, Control_c, 8, 1, 14
1, 19658, Control_c, 2, 1, 14
1, 19659, Control_c, 8, 1, 9
1, 19660, Control_c, 2, 1, 5
1, 19661, Control_c, 8, 1, 5
1, 19662, Note_on_c, 6, 45, 0
1, 19663, Control_c, 8, 1, 2
1, 19664, Control_c, 2, 1, 0
1, 19666, Control_c, 8, 1, 0
1, 19678, Note_on_c, 6, 57, 127
1, 19678, Note_on_c, 6, 52, 127
1, 19679, Note_on_c, 0, 67, 111
1, 19680, Note_on_c, 0, 61, 117
1, 19681, Note_on_c, 0, 57, 117
1, 19681, Note_on_c, 0, 64, 117
1, 19681, Note_on_c, 9, 40, 97
1, 19682, Note_on_c, 9, 40, 0
1, 19682, Note_on_c, 8, 52, 87
1, 19682, Note_on_c, 9, 28, 91
1, 19683, Note_on_c, 9, 28, 0
1, 19683, Note_on_c, 8, 57, 88
1, 19684, Note_on_c, 2, 52, 87
1, 19685, Note_on_c, 2, 57, 88
1, 19686, Note_on_c, 4, 42, 127
1, 19687, Note_on_c, 6, 52, 0
1, 19688, Note_on_c, 6, 57, 0
1, 19689, Note_on_c, 4, 49, 127
1, 19691, Note_on_c, 1, 45, 0
1, 19694, Note_on_c, 8, 45, 0
1, 19695, Note_on_c, 2, 45, 0
1, 19698, Note_on_c, 8, 57, 0
1, 19699, Note_on_c, 8, 52, 0
1, 19700, Note_on_c, 2, 57, 0
1, 19701, Note_on_c, 2, 52, 0
1, 19711, Note_on_c, 0, 64, 0
1, 19713, Note_on_c, 0, 61, 0
1, 19714, Note_on_c, 0, 67, 0
1, 19717, Note_on_c, 0, 57, 0
1, 19728, Note_on_c, 1, 45, 116
1, 19728, Note_on_c, 6, 52, 65
1, 19729, Note_on_c, 9, 35, 68
1, 19730, Note_on_c, 9, 35, 0
1, 19730, Note_on_c, 6, 57, 73
1, 19731, Note_on_c, 6, 52, 0
1, 19732, Note_on_c, 6, 57, 0
1, 19732, Note_on_c, 9, 38, 27
1, 19733, Note_on_c, 4, 49, 0
1, 19734, Note_on_c, 4, 42, 0
1, 19734, Note_on_c, 9, 38, 0
1, 19743, Note_on_c, 1, 45, 0
1, 19773, Note_on_c, 6, 52, 65
1, 19774, Note_on_c, 6, 57, 60
1, 19776, Note_on_c, 6, 57, 0
1, 19776, Note_on_c, 6, 52, 0
1, 19776, Note_on_c, 1, 43, 119
1, 19777, Note_on_c, 9, 38, 52
1, 19777, Note_on_c, 9, 35, 110
1, 19779, Note_on_c, 9, 35, 0
1, 19779, Note_on_c, 9, 38, 0
1, 19780, Note_on_c, 4, 40, 127
1, 19803, Pitch_bend_c, 6, 3360
1, 19804, Pitch_bend_c, 2, 3360
1, 19805, Pitch_bend_c, 6, 4200
1, 19806, Pitch_bend_c, 2, 4200
1, 19823, Note_on_c, 0, 61, 117
1, 19824, Note_on_c, 1, 43, 0
1, 19824, Note_on_c, 0, 67, 104
1, 19824, Note_on_c, 0, 57, 117
1, 19825, Note_on_c, 0, 64, 117
1, 19826, Note_on_c, 6, 52, 127
1, 19829, Note_on_c, 9, 38, 47
1, 19830, Note_on_c, 9, 38, 0
1, 19837, Note_on_c, 4, 40, 0
1, 19854, Note_on_c, 0, 64, 0
1, 19854, Note_on_c, 0, 67, 0
1, 19855, Note_on_c, 0, 57, 0
1, 19859, Note_on_c, 0, 61, 0
1, 19864, Pitch_bend_c, 6, 3552
1, 19865, Pitch_bend_c, 2, 3552
1, 19868, Pitch_bend_c, 2, 3680
1, 19868, Pitch_bend_c, 6, 3936
1, 19870, Pitch_bend_c, 2, 3936
1, 19871, Pitch_bend_c, 6, 4224
1, 19872, Note_on_c, 1, 42, 117
1, 19872, Pitch_bend_c, 2, 4224
1, 19873, Note_on_c, 9, 40, 96
1, 19874, Note_on_c, 9, 40, 0
1, 19874, Pitch_bend_c, 6, 5184
1, 19874, Note_on_c, 9, 28, 92
1, 19875, Note_on_c, 9, 28, 0
1, 19875, Pitch_bend_c, 2, 4672
1, 19876, Note_on_c, 4, 42, 127
1, 19877, Pitch_bend_c, 2, 5184
1, 19878, Note_on_c, 4, 49, 127
1, 19879, Pitch_bend_c, 6, 5792
1, 19880, Pitch_bend_c, 2, 5792
1, 19882, Pitch_bend_c, 6, 6496
1, 19883, Pitch_bend_c, 2, 6496
1, 19884, Pitch_bend_c, 6, 7712
1, 19885, Pitch_bend_c, 2, 7200
1, 19886, Pitch_bend_c, 2, 7712
1, 19889, Pitch_bend_c, 6, 8064
1, 19890, Pitch_bend_c, 2, 8064
1, 19892, Pitch_bend_c, 6, 8192
1, 19893, Pitch_bend_c, 2, 8192
1, 19910, Note_on_c, 4, 42, 0
1, 19912, Note_on_c, 4, 49, 0
1, 19921, Note_on_c, 2, 57, 106
1, 19922, Note_on_c, 6, 52, 0
1, 19922, Note_on_c, 6, 57, 127
1, 19925, Note_on_c, 9, 38, 23
1, 19926, Note_on_c, 9, 38, 0
1, 19929, Note_on_c, 4, 45, 127
1, 19930, Note_on_c, 4, 57, 127
1, 19943, Note_on_c, 2, 57, 0
1, 19964, Note_on_c, 4, 57, 0
1, 19965, Note_on_c, 1, 42, 0
1, 19965, Note_on_c, 4, 45, 0
1, 19966, Note_on_c, 0, 61, 117
1, 19967, Note_on_c, 0, 67, 108
1, 19967, Note_on_c, 1, 45, 123
1, 19968, Note_on_c, 0, 64, 117
1, 19969, Note_on_c, 0, 57, 117
1, 19969, Note_on_c, 9, 38, 43
1, 19970, Note_on_c, 9, 35, 111
1, 19972, Note_on_c, 9, 35, 0
1, 19972, Note_on_c, 9, 38, 0
1, 19973, Note_on_c, 4, 45, 127
1, 20000, Note_on_c, 0, 57, 0
1, 20003, Note_on_c, 0, 67, 0
1, 20004, Note_on_c, 0, 64, 0
1, 20006, Note_on_c, 0, 61, 0
1, 20011, Note_on_c, 4, 45, 0
1, 20016, Note_on_c, 6, 57, 0
1, 20017, Note_on_c, 6, 52, 65
1, 20018, Note_on_c, 6, 57, 73
1, 20020, Note_on_c, 6, 52, 0
1, 20020, Note_on_c, 9, 38, 45
1, 20021, Note_on_c, 9, 38, 0
1, 20021, Note_on_c, 6, 57, 0
1, 20023, Note_on_c, 4, 42, 127
1, 20025, Note_on_c, 4, 57, 127
1, 20055, Note_on_c, 4, 42, 0
1, 20059, Note_on_c, 4, 57, 0
1, 20064, Note_on_c, 6, 52, 65
1, 20064, Note_on_c, 6, 57, 60
1, 20064, Note_on_c, 9, 40, 98
1, 20065, Note_on_c, 9, 28, 94
1, 20066, Note_on_c, 9, 40, 0
1, 20066, Note_on_c, 6, 57, 0
1, 20067, Note_on_c, 9, 28, 0
1, 20067, Note_on_c, 6, 52, 0
1, 20068, Note_on_c, 4, 42, 127
1, 20072, Note_on_c, 4, 49, 127
1, 20079, Note_on_c, 1, 45, 0
1, 20110, Note_on_c, 0, 67, 107
1, 20111, Note_on_c, 0, 61, 117
1, 20112, Note_on_c, 0, 57, 117
1, 20112, Note_on_c, 0, 64, 117
1, 20114, Note_on_c, 4, 42, 0
1, 20114, Note_on_c, 6, 52, 65
1, 20115, Note_on_c, 6, 57, 73
1, 20116, Note_on_c, 6, 52, 0
1, 20117, Note_on_c, 4, 49, 0
1, 20117, Note_on_c, 6, 57, 0
1, 20117, Note_on_c, 9, 38, 25
1, 20118, Note_on_c, 9, 38, 0
1, 20143, Note_on_c, 0, 64, 0
1, 20144, Note_on_c, 0, 61, 0
1, 20144, Note_on_c, 0, 57, 0
1, 20144, Pitch_bend_c, 2, 8128
1, 20144, Pitch_bend_c, 8, 8128
1, 20145, Pitch_bend_c, 8, 7808
1, 20146, Note_on_c, 0, 67, 0
1, 20146, Pitch_bend_c, 2, 7808
1, 20149, Pitch_bend_c, 8, 6368
1, 20150, Pitch_bend_c, 2, 6368
1, 20153, Pitch_bend_c, 8, 5376
1, 20154, Pitch_bend_c, 2, 5376
1, 20156, Pitch_bend_c, 8, 4160
1, 20157, Pitch_bend_c, 2, 4160
1, 20158, Note_on_c, 6, 52, 127
1, 20158, Pitch_bend_c, 8, 2976
1, 20159, Pitch_bend_c, 2, 1760
1, 20160, Note_on_c, 1, 40, 123
1, 20160, Note_on_c, 6, 57, 127
1, 20161, Pitch_bend_c, 8, 1760
1, 20161, Note_on_c, 9, 38, 54
1, 20162, Note_on_c, 2, 57, 107
1, 20162, Note_on_c, 9, 35, 110
1, 20163, Note_on_c, 9, 35, 0
1, 20163, Note_on_c, 9, 38, 0
1, 20163, Pitch_bend_c, 8, 672
1, 20164, Pitch_bend_c, 2, 672
1, 20165, Note_on_c, 4, 43, 127
1, 20166, Pitch_bend_c, 8, 0
1, 20167, Pitch_bend_c, 2, 0
1, 20173, Note_on_c, 6, 52, 0
1, 20174, Note_on_c, 6, 57, 0
1, 20176, Note_on_c, 2, 57, 0
1, 20208, Note_on_c, 1, 40, 0
1, 20208, Note_on_c, 6, 52, 78
1, 20209, Note_on_c, 8, 42, 127
1, 20210, Note_on_c, 4, 43, 0
1, 20211, Note_on_c, 2, 42, 127
1, 20211, Note_on_c, 6, 57, 73
1, 20212, Note_on_c, 6, 57, 0
1, 20213, Note_on_c, 9, 38, 45
1, 20214, Note_on_c, 9, 38, 0
1, 20240, Pitch_bend_c, 8, 576
1, 20241, Pitch_bend_c, 2, 1312
1, 20241, Pitch_bend_c, 8, 1312
1, 20242, Pitch_bend_c, 8, 2176
1, 20244, Pitch_bend_c, 2, 2176
1, 20245, Pitch_bend_c, 8, 3104
1, 20246, Pitch_bend_c, 8, 3872
1, 20247, Pitch_bend_c, 2, 3872
1, 20251, Pitch_bend_c, 8, 4512
1, 20252, Pitch_bend_c, 2, 4512
1, 20253, Pitch_bend_c, 8, 4928
1, 20254, Note_on_c, 6, 54, 127
1, 20255, Pitch_bend_c, 2, 5312
1, 20256, Note_on_c, 0, 57, 117
1, 20256, Note_on_c, 0, 64, 117
1, 20256, Note_on_c, 1, 42, 127
1, 20257, Note_on_c, 0, 67, 104
1, 20257, Note_on_c, 9, 40, 97
1, 20257, Note_on_c, 9, 28, 90
1, 20258, Note_on_c, 9, 40, 0
1, 20258, Note_on_c, 0, 61, 117
1, 20259, Note_on_c, 9, 28, 0
1, 20259, Note_on_c, 2, 54, 107
1, 20260, Pitch_bend_c, 8, 5312
1, 20261, Note_on_c, 6, 52, 0
1, 20262, Pitch_bend_c, 8, 5664
1, 20263, Pitch_bend_c, 2, 5664
1, 20264, Note_on_c, 4, 42, 127
1, 20265, Pitch_bend_c, 8, 6080
1, 20266, Pitch_bend_c, 2, 6496
1, 20267, Note_on_c, 4, 49, 127
1, 20267, Pitch_bend_c, 8, 6496
1, 20268, Control_c, 8, 1, 1
1, 20269, Control_c, 2, 1, 1
1, 20270, Control_c, 2, 1, 6
1, 20270, Control_c, 8, 1, 4
1, 20271, Control_c, 8, 1, 6
1, 20272, Pitch_bend_c, 2, 7584
1, 20272, Pitch_bend_c, 8, 7296
1, 20273, Control_c, 8, 1, 8
1, 20274, Pitch_bend_c, 8, 7584
1, 20275, Control_c, 2, 1, 8
1, 20276, Pitch_bend_c, 2, 7904
1, 20276, Pitch_bend_c, 8, 7904
1, 20276, Control_c, 8, 1, 6
1, 20277, Pitch_bend_c, 8, 8064
1, 20278, Note_on_c, 2, 54, 0
1, 20279, Control_c, 8, 1, 4
1, 20280, Control_c, 2, 1, 4
1, 20280, Pitch_bend_c, 8, 8160
1, 20281, Pitch_bend_c, 2, 8160
1, 20282, Pitch_bend_c, 2, 8192
1, 20282, Pitch_bend_c, 8, 8192
1, 20283, Control_c, 8, 1, 5
1, 20284, Control_c, 2, 1, 8
1, 20285, Control_c, 8, 1, 7
1, 20287, Control_c, 8, 1, 8
1, 20289, Control_c, 8, 1, 9
1, 20290, Control_c, 2, 1, 9
1, 20292, Note_on_c, 0, 61, 0
1, 20292, Note_on_c, 0, 57, 0
1, 20293, Control_c, 8, 1, 10
1, 20294, Note_on_c, 0, 64, 0
1, 20295, Note_on_c, 0, 67, 0
1, 20295, Control_c, 2, 1, 10
1, 20297, Control_c, 8, 1, 11
1, 20298, Control_c, 2, 1, 13
1, 20299, Control_c, 8, 1, 13
1, 20301, Note_on_c, 1, 42, 0
1, 20302, Control_c, 8, 1, 15
1, 20303, Control_c, 2, 1, 18
1, 20304, Note_on_c, 6, 52, 127
1, 20304, Control_c, 8, 1, 18
1, 20305, Note_on_c, 6, 54, 0
1, 20306, Control_c, 8, 1, 20
1, 20306, Note_on_c, 9, 38, 25
1, 20307, Note_on_c, 9, 38, 0
1, 20307, Control_c, 2, 1, 23
1, 20308, Control_c, 8, 1, 23
1, 20309, Note_on_c, 4, 42, 0
1, 20311, Note_on_c, 4, 49, 0
1, 20312, Control_c, 8, 1, 25
1, 20313, Control_c, 8, 1, 28
1, 20314, Control_c, 2, 1, 28
1, 20316, Control_c, 8, 1, 32
1, 20317, Control_c, 2, 1, 32
1, 20320, Control_c, 2, 1, 38
1, 20320, Control_c, 8, 1, 35
1, 20321, Control_c, 8, 1, 38
1, 20326, Control_c, 2, 1, 42
1, 20326, Control_c, 8, 1, 42
1, 20329, Control_c, 8, 1, 44
1, 20330, Control_c, 2, 1, 46
1, 20330, Control_c, 8, 1, 46
1, 20333, Control_c, 2, 1, 51
1, 20333, Control_c, 8, 1, 49
1, 20334, Control_c, 8, 1, 51
1, 20336, Control_c, 8, 1, 53
1, 20337, Control_c, 2, 1, 56
1, 20341, Control_c, 8, 1, 56
1, 20343, Note_on_c, 8, 42, 0
1, 20343, Control_c, 8, 1, 58
1, 20344, Note_on_c, 2, 42, 0
1, 20345, Control_c, 2, 1, 60
1, 20346, Control_c, 8, 1, 62
1, 20347, Control_c, 2, 1, 62
1, 20351, Control_c, 8, 1, 63
1, 20352, Note_on_c, 1, 45, 127
1, 20352, Control_c, 2, 1, 66
1, 20352, Note_on_c, 6, 45, 127
1, 20353, Note_on_c, 8, 45, 114
1, 20353, Note_on_c, 9, 38, 53
1, 20354, Control_c, 8, 1, 65
1, 20354, Note_on_c, 9, 35, 111
1, 20355, Note_on_c, 2, 45, 114
1, 20356, Note_on_c, 9, 35, 0
1, 20356, Note_on_c, 9, 38, 0
1, 20356, Control_c, 8, 1, 66
1, 20357, Note_on_c, 6, 52, 0
1, 20358, Note_on_c, 4, 45, 127
1, 20359, Control_c, 8, 1, 67
1, 20360, Control_c, 2, 1, 67
1, 20361, Control_c, 8, 1, 68
1, 20362, Control_c, 2, 1, 69
1, 20363, Control_c, 8, 1, 69
1, 20364, Control_c, 8, 1, 70
1, 20365, Control_c, 2, 1, 72
1, 20366, Control_c, 8, 1, 71
1, 20367, Control_c, 8, 1, 72
1, 20376, Control_c, 8, 1, 73
1, 20377, Control_c, 2, 1, 73
1, 20380, Control_c, 8, 1, 75
1, 20381, Control_c, 2, 1, 75
1, 20381, Control_c, 8, 1, 76
1, 20383, Control_c, 2, 1, 78
1, 20384, Control_c, 8, 1, 77
1, 20386, Control_c, 8, 1, 78
1, 20391, Control_c, 8, 1, 79
1, 20392, Control_c, 2, 1, 78
1, 20394, Control_c, 8, 1, 78
1, 20395, Control_c, 8, 1, 77
1, 20396, Control_c, 2, 1, 76
1, 20397, Control_c, 8, 1, 76
1, 20400, Note_on_c, 4, 45, 0
1, 20401, Control_c, 8, 1, 73
1, 20402, Control_c, 2, 1, 71
1, 20403, Control_c, 8, 1, 71
1, 20405, Control_c, 8, 1, 68
1, 20405, Note_on_c, 9, 38, 42
1, 20406, Control_c, 2, 1, 65
1, 20407, Note_on_c, 9, 38, 0
1, 20407, Control_c, 8, 1, 65
1, 20409, Control_c, 8, 1, 60
1, 20410, Control_c, 2, 1, 55
1, 20413, Control_c, 8, 1, 55
1, 20414, Control_c, 8, 1, 47
1, 20415, Control_c, 2, 1, 39
1, 20417, Control_c, 8, 1, 39
1, 20418, Control_c, 8, 1, 30
1, 20419, Control_c, 2, 1, 21
1, 20421, Control_c, 8, 1, 21
1, 20425, Control_c, 8, 1, 14
1, 20426, Control_c, 2, 1, 14
1, 20428, Control_c, 2, 1, 2
1, 20428, Control_c, 8, 1, 9
1, 20429, Control_c, 8, 1, 5
1, 20430, Control_c, 8, 1, 2
1, 20431, Note_on_c, 6, 45, 0
1, 20434, Control_c, 8, 1, 0
1, 20435, Control_c, 2, 1, 0
1, 20445, Note_on_c, 6, 52, 127
1, 20446, Note_on_c, 6, 57, 127
1, 20448, Note_on_c, 0, 57, 117
1, 20448, Note_on_c, 0, 61, 117
1, 20448, Note_on_c, 0, 67, 107
1, 20449, Note_on_c, 0, 64, 114
1, 20449, Note_on_c, 9, 40, 97
1, 20450, Note_on_c, 9, 40, 0
1, 20450, Note_on_c, 8, 52, 87
1, 20450, Note_on_c, 9, 28, 91
1, 20451, Note_on_c, 9, 28, 0
1, 20451, Note_on_c, 8, 57, 88
1, 20452, Note_on_c, 1, 45, 0
1, 20452, Note_on_c, 2, 52, 87
1, 20453, Note_on_c, 2, 57, 88
1, 20454, Note_on_c, 4, 42, 127
1, 20455, Note_on_c, 6, 52, 0
1, 20456, Note_on_c, 6, 57, 0
1, 20457, Note_on_c, 4, 49, 127
1, 20461, Note_on_c, 8, 45, 0
1, 20462, Note_on_c, 2, 45, 0
1, 20467, Note_on_c, 8, 57, 0
1, 20468, Note_on_c, 8, 52, 0
1, 20468, Note_on_c, 2, 57, 0
1, 20469, Note_on_c, 2, 52, 0
1, 20484, Note_on_c, 0, 64, 0
1, 20485, Note_on_c, 0, 67, 0
1, 20489, Note_on_c, 0, 61, 0
1, 20493, Note_on_c, 0, 57, 0
1, 20496, Note_on_c, 1, 45, 119
1, 20496, Note_on_c, 6, 52, 65
1, 20497, Note_on_c, 9, 35, 68
1, 20498, Note_on_c, 6, 57, 73
1, 20499, Note_on_c, 9, 35, 0
1, 20499, Note_on_c, 6, 52, 0
1, 20500, Note_on_c, 6, 57, 0
1, 20500, Note_on_c, 9, 38, 27
1, 20501, Note_on_c, 4, 49, 0
1, 20502, Note_on_c, 4, 42, 0
1, 20502, Note_on_c, 9, 38, 0
1, 20511, Note_on_c, 1, 45, 0
1, 20541, Note_on_c, 6, 52, 65
1, 20542, Note_on_c, 6, 57, 60
1, 20544, Note_on_c, 6, 57, 0
1, 20544, Note_on_c, 6, 52, 0
1, 20544, Note_on_c, 1, 43, 123
1, 20545, Note_on_c, 9, 38, 52
1, 20545, Note_on_c, 9, 35, 110
1, 20547, Note_on_c, 9, 35, 0
1, 20547, Note_on_c, 9, 38, 0
1, 20547, Note_on_c, 4, 40, 127
1, 20589, Note_on_c, 1, 43, 0
1, 20591, Note_on_c, 0, 61, 117
1, 20591, Note_on_c, 0, 67, 107
1, 20592, Note_on_c, 0, 57, 117
1, 20593, Note_on_c, 0, 64, 117
1, 20594, Note_on_c, 2, 57, 107
1, 20594, Note_on_c, 6, 52, 127
1, 20595, Note_on_c, 6, 57, 127
1, 20597, Note_on_c, 9, 38, 47
1, 20598, Note_on_c, 9, 38, 0
1, 20605, Note_on_c, 4, 40, 0
1, 20609, Note_on_c, 2, 57, 0
1, 20610, Note_on_c, 6, 57, 0
1, 20612, Note_on_c, 6, 52, 0
1, 20627, Note_on_c, 0, 64, 0
1, 20632, Note_on_c, 0, 67, 0
1, 20635, Note_on_c, 0, 61, 0
1, 20636, Note_on_c, 0, 57, 0
1, 20640, Note_on_c, 1, 42, 127
1, 20641, Note_on_c, 9, 40, 96
1, 20641, Note_on_c, 9, 28, 92
1, 20642, Note_on_c, 9, 40, 0
1, 20643, Note_on_c, 9, 28, 0
1, 20643, Note_on_c, 4, 42, 127
1, 20646, Note_on_c, 4, 49, 127
1, 20679, Note_on_c, 4, 42, 0
1, 20680, Note_on_c, 4, 49, 0
1, 20686, Note_on_c, 2, 57, 107
1, 20687, Note_on_c, 6, 52, 127
1, 20688, Note_on_c, 6, 57, 127
1, 20692, Note_on_c, 9, 38, 23
1, 20693, Note_on_c, 9, 38, 0
1, 20697, Note_on_c, 4, 45, 127
1, 20698, Note_on_c, 4, 57, 127
1, 20705, Note_on_c, 2, 57, 0
1, 20705, Note_on_c, 6, 57, 0
1, 20708, Note_on_c, 6, 52, 0
1, 20733, Note_on_c, 1, 42, 0
1, 20733, Note_on_c, 4, 45, 0
1, 20733, Note_on_c, 4, 57, 0
1, 20734, Note_on_c, 0, 61, 117
1, 20735, Note_on_c, 0, 67, 110
1, 20735, Note_on_c, 1, 45, 120
1, 20736, Note_on_c, 0, 64, 117
1, 20737, Note_on_c, 0, 57, 117
1, 20737, Note_on_c, 9, 38, 53
1, 20738, Note_on_c, 9, 35, 111
1, 20740, Note_on_c, 9, 35, 0
1, 20740, Note_on_c, 9, 38, 0
1, 20741, Note_on_c, 4, 45, 127
1, 20777, Note_on_c, 0, 57, 0
1, 20778, Note_on_c, 0, 64, 0
1, 20778, Note_on_c, 0, 61, 0
1, 20779, Note_on_c, 4, 45, 0
1, 20781, Note_on_c, 0, 67, 0
1, 20784, Note_on_c, 6, 55, 85
1, 20789, Note_on_c, 9, 38, 42
1, 20790, Note_on_c, 9, 38, 0
1, 20790, Note_on_c, 4, 42, 127
1, 20793, Note_on_c, 4, 57, 127
1, 20824, Note_on_c, 4, 42, 0
1, 20827, Note_on_c, 4, 57, 0
1, 20829, Note_on_c, 6, 55, 0
1, 20829, Note_on_c, 6, 55, 73
1, 20833, Note_on_c, 9, 40, 97
1, 20834, Note_on_c, 9, 40, 0
1, 20834, Note_on_c, 9, 28, 91
1, 20835, Note_on_c, 9, 28, 0
1, 20836, Note_on_c, 4, 42, 127
1, 20840, Note_on_c, 4, 49, 127
1, 20844, Note_on_c, 1, 45, 0
1, 20875, Note_on_c, 6, 55, 0
1, 20880, Note_on_c, 0, 61, 117
1, 20880, Note_on_c, 0, 67, 111
1, 20880, Note_on_c, 0, 57, 117
1, 20880, Note_on_c, 0, 64, 117
1, 20881, Note_on_c, 6, 55, 110
1, 20881, Note_on_c, 9, 35, 68
1, 20882, Note_on_c, 4, 42, 0
1, 20883, Note_on_c, 9, 35, 0
1, 20884, Note_on_c, 9, 38, 27
1, 20885, Note_on_c, 4, 49, 0
1, 20886, Note_on_c, 9, 38, 0
1, 20909, Note_on_c, 0, 64, 0
1, 20910, Pitch_bend_c, 8, 8128
1, 20911, Pitch_bend_c, 2, 7808
1, 20913, Pitch_bend_c, 8, 7808
1, 20916, Note_on_c, 0, 57, 0
1, 20917, Pitch_bend_c, 8, 7232
1, 20918, Pitch_bend_c, 2, 7232
1, 20918, Pitch_bend_c, 8, 6368
1, 20919, Note_on_c, 0, 67, 0
1, 20920, Note_on_c, 0, 61, 0
1, 20920, Pitch_bend_c, 2, 5376
1, 20921, Pitch_bend_c, 8, 5376
1, 20924, Pitch_bend_c, 8, 4160
1, 20925, Pitch_bend_c, 2, 4160
1, 20926, Note_on_c, 6, 54, 85
1, 20927, Pitch_bend_c, 8, 2976
1, 20928, Note_on_c, 6, 55, 0
1, 20928, Note_on_c, 1, 40, 124
1, 20928, Pitch_bend_c, 2, 2976
1, 20928, Pitch_bend_c, 8, 1760
1, 20929, Pitch_bend_c, 2, 672
1, 20929, Note_on_c, 9, 38, 52
1, 20929, Note_on_c, 9, 35, 110
1, 20930, Pitch_bend_c, 8, 672
1, 20931, Note_on_c, 9, 35, 0
1, 20931, Note_on_c, 9, 38, 0
1, 20931, Note_on_c, 4, 43, 127
1, 20932, Pitch_bend_c, 8, 0
1, 20934, Pitch_bend_c, 2, 0
1, 20972, Note_on_c, 6, 54, 0
1, 20973, Note_on_c, 1, 40, 0
1, 20976, Note_on_c, 6, 55, 123
1, 20977, Note_on_c, 4, 43, 0
1, 20977, Note_on_c, 8, 42, 127
1, 20978, Note_on_c, 2, 42, 127
1, 20980, Note_on_c, 9, 38, 47
1, 20982, Note_on_c, 9, 38, 0
1, 21008, Pitch_bend_c, 8, 576
1, 21009, Pitch_bend_c, 2, 576
1, 21010, Pitch_bend_c, 8, 1312
1, 21011, Pitch_bend_c, 8, 2176
1, 21012, Pitch_bend_c, 2, 2176
1, 21014, Pitch_bend_c, 8, 3872
1, 21015, Pitch_bend_c, 2, 3104
1, 21016, Pitch_bend_c, 2, 3872
1, 21018, Pitch_bend_c, 8, 4512
1, 21020, Pitch_bend_c, 2, 4928
1, 21021, Pitch_bend_c, 8, 4928
1, 21022, Note_on_c, 6, 55, 0
1, 21022, Note_on_c, 6, 54, 123
1, 21023, Note_on_c, 0, 61, 117
1, 21024, Note_on_c, 0, 67, 113
1, 21024, Note_on_c, 1, 42, 127
1, 21025, Note_on_c, 0, 57, 117
1, 21025, Note_on_c, 9, 40, 96
1, 21026, Note_on_c, 9, 40, 0
1, 21026, Note_on_c, 0, 64, 117
1, 21026, Note_on_c, 9, 28, 92
1, 21027, Note_on_c, 9, 28, 0
1, 21027, Pitch_bend_c, 8, 5312
1, 21028, Pitch_bend_c, 2, 5664
1, 21029, Pitch_bend_c, 8, 5664
1, 21030, Note_on_c, 4, 42, 127
1, 21031, Pitch_bend_c, 8, 6080
1, 21032, Pitch_bend_c, 2, 6080
1, 21033, Note_on_c, 4, 49, 127
1, 21034, Pitch_bend_c, 2, 6496
1, 21034, Pitch_bend_c, 8, 6496
1, 21035, Control_c, 8, 1, 1
1, 21036, Control_c, 2, 1, 4
1, 21036, Control_c, 8, 1, 4
1, 21037, Control_c, 8, 1, 6
1, 21038, Control_c, 2, 1, 8
1, 21038, Pitch_bend_c, 8, 7296
1, 21039, Pitch_bend_c, 2, 7296
1, 21040, Control_c, 8, 1, 8
1, 21041, Pitch_bend_c, 2, 7904
1, 21041, Pitch_bend_c, 8, 7584
1, 21042, Pitch_bend_c, 8, 7904
1, 21044, Control_c, 8, 1, 6
1, 21044, Pitch_bend_c, 8, 8064
1, 21045, Control_c, 8, 1, 4
1, 21046, Control_c, 2, 1, 4
1, 21046, Pitch_bend_c, 8, 8160
1, 21047, Pitch_bend_c, 2, 8160
1, 21047, Pitch_bend_c, 8, 8192
1, 21048, Pitch_bend_c, 2, 8192
1, 21050, Control_c, 8, 1, 5
1, 21051, Control_c, 2, 1, 5
1, 21053, Control_c, 8, 1, 7
1, 21054, Note_on_c, 0, 64, 0
1, 21054, Control_c, 2, 1, 9
1, 21055, Control_c, 8, 1, 8
1, 21057, Note_on_c, 0, 57, 0
1, 21057, Control_c, 8, 1, 9
1, 21058, Note_on_c, 0, 67, 0
1, 21060, Control_c, 8, 1, 10
1, 21061, Control_c, 2, 1, 10
1, 21064, Note_on_c, 0, 61, 0
1, 21065, Control_c, 2, 1, 11
1, 21065, Control_c, 8, 1, 11
1, 21067, Control_c, 8, 1, 13
1, 21068, Note_on_c, 6, 54, 0
1, 21068, Note_on_c, 1, 42, 0
1, 21068, Control_c, 2, 1, 13
1, 21069, Control_c, 8, 1, 15
1, 21071, Control_c, 2, 1, 20
1, 21072, Note_on_c, 6, 55, 127
1, 21073, Control_c, 8, 1, 18
1, 21074, Control_c, 8, 1, 20
1, 21076, Control_c, 8, 1, 23
1, 21077, Note_on_c, 4, 42, 0
1, 21077, Control_c, 2, 1, 23
1, 21077, Note_on_c, 9, 38, 53
1, 21079, Note_on_c, 9, 38, 0
1, 21079, Note_on_c, 4, 49, 0
1, 21080, Control_c, 8, 1, 25
1, 21081, Control_c, 8, 1, 28
1, 21082, Control_c, 2, 1, 32
1, 21084, Control_c, 8, 1, 32
1, 21087, Control_c, 8, 1, 35
1, 21088, Control_c, 2, 1, 35
1, 21089, Control_c, 2, 1, 38
1, 21089, Control_c, 8, 1, 38
1, 21094, Control_c, 2, 1, 42
1, 21094, Control_c, 8, 1, 42
1, 21097, Control_c, 8, 1, 44
1, 21098, Control_c, 2, 1, 49
1, 21099, Control_c, 8, 1, 46
1, 21101, Control_c, 8, 1, 49
1, 21104, Control_c, 2, 1, 53
1, 21104, Control_c, 8, 1, 51
1, 21105, Control_c, 8, 1, 53
1, 21109, Control_c, 2, 1, 56
1, 21109, Control_c, 8, 1, 56
1, 21111, Note_on_c, 8, 42, 0
1, 21112, Note_on_c, 2, 42, 0
1, 21112, Control_c, 8, 1, 58
1, 21113, Control_c, 2, 1, 62
1, 21114, Control_c, 8, 1, 62
1, 21118, Control_c, 8, 1, 63
1, 21119, Control_c, 2, 1, 63
1, 21120, Note_on_c, 1, 33, 117
1, 21120, Note_on_c, 6, 52, 90
1, 21120, Note_on_c, 6, 57, 98
1, 21121, Note_on_c, 6, 55, 0
1, 21121, Note_on_c, 9, 38, 43
1, 21122, Note_on_c, 8, 45, 114
1, 21122, Note_on_c, 9, 35, 111
1, 21123, Control_c, 8, 1, 65
1, 21124, Note_on_c, 9, 35, 0
1, 21124, Note_on_c, 9, 38, 0
1, 21124, Note_on_c, 2, 45, 114
1, 21125, Note_on_c, 3, 67, 127
1, 21126, Control_c, 8, 1, 66
1, 21127, Control_c, 2, 1, 66
1, 21128, Note_on_c, 4, 45, 127
1, 21129, Control_c, 8, 1, 67
1, 21130, Control_c, 2, 1, 68
1, 21131, Control_c, 8, 1, 68
1, 21132, Control_c, 8, 1, 69
1, 21133, Control_c, 2, 1, 70
1, 21134, Control_c, 8, 1, 70
1, 21135, Control_c, 8, 1, 71
1, 21136, Control_c, 2, 1, 72
1, 21137, Control_c, 8, 1, 72
1, 21144, Control_c, 8, 1, 73
1, 21145, Control_c, 2, 1, 73
1, 21148, Control_c, 8, 1, 75
1, 21149, Control_c, 2, 1, 76
1, 21150, Control_c, 8, 1, 76
1, 21152, Control_c, 8, 1, 77
1, 21153, Control_c, 2, 1, 78
1, 21154, Control_c, 8, 1, 78
1, 21159, Control_c, 8, 1, 79
1, 21160, Note_on_c, 3, 67, 0
1, 21161, Control_c, 2, 1, 79
1, 21162, Control_c, 8, 1, 78
1, 21164, Control_c, 2, 1, 77
1, 21164, Control_c, 8, 1, 77
1, 21165, Note_on_c, 6, 57, 0
1, 21165, Control_c, 8, 1, 76
1, 21166, Note_on_c, 6, 52, 0
1, 21167, Control_c, 2, 1, 73
1, 21167, Note_on_c, 6, 57, 60
1, 21168, Note_on_c, 6, 52, 65
1, 21169, Note_on_c, 4, 45, 0
1, 21170, Control_c, 8, 1, 73
1, 21171, Note_on_c, 3, 67, 113
1, 21172, Control_c, 2, 1, 68
1, 21172, Control_c, 8, 1, 71
1, 21173, Control_c, 8, 1, 68
1, 21173, Note_on_c, 9, 38, 45
1, 21174, Note_on_c, 9, 38, 0
1, 21175, Control_c, 8, 1, 65
1, 21176, Control_c, 2, 1, 60
1, 21177, Control_c, 8, 1, 60
1, 21181, Control_c, 8, 1, 55
1, 21182, Control_c, 2, 1, 55
1, 21183, Control_c, 8, 1, 47
1, 21184, Control_c, 2, 1, 30
1, 21185, Control_c, 8, 1, 39
1, 21186, Control_c, 8, 1, 30
1, 21189, Control_c, 8, 1, 21
1, 21190, Control_c, 2, 1, 21
1, 21193, Control_c, 8, 1, 14
1, 21194, Control_c, 2, 1, 9
1, 21194, Control_c, 8, 1, 9
1, 21197, Control_c, 8, 1, 5
1, 21198, Control_c, 2, 1, 2
1, 21200, Control_c, 8, 1, 2
1, 21201, Control_c, 8, 1, 0
1, 21203, Control_c, 2, 1, 0
1, 21215, Note_on_c, 6, 49, 127
1, 21216, Note_on_c, 6, 52, 0
1, 21216, Note_on_c, 6, 57, 0
1, 21216, Note_on_c, 6, 52, 115
1, 21216, Note_on_c, 6, 57, 127
1, 21216, Note_on_c, 9, 40, 98
1, 21217, Note_on_c, 0, 61, 117
1, 21218, Note_on_c, 9, 40, 0
1, 21218, Note_on_c, 0, 67, 117
1, 21218, Note_on_c, 9, 28, 94
1, 21219, Note_on_c, 9, 28, 0
1, 21219, Note_on_c, 0, 57, 117
1, 21220, Note_on_c, 0, 64, 117
1, 21221, Note_on_c, 8, 52, 87
1, 21222, Note_on_c, 8, 57, 88
1, 21223, Note_on_c, 2, 52, 87
1, 21224, Note_on_c, 2, 57, 88
1, 21224, Note_on_c, 4, 42, 127
1, 21225, Note_on_c, 1, 33, 0
1, 21225, Note_on_c, 4, 49, 127
1, 21226, Note_on_c, 6, 49, 0
1, 21227, Note_on_c, 6, 52, 0
1, 21229, Note_on_c, 8, 45, 0
1, 21229, Note_on_c, 6, 57, 0
1, 21230, Note_on_c, 2, 45, 0
1, 21234, Note_on_c, 8, 57, 0
1, 21236, Note_on_c, 8, 52, 0
1, 21237, Note_on_c, 2, 57, 0
1, 21237, Note_on_c, 2, 52, 0
1, 21243, Note_on_c, 3, 67, 0
1, 21246, Note_on_c, 0, 64, 0
1, 21250, Note_on_c, 0, 67, 0
1, 21251, Note_on_c, 0, 57, 0
1, 21254, Note_on_c, 0, 61, 0
1, 21264, Note_on_c, 1, 33, 120
1, 21264, Note_on_c, 6, 57, 73
1, 21264, Note_on_c, 6, 52, 65
1, 21269, Note_on_c, 4, 49, 0
1, 21269, Note_on_c, 4, 42, 0
1, 21269, Note_on_c, 9, 38, 25
1, 21270, Note_on_c, 9, 38, 0
1, 21277, Note_on_c, 1, 33, 0
1, 21309, Note_on_c, 6, 57, 0
1, 21310, Note_on_c, 6, 52, 0
1, 21310, Note_on_c, 6, 52, 103
1, 21311, Note_on_c, 6, 57, 98
1, 21312, Note_on_c, 1, 40, 105
1, 21312, Note_on_c, 3, 67, 127
1, 21313, Note_on_c, 9, 38, 54
1, 21313, Note_on_c, 9, 35, 110
1, 21315, Note_on_c, 9, 35, 0
1, 21315, Note_on_c, 9, 38, 0
1, 21315, Note_on_c, 4, 40, 127
1, 21356, Note_on_c, 6, 52, 0
1, 21356, Note_on_c, 6, 57, 0
1, 21358, Note_on_c, 0, 67, 113
1, 21359, Note_on_c, 0, 61, 117
1, 21360, Note_on_c, 0, 57, 117
1, 21361, Note_on_c, 0, 64, 117
1, 21361, Note_on_c, 6, 57, 73
1, 21362, Note_on_c, 6, 52, 65
1, 21365, Note_on_c, 9, 38, 45
1, 21366, Note_on_c, 9, 38, 0
1, 21373, Note_on_c, 4, 40, 0
1, 21388, Note_on_c, 0, 57, 0
1, 21391, Note_on_c, 0, 64, 0
1, 21396, Note_on_c, 0, 61, 0
1, 21398, Note_on_c, 0, 67, 0
1, 21403, Note_on_c, 3, 67, 0
1, 21405, Note_on_c, 6, 49, 127
1, 21406, Note_on_c, 6, 52, 0
1, 21406, Note_on_c, 6, 52, 127
1, 21407, Note_on_c, 6, 57, 0
1, 21407, Note_on_c, 6, 57, 127
1, 21409, Note_on_c, 3, 69, 115
1, 21409, Note_on_c, 9, 40, 97
1, 21410, Note_on_c, 9, 40, 0
1, 21410, Note_on_c, 9, 28, 90
1, 21411, Note_on_c, 9, 28, 0
1, 21411, Note_on_c, 4, 42, 127
1, 21414, Note_on_c, 4, 49, 127
1, 21415, Note_on_c, 6, 49, 0
1, 21416, Note_on_c, 6, 52, 0
1, 21417, Note_on_c, 6, 57, 0
1, 21445, Note_on_c, 4, 42, 0
1, 21445, Note_on_c, 4, 49, 0
1, 21455, Note_on_c, 6, 57, 73
1, 21456, Note_on_c, 6, 52, 65
1, 21461, Note_on_c, 9, 38, 25
1, 21462, Note_on_c, 9, 38, 0
1, 21462, Note_on_c, 3, 69, 0
1, 21464, Note_on_c, 4, 45, 127
1, 21466, Note_on_c, 4, 57, 127
1, 21483, Pitch_bend_c, 3, 8160
1, 21487, Pitch_bend_c, 3, 7584
1, 21490, Note_on_c, 1, 40, 0
1, 21491, Pitch_bend_c, 3, 6688
1, 21495, Pitch_bend_c, 3, 2940
1, 21501, Note_on_c, 4, 57, 0
1, 21502, Note_on_c, 6, 52, 0
1, 21502, Note_on_c, 6, 52, 90
1, 21503, Note_on_c, 6, 57, 0
1, 21503, Note_on_c, 6, 57, 98
1, 21504, Note_on_c, 1, 45, 121
1, 21505, Note_on_c, 4, 45, 0
1, 21505, Note_on_c, 9, 38, 53
1, 21506, Note_on_c, 0, 61, 117
1, 21506, Note_on_c, 9, 35, 111
1, 21507, Note_on_c, 0, 64, 117
1, 21508, Note_on_c, 9, 35, 0
1, 21508, Note_on_c, 9, 38, 0
1, 21508, Note_on_c, 0, 67, 114
1, 21509, Note_on_c, 0, 57, 117
1, 21512, Note_on_c, 3, 71, 122
1, 21514, Note_on_c, 4, 45, 127
1, 21516, Pitch_bend_c, 3, 3584
1, 21518, Pitch_bend_c, 3, 3456
1, 21520, Pitch_bend_c, 3, 3360
1, 21526, Pitch_bend_c, 3, 3392
1, 21527, Pitch_bend_c, 3, 3808
1, 21532, Pitch_bend_c, 3, 4096
1, 21533, Pitch_bend_c, 3, 4576
1, 21537, Pitch_bend_c, 3, 5888
1, 21538, Note_on_c, 0, 67, 0
1, 21539, Note_on_c, 0, 57, 0
1, 21541, Pitch_bend_c, 3, 7392
1, 21542, Note_on_c, 0, 64, 0
1, 21542, Note_on_c, 0, 61, 0
1, 21545, Pitch_bend_c, 3, 7872
1, 21546, Note_on_c, 6, 57, 0
1, 21548, Note_on_c, 4, 45, 0
1, 21548, Note_on_c, 6, 52, 0
1, 21549, Pitch_bend_c, 3, 8160
1, 21550, Pitch_bend_c, 3, 8192
1, 21552, Note_on_c, 6, 57, 60
1, 21552, Note_on_c, 6, 52, 65
1, 21557, Note_on_c, 9, 38, 42
1, 21558, Note_on_c, 9, 38, 0
1, 21559, Note_on_c, 4, 42, 127
1, 21561, Note_on_c, 4, 57, 127
1, 21589, Note_on_c, 3, 71, 0
1, 21592, Note_on_c, 4, 42, 0
1, 21596, Note_on_c, 4, 57, 0
1, 21597, Note_on_c, 6, 49, 127
1, 21598, Note_on_c, 6, 52, 0
1, 21598, Note_on_c, 6, 52, 115
1, 21599, Note_on_c, 6, 57, 0
1, 21599, Note_on_c, 6, 57, 127
1, 21601, Note_on_c, 3, 71, 103
1, 21601, Note_on_c, 9, 40, 97
1, 21602, Note_on_c, 9, 40, 0
1, 21602, Note_on_c, 9, 28, 91
1, 21603, Note_on_c, 9, 28, 0
1, 21604, Note_on_c, 4, 42, 127
1, 21605, Note_on_c, 1, 45, 0
1, 21608, Note_on_c, 6, 49, 0
1, 21608, Note_on_c, 4, 49, 127
1, 21609, Note_on_c, 6, 52, 0
1, 21613, Note_on_c, 6, 57, 0
1, 21631, Note_on_c, 3, 71, 0
1, 21646, Note_on_c, 0, 61, 117
1, 21647, Note_on_c, 0, 67, 114
1, 21648, Note_on_c, 0, 57, 117
1, 21648, Note_on_c, 0, 64, 117
1, 21648, Note_on_c, 1, 45, 107
1, 21649, Note_on_c, 6, 57, 73
1, 21649, Note_on_c, 9, 35, 68
1, 21650, Note_on_c, 9, 35, 0
1, 21650, Note_on_c, 6, 52, 65
1, 21651, Note_on_c, 4, 42, 0
1, 21652, Note_on_c, 3, 69, 127
1, 21652, Note_on_c, 9, 38, 27
1, 21653, Note_on_c, 9, 38, 0
1, 21653, Note_on_c, 4, 49, 0
1, 21663, Note_on_c, 1, 45, 0
1, 21674, Note_on_c, 0, 57, 0
1, 21677, Note_on_c, 0, 64, 0
1, 21681, Note_on_c, 0, 67, 0
1, 21681, Note_on_c, 0, 61, 0
1, 21693, Note_on_c, 6, 57, 0
1, 21694, Note_on_c, 6, 52, 0
1, 21694, Note_on_c, 6, 52, 103
1, 21694, Note_on_c, 6, 57, 98
1, 21696, Note_on_c, 1, 40, 121
1, 21697, Note_on_c, 9, 38, 52
1, 21698, Note_on_c, 9, 35, 110
1, 21699, Note_on_c, 9, 35, 0
1, 21699, Note_on_c, 4, 43, 127
1, 21700, Note_on_c, 9, 38, 0
1, 21712, Pitch_bend_c, 3, 8160
1, 21716, Pitch_bend_c, 3, 8064
1, 21719, Pitch_bend_c, 3, 7872
1, 21726, Pitch_bend_c, 3, 7776
1, 21728, Pitch_bend_c, 3, 7552
1, 21730, Pitch_bend_c, 3, 7392
1, 21734, Pitch_bend_c, 3, 6976
1, 21737, Pitch_bend_c, 3, 6560
1, 21740, Note_on_c, 6, 57, 0
1, 21740, Note_on_c, 6, 52, 0
1, 21743, Pitch_bend_c, 3, 6368
1, 21744, Note_on_c, 6, 57, 73
1, 21745, Note_on_c, 4, 43, 0
1, 21745, Note_on_c, 6, 52, 65
1, 21746, Pitch_bend_c, 3, 6144
1, 21747, Pitch_bend_c, 3, 5760
1, 21748, Note_on_c, 9, 38, 47
1, 21750, Note_on_c, 9, 38, 0
1, 21755, Pitch_bend_c, 3, 5184
1, 21759, Pitch_bend_c, 3, 5120
1, 21761, Pitch_bend_c, 3, 4992
1, 21765, Pitch_bend_c, 3, 4800
1, 21769, Pitch_bend_c, 3, 4704
1, 21772, Note_on_c, 3, 69, 0
1, 21777, Pitch_bend_c, 3, 4544
1, 21778, Pitch_bend_c, 3, 4320
1, 21783, Pitch_bend_c, 3, 4160
1, 21790, Note_on_c, 6, 49, 127
1, 21791, Note_on_c, 6, 57, 0
1, 21791, Note_on_c, 6, 52, 0
1, 21791, Note_on_c, 6, 52, 127
1, 21791, Note_on_c, 6, 57, 127
1, 21793, Note_on_c, 0, 61, 117
1, 21793, Note_on_c, 9, 40, 96
1, 21794, Note_on_c, 9, 40, 0
1, 21794, Note_on_c, 0, 67, 117
1, 21794, Note_on_c, 9, 28, 92
1, 21795, Note_on_c, 9, 28, 0
1, 21795, Note_on_c, 0, 57, 117
1, 21796, Note_on_c, 0, 64, 117
1, 21798, Pitch_bend_c, 3, 4352
1, 21799, Note_on_c, 4, 42, 127
1, 21800, Pitch_bend_c, 3, 4640
1, 21801, Note_on_c, 6, 49, 0
1, 21801, Note_on_c, 4, 49, 127
1, 21802, Note_on_c, 6, 57, 0
1, 21802, Note_on_c, 6, 52, 0
1, 21803, Note_on_c, 1, 40, 0
1, 21803, Pitch_bend_c, 3, 5792
1, 21804, Pitch_bend_c, 3, 6688
1, 21807, Pitch_bend_c, 3, 7456
1, 21809, Pitch_bend_c, 3, 8064
1, 21811, Pitch_bend_c, 3, 8192
1, 21822, Note_on_c, 0, 64, 0
1, 21828, Note_on_c, 0, 57, 0
1, 21828, Note_on_c, 0, 67, 0
1, 21831, Note_on_c, 0, 61, 0
1, 21840, Note_on_c, 1, 40, 107
1, 21840, Note_on_c, 6, 57, 73
1, 21840, Note_on_c, 6, 52, 65
1, 21845, Note_on_c, 4, 42, 0
1, 21845, Note_on_c, 9, 38, 23
1, 21846, Note_on_c, 9, 38, 0
1, 21848, Note_on_c, 4, 49, 0
1, 21854, Note_on_c, 1, 40, 0
1, 21886, Note_on_c, 6, 57, 0
1, 21886, Note_on_c, 6, 52, 0
1, 21886, Note_on_c, 6, 52, 90
1, 21886, Note_on_c, 6, 57, 98
1, 21888, Note_on_c, 1, 33, 121
1, 21888, Note_on_c, 9, 38, 43
1, 21889, Note_on_c, 3, 67, 124
1, 21889, Note_on_c, 9, 35, 111
1, 21890, Note_on_c, 4, 45, 127
1, 21891, Note_on_c, 9, 35, 0
1, 21892, Note_on_c, 9, 38, 0
1, 21932, Note_on_c, 3, 67, 0
1, 21932, Note_on_c, 6, 57, 0
1, 21932, Note_on_c, 6, 52, 0
1, 21936, Note_on_c, 6, 57, 60
1, 21937, Note_on_c, 4, 45, 0
1, 21937, Note_on_c, 6, 52, 65
1, 21939, Note_on_c, 3, 67, 124
1, 21941, Note_on_c, 9, 38, 45
1, 21942, Note_on_c, 9, 38, 0
1, 21982, Note_on_c, 6, 49, 127
1, 21983, Note_on_c, 6, 52, 0
1, 21983, Note_on_c, 6, 52, 115
1, 21984, Note_on_c, 6, 57, 0
1, 21984, Note_on_c, 6, 57, 127
1, 21984, Note_on_c, 9, 40, 98
1, 21986, Note_on_c, 9, 40, 0
1, 21986, Note_on_c, 0, 61, 117
1, 21986, Note_on_c, 9, 28, 94
1, 21987, Note_on_c, 9, 28, 0
1, 21987, Note_on_c, 0, 64, 117
1, 21988, Note_on_c, 0, 67, 114
1, 21989, Note_on_c, 0, 57, 117
1, 21990, Note_on_c, 4, 42, 127
1, 21991, Note_on_c, 4, 49, 127
1, 21992, Note_on_c, 6, 49, 0
1, 21993, Note_on_c, 6, 52, 0
1, 21994, Note_on_c, 1, 33, 0
1, 21997, Note_on_c, 6, 57, 0
1, 22015, Note_on_c, 0, 67, 0
1, 22015, Note_on_c, 0, 57, 0
1, 22016, Note_on_c, 3, 67, 0
1, 22017, Note_on_c, 0, 64, 0
1, 22018, Note_on_c, 0, 61, 0
1, 22032, Note_on_c, 6, 57, 73
1, 22032, Note_on_c, 6, 52, 65
1, 22037, Note_on_c, 4, 49, 0
1, 22037, Note_on_c, 4, 42, 0
1, 22037, Note_on_c, 9, 38, 25
1, 22038, Note_on_c, 9, 38, 0
1, 22077, Note_on_c, 6, 57, 0
1, 22077, Note_on_c, 6, 52, 0
1, 22077, Note_on_c, 6, 52, 103
1, 22078, Note_on_c, 6, 57, 98
1, 22079, Note_on_c, 1, 40, 124
1, 22079, Note_on_c, 3, 67, 122
1, 22081, Note_on_c, 9, 38, 54
1, 22082, Note_on_c, 9, 35, 110
1, 22083, Note_on_c, 9, 35, 0
1, 22083, Note_on_c, 9, 38, 0
1, 22083, Note_on_c, 4, 40, 127
1, 22123, Note_on_c, 6, 57, 0
1, 22124, Note_on_c, 6, 52, 0
1, 22126, Note_on_c, 0, 67, 114
1, 22127, Note_on_c, 0, 61, 117
1, 22128, Note_on_c, 0, 64, 117
1, 22129, Note_on_c, 0, 57, 117
1, 22129, Note_on_c, 6, 57, 73
1, 22130, Note_on_c, 6, 52, 65
1, 22132, Note_on_c, 1, 40, 0
1, 22133, Note_on_c, 9, 38, 45
1, 22134, Note_on_c, 9, 38, 0
1, 22141, Note_on_c, 4, 40, 0
1, 22155, Note_on_c, 3, 67, 0
1, 22156, Note_on_c, 0, 57, 0
1, 22160, Note_on_c, 0, 61, 0
1, 22160, Note_on_c, 0, 64, 0
1, 22162, Note_on_c, 0, 67, 0
1, 22174, Note_on_c, 6, 52, 0
1, 22174, Note_on_c, 6, 49, 127
1, 22174, Note_on_c, 6, 52, 127
1, 22175, Note_on_c, 6, 57, 0
1, 22175, Note_on_c, 1, 42, 123
1, 22175, Note_on_c, 6, 57, 127
1, 22177, Note_on_c, 9, 40, 97
1, 22178, Note_on_c, 9, 28, 90
1, 22179, Note_on_c, 9, 40, 0
1, 22180, Note_on_c, 9, 28, 0
1, 22180, Note_on_c, 4, 42, 127
1, 22182, Note_on_c, 3, 69, 111
1, 22183, Note_on_c, 4, 49, 127
1, 22184, Note_on_c, 6, 49, 0
1, 22184, Note_on_c, 6, 52, 0
1, 22185, Note_on_c, 6, 57, 0
1, 22204, Note_on_c, 3, 69, 0
1, 22213, Note_on_c, 4, 42, 0
1, 22215, Note_on_c, 4, 49, 0
1, 22221, Pitch_bend_c, 3, 3963
1, 22222, Note_on_c, 1, 42, 0
1, 22224, Note_on_c, 6, 57, 73
1, 22224, Note_on_c, 6, 52, 65
1, 22228, Note_on_c, 3, 71, 127
1, 22229, Note_on_c, 9, 38, 25
1, 22230, Note_on_c, 9, 38, 0
1, 22233, Note_on_c, 4, 45, 127
1, 22236, Note_on_c, 4, 57, 127
1, 22254, Pitch_bend_c, 3, 4096
1, 22256, Pitch_bend_c, 3, 4160
1, 22259, Pitch_bend_c, 3, 4192
1, 22262, Pitch_bend_c, 3, 4512
1, 22268, Pitch_bend_c, 3, 4800
1, 22269, Note_on_c, 4, 57, 0
1, 22270, Note_on_c, 6, 57, 0
1, 22271, Note_on_c, 4, 45, 0
1, 22272, Note_on_c, 0, 57, 117
1, 22272, Note_on_c, 1, 45, 119
1, 22272, Pitch_bend_c, 3, 5664
1, 22272, Note_on_c, 9, 38, 53
1, 22273, Note_on_c, 0, 64, 117
1, 22273, Note_on_c, 9, 35, 111
1, 22274, Note_on_c, 0, 61, 117
1, 22275, Note_on_c, 9, 35, 0
1, 22275, Note_on_c, 0, 67, 108
1, 22276, Note_on_c, 6, 52, 0
1, 22276, Note_on_c, 9, 38, 0
1, 22276, Note_on_c, 6, 52, 90
1, 22277, Note_on_c, 6, 57, 98
1, 22279, Pitch_bend_c, 3, 6240
1, 22280, Note_on_c, 4, 45, 127
1, 22281, Pitch_bend_c, 3, 7808
1, 22282, Pitch_bend_c, 3, 8064
1, 22286, Pitch_bend_c, 3, 8192
1, 22303, Note_on_c, 0, 57, 0
1, 22304, Note_on_c, 0, 61, 0
1, 22305, Note_on_c, 0, 67, 0
1, 22306, Note_on_c, 0, 64, 0
1, 22316, Note_on_c, 4, 45, 0
1, 22317, Note_on_c, 6, 57, 0
1, 22318, Note_on_c, 6, 52, 0
1, 22320, Note_on_c, 6, 57, 60
1, 22320, Note_on_c, 6, 52, 65
1, 22325, Note_on_c, 9, 38, 42
1, 22326, Note_on_c, 9, 38, 0
1, 22327, Note_on_c, 4, 42, 127
1, 22328, Note_on_c, 3, 71, 0
1, 22331, Note_on_c, 4, 57, 127
1, 22360, Note_on_c, 4, 42, 0
1, 22364, Note_on_c, 4, 57, 0
1, 22365, Note_on_c, 3, 71, 127
1, 22366, Note_on_c, 6, 49, 127
1, 22367, Note_on_c, 6, 52, 0
1, 22367, Note_on_c, 6, 52, 115
1, 22368, Note_on_c, 6, 57, 0
1, 22368, Note_on_c, 6, 57, 127
1, 22369, Note_on_c, 9, 40, 97
1, 22370, Note_on_c, 9, 40, 0
1, 22370, Note_on_c, 9, 28, 91
1, 22371, Note_on_c, 9, 28, 0
1, 22372, Note_on_c, 4, 42, 127
1, 22376, Note_on_c, 4, 49, 127
1, 22377, Note_on_c, 6, 49, 0
1, 22378, Note_on_c, 6, 52, 0
1, 22378, Note_on_c, 1, 45, 0
1, 22381, Note_on_c, 6, 57, 0
1, 22415, Note_on_c, 0, 67, 117
1, 22415, Note_on_c, 0, 61, 117
1, 22416, Note_on_c, 0, 57, 117
1, 22416, Note_on_c, 1, 45, 113
1, 22417, Note_on_c, 0, 64, 117
1, 22417, Note_on_c, 9, 35, 68
1, 22418, Note_on_c, 9, 35, 0
1, 22418, Note_on_c, 6, 57, 73
1, 22419, Note_on_c, 6, 52, 65
1, 22420, Note_on_c, 4, 42, 0
1, 22421, Note_on_c, 4, 49, 0
1, 22421, Note_on_c, 9, 38, 27
1, 22422, Note_on_c, 9, 38, 0
1, 22431, Note_on_c, 1, 45, 0
1, 22447, Note_on_c, 0, 64, 0
1, 22449, Note_on_c, 0, 57, 0
1, 22450, Note_on_c, 0, 61, 0
1, 22452, Note_on_c, 0, 67, 0
1, 22453, Note_on_c, 3, 71, 0
1, 22461, Note_on_c, 6, 57, 0
1, 22462, Note_on_c, 6, 52, 0
1, 22462, Note_on_c, 3, 69, 127
1, 22462, Note_on_c, 6, 52, 103
1, 22463, Note_on_c, 6, 57, 98
1, 22464, Note_on_c, 1, 42, 111
1, 22465, Note_on_c, 9, 38, 52
1, 22466, Note_on_c, 9, 35, 110
1, 22467, Note_on_c, 9, 35, 0
1, 22467, Note_on_c, 9, 38, 0
1, 22468, Note_on_c, 4, 43, 127
1, 22501, Pitch_bend_c, 3, 8160
1, 22504, Pitch_bend_c, 3, 7872
1, 22508, Note_on_c, 6, 57, 0
1, 22508, Note_on_c, 6, 52, 0
1, 22509, Pitch_bend_c, 3, 7648
1, 22511, Pitch_bend_c, 3, 7328
1, 22512, Note_on_c, 1, 42, 0
1, 22512, Note_on_c, 6, 57, 73
1, 22513, Note_on_c, 6, 52, 65
1, 22514, Note_on_c, 4, 43, 0
1, 22514, Pitch_bend_c, 3, 6720
1, 22517, Pitch_bend_c, 3, 6432
1, 22517, Note_on_c, 9, 38, 47
1, 22518, Note_on_c, 9, 38, 0
1, 22521, Pitch_bend_c, 3, 5856
1, 22525, Pitch_bend_c, 3, 5600
1, 22526, Pitch_bend_c, 3, 5024
1, 22535, Pitch_bend_c, 3, 4640
1, 22540, Pitch_bend_c, 3, 4672
1, 22541, Pitch_bend_c, 3, 4832
1, 22546, Pitch_bend_c, 3, 5504
1, 22549, Pitch_bend_c, 3, 6272
1, 22551, Note_on_c, 3, 69, 0
1, 22553, Pitch_bend_c, 3, 6688
1, 22555, Pitch_bend_c, 3, 7072
1, 22557, Note_on_c, 6, 49, 127
1, 22558, Note_on_c, 6, 52, 0
1, 22558, Note_on_c, 6, 52, 127
1, 22559, Note_on_c, 6, 57, 0
1, 22559, Note_on_c, 6, 57, 127
1, 22560, Note_on_c, 1, 40, 121
1, 22561, Note_on_c, 0, 61, 117
1, 22561, Note_on_c, 9, 40, 96
1, 22562, Note_on_c, 9, 40, 0
1, 22562, Note_on_c, 0, 67, 113
1, 22562, Note_on_c, 9, 28, 92
1, 22563, Note_on_c, 9, 28, 0
1, 22563, Note_on_c, 0, 64, 117
1, 22564, Note_on_c, 0, 57, 117
1, 22565, Pitch_bend_c, 3, 7712
1, 22567, Note_on_c, 3, 67, 124
1, 22568, Note_on_c, 4, 42, 127
1, 22569, Note_on_c, 4, 49, 127
1, 22570, Note_on_c, 6, 49, 0
1, 22570, Pitch_bend_c, 3, 8128
1, 22571, Note_on_c, 6, 52, 0
1, 22571, Note_on_c, 6, 57, 0
1, 22598, Note_on_c, 3, 67, 0
1, 22598, Note_on_c, 0, 67, 0
1, 22599, Note_on_c, 0, 57, 0
1, 22600, Note_on_c, 0, 64, 0
1, 22605, Note_on_c, 0, 61, 0
1, 22608, Note_on_c, 1, 40, 0
1, 22608, Note_on_c, 6, 57, 73
1, 22608, Note_on_c, 6, 52, 65
1, 22610, Note_on_c, 3, 66, 127
1, 22613, Note_on_c, 4, 42, 0
1, 22613, Note_on_c, 9, 38, 23
1, 22614, Note_on_c, 9, 38, 0
1, 22615, Note_on_c, 4, 49, 0
1, 22655, Note_on_c, 6, 57, 0
1, 22656, Note_on_c, 1, 38, 126
1, 22656, Note_on_c, 6, 57, 103
1, 22656, Note_on_c, 6, 54, 103
1, 22656, Note_on_c, 6, 62, 102
1, 22657, Note_on_c, 6, 52, 0
1, 22657, Note_on_c, 9, 38, 43
1, 22658, Note_on_c, 4, 50, 127
1, 22658, Note_on_c, 9, 35, 111
1, 22660, Note_on_c, 9, 35, 0
1, 22660, Note_on_c, 9, 38, 0
1, 22703, Note_on_c, 6, 57, 0
1, 22703, Note_on_c, 6, 62, 0
1, 22704, Note_on_c, 6, 54, 0
1, 22704, Note_on_c, 6, 54, 86
1, 22704, Note_on_c, 6, 57, 89
1, 22705, Note_on_c, 6, 62, 86
1, 22706, Note_on_c, 4, 50, 0
1, 22709, Note_on_c, 9, 38, 45
1, 22710, Note_on_c, 9, 38, 0
1, 22736, Control_c, 3, 1, 13
1, 22741, Control_c, 3, 1, 21
1, 22745, Control_c, 3, 1, 41
1, 22749, Note_on_c, 6, 62, 0
1, 22750, Control_c, 3, 1, 64
1, 22750, Note_on_c, 6, 62, 112
1, 22751, Note_on_c, 6, 54, 0
1, 22751, Note_on_c, 6, 54, 117
1, 22752, Note_on_c, 6, 59, 120
1, 22753, Note_on_c, 6, 57, 0
1, 22753, Note_on_c, 0, 62, 117
1, 22753, Note_on_c, 9, 40, 98
1, 22753, Note_on_c, 9, 28, 94
1, 22754, Note_on_c, 9, 40, 0
1, 22754, Note_on_c, 0, 57, 117
1, 22755, Note_on_c, 9, 28, 0
1, 22755, Note_on_c, 0, 66, 117
1, 22756, Control_c, 3, 1, 84
1, 22757, Note_on_c, 4, 47, 127
1, 22758, Note_on_c, 1, 38, 0
1, 22758, Control_c, 3, 1, 98
1, 22759, Note_on_c, 4, 54, 127
1, 22763, Control_c, 3, 1, 104
1, 22767, Control_c, 3, 1, 114
1, 22769, Note_on_c, 6, 54, 0
1, 22772, Note_on_c, 6, 59, 0
1, 22773, Control_c, 3, 1, 117
1, 22774, Note_on_c, 0, 66, 0
1, 22776, Note_on_c, 0, 57, 0
1, 22776, Note_on_c, 0, 62, 0
1, 22777, Note_on_c, 6, 62, 0
1, 22780, Control_c, 3, 1, 104
1, 22788, Control_c, 3, 1, 92
1, 22791, Control_c, 3, 1, 59
1, 22794, Control_c, 3, 1, 23
1, 22799, Note_on_c, 6, 57, 98
1, 22800, Note_on_c, 6, 62, 84
1, 22801, Note_on_c, 6, 54, 72
1, 22802, Control_c, 3, 1, 2
1, 22804, Control_c, 3, 1, 0
1, 22805, Note_on_c, 4, 54, 0
1, 22805, Note_on_c, 9, 38, 25
1, 22806, Note_on_c, 9, 38, 0
1, 22806, Note_on_c, 4, 47, 0
1, 22812, Note_on_c, 3, 66, 0
1, 22845, Note_on_c, 6, 57, 0
1, 22845, Note_on_c, 6, 62, 0
1, 22846, Note_on_c, 6, 57, 117
1, 22847, Note_on_c, 6, 54, 0
1, 22847, Note_on_c, 1, 33, 127
1, 22847, Note_on_c, 6, 62, 113
1, 22847, Note_on_c, 6, 54, 114
1, 22849, Note_on_c, 9, 38, 54
1, 22849, Note_on_c, 9, 35, 110
1, 22851, Note_on_c, 9, 35, 0
1, 22851, Note_on_c, 9, 38, 0
1, 22852, Note_on_c, 4, 45, 127
1, 22889, Note_on_c, 6, 62, 0
1, 22890, Note_on_c, 6, 54, 0
1, 22891, Note_on_c, 6, 57, 0
1, 22894, Note_on_c, 0, 62, 117
1, 22895, Note_on_c, 0, 66, 117
1, 22896, Note_on_c, 0, 57, 117
1, 22897, Note_on_c, 6, 57, 92
1, 22897, Note_on_c, 6, 54, 88
1, 22898, Note_on_c, 6, 62, 87
1, 22901, Note_on_c, 9, 38, 45
1, 22902, Note_on_c, 9, 38, 0
1, 22909, Note_on_c, 4, 45, 0
1, 22924, Note_on_c, 0, 57, 0
1, 22929, Note_on_c, 0, 66, 0
1, 22931, Note_on_c, 0, 62, 0
1, 22941, Note_on_c, 6, 62, 0
1, 22941, Note_on_c, 6, 57, 0
1, 22942, Note_on_c, 6, 54, 0
1, 22943, Note_on_c, 6, 62, 110
1, 22943, Note_on_c, 6, 54, 115
1, 22944, Note_on_c, 6, 59, 118
1, 22945, Note_on_c, 9, 40, 97
1, 22945, Note_on_c, 9, 28, 90
1, 22946, Note_on_c, 9, 40, 0
1, 22947, Note_on_c, 9, 28, 0
1, 22948, Note_on_c, 4, 47, 127
1, 22951, Note_on_c, 1, 33, 0
1, 22951, Note_on_c, 4, 54, 127
1, 22959, Note_on_c, 6, 54, 0
1, 22961, Note_on_c, 6, 59, 0
1, 22967, Note_on_c, 6, 62, 0
1, 22982, Note_on_c, 4, 47, 0
1, 22984, Note_on_c, 4, 54, 0
1, 22992, Note_on_c, 6, 57, 84
1, 22992, Note_on_c, 6, 62, 90
1, 22993, Note_on_c, 6, 54, 90
1, 22997, Note_on_c, 9, 38, 25
1, 22998, Note_on_c, 9, 38, 0
1, 23001, Note_on_c, 4, 50, 127
1, 23003, Note_on_c, 4, 62, 127
1, 23037, Note_on_c, 6, 54, 0
1, 23038, Note_on_c, 6, 62, 0
1, 23039, Note_on_c, 4, 62, 0
1, 23039, Note_on_c, 6, 57, 0
1, 23040, Note_on_c, 4, 50, 0
1, 23040, Note_on_c, 1, 38, 127
1, 23041, Note_on_c, 0, 66, 117
1, 23041, Note_on_c, 9, 38, 53
1, 23042, Note_on_c, 0, 57, 117
1, 23042, Note_on_c, 9, 35, 111
1, 23043, Note_on_c, 0, 62, 117
1, 23044, Note_on_c, 9, 35, 0
1, 23044, Note_on_c, 9, 38, 0
1, 23044, Note_on_c, 6, 57, 103
1, 23045, Note_on_c, 6, 54, 103
1, 23046, Note_on_c, 6, 62, 102
1, 23047, Note_on_c, 4, 50, 127
1, 23066, Note_on_c, 0, 57, 0
1, 23070, Note_on_c, 0, 62, 0
1, 23076, Note_on_c, 0, 66, 0
1, 23084, Note_on_c, 4, 50, 0
1, 23086, Note_on_c, 6, 57, 0
1, 23086, Note_on_c, 6, 62, 0
1, 23088, Note_on_c, 6, 54, 0
1, 23088, Note_on_c, 6, 54, 86
1, 23088, Note_on_c, 6, 57, 89
1, 23089, Note_on_c, 6, 62, 86
1, 23092, Note_on_c, 9, 38, 42
1, 23094, Note_on_c, 9, 38, 0
1, 23095, Note_on_c, 4, 47, 127
1, 23098, Note_on_c, 4, 62, 127
1, 23128, Note_on_c, 4, 47, 0
1, 23132, Note_on_c, 4, 62, 0
1, 23133, Note_on_c, 6, 62, 0
1, 23134, Note_on_c, 6, 54, 0
1, 23134, Note_on_c, 6, 62, 112
1, 23134, Note_on_c, 6, 54, 117
1, 23135, Note_on_c, 6, 59, 120
1, 23136, Note_on_c, 6, 57, 0
1, 23137, Note_on_c, 9, 40, 97
1, 23138, Note_on_c, 9, 40, 0
1, 23138, Note_on_c, 9, 28, 91
1, 23139, Note_on_c, 9, 28, 0
1, 23140, Note_on_c, 4, 47, 127
1, 23144, Note_on_c, 1, 38, 0
1, 23144, Note_on_c, 4, 54, 127
1, 23153, Note_on_c, 6, 54, 0
1, 23156, Note_on_c, 6, 59, 0
1, 23161, Note_on_c, 6, 62, 0
1, 23183, Note_on_c, 0, 66, 117
1, 23184, Note_on_c, 0, 57, 117
1, 23184, Note_on_c, 0, 62, 117
1, 23184, Note_on_c, 1, 38, 116
1, 23185, Note_on_c, 6, 57, 98
1, 23185, Note_on_c, 9, 35, 68
1, 23186, Note_on_c, 6, 62, 84
1, 23187, Note_on_c, 9, 35, 0
1, 23187, Note_on_c, 6, 54, 72
1, 23188, Note_on_c, 4, 47, 0
1, 23188, Note_on_c, 9, 38, 27
1, 23189, Note_on_c, 4, 54, 0
1, 23190, Note_on_c, 9, 38, 0
1, 23197, Note_on_c, 1, 38, 0
1, 23215, Note_on_c, 0, 57, 0
1, 23218, Note_on_c, 0, 62, 0
1, 23218, Note_on_c, 0, 66, 0
1, 23229, Note_on_c, 6, 57, 0
1, 23230, Note_on_c, 6, 62, 0
1, 23230, Note_on_c, 6, 57, 117
1, 23231, Note_on_c, 6, 62, 113
1, 23232, Note_on_c, 6, 54, 0
1, 23232, Note_on_c, 1, 33, 127
1, 23232, Note_on_c, 6, 54, 114
1, 23233, Note_on_c, 9, 38, 52
1, 23233, Note_on_c, 9, 35, 110
1, 23235, Note_on_c, 9, 35, 0
1, 23235, Note_on_c, 9, 38, 0
1, 23236, Note_on_c, 4, 45, 127
1, 23273, Note_on_c, 6, 62, 0
1, 23275, Note_on_c, 6, 54, 0
1, 23276, Note_on_c, 6, 57, 0
1, 23280, Note_on_c, 6, 57, 92
1, 23280, Note_on_c, 6, 54, 88
1, 23281, Note_on_c, 1, 33, 0
1, 23281, Note_on_c, 6, 62, 87
1, 23282, Note_on_c, 4, 45, 0
1, 23285, Note_on_c, 9, 38, 47
1, 23286, Note_on_c, 9, 38, 0
1, 23325, Note_on_c, 6, 57, 0
1, 23326, Note_on_c, 6, 54, 0
1, 23326, Note_on_c, 6, 62, 0
1, 23327, Note_on_c, 6, 62, 110
1, 23328, Note_on_c, 1, 38, 127
1, 23328, Note_on_c, 6, 54, 115
1, 23328, Note_on_c, 6, 59, 118
1, 23328, Note_on_c, 9, 40, 96
1, 23329, Note_on_c, 0, 66, 117
1, 23330, Note_on_c, 9, 40, 0
1, 23330, Note_on_c, 0, 62, 117
1, 23330, Note_on_c, 9, 28, 92
1, 23331, Note_on_c, 9, 28, 0
1, 23331, Note_on_c, 0, 57, 117
1, 23332, Note_on_c, 4, 42, 127
1, 23343, Note_on_c, 6, 54, 0
1, 23345, Note_on_c, 6, 59, 0
1, 23349, Note_on_c, 6, 62, 0
1, 23358, Note_on_c, 0, 57, 0
1, 23366, Note_on_c, 0, 62, 0
1, 23372, Note_on_c, 0, 66, 0
1, 23373, Note_on_c, 1, 38, 0
1, 23376, Note_on_c, 6, 57, 84
1, 23376, Note_on_c, 6, 62, 90
1, 23377, Note_on_c, 6, 54, 90
1, 23381, Note_on_c, 4, 42, 0
1, 23381, Note_on_c, 9, 38, 53
1, 23382, Note_on_c, 9, 38, 0
1, 23421, Note_on_c, 6, 54, 0
1, 23421, Note_on_c, 6, 62, 0
1, 23422, Note_on_c, 6, 57, 0
1, 23423, Note_on_c, 6, 52, 90
1, 23424, Note_on_c, 1, 45, 123
1, 23424, Note_on_c, 6, 57, 98
1, 23425, Note_on_c, 3, 67, 122
1, 23425, Note_on_c, 9, 38, 43
1, 23426, Note_on_c, 4, 45, 127
1, 23426, Note_on_c, 9, 35, 111
1, 23427, Note_on_c, 9, 35, 0
1, 23428, Note_on_c, 9, 38, 0
1, 23459, Note_on_c, 3, 67, 0
1, 23469, Note_on_c, 6, 57, 0
1, 23470, Note_on_c, 6, 52, 0
1, 23471, Note_on_c, 3, 67, 113
1, 23472, Note_on_c, 6, 57, 60
1, 23473, Note_on_c, 6, 52, 65
1, 23474, Note_on_c, 4, 45, 0
1, 23477, Note_on_c, 9, 38, 45
1, 23478, Note_on_c, 9, 38, 0
1, 23518, Note_on_c, 6, 52, 0
1, 23518, Note_on_c, 6, 49, 127
1, 23518, Note_on_c, 6, 52, 115
1, 23519, Note_on_c, 6, 57, 0
1, 23519, Note_on_c, 6, 57, 127
1, 23520, Note_on_c, 9, 40, 98
1, 23521, Note_on_c, 9, 28, 94
1, 23522, Note_on_c, 9, 40, 0
1, 23522, Note_on_c, 0, 61, 117
1, 23523, Note_on_c, 9, 28, 0
1, 23523, Note_on_c, 0, 67, 107
1, 23524, Note_on_c, 0, 64, 117
1, 23525, Note_on_c, 0, 57, 117
1, 23526, Note_on_c, 4, 42, 127
1, 23528, Note_on_c, 6, 49, 0
1, 23528, Note_on_c, 4, 49, 127
1, 23530, Note_on_c, 6, 52, 0
1, 23530, Note_on_c, 1, 45, 0
1, 23533, Note_on_c, 6, 57, 0
1, 23553, Note_on_c, 0, 57, 0
1, 23554, Note_on_c, 0, 67, 0
1, 23555, Note_on_c, 0, 64, 0
1, 23559, Note_on_c, 0, 61, 0
1, 23567, Note_on_c, 6, 57, 73
1, 23568, Note_on_c, 6, 52, 65
1, 23573, Note_on_c, 4, 49, 0
1, 23573, Note_on_c, 9, 38, 25
1, 23574, Note_on_c, 9, 38, 0
1, 23574, Note_on_c, 4, 42, 0
1, 23584, Note_on_c, 3, 67, 0
1, 23613, Note_on_c, 6, 57, 0
1, 23614, Note_on_c, 6, 52, 0
1, 23614, Note_on_c, 6, 52, 103
1, 23614, Note_on_c, 6, 57, 98
1, 23616, Note_on_c, 1, 42, 111
1, 23616, Note_on_c, 3, 67, 120
1, 23617, Note_on_c, 9, 38, 54
1, 23618, Note_on_c, 9, 35, 110
1, 23619, Note_on_c, 9, 35, 0
1, 23619, Note_on_c, 9, 38, 0
1, 23620, Note_on_c, 4, 40, 127
1, 23660, Note_on_c, 6, 52, 0
1, 23660, Note_on_c, 6, 57, 0
1, 23661, Note_on_c, 3, 67, 0
1, 23663, Note_on_c, 0, 61, 117
1, 23664, Note_on_c, 0, 57, 117
1, 23664, Note_on_c, 0, 67, 107
1, 23664, Note_on_c, 0, 64, 117
1, 23665, Note_on_c, 6, 57, 73
1, 23666, Note_on_c, 6, 52, 65
1, 23668, Note_on_c, 1, 42, 0
1, 23668, Note_on_c, 9, 38, 45
1, 23670, Note_on_c, 9, 38, 0
1, 23677, Note_on_c, 4, 40, 0
1, 23697, Note_on_c, 0, 64, 0
1, 23698, Note_on_c, 0, 67, 0
1, 23704, Note_on_c, 0, 57, 0
1, 23706, Note_on_c, 0, 61, 0
1, 23710, Note_on_c, 3, 69, 119
1, 23710, Note_on_c, 6, 49, 127
1, 23711, Note_on_c, 6, 52, 0
1, 23711, Note_on_c, 6, 52, 127
1, 23712, Note_on_c, 6, 57, 0
1, 23712, Note_on_c, 1, 40, 123
1, 23712, Note_on_c, 6, 57, 127
1, 23713, Note_on_c, 9, 40, 97
1, 23713, Note_on_c, 9, 28, 90
1, 23714, Note_on_c, 9, 40, 0
1, 23715, Note_on_c, 9, 28, 0
1, 23715, Note_on_c, 4, 42, 127
1, 23719, Note_on_c, 6, 49, 0
1, 23719, Note_on_c, 4, 49, 127
1, 23720, Note_on_c, 6, 52, 0
1, 23721, Note_on_c, 6, 57, 0
1, 23750, Note_on_c, 4, 42, 0
1, 23752, Note_on_c, 4, 49, 0
1, 23754, Note_on_c, 3, 69, 0
1, 23756, Pitch_bend_c, 3, 5461
1, 23758, Pitch_bend_c, 3, 5041
1, 23760, Note_on_c, 6, 57, 73
1, 23760, Note_on_c, 6, 52, 65
1, 23761, Pitch_bend_c, 3, 4620
1, 23762, Note_on_c, 3, 71, 126
1, 23763, Note_on_c, 1, 40, 0
1, 23765, Pitch_bend_c, 3, 5041
1, 23765, Note_on_c, 9, 38, 25
1, 23766, Note_on_c, 9, 38, 0
1, 23769, Note_on_c, 4, 45, 127
1, 23771, Note_on_c, 4, 57, 127
1, 23796, Pitch_bend_c, 3, 5549
1, 23801, Pitch_bend_c, 3, 5813
1, 23805, Note_on_c, 4, 57, 0
1, 23806, Note_on_c, 6, 52, 0
1, 23806, Note_on_c, 6, 52, 90
1, 23807, Note_on_c, 6, 57, 0
1, 23807, Note_on_c, 6, 57, 98
1, 23808, Note_on_c, 4, 45, 0
1, 23808, Note_on_c, 1, 33, 119
1, 23809, Pitch_bend_c, 3, 6077
1, 23809, Note_on_c, 9, 38, 53
1, 23810, Note_on_c, 0, 61, 117
1, 23810, Note_on_c, 9, 35, 111
1, 23811, Note_on_c, 0, 67, 104
1, 23812, Note_on_c, 9, 35, 0
1, 23812, Note_on_c, 9, 38, 0
1, 23812, Note_on_c, 0, 64, 117
1, 23813, Note_on_c, 0, 57, 117
1, 23815, Pitch_bend_c, 3, 6342
1, 23816, Note_on_c, 4, 45, 127
1, 23817, Pitch_bend_c, 3, 6720
1, 23819, Pitch_bend_c, 3, 7104
1, 23824, Pitch_bend_c, 3, 7872
1, 23827, Pitch_bend_c, 3, 8064
1, 23841, Note_on_c, 0, 64, 0
1, 23841, Note_on_c, 0, 67, 0
1, 23842, Note_on_c, 0, 57, 0
1, 23845, Note_on_c, 0, 61, 0
1, 23852, Note_on_c, 4, 45, 0
1, 23852, Note_on_c, 6, 57, 0
1, 23852, Note_on_c, 6, 52, 0
1, 23855, Pitch_bend_c, 3, 8192
1, 23856, Note_on_c, 6, 57, 60
1, 23857, Note_on_c, 6, 52, 65
1, 23861, Note_on_c, 9, 38, 42
1, 23863, Note_on_c, 9, 38, 0
1, 23863, Note_on_c, 4, 42, 127
1, 23867, Note_on_c, 4, 57, 127
1, 23881, Note_on_c, 3, 71, 0
1, 23896, Note_on_c, 4, 42, 0
1, 23900, Note_on_c, 4, 57, 0
1, 23902, Note_on_c, 6, 49, 127
1, 23903, Note_on_c, 6, 57, 0
1, 23903, Note_on_c, 6, 52, 0
1, 23903, Note_on_c, 6, 52, 115
1, 23903, Note_on_c, 6, 57, 127
1, 23905, Note_on_c, 3, 71, 108
1, 23905, Note_on_c, 9, 40, 97
1, 23906, Note_on_c, 9, 40, 0
1, 23906, Note_on_c, 9, 28, 91
1, 23907, Note_on_c, 9, 28, 0
1, 23908, Note_on_c, 4, 42, 127
1, 23912, Note_on_c, 6, 49, 0
1, 23912, Note_on_c, 4, 49, 127
1, 23913, Note_on_c, 1, 33, 0
1, 23914, Note_on_c, 6, 52, 0
1, 23917, Note_on_c, 6, 57, 0
1, 23936, Note_on_c, 3, 71, 0
1, 23951, Note_on_c, 0, 61, 117
1, 23951, Note_on_c, 0, 64, 117
1, 23952, Note_on_c, 0, 67, 107
1, 23952, Note_on_c, 1, 33, 109
1, 23953, Note_on_c, 0, 57, 117
1, 23953, Note_on_c, 9, 35, 68
1, 23954, Note_on_c, 9, 35, 0
1, 23954, Note_on_c, 6, 57, 73
1, 23955, Note_on_c, 6, 52, 65
1, 23956, Note_on_c, 4, 42, 0
1, 23957, Note_on_c, 3, 69, 127
1, 23957, Note_on_c, 9, 38, 27
1, 23958, Note_on_c, 9, 38, 0
1, 23958, Note_on_c, 4, 49, 0
1, 23966, Note_on_c, 1, 33, 0
1, 23985, Note_on_c, 0, 67, 0
1, 23986, Note_on_c, 0, 64, 0
1, 23988, Note_on_c, 0, 61, 0
1, 23990, Note_on_c, 0, 57, 0
1, 23997, Note_on_c, 6, 57, 0
1, 23998, Note_on_c, 6, 52, 0
1, 23998, Note_on_c, 6, 52, 103
1, 23998, Note_on_c, 6, 57, 98
1, 24000, Note_on_c, 1, 40, 124
1, 24001, Note_on_c, 9, 38, 52
1, 24002, Note_on_c, 9, 35, 110
1, 24003, Note_on_c, 9, 35, 0
1, 24003, Note_on_c, 9, 38, 0
1, 24003, Note_on_c, 4, 43, 127
1, 24017, Pitch_bend_c, 3, 8128
1, 24020, Pitch_bend_c, 3, 8064
1, 24022, Pitch_bend_c, 3, 7808
1, 24027, Pitch_bend_c, 3, 7680
1, 24033, Pitch_bend_c, 3, 7168
1, 24037, Pitch_bend_c, 3, 6848
1, 24044, Note_on_c, 6, 57, 0
1, 24044, Note_on_c, 6, 52, 0
1, 24044, Pitch_bend_c, 3, 6752
1, 24045, Pitch_bend_c, 3, 6624
1, 24048, Pitch_bend_c, 3, 6336
1, 24048, Note_on_c, 6, 57, 73
1, 24048, Note_on_c, 6, 52, 65
1, 24049, Note_on_c, 4, 43, 0
1, 24051, Pitch_bend_c, 3, 6112
1, 24052, Note_on_c, 9, 38, 47
1, 24053, Note_on_c, 9, 38, 0
1, 24057, Pitch_bend_c, 3, 5248
1, 24068, Pitch_bend_c, 3, 3936
1, 24072, Pitch_bend_c, 3, 3744
1, 24074, Pitch_bend_c, 3, 3680
1, 24082, Pitch_bend_c, 3, 3808
1, 24088, Pitch_bend_c, 3, 3840
1, 24090, Note_on_c, 3, 69, 0
1, 24090, Pitch_bend_c, 3, 3936
1, 24092, Pitch_bend_c, 3, 4064
1, 24095, Note_on_c, 6, 49, 127
1, 24096, Note_on_c, 6, 52, 0
1, 24096, Note_on_c, 6, 57, 0
1, 24096, Note_on_c, 0, 61, 117
1, 24096, Note_on_c, 6, 52, 127
1, 24096, Note_on_c, 6, 57, 127
1, 24096, Note_on_c, 9, 40, 96
1, 24097, Note_on_c, 0, 67, 105
1, 24098, Note_on_c, 9, 40, 0
1, 24098, Note_on_c, 0, 57, 117
1, 24098, Note_on_c, 9, 28, 92
1, 24099, Note_on_c, 9, 28, 0
1, 24099, Note_on_c, 0, 64, 117
1, 24101, Note_on_c, 4, 42, 127
1, 24102, Pitch_bend_c, 3, 4704
1, 24103, Note_on_c, 6, 49, 0
1, 24103, Note_on_c, 4, 49, 127
1, 24104, Note_on_c, 6, 52, 0
1, 24105, Note_on_c, 1, 40, 0
1, 24105, Note_on_c, 6, 57, 0
1, 24106, Pitch_bend_c, 3, 5728
1, 24107, Pitch_bend_c, 3, 6720
1, 24110, Pitch_bend_c, 3, 7584
1, 24112, Pitch_bend_c, 3, 8192
1, 24124, Note_on_c, 0, 64, 0
1, 24127, Note_on_c, 0, 67, 0
1, 24128, Note_on_c, 0, 57, 0
1, 24128, Note_on_c, 0, 61, 0
1, 24144, Note_on_c, 6, 57, 73
1, 24144, Note_on_c, 6, 52, 65
1, 24149, Note_on_c, 4, 42, 0
1, 24149, Note_on_c, 9, 38, 23
1, 24150, Note_on_c, 9, 38, 0
1, 24150, Note_on_c, 4, 49, 0
1, 24190, Note_on_c, 6, 57, 0
1, 24190, Note_on_c, 6, 52, 0
1, 24190, Note_on_c, 6, 52, 90
1, 24190, Note_on_c, 6, 57, 98
1, 24191, Note_on_c, 1, 33, 121
1, 24192, Note_on_c, 3, 67, 127
1, 24193, Note_on_c, 9, 38, 43
1, 24194, Note_on_c, 4, 45, 127
1, 24194, Note_on_c, 9, 35, 111
1, 24196, Note_on_c, 9, 35, 0
1, 24196, Note_on_c, 9, 38, 0
1, 24233, Note_on_c, 3, 67, 0
1, 24234, Note_on_c, 6, 57, 0
1, 24235, Note_on_c, 6, 52, 0
1, 24239, Note_on_c, 6, 57, 60
1, 24240, Note_on_c, 6, 52, 65
1, 24241, Note_on_c, 4, 45, 0
1, 24242, Note_on_c, 3, 67, 122
1, 24245, Note_on_c, 9, 38, 45
1, 24246, Note_on_c, 9, 38, 0
1, 24286, Note_on_c, 6, 49, 127
1, 24287, Note_on_c, 6, 52, 0
1, 24287, Note_on_c, 6, 57, 0
1, 24287, Note_on_c, 6, 52, 115
1, 24287, Note_on_c, 6, 57, 127
1, 24289, Note_on_c, 0, 61, 117
1, 24289, Note_on_c, 9, 40, 98
1, 24289, Note_on_c, 9, 28, 94
1, 24290, Note_on_c, 9, 40, 0
1, 24290, Note_on_c, 0, 67, 110
1, 24291, Note_on_c, 9, 28, 0
1, 24291, Note_on_c, 0, 64, 117
1, 24292, Note_on_c, 0, 57, 117
1, 24293, Note_on_c, 4, 42, 127
1, 24296, Note_on_c, 4, 49, 127
1, 24297, Note_on_c, 6, 49, 0
1, 24297, Note_on_c, 6, 52, 0
1, 24298, Note_on_c, 1, 33, 0
1, 24301, Note_on_c, 6, 57, 0
1, 24318, Note_on_c, 0, 57, 0
1, 24319, Note_on_c, 0, 64, 0
1, 24321, Note_on_c, 0, 67, 0
1, 24322, Note_on_c, 0, 61, 0
1, 24336, Note_on_c, 6, 57, 73
1, 24336, Note_on_c, 6, 52, 65
1, 24341, Note_on_c, 4, 42, 0
1, 24341, Note_on_c, 4, 49, 0
1, 24341, Note_on_c, 9, 38, 25
1, 24342, Note_on_c, 9, 38, 0
1, 24346, Note_on_c, 3, 67, 0
1, 24381, Note_on_c, 6, 57, 0
1, 24382, Note_on_c, 6, 52, 0
1, 24382, Note_on_c, 6, 52, 103
1, 24382, Note_on_c, 6, 57, 98
1, 24384, Note_on_c, 1, 40, 110
1, 24385, Note_on_c, 3, 67, 122
1, 24385, Note_on_c, 9, 38, 54
1, 24386, Note_on_c, 9, 35, 110
1, 24387, Note_on_c, 9, 35, 0
1, 24387, Note_on_c, 9, 38, 0
1, 24387, Note_on_c, 4, 40, 127
1, 24428, Note_on_c, 6, 57, 0
1, 24429, Note_on_c, 6, 52, 0
1, 24431, Note_on_c, 0, 61, 117
1, 24431, Note_on_c, 0, 57, 117
1, 24432, Note_on_c, 0, 67, 117
1, 24433, Note_on_c, 0, 64, 117
1, 24434, Note_on_c, 6, 57, 73
1, 24435, Note_on_c, 6, 52, 65
1, 24436, Note_on_c, 9, 38, 45
1, 24438, Note_on_c, 9, 38, 0
1, 24445, Note_on_c, 4, 40, 0
1, 24451, Note_on_c, 3, 67, 0
1, 24462, Note_on_c, 0, 64, 0
1, 24463, Note_on_c, 0, 67, 0
1, 24469, Note_on_c, 0, 61, 0
1, 24472, Note_on_c, 0, 57, 0
1, 24478, Note_on_c, 6, 49, 127
1, 24479, Note_on_c, 6, 52, 0
1, 24479, Note_on_c, 6, 57, 0
1, 24479, Note_on_c, 6, 52, 127
1, 24479, Note_on_c, 6, 57, 127
1, 24480, Note_on_c, 9, 40, 97
1, 24482, Note_on_c, 9, 28, 90
1, 24483, Note_on_c, 9, 40, 0
1, 24483, Note_on_c, 3, 69, 114
1, 24484, Note_on_c, 9, 28, 0
1, 24484, Note_on_c, 4, 42, 127
1, 24487, Note_on_c, 4, 49, 127
1, 24488, Note_on_c, 6, 52, 0
1, 24488, Note_on_c, 6, 49, 0
1, 24489, Note_on_c, 6, 57, 0
1, 24492, Note_on_c, 1, 40, 0
1, 24507, Note_on_c, 3, 69, 0
1, 24518, Note_on_c, 4, 42, 0
1, 24520, Note_on_c, 4, 49, 0
1, 24527, Pitch_bend_c, 3, 4492
1, 24528, Note_on_c, 6, 57, 73
1, 24528, Note_on_c, 6, 52, 65
1, 24530, Note_on_c, 3, 71, 127
1, 24533, Note_on_c, 9, 38, 25
1, 24534, Note_on_c, 9, 38, 0
1, 24537, Note_on_c, 4, 45, 127
1, 24539, Note_on_c, 4, 57, 127
1, 24553, Pitch_bend_c, 3, 4756
1, 24561, Pitch_bend_c, 3, 5285
1, 24566, Pitch_bend_c, 3, 5549
1, 24569, Pitch_bend_c, 3, 6077
1, 24573, Note_on_c, 4, 57, 0
1, 24573, Pitch_bend_c, 3, 7296
1, 24574, Note_on_c, 6, 52, 0
1, 24574, Note_on_c, 6, 52, 90
1, 24575, Note_on_c, 6, 57, 0
1, 24575, Note_on_c, 6, 57, 98
1, 24576, Note_on_c, 1, 45, 124
1, 24577, Note_on_c, 4, 45, 0
1, 24577, Note_on_c, 9, 38, 53
1, 24578, Note_on_c, 0, 61, 117
1, 24578, Note_on_c, 9, 35, 111
1, 24579, Note_on_c, 0, 67, 117
1, 24580, Note_on_c, 9, 35, 0
1, 24580, Note_on_c, 9, 38, 0
1, 24580, Note_on_c, 0, 57, 117
1, 24581, Note_on_c, 0, 64, 117
1, 24583, Pitch_bend_c, 3, 7808
1, 24584, Pitch_bend_c, 3, 8128
1, 24585, Pitch_bend_c, 3, 8192
1, 24586, Note_on_c, 4, 45, 127
1, 24606, Note_on_c, 0, 64, 0
1, 24610, Note_on_c, 0, 67, 0
1, 24613, Note_on_c, 0, 57, 0
1, 24613, Note_on_c, 0, 61, 0
1, 24619, Note_on_c, 6, 57, 0
1, 24620, Note_on_c, 6, 52, 0
1, 24620, Note_on_c, 4, 45, 0
1, 24624, Note_on_c, 6, 57, 60
1, 24624, Note_on_c, 6, 52, 65
1, 24625, Note_on_c, 3, 71, 0
1, 24629, Note_on_c, 9, 38, 42
1, 24630, Note_on_c, 9, 38, 0
1, 24631, Note_on_c, 4, 42, 127
1, 24634, Note_on_c, 4, 57, 127
1, 24664, Note_on_c, 4, 42, 0
1, 24664, Note_on_c, 3, 71, 124
1, 24668, Note_on_c, 4, 57, 0
1, 24670, Note_on_c, 6, 49, 127
1, 24671, Note_on_c, 6, 52, 0
1, 24671, Note_on_c, 6, 57, 0
1, 24671, Note_on_c, 6, 52, 115
1, 24671, Note_on_c, 6, 57, 127
1, 24672, Note_on_c, 9, 40, 97
1, 24674, Note_on_c, 9, 40, 0
1, 24674, Note_on_c, 9, 28, 91
1, 24675, Note_on_c, 9, 28, 0
1, 24676, Note_on_c, 4, 42, 127
1, 24680, Note_on_c, 6, 49, 0
1, 24680, Note_on_c, 4, 49, 127
1, 24681, Note_on_c, 1, 45, 0
1, 24682, Note_on_c, 6, 52, 0
1, 24685, Note_on_c, 6, 57, 0
1, 24719, Note_on_c, 0, 61, 117
1, 24720, Note_on_c, 0, 67, 107
1, 24720, Note_on_c, 0, 57, 117
1, 24720, Note_on_c, 1, 45, 112
1, 24721, Note_on_c, 0, 64, 117
1, 24721, Note_on_c, 9, 35, 68
1, 24722, Note_on_c, 3, 71, 0
1, 24723, Note_on_c, 6, 57, 73
1, 24724, Note_on_c, 9, 35, 0
1, 24724, Note_on_c, 6, 52, 65
1, 24725, Note_on_c, 4, 42, 0
1, 24725, Note_on_c, 9, 38, 27
1, 24726, Note_on_c, 9, 38, 0
1, 24726, Note_on_c, 4, 49, 0
1, 24736, Note_on_c, 1, 45, 0
1, 24751, Note_on_c, 0, 64, 0
1, 24753, Note_on_c, 0, 57, 0
1, 24758, Note_on_c, 0, 67, 0
1, 24759, Note_on_c, 0, 61, 0
1, 24760, Note_on_c, 3, 69, 119
1, 24765, Note_on_c, 6, 57, 0
1, 24766, Note_on_c, 6, 52, 0
1, 24766, Note_on_c, 6, 52, 103
1, 24767, Note_on_c, 6, 57, 98
1, 24768, Note_on_c, 1, 40, 112
1, 24769, Note_on_c, 9, 38, 52
1, 24769, Note_on_c, 9, 35, 110
1, 24771, Note_on_c, 9, 35, 0
1, 24771, Note_on_c, 9, 38, 0
1, 24772, Note_on_c, 4, 43, 127
1, 24811, Pitch_bend_c, 3, 8160
1, 24812, Note_on_c, 6, 57, 0
1, 24812, Note_on_c, 6, 52, 0
1, 24813, Pitch_bend_c, 3, 7776
1, 24816, Note_on_c, 6, 57, 73
1, 24816, Note_on_c, 6, 52, 65
1, 24817, Note_on_c, 4, 43, 0
1, 24817, Pitch_bend_c, 3, 6976
1, 24821, Pitch_bend_c, 3, 6592
1, 24821, Note_on_c, 9, 38, 47
1, 24822, Note_on_c, 9, 38, 0
1, 24823, Pitch_bend_c, 3, 6144
1, 24826, Pitch_bend_c, 3, 5280
1, 24832, Note_on_c, 1, 40, 0
1, 24832, Pitch_bend_c, 3, 4896
1, 24834, Pitch_bend_c, 3, 4288
1, 24837, Note_on_c, 3, 69, 0
1, 24838, Pitch_bend_c, 3, 4096
1, 24844, Pitch_bend_c, 3, 4192
1, 24845, Pitch_bend_c, 3, 4448
1, 24848, Pitch_bend_c, 3, 5792
1, 24853, Pitch_bend_c, 3, 6752
1, 24856, Pitch_bend_c, 3, 8064
1, 24860, Pitch_bend_c, 3, 8192
1, 24862, Note_on_c, 6, 52, 0
1, 24862, Note_on_c, 6, 49, 127
1, 24862, Note_on_c, 6, 52, 127
1, 24863, Note_on_c, 6, 57, 0
1, 24863, Note_on_c, 6, 57, 127
1, 24864, Note_on_c, 0, 67, 107
1, 24864, Note_on_c, 1, 39, 112
1, 24865, Note_on_c, 0, 61, 117
1, 24865, Note_on_c, 9, 40, 96
1, 24865, Note_on_c, 9, 28, 92
1, 24866, Note_on_c, 9, 40, 0
1, 24866, Note_on_c, 0, 64, 117
1, 24867, Note_on_c, 9, 28, 0
1, 24867, Note_on_c, 0, 57, 117
1, 24869, Note_on_c, 3, 67, 127
1, 24870, Note_on_c, 4, 42, 127
1, 24871, Note_on_c, 4, 49, 127
1, 24872, Note_on_c, 6, 49, 0
1, 24873, Note_on_c, 6, 52, 0
1, 24874, Note_on_c, 6, 57, 0
1, 24903, Note_on_c, 0, 64, 0
1, 24905, Note_on_c, 0, 57, 0
1, 24905, Note_on_c, 0, 67, 0
1, 24908, Note_on_c, 0, 61, 0
1, 24911, Note_on_c, 6, 57, 73
1, 24912, Note_on_c, 6, 52, 65
1, 24914, Note_on_c, 3, 67, 0
1, 24917, Note_on_c, 4, 42, 0
1, 24917, Note_on_c, 9, 38, 23
1, 24918, Note_on_c, 9, 38, 0
1, 24918, Note_on_c, 4, 49, 0
1, 24928, Note_on_c, 1, 39, 0
1, 24958, Note_on_c, 6, 57, 0
1, 24959, Note_on_c, 1, 38, 127
1, 24959, Note_on_c, 6, 57, 103
1, 24960, Note_on_c, 6, 54, 103
1, 24961, Note_on_c, 6, 62, 102
1, 24961, Note_on_c, 9, 38, 43
1, 24962, Note_on_c, 6, 52, 0
1, 24962, Note_on_c, 9, 35, 111
1, 24963, Note_on_c, 3, 66, 127
1, 24964, Note_on_c, 9, 35, 0
1, 24964, Note_on_c, 9, 38, 0
1, 24964, Note_on_c, 4, 50, 127
1, 25006, Note_on_c, 6, 62, 0
1, 25006, Note_on_c, 6, 57, 0
1, 25008, Note_on_c, 6, 54, 0
1, 25008, Note_on_c, 6, 54, 86
1, 25008, Note_on_c, 6, 57, 89
1, 25009, Note_on_c, 6, 62, 86
1, 25010, Note_on_c, 9, 38, 45
1, 25011, Note_on_c, 9, 38, 0
1, 25011, Note_on_c, 4, 50, 0
1, 25043, Note_on_c, 3, 66, 0
1, 25053, Note_on_c, 6, 62, 0
1, 25053, Note_on_c, 6, 62, 112
1, 25054, Note_on_c, 6, 54, 0
1, 25054, Note_on_c, 6, 54, 117
1, 25055, Note_on_c, 6, 59, 120
1, 25057, Note_on_c, 6, 57, 0
1, 25057, Note_on_c, 0, 66, 117
1, 25057, Note_on_c, 9, 40, 98
1, 25058, Note_on_c, 9, 40, 0
1, 25058, Note_on_c, 0, 57, 117
1, 25058, Note_on_c, 9, 28, 94
1, 25059, Note_on_c, 9, 28, 0
1, 25059, Note_on_c, 0, 62, 117
1, 25060, Note_on_c, 3, 69, 117
1, 25061, Note_on_c, 4, 47, 127
1, 25063, Note_on_c, 1, 38, 0
1, 25064, Note_on_c, 4, 54, 127
1, 25073, Note_on_c, 6, 54, 0
1, 25076, Note_on_c, 6, 59, 0
1, 25079, Note_on_c, 3, 69, 0
1, 25081, Note_on_c, 6, 62, 0
1, 25084, Note_on_c, 0, 57, 0
1, 25086, Note_on_c, 0, 62, 0
1, 25091, Note_on_c, 0, 66, 0
1, 25104, Note_on_c, 6, 57, 98
1, 25105, Note_on_c, 6, 62, 84
1, 25105, Note_on_c, 6, 54, 72
1, 25106, Note_on_c, 3, 69, 127
1, 25109, Note_on_c, 4, 47, 0
1, 25109, Note_on_c, 4, 54, 0
1, 25109, Note_on_c, 9, 38, 25
1, 25110, Note_on_c, 9, 38, 0
1, 25149, Note_on_c, 6, 57, 0
1, 25150, Note_on_c, 6, 62, 0
1, 25151, Note_on_c, 6, 57, 117
1, 25152, Note_on_c, 6, 54, 0
1, 25152, Note_on_c, 1, 33, 127
1, 25152, Note_on_c, 6, 62, 113
1, 25152, Note_on_c, 6, 54, 114
1, 25152, Note_on_c, 9, 38, 54
1, 25153, Note_on_c, 9, 35, 110
1, 25155, Note_on_c, 9, 35, 0
1, 25155, Note_on_c, 9, 38, 0
1, 25156, Note_on_c, 4, 45, 127
1, 25178, Control_c, 3, 1, 7
1, 25185, Control_c, 3, 1, 11
1, 25189, Control_c, 3, 1, 12
1, 25193, Note_on_c, 6, 62, 0
1, 25195, Note_on_c, 6, 54, 0
1, 25196, Note_on_c, 6, 57, 0
1, 25197, Control_c, 3, 1, 15
1, 25199, Note_on_c, 0, 66, 117
1, 25199, Note_on_c, 0, 57, 117
1, 25200, Note_on_c, 0, 62, 117
1, 25201, Note_on_c, 6, 57, 92
1, 25202, Note_on_c, 6, 54, 88
1, 25202, Note_on_c, 6, 62, 87
1, 25203, Control_c, 3, 1, 17
1, 25205, Note_on_c, 9, 38, 45
1, 25206, Note_on_c, 9, 38, 0
1, 25208, Control_c, 3, 1, 24
1, 25211, Control_c, 3, 1, 34
1, 25213, Note_on_c, 4, 45, 0
1, 25216, Control_c, 3, 1, 45
1, 25220, Control_c, 3, 1, 61
1, 25226, Note_on_c, 0, 57, 0
1, 25226, Control_c, 3, 1, 71
1, 25229, Control_c, 3, 1, 96
1, 25231, Note_on_c, 0, 62, 0
1, 25233, Control_c, 3, 1, 119
1, 25237, Note_on_c, 0, 66, 0
1, 25238, Control_c, 3, 1, 127
1, 25245, Note_on_c, 6, 57, 0
1, 25246, Note_on_c, 6, 62, 0
1, 25247, Note_on_c, 6, 54, 0
1, 25248, Note_on_c, 6, 62, 110
1, 25248, Note_on_c, 6, 54, 115
1, 25248, Note_on_c, 6, 59, 118
1, 25249, Note_on_c, 9, 40, 97
1, 25250, Note_on_c, 9, 40, 0
1, 25250, Note_on_c, 9, 28, 90
1, 25251, Note_on_c, 9, 28, 0
1, 25252, Note_on_c, 4, 47, 127
1, 25255, Note_on_c, 4, 54, 127
1, 25257, Note_on_c, 1, 33, 0
1, 25263, Note_on_c, 6, 54, 0
1, 25265, Note_on_c, 6, 59, 0
1, 25270, Note_on_c, 6, 62, 0
1, 25274, Note_on_c, 3, 69, 0
1, 25281, Control_c, 3, 1, 114
1, 25284, Control_c, 3, 1, 62
1, 25285, Note_on_c, 4, 47, 0
1, 25287, Control_c, 3, 1, 13
1, 25288, Note_on_c, 4, 54, 0
1, 25293, Control_c, 3, 1, 0
1, 25296, Note_on_c, 6, 57, 84
1, 25297, Note_on_c, 6, 62, 90
1, 25297, Note_on_c, 6, 54, 90
1, 25301, Note_on_c, 9, 38, 25
1, 25302, Note_on_c, 9, 38, 0
1, 25305, Note_on_c, 4, 50, 127
1, 25308, Note_on_c, 4, 62, 127
1, 25341, Note_on_c, 6, 54, 0
1, 25342, Note_on_c, 6, 62, 0
1, 25343, Note_on_c, 4, 62, 0
1, 25344, Note_on_c, 4, 50, 0
1, 25344, Note_on_c, 6, 57, 0
1, 25344, Note_on_c, 1, 38, 127
1, 25345, Note_on_c, 0, 57, 117
1, 25345, Note_on_c, 9, 38, 53
1, 25346, Note_on_c, 0, 66, 117
1, 25346, Note_on_c, 9, 35, 111
1, 25347, Note_on_c, 0, 62, 117
1, 25348, Note_on_c, 9, 35, 0
1, 25348, Note_on_c, 6, 57, 103
1, 25349, Note_on_c, 9, 38, 0
1, 25349, Note_on_c, 6, 54, 103
1, 25350, Note_on_c, 6, 62, 102
1, 25351, Note_on_c, 4, 50, 127
1, 25372, Note_on_c, 0, 57, 0
1, 25373, Note_on_c, 0, 62, 0
1, 25377, Note_on_c, 0, 66, 0
1, 25388, Note_on_c, 4, 50, 0
1, 25390, Note_on_c, 6, 57, 0
1, 25390, Note_on_c, 6, 62, 0
1, 25392, Note_on_c, 6, 54, 0
1, 25392, Note_on_c, 6, 54, 86
1, 25392, Note_on_c, 6, 57, 89
1, 25393, Note_on_c, 6, 62, 86
1, 25397, Note_on_c, 9, 38, 42
1, 25398, Note_on_c, 9, 38, 0
1, 25399, Note_on_c, 4, 47, 127
1, 25401, Note_on_c, 4, 62, 127
1, 25432, Note_on_c, 4, 47, 0
1, 25436, Note_on_c, 4, 62, 0
1, 25437, Note_on_c, 6, 62, 0
1, 25438, Note_on_c, 6, 54, 0
1, 25438, Note_on_c, 6, 62, 112
1, 25438, Note_on_c, 6, 54, 117
1, 25439, Note_on_c, 6, 59, 120
1, 25440, Note_on_c, 6, 57, 0
1, 25441, Note_on_c, 9, 40, 97
1, 25442, Note_on_c, 9, 40, 0
1, 25442, Note_on_c, 9, 28, 91
1, 25443, Note_on_c, 9, 28, 0
1, 25444, Note_on_c, 4, 47, 127
1, 25448, Note_on_c, 4, 54, 127
1, 25449, Note_on_c, 1, 38, 0
1, 25457, Note_on_c, 6, 54, 0
1, 25460, Note_on_c, 6, 59, 0
1, 25465, Note_on_c, 6, 62, 0
1, 25487, Note_on_c, 0, 66, 117
1, 25487, Note_on_c, 0, 57, 117
1, 25488, Note_on_c, 0, 62, 117
1, 25488, Note_on_c, 1, 38, 110
1, 25489, Note_on_c, 6, 57, 98
1, 25489, Note_on_c, 9, 35, 68
1, 25490, Note_on_c, 9, 35, 0
1, 25490, Note_on_c, 6, 62, 84
1, 25491, Note_on_c, 6, 54, 72
1, 25492, Note_on_c, 4, 47, 0
1, 25492, Note_on_c, 9, 38, 27
1, 25493, Note_on_c, 4, 54, 0
1, 25494, Note_on_c, 9, 38, 0
1, 25502, Note_on_c, 1, 38, 0
1, 25519, Note_on_c, 0, 57, 0
1, 25523, Note_on_c, 0, 62, 0
1, 25526, Note_on_c, 0, 66, 0
1, 25533, Note_on_c, 6, 57, 0
1, 25534, Note_on_c, 6, 62, 0
1, 25534, Note_on_c, 6, 57, 117
1, 25535, Note_on_c, 6, 62, 113
1, 25536, Note_on_c, 6, 54, 0
1, 25536, Note_on_c, 1, 33, 127
1, 25536, Note_on_c, 6, 54, 114
1, 25537, Note_on_c, 9, 38, 52
1, 25537, Note_on_c, 9, 35, 110
1, 25539, Note_on_c, 9, 35, 0
1, 25539, Note_on_c, 9, 38, 0
1, 25539, Note_on_c, 4, 45, 127
1, 25560, Note_on_c, 9, 38, 47
1, 25562, Note_on_c, 9, 38, 0
1, 25577, Note_on_c, 6, 62, 0
1, 25579, Note_on_c, 6, 54, 0
1, 25580, Note_on_c, 6, 57, 0
1, 25583, Note_on_c, 6, 57, 92
1, 25584, Note_on_c, 6, 54, 88
1, 25585, Note_on_c, 6, 62, 87
1, 25586, Note_on_c, 7, 62, 127
1, 25586, Note_on_c, 7, 66, 127
1, 25587, Note_on_c, 4, 45, 0
1, 25587, Note_on_c, 3, 69, 117
1, 25589, Note_on_c, 9, 38, 47
1, 25590, Note_on_c, 9, 38, 0
1, 25590, Note_on_c, 1, 33, 0
1, 25608, Note_on_c, 7, 66, 0
1, 25609, Note_on_c, 7, 62, 0
1, 25609, Note_on_c, 9, 38, 47
1, 25610, Note_on_c, 9, 38, 0
1, 25610, Note_on_c, 3, 69, 0
1, 25629, Note_on_c, 6, 57, 0
1, 25629, Note_on_c, 6, 62, 0
1, 25630, Note_on_c, 6, 54, 0
1, 25631, Note_on_c, 1, 38, 127
1, 25631, Note_on_c, 6, 62, 110
1, 25631, Note_on_c, 6, 54, 115
1, 25632, Note_on_c, 6, 59, 118
1, 25633, Note_on_c, 0, 66, 117
1, 25633, Note_on_c, 9, 40, 96
1, 25634, Note_on_c, 9, 40, 0
1, 25634, Note_on_c, 0, 57, 117
1, 25634, Note_on_c, 9, 28, 92
1, 25635, Note_on_c, 9, 28, 0
1, 25635, Note_on_c, 0, 62, 117
1, 25636, Note_on_c, 7, 62, 127
1, 25637, Note_on_c, 7, 66, 122
1, 25638, Note_on_c, 3, 69, 114
1, 25639, Note_on_c, 4, 47, 127
1, 25640, Note_on_c, 4, 54, 127
1, 25647, Note_on_c, 6, 54, 0
1, 25649, Note_on_c, 6, 59, 0
1, 25653, Note_on_c, 6, 62, 0
1, 25658, Note_on_c, 0, 57, 0
1, 25659, Note_on_c, 7, 62, 0
1, 25660, Note_on_c, 7, 66, 0
1, 25667, Note_on_c, 0, 62, 0
1, 25671, Note_on_c, 0, 66, 0
1, 25673, Note_on_c, 3, 69, 0
1, 25679, Note_on_c, 6, 57, 84
1, 25679, Note_on_c, 7, 62, 125
1, 25680, Note_on_c, 6, 62, 90
1, 25681, Note_on_c, 6, 54, 90
1, 25682, Note_on_c, 3, 69, 117
1, 25682, Note_on_c, 7, 66, 122
1, 25684, Note_on_c, 9, 38, 63
1, 25685, Note_on_c, 4, 47, 0
1, 25686, Note_on_c, 9, 38, 0
1, 25686, Note_on_c, 4, 54, 0
1, 25687, Note_on_c, 1, 38, 0
1, 25710, Note_on_c, 3, 69, 0
1, 25710, Note_on_c, 7, 66, 0
1, 25711, Pitch_bend_c, 7, 8160
1, 25712, Note_on_c, 7, 62, 0
1, 25713, Pitch_bend_c, 7, 7904
1, 25715, Pitch_bend_c, 7, 7520
1, 25718, Pitch_bend_c, 7, 6944
1, 25719, Pitch_bend_c, 7, 6368
1, 25722, Pitch_bend_c, 7, 5792
1, 25725, Note_on_c, 6, 54, 0
1, 25725, Note_on_c, 6, 62, 0
1, 25726, Pitch_bend_c, 7, 5376
1, 25727, Note_on_c, 6, 57, 0
1, 25727, Note_on_c, 7, 64, 127
1, 25728, Note_on_c, 1, 40, 126
1, 25728, Note_on_c, 6, 52, 90
1, 25729, Note_on_c, 6, 59, 98
1, 25729, Note_on_c, 9, 38, 43
1, 25730, Note_on_c, 7, 68, 127
1, 25730, Note_on_c, 9, 35, 111
1, 25731, Pitch_bend_c, 7, 5024
1, 25732, Note_on_c, 9, 35, 0
1, 25732, Note_on_c, 9, 38, 0
1, 25732, Pitch_bend_c, 3, 4228
1, 25733, Note_on_c, 3, 71, 126
1, 25734, Pitch_bend_c, 7, 4896
1, 25735, Note_on_c, 4, 52, 127
1, 25736, Pitch_bend_c, 7, 5024
1, 25737, Pitch_bend_c, 7, 5280
1, 25738, Pitch_bend_c, 7, 5600
1, 25743, Pitch_bend_c, 7, 6080
1, 25745, Pitch_bend_c, 7, 6592
1, 25747, Pitch_bend_c, 7, 7232
1, 25749, Pitch_bend_c, 7, 7712
1, 25751, Pitch_bend_c, 7, 8096
1, 25752, Pitch_bend_c, 3, 4288
1, 25754, Pitch_bend_c, 3, 5024
1, 25754, Pitch_bend_c, 7, 8192
1, 25758, Pitch_bend_c, 3, 5632
1, 25762, Pitch_bend_c, 3, 7200
1, 25766, Pitch_bend_c, 3, 8128
1, 25773, Note_on_c, 6, 59, 0
1, 25773, Note_on_c, 6, 52, 0
1, 25776, Note_on_c, 6, 59, 60
1, 25777, Note_on_c, 4, 52, 0
1, 25777, Note_on_c, 6, 52, 65
1, 25781, Note_on_c, 9, 38, 45
1, 25782, Note_on_c, 9, 38, 0
1, 25783, Pitch_bend_c, 3, 8192
1, 25792, Note_on_c, 7, 68, 0
1, 25793, Note_on_c, 7, 64, 0
1, 25801, Note_on_c, 3, 71, 0
1, 25822, Note_on_c, 6, 52, 0
1, 25822, Note_on_c, 6, 59, 0
1, 25822, Note_on_c, 6, 52, 127
1, 25822, Note_on_c, 6, 59, 127
1, 25823, Note_on_c, 6, 56, 127
1, 25824, Note_on_c, 9, 40, 98
1, 25826, Note_on_c, 9, 40, 0
1, 25826, Note_on_c, 0, 68, 117
1, 25826, Note_on_c, 9, 28, 94
1, 25827, Note_on_c, 9, 28, 0
1, 25827, Note_on_c, 0, 64, 117
1, 25828, Note_on_c, 0, 59, 117
1, 25829, Note_on_c, 1, 40, 0
1, 25829, Note_on_c, 7, 64, 127
1, 25830, Note_on_c, 7, 68, 127
1, 25831, Note_on_c, 4, 49, 127
1, 25832, Note_on_c, 3, 71, 117
1, 25833, Note_on_c, 6, 52, 0
1, 25834, Note_on_c, 6, 56, 0
1, 25834, Note_on_c, 6, 59, 0
1, 25835, Note_on_c, 4, 56, 127
1, 25848, Note_on_c, 0, 59, 0
1, 25848, Note_on_c, 7, 64, 0
1, 25849, Note_on_c, 7, 68, 0
1, 25850, Note_on_c, 3, 71, 0
1, 25858, Note_on_c, 0, 64, 0
1, 25863, Note_on_c, 0, 68, 0
1, 25869, Note_on_c, 3, 71, 127
1, 25872, Note_on_c, 6, 59, 73
1, 25873, Note_on_c, 6, 52, 65
1, 25873, Note_on_c, 7, 64, 127
1, 25874, Note_on_c, 7, 68, 127
1, 25877, Note_on_c, 4, 56, 0
1, 25877, Note_on_c, 9, 38, 25
1, 25878, Note_on_c, 9, 38, 0
1, 25878, Note_on_c, 4, 49, 0
1, 25917, Note_on_c, 6, 52, 0
1, 25917, Note_on_c, 6, 52, 103
1, 25918, Note_on_c, 6, 59, 0
1, 25918, Note_on_c, 6, 59, 98
1, 25920, Note_on_c, 1, 35, 127
1, 25921, Note_on_c, 9, 38, 54
1, 25922, Note_on_c, 9, 35, 110
1, 25923, Note_on_c, 9, 35, 0
1, 25923, Note_on_c, 9, 38, 0
1, 25924, Note_on_c, 4, 47, 127
1, 25947, Control_c, 3, 1, 2
1, 25950, Control_c, 3, 1, 10
1, 25953, Control_c, 3, 1, 49
1, 25960, Control_c, 3, 1, 63
1, 25961, Control_c, 3, 1, 99
1, 25962, Note_on_c, 6, 59, 0
1, 25963, Note_on_c, 6, 52, 0
1, 25965, Pitch_bend_c, 3, 8064
1, 25967, Note_on_c, 0, 59, 117
1, 25968, Note_on_c, 0, 68, 117
1, 25968, Note_on_c, 0, 64, 117
1, 25969, Note_on_c, 6, 59, 73
1, 25970, Control_c, 3, 1, 108
1, 25970, Note_on_c, 6, 52, 65
1, 25971, Pitch_bend_c, 3, 8000
1, 25972, Control_c, 3, 1, 122
1, 25973, Note_on_c, 9, 38, 45
1, 25974, Note_on_c, 9, 38, 0
1, 25975, Pitch_bend_c, 3, 7680
1, 25976, Control_c, 3, 1, 127
1, 25977, Pitch_bend_c, 3, 7424
1, 25979, Pitch_bend_c, 3, 7200
1, 25981, Note_on_c, 4, 47, 0
1, 25982, Pitch_bend_c, 3, 6720
1, 25986, Pitch_bend_c, 3, 6336
1, 25990, Pitch_bend_c, 3, 6144
1, 25994, Note_on_c, 0, 59, 0
1, 25994, Pitch_bend_c, 3, 5856
1, 25997, Note_on_c, 0, 64, 0
1, 25998, Pitch_bend_c, 3, 5664
1, 26001, Pitch_bend_c, 3, 5504
1, 26002, Pitch_bend_c, 3, 5120
1, 26003, Control_c, 3, 1, 114
1, 26004, Note_on_c, 0, 68, 0
1, 26006, Pitch_bend_c, 3, 4928
1, 26007, Control_c, 3, 1, 66
1, 26010, Pitch_bend_c, 3, 4768
1, 26013, Note_on_c, 6, 52, 0
1, 26013, Pitch_bend_c, 3, 4640
1, 26014, Note_on_c, 6, 52, 127
1, 26015, Note_on_c, 6, 59, 0
1, 26015, Note_on_c, 6, 59, 127
1, 26016, Note_on_c, 6, 56, 127
1, 26017, Control_c, 3, 1, 44
1, 26017, Note_on_c, 9, 40, 97
1, 26018, Note_on_c, 9, 40, 0
1, 26018, Pitch_bend_c, 3, 4896
1, 26018, Note_on_c, 9, 28, 90
1, 26019, Note_on_c, 9, 28, 0
1, 26019, Control_c, 3, 1, 9
1, 26020, Note_on_c, 4, 49, 127
1, 26021, Control_c, 3, 1, 0
1, 26022, Pitch_bend_c, 3, 5248
1, 26023, Note_on_c, 4, 56, 127
1, 26024, Note_on_c, 6, 52, 0
1, 26025, Note_on_c, 1, 35, 0
1, 26025, Note_on_c, 6, 56, 0
1, 26026, Note_on_c, 6, 59, 0
1, 26027, Pitch_bend_c, 3, 5760
1, 26028, Note_on_c, 3, 71, 0
1, 26028, Pitch_bend_c, 3, 7232
1, 26032, Pitch_bend_c, 3, 7776
1, 26033, Note_on_c, 7, 68, 0
1, 26034, Note_on_c, 7, 64, 0
1, 26034, Pitch_bend_c, 3, 8160
1, 26037, Pitch_bend_c, 3, 8192
1, 26054, Note_on_c, 4, 49, 0
1, 26056, Note_on_c, 4, 56, 0
1, 26064, Note_on_c, 6, 59, 73
1, 26064, Note_on_c, 6, 52, 65
1, 26068, Note_on_c, 9, 38, 25
1, 26070, Note_on_c, 9, 38, 0
1, 26073, Note_on_c, 4, 52, 127
1, 26075, Note_on_c, 4, 64, 127
1, 26109, Note_on_c, 4, 64, 0
1, 26109, Note_on_c, 6, 52, 0
1, 26110, Note_on_c, 6, 52, 90
1, 26111, Note_on_c, 6, 59, 0
1, 26111, Note_on_c, 6, 59, 98
1, 26112, Note_on_c, 4, 52, 0
1, 26112, Note_on_c, 1, 40, 127
1, 26113, Note_on_c, 0, 59, 117
1, 26113, Note_on_c, 9, 38, 53
1, 26114, Note_on_c, 0, 68, 117
1, 26114, Note_on_c, 9, 35, 111
1, 26115, Note_on_c, 0, 64, 117
1, 26116, Note_on_c, 9, 35, 0
1, 26116, Note_on_c, 9, 38, 0
1, 26116, Note_on_c, 4, 52, 127
1, 26137, Note_on_c, 0, 59, 0
1, 26141, Note_on_c, 0, 64, 0
1, 26146, Note_on_c, 0, 68, 0
1, 26153, Pitch_bend_c, 8, 0
1, 26154, Pitch_bend_c, 2, 0
1, 26155, Note_on_c, 6, 52, 0
1, 26157, Note_on_c, 6, 59, 0
1, 26158, Note_on_c, 4, 52, 0
1, 26160, Note_on_c, 6, 59, 60
1, 26161, Note_on_c, 6, 52, 65
1, 26161, Note_on_c, 8, 40, 127
1, 26162, Note_on_c, 2, 40, 127
1, 26165, Note_on_c, 9, 38, 42
1, 26166, Note_on_c, 9, 38, 0
1, 26166, Note_on_c, 4, 49, 127
1, 26169, Note_on_c, 4, 64, 127
1, 26200, Note_on_c, 4, 49, 0
1, 26204, Note_on_c, 4, 64, 0
1, 26207, Note_on_c, 6, 52, 0
1, 26207, Note_on_c, 6, 59, 0
1, 26207, Note_on_c, 6, 52, 127
1, 26207, Note_on_c, 6, 59, 127
1, 26208, Note_on_c, 6, 56, 127
1, 26209, Note_on_c, 9, 40, 97
1, 26210, Note_on_c, 9, 40, 0
1, 26210, Note_on_c, 9, 28, 91
1, 26211, Note_on_c, 9, 28, 0
1, 26212, Note_on_c, 4, 40, 127
1, 26214, Note_on_c, 6, 52, 0
1, 26215, Note_on_c, 6, 56, 0
1, 26216, Note_on_c, 6, 59, 0
1, 26217, Note_on_c, 1, 40, 0
1, 26222, Pitch_bend_c, 8, 224
1, 26223, Pitch_bend_c, 2, 224
1, 26224, Pitch_bend_c, 8, 1952
1, 26225, Pitch_bend_c, 2, 1952
1, 26227, Pitch_bend_c, 8, 4352
1, 26228, Pitch_bend_c, 2, 6336
1, 26229, Pitch_bend_c, 8, 6336
1, 26230, Pitch_bend_c, 8, 7808
1, 26232, Pitch_bend_c, 2, 7808
1, 26234, Pitch_bend_c, 8, 8320
1, 26235, Pitch_bend_c, 2, 8160
1, 26236, Pitch_bend_c, 8, 8160
1, 26240, Pitch_bend_c, 8, 8192
1, 26241, Pitch_bend_c, 2, 8192
1, 26255, Note_on_c, 0, 68, 117
1, 26255, Note_on_c, 0, 59, 117
1, 26256, Note_on_c, 0, 64, 117
1, 26256, Note_on_c, 1, 40, 127
1, 26256, Note_on_c, 6, 59, 73
1, 26257, Note_on_c, 6, 52, 65
1, 26257, Note_on_c, 9, 35, 68
1, 26258, Note_on_c, 9, 35, 0
1, 26258, Note_on_c, 4, 40, 0
1, 26261, Note_on_c, 9, 38, 27
1, 26262, Note_on_c, 9, 38, 0
1, 26274, Note_on_c, 1, 40, 0
1, 26279, Note_on_c, 8, 40, 0
1, 26280, Note_on_c, 2, 40, 0
1, 26284, Note_on_c, 0, 59, 0
1, 26286, Note_on_c, 0, 64, 0
1, 26295, Note_on_c, 0, 68, 0
1, 26301, Note_on_c, 6, 52, 0
1, 26301, Note_on_c, 6, 52, 103
1, 26302, Note_on_c, 6, 59, 0
1, 26302, Note_on_c, 6, 59, 98
1, 26303, Note_on_c, 1, 42, 121
1, 26304, Note_on_c, 8, 42, 127
1, 26305, Note_on_c, 9, 38, 52
1, 26305, Note_on_c, 9, 35, 110
1, 26306, Note_on_c, 2, 42, 127
1, 26307, Note_on_c, 9, 35, 0
1, 26307, Note_on_c, 9, 38, 0
1, 26307, Note_on_c, 4, 42, 127
1, 26338, Note_on_c, 8, 42, 0
1, 26339, Note_on_c, 2, 42, 0
1, 26346, Note_on_c, 6, 59, 0
1, 26347, Note_on_c, 6, 52, 0
1, 26351, Note_on_c, 6, 59, 73
1, 26352, Note_on_c, 6, 52, 65
1, 26353, Note_on_c, 4, 42, 0
1, 26357, Note_on_c, 9, 40, 67
1, 26358, Note_on_c, 9, 40, 0
1, 26367, Note_on_c, 1, 42, 0
1, 26397, Note_on_c, 6, 52, 0
1, 26398, Note_on_c, 6, 59, 0
1, 26398, Note_on_c, 6, 52, 127
1, 26398, Note_on_c, 6, 59, 127
1, 26399, Note_on_c, 1, 44, 127
1, 26399, Note_on_c, 6, 56, 127
1, 26401, Note_on_c, 0, 68, 117
1, 26401, Note_on_c, 9, 40, 96
1, 26401, Note_on_c, 9, 28, 92
1, 26402, Note_on_c, 9, 40, 0
1, 26402, Note_on_c, 0, 64, 117
1, 26403, Note_on_c, 9, 28, 0
1, 26403, Note_on_c, 0, 59, 117
1, 26404, Note_on_c, 8, 44, 127
1, 26405, Note_on_c, 2, 44, 127
1, 26406, Note_on_c, 4, 44, 127
1, 26407, Note_on_c, 6, 52, 0
1, 26408, Note_on_c, 6, 56, 0
1, 26409, Note_on_c, 6, 59, 0
1, 26439, Note_on_c, 0, 59, 0
1, 26445, Note_on_c, 0, 64, 0
1, 26447, Note_on_c, 6, 59, 73
1, 26448, Note_on_c, 6, 52, 65
1, 26451, Note_on_c, 0, 68, 0
1, 26453, Note_on_c, 4, 44, 0
1, 26453, Note_on_c, 8, 44, 0
1, 26453, Note_on_c, 9, 38, 43
1, 26454, Note_on_c, 9, 38, 0
1, 26454, Note_on_c, 2, 44, 0
1, 26457, Pitch_bend_c, 3, 8128
1, 26461, Pitch_bend_c, 3, 8000
1, 26463, Pitch_bend_c, 3, 7424
1, 26467, Pitch_bend_c, 3, 6976
1, 26469, Pitch_bend_c, 3, 6496
1, 26472, Pitch_bend_c, 7, 8160
1, 26473, Note_on_c, 1, 44, 0
1, 26473, Pitch_bend_c, 3, 5472
1, 26476, Pitch_bend_c, 7, 7904
1, 26477, Pitch_bend_c, 3, 4992
1, 26477, Pitch_bend_c, 7, 7456
1, 26479, Pitch_bend_c, 7, 6848
1, 26481, Pitch_bend_c, 7, 6080
1, 26482, Pitch_bend_c, 3, 4032
1, 26483, Pitch_bend_c, 7, 5280
1, 26484, Pitch_bend_c, 3, 3680
1, 26486, Pitch_bend_c, 3, 3360
1, 26486, Pitch_bend_c, 7, 4576
1, 26489, Pitch_bend_c, 7, 4000
1, 26490, Pitch_bend_c, 3, 3072
1, 26490, Pitch_bend_c, 7, 3584
1, 26493, Pitch_bend_c, 7, 3296
1, 26494, Note_on_c, 6, 59, 0
1, 26494, Note_on_c, 6, 52, 0
1, 26495, Pitch_bend_c, 3, 2880
1, 26496, Note_on_c, 1, 45, 123
1, 26496, Note_on_c, 6, 52, 90
1, 26496, Note_on_c, 6, 57, 98
1, 26497, Pitch_bend_c, 7, 3232
1, 26497, Note_on_c, 9, 38, 43
1, 26498, Note_on_c, 3, 76, 127
1, 26498, Note_on_c, 9, 35, 111
1, 26499, Note_on_c, 7, 73, 127
1, 26500, Note_on_c, 9, 35, 0
1, 26500, Note_on_c, 9, 38, 0
1, 26500, Note_on_c, 8, 45, 127
1, 26501, Note_on_c, 2, 45, 127
1, 26502, Pitch_bend_c, 7, 3296
1, 26503, Pitch_bend_c, 3, 2848
1, 26504, Note_on_c, 7, 69, 127
1, 26505, Note_on_c, 4, 45, 127
1, 26506, Pitch_bend_c, 7, 3584
1, 26507, Pitch_bend_c, 7, 4032
1, 26508, Pitch_bend_c, 3, 2976
1, 26509, Pitch_bend_c, 7, 4736
1, 26510, Pitch_bend_c, 7, 5696
1, 26511, Pitch_bend_c, 3, 3392
1, 26512, Pitch_bend_c, 7, 6720
1, 26513, Pitch_bend_c, 7, 7520
1, 26514, Pitch_bend_c, 3, 4288
1, 26515, Pitch_bend_c, 7, 8032
1, 26517, Pitch_bend_c, 7, 8192
1, 26519, Pitch_bend_c, 3, 5728
1, 26525, Pitch_bend_c, 3, 7328
1, 26527, Pitch_bend_c, 3, 8160
1, 26531, Pitch_bend_c, 3, 8192
1, 26541, Note_on_c, 6, 57, 0
1, 26542, Note_on_c, 6, 52, 0
1, 26544, Note_on_c, 6, 57, 60
1, 26545, Note_on_c, 6, 52, 65
1, 26546, Note_on_c, 4, 45, 0
1, 26549, Note_on_c, 9, 38, 45
1, 26550, Note_on_c, 9, 38, 0
1, 26590, Note_on_c, 6, 49, 127
1, 26591, Note_on_c, 6, 52, 0
1, 26591, Note_on_c, 6, 57, 0
1, 26591, Note_on_c, 6, 52, 115
1, 26591, Note_on_c, 6, 57, 127
1, 26592, Note_on_c, 9, 40, 98
1, 26594, Note_on_c, 9, 40, 0
1, 26594, Note_on_c, 0, 61, 117
1, 26594, Note_on_c, 9, 28, 94
1, 26595, Note_on_c, 9, 28, 0
1, 26595, Note_on_c, 0, 57, 117
1, 26596, Note_on_c, 0, 64, 117
1, 26597, Note_on_c, 4, 42, 127
1, 26600, Note_on_c, 8, 45, 0
1, 26600, Note_on_c, 4, 49, 127
1, 26601, Note_on_c, 6, 49, 0
1, 26602, Note_on_c, 2, 45, 0
1, 26603, Note_on_c, 6, 52, 0
1, 26603, Note_on_c, 1, 45, 0
1, 26605, Note_on_c, 6, 57, 0
1, 26627, Note_on_c, 0, 57, 0
1, 26627, Note_on_c, 7, 73, 0
1, 26628, Note_on_c, 0, 61, 0
1, 26631, Note_on_c, 0, 64, 0
1, 26640, Note_on_c, 6, 57, 73
1, 26640, Note_on_c, 6, 52, 65
1, 26642, Note_on_c, 7, 69, 0
1, 26645, Note_on_c, 4, 49, 0
1, 26645, Note_on_c, 9, 38, 25
1, 26646, Note_on_c, 9, 38, 0
1, 26646, Note_on_c, 4, 42, 0
1, 26649, Note_on_c, 3, 76, 0
1, 26685, Note_on_c, 6, 57, 0
1, 26685, Note_on_c, 6, 52, 0
1, 26685, Note_on_c, 6, 52, 103
1, 26686, Note_on_c, 6, 57, 98
1, 26688, Note_on_c, 1, 40, 127
1, 26688, Note_on_c, 3, 73, 127
1, 26689, Note_on_c, 7, 69, 127
1, 26689, Note_on_c, 9, 38, 54
1, 26690, Note_on_c, 9, 35, 110
1, 26691, Note_on_c, 9, 35, 0
1, 26691, Note_on_c, 4, 40, 127
1, 26692, Note_on_c, 9, 38, 0
1, 26692, Note_on_c, 7, 76, 127
1, 26732, Note_on_c, 6, 52, 0
1, 26732, Note_on_c, 6, 57, 0
1, 26736, Note_on_c, 0, 64, 117
1, 26736, Note_on_c, 0, 57, 117
1, 26736, Note_on_c, 0, 61, 117
1, 26736, Note_on_c, 6, 57, 73
1, 26737, Note_on_c, 6, 52, 65
1, 26740, Note_on_c, 9, 38, 45
1, 26743, Note_on_c, 9, 38, 0
1, 26749, Note_on_c, 4, 40, 0
1, 26759, Pitch_bend_c, 3, 8064
1, 26761, Note_on_c, 0, 57, 0
1, 26765, Pitch_bend_c, 3, 8000
1, 26766, Note_on_c, 0, 61, 0
1, 26767, Pitch_bend_c, 3, 7904
1, 26769, Pitch_bend_c, 3, 7680
1, 26771, Note_on_c, 0, 64, 0
1, 26774, Pitch_bend_c, 3, 7584
1, 26777, Pitch_bend_c, 3, 7392
1, 26780, Pitch_bend_c, 3, 7296
1, 26782, Note_on_c, 6, 49, 127
1, 26783, Note_on_c, 6, 57, 0
1, 26783, Note_on_c, 6, 52, 0
1, 26783, Note_on_c, 6, 52, 127
1, 26783, Note_on_c, 6, 57, 127
1, 26784, Note_on_c, 9, 40, 97
1, 26785, Pitch_bend_c, 3, 6976
1, 26787, Note_on_c, 9, 28, 90
1, 26788, Note_on_c, 9, 28, 0
1, 26788, Note_on_c, 9, 40, 0
1, 26788, Note_on_c, 4, 42, 127
1, 26789, Pitch_bend_c, 3, 6848
1, 26791, Note_on_c, 4, 49, 127
1, 26792, Note_on_c, 6, 52, 0
1, 26792, Note_on_c, 6, 49, 0
1, 26793, Note_on_c, 6, 57, 0
1, 26794, Note_on_c, 1, 40, 0
1, 26794, Pitch_bend_c, 3, 6592
1, 26796, Pitch_bend_c, 3, 6464
1, 26797, Pitch_bend_c, 3, 6144
1, 26801, Pitch_bend_c, 3, 6016
1, 26804, Pitch_bend_c, 3, 5760
1, 26808, Note_on_c, 7, 76, 0
1, 26810, Pitch_bend_c, 3, 5632
1, 26812, Pitch_bend_c, 3, 5408
1, 26816, Note_on_c, 7, 69, 0
1, 26817, Pitch_bend_c, 3, 5280
1, 26820, Pitch_bend_c, 3, 5248
1, 26822, Note_on_c, 4, 42, 0
1, 26822, Pitch_bend_c, 3, 5152
1, 26824, Note_on_c, 4, 49, 0
1, 26827, Pitch_bend_c, 3, 5120
1, 26829, Pitch_bend_c, 3, 5056
1, 26832, Note_on_c, 6, 57, 73
1, 26832, Note_on_c, 6, 52, 65
1, 26836, Pitch_bend_c, 3, 5248
1, 26836, Note_on_c, 9, 38, 25
1, 26838, Note_on_c, 9, 38, 0
1, 26841, Note_on_c, 4, 45, 127
1, 26842, Note_on_c, 3, 73, 0
1, 26842, Pitch_bend_c, 3, 5408
1, 26843, Pitch_bend_c, 3, 6208
1, 26843, Note_on_c, 4, 57, 127
1, 26847, Pitch_bend_c, 3, 6816
1, 26849, Pitch_bend_c, 3, 7424
1, 26850, Pitch_bend_c, 3, 8160
1, 26853, Pitch_bend_c, 3, 8192
1, 26864, Pitch_bend_c, 7, 8160
1, 26868, Pitch_bend_c, 7, 7904
1, 26869, Pitch_bend_c, 7, 7456
1, 26872, Pitch_bend_c, 7, 6848
1, 26874, Pitch_bend_c, 7, 6144
1, 26876, Pitch_bend_c, 7, 4736
1, 26877, Pitch_bend_c, 7, 5024
1, 26878, Pitch_bend_c, 7, 5472
1, 26879, Note_on_c, 4, 57, 0
1, 26880, Note_on_c, 6, 57, 0
1, 26880, Note_on_c, 6, 52, 0
1, 26880, Note_on_c, 1, 45, 124
1, 26880, Note_on_c, 6, 52, 90
1, 26880, Note_on_c, 6, 57, 98
1, 26881, Note_on_c, 7, 73, 127
1, 26881, Note_on_c, 9, 38, 53
1, 26882, Note_on_c, 9, 35, 111
1, 26883, Note_on_c, 4, 45, 0
1, 26884, Note_on_c, 9, 38, 0
1, 26884, Note_on_c, 9, 35, 0
1, 26884, Note_on_c, 0, 64, 117
1, 26885, Note_on_c, 0, 57, 117
1, 26886, Note_on_c, 0, 61, 117
1, 26887, Note_on_c, 3, 69, 127
1, 26889, Note_on_c, 7, 69, 127
1, 26890, Note_on_c, 4, 45, 127
1, 26891, Pitch_bend_c, 7, 4864
1, 26892, Pitch_bend_c, 7, 5248
1, 26893, Pitch_bend_c, 7, 5888
1, 26894, Pitch_bend_c, 7, 6752
1, 26895, Pitch_bend_c, 7, 7456
1, 26897, Pitch_bend_c, 7, 8000
1, 26900, Pitch_bend_c, 7, 8192
1, 26910, Note_on_c, 0, 57, 0
1, 26914, Note_on_c, 0, 61, 0
1, 26918, Note_on_c, 0, 64, 0
1, 26923, Note_on_c, 6, 57, 0
1, 26924, Note_on_c, 4, 45, 0
1, 26924, Note_on_c, 6, 52, 0
1, 26928, Note_on_c, 6, 57, 60
1, 26928, Note_on_c, 6, 52, 65
1, 26932, Note_on_c, 9, 38, 42
1, 26934, Note_on_c, 9, 38, 0
1, 26934, Note_on_c, 1, 45, 0
1, 26934, Note_on_c, 4, 42, 127
1, 26937, Note_on_c, 7, 69, 0
1, 26938, Note_on_c, 4, 57, 127
1, 26953, Note_on_c, 3, 69, 0
1, 26960, Note_on_c, 7, 73, 0
1, 26968, Note_on_c, 4, 42, 0
1, 26972, Note_on_c, 4, 57, 0
1, 26972, Note_on_c, 3, 69, 127
1, 26974, Note_on_c, 6, 49, 127
1, 26975, Note_on_c, 6, 57, 0
1, 26975, Note_on_c, 6, 52, 0
1, 26975, Note_on_c, 6, 52, 115
1, 26975, Note_on_c, 6, 57, 127
1, 26976, Note_on_c, 1, 33, 127
1, 26977, Note_on_c, 7, 69, 127
1, 26977, Note_on_c, 9, 40, 97
1, 26978, Note_on_c, 9, 40, 0
1, 26978, Note_on_c, 8, 45, 127
1, 26978, Note_on_c, 9, 28, 91
1, 26979, Note_on_c, 9, 28, 0
1, 26979, Note_on_c, 2, 45, 127
1, 26980, Note_on_c, 7, 73, 127
1, 26981, Note_on_c, 4, 42, 127
1, 26983, Note_on_c, 4, 49, 127
1, 26984, Note_on_c, 6, 49, 0
1, 26986, Note_on_c, 6, 52, 0
1, 26989, Note_on_c, 6, 57, 0
1, 27022, Note_on_c, 0, 64, 117
1, 27023, Note_on_c, 0, 57, 117
1, 27024, Note_on_c, 0, 61, 117
1, 27025, Note_on_c, 6, 57, 73
1, 27025, Note_on_c, 9, 35, 68
1, 27026, Note_on_c, 9, 35, 0
1, 27026, Note_on_c, 6, 52, 65
1, 27027, Note_on_c, 4, 42, 0
1, 27028, Note_on_c, 3, 69, 0
1, 27029, Note_on_c, 4, 49, 0
1, 27029, Note_on_c, 9, 38, 27
1, 27030, Note_on_c, 9, 38, 0
1, 27034, Control_c, 3, 1, 17
1, 27039, Control_c, 3, 1, 47
1, 27042, Note_on_c, 7, 73, 0
1, 27043, Note_on_c, 7, 69, 0
1, 27043, Control_c, 3, 1, 78
1, 27045, Note_on_c, 1, 33, 0
1, 27047, Control_c, 3, 1, 92
1, 27049, Note_on_c, 0, 57, 0
1, 27051, Control_c, 3, 1, 121
1, 27055, Note_on_c, 0, 61, 0
1, 27057, Control_c, 3, 1, 127
1, 27060, Note_on_c, 0, 64, 0
1, 27060, Note_on_c, 8, 45, 0
1, 27061, Note_on_c, 2, 45, 0
1, 27065, Control_c, 3, 1, 110
1, 27069, Note_on_c, 6, 57, 0
1, 27070, Note_on_c, 6, 52, 0
1, 27070, Note_on_c, 6, 52, 103
1, 27070, Note_on_c, 6, 57, 98
1, 27071, Note_on_c, 1, 35, 127
1, 27071, Control_c, 3, 1, 91
1, 27072, Note_on_c, 8, 47, 127
1, 27073, Note_on_c, 2, 47, 127
1, 27073, Note_on_c, 9, 38, 52
1, 27073, Note_on_c, 9, 35, 110
1, 27074, Control_c, 3, 1, 48
1, 27075, Note_on_c, 9, 35, 0
1, 27075, Note_on_c, 9, 38, 0
1, 27075, Note_on_c, 4, 43, 127
1, 27076, Control_c, 3, 1, 16
1, 27084, Control_c, 3, 1, 0
1, 27116, Note_on_c, 6, 52, 0
1, 27116, Note_on_c, 6, 57, 0
1, 27120, Note_on_c, 6, 57, 73
1, 27120, Note_on_c, 6, 52, 65
1, 27121, Note_on_c, 4, 43, 0
1, 27125, Note_on_c, 9, 38, 47
1, 27126, Note_on_c, 9, 38, 0
1, 27132, Note_on_c, 8, 47, 0
1, 27133, Note_on_c, 2, 47, 0
1, 27137, Note_on_c, 1, 35, 0
1, 27165, Note_on_c, 6, 49, 127
1, 27166, Note_on_c, 6, 52, 0
1, 27166, Note_on_c, 6, 52, 127
1, 27167, Note_on_c, 6, 57, 0
1, 27167, Note_on_c, 6, 57, 127
1, 27168, Note_on_c, 1, 37, 124
1, 27169, Note_on_c, 0, 64, 117
1, 27169, Note_on_c, 9, 40, 96
1, 27169, Note_on_c, 9, 28, 92
1, 27170, Note_on_c, 9, 40, 0
1, 27170, Note_on_c, 0, 57, 117
1, 27171, Note_on_c, 9, 28, 0
1, 27171, Note_on_c, 0, 61, 117
1, 27173, Note_on_c, 8, 49, 127
1, 27174, Note_on_c, 2, 49, 127
1, 27175, Note_on_c, 4, 42, 127
1, 27176, Note_on_c, 4, 49, 127
1, 27177, Note_on_c, 6, 49, 0
1, 27178, Note_on_c, 6, 52, 0
1, 27178, Note_on_c, 6, 57, 0
1, 27191, Note_on_c, 0, 57, 0
1, 27198, Note_on_c, 0, 61, 0
1, 27201, Note_on_c, 0, 64, 0
1, 27216, Note_on_c, 6, 57, 73
1, 27216, Note_on_c, 6, 52, 65
1, 27217, Note_on_c, 7, 69, 116
1, 27218, Note_on_c, 3, 69, 127
1, 27218, Note_on_c, 7, 73, 127
1, 27220, Note_on_c, 9, 38, 23
1, 27221, Note_on_c, 4, 42, 0
1, 27222, Note_on_c, 9, 38, 0
1, 27223, Note_on_c, 4, 49, 0
1, 27233, Note_on_c, 8, 49, 0
1, 27234, Note_on_c, 2, 49, 0
1, 27235, Note_on_c, 7, 69, 0
1, 27235, Note_on_c, 7, 73, 0
1, 27237, Pitch_bend_c, 7, 8128
1, 27240, Note_on_c, 1, 37, 0
1, 27241, Pitch_bend_c, 7, 8000
1, 27242, Note_on_c, 3, 69, 0
1, 27242, Pitch_bend_c, 7, 7808
1, 27244, Pitch_bend_c, 7, 7584
1, 27247, Pitch_bend_c, 7, 7296
1, 27249, Pitch_bend_c, 7, 6944
1, 27252, Pitch_bend_c, 7, 6656
1, 27254, Pitch_bend_c, 7, 6304
1, 27257, Pitch_bend_c, 3, 2304
1, 27257, Pitch_bend_c, 7, 6016
1, 27259, Pitch_bend_c, 7, 5792
1, 27261, Note_on_c, 7, 74, 127
1, 27262, Note_on_c, 6, 57, 0
1, 27262, Pitch_bend_c, 7, 5568
1, 27263, Note_on_c, 7, 66, 127
1, 27264, Note_on_c, 1, 38, 126
1, 27264, Pitch_bend_c, 3, 2048
1, 27265, Note_on_c, 6, 59, 120
1, 27265, Note_on_c, 9, 38, 43
1, 27266, Note_on_c, 6, 54, 117
1, 27266, Note_on_c, 9, 35, 111
1, 27267, Note_on_c, 6, 62, 112
1, 27268, Note_on_c, 9, 35, 0
1, 27268, Note_on_c, 9, 38, 0
1, 27268, Pitch_bend_c, 7, 5376
1, 27269, Note_on_c, 6, 52, 0
1, 27270, Note_on_c, 3, 69, 127
1, 27271, Note_on_c, 8, 50, 127
1, 27272, Note_on_c, 2, 50, 127
1, 27273, Pitch_bend_c, 7, 5184
1, 27274, Note_on_c, 4, 50, 127
1, 27275, Pitch_bend_c, 3, 2144
1, 27276, Pitch_bend_c, 7, 5088
1, 27277, Pitch_bend_c, 3, 2656
1, 27278, Pitch_bend_c, 7, 5024
1, 27279, Pitch_bend_c, 7, 4992
1, 27280, Pitch_bend_c, 3, 3232
1, 27281, Pitch_bend_c, 7, 5024
1, 27282, Pitch_bend_c, 7, 5152
1, 27283, Pitch_bend_c, 3, 4928
1, 27284, Pitch_bend_c, 7, 5376
1, 27285, Pitch_bend_c, 3, 7168
1, 27285, Pitch_bend_c, 7, 5600
1, 27286, Note_on_c, 6, 54, 0
1, 27287, Note_on_c, 6, 59, 0
1, 27287, Pitch_bend_c, 7, 5952
1, 27288, Pitch_bend_c, 3, 7904
1, 27289, Pitch_bend_c, 3, 8192
1, 27289, Pitch_bend_c, 7, 6368
1, 27290, Note_on_c, 6, 62, 0
1, 27290, Pitch_bend_c, 7, 6816
1, 27293, Pitch_bend_c, 7, 7328
1, 27294, Pitch_bend_c, 7, 7744
1, 27297, Pitch_bend_c, 7, 8096
1, 27299, Pitch_bend_c, 7, 8192
1, 27312, Note_on_c, 4, 50, 0
1, 27317, Note_on_c, 9, 38, 45
1, 27318, Note_on_c, 9, 38, 0
1, 27324, Note_on_c, 3, 69, 0
1, 27336, Note_on_c, 7, 74, 0
1, 27336, Note_on_c, 7, 66, 0
1, 27358, Note_on_c, 6, 62, 112
1, 27358, Note_on_c, 6, 54, 117
1, 27359, Note_on_c, 6, 59, 120
1, 27360, Note_on_c, 0, 66, 117
1, 27361, Note_on_c, 0, 57, 117
1, 27361, Note_on_c, 9, 40, 98
1, 27362, Note_on_c, 0, 62, 117
1, 27362, Note_on_c, 9, 28, 94
1, 27363, Note_on_c, 9, 28, 0
1, 27363, Note_on_c, 9, 40, 0
1, 27363, Note_on_c, 7, 74, 127
1, 27364, Note_on_c, 7, 66, 127
1, 27365, Note_on_c, 3, 69, 121
1, 27366, Note_on_c, 4, 47, 127
1, 27368, Note_on_c, 4, 54, 127
1, 27369, Note_on_c, 1, 38, 0
1, 27372, Note_on_c, 8, 50, 0
1, 27372, Note_on_c, 2, 50, 0
1, 27377, Note_on_c, 6, 54, 0
1, 27380, Note_on_c, 6, 59, 0
1, 27381, Note_on_c, 0, 57, 0
1, 27385, Note_on_c, 6, 62, 0
1, 27386, Note_on_c, 0, 62, 0
1, 27389, Note_on_c, 0, 66, 0
1, 27407, Note_on_c, 7, 74, 0
1, 27408, Note_on_c, 1, 38, 107
1, 27409, Note_on_c, 7, 66, 0
1, 27413, Note_on_c, 4, 54, 0
1, 27413, Note_on_c, 9, 38, 25
1, 27414, Note_on_c, 9, 38, 0
1, 27414, Note_on_c, 4, 47, 0
1, 27420, Note_on_c, 1, 38, 0
1, 27449, Note_on_c, 3, 69, 0
1, 27454, Note_on_c, 6, 57, 117
1, 27454, Note_on_c, 6, 62, 113
1, 27455, Note_on_c, 6, 54, 114
1, 27456, Note_on_c, 1, 33, 127
1, 27456, Note_on_c, 7, 74, 127
1, 27457, Note_on_c, 3, 69, 127
1, 27457, Note_on_c, 9, 38, 54
1, 27458, Note_on_c, 7, 66, 127
1, 27458, Note_on_c, 9, 35, 110
1, 27460, Note_on_c, 9, 35, 0
1, 27460, Note_on_c, 9, 38, 0
1, 27460, Note_on_c, 4, 45, 127
1, 27497, Note_on_c, 6, 62, 0
1, 27499, Note_on_c, 6, 54, 0
1, 27500, Note_on_c, 6, 57, 0
1, 27503, Note_on_c, 0, 66, 117
1, 27503, Note_on_c, 0, 57, 117
1, 27504, Note_on_c, 0, 62, 117
1, 27505, Note_on_c, 6, 57, 92
1, 27506, Note_on_c, 6, 54, 88
1, 27506, Note_on_c, 6, 62, 87
1, 27507, Note_on_c, 3, 69, 0
1, 27508, Note_on_c, 7, 66, 0
1, 27509, Note_on_c, 9, 38, 45
1, 27510, Note_on_c, 9, 38, 0
1, 27512, Note_on_c, 7, 74, 0
1, 27513, Note_on_c, 1, 33, 0
1, 27517, Note_on_c, 4, 45, 0
1, 27533, Note_on_c, 0, 57, 0
1, 27534, Note_on_c, 0, 62, 0
1, 27540, Note_on_c, 0, 66, 0
1, 27549, Note_on_c, 6, 57, 0
1, 27550, Note_on_c, 6, 62, 0
1, 27550, Note_on_c, 6, 54, 0
1, 27551, Note_on_c, 6, 62, 110
1, 27552, Note_on_c, 1, 35, 124
1, 27552, Note_on_c, 6, 54, 115
1, 27552, Note_on_c, 6, 57, 118
1, 27553, Note_on_c, 7, 69, 125
1, 27553, Note_on_c, 9, 40, 97
1, 27554, Note_on_c, 7, 66, 125
1, 27555, Note_on_c, 3, 69, 108
1, 27555, Note_on_c, 9, 28, 90
1, 27556, Note_on_c, 9, 28, 0
1, 27556, Note_on_c, 9, 40, 0
1, 27556, Note_on_c, 4, 47, 127
1, 27559, Note_on_c, 4, 54, 127
1, 27567, Note_on_c, 6, 54, 0
1, 27569, Note_on_c, 6, 57, 0
1, 27575, Note_on_c, 6, 62, 0
1, 27582, Note_on_c, 7, 69, 0
1, 27587, Note_on_c, 7, 66, 0
1, 27590, Note_on_c, 4, 47, 0
1, 27592, Note_on_c, 4, 54, 0
1, 27597, Note_on_c, 3, 69, 0
1, 27599, Note_on_c, 7, 74, 127
1, 27600, Note_on_c, 3, 62, 127
1, 27601, Note_on_c, 6, 57, 84
1, 27602, Note_on_c, 6, 62, 90
1, 27603, Note_on_c, 6, 54, 90
1, 27604, Note_on_c, 7, 66, 110
1, 27605, Note_on_c, 9, 38, 25
1, 27606, Note_on_c, 9, 38, 0
1, 27607, Note_on_c, 1, 35, 0
1, 27609, Note_on_c, 4, 50, 127
1, 27611, Note_on_c, 4, 62, 127
1, 27645, Note_on_c, 6, 54, 0
1, 27646, Note_on_c, 4, 62, 0
1, 27646, Note_on_c, 6, 62, 0
1, 27647, Note_on_c, 6, 57, 0
1, 27647, Note_on_c, 1, 38, 127
1, 27648, Note_on_c, 4, 50, 0
1, 27649, Note_on_c, 0, 57, 117
1, 27649, Note_on_c, 9, 38, 53
1, 27650, Note_on_c, 0, 66, 117
1, 27650, Note_on_c, 9, 35, 111
1, 27651, Note_on_c, 9, 35, 0
1, 27651, Note_on_c, 0, 62, 117
1, 27652, Note_on_c, 9, 38, 0
1, 27652, Note_on_c, 6, 57, 103
1, 27653, Note_on_c, 6, 54, 103
1, 27654, Note_on_c, 6, 62, 102
1, 27655, Note_on_c, 4, 50, 127
1, 27674, Note_on_c, 0, 57, 0
1, 27675, Note_on_c, 0, 62, 0
1, 27676, Note_on_c, 0, 66, 0
1, 27692, Note_on_c, 4, 50, 0
1, 27692, Control_c, 3, 1, 2
1, 27694, Note_on_c, 6, 57, 0
1, 27694, Note_on_c, 6, 62, 0
1, 27695, Control_c, 3, 1, 34
1, 27696, Note_on_c, 6, 54, 0
1, 27696, Note_on_c, 6, 54, 86
1, 27697, Note_on_c, 6, 57, 89
1, 27697, Note_on_c, 6, 62, 86
1, 27700, Note_on_c, 9, 38, 42
1, 27701, Note_on_c, 9, 38, 0
1, 27701, Control_c, 3, 1, 47
1, 27703, Note_on_c, 4, 47, 127
1, 27705, Control_c, 3, 1, 65
1, 27706, Note_on_c, 4, 62, 127
1, 27709, Control_c, 3, 1, 75
1, 27714, Control_c, 3, 1, 79
1, 27717, Control_c, 3, 1, 86
1, 27721, Note_on_c, 1, 38, 0
1, 27721, Control_c, 3, 1, 95
1, 27727, Control_c, 3, 1, 108
1, 27731, Control_c, 3, 1, 121
1, 27732, Pitch_bend_c, 3, 8032
1, 27735, Control_c, 3, 1, 127
1, 27736, Note_on_c, 4, 47, 0
1, 27737, Pitch_bend_c, 3, 7808
1, 27740, Note_on_c, 4, 62, 0
1, 27740, Pitch_bend_c, 3, 7232
1, 27741, Note_on_c, 6, 62, 0
1, 27741, Note_on_c, 6, 62, 112
1, 27742, Note_on_c, 6, 54, 0
1, 27742, Note_on_c, 6, 54, 117
1, 27743, Note_on_c, 1, 37, 119
1, 27743, Note_on_c, 6, 59, 120
1, 27744, Note_on_c, 6, 57, 0
1, 27745, Pitch_bend_c, 3, 6976
1, 27745, Note_on_c, 9, 40, 97
1, 27746, Note_on_c, 9, 40, 0
1, 27746, Pitch_bend_c, 3, 6688
1, 27746, Note_on_c, 9, 28, 91
1, 27747, Note_on_c, 9, 28, 0
1, 27747, Note_on_c, 4, 47, 127
1, 27749, Pitch_bend_c, 3, 6208
1, 27752, Note_on_c, 4, 54, 127
1, 27754, Pitch_bend_c, 3, 5728
1, 27758, Pitch_bend_c, 3, 5504
1, 27761, Note_on_c, 6, 54, 0
1, 27763, Pitch_bend_c, 3, 4672
1, 27764, Note_on_c, 6, 59, 0
1, 27765, Control_c, 3, 1, 121
1, 27767, Control_c, 3, 1, 103
1, 27767, Pitch_bend_c, 3, 4416
1, 27768, Note_on_c, 6, 62, 0
1, 27771, Pitch_bend_c, 3, 3936
1, 27772, Control_c, 3, 1, 80
1, 27776, Control_c, 3, 1, 57
1, 27776, Pitch_bend_c, 3, 3712
1, 27779, Pitch_bend_c, 3, 3552
1, 27780, Control_c, 3, 1, 45
1, 27781, Pitch_bend_c, 3, 3456
1, 27784, Control_c, 3, 1, 11
1, 27785, Pitch_bend_c, 3, 3488
1, 27787, Pitch_bend_c, 3, 4032
1, 27789, Control_c, 3, 1, 4
1, 27790, Note_on_c, 0, 57, 117
1, 27791, Note_on_c, 0, 66, 117
1, 27792, Note_on_c, 0, 62, 117
1, 27793, Note_on_c, 6, 57, 98
1, 27793, Note_on_c, 9, 35, 68
1, 27794, Note_on_c, 9, 35, 0
1, 27794, Note_on_c, 6, 62, 84
1, 27795, Note_on_c, 6, 54, 72
1, 27796, Note_on_c, 7, 74, 0
1, 27797, Pitch_bend_c, 3, 4512
1, 27797, Note_on_c, 9, 38, 27
1, 27798, Note_on_c, 9, 38, 0
1, 27798, Note_on_c, 4, 47, 0
1, 27799, Control_c, 3, 1, 0
1, 27800, Pitch_bend_c, 3, 6016
1, 27801, Note_on_c, 4, 54, 0
1, 27802, Note_on_c, 7, 66, 0
1, 27803, Note_on_c, 3, 62, 0
1, 27803, Pitch_bend_c, 3, 7584
1, 27804, Pitch_bend_c, 3, 8064
1, 27808, Pitch_bend_c, 3, 8192
1, 27813, Note_on_c, 1, 37, 0
1, 27820, Note_on_c, 0, 62, 0
1, 27825, Note_on_c, 0, 57, 0
1, 27828, Note_on_c, 0, 66, 0
1, 27837, Note_on_c, 6, 57, 0
1, 27838, Note_on_c, 6, 62, 0
1, 27839, Note_on_c, 6, 57, 117
1, 27840, Note_on_c, 6, 54, 0
1, 27840, Note_on_c, 1, 38, 121
1, 27840, Note_on_c, 6, 62, 113
1, 27840, Note_on_c, 6, 54, 114
1, 27841, Note_on_c, 9, 38, 52
1, 27841, Note_on_c, 9, 35, 110
1, 27843, Note_on_c, 9, 35, 0
1, 27843, Note_on_c, 9, 38, 0
1, 27844, Note_on_c, 4, 45, 127
1, 27881, Note_on_c, 6, 62, 0
1, 27882, Note_on_c, 6, 54, 0
1, 27884, Note_on_c, 6, 57, 0
1, 27886, Note_on_c, 0, 66, 117
1, 27887, Note_on_c, 0, 57, 117
1, 27888, Note_on_c, 0, 62, 117
1, 27889, Note_on_c, 6, 57, 92
1, 27890, Note_on_c, 6, 54, 88
1, 27890, Note_on_c, 6, 62, 87
1, 27891, Note_on_c, 4, 45, 0
1, 27893, Note_on_c, 9, 38, 47
1, 27894, Note_on_c, 9, 38, 0
1, 27918, Note_on_c, 1, 38, 0
1, 27922, Note_on_c, 0, 57, 0
1, 27925, Note_on_c, 0, 62, 0
1, 27932, Note_on_c, 0, 66, 0
1, 27933, Note_on_c, 6, 62, 0
1, 27933, Note_on_c, 6, 57, 0
1, 27934, Note_on_c, 6, 54, 0
1, 27935, Note_on_c, 6, 62, 110
1, 27935, Note_on_c, 6, 54, 115
1, 27936, Note_on_c, 1, 39, 125
1, 27936, Note_on_c, 6, 59, 118
1, 27937, Note_on_c, 9, 40, 96
1, 27938, Note_on_c, 9, 40, 0
1, 27938, Note_on_c, 9, 28, 92
1, 27939, Note_on_c, 9, 28, 0
1, 27940, Note_on_c, 4, 47, 127
1, 27943, Note_on_c, 4, 54, 127
1, 27951, Note_on_c, 6, 54, 0
1, 27952, Note_on_c, 6, 59, 0
1, 27959, Note_on_c, 6, 62, 0
1, 27975, Pitch_bend_c, 7, 8128
1, 27976, Pitch_bend_c, 3, 8160
1, 27977, Pitch_bend_c, 7, 8096
1, 27978, Pitch_bend_c, 3, 7808
1, 27979, Pitch_bend_c, 7, 7968
1, 27981, Pitch_bend_c, 7, 7872
1, 27984, Pitch_bend_c, 3, 7584
1, 27984, Note_on_c, 6, 57, 84
1, 27984, Note_on_c, 6, 62, 90
1, 27985, Note_on_c, 6, 54, 90
1, 27986, Pitch_bend_c, 7, 7584
1, 27987, Pitch_bend_c, 3, 6592
1, 27989, Note_on_c, 4, 47, 0
1, 27989, Pitch_bend_c, 7, 7392
1, 27989, Note_on_c, 9, 38, 23
1, 27990, Note_on_c, 9, 38, 0
1, 27990, Pitch_bend_c, 7, 7168
1, 27991, Note_on_c, 4, 54, 0
1, 27992, Pitch_bend_c, 3, 6208
1, 27993, Pitch_bend_c, 7, 6976
1, 27995, Pitch_bend_c, 3, 5504
1, 27996, Pitch_bend_c, 7, 6752
1, 27999, Pitch_bend_c, 3, 4832
1, 27999, Pitch_bend_c, 7, 6528
1, 28001, Pitch_bend_c, 7, 6304
1, 28004, Pitch_bend_c, 7, 6112
1, 28005, Pitch_bend_c, 3, 4512
1, 28005, Pitch_bend_c, 7, 5888
1, 28008, Pitch_bend_c, 7, 5696
1, 28009, Pitch_bend_c, 3, 4288
1, 28010, Pitch_bend_c, 7, 5536
1, 28013, Pitch_bend_c, 7, 5408
1, 28014, Pitch_bend_c, 7, 5280
1, 28015, Pitch_bend_c, 3, 4192
1, 28017, Pitch_bend_c, 3, 4160
1, 28018, Pitch_bend_c, 7, 5184
1, 28019, Pitch_bend_c, 3, 4064
1, 28020, Pitch_bend_c, 7, 5152
1, 28023, Pitch_bend_c, 7, 5120
1, 28025, Pitch_bend_c, 3, 4096
1, 28025, Pitch_bend_c, 7, 5088
1, 28026, Note_on_c, 1, 39, 0
1, 28027, Pitch_bend_c, 3, 4288
1, 28029, Note_on_c, 6, 62, 0
1, 28029, Note_on_c, 6, 54, 0
1, 28030, Note_on_c, 7, 76, 127
1, 28031, Note_on_c, 6, 57, 0
1, 28031, Note_on_c, 0, 68, 117
1, 28032, Note_on_c, 0, 64, 117
1, 28032, Note_on_c, 1, 40, 127
1, 28033, Note_on_c, 0, 59, 117
1, 28033, Note_on_c, 9, 38, 43
1, 28034, Note_on_c, 3, 71, 127
1, 28034, Note_on_c, 9, 35, 111
1, 28035, Note_on_c, 6, 52, 90
1, 28036, Note_on_c, 9, 35, 0
1, 28036, Note_on_c, 9, 38, 0
1, 28036, Note_on_c, 6, 59, 98
1, 28037, Note_on_c, 7, 68, 127
1, 28038, Pitch_bend_c, 3, 4448
1, 28039, Pitch_bend_c, 7, 5120
1, 28040, Note_on_c, 4, 52, 127
1, 28041, Pitch_bend_c, 7, 5152
1, 28042, Pitch_bend_c, 3, 6112
1, 28043, Pitch_bend_c, 7, 5248
1, 28044, Pitch_bend_c, 7, 5312
1, 28045, Pitch_bend_c, 3, 6944
1, 28046, Pitch_bend_c, 7, 5408
1, 28047, Pitch_bend_c, 3, 8064
1, 28048, Pitch_bend_c, 7, 5472
1, 28049, Pitch_bend_c, 7, 5600
1, 28050, Pitch_bend_c, 3, 8192
1, 28052, Pitch_bend_c, 7, 5696
1, 28053, Pitch_bend_c, 7, 5824
1, 28054, Pitch_bend_c, 7, 5952
1, 28055, Note_on_c, 0, 59, 0
1, 28058, Pitch_bend_c, 7, 6112
1, 28059, Note_on_c, 0, 64, 0
1, 28059, Pitch_bend_c, 7, 6368
1, 28063, Pitch_bend_c, 7, 6592
1, 28064, Note_on_c, 0, 68, 0
1, 28065, Pitch_bend_c, 7, 6976
1, 28068, Pitch_bend_c, 7, 7328
1, 28070, Pitch_bend_c, 7, 7712
1, 28073, Pitch_bend_c, 7, 8000
1, 28075, Pitch_bend_c, 7, 8160
1, 28077, Note_on_c, 6, 59, 0
1, 28077, Note_on_c, 6, 52, 0
1, 28078, Pitch_bend_c, 7, 8192
1, 28080, Note_on_c, 6, 59, 60
1, 28080, Note_on_c, 6, 52, 65
1, 28081, Note_on_c, 4, 52, 0
1, 28084, Note_on_c, 9, 38, 45
1, 28086, Note_on_c, 9, 38, 0
1, 28096, Note_on_c, 7, 68, 0
1, 28101, Note_on_c, 7, 76, 0
1, 28103, Note_on_c, 3, 71, 0
1, 28123, Note_on_c, 6, 59, 0
1, 28126, Note_on_c, 6, 52, 0
1, 28126, Note_on_c, 6, 52, 127
1, 28127, Note_on_c, 6, 59, 127
1, 28128, Note_on_c, 6, 56, 127
1, 28128, Note_on_c, 7, 76, 127
1, 28129, Note_on_c, 3, 71, 127
1, 28129, Note_on_c, 9, 40, 98
1, 28130, Note_on_c, 7, 68, 127
1, 28130, Note_on_c, 9, 28, 94
1, 28131, Note_on_c, 9, 40, 0
1, 28132, Note_on_c, 9, 28, 0
1, 28132, Note_on_c, 4, 49, 127
1, 28135, Note_on_c, 6, 52, 0
1, 28135, Note_on_c, 6, 56, 0
1, 28136, Note_on_c, 6, 59, 0
1, 28137, Note_on_c, 1, 40, 0
1, 28137, Note_on_c, 4, 56, 127
1, 28160, Note_on_c, 7, 76, 0
1, 28161, Note_on_c, 3, 71, 0
1, 28165, Note_on_c, 7, 68, 0
1, 28174, Note_on_c, 7, 68, 127
1, 28174, Note_on_c, 7, 76, 127
1, 28175, Note_on_c, 0, 68, 117
1, 28176, Note_on_c, 0, 59, 117
1, 28176, Note_on_c, 1, 40, 121
1, 28177, Note_on_c, 0, 64, 117
1, 28178, Note_on_c, 6, 59, 73
1, 28178, Note_on_c, 6, 52, 65
1, 28179, Note_on_c, 3, 71, 127
1, 28181, Note_on_c, 4, 56, 0
1, 28181, Note_on_c, 9, 38, 25
1, 28182, Note_on_c, 9, 38, 0
1, 28182, Note_on_c, 4, 49, 0
1, 28194, Note_on_c, 1, 40, 0
1, 28200, Note_on_c, 0, 59, 0
1, 28204, Note_on_c, 0, 64, 0
1, 28206, Note_on_c, 0, 68, 0
1, 28221, Note_on_c, 6, 52, 0
1, 28222, Note_on_c, 6, 59, 0
1, 28223, Note_on_c, 6, 52, 90
1, 28224, Note_on_c, 1, 35, 127
1, 28224, Note_on_c, 6, 59, 98
1, 28224, Note_on_c, 9, 38, 54
1, 28225, Note_on_c, 9, 35, 110
1, 28227, Note_on_c, 9, 35, 0
1, 28227, Note_on_c, 9, 38, 0
1, 28228, Note_on_c, 4, 47, 127
1, 28229, Note_on_c, 3, 71, 0
1, 28241, Note_on_c, 7, 68, 0
1, 28244, Note_on_c, 7, 76, 0
1, 28268, Note_on_c, 6, 52, 0
1, 28268, Note_on_c, 6, 59, 0
1, 28272, Note_on_c, 6, 59, 73
1, 28272, Note_on_c, 6, 52, 65
1, 28272, Note_on_c, 7, 68, 127
1, 28273, Note_on_c, 7, 76, 127
1, 28274, Note_on_c, 3, 71, 127
1, 28277, Note_on_c, 9, 38, 45
1, 28278, Note_on_c, 9, 38, 0
1, 28285, Note_on_c, 4, 47, 0
1, 28313, Pitch_bend_c, 3, 8317
1, 28315, Pitch_bend_c, 3, 8192
1, 28317, Note_on_c, 6, 52, 0
1, 28318, Note_on_c, 6, 59, 0
1, 28319, Note_on_c, 6, 52, 127
1, 28320, Note_on_c, 0, 68, 117
1, 28320, Note_on_c, 6, 59, 127
1, 28320, Note_on_c, 6, 56, 127
1, 28321, Note_on_c, 0, 64, 117
1, 28321, Note_on_c, 9, 40, 97
1, 28322, Note_on_c, 9, 40, 0
1, 28322, Note_on_c, 0, 59, 117
1, 28322, Note_on_c, 9, 28, 90
1, 28323, Note_on_c, 9, 28, 0
1, 28323, Note_on_c, 4, 49, 127
1, 28326, Note_on_c, 4, 56, 127
1, 28327, Note_on_c, 6, 52, 0
1, 28328, Note_on_c, 6, 56, 0
1, 28329, Note_on_c, 6, 59, 0
1, 28330, Note_on_c, 1, 35, 0
1, 28351, Note_on_c, 0, 59, 0
1, 28352, Note_on_c, 7, 76, 0
1, 28353, Note_on_c, 7, 68, 0
1, 28356, Note_on_c, 0, 64, 0
1, 28358, Note_on_c, 4, 49, 0
1, 28359, Note_on_c, 0, 68, 0
1, 28360, Note_on_c, 4, 56, 0
1, 28368, Note_on_c, 6, 59, 73
1, 28368, Note_on_c, 6, 52, 65
1, 28372, Note_on_c, 9, 38, 25
1, 28374, Note_on_c, 9, 38, 0
1, 28374, Note_on_c, 3, 71, 0
1, 28377, Note_on_c, 4, 52, 127
1, 28378, Note_on_c, 4, 64, 127
1, 28396, Pitch_bend_c, 7, 8160
1, 28399, Pitch_bend_c, 7, 8000
1, 28401, Pitch_bend_c, 7, 7680
1, 28403, Pitch_bend_c, 7, 7232
1, 28407, Pitch_bend_c, 7, 6816
1, 28408, Pitch_bend_c, 3, 2976
1, 28408, Pitch_bend_c, 7, 6368
1, 28409, Pitch_bend_c, 3, 2720
1, 28410, Pitch_bend_c, 7, 5984
1, 28412, Pitch_bend_c, 7, 5696
1, 28413, Note_on_c, 6, 52, 0
1, 28413, Note_on_c, 6, 59, 0
1, 28414, Note_on_c, 4, 64, 0
1, 28415, Note_on_c, 1, 40, 127
1, 28415, Pitch_bend_c, 3, 2656
1, 28416, Note_on_c, 4, 52, 0
1, 28417, Note_on_c, 7, 68, 127
1, 28417, Note_on_c, 9, 38, 53
1, 28418, Pitch_bend_c, 7, 5440
1, 28418, Note_on_c, 9, 35, 111
1, 28419, Pitch_bend_c, 3, 2720
1, 28420, Note_on_c, 9, 35, 0
1, 28420, Note_on_c, 9, 38, 0
1, 28420, Note_on_c, 6, 52, 90
1, 28421, Note_on_c, 6, 59, 98
1, 28422, Note_on_c, 7, 76, 127
1, 28423, Pitch_bend_c, 7, 5280
1, 28424, Note_on_c, 3, 73, 124
1, 28425, Pitch_bend_c, 7, 5120
1, 28426, Pitch_bend_c, 3, 3008
1, 28427, Note_on_c, 4, 52, 127
1, 28428, Pitch_bend_c, 7, 5024
1, 28429, Pitch_bend_c, 3, 3360
1, 28430, Pitch_bend_c, 7, 4992
1, 28431, Pitch_bend_c, 3, 4416
1, 28432, Pitch_bend_c, 7, 5088
1, 28433, Pitch_bend_c, 3, 5120
1, 28434, Pitch_bend_c, 3, 5856
1, 28434, Pitch_bend_c, 7, 5184
1, 28435, Pitch_bend_c, 7, 5408
1, 28436, Pitch_bend_c, 7, 5664
1, 28437, Pitch_bend_c, 3, 7392
1, 28439, Pitch_bend_c, 3, 8160
1, 28439, Pitch_bend_c, 7, 5984
1, 28441, Pitch_bend_c, 7, 6400
1, 28443, Pitch_bend_c, 3, 8192
1, 28443, Pitch_bend_c, 7, 6880
1, 28445, Pitch_bend_c, 7, 7424
1, 28448, Pitch_bend_c, 7, 7840
1, 28452, Pitch_bend_c, 7, 8128
1, 28453, Pitch_bend_c, 7, 8192
1, 28459, Note_on_c, 4, 52, 0
1, 28461, Note_on_c, 6, 59, 0
1, 28462, Note_on_c, 7, 76, 0
1, 28462, Note_on_c, 6, 52, 0
1, 28463, Note_on_c, 6, 59, 60
1, 28464, Note_on_c, 6, 52, 65
1, 28465, Note_on_c, 7, 68, 0
1, 28468, Note_on_c, 9, 38, 42
1, 28469, Note_on_c, 9, 38, 0
1, 28470, Note_on_c, 4, 49, 127
1, 28474, Note_on_c, 4, 64, 127
1, 28492, Note_on_c, 3, 73, 0
1, 28503, Note_on_c, 4, 49, 0
1, 28507, Note_on_c, 6, 59, 0
1, 28507, Note_on_c, 4, 64, 0
1, 28510, Note_on_c, 6, 52, 0
1, 28510, Note_on_c, 6, 52, 127
1, 28511, Note_on_c, 6, 59, 127
1, 28512, Note_on_c, 6, 56, 127
1, 28512, Note_on_c, 7, 68, 114
1, 28513, Note_on_c, 9, 40, 97
1, 28514, Note_on_c, 9, 40, 0
1, 28514, Note_on_c, 0, 68, 117
1, 28514, Note_on_c, 9, 28, 91
1, 28515, Note_on_c, 9, 28, 0
1, 28515, Note_on_c, 0, 59, 117
1, 28516, Note_on_c, 0, 64, 117
1, 28517, Note_on_c, 1, 40, 0
1, 28517, Note_on_c, 7, 76, 127
1, 28518, Note_on_c, 4, 40, 127
1, 28519, Note_on_c, 6, 52, 0
1, 28520, Note_on_c, 6, 56, 0
1, 28521, Note_on_c, 6, 59, 0
1, 28522, Note_on_c, 3, 73, 122
1, 28534, Note_on_c, 0, 64, 0
1, 28535, Note_on_c, 0, 59, 0
1, 28537, Note_on_c, 7, 76, 0
1, 28537, Note_on_c, 7, 68, 0
1, 28540, Note_on_c, 3, 73, 0
1, 28541, Note_on_c, 0, 68, 0
1, 28560, Note_on_c, 1, 40, 117
1, 28560, Note_on_c, 6, 59, 73
1, 28560, Note_on_c, 6, 52, 65
1, 28561, Note_on_c, 7, 68, 127
1, 28561, Note_on_c, 9, 35, 68
1, 28562, Note_on_c, 9, 35, 0
1, 28562, Note_on_c, 7, 76, 127
1, 28563, Note_on_c, 4, 40, 0
1, 28564, Note_on_c, 3, 73, 124
1, 28564, Note_on_c, 9, 38, 27
1, 28565, Note_on_c, 9, 38, 0
1, 28584, Note_on_c, 1, 40, 0
1, 28605, Note_on_c, 6, 52, 0
1, 28605, Note_on_c, 6, 59, 0
1, 28606, Note_on_c, 6, 52, 90
1, 28607, Note_on_c, 6, 59, 98
1, 28608, Note_on_c, 1, 42, 119
1, 28609, Note_on_c, 9, 38, 52
1, 28610, Note_on_c, 9, 35, 110
1, 28611, Note_on_c, 9, 35, 0
1, 28612, Note_on_c, 9, 38, 0
1, 28612, Note_on_c, 4, 42, 127
1, 28623, Note_on_c, 7, 76, 0
1, 28630, Note_on_c, 7, 68, 0
1, 28633, Note_on_c, 3, 73, 0
1, 28651, Note_on_c, 6, 52, 0
1, 28652, Note_on_c, 6, 59, 0
1, 28654, Note_on_c, 0, 68, 117
1, 28655, Note_on_c, 0, 64, 117
1, 28656, Note_on_c, 0, 59, 117
1, 28657, Note_on_c, 6, 59, 73
1, 28658, Note_on_c, 6, 52, 65
1, 28658, Note_on_c, 7, 68, 120
1, 28659, Note_on_c, 4, 42, 0
1, 28659, Note_on_c, 7, 73, 127
1, 28660, Note_on_c, 3, 69, 127
1, 28660, Note_on_c, 9, 38, 47
1, 28662, Note_on_c, 9, 38, 0
1, 28673, Note_on_c, 1, 42, 0
1, 28681, Note_on_c, 0, 59, 0
1, 28687, Note_on_c, 0, 64, 0
1, 28694, Note_on_c, 0, 68, 0
1, 28701, Note_on_c, 6, 59, 0
1, 28701, Note_on_c, 6, 52, 0
1, 28702, Note_on_c, 6, 52, 127
1, 28703, Note_on_c, 6, 59, 127
1, 28703, Note_on_c, 6, 56, 127
1, 28704, Note_on_c, 1, 44, 116
1, 28705, Note_on_c, 9, 40, 96
1, 28706, Note_on_c, 9, 40, 0
1, 28706, Note_on_c, 3, 69, 0
1, 28706, Note_on_c, 9, 28, 92
1, 28707, Note_on_c, 9, 28, 0
1, 28708, Note_on_c, 4, 44, 127
1, 28712, Note_on_c, 6, 56, 0
1, 28712, Note_on_c, 6, 52, 0
1, 28712, Note_on_c, 6, 59, 0
1, 28714, Note_on_c, 7, 73, 0
1, 28714, Note_on_c, 7, 68, 0
1, 28734, Pitch_bend_c, 7, 8128
1, 28735, Pitch_bend_c, 7, 8000
1, 28737, Pitch_bend_c, 7, 5461
1, 28745, Pitch_bend_c, 7, 5041
1, 28749, Note_on_c, 7, 64, 122
1, 28749, Note_on_c, 7, 69, 127
1, 28752, Note_on_c, 6, 59, 73
1, 28752, Note_on_c, 6, 52, 65
1, 28755, Note_on_c, 3, 69, 127
1, 28757, Note_on_c, 4, 44, 0
1, 28757, Note_on_c, 9, 38, 23
1, 28758, Note_on_c, 9, 38, 0
1, 28761, Note_on_c, 1, 44, 0
1, 28769, Pitch_bend_c, 7, 4960
1, 28773, Pitch_bend_c, 7, 5088
1, 28775, Pitch_bend_c, 7, 5248
1, 28779, Pitch_bend_c, 7, 5536
1, 28782, Pitch_bend_c, 7, 5984
1, 28784, Pitch_bend_c, 7, 6528
1, 28786, Pitch_bend_c, 7, 7136
1, 28789, Pitch_bend_c, 7, 7680
1, 28790, Pitch_bend_c, 7, 8032
1, 28793, Pitch_bend_c, 7, 8192
1, 28797, Note_on_c, 6, 52, 0
1, 28798, Note_on_c, 6, 59, 0
1, 28800, Note_on_c, 1, 45, 124
1, 28800, Note_on_c, 6, 45, 127
1, 28801, Note_on_c, 9, 38, 43
1, 28802, Note_on_c, 9, 35, 111
1, 28803, Note_on_c, 4, 45, 127
1, 28804, Note_on_c, 9, 35, 0
1, 28804, Note_on_c, 9, 38, 0
1, 28841, Note_on_c, 7, 69, 0
1, 28841, Note_on_c, 7, 64, 0
1, 28848, Note_on_c, 4, 45, 0
1, 28853, Note_on_c, 9, 38, 45
1, 28854, Note_on_c, 9, 38, 0
1, 28866, Note_on_c, 3, 69, 0
1, 28880, Note_on_c, 6, 45, 0
1, 28893, Note_on_c, 6, 52, 104
1, 28894, Note_on_c, 6, 57, 123
1, 28894, Note_on_c, 7, 64, 122
1, 28895, Note_on_c, 0, 57, 117
1, 28896, Note_on_c, 0, 61, 117
1, 28897, Note_on_c, 0, 64, 117
1, 28897, Note_on_c, 9, 40, 98
1, 28898, Note_on_c, 9, 40, 0
1, 28898, Note_on_c, 2, 57, 109
1, 28898, Note_on_c, 9, 28, 94
1, 28899, Note_on_c, 9, 28, 0
1, 28899, Note_on_c, 7, 69, 127
1, 28900, Note_on_c, 3, 69, 115
1, 28901, Note_on_c, 4, 42, 127
1, 28903, Note_on_c, 1, 45, 0
1, 28904, Note_on_c, 4, 49, 127
1, 28913, Note_on_c, 2, 57, 0
1, 28928, Note_on_c, 0, 57, 0
1, 28934, Note_on_c, 0, 61, 0
1, 28939, Note_on_c, 0, 64, 0
1, 28949, Note_on_c, 7, 64, 0
1, 28949, Note_on_c, 9, 38, 25
1, 28950, Note_on_c, 9, 38, 0
1, 28950, Note_on_c, 4, 49, 0
1, 28951, Note_on_c, 3, 69, 0
1, 28952, Note_on_c, 7, 69, 0
1, 28952, Note_on_c, 4, 42, 0
1, 28992, Note_on_c, 1, 40, 127
1, 28993, Note_on_c, 9, 38, 54
1, 28994, Note_on_c, 9, 35, 110
1, 28995, Note_on_c, 9, 35, 0
1, 28995, Note_on_c, 9, 38, 0
1, 28996, Note_on_c, 6, 52, 0
1, 28996, Note_on_c, 4, 40, 127
1, 29002, Note_on_c, 6, 57, 0
1, 29003, Control_c, 3, 1, 6
1, 29004, Control_c, 3, 1, 23
1, 29011, Control_c, 3, 1, 44
1, 29014, Control_c, 3, 1, 66
1, 29021, Control_c, 3, 1, 76
1, 29023, Control_c, 3, 1, 94
1, 29026, Control_c, 3, 1, 110
1, 29033, Control_c, 3, 1, 120
1, 29036, Control_c, 3, 1, 123
1, 29039, Note_on_c, 0, 66, 117
1, 29039, Note_on_c, 0, 62, 117
1, 29040, Note_on_c, 0, 57, 117
1, 29041, Note_on_c, 2, 55, 115
1, 29042, Note_on_c, 6, 52, 127
1, 29042, Note_on_c, 6, 55, 127
1, 29043, Control_c, 3, 1, 127
1, 29045, Note_on_c, 9, 38, 45
1, 29046, Note_on_c, 9, 38, 0
1, 29053, Note_on_c, 4, 40, 0
1, 29054, Control_c, 3, 1, 124
1, 29057, Note_on_c, 2, 55, 0
1, 29058, Note_on_c, 6, 55, 0
1, 29059, Control_c, 3, 1, 119
1, 29060, Note_on_c, 6, 52, 0
1, 29064, Control_c, 3, 1, 110
1, 29068, Note_on_c, 0, 57, 0
1, 29068, Control_c, 3, 1, 77
1, 29072, Note_on_c, 0, 62, 0
1, 29074, Note_on_c, 0, 66, 0
1, 29075, Control_c, 3, 1, 24
1, 29078, Control_c, 3, 1, 0
1, 29089, Note_on_c, 9, 40, 97
1, 29089, Note_on_c, 9, 28, 90
1, 29090, Note_on_c, 9, 40, 0
1, 29091, Note_on_c, 9, 28, 0
1, 29091, Note_on_c, 4, 42, 127
1, 29093, Note_on_c, 1, 40, 0
1, 29094, Note_on_c, 4, 49, 127
1, 29127, Note_on_c, 4, 42, 0
1, 29128, Note_on_c, 4, 49, 0
1, 29134, Note_on_c, 2, 57, 115
1, 29135, Note_on_c, 6, 52, 127
1, 29136, Note_on_c, 6, 57, 127
1, 29141, Note_on_c, 9, 38, 25
1, 29142, Note_on_c, 9, 38, 0
1, 29145, Note_on_c, 4, 45, 127
1, 29146, Note_on_c, 4, 57, 127
1, 29148, Note_on_c, 2, 57, 0
1, 29149, Note_on_c, 6, 57, 0
1, 29150, Note_on_c, 6, 52, 0
1, 29181, Note_on_c, 4, 57, 0
1, 29181, Note_on_c, 4, 45, 0
1, 29182, Note_on_c, 0, 61, 117
1, 29183, Note_on_c, 0, 57, 117
1, 29183, Note_on_c, 1, 33, 127
1, 29184, Note_on_c, 0, 64, 117
1, 29185, Note_on_c, 9, 38, 53
1, 29186, Note_on_c, 9, 35, 111
1, 29188, Note_on_c, 9, 35, 0
1, 29188, Note_on_c, 9, 38, 0
1, 29189, Note_on_c, 4, 45, 127
1, 29212, Note_on_c, 0, 57, 0
1, 29220, Note_on_c, 0, 64, 0
1, 29221, Note_on_c, 0, 61, 0
1, 29227, Note_on_c, 4, 45, 0
1, 29232, Note_on_c, 6, 55, 98
1, 29237, Note_on_c, 9, 38, 42
1, 29238, Note_on_c, 9, 38, 0
1, 29238, Note_on_c, 4, 42, 127
1, 29242, Note_on_c, 4, 57, 127
1, 29271, Note_on_c, 4, 42, 0
1, 29275, Note_on_c, 4, 57, 0
1, 29279, Note_on_c, 6, 55, 0
1, 29279, Note_on_c, 6, 55, 85
1, 29280, Note_on_c, 9, 40, 97
1, 29282, Note_on_c, 9, 40, 0
1, 29282, Note_on_c, 9, 28, 91
1, 29283, Note_on_c, 9, 28, 0
1, 29284, Note_on_c, 4, 42, 127
1, 29288, Note_on_c, 4, 49, 127
1, 29289, Note_on_c, 1, 33, 0
1, 29323, Note_on_c, 6, 55, 0
1, 29327, Note_on_c, 0, 66, 117
1, 29327, Note_on_c, 0, 62, 117
1, 29328, Note_on_c, 0, 57, 117
1, 29328, Note_on_c, 1, 33, 91
1, 29329, Note_on_c, 6, 55, 123
1, 29329, Note_on_c, 9, 35, 68
1, 29330, Note_on_c, 9, 35, 0
1, 29330, Note_on_c, 4, 42, 0
1, 29332, Note_on_c, 4, 49, 0
1, 29332, Note_on_c, 9, 38, 27
1, 29333, Note_on_c, 9, 38, 0
1, 29343, Note_on_c, 1, 33, 0
1, 29355, Note_on_c, 0, 57, 0
1, 29365, Note_on_c, 0, 62, 0
1, 29366, Note_on_c, 0, 66, 0
1, 29374, Note_on_c, 6, 55, 0
1, 29374, Note_on_c, 6, 54, 98
1, 29376, Note_on_c, 1, 40, 126
1, 29377, Note_on_c, 9, 38, 52
1, 29377, Note_on_c, 9, 35, 110
1, 29379, Note_on_c, 9, 35, 0
1, 29379, Note_on_c, 9, 38, 0
1, 29380, Note_on_c, 4, 43, 127
1, 29420, Note_on_c, 6, 54, 0
1, 29424, Note_on_c, 0, 64, 117
1, 29424, Note_on_c, 0, 61, 117
1, 29424, Note_on_c, 0, 57, 117
1, 29424, Note_on_c, 6, 55, 127
1, 29425, Note_on_c, 4, 43, 0
1, 29429, Note_on_c, 9, 40, 67
1, 29430, Note_on_c, 9, 40, 0
1, 29465, Note_on_c, 0, 57, 0
1, 29470, Note_on_c, 6, 55, 0
1, 29470, Note_on_c, 6, 54, 127
1, 29471, Note_on_c, 0, 64, 0
1, 29473, Note_on_c, 9, 40, 96
1, 29474, Note_on_c, 9, 40, 0
1, 29474, Note_on_c, 9, 28, 92
1, 29475, Note_on_c, 9, 28, 0
1, 29476, Note_on_c, 4, 42, 127
1, 29478, Note_on_c, 0, 61, 0
1, 29478, Note_on_c, 4, 49, 127
1, 29479, Note_on_c, 1, 40, 0
1, 29516, Note_on_c, 6, 54, 0
1, 29520, Note_on_c, 6, 55, 127
1, 29525, Note_on_c, 4, 42, 0
1, 29525, Pitch_bend_c, 7, 8160
1, 29525, Note_on_c, 9, 38, 23
1, 29526, Note_on_c, 9, 38, 0
1, 29526, Pitch_bend_c, 7, 8128
1, 29527, Note_on_c, 4, 49, 0
1, 29529, Pitch_bend_c, 7, 8032
1, 29532, Pitch_bend_c, 7, 8000
1, 29534, Pitch_bend_c, 3, 8064
1, 29534, Pitch_bend_c, 7, 7872
1, 29535, Pitch_bend_c, 3, 7520
1, 29537, Pitch_bend_c, 7, 7808
1, 29538, Pitch_bend_c, 7, 7680
1, 29539, Pitch_bend_c, 3, 7104
1, 29542, Pitch_bend_c, 7, 7520
1, 29543, Pitch_bend_c, 3, 6688
1, 29543, Pitch_bend_c, 7, 7296
1, 29545, Pitch_bend_c, 3, 5792
1, 29545, Pitch_bend_c, 7, 7040
1, 29548, Pitch_bend_c, 7, 6816
1, 29549, Pitch_bend_c, 3, 5312
1, 29551, Pitch_bend_c, 7, 6560
1, 29553, Pitch_bend_c, 7, 6368
1, 29556, Pitch_bend_c, 3, 4352
1, 29556, Pitch_bend_c, 7, 6144
1, 29558, Pitch_bend_c, 3, 3936
1, 29558, Pitch_bend_c, 7, 5984
1, 29559, Pitch_bend_c, 3, 3584
1, 29561, Pitch_bend_c, 7, 5792
1, 29564, Pitch_bend_c, 7, 5600
1, 29565, Pitch_bend_c, 3, 2848
1, 29566, Pitch_bend_c, 7, 5440
1, 29567, Pitch_bend_c, 3, 2304
1, 29567, Note_on_c, 7, 69, 127
1, 29568, Note_on_c, 1, 33, 121
1, 29568, Note_on_c, 7, 73, 127
1, 29569, Pitch_bend_c, 7, 5312
1, 29569, Note_on_c, 9, 38, 43
1, 29570, Note_on_c, 6, 52, 90
1, 29570, Note_on_c, 9, 35, 111
1, 29571, Note_on_c, 6, 57, 98
1, 29572, Note_on_c, 9, 35, 0
1, 29572, Note_on_c, 6, 55, 0
1, 29572, Note_on_c, 9, 38, 0
1, 29573, Note_on_c, 3, 76, 127
1, 29574, Pitch_bend_c, 7, 5248
1, 29575, Pitch_bend_c, 3, 2848
1, 29576, Note_on_c, 4, 45, 127
1, 29577, Pitch_bend_c, 7, 5184
1, 29578, Pitch_bend_c, 3, 2880
1, 29579, Pitch_bend_c, 3, 2976
1, 29581, Pitch_bend_c, 7, 5248
1, 29582, Pitch_bend_c, 3, 3392
1, 29583, Pitch_bend_c, 7, 5280
1, 29586, Pitch_bend_c, 3, 3808
1, 29587, Pitch_bend_c, 3, 4928
1, 29587, Pitch_bend_c, 7, 5312
1, 29590, Pitch_bend_c, 7, 5408
1, 29592, Pitch_bend_c, 3, 5728
1, 29594, Pitch_bend_c, 7, 5440
1, 29597, Pitch_bend_c, 7, 5536
1, 29598, Pitch_bend_c, 3, 7904
1, 29598, Pitch_bend_c, 7, 5664
1, 29601, Pitch_bend_c, 7, 5792
1, 29602, Pitch_bend_c, 3, 8160
1, 29603, Pitch_bend_c, 7, 6016
1, 29604, Pitch_bend_c, 3, 8192
1, 29605, Pitch_bend_c, 7, 6304
1, 29608, Pitch_bend_c, 7, 6688
1, 29609, Pitch_bend_c, 7, 7104
1, 29613, Pitch_bend_c, 7, 7552
1, 29614, Note_on_c, 6, 57, 0
1, 29615, Note_on_c, 6, 52, 0
1, 29616, Note_on_c, 6, 57, 60
1, 29616, Note_on_c, 6, 52, 65
1, 29616, Pitch_bend_c, 7, 7904
1, 29617, Note_on_c, 4, 45, 0
1, 29618, Pitch_bend_c, 7, 8128
1, 29619, Pitch_bend_c, 7, 8192
1, 29621, Note_on_c, 9, 38, 45
1, 29623, Note_on_c, 9, 38, 0
1, 29662, Note_on_c, 6, 52, 0
1, 29662, Note_on_c, 6, 49, 127
1, 29662, Note_on_c, 6, 52, 115
1, 29663, Note_on_c, 6, 57, 0
1, 29663, Note_on_c, 6, 57, 127
1, 29665, Note_on_c, 0, 64, 117
1, 29665, Note_on_c, 9, 40, 98
1, 29666, Note_on_c, 9, 40, 0
1, 29666, Note_on_c, 0, 61, 117
1, 29666, Note_on_c, 9, 28, 94
1, 29667, Note_on_c, 9, 28, 0
1, 29667, Note_on_c, 0, 57, 117
1, 29668, Note_on_c, 4, 42, 127
1, 29671, Note_on_c, 1, 33, 0
1, 29672, Note_on_c, 6, 49, 0
1, 29672, Note_on_c, 4, 49, 127
1, 29673, Note_on_c, 6, 52, 0
1, 29677, Note_on_c, 6, 57, 0
1, 29688, Note_on_c, 0, 57, 0
1, 29696, Note_on_c, 0, 61, 0
1, 29697, Note_on_c, 0, 64, 0
1, 29711, Note_on_c, 1, 33, 91
1, 29712, Note_on_c, 6, 57, 73
1, 29713, Note_on_c, 6, 52, 65
1, 29714, Note_on_c, 7, 73, 0
1, 29716, Note_on_c, 7, 69, 0
1, 29717, Note_on_c, 4, 49, 0
1, 29717, Note_on_c, 9, 38, 25
1, 29718, Note_on_c, 9, 38, 0
1, 29718, Note_on_c, 4, 42, 0
1, 29721, Note_on_c, 3, 76, 0
1, 29726, Note_on_c, 1, 33, 0
1, 29757, Note_on_c, 6, 57, 0
1, 29758, Note_on_c, 6, 52, 0
1, 29758, Note_on_c, 6, 52, 103
1, 29758, Note_on_c, 6, 57, 98
1, 29760, Note_on_c, 1, 40, 127
1, 29760, Note_on_c, 7, 73, 127
1, 29761, Note_on_c, 3, 73, 127
1, 29761, Note_on_c, 9, 38, 54
1, 29762, Note_on_c, 7, 69, 127
1, 29762, Note_on_c, 9, 35, 110
1, 29763, Note_on_c, 9, 35, 0
1, 29763, Note_on_c, 9, 38, 0
1, 29763, Note_on_c, 4, 40, 127
1, 29804, Note_on_c, 6, 52, 0
1, 29804, Note_on_c, 6, 57, 0
1, 29808, Note_on_c, 0, 64, 117
1, 29808, Note_on_c, 0, 61, 117
1, 29808, Note_on_c, 0, 57, 117
1, 29808, Note_on_c, 6, 57, 73
1, 29809, Note_on_c, 6, 52, 65
1, 29812, Note_on_c, 9, 38, 45
1, 29813, Note_on_c, 9, 38, 0
1, 29821, Note_on_c, 4, 40, 0
1, 29831, Note_on_c, 0, 57, 0
1, 29832, Pitch_bend_c, 3, 8160
1, 29834, Pitch_bend_c, 3, 8064
1, 29836, Note_on_c, 0, 61, 0
1, 29837, Pitch_bend_c, 3, 8000
1, 29840, Note_on_c, 0, 64, 0
1, 29840, Pitch_bend_c, 3, 7808
1, 29844, Pitch_bend_c, 3, 7680
1, 29846, Pitch_bend_c, 3, 7520
1, 29851, Pitch_bend_c, 3, 7392
1, 29853, Pitch_bend_c, 3, 7168
1, 29853, Note_on_c, 6, 49, 127
1, 29854, Note_on_c, 6, 52, 0
1, 29854, Note_on_c, 6, 52, 127
1, 29855, Note_on_c, 6, 57, 0
1, 29855, Note_on_c, 6, 57, 127
1, 29856, Note_on_c, 9, 40, 97
1, 29857, Pitch_bend_c, 3, 6976
1, 29857, Note_on_c, 9, 28, 90
1, 29858, Note_on_c, 9, 40, 0
1, 29859, Note_on_c, 9, 28, 0
1, 29860, Note_on_c, 4, 42, 127
1, 29861, Pitch_bend_c, 3, 6720
1, 29862, Note_on_c, 4, 49, 127
1, 29863, Note_on_c, 6, 49, 0
1, 29864, Note_on_c, 6, 52, 0
1, 29865, Note_on_c, 6, 57, 0
1, 29866, Note_on_c, 1, 40, 0
1, 29866, Pitch_bend_c, 3, 6592
1, 29868, Pitch_bend_c, 3, 6464
1, 29869, Pitch_bend_c, 3, 6144
1, 29874, Pitch_bend_c, 3, 5888
1, 29879, Pitch_bend_c, 3, 5760
1, 29881, Pitch_bend_c, 3, 5504
1, 29887, Pitch_bend_c, 3, 5408
1, 29888, Pitch_bend_c, 3, 5280
1, 29892, Pitch_bend_c, 3, 5184
1, 29894, Note_on_c, 4, 42, 0
1, 29896, Note_on_c, 4, 49, 0
1, 29896, Pitch_bend_c, 3, 5152
1, 29899, Pitch_bend_c, 3, 5056
1, 29903, Note_on_c, 1, 40, 91
1, 29903, Note_on_c, 6, 57, 73
1, 29904, Note_on_c, 6, 52, 65
1, 29906, Note_on_c, 7, 73, 0
1, 29908, Note_on_c, 7, 69, 0
1, 29908, Pitch_bend_c, 3, 5120
1, 29909, Note_on_c, 9, 38, 25
1, 29910, Note_on_c, 9, 38, 0
1, 29911, Pitch_bend_c, 3, 5248
1, 29913, Note_on_c, 4, 45, 127
1, 29914, Note_on_c, 3, 73, 0
1, 29914, Pitch_bend_c, 3, 5760
1, 29915, Note_on_c, 4, 57, 127
1, 29917, Pitch_bend_c, 3, 6208
1, 29919, Note_on_c, 1, 40, 0
1, 29920, Pitch_bend_c, 3, 6816
1, 29923, Pitch_bend_c, 3, 7904
1, 29928, Pitch_bend_c, 3, 8160
1, 29929, Pitch_bend_c, 3, 8192
1, 29949, Note_on_c, 4, 57, 0
1, 29950, Note_on_c, 6, 52, 0
1, 29950, Note_on_c, 6, 57, 0
1, 29950, Note_on_c, 6, 52, 90
1, 29950, Note_on_c, 6, 57, 98
1, 29951, Note_on_c, 7, 69, 127
1, 29952, Note_on_c, 1, 45, 123
1, 29953, Note_on_c, 4, 45, 0
1, 29953, Note_on_c, 9, 38, 53
1, 29954, Note_on_c, 0, 64, 117
1, 29954, Note_on_c, 9, 35, 111
1, 29955, Note_on_c, 0, 57, 117
1, 29956, Note_on_c, 9, 35, 0
1, 29956, Note_on_c, 9, 38, 0
1, 29956, Note_on_c, 0, 61, 117
1, 29957, Note_on_c, 3, 69, 127
1, 29958, Note_on_c, 7, 73, 127
1, 29960, Note_on_c, 4, 45, 127
1, 29979, Note_on_c, 0, 57, 0
1, 29982, Note_on_c, 0, 61, 0
1, 29986, Note_on_c, 0, 64, 0
1, 29994, Note_on_c, 6, 57, 0
1, 29996, Note_on_c, 4, 45, 0
1, 29996, Note_on_c, 6, 52, 0
1, 30000, Note_on_c, 6, 57, 60
1, 30000, Note_on_c, 6, 52, 65
1, 30004, Note_on_c, 9, 38, 42
1, 30005, Note_on_c, 9, 38, 0
1, 30006, Note_on_c, 4, 42, 127
1, 30008, Note_on_c, 1, 45, 0
1, 30009, Note_on_c, 4, 57, 127
1, 30017, Note_on_c, 7, 69, 0
1, 30019, Note_on_c, 7, 73, 0
1, 30025, Note_on_c, 3, 69, 0
1, 30040, Note_on_c, 4, 42, 0
1, 30042, Note_on_c, 3, 69, 127
1, 30044, Note_on_c, 4, 57, 0
1, 30046, Note_on_c, 6, 49, 127
1, 30047, Note_on_c, 6, 57, 0
1, 30047, Note_on_c, 6, 52, 0
1, 30047, Note_on_c, 6, 52, 115
1, 30047, Note_on_c, 6, 57, 127
1, 30048, Note_on_c, 1, 33, 127
1, 30049, Note_on_c, 7, 69, 127
1, 30049, Note_on_c, 9, 40, 97
1, 30049, Note_on_c, 9, 28, 91
1, 30050, Note_on_c, 9, 40, 0
1, 30050, Note_on_c, 7, 73, 127
1, 30051, Note_on_c, 9, 28, 0
1, 30051, Note_on_c, 8, 45, 127
1, 30052, Note_on_c, 2, 45, 127
1, 30053, Note_on_c, 4, 42, 127
1, 30056, Note_on_c, 6, 49, 0
1, 30056, Note_on_c, 4, 49, 127
1, 30058, Note_on_c, 6, 52, 0
1, 30061, Note_on_c, 6, 57, 0
1, 30092, Note_on_c, 7, 73, 0
1, 30093, Note_on_c, 7, 69, 0
1, 30094, Note_on_c, 0, 64, 117
1, 30095, Note_on_c, 0, 57, 117
1, 30096, Note_on_c, 0, 61, 117
1, 30097, Note_on_c, 6, 57, 73
1, 30097, Note_on_c, 6, 52, 65
1, 30097, Note_on_c, 9, 35, 68
1, 30098, Note_on_c, 9, 35, 0
1, 30098, Note_on_c, 4, 42, 0
1, 30099, Note_on_c, 3, 69, 0
1, 30100, Note_on_c, 4, 49, 0
1, 30101, Note_on_c, 9, 38, 27
1, 30102, Note_on_c, 9, 38, 0
1, 30106, Control_c, 3, 1, 7
1, 30107, Control_c, 3, 1, 17
1, 30111, Control_c, 3, 1, 63
1, 30116, Note_on_c, 1, 33, 0
1, 30117, Control_c, 3, 1, 92
1, 30122, Control_c, 3, 1, 103
1, 30123, Note_on_c, 0, 57, 0
1, 30125, Control_c, 3, 1, 127
1, 30126, Note_on_c, 0, 61, 0
1, 30132, Note_on_c, 8, 45, 0
1, 30133, Note_on_c, 2, 45, 0
1, 30134, Note_on_c, 0, 64, 0
1, 30137, Control_c, 3, 1, 110
1, 30141, Note_on_c, 6, 57, 0
1, 30142, Note_on_c, 6, 52, 0
1, 30142, Note_on_c, 6, 52, 103
1, 30142, Note_on_c, 6, 57, 98
1, 30143, Note_on_c, 1, 35, 127
1, 30144, Control_c, 3, 1, 69
1, 30145, Note_on_c, 8, 47, 127
1, 30145, Note_on_c, 9, 38, 52
1, 30146, Note_on_c, 2, 47, 127
1, 30146, Note_on_c, 9, 35, 110
1, 30148, Note_on_c, 9, 35, 0
1, 30148, Note_on_c, 9, 38, 0
1, 30148, Note_on_c, 4, 43, 127
1, 30149, Control_c, 3, 1, 30
1, 30151, Control_c, 3, 1, 16
1, 30156, Control_c, 3, 1, 0
1, 30188, Note_on_c, 6, 57, 0
1, 30188, Note_on_c, 6, 52, 0
1, 30192, Note_on_c, 6, 57, 73
1, 30192, Note_on_c, 6, 52, 65
1, 30193, Note_on_c, 4, 43, 0
1, 30197, Note_on_c, 9, 38, 47
1, 30198, Note_on_c, 9, 38, 0
1, 30204, Note_on_c, 8, 47, 0
1, 30205, Note_on_c, 2, 47, 0
1, 30209, Note_on_c, 1, 35, 0
1, 30238, Note_on_c, 6, 49, 127
1, 30239, Note_on_c, 6, 52, 0
1, 30239, Note_on_c, 6, 57, 0
1, 30239, Note_on_c, 6, 52, 127
1, 30239, Note_on_c, 6, 57, 127
1, 30240, Note_on_c, 1, 37, 124
1, 30241, Note_on_c, 0, 64, 117
1, 30241, Note_on_c, 9, 40, 96
1, 30242, Note_on_c, 9, 40, 0
1, 30242, Note_on_c, 0, 57, 117
1, 30242, Note_on_c, 9, 28, 92
1, 30243, Note_on_c, 9, 28, 0
1, 30243, Note_on_c, 0, 61, 117
1, 30245, Note_on_c, 8, 49, 127
1, 30246, Note_on_c, 2, 49, 127
1, 30247, Note_on_c, 4, 42, 127
1, 30248, Note_on_c, 4, 49, 127
1, 30249, Note_on_c, 6, 49, 0
1, 30250, Note_on_c, 6, 52, 0
1, 30250, Note_on_c, 6, 57, 0
1, 30265, Note_on_c, 0, 57, 0
1, 30276, Note_on_c, 0, 61, 0
1, 30277, Note_on_c, 0, 64, 0
1, 30288, Note_on_c, 6, 57, 73
1, 30288, Note_on_c, 6, 52, 65
1, 30289, Note_on_c, 3, 69, 127
1, 30293, Note_on_c, 4, 42, 0
1, 30293, Note_on_c, 9, 38, 23
1, 30295, Note_on_c, 9, 38, 0
1, 30296, Note_on_c, 4, 49, 0
1, 30302, Pitch_bend_c, 7, 8160
1, 30305, Note_on_c, 8, 49, 0
1, 30305, Pitch_bend_c, 7, 8000
1, 30306, Note_on_c, 2, 49, 0
1, 30307, Pitch_bend_c, 7, 7680
1, 30309, Pitch_bend_c, 7, 7168
1, 30311, Note_on_c, 1, 37, 0
1, 30312, Pitch_bend_c, 7, 6688
1, 30313, Pitch_bend_c, 7, 6112
1, 30314, Note_on_c, 3, 69, 0
1, 30316, Pitch_bend_c, 7, 5664
1, 30318, Pitch_bend_c, 7, 5184
1, 30321, Pitch_bend_c, 7, 4832
1, 30322, Pitch_bend_c, 7, 4512
1, 30325, Pitch_bend_c, 7, 4224
1, 30328, Pitch_bend_c, 7, 4032
1, 30329, Pitch_bend_c, 3, 1680
1, 30331, Pitch_bend_c, 7, 3936
1, 30333, Pitch_bend_c, 7, 3872
1, 30334, Note_on_c, 6, 57, 0
1, 30335, Note_on_c, 7, 74, 127
1, 30336, Note_on_c, 1, 38, 127
1, 30336, Pitch_bend_c, 3, 2112
1, 30336, Note_on_c, 6, 59, 120
1, 30337, Note_on_c, 6, 54, 117
1, 30337, Note_on_c, 9, 38, 43
1, 30338, Note_on_c, 6, 62, 112
1, 30338, Note_on_c, 9, 35, 111
1, 30339, Note_on_c, 7, 66, 127
1, 30340, Note_on_c, 9, 35, 0
1, 30340, Note_on_c, 9, 38, 0
1, 30340, Note_on_c, 6, 52, 0
1, 30341, Note_on_c, 3, 69, 127
1, 30342, Note_on_c, 8, 50, 127
1, 30343, Note_on_c, 2, 50, 127
1, 30344, Pitch_bend_c, 7, 3968
1, 30345, Pitch_bend_c, 3, 2048
1, 30346, Note_on_c, 4, 50, 127
1, 30347, Pitch_bend_c, 7, 4128
1, 30348, Pitch_bend_c, 3, 2304
1, 30349, Pitch_bend_c, 7, 4384
1, 30350, Pitch_bend_c, 3, 3232
1, 30351, Pitch_bend_c, 7, 4672
1, 30352, Pitch_bend_c, 7, 5024
1, 30353, Pitch_bend_c, 7, 5440
1, 30354, Pitch_bend_c, 3, 4928
1, 30355, Pitch_bend_c, 7, 5888
1, 30356, Pitch_bend_c, 3, 7168
1, 30356, Pitch_bend_c, 7, 6368
1, 30357, Note_on_c, 6, 54, 0
1, 30358, Note_on_c, 6, 59, 0
1, 30358, Pitch_bend_c, 7, 6816
1, 30359, Pitch_bend_c, 7, 7264
1, 30360, Pitch_bend_c, 3, 7904
1, 30361, Pitch_bend_c, 3, 8192
1, 30362, Pitch_bend_c, 7, 7712
1, 30364, Note_on_c, 6, 62, 0
1, 30364, Pitch_bend_c, 7, 8000
1, 30367, Pitch_bend_c, 7, 8160
1, 30369, Pitch_bend_c, 7, 8192
1, 30384, Note_on_c, 4, 50, 0
1, 30389, Note_on_c, 9, 38, 45
1, 30390, Note_on_c, 9, 38, 0
1, 30395, Note_on_c, 3, 69, 0
1, 30401, Note_on_c, 7, 66, 0
1, 30409, Note_on_c, 8, 50, 0
1, 30410, Note_on_c, 7, 74, 0
1, 30410, Note_on_c, 2, 50, 0
1, 30430, Note_on_c, 6, 62, 112
1, 30430, Note_on_c, 6, 54, 117
1, 30431, Note_on_c, 6, 59, 120
1, 30432, Note_on_c, 0, 66, 117
1, 30433, Note_on_c, 0, 62, 117
1, 30433, Note_on_c, 0, 57, 117
1, 30433, Note_on_c, 9, 40, 98
1, 30434, Note_on_c, 9, 40, 0
1, 30434, Note_on_c, 7, 74, 127
1, 30434, Note_on_c, 9, 28, 94
1, 30435, Note_on_c, 9, 28, 0
1, 30435, Note_on_c, 7, 66, 127
1, 30436, Note_on_c, 3, 69, 121
1, 30437, Note_on_c, 4, 47, 127
1, 30438, Note_on_c, 1, 38, 0
1, 30439, Note_on_c, 4, 54, 127
1, 30449, Note_on_c, 6, 54, 0
1, 30451, Note_on_c, 6, 59, 0
1, 30455, Note_on_c, 0, 57, 0
1, 30457, Note_on_c, 6, 62, 0
1, 30459, Note_on_c, 0, 62, 0
1, 30464, Note_on_c, 0, 66, 0
1, 30477, Note_on_c, 7, 74, 0
1, 30480, Note_on_c, 1, 38, 120
1, 30485, Note_on_c, 7, 66, 0
1, 30485, Note_on_c, 4, 54, 0
1, 30485, Note_on_c, 9, 38, 25
1, 30486, Note_on_c, 9, 38, 0
1, 30486, Note_on_c, 4, 47, 0
1, 30497, Note_on_c, 3, 69, 0
1, 30500, Note_on_c, 1, 38, 0
1, 30525, Note_on_c, 6, 57, 117
1, 30526, Note_on_c, 6, 62, 113
1, 30527, Note_on_c, 1, 33, 127
1, 30527, Note_on_c, 6, 54, 114
1, 30527, Note_on_c, 7, 66, 127
1, 30528, Note_on_c, 3, 69, 127
1, 30529, Note_on_c, 7, 74, 127
1, 30529, Note_on_c, 9, 38, 54
1, 30530, Note_on_c, 9, 35, 110
1, 30531, Note_on_c, 9, 35, 0
1, 30531, Note_on_c, 9, 38, 0
1, 30531, Note_on_c, 4, 45, 127
1, 30569, Note_on_c, 6, 62, 0
1, 30572, Note_on_c, 6, 57, 0
1, 30572, Note_on_c, 7, 66, 0
1, 30572, Note_on_c, 6, 54, 0
1, 30574, Note_on_c, 3, 69, 0
1, 30574, Note_on_c, 0, 57, 117
1, 30575, Note_on_c, 0, 66, 117
1, 30576, Note_on_c, 0, 62, 117
1, 30577, Note_on_c, 6, 57, 92
1, 30577, Note_on_c, 6, 54, 88
1, 30578, Note_on_c, 6, 62, 87
1, 30581, Note_on_c, 7, 74, 0
1, 30581, Note_on_c, 9, 38, 45
1, 30582, Note_on_c, 9, 38, 0
1, 30589, Note_on_c, 4, 45, 0
1, 30589, Note_on_c, 1, 33, 0
1, 30606, Note_on_c, 0, 57, 0
1, 30607, Note_on_c, 0, 62, 0
1, 30610, Note_on_c, 0, 66, 0
1, 30621, Note_on_c, 6, 57, 0
1, 30622, Note_on_c, 6, 54, 0
1, 30622, Note_on_c, 6, 62, 0
1, 30623, Note_on_c, 1, 35, 127
1, 30623, Note_on_c, 6, 62, 110
1, 30624, Note_on_c, 6, 54, 115
1, 30625, Note_on_c, 6, 57, 118
1, 30625, Note_on_c, 9, 40, 97
1, 30626, Note_on_c, 3, 69, 108
1, 30626, Note_on_c, 9, 28, 90
1, 30627, Note_on_c, 9, 40, 0
1, 30627, Note_on_c, 7, 69, 125
1, 30628, Note_on_c, 9, 28, 0
1, 30628, Note_on_c, 7, 66, 127
1, 30629, Note_on_c, 4, 47, 127
1, 30630, Note_on_c, 4, 54, 127
1, 30639, Note_on_c, 6, 54, 0
1, 30641, Note_on_c, 6, 57, 0
1, 30646, Note_on_c, 6, 62, 0
1, 30652, Note_on_c, 7, 66, 0
1, 30655, Note_on_c, 7, 69, 0
1, 30662, Note_on_c, 4, 47, 0
1, 30663, Note_on_c, 4, 54, 0
1, 30670, Note_on_c, 3, 69, 0
1, 30671, Note_on_c, 7, 74, 127
1, 30672, Note_on_c, 3, 62, 127
1, 30672, Note_on_c, 6, 57, 84
1, 30673, Note_on_c, 6, 62, 90
1, 30673, Note_on_c, 6, 54, 90
1, 30674, Note_on_c, 7, 66, 127
1, 30676, Note_on_c, 9, 38, 25
1, 30677, Note_on_c, 9, 38, 0
1, 30678, Note_on_c, 1, 35, 0
1, 30681, Note_on_c, 4, 50, 127
1, 30683, Note_on_c, 4, 62, 127
1, 30717, Note_on_c, 6, 54, 0
1, 30718, Note_on_c, 4, 62, 0
1, 30718, Note_on_c, 6, 62, 0
1, 30719, Note_on_c, 6, 57, 0
1, 30720, Note_on_c, 4, 50, 0
1, 30720, Note_on_c, 1, 38, 127
1, 30721, Note_on_c, 0, 66, 117
1, 30721, Note_on_c, 9, 38, 53
1, 30722, Note_on_c, 0, 57, 117
1, 30722, Note_on_c, 9, 35, 111
1, 30723, Note_on_c, 0, 62, 117
1, 30724, Note_on_c, 9, 35, 0
1, 30724, Note_on_c, 9, 38, 0
1, 30724, Note_on_c, 6, 57, 103
1, 30725, Note_on_c, 6, 54, 103
1, 30726, Note_on_c, 6, 62, 102
1, 30727, Note_on_c, 4, 50, 127
1, 30743, Note_on_c, 0, 57, 0
1, 30749, Note_on_c, 0, 62, 0
1, 30751, Note_on_c, 0, 66, 0
1, 30764, Note_on_c, 4, 50, 0
1, 30764, Control_c, 3, 1, 10
1, 30765, Note_on_c, 6, 62, 0
1, 30766, Note_on_c, 6, 57, 0
1, 30767, Note_on_c, 6, 54, 0
1, 30767, Note_on_c, 6, 54, 86
1, 30768, Note_on_c, 6, 57, 89
1, 30769, Note_on_c, 6, 62, 86
1, 30771, Control_c, 3, 1, 34
1, 30772, Control_c, 3, 1, 47
1, 30773, Note_on_c, 9, 38, 42
1, 30774, Note_on_c, 9, 38, 0
1, 30775, Note_on_c, 4, 47, 127
1, 30777, Control_c, 3, 1, 70
1, 30778, Note_on_c, 4, 62, 127
1, 30783, Control_c, 3, 1, 75
1, 30787, Control_c, 3, 1, 82
1, 30791, Control_c, 3, 1, 90
1, 30796, Note_on_c, 1, 38, 0
1, 30796, Control_c, 3, 1, 95
1, 30798, Control_c, 3, 1, 115
1, 30804, Pitch_bend_c, 3, 8128
1, 30805, Control_c, 3, 1, 126
1, 30806, Pitch_bend_c, 3, 8032
1, 30808, Note_on_c, 4, 47, 0
1, 30809, Pitch_bend_c, 3, 7552
1, 30811, Control_c, 3, 1, 127
1, 30812, Note_on_c, 4, 62, 0
1, 30813, Note_on_c, 6, 62, 0
1, 30813, Note_on_c, 6, 62, 112
1, 30814, Note_on_c, 6, 54, 0
1, 30814, Note_on_c, 6, 54, 117
1, 30815, Note_on_c, 6, 59, 120
1, 30816, Note_on_c, 6, 57, 0
1, 30817, Pitch_bend_c, 3, 7232
1, 30817, Note_on_c, 9, 40, 97
1, 30818, Note_on_c, 1, 37, 119
1, 30818, Pitch_bend_c, 3, 6976
1, 30818, Note_on_c, 9, 28, 91
1, 30819, Note_on_c, 9, 40, 0
1, 30819, Pitch_bend_c, 3, 6432
1, 30820, Note_on_c, 9, 28, 0
1, 30820, Note_on_c, 4, 47, 127
1, 30823, Pitch_bend_c, 3, 5984
1, 30824, Note_on_c, 4, 54, 127
1, 30828, Pitch_bend_c, 3, 5728
1, 30830, Pitch_bend_c, 3, 5504
1, 30833, Note_on_c, 6, 54, 0
1, 30835, Pitch_bend_c, 3, 4928
1, 30836, Note_on_c, 6, 59, 0
1, 30837, Control_c, 3, 1, 113
1, 30838, Pitch_bend_c, 3, 4672
1, 30840, Pitch_bend_c, 3, 4160
1, 30841, Note_on_c, 6, 62, 0
1, 30841, Control_c, 3, 1, 103
1, 30843, Control_c, 3, 1, 68
1, 30845, Pitch_bend_c, 3, 3936
1, 30848, Pitch_bend_c, 3, 3552
1, 30850, Control_c, 3, 1, 45
1, 30853, Pitch_bend_c, 3, 3456
1, 30856, Control_c, 3, 1, 33
1, 30857, Pitch_bend_c, 3, 3680
1, 30858, Control_c, 3, 1, 11
1, 30862, Pitch_bend_c, 3, 4032
1, 30862, Control_c, 3, 1, 0
1, 30863, Note_on_c, 0, 66, 117
1, 30864, Note_on_c, 0, 57, 117
1, 30865, Note_on_c, 0, 62, 117
1, 30865, Note_on_c, 6, 57, 98
1, 30865, Note_on_c, 9, 35, 68
1, 30866, Note_on_c, 9, 35, 0
1, 30866, Note_on_c, 6, 62, 84
1, 30867, Note_on_c, 6, 54, 72
1, 30868, Pitch_bend_c, 3, 5152
1, 30868, Note_on_c, 9, 38, 27
1, 30869, Note_on_c, 9, 38, 0
1, 30869, Note_on_c, 4, 47, 0
1, 30870, Note_on_c, 7, 66, 0
1, 30871, Note_on_c, 7, 74, 0
1, 30872, Note_on_c, 4, 54, 0
1, 30873, Pitch_bend_c, 3, 6016
1, 30874, Pitch_bend_c, 3, 7584
1, 30875, Note_on_c, 3, 62, 0
1, 30876, Pitch_bend_c, 3, 8064
1, 30880, Pitch_bend_c, 3, 8192
1, 30894, Note_on_c, 0, 62, 0
1, 30894, Note_on_c, 1, 37, 0
1, 30895, Note_on_c, 0, 57, 0
1, 30900, Note_on_c, 0, 66, 0
1, 30909, Note_on_c, 6, 57, 0
1, 30910, Note_on_c, 6, 62, 0
1, 30911, Note_on_c, 6, 57, 117
1, 30912, Note_on_c, 6, 54, 0
1, 30912, Note_on_c, 1, 38, 127
1, 30912, Note_on_c, 6, 62, 113
1, 30912, Note_on_c, 6, 54, 114
1, 30912, Note_on_c, 9, 38, 52
1, 30913, Note_on_c, 9, 35, 110
1, 30915, Note_on_c, 9, 35, 0
1, 30915, Note_on_c, 9, 38, 0
1, 30916, Note_on_c, 4, 45, 127
1, 30953, Note_on_c, 6, 62, 0
1, 30955, Note_on_c, 6, 54, 0
1, 30956, Note_on_c, 6, 57, 0
1, 30960, Note_on_c, 6, 57, 92
1, 30960, Note_on_c, 6, 54, 88
1, 30961, Note_on_c, 6, 62, 87
1, 30962, Note_on_c, 4, 45, 0
1, 30965, Note_on_c, 9, 38, 47
1, 30967, Note_on_c, 9, 38, 0
1, 30990, Note_on_c, 1, 38, 0
1, 31005, Note_on_c, 6, 57, 0
1, 31006, Note_on_c, 6, 62, 0
1, 31007, Note_on_c, 6, 54, 0
1, 31008, Note_on_c, 1, 39, 127
1, 31008, Note_on_c, 6, 62, 110
1, 31008, Note_on_c, 6, 54, 115
1, 31008, Note_on_c, 6, 59, 118
1, 31009, Note_on_c, 0, 66, 117
1, 31009, Note_on_c, 9, 40, 96
1, 31010, Note_on_c, 9, 40, 0
1, 31010, Note_on_c, 0, 57, 117
1, 31010, Note_on_c, 9, 28, 92
1, 31011, Note_on_c, 9, 28, 0
1, 31011, Note_on_c, 0, 62, 117
1, 31012, Note_on_c, 4, 47, 127
1, 31015, Note_on_c, 4, 54, 127
1, 31022, Note_on_c, 6, 54, 0
1, 31025, Note_on_c, 6, 59, 0
1, 31029, Note_on_c, 6, 62, 0
1, 31035, Note_on_c, 0, 57, 0
1, 31042, Note_on_c, 0, 62, 0
1, 31044, Note_on_c, 0, 66, 0
1, 31048, Pitch_bend_c, 3, 8032
1, 31052, Pitch_bend_c, 3, 7808
1, 31055, Pitch_bend_c, 3, 7584
1, 31056, Note_on_c, 6, 57, 84
1, 31056, Note_on_c, 6, 62, 90
1, 31057, Note_on_c, 6, 54, 90
1, 31058, Pitch_bend_c, 3, 6944
1, 31061, Note_on_c, 4, 47, 0
1, 31061, Note_on_c, 9, 38, 23
1, 31062, Note_on_c, 9, 38, 0
1, 31062, Pitch_bend_c, 3, 6592
1, 31064, Note_on_c, 4, 54, 0
1, 31065, Pitch_bend_c, 3, 5856
1, 31069, Pitch_bend_c, 3, 5504
1, 31070, Pitch_bend_c, 3, 4832
1, 31071, Pitch_bend_c, 7, 8160
1, 31074, Pitch_bend_c, 7, 8032
1, 31077, Pitch_bend_c, 3, 4640
1, 31077, Pitch_bend_c, 7, 7840
1, 31078, Pitch_bend_c, 7, 7456
1, 31079, Pitch_bend_c, 3, 4416
1, 31082, Pitch_bend_c, 7, 7136
1, 31083, Pitch_bend_c, 3, 4288
1, 31084, Pitch_bend_c, 7, 6720
1, 31086, Pitch_bend_c, 7, 6400
1, 31087, Pitch_bend_c, 3, 4192
1, 31089, Pitch_bend_c, 3, 4096
1, 31089, Pitch_bend_c, 7, 6112
1, 31090, Pitch_bend_c, 7, 5824
1, 31092, Pitch_bend_c, 3, 4064
1, 31093, Pitch_bend_c, 7, 5536
1, 31096, Pitch_bend_c, 7, 5280
1, 31097, Pitch_bend_c, 3, 4096
1, 31099, Pitch_bend_c, 7, 4992
1, 31100, Pitch_bend_c, 3, 4288
1, 31101, Note_on_c, 1, 39, 0
1, 31101, Pitch_bend_c, 7, 4832
1, 31102, Note_on_c, 6, 54, 0
1, 31103, Note_on_c, 6, 62, 0
1, 31104, Note_on_c, 6, 57, 0
1, 31104, Note_on_c, 1, 40, 127
1, 31104, Note_on_c, 3, 71, 127
1, 31105, Note_on_c, 7, 76, 127
1, 31105, Note_on_c, 9, 38, 43
1, 31106, Note_on_c, 7, 68, 127
1, 31106, Note_on_c, 9, 35, 111
1, 31107, Note_on_c, 6, 56, 111
1, 31108, Note_on_c, 9, 35, 0
1, 31108, Note_on_c, 9, 38, 0
1, 31108, Note_on_c, 6, 52, 114
1, 31109, Note_on_c, 6, 59, 109
1, 31110, Pitch_bend_c, 7, 4704
1, 31111, Pitch_bend_c, 7, 4576
1, 31112, Pitch_bend_c, 3, 4448
1, 31113, Note_on_c, 4, 52, 127
1, 31114, Pitch_bend_c, 7, 4544
1, 31115, Pitch_bend_c, 3, 5376
1, 31116, Pitch_bend_c, 7, 4512
1, 31117, Pitch_bend_c, 3, 6112
1, 31118, Pitch_bend_c, 3, 6944
1, 31119, Pitch_bend_c, 7, 4544
1, 31120, Pitch_bend_c, 3, 8064
1, 31120, Pitch_bend_c, 7, 4576
1, 31121, Note_on_c, 6, 59, 0
1, 31122, Pitch_bend_c, 3, 8192
1, 31122, Pitch_bend_c, 7, 4608
1, 31124, Note_on_c, 6, 52, 0
1, 31125, Pitch_bend_c, 7, 4704
1, 31126, Note_on_c, 6, 56, 0
1, 31127, Pitch_bend_c, 7, 4800
1, 31129, Pitch_bend_c, 7, 4960
1, 31132, Pitch_bend_c, 7, 5184
1, 31135, Pitch_bend_c, 7, 5472
1, 31137, Pitch_bend_c, 7, 5856
1, 31139, Pitch_bend_c, 7, 6304
1, 31140, Pitch_bend_c, 7, 6816
1, 31143, Note_on_c, 7, 68, 0
1, 31143, Pitch_bend_c, 7, 7264
1, 31145, Note_on_c, 7, 76, 0
1, 31146, Pitch_bend_c, 7, 7712
1, 31147, Note_on_c, 3, 71, 0
1, 31148, Pitch_bend_c, 7, 8000
1, 31151, Note_on_c, 7, 68, 127
1, 31151, Note_on_c, 7, 76, 127
1, 31152, Pitch_bend_c, 7, 8160
1, 31153, Note_on_c, 4, 52, 0
1, 31154, Note_on_c, 3, 71, 127
1, 31154, Pitch_bend_c, 7, 8192
1, 31157, Note_on_c, 9, 38, 45
1, 31158, Note_on_c, 9, 38, 0
1, 31198, Note_on_c, 6, 59, 120
1, 31199, Note_on_c, 6, 56, 127
1, 31199, Note_on_c, 6, 52, 127
1, 31200, Note_on_c, 0, 68, 117
1, 31200, Note_on_c, 0, 59, 117
1, 31200, Note_on_c, 9, 40, 98
1, 31201, Note_on_c, 0, 64, 117
1, 31201, Note_on_c, 9, 28, 94
1, 31202, Note_on_c, 9, 40, 0
1, 31203, Note_on_c, 9, 28, 0
1, 31203, Note_on_c, 4, 49, 127
1, 31207, Note_on_c, 4, 56, 127
1, 31211, Note_on_c, 1, 40, 0
1, 31213, Note_on_c, 3, 71, 0
1, 31214, Note_on_c, 7, 76, 0
1, 31218, Note_on_c, 7, 68, 0
1, 31226, Note_on_c, 0, 59, 0
1, 31234, Note_on_c, 0, 64, 0
1, 31239, Note_on_c, 0, 68, 0
1, 31246, Note_on_c, 7, 68, 127
1, 31247, Note_on_c, 1, 40, 127
1, 31247, Note_on_c, 7, 76, 127
1, 31250, Note_on_c, 3, 71, 127
1, 31252, Note_on_c, 9, 38, 25
1, 31253, Note_on_c, 4, 56, 0
1, 31254, Note_on_c, 9, 38, 0
1, 31254, Note_on_c, 4, 49, 0
1, 31261, Note_on_c, 1, 40, 0
1, 31295, Note_on_c, 1, 35, 127
1, 31297, Note_on_c, 9, 38, 54
1, 31298, Note_on_c, 9, 35, 110
1, 31299, Note_on_c, 9, 35, 0
1, 31299, Note_on_c, 9, 38, 0
1, 31300, Note_on_c, 4, 47, 127
1, 31305, Note_on_c, 6, 52, 0
1, 31308, Note_on_c, 6, 56, 0
1, 31309, Note_on_c, 6, 59, 0
1, 31332, Note_on_c, 7, 76, 0
1, 31336, Note_on_c, 7, 68, 0
1, 31339, Note_on_c, 3, 71, 0
1, 31342, Note_on_c, 0, 68, 117
1, 31343, Note_on_c, 0, 59, 117
1, 31344, Note_on_c, 0, 64, 117
1, 31345, Note_on_c, 7, 68, 127
1, 31346, Note_on_c, 3, 71, 127
1, 31346, Note_on_c, 7, 76, 127
1, 31347, Note_on_c, 6, 56, 71
1, 31348, Note_on_c, 6, 52, 74
1, 31349, Note_on_c, 6, 56, 0
1, 31349, Note_on_c, 6, 59, 69
1, 31349, Note_on_c, 9, 38, 45
1, 31350, Note_on_c, 9, 38, 0
1, 31350, Note_on_c, 6, 59, 0
1, 31351, Note_on_c, 6, 52, 0
1, 31357, Note_on_c, 4, 47, 0
1, 31369, Note_on_c, 0, 59, 0
1, 31371, Note_on_c, 0, 64, 0
1, 31378, Note_on_c, 0, 68, 0
1, 31385, Pitch_bend_c, 3, 8317
1, 31387, Pitch_bend_c, 3, 8192
1, 31392, Note_on_c, 6, 56, 111
1, 31392, Note_on_c, 9, 40, 97
1, 31393, Note_on_c, 6, 52, 114
1, 31394, Note_on_c, 9, 40, 0
1, 31394, Note_on_c, 6, 59, 109
1, 31394, Note_on_c, 9, 28, 90
1, 31395, Note_on_c, 9, 28, 0
1, 31395, Note_on_c, 7, 76, 0
1, 31396, Note_on_c, 7, 68, 0
1, 31397, Note_on_c, 4, 49, 127
1, 31398, Note_on_c, 3, 71, 0
1, 31399, Note_on_c, 4, 56, 127
1, 31402, Note_on_c, 1, 35, 0
1, 31405, Note_on_c, 6, 59, 0
1, 31412, Note_on_c, 6, 52, 0
1, 31413, Note_on_c, 6, 56, 0
1, 31430, Note_on_c, 4, 49, 0
1, 31431, Note_on_c, 4, 56, 0
1, 31436, Pitch_bend_c, 3, 4620
1, 31436, Pitch_bend_c, 7, 4200
1, 31440, Note_on_c, 1, 39, 127
1, 31440, Note_on_c, 7, 68, 127
1, 31440, Note_on_c, 7, 76, 127
1, 31442, Note_on_c, 3, 73, 124
1, 31445, Note_on_c, 9, 38, 25
1, 31446, Note_on_c, 9, 38, 0
1, 31449, Note_on_c, 4, 52, 127
1, 31451, Note_on_c, 4, 64, 127
1, 31463, Pitch_bend_c, 7, 3936
1, 31464, Pitch_bend_c, 7, 3840
1, 31466, Pitch_bend_c, 7, 3808
1, 31467, Pitch_bend_c, 3, 4960
1, 31470, Pitch_bend_c, 7, 3872
1, 31472, Pitch_bend_c, 3, 4992
1, 31473, Pitch_bend_c, 3, 5472
1, 31475, Pitch_bend_c, 7, 4000
1, 31477, Pitch_bend_c, 7, 4160
1, 31478, Pitch_bend_c, 7, 4384
1, 31479, Note_on_c, 1, 39, 0
1, 31479, Pitch_bend_c, 3, 6016
1, 31481, Pitch_bend_c, 7, 4576
1, 31482, Pitch_bend_c, 3, 7456
1, 31484, Pitch_bend_c, 7, 4832
1, 31485, Note_on_c, 4, 64, 0
1, 31486, Pitch_bend_c, 7, 5152
1, 31487, Note_on_c, 4, 52, 0
1, 31488, Note_on_c, 0, 68, 117
1, 31488, Note_on_c, 1, 40, 127
1, 31488, Pitch_bend_c, 3, 7968
1, 31489, Note_on_c, 0, 64, 117
1, 31489, Note_on_c, 9, 38, 53
1, 31490, Note_on_c, 0, 59, 117
1, 31490, Note_on_c, 9, 35, 111
1, 31491, Note_on_c, 6, 52, 90
1, 31492, Note_on_c, 9, 35, 0
1, 31492, Note_on_c, 9, 38, 0
1, 31492, Note_on_c, 6, 59, 98
1, 31493, Pitch_bend_c, 3, 8192
1, 31494, Pitch_bend_c, 7, 5536
1, 31495, Pitch_bend_c, 7, 5952
1, 31496, Note_on_c, 4, 52, 127
1, 31497, Pitch_bend_c, 7, 6400
1, 31498, Pitch_bend_c, 7, 6880
1, 31499, Pitch_bend_c, 7, 7392
1, 31500, Pitch_bend_c, 7, 7808
1, 31503, Pitch_bend_c, 7, 8096
1, 31505, Pitch_bend_c, 7, 8192
1, 31514, Note_on_c, 0, 59, 0
1, 31517, Note_on_c, 0, 64, 0
1, 31525, Note_on_c, 0, 68, 0
1, 31531, Note_on_c, 7, 76, 0
1, 31532, Note_on_c, 4, 52, 0
1, 31533, Note_on_c, 7, 68, 0
1, 31534, Note_on_c, 6, 59, 0
1, 31535, Note_on_c, 6, 52, 0
1, 31536, Note_on_c, 6, 59, 60
1, 31536, Note_on_c, 6, 52, 65
1, 31540, Note_on_c, 9, 38, 42
1, 31542, Note_on_c, 9, 38, 0
1, 31543, Note_on_c, 4, 49, 127
1, 31545, Note_on_c, 3, 73, 0
1, 31546, Note_on_c, 4, 64, 127
1, 31576, Note_on_c, 4, 49, 0
1, 31579, Note_on_c, 6, 59, 0
1, 31580, Note_on_c, 4, 64, 0
1, 31582, Note_on_c, 6, 52, 0
1, 31582, Note_on_c, 6, 52, 127
1, 31582, Note_on_c, 6, 59, 127
1, 31583, Note_on_c, 6, 56, 127
1, 31584, Note_on_c, 7, 76, 127
1, 31585, Note_on_c, 7, 68, 124
1, 31585, Note_on_c, 9, 40, 97
1, 31586, Note_on_c, 9, 40, 0
1, 31586, Note_on_c, 3, 73, 122
1, 31586, Note_on_c, 9, 28, 91
1, 31587, Note_on_c, 9, 28, 0
1, 31587, Note_on_c, 4, 40, 127
1, 31592, Note_on_c, 6, 52, 0
1, 31592, Note_on_c, 6, 59, 0
1, 31592, Note_on_c, 6, 56, 0
1, 31594, Note_on_c, 1, 40, 0
1, 31631, Note_on_c, 0, 68, 117
1, 31632, Note_on_c, 0, 59, 117
1, 31632, Note_on_c, 0, 64, 117
1, 31632, Note_on_c, 1, 40, 119
1, 31633, Note_on_c, 6, 59, 73
1, 31633, Note_on_c, 9, 35, 68
1, 31634, Note_on_c, 6, 52, 65
1, 31635, Note_on_c, 9, 35, 0
1, 31635, Note_on_c, 4, 40, 0
1, 31636, Note_on_c, 7, 76, 0
1, 31637, Note_on_c, 7, 68, 0
1, 31637, Note_on_c, 9, 38, 27
1, 31638, Note_on_c, 9, 38, 0
1, 31641, Note_on_c, 3, 73, 0
1, 31647, Note_on_c, 1, 40, 0
1, 31667, Note_on_c, 0, 59, 0
1, 31669, Note_on_c, 0, 64, 0
1, 31671, Note_on_c, 0, 68, 0
1, 31677, Note_on_c, 6, 59, 0
1, 31677, Note_on_c, 6, 52, 0
1, 31678, Note_on_c, 6, 52, 90
1, 31679, Note_on_c, 6, 59, 98
1, 31680, Note_on_c, 1, 42, 126
1, 31681, Note_on_c, 3, 73, 124
1, 31681, Note_on_c, 9, 38, 52
1, 31681, Note_on_c, 9, 35, 110
1, 31682, Note_on_c, 7, 76, 127
1, 31683, Note_on_c, 9, 35, 0
1, 31683, Note_on_c, 9, 38, 0
1, 31683, Note_on_c, 7, 68, 127
1, 31684, Note_on_c, 4, 42, 127
1, 31723, Note_on_c, 6, 52, 0
1, 31724, Note_on_c, 7, 76, 0
1, 31725, Note_on_c, 6, 59, 0
1, 31727, Note_on_c, 3, 73, 0
1, 31728, Note_on_c, 6, 59, 73
1, 31729, Note_on_c, 7, 68, 0
1, 31729, Note_on_c, 6, 52, 65
1, 31730, Note_on_c, 4, 42, 0
1, 31733, Note_on_c, 9, 38, 47
1, 31735, Note_on_c, 9, 38, 0
1, 31743, Note_on_c, 1, 42, 0
1, 31773, Note_on_c, 7, 64, 124
1, 31774, Note_on_c, 6, 52, 0
1, 31775, Note_on_c, 6, 59, 0
1, 31776, Note_on_c, 1, 44, 127
1, 31776, Note_on_c, 6, 52, 127
1, 31776, Note_on_c, 6, 59, 127
1, 31776, Note_on_c, 6, 56, 127
1, 31777, Note_on_c, 0, 68, 117
1, 31777, Note_on_c, 9, 40, 96
1, 31778, Note_on_c, 9, 40, 0
1, 31778, Note_on_c, 0, 64, 117
1, 31778, Note_on_c, 9, 28, 92
1, 31779, Note_on_c, 9, 28, 0
1, 31779, Note_on_c, 0, 59, 117
1, 31780, Note_on_c, 7, 73, 127
1, 31781, Note_on_c, 3, 69, 127
1, 31782, Note_on_c, 4, 44, 127
1, 31783, Note_on_c, 6, 52, 0
1, 31784, Note_on_c, 6, 56, 0
1, 31785, Note_on_c, 6, 59, 0
1, 31804, Note_on_c, 0, 59, 0
1, 31813, Note_on_c, 7, 64, 0
1, 31814, Note_on_c, 7, 73, 0
1, 31815, Note_on_c, 0, 68, 0
1, 31820, Note_on_c, 3, 69, 0
1, 31823, Note_on_c, 0, 64, 0
1, 31823, Note_on_c, 7, 73, 83
1, 31824, Note_on_c, 6, 59, 73
1, 31825, Note_on_c, 6, 52, 65
1, 31826, Note_on_c, 3, 69, 122
1, 31826, Note_on_c, 7, 64, 73
1, 31829, Note_on_c, 4, 44, 0
1, 31829, Note_on_c, 9, 38, 23
1, 31830, Note_on_c, 9, 38, 0
1, 31840, Note_on_c, 7, 73, 0
1, 31840, Pitch_bend_c, 7, 8096
1, 31841, Pitch_bend_c, 7, 7840
1, 31843, Note_on_c, 7, 64, 0
1, 31845, Note_on_c, 1, 44, 0
1, 31845, Pitch_bend_c, 7, 7520
1, 31846, Note_on_c, 3, 69, 0
1, 31847, Pitch_bend_c, 7, 7136
1, 31850, Pitch_bend_c, 7, 6752
1, 31852, Pitch_bend_c, 7, 6432
1, 31855, Pitch_bend_c, 7, 6144
1, 31857, Pitch_bend_c, 7, 5984
1, 31858, Pitch_bend_c, 7, 5824
1, 31862, Pitch_bend_c, 7, 5696
1, 31864, Pitch_bend_c, 7, 5600
1, 31867, Pitch_bend_c, 7, 5536
1, 31869, Note_on_c, 7, 64, 127
1, 31870, Note_on_c, 6, 59, 0
1, 31870, Note_on_c, 6, 52, 0
1, 31871, Pitch_bend_c, 7, 5472
1, 31872, Note_on_c, 1, 45, 121
1, 31872, Note_on_c, 6, 52, 90
1, 31872, Note_on_c, 6, 57, 98
1, 31873, Pitch_bend_c, 7, 5408
1, 31873, Note_on_c, 9, 38, 53
1, 31874, Pitch_bend_c, 7, 5440
1, 31874, Note_on_c, 9, 35, 111
1, 31875, Note_on_c, 9, 35, 0
1, 31875, Note_on_c, 3, 69, 127
1, 31876, Note_on_c, 9, 38, 0
1, 31876, Note_on_c, 7, 73, 127
1, 31877, Note_on_c, 4, 45, 127
1, 31878, Pitch_bend_c, 7, 5376
1, 31884, Pitch_bend_c, 7, 5440
1, 31885, Pitch_bend_c, 7, 5536
1, 31889, Pitch_bend_c, 7, 5728
1, 31891, Pitch_bend_c, 7, 5984
1, 31893, Pitch_bend_c, 7, 6304
1, 31895, Pitch_bend_c, 7, 6720
1, 31897, Pitch_bend_c, 7, 7232
1, 31900, Pitch_bend_c, 7, 7616
1, 31902, Pitch_bend_c, 7, 7968
1, 31905, Pitch_bend_c, 7, 8160
1, 31907, Pitch_bend_c, 7, 8192
1, 31917, Note_on_c, 6, 57, 0
1, 31918, Note_on_c, 6, 52, 0
1, 31920, Note_on_c, 6, 57, 60
1, 31920, Note_on_c, 6, 52, 65
1, 31921, Note_on_c, 4, 45, 0
1, 31925, Note_on_c, 9, 38, 42
1, 31926, Note_on_c, 9, 38, 0
1, 31936, Note_on_c, 7, 64, 0
1, 31936, Note_on_c, 3, 69, 0
1, 31937, Note_on_c, 7, 73, 0
1, 31965, Note_on_c, 6, 49, 127
1, 31966, Note_on_c, 6, 52, 0
1, 31966, Note_on_c, 6, 52, 115
1, 31967, Note_on_c, 6, 57, 0
1, 31967, Note_on_c, 6, 57, 127
1, 31969, Note_on_c, 0, 61, 117
1, 31969, Note_on_c, 9, 40, 97
1, 31969, Note_on_c, 9, 28, 91
1, 31970, Note_on_c, 9, 40, 0
1, 31970, Note_on_c, 0, 57, 117
1, 31971, Note_on_c, 9, 28, 0
1, 31971, Note_on_c, 0, 64, 117
1, 31972, Note_on_c, 7, 64, 95
1, 31973, Note_on_c, 1, 45, 0
1, 31973, Note_on_c, 3, 69, 115
1, 31974, Note_on_c, 4, 42, 127
1, 31975, Note_on_c, 7, 73, 107
1, 31976, Note_on_c, 4, 49, 127
1, 31977, Note_on_c, 6, 49, 0
1, 31978, Note_on_c, 6, 52, 0
1, 31981, Note_on_c, 6, 57, 0
1, 31989, Note_on_c, 7, 73, 0
1, 31992, Note_on_c, 3, 69, 0
1, 31997, Note_on_c, 7, 64, 0
1, 31998, Note_on_c, 0, 57, 0
1, 32000, Note_on_c, 0, 64, 0
1, 32003, Note_on_c, 0, 61, 0
1, 32014, Note_on_c, 7, 73, 127
1, 32015, Note_on_c, 1, 45, 104
1, 32015, Note_on_c, 6, 57, 73
1, 32016, Note_on_c, 6, 52, 65
1, 32017, Note_on_c, 7, 64, 127
1, 32017, Note_on_c, 9, 35, 68
1, 32018, Note_on_c, 9, 35, 0
1, 32018, Note_on_c, 3, 69, 115
1, 32020, Note_on_c, 4, 49, 0
1, 32021, Note_on_c, 4, 42, 0
1, 32021, Note_on_c, 9, 38, 27
1, 32022, Note_on_c, 9, 38, 0
1, 32036, Note_on_c, 1, 45, 0
1, 32061, Note_on_c, 6, 57, 0
1, 32061, Note_on_c, 6, 52, 0
1, 32061, Note_on_c, 6, 52, 103
1, 32062, Note_on_c, 6, 57, 98
1, 32064, Note_on_c, 1, 43, 126
1, 32065, Note_on_c, 9, 38, 52
1, 32066, Note_on_c, 9, 35, 110
1, 32067, Note_on_c, 9, 35, 0
1, 32068, Note_on_c, 9, 38, 0
1, 32068, Note_on_c, 4, 40, 127
1, 32075, Control_c, 3, 1, 13
1, 32079, Control_c, 3, 1, 23
1, 32084, Control_c, 3, 1, 44
1, 32086, Control_c, 3, 1, 66
1, 32093, Control_c, 3, 1, 86
1, 32097, Control_c, 3, 1, 102
1, 32102, Control_c, 3, 1, 110
1, 32105, Control_c, 3, 1, 123
1, 32108, Note_on_c, 6, 52, 0
1, 32108, Note_on_c, 6, 57, 0
1, 32110, Note_on_c, 0, 66, 117
1, 32111, Note_on_c, 0, 62, 117
1, 32112, Note_on_c, 1, 43, 0
1, 32112, Note_on_c, 0, 57, 117
1, 32113, Note_on_c, 6, 57, 73
1, 32114, Note_on_c, 6, 52, 65
1, 32115, Control_c, 3, 1, 125
1, 32116, Control_c, 3, 1, 127
1, 32117, Note_on_c, 9, 38, 47
1, 32118, Note_on_c, 9, 38, 0
1, 32125, Note_on_c, 4, 40, 0
1, 32126, Control_c, 3, 1, 125
1, 32128, Control_c, 3, 1, 121
1, 32132, Control_c, 3, 1, 119
1, 32136, Control_c, 3, 1, 99
1, 32137, Note_on_c, 0, 57, 0
1, 32142, Control_c, 3, 1, 77
1, 32145, Note_on_c, 0, 62, 0
1, 32147, Note_on_c, 0, 66, 0
1, 32147, Control_c, 3, 1, 24
1, 32149, Control_c, 3, 1, 0
1, 32155, Note_on_c, 7, 64, 0
1, 32157, Note_on_c, 6, 49, 127
1, 32158, Note_on_c, 6, 52, 0
1, 32158, Note_on_c, 6, 52, 127
1, 32159, Note_on_c, 6, 57, 0
1, 32159, Note_on_c, 6, 57, 127
1, 32160, Note_on_c, 7, 73, 0
1, 32160, Note_on_c, 1, 42, 127
1, 32161, Note_on_c, 9, 40, 96
1, 32162, Note_on_c, 9, 28, 92
1, 32163, Note_on_c, 9, 40, 0
1, 32164, Note_on_c, 9, 28, 0
1, 32164, Note_on_c, 4, 42, 127
1, 32167, Note_on_c, 6, 49, 0
1, 32167, Note_on_c, 4, 49, 127
1, 32168, Note_on_c, 6, 52, 0
1, 32169, Note_on_c, 6, 57, 0
1, 32178, Note_on_c, 3, 69, 0
1, 32199, Note_on_c, 4, 42, 0
1, 32200, Note_on_c, 4, 49, 0
1, 32208, Note_on_c, 6, 57, 73
1, 32208, Note_on_c, 6, 52, 65
1, 32212, Note_on_c, 9, 38, 23
1, 32214, Note_on_c, 9, 38, 0
1, 32217, Note_on_c, 4, 45, 127
1, 32219, Note_on_c, 4, 57, 127
1, 32253, Note_on_c, 4, 57, 0
1, 32254, Note_on_c, 6, 52, 0
1, 32254, Note_on_c, 1, 42, 0
1, 32254, Note_on_c, 6, 52, 90
1, 32255, Note_on_c, 6, 57, 0
1, 32255, Note_on_c, 6, 57, 98
1, 32256, Note_on_c, 1, 33, 127
1, 32257, Note_on_c, 4, 45, 0
1, 32257, Note_on_c, 9, 38, 43
1, 32258, Note_on_c, 0, 57, 117
1, 32258, Note_on_c, 9, 35, 111
1, 32259, Note_on_c, 0, 64, 117
1, 32260, Note_on_c, 9, 35, 0
1, 32260, Note_on_c, 9, 38, 0
1, 32260, Note_on_c, 0, 61, 117
1, 32262, Note_on_c, 4, 45, 127
1, 32281, Note_on_c, 0, 57, 0
1, 32284, Note_on_c, 0, 64, 0
1, 32285, Note_on_c, 0, 61, 0
1, 32299, Note_on_c, 6, 57, 0
1, 32300, Note_on_c, 6, 52, 0
1, 32300, Note_on_c, 4, 45, 0
1, 32303, Note_on_c, 6, 57, 60
1, 32304, Note_on_c, 6, 52, 65
1, 32309, Note_on_c, 9, 38, 45
1, 32310, Note_on_c, 9, 38, 0
1, 32311, Note_on_c, 4, 42, 127
1, 32314, Note_on_c, 4, 57, 127
1, 32344, Note_on_c, 4, 42, 0
1, 32348, Note_on_c, 4, 57, 0
1, 32350, Note_on_c, 6, 52, 0
1, 32350, Note_on_c, 6, 49, 127
1, 32350, Note_on_c, 6, 52, 115
1, 32351, Note_on_c, 6, 57, 0
1, 32351, Note_on_c, 6, 57, 127
1, 32352, Note_on_c, 9, 40, 98
1, 32353, Note_on_c, 9, 28, 94
1, 32354, Note_on_c, 9, 40, 0
1, 32355, Note_on_c, 9, 28, 0
1, 32356, Note_on_c, 4, 42, 127
1, 32360, Note_on_c, 6, 49, 0
1, 32360, Note_on_c, 4, 49, 127
1, 32361, Note_on_c, 1, 33, 0
1, 32362, Note_on_c, 6, 52, 0
1, 32365, Note_on_c, 6, 57, 0
1, 32399, Note_on_c, 0, 64, 117
1, 32400, Note_on_c, 0, 61, 117
1, 32400, Note_on_c, 0, 57, 117
1, 32401, Note_on_c, 6, 57, 73
1, 32402, Note_on_c, 6, 52, 65
1, 32403, Note_on_c, 4, 42, 0
1, 32405, Note_on_c, 4, 49, 0
1, 32405, Note_on_c, 9, 38, 25
1, 32406, Note_on_c, 9, 38, 0
1, 32419, Note_on_c, 0, 57, 0
1, 32428, Note_on_c, 0, 61, 0
1, 32430, Note_on_c, 0, 64, 0
1, 32445, Note_on_c, 6, 57, 0
1, 32446, Note_on_c, 6, 52, 0
1, 32446, Note_on_c, 6, 52, 103
1, 32446, Note_on_c, 6, 57, 98
1, 32448, Note_on_c, 1, 43, 127
1, 32449, Note_on_c, 9, 38, 54
1, 32450, Note_on_c, 9, 35, 110
1, 32452, Note_on_c, 9, 35, 0
1, 32452, Note_on_c, 9, 38, 0
1, 32452, Note_on_c, 4, 43, 127
1, 32492, Note_on_c, 6, 52, 0
1, 32492, Note_on_c, 6, 57, 0
1, 32496, Note_on_c, 0, 64, 117
1, 32496, Note_on_c, 0, 61, 117
1, 32496, Note_on_c, 0, 57, 117
1, 32497, Note_on_c, 6, 57, 73
1, 32498, Note_on_c, 6, 52, 65
1, 32499, Note_on_c, 4, 43, 0
1, 32501, Note_on_c, 9, 38, 45
1, 32502, Note_on_c, 9, 38, 0
1, 32502, Note_on_c, 1, 43, 0
1, 32523, Note_on_c, 0, 57, 0
1, 32533, Note_on_c, 0, 61, 0
1, 32536, Note_on_c, 0, 64, 0
1, 32543, Note_on_c, 1, 42, 127
1, 32543, Note_on_c, 6, 49, 127
1, 32544, Note_on_c, 6, 57, 0
1, 32544, Note_on_c, 6, 52, 0
1, 32544, Note_on_c, 6, 52, 127
1, 32544, Note_on_c, 6, 57, 127
1, 32545, Note_on_c, 9, 40, 97
1, 32546, Note_on_c, 9, 40, 0
1, 32546, Note_on_c, 9, 28, 90
1, 32547, Note_on_c, 9, 28, 0
1, 32548, Note_on_c, 4, 42, 127
1, 32549, Note_on_c, 4, 49, 127
1, 32551, Note_on_c, 6, 52, 0
1, 32551, Note_on_c, 6, 49, 0
1, 32552, Note_on_c, 6, 57, 0
1, 32592, Note_on_c, 6, 57, 73
1, 32592, Note_on_c, 6, 52, 65
1, 32597, Note_on_c, 4, 42, 0
1, 32597, Note_on_c, 9, 38, 25
1, 32598, Note_on_c, 9, 38, 0
1, 32598, Note_on_c, 4, 49, 0
1, 32601, Note_on_c, 1, 42, 0
1, 32617, Note_on_c, 9, 38, 25
1, 32618, Note_on_c, 9, 38, 0
1, 32638, Note_on_c, 6, 57, 0
1, 32639, Note_on_c, 6, 52, 0
1, 32639, Note_on_c, 1, 45, 127
1, 32641, Note_on_c, 9, 38, 53
1, 32642, Note_on_c, 9, 35, 111
1, 32643, Note_on_c, 4, 45, 127
1, 32644, Note_on_c, 9, 35, 0
1, 32644, Note_on_c, 9, 38, 0
1, 32646, Control_c, 6, 11, 127
1, 32687, Note_on_c, 4, 45, 0
1, 32692, Note_on_c, 9, 38, 42
1, 32693, Note_on_c, 2, 57, 107
1, 32694, Note_on_c, 9, 38, 0
1, 32694, Note_on_c, 6, 57, 107
1, 32730, Note_on_c, 6, 57, 0
1, 32731, Note_on_c, 2, 57, 0
1, 32734, Note_on_c, 0, 61, 117
1, 32735, Note_on_c, 0, 64, 117
1, 32736, Note_on_c, 0, 67, 101
1, 32736, Note_on_c, 0, 57, 117
1, 32737, Note_on_c, 9, 40, 97
1, 32738, Note_on_c, 9, 40, 0
1, 32738, Note_on_c, 9, 28, 91
1, 32739, Note_on_c, 9, 28, 0
1, 32740, Note_on_c, 2, 55, 99
1, 32741, Note_on_c, 4, 42, 127
1, 32742, Note_on_c, 6, 55, 99
1, 32744, Note_on_c, 4, 49, 127
1, 32748, Note_on_c, 1, 45, 0
1, 32754, Note_on_c, 0, 67, 0
1, 32756, Note_on_c, 0, 57, 0
1, 32756, Note_on_c, 0, 64, 0
1, 32764, Note_on_c, 0, 61, 0
1, 32772, Note_on_c, 6, 55, 0
1, 32772, Note_on_c, 2, 55, 0
1, 32784, Note_on_c, 1, 40, 117
1, 32785, Note_on_c, 9, 35, 68
1, 32786, Note_on_c, 9, 35, 0
1, 32789, Note_on_c, 4, 49, 0
1, 32789, Note_on_c, 9, 38, 27
1, 32790, Note_on_c, 9, 38, 0
1, 32790, Note_on_c, 4, 42, 0
1, 32805, Note_on_c, 1, 40, 0
1, 32832, Note_on_c, 1, 43, 123
1, 32833, Note_on_c, 9, 38, 52
1, 32833, Note_on_c, 9, 35, 110
1, 32834, Note_on_c, 2, 54, 94
1, 32835, Note_on_c, 9, 35, 0
1, 32835, Note_on_c, 9, 38, 0
1, 32835, Note_on_c, 6, 54, 94
1, 32836, Note_on_c, 4, 40, 127
1, 32885, Note_on_c, 9, 38, 47
1, 32886, Note_on_c, 9, 38, 0
1, 32887, Note_on_c, 1, 43, 0
1, 32893, Note_on_c, 4, 40, 0
1, 32922, Note_on_c, 6, 54, 0
1, 32923, Note_on_c, 2, 54, 0
1, 32927, Note_on_c, 0, 61, 117
1, 32927, Note_on_c, 0, 64, 117
1, 32928, Note_on_c, 0, 57, 117
1, 32928, Note_on_c, 1, 40, 127
1, 32928, Note_on_c, 9, 40, 96
1, 32929, Note_on_c, 0, 67, 83
1, 32930, Note_on_c, 9, 40, 0
1, 32930, Note_on_c, 2, 52, 95
1, 32930, Note_on_c, 9, 28, 92
1, 32931, Note_on_c, 9, 28, 0
1, 32931, Note_on_c, 6, 52, 95
1, 32932, Note_on_c, 4, 42, 127
1, 32935, Note_on_c, 4, 49, 127
1, 32949, Note_on_c, 0, 67, 0
1, 32954, Note_on_c, 0, 64, 0
1, 32955, Note_on_c, 6, 52, 0
1, 32956, Note_on_c, 2, 52, 0
1, 32957, Note_on_c, 0, 61, 0
1, 32958, Note_on_c, 0, 57, 0
1, 32966, Note_on_c, 4, 42, 0
1, 32968, Note_on_c, 4, 49, 0
1, 32973, Pitch_bend_c, 6, 2520
1, 32974, Pitch_bend_c, 2, 2520
1, 32976, Note_on_c, 1, 40, 0
1, 32977, Note_on_c, 2, 52, 127
1, 32978, Note_on_c, 6, 52, 127
1, 32981, Note_on_c, 9, 38, 23
1, 32982, Note_on_c, 9, 38, 0
1, 32984, Note_on_c, 4, 45, 127
1, 32988, Pitch_bend_c, 2, 2940
1, 32988, Note_on_c, 4, 57, 127
1, 32988, Pitch_bend_c, 6, 2940
1, 32996, Pitch_bend_c, 2, 2912
1, 32996, Pitch_bend_c, 6, 2912
1, 33002, Pitch_bend_c, 2, 3136
1, 33002, Pitch_bend_c, 6, 3136
1, 33003, Pitch_bend_c, 6, 3488
1, 33004, Pitch_bend_c, 2, 3488
1, 33008, Pitch_bend_c, 2, 4320
1, 33008, Pitch_bend_c, 6, 4320
1, 33010, Pitch_bend_c, 6, 5408
1, 33011, Pitch_bend_c, 2, 4896
1, 33013, Pitch_bend_c, 2, 5408
1, 33017, Pitch_bend_c, 2, 5888
1, 33017, Pitch_bend_c, 6, 5888
1, 33018, Pitch_bend_c, 6, 6368
1, 33019, Pitch_bend_c, 2, 6368
1, 33021, Note_on_c, 4, 57, 0
1, 33021, Pitch_bend_c, 6, 7168
1, 33022, Pitch_bend_c, 2, 6816
1, 33023, Note_on_c, 4, 45, 0
1, 33023, Pitch_bend_c, 2, 7168
1, 33024, Note_on_c, 1, 33, 124
1, 33025, Pitch_bend_c, 6, 7456
1, 33025, Note_on_c, 9, 38, 43
1, 33026, Pitch_bend_c, 2, 7456
1, 33026, Note_on_c, 9, 35, 111
1, 33027, Note_on_c, 6, 52, 0
1, 33028, Note_on_c, 9, 38, 0
1, 33028, Note_on_c, 2, 52, 0
1, 33028, Note_on_c, 9, 35, 0
1, 33029, Pitch_bend_c, 6, 7904
1, 33030, Pitch_bend_c, 2, 7680
1, 33031, Note_on_c, 4, 45, 127
1, 33032, Pitch_bend_c, 2, 7904
1, 33033, Pitch_bend_c, 6, 8160
1, 33034, Pitch_bend_c, 2, 8064
1, 33035, Pitch_bend_c, 2, 8160
1, 33068, Note_on_c, 4, 45, 0
1, 33071, Pitch_bend_c, 2, 8192
1, 33071, Pitch_bend_c, 6, 8192
1, 33076, Note_on_c, 2, 49, 101
1, 33076, Note_on_c, 6, 49, 101
1, 33077, Note_on_c, 9, 38, 45
1, 33078, Note_on_c, 9, 38, 0
1, 33079, Note_on_c, 4, 42, 127
1, 33083, Note_on_c, 4, 57, 127
1, 33098, Note_on_c, 6, 49, 0
1, 33099, Note_on_c, 2, 49, 0
1, 33112, Note_on_c, 4, 42, 0
1, 33116, Note_on_c, 4, 57, 0
1, 33119, Note_on_c, 0, 61, 117
1, 33120, Note_on_c, 0, 64, 117
1, 33120, Note_on_c, 0, 57, 117
1, 33120, Note_on_c, 9, 40, 98
1, 33121, Note_on_c, 0, 67, 102
1, 33122, Note_on_c, 9, 40, 0
1, 33122, Note_on_c, 9, 28, 94
1, 33123, Note_on_c, 9, 28, 0
1, 33124, Note_on_c, 4, 42, 127
1, 33125, Note_on_c, 2, 50, 111
1, 33126, Note_on_c, 6, 50, 111
1, 33127, Note_on_c, 1, 33, 0
1, 33128, Note_on_c, 4, 49, 127
1, 33141, Note_on_c, 0, 67, 0
1, 33148, Note_on_c, 0, 64, 0
1, 33151, Note_on_c, 0, 61, 0
1, 33152, Note_on_c, 0, 57, 0
1, 33170, Note_on_c, 4, 42, 0
1, 33173, Note_on_c, 4, 49, 0
1, 33173, Note_on_c, 9, 38, 25
1, 33174, Note_on_c, 9, 38, 0
1, 33182, Control_c, 6, 1, 12
1, 33183, Control_c, 2, 1, 5
1, 33184, Control_c, 2, 1, 12
1, 33187, Control_c, 2, 1, 21
1, 33187, Control_c, 6, 1, 21
1, 33189, Control_c, 6, 1, 37
1, 33190, Control_c, 2, 1, 30
1, 33191, Control_c, 2, 1, 37
1, 33194, Control_c, 2, 1, 44
1, 33194, Control_c, 6, 1, 51
1, 33196, Control_c, 2, 1, 51
1, 33199, Control_c, 2, 1, 59
1, 33199, Control_c, 6, 1, 66
1, 33201, Control_c, 2, 1, 66
1, 33203, Control_c, 2, 1, 72
1, 33203, Control_c, 6, 1, 75
1, 33206, Control_c, 2, 1, 75
1, 33209, Control_c, 6, 1, 73
1, 33210, Control_c, 2, 1, 73
1, 33211, Note_on_c, 6, 50, 0
1, 33212, Note_on_c, 2, 50, 0
1, 33212, Control_c, 2, 1, 65
1, 33212, Control_c, 6, 1, 33
1, 33213, Control_c, 2, 1, 51
1, 33216, Note_on_c, 1, 43, 127
1, 33216, Control_c, 2, 1, 33
1, 33217, Note_on_c, 2, 50, 97
1, 33217, Note_on_c, 9, 38, 54
1, 33218, Note_on_c, 6, 50, 97
1, 33218, Note_on_c, 9, 35, 110
1, 33219, Note_on_c, 9, 35, 0
1, 33219, Note_on_c, 9, 38, 0
1, 33219, Control_c, 6, 1, 5
1, 33220, Control_c, 2, 1, 16
1, 33221, Note_on_c, 4, 43, 127
1, 33222, Control_c, 2, 1, 5
1, 33223, Control_c, 6, 1, 0
1, 33224, Control_c, 2, 1, 0
1, 33259, Note_on_c, 6, 50, 0
1, 33259, Note_on_c, 2, 50, 0
1, 33265, Note_on_c, 4, 43, 0
1, 33266, Note_on_c, 2, 49, 97
1, 33266, Note_on_c, 6, 49, 97
1, 33267, Note_on_c, 1, 43, 0
1, 33269, Note_on_c, 9, 38, 45
1, 33270, Note_on_c, 9, 38, 0
1, 33308, Note_on_c, 6, 49, 0
1, 33308, Note_on_c, 2, 49, 0
1, 33311, Note_on_c, 0, 61, 117
1, 33312, Note_on_c, 0, 57, 117
1, 33312, Note_on_c, 0, 64, 114
1, 33312, Note_on_c, 0, 67, 95
1, 33312, Note_on_c, 1, 42, 127
1, 33313, Note_on_c, 2, 50, 116
1, 33313, Note_on_c, 9, 40, 97
1, 33313, Note_on_c, 9, 28, 90
1, 33314, Note_on_c, 9, 40, 0
1, 33314, Note_on_c, 6, 50, 116
1, 33315, Note_on_c, 9, 28, 0
1, 33315, Note_on_c, 4, 42, 127
1, 33316, Note_on_c, 4, 49, 127
1, 33338, Note_on_c, 0, 67, 0
1, 33341, Note_on_c, 0, 64, 0
1, 33343, Note_on_c, 0, 61, 0
1, 33345, Note_on_c, 0, 57, 0
1, 33358, Note_on_c, 1, 42, 0
1, 33365, Note_on_c, 4, 42, 0
1, 33365, Note_on_c, 9, 38, 25
1, 33366, Note_on_c, 9, 38, 0
1, 33366, Note_on_c, 4, 49, 0
1, 33395, Pitch_bend_c, 2, 8128
1, 33395, Pitch_bend_c, 6, 8128
1, 33396, Pitch_bend_c, 2, 7936
1, 33396, Pitch_bend_c, 6, 7936
1, 33399, Note_on_c, 2, 50, 0
1, 33399, Note_on_c, 6, 50, 0
1, 33400, Pitch_bend_c, 2, 7680
1, 33400, Pitch_bend_c, 6, 7328
1, 33401, Pitch_bend_c, 2, 7328
1, 33402, Pitch_bend_c, 6, 6944
1, 33403, Pitch_bend_c, 2, 6944
1, 33406, Pitch_bend_c, 2, 6560
1, 33406, Pitch_bend_c, 6, 6144
1, 33407, Note_on_c, 2, 50, 117
1, 33408, Note_on_c, 1, 45, 124
1, 33408, Note_on_c, 6, 50, 117
1, 33409, Pitch_bend_c, 2, 6144
1, 33409, Note_on_c, 9, 38, 53
1, 33410, Pitch_bend_c, 6, 5856
1, 33410, Note_on_c, 9, 35, 111
1, 33411, Pitch_bend_c, 2, 5856
1, 33412, Note_on_c, 9, 35, 0
1, 33412, Note_on_c, 9, 38, 0
1, 33412, Note_on_c, 4, 45, 127
1, 33413, Pitch_bend_c, 6, 5376
1, 33414, Pitch_bend_c, 2, 5600
1, 33415, Pitch_bend_c, 2, 5376
1, 33416, Pitch_bend_c, 6, 5152
1, 33417, Pitch_bend_c, 2, 5152
1, 33420, Pitch_bend_c, 6, 4928
1, 33421, Pitch_bend_c, 2, 4992
1, 33423, Pitch_bend_c, 2, 4928
1, 33425, Pitch_bend_c, 6, 4992
1, 33426, Pitch_bend_c, 2, 4992
1, 33428, Pitch_bend_c, 2, 5152
1, 33428, Pitch_bend_c, 6, 5152
1, 33429, Pitch_bend_c, 6, 5888
1, 33430, Pitch_bend_c, 2, 5472
1, 33432, Pitch_bend_c, 2, 6496
1, 33433, Pitch_bend_c, 2, 5888
1, 33436, Pitch_bend_c, 2, 7168
1, 33436, Pitch_bend_c, 6, 7168
1, 33439, Pitch_bend_c, 2, 7680
1, 33439, Pitch_bend_c, 6, 7680
1, 33441, Pitch_bend_c, 2, 8064
1, 33441, Pitch_bend_c, 6, 8064
1, 33444, Pitch_bend_c, 6, 8192
1, 33445, Pitch_bend_c, 2, 8192
1, 33448, Note_on_c, 6, 50, 0
1, 33448, Note_on_c, 2, 50, 0
1, 33455, Note_on_c, 4, 45, 0
1, 33458, Note_on_c, 2, 49, 106
1, 33458, Note_on_c, 6, 49, 106
1, 33461, Note_on_c, 9, 38, 42
1, 33462, Note_on_c, 9, 38, 0
1, 33498, Note_on_c, 6, 49, 0
1, 33499, Note_on_c, 2, 49, 0
1, 33503, Note_on_c, 0, 61, 117
1, 33503, Note_on_c, 0, 57, 117
1, 33504, Note_on_c, 0, 64, 110
1, 33504, Note_on_c, 9, 40, 97
1, 33505, Note_on_c, 0, 67, 95
1, 33505, Note_on_c, 9, 28, 91
1, 33506, Note_on_c, 9, 40, 0
1, 33506, Note_on_c, 2, 45, 107
1, 33507, Note_on_c, 9, 28, 0
1, 33507, Note_on_c, 6, 45, 107
1, 33508, Note_on_c, 4, 42, 127
1, 33512, Note_on_c, 4, 49, 127
1, 33515, Note_on_c, 1, 45, 0
1, 33531, Note_on_c, 0, 67, 0
1, 33532, Note_on_c, 0, 64, 0
1, 33536, Note_on_c, 0, 61, 0
1, 33538, Note_on_c, 0, 57, 0
1, 33547, Note_on_c, 2, 45, 0
1, 33547, Note_on_c, 6, 45, 0
1, 33552, Note_on_c, 1, 40, 121
1, 33553, Note_on_c, 9, 35, 68
1, 33554, Note_on_c, 9, 35, 0
1, 33554, Note_on_c, 2, 43, 97
1, 33555, Note_on_c, 6, 43, 97
1, 33556, Note_on_c, 4, 49, 0
1, 33557, Note_on_c, 4, 42, 0
1, 33557, Note_on_c, 9, 38, 27
1, 33558, Note_on_c, 9, 38, 0
1, 33577, Note_on_c, 1, 40, 0
1, 33594, Note_on_c, 6, 43, 0
1, 33595, Note_on_c, 2, 43, 0
1, 33600, Note_on_c, 1, 43, 127
1, 33601, Note_on_c, 2, 45, 97
1, 33601, Note_on_c, 9, 38, 52
1, 33602, Note_on_c, 6, 45, 97
1, 33602, Note_on_c, 9, 35, 110
1, 33603, Note_on_c, 9, 35, 0
1, 33603, Note_on_c, 4, 40, 127
1, 33604, Note_on_c, 9, 38, 0
1, 33652, Note_on_c, 9, 38, 47
1, 33654, Note_on_c, 9, 38, 0
1, 33654, Note_on_c, 1, 43, 0
1, 33660, Note_on_c, 4, 40, 0
1, 33689, Note_on_c, 6, 45, 0
1, 33689, Note_on_c, 2, 45, 0
1, 33695, Note_on_c, 0, 61, 117
1, 33696, Note_on_c, 0, 64, 114
1, 33696, Note_on_c, 0, 57, 113
1, 33696, Note_on_c, 1, 40, 127
1, 33697, Note_on_c, 0, 67, 99
1, 33697, Note_on_c, 9, 40, 96
1, 33698, Note_on_c, 2, 45, 107
1, 33698, Note_on_c, 9, 28, 92
1, 33699, Note_on_c, 9, 40, 0
1, 33699, Note_on_c, 6, 45, 107
1, 33700, Note_on_c, 9, 28, 0
1, 33700, Note_on_c, 4, 42, 127
1, 33703, Note_on_c, 4, 49, 127
1, 33724, Note_on_c, 0, 67, 0
1, 33731, Note_on_c, 0, 57, 0
1, 33731, Note_on_c, 0, 64, 0
1, 33732, Note_on_c, 0, 61, 0
1, 33733, Note_on_c, 4, 42, 0
1, 33736, Note_on_c, 4, 49, 0
1, 33739, Note_on_c, 2, 45, 0
1, 33739, Note_on_c, 6, 45, 0
1, 33747, Note_on_c, 1, 40, 0
1, 33748, Note_on_c, 2, 43, 97
1, 33749, Note_on_c, 6, 43, 97
1, 33749, Note_on_c, 9, 38, 23
1, 33750, Note_on_c, 9, 38, 0
1, 33753, Note_on_c, 4, 45, 127
1, 33754, Note_on_c, 4, 57, 127
1, 33789, Note_on_c, 6, 43, 0
1, 33790, Note_on_c, 2, 43, 0
1, 33790, Note_on_c, 4, 57, 0
1, 33791, Note_on_c, 4, 45, 0
1, 33792, Note_on_c, 1, 33, 127
1, 33793, Note_on_c, 2, 49, 107
1, 33793, Note_on_c, 9, 38, 43
1, 33794, Note_on_c, 6, 49, 107
1, 33794, Note_on_c, 9, 35, 111
1, 33796, Note_on_c, 9, 35, 0
1, 33796, Note_on_c, 9, 38, 0
1, 33797, Note_on_c, 4, 45, 127
1, 33835, Note_on_c, 6, 49, 0
1, 33835, Note_on_c, 2, 49, 0
1, 33836, Note_on_c, 4, 45, 0
1, 33842, Note_on_c, 2, 52, 108
1, 33843, Note_on_c, 6, 52, 108
1, 33845, Note_on_c, 9, 38, 45
1, 33847, Note_on_c, 9, 38, 0
1, 33847, Note_on_c, 4, 42, 127
1, 33850, Note_on_c, 4, 57, 127
1, 33880, Note_on_c, 4, 42, 0
1, 33883, Note_on_c, 6, 52, 0
1, 33884, Note_on_c, 4, 57, 0
1, 33884, Note_on_c, 2, 52, 0
1, 33888, Note_on_c, 0, 61, 117
1, 33888, Note_on_c, 0, 67, 104
1, 33888, Note_on_c, 0, 64, 117
1, 33888, Note_on_c, 0, 57, 117
1, 33888, Note_on_c, 9, 40, 98
1, 33890, Note_on_c, 9, 40, 0
1, 33890, Note_on_c, 2, 57, 127
1, 33890, Note_on_c, 9, 28, 94
1, 33891, Note_on_c, 9, 28, 0
1, 33891, Note_on_c, 6, 57, 127
1, 33892, Note_on_c, 4, 42, 127
1, 33896, Note_on_c, 4, 49, 127
1, 33899, Note_on_c, 1, 33, 0
1, 33917, Note_on_c, 0, 64, 0
1, 33917, Note_on_c, 0, 67, 0
1, 33919, Note_on_c, 0, 57, 0
1, 33920, Note_on_c, 0, 61, 0
1, 33938, Note_on_c, 4, 42, 0
1, 33941, Note_on_c, 4, 49, 0
1, 33941, Note_on_c, 9, 38, 25
1, 33942, Note_on_c, 9, 38, 0
1, 33981, Note_on_c, 6, 57, 0
1, 33982, Note_on_c, 2, 57, 0
1, 33984, Note_on_c, 1, 43, 126
1, 33985, Note_on_c, 2, 57, 115
1, 33985, Note_on_c, 9, 38, 54
1, 33985, Note_on_c, 9, 35, 110
1, 33986, Note_on_c, 6, 57, 115
1, 33987, Note_on_c, 9, 35, 0
1, 33987, Note_on_c, 9, 38, 0
1, 33987, Note_on_c, 4, 43, 127
1, 34022, Note_on_c, 6, 57, 0
1, 34022, Note_on_c, 2, 57, 0
1, 34033, Note_on_c, 4, 43, 0
1, 34035, Note_on_c, 2, 55, 100
1, 34036, Note_on_c, 6, 55, 100
1, 34037, Note_on_c, 9, 38, 45
1, 34038, Note_on_c, 9, 38, 0
1, 34044, Note_on_c, 1, 43, 0
1, 34077, Note_on_c, 1, 42, 124
1, 34078, Note_on_c, 9, 40, 97
1, 34079, Note_on_c, 0, 61, 117
1, 34079, Note_on_c, 9, 28, 90
1, 34080, Note_on_c, 9, 40, 0
1, 34080, Note_on_c, 0, 57, 117
1, 34081, Note_on_c, 9, 28, 0
1, 34081, Note_on_c, 0, 67, 107
1, 34082, Note_on_c, 0, 64, 113
1, 34083, Note_on_c, 2, 52, 101
1, 34083, Note_on_c, 6, 52, 101
1, 34084, Note_on_c, 4, 42, 127
1, 34085, Note_on_c, 6, 55, 0
1, 34086, Note_on_c, 2, 55, 0
1, 34087, Note_on_c, 4, 49, 127
1, 34098, Pitch_bend_c, 2, 8160
1, 34098, Pitch_bend_c, 6, 8160
1, 34099, Pitch_bend_c, 6, 7680
1, 34100, Pitch_bend_c, 2, 7680
1, 34103, Pitch_bend_c, 6, 6720
1, 34104, Pitch_bend_c, 2, 6720
1, 34110, Note_on_c, 0, 64, 0
1, 34112, Pitch_bend_c, 2, 5881
1, 34112, Pitch_bend_c, 6, 5881
1, 34113, Note_on_c, 0, 57, 0
1, 34114, Note_on_c, 0, 61, 0
1, 34114, Note_on_c, 0, 67, 0
1, 34117, Pitch_bend_c, 2, 5041
1, 34117, Pitch_bend_c, 6, 5041
1, 34130, Pitch_bend_c, 2, 4200
1, 34130, Pitch_bend_c, 6, 4200
1, 34133, Note_on_c, 4, 42, 0
1, 34133, Note_on_c, 9, 38, 25
1, 34134, Note_on_c, 9, 38, 0
1, 34134, Note_on_c, 4, 49, 0
1, 34137, Note_on_c, 1, 42, 0
1, 34173, Note_on_c, 6, 52, 0
1, 34173, Note_on_c, 2, 52, 0
1, 34176, Note_on_c, 1, 45, 121
1, 34176, Pitch_bend_c, 6, 8192
1, 34177, Pitch_bend_c, 2, 8192
1, 34177, Note_on_c, 9, 38, 53
1, 34178, Note_on_c, 2, 57, 127
1, 34178, Note_on_c, 9, 35, 111
1, 34179, Note_on_c, 6, 57, 127
1, 34180, Note_on_c, 9, 35, 0
1, 34180, Note_on_c, 9, 38, 0
1, 34180, Note_on_c, 4, 45, 127
1, 34213, Note_on_c, 6, 57, 0
1, 34214, Note_on_c, 2, 57, 0
1, 34223, Note_on_c, 4, 45, 0
1, 34229, Note_on_c, 9, 38, 42
1, 34230, Note_on_c, 9, 38, 0
1, 34270, Note_on_c, 0, 61, 117
1, 34271, Note_on_c, 0, 57, 117
1, 34272, Note_on_c, 0, 64, 110
1, 34272, Note_on_c, 9, 40, 97
1, 34273, Note_on_c, 0, 67, 89
1, 34274, Note_on_c, 9, 40, 0
1, 34274, Note_on_c, 9, 28, 91
1, 34275, Note_on_c, 9, 28, 0
1, 34276, Note_on_c, 4, 42, 127
1, 34280, Note_on_c, 4, 49, 127
1, 34287, Note_on_c, 1, 45, 0
1, 34303, Note_on_c, 0, 67, 0
1, 34305, Note_on_c, 0, 57, 0
1, 34305, Note_on_c, 0, 64, 0
1, 34307, Note_on_c, 0, 61, 0
1, 34320, Note_on_c, 1, 40, 119
1, 34321, Note_on_c, 9, 35, 68
1, 34322, Note_on_c, 9, 35, 0
1, 34325, Note_on_c, 4, 49, 0
1, 34325, Note_on_c, 9, 38, 27
1, 34326, Note_on_c, 9, 38, 0
1, 34326, Note_on_c, 4, 42, 0
1, 34345, Note_on_c, 1, 40, 0
1, 34368, Note_on_c, 1, 43, 116
1, 34369, Note_on_c, 9, 38, 52
1, 34369, Note_on_c, 9, 35, 110
1, 34371, Note_on_c, 9, 35, 0
1, 34371, Note_on_c, 9, 38, 0
1, 34372, Note_on_c, 4, 40, 127
1, 34421, Note_on_c, 9, 38, 47
1, 34422, Note_on_c, 9, 38, 0
1, 34425, Note_on_c, 1, 43, 0
1, 34429, Note_on_c, 4, 40, 0
1, 34463, Note_on_c, 0, 61, 117
1, 34463, Note_on_c, 0, 57, 105
1, 34464, Note_on_c, 0, 64, 117
1, 34464, Note_on_c, 1, 40, 127
1, 34465, Note_on_c, 0, 67, 107
1, 34465, Note_on_c, 9, 40, 96
1, 34466, Note_on_c, 9, 40, 0
1, 34466, Note_on_c, 9, 28, 92
1, 34467, Note_on_c, 9, 28, 0
1, 34468, Note_on_c, 4, 42, 127
1, 34471, Note_on_c, 4, 49, 127
1, 34494, Note_on_c, 0, 67, 0
1, 34494, Note_on_c, 0, 57, 0
1, 34496, Note_on_c, 0, 64, 0
1, 34500, Note_on_c, 0, 61, 0
1, 34502, Note_on_c, 4, 42, 0
1, 34504, Note_on_c, 4, 49, 0
1, 34516, Note_on_c, 9, 38, 23
1, 34519, Note_on_c, 9, 38, 0
1, 34521, Note_on_c, 1, 40, 0
1, 34521, Note_on_c, 4, 45, 127
1, 34523, Note_on_c, 4, 57, 127
1, 34557, Note_on_c, 4, 57, 0
1, 34558, Note_on_c, 4, 45, 0
1, 34560, Note_on_c, 1, 33, 123
1, 34561, Note_on_c, 9, 38, 43
1, 34562, Note_on_c, 9, 35, 111
1, 34564, Note_on_c, 9, 35, 0
1, 34564, Note_on_c, 9, 38, 0
1, 34565, Note_on_c, 4, 45, 127
1, 34604, Note_on_c, 4, 45, 0
1, 34608, Note_on_c, 2, 64, 87
1, 34608, Note_on_c, 6, 64, 87
1, 34613, Note_on_c, 9, 38, 45
1, 34614, Note_on_c, 9, 38, 0
1, 34615, Note_on_c, 4, 42, 127
1, 34617, Note_on_c, 4, 57, 127
1, 34648, Note_on_c, 4, 42, 0
1, 34652, Note_on_c, 4, 57, 0
1, 34654, Note_on_c, 2, 73, 107
1, 34654, Note_on_c, 6, 73, 107
1, 34655, Note_on_c, 0, 61, 117
1, 34656, Note_on_c, 0, 67, 104
1, 34657, Note_on_c, 0, 57, 117
1, 34657, Note_on_c, 9, 40, 98
1, 34658, Note_on_c, 9, 40, 0
1, 34658, Note_on_c, 0, 64, 117
1, 34658, Note_on_c, 9, 28, 94
1, 34659, Note_on_c, 9, 28, 0
1, 34659, Note_on_c, 6, 64, 0
1, 34660, Note_on_c, 2, 64, 0
1, 34661, Note_on_c, 4, 42, 127
1, 34663, Note_on_c, 4, 49, 127
1, 34671, Note_on_c, 1, 33, 0
1, 34686, Note_on_c, 0, 64, 0
1, 34689, Note_on_c, 0, 61, 0
1, 34691, Note_on_c, 0, 67, 0
1, 34691, Note_on_c, 0, 57, 0
1, 34704, Note_on_c, 2, 64, 69
1, 34704, Note_on_c, 6, 64, 69
1, 34706, Note_on_c, 4, 42, 0
1, 34709, Note_on_c, 6, 73, 0
1, 34709, Note_on_c, 9, 38, 25
1, 34710, Note_on_c, 9, 38, 0
1, 34710, Note_on_c, 4, 49, 0
1, 34711, Note_on_c, 2, 73, 0
1, 34740, Note_on_c, 2, 64, 0
1, 34751, Note_on_c, 1, 43, 127
1, 34751, Note_on_c, 2, 71, 100
1, 34752, Note_on_c, 6, 71, 100
1, 34753, Note_on_c, 6, 64, 0
1, 34753, Note_on_c, 9, 38, 54
1, 34754, Note_on_c, 9, 35, 110
1, 34755, Note_on_c, 9, 35, 0
1, 34755, Note_on_c, 4, 43, 127
1, 34756, Note_on_c, 9, 38, 0
1, 34801, Note_on_c, 6, 71, 0
1, 34802, Note_on_c, 4, 43, 0
1, 34802, Note_on_c, 2, 71, 0
1, 34803, Note_on_c, 2, 64, 59
1, 34804, Note_on_c, 6, 64, 49
1, 34805, Note_on_c, 9, 38, 45
1, 34806, Note_on_c, 9, 38, 0
1, 34809, Note_on_c, 1, 43, 0
1, 34837, Note_on_c, 6, 64, 0
1, 34837, Note_on_c, 2, 64, 0
1, 34846, Note_on_c, 0, 61, 117
1, 34847, Note_on_c, 0, 67, 104
1, 34847, Note_on_c, 1, 42, 124
1, 34848, Note_on_c, 0, 64, 117
1, 34849, Note_on_c, 0, 57, 117
1, 34849, Note_on_c, 9, 40, 97
1, 34849, Note_on_c, 9, 28, 90
1, 34850, Note_on_c, 9, 40, 0
1, 34850, Note_on_c, 2, 69, 105
1, 34851, Note_on_c, 9, 28, 0
1, 34851, Note_on_c, 6, 69, 105
1, 34852, Note_on_c, 4, 42, 127
1, 34853, Note_on_c, 4, 49, 127
1, 34880, Note_on_c, 0, 64, 0
1, 34882, Note_on_c, 0, 67, 0
1, 34884, Note_on_c, 0, 57, 0
1, 34887, Note_on_c, 0, 61, 0
1, 34895, Note_on_c, 2, 69, 0
1, 34895, Note_on_c, 6, 69, 0
1, 34897, Note_on_c, 2, 66, 101
1, 34898, Note_on_c, 6, 66, 101
1, 34900, Note_on_c, 9, 38, 25
1, 34901, Note_on_c, 9, 38, 0
1, 34901, Note_on_c, 4, 42, 0
1, 34903, Note_on_c, 4, 49, 0
1, 34905, Note_on_c, 1, 42, 0
1, 34944, Note_on_c, 1, 45, 124
1, 34945, Note_on_c, 9, 38, 53
1, 34946, Note_on_c, 9, 35, 111
1, 34947, Note_on_c, 4, 45, 127
1, 34948, Note_on_c, 9, 35, 0
1, 34948, Note_on_c, 9, 38, 0
1, 34968, Note_on_c, 6, 66, 0
1, 34988, Note_on_c, 2, 66, 0
1, 34992, Note_on_c, 4, 45, 0
1, 34994, Note_on_c, 2, 64, 105
1, 34995, Note_on_c, 6, 64, 105
1, 34997, Note_on_c, 9, 38, 42
1, 34998, Note_on_c, 9, 38, 0
1, 35038, Note_on_c, 0, 61, 116
1, 35039, Note_on_c, 0, 67, 96
1, 35040, Note_on_c, 0, 57, 107
1, 35040, Note_on_c, 9, 40, 97
1, 35041, Note_on_c, 0, 64, 107
1, 35042, Note_on_c, 6, 64, 0
1, 35042, Note_on_c, 9, 28, 91
1, 35043, Note_on_c, 9, 40, 0
1, 35043, Note_on_c, 2, 64, 0
1, 35044, Note_on_c, 9, 28, 0
1, 35044, Note_on_c, 2, 61, 95
1, 35045, Note_on_c, 6, 61, 95
1, 35046, Note_on_c, 4, 42, 127
1, 35048, Note_on_c, 4, 49, 127
1, 35049, Note_on_c, 1, 45, 0
1, 35065, Note_on_c, 0, 57, 0
1, 35067, Note_on_c, 0, 64, 0
1, 35071, Note_on_c, 0, 61, 0
1, 35072, Note_on_c, 0, 67, 0
1, 35088, Note_on_c, 6, 61, 0
1, 35088, Note_on_c, 2, 61, 0
1, 35088, Note_on_c, 1, 40, 123
1, 35089, Note_on_c, 9, 35, 68
1, 35090, Note_on_c, 9, 35, 0
1, 35090, Note_on_c, 2, 57, 95
1, 35091, Note_on_c, 6, 57, 95
1, 35092, Note_on_c, 4, 49, 0
1, 35092, Note_on_c, 9, 38, 27
1, 35093, Note_on_c, 4, 42, 0
1, 35094, Note_on_c, 9, 38, 0
1, 35111, Note_on_c, 1, 40, 0
1, 35134, Pitch_bend_c, 2, 16383
1, 35134, Pitch_bend_c, 6, 16383
1, 35136, Note_on_c, 1, 43, 123
1, 35136, Note_on_c, 2, 62, 127
1, 35136, Note_on_c, 6, 62, 127
1, 35137, Note_on_c, 6, 57, 0
1, 35137, Note_on_c, 9, 38, 52
1, 35137, Note_on_c, 9, 35, 110
1, 35138, Note_on_c, 2, 57, 0
1, 35139, Note_on_c, 9, 38, 0
1, 35139, Note_on_c, 9, 35, 0
1, 35139, Note_on_c, 4, 40, 127
1, 35189, Note_on_c, 9, 38, 47
1, 35190, Note_on_c, 9, 38, 0
1, 35191, Pitch_bend_c, 6, 13022
1, 35192, Pitch_bend_c, 2, 13022
1, 35193, Note_on_c, 1, 43, 0
1, 35197, Note_on_c, 4, 40, 0
1, 35200, Pitch_bend_c, 2, 10082
1, 35200, Pitch_bend_c, 6, 10082
1, 35201, Pitch_bend_c, 6, 8192
1, 35202, Pitch_bend_c, 2, 8192
1, 35231, Note_on_c, 0, 61, 117
1, 35231, Note_on_c, 0, 67, 107
1, 35232, Note_on_c, 0, 57, 117
1, 35232, Note_on_c, 1, 40, 127
1, 35233, Note_on_c, 0, 64, 116
1, 35233, Note_on_c, 9, 40, 96
1, 35234, Note_on_c, 9, 40, 0
1, 35234, Note_on_c, 6, 62, 0
1, 35234, Note_on_c, 9, 28, 92
1, 35235, Note_on_c, 9, 28, 0
1, 35235, Note_on_c, 2, 62, 0
1, 35236, Note_on_c, 2, 61, 105
1, 35237, Note_on_c, 6, 61, 105
1, 35238, Note_on_c, 4, 42, 127
1, 35239, Note_on_c, 4, 49, 127
1, 35263, Note_on_c, 0, 64, 0
1, 35265, Note_on_c, 0, 67, 0
1, 35265, Note_on_c, 0, 57, 0
1, 35267, Note_on_c, 0, 61, 0
1, 35270, Note_on_c, 4, 42, 0
1, 35272, Note_on_c, 4, 49, 0
1, 35280, Note_on_c, 2, 61, 0
1, 35280, Note_on_c, 6, 61, 0
1, 35282, Note_on_c, 2, 57, 87
1, 35283, Note_on_c, 6, 57, 87
1, 35285, Note_on_c, 9, 38, 23
1, 35286, Note_on_c, 9, 38, 0
1, 35289, Note_on_c, 1, 40, 0
1, 35289, Note_on_c, 4, 45, 127
1, 35290, Note_on_c, 4, 57, 127
1, 35325, Note_on_c, 4, 57, 0
1, 35327, Note_on_c, 4, 45, 0
1, 35327, Note_on_c, 1, 33, 126
1, 35328, Note_on_c, 2, 62, 125
1, 35328, Note_on_c, 6, 62, 125
1, 35329, Note_on_c, 6, 57, 0
1, 35329, Note_on_c, 9, 38, 43
1, 35330, Note_on_c, 2, 57, 0
1, 35330, Note_on_c, 9, 35, 111
1, 35332, Note_on_c, 9, 35, 0
1, 35332, Note_on_c, 9, 38, 0
1, 35333, Note_on_c, 4, 45, 127
1, 35372, Note_on_c, 4, 45, 0
1, 35375, Note_on_c, 6, 62, 0
1, 35375, Note_on_c, 2, 62, 0
1, 35378, Note_on_c, 2, 57, 95
1, 35378, Note_on_c, 6, 57, 95
1, 35381, Note_on_c, 9, 38, 45
1, 35382, Note_on_c, 9, 38, 0
1, 35382, Note_on_c, 4, 42, 127
1, 35386, Note_on_c, 4, 57, 127
1, 35416, Note_on_c, 4, 42, 0
1, 35420, Note_on_c, 4, 57, 0
1, 35423, Note_on_c, 0, 61, 117
1, 35424, Note_on_c, 0, 57, 117
1, 35424, Note_on_c, 0, 67, 110
1, 35424, Note_on_c, 9, 40, 98
1, 35425, Note_on_c, 0, 64, 117
1, 35425, Note_on_c, 9, 28, 94
1, 35426, Note_on_c, 9, 40, 0
1, 35426, Note_on_c, 6, 57, 0
1, 35427, Note_on_c, 9, 28, 0
1, 35427, Note_on_c, 2, 57, 0
1, 35428, Note_on_c, 4, 42, 127
1, 35431, Note_on_c, 4, 49, 127
1, 35436, Note_on_c, 1, 33, 0
1, 35455, Note_on_c, 0, 67, 0
1, 35456, Note_on_c, 0, 64, 0
1, 35458, Note_on_c, 0, 57, 0
1, 35459, Note_on_c, 0, 61, 0
1, 35473, Note_on_c, 4, 42, 0
1, 35474, Note_on_c, 2, 57, 95
1, 35475, Note_on_c, 6, 57, 95
1, 35477, Note_on_c, 4, 49, 0
1, 35477, Note_on_c, 9, 38, 25
1, 35478, Note_on_c, 9, 38, 0
1, 35519, Note_on_c, 1, 43, 127
1, 35521, Note_on_c, 9, 38, 54
1, 35521, Note_on_c, 9, 35, 110
1, 35523, Note_on_c, 9, 35, 0
1, 35523, Note_on_c, 9, 38, 0
1, 35524, Note_on_c, 4, 43, 127
1, 35565, Note_on_c, 6, 57, 0
1, 35566, Note_on_c, 2, 57, 0
1, 35567, Note_on_c, 2, 61, 125
1, 35568, Note_on_c, 6, 61, 125
1, 35569, Note_on_c, 4, 43, 0
1, 35571, Note_on_c, 1, 43, 0
1, 35573, Note_on_c, 9, 38, 45
1, 35574, Note_on_c, 9, 38, 0
1, 35600, Note_on_c, 2, 61, 0
1, 35600, Note_on_c, 6, 61, 0
1, 35614, Note_on_c, 0, 61, 117
1, 35615, Note_on_c, 0, 57, 117
1, 35616, Note_on_c, 0, 67, 110
1, 35616, Note_on_c, 1, 42, 124
1, 35617, Note_on_c, 0, 64, 117
1, 35617, Note_on_c, 9, 40, 97
1, 35618, Note_on_c, 9, 40, 0
1, 35618, Note_on_c, 2, 61, 95
1, 35618, Note_on_c, 9, 28, 90
1, 35619, Note_on_c, 9, 28, 0
1, 35619, Note_on_c, 6, 61, 95
1, 35620, Note_on_c, 4, 42, 127
1, 35621, Note_on_c, 4, 49, 127
1, 35644, Note_on_c, 0, 64, 0
1, 35647, Note_on_c, 0, 67, 0
1, 35651, Note_on_c, 0, 61, 0
1, 35653, Note_on_c, 0, 57, 0
1, 35659, Note_on_c, 6, 61, 0
1, 35660, Note_on_c, 2, 61, 0
1, 35664, Note_on_c, 2, 57, 105
1, 35664, Note_on_c, 6, 57, 105
1, 35669, Note_on_c, 4, 42, 0
1, 35669, Note_on_c, 9, 38, 25
1, 35670, Note_on_c, 9, 38, 0
1, 35670, Note_on_c, 1, 42, 0
1, 35671, Note_on_c, 4, 49, 0
1, 35694, Note_on_c, 6, 57, 0
1, 35695, Note_on_c, 2, 57, 0
1, 35712, Note_on_c, 1, 45, 121
1, 35712, Note_on_c, 2, 62, 127
1, 35712, Note_on_c, 6, 62, 127
1, 35713, Note_on_c, 9, 38, 53
1, 35714, Note_on_c, 9, 35, 111
1, 35715, Note_on_c, 4, 45, 127
1, 35716, Note_on_c, 9, 35, 0
1, 35716, Note_on_c, 9, 38, 0
1, 35742, Note_on_c, 6, 62, 0
1, 35743, Note_on_c, 2, 62, 0
1, 35757, Note_on_c, 2, 61, 90
1, 35758, Note_on_c, 6, 61, 90
1, 35760, Note_on_c, 4, 45, 0
1, 35765, Note_on_c, 9, 38, 42
1, 35766, Note_on_c, 9, 38, 0
1, 35787, Note_on_c, 6, 61, 0
1, 35788, Note_on_c, 2, 61, 0
1, 35807, Note_on_c, 0, 57, 117
1, 35807, Note_on_c, 0, 61, 117
1, 35808, Note_on_c, 0, 67, 110
1, 35808, Note_on_c, 9, 40, 97
1, 35809, Note_on_c, 0, 64, 117
1, 35809, Note_on_c, 9, 28, 91
1, 35810, Note_on_c, 9, 40, 0
1, 35811, Note_on_c, 9, 28, 0
1, 35812, Note_on_c, 4, 42, 127
1, 35816, Note_on_c, 4, 49, 127
1, 35821, Note_on_c, 1, 45, 0
1, 35833, Note_on_c, 0, 67, 0
1, 35836, Note_on_c, 0, 64, 0
1, 35843, Note_on_c, 0, 61, 0
1, 35844, Note_on_c, 0, 57, 0
1, 35856, Note_on_c, 1, 40, 126
1, 35857, Note_on_c, 9, 35, 68
1, 35858, Note_on_c, 9, 35, 0
1, 35861, Note_on_c, 4, 49, 0
1, 35861, Note_on_c, 9, 38, 27
1, 35862, Note_on_c, 9, 38, 0
1, 35862, Note_on_c, 4, 42, 0
1, 35881, Note_on_c, 1, 40, 0
1, 35881, Note_on_c, 9, 38, 27
1, 35882, Note_on_c, 9, 38, 0
1, 35904, Note_on_c, 1, 43, 126
1, 35905, Note_on_c, 9, 38, 52
1, 35905, Note_on_c, 9, 35, 110
1, 35907, Note_on_c, 9, 35, 0
1, 35907, Note_on_c, 9, 38, 0
1, 35908, Note_on_c, 4, 40, 127
1, 35951, Note_on_c, 2, 57, 125
1, 35952, Note_on_c, 6, 57, 125
1, 35957, Note_on_c, 9, 38, 47
1, 35959, Note_on_c, 9, 38, 0
1, 35960, Note_on_c, 1, 43, 0
1, 35965, Note_on_c, 4, 40, 0
1, 35982, Note_on_c, 2, 57, 0
1, 35982, Note_on_c, 6, 57, 0
1, 35999, Note_on_c, 0, 61, 117
1, 36000, Note_on_c, 0, 64, 117
1, 36000, Note_on_c, 0, 57, 117
1, 36000, Note_on_c, 1, 40, 127
1, 36001, Note_on_c, 0, 67, 102
1, 36001, Note_on_c, 9, 40, 96
1, 36002, Note_on_c, 9, 40, 0
1, 36002, Note_on_c, 9, 28, 92
1, 36003, Note_on_c, 9, 28, 0
1, 36003, Note_on_c, 4, 42, 127
1, 36007, Note_on_c, 4, 49, 127
1, 36031, Note_on_c, 0, 67, 0
1, 36035, Note_on_c, 0, 57, 0
1, 36035, Note_on_c, 0, 61, 0
1, 36036, Note_on_c, 0, 64, 0
1, 36038, Note_on_c, 4, 42, 0
1, 36040, Note_on_c, 4, 49, 0
1, 36052, Note_on_c, 9, 38, 23
1, 36053, Note_on_c, 9, 38, 0
1, 36054, Note_on_c, 1, 40, 0
1, 36057, Note_on_c, 4, 45, 127
1, 36059, Note_on_c, 4, 57, 127
1, 36093, Note_on_c, 4, 57, 0
1, 36094, Note_on_c, 4, 45, 0
1, 36096, Note_on_c, 1, 33, 127
1, 36097, Note_on_c, 9, 38, 43
1, 36098, Note_on_c, 2, 57, 125
1, 36098, Note_on_c, 9, 35, 111
1, 36099, Note_on_c, 6, 57, 125
1, 36100, Note_on_c, 9, 35, 0
1, 36100, Note_on_c, 9, 38, 0
1, 36100, Note_on_c, 4, 45, 127
1, 36140, Note_on_c, 4, 45, 0
1, 36149, Note_on_c, 9, 38, 45
1, 36150, Note_on_c, 9, 38, 0
1, 36150, Note_on_c, 4, 42, 127
1, 36153, Note_on_c, 4, 57, 127
1, 36184, Note_on_c, 4, 42, 0
1, 36188, Note_on_c, 4, 57, 0
1, 36190, Note_on_c, 0, 61, 116
1, 36191, Note_on_c, 0, 57, 117
1, 36192, Note_on_c, 0, 64, 117
1, 36192, Note_on_c, 9, 40, 98
1, 36193, Note_on_c, 0, 67, 104
1, 36193, Note_on_c, 9, 28, 94
1, 36194, Note_on_c, 9, 40, 0
1, 36195, Note_on_c, 9, 28, 0
1, 36195, Note_on_c, 4, 42, 127
1, 36200, Note_on_c, 4, 49, 127
1, 36204, Note_on_c, 6, 57, 0
1, 36204, Note_on_c, 2, 57, 0
1, 36206, Note_on_c, 1, 33, 0
1, 36220, Note_on_c, 0, 67, 0
1, 36221, Note_on_c, 0, 64, 0
1, 36223, Note_on_c, 0, 57, 0
1, 36229, Note_on_c, 0, 61, 0
1, 36242, Note_on_c, 2, 55, 95
1, 36242, Note_on_c, 6, 55, 95
1, 36243, Note_on_c, 4, 42, 0
1, 36245, Note_on_c, 4, 49, 0
1, 36245, Note_on_c, 9, 38, 25
1, 36246, Note_on_c, 9, 38, 0
1, 36286, Note_on_c, 6, 55, 0
1, 36287, Note_on_c, 2, 55, 0
1, 36287, Note_on_c, 2, 57, 95
1, 36288, Note_on_c, 1, 43, 127
1, 36288, Note_on_c, 6, 57, 95
1, 36289, Note_on_c, 9, 38, 54
1, 36290, Note_on_c, 9, 35, 110
1, 36291, Note_on_c, 9, 35, 0
1, 36291, Note_on_c, 9, 38, 0
1, 36292, Note_on_c, 4, 43, 127
1, 36336, Note_on_c, 6, 57, 0
1, 36336, Note_on_c, 2, 57, 0
1, 36337, Note_on_c, 4, 43, 0
1, 36338, Note_on_c, 2, 55, 125
1, 36339, Note_on_c, 6, 55, 125
1, 36340, Note_on_c, 9, 38, 45
1, 36342, Note_on_c, 9, 38, 0
1, 36343, Note_on_c, 1, 43, 0
1, 36357, Note_on_c, 6, 55, 0
1, 36357, Note_on_c, 2, 55, 0
1, 36382, Note_on_c, 0, 61, 117
1, 36383, Note_on_c, 0, 67, 107
1, 36383, Note_on_c, 1, 42, 127
1, 36384, Note_on_c, 0, 64, 117
1, 36385, Note_on_c, 0, 57, 114
1, 36385, Note_on_c, 9, 40, 97
1, 36385, Note_on_c, 9, 28, 90
1, 36386, Note_on_c, 9, 40, 0
1, 36387, Note_on_c, 9, 28, 0
1, 36388, Note_on_c, 4, 42, 127
1, 36390, Note_on_c, 4, 49, 127
1, 36414, Note_on_c, 0, 57, 0
1, 36415, Note_on_c, 0, 67, 0
1, 36416, Note_on_c, 0, 64, 0
1, 36418, Note_on_c, 0, 61, 0
1, 36434, Note_on_c, 2, 60, 125
1, 36434, Note_on_c, 6, 60, 125
1, 36437, Note_on_c, 4, 42, 0
1, 36437, Note_on_c, 9, 38, 25
1, 36438, Note_on_c, 9, 38, 0
1, 36439, Note_on_c, 4, 49, 0
1, 36439, Note_on_c, 1, 42, 0
1, 36465, Note_on_c, 2, 60, 0
1, 36465, Note_on_c, 6, 60, 0
1, 36480, Note_on_c, 1, 45, 120
1, 36481, Note_on_c, 9, 38, 53
1, 36482, Note_on_c, 9, 35, 111
1, 36483, Note_on_c, 4, 45, 127
1, 36484, Note_on_c, 9, 35, 0
1, 36485, Note_on_c, 9, 38, 0
1, 36528, Note_on_c, 2, 60, 105
1, 36528, Note_on_c, 6, 60, 105
1, 36529, Note_on_c, 4, 45, 0
1, 36532, Note_on_c, 9, 38, 42
1, 36534, Note_on_c, 9, 38, 0
1, 36559, Note_on_c, 6, 60, 0
1, 36559, Note_on_c, 2, 60, 0
1, 36575, Note_on_c, 0, 64, 111
1, 36576, Note_on_c, 0, 57, 117
1, 36576, Note_on_c, 0, 67, 110
1, 36577, Note_on_c, 0, 61, 117
1, 36577, Note_on_c, 9, 40, 97
1, 36578, Note_on_c, 9, 40, 0
1, 36578, Note_on_c, 2, 61, 85
1, 36578, Note_on_c, 9, 28, 91
1, 36579, Note_on_c, 9, 28, 0
1, 36579, Note_on_c, 6, 61, 85
1, 36580, Note_on_c, 4, 42, 127
1, 36584, Note_on_c, 4, 49, 127
1, 36588, Note_on_c, 1, 45, 0
1, 36608, Note_on_c, 0, 64, 0
1, 36610, Note_on_c, 0, 67, 0
1, 36612, Note_on_c, 0, 61, 0
1, 36614, Note_on_c, 0, 57, 0
1, 36624, Note_on_c, 1, 40, 119
1, 36625, Note_on_c, 6, 61, 0
1, 36625, Note_on_c, 9, 35, 68
1, 36626, Note_on_c, 9, 35, 0
1, 36626, Note_on_c, 2, 61, 0
1, 36627, Note_on_c, 2, 62, 85
1, 36628, Note_on_c, 6, 62, 85
1, 36629, Note_on_c, 4, 49, 0
1, 36629, Note_on_c, 9, 38, 27
1, 36630, Note_on_c, 4, 42, 0
1, 36631, Note_on_c, 9, 38, 0
1, 36646, Note_on_c, 1, 40, 0
1, 36649, Note_on_c, 9, 38, 27
1, 36650, Note_on_c, 9, 38, 0
1, 36658, Note_on_c, 2, 62, 0
1, 36658, Note_on_c, 6, 62, 0
1, 36672, Note_on_c, 1, 43, 121
1, 36673, Note_on_c, 9, 38, 52
1, 36674, Note_on_c, 2, 63, 85
1, 36674, Note_on_c, 9, 35, 110
1, 36675, Note_on_c, 9, 35, 0
1, 36675, Note_on_c, 9, 38, 0
1, 36675, Note_on_c, 6, 63, 85
1, 36676, Note_on_c, 4, 40, 127
1, 36723, Note_on_c, 2, 69, 115
1, 36724, Note_on_c, 6, 63, 0
1, 36724, Note_on_c, 1, 43, 0
1, 36724, Note_on_c, 2, 63, 0
1, 36724, Note_on_c, 6, 69, 115
1, 36725, Note_on_c, 9, 38, 47
1, 36726, Note_on_c, 9, 38, 0
1, 36733, Note_on_c, 4, 40, 0
1, 36767, Note_on_c, 0, 61, 117
1, 36768, Note_on_c, 0, 67, 102
1, 36768, Note_on_c, 1, 40, 127
1, 36769, Note_on_c, 0, 57, 113
1, 36769, Note_on_c, 9, 40, 96
1, 36770, Note_on_c, 9, 40, 0
1, 36770, Note_on_c, 0, 64, 113
1, 36770, Note_on_c, 9, 28, 92
1, 36771, Note_on_c, 9, 28, 0
1, 36771, Note_on_c, 2, 67, 105
1, 36772, Note_on_c, 6, 67, 105
1, 36773, Note_on_c, 6, 69, 0
1, 36774, Note_on_c, 2, 69, 0
1, 36774, Note_on_c, 4, 42, 127
1, 36775, Note_on_c, 4, 49, 127
1, 36798, Note_on_c, 0, 64, 0
1, 36800, Note_on_c, 0, 67, 0
1, 36803, Note_on_c, 0, 61, 0
1, 36803, Note_on_c, 0, 57, 0
1, 36806, Note_on_c, 4, 42, 0
1, 36808, Note_on_c, 4, 49, 0
1, 36814, Note_on_c, 6, 67, 0
1, 36815, Note_on_c, 2, 67, 0
1, 36817, Note_on_c, 2, 64, 95
1, 36818, Note_on_c, 6, 64, 95
1, 36821, Note_on_c, 9, 38, 23
1, 36822, Note_on_c, 9, 38, 0
1, 36825, Note_on_c, 1, 40, 0
1, 36825, Note_on_c, 4, 45, 127
1, 36826, Note_on_c, 4, 57, 127
1, 36849, Note_on_c, 6, 64, 0
1, 36849, Note_on_c, 2, 64, 0
1, 36861, Note_on_c, 4, 45, 0
1, 36861, Note_on_c, 4, 57, 0
1, 36863, Note_on_c, 1, 33, 127
1, 36865, Note_on_c, 9, 38, 43
1, 36866, Note_on_c, 9, 35, 111
1, 36868, Note_on_c, 9, 35, 0
1, 36868, Note_on_c, 9, 38, 0
1, 36869, Note_on_c, 4, 45, 127
1, 36889, Note_on_c, 9, 38, 43
1, 36890, Note_on_c, 9, 38, 0
1, 36908, Note_on_c, 4, 45, 0
1, 36908, Pitch_bend_c, 6, 8032
1, 36909, Pitch_bend_c, 2, 8032
1, 36909, Pitch_bend_c, 6, 4200
1, 36910, Pitch_bend_c, 2, 4200
1, 36914, Note_on_c, 2, 64, 95
1, 36914, Note_on_c, 6, 64, 95
1, 36916, Note_on_c, 9, 38, 45
1, 36917, Note_on_c, 9, 38, 0
1, 36917, Pitch_bend_c, 6, 4037
1, 36918, Pitch_bend_c, 2, 4123
1, 36919, Note_on_c, 4, 42, 127
1, 36920, Pitch_bend_c, 2, 4037
1, 36921, Note_on_c, 4, 57, 127
1, 36922, Pitch_bend_c, 6, 3952
1, 36923, Pitch_bend_c, 2, 3952
1, 36924, Pitch_bend_c, 2, 3866
1, 36924, Pitch_bend_c, 6, 3866
1, 36926, Pitch_bend_c, 6, 5881
1, 36927, Pitch_bend_c, 2, 5881
1, 36940, Pitch_bend_c, 2, 6301
1, 36940, Pitch_bend_c, 6, 6301
1, 36942, Pitch_bend_c, 6, 7561
1, 36943, Pitch_bend_c, 2, 7561
1, 36952, Note_on_c, 4, 42, 0
1, 36954, Pitch_bend_c, 6, 8192
1, 36955, Pitch_bend_c, 2, 8192
1, 36956, Note_on_c, 4, 57, 0
1, 36958, Note_on_c, 0, 61, 117
1, 36959, Note_on_c, 0, 57, 117
1, 36960, Note_on_c, 0, 67, 107
1, 36961, Note_on_c, 0, 64, 117
1, 36961, Note_on_c, 9, 40, 98
1, 36961, Note_on_c, 9, 28, 94
1, 36962, Note_on_c, 9, 40, 0
1, 36962, Note_on_c, 2, 69, 85
1, 36963, Note_on_c, 9, 28, 0
1, 36963, Note_on_c, 6, 69, 85
1, 36964, Note_on_c, 6, 64, 0
1, 36965, Note_on_c, 2, 64, 0
1, 36966, Note_on_c, 4, 42, 127
1, 36968, Note_on_c, 4, 49, 127
1, 36972, Note_on_c, 1, 33, 0
1, 36992, Note_on_c, 0, 64, 0
1, 36993, Note_on_c, 0, 67, 0
1, 36994, Note_on_c, 6, 69, 0
1, 36994, Note_on_c, 2, 69, 0
1, 36998, Note_on_c, 0, 61, 0
1, 37001, Note_on_c, 0, 57, 0
1, 37008, Note_on_c, 2, 67, 75
1, 37009, Note_on_c, 6, 67, 75
1, 37010, Note_on_c, 4, 42, 0
1, 37012, Note_on_c, 9, 38, 25
1, 37013, Note_on_c, 9, 38, 0
1, 37013, Note_on_c, 4, 49, 0
1, 37039, Note_on_c, 2, 67, 0
1, 37039, Note_on_c, 6, 67, 0
1, 37056, Note_on_c, 1, 43, 124
1, 37057, Note_on_c, 9, 38, 54
1, 37057, Note_on_c, 9, 35, 110
1, 37058, Note_on_c, 2, 69, 85
1, 37059, Note_on_c, 9, 35, 0
1, 37059, Note_on_c, 9, 38, 0
1, 37059, Note_on_c, 6, 69, 85
1, 37060, Note_on_c, 4, 43, 127
1, 37090, Note_on_c, 6, 69, 0
1, 37090, Note_on_c, 2, 69, 0
1, 37105, Note_on_c, 4, 43, 0
1, 37105, Note_on_c, 2, 67, 75
1, 37106, Note_on_c, 6, 67, 75
1, 37109, Note_on_c, 9, 38, 45
1, 37110, Note_on_c, 9, 38, 0
1, 37113, Note_on_c, 1, 43, 0
1, 37137, Note_on_c, 6, 67, 0
1, 37137, Note_on_c, 2, 67, 0
1, 37150, Note_on_c, 0, 61, 117
1, 37151, Note_on_c, 0, 67, 110
1, 37152, Note_on_c, 0, 57, 117
1, 37152, Note_on_c, 1, 42, 126
1, 37153, Note_on_c, 0, 64, 117
1, 37153, Note_on_c, 9, 40, 97
1, 37154, Note_on_c, 9, 40, 0
1, 37154, Note_on_c, 9, 28, 90
1, 37155, Note_on_c, 9, 28, 0
1, 37156, Note_on_c, 4, 42, 127
1, 37158, Note_on_c, 4, 49, 127
1, 37184, Pitch_bend_c, 2, 8608
1, 37184, Pitch_bend_c, 6, 8608
1, 37185, Note_on_c, 0, 64, 0
1, 37186, Pitch_bend_c, 6, 9600
1, 37187, Pitch_bend_c, 2, 9600
1, 37188, Note_on_c, 0, 57, 0
1, 37189, Pitch_bend_c, 6, 12928
1, 37190, Pitch_bend_c, 2, 11072
1, 37191, Note_on_c, 0, 67, 0
1, 37192, Note_on_c, 0, 61, 0
1, 37192, Pitch_bend_c, 2, 12928
1, 37194, Pitch_bend_c, 2, 14752
1, 37194, Pitch_bend_c, 6, 14752
1, 37196, Pitch_bend_c, 2, 16064
1, 37196, Pitch_bend_c, 6, 16383
1, 37199, Pitch_bend_c, 2, 16383
1, 37203, Note_on_c, 2, 62, 115
1, 37204, Note_on_c, 6, 62, 115
1, 37205, Note_on_c, 4, 42, 0
1, 37205, Note_on_c, 9, 38, 25
1, 37206, Note_on_c, 9, 38, 0
1, 37206, Note_on_c, 1, 42, 0
1, 37207, Note_on_c, 4, 49, 0
1, 37239, Pitch_bend_c, 2, 16224
1, 37239, Pitch_bend_c, 6, 16224
1, 37242, Pitch_bend_c, 2, 14816
1, 37242, Pitch_bend_c, 6, 12672
1, 37243, Pitch_bend_c, 2, 12672
1, 37245, Pitch_bend_c, 6, 9056
1, 37246, Pitch_bend_c, 2, 10592
1, 37248, Note_on_c, 1, 45, 120
1, 37248, Pitch_bend_c, 2, 9056
1, 37249, Note_on_c, 9, 38, 53
1, 37250, Pitch_bend_c, 6, 8192
1, 37250, Note_on_c, 9, 35, 111
1, 37251, Pitch_bend_c, 2, 8192
1, 37252, Note_on_c, 9, 35, 0
1, 37252, Note_on_c, 9, 38, 0
1, 37252, Note_on_c, 4, 45, 127
1, 37290, Note_on_c, 6, 62, 0
1, 37290, Note_on_c, 2, 62, 0
1, 37296, Note_on_c, 4, 45, 0
1, 37299, Note_on_c, 2, 60, 95
1, 37299, Note_on_c, 6, 60, 95
1, 37300, Note_on_c, 9, 38, 42
1, 37302, Note_on_c, 9, 38, 0
1, 37321, Note_on_c, 9, 38, 42
1, 37322, Note_on_c, 9, 38, 0
1, 37329, Note_on_c, 6, 60, 0
1, 37330, Note_on_c, 2, 60, 0
1, 37343, Note_on_c, 0, 61, 117
1, 37343, Note_on_c, 0, 67, 99
1, 37344, Note_on_c, 0, 57, 117
1, 37345, Note_on_c, 0, 64, 113
1, 37345, Note_on_c, 9, 40, 97
1, 37346, Note_on_c, 9, 40, 0
1, 37346, Note_on_c, 9, 28, 91
1, 37347, Note_on_c, 9, 28, 0
1, 37348, Note_on_c, 4, 42, 127
1, 37351, Note_on_c, 4, 49, 127
1, 37357, Note_on_c, 1, 45, 0
1, 37373, Note_on_c, 0, 64, 0
1, 37377, Note_on_c, 0, 67, 0
1, 37380, Note_on_c, 0, 57, 0
1, 37381, Note_on_c, 0, 61, 0
1, 37392, Note_on_c, 1, 40, 119
1, 37393, Note_on_c, 9, 35, 68
1, 37394, Note_on_c, 9, 35, 0
1, 37394, Note_on_c, 9, 38, 27
1, 37396, Note_on_c, 9, 38, 0
1, 37397, Note_on_c, 4, 49, 0
1, 37398, Note_on_c, 4, 42, 0
1, 37415, Note_on_c, 1, 40, 0
1, 37417, Note_on_c, 9, 38, 42
1, 37418, Note_on_c, 9, 38, 0
1, 37440, Note_on_c, 1, 43, 124
1, 37441, Note_on_c, 9, 38, 52
1, 37442, Note_on_c, 9, 35, 110
1, 37443, Note_on_c, 9, 35, 0
1, 37443, Note_on_c, 9, 38, 0
1, 37443, Note_on_c, 4, 40, 127
1, 37465, Note_on_c, 9, 38, 42
1, 37466, Note_on_c, 9, 38, 0
1, 37493, Note_on_c, 9, 38, 47
1, 37494, Note_on_c, 9, 38, 0
1, 37497, Note_on_c, 1, 43, 0
1, 37501, Pitch_bend_c, 6, 7904
1, 37502, Note_on_c, 4, 40, 0
1, 37502, Pitch_bend_c, 2, 8128
1, 37504, Pitch_bend_c, 2, 7904
1, 37506, Pitch_bend_c, 2, 7552
1, 37506, Pitch_bend_c, 6, 7552
1, 37509, Pitch_bend_c, 2, 7072
1, 37509, Pitch_bend_c, 6, 7072
1, 37511, Pitch_bend_c, 2, 6464
1, 37511, Pitch_bend_c, 6, 5792
1, 37513, Pitch_bend_c, 2, 5792
1, 37515, Pitch_bend_c, 2, 5152
1, 37515, Pitch_bend_c, 6, 4448
1, 37518, Pitch_bend_c, 2, 4448
1, 37520, Pitch_bend_c, 2, 3744
1, 37520, Pitch_bend_c, 6, 3744
1, 37523, Pitch_bend_c, 2, 3072
1, 37523, Pitch_bend_c, 6, 3072
1, 37525, Pitch_bend_c, 6, 1664
1, 37526, Pitch_bend_c, 2, 2368
1, 37527, Pitch_bend_c, 2, 1664
1, 37531, Pitch_bend_c, 2, 960
1, 37531, Pitch_bend_c, 6, 960
1, 37533, Pitch_bend_c, 6, 0
1, 37534, Pitch_bend_c, 2, 320
1, 37535, Note_on_c, 0, 61, 117
1, 37535, Note_on_c, 1, 40, 127
1, 37536, Note_on_c, 0, 57, 117
1, 37536, Note_on_c, 0, 67, 104
1, 37536, Note_on_c, 9, 40, 96
1, 37537, Note_on_c, 0, 64, 117
1, 37538, Note_on_c, 9, 40, 0
1, 37538, Pitch_bend_c, 2, 0
1, 37538, Note_on_c, 9, 28, 92
1, 37539, Note_on_c, 9, 28, 0
1, 37539, Note_on_c, 2, 64, 124
1, 37540, Note_on_c, 6, 64, 124
1, 37541, Note_on_c, 4, 42, 127
1, 37542, Note_on_c, 4, 49, 127
1, 37557, Pitch_bend_c, 6, 672
1, 37558, Pitch_bend_c, 2, 672
1, 37561, Pitch_bend_c, 6, 2240
1, 37562, Pitch_bend_c, 2, 1376
1, 37563, Pitch_bend_c, 2, 2240
1, 37566, Pitch_bend_c, 2, 3200
1, 37566, Pitch_bend_c, 6, 3200
1, 37569, Pitch_bend_c, 2, 4288
1, 37569, Pitch_bend_c, 6, 4288
1, 37571, Pitch_bend_c, 2, 5536
1, 37571, Pitch_bend_c, 6, 6688
1, 37572, Note_on_c, 0, 64, 0
1, 37573, Pitch_bend_c, 2, 6688
1, 37574, Note_on_c, 4, 42, 0
1, 37574, Note_on_c, 0, 57, 0
1, 37575, Note_on_c, 0, 67, 0
1, 37576, Pitch_bend_c, 6, 7552
1, 37577, Note_on_c, 4, 49, 0
1, 37577, Pitch_bend_c, 2, 7552
1, 37578, Note_on_c, 0, 61, 0
1, 37579, Pitch_bend_c, 2, 8064
1, 37579, Pitch_bend_c, 6, 8064
1, 37580, Pitch_bend_c, 2, 8192
1, 37580, Pitch_bend_c, 6, 8192
1, 37589, Note_on_c, 9, 38, 23
1, 37590, Note_on_c, 9, 38, 0
1, 37592, Note_on_c, 4, 45, 127
1, 37593, Note_on_c, 1, 40, 0
1, 37594, Note_on_c, 4, 57, 127
1, 37629, Note_on_c, 4, 57, 0
1, 37629, Note_on_c, 4, 45, 0
1, 37631, Note_on_c, 1, 33, 127
1, 37633, Note_on_c, 2, 67, 100
1, 37633, Note_on_c, 9, 38, 43
1, 37634, Note_on_c, 6, 67, 100
1, 37634, Note_on_c, 9, 35, 111
1, 37636, Note_on_c, 9, 35, 0
1, 37636, Note_on_c, 9, 38, 0
1, 37637, Note_on_c, 4, 45, 127
1, 37675, Note_on_c, 4, 45, 0
1, 37685, Note_on_c, 9, 38, 45
1, 37686, Note_on_c, 9, 38, 0
1, 37688, Note_on_c, 2, 64, 0
1, 37688, Note_on_c, 6, 64, 0
1, 37688, Note_on_c, 4, 42, 127
1, 37689, Note_on_c, 4, 57, 127
1, 37719, Note_on_c, 4, 42, 0
1, 37723, Note_on_c, 4, 57, 0
1, 37727, Note_on_c, 0, 61, 117
1, 37728, Note_on_c, 0, 57, 117
1, 37728, Note_on_c, 0, 67, 107
1, 37728, Note_on_c, 0, 64, 110
1, 37728, Note_on_c, 9, 40, 98
1, 37729, Note_on_c, 2, 64, 98
1, 37730, Note_on_c, 6, 64, 98
1, 37730, Note_on_c, 9, 28, 94
1, 37731, Note_on_c, 9, 40, 0
1, 37732, Note_on_c, 9, 28, 0
1, 37732, Note_on_c, 4, 42, 127
1, 37736, Note_on_c, 4, 49, 127
1, 37738, Note_on_c, 1, 33, 0
1, 37748, Note_on_c, 2, 67, 0
1, 37748, Note_on_c, 6, 67, 0
1, 37761, Note_on_c, 0, 64, 0
1, 37766, Note_on_c, 0, 61, 0
1, 37766, Note_on_c, 0, 67, 0
1, 37767, Note_on_c, 0, 57, 0
1, 37778, Note_on_c, 4, 42, 0
1, 37778, Note_on_c, 2, 67, 105
1, 37779, Note_on_c, 6, 67, 105
1, 37781, Note_on_c, 4, 49, 0
1, 37781, Note_on_c, 9, 38, 25
1, 37782, Note_on_c, 9, 38, 0
1, 37824, Note_on_c, 1, 43, 127
1, 37825, Note_on_c, 9, 38, 54
1, 37826, Note_on_c, 9, 35, 110
1, 37828, Note_on_c, 9, 35, 0
1, 37828, Note_on_c, 9, 38, 0
1, 37828, Note_on_c, 4, 43, 127
1, 37829, Note_on_c, 6, 64, 0
1, 37830, Note_on_c, 2, 64, 0
1, 37866, Note_on_c, 6, 67, 0
1, 37867, Note_on_c, 2, 67, 0
1, 37873, Note_on_c, 2, 67, 106
1, 37874, Note_on_c, 6, 67, 106
1, 37875, Note_on_c, 4, 43, 0
1, 37877, Note_on_c, 9, 38, 45
1, 37878, Note_on_c, 9, 38, 0
1, 37878, Note_on_c, 1, 43, 0
1, 37916, Note_on_c, 2, 67, 0
1, 37916, Note_on_c, 6, 67, 0
1, 37919, Note_on_c, 0, 61, 117
1, 37920, Note_on_c, 0, 64, 117
1, 37920, Note_on_c, 0, 57, 117
1, 37920, Note_on_c, 1, 42, 124
1, 37921, Note_on_c, 0, 67, 107
1, 37921, Note_on_c, 9, 40, 97
1, 37921, Note_on_c, 9, 28, 90
1, 37922, Note_on_c, 9, 40, 0
1, 37922, Note_on_c, 2, 64, 96
1, 37923, Note_on_c, 9, 28, 0
1, 37923, Note_on_c, 6, 64, 96
1, 37924, Note_on_c, 4, 42, 127
1, 37925, Note_on_c, 4, 49, 127
1, 37926, Pitch_bend_c, 6, 8128
1, 37927, Pitch_bend_c, 2, 8128
1, 37928, Pitch_bend_c, 6, 7872
1, 37929, Pitch_bend_c, 2, 7872
1, 37933, Pitch_bend_c, 2, 7584
1, 37933, Pitch_bend_c, 6, 7584
1, 37934, Pitch_bend_c, 6, 6592
1, 37935, Pitch_bend_c, 2, 7200
1, 37938, Pitch_bend_c, 2, 6592
1, 37940, Pitch_bend_c, 2, 5792
1, 37940, Pitch_bend_c, 6, 5792
1, 37942, Pitch_bend_c, 2, 4864
1, 37942, Pitch_bend_c, 6, 4864
1, 37945, Pitch_bend_c, 6, 3104
1, 37946, Pitch_bend_c, 2, 4000
1, 37947, Pitch_bend_c, 2, 3104
1, 37949, Pitch_bend_c, 2, 2432
1, 37949, Pitch_bend_c, 6, 1888
1, 37952, Pitch_bend_c, 2, 1888
1, 37954, Pitch_bend_c, 2, 1536
1, 37954, Pitch_bend_c, 6, 1536
1, 37955, Note_on_c, 0, 67, 0
1, 37957, Pitch_bend_c, 6, 1408
1, 37958, Note_on_c, 0, 61, 0
1, 37958, Pitch_bend_c, 2, 1408
1, 37959, Note_on_c, 0, 57, 0
1, 37960, Note_on_c, 0, 64, 0
1, 37961, Pitch_bend_c, 2, 1568
1, 37961, Pitch_bend_c, 6, 1568
1, 37964, Note_on_c, 6, 64, 0
1, 37964, Pitch_bend_c, 6, 1856
1, 37965, Note_on_c, 2, 64, 0
1, 37965, Pitch_bend_c, 2, 1856
1, 37966, Pitch_bend_c, 2, 2272
1, 37966, Pitch_bend_c, 6, 2272
1, 37968, Note_on_c, 2, 61, 86
1, 37969, Note_on_c, 6, 61, 86
1, 37970, Pitch_bend_c, 6, 8192
1, 37971, Pitch_bend_c, 2, 8192
1, 37973, Note_on_c, 4, 42, 0
1, 37973, Note_on_c, 9, 38, 25
1, 37974, Note_on_c, 9, 38, 0
1, 37976, Note_on_c, 4, 49, 0
1, 37978, Note_on_c, 1, 42, 0
1, 37991, Note_on_c, 6, 61, 0
1, 37992, Note_on_c, 2, 61, 0
1, 38016, Note_on_c, 1, 45, 121
1, 38017, Note_on_c, 2, 62, 96
1, 38017, Note_on_c, 9, 38, 53
1, 38018, Note_on_c, 6, 62, 96
1, 38018, Note_on_c, 9, 35, 111
1, 38019, Note_on_c, 4, 45, 127
1, 38020, Note_on_c, 9, 35, 0
1, 38020, Note_on_c, 9, 38, 0
1, 38060, Note_on_c, 6, 62, 0
1, 38060, Note_on_c, 2, 62, 0
1, 38064, Note_on_c, 4, 45, 0
1, 38065, Note_on_c, 2, 61, 106
1, 38066, Note_on_c, 6, 61, 106
1, 38069, Note_on_c, 9, 38, 42
1, 38070, Note_on_c, 9, 38, 0
1, 38086, Note_on_c, 6, 61, 0
1, 38086, Note_on_c, 2, 61, 0
1, 38111, Note_on_c, 0, 61, 117
1, 38112, Note_on_c, 0, 67, 107
1, 38112, Note_on_c, 0, 57, 117
1, 38113, Note_on_c, 0, 64, 113
1, 38113, Note_on_c, 9, 40, 97
1, 38115, Note_on_c, 9, 28, 91
1, 38116, Note_on_c, 9, 28, 0
1, 38116, Note_on_c, 9, 40, 0
1, 38116, Note_on_c, 4, 42, 127
1, 38120, Note_on_c, 4, 49, 127
1, 38125, Note_on_c, 1, 45, 0
1, 38144, Note_on_c, 0, 67, 0
1, 38145, Note_on_c, 0, 64, 0
1, 38146, Note_on_c, 0, 57, 0
1, 38148, Note_on_c, 0, 61, 0
1, 38160, Note_on_c, 1, 40, 121
1, 38161, Note_on_c, 9, 35, 68
1, 38162, Note_on_c, 9, 35, 0
1, 38165, Note_on_c, 4, 42, 0
1, 38165, Note_on_c, 4, 49, 0
1, 38165, Note_on_c, 9, 38, 27
1, 38166, Note_on_c, 9, 38, 0
1, 38183, Note_on_c, 1, 40, 0
1, 38208, Note_on_c, 1, 43, 127
1, 38208, Note_on_c, 2, 57, 106
1, 38209, Note_on_c, 6, 57, 106
1, 38209, Note_on_c, 9, 38, 52
1, 38209, Note_on_c, 9, 35, 110
1, 38211, Note_on_c, 9, 35, 0
1, 38211, Note_on_c, 9, 38, 0
1, 38212, Note_on_c, 4, 40, 127
1, 38260, Note_on_c, 9, 38, 47
1, 38262, Note_on_c, 9, 38, 0
1, 38262, Note_on_c, 1, 43, 0
1, 38269, Note_on_c, 4, 40, 0
1, 38302, Note_on_c, 0, 61, 117
1, 38303, Note_on_c, 0, 57, 117
1, 38303, Note_on_c, 1, 40, 127
1, 38304, Note_on_c, 0, 67, 99
1, 38305, Note_on_c, 0, 64, 117
1, 38305, Note_on_c, 9, 40, 96
1, 38306, Note_on_c, 9, 40, 0
1, 38306, Note_on_c, 9, 28, 92
1, 38307, Note_on_c, 9, 28, 0
1, 38307, Note_on_c, 4, 42, 127
1, 38310, Note_on_c, 4, 49, 127
1, 38336, Note_on_c, 0, 64, 0
1, 38337, Note_on_c, 0, 67, 0
1, 38341, Note_on_c, 0, 61, 0
1, 38342, Note_on_c, 4, 42, 0
1, 38343, Note_on_c, 0, 57, 0
1, 38344, Note_on_c, 4, 49, 0
1, 38353, Note_on_c, 9, 40, 73
1, 38354, Note_on_c, 9, 40, 0
1, 38360, Note_on_c, 4, 45, 127
1, 38361, Note_on_c, 1, 40, 0
1, 38363, Note_on_c, 4, 57, 127
1, 38387, Note_on_c, 2, 57, 0
1, 38387, Note_on_c, 6, 57, 0
1, 38397, Note_on_c, 4, 57, 0
1, 38398, Note_on_c, 4, 45, 0
1, 38399, Note_on_c, 2, 55, 116
1, 38400, Note_on_c, 1, 33, 126
1, 38400, Note_on_c, 6, 55, 116
1, 38401, Note_on_c, 9, 38, 43
1, 38402, Note_on_c, 9, 35, 111
1, 38404, Note_on_c, 9, 35, 0
1, 38404, Note_on_c, 9, 38, 0
1, 38405, Note_on_c, 4, 45, 127
1, 38443, Note_on_c, 4, 45, 0
1, 38447, Note_on_c, 6, 55, 0
1, 38447, Note_on_c, 2, 55, 0
1, 38448, Note_on_c, 2, 52, 127
1, 38449, Note_on_c, 6, 52, 127
1, 38452, Note_on_c, 9, 38, 45
1, 38454, Note_on_c, 9, 38, 0
1, 38454, Note_on_c, 4, 42, 127
1, 38459, Note_on_c, 4, 57, 127
1, 38475, Pitch_bend_c, 6, 8064
1, 38476, Pitch_bend_c, 2, 8064
1, 38479, Pitch_bend_c, 6, 8000
1, 38480, Pitch_bend_c, 2, 8000
1, 38481, Pitch_bend_c, 2, 7904
1, 38481, Pitch_bend_c, 6, 7904
1, 38483, Pitch_bend_c, 6, 7648
1, 38484, Pitch_bend_c, 2, 7776
1, 38485, Pitch_bend_c, 2, 7648
1, 38488, Note_on_c, 4, 42, 0
1, 38489, Pitch_bend_c, 6, 7520
1, 38490, Pitch_bend_c, 2, 7520
1, 38491, Pitch_bend_c, 2, 7232
1, 38491, Pitch_bend_c, 6, 6976
1, 38492, Note_on_c, 4, 57, 0
1, 38495, Pitch_bend_c, 2, 6976
1, 38496, Note_on_c, 0, 61, 117
1, 38496, Note_on_c, 0, 67, 110
1, 38496, Note_on_c, 0, 57, 117
1, 38497, Note_on_c, 0, 64, 113
1, 38497, Pitch_bend_c, 6, 6688
1, 38497, Note_on_c, 9, 40, 98
1, 38497, Note_on_c, 9, 28, 94
1, 38498, Note_on_c, 9, 40, 0
1, 38498, Pitch_bend_c, 2, 6688
1, 38499, Note_on_c, 9, 28, 0
1, 38499, Pitch_bend_c, 6, 6016
1, 38500, Pitch_bend_c, 2, 6336
1, 38501, Note_on_c, 4, 42, 127
1, 38502, Pitch_bend_c, 2, 6016
1, 38503, Pitch_bend_c, 6, 3360
1, 38504, Pitch_bend_c, 2, 3360
1, 38505, Note_on_c, 4, 49, 127
1, 38508, Note_on_c, 1, 33, 0
1, 38509, Pitch_bend_c, 6, 420
1, 38510, Pitch_bend_c, 2, 420
1, 38520, Pitch_bend_c, 2, 0
1, 38520, Pitch_bend_c, 6, 0
1, 38526, Note_on_c, 0, 64, 0
1, 38529, Note_on_c, 0, 67, 0
1, 38532, Note_on_c, 0, 57, 0
1, 38534, Note_on_c, 0, 61, 0
1, 38541, Pitch_bend_c, 2, 1568
1, 38541, Pitch_bend_c, 6, 1568
1, 38542, Note_on_c, 6, 52, 0
1, 38543, Note_on_c, 2, 52, 0
1, 38544, Pitch_bend_c, 2, 8192
1, 38544, Pitch_bend_c, 6, 8192
1, 38545, Note_on_c, 2, 49, 95
1, 38546, Note_on_c, 6, 49, 95
1, 38547, Note_on_c, 4, 42, 0
1, 38549, Note_on_c, 4, 49, 0
1, 38549, Note_on_c, 9, 38, 25
1, 38550, Note_on_c, 9, 38, 0
1, 38592, Note_on_c, 1, 43, 127
1, 38593, Note_on_c, 2, 50, 106
1, 38593, Note_on_c, 9, 38, 54
1, 38594, Note_on_c, 6, 50, 106
1, 38594, Note_on_c, 9, 35, 110
1, 38595, Note_on_c, 9, 35, 0
1, 38595, Note_on_c, 6, 49, 0
1, 38596, Note_on_c, 9, 38, 0
1, 38596, Note_on_c, 2, 49, 0
1, 38597, Note_on_c, 4, 43, 127
1, 38627, Note_on_c, 2, 50, 0
1, 38627, Note_on_c, 6, 50, 0
1, 38641, Note_on_c, 2, 49, 96
1, 38641, Note_on_c, 6, 49, 96
1, 38642, Note_on_c, 4, 43, 0
1, 38645, Note_on_c, 9, 38, 45
1, 38646, Note_on_c, 9, 38, 0
1, 38650, Note_on_c, 1, 43, 0
1, 38688, Note_on_c, 0, 61, 117
1, 38688, Note_on_c, 0, 67, 102
1, 38688, Note_on_c, 0, 57, 117
1, 38688, Note_on_c, 0, 64, 117
1, 38688, Note_on_c, 1, 42, 126
1, 38689, Note_on_c, 6, 49, 0
1, 38689, Note_on_c, 9, 40, 97
1, 38690, Note_on_c, 9, 40, 0
1, 38690, Note_on_c, 2, 49, 0
1, 38690, Note_on_c, 9, 28, 90
1, 38691, Note_on_c, 9, 28, 0
1, 38691, Note_on_c, 4, 42, 127
1, 38694, Note_on_c, 4, 49, 127
1, 38720, Note_on_c, 0, 67, 0
1, 38721, Note_on_c, 0, 64, 0
1, 38724, Note_on_c, 0, 61, 0
1, 38725, Note_on_c, 0, 57, 0
1, 38737, Note_on_c, 2, 52, 96
1, 38737, Note_on_c, 6, 52, 96
1, 38741, Note_on_c, 4, 42, 0
1, 38741, Note_on_c, 9, 38, 25
1, 38743, Note_on_c, 9, 38, 0
1, 38743, Note_on_c, 4, 49, 0
1, 38746, Note_on_c, 1, 42, 0
1, 38784, Note_on_c, 1, 45, 126
1, 38785, Note_on_c, 9, 38, 53
1, 38786, Note_on_c, 9, 35, 111
1, 38787, Note_on_c, 4, 45, 127
1, 38788, Note_on_c, 9, 35, 0
1, 38788, Note_on_c, 9, 38, 0
1, 38832, Note_on_c, 4, 45, 0
1, 38833, Note_on_c, 6, 52, 0
1, 38834, Note_on_c, 2, 52, 0
1, 38837, Note_on_c, 9, 38, 42
1, 38838, Note_on_c, 9, 38, 0
1, 38880, Note_on_c, 0, 61, 117
1, 38880, Note_on_c, 0, 67, 107
1, 38880, Note_on_c, 0, 57, 117
1, 38880, Note_on_c, 9, 40, 97
1, 38881, Note_on_c, 0, 64, 117
1, 38882, Note_on_c, 9, 40, 0
1, 38882, Note_on_c, 9, 28, 91
1, 38883, Note_on_c, 9, 28, 0
1, 38884, Note_on_c, 4, 42, 127
1, 38887, Note_on_c, 4, 49, 127
1, 38892, Note_on_c, 1, 45, 0
1, 38912, Note_on_c, 0, 64, 0
1, 38914, Note_on_c, 0, 67, 0
1, 38916, Note_on_c, 0, 61, 0
1, 38917, Note_on_c, 0, 57, 0
1, 38928, Note_on_c, 1, 40, 121
1, 38929, Note_on_c, 9, 35, 68
1, 38930, Note_on_c, 9, 35, 0
1, 38933, Note_on_c, 4, 42, 0
1, 38933, Note_on_c, 4, 49, 0
1, 38933, Note_on_c, 9, 38, 27
1, 38934, Note_on_c, 9, 38, 0
1, 38951, Note_on_c, 1, 40, 0
1, 38976, Note_on_c, 1, 43, 124
1, 38977, Note_on_c, 9, 38, 52
1, 38977, Note_on_c, 9, 35, 110
1, 38979, Note_on_c, 9, 35, 0
1, 38979, Note_on_c, 9, 38, 0
1, 38979, Note_on_c, 4, 40, 127
1, 39029, Note_on_c, 9, 38, 47
1, 39030, Note_on_c, 9, 38, 0
1, 39031, Note_on_c, 1, 43, 0
1, 39036, Note_on_c, 4, 40, 0
1, 39043, Pitch_bend_c, 2, 8160
1, 39043, Pitch_bend_c, 6, 8160
1, 39046, Pitch_bend_c, 2, 8032
1, 39046, Pitch_bend_c, 6, 8032
1, 39049, Pitch_bend_c, 6, 7712
1, 39049, Note_on_c, 9, 38, 52
1, 39050, Note_on_c, 9, 38, 0
1, 39050, Pitch_bend_c, 2, 7712
1, 39051, Pitch_bend_c, 6, 6624
1, 39052, Pitch_bend_c, 2, 7200
1, 39053, Pitch_bend_c, 2, 6624
1, 39054, Pitch_bend_c, 2, 5984
1, 39054, Pitch_bend_c, 6, 5312
1, 39055, Pitch_bend_c, 2, 5312
1, 39060, Pitch_bend_c, 2, 4736
1, 39060, Pitch_bend_c, 6, 4736
1, 39062, Pitch_bend_c, 2, 4256
1, 39062, Pitch_bend_c, 6, 4256
1, 39065, Pitch_bend_c, 2, 3904
1, 39065, Pitch_bend_c, 6, 3680
1, 39067, Pitch_bend_c, 2, 3680
1, 39070, Pitch_bend_c, 2, 3520
1, 39070, Pitch_bend_c, 6, 3520
1, 39071, Note_on_c, 0, 61, 117
1, 39071, Note_on_c, 1, 40, 127
1, 39072, Note_on_c, 0, 67, 110
1, 39073, Note_on_c, 0, 57, 117
1, 39073, Note_on_c, 9, 40, 96
1, 39073, Note_on_c, 9, 28, 92
1, 39074, Note_on_c, 9, 40, 0
1, 39074, Note_on_c, 0, 64, 117
1, 39075, Note_on_c, 9, 28, 0
1, 39075, Note_on_c, 2, 69, 121
1, 39076, Note_on_c, 6, 69, 121
1, 39077, Pitch_bend_c, 6, 3552
1, 39078, Pitch_bend_c, 2, 3552
1, 39079, Note_on_c, 4, 42, 127
1, 39080, Note_on_c, 4, 49, 127
1, 39081, Pitch_bend_c, 6, 3680
1, 39082, Pitch_bend_c, 2, 3680
1, 39083, Pitch_bend_c, 6, 3904
1, 39084, Pitch_bend_c, 2, 3904
1, 39084, Pitch_bend_c, 6, 4576
1, 39085, Pitch_bend_c, 2, 4576
1, 39087, Pitch_bend_c, 2, 4960
1, 39087, Pitch_bend_c, 6, 5408
1, 39089, Pitch_bend_c, 2, 5408
1, 39092, Pitch_bend_c, 6, 5792
1, 39093, Pitch_bend_c, 2, 5792
1, 39095, Pitch_bend_c, 2, 6272
1, 39095, Pitch_bend_c, 6, 6272
1, 39097, Pitch_bend_c, 6, 7296
1, 39098, Pitch_bend_c, 2, 6752
1, 39100, Pitch_bend_c, 2, 7296
1, 39101, Pitch_bend_c, 2, 7776
1, 39101, Pitch_bend_c, 6, 7776
1, 39104, Pitch_bend_c, 2, 8064
1, 39104, Pitch_bend_c, 6, 8064
1, 39105, Note_on_c, 0, 64, 0
1, 39106, Pitch_bend_c, 6, 8192
1, 39107, Pitch_bend_c, 2, 8192
1, 39108, Note_on_c, 0, 67, 0
1, 39108, Note_on_c, 0, 61, 0
1, 39109, Note_on_c, 4, 42, 0
1, 39110, Note_on_c, 0, 57, 0
1, 39111, Note_on_c, 4, 49, 0
1, 39115, Note_on_c, 6, 69, 0
1, 39116, Note_on_c, 2, 69, 0
1, 39122, Note_on_c, 2, 69, 101
1, 39123, Note_on_c, 6, 69, 101
1, 39125, Note_on_c, 9, 38, 23
1, 39126, Note_on_c, 9, 38, 0
1, 39127, Note_on_c, 1, 40, 0
1, 39129, Note_on_c, 4, 45, 127
1, 39131, Note_on_c, 4, 57, 127
1, 39145, Note_on_c, 6, 69, 0
1, 39145, Note_on_c, 2, 69, 0
1, 39154, Pitch_bend_c, 6, 8160
1, 39155, Pitch_bend_c, 2, 8160
1, 39157, Pitch_bend_c, 2, 8000
1, 39157, Pitch_bend_c, 6, 8000
1, 39159, Pitch_bend_c, 6, 7200
1, 39160, Pitch_bend_c, 2, 7680
1, 39161, Pitch_bend_c, 2, 7200
1, 39163, Pitch_bend_c, 6, 6112
1, 39164, Pitch_bend_c, 2, 6688
1, 39165, Note_on_c, 4, 57, 0
1, 39166, Note_on_c, 4, 45, 0
1, 39166, Pitch_bend_c, 2, 6112
1, 39168, Note_on_c, 1, 33, 127
1, 39169, Note_on_c, 2, 69, 111
1, 39169, Note_on_c, 9, 38, 43
1, 39170, Note_on_c, 6, 69, 111
1, 39170, Note_on_c, 9, 35, 111
1, 39171, Pitch_bend_c, 6, 5632
1, 39172, Note_on_c, 9, 35, 0
1, 39172, Note_on_c, 9, 38, 0
1, 39172, Pitch_bend_c, 2, 5632
1, 39173, Pitch_bend_c, 6, 5216
1, 39174, Pitch_bend_c, 2, 5216
1, 39175, Note_on_c, 4, 45, 127
1, 39176, Pitch_bend_c, 6, 4704
1, 39177, Pitch_bend_c, 2, 4864
1, 39178, Pitch_bend_c, 2, 4704
1, 39179, Pitch_bend_c, 6, 4576
1, 39180, Pitch_bend_c, 2, 4576
1, 39181, Pitch_bend_c, 6, 4608
1, 39182, Pitch_bend_c, 2, 4512
1, 39184, Pitch_bend_c, 2, 4608
1, 39185, Pitch_bend_c, 6, 4704
1, 39186, Pitch_bend_c, 2, 4704
1, 39187, Pitch_bend_c, 6, 4928
1, 39188, Pitch_bend_c, 2, 4928
1, 39191, Pitch_bend_c, 6, 5440
1, 39192, Pitch_bend_c, 2, 5184
1, 39193, Pitch_bend_c, 2, 5440
1, 39196, Pitch_bend_c, 6, 6016
1, 39197, Pitch_bend_c, 2, 6016
1, 39200, Pitch_bend_c, 2, 6272
1, 39200, Pitch_bend_c, 6, 6272
1, 39201, Pitch_bend_c, 6, 6944
1, 39202, Pitch_bend_c, 2, 6592
1, 39204, Pitch_bend_c, 2, 6944
1, 39207, Pitch_bend_c, 2, 7328
1, 39207, Pitch_bend_c, 6, 7328
1, 39210, Pitch_bend_c, 2, 7680
1, 39210, Pitch_bend_c, 6, 7680
1, 39212, Note_on_c, 4, 45, 0
1, 39212, Pitch_bend_c, 6, 8128
1, 39213, Pitch_bend_c, 2, 7936
1, 39214, Pitch_bend_c, 2, 8128
1, 39217, Pitch_bend_c, 6, 8192
1, 39218, Pitch_bend_c, 2, 8192
1, 39220, Note_on_c, 9, 38, 45
1, 39221, Note_on_c, 9, 38, 0
1, 39223, Note_on_c, 4, 42, 127
1, 39226, Note_on_c, 4, 57, 127
1, 39256, Note_on_c, 4, 42, 0
1, 39259, Note_on_c, 6, 69, 0
1, 39259, Note_on_c, 2, 69, 0
1, 39260, Note_on_c, 4, 57, 0
1, 39264, Note_on_c, 0, 61, 117
1, 39264, Note_on_c, 0, 67, 107
1, 39264, Note_on_c, 0, 64, 117
1, 39264, Note_on_c, 0, 57, 117
1, 39265, Note_on_c, 9, 40, 98
1, 39266, Note_on_c, 9, 40, 0
1, 39266, Note_on_c, 2, 69, 111
1, 39266, Note_on_c, 9, 28, 94
1, 39267, Note_on_c, 9, 28, 0
1, 39267, Note_on_c, 6, 69, 111
1, 39268, Note_on_c, 4, 42, 127
1, 39272, Note_on_c, 4, 49, 127
1, 39276, Note_on_c, 1, 33, 0
1, 39298, Note_on_c, 6, 69, 0
1, 39299, Note_on_c, 0, 64, 0
1, 39299, Note_on_c, 2, 69, 0
1, 39300, Note_on_c, 0, 61, 0
1, 39301, Note_on_c, 0, 57, 0
1, 39301, Note_on_c, 0, 67, 0
1, 39314, Note_on_c, 4, 42, 0
1, 39315, Note_on_c, 2, 67, 106
1, 39315, Note_on_c, 6, 67, 106
1, 39317, Note_on_c, 4, 49, 0
1, 39317, Note_on_c, 9, 38, 25
1, 39318, Note_on_c, 9, 38, 0
1, 39341, Note_on_c, 6, 67, 0
1, 39342, Note_on_c, 2, 67, 0
1, 39360, Note_on_c, 1, 43, 127
1, 39360, Note_on_c, 2, 69, 101
1, 39360, Note_on_c, 6, 69, 101
1, 39360, Note_on_c, 9, 38, 54
1, 39361, Note_on_c, 9, 35, 110
1, 39363, Note_on_c, 9, 35, 0
1, 39363, Note_on_c, 4, 43, 127
1, 39364, Note_on_c, 9, 38, 0
1, 39409, Note_on_c, 4, 43, 0
1, 39413, Note_on_c, 9, 38, 45
1, 39414, Note_on_c, 9, 38, 0
1, 39414, Note_on_c, 1, 43, 0
1, 39447, Note_on_c, 6, 69, 0
1, 39447, Note_on_c, 2, 69, 0
1, 39455, Note_on_c, 0, 61, 117
1, 39456, Note_on_c, 0, 67, 117
1, 39456, Note_on_c, 0, 64, 117
1, 39456, Note_on_c, 1, 42, 126
1, 39457, Note_on_c, 0, 57, 117
1, 39457, Note_on_c, 9, 40, 97
1, 39458, Note_on_c, 9, 40, 0
1, 39458, Note_on_c, 2, 69, 107
1, 39458, Note_on_c, 9, 28, 90
1, 39459, Note_on_c, 9, 28, 0
1, 39459, Note_on_c, 6, 69, 107
1, 39460, Note_on_c, 4, 42, 127
1, 39461, Note_on_c, 4, 49, 127
1, 39493, Note_on_c, 0, 67, 0
1, 39494, Note_on_c, 0, 64, 0
1, 39497, Note_on_c, 0, 61, 0
1, 39499, Note_on_c, 0, 57, 0
1, 39507, Note_on_c, 6, 69, 0
1, 39508, Note_on_c, 2, 69, 0
1, 39508, Note_on_c, 2, 67, 99
1, 39508, Note_on_c, 6, 67, 99
1, 39509, Note_on_c, 4, 42, 0
1, 39509, Note_on_c, 9, 38, 25
1, 39510, Note_on_c, 9, 38, 0
1, 39511, Note_on_c, 4, 49, 0
1, 39513, Note_on_c, 1, 42, 0
1, 39531, Note_on_c, 2, 67, 0
1, 39531, Note_on_c, 6, 67, 0
1, 39552, Note_on_c, 1, 45, 124
1, 39553, Note_on_c, 9, 38, 53
1, 39554, Note_on_c, 2, 69, 107
1, 39554, Note_on_c, 9, 35, 111
1, 39555, Note_on_c, 6, 69, 107
1, 39556, Note_on_c, 9, 35, 0
1, 39556, Note_on_c, 9, 38, 0
1, 39556, Note_on_c, 4, 45, 127
1, 39600, Note_on_c, 4, 45, 0
1, 39602, Note_on_c, 6, 69, 0
1, 39602, Note_on_c, 2, 69, 0
1, 39602, Note_on_c, 2, 69, 101
1, 39602, Note_on_c, 6, 69, 101
1, 39605, Note_on_c, 9, 38, 42
1, 39606, Note_on_c, 9, 38, 0
1, 39631, Note_on_c, 6, 69, 0
1, 39631, Note_on_c, 2, 69, 0
1, 39647, Note_on_c, 0, 61, 117
1, 39648, Note_on_c, 0, 67, 101
1, 39648, Note_on_c, 0, 64, 114
1, 39648, Note_on_c, 0, 57, 117
1, 39649, Note_on_c, 9, 40, 97
1, 39650, Note_on_c, 9, 40, 0
1, 39650, Note_on_c, 9, 28, 91
1, 39651, Note_on_c, 9, 28, 0
1, 39651, Note_on_c, 4, 42, 127
1, 39655, Note_on_c, 4, 49, 127
1, 39658, Note_on_c, 1, 45, 0
1, 39679, Note_on_c, 0, 64, 0
1, 39680, Note_on_c, 0, 67, 0
1, 39682, Note_on_c, 0, 61, 0
1, 39683, Note_on_c, 0, 57, 0
1, 39695, Note_on_c, 1, 40, 119
1, 39695, Note_on_c, 2, 69, 123
1, 39696, Note_on_c, 6, 69, 123
1, 39697, Note_on_c, 9, 35, 68
1, 39698, Note_on_c, 9, 35, 0
1, 39701, Note_on_c, 4, 49, 0
1, 39701, Note_on_c, 9, 38, 27
1, 39702, Note_on_c, 9, 38, 0
1, 39702, Note_on_c, 4, 42, 0
1, 39718, Note_on_c, 1, 40, 0
1, 39743, Note_on_c, 1, 43, 126
1, 39745, Note_on_c, 9, 38, 52
1, 39745, Note_on_c, 9, 35, 110
1, 39747, Note_on_c, 9, 35, 0
1, 39747, Note_on_c, 9, 38, 0
1, 39747, Note_on_c, 4, 40, 127
1, 39789, Note_on_c, 6, 69, 0
1, 39790, Note_on_c, 2, 69, 0
1, 39794, Note_on_c, 2, 72, 105
1, 39795, Note_on_c, 6, 72, 105
1, 39797, Note_on_c, 9, 38, 47
1, 39798, Note_on_c, 9, 38, 0
1, 39801, Note_on_c, 1, 43, 0
1, 39805, Note_on_c, 4, 40, 0
1, 39831, Note_on_c, 6, 72, 0
1, 39832, Note_on_c, 2, 72, 0
1, 39838, Note_on_c, 0, 67, 107
1, 39839, Note_on_c, 0, 61, 117
1, 39840, Note_on_c, 0, 64, 117
1, 39840, Note_on_c, 1, 40, 127
1, 39841, Note_on_c, 0, 57, 117
1, 39841, Note_on_c, 9, 40, 96
1, 39842, Note_on_c, 9, 40, 0
1, 39842, Note_on_c, 9, 28, 92
1, 39843, Note_on_c, 9, 28, 0
1, 39844, Note_on_c, 4, 42, 127
1, 39846, Note_on_c, 4, 49, 127
1, 39877, Note_on_c, 0, 57, 0
1, 39877, Note_on_c, 0, 64, 0
1, 39878, Note_on_c, 4, 42, 0
1, 39879, Note_on_c, 0, 61, 0
1, 39879, Note_on_c, 4, 49, 0
1, 39881, Note_on_c, 0, 67, 0
1, 39893, Note_on_c, 9, 38, 23
1, 39894, Note_on_c, 9, 38, 0
1, 39894, Note_on_c, 1, 40, 0
1, 39896, Control_c, 2, 1, 1
1, 39896, Control_c, 6, 1, 7
1, 39897, Note_on_c, 4, 45, 127
1, 39898, Control_c, 2, 1, 7
1, 39898, Note_on_c, 4, 57, 127
1, 39900, Control_c, 6, 1, 17
1, 39901, Control_c, 2, 1, 17
1, 39903, Control_c, 2, 1, 31
1, 39903, Control_c, 6, 1, 48
1, 39905, Control_c, 2, 1, 48
1, 39908, Control_c, 2, 1, 64
1, 39908, Control_c, 6, 1, 78
1, 39911, Control_c, 2, 1, 78
1, 39912, Control_c, 2, 1, 91
1, 39912, Control_c, 6, 1, 101
1, 39915, Control_c, 2, 1, 101
1, 39917, Control_c, 2, 1, 109
1, 39917, Control_c, 6, 1, 116
1, 39919, Control_c, 2, 1, 116
1, 39922, Control_c, 2, 1, 120
1, 39922, Control_c, 6, 1, 121
1, 39923, Control_c, 2, 1, 121
1, 39926, Control_c, 2, 1, 117
1, 39926, Control_c, 6, 1, 105
1, 39929, Control_c, 2, 1, 105
1, 39932, Control_c, 2, 1, 85
1, 39932, Control_c, 6, 1, 60
1, 39933, Note_on_c, 4, 57, 0
1, 39934, Note_on_c, 4, 45, 0
1, 39934, Control_c, 2, 1, 60
1, 39936, Note_on_c, 1, 33, 123
1, 39936, Control_c, 2, 1, 34
1, 39936, Control_c, 6, 1, 34
1, 39937, Control_c, 6, 1, 4
1, 39937, Note_on_c, 9, 38, 43
1, 39938, Control_c, 2, 1, 15
1, 39938, Note_on_c, 9, 35, 111
1, 39939, Control_c, 2, 1, 4
1, 39940, Note_on_c, 9, 35, 0
1, 39940, Note_on_c, 9, 38, 0
1, 39940, Note_on_c, 4, 45, 127
1, 39942, Control_c, 6, 1, 0
1, 39943, Control_c, 2, 1, 0
1, 39980, Note_on_c, 4, 45, 0
1, 39989, Note_on_c, 9, 38, 45
1, 39990, Note_on_c, 9, 38, 0
1, 39991, Note_on_c, 4, 42, 127
1, 39995, Note_on_c, 4, 57, 127
1, 39996, Pitch_bend_c, 2, 8128
1, 39996, Pitch_bend_c, 6, 8000
1, 39998, Pitch_bend_c, 2, 8000
1, 40000, Pitch_bend_c, 6, 7712
1, 40001, Pitch_bend_c, 2, 7712
1, 40003, Pitch_bend_c, 2, 7424
1, 40003, Pitch_bend_c, 6, 6976
1, 40004, Pitch_bend_c, 2, 6976
1, 40008, Pitch_bend_c, 2, 6464
1, 40008, Pitch_bend_c, 6, 6464
1, 40010, Pitch_bend_c, 6, 5344
1, 40011, Pitch_bend_c, 2, 5920
1, 40012, Pitch_bend_c, 2, 5344
1, 40015, Pitch_bend_c, 2, 4832
1, 40015, Pitch_bend_c, 6, 4832
1, 40018, Pitch_bend_c, 2, 4384
1, 40018, Pitch_bend_c, 6, 4384
1, 40020, Pitch_bend_c, 6, 3680
1, 40021, Pitch_bend_c, 2, 4000
1, 40022, Pitch_bend_c, 2, 3680
1, 40023, Note_on_c, 4, 42, 0
1, 40025, Pitch_bend_c, 6, 3456
1, 40026, Pitch_bend_c, 2, 3456
1, 40028, Note_on_c, 4, 57, 0
1, 40028, Pitch_bend_c, 6, 3328
1, 40029, Pitch_bend_c, 2, 3392
1, 40030, Note_on_c, 0, 61, 117
1, 40030, Pitch_bend_c, 2, 3328
1, 40031, Note_on_c, 0, 67, 111
1, 40032, Note_on_c, 0, 57, 117
1, 40033, Note_on_c, 0, 64, 117
1, 40033, Note_on_c, 9, 40, 98
1, 40034, Note_on_c, 9, 40, 0
1, 40034, Note_on_c, 2, 69, 119
1, 40034, Note_on_c, 9, 28, 94
1, 40035, Note_on_c, 9, 28, 0
1, 40035, Note_on_c, 6, 69, 119
1, 40036, Pitch_bend_c, 6, 3552
1, 40037, Pitch_bend_c, 2, 3392
1, 40038, Pitch_bend_c, 2, 3552
1, 40039, Note_on_c, 4, 42, 127
1, 40040, Pitch_bend_c, 6, 3776
1, 40041, Note_on_c, 1, 33, 0
1, 40041, Pitch_bend_c, 2, 3776
1, 40042, Note_on_c, 4, 49, 127
1, 40043, Pitch_bend_c, 2, 4128
1, 40043, Pitch_bend_c, 6, 4128
1, 40044, Pitch_bend_c, 6, 5280
1, 40045, Pitch_bend_c, 2, 4608
1, 40046, Pitch_bend_c, 2, 5280
1, 40046, Pitch_bend_c, 6, 6048
1, 40047, Pitch_bend_c, 2, 6048
1, 40049, Pitch_bend_c, 6, 7584
1, 40050, Pitch_bend_c, 2, 6944
1, 40052, Pitch_bend_c, 2, 7584
1, 40053, Pitch_bend_c, 6, 8032
1, 40054, Pitch_bend_c, 2, 8032
1, 40057, Pitch_bend_c, 2, 8192
1, 40057, Pitch_bend_c, 6, 8192
1, 40065, Note_on_c, 0, 64, 0
1, 40068, Note_on_c, 0, 67, 0
1, 40069, Note_on_c, 0, 61, 0
1, 40071, Note_on_c, 0, 57, 0
1, 40076, Note_on_c, 6, 69, 0
1, 40077, Note_on_c, 2, 69, 0
1, 40082, Note_on_c, 4, 42, 0
1, 40084, Note_on_c, 2, 69, 91
1, 40084, Note_on_c, 6, 69, 91
1, 40085, Note_on_c, 4, 49, 0
1, 40085, Note_on_c, 9, 38, 25
1, 40087, Note_on_c, 9, 38, 0
1, 40125, Note_on_c, 6, 69, 0
1, 40125, Note_on_c, 2, 69, 0
1, 40128, Note_on_c, 1, 43, 126
1, 40129, Note_on_c, 2, 72, 82
1, 40129, Note_on_c, 9, 38, 54
1, 40129, Note_on_c, 9, 35, 110
1, 40130, Note_on_c, 6, 72, 82
1, 40131, Note_on_c, 9, 35, 0
1, 40131, Note_on_c, 9, 38, 0
1, 40131, Note_on_c, 4, 43, 127
1, 40169, Note_on_c, 6, 72, 0
1, 40170, Note_on_c, 2, 72, 0
1, 40177, Note_on_c, 4, 43, 0
1, 40178, Note_on_c, 2, 69, 92
1, 40178, Note_on_c, 6, 69, 92
1, 40181, Note_on_c, 9, 38, 45
1, 40183, Note_on_c, 9, 38, 0
1, 40183, Note_on_c, 1, 43, 0
1, 40223, Note_on_c, 0, 61, 117
1, 40224, Note_on_c, 0, 67, 107
1, 40224, Note_on_c, 0, 57, 117
1, 40224, Note_on_c, 1, 42, 123
1, 40225, Note_on_c, 0, 64, 113
1, 40225, Note_on_c, 9, 40, 97
1, 40226, Note_on_c, 9, 40, 0
1, 40226, Note_on_c, 6, 69, 0
1, 40226, Note_on_c, 9, 28, 90
1, 40227, Note_on_c, 9, 28, 0
1, 40227, Note_on_c, 2, 69, 0
1, 40228, Note_on_c, 2, 67, 89
1, 40229, Note_on_c, 6, 67, 89
1, 40230, Note_on_c, 4, 42, 127
1, 40231, Note_on_c, 4, 49, 127
1, 40262, Note_on_c, 0, 64, 0
1, 40263, Note_on_c, 0, 57, 0
1, 40267, Note_on_c, 0, 67, 0
1, 40267, Note_on_c, 0, 61, 0
1, 40272, Note_on_c, 2, 67, 0
1, 40272, Note_on_c, 6, 67, 0
1, 40272, Note_on_c, 2, 69, 97
1, 40272, Note_on_c, 6, 69, 97
1, 40277, Note_on_c, 4, 42, 0
1, 40277, Note_on_c, 9, 38, 25
1, 40278, Note_on_c, 9, 38, 0
1, 40278, Note_on_c, 4, 49, 0
1, 40282, Note_on_c, 1, 42, 0
1, 40320, Note_on_c, 1, 45, 120
1, 40321, Note_on_c, 9, 38, 53
1, 40322, Note_on_c, 9, 35, 111
1, 40323, Note_on_c, 4, 45, 127
1, 40324, Note_on_c, 9, 35, 0
1, 40324, Note_on_c, 9, 38, 0
1, 40352, Control_c, 6, 1, 2
1, 40353, Control_c, 2, 1, 2
1, 40355, Control_c, 6, 1, 7
1, 40356, Control_c, 2, 1, 7
1, 40359, Control_c, 2, 1, 10
1, 40359, Control_c, 6, 1, 12
1, 40361, Control_c, 2, 1, 12
1, 40363, Control_c, 2, 1, 14
1, 40363, Control_c, 6, 1, 16
1, 40366, Control_c, 2, 1, 16
1, 40368, Note_on_c, 4, 45, 0
1, 40368, Control_c, 6, 1, 20
1, 40369, Control_c, 2, 1, 18
1, 40370, Control_c, 2, 1, 20
1, 40373, Control_c, 2, 1, 22
1, 40373, Control_c, 6, 1, 22
1, 40373, Note_on_c, 9, 38, 42
1, 40374, Note_on_c, 9, 38, 0
1, 40376, Control_c, 2, 1, 25
1, 40376, Control_c, 6, 1, 29
1, 40378, Control_c, 2, 1, 29
1, 40381, Control_c, 6, 1, 42
1, 40382, Control_c, 2, 1, 42
1, 40385, Control_c, 6, 1, 56
1, 40386, Control_c, 2, 1, 49
1, 40388, Control_c, 2, 1, 56
1, 40390, Control_c, 2, 1, 62
1, 40390, Control_c, 6, 1, 68
1, 40392, Control_c, 2, 1, 68
1, 40395, Control_c, 6, 1, 76
1, 40396, Control_c, 2, 1, 76
1, 40399, Control_c, 2, 1, 79
1, 40399, Control_c, 6, 1, 82
1, 40401, Control_c, 2, 1, 82
1, 40403, Control_c, 2, 1, 85
1, 40403, Control_c, 6, 1, 87
1, 40406, Control_c, 2, 1, 87
1, 40408, Control_c, 6, 1, 93
1, 40409, Control_c, 2, 1, 90
1, 40411, Control_c, 2, 1, 93
1, 40413, Control_c, 2, 1, 96
1, 40413, Control_c, 6, 1, 99
1, 40415, Note_on_c, 0, 67, 99
1, 40415, Note_on_c, 0, 61, 117
1, 40416, Note_on_c, 0, 57, 114
1, 40416, Note_on_c, 9, 40, 97
1, 40417, Note_on_c, 0, 64, 117
1, 40417, Note_on_c, 9, 28, 91
1, 40418, Note_on_c, 9, 40, 0
1, 40418, Control_c, 2, 1, 99
1, 40419, Note_on_c, 9, 28, 0
1, 40419, Note_on_c, 6, 69, 0
1, 40420, Control_c, 6, 1, 101
1, 40421, Note_on_c, 2, 69, 0
1, 40422, Control_c, 2, 1, 101
1, 40423, Note_on_c, 4, 42, 127
1, 40424, Control_c, 6, 1, 102
1, 40425, Control_c, 2, 1, 102
1, 40426, Note_on_c, 4, 49, 127
1, 40426, Control_c, 6, 1, 88
1, 40427, Control_c, 2, 1, 98
1, 40428, Note_on_c, 1, 45, 0
1, 40428, Control_c, 2, 1, 88
1, 40430, Control_c, 2, 1, 73
1, 40430, Control_c, 6, 1, 55
1, 40432, Control_c, 2, 1, 55
1, 40436, Control_c, 2, 1, 36
1, 40436, Control_c, 6, 1, 20
1, 40437, Control_c, 2, 1, 20
1, 40440, Control_c, 2, 1, 9
1, 40440, Control_c, 6, 1, 2
1, 40442, Control_c, 2, 1, 2
1, 40444, Control_c, 2, 1, 0
1, 40444, Control_c, 6, 1, 0
1, 40448, Note_on_c, 0, 64, 0
1, 40452, Note_on_c, 0, 61, 0
1, 40452, Note_on_c, 0, 57, 0
1, 40454, Note_on_c, 0, 67, 0
1, 40463, Note_on_c, 1, 40, 111
1, 40465, Note_on_c, 9, 35, 68
1, 40466, Note_on_c, 9, 35, 0
1, 40469, Note_on_c, 4, 49, 0
1, 40469, Note_on_c, 9, 38, 27
1, 40470, Note_on_c, 9, 38, 0
1, 40470, Note_on_c, 4, 42, 0
1, 40485, Note_on_c, 1, 40, 0
1, 40511, Note_on_c, 1, 43, 126
1, 40513, Note_on_c, 2, 74, 77
1, 40513, Note_on_c, 9, 38, 52
1, 40513, Note_on_c, 9, 35, 110
1, 40514, Note_on_c, 6, 74, 77
1, 40515, Note_on_c, 9, 35, 0
1, 40515, Note_on_c, 9, 38, 0
1, 40515, Note_on_c, 4, 40, 127
1, 40561, Note_on_c, 2, 72, 78
1, 40562, Note_on_c, 6, 72, 78
1, 40563, Note_on_c, 6, 74, 0
1, 40564, Note_on_c, 2, 74, 0
1, 40565, Note_on_c, 9, 38, 47
1, 40566, Note_on_c, 9, 38, 0
1, 40566, Note_on_c, 1, 43, 0
1, 40573, Note_on_c, 4, 40, 0
1, 40576, Pitch_bend_c, 2, 8096
1, 40576, Pitch_bend_c, 6, 8096
1, 40578, Pitch_bend_c, 2, 8192
1, 40578, Pitch_bend_c, 6, 8192
1, 40583, Note_on_c, 6, 72, 0
1, 40583, Note_on_c, 2, 72, 0
1, 40585, Pitch_bend_c, 2, 8301
1, 40585, Pitch_bend_c, 6, 8301
1, 40588, Pitch_bend_c, 2, 8192
1, 40588, Pitch_bend_c, 6, 8192
1, 40604, Pitch_bend_c, 6, 1376
1, 40605, Pitch_bend_c, 2, 1376
1, 40606, Pitch_bend_c, 2, 800
1, 40606, Pitch_bend_c, 6, 800
1, 40607, Note_on_c, 0, 61, 117
1, 40608, Note_on_c, 0, 57, 117
1, 40608, Note_on_c, 1, 40, 127
1, 40609, Note_on_c, 0, 64, 117
1, 40609, Note_on_c, 9, 40, 96
1, 40609, Note_on_c, 9, 28, 92
1, 40610, Note_on_c, 9, 40, 0
1, 40610, Note_on_c, 0, 67, 105
1, 40611, Note_on_c, 9, 28, 0
1, 40611, Pitch_bend_c, 6, 0
1, 40612, Pitch_bend_c, 2, 352
1, 40613, Note_on_c, 2, 76, 127
1, 40614, Note_on_c, 6, 76, 127
1, 40615, Pitch_bend_c, 2, 0
1, 40616, Note_on_c, 4, 42, 127
1, 40617, Note_on_c, 4, 49, 127
1, 40637, Pitch_bend_c, 2, 160
1, 40637, Pitch_bend_c, 6, 160
1, 40640, Note_on_c, 9, 38, 53
1, 40641, Pitch_bend_c, 6, 1696
1, 40642, Note_on_c, 9, 38, 0
1, 40642, Pitch_bend_c, 2, 832
1, 40643, Pitch_bend_c, 2, 1696
1, 40645, Pitch_bend_c, 2, 2752
1, 40645, Pitch_bend_c, 6, 2752
1, 40646, Note_on_c, 4, 42, 0
1, 40647, Pitch_bend_c, 6, 5184
1, 40648, Pitch_bend_c, 2, 3968
1, 40649, Note_on_c, 4, 49, 0
1, 40650, Pitch_bend_c, 2, 5184
1, 40651, Pitch_bend_c, 6, 6400
1, 40652, Note_on_c, 0, 61, 0
1, 40652, Pitch_bend_c, 2, 6400
1, 40653, Note_on_c, 0, 57, 0
1, 40654, Note_on_c, 0, 64, 0
1, 40654, Note_on_c, 0, 67, 0
1, 40655, Pitch_bend_c, 6, 7968
1, 40656, Pitch_bend_c, 2, 7968
1, 40659, Note_on_c, 6, 76, 0
1, 40659, Pitch_bend_c, 6, 8192
1, 40660, Note_on_c, 2, 76, 0
1, 40661, Pitch_bend_c, 2, 8192
1, 40663, Note_on_c, 1, 40, 0
1, 40665, Note_on_c, 4, 45, 127
1, 40667, Note_on_c, 4, 57, 127
1, 40673, Note_on_c, 9, 38, 63
1, 40675, Note_on_c, 9, 38, 0
1, 40696, Pitch_bend_c, 2, 8096
1, 40696, Pitch_bend_c, 6, 0
1, 40698, Pitch_bend_c, 2, 0
1, 40701, Note_on_c, 4, 57, 0
1, 40702, Note_on_c, 4, 45, 0
1, 40704, Note_on_c, 1, 33, 127
1, 40705, Note_on_c, 9, 38, 43
1, 40706, Note_on_c, 9, 35, 111
1, 40707, Note_on_c, 2, 76, 127
1, 40708, Note_on_c, 9, 35, 0
1, 40708, Note_on_c, 9, 38, 0
1, 40708, Note_on_c, 6, 76, 127
1, 40709, Note_on_c, 4, 45, 127
1, 40741, Pitch_bend_c, 6, 96
1, 40742, Pitch_bend_c, 6, 832
1, 40745, Pitch_bend_c, 6, 3520
1, 40748, Note_on_c, 4, 45, 0
1, 40750, Pitch_bend_c, 2, 5184
1, 40750, Pitch_bend_c, 6, 6656
1, 40752, Pitch_bend_c, 2, 6656
1, 40755, Pitch_bend_c, 6, 7616
1, 40756, Pitch_bend_c, 2, 7616
1, 40756, Pitch_bend_c, 6, 8160
1, 40757, Pitch_bend_c, 2, 8160
1, 40757, Note_on_c, 9, 38, 45
1, 40758, Note_on_c, 9, 38, 0
1, 40759, Note_on_c, 4, 42, 127
1, 40760, Pitch_bend_c, 2, 8192
1, 40760, Pitch_bend_c, 6, 8192
1, 40762, Note_on_c, 4, 57, 127
1, 40782, Pitch_bend_c, 2, 8000
1, 40782, Pitch_bend_c, 6, 8000
1, 40785, Pitch_bend_c, 2, 7296
1, 40785, Pitch_bend_c, 6, 6112
1, 40786, Pitch_bend_c, 2, 6112
1, 40789, Pitch_bend_c, 6, 4384
1, 40790, Pitch_bend_c, 2, 4384
1, 40792, Note_on_c, 4, 42, 0
1, 40792, Pitch_bend_c, 6, 2528
1, 40793, Pitch_bend_c, 2, 2528
1, 40794, Pitch_bend_c, 2, 1024
1, 40794, Pitch_bend_c, 6, 1024
1, 40796, Note_on_c, 4, 57, 0
1, 40799, Note_on_c, 0, 61, 117
1, 40800, Note_on_c, 0, 67, 107
1, 40800, Note_on_c, 0, 64, 117
1, 40800, Note_on_c, 9, 40, 98
1, 40801, Note_on_c, 0, 57, 117
1, 40801, Note_on_c, 9, 28, 94
1, 40802, Note_on_c, 9, 40, 0
1, 40802, Note_on_c, 6, 76, 0
1, 40803, Note_on_c, 9, 28, 0
1, 40803, Note_on_c, 2, 76, 0
1, 40804, Pitch_bend_c, 6, 0
1, 40805, Pitch_bend_c, 2, 0
1, 40806, Note_on_c, 2, 74, 118
1, 40807, Note_on_c, 6, 74, 118
1, 40808, Note_on_c, 4, 42, 127
1, 40809, Note_on_c, 4, 49, 127
1, 40813, Note_on_c, 1, 33, 0
1, 40835, Note_on_c, 0, 64, 0
1, 40836, Note_on_c, 0, 67, 0
1, 40837, Note_on_c, 0, 57, 0
1, 40838, Note_on_c, 0, 61, 0
1, 40850, Note_on_c, 4, 42, 0
1, 40853, Note_on_c, 4, 49, 0
1, 40853, Note_on_c, 9, 38, 25
1, 40854, Note_on_c, 9, 38, 0
1, 40876, Note_on_c, 6, 74, 0
1, 40876, Note_on_c, 2, 74, 0
1, 40896, Note_on_c, 1, 43, 124
1, 40897, Note_on_c, 9, 38, 54
1, 40897, Note_on_c, 9, 35, 110
1, 40899, Note_on_c, 9, 35, 0
1, 40899, Note_on_c, 9, 38, 0
1, 40900, Note_on_c, 4, 43, 127
1, 40945, Note_on_c, 4, 43, 0
1, 40949, Note_on_c, 9, 38, 45
1, 40951, Note_on_c, 9, 38, 0
1, 40952, Note_on_c, 1, 43, 0
1, 40992, Note_on_c, 0, 64, 117
1, 40992, Note_on_c, 0, 67, 99
1, 40992, Note_on_c, 0, 61, 117
1, 40992, Note_on_c, 1, 42, 127
1, 40992, Note_on_c, 9, 40, 97
1, 40993, Note_on_c, 0, 57, 113
1, 40994, Note_on_c, 9, 40, 0
1, 40994, Note_on_c, 9, 28, 90
1, 40995, Note_on_c, 9, 28, 0
1, 40995, Note_on_c, 4, 42, 127
1, 40997, Note_on_c, 4, 49, 127
1, 41010, Pitch_bend_c, 6, 1024
1, 41011, Pitch_bend_c, 2, 384
1, 41014, Pitch_bend_c, 2, 1024
1, 41016, Pitch_bend_c, 2, 3360
1, 41016, Pitch_bend_c, 6, 3360
1, 41024, Note_on_c, 0, 57, 0
1, 41025, Note_on_c, 0, 61, 0
1, 41027, Note_on_c, 0, 67, 0
1, 41030, Note_on_c, 0, 64, 0
1, 41031, Pitch_bend_c, 2, 3010
1, 41031, Pitch_bend_c, 6, 2940
1, 41032, Pitch_bend_c, 2, 2940
1, 41041, Note_on_c, 2, 76, 127
1, 41041, Note_on_c, 6, 76, 127
1, 41045, Note_on_c, 4, 42, 0
1, 41045, Note_on_c, 9, 38, 25
1, 41046, Note_on_c, 9, 38, 0
1, 41046, Note_on_c, 4, 49, 0
1, 41047, Note_on_c, 1, 42, 0
1, 41052, Pitch_bend_c, 2, 3108
1, 41052, Pitch_bend_c, 6, 3108
1, 41054, Pitch_bend_c, 2, 3360
1, 41054, Pitch_bend_c, 6, 3360
1, 41060, Pitch_bend_c, 2, 2720
1, 41060, Pitch_bend_c, 6, 2816
1, 41063, Pitch_bend_c, 2, 2816
1, 41065, Pitch_bend_c, 6, 2944
1, 41066, Pitch_bend_c, 2, 2944
1, 41068, Pitch_bend_c, 2, 3072
1, 41068, Pitch_bend_c, 6, 3168
1, 41069, Pitch_bend_c, 2, 3168
1, 41073, Pitch_bend_c, 2, 3296
1, 41073, Pitch_bend_c, 6, 3296
1, 41075, Pitch_bend_c, 6, 3456
1, 41076, Pitch_bend_c, 2, 3456
1, 41077, Pitch_bend_c, 2, 3712
1, 41077, Pitch_bend_c, 6, 4096
1, 41080, Pitch_bend_c, 2, 4096
1, 41084, Pitch_bend_c, 2, 4608
1, 41084, Pitch_bend_c, 6, 4608
1, 41085, Pitch_bend_c, 2, 5376
1, 41085, Pitch_bend_c, 6, 6304
1, 41087, Note_on_c, 1, 45, 120
1, 41087, Pitch_bend_c, 2, 6304
1, 41089, Pitch_bend_c, 6, 7168
1, 41089, Note_on_c, 9, 38, 53
1, 41090, Pitch_bend_c, 2, 7168
1, 41090, Note_on_c, 9, 35, 111
1, 41091, Note_on_c, 4, 45, 127
1, 41092, Note_on_c, 9, 35, 0
1, 41092, Note_on_c, 9, 38, 0
1, 41092, Pitch_bend_c, 6, 8160
1, 41093, Pitch_bend_c, 2, 7808
1, 41094, Pitch_bend_c, 2, 8160
1, 41096, Pitch_bend_c, 6, 8192
1, 41097, Pitch_bend_c, 2, 8192
1, 41120, Note_on_c, 6, 76, 0
1, 41121, Note_on_c, 2, 76, 0
1, 41135, Note_on_c, 4, 45, 0
1, 41138, Note_on_c, 2, 72, 107
1, 41139, Note_on_c, 6, 72, 107
1, 41140, Note_on_c, 9, 38, 42
1, 41142, Note_on_c, 9, 38, 0
1, 41173, Note_on_c, 6, 72, 0
1, 41173, Note_on_c, 2, 72, 0
1, 41183, Note_on_c, 0, 61, 117
1, 41183, Note_on_c, 0, 67, 110
1, 41184, Note_on_c, 0, 64, 117
1, 41185, Note_on_c, 0, 57, 107
1, 41185, Note_on_c, 9, 40, 97
1, 41186, Note_on_c, 9, 40, 0
1, 41186, Note_on_c, 2, 74, 117
1, 41186, Note_on_c, 9, 28, 91
1, 41187, Note_on_c, 9, 28, 0
1, 41187, Note_on_c, 6, 74, 117
1, 41188, Note_on_c, 4, 42, 127
1, 41192, Note_on_c, 4, 49, 127
1, 41195, Note_on_c, 1, 45, 0
1, 41216, Note_on_c, 0, 57, 0
1, 41217, Note_on_c, 0, 64, 0
1, 41219, Note_on_c, 0, 67, 0
1, 41220, Note_on_c, 0, 61, 0
1, 41231, Control_c, 2, 1, 3
1, 41231, Control_c, 6, 1, 10
1, 41232, Note_on_c, 1, 40, 119
1, 41233, Control_c, 2, 1, 10
1, 41233, Note_on_c, 9, 35, 68
1, 41235, Note_on_c, 9, 35, 0
1, 41236, Control_c, 6, 1, 29
1, 41237, Control_c, 2, 1, 19
1, 41237, Note_on_c, 9, 38, 27
1, 41238, Note_on_c, 9, 38, 0
1, 41238, Note_on_c, 4, 49, 0
1, 41239, Note_on_c, 4, 42, 0
1, 41240, Control_c, 2, 1, 29
1, 41241, Control_c, 6, 1, 40
1, 41242, Control_c, 2, 1, 35
1, 41243, Control_c, 2, 1, 40
1, 41245, Control_c, 2, 1, 44
1, 41245, Control_c, 6, 1, 48
1, 41247, Control_c, 2, 1, 48
1, 41249, Control_c, 2, 1, 51
1, 41249, Control_c, 6, 1, 55
1, 41252, Control_c, 2, 1, 55
1, 41254, Control_c, 6, 1, 60
1, 41255, Control_c, 2, 1, 57
1, 41257, Control_c, 2, 1, 60
1, 41259, Note_on_c, 1, 40, 0
1, 41259, Control_c, 2, 1, 62
1, 41259, Control_c, 6, 1, 66
1, 41262, Control_c, 2, 1, 66
1, 41264, Control_c, 2, 1, 71
1, 41264, Control_c, 6, 1, 71
1, 41267, Control_c, 2, 1, 77
1, 41267, Control_c, 6, 1, 84
1, 41269, Control_c, 2, 1, 84
1, 41271, Control_c, 2, 1, 92
1, 41271, Control_c, 6, 1, 97
1, 41273, Control_c, 2, 1, 97
1, 41276, Control_c, 6, 1, 0
1, 41277, Note_on_c, 6, 74, 0
1, 41278, Control_c, 2, 1, 102
1, 41279, Note_on_c, 2, 74, 0
1, 41280, Note_on_c, 1, 43, 126
1, 41280, Control_c, 2, 1, 0
1, 41281, Note_on_c, 2, 72, 105
1, 41281, Note_on_c, 9, 38, 52
1, 41281, Note_on_c, 9, 35, 110
1, 41282, Note_on_c, 6, 72, 105
1, 41283, Note_on_c, 9, 35, 0
1, 41283, Note_on_c, 9, 38, 0
1, 41283, Control_c, 6, 1, 0
1, 41284, Control_c, 2, 1, 0
1, 41285, Note_on_c, 4, 40, 127
1, 41286, Control_c, 6, 1, 0
1, 41287, Control_c, 2, 1, 0
1, 41288, Control_c, 6, 1, 0
1, 41289, Control_c, 2, 1, 0
1, 41290, Control_c, 6, 1, 0
1, 41291, Control_c, 2, 1, 0
1, 41292, Control_c, 6, 1, 0
1, 41293, Control_c, 2, 1, 0
1, 41294, Control_c, 2, 1, 0
1, 41294, Control_c, 6, 1, 0
1, 41296, Control_c, 2, 1, 0
1, 41296, Control_c, 6, 1, 0
1, 41297, Control_c, 6, 1, 0
1, 41298, Control_c, 2, 1, 0
1, 41299, Control_c, 6, 1, 0
1, 41300, Control_c, 2, 1, 0
1, 41302, Control_c, 6, 1, 0
1, 41303, Control_c, 2, 1, 0
1, 41305, Control_c, 2, 1, 0
1, 41305, Control_c, 6, 1, 0
1, 41307, Control_c, 2, 1, 0
1, 41307, Control_c, 6, 1, 0
1, 41310, Control_c, 2, 1, 0
1, 41310, Control_c, 6, 1, 0
1, 41312, Control_c, 2, 1, 0
1, 41312, Control_c, 6, 1, 0
1, 41313, Control_c, 6, 1, 0
1, 41314, Control_c, 2, 1, 0
1, 41317, Control_c, 2, 1, 0
1, 41317, Control_c, 6, 1, 0
1, 41318, Control_c, 6, 1, 0
1, 41319, Control_c, 2, 1, 0
1, 41321, Control_c, 2, 1, 0
1, 41321, Control_c, 6, 1, 0
1, 41329, Note_on_c, 6, 72, 0
1, 41329, Note_on_c, 2, 72, 0
1, 41331, Note_on_c, 2, 69, 97
1, 41331, Note_on_c, 6, 69, 97
1, 41333, Note_on_c, 9, 38, 47
1, 41334, Note_on_c, 9, 38, 0
1, 41337, Note_on_c, 1, 43, 0
1, 41341, Note_on_c, 4, 40, 0
1, 41362, Note_on_c, 6, 69, 0
1, 41363, Note_on_c, 2, 69, 0
1, 41374, Note_on_c, 0, 61, 117
1, 41375, Note_on_c, 0, 67, 102
1, 41376, Note_on_c, 0, 57, 107
1, 41376, Note_on_c, 1, 40, 127
1, 41377, Note_on_c, 0, 64, 113
1, 41377, Note_on_c, 9, 40, 96
1, 41377, Note_on_c, 9, 28, 92
1, 41378, Note_on_c, 9, 40, 0
1, 41378, Note_on_c, 2, 72, 117
1, 41379, Note_on_c, 9, 28, 0
1, 41379, Note_on_c, 6, 72, 117
1, 41380, Note_on_c, 4, 42, 127
1, 41383, Note_on_c, 4, 49, 127
1, 41402, Control_c, 2, 1, 3
1, 41402, Control_c, 6, 1, 8
1, 41405, Control_c, 2, 1, 8
1, 41407, Control_c, 6, 1, 23
1, 41408, Note_on_c, 0, 64, 0
1, 41408, Control_c, 2, 1, 15
1, 41409, Note_on_c, 0, 57, 0
1, 41410, Note_on_c, 0, 67, 0
1, 41410, Control_c, 2, 1, 23
1, 41411, Note_on_c, 0, 61, 0
1, 41412, Control_c, 2, 1, 32
1, 41412, Control_c, 6, 1, 40
1, 41413, Note_on_c, 4, 42, 0
1, 41414, Control_c, 2, 1, 40
1, 41416, Note_on_c, 4, 49, 0
1, 41417, Control_c, 2, 1, 47
1, 41417, Control_c, 6, 1, 50
1, 41419, Control_c, 2, 1, 50
1, 41424, Control_c, 2, 1, 49
1, 41424, Control_c, 6, 1, 47
1, 41425, Control_c, 2, 1, 47
1, 41429, Note_on_c, 9, 38, 23
1, 41430, Note_on_c, 9, 38, 0
1, 41431, Note_on_c, 1, 40, 0
1, 41431, Control_c, 2, 1, 50
1, 41431, Control_c, 6, 1, 50
1, 41432, Note_on_c, 4, 45, 127
1, 41433, Control_c, 6, 1, 57
1, 41434, Control_c, 2, 1, 54
1, 41435, Note_on_c, 4, 57, 127
1, 41436, Control_c, 2, 1, 57
1, 41438, Control_c, 2, 1, 60
1, 41438, Control_c, 6, 1, 63
1, 41441, Control_c, 2, 1, 63
1, 41443, Control_c, 2, 1, 65
1, 41443, Control_c, 6, 1, 66
1, 41444, Control_c, 2, 1, 66
1, 41450, Control_c, 2, 1, 70
1, 41450, Control_c, 6, 1, 70
1, 41451, Control_c, 6, 1, 72
1, 41452, Control_c, 2, 1, 72
1, 41455, Control_c, 2, 1, 74
1, 41455, Control_c, 6, 1, 76
1, 41457, Control_c, 2, 1, 76
1, 41462, Control_c, 2, 1, 69
1, 41462, Control_c, 6, 1, 69
1, 41465, Control_c, 6, 1, 20
1, 41466, Control_c, 2, 1, 57
1, 41467, Control_c, 2, 1, 38
1, 41469, Note_on_c, 4, 57, 0
1, 41469, Control_c, 2, 1, 20
1, 41470, Note_on_c, 4, 45, 0
1, 41471, Note_on_c, 6, 72, 0
1, 41472, Note_on_c, 2, 72, 0
1, 41472, Note_on_c, 1, 33, 126
1, 41472, Control_c, 6, 1, 7
1, 41473, Control_c, 2, 1, 7
1, 41473, Note_on_c, 9, 38, 43
1, 41474, Note_on_c, 2, 69, 107
1, 41474, Note_on_c, 9, 35, 111
1, 41475, Note_on_c, 6, 69, 107
1, 41476, Note_on_c, 9, 35, 0
1, 41476, Note_on_c, 9, 38, 0
1, 41476, Control_c, 6, 1, 0
1, 41477, Control_c, 2, 1, 0
1, 41478, Note_on_c, 4, 45, 127
1, 41516, Note_on_c, 4, 45, 0
1, 41521, Note_on_c, 2, 67, 107
1, 41522, Note_on_c, 6, 69, 0
1, 41522, Note_on_c, 6, 67, 107
1, 41523, Note_on_c, 2, 69, 0
1, 41524, Note_on_c, 9, 38, 45
1, 41527, Note_on_c, 9, 38, 0
1, 41527, Note_on_c, 4, 42, 127
1, 41530, Note_on_c, 4, 57, 127
1, 41560, Note_on_c, 4, 42, 0
1, 41564, Note_on_c, 4, 57, 0
1, 41568, Note_on_c, 0, 61, 117
1, 41568, Note_on_c, 0, 67, 110
1, 41568, Note_on_c, 0, 64, 117
1, 41568, Note_on_c, 0, 57, 117
1, 41569, Note_on_c, 6, 67, 0
1, 41569, Note_on_c, 9, 40, 98
1, 41570, Note_on_c, 9, 40, 0
1, 41570, Note_on_c, 2, 67, 0
1, 41570, Note_on_c, 9, 28, 94
1, 41571, Note_on_c, 9, 28, 0
1, 41571, Note_on_c, 2, 64, 117
1, 41572, Note_on_c, 6, 64, 117
1, 41573, Note_on_c, 4, 42, 127
1, 41576, Note_on_c, 4, 49, 127
1, 41578, Note_on_c, 1, 33, 0
1, 41604, Note_on_c, 0, 67, 0
1, 41604, Note_on_c, 0, 64, 0
1, 41606, Pitch_bend_c, 6, 7840
1, 41607, Note_on_c, 0, 57, 0
1, 41607, Pitch_bend_c, 2, 8096
1, 41609, Note_on_c, 0, 61, 0
1, 41609, Pitch_bend_c, 2, 7840
1, 41611, Pitch_bend_c, 2, 7392
1, 41611, Pitch_bend_c, 6, 7392
1, 41613, Pitch_bend_c, 2, 6848
1, 41613, Pitch_bend_c, 6, 6144
1, 41615, Pitch_bend_c, 2, 6144
1, 41618, Note_on_c, 4, 42, 0
1, 41618, Pitch_bend_c, 6, 5408
1, 41619, Pitch_bend_c, 2, 5408
1, 41620, Pitch_bend_c, 6, 3968
1, 41621, Note_on_c, 4, 49, 0
1, 41621, Pitch_bend_c, 2, 4704
1, 41621, Note_on_c, 9, 38, 25
1, 41622, Note_on_c, 9, 38, 0
1, 41623, Pitch_bend_c, 2, 3968
1, 41625, Pitch_bend_c, 2, 3232
1, 41625, Pitch_bend_c, 6, 3232
1, 41627, Pitch_bend_c, 6, 2528
1, 41628, Pitch_bend_c, 2, 2528
1, 41630, Pitch_bend_c, 2, 1856
1, 41630, Pitch_bend_c, 6, 1216
1, 41633, Pitch_bend_c, 2, 1216
1, 41634, Pitch_bend_c, 2, 576
1, 41634, Pitch_bend_c, 6, 128
1, 41637, Pitch_bend_c, 2, 128
1, 41660, Note_on_c, 2, 64, 0
1, 41660, Note_on_c, 6, 64, 0
1, 41662, Pitch_bend_c, 6, 8192
1, 41663, Pitch_bend_c, 2, 8192
1, 41664, Note_on_c, 1, 43, 127
1, 41664, Note_on_c, 2, 57, 97
1, 41664, Note_on_c, 6, 57, 97
1, 41665, Note_on_c, 9, 38, 54
1, 41666, Note_on_c, 9, 35, 110
1, 41667, Note_on_c, 4, 43, 127
1, 41668, Note_on_c, 9, 35, 0
1, 41668, Note_on_c, 9, 38, 0
1, 41713, Note_on_c, 4, 43, 0
1, 41715, Note_on_c, 2, 52, 127
1, 41716, Note_on_c, 6, 52, 127
1, 41717, Note_on_c, 9, 38, 45
1, 41718, Note_on_c, 9, 38, 0
1, 41718, Note_on_c, 1, 43, 0
1, 41722, Note_on_c, 6, 57, 0
1, 41723, Note_on_c, 2, 57, 0
1, 41759, Note_on_c, 0, 61, 117
1, 41760, Note_on_c, 0, 67, 113
1, 41760, Note_on_c, 0, 64, 117
1, 41760, Note_on_c, 0, 57, 117
1, 41760, Note_on_c, 1, 42, 124
1, 41761, Note_on_c, 6, 52, 0
1, 41761, Note_on_c, 9, 40, 97
1, 41761, Note_on_c, 9, 28, 90
1, 41762, Note_on_c, 9, 40, 0
1, 41762, Note_on_c, 2, 52, 0
1, 41763, Note_on_c, 9, 28, 0
1, 41763, Note_on_c, 2, 60, 97
1, 41764, Note_on_c, 6, 60, 97
1, 41765, Note_on_c, 4, 42, 127
1, 41766, Note_on_c, 4, 49, 127
1, 41789, Note_on_c, 0, 67, 0
1, 41790, Note_on_c, 0, 64, 0
1, 41792, Note_on_c, 6, 60, 0
1, 41792, Note_on_c, 2, 60, 0
1, 41793, Note_on_c, 0, 57, 0
1, 41794, Note_on_c, 0, 61, 0
1, 41810, Note_on_c, 2, 57, 107
1, 41811, Note_on_c, 6, 57, 107
1, 41812, Note_on_c, 9, 38, 25
1, 41813, Note_on_c, 9, 38, 0
1, 41813, Note_on_c, 4, 42, 0
1, 41814, Note_on_c, 4, 49, 0
1, 41818, Note_on_c, 1, 42, 0
1, 41855, Note_on_c, 1, 45, 127
1, 41857, Note_on_c, 9, 38, 53
1, 41858, Note_on_c, 9, 35, 111
1, 41859, Note_on_c, 4, 45, 127
1, 41860, Note_on_c, 9, 35, 0
1, 41860, Note_on_c, 9, 38, 0
1, 41877, Pitch_bend_c, 2, 8160
1, 41877, Pitch_bend_c, 6, 8160
1, 41879, Pitch_bend_c, 2, 8000
1, 41879, Pitch_bend_c, 6, 7680
1, 41881, Pitch_bend_c, 2, 7680
1, 41883, Pitch_bend_c, 2, 7168
1, 41883, Pitch_bend_c, 6, 7168
1, 41886, Pitch_bend_c, 2, 6592
1, 41886, Pitch_bend_c, 6, 5952
1, 41888, Pitch_bend_c, 2, 5952
1, 41891, Pitch_bend_c, 2, 5312
1, 41891, Pitch_bend_c, 6, 5312
1, 41893, Pitch_bend_c, 2, 4736
1, 41893, Pitch_bend_c, 6, 4256
1, 41896, Pitch_bend_c, 2, 4256
1, 41898, Pitch_bend_c, 2, 3840
1, 41898, Pitch_bend_c, 6, 3840
1, 41901, Pitch_bend_c, 6, 3456
1, 41902, Pitch_bend_c, 2, 3456
1, 41903, Pitch_bend_c, 2, 3136
1, 41903, Pitch_bend_c, 6, 2816
1, 41904, Note_on_c, 4, 45, 0
1, 41906, Pitch_bend_c, 2, 2816
1, 41908, Pitch_bend_c, 6, 2272
1, 41909, Pitch_bend_c, 2, 2272
1, 41909, Note_on_c, 9, 38, 42
1, 41910, Note_on_c, 9, 38, 0
1, 41912, Pitch_bend_c, 6, 2080
1, 41913, Pitch_bend_c, 2, 2080
1, 41915, Pitch_bend_c, 2, 1856
1, 41915, Pitch_bend_c, 6, 1664
1, 41917, Pitch_bend_c, 2, 1664
1, 41920, Pitch_bend_c, 2, 1440
1, 41920, Pitch_bend_c, 6, 1440
1, 41922, Pitch_bend_c, 2, 1280
1, 41922, Pitch_bend_c, 6, 1280
1, 41924, Pitch_bend_c, 2, 1120
1, 41924, Pitch_bend_c, 6, 928
1, 41927, Pitch_bend_c, 2, 928
1, 41929, Pitch_bend_c, 2, 800
1, 41929, Pitch_bend_c, 6, 800
1, 41932, Pitch_bend_c, 2, 640
1, 41932, Pitch_bend_c, 6, 448
1, 41934, Pitch_bend_c, 2, 448
1, 41935, Note_on_c, 6, 57, 0
1, 41935, Note_on_c, 2, 57, 0
1, 41937, Pitch_bend_c, 6, 0
1, 41938, Pitch_bend_c, 2, 0
1, 41951, Note_on_c, 0, 61, 117
1, 41951, Note_on_c, 0, 67, 110
1, 41952, Note_on_c, 0, 57, 117
1, 41953, Note_on_c, 0, 64, 117
1, 41953, Note_on_c, 9, 40, 97
1, 41954, Note_on_c, 9, 40, 0
1, 41954, Note_on_c, 9, 28, 91
1, 41955, Note_on_c, 9, 28, 0
1, 41956, Note_on_c, 4, 42, 127
1, 41960, Note_on_c, 4, 49, 127
1, 41961, Note_on_c, 1, 45, 0
1, 41965, Pitch_bend_c, 2, 128
1, 41965, Pitch_bend_c, 6, 128
1, 41967, Pitch_bend_c, 2, 448
1, 41967, Pitch_bend_c, 6, 960
1, 41970, Pitch_bend_c, 2, 960
1, 41972, Pitch_bend_c, 2, 1600
1, 41972, Pitch_bend_c, 6, 1600
1, 41976, Pitch_bend_c, 2, 2464
1, 41976, Pitch_bend_c, 6, 2464
1, 41977, Pitch_bend_c, 6, 4800
1, 41978, Pitch_bend_c, 2, 3520
1, 41980, Pitch_bend_c, 2, 4800
1, 41981, Note_on_c, 0, 64, 0
1, 41982, Pitch_bend_c, 6, 6144
1, 41983, Note_on_c, 0, 67, 0
1, 41983, Pitch_bend_c, 2, 6144
1, 41984, Note_on_c, 0, 61, 0
1, 41985, Pitch_bend_c, 2, 7232
1, 41985, Pitch_bend_c, 6, 7904
1, 41986, Note_on_c, 0, 57, 0
1, 41987, Pitch_bend_c, 2, 7904
1, 41987, Pitch_bend_c, 6, 8192
1, 41988, Pitch_bend_c, 2, 8192
1, 42000, Note_on_c, 1, 40, 119
1, 42001, Note_on_c, 9, 35, 68
1, 42002, Note_on_c, 9, 35, 0
1, 42004, Note_on_c, 9, 38, 27
1, 42005, Note_on_c, 4, 49, 0
1, 42006, Note_on_c, 4, 42, 0
1, 42006, Note_on_c, 9, 38, 0
1, 42027, Note_on_c, 1, 40, 0
1, 42048, Note_on_c, 1, 43, 126
1, 42049, Note_on_c, 9, 38, 52
1, 42050, Note_on_c, 9, 35, 110
1, 42051, Note_on_c, 9, 35, 0
1, 42052, Note_on_c, 9, 38, 0
1, 42052, Note_on_c, 4, 40, 127
1, 42101, Note_on_c, 9, 38, 47
1, 42102, Note_on_c, 9, 38, 0
1, 42103, Note_on_c, 1, 43, 0
1, 42108, Note_on_c, 4, 40, 0
1, 42143, Note_on_c, 0, 61, 117
1, 42143, Note_on_c, 0, 67, 111
1, 42144, Note_on_c, 0, 64, 117
1, 42144, Note_on_c, 1, 40, 127
1, 42145, Note_on_c, 0, 57, 113
1, 42145, Note_on_c, 9, 40, 96
1, 42145, Note_on_c, 9, 28, 92
1, 42146, Note_on_c, 9, 40, 0
1, 42146, Note_on_c, 2, 57, 77
1, 42147, Note_on_c, 9, 28, 0
1, 42147, Note_on_c, 6, 57, 77
1, 42148, Note_on_c, 4, 42, 127
1, 42151, Note_on_c, 4, 49, 127
1, 42167, Note_on_c, 0, 57, 0
1, 42169, Note_on_c, 0, 64, 0
1, 42170, Note_on_c, 0, 67, 0
1, 42173, Note_on_c, 0, 61, 0
1, 42175, Note_on_c, 6, 57, 0
1, 42175, Note_on_c, 2, 57, 0
1, 42182, Note_on_c, 4, 42, 0
1, 42184, Note_on_c, 4, 49, 0
1, 42193, Note_on_c, 2, 55, 77
1, 42193, Note_on_c, 6, 55, 77
1, 42196, Note_on_c, 9, 38, 23
1, 42198, Note_on_c, 9, 38, 0
1, 42199, Note_on_c, 1, 40, 0
1, 42201, Note_on_c, 4, 45, 127
1, 42203, Note_on_c, 4, 57, 127
1, 42217, Note_on_c, 9, 38, 53
1, 42218, Note_on_c, 9, 38, 0
1, 42223, Note_on_c, 2, 55, 0
1, 42223, Note_on_c, 6, 55, 0
1, 42237, Note_on_c, 4, 57, 0
1, 42238, Note_on_c, 4, 45, 0
1, 42240, Note_on_c, 1, 33, 127
1, 42240, Note_on_c, 2, 57, 86
1, 42240, Note_on_c, 6, 57, 86
1, 42241, Note_on_c, 9, 38, 43
1, 42242, Note_on_c, 9, 35, 111
1, 42243, Note_on_c, 9, 35, 0
1, 42244, Note_on_c, 9, 38, 0
1, 42245, Note_on_c, 4, 45, 127
1, 42269, Note_on_c, 6, 57, 0
1, 42269, Note_on_c, 2, 57, 0
1, 42284, Note_on_c, 4, 45, 0
1, 42289, Note_on_c, 2, 60, 87
1, 42289, Note_on_c, 6, 60, 87
1, 42293, Note_on_c, 9, 38, 45
1, 42295, Note_on_c, 9, 38, 0
1, 42296, Note_on_c, 4, 42, 127
1, 42298, Note_on_c, 4, 57, 127
1, 42328, Note_on_c, 4, 42, 0
1, 42329, Note_on_c, 4, 57, 0
1, 42333, Note_on_c, 0, 61, 117
1, 42333, Note_on_c, 0, 67, 107
1, 42333, Note_on_c, 0, 64, 116
1, 42333, Note_on_c, 0, 57, 110
1, 42337, Note_on_c, 9, 40, 98
1, 42338, Note_on_c, 9, 40, 0
1, 42338, Note_on_c, 9, 28, 94
1, 42339, Note_on_c, 9, 28, 0
1, 42339, Note_on_c, 4, 42, 127
1, 42344, Note_on_c, 4, 49, 127
1, 42347, Note_on_c, 1, 33, 0
1, 42350, Note_on_c, 2, 60, 0
1, 42350, Note_on_c, 6, 60, 0
1, 42361, Note_on_c, 0, 67, 0
1, 42362, Note_on_c, 0, 57, 0
1, 42362, Note_on_c, 0, 64, 0
1, 42365, Note_on_c, 0, 61, 0
1, 42384, Note_on_c, 2, 67, 86
1, 42384, Note_on_c, 6, 67, 86
1, 42386, Note_on_c, 4, 42, 0
1, 42389, Note_on_c, 4, 49, 0
1, 42389, Note_on_c, 9, 38, 25
1, 42390, Note_on_c, 9, 38, 0
1, 42430, Note_on_c, 2, 67, 0
1, 42430, Note_on_c, 6, 67, 0
1, 42432, Note_on_c, 1, 43, 127
1, 42433, Note_on_c, 9, 38, 54
1, 42434, Note_on_c, 9, 35, 110
1, 42435, Note_on_c, 9, 35, 0
1, 42435, Note_on_c, 9, 38, 0
1, 42435, Note_on_c, 2, 69, 116
1, 42436, Note_on_c, 6, 69, 116
1, 42437, Note_on_c, 4, 43, 127
1, 42481, Note_on_c, 2, 67, 96
1, 42482, Note_on_c, 6, 69, 0
1, 42482, Note_on_c, 6, 67, 96
1, 42483, Note_on_c, 4, 43, 0
1, 42483, Note_on_c, 2, 69, 0
1, 42484, Note_on_c, 9, 38, 45
1, 42485, Note_on_c, 9, 38, 0
1, 42487, Note_on_c, 1, 43, 0
1, 42515, Note_on_c, 6, 67, 0
1, 42515, Note_on_c, 2, 67, 0
1, 42526, Note_on_c, 0, 61, 117
1, 42527, Note_on_c, 0, 57, 117
1, 42527, Note_on_c, 1, 42, 124
1, 42528, Note_on_c, 0, 64, 117
1, 42529, Note_on_c, 0, 67, 113
1, 42529, Note_on_c, 9, 40, 97
1, 42530, Note_on_c, 9, 40, 0
1, 42530, Note_on_c, 9, 28, 90
1, 42531, Note_on_c, 9, 28, 0
1, 42531, Note_on_c, 4, 42, 127
1, 42533, Note_on_c, 4, 49, 127
1, 42554, Note_on_c, 0, 67, 0
1, 42559, Note_on_c, 0, 64, 0
1, 42562, Note_on_c, 0, 61, 0
1, 42566, Note_on_c, 0, 57, 0
1, 42576, Note_on_c, 2, 64, 116
1, 42577, Note_on_c, 6, 64, 116
1, 42581, Note_on_c, 4, 42, 0
1, 42581, Note_on_c, 9, 38, 25
1, 42582, Note_on_c, 9, 38, 0
1, 42582, Note_on_c, 1, 42, 0
1, 42583, Note_on_c, 4, 49, 0
1, 42611, Note_on_c, 2, 64, 0
1, 42611, Note_on_c, 6, 64, 0
1, 42623, Note_on_c, 1, 45, 121
1, 42625, Note_on_c, 9, 38, 53
1, 42626, Note_on_c, 9, 35, 111
1, 42628, Note_on_c, 9, 35, 0
1, 42628, Note_on_c, 9, 38, 0
1, 42628, Note_on_c, 4, 45, 127
1, 42662, Pitch_bend_c, 6, 2940
1, 42663, Pitch_bend_c, 2, 2940
1, 42672, Note_on_c, 2, 64, 107
1, 42673, Note_on_c, 4, 45, 0
1, 42673, Note_on_c, 6, 64, 107
1, 42677, Note_on_c, 9, 38, 42
1, 42678, Note_on_c, 9, 38, 0
1, 42685, Pitch_bend_c, 6, 2816
1, 42686, Pitch_bend_c, 2, 2520
1, 42688, Pitch_bend_c, 2, 2816
1, 42692, Pitch_bend_c, 2, 3008
1, 42692, Pitch_bend_c, 6, 3424
1, 42694, Pitch_bend_c, 2, 3424
1, 42696, Pitch_bend_c, 2, 4000
1, 42696, Pitch_bend_c, 6, 4000
1, 42699, Pitch_bend_c, 6, 5792
1, 42700, Pitch_bend_c, 2, 5792
1, 42703, Pitch_bend_c, 2, 6752
1, 42703, Pitch_bend_c, 6, 6752
1, 42705, Pitch_bend_c, 2, 7552
1, 42705, Pitch_bend_c, 6, 8096
1, 42707, Pitch_bend_c, 2, 8096
1, 42710, Pitch_bend_c, 2, 8192
1, 42710, Pitch_bend_c, 6, 8192
1, 42718, Note_on_c, 0, 61, 117
1, 42719, Note_on_c, 0, 57, 117
1, 42720, Note_on_c, 0, 67, 102
1, 42720, Note_on_c, 9, 40, 97
1, 42721, Note_on_c, 0, 64, 117
1, 42722, Note_on_c, 9, 40, 0
1, 42722, Note_on_c, 6, 64, 0
1, 42722, Note_on_c, 9, 28, 91
1, 42723, Note_on_c, 9, 28, 0
1, 42723, Note_on_c, 2, 64, 0
1, 42724, Note_on_c, 2, 62, 97
1, 42725, Note_on_c, 6, 62, 97
1, 42726, Note_on_c, 4, 42, 127
1, 42728, Note_on_c, 4, 49, 127
1, 42729, Note_on_c, 1, 45, 0
1, 42749, Note_on_c, 0, 64, 0
1, 42749, Note_on_c, 0, 67, 0
1, 42750, Note_on_c, 0, 57, 0
1, 42751, Note_on_c, 0, 61, 0
1, 42768, Note_on_c, 1, 40, 116
1, 42769, Note_on_c, 2, 61, 97
1, 42769, Note_on_c, 9, 35, 68
1, 42770, Note_on_c, 9, 35, 0
1, 42770, Note_on_c, 6, 61, 97
1, 42771, Note_on_c, 6, 62, 0
1, 42772, Note_on_c, 2, 62, 0
1, 42772, Note_on_c, 9, 38, 27
1, 42773, Note_on_c, 4, 49, 0
1, 42774, Note_on_c, 4, 42, 0
1, 42774, Note_on_c, 9, 38, 0
1, 42799, Note_on_c, 1, 40, 0
1, 42816, Note_on_c, 1, 43, 126
1, 42816, Note_on_c, 2, 62, 107
1, 42817, Note_on_c, 6, 62, 107
1, 42817, Note_on_c, 9, 38, 52
1, 42817, Note_on_c, 9, 35, 110
1, 42818, Note_on_c, 6, 61, 0
1, 42819, Note_on_c, 9, 38, 0
1, 42819, Note_on_c, 2, 61, 0
1, 42819, Note_on_c, 9, 35, 0
1, 42820, Note_on_c, 4, 40, 127
1, 42855, Note_on_c, 1, 43, 0
1, 42864, Note_on_c, 2, 62, 0
1, 42864, Note_on_c, 6, 62, 0
1, 42865, Note_on_c, 2, 61, 87
1, 42865, Note_on_c, 6, 61, 87
1, 42869, Note_on_c, 9, 38, 47
1, 42870, Note_on_c, 9, 38, 0
1, 42877, Note_on_c, 4, 40, 0
1, 42911, Note_on_c, 0, 57, 117
1, 42912, Note_on_c, 0, 61, 117
1, 42912, Note_on_c, 0, 64, 117
1, 42912, Note_on_c, 1, 40, 127
1, 42913, Note_on_c, 0, 67, 105
1, 42913, Note_on_c, 9, 40, 96
1, 42914, Note_on_c, 9, 40, 0
1, 42914, Note_on_c, 6, 61, 0
1, 42914, Note_on_c, 9, 28, 92
1, 42915, Note_on_c, 9, 28, 0
1, 42915, Note_on_c, 2, 61, 0
1, 42916, Note_on_c, 4, 42, 127
1, 42919, Note_on_c, 4, 49, 127
1, 42937, Note_on_c, 0, 67, 0
1, 42942, Note_on_c, 0, 61, 0
1, 42942, Note_on_c, 0, 64, 0
1, 42947, Note_on_c, 1, 40, 0
1, 42950, Note_on_c, 0, 57, 0
1, 42950, Note_on_c, 4, 42, 0
1, 42952, Note_on_c, 4, 49, 0
1, 42963, Note_on_c, 2, 61, 117
1, 42963, Note_on_c, 6, 61, 117
1, 42965, Note_on_c, 9, 38, 23
1, 42966, Note_on_c, 9, 38, 0
1, 42969, Note_on_c, 4, 45, 127
1, 42971, Note_on_c, 4, 57, 127
1, 43004, Note_on_c, 4, 57, 0
1, 43005, Note_on_c, 4, 45, 0
1, 43008, Note_on_c, 1, 33, 127
1, 43009, Note_on_c, 6, 61, 0
1, 43009, Note_on_c, 9, 38, 43
1, 43010, Note_on_c, 2, 61, 0
1, 43010, Note_on_c, 9, 35, 111
1, 43012, Note_on_c, 9, 35, 0
1, 43012, Note_on_c, 9, 38, 0
1, 43013, Note_on_c, 4, 45, 127
1, 43052, Note_on_c, 4, 45, 0
1, 43056, Note_on_c, 2, 62, 107
1, 43057, Note_on_c, 6, 62, 107
1, 43061, Note_on_c, 9, 38, 45
1, 43062, Note_on_c, 9, 38, 0
1, 43063, Note_on_c, 4, 42, 127
1, 43065, Note_on_c, 4, 57, 127
1, 43096, Note_on_c, 4, 42, 0
1, 43100, Note_on_c, 4, 57, 0
1, 43104, Note_on_c, 0, 61, 117
1, 43104, Note_on_c, 0, 57, 111
1, 43104, Note_on_c, 0, 67, 98
1, 43104, Note_on_c, 9, 40, 98
1, 43105, Note_on_c, 0, 64, 113
1, 43106, Note_on_c, 9, 40, 0
1, 43106, Note_on_c, 2, 64, 97
1, 43106, Note_on_c, 9, 28, 94
1, 43107, Note_on_c, 9, 28, 0
1, 43107, Note_on_c, 6, 64, 97
1, 43108, Note_on_c, 6, 62, 0
1, 43109, Note_on_c, 2, 62, 0
1, 43110, Note_on_c, 4, 42, 127
1, 43111, Note_on_c, 4, 49, 127
1, 43114, Note_on_c, 1, 33, 0
1, 43125, Note_on_c, 0, 64, 0
1, 43126, Note_on_c, 0, 67, 0
1, 43132, Note_on_c, 0, 57, 0
1, 43133, Note_on_c, 0, 61, 0
1, 43151, Note_on_c, 2, 64, 0
1, 43151, Note_on_c, 6, 64, 0
1, 43152, Note_on_c, 2, 67, 117
1, 43153, Note_on_c, 6, 67, 117
1, 43154, Note_on_c, 4, 42, 0
1, 43157, Note_on_c, 4, 49, 0
1, 43157, Note_on_c, 9, 38, 25
1, 43158, Note_on_c, 9, 38, 0
1, 43200, Note_on_c, 1, 43, 127
1, 43201, Note_on_c, 6, 67, 0
1, 43201, Note_on_c, 9, 40, 94
1, 43202, Note_on_c, 2, 67, 0
1, 43202, Note_on_c, 9, 35, 110
1, 43203, Note_on_c, 9, 35, 0
1, 43203, Note_on_c, 9, 40, 0
1, 43203, Note_on_c, 4, 43, 127
1, 43224, Note_on_c, 9, 38, 45
1, 43225, Note_on_c, 9, 38, 0
1, 43232, Pitch_bend_c, 2, 8096
1, 43232, Pitch_bend_c, 6, 8096
1, 43233, Pitch_bend_c, 6, 8192
1, 43234, Pitch_bend_c, 2, 8192
1, 43235, Pitch_bend_c, 2, 4620
1, 43235, Pitch_bend_c, 6, 4620
1, 43249, Note_on_c, 2, 67, 117
1, 43250, Note_on_c, 4, 43, 0
1, 43250, Note_on_c, 6, 67, 117
1, 43253, Note_on_c, 9, 38, 45
1, 43254, Note_on_c, 9, 38, 0
1, 43258, Note_on_c, 1, 43, 0
1, 43261, Pitch_bend_c, 2, 4544
1, 43261, Pitch_bend_c, 6, 4448
1, 43264, Pitch_bend_c, 2, 4448
1, 43269, Pitch_bend_c, 2, 4512
1, 43269, Pitch_bend_c, 6, 5041
1, 43271, Pitch_bend_c, 2, 5041
1, 43273, Note_on_c, 9, 38, 35
1, 43274, Note_on_c, 9, 38, 0
1, 43274, Pitch_bend_c, 6, 5881
1, 43275, Pitch_bend_c, 2, 5881
1, 43276, Pitch_bend_c, 6, 7141
1, 43277, Pitch_bend_c, 2, 6721
1, 43279, Pitch_bend_c, 2, 7141
1, 43281, Pitch_bend_c, 2, 7561
1, 43281, Pitch_bend_c, 6, 7561
1, 43285, Pitch_bend_c, 6, 8192
1, 43286, Pitch_bend_c, 2, 8192
1, 43291, Pitch_bend_c, 6, 8401
1, 43292, Pitch_bend_c, 2, 8401
1, 43295, Note_on_c, 0, 67, 102
1, 43295, Note_on_c, 0, 61, 117
1, 43295, Note_on_c, 1, 42, 124
1, 43296, Note_on_c, 0, 64, 117
1, 43297, Note_on_c, 0, 57, 107
1, 43297, Note_on_c, 9, 38, 85
1, 43298, Note_on_c, 9, 38, 0
1, 43298, Note_on_c, 2, 64, 107
1, 43298, Note_on_c, 9, 28, 90
1, 43299, Note_on_c, 9, 28, 0
1, 43299, Note_on_c, 6, 64, 107
1, 43300, Note_on_c, 6, 67, 0
1, 43301, Note_on_c, 2, 67, 0
1, 43302, Note_on_c, 4, 42, 127
1, 43303, Note_on_c, 4, 49, 127
1, 43321, Note_on_c, 9, 38, 35
1, 43322, Note_on_c, 9, 38, 0
1, 43325, Note_on_c, 0, 67, 0
1, 43326, Note_on_c, 0, 61, 0
1, 43328, Note_on_c, 0, 64, 0
1, 43328, Note_on_c, 0, 57, 0
1, 43345, Note_on_c, 2, 61, 107
1, 43345, Note_on_c, 9, 38, 45
1, 43346, Note_on_c, 9, 38, 0
1, 43346, Note_on_c, 6, 61, 107
1, 43347, Note_on_c, 6, 64, 0
1, 43348, Note_on_c, 2, 64, 0
1, 43349, Note_on_c, 4, 42, 0
1, 43349, Note_on_c, 1, 42, 0
1, 43351, Note_on_c, 4, 49, 0
1, 43369, Note_on_c, 9, 38, 45
1, 43370, Note_on_c, 9, 38, 0
1, 43392, Note_on_c, 1, 45, 126
1, 43393, Note_on_c, 9, 38, 53
1, 43394, Note_on_c, 9, 35, 111
1, 43395, Note_on_c, 4, 45, 127
1, 43396, Note_on_c, 9, 35, 0
1, 43396, Note_on_c, 9, 38, 0
1, 43438, Note_on_c, 6, 61, 0
1, 43438, Note_on_c, 2, 61, 0
1, 43440, Note_on_c, 4, 45, 0
1, 43443, Note_on_c, 2, 57, 87
1, 43443, Note_on_c, 6, 57, 87
1, 43445, Note_on_c, 9, 38, 42
1, 43446, Note_on_c, 9, 38, 0
1, 43486, Note_on_c, 0, 61, 117
1, 43487, Note_on_c, 0, 67, 104
1, 43488, Note_on_c, 0, 64, 114
1, 43489, Note_on_c, 0, 57, 113
1, 43489, Note_on_c, 9, 40, 97
1, 43490, Note_on_c, 6, 57, 0
1, 43490, Note_on_c, 9, 28, 91
1, 43491, Note_on_c, 9, 40, 0
1, 43491, Note_on_c, 2, 57, 0
1, 43492, Note_on_c, 9, 28, 0
1, 43492, Note_on_c, 4, 42, 127
1, 43496, Note_on_c, 4, 49, 127
1, 43498, Note_on_c, 1, 45, 0
1, 43513, Note_on_c, 0, 57, 0
1, 43515, Note_on_c, 0, 64, 0
1, 43517, Note_on_c, 0, 67, 0
1, 43518, Note_on_c, 0, 61, 0
1, 43536, Note_on_c, 1, 40, 107
1, 43537, Note_on_c, 9, 35, 68
1, 43538, Note_on_c, 9, 35, 0
1, 43541, Note_on_c, 4, 49, 0
1, 43541, Note_on_c, 9, 38, 27
1, 43542, Note_on_c, 9, 38, 0
1, 43542, Note_on_c, 4, 42, 0
1, 43555, Note_on_c, 1, 40, 0
1, 43584, Note_on_c, 1, 43, 123
1, 43585, Note_on_c, 9, 38, 52
1, 43586, Note_on_c, 9, 35, 110
1, 43588, Note_on_c, 9, 35, 0
1, 43588, Note_on_c, 9, 38, 0
1, 43588, Note_on_c, 4, 40, 127
1, 43637, Note_on_c, 9, 38, 47
1, 43638, Note_on_c, 9, 38, 0
1, 43639, Note_on_c, 1, 43, 0
1, 43645, Note_on_c, 4, 40, 0
1, 43679, Note_on_c, 0, 61, 117
1, 43679, Note_on_c, 0, 67, 102
1, 43680, Note_on_c, 0, 64, 117
1, 43680, Note_on_c, 1, 40, 127
1, 43681, Note_on_c, 0, 57, 110
1, 43681, Note_on_c, 9, 40, 96
1, 43682, Note_on_c, 2, 57, 87
1, 43682, Note_on_c, 9, 28, 92
1, 43683, Note_on_c, 9, 40, 0
1, 43683, Note_on_c, 6, 57, 87
1, 43684, Note_on_c, 9, 28, 0
1, 43684, Note_on_c, 4, 42, 127
1, 43687, Note_on_c, 4, 49, 127
1, 43707, Note_on_c, 0, 67, 0
1, 43708, Note_on_c, 0, 57, 0
1, 43708, Note_on_c, 0, 64, 0
1, 43712, Note_on_c, 0, 61, 0
1, 43718, Note_on_c, 4, 42, 0
1, 43720, Note_on_c, 4, 49, 0
1, 43729, Note_on_c, 2, 60, 87
1, 43730, Note_on_c, 6, 57, 0
1, 43730, Note_on_c, 6, 60, 87
1, 43731, Note_on_c, 2, 57, 0
1, 43732, Note_on_c, 9, 38, 23
1, 43734, Note_on_c, 9, 38, 0
1, 43734, Note_on_c, 1, 40, 0
1, 43737, Note_on_c, 4, 45, 127
1, 43738, Note_on_c, 4, 57, 127
1, 43765, Note_on_c, 2, 60, 0
1, 43765, Note_on_c, 6, 60, 0
1, 43767, Pitch_bend_c, 2, 8160
1, 43767, Pitch_bend_c, 6, 8160
1, 43769, Pitch_bend_c, 6, 4200
1, 43770, Pitch_bend_c, 2, 4200
1, 43773, Note_on_c, 4, 57, 0
1, 43774, Note_on_c, 2, 62, 117
1, 43774, Note_on_c, 6, 62, 117
1, 43775, Note_on_c, 4, 45, 0
1, 43776, Note_on_c, 1, 33, 123
1, 43777, Note_on_c, 9, 38, 43
1, 43778, Note_on_c, 9, 35, 111
1, 43780, Note_on_c, 9, 35, 0
1, 43780, Note_on_c, 9, 38, 0
1, 43781, Note_on_c, 4, 45, 127
1, 43786, Pitch_bend_c, 2, 4608
1, 43786, Pitch_bend_c, 6, 4416
1, 43789, Pitch_bend_c, 2, 4416
1, 43791, Pitch_bend_c, 6, 4320
1, 43792, Pitch_bend_c, 2, 4320
1, 43794, Pitch_bend_c, 2, 4256
1, 43794, Pitch_bend_c, 6, 4288
1, 43796, Pitch_bend_c, 2, 4288
1, 43798, Pitch_bend_c, 2, 4416
1, 43798, Pitch_bend_c, 6, 4416
1, 43801, Pitch_bend_c, 6, 5152
1, 43802, Pitch_bend_c, 2, 4704
1, 43803, Pitch_bend_c, 2, 5152
1, 43806, Pitch_bend_c, 2, 5792
1, 43806, Pitch_bend_c, 6, 5792
1, 43808, Pitch_bend_c, 2, 6592
1, 43808, Pitch_bend_c, 6, 7296
1, 43811, Pitch_bend_c, 2, 7296
1, 43813, Pitch_bend_c, 2, 7840
1, 43813, Pitch_bend_c, 6, 7840
1, 43815, Pitch_bend_c, 2, 8160
1, 43815, Pitch_bend_c, 6, 8160
1, 43817, Pitch_bend_c, 2, 8192
1, 43817, Pitch_bend_c, 6, 8192
1, 43820, Note_on_c, 4, 45, 0
1, 43829, Note_on_c, 9, 38, 45
1, 43830, Note_on_c, 9, 38, 0
1, 43830, Note_on_c, 4, 42, 127
1, 43834, Note_on_c, 4, 57, 127
1, 43864, Note_on_c, 4, 42, 0
1, 43868, Note_on_c, 6, 62, 0
1, 43868, Note_on_c, 4, 57, 0
1, 43868, Pitch_bend_c, 2, 3360
1, 43868, Pitch_bend_c, 6, 3360
1, 43869, Note_on_c, 2, 62, 0
1, 43871, Note_on_c, 0, 67, 107
1, 43872, Note_on_c, 0, 61, 117
1, 43872, Note_on_c, 0, 57, 117
1, 43873, Note_on_c, 0, 64, 113
1, 43873, Note_on_c, 9, 40, 98
1, 43873, Note_on_c, 9, 28, 94
1, 43874, Note_on_c, 9, 28, 0
1, 43874, Note_on_c, 9, 40, 0
1, 43874, Note_on_c, 2, 62, 107
1, 43875, Note_on_c, 6, 62, 107
1, 43876, Pitch_bend_c, 6, 3780
1, 43877, Pitch_bend_c, 2, 3780
1, 43878, Note_on_c, 4, 42, 127
1, 43879, Note_on_c, 4, 49, 127
1, 43881, Pitch_bend_c, 6, 3552
1, 43882, Pitch_bend_c, 2, 3680
1, 43883, Pitch_bend_c, 2, 3552
1, 43885, Note_on_c, 1, 33, 0
1, 43886, Pitch_bend_c, 6, 3680
1, 43887, Pitch_bend_c, 2, 3680
1, 43888, Pitch_bend_c, 2, 3968
1, 43888, Pitch_bend_c, 6, 4448
1, 43891, Pitch_bend_c, 2, 4448
1, 43893, Pitch_bend_c, 2, 5152
1, 43893, Pitch_bend_c, 6, 5152
1, 43895, Pitch_bend_c, 2, 6080
1, 43895, Pitch_bend_c, 6, 6976
1, 43896, Note_on_c, 0, 64, 0
1, 43899, Pitch_bend_c, 2, 6976
1, 43900, Note_on_c, 0, 67, 0
1, 43900, Note_on_c, 0, 57, 0
1, 43901, Pitch_bend_c, 6, 7680
1, 43902, Note_on_c, 0, 61, 0
1, 43902, Pitch_bend_c, 2, 7680
1, 43903, Pitch_bend_c, 6, 8128
1, 43904, Pitch_bend_c, 2, 8128
1, 43905, Pitch_bend_c, 2, 8192
1, 43905, Pitch_bend_c, 6, 8192
1, 43922, Note_on_c, 4, 42, 0
1, 43925, Note_on_c, 4, 49, 0
1, 43925, Note_on_c, 9, 38, 25
1, 43926, Note_on_c, 9, 38, 0
1, 43966, Note_on_c, 2, 60, 107
1, 43966, Note_on_c, 6, 60, 107
1, 43967, Note_on_c, 2, 62, 0
1, 43967, Note_on_c, 6, 62, 0
1, 43967, Note_on_c, 1, 43, 127
1, 43969, Note_on_c, 9, 38, 54
1, 43970, Note_on_c, 9, 35, 110
1, 43971, Note_on_c, 9, 35, 0
1, 43971, Note_on_c, 4, 43, 127
1, 43972, Note_on_c, 9, 38, 0
1, 44017, Note_on_c, 4, 43, 0
1, 44021, Note_on_c, 9, 38, 45
1, 44022, Note_on_c, 9, 38, 0
1, 44022, Note_on_c, 1, 43, 0
1, 44030, Control_c, 2, 1, 1
1, 44030, Control_c, 6, 1, 6
1, 44033, Control_c, 2, 1, 6
1, 44034, Control_c, 2, 1, 14
1, 44034, Control_c, 6, 1, 22
1, 44037, Control_c, 2, 1, 22
1, 44039, Control_c, 2, 1, 30
1, 44039, Control_c, 6, 1, 37
1, 44042, Control_c, 2, 1, 37
1, 44044, Control_c, 6, 1, 46
1, 44045, Control_c, 2, 1, 42
1, 44046, Control_c, 2, 1, 46
1, 44049, Control_c, 2, 1, 48
1, 44049, Control_c, 6, 1, 50
1, 44051, Control_c, 2, 1, 50
1, 44054, Control_c, 2, 1, 51
1, 44054, Control_c, 6, 1, 53
1, 44055, Control_c, 2, 1, 53
1, 44059, Note_on_c, 6, 60, 0
1, 44060, Note_on_c, 2, 60, 0
1, 44061, Control_c, 6, 1, 55
1, 44062, Note_on_c, 0, 61, 117
1, 44062, Control_c, 2, 1, 55
1, 44063, Note_on_c, 0, 64, 117
1, 44064, Note_on_c, 0, 67, 99
1, 44064, Note_on_c, 1, 42, 126
1, 44065, Note_on_c, 0, 57, 117
1, 44065, Note_on_c, 9, 40, 97
1, 44065, Note_on_c, 9, 28, 90
1, 44066, Note_on_c, 9, 40, 0
1, 44066, Control_c, 6, 1, 0
1, 44067, Note_on_c, 9, 28, 0
1, 44067, Control_c, 2, 1, 0
1, 44068, Control_c, 6, 1, 0
1, 44069, Control_c, 2, 1, 0
1, 44070, Note_on_c, 2, 57, 87
1, 44071, Note_on_c, 6, 57, 87
1, 44072, Note_on_c, 4, 42, 127
1, 44073, Control_c, 6, 1, 0
1, 44074, Control_c, 2, 1, 0
1, 44075, Note_on_c, 4, 49, 127
1, 44076, Control_c, 2, 1, 0
1, 44076, Control_c, 6, 1, 0
1, 44077, Control_c, 6, 1, 0
1, 44078, Control_c, 2, 1, 0
1, 44078, Control_c, 6, 1, 0
1, 44079, Control_c, 2, 1, 0
1, 44080, Control_c, 2, 1, 0
1, 44080, Control_c, 6, 1, 0
1, 44081, Control_c, 6, 1, 0
1, 44082, Control_c, 2, 1, 0
1, 44082, Control_c, 6, 1, 0
1, 44083, Control_c, 2, 1, 0
1, 44084, Control_c, 6, 1, 0
1, 44085, Control_c, 2, 1, 0
1, 44086, Control_c, 2, 1, 0
1, 44086, Control_c, 6, 1, 0
1, 44089, Control_c, 6, 1, 0
1, 44090, Control_c, 2, 1, 0
1, 44092, Control_c, 6, 1, 0
1, 44093, Control_c, 2, 1, 0
1, 44094, Control_c, 6, 1, 0
1, 44095, Note_on_c, 0, 57, 0
1, 44095, Control_c, 2, 1, 0
1, 44096, Note_on_c, 0, 67, 0
1, 44096, Note_on_c, 0, 64, 0
1, 44097, Note_on_c, 0, 61, 0
1, 44114, Note_on_c, 6, 57, 0
1, 44115, Note_on_c, 2, 57, 0
1, 44116, Note_on_c, 9, 38, 25
1, 44117, Note_on_c, 4, 42, 0
1, 44118, Note_on_c, 1, 42, 0
1, 44118, Note_on_c, 9, 38, 0
1, 44119, Note_on_c, 4, 49, 0
1, 44160, Note_on_c, 1, 45, 124
1, 44161, Note_on_c, 9, 38, 53
1, 44162, Note_on_c, 9, 35, 111
1, 44163, Note_on_c, 4, 45, 127
1, 44164, Note_on_c, 9, 35, 0
1, 44165, Note_on_c, 9, 38, 0
1, 44208, Note_on_c, 2, 60, 117
1, 44208, Note_on_c, 6, 60, 117
1, 44209, Note_on_c, 4, 45, 0
1, 44212, Note_on_c, 9, 38, 42
1, 44214, Note_on_c, 9, 38, 0
1, 44255, Note_on_c, 0, 61, 117
1, 44256, Note_on_c, 0, 57, 117
1, 44256, Note_on_c, 0, 67, 107
1, 44257, Note_on_c, 0, 64, 116
1, 44257, Note_on_c, 9, 40, 97
1, 44257, Note_on_c, 9, 28, 91
1, 44258, Note_on_c, 9, 40, 0
1, 44258, Note_on_c, 2, 59, 97
1, 44259, Note_on_c, 9, 28, 0
1, 44259, Note_on_c, 6, 59, 97
1, 44260, Note_on_c, 6, 60, 0
1, 44261, Note_on_c, 2, 60, 0
1, 44262, Note_on_c, 4, 42, 127
1, 44264, Note_on_c, 4, 49, 127
1, 44266, Note_on_c, 1, 45, 0
1, 44278, Note_on_c, 0, 67, 0
1, 44278, Note_on_c, 0, 64, 0
1, 44283, Note_on_c, 0, 57, 0
1, 44287, Note_on_c, 0, 61, 0
1, 44304, Note_on_c, 1, 40, 116
1, 44305, Note_on_c, 2, 57, 87
1, 44305, Note_on_c, 9, 35, 68
1, 44306, Note_on_c, 9, 35, 0
1, 44306, Note_on_c, 6, 57, 87
1, 44307, Note_on_c, 6, 59, 0
1, 44308, Note_on_c, 2, 59, 0
1, 44309, Note_on_c, 4, 49, 0
1, 44309, Note_on_c, 9, 38, 27
1, 44310, Note_on_c, 9, 38, 0
1, 44310, Note_on_c, 4, 42, 0
1, 44332, Note_on_c, 1, 40, 0
1, 44352, Note_on_c, 1, 43, 127
1, 44353, Note_on_c, 2, 55, 87
1, 44353, Note_on_c, 9, 38, 52
1, 44353, Note_on_c, 9, 35, 110
1, 44354, Note_on_c, 6, 55, 87
1, 44355, Note_on_c, 9, 35, 0
1, 44355, Note_on_c, 9, 38, 0
1, 44355, Note_on_c, 4, 40, 127
1, 44356, Note_on_c, 6, 57, 0
1, 44357, Note_on_c, 2, 57, 0
1, 44404, Note_on_c, 2, 55, 0
1, 44404, Note_on_c, 6, 55, 0
1, 44404, Note_on_c, 2, 52, 87
1, 44404, Note_on_c, 6, 52, 87
1, 44404, Note_on_c, 9, 38, 47
1, 44406, Note_on_c, 9, 38, 0
1, 44409, Note_on_c, 1, 43, 0
1, 44413, Note_on_c, 4, 40, 0
1, 44448, Note_on_c, 0, 61, 117
1, 44448, Note_on_c, 0, 67, 107
1, 44448, Note_on_c, 0, 64, 117
1, 44448, Note_on_c, 1, 40, 127
1, 44449, Note_on_c, 0, 57, 117
1, 44449, Note_on_c, 9, 40, 96
1, 44450, Note_on_c, 9, 40, 0
1, 44450, Note_on_c, 2, 55, 87
1, 44450, Note_on_c, 9, 28, 92
1, 44451, Note_on_c, 9, 28, 0
1, 44451, Note_on_c, 6, 55, 87
1, 44452, Note_on_c, 4, 42, 127
1, 44453, Note_on_c, 6, 52, 0
1, 44454, Note_on_c, 2, 52, 0
1, 44455, Note_on_c, 4, 49, 127
1, 44473, Note_on_c, 0, 57, 0
1, 44474, Note_on_c, 0, 67, 0
1, 44474, Note_on_c, 0, 64, 0
1, 44477, Note_on_c, 0, 61, 0
1, 44486, Note_on_c, 4, 42, 0
1, 44488, Note_on_c, 4, 49, 0
1, 44498, Note_on_c, 2, 55, 0
1, 44498, Note_on_c, 6, 55, 0
1, 44499, Note_on_c, 2, 52, 107
1, 44500, Note_on_c, 6, 52, 107
1, 44501, Note_on_c, 9, 38, 23
1, 44502, Note_on_c, 9, 38, 0
1, 44502, Note_on_c, 1, 40, 0
1, 44505, Note_on_c, 4, 45, 127
1, 44506, Note_on_c, 4, 57, 127
1, 44535, Pitch_bend_c, 6, 7840
1, 44536, Pitch_bend_c, 2, 8096
1, 44538, Pitch_bend_c, 2, 7840
1, 44540, Pitch_bend_c, 2, 7456
1, 44540, Pitch_bend_c, 6, 7456
1, 44541, Note_on_c, 4, 57, 0
1, 44542, Pitch_bend_c, 6, 6304
1, 44543, Note_on_c, 4, 45, 0
1, 44543, Pitch_bend_c, 2, 6976
1, 44544, Note_on_c, 1, 33, 127
1, 44545, Pitch_bend_c, 2, 6304
1, 44545, Note_on_c, 9, 38, 53
1, 44546, Pitch_bend_c, 6, 5600
1, 44546, Note_on_c, 9, 35, 111
1, 44547, Pitch_bend_c, 2, 5600
1, 44548, Note_on_c, 9, 35, 0
1, 44548, Note_on_c, 9, 38, 0
1, 44549, Note_on_c, 4, 45, 127
1, 44550, Pitch_bend_c, 6, 3936
1, 44551, Pitch_bend_c, 2, 4832
1, 44552, Pitch_bend_c, 2, 3936
1, 44553, Pitch_bend_c, 6, 1984
1, 44554, Pitch_bend_c, 2, 2976
1, 44555, Pitch_bend_c, 2, 1984
1, 44559, Pitch_bend_c, 2, 1024
1, 44559, Pitch_bend_c, 6, 1024
1, 44561, Pitch_bend_c, 6, 384
1, 44562, Pitch_bend_c, 2, 384
1, 44564, Pitch_bend_c, 2, 0
1, 44564, Pitch_bend_c, 6, 0
1, 44588, Note_on_c, 4, 45, 0
1, 44593, Note_on_c, 2, 48, 107
1, 44593, Note_on_c, 6, 48, 107
1, 44597, Note_on_c, 9, 38, 42
1, 44598, Note_on_c, 9, 38, 0
1, 44598, Note_on_c, 4, 42, 127
1, 44599, Note_on_c, 6, 52, 0
1, 44600, Note_on_c, 2, 52, 0
1, 44601, Pitch_bend_c, 6, 8192
1, 44602, Pitch_bend_c, 2, 8192
1, 44602, Note_on_c, 4, 57, 127
1, 44632, Note_on_c, 4, 42, 0
1, 44636, Note_on_c, 4, 57, 0
1, 44638, Note_on_c, 2, 48, 0
1, 44638, Note_on_c, 6, 48, 0
1, 44639, Note_on_c, 0, 61, 117
1, 44640, Note_on_c, 0, 67, 107
1, 44641, Note_on_c, 0, 64, 117
1, 44641, Note_on_c, 0, 57, 117
1, 44641, Note_on_c, 9, 40, 97
1, 44641, Note_on_c, 9, 28, 91
1, 44642, Note_on_c, 9, 40, 0
1, 44642, Note_on_c, 2, 50, 107
1, 44643, Note_on_c, 9, 28, 0
1, 44643, Note_on_c, 6, 50, 107
1, 44644, Note_on_c, 4, 42, 127
1, 44648, Note_on_c, 4, 49, 127
1, 44652, Note_on_c, 1, 33, 0
1, 44663, Note_on_c, 0, 57, 0
1, 44665, Note_on_c, 0, 64, 0
1, 44665, Note_on_c, 0, 67, 0
1, 44671, Note_on_c, 0, 61, 0
1, 44674, Note_on_c, 2, 50, 0
1, 44674, Note_on_c, 6, 50, 0
1, 44689, Note_on_c, 9, 35, 68
1, 44690, Note_on_c, 9, 35, 0
1, 44690, Note_on_c, 4, 42, 0
1, 44693, Note_on_c, 4, 49, 0
1, 44693, Note_on_c, 9, 38, 27
1, 44694, Note_on_c, 9, 38, 0
1, 44735, Note_on_c, 1, 43, 127
1, 44736, Note_on_c, 2, 48, 107
1, 44737, Note_on_c, 6, 48, 107
1, 44737, Note_on_c, 9, 38, 52
1, 44738, Note_on_c, 9, 35, 110
1, 44739, Note_on_c, 9, 35, 0
1, 44740, Note_on_c, 9, 38, 0
1, 44740, Note_on_c, 4, 43, 127
1, 44785, Note_on_c, 4, 43, 0
1, 44789, Note_on_c, 9, 38, 47
1, 44790, Note_on_c, 9, 38, 0
1, 44794, Note_on_c, 1, 43, 0
1, 44830, Note_on_c, 6, 48, 0
1, 44830, Note_on_c, 2, 48, 0
1, 44831, Note_on_c, 0, 57, 117
1, 44832, Note_on_c, 0, 61, 117
1, 44832, Note_on_c, 1, 42, 124
1, 44833, Note_on_c, 0, 67, 110
1, 44833, Note_on_c, 9, 40, 96
1, 44833, Note_on_c, 9, 28, 92
1, 44834, Note_on_c, 9, 40, 0
1, 44834, Note_on_c, 0, 64, 117
1, 44835, Note_on_c, 9, 28, 0
1, 44835, Note_on_c, 2, 45, 97
1, 44836, Note_on_c, 6, 45, 97
1, 44837, Note_on_c, 4, 42, 127
1, 44838, Note_on_c, 4, 49, 127
1, 44853, Note_on_c, 0, 64, 0
1, 44854, Note_on_c, 0, 67, 0
1, 44857, Note_on_c, 0, 57, 0
1, 44858, Note_on_c, 0, 61, 0
1, 44882, Note_on_c, 2, 45, 0
1, 44882, Note_on_c, 6, 45, 0
1, 44884, Note_on_c, 3, 69, 109
1, 44884, Note_on_c, 9, 38, 33
1, 44885, Note_on_c, 9, 38, 0
1, 44885, Note_on_c, 4, 42, 0
1, 44887, Note_on_c, 1, 42, 0
1, 44887, Note_on_c, 4, 49, 0
1, 44905, Note_on_c, 9, 38, 53
1, 44906, Note_on_c, 9, 38, 0
1, 44915, Note_on_c, 3, 69, 0
1, 44927, Note_on_c, 6, 52, 88
1, 44928, Note_on_c, 1, 33, 117
1, 44928, Note_on_c, 6, 57, 96
1, 44929, Control_c, 6, 11, 90
1, 44929, Note_on_c, 9, 38, 43
1, 44930, Note_on_c, 3, 67, 127
1, 44930, Note_on_c, 9, 35, 111
1, 44931, Note_on_c, 4, 45, 127
1, 44932, Note_on_c, 9, 35, 0
1, 44932, Note_on_c, 9, 38, 0
1, 44973, Note_on_c, 6, 57, 0
1, 44974, Note_on_c, 6, 52, 0
1, 44976, Note_on_c, 6, 57, 58
1, 44976, Note_on_c, 6, 52, 63
1, 44977, Note_on_c, 4, 45, 0
1, 44981, Note_on_c, 9, 38, 45
1, 44982, Note_on_c, 9, 38, 0
1, 45020, Note_on_c, 3, 67, 0
1, 45022, Note_on_c, 6, 49, 126
1, 45023, Note_on_c, 6, 52, 0
1, 45023, Note_on_c, 6, 57, 0
1, 45023, Note_on_c, 6, 52, 113
1, 45023, Note_on_c, 6, 57, 127
1, 45025, Note_on_c, 9, 40, 98
1, 45026, Note_on_c, 9, 40, 0
1, 45026, Note_on_c, 0, 61, 117
1, 45026, Note_on_c, 9, 28, 94
1, 45027, Note_on_c, 9, 28, 0
1, 45027, Note_on_c, 0, 67, 113
1, 45028, Note_on_c, 0, 57, 117
1, 45029, Note_on_c, 0, 64, 117
1, 45030, Note_on_c, 3, 67, 127
1, 45031, Note_on_c, 4, 42, 127
1, 45032, Note_on_c, 4, 49, 127
1, 45033, Note_on_c, 1, 33, 0
1, 45033, Note_on_c, 6, 49, 0
1, 45034, Note_on_c, 6, 52, 0
1, 45037, Note_on_c, 6, 57, 0
1, 45047, Note_on_c, 0, 64, 0
1, 45050, Note_on_c, 3, 67, 0
1, 45052, Note_on_c, 0, 61, 0
1, 45052, Note_on_c, 0, 57, 0
1, 45053, Note_on_c, 0, 67, 0
1, 45072, Note_on_c, 1, 33, 120
1, 45072, Note_on_c, 6, 57, 71
1, 45072, Note_on_c, 6, 52, 63
1, 45073, Note_on_c, 3, 67, 127
1, 45077, Note_on_c, 4, 49, 0
1, 45077, Note_on_c, 9, 38, 25
1, 45078, Note_on_c, 4, 42, 0
1, 45079, Note_on_c, 9, 38, 0
1, 45085, Note_on_c, 1, 33, 0
1, 45117, Note_on_c, 6, 57, 0
1, 45118, Note_on_c, 6, 52, 0
1, 45118, Note_on_c, 6, 52, 101
1, 45118, Note_on_c, 6, 57, 96
1, 45120, Note_on_c, 1, 40, 105
1, 45121, Note_on_c, 9, 38, 54
1, 45122, Note_on_c, 9, 35, 110
1, 45123, Note_on_c, 9, 35, 0
1, 45123, Note_on_c, 9, 38, 0
1, 45124, Note_on_c, 4, 40, 127
1, 45142, Note_on_c, 3, 67, 0
1, 45164, Note_on_c, 6, 52, 0
1, 45164, Note_on_c, 6, 57, 0
1, 45167, Note_on_c, 0, 61, 117
1, 45168, Note_on_c, 0, 64, 113
1, 45168, Note_on_c, 0, 67, 92
1, 45169, Note_on_c, 0, 57, 104
1, 45170, Note_on_c, 6, 57, 71
1, 45171, Note_on_c, 6, 52, 63
1, 45172, Note_on_c, 3, 69, 115
1, 45173, Note_on_c, 9, 38, 45
1, 45174, Note_on_c, 9, 38, 0
1, 45181, Note_on_c, 4, 40, 0
1, 45191, Note_on_c, 0, 67, 0
1, 45191, Note_on_c, 0, 57, 0
1, 45194, Note_on_c, 0, 64, 0
1, 45194, Note_on_c, 0, 61, 0
1, 45214, Note_on_c, 6, 49, 126
1, 45215, Note_on_c, 6, 57, 0
1, 45215, Note_on_c, 6, 52, 0
1, 45215, Note_on_c, 6, 52, 126
1, 45215, Note_on_c, 6, 57, 127
1, 45217, Note_on_c, 9, 40, 97
1, 45218, Note_on_c, 9, 40, 0
1, 45218, Note_on_c, 9, 28, 90
1, 45219, Note_on_c, 9, 28, 0
1, 45219, Note_on_c, 4, 42, 127
1, 45221, Note_on_c, 3, 69, 0
1, 45222, Note_on_c, 4, 49, 127
1, 45223, Note_on_c, 6, 49, 0
1, 45224, Note_on_c, 6, 52, 0
1, 45225, Note_on_c, 6, 57, 0
1, 45255, Note_on_c, 4, 42, 0
1, 45256, Note_on_c, 4, 49, 0
1, 45264, Note_on_c, 6, 57, 71
1, 45264, Note_on_c, 6, 52, 63
1, 45269, Note_on_c, 9, 38, 25
1, 45270, Note_on_c, 9, 38, 0
1, 45273, Note_on_c, 4, 45, 127
1, 45274, Note_on_c, 4, 57, 127
1, 45291, Pitch_bend_c, 3, 8000
1, 45295, Pitch_bend_c, 3, 7584
1, 45297, Note_on_c, 1, 40, 0
1, 45299, Pitch_bend_c, 3, 3360
1, 45309, Note_on_c, 4, 57, 0
1, 45310, Note_on_c, 6, 52, 0
1, 45310, Note_on_c, 6, 52, 88
1, 45311, Note_on_c, 6, 57, 0
1, 45311, Note_on_c, 6, 57, 96
1, 45312, Note_on_c, 4, 45, 0
1, 45312, Note_on_c, 1, 45, 121
1, 45313, Note_on_c, 0, 67, 99
1, 45313, Note_on_c, 9, 38, 53
1, 45314, Note_on_c, 0, 61, 117
1, 45314, Note_on_c, 9, 35, 111
1, 45315, Note_on_c, 9, 35, 0
1, 45315, Note_on_c, 0, 57, 111
1, 45316, Note_on_c, 9, 38, 0
1, 45316, Note_on_c, 0, 64, 96
1, 45318, Note_on_c, 3, 71, 122
1, 45320, Note_on_c, 4, 45, 127
1, 45323, Pitch_bend_c, 3, 3456
1, 45328, Pitch_bend_c, 3, 3360
1, 45333, Pitch_bend_c, 3, 3552
1, 45337, Note_on_c, 0, 64, 0
1, 45338, Pitch_bend_c, 3, 4096
1, 45339, Note_on_c, 0, 61, 0
1, 45340, Note_on_c, 0, 67, 0
1, 45341, Pitch_bend_c, 3, 4576
1, 45342, Note_on_c, 0, 57, 0
1, 45345, Pitch_bend_c, 3, 5184
1, 45347, Pitch_bend_c, 3, 6688
1, 45351, Pitch_bend_c, 3, 7872
1, 45355, Note_on_c, 6, 57, 0
1, 45356, Note_on_c, 4, 45, 0
1, 45356, Note_on_c, 6, 52, 0
1, 45357, Pitch_bend_c, 3, 8160
1, 45358, Pitch_bend_c, 3, 8192
1, 45359, Note_on_c, 6, 57, 58
1, 45360, Note_on_c, 6, 52, 63
1, 45365, Note_on_c, 9, 38, 42
1, 45366, Note_on_c, 9, 38, 0
1, 45367, Note_on_c, 4, 42, 127
1, 45370, Note_on_c, 4, 57, 127
1, 45397, Note_on_c, 3, 71, 0
1, 45400, Note_on_c, 4, 42, 0
1, 45403, Note_on_c, 4, 57, 0
1, 45406, Note_on_c, 6, 49, 126
1, 45407, Note_on_c, 6, 57, 0
1, 45407, Note_on_c, 6, 52, 0
1, 45407, Note_on_c, 6, 52, 113
1, 45407, Note_on_c, 6, 57, 127
1, 45409, Note_on_c, 3, 71, 103
1, 45409, Note_on_c, 9, 40, 97
1, 45410, Note_on_c, 9, 40, 0
1, 45410, Note_on_c, 9, 28, 91
1, 45411, Note_on_c, 9, 28, 0
1, 45412, Note_on_c, 4, 42, 127
1, 45414, Note_on_c, 1, 45, 0
1, 45416, Note_on_c, 6, 49, 0
1, 45416, Note_on_c, 4, 49, 127
1, 45418, Note_on_c, 6, 52, 0
1, 45420, Note_on_c, 6, 57, 0
1, 45440, Note_on_c, 3, 71, 0
1, 45455, Note_on_c, 0, 61, 117
1, 45456, Note_on_c, 0, 67, 99
1, 45456, Note_on_c, 0, 64, 110
1, 45456, Note_on_c, 0, 57, 113
1, 45456, Note_on_c, 1, 45, 107
1, 45457, Note_on_c, 6, 57, 71
1, 45457, Note_on_c, 9, 35, 68
1, 45458, Note_on_c, 9, 35, 0
1, 45458, Note_on_c, 6, 52, 63
1, 45459, Note_on_c, 4, 42, 0
1, 45460, Note_on_c, 3, 69, 127
1, 45460, Note_on_c, 9, 38, 27
1, 45461, Note_on_c, 9, 38, 0
1, 45461, Note_on_c, 4, 49, 0
1, 45471, Note_on_c, 1, 45, 0
1, 45480, Note_on_c, 0, 64, 0
1, 45481, Note_on_c, 0, 67, 0
1, 45482, Note_on_c, 0, 57, 0
1, 45485, Note_on_c, 0, 61, 0
1, 45501, Note_on_c, 6, 57, 0
1, 45502, Note_on_c, 6, 52, 0
1, 45502, Note_on_c, 6, 52, 101
1, 45502, Note_on_c, 6, 57, 96
1, 45504, Note_on_c, 1, 40, 121
1, 45505, Note_on_c, 9, 38, 52
1, 45505, Note_on_c, 9, 35, 110
1, 45507, Note_on_c, 9, 35, 0
1, 45507, Note_on_c, 9, 38, 0
1, 45508, Note_on_c, 4, 43, 127
1, 45520, Pitch_bend_c, 3, 8160
1, 45524, Pitch_bend_c, 3, 8128
1, 45526, Pitch_bend_c, 3, 8000
1, 45531, Pitch_bend_c, 3, 7872
1, 45535, Pitch_bend_c, 3, 7552
1, 45538, Pitch_bend_c, 3, 7392
1, 45542, Pitch_bend_c, 3, 6752
1, 45548, Note_on_c, 6, 57, 0
1, 45549, Note_on_c, 6, 52, 0
1, 45549, Pitch_bend_c, 3, 6560
1, 45551, Pitch_bend_c, 3, 6144
1, 45552, Note_on_c, 6, 57, 71
1, 45552, Note_on_c, 6, 52, 63
1, 45553, Note_on_c, 4, 43, 0
1, 45555, Pitch_bend_c, 3, 5760
1, 45557, Note_on_c, 9, 38, 47
1, 45558, Note_on_c, 9, 38, 0
1, 45563, Pitch_bend_c, 3, 5376
1, 45565, Pitch_bend_c, 3, 5120
1, 45568, Pitch_bend_c, 3, 4992
1, 45572, Pitch_bend_c, 3, 4800
1, 45577, Pitch_bend_c, 3, 4768
1, 45578, Pitch_bend_c, 3, 4704
1, 45580, Note_on_c, 3, 69, 0
1, 45585, Pitch_bend_c, 3, 4544
1, 45586, Pitch_bend_c, 3, 4320
1, 45592, Pitch_bend_c, 3, 4224
1, 45593, Pitch_bend_c, 3, 4160
1, 45598, Note_on_c, 6, 49, 126
1, 45599, Note_on_c, 6, 52, 0
1, 45599, Note_on_c, 6, 57, 0
1, 45599, Note_on_c, 6, 52, 126
1, 45599, Note_on_c, 6, 57, 127
1, 45600, Note_on_c, 9, 40, 96
1, 45601, Note_on_c, 0, 67, 107
1, 45601, Note_on_c, 9, 28, 92
1, 45602, Note_on_c, 9, 40, 0
1, 45602, Note_on_c, 0, 61, 117
1, 45603, Note_on_c, 9, 28, 0
1, 45603, Note_on_c, 0, 57, 117
1, 45604, Note_on_c, 0, 64, 117
1, 45606, Pitch_bend_c, 3, 4352
1, 45607, Note_on_c, 4, 42, 127
1, 45608, Pitch_bend_c, 3, 4640
1, 45609, Note_on_c, 6, 49, 0
1, 45609, Note_on_c, 4, 49, 127
1, 45610, Note_on_c, 6, 52, 0
1, 45611, Note_on_c, 1, 40, 0
1, 45611, Note_on_c, 6, 57, 0
1, 45611, Pitch_bend_c, 3, 5024
1, 45612, Pitch_bend_c, 3, 6688
1, 45615, Pitch_bend_c, 3, 7456
1, 45619, Pitch_bend_c, 3, 8064
1, 45620, Pitch_bend_c, 3, 8192
1, 45627, Note_on_c, 0, 64, 0
1, 45636, Note_on_c, 0, 57, 0
1, 45636, Note_on_c, 0, 67, 0
1, 45637, Note_on_c, 0, 61, 0
1, 45648, Note_on_c, 1, 40, 107
1, 45648, Note_on_c, 6, 57, 71
1, 45649, Note_on_c, 6, 52, 63
1, 45653, Note_on_c, 4, 42, 0
1, 45653, Note_on_c, 9, 38, 23
1, 45654, Note_on_c, 9, 38, 0
1, 45655, Note_on_c, 4, 49, 0
1, 45663, Note_on_c, 1, 40, 0
1, 45693, Note_on_c, 6, 52, 0
1, 45693, Note_on_c, 6, 52, 88
1, 45694, Note_on_c, 6, 57, 0
1, 45694, Note_on_c, 6, 57, 96
1, 45696, Note_on_c, 1, 33, 121
1, 45697, Note_on_c, 3, 67, 124
1, 45697, Note_on_c, 9, 38, 43
1, 45698, Note_on_c, 9, 35, 111
1, 45699, Note_on_c, 4, 45, 127
1, 45700, Note_on_c, 9, 35, 0
1, 45700, Note_on_c, 9, 38, 0
1, 45739, Note_on_c, 6, 57, 0
1, 45740, Note_on_c, 3, 67, 0
1, 45740, Note_on_c, 6, 52, 0
1, 45744, Note_on_c, 6, 57, 58
1, 45744, Note_on_c, 6, 52, 63
1, 45745, Note_on_c, 4, 45, 0
1, 45747, Note_on_c, 3, 67, 124
1, 45749, Note_on_c, 9, 38, 45
1, 45750, Note_on_c, 9, 38, 0
1, 45790, Note_on_c, 6, 49, 126
1, 45791, Note_on_c, 6, 52, 0
1, 45791, Note_on_c, 6, 52, 113
1, 45792, Note_on_c, 6, 57, 0
1, 45792, Note_on_c, 6, 57, 127
1, 45793, Note_on_c, 0, 67, 111
1, 45793, Note_on_c, 9, 40, 98
1, 45794, Note_on_c, 9, 40, 0
1, 45794, Note_on_c, 0, 61, 117
1, 45794, Note_on_c, 9, 28, 94
1, 45795, Note_on_c, 9, 28, 0
1, 45795, Note_on_c, 0, 64, 117
1, 45796, Note_on_c, 0, 57, 117
1, 45797, Note_on_c, 4, 42, 127
1, 45800, Note_on_c, 6, 49, 0
1, 45800, Note_on_c, 4, 49, 127
1, 45802, Note_on_c, 6, 52, 0
1, 45802, Note_on_c, 1, 33, 0
1, 45805, Note_on_c, 6, 57, 0
1, 45823, Note_on_c, 0, 64, 0
1, 45825, Note_on_c, 0, 57, 0
1, 45825, Note_on_c, 0, 67, 0
1, 45829, Note_on_c, 0, 61, 0
1, 45840, Note_on_c, 6, 57, 71
1, 45840, Note_on_c, 6, 52, 63
1, 45843, Note_on_c, 3, 67, 0
1, 45844, Note_on_c, 9, 38, 25
1, 45845, Note_on_c, 4, 49, 0
1, 45846, Note_on_c, 9, 38, 0
1, 45846, Note_on_c, 4, 42, 0
1, 45885, Note_on_c, 6, 57, 0
1, 45886, Note_on_c, 6, 52, 0
1, 45886, Note_on_c, 6, 52, 101
1, 45886, Note_on_c, 6, 57, 96
1, 45888, Note_on_c, 1, 40, 124
1, 45888, Note_on_c, 3, 67, 122
1, 45889, Note_on_c, 9, 38, 54
1, 45890, Note_on_c, 9, 35, 110
1, 45892, Note_on_c, 9, 35, 0
1, 45892, Note_on_c, 9, 38, 0
1, 45892, Note_on_c, 4, 40, 127
1, 45932, Note_on_c, 6, 52, 0
1, 45932, Note_on_c, 6, 57, 0
1, 45935, Note_on_c, 0, 61, 117
1, 45936, Note_on_c, 0, 67, 111
1, 45937, Note_on_c, 0, 64, 117
1, 45937, Note_on_c, 0, 57, 117
1, 45938, Note_on_c, 6, 57, 71
1, 45938, Note_on_c, 6, 52, 63
1, 45940, Note_on_c, 1, 40, 0
1, 45941, Note_on_c, 9, 38, 45
1, 45942, Note_on_c, 9, 38, 0
1, 45949, Note_on_c, 4, 40, 0
1, 45963, Note_on_c, 3, 67, 0
1, 45967, Note_on_c, 0, 57, 0
1, 45967, Note_on_c, 0, 64, 0
1, 45969, Note_on_c, 0, 67, 0
1, 45970, Note_on_c, 0, 61, 0
1, 45982, Note_on_c, 6, 52, 0
1, 45982, Note_on_c, 6, 49, 126
1, 45982, Note_on_c, 6, 52, 126
1, 45983, Note_on_c, 6, 57, 0
1, 45983, Note_on_c, 6, 57, 127
1, 45984, Note_on_c, 1, 42, 123
1, 45985, Note_on_c, 9, 40, 97
1, 45985, Note_on_c, 9, 28, 90
1, 45986, Note_on_c, 9, 40, 0
1, 45987, Note_on_c, 9, 28, 0
1, 45987, Note_on_c, 4, 42, 127
1, 45990, Note_on_c, 3, 69, 111
1, 45990, Note_on_c, 4, 49, 127
1, 45991, Note_on_c, 6, 49, 0
1, 45992, Note_on_c, 6, 52, 0
1, 45993, Note_on_c, 6, 57, 0
1, 46012, Note_on_c, 3, 69, 0
1, 46022, Note_on_c, 4, 42, 0
1, 46024, Note_on_c, 4, 49, 0
1, 46029, Note_on_c, 1, 42, 0
1, 46029, Pitch_bend_c, 3, 3963
1, 46031, Note_on_c, 6, 57, 71
1, 46032, Note_on_c, 6, 52, 63
1, 46035, Note_on_c, 3, 71, 127
1, 46037, Note_on_c, 9, 38, 25
1, 46038, Note_on_c, 9, 38, 0
1, 46041, Note_on_c, 4, 45, 127
1, 46042, Note_on_c, 4, 57, 127
1, 46062, Pitch_bend_c, 3, 4160
1, 46068, Pitch_bend_c, 3, 4192
1, 46071, Pitch_bend_c, 3, 4512
1, 46076, Pitch_bend_c, 3, 5184
1, 46077, Note_on_c, 4, 57, 0
1, 46078, Note_on_c, 6, 57, 0
1, 46078, Note_on_c, 4, 45, 0
1, 46079, Note_on_c, 0, 67, 111
1, 46079, Note_on_c, 1, 45, 119
1, 46080, Note_on_c, 0, 61, 117
1, 46081, Note_on_c, 0, 64, 117
1, 46081, Note_on_c, 9, 38, 53
1, 46082, Note_on_c, 0, 57, 117
1, 46082, Note_on_c, 9, 35, 111
1, 46083, Note_on_c, 6, 52, 0
1, 46083, Note_on_c, 6, 52, 88
1, 46084, Note_on_c, 9, 35, 0
1, 46084, Note_on_c, 9, 38, 0
1, 46084, Note_on_c, 6, 57, 96
1, 46086, Pitch_bend_c, 3, 6240
1, 46087, Note_on_c, 4, 45, 127
1, 46088, Pitch_bend_c, 3, 7328
1, 46089, Pitch_bend_c, 3, 8064
1, 46094, Pitch_bend_c, 3, 8192
1, 46113, Note_on_c, 0, 64, 0
1, 46114, Note_on_c, 0, 61, 0
1, 46114, Note_on_c, 0, 57, 0
1, 46115, Note_on_c, 0, 67, 0
1, 46123, Note_on_c, 4, 45, 0
1, 46124, Note_on_c, 3, 71, 0
1, 46125, Note_on_c, 6, 57, 0
1, 46126, Note_on_c, 6, 52, 0
1, 46127, Note_on_c, 6, 57, 58
1, 46128, Note_on_c, 6, 52, 63
1, 46133, Note_on_c, 9, 38, 42
1, 46134, Note_on_c, 9, 38, 0
1, 46134, Note_on_c, 4, 42, 127
1, 46138, Note_on_c, 4, 57, 127
1, 46167, Note_on_c, 4, 42, 0
1, 46171, Note_on_c, 4, 57, 0
1, 46174, Note_on_c, 6, 49, 126
1, 46175, Note_on_c, 6, 52, 0
1, 46175, Note_on_c, 6, 57, 0
1, 46175, Note_on_c, 6, 52, 113
1, 46175, Note_on_c, 6, 57, 127
1, 46177, Note_on_c, 3, 71, 127
1, 46177, Note_on_c, 9, 40, 97
1, 46178, Note_on_c, 9, 40, 0
1, 46178, Note_on_c, 9, 28, 91
1, 46179, Note_on_c, 9, 28, 0
1, 46180, Note_on_c, 4, 42, 127
1, 46184, Note_on_c, 6, 49, 0
1, 46184, Note_on_c, 4, 49, 127
1, 46185, Note_on_c, 6, 52, 0
1, 46186, Note_on_c, 1, 45, 0
1, 46189, Note_on_c, 6, 57, 0
1, 46223, Note_on_c, 0, 67, 101
1, 46223, Note_on_c, 0, 61, 117
1, 46224, Note_on_c, 0, 57, 117
1, 46224, Note_on_c, 1, 45, 113
1, 46225, Note_on_c, 0, 64, 111
1, 46225, Note_on_c, 9, 35, 68
1, 46226, Note_on_c, 9, 35, 0
1, 46226, Note_on_c, 6, 57, 71
1, 46227, Note_on_c, 6, 52, 63
1, 46228, Note_on_c, 4, 42, 0
1, 46229, Note_on_c, 4, 49, 0
1, 46229, Note_on_c, 9, 38, 27
1, 46230, Note_on_c, 9, 38, 0
1, 46240, Note_on_c, 1, 45, 0
1, 46254, Note_on_c, 0, 64, 0
1, 46255, Note_on_c, 0, 57, 0
1, 46256, Note_on_c, 0, 61, 0
1, 46257, Note_on_c, 3, 71, 0
1, 46258, Note_on_c, 0, 67, 0
1, 46269, Note_on_c, 6, 57, 0
1, 46270, Note_on_c, 3, 69, 127
1, 46271, Note_on_c, 6, 52, 0
1, 46271, Note_on_c, 6, 52, 101
1, 46272, Note_on_c, 1, 42, 111
1, 46272, Note_on_c, 6, 57, 96
1, 46273, Note_on_c, 9, 38, 52
1, 46274, Note_on_c, 9, 35, 110
1, 46276, Note_on_c, 9, 35, 0
1, 46276, Note_on_c, 9, 38, 0
1, 46276, Note_on_c, 4, 43, 127
1, 46309, Pitch_bend_c, 3, 8160
1, 46312, Pitch_bend_c, 3, 8032
1, 46313, Pitch_bend_c, 3, 7872
1, 46316, Note_on_c, 6, 57, 0
1, 46317, Note_on_c, 6, 52, 0
1, 46317, Pitch_bend_c, 3, 7328
1, 46320, Note_on_c, 1, 42, 0
1, 46320, Note_on_c, 6, 57, 71
1, 46321, Note_on_c, 6, 52, 63
1, 46322, Note_on_c, 4, 43, 0
1, 46322, Pitch_bend_c, 3, 6720
1, 46325, Pitch_bend_c, 3, 6432
1, 46325, Note_on_c, 9, 38, 47
1, 46326, Note_on_c, 9, 38, 0
1, 46329, Pitch_bend_c, 3, 6112
1, 46331, Pitch_bend_c, 3, 5600
1, 46335, Pitch_bend_c, 3, 5024
1, 46343, Pitch_bend_c, 3, 4672
1, 46349, Pitch_bend_c, 3, 4832
1, 46354, Pitch_bend_c, 3, 8192
1, 46355, Pitch_bend_c, 3, 5888
1, 46359, Note_on_c, 3, 69, 0
1, 46359, Pitch_bend_c, 3, 6688
1, 46363, Pitch_bend_c, 3, 7072
1, 46366, Note_on_c, 6, 49, 126
1, 46367, Note_on_c, 6, 57, 0
1, 46367, Note_on_c, 6, 52, 0
1, 46367, Note_on_c, 6, 52, 126
1, 46367, Note_on_c, 6, 57, 127
1, 46368, Note_on_c, 1, 40, 121
1, 46369, Note_on_c, 0, 67, 104
1, 46369, Note_on_c, 9, 40, 96
1, 46369, Note_on_c, 9, 28, 92
1, 46370, Note_on_c, 9, 40, 0
1, 46370, Note_on_c, 0, 61, 117
1, 46371, Note_on_c, 9, 28, 0
1, 46371, Note_on_c, 0, 57, 117
1, 46372, Note_on_c, 0, 64, 113
1, 46373, Pitch_bend_c, 3, 7712
1, 46375, Note_on_c, 3, 67, 124
1, 46376, Note_on_c, 4, 42, 127
1, 46377, Note_on_c, 4, 49, 127
1, 46378, Note_on_c, 6, 49, 0
1, 46378, Pitch_bend_c, 3, 8128
1, 46379, Note_on_c, 6, 52, 0
1, 46380, Note_on_c, 6, 57, 0
1, 46400, Note_on_c, 0, 64, 0
1, 46406, Note_on_c, 0, 67, 0
1, 46406, Note_on_c, 0, 57, 0
1, 46413, Note_on_c, 3, 67, 0
1, 46416, Note_on_c, 1, 40, 0
1, 46416, Note_on_c, 6, 57, 71
1, 46416, Note_on_c, 6, 52, 63
1, 46417, Note_on_c, 3, 66, 127
1, 46418, Note_on_c, 0, 61, 0
1, 46421, Note_on_c, 4, 42, 0
1, 46421, Note_on_c, 9, 38, 23
1, 46422, Note_on_c, 9, 38, 0
1, 46423, Note_on_c, 4, 49, 0
1, 46462, Note_on_c, 6, 57, 0
1, 46464, Note_on_c, 1, 38, 126
1, 46464, Note_on_c, 6, 57, 101
1, 46465, Note_on_c, 6, 54, 101
1, 46465, Note_on_c, 9, 38, 43
1, 46466, Note_on_c, 6, 62, 100
1, 46466, Note_on_c, 9, 35, 111
1, 46467, Note_on_c, 6, 52, 0
1, 46468, Note_on_c, 9, 35, 0
1, 46468, Note_on_c, 9, 38, 0
1, 46468, Note_on_c, 4, 50, 127
1, 46510, Note_on_c, 6, 57, 0
1, 46510, Note_on_c, 6, 62, 0
1, 46512, Note_on_c, 6, 54, 0
1, 46512, Note_on_c, 6, 54, 84
1, 46512, Note_on_c, 6, 57, 87
1, 46513, Note_on_c, 6, 62, 84
1, 46514, Note_on_c, 4, 50, 0
1, 46517, Note_on_c, 9, 38, 45
1, 46518, Note_on_c, 9, 38, 0
1, 46544, Control_c, 3, 1, 3
1, 46545, Control_c, 3, 1, 13
1, 46548, Control_c, 3, 1, 31
1, 46556, Control_c, 3, 1, 53
1, 46557, Note_on_c, 6, 62, 0
1, 46558, Note_on_c, 6, 54, 0
1, 46558, Note_on_c, 6, 62, 110
1, 46558, Note_on_c, 6, 54, 115
1, 46559, Note_on_c, 6, 59, 118
1, 46560, Note_on_c, 9, 40, 98
1, 46561, Note_on_c, 6, 57, 0
1, 46562, Note_on_c, 0, 62, 117
1, 46562, Note_on_c, 9, 28, 94
1, 46563, Note_on_c, 9, 40, 0
1, 46563, Note_on_c, 0, 57, 117
1, 46564, Note_on_c, 9, 28, 0
1, 46564, Note_on_c, 0, 66, 117
1, 46565, Control_c, 3, 1, 64
1, 46566, Note_on_c, 1, 38, 0
1, 46566, Control_c, 3, 1, 92
1, 46567, Note_on_c, 4, 47, 127
1, 46568, Note_on_c, 4, 54, 127
1, 46569, Control_c, 3, 1, 104
1, 46575, Control_c, 3, 1, 108
1, 46577, Note_on_c, 6, 54, 0
1, 46577, Control_c, 3, 1, 114
1, 46580, Note_on_c, 6, 59, 0
1, 46581, Control_c, 3, 1, 117
1, 46585, Note_on_c, 6, 62, 0
1, 46586, Note_on_c, 0, 57, 0
1, 46588, Control_c, 3, 1, 116
1, 46591, Note_on_c, 0, 62, 0
1, 46591, Control_c, 3, 1, 104
1, 46593, Note_on_c, 0, 66, 0
1, 46596, Control_c, 3, 1, 76
1, 46600, Control_c, 3, 1, 40
1, 46605, Control_c, 3, 1, 23
1, 46608, Note_on_c, 6, 57, 96
1, 46609, Note_on_c, 6, 62, 82
1, 46609, Note_on_c, 6, 54, 70
1, 46610, Control_c, 3, 1, 0
1, 46613, Note_on_c, 4, 54, 0
1, 46613, Note_on_c, 9, 38, 25
1, 46614, Note_on_c, 9, 38, 0
1, 46614, Note_on_c, 4, 47, 0
1, 46621, Note_on_c, 3, 66, 0
1, 46653, Note_on_c, 6, 57, 0
1, 46654, Note_on_c, 6, 62, 0
1, 46655, Note_on_c, 6, 57, 115
1, 46656, Note_on_c, 6, 54, 0
1, 46656, Note_on_c, 1, 33, 127
1, 46656, Note_on_c, 6, 62, 111
1, 46656, Note_on_c, 6, 54, 112
1, 46657, Note_on_c, 9, 38, 54
1, 46658, Note_on_c, 9, 35, 110
1, 46659, Note_on_c, 9, 35, 0
1, 46659, Note_on_c, 4, 45, 127
1, 46660, Note_on_c, 9, 38, 0
1, 46694, Note_on_c, 6, 62, 0
1, 46698, Note_on_c, 6, 54, 0
1, 46699, Note_on_c, 6, 57, 0
1, 46703, Note_on_c, 0, 57, 117
1, 46703, Note_on_c, 0, 62, 117
1, 46704, Note_on_c, 0, 66, 117
1, 46705, Note_on_c, 6, 57, 90
1, 46705, Note_on_c, 6, 54, 86
1, 46706, Note_on_c, 6, 62, 85
1, 46709, Note_on_c, 9, 38, 45
1, 46710, Note_on_c, 9, 38, 0
1, 46717, Note_on_c, 4, 45, 0
1, 46734, Note_on_c, 0, 57, 0
1, 46737, Note_on_c, 0, 62, 0
1, 46738, Note_on_c, 0, 66, 0
1, 46749, Note_on_c, 6, 62, 0
1, 46749, Note_on_c, 6, 57, 0
1, 46750, Note_on_c, 6, 54, 0
1, 46751, Note_on_c, 6, 62, 108
1, 46751, Note_on_c, 6, 54, 113
1, 46752, Note_on_c, 6, 59, 116
1, 46753, Note_on_c, 9, 40, 97
1, 46753, Note_on_c, 9, 28, 90
1, 46754, Note_on_c, 9, 40, 0
1, 46755, Note_on_c, 9, 28, 0
1, 46755, Note_on_c, 4, 47, 127
1, 46758, Note_on_c, 4, 54, 127
1, 46760, Note_on_c, 1, 33, 0
1, 46767, Note_on_c, 6, 54, 0
1, 46769, Note_on_c, 6, 59, 0
1, 46774, Note_on_c, 6, 62, 0
1, 46790, Note_on_c, 4, 47, 0
1, 46792, Note_on_c, 4, 54, 0
1, 46799, Note_on_c, 6, 57, 82
1, 46800, Note_on_c, 6, 62, 88
1, 46801, Note_on_c, 6, 54, 88
1, 46805, Note_on_c, 9, 38, 25
1, 46806, Note_on_c, 9, 38, 0
1, 46809, Note_on_c, 4, 50, 127
1, 46812, Note_on_c, 4, 62, 127
1, 46845, Note_on_c, 6, 54, 0
1, 46846, Note_on_c, 4, 62, 0
1, 46846, Note_on_c, 6, 62, 0
1, 46847, Note_on_c, 6, 57, 0
1, 46848, Note_on_c, 4, 50, 0
1, 46848, Note_on_c, 1, 38, 127
1, 46849, Note_on_c, 0, 66, 117
1, 46849, Note_on_c, 9, 38, 53
1, 46850, Note_on_c, 0, 62, 117
1, 46850, Note_on_c, 9, 35, 111
1, 46851, Note_on_c, 0, 57, 117
1, 46852, Note_on_c, 9, 35, 0
1, 46852, Note_on_c, 9, 38, 0
1, 46852, Note_on_c, 6, 57, 101
1, 46853, Note_on_c, 6, 54, 101
1, 46854, Note_on_c, 6, 62, 100
1, 46855, Note_on_c, 4, 50, 127
1, 46873, Note_on_c, 0, 57, 0
1, 46879, Note_on_c, 0, 62, 0
1, 46883, Note_on_c, 0, 66, 0
1, 46892, Note_on_c, 4, 50, 0
1, 46894, Note_on_c, 6, 57, 0
1, 46894, Note_on_c, 6, 62, 0
1, 46896, Note_on_c, 6, 54, 0
1, 46896, Note_on_c, 6, 54, 84
1, 46896, Note_on_c, 6, 57, 87
1, 46897, Note_on_c, 6, 62, 84
1, 46901, Note_on_c, 9, 38, 42
1, 46902, Note_on_c, 9, 38, 0
1, 46903, Note_on_c, 4, 47, 127
1, 46906, Note_on_c, 4, 62, 127
1, 46935, Note_on_c, 4, 47, 0
1, 46940, Note_on_c, 4, 62, 0
1, 46941, Note_on_c, 6, 62, 0
1, 46942, Note_on_c, 6, 54, 0
1, 46942, Note_on_c, 6, 62, 110
1, 46942, Note_on_c, 6, 54, 115
1, 46943, Note_on_c, 6, 59, 118
1, 46944, Note_on_c, 6, 57, 0
1, 46945, Note_on_c, 9, 40, 97
1, 46946, Note_on_c, 9, 28, 91
1, 46947, Note_on_c, 9, 40, 0
1, 46948, Note_on_c, 9, 28, 0
1, 46948, Note_on_c, 4, 47, 127
1, 46952, Note_on_c, 1, 38, 0
1, 46952, Note_on_c, 4, 54, 127
1, 46961, Note_on_c, 6, 54, 0
1, 46964, Note_on_c, 6, 59, 0
1, 46969, Note_on_c, 6, 62, 0
1, 46991, Note_on_c, 0, 66, 117
1, 46991, Note_on_c, 0, 62, 117
1, 46992, Note_on_c, 0, 57, 117
1, 46992, Note_on_c, 1, 38, 116
1, 46993, Note_on_c, 6, 57, 96
1, 46993, Note_on_c, 9, 35, 68
1, 46994, Note_on_c, 9, 35, 0
1, 46994, Note_on_c, 6, 62, 82
1, 46995, Note_on_c, 6, 54, 70
1, 46996, Note_on_c, 4, 47, 0
1, 46997, Note_on_c, 4, 54, 0
1, 46997, Note_on_c, 9, 38, 27
1, 46998, Note_on_c, 9, 38, 0
1, 47005, Note_on_c, 1, 38, 0
1, 47019, Note_on_c, 0, 57, 0
1, 47026, Note_on_c, 0, 62, 0
1, 47028, Note_on_c, 0, 66, 0
1, 47037, Note_on_c, 6, 57, 0
1, 47037, Note_on_c, 6, 54, 0
1, 47037, Note_on_c, 6, 62, 0
1, 47037, Note_on_c, 6, 57, 115
1, 47037, Note_on_c, 6, 62, 111
1, 47037, Note_on_c, 6, 54, 112
1, 47040, Note_on_c, 1, 33, 127
1, 47041, Note_on_c, 4, 45, 127
1, 47041, Note_on_c, 9, 38, 52
1, 47041, Note_on_c, 9, 35, 110
1, 47043, Note_on_c, 9, 35, 0
1, 47043, Note_on_c, 9, 38, 0
1, 47081, Note_on_c, 6, 62, 0
1, 47082, Note_on_c, 6, 54, 0
1, 47084, Note_on_c, 6, 57, 0
1, 47088, Note_on_c, 6, 57, 90
1, 47089, Note_on_c, 1, 33, 0
1, 47089, Note_on_c, 6, 54, 86
1, 47089, Note_on_c, 6, 62, 85
1, 47090, Note_on_c, 4, 45, 0
1, 47092, Note_on_c, 9, 38, 47
1, 47093, Note_on_c, 9, 38, 0
1, 47133, Note_on_c, 6, 62, 0
1, 47133, Note_on_c, 6, 57, 0
1, 47134, Note_on_c, 6, 54, 0
1, 47135, Note_on_c, 6, 62, 108
1, 47136, Note_on_c, 1, 38, 127
1, 47136, Note_on_c, 6, 54, 113
1, 47136, Note_on_c, 6, 59, 116
1, 47137, Note_on_c, 0, 66, 117
1, 47137, Note_on_c, 9, 40, 96
1, 47137, Note_on_c, 9, 28, 92
1, 47138, Note_on_c, 9, 40, 0
1, 47138, Note_on_c, 0, 62, 117
1, 47139, Note_on_c, 9, 28, 0
1, 47139, Note_on_c, 0, 57, 117
1, 47140, Note_on_c, 4, 42, 127
1, 47151, Note_on_c, 6, 54, 0
1, 47153, Note_on_c, 6, 59, 0
1, 47157, Note_on_c, 6, 62, 0
1, 47169, Note_on_c, 0, 57, 0
1, 47180, Note_on_c, 0, 66, 0
1, 47181, Note_on_c, 1, 38, 0
1, 47182, Note_on_c, 0, 62, 0
1, 47184, Note_on_c, 6, 57, 82
1, 47185, Note_on_c, 6, 62, 88
1, 47185, Note_on_c, 6, 54, 88
1, 47186, Note_on_c, 3, 69, 102
1, 47189, Note_on_c, 4, 42, 0
1, 47189, Note_on_c, 9, 38, 33
1, 47191, Note_on_c, 9, 38, 0
1, 47209, Note_on_c, 9, 38, 43
1, 47210, Note_on_c, 9, 38, 0
1, 47218, Note_on_c, 3, 69, 0
1, 47229, Note_on_c, 6, 54, 0
1, 47230, Note_on_c, 6, 62, 0
1, 47230, Note_on_c, 6, 57, 0
1, 47232, Note_on_c, 1, 45, 123
1, 47232, Note_on_c, 6, 52, 88
1, 47232, Note_on_c, 6, 57, 96
1, 47233, Note_on_c, 3, 67, 122
1, 47233, Note_on_c, 9, 38, 43
1, 47234, Note_on_c, 4, 45, 127
1, 47234, Note_on_c, 9, 35, 111
1, 47236, Note_on_c, 9, 35, 0
1, 47236, Note_on_c, 9, 38, 0
1, 47267, Note_on_c, 3, 67, 0
1, 47277, Note_on_c, 6, 57, 0
1, 47278, Note_on_c, 6, 52, 0
1, 47280, Note_on_c, 3, 67, 113
1, 47280, Note_on_c, 6, 57, 58
1, 47281, Note_on_c, 6, 52, 63
1, 47282, Note_on_c, 4, 45, 0
1, 47285, Note_on_c, 9, 38, 45
1, 47286, Note_on_c, 9, 38, 0
1, 47326, Note_on_c, 6, 52, 0
1, 47326, Note_on_c, 6, 49, 126
1, 47326, Note_on_c, 6, 52, 113
1, 47327, Note_on_c, 6, 57, 0
1, 47327, Note_on_c, 6, 57, 127
1, 47328, Note_on_c, 9, 40, 98
1, 47330, Note_on_c, 9, 40, 0
1, 47330, Note_on_c, 0, 61, 117
1, 47330, Note_on_c, 9, 28, 94
1, 47331, Note_on_c, 9, 28, 0
1, 47331, Note_on_c, 0, 67, 113
1, 47332, Note_on_c, 0, 64, 117
1, 47333, Note_on_c, 0, 57, 117
1, 47333, Note_on_c, 4, 42, 127
1, 47335, Note_on_c, 4, 49, 127
1, 47336, Note_on_c, 6, 49, 0
1, 47337, Note_on_c, 1, 45, 0
1, 47338, Note_on_c, 6, 52, 0
1, 47341, Note_on_c, 6, 57, 0
1, 47352, Note_on_c, 0, 57, 0
1, 47355, Note_on_c, 0, 67, 0
1, 47360, Note_on_c, 0, 64, 0
1, 47364, Note_on_c, 0, 61, 0
1, 47365, Note_on_c, 3, 67, 0
1, 47376, Note_on_c, 6, 57, 71
1, 47377, Note_on_c, 6, 52, 63
1, 47381, Note_on_c, 4, 49, 0
1, 47381, Note_on_c, 9, 38, 25
1, 47382, Note_on_c, 9, 38, 0
1, 47382, Note_on_c, 4, 42, 0
1, 47421, Note_on_c, 6, 57, 0
1, 47422, Note_on_c, 6, 52, 0
1, 47422, Note_on_c, 6, 52, 101
1, 47422, Note_on_c, 6, 57, 96
1, 47424, Note_on_c, 1, 42, 111
1, 47424, Note_on_c, 3, 67, 120
1, 47425, Note_on_c, 9, 38, 54
1, 47425, Note_on_c, 9, 35, 110
1, 47427, Note_on_c, 9, 35, 0
1, 47427, Note_on_c, 9, 38, 0
1, 47427, Note_on_c, 4, 40, 127
1, 47468, Note_on_c, 6, 52, 0
1, 47468, Note_on_c, 6, 57, 0
1, 47470, Note_on_c, 0, 61, 117
1, 47471, Note_on_c, 0, 67, 110
1, 47472, Note_on_c, 0, 57, 117
1, 47473, Note_on_c, 0, 64, 117
1, 47473, Note_on_c, 6, 57, 71
1, 47474, Note_on_c, 6, 52, 63
1, 47475, Note_on_c, 1, 42, 0
1, 47477, Note_on_c, 9, 38, 45
1, 47478, Note_on_c, 9, 38, 0
1, 47485, Note_on_c, 4, 40, 0
1, 47496, Note_on_c, 3, 67, 0
1, 47502, Note_on_c, 0, 64, 0
1, 47504, Note_on_c, 0, 67, 0
1, 47508, Note_on_c, 0, 61, 0
1, 47508, Note_on_c, 0, 57, 0
1, 47518, Note_on_c, 3, 69, 119
1, 47519, Note_on_c, 6, 52, 0
1, 47519, Note_on_c, 1, 40, 123
1, 47519, Note_on_c, 6, 49, 126
1, 47519, Note_on_c, 6, 52, 126
1, 47520, Note_on_c, 6, 57, 0
1, 47520, Note_on_c, 6, 57, 127
1, 47521, Note_on_c, 9, 40, 97
1, 47521, Note_on_c, 9, 28, 90
1, 47522, Note_on_c, 9, 40, 0
1, 47523, Note_on_c, 9, 28, 0
1, 47523, Note_on_c, 4, 42, 127
1, 47526, Note_on_c, 4, 49, 127
1, 47527, Note_on_c, 6, 49, 0
1, 47528, Note_on_c, 6, 57, 0
1, 47528, Note_on_c, 6, 52, 0
1, 47558, Note_on_c, 4, 42, 0
1, 47559, Note_on_c, 4, 49, 0
1, 47563, Note_on_c, 3, 69, 0
1, 47563, Pitch_bend_c, 3, 8000
1, 47567, Note_on_c, 6, 57, 71
1, 47568, Note_on_c, 6, 52, 63
1, 47569, Pitch_bend_c, 3, 5020
1, 47571, Note_on_c, 1, 40, 0
1, 47571, Note_on_c, 3, 71, 126
1, 47572, Note_on_c, 9, 38, 25
1, 47573, Pitch_bend_c, 3, 5285
1, 47574, Note_on_c, 9, 38, 0
1, 47577, Note_on_c, 4, 45, 127
1, 47578, Note_on_c, 4, 57, 127
1, 47604, Pitch_bend_c, 3, 5549
1, 47609, Pitch_bend_c, 3, 5813
1, 47613, Note_on_c, 4, 57, 0
1, 47614, Note_on_c, 6, 52, 0
1, 47614, Note_on_c, 6, 52, 88
1, 47615, Note_on_c, 6, 57, 0
1, 47615, Note_on_c, 6, 57, 96
1, 47616, Note_on_c, 4, 45, 0
1, 47616, Note_on_c, 1, 33, 119
1, 47617, Pitch_bend_c, 3, 6077
1, 47617, Note_on_c, 9, 38, 53
1, 47618, Note_on_c, 0, 61, 117
1, 47618, Note_on_c, 9, 35, 111
1, 47619, Note_on_c, 0, 67, 105
1, 47620, Note_on_c, 9, 35, 0
1, 47620, Note_on_c, 9, 38, 0
1, 47620, Note_on_c, 0, 64, 117
1, 47621, Note_on_c, 0, 57, 117
1, 47623, Pitch_bend_c, 3, 6342
1, 47624, Note_on_c, 4, 45, 127
1, 47625, Pitch_bend_c, 3, 6720
1, 47627, Pitch_bend_c, 3, 7104
1, 47631, Pitch_bend_c, 3, 7520
1, 47634, Pitch_bend_c, 3, 8064
1, 47644, Note_on_c, 0, 57, 0
1, 47644, Note_on_c, 0, 67, 0
1, 47646, Note_on_c, 0, 64, 0
1, 47649, Note_on_c, 0, 61, 0
1, 47659, Note_on_c, 6, 57, 0
1, 47660, Note_on_c, 6, 52, 0
1, 47660, Note_on_c, 4, 45, 0
1, 47664, Pitch_bend_c, 3, 8192
1, 47664, Note_on_c, 6, 57, 58
1, 47664, Note_on_c, 6, 52, 63
1, 47669, Note_on_c, 9, 38, 42
1, 47670, Note_on_c, 9, 38, 0
1, 47671, Note_on_c, 4, 42, 127
1, 47674, Note_on_c, 4, 57, 127
1, 47690, Note_on_c, 3, 71, 0
1, 47704, Note_on_c, 4, 42, 0
1, 47708, Note_on_c, 4, 57, 0
1, 47710, Note_on_c, 6, 49, 126
1, 47711, Note_on_c, 6, 57, 0
1, 47711, Note_on_c, 6, 52, 0
1, 47711, Note_on_c, 6, 52, 113
1, 47711, Note_on_c, 6, 57, 127
1, 47713, Note_on_c, 3, 71, 108
1, 47713, Note_on_c, 9, 40, 97
1, 47714, Note_on_c, 9, 40, 0
1, 47714, Note_on_c, 9, 28, 91
1, 47715, Note_on_c, 9, 28, 0
1, 47716, Note_on_c, 4, 42, 127
1, 47720, Note_on_c, 6, 49, 0
1, 47720, Note_on_c, 4, 49, 127
1, 47721, Note_on_c, 1, 33, 0
1, 47721, Note_on_c, 6, 52, 0
1, 47725, Note_on_c, 6, 57, 0
1, 47744, Note_on_c, 3, 71, 0
1, 47760, Note_on_c, 0, 61, 117
1, 47760, Note_on_c, 0, 64, 117
1, 47760, Note_on_c, 0, 57, 117
1, 47760, Note_on_c, 0, 67, 107
1, 47760, Note_on_c, 1, 33, 109
1, 47761, Note_on_c, 6, 57, 71
1, 47761, Note_on_c, 9, 35, 68
1, 47762, Note_on_c, 9, 35, 0
1, 47762, Note_on_c, 6, 52, 63
1, 47763, Note_on_c, 4, 42, 0
1, 47764, Note_on_c, 3, 69, 127
1, 47764, Note_on_c, 9, 38, 27
1, 47765, Note_on_c, 4, 49, 0
1, 47766, Note_on_c, 9, 38, 0
1, 47775, Note_on_c, 1, 33, 0
1, 47785, Note_on_c, 0, 67, 0
1, 47791, Note_on_c, 0, 64, 0
1, 47794, Note_on_c, 0, 57, 0
1, 47794, Note_on_c, 0, 61, 0
1, 47805, Note_on_c, 6, 52, 0
1, 47805, Note_on_c, 6, 57, 0
1, 47805, Note_on_c, 6, 52, 101
1, 47806, Note_on_c, 6, 57, 96
1, 47808, Note_on_c, 1, 40, 124
1, 47809, Note_on_c, 9, 38, 52
1, 47810, Note_on_c, 9, 35, 110
1, 47811, Note_on_c, 9, 35, 0
1, 47811, Note_on_c, 9, 38, 0
1, 47812, Note_on_c, 4, 43, 127
1, 47825, Pitch_bend_c, 3, 8128
1, 47829, Pitch_bend_c, 3, 7936
1, 47833, Pitch_bend_c, 3, 7680
1, 47841, Pitch_bend_c, 3, 7168
1, 47844, Pitch_bend_c, 3, 6976
1, 47847, Pitch_bend_c, 3, 6848
1, 47851, Pitch_bend_c, 3, 6624
1, 47852, Note_on_c, 6, 57, 0
1, 47852, Note_on_c, 6, 52, 0
1, 47856, Pitch_bend_c, 3, 6496
1, 47856, Note_on_c, 6, 57, 71
1, 47856, Note_on_c, 6, 52, 63
1, 47857, Note_on_c, 4, 43, 0
1, 47858, Pitch_bend_c, 3, 6112
1, 47861, Note_on_c, 9, 38, 47
1, 47862, Note_on_c, 9, 38, 0
1, 47865, Pitch_bend_c, 3, 5248
1, 47875, Pitch_bend_c, 3, 4160
1, 47877, Pitch_bend_c, 3, 3744
1, 47882, Pitch_bend_c, 3, 3680
1, 47890, Pitch_bend_c, 3, 3744
1, 47892, Pitch_bend_c, 3, 3808
1, 47896, Pitch_bend_c, 3, 3936
1, 47898, Note_on_c, 3, 69, 0
1, 47900, Pitch_bend_c, 3, 4064
1, 47902, Note_on_c, 6, 49, 126
1, 47903, Note_on_c, 6, 52, 0
1, 47903, Note_on_c, 6, 57, 0
1, 47903, Note_on_c, 6, 52, 126
1, 47903, Note_on_c, 6, 57, 127
1, 47904, Note_on_c, 9, 40, 96
1, 47905, Note_on_c, 0, 61, 117
1, 47906, Note_on_c, 9, 40, 0
1, 47906, Note_on_c, 0, 64, 117
1, 47906, Note_on_c, 9, 28, 92
1, 47907, Note_on_c, 9, 28, 0
1, 47907, Note_on_c, 0, 67, 99
1, 47908, Note_on_c, 0, 57, 117
1, 47910, Note_on_c, 4, 42, 127
1, 47911, Pitch_bend_c, 3, 4320
1, 47912, Note_on_c, 4, 49, 127
1, 47913, Note_on_c, 6, 49, 0
1, 47913, Note_on_c, 1, 40, 0
1, 47913, Pitch_bend_c, 3, 5728
1, 47914, Note_on_c, 6, 52, 0
1, 47915, Note_on_c, 6, 57, 0
1, 47916, Pitch_bend_c, 3, 6720
1, 47917, Pitch_bend_c, 3, 7584
1, 47919, Pitch_bend_c, 3, 8192
1, 47931, Note_on_c, 0, 57, 0
1, 47932, Note_on_c, 0, 67, 0
1, 47934, Note_on_c, 0, 61, 0
1, 47936, Note_on_c, 0, 64, 0
1, 47952, Note_on_c, 6, 57, 71
1, 47952, Note_on_c, 6, 52, 63
1, 47957, Note_on_c, 4, 42, 0
1, 47957, Note_on_c, 9, 38, 23
1, 47959, Note_on_c, 9, 38, 0
1, 47959, Note_on_c, 4, 49, 0
1, 47999, Note_on_c, 6, 57, 0
1, 47999, Note_on_c, 6, 52, 0
1, 47999, Note_on_c, 6, 52, 88
1, 47999, Note_on_c, 6, 57, 96
1, 48000, Note_on_c, 1, 33, 121
1, 48001, Note_on_c, 3, 67, 127
1, 48001, Note_on_c, 9, 38, 43
1, 48002, Note_on_c, 9, 35, 111
1, 48003, Note_on_c, 4, 45, 127
1, 48004, Note_on_c, 9, 35, 0
1, 48004, Note_on_c, 9, 38, 0
1, 48041, Note_on_c, 3, 67, 0
1, 48044, Note_on_c, 6, 57, 0
1, 48044, Note_on_c, 6, 52, 0
1, 48048, Note_on_c, 6, 57, 58
1, 48048, Note_on_c, 6, 52, 63
1, 48049, Note_on_c, 4, 45, 0
1, 48050, Note_on_c, 3, 67, 122
1, 48053, Note_on_c, 9, 38, 45
1, 48054, Note_on_c, 9, 38, 0
1, 48094, Note_on_c, 6, 49, 126
1, 48095, Note_on_c, 6, 52, 0
1, 48095, Note_on_c, 6, 57, 0
1, 48095, Note_on_c, 6, 52, 113
1, 48095, Note_on_c, 6, 57, 127
1, 48096, Note_on_c, 9, 40, 98
1, 48097, Note_on_c, 0, 61, 117
1, 48097, Note_on_c, 9, 28, 94
1, 48098, Note_on_c, 9, 40, 0
1, 48098, Note_on_c, 0, 64, 117
1, 48099, Note_on_c, 9, 28, 0
1, 48099, Note_on_c, 0, 67, 107
1, 48100, Note_on_c, 0, 57, 117
1, 48101, Note_on_c, 4, 42, 127
1, 48103, Note_on_c, 4, 49, 127
1, 48104, Note_on_c, 6, 49, 0
1, 48106, Note_on_c, 6, 52, 0
1, 48106, Note_on_c, 1, 33, 0
1, 48109, Note_on_c, 6, 57, 0
1, 48127, Note_on_c, 0, 67, 0
1, 48127, Note_on_c, 0, 64, 0
1, 48128, Note_on_c, 3, 67, 0
1, 48129, Note_on_c, 0, 61, 0
1, 48129, Note_on_c, 0, 57, 0
1, 48143, Note_on_c, 6, 57, 71
1, 48144, Note_on_c, 6, 52, 63
1, 48149, Note_on_c, 4, 49, 0
1, 48149, Note_on_c, 9, 38, 25
1, 48150, Note_on_c, 9, 38, 0
1, 48150, Note_on_c, 4, 42, 0
1, 48189, Note_on_c, 6, 57, 0
1, 48190, Note_on_c, 6, 52, 0
1, 48190, Note_on_c, 6, 52, 101
1, 48190, Note_on_c, 6, 57, 96
1, 48191, Note_on_c, 1, 40, 110
1, 48192, Note_on_c, 3, 67, 122
1, 48193, Note_on_c, 9, 38, 54
1, 48193, Note_on_c, 9, 35, 110
1, 48195, Note_on_c, 9, 35, 0
1, 48195, Note_on_c, 9, 38, 0
1, 48195, Note_on_c, 4, 40, 127
1, 48235, Note_on_c, 6, 57, 0
1, 48236, Note_on_c, 6, 52, 0
1, 48239, Note_on_c, 0, 61, 117
1, 48239, Note_on_c, 0, 57, 117
1, 48240, Note_on_c, 0, 67, 108
1, 48241, Note_on_c, 0, 64, 117
1, 48241, Note_on_c, 6, 57, 71
1, 48242, Note_on_c, 6, 52, 63
1, 48245, Note_on_c, 9, 38, 45
1, 48246, Note_on_c, 9, 38, 0
1, 48253, Note_on_c, 4, 40, 0
1, 48258, Note_on_c, 3, 67, 0
1, 48264, Note_on_c, 0, 64, 0
1, 48264, Note_on_c, 0, 67, 0
1, 48268, Note_on_c, 0, 57, 0
1, 48273, Note_on_c, 0, 61, 0
1, 48286, Note_on_c, 6, 52, 0
1, 48286, Note_on_c, 6, 49, 126
1, 48286, Note_on_c, 6, 52, 126
1, 48287, Note_on_c, 6, 57, 0
1, 48287, Note_on_c, 6, 57, 127
1, 48288, Note_on_c, 9, 40, 97
1, 48290, Note_on_c, 9, 28, 90
1, 48291, Note_on_c, 9, 40, 0
1, 48291, Note_on_c, 3, 69, 114
1, 48292, Note_on_c, 9, 28, 0
1, 48292, Note_on_c, 4, 42, 127
1, 48294, Note_on_c, 4, 49, 127
1, 48295, Note_on_c, 6, 49, 0
1, 48296, Note_on_c, 6, 52, 0
1, 48296, Note_on_c, 6, 57, 0
1, 48300, Note_on_c, 1, 40, 0
1, 48316, Note_on_c, 3, 69, 0
1, 48326, Note_on_c, 4, 42, 0
1, 48328, Note_on_c, 4, 49, 0
1, 48334, Pitch_bend_c, 3, 4492
1, 48336, Note_on_c, 6, 57, 71
1, 48336, Note_on_c, 6, 52, 63
1, 48337, Note_on_c, 3, 71, 127
1, 48341, Note_on_c, 9, 38, 25
1, 48342, Note_on_c, 9, 38, 0
1, 48345, Note_on_c, 4, 45, 127
1, 48348, Note_on_c, 4, 57, 127
1, 48361, Pitch_bend_c, 3, 4756
1, 48368, Pitch_bend_c, 3, 5285
1, 48374, Pitch_bend_c, 3, 5549
1, 48377, Pitch_bend_c, 3, 5813
1, 48378, Pitch_bend_c, 3, 7296
1, 48380, Note_on_c, 4, 57, 0
1, 48382, Note_on_c, 6, 52, 0
1, 48382, Note_on_c, 6, 52, 88
1, 48383, Note_on_c, 6, 57, 0
1, 48383, Note_on_c, 6, 57, 96
1, 48384, Note_on_c, 4, 45, 0
1, 48384, Note_on_c, 1, 45, 124
1, 48385, Note_on_c, 0, 61, 117
1, 48385, Note_on_c, 9, 38, 53
1, 48386, Note_on_c, 0, 67, 107
1, 48386, Note_on_c, 9, 35, 111
1, 48387, Note_on_c, 0, 64, 117
1, 48388, Note_on_c, 9, 35, 0
1, 48388, Note_on_c, 0, 57, 117
1, 48389, Note_on_c, 9, 38, 0
1, 48390, Pitch_bend_c, 3, 7808
1, 48391, Pitch_bend_c, 3, 8128
1, 48392, Pitch_bend_c, 3, 8192
1, 48393, Note_on_c, 4, 45, 127
1, 48415, Note_on_c, 0, 67, 0
1, 48416, Note_on_c, 0, 64, 0
1, 48417, Note_on_c, 0, 57, 0
1, 48419, Note_on_c, 0, 61, 0
1, 48427, Note_on_c, 6, 57, 0
1, 48428, Note_on_c, 6, 52, 0
1, 48428, Note_on_c, 4, 45, 0
1, 48432, Note_on_c, 6, 57, 58
1, 48433, Note_on_c, 6, 52, 63
1, 48434, Note_on_c, 3, 71, 0
1, 48437, Note_on_c, 9, 38, 42
1, 48438, Note_on_c, 9, 38, 0
1, 48439, Note_on_c, 4, 42, 127
1, 48442, Note_on_c, 4, 57, 127
1, 48472, Note_on_c, 3, 71, 124
1, 48473, Note_on_c, 4, 42, 0
1, 48476, Note_on_c, 4, 57, 0
1, 48477, Note_on_c, 6, 49, 126
1, 48478, Note_on_c, 6, 52, 0
1, 48478, Note_on_c, 6, 52, 113
1, 48479, Note_on_c, 6, 57, 0
1, 48479, Note_on_c, 6, 57, 127
1, 48481, Note_on_c, 9, 40, 97
1, 48482, Note_on_c, 9, 40, 0
1, 48482, Note_on_c, 9, 28, 91
1, 48483, Note_on_c, 9, 28, 0
1, 48484, Note_on_c, 4, 42, 127
1, 48488, Note_on_c, 4, 49, 127
1, 48489, Note_on_c, 6, 49, 0
1, 48489, Note_on_c, 1, 45, 0
1, 48490, Note_on_c, 6, 52, 0
1, 48493, Note_on_c, 6, 57, 0
1, 48528, Note_on_c, 0, 61, 117
1, 48528, Note_on_c, 0, 57, 117
1, 48528, Note_on_c, 0, 67, 113
1, 48528, Note_on_c, 0, 64, 117
1, 48528, Note_on_c, 1, 45, 112
1, 48529, Note_on_c, 3, 71, 0
1, 48529, Note_on_c, 9, 35, 68
1, 48530, Note_on_c, 9, 35, 0
1, 48530, Note_on_c, 6, 57, 71
1, 48531, Note_on_c, 6, 52, 63
1, 48532, Note_on_c, 4, 42, 0
1, 48533, Note_on_c, 4, 49, 0
1, 48533, Note_on_c, 9, 38, 27
1, 48534, Note_on_c, 9, 38, 0
1, 48544, Note_on_c, 1, 45, 0
1, 48555, Note_on_c, 0, 64, 0
1, 48557, Note_on_c, 0, 67, 0
1, 48558, Note_on_c, 0, 57, 0
1, 48560, Note_on_c, 0, 61, 0
1, 48568, Note_on_c, 3, 69, 119
1, 48573, Note_on_c, 6, 57, 0
1, 48574, Note_on_c, 6, 52, 0
1, 48574, Note_on_c, 6, 52, 101
1, 48574, Note_on_c, 6, 57, 96
1, 48576, Note_on_c, 1, 40, 112
1, 48577, Note_on_c, 9, 38, 52
1, 48578, Note_on_c, 9, 35, 110
1, 48579, Note_on_c, 9, 35, 0
1, 48579, Note_on_c, 9, 38, 0
1, 48580, Note_on_c, 4, 43, 127
1, 48619, Pitch_bend_c, 3, 8160
1, 48620, Note_on_c, 6, 57, 0
1, 48620, Note_on_c, 6, 52, 0
1, 48621, Pitch_bend_c, 3, 8000
1, 48623, Pitch_bend_c, 3, 7392
1, 48624, Note_on_c, 6, 57, 71
1, 48625, Note_on_c, 4, 43, 0
1, 48625, Note_on_c, 6, 52, 63
1, 48627, Pitch_bend_c, 3, 6592
1, 48629, Note_on_c, 9, 38, 47
1, 48630, Note_on_c, 9, 38, 0
1, 48632, Pitch_bend_c, 3, 6144
1, 48635, Pitch_bend_c, 3, 5728
1, 48637, Pitch_bend_c, 3, 4896
1, 48639, Note_on_c, 1, 40, 0
1, 48641, Pitch_bend_c, 3, 4544
1, 48645, Note_on_c, 3, 69, 0
1, 48646, Pitch_bend_c, 3, 4160
1, 48648, Pitch_bend_c, 3, 4192
1, 48653, Pitch_bend_c, 3, 4448
1, 48655, Pitch_bend_c, 3, 4992
1, 48659, Pitch_bend_c, 3, 6752
1, 48664, Pitch_bend_c, 3, 7520
1, 48666, Pitch_bend_c, 3, 8064
1, 48668, Pitch_bend_c, 3, 8192
1, 48670, Note_on_c, 6, 52, 0
1, 48670, Note_on_c, 6, 49, 126
1, 48670, Note_on_c, 6, 52, 126
1, 48671, Note_on_c, 6, 57, 0
1, 48671, Note_on_c, 6, 57, 127
1, 48672, Note_on_c, 1, 39, 112
1, 48673, Note_on_c, 0, 61, 117
1, 48673, Note_on_c, 9, 40, 96
1, 48674, Note_on_c, 0, 67, 117
1, 48674, Note_on_c, 9, 28, 92
1, 48675, Note_on_c, 9, 40, 0
1, 48675, Note_on_c, 0, 64, 117
1, 48676, Note_on_c, 9, 28, 0
1, 48676, Note_on_c, 0, 57, 117
1, 48678, Note_on_c, 3, 67, 127
1, 48679, Note_on_c, 4, 42, 127
1, 48680, Note_on_c, 6, 49, 0
1, 48680, Note_on_c, 4, 49, 127
1, 48681, Note_on_c, 6, 52, 0
1, 48682, Note_on_c, 6, 57, 0
1, 48703, Note_on_c, 0, 57, 0
1, 48704, Note_on_c, 0, 64, 0
1, 48705, Note_on_c, 0, 67, 0
1, 48714, Note_on_c, 0, 61, 0
1, 48720, Note_on_c, 6, 57, 71
1, 48720, Note_on_c, 6, 52, 63
1, 48723, Note_on_c, 3, 67, 0
1, 48724, Note_on_c, 9, 38, 23
1, 48725, Note_on_c, 4, 42, 0
1, 48726, Note_on_c, 9, 38, 0
1, 48727, Note_on_c, 4, 49, 0
1, 48735, Note_on_c, 1, 39, 0
1, 48767, Note_on_c, 6, 57, 0
1, 48768, Note_on_c, 1, 38, 127
1, 48768, Note_on_c, 6, 57, 101
1, 48768, Note_on_c, 6, 54, 101
1, 48769, Note_on_c, 6, 62, 100
1, 48769, Note_on_c, 9, 38, 43
1, 48770, Note_on_c, 6, 52, 0
1, 48770, Note_on_c, 9, 35, 111
1, 48771, Note_on_c, 3, 66, 127
1, 48772, Note_on_c, 9, 35, 0
1, 48772, Note_on_c, 9, 38, 0
1, 48772, Note_on_c, 4, 50, 127
1, 48814, Note_on_c, 6, 62, 0
1, 48814, Note_on_c, 6, 57, 0
1, 48816, Note_on_c, 6, 54, 0
1, 48816, Note_on_c, 6, 54, 84
1, 48816, Note_on_c, 6, 57, 87
1, 48817, Note_on_c, 6, 62, 84
1, 48818, Note_on_c, 4, 50, 0
1, 48820, Note_on_c, 9, 38, 45
1, 48821, Note_on_c, 9, 38, 0
1, 48851, Note_on_c, 3, 66, 0
1, 48861, Note_on_c, 6, 62, 0
1, 48861, Note_on_c, 6, 62, 110
1, 48862, Note_on_c, 6, 54, 0
1, 48862, Note_on_c, 6, 54, 115
1, 48863, Note_on_c, 6, 59, 118
1, 48865, Note_on_c, 6, 57, 0
1, 48865, Note_on_c, 0, 62, 117
1, 48865, Note_on_c, 9, 40, 98
1, 48866, Note_on_c, 9, 40, 0
1, 48866, Note_on_c, 0, 57, 117
1, 48866, Note_on_c, 9, 28, 94
1, 48867, Note_on_c, 9, 28, 0
1, 48867, Note_on_c, 0, 66, 117
1, 48868, Note_on_c, 3, 69, 117
1, 48869, Note_on_c, 4, 47, 127
1, 48871, Note_on_c, 1, 38, 0
1, 48872, Note_on_c, 4, 54, 127
1, 48881, Note_on_c, 6, 54, 0
1, 48884, Note_on_c, 6, 59, 0
1, 48887, Note_on_c, 3, 69, 0
1, 48889, Note_on_c, 6, 62, 0
1, 48890, Note_on_c, 0, 57, 0
1, 48892, Note_on_c, 0, 62, 0
1, 48900, Note_on_c, 0, 66, 0
1, 48911, Note_on_c, 6, 57, 96
1, 48912, Note_on_c, 6, 62, 82
1, 48913, Note_on_c, 6, 54, 70
1, 48914, Note_on_c, 3, 69, 127
1, 48917, Note_on_c, 4, 54, 0
1, 48917, Note_on_c, 4, 47, 0
1, 48917, Note_on_c, 9, 38, 25
1, 48918, Note_on_c, 9, 38, 0
1, 48957, Note_on_c, 6, 57, 0
1, 48958, Note_on_c, 6, 62, 0
1, 48958, Note_on_c, 6, 57, 115
1, 48959, Note_on_c, 1, 33, 127
1, 48959, Note_on_c, 6, 62, 111
1, 48960, Note_on_c, 6, 54, 0
1, 48960, Note_on_c, 6, 54, 112
1, 48961, Note_on_c, 9, 38, 54
1, 48962, Note_on_c, 9, 35, 110
1, 48964, Note_on_c, 9, 35, 0
1, 48964, Note_on_c, 9, 38, 0
1, 48964, Note_on_c, 4, 45, 127
1, 48987, Control_c, 3, 1, 3
1, 48989, Control_c, 3, 1, 7
1, 48993, Control_c, 3, 1, 12
1, 49001, Note_on_c, 6, 62, 0
1, 49002, Note_on_c, 6, 54, 0
1, 49003, Note_on_c, 6, 57, 0
1, 49006, Control_c, 3, 1, 17
1, 49007, Note_on_c, 0, 66, 117
1, 49007, Note_on_c, 0, 62, 117
1, 49008, Note_on_c, 0, 57, 117
1, 49009, Note_on_c, 6, 57, 90
1, 49010, Note_on_c, 6, 54, 86
1, 49011, Note_on_c, 6, 62, 85
1, 49013, Note_on_c, 9, 38, 45
1, 49014, Note_on_c, 9, 38, 0
1, 49014, Control_c, 3, 1, 20
1, 49016, Control_c, 3, 1, 29
1, 49021, Note_on_c, 4, 45, 0
1, 49022, Control_c, 3, 1, 34
1, 49025, Control_c, 3, 1, 52
1, 49030, Control_c, 3, 1, 61
1, 49035, Control_c, 3, 1, 83
1, 49036, Note_on_c, 0, 57, 0
1, 49038, Note_on_c, 0, 62, 0
1, 49038, Control_c, 3, 1, 108
1, 49042, Control_c, 3, 1, 127
1, 49045, Note_on_c, 0, 66, 0
1, 49053, Note_on_c, 6, 57, 0
1, 49054, Note_on_c, 6, 62, 0
1, 49055, Note_on_c, 6, 54, 0
1, 49056, Note_on_c, 6, 62, 108
1, 49056, Note_on_c, 6, 54, 113
1, 49056, Note_on_c, 6, 59, 116
1, 49056, Note_on_c, 9, 40, 97
1, 49058, Note_on_c, 9, 28, 90
1, 49059, Note_on_c, 9, 40, 0
1, 49060, Note_on_c, 9, 28, 0
1, 49060, Note_on_c, 4, 47, 127
1, 49063, Note_on_c, 4, 54, 127
1, 49065, Note_on_c, 1, 33, 0
1, 49072, Note_on_c, 6, 54, 0
1, 49073, Note_on_c, 6, 59, 0
1, 49079, Note_on_c, 6, 62, 0
1, 49083, Note_on_c, 3, 69, 0
1, 49089, Control_c, 3, 1, 90
1, 49093, Control_c, 3, 1, 34
1, 49094, Note_on_c, 4, 47, 0
1, 49095, Note_on_c, 4, 54, 0
1, 49098, Control_c, 3, 1, 13
1, 49100, Control_c, 3, 1, 0
1, 49104, Note_on_c, 6, 57, 82
1, 49104, Note_on_c, 6, 62, 88
1, 49105, Note_on_c, 6, 54, 88
1, 49109, Note_on_c, 9, 38, 25
1, 49110, Note_on_c, 9, 38, 0
1, 49113, Note_on_c, 4, 50, 127
1, 49116, Note_on_c, 4, 62, 127
1, 49149, Note_on_c, 6, 54, 0
1, 49150, Note_on_c, 4, 62, 0
1, 49150, Note_on_c, 6, 62, 0
1, 49151, Note_on_c, 6, 57, 0
1, 49152, Note_on_c, 4, 50, 0
1, 49152, Note_on_c, 1, 38, 127
1, 49153, Note_on_c, 0, 66, 117
1, 49153, Note_on_c, 9, 38, 53
1, 49154, Note_on_c, 0, 57, 117
1, 49154, Note_on_c, 9, 35, 111
1, 49155, Note_on_c, 0, 62, 117
1, 49156, Note_on_c, 9, 35, 0
1, 49156, Note_on_c, 9, 38, 0
1, 49156, Note_on_c, 6, 57, 101
1, 49157, Note_on_c, 6, 54, 101
1, 49158, Note_on_c, 6, 62, 100
1, 49159, Note_on_c, 4, 50, 127
1, 49177, Note_on_c, 0, 57, 0
1, 49181, Note_on_c, 0, 62, 0
1, 49186, Note_on_c, 0, 66, 0
1, 49196, Note_on_c, 4, 50, 0
1, 49198, Note_on_c, 6, 57, 0
1, 49198, Note_on_c, 6, 62, 0
1, 49200, Note_on_c, 6, 54, 0
1, 49200, Note_on_c, 6, 54, 84
1, 49200, Note_on_c, 6, 57, 87
1, 49201, Note_on_c, 6, 62, 84
1, 49205, Note_on_c, 9, 38, 42
1, 49206, Note_on_c, 9, 38, 0
1, 49207, Note_on_c, 4, 47, 127
1, 49210, Note_on_c, 4, 62, 127
1, 49240, Note_on_c, 4, 47, 0
1, 49244, Note_on_c, 4, 62, 0
1, 49245, Note_on_c, 6, 62, 0
1, 49246, Note_on_c, 6, 62, 110
1, 49247, Note_on_c, 6, 54, 0
1, 49247, Note_on_c, 6, 54, 115
1, 49248, Note_on_c, 6, 59, 118
1, 49248, Note_on_c, 9, 40, 97
1, 49249, Note_on_c, 6, 57, 0
1, 49250, Note_on_c, 9, 28, 91
1, 49251, Note_on_c, 9, 40, 0
1, 49252, Note_on_c, 9, 28, 0
1, 49252, Note_on_c, 4, 47, 127
1, 49256, Note_on_c, 4, 54, 127
1, 49257, Note_on_c, 1, 38, 0
1, 49265, Note_on_c, 6, 54, 0
1, 49267, Note_on_c, 6, 59, 0
1, 49272, Note_on_c, 6, 62, 0
1, 49295, Note_on_c, 0, 66, 117
1, 49295, Note_on_c, 0, 57, 117
1, 49296, Note_on_c, 0, 62, 117
1, 49296, Note_on_c, 1, 38, 110
1, 49297, Note_on_c, 6, 57, 96
1, 49297, Note_on_c, 9, 35, 68
1, 49298, Note_on_c, 9, 35, 0
1, 49298, Note_on_c, 6, 62, 82
1, 49299, Note_on_c, 6, 54, 70
1, 49300, Note_on_c, 4, 47, 0
1, 49301, Note_on_c, 4, 54, 0
1, 49301, Note_on_c, 9, 38, 27
1, 49302, Note_on_c, 9, 38, 0
1, 49311, Note_on_c, 1, 38, 0
1, 49328, Note_on_c, 0, 57, 0
1, 49328, Note_on_c, 0, 62, 0
1, 49333, Note_on_c, 0, 66, 0
1, 49341, Note_on_c, 6, 57, 0
1, 49342, Note_on_c, 6, 62, 0
1, 49342, Note_on_c, 6, 57, 115
1, 49343, Note_on_c, 6, 62, 111
1, 49344, Note_on_c, 6, 54, 0
1, 49344, Note_on_c, 1, 33, 127
1, 49344, Note_on_c, 6, 54, 112
1, 49345, Note_on_c, 9, 38, 52
1, 49346, Note_on_c, 9, 35, 110
1, 49348, Note_on_c, 9, 35, 0
1, 49348, Note_on_c, 9, 38, 0
1, 49348, Note_on_c, 4, 45, 127
1, 49385, Note_on_c, 6, 62, 0
1, 49387, Note_on_c, 6, 54, 0
1, 49388, Note_on_c, 6, 57, 0
1, 49392, Note_on_c, 6, 57, 90
1, 49393, Note_on_c, 6, 54, 86
1, 49394, Note_on_c, 6, 62, 85
1, 49395, Note_on_c, 7, 62, 127
1, 49396, Note_on_c, 4, 45, 0
1, 49396, Note_on_c, 3, 69, 117
1, 49396, Note_on_c, 7, 66, 127
1, 49397, Note_on_c, 9, 40, 77
1, 49398, Note_on_c, 9, 40, 0
1, 49399, Note_on_c, 1, 33, 0
1, 49416, Note_on_c, 7, 62, 0
1, 49416, Note_on_c, 7, 66, 0
1, 49418, Note_on_c, 3, 69, 0
1, 49437, Note_on_c, 6, 57, 0
1, 49438, Note_on_c, 6, 62, 0
1, 49439, Note_on_c, 6, 54, 0
1, 49440, Note_on_c, 1, 38, 127
1, 49440, Note_on_c, 6, 62, 108
1, 49440, Note_on_c, 6, 54, 113
1, 49441, Note_on_c, 6, 59, 116
1, 49441, Note_on_c, 9, 40, 96
1, 49442, Note_on_c, 9, 40, 0
1, 49442, Note_on_c, 0, 66, 117
1, 49442, Note_on_c, 9, 28, 92
1, 49443, Note_on_c, 9, 28, 0
1, 49443, Note_on_c, 0, 62, 117
1, 49444, Note_on_c, 0, 57, 117
1, 49445, Note_on_c, 7, 62, 127
1, 49446, Note_on_c, 7, 66, 122
1, 49447, Note_on_c, 3, 69, 114
1, 49447, Note_on_c, 4, 47, 127
1, 49448, Note_on_c, 4, 54, 127
1, 49454, Note_on_c, 6, 54, 0
1, 49456, Note_on_c, 6, 59, 0
1, 49462, Note_on_c, 6, 62, 0
1, 49467, Note_on_c, 7, 62, 0
1, 49468, Note_on_c, 7, 66, 0
1, 49471, Note_on_c, 0, 57, 0
1, 49473, Note_on_c, 0, 62, 0
1, 49481, Note_on_c, 0, 66, 0
1, 49482, Note_on_c, 3, 69, 0
1, 49487, Note_on_c, 7, 62, 125
1, 49488, Note_on_c, 6, 57, 82
1, 49488, Note_on_c, 6, 62, 88
1, 49489, Note_on_c, 6, 54, 88
1, 49490, Note_on_c, 3, 69, 117
1, 49490, Note_on_c, 7, 66, 122
1, 49493, Note_on_c, 4, 47, 0
1, 49493, Note_on_c, 9, 38, 23
1, 49494, Note_on_c, 9, 38, 0
1, 49494, Note_on_c, 4, 54, 0
1, 49494, Note_on_c, 1, 38, 0
1, 49518, Note_on_c, 7, 66, 0
1, 49518, Note_on_c, 3, 69, 0
1, 49519, Pitch_bend_c, 7, 8160
1, 49520, Note_on_c, 7, 62, 0
1, 49521, Pitch_bend_c, 7, 7904
1, 49523, Pitch_bend_c, 7, 7520
1, 49526, Pitch_bend_c, 7, 6944
1, 49528, Pitch_bend_c, 7, 6368
1, 49531, Pitch_bend_c, 7, 5792
1, 49533, Note_on_c, 6, 54, 0
1, 49533, Note_on_c, 6, 62, 0
1, 49534, Pitch_bend_c, 7, 5376
1, 49535, Note_on_c, 6, 57, 0
1, 49535, Note_on_c, 7, 64, 127
1, 49536, Note_on_c, 1, 40, 126
1, 49536, Note_on_c, 6, 52, 88
1, 49537, Note_on_c, 6, 59, 96
1, 49537, Note_on_c, 9, 38, 43
1, 49538, Note_on_c, 7, 68, 127
1, 49538, Note_on_c, 9, 35, 111
1, 49539, Pitch_bend_c, 7, 5024
1, 49540, Note_on_c, 9, 35, 0
1, 49540, Pitch_bend_c, 3, 4228
1, 49541, Note_on_c, 9, 38, 0
1, 49541, Note_on_c, 3, 71, 126
1, 49542, Pitch_bend_c, 7, 4896
1, 49543, Note_on_c, 4, 52, 127
1, 49544, Pitch_bend_c, 7, 5024
1, 49545, Pitch_bend_c, 7, 5280
1, 49547, Pitch_bend_c, 7, 5600
1, 49550, Pitch_bend_c, 7, 6080
1, 49553, Pitch_bend_c, 7, 6592
1, 49554, Pitch_bend_c, 7, 7232
1, 49557, Pitch_bend_c, 7, 7712
1, 49559, Pitch_bend_c, 7, 8096
1, 49560, Pitch_bend_c, 3, 4288
1, 49562, Pitch_bend_c, 3, 5024
1, 49562, Pitch_bend_c, 7, 8192
1, 49566, Pitch_bend_c, 3, 5632
1, 49571, Pitch_bend_c, 3, 6464
1, 49572, Pitch_bend_c, 3, 7776
1, 49576, Pitch_bend_c, 3, 8128
1, 49581, Note_on_c, 6, 59, 0
1, 49581, Note_on_c, 6, 52, 0
1, 49583, Note_on_c, 6, 59, 58
1, 49584, Note_on_c, 6, 52, 63
1, 49585, Note_on_c, 4, 52, 0
1, 49588, Note_on_c, 9, 38, 45
1, 49589, Note_on_c, 9, 38, 0
1, 49590, Pitch_bend_c, 3, 8192
1, 49600, Note_on_c, 7, 68, 0
1, 49601, Note_on_c, 7, 64, 0
1, 49609, Note_on_c, 3, 71, 0
1, 49630, Note_on_c, 6, 59, 0
1, 49630, Note_on_c, 6, 52, 0
1, 49630, Note_on_c, 6, 52, 126
1, 49630, Note_on_c, 6, 59, 127
1, 49631, Note_on_c, 6, 56, 126
1, 49633, Note_on_c, 0, 64, 117
1, 49633, Note_on_c, 9, 40, 98
1, 49633, Note_on_c, 9, 28, 94
1, 49634, Note_on_c, 9, 40, 0
1, 49634, Note_on_c, 0, 68, 117
1, 49635, Note_on_c, 9, 28, 0
1, 49635, Note_on_c, 0, 59, 117
1, 49636, Note_on_c, 7, 64, 127
1, 49637, Note_on_c, 1, 40, 0
1, 49637, Note_on_c, 7, 68, 127
1, 49638, Note_on_c, 4, 49, 127
1, 49639, Note_on_c, 3, 71, 117
1, 49640, Note_on_c, 6, 52, 0
1, 49641, Note_on_c, 6, 56, 0
1, 49642, Note_on_c, 6, 59, 0
1, 49643, Note_on_c, 4, 56, 127
1, 49655, Note_on_c, 7, 64, 0
1, 49657, Note_on_c, 7, 68, 0
1, 49658, Note_on_c, 3, 71, 0
1, 49659, Note_on_c, 0, 59, 0
1, 49666, Note_on_c, 0, 64, 0
1, 49668, Note_on_c, 0, 68, 0
1, 49677, Note_on_c, 3, 71, 127
1, 49679, Note_on_c, 6, 59, 71
1, 49680, Note_on_c, 6, 52, 63
1, 49681, Note_on_c, 7, 64, 127
1, 49682, Note_on_c, 7, 68, 127
1, 49685, Note_on_c, 4, 56, 0
1, 49685, Note_on_c, 9, 38, 25
1, 49686, Note_on_c, 9, 38, 0
1, 49686, Note_on_c, 4, 49, 0
1, 49725, Note_on_c, 6, 52, 0
1, 49726, Note_on_c, 6, 59, 0
1, 49726, Note_on_c, 6, 52, 101
1, 49726, Note_on_c, 6, 59, 96
1, 49728, Note_on_c, 1, 35, 127
1, 49729, Note_on_c, 9, 38, 54
1, 49730, Note_on_c, 9, 35, 110
1, 49732, Note_on_c, 9, 35, 0
1, 49732, Note_on_c, 9, 38, 0
1, 49732, Note_on_c, 4, 47, 127
1, 49755, Control_c, 3, 1, 2
1, 49758, Control_c, 3, 1, 21
1, 49761, Control_c, 3, 1, 49
1, 49768, Control_c, 3, 1, 76
1, 49771, Note_on_c, 6, 52, 0
1, 49771, Note_on_c, 6, 59, 0
1, 49772, Control_c, 3, 1, 99
1, 49773, Pitch_bend_c, 3, 8160
1, 49775, Note_on_c, 0, 68, 117
1, 49775, Note_on_c, 0, 64, 117
1, 49776, Note_on_c, 0, 59, 117
1, 49777, Pitch_bend_c, 3, 8000
1, 49777, Note_on_c, 6, 59, 71
1, 49778, Control_c, 3, 1, 116
1, 49778, Note_on_c, 6, 52, 63
1, 49780, Note_on_c, 9, 38, 45
1, 49782, Note_on_c, 9, 38, 0
1, 49782, Control_c, 3, 1, 127
1, 49783, Pitch_bend_c, 3, 7424
1, 49787, Pitch_bend_c, 3, 7200
1, 49789, Note_on_c, 4, 47, 0
1, 49789, Pitch_bend_c, 3, 6944
1, 49791, Pitch_bend_c, 3, 6560
1, 49796, Pitch_bend_c, 3, 6144
1, 49801, Note_on_c, 0, 59, 0
1, 49802, Pitch_bend_c, 3, 5984
1, 49804, Pitch_bend_c, 3, 5856
1, 49806, Pitch_bend_c, 3, 5504
1, 49809, Note_on_c, 0, 64, 0
1, 49810, Pitch_bend_c, 3, 5312
1, 49811, Note_on_c, 0, 68, 0
1, 49811, Control_c, 3, 1, 123
1, 49812, Control_c, 3, 1, 101
1, 49813, Pitch_bend_c, 3, 4928
1, 49817, Control_c, 3, 1, 66
1, 49818, Pitch_bend_c, 3, 4768
1, 49821, Note_on_c, 6, 52, 0
1, 49822, Pitch_bend_c, 3, 4640
1, 49823, Note_on_c, 6, 59, 0
1, 49823, Note_on_c, 6, 52, 126
1, 49823, Note_on_c, 6, 59, 127
1, 49824, Note_on_c, 6, 56, 126
1, 49825, Control_c, 3, 1, 44
1, 49825, Note_on_c, 9, 40, 97
1, 49825, Note_on_c, 9, 28, 90
1, 49826, Note_on_c, 9, 40, 0
1, 49826, Pitch_bend_c, 3, 4704
1, 49827, Note_on_c, 9, 28, 0
1, 49827, Control_c, 3, 1, 0
1, 49828, Note_on_c, 4, 49, 127
1, 49829, Pitch_bend_c, 3, 5248
1, 49831, Note_on_c, 4, 56, 127
1, 49832, Note_on_c, 6, 56, 0
1, 49832, Note_on_c, 6, 52, 0
1, 49833, Note_on_c, 1, 35, 0
1, 49833, Note_on_c, 6, 59, 0
1, 49834, Pitch_bend_c, 3, 5760
1, 49835, Note_on_c, 3, 71, 0
1, 49836, Pitch_bend_c, 3, 6496
1, 49838, Pitch_bend_c, 3, 7776
1, 49841, Note_on_c, 7, 68, 0
1, 49843, Pitch_bend_c, 3, 8160
1, 49844, Note_on_c, 7, 64, 0
1, 49845, Pitch_bend_c, 3, 8192
1, 49862, Note_on_c, 4, 49, 0
1, 49864, Note_on_c, 4, 56, 0
1, 49872, Note_on_c, 6, 59, 71
1, 49872, Note_on_c, 6, 52, 63
1, 49877, Note_on_c, 9, 38, 25
1, 49878, Note_on_c, 9, 38, 0
1, 49881, Note_on_c, 4, 52, 127
1, 49883, Note_on_c, 4, 64, 127
1, 49917, Note_on_c, 6, 52, 0
1, 49918, Note_on_c, 4, 64, 0
1, 49918, Note_on_c, 6, 52, 88
1, 49919, Note_on_c, 6, 59, 0
1, 49919, Note_on_c, 6, 59, 96
1, 49920, Note_on_c, 1, 40, 127
1, 49921, Note_on_c, 4, 52, 0
1, 49921, Note_on_c, 9, 38, 53
1, 49922, Note_on_c, 0, 68, 117
1, 49922, Note_on_c, 9, 35, 111
1, 49923, Note_on_c, 0, 64, 117
1, 49924, Note_on_c, 9, 35, 0
1, 49924, Note_on_c, 9, 38, 0
1, 49924, Note_on_c, 0, 59, 117
1, 49925, Note_on_c, 4, 52, 127
1, 49942, Note_on_c, 0, 59, 0
1, 49950, Note_on_c, 0, 64, 0
1, 49952, Note_on_c, 0, 68, 0
1, 49961, Pitch_bend_c, 8, 0
1, 49962, Pitch_bend_c, 2, 0
1, 49963, Note_on_c, 6, 52, 0
1, 49964, Note_on_c, 6, 59, 0
1, 49964, Note_on_c, 4, 52, 0
1, 49968, Note_on_c, 6, 59, 58
1, 49969, Note_on_c, 6, 52, 63
1, 49969, Note_on_c, 8, 40, 127
1, 49970, Note_on_c, 2, 40, 127
1, 49973, Note_on_c, 9, 38, 42
1, 49974, Note_on_c, 9, 38, 0
1, 49975, Note_on_c, 4, 49, 127
1, 49978, Note_on_c, 4, 64, 127
1, 50008, Note_on_c, 4, 49, 0
1, 50012, Note_on_c, 4, 64, 0
1, 50014, Note_on_c, 6, 52, 0
1, 50014, Note_on_c, 6, 59, 0
1, 50014, Note_on_c, 6, 52, 126
1, 50014, Note_on_c, 6, 59, 127
1, 50015, Note_on_c, 6, 56, 126
1, 50017, Note_on_c, 9, 40, 97
1, 50018, Note_on_c, 9, 40, 0
1, 50018, Note_on_c, 9, 28, 91
1, 50019, Note_on_c, 9, 28, 0
1, 50020, Note_on_c, 4, 40, 127
1, 50024, Note_on_c, 6, 56, 0
1, 50024, Note_on_c, 6, 52, 0
1, 50024, Note_on_c, 6, 59, 0
1, 50025, Note_on_c, 1, 40, 0
1, 50029, Pitch_bend_c, 8, 224
1, 50030, Pitch_bend_c, 2, 224
1, 50031, Pitch_bend_c, 8, 1952
1, 50033, Pitch_bend_c, 2, 1952
1, 50035, Pitch_bend_c, 2, 6336
1, 50035, Pitch_bend_c, 8, 4352
1, 50037, Pitch_bend_c, 8, 6336
1, 50038, Pitch_bend_c, 8, 7808
1, 50040, Pitch_bend_c, 2, 7808
1, 50042, Pitch_bend_c, 2, 8160
1, 50042, Pitch_bend_c, 8, 8320
1, 50044, Pitch_bend_c, 8, 8160
1, 50048, Pitch_bend_c, 8, 8192
1, 50049, Pitch_bend_c, 2, 8192
1, 50063, Note_on_c, 0, 64, 117
1, 50063, Note_on_c, 0, 68, 117
1, 50064, Note_on_c, 0, 59, 117
1, 50064, Note_on_c, 1, 40, 127
1, 50065, Note_on_c, 6, 59, 71
1, 50065, Note_on_c, 9, 35, 68
1, 50066, Note_on_c, 9, 35, 0
1, 50066, Note_on_c, 6, 52, 63
1, 50067, Note_on_c, 4, 40, 0
1, 50069, Note_on_c, 9, 38, 27
1, 50070, Note_on_c, 9, 38, 0
1, 50082, Note_on_c, 1, 40, 0
1, 50086, Note_on_c, 8, 40, 0
1, 50088, Note_on_c, 2, 40, 0
1, 50089, Note_on_c, 0, 59, 0
1, 50095, Note_on_c, 0, 64, 0
1, 50098, Note_on_c, 0, 68, 0
1, 50109, Note_on_c, 6, 52, 0
1, 50110, Note_on_c, 6, 59, 0
1, 50110, Note_on_c, 6, 52, 101
1, 50110, Note_on_c, 6, 59, 96
1, 50112, Note_on_c, 1, 42, 121
1, 50113, Note_on_c, 8, 42, 127
1, 50113, Note_on_c, 9, 38, 52
1, 50114, Note_on_c, 2, 42, 127
1, 50114, Note_on_c, 9, 35, 110
1, 50115, Note_on_c, 9, 35, 0
1, 50115, Note_on_c, 9, 38, 0
1, 50115, Note_on_c, 4, 42, 127
1, 50147, Note_on_c, 8, 42, 0
1, 50148, Note_on_c, 2, 42, 0
1, 50155, Note_on_c, 6, 59, 0
1, 50155, Note_on_c, 6, 52, 0
1, 50160, Note_on_c, 6, 59, 71
1, 50160, Note_on_c, 6, 52, 63
1, 50161, Note_on_c, 4, 42, 0
1, 50165, Note_on_c, 9, 38, 47
1, 50166, Note_on_c, 9, 38, 0
1, 50175, Note_on_c, 1, 42, 0
1, 50185, Note_on_c, 9, 38, 47
1, 50186, Note_on_c, 9, 38, 0
1, 50205, Note_on_c, 6, 52, 0
1, 50206, Note_on_c, 6, 52, 126
1, 50207, Note_on_c, 6, 59, 0
1, 50207, Note_on_c, 6, 59, 127
1, 50208, Note_on_c, 0, 68, 117
1, 50208, Note_on_c, 1, 44, 127
1, 50208, Note_on_c, 6, 56, 126
1, 50209, Note_on_c, 0, 59, 117
1, 50209, Note_on_c, 9, 40, 96
1, 50209, Note_on_c, 9, 28, 92
1, 50210, Note_on_c, 9, 40, 0
1, 50210, Note_on_c, 0, 64, 117
1, 50211, Note_on_c, 9, 28, 0
1, 50211, Note_on_c, 8, 44, 127
1, 50212, Note_on_c, 2, 44, 127
1, 50213, Note_on_c, 4, 44, 127
1, 50214, Note_on_c, 6, 52, 0
1, 50215, Note_on_c, 6, 56, 0
1, 50216, Note_on_c, 6, 59, 0
1, 50246, Note_on_c, 0, 59, 0
1, 50248, Note_on_c, 0, 68, 0
1, 50252, Note_on_c, 0, 64, 0
1, 50256, Note_on_c, 6, 59, 71
1, 50256, Note_on_c, 6, 52, 63
1, 50257, Note_on_c, 9, 40, 63
1, 50258, Note_on_c, 9, 40, 0
1, 50261, Note_on_c, 8, 44, 0
1, 50262, Note_on_c, 4, 44, 0
1, 50262, Note_on_c, 2, 44, 0
1, 50265, Pitch_bend_c, 3, 8128
1, 50269, Pitch_bend_c, 3, 7712
1, 50272, Pitch_bend_c, 3, 6976
1, 50277, Pitch_bend_c, 3, 6496
1, 50280, Pitch_bend_c, 7, 8160
1, 50281, Note_on_c, 1, 44, 0
1, 50281, Pitch_bend_c, 3, 5472
1, 50284, Pitch_bend_c, 7, 7904
1, 50285, Pitch_bend_c, 3, 4992
1, 50285, Pitch_bend_c, 7, 7456
1, 50287, Pitch_bend_c, 7, 6848
1, 50290, Pitch_bend_c, 3, 3680
1, 50290, Pitch_bend_c, 7, 6080
1, 50292, Pitch_bend_c, 7, 5280
1, 50295, Pitch_bend_c, 3, 3360
1, 50296, Pitch_bend_c, 7, 4576
1, 50298, Pitch_bend_c, 3, 3200
1, 50298, Pitch_bend_c, 7, 4000
1, 50299, Pitch_bend_c, 7, 3584
1, 50300, Pitch_bend_c, 3, 2912
1, 50301, Note_on_c, 6, 52, 0
1, 50301, Pitch_bend_c, 7, 3296
1, 50302, Note_on_c, 6, 59, 0
1, 50303, Note_on_c, 1, 45, 123
1, 50303, Note_on_c, 6, 52, 88
1, 50304, Note_on_c, 6, 57, 96
1, 50305, Pitch_bend_c, 7, 3232
1, 50305, Note_on_c, 9, 38, 43
1, 50306, Pitch_bend_c, 3, 2848
1, 50306, Note_on_c, 9, 35, 111
1, 50307, Note_on_c, 3, 76, 127
1, 50308, Note_on_c, 9, 35, 0
1, 50308, Note_on_c, 9, 38, 0
1, 50308, Note_on_c, 7, 73, 127
1, 50309, Note_on_c, 8, 45, 127
1, 50310, Note_on_c, 2, 45, 127
1, 50311, Pitch_bend_c, 7, 3296
1, 50312, Note_on_c, 7, 69, 127
1, 50313, Note_on_c, 4, 45, 127
1, 50314, Pitch_bend_c, 7, 3584
1, 50315, Pitch_bend_c, 7, 4032
1, 50316, Pitch_bend_c, 3, 2976
1, 50317, Pitch_bend_c, 7, 4736
1, 50318, Pitch_bend_c, 7, 5696
1, 50319, Pitch_bend_c, 3, 3392
1, 50320, Pitch_bend_c, 7, 6720
1, 50321, Pitch_bend_c, 7, 7520
1, 50322, Pitch_bend_c, 3, 3808
1, 50323, Pitch_bend_c, 7, 8032
1, 50324, Pitch_bend_c, 3, 4928
1, 50325, Pitch_bend_c, 7, 8192
1, 50328, Pitch_bend_c, 3, 5728
1, 50334, Pitch_bend_c, 3, 7328
1, 50336, Pitch_bend_c, 3, 8160
1, 50340, Pitch_bend_c, 3, 8192
1, 50349, Note_on_c, 6, 57, 0
1, 50350, Note_on_c, 6, 52, 0
1, 50351, Note_on_c, 6, 57, 58
1, 50352, Note_on_c, 6, 52, 63
1, 50353, Note_on_c, 4, 45, 0
1, 50357, Note_on_c, 9, 38, 45
1, 50358, Note_on_c, 9, 38, 0
1, 50397, Note_on_c, 6, 49, 126
1, 50398, Note_on_c, 6, 52, 0
1, 50398, Note_on_c, 6, 52, 113
1, 50399, Note_on_c, 6, 57, 0
1, 50399, Note_on_c, 6, 57, 127
1, 50401, Note_on_c, 0, 64, 117
1, 50401, Note_on_c, 9, 40, 98
1, 50401, Note_on_c, 9, 28, 94
1, 50402, Note_on_c, 9, 40, 0
1, 50402, Note_on_c, 0, 57, 117
1, 50403, Note_on_c, 9, 28, 0
1, 50403, Note_on_c, 0, 61, 117
1, 50404, Note_on_c, 4, 42, 127
1, 50408, Note_on_c, 8, 45, 0
1, 50408, Note_on_c, 4, 49, 127
1, 50409, Note_on_c, 6, 49, 0
1, 50410, Note_on_c, 2, 45, 0
1, 50411, Note_on_c, 6, 52, 0
1, 50411, Note_on_c, 1, 45, 0
1, 50412, Note_on_c, 6, 57, 0
1, 50428, Note_on_c, 0, 61, 0
1, 50429, Note_on_c, 0, 57, 0
1, 50433, Note_on_c, 0, 64, 0
1, 50434, Note_on_c, 7, 73, 0
1, 50448, Note_on_c, 6, 57, 71
1, 50448, Note_on_c, 6, 52, 63
1, 50450, Note_on_c, 7, 69, 0
1, 50453, Note_on_c, 4, 49, 0
1, 50453, Note_on_c, 9, 38, 25
1, 50454, Note_on_c, 9, 38, 0
1, 50454, Note_on_c, 4, 42, 0
1, 50457, Note_on_c, 3, 76, 0
1, 50493, Note_on_c, 6, 57, 0
1, 50494, Note_on_c, 6, 52, 0
1, 50494, Note_on_c, 6, 52, 101
1, 50494, Note_on_c, 6, 57, 96
1, 50496, Note_on_c, 1, 40, 127
1, 50496, Note_on_c, 3, 73, 127
1, 50497, Note_on_c, 7, 69, 127
1, 50497, Note_on_c, 9, 38, 54
1, 50497, Note_on_c, 9, 35, 110
1, 50499, Note_on_c, 9, 35, 0
1, 50499, Note_on_c, 9, 38, 0
1, 50499, Note_on_c, 4, 40, 127
1, 50500, Note_on_c, 7, 76, 127
1, 50540, Note_on_c, 6, 52, 0
1, 50540, Note_on_c, 6, 57, 0
1, 50544, Note_on_c, 0, 57, 117
1, 50544, Note_on_c, 0, 64, 117
1, 50544, Note_on_c, 0, 61, 117
1, 50544, Note_on_c, 6, 57, 71
1, 50545, Note_on_c, 6, 52, 63
1, 50549, Note_on_c, 9, 38, 45
1, 50550, Note_on_c, 9, 38, 0
1, 50557, Note_on_c, 4, 40, 0
1, 50568, Pitch_bend_c, 3, 8160
1, 50569, Note_on_c, 0, 61, 0
1, 50569, Pitch_bend_c, 3, 8000
1, 50571, Note_on_c, 0, 57, 0
1, 50574, Pitch_bend_c, 3, 7904
1, 50575, Note_on_c, 0, 64, 0
1, 50577, Pitch_bend_c, 3, 7808
1, 50580, Pitch_bend_c, 3, 7584
1, 50585, Pitch_bend_c, 3, 7520
1, 50587, Pitch_bend_c, 3, 7296
1, 50590, Note_on_c, 6, 49, 126
1, 50591, Note_on_c, 6, 57, 0
1, 50591, Note_on_c, 6, 52, 0
1, 50591, Note_on_c, 6, 52, 126
1, 50591, Note_on_c, 6, 57, 127
1, 50593, Pitch_bend_c, 3, 6976
1, 50593, Note_on_c, 9, 40, 97
1, 50594, Note_on_c, 9, 40, 0
1, 50594, Note_on_c, 9, 28, 90
1, 50595, Note_on_c, 9, 28, 0
1, 50596, Note_on_c, 4, 42, 127
1, 50597, Pitch_bend_c, 3, 6848
1, 50599, Note_on_c, 4, 49, 127
1, 50600, Note_on_c, 6, 57, 0
1, 50600, Note_on_c, 6, 52, 0
1, 50600, Note_on_c, 6, 49, 0
1, 50601, Pitch_bend_c, 3, 6464
1, 50602, Note_on_c, 1, 40, 0
1, 50606, Pitch_bend_c, 3, 6272
1, 50609, Pitch_bend_c, 3, 6016
1, 50612, Pitch_bend_c, 3, 5888
1, 50614, Pitch_bend_c, 3, 5632
1, 50615, Note_on_c, 7, 76, 0
1, 50619, Pitch_bend_c, 3, 5504
1, 50623, Pitch_bend_c, 3, 5280
1, 50624, Note_on_c, 7, 69, 0
1, 50628, Pitch_bend_c, 3, 5248
1, 50629, Note_on_c, 4, 42, 0
1, 50630, Pitch_bend_c, 3, 5184
1, 50632, Note_on_c, 4, 49, 0
1, 50632, Pitch_bend_c, 3, 5120
1, 50636, Pitch_bend_c, 3, 5056
1, 50640, Note_on_c, 6, 57, 71
1, 50640, Note_on_c, 6, 52, 63
1, 50644, Pitch_bend_c, 3, 5120
1, 50645, Note_on_c, 9, 38, 25
1, 50646, Note_on_c, 9, 38, 0
1, 50647, Pitch_bend_c, 3, 5408
1, 50649, Note_on_c, 4, 45, 127
1, 50650, Note_on_c, 3, 73, 0
1, 50651, Pitch_bend_c, 3, 5760
1, 50651, Note_on_c, 4, 57, 127
1, 50654, Pitch_bend_c, 3, 6816
1, 50659, Pitch_bend_c, 3, 7424
1, 50661, Pitch_bend_c, 3, 7904
1, 50663, Pitch_bend_c, 3, 8160
1, 50665, Pitch_bend_c, 3, 8192
1, 50672, Pitch_bend_c, 7, 8160
1, 50675, Pitch_bend_c, 7, 7904
1, 50677, Pitch_bend_c, 7, 7456
1, 50680, Pitch_bend_c, 7, 6848
1, 50681, Pitch_bend_c, 7, 6144
1, 50684, Pitch_bend_c, 7, 4736
1, 50685, Pitch_bend_c, 7, 5472
1, 50686, Note_on_c, 4, 57, 0
1, 50687, Note_on_c, 6, 52, 0
1, 50687, Note_on_c, 6, 52, 88
1, 50688, Note_on_c, 6, 57, 0
1, 50688, Note_on_c, 1, 45, 124
1, 50688, Note_on_c, 6, 57, 96
1, 50689, Note_on_c, 7, 73, 127
1, 50689, Note_on_c, 9, 38, 53
1, 50690, Note_on_c, 9, 35, 111
1, 50691, Note_on_c, 4, 45, 0
1, 50692, Note_on_c, 9, 38, 0
1, 50692, Note_on_c, 9, 35, 0
1, 50692, Note_on_c, 0, 64, 117
1, 50693, Note_on_c, 0, 57, 117
1, 50694, Note_on_c, 0, 61, 117
1, 50695, Note_on_c, 3, 69, 127
1, 50697, Note_on_c, 7, 69, 127
1, 50698, Note_on_c, 4, 45, 127
1, 50699, Pitch_bend_c, 7, 4864
1, 50700, Pitch_bend_c, 7, 5248
1, 50701, Pitch_bend_c, 7, 5888
1, 50702, Pitch_bend_c, 7, 6752
1, 50703, Pitch_bend_c, 7, 7456
1, 50705, Pitch_bend_c, 7, 8000
1, 50707, Pitch_bend_c, 7, 8192
1, 50714, Note_on_c, 0, 57, 0
1, 50717, Note_on_c, 0, 61, 0
1, 50724, Note_on_c, 0, 64, 0
1, 50732, Note_on_c, 4, 45, 0
1, 50732, Note_on_c, 6, 57, 0
1, 50732, Note_on_c, 6, 52, 0
1, 50736, Note_on_c, 6, 57, 58
1, 50737, Note_on_c, 6, 52, 63
1, 50741, Note_on_c, 9, 38, 42
1, 50743, Note_on_c, 9, 38, 0
1, 50744, Note_on_c, 1, 45, 0
1, 50744, Note_on_c, 4, 42, 127
1, 50745, Note_on_c, 7, 69, 0
1, 50746, Note_on_c, 4, 57, 127
1, 50761, Note_on_c, 3, 69, 0
1, 50767, Note_on_c, 7, 73, 0
1, 50776, Note_on_c, 4, 42, 0
1, 50779, Note_on_c, 3, 69, 127
1, 50780, Note_on_c, 4, 57, 0
1, 50782, Note_on_c, 6, 49, 126
1, 50783, Note_on_c, 6, 57, 0
1, 50783, Note_on_c, 6, 52, 0
1, 50783, Note_on_c, 6, 52, 113
1, 50783, Note_on_c, 6, 57, 127
1, 50784, Note_on_c, 1, 33, 127
1, 50785, Note_on_c, 7, 69, 127
1, 50785, Note_on_c, 9, 40, 97
1, 50786, Note_on_c, 9, 40, 0
1, 50786, Note_on_c, 8, 45, 127
1, 50786, Note_on_c, 9, 28, 91
1, 50787, Note_on_c, 9, 28, 0
1, 50787, Note_on_c, 2, 45, 127
1, 50788, Note_on_c, 7, 73, 127
1, 50789, Note_on_c, 4, 42, 127
1, 50792, Note_on_c, 6, 49, 0
1, 50792, Note_on_c, 4, 49, 127
1, 50793, Note_on_c, 6, 52, 0
1, 50797, Note_on_c, 6, 57, 0
1, 50831, Note_on_c, 0, 57, 117
1, 50831, Note_on_c, 0, 61, 117
1, 50832, Note_on_c, 0, 64, 117
1, 50833, Note_on_c, 6, 57, 71
1, 50833, Note_on_c, 6, 52, 63
1, 50833, Note_on_c, 9, 35, 68
1, 50834, Note_on_c, 9, 35, 0
1, 50834, Note_on_c, 4, 42, 0
1, 50835, Note_on_c, 3, 69, 0
1, 50836, Note_on_c, 4, 49, 0
1, 50837, Note_on_c, 9, 38, 27
1, 50838, Note_on_c, 9, 38, 0
1, 50841, Control_c, 3, 1, 7
1, 50842, Control_c, 3, 1, 17
1, 50846, Control_c, 3, 1, 63
1, 50850, Note_on_c, 7, 73, 0
1, 50850, Note_on_c, 7, 69, 0
1, 50853, Note_on_c, 1, 33, 0
1, 50853, Control_c, 3, 1, 92
1, 50859, Note_on_c, 0, 61, 0
1, 50860, Note_on_c, 0, 57, 0
1, 50860, Control_c, 3, 1, 103
1, 50861, Control_c, 3, 1, 127
1, 50864, Note_on_c, 0, 64, 0
1, 50868, Note_on_c, 8, 45, 0
1, 50869, Note_on_c, 2, 45, 0
1, 50874, Control_c, 3, 1, 110
1, 50877, Note_on_c, 6, 57, 0
1, 50878, Note_on_c, 6, 52, 0
1, 50878, Note_on_c, 6, 52, 101
1, 50878, Note_on_c, 6, 57, 96
1, 50880, Note_on_c, 1, 35, 127
1, 50880, Control_c, 3, 1, 69
1, 50880, Note_on_c, 9, 38, 52
1, 50881, Note_on_c, 8, 47, 127
1, 50881, Note_on_c, 9, 35, 110
1, 50882, Note_on_c, 2, 47, 127
1, 50883, Note_on_c, 9, 35, 0
1, 50883, Note_on_c, 9, 38, 0
1, 50883, Note_on_c, 4, 43, 127
1, 50884, Control_c, 3, 1, 30
1, 50887, Control_c, 3, 1, 16
1, 50891, Control_c, 3, 1, 0
1, 50924, Note_on_c, 6, 57, 0
1, 50924, Note_on_c, 6, 52, 0
1, 50928, Note_on_c, 6, 57, 71
1, 50928, Note_on_c, 6, 52, 63
1, 50929, Note_on_c, 4, 43, 0
1, 50933, Note_on_c, 9, 38, 47
1, 50934, Note_on_c, 9, 38, 0
1, 50940, Note_on_c, 8, 47, 0
1, 50941, Note_on_c, 2, 47, 0
1, 50945, Note_on_c, 1, 35, 0
1, 50974, Note_on_c, 6, 52, 0
1, 50974, Note_on_c, 6, 49, 126
1, 50974, Note_on_c, 6, 52, 126
1, 50975, Note_on_c, 6, 57, 0
1, 50975, Note_on_c, 1, 37, 124
1, 50975, Note_on_c, 6, 57, 127
1, 50977, Note_on_c, 0, 61, 117
1, 50977, Note_on_c, 9, 40, 96
1, 50978, Note_on_c, 9, 40, 0
1, 50978, Note_on_c, 0, 64, 117
1, 50978, Note_on_c, 9, 28, 92
1, 50979, Note_on_c, 9, 28, 0
1, 50979, Note_on_c, 0, 57, 117
1, 50981, Note_on_c, 8, 49, 127
1, 50982, Note_on_c, 2, 49, 127
1, 50983, Note_on_c, 4, 42, 127
1, 50984, Note_on_c, 4, 49, 127
1, 50985, Note_on_c, 6, 49, 0
1, 50986, Note_on_c, 6, 57, 0
1, 50986, Note_on_c, 6, 52, 0
1, 51010, Note_on_c, 0, 57, 0
1, 51012, Note_on_c, 0, 61, 0
1, 51015, Note_on_c, 0, 64, 0
1, 51023, Note_on_c, 6, 57, 71
1, 51024, Note_on_c, 6, 52, 63
1, 51025, Note_on_c, 7, 69, 116
1, 51026, Note_on_c, 3, 69, 127
1, 51026, Note_on_c, 7, 73, 127
1, 51029, Note_on_c, 4, 42, 0
1, 51029, Note_on_c, 9, 38, 23
1, 51030, Note_on_c, 9, 38, 0
1, 51031, Note_on_c, 4, 49, 0
1, 51041, Note_on_c, 8, 49, 0
1, 51041, Note_on_c, 2, 49, 0
1, 51043, Note_on_c, 7, 73, 0
1, 51044, Note_on_c, 7, 69, 0
1, 51045, Pitch_bend_c, 7, 8128
1, 51047, Note_on_c, 1, 37, 0
1, 51048, Pitch_bend_c, 7, 8000
1, 51050, Note_on_c, 3, 69, 0
1, 51051, Pitch_bend_c, 7, 7808
1, 51053, Pitch_bend_c, 7, 7584
1, 51055, Pitch_bend_c, 7, 7296
1, 51057, Pitch_bend_c, 7, 6944
1, 51060, Pitch_bend_c, 7, 6656
1, 51062, Pitch_bend_c, 7, 6304
1, 51065, Pitch_bend_c, 3, 1680
1, 51065, Pitch_bend_c, 7, 6016
1, 51067, Pitch_bend_c, 7, 5792
1, 51070, Note_on_c, 7, 74, 127
1, 51071, Note_on_c, 6, 57, 0
1, 51071, Note_on_c, 1, 38, 126
1, 51071, Pitch_bend_c, 7, 5568
1, 51072, Note_on_c, 0, 57, 117
1, 51073, Note_on_c, 0, 66, 117
1, 51073, Note_on_c, 9, 38, 43
1, 51074, Note_on_c, 0, 62, 117
1, 51074, Note_on_c, 9, 35, 111
1, 51075, Note_on_c, 7, 66, 127
1, 51076, Note_on_c, 9, 35, 0
1, 51076, Note_on_c, 9, 38, 0
1, 51076, Pitch_bend_c, 3, 2112
1, 51077, Note_on_c, 6, 57, 101
1, 51078, Note_on_c, 6, 54, 101
1, 51079, Note_on_c, 6, 62, 100
1, 51080, Pitch_bend_c, 7, 5376
1, 51081, Note_on_c, 6, 52, 0
1, 51082, Note_on_c, 3, 69, 127
1, 51083, Note_on_c, 8, 50, 127
1, 51084, Note_on_c, 2, 50, 127
1, 51085, Pitch_bend_c, 7, 5184
1, 51086, Pitch_bend_c, 3, 2144
1, 51087, Note_on_c, 4, 50, 127
1, 51088, Pitch_bend_c, 7, 5088
1, 51089, Pitch_bend_c, 3, 2656
1, 51090, Pitch_bend_c, 7, 5024
1, 51091, Pitch_bend_c, 3, 3232
1, 51091, Pitch_bend_c, 7, 4992
1, 51092, Pitch_bend_c, 7, 5024
1, 51093, Pitch_bend_c, 3, 3968
1, 51093, Pitch_bend_c, 7, 5152
1, 51094, Pitch_bend_c, 3, 6208
1, 51094, Pitch_bend_c, 7, 5376
1, 51095, Pitch_bend_c, 7, 5600
1, 51096, Pitch_bend_c, 3, 7168
1, 51096, Pitch_bend_c, 7, 5952
1, 51097, Pitch_bend_c, 3, 7904
1, 51098, Pitch_bend_c, 3, 8192
1, 51098, Pitch_bend_c, 7, 6368
1, 51099, Pitch_bend_c, 7, 6816
1, 51100, Note_on_c, 0, 57, 0
1, 51101, Pitch_bend_c, 7, 7328
1, 51104, Pitch_bend_c, 7, 7744
1, 51105, Pitch_bend_c, 7, 8096
1, 51106, Note_on_c, 0, 62, 0
1, 51107, Pitch_bend_c, 7, 8192
1, 51108, Note_on_c, 0, 66, 0
1, 51118, Note_on_c, 6, 57, 0
1, 51118, Note_on_c, 6, 62, 0
1, 51120, Note_on_c, 6, 54, 0
1, 51120, Note_on_c, 6, 54, 84
1, 51120, Note_on_c, 6, 57, 87
1, 51121, Note_on_c, 6, 62, 84
1, 51122, Note_on_c, 4, 50, 0
1, 51125, Note_on_c, 9, 38, 45
1, 51126, Note_on_c, 9, 38, 0
1, 51132, Note_on_c, 3, 69, 0
1, 51144, Note_on_c, 7, 66, 0
1, 51144, Note_on_c, 7, 74, 0
1, 51165, Note_on_c, 6, 62, 0
1, 51165, Note_on_c, 6, 62, 110
1, 51166, Note_on_c, 6, 54, 0
1, 51166, Note_on_c, 6, 54, 115
1, 51167, Note_on_c, 6, 59, 118
1, 51168, Note_on_c, 6, 57, 0
1, 51168, Note_on_c, 9, 40, 98
1, 51169, Note_on_c, 0, 57, 117
1, 51170, Note_on_c, 0, 66, 117
1, 51170, Note_on_c, 9, 28, 94
1, 51171, Note_on_c, 9, 40, 0
1, 51171, Note_on_c, 0, 62, 117
1, 51172, Note_on_c, 9, 28, 0
1, 51172, Note_on_c, 7, 74, 127
1, 51173, Note_on_c, 7, 66, 127
1, 51174, Note_on_c, 3, 69, 121
1, 51175, Note_on_c, 4, 47, 127
1, 51176, Note_on_c, 4, 54, 127
1, 51177, Note_on_c, 1, 38, 0
1, 51179, Note_on_c, 8, 50, 0
1, 51180, Note_on_c, 2, 50, 0
1, 51185, Note_on_c, 6, 54, 0
1, 51188, Note_on_c, 6, 59, 0
1, 51193, Note_on_c, 6, 62, 0
1, 51194, Note_on_c, 0, 57, 0
1, 51201, Note_on_c, 0, 66, 0
1, 51203, Note_on_c, 0, 62, 0
1, 51215, Note_on_c, 7, 74, 0
1, 51216, Note_on_c, 1, 38, 107
1, 51216, Note_on_c, 6, 57, 96
1, 51217, Note_on_c, 6, 62, 82
1, 51218, Note_on_c, 6, 54, 70
1, 51219, Note_on_c, 7, 66, 0
1, 51220, Note_on_c, 9, 38, 25
1, 51221, Note_on_c, 9, 38, 0
1, 51221, Note_on_c, 4, 54, 0
1, 51222, Note_on_c, 4, 47, 0
1, 51228, Note_on_c, 1, 38, 0
1, 51257, Note_on_c, 3, 69, 0
1, 51261, Note_on_c, 6, 57, 0
1, 51261, Note_on_c, 6, 62, 0
1, 51262, Note_on_c, 6, 57, 115
1, 51263, Note_on_c, 6, 62, 111
1, 51264, Note_on_c, 6, 54, 0
1, 51264, Note_on_c, 1, 33, 127
1, 51264, Note_on_c, 6, 54, 112
1, 51265, Note_on_c, 7, 74, 127
1, 51265, Note_on_c, 9, 38, 54
1, 51265, Note_on_c, 9, 35, 110
1, 51266, Note_on_c, 3, 69, 127
1, 51267, Note_on_c, 9, 35, 0
1, 51267, Note_on_c, 9, 38, 0
1, 51267, Note_on_c, 7, 66, 127
1, 51268, Note_on_c, 4, 45, 127
1, 51305, Note_on_c, 6, 62, 0
1, 51306, Note_on_c, 6, 54, 0
1, 51308, Note_on_c, 6, 57, 0
1, 51311, Note_on_c, 0, 57, 117
1, 51311, Note_on_c, 0, 66, 117
1, 51312, Note_on_c, 0, 62, 117
1, 51313, Note_on_c, 6, 57, 90
1, 51314, Note_on_c, 6, 54, 86
1, 51315, Note_on_c, 6, 62, 85
1, 51316, Note_on_c, 3, 69, 0
1, 51316, Note_on_c, 7, 66, 0
1, 51317, Note_on_c, 9, 38, 45
1, 51318, Note_on_c, 9, 38, 0
1, 51321, Note_on_c, 1, 33, 0
1, 51321, Note_on_c, 7, 74, 0
1, 51325, Note_on_c, 4, 45, 0
1, 51337, Note_on_c, 0, 62, 0
1, 51337, Note_on_c, 0, 57, 0
1, 51345, Note_on_c, 0, 66, 0
1, 51357, Note_on_c, 6, 57, 0
1, 51358, Note_on_c, 6, 62, 0
1, 51358, Note_on_c, 6, 54, 0
1, 51359, Note_on_c, 6, 62, 108
1, 51360, Note_on_c, 1, 35, 124
1, 51360, Note_on_c, 6, 54, 113
1, 51360, Note_on_c, 6, 59, 116
1, 51361, Note_on_c, 7, 69, 125
1, 51361, Note_on_c, 9, 40, 97
1, 51362, Note_on_c, 9, 40, 0
1, 51362, Note_on_c, 7, 66, 125
1, 51362, Note_on_c, 9, 28, 90
1, 51363, Note_on_c, 9, 28, 0
1, 51363, Note_on_c, 3, 69, 108
1, 51364, Note_on_c, 4, 47, 127
1, 51367, Note_on_c, 4, 54, 127
1, 51375, Note_on_c, 6, 54, 0
1, 51377, Note_on_c, 6, 59, 0
1, 51382, Note_on_c, 6, 62, 0
1, 51390, Note_on_c, 7, 69, 0
1, 51394, Note_on_c, 7, 66, 0
1, 51397, Note_on_c, 4, 47, 0
1, 51397, Note_on_c, 4, 54, 0
1, 51402, Note_on_c, 3, 69, 0
1, 51406, Note_on_c, 7, 74, 127
1, 51407, Note_on_c, 3, 62, 127
1, 51408, Note_on_c, 6, 57, 82
1, 51409, Note_on_c, 6, 62, 88
1, 51410, Note_on_c, 6, 54, 88
1, 51411, Note_on_c, 7, 66, 110
1, 51412, Note_on_c, 9, 38, 25
1, 51414, Note_on_c, 9, 38, 0
1, 51415, Note_on_c, 1, 35, 0
1, 51417, Note_on_c, 4, 50, 127
1, 51419, Note_on_c, 4, 62, 127
1, 51453, Note_on_c, 6, 54, 0
1, 51454, Note_on_c, 4, 62, 0
1, 51454, Note_on_c, 6, 62, 0
1, 51455, Note_on_c, 6, 57, 0
1, 51456, Note_on_c, 4, 50, 0
1, 51456, Note_on_c, 1, 38, 127
1, 51457, Note_on_c, 0, 66, 117
1, 51457, Note_on_c, 9, 38, 53
1, 51458, Note_on_c, 0, 62, 117
1, 51458, Note_on_c, 9, 35, 111
1, 51459, Note_on_c, 0, 57, 117
1, 51460, Note_on_c, 9, 35, 0
1, 51460, Note_on_c, 9, 38, 0
1, 51460, Note_on_c, 6, 57, 101
1, 51461, Note_on_c, 6, 54, 101
1, 51462, Note_on_c, 6, 62, 100
1, 51463, Note_on_c, 4, 50, 127
1, 51487, Note_on_c, 0, 57, 0
1, 51487, Note_on_c, 0, 62, 0
1, 51491, Note_on_c, 0, 66, 0
1, 51500, Note_on_c, 4, 50, 0
1, 51501, Control_c, 3, 1, 10
1, 51502, Note_on_c, 6, 62, 0
1, 51502, Note_on_c, 6, 57, 0
1, 51504, Note_on_c, 6, 54, 0
1, 51504, Note_on_c, 6, 54, 84
1, 51504, Note_on_c, 6, 57, 87
1, 51505, Note_on_c, 6, 62, 84
1, 51506, Control_c, 3, 1, 34
1, 51508, Note_on_c, 9, 38, 42
1, 51509, Control_c, 3, 1, 47
1, 51510, Note_on_c, 9, 38, 0
1, 51511, Note_on_c, 4, 47, 127
1, 51513, Control_c, 3, 1, 70
1, 51513, Note_on_c, 4, 62, 127
1, 51518, Control_c, 3, 1, 75
1, 51522, Control_c, 3, 1, 82
1, 51526, Control_c, 3, 1, 90
1, 51529, Note_on_c, 1, 38, 0
1, 51531, Control_c, 3, 1, 95
1, 51535, Control_c, 3, 1, 115
1, 51540, Pitch_bend_c, 3, 8128
1, 51541, Control_c, 3, 1, 126
1, 51543, Pitch_bend_c, 3, 7808
1, 51544, Note_on_c, 4, 47, 0
1, 51547, Control_c, 3, 1, 127
1, 51548, Note_on_c, 4, 62, 0
1, 51548, Pitch_bend_c, 3, 7552
1, 51549, Note_on_c, 6, 62, 0
1, 51549, Note_on_c, 6, 62, 110
1, 51550, Note_on_c, 6, 54, 0
1, 51550, Note_on_c, 6, 54, 115
1, 51551, Note_on_c, 6, 59, 118
1, 51552, Note_on_c, 6, 57, 0
1, 51552, Note_on_c, 1, 37, 119
1, 51553, Pitch_bend_c, 3, 6976
1, 51553, Note_on_c, 9, 40, 97
1, 51554, Note_on_c, 9, 40, 0
1, 51554, Pitch_bend_c, 3, 6688
1, 51554, Note_on_c, 9, 28, 91
1, 51555, Note_on_c, 9, 28, 0
1, 51555, Note_on_c, 4, 47, 127
1, 51557, Pitch_bend_c, 3, 6208
1, 51559, Note_on_c, 4, 54, 127
1, 51562, Pitch_bend_c, 3, 5984
1, 51563, Pitch_bend_c, 3, 5504
1, 51569, Note_on_c, 6, 54, 0
1, 51571, Pitch_bend_c, 3, 4928
1, 51572, Note_on_c, 6, 59, 0
1, 51573, Control_c, 3, 1, 113
1, 51574, Pitch_bend_c, 3, 4416
1, 51577, Note_on_c, 6, 62, 0
1, 51578, Control_c, 3, 1, 103
1, 51579, Pitch_bend_c, 3, 4160
1, 51580, Control_c, 3, 1, 68
1, 51581, Pitch_bend_c, 3, 3712
1, 51586, Control_c, 3, 1, 45
1, 51586, Pitch_bend_c, 3, 3552
1, 51589, Pitch_bend_c, 3, 3456
1, 51592, Control_c, 3, 1, 33
1, 51593, Pitch_bend_c, 3, 3488
1, 51594, Control_c, 3, 1, 11
1, 51596, Pitch_bend_c, 3, 3680
1, 51598, Pitch_bend_c, 3, 4512
1, 51598, Control_c, 3, 1, 0
1, 51599, Note_on_c, 0, 66, 117
1, 51600, Note_on_c, 0, 57, 117
1, 51601, Note_on_c, 0, 62, 117
1, 51601, Note_on_c, 9, 35, 68
1, 51602, Note_on_c, 9, 35, 0
1, 51602, Note_on_c, 6, 57, 96
1, 51603, Note_on_c, 6, 62, 82
1, 51604, Note_on_c, 6, 54, 70
1, 51605, Note_on_c, 7, 74, 0
1, 51605, Note_on_c, 9, 38, 27
1, 51606, Note_on_c, 9, 38, 0
1, 51606, Note_on_c, 4, 47, 0
1, 51607, Pitch_bend_c, 3, 6016
1, 51608, Note_on_c, 4, 54, 0
1, 51609, Note_on_c, 7, 66, 0
1, 51610, Pitch_bend_c, 3, 6944
1, 51611, Note_on_c, 3, 62, 0
1, 51611, Pitch_bend_c, 3, 8064
1, 51614, Pitch_bend_c, 3, 8192
1, 51621, Note_on_c, 1, 37, 0
1, 51632, Note_on_c, 0, 62, 0
1, 51633, Note_on_c, 0, 57, 0
1, 51639, Note_on_c, 0, 66, 0
1, 51645, Note_on_c, 6, 62, 0
1, 51645, Note_on_c, 6, 57, 0
1, 51646, Note_on_c, 6, 57, 115
1, 51647, Note_on_c, 6, 54, 0
1, 51647, Note_on_c, 1, 38, 121
1, 51647, Note_on_c, 6, 62, 111
1, 51647, Note_on_c, 6, 54, 112
1, 51648, Note_on_c, 9, 38, 52
1, 51649, Note_on_c, 9, 35, 110
1, 51651, Note_on_c, 9, 35, 0
1, 51651, Note_on_c, 9, 38, 0
1, 51651, Note_on_c, 4, 45, 127
1, 51689, Note_on_c, 6, 62, 0
1, 51691, Note_on_c, 6, 54, 0
1, 51692, Note_on_c, 6, 57, 0
1, 51695, Note_on_c, 6, 57, 90
1, 51696, Note_on_c, 6, 54, 86
1, 51697, Note_on_c, 6, 62, 85
1, 51698, Note_on_c, 4, 45, 0
1, 51700, Note_on_c, 9, 38, 47
1, 51701, Note_on_c, 9, 38, 0
1, 51726, Note_on_c, 1, 38, 0
1, 51741, Note_on_c, 6, 57, 0
1, 51742, Note_on_c, 6, 54, 0
1, 51742, Note_on_c, 6, 62, 0
1, 51743, Note_on_c, 1, 39, 125
1, 51743, Note_on_c, 6, 62, 108
1, 51744, Note_on_c, 6, 54, 113
1, 51745, Note_on_c, 6, 59, 116
1, 51745, Note_on_c, 9, 40, 96
1, 51745, Note_on_c, 9, 28, 92
1, 51746, Note_on_c, 9, 40, 0
1, 51746, Note_on_c, 0, 57, 117
1, 51747, Note_on_c, 9, 28, 0
1, 51747, Note_on_c, 0, 66, 117
1, 51748, Note_on_c, 0, 62, 117
1, 51749, Note_on_c, 4, 47, 127
1, 51750, Note_on_c, 4, 54, 127
1, 51759, Note_on_c, 6, 54, 0
1, 51761, Note_on_c, 6, 59, 0
1, 51766, Note_on_c, 6, 62, 0
1, 51772, Note_on_c, 0, 57, 0
1, 51775, Note_on_c, 0, 62, 0
1, 51779, Note_on_c, 0, 66, 0
1, 51783, Pitch_bend_c, 7, 8128
1, 51784, Pitch_bend_c, 3, 8160
1, 51785, Pitch_bend_c, 7, 8096
1, 51786, Pitch_bend_c, 3, 8032
1, 51786, Pitch_bend_c, 7, 7968
1, 51787, Pitch_bend_c, 3, 7808
1, 51789, Pitch_bend_c, 7, 7872
1, 51791, Pitch_bend_c, 3, 7296
1, 51792, Note_on_c, 6, 57, 82
1, 51792, Note_on_c, 6, 62, 88
1, 51793, Note_on_c, 6, 54, 88
1, 51794, Pitch_bend_c, 7, 7584
1, 51795, Pitch_bend_c, 3, 6592
1, 51797, Note_on_c, 4, 47, 0
1, 51797, Pitch_bend_c, 7, 7392
1, 51797, Note_on_c, 9, 38, 23
1, 51798, Note_on_c, 9, 38, 0
1, 51798, Pitch_bend_c, 7, 7168
1, 51800, Note_on_c, 4, 54, 0
1, 51801, Pitch_bend_c, 3, 5856
1, 51802, Pitch_bend_c, 7, 6976
1, 51804, Pitch_bend_c, 7, 6752
1, 51805, Pitch_bend_c, 3, 5152
1, 51807, Pitch_bend_c, 7, 6528
1, 51809, Pitch_bend_c, 3, 4832
1, 51809, Pitch_bend_c, 7, 6304
1, 51812, Pitch_bend_c, 7, 6112
1, 51813, Pitch_bend_c, 3, 4512
1, 51813, Pitch_bend_c, 7, 5888
1, 51816, Pitch_bend_c, 7, 5696
1, 51817, Pitch_bend_c, 3, 4416
1, 51818, Pitch_bend_c, 7, 5536
1, 51819, Pitch_bend_c, 3, 4288
1, 51821, Pitch_bend_c, 7, 5408
1, 51823, Pitch_bend_c, 3, 4160
1, 51823, Pitch_bend_c, 7, 5280
1, 51826, Pitch_bend_c, 7, 5184
1, 51827, Pitch_bend_c, 3, 4096
1, 51828, Pitch_bend_c, 7, 5152
1, 51829, Pitch_bend_c, 3, 4064
1, 51830, Pitch_bend_c, 7, 5120
1, 51833, Pitch_bend_c, 3, 4160
1, 51833, Pitch_bend_c, 7, 5088
1, 51834, Note_on_c, 1, 39, 0
1, 51837, Note_on_c, 6, 62, 0
1, 51837, Note_on_c, 6, 54, 0
1, 51838, Pitch_bend_c, 3, 4288
1, 51839, Note_on_c, 7, 76, 127
1, 51840, Note_on_c, 6, 57, 0
1, 51840, Note_on_c, 1, 40, 127
1, 51840, Note_on_c, 3, 71, 127
1, 51841, Note_on_c, 6, 56, 109
1, 51841, Note_on_c, 9, 38, 43
1, 51842, Note_on_c, 6, 52, 112
1, 51842, Note_on_c, 9, 35, 111
1, 51843, Note_on_c, 6, 59, 107
1, 51844, Note_on_c, 9, 35, 0
1, 51844, Note_on_c, 9, 38, 0
1, 51844, Note_on_c, 7, 68, 127
1, 51845, Pitch_bend_c, 3, 4448
1, 51846, Pitch_bend_c, 7, 5120
1, 51847, Note_on_c, 4, 52, 127
1, 51848, Pitch_bend_c, 7, 5152
1, 51849, Pitch_bend_c, 3, 6112
1, 51850, Pitch_bend_c, 7, 5248
1, 51851, Pitch_bend_c, 7, 5312
1, 51852, Pitch_bend_c, 3, 7584
1, 51853, Pitch_bend_c, 7, 5408
1, 51854, Note_on_c, 6, 59, 0
1, 51855, Pitch_bend_c, 3, 8064
1, 51856, Pitch_bend_c, 7, 5472
1, 51857, Pitch_bend_c, 7, 5600
1, 51858, Pitch_bend_c, 3, 8192
1, 51859, Pitch_bend_c, 7, 5696
1, 51860, Note_on_c, 6, 52, 0
1, 51861, Pitch_bend_c, 7, 5824
1, 51863, Note_on_c, 6, 56, 0
1, 51864, Pitch_bend_c, 7, 5952
1, 51867, Pitch_bend_c, 7, 6112
1, 51868, Pitch_bend_c, 7, 6368
1, 51871, Pitch_bend_c, 7, 6592
1, 51873, Pitch_bend_c, 7, 6976
1, 51875, Pitch_bend_c, 7, 7328
1, 51878, Pitch_bend_c, 7, 7712
1, 51881, Pitch_bend_c, 7, 8000
1, 51883, Pitch_bend_c, 7, 8160
1, 51886, Pitch_bend_c, 7, 8192
1, 51888, Note_on_c, 4, 52, 0
1, 51893, Note_on_c, 9, 38, 45
1, 51894, Note_on_c, 9, 38, 0
1, 51904, Note_on_c, 7, 68, 0
1, 51909, Note_on_c, 7, 76, 0
1, 51912, Note_on_c, 3, 71, 0
1, 51934, Note_on_c, 6, 59, 118
1, 51935, Note_on_c, 6, 56, 127
1, 51936, Note_on_c, 0, 68, 117
1, 51936, Note_on_c, 0, 64, 117
1, 51936, Note_on_c, 6, 52, 127
1, 51937, Note_on_c, 0, 59, 117
1, 51937, Note_on_c, 9, 40, 98
1, 51938, Note_on_c, 9, 40, 0
1, 51938, Note_on_c, 7, 76, 127
1, 51938, Note_on_c, 9, 28, 94
1, 51939, Note_on_c, 9, 28, 0
1, 51939, Note_on_c, 3, 71, 127
1, 51940, Note_on_c, 7, 68, 127
1, 51941, Note_on_c, 4, 49, 127
1, 51944, Note_on_c, 4, 56, 127
1, 51945, Note_on_c, 1, 40, 0
1, 51964, Note_on_c, 0, 59, 0
1, 51967, Note_on_c, 7, 76, 0
1, 51968, Note_on_c, 0, 64, 0
1, 51969, Note_on_c, 3, 71, 0
1, 51973, Note_on_c, 7, 68, 0
1, 51974, Note_on_c, 0, 68, 0
1, 51982, Note_on_c, 7, 68, 127
1, 51982, Note_on_c, 7, 76, 127
1, 51984, Note_on_c, 1, 40, 121
1, 51987, Note_on_c, 3, 71, 127
1, 51989, Note_on_c, 4, 56, 0
1, 51989, Note_on_c, 9, 38, 25
1, 51990, Note_on_c, 9, 38, 0
1, 51990, Note_on_c, 4, 49, 0
1, 52003, Note_on_c, 1, 40, 0
1, 52032, Note_on_c, 1, 35, 127
1, 52033, Note_on_c, 9, 38, 54
1, 52034, Note_on_c, 9, 35, 110
1, 52035, Note_on_c, 9, 35, 0
1, 52035, Note_on_c, 9, 38, 0
1, 52036, Note_on_c, 4, 47, 127
1, 52037, Note_on_c, 3, 71, 0
1, 52041, Note_on_c, 6, 52, 0
1, 52044, Note_on_c, 6, 59, 0
1, 52044, Note_on_c, 6, 56, 0
1, 52049, Note_on_c, 7, 68, 0
1, 52052, Note_on_c, 7, 76, 0
1, 52079, Note_on_c, 0, 68, 117
1, 52079, Note_on_c, 0, 59, 117
1, 52080, Note_on_c, 0, 64, 117
1, 52081, Note_on_c, 7, 68, 127
1, 52082, Note_on_c, 3, 71, 127
1, 52082, Note_on_c, 7, 76, 127
1, 52083, Note_on_c, 6, 56, 69
1, 52084, Note_on_c, 6, 52, 72
1, 52084, Note_on_c, 6, 59, 67
1, 52085, Note_on_c, 9, 38, 45
1, 52086, Note_on_c, 9, 38, 0
1, 52093, Note_on_c, 4, 47, 0
1, 52109, Note_on_c, 0, 59, 0
1, 52112, Note_on_c, 0, 64, 0
1, 52118, Note_on_c, 0, 68, 0
1, 52121, Pitch_bend_c, 3, 8317
1, 52123, Pitch_bend_c, 3, 8192
1, 52125, Note_on_c, 6, 59, 0
1, 52126, Note_on_c, 6, 56, 0
1, 52127, Note_on_c, 6, 52, 0
1, 52128, Note_on_c, 6, 56, 109
1, 52128, Note_on_c, 6, 52, 112
1, 52129, Note_on_c, 6, 59, 107
1, 52129, Note_on_c, 9, 40, 97
1, 52131, Note_on_c, 9, 28, 90
1, 52132, Note_on_c, 9, 28, 0
1, 52132, Note_on_c, 9, 40, 0
1, 52132, Note_on_c, 4, 49, 127
1, 52136, Note_on_c, 4, 56, 127
1, 52138, Note_on_c, 1, 35, 0
1, 52141, Note_on_c, 6, 59, 0
1, 52146, Note_on_c, 6, 52, 0
1, 52149, Note_on_c, 6, 56, 0
1, 52159, Note_on_c, 7, 76, 0
1, 52161, Note_on_c, 7, 68, 0
1, 52166, Note_on_c, 4, 49, 0
1, 52168, Note_on_c, 4, 56, 0
1, 52181, Note_on_c, 9, 38, 25
1, 52182, Note_on_c, 3, 71, 0
1, 52183, Note_on_c, 9, 38, 0
1, 52185, Note_on_c, 4, 52, 127
1, 52187, Note_on_c, 4, 64, 127
1, 52204, Pitch_bend_c, 7, 8160
1, 52206, Pitch_bend_c, 7, 8000
1, 52209, Pitch_bend_c, 7, 7680
1, 52210, Pitch_bend_c, 7, 7232
1, 52214, Pitch_bend_c, 7, 6816
1, 52215, Pitch_bend_c, 3, 2848
1, 52216, Pitch_bend_c, 7, 6368
1, 52218, Pitch_bend_c, 3, 2656
1, 52218, Pitch_bend_c, 7, 5984
1, 52220, Pitch_bend_c, 7, 5696
1, 52221, Note_on_c, 4, 64, 0
1, 52222, Note_on_c, 4, 52, 0
1, 52223, Note_on_c, 0, 59, 117
1, 52224, Note_on_c, 0, 68, 117
1, 52224, Note_on_c, 0, 64, 117
1, 52224, Note_on_c, 1, 40, 127
1, 52225, Note_on_c, 7, 68, 127
1, 52225, Note_on_c, 9, 38, 53
1, 52226, Pitch_bend_c, 7, 5440
1, 52226, Note_on_c, 9, 35, 111
1, 52227, Pitch_bend_c, 3, 2720
1, 52228, Note_on_c, 9, 35, 0
1, 52228, Note_on_c, 9, 38, 0
1, 52228, Note_on_c, 6, 52, 88
1, 52229, Note_on_c, 6, 59, 96
1, 52230, Note_on_c, 7, 76, 127
1, 52231, Pitch_bend_c, 7, 5280
1, 52232, Note_on_c, 3, 73, 124
1, 52233, Pitch_bend_c, 7, 5120
1, 52234, Pitch_bend_c, 3, 3360
1, 52235, Note_on_c, 4, 52, 127
1, 52236, Pitch_bend_c, 7, 5024
1, 52237, Pitch_bend_c, 7, 4992
1, 52238, Pitch_bend_c, 3, 5120
1, 52239, Pitch_bend_c, 7, 5088
1, 52240, Pitch_bend_c, 7, 5184
1, 52241, Pitch_bend_c, 3, 5856
1, 52242, Pitch_bend_c, 7, 5408
1, 52244, Pitch_bend_c, 7, 5664
1, 52245, Pitch_bend_c, 3, 7392
1, 52247, Pitch_bend_c, 3, 7904
1, 52247, Pitch_bend_c, 7, 5984
1, 52249, Pitch_bend_c, 7, 6400
1, 52250, Pitch_bend_c, 3, 8160
1, 52251, Pitch_bend_c, 3, 8192
1, 52251, Pitch_bend_c, 7, 6880
1, 52253, Pitch_bend_c, 7, 7424
1, 52254, Note_on_c, 0, 64, 0
1, 52255, Note_on_c, 0, 59, 0
1, 52256, Pitch_bend_c, 7, 7840
1, 52259, Pitch_bend_c, 7, 8128
1, 52261, Note_on_c, 0, 68, 0
1, 52261, Pitch_bend_c, 7, 8192
1, 52268, Note_on_c, 4, 52, 0
1, 52269, Note_on_c, 6, 59, 0
1, 52270, Note_on_c, 6, 52, 0
1, 52272, Note_on_c, 7, 76, 0
1, 52272, Note_on_c, 6, 59, 58
1, 52272, Note_on_c, 6, 52, 63
1, 52273, Note_on_c, 7, 68, 0
1, 52277, Note_on_c, 9, 38, 42
1, 52278, Note_on_c, 9, 38, 0
1, 52278, Note_on_c, 4, 49, 127
1, 52282, Note_on_c, 4, 64, 127
1, 52300, Note_on_c, 3, 73, 0
1, 52312, Note_on_c, 4, 49, 0
1, 52315, Note_on_c, 6, 59, 0
1, 52316, Note_on_c, 4, 64, 0
1, 52318, Note_on_c, 6, 52, 0
1, 52318, Note_on_c, 6, 52, 126
1, 52318, Note_on_c, 6, 59, 127
1, 52319, Note_on_c, 6, 56, 126
1, 52320, Note_on_c, 7, 68, 114
1, 52321, Note_on_c, 7, 76, 127
1, 52321, Note_on_c, 9, 40, 97
1, 52321, Note_on_c, 9, 28, 91
1, 52322, Note_on_c, 9, 40, 0
1, 52323, Note_on_c, 9, 28, 0
1, 52323, Note_on_c, 4, 40, 127
1, 52326, Note_on_c, 1, 40, 0
1, 52327, Note_on_c, 6, 52, 0
1, 52328, Note_on_c, 6, 56, 0
1, 52329, Note_on_c, 6, 59, 0
1, 52330, Note_on_c, 3, 73, 122
1, 52345, Note_on_c, 7, 76, 0
1, 52345, Note_on_c, 7, 68, 0
1, 52348, Note_on_c, 3, 73, 0
1, 52367, Note_on_c, 0, 68, 117
1, 52368, Note_on_c, 0, 59, 117
1, 52368, Note_on_c, 0, 64, 117
1, 52368, Note_on_c, 1, 40, 117
1, 52369, Note_on_c, 6, 59, 71
1, 52369, Note_on_c, 9, 35, 68
1, 52370, Note_on_c, 9, 35, 0
1, 52370, Note_on_c, 6, 52, 63
1, 52371, Note_on_c, 7, 68, 127
1, 52372, Note_on_c, 7, 76, 127
1, 52373, Note_on_c, 4, 40, 0
1, 52373, Note_on_c, 9, 38, 27
1, 52374, Note_on_c, 9, 38, 0
1, 52374, Note_on_c, 3, 73, 124
1, 52391, Note_on_c, 1, 40, 0
1, 52397, Note_on_c, 0, 64, 0
1, 52400, Note_on_c, 0, 59, 0
1, 52403, Note_on_c, 0, 68, 0
1, 52413, Note_on_c, 6, 52, 0
1, 52413, Note_on_c, 6, 59, 0
1, 52414, Note_on_c, 6, 52, 88
1, 52415, Note_on_c, 1, 42, 119
1, 52415, Note_on_c, 6, 59, 96
1, 52417, Note_on_c, 9, 38, 52
1, 52418, Note_on_c, 9, 35, 110
1, 52419, Note_on_c, 9, 35, 0
1, 52419, Note_on_c, 4, 42, 127
1, 52420, Note_on_c, 9, 38, 0
1, 52431, Note_on_c, 7, 76, 0
1, 52438, Note_on_c, 7, 68, 0
1, 52441, Note_on_c, 3, 73, 0
1, 52458, Note_on_c, 6, 52, 0
1, 52459, Note_on_c, 6, 59, 0
1, 52463, Note_on_c, 0, 68, 117
1, 52463, Note_on_c, 0, 59, 117
1, 52464, Note_on_c, 0, 64, 117
1, 52465, Note_on_c, 6, 59, 71
1, 52466, Note_on_c, 6, 52, 63
1, 52467, Note_on_c, 7, 68, 120
1, 52467, Note_on_c, 7, 73, 127
1, 52468, Note_on_c, 4, 42, 0
1, 52468, Note_on_c, 9, 38, 47
1, 52469, Note_on_c, 9, 38, 0
1, 52469, Note_on_c, 3, 69, 127
1, 52481, Note_on_c, 1, 42, 0
1, 52509, Note_on_c, 6, 52, 0
1, 52510, Note_on_c, 6, 59, 0
1, 52510, Note_on_c, 6, 52, 126
1, 52511, Note_on_c, 6, 59, 127
1, 52511, Note_on_c, 6, 56, 126
1, 52512, Note_on_c, 1, 44, 116
1, 52513, Note_on_c, 9, 40, 96
1, 52514, Note_on_c, 9, 40, 0
1, 52514, Note_on_c, 3, 69, 0
1, 52514, Note_on_c, 9, 28, 92
1, 52515, Note_on_c, 9, 28, 0
1, 52516, Note_on_c, 4, 44, 127
1, 52520, Note_on_c, 6, 59, 0
1, 52520, Note_on_c, 6, 56, 0
1, 52520, Note_on_c, 6, 52, 0
1, 52522, Note_on_c, 7, 73, 0
1, 52522, Note_on_c, 7, 68, 0
1, 52542, Pitch_bend_c, 7, 8128
1, 52543, Pitch_bend_c, 7, 8000
1, 52546, Note_on_c, 0, 59, 0
1, 52546, Pitch_bend_c, 7, 5461
1, 52547, Note_on_c, 0, 68, 0
1, 52549, Note_on_c, 0, 64, 0
1, 52553, Pitch_bend_c, 7, 5041
1, 52557, Note_on_c, 7, 64, 122
1, 52558, Note_on_c, 7, 69, 127
1, 52560, Note_on_c, 6, 59, 71
1, 52561, Note_on_c, 6, 52, 63
1, 52563, Note_on_c, 3, 69, 127
1, 52565, Note_on_c, 4, 44, 0
1, 52565, Note_on_c, 9, 38, 23
1, 52566, Note_on_c, 9, 38, 0
1, 52569, Note_on_c, 1, 44, 0
1, 52577, Pitch_bend_c, 7, 4960
1, 52582, Pitch_bend_c, 7, 5088
1, 52584, Pitch_bend_c, 7, 5248
1, 52588, Pitch_bend_c, 7, 5536
1, 52590, Pitch_bend_c, 7, 5984
1, 52592, Pitch_bend_c, 7, 6528
1, 52593, Pitch_bend_c, 7, 7136
1, 52597, Pitch_bend_c, 7, 7680
1, 52598, Pitch_bend_c, 7, 8032
1, 52602, Pitch_bend_c, 7, 8192
1, 52605, Note_on_c, 6, 52, 0
1, 52606, Note_on_c, 6, 59, 0
1, 52608, Note_on_c, 1, 45, 124
1, 52608, Note_on_c, 6, 45, 125
1, 52609, Note_on_c, 9, 38, 43
1, 52610, Note_on_c, 9, 35, 111
1, 52611, Note_on_c, 4, 45, 127
1, 52612, Note_on_c, 9, 35, 0
1, 52612, Note_on_c, 9, 38, 0
1, 52649, Note_on_c, 7, 69, 0
1, 52649, Note_on_c, 7, 64, 0
1, 52656, Note_on_c, 4, 45, 0
1, 52661, Note_on_c, 9, 38, 45
1, 52662, Note_on_c, 9, 38, 0
1, 52675, Note_on_c, 3, 69, 0
1, 52686, Note_on_c, 6, 45, 0
1, 52700, Note_on_c, 6, 52, 102
1, 52701, Note_on_c, 6, 57, 121
1, 52702, Note_on_c, 7, 64, 122
1, 52703, Note_on_c, 0, 64, 117
1, 52704, Note_on_c, 0, 61, 117
1, 52705, Note_on_c, 0, 57, 117
1, 52705, Note_on_c, 2, 57, 111
1, 52705, Note_on_c, 9, 40, 98
1, 52706, Note_on_c, 9, 40, 0
1, 52706, Note_on_c, 7, 69, 127
1, 52706, Note_on_c, 9, 28, 94
1, 52707, Note_on_c, 9, 28, 0
1, 52707, Note_on_c, 3, 69, 115
1, 52708, Note_on_c, 4, 42, 127
1, 52710, Note_on_c, 1, 45, 0
1, 52712, Note_on_c, 4, 49, 127
1, 52721, Note_on_c, 2, 57, 0
1, 52736, Note_on_c, 0, 57, 0
1, 52741, Note_on_c, 0, 61, 0
1, 52748, Note_on_c, 0, 64, 0
1, 52757, Note_on_c, 7, 64, 0
1, 52757, Note_on_c, 9, 38, 25
1, 52758, Note_on_c, 9, 38, 0
1, 52758, Note_on_c, 4, 49, 0
1, 52759, Note_on_c, 3, 69, 0
1, 52760, Note_on_c, 7, 69, 0
1, 52760, Note_on_c, 4, 42, 0
1, 52800, Note_on_c, 1, 40, 127
1, 52801, Note_on_c, 9, 38, 54
1, 52802, Note_on_c, 9, 35, 110
1, 52803, Note_on_c, 9, 35, 0
1, 52804, Note_on_c, 9, 38, 0
1, 52804, Note_on_c, 4, 40, 127
1, 52805, Note_on_c, 6, 52, 0
1, 52811, Note_on_c, 6, 57, 0
1, 52812, Control_c, 3, 1, 13
1, 52815, Control_c, 3, 1, 23
1, 52818, Control_c, 3, 1, 44
1, 52822, Control_c, 3, 1, 66
1, 52828, Control_c, 3, 1, 86
1, 52833, Control_c, 3, 1, 102
1, 52840, Control_c, 3, 1, 123
1, 52847, Note_on_c, 0, 66, 117
1, 52848, Note_on_c, 0, 62, 117
1, 52848, Note_on_c, 0, 57, 117
1, 52849, Note_on_c, 2, 55, 117
1, 52850, Note_on_c, 6, 52, 126
1, 52851, Control_c, 3, 1, 125
1, 52851, Note_on_c, 6, 55, 127
1, 52852, Control_c, 3, 1, 127
1, 52852, Note_on_c, 9, 38, 45
1, 52854, Note_on_c, 9, 38, 0
1, 52861, Note_on_c, 4, 40, 0
1, 52861, Control_c, 3, 1, 125
1, 52863, Control_c, 3, 1, 121
1, 52865, Note_on_c, 2, 55, 0
1, 52866, Note_on_c, 6, 55, 0
1, 52867, Note_on_c, 6, 52, 0
1, 52868, Control_c, 3, 1, 119
1, 52872, Control_c, 3, 1, 99
1, 52875, Note_on_c, 0, 57, 0
1, 52878, Control_c, 3, 1, 77
1, 52882, Note_on_c, 0, 62, 0
1, 52883, Control_c, 3, 1, 24
1, 52884, Note_on_c, 0, 66, 0
1, 52886, Control_c, 3, 1, 0
1, 52897, Note_on_c, 9, 40, 97
1, 52898, Note_on_c, 9, 40, 0
1, 52898, Note_on_c, 9, 28, 90
1, 52899, Note_on_c, 9, 28, 0
1, 52900, Note_on_c, 4, 42, 127
1, 52902, Note_on_c, 1, 40, 0
1, 52903, Note_on_c, 4, 49, 127
1, 52934, Note_on_c, 4, 42, 0
1, 52936, Note_on_c, 4, 49, 0
1, 52943, Note_on_c, 2, 57, 117
1, 52943, Note_on_c, 6, 52, 126
1, 52944, Note_on_c, 6, 57, 127
1, 52949, Note_on_c, 9, 38, 25
1, 52950, Note_on_c, 9, 38, 0
1, 52953, Note_on_c, 4, 45, 127
1, 52954, Note_on_c, 4, 57, 127
1, 52955, Note_on_c, 2, 57, 0
1, 52957, Note_on_c, 6, 52, 0
1, 52957, Note_on_c, 6, 57, 0
1, 52989, Note_on_c, 4, 57, 0
1, 52990, Note_on_c, 4, 45, 0
1, 52991, Note_on_c, 0, 64, 117
1, 52992, Note_on_c, 0, 61, 117
1, 52992, Note_on_c, 0, 57, 117
1, 52992, Note_on_c, 1, 33, 127
1, 52993, Note_on_c, 9, 38, 53
1, 52994, Note_on_c, 9, 35, 111
1, 52996, Note_on_c, 9, 35, 0
1, 52996, Note_on_c, 9, 38, 0
1, 52997, Note_on_c, 4, 45, 127
1, 53027, Note_on_c, 0, 57, 0
1, 53028, Note_on_c, 0, 61, 0
1, 53035, Note_on_c, 0, 64, 0
1, 53036, Note_on_c, 4, 45, 0
1, 53040, Note_on_c, 6, 55, 96
1, 53045, Note_on_c, 9, 38, 42
1, 53046, Note_on_c, 9, 38, 0
1, 53047, Note_on_c, 4, 42, 127
1, 53050, Note_on_c, 4, 57, 127
1, 53080, Note_on_c, 4, 42, 0
1, 53084, Note_on_c, 4, 57, 0
1, 53085, Note_on_c, 6, 55, 0
1, 53085, Note_on_c, 6, 55, 83
1, 53089, Note_on_c, 9, 40, 97
1, 53089, Note_on_c, 9, 28, 91
1, 53090, Note_on_c, 9, 40, 0
1, 53091, Note_on_c, 9, 28, 0
1, 53091, Note_on_c, 4, 42, 127
1, 53096, Note_on_c, 4, 49, 127
1, 53097, Note_on_c, 1, 33, 0
1, 53131, Note_on_c, 6, 55, 0
1, 53134, Note_on_c, 0, 66, 117
1, 53135, Note_on_c, 0, 62, 117
1, 53135, Note_on_c, 1, 33, 91
1, 53136, Note_on_c, 0, 57, 117
1, 53137, Note_on_c, 6, 55, 121
1, 53137, Note_on_c, 9, 35, 68
1, 53138, Note_on_c, 9, 35, 0
1, 53138, Note_on_c, 4, 42, 0
1, 53140, Note_on_c, 9, 38, 27
1, 53141, Note_on_c, 4, 49, 0
1, 53142, Note_on_c, 9, 38, 0
1, 53151, Note_on_c, 1, 33, 0
1, 53172, Note_on_c, 0, 62, 0
1, 53175, Note_on_c, 0, 66, 0
1, 53175, Note_on_c, 0, 57, 0
1, 53181, Note_on_c, 6, 54, 96
1, 53182, Note_on_c, 6, 55, 0
1, 53183, Note_on_c, 1, 40, 126
1, 53185, Note_on_c, 9, 38, 52
1, 53186, Note_on_c, 9, 35, 110
1, 53187, Note_on_c, 9, 35, 0
1, 53187, Note_on_c, 9, 38, 0
1, 53188, Note_on_c, 4, 43, 127
1, 53228, Note_on_c, 6, 54, 0
1, 53231, Note_on_c, 0, 64, 117
1, 53231, Note_on_c, 0, 57, 117
1, 53232, Note_on_c, 0, 61, 117
1, 53233, Note_on_c, 6, 55, 127
1, 53234, Note_on_c, 4, 43, 0
1, 53236, Note_on_c, 9, 38, 47
1, 53238, Note_on_c, 9, 38, 0
1, 53257, Note_on_c, 9, 38, 47
1, 53258, Note_on_c, 9, 38, 0
1, 53276, Note_on_c, 0, 57, 0
1, 53278, Note_on_c, 6, 55, 0
1, 53278, Note_on_c, 6, 54, 127
1, 53279, Note_on_c, 0, 61, 0
1, 53280, Note_on_c, 0, 64, 0
1, 53281, Note_on_c, 9, 40, 96
1, 53281, Note_on_c, 9, 28, 92
1, 53282, Note_on_c, 9, 40, 0
1, 53283, Note_on_c, 9, 28, 0
1, 53284, Note_on_c, 4, 42, 127
1, 53285, Note_on_c, 4, 49, 127
1, 53287, Note_on_c, 1, 40, 0
1, 53324, Note_on_c, 6, 54, 0
1, 53328, Note_on_c, 6, 55, 127
1, 53333, Note_on_c, 4, 42, 0
1, 53333, Pitch_bend_c, 7, 8160
1, 53333, Note_on_c, 9, 38, 23
1, 53334, Note_on_c, 9, 38, 0
1, 53335, Pitch_bend_c, 7, 8128
1, 53336, Note_on_c, 4, 49, 0
1, 53337, Pitch_bend_c, 7, 8032
1, 53340, Pitch_bend_c, 7, 8000
1, 53342, Pitch_bend_c, 3, 7872
1, 53342, Pitch_bend_c, 7, 7872
1, 53345, Pitch_bend_c, 7, 7808
1, 53346, Pitch_bend_c, 3, 7104
1, 53347, Pitch_bend_c, 7, 7680
1, 53351, Pitch_bend_c, 7, 7520
1, 53352, Pitch_bend_c, 3, 6688
1, 53352, Pitch_bend_c, 7, 7296
1, 53353, Pitch_bend_c, 3, 5792
1, 53353, Pitch_bend_c, 7, 7040
1, 53353, Note_on_c, 9, 38, 23
1, 53354, Note_on_c, 9, 38, 0
1, 53355, Pitch_bend_c, 7, 6816
1, 53357, Pitch_bend_c, 3, 5312
1, 53359, Pitch_bend_c, 7, 6560
1, 53361, Pitch_bend_c, 7, 6368
1, 53362, Pitch_bend_c, 3, 3936
1, 53363, Pitch_bend_c, 7, 6144
1, 53366, Pitch_bend_c, 7, 5984
1, 53367, Pitch_bend_c, 3, 3584
1, 53369, Pitch_bend_c, 7, 5792
1, 53370, Pitch_bend_c, 7, 5600
1, 53373, Pitch_bend_c, 3, 2848
1, 53373, Pitch_bend_c, 7, 5440
1, 53374, Pitch_bend_c, 3, 2592
1, 53375, Note_on_c, 7, 69, 127
1, 53375, Note_on_c, 7, 73, 127
1, 53376, Note_on_c, 1, 33, 121
1, 53376, Pitch_bend_c, 7, 5312
1, 53377, Note_on_c, 6, 52, 88
1, 53377, Note_on_c, 9, 38, 43
1, 53378, Note_on_c, 6, 57, 96
1, 53378, Note_on_c, 9, 35, 111
1, 53379, Note_on_c, 6, 55, 0
1, 53380, Note_on_c, 9, 35, 0
1, 53380, Note_on_c, 9, 38, 0
1, 53380, Pitch_bend_c, 3, 2848
1, 53381, Note_on_c, 3, 76, 127
1, 53382, Pitch_bend_c, 7, 5248
1, 53383, Note_on_c, 4, 45, 127
1, 53384, Pitch_bend_c, 7, 5184
1, 53385, Pitch_bend_c, 3, 2976
1, 53390, Pitch_bend_c, 3, 3392
1, 53390, Pitch_bend_c, 7, 5248
1, 53392, Pitch_bend_c, 7, 5280
1, 53395, Pitch_bend_c, 3, 4288
1, 53396, Pitch_bend_c, 7, 5312
1, 53398, Pitch_bend_c, 3, 5728
1, 53398, Pitch_bend_c, 7, 5408
1, 53402, Pitch_bend_c, 7, 5440
1, 53404, Pitch_bend_c, 7, 5536
1, 53406, Pitch_bend_c, 3, 7328
1, 53406, Pitch_bend_c, 7, 5664
1, 53408, Pitch_bend_c, 3, 8160
1, 53409, Pitch_bend_c, 7, 5792
1, 53410, Pitch_bend_c, 7, 6016
1, 53412, Pitch_bend_c, 3, 8192
1, 53413, Pitch_bend_c, 7, 6304
1, 53416, Pitch_bend_c, 7, 6688
1, 53419, Pitch_bend_c, 7, 7104
1, 53421, Note_on_c, 6, 57, 0
1, 53421, Pitch_bend_c, 7, 7552
1, 53422, Note_on_c, 6, 52, 0
1, 53423, Pitch_bend_c, 7, 7904
1, 53424, Note_on_c, 6, 57, 58
1, 53424, Note_on_c, 6, 52, 63
1, 53425, Note_on_c, 4, 45, 0
1, 53426, Pitch_bend_c, 7, 8128
1, 53428, Pitch_bend_c, 7, 8192
1, 53428, Note_on_c, 9, 38, 45
1, 53430, Note_on_c, 9, 38, 0
1, 53469, Note_on_c, 6, 49, 126
1, 53470, Note_on_c, 6, 52, 0
1, 53470, Note_on_c, 6, 52, 113
1, 53471, Note_on_c, 6, 57, 0
1, 53471, Note_on_c, 6, 57, 127
1, 53473, Note_on_c, 0, 61, 117
1, 53473, Note_on_c, 9, 40, 98
1, 53474, Note_on_c, 9, 40, 0
1, 53474, Note_on_c, 0, 64, 117
1, 53474, Note_on_c, 9, 28, 94
1, 53475, Note_on_c, 9, 28, 0
1, 53475, Note_on_c, 0, 57, 117
1, 53476, Note_on_c, 4, 42, 127
1, 53479, Note_on_c, 1, 33, 0
1, 53480, Note_on_c, 4, 49, 127
1, 53481, Note_on_c, 6, 49, 0
1, 53482, Note_on_c, 6, 52, 0
1, 53485, Note_on_c, 6, 57, 0
1, 53492, Note_on_c, 0, 57, 0
1, 53499, Note_on_c, 0, 61, 0
1, 53500, Note_on_c, 0, 64, 0
1, 53520, Note_on_c, 1, 33, 91
1, 53520, Note_on_c, 6, 57, 71
1, 53520, Note_on_c, 6, 52, 63
1, 53521, Note_on_c, 7, 73, 0
1, 53524, Note_on_c, 7, 69, 0
1, 53525, Note_on_c, 4, 49, 0
1, 53525, Note_on_c, 9, 38, 25
1, 53526, Note_on_c, 9, 38, 0
1, 53526, Note_on_c, 4, 42, 0
1, 53529, Note_on_c, 3, 76, 0
1, 53535, Note_on_c, 1, 33, 0
1, 53565, Note_on_c, 6, 57, 0
1, 53566, Note_on_c, 6, 52, 0
1, 53566, Note_on_c, 6, 52, 101
1, 53567, Note_on_c, 6, 57, 96
1, 53568, Note_on_c, 1, 40, 127
1, 53568, Note_on_c, 3, 73, 127
1, 53568, Note_on_c, 7, 73, 127
1, 53569, Note_on_c, 7, 69, 127
1, 53569, Note_on_c, 9, 38, 54
1, 53569, Note_on_c, 9, 35, 110
1, 53570, Note_on_c, 9, 35, 0
1, 53570, Note_on_c, 9, 38, 0
1, 53571, Note_on_c, 4, 40, 127
1, 53612, Note_on_c, 6, 52, 0
1, 53612, Note_on_c, 6, 57, 0
1, 53616, Note_on_c, 0, 57, 117
1, 53616, Note_on_c, 0, 61, 117
1, 53616, Note_on_c, 0, 64, 117
1, 53616, Note_on_c, 6, 57, 71
1, 53617, Note_on_c, 6, 52, 63
1, 53621, Note_on_c, 9, 38, 45
1, 53622, Note_on_c, 9, 38, 0
1, 53629, Note_on_c, 4, 40, 0
1, 53640, Pitch_bend_c, 3, 8064
1, 53643, Note_on_c, 0, 64, 0
1, 53643, Note_on_c, 0, 57, 0
1, 53644, Note_on_c, 0, 61, 0
1, 53645, Pitch_bend_c, 3, 8000
1, 53648, Pitch_bend_c, 3, 7904
1, 53649, Pitch_bend_c, 3, 7680
1, 53654, Pitch_bend_c, 3, 7584
1, 53656, Pitch_bend_c, 3, 7392
1, 53661, Pitch_bend_c, 3, 7296
1, 53663, Note_on_c, 6, 49, 126
1, 53664, Note_on_c, 6, 57, 0
1, 53664, Note_on_c, 6, 52, 0
1, 53664, Pitch_bend_c, 3, 6976
1, 53664, Note_on_c, 6, 52, 126
1, 53664, Note_on_c, 6, 57, 127
1, 53665, Note_on_c, 9, 40, 97
1, 53666, Note_on_c, 9, 40, 0
1, 53666, Note_on_c, 9, 28, 90
1, 53667, Note_on_c, 9, 28, 0
1, 53668, Note_on_c, 4, 42, 127
1, 53669, Pitch_bend_c, 3, 6848
1, 53670, Note_on_c, 4, 49, 127
1, 53671, Note_on_c, 6, 49, 0
1, 53672, Note_on_c, 6, 52, 0
1, 53673, Note_on_c, 6, 57, 0
1, 53674, Note_on_c, 1, 40, 0
1, 53674, Pitch_bend_c, 3, 6592
1, 53676, Pitch_bend_c, 3, 6464
1, 53678, Pitch_bend_c, 3, 6144
1, 53681, Pitch_bend_c, 3, 6016
1, 53684, Pitch_bend_c, 3, 5760
1, 53690, Pitch_bend_c, 3, 5632
1, 53692, Pitch_bend_c, 3, 5408
1, 53696, Pitch_bend_c, 3, 5280
1, 53700, Pitch_bend_c, 3, 5248
1, 53702, Note_on_c, 4, 42, 0
1, 53702, Pitch_bend_c, 3, 5152
1, 53704, Note_on_c, 4, 49, 0
1, 53708, Pitch_bend_c, 3, 5056
1, 53712, Note_on_c, 1, 40, 91
1, 53712, Note_on_c, 6, 57, 71
1, 53712, Note_on_c, 6, 52, 63
1, 53714, Note_on_c, 7, 73, 0
1, 53716, Note_on_c, 7, 69, 0
1, 53716, Pitch_bend_c, 3, 5248
1, 53717, Note_on_c, 9, 38, 25
1, 53718, Note_on_c, 9, 38, 0
1, 53721, Note_on_c, 4, 45, 127
1, 53722, Note_on_c, 3, 73, 0
1, 53722, Pitch_bend_c, 3, 5408
1, 53723, Note_on_c, 4, 57, 127
1, 53724, Pitch_bend_c, 3, 6208
1, 53726, Note_on_c, 1, 40, 0
1, 53728, Pitch_bend_c, 3, 6816
1, 53731, Pitch_bend_c, 3, 7424
1, 53733, Pitch_bend_c, 3, 8160
1, 53737, Pitch_bend_c, 3, 8192
1, 53757, Note_on_c, 4, 57, 0
1, 53758, Note_on_c, 6, 52, 0
1, 53758, Note_on_c, 6, 57, 0
1, 53758, Note_on_c, 6, 52, 88
1, 53758, Note_on_c, 6, 57, 96
1, 53759, Note_on_c, 7, 69, 127
1, 53760, Note_on_c, 1, 45, 123
1, 53761, Note_on_c, 4, 45, 0
1, 53761, Note_on_c, 9, 38, 53
1, 53762, Note_on_c, 0, 64, 117
1, 53762, Note_on_c, 9, 35, 111
1, 53763, Note_on_c, 9, 35, 0
1, 53763, Note_on_c, 0, 57, 117
1, 53764, Note_on_c, 9, 38, 0
1, 53764, Note_on_c, 0, 61, 117
1, 53765, Note_on_c, 3, 69, 127
1, 53766, Note_on_c, 7, 73, 127
1, 53768, Note_on_c, 4, 45, 127
1, 53790, Note_on_c, 0, 61, 0
1, 53794, Note_on_c, 0, 57, 0
1, 53799, Note_on_c, 0, 64, 0
1, 53803, Note_on_c, 6, 57, 0
1, 53804, Note_on_c, 4, 45, 0
1, 53804, Note_on_c, 6, 52, 0
1, 53807, Note_on_c, 6, 57, 58
1, 53808, Note_on_c, 6, 52, 63
1, 53813, Note_on_c, 9, 38, 42
1, 53814, Note_on_c, 9, 38, 0
1, 53815, Note_on_c, 4, 42, 127
1, 53816, Note_on_c, 1, 45, 0
1, 53817, Note_on_c, 4, 57, 127
1, 53825, Note_on_c, 7, 69, 0
1, 53827, Note_on_c, 7, 73, 0
1, 53833, Note_on_c, 3, 69, 0
1, 53848, Note_on_c, 4, 42, 0
1, 53850, Note_on_c, 3, 69, 127
1, 53851, Note_on_c, 4, 57, 0
1, 53854, Note_on_c, 6, 49, 126
1, 53855, Note_on_c, 6, 57, 0
1, 53855, Note_on_c, 6, 52, 0
1, 53855, Note_on_c, 1, 33, 127
1, 53855, Note_on_c, 6, 52, 113
1, 53855, Note_on_c, 6, 57, 127
1, 53857, Note_on_c, 9, 40, 97
1, 53857, Note_on_c, 9, 28, 91
1, 53858, Note_on_c, 9, 40, 0
1, 53858, Note_on_c, 7, 69, 127
1, 53859, Note_on_c, 9, 28, 0
1, 53859, Note_on_c, 7, 73, 127
1, 53860, Note_on_c, 8, 45, 127
1, 53861, Note_on_c, 2, 45, 127
1, 53862, Note_on_c, 4, 42, 127
1, 53864, Note_on_c, 6, 49, 0
1, 53864, Note_on_c, 4, 49, 127
1, 53865, Note_on_c, 6, 52, 0
1, 53869, Note_on_c, 6, 57, 0
1, 53899, Note_on_c, 7, 73, 0
1, 53901, Note_on_c, 7, 69, 0
1, 53902, Note_on_c, 0, 64, 117
1, 53903, Note_on_c, 0, 57, 117
1, 53904, Note_on_c, 0, 61, 117
1, 53904, Note_on_c, 9, 35, 68
1, 53905, Note_on_c, 6, 57, 71
1, 53906, Note_on_c, 6, 52, 63
1, 53907, Note_on_c, 9, 35, 0
1, 53907, Note_on_c, 4, 42, 0
1, 53908, Note_on_c, 3, 69, 0
1, 53909, Note_on_c, 4, 49, 0
1, 53909, Note_on_c, 9, 38, 27
1, 53910, Note_on_c, 9, 38, 0
1, 53914, Control_c, 3, 1, 17
1, 53919, Control_c, 3, 1, 31
1, 53921, Note_on_c, 1, 33, 0
1, 53921, Control_c, 3, 1, 63
1, 53925, Control_c, 3, 1, 92
1, 53931, Control_c, 3, 1, 114
1, 53935, Control_c, 3, 1, 127
1, 53936, Note_on_c, 0, 61, 0
1, 53937, Note_on_c, 0, 57, 0
1, 53940, Note_on_c, 8, 45, 0
1, 53941, Note_on_c, 2, 45, 0
1, 53943, Note_on_c, 0, 64, 0
1, 53945, Control_c, 3, 1, 123
1, 53947, Control_c, 3, 1, 110
1, 53949, Note_on_c, 6, 57, 0
1, 53950, Note_on_c, 6, 52, 0
1, 53950, Note_on_c, 6, 52, 101
1, 53950, Note_on_c, 6, 57, 96
1, 53952, Note_on_c, 1, 35, 127
1, 53952, Control_c, 3, 1, 69
1, 53953, Note_on_c, 8, 47, 127
1, 53953, Note_on_c, 9, 38, 52
1, 53954, Note_on_c, 2, 47, 127
1, 53954, Note_on_c, 9, 35, 110
1, 53955, Note_on_c, 4, 43, 127
1, 53956, Note_on_c, 9, 35, 0
1, 53956, Note_on_c, 9, 38, 0
1, 53956, Control_c, 3, 1, 16
1, 53964, Control_c, 3, 1, 6
1, 53967, Control_c, 3, 1, 0
1, 53996, Note_on_c, 6, 57, 0
1, 53996, Note_on_c, 6, 52, 0
1, 54000, Note_on_c, 6, 57, 71
1, 54001, Note_on_c, 4, 43, 0
1, 54001, Note_on_c, 6, 52, 63
1, 54005, Note_on_c, 9, 38, 47
1, 54006, Note_on_c, 9, 38, 0
1, 54012, Note_on_c, 8, 47, 0
1, 54013, Note_on_c, 2, 47, 0
1, 54017, Note_on_c, 1, 35, 0
1, 54046, Note_on_c, 6, 49, 126
1, 54047, Note_on_c, 6, 57, 0
1, 54047, Note_on_c, 6, 52, 0
1, 54047, Note_on_c, 6, 52, 126
1, 54047, Note_on_c, 6, 57, 127
1, 54048, Note_on_c, 1, 37, 124
1, 54049, Note_on_c, 0, 64, 117
1, 54049, Note_on_c, 9, 40, 96
1, 54050, Note_on_c, 9, 40, 0
1, 54050, Note_on_c, 0, 61, 117
1, 54050, Note_on_c, 9, 28, 92
1, 54051, Note_on_c, 9, 28, 0
1, 54051, Note_on_c, 0, 57, 117
1, 54053, Note_on_c, 8, 49, 127
1, 54054, Note_on_c, 2, 49, 127
1, 54055, Note_on_c, 4, 42, 127
1, 54056, Note_on_c, 4, 49, 127
1, 54057, Note_on_c, 6, 49, 0
1, 54058, Note_on_c, 6, 52, 0
1, 54058, Note_on_c, 6, 57, 0
1, 54079, Note_on_c, 0, 57, 0
1, 54085, Note_on_c, 0, 61, 0
1, 54088, Note_on_c, 0, 64, 0
1, 54096, Note_on_c, 6, 57, 71
1, 54096, Note_on_c, 6, 52, 63
1, 54097, Note_on_c, 3, 69, 127
1, 54100, Note_on_c, 9, 38, 23
1, 54101, Note_on_c, 4, 42, 0
1, 54102, Note_on_c, 9, 38, 0
1, 54102, Pitch_bend_c, 3, 8401
1, 54103, Note_on_c, 4, 49, 0
1, 54111, Pitch_bend_c, 7, 8160
1, 54113, Note_on_c, 8, 49, 0
1, 54114, Pitch_bend_c, 7, 8000
1, 54115, Note_on_c, 2, 49, 0
1, 54116, Pitch_bend_c, 7, 7680
1, 54118, Note_on_c, 1, 37, 0
1, 54118, Pitch_bend_c, 7, 7168
1, 54120, Pitch_bend_c, 7, 6688
1, 54121, Pitch_bend_c, 7, 6112
1, 54122, Note_on_c, 3, 69, 0
1, 54123, Pitch_bend_c, 7, 5664
1, 54125, Pitch_bend_c, 7, 5184
1, 54127, Pitch_bend_c, 7, 4832
1, 54131, Pitch_bend_c, 3, 8192
1, 54132, Pitch_bend_c, 7, 4512
1, 54133, Pitch_bend_c, 7, 4224
1, 54135, Pitch_bend_c, 3, 2432
1, 54136, Pitch_bend_c, 7, 4032
1, 54137, Pitch_bend_c, 3, 2304
1, 54139, Pitch_bend_c, 7, 3936
1, 54141, Pitch_bend_c, 7, 3872
1, 54142, Note_on_c, 6, 57, 0
1, 54143, Pitch_bend_c, 3, 2048
1, 54143, Note_on_c, 7, 74, 127
1, 54144, Note_on_c, 1, 38, 127
1, 54144, Note_on_c, 6, 57, 101
1, 54145, Note_on_c, 6, 54, 101
1, 54145, Note_on_c, 9, 38, 43
1, 54146, Note_on_c, 6, 62, 100
1, 54146, Note_on_c, 9, 35, 111
1, 54147, Note_on_c, 7, 66, 127
1, 54148, Note_on_c, 9, 35, 0
1, 54148, Note_on_c, 9, 38, 0
1, 54148, Note_on_c, 6, 52, 0
1, 54149, Note_on_c, 3, 69, 127
1, 54150, Note_on_c, 8, 50, 127
1, 54151, Note_on_c, 2, 50, 127
1, 54152, Pitch_bend_c, 7, 3968
1, 54153, Note_on_c, 4, 50, 127
1, 54154, Pitch_bend_c, 7, 4128
1, 54155, Pitch_bend_c, 3, 2144
1, 54156, Pitch_bend_c, 3, 2656
1, 54157, Pitch_bend_c, 7, 4384
1, 54158, Pitch_bend_c, 7, 4672
1, 54159, Pitch_bend_c, 3, 3232
1, 54160, Pitch_bend_c, 7, 5024
1, 54161, Pitch_bend_c, 7, 5440
1, 54162, Pitch_bend_c, 3, 4928
1, 54162, Pitch_bend_c, 7, 5888
1, 54163, Pitch_bend_c, 3, 7168
1, 54164, Pitch_bend_c, 7, 6368
1, 54165, Pitch_bend_c, 7, 6816
1, 54166, Pitch_bend_c, 7, 7264
1, 54167, Pitch_bend_c, 3, 7904
1, 54169, Pitch_bend_c, 3, 8192
1, 54170, Pitch_bend_c, 7, 7712
1, 54171, Pitch_bend_c, 7, 8000
1, 54174, Pitch_bend_c, 7, 8160
1, 54177, Pitch_bend_c, 7, 8192
1, 54191, Note_on_c, 6, 57, 0
1, 54191, Note_on_c, 6, 62, 0
1, 54192, Note_on_c, 6, 54, 0
1, 54192, Note_on_c, 6, 54, 84
1, 54192, Note_on_c, 6, 57, 87
1, 54192, Note_on_c, 6, 62, 84
1, 54194, Note_on_c, 4, 50, 0
1, 54197, Note_on_c, 9, 38, 45
1, 54198, Note_on_c, 9, 38, 0
1, 54204, Note_on_c, 3, 69, 0
1, 54209, Note_on_c, 7, 66, 0
1, 54217, Note_on_c, 8, 50, 0
1, 54218, Note_on_c, 2, 50, 0
1, 54218, Note_on_c, 7, 74, 0
1, 54237, Note_on_c, 6, 62, 0
1, 54238, Note_on_c, 6, 54, 0
1, 54238, Note_on_c, 6, 62, 110
1, 54238, Note_on_c, 6, 54, 115
1, 54239, Note_on_c, 6, 59, 118
1, 54241, Note_on_c, 6, 57, 0
1, 54241, Note_on_c, 9, 40, 98
1, 54242, Note_on_c, 9, 40, 0
1, 54242, Note_on_c, 0, 66, 117
1, 54242, Note_on_c, 9, 28, 94
1, 54243, Note_on_c, 9, 28, 0
1, 54243, Note_on_c, 0, 57, 117
1, 54244, Note_on_c, 0, 62, 117
1, 54245, Note_on_c, 7, 74, 127
1, 54246, Note_on_c, 3, 69, 121
1, 54246, Note_on_c, 7, 66, 127
1, 54247, Note_on_c, 1, 38, 0
1, 54247, Note_on_c, 4, 47, 127
1, 54248, Note_on_c, 4, 54, 127
1, 54257, Note_on_c, 6, 54, 0
1, 54259, Note_on_c, 6, 59, 0
1, 54265, Note_on_c, 6, 62, 0
1, 54271, Note_on_c, 0, 57, 0
1, 54273, Note_on_c, 0, 62, 0
1, 54277, Note_on_c, 0, 66, 0
1, 54285, Note_on_c, 7, 74, 0
1, 54288, Note_on_c, 1, 38, 120
1, 54288, Note_on_c, 6, 57, 96
1, 54288, Note_on_c, 6, 62, 82
1, 54289, Note_on_c, 6, 54, 70
1, 54293, Note_on_c, 7, 66, 0
1, 54293, Note_on_c, 9, 38, 25
1, 54294, Note_on_c, 9, 38, 0
1, 54294, Note_on_c, 4, 54, 0
1, 54295, Note_on_c, 4, 47, 0
1, 54305, Note_on_c, 3, 69, 0
1, 54307, Note_on_c, 1, 38, 0
1, 54333, Note_on_c, 6, 57, 0
1, 54333, Note_on_c, 6, 62, 0
1, 54334, Note_on_c, 6, 57, 115
1, 54335, Note_on_c, 6, 62, 111
1, 54336, Note_on_c, 6, 54, 0
1, 54336, Note_on_c, 1, 33, 127
1, 54336, Note_on_c, 6, 54, 112
1, 54337, Note_on_c, 7, 66, 127
1, 54337, Note_on_c, 9, 38, 54
1, 54338, Note_on_c, 3, 69, 127
1, 54338, Note_on_c, 9, 35, 110
1, 54339, Note_on_c, 7, 74, 127
1, 54340, Note_on_c, 9, 35, 0
1, 54340, Note_on_c, 9, 38, 0
1, 54340, Note_on_c, 4, 45, 127
1, 54377, Note_on_c, 6, 62, 0
1, 54379, Note_on_c, 6, 54, 0
1, 54380, Note_on_c, 6, 57, 0
1, 54380, Note_on_c, 7, 66, 0
1, 54382, Note_on_c, 3, 69, 0
1, 54383, Note_on_c, 0, 66, 117
1, 54384, Note_on_c, 0, 57, 117
1, 54385, Note_on_c, 0, 62, 117
1, 54385, Note_on_c, 6, 57, 90
1, 54386, Note_on_c, 6, 54, 86
1, 54386, Note_on_c, 6, 62, 85
1, 54389, Note_on_c, 9, 38, 45
1, 54390, Note_on_c, 9, 38, 0
1, 54390, Note_on_c, 7, 74, 0
1, 54397, Note_on_c, 4, 45, 0
1, 54397, Note_on_c, 1, 33, 0
1, 54410, Note_on_c, 0, 57, 0
1, 54412, Note_on_c, 0, 62, 0
1, 54419, Note_on_c, 0, 66, 0
1, 54429, Note_on_c, 6, 57, 0
1, 54430, Note_on_c, 6, 54, 0
1, 54430, Note_on_c, 6, 62, 0
1, 54431, Note_on_c, 6, 62, 108
1, 54432, Note_on_c, 1, 35, 127
1, 54432, Note_on_c, 6, 54, 113
1, 54432, Note_on_c, 6, 59, 116
1, 54433, Note_on_c, 3, 69, 108
1, 54433, Note_on_c, 9, 40, 97
1, 54434, Note_on_c, 9, 40, 0
1, 54434, Note_on_c, 7, 69, 125
1, 54434, Note_on_c, 9, 28, 90
1, 54435, Note_on_c, 9, 28, 0
1, 54435, Note_on_c, 7, 66, 127
1, 54436, Note_on_c, 4, 47, 127
1, 54438, Note_on_c, 4, 54, 127
1, 54447, Note_on_c, 6, 54, 0
1, 54449, Note_on_c, 6, 59, 0
1, 54454, Note_on_c, 6, 62, 0
1, 54460, Note_on_c, 7, 66, 0
1, 54462, Note_on_c, 7, 69, 0
1, 54470, Note_on_c, 4, 47, 0
1, 54472, Note_on_c, 4, 54, 0
1, 54478, Note_on_c, 3, 69, 0
1, 54479, Note_on_c, 7, 74, 127
1, 54480, Note_on_c, 3, 62, 127
1, 54480, Note_on_c, 6, 57, 82
1, 54481, Note_on_c, 6, 62, 88
1, 54481, Note_on_c, 6, 54, 88
1, 54482, Note_on_c, 7, 66, 127
1, 54485, Note_on_c, 9, 38, 25
1, 54486, Note_on_c, 9, 38, 0
1, 54487, Note_on_c, 1, 35, 0
1, 54489, Note_on_c, 4, 50, 127
1, 54490, Note_on_c, 4, 62, 127
1, 54525, Note_on_c, 6, 62, 0
1, 54525, Note_on_c, 6, 54, 0
1, 54526, Note_on_c, 4, 62, 0
1, 54527, Note_on_c, 6, 57, 0
1, 54527, Note_on_c, 1, 38, 127
1, 54528, Note_on_c, 4, 50, 0
1, 54529, Note_on_c, 0, 66, 117
1, 54529, Note_on_c, 9, 38, 53
1, 54530, Note_on_c, 0, 57, 117
1, 54530, Note_on_c, 9, 35, 111
1, 54531, Note_on_c, 0, 62, 117
1, 54532, Note_on_c, 9, 35, 0
1, 54532, Note_on_c, 9, 38, 0
1, 54532, Note_on_c, 6, 57, 101
1, 54533, Note_on_c, 6, 54, 101
1, 54534, Note_on_c, 6, 62, 100
1, 54535, Note_on_c, 4, 50, 127
1, 54558, Note_on_c, 0, 62, 0
1, 54564, Note_on_c, 0, 57, 0
1, 54565, Note_on_c, 0, 66, 0
1, 54571, Note_on_c, 4, 50, 0
1, 54572, Control_c, 3, 1, 2
1, 54574, Note_on_c, 6, 62, 0
1, 54574, Note_on_c, 6, 57, 0
1, 54575, Control_c, 3, 1, 10
1, 54576, Note_on_c, 6, 54, 0
1, 54576, Note_on_c, 6, 54, 84
1, 54577, Note_on_c, 6, 57, 87
1, 54577, Note_on_c, 6, 62, 84
1, 54578, Control_c, 3, 1, 47
1, 54581, Note_on_c, 9, 38, 42
1, 54582, Note_on_c, 9, 38, 0
1, 54582, Note_on_c, 4, 47, 127
1, 54585, Control_c, 3, 1, 57
1, 54585, Note_on_c, 4, 62, 127
1, 54586, Control_c, 3, 1, 70
1, 54591, Control_c, 3, 1, 75
1, 54595, Control_c, 3, 1, 86
1, 54601, Control_c, 3, 1, 95
1, 54604, Note_on_c, 1, 38, 0
1, 54608, Control_c, 3, 1, 101
1, 54609, Control_c, 3, 1, 121
1, 54612, Pitch_bend_c, 3, 8032
1, 54614, Control_c, 3, 1, 126
1, 54615, Note_on_c, 4, 47, 0
1, 54617, Pitch_bend_c, 3, 7808
1, 54619, Note_on_c, 4, 62, 0
1, 54619, Control_c, 3, 1, 127
1, 54620, Pitch_bend_c, 3, 7232
1, 54621, Note_on_c, 6, 62, 0
1, 54622, Note_on_c, 6, 62, 110
1, 54623, Note_on_c, 6, 54, 0
1, 54623, Note_on_c, 6, 54, 115
1, 54623, Note_on_c, 6, 59, 118
1, 54625, Note_on_c, 6, 57, 0
1, 54625, Pitch_bend_c, 3, 6976
1, 54625, Note_on_c, 9, 40, 97
1, 54626, Note_on_c, 1, 37, 119
1, 54626, Note_on_c, 9, 28, 91
1, 54627, Note_on_c, 9, 40, 0
1, 54627, Pitch_bend_c, 3, 6688
1, 54628, Note_on_c, 9, 28, 0
1, 54628, Note_on_c, 4, 47, 127
1, 54629, Pitch_bend_c, 3, 6208
1, 54632, Note_on_c, 4, 54, 127
1, 54634, Pitch_bend_c, 3, 5728
1, 54637, Pitch_bend_c, 3, 5504
1, 54641, Note_on_c, 6, 54, 0
1, 54643, Pitch_bend_c, 3, 4672
1, 54644, Note_on_c, 6, 59, 0
1, 54645, Control_c, 3, 1, 103
1, 54648, Pitch_bend_c, 3, 4416
1, 54649, Note_on_c, 6, 62, 0
1, 54650, Pitch_bend_c, 3, 3936
1, 54651, Control_c, 3, 1, 91
1, 54655, Control_c, 3, 1, 68
1, 54656, Pitch_bend_c, 3, 3712
1, 54658, Control_c, 3, 1, 45
1, 54658, Pitch_bend_c, 3, 3552
1, 54660, Pitch_bend_c, 3, 3456
1, 54663, Control_c, 3, 1, 21
1, 54665, Pitch_bend_c, 3, 3488
1, 54668, Control_c, 3, 1, 4
1, 54668, Pitch_bend_c, 3, 4032
1, 54670, Note_on_c, 0, 66, 117
1, 54671, Note_on_c, 0, 57, 117
1, 54672, Note_on_c, 0, 62, 117
1, 54673, Note_on_c, 6, 57, 96
1, 54673, Note_on_c, 9, 35, 68
1, 54674, Note_on_c, 9, 35, 0
1, 54674, Note_on_c, 6, 62, 82
1, 54675, Note_on_c, 6, 54, 70
1, 54676, Pitch_bend_c, 3, 4512
1, 54677, Note_on_c, 4, 47, 0
1, 54677, Note_on_c, 9, 38, 27
1, 54678, Note_on_c, 9, 38, 0
1, 54678, Control_c, 3, 1, 0
1, 54679, Pitch_bend_c, 3, 6016
1, 54680, Note_on_c, 7, 66, 0
1, 54681, Note_on_c, 7, 74, 0
1, 54682, Note_on_c, 4, 54, 0
1, 54683, Pitch_bend_c, 3, 7584
1, 54684, Note_on_c, 3, 62, 0
1, 54684, Pitch_bend_c, 3, 8064
1, 54687, Pitch_bend_c, 3, 8192
1, 54702, Note_on_c, 1, 37, 0
1, 54703, Note_on_c, 0, 57, 0
1, 54705, Note_on_c, 0, 62, 0
1, 54710, Note_on_c, 0, 66, 0
1, 54717, Note_on_c, 6, 57, 0
1, 54718, Note_on_c, 6, 62, 0
1, 54719, Note_on_c, 6, 57, 115
1, 54720, Note_on_c, 6, 54, 0
1, 54720, Note_on_c, 1, 38, 127
1, 54720, Note_on_c, 6, 62, 111
1, 54720, Note_on_c, 6, 54, 112
1, 54720, Note_on_c, 9, 38, 52
1, 54721, Note_on_c, 9, 35, 110
1, 54723, Note_on_c, 9, 35, 0
1, 54724, Note_on_c, 9, 38, 0
1, 54724, Note_on_c, 4, 45, 127
1, 54761, Note_on_c, 6, 62, 0
1, 54763, Note_on_c, 6, 54, 0
1, 54764, Note_on_c, 6, 57, 0
1, 54768, Note_on_c, 6, 57, 90
1, 54769, Note_on_c, 6, 54, 86
1, 54769, Note_on_c, 6, 62, 85
1, 54770, Note_on_c, 4, 45, 0
1, 54773, Note_on_c, 9, 38, 47
1, 54774, Note_on_c, 9, 38, 0
1, 54798, Note_on_c, 1, 38, 0
1, 54813, Note_on_c, 6, 57, 0
1, 54814, Note_on_c, 6, 62, 0
1, 54815, Note_on_c, 6, 54, 0
1, 54816, Note_on_c, 1, 39, 127
1, 54816, Note_on_c, 6, 62, 108
1, 54816, Note_on_c, 6, 54, 113
1, 54816, Note_on_c, 6, 59, 116
1, 54817, Note_on_c, 0, 66, 117
1, 54817, Note_on_c, 9, 40, 96
1, 54817, Note_on_c, 9, 28, 92
1, 54818, Note_on_c, 9, 40, 0
1, 54818, Note_on_c, 0, 57, 117
1, 54819, Note_on_c, 9, 28, 0
1, 54819, Note_on_c, 0, 62, 117
1, 54820, Note_on_c, 4, 47, 127
1, 54823, Note_on_c, 4, 54, 127
1, 54831, Note_on_c, 6, 54, 0
1, 54833, Note_on_c, 6, 59, 0
1, 54838, Note_on_c, 6, 62, 0
1, 54847, Note_on_c, 0, 57, 0
1, 54850, Note_on_c, 0, 62, 0
1, 54856, Pitch_bend_c, 3, 8160
1, 54857, Note_on_c, 0, 66, 0
1, 54858, Pitch_bend_c, 3, 7808
1, 54863, Pitch_bend_c, 3, 7584
1, 54864, Note_on_c, 6, 57, 82
1, 54865, Note_on_c, 6, 62, 88
1, 54865, Note_on_c, 6, 54, 88
1, 54866, Pitch_bend_c, 3, 7296
1, 54867, Pitch_bend_c, 3, 6592
1, 54868, Note_on_c, 9, 38, 23
1, 54869, Note_on_c, 9, 38, 0
1, 54869, Note_on_c, 4, 47, 0
1, 54871, Note_on_c, 4, 54, 0
1, 54873, Pitch_bend_c, 3, 6208
1, 54875, Pitch_bend_c, 3, 5504
1, 54879, Pitch_bend_c, 3, 4832
1, 54880, Pitch_bend_c, 7, 8160
1, 54883, Pitch_bend_c, 7, 8032
1, 54885, Pitch_bend_c, 3, 4512
1, 54885, Pitch_bend_c, 7, 7840
1, 54886, Pitch_bend_c, 7, 7456
1, 54889, Pitch_bend_c, 3, 4288
1, 54890, Pitch_bend_c, 7, 7136
1, 54892, Pitch_bend_c, 7, 6720
1, 54893, Pitch_bend_c, 7, 6400
1, 54895, Pitch_bend_c, 3, 4192
1, 54897, Pitch_bend_c, 7, 6112
1, 54898, Pitch_bend_c, 3, 4160
1, 54899, Pitch_bend_c, 3, 4064
1, 54899, Pitch_bend_c, 7, 5824
1, 54902, Pitch_bend_c, 7, 5536
1, 54904, Pitch_bend_c, 7, 5280
1, 54905, Pitch_bend_c, 3, 4096
1, 54907, Pitch_bend_c, 3, 4288
1, 54907, Pitch_bend_c, 7, 4992
1, 54909, Note_on_c, 1, 39, 0
1, 54909, Pitch_bend_c, 7, 4832
1, 54910, Note_on_c, 6, 54, 0
1, 54911, Note_on_c, 6, 62, 0
1, 54912, Note_on_c, 6, 57, 0
1, 54912, Note_on_c, 1, 40, 127
1, 54912, Note_on_c, 3, 71, 127
1, 54913, Note_on_c, 7, 76, 127
1, 54913, Note_on_c, 9, 38, 43
1, 54914, Note_on_c, 7, 68, 127
1, 54914, Note_on_c, 9, 35, 111
1, 54915, Note_on_c, 6, 56, 109
1, 54916, Note_on_c, 9, 35, 0
1, 54916, Note_on_c, 9, 38, 0
1, 54916, Note_on_c, 6, 52, 112
1, 54917, Note_on_c, 6, 59, 107
1, 54918, Pitch_bend_c, 7, 4704
1, 54919, Pitch_bend_c, 7, 4576
1, 54920, Pitch_bend_c, 3, 4448
1, 54921, Note_on_c, 4, 52, 127
1, 54922, Pitch_bend_c, 7, 4544
1, 54923, Pitch_bend_c, 3, 6112
1, 54924, Pitch_bend_c, 7, 4512
1, 54925, Pitch_bend_c, 3, 6944
1, 54926, Pitch_bend_c, 7, 4544
1, 54927, Pitch_bend_c, 3, 8064
1, 54928, Pitch_bend_c, 7, 4576
1, 54929, Note_on_c, 6, 59, 0
1, 54929, Pitch_bend_c, 7, 4608
1, 54930, Pitch_bend_c, 3, 8192
1, 54931, Note_on_c, 6, 52, 0
1, 54933, Pitch_bend_c, 7, 4704
1, 54934, Note_on_c, 6, 56, 0
1, 54934, Pitch_bend_c, 7, 4800
1, 54937, Pitch_bend_c, 7, 4960
1, 54940, Pitch_bend_c, 7, 5184
1, 54942, Pitch_bend_c, 7, 5472
1, 54944, Pitch_bend_c, 7, 5856
1, 54947, Pitch_bend_c, 7, 6304
1, 54949, Pitch_bend_c, 7, 6816
1, 54951, Note_on_c, 7, 68, 0
1, 54951, Pitch_bend_c, 7, 7264
1, 54953, Note_on_c, 7, 76, 0
1, 54954, Pitch_bend_c, 7, 7712
1, 54955, Note_on_c, 3, 71, 0
1, 54956, Pitch_bend_c, 7, 8000
1, 54959, Note_on_c, 7, 68, 127
1, 54960, Note_on_c, 7, 76, 127
1, 54960, Pitch_bend_c, 7, 8160
1, 54961, Note_on_c, 4, 52, 0
1, 54962, Note_on_c, 3, 71, 127
1, 54962, Pitch_bend_c, 7, 8192
1, 54965, Note_on_c, 9, 38, 45
1, 54967, Note_on_c, 9, 38, 0
1, 55007, Note_on_c, 6, 59, 118
1, 55007, Note_on_c, 6, 56, 127
1, 55008, Note_on_c, 0, 68, 117
1, 55008, Note_on_c, 0, 59, 117
1, 55008, Note_on_c, 6, 52, 127
1, 55009, Note_on_c, 0, 64, 117
1, 55009, Note_on_c, 9, 40, 98
1, 55010, Note_on_c, 9, 40, 0
1, 55010, Note_on_c, 9, 28, 94
1, 55011, Note_on_c, 9, 28, 0
1, 55012, Note_on_c, 4, 49, 127
1, 55016, Note_on_c, 4, 56, 127
1, 55020, Note_on_c, 1, 40, 0
1, 55021, Note_on_c, 3, 71, 0
1, 55022, Note_on_c, 7, 76, 0
1, 55026, Note_on_c, 7, 68, 0
1, 55033, Note_on_c, 0, 59, 0
1, 55037, Note_on_c, 0, 64, 0
1, 55045, Note_on_c, 0, 68, 0
1, 55055, Note_on_c, 7, 68, 127
1, 55056, Note_on_c, 1, 40, 127
1, 55056, Note_on_c, 7, 76, 127
1, 55059, Note_on_c, 3, 71, 127
1, 55061, Note_on_c, 4, 49, 0
1, 55061, Note_on_c, 4, 56, 0
1, 55061, Note_on_c, 9, 38, 25
1, 55062, Note_on_c, 9, 38, 0
1, 55069, Note_on_c, 1, 40, 0
1, 55104, Note_on_c, 1, 35, 127
1, 55105, Note_on_c, 9, 38, 54
1, 55106, Note_on_c, 9, 35, 110
1, 55107, Note_on_c, 9, 35, 0
1, 55107, Note_on_c, 4, 47, 127
1, 55108, Note_on_c, 9, 38, 0
1, 55113, Note_on_c, 6, 52, 0
1, 55115, Note_on_c, 6, 56, 0
1, 55117, Note_on_c, 6, 59, 0
1, 55140, Note_on_c, 7, 76, 0
1, 55144, Note_on_c, 7, 68, 0
1, 55148, Note_on_c, 3, 71, 0
1, 55151, Note_on_c, 0, 68, 117
1, 55151, Note_on_c, 0, 64, 117
1, 55152, Note_on_c, 0, 59, 117
1, 55153, Note_on_c, 3, 71, 127
1, 55153, Note_on_c, 7, 68, 127
1, 55154, Note_on_c, 7, 76, 127
1, 55155, Note_on_c, 6, 56, 69
1, 55155, Note_on_c, 6, 52, 72
1, 55156, Note_on_c, 6, 59, 67
1, 55157, Note_on_c, 6, 56, 0
1, 55157, Note_on_c, 9, 38, 45
1, 55158, Note_on_c, 9, 38, 0
1, 55158, Note_on_c, 6, 59, 0
1, 55159, Note_on_c, 6, 52, 0
1, 55165, Note_on_c, 4, 47, 0
1, 55179, Note_on_c, 0, 59, 0
1, 55180, Note_on_c, 0, 64, 0
1, 55188, Note_on_c, 0, 68, 0
1, 55193, Pitch_bend_c, 3, 8317
1, 55195, Pitch_bend_c, 3, 8192
1, 55199, Note_on_c, 6, 56, 109
1, 55200, Note_on_c, 6, 52, 112
1, 55200, Note_on_c, 9, 40, 97
1, 55201, Note_on_c, 6, 59, 107
1, 55202, Note_on_c, 9, 40, 0
1, 55202, Note_on_c, 7, 76, 0
1, 55202, Note_on_c, 9, 28, 90
1, 55203, Note_on_c, 9, 28, 0
1, 55203, Note_on_c, 7, 68, 0
1, 55204, Note_on_c, 4, 49, 127
1, 55205, Note_on_c, 3, 71, 0
1, 55206, Note_on_c, 4, 56, 127
1, 55211, Note_on_c, 1, 35, 0
1, 55213, Note_on_c, 6, 59, 0
1, 55219, Note_on_c, 6, 52, 0
1, 55221, Note_on_c, 6, 56, 0
1, 55239, Note_on_c, 4, 49, 0
1, 55240, Note_on_c, 4, 56, 0
1, 55244, Pitch_bend_c, 3, 5041
1, 55244, Pitch_bend_c, 7, 4200
1, 55245, Pitch_bend_c, 3, 4620
1, 55246, Note_on_c, 7, 68, 127
1, 55247, Note_on_c, 1, 39, 127
1, 55247, Note_on_c, 7, 76, 127
1, 55250, Note_on_c, 3, 73, 124
1, 55253, Note_on_c, 9, 38, 25
1, 55254, Note_on_c, 9, 38, 0
1, 55257, Note_on_c, 4, 52, 127
1, 55258, Note_on_c, 4, 64, 127
1, 55270, Pitch_bend_c, 7, 3936
1, 55272, Pitch_bend_c, 7, 3840
1, 55275, Pitch_bend_c, 3, 4992
1, 55275, Pitch_bend_c, 7, 3808
1, 55279, Pitch_bend_c, 7, 3872
1, 55281, Pitch_bend_c, 3, 5152
1, 55284, Pitch_bend_c, 3, 6016
1, 55284, Pitch_bend_c, 7, 4000
1, 55285, Pitch_bend_c, 7, 4160
1, 55287, Note_on_c, 1, 39, 0
1, 55287, Pitch_bend_c, 7, 4384
1, 55289, Pitch_bend_c, 3, 6816
1, 55289, Pitch_bend_c, 7, 4576
1, 55290, Pitch_bend_c, 3, 7968
1, 55291, Pitch_bend_c, 7, 4832
1, 55293, Note_on_c, 4, 64, 0
1, 55294, Note_on_c, 4, 52, 0
1, 55294, Pitch_bend_c, 7, 5152
1, 55295, Note_on_c, 0, 68, 117
1, 55295, Note_on_c, 1, 40, 127
1, 55296, Note_on_c, 0, 59, 117
1, 55296, Note_on_c, 9, 38, 53
1, 55297, Note_on_c, 0, 64, 117
1, 55297, Note_on_c, 9, 35, 111
1, 55298, Note_on_c, 6, 52, 88
1, 55299, Note_on_c, 9, 35, 0
1, 55299, Note_on_c, 6, 59, 96
1, 55300, Note_on_c, 9, 38, 0
1, 55300, Pitch_bend_c, 3, 8192
1, 55301, Pitch_bend_c, 7, 5536
1, 55302, Pitch_bend_c, 7, 5952
1, 55303, Note_on_c, 4, 52, 127
1, 55304, Pitch_bend_c, 7, 6400
1, 55305, Pitch_bend_c, 7, 6880
1, 55306, Pitch_bend_c, 7, 7392
1, 55307, Pitch_bend_c, 7, 7808
1, 55311, Pitch_bend_c, 7, 8096
1, 55313, Pitch_bend_c, 7, 8192
1, 55324, Note_on_c, 0, 59, 0
1, 55325, Note_on_c, 0, 64, 0
1, 55331, Note_on_c, 0, 68, 0
1, 55339, Note_on_c, 7, 76, 0
1, 55339, Note_on_c, 4, 52, 0
1, 55341, Note_on_c, 6, 59, 0
1, 55341, Note_on_c, 7, 68, 0
1, 55342, Note_on_c, 6, 52, 0
1, 55344, Note_on_c, 6, 59, 58
1, 55344, Note_on_c, 6, 52, 63
1, 55349, Note_on_c, 9, 38, 42
1, 55350, Note_on_c, 9, 38, 0
1, 55351, Note_on_c, 4, 49, 127
1, 55353, Note_on_c, 3, 73, 0
1, 55354, Note_on_c, 4, 64, 127
1, 55383, Note_on_c, 4, 49, 0
1, 55387, Note_on_c, 6, 59, 0
1, 55388, Note_on_c, 4, 64, 0
1, 55390, Note_on_c, 6, 52, 0
1, 55390, Note_on_c, 6, 52, 126
1, 55391, Note_on_c, 6, 59, 127
1, 55391, Note_on_c, 6, 56, 126
1, 55393, Note_on_c, 7, 76, 127
1, 55393, Note_on_c, 7, 68, 124
1, 55393, Note_on_c, 9, 40, 97
1, 55394, Note_on_c, 9, 40, 0
1, 55394, Note_on_c, 3, 73, 122
1, 55394, Note_on_c, 9, 28, 91
1, 55395, Note_on_c, 9, 28, 0
1, 55395, Note_on_c, 4, 40, 127
1, 55400, Note_on_c, 6, 52, 0
1, 55400, Note_on_c, 6, 59, 0
1, 55400, Note_on_c, 6, 56, 0
1, 55401, Note_on_c, 1, 40, 0
1, 55438, Note_on_c, 0, 68, 117
1, 55439, Note_on_c, 0, 64, 117
1, 55439, Note_on_c, 1, 40, 119
1, 55440, Note_on_c, 0, 59, 117
1, 55441, Note_on_c, 6, 59, 71
1, 55441, Note_on_c, 9, 35, 68
1, 55442, Note_on_c, 6, 52, 63
1, 55443, Note_on_c, 9, 35, 0
1, 55443, Note_on_c, 4, 40, 0
1, 55444, Note_on_c, 7, 76, 0
1, 55445, Note_on_c, 7, 68, 0
1, 55445, Note_on_c, 9, 38, 27
1, 55446, Note_on_c, 9, 38, 0
1, 55449, Note_on_c, 3, 73, 0
1, 55455, Note_on_c, 1, 40, 0
1, 55464, Note_on_c, 0, 59, 0
1, 55470, Note_on_c, 0, 64, 0
1, 55471, Note_on_c, 0, 68, 0
1, 55485, Note_on_c, 6, 59, 0
1, 55485, Note_on_c, 6, 52, 0
1, 55486, Note_on_c, 6, 52, 88
1, 55487, Note_on_c, 6, 59, 96
1, 55488, Note_on_c, 1, 42, 126
1, 55488, Note_on_c, 3, 73, 124
1, 55489, Note_on_c, 7, 76, 127
1, 55489, Note_on_c, 9, 38, 52
1, 55490, Note_on_c, 7, 68, 127
1, 55490, Note_on_c, 9, 35, 110
1, 55491, Note_on_c, 9, 35, 0
1, 55491, Note_on_c, 9, 38, 0
1, 55491, Note_on_c, 4, 42, 127
1, 55531, Note_on_c, 6, 52, 0
1, 55532, Note_on_c, 7, 76, 0
1, 55532, Note_on_c, 6, 59, 0
1, 55535, Note_on_c, 3, 73, 0
1, 55536, Note_on_c, 6, 59, 71
1, 55537, Note_on_c, 6, 52, 63
1, 55538, Note_on_c, 7, 68, 0
1, 55538, Note_on_c, 4, 42, 0
1, 55541, Note_on_c, 9, 38, 47
1, 55542, Note_on_c, 9, 38, 0
1, 55552, Note_on_c, 1, 42, 0
1, 55581, Note_on_c, 7, 64, 124
1, 55582, Note_on_c, 6, 52, 0
1, 55583, Note_on_c, 6, 59, 0
1, 55583, Note_on_c, 6, 52, 126
1, 55584, Note_on_c, 1, 44, 127
1, 55584, Note_on_c, 6, 59, 127
1, 55585, Note_on_c, 6, 56, 126
1, 55585, Note_on_c, 9, 40, 96
1, 55586, Note_on_c, 0, 64, 117
1, 55586, Note_on_c, 9, 28, 92
1, 55587, Note_on_c, 9, 40, 0
1, 55587, Note_on_c, 0, 68, 117
1, 55588, Note_on_c, 9, 28, 0
1, 55588, Note_on_c, 0, 59, 117
1, 55589, Note_on_c, 7, 73, 127
1, 55590, Note_on_c, 3, 69, 127
1, 55591, Note_on_c, 4, 44, 127
1, 55592, Note_on_c, 6, 52, 0
1, 55593, Note_on_c, 6, 56, 0
1, 55593, Note_on_c, 6, 59, 0
1, 55614, Note_on_c, 0, 59, 0
1, 55621, Note_on_c, 7, 64, 0
1, 55622, Note_on_c, 7, 73, 0
1, 55624, Note_on_c, 0, 64, 0
1, 55625, Note_on_c, 0, 68, 0
1, 55628, Note_on_c, 3, 69, 0
1, 55631, Note_on_c, 7, 73, 83
1, 55632, Note_on_c, 6, 59, 71
1, 55633, Note_on_c, 6, 52, 63
1, 55633, Note_on_c, 7, 64, 73
1, 55634, Note_on_c, 3, 69, 122
1, 55637, Note_on_c, 4, 44, 0
1, 55637, Note_on_c, 9, 38, 23
1, 55638, Note_on_c, 9, 38, 0
1, 55648, Note_on_c, 7, 73, 0
1, 55648, Pitch_bend_c, 7, 8096
1, 55650, Note_on_c, 7, 64, 0
1, 55650, Pitch_bend_c, 7, 7840
1, 55653, Note_on_c, 1, 44, 0
1, 55653, Note_on_c, 3, 69, 0
1, 55653, Pitch_bend_c, 7, 7520
1, 55654, Pitch_bend_c, 7, 7136
1, 55657, Pitch_bend_c, 7, 6752
1, 55660, Pitch_bend_c, 7, 6432
1, 55663, Pitch_bend_c, 7, 6144
1, 55665, Pitch_bend_c, 7, 5984
1, 55668, Pitch_bend_c, 7, 5824
1, 55670, Pitch_bend_c, 7, 5696
1, 55672, Pitch_bend_c, 7, 5600
1, 55675, Pitch_bend_c, 7, 5536
1, 55677, Note_on_c, 7, 64, 127
1, 55678, Note_on_c, 6, 59, 0
1, 55678, Note_on_c, 6, 52, 0
1, 55679, Pitch_bend_c, 7, 5472
1, 55680, Note_on_c, 1, 45, 121
1, 55680, Note_on_c, 6, 45, 125
1, 55680, Pitch_bend_c, 7, 5408
1, 55681, Pitch_bend_c, 7, 5440
1, 55681, Note_on_c, 9, 38, 53
1, 55682, Note_on_c, 3, 69, 127
1, 55682, Note_on_c, 9, 35, 111
1, 55683, Note_on_c, 7, 73, 127
1, 55684, Note_on_c, 9, 35, 0
1, 55684, Note_on_c, 9, 38, 0
1, 55684, Note_on_c, 4, 45, 127
1, 55685, Pitch_bend_c, 7, 5376
1, 55692, Pitch_bend_c, 7, 5440
1, 55693, Pitch_bend_c, 7, 5536
1, 55697, Pitch_bend_c, 7, 5728
1, 55698, Pitch_bend_c, 7, 5984
1, 55701, Pitch_bend_c, 7, 6304
1, 55702, Pitch_bend_c, 7, 6720
1, 55705, Pitch_bend_c, 7, 7232
1, 55708, Pitch_bend_c, 7, 7616
1, 55709, Pitch_bend_c, 7, 7968
1, 55713, Pitch_bend_c, 7, 8160
1, 55715, Pitch_bend_c, 7, 8192
1, 55728, Note_on_c, 4, 45, 0
1, 55733, Note_on_c, 9, 38, 42
1, 55734, Note_on_c, 9, 38, 0
1, 55743, Note_on_c, 7, 64, 0
1, 55744, Note_on_c, 3, 69, 0
1, 55745, Note_on_c, 7, 73, 0
1, 55757, Note_on_c, 6, 45, 0
1, 55773, Note_on_c, 6, 52, 126
1, 55774, Note_on_c, 6, 57, 127
1, 55775, Note_on_c, 0, 64, 117
1, 55775, Note_on_c, 0, 61, 117
1, 55776, Note_on_c, 0, 57, 117
1, 55777, Note_on_c, 2, 57, 107
1, 55777, Note_on_c, 9, 40, 97
1, 55778, Note_on_c, 9, 40, 0
1, 55778, Note_on_c, 7, 64, 95
1, 55778, Note_on_c, 9, 28, 91
1, 55779, Note_on_c, 9, 28, 0
1, 55779, Note_on_c, 3, 69, 115
1, 55780, Note_on_c, 4, 42, 127
1, 55781, Note_on_c, 1, 45, 0
1, 55781, Note_on_c, 7, 73, 107
1, 55782, Note_on_c, 6, 52, 0
1, 55783, Note_on_c, 6, 57, 0
1, 55784, Note_on_c, 4, 49, 127
1, 55785, Note_on_c, 2, 57, 0
1, 55797, Note_on_c, 7, 73, 0
1, 55800, Note_on_c, 3, 69, 0
1, 55805, Note_on_c, 7, 64, 0
1, 55816, Note_on_c, 0, 57, 0
1, 55824, Note_on_c, 1, 45, 104
1, 55824, Note_on_c, 6, 52, 63
1, 55824, Note_on_c, 7, 73, 127
1, 55824, Note_on_c, 7, 64, 127
1, 55825, Note_on_c, 9, 35, 68
1, 55826, Note_on_c, 9, 35, 0
1, 55826, Note_on_c, 3, 69, 115
1, 55827, Note_on_c, 6, 57, 71
1, 55828, Note_on_c, 6, 52, 0
1, 55828, Note_on_c, 9, 38, 27
1, 55829, Note_on_c, 9, 38, 0
1, 55829, Note_on_c, 6, 57, 0
1, 55830, Note_on_c, 4, 49, 0
1, 55831, Note_on_c, 4, 42, 0
1, 55844, Note_on_c, 1, 45, 0
1, 55867, Note_on_c, 0, 64, 0
1, 55869, Note_on_c, 0, 61, 0
1, 55869, Note_on_c, 6, 52, 63
1, 55870, Note_on_c, 6, 57, 58
1, 55872, Note_on_c, 6, 57, 0
1, 55872, Note_on_c, 6, 52, 0
1, 55872, Note_on_c, 1, 43, 126
1, 55873, Note_on_c, 9, 38, 52
1, 55873, Note_on_c, 9, 35, 110
1, 55875, Note_on_c, 9, 35, 0
1, 55875, Note_on_c, 9, 38, 0
1, 55875, Note_on_c, 4, 40, 127
1, 55884, Control_c, 3, 1, 13
1, 55886, Control_c, 3, 1, 34
1, 55893, Control_c, 3, 1, 54
1, 55897, Control_c, 3, 1, 66
1, 55901, Control_c, 3, 1, 94
1, 55906, Control_c, 3, 1, 102
1, 55911, Control_c, 3, 1, 116
1, 55915, Control_c, 3, 1, 123
1, 55919, Note_on_c, 1, 43, 0
1, 55919, Note_on_c, 2, 57, 107
1, 55919, Note_on_c, 6, 52, 126
1, 55920, Note_on_c, 6, 57, 127
1, 55921, Control_c, 3, 1, 127
1, 55925, Note_on_c, 9, 38, 47
1, 55926, Note_on_c, 9, 38, 0
1, 55933, Note_on_c, 4, 40, 0
1, 55934, Control_c, 3, 1, 124
1, 55937, Note_on_c, 2, 57, 0
1, 55938, Note_on_c, 6, 57, 0
1, 55938, Control_c, 3, 1, 119
1, 55940, Note_on_c, 6, 52, 0
1, 55944, Control_c, 3, 1, 116
1, 55947, Control_c, 3, 1, 99
1, 55950, Control_c, 3, 1, 77
1, 55956, Control_c, 3, 1, 5
1, 55960, Control_c, 3, 1, 0
1, 55962, Note_on_c, 7, 64, 0
1, 55966, Note_on_c, 0, 57, 117
1, 55967, Note_on_c, 0, 66, 117
1, 55968, Note_on_c, 0, 62, 117
1, 55968, Note_on_c, 1, 42, 127
1, 55969, Note_on_c, 7, 73, 0
1, 55969, Note_on_c, 9, 40, 96
1, 55970, Note_on_c, 9, 40, 0
1, 55970, Note_on_c, 9, 28, 92
1, 55971, Note_on_c, 9, 28, 0
1, 55971, Note_on_c, 4, 42, 127
1, 55974, Note_on_c, 4, 49, 127
1, 55986, Note_on_c, 3, 69, 0
1, 55990, Note_on_c, 0, 57, 0
1, 55994, Note_on_c, 0, 62, 0
1, 56000, Note_on_c, 0, 66, 0
1, 56006, Note_on_c, 4, 42, 0
1, 56008, Note_on_c, 4, 49, 0
1, 56015, Note_on_c, 2, 57, 107
1, 56015, Note_on_c, 6, 52, 126
1, 56016, Note_on_c, 6, 57, 127
1, 56021, Note_on_c, 9, 38, 23
1, 56022, Note_on_c, 9, 38, 0
1, 56025, Note_on_c, 4, 45, 127
1, 56026, Note_on_c, 4, 57, 127
1, 56033, Note_on_c, 2, 57, 0
1, 56034, Note_on_c, 6, 57, 0
1, 56036, Note_on_c, 6, 52, 0
1, 56061, Note_on_c, 4, 57, 0
1, 56061, Note_on_c, 4, 45, 0
1, 56062, Note_on_c, 1, 42, 0
1, 56062, Note_on_c, 0, 64, 117
1, 56063, Note_on_c, 0, 57, 117
1, 56064, Note_on_c, 0, 61, 117
1, 56064, Note_on_c, 1, 33, 127
1, 56065, Note_on_c, 9, 38, 53
1, 56066, Note_on_c, 9, 35, 111
1, 56068, Note_on_c, 9, 35, 0
1, 56068, Note_on_c, 9, 38, 0
1, 56069, Note_on_c, 4, 45, 127
1, 56098, Note_on_c, 0, 57, 0
1, 56105, Note_on_c, 4, 45, 0
1, 56109, Note_on_c, 6, 55, 83
1, 56116, Note_on_c, 9, 38, 42
1, 56118, Note_on_c, 9, 38, 0
1, 56119, Note_on_c, 4, 42, 127
1, 56122, Note_on_c, 4, 57, 127
1, 56134, Note_on_c, 0, 64, 0
1, 56152, Note_on_c, 4, 42, 0
1, 56155, Note_on_c, 0, 61, 0
1, 56156, Note_on_c, 4, 57, 0
1, 56157, Note_on_c, 6, 55, 0
1, 56157, Note_on_c, 6, 55, 71
1, 56159, Note_on_c, 0, 57, 81
1, 56160, Note_on_c, 9, 40, 97
1, 56162, Note_on_c, 9, 40, 0
1, 56162, Note_on_c, 9, 28, 91
1, 56163, Note_on_c, 9, 28, 0
1, 56164, Note_on_c, 4, 42, 127
1, 56168, Note_on_c, 4, 49, 127
1, 56169, Note_on_c, 1, 33, 0
1, 56181, Note_on_c, 0, 57, 0
1, 56203, Note_on_c, 6, 55, 0
1, 56206, Note_on_c, 0, 66, 117
1, 56207, Note_on_c, 0, 62, 117
1, 56208, Note_on_c, 0, 57, 117
1, 56208, Note_on_c, 1, 33, 91
1, 56209, Note_on_c, 6, 55, 108
1, 56209, Note_on_c, 9, 35, 68
1, 56210, Note_on_c, 9, 35, 0
1, 56210, Note_on_c, 4, 42, 0
1, 56213, Note_on_c, 4, 49, 0
1, 56213, Note_on_c, 9, 38, 27
1, 56214, Note_on_c, 9, 38, 0
1, 56223, Note_on_c, 1, 33, 0
1, 56245, Note_on_c, 0, 62, 0
1, 56248, Note_on_c, 0, 57, 0
1, 56249, Note_on_c, 0, 66, 0
1, 56254, Note_on_c, 6, 55, 0
1, 56254, Note_on_c, 6, 54, 83
1, 56256, Note_on_c, 1, 40, 126
1, 56257, Note_on_c, 9, 38, 52
1, 56257, Note_on_c, 9, 35, 110
1, 56259, Note_on_c, 9, 35, 0
1, 56259, Note_on_c, 9, 38, 0
1, 56260, Note_on_c, 4, 43, 127
1, 56289, Note_on_c, 9, 38, 57
1, 56290, Note_on_c, 9, 38, 0
1, 56300, Note_on_c, 6, 54, 0
1, 56304, Note_on_c, 0, 64, 117
1, 56304, Note_on_c, 0, 61, 117
1, 56304, Note_on_c, 0, 57, 117
1, 56304, Note_on_c, 6, 55, 121
1, 56305, Note_on_c, 4, 43, 0
1, 56321, Note_on_c, 9, 38, 47
1, 56322, Note_on_c, 9, 38, 0
1, 56350, Note_on_c, 6, 55, 0
1, 56350, Note_on_c, 6, 54, 121
1, 56353, Note_on_c, 9, 40, 96
1, 56354, Note_on_c, 9, 40, 0
1, 56354, Note_on_c, 9, 28, 92
1, 56355, Note_on_c, 9, 28, 0
1, 56356, Note_on_c, 4, 42, 127
1, 56358, Note_on_c, 4, 49, 127
1, 56359, Note_on_c, 1, 40, 0
1, 56377, Note_on_c, 0, 57, 0
1, 56385, Note_on_c, 9, 38, 57
1, 56386, Note_on_c, 9, 38, 0
1, 56388, Note_on_c, 0, 64, 0
1, 56389, Note_on_c, 0, 61, 0
1, 56396, Note_on_c, 6, 54, 0
1, 56400, Note_on_c, 6, 55, 127
1, 56405, Note_on_c, 4, 42, 0
1, 56408, Note_on_c, 4, 49, 0
1, 56414, Pitch_bend_c, 3, 7520
1, 56417, Note_on_c, 9, 38, 63
1, 56418, Note_on_c, 9, 38, 0
1, 56418, Pitch_bend_c, 3, 7104
1, 56423, Pitch_bend_c, 3, 6688
1, 56424, Pitch_bend_c, 7, 8160
1, 56425, Pitch_bend_c, 3, 5792
1, 56428, Pitch_bend_c, 7, 7904
1, 56429, Pitch_bend_c, 3, 5312
1, 56429, Pitch_bend_c, 7, 7456
1, 56431, Pitch_bend_c, 7, 6848
1, 56433, Pitch_bend_c, 7, 6080
1, 56434, Pitch_bend_c, 3, 4352
1, 56435, Pitch_bend_c, 7, 5280
1, 56438, Pitch_bend_c, 3, 3936
1, 56439, Pitch_bend_c, 7, 4576
1, 56440, Pitch_bend_c, 3, 3584
1, 56442, Pitch_bend_c, 7, 4000
1, 56443, Pitch_bend_c, 7, 3584
1, 56445, Pitch_bend_c, 3, 2848
1, 56445, Pitch_bend_c, 7, 3296
1, 56446, Pitch_bend_c, 3, 2592
1, 56448, Note_on_c, 1, 45, 123
1, 56448, Note_on_c, 6, 52, 88
1, 56448, Note_on_c, 6, 57, 96
1, 56449, Pitch_bend_c, 7, 3232
1, 56449, Note_on_c, 9, 38, 43
1, 56450, Note_on_c, 6, 55, 0
1, 56450, Note_on_c, 9, 35, 111
1, 56451, Pitch_bend_c, 3, 8192
1, 56452, Note_on_c, 9, 35, 0
1, 56452, Note_on_c, 9, 38, 0
1, 56452, Note_on_c, 3, 76, 127
1, 56453, Note_on_c, 7, 73, 127
1, 56454, Pitch_bend_c, 7, 3296
1, 56455, Pitch_bend_c, 3, 2848
1, 56456, Note_on_c, 7, 69, 127
1, 56457, Note_on_c, 4, 45, 127
1, 56458, Pitch_bend_c, 7, 3584
1, 56459, Pitch_bend_c, 7, 4032
1, 56460, Pitch_bend_c, 3, 2880
1, 56461, Pitch_bend_c, 7, 4736
1, 56462, Pitch_bend_c, 3, 2976
1, 56463, Pitch_bend_c, 7, 5696
1, 56464, Pitch_bend_c, 3, 3392
1, 56465, Pitch_bend_c, 7, 6720
1, 56466, Pitch_bend_c, 7, 7520
1, 56467, Pitch_bend_c, 3, 3808
1, 56467, Pitch_bend_c, 7, 8032
1, 56468, Pitch_bend_c, 3, 4928
1, 56469, Pitch_bend_c, 7, 8192
1, 56472, Pitch_bend_c, 3, 5728
1, 56477, Pitch_bend_c, 3, 7904
1, 56482, Pitch_bend_c, 3, 8160
1, 56484, Pitch_bend_c, 3, 8192
1, 56493, Note_on_c, 6, 57, 0
1, 56494, Note_on_c, 6, 52, 0
1, 56496, Note_on_c, 6, 57, 58
1, 56496, Note_on_c, 6, 52, 63
1, 56497, Note_on_c, 4, 45, 0
1, 56500, Note_on_c, 9, 38, 45
1, 56501, Note_on_c, 9, 38, 0
1, 56542, Note_on_c, 6, 49, 126
1, 56543, Note_on_c, 6, 52, 0
1, 56543, Note_on_c, 6, 52, 113
1, 56544, Note_on_c, 6, 57, 0
1, 56544, Note_on_c, 6, 57, 127
1, 56544, Note_on_c, 9, 40, 98
1, 56546, Note_on_c, 0, 61, 117
1, 56546, Note_on_c, 9, 28, 94
1, 56547, Note_on_c, 9, 40, 0
1, 56547, Note_on_c, 0, 57, 117
1, 56548, Note_on_c, 9, 28, 0
1, 56548, Note_on_c, 0, 64, 117
1, 56548, Note_on_c, 4, 42, 127
1, 56551, Note_on_c, 4, 49, 127
1, 56552, Note_on_c, 6, 49, 0
1, 56553, Note_on_c, 6, 52, 0
1, 56554, Note_on_c, 1, 45, 0
1, 56557, Note_on_c, 6, 57, 0
1, 56570, Note_on_c, 0, 57, 0
1, 56575, Note_on_c, 0, 61, 0
1, 56576, Note_on_c, 0, 64, 0
1, 56578, Note_on_c, 7, 73, 0
1, 56592, Note_on_c, 6, 57, 71
1, 56592, Note_on_c, 6, 52, 63
1, 56594, Note_on_c, 7, 69, 0
1, 56596, Note_on_c, 9, 38, 25
1, 56597, Note_on_c, 4, 49, 0
1, 56598, Note_on_c, 4, 42, 0
1, 56598, Note_on_c, 9, 38, 0
1, 56601, Note_on_c, 3, 76, 0
1, 56637, Note_on_c, 6, 57, 0
1, 56637, Note_on_c, 6, 52, 0
1, 56637, Note_on_c, 6, 52, 101
1, 56638, Note_on_c, 6, 57, 96
1, 56639, Note_on_c, 1, 40, 127
1, 56639, Note_on_c, 3, 73, 127
1, 56641, Note_on_c, 7, 69, 127
1, 56641, Note_on_c, 9, 38, 54
1, 56641, Note_on_c, 9, 35, 110
1, 56643, Note_on_c, 9, 35, 0
1, 56643, Note_on_c, 9, 38, 0
1, 56643, Note_on_c, 4, 40, 127
1, 56644, Note_on_c, 7, 76, 127
1, 56683, Note_on_c, 6, 57, 0
1, 56684, Note_on_c, 6, 52, 0
1, 56687, Note_on_c, 6, 57, 71
1, 56688, Note_on_c, 6, 52, 63
1, 56692, Note_on_c, 9, 38, 45
1, 56694, Note_on_c, 9, 38, 0
1, 56701, Note_on_c, 4, 40, 0
1, 56712, Pitch_bend_c, 3, 8160
1, 56715, Pitch_bend_c, 3, 8064
1, 56717, Pitch_bend_c, 3, 8000
1, 56718, Pitch_bend_c, 3, 7808
1, 56724, Pitch_bend_c, 3, 7680
1, 56726, Pitch_bend_c, 3, 7520
1, 56731, Pitch_bend_c, 3, 7392
1, 56732, Pitch_bend_c, 3, 7168
1, 56734, Note_on_c, 6, 49, 126
1, 56735, Note_on_c, 6, 57, 0
1, 56735, Note_on_c, 6, 52, 0
1, 56735, Note_on_c, 6, 52, 126
1, 56735, Note_on_c, 6, 57, 127
1, 56737, Note_on_c, 0, 64, 117
1, 56737, Note_on_c, 0, 61, 117
1, 56737, Note_on_c, 9, 40, 97
1, 56738, Note_on_c, 9, 40, 0
1, 56738, Note_on_c, 0, 57, 117
1, 56738, Note_on_c, 9, 28, 90
1, 56739, Note_on_c, 9, 28, 0
1, 56740, Pitch_bend_c, 3, 6976
1, 56741, Note_on_c, 4, 42, 127
1, 56742, Pitch_bend_c, 3, 6720
1, 56743, Note_on_c, 4, 49, 127
1, 56744, Note_on_c, 6, 49, 0
1, 56745, Note_on_c, 6, 52, 0
1, 56746, Note_on_c, 1, 40, 0
1, 56746, Note_on_c, 6, 57, 0
1, 56746, Pitch_bend_c, 3, 6592
1, 56748, Pitch_bend_c, 3, 6464
1, 56751, Pitch_bend_c, 3, 6144
1, 56754, Pitch_bend_c, 3, 5888
1, 56759, Pitch_bend_c, 3, 5760
1, 56760, Note_on_c, 7, 76, 0
1, 56761, Pitch_bend_c, 3, 5504
1, 56763, Note_on_c, 0, 61, 0
1, 56763, Note_on_c, 0, 57, 0
1, 56767, Pitch_bend_c, 3, 5408
1, 56768, Note_on_c, 0, 64, 0
1, 56768, Note_on_c, 7, 69, 0
1, 56769, Pitch_bend_c, 3, 5280
1, 56772, Pitch_bend_c, 3, 5184
1, 56774, Note_on_c, 4, 42, 0
1, 56775, Note_on_c, 4, 49, 0
1, 56776, Pitch_bend_c, 3, 5152
1, 56779, Pitch_bend_c, 3, 5056
1, 56784, Note_on_c, 6, 57, 71
1, 56784, Note_on_c, 6, 52, 63
1, 56788, Pitch_bend_c, 3, 5120
1, 56789, Note_on_c, 9, 38, 25
1, 56790, Note_on_c, 9, 38, 0
1, 56790, Pitch_bend_c, 3, 5248
1, 56793, Note_on_c, 4, 45, 127
1, 56794, Note_on_c, 3, 73, 0
1, 56794, Pitch_bend_c, 3, 5760
1, 56795, Note_on_c, 4, 57, 127
1, 56798, Pitch_bend_c, 3, 6208
1, 56800, Pitch_bend_c, 3, 6816
1, 56803, Pitch_bend_c, 3, 7904
1, 56808, Pitch_bend_c, 3, 8192
1, 56816, Pitch_bend_c, 7, 8160
1, 56818, Pitch_bend_c, 7, 7904
1, 56821, Pitch_bend_c, 7, 7456
1, 56824, Pitch_bend_c, 7, 6848
1, 56826, Pitch_bend_c, 7, 6144
1, 56828, Pitch_bend_c, 7, 4736
1, 56829, Pitch_bend_c, 7, 5024
1, 56830, Pitch_bend_c, 7, 5472
1, 56831, Note_on_c, 4, 57, 0
1, 56831, Note_on_c, 6, 52, 0
1, 56831, Note_on_c, 6, 52, 88
1, 56832, Note_on_c, 6, 57, 0
1, 56832, Note_on_c, 1, 45, 124
1, 56832, Note_on_c, 6, 57, 96
1, 56833, Note_on_c, 7, 73, 127
1, 56833, Note_on_c, 9, 38, 53
1, 56834, Note_on_c, 9, 35, 111
1, 56835, Note_on_c, 4, 45, 0
1, 56836, Note_on_c, 9, 38, 0
1, 56836, Note_on_c, 9, 35, 0
1, 56836, Note_on_c, 3, 69, 127
1, 56838, Note_on_c, 7, 69, 127
1, 56839, Note_on_c, 4, 45, 127
1, 56840, Pitch_bend_c, 7, 4864
1, 56841, Pitch_bend_c, 7, 5248
1, 56842, Pitch_bend_c, 7, 5888
1, 56845, Pitch_bend_c, 7, 6752
1, 56847, Pitch_bend_c, 7, 7456
1, 56851, Pitch_bend_c, 7, 8000
1, 56852, Pitch_bend_c, 7, 8192
1, 56875, Note_on_c, 6, 57, 0
1, 56876, Note_on_c, 6, 52, 0
1, 56876, Note_on_c, 4, 45, 0
1, 56880, Note_on_c, 6, 57, 58
1, 56881, Note_on_c, 6, 52, 63
1, 56885, Note_on_c, 9, 38, 42
1, 56886, Note_on_c, 9, 38, 0
1, 56886, Note_on_c, 1, 45, 0
1, 56887, Note_on_c, 4, 42, 127
1, 56889, Note_on_c, 7, 69, 0
1, 56890, Note_on_c, 4, 57, 127
1, 56905, Note_on_c, 3, 69, 0
1, 56911, Note_on_c, 7, 73, 0
1, 56920, Note_on_c, 4, 42, 0
1, 56923, Note_on_c, 3, 69, 127
1, 56924, Note_on_c, 4, 57, 0
1, 56926, Note_on_c, 6, 49, 126
1, 56927, Note_on_c, 6, 52, 0
1, 56927, Note_on_c, 6, 52, 113
1, 56928, Note_on_c, 6, 57, 0
1, 56928, Note_on_c, 1, 33, 127
1, 56928, Note_on_c, 6, 57, 127
1, 56929, Note_on_c, 9, 40, 97
1, 56930, Note_on_c, 9, 40, 0
1, 56930, Note_on_c, 0, 64, 117
1, 56930, Note_on_c, 9, 28, 91
1, 56931, Note_on_c, 9, 28, 0
1, 56931, Note_on_c, 0, 57, 117
1, 56932, Note_on_c, 0, 61, 117
1, 56933, Note_on_c, 7, 69, 127
1, 56934, Note_on_c, 8, 45, 127
1, 56935, Note_on_c, 2, 45, 127
1, 56936, Note_on_c, 7, 73, 127
1, 56937, Note_on_c, 4, 42, 127
1, 56938, Note_on_c, 6, 49, 0
1, 56938, Note_on_c, 4, 49, 127
1, 56939, Note_on_c, 6, 52, 0
1, 56940, Note_on_c, 6, 57, 0
1, 56953, Note_on_c, 0, 61, 0
1, 56953, Note_on_c, 0, 57, 0
1, 56961, Note_on_c, 0, 64, 0
1, 56976, Note_on_c, 6, 57, 71
1, 56976, Note_on_c, 6, 52, 63
1, 56977, Note_on_c, 4, 42, 0
1, 56977, Note_on_c, 9, 35, 68
1, 56978, Note_on_c, 9, 35, 0
1, 56979, Note_on_c, 3, 69, 0
1, 56980, Note_on_c, 4, 49, 0
1, 56980, Note_on_c, 9, 38, 27
1, 56982, Note_on_c, 9, 38, 0
1, 56986, Control_c, 3, 1, 17
1, 56991, Control_c, 3, 1, 47
1, 56994, Note_on_c, 7, 73, 0
1, 56995, Note_on_c, 7, 69, 0
1, 56995, Control_c, 3, 1, 78
1, 56997, Note_on_c, 1, 33, 0
1, 56998, Control_c, 3, 1, 92
1, 57002, Control_c, 3, 1, 121
1, 57009, Control_c, 3, 1, 127
1, 57012, Note_on_c, 8, 45, 0
1, 57013, Note_on_c, 2, 45, 0
1, 57019, Control_c, 3, 1, 110
1, 57021, Note_on_c, 6, 57, 0
1, 57022, Note_on_c, 6, 52, 0
1, 57022, Note_on_c, 6, 52, 101
1, 57022, Note_on_c, 6, 57, 96
1, 57024, Note_on_c, 1, 35, 127
1, 57024, Control_c, 3, 1, 91
1, 57025, Note_on_c, 8, 47, 127
1, 57025, Note_on_c, 9, 38, 52
1, 57026, Note_on_c, 2, 47, 127
1, 57026, Note_on_c, 9, 35, 110
1, 57027, Control_c, 3, 1, 48
1, 57028, Note_on_c, 9, 35, 0
1, 57028, Note_on_c, 9, 38, 0
1, 57028, Note_on_c, 4, 43, 127
1, 57029, Control_c, 3, 1, 16
1, 57036, Control_c, 3, 1, 0
1, 57068, Note_on_c, 6, 57, 0
1, 57068, Note_on_c, 6, 52, 0
1, 57071, Note_on_c, 0, 64, 117
1, 57072, Note_on_c, 0, 61, 117
1, 57072, Note_on_c, 0, 57, 117
1, 57073, Note_on_c, 6, 57, 71
1, 57074, Note_on_c, 4, 43, 0
1, 57074, Note_on_c, 6, 52, 63
1, 57077, Note_on_c, 9, 38, 47
1, 57078, Note_on_c, 9, 38, 0
1, 57084, Note_on_c, 8, 47, 0
1, 57085, Note_on_c, 2, 47, 0
1, 57089, Note_on_c, 1, 35, 0
1, 57097, Note_on_c, 0, 57, 0
1, 57106, Note_on_c, 0, 61, 0
1, 57110, Note_on_c, 0, 64, 0
1, 57118, Note_on_c, 6, 52, 0
1, 57118, Note_on_c, 6, 49, 126
1, 57118, Note_on_c, 6, 52, 126
1, 57119, Note_on_c, 6, 57, 0
1, 57119, Note_on_c, 6, 57, 127
1, 57120, Note_on_c, 1, 37, 124
1, 57121, Note_on_c, 8, 49, 127
1, 57121, Note_on_c, 9, 40, 96
1, 57122, Note_on_c, 9, 40, 0
1, 57122, Note_on_c, 2, 49, 127
1, 57122, Note_on_c, 9, 28, 92
1, 57123, Note_on_c, 9, 28, 0
1, 57123, Note_on_c, 4, 42, 127
1, 57125, Note_on_c, 4, 49, 127
1, 57127, Note_on_c, 6, 49, 0
1, 57128, Note_on_c, 6, 52, 0
1, 57128, Note_on_c, 6, 57, 0
1, 57168, Note_on_c, 6, 57, 71
1, 57168, Note_on_c, 6, 52, 63
1, 57169, Note_on_c, 7, 69, 116
1, 57170, Note_on_c, 7, 73, 127
1, 57171, Note_on_c, 3, 69, 127
1, 57173, Note_on_c, 4, 42, 0
1, 57173, Note_on_c, 9, 38, 23
1, 57174, Note_on_c, 9, 38, 0
1, 57175, Note_on_c, 4, 49, 0
1, 57185, Note_on_c, 8, 49, 0
1, 57186, Note_on_c, 7, 73, 0
1, 57186, Note_on_c, 2, 49, 0
1, 57187, Note_on_c, 7, 69, 0
1, 57189, Pitch_bend_c, 7, 8128
1, 57191, Note_on_c, 1, 37, 0
1, 57193, Pitch_bend_c, 7, 8000
1, 57194, Note_on_c, 3, 69, 0
1, 57195, Pitch_bend_c, 7, 7808
1, 57197, Pitch_bend_c, 7, 7584
1, 57199, Pitch_bend_c, 7, 7296
1, 57201, Pitch_bend_c, 7, 6944
1, 57204, Pitch_bend_c, 7, 6656
1, 57206, Pitch_bend_c, 7, 6304
1, 57207, Pitch_bend_c, 3, 2432
1, 57209, Pitch_bend_c, 3, 2304
1, 57209, Pitch_bend_c, 7, 6016
1, 57211, Pitch_bend_c, 7, 5792
1, 57214, Note_on_c, 7, 74, 127
1, 57215, Note_on_c, 6, 57, 0
1, 57215, Pitch_bend_c, 7, 5568
1, 57216, Note_on_c, 0, 66, 117
1, 57216, Note_on_c, 1, 38, 126
1, 57217, Note_on_c, 0, 62, 117
1, 57217, Note_on_c, 9, 38, 43
1, 57218, Note_on_c, 0, 57, 117
1, 57218, Note_on_c, 9, 35, 111
1, 57219, Note_on_c, 7, 66, 127
1, 57220, Note_on_c, 9, 35, 0
1, 57220, Note_on_c, 9, 38, 0
1, 57220, Pitch_bend_c, 3, 2112
1, 57221, Note_on_c, 6, 57, 101
1, 57222, Note_on_c, 6, 54, 101
1, 57223, Note_on_c, 6, 62, 100
1, 57224, Pitch_bend_c, 7, 5376
1, 57225, Note_on_c, 6, 52, 0
1, 57226, Note_on_c, 3, 69, 127
1, 57227, Note_on_c, 8, 50, 127
1, 57228, Note_on_c, 2, 50, 127
1, 57229, Pitch_bend_c, 7, 5184
1, 57230, Pitch_bend_c, 3, 2048
1, 57231, Note_on_c, 4, 50, 127
1, 57232, Pitch_bend_c, 3, 2304
1, 57233, Pitch_bend_c, 7, 5088
1, 57234, Pitch_bend_c, 7, 5024
1, 57235, Pitch_bend_c, 3, 3232
1, 57235, Pitch_bend_c, 7, 4992
1, 57236, Pitch_bend_c, 7, 5152
1, 57237, Pitch_bend_c, 3, 3968
1, 57238, Pitch_bend_c, 3, 4928
1, 57238, Pitch_bend_c, 7, 5376
1, 57239, Pitch_bend_c, 3, 7168
1, 57239, Pitch_bend_c, 7, 5600
1, 57240, Pitch_bend_c, 7, 5952
1, 57241, Pitch_bend_c, 3, 7904
1, 57242, Pitch_bend_c, 3, 8192
1, 57242, Pitch_bend_c, 7, 6368
1, 57243, Pitch_bend_c, 7, 6816
1, 57244, Note_on_c, 0, 62, 0
1, 57244, Note_on_c, 0, 57, 0
1, 57245, Pitch_bend_c, 7, 7328
1, 57248, Pitch_bend_c, 7, 7744
1, 57249, Note_on_c, 0, 66, 0
1, 57249, Pitch_bend_c, 7, 8096
1, 57251, Pitch_bend_c, 7, 8192
1, 57262, Note_on_c, 6, 57, 0
1, 57262, Note_on_c, 6, 62, 0
1, 57264, Note_on_c, 6, 54, 0
1, 57264, Note_on_c, 6, 54, 84
1, 57264, Note_on_c, 6, 57, 87
1, 57265, Note_on_c, 6, 62, 84
1, 57266, Note_on_c, 4, 50, 0
1, 57269, Note_on_c, 9, 38, 45
1, 57270, Note_on_c, 9, 38, 0
1, 57276, Note_on_c, 3, 69, 0
1, 57281, Note_on_c, 8, 50, 0
1, 57282, Note_on_c, 2, 50, 0
1, 57288, Note_on_c, 7, 74, 0
1, 57288, Note_on_c, 7, 66, 0
1, 57309, Note_on_c, 6, 62, 0
1, 57310, Note_on_c, 6, 54, 0
1, 57310, Note_on_c, 6, 62, 110
1, 57310, Note_on_c, 6, 54, 115
1, 57311, Note_on_c, 6, 59, 118
1, 57312, Note_on_c, 6, 57, 0
1, 57313, Note_on_c, 7, 74, 127
1, 57313, Note_on_c, 7, 66, 127
1, 57313, Note_on_c, 9, 40, 98
1, 57313, Note_on_c, 9, 28, 94
1, 57314, Note_on_c, 9, 40, 0
1, 57315, Note_on_c, 9, 28, 0
1, 57315, Note_on_c, 3, 69, 121
1, 57316, Note_on_c, 4, 47, 127
1, 57319, Note_on_c, 4, 54, 127
1, 57321, Note_on_c, 1, 38, 0
1, 57329, Note_on_c, 6, 54, 0
1, 57332, Note_on_c, 6, 59, 0
1, 57337, Note_on_c, 6, 62, 0
1, 57358, Note_on_c, 0, 66, 117
1, 57359, Note_on_c, 0, 62, 117
1, 57359, Note_on_c, 1, 38, 107
1, 57360, Note_on_c, 0, 57, 117
1, 57361, Note_on_c, 7, 74, 0
1, 57362, Note_on_c, 6, 57, 96
1, 57363, Note_on_c, 6, 62, 82
1, 57363, Note_on_c, 6, 54, 70
1, 57364, Note_on_c, 7, 66, 0
1, 57365, Note_on_c, 4, 54, 0
1, 57365, Note_on_c, 9, 38, 25
1, 57366, Note_on_c, 9, 38, 0
1, 57366, Note_on_c, 4, 47, 0
1, 57372, Note_on_c, 1, 38, 0
1, 57390, Note_on_c, 0, 57, 0
1, 57390, Note_on_c, 0, 62, 0
1, 57395, Note_on_c, 0, 66, 0
1, 57401, Note_on_c, 3, 69, 0
1, 57405, Note_on_c, 6, 57, 0
1, 57405, Note_on_c, 6, 62, 0
1, 57406, Note_on_c, 6, 57, 115
1, 57407, Note_on_c, 1, 33, 127
1, 57407, Note_on_c, 6, 62, 111
1, 57408, Note_on_c, 6, 54, 0
1, 57408, Note_on_c, 6, 54, 112
1, 57409, Note_on_c, 9, 38, 54
1, 57410, Note_on_c, 7, 74, 127
1, 57410, Note_on_c, 9, 35, 110
1, 57411, Note_on_c, 9, 35, 0
1, 57411, Note_on_c, 3, 69, 127
1, 57412, Note_on_c, 9, 38, 0
1, 57412, Note_on_c, 7, 66, 127
1, 57413, Note_on_c, 4, 45, 127
1, 57449, Note_on_c, 6, 62, 0
1, 57451, Note_on_c, 6, 57, 0
1, 57451, Note_on_c, 6, 54, 0
1, 57456, Note_on_c, 6, 57, 90
1, 57457, Note_on_c, 6, 54, 86
1, 57457, Note_on_c, 6, 62, 85
1, 57459, Note_on_c, 3, 69, 0
1, 57460, Note_on_c, 7, 66, 0
1, 57460, Note_on_c, 9, 38, 45
1, 57462, Note_on_c, 9, 38, 0
1, 57465, Note_on_c, 1, 33, 0
1, 57465, Note_on_c, 7, 74, 0
1, 57469, Note_on_c, 4, 45, 0
1, 57501, Note_on_c, 6, 57, 0
1, 57502, Note_on_c, 6, 62, 0
1, 57502, Note_on_c, 6, 54, 0
1, 57503, Note_on_c, 6, 62, 108
1, 57504, Note_on_c, 1, 35, 124
1, 57504, Note_on_c, 6, 54, 113
1, 57505, Note_on_c, 6, 59, 116
1, 57505, Note_on_c, 9, 40, 97
1, 57505, Note_on_c, 9, 28, 90
1, 57506, Note_on_c, 9, 40, 0
1, 57506, Note_on_c, 7, 69, 125
1, 57507, Note_on_c, 9, 28, 0
1, 57507, Note_on_c, 0, 66, 117
1, 57508, Note_on_c, 0, 57, 117
1, 57509, Note_on_c, 0, 62, 117
1, 57510, Note_on_c, 7, 66, 125
1, 57511, Note_on_c, 3, 69, 108
1, 57512, Note_on_c, 4, 47, 127
1, 57512, Note_on_c, 4, 54, 127
1, 57519, Note_on_c, 6, 54, 0
1, 57521, Note_on_c, 6, 59, 0
1, 57526, Note_on_c, 6, 62, 0
1, 57532, Note_on_c, 0, 57, 0
1, 57534, Note_on_c, 7, 69, 0
1, 57535, Note_on_c, 0, 62, 0
1, 57536, Note_on_c, 0, 66, 0
1, 57538, Note_on_c, 7, 66, 0
1, 57542, Note_on_c, 4, 47, 0
1, 57543, Note_on_c, 4, 54, 0
1, 57549, Note_on_c, 3, 69, 0
1, 57550, Note_on_c, 7, 74, 127
1, 57552, Note_on_c, 3, 62, 127
1, 57553, Note_on_c, 6, 57, 82
1, 57553, Note_on_c, 6, 62, 88
1, 57554, Note_on_c, 6, 54, 88
1, 57554, Note_on_c, 7, 66, 110
1, 57556, Note_on_c, 9, 38, 25
1, 57558, Note_on_c, 9, 38, 0
1, 57560, Note_on_c, 1, 35, 0
1, 57560, Note_on_c, 4, 50, 127
1, 57563, Note_on_c, 4, 62, 127
1, 57597, Note_on_c, 6, 54, 0
1, 57598, Note_on_c, 6, 62, 0
1, 57599, Note_on_c, 4, 62, 0
1, 57600, Note_on_c, 6, 57, 0
1, 57600, Note_on_c, 4, 50, 0
1, 57600, Note_on_c, 1, 38, 127
1, 57601, Note_on_c, 6, 57, 101
1, 57601, Note_on_c, 9, 38, 53
1, 57602, Note_on_c, 6, 54, 101
1, 57602, Note_on_c, 9, 35, 111
1, 57603, Note_on_c, 6, 62, 100
1, 57604, Note_on_c, 9, 35, 0
1, 57604, Note_on_c, 9, 38, 0
1, 57605, Note_on_c, 4, 50, 127
1, 57643, Note_on_c, 4, 50, 0
1, 57644, Control_c, 3, 1, 2
1, 57645, Note_on_c, 6, 62, 0
1, 57646, Note_on_c, 6, 57, 0
1, 57647, Control_c, 3, 1, 34
1, 57648, Note_on_c, 6, 54, 0
1, 57648, Note_on_c, 6, 54, 84
1, 57648, Note_on_c, 6, 57, 87
1, 57649, Note_on_c, 6, 62, 84
1, 57652, Note_on_c, 9, 38, 42
1, 57653, Control_c, 3, 1, 47
1, 57654, Note_on_c, 9, 38, 0
1, 57655, Note_on_c, 4, 47, 127
1, 57657, Control_c, 3, 1, 65
1, 57658, Note_on_c, 4, 62, 127
1, 57661, Control_c, 3, 1, 75
1, 57667, Control_c, 3, 1, 79
1, 57669, Control_c, 3, 1, 86
1, 57673, Note_on_c, 1, 38, 0
1, 57673, Control_c, 3, 1, 95
1, 57678, Control_c, 3, 1, 108
1, 57682, Control_c, 3, 1, 121
1, 57684, Pitch_bend_c, 3, 8128
1, 57687, Control_c, 3, 1, 127
1, 57687, Pitch_bend_c, 3, 8032
1, 57688, Note_on_c, 4, 47, 0
1, 57689, Pitch_bend_c, 3, 7552
1, 57692, Note_on_c, 4, 62, 0
1, 57693, Note_on_c, 6, 62, 0
1, 57693, Note_on_c, 6, 62, 110
1, 57694, Note_on_c, 6, 54, 0
1, 57694, Note_on_c, 6, 54, 115
1, 57695, Note_on_c, 6, 59, 118
1, 57696, Note_on_c, 1, 37, 119
1, 57697, Note_on_c, 6, 57, 0
1, 57697, Note_on_c, 9, 40, 97
1, 57698, Note_on_c, 9, 40, 0
1, 57698, Pitch_bend_c, 3, 7232
1, 57698, Note_on_c, 9, 28, 91
1, 57699, Note_on_c, 9, 28, 0
1, 57699, Note_on_c, 0, 66, 117
1, 57700, Note_on_c, 0, 62, 117
1, 57701, Note_on_c, 0, 57, 117
1, 57702, Pitch_bend_c, 3, 6976
1, 57703, Pitch_bend_c, 3, 6432
1, 57704, Pitch_bend_c, 3, 5984
1, 57704, Note_on_c, 4, 47, 127
1, 57705, Note_on_c, 4, 54, 127
1, 57708, Pitch_bend_c, 3, 5728
1, 57711, Pitch_bend_c, 3, 5504
1, 57713, Note_on_c, 6, 54, 0
1, 57715, Pitch_bend_c, 3, 4928
1, 57716, Note_on_c, 6, 59, 0
1, 57717, Control_c, 3, 1, 121
1, 57718, Note_on_c, 0, 57, 0
1, 57718, Pitch_bend_c, 3, 4672
1, 57719, Control_c, 3, 1, 103
1, 57720, Pitch_bend_c, 3, 4160
1, 57721, Note_on_c, 6, 62, 0
1, 57724, Control_c, 3, 1, 80
1, 57725, Pitch_bend_c, 3, 3936
1, 57726, Note_on_c, 0, 62, 0
1, 57727, Note_on_c, 0, 66, 0
1, 57728, Control_c, 3, 1, 57
1, 57728, Pitch_bend_c, 3, 3552
1, 57732, Control_c, 3, 1, 45
1, 57733, Pitch_bend_c, 3, 3456
1, 57736, Control_c, 3, 1, 11
1, 57737, Pitch_bend_c, 3, 3680
1, 57742, Pitch_bend_c, 3, 4032
1, 57742, Control_c, 3, 1, 4
1, 57744, Note_on_c, 6, 57, 96
1, 57744, Note_on_c, 6, 62, 82
1, 57744, Note_on_c, 9, 35, 68
1, 57745, Note_on_c, 6, 54, 70
1, 57746, Note_on_c, 9, 35, 0
1, 57746, Note_on_c, 7, 74, 0
1, 57747, Pitch_bend_c, 3, 5152
1, 57748, Note_on_c, 4, 47, 0
1, 57749, Control_c, 3, 1, 0
1, 57749, Note_on_c, 9, 38, 27
1, 57750, Note_on_c, 9, 38, 0
1, 57750, Note_on_c, 4, 54, 0
1, 57751, Pitch_bend_c, 3, 6016
1, 57752, Note_on_c, 7, 66, 0
1, 57753, Pitch_bend_c, 3, 7584
1, 57754, Note_on_c, 3, 62, 0
1, 57756, Pitch_bend_c, 3, 8064
1, 57765, Note_on_c, 1, 37, 0
1, 57789, Note_on_c, 6, 57, 0
1, 57790, Note_on_c, 6, 62, 0
1, 57791, Note_on_c, 6, 57, 115
1, 57792, Note_on_c, 6, 54, 0
1, 57792, Note_on_c, 1, 38, 121
1, 57792, Note_on_c, 6, 62, 111
1, 57792, Note_on_c, 6, 54, 112
1, 57793, Note_on_c, 9, 38, 52
1, 57794, Note_on_c, 9, 35, 110
1, 57795, Note_on_c, 9, 35, 0
1, 57795, Note_on_c, 9, 38, 0
1, 57796, Note_on_c, 4, 45, 127
1, 57833, Note_on_c, 6, 62, 0
1, 57835, Note_on_c, 6, 54, 0
1, 57836, Note_on_c, 6, 57, 0
1, 57840, Note_on_c, 0, 66, 117
1, 57840, Note_on_c, 0, 57, 117
1, 57840, Note_on_c, 0, 62, 117
1, 57840, Note_on_c, 6, 57, 90
1, 57841, Note_on_c, 6, 54, 86
1, 57842, Note_on_c, 6, 62, 85
1, 57843, Note_on_c, 4, 45, 0
1, 57845, Note_on_c, 9, 38, 47
1, 57846, Note_on_c, 9, 38, 0
1, 57870, Note_on_c, 1, 38, 0
1, 57873, Note_on_c, 0, 57, 0
1, 57876, Note_on_c, 0, 62, 0
1, 57878, Note_on_c, 0, 66, 0
1, 57885, Note_on_c, 6, 57, 0
1, 57886, Note_on_c, 6, 54, 0
1, 57886, Note_on_c, 6, 62, 0
1, 57887, Note_on_c, 6, 62, 108
1, 57887, Note_on_c, 6, 54, 113
1, 57888, Note_on_c, 1, 39, 125
1, 57888, Note_on_c, 6, 59, 116
1, 57889, Note_on_c, 9, 40, 96
1, 57890, Note_on_c, 9, 40, 0
1, 57890, Note_on_c, 9, 28, 92
1, 57891, Note_on_c, 9, 28, 0
1, 57892, Note_on_c, 4, 47, 127
1, 57895, Note_on_c, 4, 54, 127
1, 57902, Note_on_c, 6, 54, 0
1, 57904, Note_on_c, 6, 59, 0
1, 57909, Note_on_c, 6, 62, 0
1, 57927, Pitch_bend_c, 7, 8128
1, 57928, Pitch_bend_c, 3, 8032
1, 57929, Pitch_bend_c, 7, 8096
1, 57931, Pitch_bend_c, 7, 7968
1, 57932, Pitch_bend_c, 3, 7808
1, 57933, Pitch_bend_c, 7, 7872
1, 57935, Pitch_bend_c, 3, 7584
1, 57936, Note_on_c, 6, 57, 82
1, 57936, Note_on_c, 6, 62, 88
1, 57937, Note_on_c, 6, 54, 88
1, 57938, Pitch_bend_c, 7, 7584
1, 57939, Pitch_bend_c, 3, 6944
1, 57941, Note_on_c, 4, 47, 0
1, 57941, Pitch_bend_c, 7, 7392
1, 57941, Note_on_c, 9, 38, 23
1, 57942, Note_on_c, 9, 38, 0
1, 57942, Pitch_bend_c, 3, 6592
1, 57943, Pitch_bend_c, 7, 7168
1, 57944, Note_on_c, 4, 54, 0
1, 57945, Pitch_bend_c, 3, 5856
1, 57946, Pitch_bend_c, 7, 6976
1, 57947, Pitch_bend_c, 7, 6752
1, 57949, Pitch_bend_c, 3, 5504
1, 57951, Pitch_bend_c, 3, 4832
1, 57951, Pitch_bend_c, 7, 6528
1, 57953, Pitch_bend_c, 7, 6304
1, 57955, Pitch_bend_c, 7, 6112
1, 57956, Pitch_bend_c, 7, 5888
1, 57957, Pitch_bend_c, 3, 4640
1, 57959, Pitch_bend_c, 3, 4416
1, 57960, Pitch_bend_c, 7, 5696
1, 57961, Pitch_bend_c, 7, 5536
1, 57963, Pitch_bend_c, 3, 4288
1, 57965, Pitch_bend_c, 7, 5408
1, 57967, Pitch_bend_c, 3, 4192
1, 57967, Pitch_bend_c, 7, 5280
1, 57969, Pitch_bend_c, 3, 4096
1, 57970, Pitch_bend_c, 7, 5184
1, 57972, Pitch_bend_c, 7, 5152
1, 57973, Pitch_bend_c, 3, 4064
1, 57974, Pitch_bend_c, 7, 5120
1, 57976, Pitch_bend_c, 7, 5088
1, 57977, Pitch_bend_c, 3, 4096
1, 57979, Note_on_c, 1, 39, 0
1, 57979, Pitch_bend_c, 3, 4288
1, 57981, Note_on_c, 6, 62, 0
1, 57981, Note_on_c, 6, 54, 0
1, 57982, Note_on_c, 7, 76, 127
1, 57983, Note_on_c, 6, 57, 0
1, 57984, Note_on_c, 0, 64, 117
1, 57984, Note_on_c, 1, 40, 127
1, 57985, Note_on_c, 0, 68, 117
1, 57985, Note_on_c, 9, 38, 43
1, 57986, Note_on_c, 0, 59, 117
1, 57986, Note_on_c, 9, 35, 111
1, 57987, Note_on_c, 3, 71, 127
1, 57988, Note_on_c, 9, 35, 0
1, 57988, Note_on_c, 9, 38, 0
1, 57988, Note_on_c, 6, 56, 109
1, 57989, Note_on_c, 6, 52, 112
1, 57990, Note_on_c, 6, 59, 107
1, 57991, Note_on_c, 7, 68, 127
1, 57992, Pitch_bend_c, 3, 4448
1, 57993, Pitch_bend_c, 7, 5120
1, 57994, Note_on_c, 4, 52, 127
1, 57995, Pitch_bend_c, 7, 5152
1, 57996, Pitch_bend_c, 3, 5376
1, 57997, Pitch_bend_c, 3, 6112
1, 57998, Pitch_bend_c, 7, 5248
1, 57999, Pitch_bend_c, 7, 5312
1, 58000, Pitch_bend_c, 3, 6944
1, 58000, Pitch_bend_c, 7, 5408
1, 58001, Pitch_bend_c, 3, 8064
1, 58002, Note_on_c, 6, 59, 0
1, 58002, Pitch_bend_c, 7, 5472
1, 58003, Pitch_bend_c, 7, 5600
1, 58004, Pitch_bend_c, 3, 8192
1, 58004, Pitch_bend_c, 7, 5696
1, 58005, Note_on_c, 6, 52, 0
1, 58006, Pitch_bend_c, 7, 5824
1, 58007, Note_on_c, 6, 56, 0
1, 58007, Pitch_bend_c, 7, 5952
1, 58009, Pitch_bend_c, 7, 6112
1, 58012, Pitch_bend_c, 7, 6368
1, 58014, Note_on_c, 0, 59, 0
1, 58015, Pitch_bend_c, 7, 6592
1, 58016, Pitch_bend_c, 7, 6976
1, 58018, Note_on_c, 0, 64, 0
1, 58019, Note_on_c, 0, 68, 0
1, 58020, Pitch_bend_c, 7, 7328
1, 58023, Pitch_bend_c, 7, 7712
1, 58025, Pitch_bend_c, 7, 8000
1, 58027, Pitch_bend_c, 7, 8160
1, 58029, Pitch_bend_c, 7, 8192
1, 58031, Note_on_c, 4, 52, 0
1, 58036, Note_on_c, 9, 38, 45
1, 58038, Note_on_c, 9, 38, 0
1, 58048, Note_on_c, 7, 68, 0
1, 58052, Note_on_c, 7, 76, 0
1, 58056, Note_on_c, 3, 71, 0
1, 58077, Note_on_c, 6, 59, 118
1, 58078, Note_on_c, 6, 56, 127
1, 58079, Note_on_c, 6, 52, 127
1, 58080, Note_on_c, 7, 76, 127
1, 58081, Note_on_c, 3, 71, 127
1, 58081, Note_on_c, 7, 68, 127
1, 58081, Note_on_c, 9, 40, 98
1, 58082, Note_on_c, 9, 40, 0
1, 58082, Note_on_c, 9, 28, 94
1, 58083, Note_on_c, 9, 28, 0
1, 58083, Note_on_c, 4, 49, 127
1, 58088, Note_on_c, 4, 56, 127
1, 58089, Note_on_c, 1, 40, 0
1, 58112, Note_on_c, 7, 76, 0
1, 58113, Note_on_c, 3, 71, 0
1, 58117, Note_on_c, 7, 68, 0
1, 58125, Note_on_c, 7, 68, 127
1, 58126, Note_on_c, 7, 76, 127
1, 58127, Note_on_c, 0, 68, 117
1, 58127, Note_on_c, 0, 64, 117
1, 58127, Note_on_c, 1, 40, 121
1, 58128, Note_on_c, 0, 59, 117
1, 58131, Note_on_c, 3, 71, 127
1, 58133, Note_on_c, 4, 49, 0
1, 58133, Note_on_c, 4, 56, 0
1, 58133, Note_on_c, 9, 38, 25
1, 58134, Note_on_c, 9, 38, 0
1, 58146, Note_on_c, 1, 40, 0
1, 58156, Note_on_c, 0, 59, 0
1, 58160, Note_on_c, 0, 64, 0
1, 58161, Note_on_c, 0, 68, 0
1, 58176, Note_on_c, 1, 35, 127
1, 58177, Note_on_c, 9, 38, 54
1, 58178, Note_on_c, 9, 35, 110
1, 58179, Note_on_c, 9, 35, 0
1, 58180, Note_on_c, 9, 38, 0
1, 58180, Note_on_c, 4, 47, 127
1, 58181, Note_on_c, 3, 71, 0
1, 58185, Note_on_c, 6, 52, 0
1, 58188, Note_on_c, 6, 56, 0
1, 58189, Note_on_c, 6, 59, 0
1, 58193, Note_on_c, 7, 68, 0
1, 58196, Note_on_c, 7, 76, 0
1, 58222, Note_on_c, 7, 68, 127
1, 58224, Note_on_c, 7, 76, 127
1, 58226, Note_on_c, 3, 71, 127
1, 58226, Note_on_c, 6, 56, 69
1, 58227, Note_on_c, 6, 52, 72
1, 58228, Note_on_c, 6, 59, 67
1, 58228, Note_on_c, 9, 38, 45
1, 58230, Note_on_c, 9, 38, 0
1, 58237, Note_on_c, 4, 47, 0
1, 58265, Pitch_bend_c, 3, 8317
1, 58267, Pitch_bend_c, 3, 8192
1, 58269, Note_on_c, 6, 59, 0
1, 58269, Note_on_c, 6, 56, 0
1, 58270, Note_on_c, 6, 52, 0
1, 58271, Note_on_c, 0, 68, 117
1, 58272, Note_on_c, 0, 64, 117
1, 58272, Note_on_c, 0, 59, 117
1, 58273, Note_on_c, 6, 56, 109
1, 58273, Note_on_c, 9, 40, 97
1, 58273, Note_on_c, 9, 28, 90
1, 58274, Note_on_c, 9, 40, 0
1, 58274, Note_on_c, 6, 52, 112
1, 58275, Note_on_c, 9, 28, 0
1, 58275, Note_on_c, 6, 59, 107
1, 58276, Note_on_c, 4, 49, 127
1, 58280, Note_on_c, 1, 35, 0
1, 58280, Note_on_c, 4, 56, 127
1, 58285, Note_on_c, 6, 59, 0
1, 58291, Note_on_c, 6, 52, 0
1, 58293, Note_on_c, 6, 56, 0
1, 58297, Note_on_c, 0, 59, 0
1, 58302, Note_on_c, 7, 76, 0
1, 58305, Note_on_c, 0, 64, 0
1, 58305, Note_on_c, 7, 68, 0
1, 58307, Note_on_c, 0, 68, 0
1, 58309, Note_on_c, 4, 49, 0
1, 58312, Note_on_c, 4, 56, 0
1, 58325, Note_on_c, 9, 38, 25
1, 58326, Note_on_c, 9, 38, 0
1, 58326, Note_on_c, 3, 71, 0
1, 58329, Note_on_c, 4, 52, 127
1, 58331, Note_on_c, 4, 64, 127
1, 58347, Pitch_bend_c, 7, 8160
1, 58350, Pitch_bend_c, 7, 8000
1, 58353, Pitch_bend_c, 7, 7680
1, 58354, Pitch_bend_c, 7, 7232
1, 58358, Pitch_bend_c, 7, 6816
1, 58359, Pitch_bend_c, 3, 2976
1, 58360, Pitch_bend_c, 7, 6368
1, 58361, Pitch_bend_c, 3, 2720
1, 58361, Pitch_bend_c, 7, 5984
1, 58364, Pitch_bend_c, 7, 5696
1, 58365, Note_on_c, 4, 64, 0
1, 58367, Note_on_c, 4, 52, 0
1, 58368, Note_on_c, 1, 40, 127
1, 58368, Note_on_c, 7, 68, 127
1, 58368, Pitch_bend_c, 7, 5440
1, 58369, Note_on_c, 6, 52, 88
1, 58369, Note_on_c, 9, 38, 53
1, 58370, Note_on_c, 6, 59, 96
1, 58370, Note_on_c, 9, 35, 111
1, 58371, Note_on_c, 7, 76, 127
1, 58372, Note_on_c, 9, 35, 0
1, 58372, Note_on_c, 9, 38, 0
1, 58372, Pitch_bend_c, 7, 5280
1, 58373, Note_on_c, 3, 73, 124
1, 58374, Pitch_bend_c, 7, 5120
1, 58375, Pitch_bend_c, 3, 3360
1, 58376, Note_on_c, 4, 52, 127
1, 58377, Pitch_bend_c, 7, 5024
1, 58378, Pitch_bend_c, 7, 4992
1, 58379, Pitch_bend_c, 3, 4416
1, 58380, Pitch_bend_c, 7, 5088
1, 58382, Pitch_bend_c, 3, 5856
1, 58383, Pitch_bend_c, 7, 5184
1, 58386, Pitch_bend_c, 7, 5408
1, 58388, Pitch_bend_c, 7, 5664
1, 58389, Pitch_bend_c, 3, 7904
1, 58390, Pitch_bend_c, 7, 5984
1, 58393, Pitch_bend_c, 3, 8160
1, 58393, Pitch_bend_c, 7, 6400
1, 58395, Pitch_bend_c, 3, 8192
1, 58395, Pitch_bend_c, 7, 6880
1, 58397, Pitch_bend_c, 7, 7424
1, 58400, Pitch_bend_c, 7, 7840
1, 58403, Pitch_bend_c, 7, 8128
1, 58405, Pitch_bend_c, 7, 8192
1, 58412, Note_on_c, 4, 52, 0
1, 58413, Note_on_c, 6, 59, 0
1, 58414, Note_on_c, 6, 52, 0
1, 58415, Note_on_c, 7, 76, 0
1, 58416, Note_on_c, 6, 59, 58
1, 58416, Note_on_c, 6, 52, 63
1, 58417, Note_on_c, 7, 68, 0
1, 58420, Note_on_c, 9, 38, 42
1, 58422, Note_on_c, 9, 38, 0
1, 58423, Note_on_c, 4, 49, 127
1, 58427, Note_on_c, 4, 64, 127
1, 58444, Note_on_c, 3, 73, 0
1, 58456, Note_on_c, 4, 49, 0
1, 58459, Note_on_c, 6, 59, 0
1, 58460, Note_on_c, 4, 64, 0
1, 58462, Note_on_c, 6, 52, 0
1, 58462, Note_on_c, 6, 52, 126
1, 58463, Note_on_c, 6, 59, 127
1, 58463, Note_on_c, 6, 56, 126
1, 58464, Note_on_c, 7, 68, 114
1, 58464, Note_on_c, 9, 40, 97
1, 58465, Note_on_c, 9, 28, 91
1, 58466, Note_on_c, 9, 40, 0
1, 58466, Note_on_c, 0, 68, 117
1, 58467, Note_on_c, 9, 28, 0
1, 58467, Note_on_c, 0, 59, 117
1, 58468, Note_on_c, 0, 64, 117
1, 58469, Note_on_c, 7, 76, 127
1, 58470, Note_on_c, 1, 40, 0
1, 58470, Note_on_c, 4, 40, 127
1, 58471, Note_on_c, 6, 52, 0
1, 58472, Note_on_c, 6, 56, 0
1, 58473, Note_on_c, 6, 59, 0
1, 58474, Note_on_c, 3, 73, 122
1, 58489, Note_on_c, 7, 68, 0
1, 58490, Note_on_c, 7, 76, 0
1, 58492, Note_on_c, 3, 73, 0
1, 58495, Note_on_c, 0, 59, 0
1, 58496, Note_on_c, 0, 64, 0
1, 58503, Note_on_c, 0, 68, 0
1, 58512, Note_on_c, 1, 40, 117
1, 58512, Note_on_c, 6, 59, 71
1, 58513, Note_on_c, 6, 52, 63
1, 58513, Note_on_c, 9, 35, 68
1, 58514, Note_on_c, 9, 35, 0
1, 58514, Note_on_c, 7, 68, 127
1, 58515, Note_on_c, 7, 76, 127
1, 58516, Note_on_c, 4, 40, 0
1, 58517, Note_on_c, 3, 73, 124
1, 58517, Note_on_c, 9, 38, 27
1, 58519, Note_on_c, 9, 38, 0
1, 58535, Note_on_c, 1, 40, 0
1, 58557, Note_on_c, 6, 52, 0
1, 58557, Note_on_c, 6, 59, 0
1, 58558, Note_on_c, 6, 52, 88
1, 58559, Note_on_c, 6, 59, 96
1, 58560, Note_on_c, 0, 68, 117
1, 58560, Note_on_c, 0, 64, 117
1, 58560, Note_on_c, 1, 42, 119
1, 58560, Note_on_c, 9, 38, 52
1, 58561, Note_on_c, 0, 59, 117
1, 58561, Note_on_c, 9, 35, 110
1, 58563, Note_on_c, 9, 35, 0
1, 58563, Note_on_c, 4, 42, 127
1, 58564, Note_on_c, 9, 38, 0
1, 58575, Note_on_c, 7, 76, 0
1, 58581, Note_on_c, 7, 68, 0
1, 58585, Note_on_c, 3, 73, 0
1, 58590, Note_on_c, 0, 59, 0
1, 58593, Note_on_c, 0, 64, 0
1, 58600, Note_on_c, 0, 68, 0
1, 58604, Note_on_c, 6, 52, 0
1, 58604, Note_on_c, 6, 59, 0
1, 58608, Note_on_c, 6, 59, 71
1, 58608, Note_on_c, 6, 52, 63
1, 58609, Note_on_c, 7, 68, 120
1, 58610, Note_on_c, 4, 42, 0
1, 58610, Note_on_c, 7, 73, 127
1, 58611, Note_on_c, 3, 69, 127
1, 58613, Note_on_c, 9, 38, 47
1, 58614, Note_on_c, 9, 38, 0
1, 58625, Note_on_c, 1, 42, 0
1, 58653, Note_on_c, 6, 52, 0
1, 58654, Note_on_c, 6, 59, 0
1, 58655, Note_on_c, 6, 52, 126
1, 58656, Note_on_c, 0, 68, 117
1, 58656, Note_on_c, 1, 44, 116
1, 58656, Note_on_c, 6, 59, 127
1, 58656, Note_on_c, 6, 56, 126
1, 58657, Note_on_c, 0, 59, 117
1, 58657, Note_on_c, 9, 40, 96
1, 58658, Note_on_c, 9, 40, 0
1, 58658, Note_on_c, 0, 64, 117
1, 58658, Note_on_c, 9, 28, 92
1, 58659, Note_on_c, 9, 28, 0
1, 58659, Note_on_c, 3, 69, 0
1, 58660, Note_on_c, 4, 44, 127
1, 58662, Note_on_c, 6, 52, 0
1, 58663, Note_on_c, 6, 56, 0
1, 58664, Note_on_c, 6, 59, 0
1, 58666, Note_on_c, 7, 68, 0
1, 58666, Note_on_c, 7, 73, 0
1, 58686, Pitch_bend_c, 7, 8128
1, 58688, Pitch_bend_c, 7, 8000
1, 58690, Pitch_bend_c, 7, 5461
1, 58691, Note_on_c, 0, 64, 0
1, 58693, Note_on_c, 0, 59, 0
1, 58695, Note_on_c, 0, 68, 0
1, 58697, Pitch_bend_c, 7, 5041
1, 58701, Note_on_c, 7, 64, 122
1, 58702, Note_on_c, 7, 69, 127
1, 58704, Note_on_c, 6, 59, 71
1, 58704, Note_on_c, 6, 52, 63
1, 58706, Note_on_c, 3, 69, 127
1, 58709, Note_on_c, 4, 44, 0
1, 58709, Note_on_c, 9, 38, 23
1, 58710, Note_on_c, 9, 38, 0
1, 58713, Note_on_c, 1, 44, 0
1, 58721, Pitch_bend_c, 7, 4960
1, 58726, Pitch_bend_c, 7, 5088
1, 58728, Pitch_bend_c, 7, 5248
1, 58731, Pitch_bend_c, 7, 5536
1, 58734, Pitch_bend_c, 7, 5984
1, 58736, Pitch_bend_c, 7, 6528
1, 58738, Pitch_bend_c, 7, 7136
1, 58741, Pitch_bend_c, 7, 7680
1, 58744, Pitch_bend_c, 7, 8032
1, 58746, Pitch_bend_c, 7, 8192
1, 58749, Note_on_c, 6, 59, 0
1, 58749, Note_on_c, 6, 52, 0
1, 58751, Note_on_c, 1, 45, 124
1, 58751, Note_on_c, 6, 45, 125
1, 58753, Note_on_c, 9, 38, 43
1, 58754, Note_on_c, 9, 35, 111
1, 58755, Note_on_c, 4, 45, 127
1, 58756, Note_on_c, 9, 35, 0
1, 58756, Note_on_c, 9, 38, 0
1, 58793, Note_on_c, 7, 64, 0
1, 58793, Note_on_c, 7, 69, 0
1, 58800, Note_on_c, 4, 45, 0
1, 58804, Note_on_c, 9, 38, 45
1, 58805, Note_on_c, 9, 38, 0
1, 58819, Note_on_c, 3, 69, 0
1, 58832, Note_on_c, 6, 45, 0
1, 58845, Note_on_c, 6, 52, 102
1, 58846, Note_on_c, 6, 57, 121
1, 58846, Note_on_c, 7, 64, 122
1, 58847, Note_on_c, 0, 57, 117
1, 58848, Note_on_c, 0, 61, 117
1, 58849, Note_on_c, 0, 64, 117
1, 58849, Note_on_c, 9, 40, 98
1, 58850, Note_on_c, 9, 40, 0
1, 58850, Note_on_c, 2, 57, 111
1, 58850, Note_on_c, 9, 28, 94
1, 58851, Note_on_c, 9, 28, 0
1, 58851, Note_on_c, 7, 69, 127
1, 58852, Note_on_c, 3, 69, 115
1, 58853, Note_on_c, 4, 42, 127
1, 58854, Note_on_c, 1, 45, 0
1, 58856, Note_on_c, 4, 49, 127
1, 58865, Note_on_c, 2, 57, 0
1, 58887, Note_on_c, 0, 57, 0
1, 58889, Note_on_c, 0, 64, 0
1, 58894, Note_on_c, 0, 61, 0
1, 58901, Note_on_c, 7, 64, 0
1, 58901, Note_on_c, 9, 38, 25
1, 58902, Note_on_c, 9, 38, 0
1, 58902, Note_on_c, 4, 49, 0
1, 58903, Note_on_c, 3, 69, 0
1, 58904, Note_on_c, 7, 69, 0
1, 58905, Note_on_c, 4, 42, 0
1, 58944, Note_on_c, 1, 40, 127
1, 58945, Note_on_c, 9, 38, 54
1, 58945, Note_on_c, 9, 35, 110
1, 58947, Note_on_c, 9, 35, 0
1, 58947, Note_on_c, 9, 38, 0
1, 58948, Note_on_c, 4, 40, 127
1, 58949, Note_on_c, 6, 52, 0
1, 58954, Note_on_c, 6, 57, 0
1, 58956, Control_c, 3, 1, 6
1, 58957, Control_c, 3, 1, 23
1, 58963, Control_c, 3, 1, 44
1, 58966, Control_c, 3, 1, 66
1, 58973, Control_c, 3, 1, 76
1, 58974, Control_c, 3, 1, 94
1, 58978, Control_c, 3, 1, 110
1, 58985, Control_c, 3, 1, 120
1, 58989, Control_c, 3, 1, 123
1, 58991, Note_on_c, 0, 62, 117
1, 58992, Note_on_c, 0, 66, 117
1, 58992, Note_on_c, 0, 57, 117
1, 58992, Note_on_c, 2, 55, 117
1, 58993, Note_on_c, 6, 52, 126
1, 58994, Note_on_c, 6, 55, 127
1, 58995, Control_c, 3, 1, 127
1, 58997, Note_on_c, 9, 38, 45
1, 58998, Note_on_c, 9, 38, 0
1, 59005, Note_on_c, 4, 40, 0
1, 59006, Control_c, 3, 1, 124
1, 59009, Note_on_c, 2, 55, 0
1, 59010, Note_on_c, 6, 55, 0
1, 59010, Control_c, 3, 1, 119
1, 59012, Note_on_c, 6, 52, 0
1, 59016, Control_c, 3, 1, 110
1, 59019, Control_c, 3, 1, 77
1, 59021, Note_on_c, 0, 57, 0
1, 59028, Note_on_c, 0, 66, 0
1, 59028, Control_c, 3, 1, 24
1, 59029, Note_on_c, 0, 62, 0
1, 59029, Control_c, 3, 1, 0
1, 59041, Note_on_c, 9, 40, 97
1, 59042, Note_on_c, 9, 40, 0
1, 59042, Note_on_c, 9, 28, 90
1, 59043, Note_on_c, 9, 28, 0
1, 59044, Note_on_c, 4, 42, 127
1, 59046, Note_on_c, 1, 40, 0
1, 59047, Note_on_c, 4, 49, 127
1, 59078, Note_on_c, 4, 42, 0
1, 59080, Note_on_c, 4, 49, 0
1, 59087, Note_on_c, 2, 57, 117
1, 59088, Note_on_c, 6, 52, 126
1, 59088, Note_on_c, 6, 57, 127
1, 59093, Note_on_c, 9, 38, 25
1, 59094, Note_on_c, 9, 38, 0
1, 59097, Note_on_c, 4, 45, 127
1, 59099, Note_on_c, 4, 57, 127
1, 59100, Note_on_c, 2, 57, 0
1, 59101, Note_on_c, 6, 57, 0
1, 59102, Note_on_c, 6, 52, 0
1, 59133, Note_on_c, 4, 57, 0
1, 59133, Note_on_c, 4, 45, 0
1, 59135, Note_on_c, 0, 64, 117
1, 59135, Note_on_c, 0, 61, 117
1, 59136, Note_on_c, 0, 57, 117
1, 59136, Note_on_c, 1, 33, 127
1, 59137, Note_on_c, 9, 38, 53
1, 59138, Note_on_c, 9, 35, 111
1, 59140, Note_on_c, 9, 35, 0
1, 59141, Note_on_c, 9, 38, 0
1, 59142, Note_on_c, 4, 45, 127
1, 59171, Note_on_c, 0, 61, 0
1, 59172, Note_on_c, 0, 57, 0
1, 59173, Note_on_c, 0, 64, 0
1, 59180, Note_on_c, 4, 45, 0
1, 59184, Note_on_c, 6, 55, 96
1, 59189, Note_on_c, 9, 38, 42
1, 59190, Note_on_c, 9, 38, 0
1, 59192, Note_on_c, 4, 42, 127
1, 59194, Note_on_c, 4, 57, 127
1, 59224, Note_on_c, 4, 42, 0
1, 59228, Note_on_c, 4, 57, 0
1, 59230, Note_on_c, 6, 55, 0
1, 59230, Note_on_c, 6, 55, 83
1, 59233, Note_on_c, 9, 40, 97
1, 59234, Note_on_c, 9, 40, 0
1, 59234, Note_on_c, 9, 28, 91
1, 59235, Note_on_c, 9, 28, 0
1, 59236, Note_on_c, 4, 42, 127
1, 59240, Note_on_c, 4, 49, 127
1, 59241, Note_on_c, 1, 33, 0
1, 59275, Note_on_c, 6, 55, 0
1, 59279, Note_on_c, 0, 62, 117
1, 59279, Note_on_c, 0, 66, 117
1, 59280, Note_on_c, 0, 57, 117
1, 59280, Note_on_c, 1, 33, 91
1, 59281, Note_on_c, 6, 55, 121
1, 59281, Note_on_c, 9, 35, 68
1, 59282, Note_on_c, 9, 35, 0
1, 59282, Note_on_c, 4, 42, 0
1, 59284, Note_on_c, 4, 49, 0
1, 59284, Note_on_c, 9, 38, 27
1, 59286, Note_on_c, 9, 38, 0
1, 59294, Note_on_c, 1, 33, 0
1, 59312, Note_on_c, 0, 57, 0
1, 59316, Note_on_c, 0, 62, 0
1, 59321, Note_on_c, 0, 66, 0
1, 59326, Note_on_c, 6, 55, 0
1, 59326, Note_on_c, 6, 54, 96
1, 59328, Note_on_c, 1, 40, 126
1, 59329, Note_on_c, 9, 38, 52
1, 59330, Note_on_c, 9, 35, 110
1, 59331, Note_on_c, 9, 35, 0
1, 59331, Note_on_c, 9, 38, 0
1, 59331, Note_on_c, 4, 43, 127
1, 59372, Note_on_c, 6, 54, 0
1, 59375, Note_on_c, 0, 64, 117
1, 59376, Note_on_c, 0, 57, 117
1, 59376, Note_on_c, 0, 61, 117
1, 59377, Note_on_c, 4, 43, 0
1, 59377, Note_on_c, 6, 55, 127
1, 59381, Note_on_c, 9, 38, 47
1, 59382, Note_on_c, 9, 38, 0
1, 59401, Note_on_c, 9, 38, 57
1, 59402, Note_on_c, 9, 38, 0
1, 59421, Note_on_c, 6, 55, 0
1, 59421, Note_on_c, 6, 54, 127
1, 59425, Note_on_c, 4, 42, 127
1, 59425, Note_on_c, 9, 40, 96
1, 59425, Note_on_c, 9, 28, 92
1, 59426, Note_on_c, 9, 40, 0
1, 59426, Note_on_c, 4, 49, 127
1, 59427, Note_on_c, 9, 28, 0
1, 59431, Note_on_c, 1, 40, 0
1, 59468, Note_on_c, 6, 54, 0
1, 59471, Note_on_c, 6, 55, 127
1, 59472, Note_on_c, 0, 57, 0
1, 59475, Note_on_c, 0, 64, 0
1, 59477, Note_on_c, 4, 42, 0
1, 59477, Pitch_bend_c, 7, 8160
1, 59477, Note_on_c, 9, 38, 23
1, 59478, Note_on_c, 9, 38, 0
1, 59478, Pitch_bend_c, 7, 8128
1, 59479, Note_on_c, 4, 49, 0
1, 59481, Pitch_bend_c, 7, 8032
1, 59484, Note_on_c, 0, 61, 0
1, 59484, Pitch_bend_c, 7, 8000
1, 59486, Pitch_bend_c, 3, 8064
1, 59486, Pitch_bend_c, 7, 7872
1, 59487, Pitch_bend_c, 3, 7520
1, 59489, Pitch_bend_c, 7, 7808
1, 59491, Pitch_bend_c, 3, 7104
1, 59491, Pitch_bend_c, 7, 7680
1, 59494, Pitch_bend_c, 7, 7520
1, 59495, Pitch_bend_c, 3, 6240
1, 59496, Pitch_bend_c, 7, 7296
1, 59497, Pitch_bend_c, 7, 7040
1, 59499, Pitch_bend_c, 3, 5792
1, 59500, Pitch_bend_c, 7, 6816
1, 59501, Pitch_bend_c, 3, 5312
1, 59503, Pitch_bend_c, 7, 6560
1, 59505, Pitch_bend_c, 7, 6368
1, 59507, Pitch_bend_c, 3, 4352
1, 59508, Pitch_bend_c, 7, 6144
1, 59510, Pitch_bend_c, 3, 3584
1, 59510, Pitch_bend_c, 7, 5984
1, 59513, Pitch_bend_c, 7, 5792
1, 59514, Pitch_bend_c, 7, 5600
1, 59517, Pitch_bend_c, 3, 2592
1, 59518, Pitch_bend_c, 7, 5440
1, 59519, Note_on_c, 7, 69, 127
1, 59519, Note_on_c, 7, 73, 127
1, 59520, Note_on_c, 1, 33, 121
1, 59520, Pitch_bend_c, 7, 5312
1, 59521, Note_on_c, 6, 52, 88
1, 59521, Note_on_c, 9, 38, 43
1, 59522, Note_on_c, 6, 57, 96
1, 59522, Note_on_c, 9, 35, 111
1, 59523, Note_on_c, 6, 55, 0
1, 59524, Note_on_c, 9, 35, 0
1, 59524, Note_on_c, 9, 38, 0
1, 59524, Pitch_bend_c, 3, 2848
1, 59525, Note_on_c, 3, 76, 127
1, 59526, Pitch_bend_c, 7, 5248
1, 59527, Note_on_c, 4, 45, 127
1, 59528, Pitch_bend_c, 7, 5184
1, 59529, Pitch_bend_c, 3, 2880
1, 59530, Pitch_bend_c, 3, 2976
1, 59534, Pitch_bend_c, 3, 3392
1, 59534, Pitch_bend_c, 7, 5248
1, 59536, Pitch_bend_c, 7, 5280
1, 59538, Pitch_bend_c, 3, 3808
1, 59539, Pitch_bend_c, 7, 5312
1, 59540, Pitch_bend_c, 3, 4928
1, 59542, Pitch_bend_c, 7, 5408
1, 59544, Pitch_bend_c, 3, 5728
1, 59546, Pitch_bend_c, 7, 5440
1, 59548, Pitch_bend_c, 7, 5536
1, 59551, Pitch_bend_c, 3, 7328
1, 59552, Pitch_bend_c, 3, 7904
1, 59552, Pitch_bend_c, 7, 5664
1, 59553, Pitch_bend_c, 7, 5792
1, 59554, Pitch_bend_c, 3, 8160
1, 59555, Pitch_bend_c, 7, 6016
1, 59556, Pitch_bend_c, 3, 8192
1, 59557, Pitch_bend_c, 7, 6304
1, 59559, Pitch_bend_c, 7, 6688
1, 59561, Pitch_bend_c, 7, 7104
1, 59565, Note_on_c, 6, 57, 0
1, 59565, Pitch_bend_c, 7, 7552
1, 59566, Note_on_c, 6, 52, 0
1, 59567, Pitch_bend_c, 7, 7904
1, 59568, Note_on_c, 6, 57, 58
1, 59569, Note_on_c, 4, 45, 0
1, 59569, Note_on_c, 6, 52, 63
1, 59570, Pitch_bend_c, 7, 8128
1, 59572, Pitch_bend_c, 7, 8192
1, 59572, Note_on_c, 9, 38, 45
1, 59573, Note_on_c, 9, 38, 0
1, 59614, Note_on_c, 6, 52, 0
1, 59614, Note_on_c, 6, 49, 126
1, 59614, Note_on_c, 6, 52, 113
1, 59615, Note_on_c, 6, 57, 0
1, 59615, Note_on_c, 6, 57, 127
1, 59616, Note_on_c, 9, 40, 98
1, 59617, Note_on_c, 0, 62, 117
1, 59617, Note_on_c, 9, 28, 94
1, 59618, Note_on_c, 9, 40, 0
1, 59618, Note_on_c, 0, 57, 117
1, 59619, Note_on_c, 9, 28, 0
1, 59619, Note_on_c, 0, 66, 117
1, 59620, Note_on_c, 4, 42, 127
1, 59624, Note_on_c, 1, 33, 0
1, 59624, Note_on_c, 6, 49, 0
1, 59624, Note_on_c, 4, 49, 127
1, 59625, Note_on_c, 6, 52, 0
1, 59628, Note_on_c, 6, 57, 0
1, 59644, Note_on_c, 0, 57, 0
1, 59645, Note_on_c, 0, 66, 0
1, 59648, Note_on_c, 0, 62, 0
1, 59664, Note_on_c, 1, 33, 91
1, 59664, Note_on_c, 6, 57, 71
1, 59664, Note_on_c, 6, 52, 63
1, 59665, Note_on_c, 7, 73, 0
1, 59668, Note_on_c, 7, 69, 0
1, 59668, Note_on_c, 9, 38, 25
1, 59669, Note_on_c, 4, 49, 0
1, 59670, Note_on_c, 4, 42, 0
1, 59670, Note_on_c, 9, 38, 0
1, 59673, Note_on_c, 3, 76, 0
1, 59679, Note_on_c, 1, 33, 0
1, 59709, Note_on_c, 6, 57, 0
1, 59709, Note_on_c, 6, 52, 0
1, 59709, Note_on_c, 6, 52, 101
1, 59710, Note_on_c, 6, 57, 96
1, 59711, Note_on_c, 7, 73, 127
1, 59712, Note_on_c, 1, 40, 127
1, 59712, Note_on_c, 3, 73, 127
1, 59713, Note_on_c, 7, 69, 127
1, 59713, Note_on_c, 9, 38, 54
1, 59714, Note_on_c, 9, 35, 110
1, 59715, Note_on_c, 9, 35, 0
1, 59715, Note_on_c, 4, 40, 127
1, 59716, Note_on_c, 9, 38, 0
1, 59756, Note_on_c, 6, 52, 0
1, 59756, Note_on_c, 6, 57, 0
1, 59759, Note_on_c, 0, 64, 117
1, 59760, Note_on_c, 0, 61, 117
1, 59760, Note_on_c, 0, 57, 117
1, 59761, Note_on_c, 6, 57, 71
1, 59762, Note_on_c, 6, 52, 63
1, 59765, Note_on_c, 9, 38, 45
1, 59766, Note_on_c, 9, 38, 0
1, 59773, Note_on_c, 4, 40, 0
1, 59783, Pitch_bend_c, 3, 8160
1, 59786, Pitch_bend_c, 3, 8064
1, 59789, Pitch_bend_c, 3, 7904
1, 59791, Note_on_c, 0, 57, 0
1, 59793, Pitch_bend_c, 3, 7808
1, 59795, Note_on_c, 0, 61, 0
1, 59796, Pitch_bend_c, 3, 7584
1, 59798, Note_on_c, 0, 64, 0
1, 59801, Pitch_bend_c, 3, 7520
1, 59803, Pitch_bend_c, 3, 7296
1, 59806, Note_on_c, 6, 52, 0
1, 59806, Note_on_c, 6, 49, 126
1, 59806, Note_on_c, 6, 52, 126
1, 59807, Note_on_c, 6, 57, 0
1, 59807, Note_on_c, 6, 57, 127
1, 59808, Pitch_bend_c, 3, 7168
1, 59808, Note_on_c, 9, 40, 97
1, 59809, Note_on_c, 9, 28, 90
1, 59810, Note_on_c, 9, 40, 0
1, 59810, Pitch_bend_c, 3, 6848
1, 59811, Note_on_c, 9, 28, 0
1, 59811, Note_on_c, 4, 42, 127
1, 59815, Note_on_c, 6, 49, 0
1, 59815, Note_on_c, 4, 49, 127
1, 59816, Note_on_c, 6, 52, 0
1, 59817, Note_on_c, 6, 57, 0
1, 59818, Note_on_c, 1, 40, 0
1, 59818, Pitch_bend_c, 3, 6592
1, 59820, Pitch_bend_c, 3, 6272
1, 59825, Pitch_bend_c, 3, 6016
1, 59828, Pitch_bend_c, 3, 5888
1, 59830, Pitch_bend_c, 3, 5632
1, 59835, Pitch_bend_c, 3, 5504
1, 59838, Pitch_bend_c, 3, 5408
1, 59841, Pitch_bend_c, 3, 5248
1, 59846, Note_on_c, 4, 42, 0
1, 59846, Pitch_bend_c, 3, 5184
1, 59848, Note_on_c, 4, 49, 0
1, 59848, Pitch_bend_c, 3, 5120
1, 59853, Pitch_bend_c, 3, 5056
1, 59856, Note_on_c, 1, 40, 91
1, 59856, Note_on_c, 6, 57, 71
1, 59856, Note_on_c, 6, 52, 63
1, 59857, Note_on_c, 7, 73, 0
1, 59860, Note_on_c, 7, 69, 0
1, 59860, Note_on_c, 9, 38, 25
1, 59861, Pitch_bend_c, 3, 5120
1, 59862, Note_on_c, 9, 38, 0
1, 59863, Pitch_bend_c, 3, 5408
1, 59865, Note_on_c, 4, 45, 127
1, 59866, Note_on_c, 3, 73, 0
1, 59867, Pitch_bend_c, 3, 5760
1, 59867, Note_on_c, 4, 57, 127
1, 59870, Pitch_bend_c, 3, 6208
1, 59871, Note_on_c, 1, 40, 0
1, 59872, Pitch_bend_c, 3, 7424
1, 59876, Pitch_bend_c, 3, 7904
1, 59879, Pitch_bend_c, 3, 8160
1, 59881, Pitch_bend_c, 3, 8192
1, 59901, Note_on_c, 4, 57, 0
1, 59902, Note_on_c, 6, 52, 0
1, 59902, Note_on_c, 6, 52, 88
1, 59903, Note_on_c, 6, 57, 0
1, 59903, Note_on_c, 6, 57, 96
1, 59903, Note_on_c, 7, 69, 127
1, 59904, Note_on_c, 1, 45, 123
1, 59905, Note_on_c, 4, 45, 0
1, 59905, Note_on_c, 9, 38, 53
1, 59906, Note_on_c, 0, 64, 117
1, 59906, Note_on_c, 9, 35, 111
1, 59907, Note_on_c, 0, 57, 117
1, 59908, Note_on_c, 9, 35, 0
1, 59908, Note_on_c, 9, 38, 0
1, 59908, Note_on_c, 0, 61, 117
1, 59909, Note_on_c, 3, 69, 127
1, 59910, Note_on_c, 7, 73, 127
1, 59912, Note_on_c, 4, 45, 127
1, 59937, Note_on_c, 0, 57, 0
1, 59941, Note_on_c, 0, 61, 0
1, 59947, Note_on_c, 6, 57, 0
1, 59948, Note_on_c, 4, 45, 0
1, 59948, Note_on_c, 6, 52, 0
1, 59949, Note_on_c, 0, 64, 0
1, 59951, Note_on_c, 6, 57, 58
1, 59952, Note_on_c, 6, 52, 63
1, 59957, Note_on_c, 9, 38, 42
1, 59958, Note_on_c, 9, 38, 0
1, 59959, Note_on_c, 4, 42, 127
1, 59960, Note_on_c, 1, 45, 0
1, 59961, Note_on_c, 4, 57, 127
1, 59969, Note_on_c, 7, 69, 0
1, 59971, Note_on_c, 7, 73, 0
1, 59977, Note_on_c, 3, 69, 0
1, 59992, Note_on_c, 4, 42, 0
1, 59995, Note_on_c, 3, 69, 127
1, 59996, Note_on_c, 4, 57, 0
1, 59998, Note_on_c, 6, 49, 126
1, 59999, Note_on_c, 6, 57, 0
1, 59999, Note_on_c, 6, 52, 0
1, 59999, Note_on_c, 6, 52, 113
1, 59999, Note_on_c, 6, 57, 127
1, 60000, Note_on_c, 1, 33, 127
1, 60001, Note_on_c, 9, 40, 97
1, 60002, Note_on_c, 9, 40, 0
1, 60002, Note_on_c, 7, 69, 127
1, 60002, Note_on_c, 9, 28, 91
1, 60003, Note_on_c, 9, 28, 0
1, 60003, Note_on_c, 7, 73, 127
1, 60004, Note_on_c, 8, 45, 127
1, 60005, Note_on_c, 2, 45, 127
1, 60006, Note_on_c, 4, 42, 127
1, 60008, Note_on_c, 6, 49, 0
1, 60008, Note_on_c, 4, 49, 127
1, 60009, Note_on_c, 6, 52, 0
1, 60012, Note_on_c, 6, 57, 0
1, 60044, Note_on_c, 7, 73, 0
1, 60045, Note_on_c, 7, 69, 0
1, 60047, Note_on_c, 0, 57, 117
1, 60047, Note_on_c, 0, 64, 117
1, 60048, Note_on_c, 0, 61, 117
1, 60049, Note_on_c, 6, 57, 71
1, 60049, Note_on_c, 9, 35, 68
1, 60050, Note_on_c, 9, 35, 0
1, 60050, Note_on_c, 6, 52, 63
1, 60051, Note_on_c, 4, 42, 0
1, 60052, Note_on_c, 3, 69, 0
1, 60053, Note_on_c, 4, 49, 0
1, 60053, Note_on_c, 9, 38, 27
1, 60054, Note_on_c, 9, 38, 0
1, 60058, Control_c, 3, 1, 7
1, 60059, Control_c, 3, 1, 17
1, 60062, Control_c, 3, 1, 63
1, 60066, Note_on_c, 1, 33, 0
1, 60068, Control_c, 3, 1, 92
1, 60075, Control_c, 3, 1, 103
1, 60077, Control_c, 3, 1, 127
1, 60082, Note_on_c, 0, 57, 0
1, 60084, Note_on_c, 8, 45, 0
1, 60085, Note_on_c, 0, 61, 0
1, 60085, Note_on_c, 2, 45, 0
1, 60090, Control_c, 3, 1, 110
1, 60092, Note_on_c, 0, 64, 0
1, 60093, Note_on_c, 6, 57, 0
1, 60094, Note_on_c, 6, 52, 0
1, 60094, Note_on_c, 6, 52, 101
1, 60094, Note_on_c, 6, 57, 96
1, 60096, Note_on_c, 1, 35, 127
1, 60096, Control_c, 3, 1, 69
1, 60097, Note_on_c, 8, 47, 127
1, 60097, Note_on_c, 9, 38, 52
1, 60097, Note_on_c, 9, 35, 110
1, 60098, Note_on_c, 2, 47, 127
1, 60099, Note_on_c, 9, 35, 0
1, 60099, Note_on_c, 9, 38, 0
1, 60099, Note_on_c, 4, 43, 127
1, 60100, Control_c, 3, 1, 30
1, 60103, Control_c, 3, 1, 16
1, 60108, Control_c, 3, 1, 0
1, 60140, Note_on_c, 6, 57, 0
1, 60140, Note_on_c, 6, 52, 0
1, 60143, Note_on_c, 6, 57, 71
1, 60144, Note_on_c, 6, 52, 63
1, 60145, Note_on_c, 4, 43, 0
1, 60149, Note_on_c, 9, 38, 47
1, 60150, Note_on_c, 9, 38, 0
1, 60156, Note_on_c, 8, 47, 0
1, 60157, Note_on_c, 2, 47, 0
1, 60161, Note_on_c, 1, 35, 0
1, 60190, Note_on_c, 6, 52, 0
1, 60190, Note_on_c, 6, 49, 126
1, 60190, Note_on_c, 6, 52, 126
1, 60191, Note_on_c, 6, 57, 0
1, 60191, Note_on_c, 1, 37, 124
1, 60191, Note_on_c, 6, 57, 127
1, 60193, Note_on_c, 0, 64, 117
1, 60193, Note_on_c, 9, 40, 96
1, 60193, Note_on_c, 9, 28, 92
1, 60194, Note_on_c, 9, 40, 0
1, 60194, Note_on_c, 0, 61, 117
1, 60195, Note_on_c, 9, 28, 0
1, 60195, Note_on_c, 0, 57, 117
1, 60197, Note_on_c, 8, 49, 127
1, 60198, Note_on_c, 2, 49, 127
1, 60199, Note_on_c, 4, 42, 127
1, 60200, Note_on_c, 4, 49, 127
1, 60201, Note_on_c, 6, 49, 0
1, 60202, Note_on_c, 6, 57, 0
1, 60202, Note_on_c, 6, 52, 0
1, 60214, Note_on_c, 0, 57, 0
1, 60227, Note_on_c, 0, 61, 0
1, 60234, Note_on_c, 0, 64, 0
1, 60239, Note_on_c, 6, 57, 71
1, 60240, Note_on_c, 6, 52, 63
1, 60241, Note_on_c, 3, 69, 127
1, 60245, Note_on_c, 4, 42, 0
1, 60245, Note_on_c, 9, 38, 23
1, 60246, Note_on_c, 9, 38, 0
1, 60247, Note_on_c, 4, 49, 0
1, 60256, Pitch_bend_c, 7, 8160
1, 60257, Note_on_c, 8, 49, 0
1, 60257, Pitch_bend_c, 7, 8000
1, 60258, Note_on_c, 2, 49, 0
1, 60259, Pitch_bend_c, 7, 7680
1, 60262, Note_on_c, 1, 37, 0
1, 60263, Pitch_bend_c, 7, 7168
1, 60264, Pitch_bend_c, 7, 6688
1, 60266, Note_on_c, 3, 69, 0
1, 60266, Pitch_bend_c, 7, 6112
1, 60268, Pitch_bend_c, 7, 5664
1, 60272, Pitch_bend_c, 7, 5184
1, 60273, Pitch_bend_c, 7, 4832
1, 60276, Pitch_bend_c, 7, 4512
1, 60277, Pitch_bend_c, 7, 4224
1, 60279, Pitch_bend_c, 7, 4032
1, 60281, Pitch_bend_c, 3, 2304
1, 60284, Pitch_bend_c, 7, 3936
1, 60285, Pitch_bend_c, 7, 3872
1, 60286, Note_on_c, 6, 57, 0
1, 60286, Note_on_c, 7, 74, 127
1, 60287, Pitch_bend_c, 3, 2112
1, 60288, Note_on_c, 1, 38, 127
1, 60288, Note_on_c, 6, 57, 101
1, 60289, Note_on_c, 6, 54, 101
1, 60289, Note_on_c, 9, 38, 43
1, 60290, Note_on_c, 6, 62, 100
1, 60290, Note_on_c, 9, 35, 111
1, 60291, Note_on_c, 7, 66, 127
1, 60292, Note_on_c, 9, 35, 0
1, 60292, Note_on_c, 9, 38, 0
1, 60292, Note_on_c, 6, 52, 0
1, 60293, Note_on_c, 3, 69, 127
1, 60294, Note_on_c, 8, 50, 127
1, 60295, Note_on_c, 2, 50, 127
1, 60296, Pitch_bend_c, 7, 3968
1, 60297, Pitch_bend_c, 3, 2144
1, 60298, Note_on_c, 4, 50, 127
1, 60299, Pitch_bend_c, 7, 4128
1, 60300, Pitch_bend_c, 3, 2656
1, 60301, Pitch_bend_c, 7, 4384
1, 60302, Pitch_bend_c, 7, 4672
1, 60303, Pitch_bend_c, 3, 3232
1, 60304, Pitch_bend_c, 7, 5024
1, 60305, Pitch_bend_c, 7, 5440
1, 60306, Pitch_bend_c, 3, 3968
1, 60307, Pitch_bend_c, 3, 6208
1, 60307, Pitch_bend_c, 7, 5888
1, 60308, Pitch_bend_c, 7, 6368
1, 60309, Pitch_bend_c, 3, 7168
1, 60309, Pitch_bend_c, 7, 6816
1, 60311, Pitch_bend_c, 3, 7904
1, 60311, Pitch_bend_c, 7, 7264
1, 60312, Pitch_bend_c, 3, 8192
1, 60314, Pitch_bend_c, 7, 7712
1, 60316, Pitch_bend_c, 7, 8000
1, 60319, Pitch_bend_c, 7, 8160
1, 60321, Pitch_bend_c, 7, 8192
1, 60334, Note_on_c, 6, 57, 0
1, 60334, Note_on_c, 6, 62, 0
1, 60336, Note_on_c, 6, 54, 0
1, 60336, Note_on_c, 6, 54, 84
1, 60336, Note_on_c, 6, 57, 87
1, 60337, Note_on_c, 6, 62, 84
1, 60338, Note_on_c, 4, 50, 0
1, 60341, Note_on_c, 9, 38, 45
1, 60342, Note_on_c, 9, 38, 0
1, 60348, Note_on_c, 3, 69, 0
1, 60353, Note_on_c, 7, 66, 0
1, 60359, Note_on_c, 8, 50, 0
1, 60360, Note_on_c, 2, 50, 0
1, 60361, Note_on_c, 7, 74, 0
1, 60381, Note_on_c, 6, 62, 0
1, 60381, Note_on_c, 6, 62, 110
1, 60382, Note_on_c, 6, 54, 0
1, 60382, Note_on_c, 6, 54, 115
1, 60383, Note_on_c, 6, 59, 118
1, 60385, Note_on_c, 6, 57, 0
1, 60385, Note_on_c, 9, 40, 98
1, 60386, Note_on_c, 9, 40, 0
1, 60386, Note_on_c, 0, 66, 117
1, 60386, Note_on_c, 9, 28, 94
1, 60387, Note_on_c, 9, 28, 0
1, 60387, Note_on_c, 0, 62, 117
1, 60388, Note_on_c, 0, 57, 117
1, 60389, Note_on_c, 7, 74, 127
1, 60390, Note_on_c, 3, 69, 121
1, 60390, Note_on_c, 7, 66, 127
1, 60391, Note_on_c, 1, 38, 0
1, 60391, Note_on_c, 4, 47, 127
1, 60392, Note_on_c, 4, 54, 127
1, 60401, Note_on_c, 6, 54, 0
1, 60404, Note_on_c, 6, 59, 0
1, 60408, Note_on_c, 0, 57, 0
1, 60409, Note_on_c, 6, 62, 0
1, 60413, Note_on_c, 0, 62, 0
1, 60419, Note_on_c, 0, 66, 0
1, 60429, Note_on_c, 7, 74, 0
1, 60432, Note_on_c, 1, 38, 120
1, 60432, Note_on_c, 6, 57, 96
1, 60433, Note_on_c, 6, 62, 82
1, 60434, Note_on_c, 6, 54, 70
1, 60437, Note_on_c, 4, 54, 0
1, 60437, Note_on_c, 7, 66, 0
1, 60437, Note_on_c, 9, 38, 25
1, 60438, Note_on_c, 9, 38, 0
1, 60438, Note_on_c, 4, 47, 0
1, 60449, Note_on_c, 3, 69, 0
1, 60452, Note_on_c, 1, 38, 0
1, 60477, Note_on_c, 6, 57, 0
1, 60478, Note_on_c, 6, 62, 0
1, 60479, Note_on_c, 6, 57, 115
1, 60480, Note_on_c, 6, 54, 0
1, 60480, Note_on_c, 1, 33, 127
1, 60480, Note_on_c, 6, 62, 111
1, 60480, Note_on_c, 6, 54, 112
1, 60481, Note_on_c, 7, 66, 127
1, 60481, Note_on_c, 9, 38, 54
1, 60481, Note_on_c, 9, 35, 110
1, 60482, Note_on_c, 3, 69, 127
1, 60483, Note_on_c, 9, 35, 0
1, 60483, Note_on_c, 9, 38, 0
1, 60483, Note_on_c, 7, 74, 127
1, 60484, Note_on_c, 4, 45, 127
1, 60521, Note_on_c, 6, 62, 0
1, 60523, Note_on_c, 6, 54, 0
1, 60524, Note_on_c, 7, 66, 0
1, 60524, Note_on_c, 6, 57, 0
1, 60525, Note_on_c, 3, 69, 0
1, 60527, Note_on_c, 0, 66, 117
1, 60527, Note_on_c, 0, 62, 117
1, 60528, Note_on_c, 0, 57, 117
1, 60529, Note_on_c, 6, 57, 90
1, 60530, Note_on_c, 6, 54, 86
1, 60530, Note_on_c, 6, 62, 85
1, 60532, Note_on_c, 9, 38, 45
1, 60534, Note_on_c, 9, 38, 0
1, 60534, Note_on_c, 7, 74, 0
1, 60541, Note_on_c, 4, 45, 0
1, 60541, Note_on_c, 1, 33, 0
1, 60554, Note_on_c, 0, 62, 0
1, 60554, Note_on_c, 0, 57, 0
1, 60560, Note_on_c, 0, 66, 0
1, 60573, Note_on_c, 6, 57, 0
1, 60574, Note_on_c, 6, 54, 0
1, 60574, Note_on_c, 6, 62, 0
1, 60575, Note_on_c, 6, 62, 108
1, 60576, Note_on_c, 1, 35, 127
1, 60576, Note_on_c, 6, 54, 113
1, 60576, Note_on_c, 6, 59, 116
1, 60577, Note_on_c, 3, 69, 108
1, 60577, Note_on_c, 9, 40, 97
1, 60578, Note_on_c, 9, 40, 0
1, 60578, Note_on_c, 7, 69, 125
1, 60578, Note_on_c, 9, 28, 90
1, 60579, Note_on_c, 9, 28, 0
1, 60579, Note_on_c, 7, 66, 127
1, 60580, Note_on_c, 4, 47, 127
1, 60583, Note_on_c, 4, 54, 127
1, 60591, Note_on_c, 6, 54, 0
1, 60593, Note_on_c, 6, 59, 0
1, 60598, Note_on_c, 6, 62, 0
1, 60602, Note_on_c, 7, 66, 0
1, 60606, Note_on_c, 7, 69, 0
1, 60614, Note_on_c, 4, 47, 0
1, 60616, Note_on_c, 4, 54, 0
1, 60622, Note_on_c, 3, 69, 0
1, 60623, Note_on_c, 7, 74, 127
1, 60624, Note_on_c, 3, 62, 127
1, 60624, Note_on_c, 6, 57, 82
1, 60625, Note_on_c, 6, 62, 88
1, 60625, Note_on_c, 6, 54, 88
1, 60626, Note_on_c, 7, 66, 127
1, 60629, Note_on_c, 9, 38, 25
1, 60631, Note_on_c, 9, 38, 0
1, 60632, Note_on_c, 1, 35, 0
1, 60633, Note_on_c, 4, 50, 127
1, 60635, Note_on_c, 4, 62, 127
1, 60669, Note_on_c, 6, 54, 0
1, 60670, Note_on_c, 6, 62, 0
1, 60671, Note_on_c, 4, 62, 0
1, 60672, Note_on_c, 6, 57, 0
1, 60672, Note_on_c, 4, 50, 0
1, 60672, Note_on_c, 1, 38, 127
1, 60672, Note_on_c, 9, 38, 53
1, 60673, Note_on_c, 0, 66, 117
1, 60673, Note_on_c, 9, 35, 111
1, 60674, Note_on_c, 0, 57, 117
1, 60675, Note_on_c, 9, 35, 0
1, 60675, Note_on_c, 0, 62, 117
1, 60676, Note_on_c, 9, 38, 0
1, 60676, Note_on_c, 6, 57, 101
1, 60677, Note_on_c, 6, 54, 101
1, 60678, Note_on_c, 6, 62, 100
1, 60679, Note_on_c, 4, 50, 127
1, 60700, Note_on_c, 0, 57, 0
1, 60704, Note_on_c, 0, 62, 0
1, 60708, Note_on_c, 0, 66, 0
1, 60716, Note_on_c, 4, 50, 0
1, 60716, Control_c, 3, 1, 10
1, 60719, Note_on_c, 6, 62, 0
1, 60720, Note_on_c, 6, 54, 0
1, 60720, Note_on_c, 6, 57, 0
1, 60720, Note_on_c, 6, 54, 84
1, 60720, Note_on_c, 6, 57, 87
1, 60721, Note_on_c, 6, 62, 84
1, 60722, Control_c, 3, 1, 34
1, 60725, Control_c, 3, 1, 47
1, 60725, Note_on_c, 9, 38, 42
1, 60726, Note_on_c, 9, 38, 0
1, 60726, Note_on_c, 4, 47, 127
1, 60729, Control_c, 3, 1, 70
1, 60730, Note_on_c, 4, 62, 127
1, 60734, Control_c, 3, 1, 75
1, 60738, Control_c, 3, 1, 82
1, 60742, Control_c, 3, 1, 90
1, 60747, Control_c, 3, 1, 95
1, 60748, Note_on_c, 1, 38, 0
1, 60751, Control_c, 3, 1, 115
1, 60756, Pitch_bend_c, 3, 8128
1, 60757, Control_c, 3, 1, 126
1, 60759, Pitch_bend_c, 3, 7808
1, 60760, Note_on_c, 4, 47, 0
1, 60763, Control_c, 3, 1, 127
1, 60764, Note_on_c, 4, 62, 0
1, 60764, Pitch_bend_c, 3, 7552
1, 60765, Note_on_c, 6, 62, 0
1, 60767, Note_on_c, 6, 62, 110
1, 60768, Note_on_c, 6, 54, 0
1, 60768, Note_on_c, 6, 54, 115
1, 60768, Note_on_c, 6, 59, 118
1, 60769, Note_on_c, 6, 57, 0
1, 60769, Note_on_c, 9, 40, 97
1, 60770, Note_on_c, 1, 37, 119
1, 60770, Pitch_bend_c, 3, 7232
1, 60770, Note_on_c, 9, 28, 91
1, 60771, Note_on_c, 9, 40, 0
1, 60771, Pitch_bend_c, 3, 6688
1, 60772, Note_on_c, 9, 28, 0
1, 60772, Note_on_c, 4, 47, 127
1, 60773, Pitch_bend_c, 3, 6208
1, 60775, Note_on_c, 4, 54, 127
1, 60777, Pitch_bend_c, 3, 5984
1, 60780, Pitch_bend_c, 3, 5728
1, 60782, Pitch_bend_c, 3, 5504
1, 60785, Note_on_c, 6, 54, 0
1, 60787, Pitch_bend_c, 3, 4928
1, 60788, Note_on_c, 6, 59, 0
1, 60789, Control_c, 3, 1, 113
1, 60790, Pitch_bend_c, 3, 4416
1, 60793, Note_on_c, 6, 62, 0
1, 60794, Control_c, 3, 1, 103
1, 60795, Pitch_bend_c, 3, 4160
1, 60796, Control_c, 3, 1, 68
1, 60797, Pitch_bend_c, 3, 3712
1, 60802, Control_c, 3, 1, 45
1, 60802, Pitch_bend_c, 3, 3552
1, 60805, Pitch_bend_c, 3, 3456
1, 60808, Control_c, 3, 1, 33
1, 60809, Pitch_bend_c, 3, 3488
1, 60811, Control_c, 3, 1, 11
1, 60812, Pitch_bend_c, 3, 3680
1, 60814, Pitch_bend_c, 3, 4512
1, 60814, Control_c, 3, 1, 0
1, 60815, Note_on_c, 0, 66, 117
1, 60816, Note_on_c, 0, 57, 117
1, 60816, Note_on_c, 0, 62, 117
1, 60817, Note_on_c, 6, 57, 96
1, 60817, Note_on_c, 9, 35, 68
1, 60818, Note_on_c, 9, 35, 0
1, 60818, Note_on_c, 6, 62, 82
1, 60819, Note_on_c, 6, 54, 70
1, 60820, Note_on_c, 4, 47, 0
1, 60821, Pitch_bend_c, 3, 5152
1, 60821, Note_on_c, 9, 38, 27
1, 60822, Note_on_c, 9, 38, 0
1, 60822, Note_on_c, 7, 66, 0
1, 60823, Note_on_c, 7, 74, 0
1, 60824, Note_on_c, 4, 54, 0
1, 60825, Pitch_bend_c, 3, 6944
1, 60826, Note_on_c, 3, 62, 0
1, 60826, Pitch_bend_c, 3, 7584
1, 60828, Pitch_bend_c, 3, 8064
1, 60830, Pitch_bend_c, 3, 8192
1, 60847, Note_on_c, 1, 37, 0
1, 60848, Note_on_c, 0, 62, 0
1, 60849, Note_on_c, 0, 57, 0
1, 60853, Note_on_c, 0, 66, 0
1, 60861, Note_on_c, 6, 62, 0
1, 60861, Note_on_c, 6, 57, 0
1, 60862, Note_on_c, 6, 57, 115
1, 60863, Note_on_c, 6, 54, 0
1, 60863, Note_on_c, 1, 38, 127
1, 60863, Note_on_c, 6, 62, 111
1, 60863, Note_on_c, 6, 54, 112
1, 60865, Note_on_c, 9, 38, 52
1, 60866, Note_on_c, 9, 35, 110
1, 60867, Note_on_c, 9, 35, 0
1, 60867, Note_on_c, 9, 38, 0
1, 60867, Note_on_c, 4, 45, 127
1, 60905, Note_on_c, 6, 62, 0
1, 60906, Note_on_c, 6, 54, 0
1, 60907, Note_on_c, 6, 57, 0
1, 60911, Note_on_c, 6, 57, 90
1, 60912, Note_on_c, 6, 54, 86
1, 60913, Note_on_c, 6, 62, 85
1, 60914, Note_on_c, 4, 45, 0
1, 60917, Note_on_c, 9, 38, 47
1, 60918, Note_on_c, 9, 38, 0
1, 60944, Note_on_c, 1, 38, 0
1, 60957, Note_on_c, 6, 57, 0
1, 60958, Note_on_c, 6, 54, 0
1, 60958, Note_on_c, 6, 62, 0
1, 60959, Note_on_c, 1, 39, 127
1, 60959, Note_on_c, 6, 62, 108
1, 60960, Note_on_c, 6, 54, 113
1, 60961, Note_on_c, 6, 59, 116
1, 60961, Note_on_c, 9, 40, 96
1, 60962, Note_on_c, 9, 40, 0
1, 60962, Note_on_c, 0, 66, 117
1, 60962, Note_on_c, 9, 28, 92
1, 60963, Note_on_c, 9, 28, 0
1, 60963, Note_on_c, 0, 57, 117
1, 60964, Note_on_c, 0, 62, 117
1, 60965, Note_on_c, 4, 47, 127
1, 60966, Note_on_c, 4, 54, 127
1, 60975, Note_on_c, 6, 54, 0
1, 60977, Note_on_c, 6, 59, 0
1, 60981, Note_on_c, 6, 62, 0
1, 60991, Note_on_c, 0, 57, 0
1, 60999, Pitch_bend_c, 3, 8032
1, 61001, Note_on_c, 0, 66, 0
1, 61002, Note_on_c, 0, 62, 0
1, 61003, Pitch_bend_c, 3, 7808
1, 61007, Pitch_bend_c, 3, 7296
1, 61008, Note_on_c, 6, 57, 82
1, 61008, Note_on_c, 6, 62, 88
1, 61009, Note_on_c, 6, 54, 88
1, 61010, Pitch_bend_c, 3, 6944
1, 61013, Note_on_c, 4, 47, 0
1, 61013, Note_on_c, 9, 38, 23
1, 61014, Note_on_c, 9, 38, 0
1, 61014, Pitch_bend_c, 3, 6592
1, 61016, Note_on_c, 4, 54, 0
1, 61017, Pitch_bend_c, 3, 5856
1, 61021, Pitch_bend_c, 3, 5152
1, 61024, Pitch_bend_c, 7, 8160
1, 61025, Pitch_bend_c, 3, 4832
1, 61027, Pitch_bend_c, 7, 8032
1, 61029, Pitch_bend_c, 7, 7840
1, 61030, Pitch_bend_c, 3, 4640
1, 61032, Pitch_bend_c, 3, 4416
1, 61032, Pitch_bend_c, 7, 7456
1, 61035, Pitch_bend_c, 7, 7136
1, 61036, Pitch_bend_c, 3, 4288
1, 61036, Pitch_bend_c, 7, 6720
1, 61037, Pitch_bend_c, 7, 6400
1, 61038, Pitch_bend_c, 3, 4160
1, 61041, Pitch_bend_c, 7, 6112
1, 61042, Pitch_bend_c, 7, 5824
1, 61043, Pitch_bend_c, 3, 4096
1, 61045, Pitch_bend_c, 3, 4064
1, 61046, Pitch_bend_c, 7, 5536
1, 61048, Pitch_bend_c, 7, 5280
1, 61049, Pitch_bend_c, 3, 4160
1, 61050, Pitch_bend_c, 7, 4992
1, 61053, Note_on_c, 1, 39, 0
1, 61053, Pitch_bend_c, 7, 4832
1, 61054, Note_on_c, 6, 54, 0
1, 61055, Note_on_c, 6, 62, 0
1, 61056, Note_on_c, 6, 57, 0
1, 61056, Note_on_c, 1, 40, 127
1, 61056, Pitch_bend_c, 3, 4288
1, 61057, Note_on_c, 3, 71, 127
1, 61057, Note_on_c, 9, 38, 43
1, 61058, Note_on_c, 7, 76, 127
1, 61058, Note_on_c, 9, 35, 111
1, 61059, Note_on_c, 7, 68, 127
1, 61060, Note_on_c, 9, 35, 0
1, 61060, Note_on_c, 9, 38, 0
1, 61060, Note_on_c, 6, 56, 109
1, 61061, Note_on_c, 6, 52, 112
1, 61062, Note_on_c, 6, 59, 107
1, 61063, Pitch_bend_c, 7, 4704
1, 61064, Pitch_bend_c, 7, 4576
1, 61065, Pitch_bend_c, 3, 4448
1, 61066, Note_on_c, 4, 52, 127
1, 61067, Pitch_bend_c, 7, 4544
1, 61068, Pitch_bend_c, 3, 5376
1, 61069, Pitch_bend_c, 7, 4512
1, 61070, Pitch_bend_c, 3, 6112
1, 61071, Pitch_bend_c, 3, 7584
1, 61072, Pitch_bend_c, 7, 4544
1, 61073, Pitch_bend_c, 7, 4576
1, 61074, Note_on_c, 6, 59, 0
1, 61075, Pitch_bend_c, 3, 8064
1, 61076, Pitch_bend_c, 3, 8192
1, 61076, Pitch_bend_c, 7, 4608
1, 61077, Pitch_bend_c, 7, 8192
1, 61078, Note_on_c, 6, 52, 0
1, 61079, Pitch_bend_c, 7, 4704
1, 61080, Note_on_c, 6, 56, 0
1, 61080, Pitch_bend_c, 7, 4800
1, 61081, Pitch_bend_c, 7, 4960
1, 61084, Pitch_bend_c, 7, 5184
1, 61086, Pitch_bend_c, 7, 5472
1, 61089, Pitch_bend_c, 7, 5856
1, 61090, Pitch_bend_c, 7, 6304
1, 61093, Pitch_bend_c, 7, 6816
1, 61094, Note_on_c, 7, 68, 0
1, 61095, Pitch_bend_c, 7, 7264
1, 61097, Note_on_c, 7, 76, 0
1, 61098, Pitch_bend_c, 7, 7712
1, 61099, Note_on_c, 3, 71, 0
1, 61100, Pitch_bend_c, 7, 8000
1, 61103, Note_on_c, 7, 68, 127
1, 61104, Note_on_c, 4, 52, 0
1, 61104, Note_on_c, 7, 76, 127
1, 61104, Pitch_bend_c, 7, 8160
1, 61105, Pitch_bend_c, 7, 8192
1, 61106, Note_on_c, 3, 71, 127
1, 61108, Note_on_c, 9, 38, 45
1, 61110, Note_on_c, 9, 38, 0
1, 61151, Note_on_c, 6, 59, 118
1, 61151, Note_on_c, 6, 56, 127
1, 61152, Note_on_c, 0, 68, 117
1, 61152, Note_on_c, 0, 59, 117
1, 61152, Note_on_c, 6, 52, 127
1, 61153, Note_on_c, 0, 64, 117
1, 61153, Note_on_c, 9, 40, 98
1, 61154, Note_on_c, 9, 40, 0
1, 61154, Note_on_c, 9, 28, 94
1, 61155, Note_on_c, 9, 28, 0
1, 61156, Note_on_c, 4, 49, 127
1, 61160, Note_on_c, 4, 56, 127
1, 61162, Note_on_c, 1, 40, 0
1, 61165, Note_on_c, 3, 71, 0
1, 61167, Note_on_c, 7, 76, 0
1, 61170, Note_on_c, 7, 68, 0
1, 61175, Note_on_c, 0, 59, 0
1, 61176, Note_on_c, 0, 64, 0
1, 61185, Note_on_c, 0, 68, 0
1, 61199, Note_on_c, 7, 68, 127
1, 61199, Note_on_c, 7, 76, 127
1, 61200, Note_on_c, 1, 40, 127
1, 61203, Note_on_c, 3, 71, 127
1, 61205, Note_on_c, 4, 56, 0
1, 61205, Note_on_c, 4, 49, 0
1, 61205, Note_on_c, 9, 38, 25
1, 61206, Note_on_c, 9, 38, 0
1, 61213, Note_on_c, 1, 40, 0
1, 61248, Note_on_c, 1, 35, 127
1, 61248, Note_on_c, 9, 38, 54
1, 61249, Note_on_c, 9, 35, 110
1, 61251, Note_on_c, 9, 35, 0
1, 61252, Note_on_c, 9, 38, 0
1, 61252, Note_on_c, 4, 47, 127
1, 61257, Note_on_c, 6, 52, 0
1, 61260, Note_on_c, 6, 56, 0
1, 61261, Note_on_c, 6, 59, 0
1, 61284, Note_on_c, 7, 76, 0
1, 61288, Note_on_c, 7, 68, 0
1, 61292, Note_on_c, 3, 71, 0
1, 61295, Note_on_c, 0, 68, 117
1, 61295, Note_on_c, 0, 59, 117
1, 61296, Note_on_c, 0, 64, 117
1, 61297, Note_on_c, 7, 68, 127
1, 61298, Note_on_c, 3, 71, 127
1, 61298, Note_on_c, 7, 76, 127
1, 61299, Note_on_c, 6, 56, 69
1, 61300, Note_on_c, 6, 52, 72
1, 61301, Note_on_c, 6, 59, 67
1, 61301, Note_on_c, 9, 38, 45
1, 61302, Note_on_c, 6, 56, 0
1, 61303, Note_on_c, 6, 59, 0
1, 61303, Note_on_c, 9, 38, 0
1, 61304, Note_on_c, 6, 52, 0
1, 61309, Note_on_c, 4, 47, 0
1, 61321, Note_on_c, 0, 59, 0
1, 61322, Note_on_c, 0, 64, 0
1, 61328, Note_on_c, 0, 68, 0
1, 61337, Pitch_bend_c, 3, 8317
1, 61339, Pitch_bend_c, 3, 8192
1, 61344, Note_on_c, 6, 56, 109
1, 61345, Note_on_c, 6, 52, 112
1, 61345, Note_on_c, 6, 59, 107
1, 61345, Note_on_c, 9, 40, 97
1, 61346, Note_on_c, 9, 40, 0
1, 61346, Note_on_c, 7, 76, 0
1, 61346, Note_on_c, 9, 28, 90
1, 61347, Note_on_c, 9, 28, 0
1, 61347, Note_on_c, 7, 68, 0
1, 61348, Note_on_c, 4, 49, 127
1, 61350, Note_on_c, 3, 71, 0
1, 61351, Note_on_c, 4, 56, 127
1, 61354, Note_on_c, 1, 35, 0
1, 61357, Note_on_c, 6, 59, 0
1, 61363, Note_on_c, 6, 52, 0
1, 61365, Note_on_c, 6, 56, 0
1, 61382, Note_on_c, 4, 49, 0
1, 61384, Note_on_c, 4, 56, 0
1, 61388, Pitch_bend_c, 3, 4620
1, 61388, Pitch_bend_c, 7, 4200
1, 61391, Note_on_c, 7, 68, 127
1, 61392, Note_on_c, 1, 39, 127
1, 61392, Note_on_c, 7, 76, 127
1, 61394, Note_on_c, 3, 73, 124
1, 61397, Note_on_c, 9, 38, 25
1, 61398, Note_on_c, 9, 38, 0
1, 61401, Note_on_c, 4, 52, 127
1, 61402, Note_on_c, 4, 64, 127
1, 61415, Pitch_bend_c, 7, 3936
1, 61416, Pitch_bend_c, 7, 3840
1, 61419, Pitch_bend_c, 3, 4992
1, 61419, Pitch_bend_c, 7, 3808
1, 61421, Pitch_bend_c, 3, 4960
1, 61424, Pitch_bend_c, 3, 5152
1, 61424, Pitch_bend_c, 7, 3872
1, 61427, Pitch_bend_c, 7, 4000
1, 61428, Pitch_bend_c, 3, 5472
1, 61429, Pitch_bend_c, 7, 4160
1, 61431, Note_on_c, 1, 39, 0
1, 61431, Pitch_bend_c, 3, 6816
1, 61431, Pitch_bend_c, 7, 4384
1, 61433, Pitch_bend_c, 7, 4576
1, 61435, Pitch_bend_c, 3, 7456
1, 61436, Pitch_bend_c, 7, 4832
1, 61437, Note_on_c, 4, 64, 0
1, 61438, Note_on_c, 4, 52, 0
1, 61438, Pitch_bend_c, 7, 5152
1, 61439, Pitch_bend_c, 3, 7968
1, 61440, Note_on_c, 0, 68, 117
1, 61440, Note_on_c, 1, 40, 127
1, 61441, Note_on_c, 0, 59, 117
1, 61441, Note_on_c, 9, 38, 53
1, 61442, Note_on_c, 0, 64, 117
1, 61442, Note_on_c, 9, 35, 111
1, 61443, Note_on_c, 6, 52, 88
1, 61444, Note_on_c, 9, 35, 0
1, 61444, Note_on_c, 9, 38, 0
1, 61444, Note_on_c, 6, 59, 96
1, 61445, Pitch_bend_c, 3, 8192
1, 61446, Pitch_bend_c, 7, 5536
1, 61447, Pitch_bend_c, 7, 5952
1, 61448, Note_on_c, 4, 52, 127
1, 61449, Pitch_bend_c, 7, 6400
1, 61450, Pitch_bend_c, 7, 6880
1, 61451, Pitch_bend_c, 7, 7392
1, 61452, Pitch_bend_c, 7, 7808
1, 61455, Pitch_bend_c, 7, 8096
1, 61457, Pitch_bend_c, 7, 8192
1, 61467, Note_on_c, 0, 59, 0
1, 61469, Note_on_c, 0, 64, 0
1, 61472, Note_on_c, 0, 68, 0
1, 61484, Note_on_c, 7, 76, 0
1, 61484, Note_on_c, 4, 52, 0
1, 61485, Note_on_c, 7, 68, 0
1, 61485, Note_on_c, 6, 59, 0
1, 61486, Note_on_c, 6, 52, 0
1, 61487, Note_on_c, 6, 59, 58
1, 61488, Note_on_c, 6, 52, 63
1, 61493, Note_on_c, 9, 38, 42
1, 61494, Note_on_c, 9, 38, 0
1, 61494, Note_on_c, 4, 49, 127
1, 61497, Note_on_c, 3, 73, 0
1, 61498, Note_on_c, 4, 64, 127
1, 61528, Note_on_c, 4, 49, 0
1, 61532, Note_on_c, 4, 64, 0
1, 61532, Note_on_c, 6, 59, 0
1, 61534, Note_on_c, 6, 52, 0
1, 61534, Note_on_c, 6, 52, 126
1, 61534, Note_on_c, 6, 59, 127
1, 61535, Note_on_c, 6, 56, 126
1, 61536, Note_on_c, 7, 76, 127
1, 61537, Note_on_c, 3, 73, 122
1, 61537, Note_on_c, 7, 68, 124
1, 61537, Note_on_c, 9, 40, 97
1, 61537, Note_on_c, 9, 28, 91
1, 61538, Note_on_c, 9, 40, 0
1, 61539, Note_on_c, 9, 28, 0
1, 61539, Note_on_c, 4, 40, 127
1, 61542, Note_on_c, 6, 52, 0
1, 61543, Note_on_c, 6, 56, 0
1, 61544, Note_on_c, 6, 59, 0
1, 61546, Note_on_c, 1, 40, 0
1, 61582, Note_on_c, 0, 64, 117
1, 61583, Note_on_c, 0, 59, 117
1, 61583, Note_on_c, 1, 40, 119
1, 61584, Note_on_c, 0, 68, 117
1, 61585, Note_on_c, 6, 59, 71
1, 61585, Note_on_c, 9, 35, 68
1, 61586, Note_on_c, 9, 35, 0
1, 61586, Note_on_c, 6, 52, 63
1, 61587, Note_on_c, 4, 40, 0
1, 61588, Note_on_c, 7, 76, 0
1, 61589, Note_on_c, 7, 68, 0
1, 61589, Note_on_c, 9, 38, 27
1, 61590, Note_on_c, 9, 38, 0
1, 61593, Note_on_c, 3, 73, 0
1, 61598, Note_on_c, 1, 40, 0
1, 61606, Note_on_c, 0, 59, 0
1, 61610, Note_on_c, 0, 64, 0
1, 61610, Note_on_c, 0, 68, 0
1, 61629, Note_on_c, 6, 52, 0
1, 61630, Note_on_c, 6, 59, 0
1, 61630, Note_on_c, 6, 52, 88
1, 61631, Note_on_c, 1, 42, 126
1, 61631, Note_on_c, 6, 59, 96
1, 61633, Note_on_c, 3, 73, 124
1, 61633, Note_on_c, 9, 38, 52
1, 61634, Note_on_c, 7, 76, 127
1, 61634, Note_on_c, 9, 35, 110
1, 61635, Note_on_c, 9, 35, 0
1, 61635, Note_on_c, 9, 38, 0
1, 61635, Note_on_c, 7, 68, 127
1, 61636, Note_on_c, 4, 42, 127
1, 61675, Note_on_c, 6, 52, 0
1, 61676, Note_on_c, 6, 59, 0
1, 61676, Note_on_c, 7, 76, 0
1, 61678, Note_on_c, 0, 68, 117
1, 61679, Note_on_c, 0, 59, 117
1, 61680, Note_on_c, 0, 64, 117
1, 61681, Note_on_c, 3, 73, 0
1, 61682, Note_on_c, 6, 59, 71
1, 61682, Note_on_c, 6, 52, 63
1, 61683, Note_on_c, 7, 68, 0
1, 61684, Note_on_c, 4, 42, 0
1, 61685, Note_on_c, 9, 38, 47
1, 61686, Note_on_c, 9, 38, 0
1, 61696, Note_on_c, 1, 42, 0
1, 61712, Note_on_c, 0, 59, 0
1, 61714, Note_on_c, 0, 64, 0
1, 61717, Note_on_c, 0, 68, 0
1, 61725, Note_on_c, 7, 64, 124
1, 61726, Note_on_c, 6, 59, 0
1, 61726, Note_on_c, 6, 52, 0
1, 61727, Note_on_c, 6, 52, 126
1, 61728, Note_on_c, 1, 44, 127
1, 61728, Note_on_c, 6, 59, 127
1, 61728, Note_on_c, 6, 56, 126
1, 61729, Note_on_c, 7, 73, 127
1, 61729, Note_on_c, 9, 40, 96
1, 61730, Note_on_c, 3, 69, 127
1, 61730, Note_on_c, 9, 28, 92
1, 61731, Note_on_c, 9, 40, 0
1, 61731, Note_on_c, 4, 44, 127
1, 61732, Note_on_c, 9, 28, 0
1, 61734, Note_on_c, 6, 52, 0
1, 61735, Note_on_c, 6, 56, 0
1, 61736, Note_on_c, 6, 59, 0
1, 61765, Note_on_c, 7, 64, 0
1, 61766, Note_on_c, 7, 73, 0
1, 61772, Note_on_c, 3, 69, 0
1, 61775, Note_on_c, 6, 59, 71
1, 61775, Note_on_c, 7, 73, 83
1, 61776, Note_on_c, 6, 52, 63
1, 61777, Note_on_c, 7, 64, 73
1, 61778, Note_on_c, 3, 69, 122
1, 61780, Note_on_c, 9, 38, 23
1, 61781, Note_on_c, 4, 44, 0
1, 61782, Note_on_c, 9, 38, 0
1, 61792, Note_on_c, 7, 73, 0
1, 61792, Pitch_bend_c, 7, 8096
1, 61794, Pitch_bend_c, 7, 7840
1, 61795, Note_on_c, 7, 64, 0
1, 61797, Note_on_c, 1, 44, 0
1, 61797, Pitch_bend_c, 7, 7520
1, 61798, Note_on_c, 3, 69, 0
1, 61799, Pitch_bend_c, 7, 7136
1, 61801, Pitch_bend_c, 7, 6752
1, 61803, Pitch_bend_c, 7, 6432
1, 61806, Pitch_bend_c, 7, 6144
1, 61808, Pitch_bend_c, 7, 5984
1, 61812, Pitch_bend_c, 7, 5824
1, 61814, Pitch_bend_c, 7, 5696
1, 61816, Pitch_bend_c, 7, 5600
1, 61818, Pitch_bend_c, 7, 5536
1, 61821, Note_on_c, 7, 64, 127
1, 61822, Note_on_c, 6, 59, 0
1, 61822, Note_on_c, 6, 52, 0
1, 61823, Pitch_bend_c, 7, 5472
1, 61824, Note_on_c, 1, 45, 121
1, 61824, Note_on_c, 6, 45, 125
1, 61825, Pitch_bend_c, 7, 5408
1, 61825, Note_on_c, 9, 38, 53
1, 61826, Pitch_bend_c, 7, 5440
1, 61826, Note_on_c, 9, 35, 111
1, 61827, Note_on_c, 3, 69, 127
1, 61828, Note_on_c, 9, 35, 0
1, 61828, Note_on_c, 7, 73, 127
1, 61829, Note_on_c, 9, 38, 0
1, 61829, Note_on_c, 4, 45, 127
1, 61830, Pitch_bend_c, 7, 5376
1, 61836, Pitch_bend_c, 7, 5440
1, 61839, Pitch_bend_c, 7, 5536
1, 61841, Pitch_bend_c, 7, 5728
1, 61844, Pitch_bend_c, 7, 5984
1, 61845, Pitch_bend_c, 7, 6304
1, 61847, Pitch_bend_c, 7, 6720
1, 61849, Pitch_bend_c, 7, 7232
1, 61851, Pitch_bend_c, 7, 7616
1, 61853, Pitch_bend_c, 7, 7968
1, 61857, Pitch_bend_c, 7, 8160
1, 61858, Pitch_bend_c, 7, 8192
1, 61872, Note_on_c, 4, 45, 0
1, 61877, Note_on_c, 9, 38, 42
1, 61878, Note_on_c, 9, 38, 0
1, 61888, Note_on_c, 7, 64, 0
1, 61888, Note_on_c, 3, 69, 0
1, 61889, Note_on_c, 7, 73, 0
1, 61902, Note_on_c, 6, 45, 0
1, 61917, Note_on_c, 6, 52, 126
1, 61918, Note_on_c, 6, 57, 127
1, 61919, Note_on_c, 0, 64, 117
1, 61920, Note_on_c, 0, 61, 117
1, 61920, Note_on_c, 0, 57, 117
1, 61921, Note_on_c, 2, 57, 117
1, 61921, Note_on_c, 9, 40, 97
1, 61922, Note_on_c, 9, 40, 0
1, 61922, Note_on_c, 7, 64, 95
1, 61922, Note_on_c, 9, 28, 91
1, 61923, Note_on_c, 9, 28, 0
1, 61923, Note_on_c, 3, 69, 115
1, 61924, Note_on_c, 4, 42, 127
1, 61925, Note_on_c, 1, 45, 0
1, 61925, Note_on_c, 7, 73, 107
1, 61926, Note_on_c, 6, 52, 0
1, 61927, Note_on_c, 6, 57, 0
1, 61928, Note_on_c, 4, 49, 127
1, 61929, Note_on_c, 2, 57, 0
1, 61941, Note_on_c, 7, 73, 0
1, 61943, Note_on_c, 3, 69, 0
1, 61949, Note_on_c, 7, 64, 0
1, 61950, Note_on_c, 0, 57, 0
1, 61953, Note_on_c, 0, 61, 0
1, 61960, Note_on_c, 0, 64, 0
1, 61968, Note_on_c, 1, 45, 104
1, 61968, Note_on_c, 6, 52, 63
1, 61968, Note_on_c, 7, 73, 127
1, 61968, Note_on_c, 7, 64, 127
1, 61969, Note_on_c, 9, 35, 68
1, 61970, Note_on_c, 9, 35, 0
1, 61970, Note_on_c, 3, 69, 115
1, 61971, Note_on_c, 6, 57, 71
1, 61972, Note_on_c, 6, 52, 0
1, 61972, Note_on_c, 9, 38, 27
1, 61973, Note_on_c, 6, 57, 0
1, 61974, Note_on_c, 4, 49, 0
1, 61975, Note_on_c, 4, 42, 0
1, 61975, Note_on_c, 9, 38, 0
1, 61987, Note_on_c, 1, 45, 0
1, 62013, Note_on_c, 6, 52, 63
1, 62014, Note_on_c, 6, 57, 58
1, 62016, Note_on_c, 6, 57, 0
1, 62016, Note_on_c, 6, 52, 0
1, 62016, Note_on_c, 1, 43, 126
1, 62017, Note_on_c, 9, 38, 52
1, 62017, Note_on_c, 9, 35, 110
1, 62019, Note_on_c, 9, 35, 0
1, 62019, Note_on_c, 9, 38, 0
1, 62020, Note_on_c, 4, 40, 127
1, 62027, Control_c, 3, 1, 13
1, 62030, Control_c, 3, 1, 23
1, 62034, Control_c, 3, 1, 44
1, 62038, Control_c, 3, 1, 66
1, 62045, Control_c, 3, 1, 86
1, 62049, Control_c, 3, 1, 102
1, 62055, Control_c, 3, 1, 110
1, 62057, Control_c, 3, 1, 123
1, 62063, Note_on_c, 0, 66, 117
1, 62064, Note_on_c, 1, 43, 0
1, 62064, Note_on_c, 0, 62, 117
1, 62064, Note_on_c, 0, 57, 117
1, 62065, Note_on_c, 2, 57, 117
1, 62066, Note_on_c, 6, 52, 126
1, 62067, Control_c, 3, 1, 125
1, 62067, Note_on_c, 6, 57, 127
1, 62068, Control_c, 3, 1, 127
1, 62069, Note_on_c, 9, 38, 47
1, 62070, Note_on_c, 9, 38, 0
1, 62077, Note_on_c, 4, 40, 0
1, 62078, Control_c, 3, 1, 125
1, 62079, Control_c, 3, 1, 121
1, 62081, Note_on_c, 2, 57, 0
1, 62082, Note_on_c, 6, 57, 0
1, 62084, Note_on_c, 6, 52, 0
1, 62084, Control_c, 3, 1, 119
1, 62088, Control_c, 3, 1, 99
1, 62093, Note_on_c, 0, 57, 0
1, 62094, Control_c, 3, 1, 77
1, 62099, Note_on_c, 0, 66, 0
1, 62099, Note_on_c, 0, 62, 0
1, 62100, Control_c, 3, 1, 24
1, 62102, Control_c, 3, 1, 0
1, 62107, Note_on_c, 7, 64, 0
1, 62111, Note_on_c, 7, 73, 0
1, 62112, Note_on_c, 1, 42, 127
1, 62113, Note_on_c, 9, 40, 96
1, 62114, Note_on_c, 9, 40, 0
1, 62114, Note_on_c, 9, 28, 92
1, 62115, Note_on_c, 9, 28, 0
1, 62116, Note_on_c, 4, 42, 127
1, 62119, Note_on_c, 4, 49, 127
1, 62130, Note_on_c, 3, 69, 0
1, 62151, Note_on_c, 4, 42, 0
1, 62152, Note_on_c, 4, 49, 0
1, 62159, Note_on_c, 2, 57, 117
1, 62159, Note_on_c, 6, 52, 126
1, 62160, Note_on_c, 6, 57, 127
1, 62165, Note_on_c, 9, 38, 23
1, 62166, Note_on_c, 9, 38, 0
1, 62169, Note_on_c, 4, 45, 127
1, 62170, Note_on_c, 4, 57, 127
1, 62177, Note_on_c, 2, 57, 0
1, 62178, Note_on_c, 6, 57, 0
1, 62180, Note_on_c, 6, 52, 0
1, 62205, Note_on_c, 4, 57, 0
1, 62206, Note_on_c, 4, 45, 0
1, 62206, Note_on_c, 1, 42, 0
1, 62207, Note_on_c, 0, 64, 117
1, 62207, Note_on_c, 1, 33, 127
1, 62208, Note_on_c, 0, 57, 117
1, 62209, Note_on_c, 0, 61, 117
1, 62209, Note_on_c, 9, 38, 53
1, 62210, Note_on_c, 9, 35, 111
1, 62212, Note_on_c, 9, 35, 0
1, 62212, Note_on_c, 9, 38, 0
1, 62213, Note_on_c, 4, 45, 127
1, 62234, Note_on_c, 0, 57, 0
1, 62239, Note_on_c, 0, 61, 0
1, 62240, Note_on_c, 0, 64, 0
1, 62252, Note_on_c, 4, 45, 0
1, 62255, Note_on_c, 6, 55, 83
1, 62261, Note_on_c, 9, 38, 42
1, 62262, Note_on_c, 9, 38, 0
1, 62262, Note_on_c, 4, 42, 127
1, 62265, Note_on_c, 4, 57, 127
1, 62296, Note_on_c, 4, 42, 0
1, 62300, Note_on_c, 4, 57, 0
1, 62302, Note_on_c, 6, 55, 0
1, 62302, Note_on_c, 6, 55, 71
1, 62305, Note_on_c, 2, 45, 127
1, 62305, Note_on_c, 8, 45, 127
1, 62305, Note_on_c, 9, 40, 97
1, 62305, Note_on_c, 9, 28, 91
1, 62306, Note_on_c, 9, 40, 0
1, 62307, Note_on_c, 9, 28, 0
1, 62307, Note_on_c, 4, 42, 127
1, 62309, Note_on_c, 1, 33, 0
1, 62312, Note_on_c, 4, 49, 127
1, 62347, Note_on_c, 6, 55, 0
1, 62350, Note_on_c, 0, 61, 117
1, 62351, Note_on_c, 0, 64, 117
1, 62351, Note_on_c, 1, 33, 120
1, 62352, Note_on_c, 0, 57, 117
1, 62353, Note_on_c, 6, 55, 108
1, 62353, Note_on_c, 9, 35, 68
1, 62354, Note_on_c, 9, 35, 0
1, 62354, Note_on_c, 4, 42, 0
1, 62356, Note_on_c, 4, 49, 0
1, 62357, Note_on_c, 9, 38, 27
1, 62358, Note_on_c, 9, 38, 0
1, 62369, Note_on_c, 1, 33, 0
1, 62379, Note_on_c, 0, 57, 0
1, 62385, Note_on_c, 0, 61, 0
1, 62388, Note_on_c, 8, 45, 0
1, 62388, Note_on_c, 0, 64, 0
1, 62389, Note_on_c, 2, 45, 0
1, 62398, Note_on_c, 6, 55, 0
1, 62398, Note_on_c, 6, 54, 83
1, 62400, Note_on_c, 1, 35, 127
1, 62401, Note_on_c, 8, 47, 127
1, 62401, Note_on_c, 9, 38, 52
1, 62401, Note_on_c, 9, 35, 110
1, 62402, Note_on_c, 2, 47, 127
1, 62403, Note_on_c, 9, 35, 0
1, 62403, Note_on_c, 9, 38, 0
1, 62403, Note_on_c, 4, 43, 127
1, 62444, Note_on_c, 6, 54, 0
1, 62447, Note_on_c, 0, 64, 117
1, 62448, Note_on_c, 0, 61, 117
1, 62448, Note_on_c, 0, 57, 117
1, 62448, Note_on_c, 6, 55, 121
1, 62449, Note_on_c, 4, 43, 0
1, 62453, Note_on_c, 9, 40, 77
1, 62454, Note_on_c, 9, 40, 0
1, 62460, Note_on_c, 8, 47, 0
1, 62461, Note_on_c, 2, 47, 0
1, 62465, Note_on_c, 1, 35, 0
1, 62479, Note_on_c, 0, 57, 0
1, 62485, Note_on_c, 0, 61, 0
1, 62490, Note_on_c, 0, 64, 0
1, 62494, Note_on_c, 6, 54, 121
1, 62495, Note_on_c, 6, 55, 0
1, 62496, Note_on_c, 1, 37, 127
1, 62497, Note_on_c, 8, 49, 127
1, 62497, Note_on_c, 9, 40, 96
1, 62497, Note_on_c, 9, 28, 92
1, 62498, Note_on_c, 9, 40, 0
1, 62498, Note_on_c, 2, 49, 127
1, 62499, Note_on_c, 9, 28, 0
1, 62499, Note_on_c, 4, 42, 127
1, 62501, Note_on_c, 4, 49, 127
1, 62540, Note_on_c, 6, 54, 0
1, 62544, Note_on_c, 6, 55, 127
1, 62548, Note_on_c, 9, 38, 23
1, 62549, Note_on_c, 4, 42, 0
1, 62550, Note_on_c, 9, 38, 0
1, 62551, Note_on_c, 4, 49, 0
1, 62558, Pitch_bend_c, 3, 7872
1, 62561, Note_on_c, 1, 37, 0
1, 62561, Note_on_c, 8, 49, 0
1, 62562, Pitch_bend_c, 3, 7104
1, 62563, Note_on_c, 2, 49, 0
1, 62567, Pitch_bend_c, 3, 6240
1, 62570, Pitch_bend_c, 3, 5312
1, 62578, Pitch_bend_c, 3, 4352
1, 62582, Pitch_bend_c, 3, 3360
1, 62589, Pitch_bend_c, 3, 3780
1, 62591, Note_on_c, 7, 66, 127
1, 62591, Note_on_c, 7, 74, 127
1, 62592, Note_on_c, 1, 38, 127
1, 62592, Note_on_c, 6, 57, 101
1, 62593, Note_on_c, 6, 54, 101
1, 62593, Note_on_c, 9, 38, 43
1, 62594, Note_on_c, 6, 62, 100
1, 62594, Note_on_c, 9, 35, 111
1, 62595, Note_on_c, 6, 55, 0
1, 62596, Note_on_c, 9, 35, 0
1, 62596, Note_on_c, 9, 38, 0
1, 62596, Pitch_bend_c, 3, 4620
1, 62597, Note_on_c, 8, 50, 127
1, 62598, Note_on_c, 2, 50, 127
1, 62599, Note_on_c, 3, 71, 127
1, 62600, Note_on_c, 4, 50, 127
1, 62601, Pitch_bend_c, 3, 5461
1, 62602, Pitch_bend_c, 3, 7584
1, 62607, Pitch_bend_c, 3, 8064
1, 62608, Pitch_bend_c, 3, 8192
1, 62638, Note_on_c, 6, 57, 0
1, 62638, Note_on_c, 6, 62, 0
1, 62640, Note_on_c, 6, 54, 0
1, 62640, Note_on_c, 6, 54, 84
1, 62640, Note_on_c, 6, 57, 87
1, 62641, Note_on_c, 6, 62, 84
1, 62642, Note_on_c, 4, 50, 0
1, 62645, Note_on_c, 9, 38, 45
1, 62646, Note_on_c, 9, 38, 0
1, 62662, Note_on_c, 2, 50, 0
1, 62662, Note_on_c, 8, 50, 0
1, 62663, Note_on_c, 7, 74, 0
1, 62664, Note_on_c, 7, 66, 0
1, 62666, Note_on_c, 3, 71, 0
1, 62685, Note_on_c, 6, 62, 0
1, 62686, Note_on_c, 6, 54, 0
1, 62686, Note_on_c, 6, 62, 110
1, 62686, Note_on_c, 6, 54, 115
1, 62687, Note_on_c, 6, 59, 118
1, 62689, Note_on_c, 6, 57, 0
1, 62689, Note_on_c, 9, 40, 98
1, 62690, Note_on_c, 0, 66, 117
1, 62690, Note_on_c, 9, 28, 94
1, 62691, Note_on_c, 9, 40, 0
1, 62691, Note_on_c, 0, 62, 117
1, 62692, Note_on_c, 9, 28, 0
1, 62692, Note_on_c, 0, 57, 117
1, 62693, Note_on_c, 7, 66, 125
1, 62694, Note_on_c, 7, 74, 127
1, 62695, Note_on_c, 3, 71, 127
1, 62695, Note_on_c, 4, 47, 127
1, 62696, Note_on_c, 4, 54, 127
1, 62700, Note_on_c, 1, 38, 0
1, 62705, Note_on_c, 6, 54, 0
1, 62707, Note_on_c, 6, 59, 0
1, 62711, Note_on_c, 0, 57, 0
1, 62713, Note_on_c, 6, 62, 0
1, 62715, Note_on_c, 7, 74, 0
1, 62715, Note_on_c, 0, 62, 0
1, 62716, Note_on_c, 7, 66, 0
1, 62721, Note_on_c, 3, 71, 0
1, 62722, Note_on_c, 0, 66, 0
1, 62735, Note_on_c, 7, 74, 127
1, 62736, Note_on_c, 1, 38, 120
1, 62736, Note_on_c, 6, 57, 96
1, 62736, Note_on_c, 6, 62, 82
1, 62737, Note_on_c, 6, 54, 70
1, 62738, Note_on_c, 7, 66, 127
1, 62739, Note_on_c, 3, 71, 127
1, 62741, Note_on_c, 4, 54, 0
1, 62741, Note_on_c, 9, 38, 25
1, 62742, Note_on_c, 9, 38, 0
1, 62742, Note_on_c, 4, 47, 0
1, 62755, Note_on_c, 1, 38, 0
1, 62781, Note_on_c, 6, 57, 0
1, 62781, Note_on_c, 6, 62, 0
1, 62782, Note_on_c, 6, 57, 115
1, 62783, Note_on_c, 6, 62, 111
1, 62784, Note_on_c, 6, 54, 0
1, 62784, Note_on_c, 1, 33, 127
1, 62784, Note_on_c, 6, 54, 112
1, 62785, Note_on_c, 9, 38, 54
1, 62786, Note_on_c, 9, 35, 110
1, 62787, Note_on_c, 9, 35, 0
1, 62787, Note_on_c, 9, 38, 0
1, 62787, Note_on_c, 4, 45, 127
1, 62793, Note_on_c, 7, 74, 0
1, 62797, Note_on_c, 7, 66, 0
1, 62802, Note_on_c, 3, 71, 0
1, 62825, Note_on_c, 6, 62, 0
1, 62827, Note_on_c, 6, 54, 0
1, 62828, Note_on_c, 6, 57, 0
1, 62832, Note_on_c, 0, 66, 117
1, 62832, Note_on_c, 0, 57, 117
1, 62832, Note_on_c, 0, 62, 117
1, 62833, Note_on_c, 3, 71, 127
1, 62833, Note_on_c, 6, 57, 90
1, 62834, Note_on_c, 6, 54, 86
1, 62835, Note_on_c, 6, 62, 85
1, 62835, Note_on_c, 7, 66, 127
1, 62836, Note_on_c, 7, 74, 127
1, 62836, Note_on_c, 9, 38, 45
1, 62837, Note_on_c, 9, 38, 0
1, 62845, Note_on_c, 4, 45, 0
1, 62845, Note_on_c, 1, 33, 0
1, 62857, Note_on_c, 0, 57, 0
1, 62860, Note_on_c, 0, 62, 0
1, 62864, Note_on_c, 0, 66, 0
1, 62873, Pitch_bend_c, 3, 8317
1, 62876, Pitch_bend_c, 3, 8192
1, 62877, Note_on_c, 6, 57, 0
1, 62878, Note_on_c, 6, 62, 0
1, 62879, Note_on_c, 6, 54, 0
1, 62880, Note_on_c, 1, 38, 127
1, 62880, Note_on_c, 6, 62, 108
1, 62880, Note_on_c, 6, 54, 113
1, 62880, Note_on_c, 6, 59, 116
1, 62881, Note_on_c, 9, 40, 97
1, 62882, Note_on_c, 9, 40, 0
1, 62882, Note_on_c, 9, 28, 90
1, 62883, Note_on_c, 9, 28, 0
1, 62884, Note_on_c, 4, 47, 127
1, 62886, Note_on_c, 4, 54, 127
1, 62895, Note_on_c, 6, 54, 0
1, 62896, Note_on_c, 7, 74, 0
1, 62897, Note_on_c, 6, 59, 0
1, 62899, Note_on_c, 7, 66, 0
1, 62902, Note_on_c, 6, 62, 0
1, 62902, Note_on_c, 3, 71, 0
1, 62918, Note_on_c, 4, 47, 0
1, 62920, Note_on_c, 4, 54, 0
1, 62928, Note_on_c, 6, 57, 82
1, 62928, Note_on_c, 6, 62, 88
1, 62929, Note_on_c, 6, 54, 88
1, 62932, Note_on_c, 9, 38, 25
1, 62933, Note_on_c, 9, 38, 0
1, 62936, Note_on_c, 4, 50, 127
1, 62939, Note_on_c, 4, 62, 127
1, 62955, Note_on_c, 1, 38, 0
1, 62968, Pitch_bend_c, 3, 2848
1, 62970, Pitch_bend_c, 3, 2656
1, 62973, Note_on_c, 6, 54, 0
1, 62973, Note_on_c, 6, 62, 0
1, 62974, Note_on_c, 4, 62, 0
1, 62975, Note_on_c, 6, 57, 0
1, 62975, Note_on_c, 1, 40, 126
1, 62976, Note_on_c, 4, 50, 0
1, 62977, Note_on_c, 0, 68, 117
1, 62977, Note_on_c, 9, 38, 53
1, 62978, Note_on_c, 0, 64, 117
1, 62978, Note_on_c, 9, 35, 111
1, 62979, Note_on_c, 0, 59, 117
1, 62980, Note_on_c, 9, 35, 0
1, 62980, Note_on_c, 9, 38, 0
1, 62980, Pitch_bend_c, 3, 2720
1, 62981, Note_on_c, 6, 56, 109
1, 62982, Note_on_c, 6, 52, 112
1, 62983, Note_on_c, 6, 59, 107
1, 62984, Note_on_c, 7, 68, 127
1, 62985, Note_on_c, 7, 64, 127
1, 62986, Note_on_c, 3, 73, 124
1, 62987, Note_on_c, 4, 52, 127
1, 62988, Pitch_bend_c, 3, 3360
1, 62989, Pitch_bend_c, 3, 5120
1, 62990, Note_on_c, 6, 59, 0
1, 62992, Pitch_bend_c, 3, 5856
1, 62996, Note_on_c, 6, 52, 0
1, 62997, Pitch_bend_c, 3, 7392
1, 62998, Note_on_c, 6, 56, 0
1, 62999, Pitch_bend_c, 3, 7904
1, 63001, Note_on_c, 0, 59, 0
1, 63002, Pitch_bend_c, 3, 8160
1, 63003, Pitch_bend_c, 3, 8192
1, 63008, Note_on_c, 0, 68, 0
1, 63008, Note_on_c, 0, 64, 0
1, 63017, Note_on_c, 4, 52, 0
1, 63029, Note_on_c, 4, 49, 127
1, 63029, Note_on_c, 9, 38, 42
1, 63030, Note_on_c, 9, 38, 0
1, 63032, Note_on_c, 4, 64, 127
1, 63051, Note_on_c, 7, 64, 0
1, 63052, Note_on_c, 3, 73, 0
1, 63053, Note_on_c, 7, 68, 0
1, 63062, Note_on_c, 4, 49, 0
1, 63065, Note_on_c, 4, 64, 0
1, 63070, Note_on_c, 6, 59, 118
1, 63070, Note_on_c, 6, 56, 127
1, 63071, Note_on_c, 6, 52, 127
1, 63072, Note_on_c, 7, 64, 127
1, 63072, Note_on_c, 7, 68, 124
1, 63073, Note_on_c, 9, 40, 97
1, 63074, Note_on_c, 9, 40, 0
1, 63074, Note_on_c, 4, 40, 127
1, 63074, Note_on_c, 9, 28, 91
1, 63075, Note_on_c, 9, 28, 0
1, 63080, Note_on_c, 1, 40, 0
1, 63080, Note_on_c, 3, 73, 122
1, 63095, Note_on_c, 7, 68, 0
1, 63096, Note_on_c, 7, 64, 0
1, 63100, Note_on_c, 3, 73, 0
1, 63118, Note_on_c, 0, 68, 117
1, 63119, Note_on_c, 0, 59, 117
1, 63120, Note_on_c, 0, 64, 117
1, 63120, Note_on_c, 1, 40, 120
1, 63121, Note_on_c, 7, 64, 127
1, 63121, Note_on_c, 9, 35, 68
1, 63122, Note_on_c, 7, 68, 127
1, 63123, Note_on_c, 9, 35, 0
1, 63123, Note_on_c, 4, 40, 0
1, 63124, Note_on_c, 3, 73, 124
1, 63125, Note_on_c, 9, 38, 27
1, 63126, Note_on_c, 9, 38, 0
1, 63140, Note_on_c, 1, 40, 0
1, 63142, Note_on_c, 0, 64, 0
1, 63142, Note_on_c, 0, 59, 0
1, 63149, Note_on_c, 0, 68, 0
1, 63168, Note_on_c, 1, 35, 127
1, 63168, Note_on_c, 9, 38, 52
1, 63169, Note_on_c, 4, 42, 127
1, 63169, Note_on_c, 9, 35, 110
1, 63171, Note_on_c, 9, 35, 0
1, 63171, Note_on_c, 9, 38, 0
1, 63177, Note_on_c, 6, 52, 0
1, 63180, Note_on_c, 6, 56, 0
1, 63181, Note_on_c, 6, 59, 0
1, 63184, Note_on_c, 7, 64, 0
1, 63187, Note_on_c, 7, 68, 0
1, 63193, Note_on_c, 3, 73, 0
1, 63214, Note_on_c, 7, 64, 127
1, 63214, Note_on_c, 7, 73, 127
1, 63215, Note_on_c, 4, 42, 0
1, 63217, Note_on_c, 3, 69, 127
1, 63218, Note_on_c, 6, 56, 69
1, 63219, Note_on_c, 6, 52, 72
1, 63220, Note_on_c, 6, 56, 0
1, 63220, Note_on_c, 6, 59, 67
1, 63220, Note_on_c, 9, 38, 47
1, 63221, Note_on_c, 6, 59, 0
1, 63222, Note_on_c, 6, 52, 0
1, 63222, Note_on_c, 9, 38, 0
1, 63225, Note_on_c, 1, 35, 0
1, 63259, Note_on_c, 7, 64, 0
1, 63262, Note_on_c, 0, 68, 117
1, 63263, Note_on_c, 0, 59, 117
1, 63264, Note_on_c, 0, 64, 117
1, 63264, Note_on_c, 1, 40, 127
1, 63265, Note_on_c, 6, 56, 109
1, 63265, Note_on_c, 9, 40, 96
1, 63265, Note_on_c, 9, 28, 92
1, 63266, Note_on_c, 9, 40, 0
1, 63266, Note_on_c, 6, 52, 112
1, 63267, Note_on_c, 9, 28, 0
1, 63267, Note_on_c, 6, 59, 107
1, 63268, Note_on_c, 4, 44, 127
1, 63269, Note_on_c, 3, 69, 0
1, 63270, Note_on_c, 7, 73, 0
1, 63277, Note_on_c, 6, 59, 0
1, 63283, Note_on_c, 6, 52, 0
1, 63285, Note_on_c, 6, 56, 0
1, 63287, Note_on_c, 0, 59, 0
1, 63294, Note_on_c, 0, 64, 0
1, 63297, Note_on_c, 0, 68, 0
1, 63309, Note_on_c, 7, 64, 120
1, 63310, Note_on_c, 7, 73, 106
1, 63315, Note_on_c, 4, 44, 0
1, 63315, Note_on_c, 3, 69, 109
1, 63317, Note_on_c, 9, 38, 23
1, 63318, Note_on_c, 9, 38, 0
1, 63324, Note_on_c, 1, 40, 0
1, 63334, Note_on_c, 3, 69, 0
1, 63334, Note_on_c, 7, 64, 0
1, 63335, Note_on_c, 7, 73, 0
1, 63357, Note_on_c, 7, 64, 127
1, 63360, Note_on_c, 1, 33, 127
1, 63360, Note_on_c, 6, 45, 125
1, 63360, Note_on_c, 7, 73, 127
1, 63361, Note_on_c, 4, 45, 127
1, 63361, Note_on_c, 9, 38, 43
1, 63362, Note_on_c, 3, 69, 127
1, 63362, Note_on_c, 9, 35, 111
1, 63364, Note_on_c, 9, 35, 0
1, 63364, Note_on_c, 9, 38, 0
1, 63406, Note_on_c, 4, 45, 0
1, 63412, Note_on_c, 9, 38, 45
1, 63415, Note_on_c, 9, 38, 0
1, 63430, Note_on_c, 3, 69, 0
1, 63434, Note_on_c, 7, 64, 0
1, 63438, Note_on_c, 7, 73, 0
1, 63439, Note_on_c, 6, 45, 0
1, 63453, Note_on_c, 6, 52, 126
1, 63454, Note_on_c, 6, 57, 127
1, 63455, Note_on_c, 1, 33, 0
1, 63456, Note_on_c, 0, 64, 117
1, 63456, Note_on_c, 0, 61, 117
1, 63456, Note_on_c, 0, 57, 117
1, 63457, Note_on_c, 2, 57, 127
1, 63457, Note_on_c, 9, 40, 98
1, 63458, Note_on_c, 7, 64, 127
1, 63458, Note_on_c, 9, 28, 94
1, 63459, Note_on_c, 9, 40, 0
1, 63459, Note_on_c, 3, 69, 115
1, 63460, Note_on_c, 9, 28, 0
1, 63460, Note_on_c, 7, 73, 125
1, 63461, Note_on_c, 4, 42, 127
1, 63462, Note_on_c, 6, 52, 0
1, 63463, Note_on_c, 4, 49, 127
1, 63464, Note_on_c, 6, 57, 0
1, 63465, Note_on_c, 2, 57, 0
1, 63481, Note_on_c, 7, 64, 0
1, 63482, Note_on_c, 0, 61, 0
1, 63482, Note_on_c, 0, 57, 0
1, 63484, Note_on_c, 7, 73, 0
1, 63486, Note_on_c, 0, 64, 0
1, 63497, Note_on_c, 3, 69, 0
1, 63504, Note_on_c, 1, 33, 123
1, 63504, Note_on_c, 6, 52, 63
1, 63504, Note_on_c, 7, 64, 127
1, 63505, Note_on_c, 3, 69, 115
1, 63506, Note_on_c, 6, 57, 71
1, 63507, Note_on_c, 7, 73, 127
1, 63508, Note_on_c, 6, 52, 0
1, 63509, Note_on_c, 4, 49, 0
1, 63509, Note_on_c, 9, 38, 25
1, 63510, Note_on_c, 9, 38, 0
1, 63510, Note_on_c, 6, 57, 0
1, 63511, Note_on_c, 4, 42, 0
1, 63524, Note_on_c, 1, 33, 0
1, 63549, Note_on_c, 6, 52, 63
1, 63550, Note_on_c, 6, 57, 58
1, 63552, Note_on_c, 6, 57, 0
1, 63552, Note_on_c, 6, 52, 0
1, 63552, Note_on_c, 1, 40, 127
1, 63552, Note_on_c, 9, 38, 54
1, 63553, Note_on_c, 4, 40, 127
1, 63553, Note_on_c, 9, 35, 110
1, 63555, Note_on_c, 9, 35, 0
1, 63555, Note_on_c, 9, 38, 0
1, 63562, Control_c, 3, 1, 6
1, 63565, Control_c, 3, 1, 23
1, 63571, Control_c, 3, 1, 44
1, 63574, Control_c, 3, 1, 66
1, 63581, Control_c, 3, 1, 76
1, 63583, Control_c, 3, 1, 94
1, 63586, Control_c, 3, 1, 110
1, 63593, Control_c, 3, 1, 120
1, 63597, Control_c, 3, 1, 123
1, 63599, Note_on_c, 0, 66, 117
1, 63600, Note_on_c, 0, 57, 117
1, 63600, Note_on_c, 0, 62, 117
1, 63601, Note_on_c, 2, 57, 127
1, 63601, Note_on_c, 6, 52, 126
1, 63602, Note_on_c, 6, 57, 127
1, 63603, Control_c, 3, 1, 127
1, 63605, Note_on_c, 9, 38, 45
1, 63606, Note_on_c, 9, 38, 0
1, 63611, Note_on_c, 4, 40, 0
1, 63615, Control_c, 3, 1, 124
1, 63617, Note_on_c, 2, 57, 0
1, 63618, Note_on_c, 6, 57, 0
1, 63618, Control_c, 3, 1, 119
1, 63620, Note_on_c, 6, 52, 0
1, 63621, Note_on_c, 0, 57, 0
1, 63624, Control_c, 3, 1, 110
1, 63627, Note_on_c, 0, 62, 0
1, 63628, Control_c, 3, 1, 77
1, 63631, Note_on_c, 0, 66, 0
1, 63635, Control_c, 3, 1, 24
1, 63638, Control_c, 3, 1, 0
1, 63649, Note_on_c, 4, 42, 127
1, 63649, Note_on_c, 9, 40, 97
1, 63649, Note_on_c, 9, 28, 90
1, 63650, Note_on_c, 9, 28, 0
1, 63650, Note_on_c, 9, 40, 0
1, 63652, Note_on_c, 4, 49, 127
1, 63659, Note_on_c, 7, 73, 0
1, 63661, Note_on_c, 7, 64, 0
1, 63666, Note_on_c, 3, 69, 0
1, 63673, Note_on_c, 1, 40, 0
1, 63684, Note_on_c, 4, 42, 0
1, 63687, Note_on_c, 4, 49, 0
1, 63694, Note_on_c, 2, 57, 127
1, 63695, Note_on_c, 6, 52, 126
1, 63696, Note_on_c, 6, 57, 127
1, 63701, Note_on_c, 9, 38, 25
1, 63702, Note_on_c, 9, 38, 0
1, 63703, Note_on_c, 4, 45, 127
1, 63705, Note_on_c, 4, 57, 127
1, 63713, Note_on_c, 2, 57, 0
1, 63714, Note_on_c, 6, 57, 0
1, 63716, Note_on_c, 6, 52, 0
1, 63739, Note_on_c, 4, 57, 0
1, 63739, Note_on_c, 4, 45, 0
1, 63742, Note_on_c, 0, 64, 117
1, 63743, Note_on_c, 0, 61, 117
1, 63743, Note_on_c, 1, 33, 127
1, 63744, Note_on_c, 0, 57, 117
1, 63745, Note_on_c, 9, 38, 53
1, 63746, Note_on_c, 9, 35, 111
1, 63748, Note_on_c, 9, 35, 0
1, 63748, Note_on_c, 9, 38, 0
1, 63749, Note_on_c, 4, 45, 127
1, 63766, Note_on_c, 0, 57, 0
1, 63769, Note_on_c, 0, 61, 0
1, 63774, Note_on_c, 0, 64, 0
1, 63787, Note_on_c, 4, 45, 0
1, 63792, Note_on_c, 6, 55, 83
1, 63796, Note_on_c, 9, 38, 42
1, 63798, Note_on_c, 9, 38, 0
1, 63798, Note_on_c, 4, 42, 127
1, 63801, Note_on_c, 4, 57, 127
1, 63831, Note_on_c, 4, 42, 0
1, 63835, Note_on_c, 4, 57, 0
1, 63838, Note_on_c, 6, 55, 0
1, 63838, Note_on_c, 6, 55, 71
1, 63841, Note_on_c, 2, 45, 127
1, 63841, Note_on_c, 8, 45, 127
1, 63841, Note_on_c, 9, 40, 97
1, 63841, Note_on_c, 9, 28, 91
1, 63842, Note_on_c, 9, 40, 0
1, 63843, Note_on_c, 9, 28, 0
1, 63843, Note_on_c, 4, 42, 127
1, 63845, Note_on_c, 1, 33, 0
1, 63848, Note_on_c, 4, 49, 127
1, 63883, Note_on_c, 6, 55, 0
1, 63886, Note_on_c, 0, 64, 117
1, 63887, Note_on_c, 0, 61, 117
1, 63888, Note_on_c, 0, 57, 117
1, 63888, Note_on_c, 1, 33, 115
1, 63889, Note_on_c, 6, 55, 108
1, 63889, Note_on_c, 9, 35, 68
1, 63890, Note_on_c, 9, 35, 0
1, 63890, Note_on_c, 4, 42, 0
1, 63892, Note_on_c, 4, 49, 0
1, 63893, Note_on_c, 9, 38, 47
1, 63894, Note_on_c, 9, 38, 0
1, 63906, Note_on_c, 1, 33, 0
1, 63909, Note_on_c, 0, 57, 0
1, 63913, Note_on_c, 0, 61, 0
1, 63913, Note_on_c, 9, 38, 47
1, 63914, Note_on_c, 9, 38, 0
1, 63916, Note_on_c, 0, 64, 0
1, 63923, Note_on_c, 8, 45, 0
1, 63925, Note_on_c, 2, 45, 0
1, 63934, Note_on_c, 6, 55, 0
1, 63934, Note_on_c, 6, 54, 83
1, 63936, Note_on_c, 1, 35, 127
1, 63937, Note_on_c, 8, 47, 127
1, 63937, Note_on_c, 9, 38, 52
1, 63937, Note_on_c, 9, 35, 110
1, 63938, Note_on_c, 2, 47, 127
1, 63939, Note_on_c, 9, 35, 0
1, 63939, Note_on_c, 9, 38, 0
1, 63939, Note_on_c, 4, 43, 127
1, 63980, Note_on_c, 6, 54, 0
1, 63984, Note_on_c, 0, 64, 117
1, 63984, Note_on_c, 0, 61, 117
1, 63984, Note_on_c, 0, 57, 117
1, 63984, Note_on_c, 6, 55, 121
1, 63985, Note_on_c, 4, 43, 0
1, 63989, Note_on_c, 9, 40, 77
1, 63990, Note_on_c, 9, 40, 0
1, 63996, Note_on_c, 8, 47, 0
1, 63997, Note_on_c, 2, 47, 0
1, 64000, Note_on_c, 1, 35, 0
1, 64009, Note_on_c, 0, 57, 0
1, 64016, Note_on_c, 0, 61, 0
1, 64019, Note_on_c, 0, 64, 0
1, 64029, Note_on_c, 6, 54, 121
1, 64030, Note_on_c, 6, 55, 0
1, 64032, Note_on_c, 1, 37, 127
1, 64033, Note_on_c, 8, 49, 127
1, 64033, Note_on_c, 9, 40, 96
1, 64034, Note_on_c, 9, 40, 0
1, 64034, Note_on_c, 2, 49, 127
1, 64034, Note_on_c, 9, 28, 92
1, 64035, Note_on_c, 9, 28, 0
1, 64035, Note_on_c, 4, 42, 127
1, 64037, Note_on_c, 4, 49, 127
1, 64076, Note_on_c, 6, 54, 0
1, 64080, Note_on_c, 6, 55, 127
1, 64084, Note_on_c, 9, 38, 23
1, 64085, Note_on_c, 4, 42, 0
1, 64086, Note_on_c, 9, 38, 0
1, 64087, Note_on_c, 4, 49, 0
1, 64090, Note_on_c, 1, 37, 0
1, 64094, Pitch_bend_c, 3, 7872
1, 64097, Note_on_c, 8, 49, 0
1, 64097, Pitch_bend_c, 3, 7104
1, 64098, Note_on_c, 2, 49, 0
1, 64102, Pitch_bend_c, 3, 6688
1, 64105, Pitch_bend_c, 3, 5792
1, 64109, Pitch_bend_c, 3, 5312
1, 64115, Pitch_bend_c, 3, 3936
1, 64119, Pitch_bend_c, 3, 3584
1, 64125, Pitch_bend_c, 3, 3780
1, 64126, Pitch_bend_c, 3, 4368
1, 64127, Note_on_c, 7, 66, 127
1, 64128, Note_on_c, 1, 38, 127
1, 64128, Note_on_c, 6, 57, 101
1, 64128, Note_on_c, 7, 74, 127
1, 64129, Note_on_c, 6, 54, 101
1, 64129, Note_on_c, 9, 38, 43
1, 64130, Note_on_c, 6, 62, 100
1, 64130, Note_on_c, 9, 35, 111
1, 64131, Note_on_c, 6, 55, 0
1, 64132, Note_on_c, 9, 35, 0
1, 64132, Note_on_c, 9, 38, 0
1, 64132, Pitch_bend_c, 3, 5041
1, 64133, Note_on_c, 8, 50, 127
1, 64134, Note_on_c, 2, 50, 127
1, 64135, Note_on_c, 3, 71, 127
1, 64136, Note_on_c, 4, 50, 127
1, 64137, Pitch_bend_c, 3, 6301
1, 64138, Pitch_bend_c, 3, 6944
1, 64139, Pitch_bend_c, 3, 7584
1, 64141, Pitch_bend_c, 3, 8064
1, 64143, Pitch_bend_c, 3, 8192
1, 64175, Note_on_c, 6, 57, 0
1, 64175, Note_on_c, 6, 62, 0
1, 64176, Note_on_c, 6, 54, 0
1, 64176, Note_on_c, 6, 54, 84
1, 64176, Note_on_c, 6, 57, 87
1, 64177, Note_on_c, 6, 62, 84
1, 64178, Note_on_c, 4, 50, 0
1, 64181, Note_on_c, 9, 38, 45
1, 64182, Note_on_c, 9, 38, 0
1, 64197, Note_on_c, 8, 50, 0
1, 64198, Note_on_c, 2, 50, 0
1, 64199, Note_on_c, 7, 74, 0
1, 64200, Note_on_c, 7, 66, 0
1, 64203, Note_on_c, 3, 71, 0
1, 64221, Note_on_c, 6, 62, 0
1, 64222, Note_on_c, 6, 54, 0
1, 64222, Note_on_c, 6, 62, 110
1, 64222, Note_on_c, 6, 54, 115
1, 64223, Note_on_c, 6, 59, 118
1, 64224, Note_on_c, 9, 40, 98
1, 64225, Note_on_c, 6, 57, 0
1, 64226, Note_on_c, 9, 40, 0
1, 64226, Note_on_c, 0, 66, 117
1, 64226, Note_on_c, 0, 62, 117
1, 64226, Note_on_c, 9, 28, 94
1, 64227, Note_on_c, 9, 28, 0
1, 64227, Note_on_c, 0, 57, 117
1, 64228, Note_on_c, 1, 38, 0
1, 64228, Note_on_c, 7, 66, 125
1, 64229, Note_on_c, 7, 74, 127
1, 64230, Note_on_c, 3, 71, 127
1, 64231, Note_on_c, 4, 47, 127
1, 64232, Note_on_c, 4, 54, 127
1, 64241, Note_on_c, 6, 54, 0
1, 64243, Note_on_c, 0, 57, 0
1, 64244, Note_on_c, 6, 59, 0
1, 64245, Note_on_c, 0, 62, 0
1, 64249, Note_on_c, 6, 62, 0
1, 64250, Note_on_c, 0, 66, 0
1, 64251, Note_on_c, 7, 74, 0
1, 64252, Note_on_c, 7, 66, 0
1, 64257, Note_on_c, 3, 71, 0
1, 64272, Note_on_c, 1, 38, 113
1, 64272, Note_on_c, 6, 57, 96
1, 64272, Note_on_c, 6, 62, 82
1, 64272, Note_on_c, 7, 74, 127
1, 64273, Note_on_c, 6, 54, 70
1, 64274, Note_on_c, 7, 66, 127
1, 64275, Note_on_c, 3, 71, 127
1, 64277, Note_on_c, 4, 54, 0
1, 64277, Note_on_c, 4, 47, 0
1, 64277, Note_on_c, 9, 38, 25
1, 64278, Note_on_c, 9, 38, 0
1, 64294, Note_on_c, 1, 38, 0
1, 64317, Note_on_c, 6, 57, 0
1, 64318, Note_on_c, 6, 62, 0
1, 64318, Note_on_c, 6, 57, 115
1, 64319, Note_on_c, 6, 62, 111
1, 64320, Note_on_c, 6, 54, 0
1, 64320, Note_on_c, 1, 33, 127
1, 64320, Note_on_c, 6, 54, 112
1, 64321, Note_on_c, 9, 38, 54
1, 64321, Note_on_c, 9, 35, 110
1, 64323, Note_on_c, 9, 35, 0
1, 64323, Note_on_c, 9, 38, 0
1, 64323, Note_on_c, 4, 45, 127
1, 64329, Note_on_c, 7, 74, 0
1, 64333, Note_on_c, 7, 66, 0
1, 64338, Note_on_c, 3, 71, 0
1, 64361, Note_on_c, 6, 62, 0
1, 64363, Note_on_c, 6, 54, 0
1, 64364, Note_on_c, 6, 57, 0
1, 64366, Note_on_c, 0, 66, 117
1, 64367, Note_on_c, 0, 62, 117
1, 64368, Note_on_c, 0, 57, 117
1, 64369, Note_on_c, 3, 71, 127
1, 64370, Note_on_c, 6, 57, 90
1, 64370, Note_on_c, 6, 54, 86
1, 64371, Note_on_c, 6, 62, 85
1, 64372, Note_on_c, 7, 66, 127
1, 64372, Note_on_c, 7, 74, 127
1, 64373, Note_on_c, 9, 38, 45
1, 64374, Note_on_c, 9, 38, 0
1, 64381, Note_on_c, 4, 45, 0
1, 64384, Note_on_c, 1, 33, 0
1, 64394, Note_on_c, 0, 57, 0
1, 64402, Note_on_c, 0, 62, 0
1, 64403, Note_on_c, 0, 66, 0
1, 64409, Pitch_bend_c, 3, 8317
1, 64411, Pitch_bend_c, 3, 8192
1, 64413, Note_on_c, 6, 62, 0
1, 64413, Note_on_c, 6, 57, 0
1, 64414, Note_on_c, 6, 54, 0
1, 64415, Note_on_c, 1, 38, 127
1, 64415, Note_on_c, 6, 62, 108
1, 64415, Note_on_c, 6, 54, 113
1, 64416, Note_on_c, 6, 59, 116
1, 64417, Note_on_c, 9, 40, 97
1, 64417, Note_on_c, 9, 28, 90
1, 64418, Note_on_c, 9, 40, 0
1, 64419, Note_on_c, 9, 28, 0
1, 64419, Note_on_c, 4, 47, 127
1, 64422, Note_on_c, 4, 54, 127
1, 64430, Note_on_c, 6, 54, 0
1, 64432, Note_on_c, 7, 74, 0
1, 64433, Note_on_c, 6, 59, 0
1, 64435, Note_on_c, 7, 66, 0
1, 64438, Note_on_c, 6, 62, 0
1, 64438, Note_on_c, 3, 71, 0
1, 64454, Note_on_c, 4, 47, 0
1, 64456, Note_on_c, 4, 54, 0
1, 64463, Note_on_c, 6, 57, 82
1, 64464, Note_on_c, 6, 62, 88
1, 64465, Note_on_c, 6, 54, 88
1, 64469, Note_on_c, 9, 38, 25
1, 64470, Note_on_c, 9, 38, 0
1, 64473, Note_on_c, 4, 50, 127
1, 64474, Note_on_c, 4, 62, 127
1, 64479, Note_on_c, 1, 38, 0
1, 64502, Pitch_bend_c, 3, 2848
1, 64506, Pitch_bend_c, 3, 2656
1, 64509, Note_on_c, 6, 54, 0
1, 64510, Note_on_c, 6, 62, 0
1, 64510, Note_on_c, 4, 62, 0
1, 64511, Note_on_c, 6, 57, 0
1, 64512, Note_on_c, 4, 50, 0
1, 64512, Note_on_c, 0, 68, 117
1, 64512, Note_on_c, 1, 40, 126
1, 64513, Note_on_c, 0, 59, 117
1, 64513, Note_on_c, 9, 38, 53
1, 64514, Note_on_c, 0, 64, 117
1, 64514, Note_on_c, 9, 35, 111
1, 64515, Pitch_bend_c, 3, 2720
1, 64516, Note_on_c, 9, 35, 0
1, 64516, Note_on_c, 9, 38, 0
1, 64516, Note_on_c, 6, 56, 109
1, 64517, Note_on_c, 6, 52, 112
1, 64518, Note_on_c, 6, 59, 107
1, 64519, Note_on_c, 7, 68, 127
1, 64520, Note_on_c, 7, 64, 127
1, 64521, Note_on_c, 3, 73, 124
1, 64522, Note_on_c, 4, 52, 127
1, 64523, Pitch_bend_c, 3, 3360
1, 64524, Pitch_bend_c, 3, 5120
1, 64525, Note_on_c, 6, 59, 0
1, 64528, Pitch_bend_c, 3, 5856
1, 64532, Note_on_c, 6, 52, 0
1, 64533, Pitch_bend_c, 3, 7392
1, 64534, Note_on_c, 6, 56, 0
1, 64535, Pitch_bend_c, 3, 8160
1, 64537, Note_on_c, 0, 59, 0
1, 64540, Note_on_c, 0, 64, 0
1, 64540, Pitch_bend_c, 3, 8192
1, 64544, Note_on_c, 0, 68, 0
1, 64554, Note_on_c, 4, 52, 0
1, 64564, Note_on_c, 4, 49, 127
1, 64564, Note_on_c, 9, 38, 42
1, 64565, Note_on_c, 9, 38, 0
1, 64568, Note_on_c, 4, 64, 127
1, 64588, Note_on_c, 3, 73, 0
1, 64588, Note_on_c, 7, 64, 0
1, 64589, Note_on_c, 7, 68, 0
1, 64597, Note_on_c, 4, 49, 0
1, 64601, Note_on_c, 4, 64, 0
1, 64605, Note_on_c, 6, 59, 118
1, 64606, Note_on_c, 6, 56, 127
1, 64607, Note_on_c, 6, 52, 127
1, 64608, Note_on_c, 1, 40, 0
1, 64608, Note_on_c, 7, 64, 127
1, 64609, Note_on_c, 7, 68, 124
1, 64609, Note_on_c, 9, 40, 97
1, 64610, Note_on_c, 9, 40, 0
1, 64610, Note_on_c, 4, 40, 127
1, 64610, Note_on_c, 9, 28, 91
1, 64611, Note_on_c, 9, 28, 0
1, 64616, Note_on_c, 3, 73, 122
1, 64632, Note_on_c, 7, 68, 0
1, 64632, Note_on_c, 7, 64, 0
1, 64636, Note_on_c, 3, 73, 0
1, 64655, Note_on_c, 0, 68, 117
1, 64655, Note_on_c, 0, 64, 117
1, 64656, Note_on_c, 0, 59, 117
1, 64656, Note_on_c, 1, 40, 116
1, 64657, Note_on_c, 7, 64, 127
1, 64657, Note_on_c, 9, 35, 68
1, 64658, Note_on_c, 9, 35, 0
1, 64658, Note_on_c, 7, 68, 127
1, 64659, Note_on_c, 4, 40, 0
1, 64660, Note_on_c, 3, 73, 124
1, 64661, Note_on_c, 9, 38, 27
1, 64662, Note_on_c, 9, 38, 0
1, 64682, Note_on_c, 1, 40, 0
1, 64702, Note_on_c, 0, 59, 0
1, 64702, Note_on_c, 0, 64, 0
1, 64704, Note_on_c, 1, 35, 127
1, 64705, Note_on_c, 9, 38, 52
1, 64706, Note_on_c, 4, 42, 127
1, 64706, Note_on_c, 9, 35, 110
1, 64707, Note_on_c, 9, 35, 0
1, 64707, Note_on_c, 0, 68, 0
1, 64708, Note_on_c, 9, 38, 0
1, 64713, Note_on_c, 6, 52, 0
1, 64716, Note_on_c, 6, 56, 0
1, 64717, Note_on_c, 6, 59, 0
1, 64720, Note_on_c, 7, 64, 0
1, 64723, Note_on_c, 7, 68, 0
1, 64729, Note_on_c, 3, 73, 0
1, 64751, Note_on_c, 7, 64, 127
1, 64752, Note_on_c, 4, 42, 0
1, 64752, Note_on_c, 7, 73, 127
1, 64754, Note_on_c, 3, 69, 127
1, 64755, Note_on_c, 6, 56, 69
1, 64755, Note_on_c, 6, 52, 72
1, 64756, Note_on_c, 6, 59, 67
1, 64757, Note_on_c, 6, 59, 0
1, 64757, Note_on_c, 6, 56, 0
1, 64757, Note_on_c, 9, 38, 47
1, 64758, Note_on_c, 9, 38, 0
1, 64758, Note_on_c, 6, 52, 0
1, 64763, Note_on_c, 1, 35, 0
1, 64795, Note_on_c, 7, 64, 0
1, 64799, Note_on_c, 0, 68, 117
1, 64799, Note_on_c, 0, 64, 117
1, 64800, Note_on_c, 0, 59, 117
1, 64800, Note_on_c, 1, 40, 127
1, 64801, Note_on_c, 6, 56, 109
1, 64801, Note_on_c, 9, 40, 96
1, 64801, Note_on_c, 9, 28, 92
1, 64802, Note_on_c, 9, 40, 0
1, 64802, Note_on_c, 6, 52, 112
1, 64803, Note_on_c, 9, 28, 0
1, 64803, Note_on_c, 6, 59, 107
1, 64804, Note_on_c, 4, 44, 127
1, 64805, Note_on_c, 3, 69, 0
1, 64806, Note_on_c, 7, 73, 0
1, 64813, Note_on_c, 6, 59, 0
1, 64818, Note_on_c, 6, 52, 0
1, 64821, Note_on_c, 6, 56, 0
1, 64834, Note_on_c, 0, 68, 0
1, 64837, Note_on_c, 0, 64, 0
1, 64840, Note_on_c, 0, 59, 0
1, 64848, Note_on_c, 7, 64, 127
1, 64849, Note_on_c, 9, 40, 48
1, 64850, Note_on_c, 9, 40, 0
1, 64852, Note_on_c, 4, 44, 0
1, 64852, Note_on_c, 3, 69, 127
1, 64852, Note_on_c, 7, 73, 127
1, 64852, Note_on_c, 9, 38, 23
1, 64854, Note_on_c, 9, 38, 0
1, 64862, Note_on_c, 9, 38, 38
1, 64863, Note_on_c, 9, 38, 0
1, 64863, Note_on_c, 1, 40, 0
1, 64872, Note_on_c, 9, 40, 48
1, 64874, Note_on_c, 9, 40, 0
1, 64885, Note_on_c, 9, 38, 58
1, 64886, Note_on_c, 9, 38, 0
1, 64895, Note_on_c, 0, 64, 117
1, 64895, Note_on_c, 0, 57, 117
1, 64896, Note_on_c, 0, 61, 117
1, 64896, Note_on_c, 1, 33, 127
1, 64897, Note_on_c, 6, 61, 126
1, 64897, Note_on_c, 9, 40, 98
1, 64898, Note_on_c, 6, 52, 113
1, 64898, Note_on_c, 9, 35, 111
1, 64899, Note_on_c, 6, 57, 127
1, 64900, Note_on_c, 9, 35, 0
1, 64900, Note_on_c, 9, 40, 0
1, 64900, Note_on_c, 4, 45, 127
1, 64901, Note_on_c, 4, 52, 127
1, 64914, Note_on_c, 7, 64, 0
1, 64918, Note_on_c, 7, 73, 0
1, 64921, Note_on_c, 3, 69, 0
1, 64922, Note_on_c, 0, 61, 0
1, 64923, Note_on_c, 0, 57, 0
1, 64925, Note_on_c, 0, 64, 0
1, 64942, Note_on_c, 4, 45, 0
1, 64943, Note_on_c, 4, 52, 0
1, 64944, Note_on_c, 9, 40, 88
1, 64945, Note_on_c, 6, 57, 0
1, 64946, Note_on_c, 9, 40, 0
1, 64946, Note_on_c, 6, 52, 0
1, 64947, Note_on_c, 6, 61, 0
1, 64962, Note_on_c, 1, 33, 0
1, 64991, Note_on_c, 6, 52, 88
1, 64991, Note_on_c, 6, 56, 96
1, 64992, Note_on_c, 0, 68, 117
1, 64992, Note_on_c, 0, 64, 117
1, 64992, Note_on_c, 0, 59, 117
1, 64992, Note_on_c, 1, 32, 121
1, 64993, Note_on_c, 7, 64, 127
1, 64993, Note_on_c, 9, 40, 98
1, 64994, Note_on_c, 9, 40, 0
1, 64994, Note_on_c, 6, 59, 96
1, 64995, Note_on_c, 3, 68, 115
1, 64996, Note_on_c, 7, 71, 125
1, 64997, Note_on_c, 4, 44, 127
1, 64999, Note_on_c, 4, 52, 127
1, 65007, Note_on_c, 0, 59, 0
1, 65009, Note_on_c, 0, 64, 0
1, 65010, Note_on_c, 0, 68, 0
1, 65017, Note_on_c, 7, 64, 0
1, 65020, Note_on_c, 7, 71, 0
1, 65023, Note_on_c, 1, 32, 0
1, 65028, Note_on_c, 4, 44, 0
1, 65031, Note_on_c, 4, 52, 0
1, 65033, Note_on_c, 3, 68, 0
1, 65035, Note_on_c, 6, 56, 0
1, 65036, Note_on_c, 6, 52, 0
1, 65036, Note_on_c, 6, 59, 0
1, 65039, Note_on_c, 0, 64, 117
1, 65039, Note_on_c, 1, 33, 127
1, 65040, Note_on_c, 0, 61, 117
1, 65040, Note_on_c, 0, 57, 117
1, 65041, Note_on_c, 7, 64, 127
1, 65041, Note_on_c, 9, 35, 111
1, 65041, Note_on_c, 9, 57, 62
1, 65042, Note_on_c, 3, 69, 115
1, 65043, Note_on_c, 9, 57, 0
1, 65043, Note_on_c, 6, 57, 127
1, 65043, Note_on_c, 9, 57, 37
1, 65044, Note_on_c, 9, 35, 0
1, 65044, Note_on_c, 6, 52, 113
1, 65045, Note_on_c, 9, 57, 0
1, 65045, Note_on_c, 6, 61, 126
1, 65046, Note_on_c, 7, 73, 127
1, 65047, Note_on_c, 4, 45, 127
1, 65048, Note_on_c, 4, 52, 127
1, 65100, Control_c, 3, 1, 13
1, 65102, Control_c, 3, 1, 34
1, 65109, Control_c, 3, 1, 54
1, 65113, Control_c, 3, 1, 66
1, 65116, Control_c, 3, 1, 94
1, 65123, Control_c, 3, 1, 102
1, 65127, Control_c, 3, 1, 116
1, 65130, Control_c, 3, 1, 123
1, 65137, Control_c, 3, 1, 127
1, 65149, Control_c, 3, 1, 124
1, 65154, Control_c, 3, 1, 119
1, 65160, Control_c, 3, 1, 116
1, 65161, Control_c, 3, 1, 99
1, 65166, Control_c, 3, 1, 77
1, 65171, Control_c, 3, 1, 5
1, 65175, Control_c, 3, 1, 0
1, 65182, Note_on_c, 1, 33, 0
1, 65195, Note_on_c, 7, 73, 0
1, 65196, Note_on_c, 7, 64, 0
1, 65202, Note_on_c, 3, 69, 0
1, 65260, Note_on_c, 0, 57, 0
1, 65261, Note_on_c, 0, 61, 0
1, 65261, Note_on_c, 0, 64, 0
1, 65287, Note_on_c, 6, 61, 0
1, 65289, Note_on_c, 6, 52, 0
1, 65293, Note_on_c, 6, 57, 0
1, 65294, Note_on_c, 4, 45, 0
1, 65302, Note_on_c, 4, 52, 0
1, 65302, End_track
0, 0, End_of_file
